track,note,velocity,time
1,67,31,0
1,70,45,0
1,70,0,480
1,67,0,0
1,63,29,0
1,67,44,0
1,67,0,240
1,63,0,0
1,58,30,0
1,65,45,0
1,65,0,240
1,58,0,0
1,55,30,0
1,63,45,0
1,63,0,240
1,55,0,0
1,58,43,0
1,58,0,240
1,63,45,0
1,63,0,240
1,62,31,0
1,65,45,0
1,65,0,240
1,62,0,0
1,63,34,0
1,67,47,0
1,67,0,240
1,68,61,0
1,68,0,240
1,70,62,0
1,70,0,240
1,72,62,0
1,72,0,240
1,63,0,0
1,67,57,0
1,63,40,0
1,67,0,360
1,68,48,0
1,68,0,120
1,63,0,0
1,62,35,0
1,65,50,0
1,67,48,120
1,65,0,10
1,68,49,110
1,67,0,10
1,69,49,110
1,68,0,10
1,69,0,110
1,62,0,0
1,70,50,0
1,82,59,0
1,82,0,480
1,79,62,0
1,79,0,240
1,77,58,0
1,77,0,240
1,70,0,0
1,70,50,0
1,75,60,0
1,75,0,180
1,70,0,0
1,74,46,60
1,77,55,0
1,77,0,180
1,74,0,0
1,75,49,60
1,79,58,0
1,79,0,180
1,75,0,0
1,75,51,60
1,80,61,0
1,80,0,180
1,75,0,0
1,82,63,60
1,75,54,0
1,75,0,240
1,82,0,0
1,83,62,0
1,84,59,60
1,83,0,10
1,80,59,50
1,84,0,10
1,77,57,50
1,80,0,10
1,77,0,50
1,75,64,0
1,75,0,240
1,79,60,0
1,77,56,60
1,79,0,10
1,76,56,50
1,77,0,10
1,77,53,50
1,76,0,10
1,77,0,40
1,74,51,10
1,77,61,0
1,77,0,480
1,74,0,0
1,75,54,0
1,75,0,240
1,67,31,240
1,70,45,0
1,70,0,480
1,67,0,0
1,63,29,0
1,67,44,0
1,67,0,240
1,63,0,0
1,58,30,0
1,65,45,0
1,65,0,240
1,58,0,0
1,55,30,0
1,63,45,0
1,63,0,240
1,55,0,0
1,58,43,0
1,58,0,240
1,63,45,0
1,63,0,240
1,62,31,0
1,65,45,0
1,65,0,240
1,62,0,0
1,63,34,0
1,67,47,0
1,67,0,240
1,68,59,0
1,68,0,240
1,70,62,0
1,70,0,240
1,72,59,0
1,72,0,240
1,63,0,0
1,67,57,0
1,63,40,0
1,67,0,360
1,68,48,0
1,68,0,120
1,63,0,0
1,62,35,0
1,65,50,0
1,67,48,120
1,65,0,10
1,68,49,110
1,67,0,10
1,69,49,110
1,68,0,10
1,69,0,110
1,62,0,0
1,70,50,0
1,82,59,0
1,82,0,480
1,79,62,0
1,79,0,240
1,77,58,0
1,77,0,240
1,70,0,0
1,70,50,0
1,75,60,0
1,75,0,180
1,70,0,0
1,74,46,60
1,77,55,0
1,77,0,180
1,74,0,0
1,75,49,60
1,79,58,0
1,79,0,180
1,75,0,0
1,75,51,60
1,80,61,0
1,80,0,180
1,75,0,0
1,82,63,60
1,75,54,0
1,75,0,240
1,82,0,0
1,83,63,0
1,84,59,60
1,83,0,10
1,80,59,50
1,84,0,10
1,77,57,50
1,80,0,10
1,77,0,50
1,75,64,0
1,75,0,240
1,79,60,0
1,77,56,60
1,79,0,10
1,76,56,50
1,77,0,10
1,77,53,50
1,76,0,10
1,77,0,40
1,74,51,10
1,77,61,0
1,77,0,480
1,74,0,0
1,75,54,0
1,75,0,240
1,77,60,240
1,77,0,480
1,79,60,0
1,79,0,240
1,75,55,0
1,75,0,240
1,80,60,0
1,80,0,360
1,77,54,0
1,77,0,120
1,74,56,0
1,75,55,120
1,74,0,10
1,77,57,110
1,75,0,10
1,78,59,110
1,77,0,10
1,79,60,110
1,78,0,10
1,79,0,230
1,79,63,0
1,79,0,240
1,80,63,0
1,80,0,240
1,81,63,0
1,81,0,240
1,82,67,0
1,82,0,360
1,84,58,0
1,82,58,40
1,84,0,10
1,80,58,30
1,82,0,10
1,79,62,30
1,80,0,10
1,79,0,110
1,80,56,0
1,82,60,120
1,80,0,10
1,83,63,110
1,82,0,10
1,83,0,110
1,84,63,0
1,84,0,480
1,82,63,0
1,82,0,480
1,81,63,0
1,81,0,480
1,80,63,0
1,80,0,480
1,79,67,0
1,79,0,240
1,87,68,0
1,87,0,240
1,77,67,0
1,77,0,240
1,84,64,0
1,84,0,240
1,75,56,0
1,75,0,360
1,77,46,0
1,77,0,60
1,75,42,0
1,75,0,60
1,74,45,0
1,74,0,240
1,67,31,240
1,70,45,0
1,70,0,480
1,67,0,0
1,63,29,0
1,67,44,0
1,67,0,240
1,63,0,0
1,58,30,0
1,65,45,0
1,65,0,240
1,58,0,0
1,55,30,0
1,63,45,0
1,63,0,240
1,55,0,0
1,58,43,0
1,58,0,240
1,63,45,0
1,63,0,240
1,62,31,0
1,65,45,0
1,65,0,240
1,62,0,0
1,63,34,0
1,67,47,0
1,67,0,240
1,68,61,0
1,68,0,240
1,70,62,0
1,70,0,240
1,72,62,0
1,72,0,240
1,63,0,0
1,67,57,0
1,63,40,0
1,67,0,360
1,68,48,0
1,68,0,120
1,63,0,0
1,62,35,0
1,65,50,0
1,67,48,120
1,65,0,10
1,68,49,110
1,67,0,10
1,69,49,110
1,68,0,10
1,69,0,110
1,62,0,0
1,70,50,0
1,82,59,0
1,82,0,480
1,79,62,0
1,79,0,240
1,77,58,0
1,77,0,240
1,70,0,0
1,70,50,0
1,75,60,0
1,75,0,180
1,70,0,0
1,74,46,60
1,77,55,0
1,77,0,180
1,74,0,0
1,75,49,60
1,79,58,0
1,79,0,180
1,75,0,0
1,75,51,60
1,80,61,0
1,80,0,180
1,75,0,0
1,82,63,60
1,75,54,0
1,75,0,240
1,82,0,0
1,83,62,0
1,84,59,60
1,83,0,10
1,80,59,50
1,84,0,10
1,77,57,50
1,80,0,10
1,77,0,50
1,75,64,0
1,75,0,240
1,79,60,0
1,77,56,60
1,79,0,10
1,76,56,50
1,77,0,10
1,77,53,50
1,76,0,10
1,77,0,40
1,74,51,10
1,77,61,0
1,77,0,480
1,74,0,0
1,75,54,0
1,75,0,240
1,77,60,240
1,77,0,480
1,79,60,0
1,79,0,240
1,75,55,0
1,75,0,240
1,80,60,0
1,80,0,360
1,77,54,0
1,77,0,120
1,74,56,0
1,75,55,120
1,74,0,10
1,77,57,110
1,75,0,10
1,78,59,110
1,77,0,10
1,79,60,110
1,78,0,10
1,79,0,230
1,79,63,0
1,79,0,240
1,80,63,0
1,80,0,240
1,81,63,0
1,81,0,240
1,82,67,0
1,82,0,360
1,84,58,0
1,82,58,40
1,84,0,10
1,80,58,30
1,82,0,10
1,79,62,30
1,80,0,10
1,79,0,110
1,80,56,0
1,82,60,120
1,80,0,10
1,83,63,110
1,82,0,10
1,83,0,110
1,84,63,0
1,84,0,480
1,82,63,0
1,82,0,480
1,81,63,0
1,81,0,480
1,80,63,0
1,80,0,480
1,79,67,0
1,79,0,240
1,87,68,0
1,87,0,240
1,77,67,0
1,77,0,240
1,84,64,0
1,84,0,240
1,75,56,0
1,75,0,360
1,77,46,0
1,77,0,60
1,75,42,0
1,75,0,60
1,74,45,0
1,74,0,240
1,67,31,240
1,70,45,0
1,70,0,480
1,67,0,0
1,63,29,0
1,67,44,0
1,67,0,240
1,63,0,0
1,58,30,0
1,65,45,0
1,65,0,240
1,58,0,0
1,55,30,0
1,63,45,0
1,63,0,240
1,55,0,0
1,58,43,0
1,58,0,240
1,63,45,0
1,63,0,240
1,62,31,0
1,65,45,0
1,65,0,240
1,62,0,0
1,63,34,0
1,67,47,0
1,67,0,240
1,68,61,0
1,68,0,240
1,70,62,0
1,70,0,240
1,72,62,0
1,72,0,240
1,63,0,0
1,67,57,0
1,63,40,0
1,67,0,360
1,68,48,0
1,68,0,120
1,63,0,0
1,62,35,0
1,65,50,0
1,67,48,120
1,65,0,10
1,68,49,110
1,67,0,10
1,69,49,110
1,68,0,10
1,69,0,110
1,62,0,0
1,70,50,0
1,82,59,0
1,82,0,480
1,79,62,0
1,79,0,240
1,77,58,0
1,77,0,240
1,70,0,0
1,70,50,0
1,75,60,0
1,75,0,180
1,70,0,0
1,74,46,60
1,77,55,0
1,77,0,180
1,74,0,0
1,75,49,60
1,79,58,0
1,79,0,180
1,75,0,0
1,75,51,60
1,80,61,0
1,80,0,180
1,75,0,0
1,82,63,60
1,75,54,0
1,75,0,240
1,82,0,0
1,83,62,0
1,84,59,60
1,83,0,10
1,80,59,50
1,84,0,10
1,77,57,50
1,80,0,10
1,77,0,50
1,75,64,0
1,75,0,240
1,79,60,0
1,77,56,60
1,79,0,10
1,76,56,50
1,77,0,10
1,77,53,50
1,76,0,10
1,77,0,40
1,74,51,10
1,77,61,0
1,77,0,480
1,74,0,0
1,75,54,0
1,75,0,240
1,75,49,240
1,79,59,0
1,79,0,360
1,75,0,0
1,74,47,0
1,77,56,0
1,77,0,120
1,74,0,0
1,72,47,0
1,75,56,0
1,75,0,240
1,72,0,0
1,77,52,240
1,80,63,0
1,80,0,360
1,77,0,0
1,75,46,0
1,79,54,0
1,79,0,120
1,75,0,0
1,74,48,0
1,77,58,0
1,77,0,240
1,74,0,0
1,72,47,360
1,75,57,0
1,74,50,120
1,77,60,0
1,75,0,12
1,72,0,0
1,75,52,108
1,79,62,0
1,74,0,12
1,77,0,0
1,75,0,78
1,79,0,0
1,75,51,30
1,79,61,0
1,79,0,120
1,75,0,0
1,74,50,0
1,77,60,0
1,77,0,120
1,74,0,0
1,74,48,0
1,77,58,0
1,77,0,120
1,74,0,0
1,72,47,0
1,75,56,0
1,75,0,90
1,72,0,0
1,72,49,30
1,75,58,0
1,75,0,480
1,72,0,0
1,71,45,0
1,74,54,0
1,74,0,240
1,71,0,0
1,75,57,360
1,75,0,120
1,72,53,0
1,72,0,120
1,68,53,0
1,68,0,120
1,67,53,0
1,67,0,240
1,66,55,0
1,66,0,240
1,82,61,120
1,82,0,120
1,79,61,0
1,79,0,120
1,75,61,0
1,75,0,120
1,74,65,0
1,74,0,240
1,73,61,0
1,73,0,240
1,74,54,120
1,74,0,120
1,70,53,120
1,67,45,0
1,67,0,120
1,70,0,0
1,69,45,120
1,72,53,0
1,72,0,120
1,69,0,0
1,69,45,120
1,66,53,0
1,66,0,120
1,69,0,0
1,67,49,120
1,67,0,120
1,69,49,0
1,69,0,120
1,71,49,0
1,71,0,120
1,69,41,0
1,72,49,0
1,72,0,120
1,69,0,0
1,71,42,0
1,74,50,0
1,74,0,120
1,71,0,0
1,72,44,0
1,75,52,0
1,75,0,120
1,72,0,0
1,74,45,0
1,77,54,0
1,77,0,120
1,74,0,0
1,75,49,0
1,79,59,0
1,79,0,360
1,75,0,0
1,74,47,0
1,77,56,0
1,77,0,120
1,74,0,0
1,72,47,0
1,75,56,0
1,75,0,240
1,72,0,0
1,77,52,240
1,80,63,0
1,80,0,360
1,77,0,0
1,75,46,0
1,79,54,0
1,79,0,120
1,75,0,0
1,74,48,0
1,77,58,0
1,77,0,240
1,74,0,0
1,72,47,360
1,75,57,0
1,74,50,120
1,77,60,0
1,75,0,12
1,72,0,0
1,75,52,108
1,79,62,0
1,74,0,12
1,77,0,0
1,75,0,78
1,79,0,0
1,75,51,30
1,79,61,0
1,79,0,120
1,75,0,0
1,74,50,0
1,77,60,0
1,77,0,120
1,74,0,0
1,74,48,0
1,77,58,0
1,77,0,120
1,74,0,0
1,72,47,0
1,75,56,0
1,75,0,90
1,72,0,0
1,72,49,30
1,75,58,0
1,75,0,480
1,72,0,0
1,71,45,0
1,74,54,0
1,74,0,240
1,71,0,0
1,75,57,360
1,75,0,120
1,72,53,0
1,72,0,120
1,68,53,0
1,68,0,120
1,67,53,0
1,67,0,240
1,66,55,0
1,66,0,240
1,82,61,120
1,82,0,120
1,79,61,0
1,79,0,120
1,75,61,0
1,75,0,120
1,74,65,0
1,74,0,240
1,73,61,0
1,73,0,240
1,74,54,120
1,74,0,120
1,70,53,120
1,67,45,0
1,67,0,120
1,70,0,0
1,69,45,120
1,72,53,0
1,72,0,120
1,69,0,0
1,69,45,120
1,66,53,0
1,66,0,120
1,69,0,0
1,67,49,120
1,67,0,120
1,69,49,0
1,69,0,120
1,71,49,0
1,71,0,120
1,69,41,0
1,72,49,0
1,72,0,120
1,69,0,0
1,71,42,0
1,74,50,0
1,74,0,120
1,71,0,0
1,72,44,0
1,75,52,0
1,75,0,120
1,72,0,0
1,74,45,0
1,77,54,0
1,77,0,120
1,74,0,0
1,76,49,0
1,79,59,0
1,79,0,480
1,76,0,0
1,77,47,0
1,80,56,0
1,80,0,480
1,77,0,0
1,79,52,0
1,82,63,0
1,82,0,480
1,79,0,0
1,77,48,0
1,80,58,0
1,80,0,240
1,77,0,0
1,74,57,240
1,77,68,0
1,77,0,480
1,74,0,0
1,75,54,0
1,79,64,0
1,79,0,480
1,75,0,0
1,77,57,0
1,80,68,0
1,80,0,480
1,77,0,0
1,75,54,0
1,79,63,0
1,79,0,240
1,75,0,0
1,78,61,360
1,79,63,120
1,78,0,12
1,78,60,108
1,79,0,12
1,78,0,108
1,86,66,0
1,86,0,240
1,77,62,0
1,77,0,240
1,76,60,120
1,77,62,120
1,76,0,12
1,76,57,108
1,77,0,12
1,76,0,108
1,84,63,0
1,84,0,240
1,75,57,0
1,75,0,240
1,73,54,120
1,72,56,120
1,73,0,12
1,73,54,108
1,72,0,12
1,76,58,108
1,73,0,12
1,77,50,108
1,76,0,12
1,79,53,108
1,77,0,12
1,80,55,108
1,79,0,12
1,80,0,108
1,72,55,0
1,72,0,480
1,71,54,0
1,74,49,120
1,71,0,12
1,75,52,108
1,74,0,12
1,77,54,108
1,75,0,12
1,77,0,108
1,75,49,0
1,79,59,0
1,79,0,360
1,75,0,0
1,74,47,0
1,77,56,0
1,77,0,120
1,74,0,0
1,72,47,0
1,75,56,0
1,75,0,240
1,72,0,0
1,77,52,240
1,80,63,0
1,80,0,360
1,77,0,0
1,75,46,0
1,79,54,0
1,79,0,120
1,75,0,0
1,74,48,0
1,77,58,0
1,77,0,240
1,74,0,0
1,72,47,360
1,75,57,0
1,74,50,120
1,77,60,0
1,75,0,12
1,72,0,0
1,75,52,108
1,79,62,0
1,74,0,12
1,77,0,0
1,75,0,78
1,79,0,0
1,75,51,30
1,79,61,0
1,79,0,120
1,75,0,0
1,74,50,0
1,77,60,0
1,77,0,120
1,74,0,0
1,74,48,0
1,77,58,0
1,77,0,120
1,74,0,0
1,72,47,0
1,75,56,0
1,75,0,90
1,72,0,0
1,72,49,30
1,75,58,0
1,75,0,480
1,72,0,0
1,71,45,0
1,74,54,0
1,74,0,240
1,71,0,0
1,79,61,360
1,79,0,120
1,75,56,0
1,75,0,120
1,71,56,0
1,71,0,120
1,74,60,0
1,74,0,240
1,72,55,0
1,72,0,240
1,84,61,120
1,84,0,120
1,80,61,0
1,80,0,120
1,76,61,0
1,76,0,120
1,79,65,0
1,79,0,240
1,78,61,0
1,78,0,240
1,79,54,120
1,79,0,120
1,75,53,120
1,72,45,0
1,72,0,120
1,75,0,0
1,74,45,120
1,77,53,0
1,77,0,120
1,74,0,0
1,74,45,120
1,71,53,0
1,71,0,120
1,74,0,0
1,71,49,120
1,71,0,120
1,72,49,0
1,72,0,120
1,71,49,0
1,71,0,120
1,72,49,0
1,72,0,120
1,71,42,0
1,74,50,0
1,74,0,120
1,71,0,0
1,72,44,0
1,75,52,0
1,75,0,120
1,72,0,0
1,74,45,0
1,77,54,0
1,77,0,120
1,74,0,0
1,76,49,0
1,79,59,0
1,79,0,480
1,76,0,0
1,77,47,0
1,80,56,0
1,80,0,480
1,77,0,0
1,79,52,0
1,82,63,0
1,82,0,480
1,79,0,0
1,77,48,0
1,80,58,0
1,80,0,240
1,77,0,0
1,74,57,240
1,77,68,0
1,77,0,480
1,74,0,0
1,75,54,0
1,79,64,0
1,79,0,480
1,75,0,0
1,77,57,0
1,80,68,0
1,80,0,480
1,77,0,0
1,75,54,0
1,79,63,0
1,79,0,240
1,75,0,0
1,78,61,360
1,79,63,120
1,78,0,12
1,78,60,108
1,79,0,12
1,78,0,108
