track,note,velocity,time
0,36,56,856
0,52,64,0
0,55,61,0
0,48,59,0
0,52,61,36
0,55,54,0
0,48,41,14
0,52,59,116
0,55,54,0
0,48,48,4
0,52,58,84
0,59,67,0
0,48,45,8
0,41,45,14
0,53,56,0
0,57,56,0
0,48,54,2
0,53,58,54
0,57,56,0
0,48,34,20
0,53,59,56
0,57,60,0
0,48,44,0
0,41,45,104
0,48,46,0
0,53,45,0
0,57,59,0
0,58,45,32
0,59,60,40
0,36,49,112
0,48,28,0
0,52,46,0
0,55,59,0
0,48,45,22
0,52,51,92
0,55,51,0
0,48,41,2
0,52,61,66
0,55,56,0
0,48,53,18
0,52,56,102
0,55,56,0
0,59,61,0
0,48,51,6
0,41,50,18
0,53,58,0
0,57,59,0
0,48,48,2
0,53,54,28
0,57,56,0
0,48,35,0
0,53,59,74
0,57,54,0
0,41,48,22
0,48,59,0
0,48,37,122
0,53,45,0
0,57,56,0
0,58,55,46
0,48,54,34
0,59,61,0
0,36,50,132
0,52,55,0
0,55,61,0
0,48,46,0
0,67,44,0
0,52,54,52
0,55,54,0
0,67,78,0
0,67,75,52
0,48,39,48
0,67,70,0
0,52,49,100
0,55,55,0
0,48,41,22
0,52,48,40
0,55,51,0
0,59,61,0
0,71,71,0
0,48,53,2
0,71,71,0
0,41,46,12
0,53,51,0
0,57,54,0
0,69,66,0
0,48,48,6
0,53,58,64
0,57,59,0
0,48,30,10
0,53,61,76
0,57,56,0
0,41,39,24
0,48,53,0
0,48,31,104
0,53,43,0
0,57,55,0
0,48,45,46
0,58,60,0
0,48,56,14
0,59,61,0
0,36,50,134
0,52,56,0
0,55,60,0
0,48,30,8
0,52,59,80
0,55,59,0
0,67,69,0
0,48,27,8
0,67,65,0
0,52,51,112
0,55,59,0
0,48,34,12
0,71,70,0
0,52,56,118
0,59,59,0
0,48,45,6
0,69,64,0
0,41,43,86
0,53,48,0
0,57,60,0
0,48,45,6
0,53,49,58
0,57,55,0
0,48,36,8
0,53,53,98
0,57,56,0
0,41,45,22
0,48,45,0
0,48,44,74
0,53,49,0
0,57,58,0
0,58,48,52
0,48,46,2
0,59,58,0
0,36,49,128
0,52,55,0
0,55,59,0
0,48,38,10
0,52,56,58
0,55,59,0
0,48,30,12
0,64,44,96
0,52,48,48
0,55,50,0
0,67,66,0
0,48,46,20
0,67,53,0
0,52,58,128
0,55,60,0
0,59,61,0
0,71,54,10
0,48,38,0
0,41,46,4
0,53,46,0
0,57,55,0
0,71,69,0
0,48,54,2
0,69,58,0
0,48,11,28
0,53,58,0
0,57,55,0
0,48,50,12
0,53,60,64
0,57,61,0
0,41,50,12
0,48,48,0
0,48,38,8
0,53,39,0
0,57,41,0
0,58,39,56
0,48,56,38
0,59,65,0
0,36,53,6
0,52,55,0
0,55,60,0
0,48,37,2
0,52,60,58
0,55,59,0
0,48,26,4
0,64,45,96
0,52,54,42
0,55,58,0
0,67,69,0
0,67,54,36
0,48,53,18
0,52,48,96
0,55,54,0
0,59,55,0
0,71,59,0
0,48,34,6
0,71,69,0
0,41,51,24
0,53,56,0
0,57,64,0
0,69,63,0
0,48,54,186
0,53,58,40
0,57,58,0
0,48,32,8
0,53,56,74
0,57,55,0
0,45,75,4
0,48,39,0
0,45,75,72
0,48,34,70
0,53,59,0
0,57,49,0
0,43,72,44
0,43,80,2
0,48,37,0
0,36,96,48
0,41,60,0
0,44,73,0
0,57,67,0
0,60,66,0
0,29,96,0
0,44,63,22
0,53,46,0
0,69,53,72
0,40,82,4
0,44,77,0
0,57,61,0
0,60,67,0
0,72,84,0
0,69,53,2
0,41,50,26
0,44,66,0
0,53,36,0
0,72,81,0
0,36,96,6
0,40,56,0
0,44,70,0
0,52,60,0
0,57,55,0
0,60,63,0
0,28,96,0
0,36,96,4
0,44,70,0
0,52,56,0
0,40,82,72
0,44,72,0
0,52,60,0
0,57,61,0
0,60,67,0
0,76,75,0
0,40,49,0
0,44,70,0
0,52,40,0
0,76,78,0
0,36,96,6
0,38,59,0
0,44,71,0
0,53,59,0
0,57,50,0
0,60,58,0
0,74,70,0
0,38,96,0
0,44,66,0
0,40,82,168
0,44,77,0
0,53,58,0
0,57,55,0
0,60,58,0
0,69,62,0
0,38,45,168
0,44,71,0
0,36,96,6
0,36,56,0
0,44,72,0
0,53,49,0
0,57,48,0
0,60,56,0
0,36,96,0
0,36,96,120
0,36,61,0
0,44,70,0
0,40,82,38
0,44,76,0
0,53,54,0
0,57,46,0
0,60,45,0
0,36,44,72
0,44,72,0
0,36,96,6
0,43,63,0
0,44,72,0
0,55,61,0
0,59,63,0
0,62,65,0
0,71,66,0
0,31,96,0
0,44,59,0
0,55,56,0
0,71,71,0
0,40,82,122
0,44,79,0
0,55,48,0
0,59,61,0
0,62,69,0
0,43,58,14
0,44,69,0
0,55,29,0
0,36,96,96
0,44,70,0
0,55,51,0
0,59,60,0
0,62,63,0
0,71,69,0
0,36,96,10
0,44,68,0
0,55,48,0
0,40,82,12
0,44,76,0
0,55,64,0
0,60,69,0
0,64,71,0
0,72,69,0
0,44,69,6
0,55,48,0
0,74,65,0
0,38,96,0
0,36,96,6
0,43,61,0
0,55,49,0
0,55,60,0
0,62,66,0
0,65,67,0
0,43,96,0
0,76,58,42
0,79,70,150
0,76,58,6
0,74,54,8
0,52,58,76
0,60,48,0
0,64,61,0
0,67,60,0
0,36,96,10
0,36,50,0
0,44,65,0
0,52,55,0
0,55,61,0
0,72,57,0
0,36,96,0
0,44,64,0
0,48,46,0
0,40,82,96
0,44,70,0
0,52,54,0
0,55,54,0
0,44,67,48
0,48,39,0
0,67,53,0
0,36,96,98
0,44,68,0
0,52,49,0
0,55,55,0
0,67,75,0
0,36,96,22
0,44,65,0
0,48,41,0
0,40,82,116
0,44,73,0
0,52,48,0
0,55,51,0
0,59,61,0
0,71,66,0
0,44,65,2
0,48,53,0
0,71,69,0
0,53,52,16
0,65,53,0
0,69,60,0
0,36,96,6
0,41,46,0
0,44,66,0
0,53,51,0
0,57,54,0
0,69,70,0
0,29,96,0
0,44,64,6
0,48,48,0
0,40,82,64
0,44,68,0
0,53,58,0
0,57,59,0
0,44,68,10
0,48,30,0
0,36,96,76
0,44,70,0
0,53,61,0
0,57,56,0
0,36,96,24
0,41,39,0
0,44,68,0
0,48,53,0
0,40,82,104
0,44,71,0
0,48,31,0
0,53,43,0
0,57,55,0
0,48,45,46
0,58,60,0
0,44,67,14
0,48,56,0
0,59,61,0
0,52,55,114
0,64,52,0
0,67,51,0
0,36,96,4
0,36,50,0
0,44,65,0
0,52,56,0
0,55,60,0
0,36,96,0
0,44,68,8
0,48,30,0
0,40,82,80
0,44,73,0
0,52,59,0
0,55,59,0
0,44,66,8
0,48,27,0
0,67,60,0
0,36,96,58
0,44,71,0
0,52,51,0
0,55,59,0
0,67,81,0
0,36,96,12
0,44,68,0
0,48,34,0
0,40,82,118
0,44,71,0
0,52,56,0
0,59,59,0
0,71,73,0
0,44,68,168
0,48,45,0
0,53,60,4
0,65,47,0
0,69,63,0
0,36,96,6
0,41,43,0
0,44,70,0
0,53,48,0
0,57,60,0
0,69,70,0
0,29,96,0
0,44,68,6
0,48,45,0
0,40,82,58
0,44,70,0
0,53,49,0
0,57,55,0
0,44,65,8
0,48,36,0
0,36,96,98
0,44,67,0
0,53,53,0
0,57,56,0
0,36,96,22
0,41,45,0
0,44,66,0
0,48,45,0
0,40,82,74
0,44,71,0
0,48,44,0
0,53,49,0
0,57,58,0
0,58,48,52
0,44,67,2
0,48,46,0
0,59,58,0
0,52,63,108
0,64,57,0
0,67,60,0
0,36,96,0
0,36,49,0
0,44,71,0
0,52,55,0
0,55,59,0
0,36,96,0
0,44,66,10
0,48,38,0
0,64,24,34
0,40,82,46
0,44,68,0
0,52,56,0
0,55,59,0
0,67,65,0
0,44,70,12
0,48,30,0
0,67,71,0
0,36,96,80
0,44,69,0
0,52,48,0
0,55,50,0
0,36,96,10
0,44,70,0
0,48,46,0
0,71,81,0
0,40,82,128
0,44,72,0
0,52,58,0
0,55,60,0
0,59,61,0
0,44,68,0
0,48,38,0
0,71,81,0
0,53,60,12
0,65,37,0
0,69,63,0
0,36,96,4
0,41,46,0
0,44,69,0
0,53,46,0
0,57,55,0
0,29,96,0
0,44,66,2
0,48,54,0
0,69,66,0
0,40,82,28
0,44,70,0
0,48,11,0
0,53,58,0
0,57,55,0
0,44,71,12
0,48,50,0
0,36,96,64
0,44,72,0
0,53,60,0
0,57,61,0
0,36,96,12
0,41,50,0
0,44,69,0
0,48,48,0
0,40,82,118
0,44,71,0
0,48,38,0
0,53,39,0
0,57,41,0
0,58,39,56
0,44,69,38
0,48,56,0
0,59,65,0
0,52,69,106
0,64,58,0
0,67,60,0
0,36,96,6
0,36,53,0
0,44,71,0
0,52,55,0
0,55,60,0
0,36,96,0
0,44,69,2
0,48,37,0
0,40,82,58
0,44,76,0
0,52,60,0
0,55,59,0
0,44,66,4
0,48,26,0
0,36,96,74
0,44,70,0
0,52,54,0
0,55,58,0
0,67,69,0
0,36,96,18
0,44,68,0
0,48,53,0
0,67,68,0
0,40,82,4
0,44,74,0
0,52,48,0
0,55,54,0
0,59,55,0
0,71,84,0
0,44,64,6
0,48,34,0
0,71,66,0
0,53,61,2
0,65,61,0
0,69,63,0
0,36,96,6
0,41,51,0
0,44,72,0
0,53,56,0
0,57,64,0
0,69,69,0
0,29,96,0
0,44,65,168
0,48,54,0
0,40,82,40
0,44,71,0
0,53,58,0
0,57,58,0
0,44,67,8
0,48,32,0
0,36,96,74
0,44,72,0
0,53,56,0
0,57,55,0
0,44,72,4
0,48,39,0
0,45,63,72
0,72,66,26
0,45,60,44
0,48,34,0
0,53,59,0
0,57,49,0
0,43,67,2
0,48,37,0
0,69,50,28
0,77,58,0
0,36,96,20
0,41,60,0
0,57,56,0
0,57,67,0
0,60,66,0
0,29,96,0
0,44,88,22
0,53,46,0
0,69,50,72
0,40,82,38
0,44,88,0
0,57,61,0
0,60,67,0
0,72,73,0
0,69,37,24
0,41,50,38
0,44,88,0
0,53,36,0
0,72,81,0
0,64,61,20
0,76,50,2
0,72,60,2
0,36,96,6
0,40,56,0
0,44,88,0
0,52,60,0
0,57,55,0
0,60,63,0
0,28,96,0
0,36,96,4
0,44,88,0
0,52,56,0
0,40,82,72
0,44,88,0
0,52,60,0
0,57,61,0
0,60,67,0
0,76,75,0
0,40,49,0
0,44,88,0
0,52,40,0
0,76,75,0
0,74,58,44
0,62,60,12
0,36,96,6
0,38,59,0
0,44,88,0
0,53,59,0
0,57,50,0
0,60,58,0
0,74,75,0
0,38,96,0
0,44,88,0
0,40,82,4
0,44,88,0
0,53,58,0
0,57,55,0
0,60,58,0
0,69,57,0
0,38,45,168
0,44,88,0
0,72,51,106
0,60,51,6
0,36,96,6
0,36,56,0
0,44,88,0
0,53,49,0
0,57,48,0
0,60,56,0
0,36,96,0
0,36,96,120
0,36,61,0
0,44,88,0
0,40,82,38
0,44,88,0
0,53,54,0
0,57,46,0
0,60,45,0
0,36,44,72
0,44,88,0
0,74,40,96
0,59,55,10
0,71,57,8
0,67,57,4
0,36,96,6
0,43,63,0
0,44,88,0
0,55,61,0
0,59,63,0
0,62,65,0
0,71,81,0
0,31,96,0
0,44,88,0
0,55,56,0
0,71,86,0
0,40,82,122
0,44,88,0
0,55,48,0
0,59,61,0
0,62,69,0
0,43,58,14
0,44,88,0
0,55,29,0
0,36,96,112
0,44,88,0
0,55,51,0
0,59,60,0
0,62,63,0
0,71,78,0
0,36,96,10
0,44,88,0
0,55,48,0
0,76,62,0
0,72,56,4
0,60,76,2
0,40,82,20
0,44,88,0
0,55,64,0
0,60,69,0
0,64,71,0
0,72,89,0
0,44,88,6
0,55,48,0
0,74,78,0
0,38,96,0
0,77,51,86
0,74,48,2
0,62,68,10
0,36,96,6
0,43,61,0
0,55,60,0
0,57,56,0
0,62,66,0
0,65,67,0
0,43,96,0
0,76,75,122
0,79,66,154
0,76,73,64
0,74,69,4
0,36,83,2
0,41,55,0
0,44,65,0
0,48,61,0
0,53,61,0
0,57,63,0
0,72,70,0
0,29,83,0
0,44,64,12
0,48,70,0
0,77,51,14
0,81,60,2
0,69,61,2
0,40,82,14
0,44,72,0
0,48,63,0
0,53,69,0
0,57,69,0
0,44,60,10
0,48,46,0
0,69,58,0
0,72,66,8
0,79,62,52
0,83,60,2
0,71,57,8
0,36,78,6
0,43,59,0
0,44,66,0
0,50,60,0
0,55,60,0
0,59,66,0
0,71,70,0
0,31,75,0
0,36,83,12
0,44,51,0
0,50,67,0
0,40,82,38
0,44,73,0
0,50,61,0
0,55,66,0
0,59,71,0
0,86,60,48
0,74,60,20
0,43,43,4
0,44,60,0
0,50,48,0
0,69,53,0
0,36,58,12
0,71,57,0
0,79,47,18
0,84,62,8
0,72,60,8
0,36,91,4
0,36,60,0
0,44,66,0
0,52,59,0
0,55,63,0
0,60,64,0
0,72,64,0
0,36,75,0
0,44,51,4
0,48,60,0
0,52,60,0
0,72,68,0
0,40,82,76
0,44,71,0
0,52,61,0
0,55,65,0
0,59,66,0
0,44,61,8
0,48,45,0
0,52,58,0
0,83,50,62
0,80,51,2
0,71,52,14
0,36,83,2
0,40,54,0
0,44,59,0
0,52,60,0
0,56,58,0
0,59,63,0
0,28,72,0
0,36,87,10
0,44,54,0
0,52,69,0
0,40,82,46
0,44,70,0
0,56,56,0
0,59,60,0
0,62,67,0
0,44,55,6
0,52,67,0
0,77,48,74
0,81,52,12
0,69,62,6
0,36,83,10
0,41,58,0
0,44,67,0
0,48,53,0
0,53,60,0
0,57,65,0
0,29,75,0
0,44,55,4
0,48,54,0
0,40,82,46
0,44,68,0
0,48,49,0
0,53,60,0
0,57,63,0
0,44,58,10
0,48,64,0
0,69,75,0
0,72,48,10
0,83,67,46
0,79,66,2
0,71,61,2
0,36,95,6
0,43,58,0
0,44,60,0
0,50,50,0
0,55,56,0
0,59,66,0
0,71,78,0
0,31,75,0
0,36,91,68
0,44,55,0
0,50,60,0
0,71,68,0
0,69,70,22
0,40,82,54
0,44,72,0
0,50,59,0
0,55,66,0
0,59,61,0
0,69,69,32
0,86,63,12
0,74,61,10
0,43,41,14
0,44,58,0
0,50,40,0
0,62,48,8
0,36,78,8
0,64,58,0
0,36,51,0
0,79,51,18
0,84,62,2
0,72,57,4
0,36,103,4
0,36,58,0
0,44,63,0
0,52,58,0
0,55,65,0
0,60,67,0
0,36,67,0
0,44,54,2
0,48,54,0
0,52,56,0
0,40,82,96
0,44,66,0
0,52,59,0
0,55,61,0
0,59,70,0
0,44,54,14
0,48,48,0
0,52,60,0
0,83,58,50
0,80,61,4
0,71,60,6
0,36,91,2
0,40,56,0
0,44,63,0
0,52,58,0
0,56,58,0
0,59,65,0
0,28,78,0
0,36,103,8
0,44,57,0
0,52,58,0
0,40,82,98
0,44,69,0
0,52,65,0
0,56,60,0
0,62,71,0
0,40,49,4
0,44,57,0
0,52,59,0
0,36,71,42
0,77,60,4
0,81,55,2
0,69,55,8
0,36,103,8
0,41,61,0
0,44,65,0
0,48,54,0
0,53,58,0
0,57,59,0
0,29,80,0
0,44,54,0
0,48,61,0
0,69,59,60
0,40,82,52
0,44,70,0
0,48,54,0
0,53,63,0
0,57,60,0
0,69,86,0
0,44,62,2
0,48,54,0
0,72,84,0
0,79,61,4
0,83,61,2
0,71,58,6
0,36,83,14
0,43,58,0
0,44,63,0
0,50,56,0
0,55,63,0
0,59,60,0
0,71,81,0
0,31,78,0
0,36,99,6
0,44,61,0
0,50,69,0
0,72,55,0
0,71,62,10
0,40,82,18
0,44,69,0
0,50,58,0
0,55,67,0
0,59,66,0
0,69,68,0
0,86,61,82
0,74,56,2
0,43,41,18
0,44,59,0
0,50,58,0
0,36,64,16
0,71,38,0
0,79,62,8
0,84,63,4
0,72,61,2
0,36,91,6
0,36,58,0
0,44,64,0
0,52,56,0
0,55,63,0
0,60,66,0
