track,note,velocity,time
3,74,88,0
3,74,0,59
3,76,79,1
3,76,0,59
3,79,79,1
3,79,0,29
3,76,88,1
3,76,0,89
3,74,88,1
3,74,0,59
3,76,71,1
3,76,0,29
3,71,79,1
3,71,0,59
3,69,88,1
3,69,0,449
3,69,88,121
3,69,0,59
3,71,79,1
3,71,0,29
3,74,88,1
3,74,0,89
3,71,79,1
3,71,0,29
3,69,79,1
3,69,0,59
3,71,79,1
3,71,0,89
3,67,79,1
3,67,0,29
3,64,88,1
3,64,0,449
3,64,79,121
3,64,0,59
3,66,79,1
3,66,0,29
3,67,79,1
3,67,0,89
3,69,79,1
3,69,0,29
3,71,88,1
3,71,0,89
3,74,79,1
3,74,0,29
3,74,88,1
3,74,0,509
3,64,88,121
3,64,0,59
3,66,79,1
3,66,0,29
3,67,79,1
3,67,0,89
3,69,88,1
3,69,0,29
3,71,79,1
3,71,0,89
3,76,79,1
3,76,0,59
3,76,88,1
3,76,0,239
3,71,88,301
3,71,0,59
3,74,79,1
3,74,0,29
3,71,88,1
3,71,0,89
3,74,75,1
3,74,0,89
3,74,67,1
3,74,0,29
3,74,71,1
3,74,0,59
3,72,79,1
3,72,0,59
3,72,79,1
3,72,0,59
3,67,79,1
3,67,0,449
3,71,75,31
3,71,0,59
3,74,79,1
3,74,0,29
3,71,79,1
3,71,0,59
3,74,79,1
3,74,0,209
3,71,79,1
3,71,0,59
3,74,75,1
3,74,0,29
3,76,79,1
3,76,0,59
3,77,79,1
3,77,0,269
3,70,75,1
3,70,0,59
3,67,79,1
3,67,0,59
3,67,79,91
3,67,0,29
3,71,79,1
3,71,0,29
3,71,79,1
3,71,0,59
3,69,79,1
3,69,0,119
3,67,88,1
3,67,0,29
3,71,75,1
3,71,0,39
3,69,71,1
3,69,0,39
3,67,88,1
3,67,0,39
3,64,79,1
3,64,0,479
3,64,51,31
3,64,0,29
3,67,63,1
3,67,0,29
3,64,63,1
3,64,0,29
3,71,75,1
3,71,0,29
3,67,75,1
3,67,0,59
3,67,79,1
3,67,0,269
3,74,88,361
3,74,0,59
3,76,79,1
3,76,0,59
3,79,79,1
3,79,0,29
3,76,88,1
3,76,0,89
3,74,88,1
3,74,0,59
3,76,71,1
3,76,0,29
3,71,79,1
3,71,0,59
3,69,88,1
3,69,0,449
3,69,88,1
3,69,0,59
3,69,88,61
3,69,0,59
3,71,79,1
3,71,0,29
3,74,88,1
3,74,0,89
3,71,79,1
3,71,0,29
3,69,79,1
3,69,0,59
3,71,79,1
3,71,0,89
3,67,79,1
3,67,0,29
3,64,88,1
3,64,0,449
3,64,79,121
3,64,0,59
3,66,79,1
3,66,0,29
3,67,79,1
3,67,0,89
3,69,79,1
3,69,0,29
3,71,88,1
3,71,0,89
3,74,79,1
3,74,0,29
3,74,88,1
3,74,0,509
3,64,88,121
3,64,0,59
3,66,79,1
3,66,0,29
3,67,79,1
3,67,0,89
3,69,88,1
3,69,0,29
3,71,79,1
3,71,0,89
3,76,79,1
3,76,0,59
3,76,88,1
3,76,0,239
3,71,88,301
3,71,0,59
3,74,79,1
3,74,0,29
3,71,88,1
3,71,0,89
3,74,75,1
3,74,0,89
3,74,67,1
3,74,0,29
3,74,71,1
3,74,0,59
3,72,79,1
3,72,0,59
3,72,79,1
3,72,0,59
3,67,79,1
3,67,0,449
3,71,75,31
3,71,0,59
3,74,79,1
3,74,0,29
3,71,79,1
3,71,0,59
3,74,79,1
3,74,0,209
3,71,79,1
3,71,0,59
3,74,75,1
3,74,0,29
3,76,79,1
3,76,0,59
3,77,79,1
3,77,0,269
3,70,75,1
3,70,0,59
3,67,79,1
3,67,0,59
3,67,79,91
3,67,0,29
3,71,79,1
3,71,0,29
3,71,79,1
3,71,0,59
3,69,79,1
3,69,0,119
3,67,88,1
3,67,0,29
3,71,75,1
3,71,0,39
3,69,71,1
3,69,0,39
3,67,88,1
3,67,0,39
3,64,79,1
3,64,0,479
3,64,51,31
3,64,0,29
3,67,63,1
3,67,0,29
3,64,63,1
3,64,0,29
3,71,75,1
3,71,0,29
3,67,75,1
3,67,0,59
3,67,79,1
3,67,0,269
3,62,83,0
3,62,0,59
3,64,74,1
3,64,0,59
3,67,74,1
3,64,83,30
3,67,0,1
3,64,0,88
3,62,83,1
3,62,0,59
3,64,66,1
3,59,74,30
3,64,0,1
3,59,0,58
3,57,83,1
3,57,0,449
3,57,83,121
3,57,0,59
3,59,74,1
3,62,83,30
3,59,0,1
3,62,0,88
3,59,74,1
3,57,74,30
3,59,0,1
3,57,0,58
3,59,74,1
3,59,0,89
3,55,74,1
3,52,83,30
3,55,0,1
3,52,0,448
3,52,74,121
3,52,0,59
3,54,74,1
3,55,74,30
3,54,0,1
3,55,0,88
3,57,74,1
3,59,83,30
3,57,0,1
3,59,0,88
3,62,74,1
3,62,0,29
3,62,83,1
3,62,0,509
3,52,83,121
3,52,0,59
3,54,74,1
3,55,74,30
3,54,0,1
3,55,0,88
3,57,83,1
3,59,74,30
3,57,0,1
3,59,0,88
3,64,74,1
3,64,0,59
3,64,90,1
3,64,0,359
3,71,78,60
3,71,0,59
3,74,69,1
3,74,0,29
3,71,78,1
3,71,0,89
3,74,65,1
3,74,0,89
3,74,57,1
3,74,0,29
3,74,61,1
3,74,0,59
3,72,69,1
3,72,0,59
3,72,69,1
3,72,0,59
3,67,69,1
3,67,0,449
3,71,65,31
3,71,0,59
3,74,69,1
3,74,0,29
3,71,69,1
3,71,0,59
3,74,69,1
3,74,0,209
3,71,69,1
3,71,0,59
3,74,75,1
3,74,0,29
3,76,69,1
3,76,0,59
3,77,69,1
3,77,0,269
3,70,75,1
3,70,0,59
3,67,69,1
3,67,0,59
3,67,69,91
3,67,0,29
3,71,69,1
3,71,0,29
3,71,69,1
3,71,0,59
3,69,69,1
3,69,0,119
3,67,78,1
3,67,0,29
3,71,69,1
3,71,0,39
3,69,69,1
3,69,0,39
3,67,78,1
3,67,0,39
3,64,69,1
3,64,0,479
3,64,65,31
3,64,0,29
3,67,69,1
3,67,0,29
3,64,75,1
3,64,0,29
3,71,65,1
3,71,0,29
3,67,65,1
3,67,0,59
3,67,80,1
3,67,0,359
3,74,88,271
3,74,0,59
3,76,79,1
3,76,0,59
3,79,79,1
3,79,0,29
3,76,88,1
3,76,0,89
3,74,88,1
3,74,0,59
3,76,71,1
3,76,0,29
3,71,79,1
3,71,0,59
3,69,88,1
3,69,0,449
3,69,88,121
3,69,0,59
3,71,79,1
3,71,0,29
3,74,88,1
3,74,0,89
3,71,79,1
3,71,0,29
3,69,79,1
3,69,0,59
3,71,79,1
3,71,0,89
3,67,79,1
3,67,0,29
3,64,88,1
3,64,0,449
3,64,79,121
3,64,0,59
3,66,79,1
3,66,0,29
3,67,79,1
3,67,0,89
3,69,79,1
3,69,0,29
3,71,88,1
3,71,0,89
3,74,79,1
3,74,0,29
3,74,88,1
3,74,0,509
3,64,88,121
3,64,0,59
3,66,79,1
3,66,0,29
3,67,79,1
3,67,0,89
3,69,88,1
3,69,0,29
3,71,79,1
3,71,0,89
3,76,79,1
3,76,0,59
3,76,88,1
3,76,0,239
3,71,88,301
3,71,0,59
3,74,79,1
3,74,0,29
3,71,88,1
3,71,0,89
3,74,75,1
3,74,0,89
3,74,67,1
3,74,0,29
3,74,71,1
3,74,0,59
3,72,79,1
3,72,0,59
3,72,79,1
3,72,0,59
3,67,79,1
3,67,0,449
3,71,75,31
3,71,0,59
3,74,79,1
3,74,0,29
3,71,79,1
3,71,0,59
3,74,79,1
3,74,0,209
3,71,79,1
3,71,0,59
3,74,75,1
3,74,0,29
3,76,79,1
3,76,0,59
3,77,79,1
3,77,0,269
3,70,75,1
3,70,0,59
3,67,79,1
3,67,0,59
3,67,79,91
3,67,0,29
3,71,79,1
3,71,0,29
3,71,79,1
3,71,0,59
3,69,79,1
3,69,0,119
3,67,88,1
3,67,0,29
3,71,75,1
3,71,0,39
3,69,71,1
3,69,0,39
3,67,88,1
3,67,0,39
3,64,79,1
3,64,0,479
3,64,88,31
3,64,0,29
3,67,88,1
3,67,0,29
3,64,79,1
3,64,0,29
3,71,88,1
3,71,0,29
3,67,88,1
3,67,0,59
3,64,88,1
3,64,0,59
3,62,88,1
3,62,0,29
3,67,88,1
3,67,0,59
3,71,88,31
3,71,0,29
3,67,88,1
3,67,0,59
3,64,88,31
3,64,0,29
3,67,88,1
3,67,0,29
3,64,79,1
3,64,0,29
3,71,79,1
3,71,0,29
3,67,88,1
3,67,0,59
3,67,88,1
3,67,0,89
3,71,88,1
3,71,0,29
3,67,88,1
3,67,0,59
3,64,88,1
3,64,0,29
3,62,88,1
3,62,0,59
3,64,79,31
3,64,0,29
3,67,92,1
3,67,0,29
3,64,79,1
3,64,0,29
3,71,88,1
3,71,0,29
3,67,88,1
3,67,0,59
3,64,79,1
3,64,0,59
3,62,88,1
3,62,0,29
3,67,88,1
3,67,0,419
4,62,88,0
4,62,0,59
4,64,79,1
4,64,0,59
4,67,79,1
4,67,0,29
4,64,88,1
4,64,0,89
4,62,88,1
4,62,0,59
4,64,71,1
4,64,0,29
4,59,79,1
4,59,0,59
4,57,88,1
4,57,0,449
4,57,88,121
4,57,0,59
4,59,79,1
4,59,0,29
4,62,88,1
4,62,0,89
4,59,79,1
4,59,0,29
4,57,79,1
4,57,0,59
4,59,79,1
4,59,0,89
4,55,79,1
4,55,0,29
4,52,88,1
4,52,0,449
4,52,79,121
4,52,0,59
4,54,79,1
4,54,0,29
4,55,79,1
4,55,0,89
4,57,79,1
4,57,0,29
4,59,88,1
4,59,0,89
4,62,79,1
4,62,0,29
4,62,88,1
4,62,0,509
4,52,88,121
4,52,0,59
4,54,79,1
4,54,0,29
4,55,79,1
4,55,0,89
4,57,88,1
4,57,0,29
4,59,79,1
4,59,0,89
4,64,79,1
4,64,0,59
4,64,88,1
4,64,0,239
4,59,88,301
4,59,0,59
4,62,79,1
4,62,0,29
4,59,88,1
4,59,0,89
4,62,75,1
4,62,0,89
4,62,67,1
4,62,0,29
4,62,71,1
4,62,0,59
4,60,79,1
4,60,0,59
4,60,79,1
4,60,0,59
4,55,79,1
4,55,0,449
4,59,75,31
4,59,0,59
4,62,79,1
4,62,0,29
4,59,79,1
4,59,0,59
4,62,79,1
4,62,0,209
4,59,79,1
4,59,0,59
4,62,75,1
4,62,0,29
4,64,79,1
4,64,0,59
4,65,79,1
4,65,0,269
4,58,75,1
4,58,0,59
4,55,79,1
4,55,0,59
4,55,79,91
4,55,0,29
4,59,79,1
4,59,0,29
4,59,79,1
4,59,0,59
4,57,79,1
4,57,0,119
4,55,88,1
4,55,0,29
4,59,75,1
4,59,0,39
4,57,71,1
4,57,0,39
4,55,88,1
4,55,0,39
4,52,79,1
4,52,0,479
4,52,51,31
4,52,0,29
4,55,63,1
4,55,0,29
4,52,63,1
4,52,0,29
4,59,75,1
4,59,0,29
4,55,75,1
4,55,0,59
4,55,79,1
4,55,0,269
4,62,88,361
4,62,0,59
4,64,79,1
4,64,0,59
4,67,79,1
4,67,0,29
4,64,88,1
4,64,0,89
4,62,88,1
4,62,0,59
4,64,71,1
4,64,0,29
4,59,79,1
4,59,0,59
4,57,88,1
4,57,0,449
4,57,88,1
4,57,0,59
4,57,88,61
4,57,0,59
4,59,79,1
4,59,0,29
4,62,88,1
4,62,0,89
4,59,79,1
4,59,0,29
4,57,79,1
4,57,0,59
4,59,79,1
4,59,0,89
4,55,79,1
4,55,0,29
4,52,88,1
4,52,0,449
4,52,79,121
4,52,0,59
4,54,79,1
4,54,0,29
4,55,79,1
4,55,0,89
4,57,79,1
4,57,0,29
4,59,88,1
4,59,0,89
4,62,79,1
4,62,0,29
4,62,88,1
4,62,0,509
4,52,88,121
4,52,0,59
4,54,79,1
4,54,0,29
4,55,79,1
4,55,0,89
4,57,88,1
4,57,0,29
4,59,79,1
4,59,0,89
4,64,79,1
4,64,0,59
4,64,88,1
4,64,0,239
4,59,88,301
4,59,0,59
4,62,79,1
4,62,0,29
4,59,88,1
4,59,0,89
4,62,75,1
4,62,0,89
4,62,67,1
4,62,0,29
4,62,71,1
4,62,0,59
4,60,79,1
4,60,0,59
4,60,79,1
4,60,0,59
4,55,79,1
4,55,0,449
4,59,75,31
4,59,0,59
4,62,79,1
4,62,0,29
4,59,79,1
4,59,0,59
4,62,79,1
4,62,0,209
4,59,79,1
4,59,0,59
4,62,75,1
4,62,0,29
4,64,79,1
4,64,0,59
4,65,79,1
4,65,0,269
4,58,75,1
4,58,0,59
4,55,79,1
4,55,0,59
4,55,79,91
4,55,0,29
4,59,79,1
4,59,0,29
4,59,79,1
4,59,0,59
4,57,79,1
4,57,0,119
4,55,88,1
4,55,0,29
4,59,75,1
4,59,0,39
4,57,71,1
4,57,0,39
4,55,88,1
4,55,0,39
4,52,79,1
4,52,0,479
4,52,51,31
4,52,0,29
4,55,63,1
4,55,0,29
4,52,63,1
4,52,0,29
4,59,75,1
4,59,0,29
4,55,75,1
4,55,0,59
4,55,79,1
4,55,0,269
4,62,88,7801
4,62,0,59
4,64,79,1
4,64,0,59
4,67,79,1
4,67,0,29
4,64,88,1
4,64,0,89
4,62,88,1
4,62,0,59
4,64,71,1
4,64,0,29
4,59,79,1
4,59,0,59
4,57,88,1
4,57,0,449
4,57,88,121
4,57,0,59
4,59,79,1
4,59,0,29
4,62,88,1
4,62,0,89
4,59,79,1
4,59,0,29
4,57,79,1
4,57,0,59
4,59,79,1
4,59,0,89
4,55,79,1
4,55,0,29
4,52,88,1
4,52,0,449
4,52,79,121
4,52,0,59
4,54,79,1
4,54,0,29
4,55,79,1
4,55,0,89
4,57,79,1
4,57,0,29
4,59,88,1
4,59,0,89
4,62,79,1
4,62,0,29
4,62,88,1
4,62,0,509
4,52,88,121
4,52,0,59
4,54,79,1
4,54,0,29
4,55,79,1
4,55,0,89
4,57,88,1
4,57,0,29
4,59,79,1
4,59,0,89
4,64,79,1
4,64,0,59
4,64,88,1
4,64,0,239
4,59,88,301
4,59,0,59
4,62,79,1
4,62,0,29
4,59,88,1
4,59,0,89
4,62,75,1
4,62,0,89
4,62,67,1
4,62,0,29
4,62,71,1
4,62,0,59
4,60,79,1
4,60,0,59
4,60,79,1
4,60,0,59
4,55,79,1
4,55,0,449
4,59,75,31
4,59,0,59
4,62,79,1
4,62,0,29
4,59,79,1
4,59,0,59
4,62,79,1
4,62,0,209
4,59,79,1
4,59,0,59
4,62,75,1
4,62,0,29
4,64,79,1
4,64,0,59
4,65,79,1
4,65,0,269
4,58,75,1
4,58,0,59
4,55,79,1
4,55,0,59
4,55,79,91
4,55,0,29
4,59,79,1
4,59,0,29
4,59,79,1
4,59,0,59
4,57,79,1
4,57,0,119
4,55,88,1
4,55,0,29
4,59,75,1
4,59,0,39
4,57,71,1
4,57,0,39
4,55,88,1
4,55,0,39
4,52,79,1
4,52,0,479
4,52,88,31
4,52,0,29
4,55,88,1
4,55,0,29
4,52,79,1
4,52,0,29
4,59,88,1
4,59,0,29
4,55,88,1
4,55,0,59
4,52,88,1
4,52,0,59
4,50,88,1
4,50,0,29
4,55,88,1
4,55,0,59
4,59,88,31
4,59,0,29
4,55,88,1
4,55,0,59
4,52,88,31
4,52,0,29
4,55,88,1
4,55,0,29
4,52,79,1
4,52,0,29
4,59,79,1
4,59,0,29
4,55,88,1
4,55,0,59
4,55,88,1
4,55,0,89
4,59,88,1
4,59,0,29
4,55,88,1
4,55,0,59
4,52,88,1
4,52,0,29
4,50,88,1
4,50,0,59
4,52,79,31
4,52,0,29
4,55,97,1
4,55,0,29
4,52,79,1
4,52,0,29
4,59,88,1
4,59,0,29
4,55,88,1
4,55,0,59
4,52,79,1
4,52,0,59
4,50,88,1
4,50,0,29
4,55,88,1
4,55,0,419
5,67,127,0
5,74,127,0
5,71,127,0
5,71,0,29
5,74,0,0
5,67,0,0
5,71,127,1
5,71,0,29
5,67,127,1
5,67,0,59
5,67,127,1
5,74,127,0
