track,note,velocity,time
1,74,88,0
1,76,79,4
1,79,79,4
1,76,88,4
1,74,88,4
1,76,71,4
1,71,79,4
1,69,88,4
1,69,88,388
1,71,79,4
1,74,88,4
1,71,79,4
1,69,79,4
1,71,79,4
1,67,79,4
1,64,88,4
1,64,79,388
1,66,79,4
1,67,79,4
1,69,79,4
1,71,88,4
1,74,79,4
1,74,88,4
1,64,88,388
1,66,79,4
1,67,79,4
1,69,88,4
1,71,79,4
1,76,79,4
1,76,88,4
1,71,88,964
1,74,79,4
1,71,88,4
1,74,75,4
1,74,67,4
1,74,71,4
1,72,79,4
1,72,79,4
1,67,79,4
1,71,75,100
1,74,79,4
1,71,79,4
1,74,79,4
1,71,79,4
1,74,75,4
1,76,79,4
1,77,79,4
1,70,75,4
1,67,79,4
1,67,79,292
1,71,79,4
1,71,79,4
1,69,79,4
1,67,88,4
1,71,75,4
1,69,71,4
1,67,88,4
1,64,79,4
1,64,51,100
1,67,63,4
1,64,63,4
1,71,75,4
1,67,75,4
1,67,79,4
1,74,88,1156
1,76,79,4
1,79,79,4
1,76,88,4
1,74,88,4
1,76,71,4
1,71,79,4
1,69,88,4
1,69,88,4
1,69,88,196
1,71,79,4
1,74,88,4
1,71,79,4
1,69,79,4
1,71,79,4
1,67,79,4
1,64,88,4
1,64,79,388
1,66,79,4
1,67,79,4
1,69,79,4
1,71,88,4
1,74,79,4
1,74,88,4
1,64,88,388
1,66,79,4
1,67,79,4
1,69,88,4
1,71,79,4
1,76,79,4
1,76,88,4
1,71,88,964
1,74,79,4
1,71,88,4
1,74,75,4
1,74,67,4
1,74,71,4
1,72,79,4
1,72,79,4
1,67,79,4
1,71,75,100
1,74,79,4
1,71,79,4
1,74,79,4
1,71,79,4
1,74,75,4
1,76,79,4
1,77,79,4
1,70,75,4
1,67,79,4
1,67,79,292
1,71,79,4
1,71,79,4
1,69,79,4
1,67,88,4
1,71,75,4
1,69,71,4
1,67,88,4
1,64,79,4
1,64,51,100
1,67,63,4
1,64,63,4
1,71,75,4
1,67,75,4
1,67,79,4
1,74,88,24964
1,76,79,4
1,79,79,4
1,76,88,4
1,74,88,4
1,76,71,4
1,71,79,4
1,69,88,4
1,69,88,388
1,71,79,4
1,74,88,4
1,71,79,4
1,69,79,4
1,71,79,4
1,67,79,4
1,64,88,4
1,64,79,388
1,66,79,4
1,67,79,4
1,69,79,4
1,71,88,4
1,74,79,4
1,74,88,4
1,64,88,388
1,66,79,4
1,67,79,4
1,69,88,4
1,71,79,4
1,76,79,4
1,76,88,4
1,71,88,964
1,74,79,4
1,71,88,4
1,74,75,4
1,74,67,4
1,74,71,4
1,72,79,4
1,72,79,4
1,67,79,4
1,71,75,100
1,74,79,4
1,71,79,4
1,74,79,4
1,71,79,4
1,74,75,4
1,76,79,4
1,77,79,4
1,70,75,4
1,67,79,4
1,67,79,292
1,71,79,4
1,71,79,4
1,69,79,4
1,67,88,4
1,71,75,4
1,69,71,4
1,67,88,4
1,64,79,4
1,64,88,100
1,67,88,4
1,64,79,4
1,71,88,4
1,67,88,4
1,64,88,4
1,62,88,4
1,67,88,4
1,71,88,100
1,67,88,4
1,64,88,100
1,67,88,4
1,64,79,4
1,71,79,4
1,67,88,4
1,67,88,4
1,71,88,4
1,67,88,4
1,64,88,4
1,62,88,4
1,64,79,100
1,67,92,4
1,64,79,4
1,71,88,4
1,67,88,4
1,64,79,4
1,62,88,4
1,67,88,4
2,62,88,0
2,64,79,4
2,67,79,4
2,64,88,4
2,62,88,4
2,64,71,4
2,59,79,4
2,57,88,4
2,57,88,388
2,59,79,4
2,62,88,4
2,59,79,4
2,57,79,4
2,59,79,4
2,55,79,4
2,52,88,4
2,52,79,388
2,54,79,4
2,55,79,4
2,57,79,4
2,59,88,4
2,62,79,4
2,62,88,4
2,52,88,388
2,54,79,4
2,55,79,4
2,57,88,4
2,59,79,4
2,64,79,4
2,64,88,4
2,59,88,964
2,62,79,4
2,59,88,4
2,62,75,4
2,62,67,4
2,62,71,4
2,60,79,4
2,60,79,4
2,55,79,4
2,59,75,100
2,62,79,4
2,59,79,4
2,62,79,4
2,59,79,4
2,62,75,4
2,64,79,4
2,65,79,4
2,58,75,4
2,55,79,4
2,55,79,292
2,59,79,4
2,59,79,4
2,57,79,4
2,55,88,4
2,59,75,4
2,57,71,4
2,55,88,4
2,52,79,4
2,52,51,100
2,55,63,4
2,52,63,4
2,59,75,4
2,55,75,4
2,55,79,4
2,62,88,1156
2,64,79,4
2,67,79,4
2,64,88,4
2,62,88,4
2,64,71,4
2,59,79,4
2,57,88,4
2,57,88,4
2,57,88,196
2,59,79,4
2,62,88,4
2,59,79,4
2,57,79,4
2,59,79,4
2,55,79,4
2,52,88,4
2,52,79,388
2,54,79,4
2,55,79,4
2,57,79,4
2,59,88,4
2,62,79,4
2,62,88,4
2,52,88,388
2,54,79,4
2,55,79,4
2,57,88,4
2,59,79,4
2,64,79,4
2,64,88,4
2,59,88,964
2,62,79,4
2,59,88,4
2,62,75,4
2,62,67,4
2,62,71,4
2,60,79,4
2,60,79,4
2,55,79,4
2,59,75,100
2,62,79,4
2,59,79,4
2,62,79,4
2,59,79,4
2,62,75,4
2,64,79,4
2,65,79,4
2,58,75,4
2,55,79,4
2,55,79,292
2,59,79,4
2,59,79,4
2,57,79,4
2,55,88,4
2,59,75,4
2,57,71,4
2,55,88,4
2,52,79,4
2,52,51,100
2,55,63,4
2,52,63,4
2,59,75,4
2,55,75,4
2,55,79,4
2,62,88,24964
2,64,79,4
2,67,79,4
2,64,88,4
2,62,88,4
2,64,71,4
2,59,79,4
2,57,88,4
2,57,88,388
2,59,79,4
2,62,88,4
2,59,79,4
2,57,79,4
2,59,79,4
2,55,79,4
2,52,88,4
2,52,79,388
2,54,79,4
2,55,79,4
2,57,79,4
2,59,88,4
2,62,79,4
2,62,88,4
2,52,88,388
2,54,79,4
2,55,79,4
2,57,88,4
2,59,79,4
2,64,79,4
2,64,88,4
2,59,88,964
2,62,79,4
2,59,88,4
2,62,75,4
2,62,67,4
2,62,71,4
2,60,79,4
2,60,79,4
2,55,79,4
2,59,75,100
2,62,79,4
2,59,79,4
2,62,79,4
2,59,79,4
2,62,75,4
2,64,79,4
2,65,79,4
2,58,75,4
2,55,79,4
2,55,79,292
2,59,79,4
2,59,79,4
2,57,79,4
2,55,88,4
2,59,75,4
2,57,71,4
2,55,88,4
2,52,79,4
2,52,88,100
2,55,88,4
2,52,79,4
2,59,88,4
2,55,88,4
2,52,88,4
2,50,88,4
2,55,88,4
2,59,88,100
2,55,88,4
2,52,88,100
2,55,88,4
2,52,79,4
2,59,79,4
2,55,88,4
2,55,88,4
2,59,88,4
2,55,88,4
2,52,88,4
2,50,88,4
2,52,79,100
2,55,97,4
2,52,79,4
2,59,88,4
2,55,88,4
2,52,79,4
2,50,88,4
2,55,88,4
3,62,83,0
3,64,74,4
3,67,74,4
3,64,83,96
3,62,83,4
3,64,66,4
3,59,74,96
3,57,83,4
3,57,83,388
3,59,74,4
3,62,83,96
3,59,74,4
3,57,74,96
3,59,74,4
3,55,74,4
3,52,83,96
3,52,74,388
3,54,74,4
3,55,74,96
3,57,74,4
3,59,83,96
3,62,74,4
3,62,83,4
3,52,83,388
3,54,74,4
3,55,74,96
3,57,83,4
3,59,74,96
3,64,74,4
3,64,90,4
4,71,78,192
4,74,69,4
4,71,78,4
4,74,65,4
4,74,57,4
4,74,61,4
4,72,69,4
4,72,69,4
4,67,69,4
4,71,65,100
4,74,69,4
4,71,69,4
4,74,69,4
4,71,69,4
4,74,75,4
4,76,69,4
4,77,69,4
4,70,75,4
4,67,69,4
4,67,69,292
4,71,69,4
4,71,69,4
4,69,69,4
4,67,78,4
4,71,69,4
4,69,69,4
4,67,78,4
4,64,69,4
4,64,65,100
4,67,69,4
4,64,75,4
4,71,65,4
4,67,65,4
4,67,80,4
5,67,127,0
5,74,127,0
5,71,127,0
5,71,127,4
5,67,127,4
5,67,127,4
5,74,127,0
5,71,127,0
5,71,127,4
5,67,127,4
5,76,127,4
5,67,127,0
5,71,127,0
5,71,127,4
5,67,127,4
5,67,127,4
5,71,127,0
5,76,127,0
5,78,127,4
5,79,127,4
5,78,127,4
5,74,127,0
5,71,127,0
5,74,127,4
5,69,127,4
5,78,127,4
5,74,127,0
5,69,127,0
5,74,127,4
5,69,127,4
5,64,127,4
5,66,127,4
5,74,127,4
5,66,127,4
5,67,127,4
5,76,127,4
5,67,127,4
5,69,127,4
5,69,127,4
5,72,127,0
5,78,127,0
5,74,127,4
5,78,127,196
5,79,127,4
5,78,127,4
5,72,127,0
5,81,127,0
5,74,127,4
5,72,127,4
5,83,127,0
5,74,127,4
5,78,127,4
5,72,127,0
5,81,127,0
5,71,127,4
5,74,127,0
5,79,127,0
5,76,127,4
5,67,127,4
5,76,127,0
5,71,127,4
5,64,127,4
5,67,127,0
5,71,127,4
5,78,127,0
5,76,127,4
5,62,127,4
5,71,127,0
5,67,127,4
5,67,127,4
5,71,127,0
5,74,127,0
5,62,127,4
5,71,127,4
5,74,127,0
5,67,127,0
5,62,127,4
5,71,127,4
5,76,127,0
5,67,127,0
5,64,127,4
5,67,127,4
5,76,127,0
5,71,127,0
5,64,127,4
5,78,127,4
5,69,127,0
5,66,127,0
5,74,127,4
5,66,127,4
5,78,127,0
5,69,127,0
5,74,127,4
5,78,127,4
5,69,127,0
5,66,127,0
5,74,127,4
5,74,127,4
5,79,127,0
5,69,127,0
5,76,127,4
5,79,127,4
5,81,127,4
5,81,127,4
5,84,127,0
5,78,127,0
5,74,127,4
5,78,127,4
5,81,127,0
5,84,127,0
5,74,127,4
5,78,127,4
5,81,127,0
5,84,127,0
5,74,127,4
5,83,127,4
5,74,127,0
5,78,127,0
5,74,127,4
5,81,127,4
5,79,127,4
5,71,127,4
5,67,127,0
5,76,127,0
5,64,127,4
5,67,127,4
5,76,127,0
5,71,127,0
5,64,127,4
5,64,127,4
5,69,127,0
5,71,127,4
5,67,127,4
5,67,127,4
5,71,127,0
5,72,127,4
5,67,127,4
5,73,127,0
5,64,127,0
5,71,127,4
5,73,127,4
5,64,127,0
5,67,127,0
5,71,127,4
5,73,127,4
5,67,127,0
5,64,127,0
5,71,127,4
5,76,127,4
5,67,127,0
5,72,127,4
5,71,127,4
5,66,127,4
5,78,127,0
5,74,127,0
5,69,127,4
5,66,127,4
5,78,127,0
5,74,127,0
5,69,127,4
5,62,127,4
5,69,127,0
5,74,127,0
5,66,127,4
5,69,127,4
5,62,127,0
5,74,127,0
5,66,127,4
5,67,127,4
5,71,127,0
5,64,127,0
5,67,127,4
5,64,127,4
5,64,127,4
5,71,127,0
5,67,127,0
5,67,127,4
5,64,127,4
5,64,127,4
5,67,127,0
5,71,127,0
5,67,127,4
5,64,127,4
5,78,127,4
5,71,127,0
5,67,127,0
5,76,127,4
5,71,127,4
5,67,127,4
5,64,127,0
5,72,127,0
5,72,127,4
5,76,127,0
5,79,127,0
5,84,127,0
5,84,127,4
5,72,127,0
5,76,127,0
5,79,127,0
5,76,127,4
5,67,127,0
5,72,127,0
5,79,127,0
5,72,127,4
5,76,127,0
5,67,127,0
5,79,127,0
5,84,127,4
5,79,127,0
5,91,127,0
5,88,127,0
5,91,127,4
5,84,127,0
5,79,127,0
5,88,127,0
5,86,127,4
5,79,127,0
5,76,127,0
5,86,127,4
5,74,127,0
5,79,127,0
5,83,127,0
5,62,127,4
5,67,127,0
5,74,127,0
5,71,127,0
5,62,127,4
5,65,127,0
5,74,127,0
5,69,127,0
5,65,127,4
5,69,127,0
5,62,127,0
5,74,127,0
5,62,127,4
5,74,127,0
5,65,127,0
5,69,127,0
5,74,127,4
5,67,127,0
5,64,127,0
5,67,127,4
5,76,127,0
5,79,127,0
5,72,127,0
5,69,127,4
5,72,127,0
5,79,127,0
5,74,127,0
5,79,127,4
5,74,127,0
5,69,127,0
5,72,127,0
5,69,127,100
5,74,127,0
5,79,127,0
5,72,127,0
5,71,127,4
5,62,127,4
5,67,127,0
5,71,127,0
5,74,127,0
5,76,116,0
5,67,119,4
5,62,127,0
5,74,127,0
5,71,127,0
5,74,127,4
5,65,127,0
5,69,127,0
5,62,127,0
5,74,127,4
5,65,127,0
5,62,127,0
5,69,127,0
5,77,127,4
5,70,127,0
5,82,127,0
5,74,127,0
5,77,127,4
5,74,127,4
5,70,127,4
5,74,127,0
5,82,127,0
5,77,127,0
5,77,127,4
5,74,127,4
5,70,127,4
5,74,127,0
5,82,127,0
5,77,127,0
5,70,127,4
5,77,127,0
5,74,127,0
5,74,127,4
5,82,127,4
5,71,127,4
5,67,127,0
5,74,127,0
5,79,122,0
5,77,116,0
5,67,127,4
5,74,127,0
5,71,127,0
5,79,127,0
5,74,127,4
5,79,127,4
5,74,127,0
5,71,127,0
5,67,127,0
5,74,127,4
5,74,127,4
5,67,127,0
5,71,127,0
5,79,127,0
5,74,127,4
5,64,127,4
5,67,127,0
5,76,127,0
5,71,127,0
5,67,127,4
5,64,127,0
5,71,127,0
5,76,127,0
5,71,127,4
5,67,127,4
5,74,127,0
5,64,127,0
5,71,127,0
5,67,127,4
5,71,127,0
5,64,127,0
5,74,127,0
5,71,127,4
5,67,127,4
5,64,127,0
5,62,127,0
5,74,127,0
5,60,127,4
5,64,127,0
5,67,127,0
5,72,127,0
5,62,127,4
5,67,127,0
5,74,127,0
5,71,127,0
5,62,127,4
5,67,127,0
5,71,127,0
5,74,127,0
5,69,127,4
5,71,127,4
5,79,127,4
5,71,127,4
5,72,127,4
5,81,127,4
5,72,127,4
5,74,127,4
5,67,127,4
5,71,127,0
5,74,127,0
5,62,127,4
5,71,127,4
5,74,127,0
5,67,127,0
5,62,127,4
5,71,127,4
5,76,127,0
5,67,127,0
5,64,127,4
5,67,127,4
5,76,127,0
5,71,127,0
5,64,127,4
5,78,127,4
5,69,127,0
5,66,127,0
5,74,127,4
5,66,127,4
5,78,127,0
5,69,127,0
5,74,127,4
5,78,127,4
5,69,127,0
5,66,127,0
5,74,127,4
5,74,127,4
5,79,127,0
5,69,127,0
5,76,127,4
5,79,127,4
5,81,127,4
5,81,127,4
5,84,127,0
5,78,127,0
5,74,127,4
5,78,127,4
5,81,127,0
5,84,127,0
5,74,127,4
5,78,127,4
5,81,127,0
5,84,127,0
5,74,127,4
5,83,127,4
5,74,127,0
5,78,127,0
5,74,127,4
5,81,127,4
5,79,127,4
5,71,127,4
5,67,127,0
5,76,127,0
5,64,127,4
5,67,127,4
5,76,127,0
5,71,127,0
5,64,127,4
5,64,127,4
5,69,127,0
5,71,127,4
5,67,127,4
5,67,127,4
5,71,127,0
5,72,127,4
5,67,127,4
5,73,127,0
5,64,127,0
5,71,127,4
5,73,127,4
5,64,127,0
5,67,127,0
5,71,127,4
5,73,127,4
5,67,127,0
5,64,127,0
5,71,127,4
5,76,127,4
5,67,127,0
5,72,127,4
5,71,127,4
5,66,127,4
5,78,127,0
5,74,127,0
5,69,127,4
5,66,127,4
5,78,127,0
5,74,127,0
5,69,127,4
5,62,127,4
5,69,127,0
5,74,127,0
5,66,127,4
5,69,127,4
5,62,127,0
5,74,127,0
5,66,127,4
5,67,127,4
5,71,127,0
5,64,127,0
5,67,127,4
5,64,127,4
5,64,127,4
5,71,127,0
5,67,127,0
5,67,127,4
5,64,127,4
5,64,127,4
5,67,127,0
5,71,127,0
5,67,127,4
5,64,127,4
5,78,127,4
5,71,127,0
5,67,127,0
5,76,127,4
5,71,127,4
5,67,127,4
5,64,127,0
5,72,127,0
5,72,127,4
5,76,127,0
5,79,127,0
5,84,127,0
5,84,127,4
5,72,127,0
5,76,127,0
5,79,127,0
5,76,127,4
5,67,127,0
5,72,127,0
5,79,127,0
5,72,127,4
5,76,127,0
5,67,127,0
5,79,127,0
5,84,127,4
5,79,127,0
5,91,127,0
5,88,127,0
5,91,127,4
5,84,127,0
5,79,127,0
5,88,127,0
5,86,127,4
5,79,127,0
