track,note,velocity,time
13.0,47.0,84.0,0.0
13.0,54.0,67.0,99.0
13.0,59.0,73.0,0.0
13.0,66.0,58.0,74.0
13.0,62.0,66.0,0.0
13.0,54.0,67.0,71.0
13.0,69.0,75.0,3.0
13.0,49.0,89.0,18.0
13.0,56.0,66.0,62.0
13.0,61.0,78.0,76.0
13.0,64.0,83.0,90.0
13.0,68.0,70.0,93.0
13.0,56.0,61.0,2.0
13.0,59.0,61.0,0.0
13.0,47.0,80.0,155.0
13.0,54.0,71.0,29.0
13.0,59.0,73.0,84.0
13.0,62.0,78.0,92.0
13.0,66.0,77.0,0.0
13.0,47.0,69.0,1.0
13.0,57.0,73.0,0.0
13.0,62.0,77.0,77.0
13.0,45.0,79.0,131.0
13.0,52.0,73.0,39.0
13.0,57.0,70.0,90.0
13.0,61.0,54.0,93.0
13.0,45.0,66.0,4.0
13.0,62.0,64.0,39.0
13.0,61.0,61.0,52.0
13.0,50.0,77.0,97.0
13.0,54.0,67.0,50.0
13.0,62.0,83.0,96.0
13.0,57.0,71.0,3.0
13.0,69.0,77.0,92.0
13.0,54.0,63.0,1.0
13.0,49.0,74.0,153.0
13.0,56.0,67.0,34.0
13.0,61.0,65.0,91.0
13.0,64.0,70.0,93.0
13.0,68.0,78.0,93.0
13.0,56.0,64.0,0.0
13.0,61.0,71.0,92.0
13.0,47.0,76.0,117.0
13.0,54.0,67.0,42.0
13.0,59.0,72.0,89.0
13.0,62.0,76.0,94.0
13.0,69.0,76.0,8.0
13.0,59.0,70.0,0.0
13.0,68.0,67.0,80.0
13.0,59.0,64.0,1.0
13.0,45.0,73.0,120.0
13.0,52.0,68.0,45.0
13.0,57.0,66.0,88.0
13.0,45.0,65.0,94.0
13.0,61.0,55.0,0.0
13.0,62.0,59.0,0.0
13.0,61.0,51.0,0.0
13.0,50.0,78.0,18.0
13.0,54.0,67.0,69.0
13.0,59.0,71.0,77.0
13.0,62.0,76.0,83.0
13.0,50.0,70.0,99.0
13.0,49.0,82.0,13.0
13.0,56.0,61.0,81.0
13.0,61.0,71.0,77.0
13.0,64.0,78.0,0.0
13.0,68.0,68.0,96.0
13.0,56.0,56.0,5.0
13.0,47.0,83.0,14.0
13.0,54.0,68.0,71.0
13.0,59.0,72.0,44.0
13.0,62.0,73.0,55.0
13.0,66.0,77.0,80.0
13.0,54.0,74.0,3.0
13.0,45.0,73.0,1.0
13.0,52.0,63.0,49.0
13.0,57.0,66.0,90.0
13.0,61.0,58.0,80.0
13.0,45.0,64.0,1.0
13.0,62.0,65.0,5.0
13.0,61.0,58.0,42.0
13.0,50.0,80.0,13.0
13.0,54.0,71.0,65.0
13.0,59.0,73.0,75.0
13.0,62.0,73.0,81.0
13.0,50.0,67.0,92.0
13.0,49.0,84.0,15.0
13.0,56.0,67.0,75.0
13.0,61.0,73.0,71.0
13.0,64.0,77.0,0.0
13.0,68.0,75.0,96.0
13.0,59.0,73.0,1.0
13.0,68.0,64.0,78.0
13.0,61.0,74.0,2.0
13.0,47.0,76.0,115.0
13.0,59.0,70.0,50.0
13.0,69.0,70.0,16.0
13.0,62.0,73.0,2.0
13.0,66.0,78.0,92.0
13.0,69.0,73.0,74.0
13.0,62.0,75.0,2.0
13.0,59.0,64.0,0.0
13.0,68.0,67.0,93.0
13.0,59.0,67.0,0.0
13.0,64.0,73.0,0.0
13.0,45.0,78.0,77.0
13.0,52.0,73.0,47.0
13.0,57.0,68.0,96.0
13.0,45.0,65.0,85.0
13.0,61.0,56.0,3.0
13.0,62.0,64.0,26.0
13.0,61.0,56.0,50.0
13.0,66.0,78.0,34.0
13.0,42.0,74.0,0.0
13.0,61.0,59.0,2.0
13.0,61.0,68.0,69.0
13.0,69.0,80.0,1.0
13.0,59.0,73.0,68.0
13.0,68.0,75.0,0.0
13.0,66.0,74.0,68.0
13.0,57.0,73.0,0.0
13.0,61.0,71.0,51.0
13.0,56.0,63.0,71.0
13.0,65.0,74.0,4.0
13.0,66.0,82.0,40.0
13.0,57.0,70.0,0.0
13.0,68.0,72.0,24.0
13.0,59.0,68.0,5.0
13.0,50.0,64.0,119.0
13.0,66.0,59.0,1.0
13.0,57.0,65.0,3.0
13.0,62.0,70.0,2.0
13.0,45.0,73.0,146.0
13.0,52.0,73.0,37.0
13.0,57.0,71.0,97.0
13.0,61.0,64.0,1.0
13.0,49.0,68.0,0.0
13.0,65.0,76.0,2.0
13.0,59.0,80.0,49.0
13.0,56.0,70.0,90.0
13.0,49.0,84.0,56.0
13.0,66.0,78.0,54.0
13.0,61.0,67.0,3.0
13.0,61.0,68.0,59.0
13.0,69.0,74.0,1.0
13.0,59.0,74.0,38.0
13.0,68.0,71.0,0.0
13.0,66.0,74.0,71.0
13.0,57.0,78.0,0.0
13.0,61.0,71.0,239.0
13.0,65.0,73.0,57.0
13.0,56.0,61.0,1.0
13.0,66.0,78.0,27.0
13.0,57.0,70.0,3.0
13.0,59.0,71.0,32.0
13.0,68.0,78.0,0.0
13.0,66.0,61.0,133.0
13.0,50.0,67.0,1.0
13.0,57.0,66.0,1.0
13.0,62.0,74.0,0.0
13.0,45.0,74.0,2.0
13.0,57.0,70.0,61.0
13.0,52.0,67.0,96.0
13.0,57.0,73.0,91.0
13.0,45.0,66.0,8.0
13.0,61.0,72.0,98.0
13.0,57.0,79.0,71.0
13.0,52.0,66.0,93.0
13.0,50.0,80.0,2.0
13.0,54.0,67.0,49.0
13.0,59.0,70.0,77.0
13.0,62.0,79.0,88.0
13.0,50.0,71.0,0.0
13.0,49.0,87.0,16.0
13.0,56.0,62.0,75.0
13.0,61.0,73.0,78.0
13.0,64.0,73.0,0.0
13.0,68.0,77.0,98.0
13.0,56.0,66.0,0.0
13.0,47.0,80.0,13.0
13.0,54.0,67.0,77.0
13.0,59.0,70.0,84.0
13.0,62.0,69.0,88.0
13.0,66.0,75.0,84.0
13.0,54.0,67.0,0.0
13.0,45.0,73.0,162.0
13.0,52.0,73.0,43.0
13.0,57.0,68.0,94.0
13.0,61.0,64.0,107.0
13.0,45.0,58.0,1.0
13.0,62.0,78.0,42.0
13.0,61.0,61.0,45.0
13.0,50.0,83.0,18.0
13.0,54.0,70.0,62.0
13.0,59.0,73.0,74.0
13.0,62.0,71.0,89.0
13.0,50.0,74.0,0.0
13.0,49.0,95.0,17.0
13.0,56.0,60.0,76.0
13.0,61.0,71.0,75.0
13.0,64.0,73.0,1.0
13.0,68.0,72.0,98.0
13.0,56.0,62.0,0.0
13.0,68.0,54.0,100.0
13.0,61.0,67.0,2.0
13.0,47.0,73.0,114.0
13.0,59.0,70.0,52.0
13.0,69.0,76.0,11.0
13.0,62.0,79.0,2.0
13.0,66.0,89.0,4.0
13.0,69.0,70.0,61.0
13.0,62.0,73.0,0.0
13.0,59.0,64.0,1.0
13.0,68.0,64.0,108.0
13.0,64.0,76.0,2.0
13.0,59.0,62.0,0.0
13.0,45.0,73.0,63.0
13.0,52.0,70.0,43.0
13.0,57.0,66.0,83.0
13.0,61.0,58.0,81.0
13.0,45.0,69.0,1.0
13.0,62.0,62.0,40.0
13.0,61.0,60.0,56.0
13.0,66.0,72.0,2.0
13.0,42.0,74.0,3.0
13.0,61.0,68.0,43.0
13.0,69.0,84.0,66.0
13.0,61.0,70.0,0.0
13.0,68.0,74.0,63.0
13.0,59.0,80.0,1.0
13.0,66.0,75.0,1.0
13.0,57.0,74.0,0.0
13.0,61.0,73.0,1.0
13.0,65.0,66.0,66.0
13.0,56.0,66.0,1.0
13.0,66.0,73.0,41.0
13.0,57.0,62.0,3.0
13.0,68.0,78.0,13.0
13.0,59.0,72.0,3.0
13.0,66.0,62.0,155.0
13.0,50.0,68.0,1.0
13.0,57.0,70.0,0.0
13.0,62.0,80.0,0.0
13.0,45.0,75.0,166.0
13.0,52.0,73.0,38.0
13.0,57.0,77.0,84.0
13.0,61.0,63.0,6.0
13.0,49.0,73.0,80.0
13.0,65.0,77.0,3.0
13.0,59.0,76.0,57.0
13.0,56.0,67.0,86.0
13.0,49.0,75.0,93.0
13.0,42.0,71.0,59.0
13.0,66.0,85.0,1.0
13.0,61.0,61.0,2.0
13.0,61.0,73.0,61.0
13.0,69.0,80.0,2.0
13.0,59.0,78.0,69.0
13.0,68.0,81.0,0.0
13.0,66.0,72.0,77.0
13.0,57.0,70.0,0.0
13.0,61.0,64.0,219.0
13.0,56.0,61.0,69.0
13.0,65.0,73.0,4.0
13.0,66.0,77.0,8.0
13.0,57.0,65.0,1.0
13.0,68.0,74.0,26.0
13.0,59.0,69.0,3.0
13.0,66.0,58.0,139.0
13.0,57.0,68.0,1.0
13.0,62.0,76.0,2.0
13.0,50.0,66.0,0.0
13.0,45.0,72.0,153.0
13.0,57.0,77.0,26.0
13.0,52.0,67.0,95.0
13.0,57.0,73.0,94.0
13.0,45.0,71.0,5.0
13.0,61.0,68.0,22.0
13.0,57.0,73.0,94.0
13.0,52.0,68.0,8.0
13.0,50.0,80.0,70.0
13.0,54.0,72.0,56.0
13.0,59.0,75.0,83.0
13.0,62.0,73.0,95.0
13.0,50.0,70.0,0.0
13.0,49.0,77.0,0.0
13.0,56.0,58.0,69.0
13.0,61.0,67.0,80.0
13.0,64.0,71.0,90.0
13.0,68.0,72.0,98.0
13.0,59.0,67.0,2.0
13.0,68.0,71.0,87.0
13.0,61.0,74.0,1.0
13.0,47.0,78.0,92.0
13.0,59.0,70.0,45.0
13.0,69.0,77.0,2.0
13.0,62.0,80.0,1.0
13.0,66.0,87.0,3.0
13.0,62.0,61.0,5.0
13.0,69.0,75.0,1.0
13.0,59.0,68.0,2.0
13.0,64.0,73.0,84.0
13.0,68.0,61.0,0.0
13.0,59.0,60.0,0.0
13.0,45.0,80.0,103.0
13.0,52.0,73.0,52.0
13.0,57.0,76.0,85.0
13.0,61.0,48.0,85.0
13.0,45.0,66.0,0.0
13.0,62.0,67.0,39.0
13.0,61.0,61.0,45.0
14.0,66.0,61.0,6144.0
14.0,62.0,80.0,2.0
14.0,57.0,67.0,5.0
14.0,62.0,80.0,89.0
14.0,66.0,67.0,78.0
14.0,64.0,78.0,0.0
14.0,69.0,61.0,2.0
14.0,66.0,82.0,37.0
14.0,61.0,68.0,41.0
14.0,62.0,81.0,2.0
14.0,66.0,63.0,88.0
14.0,64.0,80.0,1.0
14.0,68.0,65.0,0.0
14.0,61.0,64.0,3.0
14.0,63.0,61.0,37.0
14.0,64.0,74.0,33.0
14.0,63.0,68.0,41.0
14.0,61.0,81.0,0.0
14.0,68.0,79.0,102.0
14.0,61.0,75.0,3.0
14.0,64.0,79.0,100.0
14.0,68.0,73.0,89.0
14.0,66.0,68.0,1.0
14.0,62.0,77.0,2.0
14.0,59.0,73.0,11.0
14.0,61.0,77.0,39.0
14.0,62.0,75.0,0.0
14.0,64.0,73.0,43.0
14.0,66.0,74.0,41.0
14.0,64.0,71.0,96.0
14.0,69.0,65.0,0.0
14.0,66.0,87.0,41.0
14.0,62.0,74.0,42.0
14.0,64.0,77.0,89.0
14.0,69.0,70.0,0.0
14.0,62.0,73.0,8.0
14.0,61.0,67.0,91.0
14.0,69.0,72.0,3.0
14.0,57.0,73.0,7.0
14.0,61.0,68.0,98.0
14.0,52.0,68.0,2.0
14.0,54.0,67.0,0.0
14.0,62.0,72.0,4.0
14.0,52.0,68.0,41.0
14.0,61.0,67.0,0.0
14.0,59.0,70.0,39.0
14.0,50.0,68.0,1.0
14.0,61.0,67.0,5.0
14.0,52.0,65.0,0.0
14.0,61.0,70.0,11.0
14.0,57.0,67.0,1.0
14.0,59.0,75.0,44.0
14.0,62.0,66.0,0.0
14.0,61.0,87.0,2.0
14.0,64.0,64.0,0.0
14.0,66.0,73.0,25.0
14.0,62.0,74.0,4.0
14.0,57.0,70.0,3.0
14.0,62.0,80.0,100.0
14.0,66.0,74.0,88.0
14.0,69.0,73.0,91.0
14.0,64.0,73.0,0.0
14.0,66.0,87.0,42.0
14.0,62.0,68.0,0.0
14.0,66.0,67.0,92.0
14.0,69.0,66.0,2.0
14.0,62.0,73.0,2.0
14.0,68.0,67.0,89.0
14.0,64.0,70.0,2.0
14.0,61.0,63.0,6.0
14.0,64.0,77.0,93.0
14.0,61.0,67.0,87.0
14.0,69.0,76.0,37.0
14.0,68.0,63.0,51.0
14.0,61.0,64.0,2.0
14.0,68.0,62.0,99.0
14.0,64.0,70.0,1.0
14.0,66.0,56.0,5.0
14.0,62.0,72.0,0.0
14.0,64.0,71.0,7.0
14.0,61.0,72.0,0.0
14.0,66.0,61.0,2.0
14.0,62.0,85.0,2.0
14.0,59.0,69.0,11.0
14.0,61.0,72.0,39.0
14.0,62.0,73.0,40.0
14.0,64.0,79.0,44.0
14.0,66.0,78.0,50.0
14.0,64.0,73.0,24.0
14.0,69.0,70.0,1.0
14.0,66.0,87.0,40.0
14.0,62.0,77.0,32.0
14.0,64.0,74.0,5.0
14.0,69.0,70.0,0.0
14.0,69.0,68.0,17.0
14.0,64.0,70.0,3.0
14.0,62.0,73.0,0.0
14.0,64.0,73.0,90.0
14.0,69.0,68.0,0.0
14.0,57.0,64.0,1.0
14.0,52.0,69.0,101.0
14.0,61.0,72.0,0.0
14.0,54.0,73.0,2.0
14.0,62.0,79.0,2.0
14.0,52.0,63.0,0.0
14.0,61.0,73.0,3.0
14.0,59.0,67.0,40.0
14.0,50.0,61.0,3.0
14.0,61.0,72.0,1.0
14.0,52.0,59.0,4.0
14.0,66.0,66.0,6187.0
14.0,62.0,85.0,0.0
14.0,57.0,68.0,2.0
14.0,62.0,80.0,97.0
14.0,66.0,81.0,80.0
14.0,64.0,71.0,12.0
14.0,69.0,56.0,5.0
14.0,66.0,81.0,41.0
14.0,57.0,55.0,0.0
14.0,62.0,80.0,95.0
14.0,66.0,67.0,85.0
14.0,68.0,61.0,25.0
14.0,64.0,76.0,2.0
14.0,61.0,63.0,11.0
14.0,63.0,73.0,38.0
14.0,64.0,71.0,43.0
14.0,63.0,75.0,42.0
14.0,61.0,72.0,1.0
14.0,68.0,77.0,95.0
14.0,61.0,75.0,99.0
14.0,64.0,77.0,96.0
14.0,68.0,73.0,91.0
14.0,66.0,57.0,30.0
14.0,62.0,70.0,0.0
14.0,59.0,72.0,4.0
14.0,61.0,85.0,38.0
14.0,62.0,70.0,2.0
14.0,64.0,74.0,45.0
14.0,66.0,81.0,46.0
14.0,69.0,77.0,86.0
14.0,66.0,74.0,99.0
14.0,64.0,67.0,91.0
14.0,62.0,73.0,96.0
14.0,61.0,70.0,92.0
14.0,69.0,73.0,2.0
14.0,57.0,66.0,17.0
14.0,61.0,75.0,90.0
14.0,52.0,73.0,0.0
14.0,54.0,67.0,1.0
14.0,62.0,72.0,2.0
14.0,52.0,68.0,37.0
14.0,61.0,74.0,6.0
14.0,50.0,64.0,36.0
14.0,59.0,66.0,0.0
14.0,52.0,58.0,4.0
14.0,61.0,66.0,2.0
14.0,69.0,73.0,39.0
14.0,61.0,68.0,0.0
14.0,57.0,66.0,4.0
14.0,66.0,61.0,84.0
14.0,62.0,81.0,1.0
14.0,57.0,70.0,2.0
14.0,62.0,73.0,39.0
14.0,64.0,74.0,38.0
14.0,66.0,70.0,35.0
14.0,62.0,80.0,0.0
14.0,69.0,80.0,97.0
14.0,57.0,71.0,90.0
14.0,62.0,80.0,93.0
14.0,66.0,63.0,92.0
14.0,68.0,55.0,3.0
14.0,64.0,80.0,7.0
14.0,61.0,60.0,4.0
14.0,64.0,78.0,91.0
14.0,61.0,67.0,90.0
14.0,68.0,75.0,93.0
14.0,61.0,67.0,6.0
14.0,68.0,59.0,91.0
14.0,64.0,69.0,5.0
14.0,66.0,66.0,4.0
14.0,62.0,73.0,5.0
14.0,61.0,74.0,4.0
14.0,64.0,73.0,0.0
14.0,66.0,65.0,3.0
14.0,62.0,85.0,3.0
14.0,59.0,72.0,1.0
14.0,61.0,74.0,38.0
14.0,62.0,68.0,2.0
14.0,64.0,78.0,46.0
14.0,66.0,81.0,45.0
14.0,69.0,73.0,18.0
14.0,64.0,79.0,0.0
14.0,66.0,81.0,44.0
14.0,62.0,73.0,0.0
14.0,69.0,73.0,91.0
14.0,64.0,74.0,0.0
14.0,62.0,68.0,0.0
14.0,61.0,71.0,98.0
14.0,69.0,77.0,0.0
14.0,57.0,67.0,0.0
14.0,61.0,67.0,91.0
14.0,52.0,68.0,3.0
14.0,54.0,68.0,2.0
14.0,62.0,73.0,0.0
14.0,52.0,64.0,2.0
14.0,61.0,72.0,5.0
14.0,59.0,68.0,0.0
14.0,50.0,66.0,0.0
14.0,52.0,64.0,44.0
14.0,61.0,67.0,2.0
14.0,66.0,66.0,6165.0
14.0,62.0,83.0,1.0
14.0,57.0,68.0,5.0
14.0,62.0,73.0,91.0
14.0,66.0,72.0,86.0
14.0,64.0,73.0,0.0
14.0,69.0,68.0,0.0
14.0,66.0,82.0,48.0
14.0,62.0,69.0,2.0
14.0,64.0,70.0,92.0
14.0,66.0,84.0,36.0
14.0,69.0,73.0,36.0
14.0,68.0,67.0,97.0
14.0,64.0,73.0,4.0
14.0,61.0,58.0,1.0
14.0,64.0,73.0,94.0
14.0,61.0,58.0,85.0
14.0,64.0,74.0,90.0
14.0,61.0,75.0,0.0
14.0,68.0,58.0,98.0
14.0,64.0,65.0,0.0
14.0,66.0,63.0,6.0
14.0,62.0,68.0,4.0
14.0,64.0,73.0,0.0
14.0,61.0,68.0,0.0
14.0,66.0,61.0,0.0
14.0,62.0,86.0,0.0
14.0,59.0,71.0,6.0
14.0,61.0,72.0,35.0
14.0,62.0,70.0,0.0
14.0,64.0,80.0,43.0
14.0,66.0,74.0,41.0
14.0,69.0,72.0,85.0
14.0,64.0,67.0,0.0
14.0,66.0,82.0,44.0
14.0,62.0,70.0,41.0
14.0,64.0,74.0,1.0
14.0,69.0,66.0,1.0
14.0,66.0,82.0,42.0
14.0,64.0,75.0,25.0
14.0,62.0,70.0,35.0
14.0,61.0,68.0,56.0
14.0,69.0,70.0,1.0
15.0,38.0,83.0,3061.0
15.0,37.0,81.0,767.0
15.0,35.0,86.0,767.0
15.0,33.0,73.0,0.0
15.0,38.0,95.0,785.0
15.0,37.0,91.0,744.0
15.0,35.0,85.0,769.0
15.0,33.0,84.0,745.0
15.0,38.0,97.0,70.0
15.0,37.0,110.0,44.0
15.0,35.0,92.0,54.0
15.0,28.0,92.0,28.0
15.0,33.0,87.0,20.0
15.0,42.0,95.0,202.0
15.0,49.0,74.0,100.0
15.0,57.0,92.0,92.0
15.0,56.0,79.0,67.0
15.0,54.0,104.0,68.0
15.0,49.0,93.0,47.0
15.0,53.0,88.0,64.0
15.0,54.0,93.0,42.0
15.0,56.0,104.0,37.0
15.0,49.0,95.0,2.0
15.0,49.0,99.0,74.0
15.0,49.0,104.0,36.0
15.0,38.0,97.0,20.0
15.0,33.0,80.0,758.0
15.0,37.0,91.0,398.0
15.0,42.0,99.0,25.0
15.0,49.0,72.0,0.0
15.0,57.0,90.0,100.0
15.0,56.0,84.0,65.0
15.0,54.0,107.0,72.0
15.0,49.0,99.0,43.0
15.0,53.0,81.0,34.0
15.0,54.0,87.0,41.0
15.0,56.0,97.0,33.0
15.0,49.0,95.0,0.0
15.0,49.0,99.0,68.0
15.0,49.0,99.0,39.0
15.0,38.0,100.0,25.0
15.0,33.0,80.0,46.0
15.0,33.0,80.0,39.0
15.0,38.0,94.0,65.0
15.0,37.0,101.0,35.0
15.0,35.0,87.0,38.0
15.0,33.0,80.0,60.0
15.0,38.0,92.0,79.0
15.0,37.0,99.0,28.0
15.0,35.0,88.0,56.0
15.0,28.0,81.0,20.0
15.0,33.0,92.0,34.0
15.0,42.0,104.0,82.0
15.0,49.0,75.0,98.0
15.0,57.0,85.0,94.0
15.0,56.0,91.0,65.0
15.0,54.0,101.0,71.0
15.0,49.0,97.0,50.0
15.0,53.0,80.0,52.0
15.0,54.0,85.0,36.0
15.0,56.0,89.0,41.0
15.0,49.0,89.0,2.0
15.0,49.0,91.0,66.0
15.0,49.0,104.0,54.0
15.0,38.0,94.0,24.0
15.0,33.0,80.0,48.0
15.0,37.0,89.0,411.0
15.0,42.0,104.0,373.0
15.0,49.0,77.0,85.0
15.0,57.0,86.0,96.0
15.0,56.0,78.0,62.0
15.0,54.0,110.0,72.0
15.0,49.0,101.0,36.0
15.0,53.0,81.0,40.0
15.0,54.0,61.0,1.0
15.0,54.0,87.0,28.0
15.0,56.0,91.0,1.0
15.0,49.0,87.0,2.0
15.0,49.0,101.0,68.0
15.0,49.0,99.0,47.0
15.0,38.0,97.0,37.0
15.0,33.0,71.0,36.0
15.0,33.0,78.0,46.0
15.0,38.0,97.0,66.0
15.0,37.0,101.0,38.0
15.0,35.0,75.0,776.0
15.0,33.0,85.0,80.0
16.0,69.0,78.0,6146.0
16.0,68.0,71.0,175.0
16.0,66.0,70.0,92.0
16.0,62.0,75.0,0.0
16.0,66.0,70.0,98.0
16.0,68.0,68.0,87.0
16.0,69.0,70.0,88.0
16.0,68.0,85.0,48.0
16.0,68.0,82.0,27.0
16.0,68.0,78.0,22.0
16.0,69.0,73.0,51.0
16.0,68.0,79.0,38.0
16.0,69.0,80.0,34.0
16.0,68.0,74.0,192.0
16.0,66.0,68.0,89.0
16.0,62.0,71.0,0.0
16.0,66.0,67.0,98.0
16.0,68.0,75.0,84.0
16.0,69.0,70.0,1.0
16.0,66.0,67.0,93.0
16.0,64.0,73.0,3.0
16.0,69.0,80.0,356.0
16.0,68.0,73.0,211.0
16.0,66.0,67.0,91.0
16.0,62.0,70.0,1.0
16.0,66.0,68.0,92.0
16.0,68.0,65.0,90.0
16.0,69.0,73.0,90.0
16.0,68.0,85.0,38.0
16.0,68.0,89.0,25.0
16.0,68.0,82.0,23.0
16.0,69.0,71.0,48.0
16.0,68.0,81.0,39.0
16.0,69.0,80.0,220.0
16.0,66.0,70.0,92.0
16.0,69.0,76.0,96.0
16.0,68.0,65.0,191.0
16.0,69.0,75.0,92.0
16.0,69.0,72.0,21.0
16.0,73.0,101.0,195.0
16.0,73.0,110.0,63.0
16.0,74.0,91.0,53.0
16.0,73.0,78.0,53.0
16.0,71.0,85.0,55.0
16.0,69.0,79.0,90.0
16.0,68.0,79.0,96.0
16.0,68.0,91.0,42.0
16.0,69.0,87.0,51.0
16.0,71.0,85.0,46.0
16.0,71.0,80.0,114.0
16.0,69.0,75.0,92.0
16.0,68.0,67.0,92.0
16.0,69.0,70.0,83.0
16.0,68.0,67.0,88.0
16.0,66.0,58.0,94.0
16.0,62.0,67.0,89.0
16.0,66.0,61.0,87.0
16.0,61.0,68.0,95.0
16.0,73.0,95.0,385.0
16.0,73.0,99.0,60.0
16.0,74.0,90.0,51.0
16.0,73.0,95.0,44.0
16.0,71.0,84.0,66.0
16.0,69.0,76.0,92.0
16.0,68.0,84.0,92.0
16.0,68.0,82.0,38.0
16.0,69.0,80.0,47.0
16.0,71.0,80.0,37.0
16.0,71.0,81.0,93.0
16.0,69.0,70.0,105.0
16.0,68.0,73.0,90.0
16.0,69.0,66.0,85.0
16.0,68.0,66.0,86.0
16.0,66.0,62.0,92.0
16.0,65.0,68.0,0.0
16.0,62.0,70.0,96.0
16.0,61.0,61.0,90.0
16.0,69.0,81.0,261.0
16.0,68.0,74.0,198.0
16.0,66.0,72.0,99.0
16.0,62.0,70.0,0.0
16.0,66.0,68.0,92.0
16.0,68.0,65.0,82.0
16.0,69.0,74.0,86.0
16.0,68.0,82.0,43.0
16.0,68.0,87.0,28.0
16.0,68.0,84.0,28.0
16.0,69.0,77.0,48.0
16.0,68.0,78.0,34.0
16.0,69.0,80.0,64.0
16.0,68.0,73.0,21.0
16.0,66.0,77.0,100.0
16.0,62.0,68.0,2.0
16.0,66.0,66.0,95.0
16.0,68.0,68.0,89.0
16.0,69.0,72.0,89.0
16.0,66.0,82.0,87.0
16.0,64.0,72.0,2.0
16.0,69.0,84.0,346.0
16.0,68.0,81.0,11.0
16.0,66.0,68.0,101.0
16.0,62.0,73.0,0.0
16.0,66.0,68.0,96.0
16.0,68.0,72.0,84.0
16.0,69.0,74.0,85.0
16.0,68.0,87.0,39.0
16.0,68.0,91.0,25.0
16.0,68.0,89.0,29.0
16.0,69.0,74.0,44.0
16.0,68.0,81.0,40.0
16.0,69.0,85.0,296.0
16.0,66.0,67.0,98.0
16.0,69.0,75.0,0.0
16.0,68.0,72.0,203.0
16.0,69.0,80.0,93.0
16.0,69.0,81.0,26.0
16.0,73.0,104.0,352.0
16.0,73.0,101.0,76.0
16.0,74.0,87.0,57.0
16.0,73.0,97.0,54.0
16.0,71.0,80.0,56.0
16.0,69.0,80.0,41.0
16.0,68.0,75.0,1.0
16.0,68.0,82.0,34.0
16.0,69.0,84.0,47.0
16.0,71.0,90.0,40.0
16.0,71.0,87.0,116.0
16.0,69.0,74.0,95.0
16.0,68.0,67.0,86.0
16.0,69.0,70.0,91.0
16.0,68.0,67.0,91.0
16.0,66.0,63.0,83.0
16.0,62.0,68.0,0.0
16.0,66.0,61.0,94.0
16.0,61.0,70.0,0.0
16.0,73.0,81.0,354.0
16.0,73.0,95.0,40.0
16.0,74.0,80.0,27.0
16.0,73.0,79.0,45.0
16.0,71.0,77.0,45.0
16.0,69.0,77.0,46.0
16.0,68.0,75.0,127.0
16.0,68.0,87.0,39.0
16.0,69.0,80.0,32.0
16.0,71.0,85.0,35.0
16.0,71.0,85.0,86.0
16.0,69.0,72.0,100.0
16.0,68.0,70.0,93.0
16.0,69.0,70.0,87.0
16.0,68.0,70.0,81.0
16.0,66.0,66.0,92.0
16.0,65.0,61.0,0.0
16.0,62.0,71.0,100.0
16.0,61.0,68.0,98.0
0.0,0.0,0.0,0.0
0.0,0.0,0.0,0.0
0.0,0.0,0.0,0.0
0.0,0.0,0.0,0.0
0.0,0.0,0.0,0.0
0.0,0.0,0.0,0.0
0.0,0.0,0.0,0.0
0.0,0.0,0.0,0.0
0.0,0.0,0.0,0.0
0.0,0.0,0.0,0.0
0.0,0.0,0.0,0.0
0.0,0.0,0.0,0.0
0.0,0.0,0.0,0.0
0.0,0.0,0.0,0.0
0.0,0.0,0.0,0.0
0.0,0.0,0.0,0.0
0.0,0.0,0.0,0.0
0.0,0.0,0.0,0.0
0.0,0.0,0.0,0.0
0.0,0.0,0.0,0.0
0.0,0.0,0.0,0.0
0.0,0.0,0.0,0.0
0.0,0.0,0.0,0.0
0.0,0.0,0.0,0.0
0.0,0.0,0.0,0.0
0.0,0.0,0.0,0.0
0.0,0.0,0.0,0.0
0.0,0.0,0.0,0.0
0.0,0.0,0.0,0.0
0.0,0.0,0.0,0.0
0.0,0.0,0.0,0.0
0.0,0.0,0.0,0.0
0.0,0.0,0.0,0.0
0.0,0.0,0.0,0.0
0.0,0.0,0.0,0.0
0.0,0.0,0.0,0.0
0.0,0.0,0.0,0.0
0.0,0.0,0.0,0.0
0.0,0.0,0.0,0.0
0.0,0.0,0.0,0.0
0.0,0.0,0.0,0.0
0.0,0.0,0.0,0.0
0.0,0.0,0.0,0.0
0.0,0.0,0.0,0.0
0.0,0.0,0.0,0.0
0.0,0.0,0.0,0.0
0.0,0.0,0.0,0.0
0.0,0.0,0.0,0.0
0.0,0.0,0.0,0.0
0.0,0.0,0.0,0.0
0.0,0.0,0.0,0.0
0.0,0.0,0.0,0.0
0.0,0.0,0.0,0.0
0.0,0.0,0.0,0.0
0.0,0.0,0.0,0.0
0.0,0.0,0.0,0.0
0.0,0.0,0.0,0.0
0.0,0.0,0.0,0.0
0.0,0.0,0.0,0.0
0.0,0.0,0.0,0.0
0.0,0.0,0.0,0.0
0.0,0.0,0.0,0.0
0.0,0.0,0.0,0.0
0.0,0.0,0.0,0.0
0.0,0.0,0.0,0.0
0.0,0.0,0.0,0.0
0.0,0.0,0.0,0.0
0.0,0.0,0.0,0.0
0.0,0.0,0.0,0.0
0.0,0.0,0.0,0.0
0.0,0.0,0.0,0.0
0.0,0.0,0.0,0.0
0.0,0.0,0.0,0.0
0.0,0.0,0.0,0.0
0.0,0.0,0.0,0.0
0.0,0.0,0.0,0.0
0.0,0.0,0.0,0.0
0.0,0.0,0.0,0.0
0.0,0.0,0.0,0.0
0.0,0.0,0.0,0.0
0.0,0.0,0.0,0.0
0.0,0.0,0.0,0.0
0.0,0.0,0.0,0.0
0.0,0.0,0.0,0.0
0.0,0.0,0.0,0.0
0.0,0.0,0.0,0.0
0.0,0.0,0.0,0.0
0.0,0.0,0.0,0.0
0.0,0.0,0.0,0.0
0.0,0.0,0.0,0.0
0.0,0.0,0.0,0.0
0.0,0.0,0.0,0.0
0.0,0.0,0.0,0.0
0.0,0.0,0.0,0.0
0.0,0.0,0.0,0.0
0.0,0.0,0.0,0.0
0.0,0.0,0.0,0.0
0.0,0.0,0.0,0.0
0.0,0.0,0.0,0.0
0.0,0.0,0.0,0.0
0.0,0.0,0.0,0.0
0.0,0.0,0.0,0.0
0.0,0.0,0.0,0.0
0.0,0.0,0.0,0.0
0.0,0.0,0.0,0.0
0.0,0.0,0.0,0.0
0.0,0.0,0.0,0.0
0.0,0.0,0.0,0.0
0.0,0.0,0.0,0.0
0.0,0.0,0.0,0.0
0.0,0.0,0.0,0.0
0.0,0.0,0.0,0.0
0.0,0.0,0.0,0.0
0.0,0.0,0.0,0.0
0.0,0.0,0.0,0.0
0.0,0.0,0.0,0.0
0.0,0.0,0.0,0.0
0.0,0.0,0.0,0.0
0.0,0.0,0.0,0.0
0.0,0.0,0.0,0.0
0.0,0.0,0.0,0.0
0.0,0.0,0.0,0.0
0.0,0.0,0.0,0.0
0.0,0.0,0.0,0.0
0.0,0.0,0.0,0.0
0.0,0.0,0.0,0.0
0.0,0.0,0.0,0.0
0.0,0.0,0.0,0.0
0.0,0.0,0.0,0.0
0.0,0.0,0.0,0.0
0.0,0.0,0.0,0.0
0.0,0.0,0.0,0.0
0.0,0.0,0.0,0.0
0.0,0.0,0.0,0.0
0.0,0.0,0.0,0.0
0.0,0.0,0.0,0.0
0.0,0.0,0.0,0.0
0.0,0.0,0.0,0.0
0.0,0.0,0.0,0.0
0.0,0.0,0.0,0.0
0.0,0.0,0.0,0.0
0.0,0.0,0.0,0.0
0.0,0.0,0.0,0.0
0.0,0.0,0.0,0.0
0.0,0.0,0.0,0.0
0.0,0.0,0.0,0.0
0.0,0.0,0.0,0.0
0.0,0.0,0.0,0.0
0.0,0.0,0.0,0.0
0.0,0.0,0.0,0.0
0.0,0.0,0.0,0.0
0.0,0.0,0.0,0.0
0.0,0.0,0.0,0.0
0.0,0.0,0.0,0.0
0.0,0.0,0.0,0.0
0.0,0.0,0.0,0.0
0.0,0.0,0.0,0.0
0.0,0.0,0.0,0.0
0.0,0.0,0.0,0.0
0.0,0.0,0.0,0.0
0.0,0.0,0.0,0.0
0.0,0.0,0.0,0.0
0.0,0.0,0.0,0.0
0.0,0.0,0.0,0.0
0.0,0.0,0.0,0.0
0.0,0.0,0.0,0.0
0.0,0.0,0.0,0.0
0.0,0.0,0.0,0.0
0.0,0.0,0.0,0.0
0.0,0.0,0.0,0.0
0.0,0.0,0.0,0.0
0.0,0.0,0.0,0.0
0.0,0.0,0.0,0.0
0.0,0.0,0.0,0.0
0.0,0.0,0.0,0.0
0.0,0.0,0.0,0.0
0.0,0.0,0.0,0.0
0.0,0.0,0.0,0.0
0.0,0.0,0.0,0.0
0.0,0.0,0.0,0.0
0.0,0.0,0.0,0.0
0.0,0.0,0.0,0.0
0.0,0.0,0.0,0.0
0.0,0.0,0.0,0.0
0.0,0.0,0.0,0.0
0.0,0.0,0.0,0.0
0.0,0.0,0.0,0.0
0.0,0.0,0.0,0.0
0.0,0.0,0.0,0.0
0.0,0.0,0.0,0.0
0.0,0.0,0.0,0.0
0.0,0.0,0.0,0.0
0.0,0.0,0.0,0.0
0.0,0.0,0.0,0.0
0.0,0.0,0.0,0.0
