track,note,velocity,time
1,48,79,424
1,69,79,176
1,58,80,0
1,65,76,12
1,62,84,0
1,70,84,164
1,71,73,188
1,63,84,196
1,72,63,12
1,62,82,0
1,69,71,0
1,66,76,0
1,41,68,16
1,64,58,12
1,67,53,0
1,57,76,32
1,70,80,12
1,69,80,20
1,72,66,8
1,46,74,0
1,66,84,240
1,62,66,12
1,56,70,16
1,67,74,12
1,56,64,292
1,67,69,0
1,62,63,0
1,69,53,144
1,72,66,32
1,55,62,12
1,60,86,0
1,45,66,0
1,69,63,4
1,65,63,76
1,60,66,0
1,48,65,48
1,49,68,24
1,50,63,32
1,38,74,12
1,74,65,20
1,42,68,0
1,70,63,16
1,66,64,0
1,60,54,0
1,60,64,148
1,74,68,0
1,70,53,12
1,66,56,0
1,72,55,12
1,43,63,0
1,70,68,204
1,67,71,44
1,60,58,20
1,37,86,272
1,36,73,332
1,48,63,20
1,58,69,8
1,69,71,0
1,66,73,16
1,61,76,0
1,65,82,28
1,61,76,204
1,45,74,12
1,55,68,0
1,61,76,28
1,45,73,0
1,55,61,12
1,60,60,20
1,44,63,12
1,44,61,156
1,60,59,0
1,54,58,4
1,59,63,160
1,53,54,0
1,43,59,8
1,59,63,156
1,43,57,0
1,53,55,12
1,65,74,8
1,36,66,0
1,58,74,0
1,53,74,16
1,62,76,0
1,65,18,32
1,58,64,0
1,53,46,8
1,62,53,0
1,60,70,32
1,57,77,0
1,65,77,0
1,55,74,12
1,41,71,0
1,45,73,256
1,72,64,0
1,57,82,0
1,60,84,12
1,70,86,264
1,69,79,4
1,46,88,12
1,72,62,0
1,66,92,272
1,62,84,0
1,56,79,0
1,67,73,12
1,72,45,28
1,72,53,12
1,72,60,156
1,45,64,8
1,55,69,0
1,60,64,0
1,69,53,28
1,65,62,84
1,60,68,20
1,48,53,128
1,49,64,12
1,50,73,12
1,48,65,44
1,45,79,0
1,38,76,20
1,70,79,148
1,74,79,4
1,42,84,0
1,60,77,12
1,66,80,0
1,43,77,0
1,72,64,8
1,60,79,12
1,70,88,88
1,67,68,40
1,60,69,8
1,36,90,12
1,58,60,284
1,61,64,0
1,69,64,0
1,66,64,12
1,58,63,168
1,61,65,0
1,69,63,4
1,66,63,0
1,48,64,100
1,69,65,40
1,65,82,128
1,60,76,264
1,51,88,4
1,46,64,32
1,59,62,12
1,50,62,0
1,46,65,40
1,58,70,0
1,49,68,32
1,46,69,184
1,57,69,12
1,48,71,0
1,45,76,228
1,46,86,64
1,47,88,12
1,51,70,284
1,35,74,0
1,61,69,0
1,57,71,0
1,57,65,20
1,34,69,0
1,62,68,12
1,60,63,0
1,53,60,0
1,46,68,0
1,74,79,344
1,69,76,8
1,46,74,4
1,62,73,0
1,58,84,0
1,65,79,0
1,71,65,264
1,69,65,0
1,74,68,0
1,57,62,0
1,47,74,0
1,66,68,0
1,62,68,12
1,68,70,12
1,74,66,0
1,62,64,12
1,56,69,0
1,65,69,0
1,74,73,312
1,45,60,0
1,55,56,0
1,60,53,12
1,67,76,0
1,64,69,4
1,72,44,52
1,71,62,100
1,72,54,32
1,60,69,0
1,56,63,328
1,65,76,0
1,61,63,0
1,46,70,12
1,64,66,0
1,55,76,12
1,70,74,20
1,38,71,48
1,69,73,0
1,65,71,48
1,60,62,0
1,53,76,12
1,61,53,276
1,49,69,0
1,55,47,12
1,65,53,4
1,61,63,192
1,65,61,0
1,55,54,8
1,46,65,40
1,48,64,4
1,69,64,0
1,65,62,12
1,60,56,0
1,55,53,0
1,60,61,12
1,69,62,0
1,65,63,0
1,55,46,12
1,61,65,176
1,69,68,0
1,59,65,8
1,64,69,4
1,53,70,0
1,69,76,8
1,69,73,196
1,63,79,0
1,59,71,12
1,65,71,0
1,37,65,0
1,44,63,0
1,67,65,32
1,65,60,108
1,67,74,156
1,49,76,12
1,65,77,148
1,62,79,12
1,58,79,0
1,48,84,0
1,58,92,8
1,36,79,0
1,61,86,0
1,66,84,0
1,69,76,0
1,58,69,240
1,70,63,0
1,64,63,12
1,68,50,16
1,42,80,180
1,71,73,0
1,64,73,0
1,59,73,0
1,68,64,0
1,69,74,216
1,66,79,4
1,72,56,0
1,60,73,0
1,63,80,0
1,41,64,0
1,64,44,8
1,67,54,0
1,29,64,8
1,33,84,60
1,70,84,0
1,45,65,24
1,69,73,0
1,34,84,12
1,72,62,0
1,65,79,280
1,68,80,0
1,60,74,4
1,72,52,196
1,65,61,12
1,68,58,0
1,60,61,0
1,46,70,0
1,68,64,164
1,72,51,0
1,60,73,0
1,65,64,12
1,33,76,8
1,72,68,12
1,60,88,0
1,69,61,0
1,45,64,12
1,65,65,64
1,60,70,20
1,37,74,0
1,38,82,20
1,74,82,264
1,62,90,12
1,50,77,296
1,42,76,40
1,74,79,12
1,62,79,12
1,72,58,8
1,43,76,12
1,70,74,128
1,67,69,20
1,60,71,8
1,48,90,260
1,58,50,48
1,61,60,0
1,69,53,0
1,66,60,12
1,58,64,180
1,69,61,0
1,61,60,12
1,66,50,12
1,36,74,264
1,65,84,0
1,61,79,244
1,55,77,0
1,45,80,12
1,60,52,28
1,54,48,4
1,44,64,8
1,60,63,136
1,54,64,0
1,44,69,12
1,59,69,20
1,43,57,12
1,53,62,0
1,65,64,28
1,43,64,8
1,59,68,4
1,53,61,12
1,58,65,8
1,61,70,0
1,65,74,0
1,49,69,16
1,56,53,0
1,42,74,0
1,56,56,52
1,65,46,12
1,58,64,0
1,42,65,0
1,61,53,12
1,49,68,0
1,41,69,156
1,64,74,4
1,60,63,0
1,55,68,12
1,57,66,0
1,48,66,0
1,41,73,44
1,29,73,108
1,33,69,12
1,67,65,0
1,63,65,4
1,57,62,12
1,61,61,0
1,67,64,44
1,61,68,0
1,57,56,12
1,63,64,0
1,65,71,180
1,58,64,0
1,34,73,0
1,62,73,12
1,55,65,0
1,65,77,32
1,35,70,0
1,71,73,0
1,74,76,12
1,62,79,0
1,68,70,0
1,74,66,136
1,68,64,4
1,71,55,8
1,65,62,0
1,62,63,4
1,36,69,8
1,72,56,0
1,60,74,12
1,65,74,0
1,69,71,0
1,70,80,444
1,39,80,0
1,61,79,4
1,65,76,0
1,67,74,0
1,61,61,40
1,65,58,0
1,70,56,0
1,38,69,148
1,69,64,8
1,64,60,12
1,60,62,0
1,66,57,4
1,42,84,520
1,58,69,32
1,63,69,0
1,60,62,0
1,54,61,16
1,44,84,0
1,54,51,156
1,58,56,0
1,63,49,12
1,60,34,16
1,43,56,12
1,53,54,12
1,58,40,0
1,57,49,0
1,62,62,4
1,67,77,412
1,63,80,0
1,37,80,0
1,59,77,0
1,65,71,0
1,67,58,52
1,59,54,0
1,63,64,0
1,65,49,12
1,69,63,52
1,58,51,8
1,61,65,0
1,65,64,0
1,36,71,16
1,48,79,180
1,45,70,148
1,46,92,84
1,69,76,168
1,66,76,0
1,58,84,0
1,61,79,0
1,44,64,188
1,45,65,12
1,61,51,12
1,55,47,0
1,65,49,12
1,61,68,152
1,65,66,0
1,55,70,0
1,38,71,120
1,54,92,168
1,60,77,0
1,65,79,0
1,42,70,156
1,43,53,12
1,59,55,8
1,53,41,4
1,65,47,0
1,59,58,148
1,65,55,0
1,53,53,0
1,36,71,128
1,65,73,164
1,58,74,4
1,53,76,8
1,62,61,4
1,40,74,148
1,41,71,0
1,68,92,256
1,60,82,4
1,65,90,0
1,63,88,0
1,29,74,296
1,34,88,8
1,65,71,200
1,58,80,0
1,62,76,12
1,55,74,0
1,47,82,168
1,65,58,24
1,35,60,0
1,56,53,0
1,59,62,0
1,62,64,12
1,56,53,120
1,59,49,12
1,65,35,12
1,62,21,8
1,60,62,8
1,65,64,0
1,62,65,0
1,57,65,12
1,48,68,0
1,36,84,188
1,72,56,36
1,60,80,0
1,67,76,0
1,64,77,12
1,69,61,4
1,65,66,24
1,37,68,0
1,58,76,0
1,73,53,12
1,70,60,16
1,74,79,52
1,38,76,0
1,66,76,12
1,60,68,0
1,71,63,16
1,42,73,28
1,63,74,12
1,54,65,0
1,57,63,0
1,60,61,0
1,54,63,32
1,57,51,12
1,60,57,0
1,63,53,0
1,62,69,0
1,57,66,0
1,53,66,0
1,43,55,4
1,58,61,0
1,31,80,156
1,37,73,0
1,59,68,12
1,65,64,0
1,67,65,0
1,63,60,0
1,67,69,136
1,65,57,0
1,59,69,0
1,63,63,4
1,36,73,8
1,69,71,12
1,66,70,4
1,58,61,0
1,61,69,0
1,69,79,36
1,40,71,0
1,66,80,16
1,58,80,0
1,61,80,0
1,69,48,40
1,58,56,0
1,61,63,12
1,60,73,24
1,62,77,0
1,57,77,0
1,65,77,0
1,41,40,12
1,53,79,52
1,49,80,28
1,59,77,192
1,63,79,0
1,53,80,0
1,37,80,76
1,36,66,84
1,55,42,8
1,62,52,0
1,58,38,4
1,48,46,120
1,51,76,12
1,61,70,0
1,57,71,12
1,47,79,0
1,35,59,20
1,65,71,20
1,56,69,0
1,34,79,0
1,53,73,12
1,60,63,0
1,62,69,0
1,46,88,0
1,62,68,264
1,58,86,8
1,57,80,8
1,58,88,0
1,62,82,48
1,65,90,20
1,35,76,20
1,67,92,32
1,59,90,12
1,65,82,60
1,64,74,100
1,56,74,8
1,44,69,12
1,62,64,32
1,52,52,8
1,60,53,0
1,55,53,0
1,45,51,0
1,33,62,280
1,45,53,236
1,60,46,24
1,64,88,20
1,67,88,64
1,69,92,44
1,37,84,24
1,72,74,12
1,64,95,0
1,60,84,8
1,70,84,40
1,69,64,28
1,49,63,12
1,61,69,0
1,67,73,52
1,60,62,40
1,65,69,0
1,57,58,0
1,50,64,40
1,38,71,292
1,49,88,20
1,69,79,168
1,61,84,12
1,65,71,0
1,57,84,0
1,46,70,108
1,48,60,12
1,65,57,12
1,60,49,0
1,69,53,0
1,57,51,0
1,60,53,140
1,57,62,0
1,69,55,0
1,65,51,0
1,47,68,36
1,69,57,16
1,62,61,0
1,57,63,0
1,65,46,0
1,69,63,8
1,57,61,16
1,62,65,0
1,65,46,12
1,58,68,28
1,69,73,0
1,62,77,12
1,43,57,4
1,50,71,0
1,45,70,28
1,67,74,0
1,64,70,12
1,60,66,0
1,57,65,0
1,62,73,8
1,58,70,4
1,65,74,0
1,46,76,0
1,62,76,20
1,67,76,0
1,59,74,0
1,55,70,12
1,47,80,4
1,66,74,20
1,69,70,0
1,61,80,0
1,58,68,0
1,48,76,0
1,36,66,60
1,70,63,8
1,72,64,8
1,69,77,12
1,66,79,4
1,62,84,0
1,41,71,0
1,63,80,0
1,67,36,0
1,64,64,0
1,44,79,276
1,45,86,0
1,69,66,116
1,72,57,0
1,65,80,4
1,60,84,0
1,33,64,68
1,40,49,52
1,34,74,20
1,72,36,0
1,68,53,12
1,60,50,0
1,65,60,0
1,46,56,100
1,35,73,20
1,74,92,196
1,71,76,0
1,68,92,0
1,65,92,0
1,62,95,12
1,47,77,92
1,47,36,32
1,42,49,12
1,36,69,20
1,72,42,0
1,65,62,12
1,69,59,0
1,60,52,0
1,48,76,8
1,61,79,20
1,70,76,0
1,67,74,12
1,43,70,0
1,65,76,0
1,39,79,112
1,38,69,28
1,69,61,12
1,66,64,0
1,63,63,0
1,60,49,12
1,41,73,108
1,42,80,8
1,60,66,180
1,54,88,0
1,63,80,0
1,57,73,0
1,30,64,68
1,42,92,8
1,31,73,52
1,58,53,0
1,53,60,0
1,62,64,0
1,57,55,12
1,43,70,112
1,60,49,24
1,55,53,0
1,33,65,0
1,64,59,0
1,57,46,16
1,45,68,8
1,58,58,40
1,62,63,0
1,53,52,12
1,65,64,0
1,46,68,0
1,34,64,52
1,36,70,20
1,58,79,12
1,66,70,0
1,69,71,0
1,61,73,0
1,48,79,20
1,68,79,52
1,65,74,8
1,62,76,0
1,59,76,4
1,59,74,40
1,36,73,0
1,62,70,4
1,56,64,0
1,65,68,0
1,48,74,136
1,36,70,4
1,65,79,0
1,58,79,0
1,55,71,0
1,62,76,12
1,48,62,20
1,58,74,32
1,68,65,0
1,70,68,0
1,64,74,0
1,42,76,12
1,52,65,0
1,41,66,40
1,67,71,0
1,72,53,0
1,60,65,0
1,64,70,16
1,57,71,12
1,52,65,0
1,76,90,40
1,75,95,40
1,74,40,44
1,73,86,28
1,56,69,8
1,62,73,12
1,72,39,12
1,68,88,36
1,65,21,40
1,67,79,140
1,66,88,164
1,65,73,40
1,64,65,32
1,55,54,0
1,45,53,12
1,60,63,8
1,76,70,12
1,77,60,0
1,76,61,40
1,74,77,0
1,72,49,52
1,69,77,0
1,67,60,20
1,65,69,8
1,38,66,28
1,68,109,32
1,66,80,72
1,65,53,52
1,63,95,40
1,42,68,20
1,62,56,32
1,60,65,20
1,57,47,32
1,60,64,20
1,58,61,12
1,43,39,12
1,60,80,108
1,58,74,40
1,31,70,40
1,65,97,20
1,62,73,40
1,58,57,32
1,55,57,48
1,36,79,60
1,60,90,0
1,62,65,40
1,60,66,8
1,44,86,8
1,65,76,12
1,53,79,0
1,58,88,0
1,59,64,20
1,32,80,100
1,59,74,12
1,65,74,4
1,53,71,0
1,65,82,28
1,57,77,0
1,33,77,0
1,60,71,4
1,55,79,12
1,45,92,0
1,37,86,0
1,38,77,32
1,74,88,196
1,66,95,0
1,71,74,4
1,60,95,0
1,42,80,88
1,72,48,12
1,43,55,0
1,60,63,12
1,69,58,4
1,65,63,12
1,37,65,88
1,42,34,140
1,36,74,28
1,69,70,8
1,58,76,4
1,66,73,0
1,61,73,0
1,40,68,0
1,35,76,20
1,65,77,200
1,57,74,0
1,51,84,0
1,63,61,12
1,61,64,0
1,47,77,196
1,51,65,92
1,65,63,4
1,57,60,0
1,61,53,0
1,63,50,4
1,35,63,96
1,65,55,92
1,51,49,4
1,57,53,0
1,61,40,12
1,41,26,0
1,34,79,0
1,53,53,44
1,65,54,0
1,56,50,0
1,62,53,0
1,60,49,16
1,56,40,160
1,53,50,0
1,60,43,16
1,65,55,0
1,62,51,0
1,46,74,40
1,53,69,44
1,56,54,0
1,60,52,0
1,65,62,0
1,62,56,0
1,60,54,72
1,53,73,4
1,65,61,0
1,56,65,0
1,62,59,12
1,65,79,0
1,45,90,0
1,61,86,0
1,55,90,0
1,55,79,140
1,65,79,0
1,61,80,0
1,33,71,0
1,55,61,48
1,61,57,0
1,65,63,4
1,65,62,148
1,61,58,0
1,45,46,8
1,55,63,0
1,38,65,28
1,65,56,12
1,54,50,0
1,60,53,0
1,60,62,176
1,54,73,0
1,65,62,12
1,42,80,176
1,54,69,12
1,60,66,0
1,65,65,12
1,60,47,52
1,54,64,0
1,65,46,12
1,58,73,176
1,53,71,0
1,65,65,0
1,43,63,0
1,62,64,0
1,31,80,160
1,65,56,44
1,57,58,4
1,58,58,12
1,62,59,0
1,58,63,184
1,65,63,4
1,57,53,8
1,69,69,236
1,58,64,4
1,66,74,0
1,36,77,0
1,61,79,0
1,64,73,20
1,58,69,0
1,61,69,0
1,55,65,12
1,60,71,28
1,57,77,0
1,65,79,4
1,55,80,0
1,41,90,184
1,36,57,192
1,37,69,8
1,63,69,184
1,59,69,0
1,53,63,0
1,34,79,0
1,36,76,16
1,58,64,4
1,55,68,0
1,62,76,0
1,65,71,28
1,61,70,12
1,51,56,0
1,35,60,12
1,57,64,0
1,65,73,48
1,34,80,0
1,60,61,0
1,53,63,0
1,57,65,0
1,62,64,12
1,74,84,476
1,65,77,8
1,62,86,4
1,69,65,12
1,58,84,0
1,72,56,32
1,71,76,92
1,74,79,28
1,47,84,12
1,69,65,252
1,66,74,12
1,62,73,0
1,57,77,12
1,68,69,152
1,65,66,12
1,56,76,0
1,62,63,0
1,60,68,264
1,55,66,0
1,74,74,0
1,45,73,0
1,67,80,16
1,64,73,0
1,72,50,32
1,71,68,112
1,72,64,64
1,55,77,156
1,49,80,0
1,50,92,12
1,68,80,192
1,51,84,0
1,65,79,0
1,61,68,0
1,70,76,44
1,39,73,0
1,69,74,40
1,38,80,0
1,65,74,0
1,60,65,12
1,53,74,16
1,61,54,8
