track,note,velocity,time
1,60,84,2513
1,60,0,15
1,62,84,0
1,62,0,15
1,64,84,0
1,64,0,15
1,65,84,0
1,65,0,15
1,67,84,0
1,67,0,15
1,69,84,0
1,69,0,15
1,72,84,0
1,72,0,15
1,74,84,0
1,74,0,15
1,76,84,0
1,76,0,15
1,77,83,0
1,77,0,15
1,79,83,0
1,79,0,15
1,81,83,0
1,81,0,15
1,84,83,0
1,84,0,15
1,86,83,0
1,86,0,15
1,88,83,0
1,88,0,15
1,89,83,0
1,89,0,15
1,88,83,0
1,88,0,15
1,86,83,0
1,86,0,15
1,84,83,0
1,84,0,15
1,81,83,0
1,81,0,15
1,79,83,0
1,79,0,15
1,77,83,0
1,77,0,15
1,76,83,0
1,76,0,15
1,74,83,0
1,74,0,15
1,72,83,0
1,72,0,15
1,69,83,0
1,69,0,15
1,67,83,0
1,67,0,15
1,65,83,0
1,65,0,15
1,64,83,0
1,64,0,15
1,62,83,0
1,62,0,15
1,60,83,0
1,60,0,15
1,62,83,15
1,62,0,15
1,64,83,0
1,64,0,15
1,65,83,0
1,65,0,15
1,67,83,0
1,67,0,15
1,69,83,0
1,69,0,15
1,72,83,0
1,72,0,15
1,74,83,0
1,74,0,15
1,76,83,0
1,76,0,15
1,77,83,0
1,77,0,15
1,79,83,0
1,79,0,15
1,81,83,0
1,81,0,15
1,84,83,0
1,84,0,15
1,86,83,0
1,86,0,15
1,88,83,0
1,88,0,15
1,89,83,0
1,89,0,15
1,88,83,0
1,88,0,15
1,86,83,0
1,86,0,15
1,84,83,0
1,84,0,15
1,81,83,0
1,81,0,15
1,79,83,0
1,79,0,15
1,77,83,0
1,77,0,15
1,76,83,0
1,76,0,15
1,74,83,0
1,74,0,15
1,72,83,0
1,72,0,15
1,69,83,0
1,69,0,15
1,67,83,0
1,67,0,15
1,65,83,0
1,65,0,15
1,64,83,0
1,64,0,15
1,62,83,0
1,62,0,15
1,60,83,0
1,60,0,15
1,58,83,30
1,58,0,15
1,60,83,0
1,60,0,15
1,62,83,0
1,62,0,15
1,63,83,0
1,63,0,15
1,65,83,0
1,65,0,15
1,67,83,0
1,67,0,15
1,70,83,0
1,70,0,15
1,72,83,0
1,72,0,15
1,74,83,0
1,74,0,15
1,75,83,0
1,75,0,15
1,77,83,0
1,77,0,15
1,79,83,0
1,79,0,15
1,82,83,0
1,82,0,15
1,84,83,0
1,84,0,15
1,86,83,0
1,86,0,15
1,87,83,0
1,87,0,15
1,86,83,0
1,86,0,15
1,84,83,0
1,84,0,15
1,82,83,0
1,82,0,15
1,79,83,0
1,79,0,15
1,77,83,0
1,77,0,15
1,75,83,0
1,75,0,15
1,74,83,0
1,74,0,15
1,72,83,0
1,72,0,15
1,70,83,0
1,70,0,15
1,67,83,0
1,67,0,15
1,65,83,0
1,65,0,15
1,63,83,0
1,63,0,15
1,62,83,0
1,62,0,15
1,60,83,0
1,60,0,15
1,58,83,0
1,58,0,15
1,60,83,15
1,60,0,15
1,62,83,0
1,62,0,15
1,63,83,0
1,63,0,15
1,65,83,0
1,65,0,15
1,67,83,0
1,67,0,15
1,70,83,0
1,70,0,15
1,72,83,0
1,72,0,15
1,74,83,0
1,74,0,15
1,75,83,0
1,75,0,15
1,77,83,0
1,77,0,15
1,79,83,0
1,79,0,15
1,82,83,0
1,82,0,15
1,84,83,0
1,84,0,15
1,86,83,0
1,86,0,15
1,87,83,0
1,87,0,15
1,86,83,0
1,86,0,15
1,84,83,0
1,84,0,15
1,82,82,0
1,82,0,15
1,79,82,0
1,79,0,15
1,77,82,0
1,77,0,15
1,75,82,0
1,75,0,15
1,74,82,0
1,74,0,15
1,72,82,0
1,72,0,15
1,70,82,0
1,70,0,15
1,67,82,0
1,67,0,15
1,65,82,0
1,65,0,15
1,63,82,0
1,63,0,15
1,62,82,0
1,62,0,15
1,60,82,0
1,60,0,15
1,58,82,0
1,58,0,15
1,60,76,42270
1,60,0,15
1,62,76,0
1,62,0,15
1,64,76,0
1,64,0,15
1,65,76,0
1,65,0,15
1,67,76,0
1,67,0,15
1,69,76,0
1,69,0,15
1,72,76,0
1,72,0,15
1,74,76,0
1,74,0,15
1,76,76,0
1,76,0,15
1,77,76,0
1,77,0,15
1,79,76,0
1,79,0,15
1,81,76,0
1,81,0,15
1,84,76,0
1,84,0,15
1,86,76,0
1,86,0,15
1,88,76,0
1,88,0,15
1,89,76,0
1,89,0,15
1,88,76,0
1,88,0,15
1,86,76,0
1,86,0,15
1,84,76,0
1,84,0,15
1,81,76,0
1,81,0,15
1,79,76,0
1,79,0,15
1,77,76,0
1,77,0,15
1,76,76,0
1,76,0,15
1,74,76,0
1,74,0,15
1,72,76,0
1,72,0,15
1,69,76,0
1,69,0,15
1,67,76,0
1,67,0,15
1,65,76,0
1,65,0,15
1,64,76,0
1,64,0,15
1,62,76,0
1,62,0,15
1,60,76,0
1,60,0,15
1,62,76,15
1,62,0,15
1,64,76,0
1,64,0,15
1,65,76,0
1,65,0,15
1,67,76,0
1,67,0,15
1,69,76,0
1,69,0,15
1,72,76,0
1,72,0,15
1,74,76,0
1,74,0,15
1,76,76,0
1,76,0,15
1,77,76,0
1,77,0,15
1,79,76,0
1,79,0,15
1,81,76,0
1,81,0,15
1,84,76,0
1,84,0,15
1,86,76,0
1,86,0,15
1,88,76,0
1,88,0,15
1,89,76,0
1,89,0,15
1,88,76,0
1,88,0,15
1,86,76,0
1,86,0,15
1,84,76,0
1,84,0,15
1,81,76,0
1,81,0,15
1,79,76,0
1,79,0,15
1,77,76,0
1,77,0,15
1,76,76,0
1,76,0,15
1,74,76,0
1,74,0,15
1,72,76,0
1,72,0,15
1,69,76,0
1,69,0,15
1,67,76,0
1,67,0,15
1,65,76,0
1,65,0,15
1,64,76,0
1,64,0,15
1,62,76,0
1,62,0,15
1,60,76,0
1,60,0,15
1,58,76,30
1,58,0,15
1,60,76,0
1,60,0,15
1,62,76,0
1,62,0,15
1,63,76,0
1,63,0,15
1,65,76,0
1,65,0,15
1,67,76,0
1,67,0,15
1,70,76,0
1,70,0,15
1,72,76,0
1,72,0,15
1,74,76,0
1,74,0,15
1,75,76,0
1,75,0,15
1,77,76,0
1,77,0,15
1,79,76,0
1,79,0,15
1,82,76,0
1,82,0,15
1,84,76,0
1,84,0,15
1,86,76,0
1,86,0,15
1,87,76,0
1,87,0,15
1,86,76,0
1,86,0,15
1,84,76,0
1,84,0,15
1,82,76,0
1,82,0,15
1,79,76,0
1,79,0,15
1,77,76,0
1,77,0,15
1,75,76,0
1,75,0,15
1,74,76,0
1,74,0,15
1,72,76,0
1,72,0,15
1,70,76,0
1,70,0,15
1,67,76,0
1,67,0,15
1,65,76,0
1,65,0,15
1,63,76,0
1,63,0,15
1,62,76,0
1,62,0,15
1,60,76,0
1,60,0,15
1,58,76,0
1,58,0,15
1,60,76,15
1,60,0,15
1,62,76,0
1,62,0,15
1,63,76,0
1,63,0,15
1,65,76,0
1,65,0,15
1,67,76,0
1,67,0,15
1,70,76,0
1,70,0,15
1,72,76,0
1,72,0,15
1,74,76,0
1,74,0,15
1,75,76,0
1,75,0,15
1,77,76,0
1,77,0,15
1,79,76,0
1,79,0,15
1,82,76,0
1,82,0,15
1,84,76,0
1,84,0,15
1,86,76,0
1,86,0,15
1,87,76,0
1,87,0,15
1,86,76,0
1,86,0,15
1,84,76,0
1,84,0,15
1,82,76,0
1,82,0,15
1,79,76,0
1,79,0,15
1,77,76,0
1,77,0,15
1,75,76,0
1,75,0,15
1,74,76,0
1,74,0,15
1,72,76,0
1,72,0,15
1,70,76,0
1,70,0,15
1,67,76,0
1,67,0,15
1,65,76,0
1,65,0,15
1,63,76,0
1,63,0,15
1,62,76,0
1,62,0,15
1,60,76,0
1,60,0,15
1,58,76,0
1,58,0,15
1,60,112,30
1,60,0,15
2,38,100,593
2,38,0,60
2,41,100,0
2,41,0,60
2,45,100,0
2,45,0,60
2,48,100,0
2,48,0,60
2,52,100,0
2,52,0,60
2,48,100,0
2,48,0,60
2,50,100,0
2,50,0,60
2,47,100,0
2,47,0,60
2,48,100,0
2,48,0,60
2,47,100,0
2,47,0,60
2,45,100,0
2,45,0,60
2,43,100,0
2,43,0,60
2,41,100,0
2,41,0,60
2,43,100,0
2,43,0,60
2,40,100,0
2,40,0,60
2,38,100,0
2,38,0,60
2,36,100,0
2,36,0,60
2,38,100,0
2,38,0,60
2,39,100,0
2,39,0,60
2,41,100,0
2,41,0,60
2,43,100,0
2,43,0,60
2,46,100,0
2,46,0,60
2,48,100,0
2,48,0,60
2,50,100,0
2,50,0,60
2,51,100,0
2,51,0,60
2,50,100,0
2,50,0,60
2,48,100,0
2,48,0,60
2,46,100,0
2,46,0,60
2,43,100,0
2,43,0,60
2,41,100,0
2,41,0,60
2,39,100,0
2,39,0,60
2,36,100,0
2,36,0,60
2,38,100,0
2,38,0,60
2,41,100,0
2,41,0,60
2,45,100,0
2,45,0,60
2,48,100,0
2,48,0,60
2,52,100,0
2,52,0,60
2,48,100,0
2,48,0,60
2,50,100,0
2,50,0,60
2,47,100,0
2,47,0,60
2,48,100,0
2,48,0,60
2,47,100,0
2,47,0,60
2,45,100,0
2,45,0,60
2,43,100,0
2,43,0,60
2,41,100,0
2,41,0,60
2,43,100,0
2,43,0,60
2,40,100,0
2,40,0,60
2,38,100,0
2,38,0,60
2,36,100,0
2,36,0,60
2,38,100,0
2,38,0,60
2,39,100,0
2,39,0,60
2,41,100,0
2,41,0,60
2,43,100,0
2,43,0,60
2,46,100,0
2,46,0,60
2,48,100,0
2,48,0,60
2,50,100,0
2,50,0,60
2,51,100,0
2,51,0,60
2,50,100,0
2,50,0,60
2,48,100,0
2,48,0,60
2,46,100,0
2,46,0,60
2,43,100,0
2,43,0,60
2,41,100,0
2,41,0,60
2,39,100,0
2,39,0,60
2,36,100,0
2,36,0,60
2,38,100,0
2,38,0,176
2,45,100,4
2,45,0,51
2,52,100,9
2,52,0,80
2,48,100,10
2,48,0,88
2,50,100,2
2,38,100,60
2,50,0,1
2,50,100,179
2,38,0,20
2,50,0,35
2,36,100,5
2,48,100,60
2,36,0,22
2,48,0,38
2,37,100,0
2,49,100,60
2,37,0,18
2,49,0,37
2,38,100,5
2,38,0,179
2,45,100,1
2,45,0,56
2,52,100,4
2,52,0,81
2,48,100,9
2,50,100,90
2,48,0,1
2,50,0,59
2,38,100,0
2,50,100,180
2,38,0,5
2,36,100,55
2,50,0,2
2,48,100,58
2,36,0,11
2,48,0,49
2,37,100,0
2,49,100,60
2,37,0,6
2,49,0,40
2,38,100,14
2,38,0,176
2,45,100,4
2,45,0,51
2,52,100,9
2,52,0,80
2,48,100,10
2,48,0,88
2,50,100,2
2,38,100,60
2,50,0,1
2,50,100,179
2,38,0,20
2,50,0,35
2,36,100,5
2,48,100,60
2,36,0,22
2,48,0,38
2,37,100,0
2,49,100,60
2,37,0,18
2,49,0,37
2,38,100,5
2,38,0,179
2,45,100,1
2,45,0,56
2,52,100,4
2,52,0,81
2,48,100,9
2,50,100,90
2,48,0,1
2,50,0,59
2,38,100,0
2,50,100,180
2,38,0,5
2,36,100,55
2,50,0,2
2,48,100,58
2,36,0,11
2,48,0,49
2,37,100,0
2,49,100,60
2,37,0,6
2,49,0,40
2,31,100,14
2,31,0,58
2,31,100,152
2,31,0,11
2,31,100,19
2,31,0,46
2,29,100,194
2,29,0,56
2,29,100,154
2,29,0,14
2,29,100,16
2,29,0,37
2,28,100,203
2,28,0,63
2,28,100,147
2,28,0,10
2,28,100,20
2,28,0,33
2,29,100,87
2,29,0,50
2,31,100,10
2,31,0,32
2,33,100,28
2,33,0,58
2,33,100,62
2,33,0,57
2,33,100,33
2,33,0,15
2,33,100,15
2,33,0,25
2,33,100,35
2,33,0,42
2,36,100,18
2,36,0,60
2,38,100,0
2,38,0,31
2,38,100,29
2,38,0,176
2,45,100,4
2,45,0,51
2,52,100,9
2,52,0,80
2,48,100,10
2,48,0,88
2,50,100,2
2,38,100,60
2,50,0,1
2,50,100,179
2,38,0,20
2,50,0,35
2,36,100,5
2,48,100,60
2,36,0,22
2,48,0,38
2,37,100,0
2,49,100,60
2,37,0,18
2,49,0,37
2,38,100,5
2,38,0,179
2,45,100,1
2,45,0,56
2,52,100,4
2,52,0,81
2,48,100,9
2,50,100,90
2,48,0,1
2,50,0,59
2,38,100,0
2,50,100,180
2,38,0,5
2,36,100,55
2,50,0,2
2,48,100,58
2,36,0,11
2,48,0,49
2,37,100,0
2,49,100,60
2,37,0,6
2,49,0,40
2,38,100,14
2,38,0,176
2,45,100,4
2,45,0,51
2,52,100,9
2,52,0,80
2,48,100,10
2,48,0,88
2,50,100,2
2,38,100,60
2,50,0,1
2,50,100,179
2,38,0,20
2,50,0,35
2,36,100,5
2,48,100,60
2,36,0,22
2,48,0,38
2,37,100,0
2,49,100,60
2,37,0,18
2,49,0,37
2,38,100,5
2,38,0,179
2,45,100,1
2,45,0,56
2,52,100,4
2,52,0,81
2,48,100,9
2,50,100,90
2,48,0,1
2,50,0,59
2,38,100,0
2,50,100,180
2,38,0,5
2,36,100,55
2,50,0,2
2,48,100,58
2,36,0,11
2,48,0,49
2,37,100,0
2,49,100,60
2,37,0,6
2,49,0,40
2,31,100,14
2,31,0,58
2,31,100,152
2,31,0,11
2,31,100,19
2,31,0,46
2,29,100,194
2,29,0,56
2,29,100,154
2,29,0,14
2,29,100,16
2,29,0,37
2,28,100,203
2,28,0,63
2,28,100,147
2,28,0,10
2,28,100,20
2,28,0,33
2,29,100,87
2,29,0,50
2,31,100,10
2,31,0,32
2,33,100,28
2,33,0,58
2,33,100,62
2,33,0,57
2,33,100,33
2,33,0,15
2,33,100,15
2,33,0,25
2,33,100,35
2,33,0,42
2,36,100,18
2,36,0,60
2,38,100,0
2,38,0,31
2,38,100,29
2,38,0,176
2,45,100,4
2,45,0,51
2,52,100,9
2,52,0,80
2,48,100,10
2,48,0,88
2,50,100,2
2,38,100,60
2,50,0,1
2,50,100,179
2,38,0,20
2,50,0,35
2,36,100,5
2,48,100,60
2,36,0,22
2,48,0,38
2,37,100,0
2,49,100,60
2,37,0,18
2,49,0,37
2,38,100,5
2,38,0,179
2,45,100,1
2,45,0,56
2,52,100,4
2,52,0,81
2,48,100,9
2,50,100,90
2,48,0,1
2,50,0,59
2,38,100,0
2,50,100,180
2,38,0,5
2,36,100,55
2,50,0,2
2,48,100,58
2,36,0,11
2,48,0,49
2,37,100,0
2,49,100,60
2,37,0,6
2,49,0,40
2,31,100,14
2,31,0,68
2,31,100,22
2,31,0,16
2,29,100,14
2,29,0,75
2,26,100,15
2,26,0,20
2,24,100,10
2,24,0,36
2,24,100,144
2,24,0,55
2,26,100,5
2,26,0,42
2,29,100,18
2,29,0,55
2,31,100,5
2,31,0,46
2,34,100,14
2,31,100,120
2,34,0,5
2,31,0,39
2,29,100,16
2,29,0,55
2,26,100,5
2,26,0,41
2,31,100,19
2,31,0,73
2,31,100,17
2,31,0,16
2,29,100,14
2,29,0,68
2,26,100,22
2,26,0,21
2,24,100,9
2,24,0,35
2,24,100,145
2,24,0,45
2,26,100,15
2,26,0,52
2,29,100,8
2,29,0,46
2,31,100,14
2,31,0,39
2,34,100,21
2,34,0,110
2,31,100,10
2,31,0,34
2,29,100,26
2,29,0,58
2,26,100,2
2,26,0,35
2,31,100,25
2,31,0,68
2,31,100,22
2,31,0,16
2,29,100,14
2,29,0,75
2,26,100,15
2,26,0,20
2,24,100,10
2,24,0,36
2,24,100,144
2,24,0,55
2,26,100,5
2,26,0,42
2,29,100,18
2,29,0,55
2,31,100,5
2,31,0,46
2,34,100,14
2,31,100,120
2,34,0,5
2,31,0,39
2,29,100,16
2,29,0,55
2,26,100,5
2,26,0,41
2,31,100,19
2,31,0,73
2,31,100,17
2,31,0,16
2,29,100,14
2,29,0,68
2,26,100,22
2,26,0,21
2,24,100,9
2,24,0,35
2,24,100,145
2,24,0,45
