track,note,velocity,time
1,50,74,674
1,50,0,42
1,52,75,1
1,57,76,38
1,52,0,2
1,57,0,35
1,54,77,0
1,54,0,321
1,55,62,5
1,55,0,37
1,57,70,0
1,57,0,39
1,59,72,1
1,57,70,41
1,59,0,2
1,57,0,34
1,50,56,0
1,50,0,163
1,52,71,5
1,52,0,33
1,50,68,3
1,50,0,38
1,45,62,0
1,45,0,105
1,50,63,16
1,50,0,41
1,52,68,1
1,57,72,41
1,52,0,1
1,54,62,37
1,57,0,1
1,54,0,314
1,55,60,3
1,55,0,41
1,57,68,1
1,57,0,39
1,59,72,2
1,57,69,38
1,59,0,2
1,57,0,36
1,50,63,2
1,50,0,159
1,52,62,2
1,52,0,215
1,57,49,23
1,66,49,1
1,62,50,1
1,62,0,63
1,61,73,41
1,66,0,50
1,59,75,41
1,57,0,1
1,61,0,1
1,61,81,38
1,59,0,1
1,61,0,36
1,62,68,3
1,59,68,0
1,54,68,90
1,57,67,0
1,59,0,2
1,62,0,1
1,54,0,233
1,59,83,4
1,55,79,0
1,57,0,1
1,57,72,239
1,61,68,0
1,55,0,2
1,59,0,1
1,61,0,106
1,57,0,1
1,59,71,2
1,55,73,1
1,55,0,101
1,57,70,23
1,59,0,2
1,62,72,0
1,61,65,477
1,62,0,3
1,57,0,372
1,59,74,27
1,61,0,1
1,61,81,39
1,59,0,2
1,61,0,37
1,62,69,3
1,59,62,0
1,54,62,239
1,59,0,1
1,57,68,0
1,62,0,1
1,59,70,238
1,57,0,1
1,55,70,0
1,54,0,4
1,55,0,233
1,59,0,0
1,50,68,5483
1,50,0,37
1,52,74,1
1,57,73,39
1,52,0,2
1,54,85,38
1,57,0,2
1,54,0,273
1,61,73,2
1,61,0,41
1,62,73,0
1,62,0,44
1,64,78,2
1,64,0,38
1,61,83,0
1,61,0,381
1,62,75,19
1,62,0,38
1,64,81,2
1,64,0,40
1,66,81,0
1,66,0,39
1,67,78,0
1,69,72,41
1,67,0,3
1,67,73,315
1,69,0,1
1,66,70,39
1,67,0,1
1,66,0,39
1,62,62,0
1,62,0,469
1,73,68,11054
1,66,66,0
1,64,68,1
1,69,73,0
1,66,0,42
1,73,0,1
1,64,0,3
1,69,0,1
1,64,68,85
1,72,68,1
1,67,73,0
1,69,69,1
1,72,0,25
1,67,0,5
1,64,0,2
1,69,0,3
1,62,58,72
1,71,65,0
1,67,69,1
1,69,68,0
1,69,0,80
1,62,0,1
1,67,0,1
1,71,0,0
1,73,98,12
1,69,98,0
1,66,98,0
1,66,0,12
1,73,0,0
1,69,0,1
1,65,92,1
1,64,72,5
1,65,0,3
1,62,73,3
1,64,0,1
1,60,95,2
1,62,0,1
1,59,97,2
1,60,0,1
1,57,101,2
1,59,0,1
1,55,103,1
1,57,0,1
1,55,0,2
1,53,98,0
1,52,96,2
1,53,0,1
1,50,92,2
1,52,0,1
1,48,89,1
1,50,0,2
1,47,84,2
1,48,0,1
1,45,83,3
1,47,0,2
1,43,74,3
1,45,0,2
1,43,0,4
1,78,82,49
1,73,82,0
1,81,82,0
1,83,82,2
1,83,0,1
1,73,0,8
1,78,0,1
1,81,0,2
1,77,83,52
1,69,83,1
1,72,83,0
1,77,0,228
1,72,0,1
1,69,0,0
1,67,76,9
1,71,76,0
1,76,76,0
1,76,0,230
1,71,0,0
1,67,0,0
1,73,98,10
1,69,98,0
1,66,98,0
1,66,0,12
1,73,0,0
1,69,0,1
1,65,92,1
1,64,72,5
1,65,0,3
1,62,73,3
1,64,0,1
1,60,95,2
1,62,0,1
1,59,97,2
1,60,0,1
1,57,101,2
1,59,0,1
1,55,103,1
1,57,0,1
1,55,0,2
1,53,98,0
1,52,96,2
1,53,0,1
1,50,92,2
1,52,0,1
1,48,89,1
1,50,0,2
1,47,84,2
1,48,0,1
1,45,83,3
1,47,0,2
1,43,74,3
1,45,0,2
1,43,0,4
1,78,82,49
1,73,82,0
1,81,82,0
1,83,82,2
1,83,0,1
1,73,0,8
1,78,0,1
1,81,0,2
1,77,83,52
1,69,83,1
1,72,83,0
1,77,0,228
1,72,0,1
1,69,0,0
1,67,76,9
1,71,76,0
1,76,76,0
1,76,0,230
1,71,0,0
1,67,0,0
1,73,98,10
1,69,98,0
1,66,98,0
1,66,0,12
1,73,0,0
1,69,0,1
1,65,92,1
1,64,72,5
1,65,0,3
1,62,73,3
1,64,0,1
1,60,95,2
1,62,0,1
1,59,97,2
1,60,0,1
1,57,101,2
1,59,0,1
1,55,103,1
1,57,0,1
1,55,0,2
1,53,98,0
1,52,96,2
1,53,0,1
1,50,92,2
1,52,0,1
1,48,89,1
1,50,0,2
1,47,84,2
1,48,0,1
1,45,83,3
1,47,0,2
1,43,74,3
1,45,0,2
1,43,0,4
1,78,82,49
1,73,82,0
1,81,82,0
1,83,82,2
1,83,0,1
1,73,0,8
1,78,0,1
1,81,0,2
1,77,83,52
1,69,83,1
1,72,83,0
1,77,0,228
1,72,0,1
1,69,0,0
1,67,76,9
1,71,76,0
1,76,76,0
1,76,0,230
1,71,0,0
1,67,0,0
1,78,117,10
1,74,117,0
1,66,117,0
1,66,0,12
1,78,0,0
1,74,0,1
1,65,92,1
1,64,72,5
1,65,0,3
1,62,73,3
1,64,0,1
1,60,95,2
1,62,0,1
1,59,97,2
1,60,0,1
1,57,101,2
1,59,0,1
1,55,103,1
1,57,0,1
1,55,0,2
1,53,98,0
1,52,96,2
1,53,0,1
1,50,92,2
1,52,0,1
1,48,89,1
1,50,0,2
1,47,84,2
1,48,0,1
1,45,83,3
1,47,0,2
1,43,74,3
1,45,0,2
1,43,0,4
1,78,115,50
1,74,115,0
1,66,115,0
1,66,0,12
1,78,0,0
1,74,0,1
1,65,92,1
1,64,72,5
1,65,0,3
1,62,73,3
1,64,0,1
1,60,95,2
1,62,0,1
1,59,97,2
1,60,0,1
1,57,101,2
1,59,0,1
1,55,103,1
1,57,0,1
1,55,0,2
1,53,98,0
1,52,96,2
1,53,0,1
1,50,92,2
1,52,0,1
1,48,89,1
1,50,0,2
1,47,84,2
1,48,0,1
1,45,83,3
1,47,0,2
1,43,74,3
1,45,0,2
1,43,0,4
1,78,116,50
1,74,116,0
1,66,116,0
1,66,0,12
1,78,0,0
1,74,0,1
1,65,84,1
1,64,72,5
1,65,0,3
1,62,73,3
1,64,0,1
1,60,95,2
1,62,0,1
1,59,97,2
1,60,0,1
1,57,101,2
1,59,0,1
1,55,103,1
1,57,0,1
1,55,0,2
1,53,98,0
1,52,96,2
1,53,0,1
1,50,92,2
1,52,0,1
1,48,89,1
1,50,0,2
1,47,84,2
1,48,0,1
1,45,83,3
1,47,0,2
1,43,74,3
1,45,0,2
1,43,0,4
1,78,121,50
1,74,121,0
1,66,121,0
1,66,0,12
1,78,0,0
1,74,0,1
1,65,92,1
1,64,72,5
1,65,0,3
1,62,73,3
1,64,0,1
1,60,95,2
1,62,0,1
1,59,97,2
1,60,0,1
1,57,101,2
1,59,0,1
1,55,103,1
1,57,0,1
1,55,0,2
1,53,98,0
1,52,96,2
1,53,0,1
1,50,92,2
1,52,0,1
1,48,89,1
1,50,0,2
1,47,84,2
1,48,0,1
1,45,83,3
1,47,0,2
1,43,74,3
1,45,0,2
1,43,0,4
1,76,85,1
1,73,86,0
1,69,72,0
1,69,0,241
1,73,0,0
1,76,0,0
2,38,99,716
2,38,0,179
2,38,92,20
2,38,0,12
2,38,87,31
2,38,0,216
2,31,86,21
2,31,0,180
2,31,95,19
2,31,0,19
2,33,98,24
2,33,0,188
2,33,89,10
2,33,0,39
2,38,84,3
2,38,0,177
2,38,97,19
2,38,0,17
2,38,92,27
2,38,0,182
2,38,73,11
2,38,0,42
2,31,89,2
2,31,0,173
2,31,78,11
2,31,0,7
2,31,86,8
2,31,0,21
2,33,92,21
2,33,0,205
2,38,89,36
2,38,0,158
2,38,86,39
2,38,0,13
2,38,87,28
2,38,0,231
2,35,84,9
2,35,0,176
2,35,83,22
2,35,0,13
2,35,87,29
2,35,0,173
2,33,92,23
2,33,0,42
2,31,86,3
2,31,0,133
2,33,86,25
2,33,0,18
2,35,89,22
2,35,0,18
2,38,77,25
2,38,0,132
2,45,77,26
2,45,0,22
2,38,73,16
2,38,0,22
2,40,81,22
2,40,0,151
2,35,85,6
2,35,0,21
2,34,79,19
2,34,0,18
2,33,86,21
2,33,0,34
2,33,65,7
2,33,0,11
2,33,66,10
2,33,0,10
2,33,65,9
2,33,0,10
2,33,73,11
2,33,0,9
2,33,84,11
2,33,0,29
2,33,91,13
2,33,0,7
2,33,74,11
2,33,0,17
2,35,86,4
2,35,0,15
2,33,70,3
2,33,0,20
2,38,89,3
2,38,0,175
2,38,86,23
2,38,0,12
2,38,83,27
2,38,0,163
2,30,92,1
2,30,0,17
2,33,91,22
2,33,0,21
2,35,89,21
2,35,0,158
2,35,83,41
2,35,0,13
2,35,82,24
2,35,0,143
2,35,84,18
2,35,0,15
2,33,83,24
2,33,0,18
2,31,92,23
2,31,0,155
2,33,84,4
2,33,0,21
2,35,86,18
2,35,0,22
2,38,74,19
2,38,0,155
2,45,74,5
2,45,0,23
2,38,76,15
2,38,0,24
2,40,87,18
2,40,0,154
2,42,78,8
2,42,0,23
2,43,72,13
2,43,0,38
2,45,75,2
2,45,0,12
2,45,70,7
2,45,0,10
2,45,64,8
2,45,0,12
2,45,68,9
2,45,0,11
2,45,70,10
2,45,0,10
2,45,68,10
2,45,0,9
2,45,65,14
2,45,0,6
2,45,75,14
2,45,0,17
2,33,84,2
2,33,0,12
2,33,80,7
2,33,0,18
2,35,72,3
2,35,0,17
2,33,68,3
2,33,0,19
2,38,80,4
2,38,0,116
2,33,81,45
2,33,0,34
2,35,83,6
2,35,0,37
2,38,78,2
2,38,0,119
2,28,85,40
2,30,94,42
2,28,0,4
2,30,0,33
2,31,91,0
2,31,0,116
2,38,101,8
2,38,0,74
2,35,77,1
2,40,89,40
2,35,0,1
2,40,0,150
2,35,92,12
2,35,0,37
2,34,94,3
2,34,0,37
2,33,86,3
2,33,0,155
2,40,89,1
2,40,0,15
2,40,84,1
2,40,0,24
2,33,75,4
2,40,104,80
2,40,0,1
2,33,0,23
2,45,78,13
2,45,0,21
2,40,75,3
2,40,0,14
2,35,57,24
2,35,0,9
2,33,70,7
2,33,0,40
2,38,80,4
2,38,0,137
2,33,97,23
2,33,0,23
2,31,87,16
2,31,0,20
2,30,90,23
2,30,0,149
2,28,83,40
2,30,92,10
2,28,0,3
2,30,0,31
2,31,89,6
2,31,0,96
2,38,83,25
2,35,74,77
2,38,0,5
2,35,0,35
2,40,84,4
2,40,0,197
2,30,104,40
2,30,0,154
2,37,79,1
2,37,0,14
2,37,83,0
2,37,0,27
2,30,90,5
2,30,0,135
2,35,83,24
2,35,0,36
2,37,68,6
2,37,0,35
2,31,78,1
2,31,0,118
2,38,92,0
2,38,0,78
2,35,81,2
2,35,0,39
2,40,77,2
2,40,0,38
2,47,85,2
2,47,0,39
2,46,84,0
2,46,0,40
2,45,89,1
2,45,0,91
2,35,78,17
2,35,0,10
2,38,81,6
2,38,0,113
2,33,101,7
2,33,0,20
2,38,95,1
2,38,0,15
2,33,95,25
2,33,0,13
2,31,91,1
2,31,0,38
2,30,107,2
2,30,0,114
2,30,100,9
2,30,0,47
2,28,75,22
2,28,0,14
2,30,88,0
2,31,84,39
2,30,0,2
2,31,0,112
2,38,101,3
2,38,0,85
2,35,75,0
2,35,0,39
2,40,84,2
2,42,85,39
2,40,0,3
2,42,0,37
2,43,90,1
2,43,0,41
2,45,105,1
2,45,0,22
2,38,91,92
2,38,0,182
2,38,72,17
2,38,0,15
2,38,75,26
2,38,0,235
2,43,68,5
2,43,0,178
2,43,68,20
2,43,0,41
2,45,65,0
2,45,0,29
2,33,70,51
2,33,0,161
2,38,65,2
2,38,0,176
2,38,72,17
2,38,0,15
2,38,70,28
2,38,0,160
2,45,65,0
2,45,0,24
2,46,72,15
2,46,0,36
2,47,72,7
2,47,0,180
2,47,78,20
2,47,0,20
2,47,77,20
2,47,0,137
2,42,75,23
2,42,0,15
2,45,71,23
2,45,0,37
2,43,68,4
2,43,0,153
2,33,70,5
2,33,0,29
2,35,63,11
2,35,0,35
2,38,75,8
2,38,0,160
2,45,52,0
2,45,0,22
2,38,73,18
2,38,0,39
2,40,73,1
2,40,0,60
2,40,76,19
2,40,0,75
2,52,77,4
2,52,0,14
2,40,76,8
2,40,0,14
2,47,79,6
2,47,0,19
2,45,70,19
2,45,0,11
2,45,68,8
2,45,0,130
2,33,75,39
2,33,0,8
2,33,72,6
2,33,0,36
2,38,78,2
2,38,0,173
2,38,87,26
2,38,0,21
2,38,89,23
2,38,0,205
2,35,75,31
2,35,0,181
2,35,80,20
2,35,0,17
2,35,89,26
2,35,0,140
2,35,79,14
2,35,0,19
2,33,73,23
2,33,0,18
2,31,85,26
2,31,0,141
2,33,81,15
2,33,0,19
2,35,78,22
2,35,0,25
2,38,81,16
2,45,70,121
2,38,0,1
2,38,75,78
2,45,0,3
2,40,74,37
2,38,0,2
2,40,0,161
2,35,72,2
2,35,0,35
2,34,73,1
2,33,66,39
2,34,0,4
2,33,0,10
2,33,71,7
2,33,0,10
2,33,63,7
2,33,0,10
2,33,66,7
2,33,0,11
2,33,68,10
2,33,0,9
2,33,68,10
2,33,0,9
2,33,81,14
2,33,0,9
2,33,75,10
2,33,0,14
2,35,70,7
2,36,70,18
2,35,0,4
2,36,0,15
2,37,65,1
2,37,0,42
2,38,72,1
2,38,80,2
2,38,0,109
2,38,0,7
2,33,81,45
2,33,0,34
2,35,83,6
2,35,0,37
2,38,78,2
2,38,0,119
2,28,85,40
2,30,94,42
2,28,0,4
2,30,0,33
2,31,91,0
2,31,0,116
2,38,101,8
2,38,0,74
2,35,77,1
2,40,89,40
2,35,0,1
2,40,0,150
2,35,92,12
2,35,0,37
2,34,94,3
2,34,0,37
2,33,86,3
2,33,0,155
2,40,89,1
2,40,0,15
2,40,84,1
2,40,0,24
2,33,75,4
2,40,104,80
2,40,0,1
2,33,0,23
2,45,78,13
2,45,0,21
2,40,75,3
2,40,0,14
2,35,57,24
2,35,0,9
2,33,70,7
2,33,0,40
2,38,80,4
2,38,0,137
2,33,97,23
2,33,0,23
2,31,87,16
2,31,0,20
2,30,90,23
2,30,0,149
2,28,83,40
2,30,92,10
2,28,0,3
2,30,0,31
2,31,89,6
2,31,0,96
2,38,83,25
2,35,74,77
2,38,0,5
2,35,0,35
2,40,84,4
2,40,0,197
2,30,104,40
2,30,0,154
2,37,79,1
2,37,0,14
2,37,83,0
2,37,0,27
2,30,90,5
2,30,0,135
2,35,83,24
2,35,0,36
2,37,68,6
2,37,0,35
2,31,78,1
2,31,0,118
2,38,92,0
2,38,0,78
2,35,81,2
2,35,0,39
2,40,77,2
2,40,0,38
2,47,85,2
2,47,0,39
2,46,84,0
2,46,0,40
2,45,89,1
2,45,0,91
2,35,78,17
2,35,0,10
2,38,81,6
2,38,0,113
2,33,101,7
2,33,0,20
2,38,95,1
2,38,0,15
2,33,95,25
2,33,0,13
2,31,91,1
2,31,0,38
2,30,107,2
2,30,0,114
2,30,100,9
2,30,0,47
2,28,75,22
2,28,0,14
2,30,88,0
2,31,84,39
2,30,0,2
2,31,0,112
2,38,101,3
2,38,0,85
2,35,75,0
2,35,0,39
2,40,84,2
2,42,85,39
2,40,0,3
2,42,0,37
2,43,90,1
2,43,0,41
2,45,105,1
2,45,0,22
2,38,91,92
2,38,0,182
2,38,72,17
2,38,0,15
2,38,75,26
2,38,0,235
2,31,87,5
2,31,0,185
2,31,83,16
2,31,0,34
2,33,72,5
2,33,0,200
2,38,83,39
2,38,0,177
2,38,86,22
2,38,0,20
2,38,81,25
2,38,0,207
2,43,79,29
2,43,0,204
2,45,79,38
2,45,0,34
2,50,76,50
2,50,0,17
2,51,81,4
2,51,0,17
2,52,75,4
2,52,0,22
2,40,70,49
2,40,0,20
2,39,62,2
2,39,0,18
