track,note,velocity,time
1,70,98,34560
1,72,87,192
1,73,98,184
1,73,98,84
1,73,98,48
1,73,98,120
1,75,98,16
1,73,98,12
1,72,98,4
1,65,98,384
1,65,98,168
1,68,98,8
1,70,98,4
1,70,98,60
1,70,98,44
1,70,98,64
1,72,98,8
1,70,97,288
1,68,98,0
1,61,98,20
1,70,98,288
1,72,91,8
1,73,98,40
1,73,98,44
1,73,98,48
1,73,98,84
1,75,98,4
1,73,98,288
1,72,98,24
1,65,98,384
1,65,98,108
1,68,98,8
1,70,98,20
1,70,98,56
1,70,98,48
1,70,98,84
1,72,98,44
1,70,98,288
1,68,98,8
1,61,98,8
1,63,98,104
1,65,98,8
1,66,98,84
1,66,98,64
1,66,98,72
1,65,98,36
1,63,98,8
1,65,98,32
1,66,98,4
1,68,98,24
1,68,98,48
1,68,98,76
1,66,98,32
1,65,98,96
1,66,98,24
1,68,98,40
1,70,98,32
1,70,98,44
1,70,98,60
1,68,98,32
1,66,98,0
1,68,98,20
1,70,98,32
1,72,98,16
1,72,98,64
1,73,98,32
1,75,98,32
1,77,98,596
1,75,98,4
1,75,98,84
1,73,98,20
1,73,98,76
1,65,98,8
1,65,89,96
1,77,98,76
1,75,98,32
1,75,98,64
1,73,98,44
1,73,98,108
1,66,98,20
1,66,98,76
1,77,98,156
1,77,98,28
1,77,98,48
1,75,98,32
1,75,98,96
1,70,98,20
1,70,98,28
1,70,98,92
1,73,98,28
1,77,98,16
1,77,98,56
1,77,98,36
1,77,98,44
1,75,98,20
1,77,98,44
1,75,98,28
1,75,98,64
1,73,98,16
1,73,98,104
1,65,98,0
1,65,91,84
1,77,98,64
1,75,98,52
1,75,98,64
1,73,98,16
1,73,98,88
1,66,98,12
1,66,98,88
1,77,98,116
1,77,98,84
1,77,98,88
1,75,98,20
1,75,98,96
1,70,93,56
1,70,98,60
1,70,98,100
1,73,98,40
1,77,98,40
1,77,98,80
1,75,98,4
1,73,98,4
1,70,98,5332
1,72,98,192
1,73,98,20
1,73,98,52
1,73,98,52
1,73,98,80
1,75,98,24
1,73,98,32
1,72,98,20
1,65,98,384
1,65,98,100
1,68,98,12
1,70,98,52
1,70,98,44
1,70,98,40
1,70,98,148
1,72,98,56
1,70,98,288
1,68,98,88
1,61,98,28
1,70,98,212
1,72,98,16
1,73,98,44
1,73,98,52
1,73,98,36
1,73,98,68
1,75,98,12
1,73,98,8
1,72,98,20
1,65,98,0
1,65,98,128
1,68,98,20
1,70,98,56
1,70,98,44
1,70,98,40
1,70,98,84
1,72,98,24
1,70,98,20
1,68,98,96
1,61,98,24
1,63,98,120
1,65,91,192
1,66,98,44
1,66,98,80
1,66,98,60
1,65,85,24
1,63,98,8
1,65,98,16
1,66,98,24
1,68,98,8
1,68,98,36
1,68,98,56
1,66,98,28
1,65,98,12
1,66,98,40
1,68,98,24
1,70,98,24
1,70,98,60
1,70,98,68
1,68,98,28
1,66,98,12
1,68,98,480
1,70,91,160
1,72,95,28
1,72,98,40
1,72,98,68
1,73,98,4
1,75,98,16
1,77,98,396
1,75,98,384
1,75,98,88
1,73,98,20
1,73,98,116
1,65,98,8
1,65,98,104
1,77,98,68
1,75,98,32
1,75,98,60
1,73,98,20
1,73,98,100
1,66,98,8
1,66,98,72
1,77,95,92
1,77,98,56
1,77,98,44
1,75,98,24
1,75,98,88
1,70,98,28
1,70,98,40
1,70,98,124
1,73,98,16
1,77,98,12
1,77,95,52
1,77,98,60
1,77,73,32
1,75,98,96
1,77,98,84
1,75,98,40
1,75,98,68
1,73,98,60
1,73,98,96
1,65,98,192
1,65,98,40
1,77,98,72
1,75,98,28
1,75,98,76
1,73,98,40
1,73,98,104
1,66,98,24
1,66,98,48
1,77,98,156
1,77,98,56
1,77,98,60
1,75,98,12
1,75,98,112
1,70,98,28
1,70,98,44
1,70,98,108
1,73,98,52
1,77,98,52
1,77,98,56
1,75,98,384
1,73,95,40
1,77,98,10988
1,75,98,384
1,75,98,64
1,73,98,4
1,73,98,100
1,65,95,16
1,65,89,76
1,77,98,8
1,75,98,28
1,75,98,72
1,73,98,192
1,73,98,92
1,66,71,12
1,66,83,24
1,77,98,148
1,77,98,52
1,77,98,60
1,75,98,28
1,75,98,84
1,70,98,28
1,70,98,40
1,70,98,112
1,73,98,40
1,77,98,32
1,77,98,56
1,77,98,40
1,77,95,44
1,75,98,20
1,77,98,44
1,75,98,32
1,75,98,80
1,73,98,24
1,73,98,92
1,65,98,4
1,65,98,48
1,77,98,480
1,75,98,24
1,75,98,112
1,73,98,4
1,73,98,96
1,66,91,4
1,66,98,48
1,77,95,48
1,77,95,64
1,77,95,84
1,75,97,192
1,75,98,52
1,70,91,28
1,70,98,28
1,70,98,88
1,73,98,28
1,77,98,4
1,77,98,64
1,75,98,576
1,73,98,20
2,39,108,47232
2,37,110,348
2,38,97,0
2,39,106,96
2,39,103,32
2,29,104,484
2,39,104,392
2,40,97,4
2,29,105,96
2,29,99,12
2,30,108,508
2,40,109,400
2,29,105,96
2,30,121,16
2,30,106,32
2,32,121,520
2,30,108,408
2,31,99,12
2,32,121,16
2,32,117,32
2,32,117,516
2,32,102,584
2,32,102,104
2,37,106,44
2,35,98,304
2,36,96,12
2,37,110,16
2,37,110,32
2,30,110,564
2,40,102,396
2,29,100,96
2,30,102,84
2,30,104,32
2,39,106,536
2,37,108,412
2,38,95,96
2,39,104,20
2,39,106,20
2,32,117,528
2,30,108,452
2,31,102,96
2,32,108,24
2,32,103,28
2,37,117,600
2,35,102,400
2,36,100,96
2,37,106,80
2,37,103,24
2,30,106,520
2,40,97,492
2,29,104,96
2,30,106,80
2,30,102,20
2,39,104,536
2,37,103,432
2,38,95,4
2,39,106,16
2,39,104,20
2,32,117,532
2,30,102,408
2,31,99,12
2,32,102,0
2,32,92,16
2,34,103,500
2,32,96,388
2,33,92,4
2,34,104,24
2,34,102,16
2,29,100,452
2,39,93,388
2,40,93,0
2,29,96,4
2,29,87,20
2,30,104,448
2,40,92,396
2,29,95,12
2,30,98,96
2,30,101,20
2,37,98,516
2,35,88,352
2,36,91,96
2,37,103,88
2,37,100,16
2,34,103,444
2,32,102,376
2,33,95,0
2,34,97,4
2,34,91,16
2,29,99,444
2,39,103,280
2,40,95,4
2,29,97,8
2,29,88,20
2,30,103,488
2,40,96,384
2,29,95,4
2,30,104,96
2,30,101,24
2,37,108,532
2,35,92,256
2,36,90,8
2,37,102,8
2,37,98,16
2,34,97,456
2,32,103,340
2,33,96,96
2,34,98,80
2,34,101,20
2,29,99,468
2,39,100,300
2,40,94,4
2,29,99,4
2,29,99,4
2,30,110,460
2,40,98,380
2,29,99,4
2,30,110,96
2,30,98,24
2,37,106,460
2,35,98,332
2,36,95,4
2,37,106,16
2,37,103,16
2,39,113,520
2,37,106,380
2,38,94,8
2,39,103,20
2,39,103,20
2,29,100,496
2,39,91,392
2,40,97,0
2,29,99,0
2,29,99,12
2,30,102,464
2,40,102,316
2,29,100,96
2,30,113,92
2,30,90,8
2,32,113,464
2,30,102,368
2,31,100,4
2,32,102,16
2,32,106,28
2,32,108,480
2,32,101,556
2,32,104,120
2,37,106,32
2,35,104,280
2,36,99,12
2,37,113,12
2,37,102,16
2,30,121,460
2,40,97,344
2,29,98,0
2,30,108,8
2,30,100,20
2,39,117,424
2,37,108,316
2,38,95,0
2,39,103,24
2,39,104,32
2,32,117,408
2,30,104,356
2,31,100,96
2,32,104,0
2,32,106,36
2,37,110,444
2,35,100,328
2,36,96,16
2,37,121,28
2,37,106,28
2,30,121,460
2,40,104,376
2,29,98,0
2,30,113,12
2,30,103,20
2,39,113,484
2,37,108,312
2,38,96,8
2,39,106,32
2,39,106,24
2,32,117,476
2,30,103,320
2,31,102,0
2,32,103,8
2,32,106,24
2,34,117,472
2,32,110,352
2,33,96,96
2,34,100,88
2,34,100,16
2,29,104,464
2,39,102,332
2,40,94,96
2,29,96,4
2,29,94,28
2,30,110,480
2,40,99,372
2,29,104,96
2,30,101,92
2,30,106,24
2,37,117,448
2,35,98,360
2,36,99,96
2,37,103,80
2,37,106,20
2,34,108,460
2,32,108,372
2,33,95,0
2,34,103,12
2,34,102,24
2,29,107,448
2,39,108,312
2,40,98,96
2,29,100,8
2,29,102,8
2,39,113,428
2,37,106,332
2,38,95,0
2,39,103,0
2,39,106,8
2,32,110,412
2,30,108,360
2,31,104,0
2,32,102,12
2,32,106,16
2,37,117,436
2,35,107,356
2,36,99,96
2,37,103,84
2,37,104,24
2,30,113,464
2,40,107,340
2,29,99,96
2,30,103,84
2,30,104,28
2,39,113,392
2,37,113,320
2,38,95,0
2,39,106,16
2,39,106,16
2,32,110,368
2,30,113,320
2,31,104,96
2,32,106,16
2,32,110,20
2,37,125,452
2,35,107,344
2,36,99,96
2,37,113,16
2,37,110,24
2,30,117,464
2,40,109,288
2,29,98,0
2,30,113,0
2,30,108,24
2,39,117,408
2,37,108,312
2,38,97,96
2,39,103,16
2,39,106,32
2,32,117,440
2,30,110,324
2,31,104,96
2,32,108,28
2,32,108,28
2,37,110,432
2,35,104,324
2,36,98,96
2,37,104,76
2,37,106,28
2,37,108,480
2,35,100,332
2,36,97,4
2,37,108,24
2,37,102,32
2,37,94,480
3,41,39,1536
3,53,29,0
3,49,67,72
3,61,64,0
3,63,61,0
3,51,67,0
3,53,54,4
3,65,56,0
3,60,52,40
3,48,51,0
3,44,61,16
3,56,56,0
3,58,56,0
3,46,55,0
3,48,52,768
3,60,58,0
3,61,65,372
3,49,56,0
3,56,53,12
3,44,53,0
3,61,53,136
3,49,63,0
3,63,64,24
3,51,76,0
3,53,60,0
3,65,63,0
3,48,45,28
3,60,55,0
3,56,74,4
3,44,70,0
3,58,61,384
3,46,55,0
3,48,62,760
3,60,58,0
3,49,64,4
3,61,66,0
3,56,53,4
3,44,55,0
3,49,49,12376
3,61,48,0
3,51,67,4
3,63,60,0
3,65,55,384
3,53,51,0
3,60,54,0
3,48,56,0
3,44,59,40
3,56,55,0
3,46,49,4
3,58,55,0
3,48,51,760
3,60,54,0
3,49,58,336
3,61,63,0
3,56,34,28
3,44,44,0
3,54,29,3972
3,42,41,0
3,37,49,0
3,49,37,0
3,42,68,3176
3,54,55,0
3,56,60,4
3,44,54,0
3,58,60,0
3,60,66,1516
3,61,70,1516
3,63,71,0
3,65,75,2304
3,63,76,372
3,61,57,552
3,61,53,11752
3,49,61,0
3,51,71,8
3,63,59,0
3,53,62,4
3,65,58,0
3,60,58,380
3,48,54,0
3,56,73,16
3,44,71,0
3,46,71,8
3,58,66,0
3,60,64,4
3,48,68,0
3,49,76,384
3,61,67,0
3,56,70,8
3,44,57,0
3,42,63,3436
3,54,50,0
3,49,50,156
3,37,47,0
3,54,51,3168
3,42,56,0
3,44,40,8
3,56,55,0
3,58,65,276
3,60,65,0
3,61,78,1536
3,63,74,4
3,65,77,2304
3,63,78,360
3,61,63,200
4,85,127,4224
4,73,127,0
4,85,127,128
4,73,127,0
4,87,127,4
4,75,127,0
4,89,127,384
4,77,127,0
4,72,127,4
4,84,127,0
4,80,127,232
4,68,127,0
4,82,127,384
4,70,127,0
4,72,127,32
4,84,127,0
4,73,127,384
4,85,127,0
4,80,127,4
4,68,127,0
4,85,127,504
4,73,127,0
4,87,127,4
4,75,127,0
4,89,127,4
4,77,127,0
4,84,127,4
4,72,127,0
4,80,127,256
4,68,127,0
4,82,127,0
4,70,127,0
4,84,127,40
4,72,127,0
4,85,127,12
4,73,127,0
4,80,127,60
4,68,127,0
4,65,127,76
4,68,127,96
4,73,127,80
4,77,127,92
4,80,127,72
4,85,127,16
4,89,127,0
4,70,127,36
4,92,127,0
4,72,127,160
4,73,127,176
4,73,127,48
4,73,127,48
4,73,127,84
4,75,127,192
4,73,127,284
4,72,127,8
4,65,127,384
4,65,127,88
4,68,127,8
4,70,127,192
4,70,127,48
4,70,127,48
4,70,127,112
4,72,127,0
4,70,127,288
4,68,127,64
4,61,127,0
4,70,127,156
4,72,127,12
4,73,127,0
4,73,127,40
4,73,127,40
4,73,127,84
4,75,127,12
4,73,127,16
4,72,127,0
4,65,127,384
4,65,127,112
4,68,127,192
4,70,127,188
4,70,127,48
4,70,127,48
4,70,127,120
4,72,127,12
4,70,127,288
4,68,127,92
4,61,127,24
4,73,127,168
4,85,127,0
4,87,127,768
4,75,127,0
4,89,127,0
4,77,127,0
4,72,127,28
4,84,127,0
4,80,127,184
4,68,127,0
4,82,127,76
4,70,127,0
4,72,127,88
4,84,127,0
4,73,127,4
4,85,127,0
4,80,127,12
4,68,127,0
4,65,127,40
4,68,127,96
4,73,127,80
4,77,127,92
4,80,127,12
4,85,127,16
4,89,127,24
4,92,127,48
4,77,127,20296
4,80,127,28
4,85,127,0
4,89,127,0
4,77,127,540
4,80,127,40
4,85,127,0
4,89,127,0
4,82,127,56
4,78,127,36
4,85,127,0
4,90,127,0
4,78,127,376
4,82,127,0
4,85,127,68
4,90,127,28
4,78,127,48
4,82,127,56
4,87,127,40
4,90,127,0
4,82,127,660
4,78,127,16
4,87,127,12
4,90,127,0
4,84,127,148
4,92,127,12
4,80,127,4
4,87,127,12
4,84,127,568
4,87,127,0
4,80,127,0
4,92,127,0
4,77,127,132
4,89,127,0
4,80,127,0
4,85,127,8
4,80,127,620
4,85,127,0
4,77,127,0
4,89,127,0
4,78,127,104
4,82,127,0
4,90,127,0
4,85,127,0
4,82,127,536
4,78,127,0
4,90,127,0
4,85,127,0
4,82,127,144
4,78,127,0
4,90,127,0
4,87,127,0
4,75,127,208
4,82,127,32
4,78,127,0
4,87,127,0
4,80,127,140
4,92,127,0
4,84,127,0
4,87,127,8
4,85,127,840
4,73,127,0
4,87,127,4
4,75,127,0
4,77,127,4
4,89,127,0
4,72,127,68
4,84,127,0
4,68,127,124
4,80,127,0
4,70,127,68
4,82,127,0
4,72,127,16
4,84,127,0
4,85,127,4
4,73,127,0
4,68,127,384
4,80,127,0
4,65,127,4
4,68,127,96
4,73,127,88
4,77,127,92
4,80,127,84
4,85,127,0
4,89,127,20
4,92,127,48
4,89,127,20324
4,80,127,0
4,77,127,0
4,85,127,12
4,80,127,432
4,77,127,0
4,85,127,0
4,89,127,0
4,78,127,76
4,90,127,0
4,82,127,0
4,85,127,12
4,78,127,296
4,82,127,56
4,85,127,24
4,90,127,16
4,78,127,72
4,82,127,24
4,87,127,16
4,90,127,0
4,75,127,136
4,78,127,68
4,82,127,8
4,87,127,0
4,84,127,20
4,80,127,0
4,87,127,0
4,92,127,0
4,77,127,1088
4,80,127,0
4,85,127,0
4,89,127,0
4,77,127,180
4,80,127,0
4,85,127,64
4,89,127,32
4,78,127,92
4,82,127,20
4,85,127,20
4,90,127,0
4,82,127,112
4,78,127,0
4,85,127,0
4,90,127,0
4,75,127,8
4,82,127,96
4,78,127,0
4,87,127,0
4,75,127,72
4,82,127,16
4,78,127,0
4,87,127,0
4,84,127,48
4,80,127,0
4,87,127,0
4,92,127,0
4,77,127,12636
4,80,127,36
4,85,127,0
4,89,127,0
4,80,127,256
4,89,127,12
4,77,127,0
4,85,127,0
4,82,127,32
4,90,127,0
4,85,127,0
4,78,127,0
4,82,127,308
4,78,127,24
4,85,127,0
4,90,127,0
4,78,127,96
4,82,127,20
4,90,127,4
4,87,127,0
4,75,127,264
4,78,127,24
4,82,127,0
4,87,127,0
4,80,127,112
4,84,127,20
4,87,127,8
4,92,127,0
4,85,127,972
4,80,127,0
4,77,127,0
4,89,127,0
4,80,127,308
4,77,127,28
4,85,127,0
4,89,127,0
4,78,127,92
4,82,127,20
4,90,127,8
4,85,127,12
4,78,127,376
4,82,127,0
4,85,127,0
4,90,127,0
4,75,127,20
4,78,127,96
4,82,127,0
4,87,127,0
4,75,127,152
4,82,127,8
4,78,127,0
4,87,127,0
4,80,127,120
4,84,127,0
4,87,127,0
4,92,127,0
4,77,127,576
4,80,127,36
4,85,127,0
4,89,127,0
4,80,127,2120
4,77,127,40
4,85,127,0
4,89,127,0
5,77,127,4
