track,note,velocity,time
1,36,113,9024
1,36,113,100
1,36,113,208
1,36,113,212
1,36,113,208
1,36,113,178
1,36,113,184
1,36,113,196
1,36,113,208
1,36,113,198
1,36,113,206
1,36,113,212
1,36,113,234
1,36,113,212
1,36,113,218
1,36,113,220
1,36,113,238
1,36,113,230
1,36,107,218
1,36,110,220
1,36,110,220
1,36,110,206
1,36,110,186
1,36,110,206
1,36,110,194
1,36,110,184
1,36,107,162
1,36,110,210
1,36,107,206
1,36,110,184
1,36,110,172
1,36,110,184
1,36,110,182
1,36,110,166
1,36,107,148
1,36,110,174
1,36,113,192
1,36,110,178
1,36,110,176
1,36,110,192
1,36,107,202
1,36,107,176
1,36,107,168
1,36,110,214
1,36,110,216
1,36,110,204
1,36,110,172
1,36,107,190
1,36,104,88
1,36,113,30
1,36,110,200
1,36,110,34
1,36,113,8
1,36,113,168
1,36,113,182
1,36,113,150
1,36,113,148
1,36,113,154
1,36,113,170
1,36,101,160
1,36,113,136
1,36,113,168
1,36,110,162
1,36,110,160
1,36,110,186
1,36,110,176
1,36,110,180
1,36,113,106
1,36,107,42
1,36,113,88
1,36,113,162
1,36,113,188
1,36,110,180
1,36,110,184
1,36,113,178
1,36,113,194
1,36,110,198
1,36,113,202
1,36,107,190
1,36,107,216
1,36,110,196
1,36,110,204
1,36,107,188
1,36,110,198
1,36,107,146
1,36,110,64
1,36,113,94
1,36,110,184
1,36,113,198
1,36,113,192
1,36,110,96
1,36,113,160
1,36,107,218
1,36,110,220
1,36,110,220
1,36,110,206
1,36,110,186
1,36,110,206
1,36,110,194
1,36,110,184
1,36,107,162
1,36,110,210
1,36,107,206
1,36,110,184
1,36,110,172
1,36,110,184
1,36,110,182
1,36,110,166
1,36,107,148
1,36,110,174
1,36,113,192
1,36,110,178
1,36,110,176
1,36,110,192
1,36,107,202
1,36,107,176
1,36,107,168
1,36,110,214
1,36,110,216
1,36,110,204
1,36,110,172
1,36,107,190
1,36,104,88
1,36,113,30
1,36,110,200
1,36,110,34
1,36,116,8
1,36,116,186
1,36,116,166
1,36,113,164
1,36,110,166
1,36,113,196
1,36,113,172
1,36,113,176
1,36,113,140
1,36,107,218
1,36,110,220
1,36,110,220
1,36,110,206
1,36,110,186
1,36,110,206
1,36,110,194
1,36,110,184
1,36,107,162
1,36,110,210
1,36,107,206
1,36,110,184
1,36,110,172
1,36,110,184
1,36,110,182
1,36,110,166
1,36,107,148
1,36,110,174
1,36,113,192
1,36,110,178
1,36,110,176
1,36,110,192
1,36,107,202
1,36,107,176
1,36,107,168
1,36,110,214
1,36,110,216
1,36,110,204
1,36,110,172
1,36,107,190
1,36,104,88
1,36,113,30
1,36,110,200
1,36,110,34
1,36,113,8
1,36,113,168
1,36,113,182
1,36,113,150
1,36,113,148
1,36,113,154
1,36,113,170
1,36,101,160
1,36,113,136
1,36,113,168
1,36,110,162
1,36,110,160
1,36,110,186
1,36,110,176
1,36,110,180
1,36,113,106
1,36,107,42
1,36,113,88
1,36,113,162
1,36,113,188
1,36,110,180
1,36,110,184
1,36,113,178
1,36,113,194
1,36,110,198
1,36,113,202
1,36,107,190
1,36,107,216
1,36,110,196
1,36,110,204
1,36,107,188
1,36,110,198
1,36,107,146
1,36,110,64
1,36,113,94
1,36,110,184
1,36,113,198
1,36,113,192
1,36,110,96
1,36,113,160
1,36,107,218
1,36,110,220
1,36,110,220
1,36,110,206
1,36,110,186
1,36,110,206
1,36,110,194
1,36,110,184
1,36,107,162
1,36,110,210
1,36,107,206
1,36,110,184
1,36,110,172
1,36,110,184
1,36,110,182
1,36,110,166
1,36,107,148
1,36,110,174
1,36,113,192
1,36,110,178
1,36,110,176
1,36,110,192
1,36,107,202
1,36,107,176
1,36,107,168
1,36,110,214
1,36,110,216
1,36,110,204
1,36,110,172
1,36,107,190
1,36,104,88
1,36,113,30
1,36,110,200
1,36,110,34
1,36,106,8
1,36,100,218
1,36,103,220
1,36,103,220
1,36,103,206
1,36,103,186
1,36,103,206
1,36,103,194
1,36,103,184
1,36,100,162
1,36,103,210
1,36,100,206
1,36,103,184
1,36,103,172
1,36,103,184
1,36,103,182
1,36,103,166
1,36,100,148
1,36,103,174
1,36,106,192
1,36,103,178
1,36,103,176
1,36,103,192
1,36,100,202
1,36,100,176
1,36,100,168
1,36,103,214
1,36,103,216
1,36,103,204
1,36,103,172
1,36,100,190
1,36,97,88
1,36,106,30
1,36,103,200
1,36,103,34
1,36,113,8
1,36,113,168
1,36,113,182
1,36,113,150
1,36,113,148
1,36,113,154
1,36,113,170
1,36,101,160
1,36,113,136
1,36,113,168
1,36,110,162
1,36,110,160
1,36,110,186
1,36,110,176
1,36,110,180
1,36,113,106
1,36,107,42
1,36,113,88
1,36,113,162
1,36,113,188
1,36,110,180
1,36,110,184
1,36,113,178
1,36,113,194
1,36,110,198
1,36,113,202
1,36,107,190
1,36,107,216
1,36,110,196
1,36,110,204
1,36,107,188
1,36,110,198
1,36,107,146
1,36,110,64
1,36,113,94
1,36,110,184
1,36,113,198
1,36,113,192
1,36,110,96
1,36,113,160
1,36,107,218
1,36,110,220
1,36,110,220
1,36,110,206
1,36,110,186
1,36,110,206
1,36,110,194
1,36,110,184
1,36,107,162
1,36,110,210
1,36,107,206
1,36,110,184
1,36,110,172
1,36,110,184
1,36,110,182
1,36,110,166
1,36,107,148
1,36,110,174
1,36,113,192
1,36,110,178
1,36,110,176
1,36,110,192
1,36,107,202
1,36,107,176
1,36,107,168
1,36,110,214
1,36,110,216
1,36,110,204
1,36,110,172
1,36,107,190
1,36,104,88
1,36,113,30
1,36,110,200
1,36,110,34
1,36,113,8
1,36,107,218
1,36,110,220
1,36,110,220
1,36,110,206
1,36,110,186
1,36,110,206
1,36,110,194
1,36,110,184
1,36,107,162
1,36,110,210
1,36,107,206
1,36,110,184
1,36,110,172
1,36,110,184
1,36,110,182
1,36,110,166
1,36,107,148
1,36,110,174
1,36,113,192
1,36,110,178
1,36,110,176
1,36,110,192
1,36,107,202
1,36,107,176
1,36,107,168
1,36,110,214
1,36,110,216
1,36,110,204
1,36,110,172
1,36,107,190
1,36,104,88
1,36,113,30
1,36,110,200
1,36,110,34
1,35,110,8
1,35,110,198
1,35,110,194
1,35,110,198
1,35,107,176
1,35,110,394
1,35,113,76
2,38,113,9596
2,38,110,506
2,38,113,582
2,38,110,668
2,38,110,670
2,38,107,624
2,38,93,646
2,38,100,436
2,38,107,64
2,38,80,128
2,38,93,34
2,38,103,30
2,38,107,28
2,38,110,404
2,38,113,574
2,38,110,596
2,38,113,612
2,38,113,618
2,38,110,656
2,38,113,612
2,38,110,438
2,38,113,252
2,38,113,466
2,38,110,624
2,38,110,610
2,38,110,632
2,38,110,600
2,38,110,640
2,38,110,626
2,38,103,528
2,38,110,62
2,38,92,92
2,38,107,518
2,38,110,624
2,38,107,586
2,38,110,604
2,38,110,592
2,38,110,600
2,38,110,630
2,38,107,608
2,38,110,586
2,38,110,610
2,38,107,606
2,38,110,634
2,38,110,618
2,38,110,648
2,38,98,622
2,38,110,638
2,38,110,666
2,38,110,1436
2,38,113,574
2,38,110,596
2,38,113,612
2,38,113,618
2,38,110,656
2,38,113,612
2,38,110,438
2,38,113,252
2,38,113,466
2,38,110,624
2,38,110,610
2,38,110,632
2,38,110,600
2,38,110,640
2,38,107,178
2,38,110,1996
2,38,110,562
2,38,110,548
2,38,110,586
2,38,110,590
2,38,113,574
2,38,110,596
2,38,113,612
2,38,113,618
2,38,110,656
2,38,113,612
2,38,110,438
2,38,113,252
2,38,113,466
2,38,110,624
2,38,110,610
2,38,110,632
2,38,110,600
2,38,110,640
2,38,110,626
2,38,103,528
2,38,110,62
2,38,92,92
2,38,107,518
2,38,110,624
2,38,107,586
2,38,110,604
2,38,110,592
2,38,110,600
2,38,110,630
2,38,103,418
2,38,113,158
2,38,117,14
2,38,110,540
2,38,110,610
2,38,107,606
2,38,110,634
2,38,110,618
2,38,110,648
2,38,98,622
2,38,110,638
2,38,110,666
2,38,110,1436
2,38,113,574
2,38,110,596
2,38,113,612
2,38,113,618
2,38,110,656
2,38,113,612
2,38,110,438
2,38,113,252
2,38,113,466
2,38,110,624
2,38,110,610
2,38,110,632
2,38,110,600
2,38,110,640
2,38,107,178
2,38,103,1996
2,38,106,574
2,38,103,596
2,38,106,612
2,38,106,618
2,38,103,656
2,38,106,612
2,38,103,438
2,38,106,252
2,38,106,466
2,38,103,624
2,38,103,610
2,38,103,632
2,38,103,600
2,38,103,640
2,38,100,178
2,38,107,1996
2,38,110,624
2,38,107,586
2,38,110,604
2,38,110,592
2,38,110,600
2,38,110,630
2,38,103,418
2,38,113,158
2,38,117,14
2,38,110,540
2,38,110,610
2,38,107,606
2,38,110,634
2,38,110,618
2,38,110,648
2,38,98,622
2,38,110,638
2,38,110,666
2,38,110,1436
2,38,113,574
2,38,110,596
2,38,113,612
2,38,113,618
2,38,110,656
2,38,113,612
2,38,110,438
2,38,113,252
2,38,113,466
2,38,110,624
2,38,110,610
2,38,110,632
2,38,110,600
2,38,110,640
2,38,107,178
2,38,110,1996
2,38,113,574
2,38,110,596
2,38,113,612
2,38,113,618
2,38,110,656
2,38,113,612
2,38,110,438
2,38,113,252
2,38,113,466
2,38,110,624
2,38,110,610
2,38,110,632
2,38,110,600
2,38,110,640
2,38,107,178
2,38,110,3532
2,38,110,312
3,42,92,3070
3,42,95,240
3,42,98,232
3,42,98,248
3,42,101,200
3,42,98,164
3,42,101,236
3,42,98,230
3,42,101,208
3,42,104,142
3,42,101,186
3,42,101,218
3,42,107,200
3,42,107,316
3,42,101,318
3,42,101,130
3,42,107,36
3,46,110,36
3,42,113,338
3,42,104,146
3,42,83,46
3,42,116,38
3,42,95,96
3,42,95,48
3,42,113,46
3,42,56,86
3,42,95,36
3,42,113,42
3,42,86,96
3,42,104,42
3,42,113,48
3,42,107,100
3,42,107,50
3,42,110,46
3,42,95,102
3,42,98,46
3,42,113,46
3,42,95,88
3,42,104,50
3,42,113,46
3,42,92,98
3,42,95,50
3,42,113,42
3,42,107,78
3,42,104,44
3,42,113,42
3,42,113,196
3,42,104,48
3,42,107,62
3,42,101,44
3,42,113,42
3,42,95,86
3,42,92,44
3,42,113,46
3,42,110,108
3,42,107,48
3,42,113,42
3,42,107,110
3,42,107,48
3,42,113,48
3,42,104,104
3,42,107,48
3,42,110,48
3,42,104,82
3,42,107,50
3,42,101,26
3,42,86,142
3,42,80,42
3,42,113,46
3,42,77,70
3,42,74,56
3,42,110,62
3,42,64,116
3,42,89,46
3,42,113,50
3,42,72,76
3,42,68,50
3,42,104,40
3,42,64,102
3,42,74,44
3,42,113,46
3,42,74,112
3,42,68,46
3,42,113,46
3,42,46,96
3,42,83,42
3,42,113,36
3,42,72,102
3,42,80,38
3,42,110,46
3,42,62,110
3,42,89,42
3,42,113,46
3,42,77,112
3,42,80,44
3,42,107,46
3,42,74,108
3,42,92,44
3,42,113,44
3,42,77,108
3,42,89,42
3,42,107,56
3,42,95,120
3,42,98,50
3,42,113,52
3,42,77,124
3,42,77,50
3,42,110,46
3,42,83,134
3,42,80,46
3,42,116,46
3,42,89,110
3,42,77,56
3,42,98,56
3,42,95,128
3,42,95,44
3,42,113,48
3,42,66,108
3,42,70,50
3,42,104,42
3,42,74,116
3,42,89,54
3,42,113,50
3,42,86,106
3,42,80,48
3,42,107,44
3,42,74,114
3,42,86,52
3,42,113,48
3,42,86,114
3,42,92,50
3,42,104,40
3,42,83,112
3,42,92,54
3,42,113,44
3,42,92,116
3,42,83,52
3,42,107,46
3,42,92,110
3,42,89,52
3,42,113,44
3,42,74,114
3,42,92,48
3,42,113,50
3,42,95,116
3,42,95,48
3,42,113,40
3,42,77,112
3,42,92,48
3,42,110,44
3,42,72,112
3,42,86,40
3,42,113,38
3,42,60,106
3,42,86,46
3,42,110,38
3,42,68,106
3,42,86,56
3,42,113,52
3,42,104,106
3,42,95,46
3,42,98,44
3,42,74,142
3,42,66,42
3,42,104,42
3,42,74,138
3,42,66,48
3,42,113,42
3,42,74,100
3,42,80,40
3,42,113,42
3,42,83,114
3,42,86,42
3,42,107,42
3,42,77,96
3,42,74,42
3,42,107,46
3,42,77,114
3,42,74,46
3,42,107,50
3,42,72,96
3,42,80,44
3,42,110,44
3,42,89,98
3,42,83,50
3,42,107,44
3,42,77,102
3,42,95,42
3,42,110,42
3,42,77,100
3,42,86,48
3,42,110,48
3,42,83,110
3,42,89,44
3,42,101,50
3,42,70,112
3,42,83,48
3,42,107,50
3,42,77,100
3,42,70,42
3,42,107,44
3,42,72,88
3,42,70,42
3,42,104,48
3,42,86,96
3,42,86,40
3,42,107,46
3,42,77,96
3,42,86,56
3,42,107,46
3,42,72,96
3,42,83,54
3,42,107,46
3,42,42,106
3,42,72,44
3,42,107,44
3,42,77,42
3,42,83,44
3,42,110,40
3,42,72,78
3,42,77,44
3,42,107,38
3,42,68,72
3,42,80,42
3,42,113,46
3,42,68,88
3,42,77,44
3,42,110,48
3,42,80,78
3,42,89,38
3,42,113,42
3,42,80,98
3,42,95,42
3,42,113,54
3,42,89,76
3,42,95,46
3,42,110,48
3,42,77,88
3,42,92,40
3,42,110,44
3,42,95,82
3,42,95,40
3,42,113,44
3,42,92,98
3,42,92,44
3,42,104,48
3,42,86,88
3,42,95,46
3,42,107,44
3,42,77,90
3,42,92,42
3,42,107,50
3,42,70,94
3,42,83,42
3,42,107,44
3,42,58,86
3,42,74,38
3,42,107,42
3,42,77,84
3,42,92,42
3,42,110,42
3,42,92,92
3,42,83,44
3,42,107,46
3,42,80,50
3,42,92,44
3,42,107,48
3,42,107,80
3,42,101,134
3,42,86,142
3,42,80,42
3,42,113,46
3,42,77,70
3,42,74,56
3,42,110,62
3,42,64,116
3,42,89,46
3,42,113,50
3,42,72,76
3,42,68,50
3,42,104,40
3,42,64,102
3,42,74,44
3,42,113,46
3,42,74,112
3,42,68,46
3,42,113,46
3,42,46,96
3,42,83,42
3,42,113,36
3,42,72,102
3,42,80,38
3,42,110,46
3,42,62,110
3,42,89,42
3,42,113,46
3,42,77,112
3,42,80,44
3,42,107,46
3,42,74,108
3,42,92,44
3,42,113,44
3,42,77,108
3,42,89,42
3,42,107,56
3,42,95,120
3,42,98,50
3,42,113,52
3,42,77,124
3,42,77,50
3,42,110,46
3,42,83,134
3,42,80,46
3,42,116,46
3,42,89,110
3,42,77,56
3,42,98,56
3,42,95,128
3,42,95,44
3,42,113,48
3,42,66,108
3,42,70,50
3,42,104,42
3,42,74,116
3,42,89,54
3,42,113,50
3,42,86,106
3,42,80,48
3,42,107,44
3,42,74,114
3,42,86,52
3,42,113,48
3,42,86,114
3,42,92,50
3,42,104,40
3,42,83,112
3,42,92,54
3,42,113,44
3,42,92,116
3,42,83,52
3,42,107,46
3,42,92,110
3,42,89,52
3,42,113,44
3,42,74,114
3,42,92,48
3,42,113,50
3,42,95,116
3,42,95,48
3,42,113,40
3,42,77,112
3,42,92,48
3,42,110,44
3,42,72,112
3,42,86,40
3,42,113,38
3,42,60,106
3,42,86,46
3,42,110,38
3,42,68,106
3,42,86,56
3,42,113,52
3,42,104,106
3,42,95,46
3,42,104,44
3,42,95,202
3,42,101,200
3,42,107,156
3,42,104,182
3,42,104,192
3,42,107,206
3,42,110,170
3,42,92,44
3,42,104,34
3,42,101,132
3,42,86,142
3,42,80,42
3,42,113,46
3,42,77,70
3,42,74,56
3,42,110,62
3,42,64,116
3,42,89,46
3,42,113,50
3,42,72,76
3,42,68,50
3,42,104,40
3,42,64,102
3,42,74,44
3,42,113,46
3,42,74,112
3,42,68,46
3,42,113,46
3,42,46,96
3,42,83,42
3,42,113,36
3,42,72,102
3,42,80,38
3,42,110,46
3,42,62,110
3,42,89,42
3,42,113,46
3,42,77,112
3,42,80,44
3,42,107,46
3,42,74,108
3,42,92,44
3,42,113,44
3,42,77,108
3,42,89,42
3,42,107,56
3,42,95,120
3,42,98,50
3,42,113,52
