track,note,velocity,time
1,56,123,0
1,56,118,96
1,60,125,8
1,56,123,4
1,56,126,120
1,60,120,56
1,63,127,64
1,63,123,36
1,63,123,48
1,63,122,36
1,61,126,16
1,60,127,8
1,58,127,28
1,63,127,132
1,63,127,104
1,63,127,116
1,65,122,192
1,63,127,184
1,58,118,180
1,58,127,112
1,61,127,52
1,61,118,36
1,61,124,48
1,61,116,44
1,60,118,16
1,58,123,192
1,56,127,36
1,56,127,6412
1,56,127,128
1,56,127,140
1,58,127,288
1,60,119,20
1,56,127,20
1,56,127,116
1,60,124,156
1,60,118,116
1,60,120,128
1,61,117,288
1,60,124,28
1,58,117,8
1,55,124,216
1,55,125,124
1,55,127,136
1,56,127,48
1,58,121,16
1,58,84,12
1,55,119,40
1,55,124,132
1,58,126,64
1,58,121,136
1,58,127,144
1,60,114,28
1,58,124,20
1,56,115,24
1,56,127,168
1,56,127,144
1,56,127,136
1,58,124,288
1,60,122,20
1,56,122,8
1,56,126,116
1,60,119,152
1,60,122,128
1,60,122,128
1,61,110,16
1,60,125,48
1,58,127,8
1,63,127,172
1,63,127,136
1,63,127,136
1,61,127,28
1,60,127,20
1,56,126,16
1,56,127,116
1,58,127,100
1,58,127,136
1,60,125,32
1,58,127,16
1,56,127,24
1,56,127,456
1,56,127,112
1,60,127,108
1,56,127,24
1,56,127,116
1,60,127,116
1,63,127,88
1,63,121,52
1,63,122,40
1,63,121,48
1,61,127,36
1,60,127,16
1,58,127,48
1,63,127,276
1,63,127,124
1,63,127,120
1,65,124,8
1,63,126,12
1,58,126,188
1,58,127,116
1,61,127,132
1,61,114,44
1,61,122,56
1,61,112,40
1,60,127,36
1,58,124,16
1,56,127,76
1,56,127,288
1,56,127,120
1,60,125,100
1,56,126,16
1,56,127,124
1,60,124,84
1,63,127,72
1,63,116,36
1,63,118,48
1,63,120,48
1,61,126,20
1,60,127,24
1,58,127,36
1,63,127,188
1,63,127,128
1,63,127,120
1,65,127,20
1,63,127,20
1,58,124,4
1,58,127,112
1,61,127,124
1,61,121,44
1,61,123,52
1,61,117,48
1,60,127,36
1,58,127,4
1,56,127,108
1,56,127,1696
1,56,127,128
1,56,127,136
1,58,124,72
1,60,127,32
1,56,127,136
1,56,127,144
1,60,127,132
1,60,127,124
1,60,127,124
1,61,126,32
1,60,127,20
1,58,127,12
1,55,127,24
1,55,127,124
1,55,127,128
1,56,127,48
1,58,127,12
1,55,122,16
1,55,124,96
1,58,127,88
1,58,127,108
1,58,127,128
1,60,116,52
1,58,127,12
1,56,127,8
1,56,127,156
1,56,127,136
1,56,127,136
1,58,127,48
1,60,117,40
1,56,127,56
1,56,127,124
1,60,124,52
1,60,115,100
1,60,127,108
1,61,123,32
1,60,127,0
1,58,127,8
1,63,127,60
1,63,127,0
1,63,127,120
1,63,127,128
1,61,127,20
1,60,124,24
1,56,121,32
1,56,127,120
1,58,127,108
1,58,127,132
1,60,117,192
1,58,127,16
1,56,127,36
1,56,127,460
1,56,127,136
1,60,122,56
1,56,127,64
1,56,127,136
1,60,125,80
1,63,122,8
1,63,124,32
1,63,124,48
1,63,124,48
1,61,127,24
1,63,89,0
1,60,127,44
1,58,127,8
1,63,127,284
1,63,127,120
1,63,127,124
1,65,127,20
1,63,127,28
1,58,126,24
1,58,127,128
1,61,127,112
1,61,122,44
1,61,123,88
1,60,127,40
1,58,124,20
1,56,127,132
1,56,127,172
1,56,127,136
1,60,124,28
1,56,127,40
1,56,127,124
1,60,127,76
1,63,123,24
1,63,123,36
1,63,120,40
1,63,120,40
1,61,126,96
1,60,125,24
1,58,127,40
1,63,127,260
1,63,127,0
1,63,127,116
1,63,127,128
1,65,120,192
1,63,127,24
1,58,123,188
1,58,126,116
1,61,127,136
1,61,123,44
1,61,127,48
1,61,121,40
1,60,127,24
1,58,127,8
1,56,127,32
1,58,115,17024
1,58,117,104
1,58,116,128
1,60,116,40
1,62,110,100
1,58,109,24
1,58,114,88
1,62,117,164
1,62,115,116
1,62,117,116
1,63,113,44
1,62,122,40
1,60,114,12
1,57,118,16
1,57,124,116
1,57,127,136
1,58,127,60
1,60,112,28
1,57,115,8
1,57,117,116
1,60,118,64
1,60,124,108
1,60,125,108
1,62,118,72
1,60,125,12
1,58,114,4
1,58,117,160
1,58,118,120
1,58,118,128
1,60,112,288
1,62,112,0
1,58,104,12
1,58,113,72
1,62,115,52
1,62,116,108
1,62,119,120
1,63,121,68
1,62,120,40
1,60,116,8
1,65,127,120
1,65,127,108
1,65,127,124
1,63,120,16
1,62,122,32
1,62,124,292
1,60,119,20
1,60,106,108
1,62,120,192
1,60,119,8
1,58,127,40
1,58,127,368
1,58,127,112
1,62,127,128
1,58,126,20
1,58,126,124
1,62,115,104
1,65,127,104
1,65,116,44
1,65,119,40
1,65,114,44
1,63,124,20
1,62,124,28
1,60,125,40
1,65,127,144
1,65,120,84
1,65,122,104
1,67,114,192
1,65,122,28
1,60,116,12
1,60,117,88
1,63,127,56
1,63,112,48
1,63,115,52
1,63,122,40
1,62,125,28
1,60,119,16
1,58,121,4
1,58,127,256
1,58,126,136
1,62,127,124
1,58,124,16
1,58,126,124
1,62,124,112
1,65,127,128
1,65,124,44
1,65,119,36
1,65,118,28
1,63,124,96
1,62,116,20
1,60,119,28
1,65,120,152
1,65,116,108
1,65,120,112
1,67,111,4
1,65,115,8
1,60,116,12
1,60,119,88
1,63,126,72
1,63,111,56
1,63,115,36
1,63,118,44
1,62,124,28
1,60,119,4
1,58,127,108
1,58,127,328
1,58,127,112
1,62,124,124
1,58,124,0
1,58,126,116
1,62,122,120
1,65,127,136
1,65,111,44
1,65,105,40
1,65,115,40
1,63,122,12
1,62,115,28
1,60,125,80
1,65,127,140
1,65,119,116
1,65,122,128
1,67,113,192
1,65,116,8
1,60,113,8
1,60,120,108
1,63,124,28
1,63,113,44
1,63,116,40
1,63,120,48
1,62,120,36
1,60,119,24
1,58,126,56
1,58,127,164
1,58,121,120
1,62,127,116
1,58,123,8
1,58,124,124
1,62,122,136
1,65,127,132
1,65,118,36
1,65,118,40
1,65,118,40
1,63,124,20
1,62,120,28
1,60,124,64
1,65,122,112
1,65,120,100
1,65,124,116
1,67,114,192
1,65,124,28
1,60,117,8
1,60,122,116
1,63,127,36
1,63,110,44
1,63,114,52
1,63,113,48
1,62,127,28
1,60,124,24
1,58,124,48
1,58,127,1708
1,58,127,132
1,62,120,64
1,58,127,20
1,58,124,128
1,62,122,112
1,65,127,140
1,65,116,36
1,65,116,36
1,65,115,40
1,63,126,28
1,62,124,16
1,60,127,72
1,65,125,128
1,65,122,108
1,65,122,128
1,67,115,192
1,65,120,4
1,60,115,8
1,60,125,96
1,63,126,28
1,63,109,36
1,63,116,36
1,63,114,40
1,62,120,20
1,60,117,20
1,58,124,20
1,58,124,180
1,58,126,140
1,62,127,120
1,58,124,16
1,58,127,120
1,62,120,116
1,65,127,124
1,65,118,48
1,65,119,52
1,65,116,40
1,63,124,96
1,62,115,24
1,60,124,76
1,65,127,140
1,65,127,116
1,65,127,128
1,67,115,8
1,65,124,24
1,60,113,16
1,60,124,108
1,63,127,20
1,63,113,44
1,63,115,40
1,63,116,40
1,62,124,28
1,60,124,16
1,58,117,28
1,58,127,164
1,58,126,120
1,62,118,80
1,58,126,384
1,58,121,108
1,62,108,100
1,65,116,96
1,65,116,28
1,65,118,40
1,65,115,32
1,63,120,96
1,62,120,44
1,60,124,92
1,65,118,60
1,65,116,112
1,65,117,120
1,67,116,192
1,65,120,16
1,60,114,12
1,60,120,100
1,63,127,384
1,63,111,40
1,63,113,44
1,63,112,36
1,62,120,20
1,60,119,28
1,58,127,56
1,58,126,136
1,58,123,136
1,62,125,128
1,58,127,384
1,58,127,132
1,62,120,116
1,65,127,120
1,65,122,48
1,65,120,40
1,65,117,28
1,63,122,12
1,62,118,16
1,60,125,96
1,65,125,112
1,65,127,124
1,65,127,136
1,67,124,192
1,65,127,4
1,60,117,8
1,60,127,112
1,63,127,56
1,63,113,56
1,63,118,60
1,63,118,48
1,62,127,40
1,60,125,4
1,58,127,40
2,32,115,6148
2,32,115,104
2,29,115,12
2,27,115,20
2,32,115,16
2,32,115,32
2,32,115,104
2,29,115,20
2,27,115,8
2,32,115,192
2,32,115,116
2,29,115,0
2,27,115,12
2,39,115,12
2,39,115,140
2,36,115,96
2,34,115,12
2,39,115,16
2,39,115,140
2,36,115,0
2,34,115,0
2,39,115,24
2,39,115,36
2,39,115,100
2,36,115,0
2,34,115,188
2,37,115,180
2,37,115,128
2,36,115,12
2,34,115,4
2,32,115,12
2,32,115,140
2,29,115,12
2,27,115,28
2,32,115,192
2,32,115,128
2,32,115,128
2,27,115,140
2,32,115,40
2,32,115,100
2,32,115,100
2,32,115,188
2,32,115,116
2,32,115,116
2,32,115,84
2,27,115,48
2,27,115,132
2,27,115,124
2,27,115,100
2,27,115,120
2,27,115,128
2,34,115,44
2,39,115,68
2,39,115,116
2,39,115,108
2,27,115,28
2,27,115,136
2,27,115,124
2,27,115,92
2,32,115,36
2,32,115,100
2,29,115,20
2,27,115,16
2,32,115,192
2,32,115,132
2,32,115,136
2,27,115,68
2,32,115,36
2,32,115,96
2,32,115,124
2,32,115,72
2,32,115,132
2,32,115,116
2,32,115,100
2,27,115,40
2,27,115,116
2,27,115,116
2,32,115,128
2,27,115,152
2,27,115,124
2,27,115,120
2,32,115,48
2,32,115,100
2,32,115,116
2,32,115,112
2,27,115,40
2,27,115,124
2,39,115,24
2,34,115,92
2,27,115,28
2,32,115,192
2,32,115,140
2,32,115,136
2,32,115,272
2,32,115,212
2,29,115,12
2,27,115,12
2,32,115,196
2,32,115,160
2,29,115,24
2,27,115,8
2,32,115,192
2,32,115,32
2,32,115,108
2,29,115,96
2,27,115,188
2,39,115,36
2,39,115,120
2,36,115,96
2,34,115,4
2,39,115,12
2,39,115,44
2,39,115,92
2,36,115,96
2,34,115,188
2,39,115,24
2,39,115,148
2,36,115,4
2,34,115,192
2,37,115,8
2,37,115,160
2,36,115,20
2,34,115,8
2,32,115,16
2,32,115,196
2,29,115,12
2,27,115,16
2,32,115,192
2,32,115,164
2,29,115,28
2,27,115,8
2,32,115,60
2,32,115,44
2,32,115,108
2,29,115,28
2,27,115,4
2,32,115,192
2,32,115,164
2,29,115,20
2,27,115,12
2,39,115,48
2,39,115,20
2,39,115,116
2,36,115,96
2,34,115,188
2,39,115,24
2,39,115,160
2,36,115,96
2,34,115,12
2,39,115,56
2,39,115,36
2,39,115,108
2,36,115,0
2,34,115,188
2,37,115,16
2,37,115,140
2,36,115,8
2,34,115,16
2,32,115,24
2,32,115,120
2,29,115,8
2,27,115,28
2,32,115,1552
2,32,115,128
2,32,115,116
2,27,115,120
2,32,115,48
2,32,115,84
2,32,115,100
2,27,115,100
2,32,115,36
2,32,115,88
2,32,115,108
2,32,115,112
2,27,115,32
2,27,115,108
2,27,115,96
2,27,115,116
2,27,115,124
2,27,115,116
2,27,115,52
2,27,115,36
2,27,115,92
2,27,115,40
2,27,115,88
2,27,115,112
2,27,115,36
2,27,115,116
2,39,115,8
2,27,115,16
2,32,115,192
2,32,115,124
2,32,115,116
2,27,115,120
2,32,115,36
2,32,115,120
2,32,115,96
2,32,115,76
2,32,115,56
2,32,115,112
2,32,115,40
2,32,115,56
2,27,115,92
2,32,115,40
2,32,115,80
2,32,115,96
2,32,115,124
2,27,115,48
2,27,115,124
2,27,115,116
2,34,115,76
2,39,115,68
2,39,115,112
2,39,115,124
2,27,115,76
2,32,115,40
2,32,115,88
2,32,115,100
2,32,115,132
2,27,115,56
2,27,115,108
2,27,115,108
2,27,115,32
2,27,115,52
2,32,115,20
2,32,115,100
2,32,115,76
2,32,115,204
2,32,115,128
2,29,115,20
2,27,115,24
2,32,115,0
2,32,115,40
2,32,115,92
2,29,115,20
2,27,115,4
2,32,115,192
2,32,115,168
2,29,115,12
2,27,115,28
2,39,115,12
2,39,115,24
2,39,115,92
2,36,115,4
2,34,115,4
2,39,115,4
2,39,115,140
2,36,115,96
2,34,115,12
2,39,115,24
2,39,115,32
2,39,115,116
2,36,115,0
2,34,115,192
2,37,115,12
2,37,115,128
2,36,115,28
2,34,115,8
2,32,115,4
2,32,115,132
2,29,115,12
2,27,115,32
2,32,115,192
2,32,115,136
2,29,115,20
2,27,115,12
2,32,115,196
2,32,115,40
2,32,115,96
2,29,115,28
2,27,115,12
2,32,115,192
2,32,115,168
2,29,115,20
2,27,115,24
2,39,115,80
2,39,115,28
2,39,115,100
2,36,115,8
2,34,115,188
2,39,115,20
2,39,115,132
2,36,115,96
2,34,115,20
2,39,115,24
2,39,115,36
2,39,115,92
2,36,115,100
2,34,115,168
2,37,115,4
2,37,115,120
2,36,115,20
2,34,115,24
2,32,115,8
2,32,115,116
2,29,115,8
2,27,115,20
2,32,115,10784
2,32,115,112
2,29,115,96
2,27,115,20
2,32,115,196
2,32,115,156
2,29,115,8
2,27,115,4
2,32,115,192
2,32,115,124
2,29,115,12
2,27,115,12
2,39,115,12
2,39,115,104
2,36,115,0
2,34,115,16
2,39,115,16
2,39,115,128
2,36,115,0
2,34,115,12
2,39,115,28
2,39,115,40
2,39,115,80
2,36,115,4
2,34,115,188
2,37,115,12
2,37,115,112
2,36,115,28
2,34,115,16
2,32,115,4
2,34,115,472
2,34,115,104
2,29,115,188
2,34,115,52
2,34,115,44
2,34,115,56
2,34,115,40
2,29,115,4
2,34,115,24
2,34,115,120
2,34,115,116
2,34,115,112
2,29,115,40
2,29,115,104
2,29,115,96
2,29,115,80
2,29,115,48
2,29,115,56
2,29,115,32
2,29,115,84
2,29,115,40
2,29,115,112
2,29,115,40
2,29,115,104
2,29,115,108
2,29,115,112
2,41,115,12
2,41,115,116
2,29,115,16
2,29,115,92
2,34,115,28
2,34,115,108
2,29,115,160
2,34,115,12
2,34,115,116
2,34,115,124
2,29,115,84
2,34,115,40
2,34,115,116
2,34,115,124
2,29,115,84
2,34,115,36
2,34,115,100
2,34,115,64
2,34,115,36
2,34,115,84
2,29,115,36
2,29,115,96
2,29,115,112
2,36,115,76
2,41,115,48
2,41,115,124
2,41,115,128
2,29,115,88
2,34,115,24
2,34,115,92
2,34,115,116
2,34,115,136
2,29,115,40
2,29,115,104
2,29,115,92
2,29,115,24
2,29,115,116
2,34,115,12
2,34,115,96
2,34,115,96
2,34,115,12520
2,34,115,76
2,31,115,16
2,29,115,16
2,34,115,16
2,34,115,40
2,34,115,104
2,31,115,32
2,29,115,192
2,34,115,4
2,34,115,112
2,31,115,16
2,29,115,12
2,41,115,12
2,41,115,28
2,41,115,100
2,38,115,12
2,36,115,4
2,41,115,192
2,41,115,120
2,38,115,96
2,36,115,188
2,41,115,12
2,41,115,44
2,41,115,96
2,38,115,96
2,36,115,4
2,39,115,4
2,39,115,128
2,38,115,20
2,36,115,20
2,34,115,4
2,34,115,164
2,31,115,12
2,29,115,16
2,31,115,96
2,34,115,12
2,34,115,108
2,31,115,28
2,29,115,16
2,34,115,40
2,34,115,44
2,34,115,92
2,31,115,40
2,29,115,4
2,34,115,16
2,34,115,120
2,31,115,20
2,29,115,12
2,41,115,24
2,41,115,108
2,38,115,100
2,36,115,188
2,41,115,188
2,41,115,124
2,38,115,96
2,36,115,188
2,41,115,8
2,41,115,40
2,41,115,100
2,38,115,8
2,36,115,12
2,39,115,16
2,39,115,120
2,38,115,20
2,36,115,8
2,34,115,0
2,34,115,140
2,31,115,16
2,29,115,8
2,31,115,100
2,34,115,1564
2,34,115,76
2,31,115,20
2,29,115,8
2,34,115,16
2,34,115,156
2,31,115,8
2,29,115,192
2,34,115,16
2,34,115,40
2,34,115,88
2,31,115,28
2,29,115,12
2,41,115,192
2,41,115,136
2,38,115,4
2,36,115,24
2,41,115,8
2,41,115,128
2,38,115,12
2,36,115,4
2,41,115,12
2,41,115,44
2,41,115,88
2,38,115,4
2,36,115,4
2,39,115,12
2,39,115,136
2,38,115,100
2,36,115,12
