track,note,velocity,time
1,62,124,9412
1,62,124,40
1,62,124,56
1,62,124,64
1,62,124,36
1,62,124,40
1,62,124,64
1,60,124,72
1,59,124,40
1,67,124,736
1,67,124,44
1,67,124,72
1,67,124,44
1,69,124,4
1,67,124,8
1,66,124,68
1,64,124,124
1,64,124,68
1,64,124,88
1,62,124,4
1,67,124,16
1,62,124,140
1,62,124,68
1,60,124,8
1,67,124,8
1,59,124,8
1,57,124,388
1,62,124,1868
1,62,124,56
1,62,124,44
1,62,124,52
1,62,124,56
1,62,124,48
1,60,124,20
1,59,124,148
1,67,124,600
1,67,124,40
1,67,124,60
1,67,124,36
1,67,124,72
1,66,124,68
1,64,124,60
1,64,124,124
1,64,124,88
1,62,124,12
1,67,124,376
1,62,124,120
1,62,124,88
1,60,124,8
1,67,124,380
1,59,124,24
1,57,124,8
1,71,124,1928
1,71,124,52
1,71,124,68
1,71,124,76
1,71,124,36
1,71,124,60
1,71,124,44
1,71,124,56
1,72,124,60
1,72,124,64
1,72,124,344
1,72,124,36
1,72,124,72
1,72,124,88
1,71,124,4
1,69,124,8
1,72,124,112
1,71,124,372
1,67,124,20
1,71,124,464
1,71,124,68
1,71,124,84
1,71,124,100
1,69,124,100
1,67,124,12
1,67,124,96
1,66,124,100
1,69,124,132
1,66,124,260
1,66,124,92
1,64,124,48
1,67,124,116
1,64,124,128
1,64,124,72
1,62,124,16
1,71,124,904
1,71,124,64
1,71,124,64
1,71,124,80
1,71,124,60
1,71,124,80
1,71,124,72
1,71,124,84
1,72,124,96
1,72,124,88
1,72,124,260
1,72,124,36
1,72,124,76
1,72,124,108
1,71,124,384
1,69,124,184
1,72,124,76
1,71,124,4
1,67,124,8
1,71,124,260
1,71,124,64
1,71,124,72
1,71,124,96
1,69,124,8
1,67,124,8
1,67,124,104
1,66,124,124
1,69,124,116
1,66,124,184
1,66,124,104
1,64,124,28
1,67,124,116
1,64,124,152
1,64,124,92
1,62,124,16
1,62,124,8584
1,62,124,76
1,62,124,68
1,62,124,68
1,62,124,76
1,62,124,60
1,60,124,76
1,59,124,8
1,67,124,256
1,67,124,60
1,67,124,84
1,67,124,88
1,67,124,88
1,69,124,8
1,67,124,196
1,66,124,60
1,64,124,24
1,64,124,92
1,64,124,80
1,62,124,8
1,67,124,364
1,62,124,60
1,62,124,84
1,60,124,8
1,67,124,376
1,59,124,24
1,57,124,188
1,62,124,1768
1,62,124,68
1,62,124,52
1,62,124,68
1,62,124,64
1,62,124,48
1,62,124,48
1,60,124,196
1,59,124,552
1,67,124,312
1,67,124,76
1,67,124,68
1,67,124,76
1,67,124,52
1,67,124,80
1,66,124,56
1,64,124,24
1,64,124,124
1,64,124,76
1,62,124,8
1,67,124,364
1,62,124,72
1,62,124,96
1,60,124,8
1,67,124,60
1,59,124,588
1,57,124,344
1,71,124,2424
1,71,124,72
1,71,124,72
1,71,124,88
1,71,124,60
1,71,124,84
1,71,124,76
1,71,124,100
1,72,124,20
1,72,124,84
1,72,124,180
1,72,124,40
1,72,124,52
1,72,124,76
1,71,124,8
1,69,124,208
1,72,124,16
1,71,124,396
1,67,124,8
1,71,124,132
1,71,124,60
1,71,124,76
1,71,124,84
1,69,124,4
1,67,124,200
1,67,124,80
1,66,124,100
1,69,124,116
1,66,124,108
1,66,124,104
1,64,124,8
1,67,124,24
1,64,124,112
1,62,124,4
1,71,124,1112
1,71,124,104
1,71,124,96
1,71,124,100
1,71,124,88
1,71,124,120
1,71,124,92
1,71,124,112
1,72,124,88
1,72,124,96
1,72,124,116
1,72,124,60
1,72,124,88
1,72,124,92
1,71,124,388
1,69,124,4
1,72,124,68
1,71,124,4
1,67,124,16
1,71,124,88
1,71,124,52
1,71,124,92
1,71,124,92
1,69,124,392
1,67,124,156
1,67,124,96
1,66,124,8
1,69,124,96
1,66,124,88
1,66,124,76
1,64,124,16
1,67,124,372
1,64,124,732
1,62,124,8
1,71,124,896
1,71,124,92
1,71,124,92
1,71,124,96
1,71,124,72
1,71,124,92
1,71,124,88
1,71,124,100
1,72,124,68
1,72,124,88
1,72,124,180
1,72,124,44
1,72,124,76
1,72,124,96
1,71,124,384
1,69,124,8
1,72,124,56
1,71,124,384
1,67,124,8
1,71,124,228
1,71,124,76
1,71,124,92
1,71,124,92
1,69,124,4
1,67,124,192
1,67,124,92
1,66,124,384
1,69,124,100
1,66,124,164
1,66,124,108
1,64,124,12
1,67,124,100
1,64,124,8
1,62,124,0
1,71,124,552
1,71,124,92
1,71,124,92
1,71,124,108
1,71,124,104
1,71,124,116
1,71,124,112
1,71,124,128
1,72,124,124
1,72,124,108
1,72,124,328
1,72,124,68
1,72,124,72
1,72,124,84
1,71,124,376
1,69,124,196
1,72,124,4
1,71,124,76
1,67,124,108
1,71,124,140
1,71,124,84
1,71,124,108
1,71,124,100
1,69,124,24
1,67,124,16
1,67,124,112
1,66,124,372
1,69,124,4
1,66,124,148
1,66,124,92
1,64,124,8
1,67,124,4
1,64,124,136
1,62,124,372
2,31,127,0
2,31,127,284
2,31,127,56
2,31,127,464
2,31,127,292
2,31,127,56
2,31,127,124
2,30,127,192
2,28,127,4
2,28,127,296
2,28,127,72
2,38,127,404
2,38,127,148
2,36,127,4
2,31,127,356
2,31,127,256
2,31,127,52
2,31,127,444
2,31,127,260
2,31,127,52
2,31,127,440
2,31,127,352
2,31,127,56
2,31,127,524
2,31,127,356
2,31,127,60
2,31,127,204
2,30,127,0
2,28,127,8
2,28,127,364
2,28,127,80
2,38,127,436
2,38,127,228
2,36,127,192
2,31,127,324
2,31,127,340
2,31,127,68
2,33,127,432
2,33,127,296
2,33,127,64
2,38,127,480
2,38,127,296
2,38,127,68
2,38,127,496
2,38,127,336
2,38,127,64
2,31,127,444
2,31,127,224
2,31,127,44
2,31,127,200
2,31,127,352
2,31,127,176
2,31,127,76
2,31,127,232
2,28,127,444
2,28,127,204
2,28,127,64
2,28,127,192
2,38,127,364
2,38,127,188
2,38,127,64
2,36,127,264
2,31,127,328
2,31,127,224
2,31,127,68
2,31,127,180
2,33,127,332
2,33,127,192
2,33,127,44
2,33,127,184
2,26,127,344
2,26,127,208
2,26,127,56
2,26,127,152
2,26,127,360
2,26,127,168
2,26,127,72
2,26,127,160
2,26,127,344
2,36,127,1340
2,36,127,0
2,36,127,60
2,36,127,212
2,36,127,28
2,36,127,400
2,36,127,60
2,36,127,156
2,36,127,32
2,31,127,336
2,31,127,64
2,31,127,112
2,31,127,52
2,31,127,340
2,31,127,64
2,31,127,124
2,31,127,56
2,38,127,228
2,38,127,68
2,38,127,156
2,26,127,4
2,36,127,232
2,36,127,80
2,36,127,120
2,36,127,68
2,36,127,124
2,31,127,4
2,31,127,76
2,31,127,136
2,31,127,64
2,31,127,348
2,31,127,84
2,31,127,140
2,31,127,36
2,36,127,320
2,36,127,72
2,36,127,128
2,36,127,68
2,36,127,300
2,36,127,100
2,36,127,164
2,36,127,84
2,31,127,312
2,31,127,84
2,31,127,164
2,31,127,84
2,31,127,324
2,31,127,80
2,31,127,128
2,31,127,48
2,38,127,188
2,38,127,72
2,38,127,148
2,38,127,68
2,36,127,244
2,36,127,100
2,36,127,108
2,36,127,76
2,31,127,332
2,31,127,88
2,31,127,156
2,31,127,76
2,31,127,324
2,31,127,88
2,31,127,124
2,31,127,72
2,28,127,268
2,28,127,72
2,28,127,156
2,28,127,56
2,38,127,264
2,38,127,84
2,38,127,132
2,36,127,192
2,31,127,160
2,31,127,88
2,31,127,140
2,31,127,52
2,31,127,132
2,31,127,104
2,31,127,84
2,31,127,140
2,31,127,68
2,31,127,296
2,31,127,204
2,31,127,96
2,31,127,348
2,31,127,180
2,31,127,76
2,31,127,112
2,30,127,192
2,28,127,12
2,28,127,168
2,28,127,84
2,38,127,252
2,38,127,132
2,36,127,0
2,31,127,204
2,31,127,164
2,31,127,76
2,33,127,312
2,33,127,204
2,33,127,80
2,38,127,292
2,38,127,140
2,38,127,72
2,38,127,320
2,38,127,152
2,38,127,80
2,31,127,272
2,31,127,260
2,31,127,20
2,31,127,208
2,31,127,340
2,31,127,172
2,31,127,52
2,31,127,144
2,28,127,332
2,28,127,196
2,28,127,64
2,28,127,148
2,38,127,332
2,38,127,160
2,38,127,40
2,36,127,240
2,31,127,336
2,31,127,176
2,31,127,64
2,31,127,176
2,33,127,332
2,33,127,204
2,33,127,80
2,33,127,124
2,26,127,324
2,26,127,156
2,26,127,60
2,26,127,100
2,26,127,344
2,26,127,132
2,26,127,68
2,38,127,216
2,26,127,420
2,36,127,1248
2,36,127,52
2,36,127,160
2,36,127,56
2,36,127,356
2,36,127,56
2,36,127,140
2,36,127,60
2,31,127,428
2,31,127,52
2,31,127,196
2,31,127,84
2,31,127,364
2,31,127,88
2,31,127,148
2,31,127,76
2,38,127,340
2,38,127,60
2,38,127,140
2,38,127,60
2,36,127,300
2,36,127,84
2,36,127,156
2,36,127,96
2,31,127,512
2,31,127,80
2,31,127,148
2,31,127,76
2,31,127,348
2,31,127,92
2,31,127,120
2,31,127,80
2,31,127,128
2,36,127,8
2,36,127,40
2,36,127,140
2,36,127,56
2,36,127,380
2,36,127,56
2,36,127,156
2,36,127,76
2,31,127,572
2,31,127,64
2,31,127,140
2,31,127,84
2,31,127,324
2,31,127,48
2,31,127,92
2,31,127,60
2,31,127,120
2,38,127,192
2,38,127,52
2,38,127,112
2,26,127,12
2,38,127,188
2,36,127,16
2,36,127,64
2,36,127,136
2,36,127,40
2,36,127,148
2,31,127,20
2,31,127,56
2,31,127,136
2,31,127,64
2,31,127,128
2,31,127,60
2,31,127,64
2,31,127,136
2,43,127,4
2,31,127,192
2,31,127,116
2,36,127,8
2,36,127,44
2,36,127,128
2,36,127,56
2,36,127,292
2,36,127,60
2,36,127,116
2,36,127,56
2,31,127,8
2,31,127,56
2,31,127,136
2,31,127,48
2,31,127,312
2,31,127,68
2,31,127,136
2,31,127,48
2,38,127,240
2,38,127,56
2,38,127,120
2,38,127,48
2,36,127,132
2,36,127,76
2,36,127,136
2,36,127,76
2,36,127,104
2,31,127,192
2,31,127,64
2,31,127,120
2,31,127,56
2,31,127,320
2,31,127,56
2,31,127,40
2,31,127,100
2,31,127,48
2,31,127,116
2,36,127,192
2,36,127,48
2,36,127,144
2,36,127,56
2,36,127,276
2,36,127,76
2,36,127,136
2,36,127,76
2,31,127,236
2,31,127,48
2,31,127,128
2,31,127,48
2,31,127,328
2,31,127,68
2,31,127,92
2,31,127,44
2,38,127,244
2,38,127,56
2,38,127,136
2,38,127,80
2,36,127,260
2,36,127,64
2,36,127,136
2,36,127,56
2,31,127,208
2,31,127,56
2,31,127,124
2,31,127,56
2,31,127,296
2,31,127,72
2,31,127,136
2,31,127,72
2,28,127,128
2,28,127,60
2,28,127,172
2,28,127,36
2,38,127,172
2,38,127,56
2,38,127,148
2,36,127,192
2,31,127,44
3,47,95,192
3,55,107,96
3,47,98,84
3,55,102,180
3,47,88,120
3,48,99,112
3,55,98,96
3,55,108,204
3,54,92,96
3,52,78,12
3,47,104,28
3,55,108,384
3,52,76,288
3,47,93,136
3,55,98,176
3,54,91,96
3,52,88,20
3,47,94,96
3,45,106,56
3,54,111,164
3,50,59,4
3,52,98,128
3,43,105,96
3,48,95,60
3,52,104,96
3,48,79,52
3,47,94,228
3,55,105,96
3,47,88,124
3,55,93,128
3,60,106,228
3,59,102,92
3,55,101,96
3,50,102,68
3,47,95,292
3,55,92,68
3,59,93,8
3,55,94,0
3,59,88,188
3,67,112,8
3,59,84,288
3,55,88,92
3,59,91,164
3,67,90,196
3,60,106,20
3,67,103,92
3,62,90,200
3,59,101,0
3,67,99,168
3,62,91,36
3,59,90,40
3,55,103,8
3,59,99,176
3,67,115,96
3,59,88,92
3,62,93,196
3,55,98,148
3,59,96,140
3,67,105,100
3,62,104,20
3,57,106,176
3,66,112,100
3,62,93,60
3,55,104,148
3,60,103,92
3,64,103,96
3,60,90,80
3,59,100,164
3,67,117,100
3,62,98,8
3,55,102,380
3,59,107,60
3,67,102,100
3,62,94,188
3,57,109,196
3,67,115,92
3,60,97,292
3,57,102,112
3,67,127,64
3,60,108,288
3,59,105,152
3,60,101,32
3,69,110,196
3,66,103,172
3,62,94,4
3,57,100,0
3,60,99,168
3,67,112,60
3,60,89,92
3,54,88,172
3,57,101,96
3,66,120,96
3,62,96,20
3,59,98,148
3,67,114,96
3,62,95,4
3,59,93,384
3,67,98,172
3,62,92,4
3,60,98,232
3,67,103,96
3,62,93,252
3,55,91,388
3,59,105,64
3,67,109,96
3,66,99,12
3,55,97,120
3,59,104,100
3,67,104,96
3,64,96,24
3,59,94,12
3,67,108,92
3,64,97,288
3,57,102,108
3,66,114,100
3,62,93,288
3,64,103,140
3,60,103,196
3,55,99,188
3,59,105,196
3,67,108,92
3,62,92,140
3,59,94,0
3,67,98,144
3,62,97,56
3,59,88,100
3,57,94,4
3,59,103,228
3,60,102,96
3,67,106,96
3,60,105,52
3,67,97,236
3,60,93,92
3,60,92,168
3,64,105,196
3,67,99,180
3,69,101,40
3,60,107,324
3,67,117,192
3,69,108,4
3,66,99,380
3,64,95,196
3,62,100,84
3,57,97,20
3,62,100,64
3,54,102,0
3,50,115,1352
3,59,109,0
3,55,122,0
3,55,110,112
3,60,114,0
3,52,103,0
3,60,115,80
3,55,109,0
3,52,107,0
3,55,106,1516
3,50,93,0
3,59,110,0
3,54,93,1800
3,57,105,0
3,62,107,0
3,52,96,448
3,55,117,0
3,60,109,0
3,50,100,256
3,55,110,0
3,59,107,0
3,67,105,272
3,59,103,380
3,59,74,140
3,67,114,68
3,62,100,188
3,50,105,308
3,55,107,0
3,59,101,0
3,55,105,108
3,52,104,0
3,60,104,0
3,52,105,100
3,55,108,0
3,60,107,0
3,52,93,228
3,60,108,96
3,55,104,288
3,64,92,188
3,55,110,288
3,50,105,0
3,59,115,0
3,59,105,872
3,67,107,92
3,62,89,288
3,59,94,364
3,62,98,168
3,54,113,108
3,57,105,4
3,62,103,0
3,60,110,324
3,64,109,0
3,55,114,0
3,62,112,260
3,59,109,0
3,67,103,0
3,60,96,504
3,67,106,96
3,62,96,272
3,55,100,576
3,59,98,132
3,59,97,12
3,67,102,92
3,59,93,176
3,64,90,8
3,59,89,384
3,67,104,60
3,59,89,144
3,64,94,44
3,67,104,0
3,57,96,200
3,66,105,96
3,57,91,124
3,62,100,4
3,55,96,160
3,60,101,96
3,64,91,96
3,67,106,96
3,64,95,8
3,60,94,68
3,59,105,164
3,67,108,96
3,62,95,292
3,59,102,8
3,62,108,64
3,67,103,192
3,62,95,72
3,60,103,256
3,67,105,92
3,62,103,460
3,60,100,24
3,59,98,88
3,57,97,28
3,55,100,80
3,59,94,164
3,67,108,92
3,62,87,276
3,59,84,20
3,67,107,96
3,59,100,160
3,62,98,0
3,67,98,76
3,60,107,244
3,67,108,96
3,62,93,272
3,59,94,20
3,67,107,188
3,62,89,60
3,59,96,0
3,59,94,212
3,67,105,100
3,59,86,160
3,64,89,24
3,59,88,76
3,67,103,188
3,66,94,68
3,64,93,16
3,59,87,12
3,57,103,244
3,66,111,100
3,62,94,0
3,55,102,424
3,64,99,96
3,60,98,52
3,64,93,80
3,59,98,236
3,67,108,92
3,59,96,152
3,62,98,96
3,59,98,360
3,67,105,168
3,64,96,68
3,62,86,4
3,59,94,12
3,57,98,220
3,59,89,92
3,60,105,20
3,67,112,92
3,57,89,184
3,59,104,16
3,60,99,92
3,67,122,16
3,59,95,388
3,60,99,12
3,55,98,232
3,60,100,96
3,64,100,4
3,57,92,8
3,66,100,0
3,62,98,0
3,66,101,68
3,64,96,16
3,62,93,92
3,60,94,4
3,55,99,32
3,60,101,92
3,64,94,96
3,57,93,12
3,66,87,0
3,62,98,0
3,66,93,76
3,62,93,188
3,59,94,300
3,67,94,96
3,59,89,172
3,62,91,28
3,59,91,4
3,67,96,160
3,62,86,164
3,59,91,64
3,59,100,180
3,67,104,4
3,59,105,668
3,67,107,176
