track,note,velocity,time
1,40,100,2276
1,40,100,0
1,40,100,0
1,35,99,0
1,38,99,0
1,40,99,0
1,40,99,0
1,40,99,0
1,35,98,0
1,38,98,0
1,40,100,0
1,40,100,0
1,40,100,0
1,35,99,0
1,38,99,0
1,40,99,0
1,40,99,0
1,40,99,0
1,40,98,0
1,42,98,0
1,35,100,0
1,35,99,0
1,30,99,0
1,33,99,0
1,35,99,0
1,35,98,0
1,30,98,0
1,30,98,0
1,33,92,0
1,35,100,0
1,35,99,0
1,30,99,0
1,33,99,0
1,35,99,0
1,35,98,0
1,35,98,0
1,38,98,0
1,39,98,0
1,40,100,0
1,40,100,0
1,40,100,0
1,35,99,0
1,38,99,0
1,40,99,0
1,40,99,0
1,40,99,0
1,35,98,0
1,38,98,0
1,40,100,0
1,40,100,0
1,40,100,0
1,35,99,0
1,38,99,0
1,40,99,0
1,40,99,0
1,40,99,0
1,40,98,0
1,42,98,0
1,35,100,0
1,35,99,0
1,30,99,0
1,33,99,0
1,35,99,0
1,35,98,0
1,30,98,0
1,30,98,0
1,33,98,0
1,35,100,0
1,35,100,0
1,35,99,0
1,35,100,0
1,35,100,0
1,35,99,0
1,35,98,0
1,33,97,0
1,33,100,96
1,33,100,0
1,33,100,0
1,35,99,0
1,36,99,0
1,38,99,0
1,38,98,96
1,38,98,96
1,33,98,0
1,38,98,0
1,35,98,0
1,31,98,0
1,33,97,0
1,33,100,96
1,33,100,0
1,33,100,0
1,35,99,0
1,36,99,0
1,38,99,0
1,38,98,96
1,38,98,96
1,33,98,0
1,38,98,0
1,35,98,0
1,31,98,0
1,33,97,0
1,33,100,96
1,33,100,0
1,33,100,0
1,35,99,0
1,36,99,0
1,38,99,0
1,38,98,96
1,38,98,96
1,33,98,0
1,38,98,0
1,35,98,0
1,31,98,0
1,33,97,0
1,33,100,96
1,33,100,0
1,33,100,0
1,35,99,0
1,36,99,0
1,38,99,0
1,38,98,96
1,38,98,96
1,33,98,0
1,38,98,0
1,35,98,0
1,31,98,0
1,33,97,0
1,33,100,96
1,33,100,0
1,33,100,0
1,35,99,0
1,36,99,0
1,38,99,0
1,38,98,96
1,38,98,96
1,33,98,0
1,38,98,0
1,35,98,0
1,35,98,0
1,35,86,0
1,35,86,0
1,35,86,0
1,35,86,0
1,35,86,0
1,35,86,0
1,35,86,0
1,35,86,0
1,33,86,0
1,31,86,0
1,31,86,0
1,31,85,0
1,31,85,0
1,31,85,0
1,31,85,0
1,31,85,0
1,31,85,0
1,39,85,0
1,39,85,0
1,39,85,0
1,39,85,0
1,39,85,0
1,39,84,0
1,39,84,0
1,39,84,0
1,40,84,0
1,42,84,0
1,42,84,0
1,42,84,0
1,42,84,0
1,42,84,0
1,42,84,0
1,37,91,96
1,30,91,0
1,37,85,0
1,30,97,0
1,30,97,96
1,30,109,0
1,30,91,0
1,30,91,0
1,34,77,0
1,37,77,0
1,35,86,0
1,35,86,0
1,30,85,0
1,35,85,0
1,35,85,0
1,30,84,0
1,30,84,0
1,35,84,0
1,35,86,0
1,35,86,0
1,30,85,0
1,35,85,0
1,35,85,0
1,30,85,0
1,35,85,0
1,40,83,0
1,40,83,0
1,35,83,96
1,40,83,0
1,40,83,0
1,42,82,192
1,35,82,0
1,35,82,96
1,30,81,0
1,35,81,0
1,35,81,96
1,30,86,0
1,30,81,0
1,35,81,0
1,35,86,0
1,35,86,0
1,30,85,0
1,35,85,0
1,35,85,0
1,30,84,0
1,30,84,0
1,35,84,0
1,35,86,0
1,35,86,0
1,30,85,0
1,35,85,0
1,35,85,0
1,30,85,0
1,35,85,0
1,40,83,0
1,40,83,0
1,35,83,96
1,40,83,0
1,40,83,0
1,42,82,192
1,35,82,0
1,35,82,96
1,30,81,0
1,35,81,0
1,35,81,96
1,30,81,0
1,35,81,0
1,35,78,0
1,35,77,96
1,35,77,96
1,30,76,0
1,35,76,0
1,35,76,96
1,35,75,96
1,33,97,192
1,33,100,96
1,33,100,0
1,33,100,0
1,35,99,0
1,36,99,0
1,38,99,0
1,38,98,96
1,38,98,96
1,33,98,0
1,38,98,0
1,35,98,0
1,31,98,0
1,33,97,0
1,33,100,96
1,33,100,0
1,33,100,0
1,35,99,0
1,36,99,0
1,38,99,0
1,38,98,96
1,38,98,96
1,33,98,0
1,38,98,0
1,35,98,0
1,31,98,0
1,33,97,0
1,33,100,96
1,33,100,0
1,33,100,0
1,35,99,0
1,36,99,0
1,38,99,0
1,38,98,96
1,38,98,96
1,33,98,0
1,38,98,0
1,35,98,0
1,31,98,0
1,33,97,0
1,33,100,96
1,33,100,0
1,33,100,0
1,35,99,0
1,36,99,0
1,38,99,0
1,38,98,96
1,38,98,96
1,33,98,0
1,38,98,0
1,35,98,0
1,31,98,0
1,33,97,0
1,33,100,96
1,33,100,0
1,33,100,0
1,35,99,0
1,36,99,0
1,38,99,0
1,38,98,96
1,38,98,96
1,33,98,0
1,38,98,0
1,35,98,0
1,35,98,0
1,35,86,0
1,35,86,0
1,35,86,0
1,35,86,0
1,35,86,0
1,35,86,0
1,35,86,0
1,35,86,0
1,33,86,0
1,31,86,0
1,31,86,0
1,31,85,0
1,31,85,0
1,31,85,0
1,31,85,0
1,31,85,0
1,31,85,0
1,39,85,0
1,39,85,0
1,39,85,0
1,39,85,0
1,39,85,0
1,39,84,0
1,39,84,0
1,39,84,0
1,40,84,0
1,42,84,0
1,42,84,0
1,42,84,0
1,42,84,0
1,42,84,0
1,42,84,0
1,37,82,96
1,30,82,0
1,37,76,0
1,30,88,0
1,30,88,96
1,30,100,0
1,30,82,0
1,30,82,0
1,30,82,0
1,34,68,0
1,37,68,0
1,35,86,0
1,35,86,0
1,30,85,0
1,35,85,0
1,35,85,0
1,30,84,0
1,30,84,0
1,35,84,0
1,35,86,0
1,35,86,0
1,30,85,0
1,35,85,0
1,35,85,0
1,30,85,0
1,35,85,0
1,40,83,0
1,40,83,0
1,35,83,96
1,40,83,0
1,40,83,0
1,42,82,192
1,35,82,0
1,35,82,96
1,30,81,0
1,35,81,0
1,35,81,96
1,30,86,0
1,30,81,0
1,35,81,0
1,35,86,0
1,35,86,0
1,30,85,0
1,35,85,0
1,35,85,0
1,30,84,0
1,30,84,0
1,35,84,0
1,35,86,0
1,35,86,0
1,30,85,0
1,35,85,0
1,35,85,0
1,30,85,0
1,35,85,0
1,40,83,0
1,40,83,0
1,35,83,96
1,40,83,0
1,40,83,0
1,42,82,192
1,35,82,0
1,35,82,96
1,30,81,0
1,35,81,0
1,35,81,96
1,30,81,0
1,35,81,0
1,35,78,0
1,35,77,96
1,35,77,96
1,30,76,0
1,35,76,0
1,35,76,96
1,35,75,96
1,35,86,192
1,35,86,0
1,30,85,0
1,35,85,0
1,35,85,0
1,30,84,0
1,30,84,0
1,35,84,0
1,35,86,0
1,35,86,0
1,30,85,0
1,35,85,0
1,35,85,0
1,30,85,0
1,35,85,0
1,40,83,0
1,40,83,0
1,35,83,96
1,40,83,0
1,40,83,0
1,42,82,192
1,35,82,0
1,35,82,96
1,30,81,0
1,35,81,0
1,35,81,96
1,30,86,0
1,30,81,0
1,35,81,0
1,35,86,0
1,35,86,0
1,30,85,0
1,35,85,0
1,35,85,0
1,30,84,0
1,30,84,0
1,35,84,0
1,35,86,0
1,35,86,0
1,30,85,0
1,35,85,0
1,35,85,0
1,30,85,0
1,35,85,0
1,40,83,0
1,40,83,0
1,35,83,96
1,40,83,0
1,40,83,0
1,42,82,192
1,35,82,0
1,35,82,96
1,30,81,0
1,35,81,0
1,35,81,96
1,30,81,0
1,35,81,0
1,33,97,0
1,33,100,96
1,33,100,0
1,33,100,0
1,35,99,0
1,36,99,0
1,38,99,0
1,38,98,96
1,38,98,96
1,33,98,0
1,38,98,0
1,35,98,0
1,31,98,0
1,33,97,0
1,33,100,96
1,33,100,0
1,33,100,0
1,35,99,0
1,36,99,0
1,38,99,0
1,38,98,96
1,38,98,96
1,33,98,0
1,38,98,0
1,35,98,0
1,31,98,0
1,33,97,0
1,33,100,96
1,33,100,0
1,33,100,0
1,35,99,0
1,36,99,0
1,38,99,0
1,38,98,96
1,38,98,96
1,33,98,0
1,38,98,0
1,35,98,0
1,31,98,0
1,33,97,0
1,33,100,96
1,33,100,0
1,33,100,0
1,35,99,0
1,36,99,0
1,38,99,0
1,38,98,96
1,38,98,96
1,33,98,0
1,38,98,0
1,35,98,0
1,31,98,0
1,33,97,0
1,33,100,96
1,33,100,0
1,33,100,0
1,35,99,0
1,36,99,0
1,38,99,0
1,38,98,96
1,38,98,96
1,33,98,0
1,38,98,0
1,35,98,0
1,35,98,0
1,35,86,0
1,35,86,0
1,35,86,0
1,35,86,0
1,35,86,0
1,35,86,0
1,35,86,0
1,35,86,0
1,33,86,0
1,31,86,0
1,31,86,0
1,31,85,0
1,31,85,0
1,31,85,0
1,31,85,0
1,31,85,0
1,31,85,0
1,39,85,0
1,39,85,0
1,39,85,0
1,39,85,0
1,39,85,0
1,39,84,0
1,39,84,0
1,39,84,0
1,40,84,0
1,42,84,0
1,42,84,0
1,42,84,0
1,42,84,0
1,42,84,0
1,42,84,0
1,37,91,96
1,30,91,0
1,37,85,0
1,30,97,0
1,30,97,96
1,30,109,0
1,30,91,0
1,30,91,0
1,30,91,0
1,34,77,0
1,37,77,0
1,35,86,0
1,35,86,0
1,30,85,0
1,35,85,0
1,35,85,0
1,30,84,0
1,30,84,0
1,35,84,0
1,35,86,0
1,35,86,0
1,30,85,0
1,35,85,0
1,35,85,0
1,30,85,0
1,35,85,0
1,40,83,0
1,40,83,0
1,35,83,96
1,40,83,0
1,40,100,0
1,42,92,192
1,35,88,0
1,35,80,96
1,30,74,0
1,35,72,0
1,35,69,96
1,30,65,0
1,30,63,0
1,35,61,0
1,35,57,0
1,35,49,0
1,30,43,0
1,35,41,0
1,35,37,0
1,30,33,0
1,30,29,0
1,35,28,0
1,35,26,0
1,35,18,0
1,30,12,0
1,35,10,0
1,35,6,0
1,30,2,0
2,93,58,2632
2,81,87,0
2,91,37,0
2,79,67,0
2,91,36,112
2,79,65,0
2,93,42,24
2,81,73,0
2,91,40,96
2,79,81,0
2,91,44,128
2,79,75,0
2,90,32,0
2,78,63,0
2,76,67,280
2,88,36,0
2,90,24,0
2,78,55,0
2,75,76,288
2,87,18,96
2,93,58,384
2,81,87,0
2,91,37,0
2,79,67,0
2,91,36,80
2,79,65,0
2,93,42,24
2,81,73,0
2,91,40,96
2,79,81,0
2,91,44,128
2,79,75,0
2,90,32,0
2,78,63,0
2,76,67,280
2,88,36,0
2,90,24,0
2,78,55,0
2,75,76,288
2,87,18,96
2,71,87,23424
2,78,81,4
2,78,71,80
2,83,71,16
2,83,67,16
2,79,75,52
2,71,73,4
2,78,49,20
2,66,73,8
2,71,87,32
2,78,81,4
2,78,71,80
2,83,71,16
2,83,67,16
2,79,75,52
2,71,73,4
2,78,49,20
2,66,73,8
2,71,87,24608
2,78,81,4
2,78,71,80
2,83,71,16
2,83,67,16
2,79,75,52
2,71,73,4
2,78,49,20
2,66,73,8
2,71,87,32
2,78,81,4
2,78,71,80
2,83,71,16
2,83,67,16
2,79,75,52
2,71,73,4
2,78,49,20
2,66,73,8
2,71,87,1568
2,78,81,4
2,78,71,80
2,83,71,16
2,83,67,16
2,79,75,52
2,71,73,4
2,78,49,20
2,66,73,8
2,71,87,32
2,78,81,4
2,78,71,80
2,83,71,16
2,83,67,16
2,79,75,52
2,71,73,4
2,78,49,20
2,66,73,8
2,71,87,23072
2,78,81,4
2,78,71,80
2,83,71,16
2,83,67,16
2,79,75,52
2,71,73,4
2,78,88,20
2,66,88,8
2,71,57,32
2,78,57,4
2,78,34,48
2,83,33,16
2,83,29,16
3,64,73,13944
3,67,114,12
3,64,71,52
3,67,114,52
3,67,108,120
3,64,67,28
3,67,108,60
3,67,108,124
3,69,114,88
3,62,97,596
3,64,91,100
3,67,97,284
3,64,53,44
3,67,91,72
3,67,97,140
3,64,63,36
3,69,108,228
3,62,71,252
3,64,55,76
3,67,108,108
3,64,63,24
3,67,102,64
3,64,67,20
3,67,102,60
3,67,85,84
3,69,91,96
3,62,91,220
3,62,73,432
3,64,71,92
3,67,91,252
3,64,59,64
3,67,97,68
3,64,57,56
3,67,91,64
3,64,53,96
3,67,91,40
3,69,97,104
3,62,91,112
3,62,85,504
3,64,65,116
3,67,91,84
3,64,55,80
3,67,97,32
3,64,51,8
3,67,79,192
3,64,53,184
3,67,91,12
3,69,102,96
3,71,83,64
3,69,91,20
3,67,96,116
3,67,90,68
3,66,85,1836
3,66,79,76
3,66,59,92
3,69,90,44
3,66,91,2004
3,71,97,92
3,64,73,108
3,64,71,152
3,64,63,84
3,69,91,48
3,67,91,76
3,67,85,100
3,66,71,92
3,64,69,44
3,69,85,36
3,66,85,92
3,66,91,452
3,71,97,92
3,64,73,108
3,64,71,148
3,64,63,84
3,69,91,48
3,67,91,76
3,67,85,100
3,66,71,96
3,64,69,40
3,66,85,44
3,64,65,1304
3,67,91,20
3,67,100,60
3,67,114,128
3,67,108,120
3,64,67,24
3,67,108,60
3,64,67,192
3,67,108,60
3,69,114,84
3,62,71,404
3,62,73,96
3,67,91,116
3,67,73,48
3,67,88,84
3,67,59,476
3,69,79,80
3,71,85,40
3,62,71,444
3,64,55,72
3,67,108,104
3,64,63,24
3,67,102,60
3,64,63,16
3,67,97,128
3,67,85,80
3,69,91,92
3,62,73,764
3,64,71,88
3,67,91,252
3,64,59,112
3,67,97,36
3,67,91,80
3,64,71,92
3,67,91,44
3,69,97,104
3,62,85,820
3,64,65,116
3,67,91,80
3,64,77,72
3,64,71,52
3,67,79,196
3,67,91,176
3,69,102,92
3,71,83,56
3,69,91,24
3,67,96,116
3,67,90,68
3,66,85,1836
3,66,79,76
3,66,59,92
3,69,90,44
3,66,91,2004
3,71,97,92
3,64,73,108
3,64,88,152
3,64,87,84
3,69,91,48
3,67,91,76
3,67,85,100
3,66,71,92
3,64,69,44
3,69,85,36
3,66,85,92
3,66,91,456
3,71,97,92
3,64,73,108
3,64,83,152
3,64,77,84
3,69,91,48
3,67,91,76
3,67,85,100
3,66,71,92
3,64,69,44
3,69,85,36
3,66,85,8
3,66,91,1952
3,71,97,92
3,64,73,108
3,64,71,152
3,64,63,84
3,69,91,48
3,67,91,76
3,67,85,100
3,66,71,92
3,64,69,44
3,69,85,36
3,66,85,92
3,66,91,456
3,71,97,92
3,64,73,108
3,64,71,152
3,64,63,84
3,69,91,48
3,67,91,76
3,67,85,100
3,66,71,92
3,64,69,44
3,69,85,36
3,66,85,8
3,64,71,192
3,67,68,56
3,67,91,108
3,64,67,68
3,67,94,56
3,64,67,24
3,67,91,60
3,67,97,176
3,69,103,88
3,64,65,596
3,67,91,4
3,64,65,8
3,67,97,4
3,64,73,32
3,64,61,212
3,67,91,0
3,69,91,16
3,62,69,296
3,67,85,8
3,64,59,16
3,67,102,20
3,67,91,60
3,67,85,76
3,67,91,56
3,69,102,48
3,62,67,488
3,64,61,4
3,67,102,36
3,67,73,76
3,64,47,28
3,67,91,24
3,64,71,96
3,67,91,40
3,69,97,104
3,71,71,288
3,69,55,100
3,69,55,36
3,67,57,36
3,69,61,96
3,64,57,196
3,64,57,64
3,67,71,44
3,64,67,16
3,67,67,196
3,64,59,8
3,67,79,12
3,69,85,16
3,69,102,160
3,71,102,12
3,69,97,372
3,67,99,76
3,67,93,68
3,66,88,1836
3,66,82,76
3,66,62,92
3,69,93,44
3,66,91,2004
3,71,97,92
3,64,73,108
3,64,88,152
3,64,87,84
3,69,91,48
3,67,91,76
3,67,85,100
3,66,71,92
3,64,100,44
3,69,88,36
3,66,86,92
3,66,57,456
3,71,33,92
3,64,29,108
4,76,97,2596
4,76,97,96
4,76,79,44
4,76,83,56
4,76,81,36
4,71,83,284
4,76,97,388
4,76,97,96
4,76,79,44
4,76,83,56
4,76,81,36
4,71,83,284
4,75,104,23424
4,75,78,60
4,76,98,8
4,76,104,80
4,76,98,32
