track,note,velocity,time
0,69,115,0
0,69,118,11
0,69,115,48
0,62,112,11
0,69,118,0
0,62,106,17
0,62,112,16
0,72,109,10
0,62,106,0
0,72,121,21
0,72,109,10
0,71,103,10
0,72,121,0
0,69,118,48
0,67,109,10
0,71,103,0
0,69,103,40
0,69,118,0
0,71,109,41
0,67,109,0
0,69,127,40
0,69,103,0
0,71,109,40
0,69,118,10
0,69,127,0
0,69,115,15
0,69,118,10
0,62,109,11
0,69,115,0
0,62,118,15
0,62,109,11
0,72,106,15
0,62,118,0
0,72,106,15
0,72,106,17
0,71,103,15
0,72,106,0
0,69,118,42
0,67,124,43
0,71,103,0
0,69,115,42
0,69,118,0
0,71,103,10
0,67,124,0
0,33,116,43
0,69,121,0
0,69,115,0
0,71,103,6
0,38,115,0
0,35,110,0
0,49,101,0
0,69,115,0
0,50,80,0
0,57,80,0
0,69,121,0
0,69,118,11
0,69,115,40
0,62,112,11
0,69,118,0
0,62,106,17
0,62,112,16
0,72,109,10
0,62,106,0
0,72,121,21
0,33,115,1
0,35,107,0
0,49,98,0
0,45,80,2
0,52,80,0
0,72,109,0
0,71,103,10
0,72,121,0
0,69,118,48
0,67,109,10
0,71,103,0
0,69,103,40
0,69,118,0
0,71,109,41
0,67,109,0
0,69,127,40
0,69,103,0
0,71,109,40
0,31,115,1
0,35,110,0
0,49,101,0
0,69,118,2
0,43,80,0
0,50,80,0
0,69,127,0
0,69,115,15
0,69,118,10
0,62,127,11
0,69,115,0
0,62,127,15
0,62,127,11
0,72,127,15
0,62,127,0
0,72,127,15
0,36,115,0
0,35,104,0
0,49,98,0
0,48,80,2
0,55,80,0
0,72,127,0
0,71,127,15
0,72,127,0
0,69,127,42
0,67,127,43
0,71,127,0
0,69,127,42
0,69,127,0
0,71,127,10
0,67,127,0
0,40,120,43
0,69,127,2
0,69,127,0
0,71,127,10
0,38,106,2
0,35,101,0
0,49,97,0
0,69,111,2
0,50,80,0
0,57,80,0
0,69,127,0
0,38,103,9
0,69,111,2
0,38,100,10
0,40,114,0
0,46,95,0
0,50,52,2
0,57,52,0
0,69,111,0
0,38,103,9
0,62,111,2
0,50,54,0
0,57,54,0
0,69,111,0
0,38,94,15
0,35,98,0
0,46,98,0
0,62,111,2
0,50,56,0
0,57,56,0
0,38,82,14
0,50,59,2
0,57,59,0
0,62,111,0
0,33,112,3
0,40,114,0
0,46,98,0
0,72,110,2
0,50,61,0
0,57,61,0
0,62,111,0
0,33,103,17
0,72,110,2
0,45,63,0
0,52,63,0
0,33,106,8
0,35,98,0
0,46,98,0
0,72,110,2
0,33,97,8
0,71,110,2
0,72,110,0
0,33,100,12
0,40,111,0
0,46,93,0
0,69,110,2
0,45,73,0
0,52,80,0
0,33,103,8
0,67,110,2
0,45,43,0
0,52,80,0
0,71,110,0
0,33,100,10
0,35,95,0
0,46,101,0
0,69,110,2
0,45,51,0
0,52,51,0
0,69,110,0
0,33,103,22
0,35,107,0
0,71,110,2
0,45,53,0
0,52,53,0
0,67,110,0
0,33,103,11
0,40,114,0
0,46,104,0
0,69,109,2
0,45,55,0
0,52,55,0
0,69,110,0
0,33,115,14
0,45,57,2
0,52,57,0
0,71,110,0
0,31,112,6
0,35,104,0
0,49,97,0
0,69,109,2
0,43,80,0
0,50,80,0
0,69,109,0
0,31,91,13
0,69,109,2
0,31,109,8
0,40,117,0
0,46,100,0
0,43,76,0
0,50,80,0
0,69,109,0
0,31,91,9
0,62,109,2
0,43,51,0
0,50,51,0
0,69,109,0
0,31,94,13
0,35,101,0
0,46,88,0
0,62,109,2
0,43,54,0
0,50,54,0
0,31,100,9
0,43,57,2
0,50,57,0
0,62,109,0
0,36,112,9
0,40,114,0
0,46,91,0
0,72,108,2
0,43,59,0
0,50,59,0
0,62,109,0
0,36,97,10
0,72,108,2
0,48,73,0
0,55,80,0
0,36,109,15
0,35,104,0
0,46,88,0
0,72,108,2
0,36,106,13
0,71,108,2
0,72,108,0
0,36,94,10
0,40,114,0
0,46,97,0
0,69,108,2
0,48,46,0
0,55,46,0
0,36,112,21
0,67,108,2
0,48,49,0
0,55,49,0
0,71,108,0
0,36,109,19
0,35,101,0
0,46,91,0
0,69,108,2
0,48,49,0
0,55,49,0
0,69,108,0
0,36,112,8
0,35,65,0
0,71,108,2
0,48,49,0
0,55,49,0
0,67,108,0
0,36,91,18
0,40,111,0
0,46,90,0
0,69,107,2
0,48,49,0
0,55,49,0
0,69,108,0
0,36,115,8
0,48,49,2
0,55,49,0
0,71,108,0
0,38,106,14
0,35,101,0
0,49,97,0
0,69,107,2
0,50,80,0
0,57,80,0
0,69,107,0
0,38,103,9
0,69,107,2
0,38,100,28
0,40,114,0
0,46,109,0
0,50,50,0
0,57,50,0
0,69,107,0
0,38,103,9
0,62,107,2
0,50,51,0
0,57,51,0
0,69,107,0
0,38,94,15
0,35,98,0
0,46,91,0
0,62,107,2
0,50,53,0
0,38,82,14
0,50,55,2
0,57,55,0
0,62,107,0
0,33,112,3
0,40,114,0
0,46,109,0
0,72,106,2
0,50,57,0
0,57,57,0
0,62,107,0
0,33,103,17
0,72,106,2
0,45,80,0
0,52,80,0
0,33,106,8
0,35,98,0
0,46,97,0
0,72,106,2
0,33,97,8
0,71,106,2
0,72,106,0
0,33,100,12
0,40,111,0
0,46,109,0
0,69,106,2
0,45,43,0
0,52,43,0
0,33,103,8
0,67,106,2
0,45,44,0
0,52,44,0
0,71,106,0
0,33,100,10
0,35,95,0
0,46,91,0
0,69,106,2
0,45,45,0
0,52,45,0
0,69,106,0
0,33,103,22
0,35,107,0
0,71,106,2
0,45,47,0
0,52,47,0
0,67,106,0
0,33,103,11
0,40,114,0
0,46,97,0
0,69,105,2
0,45,48,0
0,52,48,0
0,69,106,0
0,33,115,14
0,45,49,2
0,52,49,0
0,71,106,0
0,31,112,6
0,35,104,0
0,49,97,0
0,69,105,2
0,43,80,0
0,50,80,0
0,69,105,0
0,31,91,13
0,69,105,2
0,31,109,8
0,40,117,0
0,46,106,0
0,43,80,2
0,50,79,0
0,69,105,0
0,31,91,9
0,62,105,2
0,43,10,0
0,50,80,0
0,69,105,0
0,31,94,13
0,35,101,0
0,46,94,0
0,62,105,2
0,50,67,0
0,31,100,9
0,43,52,2
0,50,80,0
0,62,105,0
0,36,112,9
0,40,114,0
0,46,106,0
0,72,104,2
0,43,58,0
0,50,67,0
0,62,105,0
0,36,97,13
0,72,104,2
0,48,80,0
0,55,80,0
0,36,109,15
0,35,104,0
0,46,100,0
0,72,104,0
0,36,106,13
0,72,104,0
0,36,94,15
0,40,114,0
0,46,100,0
0,36,112,21
0,36,109,19
0,35,101,0
0,40,111,0
0,36,112,22
0,35,98,0
0,41,113,0
0,43,113,0
0,36,116,0
0,36,91,18
0,40,127,0
0,40,127,1
0,36,115,22
0,38,103,10
0,35,101,0
0,49,92,0
0,69,115,2
0,74,106,0
0,38,94,24
0,42,82,0
0,62,79,2
0,38,103,23
0,40,114,0
0,42,115,0
0,69,112,2
0,74,97,0
0,69,115,0
0,38,91,13
0,42,61,0
0,62,97,2
0,69,94,0
0,62,79,0
0,38,103,24
0,35,101,0
0,42,115,0
0,69,115,2
0,74,100,0
0,69,112,0
0,38,88,19
0,42,88,0
0,62,91,2
0,69,100,0
0,62,97,0
0,38,100,23
0,40,114,0
0,42,109,0
0,62,100,2
0,69,115,0
0,33,100,10
0,42,103,0
0,64,112,2
0,62,91,0
0,33,97,18
0,35,98,0
0,42,97,0
0,57,82,2
0,62,100,0
0,33,85,16
0,42,73,0
0,57,106,2
0,72,91,0
0,64,112,0
0,33,109,22
0,40,114,0
0,42,109,0
0,57,94,2
0,64,112,0
0,72,97,0
0,57,82,0
0,33,97,2
0,42,88,0
0,57,106,2
0,69,94,0
0,57,106,0
0,33,97,23
0,35,86,0
0,42,112,0
0,64,97,2
0,72,103,0
0,57,94,0
0,64,112,0
0,33,88,3
0,35,104,0
0,42,58,0
0,57,91,2
0,69,100,0
0,57,106,0
0,33,97,22
0,40,117,0
0,42,109,0
0,64,109,2
0,64,97,0
0,33,85,20
0,42,95,0
0,57,94,2
0,57,91,0
0,31,103,20
0,35,101,0
0,42,106,0
0,62,115,2
0,64,109,0
0,31,97,21
0,42,85,0
0,55,64,2
0,71,106,0
0,57,94,0
0,31,100,23
0,40,117,0
0,42,109,0
0,62,100,2
0,71,106,0
0,62,115,0
0,31,103,22
0,42,94,0
0,55,88,2
0,71,97,0
0,55,64,0
0,31,109,22
0,35,101,0
0,42,112,0
0,62,112,2
0,71,103,0
0,62,100,0
0,31,100,3
0,42,58,0
0,55,91,2
0,69,103,0
0,55,88,0
0,31,100,24
0,40,114,0
0,42,109,0
0,55,106,2
0,62,91,0
0,71,97,0
0,62,112,0
0,36,112,24
0,42,43,0
0,67,115,2
0,72,109,0
0,55,91,0
0,36,94,24
0,35,92,0
0,42,112,0
0,60,70,2
0,55,106,0
0,62,91,0
0,36,97,24
0,42,85,0
0,60,106,2
0,71,109,0
0,67,115,0
0,36,97,24
0,40,114,0
0,42,109,0
0,67,115,2
0,69,100,0
0,60,70,0
0,36,97,16
0,42,94,0
0,60,85,2
0,67,97,0
0,60,106,0
0,36,94,24
0,35,95,0
0,42,112,0
0,67,115,2
0,71,106,0
0,67,115,0
0,36,97,24
0,35,101,0
0,42,73,0
0,60,88,2
0,60,85,0
0,33,112,7
0,40,117,0
0,42,112,0
0,67,118,2
0,69,94,0
0,67,115,0
0,36,100,10
0,46,106,0
0,60,94,2
0,60,88,0
0,38,112,11
0,35,98,0
0,42,109,0
0,69,115,2
0,74,103,0
0,67,118,0
0,38,76,18
0,42,91,0
0,62,79,2
0,60,94,0
0,38,100,24
0,40,114,0
0,42,112,0
0,69,112,2
0,74,94,0
0,69,115,0
0,38,85,8
0,42,52,0
0,62,97,2
0,69,85,0
0,62,79,0
0,38,100,21
0,35,101,0
0,42,112,0
0,69,115,2
0,74,100,0
0,69,112,0
0,38,85,1
0,42,79,0
0,62,91,2
0,69,100,0
0,62,97,0
0,38,106,17
0,40,114,0
0,42,112,0
0,62,100,2
0,69,115,0
0,33,103,21
0,42,98,0
0,64,112,2
0,62,91,0
0,33,100,22
0,35,101,0
0,42,109,0
0,57,82,2
0,62,100,0
0,33,97,24
0,42,85,0
0,57,106,2
0,72,97,0
0,64,112,0
0,33,100,24
0,40,102,0
0,42,112,0
0,57,94,2
0,64,112,0
0,72,100,0
0,57,82,0
0,33,97,2
0,42,82,0
0,57,106,2
0,69,94,0
0,57,106,0
0,33,97,24
0,35,89,0
0,42,112,0
0,64,97,2
0,72,103,0
0,57,94,0
0,64,112,0
0,33,100,5
0,35,95,0
0,42,79,0
0,57,91,2
0,74,76,0
0,57,106,0
0,33,106,11
0,40,114,0
0,42,112,0
0,64,109,2
0,64,97,0
0,33,109,1
0,42,88,0
0,57,94,2
0,57,91,0
0,31,109,24
0,35,101,0
0,42,94,0
0,62,115,2
0,64,109,0
0,31,97,23
0,42,85,0
0,55,64,2
0,74,106,0
0,57,94,0
0,31,106,22
0,40,114,0
0,42,109,0
0,62,100,2
0,74,100,0
0,62,115,0
0,31,94,22
0,42,79,0
0,55,88,2
0,74,91,0
0,55,64,0
0,31,106,23
0,35,101,0
0,42,112,0
0,62,112,2
0,76,109,0
0,62,100,0
0,31,103,22
0,42,64,0
0,55,91,2
0,74,100,0
0,55,88,0
0,31,106,14
0,40,111,0
0,42,112,0
0,55,106,2
0,62,91,0
0,62,112,0
0,36,112,23
0,42,91,0
0,67,115,2
0,77,106,0
0,55,91,0
0,36,100,23
0,35,104,0
0,42,112,0
0,60,70,2
0,55,106,0
0,62,91,0
0,36,100,21
0,42,85,0
0,60,106,2
0,77,109,0
0,67,115,0
0,36,112,22
0,40,114,0
0,42,112,0
0,67,115,2
0,77,109,0
0,60,70,0
0,36,112,8
0,42,106,0
0,60,85,2
0,74,97,0
0,60,106,0
0,36,112,24
0,35,98,0
0,42,115,0
0,67,115,2
0,76,112,0
0,67,115,0
0,36,109,24
0,35,107,0
0,42,106,0
0,60,88,2
0,60,85,0
0,36,112,24
0,40,114,0
0,42,115,0
0,67,118,2
0,74,97,0
0,67,115,0
0,36,109,24
0,42,85,0
0,46,112,0
0,60,94,2
0,60,88,0
0,38,103,16
0,35,104,0
0,49,92,0
0,50,106,2
0,57,118,0
0,81,112,0
0,67,118,0
0,38,94,24
0,42,82,0
0,60,94,2
0,38,103,23
0,40,114,0
0,42,115,0
0,79,109,2
0,50,106,0
0,57,118,0
0,38,91,13
0,42,61,0
0,78,103,2
0,38,103,22
0,35,104,0
0,42,115,0
0,79,109,2
0,38,88,2
0,42,88,0
0,78,103,2
0,38,100,11
0,40,114,0
0,42,109,0
0,81,100,2
0,33,100,10
0,42,103,0
0,81,106,2
0,33,97,11
0,35,101,0
0,42,97,0
0,45,112,2
0,52,106,0
0,33,85,16
0,42,73,0
0,33,109,11
0,40,114,0
0,42,109,0
0,45,112,2
0,52,106,0
0,33,97,22
0,42,88,0
0,33,97,23
0,35,89,0
0,42,112,0
0,33,88,18
0,35,101,0
0,42,58,0
0,33,113,23
0,40,114,0
0,42,109,0
0,31,119,6
0,35,104,0
0,49,95,0
0,43,106,2
0,50,112,0
0,55,115,0
0,31,103,0
0,42,106,0
0,31,97,6
0,42,85,0
0,84,103,2
0,43,106,0
0,50,112,0
0,55,115,0
0,31,100,23
0,40,117,0
0,42,109,0
0,84,106,2
0,31,103,22
0,42,94,0
0,84,109,2
0,31,109,17
0,35,104,0
0,42,112,0
0,83,109,2
0,31,100,23
0,42,58,0
0,31,100,24
0,40,114,0
0,42,109,0
0,81,112,2
0,36,112,0
0,42,43,0
0,36,94,2
0,35,101,0
0,42,112,0
0,48,109,2
0,55,115,0
0,36,97,24
0,42,85,0
0,86,103,2
0,36,97,2
0,40,114,0
0,42,109,0
0,86,112,2
0,48,109,0
0,55,115,0
0,36,97,16
0,42,94,0
0,86,94,2
0,36,94,21
0,35,101,0
0,42,112,0
0,86,112,2
0,36,97,24
0,35,101,0
0,42,73,0
0,33,112,20
0,40,114,0
0,42,112,0
0,81,109,2
0,36,100,11
0,46,106,0
0,80,112,2
0,38,112,2
0,35,98,0
0,49,86,0
0,50,115,2
0,57,124,0
0,81,112,0
0,38,76,18
0,42,91,0
0,38,100,4
0,40,114,0
0,42,112,0
0,79,109,2
0,50,115,0
0,57,124,0
0,38,85,20
0,42,52,0
0,78,109,2
0,38,100,21
0,35,101,0
0,42,112,0
0,79,109,2
0,38,85,16
0,42,79,0
0,78,103,2
0,38,106,16
0,40,114,0
0,42,112,0
0,81,97,2
0,33,104,21
0,42,98,0
0,81,109,2
0,33,100,0
0,35,98,0
0,42,109,0
0,45,112,2
0,52,112,0
0,33,97,24
0,42,85,0
0,33,100,3
0,40,114,0
0,42,112,0
0,45,112,2
0,52,112,0
0,33,97,24
0,42,82,0
0,33,97,24
0,35,98,0
0,42,112,0
0,33,100,24
0,35,98,0
0,38,92,0
0,42,79,0
0,33,106,24
0,40,114,0
0,42,112,0
0,33,109,3
0,35,101,0
0,49,58,0
0,43,103,2
0,50,118,0
0,31,109,24
0,42,94,0
0,31,97,3
0,42,85,0
0,84,109,2
0,43,103,0
0,50,118,0
0,31,106,22
0,40,111,0
0,42,109,0
0,84,112,2
0,31,94,22
0,42,79,0
0,84,112,2
0,31,106,24
0,35,101,0
0,42,112,0
0,83,109,2
0,31,103,24
0,35,101,0
0,42,64,0
0,31,106,23
0,40,111,0
0,42,112,0
0,81,112,1
0,33,112,10
0,42,91,0
0,45,121,2
0,52,118,0
0,57,127,0
0,33,100,23
0,35,104,0
0,42,112,0
0,33,100,10
0,35,107,0
0,42,85,0
0,86,115,2
0,45,121,0
0,52,118,0
0,57,127,0
0,33,112,2
0,40,114,0
0,42,112,0
0,52,106,2
0,86,106,0
0,33,112,10
0,35,101,0
0,42,106,0
0,52,112,2
0,84,112,0
0,87,97,1
