track,note,velocity,time
1,64,119,0
1,64,119,284
1,61,119,32
1,64,119,308
1,66,119,196
1,66,119,128
1,64,119,100
1,66,119,120
1,64,119,52
1,64,119,272
1,61,119,20
1,64,119,100
1,66,119,112
1,61,119,260
1,64,119,260
1,66,119,8
1,66,119,148
1,66,119,88
1,64,119,200
1,64,119,240
1,61,119,44
1,64,119,108
1,64,119,128
1,64,119,616
1,64,119,64
1,61,119,12
1,66,119,120
1,64,119,44
1,64,119,176
1,61,119,32
1,64,119,64
1,64,119,124
1,66,119,200
1,66,119,164
1,66,119,136
1,64,119,24
1,66,119,140
1,64,119,28
1,61,119,20
1,64,119,172
1,64,119,120
1,64,119,96
1,64,119,196
1,64,119,236
1,64,119,136
1,64,119,148
1,61,119,52
1,66,119,148
1,64,119,28
1,64,119,360
1,61,119,20
1,64,119,116
1,61,119,156
1,68,119,92
1,66,119,32
1,64,119,20
1,66,119,140
1,64,119,64
1,61,119,20
1,64,119,24
1,64,119,164
1,61,119,8
1,64,119,24
1,64,119,184
1,59,119,616
1,61,119,204
1,64,119,12
1,66,119,116
1,66,119,160
1,64,119,12
1,64,119,244
1,61,119,8
1,64,119,96
1,61,119,376
1,66,119,464
1,66,119,128
1,66,119,132
1,64,119,24
1,66,119,112
1,64,119,36
1,64,119,368
1,66,119,20
1,66,119,136
1,64,119,128
1,66,119,244
1,66,119,144
1,66,119,124
1,64,119,8
1,66,119,132
1,64,119,84
1,64,119,400
1,66,119,20
1,66,119,148
1,64,119,168
1,64,119,232
1,61,119,116
1,59,119,392
1,64,119,284
1,66,119,196
1,66,119,136
1,64,119,96
1,66,119,212
1,66,119,156
1,66,119,140
1,64,119,28
1,66,119,112
1,64,119,88
1,64,119,328
1,66,119,192
1,66,119,148
1,64,119,44
1,61,119,20
1,59,119,20
1,61,119,456
1,59,119,0
1,61,119,140
1,64,119,32
1,61,119,24
1,66,119,228
1,64,119,44
1,66,119,416
1,61,119,208
1,64,119,124
1,59,119,24
1,61,119,28
1,64,119,24
1,64,119,288
1,61,119,380
1,59,119,660
1,61,119,208
1,64,119,24
1,66,119,84
1,67,119,24
1,66,119,40
1,64,119,12
1,61,119,0
1,64,119,24
1,64,119,72
1,61,119,4
1,66,119,16
1,64,119,28
1,66,119,188
1,64,119,20
1,66,119,140
1,64,119,176
1,61,119,80
1,59,119,20
1,59,119,244
1,59,119,148
1,61,119,8
1,66,119,128
1,64,119,364
1,59,119,616
1,66,119,188
1,64,119,116
1,61,119,12
1,59,119,172
1,67,119,536
1,67,119,104
1,69,119,96
1,67,119,384
1,66,119,176
1,66,119,248
1,66,119,196
1,64,119,12
1,66,119,200
1,67,119,164
1,64,119,20
1,64,119,220
1,67,119,1848
1,67,119,104
1,69,119,96
1,67,119,32
1,66,119,204
1,66,119,164
1,66,119,84
1,66,119,44
1,64,119,8
1,66,119,20
1,67,119,32
1,64,119,180
1,67,119,0
1,67,119,43
1,69,119,572
1,67,119,76
1,66,119,52
1,62,119,708
1,62,119,80
1,64,119,32
1,66,119,120
1,67,119,268
1,66,119,164
1,64,119,196
1,60,119,232
1,60,119,92
1,62,119,200
1,64,119,96
1,64,119,96
1,64,119,56
1,64,119,44
1,66,119,80
1,62,119,20
1,62,119,116
1,62,119,116
1,66,119,152
1,66,119,92
1,67,119,112
1,66,119,144
1,64,119,156
1,71,119,20
1,71,119,96
1,69,119,20
1,69,119,104
1,71,119,8
1,69,119,128
1,71,119,108
1,69,119,24
1,69,119,84
1,71,119,44
1,64,119,18804
1,64,119,52
1,64,119,104
1,68,119,372
1,68,119,116
1,71,119,572
1,71,119,104
1,71,119,64
1,71,119,76
1,71,119,100
1,69,119,12
1,68,119,376
1,66,119,0
1,64,119,528
1,64,119,116
1,64,119,124
1,68,119,384
1,68,119,136
1,71,119,588
1,71,119,116
1,71,119,44
1,69,119,956
1,68,119,172
1,66,119,8
1,66,119,84
1,71,119,0
1,71,119,104
1,69,119,12
1,68,119,184
1,71,119,16
1,64,119,328
1,66,119,48
1,64,119,20
1,66,119,260
1,64,119,56
1,66,119,136
1,64,119,20
1,66,119,128
1,66,119,112
1,64,119,400
1,64,119,56
1,66,119,100
1,64,119,44
1,61,119,196
1,59,119,16
1,64,119,912
1,64,119,64
1,66,119,56
1,64,119,32
1,66,119,288
1,64,119,108
1,66,119,136
1,64,119,44
1,66,119,144
1,64,119,184
1,64,119,332
1,64,119,64
1,66,119,128
1,64,119,96
1,61,119,188
1,59,119,84
1,64,119,840
1,64,119,88
1,66,119,108
1,64,119,28
1,66,119,276
1,64,119,176
1,66,119,116
1,64,119,32
1,66,119,136
1,68,119,164
1,66,119,156
1,64,119,28
1,61,119,296
1,64,119,192
1,66,119,88
1,64,119,20
1,67,119,592
1,66,119,32
1,64,119,136
1,61,119,136
1,59,119,48
1,61,119,172
1,64,119,28
1,64,119,24
1,64,119,300
1,64,119,104
1,66,119,36
1,64,119,32
1,66,119,288
1,64,119,160
1,66,119,140
1,64,119,32
1,66,119,136
1,68,119,188
1,66,119,124
1,64,119,12
1,61,119,20
1,64,119,284
1,66,119,140
1,64,119,20
1,61,119,204
1,64,119,316
1,61,119,84
1,59,119,180
1,64,119,348
1,64,119,132
1,66,119,120
1,64,119,68
1,66,119,284
1,64,119,268
1,66,119,112
1,64,119,44
1,66,119,116
1,68,119,168
1,61,119,464
1,64,119,312
1,61,119,32
1,59,119,244
1,61,119,384
1,64,119,60
1,64,119,112
1,66,119,148
1,64,119,28
1,61,119,224
1,64,119,32
1,66,119,24
1,66,119,472
1,64,119,24
1,68,119,124
1,64,119,184
1,66,119,104
1,64,119,20
1,61,119,240
1,59,119,24
1,64,119,1068
1,64,119,120
1,66,119,136
1,64,119,40
1,66,119,492
1,64,119,36
1,66,119,140
1,64,119,76
1,66,119,140
1,68,119,68
1,61,119,416
1,64,119,164
1,66,119,72
1,61,119,32
1,67,119,560
1,66,119,148
1,64,119,72
1,61,119,92
1,59,119,108
1,61,119,96
1,64,119,36
1,64,119,284
1,66,119,28
1,64,119,52
1,66,119,264
1,64,119,168
1,66,119,116
1,64,119,36
1,66,119,136
1,64,119,36
1,64,119,348
1,66,119,208
1,64,119,108
1,61,119,20
1,59,119,124
2,28,127,1540
2,33,127,384
2,33,127,224
2,30,127,224
2,30,127,492
2,35,127,4
2,28,127,256
2,33,127,332
2,33,127,176
2,30,127,212
2,33,127,160
2,30,127,204
2,35,127,148
2,28,127,8
2,33,127,344
2,33,127,180
2,30,127,192
2,30,127,496
2,35,127,192
2,28,127,256
2,33,127,316
2,33,127,172
2,30,127,200
2,33,127,168
2,30,127,192
2,35,127,152
2,28,127,136
2,30,127,8
2,32,127,4
2,33,127,52
2,33,127,116
2,32,127,4
2,30,127,192
2,30,127,212
2,37,127,192
2,30,127,8
2,35,127,32
2,37,127,192
2,35,127,20
2,37,127,192
2,28,127,176
2,30,127,0
2,32,127,20
2,33,127,8
2,33,127,136
2,32,127,196
2,30,127,0
2,30,127,152
2,37,127,0
2,30,127,12
2,35,127,188
2,35,127,116
2,28,127,148
2,30,127,188
2,32,127,8
2,33,127,20
2,33,127,80
2,32,127,192
2,30,127,184
2,30,127,172
2,37,127,196
2,30,127,184
2,35,127,176
2,37,127,144
2,35,127,172
2,37,127,12
2,28,127,12
2,30,127,192
2,32,127,8
2,33,127,8
2,33,127,108
2,32,127,192
2,30,127,0
2,30,127,200
2,37,127,192
2,30,127,180
2,35,127,40
2,35,127,144
2,28,127,172
2,30,127,192
2,32,127,20
2,33,127,16
2,33,127,92
2,32,127,0
2,30,127,192
2,30,127,144
2,37,127,192
2,30,127,4
2,35,127,192
2,37,127,4
2,35,127,188
2,40,127,0
2,28,127,92
2,30,127,192
2,32,127,12
2,33,127,8
2,33,127,68
2,32,127,192
2,30,127,4
2,30,127,148
2,37,127,192
2,30,127,184
2,35,127,192
2,35,127,128
2,28,127,132
2,30,127,196
2,32,127,8
2,33,127,20
2,33,127,100
2,32,127,196
2,30,127,0
2,30,127,180
2,37,127,4
2,30,127,196
2,35,127,172
2,37,127,8
2,35,127,8
2,37,127,192
2,28,127,4
2,30,127,188
2,32,127,160
2,33,127,20
2,33,127,92
2,32,127,188
2,30,127,8
2,30,127,224
2,37,127,196
2,30,127,16
2,35,127,8
2,35,127,116
2,28,127,72
2,30,127,192
2,32,127,168
2,33,127,16
2,33,127,56
2,32,127,192
2,30,127,8
2,30,127,144
2,37,127,192
2,30,127,184
2,35,127,176
2,37,127,172
2,35,127,4
2,32,127,188
2,28,127,28
2,30,127,192
2,32,127,8
2,33,127,24
2,33,127,124
2,32,127,4
2,30,127,0
2,30,127,204
2,37,127,192
2,30,127,184
2,35,127,16
2,35,127,164
2,28,127,196
2,30,127,192
2,32,127,8
2,33,127,28
2,33,127,88
2,32,127,192
2,30,127,12
2,30,127,112
2,37,127,192
2,30,127,156
2,35,127,164
2,37,127,180
2,35,127,8
2,37,127,8
2,28,127,192
2,30,127,12
2,32,127,0
2,33,127,20
2,33,127,112
2,32,127,196
2,30,127,0
2,30,127,160
2,37,127,192
2,30,127,180
2,35,127,68
2,35,127,140
2,28,127,188
2,33,127,392
2,33,127,192
2,30,127,192
2,30,127,520
2,35,127,192
2,28,127,240
2,33,127,324
2,33,127,160
2,30,127,180
2,33,127,156
2,30,127,200
2,35,127,144
2,28,127,12
2,33,127,324
2,33,127,180
2,30,127,156
2,30,127,520
2,35,127,0
2,35,127,156
2,28,127,116
2,33,127,340
2,33,127,160
2,30,127,192
2,33,127,148
2,30,127,156
2,35,127,148
2,28,127,120
2,30,127,28
2,32,127,28
2,33,127,12
2,33,127,84
2,32,127,192
2,30,127,8
2,30,127,120
2,37,127,12
2,30,127,192
2,35,127,4
2,37,127,192
2,35,127,8
2,37,127,192
2,28,127,184
2,30,127,172
2,32,127,172
2,33,127,16
2,33,127,116
2,32,127,0
2,30,127,196
2,30,127,128
2,37,127,0
2,30,127,192
2,35,127,16
2,35,127,140
2,28,127,88
2,30,127,196
2,32,127,180
2,33,127,8
2,33,127,104
2,32,127,192
2,30,127,8
2,30,127,152
2,37,127,0
2,30,127,12
2,35,127,188
2,37,127,172
2,35,127,8
2,37,127,188
2,28,127,180
2,30,127,0
2,32,127,24
2,33,127,20
2,33,127,88
2,32,127,192
2,30,127,8
2,30,127,208
2,37,127,4
2,30,127,188
2,35,127,40
2,35,127,128
2,28,127,156
2,28,127,372
2,38,127,24
2,28,127,188
2,31,127,8
2,38,127,192
2,28,127,16
2,28,127,72
2,28,127,256
2,38,127,8
2,28,127,192
2,28,127,168
2,28,127,40
2,28,127,252
2,38,127,96
2,28,127,184
2,31,127,136
2,38,127,188
2,28,127,180
2,28,127,356
2,28,127,40
2,28,127,84
2,31,127,188
2,38,127,184
2,28,127,4
2,28,127,272
2,38,127,96
2,28,127,184
2,31,127,0
2,28,127,20
2,28,127,72
2,28,127,92
2,28,127,276
2,38,127,20
2,28,127,12
2,31,127,20
2,28,127,192
2,33,127,28
2,33,127,228
2,31,127,12
2,33,127,196
2,31,127,180
2,35,127,20
2,35,127,188
2,38,127,96
2,35,127,180
2,33,127,172
2,38,127,96
2,35,127,80
2,33,127,0
2,35,127,8
2,36,127,40
2,35,127,152
2,33,127,152
2,31,127,196
2,33,127,28
2,33,127,104
2,31,127,192
2,33,127,4
2,36,127,16
2,33,127,92
2,31,127,224
2,33,127,20
2,33,127,84
2,33,127,112
2,35,127,8
2,35,127,72
2,33,127,92
2,35,127,132
2,33,127,112
2,35,127,72
2,36,127,104
2,35,127,140
2,33,127,12
2,31,127,100
2,33,127,32
2,35,127,12
2,33,127,124
2,31,127,92
2,33,127,116
2,35,127,116
2,35,127,80
2,33,127,148
2,35,127,20
2,35,127,112
2,38,127,192
2,33,127,92
2,35,127,92
2,33,127,28
2,35,127,24
2,35,127,108
2,33,127,380
2,35,127,8
2,38,127,104
2,35,127,16
2,33,127,196
2,33,127,184
2,33,127,196
2,33,127,148
2,33,127,144
2,35,127,108
2,35,127,96
2,35,127,124
2,35,127,128
2,35,127,108
2,28,127,8
2,33,127,364
2,30,127,544
2,35,127,712
2,35,127,148
2,28,127,140
2,33,127,344
2,30,127,504
2,35,127,708
2,28,127,4
2,33,127,332
2,30,127,500
2,35,127,672
2,35,127,136
2,28,127,164
2,33,127,304
2,30,127,504
2,35,127,716
2,28,127,288
2,33,127,312
2,30,127,492
2,35,127,704
2,35,127,120
2,28,127,172
2,33,127,312
2,30,127,500
2,35,127,696
2,35,127,124
2,32,127,160
2,32,127,152
2,32,127,112
2,35,127,192
2,37,127,24
2,32,127,148
2,37,127,0
2,37,127,124
2,35,127,12
2,37,127,8
2,30,127,4
2,37,127,572
2,42,127,0
2,42,127,124
2,37,127,192
2,30,127,32
2,35,127,188
2,35,127,120
2,35,127,120
2,35,127,88
2,35,127,92
2,35,127,108
2,32,127,28
2,32,127,72
2,32,127,112
2,35,127,192
2,32,127,180
2,37,127,184
2,37,127,124
2,37,127,88
2,32,127,12
2,37,127,192
2,30,127,16
2,37,127,32
2,42,127,12
2,42,127,124
2,37,127,192
2,30,127,24
2,35,127,0
2,35,127,120
2,35,127,80
2,35,127,68
2,47,127,192
2,35,127,140
2,35,127,76
2,35,127,96
2,35,127,92
2,35,127,108
2,28,127,576
2,28,127,4
2,30,127,184
2,32,127,8
2,33,127,24
2,33,127,108
2,32,127,0
2,30,127,36
2,30,127,128
2,37,127,192
2,30,127,8
2,35,127,192
2,37,127,188
2,35,127,0
2,37,127,20
2,28,127,0
2,30,127,12
2,32,127,16
2,33,127,8
2,33,127,128
2,32,127,192
2,30,127,12
2,30,127,216
2,37,127,0
2,30,127,4
2,35,127,44
2,35,127,140
2,28,127,228
2,30,127,192
2,32,127,20
2,33,127,20
2,33,127,108
2,32,127,196
2,30,127,28
2,30,127,96
2,37,127,192
2,30,127,176
2,35,127,8
2,37,127,192
2,35,127,0
2,32,127,12
2,28,127,20
2,30,127,192
2,32,127,0
2,33,127,28
2,33,127,180
2,32,127,0
2,30,127,8
2,30,127,200
2,37,127,8
2,30,127,20
2,35,127,80
2,35,127,180
2,28,127,236
2,30,127,8
2,32,127,24
2,33,127,12
2,33,127,120
2,32,127,8
2,30,127,8
2,30,127,156
2,37,127,0
2,30,127,196
2,35,127,184
2,37,127,160
2,35,127,176
2,37,127,12
2,28,127,16
2,30,127,188
2,32,127,176
2,33,127,16
2,33,127,140
2,32,127,188
2,30,127,8
2,30,127,144
2,37,127,196
2,30,127,176
2,35,127,16
2,35,127,180
2,28,127,148
2,30,127,192
2,32,127,8
2,33,127,20
2,33,127,148
2,32,127,0
2,30,127,192
2,30,127,160
2,37,127,12
2,30,127,0
2,35,127,8
2,37,127,8
2,35,127,40
2,32,127,192
2,28,127,28
2,30,127,192
2,32,127,8
2,33,127,20
2,33,127,128
2,32,127,192
2,30,127,176
2,30,127,168
2,37,127,8
2,30,127,8
2,35,127,16
2,35,127,128
2,28,127,80
2,30,127,192
2,32,127,164
2,33,127,4
2,33,127,96
2,32,127,192
2,30,127,168
2,30,127,120
2,37,127,192
2,30,127,168
2,35,127,184
2,37,127,168
2,35,127,20
2,37,127,188
2,40,127,12
2,40,127,0
2,30,127,92
2,32,127,192
2,33,127,176
2,33,127,124
2,32,127,0
2,30,127,16
2,30,127,120
2,37,127,192
2,30,127,8
2,35,127,8
2,35,127,180
2,28,127,180
2,30,127,192
2,32,127,12
2,33,127,16
2,33,127,116
2,32,127,192
2,30,127,188
2,30,127,196
2,37,127,192
2,30,127,0
2,35,127,20
2,37,127,188
2,35,127,20
2,32,127,192
2,28,127,16
2,30,127,192
2,32,127,0
2,33,127,20
2,33,127,192
2,32,127,192
2,30,127,184
2,30,127,192
2,37,127,192
2,30,127,168
2,35,127,184
2,35,127,128
2,28,127,168
2,30,127,192
2,32,127,8
2,33,127,8
2,33,127,128
2,32,127,192
2,30,127,184
2,30,127,168
2,37,127,192
2,30,127,180
2,35,127,164
