track,note,velocity,time
0,68,3,1397
0,56,3,0
0,71,14,37
0,59,14,0
0,74,23,13
0,62,23,0
0,77,31,6
0,65,31,0
0,80,44,5
0,68,44,0
0,83,51,4
0,71,51,0
0,86,69,6
0,74,69,0
0,89,63,7
0,77,63,0
0,75,81,13
0,63,81,0
0,92,82,0
0,80,82,0
0,68,121,0
0,63,93,0
0,58,120,0
0,39,94,0
0,35,116,0
0,42,85,0
0,39,97,100
0,42,56,0
0,39,118,100
0,42,84,0
0,90,72,10
0,78,72,0
0,66,97,0
0,63,119,0
0,58,116,0
0,42,59,0
0,34,95,4
0,90,80,4
0,78,80,0
0,66,112,0
0,63,119,0
0,58,111,0
0,39,113,0
0,35,120,0
0,42,80,0
0,39,118,100
0,42,59,0
0,34,115,4
0,42,71,0
0,39,92,4
0,42,37,0
0,35,114,0
0,92,87,28
0,80,87,0
0,63,115,0
0,58,83,0
0,68,110,0
0,39,93,0
0,35,117,0
0,42,99,0
0,39,110,100
0,42,51,0
0,39,112,100
0,42,79,0
0,90,86,27
0,78,86,0
0,66,97,0
0,63,97,0
0,58,117,0
0,42,37,0
0,34,97,4
0,90,81,4
0,78,81,0
0,66,112,0
0,63,121,0
0,58,114,0
0,39,93,0
0,35,117,0
0,42,95,0
0,39,116,100
0,42,54,0
0,89,81,4
0,77,81,0
0,65,117,0
0,34,120,4
0,42,84,0
0,87,81,4
0,75,81,0
0,63,96,0
0,39,110,0
0,42,57,0
0,37,73,0
0,37,84,0
0,74,77,4
0,62,77,0
0,86,84,0
0,74,84,0
0,62,110,0
0,58,112,0
0,34,120,0
0,35,121,0
0,42,88,0
0,37,79,0
0,87,89,4
0,75,89,0
0,89,90,4
0,77,90,0
0,34,93,0
0,42,56,0
0,65,120,4
0,37,91,0
0,34,99,92
0,42,81,0
0,37,86,0
0,42,54,188
0,41,98,4
0,37,89,0
0,46,119,4
0,35,111,0
0,42,85,0
0,37,86,0
0,46,113,100
0,42,57,0
0,37,89,92
0,41,93,4
0,42,83,0
0,37,84,0
0,46,98,4
0,42,58,0
0,41,72,0
0,35,118,0
0,37,89,0
0,38,15,4
0,34,116,0
0,35,111,0
0,42,82,0
0,37,82,0
0,34,19,0
0,38,24,0
0,34,29,0
0,34,118,0
0,42,61,0
0,38,33,0
0,37,84,4
0,34,38,0
0,38,40,0
0,34,113,0
0,42,80,0
0,37,95,0
0,34,51,0
0,38,53,0
0,34,60,0
0,42,52,0
0,38,68,0
0,41,90,4
0,37,99,0
0,34,64,0
0,38,70,0
0,46,119,0
0,35,116,0
0,42,88,0
0,37,93,0
0,34,70,0
0,38,74,0
0,34,88,0
0,46,94,0
0,35,116,0
0,46,59,0
0,38,87,0
0,35,90,22
0,34,96,0
0,38,98,0
0,65,110,0
0,58,85,0
0,62,120,0
0,41,114,0
0,38,95,0
0,40,121,0
0,35,115,0
0,49,87,0
0,34,93,0
0,38,104,0
0,46,117,0
0,46,115,48
0,41,117,0
0,38,110,0
0,34,117,0
0,70,103,20
0,75,81,0
0,80,106,0
0,75,70,0
0,63,70,0
0,92,92,0
0,80,92,0
0,68,113,0
0,63,96,0
0,58,113,0
0,39,97,0
0,63,121,0
0,42,87,0
0,35,113,0
0,39,99,100
0,63,110,0
0,61,108,4
0,39,114,92
0,60,99,0
0,42,85,0
0,35,111,0
0,90,71,100
0,78,71,0
0,66,94,0
0,63,112,0
0,58,112,0
0,63,120,0
0,34,93,4
0,63,106,0
0,70,104,4
0,75,105,0
0,78,87,0
0,90,89,0
0,78,89,0
0,66,117,0
0,63,118,0
0,58,110,0
0,39,121,0
0,63,76,0
0,42,84,0
0,35,117,0
0,39,112,100
0,63,119,0
0,61,96,92
0,34,114,4
0,60,72,0
0,42,79,0
0,35,114,0
0,39,97,4
0,63,116,0
0,42,51,0
0,63,107,4
0,46,79,0
0,70,73,52
0,75,106,0
0,80,106,0
0,92,84,0
0,80,84,0
0,63,119,0
0,58,85,0
0,68,118,0
0,39,98,0
0,63,77,0
0,42,86,0
0,35,115,0
0,39,117,100
0,63,120,0
0,61,93,4
0,39,119,92
0,60,75,0
0,42,80,0
0,35,110,0
0,90,87,100
0,78,87,0
0,66,93,0
0,63,99,0
0,58,121,0
0,63,120,0
0,34,93,4
0,63,100,0
0,70,105,4
0,75,87,0
0,78,86,0
0,90,83,0
0,78,83,0
0,66,117,0
0,63,118,0
0,58,112,0
0,39,96,0
0,63,81,0
0,42,87,0
0,35,114,0
0,39,119,100
0,63,118,0
0,89,86,4
0,77,86,0
0,65,113,0
0,61,99,0
0,34,119,4
0,60,74,0
0,42,82,0
0,35,113,0
0,63,108,36
0,87,89,4
0,75,89,0
0,63,96,0
0,39,114,0
0,63,109,0
0,60,90,92
0,70,101,4
0,74,115,0
0,74,78,0
0,62,78,0
0,86,83,0
0,74,83,0
0,62,111,0
0,58,121,0
0,34,114,0
0,63,110,0
0,35,118,0
0,42,89,0
0,87,86,4
0,75,86,0
0,77,113,4
0,89,97,0
0,77,97,0
0,34,93,0
0,63,111,0
0,65,116,4
0,61,109,0
0,34,91,92
0,60,82,0
0,35,112,0
0,42,84,0
0,63,115,188
0,41,93,4
0,63,116,0
0,46,116,4
0,63,98,0
0,35,118,0
0,42,81,0
0,46,110,100
0,63,118,0
0,61,105,92
0,41,90,4
0,60,83,0
0,35,111,0
0,42,71,0
0,46,99,4
0,63,116,0
0,42,56,0
0,41,78,4
0,63,100,0
0,46,77,0
0,34,119,4
0,63,83,0
0,35,110,0
0,42,84,0
0,34,114,100
0,63,115,0
0,61,113,4
0,34,113,92
0,60,101,0
0,35,111,0
0,42,87,0
0,63,112,188
0,41,90,4
0,63,105,0
0,46,111,4
0,63,83,0
0,35,115,0
0,42,84,0
0,63,110,100
0,46,93,0
0,63,120,0
0,40,119,0
0,61,103,4
0,66,120,4
0,65,121,0
0,58,86,0
0,62,110,0
0,41,116,0
0,60,90,0
0,35,121,0
0,42,88,0
0,40,115,0
0,63,108,0
0,40,121,0
0,63,113,4
0,46,110,0
0,63,100,0
0,42,58,0
0,40,111,0
0,60,90,4
0,66,114,0
0,78,93,0
0,59,103,0
0,63,105,0
0,66,101,0
0,32,112,0
0,40,107,0
0,42,95,0
0,35,111,0
0,42,54,188
0,66,116,100
0,32,119,0
0,35,108,0
0,42,95,0
0,40,110,0
0,63,94,4
0,42,59,0
0,32,116,4
0,35,121,0
0,66,119,52
0,82,96,0
0,70,101,0
0,66,109,0
0,61,108,0
0,32,112,0
0,40,103,0
0,42,97,0
0,35,113,0
0,66,113,4
0,82,75,0
0,66,101,0
0,70,90,0
0,61,101,0
0,34,120,0
0,42,50,0
0,35,110,0
0,35,116,4
0,35,107,0
0,42,85,0
0,40,119,0
0,68,114,4
0,80,99,0
0,68,103,0
0,65,112,0
0,61,108,0
0,37,116,0
0,42,58,0
0,35,112,0
0,40,100,98
0,42,94,0
0,35,120,0
0,66,98,4
0,63,113,4
0,42,52,0
0,37,111,100
0,35,108,0
0,42,90,0
0,40,112,0
0,42,58,0
0,37,112,92
0,35,120,0
0,32,117,4
0,40,104,0
0,42,92,0
0,35,112,0
0,37,117,188
0,42,57,0
0,35,110,0
0,63,112,148
0,38,93,0
0,35,103,0
0,42,84,0
0,40,121,0
0,66,114,4
0,30,117,0
0,42,56,0
0,35,121,0
0,78,91,100
0,59,101,0
0,63,102,0
0,66,100,0
0,32,117,0
0,40,105,0
0,42,99,0
0,35,112,0
0,63,114,4
0,42,53,0
0,66,113,100
0,32,113,0
0,35,101,0
0,42,90,0
0,40,121,0
0,42,54,4
0,32,119,4
0,35,117,0
0,66,91,52
0,82,96,0
0,70,100,0
0,66,109,0
0,61,103,0
0,32,116,0
0,40,105,0
0,42,97,0
0,35,118,0
0,66,114,4
0,82,72,0
0,66,100,0
0,70,92,0
0,61,103,0
0,34,117,0
0,42,55,0
0,35,114,0
0,35,119,4
0,35,106,0
0,42,80,0
0,40,113,0
0,68,113,4
0,80,95,0
0,68,103,0
0,65,120,0
0,61,104,0
0,37,121,0
0,42,57,0
0,35,120,0
0,40,103,96
0,42,96,0
0,35,118,0
0,70,120,4
0,42,50,0
0,37,112,100
0,35,109,0
0,42,96,0
0,40,114,0
0,42,54,0
0,37,115,92
0,35,112,0
0,32,120,4
0,40,105,0
0,42,99,0
0,35,119,0
0,61,121,188
0,37,118,0
0,42,55,0
0,35,116,0
0,63,87,4
0,35,109,0
0,42,85,0
0,40,119,0
0,38,99,0
0,66,110,4
0,30,120,0
0,42,55,0
0,35,115,0
0,78,97,96
0,59,102,0
0,63,104,0
0,66,101,0
0,32,110,0
0,40,102,0
0,42,99,0
0,35,120,0
0,63,91,4
0,42,50,0
0,66,95,100
0,32,111,0
0,35,100,0
0,42,99,0
0,40,119,0
0,63,96,4
0,42,55,0
0,32,114,4
0,35,117,0
0,66,117,52
0,82,91,0
0,70,108,0
0,66,100,0
0,61,101,0
0,32,111,0
0,40,100,0
0,42,97,0
0,35,111,0
0,66,112,4
0,82,74,0
0,66,106,0
0,70,91,0
0,61,108,0
0,34,115,0
0,42,52,0
0,35,121,0
0,35,113,4
0,35,105,0
0,42,86,0
0,40,121,0
0,68,119,4
0,80,94,0
0,68,109,0
0,65,110,0
0,61,104,0
0,37,115,0
0,42,58,0
0,35,118,0
0,40,101,188
0,42,90,0
0,35,112,0
0,63,93,4
0,61,99,4
0,42,55,0
0,37,112,96
0,35,105,0
0,42,91,0
0,40,116,0
0,42,50,0
0,37,110,4
0,35,120,0
0,32,111,4
0,40,104,0
0,42,99,0
0,35,118,0
0,61,90,188
0,37,110,0
0,42,51,0
0,35,115,0
0,63,94,4
0,35,108,0
0,38,98,0
0,42,84,0
0,40,118,0
0,66,114,4
0,30,119,0
0,42,56,0
0,35,121,0
0,78,99,100
0,59,103,0
0,63,106,0
0,66,106,0
0,32,115,0
0,40,108,0
0,42,98,0
0,35,115,0
0,63,97,4
0,42,59,0
0,66,121,100
0,32,116,0
0,35,107,0
0,42,95,0
0,40,121,0
0,63,82,4
0,42,53,0
0,32,113,4
0,35,119,0
0,70,121,4
0,82,97,0
0,70,101,0
0,66,103,0
0,61,109,0
0,32,117,0
0,40,103,0
0,42,96,0
0,35,113,0
0,68,116,4
0,82,74,0
0,66,100,0
0,70,96,0
0,61,100,0
0,34,116,0
0,42,52,0
0,35,110,0
0,66,119,4
0,35,118,0
0,35,106,0
0,42,83,0
0,40,113,0
0,68,119,4
0,80,99,0
0,68,109,0
0,65,120,0
0,61,104,0
0,37,110,0
0,42,58,0
0,35,113,0
0,40,100,110
0,42,97,0
0,35,116,0
0,70,99,4
0,42,54,0
0,37,112,100
0,35,109,0
0,42,95,0
0,40,121,0
0,42,50,0
0,37,116,92
0,35,114,0
0,32,111,4
0,40,103,0
0,42,97,0
0,35,120,0
0,61,121,188
0,37,119,0
0,42,54,0
0,35,112,0
0,63,96,4
0,35,104,0
0,38,95,0
0,42,87,0
0,40,116,0
0,66,119,4
0,30,115,0
0,42,51,0
0,35,118,0
0,78,98,100
0,59,100,0
0,63,107,0
0,66,107,0
0,32,117,0
0,40,100,0
0,42,99,0
0,35,114,0
0,63,90,4
0,42,52,0
0,66,91,100
0,32,115,0
0,35,102,0
0,42,94,0
0,40,121,0
0,63,99,4
0,42,50,0
0,32,120,4
0,35,115,0
0,66,94,52
0,82,94,0
0,70,105,0
0,66,100,0
0,61,100,0
0,32,116,0
0,40,106,0
0,42,98,0
0,35,121,0
0,66,116,4
0,82,75,0
0,66,102,0
0,70,93,0
0,61,105,0
0,34,116,0
0,42,52,0
0,35,121,0
0,35,118,4
0,35,103,0
0,42,85,0
0,40,121,0
0,68,111,4
0,80,97,0
0,68,100,0
0,65,117,0
0,61,108,0
0,37,111,0
0,42,52,0
0,35,110,0
0,40,104,112
0,42,97,0
0,35,113,0
0,63,95,4
0,42,58,0
0,61,97,4
0,37,112,96
0,35,108,0
0,42,98,0
0,40,114,0
0,61,98,0
0,42,59,0
0,37,118,4
0,35,112,0
0,70,119,4
0,32,116,0
0,40,109,0
0,42,97,0
0,35,120,0
0,37,119,96
0,42,59,0
0,35,113,0
0,68,91,4
0,35,101,0
0,38,98,0
0,42,82,0
0,40,111,0
0,66,86,4
0,32,118,0
0,42,54,0
0,35,114,0
0,70,110,4
0,61,114,0
0,66,116,0
0,68,120,0
0,70,113,0
0,66,118,0
0,61,117,0
0,34,114,0
0,54,64,0
0,56,112,0
0,40,109,0
0,42,90,0
0,35,118,0
0,54,67,0
0,70,114,92
0,66,113,0
0,61,114,0
0,34,115,0
0,54,65,0
0,42,52,0
0,54,66,4
0,70,118,92
0,66,120,0
0,61,121,0
0,34,117,0
0,54,68,0
0,56,117,0
0,35,109,0
0,42,92,0
0,40,117,0
0,54,60,4
0,66,120,4
0,34,117,0
0,54,63,0
0,42,55,0
0,54,60,4
0,56,111,0
0,35,110,0
0,70,115,92
0,66,115,0
0,61,121,0
0,34,113,0
0,54,60,0
0,40,104,0
0,42,98,0
0,35,121,0
0,63,119,4
0,54,67,0
0,61,117,4
0,34,114,0
0,54,69,0
0,56,113,0
0,42,54,0
0,35,111,0
0,54,66,4
0,70,112,92
0,66,111,0
0,61,115,0
0,34,114,0
0,54,62,0
0,35,100,0
0,42,86,0
0,40,118,0
0,54,68,4
0,34,119,92
0,54,60,0
0,42,51,0
0,35,113,0
0,54,63,4
0,70,110,92
0,66,117,0
0,61,111,0
0,30,94,0
0,54,62,0
0,56,110,0
0,40,104,0
0,42,93,0
0,35,114,0
0,54,65,4
0,30,96,92
0,54,63,0
0,42,50,0
0,54,64,4
0,61,120,4
0,70,117,0
0,66,121,0
0,30,110,0
0,54,62,0
0,56,111,0
0,35,100,0
0,42,99,0
0,40,120,0
0,54,63,4
0,30,117,92
0,54,65,0
0,42,52,0
0,54,66,4
0,56,120,0
0,35,118,0
0,63,116,92
0,70,115,0
0,66,112,0
0,61,114,0
0,30,110,0
0,54,68,0
0,40,106,0
0,42,96,0
0,35,119,0
0,54,66,4
0,30,113,92
0,54,63,0
0,56,114,0
0,42,51,0
0,35,115,0
0,54,67,4
0,66,113,4
0,70,117,0
0,66,115,0
0,61,110,0
0,30,113,0
0,54,69,0
0,35,109,0
0,38,96,0
0,42,84,0
0,40,120,0
0,54,63,4
0,68,91,0
0,30,99,0
0,54,62,0
0,42,59,0
0,35,119,0
0,54,66,4
0,62,121,4
0,65,120,0
0,70,114,0
0,70,116,0
0,62,112,0
0,65,117,0
0,70,120,0
0,38,97,0
0,54,65,0
0,56,113,0
0,40,104,0
0,42,93,0
0,35,119,0
0,54,69,0
0,65,115,92
0,62,112,0
0,70,112,0
0,38,113,0
0,54,61,0
0,42,56,0
0,54,69,4
0,70,114,92
0,70,121,0
0,65,119,0
0,62,92,0
0,38,111,0
0,54,69,0
0,56,119,0
0,35,109,0
0,42,91,0
0,40,117,0
0,66,114,4
0,54,67,0
0,63,113,4
0,38,115,0
0,54,67,0
0,42,58,0
0,54,64,4
0,56,111,0
0,35,110,0
0,70,118,59
0,62,113,0
0,65,119,0
0,38,113,0
0,54,63,0
0,40,107,0
0,42,91,0
0,35,117,0
0,54,64,4
0,38,120,92
0,54,64,0
0,56,111,0
0,42,55,0
0,35,115,0
0,54,69,4
0,65,115,4
0,70,110,0
0,62,118,0
0,38,116,0
0,54,62,0
0,35,102,0
0,42,81,0
0,40,115,0
0,54,63,4
0,70,98,4
0,38,115,0
0,54,69,0
0,42,59,0
0,35,111,0
0,54,64,2
0,71,120,0
0,71,110,0
0,71,119,0
0,65,120,0
0,62,112,0
0,41,119,0
0,54,65,0
0,56,120,0
0,40,101,0
0,42,97,0
0,35,110,0
0,54,64,4
0,70,115,4
0,41,120,0
0,54,65,0
0,42,59,0
0,54,64,4
0,71,114,92
0,62,118,0
0,65,114,0
0,41,121,0
0,54,64,0
0,56,116,0
0,35,109,0
0,42,97,0
0,40,112,0
0,54,62,0
0,41,118,92
0,54,62,0
