track,note,velocity,time
1,33,98,2276
1,33,98,0
1,28,98,0
1,33,98,0
1,33,98,96
1,32,98,96
1,31,98,0
1,38,98,0
1,31,98,0
1,38,98,0
1,31,98,0
1,28,98,96
1,38,98,0
1,30,98,0
1,31,98,0
1,42,98,0
1,41,98,0
1,41,98,0
1,36,98,0
1,41,98,0
1,41,98,96
1,41,98,192
1,41,98,36
1,40,98,132
1,35,98,48
1,40,98,0
1,35,98,56
1,28,98,32
1,28,98,48
1,28,98,48
1,28,98,96
1,28,98,32
1,32,98,44
1,32,98,36
1,33,98,60
1,33,98,0
1,28,98,0
1,33,98,0
1,33,98,96
1,32,98,96
1,31,98,0
1,38,98,0
1,31,98,0
1,38,98,0
1,31,98,0
1,28,98,96
1,38,98,0
1,30,98,0
1,31,98,0
1,42,98,0
1,41,98,0
1,41,98,0
1,36,98,0
1,41,98,0
1,41,98,96
1,41,98,192
1,41,98,36
1,40,98,132
1,35,98,48
1,40,98,0
1,35,98,56
1,28,98,32
1,28,98,48
1,28,98,48
1,28,98,96
1,28,98,32
1,32,98,44
1,32,98,36
1,41,98,60
1,41,98,48
1,41,98,48
1,43,98,0
1,43,98,48
1,36,98,0
1,36,98,96
1,36,98,96
1,31,98,0
1,33,98,0
1,36,98,0
1,33,98,0
1,31,98,0
1,33,98,0
1,36,98,0
1,33,98,0
1,40,98,0
1,41,98,48
1,41,98,48
1,41,98,96
1,43,98,0
1,43,98,48
1,36,98,0
1,36,98,96
1,36,98,96
1,31,98,0
1,33,98,0
1,36,98,0
1,33,98,0
1,31,98,0
1,33,98,0
1,36,98,0
1,33,98,0
1,31,98,0
1,33,98,0
1,41,98,0
1,41,98,48
1,41,98,48
1,43,98,0
1,43,98,48
1,36,98,0
1,36,98,96
1,36,98,96
1,31,98,0
1,33,98,0
1,36,98,0
1,33,98,0
1,31,98,0
1,33,98,0
1,36,98,0
1,33,98,0
1,40,98,0
1,41,98,0
1,41,98,48
1,41,98,48
1,43,98,0
1,43,98,48
1,36,98,0
1,36,98,96
1,36,98,96
1,31,98,0
1,33,98,0
1,36,98,0
1,33,98,0
1,31,98,0
1,33,98,0
1,36,98,0
1,33,98,0
1,31,98,0
1,33,98,0
1,38,98,0
1,33,98,0
1,36,98,0
1,38,98,0
1,36,98,0
1,33,98,0
1,38,98,0
1,33,98,0
1,38,98,0
1,33,98,0
1,38,98,0
1,33,98,0
1,38,98,0
1,33,98,0
1,28,98,0
1,33,98,0
1,28,98,0
1,33,98,0
1,28,98,0
1,33,98,0
1,34,98,0
1,28,98,0
1,34,98,0
1,28,98,0
1,37,98,0
1,37,98,96
1,33,98,0
1,28,98,16
1,33,98,24
1,28,98,40
1,33,98,16
1,33,98,104
1,28,98,12
1,28,98,60
1,33,98,16
1,28,98,28
1,33,98,108
1,28,98,16
1,33,98,24
1,28,98,40
1,33,98,16
1,33,98,104
1,28,98,12
1,28,98,60
1,33,98,16
1,28,98,28
1,33,98,108
1,28,98,16
1,33,98,24
1,28,98,40
1,33,98,16
1,33,98,104
1,28,98,12
1,28,98,60
1,33,98,16
1,28,98,28
1,33,98,108
1,28,98,16
1,33,98,24
1,28,98,40
1,33,98,16
1,33,98,104
1,28,98,12
1,28,98,60
1,33,98,16
1,31,98,56
1,33,98,0
1,33,98,0
1,28,98,0
1,33,98,0
1,33,98,96
1,32,98,96
1,31,98,0
1,38,98,0
1,31,98,0
1,38,98,0
1,31,98,0
1,28,98,96
1,38,98,0
1,30,98,0
1,31,98,0
1,42,98,0
1,41,98,0
1,41,98,0
1,36,98,0
1,41,98,0
1,41,98,96
1,41,98,192
1,41,98,36
1,40,98,132
1,35,98,48
1,40,98,136
1,35,98,56
1,28,98,32
1,28,98,0
1,28,98,0
1,28,98,96
1,28,98,32
1,32,98,44
1,32,98,36
1,33,98,60
1,33,98,0
1,28,98,0
1,33,98,0
1,33,98,96
1,32,98,96
1,31,98,0
1,38,98,0
1,31,98,0
1,38,98,0
1,31,98,0
1,28,98,96
1,38,98,0
1,30,98,0
1,31,98,0
1,42,98,0
1,41,98,0
1,41,98,0
1,36,98,0
1,41,98,0
1,41,98,96
1,41,98,192
1,41,98,36
1,40,98,132
1,35,98,48
1,40,98,136
1,35,98,56
1,28,98,32
1,28,98,0
1,28,98,0
1,28,98,96
1,28,98,32
1,32,98,44
1,32,98,36
1,41,98,60
1,41,98,0
1,41,98,0
1,43,98,0
1,43,98,0
1,36,98,0
1,36,98,96
1,36,98,96
1,31,98,0
1,33,98,0
1,36,98,0
1,33,98,0
1,31,98,0
1,33,98,0
1,36,98,0
1,33,98,0
1,40,98,0
1,41,98,0
1,41,98,0
1,41,98,0
1,43,98,0
1,43,98,0
1,36,98,0
1,36,98,96
1,36,98,96
1,31,98,0
1,33,98,0
1,36,98,0
1,33,98,0
1,31,98,0
1,33,98,0
1,36,98,0
1,33,98,0
1,31,98,0
1,33,98,0
1,41,98,0
1,41,98,0
1,41,98,0
1,43,98,0
1,43,98,0
1,36,98,0
1,36,98,96
1,36,98,96
1,31,98,0
1,33,98,0
1,36,98,0
1,33,98,0
1,31,98,0
1,33,98,0
1,36,98,0
1,33,98,0
1,40,98,0
1,41,98,0
1,41,98,0
1,41,98,0
1,43,98,0
1,43,98,48
1,36,98,0
1,36,98,48
1,36,98,96
1,36,98,96
1,31,98,0
1,33,98,0
1,36,98,0
1,33,98,0
1,31,98,0
1,33,98,0
1,36,98,0
1,33,98,0
1,31,98,0
1,33,98,0
1,38,98,0
1,33,98,0
1,36,98,0
1,38,98,0
1,36,98,0
1,33,98,0
1,38,98,0
1,33,98,0
1,38,98,0
1,33,98,0
1,38,98,0
1,33,98,0
1,38,98,0
1,33,98,0
1,28,98,0
1,33,98,0
1,28,98,0
1,33,98,0
1,28,98,0
1,33,98,0
1,34,98,0
1,28,98,0
1,34,98,0
1,28,98,0
1,37,98,0
1,37,98,0
1,33,98,0
1,28,98,16
1,33,98,24
1,28,98,40
1,33,98,16
1,33,98,104
1,28,98,12
1,28,98,60
1,33,98,16
1,28,98,28
1,33,98,108
1,28,98,16
1,33,98,24
1,28,98,40
1,33,98,16
1,33,98,104
1,28,98,12
1,28,98,60
1,33,98,16
1,28,98,28
1,33,98,108
1,28,98,16
1,33,98,24
1,28,98,40
1,33,98,16
1,33,98,104
1,28,98,12
1,28,98,60
1,33,98,16
1,28,98,28
1,33,98,108
1,28,98,16
1,33,98,24
1,28,98,40
1,33,98,16
1,33,98,104
1,28,98,12
1,28,98,60
1,33,98,16
1,31,98,56
1,41,98,0
1,41,98,0
1,41,98,0
1,43,98,0
1,43,98,0
1,36,98,0
1,36,98,96
1,36,98,96
1,31,98,0
1,33,98,0
1,36,98,0
1,33,98,0
1,31,98,0
1,33,98,0
1,36,98,0
1,33,98,0
1,40,98,0
1,41,98,0
1,41,98,0
1,41,98,0
1,43,98,0
1,43,98,0
1,36,98,0
1,36,98,96
1,36,98,96
1,31,98,0
1,33,98,0
1,36,98,0
1,33,98,0
1,31,98,0
1,33,98,0
1,36,98,0
1,33,98,0
1,31,98,0
1,33,98,0
1,41,98,0
1,41,98,0
1,41,98,0
1,43,98,0
1,43,98,0
1,36,98,0
1,36,98,96
1,36,98,96
1,31,98,0
1,33,98,0
1,36,98,0
1,33,98,0
1,31,98,0
1,33,98,0
1,36,98,0
1,33,98,0
1,40,98,0
1,41,98,0
1,41,98,0
1,41,98,0
1,43,98,0
1,43,98,0
1,36,98,0
1,36,98,96
1,36,98,96
1,31,98,0
1,33,98,0
1,36,98,0
1,33,98,0
1,31,98,0
1,33,98,0
1,36,98,0
1,33,98,0
1,31,98,0
1,33,98,0
1,38,98,0
1,33,98,0
1,36,98,0
1,38,98,0
1,36,98,0
1,33,98,0
1,38,98,0
1,33,98,0
1,38,98,0
1,33,98,0
1,38,98,0
1,33,98,0
1,38,98,0
1,33,98,0
1,28,98,0
1,33,98,0
1,28,98,0
1,33,98,0
1,28,98,0
1,33,98,0
1,34,98,0
1,28,98,0
1,34,98,0
1,28,98,0
1,37,98,0
1,37,98,0
1,33,98,0
1,28,98,16
1,33,98,24
1,28,98,40
1,33,98,16
1,33,98,104
1,28,98,12
1,28,98,60
1,33,98,16
1,28,98,28
1,33,98,108
1,28,98,16
1,33,98,24
1,28,98,40
1,33,98,16
1,33,98,104
1,28,98,12
1,28,98,60
1,33,98,16
1,28,98,28
1,33,98,108
1,28,98,16
1,33,98,24
1,28,98,40
1,33,98,16
1,33,98,104
1,28,98,12
1,28,98,60
1,33,98,16
1,28,98,28
1,33,98,108
1,28,98,16
1,33,98,24
1,28,98,40
1,33,98,16
1,33,98,104
1,28,98,12
1,28,98,60
1,33,98,16
1,31,98,56
1,33,98,0
1,33,98,0
1,28,98,0
1,33,98,0
1,33,98,96
1,32,98,96
1,31,98,0
1,38,98,0
1,31,98,0
1,38,98,0
1,31,98,0
1,28,98,96
1,38,98,0
1,30,98,0
1,31,98,0
1,42,98,0
1,41,98,0
1,41,98,0
1,36,98,0
1,41,98,0
1,41,98,96
1,41,98,192
1,41,98,36
1,40,98,132
1,35,98,48
1,40,98,136
1,35,98,56
1,28,98,32
1,28,98,0
1,28,98,0
1,28,98,96
1,28,98,32
1,32,98,44
1,32,98,36
1,33,98,60
1,33,98,0
1,28,98,0
1,33,98,0
1,33,98,96
1,32,98,96
1,31,98,0
1,38,98,0
1,31,98,0
1,38,98,0
1,31,98,0
1,28,98,96
1,38,98,0
1,30,98,0
1,31,98,0
1,42,98,0
1,41,98,0
1,41,98,0
1,36,98,0
1,41,98,0
1,41,98,96
1,41,98,192
1,41,98,36
1,40,98,132
1,35,98,48
1,40,98,136
1,35,98,56
1,28,98,32
1,28,98,0
1,28,98,0
1,28,98,96
1,28,98,32
1,32,98,44
1,32,98,36
1,33,98,60
1,28,98,12
1,33,87,8
1,33,70,176
1,33,72,40
2,69,81,2636
2,72,81,772
2,72,77,88
2,74,79,28
2,76,101,108
2,72,72,56
2,69,86,0
2,72,81,8
2,74,75,100
2,76,77,88
2,76,112,108
2,74,89,0
2,68,89,4
2,69,81,0
2,72,81,772
2,72,77,88
2,74,79,28
2,76,101,108
2,72,72,56
2,69,86,0
2,72,81,8
2,74,75,100
2,76,77,88
2,76,112,108
2,74,89,0
2,68,89,4
2,79,71,12284
2,77,69,0
2,77,59,0
2,81,64,0
2,82,69,0
2,69,81,6628
2,72,81,772
2,72,77,88
2,74,79,28
2,76,101,108
2,72,72,56
2,69,86,0
2,72,81,8
2,74,75,100
2,76,77,88
2,76,112,108
2,74,89,0
2,68,89,4
2,69,81,0
2,72,81,772
2,72,77,88
2,74,79,28
2,76,101,108
2,72,72,56
2,69,86,0
2,72,81,8
2,74,75,100
2,76,77,88
2,76,112,108
2,74,89,0
2,68,89,4
2,79,75,12284
2,77,73,0
2,77,63,0
2,81,68,0
2,82,73,0
2,79,75,18912
2,77,73,0
2,77,63,0
2,81,68,0
2,82,73,0
2,69,81,6628
2,72,81,772
2,72,77,88
2,74,79,28
2,76,101,108
2,72,72,56
2,69,86,0
2,72,81,8
2,74,75,100
2,76,77,88
2,76,112,108
2,74,89,0
2,68,89,4
2,69,81,0
2,72,81,772
2,72,77,88
2,74,79,28
2,76,101,108
2,72,72,56
2,69,86,0
2,72,81,8
2,74,75,100
2,76,77,88
2,76,112,108
2,74,89,0
2,68,89,4
2,64,61,0
2,69,61,0
3,69,115,2628
3,69,109,128
3,71,92,124
3,71,80,116
3,72,98,116
3,72,98,112
3,74,109,116
3,76,115,112
3,76,115,180
3,76,121,120
3,76,109,80
3,69,92,156
3,69,98,92
3,71,92,88
3,71,80,116
3,72,98,104
3,72,98,120
3,74,109,116
3,76,115,116
3,69,109,972
3,69,104,104
3,71,80,104
3,71,86,108
3,72,104,104
3,72,98,124
3,74,115,124
3,76,115,120
3,76,115,76
3,76,115,116
3,74,115,72
3,69,109,92
3,69,109,104
3,71,92,112
3,71,78,108
3,72,98,112
3,72,92,112
3,74,109,112
3,76,109,116
3,72,121,560
3,77,104,164
3,72,115,12
3,77,109,36
3,77,80,92
3,77,92,116
3,81,115,72
3,79,104,60
3,77,78,92
3,77,92,60
3,79,121,288
3,77,98,436
3,72,86,32
3,77,92,192
3,72,104,16
3,72,92,84
3,77,98,36
3,81,86,60
3,79,80,48
3,77,78,72
3,77,92,56
3,79,109,8
3,72,76,476
3,77,80,20
3,77,74,44
3,79,98,72
3,77,98,172
3,74,104,124
3,77,86,192
3,77,80,80
3,79,109,40
3,77,70,592
3,77,70,60
3,77,64,92
3,79,80,24
3,77,78,8
3,77,78,80
3,74,98,52
3,77,98,60
3,77,78,92
3,79,115,28
3,69,109,7292
3,69,92,48
3,69,86,56
3,71,86,72
3,71,80,88
3,72,98,56
3,72,104,60
3,74,115,144
3,74,104,72
3,76,92,96
3,76,78,44
3,76,109,48
3,81,80,1028
3,81,74,48
3,76,92,0
3,74,76,20
3,72,62,80
3,74,92,96
3,74,104,20
3,72,78,28
3,69,86,12
3,69,86,96
3,69,86,40
3,69,86,56
3,69,80,324
3,69,86,80
3,72,76,88
3,72,86,64
3,74,115,48
3,69,115,44
3,69,109,128
3,71,92,124
3,71,80,116
3,72,98,116
3,72,98,112
3,74,109,116
3,76,115,112
3,76,115,180
3,76,121,120
3,76,109,80
3,69,92,112
3,69,98,140
3,71,92,88
3,71,80,116
3,72,98,104
3,72,98,120
3,74,109,116
3,76,115,116
3,69,109,972
3,69,104,104
3,71,80,104
3,71,86,108
3,72,104,104
3,72,98,124
3,74,115,124
3,76,115,120
3,76,115,76
3,76,115,116
3,74,115,72
3,69,109,92
3,69,109,104
3,71,92,112
3,71,78,108
3,72,98,112
3,72,92,112
3,74,109,112
3,76,109,116
3,72,121,560
3,77,104,164
3,72,115,12
3,77,109,36
3,77,80,92
3,77,92,116
3,81,115,72
3,79,104,60
3,77,78,92
3,77,92,60
3,79,121,8
3,77,98,436
3,72,86,32
3,77,92,192
3,72,104,16
3,72,92,84
3,77,98,36
3,81,86,60
3,79,80,48
3,77,78,72
3,77,92,56
3,79,109,72
3,72,76,476
3,77,80,20
3,77,74,44
3,79,98,72
3,77,98,172
3,74,104,124
3,77,86,192
3,77,80,80
3,79,109,40
3,77,70,592
3,77,70,60
3,77,64,92
3,79,80,24
3,77,78,8
3,77,78,80
3,74,98,52
3,77,98,60
3,77,78,92
3,79,115,28
3,69,109,7292
3,69,92,48
3,69,86,56
3,71,86,72
3,71,80,88
3,72,98,56
3,72,104,60
3,74,115,144
3,74,104,72
3,76,92,96
3,76,78,44
3,76,109,48
3,81,80,1028
3,81,74,48
3,76,92,0
3,74,76,20
3,72,62,80
3,74,92,96
3,74,104,20
3,72,78,28
3,69,86,12
3,69,86,96
3,69,86,40
3,69,86,56
3,69,80,324
3,69,86,80
3,72,76,88
3,72,86,64
3,74,115,48
3,77,72,48
3,77,64,76
3,77,68,84
3,77,72,88
3,77,78,100
3,74,86,52
3,77,78,40
3,77,80,76
3,79,92,40
3,81,80,544
3,81,78,96
3,84,104,64
3,81,92,36
3,79,92,64
3,77,92,28
3,77,81,52
3,74,86,68
3,77,72,40
3,77,92,76
3,79,80,32
3,77,72,1120
3,77,64,76
3,77,68,84
3,77,72,88
3,77,78,100
3,74,86,52
3,77,78,40
3,77,80,76
3,79,92,40
3,81,80,544
3,81,78,96
3,84,104,64
3,81,92,36
3,79,92,64
3,77,92,28
3,77,81,52
3,74,86,68
3,77,72,40
3,77,92,76
3,79,80,32
3,69,109,7244
3,69,92,48
3,69,86,56
3,71,86,72
3,71,80,88
3,72,98,56
3,72,104,60
3,74,115,144
3,74,104,72
3,76,92,96
3,76,78,44
3,76,109,48
3,81,80,1028
3,81,74,48
3,76,92,0
3,74,76,20
3,72,62,80
3,74,92,96
3,74,104,20
3,72,78,28
3,69,86,12
3,69,86,96
3,69,86,40
3,69,86,56
3,69,80,324
3,69,86,80
3,72,76,88
3,72,86,64
3,74,115,48
3,69,115,44
3,69,109,128
