track,note,velocity,time
1,83,87,960
1,83,0,42
1,80,87,78
1,80,0,42
1,83,87,78
1,83,0,42
1,80,87,78
1,80,0,42
1,83,87,78
1,83,0,42
1,80,87,78
1,80,0,42
1,83,87,18
1,83,0,42
1,83,87,78
1,83,0,42
1,80,87,18
1,80,0,42
1,80,87,18
1,80,0,42
1,83,87,18
1,83,0,42
1,80,87,78
1,80,0,42
1,83,87,78
1,83,0,42
1,80,87,78
1,80,0,42
1,83,87,78
1,83,0,42
1,80,87,78
1,80,0,42
1,83,87,18
1,83,0,42
1,83,87,78
1,83,0,42
1,80,87,18
1,80,0,42
1,80,87,18
1,80,0,42
1,83,87,18
1,83,0,42
1,80,87,78
1,80,0,42
1,83,87,78
1,83,0,42
1,80,87,78
1,80,0,42
1,83,87,78
1,83,0,42
1,80,87,78
1,80,0,42
1,83,87,18
1,83,0,42
1,83,87,78
1,83,0,42
1,80,87,18
1,80,0,42
1,80,87,18
1,80,0,42
1,83,87,18
1,83,0,42
1,80,87,78
1,80,0,42
1,83,87,78
1,83,0,42
1,80,87,78
1,80,0,42
1,83,87,78
1,83,0,42
1,80,87,78
1,80,0,42
1,83,87,18
1,83,0,42
1,83,87,78
1,83,0,42
1,80,87,18
1,80,0,42
1,80,87,18
1,80,0,42
1,83,87,18
1,83,0,42
1,80,87,78
1,80,0,42
1,83,87,78
1,83,0,42
1,80,87,78
1,80,0,42
1,83,87,78
1,83,0,42
1,80,87,78
1,80,0,42
1,83,87,18
1,83,0,42
1,83,87,78
1,83,0,42
1,80,87,18
1,80,0,42
1,80,87,18
1,80,0,42
1,83,87,18
1,83,0,42
1,80,87,78
1,80,0,42
1,83,87,78
1,83,0,42
1,80,87,78
1,80,0,42
1,83,87,78
1,83,0,42
1,80,87,78
1,80,0,42
1,83,87,18
1,83,0,42
1,83,87,78
1,83,0,42
1,80,87,18
1,80,0,42
1,80,87,18
1,80,0,42
1,83,87,18
1,83,0,42
1,80,87,78
1,80,0,42
1,83,87,78
1,83,0,42
1,80,87,78
1,80,0,42
1,83,87,78
1,83,0,42
1,80,87,78
1,80,0,42
1,83,87,18
1,83,0,42
1,83,87,78
1,83,0,42
1,80,87,18
1,80,0,42
1,80,87,18
1,80,0,42
1,83,87,18
1,83,0,42
1,80,87,78
1,80,0,42
1,83,87,78
1,83,0,42
1,80,87,78
1,80,0,42
1,83,87,78
1,83,0,42
1,80,87,78
1,80,0,42
1,83,87,18
1,83,0,42
1,83,87,78
1,83,0,42
1,80,87,18
1,80,0,42
1,80,87,18
1,80,0,42
1,83,87,18
1,83,0,42
1,80,87,78
1,80,0,42
1,83,87,78
1,83,0,42
1,80,87,78
1,80,0,42
1,83,87,78
1,83,0,42
1,80,87,78
1,80,0,42
1,83,87,18
1,83,0,42
1,83,87,78
1,83,0,42
1,80,87,18
1,80,0,42
1,80,87,18
1,80,0,42
1,83,87,18
1,83,0,42
1,80,87,78
1,80,0,42
1,83,87,78
1,83,0,42
1,80,87,78
1,80,0,42
1,83,87,78
1,83,0,42
1,80,87,78
1,80,0,42
1,83,87,18
1,83,0,42
1,83,87,78
1,83,0,42
1,80,87,18
1,80,0,42
1,80,87,18
1,80,0,42
1,83,87,18
1,83,0,42
1,80,87,78
1,80,0,42
1,83,87,78
1,83,0,42
1,80,87,78
1,80,0,42
1,83,87,78
1,83,0,42
1,80,87,78
1,80,0,42
1,83,87,18
1,83,0,42
1,83,87,78
1,83,0,42
1,80,87,18
1,80,0,42
1,80,87,18
1,80,0,42
1,83,87,18
1,83,0,42
1,80,87,78
1,80,0,42
1,83,87,78
1,83,0,42
1,80,87,78
1,80,0,42
1,83,87,78
1,83,0,42
1,80,87,78
1,80,0,42
1,83,87,18
1,83,0,42
1,83,87,78
1,83,0,42
1,80,87,18
1,80,0,42
1,80,87,18
1,80,0,42
1,83,87,18
1,83,0,42
1,80,87,78
1,80,0,42
1,83,87,78
1,83,0,42
1,80,87,78
1,80,0,42
1,83,87,78
1,83,0,42
1,80,87,78
1,80,0,42
1,83,87,18
1,83,0,42
1,83,87,78
1,83,0,42
1,80,87,18
1,80,0,42
1,80,87,18
1,80,0,42
1,83,87,18
1,83,0,42
1,80,87,78
1,80,0,42
1,83,87,78
1,83,0,42
1,80,87,78
1,80,0,42
1,83,87,78
1,83,0,42
1,80,87,78
1,80,0,42
1,83,87,18
1,83,0,42
1,83,87,78
1,83,0,42
1,80,87,18
1,80,0,42
1,80,87,18
1,80,0,42
1,83,87,18
1,83,0,42
1,80,87,78
1,80,0,42
1,83,87,78
1,83,0,42
1,80,87,78
1,80,0,42
1,83,87,78
1,83,0,42
1,80,87,78
1,80,0,42
1,83,87,18
1,83,0,42
1,83,87,78
1,83,0,42
1,80,87,18
1,80,0,42
1,80,87,18
1,80,0,42
1,83,87,18
1,83,0,42
1,80,87,78
1,80,0,42
1,83,87,78
1,83,0,42
1,80,87,78
1,80,0,42
1,83,87,78
1,83,0,42
1,80,87,78
1,80,0,42
1,83,87,18
1,83,0,42
1,83,87,78
1,83,0,42
1,80,87,18
1,80,0,42
1,80,87,18
1,80,0,42
1,83,87,11538
1,83,0,42
1,80,87,78
1,80,0,42
1,83,87,78
1,83,0,42
1,80,87,78
1,80,0,42
1,83,87,78
1,83,0,42
1,80,87,78
1,80,0,42
1,83,87,18
1,83,0,42
1,83,87,78
1,83,0,42
1,80,87,18
1,80,0,42
1,80,87,18
1,80,0,42
1,83,87,18
1,83,0,42
1,80,87,78
1,80,0,42
1,83,87,78
1,83,0,42
1,80,87,78
1,80,0,42
1,83,87,78
1,83,0,42
1,80,87,78
1,80,0,42
1,83,87,18
1,83,0,42
1,83,87,78
1,83,0,42
1,80,87,18
1,80,0,42
1,80,87,18
1,80,0,42
1,83,87,18
1,83,0,42
1,80,87,78
1,80,0,42
1,83,87,78
1,83,0,42
1,80,87,78
1,80,0,42
1,83,87,78
1,83,0,42
1,80,87,78
1,80,0,42
1,83,87,18
1,83,0,42
1,83,87,78
1,83,0,42
1,80,87,18
1,80,0,42
1,80,87,18
1,80,0,42
1,83,87,18
1,83,0,42
1,80,87,78
1,80,0,42
1,83,87,78
1,83,0,42
1,80,87,78
1,80,0,42
1,83,87,78
1,83,0,42
1,80,87,78
1,80,0,42
1,83,87,18
1,83,0,42
1,83,87,78
1,83,0,42
1,80,87,18
1,80,0,42
1,80,87,18
1,80,0,42
1,83,87,18
1,83,0,42
1,80,87,78
1,80,0,42
1,83,87,78
1,83,0,42
1,80,87,78
1,80,0,42
1,83,87,78
1,83,0,42
1,80,87,78
1,80,0,42
1,83,87,18
1,83,0,42
1,83,87,78
1,83,0,42
1,80,87,18
1,80,0,42
1,80,87,18
1,80,0,42
1,83,87,18
1,83,0,42
1,80,87,78
1,80,0,42
1,83,87,78
1,83,0,42
1,80,87,78
1,80,0,42
1,83,87,78
1,83,0,42
1,80,87,78
1,80,0,42
1,83,87,18
1,83,0,42
1,83,87,78
1,83,0,42
1,80,87,18
1,80,0,42
1,80,87,18
1,80,0,42
1,83,87,18
1,83,0,42
1,80,87,78
1,80,0,42
1,83,87,78
1,83,0,42
1,80,87,78
1,80,0,42
1,83,87,78
1,83,0,42
1,80,87,78
1,80,0,42
1,83,87,18
1,83,0,42
1,83,87,78
1,83,0,42
1,80,87,18
1,80,0,42
1,80,87,18
1,80,0,42
1,83,87,18
1,83,0,42
1,80,87,78
1,80,0,42
1,83,87,78
1,83,0,42
1,80,87,78
1,80,0,42
1,83,87,78
1,83,0,42
1,80,87,78
1,80,0,42
1,83,87,18
1,83,0,42
1,83,87,78
1,83,0,42
1,80,87,18
1,80,0,42
1,80,87,18
1,80,0,42
1,83,87,18
1,83,0,42
1,80,87,78
1,80,0,42
1,83,87,78
1,83,0,42
1,80,87,78
1,80,0,42
1,83,87,78
1,83,0,42
1,80,87,78
1,80,0,42
1,83,87,18
1,83,0,42
1,83,87,78
1,83,0,42
1,80,87,18
1,80,0,42
1,80,87,18
1,80,0,42
1,83,87,18
1,83,0,42
1,80,87,78
1,80,0,42
1,83,87,78
1,83,0,42
1,80,87,78
1,80,0,42
1,83,87,78
1,83,0,42
1,80,87,78
1,80,0,42
1,83,87,18
1,83,0,42
1,83,87,78
1,83,0,42
1,80,87,18
1,80,0,42
1,80,87,18
1,80,0,42
1,83,87,18
1,83,0,42
1,80,87,78
1,80,0,42
1,83,87,78
1,83,0,42
1,80,87,78
1,80,0,42
1,83,87,78
1,83,0,42
1,80,87,78
1,80,0,42
1,83,87,18
1,83,0,42
1,83,87,78
1,83,0,42
1,80,87,18
1,80,0,42
1,80,87,18
1,80,0,42
1,83,87,18
1,83,0,42
1,80,87,78
1,80,0,42
1,83,87,78
1,83,0,42
1,80,87,78
1,80,0,42
1,83,87,78
1,83,0,42
1,80,87,78
1,80,0,42
1,83,87,18
1,83,0,42
1,83,87,78
1,83,0,42
1,80,87,18
1,80,0,42
1,80,87,18
1,80,0,42
1,83,87,11538
1,83,0,42
1,80,87,78
1,80,0,42
1,83,87,78
1,83,0,42
1,80,87,78
1,80,0,42
1,83,87,78
1,83,0,42
1,80,87,78
1,80,0,42
1,83,87,18
1,83,0,42
1,83,87,78
1,83,0,42
1,80,87,18
1,80,0,42
1,80,87,18
1,80,0,42
1,83,87,18
1,83,0,42
1,80,87,78
1,80,0,42
1,83,87,78
1,83,0,42
1,80,87,78
1,80,0,42
1,83,87,78
1,83,0,42
1,80,87,78
1,80,0,42
1,83,87,18
1,83,0,42
1,83,87,78
1,83,0,42
1,80,87,18
1,80,0,42
1,80,87,18
1,80,0,42
1,83,87,18
1,83,0,42
1,80,87,78
1,80,0,42
1,83,87,78
1,83,0,42
1,80,87,78
1,80,0,42
1,83,87,78
1,83,0,42
1,80,87,78
1,80,0,42
1,83,87,18
1,83,0,42
1,83,87,78
1,83,0,42
1,80,87,18
1,80,0,42
1,80,87,18
1,80,0,42
1,83,87,18
1,83,0,42
1,80,87,78
1,80,0,42
1,83,87,78
1,83,0,42
1,80,87,78
1,80,0,42
1,83,87,78
1,83,0,42
1,80,87,78
1,80,0,42
1,83,87,18
1,83,0,42
1,83,87,78
1,83,0,42
1,80,87,18
1,80,0,42
1,80,87,18
1,80,0,42
1,83,87,18
1,83,0,42
1,80,87,78
1,80,0,42
1,83,87,78
1,83,0,42
1,80,87,78
1,80,0,42
1,83,87,78
1,83,0,42
1,80,87,78
1,80,0,42
1,83,87,18
1,83,0,42
1,83,87,78
1,83,0,42
1,80,87,18
1,80,0,42
1,80,87,18
1,80,0,42
1,83,87,18
1,83,0,42
1,80,87,78
1,80,0,42
1,83,87,78
1,83,0,42
1,80,87,78
1,80,0,42
1,83,87,78
1,83,0,42
1,80,87,78
1,80,0,42
1,83,87,18
1,83,0,42
1,83,87,78
1,83,0,42
1,80,87,18
1,80,0,42
1,80,87,18
1,80,0,42
1,83,87,18
1,83,0,42
1,80,87,78
1,80,0,42
1,83,87,78
1,83,0,42
1,80,87,78
1,80,0,42
1,83,87,78
1,83,0,42
1,80,87,78
1,80,0,42
1,83,87,18
1,83,0,42
1,83,87,78
1,83,0,42
1,80,87,18
1,80,0,42
1,80,87,18
1,80,0,42
1,83,87,18
1,83,0,42
1,80,87,78
1,80,0,42
1,83,87,78
1,83,0,42
1,80,87,78
1,80,0,42
1,83,87,78
1,83,0,42
1,80,87,78
1,80,0,42
1,83,87,18
1,83,0,42
1,83,87,78
1,83,0,42
1,80,87,18
1,80,0,42
1,80,87,18
1,80,0,42
1,83,87,1938
1,83,0,42
1,80,87,78
1,80,0,42
1,83,87,78
1,83,0,42
1,80,87,78
1,80,0,42
1,83,87,78
1,83,0,42
1,80,87,78
1,80,0,42
1,83,87,18
1,83,0,42
1,83,87,78
1,83,0,42
1,80,87,18
1,80,0,42
1,80,87,18
1,80,0,42
1,83,87,18
1,83,0,42
1,80,87,78
1,80,0,42
1,83,87,78
1,83,0,42
1,80,87,78
1,80,0,42
1,83,87,78
1,83,0,42
1,80,87,78
1,80,0,42
1,83,87,18
1,83,0,42
1,83,87,78
1,83,0,42
1,80,87,18
1,80,0,42
1,80,87,18
1,80,0,40
1,83,87,20
1,83,0,42
1,80,87,78
1,80,0,42
1,83,87,78
1,83,0,42
1,80,87,78
1,80,0,42
1,83,87,78
1,83,0,42
1,80,87,78
1,80,0,42
1,83,87,18
1,83,0,42
1,83,87,78
1,83,0,42
1,80,87,18
1,80,0,42
1,80,87,18
1,80,0,40
1,83,87,20
1,83,0,42
1,80,87,78
1,80,0,42
1,83,87,78
1,83,0,42
1,80,87,78
1,80,0,42
1,83,87,78
1,83,0,42
1,80,87,78
1,80,0,42
1,83,87,18
1,83,0,42
1,83,87,78
1,83,0,42
1,80,87,18
1,80,0,42
1,80,87,18
1,80,0,42
1,83,87,18
1,83,0,42
1,80,87,78
1,80,0,42
1,83,87,78
1,83,0,42
1,80,87,78
1,80,0,42
1,83,87,78
1,83,0,42
1,80,87,78
1,80,0,42
1,83,87,18
1,83,0,42
1,83,87,78
1,83,0,42
1,80,87,18
1,80,0,42
1,80,87,18
1,80,0,42
1,83,87,18
1,83,0,42
1,80,87,78
1,80,0,42
1,83,87,78
1,83,0,42
1,80,87,78
1,80,0,42
1,83,87,78
1,83,0,42
1,80,87,78
1,80,0,42
1,83,87,18
1,83,0,42
1,83,87,78
1,83,0,42
1,80,87,18
1,80,0,42
1,80,87,18
1,80,0,40
1,83,87,20
1,83,0,42
1,80,87,78
1,80,0,42
1,83,87,78
1,83,0,42
1,80,87,78
1,80,0,42
1,83,87,78
1,83,0,42
1,80,87,78
1,80,0,42
1,83,87,18
1,83,0,42
1,83,87,78
1,83,0,42
1,80,87,18
1,80,0,42
1,80,87,18
1,80,0,40
1,83,87,20
1,83,0,42
1,80,87,78
1,80,0,42
1,83,87,78
1,83,0,42
1,80,87,78
1,80,0,42
1,83,87,18
1,83,0,42
1,83,87,12018
1,83,0,42
1,80,87,78
1,80,0,42
1,83,87,78
1,83,0,42
1,80,87,78
1,80,0,42
1,83,87,78
1,83,0,42
1,80,87,78
1,80,0,42
1,83,87,18
1,83,0,42
1,83,87,78
1,83,0,42
1,80,87,18
1,80,0,42
1,80,87,18
1,80,0,42
1,83,87,18
1,83,0,42
1,80,87,78
1,80,0,42
1,83,87,78
1,83,0,42
1,80,87,78
1,80,0,42
1,83,87,78
1,83,0,42
1,80,87,78
1,80,0,42
1,83,87,18
1,83,0,42
1,83,87,78
1,83,0,42
1,80,87,18
1,80,0,42
1,80,87,18
1,80,0,42
1,83,87,18
1,83,0,42
1,80,87,78
1,80,0,42
1,83,87,78
1,83,0,42
1,80,87,78
1,80,0,42
1,83,87,78
1,83,0,42
1,80,87,78
1,80,0,42
1,83,87,18
1,83,0,42
1,83,87,78
1,83,0,42
1,80,87,18
1,80,0,42
1,80,87,18
1,80,0,42
1,83,87,18
1,83,0,42
1,80,87,78
1,80,0,42
1,83,87,78
1,83,0,42
1,80,87,78
1,80,0,42
1,83,87,78
1,83,0,42
1,80,87,78
1,80,0,42
1,83,87,18
1,83,0,42
1,83,87,78
1,83,0,42
1,80,87,18
1,80,0,42
1,80,87,18
1,80,0,42
1,83,87,18
1,83,0,42
1,80,87,78
1,80,0,42
1,83,87,78
1,83,0,42
1,80,87,78
1,80,0,42
1,83,87,78
1,83,0,42
1,80,87,78
1,80,0,42
1,83,87,18
1,83,0,42
1,83,87,78
1,83,0,42
1,80,87,18
1,80,0,42
1,80,87,18
1,80,0,42
1,83,87,18
1,83,0,42
1,80,87,78
1,80,0,42
1,83,87,78
1,83,0,42
1,80,87,78
1,80,0,42
1,83,87,78
1,83,0,42
1,80,87,78
1,80,0,42
1,83,87,18
1,83,0,42
1,83,87,78
1,83,0,42
1,80,87,18
1,80,0,42
1,80,87,18
1,80,0,42
1,83,87,18
1,83,0,42
1,80,87,78
1,80,0,42
1,83,87,78
1,83,0,42
1,80,87,78
1,80,0,42
1,83,87,78
1,83,0,42
