track,note,velocity,time
1,72,101,8000
1,72,99,96
1,72,117,96
1,72,100,96
1,72,114,96
1,72,108,96
1,67,110,96
1,72,112,96
1,72,119,3380
1,72,111,96
1,72,110,96
1,72,114,96
1,72,110,96
1,72,120,96
1,72,110,96
1,69,114,96
1,72,113,3380
1,72,100,96
1,72,110,96
1,72,106,96
1,72,104,96
1,72,110,96
1,72,113,96
1,71,102,96
1,72,122,3380
1,72,117,96
1,72,118,96
1,72,115,48
1,72,108,48
1,72,106,96
1,72,112,96
1,72,100,96
1,72,106,96
1,72,119,500
1,72,112,48
1,72,106,48
1,72,113,96
1,71,109,500
1,71,113,96
1,71,105,96
1,72,113,96
1,72,122,96
1,72,110,96
1,72,109,96
1,72,119,96
1,72,108,96
1,67,103,96
1,72,108,96
1,72,97,3380
1,72,96,96
1,72,110,96
1,72,119,96
1,72,121,96
1,72,112,96
1,72,116,96
1,69,106,96
1,72,110,3380
1,72,110,96
1,72,125,96
1,72,111,96
1,72,99,96
1,72,113,96
1,72,100,96
1,71,101,96
1,72,112,3380
1,72,104,96
1,72,116,96
1,72,124,48
1,72,122,48
1,72,111,96
1,72,95,96
1,72,107,96
1,72,110,96
1,72,110,500
1,72,95,48
1,72,110,48
1,72,105,96
1,71,102,500
1,71,110,96
1,71,119,96
1,72,102,96
1,72,125,96
1,72,111,96
1,72,106,96
1,72,100,96
1,72,125,96
1,67,109,96
1,72,124,96
1,72,115,3380
1,72,110,96
1,72,111,96
1,72,118,96
1,72,108,96
1,72,96,96
1,72,109,96
1,69,110,96
1,72,107,3380
1,72,121,96
1,72,111,96
1,72,101,96
1,72,97,96
1,72,112,96
1,72,109,96
1,71,110,96
1,72,106,3380
1,72,98,96
1,72,111,96
1,72,105,48
1,72,112,48
1,72,110,96
1,72,117,96
1,72,105,96
1,72,102,96
1,72,101,500
1,72,110,48
1,72,111,48
1,72,108,96
1,71,120,500
1,71,106,96
1,71,99,96
1,72,110,96
1,72,97,96
1,72,123,96
1,72,111,96
1,72,119,96
1,72,110,96
1,67,110,96
1,72,111,96
1,72,109,3380
1,72,107,96
1,72,124,96
1,72,108,96
1,72,111,96
1,72,115,96
1,72,110,96
1,69,110,96
1,72,111,3380
1,72,107,96
1,72,104,96
1,72,110,96
1,72,110,96
1,72,108,96
1,72,112,96
1,71,109,96
1,72,112,3380
1,72,110,96
1,72,117,96
1,72,100,48
1,72,107,48
1,72,110,96
1,72,100,96
1,72,111,96
1,72,105,96
1,72,110,500
1,72,112,48
1,72,116,48
1,72,110,96
1,71,110,500
1,71,105,96
1,71,108,96
1,72,123,500
1,72,110,48
1,72,115,48
1,72,103,96
1,72,110,500
1,72,116,48
1,72,122,48
1,72,121,96
2,60,118,8000
2,60,102,96
2,60,96,96
2,60,110,96
2,60,106,96
2,60,117,96
2,55,101,96
2,60,95,96
2,60,122,3380
2,60,113,96
2,60,123,96
2,60,114,96
2,60,111,96
2,60,109,96
2,60,108,96
2,57,99,96
2,60,112,3380
2,60,109,96
2,60,110,96
2,60,110,96
2,60,101,96
2,60,110,96
2,60,119,96
2,59,118,96
2,60,109,3380
2,60,125,96
2,60,109,96
2,60,103,48
2,60,103,48
2,60,108,96
2,60,97,96
2,60,107,96
2,60,110,96
2,60,114,500
2,60,110,48
2,60,114,48
2,60,125,96
2,59,106,500
2,59,121,96
2,59,122,96
2,60,110,96
2,60,98,96
2,60,107,96
2,60,110,96
2,60,105,96
2,60,98,96
2,55,100,96
2,60,109,96
2,60,110,3380
2,60,108,96
2,60,114,96
2,60,106,96
2,60,110,96
2,60,95,96
2,60,117,96
2,57,118,96
2,60,111,3380
2,60,109,96
2,60,109,96
2,60,114,96
2,60,110,96
2,60,110,96
2,60,116,96
2,59,113,96
2,60,123,3380
2,60,109,96
2,60,111,96
2,60,108,48
2,60,106,48
2,60,107,96
2,60,116,96
2,60,110,96
2,60,118,96
2,60,107,500
2,60,110,48
2,60,108,48
2,60,112,96
2,59,110,500
2,59,110,96
2,59,119,96
2,60,110,96
2,60,107,96
2,60,113,96
2,60,123,96
2,60,110,96
2,60,103,96
2,55,100,96
2,60,109,96
2,60,105,3380
2,60,110,96
2,60,110,96
2,60,105,96
2,60,109,96
2,60,104,96
2,60,104,96
2,57,114,96
2,60,117,3380
2,60,110,96
2,60,105,96
2,60,112,96
2,60,109,96
2,60,108,96
2,60,105,96
2,59,111,96
2,60,110,3380
2,60,105,96
2,60,110,96
2,60,117,48
2,60,118,48
2,60,110,96
2,60,98,96
2,60,107,96
2,60,108,96
2,60,101,500
2,60,100,48
2,60,105,48
2,60,102,96
2,59,112,500
2,59,110,96
2,59,116,96
2,60,101,96
2,60,99,96
2,60,103,96
2,60,116,96
2,60,110,96
2,60,123,96
2,55,115,96
2,60,109,96
2,60,110,3380
2,60,110,96
2,60,112,96
2,60,110,96
2,60,116,96
2,60,110,96
2,60,108,96
2,57,107,96
2,60,118,3380
2,60,116,96
2,60,114,96
2,60,116,96
2,60,110,96
2,60,104,96
2,60,110,96
2,59,113,96
2,60,125,3380
2,60,99,96
2,60,120,96
2,60,110,48
2,60,109,48
2,60,120,96
2,60,111,96
2,60,99,96
2,60,119,96
2,60,107,500
2,60,110,48
2,60,111,48
2,60,110,96
2,59,124,500
2,59,96,96
2,59,116,96
2,60,111,500
2,60,104,48
2,60,112,48
2,60,105,96
2,60,100,500
2,60,109,48
2,60,104,48
2,60,97,96
3,60,113,4160
3,64,107,0
3,67,114,0
3,60,115,48
3,64,113,0
3,67,114,0
3,60,102,480
3,64,113,0
3,67,98,0
3,60,109,48
3,64,109,0
3,67,108,0
3,60,101,480
3,64,119,0
3,67,121,0
3,60,110,48
3,64,112,0
3,67,108,0
3,60,110,480
3,64,112,0
3,67,113,0
3,72,99,480
3,72,101,96
3,72,119,96
3,72,112,96
3,72,110,96
3,72,101,96
3,72,105,96
3,60,112,576
3,64,110,0
3,67,110,0
3,60,121,48
3,64,109,0
3,67,117,0
3,60,109,480
3,64,107,0
3,67,102,0
3,67,115,48
3,64,96,0
3,60,105,0
3,60,111,480
3,64,110,0
3,67,100,0
3,60,120,48
3,64,110,0
3,67,109,0
3,60,110,480
3,64,110,0
3,67,98,0
3,64,111,480
3,67,115,0
3,72,123,0
3,64,112,96
3,67,113,0
3,72,99,0
3,64,113,96
3,67,110,0
3,72,110,0
3,64,101,96
3,67,115,0
3,72,100,0
3,64,112,96
3,67,121,0
3,72,107,0
3,64,116,96
3,67,124,0
3,72,111,0
3,64,111,96
3,67,113,0
3,72,111,0
3,57,98,480
3,60,110,0
3,65,109,0
3,57,106,48
3,60,117,0
3,65,110,0
3,57,110,480
3,60,112,0
3,65,109,0
3,57,110,48
3,60,104,0
3,65,111,0
3,57,121,480
3,60,108,0
3,65,110,0
3,57,99,48
3,60,111,0
3,65,117,0
3,57,110,480
3,60,109,0
3,65,104,0
3,65,103,480
3,69,121,0
3,72,116,0
3,65,114,96
3,69,121,0
3,72,109,0
3,65,108,96
3,69,99,0
3,72,104,0
3,65,110,96
3,69,107,0
3,72,118,0
3,65,110,96
3,69,110,0
3,72,102,0
3,65,113,96
3,69,110,0
3,72,100,0
3,65,115,96
3,69,107,0
3,72,111,0
3,62,113,480
3,65,97,0
3,62,109,48
3,65,110,0
3,62,98,480
3,65,121,0
3,62,109,48
3,65,106,0
3,62,111,480
3,65,109,0
3,62,98,48
3,65,110,0
3,62,115,480
3,65,103,0
3,67,100,480
3,72,95,0
3,67,97,96
3,72,111,0
3,67,108,96
3,72,102,0
3,67,110,96
3,72,107,0
3,67,122,96
3,72,107,0
3,65,111,96
3,72,104,0
3,64,103,96
3,72,111,0
3,60,111,96
3,64,110,96
3,67,111,0
3,64,97,96
3,67,121,0
3,72,113,0
3,64,124,48
3,67,97,0
3,72,109,0
3,64,114,48
3,67,111,0
3,72,107,0
3,64,109,96
3,67,98,0
3,72,114,0
3,72,110,1920
3,72,107,96
3,72,113,96
3,72,119,96
3,72,101,96
3,72,106,96
3,67,115,96
3,60,109,576
3,64,110,0
3,67,110,0
3,60,124,48
3,64,110,0
3,67,109,0
3,60,124,480
3,64,110,0
3,67,115,0
3,67,98,48
3,64,98,0
3,60,119,0
3,60,116,480
3,64,121,0
3,67,110,0
3,60,112,48
3,64,116,0
3,67,111,0
3,60,110,480
3,64,111,0
3,67,110,0
3,64,113,480
3,67,112,0
3,72,101,0
3,64,111,96
3,67,110,0
3,72,99,0
3,64,102,96
3,67,115,0
3,72,107,0
3,64,99,96
3,67,120,0
3,72,110,0
3,64,110,96
3,67,113,0
3,72,108,0
3,64,110,96
3,67,114,0
3,72,110,0
3,64,108,96
3,67,110,0
3,72,110,0
3,57,112,480
3,60,102,0
3,65,119,0
3,57,125,48
3,60,113,0
3,65,100,0
3,57,108,480
3,60,114,0
3,65,110,0
3,57,109,48
3,60,123,0
3,65,114,0
3,57,102,480
3,60,109,0
3,65,104,0
3,57,99,48
3,60,118,0
3,65,113,0
3,57,107,480
3,60,118,0
3,65,124,0
3,65,105,480
3,69,99,0
3,72,122,0
3,65,106,96
3,69,118,0
3,72,115,0
3,65,118,96
3,69,104,0
3,72,97,0
3,65,112,96
3,69,122,0
3,72,111,0
3,65,118,96
3,69,112,0
3,72,109,0
3,65,110,96
3,69,106,0
3,72,102,0
3,65,114,96
3,69,109,0
3,72,109,0
3,62,110,480
3,65,122,0
3,62,114,48
3,65,113,0
3,62,109,480
3,65,95,0
3,62,109,48
3,65,110,0
3,62,111,480
3,65,112,0
3,62,101,48
3,65,100,0
3,62,101,480
3,65,111,0
3,67,101,480
3,72,119,0
3,67,120,96
3,72,110,0
3,67,101,96
3,72,104,0
3,67,113,96
3,72,119,0
3,67,104,96
3,72,108,0
3,65,118,96
3,72,110,0
3,64,121,96
3,72,110,0
3,60,105,96
3,64,119,96
3,67,108,0
3,64,113,96
3,67,117,0
3,72,107,0
3,64,103,48
3,67,109,0
3,72,107,0
3,64,121,48
3,67,109,0
3,72,121,0
3,64,116,96
3,67,95,0
3,72,96,0
3,72,101,1920
3,72,111,96
3,72,109,96
3,72,110,96
3,72,108,96
3,72,105,96
3,67,113,96
3,60,110,576
3,64,110,0
3,67,110,0
3,60,124,48
3,64,111,0
3,67,110,0
3,60,118,480
3,64,110,0
3,67,100,0
3,67,113,48
3,64,116,0
3,60,109,0
3,60,110,480
3,64,103,0
3,67,97,0
3,60,104,48
3,64,110,0
3,67,111,0
3,60,109,480
3,64,109,0
3,67,111,0
3,64,110,480
3,67,113,0
3,72,109,0
3,64,117,96
3,67,122,0
3,72,95,0
3,64,112,96
3,67,110,0
3,72,112,0
3,64,117,96
3,67,107,0
3,72,110,0
3,64,118,96
3,67,121,0
3,72,113,0
3,64,104,96
3,67,118,0
3,72,117,0
3,64,110,96
3,67,108,0
3,72,110,0
3,57,110,480
3,60,107,0
3,65,99,0
3,57,100,48
3,60,102,0
3,65,110,0
3,57,108,480
3,60,120,0
3,65,109,0
3,57,116,48
3,60,120,0
3,65,120,0
3,57,118,480
3,60,121,0
3,65,107,0
3,57,110,48
3,60,120,0
3,65,106,0
3,57,110,480
3,60,106,0
3,65,112,0
3,65,100,480
3,69,104,0
3,72,106,0
3,65,110,96
3,69,110,0
3,72,107,0
3,65,117,96
3,69,116,0
3,72,103,0
3,65,110,96
3,69,117,0
3,72,121,0
3,65,111,96
3,69,107,0
3,72,110,0
3,65,124,96
3,69,107,0
3,72,121,0
3,65,115,96
3,69,105,0
3,72,110,0
3,62,103,480
3,65,121,0
3,62,112,48
3,65,125,0
3,62,110,480
3,65,112,0
3,62,107,48
3,65,110,0
3,62,111,480
3,65,117,0
3,62,110,48
3,65,111,0
3,62,112,480
3,65,119,0
3,67,116,480
3,72,111,0
3,67,105,96
3,72,107,0
3,67,110,96
3,72,116,0
3,67,106,96
3,72,116,0
3,67,108,96
3,72,109,0
3,65,108,96
3,72,106,0
3,64,102,96
3,72,106,0
3,60,96,96
3,64,99,96
3,67,107,0
3,64,122,96
3,67,104,0
3,72,114,0
3,64,107,48
3,67,110,0
3,72,105,0
3,64,115,48
3,67,108,0
3,72,112,0
3,64,97,96
3,67,96,0
3,72,111,0
3,72,111,1920
3,72,110,96
3,72,99,96
3,72,115,96
3,72,108,96
3,72,109,96
3,67,115,96
3,60,110,576
3,64,123,0
3,67,109,0
3,60,112,48
3,64,123,0
3,67,106,0
3,60,110,480
3,64,110,0
3,67,123,0
3,67,110,48
3,64,116,0
3,60,111,0
3,60,97,480
3,64,99,0
3,67,123,0
3,60,107,48
3,64,111,0
3,67,110,0
3,60,112,480
3,64,100,0
3,67,110,0
3,64,105,480
3,67,102,0
3,72,125,0
3,64,110,96
3,67,110,0
3,72,110,0
3,64,108,96
3,67,111,0
3,72,113,0
3,64,107,96
3,67,110,0
3,72,105,0
3,64,110,96
3,67,110,0
3,72,118,0
3,64,110,96
3,67,125,0
3,72,104,0
3,64,110,96
3,67,111,0
3,72,107,0
3,57,102,480
3,60,110,0
3,65,109,0
3,57,96,48
3,60,109,0
3,65,99,0
3,57,109,480
3,60,124,0
3,65,114,0
3,57,99,48
3,60,115,0
3,65,104,0
3,57,106,480
3,60,111,0
3,65,96,0
3,57,110,48
3,60,110,0
3,65,107,0
3,57,114,480
3,60,115,0
3,65,107,0
3,65,110,480
3,69,111,0
3,72,118,0
3,65,111,96
3,69,119,0
3,72,123,0
3,65,107,96
3,69,111,0
3,72,112,0
3,65,97,96
3,69,110,0
3,72,107,0
3,65,97,96
3,69,109,0
3,72,115,0
3,65,110,96
3,69,109,0
3,72,102,0
3,65,113,96
3,69,112,0
3,72,109,0
3,62,96,480
3,65,112,0
3,62,112,48
3,65,108,0
3,62,98,480
3,65,101,0
3,62,108,48
3,65,113,0
3,62,96,480
3,65,110,0
3,62,121,48
3,65,101,0
3,62,111,480
3,65,113,0
3,67,109,480
3,72,110,0
3,67,110,96
3,72,110,0
3,67,105,96
3,72,110,0
3,67,120,96
3,72,110,0
3,67,98,96
3,72,110,0
3,65,110,96
3,72,106,0
3,64,101,96
3,72,122,0
3,60,102,96
3,64,108,96
3,67,109,0
3,64,116,96
3,67,111,0
3,72,113,0
3,64,118,48
3,67,109,0
3,72,105,0
3,64,110,48
3,67,113,0
3,72,112,0
3,64,110,96
3,67,113,0
3,72,113,0
3,64,111,2400
3,67,119,0
3,72,108,0
3,64,119,48
3,67,110,0
3,72,110,0
3,64,109,48
3,67,109,0
3,72,124,0
3,64,114,96
3,67,118,0
3,72,118,0
3,64,110,480
3,67,107,0
3,72,103,0
3,64,110,48
3,67,110,0
3,72,109,0
3,64,111,48
3,67,104,0
3,72,108,0
3,64,107,96
3,67,103,0
3,72,104,0
3,72,90,480
3,76,97,0
3,79,90,0
3,84,94,0
4,64,80,4160
4,60,80,0
4,55,80,0
4,64,80,796
4,60,80,0
4,55,80,0
4,64,72,848
4,60,72,0
4,55,72,0
4,48,60,660
4,64,102,104
4,60,102,0
4,55,102,0
4,64,80,880
4,60,80,0
4,55,80,0
4,64,80,796
4,60,80,0
4,55,80,0
4,64,72,848
4,60,72,0
4,55,72,0
4,48,60,660
4,64,102,104
4,60,102,0
4,55,102,0
4,64,82,400
4,60,82,0
4,55,82,0
4,64,76,324
4,60,76,0
4,55,76,0
4,48,68,640
4,64,78,44
4,60,78,0
4,55,78,0
4,48,53,608
4,64,80,48
4,60,80,0
4,55,80,0
4,48,13,584
4,64,85,132
4,60,85,0
4,55,85,0
4,64,82,856
4,60,82,0
4,55,82,0
4,60,70,808
4,64,58,16
4,67,82,56
4,64,76,520
4,60,76,0
4,55,76,0
4,64,78,304
4,60,78,0
4,55,78,0
4,64,82,296
4,60,82,0
4,55,82,0
4,65,82,316
4,60,82,0
4,57,82,0
4,65,76,324
4,60,76,0
4,57,76,0
4,53,68,640
4,65,78,44
4,60,78,0
4,57,78,0
4,53,53,608
4,65,80,48
4,60,80,0
4,57,80,0
4,53,13,584
4,65,85,132
4,60,85,0
4,57,85,0
4,65,85,376
4,60,85,0
