track,note,velocity,time
1,67,116,1760
1,70,104,0
1,76,112,0
1,67,108,48
1,70,109,0
1,76,114,0
1,67,123,48
1,70,123,0
1,76,109,0
1,67,109,48
1,70,123,0
1,76,119,0
1,67,113,48
1,70,110,0
1,76,103,0
1,65,110,192
1,68,110,0
1,74,102,0
1,65,110,48
1,68,104,0
1,74,109,0
1,65,108,48
1,68,112,0
1,74,106,0
1,65,116,48
1,68,104,0
1,74,105,0
1,65,110,48
1,68,109,0
1,74,122,0
1,57,105,192
1,60,109,0
1,65,104,0
1,65,110,48
1,65,97,48
1,65,102,48
1,56,97,48
1,62,108,0
1,65,118,0
1,65,124,48
1,65,110,48
1,65,109,48
1,57,104,48
1,60,98,0
1,65,105,0
1,57,110,48
1,60,107,0
1,65,112,0
1,56,110,48
1,62,106,0
1,65,109,0
1,57,103,96
1,60,121,0
1,65,103,0
1,72,116,192
1,72,113,96
1,69,101,96
1,69,110,96
1,72,118,96
1,72,109,96
1,69,95,96
1,72,114,500
1,72,120,96
1,69,110,96
1,69,113,96
1,69,115,48
1,75,122,48
1,74,111,48
1,72,118,48
1,70,112,48
1,69,110,48
1,74,122,96
1,74,98,48
1,74,110,48
1,74,108,980
1,74,111,48
1,74,110,48
1,74,110,980
1,74,112,48
1,72,111,48
1,72,108,740
1,74,111,48
1,74,102,48
1,72,99,48
1,72,106,980
1,76,122,96
1,76,102,48
1,76,102,48
1,76,105,96
1,74,110,500
1,74,102,48
1,74,107,48
1,74,110,48
1,74,122,48
1,69,111,4100
1,72,110,48
1,72,95,96
1,70,115,48
1,69,110,48
1,69,109,260
1,72,113,48
1,70,114,96
1,69,102,48
1,69,103,144
1,69,110,48
1,72,103,48
1,72,110,48
1,72,115,48
1,70,113,48
1,69,123,48
1,69,108,48
1,69,112,48
1,75,111,96
1,74,107,48
1,72,111,48
1,70,111,48
1,69,116,48
1,74,110,96
1,74,112,48
1,74,111,48
1,74,118,980
1,74,105,48
1,74,107,48
1,74,110,980
1,74,120,48
1,72,110,48
1,72,110,740
1,74,110,48
1,74,110,48
1,72,116,48
1,72,113,980
1,76,110,96
1,76,113,48
1,76,106,48
1,76,98,96
1,74,110,500
1,74,101,48
1,74,120,48
1,74,104,48
1,74,110,48
1,70,110,4340
1,70,110,96
1,70,110,48
1,70,110,48
1,70,109,48
1,70,111,48
1,70,111,48
1,70,109,48
1,68,111,1460
1,68,118,96
1,68,100,48
1,68,111,48
1,68,122,48
1,68,122,48
1,68,117,48
1,68,107,48
1,70,105,1460
1,70,123,96
1,70,113,48
1,70,103,48
1,70,119,48
1,70,124,48
1,70,106,96
1,70,114,980
1,72,117,96
1,70,111,96
1,70,116,96
1,72,110,96
1,72,119,96
1,69,110,980
1,72,100,96
1,72,110,96
1,74,110,48
1,69,106,48
1,69,110,96
1,72,110,96
1,72,116,96
1,69,98,96
1,72,102,500
1,72,110,96
1,70,99,48
1,69,115,48
1,69,102,96
1,75,108,96
1,74,110,48
1,72,113,48
1,70,112,48
1,69,108,48
1,74,102,96
1,74,115,48
1,74,103,48
1,74,110,980
1,74,108,48
1,74,98,48
1,74,123,980
1,74,110,48
1,72,109,48
1,72,110,740
1,74,114,48
1,74,108,48
1,72,111,48
1,72,110,980
1,76,110,96
1,76,110,48
1,76,108,48
1,76,97,96
1,74,117,500
1,74,108,48
1,74,113,48
1,74,106,48
1,74,106,48
1,72,110,4340
1,72,114,96
1,69,115,96
1,69,113,96
1,72,107,96
1,72,105,96
1,69,123,96
1,72,111,500
1,72,108,96
1,69,104,96
1,69,100,96
1,69,120,48
1,75,110,48
1,74,99,48
1,72,108,48
1,70,117,48
1,69,120,48
1,74,98,20
1,74,114,48
1,74,111,48
1,74,123,980
1,74,112,48
1,74,104,48
1,74,104,980
1,74,110,48
1,72,108,48
1,72,106,740
1,74,117,48
1,74,111,48
1,72,122,48
1,72,112,980
1,76,124,96
1,76,106,48
1,76,110,48
1,76,119,96
1,74,104,500
1,74,112,48
1,74,96,48
1,74,106,48
1,74,110,48
1,69,121,4100
1,72,110,48
1,72,113,96
1,70,103,48
1,69,110,48
1,69,109,260
1,72,111,48
1,70,95,96
1,69,107,48
1,69,111,144
1,69,120,48
1,72,110,48
1,72,113,48
1,72,98,48
1,70,103,48
1,69,109,48
1,69,110,48
1,69,112,48
1,75,123,96
1,74,116,48
1,72,103,48
1,70,110,48
1,69,110,48
1,74,109,96
1,74,99,48
1,74,118,48
1,74,108,980
1,74,111,48
1,74,112,48
1,74,110,980
1,74,101,48
1,72,112,48
1,72,112,740
1,74,110,48
1,74,107,48
1,72,112,48
1,72,106,980
1,76,114,96
1,76,110,48
1,76,119,48
1,76,99,96
1,74,114,500
1,74,104,48
1,74,123,48
1,74,123,48
1,74,122,48
1,70,105,4340
1,70,118,96
1,70,104,48
1,70,101,48
1,70,118,48
1,70,123,48
1,70,110,48
1,70,114,48
1,68,97,1460
1,68,106,96
1,68,101,48
1,68,108,48
1,68,110,48
1,68,102,48
1,68,110,48
1,68,114,48
1,70,105,1460
1,70,110,96
1,70,110,48
1,70,122,48
1,70,107,48
1,70,110,48
1,70,108,96
1,70,112,980
1,72,115,96
1,70,110,96
1,70,109,96
1,72,121,96
1,72,110,96
1,69,102,980
1,72,111,96
1,72,108,96
1,74,116,48
1,69,110,48
1,69,124,96
1,72,108,96
1,72,121,96
1,69,111,96
1,72,102,500
1,72,98,96
1,70,117,48
1,69,123,48
1,69,116,96
1,75,109,96
1,74,111,48
1,72,111,48
1,70,123,48
1,69,103,48
1,74,109,96
1,74,96,48
1,74,110,48
1,74,109,980
1,74,111,48
1,74,113,48
1,74,108,980
1,74,117,48
1,72,110,48
1,72,104,740
1,74,111,48
1,74,107,48
1,72,110,48
1,72,109,980
1,76,97,96
1,76,110,48
1,76,117,48
1,76,123,96
1,74,113,500
1,74,114,48
1,74,112,48
1,74,110,48
1,74,115,48
2,64,92,1760
2,67,113,0
2,70,100,0
2,64,109,48
2,67,97,0
2,70,89,0
2,64,99,48
2,67,113,0
2,70,100,0
2,64,102,48
2,67,100,0
2,70,96,0
2,64,100,48
2,67,102,0
2,70,112,0
2,62,100,192
2,65,100,0
2,68,101,0
2,62,92,48
2,65,94,0
2,68,100,0
2,62,95,48
2,65,105,0
2,68,102,0
2,62,112,48
2,65,98,0
2,68,100,0
2,62,113,48
2,65,99,0
2,68,107,0
2,53,100,192
2,57,98,0
2,60,101,0
2,60,114,48
2,60,98,48
2,60,99,48
2,53,114,48
2,57,98,0
2,60,102,0
2,60,91,48
2,60,100,48
2,60,100,48
2,53,100,48
2,57,99,0
2,60,95,0
2,53,98,48
2,57,97,0
2,60,108,0
2,53,98,48
2,57,100,0
2,60,108,0
2,53,91,96
2,57,100,0
2,60,102,0
2,69,95,192
2,69,99,96
2,65,107,96
2,65,100,96
2,69,110,96
2,69,106,96
2,65,99,96
2,69,94,500
2,69,112,96
2,65,91,96
2,65,107,96
2,65,100,48
2,72,104,48
2,70,113,48
2,69,110,48
2,67,113,48
2,65,101,48
2,69,96,96
2,69,92,48
2,68,112,48
2,68,85,980
2,68,100,48
2,68,109,48
2,68,100,980
2,68,100,48
2,69,101,48
2,69,99,740
2,69,87,48
2,70,100,48
2,69,95,48
2,69,99,980
2,70,90,96
2,70,100,48
2,70,111,48
2,70,110,96
2,68,106,500
2,68,89,48
2,68,97,48
2,68,88,48
2,68,103,48
2,65,100,4100
2,69,100,48
2,69,101,96
2,67,98,48
2,65,104,48
2,65,87,260
2,69,99,48
2,67,99,96
2,65,99,48
2,65,89,144
2,65,93,48
2,69,100,48
2,69,103,48
2,69,91,48
2,67,94,48
2,65,113,48
2,65,95,48
2,65,96,48
2,72,93,96
2,70,89,48
2,69,111,48
2,67,100,48
2,65,103,48
2,69,99,96
2,69,106,48
2,68,107,48
2,68,100,980
2,68,91,48
2,68,108,48
2,68,95,980
2,68,107,48
2,69,97,48
2,69,86,740
2,69,100,48
2,70,100,48
2,69,86,48
2,69,98,980
2,70,108,96
2,70,101,48
2,70,100,48
2,70,103,96
2,68,92,500
2,68,108,48
2,68,106,48
2,68,107,48
2,68,89,48
2,65,98,4340
2,65,94,96
2,65,87,48
2,65,99,48
2,65,112,48
2,65,104,48
2,65,103,48
2,65,113,48
2,63,113,1460
2,63,91,96
2,63,112,48
2,63,96,48
2,63,110,48
2,63,115,48
2,63,94,48
2,63,105,48
2,65,101,1460
2,65,98,96
2,65,100,48
2,65,100,48
2,65,110,48
2,65,94,48
2,65,91,96
2,65,114,980
2,67,98,96
2,67,93,96
2,67,100,96
2,67,109,96
2,67,114,96
2,64,94,980
2,69,106,96
2,69,97,96
2,70,101,48
2,65,103,48
2,65,99,96
2,69,96,96
2,69,106,96
2,65,94,96
2,69,94,500
2,69,104,96
2,67,88,48
2,65,111,48
2,65,98,96
2,72,101,96
2,70,101,48
2,69,90,48
2,67,104,48
2,65,98,48
2,69,100,96
2,69,93,48
2,68,93,48
2,68,93,980
2,68,87,48
2,68,99,48
2,68,108,980
2,68,90,48
2,69,110,48
2,69,100,740
2,69,100,48
2,70,85,48
2,69,99,48
2,69,102,980
2,70,104,96
2,70,96,48
2,70,100,48
2,70,100,96
2,68,96,500
2,68,114,48
2,68,106,48
2,68,96,48
2,68,93,48
2,69,102,4340
2,69,102,96
2,65,100,96
2,65,101,96
2,69,100,96
2,69,106,96
2,65,105,96
2,69,100,500
2,69,100,96
2,65,98,96
2,65,100,96
2,65,99,48
2,72,100,48
2,70,91,48
2,69,99,48
2,67,104,48
2,65,96,48
2,69,105,20
2,69,105,48
2,68,103,48
2,68,100,980
2,68,100,48
2,68,90,48
2,68,102,980
2,68,100,48
2,69,94,48
2,69,113,740
2,69,100,48
2,70,101,48
2,69,100,48
2,69,99,980
2,70,96,96
2,70,103,48
2,70,100,48
2,70,96,96
2,68,92,500
2,68,100,48
2,68,110,48
2,68,87,48
2,68,96,48
2,65,94,4100
2,69,98,48
2,69,98,96
2,67,107,48
2,65,93,48
2,65,99,260
2,69,100,48
2,67,88,96
2,65,100,48
2,65,107,144
2,65,94,48
2,69,100,48
2,69,101,48
2,69,100,48
2,67,88,48
2,65,99,48
2,65,101,48
2,65,86,48
2,72,105,96
2,70,111,48
2,69,104,48
2,67,111,48
2,65,100,48
2,69,103,96
2,69,100,48
2,68,100,48
2,68,97,980
2,68,95,48
2,68,102,48
2,68,88,980
2,68,101,48
2,69,99,48
2,69,86,740
2,69,93,48
2,70,86,48
2,69,92,48
2,69,109,980
2,70,102,96
2,70,88,48
2,70,98,48
2,70,100,96
2,68,95,500
2,68,96,48
2,68,100,48
2,68,107,48
2,68,104,48
2,65,106,4340
2,65,98,96
2,65,89,48
2,65,103,48
2,65,100,48
2,65,112,48
2,65,92,48
2,65,99,48
2,63,103,1460
2,63,87,96
2,63,98,48
2,63,114,48
2,63,87,48
2,63,102,48
2,63,99,48
2,63,106,48
2,65,107,1460
2,65,99,96
2,65,100,48
2,65,97,48
2,65,90,48
2,65,100,48
2,65,114,96
2,65,107,980
2,67,100,96
2,67,101,96
2,67,110,96
2,67,100,96
2,67,93,96
2,64,100,980
2,69,91,96
2,69,111,96
2,70,89,48
2,65,100,48
2,65,100,96
2,69,98,96
2,69,104,96
2,65,96,96
2,69,102,500
2,69,98,96
2,67,101,48
2,65,111,48
2,65,99,96
2,72,108,96
2,70,104,48
2,69,106,48
2,67,107,48
2,65,113,48
2,69,88,96
2,69,100,48
2,68,87,48
2,68,108,980
2,68,98,48
2,68,102,48
2,68,100,980
2,68,99,48
2,69,115,48
2,69,99,740
2,69,100,48
2,70,101,48
2,69,100,48
2,69,93,980
2,70,101,96
2,70,88,48
2,70,112,48
2,70,101,96
2,68,99,500
2,68,98,48
2,68,96,48
2,68,103,48
2,68,101,48
3,67,115,1760
3,70,112,0
3,76,118,0
3,67,117,48
3,70,110,0
3,76,103,0
3,67,112,48
3,70,110,0
3,76,109,0
3,67,110,48
3,70,108,0
3,76,119,0
3,67,118,48
3,70,113,0
3,76,110,0
3,65,99,192
3,68,110,0
3,74,122,0
3,65,115,48
3,68,114,0
3,74,113,0
3,65,102,48
3,68,109,0
3,74,109,0
3,65,110,48
3,68,121,0
3,74,100,0
3,65,123,48
3,68,102,0
3,74,112,0
3,57,112,192
3,60,114,0
3,65,123,0
3,65,109,48
3,65,99,48
3,65,114,48
3,56,114,48
3,62,106,0
3,65,110,0
3,65,110,48
3,65,119,48
3,65,119,48
3,57,114,48
3,60,119,0
3,65,100,0
3,57,110,48
3,60,124,0
3,65,113,0
3,56,109,48
3,62,122,0
3,65,105,0
3,57,109,96
3,60,125,0
3,65,120,0
3,69,120,768
3,72,113,0
3,69,110,96
3,72,107,0
3,65,103,96
3,69,110,0
3,65,98,96
3,69,109,0
3,69,101,96
3,72,109,0
3,69,123,96
3,72,104,0
3,65,101,96
3,69,121,0
3,69,110,192
3,72,109,0
3,69,105,96
3,72,110,0
3,65,105,96
3,69,106,0
3,65,102,96
3,69,112,0
3,65,122,48
3,69,121,0
3,72,111,48
3,75,108,0
3,70,111,48
3,74,115,0
3,69,105,48
3,72,112,0
3,67,102,48
3,70,98,0
3,65,107,48
3,69,118,0
3,74,111,96
3,74,116,48
3,62,109,288
3,65,107,0
3,68,106,0
3,62,112,260
3,65,121,0
3,68,111,0
3,62,104,260
3,65,118,0
3,68,104,0
3,62,110,48
3,65,122,0
3,68,116,0
3,62,105,48
3,65,116,0
3,68,102,0
3,62,97,288
3,65,106,0
3,68,120,0
3,62,114,260
3,65,109,0
3,68,101,0
3,62,110,260
3,65,95,0
3,68,107,0
3,62,118,48
3,65,112,0
3,68,110,0
3,62,110,48
3,65,108,0
3,68,107,0
3,60,110,288
3,65,110,0
3,69,115,0
3,60,104,288
3,69,112,0
3,65,104,0
3,60,118,288
3,65,109,0
3,69,123,0
3,65,103,48
3,69,103,0
3,65,103,48
3,69,110,0
3,60,107,288
3,65,117,0
3,69,114,0
3,60,108,288
3,65,112,0
3,69,110,0
3,60,97,288
3,65,108,0
3,69,110,0
3,60,108,260
3,65,109,0
3,69,108,0
3,67,103,48
3,70,117,0
3,76,101,0
3,67,115,48
3,70,117,0
3,76,95,0
3,67,111,48
3,70,124,0
3,76,106,0
3,67,102,96
3,70,102,0
3,76,120,0
3,65,116,192
3,68,117,0
3,74,115,0
3,65,110,48
3,68,120,0
3,74,110,0
3,65,114,48
3,68,102,0
3,74,97,0
3,65,113,48
3,68,110,0
3,74,109,0
3,65,110,48
3,68,118,0
3,74,107,0
3,57,113,20
3,60,110,0
3,65,102,0
3,65,105,48
3,65,104,48
3,65,107,48
3,65,110,48
3,65,110,48
3,65,103,48
3,65,99,48
3,65,110,48
3,65,120,48
3,65,109,48
3,65,124,96
3,69,117,260
3,69,113,48
3,72,113,0
3,69,103,96
3,72,120,0
3,67,106,48
3,70,122,0
3,65,121,48
3,69,110,0
3,65,111,48
3,69,104,0
3,69,121,48
3,72,110,0
3,67,121,96
3,70,113,0
3,65,105,48
3,69,103,0
3,65,111,144
3,69,110,0
3,65,110,48
3,69,115,0
3,69,110,48
3,72,107,0
3,69,110,48
3,72,116,0
3,69,105,48
3,72,102,0
3,67,114,48
3,70,102,0
3,65,109,48
3,69,101,0
3,65,113,48
3,69,119,0
3,65,108,48
3,69,109,0
3,72,108,96
3,75,107,0
3,70,110,48
3,74,108,0
3,69,101,48
3,72,120,0
3,67,123,48
3,70,109,0
3,65,107,48
3,69,102,0
3,74,112,96
3,74,115,48
3,62,102,288
3,65,113,0
3,68,117,0
3,62,115,288
3,65,110,0
3,68,110,0
3,62,105,288
3,65,124,0
3,68,112,0
3,62,110,48
3,65,107,0
3,68,111,0
3,62,99,48
3,65,109,0
3,68,110,0
3,62,111,288
3,65,110,0
3,68,96,0
3,62,102,288
3,65,111,0
3,68,119,0
3,62,108,288
3,65,109,0
3,68,110,0
3,62,109,48
3,65,105,0
3,68,115,0
3,62,118,48
3,65,124,0
3,68,111,0
3,60,99,288
