track,note,velocity,time
1,62,107,13824
1,53,107,10
1,53,107,26
1,58,107,80
1,60,107,192
1,62,107,10
1,63,107,192
1,65,107,158
1,63,107,922
1,62,107,168
1,63,107,162
1,62,107,356
1,60,107,154
1,62,107,172
1,60,107,358
1,58,107,180
1,62,107,16
1,53,107,576
1,53,107,40
1,58,107,48
1,58,107,52
1,60,107,192
1,62,107,8
1,63,107,192
1,65,107,152
1,63,107,920
1,62,107,182
1,63,107,160
1,62,107,362
1,60,107,156
1,62,107,180
1,60,107,0
1,58,107,192
1,65,107,58
1,61,107,0
1,61,107,46
1,65,107,0
1,65,107,16
1,61,107,0
1,61,107,40
1,65,107,0
1,63,107,86
1,66,107,0
1,61,107,16
1,65,107,0
1,56,107,8
1,61,107,0
1,61,107,144
1,65,107,0
1,61,107,44
1,65,107,0
1,61,107,28
1,65,107,0
1,66,107,0
1,63,107,0
1,60,107,18
1,63,107,0
1,61,107,130
1,65,107,0
1,61,107,24
1,65,107,0
1,65,107,44
1,61,107,0
1,65,107,2
1,68,107,0
1,63,107,192
1,66,107,0
1,61,107,0
1,65,107,0
1,63,107,4
1,58,107,0
1,61,107,20
1,58,107,0
1,65,107,20
1,61,107,0
1,61,107,46
1,65,107,0
1,61,107,48
1,65,107,0
1,66,107,384
1,63,107,0
1,63,107,8
1,63,107,0
1,61,107,384
1,60,107,384
1,58,107,384
1,62,107,768
1,65,107,0
1,60,107,768
1,63,107,924
1,62,107,140
1,63,107,168
1,62,107,346
1,60,107,0
1,62,107,160
1,60,107,370
1,58,107,176
1,60,107,14
1,62,107,3840
1,53,107,576
1,53,107,52
1,58,107,98
1,58,107,50
1,60,107,192
1,62,107,26
1,63,107,192
1,65,107,170
1,63,107,936
1,62,107,176
1,63,107,160
1,62,107,358
1,60,107,2
1,62,107,192
1,60,107,2
1,58,107,192
1,62,107,10
1,53,107,576
1,53,107,36
1,58,107,54
1,58,107,46
1,60,107,8
1,62,107,22
1,63,107,192
1,65,107,164
1,63,107,918
1,62,107,168
1,63,107,176
1,62,107,344
1,60,107,160
1,62,107,0
1,60,107,384
1,58,107,34
1,65,107,50
1,61,107,0
1,61,107,30
1,65,107,0
1,61,107,4
1,65,107,0
1,61,107,78
1,65,107,0
1,66,107,68
1,63,107,0
1,65,107,4
1,61,107,0
1,56,107,384
1,63,107,116
1,61,107,192
1,61,107,64
1,65,107,0
1,61,107,48
1,65,107,0
1,61,107,12
1,65,107,0
1,66,107,14
1,63,107,0
1,63,107,50
1,60,107,0
1,61,107,50
1,65,107,0
1,65,107,38
1,61,107,0
1,61,107,14
1,65,107,0
1,65,107,76
1,68,107,0
1,66,107,192
1,63,107,0
1,61,107,38
1,65,107,0
1,58,107,6
1,63,107,0
1,58,107,20
1,61,107,0
1,61,107,8
1,65,107,0
1,65,107,42
1,61,107,0
1,65,107,48
1,61,107,0
1,66,107,384
1,63,107,0
1,63,107,22
1,63,107,0
1,61,107,384
1,60,107,384
1,58,107,384
1,62,107,768
1,65,107,0
1,60,107,768
1,63,107,80
1,62,107,192
1,63,107,176
1,62,107,316
1,60,107,0
1,62,107,168
1,60,107,6
1,58,107,192
1,60,107,166
1,61,107,0
1,68,107,768
1,65,107,0
1,63,107,768
1,66,107,32
1,65,107,192
1,66,107,174
1,65,107,14
1,63,107,192
1,65,107,144
1,63,107,362
1,61,107,180
1,63,107,156
1,62,107,25344
1,53,107,576
1,53,107,24
1,58,107,104
1,58,107,40
1,60,107,192
1,62,107,24
1,63,107,192
1,65,107,160
1,63,107,922
1,62,107,182
1,63,107,182
1,62,107,342
1,60,107,152
1,62,107,186
1,60,107,340
1,58,107,190
1,62,107,36
1,53,107,576
1,53,107,26
1,58,107,56
1,58,107,50
1,60,107,8
1,62,107,30
1,63,107,192
1,65,107,156
1,63,107,936
1,62,107,168
1,63,107,180
1,62,107,350
1,60,107,158
1,62,107,184
1,60,107,366
1,58,107,14
1,65,107,54
1,61,107,0
1,65,107,16
1,61,107,0
1,65,107,8
1,61,107,0
1,65,107,72
1,61,107,0
1,66,107,64
1,63,107,0
1,65,107,22
1,61,107,0
1,61,107,20
1,56,107,0
1,65,107,140
1,61,107,0
1,65,107,40
1,61,107,0
1,65,107,24
1,61,107,0
1,63,107,384
1,66,107,0
1,60,107,50
1,63,107,0
1,61,107,2
1,61,107,34
1,65,107,0
1,65,107,36
1,61,107,0
1,65,107,20
1,61,107,0
1,65,107,40
1,68,107,0
1,63,107,4
1,66,107,0
1,65,107,24
1,61,107,0
1,63,107,30
1,58,107,0
1,58,107,26
1,61,107,0
1,65,107,20
1,61,107,0
1,65,107,42
1,61,107,0
1,61,107,40
1,65,107,0
1,66,107,0
1,63,107,0
1,63,107,16
1,63,107,0
1,61,107,384
1,60,107,384
1,58,107,220
1,65,107,768
1,62,107,0
1,60,107,768
1,63,107,134
1,62,107,192
1,63,107,2
1,62,107,268
1,62,107,0
1,60,107,0
1,62,107,166
1,60,107,4
1,58,107,192
1,60,107,8
1,62,107,198
1,63,107,192
1,62,107,0
1,60,107,192
1,58,107,0
1,65,107,768
1,62,107,0
1,60,107,768
1,63,107,68
1,62,107,192
1,63,107,182
1,62,107,0
1,60,107,26
1,62,107,192
1,60,107,4
1,58,107,192
1,60,107,34
1,62,107,144
1,63,107,0
1,62,107,182
1,60,107,158
1,67,107,178
1,58,107,0
1,62,107,26
1,65,107,0
1,60,107,742
1,63,107,154
1,62,107,192
1,63,107,180
1,62,107,210
1,60,107,10
1,62,107,4
1,60,107,2
1,58,107,192
1,60,107,6
1,62,107,134
1,63,107,192
1,62,107,0
1,60,107,192
1,58,107,192
1,65,107,768
1,62,107,0
1,60,107,28
1,63,107,36
1,62,107,18
1,63,107,192
1,62,107,0
1,60,107,14
1,62,107,192
1,60,107,374
1,58,107,176
1,60,107,16
2,34,94,1536
2,46,94,0
2,34,94,0
2,46,94,0
2,34,94,0
2,46,94,0
2,34,94,0
2,46,94,0
2,29,94,0
2,41,94,0
2,29,94,0
2,41,94,0
2,29,94,0
2,41,94,0
2,29,94,0
2,41,94,0
2,27,94,0
2,39,94,0
2,27,94,0
2,39,94,0
2,27,94,0
2,39,94,0
2,27,94,0
2,39,94,0
2,31,94,0
2,43,94,0
2,31,94,0
2,43,94,0
2,29,94,0
2,41,94,0
2,29,94,0
2,41,94,0
2,34,94,0
2,46,94,0
2,34,94,0
2,46,94,0
2,34,94,0
2,46,94,0
2,34,94,0
2,46,94,0
2,29,94,0
2,41,94,0
2,29,94,0
2,41,94,0
2,29,94,0
2,41,94,0
2,29,94,0
2,41,94,0
2,27,94,0
2,39,94,0
2,27,94,0
2,39,94,0
2,27,94,0
2,39,94,0
2,27,94,0
2,39,94,0
2,31,94,0
2,43,94,0
2,31,94,0
2,43,94,0
2,29,94,0
2,41,94,0
2,29,94,0
2,41,94,0
2,34,94,0
2,46,94,0
2,34,94,0
2,46,94,0
2,34,94,0
2,46,94,0
2,34,94,0
2,46,94,0
2,29,94,0
2,41,94,0
2,29,94,0
2,41,94,0
2,29,94,0
2,41,94,0
2,29,94,0
2,41,94,0
2,27,94,0
2,39,94,0
2,27,94,0
2,39,94,0
2,27,94,0
2,39,94,0
2,27,94,0
2,39,94,0
2,31,94,0
2,43,94,0
2,31,94,0
2,43,94,0
2,29,94,0
2,41,94,0
2,29,94,0
2,41,94,0
2,34,94,0
2,46,94,0
2,34,94,0
2,46,94,0
2,34,94,0
2,46,94,0
2,34,94,0
2,46,94,0
2,29,94,0
2,41,94,2
2,29,94,190
2,41,94,0
2,29,94,0
2,41,94,0
2,29,94,0
2,41,94,0
2,27,94,0
2,39,94,0
2,27,94,0
2,39,94,0
2,27,94,0
2,39,94,0
2,27,94,0
2,39,94,0
2,31,94,0
2,43,94,0
2,31,94,0
2,43,94,0
2,29,94,0
2,41,94,0
2,29,94,0
2,41,94,0
2,37,94,0
2,49,94,0
2,37,94,0
2,49,94,0
2,37,94,0
2,49,94,0
2,37,94,0
2,49,94,0
2,37,94,0
2,49,94,0
2,37,94,0
2,49,94,0
2,37,94,0
2,49,94,0
2,37,94,0
2,49,94,0
2,30,94,0
2,42,94,0
2,30,94,0
2,42,94,0
2,30,94,0
2,42,94,0
2,30,94,0
2,42,94,0
2,32,94,0
2,44,94,0
2,32,94,0
2,44,94,0
2,32,94,0
2,44,94,0
2,32,94,0
2,44,94,0
2,37,94,0
2,49,94,0
2,37,94,0
2,49,94,0
2,37,94,0
2,49,94,0
2,37,94,0
2,49,94,0
2,34,94,0
2,46,94,0
2,34,94,0
2,46,94,0
2,34,94,0
2,46,94,0
2,34,94,0
2,46,94,0
2,30,94,0
2,42,94,0
2,30,94,0
2,42,94,0
2,30,94,0
2,42,94,0
2,30,94,0
2,42,94,0
2,32,94,0
2,44,94,0
2,32,94,0
2,44,94,0
2,32,94,0
2,44,94,0
2,32,94,0
2,44,94,0
2,34,94,0
2,46,94,0
2,34,94,0
2,46,94,0
2,34,94,0
2,46,94,0
2,34,94,0
2,46,94,0
2,29,94,0
2,41,94,0
2,29,94,0
2,41,94,0
2,29,94,0
2,41,94,0
2,29,94,0
2,41,94,0
2,27,94,0
2,39,94,0
2,27,94,0
2,39,94,0
2,31,94,0
2,43,94,0
2,31,94,0
2,43,94,0
2,29,94,0
2,41,94,0
2,29,94,0
2,41,94,0
2,29,94,0
2,41,94,0
2,29,94,0
2,41,94,0
2,34,94,0
2,46,94,0
2,34,94,0
2,46,94,0
2,34,94,0
2,46,94,0
2,34,94,0
2,46,94,0
2,29,94,0
2,41,94,0
2,29,94,0
2,41,94,0
2,29,94,0
2,41,94,0
2,29,94,0
2,41,94,0
2,27,94,0
2,39,94,0
2,27,94,0
2,39,94,0
2,27,94,0
2,39,94,0
2,27,94,0
2,39,94,0
2,31,94,0
2,43,94,0
2,31,94,0
2,43,94,0
2,29,94,0
2,41,94,0
2,29,94,0
2,41,94,0
2,34,94,0
2,46,94,0
2,34,94,0
2,46,94,0
2,34,94,0
2,46,94,0
2,34,94,0
2,46,94,0
2,29,94,0
2,41,94,0
2,29,94,0
2,41,94,0
2,29,94,0
2,41,94,0
2,29,94,0
2,41,94,0
2,27,94,0
2,39,94,0
2,27,94,0
2,39,94,0
2,27,94,0
2,39,94,0
2,27,94,0
2,39,94,0
2,31,94,0
2,43,94,0
2,31,94,0
2,43,94,0
2,29,94,0
2,41,94,0
2,29,94,0
2,41,94,0
2,34,94,0
2,46,94,0
2,34,94,0
2,46,94,0
2,34,94,0
2,46,94,0
2,34,94,0
2,46,94,0
2,29,94,0
2,41,94,0
2,29,94,0
2,41,94,0
2,29,94,0
2,41,94,0
2,29,94,0
2,41,94,0
2,27,94,0
2,39,94,0
2,27,94,0
2,39,94,0
2,27,94,0
2,39,94,0
2,27,94,0
2,39,94,0
2,31,94,0
2,43,94,0
2,31,94,0
2,43,94,0
2,29,94,0
2,41,94,0
2,29,94,0
2,41,94,0
2,37,94,0
2,49,94,0
2,37,94,0
2,49,94,0
2,37,94,0
2,49,94,0
2,37,94,0
2,49,94,0
2,37,94,0
2,49,94,0
2,37,94,0
2,49,94,0
2,37,94,0
2,49,94,0
2,37,94,0
2,49,94,0
2,30,94,0
2,42,94,0
2,30,94,0
2,42,94,0
2,30,94,0
2,42,94,0
2,30,94,0
2,42,94,0
2,32,94,0
2,44,94,0
2,32,94,0
2,44,94,0
2,32,94,0
2,44,94,0
2,32,94,0
2,44,94,0
2,37,94,0
2,49,94,0
2,37,94,0
2,49,94,0
2,37,94,0
2,49,94,0
2,37,94,0
2,49,94,0
2,34,94,0
2,46,94,0
2,34,94,0
2,46,94,0
2,34,94,0
2,46,94,0
2,34,94,0
2,46,94,0
2,30,94,0
2,42,94,0
2,30,94,0
2,42,94,0
2,30,94,0
2,42,94,0
2,30,94,0
2,42,94,0
2,32,94,0
2,44,94,0
2,32,94,0
2,44,94,0
2,32,94,0
2,44,94,0
2,32,94,0
2,44,94,0
2,34,94,0
2,46,94,0
2,34,94,0
2,46,94,0
2,34,94,0
2,46,94,0
2,34,94,0
2,46,94,0
2,29,94,0
2,41,94,0
2,29,94,0
2,41,94,0
2,29,94,0
2,41,94,0
2,29,94,0
2,41,94,0
2,27,94,0
2,39,94,0
2,27,94,0
2,39,94,0
2,31,94,0
2,43,94,0
2,31,94,0
2,43,94,0
2,29,94,0
2,41,94,0
2,29,94,0
2,41,94,0
2,29,94,0
2,41,94,0
2,29,94,0
2,41,94,0
2,37,94,0
2,49,94,0
2,37,94,0
2,49,94,0
2,37,94,0
2,49,94,0
2,37,94,0
2,49,94,0
2,32,94,0
2,44,94,0
2,32,94,0
2,44,94,0
2,32,94,0
2,44,94,0
2,32,94,0
2,44,94,0
2,30,94,0
2,42,94,0
2,30,94,0
2,42,94,0
2,34,94,0
2,46,94,0
2,34,94,0
2,46,94,0
2,32,94,0
2,44,94,0
2,32,94,0
2,44,94,0
2,32,94,0
2,44,94,0
2,32,94,0
2,44,94,0
2,29,94,0
2,41,94,0
2,29,94,0
2,41,94,0
2,29,94,0
2,41,94,0
2,29,94,0
2,41,94,0
2,26,94,0
2,38,94,0
2,26,94,0
2,38,94,0
2,26,94,0
2,38,94,0
2,26,94,0
2,38,94,0
2,33,94,0
2,45,94,0
2,33,94,0
2,45,94,0
2,33,94,0
2,45,94,0
2,33,94,0
2,45,94,0
2,33,94,0
2,45,94,0
2,33,94,0
2,45,94,0
2,33,94,0
2,45,94,0
2,33,94,0
2,45,94,0
2,34,94,0
2,46,94,0
2,34,94,0
2,46,94,0
2,34,94,0
2,46,94,0
2,34,94,0
2,46,94,0
2,36,94,0
2,48,94,0
2,36,94,0
2,48,94,0
2,36,94,0
2,48,94,0
2,36,94,0
2,48,94,0
2,29,94,0
2,41,94,0
2,29,94,0
2,41,94,0
2,29,94,0
2,41,94,0
2,29,94,0
2,41,94,0
2,29,94,0
2,41,94,0
2,29,94,0
2,41,94,0
2,29,94,0
2,41,94,0
2,29,94,0
2,41,94,0
2,32,94,0
2,44,94,0
2,32,94,0
2,44,94,0
2,32,94,0
2,44,94,0
2,32,94,0
2,44,94,0
2,29,94,0
2,41,94,0
2,29,94,0
2,41,94,0
2,29,94,0
2,41,94,0
2,29,94,0
2,41,94,0
2,36,94,0
2,48,94,0
2,36,94,0
2,48,94,0
2,36,94,0
2,48,94,0
2,36,94,0
2,48,94,0
2,36,94,0
2,48,94,0
2,36,94,0
2,48,94,0
2,36,94,0
2,48,94,0
2,36,94,0
2,48,94,0
2,37,94,0
2,49,94,0
2,37,94,0
2,49,94,0
2,37,94,0
2,49,94,0
2,37,94,0
2,49,94,0
2,27,94,0
2,39,94,0
2,27,94,0
2,39,94,0
2,27,94,0
2,39,94,0
2,27,94,0
2,39,94,0
2,32,94,0
2,44,94,0
2,32,94,0
2,44,94,0
2,32,94,0
2,44,94,0
2,32,94,0
2,44,94,0
2,32,94,0
2,44,94,0
2,32,94,0
2,44,94,0
2,32,94,0
2,44,94,0
2,32,94,0
2,44,94,0
2,29,94,0
2,41,94,0
2,29,94,0
2,41,94,0
2,29,94,0
2,41,94,0
2,29,94,0
2,41,94,0
2,29,94,0
2,41,94,0
2,29,94,0
2,41,94,0
2,29,94,0
2,41,94,0
2,29,94,0
2,41,94,0
2,34,94,0
2,46,94,0
2,34,94,0
2,46,94,0
2,34,94,0
2,46,94,0
2,34,94,0
2,46,94,0
2,29,94,0
2,41,94,0
2,29,94,0
2,41,94,0
2,29,94,0
2,41,94,0
2,29,94,0
2,41,94,0
2,27,94,0
2,39,94,0
2,27,94,0
2,39,94,0
2,27,94,0
2,39,94,0
2,27,94,0
2,39,94,0
2,31,94,0
2,43,94,0
2,31,94,0
2,43,94,0
2,29,94,0
2,41,94,0
2,29,94,0
2,41,94,0
2,34,94,0
2,46,94,0
2,34,94,0
2,46,94,0
2,34,94,0
2,46,94,0
2,34,94,0
2,46,94,0
2,29,94,0
2,41,94,0
2,29,94,0
2,41,94,0
