track,note,velocity,time
0,57,36,2232
0,60,36,0
0,67,36,0
0,42,79,0
0,81,32,4
0,93,41,4
0,57,36,36
0,60,36,0
0,67,36,0
0,91,41,4
0,79,32,4
0,31,84,0
0,35,112,0
0,42,79,0
0,55,42,4
0,64,42,0
0,48,54,4
0,67,54,0
0,88,41,0
0,79,32,44
0,84,41,0
0,31,84,0
0,42,79,0
0,55,37,4
0,60,37,0
0,64,37,0
0,67,37,0
0,79,41,4
0,84,32,0
0,55,37,12
0,60,37,0
0,64,37,0
0,67,37,0
0,76,41,0
0,88,32,0
0,31,84,0
0,35,112,0
0,38,101,0
0,42,85,0
0,72,41,8
0,86,32,0
0,67,41,20
0,84,32,0
0,55,36,40
0,60,36,0
0,64,36,0
0,67,36,0
0,31,84,0
0,42,79,0
0,72,41,8
0,81,32,0
0,55,36,36
0,60,36,0
0,64,36,0
0,67,36,0
0,76,41,8
0,79,32,0
0,31,84,0
0,35,112,0
0,42,85,0
0,62,42,0
0,43,54,0
0,71,54,0
0,79,41,0
0,83,41,0
0,79,32,4
0,31,84,0
0,42,80,0
0,55,37,4
0,59,37,0
0,62,37,0
0,67,37,0
0,84,32,0
0,86,41,4
0,55,37,44
0,59,37,0
0,62,37,0
0,91,41,0
0,88,32,4
0,31,84,0
0,35,112,0
0,38,101,0
0,42,79,0
0,86,32,4
0,95,41,4
0,91,41,12
0,84,32,4
0,55,36,36
0,59,36,0
0,62,36,0
0,67,36,0
0,31,84,0
0,42,85,0
0,81,32,4
0,86,41,4
0,55,36,12
0,59,36,0
0,62,36,0
0,83,41,8
0,79,32,4
0,36,84,0
0,35,112,0
0,42,80,0
0,64,42,0
0,48,54,0
0,67,54,0
0,72,54,0
0,72,41,0
0,79,32,44
0,36,84,0
0,42,80,0
0,60,37,4
0,64,37,0
0,67,37,0
0,84,32,4
0,60,37,44
0,64,37,0
0,67,37,0
0,88,32,0
0,36,84,0
0,35,112,0
0,38,101,0
0,42,80,0
0,86,32,8
0,91,41,0
0,84,32,44
0,96,41,0
0,60,36,20
0,64,36,0
0,67,36,0
0,36,84,0
0,42,79,0
0,81,32,8
0,91,41,0
0,60,36,4
0,64,36,0
0,67,36,0
0,79,32,8
0,88,41,0
0,36,84,0
0,35,112,0
0,42,85,0
0,84,41,8
0,79,41,44
0,79,32,4
0,36,84,0
0,42,85,0
0,60,37,4
0,64,37,0
0,67,37,0
0,84,32,0
0,76,41,4
0,60,37,28
0,64,37,0
0,67,37,0
0,72,41,0
0,88,32,4
0,36,84,0
0,35,112,0
0,38,101,0
0,42,93,0
0,86,32,4
0,67,41,4
0,72,41,44
0,84,32,4
0,60,36,12
0,64,36,0
0,67,36,0
0,36,84,0
0,42,85,0
0,81,32,4
0,76,41,4
0,60,36,36
0,64,36,0
0,67,36,0
0,79,41,8
0,79,32,4
0,31,84,0
0,35,112,0
0,42,85,0
0,62,42,0
0,43,54,0
0,71,54,0
0,83,41,0
0,79,32,12
0,86,41,0
0,31,84,0
0,42,85,0
0,59,37,4
0,62,37,0
0,67,37,0
0,84,32,4
0,91,41,0
0,59,37,20
0,62,37,0
0,67,37,0
0,88,32,0
0,95,41,0
0,31,84,0
0,35,112,0
0,38,101,0
0,42,85,0
0,86,32,8
0,91,41,0
0,84,32,28
0,86,41,0
0,59,36,40
0,62,36,0
0,67,36,0
0,31,84,0
0,42,85,0
0,81,32,8
0,83,41,0
0,59,36,28
0,62,36,0
0,67,36,0
0,79,32,8
0,31,84,0
0,35,112,0
0,42,85,0
0,74,41,8
0,71,41,44
0,79,32,4
0,31,84,0
0,42,80,0
0,59,37,4
0,62,37,0
0,67,37,0
0,84,32,0
0,67,41,4
0,59,37,0
0,62,37,0
0,67,37,0
0,71,41,0
0,88,32,4
0,31,84,0
0,35,112,0
0,38,101,0
0,42,92,0
0,86,32,4
0,74,41,4
0,79,41,44
0,84,32,4
0,59,36,36
0,62,36,0
0,67,36,0
0,31,84,0
0,42,93,0
0,81,32,4
0,83,41,4
0,59,36,20
0,62,36,0
0,67,36,0
0,86,41,8
0,79,32,4
0,29,84,0
0,35,112,0
0,42,85,0
0,57,42,0
0,65,42,0
0,41,54,0
0,69,54,0
0,72,54,0
0,89,41,0
0,79,32,44
0,93,41,0
0,29,84,0
0,42,85,0
0,57,37,4
0,60,37,0
0,67,37,0
0,84,32,4
0,96,41,0
0,57,37,44
0,60,37,0
0,67,37,0
0,88,32,0
0,93,41,0
0,29,84,0
0,35,112,0
0,38,101,0
0,42,89,0
0,86,32,8
0,91,41,0
0,84,32,0
0,89,41,0
0,57,36,28
0,60,36,0
0,67,36,0
0,29,84,0
0,42,85,0
0,81,32,8
0,84,41,0
0,57,36,36
0,60,36,0
0,67,36,0
0,79,32,8
0,81,41,0
0,28,84,0
0,35,112,0
0,42,92,0
0,64,42,0
0,40,54,0
0,67,54,0
0,79,41,0
0,76,41,12
0,79,32,4
0,28,84,0
0,42,79,0
0,55,37,4
0,60,37,0
0,64,37,0
0,67,37,0
0,84,32,0
0,72,41,4
0,55,37,20
0,60,37,0
0,64,37,0
0,67,37,0
0,67,41,0
0,88,32,4
0,28,84,0
0,35,112,0
0,38,101,0
0,42,93,0
0,86,32,4
0,72,41,4
0,76,41,44
0,84,32,4
0,55,36,4
0,60,36,0
0,64,36,0
0,67,36,0
0,28,84,0
0,42,85,0
0,81,32,4
0,79,41,4
0,55,36,36
0,60,36,0
0,64,36,0
0,67,36,0
0,84,41,0
0,79,32,4
0,31,84,0
0,35,112,0
0,42,93,0
0,62,42,0
0,38,54,0
0,71,54,0
0,86,41,0
0,79,32,44
0,91,41,0
0,31,84,0
0,42,85,0
0,55,37,4
0,59,37,0
0,62,37,0
0,67,37,0
0,84,32,4
0,86,41,0
0,55,37,12
0,59,37,0
0,62,37,0
0,67,37,0
0,83,41,0
0,88,32,0
0,31,84,0
0,35,112,0
0,38,101,0
0,42,89,0
0,79,41,8
0,86,32,0
0,74,41,20
0,84,32,0
0,55,36,40
0,59,36,0
0,62,36,0
0,67,36,0
0,31,84,0
0,42,92,0
0,71,41,8
0,81,32,0
0,55,36,20
0,59,36,0
0,62,36,0
0,67,36,0
0,67,41,8
0,79,32,0
0,31,84,0
0,35,112,0
0,42,89,0
0,71,41,8
0,74,41,44
0,79,32,4
0,31,84,0
0,42,80,0
0,55,37,4
0,59,37,0
0,62,37,0
0,67,37,0
0,84,32,0
0,79,41,4
0,55,37,44
0,59,37,0
0,62,37,0
0,67,37,0
0,83,41,0
0,88,32,4
0,31,84,0
0,35,112,0
0,38,101,0
0,42,89,0
0,86,32,4
0,86,41,4
0,91,41,12
0,84,32,4
0,55,36,28
0,59,36,0
0,62,36,0
0,67,36,0
0,31,84,0
0,42,80,0
0,81,32,4
0,95,41,4
0,55,36,12
0,59,36,0
0,62,36,0
0,67,36,0
0,91,41,8
0,79,32,4
0,36,84,0
0,35,112,0
0,42,85,0
0,55,42,0
0,64,42,0
0,48,54,0
0,72,54,0
0,88,41,0
0,79,32,28
0,84,41,0
0,36,84,0
0,42,79,0
0,60,37,4
0,64,37,0
0,67,37,0
0,79,41,4
0,84,32,0
0,60,37,44
0,64,37,0
0,67,37,0
0,76,41,0
0,88,32,0
0,36,84,0
0,35,112,0
0,38,101,0
0,42,93,0
0,72,41,8
0,86,32,0
0,67,41,44
0,84,32,0
0,60,36,20
0,64,36,0
0,67,36,0
0,36,84,0
0,42,93,0
0,72,41,8
0,81,32,0
0,60,36,36
0,64,36,0
0,67,36,0
0,76,41,0
0,79,32,0
0,36,84,0
0,35,112,0
0,42,92,0
0,79,41,8
0,84,41,44
0,79,32,4
0,36,84,0
0,42,85,0
0,60,37,4
0,64,37,0
0,67,37,0
0,84,32,0
0,88,41,4
0,60,37,28
0,64,37,0
0,67,37,0
0,91,41,0
0,88,32,4
0,36,84,0
0,35,112,0
0,38,101,0
0,42,93,0
0,86,32,4
0,96,41,4
0,91,41,36
0,84,32,4
0,60,36,36
0,64,36,0
0,67,36,0
0,36,84,0
0,42,92,0
0,81,32,4
0,88,41,4
0,60,36,36
0,64,36,0
0,67,36,0
0,84,41,8
0,79,32,4
0,31,84,0
0,35,112,0
0,42,102,0
0,62,42,0
0,43,54,0
0,71,54,0
0,83,41,0
0,79,32,0
0,31,84,0
0,42,92,0
0,59,37,4
0,62,37,0
0,67,37,0
0,74,41,4
0,84,32,0
0,62,37,44
0,67,37,0
0,71,41,0
0,88,32,0
0,31,84,0
0,35,112,0
0,38,101,0
0,42,93,0
0,67,41,8
0,86,32,0
0,71,41,28
0,84,32,0
0,59,36,40
0,62,36,0
0,67,36,0
0,31,84,0
0,42,92,0
0,74,41,4
0,81,32,0
0,62,36,28
0,67,36,0
0,79,32,8
0,31,84,0
0,35,112,0
0,42,80,0
0,83,41,8
0,86,41,44
0,79,32,4
0,31,84,0
0,42,85,0
0,59,37,4
0,62,37,0
0,67,37,0
0,84,32,0
0,91,41,4
0,59,37,0
0,62,37,0
0,67,37,0
0,95,41,0
0,88,32,4
0,31,84,0
0,35,112,0
0,38,101,0
0,42,95,0
0,86,32,4
0,91,41,4
0,86,41,44
0,84,32,4
0,59,36,36
0,62,36,0
0,67,36,0
0,31,84,0
0,42,85,0
0,81,32,4
0,83,41,4
0,59,36,4
0,62,36,0
0,67,36,0
0,79,41,8
0,79,32,4
0,29,84,0
0,35,112,0
0,42,93,0
0,57,42,0
0,65,42,0
0,41,54,0
0,69,54,0
0,72,54,0
0,77,41,0
0,72,41,44
0,79,32,0
0,29,84,0
0,42,92,0
0,57,37,4
0,60,37,0
0,67,37,0
0,69,41,4
0,84,32,0
0,57,37,44
0,60,37,0
0,67,37,0
0,67,41,0
0,88,32,0
0,29,84,0
0,35,112,0
0,38,101,0
0,42,93,0
0,69,41,8
0,86,32,0
0,72,41,4
0,84,32,0
0,57,36,12
0,60,36,0
0,67,36,0
0,29,84,0
0,42,92,0
0,77,41,8
0,81,32,0
0,57,36,36
0,60,36,0
0,67,36,0
0,79,32,8
0,29,84,0
0,35,112,0
0,42,89,0
0,81,41,8
0,84,41,12
0,79,32,4
0,29,84,0
0,42,93,0
0,57,37,4
0,60,37,0
0,67,37,0
0,84,32,0
0,89,41,4
0,57,37,20
0,60,37,0
0,67,37,0
0,91,41,0
0,88,32,4
0,29,84,0
0,35,112,0
0,38,101,0
0,42,102,0
0,86,32,4
0,93,41,4
0,96,41,28
0,84,32,4
0,57,36,4
0,60,36,0
0,67,36,0
0,29,84,0
0,42,92,0
0,81,32,4
0,93,41,4
0,57,36,36
0,60,36,0
0,67,36,0
0,91,41,8
0,79,32,4
0,31,84,0
0,35,112,0
0,42,102,0
0,55,42,0
0,64,42,0
0,48,54,0
0,67,54,0
0,88,41,0
0,79,32,44
0,84,41,0
0,31,84,0
0,42,93,0
0,55,37,4
0,60,37,0
0,64,37,0
0,67,37,0
0,79,41,4
0,84,32,0
0,55,37,12
0,60,37,0
0,64,37,0
0,67,37,0
0,76,41,0
0,88,32,0
0,31,84,0
0,35,112,0
0,38,101,0
0,42,93,0
0,72,41,8
0,86,32,0
0,67,41,20
0,84,32,0
0,55,36,40
0,60,36,0
0,64,36,0
0,67,36,0
0,31,84,0
0,42,93,0
0,72,41,8
0,81,32,0
0,55,36,20
0,60,36,0
0,64,36,0
0,67,36,0
0,76,41,8
0,79,32,0
0,31,84,0
0,35,112,0
0,42,89,0
0,62,42,0
0,43,54,0
0,71,54,0
0,79,41,0
0,83,41,36
0,79,32,4
0,31,84,0
0,42,93,0
0,55,37,4
0,59,37,0
0,62,37,0
0,67,37,0
0,84,32,0
0,86,41,4
0,55,37,44
0,59,37,0
0,62,37,0
0,91,41,0
0,88,32,4
0,31,84,0
0,35,112,0
0,38,101,0
0,42,104,0
0,86,32,4
0,95,41,4
0,91,41,0
0,84,32,4
0,55,36,28
0,59,36,0
0,62,36,0
0,67,36,0
0,31,84,0
0,42,104,0
0,81,32,4
0,86,41,4
0,55,36,36
0,59,36,0
0,62,36,0
0,83,41,8
0,79,32,4
0,64,119,0
0,36,84,0
0,35,112,0
0,49,82,0
0,64,42,0
0,72,41,92
0,79,32,0
0,36,84,0
0,42,93,0
0,60,37,4
0,64,37,0
0,67,37,0
0,69,41,4
0,84,32,0
0,60,37,44
0,64,37,0
0,67,37,0
0,67,41,0
0,88,32,0
0,36,84,0
0,35,112,0
0,38,101,0
0,42,93,0
0,69,41,4
0,86,32,0
0,55,111,8
0,72,41,44
0,84,32,0
0,60,36,24
0,64,36,0
0,67,36,0
0,36,84,0
0,42,93,0
0,77,41,8
0,81,32,0
0,55,119,8
0,60,36,36
0,64,36,0
0,67,36,0
0,79,32,8
0,36,84,0
0,35,112,0
0,42,93,0
0,81,41,8
0,84,41,44
0,79,32,4
0,36,84,0
0,42,89,0
0,60,37,4
0,64,37,0
0,67,37,0
0,84,32,0
0,89,41,4
0,60,37,44
0,64,37,0
0,67,37,0
0,91,41,0
0,88,32,4
0,36,84,0
0,35,112,0
0,38,101,0
0,42,93,0
0,86,32,4
0,93,41,4
0,96,41,44
0,84,32,4
0,60,36,36
0,64,36,0
0,67,36,0
0,36,84,0
0,42,79,0
0,81,32,4
0,93,41,4
0,60,36,4
0,64,36,0
0,67,36,0
0,91,41,8
0,79,32,4
0,31,84,0
0,35,112,0
0,42,85,0
0,62,42,0
0,88,41,4
0,79,32,44
0,84,41,0
0,31,84,0
0,42,85,0
0,59,37,4
0,62,37,0
0,67,37,0
0,79,41,4
0,84,32,0
0,59,37,44
0,62,37,0
0,67,37,0
0,76,41,0
0,88,32,0
0,31,84,0
0,35,112,0
0,38,101,0
0,42,93,0
0,72,41,8
0,86,32,0
0,67,41,44
0,84,32,0
0,59,36,40
0,62,36,0
0,67,36,0
0,31,84,0
0,42,79,0
0,60,108,0
0,72,41,8
0,81,32,0
0,59,36,32
0,62,36,0
0,67,36,0
0,76,41,8
0,79,32,0
0,31,84,0
0,35,112,0
0,42,92,0
0,60,122,0
0,79,41,8
0,83,41,44
0,79,32,4
0,31,84,0
0,42,85,0
0,62,114,0
0,59,37,4
0,62,37,0
0,67,37,0
0,84,32,0
0,86,41,4
0,59,37,44
0,62,37,0
0,67,37,0
0,91,41,0
0,88,32,4
0,64,122,24
0,31,84,0
0,35,112,0
0,38,101,0
0,42,93,0
0,86,32,4
0,95,41,4
0,91,41,44
0,84,32,4
0,65,122,24
0,59,36,12
0,62,36,0
0,67,36,0
0,31,84,0
0,42,73,0
0,81,32,4
0,86,41,4
0,59,36,36
0,62,36,0
0,67,36,0
0,83,41,8
0,79,32,4
0,67,122,16
0,29,84,0
0,35,112,0
0,42,85,0
0,57,42,0
0,67,42,0
0,72,41,4
0,79,32,44
0,29,84,0
0,42,85,0
0,57,37,4
0,60,37,0
0,67,37,0
0,84,32,4
0,57,37,44
0,60,37,0
0,67,37,0
0,88,32,0
0,29,84,0
0,35,112,0
0,38,101,0
0,42,89,0
0,86,32,8
0,91,41,0
0,84,32,44
0,96,41,0
0,57,36,40
0,60,36,0
0,67,36,0
0,29,84,0
0,42,79,0
0,81,32,8
0,91,41,0
0,57,36,36
0,60,36,0
0,67,36,0
0,79,32,8
0,88,41,0
0,29,84,0
0,35,112,0
0,42,80,0
0,84,41,8
0,79,41,44
0,79,32,4
0,65,125,32
0,29,84,0
0,42,80,0
0,57,37,4
0,60,37,0
0,67,37,0
0,84,32,0
0,76,41,4
0,57,37,44
0,60,37,0
0,67,37,0
0,72,41,0
0,88,32,4
0,64,114,24
0,29,84,0
0,35,112,0
0,38,101,0
0,42,85,0
0,86,32,4
0,67,41,4
0,72,41,44
0,84,32,4
0,65,127,24
0,57,36,12
0,60,36,0
0,67,36,0
0,29,84,0
0,42,79,0
0,81,32,4
0,76,41,4
0,57,36,36
0,60,36,0
0,67,36,0
0,79,41,8
0,79,32,4
0,29,84,0
0,35,112,0
0,42,80,0
0,83,41,8
0,79,32,44
0,86,41,0
0,64,112,32
