track,note,velocity,time
1,63,77,8828
1,63,77,140
1,65,78,12
1,67,78,36
1,70,72,128
1,67,80,8
1,65,81,36
1,67,72,12
1,63,81,52
1,63,81,140
1,65,80,280
1,67,79,0
1,72,72,92
1,70,81,392
1,70,83,128
1,68,80,8
1,67,79,244
1,68,73,4
1,65,72,12
1,65,82,4
1,65,81,112
1,67,80,272
1,68,84,16
1,77,75,128
1,75,82,1136
1,75,84,84
1,74,82,44
1,72,78,256
1,75,73,92
1,72,72,28
1,65,81,12
1,65,82,92
1,67,80,20
1,68,80,48
1,70,77,56
1,70,81,44
1,70,80,64
1,68,79,20
1,67,80,24
1,67,74,132
1,63,77,24496
1,63,81,120
1,65,81,28
1,66,84,8
1,70,82,48
1,70,80,92
1,72,78,8
1,70,79,20
1,68,79,20
1,73,87,24
1,68,73,164
1,68,79,492
1,61,83,44
1,63,81,8
1,64,78,8
1,68,80,56
1,70,84,128
1,68,82,76
1,66,81,36
1,75,83,104
1,75,78,232
1,75,83,168
1,77,84,16
1,78,78,112
1,78,85,0
1,77,85,48
1,75,86,28
1,78,89,96
1,75,85,32
1,77,83,92
1,74,78,0
1,75,99,72
1,75,96,92
1,73,96,52
1,71,82,8
1,74,90,52
1,70,85,8
1,71,87,92
1,66,89,36
1,65,84,300
1,70,87,52
1,75,87,24036
1,77,82,8
1,75,77,388
1,79,78,0
1,75,83,160
1,79,78,4
1,75,80,188
1,79,77,4
1,75,74,128
1,79,73,0
1,74,80,88
1,77,82,0
1,75,77,140
1,72,77,16
1,75,76,136
1,79,75,0
1,75,89,4
1,74,80,24
1,77,79,0
1,75,80,8
1,79,79,0
1,75,85,132
1,79,80,0
1,75,84,152
1,79,79,0
1,75,83,132
1,79,79,16
1,75,83,120
1,79,76,0
1,75,82,140
1,79,81,4
1,75,72,92
1,79,77,0
1,77,76,96
1,70,78,4
1,75,72,116
1,67,75,16
1,68,76,128
1,74,75,16
1,70,72,36
1,62,72,16
1,65,90,6484
1,67,86,92
1,68,84,92
1,70,76,92
1,68,82,84
1,67,76,100
1,67,72,144
1,75,90,624
1,77,81,56
1,75,78,8
1,79,79,0
1,75,83,140
1,79,79,0
1,75,79,128
1,79,75,0
1,75,78,132
1,79,76,0
1,75,78,128
1,79,75,0
1,75,78,132
1,79,75,0
1,75,76,120
1,79,74,0
1,75,81,80
1,79,81,0
1,75,78,208
1,79,78,0
1,75,73,148
1,79,72,0
1,75,90,72
1,77,79,24
1,75,77,16
1,79,78,0
1,75,79,64
1,79,78,0
1,75,83,124
1,79,78,0
1,75,81,0
1,79,80,0
1,75,78,32
1,79,75,0
1,80,78,208
1,70,81,4
1,70,80,96
1,79,75,0
1,68,82,84
1,77,79,0
1,75,79,192
1,67,77,12
1,74,75,120
1,68,76,4
1,70,74,108
1,62,72,12
1,65,86,6820
1,67,86,88
1,68,82,92
1,70,74,108
1,77,81,136
1,79,78,112
1,80,79,128
1,82,73,108
1,63,74,24392
1,63,80,148
1,65,77,8
1,66,82,24
1,70,79,120
1,70,77,188
1,72,76,16
1,70,79,20
1,68,77,28
1,73,82,80
1,68,72,168
1,68,78,872
1,61,79,200
1,63,80,276
1,64,78,8
1,68,81,84
1,70,80,180
1,68,79,80
1,66,80,108
1,75,80,144
1,75,79,316
1,75,85,152
1,77,81,16
1,78,78,44
1,78,82,4
1,77,80,36
1,75,78,16
1,78,81,72
1,75,76,84
1,77,78,116
1,74,72,8
1,75,81,16
1,75,85,92
1,73,85,56
1,71,79,8
1,74,82,32
1,70,73,8
1,71,75,52
1,66,82,4
1,65,82,64
1,70,72,116
1,75,84,24028
1,77,79,376
1,75,76,384
1,79,75,16
1,75,76,72
1,79,76,4
1,75,74,148
1,79,73,0
1,75,72,132
1,79,72,16
1,77,76,36
1,74,77,16
1,75,76,176
1,72,75,12
1,75,73,128
1,79,73,16
1,75,82,104
1,72,76,4
1,77,75,20
1,74,76,4
1,75,77,376
1,79,79,8
1,75,80,96
1,79,77,0
1,75,79,48
1,79,76,12
1,75,73,120
1,79,73,0
1,75,80,80
1,79,75,0
1,75,76,116
1,79,73,0
1,75,72,140
1,79,73,4
1,70,77,104
1,77,75,0
1,75,73,100
1,67,75,12
1,74,73,152
1,68,73,0
1,70,72,144
1,62,72,28
1,65,79,6828
1,67,80,16
1,68,79,36
1,70,72,52
1,68,78,4
1,67,73,128
1,67,72,148
1,75,86,704
1,74,79,20
1,77,76,0
1,75,78,348
1,79,79,0
1,75,79,24
1,79,75,0
1,75,74,144
1,79,74,4
1,75,74,132
1,79,73,12
1,75,72,76
1,79,72,0
1,75,72,132
1,79,72,16
1,75,72,120
1,79,72,16
1,75,78,84
1,79,74,16
1,75,72,196
1,79,72,0
1,75,72,148
1,79,72,16
1,75,89,128
1,77,77,20
1,75,75,192
1,79,77,0
1,75,74,16
1,79,74,0
1,75,73,104
1,79,73,0
1,75,72,112
1,79,75,0
1,75,72,96
1,79,75,0
1,70,80,212
1,80,74,0
1,75,78,116
1,79,73,12
1,74,74,76
1,77,73,16
1,72,74,120
1,75,73,0
1,68,75,144
1,74,75,0
1,62,72,292
1,70,72,0
1,65,81,6700
1,67,82,268
1,68,80,56
1,70,75,92
1,65,81,20
1,65,88,4
1,67,82,84
1,68,84,84
1,70,74,96
1,65,82,236
1,67,80,88
1,68,82,88
1,70,77,68
1,68,84,132
1,67,73,140
1,67,72,144
1,63,89,5688
1,60,85,12
1,68,88,0
1,62,81,128
1,65,87,0
1,70,87,0
1,72,82,124
1,63,83,12
1,67,82,0
1,65,87,308
1,75,90,0
1,68,84,4
1,67,72,144
1,58,81,8
1,63,82,216
1,65,79,64
1,67,80,36
1,70,72,44
1,63,74,252
1,63,72,140
1,63,72,132
2,51,56,2300
2,82,49,28
2,70,49,8
2,73,49,216
2,76,49,12
2,72,49,12
2,75,49,0
2,73,49,4
2,76,49,4
2,77,49,80
2,74,49,12
2,58,49,652
2,67,49,60
2,63,49,52
2,62,49,3796
2,63,49,772
2,60,49,2332
2,65,49,12
2,62,49,8
2,56,49,4
2,58,49,0
2,53,49,20
2,53,49,48
2,56,49,120
2,60,49,16
2,68,49,12
2,72,49,20
2,63,49,652
2,68,49,32
2,65,49,28
2,62,49,40
2,70,49,12
2,58,49,20
2,63,49,236
2,67,49,12
2,51,49,52
2,55,49,272
2,58,49,320
2,55,49,52
2,58,49,0
2,51,49,4
2,63,49,0
2,53,49,16
2,62,49,12
2,65,49,4
2,56,49,1104
2,67,49,2656
2,63,49,96
2,56,49,16
2,60,49,0
2,65,49,0
2,68,49,16
2,62,49,88
2,70,49,0
2,58,49,4
2,67,49,228
2,51,49,12
2,75,49,4
2,63,49,0
2,70,49,268
2,73,49,12
2,78,49,12
2,72,49,88
2,68,49,12
2,77,49,72
2,68,49,12
2,73,49,0
2,65,49,196
2,64,49,108
2,71,49,328
2,66,49,44
2,70,49,0
2,63,49,4
2,71,49,16
2,75,49,64
2,66,49,4
2,69,49,32
2,72,49,0
2,66,49,4
2,75,49,16
2,70,49,16
2,74,49,24
2,65,49,16
2,75,49,24
2,69,49,4
2,66,49,16
2,70,49,0
2,70,49,20
2,65,49,92
2,74,49,0
2,66,49,116
2,63,49,4
2,71,49,4
2,70,49,8
2,62,49,4
2,62,49,12
2,65,49,4
2,70,49,0
2,63,49,176
2,60,49,4
2,65,49,88
2,62,49,12
2,63,49,420
2,66,49,0
2,60,49,4
2,65,49,44
2,62,49,12
2,55,49,292
2,63,49,0
2,58,49,0
2,61,49,7640
2,58,49,8
2,56,49,4
2,65,49,0
2,62,49,1060
2,59,49,64
2,63,49,0
2,56,49,0
2,60,49,840
2,71,49,612
2,68,49,88
2,65,49,1976
2,77,49,776
2,70,49,80
2,74,49,12
2,62,49,12
2,63,49,112
2,67,49,12
2,63,49,88
2,75,49,84
2,70,49,12
2,79,49,0
2,67,49,16
2,68,49,32
2,77,49,0
2,75,49,24
2,67,49,16
2,70,49,180
2,79,49,12
2,63,49,24
2,74,49,772
2,75,49,244
2,72,49,196
2,70,49,216
2,67,49,64
2,75,49,0
2,70,49,4
2,77,49,8
2,70,49,24
2,67,49,84
2,70,49,0
2,75,49,0
2,79,49,0
2,67,49,8
2,70,49,12
2,77,49,0
2,75,49,520
2,65,49,24
2,74,49,4
2,70,49,0
2,62,49,92
2,68,49,0
2,70,49,16
2,56,49,8
2,63,49,0
2,60,49,4
2,53,49,16
2,61,49,36
2,67,49,0
2,62,49,28
2,60,49,4
2,59,49,4
2,58,49,72
2,58,49,52
2,60,49,16
2,63,49,0
2,62,49,204
2,65,49,0
2,70,49,0
2,60,49,96
2,68,49,0
2,63,49,16
2,62,49,100
2,70,49,0
2,65,49,12
2,63,49,52
2,67,49,0
2,70,49,16
2,60,49,36
2,67,49,0
2,63,49,12
2,70,49,44
2,63,49,12
2,70,49,268
2,75,49,4
2,67,49,16
2,77,49,8
2,67,49,360
2,75,49,0
2,79,49,0
2,67,49,12
2,77,49,360
2,75,49,152
2,79,49,0
2,70,49,96
2,80,49,0
2,75,49,4
2,79,49,132
2,67,49,16
2,77,49,4
2,70,49,16
2,75,49,528
2,65,49,108
2,70,49,12
2,74,49,4
2,68,49,60
2,62,49,488
2,70,49,12
2,56,49,500
2,60,49,4
2,63,49,0
2,66,49,20
2,63,49,80
2,55,49,100
2,58,49,0
2,62,49,32
2,67,49,0
2,70,49,408
2,74,49,336
2,77,49,364
2,76,49,120
2,60,49,12
2,64,49,0
2,72,49,760
2,77,49,80
2,53,49,12
2,55,49,268
2,79,49,0
2,80,49,100
2,56,49,12
2,82,49,232
2,58,49,0
2,77,49,2312
2,79,49,232
2,80,49,200
2,82,49,228
2,46,49,200
2,70,49,0
2,63,49,240
2,55,49,60
2,58,49,292
2,56,49,12
2,62,49,28
2,53,49,892
2,67,49,2896
2,60,49,348
2,63,49,0
2,72,49,1012
2,68,49,28
2,58,49,80
2,62,49,12
2,65,49,1812
2,63,49,176
2,67,49,12
2,70,49,492
2,75,49,796
2,73,49,156
2,78,49,0
2,63,49,16
2,72,49,168
2,68,49,12
2,68,49,92
2,73,49,0
2,65,49,4
2,65,49,88
2,68,49,0
2,61,49,16
2,64,49,124
2,68,49,0
2,71,49,4
2,73,49,16
2,66,49,156
2,70,49,84
2,63,49,40
2,66,49,108
2,75,49,0
2,63,49,20
2,71,49,0
2,66,49,224
2,69,49,16
2,72,49,0
2,65,49,8
2,74,49,0
2,70,49,4
2,69,49,416
2,65,49,1120
2,70,49,12
2,74,49,36
2,66,49,88
2,71,49,0
2,63,49,16
2,70,49,52
2,62,49,24
2,65,49,0
2,63,49,96
2,60,49,4
2,62,49,120
2,65,49,0
2,63,49,248
2,66,49,0
2,60,49,228
2,62,49,104
2,65,49,0
2,63,49,96
2,58,49,8
2,55,49,16
2,58,49,108
2,61,49,7016
2,53,49,52
2,58,49,0
2,56,49,4
2,62,49,0
2,59,49,36
2,63,49,28
2,68,49,1364
2,65,49,200
2,59,49,136
2,56,49,72
2,66,49,80
2,68,49,48
2,71,49,200
2,75,49,188
2,77,49,504
2,73,37,36
2,65,37,32
2,74,37,60
2,70,37,180
2,80,37,36
2,70,37,328
2,79,49,12
2,79,49,0
2,67,49,51
2,67,49,0
2,63,49,4
2,63,49,0
2,74,49,787
2,74,49,0
2,72,49,124
2,72,49,0
2,75,49,0
2,75,49,0
2,63,49,0
2,60,49,4
2,70,49,128
2,63,49,16
2,79,49,96
2,67,49,16
2,77,49,16
2,68,49,20
2,67,49,16
2,75,49,0
2,79,49,108
2,70,49,12
2,63,49,12
2,74,49,732
2,75,49,260
2,72,49,224
2,70,49,240
2,70,49,12
2,75,49,0
2,67,49,0
2,70,49,20
2,74,49,12
2,68,49,20
2,77,49,0
2,70,49,28
2,79,49,0
2,67,49,4
2,75,49,0
2,67,49,8
2,77,49,0
2,70,49,0
2,75,49,508
2,74,49,68
2,65,49,4
2,70,49,20
2,68,49,172
2,70,49,140
2,68,49,16
2,64,49,12
2,62,49,4
2,65,49,24
2,60,49,496
2,56,49,12
2,63,49,0
2,70,49,3092
2,72,49,0
2,79,49,4
2,75,49,2008
2,82,49,228
2,72,49,16
2,75,49,20
2,74,49,72
2,77,49,80
2,75,49,80
2,80,49,0
2,72,49,0
2,74,49,96
2,77,49,0
2,75,49,60
2,79,49,0
2,82,49,4
2,72,49,52
2,75,49,0
2,79,49,4
2,75,49,64
2,82,49,0
2,82,49,232
2,75,49,4
2,87,49,0
2,77,49,16
2,82,49,0
2,89,49,4
2,79,49,344
2,91,49,12
2,75,49,1000
2,87,49,672
2,86,49,2416
2,84,49,148
2,82,49,152
2,75,49,16
2,87,49,40
2,91,49,32
2,79,49,48
2,92,49,124
2,80,49,4
2,79,49,56
2,91,49,12
2,77,49,12
2,89,49,12
2,82,49,16
2,87,49,488
2,82,49,160
2,86,49,0
2,80,49,16
2,74,49,16
2,77,49,152
2,56,49,0
2,60,49,0
2,63,49,0
2,66,49,1508
2,55,49,152
2,58,49,12
2,62,49,16
2,67,49,128
2,70,49,420
2,74,49,176
2,77,49,328
2,64,49,8
2,76,49,0
2,60,49,4
2,65,49,308
2,77,49,0
2,79,49,240
2,67,49,16
2,68,49,216
2,80,49,0
2,70,49,172
2,82,49,24
2,65,49,2292
2,77,49,0
2,67,49,220
2,79,49,4
2,68,49,184
2,80,49,0
2,82,49,200
2,70,49,16
2,94,49,228
2,58,49,16
2,65,49,4
2,77,49,0
2,67,49,216
2,79,49,12
2,68,49,200
2,80,49,16
2,70,49,220
2,82,49,0
2,58,49,268
2,63,49,228
2,79,49,12
2,70,49,12
2,67,49,780
2,75,49,328
2,65,49,40
2,77,49,40
2,70,49,1156
2,58,49,12
2,82,49,16
2,74,49,164
2,67,49,0
2,79,49,12
2,63,49,4128
2,51,49,24
3,52,1,0
3,53,1,0
3,51,1,3088
3,53,1,272
3,55,1,216
3,56,1,240
3,58,1,252
3,60,1,4
3,62,1,0
3,63,1,252
3,65,1,8
3,67,1,248
3,65,1,236
3,63,1,244
3,70,1,0
3,63,1,52432
3,61,1,600
3,60,1,4
3,61,1,76
3,63,1,48
3,61,1,16
3,60,1,8
3,61,1,48
3,61,1,192
3,61,1,1264
3,59,1,584
3,58,1,356
3,61,1,772
3,61,1,96
3,61,1,76
3,59,1,68
3,60,1,508
3,61,1,1152
3,63,1,376
3,63,1,84
3,65,1,8
3,65,1,4132
3,62,1,4
3,62,1,12
3,65,1,0
3,60,1,52
3,63,1,16
3,62,1,8
3,65,1,0
3,63,1,8
3,66,1,0
3,60,1,68
3,63,1,0
3,65,1,24
3,62,1,12
3,60,1,29576
3,56,1,6808
3,60,1,0
3,58,1,0
3,62,1,0
3,60,1,0
3,63,1,0
3,60,1,92
3,65,1,0
3,58,1,64
3,67,1,8
3,65,1,92
3,63,1,200
3,62,1,164
3,63,1,172
3,62,1,172
3,60,1,4
3,58,1,184
3,60,1,8
3,58,1,176
3,56,1,172
3,55,1,176
3,53,1,192
3,55,1,252
3,56,1,224
3,58,1,224
3,51,1,3812
3,50,1,0
3,48,1,768
3,46,1,784
3,46,1,60
3,51,1,8
3,53,1,268
3,55,1,96
3,58,1,200
3,51,1,364
3,50,1,756
3,48,1,12
3,46,1,0
3,56,1,392
3,58,1,236
3,60,1,84
3,62,1,16
3,63,1,24
3,62,1,152
3,60,1,168
3,58,1,376
3,56,1,356
3,58,1,8
3,65,1,20
3,56,1,12
3,55,1,768
3,54,1,368
3,55,1,76
3,50,1,1384
3,53,1,0
3,58,1,4
3,49,1,576
3,52,1,0
3,58,1,16
3,48,1,588
3,51,1,0
3,58,1,0
3,50,1,1336
3,58,1,0
3,53,1,4
3,49,1,580
3,52,1,0
3,58,1,4
3,48,1,572
3,51,1,0
3,58,1,4
3,63,1,25540
3,61,1,580
3,60,1,348
3,61,1,92
3,63,1,56
3,61,1,0
3,60,1,8
3,61,1,112
3,61,1,180
3,61,1,1148
3,59,1,12
3,58,1,0
3,61,1,8
3,61,1,120
3,61,1,84
3,59,1,132
3,60,1,740
3,61,1,1148
