track,note,velocity,time
0,28,74,465
0,56,74,0
0,59,74,0
0,52,74,0
0,40,74,0
0,64,127,0
0,59,74,1
0,63,92,0
0,63,113,0
0,64,0,20
0,63,0,6
0,59,0,1
0,40,0,1
0,63,105,1
0,64,127,27
0,40,74,2
0,63,0,1
0,64,92,0
0,59,48,0
0,64,116,0
0,64,0,28
0,59,0,1
0,63,0,0
0,64,100,0
0,64,0,8
0,40,0,2
0,64,0,5
0,64,0,22
0,64,127,50
0,40,74,3
0,66,98,1
0,59,72,0
0,66,116,0
0,66,94,29
0,64,0,6
0,40,0,8
0,66,0,6
0,59,0,3
0,66,0,7
0,66,0,29
0,64,127,11
0,40,74,3
0,63,92,1
0,59,72,0
0,63,122,0
0,63,0,12
0,40,0,1
0,63,100,0
0,59,0,1
0,64,0,11
0,63,0,14
0,63,0,29
0,64,127,26
0,40,74,4
0,64,103,1
0,59,70,0
0,64,122,0
0,59,0,24
0,64,0,0
0,64,100,5
0,40,0,16
0,64,0,0
0,64,0,8
0,64,0,29
0,64,127,35
0,40,74,2
0,66,74,1
0,59,66,0
0,66,116,0
0,40,0,19
0,64,0,1
0,66,0,1
0,59,0,1
0,66,94,7
0,66,0,16
0,40,74,14
0,63,98,1
0,59,72,0
0,63,116,0
0,64,127,7
0,66,0,7
0,63,94,14
0,63,0,15
0,59,0,1
0,64,0,11
0,40,0,18
0,28,0,3
0,63,0,1
0,56,0,20
0,59,0,0
0,52,0,3
0,63,0,6
0,64,127,24
0,25,74,5
0,56,56,0
0,59,62,0
0,52,74,0
0,37,68,0
0,63,92,1
0,59,72,0
0,63,127,0
0,64,0,15
0,59,0,10
0,63,0,0
0,63,105,4
0,37,0,8
0,37,77,21
0,59,66,1
0,64,109,0
0,64,122,0
0,63,0,4
0,64,127,0
0,59,0,21
0,64,100,4
0,64,0,4
0,63,0,0
0,64,0,8
0,37,0,5
0,64,0,7
0,64,0,29
0,64,127,33
0,37,74,4
0,66,92,1
0,59,72,0
0,66,127,0
0,66,0,22
0,59,0,1
0,66,105,6
0,64,0,2
0,66,0,15
0,37,0,5
0,66,0,24
0,64,127,6
0,37,77,8
0,59,68,1
0,63,86,0
0,63,127,0
0,59,0,5
0,63,0,4
0,63,105,5
0,64,0,1
0,37,0,3
0,63,0,13
0,63,0,29
0,64,127,23
0,37,74,7
0,64,109,1
0,59,70,0
0,64,122,0
0,64,0,22
0,59,0,1
0,64,100,6
0,64,0,1
0,64,0,15
0,37,0,3
0,64,0,26
0,64,127,36
0,37,74,9
0,59,56,1
0,66,68,0
0,66,104,0
0,64,0,11
0,59,0,8
0,66,0,2
0,66,82,8
0,37,0,1
0,66,0,8
0,37,77,14
0,63,103,1
0,59,70,0
0,63,110,0
0,64,127,0
0,66,0,7
0,63,88,7
0,64,0,18
0,63,0,1
0,37,0,9
0,63,0,18
0,63,0,2
0,59,0,3
0,64,127,22
0,37,80,4
0,57,92,1
0,61,74,0
0,61,127,0
0,64,0,15
0,37,0,12
0,61,0,2
0,57,0,0
0,61,105,0
0,64,127,14
0,37,80,1
0,61,0,1
0,63,103,0
0,57,70,0
0,63,122,0
0,25,0,12
0,64,0,16
0,57,0,1
0,63,0,0
0,61,0,0
0,63,100,0
0,37,0,3
0,59,0,4
0,63,0,0
0,56,0,3
0,52,0,24
0,63,0,2
0,33,85,54
0,61,62,0
0,57,91,0
0,52,91,0
0,45,74,0
0,64,98,1
0,61,86,0
0,57,92,0
0,64,127,0
0,64,127,1
0,45,0,23
0,64,105,5
0,52,0,29
0,33,0,0
0,57,0,0
0,61,0,0
0,61,80,0
0,57,80,0
0,52,80,0
0,33,80,0
0,45,80,0
0,64,0,3
0,64,0,6
0,61,0,14
0,52,0,6
0,57,0,0
0,33,0,0
0,61,0,0
0,57,0,1
0,64,0,1
0,45,0,3
0,62,80,14
0,57,97,0
0,54,56,0
0,38,85,0
0,64,0,1
0,66,98,0
0,62,77,0
0,57,77,0
0,66,127,0
0,64,127,1
0,66,105,9
0,54,0,29
0,38,0,0
0,62,0,0
0,57,0,0
0,38,80,0
0,54,80,0
0,57,80,0
0,62,80,0
0,64,0,9
0,66,0,17
0,66,0,10
0,64,127,2
0,54,0,2
0,57,0,0
0,62,0,0
0,38,0,0
0,35,89,0
0,47,89,0
0,66,127,1
0,66,105,7
0,66,0,4
0,57,0,4
0,62,0,3
0,64,54,29
0,59,52,0
0,54,44,0
0,64,98,1
0,59,66,0
0,59,0,13
0,64,0,0
0,54,0,1
0,64,0,3
0,59,0,2
0,47,0,1
0,59,54,29
0,64,74,0
0,54,46,0
0,64,115,1
0,59,80,0
0,47,54,29
0,64,0,6
0,59,0,5
0,64,0,2
0,54,0,1
0,59,0,2
0,64,91,29
0,59,56,0
0,54,68,0
0,64,109,1
0,59,74,0
0,64,0,2
0,47,0,4
0,47,62,29
0,59,0,11
0,59,0,7
0,64,0,1
0,64,0,0
0,54,0,5
0,63,42,29
0,59,46,0
0,54,42,0
0,63,103,1
0,59,70,0
0,59,0,17
0,63,0,5
0,59,0,1
0,54,0,0
0,63,0,2
0,47,0,26
0,59,85,3
0,54,68,0
0,63,74,0
0,63,109,1
0,59,80,0
0,47,62,29
0,63,0,15
0,59,0,1
0,59,0,3
0,54,0,5
0,63,0,5
0,63,48,29
0,59,56,0
0,54,42,0
0,59,66,1
0,63,86,0
0,59,0,16
0,63,0,1
0,59,0,4
0,63,0,0
0,54,0,1
0,47,0,14
0,63,74,15
0,59,80,0
0,54,62,0
0,59,72,1
0,63,115,0
0,47,68,29
0,59,70,1
0,59,0,2
0,63,0,6
0,54,0,4
0,59,0,0
0,63,0,1
0,59,74,29
0,54,54,0
0,63,56,0
0,59,0,1
0,59,72,0
0,63,109,0
0,54,0,23
0,59,0,1
0,63,0,29
0,64,91,0
0,59,74,0
0,54,52,0
0,63,0,1
0,59,0,0
0,64,103,0
0,59,64,0
0,47,0,4
0,64,0,29
0,66,67,0
0,47,68,0
0,59,0,1
0,64,0,0
0,66,103,0
0,59,66,0
0,35,0,22
0,66,0,1
0,66,0,29
0,47,0,18
0,59,0,5
0,54,0,4
0,66,0,1
0,64,101,0
0,56,101,0
0,59,101,0
0,52,101,0
0,59,0,1
0,66,0,0
0,63,119,0
0,56,36,1
0,52,62,0
0,59,0,42
0,64,0,0
0,56,0,0
0,52,0,0
0,52,0,2
0,56,0,0
0,64,21,0
0,56,14,0
0,52,46,0
0,59,40,0
0,63,0,1
0,64,119,0
0,59,22,1
0,52,28,0
0,64,0,40
0,59,0,18
0,52,0,0
0,54,82,0
0,64,62,2
0,56,56,0
0,59,68,0
0,52,85,0
0,54,0,8
0,59,0,48
0,64,0,0
0,52,0,0
0,56,0,0
0,64,46,2
0,56,34,0
0,59,48,0
0,52,60,0
0,66,119,1
0,66,0,33
0,52,0,26
0,59,0,0
0,56,0,0
0,64,0,0
0,56,9,2
0,52,38,0
0,59,26,0
0,64,0,12
0,59,0,0
0,52,0,0
0,56,0,0
0,59,0,2
0,56,0,0
0,52,0,0
0,64,50,0
0,56,48,0
0,59,52,0
0,52,72,0
0,63,119,1
0,64,91,1
0,56,91,0
0,59,91,0
0,52,91,0
0,63,0,30
0,54,74,14
0,54,0,10
0,52,0,48
0,64,0,0
0,59,0,0
0,56,0,0
0,59,0,2
0,52,0,0
0,64,0,0
0,56,0,0
0,64,44,0
0,56,44,0
0,59,52,0
0,52,66,0
0,64,119,1
0,59,14,1
0,64,0,30
0,59,0,28
0,56,28,2
0,52,50,0
0,59,0,56
0,52,0,0
0,64,0,0
0,56,0,0
0,52,0,2
0,56,0,0
0,52,66,0
0,64,46,0
0,56,46,0
0,59,52,0
0,66,119,1
0,52,28,1
0,56,9,0
0,59,24,0
0,66,0,44
0,59,0,14
0,52,0,0
0,56,0,0
0,54,72,0
0,63,119,1
0,59,91,1
0,52,91,0
0,64,91,0
0,56,91,0
0,54,0,8
0,56,0,12
0,59,0,0
0,52,0,0
0,64,0,0
0,64,50,2
0,56,46,0
0,59,50,0
0,52,66,0
0,52,0,60
0,56,0,0
0,64,0,0
0,59,0,0
0,52,28,2
0,59,26,0
0,64,0,56
0,52,0,0
0,59,0,0
0,56,0,0
0,52,0,2
0,59,0,0
0,64,60,0
0,56,50,0
0,59,54,0
0,52,72,0
0,59,91,2
0,52,91,0
0,64,91,0
0,56,91,0
0,54,74,58
0,54,0,10
0,56,0,9
0,52,0,0
0,59,0,0
0,64,0,0
0,59,0,2
0,64,0,0
0,56,0,0
0,52,0,0
0,56,28,0
0,52,54,0
0,64,40,0
0,59,42,0
0,56,1,2
0,64,8,0
0,59,20,0
0,63,0,4
0,59,0,12
0,56,0,0
0,64,0,0
0,52,0,0
0,59,0,2
0,64,0,0
0,56,0,0
0,52,101,0
0,61,101,0
0,56,101,0
0,63,119,1
0,56,50,1
0,52,50,0
0,56,0,42
0,52,0,0
0,61,0,0
0,52,0,2
0,56,0,0
0,52,26,0
0,56,22,0
0,61,24,0
0,63,0,1
0,64,119,0
0,52,5,1
0,56,7,0
0,61,7,0
0,64,0,36
0,56,0,22
0,52,0,0
0,61,0,0
0,54,74,0
0,56,91,2
0,52,91,0
0,61,91,0
0,54,0,8
0,61,0,48
0,56,0,0
0,52,0,0
0,61,0,2
0,56,0,0
0,52,0,0
0,52,66,0
0,61,38,0
0,56,50,0
0,66,119,1
0,61,1,1
0,56,5,0
0,66,0,37
0,61,0,21
0,56,0,0
0,52,20,2
0,61,1,0
0,56,20,0
0,52,0,12
0,61,0,0
0,56,0,0
0,52,0,2
0,61,0,0
0,56,0,0
0,52,66,0
0,61,48,0
0,56,52,0
0,63,119,1
0,56,89,1
0,52,89,0
0,61,89,0
0,63,0,30
0,54,68,14
0,54,0,10
0,61,0,48
0,52,0,0
0,56,0,0
0,61,0,2
0,56,0,0
0,52,0,0
0,52,66,0
0,61,42,0
0,56,52,0
0,64,119,1
0,64,0,37
0,52,62,24
0,56,42,0
0,52,0,56
0,56,0,0
0,61,0,0
0,52,0,2
0,56,0,0
0,56,39,0
0,66,119,1
0,56,9,1
0,66,0,29
0,56,0,12
0,56,0,2
0,52,72,0
0,61,46,0
0,56,54,0
0,54,76,0
0,63,119,1
0,52,91,1
0,61,91,0
0,56,91,0
0,54,0,8
0,56,0,91
0,52,0,0
0,61,0,0
0,61,0,2
0,56,0,0
0,52,0,0
0,61,39,0
0,52,39,0
0,56,39,0
0,52,1,2
0,56,1,0
0,56,0,9
0,52,0,0
0,63,0,0
0,61,0,0
0,56,0,2
0,52,0,0
0,61,42,0
0,56,54,0
0,52,66,0
0,61,119,1
0,52,89,1
0,61,89,0
0,56,89,0
0,56,0,28
0,52,0,0
0,52,1,2
0,61,0,4
0,61,0,22
0,52,0,0
0,56,0,0
0,61,33,2
0,56,33,0
0,54,76,0
0,63,119,1
0,61,0,1
0,54,0,8
0,63,0,36
0,61,0,12
0,56,0,0
0,52,0,2
0,52,34,0
0,61,11,0
0,56,11,0
0,56,0,58
0,61,0,0
0,52,0,0
0,57,101,2
0,52,101,0
0,61,101,0
0,64,119,1
0,57,62,1
0,52,50,0
0,61,0,56
0,57,0,0
0,52,0,0
0,52,0,2
0,57,0,0
0,57,36,0
0,52,3,2
0,57,38,0
0,57,0,12
0,57,0,2
0,52,0,0
0,57,89,0
0,52,78,0
0,61,60,0
0,54,74,0
0,64,0,1
0,64,107,0
0,52,73,1
0,61,44,0
0,57,85,0
0,54,0,8
0,57,0,44
0,52,0,0
0,61,0,0
0,57,5,1
0,57,0,56
0,61,0,0
0,52,0,0
0,57,0,2
0,57,38,0
0,52,32,0
0,61,15,0
0,52,11,2
0,57,38,0
0,61,0,56
0,52,0,0
0,57,0,0
0,57,0,2
0,52,0,0
0,52,72,0
0,61,54,0
0,57,89,0
0,52,79,2
0,61,50,0
0,57,91,0
0,57,0,56
0,61,0,0
0,52,0,0
0,52,32,2
0,57,40,0
0,54,74,0
0,54,0,10
0,52,0,48
0,57,0,0
0,57,0,2
0,52,0,0
0,61,0,0
0,54,101,0
0,62,101,0
0,57,101,0
0,64,0,1
0,66,119,0
0,61,1,1
0,57,36,0
0,57,0,58
0,61,0,0
0,54,20,1
0,57,79,0
0,57,0,56
0,54,0,0
0,62,0,0
0,57,0,2
0,54,0,0
0,62,24,0
0,54,11,0
0,57,44,0
0,62,1,2
0,57,9,0
0,57,0,12
0,54,0,0
0,62,0,0
0,57,0,2
0,62,0,0
0,62,66,0
0,57,83,0
0,54,40,0
0,54,74,0
0,66,0,1
0,66,101,0
0,62,91,1
0,57,91,0
0,54,91,0
0,54,0,8
0,54,0,29
0,62,0,0
0,57,0,0
0,62,28,2
0,57,42,0
0,62,0,56
0,54,0,0
0,57,0,0
0,57,0,2
0,62,0,0
0,62,34,0
0,54,11,0
0,57,54,0
0,54,1,2
0,62,40,0
0,57,50,0
0,57,0,56
0,54,0,0
0,62,0,0
0,54,0,2
0,57,0,0
0,62,0,0
0,62,78,0
0,57,89,0
0,54,48,0
0,62,79,2
0,57,91,0
0,54,42,0
0,54,76,58
0,62,0,2
0,54,0,8
0,54,0,5
0,66,0,16
0,54,0,27
0,62,0,0
0,57,0,0
0,64,101,2
0,59,101,0
0,54,101,0
0,71,119,0
0,57,0,11
0,38,68,48
0,41,65,0
0,41,0,9
0,38,0,0
0,64,0,18
0,54,0,0
0,59,0,0
0,64,42,2
0,59,42,0
0,38,48,30
0,41,59,0
0,47,92,1
0,64,88,0
0,59,88,0
0,54,78,0
0,41,0,9
0,38,0,0
0,64,0,5
0,59,0,6
0,54,0,0
0,59,0,12
0,64,0,0
0,64,78,2
0,59,72,0
0,38,52,0
0,41,56,0
0,54,74,0
0,71,0,1
0,59,112,0
0,64,127,0
0,54,92,0
0,71,88,0
0,41,0,9
0,38,0,0
0,54,0,0
0,47,0,3
0,64,0,38
0,59,0,3
0,38,57,3
0,41,60,0
0,47,88,1
0,54,0,6
0,38,0,3
0,41,0,0
0,59,0,48
0,64,0,0
0,47,0,1
0,64,46,1
0,59,44,0
0,38,61,0
0,41,64,0
0,64,127,1
0,59,106,0
0,54,94,0
0,41,0,9
0,38,0,0
0,59,0,48
0,64,0,0
0,64,89,2
0,59,72,0
0,38,65,0
0,41,69,0
0,47,94,1
0,59,0,5
0,64,0,1
0,41,0,3
0,38,0,0
0,54,0,2
0,38,69,48
0,41,73,0
0,54,88,0
0,63,74,1
0,59,84,0
0,54,78,0
0,54,0,9
0,41,0,0
0,38,0,0
0,59,0,1
0,63,0,0
0,54,0,5
0,71,0,30
0,59,0,12
0,64,0,0
0,47,0,2
0,63,101,0
0,59,101,0
0,38,73,0
0,41,78,0
0,63,112,1
0,59,118,0
0,54,112,0
0,78,107,0
0,41,0,9
0,38,0,0
0,38,77,29
0,41,82,0
0,47,92,1
0,41,0,6
0,38,0,0
0,63,0,6
0,59,0,2
0,54,0,5
0,63,0,35
0,59,0,0
0,59,28,2
0,63,11,0
0,38,81,0
0,41,86,0
0,63,84,1
0,59,92,0
0,54,78,0
0,41,0,9
0,38,0,0
0,59,0,8
0,54,0,3
0,63,0,0
0,59,0,37
0,63,0,0
0,63,60,2
0,59,66,0
0,38,86,0
0,41,91,0
0,54,74,0
0,59,127,1
0,54,112,0
0,63,106,0
0,47,0,4
0,38,0,5
0,54,0,0
0,41,0,0
0,59,0,48
0,63,0,0
0,59,36,2
0,63,13,0
0,38,90,0
0,41,95,0
0,47,112,1
0,63,0,1
0,59,0,2
0,54,0,1
0,41,0,5
0,38,0,0
0,59,0,48
0,63,0,0
0,59,44,2
0,38,94,0
0,41,100,0
0,59,112,1
0,54,90,0
0,63,88,0
0,41,0,9
0,38,0,0
0,59,0,48
0,63,66,2
0,59,66,0
0,47,106,0
0,59,0,1
0,63,0,0
0,54,0,0
0,54,100,0
0,64,100,0
0,59,100,0
0,47,0,9
0,63,0,20
0,59,0,0
0,47,106,0
0,47,0,10
0,45,106,20
0,54,76,0
0,64,0,1
