track,note,velocity,time
3,56,100,1722
3,34,100,2
3,58,100,1
3,60,100,2
3,53,92,1
3,53,0,78
3,58,0,29
3,56,0,6
3,60,0,1
3,53,92,59
3,53,0,48
3,56,95,49
3,58,98,2
3,60,95,1
3,63,92,2
3,63,0,151
3,58,0,10
3,56,0,0
3,60,0,7
3,53,78,21
3,53,0,53
3,56,92,46
3,58,98,2
3,60,98,1
3,53,79,81
3,60,0,13
3,58,0,0
3,56,0,0
3,53,0,47
3,56,100,40
3,58,111,1
3,60,111,1
3,53,64,120
3,58,0,2
3,60,0,1
3,56,0,4
3,56,73,72
3,60,71,4
3,58,58,2
3,53,0,6
3,60,0,6
3,58,0,2
3,56,0,4
3,34,0,19
3,56,98,47
3,58,98,1
3,60,98,1
3,63,87,2
3,34,100,2
3,58,0,177
3,63,0,6
3,56,0,0
3,60,0,6
3,53,69,3
3,53,0,64
3,56,98,33
3,58,100,0
3,60,95,2
3,53,67,91
3,60,0,7
3,58,0,1
3,56,0,1
3,53,0,41
3,56,100,36
3,58,111,1
3,60,103,2
3,58,0,150
3,56,0,6
3,60,0,5
3,53,69,19
3,53,0,64
3,56,87,52
3,58,95,0
3,60,98,3
3,63,100,2
3,56,0,125
3,58,0,18
3,63,0,8
3,60,0,6
3,53,41,5
3,53,0,71
3,58,98,45
3,56,92,1
3,60,100,2
3,58,0,90
3,60,0,1
3,56,0,0
3,34,0,3
3,53,69,3
3,53,0,33
3,56,103,8
3,58,107,1
3,60,103,1
3,34,111,2
3,56,0,141
3,58,0,5
3,53,77,4
3,60,0,1
3,53,0,65
3,56,98,32
3,58,100,2
3,60,98,1
3,63,100,2
3,56,0,165
3,58,0,15
3,53,50,5
3,63,0,5
3,60,0,1
3,53,0,68
3,56,85,26
3,58,92,1
3,60,95,2
3,58,0,98
3,60,0,2
3,56,0,1
3,53,67,1
3,34,0,14
3,53,0,28
3,34,103,44
3,56,103,2
3,58,111,1
3,60,111,2
3,58,0,105
3,56,0,0
3,60,0,7
3,53,79,4
3,53,0,65
3,60,98,28
3,58,98,1
3,56,87,2
3,63,85,1
3,58,0,179
3,56,0,2
3,63,0,2
3,60,0,2
3,53,77,10
3,53,0,60
3,58,100,34
3,56,92,1
3,60,89,3
3,58,0,96
3,53,67,1
3,60,0,1
3,56,0,0
3,53,0,54
3,58,103,30
3,56,95,1
3,60,95,2
3,56,0,140
3,58,0,1
3,60,0,23
3,53,83,31
3,34,0,21
3,53,0,33
3,34,107,37
3,56,98,3
3,58,92,0
3,60,98,2
3,63,100,2
3,56,0,103
3,58,0,3
3,53,78,10
3,63,0,1
3,60,0,1
3,53,0,71
3,60,82,23
3,58,78,2
3,56,73,1
3,53,56,78
3,56,0,2
3,58,0,8
3,60,0,5
3,53,0,66
3,56,92,20
3,58,98,2
3,60,100,1
3,56,0,144
3,58,0,8
3,60,0,19
3,53,80,19
3,34,0,17
3,53,0,34
3,56,98,49
3,34,103,3
3,60,95,0
3,58,89,3
3,63,87,0
3,56,0,112
3,58,0,3
3,63,0,2
3,53,59,4
3,60,0,1
3,53,0,76
3,56,72,25
3,58,71,1
3,60,73,2
3,58,0,84
3,60,0,2
3,56,0,8
3,53,48,4
3,53,0,80
3,56,52,14
3,58,61,2
3,60,67,0
3,58,0,113
3,56,0,18
3,60,0,5
3,53,62,45
3,53,0,79
3,60,62,23
3,56,29,8
3,58,22,6
3,58,0,33
3,56,0,18
3,60,0,56
3,53,39,61
3,53,0,58
3,34,0,73
3,58,72,23
3,63,70,1
3,39,68,1
3,53,65,3
3,58,0,142
3,53,0,1
3,63,0,1
3,58,46,66
3,53,30,6
3,63,48,0
3,58,0,203
3,63,0,8
3,58,45,80
3,63,48,0
3,53,0,75
3,63,0,8
3,58,0,19
3,43,60,90
3,55,63,0
3,58,63,0
3,63,63,0
3,39,0,3
3,63,0,54
3,55,0,47
3,58,0,15
3,53,64,69
3,58,74,0
3,63,70,0
3,53,0,120
3,63,0,14
3,58,0,4
3,55,68,150
3,58,69,0
3,63,72,0
3,58,0,37
3,63,0,4
3,55,0,15
3,43,0,125
3,41,61,11
3,53,56,0
3,56,63,0
3,58,59,0
3,60,55,0
3,53,0,104
3,60,0,1
3,58,0,1
3,56,0,8
3,53,60,69
3,56,63,0
3,58,43,0
3,60,53,0
3,58,0,59
3,60,0,4
3,53,0,4
3,56,0,10
3,51,34,211
3,56,45,0
3,58,36,0
3,60,35,0
3,60,0,26
3,58,0,0
3,56,0,9
3,51,0,6
3,41,0,151
3,34,65,0
3,50,51,0
3,53,60,0
3,56,35,0
3,58,65,0
3,50,0,52
3,53,0,32
3,56,0,10
3,58,0,3
3,50,26,8
3,50,0,54
3,50,60,42
3,51,68,0
3,56,54,0
3,58,61,0
3,50,0,89
3,58,0,53
3,56,0,6
3,51,0,14
3,51,41,30
3,51,0,25
3,51,71,71
3,56,71,0
3,58,74,0
3,34,0,61
3,51,0,6
3,56,0,6
3,58,0,2
3,39,61,15
3,53,54,0
3,58,59,0
3,63,60,0
3,63,0,79
3,58,0,6
3,53,0,24
3,53,66,53
3,58,66,0
3,63,70,0
3,53,0,140
3,53,34,52
3,58,0,5
3,63,0,11
3,53,0,36
3,53,40,44
3,58,43,0
3,63,53,0
3,53,0,62
3,63,0,20
3,58,0,24
3,43,45,19
3,55,44,0
3,58,50,0
3,63,55,0
3,39,0,12
3,55,0,55
3,63,0,32
3,58,0,4
3,55,28,46
3,36,64,96
3,58,64,0
3,63,66,0
3,43,0,2
3,55,0,145
3,55,49,45
3,58,0,2
3,63,0,40
3,55,0,45
3,58,39,9
3,63,60,0
3,63,0,82
3,55,30,14
3,58,0,4
3,55,0,34
3,36,0,56
3,43,51,2
3,55,56,0
3,58,61,0
3,62,63,0
3,58,0,142
3,62,0,3
3,55,0,0
3,55,33,64
3,58,43,0
3,62,46,0
3,55,0,113
3,58,0,39
3,62,0,15
3,55,56,25
3,62,33,0
3,62,0,17
3,55,0,31
3,43,0,200
3,36,61,40
3,52,48,0
3,55,58,0
3,58,63,0
3,36,0,31
3,58,0,13
3,55,0,0
3,52,0,4
3,36,51,65
3,52,32,0
3,55,49,0
3,58,46,0
3,52,0,112
3,55,0,37
3,58,0,1
3,52,30,42
3,55,46,0
3,58,54,0
3,55,0,53
3,58,0,15
3,52,0,4
3,36,0,90
3,51,76,4
3,56,42,96
3,58,43,0
3,51,0,9
3,51,53,87
3,58,0,23
3,56,0,3
3,56,41,70
3,58,42,0
3,51,0,4
3,58,0,48
3,56,0,5
3,51,54,39
3,56,58,0
3,58,61,0
3,51,0,106
3,51,48,86
3,51,0,41
3,58,0,9
3,56,0,1
3,51,59,45
3,56,51,0
3,58,53,0
3,51,0,214
3,51,52,74
3,56,0,41
3,58,0,2
3,56,64,53
3,58,67,0
3,51,0,11
3,51,38,85
3,58,0,9
3,56,0,0
3,56,62,87
3,58,58,0
3,51,0,9
3,51,43,87
3,51,0,82
3,58,0,34
3,56,0,1
3,50,49,22
3,56,63,0
3,62,73,0
3,62,0,230
3,56,0,9
3,56,58,49
3,62,68,0
3,56,0,142
3,62,0,24
3,56,63,26
3,58,47,96
3,62,64,96
3,50,0,47
3,50,58,49
3,56,47,0
3,58,60,0
3,62,60,0
3,56,0,3
3,62,0,0
3,58,0,0
3,53,45,93
3,62,0,2
3,56,0,24
3,58,0,7
3,56,26,63
3,53,0,7
3,56,0,25
3,56,50,64
3,58,50,0
3,62,60,0
3,62,0,181
3,58,0,7
3,56,0,2
3,53,42,2
3,53,0,85
3,56,28,11
3,58,31,0
3,62,47,0
3,50,0,42
3,56,0,56
3,58,0,3
3,62,0,0
3,68,77,23
3,67,73,92
3,63,80,96
3,60,89,96
3,48,78,192
3,51,89,96
3,55,80,96
3,56,92,96
3,55,0,19
3,56,0,67
3,55,84,10
3,51,0,9
3,51,87,87
3,48,0,23
3,48,80,73
3,60,0,181
3,68,0,0
3,67,0,15
3,63,0,0
3,51,0,8
3,48,0,1
3,55,0,3
3,53,87,18
3,55,87,1
3,50,84,2
3,55,0,62
3,53,0,17
3,50,0,2
3,53,77,13
3,56,98,7
3,50,82,2
3,63,44,368
3,60,43,2
3,60,0,29
3,63,0,0
3,60,82,32
3,63,79,2
3,56,62,1
3,63,0,25
3,60,0,0
3,56,0,0
3,56,0,19
3,63,84,44
3,56,67,1
3,60,82,2
3,60,0,21
3,63,0,1
3,56,0,2
3,56,82,68
3,63,92,1
3,60,98,3
3,60,0,23
3,56,0,2
3,63,0,0
3,65,98,62
3,60,95,1
3,56,80,2
3,60,0,25
3,56,0,1
3,65,0,2
3,65,103,70
3,56,92,1
3,60,107,1
3,60,0,46
3,56,0,2
3,65,0,8
3,51,84,522
3,55,83,0
3,58,82,0
3,50,0,2
3,53,0,1
3,51,0,160
3,58,0,47
3,55,0,1
3,55,78,75
3,58,79,0
3,51,39,192
3,55,0,3
3,58,0,4
3,51,0,15
3,51,59,74
3,55,64,0
3,58,69,0
3,51,0,82
3,55,0,25
3,58,0,6
3,53,77,79
3,55,82,0
3,58,78,0
3,53,0,22
3,53,50,11
3,53,0,59
3,55,0,2
3,58,0,2
3,55,83,81
3,58,79,0
3,53,52,192
3,55,0,19
3,58,0,5
3,53,0,17
3,53,68,55
3,55,79,0
3,58,74,0
3,55,0,85
3,53,0,8
3,58,0,2
3,51,73,97
3,53,76,0
3,58,79,0
3,58,0,72
3,53,0,8
3,51,0,5
3,53,78,68
3,58,74,0
3,58,0,171
3,51,49,21
3,53,0,18
3,51,0,15
3,51,71,63
3,53,73,0
3,58,77,0
3,51,0,93
3,58,0,10
3,53,0,9
3,50,78,80
3,53,77,0
3,58,80,0
3,50,0,77
3,58,0,15
3,53,0,3
3,50,72,67
3,53,69,0
3,58,78,0
3,50,0,184
3,58,0,45
3,53,0,7
3,50,44,4
3,53,64,48
3,58,71,0
3,50,0,30
3,53,0,50
3,58,0,3
3,51,79,109
3,55,82,0
3,58,80,0
3,51,0,82
3,58,0,2
3,55,0,3
3,55,69,63
3,58,76,0
3,51,37,192
3,55,0,10
3,58,0,1
3,51,0,14
3,55,59,71
3,58,69,0
3,51,33,96
3,55,0,10
3,58,0,4
3,51,0,13
3,51,79,69
3,55,84,0
3,60,85,0
3,51,0,28
3,51,51,35
3,55,0,21
3,60,0,1
3,51,0,30
3,55,77,44
3,60,80,0
3,51,49,192
3,60,0,17
3,55,0,1
3,51,0,18
3,51,59,60
3,55,71,0
3,60,80,0
3,55,0,61
3,60,0,15
3,51,0,17
3,50,89,99
3,55,83,0
3,58,84,0
3,58,0,64
3,55,0,7
3,50,0,7
3,50,58,57
3,55,68,0
3,58,71,0
3,50,0,114
3,58,0,65
3,55,0,10
3,50,48,3
3,50,0,56
3,55,73,40
3,58,77,0
3,58,0,31
3,55,0,2
3,48,73,159
3,50,82,0
3,55,78,0
3,48,0,39
3,48,72,43
3,55,0,20
3,50,0,7
3,48,0,91
3,48,77,74
3,52,82,0
3,55,80,0
3,48,0,123
3,55,0,33
3,52,0,20
3,48,72,16
3,48,0,50
3,41,100,33
3,51,92,0
3,56,98,0
3,58,92,0
3,60,80,0
3,41,0,207
3,41,74,33
3,51,0,67
3,60,0,0
3,58,0,3
3,56,0,6
3,53,98,68
3,56,100,0
3,58,103,0
3,60,100,0
3,41,0,143
3,53,0,67
3,58,0,3
3,60,0,0
3,56,0,4
3,46,80,71
3,55,103,0
3,56,103,0
3,58,119,0
3,60,103,0
3,46,0,615
3,58,0,12
3,60,0,0
3,56,0,0
3,55,0,18
3,53,85,22
3,56,95,1
3,58,85,2
3,60,85,2
3,53,0,177
3,56,0,2
3,58,0,0
3,60,0,1
3,38,65,12
3,50,85,0
3,56,83,0
3,58,84,0
3,62,72,0
3,50,0,97
3,62,0,25
3,58,0,22
3,50,56,7
3,56,0,35
3,50,0,18
3,50,61,43
3,56,64,0
3,38,0,5
3,56,0,36
3,50,0,7
3,34,84,48
3,50,82,0
3,53,92,0
3,56,79,0
3,62,72,0
3,50,0,116
3,50,77,6
3,62,0,20
3,53,0,11
3,56,0,1
3,50,0,11
3,50,84,53
3,53,92,0
3,56,95,0
3,62,85,0
3,50,0,29
3,53,0,36
3,50,62,8
3,62,0,16
3,56,0,1
3,50,0,28
3,53,61,51
3,56,42,0
3,56,0,25
3,53,0,3
3,53,85,68
3,56,78,0
3,62,83,0
3,50,62,96
3,62,0,29
3,50,0,15
3,56,0,1
3,53,0,4
3,53,78,47
3,56,72,0
3,62,74,0
3,62,0,20
3,56,0,11
3,53,0,0
3,53,87,65
3,56,87,0
3,62,95,0
3,34,0,23
3,53,0,60
3,56,0,8
3,62,0,5
3,68,103,48
3,68,0,45
3,67,85,51
3,67,0,41
3,63,95,55
3,63,0,35
3,60,111,61
3,60,0,193
3,55,84,191
3,59,89,0
3,63,98,0
3,63,0,183
3,59,0,2
3,55,0,18
3,59,80,71
3,63,80,0
3,63,0,192
3,55,68,0
3,59,0,7
3,55,0,31
3,55,58,58
3,59,77,0
3,63,78,0
3,55,0,48
3,59,0,56
3,63,0,1
3,55,78,87
3,58,83,0
3,63,82,0
3,63,0,193
3,55,0,3
3,58,0,3
3,55,82,14
3,58,92,0
3,63,84,0
3,55,0,76
3,58,0,46
3,63,0,2
3,55,64,15
3,55,0,40
3,55,51,56
3,58,82,0
3,63,82,0
3,55,0,17
3,58,0,8
3,63,0,3
3,51,84,164
3,56,82,0
3,58,87,0
3,60,95,0
3,63,69,0
3,51,0,102
3,63,0,1
3,58,0,1
3,56,0,6
3,60,0,0
3,51,89,73
3,56,85,0
3,58,87,0
3,60,87,0
3,63,82,0
3,58,0,401
3,51,0,0
3,56,0,3
3,63,0,2
3,60,0,1
3,43,98,48
3,55,84,0
3,58,87,0
3,63,84,0
3,63,0,42
3,58,0,6
3,55,0,14
3,55,85,63
3,58,92,0
3,63,89,0
3,43,0,34
3,43,80,62
3,55,0,58
3,63,0,38
3,55,51,0
3,58,0,17
3,55,0,24
3,55,68,55
3,58,66,0
3,63,62,0
3,43,0,37
3,63,0,57
3,43,62,2
3,55,0,9
3,58,0,6
3,53,76,81
3,58,84,0
3,63,83,0
3,43,0,129
3,43,58,63
3,63,0,21
3,58,0,6
3,53,0,2
3,53,76,67
3,58,80,0
3,63,80,0
3,63,0,154
3,58,0,1
3,53,0,0
3,53,44,37
3,58,58,0
3,63,64,0
3,58,0,33
3,63,0,7
3,53,0,3
3,53,69,53
3,58,71,0
3,63,69,0
3,63,0,25
3,58,0,0
3,53,0,12
3,41,73,155
3,51,83,0
3,53,87,0
3,56,83,0
3,60,87,0
3,43,0,3
3,53,0,58
3,60,0,0
3,56,0,5
3,51,0,1
3,51,74,67
3,53,72,0
3,56,79,0
3,60,78,0
3,60,0,151
3,51,0,1
3,53,0,1
3,56,0,5
3,51,67,34
3,53,64,0
3,56,67,0
3,60,71,0
3,56,0,72
3,60,0,1
3,51,0,1
3,53,0,2
3,41,0,206
3,34,66,6
3,53,74,0
3,56,82,0
3,58,69,0
3,60,83,0
3,63,71,0
3,34,0,720
3,58,0,4
3,63,0,6
3,53,0,1
3,60,0,2
3,56,0,4
3,43,79,20
3,51,73,0
3,55,77,0
3,58,71,0
3,51,0,36
3,58,0,54
3,55,0,3
3,51,72,69
3,55,73,0
3,58,76,0
3,43,0,57
3,43,38,87
3,51,0,27
3,58,0,90
3,55,0,5
3,51,46,22
3,55,33,0
3,58,35,0
3,43,0,46
3,58,0,38
3,55,0,6
3,43,66,6
3,51,0,19
3,51,80,77
3,53,95,0
3,58,84,0
3,51,0,22
3,58,0,45
3,53,0,8
3,51,49,47
3,51,0,143
3,53,72,49
3,58,72,0
3,51,29,96
3,53,0,18
3,51,0,19
3,58,0,1
3,43,0,131
3,41,74,23
3,51,74,0
3,56,78,0
3,58,80,0
3,58,0,109
3,51,0,6
3,56,0,2
3,41,82,21
3,51,62,0
3,56,72,0
3,58,71,0
3,41,0,13
3,51,0,133
3,56,0,39
