track,note,velocity,time
4,28,100,224
4,28,0,80
4,28,100,208
4,28,0,22
4,28,100,26
4,28,0,82
4,28,100,350
4,28,0,84
4,28,100,204
4,28,0,24
4,28,100,24
4,28,0,60
4,28,100,84
4,28,0,96
4,28,100,192
4,28,0,80
4,28,100,208
4,28,0,26
4,28,100,22
4,28,0,72
4,28,100,360
4,28,0,98
4,28,100,238
4,28,0,50
4,28,100,46
4,28,0,30
4,28,100,18
4,28,0,74
4,35,100,22
4,35,0,90
4,38,100,6
4,38,0,74
4,28,100,22
4,28,0,74
4,28,100,214
4,28,0,28
4,28,100,20
4,28,0,68
4,28,100,364
4,28,0,74
4,28,100,406
4,28,0,90
4,28,100,198
4,28,0,86
4,28,100,202
4,28,0,30
4,28,100,18
4,28,0,76
4,28,100,356
4,28,0,104
4,28,100,232
4,28,0,52
4,28,100,44
4,28,0,30
4,28,100,18
4,28,0,96
4,28,100,192
4,28,0,80
4,28,100,208
4,28,0,32
4,28,100,16
4,28,0,70
4,28,100,362
4,28,0,136
4,28,100,200
4,28,0,36
4,28,100,108
4,28,0,158
4,28,100,130
4,28,0,84
4,28,100,204
4,28,0,30
4,28,100,18
4,28,0,56
4,28,100,376
4,28,0,80
4,28,100,256
4,28,0,36
4,28,100,108
4,28,0,160
4,31,100,32
4,31,0,96
4,33,100,0
4,33,0,64
4,33,100,224
4,33,0,26
4,33,100,22
4,33,0,46
4,33,100,386
4,33,0,76
4,33,100,260
4,33,0,28
4,33,100,116
4,33,0,210
4,35,100,78
4,35,0,50
4,35,100,238
4,35,0,32
4,33,100,16
4,33,0,50
4,31,100,382
4,31,0,86
4,31,100,202
4,31,0,28
4,30,100,20
4,30,0,38
4,30,100,58
4,30,0,44
4,30,100,52
4,30,0,34
4,26,100,14
4,26,0,86
4,27,100,10
4,27,0,70
4,28,100,26
4,28,0,74
4,28,100,214
4,28,0,32
4,28,100,16
4,28,0,60
4,28,100,372
4,28,0,64
4,28,100,224
4,28,0,32
4,28,100,16
4,28,0,38
4,28,100,58
4,28,0,48
4,28,100,0
4,28,0,130
4,28,100,158
4,28,0,84
4,28,100,204
4,28,0,36
4,28,100,12
4,28,0,50
4,28,100,382
4,28,0,106
4,28,100,230
4,28,0,40
4,28,100,56
4,28,0,48
4,28,100,0
4,28,0,176
4,31,100,16
4,31,0,74
4,33,100,22
4,33,0,64
4,33,100,224
4,33,0,26
4,33,100,22
4,33,0,46
4,33,100,386
4,33,0,76
4,33,100,260
4,33,0,28
4,33,100,116
4,33,0,210
4,35,100,78
4,35,0,50
4,35,100,238
4,35,0,32
4,33,100,16
4,33,0,50
4,31,100,382
4,31,0,68
4,31,100,220
4,31,0,34
4,30,100,14
4,30,0,40
4,30,100,104
4,30,0,38
4,26,100,58
4,26,0,94
4,28,100,98
4,28,0,58
4,28,100,230
4,28,0,26
4,28,100,22
4,28,0,54
4,28,100,378
4,28,0,74
4,28,100,262
4,28,0,30
4,28,100,114
4,28,0,82
4,31,100,14
4,31,0,148
4,36,100,44
4,36,0,70
4,36,100,218
4,36,0,32
4,36,100,16
4,36,0,44
4,36,100,388
4,36,0,54
4,36,100,282
4,36,0,32
4,36,100,112
4,36,0,80
4,35,100,16
4,35,0,116
4,33,100,76
4,33,0,78
4,33,100,210
4,33,0,30
4,33,100,18
4,33,0,50
4,33,100,382
4,33,0,84
4,33,100,252
4,33,0,30
4,33,100,66
4,33,0,48
4,33,100,0
4,33,0,220
4,38,100,68
4,38,0,58
4,38,100,230
4,38,0,32
4,36,100,16
4,36,0,78
4,35,100,354
4,35,0,84
4,35,100,204
4,35,0,34
4,35,100,14
4,35,0,42
4,35,100,54
4,35,0,48
4,35,100,0
4,35,0,46
4,31,100,50
4,31,0,66
4,30,100,30
4,30,0,70
4,28,100,26
4,28,0,58
4,28,100,230
4,28,0,26
4,28,100,22
4,28,0,54
4,28,100,378
4,28,0,74
4,28,100,262
4,28,0,30
4,28,100,114
4,28,0,82
4,31,100,14
4,31,0,148
4,36,100,44
4,36,0,70
4,36,100,218
4,36,0,32
4,36,100,16
4,36,0,44
4,36,100,388
4,36,0,54
4,36,100,282
4,36,0,32
4,36,100,112
4,36,0,80
4,35,100,16
4,35,0,116
4,33,100,76
4,33,0,74
4,33,100,214
4,33,0,32
4,33,100,16
4,33,0,50
4,33,100,382
4,33,0,76
4,33,100,260
4,33,0,32
4,33,100,112
4,33,0,144
4,35,100,144
4,35,0,62
4,35,100,226
4,35,0,24
4,33,100,24
4,33,0,86
4,31,100,346
4,31,0,90
4,30,100,246
4,30,0,28
4,30,100,116
4,30,0,54
4,26,100,42
4,26,0,70
4,27,100,26
4,27,0,60
4,28,100,36
4,28,0,80
4,28,100,208
4,28,0,32
4,28,100,16
4,28,0,70
4,28,100,362
4,28,0,136
4,28,100,200
4,28,0,36
4,28,100,108
4,28,0,158
4,28,100,130
4,28,0,84
4,28,100,204
4,28,0,30
4,28,100,18
4,28,0,56
4,28,100,376
4,28,0,80
4,28,100,208
4,28,0,48
4,28,100,0
4,28,0,36
4,28,100,60
4,28,0,48
4,28,100,0
4,28,0,160
4,31,100,32
4,31,0,96
4,33,100,0
4,33,0,64
4,33,100,224
4,33,0,26
4,33,100,22
4,33,0,46
4,33,100,386
4,33,0,76
4,33,100,212
4,33,0,48
4,33,100,0
4,33,0,28
4,33,100,116
4,33,0,210
4,35,100,78
4,35,0,50
4,35,100,238
4,35,0,32
4,33,100,16
4,33,0,50
4,31,100,382
4,31,0,68
4,31,100,220
4,31,0,34
4,30,100,14
4,30,0,40
4,30,100,56
4,30,0,28
4,30,100,20
4,30,0,56
4,26,100,40
4,26,0,94
4,27,100,2
4,27,0,52
4,28,100,44
4,28,0,80
4,28,100,208
4,28,0,32
4,28,100,16
4,28,0,70
4,28,100,362
4,28,0,136
4,28,100,200
4,28,0,36
4,28,100,60
4,28,0,48
4,28,100,0
4,28,0,158
4,28,100,130
4,28,0,84
4,28,100,204
4,28,0,30
4,28,100,18
4,28,0,56
4,28,100,376
4,28,0,80
4,28,100,256
4,28,0,36
4,28,100,60
4,28,0,48
4,28,100,0
4,28,0,160
4,31,100,32
4,31,0,96
4,33,100,0
4,33,0,64
4,33,100,224
4,33,0,26
4,33,100,22
4,33,0,46
4,33,100,386
4,33,0,76
4,33,100,260
4,33,0,28
4,33,100,116
4,33,0,210
4,35,100,78
4,35,0,50
4,35,100,238
4,35,0,32
4,33,100,16
4,33,0,50
4,31,100,382
4,31,0,68
4,31,100,220
4,31,0,34
4,30,100,14
4,30,0,40
4,30,100,104
4,30,0,56
4,26,100,40
4,26,0,94
4,27,100,2
4,27,0,52
4,28,100,44
4,28,0,58
4,28,100,230
4,28,0,26
4,28,100,22
4,28,0,54
4,28,100,378
4,28,0,74
4,28,100,262
4,28,0,30
4,28,100,114
4,28,0,82
4,31,100,14
4,31,0,148
4,36,100,44
4,36,0,70
4,36,100,218
4,36,0,32
4,36,100,16
4,36,0,44
4,36,100,388
4,36,0,54
4,36,100,282
4,36,0,32
4,36,100,112
4,36,0,80
4,35,100,16
4,35,0,116
4,33,100,76
4,33,0,78
4,33,100,210
4,33,0,30
4,33,100,18
4,33,0,50
4,33,100,382
4,33,0,84
4,33,100,252
4,33,0,30
4,33,100,114
4,33,0,220
4,38,100,68
4,38,0,58
4,38,100,230
4,38,0,32
4,36,100,16
4,36,0,78
4,35,100,354
4,35,0,84
4,35,100,252
4,35,0,34
4,35,100,110
4,35,0,46
4,31,100,50
4,31,0,66
4,30,100,30
4,30,0,70
4,28,100,26
4,28,0,58
4,28,100,230
4,28,0,26
4,28,100,22
4,28,0,54
4,28,100,378
4,28,0,74
4,28,100,262
4,28,0,30
4,28,100,114
4,28,0,82
4,31,100,14
4,31,0,148
4,36,100,44
4,36,0,70
4,36,100,218
4,36,0,32
4,36,100,16
4,36,0,44
4,36,100,388
4,36,0,54
4,36,100,282
4,36,0,32
4,36,100,112
4,36,0,80
4,35,100,16
4,35,0,116
4,33,100,76
4,33,0,74
4,33,100,214
4,33,0,32
4,33,100,16
4,33,0,50
4,33,100,382
4,33,0,76
4,33,100,260
4,33,0,32
4,33,100,112
4,33,0,144
4,35,100,144
4,35,0,62
4,35,100,226
4,35,0,24
4,33,100,24
4,33,0,86
4,31,100,346
4,31,0,90
4,31,100,198
4,31,0,48
4,30,100,0
4,30,0,44
4,30,100,100
4,30,0,54
4,26,100,42
4,26,0,70
4,27,100,26
4,27,0,60
4,28,100,36
4,28,0,76
4,28,100,212
4,28,0,24
4,28,100,24
4,28,0,80
4,28,100,352
4,28,0,82
4,28,100,206
4,28,0,48
4,28,100,0
4,28,0,34
4,28,100,110
4,28,0,56
4,26,100,40
4,26,0,90
4,27,100,6
4,27,0,56
4,28,100,40
4,28,0,98
4,28,100,190
4,28,0,34
4,28,100,14
4,28,0,92
4,28,100,244
4,28,0,54
4,30,100,42
4,30,0,120
4,30,100,216
4,30,0,28
4,30,100,68
4,30,0,14
4,30,100,34
4,30,0,94
4,31,100,194
4,31,0,104
4,31,100,184
4,31,0,28
4,31,100,20
4,31,0,96
4,31,100,288
4,33,100,48
4,31,0,12
4,33,0,102
4,35,100,222
4,35,0,52
4,35,100,92
4,35,0,70
4,26,100,26
4,26,0,62
4,27,100,34
4,27,0,76
4,28,100,20
4,28,0,72
4,28,100,216
4,28,0,36
4,28,100,12
4,28,0,74
4,28,100,262
4,28,0,54
4,30,100,42
4,30,0,100
4,30,100,236
4,30,0,32
4,30,100,64
4,30,0,14
4,30,100,34
4,30,0,100
4,31,100,188
4,31,0,96
4,31,100,192
4,31,0,34
4,31,100,14
4,31,0,90
4,31,100,246
4,31,0,14
4,32,100,34
4,32,0,14
4,33,100,34
4,33,0,98
4,35,100,238
4,35,0,48
4,35,100,96
4,35,0,56
4,31,100,40
4,31,0,86
4,30,100,10
4,30,0,60
4,28,100,36
4,28,0,98
4,28,100,190
4,28,0,34
4,28,100,14
4,28,0,92
4,30,100,340
4,30,0,120
4,30,100,216
4,30,0,42
4,30,100,102
4,30,0,94
4,31,100,194
4,31,0,104
4,31,100,184
4,31,0,28
4,31,100,20
4,31,0,96
4,33,100,240
4,33,0,96
4,35,100,0
4,35,0,114
4,35,100,222
4,35,0,52
4,35,100,92
4,35,0,70
4,26,100,26
4,26,0,62
4,27,100,34
4,27,0,76
4,28,100,20
4,28,0,98
4,28,100,190
4,28,0,34
4,28,100,14
4,28,0,92
4,30,100,340
4,30,0,120
4,30,100,168
4,30,0,48
4,30,100,0
4,30,0,42
4,30,100,102
4,30,0,94
4,31,100,194
4,31,0,104
4,31,100,184
4,31,0,28
4,31,100,20
4,31,0,96
4,33,100,240
4,33,0,96
4,35,100,0
4,35,0,114
4,35,100,222
4,35,0,52
4,35,100,92
4,35,0,70
4,26,100,26
4,26,0,62
4,27,100,34
4,27,0,76
4,28,100,20
4,28,0,72
4,28,100,216
4,28,0,36
4,28,100,12
4,28,0,74
4,30,100,358
4,30,0,100
4,30,100,236
4,30,0,42
4,30,100,102
4,30,0,100
4,31,100,188
4,31,0,96
4,31,100,192
4,31,0,34
4,31,100,14
4,31,0,90
4,33,100,246
4,33,0,96
4,35,100,0
4,35,0,98
4,35,100,238
4,35,0,48
4,35,100,96
4,35,0,56
4,26,100,40
4,26,0,86
4,27,100,10
4,27,0,60
4,28,100,36
4,28,0,72
4,28,100,216
4,28,0,36
4,28,100,12
4,28,0,74
4,30,100,358
4,30,0,100
4,30,100,236
4,30,0,42
4,30,100,102
4,30,0,100
4,31,100,188
4,31,0,96
4,31,100,192
4,31,0,34
4,31,100,14
4,31,0,90
4,33,100,246
4,33,0,96
4,35,100,0
4,35,0,98
4,35,100,238
4,35,0,48
4,35,100,96
4,35,0,56
4,26,100,40
4,26,0,86
4,27,100,10
4,27,0,60
4,28,100,36
4,28,0,72
4,28,100,216
4,28,0,36
4,28,100,12
4,28,0,74
4,30,100,358
4,30,0,100
4,30,100,236
4,30,0,42
4,30,100,102
4,30,0,100
4,31,100,188
4,31,0,96
4,31,100,192
4,31,0,34
4,31,100,14
4,31,0,90
4,33,100,246
4,33,0,96
4,35,100,0
4,35,0,98
4,35,100,238
4,35,0,48
4,35,100,96
4,35,0,56
4,26,100,40
4,26,0,86
4,27,100,10
4,27,0,60
4,28,100,36
4,28,0,72
4,28,100,216
4,28,0,36
4,28,100,12
4,28,0,74
4,30,100,358
4,30,0,100
4,30,100,236
4,30,0,42
4,30,100,102
4,30,0,100
4,31,100,188
4,31,0,96
4,31,100,192
4,31,0,34
4,31,100,14
4,31,0,90
4,33,100,246
4,33,0,96
4,35,100,0
4,35,0,98
4,35,100,238
4,35,0,48
4,35,100,96
4,35,0,56
4,35,103,36
4,35,0,32
4,35,99,20
4,35,0,63
5,71,105,192
5,71,0,78
5,74,101,4
5,74,0,352
5,70,93,288
5,71,102,8
5,70,0,18
5,74,104,50
5,71,0,4
5,74,0,200
5,58,104,326
5,59,87,22
5,58,0,30
5,59,0,50
5,62,88,2
5,62,0,270
5,58,92,2730
5,59,97,14
5,58,0,24
5,62,98,24
5,59,0,10
5,62,0,126
5,64,104,4
5,67,99,154
5,64,0,2
5,67,0,40
5,64,108,2014
5,64,0,20
5,62,107,80
5,62,0,138
5,59,97,4
5,59,0,30
5,59,106,446
5,59,0,6
5,52,93,6
5,52,0,174
5,71,101,652
5,74,99,2
5,71,0,16
5,74,0,2
5,71,106,70
5,74,101,2
5,71,0,40
5,69,102,2
5,69,0,92
5,67,101,6
5,74,0,54
5,67,0,46
5,64,109,2
5,64,0,178
5,55,107,2798
5,55,0,22
5,57,105,80
5,59,102,148
5,57,0,2
5,59,0,34
5,52,92,2884
5,52,0,42
5,55,94,6
5,55,0,30
5,55,96,108
5,55,0,30
5,55,86,18
5,55,0,44
5,64,104,482
5,64,0,76
5,62,92,18
5,62,0,32
5,55,88,18
5,55,0,48
5,58,102,390
5,59,99,6
5,58,0,18
5,62,99,32
5,59,0,4
5,62,0,50
5,62,104,84
5,62,0,122
5,64,95,20
5,64,0,38
5,55,97,582
5,57,88,146
5,55,0,4
5,57,0,28
5,57,107,590
5,76,94,6
5,59,106,136
5,57,0,2
5,59,0,30
5,76,0,54
5,76,105,2
5,76,0,230
5,74,87,12
5,74,0,40
5,67,93,8
5,67,0,42
5,78,110,10
5,78,0,520
5,74,103,2
5,74,0,86
5,71,99,12
5,71,0,84
5,74,100,10
5,74,0,92
5,71,100,6
5,71,0,92
5,67,91,4
5,67,0,74
5,64,95,24
5,64,0,88
5,67,99,4
5,66,106,24
5,67,0,6
5,66,0,10
5,62,92,2
5,59,93,22
5,62,0,4
5,59,0,40
5,64,103,10
5,64,0,10
5,50,106,1516
5,50,0,74
5,52,105,18
5,52,0,72
5,55,108,30
5,55,0,80
5,52,107,20
5,52,0,200
5,64,108,1334
5,64,0,456
5,64,100,22
5,64,0,270
5,64,85,16
5,64,0,468
5,64,93,18
5,64,0,284
5,69,111,2880
5,64,109,2
5,64,0,26
5,69,0,12
5,64,103,10
5,59,104,2
5,59,0,118
5,64,0,16
5,64,93,486
5,59,85,2
5,59,0,14
5,64,0,4
5,67,106,82
5,64,106,2
5,64,0,114
5,67,0,58
5,64,103,8
5,59,96,2
5,64,0,28
5,59,0,6
5,59,85,16
5,64,85,4
5,64,0,10
5,59,0,6
5,71,104,6796
5,71,0,46
5,74,116,6
5,76,85,152
5,74,0,4
5,76,0,50
5,74,100,1136
5,67,85,46
5,74,0,6
5,69,85,46
5,67,0,4
5,69,0,186
5,54,98,1436
5,47,86,2
5,47,0,28
5,54,0,2
5,54,120,254
5,47,85,4
5,54,0,20
5,47,0,4
5,47,85,22
5,54,104,4
5,47,0,44
5,54,0,4
5,54,85,572
5,47,85,2
5,47,0,28
5,54,0,4
5,61,103,640
5,62,101,16
5,61,0,12
5,64,99,24
5,62,0,10
5,64,0,84
5,67,95,2
5,67,0,40
5,64,102,10
5,64,0,276
5,69,101,1014
5,66,104,48
