track,note,velocity,time
0,28,98,560
0,57,103,398
0,62,114,0
0,64,89,188
0,38,80,10
0,35,106,0
0,41,83,0
0,55,94,0
0,62,106,0
0,62,102,1
0,66,94,0
0,69,57,44
0,62,86,1
0,66,62,0
0,42,94,31
0,69,38,0
0,62,87,1
0,66,93,0
0,75,86,3
0,63,107,68
0,69,96,0
0,62,97,1
0,66,88,0
0,33,85,41
0,42,94,0
0,64,107,0
0,69,94,0
0,62,107,1
0,66,104,0
0,69,61,46
0,75,57,0
0,64,70,1
0,45,85,20
0,42,90,0
0,69,92,0
0,62,78,1
0,45,87,68
0,69,74,0
0,38,85,43
0,41,97,0
0,42,90,0
0,62,107,0
0,38,70,1
0,75,73,8
0,69,29,85
0,42,86,95
0,69,67,0
0,50,57,1
0,63,107,94
0,69,106,0
0,57,112,1
0,75,54,0
0,42,90,12
0,64,107,0
0,69,95,0
0,62,112,1
0,69,80,94
0,33,85,2
0,42,90,0
0,69,101,0
0,64,107,1
0,75,69,0
0,69,65,58
0,38,85,32
0,41,82,0
0,42,98,0
0,62,107,0
0,69,85,0
0,38,87,1
0,62,94,0
0,66,93,0
0,69,38,66
0,62,80,1
0,66,84,0
0,42,94,74
0,69,46,0
0,62,87,1
0,66,91,0
0,75,91,11
0,63,107,76
0,69,84,0
0,62,94,1
0,66,96,0
0,33,85,36
0,42,94,0
0,64,107,0
0,69,90,0
0,62,102,1
0,66,104,0
0,69,100,50
0,64,61,1
0,75,86,14
0,45,85,9
0,42,103,0
0,69,77,0
0,62,90,1
0,45,88,60
0,69,69,0
0,38,85,0
0,41,92,0
0,42,98,0
0,62,107,0
0,69,88,0
0,38,76,1
0,75,77,14
0,69,58,79
0,42,90,95
0,69,60,0
0,63,107,95
0,69,100,0
0,57,88,1
0,75,80,6
0,42,98,34
0,64,107,0
0,69,92,0
0,62,107,1
0,69,86,94
0,42,94,12
0,69,107,0
0,64,104,1
0,75,97,4
0,45,97,68
0,69,67,0
0,38,85,52
0,41,97,0
0,42,98,0
0,62,107,0
0,69,104,0
0,38,85,1
0,62,88,0
0,66,86,0
0,69,81,66
0,62,87,1
0,66,84,0
0,42,86,76
0,69,76,0
0,62,84,1
0,66,88,0
0,75,97,4
0,63,107,76
0,69,91,0
0,62,94,1
0,66,93,0
0,33,85,10
0,42,94,0
0,64,107,0
0,69,86,0
0,62,104,1
0,66,104,0
0,75,97,40
0,69,77,5
0,64,70,1
0,45,85,1
0,42,94,0
0,69,73,0
0,62,78,1
0,45,85,54
0,69,68,0
0,38,85,10
0,41,97,0
0,42,94,0
0,62,107,0
0,69,106,0
0,38,83,1
0,75,97,6
0,69,56,87
0,42,94,95
0,69,70,0
0,63,107,95
0,69,96,0
0,75,97,0
0,57,75,1
0,42,94,32
0,64,90,0
0,69,95,0
0,62,94,1
0,69,100,94
0,42,90,2
0,69,85,0
0,64,90,1
0,75,97,6
0,45,91,60
0,69,69,0
0,38,85,34
0,41,96,0
0,42,90,0
0,62,107,0
0,69,106,0
0,38,80,1
0,62,88,0
0,66,78,0
0,69,71,68
0,62,88,1
0,66,69,0
0,42,90,76
0,69,65,0
0,75,97,0
0,62,92,1
0,66,93,0
0,72,127,0
0,63,107,72
0,69,98,0
0,62,96,1
0,66,93,0
0,33,85,4
0,42,90,0
0,64,107,0
0,69,96,0
0,62,102,1
0,66,104,0
0,69,71,48
0,64,75,1
0,75,97,8
0,45,85,1
0,42,98,0
0,69,90,0
0,62,102,1
0,69,86,40
0,38,85,7
0,35,110,0
0,41,87,0
0,41,97,0
0,55,90,0
0,62,107,0
0,69,107,0
0,38,79,1
0,75,97,1
0,66,99,100
0,67,89,1
0,69,106,1
0,69,94,1
0,74,66,1
0,31,97,190
0,35,98,0
0,69,67,0
0,74,98,1
0,82,20,94
0,43,85,1
0,70,64,94
0,50,85,1
0,38,86,18
0,82,34,0
0,64,79,1
0,55,88,0
0,43,85,38
0,37,122,0
0,69,61,0
0,59,85,1
0,82,36,94
0,62,85,1
0,38,85,15
0,70,67,0
0,67,86,1
0,35,85,61
0,82,48,0
0,71,85,1
0,59,85,0
0,33,88,8
0,35,101,0
0,69,63,0
0,69,94,1
0,45,85,0
0,82,32,67
0,69,84,1
0,49,85,0
0,70,67,94
0,66,102,1
0,52,85,0
0,40,85,22
0,82,28,0
0,67,108,1
0,57,85,0
0,45,85,60
0,37,122,0
0,69,77,0
0,61,85,1
0,82,26,94
0,67,85,1
0,64,85,0
0,40,91,13
0,70,67,0
0,66,106,1
0,71,85,0
0,82,30,4
0,69,85,1
0,38,89,16
0,35,92,0
0,69,57,0
0,38,85,1
0,82,41,60
0,45,85,1
0,70,64,94
0,50,98,1
0,45,101,1
0,82,39,0
0,54,85,1
0,38,85,4
0,37,122,0
0,69,67,0
0,57,85,1
0,82,36,94
0,62,89,1
0,37,85,9
0,35,103,0
0,70,64,0
0,61,85,1
0,82,34,94
0,62,85,1
0,35,85,12
0,35,93,0
0,69,71,0
0,59,85,1
0,82,34,94
0,70,59,95
0,62,75,1
0,47,92,0
0,42,85,4
0,82,34,0
0,64,90,1
0,57,103,0
0,47,85,1
0,37,117,0
0,69,71,0
0,66,114,1
0,47,91,0
0,82,41,94
0,66,102,1
0,59,89,0
0,42,85,6
0,70,57,0
0,71,84,1
0,55,91,0
0,35,85,94
0,82,39,0
0,69,113,1
0,57,85,0
0,40,101,54
0,35,98,0
0,69,77,0
0,82,36,95
0,40,85,1
0,70,59,94
0,71,78,1
0,47,86,0
0,43,101,27
0,82,44,0
0,64,56,1
0,52,106,0
0,47,95,26
0,37,127,0
0,69,63,0
0,55,97,1
0,82,44,94
0,64,65,1
0,59,91,0
0,43,98,31
0,70,64,0
0,64,95,1
0,82,39,32
0,71,82,1
0,55,88,0
0,33,96,80
0,35,98,0
0,69,74,0
0,69,113,1
0,45,85,0
0,61,86,0
0,82,41,88
0,69,84,1
0,52,85,0
0,70,59,94
0,66,84,1
0,57,96,0
0,40,86,14
0,82,37,0
0,67,100,1
0,59,117,0
0,43,98,7
0,37,127,0
0,69,67,0
0,52,85,1
0,82,45,94
0,67,73,1
0,45,85,0
0,40,96,31
0,70,67,0
0,66,90,1
0,61,111,0
0,82,37,68
0,42,85,1
0,43,85,0
0,38,89,37
0,35,95,0
0,69,67,0
0,38,85,1
0,40,85,0
0,62,86,0
0,82,34,78
0,45,85,1
0,70,67,94
0,50,103,1
0,42,85,71
0,82,44,0
0,54,107,1
0,45,103,12
0,37,127,0
0,69,67,0
0,57,85,1
0,82,39,7
0,62,85,1
0,33,98,21
0,35,91,0
0,70,67,0
0,55,85,1
0,59,85,0
0,82,44,90
0,43,89,1
0,38,91,32
0,35,101,0
0,69,67,0
0,54,85,1
0,57,85,0
0,62,85,0
0,82,20,45
0,38,85,1
0,70,64,94
0,66,94,1
0,45,85,0
0,38,93,66
0,82,34,0
0,67,94,1
0,50,103,0
0,40,103,8
0,37,127,0
0,69,61,0
0,69,95,1
0,54,103,0
0,62,85,0
0,82,36,11
0,57,97,1
0,42,96,29
0,70,67,0
0,74,118,1
0,59,85,0
0,35,98,26
0,82,48,0
0,61,85,1
0,31,97,39
0,35,96,0
0,69,63,0
0,74,108,1
0,62,85,0
0,82,32,82
0,43,85,1
0,70,67,94
0,50,85,1
0,38,86,18
0,82,28,0
0,74,76,1
0,55,88,0
0,43,85,38
0,37,127,0
0,69,77,0
0,59,85,1
0,82,26,94
0,62,85,1
0,38,85,15
0,70,67,0
0,67,86,1
0,82,30,61
0,74,89,1
0,59,85,0
0,33,88,8
0,35,103,0
0,69,57,0
0,73,102,1
0,45,85,0
0,82,41,67
0,49,85,1
0,70,64,94
0,71,90,1
0,52,85,0
0,40,85,22
0,82,39,0
0,69,102,1
0,57,85,0
0,45,85,60
0,37,127,0
0,69,67,0
0,61,85,1
0,82,36,94
0,71,79,1
0,64,85,0
0,40,91,13
0,70,64,0
0,66,106,1
0,71,85,0
0,82,34,4
0,69,85,1
0,38,89,16
0,35,98,0
0,69,71,0
0,38,85,1
0,82,34,60
0,45,85,1
0,70,59,94
0,50,98,1
0,45,101,1
0,82,34,0
0,54,85,1
0,38,85,4
0,37,122,0
0,69,71,0
0,57,85,1
0,82,41,94
0,62,89,1
0,37,85,9
0,35,103,0
0,70,57,0
0,61,85,1
0,82,39,94
0,62,85,1
0,35,85,12
0,35,101,0
0,69,77,0
0,59,85,1
0,82,36,94
0,70,59,95
0,62,81,1
0,47,92,0
0,42,85,4
0,82,44,0
0,64,94,1
0,57,103,0
0,47,85,1
0,37,127,0
0,69,63,0
0,66,110,1
0,47,91,0
0,82,44,94
0,71,86,1
0,59,89,0
0,42,85,6
0,70,64,0
0,71,94,1
0,55,91,0
0,82,39,86
0,69,122,1
0,57,85,0
0,40,101,54
0,35,97,0
0,69,74,0
0,82,41,95
0,40,85,1
0,70,59,94
0,71,67,1
0,47,86,0
0,43,101,27
0,82,37,0
0,64,89,1
0,52,106,0
0,47,95,23
0,37,127,0
0,69,67,0
0,55,97,1
0,82,45,94
0,71,45,1
0,59,91,0
0,43,98,31
0,70,67,0
0,71,90,1
0,64,95,0
0,82,37,32
0,71,91,1
0,55,88,0
0,33,96,80
0,35,101,0
0,69,67,0
0,69,115,1
0,45,85,0
0,61,86,0
0,82,34,76
0,69,84,1
0,52,85,0
0,70,67,94
0,66,102,1
0,57,96,0
0,40,86,14
0,82,44,0
0,67,106,1
0,59,117,0
0,43,98,7
0,37,122,0
0,69,67,0
0,52,85,1
0,82,39,94
0,61,102,1
0,45,85,0
0,40,96,31
0,70,67,0
0,62,86,1
0,61,111,0
0,82,44,68
0,43,85,1
0,38,89,7
0,35,107,0
0,69,67,0
0,50,52,1
0,57,49,0
0,62,63,0
0,66,43,0
0,38,85,0
0,62,86,0
0,82,20,81
0,45,85,1
0,70,64,2
0,50,58,1
0,50,103,0
0,42,85,28
0,82,34,0
0,57,124,1
0,54,107,0
0,45,103,12
0,37,127,0
0,69,61,0
0,62,127,1
0,57,85,0
0,82,36,7
0,62,85,1
0,33,98,21
0,70,67,0
0,64,120,1
0,55,85,0
0,59,85,0
0,82,48,66
0,43,89,1
0,38,97,32
0,35,103,0
0,69,63,0
0,50,83,1
0,57,85,0
0,62,104,0
0,66,108,0
0,54,85,0
0,57,85,0
0,62,85,0
0,82,32,45
0,66,78,1
0,38,85,0
0,37,127,84
0,70,67,0
0,62,84,1
0,66,81,0
0,45,85,0
0,33,85,10
0,82,28,0
0,57,84,1
0,62,109,0
0,66,104,0
0,50,103,0
0,38,91,8
0,69,77,0
0,57,100,1
0,62,109,0
0,66,91,0
0,54,103,0
0,62,85,0
0,82,26,11
0,57,73,1
0,61,91,0
0,64,90,0
0,57,97,0
0,45,85,2
0,37,127,0
0,70,67,0
0,62,107,1
0,59,85,0
0,82,30,21
0,61,85,1
0,38,89,21
0,35,106,0
0,69,57,0
0,50,85,1
0,82,41,78
0,37,127,95
0,70,64,0
0,33,91,12
0,82,39,0
0,57,82,1
0,50,103,0
0,38,89,9
0,69,67,0
0,62,116,1
0,54,91,0
0,82,36,94
0,57,85,1
0,45,85,1
0,37,127,0
0,70,64,0
0,57,82,1
0,64,109,0
0,62,89,0
0,35,85,30
0,82,34,0
0,64,85,1
0,38,85,8
0,35,111,0
0,69,71,0
0,50,72,1
0,57,82,0
0,62,97,0
0,66,93,0
0,66,101,0
0,82,34,23
0,62,88,1
0,66,91,0
0,50,85,0
0,37,127,56
0,70,59,0
0,57,85,1
0,62,104,0
0,66,108,0
0,50,85,0
0,33,89,18
0,82,34,0
0,57,85,1
0,62,102,0
0,66,104,0
0,50,106,0
0,38,85,1
0,69,71,0
0,57,85,1
0,62,100,0
0,66,93,0
0,71,117,0
0,82,41,66
0,57,75,1
0,64,102,0
0,69,86,0
0,71,85,0
0,69,88,30
0,45,85,4
0,35,98,0
0,37,127,0
0,70,57,0
0,62,112,1
0,67,98,0
0,82,39,50
0,66,107,1
0,48,89,4
0,38,86,1
0,35,101,0
0,69,77,0
0,50,112,1
0,69,93,0
0,47,98,4
0,82,36,89
0,66,73,1
0,47,85,27
0,70,59,66
0,66,70,1
0,45,86,71
0,33,85,11
0,82,44,0
0,67,92,1
0,38,85,3
0,37,117,0
0,69,63,0
0,69,81,1
0,67,117,0
0,43,85,3
0,41,97,2
0,69,85,29
0,82,44,41
0,69,93,1
0,67,85,0
0,43,85,35
0,66,88,9
0,45,85,11
0,70,64,0
0,74,86,1
0,64,98,0
0,43,85,56
0,82,39,19
0,62,89,1
0,31,97,30
0,35,114,0
0,69,74,0
0,59,53,1
0,62,71,0
0,67,46,0
0,74,106,0
0,55,97,0
0,82,41,93
0,47,77,1
0,70,59,12
0,43,85,1
0,38,86,18
0,82,37,0
0,64,93,1
0,50,85,0
0,43,85,38
0,37,122,0
0,69,67,0
0,55,114,1
0,82,45,16
0,59,88,1
0,38,85,15
0,70,67,0
0,62,114,1
0,35,95,23
0,82,37,0
0,71,103,1
0,67,92,0
0,33,88,22
0,35,96,0
0,69,67,0
0,57,67,1
0,61,61,0
0,69,118,0
0,61,88,0
0,82,34,86
0,45,85,1
0,70,67,94
0,66,82,1
0,52,85,0
0,40,85,22
0,82,44,0
0,67,108,1
0,57,107,0
0,45,85,60
0,37,127,0
0,69,67,0
0,64,117,1
0,82,39,94
0,67,88,1
0,71,98,0
0,40,91,13
0,70,67,0
0,66,118,1
0,69,85,0
0,82,44,2
0,67,85,1
0,38,89,16
0,35,96,0
0,69,67,0
0,62,71,1
0,66,28,0
0,38,93,0
0,82,20,94
0,50,91,1
0,70,64,51
0,66,117,1
0,45,101,1
0,82,34,0
0,67,91,1
0,38,85,4
0,37,122,0
0,69,61,0
0,45,85,1
0,66,92,0
0,67,85,10
0,66,85,29
0,82,36,22
0,64,117,1
0,37,85,9
0,35,101,0
0,70,67,0
0,62,88,1
0,82,48,4
0,61,96,1
0,35,85,12
0,35,98,0
0,69,63,0
0,59,66,1
0,47,85,0
0,82,32,94
0,62,82,1
0,54,85,0
0,70,67,94
0,62,82,1
0,59,117,0
0,42,85,4
0,82,28,0
0,64,113,1
0,62,106,0
0,47,85,1
0,37,127,0
0,69,77,0
0,66,118,1
0,66,117,0
0,82,26,94
0,71,98,1
0,73,103,0
0,42,85,6
0,70,67,0
0,71,98,1
0,71,93,0
0,35,91,7
0,82,30,0
0,69,126,1
0,69,91,0
0,40,101,16
0,35,91,0
0,69,57,0
0,64,56,1
0,67,46,0
0,42,85,0
0,82,41,31
0,69,91,1
0,52,106,0
0,47,79,15
0,70,64,29
0,71,102,1
0,64,107,0
0,43,101,27
0,82,39,0
0,64,70,1
0,67,96,0
0,47,95,44
0,37,122,0
0,69,67,0
0,40,85,1
0,71,103,0
0,82,36,58
0,64,98,1
0,64,85,0
0,43,98,31
0,70,64,0
0,71,102,1
0,69,117,0
0,82,34,64
0,69,118,1
0,64,85,0
0,33,96,30
0,35,111,0
0,69,71,0
0,57,62,1
0,61,63,0
0,45,91,0
0,82,34,72
0,61,98,1
0,70,59,94
0,66,65,1
0,64,91,0
0,40,86,14
0,82,34,0
0,67,108,1
0,69,92,0
0,43,98,45
0,37,127,0
0,69,71,0
0,57,98,1
0,82,41,94
0,69,84,1
0,40,96,31
0,70,57,0
0,66,110,1
0,52,89,0
0,82,39,15
0,67,96,1
0,62,55,22
0,66,26,0
0,38,89,37
0,35,103,0
0,69,77,0
0,38,93,1
0,82,36,5
0,45,85,1
0,70,59,94
0,50,111,1
0,42,85,79
0,82,44,0
0,54,103,1
0,45,103,12
0,37,122,0
0,69,63,0
0,57,97,1
0,82,44,94
0,62,88,1
0,33,98,17
0,35,103,0
0,70,64,0
0,45,85,1
0,82,39,94
0,50,107,1
0,38,91,76
0,35,101,0
0,69,74,0
0,37,127,62
0,82,41,0
0,70,59,95
0,66,102,1
0,38,93,20
0,82,37,0
0,67,91,1
0,45,85,0
0,40,103,21
0,37,127,0
0,69,67,0
