track,note,velocity,time
0,71,116,20
0,74,102,25
0,71,100,20
0,74,104,0
0,59,116,15
0,62,116,20
0,59,90,15
0,62,104,0
0,69,32,0
0,56,80,0
0,42,80,0
0,35,127,0
0,69,32,55
0,42,32,0
0,69,64,55
0,76,48,0
0,42,80,0
0,69,64,55
0,42,32,0
0,69,32,55
0,76,48,0
0,56,80,0
0,42,80,0
0,40,112,0
0,38,64,0
0,69,32,15
0,76,64,0
0,42,48,0
0,69,64,55
0,42,80,0
0,35,96,0
0,69,80,55
0,76,48,0
0,42,32,0
0,35,127,0
0,69,16,50
0,56,80,0
0,42,80,0
0,69,16,50
0,42,48,0
0,69,48,55
0,76,48,0
0,42,80,0
0,69,64,55
0,76,64,0
0,42,32,0
0,69,16,50
0,54,127,0
0,56,80,0
0,42,80,0
0,40,112,0
0,38,64,0
0,69,16,50
0,76,48,0
0,42,32,0
0,69,48,55
0,42,80,0
0,69,64,55
0,76,64,0
0,42,48,0
0,69,16,50
0,56,80,0
0,42,80,0
0,35,127,0
0,69,16,50
0,42,32,0
0,69,48,55
0,76,32,0
0,42,80,0
0,69,64,55
0,42,32,0
0,69,32,55
0,76,48,0
0,56,80,0
0,42,80,0
0,40,112,0
0,38,64,0
0,69,32,55
0,42,32,0
0,69,48,55
0,76,32,0
0,42,80,0
0,69,64,55
0,42,32,0
0,35,112,0
0,69,16,50
0,56,80,0
0,42,80,0
0,69,16,50
0,76,48,0
0,42,48,0
0,35,64,0
0,69,48,55
0,76,64,0
0,42,80,0
0,35,80,0
0,69,64,55
0,76,32,0
0,42,32,0
0,69,16,50
0,39,96,0
0,56,80,0
0,42,80,0
0,40,112,0
0,38,64,0
0,69,16,50
0,42,48,0
0,69,48,43
0,42,80,0
0,69,64,55
0,42,32,0
0,67,127,45
0,64,127,0
0,71,127,5
0,28,127,5
0,28,127,0
0,56,80,0
0,35,127,0
0,49,50,0
0,69,32,55
0,42,32,0
0,69,64,30
0,76,48,0
0,42,80,0
0,69,64,55
0,42,32,0
0,69,32,55
0,76,48,0
0,56,80,0
0,42,80,0
0,40,112,0
0,38,64,0
0,69,32,55
0,76,64,0
0,42,48,0
0,28,125,35
0,28,125,0
0,69,64,0
0,42,80,0
0,35,96,0
0,28,126,20
0,28,126,0
0,69,80,0
0,76,48,0
0,42,32,0
0,35,127,0
0,69,16,5
0,56,80,0
0,42,80,0
0,69,16,50
0,42,48,0
0,69,48,55
0,76,48,0
0,42,80,0
0,69,64,55
0,76,64,0
0,42,32,0
0,69,16,50
0,54,127,0
0,56,80,0
0,42,80,0
0,40,112,0
0,38,64,0
0,69,16,18
0,76,48,0
0,42,32,0
0,69,48,43
0,42,80,0
0,69,64,15
0,76,64,0
0,42,48,0
0,62,127,25
0,69,16,0
0,66,127,0
0,28,127,0
0,28,127,0
0,62,122,0
0,50,116,0
0,56,80,0
0,42,80,0
0,35,127,0
0,69,16,50
0,42,32,0
0,69,48,55
0,76,32,0
0,42,80,0
0,59,110,35
0,47,110,0
0,69,64,0
0,42,32,0
0,69,32,0
0,76,48,0
0,56,80,0
0,42,80,0
0,40,112,0
0,38,64,0
0,69,32,55
0,42,32,0
0,69,48,55
0,76,32,0
0,42,80,0
0,28,125,55
0,28,125,0
0,69,64,0
0,42,32,0
0,35,112,0
0,69,16,50
0,56,80,0
0,42,80,0
0,69,16,50
0,28,125,0
0,28,125,0
0,76,48,0
0,42,48,0
0,35,64,0
0,28,124,20
0,28,124,0
0,69,48,0
0,76,64,0
0,42,80,0
0,35,80,0
0,69,64,55
0,76,32,0
0,42,32,0
0,69,16,18
0,35,126,0
0,35,126,0
0,39,96,0
0,56,80,0
0,42,80,0
0,40,112,0
0,38,64,0
0,59,106,0
0,69,16,0
0,42,48,0
0,62,106,0
0,38,125,10
0,38,125,0
0,69,48,0
0,42,80,0
0,69,64,15
0,42,32,0
0,67,127,5
0,64,127,5
0,60,127,0
0,28,125,0
0,28,125,0
0,64,106,0
0,69,32,0
0,56,80,0
0,42,80,0
0,35,127,0
0,69,32,5
0,42,32,0
0,69,64,5
0,76,48,0
0,42,80,0
0,69,64,5
0,42,32,0
0,69,32,55
0,76,48,0
0,56,80,0
0,42,80,0
0,40,112,0
0,38,64,0
0,69,32,55
0,76,64,0
0,42,48,0
0,28,125,55
0,28,125,0
0,69,64,0
0,42,80,0
0,35,96,0
0,28,124,20
0,28,124,0
0,69,80,0
0,76,48,0
0,42,32,0
0,35,127,0
0,69,16,8
0,56,80,0
0,42,80,0
0,59,90,0
0,69,16,20
0,42,48,0
0,62,96,0
0,69,48,0
0,76,48,0
0,42,80,0
0,69,64,55
0,76,64,0
0,42,32,0
0,69,16,45
0,54,127,0
0,56,80,0
0,42,80,0
0,40,112,0
0,38,64,0
0,69,16,50
0,76,48,0
0,42,32,0
0,43,106,43
0,55,122,0
0,69,48,0
0,42,80,0
0,69,64,0
0,76,64,0
0,42,48,0
0,69,127,15
0,62,127,0
0,66,127,5
0,69,16,0
0,28,125,0
0,28,125,0
0,57,110,0
0,45,106,0
0,56,80,0
0,42,80,0
0,35,127,0
0,69,16,0
0,42,32,0
0,69,48,55
0,76,32,0
0,42,80,0
0,47,122,25
0,59,116,0
0,69,64,0
0,42,32,0
0,69,32,0
0,76,48,0
0,56,80,0
0,42,80,0
0,40,112,0
0,38,64,0
0,69,32,35
0,42,32,0
0,69,48,15
0,76,32,0
0,42,80,0
0,28,123,55
0,28,123,0
0,69,64,0
0,42,32,0
0,35,112,0
0,69,16,0
0,56,80,0
0,42,80,0
0,69,16,5
0,28,125,0
0,28,125,0
0,76,48,0
0,42,48,0
0,35,64,0
0,58,97,0
0,28,124,10
0,28,124,0
0,69,48,0
0,76,64,0
0,42,80,0
0,35,80,0
0,69,64,50
0,76,32,0
0,42,32,0
0,69,16,15
0,35,125,0
0,35,125,0
0,39,96,0
0,56,80,0
0,42,80,0
0,40,112,0
0,38,64,0
0,57,104,0
0,69,16,10
0,42,48,0
0,38,124,10
0,38,124,0
0,69,48,0
0,42,80,0
0,57,110,0
0,69,64,5
0,42,32,0
0,55,102,0
0,67,127,5
0,71,127,0
0,64,127,5
0,28,125,5
0,28,125,0
0,35,127,0
0,49,90,0
0,83,127,0
0,79,127,0
0,69,32,5
0,42,32,0
0,69,64,45
0,76,48,0
0,42,80,0
0,69,64,55
0,42,32,0
0,69,32,50
0,76,48,0
0,42,80,0
0,40,112,0
0,38,64,0
0,76,112,0
0,83,127,0
0,79,127,0
0,69,32,0
0,76,64,0
0,42,48,0
0,28,124,55
0,28,124,0
0,69,64,0
0,42,80,0
0,35,96,0
0,28,124,20
0,28,124,0
0,69,80,0
0,76,48,0
0,42,32,0
0,35,127,0
0,69,16,15
0,42,80,0
0,83,127,0
0,79,127,0
0,69,16,5
0,42,48,0
0,69,48,55
0,76,48,0
0,42,80,0
0,69,64,0
0,76,64,0
0,42,32,0
0,69,16,50
0,54,127,0
0,42,80,0
0,40,112,0
0,38,64,0
0,76,123,0
0,83,127,0
0,79,127,0
0,69,16,10
0,76,48,0
0,42,32,0
0,64,127,0
0,59,127,0
0,64,110,38
0,69,48,5
0,42,80,0
0,69,64,10
0,76,64,0
0,42,48,0
0,66,127,8
0,62,127,0
0,62,116,5
0,69,16,0
0,42,80,0
0,35,127,0
0,28,125,0
0,50,116,0
0,62,116,0
0,28,125,0
0,78,127,0
0,74,127,0
0,83,127,0
0,69,16,0
0,42,32,0
0,69,48,10
0,76,32,0
0,42,80,0
0,59,110,13
0,69,64,0
0,42,32,0
0,59,122,0
0,47,110,0
0,69,32,0
0,76,48,0
0,42,80,0
0,40,112,0
0,38,64,0
0,78,127,0
0,74,127,0
0,83,127,0
0,50,110,0
0,69,32,15
0,42,32,0
0,47,87,0
0,69,48,15
0,76,32,0
0,42,80,0
0,50,108,0
0,28,124,15
0,28,124,0
0,69,64,0
0,42,32,0
0,35,112,0
0,69,16,10
0,42,80,0
0,50,104,0
0,78,127,0
0,74,127,0
0,83,127,0
0,69,16,10
0,28,123,0
0,28,123,0
0,76,48,0
0,42,48,0
0,35,64,0
0,47,66,0
0,58,106,13
0,69,48,0
0,76,64,0
0,42,80,0
0,35,80,0
0,28,124,0
0,28,124,0
0,57,96,5
0,69,64,20
0,76,32,0
0,42,32,0
0,55,78,0
0,69,16,5
0,35,126,0
0,35,126,0
0,39,96,0
0,42,80,0
0,40,112,0
0,38,64,0
0,78,115,0
0,83,121,0
0,74,127,0
0,57,92,0
0,69,16,5
0,42,48,0
0,59,127,0
0,64,127,0
0,38,125,5
0,38,125,0
0,69,48,0
0,42,80,0
0,55,70,10
0,69,64,45
0,42,32,0
0,67,127,40
0,60,127,5
0,64,127,0
0,28,123,0
0,28,123,0
0,69,32,0
0,42,80,0
0,35,127,0
0,72,110,0
0,79,127,0
0,76,123,0
0,83,115,0
0,69,32,5
0,42,32,0
0,69,64,55
0,76,48,0
0,42,80,0
0,69,64,55
0,42,32,0
0,69,32,55
0,76,48,0
0,42,80,0
0,40,112,0
0,38,64,0
0,72,127,0
0,83,127,0
0,76,127,0
0,79,127,0
0,69,32,15
0,76,64,0
0,42,48,0
0,28,124,55
0,28,124,0
0,69,64,0
0,42,80,0
0,35,96,0
0,28,124,20
0,28,124,0
0,69,80,0
0,76,48,0
0,42,32,0
0,35,127,0
0,69,16,10
0,42,80,0
0,72,127,0
0,83,127,0
0,76,127,0
0,79,127,0
0,69,16,10
0,42,48,0
0,69,48,55
0,76,48,0
0,42,80,0
0,69,64,55
0,76,64,0
0,42,32,0
0,69,16,50
0,54,127,0
0,42,80,0
0,40,112,0
0,38,64,0
0,72,123,0
0,76,127,0
0,79,127,0
0,69,16,10
0,76,48,0
0,42,32,0
0,64,127,0
0,59,127,0
0,55,106,10
0,43,100,0
0,69,48,0
0,42,80,0
0,69,64,0
0,76,64,0
0,42,48,0
0,62,127,20
0,69,16,0
0,69,127,0
0,66,127,0
0,28,125,0
0,57,122,0
0,45,110,0
0,28,125,0
0,42,80,0
0,35,127,0
0,74,127,0
0,78,127,0
0,81,127,0
0,83,127,0
0,69,16,0
0,42,32,0
0,69,48,55
0,76,32,0
0,42,80,0
0,47,122,20
0,59,116,0
0,69,64,0
0,42,32,0
0,69,32,0
0,76,48,0
0,42,80,0
0,40,112,0
0,38,64,0
0,78,123,0
0,74,127,0
0,83,127,0
0,81,127,0
0,69,32,15
0,42,32,0
0,69,48,55
0,76,32,0
0,42,80,0
0,28,124,55
0,28,124,0
0,69,64,0
0,42,32,0
0,35,112,0
0,69,16,0
0,42,80,0
0,78,110,0
0,74,127,0
0,81,127,0
0,78,116,5
0,71,126,0
0,74,116,5
0,69,16,0
0,28,122,0
0,28,122,0
0,76,48,0
0,42,48,0
0,35,64,0
0,45,116,0
0,69,48,5
0,76,64,0
0,42,80,0
0,35,80,0
0,28,123,0
0,28,123,0
0,69,64,10
0,76,32,0
0,42,32,0
0,45,106,0
0,39,96,10
0,42,80,0
0,40,112,0
0,38,64,0
0,45,87,0
0,52,100,0
0,35,124,0
0,35,124,0
0,83,127,0
0,78,127,0
0,74,127,0
0,81,127,0
0,69,16,10
0,42,48,0
0,43,84,0
0,55,126,0
0,45,116,0
0,64,127,0
0,59,127,0
0,69,48,20
0,42,80,0
0,38,124,0
0,38,124,0
0,69,64,0
0,42,32,0
0,64,127,30
0,67,127,0
0,28,126,0
0,64,127,0
0,28,126,0
0,35,127,0
0,49,90,0
0,62,127,0
0,69,32,0
0,42,32,0
0,69,64,15
0,76,48,0
0,42,80,0
0,52,127,55
0,69,64,0
0,42,32,0
0,69,32,10
0,76,48,0
0,42,80,0
0,40,112,0
0,38,64,0
0,64,127,55
0,69,32,0
0,76,64,0
0,42,48,0
0,28,125,20
0,62,127,0
0,28,125,0
0,69,64,0
0,42,80,0
0,35,96,0
0,28,123,20
0,28,123,0
0,69,80,0
0,76,48,0
0,42,32,0
0,35,127,0
0,69,16,0
0,42,80,0
0,69,16,50
0,42,48,0
0,59,127,20
0,69,48,0
0,76,48,0
0,42,80,0
0,69,64,10
0,76,64,0
0,42,32,0
0,69,16,50
0,54,127,0
0,42,80,0
0,40,112,0
0,38,64,0
0,69,16,50
0,76,48,0
0,42,32,0
0,69,48,55
0,42,80,0
0,69,64,55
0,76,64,0
0,42,48,0
0,69,16,50
0,28,125,0
0,64,127,0
0,28,125,0
0,42,80,0
0,35,127,0
0,69,16,50
0,62,127,0
0,42,32,0
0,69,48,20
0,76,32,0
0,42,80,0
0,52,124,55
0,69,64,0
0,42,32,0
0,69,32,20
0,76,48,0
0,42,80,0
0,40,112,0
0,38,64,0
0,64,127,55
0,69,32,0
0,42,32,0
0,69,48,10
0,76,32,0
0,42,80,0
0,28,124,55
0,62,127,0
0,28,124,0
0,69,64,0
0,42,32,0
0,35,112,0
0,69,16,0
0,42,80,0
0,69,16,50
0,28,122,0
0,28,122,0
0,76,48,0
0,42,48,0
0,35,64,0
0,28,125,5
0,59,127,0
0,28,125,0
0,69,48,0
0,76,64,0
0,42,80,0
0,35,80,0
0,69,64,20
0,76,32,0
0,42,32,0
0,69,16,5
0,62,127,0
0,39,96,0
0,42,80,0
0,40,112,0
0,38,64,0
0,69,16,50
0,42,48,0
0,28,124,10
0,64,127,0
0,28,124,0
0,69,48,0
0,42,80,0
0,69,64,0
0,42,32,0
0,28,126,0
0,62,127,0
0,28,126,0
0,69,32,0
0,42,80,0
0,35,127,0
0,62,127,0
0,69,127,0
0,66,127,5
0,62,127,5
0,69,32,0
0,42,32,0
0,69,64,10
0,76,48,0
0,42,80,0
0,59,127,55
0,69,64,0
0,42,32,0
0,69,32,20
0,76,48,0
0,42,80,0
0,40,112,0
0,38,64,0
0,64,127,55
0,69,32,0
0,76,64,0
0,42,48,0
0,28,124,20
0,62,127,0
0,28,124,0
0,69,64,0
0,42,80,0
0,35,96,0
0,28,125,20
0,28,125,0
0,69,80,0
0,76,48,0
0,42,32,0
0,35,127,0
0,69,16,5
0,42,80,0
0,69,16,50
0,42,48,0
0,69,48,50
0,76,48,0
0,42,80,0
0,69,64,55
0,76,64,0
0,42,32,0
0,69,16,15
0,59,124,0
0,54,127,0
0,42,80,0
0,40,112,0
0,38,64,0
0,69,16,50
0,76,48,0
0,42,32,0
0,69,48,55
0,42,80,0
0,69,64,23
0,76,64,0
0,42,48,0
0,71,127,0
0,69,16,5
0,28,126,0
0,28,126,0
0,42,80,0
0,35,127,0
0,69,16,0
0,42,32,0
0,59,127,55
0,69,48,0
0,76,32,0
0,42,80,0
0,59,120,10
0,69,64,0
0,42,32,0
0,59,127,20
0,69,32,0
0,76,48,0
0,42,80,0
0,40,112,0
0,38,64,0
0,60,127,5
0,69,32,0
0,42,32,0
0,69,48,15
0,76,32,0
0,42,80,0
0,28,125,55
0,59,127,0
0,28,125,0
0,69,64,0
0,42,32,0
0,35,112,0
0,69,16,5
0,42,80,0
0,69,16,50
0,28,124,0
0,57,127,0
0,28,124,0
0,76,48,0
0,42,48,0
0,35,64,0
0,28,125,20
0,55,127,0
0,28,125,0
0,69,48,0
0,76,64,0
0,42,80,0
0,35,80,0
0,69,64,23
0,76,32,0
0,42,32,0
0,69,16,30
0,39,96,0
0,42,80,0
0,40,112,0
0,38,64,0
0,69,16,50
0,42,48,0
0,31,127,30
0,31,127,0
0,69,48,0
0,42,80,0
0,52,127,55
0,69,64,0
0,42,32,0
0,64,127,5
0,60,127,0
0,67,127,0
0,33,127,0
0,60,127,0
0,33,127,0
0,69,32,0
0,42,80,0
0,35,127,0
0,59,127,55
0,69,32,0
0,42,32,0
0,69,64,15
0,76,48,0
0,42,80,0
0,52,127,55
0,69,64,0
0,42,32,0
0,69,32,20
0,76,48,0
0,42,80,0
0,40,112,0
0,38,64,0
0,60,127,55
0,69,32,0
0,76,64,0
0,42,48,0
0,33,127,15
0,33,127,0
0,69,64,0
0,42,80,0
0,35,96,0
0,33,125,20
0,59,127,0
0,33,125,0
