track,note,velocity,time
6,55,100,5712
6,55,100,0
6,67,100,0
6,64,100,0
6,64,100,0
6,62,100,0
6,64,100,0
6,59,100,0
6,59,100,0
6,55,100,0
6,57,100,0
6,57,100,0
6,59,100,0
6,55,100,0
6,57,101,0
6,57,100,384
6,57,100,0
6,57,100,0
6,60,100,0
6,59,100,0
6,59,100,192
6,60,100,0
6,60,100,0
6,60,100,0
6,63,100,0
6,62,100,0
6,55,100,192
6,55,100,0
6,67,100,0
6,64,100,0
6,64,100,0
6,62,100,0
6,64,100,0
6,59,100,0
6,59,100,0
6,55,100,0
6,57,100,0
6,59,100,0
6,55,100,0
6,57,100,0
6,58,100,384
6,62,100,0
6,65,100,0
6,63,100,0
6,67,100,0
6,68,100,0
6,68,100,0
6,63,100,0
6,60,100,0
6,67,100,0
6,67,100,384
6,64,100,0
6,64,100,0
6,62,100,0
6,64,100,0
6,59,100,0
6,59,100,0
6,55,100,0
6,57,100,0
6,57,100,0
6,59,100,0
6,55,100,0
6,57,98,0
6,57,100,384
6,57,100,0
6,57,100,0
6,60,100,0
6,59,100,0
6,59,100,192
6,60,100,0
6,60,100,0
6,60,100,0
6,63,100,0
6,62,100,0
6,55,100,192
6,55,100,0
6,67,100,0
6,64,100,0
6,64,100,0
6,62,100,0
6,64,100,0
6,59,100,0
6,59,100,0
6,55,100,0
6,57,100,0
6,57,98,0
6,59,100,0
6,55,100,0
6,57,100,0
6,58,100,384
6,58,100,0
6,62,100,0
6,65,100,0
6,64,100,0
6,64,100,0
6,62,100,0
6,64,100,0
6,66,100,0
6,67,100,768
6,62,100,0
6,67,100,0
6,69,100,0
6,67,100,0
6,69,100,0
6,74,100,0
6,74,100,0
6,71,100,0
6,67,100,0
6,65,100,0
6,67,100,384
6,67,100,0
6,67,100,0
6,71,100,0
6,69,100,0
6,69,100,0
6,67,100,0
6,69,100,0
6,72,100,0
6,71,100,0
6,69,100,0
6,67,100,0
6,66,100,0
6,62,100,0
6,62,100,192
6,67,100,0
6,62,100,0
6,67,100,0
6,69,100,0
6,67,100,0
6,69,100,0
6,70,100,0
6,69,100,0
6,67,100,0
6,74,100,0
6,72,127,384
6,68,127,0
6,68,127,0
6,65,127,0
6,68,127,0
6,65,127,0
6,68,127,0
6,72,127,0
6,67,127,0
6,67,100,1152
6,64,100,0
6,64,100,0
6,62,100,0
6,64,100,0
6,59,100,0
6,59,100,0
6,55,100,0
6,57,100,0
6,57,100,0
6,59,100,0
6,55,100,0
6,57,96,0
6,57,98,192
6,57,100,0
6,57,100,0
6,57,100,0
6,60,100,0
6,59,100,0
6,60,100,384
6,60,100,0
6,60,100,0
6,63,100,0
6,62,100,0
6,55,100,384
6,67,100,0
6,64,100,0
6,64,100,0
6,62,100,0
6,64,100,0
6,59,100,0
6,59,100,0
6,55,100,0
6,57,100,0
6,59,100,0
6,55,100,0
6,57,100,0
6,69,127,384
6,69,127,0
6,72,127,0
6,71,127,0
6,69,127,0
6,67,127,0
6,69,127,0
6,75,100,576
6,76,100,0
6,71,100,0
6,71,100,0
6,67,100,0
6,71,100,0
6,67,100,0
6,71,100,0
6,69,100,0
6,71,100,0
6,76,100,0
6,73,100,0
6,75,100,192
6,76,100,0
6,71,100,0
6,71,100,0
6,67,100,0
6,71,100,0
6,71,100,0
6,67,100,0
6,71,100,0
6,69,100,0
6,75,100,960
6,76,100,0
6,71,100,0
6,71,100,0
6,67,100,0
6,71,100,0
6,67,100,0
6,71,100,0
6,72,100,0
6,72,100,0
6,76,100,0
6,79,100,0
6,78,100,0
6,75,100,192
6,76,100,0
6,71,100,0
6,71,100,0
6,67,100,0
6,71,100,0
6,71,100,0
6,67,100,0
6,71,100,0
6,74,100,0
6,67,100,768
6,62,100,0
6,67,100,0
6,69,100,0
6,67,100,0
6,69,100,0
6,74,100,0
6,74,100,0
6,71,100,0
6,67,100,0
6,65,100,0
6,67,100,384
6,67,100,0
6,67,100,0
6,71,100,0
6,69,100,0
6,69,100,0
6,67,100,0
6,69,100,0
6,72,100,0
6,71,100,0
6,69,100,0
6,67,100,0
6,66,100,0
6,62,100,0
6,67,100,384
6,62,100,0
6,67,100,0
6,69,100,0
6,67,100,0
6,69,100,0
6,70,100,0
6,69,100,0
6,67,100,0
6,74,100,0
6,72,127,384
6,68,127,0
6,68,127,0
6,65,127,0
6,68,127,0
6,65,127,0
6,68,127,0
6,72,127,0
6,67,127,0
6,67,100,1152
6,64,100,0
6,64,100,0
6,62,100,0
6,64,100,0
6,59,100,0
6,59,100,0
6,55,100,0
6,57,100,0
6,57,100,0
6,59,100,0
6,55,100,0
6,57,100,0
6,57,100,384
6,57,100,0
6,60,100,0
6,59,100,0
6,59,100,192
6,60,100,0
6,60,100,0
6,60,100,0
6,63,100,0
6,62,100,0
6,67,100,384
6,64,100,0
6,64,100,0
6,62,100,0
6,64,100,0
6,59,100,0
6,59,100,0
6,55,100,0
6,57,100,0
6,57,100,0
6,59,100,0
6,55,100,0
6,57,100,0
6,57,100,384
6,57,100,0
6,60,100,0
6,59,100,0
6,57,100,0
6,55,100,0
6,57,100,0
6,57,100,1152
6,57,100,0
6,60,100,0
6,59,100,0
6,57,100,0
6,55,100,0
6,57,100,0
6,57,123,1152
6,57,125,0
6,60,127,0
6,59,127,0
6,57,127,0
6,55,127,0
6,57,127,0
7,62,100,24
7,67,100,0
7,72,100,0
7,74,100,0
7,79,100,0
7,84,100,0
7,86,100,0
7,79,100,0
7,84,100,0
7,84,100,0
7,62,100,96
7,67,100,0
7,72,100,0
7,74,100,0
7,79,100,0
7,84,100,0
7,86,100,0
7,79,100,0
7,84,100,0
7,84,100,0
7,62,100,96
7,67,100,0
7,72,100,0
7,74,100,0
7,79,100,0
7,84,100,0
7,86,100,0
7,79,100,0
7,84,100,0
7,84,100,0
7,62,100,96
7,67,100,0
7,72,100,0
7,74,100,0
7,79,100,0
7,84,100,0
7,86,100,0
7,79,100,0
7,84,100,0
7,84,101,0
7,67,101,0
7,67,98,0
7,79,100,0
7,76,100,0
7,76,100,0
7,74,100,0
7,76,100,0
7,71,100,0
7,71,100,0
7,67,100,0
7,69,100,0
7,69,100,0
7,71,100,0
7,67,100,0
7,69,100,0
7,62,100,0
7,65,100,0
7,69,100,0
7,69,100,0
7,62,100,0
7,65,100,0
7,69,100,0
7,72,100,0
7,64,100,0
7,67,100,0
7,71,100,0
7,64,100,0
7,67,100,0
7,71,100,192
7,65,100,0
7,69,100,0
7,72,100,0
7,72,100,0
7,65,100,0
7,69,100,0
7,72,100,0
7,75,100,0
7,71,100,0
7,67,100,0
7,74,100,0
7,67,100,0
7,67,100,0
7,79,100,0
7,76,100,0
7,76,100,0
7,74,100,0
7,76,100,0
7,71,100,0
7,71,100,0
7,67,100,0
7,69,100,0
7,71,100,0
7,67,100,0
7,69,100,0
7,62,100,0
7,65,100,0
7,70,100,0
7,74,100,0
7,77,100,0
7,70,100,0
7,67,100,0
7,75,100,0
7,79,100,0
7,72,100,0
7,75,100,0
7,80,100,0
7,80,100,0
7,75,100,0
7,72,100,0
7,71,100,0
7,74,100,0
7,79,100,0
7,79,100,384
7,76,100,0
7,76,100,0
7,74,100,0
7,76,100,0
7,71,100,0
7,71,100,0
7,67,100,0
7,69,100,0
7,69,100,0
7,71,100,0
7,67,100,0
7,69,100,0
7,62,100,0
7,65,100,0
7,69,100,0
7,69,100,0
7,62,100,0
7,65,100,0
7,69,100,0
7,72,100,0
7,64,100,0
7,67,100,0
7,71,100,0
7,64,100,0
7,67,100,0
7,71,100,192
7,65,100,0
7,69,100,0
7,72,100,0
7,72,100,0
7,65,100,0
7,69,100,0
7,72,100,0
7,75,100,0
7,71,100,0
7,67,100,0
7,74,100,0
7,67,100,0
7,67,100,0
7,79,100,0
7,76,100,0
7,76,100,0
7,74,100,0
7,76,100,0
7,71,100,0
7,71,100,0
7,67,100,0
7,69,100,0
7,71,100,0
7,67,100,0
7,69,100,0
7,62,100,0
7,65,100,0
7,70,100,0
7,70,100,0
7,74,100,0
7,77,100,0
7,69,100,0
7,73,100,0
7,76,100,0
7,76,100,0
7,74,100,0
7,76,100,0
7,69,100,0
7,74,100,0
7,78,100,0
7,62,100,0
7,62,100,0
7,59,100,384
7,62,100,0
7,67,100,0
7,62,100,0
7,67,100,0
7,60,100,0
7,65,100,0
7,69,100,0
7,67,100,0
7,69,100,0
7,67,100,0
7,71,100,0
7,74,100,0
7,74,100,0
7,71,100,0
7,67,100,0
7,57,100,0
7,60,100,0
7,65,100,0
7,67,100,0
7,62,100,0
7,59,100,0
7,67,100,0
7,67,100,0
7,71,100,0
7,69,100,0
7,64,100,0
7,60,100,0
7,69,100,0
7,67,100,0
7,69,100,0
7,62,100,0
7,66,100,0
7,72,100,0
7,71,100,0
7,69,100,0
7,67,100,0
7,66,100,0
7,62,100,0
7,62,100,192
7,67,100,0
7,62,100,0
7,59,100,0
7,62,100,0
7,67,100,0
7,60,100,0
7,65,100,0
7,69,100,0
7,67,100,0
7,69,100,0
7,63,100,0
7,67,100,0
7,70,100,0
7,69,100,0
7,67,100,0
7,62,100,0
7,74,100,0
7,66,100,0
7,65,100,0
7,68,100,0
7,72,100,0
7,68,100,0
7,68,100,0
7,65,100,0
7,68,100,0
7,65,100,0
7,68,100,0
7,72,100,0
7,59,100,0
7,62,100,0
7,67,100,0
7,79,100,1152
7,76,100,0
7,76,100,0
7,74,100,0
7,76,100,0
7,71,100,0
7,71,100,0
7,67,100,0
7,69,100,0
7,69,100,0
7,71,100,0
7,67,100,0
7,69,100,0
7,62,100,0
7,65,100,0
7,69,100,0
7,69,100,0
7,62,100,0
7,65,100,0
7,69,100,0
7,72,100,0
7,64,100,0
7,67,100,0
7,71,100,0
7,64,100,0
7,67,100,0
7,71,100,192
7,65,100,0
7,69,100,0
7,72,100,0
7,72,100,0
7,65,100,0
7,69,100,0
7,72,100,0
7,75,100,0
7,71,100,0
7,67,100,0
7,74,100,0
7,67,100,0
7,67,100,0
7,79,100,0
7,76,100,0
7,76,100,0
7,74,100,0
7,76,100,0
7,71,100,0
7,71,100,0
7,67,100,0
7,69,100,0
7,71,100,0
7,67,100,0
7,69,100,0
7,60,100,0
7,65,100,0
7,69,100,0
7,60,100,0
7,65,100,0
7,69,100,0
7,72,100,0
7,62,100,0
7,67,100,0
7,71,100,0
7,69,100,0
7,62,100,0
7,67,100,0
7,69,100,0
7,60,100,384
7,64,100,0
7,75,100,192
7,76,100,0
7,71,100,0
7,71,100,0
7,67,100,0
7,71,100,0
7,67,100,0
7,71,100,0
7,69,100,0
7,71,100,0
7,76,100,0
7,73,100,0
7,75,100,192
7,76,100,0
7,71,100,0
7,71,100,0
7,67,100,0
7,71,100,0
7,71,100,0
7,67,100,0
7,71,100,0
7,69,100,0
7,75,100,960
7,76,100,0
7,71,100,0
7,71,100,0
7,67,100,0
7,71,100,0
7,67,100,0
7,71,100,0
7,72,100,0
7,72,100,0
7,76,100,0
7,79,100,0
7,78,100,0
7,75,100,192
7,76,100,0
7,71,100,0
7,71,100,0
7,67,100,0
7,71,100,0
7,71,100,0
7,67,100,0
7,71,100,0
7,66,100,0
7,69,100,0
7,74,100,0
7,59,100,1152
7,62,100,0
7,67,100,0
7,62,100,0
7,67,100,0
7,60,100,0
7,65,100,0
7,69,100,0
7,67,100,0
7,69,100,0
7,67,100,0
7,71,100,0
7,74,100,0
7,74,100,0
7,71,100,0
7,67,100,0
7,57,100,0
7,60,100,0
7,65,100,0
7,59,100,384
7,62,100,0
7,67,100,0
7,67,100,0
7,67,100,0
7,71,100,0
7,60,100,0
7,64,100,0
7,69,100,0
7,69,100,0
7,67,100,0
7,69,100,0
7,62,100,0
7,66,100,0
7,72,100,0
7,71,100,0
7,69,100,0
7,67,100,0
7,66,100,0
7,62,100,0
7,59,100,384
7,62,100,0
7,67,100,0
7,62,100,0
7,67,100,0
7,60,100,0
7,65,100,0
7,69,100,0
7,67,100,0
7,69,100,0
7,63,100,0
7,67,100,0
7,70,100,0
7,69,100,0
7,67,100,0
7,62,100,0
7,66,100,0
7,74,100,0
7,65,100,0
7,68,100,0
7,72,100,0
7,68,100,0
7,68,100,0
7,65,100,0
7,68,100,0
7,65,100,0
7,68,100,0
7,72,100,0
7,59,100,0
7,62,100,0
7,67,100,0
7,79,100,1152
7,76,100,0
7,76,100,0
7,74,100,0
7,76,100,0
7,71,100,0
7,71,100,0
7,67,100,0
7,69,100,0
7,69,100,0
7,71,100,0
7,67,100,0
7,69,100,0
7,62,100,384
7,65,100,0
7,69,100,0
7,62,100,0
7,65,100,0
7,69,100,0
7,72,100,0
7,64,100,0
7,67,100,0
7,71,100,0
7,64,100,0
7,67,100,0
7,71,100,192
7,65,100,0
7,68,100,0
7,72,100,0
7,72,100,0
7,65,100,0
7,68,100,0
7,72,100,0
7,75,100,0
7,67,100,0
7,71,100,0
7,74,100,0
7,79,100,384
7,76,100,0
7,76,100,0
7,74,100,0
7,76,100,0
7,71,100,0
7,71,100,0
7,67,100,0
7,69,100,0
7,69,100,0
7,71,100,0
7,67,100,0
7,69,100,0
7,60,100,0
7,65,100,0
7,69,100,0
7,60,100,0
7,65,100,0
7,69,100,0
7,72,100,0
7,62,100,0
7,67,100,0
7,71,100,0
7,69,100,0
7,62,100,0
7,67,100,0
7,69,100,0
7,60,100,384
7,64,100,0
7,60,100,384
7,65,100,0
7,69,100,0
7,60,100,0
7,65,100,0
7,69,100,0
7,72,100,0
7,62,100,0
7,67,100,0
7,71,100,0
7,69,100,0
7,62,100,0
7,67,100,0
7,69,100,0
7,60,100,384
7,64,100,0
7,72,100,384
7,77,100,0
7,81,100,0
7,72,100,0
7,77,100,0
7,81,100,0
7,84,100,0
7,74,100,0
7,79,100,0
7,83,100,0
7,81,100,0
7,74,100,0
7,79,100,0
7,73,100,0
7,76,100,0
7,81,100,0
8,36,101,4
8,43,101,0
8,50,101,0
8,48,101,0
8,36,101,1526
8,43,101,0
8,50,101,0
8,48,101,0
8,36,101,0
8,43,101,0
8,50,101,0
8,48,101,0
8,36,101,0
8,43,101,0
8,50,101,0
8,48,101,0
8,48,100,0
8,52,100,0
8,55,100,0
8,60,100,0
8,60,100,0
8,55,100,0
8,52,100,0
8,48,100,0
8,47,100,0
8,52,100,0
8,55,100,0
8,59,100,0
8,47,100,0
8,52,100,0
8,55,100,0
8,59,100,0
8,45,100,0
8,48,100,0
8,52,100,0
8,57,100,0
8,45,100,0
8,48,100,0
8,52,100,0
8,57,100,0
8,45,100,0
8,48,100,0
8,52,100,0
8,57,100,0
8,45,100,0
8,48,100,0
8,52,100,0
8,57,100,0
8,38,100,0
8,38,100,0
8,40,100,0
8,40,100,0
8,41,100,0
8,41,100,0
8,43,100,0
8,43,100,0
8,60,100,0
8,55,100,0
8,52,100,0
8,48,100,0
8,48,100,0
8,52,100,0
8,55,100,0
8,60,100,0
8,59,100,0
8,55,100,0
8,52,100,0
8,47,100,0
8,59,100,0
8,55,100,0
8,52,100,0
8,47,100,0
8,57,100,0
8,52,100,0
8,48,100,0
8,45,100,0
8,57,100,0
8,52,100,0
8,48,100,0
8,45,100,0
8,57,100,0
8,52,100,0
8,48,100,0
8,45,100,0
8,57,100,0
8,52,100,0
8,48,100,0
8,45,100,0
8,50,100,0
8,46,100,0
8,53,100,0
8,58,100,0
8,50,100,0
8,46,100,0
8,53,100,0
8,58,100,0
8,51,100,0
8,55,100,0
8,58,100,0
8,51,100,0
8,55,100,0
8,58,100,0
8,44,100,0
8,51,100,0
8,56,100,0
8,44,100,0
8,51,100,0
8,56,100,0
8,50,100,0
8,55,100,0
8,43,100,0
8,48,100,0
8,52,100,0
8,55,100,0
8,60,100,0
8,60,100,0
8,55,100,0
8,52,100,0
8,48,100,0
8,47,100,0
8,52,100,0
8,55,100,0
8,59,100,0
8,47,100,0
8,52,100,0
8,55,100,0
8,59,100,0
8,45,100,0
8,48,100,0
8,52,100,0
8,57,100,0
8,45,100,0
