track,note,velocity,time
1,38,94,1179
1,38,0,328
1,33,96,56
1,33,0,148
1,45,88,44
1,45,0,75
1,38,90,117
1,38,0,325
1,33,90,59
1,33,0,290
1,38,90,94
1,38,0,338
1,33,88,46
1,33,0,157
1,45,88,35
1,45,0,71
1,38,90,121
1,38,0,354
1,33,92,30
1,33,0,295
1,38,88,89
1,38,0,333
1,33,92,51
1,33,0,164
1,45,88,28
1,45,0,67
1,38,90,125
1,38,0,330
1,33,94,54
1,33,0,304
1,38,88,80
1,38,0,341
1,33,94,43
1,33,0,109
1,45,94,83
1,45,0,67
1,38,90,125
1,38,0,383
1,33,71,1
1,33,0,382
1,31,90,2
1,31,0,513
1,31,83,63
1,31,0,123
1,33,88,69
1,33,0,309
1,33,84,75
1,33,0,166
1,37,75,26
1,37,0,167
1,38,80,25
1,38,0,382
1,38,77,2
1,38,0,115
1,37,80,77
1,37,0,107
1,35,82,85
1,35,0,303
1,30,80,81
1,30,0,123
1,35,84,69
1,35,0,128
1,28,84,64
1,28,0,369
1,35,79,15
1,35,0,75
1,40,83,117
1,40,0,171
1,33,88,21
1,33,0,309
1,33,84,75
1,33,0,166
1,37,75,26
1,37,0,167
1,38,80,25
1,38,0,382
1,33,84,2
1,33,0,115
1,45,80,77
1,45,0,107
1,38,82,85
1,38,0,303
1,33,82,81
1,33,0,303
1,31,90,81
1,31,0,513
1,31,83,63
1,31,0,123
1,33,88,69
1,33,0,309
1,33,84,75
1,33,0,166
1,37,75,26
1,37,0,167
1,38,80,25
1,38,0,382
1,38,77,2
1,38,0,115
1,37,80,77
1,37,0,107
1,35,82,85
1,35,0,303
1,30,80,81
1,30,0,123
1,35,84,69
1,35,0,128
1,28,84,64
1,28,0,369
1,35,79,15
1,35,0,75
1,40,83,117
1,40,0,171
1,33,88,21
1,33,0,309
1,33,84,75
1,33,0,166
1,37,75,26
1,37,0,167
1,38,80,25
1,38,0,382
1,33,84,2
1,33,0,115
1,33,80,77
1,33,0,107
1,38,94,85
1,38,0,265
1,38,88,23
1,38,0,87
1,33,96,9
1,33,0,148
1,45,88,44
1,45,0,75
1,38,94,117
1,38,0,361
1,33,96,23
1,33,0,340
1,38,94,44
1,38,0,361
1,33,96,23
1,33,0,148
1,45,88,44
1,45,0,75
1,38,90,117
1,38,0,354
1,33,92,30
1,33,0,295
1,31,90,89
1,31,0,369
1,43,83,15
1,43,0,123
1,31,83,69
1,31,0,123
1,33,88,69
1,33,0,309
1,33,84,75
1,33,0,166
1,37,75,26
1,37,0,167
1,38,80,25
1,38,0,382
1,38,77,2
1,38,0,115
1,37,80,77
1,37,0,107
1,35,82,85
1,35,0,303
1,30,80,81
1,30,0,123
1,35,84,69
1,35,0,128
1,40,84,64
1,40,0,369
1,35,84,15
1,35,0,363
1,33,88,21
1,33,0,309
1,33,84,75
1,33,0,166
1,37,75,26
1,37,0,167
1,38,80,25
1,38,0,382
1,33,84,2
1,33,0,355
1,38,82,29
1,38,0,303
1,33,82,81
1,33,0,159
1,38,77,33
1,38,0,159
1,43,90,33
1,43,0,369
1,31,83,15
1,31,0,123
1,32,78,69
1,32,0,123
1,33,88,69
1,33,0,309
1,33,84,75
1,33,0,166
1,37,75,26
1,37,0,167
1,38,80,25
1,38,0,382
1,38,77,2
1,38,0,115
1,37,80,77
1,37,0,107
1,35,82,85
1,35,0,303
1,30,80,81
1,30,0,123
1,35,84,69
1,35,0,128
1,40,84,64
1,40,0,369
1,35,79,15
1,35,0,365
1,33,88,19
1,33,0,309
1,33,84,75
1,33,0,166
1,37,75,26
1,37,0,167
1,38,80,25
1,38,0,382
1,33,84,2
1,33,0,115
1,45,80,77
1,45,0,107
1,40,86,85
1,40,0,322
1,35,82,62
1,35,0,117
1,40,84,75
1,40,0,191
1,33,90,1
1,33,0,369
1,45,83,15
1,45,0,123
1,33,83,69
1,33,0,123
1,35,88,69
1,35,0,309
1,35,84,75
1,35,0,166
1,39,75,26
1,39,0,167
1,40,80,25
1,40,0,382
1,40,77,2
1,40,0,115
1,39,80,77
1,39,0,107
1,37,82,85
1,37,0,303
1,32,80,81
1,32,0,123
1,37,84,69
1,37,0,128
1,42,84,64
1,42,0,369
1,37,84,15
1,37,0,363
1,35,88,21
1,35,0,309
1,35,84,75
1,35,0,166
1,39,75,26
1,39,0,167
1,40,80,25
1,40,0,382
1,35,84,2
1,35,0,355
1,40,82,29
1,40,0,303
1,35,82,81
1,35,0,159
1,40,77,33
1,40,0,159
1,45,90,33
1,45,0,369
1,33,83,15
1,33,0,123
1,34,78,69
1,34,0,123
1,35,88,69
1,35,0,309
1,35,84,75
1,35,0,166
1,39,75,26
1,39,0,167
1,40,80,25
1,40,0,382
1,40,77,2
1,40,0,115
1,39,80,77
1,39,0,107
1,37,82,85
1,37,0,303
1,32,80,81
1,32,0,123
1,37,84,69
1,37,0,128
1,42,84,64
1,42,0,369
1,37,79,15
1,37,0,365
1,35,88,19
1,35,0,309
1,35,84,75
1,35,0,166
1,39,75,26
1,39,0,167
1,40,80,25
1,40,0,382
1,35,84,2
1,35,0,115
1,47,80,77
1,47,0,107
1,40,86,85
1,40,0,322
1,35,82,62
1,35,0,117
1,40,84,75
1,40,0,191
1,33,90,1
1,33,0,369
1,45,83,15
1,45,0,123
1,33,83,69
1,33,0,123
1,35,88,69
1,35,0,309
1,35,84,75
1,35,0,166
1,39,75,26
1,39,0,167
1,40,80,25
1,40,0,382
1,40,77,2
1,40,0,115
1,39,80,77
1,39,0,107
1,37,82,85
1,37,0,303
1,32,80,81
1,32,0,123
1,37,84,69
1,37,0,128
1,42,84,64
1,42,0,369
1,37,84,15
1,37,0,363
1,35,88,21
1,35,0,309
1,35,84,75
1,35,0,166
1,39,75,26
1,39,0,167
1,40,80,25
1,40,0,382
1,35,84,2
1,35,0,355
1,31,82,29
1,31,0,255
1,31,82,33
1,31,0,92
1,31,82,4
1,31,0,159
1,43,77,33
1,43,0,159
1,36,90,33
1,36,0,273
1,36,80,15
1,36,0,93
1,33,83,3
1,33,0,267
1,33,77,21
1,33,0,92
1,38,88,4
1,38,0,261
1,38,81,27
1,38,0,87
1,30,84,9
1,30,0,183
1,42,75,9
1,42,0,183
1,31,86,9
1,31,0,282
1,31,77,6
1,31,0,95
1,31,77,1
1,31,0,95
1,42,80,97
1,42,0,107
1,40,82,85
1,40,0,303
1,35,80,81
1,35,0,123
1,40,84,69
1,40,0,128
1,33,84,64
1,33,0,273
1,33,76,15
1,33,0,81
1,33,84,15
1,33,0,191
1,40,79,1
1,40,0,173
1,38,88,19
1,38,0,261
1,38,76,27
1,38,0,81
1,33,84,15
1,33,0,166
1,38,75,26
1,38,0,167
1,31,84,25
1,31,0,286
1,31,84,2
1,31,0,94
1,38,77,2
1,38,0,190
1,38,77,2
1,38,0,190
1,31,77,2
1,31,0,286
1,31,86,2
1,31,0,93
1,38,82,3
1,38,0,117
1,43,84,75
1,43,0,191
1,36,90,1
1,36,0,273
1,36,80,15
1,36,0,93
1,33,83,3
1,33,0,180
1,33,77,12
1,33,0,188
1,38,88,4
1,38,0,261
1,38,81,27
1,38,0,87
1,38,84,9
1,38,0,183
1,33,75,9
1,33,0,183
1,31,86,9
1,31,0,282
1,38,77,6
1,38,0,90
1,43,77,6
1,43,0,152
1,42,80,40
1,42,0,184
1,40,82,8
1,40,0,303
1,35,80,81
1,35,0,123
1,40,84,69
1,40,0,128
1,33,84,64
1,33,0,273
1,33,76,15
1,33,0,81
1,33,84,15
1,33,0,191
1,40,79,1
1,40,0,173
1,38,88,19
1,38,0,261
1,38,76,27
1,38,0,81
1,33,84,15
1,33,0,166
1,38,75,26
1,38,0,167
1,31,84,25
1,31,0,286
1,31,84,2
1,31,0,94
1,31,77,2
1,31,0,190
1,38,77,2
1,38,0,190
1,43,84,2
1,43,0,94
1,43,74,2
1,43,0,94
1,43,84,2
1,43,0,94
1,43,74,2
1,43,0,94
1,31,84,2
1,31,0,286
1,36,95,866
1,36,0,186
1,36,95,102
1,36,0,53
1,36,91,43
1,36,0,130
1,36,93,158
1,36,0,66
1,28,105,30
1,28,0,78
1,28,97,18
1,28,0,48
1,29,109,48
1,29,0,82
1,29,99,14
1,29,0,45
1,36,97,51
1,36,0,183
1,36,97,105
1,36,0,45
1,36,97,51
1,36,0,183
1,36,95,105
1,36,0,45
1,36,97,51
1,36,0,186
1,36,91,102
1,36,0,48
1,36,95,144
1,36,0,63
1,36,97,129
1,36,0,43
1,36,95,53
1,36,0,200
1,36,97,88
1,36,0,50
1,35,97,46
1,35,0,186
1,35,97,102
1,35,0,47
1,35,97,49
1,35,0,192
1,30,95,96
1,30,0,47
1,35,95,49
1,35,0,180
1,35,93,108
1,35,0,47
1,30,95,49
1,30,0,174
1,30,95,18
1,30,0,174
1,35,95,18
1,35,0,191
1,35,95,97
1,35,0,47
1,30,97,49
1,30,0,168
1,30,90,24
1,30,0,159
1,35,97,33
1,35,0,191
1,35,95,97
1,35,0,47
1,30,94,49
1,30,0,191
1,35,95,1
1,35,0,139
1,36,95,53
1,36,0,186
1,36,95,102
1,36,0,53
1,28,91,43
1,28,0,226
1,29,91,62
1,29,0,130
1,30,91,62
1,30,0,143
1,30,91,49
1,30,0,82
1,36,97,14
1,36,0,183
1,36,97,105
1,36,0,45
1,36,97,51
1,36,0,183
1,36,95,105
1,36,0,45
1,36,97,51
1,36,0,186
1,36,91,102
1,36,0,48
1,36,95,144
1,36,0,63
1,36,97,129
1,36,0,43
1,36,95,53
1,36,0,200
1,36,97,88
1,36,0,50
1,35,97,46
1,35,0,186
1,35,97,102
1,35,0,47
1,35,97,49
1,35,0,192
1,42,95,96
1,42,0,47
1,35,95,49
1,35,0,180
1,30,93,108
1,30,0,47
1,35,98,49
1,35,0,78
1,42,91,18
1,42,0,78
1,35,95,18
1,35,0,174
1,35,95,18
1,35,0,191
1,35,95,97
1,35,0,47
1,35,97,49
1,35,0,264
1,42,97,24
1,42,0,72
1,35,97,24
1,35,0,191
1,35,95,97
1,35,0,47
1,30,99,49
1,30,0,95
1,30,88,1
1,30,0,95
1,31,96,1
1,31,0,95
1,31,87,1
1,31,0,95
1,36,95,1
1,36,0,186
1,36,95,102
1,36,0,53
1,28,96,43
1,28,0,82
1,28,91,14
1,28,0,82
1,28,91,14
1,28,0,82
1,29,97,14
1,29,0,82
1,29,92,14
1,29,0,82
1,29,94,14
1,29,0,82
1,31,99,14
1,31,0,93
1,31,91,3
1,31,0,93
1,36,97,3
1,36,0,183
1,36,97,105
1,36,0,45
1,36,97,51
1,36,0,183
1,36,95,105
1,36,0,45
1,31,92,51
1,31,0,177
1,36,97,15
1,36,0,67
1,36,90,29
1,36,0,48
1,36,98,48
1,36,0,240
1,36,97,48
1,36,0,43
1,36,95,53
1,36,0,200
1,36,97,88
1,36,0,50
1,35,97,46
1,35,0,186
1,47,97,102
1,47,0,95
1,35,97,1
1,35,0,192
1,35,95,96
1,35,0,47
1,35,95,49
1,35,0,84
1,30,90,12
1,30,0,84
1,35,97,12
1,35,0,84
1,35,93,12
1,35,0,47
1,35,99,49
1,35,0,78
1,42,90,18
1,42,0,78
1,35,95,18
1,35,0,174
1,35,95,18
1,35,0,191
1,35,95,97
1,35,0,47
1,35,97,49
1,35,0,168
1,35,95,120
1,35,0,95
1,35,95,97
1,35,0,95
1,35,95,97
1,35,0,47
1,35,94,49
1,35,0,191
1,38,95,1
1,38,0,158
1,43,83,34
1,43,0,527
1,31,83,49
1,31,0,186
1,36,90,6
1,36,0,513
1,36,85,63
1,36,0,188
1,38,88,4
1,38,0,549
1,38,82,27
1,38,0,183
1,31,86,9
1,31,0,330
1,43,77,54
1,43,0,143
1,42,80,49
1,42,0,155
1,40,82,37
1,40,0,303
1,35,80,81
1,35,0,123
1,40,84,69
1,40,0,128
1,33,84,64
1,33,0,321
1,33,84,63
1,33,0,191
1,40,79,1
1,40,0,173
1,38,88,19
1,38,0,357
1,33,84,27
1,33,0,358
1,31,84,26
1,31,0,286
1,31,84,2
1,31,0,94
1,38,77,2
1,38,0,190
1,38,77,2
1,38,0,190
1,31,86,2
1,31,0,286
1,31,86,2
1,31,0,93
1,38,82,3
1,38,0,170
1,38,84,22
1,38,0,191
1,31,84,1
1,31,0,286
1,31,84,2
1,31,0,94
1,38,81,2
1,38,0,382
1,31,77,2
1,31,0,286
1,43,82,98
1,43,0,117
1,38,84,75
1,38,0,191
1,31,84,1
1,31,0,382
1,38,85,2
1,38,0,382
1,31,77,2
1,31,0,341
1,43,82,43
1,43,0,117
1,38,84,75
1,38,0,191
1,31,84,1
1,31,0,382
1,38,77,2
1,38,0,382
1,31,77,2
1,31,0,4
1,43,82,2
1,43,0,117
1,38,84,50
1,38,0,79
1,31,84,1
1,31,0,113
1,38,85,2
1,38,0,36
1,31,77,2
1,31,0,50
1,43,82,43
1,43,0,64
1,38,84,75
1,38,0,16
1,31,84,1
1,31,0,56
1,38,77,2
1,38,0,85
1,31,77,2
1,31,0,125
1,43,82,2
1,43,0,79
1,38,84,1
1,38,0,25
1,31,84,1
1,31,0,110
1,38,77,2
1,38,0,161
1,31,77,2
1,31,0,51
2,50,71,1143
2,57,67,130
2,62,71,37
2,66,69,34
2,57,0,13
2,57,66,31
2,50,0,24
2,50,63,72
2,62,0,0
2,66,0,7
2,57,0,7
2,62,69,82
2,50,0,13
2,57,63,83
2,50,67,22
2,57,0,55
2,57,70,68
2,62,0,6
2,62,70,34
2,66,73,33
2,57,0,49
2,57,66,54
2,50,0,10
2,50,68,75
2,62,0,26
2,62,68,70
2,50,0,23
2,57,0,2
2,50,65,56
2,50,0,74
2,57,67,17
2,66,0,2
2,57,0,49
2,62,0,3
2,50,69,1
2,57,70,116
2,62,71,38
2,66,69,37
2,57,0,37
2,57,67,57
2,50,0,8
2,62,0,20
2,66,0,5
2,62,70,63
2,67,70,96
2,57,0,9
2,62,0,1
2,67,0,37
2,66,68,1
2,66,0,28
2,64,61,20
2,50,66,93
2,64,0,77
2,57,69,18
2,62,71,38
2,66,70,38
2,57,0,37
2,57,66,39
2,50,0,1
2,62,0,39
2,66,0,24
2,50,58,32
2,57,0,63
2,62,64,33
2,67,69,81
2,57,64,67
2,67,0,11
2,50,0,14
2,50,71,49
2,57,0,20
2,62,0,22
2,57,69,69
2,62,70,37
2,66,71,37
2,57,0,24
2,66,0,51
2,62,0,29
2,57,66,2
2,57,0,60
2,50,0,8
2,62,69,28
2,62,0,54
2,67,71,42
2,67,0,36
2,66,68,14
2,66,0,71
2,64,69,25
2,66,67,58
2,50,69,1
2,64,0,20
2,57,65,68
2,57,0,53
2,62,68,3
2,66,0,20
2,57,67,28
2,66,70,0
2,57,0,67
2,57,66,3
2,50,0,42
2,66,0,18
2,50,64,36
2,62,0,69
2,57,0,3
2,57,70,24
2,67,70,96
2,57,0,2
2,57,68,94
2,50,0,7
2,50,71,65
2,57,0,40
2,67,0,42
2,57,69,5
2,62,70,40
2,66,71,65
2,66,0,42
2,66,68,41
2,66,0,52
2,66,65,44
2,66,0,70
2,67,67,17
2,67,0,22
2,62,0,13
2,66,64,16
2,57,0,12
2,66,0,34
2,50,0,29
2,50,62,21
2,50,0,11
2,57,67,12
2,62,66,36
2,50,66,11
2,57,0,304
2,62,0,8
2,50,0,55
2,43,57,389
2,55,61,98
2,59,59,40
2,64,65,28
2,67,53,7
2,55,0,17
2,43,0,6
2,64,0,41
2,59,0,1
2,67,0,3
2,59,57,28
2,59,0,31
2,43,41,59
2,43,0,92
2,67,57,7
2,64,55,3
2,59,55,4
2,64,0,70
2,67,0,6
2,59,0,11
2,55,47,9
2,67,51,92
2,59,55,3
2,64,53,0
2,55,0,15
2,45,57,44
2,59,0,14
2,67,0,1
2,57,57,29
2,64,0,26
2,61,63,14
2,45,0,32
2,64,61,12
2,57,0,14
2,61,0,17
2,64,0,30
2,57,55,44
2,57,0,49
2,57,51,46
2,57,0,45
2,61,57,56
2,64,59,0
