track,note,velocity,time
2,36,119,23026
2,36,107,24
2,36,111,512
2,31,95,0
2,31,107,32
2,35,119,496
2,36,115,8
2,36,111,32
2,36,115,512
2,31,111,0
2,43,115,40
2,41,103,64
2,39,115,103
2,38,119,7
2,36,99,105
2,36,99,48
2,36,111,512
2,31,95,0
2,31,107,40
2,35,107,496
2,36,115,8
2,36,107,32
2,36,115,504
2,31,107,0
2,31,111,40
2,36,99,576
2,36,99,48
2,36,111,512
2,31,95,0
2,31,107,40
2,35,107,496
2,36,115,8
2,36,107,32
2,36,115,504
2,31,107,0
2,31,111,40
2,36,99,576
2,36,99,48
2,36,111,512
2,31,95,0
2,31,107,40
2,35,107,496
2,36,115,8
2,36,107,32
2,36,115,504
2,31,107,0
2,38,91,32
2,40,79,72
2,38,91,56
2,36,99,88
2,36,99,48
2,36,111,512
2,31,95,0
2,31,107,40
2,35,107,496
2,36,115,8
2,36,107,32
2,36,115,512
2,31,107,0
2,31,111,40
2,36,99,576
2,36,99,48
2,36,111,512
2,31,95,64
2,31,107,40
2,35,107,496
2,36,115,8
2,36,107,32
2,36,115,504
2,31,107,64
2,31,111,48
2,36,99,576
2,36,99,48
2,36,111,512
2,31,95,64
2,31,107,40
2,35,107,496
2,36,115,8
2,36,107,32
2,36,115,504
2,31,107,64
2,31,119,120
2,33,123,64
2,35,119,64
2,36,99,32
2,36,99,48
2,36,111,512
2,31,95,0
2,31,107,40
2,35,107,496
2,36,115,8
2,36,107,32
2,36,115,504
2,31,107,0
2,31,111,40
2,36,99,576
2,36,99,48
2,36,111,512
2,31,95,0
2,31,107,40
2,35,107,496
2,36,115,8
2,36,107,32
2,36,115,512
2,31,107,64
2,31,111,48
2,31,99,96
2,31,99,24
2,33,119,32
2,35,107,192
2,36,99,56
2,36,99,48
2,36,111,512
2,31,95,0
2,31,107,40
2,35,107,496
2,36,115,8
2,36,107,32
2,36,115,512
2,31,107,0
2,31,119,128
2,33,123,64
2,35,119,64
2,36,99,32
2,36,99,48
2,36,111,512
2,31,95,64
2,31,107,40
2,35,107,496
2,36,115,8
2,36,107,32
2,36,115,504
2,31,107,64
2,31,111,48
2,36,99,576
2,36,99,48
2,36,111,512
2,31,95,64
2,31,107,40
2,35,107,496
2,36,115,8
2,36,107,32
2,36,115,512
2,31,107,64
2,31,111,40
2,36,99,576
2,36,99,48
2,36,111,512
2,31,95,64
2,31,107,40
2,35,107,496
2,36,115,8
2,36,107,32
2,36,115,504
2,31,107,0
2,31,111,40
2,31,99,96
2,31,99,24
2,33,119,32
2,35,107,192
2,36,99,56
2,36,99,48
2,36,111,512
2,31,95,0
2,31,107,40
2,35,107,496
2,36,115,8
2,36,107,32
2,36,115,504
2,31,107,0
2,31,119,120
2,33,123,64
2,35,119,64
2,36,99,32
2,36,99,48
2,36,111,512
2,31,95,0
2,31,107,40
2,35,107,496
2,36,115,8
2,36,107,32
2,36,115,504
2,31,107,0
2,31,111,40
2,36,99,576
2,36,99,48
2,36,111,512
2,31,95,0
2,31,107,40
2,35,107,496
2,36,115,8
2,36,107,32
2,36,115,504
2,31,107,0
2,31,111,40
2,36,99,576
2,36,99,48
2,36,111,512
2,31,95,0
2,31,107,40
2,35,107,496
2,36,115,8
2,36,107,32
2,36,115,504
2,31,107,0
2,31,111,40
2,31,99,96
2,31,99,24
2,33,119,32
2,35,107,192
2,36,99,56
2,36,99,48
2,36,111,512
2,31,95,64
2,31,107,40
2,35,107,496
2,36,115,8
2,36,107,32
2,36,115,504
2,31,107,0
2,31,119,128
2,33,123,64
2,35,119,64
2,36,99,32
2,36,99,48
2,36,111,512
2,31,95,64
2,31,107,40
2,35,107,496
2,36,115,8
2,36,107,32
2,36,115,512
2,31,107,0
2,31,111,40
2,36,99,576
2,36,99,48
2,36,111,512
2,31,95,0
2,31,107,40
2,35,107,496
2,36,115,8
2,36,107,32
2,36,115,504
2,31,107,0
2,31,111,48
2,36,99,576
2,36,99,48
2,36,111,512
2,31,95,0
2,31,107,40
2,35,107,496
2,36,115,8
2,36,107,32
2,36,115,512
2,31,107,0
2,31,111,48
2,31,99,96
2,31,99,24
2,33,119,32
2,35,107,192
2,36,99,56
2,36,99,48
2,36,111,512
2,31,95,0
2,31,107,40
2,35,107,496
2,36,115,8
2,36,107,32
2,36,115,512
2,31,107,0
2,31,119,128
2,33,123,64
2,35,119,64
2,36,99,32
2,36,99,48
2,36,111,512
2,31,95,64
2,31,107,40
2,35,107,496
2,36,115,8
2,36,107,32
2,36,115,512
2,31,107,0
2,31,111,48
2,36,99,576
2,36,99,48
2,36,111,512
2,31,95,64
2,31,107,40
2,35,107,496
2,36,115,8
2,36,107,32
2,36,115,512
2,31,107,64
2,31,111,48
2,36,99,576
2,36,99,48
2,36,111,512
2,31,95,0
2,31,107,40
2,35,107,496
2,36,115,8
2,36,107,32
2,36,115,512
2,31,107,0
2,31,111,48
2,31,99,96
2,31,99,24
2,33,119,32
2,35,107,192
2,36,99,56
2,36,99,48
2,36,111,512
2,31,95,64
2,31,107,40
2,35,107,496
2,36,115,8
2,36,107,32
2,36,115,504
2,31,107,0
2,31,119,128
2,33,123,64
2,35,119,64
2,36,99,32
2,36,99,48
2,36,111,512
2,31,95,64
2,31,107,40
2,35,107,496
2,36,115,8
2,36,107,32
2,36,115,512
2,31,107,64
2,31,111,48
2,36,99,576
2,36,99,48
2,36,111,512
2,31,95,64
2,31,107,40
2,35,107,496
2,36,115,8
2,36,107,32
2,36,115,512
2,31,107,64
2,31,119,120
2,33,123,64
2,35,119,64
2,36,99,32
2,36,99,48
2,36,111,512
2,31,95,64
2,31,107,40
2,35,107,496
2,36,115,8
2,36,107,32
2,36,115,504
2,31,107,0
2,31,111,40
2,36,99,576
2,36,99,48
2,36,111,512
2,31,95,0
2,31,107,40
2,35,107,496
2,36,115,8
2,36,107,32
2,36,115,512
2,31,107,64
2,31,111,48
2,36,99,576
2,36,99,48
2,36,111,512
2,31,95,0
2,31,107,40
2,35,107,496
2,36,115,8
2,36,107,32
2,36,115,504
2,31,107,0
2,31,111,40
2,31,99,96
2,31,99,24
2,33,119,32
2,35,107,192
2,36,99,56
2,36,99,48
2,36,111,512
2,31,95,0
2,31,107,40
2,35,107,496
2,36,115,8
2,36,107,32
2,36,115,504
2,31,107,0
2,31,119,120
2,33,123,64
2,35,119,64
2,36,91,32
2,36,91,40
2,31,91,312
2,33,91,64
2,36,91,120
2,38,91,24
2,38,91,32
2,31,91,312
2,38,91,16
2,31,91,0
2,40,91,16
2,40,91,24
2,38,91,168
2,40,91,88
2,38,91,88
2,33,91,96
2,31,91,40
2,33,91,192
2,36,99,64
2,36,99,48
2,36,111,512
2,31,95,64
2,31,107,40
2,35,107,496
2,36,115,8
2,36,107,32
2,36,115,504
2,31,107,0
2,31,111,40
2,36,99,576
2,36,99,48
2,36,111,512
2,31,95,0
2,31,107,40
2,35,107,496
2,36,115,8
2,36,107,32
2,36,115,504
2,31,107,0
2,31,111,48
2,31,99,96
2,31,99,24
2,33,119,32
2,35,107,192
2,36,99,56
2,36,99,48
2,36,111,512
2,31,95,0
2,31,107,40
2,35,107,496
2,36,115,8
2,36,107,32
2,36,115,512
2,31,107,64
2,31,119,128
2,33,123,64
2,35,119,64
2,36,99,32
2,36,99,48
2,36,111,512
2,31,95,0
2,31,107,40
2,35,107,496
2,36,115,8
2,36,107,32
2,36,115,512
2,31,107,0
2,31,111,48
2,36,99,576
2,36,99,48
2,36,111,512
2,31,95,0
2,31,107,40
2,35,107,496
2,36,115,8
2,36,107,32
2,36,115,504
2,31,107,0
2,31,111,40
2,36,99,576
2,36,99,48
2,36,111,512
2,31,95,0
2,31,107,40
2,35,107,496
2,36,115,8
2,36,107,32
2,36,115,504
2,31,107,64
2,31,111,40
2,36,99,576
2,36,99,48
2,36,111,512
2,31,95,64
2,31,107,40
2,35,107,496
2,36,115,8
2,36,107,32
2,36,115,512
2,31,107,64
2,31,111,48
2,36,99,576
2,36,99,48
2,36,111,512
2,31,95,64
2,31,107,40
2,35,107,496
2,36,115,8
2,36,107,32
2,36,115,504
2,31,107,0
2,31,111,48
2,36,99,576
2,36,99,48
2,36,111,512
2,31,95,64
2,31,107,40
2,35,107,496
2,36,115,8
2,36,99,1448
2,36,99,48
2,36,111,512
2,31,95,0
2,31,107,40
2,35,107,496
2,36,115,8
2,36,107,32
2,36,115,512
2,31,107,64
2,31,111,48
2,33,111,192
2,35,111,64
2,36,99,64
2,36,99,48
2,36,111,512
2,31,95,0
2,31,107,40
2,35,107,496
2,36,115,8
2,36,107,32
2,36,115,512
2,31,107,0
2,31,111,40
2,36,99,576
2,36,99,48
2,36,111,512
2,31,95,64
2,31,107,40
2,35,107,496
2,36,115,8
2,36,107,32
2,36,115,512
2,31,107,64
2,31,111,48
2,36,99,576
2,36,99,48
2,36,111,512
2,31,95,64
2,31,107,40
2,35,107,496
2,36,115,8
2,36,107,32
2,36,115,504
2,31,107,0
2,31,111,40
2,36,119,576
3,48,20,35307
3,60,124,0
3,64,108,0
3,72,124,1
3,48,20,288
3,60,124,0
3,64,108,0
3,72,124,0
3,67,104,0
3,52,20,16
3,64,124,0
3,76,124,0
3,48,20,80
3,60,124,0
3,64,108,0
3,72,124,0
3,50,20,8
3,62,124,0
3,65,112,0
3,74,124,0
3,50,20,288
3,62,124,0
3,65,116,0
3,74,124,0
3,57,20,16
3,65,112,8
3,69,124,0
3,81,124,0
3,55,20,80
3,64,120,0
3,67,124,0
3,79,124,0
3,48,20,8
3,60,124,0
3,64,112,0
3,72,124,0
3,48,20,288
3,60,124,0
3,64,112,0
3,72,124,0
3,67,108,0
3,52,20,8
3,64,124,0
3,76,124,0
3,48,20,80
3,60,124,0
3,72,124,0
3,64,108,32
3,50,20,0
3,65,112,0
3,62,124,1
3,74,124,0
3,50,20,288
3,62,124,0
3,65,112,0
3,74,124,0
3,53,20,8
3,65,104,0
3,69,124,0
3,81,124,0
3,52,20,80
3,64,108,0
3,67,124,0
3,79,124,0
3,48,20,16
3,60,124,0
3,64,88,0
3,72,124,0
3,48,20,9112
3,60,124,1
3,64,108,0
3,72,124,0
3,48,20,288
3,60,124,0
3,64,108,0
3,72,124,0
3,67,104,0
3,52,20,16
3,64,124,0
3,76,124,0
3,48,20,80
3,60,124,0
3,64,108,0
3,72,124,0
3,50,20,8
3,65,112,0
3,62,124,1
3,74,124,0
3,50,20,288
3,65,116,0
3,62,124,1
3,74,124,0
3,57,20,16
3,65,112,16
3,69,124,0
3,81,124,0
3,55,20,80
3,64,120,0
3,67,124,0
3,79,124,0
3,48,20,8
3,60,124,0
3,64,112,0
3,72,124,0
3,48,20,288
3,60,124,0
3,64,112,0
3,72,124,1
3,67,108,0
3,52,20,8
3,64,124,0
3,76,124,0
3,48,20,80
3,60,124,0
3,72,124,0
3,64,108,32
3,50,20,1
3,62,124,0
3,65,112,0
3,74,124,0
3,50,20,288
3,62,124,0
3,65,112,0
3,74,124,0
3,53,20,16
3,65,104,0
3,69,124,0
3,81,124,0
3,52,20,80
3,64,108,0
3,67,124,0
3,79,124,0
3,48,20,16
3,60,124,0
3,64,88,0
3,72,124,0
3,48,20,21400
3,60,124,0
3,64,108,0
3,72,124,1
3,48,20,288
3,60,124,0
3,64,108,0
3,72,124,0
3,67,104,0
3,52,20,16
3,64,124,0
3,76,124,0
3,48,20,80
3,60,124,0
3,64,108,0
3,72,124,0
3,50,20,8
3,65,112,0
3,62,124,1
3,74,124,0
3,50,20,288
3,65,116,0
3,62,124,1
3,74,124,0
3,57,20,16
3,65,112,8
3,69,124,0
3,81,124,0
3,55,20,80
3,64,120,0
3,67,124,0
3,79,124,0
3,48,20,8
3,60,124,0
3,64,112,0
3,72,124,0
3,48,20,288
3,60,124,0
3,64,112,0
3,72,124,1
3,67,108,0
3,52,20,8
3,64,124,0
3,76,124,0
3,48,20,80
3,60,124,0
3,72,124,0
3,64,108,32
3,50,20,1
3,62,124,0
3,65,112,0
3,74,124,0
3,50,20,288
3,62,124,0
3,65,112,0
3,74,124,0
3,53,20,8
3,65,104,0
3,69,124,0
3,81,124,0
3,52,20,80
3,64,108,0
3,67,124,0
3,79,124,0
3,48,20,16
3,60,124,0
3,64,88,0
3,72,124,0
3,60,92,9112
3,72,88,0
3,76,96,0
3,60,84,304
3,72,88,0
3,76,96,0
3,64,80,0
3,76,88,0
3,79,88,0
3,60,84,88
3,72,80,0
3,76,88,0
3,62,92,16
3,74,88,0
3,77,88,0
3,62,88,296
3,74,76,0
3,77,92,0
3,69,96,16
3,77,92,0
3,81,88,0
3,67,88,80
3,76,88,0
3,79,88,0
3,60,88,24
3,72,92,0
3,76,80,0
3,60,92,296
3,72,92,0
3,76,96,0
3,64,96,16
3,76,92,0
3,79,88,0
3,60,88,88
3,72,88,0
3,76,96,0
3,62,100,24
3,74,92,0
3,77,88,0
3,62,104,296
3,74,88,0
3,77,96,0
3,69,104,24
3,77,92,0
3,81,88,0
3,67,96,80
3,74,100,0
3,79,100,0
3,60,104,16
3,72,92,0
3,76,92,0
3,48,20,9120
3,64,108,0
3,60,124,1
3,72,124,0
3,48,20,288
3,60,124,0
3,64,108,0
3,72,124,1
3,67,104,0
3,52,20,16
3,64,124,0
3,76,124,0
3,48,20,80
3,60,124,0
3,64,108,0
3,72,124,0
3,50,20,8
3,62,124,0
3,65,112,0
3,74,124,0
3,50,20,288
3,65,116,0
3,62,124,1
3,74,124,0
3,57,20,16
3,65,112,8
3,69,124,0
3,81,124,0
3,55,20,80
3,64,120,0
3,67,124,0
3,79,124,0
3,48,20,8
3,60,124,0
3,64,112,0
3,72,124,0
3,48,20,288
3,60,124,0
3,64,112,0
3,72,124,1
3,67,108,0
3,52,20,8
3,64,124,0
3,76,124,0
3,48,20,80
3,60,124,0
3,72,124,0
3,64,108,32
3,50,20,1
3,62,124,0
3,65,112,0
3,74,124,0
3,50,20,288
3,62,124,0
3,65,112,0
3,74,124,0
3,53,20,16
3,65,104,0
3,69,124,0
3,81,124,0
3,52,20,80
3,64,108,0
3,67,124,0
3,79,124,0
3,48,20,16
3,60,124,0
3,64,88,0
3,72,124,0
3,48,20,15256
3,60,124,0
3,64,108,0
3,72,124,1
3,48,20,288
3,60,124,0
3,64,108,0
3,72,124,0
3,67,104,0
3,52,20,16
3,64,124,0
3,76,124,0
3,48,20,80
3,60,124,0
3,64,108,0
3,72,124,0
3,50,20,8
3,62,124,0
3,65,112,0
3,74,124,1
3,50,20,288
3,65,116,0
3,62,124,1
3,74,124,0
3,57,20,16
3,65,112,8
3,69,124,0
3,81,124,0
3,55,20,80
3,64,120,0
3,67,124,0
3,79,124,0
3,48,20,8
3,60,124,0
3,64,112,0
3,72,124,0
3,48,20,288
3,60,124,0
3,64,112,0
3,72,124,1
3,67,108,0
3,52,20,8
3,64,124,0
3,76,124,0
3,48,20,80
3,60,124,0
3,72,124,0
3,64,108,32
3,50,20,0
3,62,124,1
3,65,112,0
3,74,124,0
3,50,20,288
3,62,124,0
3,65,112,0
3,74,124,0
3,53,20,8
3,65,104,0
3,69,124,0
3,81,124,0
3,52,20,80
3,64,108,0
3,67,124,0
3,79,124,0
3,48,20,16
3,60,124,0
3,64,88,0
3,72,124,0
3,48,20,9112
3,60,124,0
3,64,108,0
3,72,124,1
3,48,20,288
3,60,124,0
3,64,108,0
3,72,124,1
3,67,104,0
3,52,20,16
3,64,124,0
3,76,124,0
3,48,20,80
3,60,124,0
3,64,108,0
3,72,124,0
3,50,20,8
3,62,124,0
3,65,112,0
3,74,124,1
3,50,20,288
3,65,116,0
3,62,124,1
3,74,124,0
3,57,20,16
3,65,112,8
3,69,124,0
3,81,124,0
3,55,20,80
3,64,120,0
3,67,124,0
3,79,124,0
3,48,20,8
3,60,124,0
3,64,112,0
3,72,124,0
3,48,20,288
3,60,124,0
3,64,112,0
3,72,124,1
3,67,108,0
3,52,20,8
3,64,124,0
3,76,124,0
3,48,20,80
3,60,124,0
