track,note,velocity,time
3,57,78,1200
3,57,84,122
3,62,84,0
3,57,84,390
3,62,84,0
3,64,84,0
3,57,84,70
3,62,84,0
3,66,78,0
3,62,66,125
3,66,68,0
3,62,78,177
3,66,72,0
3,57,84,190
3,62,84,0
3,66,84,0
3,57,64,142
3,62,64,0
3,66,66,0
3,64,78,165
3,62,78,167
3,57,82,1105
3,57,84,160
3,62,84,0
3,57,84,400
3,62,84,0
3,64,84,0
3,57,84,82
3,62,84,0
3,66,78,0
3,62,68,110
3,66,66,0
3,62,66,160
3,66,62,0
3,57,84,190
3,62,84,0
3,66,82,0
3,57,72,147
3,62,72,0
3,66,70,0
3,64,70,180
3,62,80,185
3,57,78,1112
3,57,84,170
3,62,84,0
3,57,84,402
3,62,84,0
3,64,84,0
3,57,82,2
3,62,84,0
3,66,78,0
3,62,62,110
3,66,60,0
3,62,64,150
3,66,66,0
3,57,84,187
3,62,84,0
3,66,84,0
3,57,64,137
3,62,64,0
3,66,62,0
3,64,78,160
3,62,84,162
3,57,84,1337
3,62,84,0
3,57,84,392
3,62,84,0
3,64,84,0
3,57,82,77
3,62,82,0
3,66,78,0
3,62,60,125
3,66,62,0
3,62,66,170
3,66,62,0
3,57,84,187
3,62,84,0
3,66,82,0
3,57,64,142
3,62,64,0
3,66,62,0
3,64,82,160
3,62,84,160
3,57,84,30150
3,62,84,0
3,57,84,390
3,62,84,0
3,64,84,0
3,57,84,70
3,62,84,0
3,66,78,0
3,62,66,125
3,66,68,0
3,62,78,177
3,66,72,0
3,57,84,190
3,62,84,0
3,66,84,0
3,57,64,142
3,62,64,0
3,66,66,0
3,64,78,165
3,62,78,167
3,57,82,1105
3,57,84,160
3,62,84,0
3,57,84,400
3,62,84,0
3,64,84,0
3,57,84,82
3,62,84,0
3,66,78,0
3,62,68,110
3,66,66,0
3,62,66,160
3,66,62,0
3,57,84,190
3,62,84,0
3,66,82,0
3,57,72,147
3,62,72,0
3,66,70,0
3,64,70,180
3,62,80,185
3,62,91,171992
3,62,94,122
3,67,94,0
3,62,94,390
3,67,94,0
3,69,94,0
3,62,94,70
3,67,94,0
3,71,91,0
3,67,85,125
3,71,86,0
3,67,91,177
3,71,88,0
3,62,94,190
3,67,94,0
3,71,94,0
3,62,84,142
3,67,84,0
3,71,85,0
3,69,91,165
3,67,91,167
3,62,93,1105
3,62,94,160
3,67,94,0
3,62,94,400
3,67,94,0
3,69,94,0
3,62,94,82
3,67,94,0
3,71,91,0
3,67,86,110
3,71,85,0
3,67,85,160
3,71,83,0
3,62,94,190
3,67,94,0
3,71,93,0
3,62,88,147
3,67,88,0
3,71,87,0
3,69,87,180
3,67,92,185
3,62,91,1112
3,62,94,170
3,67,94,0
3,62,94,402
3,67,94,0
3,69,94,0
3,62,93,2
3,67,94,0
3,71,91,0
3,67,83,110
3,71,82,0
3,67,84,150
3,71,85,0
3,62,94,187
3,67,94,0
3,71,94,0
3,62,84,137
3,67,84,0
3,71,83,0
3,69,91,160
3,67,94,162
3,62,94,1337
3,67,94,0
3,62,94,392
3,67,94,0
3,69,94,0
3,62,93,77
3,67,93,0
3,71,91,0
3,67,82,125
3,71,83,0
3,67,85,170
3,71,83,0
3,62,94,187
3,67,94,0
3,71,93,0
3,62,84,142
3,67,84,0
3,71,83,0
3,69,93,160
3,67,94,160
3,62,91,1110
3,62,94,122
3,67,94,0
3,62,94,390
3,67,94,0
3,69,94,0
3,59,91,70
3,62,94,0
3,67,94,0
4,38,109,75
4,33,105,190
4,45,109,252
4,38,109,287
4,33,109,240
4,38,109,260
4,33,105,255
4,45,109,272
4,38,109,285
4,33,109,197
4,38,109,205
4,33,109,192
4,45,109,255
4,38,109,305
4,33,105,167
4,38,109,227
4,33,105,225
4,45,109,260
4,38,109,250
4,33,109,180
4,31,109,17
4,31,109,375
4,33,109,120
4,33,109,107
4,37,105,202
4,38,105,200
4,38,109,167
4,37,105,180
4,35,109,190
4,30,97,162
4,35,105,200
4,28,105,185
4,35,109,170
4,40,109,190
4,33,109,60
4,33,105,210
4,37,105,212
4,38,109,242
4,33,109,262
4,45,109,230
4,38,109,255
4,33,109,237
4,31,109,960
4,31,109,255
4,31,109,270
4,33,109,220
4,33,109,197
4,37,101,190
4,38,109,220
4,33,101,135
4,38,109,2
4,37,105,192
4,35,109,167
4,30,101,180
4,35,105,197
4,40,109,250
4,35,109,202
4,40,109,205
4,33,109,217
4,33,109,170
4,37,109,237
4,38,109,5
4,33,105,190
4,45,109,252
4,38,109,287
4,38,109,190
4,33,105,70
4,45,109,252
4,38,109,287
4,33,109,240
4,38,109,260
4,33,105,255
4,45,109,272
4,38,109,285
4,33,109,197
4,31,109,205
4,43,109,125
4,40,81,5
4,31,109,5
4,33,109,120
4,33,109,107
4,37,105,202
4,38,105,200
4,38,109,167
4,37,105,180
4,35,109,190
4,30,97,162
4,35,105,200
4,40,105,185
4,35,109,170
4,33,109,190
4,33,105,210
4,37,105,212
4,38,109,242
4,33,109,262
4,38,109,230
4,33,109,237
4,38,101,190
4,43,109,220
4,31,109,255
4,31,109,270
4,33,109,220
4,33,109,197
4,37,101,190
4,38,109,220
4,38,109,135
4,37,105,192
4,35,109,167
4,30,101,180
4,35,105,197
4,40,109,250
4,35,109,202
4,45,109,205
4,40,109,170
4,40,109,5
4,38,109,245
4,33,109,237
4,45,101,190
4,40,109,220
4,35,109,132
4,40,105,105
4,33,109,112
4,33,109,132
4,45,109,62
4,35,109,5
4,35,109,107
4,39,105,202
4,40,105,200
4,40,109,167
4,39,105,180
4,37,109,190
4,32,105,162
4,37,105,212
4,30,105,242
4,30,97,290
4,42,109,5
4,35,105,5
4,35,105,185
4,39,105,212
4,40,109,242
4,35,109,262
4,40,109,230
4,35,109,237
4,40,101,190
4,33,109,220
4,33,109,255
4,33,109,270
4,35,109,220
4,35,109,197
4,39,101,190
4,40,109,220
4,40,109,135
4,39,105,192
4,37,109,167
4,32,101,180
4,37,105,197
4,30,109,250
4,37,109,202
4,30,109,270
4,35,109,220
4,35,109,170
4,39,109,5
4,40,109,245
4,35,109,262
4,40,109,230
4,35,109,237
4,33,109,230
4,33,109,125
4,33,109,62
4,35,109,5
4,35,109,125
4,35,109,62
4,40,109,5
4,40,109,125
4,40,109,62
4,39,105,180
4,37,109,190
4,37,109,125
4,37,109,62
4,30,109,5
4,30,109,125
4,30,109,62
4,35,109,5
4,35,109,125
4,35,109,62
4,40,109,5
4,40,109,125
4,35,109,62
4,32,105,180
4,31,109,190
4,31,109,125
4,31,109,62
4,43,105,180
4,36,109,190
4,36,109,125
4,33,109,62
4,38,109,5
4,38,109,125
4,33,109,62
4,38,105,180
4,43,109,190
4,31,109,125
4,43,109,62
4,42,105,180
4,40,109,190
4,40,109,125
4,35,109,62
4,40,105,180
4,33,109,190
4,33,109,125
4,33,109,62
4,38,109,5
4,38,109,125
4,33,109,62
4,38,105,180
4,31,109,190
4,31,109,125
4,38,109,62
4,38,105,180
4,31,109,190
4,31,109,125
4,38,109,62
4,31,105,180
4,24,109,190
4,36,109,125
4,33,109,62
4,33,105,180
4,38,109,190
4,38,109,125
4,38,109,62
4,33,105,180
4,31,109,190
4,38,109,125
4,43,109,62
4,42,105,180
4,40,109,190
4,40,109,125
4,35,109,62
4,40,105,180
4,33,109,190
4,33,109,125
4,40,109,62
4,33,105,180
4,38,109,190
4,38,109,125
4,33,109,62
4,38,105,180
4,31,109,190
4,31,109,125
4,38,109,62
4,38,105,180
4,43,109,190
4,43,109,60
4,31,109,62
4,31,109,60
4,43,109,62
4,31,109,60
4,43,109,62
4,43,109,5
4,38,109,5
4,35,109,5
4,36,109,5
4,36,109,162
4,36,97,32
4,36,109,197
4,28,101,5
4,29,109,5
4,31,109,5
4,31,101,80
4,36,109,30
4,36,109,120
4,36,109,5
4,36,109,212
4,36,109,120
4,36,109,172
4,36,109,212
4,36,109,200
4,36,109,100
4,36,109,195
4,35,109,5
4,35,109,182
4,35,109,130
4,30,109,250
4,35,109,25
4,35,109,192
4,30,105,30
4,30,105,210
4,35,109,40
4,35,109,230
4,30,105,40
4,30,105,157
4,35,109,195
4,35,109,157
4,30,109,20
4,35,109,180
4,36,109,5
4,36,109,162
4,28,109,85
4,36,109,157
4,31,97,22
4,31,109,240
4,36,109,30
4,36,109,7
4,36,109,177
4,36,109,125
4,36,109,145
4,36,109,190
4,36,109,230
4,36,109,87
4,36,109,165
4,35,109,5
4,30,105,177
4,35,109,62
4,42,109,280
4,47,109,65
4,42,105,257
4,47,109,77
4,42,101,30
4,47,109,127
4,35,109,47
4,30,101,147
4,35,109,150
4,42,109,130
4,47,109,152
4,47,109,107
4,36,109,22
4,36,109,90
4,28,109,20
4,29,97,20
4,31,109,27
4,36,109,12
4,31,109,5
4,36,109,10
4,36,109,37
4,36,109,187
4,31,105,45
4,36,109,5
4,36,109,137
4,36,109,140
4,36,109,117
4,36,109,45
4,35,109,25
4,47,109,85
4,35,109,5
4,35,109,70
4,30,101,20
4,35,109,7
4,35,109,210
4,30,105,5
4,35,109,10
4,35,109,90
4,35,109,102
4,35,109,30
4,35,109,102
4,35,109,150
4,35,109,70
4,35,109,67
4,35,109,60
4,38,109,102
4,43,109,55
4,31,109,85
4,36,109,120
4,36,109,180
4,38,109,140
4,38,109,160
4,31,109,160
4,43,109,115
4,42,109,142
4,40,109,117
4,35,109,5
4,40,109,200
4,33,109,160
4,33,109,155
4,40,109,190
4,38,109,140
4,33,109,120
4,31,109,22
4,43,109,70
4,38,105,70
4,38,109,252
4,31,109,287
4,38,105,240
4,38,109,252
4,31,109,287
4,38,109,197
4,31,109,205
4,43,109,192
4,38,109,255
4,31,109,305
4,38,105,167
4,31,109,227
4,43,105,225
4,38,109,260
4,31,109,250
4,38,109,180
4,31,109,17
4,43,105,225
4,38,109,260
4,31,109,250
4,31,105,180
4,26,109,260
4,31,109,130
5,69,66,600
5,62,52,240
5,57,64,0
5,69,67,12
5,62,42,240
5,57,55,42
5,69,67,160
5,62,49,220
5,57,59,40
5,69,67,150
5,62,56,205
5,57,61,35
5,64,66,142
5,69,67,0
5,62,56,97
5,69,59,0
5,69,67,192
5,62,54,220
5,57,58,240
5,69,67,150
5,62,63,215
5,57,59,0
5,69,67,120
5,62,63,235
5,57,58,240
5,69,67,235
5,62,60,212
5,57,59,240
5,64,57,225
5,69,63,0
5,62,58,110
5,69,64,0
5,69,67,190
5,62,56,210
5,57,56,240
5,69,67,0
5,62,54,220
5,57,54,22
5,69,67,240
5,62,52,217
5,57,54,240
5,69,67,10
5,62,54,212
5,57,56,240
5,64,58,237
5,69,64,0
5,62,57,135
5,69,62,0
5,69,67,202
5,62,54,225
5,57,58,22
5,69,67,0
5,62,54,235
5,57,56,240
5,69,67,17
5,62,50,192
5,57,54,240
5,69,67,180
5,62,49,190
5,57,49,197
5,62,63,95
5,69,66,0
5,55,84,50
5,67,87,480
5,59,76,210
5,55,79,240
5,67,87,185
5,59,79,210
5,55,78,237
5,57,86,55
5,64,87,480
5,61,80,212
5,57,78,240
5,64,87,147
5,61,81,200
5,55,86,240
5,50,87,50
5,66,84,480
5,62,76,240
5,57,84,35
5,66,86,127
5,61,84,162
5,54,78,212
5,47,87,80
5,66,86,480
5,62,81,240
5,54,84,207
5,66,83,5
5,62,84,240
5,54,75,165
5,40,87,65
5,64,87,480
5,59,77,240
5,55,84,40
5,64,87,120
5,59,81,170
5,55,79,240
5,45,87,12
5,64,87,480
5,61,79,240
5,57,83,185
5,64,87,10
5,61,82,240
5,55,79,240
5,50,87,52
5,57,86,240
5,66,86,240
5,62,78,167
5,57,87,240
5,67,86,90
5,66,81,10
5,64,86,240
5,62,87,10
5,50,86,180
5,57,86,240
5,66,86,105
5,62,87,240
5,50,87,152
5,57,87,240
5,55,84,0
5,67,87,480
5,59,76,210
5,55,79,240
5,67,87,185
5,59,79,210
5,55,78,237
5,57,86,55
5,64,87,480
5,61,80,212
5,57,78,240
5,64,87,147
5,61,81,200
5,55,86,240
5,50,87,50
5,66,84,480
5,62,76,240
5,57,84,35
5,66,86,127
5,61,84,162
5,54,78,212
5,59,87,80
5,66,86,480
5,62,81,240
5,54,84,207
5,66,83,5
5,62,84,240
5,54,75,165
5,40,87,65
5,64,87,480
5,59,77,240
5,55,84,40
5,64,87,120
5,59,81,170
5,55,79,240
5,45,87,12
5,67,87,480
5,61,79,240
5,57,83,185
5,67,87,10
5,61,82,240
5,57,79,240
5,69,66,532
5,62,52,240
5,57,64,0
5,69,67,12
5,62,42,240
5,57,55,42
5,69,66,460
5,62,52,240
5,57,64,0
5,69,67,12
5,62,42,240
5,57,55,42
5,69,67,160
5,62,49,220
5,57,59,40
5,69,67,150
5,62,56,205
5,57,61,35
5,64,66,142
5,69,67,0
5,62,56,97
5,69,59,0
5,69,67,192
5,62,54,220
5,57,58,240
5,69,67,150
5,62,63,215
5,57,59,0
5,69,67,120
5,62,63,235
5,57,58,240
5,69,67,235
5,62,60,212
5,57,59,240
5,62,57,225
5,69,63,0
5,55,84,110
5,67,87,480
5,59,76,210
5,55,79,240
5,67,87,185
5,59,79,210
5,55,78,237
5,57,86,55
5,64,87,480
5,61,80,212
5,57,78,240
5,64,87,147
5,61,81,200
5,55,86,240
5,50,87,50
5,66,84,480
5,62,76,240
5,57,84,35
5,66,86,127
5,61,84,162
5,54,78,212
5,47,87,80
5,66,86,480
5,62,81,240
5,54,84,207
5,66,83,5
5,62,84,240
5,54,75,165
5,40,87,65
5,64,87,480
5,59,77,240
5,55,84,40
5,64,87,120
5,59,81,170
5,55,79,240
5,45,87,12
5,64,87,480
5,61,79,240
5,57,83,185
5,64,87,10
5,61,82,240
5,55,79,240
5,50,87,52
5,57,86,240
5,66,86,240
5,62,78,167
5,57,87,240
5,67,86,90
5,66,81,10
5,64,86,240
5,62,87,10
5,50,86,180
5,57,86,240
5,66,86,105
5,62,87,240
5,50,87,152
5,57,87,240
5,55,84,0
5,67,87,480
5,59,76,210
5,55,79,240
5,67,87,185
5,59,79,210
5,55,78,237
5,57,86,55
5,64,87,480
5,61,80,212
5,57,78,240
5,64,87,147
5,61,81,200
5,55,86,240
5,50,87,50
5,69,84,480
5,62,76,240
5,57,84,35
5,66,86,127
5,61,84,162
5,54,78,212
5,59,87,80
5,66,86,480
5,62,81,240
5,54,84,207
5,64,83,5
5,62,84,240
5,54,75,165
5,40,87,65
5,64,87,480
5,59,77,240
5,55,84,40
5,64,87,120
5,59,81,170
5,55,79,240
5,45,87,12
5,64,87,480
5,61,79,240
5,57,83,185
5,64,87,10
5,61,82,240
5,57,79,240
5,50,87,52
5,57,86,240
5,67,86,240
5,66,78,5
5,64,87,5
5,62,86,5
5,50,81,240
5,57,86,240
5,52,87,5
5,56,87,240
5,68,86,240
5,64,81,240
5,56,84,207
5,64,83,5
5,59,84,240
5,56,75,165
5,57,84,165
5,69,87,480
5,61,76,210
5,59,79,5
5,61,87,5
5,59,79,5
5,57,78,5
5,59,86,55
5,63,87,480
5,64,80,5
5,59,78,5
5,61,87,240
5,59,81,200
5,57,86,240
5,56,87,50
5,52,87,5
5,68,84,240
5,64,76,240
5,59,84,240
5,68,86,35
5,63,84,162
5,56,78,212
5,49,87,80
5,61,86,240
5,68,86,240
5,64,81,207
5,56,84,207
5,68,83,5
5,64,84,240
5,56,75,165
5,42,87,65
5,66,87,480
5,61,77,240
5,57,84,40
5,66,87,120
5,61,81,170
5,57,79,240
5,47,87,12
5,66,87,480
5,63,79,240
5,59,83,185
5,66,87,10
5,63,82,240
5,57,79,240
5,52,87,52
5,59,86,240
5,68,86,240
5,57,87,5
5,57,98,5
5,57,105,5
5,57,111,5
5,56,86,5
5,52,86,5
5,59,86,240
5,68,86,240
5,64,87,240
5,52,87,152
5,59,87,240
5,57,84,0
5,59,87,480
5,61,76,5
5,57,79,240
5,69,87,240
5,61,79,210
5,57,78,237
5,59,86,55
5,61,87,480
5,59,80,5
5,59,78,5
5,66,87,240
