track,note,velocity,time
0,43,45,288
0,55,40,0
0,33,125,0
0,43,62,0
0,43,125,0
0,42,52,0
0,35,127,0
0,55,75,15
0,42,40,203
0,54,35,0
0,56,35,0
0,55,125,0
0,60,125,0
0,72,75,118
0,42,75,0
0,54,100,0
0,69,75,189
0,42,40,14
0,54,35,0
0,56,35,0
0,55,125,0
0,60,125,0
0,71,75,103
0,42,75,5
0,67,75,176
0,42,40,10
0,54,35,0
0,56,35,0
0,55,125,0
0,60,125,0
0,42,75,80
0,54,100,0
0,42,40,200
0,54,35,0
0,56,35,0
0,55,125,0
0,60,125,0
0,53,50,1
0,43,62,19
0,43,125,0
0,42,75,0
0,28,56,0
0,83,90,0
0,42,40,203
0,54,35,0
0,56,35,0
0,53,125,0
0,55,125,0
0,60,125,0
0,72,75,108
0,42,75,10
0,54,100,0
0,74,75,164
0,42,40,37
0,54,35,0
0,56,35,0
0,53,125,0
0,55,125,0
0,60,125,0
0,71,75,75
0,42,75,55
0,72,75,1
0,71,75,78
0,67,75,41
0,42,40,13
0,54,35,0
0,56,35,0
0,53,125,0
0,55,125,0
0,60,125,0
0,69,75,97
0,42,75,2
0,54,100,0
0,65,75,175
0,42,40,20
0,54,35,0
0,56,35,0
0,53,125,0
0,55,125,0
0,60,125,0
0,52,50,25
0,43,62,19
0,43,125,0
0,42,52,0
0,35,127,0
0,33,125,0
0,42,40,203
0,54,35,0
0,56,35,0
0,52,125,0
0,55,125,0
0,60,125,0
0,65,75,113
0,42,75,0
0,54,100,0
0,67,75,168
0,42,40,23
0,54,35,0
0,56,35,0
0,52,125,0
0,55,125,0
0,60,125,0
0,64,75,3
0,42,75,0
0,65,75,0
0,64,75,2
0,62,75,0
0,42,40,13
0,54,35,0
0,56,35,0
0,52,125,0
0,55,125,0
0,60,125,0
0,42,75,3
0,54,100,0
0,42,40,203
0,54,35,0
0,56,35,0
0,52,125,0
0,55,125,0
0,60,125,0
0,53,50,1
0,43,62,23
0,43,125,0
0,42,75,0
0,28,56,0
0,83,90,0
0,42,40,203
0,54,35,0
0,56,35,0
0,53,125,0
0,55,125,0
0,60,125,0
0,62,75,84
0,42,75,20
0,54,100,0
0,64,75,173
0,42,40,4
0,54,35,0
0,56,35,0
0,53,125,0
0,55,125,0
0,60,125,0
0,65,75,98
0,42,75,18
0,64,75,90
0,42,40,18
0,54,35,0
0,56,35,0
0,53,125,0
0,55,125,0
0,60,125,0
0,65,75,80
0,42,75,7
0,54,100,0
0,67,75,159
0,42,40,7
0,54,35,0
0,56,35,0
0,53,125,0
0,55,125,0
0,60,125,0
0,55,40,56
0,33,125,2
0,43,62,0
0,43,125,0
0,42,52,0
0,35,127,0
0,55,75,2
0,42,40,2
0,54,35,0
0,56,35,0
0,55,125,0
0,60,125,0
0,72,75,0
0,42,75,0
0,54,100,0
0,69,75,189
0,42,40,14
0,54,35,0
0,56,35,0
0,55,125,0
0,60,125,0
0,59,50,1
0,71,75,103
0,42,75,5
0,67,75,80
0,42,40,10
0,54,35,0
0,56,35,0
0,55,125,0
0,60,125,0
0,42,75,0
0,54,100,0
0,42,40,203
0,54,35,0
0,56,35,0
0,55,125,0
0,60,125,0
0,53,50,74
0,43,62,13
0,43,125,0
0,42,75,0
0,28,56,0
0,83,90,0
0,60,56,188
0,42,40,15
0,54,35,0
0,56,35,0
0,53,125,0
0,55,125,0
0,60,125,0
0,72,75,108
0,42,75,10
0,54,100,0
0,74,75,4
0,42,40,3
0,54,35,0
0,56,35,0
0,53,125,0
0,55,125,0
0,60,125,0
0,71,75,0
0,42,75,3
0,72,75,1
0,71,75,78
0,67,75,41
0,42,40,13
0,54,35,0
0,56,35,0
0,53,125,0
0,55,125,0
0,60,125,0
0,69,75,97
0,42,75,3
0,54,100,0
0,65,75,175
0,42,40,20
0,54,35,0
0,56,35,0
0,53,125,0
0,55,125,0
0,60,125,0
0,52,50,35
0,43,62,19
0,43,125,0
0,42,52,0
0,35,127,0
0,33,125,0
0,52,65,5
0,42,40,198
0,54,35,0
0,56,35,0
0,52,125,0
0,55,125,0
0,60,125,0
0,65,75,74
0,42,75,0
0,54,100,0
0,67,75,168
0,42,40,23
0,54,35,0
0,56,35,0
0,52,125,0
0,55,125,0
0,60,125,0
0,64,75,85
0,42,75,35
0,65,75,30
0,64,75,57
0,62,75,0
0,42,40,2
0,54,35,0
0,56,35,0
0,52,125,0
0,55,125,0
0,60,125,0
0,42,75,0
0,54,100,0
0,42,40,203
0,54,35,0
0,56,35,0
0,52,125,0
0,55,125,0
0,60,125,0
0,53,50,72
0,43,62,24
0,43,125,0
0,42,75,0
0,28,56,0
0,83,90,0
0,42,40,203
0,54,35,0
0,56,35,0
0,53,125,0
0,55,125,0
0,60,125,0
0,62,75,93
0,42,75,20
0,54,100,0
0,64,75,173
0,42,40,4
0,54,35,0
0,56,35,0
0,53,125,0
0,55,125,0
0,60,125,0
0,65,75,0
0,42,75,0
0,64,75,2
0,42,40,0
0,54,35,0
0,56,35,0
0,53,125,0
0,55,125,0
0,60,125,0
0,65,75,80
0,42,75,4
0,54,100,0
0,67,75,174
0,42,40,7
0,54,35,0
0,56,35,0
0,53,125,0
0,55,125,0
0,60,125,0
0,43,62,13
0,43,125,0
0,42,52,0
0,35,127,0
0,33,125,0
0,43,45,0
0,55,40,0
0,55,75,9
0,67,105,0
0,42,40,0
0,54,35,0
0,56,35,0
0,55,125,0
0,60,125,0
0,67,105,0
0,42,75,0
0,54,100,0
0,67,105,0
0,42,40,0
0,54,35,0
0,56,35,0
0,55,125,0
0,60,125,0
0,67,105,0
0,42,75,0
0,55,105,0
0,42,40,0
0,54,35,0
0,56,35,0
0,55,125,0
0,60,125,0
0,67,105,0
0,42,75,0
0,54,100,0
0,67,105,0
0,67,105,0
0,42,40,0
0,54,35,0
0,56,35,0
0,55,125,0
0,60,125,0
0,53,50,1
0,43,62,23
0,43,125,0
0,42,75,0
0,28,56,0
0,83,90,0
0,65,105,0
0,42,40,0
0,54,35,0
0,56,35,0
0,53,125,0
0,55,125,0
0,60,125,0
0,65,105,0
0,42,75,0
0,54,100,0
0,65,105,0
0,42,40,0
0,54,35,0
0,56,35,0
0,53,125,0
0,55,125,0
0,60,125,0
0,65,105,0
0,42,75,0
0,64,105,0
0,42,40,0
0,54,35,0
0,56,35,0
0,53,125,0
0,55,125,0
0,60,125,0
0,62,105,0
0,42,75,0
0,54,100,0
0,64,105,0
0,42,40,0
0,54,35,0
0,56,35,0
0,53,125,0
0,55,125,0
0,60,125,0
0,52,50,25
0,43,62,24
0,43,125,0
0,42,52,0
0,35,127,0
0,33,125,0
0,64,105,0
0,42,40,0
0,54,35,0
0,56,35,0
0,52,125,0
0,55,125,0
0,60,125,0
0,64,105,0
0,42,75,0
0,54,100,0
0,64,105,0
0,42,40,0
0,54,35,0
0,56,35,0
0,52,125,0
0,55,125,0
0,60,125,0
0,65,105,0
0,42,75,0
0,64,105,0
0,42,40,0
0,54,35,0
0,56,35,0
0,52,125,0
0,55,125,0
0,60,125,0
0,65,105,0
0,42,75,0
0,54,100,0
0,64,105,0
0,42,40,0
0,54,35,0
0,56,35,0
0,52,125,0
0,55,125,0
0,60,125,0
0,53,50,1
0,43,62,0
0,65,105,0
0,43,125,0
0,42,75,0
0,28,56,0
0,83,90,0
0,55,105,0
0,42,40,0
0,54,35,0
0,56,35,0
0,53,125,0
0,55,125,0
0,60,125,0
0,62,105,0
0,42,75,0
0,54,100,0
0,64,105,0
0,42,40,0
0,54,35,0
0,56,35,0
0,53,125,0
0,55,125,0
0,60,125,0
0,65,105,0
0,42,75,0
0,65,105,0
0,42,40,0
0,54,35,0
0,56,35,0
0,53,125,0
0,55,125,0
0,60,125,0
0,67,105,0
0,42,75,0
0,54,100,0
0,67,105,0
0,42,40,0
0,54,35,0
0,56,35,0
0,53,125,0
0,55,125,0
0,60,125,0
0,55,40,2
0,43,62,19
0,43,125,0
0,42,75,0
0,35,127,0
0,33,125,0
0,55,75,9
0,42,40,203
0,54,35,0
0,56,35,0
0,55,125,0
0,60,125,0
0,72,75,118
0,42,75,0
0,54,100,0
0,69,75,189
0,42,40,14
0,54,35,0
0,56,35,0
0,55,125,0
0,60,125,0
0,71,75,103
0,42,75,5
0,72,70,66
0,71,70,8
0,67,75,17
0,42,40,27
0,54,35,0
0,56,35,0
0,55,125,0
0,60,125,0
0,42,75,3
0,54,100,0
0,42,40,203
0,54,35,0
0,56,35,0
0,55,125,0
0,60,125,0
0,53,50,74
0,43,62,13
0,43,125,0
0,42,75,0
0,28,56,0
0,83,90,0
0,42,40,203
0,54,35,0
0,56,35,0
0,53,125,0
0,55,125,0
0,60,125,0
0,72,75,108
0,42,75,10
0,54,100,0
0,74,75,164
0,42,40,37
0,54,35,0
0,56,35,0
0,53,125,0
0,55,125,0
0,60,125,0
0,71,75,75
0,42,75,55
0,72,75,1
0,71,75,78
0,67,75,41
0,42,40,13
0,54,35,0
0,56,35,0
0,53,125,0
0,55,125,0
0,60,125,0
0,69,75,97
0,42,75,3
0,54,100,0
0,65,75,175
0,42,40,20
0,54,35,0
0,56,35,0
0,53,125,0
0,55,125,0
0,60,125,0
0,52,50,35
0,43,62,24
0,43,125,0
0,42,75,0
0,35,127,0
0,33,125,0
0,42,40,203
0,54,35,0
0,56,35,0
0,52,125,0
0,55,125,0
0,60,125,0
0,65,75,113
0,42,75,0
0,54,100,0
0,67,75,168
0,42,40,23
0,54,35,0
0,56,35,0
0,52,125,0
0,55,125,0
0,60,125,0
0,64,75,85
0,42,75,35
0,65,75,30
0,64,75,57
0,62,75,0
0,42,40,13
0,54,35,0
0,56,35,0
0,52,125,0
0,55,125,0
0,60,125,0
0,42,75,149
0,54,100,0
0,42,40,194
0,54,35,0
0,56,35,0
0,52,125,0
0,55,125,0
0,60,125,0
0,53,50,72
0,43,62,24
0,43,125,0
0,42,75,0
0,28,56,0
0,83,90,0
0,42,40,203
0,54,35,0
0,56,35,0
0,53,125,0
0,55,125,0
0,60,125,0
0,62,75,93
0,42,75,20
0,54,100,0
0,64,75,4
0,42,40,4
0,54,35,0
0,56,35,0
0,53,125,0
0,55,125,0
0,60,125,0
0,65,75,4
0,42,75,4
0,64,75,46
0,42,40,18
0,54,35,0
0,56,35,0
0,53,125,0
0,55,125,0
0,60,125,0
0,65,75,80
0,42,75,7
0,54,100,0
0,67,75,174
0,42,40,7
0,54,35,0
0,56,35,0
0,53,125,0
0,55,125,0
0,60,125,0
0,43,62,12
0,43,125,0
0,42,52,0
0,35,127,0
0,33,125,0
0,43,45,0
0,55,40,0
0,55,75,9
0,67,105,0
0,42,40,0
0,54,35,0
0,56,35,0
0,55,125,0
0,60,125,0
0,67,105,0
0,42,75,0
0,54,100,0
0,67,105,0
0,67,105,0
0,42,40,0
0,54,35,0
0,56,35,0
0,55,125,0
0,60,125,0
0,42,75,128
0,55,105,0
0,42,40,0
0,54,35,0
0,56,35,0
0,55,125,0
0,60,125,0
0,67,105,0
0,42,75,0
0,54,100,0
0,67,105,0
0,67,105,0
0,42,40,0
0,54,35,0
0,56,35,0
0,55,125,0
0,60,125,0
0,41,55,65
0,41,62,0
0,55,105,0
0,41,125,0
0,42,75,0
0,28,56,0
0,83,90,0
0,42,40,59
0,54,35,0
0,56,35,0
0,53,125,0
0,55,125,0
0,60,125,0
0,65,105,0
0,42,75,0
0,54,100,0
0,65,105,0
0,42,40,0
0,54,35,0
0,56,35,0
0,53,125,0
0,55,125,0
0,60,125,0
0,65,105,0
0,42,75,0
0,64,105,0
0,42,40,0
0,54,35,0
0,56,35,0
0,53,125,0
0,55,125,0
0,60,125,0
0,62,105,0
0,42,75,0
0,54,100,0
0,64,105,0
0,42,40,0
0,54,35,0
0,56,35,0
0,53,125,0
0,55,125,0
0,60,125,0
0,40,55,1
0,40,62,24
0,40,125,0
0,42,52,0
0,35,127,0
0,33,125,0
0,55,105,0
0,42,40,0
0,54,35,0
0,56,35,0
0,52,125,0
0,55,125,0
0,60,125,0
0,64,105,0
0,42,75,0
0,54,100,0
0,64,105,0
0,64,105,0
0,42,40,0
0,54,35,0
0,56,35,0
0,52,125,0
0,55,125,0
0,60,125,0
0,42,75,37
0,55,105,0
0,42,40,0
0,54,35,0
0,56,35,0
0,52,125,0
0,55,125,0
0,60,125,0
0,60,105,0
0,42,75,0
0,54,100,0
0,64,105,0
0,42,40,0
0,54,35,0
0,56,35,0
0,52,125,0
0,55,125,0
0,60,125,0
0,38,55,56
0,38,62,0
0,64,105,0
0,38,125,0
0,42,75,0
0,28,56,0
0,83,90,0
0,62,105,0
0,42,40,0
0,54,35,0
0,56,35,0
0,55,125,0
0,60,125,0
0,65,125,0
0,42,75,87
0,54,100,0
0,60,105,0
0,42,40,0
0,54,35,0
0,56,35,0
0,55,125,0
0,60,125,0
0,65,125,0
0,43,45,40
0,43,62,0
0,64,105,0
0,43,125,0
0,42,75,0
0,42,40,203
0,54,35,0
0,56,35,0
0,55,125,0
0,59,125,0
0,65,125,0
0,62,105,0
0,42,75,0
0,54,100,0
0,60,105,0
0,42,40,0
0,54,35,0
0,56,35,0
0,55,125,0
0,59,125,0
0,65,125,0
0,36,62,0
0,36,125,0
0,42,52,0
0,35,127,0
0,55,65,0
0,33,125,0
0,55,45,0
0,52,45,1
0,36,55,1
0,60,105,0
0,42,40,0
0,54,35,0
0,56,35,0
0,55,125,0
0,60,125,0
0,64,125,0
0,60,105,0
0,42,75,0
0,54,100,0
0,60,105,0
0,42,40,0
0,54,35,0
0,56,35,0
0,55,125,0
0,60,125,0
0,64,125,0
0,60,105,0
0,42,75,0
0,64,55,0
0,55,105,0
0,42,40,0
0,54,35,0
0,56,35,0
0,55,125,0
0,60,125,0
0,64,125,0
0,60,105,0
0,42,75,0
0,54,100,0
0,62,105,0
0,42,40,0
0,54,35,0
0,56,35,0
0,55,125,0
0,60,125,0
0,64,125,0
0,38,55,78
0,53,45,5
0,57,45,6
0,38,62,5
0,38,125,0
0,42,75,0
0,28,56,0
0,83,90,0
0,57,65,0
0,42,40,203
0,54,35,0
0,56,35,0
0,53,125,0
0,57,125,0
0,60,125,0
0,64,125,0
0,62,105,0
0,42,75,0
0,54,100,0
0,60,105,0
0,42,40,0
0,54,35,0
0,56,35,0
0,53,125,0
0,57,125,0
0,60,125,0
0,64,125,0
0,55,45,34
0,59,45,0
0,43,45,16
0,43,62,0
0,64,105,0
0,43,125,0
0,42,75,0
0,59,65,0
0,62,55,0
0,42,40,187
0,54,35,0
0,56,35,0
0,55,125,0
0,59,125,0
0,62,125,0
0,62,105,0
0,42,75,0
0,54,100,0
0,60,105,0
0,42,40,0
0,54,35,0
0,56,35,0
0,55,125,0
0,59,125,0
0,62,125,0
0,55,45,30
0,52,45,5
0,36,55,2
0,36,62,0
0,36,125,0
0,42,52,0
0,35,127,0
0,52,55,0
0,55,65,0
0,33,125,0
0,42,40,203
0,54,35,0
0,56,35,0
0,55,125,0
0,60,125,0
0,64,125,0
0,60,105,0
0,42,75,0
0,54,100,0
0,60,105,0
0,42,40,0
0,54,35,0
0,56,35,0
0,55,125,0
0,60,125,0
0,64,125,0
0,60,105,0
0,42,75,0
0,64,55,0
0,55,105,0
0,42,40,0
0,54,35,0
0,56,35,0
0,55,125,0
0,60,125,0
0,64,125,0
0,60,105,0
0,42,75,0
0,54,100,0
0,62,105,0
0,42,40,0
0,54,35,0
0,56,35,0
0,55,125,0
0,60,125,0
0,64,125,0
0,38,55,54
0,53,45,9
0,57,45,4
0,38,62,0
0,38,125,0
0,42,75,0
0,28,56,0
0,83,90,0
0,53,55,0
0,57,65,0
0,42,40,190
0,54,35,0
0,56,35,0
0,53,125,0
0,57,125,0
0,60,125,0
0,64,125,0
0,62,105,0
0,42,75,0
0,54,100,0
0,60,105,0
0,42,40,0
0,54,35,0
0,56,35,0
0,53,125,0
0,57,125,0
0,60,125,0
0,64,125,0
0,43,45,44
0,55,45,0
