track,note,velocity,time
0,60,63,2
0,55,62,0
0,64,69,0
0,59,65,0
0,55,92,2
0,60,101,0
0,59,96,0
0,64,96,0
0,64,69,2
0,60,65,0
0,59,71,3
0,67,72,0
0,60,103,0
0,59,100,2
0,67,98,0
0,64,93,0
0,59,73,2
0,60,67,0
0,64,71,3
0,55,69,0
0,59,104,0
0,55,99,2
0,64,101,0
0,60,106,0
0,64,51,80
0,60,47,0
0,59,58,3
0,55,48,0
0,64,81,0
0,55,63,2
0,59,87,0
0,60,67,0
0,60,59,2
0,62,60,0
0,57,93,0
0,57,60,0
0,65,65,0
0,60,100,2
0,62,97,0
0,65,95,0
0,60,85,75
0,65,92,0
0,62,78,3
0,57,67,0
0,60,49,2
0,65,57,0
0,62,60,3
0,57,58,0
0,62,64,2
0,64,64,0
0,59,60,3
0,67,67,0
0,64,92,0
0,67,100,2
0,59,85,0
0,62,86,0
0,65,95,227
0,62,85,0
0,67,87,3
0,71,91,0
0,67,69,2
0,62,69,0
0,71,71,3
0,65,67,0
0,67,75,105
0,71,71,0
0,65,69,3
0,74,76,0
0,74,101,7
0,65,102,0
0,71,85,3
0,67,97,0
0,69,66,402
0,72,64,0
0,64,64,3
0,67,65,0
0,48,81,2
0,72,105,0
0,69,94,0
0,64,96,3
0,67,99,0
0,52,81,232
0,55,70,240
0,64,93,240
0,60,85,480
0,55,81,162
0,48,81,23
0,53,71,200
0,57,81,240
0,65,85,240
0,60,72,480
0,55,78,162
0,48,91,60
0,52,75,180
0,60,81,240
0,72,95,240
0,60,86,23
0,48,77,120
0,57,81,237
0,60,85,240
0,65,92,240
0,60,89,430
0,57,89,200
0,60,103,115
0,55,92,0
0,59,98,3
0,64,102,0
0,60,64,2
0,64,70,0
0,55,65,3
0,59,67,0
0,48,89,0
0,52,79,110
0,64,68,240
0,59,71,3
0,67,71,0
0,60,66,0
0,55,89,0
0,60,108,2
0,64,101,0
0,59,101,0
0,67,99,3
0,62,101,232
0,64,93,0
0,59,106,135
0,64,102,3
0,55,96,0
0,60,102,0
0,59,68,12
0,60,64,3
0,64,69,0
0,55,68,0
0,60,74,82
0,64,81,0
0,55,77,3
0,59,89,0
0,64,52,12
0,60,48,3
0,55,53,0
0,59,58,0
0,60,102,25
0,57,89,3
0,62,90,0
0,65,96,0
0,60,57,17
0,62,61,0
0,57,60,0
0,65,65,0
0,50,87,2
0,60,91,70
0,65,98,0
0,62,79,3
0,57,82,0
0,65,55,22
0,60,46,3
0,62,56,0
0,57,54,0
0,57,82,2
0,59,92,70
0,64,98,3
0,67,102,0
0,62,87,0
0,67,67,22
0,62,63,0
0,59,60,3
0,64,62,0
0,60,75,0
0,65,83,70
0,65,98,10
0,62,88,0
0,67,92,3
0,71,95,0
0,67,65,20
0,71,69,3
0,62,71,0
0,64,69,0
0,47,86,0
0,74,104,80
0,65,103,3
0,71,94,0
0,67,101,0
0,65,68,12
0,71,74,3
0,74,79,0
0,67,60,0
0,55,79,2
0,59,78,50
0,64,81,162
0,72,105,55
0,64,97,3
0,69,96,0
0,67,98,0
0,69,66,20
0,67,65,0
0,64,64,0
0,72,69,0
0,48,84,0
0,52,75,235
0,55,77,240
0,62,81,240
0,64,81,480
0,48,73,40
0,53,70,130
0,57,70,240
0,60,84,240
0,65,93,480
0,48,86,0
0,52,71,140
0,55,78,240
0,60,87,240
0,64,86,480
0,48,78,5
0,53,76,180
0,57,77,2
0,60,81,62
0,65,92,472
0,48,90,0
0,52,57,140
0,52,105,231
0,55,70,9
0,52,105,85
0,60,86,13
0,55,105,145
0,67,79,74
0,55,83,100
0,57,105,12
0,55,105,34
0,48,87,235
0,43,105,67
0,52,67,60
0,55,71,116
0,60,87,240
0,64,89,302
0,48,76,120
0,60,105,115
0,62,88,47
0,57,105,13
0,48,77,3
0,53,105,8
0,53,67,135
0,53,105,75
0,57,57,70
0,60,89,34
0,65,87,50
0,48,77,240
0,62,105,91
0,57,57,24
0,59,105,13
0,47,89,3
0,55,105,26
0,53,75,66
0,55,81,240
0,62,77,47
0,62,105,2
0,62,105,90
0,62,105,84
0,67,83,112
0,59,105,70
0,47,77,129
0,57,105,7
0,62,79,5
0,55,105,84
0,40,87,62
0,55,105,28
0,47,70,107
0,55,62,37
0,62,97,240
0,62,105,10
0,62,105,82
0,62,105,64
0,52,76,145
0,60,105,29
0,59,105,78
0,55,75,22
0,60,105,144
0,62,81,6
0,50,84,0
0,53,55,2
0,57,80,142
0,53,105,222
0,60,85,18
0,53,105,20
0,53,105,82
0,50,90,63
0,53,105,1
0,65,88,2
0,55,105,10
0,60,70,146
0,52,105,21
0,48,78,61
0,52,68,210
0,55,105,83
0,55,70,150
0,59,82,240
0,64,84,480
0,48,73,2
0,55,73,162
0,48,70,3
0,53,66,62
0,57,70,60
0,52,105,201
0,60,81,39
0,52,105,82
0,53,105,46
0,65,83,173
0,53,105,64
0,48,71,2
0,60,75,1
0,57,105,5
0,60,64,5
0,64,70,0
0,55,65,3
0,59,67,0
0,48,89,0
0,60,103,2
0,55,94,0
0,59,100,0
0,64,102,3
0,55,105,5
0,52,79,115
0,64,68,240
0,59,71,3
0,67,71,0
0,60,66,0
0,55,89,2
0,59,100,0
0,60,103,0
0,64,100,0
0,67,101,3
0,62,101,232
0,64,93,5
0,64,102,127
0,59,106,0
0,55,103,0
0,60,106,0
0,59,68,2
0,60,64,0
0,64,69,0
0,55,68,0
0,64,81,90
0,60,84,0
0,55,78,3
0,59,85,0
0,64,52,7
0,60,48,3
0,55,53,0
0,59,58,0
0,57,90,30
0,60,98,0
0,62,97,0
0,65,93,0
0,60,57,2
0,62,61,0
0,57,60,0
0,65,65,0
0,50,87,2
0,60,91,85
0,57,80,0
0,65,94,3
0,62,76,0
0,65,55,12
0,60,46,0
0,62,56,3
0,57,54,0
0,57,82,0
0,67,67,2
0,62,63,0
0,59,60,0
0,64,62,0
0,60,75,2
0,59,93,0
0,64,98,0
0,67,103,0
0,62,88,0
0,65,83,80
0,65,101,10
0,62,90,0
0,67,92,3
0,71,100,0
0,67,65,7
0,71,69,3
0,62,71,0
0,64,69,0
0,47,86,2
0,65,68,97
0,71,74,3
0,74,79,0
0,67,60,0
0,55,79,2
0,74,100,0
0,65,95,0
0,71,87,0
0,67,95,3
0,59,78,2
0,64,81,162
0,64,93,57
0,69,90,0
0,72,102,3
0,67,95,0
0,69,66,17
0,67,65,0
0,72,69,0
0,64,64,0
0,48,84,2
0,52,75,235
0,55,77,240
0,62,81,240
0,64,81,480
0,48,73,5
0,53,70,200
0,57,70,240
0,60,84,240
0,65,93,480
0,48,85,0
0,52,64,140
0,52,105,34
0,52,105,82
0,55,71,52
0,52,105,82
0,64,89,54
0,52,105,43
0,50,105,18
0,60,68,178
0,48,105,19
0,48,105,71
0,67,82,2
0,60,78,24
0,48,105,58
0,48,78,62
0,52,70,63
0,55,64,200
0,55,105,204
0,59,75,36
0,55,105,84
0,55,105,95
0,64,87,199
0,52,105,24
0,48,75,0
0,50,105,16
0,59,76,162
0,48,105,12
0,48,73,37
0,53,60,2
0,57,47,2
0,60,82,222
0,48,105,225
0,48,105,84
0,65,86,60
0,45,105,65
0,48,75,2
0,45,105,19
0,43,105,118
0,60,75,31
0,47,82,40
0,55,70,71
0,62,67,240
0,55,105,206
0,67,83,34
0,62,105,176
0,62,105,87
0,53,69,10
0,62,105,54
0,55,81,10
0,59,105,1
0,55,105,24
0,62,75,11
0,40,77,62
0,47,70,33
0,55,70,240
0,62,105,201
0,62,91,39
0,62,105,87
0,62,105,79
0,59,83,207
0,60,105,1
0,59,105,130
0,60,105,38
0,55,81,29
0,50,86,3
0,53,68,127
0,57,79,17
0,53,105,62
0,60,81,8
0,53,105,74
0,47,74,20
0,53,105,21
0,57,70,196
0,55,73,27
0,55,105,111
0,64,49,34
0,48,75,20
0,52,105,3
0,55,64,160
0,55,105,113
0,52,62,106
0,62,80,240
0,64,75,480
0,67,66,17
0,55,83,80
0,50,81,2
0,53,71,60
0,57,73,2
0,60,82,62
0,47,81,3
0,53,72,160
0,55,74,27
0,62,81,2
0,48,80,2
0,36,113,0
0,36,91,0
0,51,99,2
0,67,104,2
0,62,96,0
0,48,109,0
0,64,97,0
0,52,61,102
0,42,59,3
0,55,77,197
0,42,96,3
0,55,105,21
0,64,105,0
0,64,84,52
0,42,65,3
0,36,108,0
0,62,102,0
0,64,105,79
0,37,116,23
0,42,94,3
0,64,105,19
0,60,70,178
0,42,64,3
0,55,85,0
0,62,105,4
0,42,80,15
0,67,75,0
0,62,105,1
0,60,75,1
0,60,105,28
0,62,82,6
0,42,60,3
0,36,95,0
0,60,105,20
0,48,75,70
0,43,91,3
0,36,120,0
0,42,99,2
0,59,88,0
0,67,94,3
0,48,104,0
0,62,90,0
0,55,76,198
0,42,59,0
0,52,73,105
0,42,85,3
0,67,105,49
0,59,82,5
0,59,83,5
0,42,73,3
0,36,108,0
0,67,105,27
0,67,105,100
0,64,61,20
0,42,103,3
0,37,113,0
0,48,93,12
0,65,105,38
0,62,86,22
0,42,61,0
0,55,60,4
0,64,105,117
0,59,77,27
0,42,96,3
0,59,82,7
0,62,105,2
0,55,66,62
0,42,59,3
0,60,105,5
0,48,71,5
0,48,84,3
0,36,108,0
0,42,96,2
0,65,95,0
0,60,98,0
0,67,50,0
0,48,98,3
0,53,67,3
0,42,56,0
0,57,59,197
0,42,91,3
0,60,105,13
0,57,82,37
0,60,81,5
0,42,59,3
0,36,104,0
0,60,105,72
0,42,100,44
0,37,116,0
0,60,105,13
0,60,80,179
0,65,86,5
0,42,61,3
0,60,105,23
0,60,85,32
0,42,100,3
0,57,105,12
0,57,83,25
0,42,61,3
0,36,92,0
0,57,105,4
0,55,105,0
0,59,96,11
0,67,98,0
0,62,93,3
0,43,94,0
0,43,87,3
0,43,82,0
0,42,99,2
0,36,113,0
0,55,62,25
0,42,52,3
0,53,64,197
0,42,99,0
0,55,105,9
0,59,100,27
0,67,90,0
0,62,81,3
0,62,79,12
0,42,58,3
0,36,108,0
0,55,105,35
0,37,113,56
0,42,100,3
0,62,105,5
0,55,79,5
0,67,83,40
0,42,61,3
0,59,81,12
0,62,105,9
0,62,105,13
0,47,57,24
0,41,87,3
0,42,94,0
0,53,79,0
0,62,69,3
0,59,105,0
0,62,71,2
0,46,99,0
0,55,105,4
0,52,96,2
0,59,92,0
0,67,89,0
0,40,75,2
0,40,82,0
0,42,85,2
0,36,110,0
0,55,82,60
0,42,53,3
0,50,67,197
0,42,100,3
0,64,84,6
0,42,54,3
0,36,103,0
0,62,89,2
0,67,82,0
0,62,105,0
0,62,105,87
0,42,103,0
0,37,111,0
0,40,84,2
0,62,105,52
0,59,76,17
0,42,53,3
0,52,86,2
0,60,105,50
0,59,80,32
0,62,68,10
0,42,96,3
0,59,105,2
0,55,67,40
0,64,65,0
0,42,57,3
0,36,80,0
0,60,105,6
0,50,81,20
0,43,76,3
0,36,111,0
0,42,99,2
0,67,81,0
0,65,102,3
0,60,105,0
0,50,93,0
0,57,82,100
0,42,45,3
0,53,68,47
0,42,99,3
0,65,102,21
0,60,105,0
0,67,93,3
0,60,87,7
0,42,55,3
0,36,111,0
0,53,105,19
0,53,105,87
0,31,78,0
0,42,100,0
0,37,109,0
0,43,93,20
0,53,105,92
0,65,88,102
0,42,56,3
0,60,73,57
0,42,99,3
0,57,78,8
0,42,58,3
0,55,105,14
0,48,81,20
0,36,83,0
0,42,99,2
0,36,115,0
0,60,96,3
0,64,93,0
0,48,101,0
0,52,105,8
0,55,81,177
0,42,58,3
0,55,105,22
0,52,52,175
0,62,72,3
0,42,99,0
0,55,92,15
0,62,98,0
0,67,86,5
0,42,57,3
0,36,108,0
0,37,111,197
0,42,100,3
0,62,90,22
0,55,97,3
0,42,55,0
0,67,91,2
0,55,67,47
0,42,96,3
0,62,61,85
0,55,81,15
0,42,58,3
0,36,95,0
0,50,82,10
0,38,90,3
0,36,110,0
0,42,99,2
0,50,95,5
0,53,59,160
0,42,47,3
0,57,81,7
0,57,81,47
0,42,99,3
0,60,80,2
0,60,81,15
0,42,49,3
0,36,106,0
0,60,111,2
0,65,107,0
0,57,103,0
0,43,104,0
0,69,81,197
0,43,84,3
0,42,99,0
0,37,109,0
0,67,78,5
0,42,63,3
0,57,79,2
0,65,87,40
0,31,70,3
0,46,99,0
0,60,91,2
0,48,81,102
0,64,71,3
0,36,91,0
0,60,98,2
0,42,85,0
0,36,117,0
0,55,84,3
0,62,93,0
0,64,96,0
0,48,102,2
0,60,81,80
0,42,58,3
0,64,105,35
0,52,50,162
0,42,100,3
0,64,105,79
0,55,101,60
0,60,108,0
0,67,105,3
0,36,103,15
0,55,71,0
0,42,52,2
0,64,105,90
0,42,99,72
0,37,109,0
0,62,88,69
0,64,105,10
0,67,73,10
0,42,55,3
0,64,105,4
0,64,81,23
0,42,99,0
0,67,105,17
0,60,75,25
0,42,61,3
0,36,90,0
0,55,50,2
0,67,105,13
0,59,96,5
0,48,107,0
0,62,94,3
0,67,88,0
0,48,73,12
0,43,78,3
0,36,113,0
0,42,99,2
0,55,76,23
0,42,56,0
0,67,105,11
0,59,79,186
0,42,100,3
0,55,84,5
0,69,105,40
0,60,90,65
0,42,55,3
0,36,108,0
0,59,84,15
0,67,105,36
0,31,78,0
0,42,103,0
0,37,109,0
0,62,82,100
0,65,105,23
0,67,88,2
0,42,54,3
0,64,105,2
0,55,71,0
0,42,93,28
0,62,105,4
0,64,73,2
0,42,42,0
0,60,105,4
0,48,108,2
0,65,103,0
0,60,104,0
0,67,92,0
0,48,83,2
0,36,113,0
0,36,86,0
0,42,94,2
0,57,75,100
0,42,57,3
0,57,105,8
0,53,67,180
0,42,96,3
0,57,105,58
0,57,88,6
0,60,83,20
0,42,54,3
0,36,117,0
0,57,105,0
0,57,105,69
0,60,75,3
0,48,77,15
0,42,96,3
0,37,116,0
0,65,97,140
0,65,87,20
0,42,59,3
0,57,105,36
0,57,50,52
0,67,50,0
0,57,105,6
0,48,75,4
0,42,93,3
0,60,76,67
0,60,81,15
0,42,57,3
0,36,81,0
0,55,105,10
0,43,104,16
0,59,92,3
0,67,98,0
0,62,93,0
0,43,87,3
0,50,83,0
0,42,99,2
0,36,124,0
0,55,77,40
0,42,60,3
0,53,60,197
0,42,96,3
0,55,105,22
0,59,107,3
0,62,103,0
0,67,105,3
0,62,83,12
0,42,47,3
0,36,110,0
0,55,105,23
0,55,80,50
0,38,83,5
0,42,94,0
0,37,113,0
0,62,105,12
0,59,50,3
0,67,87,12
0,42,48,3
0,62,105,9
0,62,105,8
0,69,99,7
0,59,100,3
0,53,103,0
0,47,75,12
0,39,66,3
0,42,91,0
0,59,105,54
0,62,68,10
0,46,93,3
0,55,105,7
0,59,87,15
0,52,88,3
0,67,93,0
0,62,97,0
0,40,89,2
0,40,84,0
0,42,87,2
0,36,117,0
0,55,84,100
0,42,54,3
0,52,62,197
0,42,99,3
0,62,105,6
0,59,89,30
0,42,59,3
0,36,117,0
0,67,77,0
0,62,94,0
0,62,105,77
0,40,75,5
0,40,93,3
0,42,99,0
0,37,111,0
0,62,105,47
0,67,85,10
0,42,54,0
0,52,94,2
0,60,105,55
0,62,75,72
0,39,81,3
0,42,96,0
0,59,90,2
0,59,105,24
0,59,85,62
0,42,54,3
0,36,85,0
0,60,105,11
0,50,86,43
0,38,78,3
0,36,115,0
0,42,96,2
0,65,105,0
0,60,107,0
0,67,92,3
0,57,81,195
0,42,60,3
0,53,62,77
0,42,100,3
0,50,50,17
0,53,105,23
0,65,105,0
0,60,105,0
0,67,96,3
0,60,88,7
0,36,104,3
0,42,59,0
0,53,105,13
0,43,79,25
0,31,78,10
0,42,99,3
0,37,111,0
0,53,105,53
0,65,71,107
0,42,51,3
0,57,56,9
0,53,105,25
0,64,73,40
0,42,103,3
0,55,105,92
0,62,86,3
0,42,55,3
0,48,68,40
0,64,81,3
0,36,91,0
0,36,111,0
