track,note,velocity,time
0,82,45,225
0,61,14,70
0,69,43,0
0,61,31,70
0,70,57,0
0,81,47,0
0,61,86,70
0,70,44,0
0,80,39,70
0,82,44,0
0,63,43,4
0,69,54,0
0,61,19,59
0,70,61,0
0,81,44,0
0,61,93,70
0,70,55,0
0,80,32,70
0,67,105,120
0,82,45,323
0,61,14,70
0,69,43,0
0,61,30,70
0,70,56,0
0,81,47,0
0,61,87,70
0,70,45,0
0,80,39,3
0,82,45,0
0,63,42,70
0,69,55,0
0,61,18,70
0,70,60,0
0,81,45,0
0,61,92,70
0,70,54,0
0,80,33,70
0,67,104,3
0,55,91,0
0,59,90,0
0,62,91,0
0,55,77,0
0,82,50,0
0,31,101,0
0,50,100,0
0,55,101,0
0,59,101,0
0,57,123,0
0,59,116,0
0,62,117,0
0,67,117,0
0,31,101,0
0,67,66,0
0,61,14,2
0,69,42,0
0,61,31,47
0,70,65,0
0,81,46,0
0,62,110,40
0,61,79,0
0,70,45,0
0,80,38,44
0,82,51,0
0,63,43,40
0,69,55,0
0,67,111,70
0,61,18,0
0,70,66,0
0,81,45,0
0,62,71,34
0,70,54,0
0,80,33,70
0,82,50,0
0,85,51,0
0,62,42,40
0,69,42,0
0,67,111,70
0,62,49,0
0,70,67,0
0,81,46,0
0,61,80,40
0,70,45,0
0,85,94,0
0,60,113,5
0,80,38,0
0,82,50,0
0,62,110,40
0,69,54,0
0,61,101,50
0,70,66,0
0,81,44,0
0,85,91,0
0,70,54,40
0,62,100,65
0,53,101,1
0,57,100,0
0,53,91,2
0,57,90,0
0,62,91,0
0,65,111,0
0,82,51,1
0,61,14,38
0,69,43,0
0,61,31,1
0,70,65,0
0,81,47,0
0,62,110,0
0,61,78,1
0,70,44,0
0,80,38,1
0,82,51,0
0,55,70,0
0,62,43,1
0,69,55,0
0,65,111,55
0,61,18,1
0,70,67,0
0,81,45,0
0,63,71,1
0,70,55,0
0,80,33,1
0,82,50,0
0,85,51,0
0,62,111,40
0,62,42,1
0,69,42,0
0,62,49,1
0,70,66,0
0,81,46,0
0,55,70,40
0,61,81,1
0,70,45,0
0,85,94,0
0,65,110,4
0,60,112,1
0,80,39,0
0,82,50,0
0,69,54,1
0,55,71,69
0,61,100,1
0,70,66,0
0,81,44,0
0,85,91,0
0,64,111,40
0,70,54,1
0,60,100,26
0,52,101,1
0,55,101,0
0,55,90,1
0,60,90,0
0,64,91,0
0,60,116,0
0,62,117,0
0,67,116,0
0,82,51,2
0,55,70,40
0,61,14,2
0,69,43,0
0,78,73,30
0,60,110,23
0,61,31,2
0,70,65,0
0,81,47,0
0,61,79,42
0,70,45,0
0,80,38,2
0,82,51,0
0,64,111,40
0,63,42,2
0,69,55,0
0,61,18,2
0,70,66,0
0,81,45,0
0,55,70,30
0,62,70,2
0,70,54,0
0,60,111,53
0,80,32,2
0,82,50,0
0,85,50,0
0,62,42,42
0,69,42,0
0,62,49,2
0,70,67,0
0,81,46,0
0,64,111,28
0,61,81,2
0,70,45,0
0,85,94,0
0,60,113,2
0,80,39,0
0,82,50,0
0,55,70,3
0,69,54,2
0,60,111,32
0,61,100,2
0,70,66,0
0,81,44,0
0,85,91,0
0,70,54,37
0,51,100,39
0,55,100,0
0,60,101,0
0,31,101,1
0,55,91,1
0,60,90,0
0,63,90,0
0,82,51,3
0,63,110,40
0,61,14,3
0,69,43,0
0,61,30,3
0,70,65,0
0,81,47,0
0,55,70,0
0,61,79,3
0,70,44,0
0,27,90,30
0,60,111,0
0,80,39,3
0,82,50,0
0,62,43,3
0,69,54,0
0,55,71,67
0,61,19,3
0,70,67,0
0,81,44,0
0,63,110,40
0,63,71,3
0,70,55,0
0,80,32,3
0,82,51,0
0,85,51,0
0,55,70,40
0,62,42,3
0,69,43,0
0,60,111,53
0,62,48,3
0,70,66,0
0,81,47,0
0,61,80,43
0,70,45,0
0,85,94,0
0,55,71,4
0,60,113,2
0,80,38,0
0,82,51,0
0,63,110,53
0,69,55,3
0,43,64,44
0,61,100,3
0,70,66,0
0,81,45,0
0,85,90,0
0,55,115,12
0,55,70,0
0,66,111,0
0,70,54,3
0,59,90,2
0,54,95,3
0,50,100,4
0,31,103,5
0,54,91,0
0,59,91,0
0,62,90,0
0,64,122,0
0,66,117,0
0,69,117,0
0,31,101,0
0,67,67,0
0,55,76,1
0,82,50,4
0,61,14,7
0,69,42,0
0,61,31,5
0,70,65,0
0,81,46,0
0,62,111,1
0,61,79,4
0,70,45,0
0,80,39,5
0,82,51,0
0,63,42,5
0,69,55,0
0,67,111,1
0,61,18,4
0,70,66,0
0,81,45,0
0,62,71,5
0,70,54,0
0,80,32,5
0,82,50,0
0,85,51,0
0,62,43,5
0,69,42,0
0,67,110,1
0,60,123,1
0,62,48,3
0,70,67,0
0,81,46,0
0,61,80,5
0,70,45,0
0,85,95,0
0,60,112,2
0,80,39,0
0,82,50,0
0,59,113,5
0,62,111,1
0,69,54,4
0,61,101,5
0,70,66,0
0,81,44,0
0,85,90,0
0,70,54,5
0,53,90,63
0,59,91,0
0,62,90,0
0,35,37,2
0,42,33,0
0,65,110,1
0,53,104,1
0,59,101,0
0,50,96,1
0,82,51,3
0,61,14,6
0,69,43,0
0,42,32,2
0,61,30,4
0,70,65,0
0,81,47,0
0,62,110,1
0,61,79,5
0,70,44,0
0,35,42,21
0,40,43,1
0,42,35,0
0,80,39,5
0,82,51,0
0,55,71,1
0,62,42,5
0,69,55,0
0,35,47,54
0,65,111,1
0,42,37,0
0,61,19,5
0,70,67,0
0,81,45,0
0,63,70,6
0,70,55,0
0,35,49,64
0,42,38,1
0,80,32,5
0,82,50,0
0,85,50,0
0,62,110,41
0,62,43,5
0,69,42,0
0,60,116,47
0,42,41,1
0,62,48,5
0,70,66,0
0,81,46,0
0,55,70,41
0,61,80,5
0,70,45,0
0,85,95,0
0,35,52,21
0,42,42,2
0,65,111,0
0,40,54,0
0,60,113,5
0,80,39,0
0,82,50,0
0,59,105,9
0,69,54,44
0,35,57,64
0,55,71,1
0,42,44,0
0,61,101,5
0,70,66,0
0,81,44,0
0,85,90,0
0,64,110,53
0,70,54,5
0,57,91,51
0,61,91,0
0,64,90,0
0,35,60,2
0,43,71,0
0,49,80,0
0,52,96,0
0,57,91,0
0,61,116,0
0,64,116,0
0,67,117,0
0,42,47,1
0,82,51,6
0,31,87,8
0,57,70,40
0,61,14,7
0,69,43,0
0,61,111,53
0,42,47,0
0,61,30,7
0,70,65,0
0,81,47,0
0,61,78,47
0,70,45,0
0,35,64,20
0,42,48,1
0,40,69,1
0,80,38,5
0,82,51,0
0,64,110,41
0,63,43,6
0,69,55,0
0,60,65,43
0,35,69,0
0,42,50,1
0,61,19,6
0,70,66,0
0,81,45,0
0,57,71,40
0,62,71,7
0,70,54,0
0,61,111,9
0,35,73,0
0,42,53,1
0,80,32,6
0,82,50,0
0,85,51,0
0,62,43,47
0,69,42,0
0,42,55,1
0,62,48,6
0,70,67,0
0,81,46,0
0,64,110,41
0,61,81,6
0,70,45,0
0,85,95,0
0,35,74,20
0,40,81,3
0,42,56,1
0,60,112,2
0,80,39,0
0,82,50,0
0,52,88,10
0,57,71,40
0,69,54,7
0,61,110,33
0,35,80,0
0,42,58,1
0,61,100,6
0,70,66,0
0,81,44,0
0,85,90,0
0,70,54,47
0,55,91,11
0,60,90,0
0,64,90,0
0,31,104,2
0,62,110,0
0,35,83,0
0,52,94,0
0,55,83,0
0,60,96,0
0,42,61,1
0,67,104,5
0,31,95,0
0,82,51,2
0,61,14,8
0,69,43,0
0,55,71,62
0,42,64,2
0,61,30,6
0,70,65,0
0,81,47,0
0,60,111,40
0,61,79,8
0,70,44,0
0,35,105,19
0,39,43,1
0,40,100,0
0,42,63,0
0,80,39,7
0,82,50,0
0,55,70,40
0,62,43,8
0,69,54,0
0,62,110,51
0,35,100,2
0,42,67,1
0,61,19,7
0,70,67,0
0,81,44,0
0,63,71,48
0,70,55,0
0,55,71,62
0,35,114,0
0,42,66,1
0,80,32,7
0,82,51,0
0,85,51,0
0,60,111,40
0,62,42,8
0,69,43,0
0,42,73,1
0,62,48,7
0,70,66,0
0,81,47,0
0,55,70,40
0,61,80,8
0,70,45,0
0,85,94,0
0,35,105,19
0,39,52,5
0,40,101,1
0,62,110,2
0,43,109,1
0,42,70,0
0,60,112,6
0,80,38,0
0,82,51,0
0,69,55,8
0,35,118,3
0,42,76,1
0,61,100,7
0,70,66,0
0,81,45,0
0,85,90,0
0,70,54,13
0,59,91,0
0,62,91,0
0,67,99,0
0,55,93,0
0,35,127,0
0,57,81,0
0,43,79,0
0,55,88,0
0,57,123,0
0,59,116,0
0,62,116,0
0,67,117,0
0,31,100,0
0,67,67,0
0,31,127,0
0,54,37,0
0,50,75,0
0,59,82,0
0,55,77,1
0,82,50,8
0,61,14,12
0,69,42,0
0,42,57,1
0,54,64,1
0,61,31,8
0,70,65,0
0,81,46,0
0,38,112,37
0,62,110,5
0,61,78,8
0,70,45,0
0,35,117,17
0,39,85,40
0,54,35,2
0,40,100,1
0,42,67,0
0,80,39,9
0,82,51,0
0,63,42,50
0,69,55,0
0,42,52,1
0,54,61,0
0,67,111,1
0,61,19,8
0,70,66,0
0,81,45,0
0,62,71,42
0,70,54,0
0,35,126,60
0,42,64,1
0,54,34,2
0,80,33,7
0,82,50,0
0,85,51,0
0,62,43,50
0,69,42,0
0,69,100,60
0,42,51,1
0,67,111,1
0,54,65,0
0,62,48,8
0,70,67,0
0,81,46,0
0,31,123,41
0,61,81,9
0,70,45,0
0,85,95,0
0,35,123,17
0,38,122,5
0,39,85,1
0,40,98,0
0,42,65,0
0,54,36,0
0,60,113,2
0,80,38,0
0,82,50,0
0,71,103,2
0,62,110,2
0,69,54,8
0,42,54,1
0,54,70,2
0,61,100,4
0,70,66,0
0,81,44,0
0,85,90,0
0,70,54,8
0,65,92,2
0,57,90,10
0,62,90,0
0,53,54,0
0,74,93,2
0,35,126,0
0,42,64,0
0,57,81,1
0,31,112,1
0,65,111,0
0,31,71,0
0,62,88,0
0,54,35,4
0,82,51,5
0,61,14,48
0,69,43,0
0,42,57,1
0,54,67,1
0,61,31,9
0,70,65,0
0,81,47,0
0,38,117,38
0,62,110,2
0,61,78,9
0,70,44,0
0,35,122,16
0,39,86,41
0,40,99,0
0,42,64,1
0,54,36,2
0,80,38,8
0,82,51,0
0,55,70,2
0,62,42,9
0,69,55,0
0,42,57,1
0,65,111,1
0,54,64,1
0,61,18,8
0,70,67,0
0,81,45,0
0,63,70,11
0,70,55,0
0,35,127,0
0,42,65,1
0,54,27,0
0,80,33,10
0,82,50,0
0,85,50,0
0,62,111,42
0,62,43,9
0,69,42,0
0,42,58,1
0,54,71,1
0,62,49,9
0,70,66,0
0,81,46,0
0,31,123,41
0,55,70,1
0,61,81,9
0,70,45,0
0,85,95,0
0,35,123,16
0,38,122,1
0,39,87,2
0,42,65,1
0,65,110,0
0,54,26,0
0,40,99,1
0,60,113,4
0,80,38,0
0,82,50,0
0,69,54,1
0,42,56,1
0,55,71,1
0,54,68,0
0,61,101,5
0,70,66,0
0,81,44,0
0,85,91,0
0,64,111,42
0,70,54,9
0,55,93,2
0,64,93,0
0,43,78,7
0,60,91,1
0,64,91,0
0,55,89,0
0,60,89,0
0,74,98,2
0,35,126,0
0,42,64,0
0,64,88,0
0,60,116,0
0,62,117,0
0,67,117,0
0,54,37,1
0,31,112,1
0,82,51,8
0,55,70,42
0,61,14,8
0,69,43,0
0,42,57,1
0,60,110,1
0,54,64,0
0,61,30,8
0,70,65,0
0,81,47,0
0,36,117,40
0,61,78,10
0,70,45,0
0,35,116,17
0,39,84,41
0,54,35,2
0,40,100,1
0,42,67,0
0,80,39,9
0,82,51,0
0,64,111,42
0,63,43,8
0,69,55,0
0,42,52,1
0,54,61,0
0,61,19,9
0,70,66,0
0,81,45,0
0,55,70,42
0,62,70,8
0,70,54,0
0,35,127,50
0,42,64,1
0,60,111,1
0,54,34,1
0,80,33,7
0,82,50,0
0,85,50,0
0,62,42,50
0,69,42,0
0,72,103,60
0,60,104,0
0,42,57,1
0,54,65,1
0,62,49,8
0,70,67,0
0,81,46,0
0,31,123,41
0,64,111,1
0,61,81,8
0,70,45,0
0,85,94,0
0,35,123,17
0,36,122,1
0,39,84,1
0,40,98,0
0,42,65,0
0,54,36,1
0,60,112,3
0,80,38,0
0,82,50,0
0,71,102,2
0,59,113,0
0,55,70,2
0,69,54,8
0,42,54,1
0,60,111,1
0,54,70,1
0,61,100,4
0,70,66,0
0,81,44,0
0,85,91,0
0,70,54,8
0,63,92,0
0,60,90,10
0,63,90,0
0,72,84,2
0,35,126,0
0,42,64,0
0,31,112,1
0,55,104,0
0,60,83,0
0,51,73,1
0,54,35,3
0,82,51,5
0,63,110,42
0,61,14,9
0,69,43,0
0,42,57,1
0,54,67,1
0,61,30,9
0,70,65,0
0,81,47,0
0,36,117,0
0,55,70,2
0,61,79,9
0,70,44,0
0,35,122,16
0,39,87,41
0,40,99,0
0,42,66,1
0,60,111,1
0,54,36,1
0,80,39,8
0,82,50,0
0,62,42,11
0,69,54,0
0,42,53,1
0,55,71,1
0,54,64,1
0,61,18,8
0,70,67,0
0,81,44,0
0,63,110,42
0,63,71,9
0,70,55,0
0,35,127,0
0,42,65,1
0,54,27,0
0,80,32,10
0,82,51,0
0,85,50,0
0,55,70,42
0,62,43,9
0,69,43,0
0,42,52,1
0,60,111,1
0,54,71,0
0,62,49,9
0,70,66,0
0,81,47,0
0,31,122,41
0,61,81,10
0,70,45,0
0,85,95,0
0,35,122,16
0,36,123,3
0,39,87,0
0,42,65,1
0,55,71,0
0,54,26,0
0,40,99,1
0,60,112,4
0,80,38,0
0,82,51,0
0,63,110,2
0,69,55,1
0,42,54,1
0,54,68,1
0,61,101,5
0,70,66,0
0,81,45,0
0,85,91,0
0,55,70,42
0,66,111,0
0,70,54,9
0,55,93,0
0,66,92,0
0,59,91,7
0,62,90,0
0,72,101,0
0,35,127,0
0,42,62,0
0,64,122,0
0,66,117,0
0,69,116,0
0,31,100,0
0,67,66,0
0,31,127,1
0,54,37,0
0,43,76,0
0,57,83,0
0,62,100,0
0,66,76,0
0,55,76,2
0,82,50,7
0,61,14,12
0,69,42,0
0,42,57,1
0,54,64,1
0,61,30,8
0,70,65,0
0,81,46,0
0,38,112,37
0,62,111,6
0,61,79,7
0,70,45,0
0,35,117,17
0,39,84,38
0,54,35,2
0,40,100,1
0,42,67,0
0,80,39,9
0,82,51,0
0,63,42,50
0,69,55,0
0,42,60,1
0,54,61,0
0,67,111,2
0,61,18,7
0,70,66,0
0,81,45,0
0,62,70,40
0,70,54,0
0,35,126,28
0,42,64,1
0,54,34,2
0,80,33,5
0,82,50,0
0,85,50,0
0,62,43,50
0,69,42,0
0,59,95,57
0,71,105,3
0,42,59,1
0,54,65,1
0,67,110,1
0,62,48,7
0,70,67,0
0,81,46,0
0,31,123,41
0,61,80,9
0,70,45,0
0,85,95,0
0,35,123,17
0,38,122,2
0,39,84,0
0,40,98,0
0,42,65,0
0,54,36,2
0,60,113,4
0,80,38,0
0,82,50,0
0,57,113,28
0,69,104,2
0,62,111,3
0,69,54,7
0,42,54,1
0,54,70,2
0,61,101,4
0,70,66,0
0,81,44,0
0,85,90,0
0,70,54,8
0,55,92,2
0,65,93,0
0,59,91,2
0,62,91,0
0,53,82,0
0,59,94,0
0,71,98,2
0,35,126,0
0,42,62,0
0,31,112,2
0,65,110,1
0,54,35,3
0,82,51,5
0,61,14,11
0,69,43,0
0,42,57,1
0,54,67,1
0,61,31,9
0,70,65,0
0,81,47,0
0,38,117,38
0,62,110,5
0,61,78,8
0,70,44,0
0,35,122,16
0,39,87,41
0,40,99,0
0,42,66,1
0,54,36,2
0,80,38,8
0,82,51,0
0,55,71,43
0,62,42,8
0,69,55,0
0,42,53,1
0,65,111,2
0,54,64,0
0,61,18,8
0,70,67,0
0,81,45,0
