track,note,velocity,time
0,60,103,587
0,55,102,3
0,64,109,0
0,59,105,0
0,55,79,7
0,60,86,0
0,59,82,0
0,64,82,3
0,64,109,325
0,60,105,0
0,59,111,3
0,67,112,0
0,60,87,0
0,59,85,2
0,67,84,0
0,64,80,0
0,59,113,100
0,60,107,0
0,64,111,3
0,55,109,0
0,59,88,0
0,55,84,2
0,64,86,0
0,60,90,0
0,64,91,80
0,60,87,0
0,59,98,3
0,55,88,0
0,64,71,0
0,55,57,2
0,59,75,0
0,60,60,0
0,60,99,85
0,62,100,0
0,57,100,3
0,65,105,0
0,57,80,0
0,60,85,2
0,62,83,0
0,65,81,0
0,60,74,75
0,65,79,0
0,62,69,3
0,57,60,0
0,60,89,2
0,65,97,0
0,62,100,3
0,57,98,0
0,62,104,2
0,64,104,0
0,59,100,3
0,67,107,0
0,64,79,0
0,67,85,2
0,59,74,0
0,62,75,0
0,65,81,227
0,62,74,0
0,67,75,3
0,71,78,0
0,67,109,2
0,62,109,0
0,71,111,3
0,65,107,0
0,67,115,105
0,71,111,0
0,65,109,3
0,74,116,0
0,74,86,7
0,65,87,0
0,71,74,3
0,67,83,0
0,69,106,520
0,72,104,0
0,64,104,3
0,67,105,0
0,48,81,2
0,72,89,0
0,69,81,0
0,64,82,3
0,67,84,0
0,52,81,232
0,55,70,240
0,64,93,240
0,60,85,480
0,55,81,220
0,48,81,23
0,53,71,200
0,57,81,240
0,65,85,240
0,60,72,480
0,55,78,347
0,48,91,60
0,52,75,180
0,60,81,240
0,72,95,240
0,60,86,23
0,48,77,120
0,57,81,237
0,60,85,240
0,65,92,240
0,60,89,430
0,57,89,107
0,60,87,115
0,55,79,0
0,59,84,3
0,64,87,0
0,60,104,2
0,64,110,0
0,48,89,3
0,55,105,0
0,59,107,0
0,52,79,110
0,64,108,240
0,55,89,3
0,59,111,0
0,67,111,0
0,60,106,0
0,60,91,2
0,64,86,0
0,59,86,0
0,67,84,3
0,62,101,232
0,64,93,3
0,59,90,92
0,64,87,3
0,55,82,0
0,60,87,0
0,59,108,12
0,60,104,3
0,64,109,0
0,55,108,0
0,60,66,82
0,64,71,0
0,55,68,3
0,59,77,0
0,64,92,12
0,60,88,3
0,55,93,0
0,59,98,0
0,60,87,25
0,57,77,3
0,62,78,0
0,65,82,0
0,60,97,17
0,62,101,0
0,57,100,0
0,65,105,0
0,50,87,2
0,60,78,70
0,65,84,0
0,62,69,3
0,57,72,0
0,65,95,22
0,60,86,3
0,62,96,0
0,57,94,0
0,57,82,2
0,59,79,70
0,64,84,3
0,67,87,0
0,62,75,0
0,67,107,22
0,62,103,0
0,60,75,3
0,59,100,0
0,64,102,0
0,65,83,70
0,65,84,10
0,62,76,0
0,67,79,3
0,71,81,0
0,67,105,20
0,71,109,3
0,62,111,0
0,64,109,0
0,47,86,0
0,74,88,80
0,65,87,3
0,71,81,0
0,67,86,0
0,65,108,12
0,71,114,3
0,74,119,0
0,67,100,0
0,55,79,2
0,59,78,50
0,64,81,240
0,72,89,55
0,64,83,3
0,69,82,0
0,67,84,0
0,69,106,20
0,67,105,0
0,64,104,0
0,72,109,0
0,48,84,0
0,52,75,235
0,55,77,240
0,62,81,240
0,64,81,480
0,48,73,40
0,53,70,130
0,57,70,240
0,60,84,240
0,65,93,480
0,48,86,0
0,52,71,140
0,55,78,240
0,60,87,240
0,64,86,480
0,48,78,5
0,53,76,180
0,57,77,2
0,60,81,62
0,65,92,472
0,48,90,3
0,52,57,140
0,64,83,36
0,55,70,2
0,64,83,21
0,60,86,13
0,67,83,145
0,67,79,74
0,55,83,90
0,69,83,12
0,67,83,8
0,48,87,156
0,55,83,67
0,52,67,60
0,55,71,116
0,60,87,112
0,64,89,480
0,48,76,11
0,72,83,80
0,62,88,44
0,69,83,13
0,48,77,3
0,65,83,8
0,53,67,135
0,65,83,75
0,57,57,70
0,60,89,34
0,65,87,31
0,48,77,23
0,74,83,91
0,57,57,24
0,71,83,121
0,47,89,3
0,67,83,26
0,53,75,66
0,55,81,95
0,62,77,47
0,74,83,2
0,74,83,76
0,74,83,48
0,67,83,36
0,71,83,43
0,47,77,26
0,69,83,7
0,62,79,5
0,67,83,20
0,40,87,154
0,67,83,3
0,47,70,107
0,55,62,37
0,62,97,11
0,74,83,10
0,74,83,29
0,74,83,14
0,52,76,75
0,72,83,21
0,71,83,3
0,55,75,22
0,72,83,144
0,62,81,6
0,50,84,3
0,53,55,140
0,57,80,200
0,65,83,44
0,60,85,18
0,65,83,10
0,65,83,13
0,50,90,45
0,65,83,1
0,65,88,107
0,67,83,48
0,60,70,67
0,64,83,21
0,48,78,58
0,52,68,91
0,67,83,83
0,55,70,39
0,59,82,240
0,64,84,480
0,48,73,107
0,55,73,180
0,48,70,3
0,53,66,120
0,57,70,60
0,64,83,40
0,60,81,38
0,64,83,4
0,65,83,46
0,65,83,60
0,65,83,39
0,48,71,68
0,60,75,1
0,69,83,5
0,60,104,5
0,64,110,0
0,48,89,3
0,55,105,0
0,59,107,0
0,60,87,2
0,55,81,0
0,59,85,0
0,64,87,3
0,67,83,5
0,52,79,115
0,64,108,240
0,59,111,3
0,67,111,0
0,60,106,0
0,55,89,2
0,59,85,0
0,60,87,0
0,64,85,0
0,67,86,3
0,62,101,232
0,64,93,5
0,64,87,97
0,59,90,3
0,55,87,0
0,60,90,0
0,59,108,7
0,60,104,0
0,64,109,3
0,55,108,0
0,64,71,90
0,60,73,0
0,55,69,3
0,59,74,0
0,64,92,7
0,60,88,3
0,55,93,0
0,59,98,0
0,57,78,30
0,60,84,0
0,62,83,3
0,65,80,0
0,60,97,7
0,62,101,0
0,57,100,0
0,65,105,0
0,50,87,2
0,60,78,85
0,57,70,0
0,65,81,3
0,62,67,0
0,65,95,12
0,60,86,0
0,57,82,3
0,62,96,0
0,57,94,0
0,67,107,95
0,62,103,3
0,59,100,0
0,64,102,0
0,60,75,2
0,59,80,0
0,64,84,0
0,67,87,0
0,62,76,3
0,65,83,80
0,65,86,10
0,62,78,0
0,67,79,3
0,71,85,0
0,67,105,7
0,71,109,3
0,62,111,0
0,64,109,0
0,47,86,2
0,65,108,97
0,71,114,3
0,74,119,0
0,67,100,0
0,55,79,2
0,74,85,0
0,65,81,0
0,71,75,0
0,67,81,3
0,59,78,45
0,64,81,240
0,64,80,57
0,69,78,0
0,72,87,3
0,67,81,0
0,69,106,17
0,67,105,0
0,72,109,0
0,64,104,0
0,48,84,2
0,52,75,235
0,55,77,240
0,62,81,240
0,64,81,480
0,48,73,5
0,53,70,200
0,57,70,240
0,60,84,240
0,65,93,480
0,48,85,0
0,52,64,6
0,64,84,34
0,64,84,28
0,55,71,52
0,64,84,20
0,64,89,54
0,64,84,31
0,62,84,18
0,60,68,11
0,60,84,19
0,60,84,71
0,67,82,17
0,60,78,24
0,60,84,58
0,48,78,115
0,52,70,63
0,55,64,6
0,67,84,44
0,59,75,36
0,67,84,26
0,67,84,69
0,64,87,20
0,64,84,24
0,48,75,0
0,62,84,19
0,59,76,221
0,60,84,12
0,48,73,37
0,53,60,7
0,57,47,222
0,60,82,6
0,60,84,25
0,60,84,24
0,65,86,31
0,57,84,65
0,48,75,22
0,57,84,19
0,55,84,136
0,60,75,31
0,47,82,39
0,55,70,71
0,62,67,26
0,67,84,25
0,67,83,17
0,74,84,110
0,74,84,14
0,53,69,10
0,74,84,11
0,55,81,23
0,71,84,1
0,67,84,24
0,62,75,11
0,40,77,94
0,47,70,33
0,55,70,240
0,74,84,24
0,62,91,22
0,74,84,53
0,74,84,2
0,59,83,3
0,72,84,1
0,71,84,67
0,72,84,38
0,55,81,26
0,50,86,3
0,53,68,127
0,57,79,107
0,65,84,5
0,60,81,8
0,65,84,54
0,47,74,13
0,65,84,21
0,57,70,196
0,55,73,107
0,67,84,71
0,64,49,34
0,48,75,17
0,64,84,3
0,55,64,8
0,67,84,38
0,52,62,106
0,62,80,72
0,64,75,480
0,67,66,107
0,55,83,80
0,50,81,2
0,53,71,60
0,57,73,2
0,60,82,62
0,47,81,3
0,53,72,160
0,55,74,107
0,62,81,240
0,48,80,20
0,36,91,3
0,36,102,0
0,51,99,2
0,67,88,5
0,62,82,3
0,48,92,0
0,64,83,0
0,52,61,135
0,42,59,3
0,55,77,18
0,42,96,3
0,67,83,21
0,76,83,0
0,64,84,8
0,36,97,3
0,42,65,0
0,62,87,0
0,76,83,6
0,37,116,23
0,42,94,2
0,76,83,19
0,60,70,72
0,55,74,3
0,42,64,0
0,74,83,4
0,67,75,67
0,42,80,0
0,74,83,1
0,60,66,1
0,72,83,18
0,62,82,6
0,36,86,3
0,42,60,0
0,72,83,20
0,48,75,70
0,43,91,3
0,36,108,0
0,59,76,2
0,42,99,0
0,67,81,3
0,48,88,0
0,62,78,0
0,55,76,162
0,42,59,0
0,52,73,105
0,42,85,3
0,79,83,10
0,59,72,5
0,59,83,5
0,36,97,3
0,42,73,0
0,79,83,5
0,79,83,29
0,64,61,7
0,42,103,3
0,37,113,0
0,48,80,12
0,77,83,38
0,62,86,22
0,42,61,0
0,55,55,4
0,76,83,29
0,59,77,45
0,42,96,3
0,59,72,7
0,74,83,2
0,55,66,22
0,42,59,3
0,72,83,5
0,48,71,5
0,48,84,3
0,36,97,0
0,65,81,2
0,60,84,0
0,67,48,0
0,42,96,0
0,48,84,3
0,53,67,3
0,42,56,0
0,57,59,197
0,42,91,3
0,72,83,13
0,57,72,20
0,60,81,5
0,36,94,3
0,42,59,0
0,72,83,15
0,42,100,19
0,37,116,0
0,72,83,13
0,60,70,2
0,65,86,5
0,42,61,3
0,72,83,12
0,60,85,41
0,42,100,2
0,69,83,16
0,57,83,25
0,36,83,3
0,42,61,0
0,69,83,4
0,67,83,0
0,59,82,11
0,67,84,0
0,62,80,3
0,43,81,0
0,43,87,3
0,43,82,0
0,36,102,2
0,42,99,0
0,55,62,25
0,42,52,3
0,53,64,197
0,42,99,0
0,67,83,3
0,59,85,15
0,67,78,0
0,62,71,3
0,62,79,12
0,36,97,3
0,42,58,0
0,67,83,35
0,37,113,19
0,42,100,3
0,74,83,5
0,55,69,5
0,67,83,8
0,42,61,3
0,59,71,12
0,74,83,9
0,74,83,31
0,47,57,24
0,41,87,2
0,42,94,0
0,53,69,0
0,62,62,3
0,71,83,39
0,62,71,33
0,46,99,3
0,67,83,26
0,52,82,23
0,59,79,0
0,67,77,0
0,40,75,5
0,40,82,3
0,36,99,2
0,42,85,0
0,55,82,60
0,42,53,3
0,50,67,2
0,42,100,3
0,64,84,6
0,36,93,3
0,42,54,0
0,74,83,2
0,62,77,0
0,67,72,0
0,74,83,77
0,42,103,0
0,37,111,0
0,40,73,2
0,74,83,52
0,59,76,16
0,42,53,3
0,52,75,2
0,72,83,26
0,59,70,39
0,62,68,7
0,42,96,3
0,71,83,2
0,55,67,40
0,64,65,0
0,36,72,3
0,42,57,0
0,72,83,6
0,50,81,20
0,43,76,3
0,36,100,0
0,67,71,2
0,42,99,0
0,65,87,3
0,60,89,0
0,50,80,0
0,57,82,100
0,42,45,3
0,53,68,2
0,42,99,3
0,65,87,21
0,60,89,0
0,67,80,3
0,60,87,7
0,36,100,3
0,42,55,0
0,65,83,14
0,65,83,13
0,31,78,23
0,42,100,0
0,37,109,0
0,43,80,7
0,65,83,38
0,65,88,59
0,42,56,3
0,60,73,107
0,42,99,3
0,57,78,8
0,42,58,3
0,67,83,14
0,48,81,20
0,36,83,3
0,36,104,2
0,42,99,0
0,60,82,3
0,64,80,0
0,48,86,0
0,64,83,8
0,55,81,21
0,42,58,3
0,67,83,1
0,52,52,175
0,62,72,3
0,42,99,0
0,55,79,15
0,62,84,0
0,67,86,5
0,36,97,3
0,42,57,0
0,37,111,197
0,42,100,3
0,62,90,22
0,55,83,3
0,42,55,0
0,67,78,2
0,55,67,107
0,42,96,3
0,62,56,85
0,55,81,15
0,36,86,3
0,42,58,0
0,50,82,10
0,38,90,3
0,36,99,0
0,42,99,2
0,50,81,5
0,53,59,160
0,42,47,3
0,57,71,7
0,57,81,100
0,42,99,3
0,60,70,2
0,60,81,15
0,36,95,3
0,42,49,0
0,60,93,2
0,65,90,0
0,57,87,0
0,43,88,0
0,69,81,197
0,43,84,3
0,42,99,0
0,37,109,0
0,67,78,5
0,42,63,3
0,57,69,2
0,65,87,40
0,31,70,3
0,46,99,0
0,60,78,2
0,48,81,102
0,36,91,3
0,64,71,0
0,60,84,2
0,36,105,0
0,42,85,0
0,55,73,3
0,62,80,0
0,64,82,0
0,48,87,2
0,60,81,14
0,42,58,3
0,76,89,9
0,52,50,6
0,42,100,3
0,76,89,12
0,55,86,22
0,60,91,0
0,67,89,3
0,55,71,15
0,36,93,0
0,42,52,2
0,76,89,42
0,42,99,31
0,37,109,0
0,62,76,69
0,76,89,10
0,67,73,10
0,42,55,3
0,76,89,29
0,64,81,23
0,42,99,0
0,79,89,17
0,60,75,1
0,36,81,3
0,42,61,0
0,55,48,2
0,79,89,9
0,59,82,5
0,48,90,0
0,62,81,3
0,67,76,0
0,48,73,12
0,43,78,3
0,36,102,0
0,42,99,2
0,55,76,23
0,42,56,0
0,79,89,11
0,59,79,186
0,42,100,3
0,55,73,5
0,81,89,40
0,60,90,65
0,36,97,2
0,42,55,0
0,59,73,14
0,79,89,36
0,31,78,0
0,42,103,0
0,37,109,0
0,62,72,100
0,77,89,23
0,67,88,2
0,42,54,3
0,76,89,38
0,55,63,0
0,42,93,13
0,74,89,7
0,64,73,3
0,42,42,3
0,72,89,25
0,48,91,7
0,65,87,0
0,60,88,3
0,67,79,0
0,48,83,7
0,36,86,3
0,36,102,0
0,42,94,2
0,57,75,100
0,42,57,3
0,69,89,8
0,53,67,180
0,42,96,3
0,69,89,27
0,57,76,6
0,60,83,20
0,36,105,3
0,42,54,0
0,69,89,2
0,69,89,14
0,60,66,3
0,48,77,15
0,42,96,3
0,37,116,0
0,65,83,75
0,65,87,20
0,42,59,3
0,69,89,20
0,57,48,5
0,67,48,0
0,69,89,6
0,48,75,4
0,42,93,3
0,60,67,36
0,60,81,15
0,36,73,3
0,42,57,0
0,67,89,2
0,43,88,16
0,59,79,3
0,67,84,0
0,62,80,0
0,43,87,3
0,50,83,0
0,36,112,2
0,42,99,0
0,55,77,40
0,42,60,3
0,53,60,7
0,42,96,3
0,67,89,22
0,59,90,3
0,62,87,0
0,67,89,3
0,62,83,12
0,36,99,3
0,42,47,0
0,67,89,23
0,55,70,12
0,38,83,5
0,42,94,0
0,37,113,0
0,74,89,12
0,59,48,3
0,67,87,12
0,42,48,3
0,74,89,9
0,74,89,8
0,69,84,7
0,59,85,3
0,53,87,0
0,47,75,12
0,39,66,3
0,42,91,0
0,71,89,16
0,62,68,10
0,46,93,3
0,67,89,7
0,59,75,15
0,52,76,3
0,67,80,0
0,62,83,0
0,40,89,2
0,40,84,0
0,36,105,2
0,42,87,0
0,55,84,100
0,42,54,3
0,52,62,5
0,42,99,3
0,74,89,6
0,59,89,30
0,36,105,3
0,42,59,0
0,67,68,0
0,62,81,0
0,74,89,11
0,40,75,5
0,40,80,3
0,42,99,0
0,37,111,0
0,74,89,47
0,67,85,10
0,42,54,0
0,52,81,2
0,72,89,33
0,62,75,7
0,39,81,3
0,42,96,0
0,59,78,2
0,71,89,24
0,59,85,39
0,36,77,1
0,42,54,0
0,72,89,11
0,50,86,43
0,38,78,3
0,36,104,0
0,65,89,2
0,60,90,0
0,42,96,0
0,67,79,3
0,57,81,180
0,42,60,3
0,53,62,105
0,42,100,3
0,50,48,17
0,65,89,23
0,65,89,0
0,60,89,0
0,67,82,3
0,60,88,7
0,36,94,3
0,42,59,0
0,65,89,13
0,43,69,25
0,31,78,10
0,42,99,3
0,37,111,0
0,65,89,53
0,65,71,107
0,42,51,3
0,57,52,9
0,65,89,1
0,64,73,40
0,42,103,2
0,67,89,28
0,62,86,3
0,42,55,3
0,48,68,40
0,36,91,3
0,64,81,0
0,36,100,0
