track,note,velocity,time
0,81,74,768
0,82,84,0
0,82,59,14
0,82,38,26
0,80,80,2
0,60,67,2
0,82,41,23
0,80,50,0
0,60,74,4
0,82,104,10
0,81,74,1
0,82,63,16
0,61,97,5
0,82,49,10
0,80,80,2
0,82,46,20
0,80,55,2
0,60,89,3
0,82,106,7
0,55,94,164
0,81,74,116
0,82,84,0
0,82,59,14
0,82,38,26
0,80,80,2
0,60,67,2
0,82,41,23
0,80,50,0
0,60,74,4
0,82,104,10
0,81,74,1
0,82,63,16
0,61,97,5
0,82,49,10
0,80,80,2
0,82,46,20
0,80,55,2
0,60,89,3
0,82,106,7
0,55,98,164
0,81,74,0
0,82,84,0
0,62,66,0
0,67,89,0
0,55,54,0
0,59,67,1
0,67,59,2
0,43,63,0
0,59,59,3
0,55,54,3
0,62,54,0
0,67,64,1
0,69,69,0
0,62,57,1
0,82,59,14
0,82,38,26
0,60,67,2
0,80,80,0
0,82,41,15
0,80,50,0
0,62,92,1
0,60,74,1
0,82,104,6
0,81,74,0
0,82,63,15
0,61,97,2
0,82,49,12
0,67,64,0
0,80,80,1
0,82,46,14
0,80,55,2
0,60,89,1
0,82,84,10
0,81,84,1
0,37,103,1
0,82,59,14
0,82,38,27
0,80,86,0
0,67,94,2
0,82,41,4
0,80,61,1
0,37,93,3
0,82,104,5
0,61,67,1
0,66,113,0
0,81,89,2
0,62,74,7
0,82,63,1
0,61,74,2
0,82,49,1
0,80,82,0
0,60,74,0
0,37,107,2
0,82,46,13
0,80,62,3
0,81,74,0
0,82,84,0
0,65,60,0
0,65,107,0
0,57,71,1
0,60,63,0
0,62,47,1
0,53,49,1
0,57,52,2
0,82,59,2
0,82,38,26
0,60,67,2
0,80,80,0
0,82,41,15
0,80,50,0
0,62,82,1
0,60,74,1
0,82,104,1
0,81,74,0
0,82,63,15
0,61,97,2
0,65,98,11
0,82,49,1
0,80,80,1
0,82,46,5
0,80,55,2
0,60,89,1
0,37,97,9
0,82,84,1
0,81,84,1
0,82,59,14
0,62,82,1
0,82,38,0
0,80,86,0
0,82,41,15
0,80,61,1
0,37,90,1
0,65,98,14
0,82,104,1
0,61,67,1
0,66,113,0
0,81,89,2
0,82,63,7
0,61,74,2
0,82,49,12
0,80,82,0
0,60,74,1
0,37,107,0
0,82,46,13
0,64,82,2
0,80,62,1
0,55,65,10
0,64,60,0
0,60,72,1
0,60,57,11
0,55,52,0
0,52,50,0
0,81,74,0
0,82,84,0
0,62,57,5
0,60,57,1
0,67,53,1
0,82,59,14
0,82,38,26
0,60,67,2
0,80,80,0
0,60,82,0
0,82,41,1
0,80,50,0
0,60,74,2
0,82,104,12
0,81,74,0
0,82,63,15
0,64,82,1
0,61,97,1
0,82,49,1
0,80,80,1
0,82,46,14
0,80,55,2
0,60,89,1
0,82,84,10
0,60,82,0
0,81,84,1
0,37,103,1
0,82,59,1
0,82,38,6
0,80,86,0
0,82,41,15
0,64,82,1
0,80,61,0
0,37,93,3
0,82,104,1
0,61,67,1
0,66,113,0
0,81,89,2
0,82,63,8
0,61,74,2
0,82,49,12
0,80,82,0
0,60,74,1
0,60,82,0
0,37,107,2
0,82,46,0
0,80,62,3
0,63,58,3
0,60,44,18
0,43,41,0
0,81,74,0
0,82,84,0
0,55,46,3
0,51,27,0
0,82,59,14
0,63,82,1
0,82,38,0
0,60,67,2
0,80,80,0
0,82,41,15
0,80,50,0
0,60,74,2
0,82,104,12
0,60,82,1
0,81,74,0
0,82,63,1
0,61,97,2
0,82,49,12
0,80,80,1
0,82,46,14
0,63,82,2
0,80,55,0
0,60,89,1
0,37,97,1
0,82,84,1
0,81,84,1
0,82,59,14
0,82,38,23
0,60,82,2
0,80,86,0
0,82,41,1
0,80,61,1
0,37,90,1
0,82,104,15
0,61,67,1
0,66,113,0
0,81,89,2
0,82,63,8
0,63,82,1
0,61,74,1
0,82,49,1
0,80,82,0
0,60,74,1
0,55,60,0
0,37,107,0
0,82,46,13
0,74,65,2
0,67,65,0
0,80,62,1
0,54,50,0
0,81,74,0
0,82,84,0
0,66,57,0
0,66,82,0
0,43,50,0
0,50,52,3
0,59,57,0
0,59,65,2
0,67,64,5
0,69,69,0
0,55,55,1
0,62,57,0
0,82,59,1
0,82,38,4
0,60,67,2
0,80,80,0
0,82,41,15
0,80,50,0
0,60,74,2
0,82,104,12
0,81,74,0
0,82,63,15
0,66,82,1
0,61,97,1
0,82,49,1
0,80,80,1
0,82,46,14
0,80,55,2
0,60,89,1
0,82,84,10
0,62,82,0
0,81,84,1
0,37,103,1
0,82,59,1
0,82,38,27
0,80,86,0
0,60,57,1
0,82,41,8
0,66,82,1
0,80,61,0
0,37,93,3
0,82,104,1
0,61,67,1
0,66,113,0
0,81,89,2
0,82,63,8
0,61,74,2
0,59,62,10
0,82,49,12
0,80,82,0
0,60,74,1
0,62,82,0
0,37,107,2
0,82,46,0
0,80,62,0
0,62,51,6
0,53,63,1
0,59,63,1
0,81,74,0
0,82,84,0
0,43,50,6
0,59,46,1
0,53,50,2
0,50,42,0
0,82,59,14
0,65,82,1
0,82,38,0
0,60,67,2
0,80,80,0
0,82,41,15
0,80,50,0
0,60,74,2
0,82,104,12
0,62,82,1
0,81,74,0
0,82,63,1
0,61,97,2
0,82,49,12
0,80,80,1
0,82,46,14
0,65,82,2
0,80,55,0
0,60,89,1
0,37,97,1
0,82,84,1
0,81,84,1
0,82,59,14
0,82,38,0
0,60,63,0
0,62,82,2
0,80,86,0
0,82,41,1
0,80,61,1
0,37,90,1
0,82,104,15
0,61,67,1
0,66,113,0
0,81,89,2
0,59,62,3
0,82,63,4
0,65,82,1
0,61,74,1
0,82,49,1
0,80,82,0
0,60,74,1
0,37,107,0
0,82,46,13
0,80,62,3
0,61,54,0
0,52,61,1
0,57,59,2
0,57,49,0
0,36,80,0
0,81,74,0
0,82,84,0
0,64,82,0
0,49,36,1
0,52,51,2
0,62,57,2
0,61,57,1
0,43,45,1
0,67,53,0
0,82,59,1
0,82,38,26
0,60,67,2
0,80,80,0
0,82,41,15
0,80,50,0
0,36,80,1
0,61,82,0
0,60,74,1
0,82,104,1
0,40,80,1
0,81,74,0
0,82,63,15
0,61,97,2
0,82,49,12
0,36,90,1
0,64,82,0
0,80,80,1
0,82,46,0
0,40,90,2
0,80,55,0
0,60,89,1
0,36,90,10
0,82,84,0
0,81,84,1
0,37,103,1
0,82,59,14
0,40,90,1
0,61,82,0
0,82,38,0
0,80,86,0
0,82,41,15
0,36,107,1
0,80,61,0
0,37,93,3
0,82,104,16
0,40,107,1
0,61,67,0
0,66,113,0
0,64,82,0
0,81,89,2
0,82,63,1
0,61,74,2
0,82,49,2
0,80,82,0
0,36,107,1
0,60,74,0
0,37,107,2
0,82,46,13
0,40,107,2
0,61,82,0
0,80,62,1
0,60,67,14
0,52,55,0
0,55,57,0
0,60,60,1
0,55,55,0
0,36,107,0
0,81,74,0
0,82,84,0
0,60,55,0
0,43,59,0
0,52,50,2
0,82,59,14
0,82,38,26
0,60,67,2
0,80,80,0
0,60,82,0
0,82,41,1
0,80,50,0
0,36,107,1
0,60,74,1
0,82,104,12
0,40,107,1
0,81,74,0
0,82,63,15
0,62,82,1
0,61,97,1
0,82,49,1
0,36,107,1
0,80,80,1
0,82,46,14
0,40,107,2
0,80,55,0
0,60,89,1
0,37,97,9
0,36,107,1
0,82,84,0
0,60,82,0
0,81,84,1
0,82,59,1
0,40,107,1
0,82,38,15
0,80,86,0
0,82,41,15
0,36,107,1
0,62,82,0
0,80,61,0
0,37,90,1
0,82,104,1
0,55,89,1
0,40,107,0
0,61,67,0
0,66,113,0
0,81,89,2
0,82,63,8
0,61,74,2
0,82,49,12
0,80,82,0
0,36,107,1
0,60,74,0
0,60,82,0
0,37,107,0
0,82,46,0
0,40,107,2
0,80,62,1
0,67,50,1
0,35,110,0
0,36,119,0
0,42,82,0
0,81,74,0
0,82,84,0
0,62,66,0
0,67,89,0
0,55,54,0
0,31,112,0
0,59,67,1
0,67,59,2
0,67,64,7
0,69,69,0
0,62,57,1
0,82,59,14
0,42,77,0
0,82,38,14
0,46,56,2
0,54,119,0
0,60,67,0
0,80,80,0
0,82,41,15
0,80,50,0
0,35,110,0
0,36,119,0
0,42,67,0
0,38,101,0
0,62,92,0
0,60,74,1
0,82,104,6
0,39,109,0
0,40,119,0
0,42,73,0
0,81,74,0
0,82,63,15
0,42,71,0
0,61,97,1
0,82,49,12
0,67,64,0
0,46,67,0
0,54,119,0
0,80,80,1
0,82,46,14
0,40,119,0
0,42,84,0
0,80,55,0
0,60,89,1
0,35,110,0
0,36,119,0
0,42,68,0
0,82,84,0
0,81,84,1
0,82,59,14
0,42,77,0
0,69,53,14
0,82,38,0
0,46,65,2
0,54,119,0
0,80,86,0
0,67,94,2
0,82,41,4
0,31,95,0
0,35,110,0
0,36,119,0
0,42,77,0
0,80,61,0
0,82,104,12
0,38,92,0
0,39,109,0
0,40,119,0
0,42,82,0
0,61,67,0
0,50,92,0
0,81,89,2
0,62,74,14
0,82,63,1
0,42,80,0
0,71,56,0
0,61,74,1
0,82,49,1
0,80,82,0
0,46,78,1
0,54,119,0
0,60,74,0
0,82,46,13
0,42,100,0
0,80,62,1
0,74,55,6
0,35,110,0
0,36,119,0
0,42,82,0
0,81,74,0
0,82,84,0
0,65,60,0
0,65,107,0
0,31,112,0
0,57,71,1
0,60,63,0
0,82,59,2
0,42,77,0
0,82,38,16
0,46,56,2
0,54,119,0
0,60,67,0
0,80,80,0
0,82,41,15
0,80,50,0
0,35,110,0
0,36,119,0
0,42,67,0
0,38,101,0
0,62,82,0
0,60,74,1
0,82,104,1
0,39,109,0
0,40,119,0
0,42,73,0
0,81,74,0
0,82,63,15
0,42,71,0
0,61,97,1
0,65,98,11
0,82,49,1
0,46,67,1
0,54,119,0
0,80,80,1
0,82,46,5
0,40,119,0
0,42,84,0
0,80,55,0
0,60,89,1
0,35,110,0
0,36,119,0
0,42,68,0
0,82,84,0
0,81,84,1
0,82,59,14
0,42,77,0
0,62,82,0
0,82,38,0
0,46,65,2
0,54,119,0
0,80,86,0
0,82,41,15
0,31,95,0
0,35,110,0
0,36,119,0
0,42,77,0
0,80,61,0
0,65,98,11
0,82,104,1
0,38,92,0
0,39,109,0
0,40,119,0
0,42,82,0
0,61,67,0
0,50,92,0
0,81,89,2
0,82,63,7
0,42,80,0
0,61,74,1
0,82,49,12
0,80,82,0
0,46,78,1
0,54,119,0
0,60,74,0
0,82,46,13
0,42,100,0
0,64,82,0
0,80,62,1
0,55,65,1
0,64,60,0
0,60,72,1
0,35,110,0
0,36,119,0
0,42,82,0
0,81,74,0
0,82,84,0
0,31,102,0
0,62,57,5
0,60,57,1
0,67,53,1
0,82,59,14
0,42,77,0
0,82,38,14
0,46,56,2
0,54,119,0
0,60,67,0
0,80,80,0
0,60,82,0
0,82,41,1
0,80,50,0
0,35,110,0
0,36,119,0
0,42,67,0
0,36,91,0
0,60,74,1
0,82,104,12
0,39,109,0
0,40,119,0
0,42,73,0
0,81,74,0
0,82,63,15
0,42,71,0
0,64,82,0
0,61,97,1
0,82,49,1
0,46,67,1
0,54,119,0
0,80,80,1
0,82,46,14
0,40,119,0
0,42,84,0
0,80,55,0
0,60,89,1
0,35,110,0
0,36,119,0
0,42,68,0
0,82,84,0
0,60,82,0
0,81,84,1
0,82,59,1
0,42,77,0
0,82,38,14
0,46,65,2
0,54,119,0
0,80,86,0
0,72,66,1
0,82,41,15
0,31,85,0
0,35,110,0
0,36,119,0
0,42,77,0
0,64,82,0
0,80,61,0
0,82,104,1
0,39,109,0
0,40,119,0
0,42,82,0
0,61,67,0
0,36,82,0
0,48,50,0
0,81,89,2
0,82,63,15
0,42,80,0
0,71,55,0
0,61,74,0
0,82,49,12
0,80,82,0
0,46,78,1
0,54,119,0
0,60,74,0
0,60,82,0
0,82,46,0
0,42,100,0
0,80,62,1
0,63,58,3
0,72,55,2
0,35,110,0
0,36,119,0
0,42,82,0
0,81,74,0
0,82,84,0
0,31,102,0
0,82,59,14
0,42,77,0
0,63,82,0
0,82,38,0
0,46,56,2
0,54,119,0
0,60,67,0
0,80,80,0
0,82,41,15
0,80,50,0
0,35,110,0
0,36,119,0
0,42,67,0
0,36,91,0
0,60,74,1
0,82,104,12
0,39,109,0
0,40,119,0
0,42,73,0
0,60,82,0
0,81,74,0
0,82,63,1
0,42,71,0
0,61,97,1
0,82,49,12
0,46,67,1
0,54,119,0
0,80,80,1
0,82,46,14
0,40,119,0
0,42,84,0
0,63,82,0
0,80,55,0
0,60,89,1
0,35,110,0
0,36,119,0
0,42,68,0
0,82,84,0
0,81,84,1
0,82,59,14
0,42,77,0
0,82,38,14
0,46,65,2
0,54,119,0
0,60,82,0
0,80,86,0
0,82,41,1
0,31,85,0
0,35,110,0
0,36,119,0
0,42,77,0
0,80,61,0
0,82,104,12
0,39,109,0
0,40,119,0
0,42,82,0
0,61,67,0
0,36,82,0
0,48,50,0
0,81,89,2
0,82,63,15
0,42,80,0
0,63,82,0
0,61,74,1
0,82,49,1
0,80,82,0
0,46,78,1
0,54,119,0
0,60,74,0
0,82,46,13
0,42,100,0
0,80,62,1
0,35,110,0
0,36,119,0
0,42,82,0
0,81,74,0
0,82,84,0
0,66,57,0
0,66,82,0
0,31,112,0
0,59,65,4
0,67,64,5
0,69,69,0
0,55,55,1
0,62,57,0
0,82,59,1
0,42,77,0
0,82,38,14
0,46,56,2
0,54,119,0
0,60,67,0
0,80,80,0
0,82,41,15
0,80,50,0
0,35,110,0
0,36,119,0
0,42,67,0
0,38,101,0
0,60,74,1
0,82,104,12
0,39,109,0
0,40,119,0
0,42,73,0
0,81,74,0
0,82,63,15
0,42,71,0
0,66,82,0
0,61,97,1
0,82,49,1
0,46,67,1
0,54,119,0
0,80,80,1
0,82,46,14
0,40,119,0
0,42,84,0
0,80,55,0
0,60,89,1
0,35,110,0
0,36,119,0
0,42,68,0
0,82,84,0
0,62,82,0
0,81,84,1
0,82,59,1
0,42,77,0
0,82,38,14
0,71,50,1
0,46,65,0
0,54,119,0
0,80,86,0
0,82,41,15
0,31,95,0
0,35,110,0
0,36,119,0
0,42,77,0
0,66,82,0
0,80,61,0
0,82,104,1
0,38,92,0
0,39,109,0
0,40,119,0
0,42,82,0
0,61,67,0
0,50,92,0
0,81,89,2
0,69,49,13
0,82,63,0
0,42,80,0
0,61,74,1
0,82,49,12
0,80,82,0
0,46,78,1
0,54,119,0
0,60,74,0
0,62,82,0
0,82,46,0
0,42,100,0
0,80,62,0
0,71,50,10
0,62,51,1
0,53,63,1
0,59,63,1
0,35,110,0
0,36,119,0
0,42,82,0
0,81,74,0
0,82,84,0
0,31,112,0
0,82,59,14
0,42,77,0
0,65,82,0
0,82,38,0
0,46,56,2
0,54,119,0
0,60,67,0
0,80,80,0
0,82,41,15
0,80,50,0
0,35,110,0
0,36,119,0
0,42,67,0
0,38,101,0
0,60,74,1
0,82,104,12
0,39,109,0
0,40,119,0
0,42,73,0
0,62,82,0
0,81,74,0
0,82,63,1
0,42,71,0
0,61,97,1
0,82,49,12
0,46,67,1
0,54,119,0
0,80,80,1
0,82,46,14
0,40,119,0
0,42,84,0
0,65,82,0
0,80,55,0
0,60,89,1
0,35,110,0
0,36,119,0
0,42,68,0
0,82,84,0
0,81,84,1
0,82,59,14
0,42,77,0
0,82,38,27
0,72,57,1
0,46,65,1
0,54,119,0
0,62,82,0
0,80,86,0
0,82,41,1
0,31,95,0
0,35,110,0
0,36,119,0
0,42,77,0
0,80,61,0
0,82,104,12
0,38,92,0
0,39,109,0
0,40,119,0
0,42,82,0
0,61,67,0
0,50,92,0
0,81,89,2
0,71,53,0
0,82,63,12
0,42,80,0
0,65,82,0
0,61,74,1
0,82,49,1
0,80,82,0
0,46,78,1
0,54,119,0
0,60,74,0
0,82,46,13
0,42,100,0
0,80,62,1
0,69,57,1
0,61,54,15
0,52,61,1
