track,note,velocity,time
3,43,60,383
3,50,58,45
3,67,46,192
3,62,46,96
3,50,0,36
3,67,0,8
3,43,0,33
3,59,53,19
3,62,0,15
3,59,0,110
3,50,55,67
3,59,42,192
3,59,0,94
3,50,0,64
3,59,48,34
3,67,56,0
3,59,0,114
3,67,0,3
3,62,51,75
3,62,0,94
3,43,58,98
3,50,56,192
3,43,0,63
3,50,0,125
3,67,55,4
3,74,71,0
3,62,45,96
3,74,0,35
3,67,0,13
3,62,0,31
3,59,55,17
3,59,0,76
3,50,53,116
3,71,73,0
3,50,0,131
3,59,46,61
3,59,0,109
3,71,0,76
3,67,63,7
3,67,0,183
3,59,28,9
3,62,38,0
3,69,66,0
3,59,0,52
3,62,0,22
3,50,56,81
3,57,57,185
3,50,0,16
3,66,43,176
3,57,0,11
3,64,51,85
3,66,0,9
3,60,52,87
3,64,0,2
3,45,56,190
3,69,0,12
3,60,0,37
3,60,46,143
3,69,33,0
3,69,0,56
3,69,48,40
3,69,0,39
3,60,0,16
3,64,58,41
3,69,71,0
3,45,0,118
3,60,52,74
3,71,67,0
3,64,0,2
3,69,0,49
3,50,46,141
3,72,55,0
3,71,0,3
3,60,0,4
3,72,0,109
3,57,64,76
3,72,46,0
3,72,0,135
3,66,45,57
3,72,58,0
3,57,0,80
3,50,0,11
3,64,45,5
3,72,0,12
3,66,0,3
3,64,0,71
3,60,55,10
3,72,76,0
3,72,0,153
3,45,61,39
3,71,52,0
3,60,0,71
3,60,45,121
3,69,58,0
3,71,0,8
3,60,0,139
3,64,57,45
3,67,53,0
3,69,0,12
3,45,0,40
3,64,0,98
3,60,38,42
3,60,0,86
3,43,60,43
3,50,58,192
3,67,0,136
3,67,46,56
3,62,46,96
3,50,0,36
3,67,0,8
3,43,0,33
3,59,53,19
3,62,0,15
3,59,0,110
3,50,55,67
3,59,42,192
3,59,0,94
3,50,0,64
3,59,48,34
3,67,56,0
3,59,0,114
3,67,0,3
3,62,51,75
3,62,0,94
3,43,58,98
3,50,56,192
3,43,0,63
3,50,0,125
3,74,79,4
3,67,55,0
3,62,45,96
3,67,0,48
3,74,0,12
3,62,0,19
3,59,55,17
3,59,0,76
3,71,87,116
3,50,53,0
3,50,0,131
3,59,46,61
3,59,0,109
3,71,0,52
3,67,56,31
3,69,66,192
3,59,28,0
3,62,38,0
3,67,0,35
3,59,0,17
3,62,0,22
3,50,56,5
3,57,57,192
3,50,0,16
3,66,43,176
3,57,0,11
3,64,51,85
3,66,0,9
3,60,52,87
3,64,0,2
3,45,56,190
3,69,0,31
3,60,0,18
3,69,48,143
3,60,46,0
3,69,0,50
3,69,43,46
3,69,0,35
3,60,0,20
3,69,68,41
3,64,58,0
3,45,0,118
3,69,0,63
3,71,68,11
3,60,52,0
3,64,0,2
3,71,0,183
3,72,53,7
3,50,46,0
3,60,0,7
3,72,0,115
3,72,51,70
3,57,64,0
3,72,0,119
3,72,55,73
3,66,45,0
3,57,0,80
3,50,0,11
3,64,45,5
3,72,0,13
3,66,0,2
3,64,0,71
3,72,71,10
3,60,55,0
3,72,0,147
3,71,63,45
3,45,61,0
3,60,0,71
3,69,57,121
3,60,45,0
3,71,0,1
3,60,0,146
3,69,0,40
3,67,52,5
3,64,57,0
3,45,0,52
3,64,0,98
3,60,38,42
3,60,0,11
3,67,0,81
3,43,58,8
3,50,55,191
3,43,0,11
3,50,0,121
3,67,52,60
3,62,27,96
3,67,0,40
3,62,0,47
3,59,55,9
3,50,55,192
3,59,0,16
3,59,48,176
3,59,0,149
3,67,56,43
3,50,0,25
3,67,0,159
3,62,47,8
3,43,62,9
3,62,0,73
3,50,55,43
3,43,0,135
3,67,46,57
3,50,0,29
3,62,30,67
3,67,0,33
3,62,0,62
3,59,48,1
3,59,0,123
3,50,58,69
3,50,0,113
3,59,42,79
3,59,0,110
3,59,23,82
3,67,52,0
3,59,0,57
3,67,0,61
3,62,47,74
3,62,0,94
3,43,56,98
3,43,0,118
3,59,46,74
3,59,0,136
3,67,55,56
3,62,23,96
3,67,0,25
3,62,0,53
3,59,43,18
3,59,0,88
3,50,56,104
3,50,0,68
3,59,48,124
3,59,0,121
3,67,47,71
3,67,0,97
3,62,38,95
3,62,0,75
3,50,56,35
3,57,63,116
3,50,0,3
3,57,0,110
3,66,35,79
3,64,52,96
3,66,0,37
3,60,56,59
3,64,0,9
3,60,0,163
3,45,63,20
3,60,45,192
3,60,0,151
3,66,52,41
3,45,0,61
3,64,42,131
3,66,0,1
3,50,55,14
3,64,0,38
3,57,64,95
3,66,50,192
3,57,0,5
3,50,0,14
3,64,43,77
3,66,0,23
3,64,0,68
3,60,47,5
3,60,0,139
3,45,57,53
3,45,0,112
3,60,46,80
3,60,0,115
3,66,52,77
3,66,0,162
3,60,51,30
3,60,0,86
3,43,58,106
3,50,56,149
3,67,45,141
3,50,0,71
3,43,0,9
3,62,46,16
3,67,0,49
3,59,55,47
3,62,0,32
3,59,0,113
3,50,55,47
3,50,0,118
3,59,46,74
3,59,0,123
3,67,50,69
3,67,0,113
3,62,51,79
3,62,0,109
3,43,61,83
3,50,57,192
3,43,0,16
3,50,0,102
3,67,45,74
3,62,32,96
3,67,0,41
3,59,46,55
3,62,0,24
3,59,0,94
3,50,61,74
3,50,0,100
3,59,47,92
3,59,0,121
3,67,55,71
3,67,0,120
3,62,52,72
3,62,0,87
3,50,52,105
3,57,67,151
3,50,0,69
3,57,0,98
3,66,51,25
3,64,45,96
3,66,0,65
3,60,43,31
3,64,0,7
3,60,0,120
3,45,58,65
3,45,0,122
3,60,42,70
3,60,0,122
3,64,50,70
3,64,0,130
3,60,45,62
3,60,0,128
3,50,57,64
3,57,62,192
3,50,0,6
3,57,0,132
3,66,45,54
3,64,43,96
3,66,0,24
3,64,0,56
3,60,52,16
3,60,0,128
3,45,58,64
3,45,0,117
3,60,42,75
3,60,0,111
3,64,52,81
3,64,0,116
3,60,45,76
3,60,0,88
3,43,56,104
3,50,57,173
3,43,0,32
3,67,46,160
3,50,0,3
3,62,37,93
3,67,0,58
3,59,45,38
3,62,0,30
3,59,0,93
3,50,48,69
3,50,0,143
3,59,46,49
3,59,0,120
3,67,51,72
3,67,0,126
3,62,55,66
3,62,0,116
3,43,60,76
3,50,61,192
3,43,0,51
3,50,0,103
3,67,55,38
3,62,38,96
3,67,0,31
3,62,0,57
3,59,55,8
3,59,0,105
3,50,55,87
3,50,0,89
3,59,48,103
3,59,0,122
3,67,55,70
3,67,0,114
3,62,57,78
3,62,0,74
3,50,57,22
3,57,58,180
3,50,0,57
3,66,42,135
3,57,0,1
3,64,52,95
3,66,0,56
3,60,45,40
3,64,0,6
3,60,0,104
3,45,58,82
3,45,0,105
3,60,45,87
3,60,0,109
3,64,52,83
3,64,0,113
3,60,42,79
3,60,0,94
3,50,56,98
3,57,52,192
3,50,0,34
3,57,0,102
3,66,33,56
3,64,52,96
3,66,0,17
3,60,43,79
3,64,0,13
3,60,0,96
3,45,57,83
3,45,0,129
3,60,41,63
3,60,0,112
3,64,55,80
3,64,0,128
3,60,51,64
3,60,0,65
3,43,57,3
3,50,53,192
3,43,0,32
3,50,0,94
3,67,47,66
3,62,41,96
3,67,0,33
3,59,43,63
3,62,0,1
3,59,0,113
3,50,51,78
3,50,0,100
3,59,51,92
3,59,0,125
3,67,46,67
3,67,0,113
3,62,42,79
3,62,0,77
3,52,51,115
3,56,23,28
3,64,55,192
3,56,0,26
3,52,0,39
3,59,27,31
3,64,0,49
3,59,0,41
3,56,33,6
3,56,0,135
3,47,55,57
3,47,0,165
3,56,33,27
3,56,0,142
3,64,58,50
3,64,0,119
3,59,52,73
3,59,0,87
3,45,56,105
3,52,57,187
3,45,0,59
3,52,0,94
3,64,48,39
3,60,51,96
3,64,0,24
3,57,38,72
3,60,0,13
3,57,0,124
3,52,56,55
3,52,0,88
3,57,45,104
3,57,0,131
3,64,55,61
3,64,0,123
3,60,45,69
3,60,0,83
3,50,55,5
3,57,55,174
3,50,0,71
3,57,0,62
3,66,36,59
3,64,48,96
3,66,0,14
3,60,52,82
3,64,0,3
3,60,0,104
3,50,58,85
3,50,0,102
3,60,50,90
3,60,0,119
3,66,55,73
3,66,0,118
3,64,42,74
3,64,0,90
3,43,58,102
3,50,56,160
3,43,0,37
3,50,0,114
3,67,45,41
3,62,57,96
3,67,0,21
3,59,55,75
3,62,0,31
3,59,0,139
3,50,52,22
3,59,55,192
3,59,0,150
3,67,51,42
3,50,0,57
3,67,0,81
3,62,45,54
3,62,0,75
3,43,51,9
3,59,46,36
3,50,41,54
3,62,48,11
3,67,53,44
3,43,0,10
3,67,0,336
3,67,55,0
3,74,71,0
3,67,0,1
3,62,0,288
3,74,0,95
3,62,55,0
3,71,73,0
3,59,0,362
3,50,0,7
3,71,0,8
3,62,0,7
3,59,46,0
3,67,63,0
3,67,0,183
3,59,0,9
3,62,38,0
3,69,66,0
3,50,56,81
3,57,57,185
3,50,0,16
3,66,43,176
3,57,0,11
3,64,51,85
3,66,0,9
3,62,0,87
3,60,52,0
3,64,0,2
3,45,56,190
3,69,0,12
3,60,0,37
3,60,46,143
3,69,33,0
3,69,0,56
3,69,48,40
3,69,0,39
3,60,0,16
3,64,58,41
3,69,71,0
3,45,0,118
3,60,52,74
3,71,67,0
3,64,0,2
3,69,0,49
3,50,46,141
3,72,55,0
3,71,0,3
3,60,0,4
3,72,0,109
3,57,64,76
3,72,46,0
3,72,0,135
3,66,45,57
3,72,58,0
3,57,0,80
3,50,0,11
3,64,45,5
3,72,0,12
3,66,0,3
3,64,0,71
3,60,55,10
3,72,76,0
3,72,0,153
3,45,61,39
3,71,52,0
3,60,0,71
3,60,45,121
3,69,58,0
3,71,0,8
3,60,0,139
3,64,57,45
3,67,53,0
3,69,0,12
3,45,0,40
3,64,0,98
3,60,38,42
3,60,0,86
3,43,60,43
3,50,58,192
3,67,0,136
3,67,46,56
3,62,46,96
3,50,0,36
3,67,0,8
3,43,0,33
3,59,53,19
3,62,0,15
3,59,0,110
3,50,55,67
3,59,42,192
3,59,0,94
3,50,0,64
3,59,48,34
3,67,56,0
3,59,0,114
3,67,0,3
3,62,51,75
3,62,0,94
3,43,58,98
3,50,56,192
3,43,0,63
3,50,0,125
3,74,79,4
3,67,55,0
3,62,45,96
3,67,0,48
3,74,0,12
3,62,0,19
3,59,55,17
3,59,0,76
3,71,87,116
3,50,53,0
3,50,0,131
3,59,46,61
3,59,0,109
3,71,0,52
3,67,56,31
3,69,66,192
3,59,28,0
3,62,38,0
3,67,0,35
3,59,0,17
3,62,0,22
3,50,56,5
3,57,57,192
3,50,0,16
3,66,43,176
3,57,0,11
3,64,51,85
3,66,0,9
3,60,52,87
3,64,0,2
3,45,56,190
3,69,0,31
3,60,0,18
3,69,48,143
3,60,46,0
3,69,0,50
3,69,43,46
3,69,0,35
3,60,0,20
3,69,68,41
3,64,58,0
3,45,0,118
3,69,0,63
3,71,68,11
3,60,52,0
3,64,0,2
3,71,0,183
3,72,53,7
3,50,46,0
3,60,0,7
3,72,0,115
3,72,51,70
3,57,64,0
3,72,0,119
3,72,55,73
3,66,45,0
3,57,0,80
3,50,0,11
3,64,45,5
3,72,0,13
3,66,0,2
3,64,0,71
3,72,71,10
3,60,55,0
3,72,0,147
3,71,63,45
3,45,61,0
3,60,0,71
3,69,57,121
3,60,45,0
3,71,0,1
3,60,0,146
3,69,0,40
3,67,52,5
3,64,57,0
3,45,0,52
3,64,0,98
3,60,38,42
3,60,0,11
3,67,0,81
3,43,56,8
3,43,0,15
3,59,46,74
3,59,0,136
3,67,55,56
3,62,23,96
3,67,0,25
3,62,0,53
3,59,43,18
3,59,0,88
3,50,56,104
3,50,0,68
3,59,48,124
3,59,0,121
3,67,47,71
3,67,0,97
3,62,38,95
3,62,0,75
3,50,56,35
3,57,63,116
3,50,0,3
3,57,0,110
3,66,35,79
3,64,52,96
3,66,0,37
3,60,56,59
3,64,0,9
3,60,0,163
3,45,63,20
3,60,45,192
3,60,0,151
3,66,52,41
3,45,0,61
3,64,42,131
3,66,0,1
3,50,55,14
3,64,0,38
3,57,64,95
3,66,50,192
3,57,0,5
3,50,0,14
3,64,43,77
3,66,0,23
3,64,0,68
3,60,47,5
3,60,0,139
3,45,57,53
3,45,0,112
3,60,46,80
3,60,0,115
3,66,52,77
3,66,0,162
3,60,51,30
3,60,0,86
3,43,58,106
3,50,56,149
3,67,45,141
3,50,0,71
3,43,0,9
3,62,46,16
3,67,0,49
3,59,55,47
3,62,0,32
3,59,0,113
3,50,55,47
3,50,0,118
3,59,46,74
3,59,0,123
3,67,50,69
3,67,0,113
3,62,51,79
3,62,0,109
3,43,61,83
3,50,57,192
3,43,0,16
3,50,0,102
3,67,45,74
3,62,32,96
3,67,0,41
3,59,46,55
3,62,0,24
3,59,0,94
3,50,61,74
3,50,0,100
3,59,47,92
3,59,0,121
3,67,55,71
3,67,0,120
3,62,52,72
3,62,0,87
3,50,52,105
3,57,67,54
3,50,0,69
3,57,0,98
3,66,51,25
3,64,45,96
3,66,0,65
3,60,43,31
3,64,0,7
3,60,0,120
3,45,58,65
3,45,0,122
3,60,42,70
3,60,0,122
3,64,50,70
3,64,0,130
3,60,45,62
3,60,0,128
3,50,57,64
3,57,62,192
3,50,0,6
3,57,0,132
3,66,45,54
3,64,43,96
3,66,0,24
3,64,0,56
3,60,52,16
3,60,0,128
3,45,58,64
3,45,0,117
3,60,42,75
3,60,0,111
3,64,52,81
3,64,0,116
3,60,45,76
3,60,0,88
3,43,56,1
3,50,57,192
3,43,0,32
3,67,46,160
3,50,0,3
3,62,37,93
3,67,0,58
3,59,45,38
3,62,0,30
3,59,0,93
3,50,48,69
3,50,0,143
3,59,46,49
3,59,0,120
3,67,51,72
3,67,0,126
3,62,55,66
3,62,0,12
3,44,60,0
3,51,61,157
3,44,0,51
3,51,0,103
3,68,55,38
3,63,38,96
3,68,0,31
3,63,0,57
3,60,55,8
3,60,0,105
3,51,55,87
3,51,0,89
3,60,48,103
3,60,0,122
3,68,55,70
3,68,0,114
3,63,57,78
3,63,0,74
3,51,57,22
3,58,58,180
3,51,0,57
3,67,42,135
3,58,0,1
3,65,52,95
3,67,0,56
3,61,45,40
3,65,0,6
3,61,0,104
3,46,58,82
3,46,0,105
3,61,45,87
3,61,0,109
3,65,52,83
3,65,0,113
3,61,42,79
3,61,0,94
3,51,56,98
3,58,52,192
3,51,0,34
3,58,0,102
3,67,33,56
3,65,52,96
3,67,0,17
3,61,43,79
3,65,0,13
3,61,0,96
3,46,57,83
3,46,0,129
3,61,41,63
3,61,0,112
3,65,55,80
3,65,0,128
3,61,51,64
3,61,0,65
3,44,57,3
3,51,53,192
3,44,0,32
3,51,0,94
3,68,47,66
3,63,41,96
3,68,0,33
3,60,43,63
3,63,0,1
3,60,0,113
3,51,51,78
3,51,0,100
3,60,51,92
3,60,0,125
3,68,46,67
3,68,0,113
3,63,42,79
3,63,0,77
3,53,51,115
3,57,23,28
3,65,55,192
3,57,0,26
3,53,0,39
3,60,49,31
3,65,0,49
3,60,0,41
3,57,33,6
3,57,0,135
3,48,55,57
3,48,0,165
3,57,33,27
3,57,0,142
3,65,58,50
3,65,0,119
3,60,52,73
3,60,0,87
3,46,56,105
3,53,57,187
3,46,0,59
3,53,0,94
3,65,48,39
3,61,51,96
3,65,0,24
3,58,38,72
3,61,0,13
3,58,0,124
3,53,56,55
3,53,0,88
3,58,45,104
3,58,0,131
3,65,55,61
3,65,0,123
3,61,45,69
3,61,0,83
3,51,55,5
3,58,55,138
3,51,0,71
3,58,0,62
3,67,36,59
3,65,48,96
3,67,0,14
3,61,52,82
3,65,0,3
3,61,0,104
3,51,58,85
3,51,0,102
3,61,50,90
3,61,0,119
3,67,55,73
3,67,0,118
3,65,42,74
3,65,0,90
3,58,40,1124
3,62,55,70
3,46,28,55
3,65,43,18
3,68,50,31
3,58,0,1274
3,65,0,87
3,62,0,7
