track,note,velocity,time
3,43,63,2307
3,59,59,3
3,55,54,3
3,62,54,0
3,62,47,93
3,53,49,1
3,57,52,2
3,60,57,66
3,55,52,0
3,52,50,0
3,60,44,132
3,43,41,0
3,55,46,4
3,51,27,0
3,54,50,0
3,43,50,2
3,50,52,3
3,59,57,0
3,60,57,1
3,59,62,117
3,43,50,24
3,59,46,1
3,53,50,2
3,50,42,0
3,60,63,0
3,59,62,3
3,57,49,0
3,49,36,3
3,52,51,2
3,43,45,4
3,55,55,2
3,60,55,1
3,43,59,0
3,52,50,2
3,43,63,6157
3,59,59,3
3,55,54,3
3,62,54,0
3,62,47,93
3,53,49,1
3,57,52,2
3,60,57,66
3,55,52,0
3,52,50,0
3,60,44,132
3,43,41,0
3,55,46,4
3,51,27,0
3,54,50,0
3,43,50,2
3,50,52,3
3,59,57,0
3,60,57,1
3,59,62,117
3,43,50,24
3,59,46,1
3,53,50,2
3,50,42,0
3,60,63,0
3,59,62,3
3,57,49,0
3,49,36,3
3,52,51,2
3,43,45,4
3,55,55,2
3,60,55,1
3,43,59,0
3,52,50,2
3,43,63,13
3,59,59,3
3,55,54,3
3,62,54,0
3,62,47,93
3,53,49,1
3,57,52,2
3,60,57,66
3,55,52,0
3,52,50,0
3,60,44,132
3,43,41,0
3,55,46,4
3,51,27,0
3,54,50,0
3,43,50,2
3,50,52,3
3,59,57,0
3,60,57,1
3,59,62,117
3,43,50,24
3,59,46,1
3,53,50,2
3,50,42,0
3,60,63,0
3,59,62,3
3,57,49,0
3,49,36,3
3,52,51,2
3,43,45,4
3,55,55,2
3,60,55,1
3,43,59,0
3,52,50,2
3,55,67,12
3,50,69,1
3,43,66,2
3,38,53,16
3,57,67,1
3,50,64,2
3,43,76,22
3,59,73,0
3,50,73,4
3,55,82,17
3,48,81,0
3,60,75,2
3,43,58,23
3,55,69,2
3,59,61,0
3,50,71,1
3,38,50,39
3,54,77,0
3,57,70,1
3,50,67,1
3,40,61,4
3,55,73,0
3,50,68,2
3,52,63,34
3,57,74,1
3,36,76,0
3,43,69,16
3,55,68,2
3,50,67,1
3,59,66,1
3,38,68,42
3,57,73,3
3,54,84,0
3,50,66,0
3,59,74,674
3,57,71,10
3,45,71,1
3,60,70,0
3,52,71,1
3,40,85,23
3,55,67,0
3,59,63,3
3,52,56,1
3,36,62,1
3,52,72,1
3,48,70,5
3,52,78,11
3,59,73,0
3,48,70,1
3,55,74,5
3,50,72,0
3,38,54,5
3,54,67,28
3,50,59,1
3,43,63,13
3,59,59,3
3,55,54,3
3,62,54,0
3,62,47,93
3,53,49,1
3,57,52,2
3,60,57,66
3,55,52,0
3,52,50,0
3,60,44,132
3,43,41,0
3,55,46,4
3,51,27,0
3,54,50,0
3,43,50,2
3,50,52,3
3,59,57,0
3,60,57,1
3,59,62,117
3,43,50,24
3,59,46,1
3,53,50,2
3,50,42,0
3,60,63,0
3,59,62,3
3,57,49,0
3,49,36,3
3,52,51,2
3,43,45,4
3,55,55,2
3,60,55,1
3,43,59,0
3,52,50,2
3,43,63,13
3,59,59,3
3,55,54,3
3,62,54,0
3,62,47,93
3,53,49,1
3,57,52,2
3,60,57,66
3,55,52,0
3,52,50,0
3,60,44,132
3,43,41,0
3,55,46,4
3,51,27,0
3,54,50,0
3,43,50,2
3,50,52,3
3,59,57,0
3,60,57,1
3,59,62,117
3,43,50,24
3,59,46,1
3,53,50,2
3,50,42,0
3,60,63,0
3,59,62,3
3,57,49,0
3,49,36,3
3,52,51,2
3,43,45,4
3,55,55,2
3,60,55,1
3,43,59,0
3,52,50,2
3,43,63,13
3,59,59,3
3,55,54,3
3,62,54,0
3,62,47,93
3,53,49,1
3,57,52,2
3,60,57,66
3,55,52,0
3,52,50,0
3,60,44,132
3,43,41,0
3,55,46,4
3,51,27,0
3,54,50,0
3,43,50,2
3,50,52,3
3,59,57,0
3,60,57,1
3,59,62,117
3,43,50,24
3,59,46,1
3,53,50,2
3,50,42,0
3,60,63,0
3,59,62,3
3,57,49,0
3,49,36,3
3,52,51,2
3,43,45,4
3,55,55,2
3,60,55,1
3,43,59,0
3,52,50,2
3,55,67,12
3,50,69,1
3,43,66,2
3,38,53,16
3,57,67,1
3,50,64,2
3,43,76,22
3,59,73,0
3,50,73,4
3,55,82,17
3,48,81,0
3,60,75,2
3,43,58,23
3,55,69,2
3,59,61,0
3,50,71,1
3,38,50,39
3,54,77,0
3,57,70,1
3,50,67,1
3,40,61,4
3,55,73,0
3,50,68,2
3,52,63,34
3,57,74,1
3,36,76,0
3,43,69,16
3,55,68,2
3,50,67,1
3,59,66,1
3,38,68,42
3,57,73,3
3,54,84,0
3,50,66,0
3,59,74,674
3,57,71,10
3,45,71,1
3,60,70,0
3,52,71,1
3,40,85,23
3,55,67,0
3,59,63,3
3,52,56,1
3,36,62,1
3,52,72,1
3,48,70,5
3,52,78,11
3,59,73,0
3,48,70,1
3,55,74,5
3,50,72,0
3,38,54,5
3,54,67,28
3,50,59,1
3,55,67,12
3,50,69,1
3,43,66,2
3,38,53,16
3,57,67,1
3,50,64,2
3,43,76,22
3,59,73,0
3,50,73,4
3,55,82,17
3,48,81,0
3,60,75,2
3,43,58,23
3,55,69,2
3,59,61,0
3,50,71,1
3,38,50,39
3,54,77,0
3,57,70,1
3,50,67,1
3,40,61,4
3,55,73,0
3,50,68,2
3,52,63,34
3,57,74,1
3,36,76,0
3,43,69,16
3,55,68,2
3,50,67,1
3,59,66,1
3,38,68,42
3,57,73,3
3,54,84,0
3,50,66,0
3,59,74,674
3,57,71,10
3,45,71,1
3,60,70,0
3,52,71,1
3,40,85,23
3,55,67,0
3,59,63,3
3,52,56,1
3,36,62,1
3,52,72,1
3,48,70,5
3,52,78,11
3,59,73,0
3,48,70,1
3,55,74,5
3,50,72,0
3,38,54,5
3,54,67,28
3,50,59,1
3,43,63,13
3,59,59,3
3,55,54,3
3,62,54,0
3,62,47,93
3,53,49,1
3,57,52,2
3,60,57,66
3,55,52,0
3,52,50,0
3,60,44,132
3,43,41,0
3,55,46,4
3,51,27,0
3,43,63,5
3,59,59,3
3,55,54,3
3,62,54,0
3,62,47,93
3,53,49,1
3,57,52,2
3,60,57,66
3,55,52,0
3,52,50,0
3,60,44,132
3,43,41,0
3,55,46,4
3,51,27,0
3,54,50,0
3,43,50,2
3,50,52,3
3,59,57,0
3,60,57,1
3,59,62,117
3,43,50,24
3,59,46,1
3,53,50,2
3,50,42,0
3,60,63,0
3,59,62,3
3,57,49,0
3,49,36,3
3,52,51,2
3,43,45,4
3,55,55,2
3,60,55,1
3,43,59,0
3,52,50,2
3,43,51,10
3,59,53,2
3,55,47,2
3,62,44,0
4,31,112,8448
4,38,101,66
4,31,95,318
4,38,92,12
4,50,92,1
4,31,112,0
4,38,101,66
4,31,95,318
4,38,92,12
4,50,92,1
4,31,102,0
4,36,91,66
4,31,85,318
4,36,82,13
4,48,50,0
4,31,102,0
4,36,91,66
4,31,85,318
4,36,82,13
4,48,50,0
4,31,112,0
4,38,101,66
4,31,95,318
4,38,92,12
4,50,92,1
4,31,112,0
4,38,101,66
4,31,95,318
4,38,92,12
4,50,92,1
4,31,112,0
4,37,101,66
4,31,95,318
4,37,92,13
4,49,92,0
4,40,92,0
4,52,92,0
4,37,92,0
4,49,92,0
4,40,92,0
4,52,92,0
4,31,112,0
4,36,101,66
4,31,95,318
4,36,92,13
4,48,92,0
4,31,112,0
4,38,101,66
4,31,95,318
4,38,92,12
4,50,92,1
4,31,112,0
4,38,101,66
4,31,95,318
4,38,92,12
4,50,92,1
4,31,102,0
4,36,91,66
4,31,85,318
4,36,82,13
4,48,50,0
4,31,102,0
4,36,91,66
4,31,85,318
4,36,82,13
4,48,50,0
4,31,112,0
4,38,101,66
4,31,95,318
4,38,92,12
4,50,92,1
4,31,112,0
4,38,101,66
4,31,95,318
4,38,92,12
4,50,92,1
4,31,112,0
4,37,101,66
4,31,95,318
4,37,92,13
4,49,92,0
4,40,92,0
4,52,92,0
4,37,92,0
4,49,92,0
4,40,92,0
4,52,92,0
4,31,112,0
4,36,101,66
4,47,101,318
4,45,81,47
4,43,83,38
4,38,85,17
4,31,112,0
4,38,101,66
4,31,95,318
4,38,92,12
4,50,92,1
4,31,112,0
4,38,101,66
4,31,95,318
4,38,92,12
4,50,92,1
4,31,102,0
4,36,91,66
4,31,85,318
4,36,82,13
4,48,50,0
4,31,102,0
4,36,91,66
4,31,85,318
4,36,82,13
4,48,50,0
4,31,112,0
4,38,101,66
4,31,95,318
4,38,92,12
4,50,92,1
4,31,112,0
4,38,101,66
4,31,95,318
4,38,92,12
4,50,92,1
4,31,112,0
4,37,101,66
4,31,95,318
4,37,92,13
4,49,92,0
4,40,92,0
4,52,92,0
4,37,92,0
4,49,92,0
4,40,92,0
4,52,92,0
4,31,112,0
4,36,101,66
4,31,95,318
4,36,92,13
4,48,92,0
4,31,94,2
4,31,104,109
4,31,108,103
4,31,106,54
4,31,89,49
4,26,92,12
4,26,84,25
4,26,86,94
4,26,86,87
4,26,94,51
4,26,101,67
4,31,95,25
4,31,99,98
4,31,106,96
4,31,95,60
4,31,108,67
4,24,114,22
4,24,108,97
4,24,106,88
4,24,78,19
4,24,108,43
4,24,110,44
4,26,104,32
4,26,101,104
4,26,104,106
4,26,104,62
4,26,106,58
4,26,106,33
4,26,112,102
4,26,95,102
4,26,108,65
4,26,108,68
4,31,104,40
4,28,81,9
4,28,99,63
4,28,77,43
4,35,92,13
4,28,84,50
4,28,85,73
4,24,101,18
4,24,102,102
4,24,102,92
4,24,97,52
4,24,106,57
4,31,99,40
4,31,101,93
4,31,106,90
4,31,99,54
4,31,106,58
4,26,91,31
4,26,54,53
4,26,97,35
4,26,101,92
4,26,92,58
4,26,95,50
4,33,110,38
4,33,102,111
4,33,104,107
4,33,99,59
4,33,104,54
4,28,94,44
4,28,108,95
4,28,112,106
4,28,102,58
4,28,106,59
4,24,108,36
4,24,116,104
4,24,110,100
4,24,99,57
4,24,108,50
4,26,104,30
4,26,106,103
4,26,108,108
4,26,101,63
4,26,104,58
4,26,104,34
4,47,88,2
4,45,83,5
4,40,76,14
4,38,78,44
4,35,77,45
4,33,97,41
4,31,112,5
4,38,101,66
4,31,95,318
4,38,92,12
4,50,92,1
4,31,112,0
4,38,101,66
4,31,95,318
4,38,92,12
4,50,92,1
4,31,102,0
4,36,91,66
4,31,85,318
4,36,82,13
4,48,50,0
4,31,102,0
4,36,91,66
4,31,85,318
4,36,82,13
4,48,50,0
4,31,112,0
4,38,101,66
4,31,95,318
4,38,92,12
4,50,92,1
4,31,112,0
4,38,101,66
4,31,95,318
4,38,92,12
4,50,92,1
4,31,112,0
4,37,101,66
4,31,95,318
4,37,92,13
4,49,92,0
4,40,92,0
4,52,92,0
4,37,92,0
4,49,92,0
4,40,92,0
4,52,92,0
4,31,112,0
4,36,101,66
4,31,95,318
4,36,92,13
4,48,92,0
4,31,112,0
4,38,101,66
4,31,95,318
4,38,92,12
4,50,92,1
4,31,112,0
4,38,101,66
4,31,95,318
4,38,92,12
4,50,92,1
4,31,102,0
4,36,91,66
4,31,85,318
4,36,82,13
4,48,50,0
4,31,102,0
4,36,91,66
4,31,85,318
4,36,82,13
4,48,50,0
4,31,112,0
4,38,101,66
4,31,95,318
4,38,92,12
4,50,92,1
4,31,112,0
4,38,101,66
4,31,95,318
4,38,92,12
4,50,92,1
4,31,112,0
4,37,101,66
4,31,95,318
4,37,92,13
4,49,92,0
4,40,92,0
4,52,92,0
4,37,92,0
4,49,92,0
4,40,92,0
4,52,92,0
4,31,112,0
4,36,101,66
4,31,95,318
4,36,92,13
4,48,92,0
4,31,112,0
4,38,101,66
4,31,95,318
4,38,92,12
4,50,92,1
4,31,112,0
4,38,101,66
4,31,95,318
4,38,92,12
4,50,92,1
4,31,102,0
4,36,91,66
4,31,85,318
4,36,82,13
4,48,50,0
4,31,102,0
4,36,91,66
4,31,85,318
4,36,82,13
4,48,50,0
4,31,112,0
4,38,101,66
4,31,95,318
4,38,92,12
4,50,92,1
4,31,112,0
4,38,101,66
4,31,95,318
4,38,92,12
4,50,92,1
4,31,112,0
4,37,101,66
4,31,95,318
4,37,92,13
4,49,92,0
4,40,92,0
4,52,92,0
4,37,92,0
4,49,92,0
4,40,92,0
4,52,92,0
4,31,112,0
4,36,101,66
4,31,95,318
4,36,92,13
4,48,92,0
4,31,94,2
4,31,104,109
4,31,108,103
4,31,106,54
4,31,89,49
4,26,92,12
4,26,84,25
4,26,86,94
4,26,86,87
4,26,94,51
4,26,101,67
4,31,95,25
4,31,99,98
4,31,106,96
4,31,95,60
4,31,108,67
4,24,114,22
4,24,108,97
4,24,106,88
4,24,78,19
4,24,108,43
4,24,110,44
4,26,104,32
4,26,101,104
4,26,104,106
4,26,104,62
4,26,106,58
4,26,106,33
4,26,112,102
4,26,95,102
4,26,108,65
4,26,108,68
4,31,104,40
4,28,81,9
4,28,99,63
4,28,77,43
4,35,92,13
4,28,84,50
4,28,85,73
4,24,101,18
4,24,102,102
4,24,102,92
4,24,97,52
4,24,106,57
4,31,99,40
4,31,101,93
4,31,106,90
4,31,99,54
4,31,106,58
4,26,91,31
4,26,54,53
4,26,97,35
4,26,101,92
4,26,92,58
4,26,95,50
4,33,110,38
4,33,102,111
4,33,104,107
4,33,99,59
4,33,104,54
4,28,94,44
4,28,108,95
4,28,112,106
4,28,102,58
4,28,106,59
4,24,108,36
4,24,116,104
4,24,110,100
4,24,99,57
4,24,108,50
4,26,104,30
4,26,106,103
4,26,108,108
4,26,101,63
4,26,104,58
4,26,104,35
4,26,106,103
4,26,108,108
4,26,101,63
4,26,104,58
4,31,94,39
4,31,104,109
4,31,108,103
4,31,106,54
4,31,89,49
4,26,92,12
4,26,84,25
4,26,86,94
4,26,86,87
4,26,94,51
4,26,101,67
4,31,95,25
4,31,99,98
4,31,106,96
4,31,95,60
4,31,108,67
4,24,114,22
4,24,108,97
4,24,106,88
4,24,78,19
4,24,108,43
4,24,110,44
4,26,104,32
4,26,101,104
4,26,104,106
4,26,104,62
4,26,106,58
4,26,106,33
4,26,112,102
4,26,95,102
4,26,108,65
4,26,108,68
4,31,104,40
4,28,81,9
4,28,99,63
4,28,77,43
4,35,92,13
4,28,84,50
4,28,85,73
4,24,101,18
4,24,102,102
4,24,102,92
4,24,97,52
4,24,106,57
4,31,99,40
4,31,101,93
4,31,106,90
4,31,99,54
4,31,106,58
4,26,91,31
4,26,54,53
4,26,97,35
4,26,101,92
4,26,92,58
4,26,95,50
4,33,110,38
4,33,102,111
4,33,104,107
4,33,99,59
4,33,104,54
4,28,94,44
4,28,108,95
4,28,112,106
4,28,102,58
4,28,106,59
4,24,108,36
4,24,116,104
4,24,110,100
4,24,99,57
4,24,108,50
4,26,104,30
4,26,106,103
4,26,108,108
4,26,101,63
4,26,104,58
4,26,104,34
4,26,106,109
4,48,89,108
4,43,77,22
4,46,87,48
4,43,88,7
4,41,101,49
4,38,70,43
4,36,86,42
4,34,103,43
4,31,112,15
4,38,101,66
4,31,95,318
4,38,92,12
4,50,92,1
4,31,112,0
4,38,101,66
4,31,95,318
4,38,92,12
4,50,92,1
4,31,102,0
4,36,91,66
4,31,85,318
4,36,82,13
4,48,50,0
4,31,102,0
4,36,91,66
4,31,85,318
4,36,82,13
4,48,50,0
4,31,112,0
4,38,101,66
4,31,95,318
4,38,92,12
4,50,92,1
4,31,112,0
4,38,101,66
4,31,95,318
4,38,92,12
4,50,92,1
4,31,102,0
4,36,91,66
4,31,85,318
4,36,82,13
4,48,50,0
4,31,102,0
4,36,91,66
4,31,85,318
4,36,82,13
4,48,50,0
4,31,112,0
4,38,101,66
4,31,95,318
4,38,92,12
4,50,92,1
4,31,112,0
4,38,101,66
4,31,95,318
4,38,92,12
4,50,92,1
4,31,112,0
4,37,101,66
4,31,95,318
4,36,92,13
4,48,60,0
4,31,112,0
4,36,101,66
4,31,73,559
