track,note,velocity,time
0,52,65,69
0,55,63,0
0,60,63,0
0,35,107,3
0,48,63,0
0,52,63,0
0,55,63,0
0,60,93,0
0,81,73,0
0,82,67,0
0,35,0,4
0,81,0,0
0,82,0,0
0,69,52,44
0,69,0,4
0,82,67,44
0,82,0,4
0,69,52,44
0,80,61,0
0,69,0,4
0,80,0,0
0,36,94,44
0,82,67,0
0,87,97,0
0,82,0,4
0,87,0,0
0,60,0,20
0,62,89,24
0,69,52,0
0,69,0,4
0,62,0,18
0,80,65,26
0,82,67,0
0,80,0,4
0,82,0,0
0,35,87,44
0,60,93,0
0,69,52,0
0,35,0,4
0,69,0,0
0,48,0,8
0,52,0,0
0,55,0,0
0,52,0,17
0,55,0,2
0,53,67,14
0,57,65,0
0,35,107,3
0,48,63,0
0,53,63,0
0,57,63,0
0,82,67,0
0,35,0,4
0,82,0,0
0,69,52,44
0,80,63,0
0,69,0,4
0,80,0,0
0,82,67,44
0,82,0,4
0,69,52,44
0,69,0,4
0,80,63,44
0,82,67,0
0,87,97,0
0,80,0,4
0,82,0,0
0,87,0,0
0,60,0,32
0,59,93,12
0,69,52,0
0,69,0,4
0,59,0,22
0,82,67,22
0,82,0,4
0,60,97,44
0,69,52,0
0,80,65,0
0,69,0,4
0,80,0,0
0,48,0,8
0,53,0,0
0,57,0,0
0,53,0,28
0,57,0,0
0,52,67,5
0,55,61,0
0,35,107,3
0,48,63,0
0,52,63,0
0,55,63,0
0,80,54,0
0,82,67,0
0,35,0,4
0,80,0,0
0,82,0,0
0,69,52,44
0,69,0,4
0,82,67,44
0,82,0,4
0,69,52,44
0,80,61,0
0,69,0,4
0,80,0,0
0,36,0,22
0,36,94,22
0,82,67,0
0,87,97,0
0,82,0,4
0,87,0,0
0,60,0,22
0,62,97,5
0,69,52,0
0,69,0,4
0,62,0,16
0,80,65,28
0,82,67,0
0,80,0,4
0,82,0,0
0,35,87,44
0,60,93,0
0,69,52,0
0,35,0,4
0,69,0,0
0,48,0,8
0,52,0,0
0,55,0,0
0,52,0,25
0,55,0,3
0,53,67,5
0,57,65,0
0,35,107,3
0,48,63,0
0,53,63,0
0,57,63,0
0,82,67,0
0,35,0,4
0,82,0,0
0,69,52,44
0,80,63,0
0,69,0,4
0,80,0,0
0,82,67,44
0,82,0,4
0,69,52,44
0,69,0,4
0,80,63,44
0,82,67,0
0,87,97,0
0,80,0,4
0,82,0,0
0,87,0,0
0,60,0,36
0,59,93,8
0,69,52,0
0,69,0,4
0,59,0,24
0,82,67,20
0,82,0,4
0,60,89,44
0,69,52,0
0,80,65,0
0,69,0,4
0,80,0,0
0,48,0,8
0,53,0,0
0,57,0,0
0,53,0,28
0,57,0,0
0,52,69,5
0,55,63,0
0,35,107,3
0,48,63,0
0,52,63,0
0,55,63,0
0,81,73,0
0,82,67,0
0,35,0,4
0,81,0,0
0,82,0,0
0,69,52,44
0,69,0,4
0,82,67,44
0,82,0,4
0,69,52,44
0,80,61,0
0,69,0,4
0,80,0,0
0,36,0,24
0,36,80,20
0,82,67,0
0,87,97,0
0,82,0,4
0,87,0,0
0,60,0,22
0,62,93,22
0,69,52,0
0,69,0,4
0,62,0,16
0,80,65,28
0,82,67,0
0,80,0,4
0,82,0,0
0,35,87,44
0,60,89,0
0,69,52,0
0,35,0,4
0,69,0,0
0,48,0,8
0,52,0,0
0,55,0,0
0,55,0,21
0,52,0,4
0,53,69,8
0,57,65,0
0,35,107,3
0,48,63,0
0,53,63,0
0,57,63,0
0,82,67,0
0,35,0,4
0,82,0,0
0,69,52,44
0,80,63,0
0,69,0,4
0,80,0,0
0,82,67,44
0,82,0,4
0,69,52,44
0,69,0,4
0,80,63,44
0,82,67,0
0,87,97,0
0,80,0,4
0,82,0,0
0,87,0,0
0,60,0,32
0,59,83,12
0,69,52,0
0,69,0,4
0,59,0,24
0,82,67,20
0,82,0,4
0,60,89,44
0,69,52,0
0,80,65,0
0,69,0,4
0,80,0,0
0,48,0,8
0,53,0,0
0,57,0,0
0,53,0,28
0,57,0,0
0,52,63,5
0,55,65,0
0,35,107,3
0,48,63,0
0,52,63,0
0,55,63,0
0,80,54,0
0,82,67,0
0,35,0,4
0,80,0,0
0,82,0,0
0,69,52,44
0,69,0,4
0,82,67,44
0,82,0,4
0,69,52,44
0,80,61,0
0,69,0,4
0,80,0,0
0,36,0,20
0,36,94,24
0,82,67,0
0,87,97,0
0,82,0,4
0,87,0,0
0,60,0,20
0,62,93,24
0,69,52,0
0,69,0,4
0,62,0,18
0,80,65,26
0,82,67,0
0,80,0,4
0,82,0,0
0,35,87,44
0,60,93,0
0,69,52,0
0,35,0,4
0,69,0,0
0,48,0,8
0,52,0,0
0,55,0,0
0,55,0,25
0,52,0,2
0,53,67,6
0,57,65,0
0,35,107,3
0,48,63,0
0,53,63,0
0,57,63,0
0,82,67,0
0,35,0,4
0,82,0,0
0,69,52,44
0,80,63,0
0,69,0,4
0,80,0,0
0,82,67,44
0,82,0,4
0,69,52,44
0,69,0,4
0,80,63,44
0,82,67,0
0,87,97,0
0,80,0,4
0,82,0,0
0,87,0,0
0,60,0,20
0,59,79,24
0,69,52,0
0,69,0,4
0,59,0,30
0,82,67,14
0,82,0,4
0,60,89,44
0,69,52,0
0,80,65,0
0,69,0,4
0,80,0,0
0,48,0,8
0,53,0,0
0,57,0,0
0,53,0,28
0,57,0,0
0,52,67,5
0,55,63,0
0,35,107,3
0,48,63,0
0,52,63,0
0,55,63,0
0,81,73,0
0,82,67,0
0,35,0,4
0,81,0,0
0,82,0,0
0,69,52,44
0,69,0,4
0,55,73,44
0,82,67,0
0,82,0,4
0,55,0,42
0,67,113,2
0,69,52,0
0,80,61,0
0,69,0,4
0,80,0,0
0,67,0,18
0,36,0,8
0,36,98,18
0,67,101,0
0,82,67,0
0,87,97,0
0,82,0,4
0,87,0,0
0,60,0,14
0,67,0,6
0,64,97,24
0,67,101,0
0,69,52,0
0,69,0,4
0,67,0,20
0,64,0,2
0,67,97,22
0,80,65,0
0,82,67,0
0,80,0,4
0,82,0,0
0,67,0,20
0,35,87,24
0,62,101,0
0,67,101,0
0,69,52,0
0,35,0,4
0,69,0,0
0,48,0,8
0,52,0,0
0,55,0,0
0,52,0,15
0,55,0,4
0,53,67,14
0,57,69,0
0,35,107,3
0,48,63,0
0,53,63,0
0,57,63,0
0,82,67,0
0,35,0,4
0,82,0,0
0,67,0,36
0,65,87,8
0,69,52,0
0,80,63,0
0,69,0,4
0,80,0,0
0,82,67,44
0,82,0,4
0,65,0,22
0,62,0,14
0,60,71,8
0,65,105,0
0,69,52,0
0,69,0,4
0,60,0,30
0,62,89,14
0,80,63,0
0,82,67,0
0,87,97,0
0,80,0,4
0,82,0,0
0,87,0,0
0,65,0,24
0,62,0,4
0,64,97,16
0,64,89,0
0,69,52,0
0,69,0,4
0,64,0,24
0,64,0,16
0,64,105,4
0,82,67,0
0,82,0,4
0,60,101,44
0,69,52,0
0,80,65,0
0,69,0,4
0,80,0,0
0,48,0,8
0,53,0,0
0,57,0,0
0,53,0,28
0,57,0,0
0,52,71,5
0,55,65,0
0,35,107,3
0,48,63,0
0,52,63,0
0,55,63,0
0,80,54,0
0,82,67,0
0,35,0,4
0,80,0,0
0,82,0,0
0,69,52,44
0,69,0,4
0,82,67,44
0,82,0,4
0,69,52,44
0,80,61,0
0,69,0,4
0,80,0,0
0,36,0,24
0,36,106,20
0,82,67,0
0,87,97,0
0,82,0,4
0,87,0,0
0,60,0,20
0,64,89,24
0,69,52,0
0,69,0,4
0,64,0,18
0,80,65,26
0,82,67,0
0,80,0,4
0,82,0,0
0,64,0,24
0,35,87,20
0,55,105,0
0,62,101,0
0,69,52,0
0,35,0,4
0,69,0,0
0,48,0,8
0,52,0,0
0,55,0,0
0,55,0,16
0,52,0,3
0,55,0,6
0,53,65,8
0,57,67,0
0,35,107,3
0,48,63,0
0,53,63,0
0,57,63,0
0,64,119,0
0,82,67,0
0,35,0,4
0,82,0,0
0,64,0,38
0,62,69,6
0,69,52,0
0,80,63,0
0,69,0,4
0,80,0,0
0,62,0,18
0,62,101,26
0,82,67,0
0,82,0,4
0,62,0,26
0,62,0,12
0,60,89,6
0,62,83,0
0,69,52,0
0,69,0,4
0,60,0,34
0,62,71,10
0,80,63,0
0,82,67,0
0,87,97,0
0,80,0,4
0,82,0,0
0,87,0,0
0,62,0,34
0,62,0,2
0,60,87,8
0,64,89,0
0,69,52,0
0,69,0,4
0,64,0,34
0,82,67,10
0,82,0,4
0,60,0,14
0,60,109,30
0,60,97,0
0,69,52,0
0,80,65,0
0,69,0,4
0,80,0,0
0,48,0,8
0,53,0,0
0,57,0,0
0,57,0,25
0,53,0,3
0,52,65,5
0,55,65,0
0,35,107,3
0,48,63,0
0,52,63,0
0,55,63,0
0,81,73,0
0,82,67,0
0,35,0,4
0,81,0,0
0,82,0,0
0,69,52,44
0,69,0,4
0,82,67,44
0,82,0,4
0,69,52,44
0,80,61,0
0,69,0,4
0,80,0,0
0,36,0,18
0,36,102,26
0,82,67,0
0,87,97,0
0,82,0,4
0,87,0,0
0,60,0,16
0,60,0,20
0,55,79,8
0,64,101,0
0,69,52,0
0,69,0,4
0,55,0,16
0,64,0,0
0,55,97,28
0,80,65,0
0,82,67,0
0,80,0,4
0,82,0,0
0,55,0,14
0,35,87,30
0,55,105,0
0,62,97,0
0,69,52,0
0,35,0,4
0,69,0,0
0,48,0,8
0,52,0,0
0,55,0,0
0,55,0,8
0,52,0,20
0,55,0,0
0,53,65,5
0,57,69,0
0,35,107,3
0,48,63,0
0,53,63,0
0,57,63,0
0,69,119,0
0,82,67,0
0,35,0,4
0,82,0,0
0,69,0,24
0,69,105,20
0,69,52,0
0,80,63,0
0,69,0,4
0,80,0,0
0,69,0,22
0,69,91,22
0,82,67,0
0,82,0,4
0,69,0,20
0,62,0,8
0,60,75,16
0,69,109,0
0,69,52,0
0,69,0,4
0,60,0,32
0,62,89,12
0,80,63,0
0,82,67,0
0,87,97,0
0,80,0,4
0,82,0,0
0,87,0,0
0,69,0,28
0,62,0,2
0,64,79,14
0,69,52,0
0,71,109,0
0,69,0,4
0,64,0,20
0,82,67,24
0,82,0,4
0,71,0,26
0,60,97,18
0,69,113,0
0,69,52,0
0,80,65,0
0,69,0,4
0,80,0,0
0,48,0,8
0,53,0,0
0,57,0,0
0,53,0,23
0,57,0,2
0,52,65,8
0,55,65,0
0,35,107,3
0,48,63,0
0,52,63,0
0,55,63,0
0,80,54,0
0,82,67,0
0,35,0,4
0,80,0,0
0,82,0,0
0,69,0,28
0,67,101,16
0,69,52,0
0,69,0,4
0,67,0,20
0,67,105,24
0,82,67,0
0,82,0,4
0,69,52,44
0,80,61,0
0,69,0,4
0,80,0,0
0,36,0,26
0,36,94,18
0,82,67,0
0,87,97,0
0,82,0,4
0,87,0,0
0,60,0,8
0,64,97,36
0,69,52,0
0,69,0,4
0,64,0,20
0,80,65,24
0,82,67,0
0,80,0,4
0,82,0,0
0,35,87,44
0,62,97,0
0,69,52,0
0,35,0,4
0,69,0,0
0,48,0,8
0,52,0,0
0,55,0,0
0,52,0,25
0,55,0,0
0,53,67,8
0,57,69,0
0,35,107,3
0,48,63,0
0,53,63,0
0,57,63,0
0,82,67,0
0,35,0,4
0,82,0,0
0,69,52,44
0,80,63,0
0,69,0,4
0,80,0,0
0,82,67,44
0,82,0,4
0,62,0,32
0,60,79,12
0,69,52,0
0,69,0,4
0,60,0,30
0,62,79,14
0,80,63,0
0,82,67,0
0,87,97,0
0,80,0,4
0,82,0,0
0,87,0,0
0,62,0,28
0,67,0,6
0,64,93,10
0,69,52,0
0,69,0,4
0,64,0,22
0,82,67,22
0,82,0,4
0,60,93,44
0,69,52,0
0,80,65,0
0,69,0,4
0,80,0,0
0,48,0,8
0,53,0,0
0,57,0,0
0,53,0,28
0,57,0,0
0,52,69,5
0,55,63,0
0,35,107,3
0,48,63,0
0,52,63,0
0,55,63,0
0,81,73,0
0,82,67,0
0,35,0,4
0,81,0,0
0,82,0,0
0,69,52,44
0,69,0,4
0,82,67,44
0,82,0,4
0,55,83,44
0,69,52,0
0,80,61,0
0,69,0,4
0,80,0,0
0,36,0,30
0,36,94,14
0,67,87,0
0,82,67,0
0,87,97,0
0,55,0,4
0,82,0,0
0,87,0,0
0,67,0,18
0,60,0,2
0,64,101,24
0,67,83,0
0,69,52,0
0,69,0,4
0,64,0,12
0,67,0,6
0,67,87,26
0,80,65,0
0,82,67,0
0,80,0,4
0,82,0,0
0,67,0,20
0,35,87,24
0,62,93,0
0,67,105,0
0,69,52,0
0,35,0,4
0,69,0,0
0,48,0,8
0,52,0,0
0,55,0,0
0,60,0,17
0,52,0,6
0,55,0,0
0,36,0,7
0,55,67,3
0,59,67,0
0,62,67,0
0,35,98,3
0,35,75,0
0,35,107,0
0,47,79,0
0,82,67,0
0,35,0,4
0,82,0,0
0,67,0,32
0,65,71,12
0,69,52,0
0,80,63,0
0,69,0,4
0,80,0,0
0,65,0,20
0,65,75,24
0,82,67,0
0,82,0,4
0,65,0,20
0,62,0,10
0,60,75,14
0,65,91,0
0,69,52,0
0,69,0,4
0,60,0,36
0,62,75,8
0,80,63,0
0,82,67,0
0,87,97,0
0,80,0,4
0,82,0,0
0,87,0,0
0,65,0,24
0,62,0,10
0,64,97,10
0,67,83,0
0,69,52,0
0,69,0,4
0,64,0,20
0,67,0,2
0,65,75,22
0,82,67,0
0,82,0,4
0,60,97,44
0,69,52,0
0,80,65,0
0,69,0,4
0,80,0,0
0,35,0,12
0,35,0,8
0,47,0,0
0,59,0,13
0,62,0,0
0,65,0,1
0,52,67,7
0,60,67,0
0,33,106,3
0,33,93,0
0,35,107,0
0,45,93,0
0,64,87,0
0,80,54,0
0,82,67,0
0,35,0,4
0,80,0,0
0,82,0,0
0,69,52,44
0,69,0,4
0,82,67,44
0,82,0,4
0,69,52,44
0,80,61,0
0,69,0,4
0,80,0,0
0,82,67,44
0,87,97,0
0,82,0,4
0,87,0,0
0,60,0,22
0,55,87,22
0,64,101,0
0,69,52,0
0,64,0,4
0,69,0,0
0,55,0,14
0,64,0,0
0,55,101,30
0,80,65,0
0,82,67,0
0,80,0,4
0,82,0,0
0,55,0,16
0,35,87,28
0,55,105,0
0,62,101,0
0,69,52,0
0,35,0,4
0,69,0,0
0,55,0,20
0,33,0,6
0,60,0,5
0,52,0,2
0,33,0,1
0,45,0,0
0,59,67,7
0,62,67,0
0,31,102,3
0,31,89,0
0,35,107,0
0,43,97,0
0,64,109,0
0,82,67,0
0,35,0,4
0,82,0,0
0,62,87,44
0,64,0,0
0,69,52,0
0,80,63,0
0,69,0,4
0,80,0,0
0,62,0,36
0,60,83,8
0,82,67,0
0,82,0,4
0,60,0,28
0,62,0,2
0,60,63,14
0,64,113,0
0,69,52,0
0,69,0,4
0,60,0,30
0,62,79,14
0,80,63,0
0,82,67,0
0,87,97,0
0,80,0,4
0,82,0,0
0,87,0,0
0,64,0,30
0,62,0,6
0,62,91,8
0,64,101,0
0,69,52,0
0,69,0,4
0,64,0,20
0,82,67,24
0,82,0,4
0,62,0,30
0,60,83,14
0,60,93,0
0,69,52,0
0,80,65,0
0,69,0,4
0,80,0,0
0,55,0,27
0,31,0,1
0,43,0,0
0,31,0,4
0,59,0,3
0,62,0,0
0,53,67,6
0,57,67,0
0,60,67,0
0,29,102,3
0,29,93,0
0,35,107,0
0,41,75,0
0,81,73,0
0,82,67,0
0,35,0,4
0,81,0,0
0,82,0,0
0,69,52,44
0,69,0,4
0,82,67,44
0,82,0,4
0,69,52,44
0,80,61,0
0,69,0,4
0,80,0,0
0,82,67,44
0,87,97,0
0,82,0,4
0,87,0,0
0,60,0,14
0,64,97,30
0,69,52,0
0,69,0,4
0,64,0,16
0,80,65,28
0,82,67,0
0,80,0,4
0,82,0,0
0,35,87,44
0,60,97,0
0,69,52,0
0,35,0,4
0,69,0,0
