track,note,velocity,time
0,74,64,0
0,74,64,0
0,74,64,0
0,74,64,0
0,74,64,0
0,72,64,0
0,74,64,0
0,74,64,0
0,70,64,0
0,70,64,0
0,72,64,0
0,74,64,0
0,67,64,0
0,67,64,0
0,72,82,0
0,72,73,0
0,72,85,0
0,70,85,0
0,72,64,0
0,72,64,0
0,72,73,0
0,72,85,0
0,70,82,0
0,70,91,0
0,72,88,0
0,72,91,0
0,74,91,0
0,74,64,0
0,74,85,0
0,65,64,0
0,65,64,0
0,65,64,0
0,70,64,0
0,72,64,0
0,74,64,0
0,72,64,0
0,70,64,0
0,69,64,0
0,70,64,0
0,79,88,0
0,81,85,0
0,82,79,0
0,72,61,0
0,72,82,0
0,70,85,0
0,72,85,0
0,72,85,0
0,72,85,0
0,72,85,0
0,70,85,0
0,72,91,0
0,72,97,0
0,74,88,0
0,74,64,0
0,72,85,0
0,72,67,0
0,70,88,0
0,70,91,0
0,72,82,0
0,70,88,0
0,70,91,0
0,74,76,0
0,72,76,0
0,70,94,0
0,72,85,0
0,74,94,0
0,74,70,0
0,74,82,0
0,72,76,0
0,74,100,0
0,74,88,0
0,75,76,0
0,74,73,0
0,72,85,0
0,72,79,0
0,74,91,0
0,67,76,0
0,67,64,0
0,72,58,0
0,70,82,0
0,72,70,0
0,70,85,0
0,72,61,0
0,70,82,0
0,72,76,0
0,72,64,0
0,72,64,0
0,70,64,0
0,72,64,0
0,72,64,0
0,74,70,0
0,70,76,0
0,65,82,0
0,65,82,0
0,65,64,0
0,70,85,0
0,72,70,0
0,74,70,0
0,72,61,0
0,70,82,0
0,69,88,0
0,70,94,0
0,79,91,0
0,81,91,0
0,82,88,0
0,72,82,0
0,72,94,0
0,70,94,0
0,72,94,0
0,72,64,0
0,72,64,0
0,72,64,0
0,70,85,0
0,72,67,0
0,72,67,0
0,74,79,0
0,74,76,0
0,72,100,0
0,72,91,0
0,70,100,0
0,70,91,0
0,72,67,0
0,70,67,0
0,70,67,0
0,77,52,0
0,77,70,0
0,77,70,0
0,75,85,0
0,75,82,0
0,75,79,0
0,74,82,0
0,74,79,0
0,74,88,0
0,72,67,0
0,70,67,0
0,72,67,0
0,72,67,0
0,72,64,0
0,70,73,0
0,72,73,0
0,72,64,0
0,72,79,0
0,65,58,0
0,74,85,0
0,74,82,0
0,72,76,0
0,72,79,0
0,70,73,0
0,70,79,0
0,72,76,0
0,72,58,0
0,70,82,0
0,70,76,0
0,74,73,0
0,74,76,0
0,74,61,0
0,74,76,0
0,74,82,0
0,77,70,0
0,74,82,0
0,74,76,0
0,75,64,0
0,74,85,0
0,72,82,0
0,72,82,0
0,72,85,0
0,70,76,0
0,72,76,0
0,72,67,0
0,72,70,0
0,74,67,0
0,67,76,0
0,67,85,0
0,72,82,0
0,70,85,0
0,72,79,0
0,70,70,0
0,72,61,0
0,70,67,0
0,72,67,0
0,70,70,0
0,72,70,0
0,70,73,0
0,72,91,0
0,72,73,0
0,72,79,0
0,70,79,0
0,72,82,0
0,72,76,0
0,70,82,0
0,70,76,0
0,74,85,0
0,74,85,0
0,70,79,0
0,70,76,0
0,65,91,0
0,65,85,0
0,70,82,0
0,72,67,0
0,74,76,0
0,72,67,0
0,70,79,0
0,69,64,0
0,70,79,0
0,67,82,0
0,70,76,0
0,79,67,0
0,81,73,0
0,82,79,0
0,81,76,0
0,82,85,0
0,74,64,0
0,72,79,0
0,72,67,0
0,72,67,0
0,70,73,0
0,72,91,0
0,72,76,0
0,72,85,0
0,74,82,0
0,72,82,0
0,72,79,0
0,65,70,0
0,65,79,0
0,74,82,0
0,74,85,0
0,72,88,0
0,72,64,0
0,70,91,0
0,70,91,0
0,72,85,0
0,70,85,0
0,70,67,0
0,77,79,0
0,77,85,0
0,77,88,0
0,75,82,0
0,75,79,0
0,75,76,0
0,74,85,0
0,74,64,0
0,74,76,0
0,75,82,0
0,72,85,0
0,72,82,0
0,77,82,0
0,77,76,0
0,77,79,0
0,75,79,0
0,75,70,0
0,75,76,0
0,74,88,0
0,74,85,0
0,74,73,0
0,75,82,0
0,72,85,0
0,72,88,0
0,74,91,0
0,72,55,0
0,70,70,0
0,67,76,0
0,72,85,0
0,72,88,0
0,74,82,0
0,72,79,0
0,70,94,0
0,74,64,0
0,72,64,0
0,65,64,0
0,67,64,0
0,70,64,0
0,74,52,0
0,72,55,0
0,70,64,0
0,74,46,0
0,72,58,0
0,70,58,0
0,74,79,0
0,74,73,0
0,74,61,0
0,74,70,0
0,74,79,0
0,74,82,0
0,74,76,0
0,74,82,0
0,72,76,0
0,70,79,0
0,74,82,0
0,74,82,0
0,74,70,0
0,74,58,0
0,72,40,0
0,74,70,0
0,74,70,0
0,77,88,0
0,74,76,0
0,74,79,0
0,72,67,0
0,72,73,0
0,72,64,0
0,72,64,0
0,70,64,0
0,72,64,0
0,72,64,0
0,72,64,0
0,74,64,0
0,67,64,0
0,67,67,0
0,67,64,0
0,72,64,0
0,72,64,0
0,70,64,0
0,72,64,0
0,72,64,0
0,70,64,0
0,72,64,0
0,72,64,0
0,65,64,0
0,74,64,0
0,74,64,0
0,72,64,0
0,72,64,0
0,70,64,0
0,70,64,0
2,31,105,9216
2,43,105,0
2,41,99,0
2,39,103,0
2,41,105,160
2,29,101,0
2,29,105,40
2,34,105,96
2,46,105,24
2,34,103,16
2,46,103,0
2,34,101,32
2,41,105,24
2,34,99,8
2,29,101,16
2,29,105,40
2,41,105,16
2,34,105,1
2,34,93,16
2,34,95,24
2,34,93,0
2,34,101,32
2,34,97,40
2,41,95,0
2,46,103,0
2,41,95,0
2,34,101,248
2,39,103,0
2,41,105,0
2,41,97,48
2,34,97,0
2,46,95,96
2,34,101,0
2,34,101,48
2,33,103,0
2,31,103,0
2,43,103,16
2,31,105,8
2,29,105,16
2,39,103,0
2,36,105,0
2,29,105,0
2,41,103,0
2,41,87,0
2,36,95,0
2,41,93,0
2,34,103,0
2,46,97,40
2,41,97,0
2,41,95,128
2,34,101,0
2,36,103,8
2,29,105,0
2,29,105,32
2,41,99,0
2,41,103,56
2,36,99,1
2,36,103,40
2,48,105,0
2,31,105,8
2,29,105,0
2,29,103,24
2,36,101,0
2,41,105,0
2,41,105,40
2,43,95,0
2,36,105,0
2,48,95,0
2,36,103,0
2,39,103,0
2,39,101,144
2,41,105,0
2,39,101,288
2,36,105,8
2,36,105,32
2,29,103,0
2,41,99,488
2,41,55,0
2,41,91,0
2,36,105,8
2,41,99,0
2,41,89,0
2,41,97,0
2,34,105,0
2,46,105,8
2,34,101,0
2,46,103,8
2,34,105,0
2,46,105,0
2,34,103,0
2,46,105,8
2,46,105,56
2,34,105,0
2,34,103,72
2,34,105,40
2,46,101,16
2,34,105,0
2,34,95,48
2,34,105,72
2,34,105,24
2,39,103,96
2,41,105,0
2,34,105,24
2,46,105,16
2,34,105,16
2,33,105,0
2,31,105,0
2,31,85,32
2,43,105,0
2,31,89,8
2,31,105,64
2,43,105,0
2,41,105,0
2,39,103,0
2,36,105,16
2,29,105,0
2,36,97,0
2,41,105,0
2,41,99,16
2,41,99,24
2,41,95,40
2,36,105,0
2,41,103,48
2,46,99,0
2,46,101,8
2,46,103,0
2,46,105,0
2,34,105,1
2,34,105,56
2,34,103,32
2,46,105,0
2,39,105,0
2,41,105,0
2,29,105,0
2,34,101,0
2,46,103,24
2,41,103,0
2,34,101,8
2,34,105,32
2,33,105,16
2,31,105,0
2,31,99,56
2,31,105,0
2,43,105,0
2,41,105,0
2,39,103,0
2,39,105,48
2,39,105,24
2,36,105,0
2,39,103,0
2,29,105,0
2,29,103,56
2,41,105,0
2,36,105,0
2,34,105,0
2,41,105,8
2,46,103,0
2,46,105,40
2,46,105,32
2,29,105,0
2,29,105,32
2,41,99,0
2,41,103,56
2,36,99,0
2,36,103,40
2,48,105,0
2,31,105,8
2,29,105,0
2,29,103,24
2,36,101,0
2,41,105,0
2,41,105,40
2,43,95,0
2,36,105,0
2,48,95,0
2,36,103,0
2,39,103,0
2,39,101,144
2,41,105,1
2,39,101,288
2,36,105,8
2,36,105,32
2,29,103,0
2,36,91,144
2,36,99,16
2,41,99,72
2,41,79,0
2,41,91,40
2,36,105,8
2,41,99,0
2,41,89,0
2,41,97,0
2,34,105,0
2,46,105,8
2,34,101,0
2,46,103,0
2,34,105,0
2,46,105,0
2,34,103,0
2,46,105,0
2,46,105,56
2,46,87,0
2,34,105,3840
2,46,105,8
2,34,101,0
2,46,103,8
2,34,105,0
2,46,105,0
2,34,103,0
2,46,105,8
2,46,105,56
2,34,105,0
2,46,105,8
2,34,101,0
2,46,103,0
2,34,105,0
2,46,105,0
2,34,103,0
2,46,105,8
2,46,105,56
2,34,103,0
3,70,65,3070
3,74,73,2
3,65,53,72
3,70,63,65
3,74,71,88
3,75,75,96
3,65,51,8
3,70,59,96
3,75,71,72
3,74,75,96
3,65,53,32
3,70,63,96
3,74,71,80
3,75,79,8
3,65,52,56
3,70,59,96
3,74,75,0
3,75,79,64
3,67,52,8
3,72,63,96
3,75,75,56
3,77,83,32
3,67,53,32
3,72,63,0
3,77,75,96
3,75,83,0
3,67,52,48
3,72,55,96
3,75,75,72
3,77,83,56
3,67,52,32
3,72,59,96
3,75,67,16
3,51,60,24
3,72,67,0
3,60,63,8
3,63,67,96
3,67,71,40
3,72,64,48
3,60,59,64
3,67,63,96
3,72,67,64
3,53,71,8
3,72,74,0
3,60,67,96
3,65,63,80
3,69,71,16
3,72,79,72
3,65,63,72
3,60,67,96
3,69,67,0
3,72,71,64
3,46,75,0
3,74,67,0
3,53,59,8
3,58,75,96
3,62,71,56
3,74,51,0
3,63,83,72
3,75,63,0
3,53,55,48
3,58,63,96
3,63,75,24
3,75,55,0
3,46,75,8
3,62,61,0
3,74,59,0
3,53,71,32
3,58,71,96
3,62,71,72
3,46,75,16
3,58,83,1
3,62,71,0
3,65,87,0
3,45,75,24
3,57,79,0
3,60,79,0
3,65,75,1
3,41,46,3072
3,57,63,0
3,60,63,0
3,65,67,0
3,70,71,66048
3,74,83,0
3,65,57,72
3,70,63,64
3,74,71,88
3,75,75,96
3,65,57,8
3,70,59,96
3,75,71,72
3,74,75,96
3,65,71,32
3,70,63,96
3,74,71,40
3,75,79,8
3,65,57,56
3,70,59,96
3,74,75,0
3,75,79,24
3,67,55,8
3,72,63,96
3,75,75,56
3,77,83,32
3,67,55,32
3,72,63,0
3,77,75,96
3,75,83,0
3,67,51,48
3,72,55,96
3,75,75,72
3,77,83,56
3,67,59,32
3,72,59,96
3,75,67,16
3,51,71,24
3,72,75,0
3,60,63,8
3,63,67,96
3,67,71,40
3,72,71,48
3,60,59,64
3,67,63,96
3,72,71,64
3,53,71,8
3,72,78,0
3,60,67,96
3,65,63,80
3,69,71,16
3,72,79,72
3,65,63,72
3,60,67,96
3,69,67,0
3,72,71,64
4,58,70,13824
4,62,70,0
4,60,70,0
4,63,70,0
4,67,70,0
4,62,56,1
4,65,61,0
4,69,54,0
5,62,75,16891
5,62,63,1
5,74,67,0
5,72,67,199
5,74,63,96
5,74,39,0
5,63,75,8
5,63,63,0
5,75,63,0
5,74,67,192
5,75,63,0
5,75,35,0
5,63,59,128
5,67,39,0
5,60,63,0
5,65,51,0
5,62,58,0
5,65,51,0
5,63,67,0
5,62,67,0
5,62,67,0
5,65,59,0
5,60,67,0
5,58,63,0
5,67,57,0
5,60,63,0
5,69,67,0
5,62,63,0
5,70,67,0
5,58,63,0
5,67,62,0
5,79,50,191
5,58,43,0
5,57,43,288
5,60,63,0
5,65,43,0
5,57,31,0
5,65,11,0
5,58,63,0
5,58,47,1
5,62,45,0
5,57,59,0
5,65,54,0
5,60,63,1
5,67,59,0
5,68,57,191
5,67,58,166
5,56,71,671
5,68,71,0
5,55,39,0
5,67,64,0
5,53,39,192
5,57,50,0
5,65,55,0
5,55,47,24
5,60,63,0
5,67,58,0
5,56,59,288
5,68,71,0
5,55,63,0
5,67,71,1
5,51,59,0
5,58,67,0
5,67,67,0
5,65,64,0
5,63,63,96
5,57,59,0
5,65,59,1
5,55,63,0
5,63,71,0
5,57,55,744
5,65,67,0
5,67,63,0
5,70,73,576
5,70,60,0
5,82,69,0
5,62,74,0
5,50,75,0
5,62,75,0
5,48,75,0
5,60,75,0
5,50,75,125
5,62,75,0
5,63,71,0
5,51,75,0
5,63,75,1
5,50,75,0
5,62,75,0
5,51,75,0
5,63,75,0
5,63,63,1
5,67,59,0
5,60,67,767
5,65,63,0
5,62,70,0
5,65,55,0
5,60,75,0
5,58,67,0
5,67,63,1
5,69,65,958
5,60,67,0
5,62,67,0
5,70,71,0
5,58,67,0
5,67,66,1
5,65,37,575
5,57,59,181
5,60,63,0
5,65,64,0
5,58,71,0
5,58,71,1
5,62,71,0
5,86,70,381
5,84,69,198
5,86,70,4
5,60,71,1
5,63,71,0
5,87,75,382
5,86,75,199
5,87,70,1
5,63,67,1
5,67,67,0
5,60,66,767
5,65,66,0
5,62,75,0
5,65,55,0
5,60,75,0
5,58,67,1
5,67,63,0
5,60,67,0
5,69,71,0
5,62,67,0
5,70,71,0
5,58,67,0
5,67,61,0
5,79,59,192
5,57,59,232
5,60,63,0
5,65,59,0
5,58,71,0
5,58,59,0
5,65,59,1
5,74,67,0
5,74,71,0
5,75,59,0
5,57,67,0
5,65,55,1
5,77,67,0
5,60,75,0
5,67,67,0
5,79,67,0
5,68,67,0
5,80,67,0
5,79,68,287
5,67,71,0
5,68,71,0
5,80,71,0
5,67,71,0
5,79,68,0
5,57,67,0
5,65,55,0
5,77,67,0
5,60,59,2
5,67,64,0
5,79,67,0
5,68,71,0
5,80,71,0
5,67,71,0
5,79,71,0
5,51,67,0
5,58,75,0
5,67,71,0
5,79,63,0
5,65,67,0
5,63,55,96
5,57,75,1
5,65,71,0
5,55,75,1
5,63,71,0
5,57,59,0
5,65,75,0
5,67,66,1
5,70,69,576
5,70,71,0
5,82,75,0
5,67,59,0
5,79,66,0
5,70,59,0
5,82,72,0
5,77,71,96
5,74,71,0
5,72,71,0
5,67,67,0
5,72,65,0
5,74,70,0
5,70,63,0
5,67,67,0
5,65,68,0
5,62,60,0
5,60,65,0
5,55,71,0
5,60,71,0
5,62,67,0
5,58,67,0
5,70,71,4608
5,82,67,0
5,70,60,0
5,84,62,0
5,86,66,0
5,87,63,0
5,89,71,1
5,91,66,0
5,93,56,0
5,94,62,0
5,62,63,1
5,70,59,0
6,70,83,0
6,74,103,0
6,65,99,8
6,70,103,0
6,74,119,0
6,69,123,0
6,75,119,0
6,70,103,0
6,74,107,0
6,74,99,48
6,69,107,0
6,75,111,0
6,70,83,0
6,74,103,0
6,65,99,8
6,70,103,0
6,74,119,0
6,69,123,0
6,75,119,0
6,70,103,0
6,74,107,0
6,74,99,48
6,69,89,0
6,75,80,0
7,55,68,9211
7,58,64,0
7,58,50,151
7,55,36,1
7,62,74,64
7,67,74,3
7,58,74,1
7,58,50,8
7,55,58,2
7,58,58,2
7,58,72,0
7,62,72,0
7,67,74,0
7,55,50,20
7,58,48,0
7,58,60,54
7,55,58,1
7,67,74,93
7,58,70,0
7,62,74,0
7,55,54,8
7,58,54,0
7,55,56,61
7,58,58,4
7,55,30,0
7,58,30,0
7,58,58,66
7,55,58,1
7,55,28,45
7,58,36,1
7,58,38,63
7,55,44,1
7,60,74,63
7,67,76,0
7,63,74,2
7,55,52,21
7,60,52,0
7,55,52,65
7,60,58,2
7,63,72,61
7,67,74,0
7,60,74,2
7,55,44,19
7,60,52,1
7,55,52,60
7,60,54,3
7,63,70,0
7,60,74,0
7,67,76,1
7,60,50,16
7,55,50,3
7,60,62,1
7,55,60,0
7,55,28,47
7,60,54,2
7,53,44,63
7,57,38,2
7,53,56,63
7,57,52,2
7,53,42,63
7,57,54,3
7,65,76,69
7,57,76,1
7,60,74,1
7,57,52,29
7,60,44,3
7,60,50,71
7,65,52,0
7,57,60,2
7,65,74,70
7,58,72,1
7,60,74,1
7,65,46,28
