track,note,velocity,time
2,31,116,13042
2,29,126,1536
2,31,122,9
2,29,116,1536
2,29,96,32
2,31,122,1
2,31,116,43
2,29,122,2
2,29,110,46
2,31,122,3
2,31,110,39
2,29,116,768
2,29,110,26
2,31,126,6
2,31,126,39
2,29,122,11
2,29,126,28
2,31,126,13
2,31,92,46
2,29,116,768
2,29,122,39
2,40,100,12
2,36,110,1536
2,40,106,1532
2,41,83,19
2,45,60,96
2,52,76,19
2,57,127,48
2,55,80,43
2,31,127,0
2,31,127,155
2,29,127,117
2,29,127,158
2,31,126,156
2,31,126,250
2,29,127,298
2,29,127,165
2,41,120,8
2,29,92,9
2,31,127,58
2,31,120,32
2,43,104,13
2,31,114,10
2,43,114,192
2,29,126,6
2,29,100,64
2,41,126,384
2,29,114,4
2,29,88,42
2,31,120,9
2,31,110,38
2,33,126,0
2,43,127,7
2,31,114,23
2,31,104,23
2,29,104,27
2,29,104,45
2,29,82,17
2,41,126,3
2,29,110,3
2,29,88,19
2,41,126,96
2,29,92,89
2,29,96,35
2,41,120,8
2,29,100,22
2,28,127,45
2,28,118,42
2,28,127,42
2,28,124,32
2,28,127,40
2,28,127,38
2,28,127,42
2,28,127,46
2,28,114,35
2,28,127,48
2,28,127,40
2,28,118,42
2,28,118,44
2,28,127,41
2,35,104,37
2,36,118,0
2,36,114,44
2,36,114,41
2,36,124,43
2,36,108,47
2,36,118,37
2,36,114,48
2,36,124,37
2,36,96,26
2,28,104,8
2,28,104,30
2,28,108,45
2,28,88,32
2,28,118,44
2,28,108,36
2,28,114,40
2,28,124,44
2,28,100,32
2,28,118,35
2,28,118,35
2,28,114,38
2,28,127,41
2,28,118,46
2,36,124,25
2,36,114,36
2,36,108,39
2,36,124,38
2,36,127,34
2,36,118,36
2,36,108,36
2,36,114,23
2,36,108,26
2,29,106,40
2,29,100,47
2,33,116,28
2,36,122,61
2,33,96,40
2,29,96,17
2,29,110,41
2,33,106,25
2,36,116,41
2,29,110,35
2,30,98,96
2,31,88,81
2,31,88,37
2,35,110,21
2,38,110,88
2,35,100,35
2,31,106,32
2,31,96,44
2,35,100,20
2,38,106,45
2,35,100,31
2,38,52,28
2,29,110,56
2,29,96,35
2,33,122,21
2,36,110,58
2,33,96,18
2,29,106,20
2,29,100,52
2,33,100,30
2,36,116,36
2,29,96,26
2,30,98,96
2,31,100,76
2,31,116,41
2,35,100,11
2,38,80,23
2,40,106,37
2,38,110,6
2,31,106,11
2,31,68,26
2,35,100,96
2,38,100,16
2,40,116,17
2,38,110,1
2,31,106,15
2,28,127,96
2,28,118,42
2,28,127,42
2,28,124,32
2,28,127,40
2,28,127,38
2,28,127,42
2,28,127,46
2,28,114,35
2,28,127,48
2,28,127,40
2,28,118,42
2,28,118,44
2,28,127,41
2,35,104,37
2,36,118,0
2,36,114,44
2,36,114,41
2,36,124,43
2,36,108,47
2,36,118,37
2,36,114,48
2,36,124,37
2,36,96,26
2,28,104,8
2,28,104,30
2,28,108,45
2,28,88,32
2,28,118,44
2,28,108,36
2,28,114,40
2,28,124,44
2,28,100,32
2,28,118,35
2,28,118,35
2,28,114,38
2,28,127,41
2,28,118,46
2,36,124,25
2,36,114,36
2,36,108,39
2,36,124,38
2,36,127,34
2,36,118,36
2,36,108,36
2,36,114,23
2,36,108,26
2,28,127,40
2,28,118,42
2,28,127,42
2,28,124,32
2,28,127,40
2,28,127,38
2,28,127,42
2,28,127,46
2,28,114,35
2,28,127,48
2,28,127,40
2,28,118,42
2,28,118,44
2,28,127,41
2,35,104,37
2,36,118,0
2,36,114,44
2,36,114,41
2,36,124,43
2,36,108,47
2,36,118,37
2,36,114,48
2,36,124,37
2,36,96,26
2,28,104,8
2,28,104,30
2,28,108,45
2,28,88,32
2,28,118,44
2,28,108,36
2,28,114,40
2,28,124,44
2,28,100,32
2,28,118,35
2,28,118,35
2,28,114,38
2,28,127,41
2,28,118,46
2,36,124,25
2,36,114,36
2,36,108,39
2,36,124,38
2,36,127,34
2,36,118,36
2,36,108,36
2,36,114,23
2,36,108,26
2,43,127,1381
2,33,106,4
2,33,88,46
2,33,110,71
2,33,100,56
2,31,116,62
2,31,100,53
2,31,116,77
2,31,96,40
2,29,116,68
2,29,106,47
2,29,122,75
2,41,120,388
2,29,92,9
2,31,127,58
2,31,120,32
2,43,104,13
2,31,114,10
2,43,114,192
2,29,126,6
2,29,100,64
2,41,126,384
2,29,114,4
2,29,88,42
2,31,120,9
2,31,110,38
2,33,126,0
2,43,127,7
2,31,114,23
2,31,104,23
2,29,104,27
2,29,104,45
2,29,82,17
2,41,126,3
2,29,110,3
2,29,88,19
2,41,126,96
2,29,92,89
2,29,96,35
2,41,120,8
2,29,100,22
2,28,127,45
2,28,118,42
2,28,127,42
2,28,124,32
2,28,127,40
2,28,127,38
2,28,127,42
2,28,127,46
2,28,114,35
2,28,127,48
2,28,127,40
2,28,118,42
2,28,118,44
2,28,127,41
2,35,104,37
2,36,118,0
2,36,114,44
2,36,114,41
2,36,124,43
2,36,108,47
2,36,118,37
2,36,114,48
2,36,124,37
2,36,96,26
2,28,104,8
2,28,104,30
2,28,108,45
2,28,88,32
2,28,118,44
2,28,108,36
2,28,114,40
2,28,124,44
2,28,100,32
2,28,118,35
2,28,118,35
2,28,114,38
2,28,127,41
2,28,118,46
2,36,124,25
2,36,114,36
2,36,108,39
2,36,124,38
2,36,127,34
2,36,118,36
2,36,108,36
2,36,114,23
2,36,108,26
2,29,106,40
2,29,100,47
2,33,116,28
2,36,122,61
2,33,96,40
2,29,96,17
2,29,110,41
2,33,106,25
2,36,116,41
2,29,110,35
2,30,98,96
2,31,88,81
2,31,88,37
2,35,110,21
2,38,110,88
2,35,100,35
2,31,106,32
2,31,96,44
2,35,100,20
2,38,106,45
2,35,100,31
2,38,52,28
2,29,110,56
2,29,96,35
2,33,122,21
2,36,110,58
2,33,96,18
2,29,106,20
2,29,100,52
2,33,100,30
2,36,116,36
2,29,96,26
2,30,98,96
2,31,100,76
2,31,116,41
2,35,100,11
2,38,80,23
2,40,106,37
2,38,110,6
2,31,106,11
2,31,68,26
2,35,100,96
2,38,100,16
2,40,116,17
2,38,110,1
2,31,106,15
2,28,127,96
2,28,118,42
2,28,127,42
2,28,124,32
2,28,127,40
2,28,127,38
2,28,127,42
2,28,127,46
2,28,114,35
2,28,127,48
2,28,127,40
2,28,118,42
2,28,118,44
2,28,127,41
2,35,104,37
2,36,118,0
2,36,114,44
2,36,114,41
2,36,124,43
2,36,108,47
2,36,118,37
2,36,114,48
2,36,124,37
2,36,96,26
2,28,104,8
2,28,104,30
2,28,108,45
2,28,88,32
2,28,118,44
2,28,108,36
2,28,114,40
2,28,124,44
2,28,100,32
2,28,118,35
2,28,118,35
2,28,114,38
2,28,127,41
2,28,118,46
2,36,124,25
2,36,114,36
2,36,108,39
2,36,124,38
2,36,127,34
2,36,118,36
2,36,108,36
2,36,114,23
2,36,108,26
2,28,127,40
2,28,118,42
2,28,127,42
2,28,124,32
2,28,127,40
2,28,127,38
2,28,127,42
2,28,127,46
2,28,114,35
2,28,127,48
2,28,127,40
2,28,118,42
2,28,118,44
2,28,127,41
2,35,104,37
2,36,118,0
2,36,114,44
2,36,114,41
2,36,124,43
2,36,108,47
2,36,118,37
2,36,114,48
2,36,124,37
2,36,96,26
2,28,104,8
2,28,104,30
2,28,108,45
2,28,88,32
2,28,118,44
2,28,108,36
2,28,114,40
2,28,124,44
2,28,100,32
2,28,118,35
2,28,118,35
2,28,114,38
2,28,127,41
2,28,118,46
2,36,124,25
2,36,114,36
2,36,108,39
2,36,124,38
2,36,127,34
2,36,118,36
2,36,108,36
2,36,114,23
2,36,108,26
2,28,127,40
2,28,118,42
2,28,127,42
2,28,124,32
2,28,127,40
2,28,127,38
2,28,127,42
2,28,127,46
2,28,114,35
2,28,127,48
2,28,127,40
2,28,118,42
2,28,118,44
2,28,127,41
2,35,104,37
2,36,118,0
2,36,114,44
2,36,114,41
2,36,124,43
2,36,108,47
2,36,118,37
2,36,114,48
2,36,124,37
2,36,96,26
2,28,104,8
2,28,104,30
2,28,108,45
2,28,88,32
2,28,118,44
2,28,108,36
2,28,114,40
2,28,124,44
2,28,100,32
2,28,118,35
2,28,118,35
2,28,114,38
2,28,127,41
2,28,118,46
2,36,124,25
2,36,114,36
2,36,108,39
2,36,124,38
2,36,127,34
2,36,118,36
2,36,108,36
2,36,114,23
2,36,108,26
2,28,127,40
3,50,100,705
3,58,106,0
3,64,110,0
3,53,92,85
3,58,72,64
3,65,100,2
3,53,66,16
3,58,78,96
3,64,88,17
3,53,50,49
3,58,20,74
3,64,32,6
3,53,42,96
3,58,26,64
3,64,48,39
3,53,60,21
3,65,84,61
3,53,88,84
3,48,110,19
3,57,96,0
3,64,100,0
3,53,96,58
3,57,84,41
3,65,96,38
3,53,80,59
3,57,70,65
3,64,92,50
3,53,62,56
3,57,56,16
3,65,66,33
3,53,28,33
3,57,56,70
3,64,30,65
3,53,2,30
3,57,2,96
3,64,26,12
3,50,78,9
3,58,60,0
3,64,92,0
3,53,66,93
3,58,56,5
3,65,92,4
3,53,70,40
3,58,56,18
3,64,78,50
3,53,48,49
3,58,52,50
3,65,48,42
3,53,16,56
3,58,22,77
3,58,60,51
3,64,68,0
3,53,66,1
3,58,98,3
3,65,116,0
3,53,100,96
3,48,78,10
3,57,96,0
3,64,88,0
3,53,74,47
3,57,74,44
3,65,84,38
3,53,58,96
3,57,56,81
3,57,60,30
3,64,68,0
3,53,28,19
3,57,40,70
3,65,32,46
3,53,2,48
3,57,52,46
3,64,50,25
3,53,32,17
3,57,46,96
3,48,52,47
3,50,92,25
3,58,90,0
3,64,106,0
3,53,74,64
3,58,42,29
3,58,32,6
3,65,106,0
3,53,88,81
3,58,72,13
3,64,96,21
3,53,58,34
3,58,38,28
3,65,70,28
3,53,46,66
3,58,24,52
3,64,48,64
3,53,52,28
3,58,84,93
3,65,100,0
3,50,70,44
3,53,100,0
3,48,106,13
3,57,96,0
3,64,100,0
3,53,88,38
3,57,60,38
3,57,88,48
3,65,92,0
3,53,28,41
3,57,52,3
3,64,62,33
3,53,52,44
3,57,52,66
3,65,58,5
3,53,38,26
3,57,26,67
3,64,50,62
3,53,38,30
3,65,46,32
3,53,26,41
3,50,96,1
3,58,98,0
3,64,92,0
3,53,66,41
3,58,60,42
3,65,110,61
3,53,78,76
3,58,66,96
3,58,42,19
3,64,100,0
3,53,60,74
3,58,44,12
3,65,78,32
3,53,50,68
3,58,56,13
3,64,52,9
3,53,52,96
3,65,84,35
3,50,38,43
3,53,68,0
3,48,96,8
3,57,106,0
3,64,106,0
3,53,84,47
3,57,68,27
3,65,100,40
3,53,68,56
3,57,68,96
3,64,80,24
3,53,58,62
3,57,58,56
3,65,74,96
3,53,52,65
3,57,56,45
3,64,70,96
3,53,44,87
3,65,58,16
3,53,46,14
3,50,96,5
3,58,116,0
3,62,106,0
3,64,100,0
3,53,70,47
3,65,96,49
3,53,58,80
3,58,66,96
3,64,92,20
3,53,46,49
3,58,66,96
3,58,28,34
3,64,78,0
3,53,62,9
3,58,44,7
3,58,98,51
3,65,100,0
3,53,92,66
3,58,44,79
3,64,80,34
3,50,28,75
3,53,68,0
3,48,106,3
3,57,92,0
3,64,96,0
3,53,92,96
3,57,70,2
3,65,92,20
3,53,62,56
3,57,70,96
3,64,68,11
3,53,66,48
3,57,56,3
3,65,80,30
3,53,60,48
3,57,50,96
3,64,56,67
3,53,84,85
3,57,52,55
3,65,100,0
3,53,84,2
3,50,100,6
3,58,106,0
3,64,96,0
3,53,66,64
3,58,66,9
3,65,100,8
3,53,60,55
3,58,48,24
3,64,84,28
3,53,60,41
3,58,36,32
3,65,80,18
3,53,66,69
3,58,66,50
3,64,74,96
3,53,74,70
3,65,92,39
3,53,78,51
3,48,96,19
3,57,96,0
3,64,96,0
3,53,62,75
3,57,52,55
3,65,78,50
3,53,60,70
3,57,62,53
3,64,68,22
3,53,46,69
3,57,66,1
3,65,70,38
3,53,46,39
3,57,46,23
3,64,38,96
3,53,62,96
3,65,80,45
3,53,70,81
3,50,106,2
3,58,106,0
3,64,110,0
3,53,96,70
3,58,98,35
3,65,110,6
3,53,88,71
3,58,72,96
3,58,56,7
3,64,100,0
3,53,84,37
3,58,66,38
3,65,110,29
3,53,80,91
3,58,56,41
3,58,72,44
3,64,96,0
3,53,88,6
3,65,70,69
3,53,88,28
3,48,110,24
3,57,116,0
3,64,116,0
3,53,84,65
3,57,80,43
3,65,106,53
3,53,84,59
3,57,88,57
3,64,100,13
3,53,66,38
3,57,88,44
3,65,84,13
3,53,60,63
3,57,70,67
3,64,66,96
3,53,62,13
3,65,92,56
3,53,74,71
3,50,110,40
3,58,106,0
3,64,106,0
3,53,88,65
3,58,60,3
3,65,100,3
3,53,56,96
3,58,84,96
3,64,96,1
3,53,70,96
3,58,66,4
3,65,106,0
3,53,88,44
3,58,90,96
3,58,60,21
3,64,100,0
3,53,80,75
3,65,92,78
3,53,92,77
3,48,106,32
3,57,110,0
3,64,106,0
3,53,74,73
3,57,88,41
3,65,106,35
3,53,84,96
3,57,84,2
3,64,100,59
3,53,60,71
3,57,88,36
3,65,96,2
3,53,70,57
3,57,88,7
3,64,100,96
3,53,88,79
3,65,80,46
3,53,34,4
3,50,106,6
3,58,116,0
3,64,110,0
3,53,100,74
3,58,98,72
3,65,116,54
3,53,92,15
3,58,90,96
3,64,106,8
3,53,70,55
3,58,84,33
3,65,116,40
3,53,96,50
3,58,98,96
3,58,126,38
3,64,116,0
3,53,110,68
3,65,122,8
3,53,96,20
3,48,110,3
3,57,122,0
3,64,126,0
3,53,84,45
3,57,92,38
3,65,116,32
3,53,96,60
3,57,92,62
3,57,52,14
3,64,106,0
3,53,88,7
3,57,100,85
3,65,110,69
3,53,88,96
3,57,88,61
3,53,2,13
3,57,96,33
3,64,100,0
3,53,106,7
3,57,84,17
3,65,88,0
3,53,50,27
3,50,100,25
3,58,116,0
3,64,110,0
3,53,74,79
3,58,72,25
3,65,110,96
3,53,96,14
3,58,98,96
3,64,110,72
3,53,92,27
3,58,90,32
3,65,122,2
3,53,88,35
3,58,84,96
3,58,106,40
3,64,106,0
3,53,88,86
3,58,32,68
3,65,110,0
3,53,88,8
3,48,116,9
3,57,110,0
3,64,106,0
3,53,66,81
3,57,84,55
3,65,110,11
3,53,88,33
3,57,92,96
3,57,100,42
3,64,110,0
3,53,88,83
3,57,106,76
3,65,116,78
3,53,88,93
3,57,100,66
3,64,110,70
3,53,68,75
3,48,60,34
3,59,127,38
3,62,127,0
3,67,125,0
3,40,125,2
3,47,75,257
3,52,89,103
3,59,97,75
3,67,119,50
3,59,125,1
3,62,127,1
3,40,115,27
3,57,119,2
3,62,125,0
3,66,115,1
3,57,87,99
3,52,109,91
3,62,127,39
3,66,127,0
3,57,125,1
3,40,23,4
3,55,79,45
3,60,115,17
3,36,125,1
3,48,93,1
3,64,119,6
3,55,57,73
3,48,71,101
3,55,75,48
3,36,87,9
3,64,127,93
3,60,127,1
3,48,69,57
3,55,61,23
3,67,119,47
3,64,115,5
3,62,115,24
3,66,125,1
3,55,69,67
3,48,49,25
3,59,33,60
3,67,125,50
3,59,119,1
3,40,127,2
3,62,127,0
3,47,65,225
3,52,101,100
3,59,105,78
3,59,109,37
3,62,125,1
3,67,125,0
3,52,79,4
3,40,109,8
3,47,101,31
3,52,109,21
3,57,77,6
3,62,115,15
3,66,115,5
3,57,57,53
3,52,93,78
3,62,109,28
3,66,99,0
3,57,109,1
3,52,71,20
3,48,127,16
3,41,125,1
3,57,127,0
3,53,127,1
3,60,127,0
3,64,127,1
3,50,116,72
3,58,126,0
3,64,116,0
3,53,78,83
3,58,84,57
3,65,106,4
3,53,96,96
3,58,72,66
3,64,96,40
3,53,88,67
3,50,80,44
3,58,78,0
3,65,106,69
3,50,96,14
3,53,88,96
3,58,116,33
3,64,116,0
3,50,100,46
