track,note,velocity,time
3,31,116,13056
3,29,126,1536
3,31,122,9
3,29,116,1536
3,29,96,32
3,31,122,1
3,31,116,43
3,29,122,2
3,29,110,46
3,31,122,3
3,31,110,39
3,29,116,768
3,29,110,26
3,31,126,6
3,31,126,39
3,29,122,11
3,29,126,28
3,31,126,13
3,31,92,46
3,29,116,768
3,29,122,39
3,40,100,12
3,36,110,1536
3,40,106,1532
3,41,83,19
3,45,60,96
3,52,76,19
3,57,127,48
3,55,80,43
3,31,127,0
3,31,127,155
3,29,127,117
3,29,127,158
3,31,126,156
3,31,126,250
3,29,127,298
3,29,127,165
3,41,120,8
3,29,92,9
3,31,127,58
3,31,120,32
3,43,104,13
3,31,114,10
3,43,114,192
3,29,126,6
3,29,100,64
3,41,126,384
3,29,114,4
3,29,88,42
3,31,120,9
3,31,110,38
3,33,126,0
3,43,127,7
3,31,114,23
3,31,104,23
3,29,104,27
3,29,104,45
3,29,82,17
3,41,126,3
3,29,110,3
3,29,88,19
3,41,126,96
3,29,92,89
3,29,96,35
3,41,120,8
3,29,100,22
3,28,127,45
3,28,118,42
3,28,127,42
3,28,124,32
3,28,127,40
3,28,127,38
3,28,127,42
3,28,127,46
3,28,114,35
3,28,127,48
3,28,127,40
3,28,118,42
3,28,118,44
3,28,127,41
3,35,104,37
3,36,118,0
3,36,114,44
3,36,114,41
3,36,124,43
3,36,108,47
3,36,118,37
3,36,114,48
3,36,124,37
3,36,96,26
3,28,104,8
3,28,104,30
3,28,108,45
3,28,88,32
3,28,118,44
3,28,108,36
3,28,114,40
3,28,124,44
3,28,100,32
3,28,118,35
3,28,118,35
3,28,114,38
3,28,127,41
3,28,118,46
3,36,124,25
3,36,114,36
3,36,108,39
3,36,124,38
3,36,127,34
3,36,118,36
3,36,108,36
3,36,114,23
3,36,108,26
3,29,106,40
3,29,100,47
3,33,116,28
3,36,122,61
3,33,96,40
3,29,96,17
3,29,110,41
3,33,106,25
3,36,116,41
3,29,110,35
3,30,98,96
3,31,88,81
3,31,88,37
3,35,110,21
3,38,110,88
3,35,100,35
3,31,106,32
3,31,96,44
3,35,100,20
3,38,106,45
3,35,100,31
3,38,52,28
3,29,110,56
3,29,96,35
3,33,122,21
3,36,110,58
3,33,96,18
3,29,106,20
3,29,100,52
3,33,100,30
3,36,116,36
3,29,96,26
3,30,98,96
3,31,100,76
3,31,116,41
3,35,100,11
3,38,80,23
3,40,106,37
3,38,110,6
3,31,106,11
3,31,68,26
3,35,100,96
3,38,100,16
3,40,116,17
3,38,110,1
3,31,106,15
3,28,127,96
3,28,118,42
3,28,127,42
3,28,124,32
3,28,127,40
3,28,127,38
3,28,127,42
3,28,127,46
3,28,114,35
3,28,127,48
3,28,127,40
3,28,118,42
3,28,118,44
3,28,127,41
3,35,104,37
3,36,118,0
3,36,114,44
3,36,114,41
3,36,124,43
3,36,108,47
3,36,118,37
3,36,114,48
3,36,124,37
3,36,96,26
3,28,104,8
3,28,104,30
3,28,108,45
3,28,88,32
3,28,118,44
3,28,108,36
3,28,114,40
3,28,124,44
3,28,100,32
3,28,118,35
3,28,118,35
3,28,114,38
3,28,127,41
3,28,118,46
3,36,124,25
3,36,114,36
3,36,108,39
3,36,124,38
3,36,127,34
3,36,118,36
3,36,108,36
3,36,114,23
3,36,108,26
3,28,127,40
3,28,118,42
3,28,127,42
3,28,124,32
3,28,127,40
3,28,127,38
3,28,127,42
3,28,127,46
3,28,114,35
3,28,127,48
3,28,127,40
3,28,118,42
3,28,118,44
3,28,127,41
3,35,104,37
3,36,118,0
3,36,114,44
3,36,114,41
3,36,124,43
3,36,108,47
3,36,118,37
3,36,114,48
3,36,124,37
3,36,96,26
3,28,104,8
3,28,104,30
3,28,108,45
3,28,88,32
3,28,118,44
3,28,108,36
3,28,114,40
3,28,124,44
3,28,100,32
3,28,118,35
3,28,118,35
3,28,114,38
3,28,127,41
3,28,118,46
3,36,124,25
3,36,114,36
3,36,108,39
3,36,124,38
3,36,127,34
3,36,118,36
3,36,108,36
3,36,114,23
3,36,108,26
3,43,127,1381
3,33,106,4
3,33,88,46
3,33,110,71
3,33,100,56
3,31,116,62
3,31,100,53
3,31,116,77
3,31,96,40
3,29,116,68
3,29,106,47
3,29,122,75
3,41,120,388
3,29,92,9
3,31,127,58
3,31,120,32
3,43,104,13
3,31,114,10
3,43,114,192
3,29,126,6
3,29,100,64
3,41,126,384
3,29,114,4
3,29,88,42
3,31,120,9
3,31,110,38
3,33,126,0
3,43,127,7
3,31,114,23
3,31,104,23
3,29,104,27
3,29,104,45
3,29,82,17
3,41,126,3
3,29,110,3
3,29,88,19
3,41,126,96
3,29,92,89
3,29,96,35
3,41,120,8
3,29,100,22
3,28,127,45
3,28,118,42
3,28,127,42
3,28,124,32
3,28,127,40
3,28,127,38
3,28,127,42
3,28,127,46
3,28,114,35
3,28,127,48
3,28,127,40
3,28,118,42
3,28,118,44
3,28,127,41
3,35,104,37
3,36,118,0
3,36,114,44
3,36,114,41
3,36,124,43
3,36,108,47
3,36,118,37
3,36,114,48
3,36,124,37
3,36,96,26
3,28,104,8
3,28,104,30
3,28,108,45
3,28,88,32
3,28,118,44
3,28,108,36
3,28,114,40
3,28,124,44
3,28,100,32
3,28,118,35
3,28,118,35
3,28,114,38
3,28,127,41
3,28,118,46
3,36,124,25
3,36,114,36
3,36,108,39
3,36,124,38
3,36,127,34
3,36,118,36
3,36,108,36
3,36,114,23
3,36,108,26
3,29,106,40
3,29,100,47
3,33,116,28
3,36,122,61
3,33,96,40
3,29,96,17
3,29,110,41
3,33,106,25
3,36,116,41
3,29,110,35
3,30,98,96
3,31,88,81
3,31,88,37
3,35,110,21
3,38,110,88
3,35,100,35
3,31,106,32
3,31,96,44
3,35,100,20
3,38,106,45
3,35,100,31
3,38,52,28
3,29,110,56
3,29,96,35
3,33,122,21
3,36,110,58
3,33,96,18
3,29,106,20
3,29,100,52
3,33,100,30
3,36,116,36
3,29,96,26
3,30,98,96
3,31,100,76
3,31,116,41
3,35,100,11
3,38,80,23
3,40,106,37
3,38,110,6
3,31,106,11
3,31,68,26
3,35,100,96
3,38,100,16
3,40,116,17
3,38,110,1
3,31,106,15
3,28,127,96
3,28,118,42
3,28,127,42
3,28,124,32
3,28,127,40
3,28,127,38
3,28,127,42
3,28,127,46
3,28,114,35
3,28,127,48
3,28,127,40
3,28,118,42
3,28,118,44
3,28,127,41
3,35,104,37
3,36,118,0
3,36,114,44
3,36,114,41
3,36,124,43
3,36,108,47
3,36,118,37
3,36,114,48
3,36,124,37
3,36,96,26
3,28,104,8
3,28,104,30
3,28,108,45
3,28,88,32
3,28,118,44
3,28,108,36
3,28,114,40
3,28,124,44
3,28,100,32
3,28,118,35
3,28,118,35
3,28,114,38
3,28,127,41
3,28,118,46
3,36,124,25
3,36,114,36
3,36,108,39
3,36,124,38
3,36,127,34
3,36,118,36
3,36,108,36
3,36,114,23
3,36,108,26
3,28,127,40
3,28,118,42
3,28,127,42
3,28,124,32
3,28,127,40
3,28,127,38
3,28,127,42
3,28,127,46
3,28,114,35
3,28,127,48
3,28,127,40
3,28,118,42
3,28,118,44
3,28,127,41
3,35,104,37
3,36,118,0
3,36,114,44
3,36,114,41
3,36,124,43
3,36,108,47
3,36,118,37
3,36,114,48
3,36,124,37
3,36,96,26
3,28,104,8
3,28,104,30
3,28,108,45
3,28,88,32
3,28,118,44
3,28,108,36
3,28,114,40
3,28,124,44
3,28,100,32
3,28,118,35
3,28,118,35
3,28,114,38
3,28,127,41
3,28,118,46
3,36,124,25
3,36,114,36
3,36,108,39
3,36,124,38
3,36,127,34
3,36,118,36
3,36,108,36
3,36,114,23
3,36,108,26
3,28,127,40
3,28,118,42
3,28,127,42
3,28,124,32
3,28,127,40
3,28,127,38
3,28,127,42
3,28,127,46
3,28,114,35
3,28,127,48
3,28,127,40
3,28,118,42
3,28,118,44
3,28,127,41
3,35,104,37
3,36,118,0
3,36,114,44
3,36,114,41
3,36,124,43
3,36,108,47
3,36,118,37
3,36,114,48
3,36,124,37
3,36,96,26
3,28,104,8
3,28,104,30
3,28,108,45
3,28,88,32
3,28,118,44
3,28,108,36
3,28,114,40
3,28,124,44
3,28,100,32
3,28,118,35
3,28,118,35
3,28,114,38
3,28,127,41
3,28,118,46
3,36,124,25
3,36,114,36
3,36,108,39
3,36,124,38
3,36,127,34
3,36,118,36
3,36,108,36
3,36,114,23
3,36,108,26
3,28,127,40
4,50,100,768
4,58,106,0
4,64,110,0
4,53,92,85
4,58,72,64
4,65,100,2
4,53,66,16
4,58,78,96
4,64,88,17
4,53,50,49
4,58,20,74
4,64,32,6
4,53,42,96
4,58,26,64
4,64,48,39
4,53,60,21
4,65,84,61
4,53,88,84
4,48,110,19
4,57,96,0
4,64,100,0
4,53,96,58
4,57,84,41
4,65,96,38
4,53,80,59
4,57,70,65
4,64,92,50
4,53,62,56
4,57,56,16
4,65,66,33
4,53,28,33
4,57,56,70
4,64,30,65
4,53,2,30
4,57,2,96
4,64,26,12
4,50,78,9
4,58,60,0
4,64,92,0
4,53,66,93
4,58,56,5
4,65,92,4
4,53,70,40
4,58,56,18
4,64,78,50
4,53,48,49
4,58,52,50
4,65,48,42
4,53,16,56
4,58,22,77
4,58,60,51
4,64,68,0
4,53,66,1
4,58,98,3
4,65,116,0
4,53,100,96
4,48,78,10
4,57,96,0
4,64,88,0
4,53,74,47
4,57,74,44
4,65,84,38
4,53,58,96
4,57,56,81
4,57,60,30
4,64,68,0
4,53,28,19
4,57,40,70
4,65,32,46
4,53,2,48
4,57,52,46
4,64,50,25
4,53,32,17
4,57,46,96
4,48,52,47
4,50,92,25
4,58,90,0
4,64,106,0
4,53,74,64
4,58,42,29
4,58,32,6
4,65,106,0
4,53,88,81
4,58,72,13
4,64,96,21
4,53,58,34
4,58,38,28
4,65,70,28
4,53,46,66
4,58,24,52
4,64,48,64
4,53,52,28
4,58,84,93
4,65,100,0
4,50,70,44
4,53,100,0
4,48,106,13
4,57,96,0
4,64,100,0
4,53,88,38
4,57,60,38
4,57,88,48
4,65,92,0
4,53,28,41
4,57,52,3
4,64,62,33
4,53,52,44
4,57,52,66
4,65,58,5
4,53,38,26
4,57,26,67
4,64,50,62
4,53,38,30
4,65,46,32
4,53,26,41
4,50,96,1
4,58,98,0
4,64,92,0
4,53,66,41
4,58,60,42
4,65,110,61
4,53,78,76
4,58,66,96
4,58,42,19
4,64,100,0
4,53,60,74
4,58,44,12
4,65,78,32
4,53,50,68
4,58,56,13
4,64,52,9
4,53,52,96
4,65,84,35
4,50,38,43
4,53,68,0
4,48,96,8
4,57,106,0
4,64,106,0
4,53,84,47
4,57,68,27
4,65,100,40
4,53,68,56
4,57,68,96
4,64,80,24
4,53,58,62
4,57,58,56
4,65,74,96
4,53,52,65
4,57,56,45
4,64,70,96
4,53,44,0
4,65,58,16
4,53,46,14
4,50,96,5
4,58,116,0
4,62,106,0
4,64,100,0
4,53,70,47
4,65,96,49
4,53,58,80
4,58,66,96
4,64,92,20
4,53,46,49
4,58,66,96
4,58,28,34
4,64,78,0
4,53,62,9
4,58,44,7
4,58,98,51
4,65,100,0
4,53,92,66
4,58,44,79
4,64,80,34
4,50,28,75
4,53,68,0
4,48,106,3
4,57,92,0
4,64,96,0
4,53,92,96
4,57,70,2
4,65,92,20
4,53,62,56
4,57,70,96
4,64,68,11
4,53,66,48
4,57,56,3
4,65,80,30
4,53,60,48
4,57,50,96
4,64,56,67
4,53,84,85
4,57,52,55
4,65,100,0
4,53,84,2
4,50,100,6
4,58,106,0
4,64,96,0
4,53,66,64
4,58,66,9
4,65,100,8
4,53,60,55
4,58,48,24
4,64,84,28
4,53,60,41
4,58,36,32
4,65,80,18
4,53,66,69
4,58,66,50
4,64,74,96
4,53,74,70
4,65,92,39
4,53,78,51
4,48,96,19
4,57,96,0
4,64,96,0
4,53,62,75
4,57,52,55
4,65,78,50
4,53,60,70
4,57,62,53
4,64,68,22
4,53,46,69
4,57,66,1
4,65,70,38
4,53,46,39
4,57,46,23
4,64,38,96
4,53,62,96
4,65,80,45
4,53,70,81
4,50,106,2
4,58,106,0
4,64,110,0
4,53,96,70
4,58,98,35
4,65,110,6
4,53,88,71
4,58,72,96
4,58,56,7
4,64,100,0
4,53,84,37
4,58,66,38
4,65,110,29
4,53,80,91
4,58,56,41
4,58,72,44
4,64,96,0
4,53,88,6
4,65,70,69
4,53,88,28
4,48,110,24
4,57,116,0
4,64,116,0
4,53,84,0
4,57,80,43
4,65,106,53
4,53,84,59
4,57,88,57
4,64,100,13
4,53,66,38
4,57,88,44
4,65,84,13
4,53,60,63
4,57,70,67
4,64,66,96
4,53,62,13
4,65,92,56
4,53,74,71
4,50,110,40
4,58,106,0
4,64,106,0
4,53,88,65
4,58,60,3
4,65,100,3
4,53,56,96
4,58,84,96
4,64,96,1
4,53,70,96
4,58,66,4
4,65,106,0
4,53,88,44
4,58,90,96
4,58,60,21
4,64,100,0
4,53,80,75
4,65,92,78
4,53,92,77
4,48,106,32
4,57,110,0
4,64,106,0
4,53,74,73
4,57,88,41
4,65,106,35
4,53,84,96
4,57,84,2
4,64,100,59
4,53,60,71
4,57,88,36
4,65,96,2
4,53,70,57
4,57,88,7
4,64,100,96
4,53,88,79
4,65,80,46
4,53,34,4
4,50,106,6
4,58,116,0
4,64,110,0
4,53,100,74
4,58,98,72
4,65,116,54
4,53,92,15
4,58,90,96
4,64,106,8
4,53,70,55
4,58,84,33
4,65,116,40
4,53,96,50
4,58,98,96
4,58,126,38
4,64,116,0
4,53,110,68
4,65,122,8
4,53,96,20
4,48,110,3
4,57,122,0
4,64,126,0
4,53,84,45
4,57,92,38
4,65,116,32
4,53,96,60
4,57,92,62
4,57,52,14
4,64,106,0
4,53,88,7
4,57,100,85
4,65,110,69
4,53,88,96
4,57,88,61
4,53,2,13
4,57,96,33
4,64,100,0
4,53,106,7
4,57,84,17
4,65,88,0
4,53,50,27
4,50,100,25
4,58,116,0
4,64,110,0
4,53,74,79
4,58,72,25
4,65,110,96
4,53,96,14
4,58,98,96
4,64,110,72
4,53,92,27
4,58,90,32
4,65,122,2
4,53,88,35
4,58,84,96
4,58,106,40
4,64,106,0
4,53,88,86
4,58,32,68
4,65,110,0
4,53,88,8
4,48,116,9
4,57,110,0
4,64,106,0
4,53,66,81
4,57,84,55
4,65,110,11
4,53,88,33
4,57,92,96
4,57,100,42
4,64,110,0
4,53,88,83
4,57,106,76
4,65,116,78
4,53,88,93
4,57,100,66
4,64,110,70
4,53,68,75
4,48,60,34
4,59,127,38
4,62,127,0
4,67,125,0
4,40,125,2
4,47,75,257
4,52,89,103
4,59,97,75
4,67,119,50
4,59,125,1
4,62,127,1
4,40,115,27
4,57,119,2
4,62,125,0
4,66,115,1
4,57,87,99
4,52,109,91
4,62,127,39
4,66,127,0
4,57,125,1
4,40,23,4
4,55,79,45
4,60,115,17
4,36,125,1
4,48,93,1
4,64,119,6
4,55,57,73
4,48,71,101
4,55,75,48
4,36,87,9
4,64,127,93
4,60,127,1
4,48,69,57
4,55,61,23
4,67,119,47
4,64,115,5
4,62,115,24
4,66,125,1
4,55,69,67
4,48,49,25
4,59,33,60
4,67,125,50
4,59,119,1
4,40,127,2
4,62,127,0
4,47,65,225
4,52,101,100
4,59,105,78
4,59,109,37
4,62,125,1
4,67,125,0
4,52,79,4
4,40,109,8
4,47,101,31
4,52,109,21
4,57,77,6
4,62,115,15
4,66,115,5
4,57,57,53
4,52,93,78
4,62,109,28
4,66,99,0
4,57,109,1
4,52,71,20
4,48,127,16
4,41,125,1
4,57,127,0
4,53,127,1
4,60,127,0
4,64,127,1
4,50,116,72
4,58,126,0
4,64,116,0
4,53,78,83
4,58,84,57
4,65,106,4
4,53,96,96
4,58,72,66
4,64,96,40
4,53,88,67
4,50,80,44
4,58,78,0
4,65,106,69
4,50,96,14
4,53,88,96
4,58,116,33
4,64,116,0
4,50,100,46
