track,note,velocity,time
0,36,85,25
0,24,85,0
0,60,95,24
0,64,95,0
0,36,95,0
0,48,85,0
0,55,95,0
0,55,60,19
0,60,60,0
0,64,60,0
0,63,60,1
0,56,60,0
0,60,95,8
0,56,95,0
0,63,95,0
0,55,94,3
0,62,95,0
0,60,95,0
0,64,60,9
0,55,95,6
0,60,95,0
0,64,95,0
0,36,95,0
0,48,86,0
0,55,60,1
0,56,95,16
0,63,95,0
0,60,95,0
0,60,95,21
0,62,95,0
0,55,95,0
0,64,95,16
0,55,95,0
0,60,95,0
0,48,82,0
0,36,88,0
0,60,95,3
0,56,95,0
0,63,95,0
0,55,94,2
0,60,95,0
0,62,95,0
0,55,95,1
0,64,95,0
0,60,95,0
0,48,85,0
0,36,89,0
0,63,95,4
0,60,95,0
0,56,95,0
0,60,95,13
0,55,94,0
0,62,95,0
0,64,60,1
0,60,60,0
0,55,60,0
0,60,95,21
0,36,92,0
0,55,85,0
0,48,84,0
0,64,95,0
0,36,115,0
0,36,115,32
0,36,115,16
0,36,115,11
0,36,115,1
0,36,115,7
0,36,115,3
0,62,95,11
0,57,95,0
0,54,95,0
0,81,73,1
0,78,88,0
0,36,115,2
0,36,115,7
0,36,115,4
0,36,115,18
0,36,115,38
0,36,115,18
0,36,115,35
0,36,115,16
0,62,95,11
0,53,89,0
0,56,95,0
0,36,115,3
0,77,74,1
0,80,79,1
0,36,115,21
0,36,115,35
0,36,115,11
0,36,115,6
0,36,115,13
0,36,115,11
0,36,115,15
0,64,95,7
0,60,95,0
0,55,88,0
0,76,76,1
0,79,79,1
0,36,115,2
0,36,115,21
0,36,115,35
0,36,115,19
0,36,115,37
0,36,115,1
0,55,94,9
0,43,91,0
0,31,115,2
0,57,85,0
0,45,95,0
0,33,115,3
0,48,91,1
0,60,89,0
0,36,115,0
0,33,115,2
0,36,115,11
0,64,95,1
0,36,95,0
0,60,95,0
0,55,94,0
0,48,88,0
0,72,79,1
0,76,79,0
0,79,76,0
0,36,115,40
0,36,115,16
0,36,115,35
0,36,115,17
0,36,115,3
0,36,115,19
0,60,95,20
0,63,95,0
0,54,95,0
0,78,79,1
0,75,85,0
0,72,74,0
0,36,115,2
0,36,115,13
0,36,115,3
0,36,115,7
0,36,115,8
0,36,115,9
0,36,115,6
0,36,115,8
0,53,88,14
0,62,95,0
0,56,95,0
0,77,74,2
0,74,75,0
0,72,72,1
0,36,115,2
0,36,115,20
0,36,115,37
0,36,115,21
0,36,115,39
0,36,115,7
0,56,95,1
0,63,95,0
0,53,95,0
0,74,77,1
0,75,82,0
0,79,73,0
0,36,115,5
0,74,78,14
0,77,71,0
0,56,95,1
0,53,95,0
0,62,94,0
0,36,115,0
0,36,115,7
0,36,115,3
0,48,80,1
0,36,85,0
0,60,95,0
0,55,95,0
0,64,94,0
0,35,121,0
0,55,60,1
0,60,60,0
0,64,60,0
0,36,115,4
0,64,56,15
0,55,68,0
0,36,115,0
0,35,121,2
0,36,115,5
0,64,75,15
0,55,72,0
0,36,115,4
0,35,121,0
0,36,115,0
0,55,85,10
0,64,80,0
0,60,83,0
0,35,121,3
0,36,115,0
0,57,60,12
0,53,60,4
0,60,95,3
0,57,95,0
0,64,95,0
0,36,115,11
0,35,121,14
0,36,115,0
0,36,115,9
0,64,74,9
0,57,73,0
0,35,121,4
0,36,115,0
0,36,115,0
0,64,73,7
0,57,75,0
0,60,82,0
0,35,121,1
0,36,115,0
0,36,115,6
0,57,95,12
0,64,86,0
0,60,95,0
0,35,121,1
0,36,115,0
0,55,60,12
0,64,95,0
0,55,95,0
0,60,95,0
0,36,115,10
0,35,121,10
0,36,115,0
0,36,115,7
0,55,74,10
0,64,79,0
0,60,82,0
0,35,121,4
0,36,115,1
0,36,115,7
0,60,71,12
0,64,71,0
0,55,67,0
0,35,121,2
0,36,115,0
0,36,115,7
0,60,91,9
0,64,86,0
0,55,91,0
0,35,115,4
0,36,115,1
0,57,60,12
0,53,60,1
0,64,95,7
0,57,95,0
0,60,95,0
0,36,115,10
0,35,121,13
0,36,115,1
0,36,115,2
0,64,73,9
0,57,75,0
0,35,121,4
0,36,115,1
0,67,105,2
0,36,115,1
0,57,74,3
0,64,74,0
0,60,75,0
0,35,121,4
0,72,105,2
0,36,115,0
0,72,105,1
0,38,106,1
0,36,115,5
0,57,80,6
0,64,82,0
0,60,88,0
0,38,113,4
0,36,115,0
0,72,105,0
0,72,105,3
0,64,85,2
0,55,95,0
0,36,115,3
0,42,85,8
0,35,121,0
0,36,115,1
0,72,105,2
0,36,115,8
0,64,76,14
0,55,79,0
0,60,82,0
0,38,109,4
0,42,83,0
0,35,121,0
0,36,115,0
0,36,115,8
0,64,69,11
0,60,60,0
0,55,69,0
0,42,87,3
0,35,121,0
0,36,115,0
0,36,115,6
0,60,84,16
0,55,79,0
0,64,76,0
0,38,111,1
0,42,81,0
0,35,121,0
0,36,115,5
0,64,95,17
0,60,95,0
0,57,95,0
0,36,115,10
0,42,80,17
0,35,121,0
0,36,115,0
0,36,115,2
0,64,68,12
0,60,57,0
0,57,63,0
0,38,109,2
0,42,95,0
0,35,121,0
0,36,115,0
0,69,105,2
0,36,115,11
0,69,105,1
0,64,72,3
0,60,73,0
0,57,62,0
0,42,76,1
0,35,117,0
0,36,115,5
0,69,105,3
0,69,105,9
0,36,115,2
0,69,105,4
0,57,86,14
0,60,89,0
0,64,84,0
0,38,113,1
0,42,124,0
0,35,121,0
0,36,115,2
0,67,105,7
0,65,105,5
0,55,95,10
0,64,92,0
0,60,95,0
0,36,115,10
0,67,105,5
0,42,71,10
0,35,119,0
0,36,115,5
0,36,115,17
0,55,24,9
0,64,80,0
0,60,83,0
0,38,113,4
0,42,106,0
0,35,121,0
0,36,115,0
0,36,115,10
0,55,58,13
0,64,66,0
0,42,73,1
0,35,115,0
0,36,115,0
0,36,115,6
0,55,88,14
0,64,83,0
0,60,91,0
0,38,111,1
0,42,118,0
0,35,121,0
0,36,115,5
0,60,95,15
0,64,92,0
0,57,95,0
0,36,115,10
0,42,74,16
0,35,119,0
0,36,115,0
0,36,115,4
0,72,105,10
0,57,56,4
0,64,56,0
0,38,111,1
0,42,106,0
0,35,121,0
0,36,115,0
0,72,105,2
0,36,115,2
0,64,69,10
0,57,68,0
0,72,105,3
0,42,73,1
0,35,117,0
0,36,115,0
0,72,105,24
0,36,115,3
0,72,105,7
0,57,85,1
0,64,82,0
0,60,86,0
0,38,111,1
0,42,114,0
0,35,121,0
0,36,115,5
0,60,95,4
0,64,95,0
0,55,95,0
0,72,105,1
0,36,115,9
0,42,75,14
0,35,115,0
0,72,105,3
0,36,115,0
0,76,105,1
0,36,115,3
0,55,75,11
0,64,74,0
0,38,111,3
0,42,116,0
0,35,121,0
0,36,115,0
0,36,115,3
0,64,70,11
0,55,67,0
0,42,71,1
0,35,117,0
0,36,115,0
0,36,115,3
0,55,95,10
0,60,95,0
0,64,91,0
0,38,113,2
0,42,116,0
0,35,121,0
0,36,115,0
0,60,95,14
0,57,95,0
0,64,95,0
0,36,115,10
0,42,71,18
0,35,117,0
0,36,115,0
0,36,115,11
0,69,105,4
0,57,70,6
0,38,111,4
0,42,116,0
0,35,121,0
0,36,115,0
0,69,105,12
0,36,115,20
0,57,59,11
0,67,105,3
0,42,74,0
0,35,119,0
0,36,115,0
0,36,115,0
0,65,105,1
0,57,94,6
0,60,92,0
0,64,89,0
0,38,111,5
0,42,110,0
0,35,121,0
0,36,115,5
0,67,105,7
0,60,95,4
0,64,94,0
0,55,95,0
0,36,115,10
0,42,81,17
0,35,119,0
0,36,115,5
0,36,115,3
0,55,65,11
0,64,63,0
0,38,109,4
0,42,90,0
0,35,121,0
0,36,115,5
0,36,115,6
0,55,63,10
0,64,54,0
0,42,80,4
0,35,121,0
0,36,115,0
0,36,115,32
0,55,91,12
0,60,94,0
0,64,94,0
0,38,111,1
0,42,98,0
0,35,121,0
0,36,115,5
0,60,95,12
0,55,95,0
0,58,95,0
0,64,95,0
0,36,115,10
0,42,76,17
0,35,117,0
0,36,115,0
0,36,115,3
0,76,105,11
0,55,75,3
0,64,62,0
0,38,109,1
0,42,88,0
0,35,121,0
0,36,115,5
0,74,105,14
0,36,115,10
0,60,77,3
0,58,86,0
0,64,80,0
0,55,80,0
0,72,105,3
0,42,82,0
0,35,119,0
0,36,115,0
0,76,105,10
0,36,115,3
0,76,105,11
0,38,108,3
0,42,95,0
0,35,121,0
0,55,71,1
0,64,55,0
0,36,115,4
0,74,105,0
0,64,95,4
0,60,95,0
0,53,95,0
0,57,95,0
0,36,115,7
0,72,105,6
0,42,83,10
0,35,119,0
0,29,115,0
0,29,115,2
0,64,68,15
0,53,69,0
0,76,105,2
0,38,108,1
0,42,91,0
0,35,121,0
0,29,115,5
0,74,105,6
0,29,115,5
0,72,105,8
0,64,64,2
0,53,47,0
0,42,82,4
0,35,119,0
0,28,115,0
0,28,115,0
0,64,69,9
0,53,61,0
0,38,111,1
0,42,98,0
0,35,121,0
0,28,115,5
0,57,92,4
0,60,95,0
0,64,91,0
0,53,95,0
0,28,115,10
0,42,73,13
0,35,121,0
0,26,115,0
0,76,105,24
0,26,115,4
0,53,64,11
0,64,56,0
0,76,105,0
0,38,109,2
0,42,108,0
0,35,121,0
0,26,115,5
0,76,105,0
0,26,115,4
0,57,62,9
0,53,65,0
0,60,68,0
0,64,65,0
0,76,105,0
0,42,83,3
0,35,121,0
0,26,115,4
0,76,105,13
0,26,115,3
0,74,105,5
0,57,71,1
0,60,51,0
0,53,75,0
0,64,77,0
0,38,113,1
0,42,106,0
0,35,121,0
0,26,115,5
0,72,105,13
0,55,95,4
0,60,95,0
0,64,95,0
0,26,115,10
0,42,77,6
0,35,121,0
0,36,115,1
0,36,115,10
0,55,70,12
0,64,68,0
0,38,115,4
0,42,102,0
0,35,121,0
0,36,115,1
0,36,115,2
0,55,76,16
0,64,69,0
0,42,79,2
0,35,119,0
0,36,115,0
0,36,115,1
0,55,82,16
0,64,77,0
0,38,116,1
0,42,108,0
0,35,121,0
0,36,115,5
0,60,95,13
0,64,95,0
0,58,95,0
0,55,95,0
0,36,115,10
0,42,81,18
0,35,121,0
0,36,115,0
0,36,115,36
0,76,105,10
0,58,83,3
0,38,113,1
0,42,110,0
0,35,121,0
0,36,115,5
0,74,105,12
0,36,115,7
0,55,63,6
0,72,105,5
0,42,86,3
0,35,121,0
0,36,115,0
0,76,105,12
0,36,115,2
0,60,82,5
0,58,92,0
0,64,80,0
0,55,89,0
0,76,105,0
0,38,116,3
0,42,97,0
0,35,121,0
0,36,115,0
0,76,105,16
0,74,105,7
0,60,95,2
0,53,95,0
0,64,95,0
0,57,95,0
0,36,115,12
0,72,105,2
0,42,86,8
0,35,121,0
0,29,115,0
0,29,115,2
0,60,44,1
0,64,71,0
0,57,74,0
0,53,71,0
0,38,111,3
0,42,100,0
0,35,121,0
0,29,115,0
0,29,115,6
0,64,65,6
0,53,60,0
0,42,85,4
0,35,119,0
0,28,115,0
0,28,115,6
0,76,105,12
0,64,68,2
0,53,56,0
0,38,115,1
0,42,92,0
0,35,121,0
0,28,115,5
0,74,105,1
0,57,92,13
0,60,95,0
0,53,95,0
0,64,94,0
0,72,105,4
0,28,115,3
0,42,82,13
0,35,121,0
0,26,115,0
0,26,115,3
0,64,71,7
0,57,55,0
0,53,69,0
0,38,109,3
0,42,91,0
0,35,121,0
0,26,115,0
0,26,115,11
0,64,68,12
0,53,53,0
0,42,79,1
0,35,121,0
0,26,115,5
0,76,105,27
0,26,115,4
0,64,69,11
0,53,69,0
0,38,111,1
0,42,91,0
0,35,121,0
0,26,115,4
0,74,105,0
0,60,95,4
0,64,95,0
0,55,95,0
0,26,115,10
0,72,105,6
0,42,85,5
0,35,119,0
0,36,115,5
0,36,115,2
0,64,71,11
0,55,75,0
0,38,109,2
0,42,95,0
0,35,121,0
0,36,115,0
0,36,115,6
0,64,74,14
0,55,74,0
0,42,85,1
0,35,121,0
0,36,115,5
0,36,115,6
0,55,85,12
0,60,89,0
0,64,83,0
0,38,109,1
0,42,94,0
0,35,121,0
0,36,115,5
0,60,95,16
0,57,95,0
0,64,95,0
0,36,115,10
0,42,85,15
0,35,121,0
0,36,115,0
0,36,115,11
0,64,66,10
0,57,68,0
0,38,109,4
0,42,90,0
0,35,121,0
0,36,115,0
0,36,115,7
0,64,72,14
0,57,74,0
0,42,76,1
0,35,121,0
0,36,115,5
0,36,115,2
0,57,86,10
0,60,88,0
0,64,84,0
0,38,109,2
0,42,91,0
0,35,121,0
0,36,115,0
0,60,95,16
0,55,95,0
0,64,95,0
0,36,115,10
0,42,81,13
0,35,121,0
0,36,115,1
0,36,115,11
0,55,79,10
0,64,80,0
0,38,109,4
0,42,100,0
0,35,121,0
0,36,115,0
0,36,115,7
0,64,70,17
0,55,68,0
0,42,87,1
0,35,121,0
0,36,115,5
0,36,115,4
0,60,88,12
0,64,85,0
0,55,84,0
0,38,109,1
0,42,95,0
0,35,121,0
0,36,115,5
0,60,95,16
0,64,95,0
0,57,95,0
0,36,115,10
0,42,91,15
0,35,121,0
0,36,115,0
0,36,115,12
0,60,52,8
0,57,73,0
0,64,71,0
0,38,111,4
0,42,94,0
0,35,121,0
0,36,115,0
0,67,105,9
0,36,115,3
0,57,80,4
0,60,82,0
0,64,80,0
0,42,87,4
0,35,121,0
0,72,105,4
0,36,115,0
0,36,115,8
0,72,105,5
0,57,94,9
0,53,89,0
0,60,92,0
0,64,86,0
0,38,115,2
0,42,87,0
0,35,121,0
0,36,115,5
0,72,105,18
0,64,95,8
0,60,95,0
0,55,94,0
0,36,115,6
0,60,92,11
0,64,92,0
0,55,92,0
0,42,85,1
0,35,121,0
0,36,115,0
0,72,105,6
0,55,67,10
0,36,115,2
0,55,77,4
0,60,88,0
0,64,84,0
0,38,109,1
0,42,83,0
0,35,121,0
0,36,115,5
0,64,71,22
0,60,72,0
0,36,115,1
0,60,80,13
0,64,77,0
0,55,69,0
0,42,87,1
0,35,121,0
0,36,115,0
0,60,65,24
0,64,55,0
0,36,115,2
0,60,95,16
0,55,88,0
0,64,92,0
0,55,75,1
0,60,84,0
0,64,85,0
0,38,111,0
0,42,81,0
0,35,121,0
0,36,115,5
0,64,92,18
0,53,94,0
0,60,94,0
0,57,95,0
0,57,92,1
0,60,92,0
0,64,92,0
0,36,115,6
0,42,80,17
0,35,121,0
0,36,115,4
0,60,58,25
0,57,49,0
0,36,115,5
0,57,77,14
0,60,87,0
0,64,85,0
0,38,109,1
0,42,95,0
0,35,121,0
0,36,115,5
0,69,105,1
0,64,51,9
0,36,115,6
0,69,105,0
0,60,68,7
0,64,70,0
0,53,69,0
0,57,68,0
0,57,76,1
0,60,87,0
0,64,83,0
0,42,76,0
0,35,117,0
0,36,115,5
0,69,105,1
0,69,105,1
0,64,60,7
0,60,58,0
0,36,115,2
0,69,105,2
0,57,82,13
0,64,82,0
0,53,80,0
0,60,80,0
0,60,91,0
0,57,80,0
0,64,88,0
0,38,113,0
0,42,124,0
0,35,121,0
0,36,115,5
0,67,105,4
0,65,105,0
0,64,95,8
0,55,95,0
0,60,95,0
0,64,92,1
0,55,92,0
0,60,92,0
0,36,115,0
0,67,105,9
0,42,71,14
0,35,119,0
0,36,115,0
0,60,60,27
0,36,115,0
0,64,55,14
0,55,68,0
0,60,92,1
0,64,92,0
0,55,92,0
0,38,113,0
0,42,106,0
0,35,121,0
0,36,115,5
0,64,66,30
0,60,70,0
0,36,115,6
0,60,76,15
0,55,69,0
0,64,77,0
0,42,73,0
0,35,115,0
0,36,115,5
0,60,74,25
0,64,70,0
0,36,115,6
0,60,88,9
0,64,88,0
0,55,88,0
0,60,89,1
0,64,89,0
0,55,80,0
0,38,111,0
0,42,118,0
0,35,121,0
0,36,115,5
0,60,92,11
0,64,92,0
0,57,88,0
0,64,95,1
0,60,95,0
0,53,95,0
0,57,95,0
0,36,115,6
0,42,74,6
