track,note,velocity,time
0,69,65,101
0,69,65,145
0,69,65,20
0,69,65,9
0,69,65,20
0,69,65,36
0,69,65,20
0,69,65,40
0,69,65,123
0,69,65,138
0,69,65,20
0,69,65,26
0,69,65,20
0,69,65,54
0,69,65,20
0,69,65,5
0,69,65,87
0,69,65,135
0,69,65,20
0,69,65,135
0,69,65,50
0,69,65,110
0,69,65,133
0,54,80,128
0,69,65,0
0,42,83,5
0,69,65,143
0,69,65,120
0,42,85,2
0,54,75,3
0,51,75,140
0,69,65,5
0,39,75,5
0,51,74,122
0,39,107,5
0,69,65,8
0,37,75,93
0,49,71,2
0,69,65,8
0,51,80,5
0,39,74,5
0,69,65,8
0,40,101,93
0,69,65,0
0,69,65,130
0,36,88,135
0,69,65,0
0,69,65,130
0,69,65,140
0,69,65,135
0,69,65,140
0,69,65,135
0,40,101,145
0,69,65,0
0,51,59,10
0,69,65,0
0,42,91,10
0,54,82,0
0,36,88,143
0,69,65,0
0,42,83,130
0,54,75,5
0,69,65,5
0,39,68,137
0,51,62,0
0,69,65,8
0,39,78,127
0,51,68,0
0,69,65,8
0,37,72,85
0,49,67,2
0,69,65,8
0,51,70,123
0,39,85,10
0,69,65,0
0,40,101,105
0,69,65,0
0,69,65,135
0,51,61,10
0,39,67,5
0,36,88,108
0,69,65,0
0,44,71,7
0,32,82,3
0,69,65,140
0,36,88,138
0,69,65,0
0,34,78,5
0,46,77,0
0,69,65,135
0,42,74,135
0,36,88,5
0,69,65,0
0,30,72,2
0,69,65,148
0,40,101,148
0,69,65,0
0,51,60,7
0,39,75,5
0,69,65,0
0,42,85,7
0,54,82,0
0,36,88,138
0,69,65,0
0,42,77,130
0,54,78,5
0,69,65,0
0,51,70,133
0,39,74,5
0,40,101,0
0,69,65,0
0,51,71,130
0,39,107,2
0,69,65,3
0,37,68,92
0,49,66,0
0,69,65,8
0,51,83,8
0,39,80,2
0,69,65,8
0,40,101,105
0,69,65,0
0,69,65,140
0,51,62,10
0,39,57,5
0,36,88,143
0,69,65,0
0,32,78,5
0,44,74,0
0,69,65,3
0,46,82,138
0,34,75,2
0,69,65,3
0,69,65,143
0,47,80,145
0,69,65,5
0,35,73,7
0,47,55,35
0,35,63,3
0,69,65,10
0,51,66,37
0,39,87,3
0,36,88,0
0,40,101,0
0,69,65,0
0,54,78,125
0,42,85,5
0,69,65,0
0,36,88,140
0,69,65,0
0,69,65,113
0,42,78,10
0,54,71,0
0,40,101,135
0,69,65,0
0,51,67,5
0,39,68,7
0,51,67,78
0,69,65,0
0,39,107,5
0,37,67,80
0,49,67,7
0,69,65,3
0,51,62,130
0,69,65,10
0,39,107,5
0,40,101,100
0,69,65,0
0,69,65,70
0,39,67,7
0,51,57,3
0,36,88,130
0,69,65,0
0,32,82,7
0,44,70,0
0,69,65,110
0,34,78,147
0,46,78,0
0,40,101,0
0,69,65,0
0,69,65,145
0,39,82,142
0,69,65,0
0,27,74,2
0,54,79,33
0,56,82,10
0,58,48,30
0,69,65,3
0,61,61,15
0,63,79,8
0,66,54,10
0,68,50,0
0,70,65,0
0,73,67,15
0,75,61,3
0,78,73,22
0,80,75,15
0,82,60,15
0,69,65,5
0,85,77,0
0,87,64,0
0,90,94,22
0,92,94,15
0,94,84,15
0,87,66,0
0,69,65,15
0,85,56,15
0,82,57,15
0,80,46,0
0,78,56,12
0,75,58,3
0,73,53,12
0,70,62,0
0,68,60,0
0,66,57,0
0,63,61,0
0,36,88,8
0,42,73,0
0,69,65,0
0,42,40,0
0,58,100,20
0,61,90,0
0,63,90,0
0,66,90,0
0,61,59,0
0,39,40,0
0,42,98,0
0,69,65,0
0,44,40,105
0,36,88,0
0,40,101,0
0,42,67,0
0,69,65,0
0,58,86,2
0,61,84,0
0,63,85,0
0,68,87,0
0,42,40,3
0,42,99,0
0,69,65,0
0,58,95,107
0,61,87,0
0,63,85,0
0,66,77,0
0,36,88,13
0,42,67,0
0,69,65,0
0,46,40,0
0,44,40,28
0,42,104,0
0,69,65,0
0,54,75,0
0,58,75,0
0,61,75,0
0,63,75,0
0,54,75,3
0,58,75,0
0,61,75,0
0,63,75,0
0,36,88,65
0,40,101,0
0,42,68,0
0,69,65,0
0,39,40,145
0,42,99,0
0,69,65,0
0,46,40,113
0,36,88,0
0,42,57,0
0,69,65,0
0,59,89,7
0,63,98,0
0,66,100,3
0,51,40,10
0,44,40,0
0,42,102,0
0,69,65,0
0,63,90,110
0,36,88,3
0,40,101,0
0,42,62,0
0,69,65,0
0,51,40,0
0,59,91,7
0,68,92,3
0,39,40,13
0,49,40,20
0,42,102,0
0,69,65,0
0,63,79,7
0,59,92,3
0,66,97,0
0,39,40,23
0,46,40,33
0,36,88,0
0,42,67,0
0,69,65,0
0,39,40,23
0,44,40,120
0,42,99,0
0,69,65,0
0,58,75,0
0,46,40,10
0,42,40,118
0,36,88,0
0,40,101,0
0,42,68,0
0,69,65,0
0,42,104,105
0,69,65,0
0,42,40,125
0,36,88,0
0,42,67,0
0,69,65,0
0,54,75,0
0,58,75,0
0,61,75,0
0,63,75,0
0,58,95,5
0,66,85,0
0,63,88,1
0,61,86,3
0,39,40,0
0,42,99,0
0,69,65,0
0,54,75,3
0,58,75,0
0,61,75,0
0,63,75,0
0,58,85,80
0,63,80,0
0,36,88,8
0,40,101,0
0,42,69,0
0,69,65,0
0,46,40,0
0,54,75,0
0,58,75,0
0,61,75,0
0,63,75,0
0,61,77,2
0,68,87,0
0,42,40,15
0,42,104,0
0,69,65,0
0,58,87,42
0,61,80,0
0,63,79,0
0,66,72,0
0,36,88,8
0,42,65,0
0,69,65,0
0,42,40,0
0,44,40,13
0,42,106,0
0,69,65,0
0,63,77,42
0,58,84,5
0,61,80,0
0,68,82,0
0,36,88,3
0,40,101,0
0,42,65,0
0,69,65,0
0,42,40,0
0,39,40,13
0,42,109,0
0,69,65,0
0,63,81,0
0,66,90,0
0,36,88,5
0,42,62,0
0,69,65,0
0,54,40,0
0,59,95,0
0,49,40,3
0,42,106,0
0,69,65,0
0,63,84,5
0,59,85,0
0,68,94,0
0,36,88,3
0,40,101,0
0,42,58,0
0,69,65,0
0,54,40,0
0,51,40,10
0,49,40,0
0,42,109,0
0,69,65,0
0,59,87,10
0,63,77,0
0,66,100,2
0,51,40,10
0,49,40,8
0,36,88,0
0,42,60,0
0,69,65,0
0,46,40,113
0,42,109,0
0,69,65,0
0,61,98,12
0,44,40,125
0,36,88,0
0,40,101,0
0,42,62,0
0,69,65,0
0,63,78,5
0,63,84,75
0,66,92,0
0,42,109,3
0,69,65,0
0,39,40,0
0,58,100,2
0,61,82,0
0,42,40,123
0,36,88,0
0,42,68,0
0,69,65,0
0,39,40,8
0,42,109,0
0,69,65,0
0,58,103,102
0,63,87,0
0,61,86,3
0,68,87,0
0,36,88,10
0,40,101,0
0,42,63,0
0,69,65,0
0,44,40,0
0,42,40,3
0,42,102,0
0,69,65,0
0,58,92,102
0,66,78,0
0,61,84,8
0,63,85,0
0,36,88,5
0,42,65,0
0,69,65,0
0,46,40,0
0,44,40,3
0,42,109,0
0,69,65,0
0,36,88,120
0,40,101,0
0,42,68,0
0,69,65,0
0,44,40,0
0,42,109,0
0,69,65,0
0,44,40,85
0,36,88,0
0,42,60,0
0,69,65,0
0,59,99,7
0,63,98,0
0,66,105,0
0,42,40,3
0,42,104,0
0,69,65,0
0,63,87,100
0,59,87,5
0,36,88,0
0,40,101,0
0,42,64,0
0,69,65,0
0,44,40,0
0,68,94,2
0,46,40,3
0,42,109,0
0,69,65,0
0,63,78,5
0,59,88,5
0,66,98,0
0,49,40,10
0,36,88,0
0,42,58,0
0,69,65,0
0,44,40,53
0,42,109,0
0,69,65,0
0,61,97,15
0,46,40,90
0,36,88,0
0,40,101,0
0,42,65,0
0,69,65,0
0,63,72,10
0,42,109,10
0,69,65,0
0,58,100,15
0,61,88,0
0,63,85,0
0,66,94,0
0,39,40,113
0,36,88,0
0,42,60,0
0,69,65,0
0,39,40,100
0,42,106,0
0,69,65,0
0,42,40,113
0,36,88,0
0,40,101,0
0,42,62,0
0,69,65,0
0,63,86,2
0,58,103,3
0,61,85,0
0,68,97,0
0,39,40,8
0,42,40,0
0,42,93,0
0,69,65,0
0,66,85,102
0,58,102,5
0,61,82,0
0,63,82,0
0,36,88,3
0,42,56,0
0,69,65,0
0,44,40,0
0,42,40,8
0,42,102,0
0,69,65,0
0,63,84,82
0,68,80,0
0,58,91,3
0,61,82,0
0,36,88,5
0,40,101,0
0,42,73,0
0,69,65,0
0,46,40,0
0,42,109,0
0,69,65,0
0,59,101,0
0,63,87,0
0,66,91,0
0,51,40,0
0,36,88,0
0,42,65,0
0,69,65,0
0,51,40,35
0,42,99,0
0,69,65,0
0,63,78,0
0,59,85,5
0,49,40,3
0,36,88,0
0,40,101,0
0,42,69,0
0,69,65,0
0,68,94,2
0,51,40,25
0,42,97,0
0,69,65,0
0,63,86,15
0,59,89,0
0,66,100,0
0,54,40,10
0,36,88,0
0,42,62,0
0,69,65,0
0,54,40,113
0,58,90,0
0,42,104,0
0,69,65,0
0,51,40,108
0,63,90,0
0,36,88,0
0,40,101,0
0,42,67,0
0,69,65,0
0,49,40,28
0,66,90,0
0,42,106,0
0,69,65,0
0,46,40,3
0,39,40,13
0,70,90,0
0,36,88,0
0,42,67,0
0,69,65,0
0,58,100,20
0,61,90,0
0,63,90,0
0,66,90,0
0,39,40,0
0,42,102,0
0,69,65,0
0,42,40,88
0,36,88,0
0,40,101,0
0,42,63,0
0,69,65,0
0,58,86,2
0,61,84,0
0,63,85,0
0,68,87,0
0,39,40,5
0,42,97,0
0,69,65,0
0,58,95,107
0,61,87,0
0,63,85,0
0,66,77,0
0,36,88,13
0,42,65,0
0,69,65,0
0,44,40,0
0,42,40,28
0,42,97,0
0,69,65,0
0,68,90,113
0,36,88,0
0,40,101,0
0,42,66,0
0,69,65,0
0,46,40,3
0,66,90,0
0,42,99,0
0,69,65,0
0,44,40,55
0,36,88,0
0,42,64,0
0,69,65,0
0,59,89,7
0,63,98,0
0,66,100,3
0,44,40,0
0,42,104,0
0,69,65,0
0,63,90,95
0,36,88,3
0,40,101,0
0,42,72,0
0,69,65,0
0,49,40,0
0,59,91,7
0,68,92,3
0,51,40,8
0,42,99,0
0,69,65,0
0,63,79,12
0,59,92,3
0,66,97,0
0,49,40,70
0,36,88,0
0,42,68,0
0,69,65,0
0,54,40,48
0,63,90,0
0,42,104,0
0,69,65,0
0,51,40,98
0,66,90,0
0,36,88,0
0,40,101,0
0,42,69,0
0,69,65,0
0,49,40,65
0,68,90,0
0,42,99,0
0,69,65,0
0,42,40,10
0,70,90,0
0,36,88,0
0,42,73,0
0,69,65,0
0,58,95,5
0,66,85,0
0,63,88,2
0,61,86,3
0,39,40,0
0,42,99,0
0,69,65,0
0,58,85,100
0,63,80,0
0,36,88,8
0,40,101,0
0,42,69,0
0,69,65,0
0,46,40,0
0,75,90,0
0,61,77,2
0,68,87,0
0,42,40,25
0,42,97,0
0,69,65,0
0,58,87,42
0,61,80,0
0,63,79,0
0,66,72,0
0,36,88,8
0,42,68,0
0,69,65,0
0,42,40,0
0,70,90,0
0,44,40,13
0,42,104,0
0,69,65,0
0,63,77,42
0,58,84,5
0,61,80,0
0,68,82,0
0,36,88,3
0,40,101,0
0,42,63,0
0,69,65,0
0,42,40,0
0,68,90,0
0,39,40,0
0,42,102,0
0,69,65,0
0,63,81,0
0,66,90,0
0,36,88,5
0,42,73,0
0,69,65,0
0,54,40,0
0,66,90,0
0,59,95,0
0,49,40,3
0,66,90,0
0,42,106,0
0,69,65,0
0,63,84,5
0,59,85,0
0,68,94,0
0,36,88,3
0,40,101,0
0,42,66,0
0,69,65,0
0,54,40,0
0,68,90,0
0,51,40,8
0,49,40,0
0,66,90,0
0,42,99,0
0,69,65,0
0,59,87,10
0,63,77,0
0,66,100,2
0,51,40,15
0,49,40,8
0,36,88,0
0,42,67,0
0,69,65,0
0,46,40,113
0,63,90,0
0,42,109,0
0,69,65,0
0,61,98,12
0,44,40,108
0,66,90,0
0,36,88,0
0,40,101,0
0,42,66,0
0,69,65,0
0,63,78,5
0,63,84,25
0,66,92,2
0,42,102,3
0,69,65,0
0,39,40,0
0,70,90,0
0,58,100,2
0,61,82,0
0,42,40,110
0,36,88,0
0,42,68,0
0,69,65,0
0,39,40,138
0,42,109,0
0,69,65,0
0,58,103,92
0,63,87,0
0,61,86,3
0,68,87,0
0,36,88,10
0,40,101,0
0,42,65,0
0,69,65,0
0,44,40,0
0,42,40,3
0,42,102,0
0,69,65,0
0,58,92,90
0,66,78,0
0,61,84,8
0,63,85,0
0,36,88,5
0,42,67,0
0,69,65,0
0,46,40,0
0,44,40,3
0,42,106,0
0,69,65,0
0,68,90,113
0,36,88,0
0,40,101,0
0,42,69,0
0,69,65,0
0,39,40,3
0,66,90,0
0,42,104,0
0,69,65,0
0,46,40,110
0,36,88,0
0,42,66,0
0,69,65,0
0,59,99,7
0,63,98,0
0,66,105,0
0,51,40,10
0,44,40,3
0,42,109,0
0,69,65,0
0,63,87,113
0,59,87,5
0,36,88,0
0,40,101,0
0,42,73,0
0,69,65,0
0,51,40,0
0,68,94,2
0,39,40,13
0,49,40,23
0,42,102,0
0,69,65,0
0,63,78,0
0,59,88,5
0,66,98,0
0,39,40,3
0,46,40,10
0,36,88,0
0,42,69,0
0,69,65,0
0,39,40,15
0,44,40,120
0,63,90,0
0,42,102,0
0,69,65,0
0,61,97,13
0,46,40,10
0,42,40,113
0,66,90,0
0,36,88,0
0,40,101,0
0,42,61,0
0,69,65,0
0,63,72,3
0,70,90,44
0,42,104,0
0,69,65,0
0,58,100,13
0,61,88,0
0,63,85,0
0,66,94,0
0,42,40,103
0,36,88,0
0,42,64,0
0,69,65,0
0,39,40,13
0,42,109,0
0,69,65,0
0,46,40,93
0,68,90,0
0,36,88,0
0,40,101,0
0,42,67,0
0,69,65,0
0,63,86,2
0,58,103,3
0,61,85,0
0,68,97,0
0,42,40,18
0,42,109,0
0,69,65,0
0,66,85,42
0,58,102,5
0,61,82,0
0,63,82,0
0,36,88,3
0,42,67,0
0,69,65,0
0,42,40,0
0,66,90,0
0,44,40,13
0,42,97,0
0,69,65,0
0,63,84,42
0,68,80,0
0,58,91,3
0,61,82,0
0,36,88,5
0,40,101,0
0,42,69,0
0,69,65,0
0,42,40,0
0,68,90,0
0,39,40,0
0,42,99,0
0,69,65,0
0,59,101,0
0,63,87,0
0,66,91,0
0,36,88,5
0,42,60,0
0,69,65,0
0,54,40,0
0,63,90,0
0,49,40,35
0,63,90,0
0,42,102,0
0,69,65,0
0,63,78,0
0,59,85,5
0,54,40,3
0,66,90,0
0,36,88,0
0,40,101,0
0,42,59,0
0,69,65,0
0,68,94,2
0,51,40,38
0,49,40,0
0,63,90,0
0,42,97,0
0,69,65,0
0,63,86,15
0,59,89,2
0,66,100,0
0,51,40,25
0,49,40,10
0,36,88,0
0,42,57,0
0,69,65,0
0,46,40,113
0,66,90,0
0,42,106,0
0,69,65,0
0,44,40,100
0,68,90,0
0,36,88,0
0,40,101,0
0,42,59,0
0,69,65,0
0,39,40,3
0,70,90,0
0,42,97,0
0,69,65,0
0,42,40,103
0,36,88,0
0,42,68,0
0,69,65,0
0,58,100,20
0,61,90,0
0,63,90,0
0,66,90,0
0,39,40,0
0,42,99,0
0,69,65,0
0,44,40,98
0,36,88,0
0,40,101,0
0,42,60,0
0,69,65,0
0,58,86,2
0,61,84,0
0,63,85,0
0,68,87,0
0,42,40,10
0,42,99,0
0,69,65,0
0,58,95,75
0,61,87,0
0,63,85,0
0,66,77,0
0,36,88,13
0,42,62,0
0,69,65,0
0,46,40,0
0,44,40,28
0,42,102,0
0,69,65,0
0,68,90,113
0,36,88,0
0,40,101,0
0,42,64,0
0,69,65,0
0,39,40,0
0,66,90,0
0,42,102,0
0,69,65,0
0,46,40,100
0,36,88,0
