track,note,velocity,time
1,48,67,93
1,48,0,940
1,48,67,20
1,48,0,940
1,48,67,20
1,48,0,477
1,52,67,3
1,52,0,477
1,55,67,3
1,55,0,477
1,45,67,3
1,45,0,477
1,50,67,3
1,50,0,477
1,46,67,3
1,46,0,477
1,55,67,3
1,55,0,477
1,48,67,3
1,48,0,477
1,48,67,3
1,48,0,477
1,52,67,3
1,52,0,477
1,55,67,3
1,55,0,477
1,45,67,3
1,45,0,477
1,50,67,3
1,50,0,477
1,46,67,3
1,46,0,477
1,55,67,3
1,55,0,477
1,48,67,3
1,48,0,477
1,45,67,3
1,45,0,477
1,50,67,3
1,50,0,477
1,48,67,3
1,48,0,477
1,45,67,3
1,45,0,477
1,50,67,3
1,50,0,940
1,48,67,20
1,48,0,940
1,50,67,20
1,50,0,477
1,54,67,3
1,54,0,477
1,45,67,3
1,45,0,477
1,47,67,3
1,47,0,237
1,45,67,3
1,45,0,117
1,47,67,3
1,47,0,117
1,52,67,3
1,52,0,477
1,48,67,3
1,48,0,477
1,45,67,3
1,45,0,477
1,50,67,3
1,50,0,477
1,50,67,3
1,50,0,477
1,54,67,3
1,54,0,477
1,45,67,3
1,45,0,477
1,47,67,3
1,47,0,237
1,45,67,3
1,45,0,117
1,47,67,3
1,47,0,117
1,52,67,3
1,52,0,477
1,48,67,3
1,48,0,477
1,45,67,3
1,45,0,117
1,45,67,3
1,45,0,117
1,45,67,3
1,45,0,237
1,50,67,3
1,50,0,477
1,47,67,3
1,47,0,477
1,52,67,3
1,52,0,477
1,47,67,3
1,47,0,477
1,54,67,3
1,54,0,477
1,52,67,3
1,52,0,477
1,54,67,3
1,54,0,477
1,47,67,3
1,47,0,940
1,52,67,20
1,52,0,477
1,55,67,3
1,55,0,477
1,47,67,3
1,47,0,940
1,52,67,20
1,52,0,477
1,55,67,3
1,55,0,477
1,47,67,3
1,47,0,477
1,35,69,7
1,35,0,953
2,35,1,90
2,35,0,25
2,35,1,455
2,35,0,25
2,35,1,455
2,35,0,25
2,35,1,455
2,35,0,25
2,35,1,455
2,35,0,25
2,35,1,455
2,35,0,25
2,35,1,455
2,35,0,25
2,35,1,455
2,35,0,25
2,35,1,455
2,35,0,25
2,35,1,455
2,35,0,25
2,35,1,455
2,35,0,25
2,35,1,455
2,35,0,25
2,35,1,455
2,35,0,25
2,35,1,455
2,35,0,25
2,35,1,455
2,35,0,25
2,35,1,455
2,35,0,25
2,35,1,455
2,35,0,25
2,35,1,455
2,35,0,25
2,35,1,455
2,35,0,25
2,35,1,455
2,35,0,25
2,35,1,455
2,35,0,25
2,35,1,455
2,35,0,25
2,35,1,455
2,35,0,25
2,35,1,455
2,35,0,25
2,35,1,455
2,35,0,25
2,35,1,455
2,35,0,25
2,35,1,455
2,35,0,25
2,35,1,455
2,35,0,25
2,35,1,455
2,35,0,25
2,35,1,455
2,35,0,25
2,35,1,455
2,35,0,25
2,35,1,455
2,35,0,25
2,35,1,455
2,35,0,25
2,35,1,455
2,35,0,25
2,35,1,455
2,35,0,25
2,35,1,455
2,35,0,25
2,35,1,455
2,35,0,25
2,35,1,455
2,35,0,25
2,35,1,455
2,35,0,25
2,35,1,455
2,35,0,25
2,35,1,455
2,35,0,25
2,35,1,455
2,35,0,25
2,35,1,455
2,35,0,25
2,35,1,455
2,35,0,25
2,35,1,455
2,35,0,25
2,35,1,455
2,35,0,25
2,35,1,455
2,35,0,25
2,35,1,455
2,35,0,25
2,35,1,455
2,35,0,25
2,35,1,455
2,35,0,25
2,35,1,455
2,35,0,25
2,35,1,455
2,35,0,25
2,35,1,455
2,35,0,25
2,35,1,455
2,35,0,25
2,35,1,455
2,35,0,25
2,35,1,455
2,35,0,25
2,35,1,455
2,35,0,25
2,35,1,455
2,35,0,25
2,35,1,455
2,35,0,25
2,35,1,455
2,35,0,25
2,35,1,455
2,35,0,25
3,76,109,91
3,64,111,0
3,48,76,0
3,52,68,43
3,64,0,35
3,76,0,20
3,55,76,3
3,52,0,1
3,48,0,52
3,52,68,6
3,72,104,0
3,55,0,3
3,72,0,30
3,52,0,14
3,60,96,13
3,67,104,0
3,64,108,0
3,48,69,0
3,55,60,12
3,67,0,12
3,64,0,12
3,60,0,14
3,52,71,22
3,48,0,5
3,55,0,1
3,72,71,53
3,52,0,5
3,72,0,19
3,67,46,36
3,48,59,0
3,64,60,0
3,60,47,0
3,55,43,17
3,67,0,29
3,64,0,10
3,60,0,4
3,48,0,16
3,52,48,1
3,55,0,4
3,52,0,53
3,55,58,3
3,55,0,59
3,64,69,1
3,60,69,0
3,48,47,0
3,55,58,20
3,60,0,9
3,64,0,8
3,55,0,41
3,52,56,2
3,67,117,0
3,48,0,13
3,67,0,33
3,52,0,10
3,55,74,4
3,55,0,22
3,64,96,0
3,48,58,0
3,55,66,51
3,52,77,60
3,55,0,9
3,52,0,34
3,55,74,1
3,64,0,9
3,48,0,5
3,55,0,14
3,64,93,30
3,76,113,2
3,52,69,2
3,52,0,54
3,55,74,1
3,52,58,59
3,67,92,1
3,55,0,7
3,76,0,6
3,52,0,27
3,55,54,1
3,64,0,5
3,67,0,2
3,55,0,23
3,67,59,30
3,64,60,0
3,48,42,0
3,55,49,58
3,55,0,50
3,52,61,1
3,48,0,52
3,55,60,9
3,52,0,1
3,67,0,11
3,64,0,0
3,55,0,45
3,64,73,1
3,48,42,2
3,55,61,25
3,64,0,17
3,55,0,42
3,76,107,0
3,52,63,1
3,64,107,0
3,48,0,42
3,52,0,16
3,55,68,2
3,76,0,1
3,64,0,3
3,55,0,9
3,64,76,0
3,48,53,1
3,55,60,50
3,48,0,1
3,48,51,57
3,55,0,4
3,64,0,5
3,48,0,45
3,64,106,5
3,55,70,1
3,64,0,22
3,55,0,4
3,64,91,33
3,67,114,0
3,52,70,0
3,52,0,13
3,55,61,14
3,52,60,12
3,55,0,4
3,52,0,54
3,67,0,2
3,55,62,0
3,67,77,0
3,64,0,10
3,67,0,15
3,55,0,7
3,67,66,0
3,64,67,0
3,40,49,0
3,55,56,58
3,55,0,50
3,52,68,1
3,40,0,52
3,55,67,9
3,52,0,1
3,67,0,11
3,64,0,0
3,55,0,45
3,64,80,1
3,40,49,2
3,55,68,25
3,64,0,17
3,55,0,42
3,76,114,0
3,52,70,1
3,64,114,0
3,40,0,42
3,52,0,16
3,55,75,2
3,76,0,1
3,64,0,3
3,55,0,9
3,67,58,0
3,43,71,0
3,64,72,0
3,58,59,0
3,55,55,17
3,67,0,29
3,64,0,10
3,58,0,4
3,43,0,16
3,52,60,1
3,55,0,4
3,52,0,53
3,55,70,3
3,55,0,59
3,64,81,1
3,58,81,0
3,43,59,0
3,55,70,20
3,58,0,9
3,64,0,8
3,55,0,41
3,52,68,2
3,67,127,0
3,43,0,13
3,67,0,33
3,52,0,10
3,55,86,4
3,55,0,22
3,57,96,0
3,61,95,0
3,45,58,0
3,52,66,51
3,49,77,60
3,52,0,9
3,49,0,34
3,52,74,1
3,61,0,9
3,57,0,2
3,45,0,3
3,52,0,14
3,57,93,30
3,69,113,2
3,49,69,2
3,49,0,54
3,52,74,1
3,49,58,59
3,64,92,1
3,52,0,7
3,69,0,6
3,49,0,27
3,52,54,1
3,57,0,5
3,64,0,2
3,52,0,23
3,65,76,0
3,62,69,0
3,50,53,1
3,57,60,50
3,50,0,1
3,50,51,57
3,57,0,4
3,65,0,5
3,62,0,26
3,50,0,19
3,65,106,5
3,57,70,1
3,65,0,22
3,57,0,4
3,62,91,33
3,69,114,0
3,53,70,0
3,53,0,13
3,57,61,14
3,53,60,12
3,57,0,4
3,53,0,54
3,69,0,2
3,57,62,0
3,69,77,0
3,62,0,10
3,69,0,15
3,57,0,7
3,65,58,0
3,46,71,0
3,62,72,0
3,56,59,0
3,53,55,17
3,65,0,29
3,62,0,10
3,56,0,4
3,46,0,16
3,50,60,1
3,53,0,4
3,50,0,53
3,53,70,3
3,53,0,59
3,62,81,1
3,56,81,0
3,46,59,0
3,53,70,20
3,56,0,9
3,62,0,8
3,53,0,41
3,50,68,2
3,65,127,0
3,46,0,13
3,65,0,33
3,50,0,10
3,53,86,4
3,53,0,22
3,74,109,1
3,65,111,0
3,43,76,0
3,53,68,43
3,65,0,35
3,74,0,20
3,55,76,3
3,53,0,1
3,43,0,52
3,53,68,6
3,71,104,0
3,55,0,3
3,71,0,30
3,53,0,14
3,59,96,13
3,67,104,0
3,65,108,0
3,43,69,0
3,55,60,12
3,67,0,12
3,65,0,12
3,59,0,14
3,53,71,22
3,43,0,5
3,55,0,1
3,71,71,53
3,53,0,5
3,71,0,19
3,72,101,0
3,64,80,0
3,55,55,0
3,55,0,51
3,52,53,49
3,64,0,2
3,72,0,24
3,52,0,5
3,64,62,0
3,67,85,1
3,64,0,9
3,67,0,19
3,72,92,32
3,55,57,0
3,64,77,0
3,55,0,53
3,52,61,65
3,67,95,0
3,64,0,6
3,64,64,14
3,52,0,6
3,72,0,14
3,64,0,0
3,67,0,3
3,64,63,0
3,67,62,0
3,48,43,0
3,55,61,7
3,52,73,60
3,55,0,1
3,48,0,9
3,67,0,4
3,64,0,8
3,52,0,23
3,55,65,15
3,64,111,0
3,64,0,21
3,55,0,11
3,64,101,28
3,48,52,0
3,55,57,10
3,64,0,35
3,55,0,23
3,52,54,2
3,67,109,0
3,48,0,6
3,55,71,54
3,52,0,1
3,67,0,3
3,55,0,19
3,62,63,0
3,64,62,0
3,40,43,0
3,52,61,7
3,50,73,60
3,52,0,1
3,40,0,9
3,64,0,4
3,62,0,8
3,50,0,23
3,52,65,15
3,62,111,0
3,62,0,21
3,52,0,11
3,62,101,28
3,59,92,0
3,40,52,0
3,52,57,10
3,59,0,35
3,62,0,1
3,52,0,22
3,50,54,2
3,64,109,0
3,40,0,6
3,52,71,54
3,50,0,1
3,64,0,3
3,52,0,19
3,67,66,0
3,64,67,0
3,43,49,0
3,55,56,58
3,55,0,50
3,52,68,1
3,43,0,52
3,55,67,9
3,52,0,1
3,67,0,11
3,64,0,0
3,55,0,45
3,64,80,1
3,43,49,2
3,62,66,0
3,55,68,25
3,62,0,17
3,64,0,2
3,55,0,40
3,74,114,0
3,52,70,1
3,64,114,0
3,43,0,42
3,52,0,16
3,55,75,2
3,74,0,1
3,64,0,3
3,55,0,9
3,69,109,1
3,61,111,0
3,45,76,0
3,49,68,43
3,61,0,35
3,69,0,20
3,52,76,3
3,49,0,1
3,45,0,52
3,49,68,6
3,67,104,0
3,52,0,3
3,67,0,30
3,49,0,14
3,55,96,13
3,64,104,0
3,61,108,0
3,45,69,0
3,52,60,12
3,64,0,12
3,61,0,12
3,55,0,14
3,49,71,22
3,45,0,5
3,52,0,1
3,67,71,53
3,49,0,5
3,67,0,19
3,65,63,0
3,69,62,0
3,50,43,0
3,57,61,7
3,53,73,60
3,57,0,1
3,50,0,9
3,69,0,4
3,65,0,8
3,53,0,23
3,57,65,15
3,65,111,0
3,65,0,21
3,57,0,11
3,65,101,28
3,62,92,0
3,50,52,0
3,57,57,10
3,62,0,35
3,65,0,1
3,57,0,22
3,53,54,2
3,69,109,0
3,50,0,6
3,57,71,54
3,53,0,1
3,69,0,3
3,57,0,19
3,70,109,1
3,62,111,0
3,46,76,0
3,50,68,43
3,62,0,35
3,70,0,20
3,53,76,3
3,50,0,1
3,46,0,52
3,50,68,6
3,68,104,0
3,53,0,3
3,68,0,30
3,50,0,14
3,56,96,13
3,65,104,0
3,62,108,0
3,46,69,0
3,53,60,12
3,65,0,12
3,62,0,12
3,56,0,14
3,50,71,22
3,46,0,5
3,53,0,1
3,68,71,53
3,50,0,5
3,68,0,19
3,71,101,0
3,65,80,0
3,55,55,0
3,55,0,51
3,62,62,8
3,53,53,49
3,62,0,2
3,71,0,24
3,53,0,5
3,62,62,0
3,67,85,1
3,65,0,9
3,67,0,19
3,62,0,1
3,71,92,31
3,55,57,0
3,65,77,0
3,55,0,53
3,62,64,5
3,53,61,60
3,67,95,0
3,62,0,6
3,62,64,14
3,53,0,6
3,71,0,14
3,65,0,0
3,67,0,3
3,62,0,0
3,67,58,0
3,48,71,0
3,64,72,0
3,60,59,0
3,55,55,17
3,67,0,29
3,64,0,10
3,60,0,4
3,48,0,16
3,52,60,1
3,55,0,4
3,52,0,53
3,55,70,3
3,55,0,59
3,64,81,1
3,60,81,0
3,48,59,0
3,55,70,20
3,60,0,9
3,64,0,8
3,55,0,41
3,52,68,2
3,67,127,0
3,48,0,13
3,67,0,33
3,52,0,10
3,55,86,4
3,55,0,22
3,64,66,0
3,60,67,0
3,45,49,0
3,52,56,58
3,52,0,50
3,48,68,1
3,45,0,52
3,52,67,9
3,48,0,1
3,64,0,11
3,60,0,0
3,52,0,45
3,60,80,1
3,45,49,2
3,57,66,0
3,52,68,25
3,57,0,17
3,60,0,2
3,52,0,40
3,69,114,0
3,48,70,1
3,60,114,0
3,45,0,42
3,48,0,16
3,52,75,2
3,69,0,1
3,60,0,3
3,52,0,9
3,72,101,0
3,65,80,0
3,57,55,0
3,57,0,51
3,62,62,8
3,53,53,49
3,62,0,2
3,72,0,24
3,53,0,5
3,62,62,0
3,69,85,1
3,65,0,9
3,69,0,19
3,62,0,1
3,72,92,31
3,57,57,0
3,65,77,0
3,57,0,53
3,62,64,5
3,53,61,60
3,69,95,0
3,62,0,6
3,62,64,14
3,53,0,6
3,72,0,14
3,65,0,0
3,69,0,3
3,62,0,0
3,64,76,0
3,48,53,1
3,55,60,50
3,48,0,1
3,48,51,57
3,55,0,4
3,64,0,5
3,48,0,45
3,64,106,5
3,55,70,1
3,64,0,22
3,55,0,4
3,64,91,33
3,67,114,0
3,52,70,0
3,52,0,13
3,55,61,14
3,52,60,12
3,55,0,4
3,52,0,54
3,67,0,2
3,55,62,0
3,67,77,0
3,64,0,10
3,67,0,15
3,55,0,7
3,67,101,0
3,60,80,0
3,52,55,0
3,52,0,51
3,57,62,8
3,48,53,49
3,57,0,2
3,67,0,24
3,48,0,5
3,57,62,0
3,64,85,1
3,60,0,9
3,64,0,19
3,57,0,1
3,67,92,31
3,52,57,0
3,60,77,0
3,52,0,53
3,57,64,5
3,48,61,60
3,64,95,0
3,57,0,6
3,57,64,14
3,48,0,6
3,67,0,14
3,60,0,0
3,64,0,3
3,57,0,0
3,62,96,0
3,65,95,0
3,50,58,0
3,57,66,51
3,53,77,60
3,57,0,9
3,53,0,34
3,57,74,1
3,65,0,9
3,62,0,2
3,50,0,3
3,57,0,14
3,62,93,30
3,74,113,2
3,53,69,2
3,53,0,54
3,57,74,1
3,53,58,59
3,69,92,1
3,57,0,7
3,74,0,6
3,53,0,27
3,57,54,1
3,62,0,5
3,69,0,2
3,57,0,23
3,69,59,30
3,65,60,0
3,50,42,0
3,57,49,58
3,57,0,50
3,53,61,1
3,50,0,52
3,57,60,9
3,53,0,1
3,69,0,11
3,65,0,0
3,57,0,45
3,65,73,1
3,50,42,2
3,62,59,0
3,57,61,25
3,62,0,17
3,65,0,2
3,57,0,40
3,74,107,0
3,53,63,1
3,65,107,0
3,50,0,42
3,53,0,16
3,57,68,2
3,74,0,1
3,65,0,3
3,57,0,9
3,64,96,0
3,48,58,0
3,55,66,51
3,52,77,60
3,55,0,9
3,52,0,34
3,55,74,1
3,64,0,9
3,48,0,5
3,55,0,14
3,64,93,30
3,76,113,2
3,52,69,2
3,52,0,54
3,55,74,1
3,52,58,59
3,67,92,1
3,55,0,7
3,76,0,6
3,52,0,27
3,55,54,1
3,64,0,5
3,67,0,2
3,55,0,23
3,67,59,30
3,64,60,0
3,48,42,0
3,55,49,58
3,55,0,50
3,52,61,1
3,48,0,52
3,55,60,9
3,52,0,1
3,67,0,11
3,64,0,0
3,55,0,45
3,64,73,1
3,48,42,2
3,55,61,25
3,64,0,17
3,55,0,42
3,76,107,0
3,52,63,1
3,64,107,0
3,48,0,42
3,52,0,16
3,55,68,2
3,76,0,1
3,64,0,3
3,55,0,9
3,74,101,0
3,66,80,0
