track,note,velocity,time
2,31,88,9515
2,31,0,718
2,43,80,50
2,43,0,478
2,41,78,105
2,41,0,135
2,39,77,53
2,39,0,811
2,41,86,714
2,41,0,582
2,36,69,101
2,36,0,21
2,29,81,76
2,29,0,729
2,34,92,28
2,34,0,666
2,44,81,13
2,44,0,14
2,38,37,0
2,39,34,12
2,38,0,8
2,40,31,12
2,39,0,8
2,41,28,12
2,40,0,8
2,42,25,12
2,41,0,8
2,43,22,12
2,42,0,8
2,44,19,12
2,43,0,8
2,45,24,12
2,44,0,8
2,46,80,18
2,45,0,8
2,46,0,772
2,34,71,77
2,34,0,93
2,41,87,4
2,41,0,73
2,34,73,24
2,34,0,41
2,29,78,58
2,29,0,86
2,29,82,11
2,29,0,89
2,41,80,9
2,41,0,141
2,34,95,48
2,34,0,5
2,43,91,5
2,43,0,3
2,46,86,0
2,46,0,766
2,41,85,2
2,41,0,285
2,41,108,3
2,41,0,11
2,34,80,85
2,34,0,10
2,39,69,2
2,39,0,749
2,41,84,9
2,41,0,492
2,41,66,13
2,41,0,174
2,34,80,24
2,34,0,114
2,34,66,2
2,34,0,111
2,34,78,2
2,29,78,277
2,34,0,9
2,29,0,14
2,34,91,76
2,34,0,102
2,29,87,2
2,29,0,13
2,33,88,84
2,33,0,182
2,31,93,7
2,31,0,1109
2,31,87,43
2,31,0,182
2,29,93,15
2,29,0,177
2,39,80,7
2,39,0,771
2,39,76,2
2,36,79,380
2,39,0,2
2,29,91,9
2,36,0,0
2,29,0,744
2,29,89,14
2,29,0,295
2,29,98,2
2,29,0,29
2,41,86,67
2,41,0,179
2,41,86,13
2,41,0,190
2,34,93,2
2,34,0,670
2,34,98,2
2,34,0,46
2,46,72,46
2,46,0,24
2,46,85,76
2,46,0,425
2,46,69,7
2,46,0,17
2,34,98,33
2,34,0,8
2,29,93,13
2,29,0,189
2,29,89,2
2,41,53,192
2,29,0,382
2,41,0,0
2,29,88,4
2,29,0,530
2,41,81,42
2,41,0,62
2,36,93,5
2,36,0,671
2,43,78,2
2,43,0,19
2,48,76,77
2,48,0,94
2,48,73,2
2,36,78,192
2,36,0,286
2,48,0,0
2,31,83,2
2,31,0,20
2,29,80,11
2,29,0,179
2,29,76,13
2,29,0,377
2,29,78,7
2,29,0,94
2,36,80,0
2,36,0,96
2,41,80,1
2,41,0,535
2,41,82,46
2,41,0,45
2,36,85,2
2,36,0,476
2,48,66,2
2,48,0,190
2,36,73,2
2,36,0,31
2,39,91,64
2,39,0,575
2,39,58,2
2,39,0,94
2,40,71,2
2,41,81,92
2,40,0,2
2,41,0,565
2,36,67,16
2,36,0,20
2,39,83,22
2,39,0,50
2,36,78,1
2,36,0,473
2,36,98,7
2,36,0,2
2,29,98,1
2,29,0,700
2,29,93,62
2,29,0,483
2,41,85,2
2,41,0,254
2,36,78,34
2,36,0,94
2,29,96,2
2,29,0,238
2,36,66,2
2,36,0,21
2,41,84,27
2,41,0,14
2,29,89,1
2,31,76,95
2,29,0,5
2,31,0,61
2,34,90,31
2,34,0,382
2,46,80,2
2,46,0,286
2,34,80,2
2,34,0,76
2,34,88,20
2,34,0,382
2,44,69,2
2,44,0,14
2,38,37,0
2,39,34,12
2,38,0,8
2,40,31,12
2,39,0,8
2,41,28,12
2,40,0,8
2,42,25,12
2,41,0,8
2,43,22,12
2,42,0,8
2,44,19,12
2,43,0,8
2,44,0,8
2,34,85,2
2,34,0,380
2,46,79,2
2,46,0,286
2,34,75,2
2,34,0,76
2,34,80,20
2,34,0,85
2,34,80,6
2,34,0,93
2,41,87,4
2,41,0,73
2,34,82,24
2,34,0,41
2,34,85,58
2,34,0,86
2,34,88,11
2,34,0,89
2,44,85,6
2,44,0,11
2,34,93,4
2,34,0,709
2,34,82,57
2,34,0,718
2,34,88,50
2,34,0,717
2,34,92,51
2,34,0,48
2,34,92,48
2,34,0,543
2,34,84,35
2,34,0,93
2,39,80,3
2,39,0,591
2,39,82,79
2,39,0,95
2,41,82,2
2,41,0,374
2,29,90,9
2,29,0,377
2,34,87,6
2,34,0,639
2,34,89,34
2,34,0,83
2,34,85,14
2,29,78,277
2,34,0,9
2,29,0,14
2,34,91,76
2,34,0,102
2,29,87,2
2,29,0,13
2,33,88,84
2,33,0,182
2,31,93,7
2,31,0,1109
2,31,87,43
2,31,0,182
2,29,93,15
2,29,0,177
2,39,87,7
2,39,0,771
2,39,76,2
2,36,79,380
2,39,0,2
2,29,91,9
2,36,0,0
2,29,0,744
2,29,89,14
2,29,0,295
2,29,98,2
2,29,0,29
2,41,86,67
2,41,0,179
2,41,86,13
2,41,0,190
2,34,93,3
2,34,0,709
2,34,82,57
2,34,0,718
2,34,88,50
2,34,0,717
2,34,92,51
2,34,0,48
2,34,92,48
2,34,0,543
2,34,84,35
2,34,0,93
2,39,80,3
2,39,0,591
2,39,82,79
2,39,0,95
2,41,82,2
2,41,0,374
2,29,90,9
2,29,0,377
2,34,87,6
2,34,0,639
2,34,89,34
2,34,0,83
2,34,85,14
2,29,78,277
2,34,0,9
2,29,0,14
2,34,91,76
2,34,0,102
2,29,87,2
2,29,0,13
2,33,88,84
2,33,0,182
2,31,93,7
2,31,0,1109
2,31,87,43
2,31,0,182
2,29,93,15
2,29,0,177
2,39,87,7
2,39,0,771
2,39,76,2
2,36,79,380
2,39,0,2
2,29,91,9
2,36,0,0
2,29,0,744
2,29,89,14
2,29,0,295
2,29,98,2
2,29,0,29
2,41,86,67
2,41,0,179
2,41,86,13
2,41,0,190
2,34,93,2
2,34,0,670
2,34,98,2
2,34,0,46
2,46,72,46
2,46,0,24
2,46,85,76
2,46,0,425
2,46,69,7
2,46,0,17
2,34,98,33
2,34,0,8
2,29,93,13
2,29,0,189
2,29,89,2
2,41,53,192
2,29,0,382
2,41,0,0
2,29,88,4
2,29,0,530
2,41,81,42
2,41,0,62
2,36,93,5
2,36,0,671
2,43,78,2
2,43,0,19
2,48,76,77
2,48,0,94
2,48,73,2
2,36,78,192
2,36,0,286
2,48,0,0
2,31,83,2
2,31,0,20
2,29,80,11
2,29,0,179
2,29,76,13
2,29,0,377
2,29,78,7
2,29,0,94
2,36,80,0
2,36,0,96
2,41,80,1
2,41,0,535
2,41,82,46
2,41,0,45
2,36,85,2
2,36,0,476
2,48,66,2
2,48,0,190
2,36,73,2
2,36,0,31
2,39,91,64
2,39,0,575
2,39,58,2
2,39,0,94
2,40,71,2
2,41,81,92
2,40,0,2
2,41,0,565
2,36,67,16
2,36,0,20
2,39,83,22
2,39,0,50
2,36,78,1
2,36,0,473
2,36,98,7
2,36,0,2
2,29,98,1
2,29,0,700
2,29,93,62
2,29,0,483
2,41,85,2
2,41,0,254
2,36,78,34
2,36,0,94
2,29,96,2
2,29,0,238
2,36,66,2
2,36,0,21
2,41,84,27
2,41,0,14
2,29,89,1
2,31,76,95
2,29,0,5
2,31,0,61
2,34,90,31
2,34,0,382
2,46,80,2
2,46,0,286
2,34,80,2
2,34,0,76
2,34,88,20
2,34,0,382
2,44,69,2
2,44,0,14
2,38,37,0
2,39,34,12
2,38,0,8
2,40,31,12
2,39,0,8
2,41,28,12
2,40,0,8
2,42,25,12
2,41,0,8
2,43,22,12
2,42,0,8
2,44,19,12
2,43,0,8
2,44,0,8
2,34,85,2
2,34,0,380
2,46,79,2
2,46,0,286
2,34,75,2
2,34,0,76
2,34,80,20
2,34,0,85
2,34,80,6
2,34,0,93
2,41,87,4
2,41,0,73
2,34,82,24
2,34,0,41
2,34,85,58
2,34,0,86
2,34,88,11
2,34,0,89
2,44,85,6
2,44,0,11
2,34,71,4
2,34,0,2301
2,34,90,2306
2,34,0,382
2,46,80,2
2,46,0,286
2,34,80,2
2,34,0,76
2,34,88,20
2,34,0,382
2,44,69,2
2,44,0,14
2,38,37,0
2,39,34,12
2,38,0,8
2,40,31,12
2,39,0,8
2,41,28,12
2,40,0,8
2,42,25,12
2,41,0,8
2,43,22,12
2,42,0,8
2,44,19,12
2,43,0,8
2,44,0,8
2,34,85,2
2,34,0,380
2,46,79,2
2,46,0,286
2,34,75,2
2,34,0,76
2,34,80,20
2,34,0,85
2,34,80,6
2,34,0,93
2,41,87,4
2,41,0,73
2,34,82,24
2,34,0,41
2,34,85,58
2,34,0,86
2,34,88,11
2,34,0,89
2,44,85,6
2,44,0,11
2,34,90,3
2,34,0,382
2,46,80,2
2,46,0,286
2,34,80,2
2,34,0,76
2,34,88,20
2,34,0,382
2,44,69,2
2,44,0,14
2,38,37,0
2,39,34,12
2,38,0,8
2,40,31,12
2,39,0,8
2,41,28,12
2,40,0,8
2,42,25,12
2,41,0,8
2,43,22,12
2,42,0,8
2,44,19,12
2,43,0,8
2,44,0,8
2,34,85,2
2,34,0,380
2,46,79,2
2,46,0,286
2,34,75,2
2,34,0,76
2,34,80,20
2,34,0,85
2,34,80,6
2,34,0,93
2,41,87,4
2,41,0,73
2,34,82,24
2,34,0,41
2,34,85,58
2,34,0,86
2,34,88,11
2,34,0,89
2,39,85,6
2,39,0,11
2,34,95,4
2,34,0,1534
3,74,77,151
3,72,77,224
3,74,0,24
3,74,77,71
3,72,0,30
3,74,0,759
3,75,78,443
3,74,79,203
3,75,0,12
3,75,79,94
3,74,0,29
3,75,0,769
3,67,76,81
3,69,80,947
3,67,0,32
3,70,83,180
3,69,0,28
3,67,86,160
3,70,0,0
3,79,75,180
3,67,0,17
3,79,0,76
3,65,74,96
3,57,70,6
3,55,74,1478
3,67,84,5
3,63,73,2
3,57,0,7
3,65,0,43
3,56,69,172
3,68,83,14
3,55,0,9
3,67,0,0
3,55,76,190
3,67,84,11
3,68,0,2
3,56,0,17
3,56,84,603
3,68,99,3
3,67,0,11
3,55,0,2
3,68,0,268
3,67,90,6
3,55,80,3
3,56,0,18
3,55,0,200
3,57,88,0
3,60,58,0
3,63,0,0
3,65,82,0
3,67,0,13
3,55,87,1479
3,57,0,5
3,67,87,3
3,63,88,2
3,60,0,14
3,65,0,0
3,56,87,207
3,68,86,4
3,67,0,8
3,55,0,4
3,68,0,162
3,55,83,4
3,67,81,0
3,56,0,18
3,63,0,349
3,55,0,82
3,65,68,678
3,67,0,40
3,63,73,737
3,65,0,47
3,65,71,720
3,63,0,45
3,67,71,661
3,65,0,46
3,70,71,386
3,67,0,46
3,79,73,755
3,82,73,129
3,70,0,13
3,79,0,33
3,82,0,16
3,50,108,334
3,48,109,245
3,50,0,2
3,50,111,172
3,48,0,22
3,50,0,708
3,51,111,403
3,50,114,237
3,51,0,13
3,51,114,164
3,50,0,23
3,51,0,664
3,67,76,3142
3,69,80,947
3,67,0,32
3,70,83,180
3,69,0,28
3,67,86,160
3,70,0,0
3,79,75,180
3,67,0,17
3,79,0,28
3,86,77,55
3,84,77,224
3,86,0,24
3,86,77,71
3,84,0,30
3,86,0,11
3,87,78,102
3,86,79,203
3,87,0,12
3,87,77,94
3,86,0,29
3,87,0,17
3,67,76,105
3,69,80,947
3,67,0,32
3,70,83,180
3,69,0,28
3,67,86,160
3,70,0,0
3,79,75,180
3,67,0,17
3,79,0,4
3,74,90,2744
3,75,86,86
3,74,0,13
3,77,86,163
3,65,74,0
3,75,0,28
3,77,0,18
3,67,84,1
3,79,86,12
3,65,0,5
3,68,83,23
3,67,0,8
3,80,85,1
3,79,0,19
3,68,0,22
3,67,84,2
3,79,92,1
3,80,0,6
3,68,99,18
3,80,97,25
3,67,0,12
3,79,0,4
3,68,0,107
3,67,90,6
3,79,94,10
3,80,0,11
3,65,82,22
3,77,69,11
3,67,0,2
3,79,0,16
3,67,87,34
3,79,92,1
3,77,0,3
3,65,0,12
3,68,86,211
3,67,0,8
3,80,93,4
3,79,0,22
3,68,0,94
3,67,81,24
3,79,77,2
3,80,0,21
3,65,68,6
3,67,0,40
3,79,0,0
3,63,65,735
3,65,0,47
3,65,71,720
3,63,0,45
3,67,71,24
3,65,0,46
3,70,71,144
3,67,0,46
3,79,77,48
3,70,0,166
3,79,0,0
3,82,113,12
3,79,92,185
3,82,0,5
3,79,0,177
3,77,100,3
3,74,107,197
3,77,0,16
3,72,101,79
3,74,0,9
3,70,95,374
3,72,0,13
3,72,77,72
3,70,0,18
3,74,92,83
3,72,0,40
3,70,113,48
3,74,0,12
3,67,97,357
3,70,0,1
3,65,96,192
3,67,0,1
3,62,101,200
3,65,0,27
3,60,89,173
3,62,0,13
3,58,85,278
3,60,0,13
3,60,83,87
3,58,0,22
3,62,97,71
3,60,0,27
3,58,89,67
3,62,0,14
3,58,0,26
3,82,93,1223
3,84,93,761
3,82,0,11
3,86,94,760
3,84,0,1
3,87,94,753
3,86,0,18
3,89,95,745
3,87,0,19
3,91,95,765
3,89,0,12
3,93,95,741
3,91,0,12
3,94,96,765
3,93,0,3
3,94,0,769
3,46,78,2
3,62,58,0
3,46,0,46
3,62,0,0
4,62,103,3392
4,62,0,115
4,62,94,2
4,62,0,120
4,62,101,3
4,62,0,72
4,60,76,3
4,60,0,75
4,62,88,3
4,62,0,85
4,60,97,2
4,60,0,93
4,62,93,3
4,62,0,250
4,62,74,3
4,62,0,46
4,58,95,403
4,58,0,145
4,58,98,2
4,58,0,109
4,60,91,3
4,60,0,199
4,62,92,2
4,62,0,96
4,55,91,3
4,55,0,224
4,60,114,1000
4,60,0,107
4,60,94,2
4,60,0,105
4,60,102,3
4,60,0,66
4,58,94,2
4,58,0,77
4,60,95,3
4,58,72,159
4,60,0,4
4,58,0,14
4,60,108,223
4,60,0,99
4,60,103,2
4,60,0,103
4,60,106,3
4,60,0,73
4,58,80,2
4,58,0,69
4,60,99,3
4,60,0,129
4,58,85,2
4,58,0,100
4,62,97,3
4,62,0,197
4,62,95,2
4,58,74,116
4,62,0,16
4,58,0,141
4,53,89,2
4,53,0,287
4,53,97,311
4,53,0,81
4,58,96,2
4,60,97,82
4,58,0,13
4,60,0,84
4,62,112,2
4,60,95,98
4,62,0,6
4,60,0,82
4,58,85,11
4,57,81,96
4,58,0,13
4,58,97,74
4,57,0,13
4,55,74,158
4,58,0,1
4,55,0,91
4,67,122,916
4,69,99,98
4,67,0,9
4,69,0,90
4,70,106,17
4,70,0,100
4,60,108,22
4,60,0,82
4,60,102,47
4,58,88,81
4,60,0,8
4,58,0,88
4,60,90,10
4,60,0,170
4,60,114,1105
4,60,0,133
4,60,99,3
4,60,0,101
4,60,109,3
4,60,0,80
4,58,97,2
4,60,93,90
4,58,0,4
4,60,0,141
4,62,108,199
4,62,0,91
4,62,104,3
4,62,0,90
4,60,101,3
4,60,0,96
4,60,97,3
4,60,0,92
4,58,108,2
4,58,0,90
4,58,92,3
4,58,0,91
4,60,95,2
4,58,108,92
4,60,0,15
4,58,0,268
4,62,120,2515
4,60,108,103
4,62,0,18
4,58,92,80
4,60,0,14
4,60,85,66
4,58,0,13
4,62,109,77
4,60,0,26
4,62,0,118
4,62,99,3
4,62,0,111
4,62,114,3
4,62,0,79
4,60,93,2
4,60,0,97
4,62,99,3
4,58,82,187
4,62,0,6
4,58,0,17
4,63,122,456
4,63,0,178
4,62,103,3
4,62,0,148
4,60,101,3
4,60,0,167
4,60,108,2
4,60,0,134
4,62,103,3
4,62,0,127
4,55,90,3
4,55,0,235
4,60,115,783
4,60,0,88
4,58,76,3
4,58,0,91
4,60,102,2
4,60,0,125
4,60,104,3
4,60,0,126
4,60,109,2
4,60,0,78
4,58,92,3
4,60,97,74
4,58,0,12
4,60,0,133
4,60,112,342
4,60,0,114
4,58,82,9
4,58,0,53
4,60,107,58
4,60,0,127
4,58,66,11
4,58,0,62
4,62,103,99
4,58,82,92
4,62,0,16
4,53,83,106
4,58,0,11
4,53,0,260
4,53,83,22
4,53,0,71
4,58,99,22
4,58,0,75
4,60,108,8
4,60,0,82
4,62,117,23
4,60,108,97
4,62,0,26
4,58,88,58
4,60,0,18
4,57,88,74
4,58,0,5
4,57,0,85
4,58,91,2
4,58,0,113
4,55,74,2
4,55,0,94
4,67,112,954
4,69,93,137
4,67,0,24
4,69,0,101
