track,note,velocity,time
1,69,106,1
1,74,106,0
1,77,100,0
1,72,79,384
1,76,73,384
1,73,88,384
1,74,94,0
1,77,94,0
1,72,82,384
1,76,70,381
1,74,91,384
1,73,94,381
2,33,116,1717
2,38,115,0
2,33,115,376
2,31,115,384
2,36,115,0
2,38,106,44
2,38,103,23
2,38,100,28
2,38,103,18
2,38,94,18
2,38,82,25
2,33,112,3
2,33,103,17
2,33,106,21
2,33,97,22
2,33,100,12
2,33,103,18
2,33,100,10
2,33,103,22
2,33,103,11
2,33,115,14
2,31,112,6
2,31,91,24
2,31,109,13
2,31,91,24
2,31,94,14
2,31,100,25
2,36,112,9
2,36,97,26
2,36,109,22
2,36,106,19
2,36,94,15
2,36,112,21
2,36,109,19
2,36,112,23
2,36,91,18
2,36,115,27
2,38,106,14
2,38,103,23
2,38,100,28
2,38,103,18
2,38,94,18
2,38,82,25
2,33,112,3
2,33,103,17
2,33,106,21
2,33,97,22
2,33,100,12
2,33,103,18
2,33,100,10
2,33,103,22
2,33,103,11
2,33,115,14
2,31,112,6
2,31,91,24
2,31,109,13
2,31,91,24
2,31,94,14
2,31,100,25
2,36,112,9
2,36,97,26
2,36,109,22
2,36,106,19
2,36,94,15
2,36,112,21
2,36,109,19
2,36,112,23
2,36,91,18
2,36,115,27
2,38,103,14
2,38,94,25
2,38,103,23
2,38,91,13
2,38,103,26
2,38,88,19
2,38,100,23
2,33,100,10
2,33,97,18
2,33,85,16
2,33,109,22
2,33,97,22
2,33,97,23
2,33,88,20
2,33,97,23
2,33,85,20
2,31,103,20
2,31,97,21
2,31,100,23
2,31,103,22
2,31,109,22
2,31,100,23
2,31,100,29
2,36,112,24
2,36,94,26
2,36,97,32
2,36,97,28
2,36,97,25
2,36,94,29
2,36,97,27
2,33,112,20
2,36,100,11
2,38,112,11
2,38,76,18
2,38,100,26
2,38,85,20
2,38,100,21
2,38,85,21
2,38,106,24
2,33,103,21
2,33,100,22
2,33,97,25
2,33,100,25
2,33,97,24
2,33,97,26
2,33,100,26
2,33,106,27
2,33,109,25
2,31,109,26
2,31,97,23
2,31,106,22
2,31,94,22
2,31,106,25
2,31,103,25
2,31,106,23
2,36,112,23
2,36,100,23
2,36,100,27
2,36,112,27
2,36,112,27
2,36,112,26
2,36,109,26
2,36,112,29
2,36,109,25
2,38,103,16
2,38,94,25
2,38,103,23
2,38,91,13
2,38,103,26
2,38,88,19
2,38,100,23
2,33,100,10
2,33,97,18
2,33,85,16
2,33,109,22
2,33,97,22
2,33,97,23
2,33,88,20
2,33,113,23
2,31,119,20
2,31,103,0
2,31,97,21
2,31,100,23
2,31,103,22
2,31,109,22
2,31,100,23
2,31,100,29
2,36,112,0
2,36,94,26
2,36,97,32
2,36,97,28
2,36,97,25
2,36,94,29
2,36,97,27
2,33,112,20
2,36,100,11
2,38,112,11
2,38,76,18
2,38,100,26
2,38,85,20
2,38,100,21
2,38,85,21
2,38,106,24
2,33,104,24
2,33,100,0
2,33,97,25
2,33,100,25
2,33,97,24
2,33,97,26
2,33,100,26
2,33,106,27
2,33,109,25
2,31,109,26
2,31,97,23
2,31,106,22
2,31,94,22
2,31,106,25
2,31,103,25
2,31,106,23
2,33,112,23
2,33,100,23
2,33,100,27
2,33,112,27
2,33,112,27
2,33,112,26
2,33,109,26
2,33,112,29
2,33,109,25
2,38,110,16
2,38,110,25
2,38,110,23
2,38,110,13
2,38,110,26
2,38,110,19
2,38,110,23
2,33,110,10
2,33,110,18
2,33,110,16
2,33,110,22
2,33,111,22
2,33,111,23
2,33,111,20
2,33,111,23
2,31,111,20
2,31,111,0
2,31,111,21
2,31,111,23
2,31,111,22
2,31,111,22
2,31,111,23
2,31,111,29
2,36,111,0
2,36,111,26
2,36,111,32
2,36,111,28
2,36,111,25
2,36,111,29
2,36,111,27
2,33,111,20
2,36,111,11
2,38,111,11
2,38,112,18
2,38,112,26
2,38,112,20
2,38,112,21
2,38,112,21
2,38,112,24
2,33,112,24
2,33,112,0
2,33,112,25
2,33,112,25
2,33,112,24
2,33,112,26
2,33,112,26
2,33,112,27
2,33,112,25
2,31,112,26
2,31,112,23
2,31,112,22
2,31,112,22
2,31,112,25
2,31,112,25
2,31,112,23
2,29,113,23
2,29,113,23
2,29,113,27
2,29,113,27
2,29,113,27
2,29,113,26
2,29,113,26
2,29,113,29
2,29,113,25
2,38,110,16
2,38,110,25
2,38,110,23
2,38,110,13
2,38,110,26
2,38,110,19
2,38,110,23
2,33,110,10
2,33,110,18
2,33,110,16
2,33,110,22
2,33,111,22
2,33,111,23
2,33,111,20
2,33,111,23
2,31,111,20
2,31,111,0
2,31,111,21
2,31,111,23
2,31,111,22
2,31,111,22
2,31,111,23
2,31,111,29
2,36,111,0
2,36,111,26
2,36,111,32
2,36,111,28
2,36,111,25
2,36,111,29
2,36,111,27
2,33,111,20
2,36,111,11
2,38,111,11
2,38,112,18
2,38,112,26
2,38,112,20
2,38,112,21
2,38,112,21
2,38,112,24
2,33,112,24
2,33,112,0
2,33,112,25
2,33,112,25
2,33,112,24
2,33,112,26
2,33,112,26
2,33,112,27
2,33,112,25
2,31,112,26
2,31,112,23
2,31,112,22
2,31,112,22
2,31,112,25
2,31,112,25
2,31,112,23
2,29,113,23
2,29,113,23
2,29,113,27
2,29,113,27
2,29,113,27
2,29,113,26
2,29,113,26
2,29,113,29
2,29,113,25
2,38,106,16
2,38,103,23
2,38,100,28
2,38,103,18
2,38,94,18
2,38,82,25
2,33,112,3
2,33,103,17
2,33,106,21
2,33,97,22
2,33,100,12
2,33,103,18
2,33,100,10
2,33,103,22
2,33,103,11
2,33,115,14
2,31,112,6
2,31,91,24
2,31,109,13
2,31,91,24
2,31,94,14
2,31,100,25
2,36,112,9
2,36,97,26
2,36,109,22
2,36,106,19
2,36,94,15
2,36,112,21
2,36,109,19
2,36,112,23
2,36,91,18
2,36,115,27
2,38,106,14
2,38,103,23
2,38,100,28
2,38,103,18
2,38,94,18
2,38,82,25
2,33,112,3
2,33,103,17
2,33,106,21
2,33,97,22
2,33,100,12
2,33,103,18
2,33,100,10
2,33,103,22
2,33,103,11
2,33,115,14
2,31,112,6
2,31,91,24
2,31,109,13
2,31,91,24
2,31,94,14
2,31,100,25
2,36,112,9
2,36,97,26
2,36,109,22
2,36,106,19
2,36,94,15
2,36,112,21
2,36,109,19
2,36,112,23
2,36,91,18
2,36,115,27
2,38,103,14
2,38,94,25
2,38,103,23
2,38,91,13
2,38,103,26
2,38,88,19
2,38,100,23
2,33,100,10
2,33,97,18
2,33,85,16
2,33,109,22
2,33,97,22
2,33,97,23
2,33,88,20
2,33,97,23
2,33,85,20
2,31,103,20
2,31,97,21
2,31,100,23
2,31,103,22
2,31,109,22
2,31,100,23
2,31,100,29
2,36,112,24
2,36,94,26
2,36,97,32
2,36,97,28
2,36,97,25
2,36,94,29
2,36,97,27
2,33,112,20
2,36,100,11
2,38,112,11
2,38,76,18
2,38,100,26
2,38,85,20
2,38,100,21
2,38,85,21
2,38,106,24
2,33,103,21
2,33,100,22
2,33,97,25
2,33,100,25
2,33,97,24
2,33,97,26
2,33,100,26
2,33,106,27
2,33,109,25
2,31,109,26
2,31,97,23
2,31,106,22
2,31,94,22
2,31,106,25
2,31,103,25
2,31,106,23
2,36,112,23
2,36,100,23
2,36,100,27
2,36,112,27
2,36,112,27
2,36,112,26
2,36,109,26
2,36,112,29
2,36,109,25
2,38,103,16
2,38,94,25
2,38,103,23
2,38,91,13
2,38,103,26
2,38,88,19
2,38,100,23
2,33,100,10
2,33,97,18
2,33,85,16
2,33,109,22
2,33,97,22
2,33,97,23
2,33,88,20
2,33,113,23
2,31,119,20
2,31,103,0
2,31,97,21
2,31,100,23
2,31,103,22
2,31,109,22
2,31,100,23
2,31,100,29
2,36,112,0
2,36,94,26
2,36,97,32
2,36,97,28
2,36,97,25
2,36,94,29
2,36,97,27
2,33,112,20
2,36,100,11
2,38,112,11
2,38,76,18
2,38,100,26
2,38,85,20
2,38,100,21
2,38,85,21
2,38,106,24
2,33,104,24
2,33,100,0
2,33,97,25
2,33,100,25
2,33,97,24
2,33,97,26
2,33,100,26
2,33,106,27
2,33,109,25
2,31,109,26
2,31,97,23
2,31,106,22
2,31,94,22
2,31,106,25
2,31,103,25
2,31,106,23
2,33,112,23
2,33,100,23
2,33,100,27
2,33,112,27
2,33,112,27
2,33,112,26
2,33,109,26
2,33,112,29
2,33,109,25
2,38,110,16
2,38,110,25
2,38,110,23
2,38,110,13
2,38,110,26
2,38,110,19
2,38,110,23
2,33,110,10
2,33,110,18
2,33,110,16
2,33,110,22
2,33,111,22
2,33,111,23
2,33,111,20
2,33,111,23
2,31,111,20
2,31,111,0
2,31,111,21
2,31,111,23
2,31,111,22
2,31,111,22
2,31,111,23
2,31,111,29
2,36,111,0
2,36,111,26
2,36,111,32
2,36,111,28
2,36,111,25
2,36,111,29
2,36,111,27
2,33,111,20
2,36,111,11
2,38,111,11
2,38,112,18
2,38,112,26
2,38,112,20
2,38,112,21
2,38,112,21
2,38,112,24
2,33,112,24
2,33,112,0
2,33,112,25
2,33,112,25
2,33,112,24
2,33,112,26
2,33,112,26
2,33,112,27
2,33,112,25
2,31,112,26
2,31,112,23
2,31,112,22
2,31,112,22
2,31,112,25
2,31,112,25
2,31,112,23
2,29,113,23
2,29,113,23
2,29,113,27
2,29,113,27
2,29,113,27
2,29,113,26
2,29,113,26
2,29,113,29
2,29,113,25
2,38,110,16
2,38,110,25
2,38,110,23
2,38,110,13
2,38,110,26
2,38,110,19
2,38,110,23
2,33,110,10
2,33,110,18
2,33,110,16
2,33,110,22
2,33,111,22
2,33,111,23
2,33,111,20
2,33,111,23
2,31,111,20
2,31,111,0
2,31,111,21
2,31,111,23
2,31,111,22
2,31,111,22
2,31,111,23
2,31,111,29
2,36,111,0
2,36,111,26
2,36,111,32
2,36,111,28
2,36,111,25
2,36,111,29
2,36,111,27
2,33,111,20
2,36,111,11
2,38,111,11
2,38,112,18
2,38,112,26
2,38,112,20
2,38,112,21
2,38,112,21
2,38,112,24
2,33,112,24
2,33,112,0
2,33,112,25
2,33,112,25
2,33,112,24
2,33,112,26
2,33,112,26
2,33,112,27
2,33,112,25
2,31,112,26
2,31,112,23
2,31,112,22
2,31,112,22
2,31,112,25
2,31,112,25
2,31,112,23
2,29,113,23
2,29,113,23
2,29,113,27
2,29,113,27
2,29,113,27
2,29,113,26
2,29,113,26
2,29,113,29
2,29,113,25
2,38,106,16
2,38,103,23
2,38,100,28
2,38,103,18
2,38,94,18
2,38,82,25
2,33,112,3
2,33,103,17
2,33,106,21
2,33,97,22
2,33,100,12
2,33,103,18
2,33,100,10
2,33,103,22
2,33,103,11
2,33,115,14
2,31,112,6
2,31,91,24
2,31,109,13
2,31,91,24
2,31,94,14
2,31,100,25
2,36,112,9
2,36,97,26
2,36,109,22
2,36,106,19
2,36,94,15
2,36,112,21
2,36,109,19
2,36,112,23
2,36,91,18
2,36,115,27
2,38,106,14
2,38,103,23
2,38,100,28
2,38,103,18
2,38,94,18
2,38,82,25
2,33,112,3
2,33,103,17
2,33,106,21
2,33,97,22
2,33,100,12
2,33,103,18
2,33,100,10
2,33,103,22
2,33,103,11
2,33,115,14
2,31,112,6
2,31,91,24
2,31,109,13
2,31,91,24
2,31,94,14
2,31,100,25
2,36,112,9
2,36,97,26
2,36,109,22
2,36,106,19
2,36,94,15
2,36,112,21
2,36,109,19
2,36,112,23
2,36,91,18
2,36,115,27
2,38,103,14
2,38,100,25
2,41,91,6
2,41,106,19
2,36,112,5
2,36,115,24
2,33,106,2
2,33,94,21
2,36,88,288
2,38,97,3
2,38,91,18
2,41,94,1
2,41,85,14
2,38,58,331
2,36,91,2
2,36,106,27
2,33,115,6
2,38,121,88
2,33,115,256
2,31,112,300
2,36,112,399
2,36,100,3
2,36,109,20
2,36,106,23
2,36,112,21
2,36,109,20
2,36,67,3
2,38,118,0
2,33,118,252
2,31,115,307
2,36,115,390
2,36,100,14
2,36,100,17
2,36,112,14
2,36,109,16
2,36,109,18
2,36,115,12
2,38,107,48
2,38,107,0
2,38,107,16
2,38,107,16
2,38,107,16
2,38,107,16
2,38,107,16
2,33,107,16
2,33,107,0
2,33,108,16
2,33,108,16
2,33,108,16
2,33,108,16
2,33,108,16
2,33,108,16
2,33,108,16
2,31,108,16
2,31,108,0
2,31,108,16
2,31,108,16
2,31,108,16
2,31,108,16
2,31,108,16
2,36,108,16
2,36,108,0
2,36,108,16
2,36,108,16
2,36,108,16
2,36,108,16
2,36,108,16
2,36,108,16
2,33,108,16
2,38,109,16
2,38,109,0
2,38,109,16
2,38,109,16
2,38,109,16
2,38,109,16
2,38,109,16
2,33,109,16
2,33,109,0
2,33,109,16
2,33,109,16
2,33,109,16
2,33,109,16
2,33,109,16
2,33,109,16
2,33,109,16
2,31,109,16
2,31,109,0
2,31,109,16
2,31,109,16
2,31,109,16
2,31,109,16
2,31,109,16
2,36,110,16
2,36,110,0
2,36,110,16
2,36,110,16
2,36,110,16
2,36,110,16
2,36,110,16
2,36,110,16
2,38,110,64
2,38,110,25
2,38,110,23
2,38,110,13
2,38,110,26
2,38,110,19
2,38,110,23
2,33,110,10
2,33,110,18
2,33,110,16
2,33,110,22
2,33,111,22
2,33,111,23
2,33,111,20
2,33,111,23
2,31,111,20
2,31,111,0
2,31,111,21
2,31,111,23
2,31,111,22
2,31,111,22
2,31,111,23
2,31,111,29
2,36,111,0
2,36,111,26
2,36,111,32
2,36,111,28
2,36,111,25
2,36,111,29
2,36,111,27
2,33,111,20
2,36,111,11
2,38,111,11
2,38,112,18
2,38,112,26
2,38,112,20
2,38,112,21
2,38,112,21
2,38,112,24
2,33,112,24
2,33,112,0
2,33,112,25
2,33,112,25
2,33,112,24
2,33,112,26
2,33,112,26
2,33,112,27
2,33,112,25
2,31,112,26
2,31,112,23
2,31,112,22
2,31,112,22
2,31,112,25
2,31,112,25
2,31,112,23
2,29,113,23
2,29,113,23
2,29,113,27
2,29,113,27
2,29,113,27
2,29,113,26
2,29,113,26
2,29,113,29
2,29,113,25
2,38,110,16
2,38,110,25
2,38,110,23
2,38,110,13
2,38,110,26
2,38,110,19
2,38,110,23
2,33,110,10
2,33,110,18
2,33,110,16
2,33,110,22
2,33,111,22
2,33,111,23
2,33,111,20
2,33,111,23
2,31,111,20
2,31,111,0
2,31,111,21
2,31,111,23
2,31,111,22
2,31,111,22
2,31,111,23
2,31,111,29
2,36,111,0
2,36,111,26
2,36,111,32
2,36,111,28
2,36,111,25
2,36,111,29
2,36,111,27
2,33,111,20
2,36,111,11
2,38,111,11
2,38,112,18
2,38,112,26
2,38,112,20
2,38,112,21
2,38,112,21
2,38,112,24
2,33,112,24
2,33,112,0
2,33,112,25
2,33,112,25
2,33,112,24
2,33,112,26
2,33,112,26
2,33,112,27
2,33,112,25
2,31,112,26
2,31,112,23
2,31,112,22
2,31,112,22
2,31,112,25
2,31,112,25
2,31,112,23
2,29,113,23
2,29,113,23
2,29,113,27
2,29,113,27
2,29,113,27
2,29,113,26
2,29,113,26
2,29,113,29
2,29,113,25
2,38,119,16
2,38,127,8
2,38,122,46
2,38,127,12
2,33,117,46
2,33,127,15
2,31,127,143
2,36,127,48
2,31,127,1
2,36,127,48
2,38,127,0
3,69,115,274
3,69,118,11
3,62,112,16
3,62,106,17
3,72,109,10
3,72,121,21
3,71,103,10
3,69,118,48
3,67,109,41
3,69,103,40
3,71,109,47
3,69,127,43
3,69,118,10
3,69,115,15
3,62,109,11
3,62,118,15
3,72,106,17
3,72,106,15
3,71,103,96
3,69,118,42
3,67,124,43
3,69,115,45
3,71,103,10
3,69,121,48
3,69,115,40
3,69,118,11
3,62,112,16
3,62,106,17
3,72,109,10
3,72,121,21
3,71,103,10
3,69,118,48
3,67,109,41
3,69,103,40
3,71,109,47
3,69,127,43
3,69,118,10
3,69,115,15
3,62,127,11
3,62,127,15
