track,note,velocity,time
0,51,79,481
0,51,79,0
0,67,81,1
0,58,60,46
0,58,60,0
0,67,78,1
0,65,48,10
0,65,48,0
0,67,80,77
0,67,53,22
0,67,53,0
0,67,79,56
0,67,81,1
0,58,80,32
0,53,47,20
0,58,80,1
0,51,79,4
0,51,79,0
0,67,80,1
0,58,60,45
0,58,60,0
0,67,80,1
0,65,48,35
0,65,48,0
0,67,80,52
0,67,80,82
0,67,53,1
0,67,53,0
0,65,80,1
0,50,79,5
0,50,79,0
0,58,60,190
0,58,60,0
0,58,68,1
0,63,48,121
0,63,48,0
0,67,83,1
0,67,53,67
0,67,53,0
0,67,80,1
0,67,83,80
0,67,81,1
0,50,52,36
0,67,80,1
0,67,81,1
0,67,80,1
0,50,79,5
0,50,79,0
0,67,83,1
0,58,60,94
0,58,60,0
0,67,80,1
0,63,48,90
0,63,48,0
0,65,80,1
0,67,53,80
0,67,53,0
0,60,47,46
0,49,79,6
0,49,79,0
0,58,60,190
0,58,60,0
0,63,48,188
0,63,48,0
0,58,78,81
0,67,53,68
0,67,53,0
0,67,80,131
0,67,81,67
0,67,92,61
0,67,90,1
0,40,39,14
0,67,80,35
0,67,80,42
0,49,79,4
0,49,79,0
0,67,80,42
0,58,60,52
0,58,60,0
0,67,80,1
0,63,48,13
0,63,48,0
0,67,53,1
0,67,53,0
0,67,81,1
0,65,78,1
0,43,66,60
0,63,78,1
0,63,78,1
0,44,79,1
0,44,79,0
0,63,81,67
0,63,81,1
0,60,60,10
0,60,60,0
0,63,80,6
0,63,48,85
0,63,48,0
0,63,81,26
0,70,53,2
0,70,53,0
0,56,78,70
0,65,80,1
0,65,78,168
0,63,78,1
0,44,79,4
0,63,78,0
0,44,79,0
0,60,69,6
0,60,69,0
0,63,64,188
0,63,64,0
0,70,70,199
0,70,70,0
0,53,55,180
0,63,76,10
0,63,78,1
0,51,79,6
0,51,79,0
0,63,80,1
0,70,81,1
0,58,60,44
0,58,60,0
0,65,48,27
0,65,48,0
0,70,80,1
0,67,53,110
0,67,53,0
0,70,81,1
0,70,81,1
0,72,80,1
0,70,78,1
0,70,78,78
0,68,78,1
0,51,79,4
0,51,79,0
0,58,60,78
0,58,60,0
0,65,48,188
0,65,48,0
0,67,53,122
0,67,53,0
0,67,80,1
0,67,78,1
0,67,80,44
0,70,81,1
0,50,79,5
0,50,79,0
0,70,81,1
0,58,60,75
0,58,60,0
0,70,78,1
0,63,48,9
0,63,48,0
0,70,81,93
0,67,53,49
0,67,53,0
0,72,80,1
0,70,80,116
0,70,78,1
0,68,57,1
0,50,79,5
0,50,79,0
0,58,60,190
0,58,60,0
0,63,48,101
0,63,48,0
0,67,53,199
0,67,53,0
0,67,80,365
0,67,78,44
0,68,81,1
0,70,81,1
0,49,79,6
0,49,79,0
0,58,60,47
0,58,60,0
0,70,81,1
0,63,48,49
0,63,48,0
0,70,78,1
0,67,53,43
0,67,53,0
0,70,78,30
0,70,78,92
0,70,78,63
0,70,80,1
0,70,81,55
0,72,78,80
0,49,79,4
0,73,80,0
0,49,79,0
0,58,60,190
0,58,60,0
0,73,80,90
0,63,48,90
0,63,48,0
0,67,53,199
0,67,53,0
0,70,78,1
0,70,81,1
0,68,80,1
0,68,81,62
0,44,79,6
0,44,79,0
0,67,80,1
0,60,60,15
0,60,60,0
0,68,55,7
0,63,48,64
0,63,48,0
0,60,79,47
0,70,53,82
0,70,53,0
0,60,81,1
0,44,79,4
0,44,79,0
0,60,69,190
0,60,69,0
0,63,64,188
0,63,64,0
0,70,70,199
0,70,70,0
0,50,66,5
0,50,79,1
0,50,79,0
0,60,60,190
0,60,60,0
0,65,48,190
0,65,48,0
0,67,53,196
0,67,53,0
0,60,78,361
0,67,80,1
0,67,81,1
0,67,81,1
0,50,79,5
0,50,79,0
0,55,76,0
0,65,79,1
0,59,60,84
0,59,60,0
0,65,80,1
0,65,48,110
0,65,48,0
0,67,53,196
0,67,53,0
0,63,76,1
0,63,51,1
0,44,79,5
0,44,79,0
0,56,56,0
0,60,60,191
0,60,60,0
0,63,48,190
0,63,48,0
0,70,53,9
0,70,53,0
0,44,79,5
0,44,79,0
0,60,60,191
0,60,60,0
0,63,48,190
0,63,48,0
0,70,53,196
0,70,53,0
0,50,79,5
0,50,79,0
0,62,66,0
0,60,60,190
0,60,60,0
0,60,78,86
0,65,48,104
0,65,48,0
0,67,80,1
0,67,53,43
0,67,53,0
0,67,81,118
0,67,92,1
0,67,85,138
0,65,80,1
0,65,80,1
0,50,79,5
0,50,79,0
0,55,76,1
0,65,80,1
0,59,60,95
0,59,60,0
0,65,66,2
0,65,48,50
0,65,48,0
0,67,53,192
0,67,53,0
0,63,78,1
0,63,74,156
0,44,79,5
0,44,79,0
0,56,56,1
0,60,60,45
0,60,60,0
0,63,74,2
0,63,48,188
0,63,48,0
0,70,53,185
0,70,53,0
0,30,107,16
0,44,79,5
0,44,79,0
0,60,60,46
0,60,60,0
0,63,48,44
0,63,48,0
0,70,53,48
0,70,53,0
0,58,64,65
0,67,87,1
0,51,63,6
0,39,96,0
0,58,38,0
0,58,46,1
0,51,79,0
0,63,38,21
0,67,58,12
0,67,85,1
0,58,60,62
0,67,87,1
0,65,48,3
0,67,83,1
0,67,53,7
0,67,80,80
0,67,87,1
0,67,83,1
0,65,48,35
0,67,85,1
0,58,30,32
0,67,90,65
0,67,80,1
0,51,79,15
0,65,63,151
0,58,60,14
0,65,48,188
0,67,53,24
0,54,52,191
0,51,47,0
0,84,26,0
0,63,77,17
0,65,48,175
0,58,52,21
0,58,48,24
0,58,81,117
0,58,80,8
0,50,79,5
0,62,58,0
0,67,66,0
0,50,46,0
0,58,54,2
0,38,85,2
0,70,72,2
0,50,58,0
0,62,75,3
0,67,94,31
0,58,60,38
0,67,90,1
0,63,48,80
0,67,83,1
0,67,90,1
0,67,53,1
0,67,80,1
0,67,80,1
0,63,48,81
0,68,80,1
0,58,30,27
0,65,80,1
0,67,81,34
0,65,56,4
0,65,61,5
0,50,79,0
0,58,60,100
0,63,48,64
0,67,53,199
0,62,63,121
0,70,56,0
0,63,48,192
0,58,30,22
0,58,70,9
0,58,78,1
0,67,52,28
0,48,79,1
0,72,48,0
0,36,89,6
0,60,62,2
0,55,48,3
0,60,80,1
0,58,60,51
0,60,79,1
0,63,48,142
0,67,53,186
0,55,56,15
0,63,48,215
0,58,53,35
0,67,83,1
0,67,85,66
0,67,83,2
0,46,79,4
0,34,86,4
0,58,60,89
0,67,87,1
0,68,81,1
0,63,48,3
0,67,83,78
0,67,53,5
0,63,81,1
0,63,48,86
0,65,63,29
0,62,66,0
0,58,38,0
0,46,51,0
0,58,53,6
0,44,79,6
0,67,74,2
0,63,60,3
0,60,64,2
0,44,40,0
0,56,32,1
0,32,94,5
0,60,60,177
0,63,48,61
0,65,41,13
0,70,53,186
0,67,66,12
0,63,48,346
0,60,72,32
0,60,57,0
0,70,53,6
0,56,35,8
0,44,94,0
0,63,48,36
0,60,57,24
0,60,55,2
0,70,53,75
0,54,47,17
0,51,48,0
0,84,41,0
0,60,73,43
0,63,48,7
0,63,77,31
0,70,53,24
0,60,57,137
0,70,81,1
0,70,81,54
0,51,60,17
0,39,96,0
0,51,58,0
0,58,46,1
0,51,79,0
0,58,68,11
0,67,58,11
0,70,81,1
0,58,60,49
0,70,80,1
0,65,48,56
0,70,81,31
0,70,81,69
0,67,53,42
0,72,80,51
0,70,85,1
0,65,48,45
0,70,81,36
0,58,30,32
0,68,78,112
0,51,60,4
0,51,79,0
0,58,60,190
0,65,48,63
0,67,53,144
0,58,48,43
0,67,79,0
0,54,47,0
0,51,48,0
0,84,41,0
0,63,77,17
0,68,73,113
0,65,48,34
0,70,81,1
0,58,52,21
0,70,81,64
0,70,78,1
0,38,85,5
0,50,79,0
0,58,54,2
0,70,78,2
0,70,72,2
0,50,58,6
0,62,90,3
0,58,72,13
0,50,66,3
0,58,60,47
0,70,80,2
0,63,48,115
0,70,81,6
0,58,74,16
0,67,53,1
0,70,81,3
0,63,48,32
0,70,81,1
0,72,81,21
0,58,30,6
0,69,74,35
0,65,61,5
0,50,79,0
0,70,80,8
0,58,60,100
0,67,60,13
0,63,48,101
0,67,53,193
0,62,63,121
0,70,56,0
0,54,47,0
0,51,48,0
0,84,41,0
0,63,48,157
0,58,30,192
0,63,80,1
0,63,81,24
0,67,56,28
0,36,89,5
0,48,79,1
0,72,56,0
0,72,72,6
0,63,56,1
0,67,84,4
0,48,58,2
0,63,81,17
0,58,60,151
0,58,78,1
0,63,48,77
0,67,53,199
0,63,48,338
0,58,53,35
0,67,80,161
0,67,85,1
0,34,86,4
0,46,79,0
0,70,77,2
0,46,72,2
0,63,55,6
0,67,94,22
0,58,60,73
0,67,85,1
0,63,48,57
0,68,80,10
0,67,53,189
0,67,81,1
0,54,47,0
0,51,48,0
0,84,41,0
0,63,77,1
0,63,48,122
0,58,53,6
0,32,94,5
0,63,52,0
0,44,79,1
0,68,74,1
0,63,60,1
0,44,40,1
0,60,64,0
0,56,52,5
0,60,60,168
0,63,48,62
0,70,53,199
0,63,60,16
0,54,49,0
0,84,47,0
0,51,48,0
0,44,40,1
0,60,64,0
0,63,48,191
0,60,57,32
0,70,53,27
0,63,48,167
0,60,77,192
0,70,73,75
0,72,74,16
0,68,83,0
0,48,47,0
0,41,86,0
0,63,68,190
0,60,87,11
0,60,77,2
0,68,72,0
0,63,63,0
0,39,65,0
0,39,92,0
0,38,74,8
0,60,87,0
0,57,87,0
0,67,94,0
0,38,96,0
0,50,79,0
0,55,51,0
0,60,57,0
0,60,63,11
0,55,59,5
0,60,60,174
0,65,48,190
0,67,53,196
0,65,48,23
0,55,77,2
0,60,60,20
0,67,81,1
0,67,81,11
0,50,79,0
0,43,42,1
0,59,48,0
0,65,74,0
0,67,63,0
0,31,96,0
0,62,59,0
0,62,65,5
0,67,80,50
0,59,60,128
0,65,80,1
0,65,48,141
0,67,53,196
0,65,48,24
0,59,60,65
0,63,81,1
0,63,78,1
0,63,48,5
0,56,46,10
0,32,85,6
0,44,79,0
0,56,41,0
0,63,48,0
0,44,54,9
0,60,60,183
0,63,47,192
0,63,79,1
0,70,53,61
0,63,33,290
0,60,39,22
0,70,73,43
0,39,64,0
0,63,60,0
0,60,57,14
0,44,77,15
0,46,69,177
0,70,79,0
0,72,83,176
0,44,80,4
0,63,69,83
0,60,69,7
0,63,58,10
0,38,88,7
0,50,79,0
0,55,49,0
0,60,51,0
0,65,76,4
0,60,81,2
0,60,63,5
0,55,59,5
0,60,60,174
0,65,48,190
0,67,53,196
0,65,48,23
0,56,74,1
0,67,94,159
0,60,60,15
0,67,83,48
0,67,63,1
0,65,76,2
0,59,30,1
0,50,79,2
0,31,86,1
0,62,51,0
0,62,65,5
0,67,87,1
0,65,81,1
0,59,60,1
0,65,48,159
0,67,53,190
0,65,48,24
0,56,78,1
0,63,81,61
0,59,60,4
0,63,78,122
0,63,48,11
0,56,46,9
0,32,94,6
0,44,79,0
0,56,46,0
0,63,48,0
0,60,60,192
0,63,36,1
0,63,47,23
0,70,53,75
0,54,49,192
0,84,47,0
0,51,48,0
0,63,33,192
0,60,50,22
0,30,107,42
0,70,78,1
0,63,73,41
0,70,83,3
0,51,28,22
0,63,67,12
0,63,60,14
0,51,37,16
0,60,81,11
0,60,61,2
0,65,88,0
0,63,93,9
0,51,41,34
0,51,45,38
0,70,82,21
0,51,48,8
0,51,53,47
0,62,56,25
0,51,56,3
0,67,92,26
0,72,97,4
0,51,60,29
0,51,64,31
0,63,72,15
0,63,54,19
0,51,68,27
0,51,72,6
0,60,83,3
0,60,76,4
0,68,92,3
0,63,93,2
0,51,77,12
0,51,79,26
0,67,78,1
0,51,84,18
0,51,87,12
0,67,87,1
0,51,100,15
0,39,96,2
0,51,81,0
0,58,80,0
0,70,68,0
0,36,92,0
0,49,76,0
0,51,79,1
0,67,63,6
0,70,60,1
0,58,83,2
0,51,41,0
0,63,54,3
0,67,97,1
0,67,92,1
0,58,60,7
0,67,83,1
0,65,48,43
0,42,69,5
0,67,85,1
0,67,80,18
0,67,53,6
0,67,66,9
0,42,58,81
0,67,81,1
0,65,48,78
0,65,71,4
0,67,80,2
0,67,83,1
0,58,30,32
0,42,72,0
0,58,59,20
0,65,81,1
0,51,80,9
0,39,96,6
0,51,79,0
0,42,72,0
0,37,90,0
0,58,60,108
0,65,48,106
0,42,69,6
0,67,53,129
0,58,78,89
0,42,79,96
0,58,80,2
0,70,86,0
0,63,75,3
0,67,85,1
0,65,48,27
0,67,87,38
0,67,83,0
0,39,86,17
0,58,52,4
0,46,74,0
0,67,80,1
0,67,90,1
0,68,80,1
0,65,74,1
0,50,66,4
0,38,96,0
0,50,79,0
0,50,86,0
0,58,80,0
0,36,92,0
0,42,76,0
0,70,75,5
0,50,30,2
0,65,92,4
0,62,83,2
0,58,60,83
0,65,81,0
0,67,78,22
0,63,48,42
0,42,69,6
0,67,53,81
0,67,79,1
0,42,58,34
0,63,48,103
0,58,30,27
0,42,72,0
0,38,96,5
0,50,79,0
0,42,72,0
0,37,90,0
0,58,60,108
0,63,48,188
0,42,69,6
0,67,72,42
0,67,53,87
0,65,81,1
0,42,79,3
0,65,81,1
0,70,80,0
0,63,79,3
0,63,48,65
0,63,68,10
0,70,60,0
0,38,86,2
0,70,60,4
0,58,30,0
0,46,74,0
0,58,73,1
0,62,51,8
0,48,33,5
0,36,96,5
0,36,92,0
0,42,76,0
0,58,54,0
0,48,79,0
0,63,58,5
0,63,72,3
0,48,90,6
0,67,87,2
0,55,90,6
0,58,60,111
0,63,48,187
0,42,69,5
0,67,53,123
0,42,58,190
0,63,48,103
0,63,78,6
0,36,86,18
0,42,72,4
0,58,53,7
0,65,83,1
0,67,94,1
0,46,97,0
0,67,72,1
0,63,64,0
0,70,54,0
0,34,96,0
0,46,79,0
0,55,81,0
0,74,63,0
0,42,72,0
0,37,90,0
0,46,63,0
0,67,92,1
0,58,60,13
0,63,48,16
0,68,80,0
0,42,69,6
0,58,43,2
0,67,53,129
0,63,62,3
0,67,70,188
0,42,79,0
0,75,58,11
0,67,90,4
0,63,48,54
0,63,70,1
0,34,86,8
0,46,74,4
0,58,53,6
0,80,55,0
0,56,80,1
0,44,56,0
0,51,76,2
0,70,80,2
0,63,86,0
0,36,92,0
0,42,76,0
0,44,79,1
0,32,94,13
0,60,60,111
0,63,48,187
0,42,69,5
0,70,53,123
0,60,63,79
0,63,64,0
0,44,32,0
0,42,58,0
0,63,48,103
0,60,57,32
0,42,72,0
0,70,53,27
0,56,64,8
0,44,94,7
0,80,51,0
0,42,72,0
0,37,90,0
0,63,48,108
0,60,83,1
0,60,57,191
0,42,69,2
0,63,77,2
0,56,67,5
0,60,92,1
0,63,67,0
0,70,53,0
0,79,52,0
0,56,85,16
0,32,94,0
0,42,79,0
0,63,48,4
0,65,83,2
0,70,78,137
0,60,57,16
0,34,94,2
0,77,46,0
0,46,74,0
0,70,80,1
0,39,96,13
0,51,81,0
0,58,80,0
0,79,63,0
0,36,92,0
0,42,76,0
0,51,79,1
0,70,60,7
0,58,83,2
0,70,80,1
0,63,54,2
0,67,97,1
0,58,60,44
0,70,80,32
0,65,48,20
0,42,69,5
0,70,81,14
0,70,57,22
0,67,53,2
0,67,66,9
0,42,58,9
0,70,81,38
0,65,48,10
0,65,71,4
0,72,79,20
0,58,30,19
0,42,72,0
0,72,80,1
0,58,59,1
0,70,78,1
0,75,60,1
0,51,80,9
0,39,96,6
0,51,79,0
0,42,72,0
0,37,90,0
0,68,81,11
0,58,60,108
0,65,48,15
0,42,69,6
0,74,55,29
0,67,53,5
0,42,79,96
0,58,80,2
0,70,86,0
0,63,75,3
0,65,48,128
0,67,83,1
0,39,86,13
0,72,52,0
0,58,52,4
0,46,74,0
0,68,83,1
0,70,81,1
0,50,66,4
0,38,96,0
0,50,79,0
0,50,86,0
0,58,80,0
0,70,43,0
