track,note,velocity,time
1,55,71,1826
1,59,72,52
1,48,77,8
1,36,65,44
1,64,74,8
1,48,49,52
1,55,87,312
1,59,87,0
1,64,75,0
1,48,56,291
1,55,64,83
1,57,49,0
1,60,60,0
1,64,60,0
1,36,64,77
1,48,41,49
1,55,54,0
1,55,59,92
1,57,56,0
1,60,63,0
1,64,54,0
1,48,30,8
1,55,72,32
1,57,70,0
1,60,74,0
1,64,75,0
1,48,48,192
1,55,59,63
1,43,55,79
1,36,64,192
1,55,63,0
1,59,63,0
1,64,71,0
1,48,53,175
1,55,24,170
1,55,79,140
1,59,84,0
1,64,71,0
1,48,53,262
1,43,54,33
1,36,56,6
1,55,53,0
1,57,51,0
1,60,53,0
1,64,61,0
1,48,54,196
1,55,64,167
1,55,75,96
1,57,71,0
1,60,71,0
1,64,72,0
1,48,75,144
1,55,60,129
1,57,50,0
1,60,50,0
1,64,54,0
1,43,61,67
1,36,63,10
1,48,59,0
1,55,69,0
1,59,66,0
1,64,72,0
1,48,37,12
1,55,77,29
1,59,79,0
1,64,74,0
1,48,59,13
1,55,64,3
1,57,51,0
1,60,61,0
1,64,71,0
1,48,60,132
1,55,55,61
1,55,63,91
1,57,53,0
1,60,63,0
1,64,66,0
1,48,46,14
1,55,74,50
1,57,75,0
1,60,74,0
1,64,72,0
1,48,66,192
1,55,54,25
1,57,45,0
1,60,48,0
1,64,51,0
1,48,65,21
1,55,63,41
1,59,63,0
1,64,70,0
1,48,56,2
1,55,53,180
1,55,76,102
1,59,81,0
1,64,74,0
1,48,61,13
1,55,56,77
1,57,48,0
1,60,59,0
1,64,65,0
1,48,61,128
1,55,49,104
1,57,28,0
1,60,28,0
1,55,43,96
1,57,35,0
1,60,42,0
1,64,50,0
1,48,63,55
1,55,72,17
1,57,74,0
1,60,74,0
1,64,72,0
1,48,63,3
1,55,43,70
1,57,49,0
1,60,42,0
1,64,32,0
1,48,63,115
1,48,71,36
1,55,71,0
1,59,71,0
1,64,72,0
1,48,41,13
1,55,50,192
1,55,76,42
1,59,84,0
1,64,71,0
1,48,63,4
1,55,49,96
1,55,59,9
1,57,50,0
1,60,53,0
1,64,54,0
1,48,72,192
1,55,48,119
1,57,35,0
1,60,31,0
1,48,54,17
1,55,74,24
1,57,71,0
1,60,74,0
1,64,71,0
1,48,68,2
1,55,53,33
1,57,50,0
1,60,33,0
1,64,35,0
1,48,61,102
1,48,66,78
1,55,64,0
1,59,66,0
1,64,71,0
1,48,50,4
1,55,59,190
1,55,79,45
1,59,84,0
1,64,75,0
1,48,49,57
1,55,65,28
1,57,61,0
1,60,64,0
1,64,71,0
1,48,49,96
1,55,50,127
1,57,29,0
1,60,25,0
1,64,23,0
1,55,51,98
1,57,51,0
1,60,60,0
1,64,61,0
1,48,63,22
1,55,74,15
1,57,75,0
1,60,74,0
1,64,74,0
1,48,66,10
1,55,60,64
1,57,60,0
1,60,60,0
1,64,60,0
1,48,50,107
1,48,65,91
1,55,63,0
1,59,65,0
1,64,69,0
1,48,51,3
1,55,50,192
1,55,71,76
1,59,76,0
1,64,74,0
1,48,49,7
1,55,54,83
1,57,43,0
1,60,53,0
1,64,65,0
1,48,60,91
1,55,37,28
1,55,55,105
1,57,49,0
1,60,53,0
1,64,60,0
1,48,48,60
1,55,76,61
1,57,75,0
1,60,72,0
1,64,69,0
1,48,32,192
1,48,50,97
1,55,69,83
1,48,61,83
1,55,69,0
1,59,65,0
1,64,71,0
1,48,51,0
1,55,51,192
1,55,70,116
1,59,76,0
1,64,71,0
1,48,60,24
1,55,64,69
1,57,61,0
1,60,54,0
1,64,66,0
1,48,63,88
1,55,54,117
1,57,35,0
1,60,41,0
1,64,34,0
1,55,51,96
1,57,53,0
1,60,56,0
1,64,60,0
1,48,63,40
1,55,74,47
1,57,72,0
1,60,72,0
1,64,69,0
1,48,59,37
1,55,41,92
1,57,54,0
1,60,35,0
1,64,40,0
1,55,63,111
1,57,61,0
1,60,59,0
1,64,65,0
1,48,59,32
1,55,70,0
1,60,75,0
1,64,72,0
1,55,49,123
1,60,51,0
1,64,59,0
1,55,87,213
1,60,79,0
1,64,76,0
1,48,56,155
1,57,64,98
1,62,70,0
1,66,59,0
1,48,60,92
1,57,56,107
1,62,42,0
1,66,31,0
1,57,71,116
1,62,71,0
1,66,63,0
1,57,76,170
1,62,74,0
1,66,74,0
1,48,34,4
1,57,60,139
1,62,39,0
1,66,46,0
1,48,50,89
1,48,59,104
1,60,65,0
1,64,65,0
1,67,65,0
1,48,53,4
1,48,39,78
1,60,48,0
1,60,74,53
1,64,75,0
1,67,70,0
1,48,54,103
1,60,63,67
1,64,64,0
1,67,66,0
1,48,61,6
1,57,37,144
1,62,34,0
1,66,41,0
1,57,71,114
1,62,72,0
1,66,71,0
1,57,72,165
1,62,70,0
1,66,63,0
1,48,59,7
1,57,64,83
1,66,32,0
1,48,35,104
1,48,64,112
1,55,63,0
1,60,68,0
1,64,68,0
1,48,56,43
1,55,41,192
1,55,72,119
1,60,75,0
1,64,71,0
1,48,51,124
1,57,72,108
1,62,72,0
1,66,60,0
1,48,54,106
1,57,60,113
1,57,65,109
1,62,61,0
1,66,49,0
1,48,46,18
1,57,76,81
1,62,74,0
1,66,74,0
1,48,56,4
1,48,48,106
1,48,59,110
1,60,65,0
1,64,66,0
1,67,63,0
1,48,60,207
1,60,34,180
1,60,84,133
1,64,81,0
1,67,72,0
1,48,55,26
1,57,72,84
1,62,71,0
1,66,61,0
1,48,56,83
1,57,58,143
1,57,69,3
1,62,61,0
1,66,55,0
1,57,76,179
1,62,74,0
1,66,72,0
1,48,49,4
1,57,64,100
1,62,64,0
1,66,54,0
1,48,44,101
1,48,58,112
1,55,69,0
1,60,69,0
1,64,64,0
1,48,60,17
1,55,38,191
1,55,74,113
1,60,74,0
1,64,72,0
1,48,59,179
1,55,65,50
1,58,65,0
1,64,64,0
1,48,54,113
1,55,53,108
1,55,72,114
1,58,70,0
1,64,64,0
1,48,66,201
1,55,60,44
1,55,63,89
1,58,59,0
1,64,65,0
1,41,66,71
1,53,56,32
1,57,53,57
1,60,66,24
1,41,56,53
1,53,24,192
1,53,70,112
1,57,70,0
1,60,65,0
1,41,49,20
1,53,64,90
1,57,63,0
1,60,61,0
1,41,46,66
1,53,41,110
1,57,43,0
1,60,44,0
1,53,64,130
1,57,71,0
1,60,66,0
1,41,61,170
1,53,45,67
1,57,30,0
1,60,48,0
1,41,65,85
1,55,36,87
1,48,63,34
1,55,66,0
1,60,64,0
1,64,63,0
1,48,53,29
1,55,75,384
1,60,74,0
1,64,69,0
1,48,35,174
1,57,68,130
1,62,68,0
1,66,56,0
1,48,61,118
1,57,56,132
1,57,64,119
1,62,60,0
1,66,49,0
1,48,46,94
1,57,77,96
1,62,79,0
1,66,74,0
1,48,43,128
1,48,43,110
1,48,53,111
1,60,71,0
1,64,65,0
1,67,65,0
1,48,59,16
1,60,75,265
1,64,76,0
1,67,69,0
1,48,54,31
1,57,72,105
1,62,64,0
1,66,66,0
1,48,59,114
1,57,63,142
1,57,69,36
1,62,72,0
1,66,59,0
1,48,42,11
1,57,72,106
1,62,65,0
1,66,70,0
1,48,54,16
1,57,59,95
1,62,50,0
1,66,43,0
1,48,36,50
1,48,72,68
1,55,77,0
1,60,72,0
1,64,74,0
1,55,55,115
1,60,60,0
1,64,61,0
1,48,48,86
1,55,84,111
1,60,77,0
1,64,74,0
1,48,35,210
1,55,50,0
1,60,20,0
1,64,46,0
1,57,63,136
1,62,64,0
1,66,60,0
1,48,66,20
1,57,60,146
1,57,68,127
1,62,69,0
1,66,60,0
1,48,50,21
1,57,87,131
1,62,87,0
1,66,77,0
1,48,40,17
1,57,56,131
1,62,53,0
1,66,41,0
1,48,49,99
1,48,65,123
1,60,68,0
1,64,69,0
1,67,64,0
1,48,56,1
1,60,27,86
1,60,72,114
1,64,76,0
1,67,69,0
1,48,59,128
1,57,68,108
1,62,60,0
1,66,58,0
1,48,65,16
1,57,60,106
1,57,70,117
1,62,69,0
1,66,61,0
1,57,76,197
1,62,71,0
1,66,74,0
1,48,44,52
1,55,35,139
1,48,64,310
1,55,65,0
1,60,61,0
1,64,61,0
1,48,55,20
1,55,32,192
1,55,76,120
1,60,74,0
1,64,74,0
1,48,35,178
1,55,27,0
1,55,50,126
1,58,40,0
1,64,58,0
1,48,17,71
1,55,42,143
1,55,61,128
1,58,65,0
1,64,64,0
1,55,72,200
1,58,74,0
1,64,72,0
1,48,63,14
1,55,59,96
1,58,53,0
1,64,48,0
1,48,34,126
1,41,58,82
1,57,60,15
1,60,66,34
1,65,74,14
1,41,59,24
1,57,40,85
1,57,76,103
1,60,76,0
1,65,71,0
1,41,59,23
1,57,56,99
1,60,65,0
1,65,65,0
1,41,54,36
1,57,49,124
1,60,53,0
1,65,46,0
1,57,69,123
1,60,72,0
1,65,71,0
1,41,64,103
1,57,65,72
1,65,46,0
1,41,56,103
1,57,63,0
1,60,63,0
1,65,65,0
1,48,76,266
1,55,68,0
1,60,69,0
1,64,64,0
1,48,60,40
1,55,16,192
1,55,72,145
1,60,74,0
1,64,74,0
1,55,34,218
1,64,27,0
1,48,34,39
1,57,63,42
1,62,63,0
1,66,65,0
1,48,63,98
1,57,60,131
1,57,72,116
1,62,72,0
1,66,68,0
1,57,84,209
1,62,77,0
1,66,75,0
1,57,44,147
1,62,33,0
1,66,38,0
1,48,63,107
1,48,63,106
1,60,72,0
1,64,69,0
1,67,63,0
1,48,58,2
1,60,51,94
1,60,87,127
1,64,84,0
1,67,71,0
1,48,63,0
1,57,71,103
1,62,71,0
1,66,63,0
1,48,60,74
1,57,56,156
1,57,69,108
1,62,66,0
1,66,56,0
1,48,54,36
1,57,81,108
1,62,76,0
1,66,70,0
1,48,60,22
1,57,65,98
1,62,24,0
1,66,28,0
1,57,72,96
1,62,75,0
1,66,61,0
1,48,60,5
1,55,71,0
1,60,74,0
1,64,72,0
1,55,50,0
1,60,45,0
1,64,56,0
1,48,56,89
1,55,77,116
1,60,76,0
1,64,74,0
1,48,56,219
1,57,55,110
1,62,63,0
1,66,53,0
1,48,64,1
1,57,61,73
1,57,64,117
1,62,64,0
1,66,55,0
1,48,31,73
1,57,81,142
1,62,79,0
1,66,79,0
1,48,59,15
1,57,60,116
1,62,34,0
1,66,50,0
1,48,53,112
1,48,64,113
1,60,71,0
1,64,72,0
1,67,64,0
1,60,55,71
1,64,43,0
1,67,50,0
1,48,35,87
1,60,81,148
1,64,90,0
1,67,72,0
1,48,60,141
1,57,64,120
1,62,66,0
1,66,63,0
1,48,66,21
1,57,65,107
1,57,75,109
1,62,70,0
1,66,68,0
1,48,50,36
1,57,76,144
1,62,74,0
1,66,76,0
1,48,59,40
1,48,63,146
1,48,63,136
1,55,64,41
1,60,68,0
1,64,63,0
1,48,60,60
1,55,44,109
1,60,51,0
1,64,55,0
1,48,50,61
1,55,79,127
1,60,84,0
1,64,74,0
1,48,44,17
1,55,40,133
1,60,31,0
1,55,63,132
1,58,69,0
1,64,68,0
1,48,46,52
1,55,50,135
1,58,24,0
1,55,56,138
1,58,59,0
1,64,63,0
1,48,63,86
1,55,76,116
1,58,74,0
1,64,70,0
1,48,32,66
1,55,61,124
1,58,50,0
1,64,56,0
1,48,36,22
1,57,71,88
1,60,69,64
1,65,66,32
1,41,66,31
1,57,59,42
1,60,64,0
1,65,56,0
1,41,51,103
1,57,74,127
1,60,84,0
1,65,74,0
1,41,50,254
1,53,39,129
1,57,61,0
1,60,64,0
1,41,55,72
1,53,56,124
1,57,54,0
1,60,49,0
1,53,75,127
1,57,75,0
1,60,70,0
1,53,74,242
1,57,74,0
1,60,68,0
1,41,63,62
1,53,56,104
1,57,44,0
1,60,53,0
1,48,72,11
1,55,68,0
1,60,71,0
1,64,63,0
1,55,60,58
1,60,61,0
1,64,64,0
1,55,87,286
1,60,90,0
1,64,77,0
1,48,43,95
1,55,51,138
1,60,50,0
1,64,53,0
1,57,69,134
1,62,70,0
1,66,71,0
1,48,63,117
1,57,30,157
1,62,34,0
1,66,32,0
1,57,58,127
1,62,64,0
1,66,61,0
1,48,50,47
1,57,84,117
1,62,79,0
1,66,76,0
1,48,56,16
1,57,59,116
1,62,41,0
1,66,42,0
1,48,43,19
1,60,68,49
1,64,70,0
1,67,65,0
1,60,59,95
1,64,59,0
1,67,63,0
1,48,59,11
1,60,77,104
1,64,84,0
1,67,70,0
1,48,58,153
1,57,70,126
1,62,68,0
1,66,64,0
1,48,59,2
1,57,43,113
1,62,28,0
1,66,19,0
1,57,63,139
1,62,68,0
1,66,61,0
1,48,36,56
1,57,75,144
1,62,74,0
1,66,75,0
1,48,72,15
1,57,58,110
1,62,50,0
1,57,56,82
1,62,41,0
1,66,48,0
1,48,71,45
1,55,75,0
1,60,74,0
1,64,70,0
1,55,59,72
1,60,54,0
1,64,56,0
1,55,65,293
1,60,71,0
1,64,61,0
1,48,53,16
1,57,66,138
1,62,65,0
1,66,64,0
1,48,64,17
1,57,61,110
1,57,68,108
1,62,61,0
1,66,53,0
1,48,46,9
1,57,74,158
1,62,70,0
1,66,72,0
1,48,41,13
1,57,46,144
1,62,25,0
1,66,36,0
1,48,48,107
1,60,69,118
1,64,65,0
1,67,61,0
1,60,48,85
1,64,56,0
1,67,50,0
1,48,69,68
1,60,75,126
1,64,79,0
1,67,70,0
1,48,63,234
1,57,65,139
1,62,64,0
1,66,56,0
1,48,63,122
1,57,56,128
1,62,35,0
1,66,37,0
1,57,74,133
1,62,72,0
1,66,72,0
1,57,77,192
1,62,66,0
1,66,72,0
1,57,42,220
1,62,38,0
1,66,39,0
1,48,63,116
1,55,68,12
1,60,69,0
1,64,69,0
1,48,51,96
1,48,70,5
1,55,42,113
1,55,76,109
1,60,75,0
1,64,71,0
1,48,53,197
1,57,64,135
1,62,71,0
1,66,66,0
1,48,60,13
1,57,56,123
1,66,35,0
1,57,68,129
1,62,71,0
1,66,68,0
1,57,77,224
1,62,74,0
1,66,71,0
1,48,40,0
1,57,53,148
1,66,42,0
1,48,60,104
1,48,63,122
1,60,68,0
1,64,69,0
1,67,64,0
1,48,66,243
1,60,34,120
1,60,81,144
1,64,87,0
1,67,68,0
1,48,38,156
1,57,65,163
1,62,66,0
1,66,63,0
1,48,66,119
1,57,58,121
1,57,69,118
1,62,68,0
1,66,64,0
1,57,74,137
1,62,74,0
1,66,70,0
1,48,50,146
1,55,19,154
1,48,72,33
1,55,68,0
1,60,70,0
1,64,61,0
1,55,42,146
1,60,39,0
1,64,51,0
1,48,63,101
1,55,76,111
1,60,81,0
1,64,71,0
1,48,40,160
1,55,72,128
1,58,72,0
1,64,66,0
1,48,49,0
1,58,49,134
1,64,54,0
1,55,60,122
1,58,64,0
1,64,69,0
1,55,72,232
1,58,74,0
1,64,71,0
1,48,59,4
1,55,53,102
1,58,36,0
1,64,50,0
1,48,44,15
1,57,74,52
1,60,58,64
1,65,66,35
1,41,64,36
1,57,53,127
1,60,55,0
1,65,59,0
1,57,72,303
1,60,76,0
1,65,74,0
1,41,58,239
1,53,64,97
1,57,68,0
1,60,61,0
1,41,38,67
1,53,45,133
1,57,43,0
1,60,42,0
1,53,60,0
1,57,63,0
1,60,59,0
1,53,77,262
1,57,71,0
1,60,71,0
1,41,55,29
1,41,64,110
1,55,44,114
1,48,64,69
1,55,65,0
1,60,69,0
1,64,59,0
1,48,46,117
1,55,54,0
1,55,76,284
1,60,77,0
1,64,61,0
1,55,53,206
1,55,58,106
1,60,69,0
1,64,63,0
1,48,29,50
1,55,46,144
1,60,50,0
1,64,14,0
1,48,65,104
1,55,44,118
1,55,76,107
1,58,76,0
1,64,72,0
1,48,63,75
1,57,69,138
1,60,63,75
1,65,70,20
1,41,63,59
1,57,43,121
1,60,39,0
1,65,41,0
1,57,70,285
1,60,74,0
1,65,74,0
1,41,42,8
1,57,66,61
1,60,69,0
1,65,64,0
1,41,43,71
1,57,60,125
