track,note,velocity,time
1,55,90,5942
1,54,61,94
1,55,0,0
1,54,0,94
1,53,90,2
1,52,84,100
1,53,0,18
1,52,0,70
1,51,71,7
1,50,90,93
1,51,0,4
1,50,0,87
1,49,64,3
1,48,90,97
1,49,0,5
1,36,90,92
1,48,0,5
1,36,0,83
1,36,90,103
1,36,0,134
1,36,89,56
1,43,90,292
1,36,0,17
1,36,90,82
1,43,0,3
1,36,0,105
1,36,90,84
1,36,0,507
1,36,90,66
1,36,0,106
1,36,90,86
1,36,0,416
1,43,90,60
1,43,0,83
1,36,90,15
1,36,0,105
1,36,90,87
1,36,0,531
1,36,90,50
1,36,0,93
1,36,90,96
1,36,0,453
1,43,90,24
1,36,90,98
1,43,0,0
1,36,0,115
1,36,90,77
1,36,0,525
1,36,90,52
1,36,0,102
1,36,90,89
1,36,0,423
1,43,90,55
1,43,0,95
1,36,90,2
1,36,0,114
1,36,90,78
1,36,0,288
1,41,90,94
1,41,0,140
1,36,90,5
1,36,0,90
1,36,90,100
1,36,0,407
1,43,90,74
1,43,0,61
1,36,90,38
1,36,0,106
1,36,90,83
1,36,0,414
1,36,90,161
1,36,0,84
1,36,90,106
1,36,0,431
1,43,90,49
1,43,0,73
1,36,90,24
1,36,0,106
1,36,90,85
1,36,0,407
1,36,90,170
1,36,0,97
1,36,90,96
1,36,0,438
1,43,90,42
1,43,0,83
1,36,90,13
1,36,0,94
1,36,90,97
1,36,0,438
1,36,90,140
1,36,0,93
1,36,90,98
1,36,0,432
1,43,90,45
1,43,0,90
1,36,90,9
1,36,0,98
1,36,90,90
1,36,0,304
1,31,90,85
1,33,90,99
1,31,0,9
1,33,0,75
1,36,90,12
1,36,0,111
1,36,90,79
1,36,0,428
1,43,90,50
1,43,0,88
1,36,90,11
1,36,0,100
1,36,90,90
1,43,55,385
1,36,0,5
1,43,0,160
1,41,96,27
1,41,0,652
1,53,90,113
1,53,0,88
1,52,90,5
1,50,90,97
1,52,0,17
1,48,90,83
1,50,0,5
1,48,0,77
1,50,90,14
1,48,90,98
1,50,0,17
1,48,0,74
1,48,82,3
1,48,0,88
1,45,79,7
1,36,90,96
1,45,0,11
1,36,0,88
1,36,90,96
1,36,0,446
1,43,90,31
1,43,0,94
1,36,90,3
1,36,0,82
1,36,90,110
1,36,0,538
1,36,90,41
1,36,0,84
1,36,90,108
1,36,0,455
1,43,90,20
1,43,0,87
1,36,90,9
1,36,0,97
1,36,90,95
1,36,0,252
1,55,75,38
1,55,0,3
1,36,90,34
1,36,0,97
1,36,90,93
1,36,0,438
1,43,90,42
1,43,0,83
1,36,90,13
1,36,0,94
1,36,90,97
1,36,0,438
1,36,90,140
1,36,0,93
1,36,90,98
1,36,0,432
1,43,90,45
1,43,0,90
1,36,90,9
1,36,0,98
1,36,90,90
1,36,0,304
1,31,90,85
1,33,90,99
1,31,0,9
1,33,0,75
1,36,90,12
1,36,0,111
1,36,90,79
1,36,0,428
1,43,90,50
1,43,0,88
1,36,90,11
1,36,0,100
1,36,90,90
1,36,0,434
1,36,73,47
1,36,0,55
1,41,96,41
1,41,0,652
1,53,90,113
1,53,0,88
1,52,90,5
1,50,90,97
1,52,0,17
1,48,90,83
1,50,0,5
1,48,0,77
1,50,90,14
1,48,90,98
1,50,0,17
1,48,0,76
1,48,82,1
1,48,0,93
1,45,79,2
1,36,90,96
1,45,0,11
1,36,0,88
1,36,90,96
1,36,0,190
1,36,90,4
1,36,0,221
1,43,90,62
1,43,0,94
1,36,90,3
1,36,0,82
1,36,90,110
1,36,0,196
1,36,90,1
1,36,0,239
1,36,90,143
1,36,0,84
1,36,90,108
1,36,0,186
1,36,90,5
1,36,0,226
1,43,70,58
1,43,0,40
1,55,90,59
1,54,61,94
1,55,0,0
1,54,0,94
1,53,90,2
1,52,84,100
1,53,0,18
1,52,0,70
1,51,71,7
1,50,90,93
1,51,0,4
1,50,0,87
1,49,64,3
1,48,90,97
1,49,0,5
1,36,90,94
1,48,0,3
1,36,0,94
1,36,90,93
1,36,0,438
1,43,90,42
1,43,0,83
1,36,90,13
1,36,0,94
1,36,90,97
1,36,0,438
1,36,90,140
1,36,0,93
1,36,90,98
1,36,0,432
1,43,90,45
1,43,0,90
1,36,90,9
1,36,0,98
1,36,90,90
1,36,0,304
1,31,90,85
1,33,90,99
1,31,0,9
1,33,0,75
1,36,90,12
1,36,0,111
1,36,90,79
1,36,0,428
1,43,90,50
1,43,0,88
1,36,90,11
1,36,0,100
1,36,90,90
1,36,0,434
1,36,73,47
1,36,0,55
1,41,96,41
1,41,0,652
1,53,90,113
1,53,0,88
1,52,90,5
1,50,90,97
1,52,0,17
1,48,90,83
1,50,0,5
1,48,0,77
1,50,90,14
1,48,90,98
1,50,0,17
1,48,0,76
1,48,71,1
1,48,0,52
1,36,90,3
1,36,0,99
1,36,90,94
1,36,0,446
1,43,90,31
1,43,0,94
1,36,90,3
1,36,0,82
1,36,90,110
1,36,0,538
1,36,90,41
1,36,0,84
1,36,90,108
1,36,0,455
1,43,90,20
1,43,0,87
1,36,90,9
1,36,0,97
1,36,90,95
1,36,0,252
1,55,59,38
1,55,0,3
1,36,90,34
1,36,0,96
1,36,90,97
1,36,0,408
1,43,90,67
1,43,0,72
1,36,90,26
1,36,0,96
1,36,90,97
1,36,0,435
1,43,90,44
1,43,0,85
1,36,90,12
1,36,0,84
1,36,90,108
1,36,0,429
1,43,90,50
1,43,0,90
1,36,90,7
1,36,0,102
1,36,90,88
1,36,0,352
1,31,90,33
1,31,0,81
1,33,90,12
1,33,0,84
1,36,90,13
1,36,0,112
1,36,90,82
1,36,0,427
1,43,90,52
1,43,0,94
1,36,90,1
1,36,0,93
1,36,90,99
1,36,0,511
1,36,90,64
1,36,0,100
1,36,90,93
1,36,0,421
1,43,90,61
1,43,0,95
1,36,90,1
1,36,0,91
1,36,90,98
1,36,0,319
1,31,90,66
1,31,0,81
1,33,90,16
1,33,0,80
1,36,90,17
1,36,0,92
1,36,90,101
1,36,0,606
1,36,89,64
1,36,0,49
1,36,90,48
1,36,0,44
1,36,90,52
1,36,0,46
1,36,90,50
1,36,0,48
1,36,90,50
1,36,0,74
1,41,90,115
1,41,0,60
1,41,96,39
1,41,0,652
1,53,90,113
1,53,0,88
1,52,90,5
1,50,90,97
1,52,0,17
1,48,90,83
1,50,0,5
1,48,0,77
1,50,90,14
1,48,90,98
1,50,0,17
1,48,0,76
1,48,71,1
1,48,0,56
1,36,90,3
1,36,0,99
1,36,90,94
1,36,0,446
1,43,90,31
1,43,0,94
1,36,90,3
1,36,0,82
1,36,90,110
1,36,0,462
1,36,90,17
1,36,0,69
1,41,90,28
1,41,0,86
1,41,90,107
1,41,0,138
1,41,90,52
1,41,0,319
1,41,90,65
1,41,0,58
1,41,90,39
1,41,0,53
1,41,90,46
1,41,0,37
1,41,90,58
1,41,0,38
1,41,90,58
1,41,0,43
1,41,90,42
1,41,0,43
1,41,90,55
1,41,0,55
1,36,90,10
1,36,0,87
1,36,90,104
1,36,0,422
1,43,90,55
1,43,0,96
1,36,90,2
1,36,0,75
1,36,90,116
1,36,0,443
1,43,90,38
1,43,0,91
1,36,90,9
1,36,0,101
1,36,90,90
1,36,0,409
1,43,90,67
1,36,90,100
1,43,0,4
1,36,0,72
1,36,90,116
1,36,0,409
1,43,90,69
1,43,0,93
1,36,90,6
1,36,0,83
1,36,90,109
1,36,0,397
1,43,90,80
1,43,0,94
1,36,90,2
1,36,0,103
1,36,90,88
1,36,0,318
1,31,90,62
1,31,0,92
1,33,90,5
1,33,0,94
1,36,90,3
1,36,0,98
1,36,90,97
1,36,0,412
1,43,90,67
1,36,90,97
1,43,0,0
1,36,0,117
1,36,90,76
1,36,0,398
1,43,90,79
1,36,90,97
1,43,0,0
1,36,0,101
1,36,90,89
1,36,0,406
1,36,90,75
1,36,0,63
1,43,77,34
1,36,81,1
1,36,0,248
1,43,0,4
1,36,90,38
1,36,0,81
1,46,79,13
1,46,0,254
1,40,75,37
1,40,0,94
1,41,90,1
1,41,0,669
1,53,81,97
1,52,77,100
1,53,0,1
1,50,86,95
1,52,0,2
1,50,0,83
1,48,77,7
1,48,0,85
1,50,77,11
1,50,0,61
1,50,75,35
1,50,0,176
1,48,49,15
1,48,0,79
1,36,90,17
1,36,0,126
1,36,90,69
1,36,0,410
1,43,90,66
1,36,90,96
1,43,0,0
1,36,0,106
1,36,90,87
1,36,0,450
1,36,90,128
1,36,0,102
1,36,90,88
1,36,0,427
1,43,90,53
1,36,90,96
1,43,0,0
1,36,0,117
1,36,90,78
1,36,0,421
1,43,90,57
1,43,0,88
1,36,90,9
1,36,0,122
1,36,90,70
1,36,0,404
1,43,90,73
1,36,90,98
1,43,0,4
1,36,0,89
1,36,90,96
1,36,0,358
1,31,90,24
1,33,90,60
1,31,0,43
1,33,0,80
1,36,90,12
1,36,0,108
1,36,90,83
1,43,90,482
1,36,0,1
1,36,90,96
1,43,0,3
1,36,0,119
1,36,90,70
1,36,0,426
1,43,90,54
1,36,90,96
1,43,0,5
1,36,0,107
1,36,90,78
1,36,0,423
1,43,90,58
1,36,90,95
1,43,0,5
1,36,0,115
1,36,90,73
1,36,0,345
1,31,90,36
1,33,90,95
1,31,0,2
1,36,90,98
1,33,0,2
1,36,0,114
1,36,90,74
1,36,0,560
1,46,79,113
1,46,0,79
1,46,75,19
1,46,0,84
1,46,76,12
1,46,0,87
1,46,84,11
1,45,90,94
1,46,0,6
1,43,90,92
1,45,0,18
1,43,0,74
1,42,73,4
1,41,90,97
1,42,0,1
1,41,0,179
1,41,84,10
1,41,0,459
1,43,90,21
1,53,90,94
1,43,0,5
1,52,87,91
1,53,0,13
1,50,82,83
1,52,0,19
1,50,0,76
1,48,90,1
1,48,0,85
1,50,90,11
1,50,0,87
1,50,68,11
1,50,0,17
1,36,90,2
1,36,0,108
1,36,90,85
1,36,0,419
1,43,90,61
1,43,0,90
1,36,90,6
1,36,0,117
1,36,90,76
1,36,0,436
1,36,90,142
1,36,0,100
1,36,90,93
1,36,0,463
1,43,90,13
1,36,90,98
1,43,0,2
1,36,0,109
1,36,90,80
1,36,0,440
1,43,90,39
1,36,90,96
1,43,0,8
1,36,0,96
1,36,90,88
1,36,0,434
1,43,90,47
1,36,90,97
1,43,0,2
1,36,0,107
1,36,90,82
1,36,0,437
1,43,90,41
1,36,90,97
1,43,0,3
1,36,0,113
1,36,90,77
1,36,0,440
1,43,90,39
1,43,0,93
1,36,90,3
1,36,0,124
1,36,90,72
1,36,0,454
1,43,90,22
1,43,0,92
1,36,90,6
1,36,0,108
1,36,90,84
1,36,0,434
1,43,90,41
1,36,90,98
1,43,0,7
1,36,0,98
1,36,90,86
1,36,0,360
1,31,90,23
1,31,0,85
1,33,90,11
1,33,0,98
1,36,90,1
1,36,0,115
1,36,90,77
1,36,0,481
1,36,65,0
1,36,0,65
1,46,79,31
1,46,0,60
1,46,73,36
1,46,0,49
1,46,73,48
1,46,0,48
1,46,72,50
1,46,0,49
1,46,75,45
1,45,90,96
1,46,0,5
1,43,90,93
1,45,0,17
1,43,0,74
1,42,72,5
1,42,0,91
1,41,90,6
1,41,0,180
1,41,84,10
1,41,0,459
1,43,90,21
1,53,90,94
1,43,0,5
1,52,87,91
1,53,0,13
1,50,82,83
1,52,0,19
1,50,0,76
1,48,90,1
1,48,0,85
1,50,90,11
1,50,0,87
1,48,68,11
1,48,0,17
1,36,90,2
1,36,0,108
1,36,90,85
1,36,0,419
1,43,90,61
1,43,0,90
1,36,90,6
1,36,0,117
1,36,90,76
1,55,57,291
1,36,0,5
1,55,0,5
1,36,90,7
1,36,0,73
1,36,90,116
1,36,0,420
1,43,90,62
1,43,0,96
1,36,90,3
1,36,0,89
1,36,90,99
1,36,0,331
1,31,90,51
1,31,0,77
1,33,90,19
1,33,0,93
1,36,90,5
1,36,0,102
1,36,90,90
1,36,0,325
1,36,90,56
1,36,0,41
1,36,90,56
1,36,0,43
1,36,90,56
1,36,0,89
1,36,90,103
1,36,0,336
1,31,90,46
1,33,90,95
1,31,0,5
1,33,0,86
1,36,90,7
1,36,0,119
1,36,90,72
1,36,0,348
1,43,90,132
1,36,90,100
1,43,0,3
1,36,0,113
1,36,90,76
1,36,0,343
1,43,90,134
1,43,0,95
1,36,90,4
1,36,0,103
1,36,90,87
1,36,0,385
1,46,79,97
1,46,0,48
1,46,74,49
1,46,0,52
1,46,79,43
1,46,0,174
1,46,77,16
1,46,0,44
1,46,79,51
1,46,0,184
1,43,90,9
1,43,0,156
1,41,90,38
1,41,0,168
1,41,90,24
1,41,0,415
1,41,90,65
1,53,90,96
1,41,0,2
1,52,90,91
1,53,0,13
1,50,90,83
1,52,0,17
1,48,90,82
1,50,0,3
1,48,0,63
1,50,90,32
1,50,0,50
1,50,90,47
1,48,90,94
1,50,0,0
1,48,0,136
1,36,90,56
1,36,0,106
1,36,90,83
1,36,0,411
1,43,90,67
1,43,0,96
1,36,84,2
1,36,0,110
1,36,90,84
1,36,0,380
1,43,90,1
1,43,0,158
1,41,90,33
1,41,0,118
1,41,90,75
1,41,0,295
1,41,90,91
1,41,0,37
1,41,90,59
1,41,0,45
1,41,90,52
1,41,0,99
1,41,90,88
1,41,0,448
1,43,90,33
1,43,0,94
1,36,90,3
1,36,0,112
1,36,90,81
1,36,0,463
1,43,90,17
1,43,0,88
1,36,90,8
1,36,0,122
1,36,90,70
1,36,0,446
1,43,90,33
1,43,0,87
1,36,90,8
1,36,0,111
1,36,90,83
1,36,0,428
1,55,90,146
1,54,73,97
1,55,0,8
1,54,0,84
1,53,90,2
1,52,84,97
1,53,0,13
1,51,73,82
1,52,0,1
1,50,90,96
1,51,0,0
1,49,75,97
1,50,0,9
1,49,0,80
1,48,90,7
1,48,0,85
1,36,90,13
1,36,0,90
1,36,90,101
1,36,0,416
1,43,90,61
1,43,0,86
1,36,90,11
1,36,0,88
1,36,90,104
1,36,0,504
1,36,90,72
1,36,0,91
1,36,90,102
1,36,0,446
1,43,90,33
1,43,0,84
1,36,90,12
1,36,0,85
1,36,90,106
1,36,0,348
1,31,90,38
1,31,0,82
1,33,90,12
1,33,0,95
1,36,90,3
1,36,0,102
1,36,90,91
1,36,0,433
1,43,90,47
1,43,0,76
1,36,90,19
1,36,0,97
1,36,90,96
1,36,0,433
1,41,90,144
1,41,0,58
1,53,90,3
1,52,90,93
1,53,0,4
1,50,90,93
1,52,0,20
1,48,79,80
1,50,0,6
1,48,0,64
1,50,90,26
1,50,0,59
1,50,90,35
1,50,0,96
1,48,90,2
1,48,0,169
1,36,90,23
1,36,0,91
1,36,90,101
1,36,0,427
1,43,90,50
1,36,90,99
1,43,0,6
1,36,0,89
1,36,90,92
1,36,0,408
1,43,90,76
1,36,90,96
1,43,0,9
1,36,0,87
1,36,90,95
1,36,0,419
1,43,90,61
1,43,0,73
1,36,90,23
1,36,0,99
1,36,90,93
1,36,0,196
1,55,74,91
1,55,0,3
1,36,90,6
1,36,0,93
1,36,90,97
1,36,0,419
1,43,90,62
1,43,0,82
1,36,90,15
1,36,0,78
1,36,90,110
1,36,0,206
1,55,76,84
1,55,0,8
1,36,93,5
1,36,0,94
1,36,90,94
1,36,0,458
1,43,79,23
1,43,0,82
1,36,90,16
1,36,0,93
1,36,90,97
1,36,0,128
1,36,90,65
1,36,0,300
1,29,90,86
1,29,0,112
1,29,90,82
1,29,0,391
1,29,90,84
1,29,0,97
1,41,90,0
1,41,0,326
1,41,90,55
1,41,0,37
1,36,90,1
1,36,0,95
1,36,90,94
1,36,0,426
1,43,90,53
1,43,0,91
1,36,90,6
1,36,0,81
1,36,90,108
1,36,0,408
1,36,90,73
1,36,0,82
1,29,90,15
1,29,0,104
1,29,90,88
1,29,0,402
1,29,90,81
1,29,0,85
1,41,90,10
1,41,0,325
1,41,90,56
1,41,0,54
1,36,90,7
1,36,0,74
1,36,90,115
1,36,0,414
1,36,90,65
1,36,0,46
