track,note,velocity,time
1,84,90,18510
1,84,0,479
1,82,90,1
1,82,0,546
1,82,90,414
1,82,0,356
1,84,93,124
1,84,0,439
1,82,97,41
1,82,0,894
1,82,89,66
1,82,0,445
1,84,97,35
1,84,0,459
1,82,81,21
1,82,0,918
1,82,93,42
1,82,0,457
1,84,97,23
1,84,0,474
1,82,95,6
1,82,0,758
1,82,97,202
1,82,0,430
1,70,80,30
1,72,80,0
1,73,81,0
1,77,85,0
1,72,0,16
1,77,0,18
1,73,0,10
1,70,0,1
1,70,86,1
1,73,93,0
1,77,86,0
1,70,0,75
1,70,68,45
1,77,0,4
1,73,0,4
1,70,0,13
1,70,80,39
1,73,85,0
1,77,86,0
1,70,0,43
1,70,72,17
1,73,0,2
1,77,0,10
1,70,0,16
1,68,90,32
1,72,104,0
1,75,90,0
1,68,0,62
1,75,0,1
1,72,0,3
1,68,83,8
1,72,97,0
1,75,86,0
1,68,0,68
1,68,54,52
1,75,0,15
1,72,0,7
1,68,0,7
1,68,43,31
1,70,95,0
1,75,95,0
1,68,0,4
1,68,65,56
1,72,91,0
1,70,0,11
1,72,0,6
1,75,0,4
1,68,0,6
1,65,25,63
1,68,81,9
1,72,80,0
1,75,89,0
1,75,0,25
1,72,0,3
1,68,0,2
1,65,0,0
1,65,103,14
1,68,95,0
1,72,90,0
1,75,97,0
1,65,0,61
1,65,51,24
1,75,0,18
1,68,0,6
1,72,0,1
1,65,0,6
1,65,89,29
1,68,89,0
1,72,80,0
1,75,85,0
1,65,0,38
1,75,0,2
1,68,0,6
1,72,0,2
1,72,48,12
1,72,0,19
1,66,76,41
1,66,0,17
1,68,90,43
1,70,90,0
1,75,90,0
1,72,80,22
1,70,0,10
1,70,83,20
1,68,0,16
1,68,80,44
1,70,0,14
1,75,0,22
1,68,0,2
1,72,0,1
1,68,91,21
1,70,99,0
1,75,95,0
1,72,85,30
1,70,0,7
1,68,0,64
1,75,0,2
1,72,0,10
1,68,60,7
1,70,100,0
1,75,91,0
1,68,0,6
1,68,89,54
1,70,0,13
1,75,0,8
1,68,0,3
1,70,81,96
1,72,90,0
1,73,90,0
1,77,86,0
1,72,0,18
1,70,0,7
1,73,0,0
1,77,0,0
1,70,76,16
1,73,85,0
1,77,90,0
1,70,0,62
1,70,78,58
1,77,0,8
1,73,0,1
1,70,0,12
1,70,90,39
1,73,97,0
1,77,91,0
1,70,0,35
1,73,0,18
1,77,0,1
1,68,85,66
1,72,99,0
1,75,91,0
1,75,0,62
1,72,0,2
1,68,0,7
1,68,69,2
1,72,100,0
1,75,93,0
1,68,0,74
1,68,80,46
1,75,0,23
1,68,0,11
1,72,0,1
1,68,95,25
1,70,101,0
1,75,99,0
1,68,0,36
1,68,67,24
1,72,85,0
1,70,0,13
1,75,0,5
1,72,0,1
1,68,0,2
1,65,91,39
1,68,71,0
1,72,81,0
1,74,18,0
1,75,1,0
1,74,0,10
1,65,0,124
1,75,0,4
1,72,0,0
1,68,0,5
1,65,97,11
1,68,86,0
1,72,91,0
1,75,90,0
1,65,0,12
1,65,71,27
1,75,0,8
1,72,0,9
1,68,0,4
1,65,0,4
1,72,1,5
1,72,0,6
1,65,91,24
1,68,86,0
1,72,76,0
1,75,89,0
1,65,0,43
1,75,0,84
1,68,0,1
1,72,0,3
1,75,80,49
1,82,93,0
1,75,0,36
1,82,0,5
1,73,103,19
1,80,85,0
1,80,0,55
1,73,0,7
1,72,99,58
1,80,99,0
1,68,56,60
1,80,0,4
1,72,0,2
1,68,0,3
1,68,99,51
1,75,101,0
1,80,95,0
1,75,0,24
1,68,0,10
1,80,0,24
1,68,75,2
1,68,0,19
1,70,32,71
1,70,0,16
1,70,93,7
1,72,85,0
1,73,83,0
1,77,85,0
1,72,0,23
1,70,0,1
1,77,0,6
1,73,0,4
1,70,81,12
1,73,86,0
1,77,86,0
1,70,0,73
1,70,78,47
1,77,0,6
1,73,0,10
1,70,0,6
1,70,89,38
1,73,86,0
1,77,93,0
1,70,0,29
1,70,58,31
1,73,0,7
1,77,0,4
1,70,0,6
1,68,90,43
1,72,93,0
1,75,90,0
1,72,0,59
1,75,0,4
1,68,0,5
1,68,81,17
1,70,99,0
1,72,90,0
1,75,93,0
1,68,0,7
1,70,0,6
1,68,85,55
1,72,0,39
1,75,0,1
1,68,0,14
1,68,68,6
1,72,103,0
1,75,95,0
1,72,0,49
1,68,0,4
1,75,0,2
1,65,95,65
1,68,89,0
1,72,80,0
1,75,81,0
1,65,0,47
1,72,0,19
1,68,0,13
1,75,0,5
1,65,93,24
1,68,89,0
1,72,81,0
1,75,86,0
1,65,0,60
1,65,65,60
1,68,0,9
1,72,0,2
1,75,0,3
1,65,0,8
1,65,91,38
1,68,89,0
1,72,80,0
1,75,85,0
1,65,0,38
1,75,0,76
1,72,0,6
1,65,89,0
1,72,37,0
1,72,0,10
1,68,0,1
1,65,0,6
1,68,80,103
1,68,0,21
1,70,99,39
1,72,91,0
1,75,95,0
1,70,0,26
1,72,0,2
1,75,0,8
1,70,99,12
1,75,89,0
1,68,85,82
1,70,0,15
1,68,0,34
1,75,0,7
1,70,90,4
1,75,78,0
1,72,91,60
1,70,0,9
1,75,0,5
1,72,0,3
1,70,81,2
1,72,85,0
1,73,85,0
1,77,89,0
1,72,0,21
1,70,0,83
1,77,0,4
1,73,0,1
1,70,81,4
1,73,91,0
1,77,93,0
1,70,0,60
1,70,60,60
1,73,0,2
1,77,0,12
1,70,0,13
1,70,81,33
1,73,89,0
1,77,89,0
1,73,0,38
1,77,0,3
1,70,0,0
1,68,93,79
1,70,99,0
1,72,95,0
1,75,91,0
1,70,0,13
1,75,0,79
1,68,0,3
1,72,0,3
1,68,91,21
1,72,103,0
1,75,95,0
1,68,0,64
1,68,78,56
1,75,0,3
1,72,0,0
1,68,0,15
1,68,89,42
1,72,101,0
1,75,90,0
1,72,0,22
1,68,0,0
1,75,0,7
1,68,34,31
1,68,0,14
1,65,93,1
1,68,89,0
1,72,85,0
1,75,85,0
1,72,0,56
1,75,0,8
1,68,0,6
1,65,0,27
1,65,90,13
1,68,89,0
1,72,81,0
1,75,85,0
1,65,0,41
1,65,57,79
1,72,0,1
1,75,0,2
1,68,0,6
1,65,0,3
1,65,90,48
1,68,86,0
1,72,81,0
1,75,81,0
1,65,0,32
1,68,0,7
1,72,0,6
1,75,0,4
1,68,90,71
1,70,97,0
1,72,100,0
1,75,90,0
1,70,0,5
1,75,0,42
1,68,0,1
1,68,78,4
1,70,100,0
1,75,39,0
1,68,0,8
1,72,0,30
1,68,78,22
1,70,0,10
1,75,0,11
1,68,0,4
1,68,90,35
1,70,99,0
1,72,89,0
1,75,93,0
1,70,0,24
1,72,0,52
1,68,0,15
1,75,0,1
1,68,85,28
1,70,97,0
1,75,97,0
1,68,0,7
1,68,91,53
1,70,0,11
1,75,0,9
1,68,0,8
1,61,75,22
1,65,77,0
1,68,77,0
1,70,80,0
1,61,0,123
1,65,0,6
1,70,0,3
1,68,0,3
1,70,100,15
1,70,0,15
1,75,90,1
1,77,97,120
1,75,0,8
1,77,0,23
1,66,78,161
1,68,78,0
1,70,81,0
1,73,80,0
1,68,0,30
1,70,0,166
1,66,0,6
1,73,0,0
1,63,78,38
1,65,78,0
1,68,72,0
1,72,69,0
1,63,0,122
1,65,0,8
1,68,0,3
1,72,0,5
1,87,90,146
1,87,0,21
1,82,101,99
1,82,0,18
1,84,99,102
1,84,0,18
1,80,90,102
1,80,0,24
1,77,100,96
1,77,0,15
1,75,101,105
1,75,0,14
1,94,90,24
1,94,0,108
1,92,91,12
1,92,0,86
1,89,100,34
1,89,0,69
1,87,91,51
1,87,0,37
1,85,101,83
1,85,0,68
1,82,93,52
1,82,0,34
1,80,93,86
1,80,0,21
1,58,90,4
1,61,90,0
1,63,86,0
1,65,90,286
1,63,0,17
1,61,0,7
1,65,0,1
1,58,0,7
1,54,91,2
1,58,91,0
1,60,93,0
1,54,0,23
1,58,0,4
1,60,0,1
1,70,100,29
1,70,0,26
1,68,105,94
1,68,0,22
1,68,90,28
1,70,95,0
1,72,83,0
1,75,91,0
1,72,0,6
1,75,0,87
1,75,93,27
1,77,105,60
1,68,0,269
1,77,0,3
1,70,0,1
1,75,0,6
1,68,89,21
1,70,89,0
1,75,91,0
1,75,0,86
1,70,0,11
1,70,69,17
1,75,90,0
1,77,104,60
1,75,0,13
1,77,0,66
1,68,0,5
1,70,0,15
1,68,89,12
1,70,97,0
1,75,93,0
1,75,0,57
1,70,0,7
1,70,72,22
1,75,90,0
1,68,0,44
1,77,103,16
1,75,0,7
1,70,0,12
1,77,0,8
1,70,104,93
1,70,0,19
1,68,97,10
1,70,97,0
1,72,78,0
1,75,99,0
1,72,0,7
1,75,0,35
1,70,0,8
1,70,71,34
1,75,95,0
1,68,0,38
1,77,94,22
1,75,0,6
1,70,0,7
1,77,0,9
1,70,104,98
1,70,0,48
1,63,101,46
1,67,95,60
1,63,0,65
1,63,1,19
1,67,0,21
1,63,0,2
1,68,91,7
1,70,100,60
1,68,0,9
1,70,0,106
1,63,91,5
1,67,101,60
1,63,0,3
1,63,73,57
1,67,0,8
1,63,0,26
1,68,81,26
1,70,99,60
1,68,0,6
1,70,0,166
1,63,101,8
1,63,0,26
1,63,99,9
1,67,101,30
1,63,0,26
1,67,0,63
1,68,89,31
1,68,0,51
1,70,104,9
1,70,0,91
1,63,90,29
1,63,0,26
1,67,101,34
1,67,0,64
1,68,89,56
1,68,0,49
1,70,97,11
1,63,67,120
1,70,0,6
1,63,0,14
1,67,103,40
1,67,0,29
1,63,95,151
1,67,99,7
1,63,0,10
1,63,1,50
1,67,0,16
1,63,0,3
1,68,85,41
1,70,101,60
1,68,0,4
1,70,0,89
1,63,80,27
1,63,0,28
1,67,101,32
1,67,0,56
1,68,90,64
1,68,0,51
1,70,97,9
1,70,0,106
1,63,89,14
1,63,0,20
1,68,105,40
1,68,0,21
1,70,80,15
1,72,80,0
1,73,81,0
1,77,85,0
1,72,0,16
1,77,0,18
1,73,0,10
1,70,0,1
1,70,86,1
1,73,93,0
1,77,86,0
1,70,0,75
1,70,68,45
1,77,0,4
1,73,0,4
1,70,0,13
1,70,80,39
1,73,85,0
1,77,86,0
1,70,0,43
1,70,72,17
1,73,0,2
1,77,0,10
1,70,0,16
1,68,90,32
1,72,104,0
1,75,90,0
1,68,0,62
1,75,0,1
1,72,0,3
1,68,83,8
1,72,97,0
1,75,86,0
1,68,0,68
1,68,54,52
1,75,0,15
1,72,0,7
1,68,0,7
1,68,43,31
1,70,95,0
1,75,95,0
1,68,0,4
1,68,65,56
1,72,91,0
1,70,0,11
1,72,0,6
1,75,0,4
1,68,0,6
1,65,25,63
1,68,81,9
1,72,80,0
1,75,89,0
1,75,0,25
1,72,0,3
1,68,0,2
1,65,0,0
1,65,103,14
1,68,95,0
1,72,90,0
1,75,97,0
1,65,0,61
1,65,51,24
1,75,0,18
1,68,0,6
1,72,0,1
1,65,0,6
1,65,89,29
1,68,89,0
1,72,80,0
1,75,85,0
1,65,0,38
1,75,0,2
1,68,0,6
1,72,0,2
1,72,48,12
1,72,0,19
1,66,76,41
1,66,0,17
1,68,90,43
1,70,90,0
1,75,90,0
1,72,80,22
1,70,0,10
1,70,83,20
1,68,0,16
1,68,80,44
1,70,0,14
1,75,0,22
1,68,0,2
1,72,0,1
1,68,91,21
1,70,99,0
1,75,95,0
1,72,85,30
1,70,0,7
1,68,0,64
1,75,0,2
1,72,0,10
1,68,60,7
1,70,100,0
1,75,91,0
1,68,0,6
1,68,89,54
1,70,0,13
1,75,0,8
1,68,0,3
1,70,81,96
1,72,90,0
1,73,90,0
1,77,86,0
1,72,0,18
1,70,0,7
1,73,0,0
1,77,0,0
1,70,76,16
1,73,85,0
1,77,90,0
1,70,0,62
1,70,78,58
1,77,0,8
1,73,0,1
1,70,0,12
1,70,90,39
1,73,97,0
1,77,91,0
1,70,0,35
1,73,0,18
1,77,0,1
1,68,85,66
1,72,99,0
1,75,91,0
1,75,0,62
1,72,0,2
1,68,0,7
1,68,69,2
1,72,100,0
1,75,93,0
1,68,0,74
1,68,80,46
1,75,0,23
1,68,0,11
1,72,0,1
1,68,95,25
1,70,101,0
1,75,99,0
1,68,0,36
1,68,67,24
1,72,85,0
1,70,0,13
1,75,0,5
1,72,0,1
1,68,0,2
1,65,91,39
1,68,71,0
1,72,81,0
1,74,18,0
1,75,1,0
1,74,0,10
1,65,0,124
1,75,0,4
1,72,0,0
1,68,0,5
1,65,97,11
1,68,86,0
1,72,91,0
1,75,90,0
1,65,0,12
1,65,71,27
1,75,0,8
1,72,0,9
1,68,0,4
1,65,0,4
1,72,1,5
1,72,0,6
1,65,91,24
1,68,86,0
1,72,76,0
1,75,89,0
1,65,0,43
1,75,0,84
1,68,0,1
1,72,0,3
1,75,80,49
1,82,93,0
1,75,0,36
1,82,0,5
1,73,103,19
1,80,85,0
1,80,0,55
1,73,0,7
1,72,99,58
1,80,99,0
1,68,56,60
1,80,0,4
1,72,0,2
1,68,0,3
1,68,99,51
1,75,101,0
1,80,95,0
1,75,0,24
1,68,0,10
1,80,0,24
1,68,75,2
1,68,0,19
1,70,32,71
1,70,0,16
1,70,93,7
1,72,85,0
1,73,83,0
1,77,85,0
1,72,0,23
1,70,0,1
1,77,0,6
1,73,0,4
1,70,81,12
1,73,86,0
1,77,86,0
1,70,0,73
1,70,78,47
1,77,0,6
1,73,0,10
1,70,0,6
1,70,89,38
1,73,86,0
1,77,93,0
1,70,0,29
1,70,58,31
1,73,0,7
1,77,0,4
1,70,0,6
1,68,90,43
1,72,93,0
1,75,90,0
1,72,0,59
1,75,0,4
1,68,0,5
1,68,81,17
1,70,99,0
1,72,90,0
1,75,93,0
1,68,0,7
1,70,0,6
1,68,85,55
1,72,0,39
1,75,0,1
1,68,0,14
1,68,68,6
1,72,103,0
1,75,95,0
1,72,0,49
1,68,0,4
1,75,0,2
1,65,95,65
1,68,89,0
1,72,80,0
1,75,81,0
1,65,0,47
1,72,0,19
1,68,0,13
1,75,0,5
1,65,93,24
1,67,65,0
1,68,89,0
1,72,81,0
1,75,86,0
1,67,0,13
1,65,0,47
1,65,65,60
1,68,0,9
1,72,0,2
1,75,0,3
1,65,0,8
1,65,91,38
1,68,89,0
1,72,80,0
1,75,85,0
1,65,0,38
1,75,0,76
1,72,0,6
1,65,89,0
1,72,37,0
1,72,0,10
1,68,0,1
1,65,0,6
1,68,80,103
1,68,0,21
1,70,99,39
1,72,91,0
1,75,95,0
1,70,0,26
1,72,0,2
1,75,0,8
1,70,99,12
1,75,89,0
1,68,85,82
1,70,0,15
1,68,0,34
1,75,0,7
1,70,90,4
1,75,78,0
1,72,91,60
1,70,0,9
1,75,0,5
1,72,0,3
1,70,81,2
1,72,85,0
1,73,85,0
1,77,89,0
1,72,0,21
1,70,0,83
1,77,0,4
1,73,0,1
1,70,81,4
1,73,91,0
1,77,93,0
1,70,0,60
1,70,60,60
1,73,0,2
1,77,0,12
1,70,0,13
1,70,81,33
1,73,89,0
1,77,89,0
1,73,0,38
1,77,0,3
1,70,0,0
1,68,93,79
1,70,99,0
1,72,95,0
1,75,91,0
1,70,0,13
1,75,0,79
1,68,0,3
1,72,0,3
1,68,91,21
1,72,103,0
1,75,95,0
1,68,0,64
1,68,78,56
1,75,0,3
1,72,0,0
1,68,0,15
1,68,89,42
1,72,101,0
1,75,90,0
1,72,0,22
1,68,0,0
1,75,0,7
1,68,34,31
1,68,0,14
1,65,93,1
1,68,89,0
1,72,85,0
1,75,85,0
1,72,0,56
1,75,0,8
1,68,0,6
1,65,0,27
1,65,90,13
1,68,89,0
1,72,81,0
1,75,85,0
1,65,0,41
1,65,57,79
1,72,0,1
1,75,0,2
1,68,0,6
1,65,0,3
1,65,90,48
1,68,86,0
1,72,81,0
1,75,81,0
1,65,0,32
1,68,0,7
1,72,0,6
1,75,0,4
1,68,90,71
1,70,97,0
