track,note,velocity,time
1,79,127,1392
1,84,127,16
1,88,125,16
1,79,127,176
1,84,127,64
1,88,127,16
1,81,127,176
1,84,127,48
1,89,127,32
1,81,127,160
1,84,127,32
1,89,127,0
1,79,127,192
1,84,125,32
1,88,127,16
1,79,127,160
1,84,127,64
1,88,127,16
1,79,127,160
1,83,126,16
1,86,127,0
1,83,125,16
1,79,127,48
1,79,127,240
1,84,127,48
1,88,127,384
1,79,127,176
1,84,126,64
1,88,127,0
1,81,127,176
1,84,127,32
1,89,127,16
1,81,127,176
1,84,127,32
1,89,127,0
1,79,127,192
1,84,127,48
1,88,126,0
1,79,127,160
1,89,127,32
1,86,124,16
1,83,124,32
1,84,127,48
1,79,127,1200
1,84,127,64
1,88,127,16
1,79,127,176
1,84,127,64
1,88,127,16
1,81,127,176
1,84,127,48
1,89,127,16
1,81,127,176
1,84,127,16
1,89,127,0
1,79,127,160
1,84,127,64
1,88,127,0
1,79,127,176
1,84,127,64
1,88,127,32
1,79,127,176
1,83,125,64
1,86,127,0
1,83,126,16
1,79,127,48
1,79,127,336
1,84,127,80
1,88,127,16
1,79,127,192
1,84,127,64
1,88,127,0
1,81,127,160
1,84,127,48
1,89,127,16
1,81,127,176
1,84,127,64
1,89,127,0
1,79,127,176
1,84,127,64
1,88,126,32
1,79,127,160
1,89,127,48
1,86,124,32
1,83,127,32
1,84,127,64
1,79,127,1056
1,84,127,32
1,88,127,0
1,79,127,176
1,84,127,64
1,88,127,0
1,81,127,176
1,84,127,64
1,89,127,0
1,81,127,192
1,84,127,48
1,89,127,384
1,79,127,176
1,84,126,80
1,88,127,16
1,79,127,176
1,84,127,64
1,88,127,16
1,79,127,176
1,83,124,48
1,86,127,16
1,83,123,16
1,79,127,48
1,79,127,320
1,84,127,64
1,88,127,16
1,79,127,176
1,84,127,64
1,88,125,16
1,81,127,176
1,84,127,48
1,89,127,0
1,81,127,160
1,84,127,80
1,89,127,16
1,79,127,176
1,84,127,48
1,88,127,32
1,79,127,160
1,89,127,0
1,86,127,32
1,83,127,32
1,84,127,64
1,79,127,13376
1,84,127,48
1,88,127,16
1,79,127,144
1,84,127,64
1,88,127,32
1,81,127,160
1,84,127,64
1,89,127,0
1,81,127,160
1,84,127,64
1,89,127,0
1,79,127,176
1,84,127,48
1,88,127,0
1,79,127,160
1,84,127,64
1,88,127,0
1,79,127,160
1,83,127,16
1,86,127,256
1,83,127,16
1,79,127,32
1,79,127,480
1,84,127,64
1,88,127,32
1,79,127,128
1,84,127,80
1,88,127,16
1,81,127,144
1,84,127,48
1,89,127,0
1,81,127,160
1,84,127,64
1,89,127,16
1,79,127,176
1,84,127,16
1,88,127,0
1,79,127,160
1,89,127,64
1,86,127,32
1,83,127,32
1,84,127,96
1,79,127,50368
1,84,127,32
1,88,127,0
1,79,127,160
1,84,127,48
1,88,127,16
1,79,127,192
1,84,127,64
1,89,127,384
1,81,127,176
1,84,127,32
1,89,127,0
1,79,127,176
1,84,127,16
1,88,127,16
1,79,127,160
1,84,127,16
1,88,127,0
1,79,127,160
1,83,127,16
1,86,127,256
1,83,127,16
1,79,127,16
1,79,127,320
1,84,127,64
1,88,127,16
1,79,127,176
1,84,127,48
1,88,127,16
1,81,127,176
1,84,127,16
1,89,127,384
1,81,127,176
1,84,127,48
1,89,127,384
1,79,127,176
1,84,127,16
1,88,127,0
1,79,127,144
1,89,127,16
1,86,126,0
1,83,127,32
1,84,127,32
1,79,127,13328
1,84,127,32
1,88,127,384
1,79,127,144
1,84,127,32
1,88,127,384
1,81,127,160
1,84,127,32
1,89,127,0
1,81,127,160
1,84,127,64
1,89,127,384
1,79,127,192
1,84,127,64
1,88,127,16
1,79,127,160
1,84,127,64
1,88,127,0
1,79,127,160
1,83,127,64
1,86,127,0
1,83,127,16
1,79,127,16
1,79,127,384
1,84,127,64
1,88,127,0
1,79,127,144
1,84,127,64
1,88,127,0
1,81,127,160
1,84,127,48
1,89,127,0
1,81,127,144
1,84,127,64
1,89,127,384
1,79,127,176
1,84,127,48
1,88,127,0
1,79,127,160
1,89,127,48
1,86,125,16
1,83,127,32
1,84,127,16
1,79,127,13584
1,84,127,64
1,88,127,16
1,79,127,144
1,84,127,32
1,88,127,0
1,81,127,160
1,84,127,64
1,89,127,0
1,81,127,192
1,84,127,48
1,89,127,384
1,79,127,176
1,84,127,48
1,88,127,0
1,79,127,176
1,84,127,64
1,88,127,16
1,79,127,160
1,83,127,64
1,86,127,0
1,83,127,16
1,79,127,32
1,79,127,336
1,84,127,48
1,88,121,16
1,79,127,160
1,84,127,64
1,88,127,16
1,81,127,160
1,84,127,64
1,89,127,0
1,81,127,192
1,84,127,64
1,89,127,0
1,79,127,176
1,84,127,32
1,88,127,16
1,79,127,192
1,89,127,16
1,86,127,16
1,83,125,16
1,84,127,16
1,79,127,928
1,84,127,64
1,88,127,0
1,79,127,192
1,89,127,48
1,86,124,16
1,83,124,32
1,84,125,32
1,79,127,864
1,84,126,32
1,88,127,16
1,79,127,160
1,89,127,48
1,86,127,16
1,83,126,32
1,84,127,32
2,55,109,25968
2,52,123,0
2,60,111,0
2,52,121,480
2,55,112,0
2,60,113,0
2,53,117,464
2,57,116,0
2,60,106,0
2,53,112,496
2,57,118,0
2,60,109,0
2,52,114,528
2,55,107,0
2,60,110,0
2,52,114,560
2,55,105,0
2,60,110,0
2,55,110,528
2,50,114,0
2,59,111,0
2,55,102,480
2,50,106,0
2,59,108,0
2,55,111,176
2,60,113,0
2,52,118,0
2,55,109,432
2,60,111,0
2,52,118,0
2,53,111,448
2,60,105,0
2,57,111,0
2,53,109,512
2,57,113,0
2,60,104,0
2,52,116,512
2,55,110,0
2,60,111,0
2,50,113,528
2,55,110,0
2,59,114,0
2,52,111,544
2,55,109,0
2,60,111,0
2,55,107,1264
2,52,114,0
2,60,110,0
2,52,113,576
2,55,106,0
2,60,110,0
2,53,109,592
2,57,116,0
2,60,103,0
2,53,107,576
2,57,113,0
2,60,103,0
2,55,102,576
2,52,107,0
2,60,109,0
2,55,104,544
2,52,109,0
2,60,105,0
2,55,103,560
2,50,105,0
2,59,109,0
2,55,106,528
2,50,102,0
2,59,106,0
2,52,116,544
2,55,113,0
2,60,110,0
2,55,109,576
2,52,113,0
2,60,109,0
2,53,109,592
2,57,113,0
2,60,103,0
2,53,110,592
2,57,114,0
2,60,104,0
2,55,104,640
2,60,110,0
2,52,111,0
2,55,110,560
2,50,108,0
2,59,114,0
2,52,109,544
2,55,109,0
2,60,109,0
2,52,116,1312
2,55,109,0
2,60,111,0
2,52,116,544
2,55,109,0
2,60,110,0
2,53,111,560
2,60,104,0
2,57,113,0
2,57,116,544
2,60,103,0
2,53,110,0
2,52,118,560
2,55,110,0
2,60,112,0
2,52,123,560
2,55,109,0
2,60,111,0
2,55,111,560
2,50,113,0
2,59,114,0
2,55,111,592
2,50,111,0
2,59,114,0
2,52,116,176
2,55,109,0
2,60,112,0
2,55,119,592
2,60,113,0
2,52,123,0
2,53,115,544
2,57,118,0
2,60,104,0
2,53,112,560
2,60,107,0
2,57,116,0
2,52,116,544
2,55,107,0
2,60,111,0
2,50,118,592
2,55,115,0
2,59,114,0
2,52,118,592
2,55,115,0
2,60,113,0
2,52,121,50448
2,55,117,0
2,60,115,0
2,52,118,560
2,55,112,0
2,60,112,0
2,53,117,512
2,57,121,0
2,60,111,0
2,53,111,608
2,60,106,0
2,57,111,0
2,52,118,576
2,55,113,0
2,60,112,0
2,52,116,608
2,55,115,0
2,60,110,0
2,55,119,560
2,50,116,0
2,59,121,0
2,50,104,576
2,55,107,0
2,59,108,0
2,52,121,272
2,55,115,0
2,60,113,0
2,55,111,592
2,60,109,0
2,52,111,0
2,57,116,528
2,60,105,0
2,53,113,0
2,60,112,544
2,53,115,0
2,57,121,0
2,52,116,576
2,55,111,0
2,60,110,0
2,50,111,576
2,55,117,0
2,59,118,0
2,55,115,560
2,52,116,0
2,60,110,0
2,60,112,1296
2,52,118,0
2,55,113,0
2,55,110,560
2,60,110,0
2,52,114,0
2,53,112,576
2,57,114,0
2,60,105,0
2,53,111,592
2,60,106,0
2,57,114,0
2,52,114,560
2,60,106,0
2,55,109,0
2,55,110,544
2,60,110,0
2,52,113,0
2,50,107,576
2,55,110,0
2,59,108,0
2,50,106,576
2,55,106,0
2,59,108,0
2,55,110,576
2,60,109,0
2,52,114,0
2,55,112,528
2,52,108,0
2,60,110,0
2,57,111,592
2,60,104,0
2,53,110,0
2,60,105,592
2,53,110,0
2,57,109,0
2,55,107,576
2,60,107,0
2,52,109,0
2,55,110,560
2,50,106,0
2,59,107,0
2,52,111,560
2,55,112,0
2,60,111,0
2,52,118,1344
2,55,115,0
2,60,112,0
2,52,114,544
2,55,113,0
2,60,111,0
2,60,110,528
2,53,106,0
2,57,118,0
2,53,104,592
2,57,109,0
2,60,103,0
2,55,113,560
2,52,118,0
2,60,111,0
2,52,111,576
2,55,110,0
2,60,112,0
2,50,108,576
2,55,109,0
2,59,111,0
2,55,112,592
2,50,113,0
2,59,114,0
2,55,111,560
2,52,114,0
2,60,110,0
2,52,123,592
2,55,115,0
2,60,113,0
2,57,121,560
2,53,115,0
2,60,107,0
2,53,117,560
2,60,106,0
2,57,113,0
2,52,114,544
2,55,109,0
2,60,111,0
2,59,118,592
2,50,111,0
2,55,117,0
2,60,107,592
2,52,111,0
2,55,102,0
2,55,113,13648
2,52,123,0
2,60,115,0
2,52,114,544
2,55,111,0
2,60,112,0
2,57,109,544
2,53,112,0
2,60,104,0
2,53,119,560
2,57,109,0
2,60,107,0
2,55,119,560
2,52,126,0
2,60,115,0
2,52,123,560
2,55,115,0
2,60,117,0
2,50,113,544
2,55,117,0
2,59,118,0
2,50,121,560
2,55,115,0
2,59,121,0
2,52,118,320
2,55,113,0
2,60,115,0
2,52,116,560
2,55,115,0
2,60,112,0
2,53,122,576
2,57,118,0
2,60,111,0
2,53,117,560
2,57,114,0
2,60,109,0
2,52,114,560
2,55,112,0
2,60,112,0
2,55,115,576
2,50,113,0
2,59,116,0
2,55,112,576
2,52,118,0
2,60,111,0
2,50,113,592
2,59,108,0
2,55,115,0
2,52,113,544
2,55,110,0
2,60,111,0
2,55,110,560
2,50,109,0
2,59,111,0
2,55,111,544
2,52,118,0
2,60,112,0
2,55,107,544
2,59,114,0
2,50,109,0
2,52,116,560
2,55,111,0
2,60,111,0
2,59,111,592
2,50,109,0
2,55,107,0
2,60,113,576
2,52,121,0
2,55,119,0
2,24,112,608
2,36,126,0
3,36,98,13808
3,40,95,272
3,41,94,192
3,41,102,208
3,40,86,16
3,38,98,16
3,43,94,96
3,43,94,144
3,40,106,32
3,36,102,16
3,31,102,32
3,31,106,240
3,33,83,0
3,35,88,128
3,36,102,80
3,36,87,224
3,40,98,16
3,40,86,192
3,41,102,48
3,41,112,192
3,40,93,32
3,38,95,0
3,36,98,112
3,36,98,176
3,31,102,144
3,33,90,256
3,35,95,32
3,36,112,96
3,35,93,32
3,33,111,48
3,31,102,48
3,36,102,0
3,36,94,240
3,40,88,48
3,40,86,176
3,41,106,16
3,41,98,176
3,40,85,32
3,38,95,16
3,43,91,96
3,43,94,400
3,40,95,16
3,36,98,112
3,31,98,96
3,31,106,256
3,31,98,224
3,33,111,48
3,35,81,16
3,36,112,32
3,36,94,208
3,40,95,128
3,40,83,192
3,41,98,32
3,41,102,224
3,40,90,32
3,38,98,128
3,36,98,112
3,36,98,160
3,31,94,160
3,33,86,0
3,35,86,32
3,36,112,64
3,36,102,176
3,35,88,16
3,33,95,48
3,31,102,80
3,36,98,48
3,36,91,208
3,40,90,32
3,40,86,192
3,41,91,32
3,41,94,192
3,40,85,32
3,38,88,16
3,43,89,96
3,43,91,192
3,40,93,32
3,36,106,16
3,31,91,80
3,31,102,256
3,33,95,384
3,35,83,112
3,36,89,64
3,36,85,208
3,40,90,0
3,40,85,176
3,41,98,32
3,41,98,176
3,40,83,32
3,38,90,32
3,36,98,128
3,36,91,176
3,31,94,128
3,33,76,256
3,35,83,32
3,36,89,64
3,36,102,176
3,35,90,32
3,33,95,112
3,31,102,144
3,36,98,32
3,36,102,240
3,40,85,32
3,40,86,208
3,41,102,64
3,41,106,192
3,40,86,48
3,38,95,16
3,43,98,96
3,43,102,160
3,40,102,16
3,36,102,16
3,31,91,64
3,31,94,240
3,33,93,384
3,35,88,16
3,36,85,64
3,36,81,208
3,40,88,16
3,40,83,176
3,41,94,32
3,41,106,176
3,40,85,16
3,38,98,0
3,36,94,128
3,36,94,144
3,31,98,80
3,33,76,0
3,35,83,64
3,36,102,48
3,36,119,208
3,35,93,48
3,33,106,176
3,31,94,224
3,36,89,176
3,43,102,10576
3,41,94,128
3,40,102,16
3,38,95,16
3,36,94,112
3,36,102,208
3,40,93,32
3,40,90,192
3,41,85,32
3,41,91,192
3,42,81,32
3,42,88,208
3,43,94,48
3,43,102,192
3,40,98,112
3,38,95,16
3,36,89,96
3,34,85,64
3,33,95,16
3,31,98,16
3,29,83,32
3,29,85,496
3,24,89,128
3,24,77,256
3,29,91,128
3,29,98,160
3,30,93,32
3,30,86,176
3,31,94,32
3,31,102,192
3,33,88,32
3,33,90,176
3,36,98,16
3,36,91,160
3,37,98,32
3,37,90,192
3,38,83,64
3,40,90,16
3,41,98,0
3,42,81,64
3,43,102,64
3,41,94,32
3,40,98,48
3,38,88,32
3,36,94,32
3,34,83,16
3,33,88,16
3,32,81,0
3,31,112,0
3,29,112,32
3,28,90,16
3,26,95,0
3,36,89,0
3,36,98,256
3,40,93,48
3,40,98,176
3,41,102,80
3,41,106,160
3,42,98,32
3,42,93,192
3,43,98,112
3,43,102,128
3,40,106,32
3,38,102,32
3,36,98,80
3,34,106,64
3,33,106,32
3,31,106,16
3,29,98,16
3,29,98,272
3,24,87,128
3,24,83,208
3,29,98,128
3,29,102,176
3,30,106,128
3,30,102,160
3,31,106,64
3,31,112,160
3,33,106,144
3,33,106,160
3,36,102,112
3,36,106,160
3,37,102,16
3,37,102,160
3,38,98,32
3,40,111,16
3,41,106,32
3,42,95,32
3,43,102,32
3,41,102,384
3,40,111,64
3,38,98,16
3,36,98,80
3,36,91,208
3,29,112,32
3,29,91,240
3,36,106,0
3,35,95,112
3,33,98,112
3,31,89,96
3,36,94,48
3,36,102,192
3,40,85,16
3,40,86,224
3,41,102,32
3,41,98,160
3,40,86,64
3,38,98,0
3,43,89,64
3,43,94,144
3,40,106,96
3,36,102,32
3,31,91,0
3,31,94,256
3,31,87,176
3,33,90,16
3,35,93,48
3,36,89,16
3,36,94,464
3,40,102,128
3,40,93,176
3,41,89,48
3,41,98,192
3,40,86,32
3,38,93,16
3,36,87,80
3,36,98,112
3,31,98,80
3,33,78,32
3,35,93,16
3,36,102,64
3,36,102,224
3,35,98,48
3,33,98,208
3,31,98,208
3,36,98,16
3,36,106,240
3,40,88,176
3,40,102,208
3,41,98,80
3,41,106,192
3,40,93,128
3,38,88,144
3,43,102,112
3,43,98,208
3,40,106,48
3,36,102,32
3,31,102,64
3,31,98,256
3,33,111,32
3,35,93,32
3,36,94,32
3,36,98,288
3,40,102,32
3,40,95,240
3,41,112,80
3,41,112,192
3,40,102,64
3,38,98,16
3,36,102,112
3,36,102,240
3,31,106,144
3,35,95,240
3,36,94,64
3,36,127,240
3,35,95,32
3,33,98,160
3,31,98,192
3,36,102,16
3,36,106,224
3,40,86,32
3,40,90,160
3,41,94,32
3,41,98,192
3,40,95,32
3,38,90,16
3,36,98,32
3,36,112,192
3,40,90,160
3,40,95,176
3,43,94,224
3,43,91,160
3,31,89,112
3,33,90,384
3,35,86,16
3,36,94,16
3,36,94,208
3,40,98,64
3,40,98,192
3,41,112,112
3,41,51,288
3,41,112,112
3,40,98,48
3,38,93,16
3,36,98,160
3,36,102,160
3,31,102,176
3,35,95,48
3,36,98,32
3,36,102,192
3,35,93,32
3,33,93,192
3,31,91,208
3,36,87,80
3,43,102,10416
3,41,91,128
3,40,93,48
