track,note,velocity,time
0,62,98,335
0,62,94,0
0,66,90,0
0,66,90,0
0,71,90,0
0,71,98,0
0,71,94,0
0,62,0,37
0,71,0,6
0,66,0,2
0,71,0,0
0,71,0,6
0,66,0,2
0,62,0,6
0,62,90,37
0,62,86,0
0,66,80,0
0,66,80,0
0,71,86,0
0,71,94,0
0,71,86,0
0,62,0,43
0,71,0,6
0,66,0,4
0,66,0,4
0,71,0,0
0,71,0,2
0,62,0,10
0,62,94,27
0,62,86,0
0,66,80,0
0,66,90,0
0,71,72,0
0,71,94,0
0,71,90,0
0,71,0,129
0,66,0,20
0,62,0,4
0,66,0,0
0,71,0,24
0,62,0,10
0,59,86,5
0,59,94,0
0,62,72,0
0,66,76,0
0,66,90,0
0,66,90,0
0,71,0,3
0,66,0,66
0,66,0,2
0,62,0,2
0,59,0,10
0,66,0,4
0,59,0,6
0,62,80,3
0,62,90,0
0,66,72,0
0,66,94,0
0,69,76,0
0,69,98,0
0,69,90,0
0,66,0,627
0,69,0,4
0,62,0,6
0,66,0,4
0,69,0,6
0,69,0,8
0,62,0,10
0,59,76,7
0,59,102,0
0,62,76,0
0,66,72,0
0,66,86,0
0,66,94,0
0,62,0,75
0,66,0,8
0,66,0,2
0,59,0,2
0,59,0,4
0,66,0,0
0,61,90,5
0,61,94,0
0,64,90,0
0,64,90,0
0,69,76,0
0,69,90,0
0,69,76,0
0,69,0,1351
0,61,0,14
0,61,0,188
0,64,0,4
0,69,0,0
0,64,0,26
0,69,0,0
0,62,86,241
0,62,86,0
0,66,72,0
0,66,94,0
0,66,90,0
0,71,76,0
0,71,94,0
0,71,90,0
0,66,0,43
0,71,0,0
0,66,0,2
0,62,0,2
0,71,0,8
0,66,0,4
0,62,0,2
0,71,0,0
0,62,80,35
0,62,64,0
0,66,72,0
0,66,86,0
0,66,80,0
0,71,86,0
0,71,90,0
0,71,86,0
0,62,0,47
0,66,0,0
0,66,0,2
0,71,0,0
0,62,0,6
0,71,0,0
0,66,0,2
0,71,0,12
0,62,90,27
0,62,72,0
0,66,90,0
0,66,94,0
0,66,86,0
0,71,90,0
0,71,90,0
0,71,76,0
0,66,0,145
0,66,0,14
0,62,0,2
0,62,0,4
0,66,0,0
0,71,0,2
0,62,76,25
0,62,90,0
0,66,90,0
0,66,86,0
0,69,90,0
0,69,86,0
0,69,94,0
0,71,0,21
0,71,0,14
0,62,0,20
0,62,0,2
0,66,0,2
0,69,0,0
0,69,0,4
0,66,0,6
0,69,0,2
0,57,86,25
0,57,86,0
0,61,62,0
0,61,98,0
0,61,60,0
0,66,62,0
0,66,94,0
0,66,72,0
0,57,0,763
0,57,0,0
0,61,0,0
0,61,0,0
0,66,0,0
0,66,0,0
0,61,0,18
0,66,0,0
0,60,102,275
0,60,76,0
0,64,72,0
0,64,94,0
0,64,90,0
0,69,76,0
0,69,94,0
0,69,90,0
0,60,0,41
0,69,0,0
0,69,0,0
0,60,0,2
0,64,0,0
0,64,0,2
0,69,0,2
0,64,0,4
0,60,98,45
0,60,80,0
0,64,64,0
0,64,86,0
0,64,90,0
0,69,80,0
0,69,94,0
0,69,94,0
0,60,0,37
0,64,0,8
0,69,0,0
0,60,0,6
0,64,0,0
0,69,0,2
0,69,0,4
0,64,0,6
0,60,102,33
0,60,86,0
0,64,72,0
0,64,94,0
0,64,86,0
0,69,90,0
0,69,94,0
0,69,90,0
0,64,0,153
0,60,0,4
0,69,0,0
0,69,0,2
0,60,0,8
0,64,0,4
0,69,0,6
0,59,108,15
0,59,76,0
0,64,62,0
0,64,80,0
0,67,90,0
0,67,94,0
0,67,86,0
0,64,0,29
0,64,0,30
0,67,0,12
0,59,0,4
0,67,0,0
0,59,0,14
0,64,0,0
0,67,0,0
0,64,94,7
0,64,76,0
0,67,72,0
0,67,90,0
0,67,90,0
0,71,90,0
0,71,94,0
0,71,94,0
0,67,0,815
0,71,0,2
0,64,0,2
0,67,0,8
0,71,0,2
0,64,0,2
0,67,0,8
0,71,0,4
0,62,62,213
0,62,86,0
0,62,72,0
0,66,58,0
0,66,72,0
0,66,94,0
0,71,68,0
0,71,90,0
0,71,56,0
0,71,0,29
0,66,0,12
0,66,0,2
0,71,0,2
0,66,0,2
0,71,0,0
0,62,0,2
0,62,0,4
0,62,0,10
0,62,60,33
0,62,76,0
0,62,72,0
0,66,76,0
0,66,86,0
0,66,72,0
0,71,68,0
0,71,90,0
0,71,86,0
0,66,0,43
0,71,0,0
0,62,0,2
0,66,0,0
0,71,0,0
0,71,0,6
0,66,0,2
0,62,0,2
0,62,0,0
0,62,72,41
0,62,76,0
0,62,72,0
0,66,86,0
0,66,80,0
0,66,76,0
0,71,80,0
0,71,90,0
0,71,76,0
0,66,0,147
0,66,0,4
0,71,0,2
0,62,0,2
0,66,0,0
0,71,0,0
0,71,0,4
0,62,0,10
0,62,72,23
0,62,80,0
0,66,46,0
0,66,80,0
0,66,76,0
0,69,90,0
0,69,90,0
0,69,80,0
0,71,52,0
0,71,0,9
0,62,0,50
0,66,0,0
0,62,0,2
0,66,0,0
0,69,0,0
0,66,0,8
0,69,0,0
0,62,0,2
0,69,0,4
0,57,80,21
0,57,94,0
0,61,68,0
0,61,94,0
0,61,72,0
0,66,56,0
0,66,90,0
0,66,72,0
0,57,0,437
0,61,0,2
0,57,0,4
0,61,0,4
0,61,0,0
0,66,0,0
0,66,0,2
0,66,0,10
0,57,72,21
0,57,76,0
0,61,72,0
0,61,90,0
0,61,72,0
0,66,76,0
0,66,94,0
0,66,86,0
0,61,0,127
0,57,0,8
0,61,0,0
0,66,0,14
0,61,0,16
0,66,0,0
0,66,0,2
0,57,0,8
0,61,90,17
0,61,90,0
0,64,62,0
0,64,72,0
0,64,86,0
0,66,94,0
0,69,60,0
0,69,76,0
0,69,72,0
0,61,0,55
0,61,0,2
0,69,0,8
0,64,0,2
0,64,0,0
0,69,0,0
0,69,0,0
0,64,0,4
0,66,0,22
0,61,72,3
0,61,68,0
0,64,68,0
0,64,86,0
0,64,76,0
0,69,64,0
0,69,80,0
0,69,76,0
0,64,0,77
0,61,0,1454
0,69,0,0
0,61,0,52
0,64,0,2
0,69,0,0
0,69,0,10
0,64,0,2
0,50,64,35
0,50,60,0
0,57,52,0
0,57,36,0
0,62,56,0
0,62,68,0
0,66,46,0
0,66,86,192
0,66,0,191
0,66,94,1
0,66,0,2
0,66,90,190
0,66,0,66
0,66,86,30
0,50,0,91
0,50,0,0
0,57,0,0
0,57,0,0
0,47,52,5
0,47,60,0
0,56,72,0
0,56,68,0
0,66,0,94
0,66,80,2
0,66,0,244
0,64,90,44
0,64,0,180
0,62,86,12
0,47,0,187
0,47,0,0
0,56,0,0
0,56,0,0
0,62,0,0
0,62,0,0
0,66,0,0
0,62,0,1
0,45,72,4
0,57,62,0
0,64,50,0
0,64,90,0
0,64,56,0
0,69,62,0
0,61,60,768
0,61,36,0
0,64,0,374
0,45,0,5
0,64,0,2
0,43,80,3
0,66,72,0
0,66,90,0
0,66,0,189
0,66,0,2
0,67,94,1
0,67,86,0
0,67,0,156
0,43,0,31
0,57,0,0
0,61,0,0
0,61,0,0
0,64,0,0
0,69,0,0
0,67,0,2
0,42,68,3
0,42,58,0
0,62,56,0
0,62,50,0
0,69,68,0
0,69,60,0
0,69,86,192
0,69,0,50
0,69,86,46
0,69,0,64
0,69,94,32
0,69,0,136
0,69,86,56
0,69,0,60
0,69,90,36
0,42,0,91
0,42,0,0
0,62,0,0
0,47,50,5
0,47,62,0
0,62,50,0
0,66,48,0
0,69,0,168
0,67,86,24
0,67,0,191
0,66,76,1
0,66,0,191
0,69,86,1
0,47,0,187
0,47,0,0
0,62,0,0
0,62,0,0
0,66,0,0
0,69,0,0
0,45,60,5
0,45,64,0
0,52,76,0
0,60,60,0
0,60,50,0
0,64,52,0
0,64,52,0
0,67,32,0
0,67,20,0
0,69,0,154
0,67,72,38
0,67,0,62
0,67,80,34
0,67,0,68
0,67,90,28
0,67,0,150
0,67,72,42
0,67,0,54
0,64,0,17
0,60,0,18
0,67,86,7
0,45,0,91
0,45,0,0
0,60,0,0
0,64,0,0
0,67,0,0
0,67,0,0
0,38,64,5
0,50,56,0
0,62,60,0
0,62,38,0
0,66,60,0
0,66,52,0
0,67,0,184
0,66,68,8
0,66,0,182
0,64,68,10
0,64,0,182
0,55,98,10
0,67,94,0
0,52,0,1
0,38,0,186
0,50,0,0
0,62,0,0
0,62,0,0
0,66,0,0
0,66,0,0
0,69,0,0
0,49,62,5
0,58,58,0
0,58,56,0
0,58,26,0
0,64,72,0
0,64,64,0
0,66,58,0
0,66,64,0
0,55,0,3
0,67,0,19
0,66,90,170
0,66,0,56
0,66,90,40
0,66,0,62
0,66,90,34
0,66,0,154
0,67,64,38
0,67,0,84
0,66,90,12
0,49,0,91
0,58,0,0
0,58,0,0
0,58,0,0
0,48,68,5
0,57,94,0
0,57,60,0
0,57,56,0
0,64,0,371
0,63,80,13
0,63,64,0
0,64,0,7
0,66,0,163
0,67,90,22
0,67,0,62
0,48,0,125
0,57,0,0
0,57,0,0
0,57,0,0
0,63,0,0
0,63,0,0
0,66,0,0
0,66,0,0
0,47,58,5
0,47,50,0
0,56,62,0
0,56,46,0
0,56,32,0
0,59,52,0
0,59,46,0
0,62,62,0
0,62,58,0
0,62,54,0
0,66,48,0
0,64,86,192
0,64,0,46
0,64,94,50
0,64,0,52
0,64,94,44
0,64,0,150
0,66,76,42
0,66,0,64
0,59,0,19
0,64,94,13
0,47,0,91
0,47,0,0
0,56,0,0
0,56,0,0
0,56,0,0
0,59,0,0
0,66,0,0
0,46,60,5
0,46,64,0
0,55,72,0
0,55,30,0
0,58,62,0
0,58,52,0
0,67,62,0
0,62,0,325
0,62,0,52
0,61,90,7
0,61,72,0
0,61,60,0
0,62,0,1
0,64,0,165
0,66,76,26
0,61,0,149
0,66,0,25
0,46,0,13
0,46,0,0
0,55,0,0
0,55,0,0
0,58,0,0
0,58,0,0
0,61,0,0
0,61,0,0
0,67,0,0
0,45,60,5
0,57,62,0
0,57,38,0
0,62,50,0
0,62,44,0
0,64,72,0
0,64,56,0
0,64,76,0
0,64,36,0
0,69,28,0
0,62,0,763
0,62,0,0
0,61,28,5
0,61,46,0
0,64,0,552
0,45,0,211
0,57,0,0
0,57,0,0
0,61,0,0
0,61,0,0
0,64,0,0
0,64,0,0
0,64,0,0
0,69,0,0
0,35,100,5
0,38,85,0
0,50,68,0
0,50,64,0
0,50,60,0
0,57,46,0
0,57,52,0
0,57,36,0
0,62,72,0
0,62,56,0
0,62,68,0
0,64,93,0
0,66,46,0
0,35,0,4
0,64,0,0
0,63,91,92
0,63,0,4
0,57,68,92
0,62,86,0
0,62,80,0
0,66,76,0
0,66,94,0
0,76,87,0
0,82,39,0
0,85,78,0
0,62,0,4
0,76,0,0
0,82,0,0
0,85,0,0
0,66,0,34
0,66,0,1
0,62,0,4
0,57,0,10
0,57,64,43
0,62,90,0
0,66,80,0
0,66,98,0
0,57,0,49
0,66,0,3
0,66,0,1
0,62,0,4
0,57,90,39
0,62,102,0
0,66,98,0
0,66,86,0
0,60,77,96
0,60,0,4
0,57,0,47
0,66,0,10
0,66,0,3
0,62,0,1
0,57,76,31
0,60,37,0
0,62,76,0
0,66,80,0
0,66,72,0
0,76,82,0
0,82,41,0
0,85,80,0
0,60,0,4
0,76,0,0
0,82,0,0
0,85,0,0
0,57,0,43
0,66,0,4
0,62,0,6
0,66,0,1
0,35,91,38
0,56,98,0
0,61,79,0
0,62,86,0
0,66,76,0
0,66,90,0
0,35,0,4
0,61,0,0
0,38,0,82
0,50,0,5
0,50,0,0
0,50,0,0
0,57,0,0
0,57,0,0
0,57,0,0
0,35,92,5
0,47,56,0
0,47,52,0
0,47,60,0
0,56,54,0
0,56,72,0
0,56,68,0
0,63,62,0
0,64,94,0
0,63,0,4
0,64,0,0
0,66,0,42
0,56,0,5
0,66,0,6
0,62,0,8
0,56,94,31
0,62,90,0
0,63,74,0
0,66,90,0
0,66,98,0
0,63,0,4
0,35,84,92
0,62,86,0
0,76,85,0
0,82,36,0
0,85,92,0
0,35,0,4
0,62,0,0
0,76,0,0
0,82,0,0
0,85,0,0
0,60,49,92
0,60,0,4
0,66,0,29
0,66,0,41
0,62,0,13
0,63,87,9
0,64,72,0
0,64,90,0
0,65,60,0
0,87,103,0
0,63,0,4
0,87,0,0
0,65,0,3
0,61,43,89
0,61,0,4
0,64,0,91
0,62,94,1
0,62,80,0
0,64,82,0
0,76,79,0
0,82,38,0
0,85,90,0
0,64,0,4
0,76,0,0
0,82,0,0
0,85,0,0
0,64,0,11
0,56,0,2
0,60,74,79
0,60,0,4
0,62,0,77
0,35,0,9
0,47,0,1
0,47,0,0
0,47,0,0
0,56,0,0
0,56,0,0
0,56,0,0
0,62,0,0
0,62,0,0
0,62,0,0
0,66,0,0
0,62,0,4
0,33,88,1
0,35,101,0
0,45,56,0
0,45,72,0
0,57,22,0
0,57,62,0
0,57,80,0
0,64,52,0
0,64,50,0
0,64,80,0
0,64,86,0
0,64,56,0
0,64,94,0
0,69,62,0
0,35,0,4
0,64,0,0
0,63,91,92
0,63,0,4
0,62,80,92
0,76,87,0
0,82,40,0
0,85,78,0
0,62,0,4
0,76,0,0
0,82,0,0
0,85,0,0
0,60,78,284
0,60,0,4
0,60,37,92
0,76,74,0
0,82,42,0
0,85,81,0
0,60,0,4
0,76,0,0
0,82,0,0
0,85,0,0
0,35,91,92
0,61,79,0
0,35,0,4
0,61,0,0
0,61,60,92
0,61,36,0
0,63,62,0
0,64,95,0
0,63,0,4
0,64,0,0
0,63,74,92
0,63,0,4
0,35,85,92
0,62,86,0
0,76,85,0
0,82,37,0
0,85,93,0
0,35,0,4
0,62,0,0
0,76,0,0
0,82,0,0
0,85,0,0
0,60,50,92
0,60,0,4
0,64,0,84
0,45,0,3
0,64,0,2
0,33,0,1
0,31,92,2
0,43,80,0
0,63,87,0
0,66,76,0
0,66,72,0
0,66,94,0
0,66,98,0
0,87,104,0
0,63,0,4
0,87,0,0
0,64,0,11
0,64,0,32
0,61,43,49
0,61,0,4
0,66,0,81
0,66,0,8
0,66,0,2
0,64,74,1
0,67,76,0
0,67,94,0
0,67,90,0
0,67,94,0
0,76,80,0
0,82,39,0
0,85,90,0
0,64,0,4
0,76,0,0
0,82,0,0
0,85,0,0
0,66,0,15
0,60,75,77
0,60,0,4
0,43,0,87
0,45,0,0
0,57,0,0
0,57,0,0
0,57,0,0
0,61,0,0
0,61,0,0
0,64,0,0
0,69,0,0
0,67,0,2
0,31,0,1
0,30,92,2
0,35,101,0
0,42,60,0
0,42,68,0
0,42,58,0
0,62,50,0
0,62,56,0
0,62,50,0
0,64,95,0
0,69,72,0
0,69,68,0
0,69,60,0
0,35,0,4
0,64,0,0
0,67,0,23
0,67,0,20
0,63,91,49
0,63,0,4
0,67,0,82
0,57,62,10
0,62,62,0
0,62,80,0
0,66,72,0
0,69,76,0
0,69,90,0
0,76,88,0
0,82,40,0
0,85,79,0
0,62,0,4
0,76,0,0
0,82,0,0
0,85,0,0
0,62,0,49
0,66,0,4
0,69,0,1
0,69,0,1
0,57,0,10
0,57,64,27
0,62,86,0
0,66,86,0
0,69,76,0
0,69,90,0
0,69,0,58
0,62,0,1
0,57,0,2
0,66,0,0
0,69,0,4
0,57,60,31
0,62,94,0
0,66,90,0
0,69,90,0
0,69,108,0
0,60,79,96
0,60,0,4
0,57,0,37
0,62,0,8
0,66,0,4
0,69,0,7
0,69,0,9
0,57,48,27
0,60,38,0
0,62,68,0
0,66,80,0
0,69,86,0
0,69,90,0
0,76,74,0
0,82,42,0
0,85,82,0
0,60,0,4
0,76,0,0
0,82,0,0
0,85,0,0
0,69,0,52
0,62,0,1
0,66,0,0
0,69,0,2
0,57,0,4
0,35,83,33
0,57,62,0
0,61,80,0
0,62,90,0
0,66,94,0
0,69,94,0
0,69,102,0
0,35,0,4
