track,note,velocity,time
0,70,119,177
0,70,0,23
0,70,119,38
0,70,0,23
0,70,119,73
0,70,0,23
0,70,119,73
0,70,0,23
0,70,124,73
0,70,0,23
0,70,119,73
0,70,0,23
0,70,124,73
0,70,0,23
0,61,119,35
0,68,127,8
0,61,0,10
0,70,124,20
0,70,0,4
0,68,0,3
0,63,124,5
0,46,124,1
0,53,122,1
0,58,124,0
0,67,122,0
0,74,87,0
0,63,0,12
0,58,0,10
0,53,0,0
0,46,0,24
0,61,109,5
0,67,0,1
0,74,0,0
0,46,102,1
0,74,76,3
0,65,111,0
0,61,0,13
0,65,0,9
0,74,0,0
0,46,0,3
0,63,114,4
0,58,122,2
0,46,122,0
0,42,126,0
0,65,121,1
0,55,120,0
0,74,86,1
0,63,0,17
0,42,0,4
0,58,0,2
0,55,0,0
0,46,0,31
0,65,0,4
0,74,0,0
0,46,102,2
0,61,104,1
0,70,89,0
0,62,124,0
0,61,0,14
0,46,0,12
0,70,0,2
0,62,0,0
0,74,102,2
0,65,127,0
0,46,124,2
0,58,124,1
0,53,122,0
0,63,114,2
0,63,0,17
0,58,0,13
0,53,0,0
0,46,0,2
0,46,102,1
0,46,0,25
0,58,118,3
0,46,124,0
0,49,118,0
0,42,126,0
0,65,0,1
0,74,0,0
0,58,0,22
0,42,0,0
0,46,0,34
0,49,0,2
0,62,127,3
0,50,102,0
0,46,102,0
0,61,109,3
0,61,0,13
0,46,0,11
0,50,0,0
0,62,0,4
0,65,127,4
0,53,122,0
0,46,124,0
0,58,124,0
0,63,119,3
0,63,0,19
0,53,0,9
0,58,0,0
0,65,0,14
0,46,0,9
0,65,124,7
0,46,102,0
0,61,114,3
0,61,0,18
0,46,0,6
0,58,122,7
0,46,122,0
0,42,124,0
0,55,120,1
0,42,0,22
0,58,0,1
0,55,0,0
0,65,0,27
0,46,0,5
0,65,126,6
0,46,102,0
0,63,119,2
0,63,0,18
0,65,0,4
0,46,0,3
0,46,120,5
0,53,120,1
0,58,120,0
0,61,119,1
0,67,127,0
0,61,0,1
0,58,0,3
0,53,0,0
0,67,0,21
0,46,0,3
0,46,102,6
0,68,127,1
0,46,0,26
0,58,118,7
0,46,118,0
0,55,120,0
0,42,126,0
0,42,0,3
0,55,0,0
0,58,0,1
0,46,0,2
0,68,0,1
0,46,102,2
0,46,0,1
0,67,127,0
0,72,102,2
0,61,119,3
0,53,124,1
0,41,124,1
0,48,122,0
0,61,0,6
0,53,0,4
0,48,0,0
0,41,0,24
0,67,0,10
0,72,0,2
0,63,114,0
0,65,127,0
0,41,102,0
0,72,96,3
0,65,0,12
0,63,0,2
0,72,0,0
0,41,0,10
0,65,127,6
0,41,122,0
0,61,114,1
0,53,122,0
0,42,126,0
0,50,120,1
0,72,100,1
0,61,0,16
0,42,0,5
0,53,0,1
0,65,0,29
0,41,0,3
0,72,0,0
0,50,0,2
0,62,126,3
0,41,110,1
0,48,110,0
0,63,114,1
0,69,91,0
0,63,0,16
0,62,0,10
0,41,0,2
0,69,0,0
0,69,102,3
0,65,127,0
0,41,120,1
0,53,120,1
0,61,119,1
0,61,0,17
0,53,0,12
0,48,0,3
0,41,0,3
0,41,102,3
0,48,102,0
0,48,0,14
0,41,0,0
0,53,118,7
0,41,118,0
0,50,120,0
0,42,126,0
0,65,0,1
0,69,0,2
0,53,0,12
0,42,0,0
0,41,0,32
0,50,0,3
0,48,112,4
0,41,112,0
0,61,119,1
0,62,127,3
0,61,0,11
0,48,0,4
0,41,0,8
0,62,0,1
0,41,124,7
0,48,122,1
0,53,124,0
0,65,127,1
0,63,114,1
0,63,0,17
0,53,0,11
0,48,0,0
0,65,0,13
0,41,0,12
0,41,102,5
0,65,126,1
0,61,119,2
0,61,0,16
0,41,0,8
0,41,122,6
0,53,122,1
0,42,124,0
0,50,120,1
0,42,0,22
0,53,0,1
0,50,0,0
0,65,0,26
0,41,0,6
0,63,114,5
0,65,127,1
0,41,102,0
0,63,0,16
0,65,0,4
0,41,0,1
0,41,120,1
0,61,119,1
0,48,120,0
0,67,127,1
0,53,120,0
0,61,0,2
0,53,0,1
0,48,0,0
0,41,0,23
0,67,0,2
0,68,127,1
0,41,102,3
0,41,0,27
0,53,118,7
0,41,118,0
0,50,120,0
0,42,124,0
0,42,0,4
0,53,0,2
0,50,0,0
0,68,0,5
0,41,0,4
0,61,119,4
0,41,102,0
0,68,127,1
0,61,0,6
0,68,0,11
0,41,0,0
0,67,124,5
0,63,114,2
0,46,124,0
0,74,89,1
0,58,124,0
0,53,122,1
0,63,0,20
0,58,0,9
0,53,0,1
0,46,0,9
0,67,0,10
0,74,0,1
0,65,111,9
0,46,102,0
0,74,76,1
0,61,114,1
0,74,0,15
0,65,0,0
0,61,0,1
0,46,0,8
0,65,127,3
0,74,102,2
0,58,122,3
0,42,119,0
0,63,114,1
0,46,122,0
0,55,120,0
0,63,0,20
0,42,0,2
0,58,0,1
0,55,0,0
0,65,0,25
0,74,0,2
0,46,0,5
0,46,102,6
0,62,121,1
0,70,86,1
0,61,114,1
0,61,0,14
0,62,0,8
0,70,0,2
0,46,0,0
0,65,127,5
0,46,124,1
0,53,122,1
0,58,124,0
0,74,102,1
0,63,109,3
0,63,0,21
0,53,0,7
0,58,0,0
0,65,0,17
0,74,0,1
0,46,0,6
0,65,127,5
0,61,114,1
0,46,102,0
0,74,102,1
0,61,0,17
0,46,0,9
0,46,124,7
0,49,118,0
0,58,118,0
0,42,126,0
0,65,0,2
0,74,0,1
0,42,0,20
0,58,0,2
0,46,0,31
0,49,0,2
0,63,114,3
0,46,102,1
0,50,102,0
0,62,127,2
0,62,0,17
0,63,0,0
0,50,0,8
0,46,0,0
0,65,127,6
0,61,114,1
0,46,124,1
0,53,122,1
0,58,124,0
0,61,0,17
0,53,0,13
0,58,0,0
0,65,0,13
0,46,0,10
0,63,109,6
0,46,102,0
0,65,124,1
0,63,0,15
0,65,0,2
0,46,0,10
0,65,127,7
0,42,124,0
0,58,122,1
0,46,122,0
0,55,120,1
0,61,114,1
0,61,0,15
0,42,0,5
0,55,0,1
0,58,0,0
0,65,0,11
0,46,0,5
0,46,102,0
0,67,127,1
0,63,119,2
0,63,0,2
0,46,0,5
0,46,120,6
0,58,120,1
0,53,120,0
0,53,0,31
0,58,0,0
0,67,0,15
0,46,0,10
0,61,124,4
0,46,102,2
0,65,127,3
0,61,0,14
0,46,0,10
0,55,120,7
0,46,118,0
0,58,118,0
0,42,124,0
0,42,0,23
0,55,0,0
0,58,0,1
0,65,0,6
0,46,0,27
0,65,126,2
0,46,102,3
0,65,0,21
0,46,0,2
0,63,124,4
0,41,124,1
0,48,122,0
0,53,124,0
0,68,127,2
0,72,92,0
0,63,0,2
0,72,0,2
0,68,0,1
0,61,114,7
0,77,73,0
0,69,108,0
0,53,0,1
0,41,0,3
0,48,0,1
0,61,0,12
0,77,0,8
0,69,0,0
0,63,119,9
0,68,127,2
0,72,100,0
0,63,0,17
0,72,0,37
0,68,0,0
0,61,119,6
0,69,97,0
0,77,62,0
0,61,0,16
0,77,0,4
0,69,0,1
0,65,127,0
0,69,98,0
0,63,114,2
0,63,0,3
0,65,0,32
0,69,0,1
0,62,127,4
0,65,102,0
0,65,0,17
0,62,0,0
0,64,102,21
0,60,127,0
0,60,0,59
0,64,0,0
0,61,119,36
0,55,127,2
0,48,127,0
0,64,127,1
0,52,122,0
0,58,122,0
0,36,123,1
0,55,122,0
0,72,105,0
0,60,122,1
0,64,122,1
0,38,110,0
0,76,107,0
0,79,112,0
0,38,0,1
0,52,0,3
0,55,0,1
0,58,0,0
0,64,0,1
0,60,0,0
0,48,0,2
0,55,0,0
0,61,0,1
0,64,0,8
0,72,0,0
0,79,0,1
0,76,0,1
0,36,0,3
0,48,127,6
0,55,127,0
0,52,125,0
0,63,114,1
0,58,125,0
0,55,125,0
0,64,127,1
0,60,125,0
0,36,116,1
0,64,125,0
0,38,110,1
0,38,0,1
0,72,109,0
0,79,112,1
0,76,116,0
0,52,0,5
0,58,0,1
0,55,0,1
0,60,0,1
0,64,0,0
0,48,0,1
0,55,0,0
0,63,0,4
0,76,0,15
0,72,0,1
0,79,0,0
0,36,0,5
0,64,0,9
0,41,127,1
0,48,127,0
0,53,127,1
0,72,107,0
0,61,124,1
0,65,127,0
0,57,127,0
0,77,123,0
0,41,127,1
0,60,127,0
0,65,127,0
0,81,127,0
0,38,110,1
0,38,0,1
0,57,0,3
0,53,0,0
0,60,0,1
0,41,0,1
0,48,0,0
0,65,0,1
0,61,0,8
0,77,0,21
0,72,0,0
0,81,0,3
0,41,0,2
0,65,0,1
0,63,119,2
0,41,127,1
0,38,100,1
0,38,0,1
0,68,127,0
0,96,111,6
0,95,91,5
0,63,0,5
0,96,0,1
0,93,97,2
0,95,0,4
0,91,107,0
0,93,0,4
0,45,80,0
0,45,0,1
0,89,104,1
0,38,110,1
0,38,0,2
0,91,0,1
0,88,109,1
0,89,0,2
0,86,109,2
0,88,0,4
0,84,109,0
0,86,0,2
0,83,104,0
0,84,0,2
0,81,104,1
0,83,0,3
0,79,102,2
0,81,0,2
0,77,84,1
0,79,0,5
0,76,93,0
0,77,0,3
0,74,92,1
0,76,0,2
0,72,82,1
0,74,0,2
0,72,0,1
0,71,79,0
0,71,0,1
0,41,0,3
0,68,0,3
0,65,105,1
0,62,112,1
0,58,110,0
0,46,122,1
0,53,122,0
0,53,127,0
0,58,127,1
0,62,127,0
0,61,119,1
0,34,125,0
0,65,127,0
0,67,122,1
0,35,110,0
0,35,0,1
0,74,87,0
0,49,67,0
0,49,0,1
0,53,0,2
0,58,0,1
0,62,0,1
0,46,0,0
0,53,0,0
0,65,0,1
0,61,0,7
0,34,0,26
0,63,114,16
0,53,112,1
0,46,112,0
0,67,0,1
0,74,0,0
0,53,112,0
0,34,117,1
0,65,112,0
0,58,112,0
0,62,112,0
0,65,111,1
0,74,76,1
0,46,53,0
0,53,0,2
0,62,0,1
0,58,0,0
0,82,120,0
0,65,0,2
0,77,122,0
0,46,0,1
0,53,0,0
0,70,116,0
0,46,0,4
0,34,0,4
0,63,0,0
0,65,0,8
0,74,0,0
0,70,0,0
0,77,0,1
0,82,0,2
0,46,125,2
0,55,125,0
0,53,125,0
0,58,125,1
0,62,125,0
0,61,119,1
0,34,112,0
0,65,125,1
0,65,121,1
0,74,86,0
0,38,110,0
0,46,93,0
0,38,0,1
0,53,0,7
0,58,0,1
0,46,0,0
0,62,0,1
0,55,0,0
0,65,0,1
0,61,0,4
0,46,0,0
0,34,0,27
0,65,0,5
0,74,0,0
0,63,114,1
0,53,119,0
0,58,119,1
0,70,89,1
0,62,124,0
0,62,119,0
0,34,117,1
0,65,119,0
0,46,51,0
0,53,0,5
0,76,120,0
0,82,118,0
0,58,0,1
0,70,116,0
0,65,0,1
0,62,0,0
0,46,0,1
0,63,0,1
0,34,0,5
0,62,0,9
0,70,0,0
0,34,104,2
0,46,122,0
0,53,122,0
0,65,127,1
0,53,125,0
0,35,111,0
0,74,102,1
0,58,125,0
0,46,91,0
0,35,0,1
0,61,124,0
0,62,125,0
0,65,125,1
0,77,118,0
0,76,0,4
0,53,0,2
0,58,0,2
0,62,0,1
0,53,0,0
0,65,0,1
0,46,0,0
0,61,0,5
0,46,0,2
0,34,0,2
0,70,0,3
0,53,103,3
0,58,103,1
0,62,103,0
0,34,112,1
0,65,103,0
0,46,52,1
0,53,0,1
0,58,0,1
0,70,102,0
0,62,0,1
0,82,0,1
0,65,0,0
0,77,0,1
0,46,0,5
0,34,0,6
0,55,125,9
0,46,125,0
0,58,125,0
0,53,125,0
0,62,125,1
0,74,0,1
0,65,0,0
0,34,103,0
0,65,125,0
0,38,113,1
0,46,92,0
0,38,0,1
0,73,112,0
0,76,112,0
0,46,0,4
0,55,0,1
0,53,0,3
0,58,0,1
0,62,0,0
0,65,0,1
0,46,0,6
0,70,0,2
0,34,0,3
0,46,112,12
0,53,112,0
0,61,119,1
0,53,117,0
0,58,117,0
0,62,127,1
0,62,117,0
0,34,110,1
0,65,117,0
0,46,53,1
0,73,0,2
0,77,112,0
0,74,112,0
0,53,0,1
0,76,0,0
0,58,0,1
0,62,0,1
0,53,0,1
0,46,0,0
0,65,0,0
0,46,0,6
0,74,0,1
0,61,0,0
0,77,0,0
0,34,0,1
0,62,0,7
0,53,125,7
0,46,125,0
0,58,125,1
0,53,125,0
0,62,125,1
0,34,104,1
0,65,125,0
0,63,114,1
0,65,127,0
0,35,114,0
0,35,0,1
0,46,93,0
0,53,0,7
0,46,0,0
0,53,0,1
0,58,0,0
0,62,0,1
0,65,0,2
0,46,0,4
0,63,0,2
0,34,0,22
0,65,0,5
0,46,119,4
0,53,119,0
0,53,108,0
0,58,108,0
0,34,114,1
0,65,124,0
0,62,108,0
0,65,108,0
0,61,124,1
0,46,51,0
0,53,0,1
0,82,114,0
0,58,0,1
0,62,0,1
0,77,120,0
0,65,0,1
0,70,116,0
0,46,0,1
0,53,0,0
0,46,0,2
0,77,0,1
0,34,0,0
0,70,0,1
0,61,0,0
0,82,0,1
0,46,127,9
0,55,127,0
0,53,125,0
0,58,125,0
0,34,106,1
0,62,125,0
0,65,125,1
0,38,113,1
0,46,91,0
0,38,0,1
0,55,0,8
0,46,0,1
0,53,0,1
0,58,0,1
0,62,0,1
0,65,0,1
0,46,0,2
0,34,0,24
0,65,0,5
0,65,126,3
0,53,114,1
0,58,114,1
0,63,109,1
0,62,114,0
0,34,114,1
0,65,114,0
0,46,53,1
0,76,118,4
0,70,116,1
0,53,0,1
0,82,116,0
0,62,0,1
0,58,0,0
0,65,0,1
0,46,0,3
0,34,0,4
0,63,0,2
0,65,0,3
0,46,122,1
0,53,122,1
0,53,125,0
0,62,125,1
0,58,125,0
0,34,110,1
0,77,114,0
0,65,125,1
0,67,127,1
0,35,112,0
0,46,94,0
0,35,0,1
0,76,0,0
0,61,119,0
0,53,0,5
0,53,0,2
0,58,0,0
0,62,0,1
0,46,0,0
0,65,0,1
0,46,0,2
0,61,0,3
0,70,0,16
0,34,0,1
0,67,0,2
0,53,117,0
0,58,117,1
0,68,127,1
0,62,117,0
0,34,114,1
0,65,117,0
0,46,51,1
0,53,0,2
0,58,0,2
0,62,0,1
0,82,0,0
0,65,0,1
0,70,106,0
0,77,0,3
0,46,0,1
0,34,0,4
0,46,123,4
0,55,123,0
0,58,125,1
0,53,125,0
0,62,125,1
0,34,110,1
0,65,125,0
0,38,111,1
0,46,93,0
0,38,0,1
0,79,120,1
0,75,120,0
0,55,0,3
0,46,0,0
0,53,0,1
0,58,0,1
0,62,0,1
0,65,0,1
0,46,0,4
0,75,0,3
0,34,0,3
0,79,0,4
0,68,0,1
0,53,125,1
0,58,125,1
0,62,125,0
0,65,125,1
0,38,104,1
0,46,50,1
0,77,120,0
0,74,118,1
0,53,0,3
0,58,0,1
0,62,0,1
0,65,0,1
0,46,0,5
0,58,0,1
0,65,0,1
0,62,0,1
0,74,0,1
0,70,0,1
0,38,0,1
0,77,0,3
0,67,127,1
0,65,90,1
0,57,109,1
0,61,119,1
0,60,109,0
0,48,127,0
0,41,127,1
0,53,127,0
0,72,102,1
0,57,127,0
0,41,114,1
0,60,127,0
0,65,127,0
0,35,111,0
0,35,0,1
0,46,91,0
0,53,0,2
0,57,0,1
0,41,0,0
0,48,0,0
0,60,0,1
0,65,0,0
0,61,0,1
0,46,0,1
0,41,0,19
0,63,109,22
0,67,0,1
0,48,111,1
0,41,111,0
0,53,111,0
0,65,127,1
0,57,111,0
0,72,0,1
0,41,111,0
0,65,111,0
0,60,111,0
0,72,96,2
0,46,52,0
0,77,106,0
0,53,0,3
0,57,0,1
0,60,0,1
0,41,0,0
0,48,0,0
0,65,0,1
0,65,0,6
0,63,0,1
0,46,0,0
0,41,0,1
0,72,0,0
0,77,0,1
0,41,125,2
0,61,114,1
0,50,125,0
0,53,127,0
0,57,127,1
0,65,127,1
0,60,127,0
