track,note,velocity,time
3,43,80,663
3,43,0,93
3,43,80,99
3,43,0,93
3,43,80,99
3,43,0,93
3,43,80,99
3,43,0,93
3,45,80,99
3,45,0,93
3,45,80,99
3,45,0,93
3,38,80,99
3,38,0,93
3,38,80,99
3,38,0,93
3,43,80,99
3,43,0,93
3,43,80,99
3,43,0,93
3,43,80,99
3,43,0,93
3,43,80,99
3,43,0,93
3,43,80,99
3,43,0,93
3,43,80,99
3,43,0,93
3,43,80,99
3,43,0,93
3,43,80,99
3,43,0,93
3,36,80,99
3,36,0,93
3,36,80,99
3,36,0,93
3,38,80,99
3,38,0,93
3,38,80,99
3,38,0,93
3,43,80,99
3,43,0,93
3,40,80,99
3,40,0,93
3,45,80,99
3,45,0,93
3,38,80,99
3,38,0,93
3,43,80,99
3,43,0,93
3,43,80,99
3,43,0,93
3,43,80,99
3,43,0,93
3,43,80,99
3,43,0,93
3,43,80,99
3,43,0,93
3,43,80,99
3,43,0,93
3,43,80,99
3,43,0,93
3,43,80,99
3,43,0,93
3,36,80,99
3,36,0,93
3,36,80,99
3,36,0,93
3,38,80,99
3,38,0,93
3,38,80,99
3,38,0,93
3,43,80,99
3,43,0,93
3,38,80,99
3,38,0,93
3,43,80,99
3,43,0,93
3,38,80,99
3,38,0,93
3,38,80,99
3,38,0,93
3,38,80,99
3,38,0,93
3,43,80,99
3,43,0,93
3,43,80,99
3,43,0,93
3,48,80,99
3,48,0,93
3,43,80,99
3,43,0,93
3,48,80,99
3,48,0,93
3,43,80,99
3,43,0,93
3,40,80,99
3,40,0,93
3,40,80,99
3,40,0,93
3,45,80,99
3,45,0,93
3,45,80,99
3,45,0,93
3,45,80,99
3,45,0,93
3,45,80,99
3,45,0,93
3,38,80,99
3,38,0,93
3,45,80,3
3,45,0,93
3,38,80,3
3,38,0,93
3,43,80,99
3,43,0,93
3,43,80,99
3,43,0,93
3,43,80,99
3,43,0,93
3,43,80,99
3,43,0,93
3,43,80,99
3,43,0,93
3,43,80,99
3,43,0,93
3,43,80,99
3,43,0,93
3,43,80,99
3,43,0,93
3,36,80,99
3,36,0,93
3,36,80,99
3,36,0,93
3,38,80,99
3,38,0,93
3,38,80,99
3,38,0,93
3,43,80,99
3,43,0,93
3,38,80,99
3,38,0,93
3,43,80,99
3,43,0,93
3,38,80,99
3,38,0,93
3,43,80,99
3,43,0,93
3,43,80,99
3,43,0,93
3,43,80,99
3,43,0,93
3,43,80,99
3,43,0,93
3,43,80,99
3,43,0,93
3,43,80,99
3,43,0,93
3,43,80,99
3,43,0,93
3,43,80,99
3,43,0,93
3,36,80,99
3,36,0,93
3,36,80,99
3,36,0,93
3,38,80,99
3,38,0,93
3,38,80,99
3,38,0,93
3,43,80,99
3,43,0,93
3,38,80,99
3,38,0,93
3,43,80,99
3,43,0,93
3,38,80,99
3,38,0,93
3,43,80,99
3,43,0,45
3,43,60,3
3,43,0,45
3,43,80,99
3,43,0,45
3,43,60,3
3,43,0,45
3,43,80,99
3,43,0,45
3,43,60,3
3,43,0,45
3,43,80,99
3,43,0,45
3,43,60,3
3,43,0,45
3,43,80,99
3,43,0,45
3,43,60,3
3,43,0,45
3,43,80,99
3,43,0,45
3,43,60,3
3,43,0,45
3,43,80,99
3,43,0,45
3,43,60,3
3,43,0,45
3,43,80,99
3,43,0,45
3,43,60,3
3,43,0,45
3,36,80,99
3,36,0,93
3,36,80,99
3,36,0,93
3,38,80,99
3,38,0,93
3,38,80,99
3,38,0,93
3,43,80,99
3,43,0,93
3,38,80,99
3,38,0,93
3,43,80,99
3,43,0,93
3,38,80,99
3,38,0,93
3,38,80,99
3,38,0,93
3,38,80,99
3,38,0,93
3,43,80,99
3,43,0,93
3,43,80,99
3,43,0,93
3,48,80,99
3,48,0,93
3,43,80,99
3,43,0,93
3,48,80,99
3,48,0,93
3,43,80,99
3,43,0,93
3,40,80,99
3,40,0,93
3,40,80,99
3,40,0,93
3,45,80,99
3,45,0,93
3,45,80,99
3,45,0,93
3,45,80,99
3,45,0,93
3,45,80,99
3,45,0,93
3,38,80,99
3,38,0,93
3,45,80,3
3,45,0,93
3,38,80,3
3,38,0,93
3,43,80,99
3,43,0,93
3,43,80,99
3,43,0,93
3,43,80,99
3,43,0,93
3,43,80,99
3,43,0,93
3,43,80,99
3,43,0,93
3,43,80,99
3,43,0,93
3,43,80,99
3,43,0,93
3,43,80,99
3,43,0,93
3,36,80,99
3,36,0,93
3,36,80,99
3,36,0,93
3,38,80,99
3,38,0,93
3,38,80,99
3,38,0,93
3,43,80,99
3,43,0,93
3,40,80,99
3,40,0,93
3,45,80,99
3,45,0,93
3,38,80,99
3,38,0,93
3,43,80,99
3,43,0,93
3,40,80,99
3,40,0,93
3,45,80,99
3,45,0,93
3,38,80,99
3,38,0,93
3,43,80,99
3,43,0,93
3,36,80,99
3,36,0,93
3,43,80,99
3,43,0,93
3,31,80,291
3,31,0,93
4,43,70,658
4,62,70,0
4,50,70,0
4,59,70,0
4,50,0,381
4,62,0,0
4,63,70,3
4,51,70,0
4,51,0,381
4,59,0,0
4,43,0,0
4,63,0,0
4,45,70,3
4,60,70,0
4,64,70,0
4,52,70,0
4,52,0,381
4,64,0,0
4,45,0,0
4,38,70,3
4,54,70,0
4,63,70,0
4,63,0,381
4,60,0,0
4,38,0,0
4,54,0,0
4,62,70,3
4,50,70,0
4,50,0,10
4,62,0,0
4,62,60,2
4,50,60,4
4,62,0,6
4,62,70,2
4,50,0,2
4,50,70,6
4,62,0,2
4,62,60,2
4,50,0,6
4,62,0,4
4,62,70,2
4,50,60,0
4,50,0,10
4,62,0,0
4,62,60,2
4,50,70,4
4,62,0,6
4,62,70,2
4,50,0,2
4,50,60,6
4,62,0,2
4,62,60,2
4,50,0,6
4,62,0,4
4,50,70,2
4,62,70,0
4,62,0,10
4,50,0,0
4,62,60,2
4,50,60,4
4,62,0,6
4,62,70,2
4,50,0,2
4,50,70,6
4,62,0,2
4,62,60,2
4,50,0,6
4,62,0,4
4,50,60,2
4,62,70,0
4,62,0,10
4,50,0,0
4,62,60,2
4,50,70,4
4,62,0,6
4,62,70,2
4,50,0,2
4,50,60,6
4,62,0,2
4,62,60,2
4,50,0,6
4,62,0,4
4,50,70,2
4,62,70,0
4,62,0,10
4,50,0,0
4,62,60,2
4,50,60,4
4,62,0,6
4,62,70,2
4,50,0,2
4,50,70,6
4,62,0,2
4,62,60,2
4,50,0,6
4,62,0,4
4,50,60,2
4,62,70,0
4,62,0,10
4,50,0,0
4,62,60,2
4,50,70,4
4,62,0,6
4,62,70,2
4,50,0,2
4,50,60,6
4,62,0,2
4,62,60,2
4,50,0,6
4,62,0,4
4,50,70,2
4,62,70,0
4,62,0,10
4,50,0,0
4,62,60,2
4,50,60,4
4,62,0,6
4,62,70,2
4,50,0,2
4,50,70,6
4,62,0,2
4,62,60,2
4,50,0,6
4,62,0,4
4,50,60,2
4,62,70,0
4,62,0,10
4,50,0,0
4,62,60,2
4,50,70,4
4,62,0,6
4,62,70,2
4,50,0,2
4,50,60,6
4,62,0,2
4,62,60,2
4,50,0,6
4,62,0,4
4,63,70,2
4,51,70,0
4,51,0,10
4,63,0,0
4,63,60,2
4,51,60,4
4,63,0,6
4,63,70,2
4,51,0,2
4,51,70,6
4,63,0,2
4,63,60,2
4,51,0,6
4,63,0,4
4,51,60,2
4,63,70,0
4,63,0,10
4,51,0,0
4,63,60,2
4,51,70,4
4,63,0,6
4,63,70,2
4,51,0,2
4,51,60,6
4,63,0,2
4,63,60,2
4,51,0,6
4,63,0,4
4,51,70,2
4,63,70,0
4,63,0,10
4,51,0,0
4,63,60,2
4,51,60,4
4,63,0,6
4,63,70,2
4,51,0,2
4,51,70,6
4,63,0,2
4,63,60,2
4,51,0,6
4,63,0,4
4,51,60,2
4,63,70,0
4,63,0,10
4,51,0,0
4,63,60,2
4,51,70,4
4,63,0,6
4,63,70,2
4,51,0,2
4,51,60,6
4,63,0,2
4,63,60,2
4,51,0,6
4,63,0,4
4,51,70,2
4,63,70,0
4,63,0,10
4,51,0,0
4,63,60,2
4,51,60,4
4,63,0,6
4,63,70,2
4,51,0,2
4,51,70,6
4,63,0,2
4,63,60,2
4,51,0,6
4,63,0,4
4,63,70,2
4,51,60,0
4,51,0,10
4,63,0,0
4,63,60,2
4,51,70,4
4,63,0,6
4,63,70,2
4,51,0,2
4,51,60,6
4,63,0,2
4,63,60,2
4,51,0,6
4,63,0,4
4,51,70,2
4,63,70,0
4,63,0,10
4,51,0,0
4,63,60,2
4,51,60,4
4,63,0,6
4,63,70,2
4,51,0,2
4,51,70,6
4,63,0,2
4,63,60,2
4,51,0,6
4,63,0,4
4,51,60,2
4,63,70,0
4,63,0,10
4,51,0,0
4,63,60,2
4,51,70,4
4,63,0,6
4,63,70,2
4,51,0,2
4,51,60,6
4,63,0,2
4,63,60,2
4,51,0,6
4,63,0,4
4,52,70,2
4,64,70,0
4,64,0,10
4,52,0,0
4,64,60,2
4,52,60,4
4,64,0,6
4,64,70,2
4,52,0,2
4,52,70,6
4,64,0,2
4,64,60,2
4,52,0,6
4,64,0,4
4,52,60,2
4,64,70,0
4,64,0,10
4,52,0,0
4,64,60,2
4,52,70,4
4,64,0,6
4,64,70,2
4,52,0,2
4,52,60,6
4,64,0,2
4,64,60,2
4,52,0,6
4,64,0,4
4,52,70,2
4,64,70,0
4,64,0,10
4,52,0,0
4,64,60,2
4,52,60,4
4,64,0,6
4,64,70,2
4,52,0,2
4,52,70,6
4,64,0,2
4,64,60,2
4,52,0,6
4,64,0,4
4,52,60,2
4,64,70,0
4,64,0,10
4,52,0,0
4,64,60,2
4,52,70,4
4,64,0,6
4,64,70,2
4,52,0,2
4,52,60,6
4,64,0,2
4,64,60,2
4,52,0,6
4,64,0,4
4,52,70,2
4,64,70,0
4,64,0,10
4,52,0,0
4,64,60,2
4,52,60,4
4,64,0,6
4,64,70,2
4,52,0,2
4,52,70,6
4,64,0,2
4,64,60,2
4,52,0,6
4,64,0,4
4,52,60,2
4,64,70,0
4,64,0,10
4,52,0,0
4,64,60,2
4,52,70,4
4,64,0,6
4,64,70,2
4,52,0,2
4,52,60,6
4,64,0,2
4,64,60,2
4,52,0,6
4,64,0,4
4,64,70,2
4,52,70,0
4,52,0,10
4,64,0,0
4,64,60,2
4,52,60,4
4,64,0,6
4,64,70,2
4,52,0,2
4,52,70,6
4,64,0,2
4,64,60,2
4,52,0,6
4,64,0,4
4,52,60,2
4,64,70,0
4,64,0,10
4,52,0,0
4,64,60,2
4,52,70,4
4,64,0,6
4,64,70,2
4,52,0,2
4,52,60,6
4,64,0,2
4,64,60,2
4,52,0,6
4,64,0,4
4,53,70,2
4,65,70,0
4,65,0,10
4,53,0,0
4,65,60,2
4,53,60,4
4,65,0,6
4,65,70,2
4,53,0,2
4,53,70,6
4,65,0,2
4,65,60,2
4,53,0,6
4,65,0,4
4,53,60,2
4,65,70,0
4,65,0,10
4,53,0,0
4,65,60,2
4,53,70,4
4,65,0,6
4,65,70,2
4,53,0,2
4,53,60,6
4,65,0,2
4,65,60,2
4,53,0,6
4,65,0,4
4,53,70,2
4,65,70,0
4,65,0,10
4,53,0,0
4,65,60,2
4,53,60,4
4,65,0,6
4,65,70,2
4,53,0,2
4,53,70,6
4,65,0,2
4,65,60,2
4,53,0,6
4,65,0,4
4,65,70,2
4,53,60,0
4,53,0,10
4,65,0,0
4,65,60,2
4,53,70,4
4,65,0,6
4,65,70,2
4,53,0,2
4,53,60,6
4,65,0,2
4,65,60,2
4,53,0,6
4,65,0,4
4,65,70,2
4,53,70,0
4,53,0,10
4,65,0,0
4,65,60,2
4,53,60,4
4,65,0,6
4,65,55,2
4,53,0,2
4,53,50,6
4,65,0,2
4,65,50,2
4,53,0,6
4,65,0,4
4,65,45,2
4,53,45,0
4,53,0,10
4,65,0,0
4,65,40,2
4,53,40,4
4,65,0,6
4,65,35,2
4,53,0,2
4,53,30,6
4,65,0,2
4,65,30,2
4,53,0,6
4,65,0,4
4,67,100,386
4,79,100,0
4,66,84,8
4,79,0,3
4,67,0,0
4,78,84,1
4,64,84,4
4,66,0,3
4,78,0,4
4,62,84,1
4,76,84,0
4,64,0,3
4,74,84,5
4,76,0,3
4,62,0,0
4,60,84,1
4,72,84,4
4,74,0,3
4,60,0,4
4,59,84,1
4,71,84,0
4,72,0,3
4,57,84,5
4,71,0,3
4,59,0,0
4,69,84,1
4,55,84,4
4,57,0,3
4,69,0,4
4,67,84,1
4,54,84,0
4,55,0,3
4,66,84,5
4,54,0,3
4,67,0,0
4,52,84,1
4,64,84,4
4,66,0,3
4,52,0,4
4,50,100,1
4,62,100,0
4,64,0,3
4,62,0,66
4,50,0,0
4,76,80,315
4,79,80,0
4,79,0,11
4,76,0,0
4,78,70,1
4,81,70,4
4,78,0,7
4,76,60,1
4,81,0,3
4,79,60,5
4,76,0,3
4,78,60,1
4,79,0,7
4,78,0,4
4,76,60,1
4,81,60,0
4,81,0,11
4,76,0,0
4,78,60,1
4,79,60,4
4,78,0,7
4,76,60,1
4,79,0,3
4,81,60,5
4,76,0,3
4,78,60,1
4,81,0,7
4,78,0,4
4,76,60,1
4,79,60,0
4,79,0,11
4,76,0,0
4,78,60,1
4,81,60,4
4,78,0,7
4,76,60,1
4,81,0,3
4,79,60,5
4,76,0,3
4,78,60,1
4,79,0,7
4,78,0,4
4,76,60,1
4,81,60,0
4,81,0,11
4,76,0,0
4,78,60,1
4,79,60,4
4,78,0,7
4,76,60,1
4,79,0,3
4,81,60,5
4,76,0,3
4,78,60,1
4,81,0,7
4,78,0,4
4,76,60,1
4,79,60,0
4,79,0,11
4,76,0,0
4,78,60,1
4,81,60,4
4,78,0,7
4,76,60,1
4,81,0,3
4,79,60,5
4,76,0,3
4,78,60,1
4,79,0,7
4,78,0,4
4,81,60,1
4,76,60,0
4,76,0,11
4,81,0,0
4,78,60,1
4,79,60,4
4,78,0,7
4,76,60,1
4,79,0,3
4,81,60,5
4,76,0,3
4,78,60,1
4,81,0,7
4,78,0,4
4,79,60,1
4,76,60,0
4,76,0,11
4,79,0,0
4,78,60,1
4,81,60,4
4,78,0,7
4,76,60,1
4,81,0,3
4,79,60,5
4,76,0,3
4,78,60,1
4,79,0,7
4,78,0,4
4,76,60,1
4,81,60,0
4,81,0,11
4,76,0,0
4,78,60,1
4,79,60,4
4,78,0,7
4,76,60,1
4,79,0,3
4,81,60,5
4,76,0,3
4,81,0,8
4,74,80,5
4,78,80,0
4,78,0,11
4,74,0,0
4,76,70,1
4,79,70,4
4,76,0,7
4,74,60,1
4,79,0,3
4,78,60,5
4,74,0,3
4,76,60,1
4,78,0,7
4,76,0,4
4,79,60,1
4,74,60,0
4,74,0,11
4,79,0,0
4,76,60,1
4,78,60,4
4,76,0,7
4,74,60,1
4,78,0,3
4,79,60,5
4,74,0,3
4,76,60,1
4,79,0,7
4,76,0,4
4,78,60,1
4,74,60,0
4,74,0,11
4,78,0,0
4,76,60,1
4,79,60,4
4,76,0,7
4,74,60,1
4,79,0,3
4,78,60,5
4,74,0,3
4,76,60,1
4,78,0,7
4,76,0,4
4,74,60,1
4,79,60,0
4,79,0,11
4,74,0,0
4,76,60,1
4,78,60,4
4,76,0,7
4,74,60,1
4,78,0,3
4,79,60,5
4,74,0,3
4,79,0,8
4,76,80,5
4,72,80,0
4,72,0,11
4,76,0,0
4,74,70,1
4,78,70,4
4,74,0,7
4,72,60,1
4,78,0,3
4,76,60,5
4,72,0,3
4,74,60,1
4,76,0,7
4,74,0,4
4,72,60,1
4,78,60,0
4,78,0,11
4,72,0,0
4,74,60,1
4,76,60,4
4,74,0,7
4,72,60,1
4,76,0,3
4,78,60,5
4,72,0,3
4,74,60,1
4,78,0,7
4,74,0,4
4,76,60,1
4,72,60,0
4,72,0,11
4,76,0,0
4,74,60,1
4,78,60,4
4,74,0,7
4,72,60,1
4,78,0,3
4,76,60,5
