track,note,velocity,time
1,40,90,1194
1,40,0,60
1,42,90,0
1,42,0,60
1,44,90,0
1,44,0,60
1,52,90,0
1,57,85,0
1,61,45,0
1,61,0,60
1,57,0,0
1,52,0,0
1,52,107,60
1,57,76,0
1,61,45,0
1,52,0,30
1,61,0,30
1,57,0,0
1,59,90,60
1,52,109,0
1,56,68,0
1,56,0,60
1,59,0,0
1,59,90,0
1,56,68,0
1,56,0,60
1,59,0,0
1,52,0,0
1,59,90,0
1,56,71,0
1,52,95,0
1,56,82,0
1,56,0,30
1,59,0,30
1,52,0,0
1,56,0,0
1,50,45,0
1,50,0,60
1,57,84,0
1,50,110,0
1,62,54,0
1,62,0,60
1,57,0,0
1,57,76,0
1,62,56,0
1,62,0,60
1,57,0,0
1,57,89,0
1,62,59,0
1,62,0,30
1,57,0,0
1,50,0,30
1,50,104,0
1,56,89,0
1,52,103,0
1,59,70,0
1,50,0,30
1,59,0,90
1,40,68,0
1,56,0,30
1,40,0,30
1,52,0,0
1,42,73,0
1,42,0,60
1,44,68,0
1,44,0,60
1,61,59,0
1,52,90,0
1,57,59,0
1,57,0,60
1,52,0,0
1,61,0,0
1,57,49,60
1,45,115,0
1,52,99,0
1,57,98,0
1,61,39,0
1,45,0,30
1,57,0,0
1,57,0,30
1,52,0,0
1,61,0,0
1,57,35,60
1,50,104,0
1,62,31,0
1,62,0,60
1,50,0,0
1,57,0,0
1,50,105,0
1,62,57,0
1,57,86,0
1,57,0,60
1,62,0,0
1,50,0,0
1,50,105,0
1,57,41,0
1,62,41,0
1,62,0,60
1,57,0,0
1,50,0,0
1,59,30,60
1,52,127,0
1,56,98,0
1,59,87,0
1,59,0,30
1,52,0,30
1,56,0,0
1,59,0,0
1,52,101,0
1,56,82,0
1,59,76,0
1,59,0,60
1,52,0,0
1,52,102,0
1,52,0,30
1,56,0,0
1,52,113,30
1,61,75,0
1,57,93,0
1,57,0,210
1,61,0,0
1,52,0,0
1,45,56,30
1,45,0,60
1,57,45,0
1,45,110,0
1,52,90,0
1,52,0,120
1,57,0,0
1,52,124,0
1,57,101,0
1,61,72,0
1,61,0,60
1,45,0,0
1,52,0,0
1,57,0,0
1,55,28,30
1,55,0,30
1,45,76,0
1,52,45,30
1,52,0,30
1,45,0,0
1,52,84,0
1,56,60,0
1,56,0,60
1,52,0,0
1,59,32,0
1,52,102,0
1,56,90,0
1,64,23,30
1,52,0,30
1,59,0,0
1,50,64,0
1,56,0,30
1,64,0,0
1,50,0,30
1,57,85,0
1,50,116,0
1,62,50,0
1,57,0,120
1,57,84,0
1,57,0,30
1,62,0,0
1,50,0,30
1,50,97,0
1,52,96,0
1,59,68,0
1,56,73,0
1,50,0,30
1,40,55,98
1,40,0,51
1,56,0,1
1,42,92,9
1,59,0,21
1,42,0,30
1,52,0,0
1,44,77,0
1,44,0,60
1,45,71,0
1,52,94,0
1,57,84,0
1,61,53,0
1,45,103,6
1,45,0,24
1,45,0,61
1,52,0,29
1,57,0,0
1,61,0,0
1,57,84,0
1,52,104,0
1,61,60,0
1,61,0,60
1,52,0,0
1,57,0,0
1,52,44,0
1,55,50,0
1,52,0,30
1,55,0,30
1,50,104,0
1,57,96,0
1,62,84,0
1,66,48,0
1,57,0,120
1,57,111,0
1,57,0,60
1,66,0,0
1,62,0,0
1,55,56,0
1,55,0,60
1,50,0,0
1,50,108,0
1,56,95,0
1,52,106,0
1,59,68,0
1,50,0,30
1,56,0,30
1,52,0,0
1,52,73,0
1,56,79,0
1,56,0,90
1,52,0,0
1,59,0,0
1,61,48,30
1,52,121,0
1,57,98,0
1,45,123,120
1,45,0,60
1,52,0,0
1,52,85,0
1,47,127,0
1,61,0,30
1,47,0,26
1,52,0,4
1,57,0,0
1,49,118,0
1,49,0,60
1,57,22,0
1,50,115,2
1,50,122,58
1,50,91,0
1,50,0,30
1,57,0,30
1,50,0,0
1,57,36,0
1,50,112,0
1,59,57,0
1,57,0,30
1,50,0,9
1,50,0,21
1,59,0,0
1,50,92,0
1,59,60,0
1,59,0,60
1,50,0,0
1,50,105,0
1,57,68,0
1,50,0,60
1,50,87,0
1,50,0,60
1,57,0,0
1,58,54,0
1,50,113,0
1,58,82,0
1,58,0,30
1,58,0,0
1,59,82,0
1,50,0,30
1,50,113,0
1,50,0,60
1,59,0,0
1,50,98,0
1,57,66,0
1,50,0,60
1,50,87,0
1,50,0,60
1,57,0,0
1,59,42,0
1,50,110,0
1,50,0,60
1,59,0,0
1,50,97,0
1,59,85,0
1,59,0,60
1,50,0,0
1,50,103,0
1,57,77,0
1,50,0,60
1,50,94,0
1,50,0,60
1,57,0,0
1,50,94,0
1,59,83,0
1,59,0,60
1,50,0,0
1,50,102,0
1,59,70,0
1,59,0,60
1,50,0,0
1,52,79,0
1,45,92,0
1,52,84,0
1,52,0,30
1,45,0,30
1,45,92,0
1,45,0,60
1,52,0,0
1,53,60,0
1,54,61,0
1,45,91,0
1,54,84,0
1,54,0,30
1,53,0,0
1,54,0,30
1,54,85,0
1,45,90,0
1,45,0,60
1,54,0,0
1,45,0,0
1,45,90,0
1,52,69,0
1,52,0,60
1,45,0,0
1,45,90,0
1,52,59,0
1,52,0,60
1,45,0,0
1,45,91,0
1,54,75,0
1,54,0,60
1,45,0,0
1,45,94,0
1,54,82,0
1,54,0,60
1,45,0,0
1,45,99,0
1,52,77,0
1,56,30,0
1,56,0,30
1,52,0,30
1,45,0,0
1,45,85,0
1,52,68,0
1,52,0,60
1,45,0,0
1,53,49,0
1,45,104,0
1,53,86,0
1,54,86,0
1,53,0,30
1,53,0,0
1,45,0,30
1,45,104,0
1,45,0,60
1,54,0,0
1,45,95,0
1,52,72,0
1,52,0,60
1,45,0,0
1,45,95,0
1,45,0,60
1,47,127,0
1,47,0,60
1,49,127,0
1,49,0,60
1,57,30,0
1,57,71,0
1,50,105,0
1,50,118,3
1,57,0,27
1,50,0,30
1,50,100,0
1,50,0,49
1,50,0,11
1,57,0,0
1,50,103,0
1,59,56,0
1,59,0,60
1,50,0,0
1,59,47,0
1,50,106,0
1,59,71,0
1,59,0,30
1,59,0,30
1,50,0,0
1,50,110,0
1,57,64,0
1,50,0,60
1,50,110,0
1,50,0,60
1,57,0,0
1,50,113,0
1,59,70,0
1,50,0,60
1,50,107,0
1,50,0,60
1,59,0,0
1,50,99,0
1,57,67,0
1,57,0,60
1,50,0,0
1,50,87,0
1,57,75,0
1,57,0,60
1,50,0,0
1,50,111,0
1,59,77,0
1,59,0,60
1,50,0,0
1,50,100,0
1,59,72,0
1,59,0,60
1,50,0,0
1,50,122,0
1,57,73,0
1,50,0,60
1,50,110,0
1,50,0,60
1,57,0,0
1,50,96,0
1,50,118,0
1,57,78,0
1,59,77,0
1,57,0,30
1,50,0,0
1,59,0,30
1,59,74,0
1,59,0,30
1,50,0,30
1,54,85,0
1,47,107,0
1,54,89,0
1,54,0,30
1,54,0,30
1,47,0,0
1,47,107,0
1,54,85,0
1,54,0,60
1,47,0,0
1,47,87,0
1,54,63,0
1,54,0,60
1,47,0,0
1,47,108,0
1,54,92,0
1,54,0,60
1,47,0,0
1,54,92,0
1,47,82,0
1,47,0,60
1,54,0,0
1,47,103,0
1,54,74,0
1,54,0,60
1,47,0,0
1,47,80,0
1,54,65,0
1,54,0,60
1,47,0,0
1,47,90,0
1,54,87,0
1,54,0,30
1,47,0,30
1,59,30,0
1,52,106,0
1,52,0,60
1,59,0,0
1,52,93,0
1,59,66,0
1,59,0,60
1,52,0,0
1,52,108,0
1,59,85,0
1,59,0,60
1,52,0,0
1,52,121,0
1,59,71,0
1,59,0,60
1,52,0,0
1,59,71,0
1,52,117,0
1,52,0,60
1,59,0,0
1,52,113,0
1,59,78,0
1,40,127,0
1,40,0,60
1,59,0,0
1,52,0,0
1,52,113,0
1,59,90,0
1,42,122,0
1,42,0,60
1,59,0,0
1,52,0,0
1,52,79,0
1,59,65,0
1,44,116,0
1,42,117,5
1,42,0,4
1,52,0,51
1,59,0,0
1,44,0,0
1,57,97,0
1,52,118,0
1,61,72,0
1,45,127,4
1,61,0,56
1,57,0,0
1,52,0,0
1,45,0,8
1,52,127,52
1,57,110,0
1,61,73,0
1,61,0,60
1,57,0,0
1,52,0,0
1,55,37,0
1,55,0,30
1,59,22,30
1,52,113,0
1,56,87,0
1,56,0,60
1,59,0,0
1,56,84,0
1,59,62,0
1,59,0,60
1,56,0,0
1,52,0,0
1,52,100,0
1,56,87,0
1,59,61,0
1,52,0,60
1,59,0,30
1,56,0,0
1,50,84,30
1,62,73,0
1,57,87,0
1,66,26,0
1,66,0,60
1,57,0,0
1,62,0,0
1,62,73,0
1,57,99,0
1,66,35,0
1,66,0,60
1,57,0,0
1,62,0,0
1,66,35,0
1,62,73,0
1,57,77,0
1,57,0,30
1,62,0,0
1,66,0,0
1,50,0,30
1,52,117,0
1,56,85,0
1,59,75,0
1,64,37,0
1,56,0,180
1,56,72,0
1,56,0,60
1,52,0,0
1,52,75,0
1,52,0,30
1,59,0,30
1,64,0,0
1,57,88,0
1,61,77,0
1,52,101,0
1,52,0,90
1,61,0,0
1,57,0,0
1,56,57,0
1,56,0,0
1,61,35,30
1,52,113,0
1,57,105,0
1,61,89,0
1,61,0,30
1,52,0,30
1,57,0,0
1,61,0,0
1,59,35,0
1,59,0,60
1,50,111,0
1,57,90,0
1,66,39,0
1,62,79,0
1,62,0,60
1,66,0,0
1,57,0,0
1,62,79,0
1,57,92,0
1,66,35,0
1,66,0,60
1,57,0,0
1,62,0,0
1,66,35,0
1,62,79,0
1,57,116,0
1,57,0,60
1,62,0,0
1,66,0,0
1,50,0,60
1,52,75,0
1,52,100,0
1,56,86,0
1,64,33,0
1,59,71,0
1,52,0,30
1,64,0,30
1,59,0,0
1,56,0,0
1,56,71,0
1,64,71,0
1,59,71,0
1,59,0,60
1,52,0,0
1,56,0,0
1,64,0,0
1,52,100,0
1,52,0,30
1,61,43,30
1,61,60,0
1,57,104,0
1,61,85,0
1,52,85,0
1,61,0,30
1,61,0,0
1,40,127,94
1,40,0,45
1,42,127,16
1,52,0,25
1,61,0,0
1,57,0,0
1,42,0,24
1,55,47,6
1,44,126,5
1,44,0,45
1,55,0,10
1,52,102,0
1,61,31,0
1,57,68,0
1,45,127,3
1,57,0,57
1,52,0,0
1,57,68,0
1,52,102,0
1,45,127,0
1,45,0,3
1,61,0,27
1,61,45,0
1,52,0,30
1,45,0,0
1,57,0,0
1,57,62,0
1,52,102,0
1,45,127,0
1,45,0,60
1,52,0,0
1,57,0,0
1,57,74,0
1,52,102,0
1,45,127,0
1,61,0,30
1,57,0,30
1,52,0,0
1,45,0,0
1,52,72,0
1,61,27,0
1,57,67,0
1,45,127,0
1,45,0,60
1,57,0,0
1,52,0,0
1,57,67,0
1,52,72,0
1,45,127,0
1,45,0,60
1,52,0,0
1,57,0,0
1,52,59,0
1,57,86,0
1,45,127,0
1,45,0,60
1,61,0,0
1,52,0,0
1,57,0,0
1,57,98,0
1,61,76,0
1,52,59,0
1,45,127,0
1,61,0,30
1,57,0,0
1,52,0,30
1,45,0,0
1,50,118,0
1,62,84,0
1,66,32,0
1,57,103,0
1,57,0,60
1,50,0,0
1,62,0,0
1,62,84,0
1,57,103,0
1,50,118,0
1,50,0,60
1,57,0,0
1,62,0,0
1,50,118,0
1,57,107,0
1,57,0,30
1,66,0,0
1,50,0,30
1,50,95,0
1,52,95,0
1,64,45,0
1,56,71,0
1,59,68,0
1,50,0,30
1,56,0,30
1,59,0,0
1,64,0,0
1,56,71,0
1,52,0,1
1,52,95,5
1,56,0,54
1,59,84,0
1,56,55,0
1,52,95,0
1,52,0,8
1,59,0,52
1,56,0,0
1,52,95,0
1,59,35,0
1,59,79,0
1,56,100,0
1,64,40,0
1,52,0,2
1,59,0,28
1,59,0,30
1,56,0,0
1,52,84,0
1,56,54,0
1,59,40,0
1,52,0,2
1,56,0,28
1,64,0,0
1,52,0,30
1,59,0,0
1,52,24,0
1,52,118,0
1,57,85,0
1,61,52,0
1,52,0,30
1,52,0,30
1,57,0,0
1,61,0,0
1,52,68,0
1,57,68,0
1,61,68,0
1,61,0,60
1,57,0,0
1,52,0,0
1,52,100,0
1,57,104,0
1,61,79,0
1,61,0,60
1,57,0,0
1,52,0,0
1,50,51,0
1,55,54,0
1,55,0,60
1,50,0,0
1,50,97,0
1,57,97,0
1,62,82,0
1,66,50,0
1,66,0,60
1,50,0,0
1,57,0,0
1,66,50,0
1,57,97,0
1,50,97,0
1,62,81,0
1,62,0,60
1,57,0,0
1,62,0,0
1,66,0,0
1,50,0,0
1,62,81,0
1,50,97,0
1,57,115,0
1,66,50,0
1,66,0,60
1,62,0,0
1,50,0,0
1,57,0,0
1,62,49,0
1,62,0,30
1,47,118,30
1,56,80,0
1,59,71,0
1,52,118,0
1,64,31,0
1,52,0,60
1,59,0,0
1,47,0,0
1,56,0,0
1,47,118,0
1,52,118,0
1,56,62,0
1,59,54,0
1,64,0,30
1,56,0,30
1,47,0,0
1,52,0,0
1,59,0,0
1,47,118,0
1,52,118,0
1,52,0,60
1,47,0,0
1,45,118,0
1,61,31,0
1,61,46,0
1,57,105,0
1,52,92,0
1,61,0,30
1,45,0,30
1,45,118,0
1,45,0,60
1,52,0,0
1,57,0,0
1,45,118,0
1,52,105,0
1,57,105,0
1,45,0,60
1,61,0,0
1,45,118,0
1,45,0,60
1,52,0,0
1,57,0,0
1,50,112,60
1,57,112,0
1,57,0,60
1,50,0,0
1,50,112,0
1,57,112,0
1,57,0,60
1,50,0,0
1,57,57,0
1,50,112,0
1,50,0,60
1,57,0,0
1,57,57,0
1,50,112,0
1,50,0,60
1,57,0,0
1,50,97,0
1,57,77,0
1,57,0,60
1,50,0,0
1,57,112,0
1,50,87,0
1,50,0,60
1,57,0,0
1,57,112,0
1,50,114,0
1,50,0,60
1,57,0,0
1,57,112,0
1,50,105,0
1,50,0,60
1,57,0,0
1,50,105,0
1,57,78,0
1,57,0,60
1,50,0,0
1,50,103,0
1,57,78,0
1,57,0,60
1,50,0,0
1,50,107,0
1,57,73,0
1,57,0,60
1,50,0,0
1,57,73,0
1,50,91,0
1,50,0,60
1,57,0,0
1,50,103,0
1,57,66,0
1,50,0,60
1,50,104,0
1,50,0,60
1,57,0,0
1,50,103,0
1,57,77,0
1,57,0,0
1,59,77,0
1,50,0,60
1,50,97,0
1,50,0,60
1,59,0,0
1,45,93,0
1,52,61,0
1,52,0,60
1,45,0,0
1,45,92,0
1,52,59,0
1,52,0,60
1,45,0,0
1,54,44,0
1,45,90,0
1,54,76,0
1,54,0,30
1,54,0,30
1,45,0,0
1,45,87,0
1,54,59,0
1,54,0,60
1,45,0,0
1,45,84,0
1,57,50,0
1,52,79,0
1,45,0,60
1,45,90,0
1,45,0,60
1,52,0,0
1,57,0,0
1,45,107,0
1,52,90,0
1,57,33,0
1,54,90,0
1,57,0,30
1,52,0,0
1,45,0,30
1,45,87,0
1,45,0,60
1,54,0,0
1,45,98,0
1,52,77,0
1,45,0,60
1,45,84,0
1,57,23,0
1,57,0,60
1,45,0,0
1,52,0,0
1,45,107,0
1,52,87,0
1,58,31,0
1,54,87,0
1,58,0,30
1,52,0,0
1,45,0,30
1,54,0,0
1,45,105,0
1,54,70,0
1,54,0,60
1,45,0,0
1,45,90,0
1,52,75,0
1,45,0,60
1,45,78,0
1,45,0,60
1,45,91,0
1,54,57,0
1,52,0,30
1,54,0,30
1,45,0,0
1,54,73,0
1,54,0,60
1,50,108,0
1,57,66,0
1,50,0,60
1,50,97,0
1,57,0,30
1,50,0,30
1,50,106,0
1,59,66,0
1,50,0,60
1,50,106,0
1,50,0,60
1,59,0,0
1,50,90,0
1,57,48,0
1,50,0,60
1,50,88,0
1,50,90,0
1,50,0,30
1,50,0,30
1,57,0,0
1,50,110,0
1,59,56,0
1,59,0,60
1,50,0,0
1,59,64,0
1,50,96,0
1,50,0,60
1,59,0,0
