track,note,velocity,time
1,40,89,0
1,40,89,40
1,40,89,10
1,40,89,40
1,40,89,10
1,40,89,40
1,40,89,10
1,40,89,40
1,28,92,0
1,37,94,40
1,30,92,85
1,35,94,0
1,32,94,80
1,37,94,65
1,30,95,80
1,35,94,20
1,32,95,80
1,37,91,20
1,30,92,105
1,35,94,0
1,28,95,80
1,40,80,40
1,40,91,65
1,40,94,40
1,28,94,85
1,37,91,40
1,30,92,115
1,35,94,0
1,32,95,80
1,37,91,20
1,30,92,105
1,35,94,0
1,32,95,80
1,37,94,20
1,30,92,80
1,35,91,0
1,28,94,105
1,40,94,40
1,40,94,85
1,40,75,80
1,33,95,185
1,33,73,115
1,28,73,190
1,28,79,85
1,33,82,120
1,33,66,125
1,28,80,160
1,38,95,325
1,38,79,160
1,38,95,160
1,38,73,120
1,38,95,190
1,38,85,140
1,31,94,95
1,31,65,105
1,31,80,125
1,43,79,0
1,31,80,0
1,31,64,80
1,38,91,110
1,38,68,80
1,36,95,155
1,36,73,115
1,31,73,190
1,31,79,85
1,35,79,120
1,35,68,105
1,30,79,100
1,35,79,160
1,35,68,115
1,28,79,100
1,28,59,105
1,28,92,60
1,37,91,40
1,30,94,115
1,35,94,65
1,32,92,80
1,37,91,0
1,30,92,105
1,35,94,0
1,32,95,80
1,37,91,20
1,30,92,105
1,35,91,40
1,28,94,115
1,40,80,40
1,40,91,65
1,40,94,40
1,32,92,85
1,37,91,0
1,30,95,105
1,37,100,20
1,35,94,10
1,42,75,80
1,30,95,185
1,35,91,20
1,28,92,105
1,37,91,40
1,30,92,115
1,23,94,0
1,28,92,65
1,37,91,40
1,30,95,115
1,23,92,20
1,28,92,0
1,37,94,40
1,30,94,85
1,23,94,65
1,28,92,65
1,37,94,40
1,30,94,85
1,28,94,65
1,33,79,65
1,33,68,105
1,28,79,100
1,28,59,105
1,33,89,60
1,33,64,100
1,33,93,130
1,33,91,80
1,38,95,0
1,38,95,160
1,38,79,160
1,38,68,115
1,38,79,100
1,38,68,105
1,31,91,100
1,31,62,140
1,31,94,130
1,43,95,0
1,31,91,0
1,31,62,140
1,38,87,130
1,38,71,100
1,36,95,140
1,36,73,115
1,31,73,190
1,31,79,85
1,35,79,120
1,35,68,105
1,30,79,100
1,35,79,160
1,35,68,115
1,28,79,100
1,28,59,105
1,28,94,60
1,37,95,160
1,37,85,150
1,30,91,95
1,30,62,140
1,35,79,130
1,35,68,105
1,32,94,100
1,32,65,105
1,37,95,125
1,37,73,115
1,30,94,190
1,30,65,105
1,35,79,125
1,35,68,105
1,32,80,100
1,32,64,80
1,37,95,110
1,37,73,115
1,30,94,190
1,35,95,160
1,35,73,120
1,28,91,190
1,40,79,160
1,40,68,115
1,40,79,100
1,40,79,160
1,40,68,115
1,28,80,100
1,40,95,160
1,40,73,120
1,40,95,190
1,40,95,160
1,40,73,120
1,40,79,190
1,40,68,105
1,28,94,100
1,37,79,160
1,37,68,115
1,30,80,100
1,30,64,80
1,23,94,110
1,23,65,105
1,28,94,125
1,37,95,160
1,37,85,150
1,30,91,95
1,30,62,140
1,23,80,130
1,23,64,80
1,28,94,110
1,37,95,160
1,37,73,120
1,30,91,190
1,30,62,140
1,23,80,130
1,23,64,80
1,28,94,110
1,37,79,160
1,37,68,115
1,30,91,100
1,30,62,140
1,23,94,130
1,23,65,105
1,28,94,125
1,28,65,105
1,35,77,125
1,35,84,105
1,40,73,120
1,40,85,195
1,35,74,140
1,40,81,150
1,35,78,280
1,40,94,0
2,64,70,0
2,59,70,0
2,56,70,0
2,64,79,520
2,61,79,0
2,57,79,0
2,63,70,0
2,59,70,0
2,54,70,0
2,64,70,40
2,61,70,0
2,57,70,0
2,64,70,10
2,59,70,0
2,56,70,0
2,64,70,40
2,61,70,0
2,57,70,0
2,63,70,10
2,59,70,0
2,54,70,0
2,64,70,40
2,61,70,0
2,57,70,0
2,56,66,0
2,64,46,0
2,59,59,520
2,64,56,0
2,57,59,520
2,64,56,0
2,54,59,520
2,63,56,0
2,59,65,0
2,66,54,240
2,59,65,40
2,64,54,480
2,57,59,520
2,64,56,0
2,57,59,520
2,63,56,0
2,59,65,0
2,66,54,240
2,59,59,240
2,64,56,0
2,57,66,0
2,64,46,0
2,57,59,240
2,64,56,0
2,56,59,240
2,64,56,0
2,52,65,40
2,61,54,480
2,54,65,40
2,63,54,480
2,52,66,40
2,61,46,0
2,56,65,10
2,64,54,240
2,59,59,520
2,64,56,0
2,57,59,520
2,64,56,0
2,54,66,0
2,63,46,0
2,59,65,0
2,66,54,240
2,59,65,0
2,64,54,240
2,57,59,240
2,64,56,0
2,57,65,0
2,63,54,240
2,59,59,520
2,66,56,0
2,59,59,240
2,64,56,0
2,57,66,40
2,64,46,0
2,57,65,40
2,64,54,480
2,56,65,40
2,64,54,480
2,52,65,40
2,61,54,480
2,54,66,240
2,63,58,240
2,71,50,240
2,57,60,0
2,64,62,0
2,61,47,0
2,52,70,0
2,52,69,245
2,57,41,10
2,61,36,365
2,69,47,240
2,55,66,0
2,64,46,0
2,57,59,520
2,66,56,0
2,55,66,40
2,64,46,0
2,57,65,40
2,66,54,480
2,59,65,0
2,67,54,240
2,55,66,240
2,64,46,0
2,62,57,10
2,59,57,0
2,55,57,0
2,55,66,520
2,64,58,240
2,72,50,240
2,63,57,0
2,59,57,0
2,54,57,0
2,52,66,520
2,61,58,240
2,69,50,240
2,56,66,0
2,64,46,0
2,59,65,40
2,64,54,480
2,57,59,240
2,64,56,0
2,54,65,0
2,63,54,240
2,59,59,520
2,66,56,0
2,59,66,40
2,64,46,0
2,57,66,10
2,64,46,0
2,54,65,40
2,63,54,480
2,59,59,240
2,66,56,0
2,59,59,240
2,64,56,0
2,57,66,0
2,64,46,0
2,57,65,40
2,64,54,480
2,56,65,0
2,64,54,240
2,52,65,40
2,61,54,480
2,54,65,0
2,63,54,240
2,52,66,40
2,61,46,0
2,59,59,250
2,66,56,0
2,59,59,240
2,64,56,0
2,61,60,40
2,66,62,0
2,64,47,0
2,57,70,0
2,64,57,0
2,61,57,0
2,57,57,0
2,66,57,0
2,57,66,10
2,64,46,0
2,57,59,240
2,63,56,0
2,56,65,0
2,64,54,240
2,59,59,520
2,64,56,0
2,57,66,0
2,64,46,0
2,57,65,0
2,64,54,240
2,56,66,0
2,64,46,0
2,59,65,40
2,64,54,480
2,57,66,0
2,64,46,0
2,57,59,520
2,64,56,0
2,56,65,0
2,64,54,240
2,59,65,40
2,64,54,480
2,57,65,0
2,64,54,240
2,57,65,0
2,64,54,240
2,56,59,240
2,64,56,0
2,59,59,520
2,64,56,0
2,57,66,0
2,64,46,0
2,56,66,0
2,62,46,0
2,52,66,240
2,61,58,240
2,69,50,240
2,64,42,2160
2,55,59,240
2,64,56,0
2,57,66,40
2,66,46,0
2,55,66,40
2,64,46,0
2,57,59,250
2,66,56,0
2,59,66,40
2,67,46,0
2,59,65,40
2,55,59,520
2,64,56,0
2,59,66,240
2,67,58,240
2,74,50,240
2,67,62,0
2,60,83,0
2,48,61,0
2,64,49,0
2,66,62,40
2,59,83,0
2,47,61,0
2,63,49,0
2,64,57,40
2,61,57,0
2,57,57,0
2,56,66,10
2,64,46,0
2,59,65,40
2,64,54,480
2,57,66,40
2,64,46,0
2,54,66,10
2,63,46,0
2,59,59,520
2,66,56,0
2,59,59,520
2,64,56,0
2,57,65,0
2,64,54,240
2,54,59,520
2,63,56,0
2,59,65,40
2,66,54,480
2,59,59,520
2,64,56,0
2,57,59,520
2,64,56,0
2,57,59,520
2,64,56,0
2,56,65,0
2,64,54,240
2,52,59,520
2,61,56,0
2,54,66,40
2,63,46,0
2,52,65,40
2,61,54,480
2,56,66,40
2,64,46,0
2,52,59,520
2,61,56,0
2,54,66,0
2,63,46,0
2,52,65,40
2,61,54,480
2,52,65,0
2,61,54,240
2,56,59,240
2,64,56,0
2,59,59,520
2,64,56,0
2,57,65,0
2,64,54,240
2,57,65,0
2,64,54,240
2,56,59,240
2,64,56,0
2,59,66,40
2,64,46,0
2,57,59,250
2,64,56,0
2,57,66,40
2,64,46,0
2,56,65,40
2,64,54,480
2,59,59,520
2,64,56,0
2,57,66,0
2,64,46,0
2,57,66,0
2,64,46,0
2,56,59,520
2,64,56,0
2,59,65,40
2,64,54,480
2,57,59,520
2,64,56,0
2,57,59,240
2,64,56,0
2,68,62,0
2,59,83,0
2,40,61,0
2,64,49,0
2,68,51,60
2,71,60,0
2,64,56,5
2,71,64,105
2,66,83,0
2,68,68,10
2,66,57,135
2,64,68,50
3,71,127,7179
3,71,127,100
3,68,127,50
3,64,127,290
3,73,127,240
3,73,127,50
3,73,127,50
3,73,127,50
3,75,127,50
3,73,127,100
3,71,127,100
3,68,127,100
3,64,127,50
3,68,127,50
3,69,127,100
3,69,127,50
3,71,127,50
3,69,127,100
3,68,127,50
3,66,127,100
3,71,127,145
3,68,127,100
3,64,127,100
3,68,127,100
3,69,127,340
3,69,127,50
3,71,127,50
3,69,127,100
3,68,127,50
3,66,127,240
3,64,127,50
3,71,127,1825
3,71,127,100
3,68,127,50
3,64,127,290
3,73,127,240
3,73,127,50
3,73,127,50
3,73,127,50
3,75,127,50
3,73,127,100
3,71,127,100
3,68,127,100
3,64,127,50
3,68,127,50
3,69,127,100
3,69,127,50
3,71,127,50
3,69,127,100
3,68,127,50
3,66,127,100
3,71,127,145
3,68,127,100
3,64,127,100
3,68,127,100
3,69,127,340
3,69,127,50
3,71,127,50
3,69,127,100
3,68,127,50
3,66,127,240
3,64,127,50
3,73,127,1825
3,73,127,100
3,73,127,50
3,73,127,50
3,73,127,50
3,73,127,240
3,73,127,50
3,73,127,50
3,73,127,50
3,71,127,100
3,69,127,50
3,69,127,50
3,72,127,50
3,74,127,50
3,74,127,50
3,74,127,50
3,74,127,195
3,71,127,100
3,74,127,50
3,74,127,50
3,76,127,50
3,74,127,100
3,67,127,100
3,69,127,100
3,67,127,240
3,67,127,625
3,67,127,50
3,67,127,50
3,67,127,50
3,71,127,50
3,72,127,50
3,74,127,50
3,72,127,50
3,72,127,530
3,74,127,100
3,72,127,100
3,71,127,100
3,76,127,2595
3,71,127,100
3,68,127,50
3,64,127,100
3,73,127,240
3,73,127,50
3,73,127,50
3,73,127,50
3,75,127,50
3,73,127,100
3,71,127,100
3,68,127,100
3,64,127,50
3,68,127,50
3,69,127,100
3,69,127,50
3,71,127,50
3,69,127,100
3,68,127,50
3,66,127,100
3,71,127,145
3,68,127,100
3,64,127,100
3,68,127,100
3,69,127,340
3,69,127,50
3,71,127,50
3,69,127,100
3,68,127,50
3,66,127,50
3,64,127,50
3,73,127,26305
3,73,127,50
3,73,127,50
3,73,127,50
3,73,127,240
3,73,127,50
3,73,127,50
3,73,127,50
3,71,127,100
3,69,127,50
3,69,127,50
3,72,127,50
3,74,127,50
3,74,127,50
3,74,127,50
3,74,127,195
3,71,127,100
3,74,127,50
3,74,127,50
3,76,127,50
3,74,127,100
3,67,127,100
3,69,127,100
3,67,127,240
3,67,127,625
3,67,127,50
3,67,127,50
3,67,127,50
3,71,127,50
3,72,127,50
3,74,127,50
3,72,127,50
3,72,127,530
3,74,127,100
3,72,127,100
3,71,127,100
3,76,127,2595
3,71,127,100
3,68,127,50
3,64,127,100
3,73,127,240
3,73,127,50
3,73,127,50
3,73,127,50
3,75,127,50
3,73,127,100
3,71,127,100
3,68,127,100
3,64,127,50
3,68,127,50
3,69,127,100
3,69,127,50
3,71,127,50
3,69,127,100
3,68,127,50
3,66,127,100
3,71,127,145
3,68,127,100
3,64,127,100
3,68,127,100
3,69,127,340
3,69,127,50
3,71,127,50
3,69,127,100
3,68,127,50
3,66,127,50
3,64,127,50
4,76,35,30720
4,85,26,480
4,88,30,240
4,79,40,5
4,88,20,0
4,81,40,40
4,90,20,0
4,79,40,40
4,88,20,0
4,81,40,10
4,90,20,0
4,83,40,0
4,91,20,0
4,83,40,0
4,91,20,0
4,79,40,0
4,88,20,0
4,95,18,0
4,91,28,0
4,86,45,960
4,88,39,0
4,79,21,0
4,78,36,0
4,87,35,0
4,83,19,25
4,85,39,40
4,76,21,0
4,76,33,38410
4,85,23,0
4,81,34,10
4,79,40,100
4,88,20,0
4,81,40,40
4,90,20,0
4,79,40,40
4,88,20,0
4,81,40,10
4,90,20,0
4,83,40,0
4,91,20,0
4,83,40,0
4,91,20,0
4,79,40,0
4,88,20,0
4,91,39,0
4,83,21,0
4,88,39,0
4,79,21,0
4,78,36,0
4,87,35,0
4,83,19,25
4,85,39,40
4,76,21,0
4,80,40,10
4,88,20,0
4,83,40,40
4,88,20,0
4,81,40,10
4,88,20,0
4,78,40,0
4,87,20,0
4,83,40,0
4,90,20,0
4,83,40,0
4,88,20,0
4,81,40,0
4,88,20,0
4,78,40,0
4,87,20,0
4,83,40,0
4,90,20,0
4,83,40,0
4,88,20,0
4,81,40,0
4,88,20,0
4,81,40,40
4,88,20,0
4,80,40,10
4,88,20,0
4,76,40,40
4,85,20,0
4,78,40,10
4,87,20,0
4,76,40,40
4,85,20,0
4,80,40,10
4,88,20,0
4,76,40,40
4,85,20,0
4,78,40,10
4,87,20,0
4,76,40,40
4,85,20,0
4,76,40,10
4,85,20,0
4,80,40,0
4,88,20,0
4,83,40,40
4,88,20,0
4,81,40,10
4,88,20,0
4,90,27,0
4,81,20,0
4,88,44,800
4,80,40,0
4,88,20,0
4,83,40,40
4,88,20,0
4,81,40,10
4,88,20,0
4,81,40,0
4,88,20,0
4,80,40,0
4,88,20,0
4,92,27,40
4,83,20,0
4,88,44,1040
4,81,40,0
4,88,20,0
4,81,40,0
4,88,20,0
4,80,40,0
4,88,20,0
4,92,27,40
4,83,20,0
4,88,44,1040
4,81,40,0
4,88,20,0
4,81,40,0
4,88,20,0
4,88,39,0
4,80,21,0
4,80,39,5
4,88,22,20
5,52,84,3
5,59,30,249
5,64,48,230
5,52,70,40
5,49,60,480
5,61,58,240
5,57,57,0
5,52,64,200
5,52,84,20
5,54,30,250
5,59,48,230
5,52,66,40
5,57,66,5
5,52,68,240
5,52,84,20
5,59,30,250
5,64,48,230
5,52,70,40
5,49,60,480
5,61,58,240
5,57,57,0
5,52,64,200
5,52,82,0
5,54,60,240
5,59,62,240
5,52,66,40
5,57,66,5
5,52,68,240
5,52,74,0
5,59,93,0
5,40,63,0
5,52,74,40
5,59,93,0
5,49,63,0
5,52,74,40
5,57,93,0
5,42,63,0
5,54,51,960
5,59,89,65
5,54,65,0
5,51,57,0
5,47,62,0
5,63,75,480
5,59,89,40
5,56,65,0
5,54,57,0
5,44,62,0
5,63,75,720
5,52,74,0
5,59,93,0
5,49,63,0
5,52,74,40
5,57,93,0
5,42,63,0
5,54,51,960
5,57,89,65
5,54,65,0
5,51,57,0
5,47,62,0
5,59,75,480
5,54,74,0
5,59,93,0
5,44,63,0
5,56,51,720
5,52,74,60
5,59,93,0
5,49,63,0
5,56,51,720
5,52,74,60
5,57,93,0
5,42,63,0
5,54,51,720
5,52,74,60
5,57,93,0
5,47,63,0
5,54,51,720
5,59,89,60
5,56,65,0
5,52,57,0
5,40,62,0
5,64,75,480
5,49,74,40
5,57,93,0
5,52,63,0
5,59,89,65
5,54,65,0
5,51,57,0
5,52,62,0
5,63,75,480
5,49,74,40
5,57,93,0
5,52,63,0
5,59,89,65
5,56,65,0
5,52,57,0
5,40,62,0
5,64,75,480
5,52,74,40
5,59,93,0
5,49,63,0
5,56,51,960
5,52,74,65
5,57,93,0
5,42,63,0
5,54,51,720
5,51,74,60
5,59,93,0
5,47,63,0
5,54,51,720
5,54,74,60
5,59,93,0
5,44,63,0
5,61,80,40
5,59,77,0
5,52,72,480
5,56,71,175
5,52,74,0
5,57,93,0
5,42,63,0
5,59,80,40
5,57,77,0
5,51,72,480
5,54,71,175
5,63,80,0
5,59,77,0
5,54,72,240
5,56,71,165
5,52,74,40
5,59,93,0
5,49,63,0
5,57,89,40
5,54,65,0
5,52,57,0
5,42,62,0
