track,note,velocity,time
0,68,127,0
0,46,124,4
0,53,122,4
0,58,124,0
0,67,122,4
0,74,87,0
0,46,102,4
0,65,111,12
0,74,76,0
0,46,122,24
0,58,122,0
0,65,121,4
0,55,120,0
0,74,86,4
0,46,102,8
0,62,124,4
0,70,89,0
0,65,127,8
0,74,102,0
0,46,124,8
0,53,122,4
0,58,124,0
0,46,102,4
0,49,118,12
0,58,118,0
0,46,124,0
0,62,127,12
0,50,102,0
0,46,102,0
0,65,127,16
0,46,124,0
0,53,122,0
0,58,124,0
0,65,124,28
0,46,102,0
0,46,122,28
0,58,122,0
0,55,120,4
0,65,126,24
0,46,102,0
0,46,120,20
0,53,120,4
0,58,120,0
0,67,127,4
0,46,102,24
0,68,127,4
0,46,118,28
0,58,118,0
0,55,120,0
0,46,102,8
0,67,127,4
0,72,102,8
0,53,124,4
0,48,122,4
0,41,124,0
0,65,127,0
0,41,102,0
0,72,96,12
0,65,127,24
0,41,122,0
0,53,122,4
0,50,120,4
0,72,100,4
0,62,126,12
0,41,110,4
0,48,110,0
0,69,91,4
0,65,127,12
0,69,102,0
0,41,120,4
0,53,120,4
0,41,102,12
0,48,102,0
0,41,118,28
0,53,118,0
0,50,120,0
0,48,112,16
0,41,112,0
0,62,127,16
0,41,124,28
0,48,122,4
0,53,124,0
0,65,127,4
0,41,102,20
0,65,126,4
0,41,122,24
0,53,122,4
0,50,120,4
0,65,127,24
0,41,102,0
0,41,120,4
0,48,120,4
0,67,127,4
0,53,120,0
0,68,127,4
0,41,102,12
0,41,118,28
0,53,118,0
0,50,120,0
0,41,102,0
0,68,127,4
0,67,124,20
0,46,124,8
0,74,89,4
0,58,124,0
0,53,122,4
0,65,111,36
0,46,102,0
0,74,76,4
0,65,127,12
0,74,102,8
0,58,122,12
0,55,120,4
0,46,122,0
0,46,102,24
0,62,121,4
0,70,86,4
0,65,127,20
0,46,124,4
0,53,122,4
0,58,124,0
0,74,102,4
0,65,127,20
0,46,102,4
0,74,102,4
0,49,118,28
0,58,118,0
0,46,124,0
0,50,102,16
0,46,102,0
0,62,127,8
0,65,127,24
0,46,124,8
0,53,122,4
0,58,124,0
0,46,102,24
0,65,124,4
0,65,127,28
0,46,122,4
0,58,122,0
0,55,120,4
0,46,102,0
0,67,127,4
0,46,120,24
0,53,120,4
0,58,120,0
0,46,102,24
0,65,127,12
0,46,118,28
0,58,118,0
0,55,120,0
0,65,126,8
0,46,102,12
0,53,124,4
0,48,122,0
0,41,124,0
0,72,92,8
0,68,127,0
0,69,108,28
0,77,73,0
0,68,127,44
0,72,100,0
0,69,97,24
0,77,62,0
0,65,127,0
0,69,98,0
0,62,127,16
0,65,102,0
0,60,127,84
0,64,102,0
0,55,127,36
0,48,127,0
0,64,127,4
0,52,122,0
0,58,122,0
0,72,105,4
0,36,123,0
0,55,122,0
0,60,122,4
0,79,112,4
0,76,107,0
0,64,122,0
0,38,110,0
0,55,127,24
0,48,127,0
0,52,125,0
0,58,125,4
0,55,125,0
0,64,127,4
0,60,125,0
0,36,116,4
0,64,125,0
0,38,110,4
0,72,109,4
0,76,116,4
0,79,112,0
0,48,127,4
0,41,127,0
0,72,107,4
0,53,127,0
0,77,123,4
0,65,127,0
0,57,127,0
0,81,127,4
0,41,127,0
0,60,127,0
0,65,127,0
0,38,110,4
0,41,127,12
0,38,100,4
0,68,127,4
0,96,111,24
0,95,91,20
0,93,97,8
0,91,107,0
0,45,80,0
0,89,104,4
0,38,110,4
0,88,109,4
0,86,109,8
0,84,109,0
0,83,104,4
0,81,104,4
0,79,102,8
0,77,84,4
0,76,93,4
0,74,92,4
0,72,82,4
0,71,79,0
0,65,105,4
0,62,112,4
0,58,110,0
0,46,122,4
0,53,122,0
0,53,127,0
0,58,127,4
0,62,127,0
0,34,125,4
0,65,127,0
0,67,122,4
0,35,110,0
0,74,87,4
0,49,67,0
0,46,112,68
0,53,112,0
0,53,112,0
0,34,117,4
0,58,112,0
0,62,112,0
0,65,112,0
0,65,111,4
0,74,76,4
0,46,53,0
0,82,120,4
0,77,122,8
0,70,116,4
0,55,125,8
0,46,125,0
0,53,125,0
0,58,125,4
0,62,125,0
0,34,112,4
0,65,125,4
0,65,121,4
0,74,86,0
0,38,110,0
0,46,93,0
0,53,119,4
0,58,119,4
0,62,124,4
0,70,89,0
0,62,119,0
0,34,117,4
0,65,119,0
0,46,51,0
0,76,120,20
0,82,118,0
0,70,116,4
0,34,104,8
0,46,122,0
0,53,122,0
0,65,127,4
0,53,125,0
0,35,111,0
0,74,102,4
0,58,125,0
0,46,91,0
0,62,125,4
0,77,118,4
0,65,125,0
0,53,103,12
0,58,103,4
0,62,103,0
0,34,112,4
0,65,103,0
0,46,52,4
0,70,102,4
0,55,125,36
0,46,125,0
0,53,125,0
0,58,125,0
0,62,125,4
0,34,103,4
0,65,125,0
0,38,113,4
0,46,92,0
0,73,112,4
0,76,112,4
0,46,112,48
0,53,112,0
0,53,117,4
0,58,117,0
0,62,127,4
0,62,117,0
0,34,110,4
0,65,117,0
0,46,53,4
0,77,112,0
0,74,112,0
0,46,125,28
0,53,125,0
0,53,125,4
0,58,125,0
0,62,125,4
0,34,104,4
0,65,125,0
0,65,127,4
0,35,114,0
0,46,93,0
0,46,119,16
0,53,119,0
0,53,108,0
0,58,108,0
0,34,114,4
0,65,124,0
0,62,108,0
0,65,108,0
0,46,51,4
0,82,114,4
0,77,120,4
0,70,116,4
0,55,127,36
0,46,127,0
0,53,125,0
0,58,125,0
0,34,106,4
0,62,125,0
0,65,125,4
0,38,113,4
0,46,91,0
0,65,126,12
0,53,114,4
0,58,114,4
0,62,114,4
0,34,114,4
0,65,114,0
0,46,53,4
0,76,118,16
0,70,116,4
0,82,116,4
0,46,122,4
0,53,122,4
0,53,125,0
0,58,125,4
0,62,125,0
0,77,114,4
0,34,110,0
0,65,125,4
0,67,127,4
0,35,112,0
0,46,94,0
0,53,117,0
0,58,117,4
0,68,127,4
0,62,117,0
0,34,114,4
0,65,117,0
0,46,51,4
0,70,106,4
0,55,123,16
0,46,123,0
0,53,125,4
0,58,125,0
0,62,125,4
0,34,110,4
0,65,125,0
0,38,111,4
0,46,93,0
0,79,120,4
0,75,120,0
0,53,125,4
0,58,125,4
0,62,125,0
0,65,125,4
0,38,104,4
0,77,120,4
0,46,50,0
0,74,118,4
0,67,127,4
0,65,90,4
0,57,109,4
0,60,109,4
0,48,127,0
0,41,127,4
0,53,127,0
0,72,102,4
0,57,127,0
0,41,114,4
0,60,127,0
0,65,127,0
0,35,111,0
0,46,91,0
0,48,111,4
0,41,111,0
0,53,111,0
0,65,127,4
0,57,111,0
0,41,111,4
0,60,111,0
0,65,111,0
0,77,106,8
0,72,96,0
0,46,52,0
0,41,125,8
0,50,125,4
0,53,127,0
0,57,127,4
0,65,127,4
0,60,127,0
0,41,118,4
0,65,127,0
0,38,110,4
0,46,91,0
0,72,100,4
0,84,116,4
0,87,106,8
0,84,98,52
0,62,126,4
0,53,121,0
0,57,121,4
0,69,91,4
0,60,121,0
0,41,121,4
0,65,121,0
0,46,51,4
0,77,72,4
0,48,127,8
0,41,127,0
0,53,127,0
0,65,127,4
0,57,127,0
0,41,125,4
0,69,102,0
0,60,127,0
0,65,127,4
0,35,110,0
0,46,91,4
0,82,118,4
0,86,116,8
0,53,112,8
0,57,112,4
0,60,112,0
0,41,121,4
0,65,112,0
0,46,53,4
0,77,110,4
0,41,125,28
0,50,125,0
0,53,127,4
0,57,127,0
0,60,127,4
0,41,127,4
0,65,127,0
0,38,113,4
0,46,94,0
0,80,118,4
0,84,106,8
0,81,102,32
0,48,109,20
0,41,109,0
0,53,125,4
0,57,125,0
0,60,125,4
0,41,121,4
0,65,125,0
0,46,52,4
0,62,127,0
0,77,116,8
0,48,127,20
0,41,127,0
0,53,127,4
0,57,127,0
0,60,127,4
0,41,123,4
0,65,127,0
0,65,127,4
0,35,110,0
0,46,94,0
0,48,109,8
0,41,109,0
0,53,102,4
0,57,102,0
0,60,102,0
0,41,121,4
0,65,102,0
0,65,126,4
0,46,51,0
0,77,114,4
0,72,120,4
0,65,116,0
0,41,122,36
0,50,122,0
0,53,127,0
0,57,127,4
0,41,123,4
0,60,127,0
0,65,127,4
0,38,110,4
0,46,94,0
0,53,121,16
0,65,127,4
0,57,121,0
0,60,121,4
0,41,118,4
0,65,121,0
0,46,53,4
0,71,118,16
0,65,116,4
0,77,116,4
0,48,127,16
0,41,127,0
0,53,127,0
0,57,127,0
0,72,114,4
0,41,125,0
0,60,127,0
0,65,127,4
0,67,127,4
0,35,111,0
0,46,93,0
0,68,127,4
0,53,109,8
0,57,109,4
0,60,109,4
0,41,121,4
0,65,109,0
0,46,51,4
0,65,106,4
0,41,122,20
0,50,122,0
0,53,127,4
0,57,127,0
0,60,127,4
0,41,121,4
0,65,127,0
0,38,113,0
0,46,93,0
0,74,120,4
0,70,120,4
0,53,105,12
0,57,105,0
0,60,105,4
0,36,102,4
0,65,105,0
0,46,54,0
0,72,120,4
0,69,118,4
0,68,127,0
0,65,101,4
0,62,114,4
0,58,117,0
0,46,119,4
0,53,119,0
0,53,127,4
0,58,127,0
0,67,124,4
0,62,127,0
0,34,112,4
0,65,127,0
0,74,89,4
0,35,114,0
0,46,94,0
0,46,112,28
0,53,112,0
0,53,117,0
0,58,117,4
0,62,117,0
0,34,108,4
0,65,111,0
0,65,117,0
0,74,76,4
0,46,54,4
0,82,120,4
0,77,122,4
0,70,116,4
0,65,127,0
0,55,125,8
0,46,125,0
0,74,102,4
0,53,125,0
0,58,125,0
0,62,125,4
0,65,125,0
0,34,104,4
0,38,113,4
0,46,91,0
0,53,114,28
0,58,114,4
0,62,121,4
0,62,114,0
0,34,106,4
0,70,86,0
0,65,114,0
0,46,52,4
0,76,120,16
0,82,118,4
0,70,116,4
0,46,119,16
0,53,119,0
0,65,127,4
0,53,127,0
0,58,127,0
0,77,118,4
0,34,106,0
0,62,127,0
0,65,127,4
0,74,102,4
0,35,112,0
0,46,92,0
0,65,127,8
0,53,99,0
0,58,99,4
0,74,102,4
0,62,99,0
0,34,112,4
0,65,99,0
0,46,52,4
0,70,102,4
0,55,123,20
0,46,123,0
0,53,127,4
0,58,127,0
0,62,127,4
0,34,104,4
0,65,127,0
0,73,112,4
0,76,112,0
0,38,111,0
0,46,90,0
0,46,114,40
0,53,114,0
0,53,117,0
0,58,117,4
0,62,117,4
0,65,117,0
0,34,112,4
0,62,127,0
0,46,50,4
0,77,112,8
0,74,112,0
0,46,119,48
0,53,119,0
0,53,125,0
0,58,125,4
0,65,127,4
0,62,125,0
0,34,108,4
0,65,125,0
0,35,111,4
0,46,90,0
0,46,122,72
0,53,122,0
0,53,101,0
0,58,101,4
0,62,101,0
0,34,112,4
0,65,124,0
0,65,101,0
0,46,51,8
0,82,114,4
0,77,120,4
0,70,116,0
0,55,127,36
0,46,127,0
0,53,127,0
0,58,127,4
0,62,127,0
0,34,103,4
0,65,127,4
0,65,127,4
0,38,110,0
0,46,90,0
0,53,117,4
0,58,117,8
0,67,127,4
0,62,117,0
0,34,112,4
0,65,117,0
0,46,50,4
0,76,118,4
0,70,116,0
0,82,116,4
0,46,122,4
0,53,122,0
0,53,125,0
0,58,125,4
0,62,125,0
0,77,114,4
0,34,106,0
0,65,125,4
0,35,110,4
0,46,93,0
0,53,110,4
0,58,110,4
0,62,110,4
0,34,112,4
0,65,110,0
0,65,127,4
0,38,113,0
0,46,72,0
0,70,106,4
0,55,123,20
0,46,123,0
0,53,127,4
0,58,127,0
0,62,127,4
0,34,104,4
0,65,127,0
0,38,113,4
0,46,90,0
0,79,120,4
0,75,120,4
0,65,126,12
0,53,122,4
0,58,122,4
0,34,94,8
0,62,122,0
0,65,122,4
0,77,120,4
0,35,110,0
0,46,90,0
0,74,118,4
0,65,109,8
0,57,107,4
0,60,116,4
0,48,127,0
0,41,127,4
0,53,127,0
0,38,109,0
0,57,127,4
0,60,127,0
0,29,118,4
0,65,127,0
0,81,114,4
0,72,125,4
0,38,123,0
0,77,127,4
0,72,92,0
0,68,127,4
0,69,108,20
0,77,73,0
0,68,127,44
0,72,100,0
0,69,97,24
0,77,62,0
0,65,127,0
0,69,98,0
0,62,127,16
0,65,102,0
0,60,127,84
0,64,102,0
0,55,102,12
0,60,116,0
0,64,111,0
0,55,127,4
0,48,127,0
0,64,127,4
0,52,122,0
0,76,112,4
0,79,118,0
0,72,116,0
0,36,127,0
0,58,122,4
0,55,122,4
0,60,122,0
0,64,122,0
0,38,113,0
0,46,83,0
0,55,127,44
0,48,127,0
0,52,127,4
0,58,127,0
0,55,127,0
0,36,111,4
0,64,127,0
0,60,127,0
0,64,127,4
0,38,113,4
0,46,92,0
0,79,118,4
0,72,114,4
0,76,116,4
0,57,105,48
0,60,101,0
0,65,112,4
0,48,127,4
0,41,127,0
0,65,127,4
0,53,127,0
0,57,127,0
0,41,127,4
0,60,127,0
0,65,127,0
0,38,113,0
0,49,63,4
0,46,94,0
0,81,118,4
0,77,127,4
0,72,127,0
0,41,127,28
0,68,127,0
0,35,101,4
0,80,119,12
0,84,112,4
0,38,111,4
0,41,127,8
0,38,121,8
0,81,100,4
0,79,92,84
0,45,71,8
0,35,76,4
0,77,104,20
0,43,61,0
0,36,112,4
0,65,120,0
0,84,53,4
0,35,61,0
0,65,90,0
0,62,109,4
0,58,117,0
0,53,125,0
0,58,125,0
0,62,125,4
0,34,108,4
0,65,125,0
0,67,126,4
0,35,111,0
0,49,65,0
0,70,112,4
0,82,112,4
0,74,112,4
0,77,110,0
0,53,104,28
0,58,104,4
0,62,104,0
0,34,108,4
0,65,119,0
0,65,104,0
0,46,52,8
0,65,124,60
0,53,127,4
0,58,127,4
0,62,127,0
0,34,112,8
0,65,127,0
0,38,110,4
0,46,94,0
0,53,114,20
0,62,119,4
0,58,114,0
0,62,114,4
0,34,114,4
0,65,114,0
0,46,52,4
0,77,108,8
0,74,110,0
0,70,112,0
0,82,112,4
0,53,127,0
0,58,127,4
0,62,127,0
0,34,106,4
0,65,126,0
0,65,127,0
0,35,110,8
0,46,94,0
0,53,95,52
0,58,95,4
0,65,126,4
0,62,95,0
0,34,119,4
0,65,95,0
0,46,54,4
0,70,102,4
0,53,127,52
0,58,127,4
0,62,127,4
0,34,96,4
0,65,127,0
0,38,113,4
0,46,92,0
0,73,112,4
0,76,112,4
0,67,127,0
0,53,114,16
0,58,114,0
0,62,114,4
0,38,117,4
0,65,127,0
0,65,114,0
0,46,54,8
0,77,112,4
0,74,112,0
0,65,101,36
0,57,107,4
0,60,114,0
0,53,127,4
0,57,127,4
0,60,127,4
0,41,96,4
0,65,127,0
0,35,110,0
0,46,91,0
0,53,105,8
0,57,105,4
0,60,105,0
0,41,121,4
0,65,105,0
0,68,127,4
0,46,51,0
0,53,127,40
0,57,127,4
0,60,127,0
0,41,116,4
0,65,127,4
0,38,110,0
0,46,92,4
0,77,112,4
0,69,110,0
0,65,112,4
0,72,108,0
0,53,127,20
0,57,127,4
0,60,127,4
0,41,116,4
0,65,127,0
0,46,51,4
0,68,122,8
0,53,127,8
0,57,127,4
0,60,127,0
0,41,121,4
0,65,127,0
0,65,127,8
0,35,111,0
0,46,92,0
0,53,116,52
0,57,116,4
0,60,116,4
0,41,116,4
0,67,127,0
0,65,116,0
0,46,52,0
0,53,127,60
0,57,127,8
0,60,127,4
0,41,118,4
0,65,127,0
0,38,113,4
0,46,91,0
0,53,123,12
0,57,123,0
0,36,112,4
0,60,123,0
0,65,123,0
0,46,53,0
0,67,127,8
0,65,98,4
0,62,116,4
0,58,112,0
0,53,125,0
0,58,125,4
0,62,125,0
0,34,114,4
0,65,125,0
0,82,112,4
0,35,114,0
0,74,110,4
0,46,90,0
0,77,110,4
0,70,110,4
0,53,98,60
0,58,98,8
0,62,98,0
0,34,119,4
0,65,98,0
0,65,119,4
0,46,53,4
0,82,102,4
0,53,127,48
