track,note,velocity,time
3,45,90,657
3,45,0,60
3,47,90,0
3,47,0,60
3,49,90,0
3,49,0,60
3,57,90,0
3,62,85,0
3,66,45,0
3,66,0,60
3,62,0,0
3,57,0,0
3,57,107,60
3,62,76,0
3,66,45,0
3,57,0,30
3,66,0,30
3,62,0,0
3,64,90,60
3,57,109,0
3,61,68,0
3,61,0,60
3,64,0,0
3,64,90,0
3,61,68,0
3,61,0,60
3,64,0,0
3,57,0,0
3,64,90,0
3,61,71,0
3,57,95,0
3,61,82,0
3,61,0,30
3,64,0,30
3,57,0,0
3,61,0,0
3,55,45,0
3,55,0,60
3,62,84,0
3,55,110,0
3,67,54,0
3,67,0,60
3,62,0,0
3,62,76,0
3,67,56,0
3,67,0,60
3,62,0,0
3,62,89,0
3,67,59,0
3,67,0,30
3,62,0,0
3,55,0,30
3,55,104,0
3,61,89,0
3,57,103,0
3,64,70,0
3,55,0,30
3,64,0,90
3,45,68,0
3,61,0,30
3,45,0,30
3,57,0,0
3,47,73,0
3,47,0,60
3,49,68,0
3,49,0,60
3,66,59,0
3,57,90,0
3,62,59,0
3,62,0,60
3,57,0,0
3,66,0,0
3,62,49,60
3,50,115,0
3,57,99,0
3,62,98,0
3,66,39,0
3,50,0,30
3,62,0,0
3,62,0,30
3,57,0,0
3,66,0,0
3,62,35,60
3,55,104,0
3,67,31,0
3,67,0,60
3,55,0,0
3,62,0,0
3,55,105,0
3,67,57,0
3,62,86,0
3,62,0,60
3,67,0,0
3,55,0,0
3,55,105,0
3,62,41,0
3,67,41,0
3,67,0,60
3,62,0,0
3,55,0,0
3,64,30,60
3,57,127,0
3,61,98,0
3,64,87,0
3,64,0,30
3,57,0,30
3,61,0,0
3,64,0,0
3,57,101,0
3,61,82,0
3,64,76,0
3,64,0,60
3,57,0,0
3,57,102,0
3,57,0,30
3,61,0,0
3,57,113,30
3,66,75,0
3,62,93,0
3,62,0,210
3,66,0,0
3,57,0,0
3,50,56,30
3,50,0,60
3,62,45,0
3,50,110,0
3,57,90,0
3,57,0,120
3,62,0,0
3,57,124,0
3,62,101,0
3,66,72,0
3,66,0,60
3,50,0,0
3,57,0,0
3,62,0,0
3,60,28,30
3,60,0,30
3,50,76,0
3,57,45,30
3,57,0,30
3,50,0,0
3,57,84,0
3,61,60,0
3,61,0,60
3,57,0,0
3,64,32,0
3,57,102,0
3,61,90,0
3,69,23,30
3,57,0,30
3,64,0,0
3,55,64,0
3,61,0,30
3,69,0,0
3,55,0,30
3,62,85,0
3,55,116,0
3,67,50,0
3,62,0,120
3,62,84,0
3,62,0,30
3,67,0,0
3,55,0,30
3,55,97,0
3,57,96,0
3,64,68,0
3,61,73,0
3,55,0,30
3,45,55,98
3,45,0,51
3,61,0,1
3,47,92,9
3,64,0,21
3,47,0,30
3,57,0,0
3,49,77,0
3,49,0,60
3,50,71,0
3,57,94,0
3,62,84,0
3,66,53,0
3,50,103,6
3,50,0,24
3,50,0,61
3,57,0,29
3,62,0,0
3,66,0,0
3,62,84,0
3,57,104,0
3,66,60,0
3,66,0,60
3,57,0,0
3,62,0,0
3,57,44,0
3,60,50,0
3,57,0,30
3,60,0,30
3,55,104,0
3,62,96,0
3,67,84,0
3,71,48,0
3,62,0,120
3,62,111,0
3,62,0,60
3,71,0,0
3,67,0,0
3,60,56,0
3,60,0,60
3,55,0,0
3,55,108,0
3,61,95,0
3,57,106,0
3,64,68,0
3,55,0,30
3,61,0,30
3,57,0,0
3,57,73,0
3,61,79,0
3,61,0,90
3,57,0,0
3,64,0,0
3,66,48,30
3,57,121,0
3,62,98,0
3,50,123,120
3,50,0,60
3,57,0,0
3,57,85,0
3,52,127,0
3,66,0,30
3,52,0,26
3,57,0,4
3,62,0,0
3,54,118,0
3,54,0,60
3,62,22,0
3,55,115,2
3,55,122,58
3,55,91,0
3,55,0,30
3,62,0,30
3,55,0,0
3,62,36,0
3,55,112,0
3,64,57,0
3,62,0,30
3,55,0,9
3,55,0,21
3,64,0,0
3,55,92,0
3,64,60,0
3,64,0,60
3,55,0,0
3,55,105,0
3,62,68,0
3,55,0,60
3,55,87,0
3,55,0,60
3,62,0,0
3,63,54,0
3,55,113,0
3,63,82,0
3,63,0,30
3,63,0,0
3,64,82,0
3,55,0,30
3,55,113,0
3,55,0,60
3,64,0,0
3,55,98,0
3,62,66,0
3,55,0,60
3,55,87,0
3,55,0,60
3,62,0,0
3,64,42,0
3,55,110,0
3,55,0,60
3,64,0,0
3,55,97,0
3,64,85,0
3,64,0,60
3,55,0,0
3,55,103,0
3,62,77,0
3,55,0,60
3,55,94,0
3,55,0,60
3,62,0,0
3,55,94,0
3,64,83,0
3,64,0,60
3,55,0,0
3,55,102,0
3,64,70,0
3,64,0,60
3,55,0,0
3,57,79,0
3,50,92,0
3,57,84,0
3,57,0,30
3,50,0,30
3,50,92,0
3,50,0,60
3,57,0,0
3,58,60,0
3,59,61,0
3,50,91,0
3,59,84,0
3,59,0,30
3,58,0,0
3,59,0,30
3,59,85,0
3,50,90,0
3,50,0,60
3,59,0,0
3,50,0,0
3,50,90,0
3,57,69,0
3,57,0,60
3,50,0,0
3,50,90,0
3,57,59,0
3,57,0,60
3,50,0,0
3,50,91,0
3,59,75,0
3,59,0,60
3,50,0,0
3,50,94,0
3,59,82,0
3,59,0,60
3,50,0,0
3,50,99,0
3,57,77,0
3,61,30,0
3,61,0,30
3,57,0,30
3,50,0,0
3,50,85,0
3,57,68,0
3,57,0,60
3,50,0,0
3,58,49,0
3,50,104,0
3,58,86,0
3,59,86,0
3,58,0,30
3,58,0,0
3,50,0,30
3,50,104,0
3,50,0,60
3,59,0,0
3,50,95,0
3,57,72,0
3,57,0,60
3,50,0,0
3,50,95,0
3,50,0,60
3,52,127,0
3,52,0,60
3,54,127,0
3,54,0,60
3,62,30,0
3,62,71,0
3,55,105,0
3,55,118,3
3,62,0,27
3,55,0,30
3,55,100,0
3,55,0,49
3,55,0,11
3,62,0,0
3,55,103,0
3,64,56,0
3,64,0,60
3,55,0,0
3,64,47,0
3,55,106,0
3,64,71,0
3,64,0,30
3,64,0,30
3,55,0,0
3,55,110,0
3,62,64,0
3,55,0,60
3,55,110,0
3,55,0,60
3,62,0,0
3,55,113,0
3,64,70,0
3,55,0,60
3,55,107,0
3,55,0,60
3,64,0,0
3,55,99,0
3,62,67,0
3,62,0,60
3,55,0,0
3,55,87,0
3,62,75,0
3,62,0,60
3,55,0,0
3,55,111,0
3,64,77,0
3,64,0,60
3,55,0,0
3,55,100,0
3,64,72,0
3,64,0,60
3,55,0,0
3,55,122,0
3,62,73,0
3,55,0,60
3,55,110,0
3,55,0,60
3,62,0,0
3,55,96,0
3,55,118,0
3,62,78,0
3,64,77,0
3,62,0,30
3,55,0,0
3,64,0,30
3,64,74,0
3,64,0,30
3,55,0,30
3,59,85,0
3,52,107,0
3,59,89,0
3,59,0,30
3,59,0,30
3,52,0,0
3,52,107,0
3,59,85,0
3,59,0,60
3,52,0,0
3,52,87,0
3,59,63,0
3,59,0,60
3,52,0,0
3,52,108,0
3,59,92,0
3,59,0,60
3,52,0,0
3,59,92,0
3,52,82,0
3,52,0,60
3,59,0,0
3,52,103,0
3,59,74,0
3,59,0,60
3,52,0,0
3,52,80,0
3,59,65,0
3,59,0,60
3,52,0,0
3,52,90,0
3,59,87,0
3,59,0,30
3,52,0,30
3,64,30,0
3,57,106,0
3,57,0,60
3,64,0,0
3,57,93,0
3,64,66,0
3,64,0,60
3,57,0,0
3,57,108,0
3,64,85,0
3,64,0,60
3,57,0,0
3,57,121,0
3,64,71,0
3,64,0,60
3,57,0,0
3,64,71,0
3,57,117,0
3,57,0,60
3,64,0,0
3,57,113,0
3,64,78,0
3,45,127,0
3,45,0,60
3,64,0,0
3,57,0,0
3,57,113,0
3,64,90,0
3,47,122,0
3,47,0,60
3,64,0,0
3,57,0,0
3,57,79,0
3,64,65,0
3,49,116,0
3,47,117,5
3,47,0,4
3,57,0,51
3,64,0,0
3,49,0,0
3,62,97,0
3,57,118,0
3,66,72,0
3,50,127,4
3,66,0,56
3,62,0,0
3,57,0,0
3,50,0,8
3,57,127,52
3,62,110,0
3,66,73,0
3,66,0,60
3,62,0,0
3,57,0,0
3,60,37,0
3,60,0,30
3,64,22,30
3,57,113,0
3,61,87,0
3,61,0,60
3,64,0,0
3,61,84,0
3,64,62,0
3,64,0,60
3,61,0,0
3,57,0,0
3,57,100,0
3,61,87,0
3,64,61,0
3,57,0,60
3,64,0,30
3,61,0,0
3,55,84,30
3,67,73,0
3,62,87,0
3,71,26,0
3,71,0,60
3,62,0,0
3,67,0,0
3,67,73,0
3,62,99,0
3,71,35,0
3,71,0,60
3,62,0,0
3,67,0,0
3,71,35,0
3,67,73,0
3,62,77,0
3,62,0,30
3,67,0,0
3,71,0,0
3,55,0,30
3,57,117,0
3,61,85,0
3,64,75,0
3,69,37,0
3,61,0,180
3,61,72,0
3,61,0,60
3,57,0,0
3,57,75,0
3,57,0,30
3,64,0,30
3,69,0,0
3,62,88,0
3,66,77,0
3,57,101,0
3,57,0,90
3,66,0,0
3,62,0,0
3,61,57,0
3,61,0,0
3,66,35,30
3,57,113,0
3,62,105,0
3,66,89,0
3,66,0,30
3,57,0,30
3,62,0,0
3,66,0,0
3,64,35,0
3,64,0,60
3,55,111,0
3,62,90,0
3,71,39,0
3,67,79,0
3,67,0,60
3,71,0,0
3,62,0,0
3,67,79,0
3,62,92,0
3,71,35,0
3,71,0,60
3,62,0,0
3,67,0,0
3,71,35,0
3,67,79,0
3,62,116,0
3,62,0,60
3,67,0,0
3,71,0,0
3,55,0,60
3,57,75,0
3,57,100,0
3,61,86,0
3,69,33,0
3,64,71,0
3,57,0,30
3,69,0,30
3,64,0,0
3,61,0,0
3,61,71,0
3,69,71,0
3,64,71,0
3,64,0,60
3,57,0,0
3,61,0,0
3,69,0,0
3,57,100,0
3,57,0,30
3,66,43,30
3,66,60,0
3,62,104,0
3,66,85,0
3,57,85,0
3,66,0,30
3,66,0,0
3,45,127,94
3,45,0,45
3,47,127,16
3,57,0,25
3,66,0,0
3,62,0,0
3,47,0,24
3,60,47,6
3,49,126,5
3,49,0,45
3,60,0,10
3,57,102,0
3,66,31,0
3,62,68,0
3,50,127,3
3,62,0,57
3,57,0,0
3,62,68,0
3,57,102,0
3,50,127,0
3,50,0,3
3,66,0,27
3,66,45,0
3,57,0,30
3,50,0,0
3,62,0,0
3,62,62,0
3,57,102,0
3,50,127,0
3,50,0,60
3,57,0,0
3,62,0,0
3,62,74,0
3,57,102,0
3,50,127,0
3,66,0,30
3,62,0,30
3,57,0,0
3,50,0,0
3,57,72,0
3,66,27,0
3,62,67,0
3,50,127,0
3,50,0,60
3,62,0,0
3,57,0,0
3,62,67,0
3,57,72,0
3,50,127,0
3,50,0,60
3,57,0,0
3,62,0,0
3,57,59,0
3,62,86,0
3,50,127,0
3,50,0,60
3,66,0,0
3,57,0,0
3,62,0,0
3,62,98,0
3,66,76,0
3,57,59,0
3,50,127,0
3,66,0,30
3,62,0,0
3,57,0,30
3,50,0,0
3,55,118,0
3,67,84,0
3,71,32,0
3,62,103,0
3,62,0,60
3,55,0,0
3,67,0,0
3,67,84,0
3,62,103,0
3,55,118,0
3,55,0,60
3,62,0,0
3,67,0,0
3,55,118,0
3,62,107,0
3,62,0,30
3,71,0,0
3,55,0,30
3,55,95,0
3,57,95,0
3,69,45,0
3,61,71,0
3,64,68,0
3,55,0,30
3,61,0,30
3,64,0,0
3,69,0,0
3,61,71,0
3,57,0,1
3,57,95,5
3,61,0,54
3,64,84,0
3,61,55,0
3,57,95,0
3,57,0,8
3,64,0,52
3,61,0,0
3,57,95,0
3,64,35,0
3,64,79,0
3,61,100,0
3,69,40,0
3,57,0,2
3,64,0,28
3,64,0,30
3,61,0,0
3,57,84,0
3,61,54,0
3,64,40,0
3,57,0,2
3,61,0,28
3,69,0,0
3,57,0,30
3,64,0,0
3,57,24,0
3,57,118,0
3,62,85,0
3,66,52,0
3,57,0,30
3,57,0,30
3,62,0,0
3,66,0,0
3,57,68,0
3,62,68,0
3,66,68,0
3,66,0,60
3,62,0,0
3,57,0,0
3,57,100,0
3,62,104,0
3,66,79,0
3,66,0,60
3,62,0,0
3,57,0,0
3,55,51,0
3,60,54,0
3,60,0,60
3,55,0,0
3,55,97,0
3,62,97,0
3,67,82,0
3,71,50,0
3,71,0,60
3,55,0,0
3,62,0,0
3,71,50,0
3,62,97,0
3,55,97,0
3,67,81,0
3,67,0,60
3,62,0,0
3,67,0,0
3,71,0,0
3,55,0,0
3,67,81,0
3,55,97,0
3,62,115,0
3,71,50,0
3,71,0,60
3,67,0,0
3,55,0,0
3,62,0,0
3,67,49,0
3,67,0,30
3,52,118,30
3,61,80,0
3,64,71,0
3,57,118,0
3,69,31,0
3,57,0,60
3,64,0,0
3,52,0,0
3,61,0,0
3,52,118,0
3,57,118,0
3,61,62,0
3,64,54,0
3,69,0,30
3,61,0,30
3,52,0,0
3,57,0,0
3,64,0,0
3,52,118,0
3,57,118,0
3,57,0,60
3,52,0,0
3,50,118,0
3,66,31,0
3,66,46,0
3,62,105,0
3,57,92,0
3,66,0,30
3,50,0,30
3,50,118,0
3,50,0,60
3,57,0,0
3,62,0,0
3,50,118,0
3,57,105,0
3,62,105,0
3,50,0,60
3,66,0,0
3,50,118,0
3,50,0,60
3,57,0,0
3,62,0,0
3,55,112,60
3,62,112,0
3,62,0,60
3,55,0,0
3,55,112,0
3,62,112,0
3,62,0,60
3,55,0,0
3,62,57,0
3,55,112,0
3,55,0,60
3,62,0,0
3,62,57,0
3,55,112,0
3,55,0,60
3,62,0,0
3,55,97,0
3,62,77,0
3,62,0,60
3,55,0,0
3,62,112,0
3,55,87,0
3,55,0,60
3,62,0,0
3,62,112,0
3,55,114,0
3,55,0,60
3,62,0,0
3,62,112,0
3,55,105,0
3,55,0,60
3,62,0,0
3,55,105,0
3,62,78,0
3,62,0,60
3,55,0,0
3,55,103,0
3,62,78,0
3,62,0,60
3,55,0,0
3,55,107,0
3,62,73,0
3,62,0,60
3,55,0,0
3,62,73,0
3,55,91,0
3,55,0,60
3,62,0,0
3,55,103,0
3,62,66,0
3,55,0,60
3,55,104,0
3,55,0,60
3,62,0,0
3,55,103,0
3,62,77,0
3,62,0,0
3,64,77,0
3,55,0,60
3,55,97,0
3,55,0,60
3,64,0,0
3,50,93,0
3,57,61,0
3,57,0,60
3,50,0,0
3,50,92,0
3,57,59,0
3,57,0,60
3,50,0,0
3,59,44,0
3,50,90,0
3,59,76,0
3,59,0,30
3,59,0,30
3,50,0,0
3,50,87,0
3,59,59,0
3,59,0,60
3,50,0,0
3,50,84,0
3,62,50,0
3,57,79,0
3,50,0,60
3,50,90,0
3,50,0,60
3,57,0,0
3,62,0,0
3,50,107,0
3,57,90,0
3,62,33,0
3,59,90,0
3,62,0,30
3,57,0,0
3,50,0,30
3,50,87,0
3,50,0,60
3,59,0,0
3,50,98,0
3,57,77,0
3,50,0,60
3,50,84,0
3,62,23,0
3,62,0,60
3,50,0,0
3,57,0,0
3,50,107,0
3,57,87,0
3,63,31,0
3,59,87,0
3,63,0,30
3,57,0,0
3,50,0,30
3,59,0,0
3,50,105,0
3,59,70,0
3,59,0,60
3,50,0,0
3,50,90,0
3,57,75,0
3,50,0,60
3,50,78,0
3,50,0,60
3,50,91,0
3,59,57,0
3,57,0,30
3,59,0,30
3,50,0,0
3,59,73,0
3,59,0,60
3,55,108,0
3,62,66,0
3,55,0,60
3,55,97,0
3,62,0,30
3,55,0,30
3,55,106,0
3,64,66,0
3,55,0,60
3,55,106,0
3,55,0,60
3,64,0,0
3,55,90,0
3,62,48,0
3,55,0,60
3,55,88,0
3,55,90,0
3,55,0,30
3,55,0,30
3,62,0,0
3,55,110,0
3,64,56,0
3,64,0,60
3,55,0,0
3,64,64,0
3,55,96,0
3,55,0,60
3,64,0,0
