track,note,velocity,time
3,36,123,13660
3,36,116,36
3,41,127,100
3,41,127,140
3,34,125,8
3,34,117,76
3,34,112,64
3,34,117,84
3,34,104,44
3,34,112,76
3,34,103,60
3,34,110,88
3,34,104,68
3,34,114,88
3,34,106,52
3,34,114,72
3,34,110,60
3,34,114,72
3,34,110,68
3,38,104,72
3,41,114,40
3,41,111,104
3,41,118,68
3,41,121,76
3,41,125,68
3,41,121,104
3,41,127,72
3,41,121,100
3,41,123,64
3,41,121,96
3,41,123,64
3,41,118,84
3,41,125,68
3,41,121,96
3,41,121,68
3,36,102,68
3,34,112,56
3,34,108,68
3,34,104,56
3,34,106,100
3,34,106,64
3,34,112,60
3,34,104,60
3,34,112,100
3,34,108,68
3,34,112,80
3,34,103,64
3,34,112,84
3,34,106,56
3,34,112,84
3,34,104,52
3,34,94,56
3,29,118,60
3,36,127,1516
3,36,111,52
3,41,127,84
3,41,127,136
3,41,127,36
3,36,112,68
3,34,108,8
3,34,108,84
3,34,112,80
3,34,114,100
3,34,106,56
3,34,119,92
3,34,96,64
3,38,117,80
3,41,96,56
3,41,121,92
3,41,116,56
3,41,116,96
3,41,121,72
3,41,116,64
3,41,118,76
3,36,112,76
3,34,114,60
3,34,119,80
3,34,114,56
3,34,108,100
3,34,103,72
3,34,114,76
3,34,103,76
3,38,94,124
3,41,109,36
3,41,114,64
3,41,118,68
3,41,114,84
3,41,118,72
3,41,118,96
3,36,127,56
3,41,107,48
3,36,116,8
3,34,112,128
3,34,104,84
3,34,112,64
3,34,114,84
3,34,112,72
3,34,106,96
3,34,117,84
3,34,104,80
3,41,114,68
3,41,121,88
3,41,125,68
3,41,112,76
3,41,127,80
3,41,116,112
3,41,127,76
3,36,125,84
3,31,127,16
3,31,116,84
3,31,123,60
3,31,116,92
3,31,118,68
3,31,114,108
3,31,109,64
3,31,116,84
3,36,125,60
3,36,125,72
3,36,125,68
3,36,121,84
3,36,127,72
3,36,118,100
3,31,127,44
3,36,102,52
3,34,125,52
3,34,117,76
3,34,112,64
3,34,117,84
3,34,104,52
3,34,112,76
3,34,103,60
3,34,110,100
3,34,104,68
3,34,114,88
3,34,106,56
3,34,114,72
3,34,110,56
3,34,114,72
3,34,110,68
3,38,104,68
3,41,114,40
3,41,111,104
3,41,118,68
3,41,121,76
3,41,125,68
3,41,121,104
3,41,127,72
3,41,121,100
3,41,123,64
3,41,121,96
3,41,123,64
3,41,118,84
3,41,125,68
3,41,121,96
3,41,121,68
3,36,102,64
3,34,112,56
3,34,108,72
3,34,104,56
3,34,106,100
3,34,106,60
3,34,112,60
3,34,104,60
3,34,112,96
3,34,108,68
3,34,112,72
3,34,103,68
3,34,112,88
3,34,106,56
3,34,112,80
3,34,104,52
3,38,94,60
3,29,118,60
3,36,127,1516
3,36,111,56
3,41,127,84
3,41,127,136
3,41,127,48
3,36,112,80
3,34,108,48
3,34,108,84
3,34,112,76
3,34,114,100
3,34,106,56
3,34,119,68
3,34,96,64
3,38,117,84
3,41,96,56
3,41,121,92
3,41,116,60
3,41,116,88
3,41,121,72
3,41,116,100
3,41,118,76
3,36,112,76
3,34,114,60
3,34,119,80
3,34,114,56
3,34,108,76
3,34,103,72
3,34,114,96
3,34,103,76
3,38,94,72
3,41,109,36
3,41,114,68
3,41,118,68
3,41,114,84
3,41,118,72
3,41,118,96
3,36,127,56
3,41,107,48
3,36,116,28
3,34,112,128
3,34,104,92
3,34,112,64
3,34,114,84
3,34,112,68
3,34,106,84
3,34,117,84
3,34,104,88
3,41,114,68
3,41,121,88
3,41,125,64
3,41,112,108
3,41,127,72
3,41,116,112
3,41,127,76
3,36,125,80
3,31,127,20
3,31,116,84
3,31,123,60
3,31,116,108
3,31,118,68
3,31,114,100
3,31,109,64
3,31,116,84
3,36,125,60
3,36,125,72
3,36,125,64
3,36,121,104
3,36,127,72
3,36,118,120
3,31,127,44
3,36,102,52
3,34,125,48
3,34,117,76
3,34,112,64
3,34,117,84
3,34,104,52
3,34,112,76
3,34,103,60
3,34,110,104
3,34,104,68
3,34,114,88
3,34,106,56
3,34,114,72
3,34,110,56
3,34,114,72
3,34,110,68
3,38,104,68
3,41,114,40
3,41,111,104
3,41,118,68
3,41,121,76
3,41,125,68
3,41,121,104
3,41,127,72
3,41,121,96
3,41,123,64
3,41,121,96
3,41,123,64
3,41,118,84
3,41,125,72
3,41,121,96
3,41,121,68
3,36,102,68
3,34,112,56
3,34,108,68
3,34,104,52
3,34,106,100
3,34,106,60
3,34,112,60
3,34,104,60
3,34,112,96
3,34,108,68
3,34,112,104
3,34,103,64
3,34,112,108
3,34,106,56
3,34,112,80
3,34,104,52
3,34,94,60
3,29,118,60
3,36,127,1516
3,36,111,56
3,41,127,84
3,41,127,136
3,41,127,48
3,36,112,40
3,34,88,52
3,34,88,84
3,34,92,84
3,34,94,100
3,34,86,56
3,34,99,96
3,34,76,64
3,38,97,84
3,41,76,56
3,41,101,96
3,41,96,60
3,41,96,96
3,41,101,72
3,41,96,88
3,41,98,76
3,36,92,80
3,34,94,60
3,34,99,80
3,34,94,60
3,34,88,96
3,34,83,72
3,34,94,52
3,34,83,76
3,38,74,124
3,41,109,36
3,36,118,24
3,38,118,44
3,41,107,44
3,36,118,32
3,34,112,40
3,34,104,88
3,34,112,68
3,34,114,100
3,34,112,72
3,34,106,100
3,34,117,84
3,34,104,84
3,41,114,64
3,41,121,92
3,41,125,68
3,41,112,104
3,41,127,76
3,41,116,108
3,41,127,76
3,36,125,84
3,31,127,32
3,31,116,84
3,31,123,60
3,31,116,108
3,31,118,68
3,31,114,100
3,31,109,64
3,31,116,84
3,36,125,60
3,36,125,68
3,36,125,68
3,36,121,104
3,36,127,72
3,36,118,124
3,31,127,44
3,36,102,52
3,34,125,52
3,34,117,76
3,34,112,68
3,34,117,84
3,34,104,52
3,34,112,76
3,34,103,60
3,34,110,104
3,34,104,68
3,34,114,88
3,34,106,56
3,34,114,72
3,34,110,56
3,34,114,72
3,34,110,68
3,38,104,72
3,41,114,40
3,41,111,100
3,41,118,68
3,41,121,76
3,41,125,68
3,41,121,104
3,41,127,72
3,41,121,100
3,29,123,64
3,29,123,96
3,29,125,84
3,32,125,96
3,44,121,96
3,34,112,4
3,34,108,72
3,34,104,60
3,34,106,100
3,34,106,60
3,34,112,60
3,34,104,60
3,34,112,92
3,34,108,68
3,34,112,104
3,34,103,64
3,34,112,108
3,34,106,56
3,34,112,80
3,34,104,52
3,38,94,56
3,29,118,60
3,36,127,1516
3,36,111,56
3,41,127,84
3,41,127,132
3,34,125,12
3,34,117,76
3,34,112,68
3,34,117,80
3,34,104,52
3,34,112,76
3,34,103,60
3,34,110,100
3,34,104,68
3,34,114,88
3,34,106,52
3,34,114,72
3,34,110,56
3,34,114,72
3,34,110,68
3,38,104,68
3,41,114,40
3,41,111,100
3,41,118,64
3,41,121,76
3,41,125,68
3,41,121,104
3,41,127,72
3,41,121,100
3,41,123,64
3,41,121,100
3,41,123,64
3,41,118,84
3,41,125,72
3,41,121,96
3,41,121,68
3,36,102,64
3,34,112,56
3,34,108,68
3,34,104,52
3,34,106,100
3,34,106,64
3,34,112,60
3,34,104,60
3,34,112,96
3,34,108,68
3,34,112,100
3,34,103,68
3,34,112,108
3,34,106,56
3,34,112,80
3,34,104,52
3,38,94,60
3,29,118,60
3,36,127,1516
3,36,111,56
3,41,127,84
3,41,112,252
3,48,98,8
3,46,87,8
3,45,84,124
3,44,101,4
3,43,84,8
3,41,92,16
3,39,98,124
3,38,88,4
3,36,89,12
3,34,91,8
3,33,91,124
3,32,84,20
3,29,97,128
3,32,112,0
3,29,127,12
4,65,105,14904
4,58,110,4
4,62,112,0
4,65,90,44
4,57,109,4
4,60,109,4
4,65,101,24
4,58,117,4
4,62,114,0
4,65,109,52
4,57,107,4
4,60,116,4
4,64,111,1524
4,60,116,0
4,55,102,0
4,60,101,96
4,57,105,0
4,65,112,4
4,65,90,576
4,58,117,4
4,62,109,0
4,65,101,40
4,60,114,4
4,57,107,0
4,65,98,20
4,58,112,4
4,62,116,0
4,57,100,36
4,65,90,4
4,60,102,0
4,65,89,28
4,58,125,4
4,62,112,0
4,65,97,36
4,60,112,4
4,57,111,0
4,59,107,40
4,55,112,4
4,62,118,4
4,64,98,56
4,55,97,0
4,60,109,4
4,58,106,0
4,65,109,88
4,58,104,4
4,62,116,0
4,57,98,128
4,65,100,4
4,60,111,0
4,65,94,60
4,62,104,4
4,58,119,0
4,65,116,92
4,60,121,4
4,57,109,0
4,64,112,1556
4,60,114,0
4,55,105,0
4,60,112,76
4,57,107,0
4,65,114,4
4,62,102,576
4,58,104,4
4,65,97,0
4,65,101,84
4,57,105,4
4,60,112,0
4,65,94,76
4,62,100,4
4,58,104,4
4,57,100,88
4,65,102,4
4,60,101,4
4,65,90,128
4,62,104,4
4,58,112,4
4,57,102,56
4,65,104,4
4,60,111,4
4,59,111,68
4,62,111,4
4,55,111,4
4,55,82,96
4,64,109,4
4,58,114,4
4,60,104,0
4,62,109,100
4,65,102,4
4,58,101,4
4,65,96,64
4,57,111,4
4,60,111,0
4,65,93,84
4,58,110,4
4,62,109,0
4,57,109,132
4,60,111,4
4,65,112,0
4,60,114,1608
4,64,107,0
4,55,109,0
4,60,111,48
4,57,107,4
4,65,112,4
4,65,111,5180
4,57,104,4
4,60,116,4
4,55,112,3168
4,59,112,4
4,62,114,4
4,55,93,156
4,64,98,4
4,60,102,4
4,58,104,0
4,65,105,96
4,62,112,4
4,58,103,0
4,57,102,68
4,65,111,4
4,60,111,0
4,57,119,28
4,65,102,4
4,60,112,0
4,56,119,36
4,60,112,0
4,63,102,0
4,65,102,36
4,62,112,4
4,58,119,0
4,65,111,128
4,57,109,4
4,60,116,0
4,60,118,1564
4,55,112,0
4,64,114,0
4,60,111,112
4,57,109,0
4,65,116,4
4,65,104,600
4,62,104,4
4,58,104,0
4,65,104,52
4,60,114,4
4,57,111,4
4,65,105,52
4,58,117,4
4,62,116,0
4,57,109,168
4,65,107,4
4,60,112,4
4,55,112,1524
4,64,116,0
4,60,118,0
4,57,109,108
4,65,127,0
4,60,102,4
4,63,104,2364
4,56,101,0
4,60,116,0
4,65,101,16
4,60,109,0
4,57,100,4
5,68,127,0
5,74,87,0
5,67,122,0
5,65,111,16
5,74,76,0
5,65,121,40
5,74,86,4
5,62,124,12
5,70,89,0
5,65,127,8
5,74,102,0
5,62,127,244
5,65,127,16
5,65,124,64
5,65,126,44
5,67,127,28
5,68,127,40
5,67,127,4
5,72,102,8
5,65,127,0
5,72,96,12
5,65,127,64
5,72,100,12
5,62,126,20
5,69,91,8
5,65,127,12
5,69,102,0
5,62,127,220
5,65,127,36
5,65,126,72
5,65,127,48
5,67,127,12
5,68,127,4
5,68,127,4
5,67,124,20
5,74,89,12
5,65,111,36
5,74,76,4
5,65,127,48
5,74,102,8
5,62,121,48
5,70,86,4
5,65,127,20
5,74,102,12
5,65,127,44
5,74,102,8
5,62,127,244
5,65,127,56
5,65,124,68
5,65,127,68
5,67,127,4
5,65,127,76
5,65,126,116
5,72,92,0
5,68,127,0
5,69,108,28
5,77,73,0
5,72,100,44
5,68,127,0
5,77,62,24
5,69,97,0
5,69,98,0
5,65,127,0
5,65,102,16
5,62,127,0
5,60,127,84
5,64,102,0
5,64,127,156
5,64,127,52
5,65,127,60
5,68,127,92
5,67,122,12
5,74,87,4
5,65,111,8
5,74,76,4
5,74,86,40
5,65,121,0
5,62,124,12
5,70,89,0
5,65,127,12
5,74,102,4
5,62,127,240
5,65,127,44
5,65,124,4
5,65,126,36
5,67,127,24
5,68,127,8
5,67,127,4
5,72,102,8
5,65,127,8
5,72,96,8
5,65,127,64
5,72,100,12
5,62,126,20
5,69,91,8
5,65,127,12
5,69,102,4
5,62,127,220
5,65,127,48
5,65,126,20
5,65,127,44
5,67,127,0
5,68,127,4
5,68,127,8
5,67,124,20
5,74,89,8
5,65,111,36
5,74,76,4
5,65,127,48
5,74,102,12
5,62,121,48
5,70,86,4
5,65,127,20
5,74,102,12
5,65,127,44
5,74,102,8
5,62,127,244
5,65,127,56
5,65,124,256
5,65,127,76
5,67,127,16
5,65,127,76
5,65,126,116
5,72,92,12
5,68,127,4
5,69,108,28
5,77,73,0
5,72,100,44
5,68,127,0
5,69,97,24
5,77,62,0
5,65,127,0
5,69,98,0
5,62,127,16
5,65,102,0
5,64,102,84
5,60,127,0
5,64,127,156
5,64,127,52
5,65,127,60
5,68,127,28
5,65,120,76
5,67,126,72
5,65,119,36
5,65,124,60
5,62,119,44
5,65,126,8
5,65,126,60
5,67,127,80
5,65,127,24
5,68,127,4
5,68,122,68
5,65,127,24
5,67,127,72
5,67,127,8
5,65,119,76
5,65,127,68
5,62,121,40
5,65,127,64
5,65,124,36
5,67,127,72
5,65,127,68
5,68,127,20
5,67,127,64
5,65,127,48
5,67,127,8
5,65,124,12
5,62,121,36
5,65,127,56
5,65,115,72
5,67,127,68
5,65,127,52
5,68,127,28
5,67,121,4
5,62,109,88
5,65,126,36
5,65,127,84
5,67,126,20
5,65,127,68
5,67,127,8
5,67,127,104
5,67,127,160
5,67,127,148
5,60,127,0
5,60,127,112
5,60,127,100
5,68,127,88
5,67,122,8
5,74,87,4
5,74,76,12
5,65,111,0
5,65,121,40
5,74,86,0
5,62,124,12
5,70,89,4
5,74,102,12
5,65,127,0
5,62,127,244
5,65,127,72
5,65,124,0
5,65,126,68
5,67,127,28
5,68,127,40
5,67,127,16
5,72,102,12
5,65,127,8
5,72,96,8
5,65,127,64
5,72,100,12
5,62,126,20
5,69,91,8
5,65,127,12
5,69,102,4
5,62,127,220
5,65,127,48
5,65,126,20
5,65,127,84
5,67,127,8
5,68,127,0
5,68,127,8
5,67,124,20
5,74,89,8
5,65,111,36
5,74,76,4
5,65,127,48
5,74,102,12
5,62,121,48
5,70,86,4
5,65,127,20
5,74,102,12
5,65,127,44
5,74,102,8
5,62,127,248
5,65,127,56
5,65,124,256
5,65,127,68
5,67,127,20
5,65,127,76
5,65,126,116
5,68,127,32
5,72,92,0
5,77,73,28
5,69,108,0
5,72,100,44
5,68,127,0
5,69,97,24
5,77,62,0
5,69,98,0
5,65,127,0
5,65,102,16
5,62,127,0
5,64,102,84
5,60,127,0
5,64,127,156
5,64,127,52
5,65,127,72
5,68,119,820
5,65,124,44
5,62,119,28
5,65,126,8
5,65,126,144
5,67,127,80
5,65,127,240
5,68,127,4
5,65,122,4
5,62,122,68
5,65,127,28
5,65,127,92
5,67,127,20
5,65,127,8
5,68,119,148
5,65,127,128
5,62,121,24
5,65,127,4
5,65,124,72
5,67,127,56
5,65,127,36
5,68,127,4
5,67,127,56
5,65,127,52
5,68,127,8
5,65,124,20
5,62,121,36
5,65,127,56
5,65,115,76
5,67,127,68
5,65,127,56
5,68,127,12
5,67,121,16
5,62,109,88
5,65,126,36
5,65,127,80
5,67,127,0
5,67,127,100
5,67,127,160
5,67,127,144
5,60,127,76
5,60,127,108
5,60,127,108
5,68,127,104
5,67,122,4
5,74,87,4
5,74,76,12
5,65,111,0
5,65,121,36
5,74,86,4
5,62,124,12
5,70,89,0
5,65,127,12
5,74,102,0
5,62,127,236
5,65,127,68
5,65,124,0
5,65,126,44
5,67,127,28
5,68,127,40
5,67,127,4
5,72,102,12
5,65,127,8
5,72,96,8
5,65,127,64
5,72,100,12
5,62,126,20
5,69,91,8
5,65,127,12
5,69,102,4
5,62,127,220
5,65,127,36
5,69,102,4
5,65,126,76
5,69,91,4
5,65,127,36
5,69,100,0
5,70,102,12
5,67,127,0
5,68,127,0
5,72,97,4
5,68,127,4
5,67,124,24
5,74,89,4
5,65,111,32
5,74,76,8
5,65,127,48
5,74,102,12
5,62,121,48
5,70,86,4
5,65,127,24
5,74,102,8
5,65,127,44
5,74,102,8
5,62,127,244
5,65,127,56
5,65,124,256
5,65,127,72
5,67,127,48
5,65,127,76
5,65,126,0
5,72,92,4
5,68,127,4
5,77,73,36
