track,note,velocity,time
0,55,83,245
0,59,86,15
0,62,83,6
0,67,87,15
0,74,105,219
0,74,104,34
0,55,58,34
0,59,79,13
0,62,82,19
0,74,105,15
0,67,78,6
0,43,57,170
0,55,67,115
0,59,82,23
0,62,76,22
0,67,87,28
0,74,105,229
0,74,104,48
0,55,71,32
0,60,74,0
0,40,86,21
0,64,77,22
0,67,88,27
0,74,105,3
0,72,104,23
0,71,104,13
0,42,71,3
0,50,67,7
0,54,78,9
0,57,91,9
0,62,78,20
0,64,70,17
0,69,105,40
0,62,61,1
0,64,61,0
0,50,42,4
0,71,105,0
0,57,70,3
0,54,83,8
0,57,83,0
0,62,82,0
0,64,82,0
0,69,104,0
0,54,51,3
0,57,50,0
0,62,51,0
0,64,51,0
0,54,80,13
0,57,81,0
0,62,80,0
0,64,80,0
0,54,53,13
0,57,53,0
0,62,52,0
0,64,52,0
0,38,75,65
0,50,81,17
0,57,86,6
0,62,90,4
0,64,85,22
0,54,50,22
0,57,51,0
0,62,51,0
0,64,50,0
0,72,104,0
0,54,51,12
0,57,50,0
0,62,50,0
0,64,51,0
0,72,105,10
0,54,79,2
0,57,78,0
0,62,78,0
0,64,79,0
0,50,55,8
0,54,64,12
0,57,64,0
0,62,65,0
0,64,64,0
0,52,79,13
0,55,89,0
0,60,92,0
0,64,87,0
0,72,105,0
0,48,64,0
0,55,64,0
0,60,65,0
0,64,65,0
0,72,104,0
0,55,72,4
0,60,72,0
0,72,104,0
0,64,75,3
0,43,85,180
0,59,82,5
0,62,88,8
0,72,105,13
0,67,89,10
0,71,104,13
0,62,70,3
0,67,105,10
0,67,105,13
0,67,81,1
0,62,83,0
0,59,68,4
0,55,87,8
0,67,104,5
0,67,64,0
0,62,62,4
0,59,63,1
0,67,105,4
0,67,83,2
0,59,82,3
0,62,88,2
0,67,61,9
0,59,61,1
0,62,60,2
0,40,76,23
0,55,83,2
0,60,86,5
0,72,104,8
0,64,87,15
0,71,104,13
0,60,71,8
0,64,70,0
0,55,71,1
0,55,86,1
0,60,86,3
0,64,87,0
0,67,105,9
0,55,91,9
0,60,90,0
0,64,90,0
0,67,105,4
0,40,71,4
0,67,104,9
0,55,83,9
0,60,94,0
0,64,86,0
0,67,104,4
0,42,79,15
0,50,86,20
0,57,91,20
0,62,97,17
0,64,84,13
0,69,105,0
0,69,105,13
0,57,83,19
0,64,88,0
0,62,80,7
0,64,89,1
0,62,99,3
0,69,104,9
0,57,80,14
0,62,94,0
0,64,79,0
0,62,104,9
0,57,87,15
0,62,86,0
0,64,86,0
0,57,65,13
0,62,64,0
0,64,65,0
0,57,87,13
0,62,86,0
0,64,87,0
0,42,66,8
0,57,74,1
0,62,83,15
0,64,79,11
0,62,82,39
0,57,64,13
0,62,65,0
0,64,65,0
0,48,60,94
0,55,72,5
0,60,83,7
0,64,88,13
0,55,67,4
0,60,67,0
0,64,66,0
0,55,91,4
0,60,90,0
0,64,90,0
0,55,65,13
0,60,65,0
0,64,64,0
0,55,90,2
0,60,91,0
0,64,91,0
0,55,68,8
0,60,68,0
0,64,69,0
0,55,58,8
0,59,75,0
0,62,83,7
0,67,86,6
0,74,105,234
0,74,104,2
0,59,71,6
0,67,70,1
0,62,70,4
0,55,59,66
0,59,79,5
0,62,82,12
0,74,105,15
0,67,78,1
0,59,69,27
0,62,69,0
0,67,68,0
0,62,52,5
0,67,53,0
0,43,52,2
0,59,71,3
0,62,71,0
0,67,70,0
0,55,67,58
0,59,82,14
0,62,76,8
0,67,87,24
0,74,105,229
0,59,65,30
0,62,64,0
0,67,64,0
0,62,59,13
0,67,53,0
0,74,104,0
0,59,70,8
0,62,70,0
0,67,71,0
0,55,70,2
0,40,83,16
0,60,89,8
0,64,88,2
0,67,85,20
0,74,105,3
0,72,104,23
0,71,104,13
0,42,70,165
0,50,66,7
0,54,79,9
0,57,91,3
0,62,78,0
0,69,105,12
0,64,70,5
0,69,105,8
0,62,61,1
0,64,61,0
0,50,42,4
0,71,104,0
0,57,70,3
0,54,83,8
0,57,82,0
0,62,83,0
0,64,83,0
0,69,104,0
0,54,50,5
0,57,51,0
0,62,50,0
0,64,50,0
0,54,81,5
0,57,81,0
0,62,80,0
0,64,80,0
0,54,53,13
0,57,53,0
0,62,52,0
0,64,52,0
0,38,75,65
0,50,80,17
0,57,87,6
0,62,91,4
0,64,84,22
0,54,51,22
0,57,50,0
0,62,50,0
0,64,51,0
0,72,105,0
0,54,51,12
0,57,50,0
0,62,50,0
0,64,51,0
0,54,79,12
0,57,78,0
0,62,78,0
0,64,79,0
0,50,54,8
0,72,105,10
0,54,65,2
0,57,65,0
0,62,64,0
0,64,65,0
0,52,78,13
0,55,88,0
0,60,93,0
0,64,87,0
0,72,104,0
0,48,64,0
0,55,64,0
0,60,65,0
0,64,65,0
0,72,104,0
0,55,72,4
0,60,72,0
0,72,105,0
0,64,75,3
0,43,84,180
0,59,83,5
0,62,89,8
0,72,104,13
0,67,88,10
0,71,105,13
0,62,71,3
0,67,105,10
0,67,104,30
0,67,80,1
0,62,82,0
0,59,69,4
0,55,87,8
0,67,105,5
0,67,64,0
0,62,62,4
0,59,63,1
0,67,104,4
0,67,83,2
0,59,82,3
0,62,88,2
0,67,61,9
0,59,60,1
0,62,61,2
0,40,77,23
0,55,82,2
0,60,87,5
0,72,104,8
0,64,86,15
0,71,105,13
0,60,70,8
0,64,71,0
0,55,71,1
0,55,86,1
0,60,86,3
0,64,87,0
0,67,105,9
0,55,91,9
0,60,90,0
0,64,90,0
0,67,104,4
0,40,71,4
0,67,104,9
0,55,82,9
0,60,95,0
0,64,87,0
0,67,105,4
0,42,78,3
0,50,87,22
0,57,90,20
0,62,96,22
0,69,105,13
0,64,85,5
0,69,104,13
0,57,83,14
0,64,88,7
0,62,80,8
0,64,89,9
0,62,99,2
0,69,104,2
0,69,105,13
0,57,80,9
0,62,94,2
0,64,79,0
0,69,104,2
0,69,105,19
0,57,86,8
0,62,87,0
0,64,87,0
0,57,64,13
0,62,65,0
0,64,64,0
0,69,105,0
0,57,86,13
0,62,87,0
0,64,87,0
0,42,66,8
0,57,74,1
0,62,83,4
0,62,104,0
0,64,79,6
0,62,82,3
0,57,64,13
0,62,65,0
0,64,64,0
0,48,51,32
0,55,89,13
0,60,88,0
0,64,89,0
0,55,66,13
0,60,66,0
0,64,67,0
0,55,91,13
0,60,90,0
0,64,90,0
0,55,71,13
0,60,71,0
0,64,70,0
0,55,90,2
0,60,91,0
0,64,90,0
0,55,69,8
0,60,69,0
0,64,68,0
0,28,111,0
0,40,75,0
0,50,72,0
0,55,74,0
0,59,83,0
0,62,79,0
0,71,105,0
0,50,70,13
0,71,104,0
0,55,86,13
0,59,91,0
0,62,87,0
0,69,104,0
0,67,105,13
0,50,56,65
0,55,64,22
0,59,65,0
0,55,58,10
0,59,59,0
0,55,69,8
0,59,68,0
0,62,69,0
0,35,110,5
0,47,84,0
0,57,84,0
0,62,85,0
0,66,85,0
0,64,105,105
0,71,104,13
0,57,52,38
0,62,68,0
0,66,35,0
0,57,61,13
0,62,82,0
0,66,54,0
0,71,104,0
0,57,55,13
0,62,68,0
0,66,35,0
0,69,105,0
0,57,51,13
0,62,74,0
0,66,43,0
0,67,105,0
0,57,88,13
0,62,88,0
0,66,89,0
0,47,55,88
0,62,64,25
0,57,88,0
0,62,89,0
0,66,89,0
0,40,58,42
0,48,70,21
0,55,79,21
0,60,82,2
0,36,107,7
0,64,79,13
0,71,104,227
0,71,104,13
0,60,79,4
0,55,78,2
0,64,89,0
0,69,105,7
0,67,104,13
0,48,56,111
0,60,66,18
0,55,61,2
0,64,61,0
0,64,66,13
0,67,105,0
0,60,88,3
0,42,73,7
0,50,71,1
0,57,84,0
0,62,88,10
0,38,111,13
0,74,105,0
0,64,89,3
0,50,72,68
0,57,75,9
0,62,81,0
0,64,88,0
0,71,104,4
0,50,67,68
0,57,76,20
0,62,80,1
0,64,81,2
0,42,53,76
0,55,77,36
0,48,74,5
0,59,88,10
0,55,88,6
0,64,91,17
0,59,93,7
0,36,110,0
0,71,105,0
0,67,91,0
0,64,93,3
0,49,9,9
0,57,9,10
0,49,9,10
0,57,11,10
0,49,14,10
0,57,15,10
0,49,19,4
0,57,25,4
0,49,30,4
0,57,36,2
0,49,45,4
0,43,72,10
0,57,53,10
0,50,90,6
0,59,97,3
0,31,125,0
0,67,94,0
0,49,71,0
0,43,75,0
0,50,74,0
0,59,75,0
0,35,115,1
0,55,84,182
0,74,104,7
0,42,47,3
0,57,95,66
0,42,72,3
0,74,104,4
0,40,113,46
0,62,104,0
0,74,105,4
0,42,69,1
0,42,69,5
0,62,76,0
0,31,88,47
0,62,63,10
0,35,112,1
0,42,64,0
0,31,120,9
0,35,123,4
0,62,49,0
0,42,77,1
0,42,70,9
0,74,105,4
0,42,72,36
0,74,104,4
0,48,81,91
0,55,87,34
0,60,88,0
0,36,111,1
0,36,75,2
0,52,74,0
0,60,75,0
0,74,104,7
0,40,110,0
0,42,79,2
0,48,96,1
0,64,85,5
0,47,84,31
0,72,105,7
0,42,63,1
0,47,71,6
0,35,95,4
0,42,80,0
0,71,105,4
0,42,78,71
0,50,88,37
0,57,93,40
0,38,121,3
0,38,74,6
0,54,74,0
0,62,75,0
0,69,104,9
0,50,55,0
0,35,114,1
0,62,87,1
0,42,68,1
0,69,104,53
0,54,92,0
0,42,47,3
0,42,73,39
0,71,105,4
0,55,68,0
0,40,113,30
0,69,104,0
0,62,103,0
0,42,68,1
0,42,68,4
0,62,84,3
0,38,94,46
0,35,113,10
0,42,65,0
0,62,65,2
0,38,120,8
0,35,122,0
0,42,76,1
0,62,43,3
0,42,71,106
0,72,105,4
0,42,73,54
0,72,105,4
0,48,66,85
0,55,80,31
0,60,87,1
0,52,75,3
0,60,74,0
0,43,74,2
0,72,104,5
0,40,111,0
0,42,78,1
0,45,94,0
0,36,125,1
0,64,85,5
0,48,101,79
0,72,105,4
0,42,63,1
0,35,94,8
0,42,80,0
0,72,104,4
0,50,88,3
0,43,76,41
0,50,84,45
0,55,91,41
0,59,92,2
0,72,104,23
0,50,70,0
0,35,115,1
0,42,68,2
0,59,75,2
0,31,125,1
0,50,75,0
0,67,89,9
0,71,105,13
0,43,51,0
0,50,51,0
0,42,47,3
0,42,73,9
0,67,105,4
0,43,50,0
0,50,50,0
0,40,112,9
0,67,104,4
0,62,103,0
0,67,103,0
0,42,68,1
0,55,102,4
0,42,68,4
0,67,104,4
0,62,94,0
0,67,95,0
0,55,94,5
0,31,124,1
0,35,113,4
0,42,65,0
0,67,105,4
0,55,87,0
0,62,87,0
0,67,86,0
0,48,77,49
0,55,86,15
0,36,74,5
0,60,74,3
0,35,122,1
0,52,75,0
0,42,77,1
0,72,105,3
0,62,67,0
0,67,66,0
0,36,116,2
0,55,66,3
0,60,85,12
0,64,80,23
0,42,70,1
0,71,104,4
0,42,72,20
0,67,104,4
0,67,105,25
0,40,111,0
0,42,79,2
0,67,104,10
0,42,62,1
0,36,127,28
0,35,94,13
0,42,81,0
0,69,105,4
0,42,72,24
0,50,87,47
0,57,93,1
0,38,74,0
0,54,75,2
0,62,75,0
0,69,105,7
0,35,115,1
0,38,116,1
0,42,69,1
0,50,101,0
0,62,92,1
0,42,46,15
0,54,57,3
0,42,73,131
0,55,94,0
0,40,112,5
0,62,104,0
0,42,68,5
0,42,68,5
0,62,83,0
0,50,66,1
0,38,121,32
0,35,113,11
0,42,65,0
0,62,67,0
0,42,73,13
0,50,87,17
0,57,92,30
0,62,92,6
0,38,125,14
0,35,120,0
0,46,79,4
0,40,112,9
0,40,95,31
0,42,73,3
0,48,97,0
0,45,95,5
0,67,104,12
0,41,111,0
0,44,83,0
0,35,88,4
0,38,104,52
0,44,66,3
0,41,78,28
0,35,113,20
0,41,57,0
0,41,97,1
0,59,1,12
0,31,117,0
0,62,97,0
0,67,90,0
0,71,105,0
0,49,74,0
0,55,94,0
0,62,94,0
0,67,95,0
0,50,86,0
0,59,91,0
0,43,75,0
0,35,114,1
0,43,90,2
0,67,51,22
0,62,50,1
0,62,66,4
0,59,1,0
0,55,71,4
0,71,104,0
0,59,51,0
0,62,69,0
0,62,51,29
0,67,51,0
0,62,95,9
0,67,100,0
0,71,104,0
0,59,1,0
0,62,95,0
0,67,94,0
0,59,76,7
0,59,1,1
0,59,77,4
0,71,105,0
0,62,65,0
0,59,1,34
0,67,50,1
0,62,51,1
0,55,84,2
0,71,105,0
0,55,66,0
0,62,66,0
0,59,1,34
0,40,113,0
0,59,73,0
0,62,104,3
0,67,105,0
0,71,104,0
0,62,89,0
0,67,89,0
0,67,50,36
0,62,56,3
0,62,50,1
0,59,73,5
0,59,73,8
0,62,70,0
0,62,51,31
0,67,51,0
0,62,94,7
0,67,108,0
0,62,93,0
0,67,83,0
0,59,68,2
0,35,110,0
0,35,113,0
0,55,69,0
0,62,66,0
0,67,50,5
0,62,50,2
0,59,75,5
0,55,64,0
0,59,81,5
0,36,110,3
0,35,123,0
0,36,78,0
0,52,79,0
0,60,81,0
0,48,68,4
0,60,96,0
0,64,95,0
0,60,91,0
0,67,90,0
0,62,61,0
0,48,74,0
0,67,51,9
0,60,53,5
0,59,74,12
0,55,74,8
0,60,57,0
0,62,58,6
0,67,48,0
0,60,101,3
0,64,91,0
0,60,86,0
0,67,87,0
0,59,76,11
0,48,76,8
0,60,60,0
0,67,49,3
0,55,77,3
0,55,60,0
0,60,61,0
0,59,83,8
0,60,100,0
0,64,100,0
0,40,110,0
0,59,89,0
0,67,88,0
0,62,58,0
0,47,75,0
0,67,49,6
0,59,73,3
0,59,64,0
0,48,79,7
0,53,77,0
0,59,63,0
0,67,49,18
0,60,101,7
0,64,100,0
0,59,89,0
0,67,88,0
0,62,58,0
0,59,84,14
0,30,105,4
0,35,94,0
0,55,78,4
0,59,62,0
0,67,49,13
0,60,79,2
0,59,64,0
0,55,65,0
0,62,48,0
0,31,115,8
0,62,1,0
0,43,82,0
0,50,74,0
0,59,81,0
0,62,97,4
0,67,90,0
0,74,104,0
0,53,78,0
0,55,94,0
0,62,95,0
0,67,95,0
0,43,69,0
0,35,115,1
0,62,66,27
0,62,50,0
0,67,51,0
0,55,1,0
0,55,72,0
0,67,105,0
0,59,51,0
0,62,69,0
0,55,1,9
0,62,95,4
0,67,100,0
0,67,105,0
0,62,94,0
0,67,94,0
0,62,51,0
0,67,50,0
0,59,77,5
0,55,1,4
0,59,77,4
0,67,104,0
0,62,65,0
0,55,1,9
0,55,81,4
0,67,104,0
0,55,67,0
0,62,66,0
0,62,50,0
0,67,51,0
0,55,1,9
0,40,112,0
0,59,72,1
0,62,108,2
0,67,109,0
0,67,105,0
0,62,88,0
0,67,89,0
0,62,57,24
0,62,51,0
0,67,50,0
0,59,72,6
0,59,78,8
0,62,70,0
0,62,94,0
0,67,109,0
0,62,92,0
0,67,83,0
0,62,50,0
0,67,51,0
0,59,69,2
0,35,116,4
0,35,112,0
0,55,95,4
0,62,66,0
0,59,86,12
0,55,65,0
0,62,50,0
0,67,51,0
0,59,80,5
0,36,106,3
0,35,122,0
0,36,77,0
0,52,88,0
0,60,76,0
0,60,86,4
0,64,87,0
0,60,91,0
0,67,90,0
0,62,69,0
0,48,78,0
0,67,50,2
0,60,53,5
0,59,75,6
0,48,87,8
0,60,56,0
0,60,88,10
0,64,96,0
0,60,86,0
0,67,87,0
0,62,49,0
0,67,48,0
0,59,77,11
0,55,71,8
0,60,61,0
0,62,48,0
0,48,78,10
0,55,60,0
0,60,60,0
0,67,49,0
0,59,82,8
0,60,91,2
0,64,91,0
0,40,111,0
0,59,89,0
0,67,89,0
0,62,69,0
0,47,79,0
0,59,64,34
0,67,48,0
0,59,67,44
0,55,88,3
0,59,62,0
0,60,105,20
0,64,108,0
0,59,66,0
0,59,89,0
0,67,88,0
0,62,48,0
0,67,49,0
0,33,105,18
0,35,95,0
0,48,82,2
0,53,85,0
