track,note,velocity,time
2,58,127,144
2,53,126,0
2,62,124,0
2,53,0,9
2,58,0,0
2,62,0,0
2,58,113,3
2,53,100,0
2,62,109,0
2,53,0,9
2,58,0,0
2,62,0,0
2,53,99,3
2,58,100,0
2,62,104,0
2,53,0,9
2,58,0,0
2,62,0,0
2,58,105,3
2,53,98,0
2,62,101,0
2,53,0,9
2,58,0,0
2,62,0,0
2,58,127,3
2,53,127,0
2,62,127,0
2,53,0,9
2,58,0,0
2,62,0,0
2,53,112,3
2,58,118,0
2,62,115,0
2,53,0,9
2,58,0,0
2,62,0,0
2,53,102,3
2,58,110,0
2,62,107,0
2,53,0,9
2,58,0,0
2,62,0,0
2,53,107,3
2,58,110,0
2,62,110,0
2,53,0,9
2,58,0,0
2,62,0,0
2,55,125,3
2,58,127,0
2,63,126,0
2,55,0,9
2,58,0,0
2,63,0,0
2,58,100,3
2,55,99,0
2,63,108,0
2,55,0,9
2,58,0,0
2,63,0,0
2,58,113,3
2,55,98,0
2,63,112,0
2,55,0,9
2,58,0,0
2,63,0,0
2,58,103,3
2,55,92,0
2,63,111,0
2,55,0,9
2,58,0,0
2,63,0,0
2,55,125,3
2,58,127,0
2,63,127,0
2,55,0,9
2,58,0,0
2,63,0,0
2,58,107,3
2,55,99,0
2,63,111,0
2,55,0,9
2,58,0,0
2,63,0,0
2,58,106,3
2,55,100,0
2,63,108,0
2,55,0,9
2,58,0,0
2,63,0,0
2,58,108,3
2,55,96,0
2,63,107,0
2,58,0,9
2,63,0,0
2,55,0,1
2,58,121,2
2,53,127,0
2,62,126,0
2,58,0,9
2,62,0,0
2,53,0,1
2,53,96,2
2,58,103,0
2,62,111,0
2,58,0,9
2,62,0,0
2,53,0,1
2,53,98,2
2,58,107,0
2,62,106,0
2,58,0,9
2,62,0,0
2,53,0,1
2,53,100,2
2,58,108,0
2,62,108,0
2,58,0,9
2,62,0,0
2,53,0,1
2,58,124,2
2,53,127,0
2,62,126,0
2,53,0,9
2,58,0,0
2,62,0,0
2,53,105,3
2,58,111,0
2,62,114,0
2,58,0,9
2,62,0,0
2,53,0,1
2,53,99,2
2,58,96,0
2,62,100,0
2,53,0,9
2,58,0,0
2,62,0,0
2,53,104,3
2,58,110,0
2,62,108,0
2,58,0,9
2,62,0,0
2,53,0,1
2,53,127,2
2,57,127,0
2,60,127,0
2,53,0,9
2,57,0,0
2,60,0,0
2,57,102,3
2,53,104,0
2,60,94,0
2,57,0,9
2,60,0,0
2,53,0,1
2,57,97,2
2,53,103,0
2,60,103,0
2,57,0,9
2,60,0,0
2,53,0,1
2,57,100,2
2,53,101,0
2,60,111,0
2,57,0,9
2,60,0,0
2,53,0,1
2,53,127,2
2,57,127,0
2,60,127,0
2,57,0,9
2,60,0,0
2,53,0,1
2,57,106,2
2,53,107,0
2,60,113,0
2,53,0,9
2,57,0,0
2,60,0,0
2,57,102,3
2,53,105,0
2,60,109,0
2,57,0,9
2,60,0,0
2,53,0,1
2,57,103,2
2,53,107,0
2,60,114,0
2,57,0,9
2,60,0,0
2,53,0,1
2,58,127,2
2,53,125,0
2,62,125,0
2,53,0,9
2,58,0,0
2,62,0,0
2,53,107,3
2,58,109,0
2,62,115,0
2,58,0,9
2,62,0,0
2,53,0,1
2,58,99,2
2,53,98,0
2,62,98,0
2,53,0,9
2,58,0,0
2,62,0,0
2,53,101,3
2,58,104,0
2,62,108,0
2,53,0,9
2,58,0,0
2,62,0,0
2,53,127,3
2,58,127,0
2,62,127,0
2,58,0,9
2,62,0,0
2,53,0,1
2,53,105,2
2,58,113,0
2,62,112,0
2,58,0,9
2,62,0,0
2,53,0,1
2,53,105,2
2,58,108,0
2,62,109,0
2,58,0,9
2,62,0,0
2,53,0,1
2,53,108,2
2,58,104,0
2,62,111,0
2,53,0,9
2,58,0,0
2,62,0,0
2,55,127,3
2,58,127,0
2,63,127,0
2,58,0,9
2,63,0,0
2,55,0,1
2,58,105,2
2,55,105,0
2,63,111,0
2,55,0,9
2,58,0,0
2,63,0,0
2,58,103,3
2,55,100,0
2,63,110,0
2,55,0,9
2,58,0,0
2,63,0,0
2,58,103,3
2,55,100,0
2,63,107,0
2,55,0,9
2,58,0,0
2,63,0,0
2,55,125,3
2,58,127,0
2,63,127,0
2,55,0,9
2,58,0,0
2,63,0,0
2,58,107,3
2,55,105,0
2,63,109,0
2,55,0,9
2,58,0,0
2,63,0,0
2,58,103,3
2,55,99,0
2,63,98,0
2,55,0,9
2,58,0,0
2,63,0,0
2,58,105,3
2,55,99,0
2,63,104,0
2,55,0,9
2,58,0,0
2,63,0,0
2,58,127,3
2,53,127,0
2,62,127,0
2,53,0,9
2,58,0,0
2,62,0,0
2,53,106,3
2,58,109,0
2,62,112,0
2,53,0,9
2,58,0,0
2,62,0,0
2,58,105,3
2,53,97,0
2,62,107,0
2,53,0,9
2,58,0,0
2,62,0,0
2,53,105,3
2,58,112,0
2,62,110,0
2,53,0,9
2,58,0,0
2,62,0,0
2,58,127,3
2,53,127,0
2,62,125,0
2,53,0,9
2,58,0,0
2,62,0,0
2,53,99,3
2,58,108,0
2,62,110,0
2,53,0,9
2,58,0,0
2,62,0,0
2,53,104,3
2,58,108,0
2,62,107,0
2,53,0,9
2,58,0,0
2,62,0,0
2,53,113,3
2,58,117,0
2,62,114,0
2,53,0,9
2,58,0,0
2,62,0,0
2,53,127,3
2,57,127,0
2,60,127,0
2,57,0,9
2,60,0,0
2,53,0,1
2,57,119,2
2,53,113,0
2,60,117,0
2,53,0,9
2,57,0,0
2,60,0,0
2,57,109,3
2,53,104,0
2,60,110,0
2,57,0,9
2,60,0,0
2,53,0,1
2,57,109,2
2,53,107,0
2,60,114,0
2,57,0,9
2,60,0,0
2,53,0,1
2,53,121,2
2,57,122,0
2,60,122,0
2,57,0,9
2,60,0,0
2,53,0,1
2,57,122,2
2,53,123,0
2,60,125,0
2,57,0,9
2,60,0,0
2,53,0,1
2,57,125,2
2,53,125,0
2,60,127,0
2,57,0,9
2,60,0,0
2,53,0,1
2,57,127,2
2,53,127,0
2,60,126,0
2,57,0,9
2,60,0,0
2,53,0,1
2,58,126,2
2,53,123,0
2,62,121,0
2,58,0,9
2,62,0,0
2,53,0,1
2,53,108,2
2,58,108,0
2,62,107,0
2,53,0,9
2,58,0,0
2,62,0,0
2,58,110,3
2,53,102,0
2,62,102,0
2,58,0,9
2,62,0,0
2,53,0,1
2,53,109,2
2,58,114,0
2,62,110,0
2,53,0,9
2,58,0,0
2,62,0,0
2,58,126,3
2,53,123,0
2,62,120,0
2,58,0,9
2,62,0,0
2,53,0,1
2,53,110,2
2,58,116,0
2,62,110,0
2,53,0,9
2,58,0,0
2,62,0,0
2,53,105,3
2,58,110,0
2,62,106,0
2,58,0,9
2,62,0,0
2,53,0,1
2,53,107,2
2,58,113,0
2,62,109,0
2,58,0,9
2,62,0,0
2,53,0,1
2,53,121,2
2,58,126,0
2,62,118,0
2,58,0,9
2,62,0,0
2,53,0,1
2,58,112,2
2,53,104,0
2,62,108,0
2,53,0,9
2,58,0,0
2,62,0,0
2,58,112,3
2,53,101,0
2,62,105,0
2,58,0,9
2,62,0,0
2,53,0,1
2,58,113,2
2,53,109,0
2,62,108,0
2,53,0,9
2,58,0,0
2,62,0,0
2,53,121,3
2,58,125,0
2,62,118,0
2,53,0,9
2,58,0,0
2,62,0,0
2,58,115,3
2,53,106,0
2,62,111,0
2,53,0,9
2,58,0,0
2,62,0,0
2,58,109,3
2,53,104,0
2,62,110,0
2,53,0,9
2,58,0,0
2,62,0,0
2,58,103,3
2,53,104,0
2,62,109,0
2,53,0,9
2,58,0,0
2,62,0,0
2,58,126,3
2,55,119,0
2,63,127,0
2,55,0,9
2,58,0,0
2,63,0,0
2,58,115,3
2,55,107,0
2,63,115,0
2,55,0,9
2,58,0,0
2,63,0,0
2,55,108,3
2,58,116,0
2,63,113,0
2,55,0,9
2,58,0,0
2,63,0,0
2,55,105,3
2,58,111,0
2,63,110,0
2,55,0,9
2,58,0,0
2,63,0,0
2,58,125,3
2,55,120,0
2,63,125,0
2,55,0,9
2,58,0,0
2,63,0,0
2,55,103,3
2,58,118,0
2,63,112,0
2,55,0,9
2,58,0,0
2,63,0,0
2,55,97,3
2,58,111,0
2,63,98,0
2,55,0,9
2,58,0,0
2,63,0,0
2,55,105,3
2,58,116,0
2,63,114,0
2,55,0,9
2,58,0,0
2,63,0,0
2,55,122,3
2,58,127,0
2,63,127,0
2,55,0,9
2,58,0,0
2,63,0,0
2,58,125,3
2,55,113,0
2,63,121,0
2,55,0,9
2,58,0,0
2,63,0,0
2,55,100,3
2,58,105,0
2,63,101,0
2,58,0,9
2,63,0,0
2,55,0,1
2,58,111,2
2,55,101,0
2,63,103,0
2,55,0,9
2,58,0,0
2,63,0,0
2,55,123,3
2,58,127,0
2,63,127,0
2,58,0,9
2,63,0,0
2,55,0,1
2,58,118,2
2,55,107,0
2,63,113,0
2,55,0,9
2,58,0,0
2,63,0,0
2,58,105,3
2,55,107,0
2,63,108,0
2,58,0,9
2,63,0,0
2,55,0,1
2,58,100,2
2,55,91,0
2,63,110,0
2,58,0,9
2,63,0,0
2,55,0,1
2,58,121,2
2,53,124,0
2,62,120,0
2,58,0,9
2,62,0,0
2,53,0,1
2,53,98,2
2,58,110,0
2,62,109,0
2,58,0,9
2,62,0,0
2,53,0,1
2,53,102,2
2,58,105,0
2,62,106,0
2,53,0,9
2,58,0,0
2,62,0,0
2,53,89,3
2,58,105,0
2,62,104,0
2,53,0,9
2,58,0,0
2,62,0,0
2,58,124,3
2,53,118,0
2,62,119,0
2,58,0,9
2,62,0,0
2,53,0,1
2,53,107,2
2,58,114,0
2,62,111,0
2,58,0,9
2,62,0,0
2,53,0,1
2,53,97,2
2,58,112,0
2,62,108,0
2,53,0,9
2,58,0,0
2,62,0,0
2,53,102,3
2,58,104,0
2,62,110,0
2,53,0,9
2,58,0,0
2,62,0,0
2,55,124,3
2,58,127,0
2,63,127,0
2,58,0,9
2,63,0,0
2,55,0,1
2,58,112,2
2,55,96,0
2,63,109,0
2,58,0,9
2,63,0,0
2,55,0,1
2,58,110,2
2,55,99,0
2,63,113,0
2,55,0,9
2,58,0,0
2,63,0,0
2,58,114,3
2,55,99,0
2,63,112,0
2,58,0,9
2,63,0,0
2,55,0,1
2,55,120,2
2,58,126,0
2,63,127,0
2,58,0,9
2,63,0,0
2,55,0,1
2,58,116,2
2,55,107,0
2,63,117,0
2,58,0,9
2,63,0,0
2,55,0,1
2,58,114,2
2,55,104,0
2,63,111,0
2,58,0,9
2,63,0,0
2,55,0,1
2,58,109,2
2,55,102,0
2,63,115,0
2,55,0,9
2,58,0,0
2,63,0,0
2,58,125,3
2,53,127,0
2,62,125,0
2,53,0,9
2,58,0,0
2,62,0,0
2,53,102,3
2,58,113,0
2,62,117,0
2,53,0,9
2,58,0,0
2,62,0,0
2,53,98,3
2,58,105,0
2,62,103,0
2,53,0,9
2,58,0,0
2,62,0,0
2,53,99,3
2,58,111,0
2,62,107,0
2,53,0,9
2,58,0,0
2,62,0,0
2,58,126,3
2,53,125,0
2,62,121,0
2,53,0,9
2,58,0,0
2,62,0,0
2,53,101,3
2,58,112,0
2,62,104,0
2,53,0,9
2,58,0,0
2,62,0,0
2,53,95,3
2,58,107,1
2,62,102,0
2,53,0,8
2,58,0,0
2,62,0,0
2,53,92,3
2,58,107,0
2,62,102,0
2,53,0,9
2,58,0,0
2,62,0,0
2,53,123,3
2,58,127,0
2,62,125,0
2,53,0,9
2,58,0,0
2,62,0,0
2,58,114,3
2,53,102,0
2,62,106,0
2,53,0,9
2,58,0,0
2,62,0,0
2,58,110,3
2,53,97,0
2,62,105,0
2,53,0,9
2,58,0,0
2,62,0,0
2,58,112,3
2,53,101,0
2,62,104,0
2,53,0,9
2,58,0,0
2,62,0,0
2,53,119,3
2,58,125,0
2,62,122,0
2,53,0,9
2,58,0,0
2,62,0,0
2,58,113,3
2,53,103,0
2,62,111,0
2,53,0,9
2,58,0,0
2,62,0,0
2,58,115,3
2,53,103,0
2,62,110,0
2,53,0,9
2,58,0,0
2,62,0,0
2,58,113,3
2,53,99,0
2,62,106,0
2,53,0,9
2,58,0,0
2,62,0,0
2,58,127,3
2,55,127,0
2,63,127,0
2,55,0,9
2,58,0,0
2,63,0,0
2,58,108,3
2,55,94,0
2,63,106,0
2,58,0,9
2,63,0,0
2,55,0,1
2,58,111,2
2,55,97,0
2,63,111,0
2,55,0,9
2,58,0,0
2,63,0,0
2,58,107,3
2,55,100,0
2,63,102,0
2,58,0,9
2,63,0,0
2,55,0,1
2,58,127,2
2,55,120,0
2,63,127,0
2,55,0,9
2,58,0,0
2,63,0,0
2,58,110,3
2,55,98,0
2,63,110,0
2,58,0,9
2,63,0,0
2,55,0,1
2,58,109,2
2,55,94,0
2,63,92,0
2,58,0,9
2,63,0,0
2,55,0,1
2,58,107,2
2,55,94,0
2,63,98,0
2,58,0,9
2,63,0,0
2,55,0,1
2,58,127,2
2,55,124,0
2,63,127,0
2,55,0,9
2,58,0,0
2,63,0,0
2,58,118,3
2,55,100,0
2,63,112,0
2,58,0,9
2,63,0,0
2,55,0,1
2,58,111,2
2,55,98,0
2,63,107,0
2,58,0,9
2,63,0,0
2,55,0,1
2,58,114,2
2,55,99,0
2,63,108,0
2,58,0,9
2,63,0,0
2,55,0,1
2,55,120,2
2,58,127,0
2,63,127,0
2,58,0,9
2,63,0,0
2,55,0,1
2,58,118,2
2,55,105,0
2,63,112,0
2,58,0,9
2,63,0,0
2,55,0,1
2,58,110,2
2,55,99,0
2,63,110,0
2,58,0,9
2,63,0,0
2,55,0,1
2,58,116,2
2,55,101,0
2,63,110,0
2,58,0,9
2,63,0,0
2,55,0,1
2,58,127,2
2,55,125,0
2,63,127,0
2,58,0,9
2,63,0,0
2,55,0,1
2,58,113,2
2,55,100,0
2,63,103,0
2,55,0,9
2,58,0,0
2,63,0,0
2,55,91,3
2,58,103,0
2,55,0,9
2,58,0,0
2,55,97,3
2,58,107,0
2,55,0,10
2,58,0,0
2,58,127,2
2,55,125,0
2,63,127,0
2,55,0,9
2,58,0,0
2,63,0,0
2,58,116,3
2,55,103,0
2,63,112,0
2,55,0,9
2,58,0,0
2,63,0,0
2,58,113,3
2,55,98,0
2,63,95,0
2,55,0,9
2,58,0,0
2,63,0,0
2,58,109,3
2,55,101,0
2,63,116,0
2,55,0,9
2,58,0,0
2,63,0,0
2,58,125,3
2,55,123,0
2,63,127,0
2,55,0,9
2,58,0,0
2,63,0,0
2,58,99,3
2,55,93,0
2,63,101,0
2,55,0,9
2,58,0,0
2,63,0,0
2,58,110,3
2,55,94,0
2,63,102,0
2,55,0,9
2,58,0,0
2,63,0,0
2,55,85,3
2,58,92,0
2,55,0,9
2,58,0,0
2,58,125,3
2,55,120,0
2,63,127,0
2,55,0,9
2,58,0,0
2,63,0,0
2,58,113,3
2,55,103,0
2,63,110,0
2,55,0,9
2,58,0,0
2,63,0,0
2,58,110,3
2,55,104,0
2,63,112,0
2,55,0,9
2,58,0,0
2,63,0,0
2,58,110,3
2,55,100,0
2,63,110,0
2,55,0,9
2,58,0,0
2,63,0,0
2,58,123,3
2,53,125,0
2,62,125,0
2,53,0,9
2,58,0,0
2,62,0,0
2,53,88,3
2,58,99,0
2,62,103,0
2,53,0,9
2,58,0,0
2,62,0,0
2,53,101,3
2,58,110,0
2,62,107,0
2,53,0,9
2,58,0,0
2,62,0,0
2,53,99,3
2,58,110,0
2,62,108,0
2,58,0,9
2,62,0,0
2,53,0,1
2,58,124,2
2,53,119,0
2,62,122,0
2,58,0,9
2,62,0,0
2,53,0,1
2,58,101,2
2,53,94,0
2,62,108,0
2,53,0,9
2,58,0,0
2,62,0,0
2,53,93,3
2,58,93,0
2,62,103,0
2,53,0,9
2,58,0,0
2,62,0,0
2,53,93,3
2,58,103,0
2,62,107,0
2,58,0,9
