track,note,velocity,time
1,83,127,0
1,81,127,192
1,80,127,192
1,76,127,192
1,79,127,192
1,78,127,192
1,76,127,192
1,74,127,192
1,83,127,192
1,81,127,192
1,80,127,192
1,76,127,192
1,79,127,192
1,78,127,192
1,76,127,192
1,74,127,192
1,83,127,192
1,81,127,192
1,80,127,192
1,76,127,192
1,79,127,192
1,78,127,192
1,76,127,192
1,74,127,192
1,83,127,192
1,81,127,192
1,80,127,192
1,76,127,192
1,79,127,192
1,78,127,192
1,76,127,192
1,74,127,192
1,76,127,192
1,76,127,128
1,78,127,64
1,76,127,128
1,76,127,64
1,74,127,256
1,73,127,64
1,74,127,64
1,81,127,384
1,81,127,508
1,81,127,64
1,81,127,128
1,81,127,64
1,82,127,256
1,81,127,64
1,80,127,64
1,76,127,384
1,76,127,128
1,78,127,64
1,76,127,128
1,76,127,64
1,74,127,256
1,73,127,64
1,74,127,64
1,81,127,384
1,81,127,508
1,81,127,64
1,81,127,128
1,81,127,64
1,82,127,256
1,81,127,64
1,80,127,64
1,76,127,256
1,85,127,128
1,81,127,508
1,81,127,64
1,81,127,128
1,81,127,64
1,83,127,384
1,84,127,384
1,81,127,508
1,81,127,64
1,81,127,128
1,81,127,64
1,82,127,256
1,81,127,64
1,80,127,64
1,76,127,256
1,83,127,128
1,81,127,192
1,80,127,192
1,76,127,192
1,79,127,192
1,78,127,192
1,76,127,192
1,74,127,192
1,83,127,192
1,81,127,192
1,80,127,192
1,76,127,192
1,79,127,192
1,78,127,192
1,76,127,192
1,74,127,192
1,83,127,192
1,81,127,192
1,80,127,192
1,76,127,192
1,79,127,192
1,78,127,192
1,76,127,192
1,74,127,192
1,83,127,192
1,81,127,192
1,80,127,192
1,76,127,192
1,79,127,192
1,78,127,192
1,76,127,192
1,74,127,192
1,76,127,192
1,76,127,128
1,78,127,64
1,76,127,128
1,76,127,64
1,74,127,256
1,73,127,64
1,74,127,64
1,81,127,384
1,81,127,508
1,81,127,64
1,81,127,128
1,81,127,64
1,82,127,256
1,81,127,64
1,80,127,64
1,76,127,384
1,76,127,128
1,78,127,64
1,76,127,128
1,76,127,64
1,74,127,256
1,73,127,64
1,74,127,64
1,81,127,384
1,81,127,508
1,81,127,64
1,81,127,128
1,81,127,64
1,82,127,256
1,81,127,64
1,80,127,64
1,76,127,256
1,85,127,128
1,81,127,508
1,81,127,64
1,81,127,128
1,81,127,64
1,83,127,384
1,84,127,384
1,81,127,508
1,81,127,64
1,81,127,128
1,81,127,64
1,82,127,256
1,81,127,64
1,80,127,64
1,76,127,256
1,83,127,128
1,81,127,192
1,80,127,192
1,76,127,192
1,79,127,192
1,78,127,192
1,76,127,192
1,74,127,192
1,83,127,192
1,81,127,192
1,80,127,192
1,76,127,192
1,79,127,192
1,78,127,192
1,76,127,192
1,74,127,192
1,83,127,192
1,81,127,192
1,80,127,192
1,76,127,192
1,79,127,192
1,78,127,192
1,76,127,192
1,74,127,192
1,83,127,192
1,81,127,192
1,80,127,192
1,76,127,192
1,79,127,192
1,78,127,192
1,76,127,192
1,74,127,192
1,83,127,192
1,81,127,192
1,80,127,192
1,76,127,192
1,79,127,192
1,78,127,192
1,76,127,192
1,74,127,192
1,83,127,192
1,81,127,192
1,80,127,192
1,76,127,192
1,79,127,192
1,78,127,192
1,76,127,192
1,74,127,192
1,83,127,192
1,81,127,192
1,80,127,192
1,76,127,192
1,79,127,192
1,78,127,192
1,76,127,192
1,74,127,192
1,83,127,192
1,81,127,192
1,80,127,192
1,76,127,192
1,79,127,192
1,78,127,192
1,76,127,192
1,74,127,192
1,76,100,192
2,61,126,9216
2,64,126,0
2,69,126,0
2,61,126,64
2,64,126,0
2,69,126,0
2,61,126,32
2,64,126,0
2,69,126,0
2,61,126,32
2,64,126,0
2,69,126,0
2,61,126,32
2,64,126,0
2,69,126,0
2,61,126,32
2,64,126,0
2,69,126,0
2,61,126,64
2,64,126,0
2,69,126,0
2,61,126,32
2,64,126,0
2,69,126,0
2,61,126,32
2,64,126,0
2,69,126,0
2,61,126,32
2,64,126,0
2,69,126,0
2,61,126,32
2,64,126,0
2,69,126,0
2,61,126,64
2,64,126,0
2,69,126,0
2,61,126,32
2,64,126,0
2,69,126,0
2,61,126,32
2,64,126,0
2,69,126,0
2,61,126,32
2,64,126,0
2,69,126,0
2,61,126,32
2,64,126,0
2,69,126,0
2,61,126,64
2,64,126,0
2,69,126,0
2,61,126,32
2,64,126,0
2,69,126,0
2,61,126,32
2,64,126,0
2,69,126,0
2,59,126,64
2,62,126,0
2,67,126,0
2,59,126,64
2,62,126,0
2,67,126,0
2,59,126,32
2,62,126,0
2,67,126,0
2,59,126,32
2,62,126,0
2,67,126,0
2,59,126,32
2,62,126,0
2,67,126,0
2,59,126,32
2,62,126,0
2,67,126,0
2,59,126,64
2,62,126,0
2,67,126,0
2,59,126,32
2,62,126,0
2,67,126,0
2,59,126,32
2,62,126,0
2,67,126,0
2,59,126,32
2,62,126,0
2,67,126,0
2,59,126,32
2,62,126,0
2,67,126,0
2,59,126,64
2,62,126,0
2,67,126,0
2,59,126,32
2,62,126,0
2,67,126,0
2,59,126,32
2,62,126,0
2,67,126,0
2,59,126,32
2,62,126,0
2,67,126,0
2,59,126,32
2,62,126,0
2,67,126,0
2,59,126,64
2,62,126,0
2,67,126,0
2,59,126,32
2,62,126,0
2,67,126,0
2,59,126,32
2,62,126,0
2,67,126,0
2,61,126,64
2,64,126,0
2,69,126,0
2,61,126,64
2,64,126,0
2,69,126,0
2,61,126,32
2,64,126,0
2,69,126,0
2,61,126,32
2,64,126,0
2,69,126,0
2,61,126,32
2,64,126,0
2,69,126,0
2,61,126,32
2,64,126,0
2,69,126,0
2,61,126,64
2,64,126,0
2,69,126,0
2,61,126,32
2,64,126,0
2,69,126,0
2,61,126,32
2,64,126,0
2,69,126,0
2,61,126,32
2,64,126,0
2,69,126,0
2,61,126,32
2,64,126,0
2,69,126,0
2,61,126,64
2,64,126,0
2,69,126,0
2,61,126,32
2,64,126,0
2,69,126,0
2,61,126,32
2,64,126,0
2,69,126,0
2,61,126,32
2,64,126,0
2,69,126,0
2,61,126,32
2,64,126,0
2,69,126,0
2,61,126,64
2,64,126,0
2,69,126,0
2,61,126,32
2,64,126,0
2,69,126,0
2,61,126,32
2,64,126,0
2,69,126,0
2,59,126,64
2,62,126,0
2,67,126,0
2,59,126,64
2,62,126,0
2,67,126,0
2,59,126,32
2,62,126,0
2,67,126,0
2,59,126,32
2,62,126,0
2,67,126,0
2,59,126,32
2,62,126,0
2,67,126,0
2,59,126,32
2,62,126,0
2,67,126,0
2,59,126,64
2,62,126,0
2,67,126,0
2,59,126,32
2,62,126,0
2,67,126,0
2,59,126,32
2,62,126,0
2,67,126,0
2,59,126,32
2,62,126,0
2,67,126,0
2,59,126,32
2,62,126,0
2,67,126,0
2,59,126,64
2,62,126,0
2,67,126,0
2,59,126,32
2,62,126,0
2,67,126,0
2,59,126,32
2,62,126,0
2,67,126,0
2,59,126,32
2,62,126,0
2,67,126,0
2,59,126,32
2,62,126,0
2,67,126,0
2,59,126,64
2,62,126,0
2,67,126,0
2,59,126,32
2,62,126,0
2,67,126,0
2,59,126,32
2,62,126,0
2,67,126,0
2,61,126,64
2,64,126,0
2,69,126,0
2,61,126,64
2,64,126,0
2,69,126,0
2,61,126,32
2,64,126,0
2,69,126,0
2,61,126,32
2,64,126,0
2,69,126,0
2,61,126,32
2,64,126,0
2,69,126,0
2,61,126,32
2,64,126,0
2,69,126,0
2,61,126,64
2,64,126,0
2,69,126,0
2,61,126,32
2,64,126,0
2,69,126,0
2,61,126,32
2,64,126,0
2,69,126,0
2,61,126,32
2,64,126,0
2,69,126,0
2,61,126,32
2,64,126,0
2,69,126,0
2,61,126,64
2,64,126,0
2,69,126,0
2,61,126,32
2,64,126,0
2,69,126,0
2,61,126,32
2,64,126,0
2,69,126,0
2,61,126,32
2,64,126,0
2,69,126,0
2,61,126,32
2,64,126,0
2,69,126,0
2,61,126,64
2,64,126,0
2,69,126,0
2,61,126,32
2,64,126,0
2,69,126,0
2,61,126,32
2,64,126,0
2,69,126,0
2,59,126,64
2,62,126,0
2,67,126,0
2,59,126,64
2,62,126,0
2,67,126,0
2,59,126,32
2,62,126,0
2,67,126,0
2,59,126,32
2,62,126,0
2,67,126,0
2,59,126,32
2,62,126,0
2,67,126,0
2,59,126,32
2,62,126,0
2,67,126,0
2,59,126,64
2,62,126,0
2,67,126,0
2,59,126,32
2,62,126,0
2,67,126,0
2,59,126,32
2,62,126,0
2,67,126,0
2,59,126,32
2,62,126,0
2,67,126,0
2,59,126,32
2,62,126,0
2,67,126,0
2,59,126,64
2,62,126,0
2,67,126,0
2,59,126,32
2,62,126,0
2,67,126,0
2,59,126,32
2,62,126,0
2,67,126,0
2,59,126,32
2,62,126,0
2,67,126,0
2,59,126,32
2,62,126,0
2,67,126,0
2,59,126,64
2,62,126,0
2,67,126,0
2,59,126,32
2,62,126,0
2,67,126,0
2,59,126,32
2,62,126,0
2,67,126,0
2,60,126,64
2,57,126,0
2,65,126,0
2,57,126,64
2,60,126,0
2,65,126,0
2,57,126,32
2,60,126,0
2,65,126,0
2,57,126,32
2,60,126,0
2,65,126,0
2,57,126,32
2,60,126,0
2,65,126,0
2,60,126,32
2,57,126,0
2,65,126,0
2,57,126,64
2,60,126,0
2,65,126,0
2,57,126,32
2,60,126,0
2,65,126,0
2,57,126,32
2,60,126,0
2,65,126,0
2,57,126,32
2,60,126,0
2,65,126,0
2,60,126,32
2,57,126,0
2,65,126,0
2,57,126,64
2,60,126,0
2,65,126,0
2,57,126,32
2,60,126,0
2,65,126,0
2,57,126,32
2,60,126,0
2,65,126,0
2,57,126,32
2,60,126,0
2,65,126,0
2,60,126,32
2,57,126,0
2,65,126,0
2,57,126,64
2,60,126,0
2,65,126,0
2,57,126,32
2,60,126,0
2,65,126,0
2,60,126,32
2,57,126,0
2,65,126,0
2,62,126,64
2,58,126,0
2,58,126,64
2,62,126,0
2,58,126,32
2,62,126,0
2,58,126,32
2,62,126,0
2,58,126,32
2,62,126,0
2,62,126,32
2,58,126,0
2,58,126,64
2,62,126,0
2,58,126,32
2,62,126,0
2,62,126,32
2,58,126,0
2,56,126,64
2,59,126,0
2,64,126,0
2,56,126,64
2,59,126,0
2,64,126,0
2,56,126,32
2,59,126,0
2,64,126,0
2,56,126,32
2,59,126,0
2,64,126,0
2,56,126,32
2,59,126,0
2,64,126,0
2,56,126,32
2,59,126,0
2,64,126,0
2,56,126,64
2,59,126,0
2,64,126,0
2,56,126,32
2,59,126,0
2,64,126,0
2,56,126,32
2,59,126,0
2,64,126,0
2,61,126,64
2,64,126,0
2,69,126,0
2,61,126,64
2,64,126,0
2,69,126,0
2,61,126,32
2,64,126,0
2,69,126,0
2,61,126,32
2,64,126,0
2,69,126,0
2,61,126,32
2,64,126,0
2,69,126,0
2,61,126,32
2,64,126,0
2,69,126,0
2,61,126,64
2,64,126,0
2,69,126,0
2,61,126,32
2,64,126,0
2,69,126,0
2,61,126,32
2,64,126,0
2,69,126,0
2,61,126,32
2,64,126,0
2,69,126,0
2,61,126,32
2,64,126,0
2,69,126,0
2,61,126,64
2,64,126,0
2,69,126,0
2,61,126,32
2,64,126,0
2,69,126,0
2,61,126,32
2,64,126,0
2,69,126,0
2,61,126,32
2,64,126,0
2,69,126,0
2,61,126,32
2,64,126,0
2,69,126,0
2,61,126,64
2,64,126,0
2,69,126,0
2,61,126,32
2,64,126,0
2,69,126,0
2,61,126,32
2,64,126,0
2,69,126,0
2,59,126,64
2,62,126,0
2,67,126,0
2,59,126,64
2,62,126,0
2,67,126,0
2,59,126,32
2,62,126,0
2,67,126,0
2,59,126,32
2,62,126,0
2,67,126,0
2,59,126,32
2,62,126,0
2,67,126,0
2,59,126,32
2,62,126,0
2,67,126,0
2,59,126,64
2,62,126,0
2,67,126,0
2,59,126,32
2,62,126,0
2,67,126,0
2,59,126,32
2,62,126,0
2,67,126,0
2,59,126,32
2,62,126,0
2,67,126,0
2,59,126,32
2,62,126,0
2,67,126,0
2,59,126,64
2,62,126,0
2,67,126,0
2,59,126,32
2,62,126,0
2,67,126,0
2,59,126,32
2,62,126,0
2,67,126,0
2,59,126,32
2,62,126,0
2,67,126,0
2,59,126,32
2,62,126,0
2,67,126,0
2,59,126,64
2,62,126,0
2,67,126,0
2,59,126,32
2,62,126,0
2,67,126,0
2,59,126,32
2,62,126,0
2,67,126,0
2,60,126,64
2,57,126,0
2,65,126,0
2,57,126,64
2,60,126,0
2,65,126,0
2,57,126,32
2,60,126,0
2,65,126,0
2,57,126,32
2,60,126,0
2,65,126,0
2,57,126,32
2,60,126,0
2,65,126,0
2,60,126,32
2,57,126,0
2,65,126,0
2,57,126,64
2,60,126,0
2,65,126,0
2,57,126,32
2,60,126,0
2,65,126,0
2,57,126,32
2,60,126,0
2,65,126,0
2,57,126,32
2,60,126,0
2,65,126,0
2,60,126,32
2,57,126,0
2,65,126,0
2,57,126,64
2,60,126,0
2,65,126,0
2,57,126,32
2,60,126,0
2,65,126,0
2,57,126,32
2,60,126,0
2,65,126,0
2,57,126,32
2,60,126,0
2,65,126,0
2,60,126,32
2,57,126,0
2,65,126,0
2,57,126,64
2,60,126,0
2,65,126,0
2,57,126,32
2,60,126,0
2,65,126,0
2,60,126,32
2,57,126,0
2,65,126,0
2,62,126,64
2,58,126,0
2,58,126,64
2,62,126,0
2,58,126,32
2,62,126,0
2,58,126,32
2,62,126,0
2,58,126,32
2,62,126,0
2,62,126,32
2,58,126,0
2,58,126,64
2,62,126,0
2,58,126,32
2,62,126,0
2,62,126,32
2,58,126,0
2,56,126,64
2,59,126,0
2,64,126,0
2,56,126,64
2,59,126,0
2,64,126,0
2,56,126,32
2,59,126,0
2,64,126,0
2,56,126,32
2,59,126,0
2,64,126,0
2,56,126,32
2,59,126,0
2,64,126,0
2,56,126,32
2,59,126,0
2,64,126,0
2,56,126,64
2,59,126,0
2,64,126,0
2,56,126,32
2,59,126,0
2,64,126,0
2,56,126,32
2,59,126,0
2,64,126,0
2,61,126,64
2,64,126,0
2,69,126,0
2,61,126,64
2,64,126,0
2,69,126,0
2,61,126,32
2,64,126,0
2,69,126,0
2,61,126,32
2,64,126,0
2,69,126,0
2,61,126,32
2,64,126,0
2,69,126,0
2,61,126,32
2,64,126,0
2,69,126,0
2,61,126,64
2,64,126,0
2,69,126,0
2,61,126,32
2,64,126,0
2,69,126,0
2,61,126,32
2,64,126,0
2,69,126,0
2,61,126,32
2,64,126,0
2,69,126,0
2,61,126,32
2,64,126,0
2,69,126,0
2,61,126,64
2,64,126,0
2,69,126,0
2,61,126,32
2,64,126,0
2,69,126,0
2,61,126,32
2,64,126,0
2,69,126,0
2,61,126,32
2,64,126,0
2,69,126,0
2,61,126,32
2,64,126,0
2,69,126,0
2,61,126,64
2,64,126,0
2,69,126,0
2,61,126,32
2,64,126,0
2,69,126,0
2,61,126,32
2,64,126,0
2,69,126,0
2,59,126,64
2,62,126,0
2,67,126,0
2,59,126,64
2,62,126,0
2,67,126,0
2,59,126,32
2,62,126,0
2,67,126,0
2,59,126,32
2,62,126,0
2,67,126,0
2,59,126,32
2,62,126,0
2,67,126,0
2,59,126,32
2,62,126,0
2,67,126,0
2,59,126,64
2,62,126,0
2,67,126,0
2,59,126,32
2,62,126,0
2,67,126,0
2,59,126,32
2,62,126,0
2,67,126,0
2,59,126,32
2,62,126,0
2,67,126,0
2,59,126,32
2,62,126,0
2,67,126,0
2,59,126,64
2,62,126,0
2,67,126,0
2,59,126,32
2,62,126,0
2,67,126,0
2,59,126,32
2,62,126,0
2,67,126,0
2,59,126,32
2,62,126,0
2,67,126,0
2,59,126,32
2,62,126,0
2,67,126,0
2,59,126,64
2,62,126,0
2,67,126,0
2,59,126,32
2,62,126,0
2,67,126,0
2,59,126,32
2,62,126,0
2,67,126,0
2,60,126,64
