track,note,velocity,time
0,44,100,0
0,44,100,2
0,60,100,1
0,68,100,0
0,63,100,0
0,44,0,1
0,60,100,1
0,68,100,0
0,63,100,0
0,44,100,105
0,44,100,2
0,63,100,176
0,60,100,0
0,68,100,0
0,63,100,2
0,60,100,0
0,68,100,0
0,60,0,12
0,68,0,0
0,63,0,0
0,60,0,2
0,68,0,0
0,63,0,0
0,44,0,45
0,44,0,2
0,48,100,12
0,48,100,2
0,63,0,42
0,60,0,0
0,68,0,0
0,63,0,2
0,60,0,0
0,68,0,0
0,48,0,313
0,67,100,1
0,60,100,0
0,63,100,0
0,48,0,1
0,67,100,1
0,60,100,0
0,63,100,0
0,48,100,105
0,48,100,2
0,67,0,130
0,60,0,0
0,63,0,0
0,67,0,2
0,60,0,0
0,63,0,0
0,63,100,44
0,60,100,0
0,67,100,0
0,63,100,2
0,60,100,0
0,67,100,0
0,48,0,59
0,48,0,2
0,46,100,12
0,46,100,2
0,63,0,42
0,60,0,0
0,67,0,0
0,63,0,2
0,60,0,0
0,67,0,0
0,46,0,313
0,70,100,1
0,58,100,0
0,61,100,0
0,65,100,0
0,46,0,1
0,70,100,1
0,58,100,0
0,61,100,0
0,65,100,0
0,46,100,105
0,46,100,2
0,70,0,130
0,58,0,0
0,61,0,0
0,65,0,0
0,70,0,2
0,58,0,0
0,61,0,0
0,65,0,0
0,70,100,44
0,61,100,0
0,58,100,0
0,65,100,0
0,70,100,2
0,61,100,0
0,58,100,0
0,65,100,0
0,46,0,59
0,46,0,2
0,39,100,12
0,51,100,0
0,39,100,2
0,51,100,0
0,70,0,42
0,61,0,0
0,58,0,0
0,65,0,0
0,70,0,2
0,61,0,0
0,58,0,0
0,65,0,0
0,39,0,13
0,51,0,0
0,39,0,2
0,51,0,0
0,39,100,119
0,51,100,0
0,39,100,2
0,51,100,0
0,58,100,178
0,61,100,0
0,63,100,0
0,67,100,0
0,70,100,0
0,58,100,2
0,61,100,0
0,63,100,0
0,67,100,0
0,70,100,0
0,51,100,103
0,39,100,0
0,51,100,2
0,39,100,0
0,39,0,12
0,51,0,0
0,39,0,2
0,51,0,0
0,58,100,164
0,61,100,0
0,63,100,0
0,67,100,0
0,70,100,0
0,58,100,2
0,61,100,0
0,63,100,0
0,67,100,0
0,70,100,0
0,58,0,12
0,61,0,0
0,63,0,0
0,67,0,0
0,70,0,0
0,58,0,2
0,61,0,0
0,63,0,0
0,67,0,0
0,70,0,0
0,44,100,59
0,44,100,2
0,51,0,42
0,39,0,0
0,58,0,0
0,61,0,0
0,63,0,0
0,67,0,0
0,70,0,0
0,51,0,2
0,39,0,0
0,58,0,0
0,61,0,0
0,63,0,0
0,67,0,0
0,70,0,0
0,44,0,313
0,60,100,1
0,68,100,0
0,63,100,0
0,44,0,1
0,60,100,1
0,68,100,0
0,63,100,0
0,44,100,105
0,44,100,2
0,63,100,176
0,60,100,0
0,68,100,0
0,63,100,2
0,60,100,0
0,68,100,0
0,60,0,12
0,68,0,0
0,63,0,0
0,60,0,2
0,68,0,0
0,63,0,0
0,44,0,45
0,44,0,2
0,48,100,12
0,48,100,2
0,63,0,42
0,60,0,0
0,68,0,0
0,63,0,2
0,60,0,0
0,68,0,0
0,48,0,313
0,67,100,1
0,60,100,0
0,63,100,0
0,48,0,1
0,67,100,1
0,60,100,0
0,63,100,0
0,48,100,105
0,48,100,2
0,67,0,130
0,60,0,0
0,63,0,0
0,67,0,2
0,60,0,0
0,63,0,0
0,63,100,44
0,60,100,0
0,67,100,0
0,63,100,2
0,60,100,0
0,67,100,0
0,48,0,59
0,48,0,2
0,46,100,12
0,46,100,2
0,63,0,42
0,60,0,0
0,67,0,0
0,63,0,2
0,60,0,0
0,67,0,0
0,58,95,314
0,61,95,0
0,65,95,0
0,58,95,2
0,61,95,0
0,65,95,0
0,45,110,523
0,37,110,15
0,45,110,0
0,37,110,0
0,45,110,72
0,37,110,15
0,45,110,0
0,37,110,3
0,45,100,9
0,37,0,15
0,45,0,0
0,37,0,3
0,43,110,12
0,43,0,15
0,32,110,15
0,44,100,0
0,49,110,0
0,36,110,0
0,44,100,2
0,32,110,1
0,46,100,165
0,46,0,46
0,49,0,14
0,44,0,119
0,60,100,0
0,68,100,0
0,63,100,0
0,38,110,0
0,60,115,0
0,44,0,1
0,60,100,1
0,68,100,0
0,63,100,0
0,60,115,0
0,38,0,13
0,44,100,92
0,44,100,2
0,60,0,11
0,60,0,2
0,46,100,0
0,60,115,0
0,60,115,2
0,32,0,1
0,46,0,43
0,32,100,44
0,32,100,3
0,63,100,12
0,60,100,0
0,68,100,0
0,63,100,2
0,60,100,0
0,68,100,0
0,60,0,12
0,68,0,0
0,63,0,0
0,60,0,1
0,60,0,1
0,68,0,0
0,63,0,0
0,60,0,1
0,44,0,44
0,44,0,2
0,36,110,0
0,48,100,0
0,36,110,0
0,60,115,0
0,48,100,0
0,60,115,0
0,32,0,1
0,36,110,0
0,60,115,0
0,60,0,2
0,60,115,0
0,46,100,0
0,60,0,0
0,60,115,0
0,60,0,2
0,60,115,0
0,46,0,44
0,58,115,0
0,60,0,2
0,58,115,0
0,48,0,57
0,67,100,0
0,60,100,0
0,63,100,0
0,38,110,0
0,58,0,0
0,60,115,0
0,48,0,1
0,67,100,1
0,60,100,0
0,63,100,0
0,58,0,0
0,60,115,0
0,38,0,13
0,58,115,0
0,58,115,2
0,60,0,8
0,60,0,2
0,48,100,5
0,48,100,2
0,36,0,71
0,46,100,0
0,36,0,3
0,46,0,43
0,67,0,13
0,60,0,0
0,63,0,0
0,67,0,2
0,60,0,0
0,63,0,0
0,31,110,0
0,58,0,0
0,58,115,0
0,58,0,2
0,58,115,0
0,31,110,1
0,63,100,12
0,60,100,0
0,67,100,0
0,63,100,2
0,60,100,0
0,67,100,0
0,48,0,59
0,48,0,2
0,31,0,12
0,34,110,0
0,46,100,0
0,46,100,0
0,36,110,0
0,46,100,2
0,31,0,1
0,34,110,0
0,36,0,12
0,63,0,29
0,60,0,0
0,67,0,0
0,63,0,2
0,60,0,0
0,67,0,0
0,46,0,0
0,46,100,0
0,58,0,0
0,56,115,0
0,58,0,2
0,56,115,0
0,46,0,44
0,58,115,0
0,56,0,2
0,58,115,0
0,46,0,87
0,70,100,1
0,58,100,0
0,61,100,0
0,65,100,0
0,38,110,0
0,46,0,1
0,70,100,1
0,58,100,0
0,61,100,0
0,65,100,0
0,38,0,13
0,46,100,92
0,46,100,2
0,34,0,71
0,46,100,0
0,34,0,3
0,46,0,43
0,70,0,13
0,58,0,0
0,61,0,0
0,65,0,0
0,58,0,1
0,70,0,1
0,58,0,0
0,61,0,0
0,65,0,0
0,58,0,1
0,34,110,28
0,34,110,3
0,70,100,12
0,61,100,0
0,58,100,0
0,65,100,0
0,70,100,2
0,61,100,0
0,58,100,0
0,65,100,0
0,44,100,13
0,46,0,46
0,44,0,0
0,46,0,2
0,34,0,12
0,39,110,0
0,39,100,0
0,51,100,0
0,46,100,0
0,36,110,0
0,39,100,2
0,51,100,0
0,34,0,1
0,39,110,0
0,36,0,12
0,70,0,29
0,61,0,0
0,58,0,0
0,65,0,0
0,70,0,2
0,61,0,0
0,58,0,0
0,65,0,0
0,46,0,0
0,39,0,13
0,51,0,0
0,39,0,2
0,51,0,0
0,39,0,29
0,39,0,3
0,39,110,87
0,39,100,0
0,51,100,0
0,46,100,0
0,36,110,0
0,39,100,2
0,51,100,0
0,39,110,1
0,36,0,12
0,46,0,31
0,58,100,134
0,61,100,0
0,63,100,0
0,67,100,0
0,70,100,0
0,44,100,0
0,38,110,0
0,58,100,2
0,61,100,0
0,63,100,0
0,67,100,0
0,70,100,0
0,38,0,13
0,44,0,31
0,39,0,44
0,42,115,0
0,36,110,0
0,39,0,3
0,42,115,0
0,51,100,12
0,39,100,0
0,36,0,0
0,51,100,2
0,39,100,0
0,39,0,12
0,51,0,0
0,46,100,1
0,39,0,1
0,51,0,0
0,46,0,59
0,44,100,0
0,58,100,0
0,61,100,0
0,63,100,0
0,67,100,0
0,70,100,0
0,58,100,2
0,61,100,0
0,63,100,0
0,67,100,0
0,70,100,0
0,32,110,0
0,44,100,0
0,49,110,0
0,36,110,0
0,44,100,2
0,42,0,1
0,32,110,0
0,46,96,134
0,46,0,45
0,49,0,15
0,44,0,119
0,60,100,1
0,68,100,0
0,63,100,0
0,38,110,0
0,44,0,1
0,60,100,1
0,68,100,0
0,63,100,0
0,38,0,13
0,44,100,92
0,44,100,2
0,56,112,0
0,56,112,2
0,46,96,0
0,56,0,0
0,56,115,0
0,56,0,2
0,56,115,0
0,32,0,1
0,46,0,42
0,32,110,45
0,32,110,3
0,63,100,12
0,60,100,0
0,68,100,0
0,63,100,2
0,60,100,0
0,68,100,0
0,60,115,0
0,56,0,2
0,60,115,0
0,60,0,7
0,68,0,0
0,63,0,0
0,60,0,2
0,68,0,0
0,63,0,0
0,44,0,45
0,44,0,2
0,32,0,12
0,36,110,0
0,48,100,0
0,36,110,0
0,48,100,2
0,32,0,1
0,36,110,0
0,36,0,12
0,63,0,29
0,60,0,0
0,68,0,0
0,63,0,2
0,60,0,0
0,68,0,0
0,60,0,124
0,60,0,2
0,46,96,0
0,63,115,0
0,63,115,2
0,46,0,43
0,60,115,0
0,63,0,2
0,60,115,0
0,48,0,72
0,36,0,1
0,67,100,0
0,60,100,0
0,63,100,0
0,38,110,0
0,48,0,1
0,67,100,1
0,60,100,0
0,63,100,0
0,36,0,1
0,38,0,12
0,60,0,90
0,48,100,2
0,60,0,0
0,48,100,2
0,36,110,0
0,44,96,0
0,58,110,0
0,58,110,2
0,36,110,1
0,44,0,42
0,39,110,0
0,46,96,0
0,58,0,0
0,56,112,0
0,58,0,2
0,56,112,0
0,36,0,1
0,39,110,0
0,67,0,56
0,60,0,0
0,63,0,0
0,67,0,2
0,60,0,0
0,63,0,0
0,63,100,44
0,60,100,0
0,67,100,0
0,63,100,2
0,60,100,0
0,67,100,0
0,43,110,0
0,46,0,0
0,56,0,0
0,53,110,0
0,56,0,2
0,53,110,0
0,39,0,1
0,43,110,0
0,48,0,43
0,48,0,2
0,43,0,12
0,34,110,0
0,46,100,0
0,46,96,0
0,36,110,0
0,46,100,2
0,43,0,1
0,34,110,0
0,36,0,12
0,63,0,29
0,60,0,0
0,67,0,0
0,46,0,1
0,63,0,1
0,60,0,0
0,67,0,0
0,53,0,64
0,53,0,2
0,44,96,0
0,53,105,0
0,53,105,2
0,44,0,43
0,46,96,15
0,46,0,45
0,65,95,135
0,58,95,0
0,61,95,0
0,38,110,0
0,65,95,2
0,58,95,0
0,61,95,0
0,38,0,13
0,53,0,75
0,53,0,2
0,34,0,88
0,51,100,0
0,34,0,3
0,51,0,42
0,34,110,75
0,46,100,0
0,34,110,3
0,46,0,56
0,65,0,0
0,58,0,0
0,61,0,0
0,39,110,0
0,55,100,0
0,58,100,0
0,63,100,0
0,46,0,0
0,40,110,0
0,46,0,1
0,65,0,0
0,58,0,0
0,61,0,0
0,55,100,1
0,58,100,0
0,63,100,0
0,34,0,1
0,39,110,0
0,40,0,12
0,39,0,75
0,39,110,0
0,55,0,0
0,58,0,0
0,63,0,0
0,55,100,0
0,58,100,0
0,63,100,0
0,40,110,0
0,55,0,2
0,58,0,0
0,63,0,0
0,55,100,0
0,58,100,0
0,63,100,0
0,39,0,1
0,39,110,0
0,40,0,12
0,39,0,75
0,39,110,0
0,55,0,0
0,58,0,0
0,63,0,0
0,55,100,0
0,58,100,0
0,63,100,0
0,40,110,0
0,55,0,2
0,58,0,0
0,63,0,0
0,55,100,0
0,58,100,0
0,63,100,0
0,39,0,1
0,39,110,0
0,40,0,12
0,39,0,75
0,39,110,0
0,55,0,0
0,58,0,0
0,63,0,0
0,63,110,0
0,55,100,0
0,58,100,0
0,40,110,0
0,55,0,2
0,58,0,0
0,63,0,0
0,63,110,0
0,55,100,0
0,58,100,0
0,39,0,1
0,39,110,0
0,40,0,12
0,39,0,75
0,39,110,0
0,63,0,0
0,55,0,0
0,58,0,0
0,55,110,0
0,58,110,0
0,63,110,0
0,40,110,0
0,63,0,2
0,55,0,0
0,58,0,0
0,55,110,0
0,58,110,0
0,63,110,0
0,39,0,1
0,39,110,0
0,40,0,12
0,39,0,75
0,55,0,0
0,58,0,0
0,63,0,0
0,55,0,2
0,58,0,0
0,63,0,0
0,39,0,1
0,32,120,87
0,44,100,0
0,49,110,0
0,36,110,0
0,44,100,2
0,32,120,1
0,36,0,12
0,49,0,165
0,46,100,0
0,46,0,45
0,44,100,75
0,44,0,45
0,46,100,15
0,46,0,45
0,37,110,0
0,60,100,0
0,68,100,0
0,63,100,0
0,46,100,0
0,38,110,0
0,60,110,0
0,44,0,2
0,60,100,0
0,68,100,0
0,63,100,0
0,60,110,0
0,37,110,0
0,44,100,2
0,44,100,1
0,46,100,0
0,60,110,0
0,60,110,2
0,32,110,0
0,60,0,0
0,60,110,0
0,60,110,0
0,32,110,0
0,63,100,0
0,60,100,0
0,68,100,0
0,63,100,2
0,60,100,0
0,68,100,0
0,36,110,0
0,48,100,0
0,46,100,0
0,36,110,0
0,48,100,2
0,36,110,0
0,60,110,0
0,60,0,2
0,60,110,0
0,46,100,88
0,46,0,45
0,60,0,65
0,60,0,2
0,60,110,8
0,60,110,2
0,48,0,57
0,67,100,0
0,60,100,0
0,63,100,0
0,38,110,0
0,60,0,0
0,60,110,0
0,48,0,1
0,67,100,1
0,60,100,0
0,63,100,0
0,60,0,0
0,60,110,0
0,38,0,13
0,48,100,92
0,48,100,2
0,60,110,0
0,60,0,2
0,60,110,0
0,46,100,0
0,60,0,0
0,60,110,0
0,60,0,2
0,60,110,0
0,46,0,43
0,67,0,14
0,60,0,0
0,63,0,0
0,67,0,2
0,60,0,0
0,63,0,0
0,63,100,44
0,60,100,0
0,67,100,0
0,63,100,2
0,60,100,0
0,67,100,0
0,58,110,0
0,60,0,2
0,58,110,0
0,31,110,13
0,31,110,3
0,48,0,28
0,48,0,2
0,31,0,12
0,34,110,0
0,46,100,0
0,46,100,0
0,36,110,0
0,46,100,2
0,31,0,1
0,34,110,0
0,36,0,12
0,63,0,29
0,60,0,0
0,67,0,0
0,63,0,2
0,60,0,0
0,67,0,0
0,46,100,0
0,58,0,0
0,56,110,0
0,58,0,2
0,56,110,0
0,46,0,43
0,58,110,0
0,56,0,2
0,58,110,0
0,46,0,87
0,70,100,1
0,58,100,0
0,61,100,0
0,65,100,0
0,38,110,0
0,46,0,1
0,70,100,1
0,58,100,0
0,61,100,0
0,65,100,0
0,38,0,13
0,46,100,92
0,46,100,2
0,34,0,71
0,46,100,0
0,34,0,3
0,46,0,42
0,70,0,14
0,58,0,0
0,61,0,0
0,65,0,0
0,58,0,1
0,70,0,1
0,58,0,0
0,61,0,0
0,65,0,0
0,58,0,1
0,70,100,43
0,61,100,0
0,58,100,0
0,65,100,0
0,70,100,2
0,61,100,0
0,58,100,0
0,65,100,0
0,44,100,13
0,34,110,15
0,34,110,3
0,44,0,27
0,46,0,1
0,46,0,2
0,34,0,12
0,39,110,0
0,39,100,0
0,51,100,0
0,46,100,0
0,36,110,0
0,39,100,2
0,51,100,0
0,34,0,1
0,39,110,0
0,36,0,12
0,70,0,29
0,61,0,0
0,58,0,0
0,65,0,0
0,46,0,1
0,70,0,1
0,61,0,0
0,58,0,0
0,65,0,0
0,39,0,13
0,51,0,0
0,39,0,2
0,51,0,0
0,39,0,29
0,39,0,3
0,44,100,27
0,36,100,0
0,36,0,15
0,44,0,30
0,39,110,15
0,39,100,0
0,51,100,0
0,46,100,0
0,39,100,2
0,51,100,0
0,39,110,1
0,46,0,42
0,44,100,75
0,44,0,45
0,58,100,15
0,61,100,0
0,63,100,0
0,67,100,0
0,70,100,0
0,38,110,0
0,58,100,2
0,61,100,0
0,63,100,0
0,67,100,0
0,70,100,0
0,38,0,13
0,39,0,75
0,42,115,0
0,42,115,0
0,51,100,12
0,39,100,0
