track,note,velocity,time
0,66,123,196
0,69,116,0
0,64,111,0
0,66,121,0
0,64,120,8
0,62,116,8
0,35,104,8
0,38,82,0
0,31,103,0
0,43,97,0
0,64,121,0
0,38,77,4
0,62,120,12
0,42,98,20
0,38,105,0
0,35,110,236
0,38,83,0
0,52,96,0
0,35,105,12
0,38,81,0
0,38,103,0
0,50,98,0
0,38,88,60
0,42,91,20
0,38,112,0
0,40,95,0
0,52,106,0
0,38,82,60
0,35,109,140
0,38,85,0
0,31,112,0
0,43,97,0
0,38,82,236
0,59,117,12
0,42,107,128
0,38,104,0
0,35,115,132
0,38,77,0
0,52,100,0
0,35,115,12
0,38,81,0
0,38,103,0
0,50,94,0
0,62,115,0
0,59,116,12
0,38,89,48
0,42,106,16
0,38,110,0
0,40,99,0
0,52,96,0
0,62,107,0
0,59,107,12
0,38,89,60
0,62,109,12
0,35,109,128
0,38,90,0
0,38,111,0
0,50,98,0
0,38,85,36
0,59,108,12
0,42,108,12
0,38,113,0
0,57,113,0
0,35,102,236
0,38,84,0
0,47,92,0
0,35,103,12
0,38,78,0
0,33,103,0
0,45,93,0
0,38,76,60
0,42,108,20
0,38,106,0
0,35,106,0
0,47,92,0
0,38,89,60
0,35,110,140
0,38,88,0
0,38,107,0
0,50,91,0
0,38,83,236
0,66,110,12
0,42,93,128
0,38,103,0
0,35,115,12
0,38,83,0
0,47,106,0
0,69,114,12
0,35,109,12
0,38,84,0
0,33,103,0
0,45,95,0
0,38,84,12
0,71,104,12
0,42,108,20
0,38,106,0
0,35,112,0
0,47,98,0
0,38,90,12
0,69,110,12
0,35,115,12
0,38,79,0
0,31,105,0
0,43,100,0
0,64,113,0
0,38,81,4
0,62,115,12
0,42,109,128
0,38,104,0
0,35,104,132
0,38,76,0
0,52,94,0
0,35,104,12
0,38,87,0
0,38,108,0
0,50,103,0
0,38,78,60
0,42,104,20
0,38,102,0
0,40,101,0
0,52,106,0
0,38,90,60
0,35,108,140
0,38,80,0
0,31,102,0
0,43,99,0
0,38,83,236
0,42,105,140
0,38,106,0
0,59,107,0
0,35,104,132
0,38,88,0
0,52,94,0
0,35,101,12
0,38,85,0
0,38,109,0
0,50,95,0
0,38,90,12
0,62,111,12
0,42,98,12
0,38,114,0
0,40,106,0
0,52,91,0
0,59,110,0
0,38,76,24
0,62,119,12
0,35,104,128
0,38,87,0
0,38,108,0
0,50,89,0
0,38,81,12
0,59,112,12
0,42,98,12
0,38,102,0
0,57,110,0
0,35,115,4
0,38,76,0
0,47,92,0
0,35,105,12
0,38,85,0
0,33,104,0
0,45,95,0
0,38,82,60
0,42,106,20
0,38,102,0
0,35,95,0
0,47,104,0
0,38,84,60
0,35,102,140
0,38,83,0
0,38,112,0
0,50,103,0
0,38,85,236
0,42,108,140
0,38,106,0
0,35,112,132
0,38,84,0
0,47,107,0
0,35,106,12
0,38,90,0
0,33,96,0
0,45,102,0
0,65,113,0
0,38,85,4
0,64,119,12
0,42,103,20
0,38,103,0
0,35,95,0
0,47,100,0
0,62,114,12
0,38,80,60
0,64,109,12
0,35,101,12
0,38,90,0
0,31,106,0
0,43,90,0
0,62,104,0
0,64,113,12
0,38,79,112
0,62,117,12
0,42,91,128
0,38,115,0
0,35,98,132
0,38,85,0
0,52,102,0
0,35,106,12
0,38,78,0
0,38,110,0
0,50,89,0
0,38,87,60
0,42,105,20
0,38,105,0
0,40,111,0
0,52,99,0
0,38,79,60
0,35,100,140
0,38,86,0
0,31,96,0
0,43,97,0
0,38,77,236
0,42,107,140
0,38,107,0
0,35,100,132
0,38,77,0
0,52,95,0
0,59,111,12
0,35,115,12
0,38,87,0
0,38,112,0
0,50,98,0
0,62,117,0
0,38,87,4
0,62,117,12
0,42,99,12
0,38,115,0
0,40,100,0
0,52,104,0
0,64,115,0
0,38,87,4
0,66,117,12
0,35,115,128
0,38,89,0
0,35,105,0
0,47,96,0
0,38,83,12
0,64,116,12
0,42,99,12
0,38,102,0
0,66,120,0
0,35,109,132
0,38,80,0
0,47,101,0
0,35,98,12
0,38,82,0
0,30,98,0
0,42,93,0
0,38,86,60
0,42,90,20
0,38,106,0
0,33,99,0
0,45,91,0
0,38,82,60
0,35,104,140
0,38,88,0
0,35,114,0
0,47,100,0
0,38,85,236
0,42,100,140
0,38,112,0
0,35,106,132
0,38,81,0
0,47,99,0
0,59,107,12
0,35,99,12
0,38,89,0
0,30,106,0
0,42,105,0
0,66,107,0
0,38,81,4
0,64,108,12
0,42,92,12
0,38,114,0
0,33,95,0
0,45,102,0
0,62,123,0
0,38,78,4
0,64,107,12
0,35,109,128
0,38,83,0
0,31,98,0
0,43,99,0
0,38,79,12
0,62,112,12
0,42,103,128
0,38,106,0
0,35,103,132
0,38,85,0
0,52,96,0
0,35,109,12
0,38,78,0
0,38,98,0
0,50,91,0
0,38,85,60
0,42,103,20
0,38,111,0
0,40,105,0
0,52,98,0
0,38,77,60
0,35,103,28
0,38,87,0
0,33,99,0
0,45,104,0
0,38,88,236
0,59,112,12
0,42,95,12
0,38,103,0
0,62,122,0
0,64,112,12
0,35,112,4
0,38,80,0
0,65,118,12
0,35,111,12
0,38,78,0
0,35,107,0
0,47,107,0
0,64,123,0
0,38,78,4
0,42,109,28
0,38,103,0
0,37,108,0
0,49,95,0
0,64,121,0
0,38,90,4
0,62,121,12
0,35,102,12
0,38,81,0
0,38,112,0
0,50,106,0
0,62,111,0
0,38,83,60
0,42,109,140
0,38,108,0
0,38,100,0
0,35,98,60
0,38,87,0
0,59,60,0
0,62,76,0
0,67,63,0
0,35,113,36
0,38,76,0
0,31,107,0
0,59,75,0
0,62,73,0
0,67,62,0
0,35,105,12
0,42,107,0
0,38,112,0
0,33,104,0
0,61,73,0
0,64,65,0
0,69,61,0
0,35,115,12
0,38,81,0
0,38,114,0
0,57,76,0
0,62,71,0
0,66,61,0
0,65,111,20
0,66,123,12
0,50,76,348
0,54,72,16
0,69,111,12
0,60,78,8
0,62,66,12
0,66,113,28
0,35,110,4
0,38,80,0
0,31,114,0
0,55,108,0
0,59,116,0
0,62,122,0
0,66,111,0
0,38,89,4
0,59,73,0
0,62,76,0
0,67,69,0
0,55,123,0
0,59,111,0
0,62,112,0
0,66,114,0
0,42,109,12
0,38,102,0
0,35,95,0
0,55,116,0
0,59,123,0
0,62,112,0
0,66,112,0
0,35,115,56
0,38,78,0
0,59,62,0
0,62,70,0
0,67,73,0
0,35,106,4
0,38,80,0
0,38,102,0
0,55,106,0
0,59,113,0
0,62,112,0
0,66,114,0
0,38,89,4
0,59,72,0
0,62,62,0
0,67,70,0
0,55,114,0
0,59,116,0
0,62,113,0
0,66,116,0
0,42,100,12
0,38,113,0
0,35,103,0
0,55,109,0
0,59,112,0
0,62,121,0
0,66,104,0
0,38,87,56
0,59,64,0
0,62,66,0
0,67,75,0
0,35,98,12
0,38,81,0
0,33,111,0
0,52,117,0
0,57,109,0
0,61,121,0
0,64,106,0
0,38,88,236
0,61,71,0
0,64,74,0
0,69,62,0
0,42,100,12
0,38,115,0
0,35,113,0
0,35,104,236
0,38,90,0
0,61,65,0
0,64,76,0
0,69,65,0
0,35,102,12
0,38,83,0
0,37,112,0
0,38,79,236
0,61,79,0
0,64,68,0
0,69,65,0
0,42,97,12
0,38,114,0
0,40,99,0
0,38,82,236
0,61,60,0
0,64,65,0
0,69,75,0
0,35,102,12
0,38,82,0
0,38,114,0
0,57,116,0
0,61,104,0
0,64,104,0
0,64,123,0
0,38,83,236
0,62,62,0
0,66,67,0
0,69,67,0
0,42,92,12
0,38,107,0
0,35,107,0
0,35,109,12
0,38,78,0
0,62,69,0
0,66,68,0
0,69,64,0
0,57,120,12
0,62,113,0
0,66,104,0
0,66,117,0
0,35,100,12
0,38,86,0
0,33,102,0
0,38,80,132
0,62,60,0
0,67,73,0
0,71,60,0
0,42,96,12
0,38,107,0
0,35,96,0
0,38,84,236
0,62,62,0
0,67,68,0
0,71,66,0
0,35,101,12
0,38,81,0
0,38,98,0
0,38,77,236
0,62,62,0
0,66,65,0
0,69,63,0
0,65,117,12
0,42,105,12
0,38,102,0
0,35,105,0
0,66,114,0
0,35,106,236
0,38,76,0
0,62,61,0
0,66,64,0
0,69,61,0
0,35,102,12
0,38,85,0
0,33,106,0
0,69,122,0
0,38,88,236
0,62,76,0
0,66,70,0
0,69,76,0
0,42,92,12
0,38,112,0
0,35,108,0
0,66,104,0
0,38,81,236
0,62,62,0
0,66,77,0
0,69,66,0
0,35,104,4
0,38,76,0
0,31,98,0
0,55,121,0
0,59,121,0
0,62,114,0
0,66,108,0
0,38,85,4
0,59,68,0
0,62,79,0
0,67,72,0
0,55,104,0
0,59,118,0
0,62,115,0
0,66,109,0
0,42,105,12
0,38,110,0
0,35,112,0
0,55,104,0
0,59,115,0
0,62,108,0
0,66,113,0
0,35,105,56
0,38,80,0
0,59,69,0
0,62,79,0
0,67,64,0
0,35,103,4
0,38,85,0
0,38,96,0
0,55,104,0
0,59,119,0
0,62,117,0
0,66,117,0
0,38,81,4
0,59,73,0
0,62,63,0
0,67,68,0
0,55,118,0
0,59,114,0
0,62,104,0
0,66,122,0
0,42,102,12
0,38,102,0
0,35,106,0
0,55,108,0
0,59,119,0
0,62,109,0
0,66,106,0
0,38,77,56
0,59,60,0
0,62,70,0
0,67,62,0
0,35,108,12
0,38,87,0
0,33,114,0
0,52,122,0
0,57,115,0
0,61,109,0
0,64,121,0
0,38,90,236
0,61,78,0
0,64,65,0
0,69,63,0
0,42,101,12
0,38,101,0
0,35,113,0
0,35,107,236
0,38,85,0
0,61,68,0
0,64,75,0
0,69,77,0
0,35,109,12
0,38,83,0
0,37,106,0
0,38,86,236
0,61,60,0
0,64,65,0
0,69,67,0
0,42,95,12
0,38,111,0
0,33,96,0
0,61,71,0
0,64,67,0
0,69,75,0
0,38,86,4
0,61,63,0
0,64,78,0
0,69,77,0
0,35,102,12
0,38,76,0
0,38,98,0
0,57,119,0
0,61,105,0
0,64,110,0
0,64,115,0
0,38,89,236
0,62,78,0
0,66,73,0
0,69,67,0
0,42,100,12
0,38,105,0
0,35,99,0
0,35,108,12
0,38,80,0
0,62,69,0
0,66,77,0
0,69,70,0
0,54,116,12
0,57,111,0
0,62,118,0
0,62,116,0
0,35,108,12
0,38,87,0
0,33,107,0
0,38,86,236
0,62,78,0
0,67,78,0
0,71,64,0
0,42,91,12
0,38,109,0
0,35,108,0
0,59,112,0
0,38,83,4
0,62,75,0
0,66,73,0
0,69,65,0
0,57,109,12
0,35,98,12
0,38,89,0
0,38,101,0
0,38,76,20
0,62,76,0
0,66,72,0
0,69,69,0
0,65,122,12
0,42,109,12
0,38,112,0
0,35,100,0
0,66,113,0
0,35,115,4
0,38,83,0
0,62,70,0
0,66,78,0
0,69,61,0
0,35,114,12
0,38,80,0
0,33,104,0
0,69,123,0
0,38,82,4
0,62,68,0
0,66,70,0
0,69,74,0
0,69,115,12
0,42,101,12
0,38,114,0
0,35,100,0
0,62,74,0
0,66,75,0
0,69,62,0
0,38,83,4
0,62,63,0
0,66,78,0
0,69,71,0
0,71,121,12
0,35,114,12
0,38,82,0
0,31,113,0
0,55,107,0
0,59,106,0
0,62,104,0
0,38,90,132
0,59,70,0
0,62,74,0
0,67,64,0
0,71,111,12
0,42,109,12
0,38,112,0
0,35,102,0
0,35,101,236
0,38,88,0
0,59,79,0
0,62,70,0
0,67,78,0
0,35,104,12
0,38,86,0
0,38,100,0
0,38,87,12
0,59,75,0
0,62,78,0
0,67,62,0
0,66,120,12
0,42,103,12
0,38,106,0
0,40,97,0
0,64,110,0
0,38,90,4
0,59,60,0
0,62,78,0
0,67,74,0
0,62,114,12
0,35,109,12
0,38,78,0
0,30,102,0
0,54,110,0
0,58,123,0
0,61,115,0
0,64,111,0
0,38,87,236
0,58,66,0
0,61,75,0
0,66,76,0
0,42,90,12
0,38,101,0
0,42,110,0
0,35,109,12
0,38,76,0
0,58,69,0
0,61,76,0
0,66,61,0
0,66,104,12
0,35,111,12
0,38,90,0
0,40,106,0
0,38,78,12
0,58,78,0
0,61,65,0
0,66,71,0
0,42,104,12
0,38,102,0
0,37,107,0
0,38,87,24
0,58,74,0
0,61,67,0
0,66,69,0
0,66,114,12
0,35,98,12
0,49,104,0
0,35,100,0
0,59,66,0
0,62,79,0
0,66,74,0
0,54,113,0
0,59,122,0
0,62,119,0
0,71,121,0
0,66,112,20
0,64,117,20
0,35,112,12
0,49,91,0
0,33,112,0
0,57,74,0
0,61,76,0
0,64,63,0
0,52,114,0
0,57,106,0
0,61,105,0
0,64,117,0
0,62,112,20
0,64,110,12
0,66,106,12
0,64,106,12
0,35,107,12
0,49,105,0
0,31,114,0
0,55,78,0
0,59,68,0
0,62,63,0
0,50,119,0
0,55,113,0
0,59,116,0
0,62,123,28
0,42,87,12
0,59,123,16
0,43,82,12
0,62,118,0
0,43,89,4
0,62,122,16
0,43,96,12
0,64,106,0
0,43,87,4
0,66,120,16
0,35,103,20
0,38,87,0
0,31,110,0
0,38,89,12
0,59,61,0
0,62,72,0
0,67,67,0
0,64,112,12
0,42,108,12
0,38,103,0
0,35,113,0
0,35,107,236
0,38,79,0
0,59,75,0
0,62,60,0
0,67,75,0
0,35,100,12
0,38,87,0
0,38,99,0
0,38,87,140
0,59,71,0
0,62,64,0
0,67,71,0
0,62,108,12
0,42,93,12
0,38,111,0
0,35,112,0
0,66,122,0
0,38,78,4
0,59,71,0
0,62,78,0
0,67,79,0
0,64,121,12
0,35,107,12
0,38,82,0
0,33,102,0
0,38,80,12
0,61,68,0
0,64,60,0
0,69,74,0
0,66,122,12
0,42,104,12
0,38,104,0
0,35,98,0
0,35,115,236
0,38,83,0
0,61,73,0
0,64,67,0
0,69,71,0
0,35,101,12
0,38,77,0
0,37,110,0
0,38,78,236
0,61,70,0
0,64,61,0
0,69,65,0
0,42,107,12
0,38,102,0
0,40,111,0
0,38,77,236
0,61,71,0
0,64,73,0
0,69,66,0
0,35,110,4
0,38,81,0
0,43,97,0
0,55,62,0
0,59,62,0
0,62,63,0
0,64,74,0
0,55,111,0
0,59,112,0
0,62,108,0
0,64,121,0
0,35,109,4
0,38,88,0
0,43,108,0
0,55,69,0
0,59,61,0
0,62,73,0
0,64,65,0
0,55,104,0
0,59,116,0
0,62,104,0
0,64,121,0
0,35,105,4
0,38,79,0
0,43,107,0
0,55,72,0
0,59,67,0
0,62,62,0
0,64,61,0
0,55,105,0
0,59,120,0
0,62,114,0
0,64,105,0
0,35,100,4
0,38,83,0
0,43,114,0
0,55,62,0
0,59,63,0
0,62,62,0
0,64,75,0
0,55,109,0
0,59,119,0
0,62,113,0
0,64,120,0
0,35,113,4
0,38,89,0
0,42,99,0
0,55,77,0
0,59,79,0
0,62,68,0
0,64,68,0
0,55,123,0
0,59,113,0
0,62,104,0
0,64,112,0
0,35,111,4
0,38,85,0
0,40,107,0
0,55,69,0
0,59,64,0
0,62,64,0
0,64,76,0
0,55,106,0
0,59,106,0
0,62,123,0
0,64,104,0
0,35,105,12
0,38,86,0
0,38,111,0
0,54,75,0
0,57,76,0
0,62,64,0
0,54,108,0
0,57,104,0
0,62,108,0
0,62,108,0
0,66,114,148
0,64,121,20
0,64,112,28
0,62,104,28
0,35,115,12
0,38,86,0
0,31,108,0
0,43,98,0
0,62,115,0
0,38,82,0
0,64,116,12
0,42,99,20
0,38,106,0
0,35,104,236
0,38,83,0
0,52,93,0
0,35,109,12
0,38,89,0
0,38,95,0
0,50,92,0
0,38,79,60
0,42,91,20
0,38,102,0
0,40,113,0
0,52,105,0
0,38,78,60
0,35,109,140
0,38,89,0
0,31,104,0
0,43,105,0
0,38,82,236
0,59,120,12
0,42,101,12
0,38,108,0
0,62,104,0
0,35,103,4
0,38,83,0
0,52,103,0
0,62,105,12
0,35,109,12
0,38,85,0
0,38,99,0
0,50,101,0
0,59,112,0
0,38,76,4
0,62,114,12
0,42,97,20
0,38,101,0
