track,note,velocity,time
1,51,74,0
1,63,88,0
1,63,0,480
1,51,0,0
1,58,57,960
1,63,68,0
1,63,0,120
1,58,0,0
1,55,51,360
1,58,61,0
1,58,0,120
1,55,0,0
1,56,31,360
1,64,31,0
1,68,37,0
1,68,0,480
1,64,0,0
1,56,0,0
1,55,28,0
1,63,28,0
1,67,32,0
1,67,0,240
1,63,0,0
1,55,0,0
1,59,74,2640
1,56,74,0
1,52,74,0
1,64,88,0
1,64,0,480
1,59,0,0
1,56,0,0
1,52,0,0
1,59,57,960
1,64,68,0
1,64,0,120
1,59,0,0
1,52,45,360
1,56,45,0
1,59,54,0
1,59,0,120
1,56,0,0
1,52,0,0
1,61,31,360
1,70,31,0
1,73,37,0
1,73,0,480
1,70,0,0
1,61,0,0
1,68,28,0
1,71,32,0
1,71,0,240
1,68,0,0
1,60,74,2640
1,57,74,0
1,53,74,0
1,65,88,0
1,65,0,480
1,60,0,0
1,57,0,0
1,53,0,0
1,57,45,240
1,62,53,0
1,62,0,120
1,57,0,0
1,58,47,0
1,63,56,0
1,63,0,120
1,58,0,0
1,59,50,0
1,64,59,0
1,64,0,120
1,59,0,0
1,60,52,0
1,65,59,0
1,65,0,120
1,60,0,0
1,61,55,0
1,67,65,0
1,67,0,120
1,61,0,0
1,62,68,0
1,68,68,0
1,68,0,120
1,62,0,0
1,63,64,0
1,69,76,0
1,69,0,120
1,63,0,0
1,57,62,360
1,53,62,0
1,60,62,0
1,65,74,0
1,65,0,120
1,57,0,0
1,53,0,0
1,60,0,0
1,60,66,360
1,65,66,0
1,72,78,0
1,72,0,480
1,65,0,0
1,60,0,0
1,56,62,0
1,58,62,0
1,62,62,0
1,65,62,0
1,70,73,0
1,70,0,240
1,62,0,0
1,56,0,0
1,58,0,0
1,65,0,0
1,59,49,480
1,64,58,0
1,64,0,120
1,59,0,0
1,60,51,0
1,65,61,0
1,65,0,120
1,60,0,0
1,61,55,0
1,66,64,0
1,66,0,120
1,61,0,0
1,62,57,0
1,67,64,0
1,67,0,120
1,62,0,0
1,63,60,0
1,68,71,0
1,68,0,120
1,63,0,0
1,64,74,0
1,69,74,0
1,69,0,120
1,64,0,0
1,65,64,0
1,70,76,0
1,70,0,120
1,65,0,0
1,58,63,360
1,53,63,0
1,62,75,0
1,65,75,0
1,65,0,120
1,58,0,0
1,53,0,0
1,62,0,0
1,65,70,360
1,70,70,0
1,77,82,0
1,77,0,480
1,70,0,0
1,65,0,0
1,61,65,0
1,63,65,0
1,67,65,0
1,70,65,0
1,75,77,0
1,75,0,240
1,67,0,0
1,61,0,0
1,63,0,0
1,70,0,0
1,73,77,240
1,77,77,0
1,77,0,120
1,73,0,0
1,68,72,0
1,68,0,120
1,67,72,0
1,67,0,120
1,75,72,0
1,75,0,120
1,73,77,0
1,77,77,0
1,77,0,120
1,73,0,0
1,68,70,0
1,68,0,120
1,67,70,0
1,67,0,120
1,75,70,0
1,75,0,120
1,70,77,0
1,77,77,0
1,77,0,120
1,70,0,0
1,67,71,0
1,67,0,120
1,63,71,0
1,63,0,120
1,75,71,0
1,75,0,120
1,72,77,0
1,77,77,0
1,77,0,120
1,72,0,0
1,67,72,0
1,67,0,120
1,63,72,0
1,63,0,120
1,75,72,0
1,75,0,120
1,73,77,0
1,77,77,0
1,77,0,120
1,73,0,0
1,70,71,0
1,70,0,120
1,63,71,0
1,63,0,120
1,75,71,0
1,75,0,120
1,73,73,0
1,77,73,0
1,77,0,120
1,73,0,0
1,70,67,0
1,70,0,120
1,63,68,0
1,63,0,120
1,75,68,0
1,75,0,120
1,73,75,0
1,77,75,0
1,77,0,120
1,73,0,0
1,70,70,0
1,70,0,120
1,63,71,0
1,63,0,120
1,75,71,0
1,75,0,120
1,73,77,0
1,77,77,0
1,77,0,120
1,73,0,0
1,70,72,0
1,70,0,120
1,63,73,0
1,63,0,120
1,75,73,0
1,75,0,120
1,73,80,0
1,77,80,0
1,77,0,120
1,73,0,0
1,70,74,0
1,70,0,120
1,63,75,0
1,63,0,120
1,75,77,0
1,75,0,120
1,73,83,0
1,77,83,0
1,77,0,120
1,73,0,0
1,70,78,0
1,70,0,120
1,63,79,0
1,63,0,120
1,75,79,0
1,75,0,120
1,73,85,0
1,77,85,0
1,77,0,120
1,73,0,0
1,70,80,0
1,70,0,120
1,63,81,0
1,63,0,120
1,75,82,0
1,75,0,120
1,73,75,0
1,77,89,0
1,77,0,360
1,73,0,0
1,72,72,0
1,75,85,0
1,75,0,108
1,72,0,0
1,72,72,12
1,75,85,0
1,75,0,480
1,72,0,0
1,68,68,240
1,72,80,0
1,72,0,120
1,68,0,0
1,70,67,0
1,73,79,0
1,73,0,120
1,70,0,0
1,73,72,0
1,77,85,0
1,77,0,120
1,73,0,0
1,72,68,0
1,75,80,0
1,75,0,60
1,77,74,0
1,77,0,60
1,75,85,0
1,75,0,120
1,72,0,0
1,71,68,0
1,74,80,0
1,74,0,120
1,71,0,0
1,72,68,0
1,75,80,0
1,75,0,480
1,72,0,0
1,68,68,240
1,72,80,0
1,72,0,120
1,68,0,0
1,70,67,0
1,73,79,0
1,73,0,120
1,70,0,0
1,73,72,0
1,77,85,0
1,77,0,120
1,73,0,0
1,72,68,0
1,75,80,0
1,75,0,60
1,77,74,0
1,77,0,60
1,75,85,0
1,75,0,120
1,72,0,0
1,71,68,0
1,74,80,0
1,74,0,120
1,71,0,0
1,73,72,0
1,77,85,0
1,77,0,60
1,73,0,60
1,72,68,0
1,75,80,0
1,77,74,60
1,77,0,60
1,75,0,0
1,75,85,0
1,75,0,120
1,72,0,0
1,71,68,0
1,74,80,0
1,74,0,120
1,71,0,0
1,72,68,0
1,75,80,0
1,75,0,180
1,72,0,0
1,63,66,0
1,70,66,30
1,78,78,30
1,78,0,240
1,70,0,0
1,63,0,0
1,63,64,0
1,69,64,0
1,77,76,0
1,77,0,240
1,69,0,0
1,63,0,0
1,65,64,0
1,69,64,0
1,72,76,0
1,72,0,240
1,69,0,0
1,65,0,0
1,65,64,0
1,70,64,0
1,73,76,0
1,73,0,240
1,70,0,0
1,65,0,0
1,66,73,0
1,66,0,80
1,54,73,0
1,54,0,80
1,66,73,0
1,66,0,80
1,53,65,0
1,65,77,0
1,65,0,240
1,53,0,0
1,61,72,0
1,61,0,180
1,66,78,0
1,66,0,60
1,75,75,0
1,78,89,0
1,78,0,360
1,75,0,0
1,73,72,0
1,77,85,0
1,77,0,108
1,73,0,0
1,73,72,12
1,77,85,0
1,77,0,480
1,73,0,0
1,70,68,240
1,73,80,0
1,73,0,120
1,70,0,0
1,72,67,0
1,75,79,0
1,75,0,120
1,72,0,0
1,75,72,0
1,78,85,0
1,78,0,120
1,75,0,0
1,73,68,0
1,77,80,0
1,77,0,60
1,78,74,0
1,78,0,60
1,77,85,0
1,77,0,120
1,73,0,0
1,72,68,0
1,76,80,0
1,76,0,120
1,72,0,0
1,73,68,0
1,77,80,0
1,77,0,480
1,73,0,0
1,67,68,240
1,73,68,0
1,79,80,0
1,79,0,120
1,73,0,0
1,67,0,0
1,68,67,0
1,80,79,0
1,80,0,120
1,68,0,0
1,72,71,0
1,84,84,0
1,84,0,120
1,72,0,0
1,79,73,0
1,75,62,0
1,75,0,120
1,79,0,0
1,72,66,0
1,84,78,0
1,84,0,120
1,72,0,0
1,70,65,60
1,82,77,0
1,82,0,54
1,70,0,0
1,70,68,6
1,82,81,0
1,82,0,120
1,70,0,0
1,75,70,0
1,72,59,0
1,72,0,120
1,75,0,0
1,70,63,0
1,82,75,0
1,82,0,120
1,70,0,0
1,68,57,60
1,80,67,0
1,80,0,54
1,68,0,0
1,68,66,6
1,80,78,0
1,80,0,120
1,68,0,0
1,75,66,0
1,70,56,0
1,70,0,120
1,75,0,0
1,68,62,0
1,80,73,0
1,80,0,120
1,68,0,0
1,67,56,60
1,79,66,0
1,79,0,54
1,67,0,0
1,67,63,6
1,79,75,0
1,79,0,120
1,67,0,0
1,74,65,0
1,70,55,0
1,70,0,120
1,74,0,0
1,67,60,0
1,79,71,0
1,79,0,120
1,67,0,0
1,65,57,60
1,77,68,0
1,77,0,54
1,65,0,0
1,65,61,6
1,77,73,0
1,77,0,120
1,65,0,0
1,70,63,0
1,67,54,0
1,67,0,120
1,70,0,0
1,65,58,0
1,77,69,0
1,77,0,120
1,65,0,0
1,63,54,60
1,75,63,0
1,75,0,60
1,63,0,0
1,61,63,0
1,73,75,0
1,73,0,120
1,61,0,0
1,68,63,0
1,65,54,0
1,65,0,120
1,68,0,0
1,61,59,0
1,73,70,0
1,73,0,120
1,61,0,0
1,60,53,60
1,72,62,0
1,72,0,60
1,60,0,0
1,65,63,0
1,65,0,480
1,67,54,0
1,67,0,60
1,68,55,0
1,68,0,60
1,67,55,0
1,67,0,60
1,68,56,0
1,68,0,60
1,65,56,0
1,65,0,120
1,67,57,0
1,67,0,120
1,68,58,0
1,68,0,60
1,70,59,0
1,70,0,60
1,68,59,0
1,68,0,60
1,70,60,0
1,70,0,60
1,67,60,0
1,67,0,120
1,68,61,0
1,68,0,120
1,61,42,0
1,67,42,0
1,69,60,0
1,69,0,120
1,70,56,0
1,70,0,120
1,67,0,0
1,61,0,0
1,61,39,0
1,67,39,0
1,72,56,0
1,72,0,120
1,73,56,0
1,73,0,120
1,67,0,0
1,61,0,0
1,60,50,0
1,68,50,0
1,72,60,0
1,72,0,240
1,68,0,0
1,60,0,0
1,59,57,0
1,62,57,0
1,65,57,0
1,68,57,0
1,77,68,0
1,77,0,180
1,65,0,0
1,59,0,0
1,62,0,0
1,68,0,0
1,60,52,0
1,63,52,0
1,68,52,0
1,75,62,0
1,75,0,54
1,60,0,0
1,63,0,0
1,68,0,0
1,60,58,6
1,63,58,0
1,68,58,0
1,75,69,0
1,75,0,120
1,60,0,0
1,63,0,0
1,68,0,0
1,68,64,0
1,80,76,120
1,80,0,120
1,68,0,0
1,67,59,60
1,79,70,0
1,79,0,60
1,67,0,0
1,65,59,0
1,77,70,0
1,77,0,480
1,65,0,0
1,67,64,0
1,67,0,120
1,79,65,0
1,79,0,40
1,80,66,0
1,80,0,40
1,79,65,0
1,79,0,40
1,65,56,0
1,77,66,0
1,77,0,120
1,65,0,0
1,67,56,0
1,79,67,0
1,79,0,120
1,67,0,0
1,68,64,0
1,68,0,120
1,80,65,0
1,80,0,40
1,82,65,0
1,82,0,40
1,80,65,0
1,80,0,40
1,67,60,0
1,79,71,0
1,79,0,120
1,67,0,0
1,68,61,0
1,80,72,0
1,80,0,120
1,68,0,0
1,69,57,0
1,75,63,0
1,81,75,0
1,81,0,120
1,75,0,0
1,69,0,0
1,70,63,0
1,82,70,0
1,82,0,120
1,70,0,0
1,72,59,0
1,79,59,0
1,84,70,0
1,84,0,120
1,79,0,0
1,72,0,0
1,73,59,0
1,85,70,0
1,85,0,120
1,73,0,0
1,72,63,0
1,80,63,0
1,84,75,0
1,84,0,120
1,80,0,0
1,72,0,0
1,77,64,120
1,80,64,0
1,89,76,0
1,89,0,180
1,80,0,0
1,77,0,0
1,75,58,0
1,80,58,0
1,87,69,0
1,87,0,54
1,80,0,0
1,75,0,0
1,75,65,6
1,80,65,0
1,87,77,0
1,87,0,120
1,80,0,0
1,75,0,0
1,87,60,60
1,75,60,0
1,75,0,60
1,87,0,0
1,73,64,0
1,81,64,0
1,85,76,0
1,85,0,180
1,81,0,0
1,73,0,0
1,72,59,0
1,84,70,0
1,84,0,60
1,72,0,0
1,70,64,0
1,82,76,0
1,82,0,120
1,70,0,0
1,58,59,120
1,66,59,0
1,70,70,0
1,70,0,180
1,66,0,0
1,58,0,0
1,60,59,0
1,72,70,0
1,72,0,60
1,60,0,0
1,61,62,0
1,65,62,0
1,73,74,0
1,73,0,240
1,65,0,0
1,61,0,0
1,61,61,0
1,63,61,0
1,66,61,0
1,73,72,0
1,73,0,180
1,61,0,0
1,63,0,0
1,66,0,0
1,60,58,0
1,72,69,0
1,72,0,60
1,60,0,0
1,58,63,0
1,65,63,0
1,70,75,0
1,70,0,240
1,65,0,0
1,58,0,0
1,56,61,0
1,58,61,0
1,63,61,0
1,68,72,0
1,68,0,180
1,56,0,0
1,58,0,0
1,63,0,0
1,54,57,0
1,66,68,0
1,66,0,60
1,54,0,0
1,53,60,0
1,61,60,0
1,65,71,0
1,65,0,120
1,61,0,0
1,53,0,0
1,45,59,120
1,45,0,60
1,46,59,0
1,46,0,60
1,48,60,0
1,48,0,60
1,49,61,0
1,49,0,60
1,51,61,0
1,51,0,60
1,53,62,0
1,53,0,60
1,55,63,0
1,55,0,60
1,57,63,0
1,57,0,60
1,58,64,0
1,58,0,60
1,60,65,0
1,60,0,60
1,61,65,0
1,61,0,60
1,63,66,0
1,63,0,60
1,65,67,0
1,65,0,60
1,67,67,0
1,67,0,60
1,69,68,0
1,69,0,60
1,70,68,0
1,70,0,60
1,72,69,0
1,72,0,60
1,73,70,0
1,73,0,60
1,75,70,0
1,75,0,60
1,77,71,0
1,77,0,60
1,79,72,0
1,79,0,60
1,81,72,0
1,81,0,60
1,82,77,0
1,70,77,0
1,70,0,120
1,82,0,0
1,84,71,60
1,84,0,60
1,73,64,0
1,82,76,0
1,79,76,0
1,79,0,120
1,82,0,0
1,73,0,0
1,81,71,0
1,78,71,0
1,72,60,0
1,72,0,120
1,78,0,0
1,81,0,0
1,73,63,0
1,79,75,0
1,82,75,0
1,82,0,240
1,79,0,0
1,73,0,0
1,72,60,0
1,79,71,0
1,84,71,0
1,84,0,240
1,79,0,0
1,72,0,0
1,68,62,0
1,72,62,0
1,80,73,0
1,80,0,240
1,72,0,0
1,68,0,0
1,63,60,0
1,68,60,0
1,75,71,0
1,75,0,240
1,68,0,0
1,63,0,0
1,65,65,0
1,68,65,0
1,77,77,0
1,77,0,240
1,68,0,0
1,65,0,0
1,68,61,0
1,72,61,0
1,80,72,0
1,80,0,240
1,72,0,0
1,68,0,0
1,61,69,0
1,65,69,0
1,70,81,0
1,73,81,0
1,73,0,240
1,61,0,0
1,65,0,0
1,70,0,0
1,65,66,0
1,68,66,0
1,73,78,0
1,77,78,0
1,77,0,240
1,65,0,0
1,68,0,0
1,73,0,0
1,58,74,0
1,63,74,0
1,68,87,0
1,70,87,0
1,70,0,240
1,58,0,0
1,63,0,0
1,68,0,0
1,61,69,0
1,63,69,0
1,67,69,0
1,70,82,0
1,75,82,0
1,75,0,240
1,67,0,0
1,61,0,0
1,63,0,0
1,70,0,0
1,77,82,0
1,85,82,0
1,89,97,0
1,89,0,360
1,85,0,0
1,77,0,0
1,75,79,0
1,84,79,0
1,87,93,0
1,87,0,108
1,84,0,0
1,75,0,0
1,75,79,12
1,84,79,0
1,87,93,0
1,63,71,180
1,63,0,60
1,75,0,0
1,84,0,0
1,87,0,0
1,63,71,0
1,63,0,48
1,65,71,0
1,65,0,48
1,63,71,0
1,63,0,48
1,62,71,0
1,62,0,48
1,63,71,0
1,63,0,48
1,68,87,0
1,68,0,120
1,72,74,120
1,80,74,0
1,84,88,0
1,84,0,120
1,80,0,0
1,72,0,0
1,73,73,0
1,82,73,0
1,85,86,0
1,85,0,120
1,82,0,0
1,73,0,0
1,77,79,0
1,85,79,0
1,89,93,0
1,89,0,120
1,85,0,0
1,77,0,0
1,75,74,60
1,84,74,0
1,87,88,0
1,87,0,54
1,84,0,0
1,75,0,0
1,75,74,6
1,84,74,0
1,87,93,0
1,87,0,120
1,84,0,0
1,75,0,0
1,74,74,0
1,83,74,0
1,86,88,0
1,86,0,120
1,83,0,0
1,74,0,0
1,75,74,0
1,84,74,0
1,87,88,0
1,63,70,180
1,63,0,60
1,75,0,0
1,84,0,0
1,87,0,0
1,63,70,0
1,63,0,48
1,65,70,0
1,65,0,48
1,63,70,0
1,63,0,48
1,62,70,0
1,62,0,48
1,63,70,0
1,63,0,48
1,68,87,0
1,68,0,120
1,84,88,120
1,72,74,0
1,80,74,0
1,80,0,120
1,72,0,0
1,84,0,0
