track,note,velocity,time
1,78,125,36864
1,74,125,0
1,69,125,0
1,69,125,56
1,78,125,0
1,74,125,0
1,78,125,488
1,74,125,0
1,69,125,0
1,69,125,72
1,74,125,0
1,78,125,0
1,74,125,266
1,71,125,0
1,79,125,0
1,74,125,52
1,79,125,0
1,71,125,0
1,79,125,446
1,74,125,0
1,71,125,0
1,79,125,48
1,74,125,0
1,71,125,0
1,69,125,256
1,74,125,0
1,78,125,0
1,69,125,58
1,78,125,0
1,74,125,0
1,74,125,456
1,78,125,0
1,69,125,0
1,74,125,52
1,69,125,0
1,78,125,0
1,69,125,270
1,78,125,0
1,74,125,0
1,74,125,64
1,69,125,0
1,78,125,0
1,69,125,464
1,74,125,0
1,78,125,0
1,69,125,74
1,74,125,0
1,78,125,0
1,69,125,256
1,74,125,0
1,78,125,0
1,74,125,46
1,69,125,0
1,78,125,0
1,74,125,472
1,69,125,0
1,78,125,0
1,69,125,56
1,74,125,0
1,78,125,0
1,74,125,272
1,71,125,0
1,79,125,0
1,74,125,80
1,79,125,0
1,71,125,0
1,74,125,458
1,71,125,0
1,79,125,0
1,74,125,68
1,79,125,0
1,71,125,0
1,76,125,266
1,69,125,0
1,73,125,0
1,73,125,26
1,76,125,0
1,69,125,0
1,73,125,480
1,76,125,0
1,69,125,0
1,76,125,88
1,69,125,0
1,73,125,0
1,73,125,292
1,69,125,0
1,76,125,0
1,76,125,88
1,73,125,0
1,69,125,0
1,69,125,472
1,76,125,0
1,73,125,0
1,76,125,88
1,69,125,0
1,73,125,0
1,74,125,266
1,78,125,0
1,69,125,0
1,74,125,62
1,69,125,0
1,78,125,0
1,74,125,474
1,78,125,0
1,69,125,0
1,69,125,94
1,74,125,0
1,78,125,0
1,74,125,288
1,71,125,0
1,79,125,0
1,79,125,68
1,74,125,0
1,71,125,0
1,74,125,452
1,79,125,0
1,71,125,0
1,79,125,84
1,74,125,0
1,71,125,0
1,69,125,256
1,78,125,0
1,74,125,0
1,78,125,84
1,74,125,0
1,69,125,0
1,69,125,452
1,74,125,0
1,78,125,0
1,69,125,110
1,74,125,0
1,78,125,0
1,78,125,288
1,74,125,0
1,69,125,0
1,74,125,80
1,78,125,0
1,69,125,0
1,69,125,458
1,74,125,0
1,78,125,0
1,69,125,100
1,78,125,0
1,74,125,0
1,67,125,264
1,72,125,0
1,76,125,0
1,67,125,20
1,71,125,0
1,74,125,0
1,69,125,142
1,74,125,0
1,78,125,0
1,78,125,36
1,74,125,0
1,69,125,0
1,74,125,448
1,78,125,0
1,69,125,0
1,69,125,94
1,74,125,0
1,78,125,0
1,74,125,270
1,78,125,0
1,69,125,0
1,74,125,78
1,78,125,0
1,69,125,0
1,74,125,432
1,78,125,0
1,69,125,0
1,78,125,88
1,69,125,0
1,74,125,0
1,72,125,256
1,77,125,0
1,69,125,0
1,76,125,4
1,67,125,0
1,72,125,0
1,69,125,4
1,72,125,0
1,77,125,0
1,65,125,4
1,67,125,4
1,68,125,4
1,69,125,4
1,73,125,0
1,76,125,0
1,68,125,4
1,73,125,0
1,76,125,0
1,67,125,4
1,73,125,4
1,68,125,0
1,76,125,0
1,76,125,4
1,73,125,0
1,67,125,0
1,76,125,4
1,72,125,0
1,67,125,0
1,78,125,4
1,69,125,0
1,74,125,0
1,76,125,4
1,69,125,0
1,73,125,0
1,78,125,24
1,69,125,0
1,74,125,0
1,69,125,62
1,78,125,0
1,74,125,0
1,78,125,474
1,74,125,0
1,69,125,0
1,69,125,68
1,74,125,0
1,78,125,0
1,74,125,266
1,79,125,0
1,71,125,0
1,74,125,36
1,79,125,0
1,71,125,0
1,74,125,432
1,79,125,0
1,71,125,0
1,79,125,64
1,74,125,0
1,71,125,0
1,78,125,234
1,74,125,0
1,69,125,0
1,74,125,48
1,78,125,0
1,69,125,0
1,78,125,436
1,74,125,0
1,69,125,0
1,69,125,56
1,74,125,0
1,78,125,0
1,74,125,250
1,69,125,0
1,78,125,0
1,74,125,48
1,78,125,0
1,69,125,0
1,74,125,430
1,69,125,0
1,78,125,0
1,74,125,56
1,69,125,0
1,78,125,0
1,74,125,264
1,78,125,0
1,69,125,0
1,74,125,62
1,78,125,0
1,69,125,0
1,74,125,440
1,78,125,0
1,69,125,0
1,69,125,40
1,74,125,0
1,78,125,0
1,74,125,248
1,79,125,0
1,71,125,0
1,74,125,72
1,79,125,0
1,71,125,0
1,71,125,430
1,74,125,0
1,79,125,0
1,79,125,56
1,74,125,0
1,71,125,0
1,73,125,256
1,69,125,0
1,76,125,0
1,76,125,58
1,73,125,0
1,69,125,0
1,73,125,456
1,76,125,0
1,69,125,0
1,73,125,90
1,76,125,0
1,69,125,0
1,69,125,266
1,73,125,0
1,76,125,0
1,73,125,64
1,69,125,0
1,76,125,0
1,69,125,442
1,73,125,0
1,76,125,0
1,69,125,36
1,76,125,0
1,73,125,0
1,74,125,234
1,69,125,0
1,78,125,0
1,74,125,46
1,69,125,0
1,78,125,0
1,74,125,430
1,78,125,0
1,69,125,0
1,69,125,40
1,74,125,0
1,78,125,0
1,74,125,260
1,79,125,0
1,71,125,0
1,74,125,46
1,79,125,0
1,71,125,0
1,79,125,432
1,74,125,0
1,71,125,0
1,79,125,42
1,71,125,0
1,74,125,0
1,78,125,238
1,74,125,0
1,69,125,0
1,74,125,52
1,78,125,0
1,69,125,0
1,74,125,410
1,69,125,0
1,78,125,0
1,74,125,56
1,69,125,0
1,78,125,0
1,74,125,260
1,78,125,0
1,69,125,0
1,69,125,62
1,74,125,0
1,78,125,0
1,69,125,446
1,74,125,0
1,78,125,0
1,69,125,62
1,74,125,0
1,78,125,0
1,67,126,238
1,72,126,0
1,76,126,0
1,71,126,90
1,74,126,0
1,67,126,0
1,78,126,58
1,74,126,0
1,69,126,0
1,69,126,24
1,74,126,0
1,78,126,0
1,78,126,480
1,74,126,0
1,69,126,0
1,74,126,64
1,69,126,0
1,78,126,0
1,78,126,272
1,74,126,0
1,69,126,0
1,69,126,32
1,74,126,0
1,78,126,0
1,74,126,452
1,78,126,0
1,69,126,0
1,69,126,62
1,78,126,0
1,74,126,0
1,67,126,234
1,72,126,0
1,76,126,0
1,74,126,104
1,71,126,0
1,67,126,0
1,78,126,1070
1,74,126,0
1,69,126,0
1,69,126,8
1,74,126,0
1,78,126,0
1,69,126,490
1,74,126,0
1,78,126,0
1,69,126,74
1,78,126,0
1,74,126,0
1,69,126,254
1,78,126,0
1,74,126,0
1,69,126,58
1,74,126,0
1,78,126,0
1,69,126,462
1,74,126,0
1,78,126,0
1,74,126,88
1,69,126,0
1,78,126,0
1,72,125,254
1,77,125,0
1,69,125,0
1,76,125,4
1,67,125,0
1,72,125,0
1,69,125,4
1,72,125,0
1,77,125,0
1,65,125,4
1,67,125,4
1,68,125,4
1,69,125,4
1,73,125,0
1,76,125,0
1,68,125,4
1,76,125,0
1,73,125,0
1,67,125,4
1,76,125,4
1,73,125,0
1,68,125,0
1,76,125,4
1,73,125,0
1,67,125,0
1,72,125,4
1,76,125,0
1,67,125,0
1,74,125,4
1,78,125,0
1,69,125,0
1,76,125,4
1,69,125,0
1,73,125,0
1,78,126,410
1,69,126,0
1,74,126,0
1,69,126,62
1,78,126,0
1,74,126,0
1,78,126,474
1,74,126,0
1,69,126,0
1,69,126,68
1,74,126,0
1,78,126,0
1,74,126,266
1,79,126,0
1,71,126,0
1,74,126,36
1,79,126,0
1,71,126,0
1,74,126,432
1,79,126,0
1,71,126,0
1,79,126,64
1,74,126,0
1,71,126,0
1,78,126,234
1,74,126,0
1,69,126,0
1,74,126,48
1,78,126,0
1,69,126,0
1,78,126,436
1,74,126,0
1,69,126,0
1,69,126,56
1,74,126,0
1,78,126,0
1,74,126,250
1,69,126,0
1,78,126,0
1,74,126,48
1,78,126,0
1,69,126,0
1,74,126,430
1,69,126,0
1,78,126,0
1,74,126,56
1,69,126,0
1,78,126,0
1,74,126,264
1,78,126,0
1,69,126,0
1,74,126,62
1,78,126,0
1,69,126,0
1,74,126,440
1,78,126,0
1,69,126,0
1,69,126,40
1,74,126,0
1,78,126,0
1,74,126,248
1,79,126,0
1,71,126,0
1,74,126,72
1,79,126,0
1,71,126,0
1,71,126,430
1,74,126,0
1,79,126,0
1,79,126,56
1,74,126,0
1,71,126,0
1,73,126,256
1,69,126,0
1,76,126,0
1,76,126,58
1,73,126,0
1,69,126,0
1,73,126,456
1,76,126,0
1,69,126,0
1,73,126,90
1,76,126,0
1,69,126,0
1,69,126,266
1,73,126,0
1,76,126,0
1,73,126,64
1,69,126,0
1,76,126,0
1,69,126,442
1,73,126,0
1,76,126,0
1,69,126,36
1,76,126,0
1,73,126,0
1,74,126,234
1,69,126,0
1,78,126,0
1,74,126,46
1,69,126,0
1,78,126,0
1,74,126,430
1,78,126,0
1,69,126,0
1,69,126,40
1,74,126,0
1,78,126,0
1,74,126,260
1,79,126,0
1,71,126,0
1,74,126,46
1,79,126,0
1,71,126,0
1,79,126,432
1,74,126,0
1,71,126,0
1,79,126,42
1,71,126,0
1,74,126,0
1,78,126,238
1,74,126,0
1,69,126,0
1,74,126,52
1,78,126,0
1,69,126,0
1,74,126,410
1,69,126,0
1,78,126,0
1,74,126,56
1,69,126,0
1,78,126,0
1,74,126,260
1,78,126,0
1,69,126,0
1,69,126,62
1,74,126,0
1,78,126,0
1,69,126,446
1,74,126,0
1,78,126,0
1,69,126,62
1,74,126,0
1,78,126,0
1,67,126,238
1,72,126,0
1,76,126,0
1,71,126,90
1,74,126,0
1,67,126,0
1,78,126,58
1,74,126,0
1,69,126,0
1,69,126,24
1,74,126,0
1,78,126,0
1,78,126,480
1,74,126,0
1,69,126,0
1,74,126,64
1,69,126,0
1,78,126,0
1,78,126,272
1,74,126,0
1,69,126,0
1,69,126,32
1,74,126,0
1,78,126,0
1,74,126,452
1,78,126,0
1,69,126,0
1,69,126,62
1,78,126,0
1,74,126,0
1,67,126,234
1,72,126,0
1,76,126,0
1,74,126,104
1,71,126,0
1,67,126,0
1,78,126,100
1,74,126,0
1,69,126,0
1,69,126,8
1,74,126,0
1,78,126,0
1,69,126,112
1,74,126,0
1,78,126,0
1,69,126,74
1,78,126,0
1,74,126,0
1,69,126,32
1,78,126,0
1,74,126,0
1,69,126,32
1,74,126,0
1,78,126,0
1,69,126,16
1,74,126,0
1,78,126,0
1,74,126,0
1,69,126,0
1,78,126,0
1,67,126,254
1,72,126,0
1,76,126,0
1,74,126,104
1,71,126,0
1,67,126,0
1,78,126,20
1,74,126,0
1,69,126,0
1,69,126,8
1,74,126,0
1,78,126,0
1,69,126,48
1,74,126,0
1,78,126,0
1,69,126,74
1,78,126,0
1,74,126,0
1,69,126,254
1,78,126,0
1,74,126,0
1,69,126,48
1,74,126,0
1,78,126,0
1,69,126,340
1,74,126,0
1,78,126,0
1,74,126,36
1,69,126,0
1,78,126,0
1,67,126,88
1,72,126,0
1,76,126,0
1,74,126,36
1,71,126,0
1,67,126,0
2,69,125,10200
2,74,125,200
2,76,125,24
2,74,125,108
2,78,125,14
2,69,125,138
2,74,125,0
2,66,125,200
2,69,125,4
2,66,125,4
2,69,125,4
2,66,125,4
2,69,125,4
2,66,125,4
2,69,125,4
2,66,125,4
2,69,125,4
2,66,125,4
2,69,125,4
2,66,125,4
2,69,125,4
2,66,125,4
2,69,125,4
2,66,125,4
2,69,125,4
2,66,125,4
2,69,125,4
2,69,125,4362
2,76,125,38
2,73,125,10
2,74,125,76
2,78,125,6
2,76,125,216
2,79,125,4
2,76,125,4
2,79,125,4
2,76,125,4
2,79,125,4
2,76,125,4
2,79,125,4
2,76,125,4
2,79,125,4
2,76,125,4
2,79,125,4
2,76,125,4
2,79,125,4
2,76,125,4
2,79,125,4
2,76,125,4
2,79,125,4
2,76,125,4
2,69,125,4070
2,74,125,0
2,76,125,8
2,81,125,120
2,78,125,2
2,74,125,86
2,78,125,10
2,69,125,202
2,74,125,4
2,69,125,4
2,74,125,4
2,69,125,4
2,74,125,4
2,69,125,4
2,74,125,4
2,69,125,4
2,74,125,4
2,69,125,4
2,74,125,4
2,69,125,4
2,74,125,4
2,69,125,4
2,74,125,4
2,69,125,4
2,74,125,4
2,69,125,4
2,72,125,436
2,76,125,4
2,72,125,4
2,76,125,4
2,72,125,4
2,76,125,4
2,72,125,4
2,76,125,4
2,72,125,4
2,76,125,4
2,72,125,4
2,76,125,4
2,72,125,4
2,76,125,4
2,72,125,4
2,76,125,4
2,72,125,4
2,76,125,4
2,72,125,4
2,76,125,4
2,72,125,4
2,76,125,4
2,72,125,4
2,71,125,436
2,74,125,4
2,71,125,4
2,74,125,4
2,71,125,4
2,74,125,4
2,71,125,4
2,74,125,4
2,71,125,4
2,74,125,4
2,71,125,4
2,74,125,4
2,71,125,4
2,74,125,4
2,71,125,4
2,74,125,4
2,71,125,4
2,74,125,4
2,71,125,4
2,74,125,4
2,71,125,4
2,74,125,4
2,71,125,4
2,71,125,820
2,74,125,192
2,76,125,30
2,69,125,36
2,74,125,4
2,69,125,4
2,74,125,4
2,69,125,4
2,74,125,4
2,69,125,4
2,74,125,4
2,69,125,4
2,74,125,4
2,69,125,4
2,74,125,4
2,69,125,4
2,74,125,4
2,69,125,4
2,74,125,4
2,69,125,4
2,74,125,4
2,69,125,4
2,72,125,1204
2,76,125,4
2,72,125,4
2,76,125,4
2,72,125,4
2,76,125,4
2,72,125,4
2,76,125,4
2,72,125,4
2,76,125,4
2,72,125,4
2,76,125,4
2,72,125,4
2,76,125,4
2,72,125,4
2,76,125,4
2,72,125,4
2,76,125,4
2,72,125,4
2,76,125,4
2,72,125,4
2,76,125,4
2,72,125,4
2,71,125,436
2,74,125,4
2,71,125,4
2,74,125,4
2,71,125,4
2,74,125,4
2,71,125,4
2,74,125,4
2,71,125,4
2,74,125,4
2,71,125,4
2,74,125,4
2,71,125,4
2,74,125,4
2,71,125,4
2,74,125,4
2,71,125,4
2,74,125,4
2,71,125,4
2,74,125,4
2,71,125,4
2,74,125,4
2,71,125,4
2,71,125,820
2,74,125,8
2,76,125,26
2,69,125,46
2,74,125,4
2,69,125,4
2,74,125,4
2,69,125,4
2,74,125,4
2,69,125,4
2,74,125,4
2,69,125,4
2,74,125,4
2,69,125,4
2,74,125,4
2,69,125,4
2,74,125,4
2,69,125,4
2,74,125,4
2,69,125,4
2,74,125,4
2,69,125,4
2,69,125,4876
2,74,125,200
2,76,125,24
2,74,125,108
2,78,125,14
2,69,125,138
2,74,125,0
2,66,125,200
2,69,125,4
2,66,125,4
2,69,125,4
2,66,125,4
2,69,125,4
2,66,125,4
2,69,125,4
2,66,125,4
2,69,125,4
2,66,125,4
2,69,125,4
2,66,125,4
2,69,125,4
2,66,125,4
2,69,125,4
2,66,125,4
2,69,125,4
2,66,125,4
2,69,125,4
2,69,125,4362
2,76,125,38
2,73,125,10
2,74,125,76
2,78,125,6
2,76,125,216
2,79,125,4
2,76,125,4
2,79,125,4
2,76,125,4
2,79,125,4
2,76,125,4
2,79,125,4
2,76,125,4
2,79,125,4
2,76,125,4
2,79,125,4
2,76,125,4
2,79,125,4
2,76,125,4
2,79,125,4
2,76,125,4
2,79,125,4
2,76,125,4
2,69,125,4070
2,74,125,0
2,76,125,8
2,81,125,120
2,78,125,2
2,74,125,86
2,78,125,10
2,69,125,202
2,74,125,4
2,69,125,4
2,74,125,4
2,69,125,4
2,74,125,4
2,69,125,4
2,74,125,4
2,69,125,4
2,74,125,4
2,69,125,4
2,74,125,4
2,69,125,4
2,74,125,4
2,69,125,4
2,74,125,4
2,69,125,4
2,74,125,4
2,69,125,4
2,72,125,436
2,76,125,4
2,72,125,4
2,76,125,4
2,72,125,4
2,76,125,4
2,72,125,4
2,76,125,4
2,72,125,4
2,76,125,4
2,72,125,4
2,76,125,4
2,72,125,4
2,76,125,4
2,72,125,4
2,76,125,4
2,72,125,4
2,76,125,4
2,72,125,4
2,76,125,4
2,72,125,4
2,76,125,4
2,72,125,4
2,71,125,436
