track,note,velocity,time
0,38,110,956
0,62,113,384
0,38,0,8
0,62,0,4
0,33,110,564
0,64,98,192
0,64,0,12
0,33,0,60
0,64,127,120
0,64,0,12
0,38,110,180
0,50,90,250
0,57,90,56
0,62,90,74
0,62,127,4
0,62,0,12
0,66,90,14
0,38,0,0
0,63,79,550
0,33,110,0
0,63,0,12
0,64,98,180
0,54,83,0
0,54,0,12
0,64,0,0
0,33,0,54
0,64,127,126
0,64,0,12
0,38,110,180
0,42,54,0
0,42,0,12
0,50,0,128
0,57,0,16
0,62,0,2
0,66,0,6
0,50,90,84
0,57,90,68
0,62,90,58
0,54,100,10
0,42,54,0
0,62,113,0
0,66,90,2
0,38,0,6
0,54,0,4
0,42,0,0
0,62,0,0
0,66,0,96
0,62,0,4
0,62,90,76
0,66,90,8
0,42,61,188
0,42,0,12
0,45,88,180
0,35,95,0
0,33,110,0
0,35,0,12
0,42,100,180
0,37,116,0
0,57,115,0
0,64,127,0
0,54,116,0
0,54,0,12
0,42,0,0
0,64,0,0
0,37,0,0
0,33,0,80
0,45,0,12
0,45,115,88
0,64,113,0
0,64,0,12
0,45,0,170
0,57,0,2
0,50,127,8
0,50,90,0
0,42,54,0
0,35,112,0
0,38,110,0
0,35,0,12
0,42,0,0
0,57,90,180
0,62,79,96
0,62,90,0
0,54,100,96
0,62,113,0
0,37,116,0
0,42,54,0
0,69,88,0
0,66,91,0
0,66,90,0
0,42,0,12
0,37,0,0
0,54,0,0
0,62,0,0
0,62,0,18
0,38,0,8
0,66,0,50
0,57,0,8
0,66,0,16
0,69,0,2
0,50,0,18
0,62,0,18
0,66,103,42
0,62,90,0
0,69,100,0
0,62,88,0
0,66,0,70
0,62,0,10
0,69,0,0
0,62,111,112
0,42,61,0
0,38,110,0
0,42,0,12
0,62,0,52
0,38,0,22
0,42,110,106
0,64,123,0
0,57,90,0
0,35,95,0
0,62,79,0
0,35,0,12
0,62,0,10
0,64,0,42
0,42,0,22
0,42,100,106
0,64,127,0
0,45,110,0
0,66,91,0
0,54,116,0
0,37,116,0
0,69,100,0
0,66,90,0
0,66,125,0
0,37,0,12
0,42,0,0
0,54,0,0
0,64,0,0
0,66,0,44
0,50,0,46
0,45,0,0
0,62,0,22
0,50,0,12
0,66,0,26
0,62,90,30
0,67,122,0
0,64,113,0
0,62,59,0
0,50,72,0
0,38,110,0
0,64,0,12
0,62,0,0
0,66,0,12
0,69,0,8
0,38,0,12
0,62,0,4
0,50,0,8
0,43,100,30
0,42,54,0
0,43,90,0
0,43,110,0
0,35,112,0
0,62,0,4
0,35,0,4
0,42,0,0
0,57,0,26
0,57,0,4
0,66,0,10
0,55,90,4
0,59,90,10
0,62,67,0
0,67,0,16
0,59,0,64
0,42,54,4
0,62,90,0
0,37,100,0
0,62,113,0
0,71,88,0
0,54,100,0
0,67,79,0
0,66,105,0
0,54,0,12
0,62,0,0
0,42,0,0
0,37,0,0
0,66,0,66
0,43,0,22
0,71,0,6
0,67,0,18
0,62,0,40
0,59,90,28
0,67,88,0
0,62,79,0
0,71,100,0
0,64,117,0
0,71,0,12
0,67,0,0
0,62,0,6
0,55,0,10
0,42,61,18
0,42,0,10
0,59,0,2
0,62,0,2
0,55,90,12
0,35,95,0
0,42,110,0
0,62,79,0
0,35,0,6
0,42,0,38
0,64,0,8
0,42,100,24
0,54,100,0
0,37,116,0
0,71,127,0
0,67,115,0
0,43,110,0
0,62,90,0
0,64,127,0
0,62,111,0
0,64,0,12
0,37,0,0
0,54,0,0
0,42,0,0
0,62,0,58
0,43,0,20
0,62,0,2
0,43,0,2
0,66,125,4
0,45,110,0
0,64,113,0
0,62,72,0
0,59,90,0
0,55,0,0
0,64,0,12
0,67,0,2
0,62,0,6
0,71,0,2
0,45,0,8
0,59,0,4
0,62,0,34
0,43,0,14
0,50,88,52
0,42,54,0
0,50,90,0
0,35,112,0
0,38,110,0
0,35,0,12
0,42,0,0
0,62,79,4
0,57,90,0
0,62,90,16
0,57,0,4
0,38,0,26
0,66,0,4
0,42,54,10
0,62,107,0
0,37,116,0
0,66,90,0
0,38,110,0
0,69,88,0
0,62,113,0
0,66,91,0
0,54,116,0
0,62,0,0
0,62,0,12
0,42,0,0
0,54,0,0
0,37,0,0
0,38,0,28
0,66,0,26
0,69,0,2
0,62,0,12
0,62,0,106
0,57,111,6
0,62,90,0
0,62,72,0
0,69,100,0
0,66,120,0
0,66,0,86
0,69,0,4
0,62,0,12
0,42,61,90
0,42,0,12
0,62,0,16
0,33,110,4
0,62,72,0
0,35,95,0
0,57,90,0
0,35,0,0
0,66,0,2
0,33,0,4
0,42,100,12
0,69,115,0
0,64,127,0
0,54,100,0
0,66,90,0
0,66,127,0
0,33,110,0
0,37,116,0
0,37,0,8
0,64,0,0
0,42,0,0
0,54,0,0
0,57,0,30
0,33,0,52
0,62,0,20
0,64,113,34
0,62,79,0
0,62,90,0
0,64,0,12
0,66,0,58
0,57,0,6
0,50,0,4
0,50,0,4
0,38,110,108
0,50,115,0
0,42,54,0
0,35,112,0
0,50,90,0
0,35,0,12
0,42,0,0
0,69,0,2
0,62,0,26
0,62,0,44
0,66,0,32
0,57,90,76
0,62,72,0
0,62,90,96
0,62,0,86
0,38,0,0
0,69,100,10
0,66,91,0
0,37,100,0
0,42,54,0
0,38,110,0
0,54,116,0
0,66,90,0
0,62,113,0
0,62,0,12
0,42,0,0
0,37,0,0
0,54,0,0
0,38,0,16
0,66,0,16
0,69,0,2
0,62,0,38
0,62,90,108
0,69,100,0
0,66,120,0
0,62,72,0
0,66,0,46
0,69,0,6
0,62,0,28
0,57,0,50
0,42,61,62
0,42,0,12
0,62,0,168
0,35,95,12
0,57,90,0
0,62,88,0
0,33,110,0
0,35,0,12
0,66,0,52
0,33,0,98
0,69,100,30
0,42,100,0
0,37,116,0
0,33,110,0
0,64,127,0
0,66,90,0
0,66,103,0
0,54,116,0
0,54,0,12
0,37,0,0
0,64,0,0
0,42,0,0
0,33,0,96
0,62,0,22
0,62,90,62
0,62,79,0
0,64,113,0
0,64,0,12
0,50,0,58
0,50,0,8
0,66,0,98
0,42,54,16
0,38,110,0
0,50,90,0
0,35,112,0
0,50,127,0
0,35,0,12
0,42,0,0
0,69,0,0
0,57,0,22
0,62,0,10
0,62,0,62
0,66,0,42
0,62,79,44
0,57,90,0
0,62,90,96
0,57,0,46
0,38,0,22
0,62,0,10
0,62,113,18
0,69,100,0
0,66,90,0
0,66,120,0
0,54,100,0
0,42,54,0
0,37,116,0
0,37,0,12
0,42,0,0
0,62,0,0
0,54,0,0
0,69,0,40
0,66,0,8
0,62,0,14
0,69,115,118
0,66,120,0
0,62,90,0
0,62,88,0
0,66,0,48
0,69,0,12
0,62,0,44
0,42,61,88
0,62,114,0
0,38,110,0
0,42,0,12
0,62,0,54
0,38,0,6
0,57,90,120
0,64,127,0
0,42,110,0
0,35,95,0
0,62,88,0
0,35,0,12
0,62,0,16
0,42,0,48
0,64,0,6
0,54,100,110
0,37,116,0
0,45,110,0
0,66,121,0
0,69,100,0
0,42,100,0
0,62,90,0
0,64,127,0
0,66,103,0
0,64,0,12
0,37,0,0
0,42,0,0
0,54,0,0
0,66,0,46
0,57,0,16
0,45,0,16
0,62,0,56
0,67,122,46
0,64,113,0
0,62,88,0
0,38,110,0
0,57,90,0
0,64,0,2
0,38,0,18
0,66,0,18
0,69,0,4
0,66,0,0
0,50,0,6
0,62,0,4
0,43,127,8
0,43,110,0
0,42,54,0
0,43,90,0
0,35,112,0
0,62,0,10
0,35,0,2
0,50,0,0
0,42,0,0
0,57,0,0
0,62,72,6
0,55,90,0
0,37,100,6
0,62,90,0
0,71,100,0
0,42,54,0
0,54,116,0
0,67,88,0
0,62,113,0
0,43,0,8
0,54,0,0
0,42,0,0
0,62,0,0
0,37,0,0
0,67,0,12
0,71,0,56
0,67,0,6
0,62,0,8
0,67,72,6
0,59,90,0
0,71,100,0
0,62,67,0
0,67,121,0
0,67,0,8
0,71,0,6
0,62,0,24
0,55,0,82
0,42,61,14
0,31,110,0
0,42,0,12
0,31,0,100
0,67,0,44
0,35,95,36
0,66,101,0
0,62,88,0
0,35,110,0
0,55,90,0
0,35,0,12
0,59,0,24
0,66,0,34
0,35,0,14
0,62,0,10
0,64,117,98
0,42,100,0
0,64,127,0
0,62,90,0
0,71,127,0
0,54,116,0
0,37,116,0
0,38,110,0
0,67,115,0
0,37,0,12
0,54,0,0
0,64,0,0
0,42,0,0
0,62,0,12
0,62,79,12
0,59,90,0
0,64,113,0
0,64,0,6
0,38,0,14
0,67,0,12
0,71,0,6
0,43,0,18
0,43,0,6
0,62,0,12
0,64,0,12
0,62,0,30
0,42,54,24
0,45,115,0
0,61,113,0
0,33,110,0
0,35,112,0
0,45,90,0
0,59,0,6
0,35,0,6
0,42,0,0
0,55,0,6
0,61,0,152
0,62,111,22
0,52,90,0
0,61,74,0
0,57,90,96
0,33,0,52
0,69,100,12
0,64,100,0
0,42,54,0
0,37,116,0
0,33,110,0
0,62,113,0
0,54,116,0
0,61,90,0
0,57,0,2
0,37,0,6
0,42,0,0
0,54,0,0
0,62,0,0
0,33,0,16
0,61,0,2
0,69,0,20
0,64,0,2
0,62,0,56
0,64,119,6
0,57,90,0
0,64,100,0
0,61,81,0
0,69,88,0
0,61,0,2
0,64,0,2
0,69,0,4
0,42,61,14
0,42,0,6
0,52,0,56
0,35,95,124
0,61,68,0
0,28,110,0
0,52,90,0
0,35,0,12
0,57,0,0
0,28,0,10
0,57,90,4
0,69,100,0
0,64,88,0
0,64,127,0
0,54,116,0
0,42,100,0
0,37,116,0
0,37,0,12
0,64,0,0
0,42,0,0
0,54,0,0
0,52,0,0
0,61,0,14
0,45,0,46
0,52,90,6
0,28,110,0
0,64,113,0
0,61,74,0
0,64,0,12
0,64,0,46
0,28,0,16
0,45,0,58
0,42,54,60
0,35,112,0
0,45,90,0
0,33,110,0
0,45,115,0
0,64,0,0
0,69,0,0
0,35,0,12
0,42,0,0
0,57,0,4
0,61,0,16
0,61,0,0
0,52,0,14
0,33,0,102
0,40,110,44
0,52,90,0
0,40,0,92
0,57,90,4
0,42,54,96
0,37,100,0
0,62,113,0
0,62,90,0
0,64,63,0
0,69,88,0
0,54,116,0
0,62,63,0
0,54,0,12
0,62,0,0
0,37,0,0
0,42,0,0
0,64,0,82
0,52,0,6
0,57,0,6
0,69,0,2
0,62,0,6
0,69,79,78
0,61,90,0
0,33,110,0
0,64,88,0
0,62,100,0
0,62,0,34
0,62,0,32
0,64,0,14
0,69,0,4
0,33,0,56
0,40,110,52
0,42,61,0
0,42,0,12
0,40,0,140
0,35,95,40
0,61,68,0
0,52,90,0
0,35,0,12
0,61,0,54
0,57,90,126
0,69,88,0
0,42,100,0
0,37,116,0
0,64,127,0
0,54,100,0
0,64,100,0
0,33,110,0
0,54,0,12
0,64,0,0
0,42,0,0
0,37,0,0
0,61,0,46
0,52,0,2
0,61,81,132
0,52,90,0
0,64,113,0
0,64,0,12
0,33,0,28
0,64,0,14
0,45,0,6
0,61,0,52
0,69,0,6
0,52,0,14
0,57,0,0
0,45,0,4
0,50,90,56
0,38,110,0
0,42,54,0
0,35,112,0
0,50,127,0
0,35,0,12
0,42,0,0
0,57,90,180
0,62,67,0
0,62,90,96
0,57,0,88
0,42,54,8
0,66,90,0
0,69,100,0
0,37,116,0
0,62,113,0
0,54,116,0
0,66,91,0
0,62,0,2
0,54,0,10
0,62,0,0
0,37,0,0
0,42,0,0
0,38,0,26
0,66,0,58
0,69,0,18
0,62,0,4
0,62,90,74
0,69,100,0
0,66,103,0
0,62,88,0
0,66,0,60
0,62,0,20
0,69,0,2
0,62,115,110
0,38,110,0
0,42,61,0
0,42,0,12
0,38,0,74
0,62,0,68
0,64,109,38
0,62,88,0
0,35,95,0
0,42,110,0
0,57,90,0
0,62,0,10
0,35,0,2
0,66,0,22
0,42,0,52
0,64,0,46
0,62,90,60
0,69,115,0
0,64,127,0
0,42,100,0
0,37,116,0
0,45,110,0
0,66,120,0
0,54,100,0
0,66,116,0
0,54,0,12
0,42,0,0
0,64,0,0
0,37,0,0
0,66,0,48
0,45,0,2
0,57,0,6
0,62,0,10
0,38,110,6
0,62,72,0
0,57,90,0
0,64,113,0
0,67,127,0
0,64,0,12
0,66,0,0
0,62,0,42
0,38,0,8
0,69,0,34
0,50,0,8
0,57,0,12
0,50,0,20
0,62,0,6
0,43,115,4
0,43,90,0
0,42,54,0
0,35,112,0
0,43,110,0
0,35,0,12
0,42,0,0
0,55,90,16
0,62,67,0
0,59,90,18
0,67,0,26
0,67,79,40
0,54,116,0
0,62,113,0
0,66,110,0
0,37,100,0
0,71,79,0
0,62,90,0
0,42,54,0
0,42,0,12
0,62,0,0
0,54,0,0
0,37,0,0
0,59,0,2
0,55,0,42
0,67,0,24
0,71,0,0
0,43,0,20
0,62,0,14
0,66,0,4
0,59,90,74
0,71,100,0
0,67,100,0
0,64,117,0
0,62,72,0
0,67,0,4
0,71,0,0
0,62,0,14
0,42,61,10
0,42,0,2
0,55,90,12
0,35,95,0
0,62,100,0
0,42,110,0
0,35,0,6
0,59,0,4
0,42,0,16
0,64,0,32
0,71,127,64
0,67,127,0
0,62,114,0
0,59,90,0
0,54,116,0
0,42,100,0
0,43,110,0
0,64,127,0
0,37,116,0
0,37,0,12
0,54,0,0
0,64,0,0
0,42,0,0
0,55,0,46
0,62,0,24
0,43,0,8
0,62,0,4
0,45,110,44
0,64,113,0
0,55,90,0
0,66,121,0
0,62,88,0
0,64,0,12
0,67,0,10
0,71,0,2
0,43,0,22
0,43,0,2
0,45,0,0
0,59,0,20
0,55,0,4
0,62,0,44
0,62,0,20
0,50,115,18
0,42,54,0
0,35,112,0
0,38,110,0
0,50,90,0
0,35,0,12
0,42,0,0
0,62,88,6
0,57,90,0
0,62,90,12
0,57,0,34
0,66,0,8
0,38,0,8
0,62,0,6
0,42,54,8
0,37,116,0
0,38,110,0
0,66,90,0
0,62,113,0
0,54,100,0
0,66,103,0
0,69,115,0
0,62,111,0
0,54,0,12
0,62,0,0
0,37,0,0
0,42,0,0
0,38,0,28
0,66,0,14
0,69,0,10
0,62,0,30
0,62,0,92
0,62,67,6
0,57,114,0
0,69,115,0
0,62,90,0
0,66,120,0
0,66,0,46
0,69,0,2
0,62,0,8
0,42,61,136
0,42,0,12
0,62,88,18
0,57,90,0
0,33,110,0
0,35,95,0
0,35,0,12
0,62,0,12
0,66,0,8
0,33,0,8
0,62,90,10
0,54,100,0
0,64,127,0
0,33,110,0
0,69,115,0
0,37,116,0
0,66,120,0
0,42,100,0
0,42,0,4
0,64,0,0
0,54,0,0
0,37,0,0
0,57,0,26
0,57,0,24
0,62,0,68
0,33,0,8
0,62,88,54
0,57,90,0
0,64,113,0
0,64,0,12
0,50,0,48
0,50,0,22
0,42,54,110
0,38,110,0
0,50,90,0
0,50,127,0
0,35,112,0
0,69,0,0
0,66,0,0
0,35,0,12
0,42,0,0
0,57,0,44
0,62,0,12
0,62,0,20
0,57,90,104
0,62,100,0
0,62,90,96
0,38,0,86
0,37,100,10
0,62,113,0
0,42,54,0
0,38,110,0
0,69,115,0
0,66,120,0
0,54,116,0
0,66,90,0
0,62,0,8
0,42,0,4
0,54,0,0
0,62,0,0
0,37,0,0
0,38,0,16
0,66,0,32
0,69,0,6
0,62,0,58
0,57,84,68
0,66,120,0
0,62,72,0
0,62,90,0
0,69,115,0
0,66,0,54
0,69,0,2
0,57,0,8
0,62,0,28
0,57,0,14
0,57,127,86
0,42,61,0
0,42,0,12
0,57,0,22
0,62,0,2
0,57,90,4
0,57,114,0
0,35,95,0
0,62,88,0
0,33,110,0
0,35,0,0
0,57,0,20
0,33,0,14
0,57,99,12
0,33,110,0
0,69,127,0
0,54,100,0
0,64,127,0
0,66,120,0
0,37,116,0
0,42,100,0
0,62,90,0
0,42,0,8
0,54,0,0
0,37,0,0
0,64,0,0
