track,note,velocity,time
1,53,64,2308
1,41,64,0
1,58,64,28
1,46,64,0
1,60,64,28
1,48,64,0
1,53,64,44
1,41,64,0
1,58,64,28
1,46,64,0
1,60,64,28
1,48,64,0
1,53,64,44
1,41,64,0
1,53,64,80
1,41,64,0
1,58,64,0
1,46,64,0
1,58,64,80
1,46,64,0
1,60,64,0
1,48,64,0
1,60,64,692
1,48,64,0
1,60,64,28
1,48,64,0
1,57,64,192
1,45,64,0
1,60,64,0
1,48,64,0
1,53,64,0
1,41,64,0
1,53,64,80
1,41,64,0
1,58,64,0
1,46,64,0
1,58,64,80
1,46,64,0
1,60,64,0
1,48,64,0
1,60,64,692
1,48,64,0
1,60,64,28
1,48,64,0
1,57,64,192
1,45,64,0
1,60,64,0
1,48,64,0
1,53,64,0
1,41,64,0
1,53,64,80
1,41,64,0
1,58,64,0
1,46,64,0
1,58,64,80
1,46,64,0
1,60,64,0
1,48,64,0
1,60,64,692
1,48,64,0
1,60,64,28
1,48,64,0
1,57,64,384
1,45,64,0
1,58,64,0
1,46,64,0
1,58,64,80
1,46,64,0
1,60,64,0
1,48,64,0
1,60,64,80
1,48,64,0
1,53,64,0
1,41,64,0
1,53,64,80
1,41,64,0
1,53,64,0
1,41,64,0
1,53,64,80
1,41,64,0
1,58,64,0
1,46,64,0
1,58,64,80
1,46,64,0
1,60,64,0
1,48,64,0
1,60,64,80
1,48,64,0
1,53,64,0
1,41,64,0
1,53,64,692
1,41,64,0
1,53,64,28
1,41,64,0
1,58,64,152
1,46,64,0
1,58,64,80
1,46,64,0
1,60,64,0
1,48,64,0
1,60,64,80
1,48,64,0
1,53,64,0
1,41,64,0
1,53,64,688
1,41,64,4
1,53,64,28
1,41,64,0
1,53,64,288
1,41,64,0
1,50,64,28
1,38,64,0
1,50,64,80
1,38,64,0
1,50,64,0
1,38,64,0
1,46,64,476
1,34,64,0
1,46,64,692
1,34,64,0
1,46,64,28
1,34,64,0
1,48,64,152
1,36,64,0
1,48,64,80
1,36,64,0
1,50,64,0
1,38,64,0
1,50,64,80
1,38,64,0
1,46,64,0
1,34,64,0
1,46,64,80
1,34,64,0
1,48,64,0
1,36,64,0
1,48,64,80
1,36,64,0
1,48,64,0
1,36,64,0
1,48,64,80
1,36,64,0
1,53,64,192
1,41,64,0
1,53,64,80
1,41,64,0
1,58,64,0
1,46,64,0
1,58,64,80
1,46,64,0
1,60,64,0
1,48,64,0
1,60,64,692
1,48,64,0
1,60,64,28
1,48,64,0
1,57,64,192
1,45,64,0
1,60,64,0
1,48,64,0
1,53,64,0
1,41,64,0
1,53,64,80
1,41,64,0
1,58,64,0
1,46,64,0
1,58,64,80
1,46,64,0
1,60,64,0
1,48,64,0
1,60,64,692
1,48,64,0
1,60,64,28
1,48,64,0
1,57,64,192
1,45,64,0
1,60,64,0
1,48,64,0
1,53,64,0
1,41,64,0
1,53,64,80
1,41,64,0
1,58,64,0
1,46,64,0
1,58,64,80
1,46,64,0
1,60,64,0
1,48,64,0
1,60,64,692
1,48,64,0
1,60,64,28
1,48,64,0
1,57,64,384
1,45,64,0
1,58,64,0
1,46,64,0
1,58,64,80
1,46,64,0
1,60,64,0
1,48,64,0
1,60,64,80
1,48,64,0
1,53,64,0
1,41,64,0
1,53,64,80
1,41,64,0
1,53,64,0
1,41,64,0
1,53,64,80
1,41,64,0
1,58,64,0
1,46,64,0
1,58,64,80
1,46,64,0
1,60,64,0
1,48,64,0
1,60,64,80
1,48,64,0
1,53,64,0
1,41,64,0
1,53,64,692
1,41,64,0
1,53,64,28
1,41,64,0
1,58,64,152
1,46,64,0
1,58,64,80
1,46,64,0
1,60,64,0
1,48,64,0
1,60,64,80
1,48,64,0
1,53,64,0
1,41,64,0
1,53,64,692
1,41,64,0
1,53,64,28
1,41,64,0
1,53,64,288
1,41,64,0
1,50,64,28
1,38,64,0
1,50,64,80
1,38,64,0
1,50,64,0
1,38,64,0
1,46,64,476
1,34,64,0
1,46,64,692
1,34,64,0
1,46,64,28
1,34,64,0
1,48,64,152
1,36,64,0
1,48,64,80
1,36,64,0
1,50,64,0
1,38,64,0
1,50,64,80
1,38,64,0
1,46,64,0
1,34,64,0
1,46,64,80
1,34,64,0
1,48,64,0
1,36,64,0
1,48,64,80
1,36,64,0
1,48,64,0
1,36,64,0
1,48,64,80
1,36,64,0
1,53,64,192
1,41,64,0
1,53,64,80
1,41,64,0
1,58,64,0
1,46,64,0
1,58,64,80
1,46,64,0
1,60,64,0
1,48,64,0
1,60,64,692
1,48,64,0
1,60,64,28
1,48,64,0
1,57,64,192
1,45,64,0
1,60,64,0
1,48,64,0
1,53,64,0
1,41,64,0
1,53,64,80
1,41,64,0
1,58,64,0
1,46,64,0
1,58,64,80
1,46,64,0
1,60,64,0
1,48,64,0
1,60,64,692
1,48,64,0
1,60,64,28
1,48,64,0
1,57,64,192
1,45,64,0
1,60,64,0
1,48,64,0
1,53,64,0
1,41,64,0
1,53,64,80
1,41,64,0
1,58,64,0
1,46,64,0
1,58,64,80
1,46,64,0
1,60,64,0
1,48,64,0
1,60,64,692
1,48,64,0
1,60,64,28
1,48,64,0
1,57,64,384
1,45,64,0
1,58,64,0
1,46,64,0
1,58,64,80
1,46,64,0
1,60,64,0
1,48,64,0
1,60,64,80
1,48,64,0
1,53,64,0
1,41,64,0
1,53,64,80
1,41,64,0
1,53,64,0
1,41,64,0
1,53,64,80
1,41,64,0
1,53,64,0
1,41,64,0
1,53,64,80
1,41,64,0
1,58,64,0
1,46,64,0
1,58,64,80
1,46,64,0
1,60,64,0
1,48,64,0
1,60,64,692
1,48,64,0
1,60,64,28
1,48,64,0
1,57,64,192
1,45,64,0
1,60,64,0
1,48,64,0
1,53,64,0
1,41,64,0
1,53,64,80
1,41,64,0
1,58,64,0
1,46,64,0
1,58,64,80
1,46,64,0
1,60,64,0
1,48,64,0
1,60,64,692
1,48,64,0
1,60,64,28
1,48,64,0
1,57,64,192
1,45,64,0
1,60,64,0
1,48,64,0
1,53,64,0
1,41,64,0
1,53,64,80
1,41,64,0
1,58,64,0
1,46,64,0
1,58,64,80
1,46,64,0
1,60,64,0
1,48,64,0
1,60,64,692
1,48,64,0
1,60,64,28
1,48,64,0
1,57,64,384
1,45,64,0
1,58,64,0
1,46,64,0
1,58,64,80
1,46,64,0
1,60,64,0
1,48,64,0
1,60,64,80
1,48,64,0
1,53,64,0
1,41,64,0
1,53,64,80
1,41,64,0
1,53,64,0
1,41,64,0
1,53,64,16
1,41,64,0
1,45,64,92
1,33,64,0
1,46,64,44
1,34,64,0
1,45,64,44
1,33,64,0
1,46,64,28
1,34,64,0
1,48,64,28
1,36,64,0
1,48,64,44
1,36,64,0
1,53,64,44
1,41,64,0
1,53,64,80
1,41,64,0
1,58,64,0
1,46,64,0
1,58,64,80
1,46,64,0
1,60,64,0
1,48,64,0
1,60,64,692
1,48,64,0
1,60,64,28
1,48,64,0
1,57,64,192
1,45,64,0
1,60,64,0
1,48,64,0
1,53,64,0
1,41,64,0
1,53,64,80
1,41,64,0
1,58,64,0
1,46,64,0
1,58,64,80
1,46,64,0
1,60,64,0
1,48,64,0
1,60,64,692
1,48,64,0
1,60,64,28
1,48,64,0
1,57,64,192
1,45,64,0
1,60,64,0
1,48,64,0
1,53,64,0
1,41,64,0
1,53,64,80
1,41,64,0
1,58,64,0
1,46,64,0
1,58,64,80
1,46,64,0
1,60,64,0
1,48,64,0
1,60,64,692
1,48,64,0
1,60,64,28
1,48,64,0
1,57,64,384
1,45,64,0
1,58,64,0
1,46,64,0
1,58,64,80
1,46,64,0
1,60,64,0
1,48,64,0
1,60,64,80
1,48,64,0
1,53,64,0
1,41,64,0
1,53,64,80
1,41,64,0
1,53,64,0
1,41,64,0
1,53,64,80
1,41,64,0
1,53,64,0
1,41,64,0
1,53,64,80
1,41,64,0
1,58,64,0
1,46,64,0
1,58,64,80
1,46,64,0
1,60,64,0
1,48,64,0
1,60,64,688
1,48,64,4
1,60,64,28
1,48,64,0
1,57,64,192
1,45,64,0
1,60,64,0
1,48,64,0
1,53,64,0
1,41,64,0
1,53,64,80
1,41,64,0
1,58,64,0
1,46,64,0
1,58,64,80
1,46,64,0
1,60,64,0
1,48,64,0
1,60,64,692
1,48,64,0
1,60,64,28
1,48,64,0
1,57,64,192
1,45,64,0
1,60,64,0
1,48,64,0
1,53,64,0
1,41,64,0
1,53,64,80
1,41,64,0
1,58,64,0
1,46,64,0
1,58,64,80
1,46,64,0
1,60,64,0
1,48,64,0
1,60,64,692
1,48,64,0
1,60,64,28
1,48,64,0
1,57,64,384
1,45,64,0
1,58,64,0
1,46,64,0
1,58,64,16
1,46,64,0
1,60,64,0
1,48,64,0
1,60,64,16
1,48,64,0
1,53,64,0
1,41,64,0
1,53,64,16
1,41,64,0
1,53,64,0
1,41,64,0
1,53,64,16
1,41,64,0
1,53,64,0
1,41,64,0
1,53,64,16
1,41,64,0
1,58,64,0
1,46,64,0
1,58,64,16
1,46,64,0
1,60,64,0
1,48,64,0
1,60,64,132
1,48,64,0
1,60,64,28
1,48,64,0
1,57,64,192
1,45,64,0
1,60,64,0
1,48,64,0
1,53,64,0
1,41,64,0
1,53,64,16
1,41,64,0
1,58,64,0
1,46,64,0
1,58,64,16
1,46,64,0
1,60,64,0
1,48,64,0
1,60,64,132
1,48,64,0
1,60,64,28
1,48,64,0
2,69,80,33804
2,72,80,0
2,77,80,0
2,70,80,32
2,74,80,0
2,77,80,0
2,67,80,32
2,72,80,0
2,76,80,0
2,69,80,772
2,72,80,0
2,77,80,4
2,70,80,32
2,74,80,0
2,77,80,0
2,67,80,0
2,72,80,0
2,76,80,0
2,69,80,772
2,72,80,0
2,77,80,0
2,70,80,32
2,74,80,0
2,77,80,0
2,67,80,0
2,72,80,0
2,76,80,0
2,70,80,1536
2,74,80,0
2,77,80,0
2,67,80,32
2,72,80,0
2,76,80,0
2,69,80,32
2,72,80,0
2,77,80,0
2,70,80,1536
2,74,80,0
2,77,80,4
2,67,80,32
2,72,80,0
2,76,80,0
2,69,80,32
2,72,80,0
2,77,80,0
2,70,80,1528
2,74,80,0
2,77,80,0
2,67,80,36
2,72,80,0
2,76,80,0
2,69,80,0
2,72,80,0
2,77,80,0
2,65,80,1536
2,69,80,0
2,74,80,0
2,65,80,0
2,70,80,0
2,74,80,0
2,67,80,0
2,72,80,0
2,76,80,4
2,70,80,32
2,74,80,0
2,77,80,0
2,67,80,48
2,72,80,0
2,76,80,0
2,67,80,28
2,72,80,0
2,76,80,0
2,69,80,164
2,72,80,0
2,77,80,0
2,70,80,32
2,74,80,0
2,77,80,0
2,67,80,32
2,72,80,0
2,76,80,0
2,69,80,1536
2,72,80,0
2,77,80,4
2,70,80,32
2,74,80,0
2,77,80,0
2,67,80,0
2,72,80,0
2,76,80,0
2,69,80,1536
2,72,80,0
2,77,80,0
2,70,80,32
2,74,80,0
2,77,80,0
2,67,80,0
2,72,80,0
2,76,80,0
2,70,80,1536
2,74,80,0
2,77,80,4
2,67,80,32
2,72,80,0
2,76,80,0
2,69,80,32
2,72,80,0
2,77,80,0
2,69,80,1536
2,72,80,0
2,77,80,4
2,70,80,756
2,74,80,0
2,77,80,0
2,67,80,0
2,72,80,0
2,76,80,0
2,69,80,1528
2,72,80,0
2,77,80,4
2,70,80,32
2,74,80,0
2,77,80,0
2,67,80,0
2,72,80,0
2,76,80,0
2,69,80,1536
2,72,80,0
2,77,80,4
2,70,80,32
2,74,80,0
2,77,80,0
2,67,80,0
2,72,80,0
2,76,80,0
2,70,80,1536
2,74,80,0
2,77,80,4
2,67,80,32
2,72,80,0
2,76,80,0
2,69,80,32
2,72,80,0
2,77,80,0
2,65,80,1536
2,69,80,4
2,74,80,0
2,65,80,1520
2,70,80,0
2,74,80,4
2,65,80,0
2,69,80,0
2,74,80,0
2,65,80,32
2,70,80,0
2,74,80,0
2,67,80,32
2,72,80,0
2,76,80,4
2,67,80,1528
2,72,80,0
2,76,80,0
2,69,80,8
2,72,80,0
2,77,80,4
2,70,80,32
2,74,80,0
2,77,80,0
2,67,80,32
2,72,80,0
2,76,80,0
2,69,80,1536
2,72,80,0
2,77,80,4
2,70,80,32
2,74,80,0
2,77,80,0
2,67,80,0
2,72,80,0
2,76,80,4
2,69,80,1532
2,72,80,0
2,77,80,4
2,70,80,32
2,74,80,0
2,77,80,0
2,67,80,0
2,72,80,0
2,76,80,0
2,70,80,1536
2,74,80,0
2,77,80,4
2,67,80,32
2,72,80,0
2,76,80,0
2,69,80,32
2,72,80,0
2,77,80,0
2,69,80,1536
2,72,80,0
2,77,80,4
2,70,80,756
2,74,80,0
2,77,80,0
2,67,80,0
2,72,80,0
2,76,80,0
2,69,80,1528
2,72,80,0
2,77,80,4
2,70,80,32
2,74,80,0
2,77,80,0
2,67,80,0
2,72,80,0
2,76,80,0
2,69,80,1536
2,72,80,0
2,77,80,4
2,70,80,32
2,74,80,0
2,77,80,0
2,67,80,0
2,72,80,0
2,76,80,0
2,70,80,1536
2,74,80,0
2,77,80,4
2,67,80,32
2,72,80,0
2,76,80,0
2,69,80,32
2,72,80,0
2,77,80,4
2,69,80,212
2,72,80,0
2,77,80,4
2,70,80,212
2,74,80,0
2,77,80,0
2,67,80,0
2,72,80,0
2,76,80,0
2,69,80,212
2,72,80,0
2,77,80,4
2,70,80,32
2,74,80,0
2,77,80,0
2,67,80,0
2,72,80,0
2,76,80,0
3,72,70,772
3,77,70,4
3,81,70,0
3,74,70,236
3,77,70,4
3,82,70,0
3,72,70,224
3,76,70,0
3,79,70,0
3,65,70,540
3,70,70,4
3,74,70,0
3,65,70,192
3,69,70,0
3,72,70,0
3,65,70,268
3,70,70,0
3,74,70,0
3,67,70,300
3,72,70,0
3,76,70,0
3,65,70,284
3,69,70,0
3,72,70,0
3,65,70,192
3,70,70,0
3,74,70,0
3,64,70,160
3,67,70,0
3,72,70,0
3,65,70,720
3,69,70,0
3,72,70,0
3,65,70,300
3,70,70,0
3,74,70,0
3,64,70,276
3,67,70,0
3,72,70,0
3,65,70,752
3,69,70,0
3,72,70,0
3,65,70,172
3,70,70,0
3,74,70,0
3,64,70,144
3,67,70,0
3,72,70,0
3,65,70,764
3,70,70,0
3,74,70,0
3,64,70,12
3,67,70,0
3,72,70,0
3,65,70,64
3,69,70,0
3,72,70,0
3,65,70,380
3,70,70,0
3,74,70,0
3,64,70,64
3,67,70,0
3,72,70,0
3,65,70,48
3,69,70,0
3,72,70,0
3,65,70,396
3,70,70,0
3,74,70,0
3,64,70,4
3,67,70,0
3,72,70,0
3,65,70,32
3,69,70,0
3,72,70,0
3,62,70,480
3,65,70,0
3,69,70,0
3,62,70,400
3,65,70,0
3,70,70,0
3,64,70,316
3,67,70,0
3,72,70,0
3,62,70,76
3,65,70,0
3,70,70,0
3,64,70,1536
3,67,70,0
3,72,70,0
3,65,70,44
3,69,70,0
3,72,70,0
3,65,70,184
3,70,70,4
3,74,70,0
3,64,70,160
3,67,70,0
3,72,70,4
3,65,70,720
3,69,70,0
3,72,70,4
3,65,70,300
3,70,70,0
3,74,70,0
3,64,70,276
3,67,70,0
3,72,70,0
3,65,70,752
3,69,70,0
3,72,70,0
3,65,70,172
3,70,70,0
3,74,70,0
3,64,70,144
3,67,70,0
3,72,70,0
3,65,70,764
3,70,70,0
3,74,70,0
3,64,70,8
3,67,70,4
3,72,70,0
3,65,70,60
3,69,70,4
3,72,70,0
3,65,70,380
3,70,70,0
3,74,70,0
3,64,70,64
3,67,70,0
3,72,70,0
3,65,70,48
3,69,70,0
3,72,70,0
3,65,70,396
3,70,70,0
3,74,70,0
3,64,70,4
3,67,70,0
3,72,70,0
3,65,70,28
3,69,70,4
3,72,70,0
3,62,70,480
3,65,70,0
3,69,70,0
3,62,70,400
3,65,70,0
3,70,70,0
3,64,70,316
3,67,70,0
3,72,70,4
3,62,70,76
3,65,70,0
3,70,70,0
3,64,70,1536
3,67,70,0
3,72,70,0
3,65,70,44
