track,note,velocity,time
1,38,99,768
1,38,81,58
1,38,90,64
1,38,99,64
1,38,90,64
1,38,99,64
1,38,90,64
1,38,99,64
1,38,90,64
1,38,99,64
1,38,90,64
1,38,90,64
1,38,90,64
1,38,90,64
1,38,90,64
1,38,90,64
1,38,81,64
1,38,90,64
1,38,90,64
1,38,81,64
1,38,90,64
1,38,90,64
1,38,90,64
1,38,99,64
1,38,99,64
1,38,90,64
1,38,81,64
1,38,90,64
1,38,81,64
1,38,90,64
1,38,99,64
1,38,99,64
1,38,99,64
1,38,81,64
1,38,90,64
1,38,99,64
1,38,90,64
1,38,99,64
1,38,90,64
1,38,81,64
1,38,99,64
1,38,90,64
1,38,90,64
1,38,81,64
1,38,81,64
1,38,81,64
1,38,81,64
1,38,90,64
1,38,81,64
1,38,72,64
1,38,81,64
1,38,81,64
1,38,90,64
1,38,90,64
1,38,81,64
1,38,99,64
1,38,90,64
1,38,81,64
1,38,90,64
1,38,99,64
1,38,90,64
1,38,81,64
1,38,99,64
1,38,99,64
1,38,99,64
1,38,81,64
1,38,90,64
1,38,99,64
1,38,90,64
1,38,99,64
1,38,90,64
1,38,81,64
1,38,99,64
1,38,90,64
1,38,90,64
1,38,81,64
1,38,81,64
1,38,81,64
1,38,81,64
1,38,90,64
1,38,81,64
1,38,72,64
1,38,81,64
1,38,81,64
1,38,90,64
1,38,90,64
1,38,81,64
1,38,99,64
1,38,90,64
1,38,81,64
1,38,90,64
1,38,99,64
1,38,90,64
1,38,81,64
1,38,99,64
1,38,99,64
1,38,99,64
1,38,81,64
1,38,90,64
1,38,99,64
1,38,90,64
1,38,99,64
1,38,90,64
1,38,81,64
1,38,99,64
1,38,90,64
1,38,90,64
1,38,81,64
1,38,81,64
1,38,81,64
1,38,81,64
1,38,90,64
1,38,81,64
1,38,72,64
1,38,81,64
1,38,81,64
1,38,90,64
1,38,90,64
1,38,81,64
1,38,99,64
1,38,90,64
1,38,81,64
1,38,90,64
1,38,99,64
1,38,90,64
1,38,81,64
1,38,99,64
1,38,99,64
1,38,99,64
1,38,81,64
1,38,90,64
1,38,99,64
1,38,90,64
1,38,99,64
1,38,90,64
1,38,81,64
1,38,99,64
1,38,90,64
1,38,90,64
1,38,81,64
1,38,81,64
1,38,81,64
1,38,81,64
1,38,90,64
1,38,81,64
1,38,72,64
1,38,81,64
1,38,81,64
1,38,90,64
1,38,90,64
1,38,81,64
1,38,99,64
1,38,90,64
1,38,81,64
1,38,90,64
1,38,99,64
1,38,90,64
1,38,81,64
1,38,99,64
1,38,99,64
1,40,99,64
1,40,81,58
1,40,81,64
1,40,81,64
1,40,81,64
1,40,72,64
1,40,72,64
1,40,68,64
1,42,81,64
1,42,64,58
1,42,72,64
1,42,60,64
1,42,68,64
1,42,64,64
1,42,64,64
1,42,68,64
1,43,81,64
1,43,60,58
1,43,64,64
1,43,60,64
1,43,64,64
1,43,64,64
1,43,68,64
1,43,64,64
1,42,72,64
1,42,64,58
1,42,64,64
1,42,56,64
1,42,68,64
1,42,60,64
1,42,68,64
1,42,68,64
1,40,72,64
1,40,68,58
1,40,72,64
1,40,68,64
1,42,72,64
1,42,68,58
1,42,72,64
1,42,72,64
1,43,72,64
1,43,64,58
1,43,64,64
1,43,72,64
1,45,68,64
1,45,81,58
1,45,81,64
1,45,72,64
1,38,72,64
1,38,72,58
1,38,68,64
1,38,72,64
1,38,68,64
1,38,68,64
1,38,72,64
1,38,64,64
1,38,68,64
1,38,60,64
1,38,68,64
1,38,68,64
1,38,64,64
1,38,68,64
1,38,68,64
1,38,68,64
1,38,72,64
1,38,68,64
1,38,68,64
1,38,68,64
1,38,68,64
1,38,68,64
1,38,64,64
1,38,68,64
1,38,64,64
1,38,72,64
1,38,68,64
1,38,72,64
1,38,72,48
1,38,72,64
1,38,72,64
1,38,90,64
1,38,99,32
1,38,81,64
1,38,90,64
1,38,99,64
1,38,90,64
1,38,99,64
1,38,90,64
1,38,81,64
1,38,99,64
1,38,90,64
1,38,90,64
1,38,81,64
1,38,81,64
1,38,81,64
1,38,81,64
1,38,90,64
1,38,81,64
1,38,72,64
1,38,81,64
1,38,81,64
1,38,90,64
1,38,90,64
1,38,81,64
1,38,99,64
1,38,90,64
1,38,81,64
1,38,90,64
1,38,99,64
1,38,90,64
1,38,81,64
1,38,99,64
1,38,99,64
1,38,99,64
1,38,81,64
1,38,90,64
1,38,99,64
1,38,90,64
1,38,99,64
1,38,90,64
1,38,81,64
1,38,99,64
1,38,90,64
1,38,90,64
1,38,81,64
1,38,81,64
1,38,81,64
1,38,81,64
1,38,90,64
1,38,81,64
1,38,72,64
1,38,81,64
1,38,81,64
1,38,90,64
1,38,90,64
1,38,81,64
1,38,99,64
1,38,90,64
1,38,81,64
1,38,90,64
1,38,99,64
1,38,90,64
1,38,81,64
1,38,99,64
1,38,99,64
1,40,99,64
1,40,81,58
1,40,81,64
1,40,81,64
1,40,81,64
1,40,72,64
1,40,72,64
1,40,68,64
1,42,81,64
1,42,64,58
1,42,72,64
1,42,60,64
1,42,68,64
1,42,64,64
1,42,64,64
1,42,68,64
1,43,81,64
1,43,60,58
1,43,64,64
1,43,60,64
1,43,64,64
1,43,64,64
1,43,68,64
1,43,64,64
1,42,72,64
1,42,64,58
1,42,64,64
1,42,56,64
1,42,68,64
1,42,60,64
1,42,68,64
1,42,68,64
1,40,72,64
1,40,68,58
1,40,72,64
1,40,68,64
1,42,72,64
1,42,68,58
1,42,72,64
1,42,72,64
1,43,72,64
1,43,64,58
1,43,64,64
1,43,72,64
1,45,68,64
1,45,81,58
1,45,81,64
1,45,72,64
1,31,81,64
1,31,72,58
1,31,90,64
1,31,72,64
1,31,68,64
1,31,81,64
1,31,72,64
1,31,68,64
1,38,81,64
1,38,64,58
1,38,64,64
1,38,68,64
1,33,72,64
1,33,81,58
1,33,81,64
1,33,72,64
1,31,90,64
1,31,81,58
1,31,81,64
1,31,81,64
1,31,81,64
1,31,81,64
1,31,81,64
1,31,81,64
1,38,81,64
1,38,68,58
1,38,72,64
1,38,72,64
1,33,72,64
1,33,72,58
1,33,81,64
1,33,81,64
1,31,90,64
1,31,81,58
1,31,90,64
1,31,81,64
1,31,81,64
1,31,81,64
1,31,90,64
1,31,90,64
1,38,72,64
1,38,60,58
1,38,81,64
1,38,72,64
1,33,81,64
1,33,81,58
1,33,90,64
1,33,99,64
1,40,99,64
1,40,81,58
1,40,81,64
1,40,81,64
1,40,81,64
1,40,72,64
1,40,72,64
1,40,68,64
1,42,81,64
1,42,64,58
1,42,72,64
1,42,60,64
1,42,68,64
1,42,64,64
1,42,64,64
1,42,68,64
1,43,81,64
1,43,60,58
1,43,64,64
1,43,60,64
1,43,64,64
1,43,64,64
1,43,68,64
1,43,64,64
1,42,72,64
1,42,64,58
1,42,64,64
1,42,56,64
1,42,68,64
1,42,60,64
1,42,68,64
1,42,68,64
1,40,72,64
1,40,68,58
1,40,72,64
1,40,68,64
1,42,72,64
1,42,68,58
1,42,72,64
1,42,72,64
1,43,72,64
1,43,64,58
1,43,64,64
1,43,72,64
1,45,68,64
1,45,81,58
1,45,81,64
1,45,72,64
1,31,81,64
1,38,90,68
1,33,90,32
1,31,99,32
1,38,99,16
1,33,90,34
1,31,99,48
1,38,90,16
1,33,90,32
1,31,90,34
1,38,99,32
1,33,90,32
1,35,99,32
1,36,99,34
1,35,99,80
1,36,81,128
1,31,99,48
1,33,99,66
1,38,99,34
1,38,81,58
1,38,90,64
1,38,99,64
1,38,90,64
1,38,99,64
1,38,90,64
1,38,81,64
1,38,99,64
1,38,90,64
1,38,90,64
1,38,81,64
1,38,81,64
1,38,81,64
1,38,81,64
1,38,90,64
1,38,81,64
1,38,72,64
1,38,81,64
1,38,81,64
1,38,90,64
1,38,90,64
1,38,81,64
1,38,99,64
1,38,90,64
1,38,81,64
1,38,90,64
1,38,99,64
1,38,90,64
1,38,81,64
1,38,99,64
1,38,99,64
1,38,99,64
1,38,81,64
1,38,90,64
1,38,99,64
1,38,90,64
1,38,99,64
1,38,90,64
1,38,81,64
1,38,99,64
1,38,90,64
1,38,90,64
1,38,81,64
1,38,81,64
1,38,81,64
1,38,81,64
1,38,90,64
1,38,81,64
1,38,72,64
1,38,81,64
1,38,81,64
1,38,90,64
1,38,90,64
1,38,81,64
1,38,99,64
1,38,90,64
1,38,81,64
1,38,90,64
1,38,99,64
1,38,90,64
1,38,81,64
1,38,99,64
1,38,99,64
1,40,99,64
1,40,81,58
1,40,81,64
1,40,81,64
1,40,81,64
1,40,72,64
1,40,72,64
1,40,68,64
1,42,81,64
1,42,64,58
1,42,72,64
1,42,60,64
1,42,68,64
1,42,64,64
1,42,64,64
1,42,68,64
1,43,81,64
1,43,60,58
1,43,64,64
1,43,60,64
1,43,64,64
1,43,64,64
1,43,68,64
1,43,64,64
1,42,72,64
1,42,64,58
1,42,64,64
1,42,56,64
1,42,68,64
1,42,60,64
1,42,68,64
1,42,68,64
1,40,72,64
1,40,68,58
1,40,72,64
1,40,68,64
1,42,72,64
1,42,68,58
1,42,72,64
1,42,72,64
1,43,72,64
1,43,64,58
1,43,64,64
1,43,72,64
1,45,68,64
1,45,81,58
1,45,81,64
1,45,72,64
1,38,99,64
1,38,81,58
1,38,90,64
1,38,99,64
1,38,90,64
1,38,99,64
1,38,90,64
1,38,81,64
1,38,99,64
1,38,90,64
1,38,90,64
1,38,81,64
1,38,81,64
1,38,81,64
1,38,81,64
1,38,90,64
1,38,81,64
1,38,72,64
1,38,81,64
1,38,81,64
1,38,90,64
1,38,90,64
1,38,81,64
1,38,99,64
1,38,90,64
1,38,81,64
1,38,90,64
1,38,99,64
1,38,90,64
1,38,81,64
1,38,99,64
1,38,99,64
1,38,99,64
1,38,81,64
1,38,90,64
1,38,99,64
1,38,90,64
1,38,99,64
1,38,90,64
1,38,81,64
1,38,99,64
1,38,90,64
1,38,90,64
1,38,81,64
1,38,81,64
1,38,81,64
1,38,81,64
1,38,90,64
1,38,81,64
1,38,72,64
1,38,81,64
1,38,81,64
1,38,90,64
1,38,90,64
1,38,81,64
1,38,99,64
1,38,90,64
1,38,81,64
1,38,90,64
1,38,99,64
1,38,90,64
1,38,81,64
1,38,99,64
1,38,99,64
1,40,99,64
1,40,81,58
1,40,81,64
1,40,81,64
1,40,81,64
1,40,72,64
1,40,72,64
1,40,68,64
1,42,81,64
1,42,64,58
1,42,72,64
1,42,60,64
1,42,68,64
1,42,64,64
1,42,64,64
1,42,68,64
1,43,81,64
1,43,60,58
1,43,64,64
1,43,60,64
1,43,64,64
1,43,64,64
1,43,68,64
1,43,64,64
1,42,72,64
1,42,64,58
1,42,64,64
1,42,56,64
1,42,68,64
1,42,60,64
1,42,68,64
1,42,68,64
1,40,72,64
1,40,68,58
1,40,72,64
1,40,68,64
1,42,72,64
1,42,68,58
1,42,72,64
1,42,72,64
1,43,72,64
1,43,64,58
1,43,64,64
1,43,72,64
1,45,68,64
1,45,81,58
1,45,81,64
1,45,72,64
1,40,99,64
1,40,81,58
1,40,81,64
1,40,81,64
1,40,81,64
1,40,72,64
1,40,72,64
1,40,68,64
1,42,81,64
1,42,64,58
1,42,72,64
1,42,60,64
1,42,68,64
1,42,64,64
1,42,64,64
1,42,68,64
1,43,81,64
1,43,60,58
1,43,64,64
1,43,60,64
1,43,64,64
1,43,64,64
1,43,68,64
1,43,64,64
1,42,72,64
1,42,64,58
1,42,64,64
1,42,56,64
1,42,68,64
1,42,60,64
1,42,68,64
1,42,68,64
1,40,72,64
1,40,68,58
1,40,72,64
1,40,68,64
1,42,72,64
1,42,68,58
1,42,72,64
1,42,72,64
1,43,72,64
1,43,64,58
1,43,64,64
1,43,72,64
1,45,68,64
1,45,81,58
1,45,81,64
1,45,72,64
1,31,99,64
1,38,99,132
1,38,108,96
1,33,99,80
1,33,99,80
1,31,99,98
1,38,99,128
1,38,108,96
1,33,99,66
1,33,108,80
1,40,99,32
1,40,81,36
1,40,81,16
1,40,81,58
1,40,81,64
1,40,72,64
1,40,72,64
1,40,68,64
1,42,81,64
1,42,64,58
1,42,72,64
1,42,60,64
1,42,68,64
1,42,64,64
1,42,64,64
1,42,68,64
1,43,81,64
1,43,60,58
1,43,64,64
1,43,60,64
1,43,64,64
1,43,64,64
1,43,68,64
1,43,64,64
1,42,72,64
1,42,64,58
1,42,64,64
1,42,56,64
1,42,68,64
1,42,60,64
1,42,68,64
1,42,68,64
1,40,72,64
1,40,68,58
1,40,72,64
1,40,68,64
1,42,72,64
1,42,68,58
1,42,72,64
1,42,72,64
1,43,72,64
1,43,64,58
1,43,64,64
1,43,72,64
1,45,68,64
1,45,81,58
1,45,81,64
1,45,72,64
1,38,81,64
1,38,99,58
1,38,99,64
1,38,90,64
1,38,90,64
1,38,90,64
1,38,90,64
1,38,90,64
1,38,90,64
1,38,90,64
1,38,90,64
1,38,81,64
1,38,81,64
1,38,81,64
1,38,81,64
1,38,81,64
1,38,81,64
1,38,81,64
1,38,81,64
1,38,81,64
1,38,81,64
1,38,81,64
1,38,90,64
1,38,90,64
1,38,90,64
1,38,90,64
1,38,81,64
1,38,90,64
1,38,90,64
1,38,81,64
1,38,81,64
1,38,90,64
1,38,90,64
1,38,81,64
1,38,90,64
1,38,99,64
1,38,99,64
1,38,81,64
1,38,90,64
1,38,90,64
1,38,90,64
1,38,90,64
1,38,90,64
1,38,90,64
1,38,81,64
1,38,90,64
1,38,90,64
1,38,72,64
1,38,90,64
1,38,81,64
1,38,90,64
1,38,90,64
1,38,99,64
1,38,90,64
1,38,90,64
1,38,81,64
1,38,90,64
1,38,81,64
1,38,99,64
1,38,90,64
1,38,81,64
1,38,81,64
1,38,99,64
1,38,81,64
1,38,99,64
1,38,81,64
1,38,90,64
1,38,90,64
1,38,90,64
1,38,90,64
1,38,90,64
1,38,81,64
1,38,90,64
1,38,81,64
1,38,90,64
1,38,81,64
1,38,81,64
1,38,90,64
1,38,81,64
1,38,81,64
1,38,90,64
1,38,81,64
1,38,90,64
1,38,90,64
1,38,90,64
1,38,81,64
1,38,90,64
1,38,90,64
1,38,81,64
1,38,81,64
1,38,81,64
1,38,90,64
1,38,81,64
1,38,81,64
1,38,90,64
1,38,81,64
1,38,90,64
1,38,81,64
1,38,90,64
1,38,81,64
1,38,90,64
1,38,81,64
1,38,81,64
1,38,81,64
1,38,81,64
1,38,81,64
1,38,90,64
1,38,81,64
1,38,81,64
1,38,81,64
1,38,90,64
1,38,81,64
1,38,90,64
1,38,72,64
1,38,90,64
1,38,99,64
2,62,127,768
2,62,127,0
2,62,113,82
2,62,113,0
2,62,122,48
2,62,122,0
2,62,122,80
2,62,122,0
2,62,122,32
2,62,122,0
2,62,113,80
2,62,113,0
2,62,122,32
2,62,122,0
2,62,113,80
2,62,113,0
2,62,122,32
2,62,122,0
2,62,113,80
2,62,113,0
2,62,113,32
2,62,113,0
2,62,113,96
2,62,113,0
2,62,122,16
2,62,122,0
2,62,113,98
2,62,113,0
2,62,113,32
2,62,113,0
2,62,113,82
2,62,113,0
2,62,113,32
2,62,113,0
2,62,113,80
2,62,113,0
2,62,113,34
2,62,113,0
2,62,122,80
2,62,122,0
2,62,113,32
2,62,113,0
2,62,113,80
2,62,113,0
2,62,104,32
2,62,104,0
2,62,113,80
2,62,113,0
2,62,113,32
2,62,113,0
2,62,113,80
2,62,113,0
2,62,113,32
2,62,113,0
2,62,122,80
2,62,122,0
2,62,113,32
2,62,113,0
2,62,122,80
2,62,122,0
2,62,122,32
2,62,122,0
2,62,127,80
2,62,127,0
2,69,104,32
2,73,113,0
2,62,113,0
2,69,104,0
2,73,113,0
2,62,113,0
2,71,113,16
2,67,104,0
2,62,104,0
2,71,113,0
2,67,104,0
2,62,104,0
2,62,104,82
2,69,113,0
2,73,113,0
2,62,104,0
2,69,113,0
2,73,113,0
2,62,113,16
2,71,122,0
2,67,113,0
2,62,113,0
2,71,122,0
2,67,113,0
