track,note,velocity,time
1,61,71,1513
1,56,71,0
1,52,71,0
1,61,0,380
1,61,71,0
1,54,71,0
1,57,71,0
1,61,0,2
1,56,0,0
1,52,0,0
1,54,0,380
1,57,0,0
1,56,71,4
1,63,71,0
1,60,71,0
1,60,0,766
1,63,0,0
1,56,0,0
1,61,71,4
1,56,71,0
1,64,71,0
1,61,0,380
1,61,71,0
1,66,71,0
1,57,71,0
1,61,0,2
1,56,0,0
1,64,0,0
1,66,0,380
1,57,0,0
1,56,71,4
1,63,71,0
1,60,71,0
1,60,0,766
1,63,0,0
1,56,0,0
1,61,71,4
1,56,71,0
1,64,71,0
1,61,0,380
1,61,71,0
1,66,71,0
1,57,71,0
1,61,0,2
1,56,0,0
1,64,0,0
1,66,0,380
1,57,0,0
1,56,71,4
1,63,71,0
1,60,71,0
1,60,0,766
1,63,0,0
1,56,0,0
1,61,71,4
1,56,71,0
1,64,71,0
1,61,0,380
1,61,71,0
1,66,71,0
1,57,71,0
1,61,0,2
1,56,0,0
1,64,0,0
1,66,0,380
1,57,0,0
1,56,71,4
1,63,71,0
1,60,71,0
1,60,0,766
1,63,0,0
1,56,0,0
1,61,71,4
1,56,71,0
1,64,71,0
1,61,0,380
1,61,71,0
1,66,71,0
1,57,71,0
1,61,0,2
1,56,0,0
1,64,0,0
1,66,0,380
1,57,0,0
1,56,71,4
1,63,71,0
1,60,71,0
1,60,0,766
1,63,0,0
1,56,0,0
1,61,71,4
1,56,71,0
1,64,71,0
1,61,0,380
1,61,71,0
1,66,71,0
1,57,71,0
1,61,0,2
1,56,0,0
1,64,0,0
1,66,0,380
1,57,0,0
1,56,71,4
1,63,71,0
1,60,71,0
1,60,0,766
1,63,0,0
1,56,0,0
1,61,81,4
1,56,81,0
1,52,81,0
1,61,0,380
1,61,81,0
1,54,81,0
1,57,81,0
1,61,0,2
1,56,0,0
1,52,0,0
1,54,0,380
1,57,0,0
1,56,81,4
1,63,81,0
1,60,81,0
1,60,0,766
1,63,0,0
1,56,0,0
1,61,81,4
1,56,81,0
1,64,81,0
1,61,0,380
1,61,81,0
1,66,81,0
1,57,81,0
1,61,0,2
1,56,0,0
1,64,0,0
1,66,0,380
1,57,0,0
1,56,81,4
1,63,81,0
1,60,81,0
1,60,0,766
1,63,0,0
1,56,0,0
1,61,81,4
1,56,81,0
1,52,81,0
1,61,0,380
1,61,81,0
1,54,81,0
1,57,81,0
1,61,0,2
1,56,0,0
1,52,0,0
1,54,0,380
1,57,0,0
1,56,81,4
1,63,81,0
1,60,81,0
1,60,0,766
1,63,0,0
1,56,0,0
1,61,81,4
1,56,81,0
1,64,81,0
1,61,0,380
1,61,81,0
1,66,81,0
1,57,81,0
1,61,0,2
1,56,0,0
1,64,0,0
1,66,0,380
1,57,0,0
1,56,81,4
1,63,81,0
1,60,81,0
1,60,0,766
1,63,0,0
1,56,0,0
1,56,102,4612
1,61,102,0
1,52,102,0
1,52,0,382
1,61,0,0
1,56,0,0
1,54,102,2
1,61,102,0
1,57,102,0
1,57,0,382
1,61,0,0
1,54,0,0
1,51,102,2
1,56,102,0
1,60,102,0
1,60,0,766
1,56,0,0
1,51,0,0
1,56,102,2
1,61,102,0
1,52,102,0
1,52,0,382
1,61,0,0
1,56,0,0
1,54,102,2
1,61,102,0
1,57,102,0
1,57,0,382
1,61,0,0
1,54,0,0
1,61,81,770
1,56,81,0
1,52,81,0
1,61,0,380
1,61,81,0
1,54,81,0
1,57,81,0
1,61,0,2
1,56,0,0
1,52,0,0
1,54,0,380
1,57,0,0
1,56,81,4
1,63,81,0
1,60,81,0
1,60,0,766
1,63,0,0
1,56,0,0
1,61,81,4
1,56,81,0
1,64,81,0
1,61,0,380
1,61,81,0
1,66,81,0
1,57,81,0
1,61,0,2
1,56,0,0
1,64,0,0
1,66,0,380
1,57,0,0
1,56,81,4
1,63,81,0
1,60,81,0
1,60,0,766
1,63,0,0
1,56,0,0
1,61,81,4
1,56,81,0
1,52,81,0
1,61,0,380
1,61,81,0
1,54,81,0
1,57,81,0
1,61,0,2
1,56,0,0
1,52,0,0
1,54,0,380
1,57,0,0
1,56,81,4
1,63,81,0
1,60,81,0
1,60,0,766
1,63,0,0
1,56,0,0
1,61,81,4
1,56,81,0
1,64,81,0
1,61,0,380
1,61,81,0
1,66,81,0
1,57,81,0
1,61,0,2
1,56,0,0
1,64,0,0
1,66,0,380
1,57,0,0
1,56,81,4
1,63,81,0
1,60,81,0
1,60,0,766
1,63,0,0
1,56,0,0
1,56,91,1540
1,61,91,0
1,52,91,0
1,52,0,766
1,61,0,0
1,56,0,0
1,56,91,2
1,60,91,0
1,51,91,0
1,51,0,766
1,60,0,0
1,56,0,0
1,56,91,2
1,61,91,0
1,52,91,0
1,52,0,766
1,61,0,0
1,56,0,0
1,56,91,2
1,60,91,0
1,51,91,0
1,51,0,766
1,60,0,0
1,56,0,0
1,56,91,2
1,61,91,0
1,52,91,0
1,52,0,766
1,61,0,0
1,56,0,0
1,56,91,2
1,60,91,0
1,51,91,0
1,51,0,766
1,60,0,0
1,56,0,0
1,56,91,2
1,61,91,0
1,52,91,0
1,52,0,766
1,61,0,0
1,56,0,0
1,56,91,2
1,60,91,0
1,51,91,0
1,51,0,766
1,60,0,0
1,56,0,0
1,61,91,2
1,56,91,0
1,64,91,0
1,61,0,380
1,61,91,0
1,66,91,0
1,57,91,0
1,61,0,2
1,56,0,0
1,64,0,0
1,66,0,380
1,57,0,0
1,56,91,4
1,63,91,0
1,60,91,0
1,60,0,766
1,63,0,0
1,56,0,0
1,61,91,4
1,56,91,0
1,64,91,0
1,61,0,380
1,61,91,0
1,66,91,0
1,57,91,0
1,61,0,2
1,56,0,0
1,64,0,0
1,66,0,380
1,57,0,0
1,56,91,4
1,63,91,0
1,60,91,0
1,60,0,766
1,63,0,0
1,56,0,0
1,56,102,3076
1,61,102,0
1,52,102,0
1,52,0,382
1,61,0,0
1,56,0,0
1,54,102,2
1,61,102,0
1,57,102,0
1,57,0,382
1,61,0,0
1,54,0,0
1,51,102,2
1,56,102,0
1,60,102,0
1,60,0,766
1,56,0,0
1,51,0,0
1,56,102,2
1,61,102,0
1,52,102,0
1,52,0,382
1,61,0,0
1,56,0,0
1,54,102,2
1,61,102,0
1,57,102,0
1,57,0,382
1,61,0,0
1,54,0,0
1,61,81,770
1,56,81,0
1,52,81,0
1,61,0,380
1,61,81,0
1,54,81,0
1,57,81,0
1,61,0,2
1,56,0,0
1,52,0,0
1,54,0,380
1,57,0,0
1,56,81,4
1,63,81,0
1,60,81,0
1,60,0,766
1,63,0,0
1,56,0,0
1,61,81,4
1,56,81,0
1,64,81,0
1,61,0,380
1,61,81,0
1,66,81,0
1,57,81,0
1,61,0,2
1,56,0,0
1,64,0,0
1,66,0,380
1,57,0,0
1,56,81,4
1,63,81,0
1,60,81,0
1,60,0,766
1,63,0,0
1,56,0,0
1,61,81,4
1,56,81,0
1,52,81,0
1,61,0,380
1,61,81,0
1,54,81,0
1,57,81,0
1,61,0,2
1,56,0,0
1,52,0,0
1,54,0,380
1,57,0,0
1,56,81,4
1,63,81,0
1,60,81,0
1,60,0,766
1,63,0,0
1,56,0,0
1,61,81,4
1,56,81,0
1,64,81,0
1,61,0,380
1,61,81,0
1,66,81,0
1,57,81,0
1,61,0,2
1,56,0,0
1,64,0,0
1,66,0,380
1,57,0,0
1,56,81,4
1,63,81,0
1,60,81,0
1,60,0,766
1,63,0,0
1,56,0,0
1,61,81,4
1,56,81,0
1,52,81,0
1,61,0,380
1,61,81,0
1,54,81,0
1,57,81,0
1,61,0,2
1,56,0,0
1,52,0,0
1,54,0,380
1,57,0,0
1,56,81,4
1,63,81,0
1,60,81,0
1,60,0,766
1,63,0,0
1,56,0,0
1,61,81,4
1,56,81,0
1,64,81,0
1,61,0,380
1,61,81,0
1,66,81,0
1,57,81,0
1,61,0,2
1,56,0,0
1,64,0,0
1,66,0,380
1,57,0,0
1,56,81,4
1,63,81,0
1,60,81,0
1,60,0,766
1,63,0,0
1,56,0,0
1,61,81,4
1,56,81,0
1,52,81,0
1,61,0,380
1,61,81,0
1,54,81,0
1,57,81,0
1,61,0,2
1,56,0,0
1,52,0,0
1,54,0,380
1,57,0,0
1,56,81,4
1,63,81,0
1,60,81,0
1,60,0,766
1,63,0,0
1,56,0,0
1,61,81,4
1,56,81,0
1,64,81,0
1,61,0,380
1,61,81,0
1,66,81,0
1,57,81,0
1,61,0,2
1,56,0,0
1,64,0,0
1,66,0,380
1,57,0,0
1,56,81,4
1,63,81,0
1,60,81,0
1,60,0,766
1,63,0,0
1,56,0,0
1,61,81,4
1,56,81,0
1,52,81,0
1,61,0,380
1,61,81,0
1,54,81,0
1,57,81,0
1,61,0,2
1,56,0,0
1,52,0,0
1,54,0,380
1,57,0,0
1,56,81,4
1,63,81,0
1,60,81,0
1,60,0,766
1,63,0,0
1,56,0,0
1,61,81,4
1,56,81,0
1,64,81,0
1,61,0,380
1,61,81,0
1,66,81,0
1,57,81,0
1,61,0,2
1,56,0,0
1,64,0,0
1,66,0,380
1,57,0,0
1,56,81,4
1,63,81,0
1,60,81,0
1,60,0,766
1,63,0,0
1,56,0,0
1,61,81,4
1,56,81,0
1,52,81,0
1,61,0,380
1,61,81,0
1,54,81,0
1,57,81,0
1,61,0,2
1,56,0,0
1,52,0,0
1,54,0,380
1,57,0,0
1,56,81,4
1,63,81,0
1,60,81,0
1,60,0,766
1,63,0,0
1,56,0,0
1,61,81,4
1,56,81,0
1,64,81,0
1,61,0,380
1,61,81,0
1,66,81,0
1,57,81,0
1,61,0,2
1,56,0,0
1,64,0,0
1,66,0,380
1,57,0,0
1,56,81,4
1,63,81,0
1,60,81,0
1,60,0,766
1,63,0,0
1,56,0,0
1,61,81,4
1,56,81,0
1,52,81,0
1,52,0,288
1,56,0,0
1,61,0,0
2,56,91,4566
2,61,91,0
2,52,91,0
2,52,0,382
2,61,0,0
2,56,0,0
2,54,91,2
2,61,91,0
2,57,91,0
2,57,0,382
2,61,0,0
2,54,0,0
2,51,91,2
2,56,91,0
2,60,91,0
2,60,0,766
2,56,0,0
2,51,0,0
2,56,91,2
2,61,91,0
2,52,91,0
2,52,0,382
2,61,0,0
2,56,0,0
2,54,91,2
2,61,91,0
2,57,91,0
2,57,0,382
2,61,0,0
2,54,0,0
2,51,91,2
2,56,91,0
2,60,91,0
2,60,0,766
2,56,0,0
2,51,0,0
2,56,91,2
2,61,91,0
2,52,91,0
2,52,0,382
2,61,0,0
2,56,0,0
2,54,91,2
2,61,91,0
2,57,91,0
2,57,0,382
2,61,0,0
2,54,0,0
2,51,91,2
2,56,91,0
2,60,91,0
2,60,0,766
2,56,0,0
2,51,0,0
2,56,91,2
2,61,91,0
2,52,91,0
2,52,0,382
2,61,0,0
2,56,0,0
2,54,91,2
2,61,91,0
2,57,91,0
2,57,0,382
2,61,0,0
2,54,0,0
2,51,91,2
2,56,91,0
2,60,91,0
2,60,0,766
2,56,0,0
2,51,0,0
2,49,99,6146
2,49,0,368
2,45,101,16
2,45,0,384
2,44,98,0
2,44,0,766
2,56,76,2
2,61,76,0
2,52,76,0
2,52,0,382
2,61,0,0
2,56,0,0
2,54,76,2
2,61,76,0
2,57,76,0
2,57,0,382
2,61,0,0
2,54,0,0
2,51,76,2
2,56,76,0
2,60,76,0
2,60,0,766
2,56,0,0
2,51,0,0
2,56,76,2
2,61,76,0
2,52,76,0
2,52,0,382
2,61,0,0
2,56,0,0
2,54,76,2
2,61,76,0
2,57,76,0
2,57,0,382
2,61,0,0
2,54,0,0
2,51,76,2
2,56,76,0
2,60,76,0
2,60,0,766
2,56,0,0
2,51,0,0
2,56,76,2
2,61,76,0
2,52,76,0
2,52,0,382
2,61,0,0
2,56,0,0
2,54,76,2
2,61,76,0
2,57,76,0
2,57,0,382
2,61,0,0
2,54,0,0
2,51,76,2
2,56,76,0
2,60,76,0
2,60,0,766
2,56,0,0
2,51,0,0
2,56,76,2
2,61,76,0
2,52,76,0
2,52,0,382
2,61,0,0
2,56,0,0
2,54,76,2
2,61,76,0
2,57,76,0
2,57,0,382
2,61,0,0
2,54,0,0
2,54,76,2
2,54,0,184
2,49,99,6728
2,49,0,368
2,45,101,16
2,45,0,384
2,44,98,0
2,44,0,766
2,56,101,6146
2,61,101,0
2,52,101,0
2,52,0,382
2,61,0,0
2,56,0,0
2,54,101,2
2,61,101,0
2,57,101,0
2,57,0,382
2,61,0,0
2,54,0,0
2,51,101,2
2,56,101,0
2,60,101,0
2,60,0,766
2,56,0,0
2,51,0,0
2,56,101,2
2,61,101,0
2,52,101,0
2,52,0,382
2,61,0,0
2,56,0,0
2,54,101,2
2,61,101,0
2,57,101,0
2,57,0,382
2,61,0,0
2,54,0,0
2,51,101,2
2,56,101,0
2,60,101,0
2,60,0,766
2,56,0,0
2,51,0,0
2,56,76,2
2,61,76,0
2,52,76,0
2,52,0,382
2,61,0,0
2,56,0,0
2,54,76,2
2,61,76,0
2,57,76,0
2,57,0,382
2,61,0,0
2,54,0,0
2,51,76,2
2,56,76,0
2,60,76,0
2,60,0,766
2,56,0,0
2,51,0,0
2,56,76,2
2,61,76,0
2,52,76,0
2,52,0,382
2,61,0,0
2,56,0,0
2,54,76,2
2,61,76,0
2,57,76,0
2,57,0,382
2,61,0,0
2,54,0,0
2,51,76,2
2,56,76,0
2,60,76,0
2,60,0,766
2,56,0,0
2,51,0,0
2,56,76,2
2,61,76,0
2,52,76,0
2,52,0,382
2,61,0,0
2,56,0,0
2,54,76,2
2,61,76,0
2,57,76,0
2,57,0,382
2,61,0,0
2,54,0,0
2,51,76,2
2,56,76,0
2,60,76,0
2,60,0,766
2,56,0,0
2,51,0,0
2,56,76,2
2,61,76,0
2,52,76,0
2,52,0,382
2,61,0,0
2,56,0,0
2,54,76,2
2,61,76,0
2,57,76,0
2,57,0,382
2,61,0,0
2,54,0,0
2,54,76,2
2,54,0,184
3,49,94,7621
3,37,95,0
3,37,0,498
3,49,0,0
3,30,91,78
3,42,85,0
3,42,0,192
3,30,0,0
3,44,96,0
3,32,92,0
3,32,0,766
3,44,0,0
3,49,94,2
3,37,95,0
3,37,0,498
3,49,0,0
3,30,91,78
3,42,85,0
3,42,0,192
3,30,0,0
3,44,96,0
3,32,92,0
3,32,0,766
3,44,0,0
3,49,99,6146
3,37,113,0
3,37,0,368
3,49,0,0
3,45,101,16
3,33,106,0
3,33,0,384
3,45,0,0
3,44,98,0
3,32,100,0
3,32,0,768
3,44,0,0
3,61,84,0
3,49,85,0
3,49,0,556
3,61,0,0
3,42,81,14
3,54,75,0
3,54,0,192
3,42,0,0
3,56,86,6
3,44,82,0
3,44,0,766
3,56,0,0
3,61,84,2
3,49,85,0
3,49,0,556
3,61,0,0
3,42,81,14
3,54,75,0
3,54,0,192
3,42,0,0
3,56,86,6
3,44,82,0
3,44,0,766
3,56,0,0
3,61,84,2
3,49,85,0
3,49,0,556
3,61,0,0
3,42,81,14
3,54,75,0
3,54,0,192
3,42,0,0
3,56,86,6
3,44,82,0
3,44,0,766
3,56,0,0
3,61,84,2
3,49,85,0
3,49,0,556
3,61,0,0
3,42,82,14
3,54,58,0
3,54,0,256
3,42,0,68
3,49,99,6786
3,37,113,0
3,37,0,368
3,49,0,0
3,45,101,16
3,33,106,0
3,33,0,384
3,45,0,0
3,44,98,0
3,32,100,0
3,32,0,768
3,44,0,0
3,49,94,6144
3,37,95,0
3,37,0,498
3,49,0,0
3,30,91,78
3,42,85,0
3,42,0,192
3,30,0,0
3,44,96,0
3,32,92,0
3,32,0,766
3,44,0,0
3,49,94,2
3,37,95,0
3,37,0,560
3,49,0,0
3,30,101,12
3,42,94,0
3,42,0,196
3,30,0,0
3,44,96,0
3,32,92,0
3,32,0,766
3,44,0,0
3,49,94,2
3,37,98,0
3,37,0,568
3,49,0,0
3,30,100,4
3,42,92,0
3,42,0,196
3,30,0,0
3,44,96,0
3,32,96,0
