track,note,velocity,time
0,61,87,2244
0,68,84,2
0,36,108,380
0,69,60,0
0,35,101,0
0,54,64,0
0,61,88,2
0,54,39,2
0,37,99,8
0,69,54,74
0,54,76,2
0,54,56,76
0,35,101,2
0,36,108,74
0,38,100,0
0,69,42,0
0,37,99,2
0,54,52,0
0,54,40,76
0,69,51,0
0,35,101,2
0,54,78,0
0,69,61,2
0,54,55,2
0,37,99,8
0,36,108,74
0,54,51,2
0,69,54,74
0,54,40,2
0,35,101,2
0,37,99,76
0,54,78,0
0,69,41,74
0,54,52,2
0,36,108,74
0,38,100,0
0,69,49,0
0,54,49,0
0,68,88,2
0,36,94,74
0,54,34,2
0,69,38,74
0,54,77,0
0,66,88,2
0,38,90,74
0,54,59,2
0,36,108,74
0,69,60,0
0,54,51,0
0,68,88,2
0,54,39,76
0,69,54,74
0,35,99,2
0,54,70,0
0,54,60,2
0,37,101,8
0,36,108,6
0,38,100,0
0,69,42,0
0,54,45,2
0,54,39,76
0,69,51,74
0,54,76,2
0,69,61,74
0,54,53,2
0,36,108,74
0,54,47,0
0,63,88,2
0,69,54,74
0,54,36,2
0,35,99,76
0,54,77,0
0,69,41,20
0,54,51,2
0,36,108,74
0,38,100,0
0,69,49,0
0,37,101,2
0,54,47,0
0,54,39,76
0,69,38,74
0,54,77,2
0,38,90,74
0,54,66,2
0,36,108,74
0,69,60,0
0,35,101,0
0,54,64,0
0,61,88,2
0,54,39,2
0,37,99,8
0,69,54,74
0,54,76,2
0,54,56,76
0,35,101,2
0,36,108,74
0,38,100,0
0,69,42,0
0,37,99,2
0,54,52,0
0,54,40,76
0,69,51,0
0,35,101,2
0,54,78,0
0,69,61,2
0,54,55,2
0,37,99,8
0,36,108,74
0,54,51,2
0,69,54,74
0,54,40,2
0,35,101,2
0,37,99,76
0,54,78,0
0,69,41,74
0,54,52,2
0,36,108,74
0,38,100,0
0,69,49,0
0,54,49,0
0,68,88,2
0,36,94,74
0,54,34,2
0,69,38,74
0,54,77,0
0,66,88,2
0,38,90,74
0,54,59,2
0,36,108,74
0,69,60,0
0,54,51,0
0,68,88,2
0,54,39,76
0,69,54,74
0,35,99,2
0,54,70,0
0,54,60,2
0,37,101,8
0,36,108,6
0,38,100,0
0,69,42,0
0,54,45,2
0,54,39,76
0,69,51,74
0,54,76,2
0,69,61,74
0,54,53,2
0,36,108,74
0,54,47,0
0,63,88,2
0,69,54,74
0,54,36,2
0,35,99,76
0,54,77,0
0,69,41,20
0,54,51,2
0,36,108,74
0,38,100,0
0,69,49,0
0,37,101,2
0,54,47,0
0,54,39,76
0,69,38,74
0,54,77,2
0,38,90,74
0,54,66,2
0,56,85,50
0,61,85,0
0,64,85,0
0,36,108,24
0,54,64,0
0,76,110,0
0,56,88,2
0,54,39,2
0,56,88,2
0,54,76,2
0,61,88,2
0,54,56,76
0,36,108,26
0,38,100,0
0,54,52,2
0,76,106,0
0,56,88,2
0,54,40,2
0,56,88,2
0,54,78,2
0,61,88,2
0,36,102,74
0,54,55,2
0,57,85,0
0,36,108,24
0,54,51,2
0,76,110,0
0,57,88,2
0,54,40,2
0,57,88,2
0,54,78,2
0,54,88,2
0,54,52,8
0,80,110,0
0,36,108,74
0,38,100,0
0,54,49,2
0,57,88,2
0,36,94,0
0,54,34,2
0,57,88,2
0,54,77,2
0,78,97,0
0,54,88,2
0,38,90,74
0,54,59,2
0,56,85,6
0,60,85,0
0,63,85,0
0,36,108,4
0,54,51,2
0,75,107,0
0,56,88,2
0,54,39,2
0,56,88,2
0,54,70,2
0,60,88,2
0,54,60,76
0,36,108,32
0,38,100,0
0,54,45,2
0,75,104,0
0,56,88,2
0,54,39,2
0,56,88,2
0,54,76,2
0,60,88,2
0,54,53,76
0,36,108,32
0,54,47,2
0,75,108,0
0,56,88,2
0,36,98,0
0,54,36,2
0,56,88,2
0,54,77,2
0,60,88,2
0,54,51,8
0,78,107,0
0,36,108,74
0,38,100,0
0,54,47,2
0,56,88,2
0,54,39,2
0,56,88,2
0,54,77,2
0,76,108,0
0,60,88,2
0,38,90,74
0,54,66,2
0,56,85,6
0,61,85,0
0,64,85,0
0,36,108,4
0,54,64,2
0,56,88,2
0,54,39,2
0,56,88,2
0,54,76,2
0,61,88,2
0,54,56,2
0,36,108,74
0,38,100,0
0,54,52,2
0,76,103,0
0,56,88,2
0,54,40,2
0,56,88,2
0,54,78,2
0,61,88,2
0,36,102,74
0,54,55,2
0,57,85,4
0,36,108,24
0,54,51,2
0,76,107,0
0,57,88,2
0,54,40,2
0,57,88,2
0,54,78,2
0,54,88,2
0,54,52,2
0,80,105,0
0,36,108,74
0,38,100,0
0,54,49,2
0,57,88,2
0,36,94,0
0,54,34,2
0,57,88,2
0,54,77,2
0,78,104,0
0,54,88,2
0,38,90,74
0,54,59,2
0,56,85,6
0,60,85,0
0,63,85,0
0,36,108,4
0,54,51,2
0,56,88,2
0,54,39,2
0,56,88,2
0,54,70,2
0,60,88,2
0,54,60,76
0,36,108,74
0,38,100,0
0,54,45,2
0,75,103,0
0,56,88,2
0,54,39,2
0,56,88,2
0,54,76,2
0,60,88,2
0,54,53,76
0,36,108,60
0,54,47,2
0,75,108,0
0,56,88,2
0,36,98,0
0,54,36,2
0,56,88,2
0,54,77,2
0,60,88,2
0,54,51,22
0,75,105,0
0,92,94,62
0,36,108,12
0,38,100,0
0,54,47,2
0,56,88,2
0,92,94,36
0,54,39,2
0,56,88,2
0,92,94,36
0,54,77,2
0,73,100,0
0,60,88,2
0,90,94,36
0,38,90,12
0,54,66,2
0,49,107,4
0,56,85,2
0,61,85,0
0,64,85,0
0,92,100,8
0,36,108,12
0,54,64,2
0,56,88,2
0,54,39,2
0,56,88,2
0,85,94,16
0,54,76,2
0,61,88,2
0,54,56,50
0,85,94,62
0,36,108,12
0,38,100,0
0,54,52,2
0,76,106,0
0,56,88,2
0,54,40,2
0,56,88,2
0,54,78,2
0,61,88,2
0,36,102,74
0,54,55,2
0,57,85,6
0,36,108,24
0,54,51,2
0,76,110,0
0,57,88,2
0,36,98,0
0,54,40,2
0,57,88,2
0,54,78,2
0,54,88,2
0,54,52,8
0,80,110,0
0,42,107,6
0,36,108,26
0,38,100,0
0,54,49,2
0,57,88,2
0,54,34,2
0,57,88,2
0,54,77,2
0,78,97,0
0,54,88,2
0,38,90,74
0,54,59,2
0,44,107,4
0,56,85,2
0,60,85,0
0,63,85,0
0,36,108,4
0,54,51,2
0,75,107,0
0,56,88,2
0,54,39,2
0,56,88,2
0,54,70,2
0,60,88,2
0,54,60,76
0,36,108,32
0,38,100,0
0,54,45,2
0,75,104,0
0,56,88,2
0,54,39,2
0,56,88,2
0,54,76,2
0,60,88,2
0,54,53,76
0,36,108,32
0,54,47,2
0,75,108,0
0,56,88,2
0,54,36,2
0,56,88,2
0,54,77,2
0,60,88,2
0,54,51,8
0,78,107,0
0,36,108,74
0,38,100,0
0,54,47,2
0,56,88,2
0,54,39,2
0,56,88,2
0,54,77,2
0,76,108,0
0,60,88,2
0,38,90,74
0,54,66,2
0,49,107,4
0,56,85,2
0,61,85,0
0,64,85,0
0,36,108,4
0,54,64,2
0,56,88,2
0,54,39,2
0,56,88,2
0,54,76,2
0,61,88,2
0,54,56,2
0,36,108,74
0,38,100,0
0,54,52,2
0,76,103,0
0,56,88,2
0,54,40,2
0,56,88,2
0,54,78,2
0,61,88,2
0,36,102,74
0,54,55,2
0,57,85,4
0,36,108,24
0,54,51,2
0,76,107,0
0,57,88,2
0,54,40,2
0,57,88,2
0,54,78,2
0,54,88,2
0,54,52,2
0,80,105,0
0,42,107,6
0,36,108,26
0,38,100,0
0,54,49,2
0,57,88,2
0,54,34,2
0,57,88,2
0,54,77,2
0,78,104,0
0,54,88,2
0,38,90,74
0,54,59,2
0,44,107,4
0,56,85,2
0,60,85,0
0,63,85,0
0,36,108,4
0,54,51,2
0,56,88,2
0,54,39,2
0,56,88,2
0,54,70,2
0,60,88,2
0,54,60,24
0,36,108,74
0,38,100,0
0,54,45,2
0,75,103,0
0,56,88,2
0,54,39,2
0,56,88,2
0,54,76,2
0,60,88,2
0,54,53,76
0,36,108,60
0,54,47,2
0,75,108,0
0,56,88,2
0,54,36,2
0,56,88,2
0,54,77,2
0,60,88,2
0,54,51,22
0,75,106,0
0,92,94,62
0,36,108,12
0,38,100,0
0,54,47,2
0,56,88,2
0,92,94,36
0,54,39,2
0,56,88,2
0,92,94,36
0,34,99,2
0,54,77,0
0,73,101,0
0,60,88,2
0,90,94,36
0,38,90,12
0,54,66,2
0,56,95,6
0,61,95,0
0,64,95,0
0,92,100,8
0,36,108,0
0,46,64,0
0,69,60,0
0,37,101,2
0,54,64,0
0,42,59,46
0,37,99,2
0,54,39,0
0,85,94,16
0,42,63,12
0,69,54,0
0,37,99,2
0,54,76,0
0,64,96,4
0,68,96,0
0,68,84,0
0,73,96,0
0,73,84,0
0,76,84,0
0,42,59,18
0,35,99,2
0,54,56,0
0,85,94,2
0,36,108,12
0,38,100,0
0,42,63,0
0,69,42,0
0,37,99,2
0,54,52,0
0,73,109,0
0,42,59,18
0,54,40,2
0,42,68,2
0,69,51,0
0,35,99,2
0,54,78,0
0,75,111,0
0,64,96,4
0,68,96,0
0,68,84,0
0,73,96,0
0,73,84,0
0,76,84,0
0,46,64,22
0,69,61,0
0,37,99,0
0,54,55,0
0,57,95,6
0,73,88,12
0,36,108,10
0,42,70,0
0,35,101,2
0,54,51,0
0,75,114,0
0,42,62,34
0,69,54,0
0,35,99,2
0,54,40,0
0,42,67,34
0,37,99,2
0,54,78,0
0,66,96,4
0,69,96,0
0,69,84,0
0,73,96,0
0,73,84,0
0,78,84,0
0,42,61,26
0,69,41,0
0,54,52,2
0,36,108,74
0,38,100,0
0,42,65,0
0,69,49,0
0,37,99,2
0,54,49,0
0,73,104,0
0,42,54,32
0,37,99,2
0,54,34,0
0,42,63,28
0,69,38,0
0,35,99,2
0,54,77,0
0,66,96,4
0,69,96,0
0,69,84,0
0,73,96,0
0,73,84,0
0,78,84,0
0,38,90,26
0,42,59,0
0,37,99,2
0,54,59,0
0,56,95,6
0,60,95,0
0,63,95,0
0,75,88,0
0,36,108,10
0,46,64,0
0,69,60,0
0,30,101,2
0,54,51,0
0,75,109,0
0,42,59,36
0,30,99,2
0,54,39,0
0,75,101,0
0,42,63,38
0,69,54,0
0,30,99,2
0,54,70,0
0,75,106,0
0,63,96,4
0,63,84,0
0,68,96,0
0,68,84,0
0,72,96,0
0,72,84,0
0,42,59,16
0,28,99,2
0,54,60,0
0,75,106,0
0,36,108,32
0,38,100,0
0,42,63,0
0,69,42,0
0,30,99,2
0,54,45,0
0,75,108,0
0,42,59,2
0,54,39,2
0,42,68,18
0,69,51,0
0,28,99,2
0,54,76,0
0,78,107,0
0,63,96,4
0,63,84,0
0,68,96,0
0,68,84,0
0,72,96,0
0,72,84,0
0,46,64,0
0,69,61,0
0,30,99,2
0,54,53,0
0,36,108,0
0,42,70,0
0,32,101,2
0,54,47,0
0,76,112,0
0,42,62,74
0,69,54,0
0,54,36,2
0,42,67,2
0,32,99,2
0,54,77,0
0,75,99,0
0,63,96,4
0,63,84,0
0,68,96,0
0,68,84,0
0,72,96,0
0,72,84,0
0,42,61,26
0,69,41,0
0,54,51,2
0,36,108,70
0,38,100,0
0,42,65,0
0,69,49,0
0,32,101,2
0,54,47,0
0,75,111,0
0,42,54,50
0,32,101,2
0,54,39,0
0,42,63,74
0,69,38,0
0,54,77,2
0,63,96,4
0,63,84,0
0,68,96,0
0,68,84,0
0,72,96,0
0,72,84,0
0,38,90,0
0,42,59,0
0,35,99,2
0,54,66,0
0,76,105,0
0,56,95,6
0,61,95,0
0,64,95,0
0,76,88,2
0,36,108,0
0,46,64,0
0,69,60,0
0,37,101,2
0,54,64,0
0,42,59,50
0,37,99,2
0,54,39,0
0,42,63,34
0,69,54,0
0,37,99,2
0,54,76,0
0,64,96,4
0,68,96,0
0,68,84,0
0,73,96,0
0,73,84,0
0,76,84,0
0,42,59,14
0,35,99,2
0,54,56,0
0,36,108,6
0,38,100,0
0,42,63,0
0,69,42,0
0,37,99,2
0,54,52,0
0,76,111,0
0,42,59,74
0,54,40,2
0,42,68,2
0,69,51,0
0,35,99,2
0,54,78,0
0,80,106,0
0,64,96,4
0,68,96,0
0,68,84,0
0,73,96,0
0,73,84,0
0,76,84,0
0,46,64,0
0,69,61,0
0,37,99,2
0,54,55,0
0,57,95,6
0,36,108,0
0,42,70,0
0,35,101,2
0,54,51,0
0,78,115,0
0,42,62,34
0,69,54,0
0,35,99,2
0,54,40,0
0,42,67,34
0,37,99,2
0,54,78,0
0,76,110,0
0,66,96,4
0,69,96,0
0,69,84,0
0,73,96,0
0,73,84,0
0,78,84,0
0,42,61,26
0,69,41,0
0,54,52,2
0,78,88,2
0,36,108,10
0,38,100,0
0,42,65,0
0,69,49,0
0,37,99,2
0,54,49,0
0,75,108,0
0,42,54,10
0,37,99,2
0,54,34,0
0,42,63,6
0,69,38,0
0,35,99,2
0,54,77,0
0,73,110,0
0,66,96,4
0,69,96,0
0,69,84,0
0,73,96,0
0,73,84,0
0,78,84,0
0,38,90,8
0,42,59,0
0,37,99,2
0,54,59,0
0,56,95,6
0,60,95,0
0,63,95,0
0,75,88,0
0,36,108,10
0,46,64,0
0,69,60,0
0,30,101,2
0,54,51,0
0,75,111,0
0,42,59,50
0,30,99,2
0,54,39,0
0,42,63,40
0,69,54,0
0,30,99,2
0,54,70,0
0,63,96,4
0,63,84,0
0,68,96,0
0,68,84,0
0,72,96,0
0,72,84,0
0,42,59,16
0,28,99,2
0,54,60,0
0,36,108,36
0,38,100,0
0,42,63,0
0,69,42,0
0,30,99,2
0,54,45,0
0,78,106,0
0,42,59,74
0,54,39,2
0,42,68,18
0,69,51,0
0,28,99,2
0,54,76,0
0,63,96,4
0,63,84,0
0,68,96,0
0,68,84,0
0,72,96,0
0,72,84,0
0,46,64,0
0,69,61,0
0,30,99,2
0,54,53,0
0,36,108,0
0,42,70,0
0,32,101,2
0,54,47,0
0,76,104,0
0,42,62,74
0,69,54,0
0,54,36,2
0,42,67,34
0,32,99,2
0,54,77,0
0,75,106,0
0,63,96,4
0,63,84,0
0,68,96,0
0,68,84,0
0,72,96,0
0,72,84,0
0,42,61,26
0,69,41,0
0,54,51,2
0,36,108,36
0,38,100,0
0,42,65,0
0,69,49,0
0,32,101,2
0,54,47,0
0,73,106,0
0,42,54,50
0,32,101,2
0,54,39,0
0,42,63,54
0,69,38,0
0,54,77,2
0,72,105,0
0,63,96,4
0,63,84,0
0,68,96,0
0,68,84,0
0,72,96,0
0,72,84,0
0,38,90,26
0,42,59,0
0,35,99,2
0,54,66,0
0,56,95,6
0,61,95,0
0,64,95,0
0,36,108,0
0,46,64,0
0,69,60,0
0,37,101,2
0,54,64,0
0,73,104,0
0,42,59,46
0,37,99,2
0,54,39,0
0,42,63,34
0,69,54,0
0,37,99,2
0,54,76,0
0,64,96,4
0,68,96,0
0,68,84,0
0,73,96,0
0,73,84,0
0,76,84,0
0,42,59,14
0,35,99,2
0,54,56,0
0,36,108,14
0,38,100,0
0,42,63,0
0,69,42,0
0,37,99,2
0,54,52,0
0,73,109,0
0,42,59,18
0,54,40,2
0,42,68,2
0,69,51,0
0,35,99,2
0,54,78,0
0,75,111,0
0,64,96,4
0,68,96,0
0,68,84,0
0,73,96,0
0,73,84,0
0,76,84,0
0,46,64,22
0,69,61,0
0,37,99,0
0,54,55,0
0,57,95,6
0,73,88,12
0,36,108,10
0,42,70,0
0,35,101,2
0,54,51,0
0,75,114,0
0,42,62,34
0,69,54,0
0,35,99,2
0,54,40,0
0,42,67,34
0,37,99,2
0,54,78,0
0,66,96,4
0,69,96,0
0,69,84,0
0,73,96,0
0,73,84,0
0,78,84,0
0,42,61,26
0,69,41,0
0,54,52,2
0,36,108,74
0,38,100,0
0,42,65,0
0,69,49,0
