track,note,velocity,time
1,64,68,23232
1,73,75,0
1,68,60,0
1,68,60,336
1,73,75,0
1,64,68,0
1,64,68,336
1,66,60,0
1,69,60,0
1,73,75,0
1,64,68,336
1,66,60,0
1,69,60,0
1,73,75,0
1,66,60,336
1,63,68,0
1,72,75,0
1,68,60,0
1,66,60,336
1,68,60,0
1,72,75,0
1,63,68,0
1,66,60,336
1,63,68,0
1,72,75,0
1,68,60,0
1,66,60,336
1,68,60,0
1,72,75,0
1,63,68,0
1,64,68,336
1,73,75,0
1,68,60,0
1,68,60,336
1,73,75,0
1,64,68,0
1,64,68,336
1,66,60,0
1,69,60,0
1,73,75,0
1,64,68,336
1,66,60,0
1,69,60,0
1,73,75,0
1,66,60,336
1,63,68,0
1,72,75,0
1,68,60,0
1,66,60,336
1,68,60,0
1,72,75,0
1,63,68,0
1,66,60,336
1,63,68,0
1,72,75,0
1,68,60,0
1,66,60,336
1,68,60,0
1,72,75,0
1,63,68,0
1,64,68,336
1,73,75,0
1,68,60,0
1,68,60,336
1,73,75,0
1,64,68,0
1,64,68,336
1,66,60,0
1,69,60,0
1,73,75,0
1,64,68,336
1,66,60,0
1,69,60,0
1,73,75,0
1,66,60,336
1,63,68,0
1,72,75,0
1,68,60,0
1,66,60,336
1,68,60,0
1,72,75,0
1,63,68,0
1,66,60,336
1,63,68,0
1,72,75,0
1,68,60,0
1,66,60,336
1,68,60,0
1,72,75,0
1,63,68,0
1,64,68,336
1,73,75,0
1,68,60,0
1,68,60,336
1,73,75,0
1,64,68,0
1,64,68,336
1,66,60,0
1,69,60,0
1,73,75,0
1,64,68,336
1,66,60,0
1,69,60,0
1,73,75,0
1,66,60,336
1,63,68,0
1,72,75,0
1,68,60,0
1,66,60,336
1,68,60,0
1,72,75,0
1,63,68,0
1,66,60,336
1,63,68,0
1,72,75,0
1,68,60,0
1,64,68,3792
1,73,75,0
1,68,60,0
1,68,60,336
1,73,75,0
1,64,68,0
1,64,68,336
1,66,60,0
1,69,60,0
1,73,75,0
1,64,68,336
1,66,60,0
1,69,60,0
1,73,75,0
1,66,60,336
1,63,68,0
1,72,75,0
1,68,60,0
1,66,60,336
1,68,60,0
1,72,75,0
1,63,68,0
1,66,60,336
1,63,68,0
1,72,75,0
1,68,60,0
1,66,60,336
1,68,60,0
1,72,75,0
1,63,68,0
1,64,68,336
1,73,75,0
1,68,60,0
1,68,60,336
1,73,75,0
1,64,68,0
1,64,68,336
1,66,60,0
1,69,60,0
1,73,75,0
1,64,68,336
1,66,60,0
1,69,60,0
1,73,75,0
1,66,60,336
1,63,68,0
1,72,75,0
1,68,60,0
1,66,60,336
1,68,60,0
1,72,75,0
1,63,68,0
1,66,60,336
1,63,68,0
1,72,75,0
1,68,60,0
1,66,60,336
1,68,60,0
1,72,75,0
1,63,68,0
1,64,68,336
1,73,75,0
1,68,60,0
1,68,60,336
1,73,75,0
1,64,68,0
1,64,68,336
1,66,60,0
1,69,60,0
1,73,75,0
1,64,68,336
1,66,60,0
1,69,60,0
1,73,75,0
1,66,60,336
1,63,68,0
1,72,75,0
1,68,60,0
1,66,60,336
1,68,60,0
1,72,75,0
1,63,68,0
1,66,60,336
1,63,68,0
1,72,75,0
1,68,60,0
1,66,60,336
1,68,60,0
1,72,75,0
1,63,68,0
1,64,68,336
1,73,75,0
1,68,60,0
1,68,60,336
1,73,75,0
1,64,68,0
1,64,68,336
1,66,60,0
1,69,60,0
1,73,75,0
1,64,68,336
1,66,60,0
1,69,60,0
1,73,75,0
1,64,68,1872
1,73,75,0
1,68,60,0
1,68,60,336
1,73,75,0
1,64,68,0
1,64,68,336
1,66,60,0
1,69,60,0
1,73,75,0
1,64,68,336
1,66,60,0
1,69,60,0
1,73,75,0
1,66,60,336
1,63,68,0
1,72,75,0
1,68,60,0
1,66,60,336
1,68,60,0
1,72,75,0
1,63,68,0
1,66,60,336
1,63,68,0
1,72,75,0
1,68,60,0
1,66,60,336
1,68,60,0
1,72,75,0
1,63,68,0
1,64,68,336
1,73,75,0
1,68,60,0
1,68,60,336
1,73,75,0
1,64,68,0
1,64,68,336
1,66,60,0
1,69,60,0
1,73,75,0
1,64,68,336
1,66,60,0
1,69,60,0
1,73,75,0
1,66,60,336
1,63,68,0
1,72,75,0
1,68,60,0
1,66,60,336
1,68,60,0
1,72,75,0
1,63,68,0
1,66,60,336
1,63,68,0
1,72,75,0
1,68,60,0
1,66,60,336
1,68,60,0
1,72,75,0
1,63,68,0
1,64,68,336
1,73,75,0
1,68,60,0
1,68,60,336
1,73,75,0
1,64,68,0
1,64,68,336
1,66,60,0
1,69,60,0
1,73,75,0
1,64,68,336
1,66,60,0
1,69,60,0
1,73,75,0
1,66,60,336
1,63,68,0
1,72,75,0
1,68,60,0
1,66,60,336
1,68,60,0
1,72,75,0
1,63,68,0
1,66,60,336
1,63,68,0
1,72,75,0
1,68,60,0
1,66,60,336
1,68,60,0
1,72,75,0
1,63,68,0
1,64,68,336
1,73,75,0
1,68,60,0
1,68,60,336
1,73,75,0
1,64,68,0
1,64,68,336
1,66,60,0
1,69,60,0
1,73,75,0
1,64,68,336
1,66,60,0
1,69,60,0
1,73,75,0
1,66,60,336
1,63,68,0
1,72,75,0
1,68,60,0
1,66,60,336
1,68,60,0
1,72,75,0
1,63,68,0
1,66,60,336
1,63,68,0
1,72,75,0
1,68,60,0
1,66,60,336
1,68,60,0
1,72,75,0
1,63,68,0
1,64,68,21840
1,73,75,0
1,68,60,0
1,68,60,336
1,73,75,0
1,64,68,0
1,64,68,336
1,66,60,0
1,69,60,0
1,73,75,0
1,64,68,336
1,66,60,0
1,69,60,0
1,73,75,0
1,66,60,336
1,63,68,0
1,72,75,0
1,68,60,0
1,66,60,336
1,68,60,0
1,72,75,0
1,63,68,0
1,66,60,336
1,63,68,0
1,72,75,0
1,68,60,0
1,66,60,336
1,68,60,0
1,72,75,0
1,63,68,0
1,64,68,336
1,73,75,0
1,68,60,0
1,68,60,336
1,73,75,0
1,64,68,0
1,64,68,336
1,66,60,0
1,69,60,0
1,73,75,0
1,64,68,336
1,66,60,0
1,69,60,0
1,73,75,0
1,66,60,336
1,63,68,0
1,72,75,0
1,68,60,0
1,66,60,336
1,68,60,0
1,72,75,0
1,63,68,0
1,66,60,336
1,63,68,0
1,72,75,0
1,68,60,0
1,66,60,336
1,68,60,0
1,72,75,0
1,63,68,0
1,64,68,336
1,73,75,0
1,68,60,0
1,68,60,336
1,73,75,0
1,64,68,0
1,64,68,336
1,66,60,0
1,69,60,0
1,73,75,0
1,64,68,336
1,66,60,0
1,69,60,0
1,73,75,0
1,66,60,336
1,63,68,0
1,72,75,0
1,68,60,0
1,66,60,336
1,68,60,0
1,72,75,0
1,63,68,0
1,66,60,336
1,63,68,0
1,72,75,0
1,68,60,0
1,66,60,336
1,68,60,0
1,72,75,0
1,63,68,0
1,64,68,336
1,73,75,0
1,68,60,0
1,68,60,336
1,73,75,0
1,64,68,0
1,64,68,336
1,66,60,0
1,69,60,0
1,73,75,0
1,64,68,336
1,66,60,0
1,69,60,0
1,73,75,0
1,66,60,336
1,63,68,0
1,72,75,0
1,68,60,0
1,66,60,336
1,68,60,0
1,72,75,0
1,63,68,0
1,66,60,336
1,63,68,0
1,72,75,0
1,68,60,0
1,66,60,336
1,68,60,0
1,72,75,0
1,63,68,0
1,64,68,336
1,73,75,0
1,68,60,0
1,68,60,336
1,73,75,0
1,64,68,0
1,64,68,336
1,66,60,0
1,69,60,0
1,73,75,0
1,64,68,336
1,66,60,0
1,69,60,0
1,73,75,0
1,66,60,336
1,63,68,0
1,72,75,0
1,68,60,0
1,66,60,336
1,68,60,0
1,72,75,0
1,63,68,0
1,66,60,336
1,63,68,0
1,72,75,0
1,68,60,0
1,66,60,336
1,68,60,0
1,72,75,0
1,63,68,0
1,64,68,336
1,73,75,0
1,68,60,0
1,68,60,336
1,73,75,0
1,64,68,0
1,64,68,336
1,66,60,0
1,69,60,0
1,73,75,0
1,64,68,336
1,66,60,0
1,69,60,0
1,73,75,0
1,66,60,336
1,63,68,0
1,72,75,0
1,68,60,0
1,66,60,336
1,68,60,0
1,72,75,0
1,63,68,0
1,66,60,336
1,63,68,0
1,72,75,0
1,68,60,0
1,66,60,336
1,68,60,0
1,72,75,0
1,63,68,0
1,64,68,336
1,73,75,0
1,68,60,0
1,68,60,336
1,73,75,0
1,64,68,0
1,64,68,336
1,66,60,0
1,69,60,0
1,73,75,0
1,64,68,336
1,66,60,0
1,69,60,0
1,73,75,0
1,66,60,336
1,63,68,0
1,72,75,0
1,68,60,0
1,66,60,336
1,68,60,0
1,72,75,0
1,63,68,0
1,66,60,336
1,63,68,0
1,72,75,0
1,68,60,0
1,66,60,336
1,68,60,0
1,72,75,0
1,63,68,0
1,64,68,336
1,73,75,0
1,68,60,0
1,68,60,336
1,73,75,0
1,64,68,0
1,64,68,336
1,66,60,0
1,69,60,0
1,73,75,0
1,64,68,336
1,66,60,0
1,69,60,0
1,73,75,0
1,66,60,336
1,63,68,0
1,72,75,0
1,68,60,0
1,66,60,336
1,68,60,0
1,72,75,0
1,63,68,0
1,66,60,336
1,63,68,0
1,72,75,0
1,68,60,0
1,66,60,336
1,68,60,0
1,72,75,0
1,63,68,0
1,64,68,336
1,73,75,0
1,68,60,0
1,68,60,336
1,73,75,0
1,64,68,0
1,64,68,336
1,66,60,0
1,69,60,0
1,73,75,0
1,64,68,336
1,66,60,0
1,69,60,0
1,73,75,0
1,66,60,336
1,63,68,0
1,72,75,0
1,68,60,0
1,66,60,336
1,68,60,0
1,72,75,0
1,63,68,0
1,66,60,336
1,63,68,0
1,72,75,0
1,68,60,0
1,66,60,336
1,68,60,0
1,72,75,0
1,63,68,0
1,64,68,336
1,73,75,0
1,68,60,0
1,68,60,336
1,73,75,0
1,64,68,0
1,64,68,336
1,66,60,0
1,69,60,0
1,73,75,0
1,64,68,336
1,66,60,0
1,69,60,0
1,73,75,0
1,66,60,336
1,63,68,0
1,72,75,0
1,68,60,0
1,66,60,336
1,68,60,0
1,72,75,0
1,63,68,0
1,66,60,336
1,63,68,0
1,72,75,0
1,68,60,0
1,66,60,336
1,68,60,0
1,72,75,0
1,63,68,0
1,64,68,336
1,73,75,0
1,68,60,0
1,68,60,336
1,73,75,0
1,64,68,0
1,64,68,336
1,66,60,0
1,69,60,0
1,73,75,0
1,64,68,336
1,66,60,0
1,69,60,0
1,73,75,0
1,66,60,336
1,63,68,0
1,72,75,0
1,68,60,0
1,66,60,336
1,68,60,0
1,72,75,0
1,63,68,0
1,66,60,336
1,63,68,0
1,72,75,0
1,68,60,0
1,66,60,336
1,68,60,0
1,72,75,0
1,63,68,0
1,64,68,336
1,73,75,0
1,68,60,0
1,68,60,104
1,73,75,0
1,64,68,0
1,64,68,214
1,66,60,0
1,69,60,0
1,73,75,0
1,64,68,94
1,66,60,0
1,69,60,0
1,73,75,0
1,66,60,28
1,63,68,0
1,72,75,0
1,68,60,0
1,66,60,86
1,68,60,0
1,72,75,0
1,63,68,0
1,66,60,80
1,63,68,0
1,72,75,0
1,68,60,0
1,66,60,30
1,68,60,0
1,72,75,0
1,63,68,0
1,64,68,66
1,73,75,0
1,68,60,0
1,68,60,8
1,73,75,0
1,64,68,0
1,64,68,8
1,66,60,0
1,69,60,0
1,73,75,0
1,64,68,176
1,66,60,0
1,69,60,0
1,73,75,0
1,66,60,60
1,63,68,0
1,72,75,0
1,68,60,0
1,66,60,50
1,68,60,0
1,72,75,0
1,63,68,0
1,66,60,38
1,63,68,0
1,72,75,0
1,68,60,0
1,66,60,80
1,68,60,0
1,72,75,0
1,63,68,0
1,64,68,42
1,73,75,0
1,68,60,0
1,68,60,84
1,73,75,0
1,64,68,0
1,64,68,82
1,66,60,0
1,69,60,0
1,73,75,0
1,64,68,82
1,66,60,0
1,69,60,0
1,73,75,0
1,66,60,4
1,63,68,0
1,72,75,0
1,68,60,0
1,66,60,16
1,68,60,0
1,72,75,0
1,63,68,0
1,66,60,116
1,63,68,0
1,72,75,0
1,68,60,0
1,66,60,2
1,68,60,0
1,72,75,0
1,63,68,0
1,64,68,108
1,73,75,0
1,68,60,0
1,68,60,26
1,73,75,0
1,64,68,0
1,64,68,120
1,66,60,0
1,69,60,0
1,73,75,0
1,64,68,34
1,66,60,0
1,69,60,0
1,73,75,0
1,66,60,10
1,63,68,0
1,72,75,0
1,68,60,0
1,66,60,96
1,68,60,0
1,72,75,0
1,63,68,0
1,66,60,48
1,63,68,0
1,72,75,0
1,68,60,0
1,66,60,24
1,68,60,0
1,72,75,0
1,63,68,0
1,64,68,20
1,73,75,0
1,68,60,0
1,68,60,90
1,73,75,0
1,64,68,0
1,64,68,74
1,66,60,0
1,69,60,0
1,73,75,0
1,64,68,40
1,66,60,0
1,69,60,0
1,73,75,0
1,66,60,78
1,63,68,0
1,72,75,0
1,68,60,0
1,66,60,28
1,68,60,0
1,72,75,0
1,63,68,0
1,66,60,290
1,63,68,0
1,72,75,0
1,68,60,0
1,66,60,336
1,68,60,0
1,72,75,0
1,63,68,0
2,35,100,4604
2,37,100,6
2,35,100,0
2,37,100,6
2,35,100,0
2,37,100,6
2,35,100,0
2,37,100,6
2,35,100,672
2,37,100,6
2,35,100,576
2,37,100,132
2,35,100,96
2,37,100,6
2,35,100,0
2,37,100,6
2,35,100,0
2,37,100,6
2,35,100,0
2,37,100,6
2,35,100,672
2,37,100,6
2,35,100,576
2,37,100,132
2,32,100,12192
2,37,100,0
2,37,100,48
2,37,100,48
2,35,100,48
2,37,100,6
2,35,100,0
2,37,100,0
2,37,100,48
2,35,100,48
2,37,100,6
2,37,100,46
2,35,100,0
2,30,100,0
2,30,100,48
2,30,100,48
2,28,100,48
2,30,100,6
2,28,100,12
2,28,100,48
2,32,100,48
2,32,100,42
2,32,100,108
2,32,100,46
2,37,100,0
2,37,100,48
2,37,100,48
2,35,100,48
2,37,100,6
2,35,100,0
2,37,100,0
2,37,100,48
2,35,100,48
2,37,100,6
2,37,100,46
2,35,100,0
2,30,100,0
2,30,100,48
2,30,100,48
2,28,100,48
2,30,100,6
2,28,100,12
2,28,100,48
2,32,100,48
2,32,100,42
2,32,100,108
2,32,100,48
2,37,100,0
2,37,100,48
2,37,100,48
2,35,100,48
2,37,100,6
2,35,100,0
2,37,100,0
2,37,100,48
2,35,100,48
2,37,100,6
2,37,100,46
2,35,100,0
2,30,100,0
2,30,100,48
2,30,100,48
2,28,100,48
2,30,100,6
2,28,100,12
2,28,100,48
2,32,100,48
2,32,100,42
2,32,100,108
2,32,100,46
2,37,100,0
2,37,100,48
2,37,100,48
2,35,100,48
2,37,100,6
2,35,100,0
2,37,100,0
2,37,100,48
2,35,100,48
2,37,100,6
2,37,100,46
2,35,100,0
2,30,100,0
2,30,100,48
2,30,100,48
2,28,100,48
2,30,100,6
2,28,100,12
2,28,100,48
2,32,100,48
2,32,100,42
2,32,100,34
2,32,100,2884
2,32,100,2880
2,32,100,2880
2,32,100,2880
2,30,100,1248
2,32,100,1344
2,37,100,0
2,37,100,48
2,37,100,48
2,35,100,48
2,37,100,6
2,35,100,0
2,37,100,0
2,37,100,48
2,35,100,48
2,37,100,6
2,37,100,46
2,35,100,0
2,30,100,0
2,30,100,48
2,30,100,48
2,28,100,48
2,30,100,6
2,28,100,12
2,28,100,48
2,32,100,48
2,32,100,42
2,32,100,108
2,32,100,46
2,37,100,0
2,37,100,48
2,37,100,48
2,35,100,48
2,37,100,6
2,35,100,0
2,37,100,0
2,37,100,48
2,35,100,48
2,37,100,6
2,37,100,46
2,35,100,0
2,30,100,0
2,30,100,48
2,30,100,48
2,28,100,48
2,30,100,6
2,28,100,12
2,28,100,48
2,32,100,48
2,32,100,42
2,32,100,108
2,32,100,48
2,37,100,0
2,37,100,48
2,37,100,48
2,35,100,48
2,37,100,6
2,35,100,0
2,37,100,0
2,37,100,48
2,35,100,48
2,37,100,6
2,37,100,46
2,35,100,0
