track,note,velocity,time
3,59,100,6360
3,59,0,30
3,59,100,0
3,59,0,30
3,62,100,0
3,62,0,30
3,66,100,0
3,66,0,90
3,67,100,0
3,67,0,60
3,67,100,60
3,67,0,30
3,67,100,0
3,67,0,30
3,67,100,0
3,67,0,30
3,67,100,30
3,67,0,30
3,69,100,30
3,69,0,30
3,67,100,30
3,67,0,30
3,66,100,0
3,66,0,30
3,59,100,30
3,59,0,60
3,62,100,0
3,62,0,60
3,60,100,0
3,60,0,60
3,59,100,0
3,59,0,90
3,59,100,60
3,59,0,30
3,59,100,0
3,59,0,30
3,62,100,0
3,62,0,60
3,66,100,0
3,66,0,60
3,67,100,30
3,67,0,120
3,71,100,30
3,71,0,90
3,69,100,30
3,69,0,90
3,72,100,30
3,72,0,60
3,71,100,0
3,71,0,90
3,71,100,30
3,71,0,60
3,67,100,0
3,67,0,30
3,59,100,90
3,59,0,30
3,59,100,0
3,59,0,30
3,62,100,0
3,62,0,30
3,66,100,0
3,66,0,60
3,67,100,30
3,67,0,90
3,67,100,30
3,67,0,30
3,67,100,30
3,67,0,120
3,62,100,0
3,62,0,60
3,62,100,0
3,62,0,60
3,60,100,0
3,60,0,60
3,59,100,30
3,59,0,60
3,62,100,30
3,62,0,90
3,59,100,90
3,59,0,60
3,62,100,0
3,62,0,60
3,66,100,0
3,66,0,90
3,67,100,0
3,67,0,90
3,62,100,0
3,62,0,180
3,71,100,60
3,71,0,30
3,71,100,0
3,71,0,30
3,69,100,0
3,69,0,60
3,67,100,0
3,67,0,30
3,71,100,30
3,71,0,60
3,69,100,0
3,69,0,60
3,71,100,0
3,71,0,120
3,67,100,0
3,67,0,30
3,67,100,30
3,67,0,30
3,67,100,0
3,67,0,120
3,62,100,90
3,62,0,30
3,62,100,0
3,62,0,30
3,64,100,0
3,64,0,30
3,67,100,30
3,67,0,30
3,67,100,30
3,67,0,30
3,69,100,30
3,69,0,30
3,70,100,0
3,70,0,90
3,69,100,0
3,69,0,30
3,67,100,30
3,67,0,30
3,69,100,30
3,69,0,30
3,67,100,0
3,67,0,90
3,71,100,30
3,71,0,30
3,69,100,30
3,69,0,30
3,67,100,0
3,67,0,30
3,69,100,30
3,69,0,120
3,67,100,0
3,67,0,90
3,62,100,30
3,67,100,0
3,67,0,30
3,62,0,0
3,62,100,0
3,67,100,0
3,67,0,30
3,62,0,0
3,62,100,30
3,67,100,0
3,67,0,60
3,62,0,0
3,64,100,30
3,71,100,0
3,71,0,30
3,64,0,0
3,64,100,30
3,71,100,0
3,71,0,120
3,64,0,0
3,62,100,0
3,69,100,0
3,69,0,90
3,62,0,30
3,71,100,0
3,71,0,90
3,67,100,30
3,67,0,30
3,67,100,30
3,67,0,30
3,69,100,0
3,69,0,90
3,67,100,0
3,67,0,30
3,62,100,90
3,62,0,30
3,64,100,30
3,64,0,30
3,67,100,30
3,67,0,30
3,67,100,30
3,67,0,60
3,69,100,0
3,69,0,30
3,71,100,0
3,71,0,90
3,69,100,0
3,69,0,60
3,67,100,0
3,67,0,60
3,69,100,0
3,69,0,30
3,67,100,0
3,67,0,30
3,67,100,90
3,67,0,30
3,67,100,30
3,67,0,30
3,67,100,0
3,67,0,30
3,67,100,0
3,67,0,30
3,67,100,0
3,67,0,60
3,69,100,0
3,69,0,30
3,71,100,0
3,71,0,30
3,62,100,60
3,67,100,0
3,67,0,30
3,62,0,0
3,62,100,0
3,67,100,0
3,67,0,30
3,62,0,0
3,62,100,0
3,67,100,0
3,67,0,30
3,62,0,0
3,62,100,0
3,67,100,0
3,67,0,30
3,62,0,0
3,62,100,0
3,67,100,0
3,67,0,30
3,62,0,0
3,62,100,0
3,67,100,0
3,67,0,30
3,62,0,0
3,69,100,60
3,69,0,60
3,71,100,0
3,71,0,120
3,67,100,0
3,67,0,60
3,69,100,0
3,69,0,120
3,67,100,0
3,67,0,60
3,62,100,60
3,62,0,60
3,70,100,0
3,70,0,60
3,70,100,0
3,70,0,60
3,69,100,0
3,69,0,60
3,67,100,0
3,67,0,30
3,69,100,0
3,69,0,90
3,67,100,0
3,67,0,120
3,59,100,1860
3,59,0,30
3,59,100,0
3,59,0,30
3,62,100,0
3,62,0,30
3,66,100,0
3,66,0,90
3,67,100,0
3,67,0,90
3,67,100,30
3,67,0,30
3,67,100,0
3,67,0,30
3,67,100,0
3,67,0,30
3,67,100,0
3,67,0,30
3,69,100,30
3,69,0,60
3,67,100,30
3,67,0,60
3,67,100,0
3,67,0,30
3,59,100,0
3,59,0,60
3,62,100,0
3,62,0,60
3,60,100,0
3,60,0,60
3,59,100,0
3,59,0,90
3,59,100,60
3,59,0,30
3,59,100,0
3,59,0,30
3,62,100,0
3,62,0,60
3,66,100,0
3,66,0,90
3,67,100,30
3,67,0,90
3,71,100,30
3,71,0,120
3,69,100,0
3,69,0,120
3,72,100,0
3,72,0,60
3,71,100,0
3,71,0,90
3,71,100,30
3,71,0,60
3,74,100,0
3,74,0,120
3,59,100,0
3,59,0,30
3,59,100,0
3,59,0,30
3,62,100,0
3,62,0,30
3,66,100,0
3,66,0,90
3,67,100,0
3,67,0,60
3,67,100,60
3,67,0,30
3,67,100,30
3,67,0,90
3,62,100,30
3,62,0,60
3,62,100,0
3,62,0,60
3,60,100,0
3,60,0,60
3,59,100,0
3,59,0,120
3,62,100,0
3,62,0,120
3,59,100,60
3,59,0,60
3,62,100,0
3,62,0,60
3,66,100,0
3,66,0,90
3,67,100,0
3,67,0,90
3,62,100,0
3,62,0,180
3,71,100,60
3,71,0,30
3,71,100,0
3,71,0,30
3,69,100,0
3,69,0,30
3,67,100,30
3,67,0,60
3,70,100,0
3,70,0,60
3,69,100,0
3,69,0,60
3,71,100,0
3,71,0,120
3,67,100,0
3,67,0,30
3,67,100,30
3,67,0,30
3,67,100,0
3,67,0,120
3,62,100,90
3,62,0,30
3,62,100,0
3,62,0,30
3,64,100,0
3,64,0,30
3,67,100,30
3,67,0,30
3,67,100,30
3,67,0,30
3,69,100,30
3,69,0,30
3,70,100,0
3,70,0,90
3,69,100,0
3,69,0,30
3,67,100,30
3,67,0,30
3,69,100,30
3,69,0,30
3,67,100,0
3,67,0,90
3,71,100,30
3,71,0,30
3,69,100,30
3,69,0,30
3,67,100,0
3,67,0,30
3,69,100,30
3,69,0,120
3,67,100,0
3,67,0,90
3,67,100,30
3,67,0,30
3,67,100,0
3,67,0,30
3,67,100,30
3,67,0,60
3,71,100,30
3,71,0,30
3,71,100,30
3,71,0,120
3,69,100,0
3,69,0,90
3,71,100,30
3,71,0,90
3,67,100,30
3,67,0,30
3,67,100,30
3,67,0,30
3,69,100,0
3,69,0,90
3,67,100,0
3,67,0,30
3,62,100,90
3,62,0,30
3,64,100,30
3,64,0,30
3,67,100,30
3,67,0,30
3,67,100,30
3,67,0,60
3,69,100,0
3,69,0,30
3,71,100,0
3,71,0,90
3,69,100,0
3,69,0,60
3,67,100,0
3,67,0,60
3,69,100,0
3,69,0,30
3,67,100,0
3,67,0,30
3,67,100,90
3,67,0,30
3,67,100,30
3,67,0,30
3,67,100,0
3,67,0,30
3,67,100,0
3,67,0,30
3,67,100,0
3,67,0,60
3,69,100,0
3,69,0,30
3,71,100,0
3,71,0,30
3,67,100,60
3,67,0,30
3,67,100,0
3,67,0,30
3,67,100,0
3,67,0,30
3,67,100,0
3,67,0,30
3,67,100,0
3,67,0,30
3,67,100,0
3,67,0,30
3,69,100,60
3,69,0,60
3,71,100,0
3,71,0,120
3,67,100,0
3,67,0,60
3,69,100,0
3,69,0,120
3,67,100,0
3,67,0,60
3,62,100,60
3,62,0,60
3,70,100,0
3,70,0,60
3,70,100,0
3,70,0,60
3,69,100,0
3,69,0,60
3,67,100,0
3,67,0,30
3,69,100,0
3,69,0,90
3,67,100,0
3,67,0,120
3,74,100,3660
3,74,0,90
3,71,100,30
3,71,0,60
3,69,100,0
3,69,0,30
3,67,100,0
3,67,0,90
3,67,100,120
3,67,0,30
3,76,100,30
3,76,0,30
3,72,100,30
3,72,0,30
3,72,100,30
3,72,0,30
3,71,100,30
3,71,0,30
3,69,100,0
3,69,0,30
3,69,100,60
3,69,0,30
3,72,100,30
3,72,0,30
3,72,100,30
3,72,0,30
3,71,100,30
3,71,0,30
3,69,100,0
3,69,0,30
3,67,100,0
3,67,0,30
3,67,100,30
3,67,0,30
3,67,100,0
3,67,0,30
3,67,100,0
3,67,0,30
3,67,100,0
3,67,0,60
3,71,100,30
3,71,0,60
3,67,100,60
3,67,0,30
3,72,100,30
3,72,0,60
3,71,100,30
3,71,0,60
3,67,100,30
3,67,0,60
3,62,100,60
3,62,0,60
3,69,100,0
3,69,0,60
3,67,100,0
3,67,0,60
3,71,100,0
3,71,0,120
3,67,100,0
3,67,0,30
3,67,100,30
3,67,0,30
3,69,100,0
3,69,0,90
3,67,100,0
3,67,0,60
3,62,100,60
3,62,0,30
3,64,100,30
3,64,0,60
3,67,100,0
3,67,0,60
3,67,100,0
3,67,0,30
3,69,100,30
3,69,0,30
3,71,100,0
3,71,0,60
3,69,100,30
3,69,0,60
3,72,100,0
3,72,0,60
3,71,100,0
3,71,0,30
3,67,100,0
3,67,0,90
3,67,100,30
3,67,0,30
3,67,100,30
3,67,0,30
3,67,100,0
3,67,0,30
3,67,100,0
3,67,0,30
3,67,100,0
3,67,0,30
3,69,100,30
3,69,0,30
3,71,100,0
3,71,0,60
3,67,100,30
3,67,0,30
3,67,100,0
3,67,0,30
3,67,100,0
3,67,0,30
3,67,100,0
3,67,0,30
3,67,100,0
3,67,0,30
3,67,100,0
3,67,0,60
3,69,100,30
3,69,0,60
3,71,100,0
3,71,0,120
3,67,100,0
3,67,0,30
3,67,100,30
3,67,0,120
3,71,100,720
3,71,0,60
3,69,100,0
3,69,0,60
3,67,100,0
3,67,0,30
3,74,100,0
3,74,0,90
3,71,100,1680
3,71,0,60
3,69,100,0
3,69,0,60
3,67,100,0
3,67,0,30
3,74,100,0
3,74,0,90
3,67,100,330
3,67,0,30
3,67,100,0
3,67,0,30
3,67,100,30
3,67,0,30
3,67,100,30
3,67,0,30
3,67,100,30
3,67,0,30
3,69,100,30
3,69,0,30
3,70,100,0
3,70,0,60
3,69,100,30
3,69,0,30
3,72,100,30
3,72,0,60
3,71,100,0
3,71,0,30
3,67,100,0
3,67,0,150
4,59,100,32280
4,59,0,89
4,59,100,31
4,59,0,89
4,60,100,1
4,60,0,29
4,59,100,1
4,59,0,89
4,59,100,31
4,59,0,89
4,60,100,1
4,60,0,29
4,59,100,1
4,59,0,89
4,60,100,1
4,60,0,29
4,59,100,1
4,59,0,119
4,59,100,241
4,59,0,89
4,59,100,31
4,59,0,89
4,60,100,1
4,60,0,29
4,59,100,1
4,59,0,89
4,60,100,1
4,60,0,29
4,59,100,1
4,59,0,89
4,60,100,1
4,60,0,29
4,59,100,1
4,59,0,89
4,60,100,1
4,60,0,29
4,59,100,1
4,59,0,119
4,59,100,241
4,59,0,89
4,59,100,31
4,59,0,89
4,60,100,1
4,60,0,29
4,59,100,1
4,59,0,119
4,59,100,1
4,59,0,89
4,60,100,1
4,60,0,29
4,59,100,1
4,59,0,89
4,60,100,1
4,60,0,29
4,59,100,1
4,59,0,119
5,59,100,9240
5,59,0,60
5,62,100,0
5,62,0,60
5,66,100,0
5,66,0,90
5,67,100,0
5,67,0,90
5,62,100,0
5,62,0,540
5,59,100,9240
5,59,0,60
5,62,100,0
5,62,0,60
5,66,100,0
5,66,0,90
5,67,100,0
5,67,0,90
5,62,100,0
5,62,0,540
6,43,100,1920
6,43,0,89
6,43,100,31
6,43,0,89
6,34,100,1
6,34,0,90
6,34,100,0
6,34,0,59
6,36,100,1
6,36,0,59
6,38,100,1
6,38,0,59
6,43,100,1
6,43,0,89
6,43,100,31
6,43,0,89
6,34,100,1
6,34,0,90
6,34,100,0
6,34,0,59
6,36,100,1
6,36,0,59
6,38,100,1
6,38,0,59
6,43,100,1
6,43,0,89
6,43,100,31
6,43,0,89
6,34,100,1
6,34,0,90
6,34,100,0
6,34,0,59
6,36,100,1
6,36,0,59
6,38,100,1
6,38,0,59
6,43,100,1
6,43,0,89
6,43,100,31
6,43,0,89
6,34,100,1
6,34,0,90
6,34,100,0
6,34,0,59
6,36,100,1
6,36,0,59
6,38,100,1
6,38,0,59
6,43,100,1
6,43,0,89
6,43,100,31
6,43,0,89
6,34,100,1
6,34,0,90
6,34,100,0
6,34,0,59
6,36,100,1
6,36,0,59
6,38,100,1
6,38,0,59
6,43,100,1
6,43,0,89
6,43,100,31
6,43,0,89
6,34,100,1
6,34,0,90
6,34,100,0
6,34,0,59
6,36,100,1
6,36,0,59
6,38,100,1
6,38,0,59
6,43,100,1
6,43,0,89
6,43,100,31
6,43,0,89
6,34,100,1
6,34,0,90
6,34,100,0
6,34,0,59
6,36,100,1
6,36,0,59
6,38,100,1
6,38,0,59
6,43,100,1
6,43,0,89
6,43,100,31
6,43,0,89
6,34,100,1
6,34,0,90
6,34,100,0
6,34,0,59
6,36,100,1
6,36,0,59
6,38,100,1
6,38,0,59
6,43,100,571
6,43,0,29
6,43,100,1
6,43,0,29
6,43,100,1
6,43,0,29
6,43,100,1
6,43,0,29
6,43,100,1
6,43,0,29
6,40,100,1
6,40,0,59
6,40,100,1
6,40,0,59
6,43,100,211
6,43,0,29
6,43,100,1
6,43,0,29
6,43,100,1
6,43,0,29
6,43,100,1
6,43,0,29
6,43,100,1
6,43,0,29
6,38,100,1
6,38,0,60
6,38,100,0
6,38,0,59
6,40,100,1
6,40,0,59
6,38,100,1
6,38,0,59
6,43,100,91
6,43,0,30
6,43,100,0
6,43,0,29
6,43,100,1
6,43,0,29
6,43,100,1
6,43,0,29
6,43,100,1
6,43,0,29
6,40,100,1
6,40,0,60
6,40,100,0
6,40,0,59
6,43,100,211
6,43,0,30
6,43,100,0
6,43,0,29
6,43,100,1
6,43,0,29
6,43,100,1
6,43,0,29
6,43,100,1
6,43,0,29
6,38,100,1
6,38,0,60
6,38,100,0
6,38,0,59
6,40,100,1
6,40,0,30
6,38,100,0
6,38,0,29
6,43,100,1
6,43,0,29
6,43,100,151
6,43,0,29
6,43,100,1
6,43,0,29
6,43,100,1
6,43,0,29
6,43,100,1
6,43,0,29
6,40,100,1
6,40,0,60
6,40,100,0
6,40,0,59
6,43,100,211
6,43,0,30
6,43,100,0
6,43,0,29
6,43,100,1
6,43,0,29
6,43,100,1
6,43,0,29
6,43,100,1
6,43,0,30
6,38,100,0
6,38,0,60
6,38,100,0
6,38,0,59
6,43,100,241
6,43,0,29
6,43,100,1
6,43,0,29
6,43,100,1
6,43,0,29
6,43,100,1
6,43,0,29
6,45,100,1
6,45,0,60
6,45,100,0
6,45,0,59
6,38,100,211
6,38,0,29
6,38,100,1
6,38,0,29
6,38,100,1
6,38,0,30
6,38,100,0
6,38,0,29
6,38,100,1
6,38,0,29
6,38,100,1
6,38,0,29
6,38,100,31
6,38,0,59
6,47,100,1
6,47,0,59
6,45,100,1
6,45,0,59
6,43,100,91
6,43,0,29
6,43,100,1
6,43,0,29
6,43,100,1
6,43,0,29
6,43,100,1
6,43,0,29
6,43,100,1
6,43,0,29
6,40,100,1
6,40,0,59
6,40,100,1
6,40,0,59
6,43,100,211
6,43,0,29
6,43,100,1
6,43,0,29
6,43,100,1
6,43,0,29
6,43,100,1
6,43,0,29
6,43,100,1
6,43,0,29
6,38,100,1
6,38,0,60
6,38,100,0
6,38,0,59
6,40,100,1
6,40,0,59
6,38,100,1
6,38,0,59
6,43,100,91
6,43,0,30
6,43,100,0
6,43,0,29
6,43,100,1
6,43,0,29
6,43,100,1
6,43,0,29
6,43,100,1
6,43,0,29
6,40,100,1
6,40,0,60
6,40,100,0
6,40,0,59
6,43,100,211
6,43,0,30
6,43,100,0
6,43,0,29
6,43,100,1
6,43,0,29
6,43,100,1
6,43,0,29
6,43,100,1
6,43,0,29
6,38,100,1
6,38,0,60
6,38,100,0
6,38,0,59
