track,note,velocity,time
1,31,100,7256
1,31,100,48
1,34,100,48
1,34,100,96
1,34,80,0
1,34,85,0
1,36,100,0
1,38,100,32
1,31,100,32
1,31,100,48
1,34,100,48
1,34,100,48
1,34,80,0
1,34,85,0
1,36,100,0
1,38,100,32
1,31,100,32
1,31,100,48
1,34,100,48
1,34,100,68
1,34,80,0
1,34,85,0
1,36,100,0
1,38,100,32
1,31,100,32
1,31,100,48
1,34,100,48
1,34,100,48
1,33,100,192
1,32,100,32
1,31,100,32
1,31,100,48
1,34,100,48
1,34,100,48
1,34,80,0
1,34,85,0
1,36,100,0
1,38,100,32
1,31,100,32
1,31,100,48
1,34,100,48
1,34,100,48
1,34,80,0
1,34,85,0
1,36,100,0
1,38,100,32
1,31,100,32
1,31,100,48
1,34,100,48
1,34,100,48
1,34,80,0
1,34,85,0
1,36,100,0
1,38,100,32
1,31,100,32
1,31,100,48
1,34,100,48
1,34,100,48
1,33,100,48
1,29,100,32
1,31,85,1952
1,43,100,0
1,31,85,16
1,43,100,0
1,31,85,16
1,43,100,0
1,31,85,16
1,43,100,0
1,28,85,16
1,40,100,0
1,28,85,72
1,40,100,0
1,31,85,840
1,43,100,0
1,31,85,16
1,43,100,0
1,31,85,16
1,43,100,0
1,31,85,16
1,43,100,0
1,26,85,16
1,38,100,0
1,26,85,72
1,38,100,0
1,28,85,72
1,40,100,0
1,33,85,72
1,45,100,0
1,31,85,456
1,43,100,0
1,31,85,16
1,43,100,0
1,31,85,16
1,43,100,0
1,31,85,16
1,43,100,0
1,28,85,16
1,40,100,0
1,28,85,72
1,40,100,0
1,31,85,840
1,43,100,0
1,31,85,16
1,43,100,0
1,31,85,16
1,43,100,0
1,31,85,16
1,43,100,0
1,26,85,16
1,38,100,0
1,26,85,72
1,38,100,0
1,28,85,72
1,40,100,0
1,33,85,72
1,45,100,0
1,31,85,456
1,43,100,0
1,31,85,16
1,43,100,0
1,31,85,16
1,43,100,0
1,31,85,16
1,43,100,0
1,28,85,16
1,40,100,0
1,28,85,72
1,40,100,0
1,31,85,840
1,43,100,0
1,31,85,16
1,43,100,0
1,31,85,16
1,43,100,0
1,31,85,16
1,43,100,0
1,26,85,16
1,38,100,0
1,26,85,72
1,38,100,0
1,28,85,72
1,40,100,0
1,33,85,72
1,45,100,0
1,31,85,456
1,43,100,0
1,31,85,16
1,43,100,0
1,31,85,16
1,43,100,0
1,31,85,16
1,43,100,0
1,33,85,16
1,45,100,0
1,33,85,72
1,45,100,0
1,26,85,840
1,38,100,0
1,26,85,16
1,38,100,0
1,26,85,16
1,38,100,0
1,26,85,16
1,38,100,0
1,26,85,16
1,38,100,0
1,26,85,72
1,38,100,0
1,28,85,72
1,40,100,0
1,33,85,72
1,45,100,0
1,31,85,168
1,43,100,0
1,31,85,132
1,43,100,0
1,31,85,36
1,43,100,0
1,33,85,12
1,45,100,0
1,28,85,12
1,40,100,0
1,28,85,64
1,40,100,0
1,30,85,1368
1,42,100,0
1,31,85,96
1,43,100,0
1,31,85,132
1,43,100,0
1,31,85,36
1,43,100,0
1,33,85,12
1,45,100,0
1,28,85,12
1,40,100,0
1,28,85,64
1,40,100,0
1,30,85,1368
1,42,100,0
1,31,85,96
1,43,100,0
1,31,85,132
1,43,100,0
1,31,85,36
1,43,100,0
1,33,85,12
1,45,100,0
1,28,85,12
1,40,100,0
1,28,85,64
1,40,100,0
1,30,85,1368
1,42,100,0
1,31,85,96
1,43,100,0
1,31,85,132
1,43,100,0
1,31,85,36
1,43,100,0
1,33,85,12
1,45,100,0
1,28,85,12
1,40,100,0
1,28,85,64
1,40,100,0
1,30,85,1368
1,42,100,0
1,31,100,1536
1,31,100,48
1,34,100,48
1,34,100,48
1,36,100,48
1,38,100,32
1,31,100,32
1,31,100,48
1,34,100,48
1,34,100,48
1,36,100,48
1,38,100,32
1,31,100,32
1,31,100,48
1,34,100,48
1,34,100,48
1,36,100,48
1,38,100,32
1,31,100,32
1,31,100,48
1,31,100,48
1,27,100,192
1,26,100,64
1,31,100,448
1,31,100,16
1,31,100,16
1,31,100,16
1,28,100,16
1,28,100,72
1,31,85,840
1,43,100,0
1,31,85,16
1,43,100,0
1,31,85,16
1,43,100,0
1,31,85,16
1,43,100,0
1,26,85,16
1,38,100,0
1,26,85,72
1,38,100,0
1,28,85,72
1,40,100,0
1,33,85,72
1,45,100,0
1,31,85,456
1,43,100,0
1,31,85,16
1,43,100,0
1,31,85,16
1,43,100,0
1,31,85,16
1,43,100,0
1,28,85,16
1,40,100,0
1,28,85,72
1,40,100,0
1,31,85,840
1,43,100,0
1,31,85,16
1,43,100,0
1,31,85,16
1,43,100,0
1,31,85,16
1,43,100,0
1,26,85,16
1,38,100,0
1,26,85,72
1,38,100,0
1,28,85,72
1,40,100,0
1,33,85,72
1,45,100,0
1,31,85,456
1,43,100,0
1,31,85,16
1,43,100,0
1,31,85,16
1,43,100,0
1,31,85,16
1,43,100,0
1,28,85,16
1,40,100,0
1,28,85,72
1,40,100,0
1,31,85,840
1,43,100,0
1,31,85,16
1,43,100,0
1,31,85,16
1,43,100,0
1,31,85,16
1,43,100,0
1,26,85,16
1,38,100,0
1,26,85,72
1,38,100,0
1,28,85,72
1,40,100,0
1,33,85,72
1,45,100,0
1,31,85,456
1,43,100,0
1,31,85,16
1,43,100,0
1,31,85,16
1,43,100,0
1,31,85,16
1,43,100,0
1,33,85,16
1,45,100,0
1,33,85,72
1,45,100,0
1,26,85,840
1,38,100,0
1,26,85,16
1,38,100,0
1,26,85,16
1,38,100,0
1,26,85,16
1,38,100,0
1,26,85,16
1,38,100,0
1,26,85,72
1,38,100,0
1,28,85,72
1,40,100,0
1,33,85,72
1,45,100,0
1,31,85,168
1,43,100,0
1,31,85,132
1,43,100,0
1,31,85,36
1,43,100,0
1,33,85,12
1,45,100,0
1,28,85,12
1,40,100,0
1,28,85,64
1,40,100,0
1,30,85,1368
1,42,100,0
1,31,85,96
1,43,100,0
1,31,85,132
1,43,100,0
1,31,85,36
1,43,100,0
1,33,85,12
1,45,100,0
1,28,85,12
1,40,100,0
1,28,85,64
1,40,100,0
1,30,85,1368
1,42,100,0
1,31,85,96
1,43,100,0
1,31,85,132
1,43,100,0
1,31,85,36
1,43,100,0
1,33,85,12
1,45,100,0
1,28,85,12
1,40,100,0
1,28,85,64
1,40,100,0
1,30,85,1368
1,42,100,0
1,31,85,96
1,43,100,0
1,31,85,132
1,43,100,0
1,31,85,36
1,43,100,0
1,33,85,12
1,45,100,0
1,28,85,12
1,40,100,0
1,28,85,64
1,40,100,0
1,30,85,1368
1,42,100,0
1,31,100,1536
1,31,100,48
1,34,100,48
1,34,100,48
1,36,100,48
1,38,100,32
1,31,100,32
1,31,100,48
1,34,100,48
1,34,100,48
1,36,100,48
1,38,100,32
1,31,100,32
1,31,100,48
1,34,100,48
1,34,100,48
1,36,100,48
1,38,100,32
1,31,100,32
1,31,100,48
1,34,100,48
1,34,100,48
1,33,100,48
1,32,100,32
1,31,100,32
1,31,100,48
1,34,100,48
1,34,100,48
1,36,100,48
1,38,100,32
1,31,100,32
1,31,100,48
1,34,100,48
1,34,100,48
1,36,100,48
1,38,100,32
1,31,100,32
1,31,100,48
1,34,100,48
1,34,100,48
1,36,100,48
1,38,100,32
1,31,100,32
1,31,100,48
1,34,100,48
1,34,100,48
1,33,100,48
1,30,100,1648
1,30,85,1344
1,42,100,0
1,30,85,1344
1,42,100,0
1,30,85,1344
1,42,100,0
1,31,85,96
1,43,100,0
1,31,85,132
1,43,100,0
1,31,85,36
1,43,100,0
1,33,85,12
1,45,100,0
1,28,85,12
1,40,100,0
1,28,85,64
1,40,100,0
1,30,85,1368
1,42,100,0
1,31,85,96
1,43,100,0
1,31,85,132
1,43,100,0
1,31,85,36
1,43,100,0
1,33,85,12
1,45,100,0
1,28,85,12
1,40,100,0
1,28,85,64
1,40,100,0
1,30,85,1368
1,42,100,0
1,31,85,96
1,43,100,0
1,31,85,132
1,43,100,0
1,31,85,36
1,43,100,0
1,33,85,12
1,45,100,0
1,28,85,12
1,40,100,0
1,28,85,64
1,40,100,0
1,30,85,1368
1,42,100,0
1,31,85,96
1,43,100,0
1,31,85,132
1,43,100,0
1,31,85,36
1,43,100,0
1,33,85,12
1,45,100,0
1,28,85,12
1,40,100,0
1,28,85,64
1,40,100,0
1,30,85,1368
1,42,100,0
1,31,85,96
1,43,100,0
1,31,85,132
1,43,100,0
1,31,85,36
1,43,100,0
1,33,85,12
1,45,100,0
1,28,85,12
1,40,100,0
1,28,85,64
1,40,100,0
1,30,85,1368
1,42,100,0
1,31,85,96
1,43,100,0
1,31,85,132
1,43,100,0
1,31,85,36
1,43,100,0
1,33,85,12
1,45,100,0
1,28,85,12
1,40,100,0
1,28,85,64
1,40,100,0
2,75,1,572
2,79,80,88
2,77,80,0
2,79,80,72
2,77,80,0
2,82,80,0
2,79,80,0
2,77,80,72
2,79,80,0
2,79,80,148
2,77,80,0
2,79,80,72
2,77,80,0
2,82,80,0
2,79,80,0
2,77,80,72
2,79,80,0
2,79,80,148
2,77,80,0
2,79,80,72
2,77,80,0
2,82,80,0
2,79,80,0
2,77,80,72
2,79,80,0
2,79,80,148
2,77,80,0
2,79,80,72
2,77,80,0
2,82,80,0
2,79,80,0
2,77,80,72
2,79,80,0
2,79,80,148
2,77,80,0
2,79,80,72
2,77,80,0
2,82,80,0
2,79,80,0
2,77,80,72
2,79,80,0
2,79,80,148
2,77,80,0
2,79,80,72
2,77,80,0
2,82,80,0
2,79,80,0
2,77,80,72
2,79,80,0
2,79,80,148
2,77,80,0
2,79,80,72
2,77,80,0
2,82,80,0
2,79,80,0
2,77,80,72
2,79,80,0
2,79,80,148
2,79,80,88
2,79,80,88
2,87,80,24
2,86,80,0
2,84,80,0
2,86,80,0
2,79,80,26496
2,77,80,0
2,79,80,72
2,77,80,0
2,82,80,0
2,79,80,0
2,77,80,72
2,79,80,0
2,79,80,148
2,77,80,0
2,79,80,72
2,77,80,0
2,82,80,0
2,79,80,0
2,77,80,72
2,79,80,0
2,79,80,148
2,77,80,0
2,79,80,72
2,77,80,0
2,82,80,0
2,79,80,0
2,77,80,72
2,79,80,0
2,79,80,148
2,79,80,88
2,79,80,88
2,87,80,24
2,86,80,0
2,79,80,25728
2,77,80,0
2,79,80,72
2,77,80,0
2,82,80,0
2,79,80,0
2,77,80,72
2,79,80,0
2,79,80,148
2,77,80,0
2,79,80,72
2,77,80,0
2,82,80,0
2,79,80,0
2,77,80,72
2,79,80,0
2,79,80,148
2,77,80,0
2,79,80,72
2,77,80,0
2,82,80,0
2,79,80,0
2,77,80,72
2,79,80,0
2,79,80,148
2,77,80,0
2,79,80,72
2,77,80,0
2,82,80,0
2,79,80,0
2,77,80,72
2,79,80,0
2,79,80,148
2,77,80,0
2,79,80,72
2,77,80,0
2,82,80,0
2,79,80,0
2,77,80,72
2,79,80,0
2,79,80,148
2,77,80,0
2,79,80,72
2,77,80,0
2,82,80,0
2,79,80,0
2,77,80,72
2,79,80,0
2,79,80,148
2,77,80,0
2,79,80,72
2,77,80,0
2,82,80,0
2,79,80,0
2,77,80,72
2,79,80,0
2,79,80,148
2,77,80,0
2,79,80,72
2,77,80,0
2,82,80,0
2,79,80,0
2,77,80,72
2,79,80,0
3,70,90,12016
3,70,90,100
3,72,96,88
3,73,90,76
3,70,78,92
3,72,88,68
3,70,84,36
3,59,80,7824
3,59,84,204
3,58,66,0
3,59,70,12
3,62,66,4
3,66,72,96
3,67,84,28
3,67,100,156
3,67,80,48
3,67,92,52
3,67,100,72
3,69,66,68
3,67,92,4
3,66,78,68
3,57,80,80
3,62,84,88
3,60,78,52
3,59,88,68
3,59,96,252
3,59,84,120
3,62,96,96
3,66,90,176
3,67,96,4
3,71,100,8
3,69,88,384
3,72,100,44
3,71,100,52
3,71,92,60
3,59,100,192
3,67,70,0
3,59,84,168
3,58,78,0
3,59,70,20
3,62,60,12
3,66,84,96
3,67,96,20
3,67,92,176
3,67,88,56
3,67,92,52
3,64,88,116
3,60,100,60
3,59,96,108
3,57,96,28
3,62,88,100
3,59,100,336
3,62,92,44
3,66,90,192
3,67,96,0
3,62,84,36
3,71,88,556
3,71,84,52
3,69,96,44
3,62,80,96
3,67,84,140
3,66,78,36
3,71,100,112
3,67,106,8
3,69,100,8
3,67,106,0
3,62,96,120
3,64,78,20
3,67,78,4
3,67,100,100
3,69,88,52
3,71,92,20
3,69,100,16
3,67,96,44
3,69,96,76
3,67,100,96
3,71,100,252
3,69,70,192
3,67,88,8
3,69,106,56
3,67,88,384
3,62,70,132
3,67,78,0
3,62,70,52
3,67,96,0
3,62,88,96
3,67,92,0
3,67,88,132
3,71,88,0
3,67,78,92
3,71,84,0
3,62,96,56
3,69,88,0
3,71,100,224
3,67,106,8
3,69,100,8
3,67,106,0
3,62,96,120
3,64,78,20
3,67,78,4
3,67,100,100
3,69,88,52
3,71,92,20
3,69,100,16
3,67,96,44
3,69,96,76
3,67,100,96
3,67,96,252
3,67,96,52
3,67,88,48
3,67,96,48
3,67,92,48
3,67,96,52
3,69,92,92
3,71,96,24
3,62,84,192
3,67,70,0
3,62,68,52
3,67,80,0
3,62,70,52
3,67,70,0
3,62,62,48
3,67,74,0
3,62,50,48
3,67,84,0
3,62,88,52
3,67,92,0
3,69,96,176
3,71,106,84
3,66,90,52
3,69,100,60
3,67,100,0
3,62,92,232
3,71,100,120
3,69,88,92
3,67,92,116
3,64,74,96
3,69,96,48
3,67,100,92
3,59,80,5988
3,59,84,204
3,58,66,0
3,59,70,12
3,62,66,4
3,66,72,96
3,67,84,28
3,67,100,156
3,67,80,48
3,67,92,52
3,67,100,72
3,69,66,68
3,67,92,4
3,66,78,68
3,57,80,80
3,62,84,88
3,60,78,52
3,59,88,68
3,59,96,252
3,59,84,120
3,62,96,96
3,66,90,176
3,67,96,4
3,71,100,8
3,69,88,384
3,72,100,44
3,71,100,52
3,71,92,60
3,59,100,192
3,67,70,0
3,59,84,168
3,58,78,0
3,59,70,20
3,62,60,12
3,66,84,96
3,67,96,20
3,67,92,176
3,67,88,56
3,67,92,52
3,64,88,116
3,60,100,60
3,59,96,108
3,57,96,28
3,62,88,100
3,59,100,336
3,62,92,44
3,66,90,192
3,67,96,0
3,62,84,36
3,71,88,556
3,71,84,52
3,69,96,44
3,62,80,96
3,67,84,140
3,66,78,36
3,71,100,112
3,67,106,8
3,69,100,8
3,67,106,0
3,62,96,120
3,64,78,20
3,67,78,4
3,67,100,100
3,69,88,52
3,71,92,20
3,69,100,16
3,67,96,44
3,69,96,76
3,67,100,96
3,71,100,252
3,69,70,192
3,67,88,8
3,69,106,56
3,67,88,384
3,62,70,132
3,67,78,0
3,62,70,52
3,67,96,0
3,62,88,96
3,67,92,0
3,67,88,132
3,71,88,0
3,67,78,92
3,71,84,0
3,62,96,56
3,69,88,0
3,71,100,224
3,67,106,8
3,69,100,8
3,67,106,0
3,62,96,120
3,64,78,20
3,67,78,4
3,67,100,100
3,69,88,52
3,71,92,20
3,69,100,16
3,67,96,44
3,69,96,76
3,67,100,96
3,67,96,252
3,67,96,52
3,67,88,48
3,67,96,48
3,67,92,48
3,67,96,52
3,69,92,92
3,71,96,24
3,62,84,192
3,67,70,0
3,62,68,52
3,67,80,0
3,62,70,52
3,67,70,0
3,62,62,48
3,67,74,0
3,62,50,48
3,67,84,0
3,62,88,52
3,67,92,0
3,69,96,176
3,71,106,84
3,66,90,52
3,69,100,60
3,67,100,0
3,62,92,232
3,71,100,120
3,69,88,92
3,67,92,116
3,64,74,96
3,69,96,48
3,67,100,92
3,67,100,420
3,62,84,240
3,69,84,84
3,67,88,56
3,74,96,10880
3,71,106,144
3,69,88,40
3,67,106,12
3,67,92,108
3,67,100,60
3,76,92,112
3,72,96,100
3,72,96,104
3,71,84,60
3,69,100,4
3,69,88,112
3,71,88,96
3,72,96,96
3,71,88,116
3,69,92,4
3,67,84,28
3,67,88,108
3,67,84,52
