track,note,velocity,time
1,59,100,20352
1,59,100,0
1,62,100,0
1,66,100,0
1,67,100,0
1,67,100,192
1,67,100,0
1,67,100,0
1,67,100,96
1,69,100,96
1,67,100,96
1,66,100,0
1,59,100,96
1,62,100,0
1,60,100,0
1,59,100,0
1,59,100,192
1,59,100,0
1,62,100,0
1,66,100,0
1,67,100,96
1,71,100,96
1,69,100,96
1,72,100,96
1,71,100,0
1,71,100,96
1,67,100,0
1,59,100,288
1,59,100,0
1,62,100,0
1,66,100,0
1,67,100,96
1,67,100,96
1,67,100,96
1,62,100,0
1,62,100,0
1,60,100,0
1,59,100,96
1,62,100,96
1,59,100,288
1,62,100,0
1,66,100,0
1,67,100,0
1,62,100,0
1,71,100,192
1,71,100,0
1,69,100,0
1,67,100,0
1,71,100,96
1,69,100,0
1,71,100,0
1,67,100,0
1,67,100,96
1,67,100,0
1,62,100,288
1,62,100,0
1,64,100,0
1,67,100,96
1,67,100,96
1,69,100,96
1,70,100,0
1,69,100,0
1,67,100,96
1,69,100,96
1,67,100,0
1,71,100,96
1,69,100,96
1,67,100,0
1,69,100,96
1,67,100,0
1,62,100,96
1,67,100,0
1,62,100,0
1,67,100,0
1,62,100,96
1,67,100,0
1,64,100,96
1,71,100,0
1,64,100,96
1,71,100,0
1,62,100,0
1,69,100,0
1,71,100,0
1,67,100,96
1,67,100,96
1,69,100,0
1,67,100,0
1,62,100,288
1,64,100,96
1,67,100,96
1,67,100,96
1,69,100,0
1,71,100,0
1,69,100,0
1,67,100,0
1,69,100,0
1,67,100,0
1,67,100,288
1,67,100,96
1,67,100,0
1,67,100,0
1,67,100,0
1,69,100,0
1,71,100,0
1,62,100,192
1,67,100,0
1,62,100,0
1,67,100,0
1,62,100,0
1,67,100,0
1,62,100,0
1,67,100,0
1,62,100,0
1,67,100,0
1,62,100,0
1,67,100,0
1,69,100,192
1,71,100,0
1,67,100,0
1,69,100,0
1,67,100,0
1,62,100,192
1,70,100,0
1,70,100,0
1,69,100,0
1,67,100,0
1,69,100,0
1,67,100,0
1,59,100,5952
1,59,100,0
1,62,100,0
1,66,100,0
1,67,100,0
1,67,100,96
1,67,100,0
1,67,100,0
1,67,100,0
1,69,100,96
1,67,100,96
1,67,100,0
1,59,100,0
1,62,100,0
1,60,100,0
1,59,100,0
1,59,100,192
1,59,100,0
1,62,100,0
1,66,100,0
1,67,100,96
1,71,100,96
1,69,100,0
1,72,100,0
1,71,100,0
1,71,100,96
1,74,100,0
1,59,100,0
1,59,100,0
1,62,100,0
1,66,100,0
1,67,100,0
1,67,100,192
1,67,100,96
1,62,100,96
1,62,100,0
1,60,100,0
1,59,100,0
1,62,100,0
1,59,100,192
1,62,100,0
1,66,100,0
1,67,100,0
1,62,100,0
1,71,100,192
1,71,100,0
1,69,100,0
1,67,100,96
1,70,100,0
1,69,100,0
1,71,100,0
1,67,100,0
1,67,100,96
1,67,100,0
1,62,100,288
1,62,100,0
1,64,100,0
1,67,100,96
1,67,100,96
1,69,100,96
1,70,100,0
1,69,100,0
1,67,100,96
1,69,100,96
1,67,100,0
1,71,100,96
1,69,100,96
1,67,100,0
1,69,100,96
1,67,100,0
1,67,100,96
1,67,100,0
1,67,100,96
1,71,100,96
1,71,100,96
1,69,100,0
1,71,100,96
1,67,100,96
1,67,100,96
1,69,100,0
1,67,100,0
1,62,100,288
1,64,100,96
1,67,100,96
1,67,100,96
1,69,100,0
1,71,100,0
1,69,100,0
1,67,100,0
1,69,100,0
1,67,100,0
1,67,100,288
1,67,100,96
1,67,100,0
1,67,100,0
1,67,100,0
1,69,100,0
1,71,100,0
1,67,100,192
1,67,100,0
1,67,100,0
1,67,100,0
1,67,100,0
1,67,100,0
1,69,100,192
1,71,100,0
1,67,100,0
1,69,100,0
1,67,100,0
1,62,100,192
1,70,100,0
1,70,100,0
1,69,100,0
1,67,100,0
1,69,100,0
1,67,100,0
1,74,100,11712
1,71,100,96
1,69,100,0
1,67,100,0
1,67,100,384
1,76,100,96
1,72,100,96
1,72,100,96
1,71,100,96
1,69,100,0
1,69,100,192
1,72,100,96
1,72,100,96
1,71,100,96
1,69,100,0
1,67,100,0
1,67,100,96
1,67,100,0
1,67,100,0
1,67,100,0
1,71,100,96
1,67,100,192
1,72,100,96
1,71,100,96
1,67,100,96
1,62,100,192
1,69,100,0
1,67,100,0
1,71,100,0
1,67,100,0
1,67,100,96
1,69,100,0
1,67,100,0
1,62,100,192
1,64,100,96
1,67,100,0
1,67,100,0
1,69,100,96
1,71,100,0
1,69,100,96
1,72,100,0
1,71,100,0
1,67,100,0
1,67,100,96
1,67,100,96
1,67,100,0
1,67,100,0
1,67,100,0
1,69,100,96
1,71,100,0
1,67,100,96
1,67,100,0
1,67,100,0
1,67,100,0
1,67,100,0
1,67,100,0
1,69,100,96
1,71,100,0
1,67,100,0
1,67,100,96
1,71,100,2304
1,69,100,0
1,67,100,0
1,74,100,0
1,71,100,5376
1,69,100,0
1,67,100,0
1,74,100,0
1,67,100,1056
1,67,100,0
1,67,100,96
1,67,100,96
1,67,100,96
1,69,100,96
1,70,100,0
1,69,100,96
1,72,100,96
1,71,100,0
1,67,100,0
2,59,100,103296
2,59,100,100
2,60,100,4
2,59,100,4
2,59,100,100
2,60,100,4
2,59,100,4
2,60,100,4
2,59,100,4
2,59,100,772
2,59,100,100
2,60,100,4
2,59,100,4
2,60,100,4
2,59,100,4
2,60,100,4
2,59,100,4
2,60,100,4
2,59,100,4
2,59,100,772
2,59,100,100
2,60,100,4
2,59,100,4
2,59,100,4
2,60,100,4
2,59,100,4
2,60,100,4
2,59,100,4
3,59,100,29568
3,62,100,0
3,66,100,0
3,67,100,0
3,62,100,0
3,59,100,29568
3,62,100,0
3,66,100,0
3,67,100,0
3,62,100,0
4,43,127,6144
4,43,127,100
4,34,127,4
4,34,127,0
4,36,127,4
4,38,127,4
4,43,127,4
4,43,127,100
4,34,127,4
4,34,127,0
4,36,127,4
4,38,127,4
4,43,127,4
4,43,127,100
4,34,127,4
4,34,127,0
4,36,127,4
4,38,127,4
4,43,127,4
4,43,127,100
4,34,127,4
4,34,127,0
4,36,127,4
4,38,127,4
4,43,127,4
4,43,127,100
4,34,127,4
4,34,127,0
4,36,127,4
4,38,127,4
4,43,127,4
4,43,127,100
4,34,127,4
4,34,127,0
4,36,127,4
4,38,127,4
4,43,127,4
4,43,127,100
4,34,127,4
4,34,127,0
4,36,127,4
4,38,127,4
4,43,127,4
4,43,127,100
4,34,127,4
4,34,127,0
4,36,127,4
4,38,127,4
4,43,127,1828
4,43,127,4
4,43,127,4
4,43,127,4
4,43,127,4
4,40,127,4
4,40,127,4
4,43,127,676
4,43,127,4
4,43,127,4
4,43,127,4
4,43,127,4
4,38,127,4
4,38,127,0
4,40,127,4
4,38,127,4
4,43,127,292
4,43,127,0
4,43,127,4
4,43,127,4
4,43,127,4
4,40,127,4
4,40,127,0
4,43,127,676
4,43,127,0
4,43,127,4
4,43,127,4
4,43,127,4
4,38,127,4
4,38,127,0
4,40,127,4
4,38,127,0
4,43,127,4
4,43,127,484
4,43,127,4
4,43,127,4
4,43,127,4
4,40,127,4
4,40,127,0
4,43,127,676
4,43,127,0
4,43,127,4
4,43,127,4
4,43,127,4
4,38,127,0
4,38,127,0
4,43,127,772
4,43,127,4
4,43,127,4
4,43,127,4
4,45,127,4
4,45,127,0
4,38,127,676
4,38,127,4
4,38,127,4
4,38,127,0
4,38,127,4
4,38,127,4
4,38,127,100
4,47,127,4
4,45,127,4
4,43,127,292
4,43,127,4
4,43,127,4
4,43,127,4
4,43,127,4
4,40,127,4
4,40,127,4
4,43,127,676
4,43,127,4
4,43,127,4
4,43,127,4
4,43,127,4
4,38,127,4
4,38,127,0
4,40,127,4
4,38,127,4
4,43,127,292
4,43,127,0
4,43,127,4
4,43,127,4
4,43,127,4
4,40,127,4
4,40,127,0
4,43,127,676
4,43,127,0
4,43,127,4
4,43,127,4
4,43,127,4
4,38,127,4
4,38,127,0
4,40,127,4
4,38,127,0
4,43,127,4
4,43,127,484
4,43,127,4
4,43,127,4
4,43,127,4
4,40,127,4
4,40,127,0
4,43,127,676
4,43,127,0
4,43,127,4
4,43,127,4
4,43,127,4
4,38,127,0
4,38,127,0
4,40,127,1732
4,43,127,292
4,43,127,0
4,43,127,4
4,43,127,4
4,43,127,4
4,38,127,0
4,38,127,0
4,43,127,1924
4,43,127,100
4,34,127,4
4,34,127,0
4,36,127,4
4,38,127,4
4,43,127,4
4,43,127,100
4,34,127,4
4,34,127,0
4,36,127,4
4,38,127,4
4,43,127,4
4,43,127,100
4,34,127,4
4,34,127,0
4,36,127,4
4,38,127,4
4,43,127,4
4,43,127,100
4,43,127,100
4,39,127,4
4,38,127,4
4,43,127,292
4,43,127,4
4,43,127,4
4,43,127,4
4,43,127,4
4,40,127,4
4,40,127,4
4,43,127,676
4,43,127,4
4,43,127,4
4,43,127,4
4,43,127,4
4,38,127,4
4,38,127,0
4,40,127,4
4,38,127,4
4,43,127,292
4,43,127,0
4,43,127,4
4,43,127,4
4,43,127,4
4,40,127,4
4,40,127,0
4,43,127,676
4,43,127,0
4,43,127,4
4,43,127,4
4,43,127,4
4,38,127,4
4,38,127,0
4,40,127,4
4,38,127,0
4,43,127,4
4,43,127,484
4,43,127,4
4,43,127,4
4,43,127,4
4,40,127,4
4,40,127,0
4,43,127,676
4,43,127,0
4,43,127,4
4,43,127,4
4,43,127,4
4,38,127,0
4,38,127,0
4,43,127,772
4,43,127,4
4,43,127,4
4,43,127,4
4,45,127,4
4,45,127,0
4,38,127,676
4,38,127,4
4,38,127,4
4,38,127,0
4,38,127,4
4,38,127,4
4,38,127,100
4,47,127,4
4,45,127,4
4,43,127,292
4,43,127,4
4,43,127,4
4,43,127,4
4,43,127,4
4,40,127,4
4,40,127,4
4,43,127,676
4,43,127,4
4,43,127,4
4,43,127,4
4,43,127,4
4,38,127,4
4,38,127,0
4,40,127,4
4,38,127,4
4,43,127,292
4,43,127,0
4,43,127,4
4,43,127,4
4,43,127,4
4,40,127,4
4,40,127,0
4,43,127,676
4,43,127,0
4,43,127,4
4,43,127,4
4,43,127,4
4,38,127,4
4,38,127,0
4,40,127,4
4,38,127,0
4,43,127,4
4,43,127,484
4,43,127,4
4,43,127,4
4,43,127,4
4,40,127,4
4,40,127,0
4,43,127,676
4,43,127,0
4,43,127,4
4,43,127,4
4,43,127,4
4,38,127,0
4,38,127,0
4,43,127,772
4,43,127,4
4,43,127,4
4,43,127,4
4,40,127,4
4,40,127,0
4,43,127,1732
4,43,127,1540
4,43,127,100
4,34,127,4
4,34,127,0
4,36,127,4
4,38,127,4
4,43,127,4
4,43,127,100
4,34,127,4
4,34,127,0
4,36,127,4
4,38,127,4
4,43,127,4
4,43,127,100
4,34,127,4
4,34,127,0
4,36,127,4
4,38,127,4
4,43,127,4
4,43,127,100
4,34,127,4
4,34,127,0
4,36,127,4
4,38,127,4
4,43,127,4
4,43,127,100
4,34,127,4
4,34,127,0
4,36,127,4
4,38,127,4
4,43,127,4
4,43,127,100
4,34,127,4
4,34,127,0
4,36,127,4
4,38,127,4
4,43,127,4
4,43,127,100
4,34,127,4
4,34,127,0
4,36,127,4
4,38,127,4
4,43,127,4
4,43,127,100
4,34,127,4
4,34,127,0
4,36,127,4
4,38,127,4
4,40,127,2884
4,40,127,1348
4,39,127,1348
4,42,127,0
4,43,127,0
4,43,127,192
4,43,127,4
4,43,127,4
4,43,127,4
4,40,127,4
4,40,127,0
4,43,127,676
4,43,127,0
4,43,127,4
4,43,127,4
4,43,127,4
4,38,127,0
4,38,127,0
4,43,127,772
4,43,127,4
4,43,127,4
4,43,127,4
4,40,127,4
4,40,127,0
4,43,127,676
4,43,127,0
4,43,127,4
4,43,127,4
4,43,127,4
4,38,127,0
4,38,127,0
4,43,127,772
4,43,127,4
4,43,127,4
4,43,127,4
4,40,127,4
4,40,127,0
4,43,127,676
4,43,127,0
4,43,127,4
4,43,127,4
4,43,127,4
4,38,127,0
4,38,127,0
4,43,127,772
4,43,127,4
4,43,127,4
4,43,127,4
4,40,127,4
4,40,127,0
4,43,127,676
4,43,127,0
4,43,127,4
4,43,127,4
4,43,127,4
4,38,127,0
4,38,127,0
4,43,127,772
4,43,127,4
4,43,127,4
4,43,127,4
4,40,127,4
4,40,127,0
4,43,127,676
4,43,127,0
4,43,127,4
4,43,127,4
4,43,127,4
4,38,127,0
4,38,127,0
4,43,127,388
4,43,127,192
4,43,127,4
4,43,127,4
4,43,127,4
4,40,127,4
4,40,127,0
4,43,127,676
4,43,127,0
4,43,127,4
4,43,127,4
4,43,127,4
4,38,127,0
4,38,127,0
5,67,127,6336
5,70,127,0
5,74,127,0
5,74,127,340
5,70,127,0
5,67,127,0
5,72,127,344
5,67,127,0
5,75,127,0
5,72,127,336
5,69,127,0
5,65,127,0
5,67,127,352
5,70,127,0
5,74,127,0
5,74,127,340
5,70,127,0
5,67,127,0
5,72,127,344
5,67,127,0
5,75,127,0
5,72,127,336
5,69,127,0
5,65,127,0
5,67,127,352
5,70,127,0
5,74,127,0
5,74,127,340
5,70,127,0
5,67,127,0
5,72,127,344
5,67,127,0
5,75,127,0
5,72,127,336
5,69,127,0
5,65,127,0
5,67,127,352
5,70,127,0
5,74,127,0
5,74,127,340
5,70,127,0
5,67,127,0
5,72,127,344
5,67,127,0
5,75,127,0
5,72,127,336
5,69,127,0
5,65,127,0
5,67,127,352
5,70,127,0
5,74,127,0
5,74,127,340
5,70,127,0
5,67,127,0
5,72,127,344
5,67,127,0
5,75,127,0
5,72,127,336
5,69,127,0
5,65,127,0
5,67,127,352
5,70,127,0
5,74,127,0
5,74,127,340
5,70,127,0
5,67,127,0
5,72,127,344
5,67,127,0
5,75,127,0
5,72,127,336
5,69,127,0
5,65,127,0
5,67,127,352
5,70,127,0
5,74,127,0
5,74,127,340
5,70,127,0
5,67,127,0
5,72,127,344
5,67,127,0
5,75,127,0
5,72,127,336
5,69,127,0
5,65,127,0
5,67,127,352
5,70,127,0
5,74,127,0
5,74,127,340
5,70,127,0
5,67,127,0
5,72,127,344
5,67,127,0
5,75,127,0
5,72,127,336
5,69,127,0
5,65,127,0
5,71,127,1888
5,62,127,0
5,67,127,0
5,62,127,336
5,71,127,0
5,67,127,0
5,67,127,344
5,64,127,0
5,71,127,0
5,71,127,328
5,67,127,0
5,64,127,0
5,72,127,328
5,64,127,0
5,67,127,0
5,72,127,332
5,67,127,0
5,64,127,0
5,66,127,332
5,62,127,0
5,69,127,0
5,69,127,336
5,62,127,0
5,66,127,0
5,67,127,336
5,62,127,0
5,71,127,0
5,71,127,336
5,67,127,0
5,62,127,0
5,67,127,328
5,64,127,0
5,71,127,0
5,64,127,328
5,71,127,0
5,67,127,0
5,72,127,336
5,67,127,0
5,64,127,0
5,72,127,328
5,67,127,0
5,64,127,0
5,66,127,320
5,62,127,0
5,69,127,0
5,66,127,336
5,69,127,0
5,62,127,0
5,67,127,344
5,71,127,0
5,62,127,0
5,71,127,336
5,67,127,0
5,62,127,0
5,64,127,336
5,71,127,0
5,67,127,0
5,71,127,336
5,64,127,0
5,67,127,0
5,72,127,336
5,67,127,0
5,64,127,0
5,72,127,328
5,67,127,0
5,64,127,0
5,66,127,336
5,69,127,0
5,62,127,0
5,66,127,344
5,69,127,0
5,62,127,0
5,67,127,336
5,71,127,0
5,62,127,0
5,71,127,336
5,62,127,0
5,67,127,0
5,72,127,336
5,69,127,0
5,64,127,0
5,69,127,336
5,72,127,0
5,64,127,0
5,69,127,336
5,62,127,0
5,66,127,0
5,69,127,344
5,62,127,0
5,66,127,0
5,69,127,344
5,62,127,0
5,66,127,0
5,66,127,340
5,69,127,0
5,62,127,0
5,71,127,336
5,62,127,0
5,67,127,0
5,62,127,336
5,71,127,0
5,67,127,0
5,67,127,344
5,64,127,0
5,71,127,0
5,71,127,328
5,67,127,0
5,64,127,0
5,72,127,328
5,64,127,0
5,67,127,0
