track,note,velocity,time
1,37,96,6144
1,37,91,68
1,40,94,44
1,42,88,32
1,37,91,40
1,37,87,40
1,35,86,1924
1,37,97,28
1,37,95,48
1,37,93,76
1,40,96,36
1,42,93,20
1,37,94,44
1,37,92,52
1,44,93,408
1,44,92,40
1,42,87,48
1,44,89,24
1,40,94,424
1,40,81,48
1,42,85,40
1,42,81,36
1,35,88,420
1,37,93,36
1,37,89,68
1,40,87,60
1,42,73,36
1,37,96,56
1,37,86,44
1,37,90,424
1,37,94,40
1,35,94,36
1,35,96,32
1,35,94,412
1,35,89,36
1,42,90,48
1,42,92,48
1,35,91,428
1,37,94,8
1,37,98,48
1,40,98,36
1,42,86,12
1,37,94,56
1,37,96,40
1,44,93,420
1,44,90,56
1,42,88,44
1,44,91,20
1,40,92,408
1,40,85,40
1,42,86,44
1,42,79,44
1,37,91,12888
1,37,92,76
1,40,82,64
1,42,77,36
1,37,93,52
1,37,88,44
1,37,92,424
1,37,95,36
1,35,95,40
1,35,97,24
1,35,90,420
1,35,93,40
1,42,89,44
1,42,89,60
1,35,96,440
1,37,97,12
1,37,95,56
1,40,98,48
1,42,90,20
1,37,99,52
1,37,91,52
1,44,88,416
1,44,89,56
1,42,87,40
1,44,89,16
1,40,93,420
1,40,83,36
1,42,81,28
1,42,81,28
1,35,90,412
1,37,90,20
1,37,89,68
1,40,82,52
1,42,79,40
1,37,93,64
1,37,90,40
1,37,90,420
1,37,96,36
1,35,90,36
1,35,96,28
1,35,94,408
1,35,94,36
1,42,90,32
1,42,93,44
1,35,93,436
1,37,94,16
1,37,93,60
1,40,97,40
1,42,89,20
1,37,96,56
1,37,94,48
1,44,94,408
1,44,87,44
1,42,89,48
1,44,90,24
1,40,91,412
1,40,87,36
1,42,82,36
1,42,85,36
1,35,90,420
1,37,95,24
1,37,92,68
1,40,87,48
1,42,75,52
1,37,93,52
1,37,91,40
1,37,90,416
1,37,94,40
1,35,90,48
1,35,94,32
1,35,89,404
1,35,94,36
1,42,90,36
1,42,89,56
1,35,95,440
1,37,98,24
1,37,93,48
1,40,93,32
1,42,89,16
1,37,99,44
1,37,90,36
1,44,88,404
1,44,92,52
1,42,89,40
1,44,86,16
1,40,94,416
1,40,85,52
1,42,86,32
1,42,81,36
1,35,96,412
1,37,96,20
1,37,94,68
1,40,84,52
1,42,73,44
1,37,90,64
1,37,87,36
1,37,91,420
1,37,95,44
1,35,96,48
1,35,96,28
1,35,91,412
1,35,90,48
1,42,92,48
1,42,90,48
1,35,90,436
1,37,95,12
1,37,96,48
1,40,95,40
1,42,86,16
1,37,94,56
1,37,92,48
1,44,93,420
1,44,93,48
1,42,85,44
1,44,88,16
1,40,94,424
1,40,87,48
1,42,82,36
1,42,84,44
1,37,90,14432
1,37,90,76
1,40,84,52
1,42,76,40
1,37,94,56
1,37,89,32
1,37,92,424
1,37,93,44
1,35,91,40
1,35,94,36
1,35,92,408
1,35,90,40
1,42,89,36
1,42,89,60
1,35,92,436
1,37,96,8
1,37,98,60
1,40,93,36
1,42,88,24
1,37,98,40
1,37,91,44
1,44,90,404
1,44,93,52
1,42,86,48
1,44,88,28
1,40,91,412
1,40,86,48
1,42,84,36
1,42,80,44
1,35,95,424
1,37,95,20
1,37,89,72
1,40,83,64
1,42,78,44
1,37,97,56
1,37,87,36
1,37,91,416
1,37,91,48
1,35,94,40
1,35,96,40
1,35,94,408
1,35,92,40
1,42,90,40
1,42,94,60
1,35,95,428
1,37,95,24
1,37,95,52
1,40,97,48
1,42,92,12
1,37,98,40
1,37,92,44
1,44,89,416
1,44,91,52
1,42,83,48
1,44,88,24
1,40,90,412
1,40,83,48
1,42,86,44
1,42,84,32
1,35,95,408
1,37,93,8
1,37,90,112
1,37,93,288
1,32,89,52
1,35,89,28
1,36,91,24
1,37,92,56
1,37,96,96
1,37,97,288
1,32,86,44
1,35,90,48
1,36,92,20
1,37,91,36
1,37,93,80
1,37,96,280
1,32,86,48
1,35,87,32
1,36,94,20
1,37,90,44
1,37,92,84
1,37,99,280
1,32,91,40
1,35,86,52
1,36,91,24
1,37,88,72
1,37,91,76
1,37,90,272
1,32,86,40
1,35,87,56
1,36,93,24
1,37,92,60
1,37,92,84
1,37,88,276
1,32,91,36
1,35,81,52
1,36,91,16
1,37,87,36
1,37,97,68
1,37,89,260
1,32,86,44
1,35,83,60
1,36,90,24
1,37,92,56
1,37,90,68
1,37,94,272
1,32,91,60
1,35,82,56
1,36,89,20
1,37,93,32
1,37,93,76
1,40,86,48
1,42,75,44
1,37,96,56
1,37,85,28
1,37,94,416
1,37,93,44
1,35,92,36
1,35,97,28
1,35,90,404
1,35,91,36
1,42,88,36
1,42,89,52
1,35,93,436
1,37,98,16
1,37,95,56
1,40,97,36
1,42,88,24
1,37,94,56
1,37,92,48
1,44,88,416
1,44,91,52
1,42,83,40
1,44,86,16
1,40,90,416
1,40,84,40
1,42,83,32
1,42,80,40
1,35,92,408
1,37,93,24
1,37,90,80
1,40,86,48
1,42,79,48
1,37,91,52
1,37,90,32
1,37,94,412
1,37,94,40
1,35,91,44
1,35,93,28
1,35,91,416
1,35,91,40
1,42,92,40
1,42,88,52
1,35,92,436
1,37,99,8
1,37,95,56
1,40,93,32
1,42,89,12
1,37,94,40
1,37,92,40
1,44,89,404
1,44,87,52
1,42,89,52
1,44,88,20
1,40,93,424
1,40,84,48
1,42,81,36
1,42,79,32
1,35,95,404
1,37,91,12
1,37,91,104
1,37,98,280
1,32,91,56
1,35,91,36
1,36,92,12
1,37,94,48
1,37,96,104
1,37,95,280
1,32,91,56
1,35,90,44
1,36,88,12
1,37,92,36
1,37,94,76
1,37,95,292
1,32,87,44
1,35,89,44
1,36,88,8
1,37,96,52
1,37,90,84
1,37,96,280
1,32,86,40
1,35,87,48
1,36,94,20
1,37,92,68
1,37,90,80
1,37,92,260
1,32,87,40
1,35,85,44
1,36,91,12
1,37,92,52
1,37,91,80
1,37,91,284
1,32,89,32
1,35,84,64
1,36,88,16
1,37,90,44
1,37,97,56
1,37,92,272
1,32,90,40
1,35,89,48
1,36,88,12
1,37,94,48
1,37,91,64
1,37,91,280
1,32,87,68
1,35,86,56
1,36,90,12
1,37,91,28
1,37,94,108
1,37,95,284
1,32,90,44
1,35,88,32
1,36,89,12
1,37,96,44
1,37,96,88
1,37,93,292
1,32,91,48
1,35,86,36
1,36,89,16
1,37,89,32
1,37,91,80
1,37,90,284
1,32,90,40
1,35,89,32
1,36,89,16
1,37,94,52
1,37,61,88
1,37,55,76
1,37,66,80
1,37,49,72
1,37,45,96
1,37,33,96
2,61,107,6332
2,68,100,8
2,66,97,12
2,68,93,12
2,66,97,20
2,68,89,20
2,68,86,1312
2,61,107,104
2,68,100,16
2,66,99,12
2,68,97,20
2,66,99,4
2,68,84,12
2,66,99,7416
2,68,96,36
2,68,105,36
2,61,109,40
2,61,109,56
2,68,104,40
2,68,104,40
2,61,107,40
2,61,94,32
2,68,106,140
2,68,102,36
2,66,105,36
2,66,106,60
2,66,106,56
2,65,99,32
2,66,100,12
2,65,93,8
2,63,87,24
2,61,77,24
2,56,98,40
2,65,105,56
2,61,105,44
2,61,107,72
2,65,103,72
2,61,104,20
2,61,106,64
2,63,104,412
2,63,102,36
2,61,103,32
2,60,101,28
2,58,87,16
2,56,80,12
2,68,105,268
2,68,96,52
2,68,87,56
2,68,103,44
2,68,103,60
2,73,103,56
2,68,98,28
2,68,103,96
2,68,97,48
2,70,101,20
2,70,103,52
2,70,101,64
2,70,98,52
2,69,99,48
2,66,95,128
2,68,98,64
2,68,97,56
2,66,102,32
2,65,96,12
2,68,101,48
2,68,98,52
2,66,98,24
2,65,93,24
2,65,95,48
2,61,86,20
2,56,109,124
2,56,109,92
2,56,106,56
2,64,106,24
2,61,97,20
2,68,105,96
2,66,105,48
2,66,107,36
2,64,102,28
2,61,104,16
2,61,111,208
2,64,105,40
2,64,106,44
2,64,105,40
2,64,109,36
2,66,107,24
2,66,102,8
2,64,109,260
2,66,107,48
2,66,104,44
2,66,106,32
2,64,105,60
2,64,102,36
2,68,106,44
2,66,104,16
2,66,106,60
2,64,102,28
2,61,105,12
2,61,107,248
2,64,105,40
2,64,104,32
2,64,105,52
2,64,104,36
2,63,93,48
2,63,99,40
2,59,105,168
2,63,99,12
2,61,95,16
2,68,105,732
2,66,105,48
2,66,107,44
2,64,102,32
2,61,104,4
2,61,111,224
2,64,105,36
2,64,106,48
2,64,105,44
2,64,109,32
2,66,107,16
2,66,102,20
2,64,109,264
2,66,107,40
2,66,104,44
2,66,106,36
2,64,105,60
2,64,102,32
2,68,106,44
2,66,104,28
2,66,106,52
2,64,102,32
2,61,105,8
2,61,107,248
2,64,105,36
2,64,104,44
2,64,105,44
2,64,104,36
2,63,93,48
2,63,99,48
2,59,105,160
2,63,99,12
2,61,102,16
2,61,111,13788
2,64,106,20
2,66,99,28
2,68,105,20
2,61,109,28
2,61,109,64
2,68,104,40
2,68,97,32
2,68,104,52
2,61,107,36
2,61,94,32
2,68,106,96
2,68,102,44
2,66,105,40
2,66,106,52
2,66,106,52
2,64,99,28
2,66,103,12
2,64,89,20
2,63,89,20
2,61,91,28
2,56,109,36
2,64,105,60
2,61,105,44
2,61,107,76
2,56,89,36
2,64,103,28
2,61,104,36
2,61,106,56
2,63,104,344
2,63,102,48
2,61,103,28
2,60,101,20
2,58,90,28
2,56,80,28
2,68,105,360
2,68,103,52
2,68,104,56
2,68,103,40
2,68,103,44
2,73,104,48
2,68,98,28
2,68,103,96
2,68,97,52
2,69,101,16
2,69,103,60
2,69,101,56
2,68,98,56
2,66,99,24
2,64,95,236
2,68,98,60
2,68,97,56
2,66,102,36
2,64,96,16
2,68,101,24
2,68,98,64
2,66,98,20
2,64,93,16
2,64,95,52
2,61,86,8
2,56,109,132
2,56,109,92
2,56,106,48
2,64,106,36
2,61,97,8
2,68,105,76
2,66,105,44
2,66,107,48
2,64,102,28
2,61,104,12
2,61,111,232
2,64,105,44
2,64,106,40
2,64,105,48
2,64,109,32
2,66,107,20
2,66,102,16
2,64,109,260
2,66,107,48
2,66,104,40
2,66,106,36
2,64,105,56
2,64,102,36
2,68,106,40
2,66,104,20
2,66,106,56
2,64,102,32
2,61,105,16
2,61,107,220
2,64,105,36
2,64,104,36
2,64,105,52
2,64,104,40
2,63,93,36
2,63,99,56
2,59,105,160
2,63,99,8
2,61,102,24
2,68,105,616
2,66,105,44
2,66,107,40
2,64,102,32
2,61,104,12
2,61,111,212
2,64,105,44
2,64,106,44
2,64,105,40
2,64,109,32
2,66,107,24
2,66,102,16
2,64,109,256
2,66,107,44
2,66,104,52
2,66,106,32
2,64,105,60
2,64,102,36
2,68,106,40
2,66,104,28
2,66,106,44
2,64,102,36
2,61,105,8
2,61,107,212
2,64,105,40
2,64,104,40
2,64,105,48
2,64,104,40
2,63,93,36
2,63,99,48
2,59,105,164
2,63,99,12
2,61,102,12
2,68,91,6144
2,66,85,12
2,64,79,16
2,61,73,12
2,68,91,5588
2,66,85,12
2,64,79,8
2,61,73,20
2,68,105,20
2,66,105,44
2,66,107,44
2,64,102,32
2,61,104,8
2,61,111,208
2,64,105,36
2,64,106,52
2,64,105,36
2,64,109,32
2,66,107,20
2,66,102,16
2,64,109,256
2,66,107,48
2,66,104,44
2,66,106,32
2,64,105,64
2,64,102,32
2,68,106,44
2,66,104,20
2,66,106,52
2,64,102,36
2,61,105,12
2,61,107,200
2,64,105,40
2,64,104,44
2,64,105,48
2,64,104,40
2,63,93,40
2,63,99,44
2,59,105,156
2,63,99,16
2,61,102,16
2,68,105,680
2,66,105,44
2,66,107,44
2,64,102,28
2,61,104,12
2,61,111,212
2,64,105,36
2,64,106,48
2,64,105,36
2,64,109,40
2,66,107,20
2,66,102,16
2,64,109,256
2,66,107,44
2,66,104,44
2,66,106,32
2,64,105,56
2,64,102,44
2,68,106,48
2,66,104,16
2,66,106,56
2,64,102,32
2,61,105,12
2,61,107,224
2,64,105,32
2,64,104,40
2,64,105,48
2,64,104,40
2,63,93,48
2,63,99,44
2,59,105,160
2,63,99,12
2,61,102,16
2,68,104,6740
2,66,106,16
2,66,106,40
2,64,103,32
2,61,104,16
2,68,103,2264
2,66,106,8
2,66,106,44
2,64,103,32
2,61,104,12
3,56,120,29756
3,56,120,88
3,56,117,56
3,64,117,32
3,61,108,8
3,69,118,28136
3,71,117,8
3,73,117,12
3,71,114,8
3,69,116,16
3,66,107,24
3,56,120,8372
3,56,120,80
3,56,117,52
3,64,117,32
3,61,108,12
3,68,122,10444
3,71,124,28
3,73,122,28
3,73,120,80
3,66,122,44
3,66,116,52
3,64,123,56
3,61,120,12
3,68,123,12936
3,71,123,36
3,73,123,36
3,73,123,52
3,73,122,52
3,73,120,56
3,68,122,1200
3,71,123,44
3,73,123,24
3,73,123,72
3,76,123,32
3,75,117,24
3,75,113,52
3,73,117,16
3,73,117,44
3,71,103,28
3,68,92,16
3,68,123,860
3,71,123,28
3,73,123,36
3,73,123,60
3,73,122,44
3,73,120,56
3,68,122,1204
3,71,123,48
3,73,123,28
3,73,123,68
3,66,122,24
3,66,120,48
3,64,120,52
3,61,117,8
4,49,112,48568
4,49,110,72
4,49,110,56
4,49,109,40
4,49,112,5476
4,49,110,68
4,49,110,52
4,49,109,48
5,44,103,5564
5,44,109,48
5,47,112,64
5,49,108,52
5,49,106,76
5,44,107,24024
5,44,104,60
5,47,111,56
5,49,107,48
5,49,110,72
5,44,108,5600
5,44,109,48
5,47,110,60
5,49,104,48
5,49,107,76
5,44,108,31704
5,44,105,36
5,47,106,60
5,49,105,56
5,49,111,72
5,44,102,5596
5,44,103,36
5,47,110,56
5,49,102,60
5,49,109,60
6,44,108,5560
6,44,105,52
6,47,112,44
6,49,108,40
6,49,110,84
6,44,102,24028
6,44,105,48
6,47,112,60
6,49,107,48
6,49,107,72
6,44,104,5596
6,44,105,48
6,47,106,64
6,49,106,40
6,49,107,68
6,44,107,31720
6,44,105,36
6,47,110,52
6,49,107,52
6,49,106,64
6,44,104,5596
6,44,108,56
6,47,108,64
6,49,107,52
6,49,106,76
7,73,90,4604
7,73,90,11904
8,73,97,0
8,73,98,8
8,73,97,8
8,76,94,8
8,73,92,8
8,76,96,8
8,73,97,8
8,73,96,8
8,73,94,8
8,73,96,8
8,73,94,8
8,78,96,8
8,73,94,8
8,78,95,8
8,73,90,8
8,76,90,8
8,73,99,8
8,73,93,8
8,73,92,8
8,76,93,8
8,73,92,8
8,76,94,8
8,73,98,8
8,73,93,8
8,71,98,8
8,71,98,8
8,71,91,8
8,71,96,8
8,97,78,6164
8,97,73,44
8,97,81,44
8,97,78,44
8,97,74,44
8,97,77,44
8,92,77,1188
8,93,77,60
8,95,81,60
8,87,78,48
8,87,76,36
8,87,75,64
8,88,80,32
8,90,69,56
8,97,76,192
8,97,78,28
8,97,76,40
8,97,73,28
8,97,81,40
8,97,77,32
8,92,81,1160
8,93,75,60
8,95,80,60
8,87,80,48
8,87,75,36
8,87,78,64
8,92,81,32
8,90,69,56
8,73,100,25120
8,73,94,8
8,73,93,8
8,76,99,8
8,73,98,8
8,76,96,8
8,73,97,8
8,73,90,8
8,73,100,8
8,73,94,8
8,73,99,8
8,78,92,8
8,73,96,8
8,78,93,8
8,73,92,8
8,76,87,8
8,73,95,8
8,73,94,8
8,73,93,8
8,76,97,8
8,73,93,8
8,76,93,8
8,73,98,8
8,73,95,8
8,73,93,8
8,73,99,1352
8,73,93,8
8,73,93,8
8,76,96,8
8,73,94,8
8,76,96,8
8,73,93,8
8,73,94,8
8,73,94,8
8,73,95,8
8,73,98,8
8,78,93,8
8,73,93,8
8,78,93,8
8,73,94,8
8,76,90,8
8,73,96,8
8,73,94,8
8,73,92,8
8,76,93,8
8,73,97,8
8,76,93,8
8,73,94,8
8,73,92,8
8,73,98,8
8,73,76,39752
8,73,78,32
8,73,81,32
8,73,75,32
8,76,77,32
8,73,76,8
8,76,74,8
8,73,77,20
8,73,73,32
8,73,78,24
8,73,78,36
