track,note,velocity,time
2,35,127,18808
2,35,127,360
2,35,127,360
2,35,127,360
2,35,127,360
2,35,127,360
2,35,127,360
2,35,127,360
2,35,127,360
2,35,127,360
2,35,127,360
2,35,127,360
2,35,127,360
2,35,127,360
2,35,127,360
2,35,127,360
2,35,127,360
2,35,127,360
2,35,127,360
2,35,127,360
2,35,127,360
2,35,127,360
2,35,127,360
2,35,127,360
2,35,127,360
2,35,127,360
2,35,127,360
2,35,127,360
2,35,127,360
2,35,127,360
2,35,127,360
2,35,127,360
2,35,127,360
2,35,127,360
2,35,127,360
2,35,127,360
2,35,127,360
2,35,127,360
2,35,127,360
2,35,127,360
2,35,127,360
2,35,127,360
2,35,127,360
2,35,127,360
2,35,127,360
2,35,127,360
2,35,127,360
2,35,127,360
2,35,127,360
2,35,127,360
2,35,127,360
2,35,127,360
2,35,127,360
2,35,127,360
2,35,127,360
2,35,127,360
2,35,127,360
2,35,127,360
2,35,127,360
2,35,127,360
2,35,127,360
2,35,127,360
2,35,127,360
2,35,127,360
2,35,127,360
2,35,127,1320
2,35,127,168
2,35,127,360
2,35,127,360
2,35,127,360
2,35,127,360
2,35,127,360
2,35,127,360
2,35,127,360
2,35,127,360
2,35,127,360
2,35,127,360
2,35,127,360
2,35,127,360
2,35,127,360
2,35,127,360
2,35,127,360
2,35,127,360
2,35,127,360
2,35,127,360
2,35,127,360
2,35,127,360
2,35,127,360
2,35,127,360
2,35,127,360
2,35,127,360
2,35,127,360
2,35,127,360
2,35,127,360
2,35,127,360
2,35,127,360
2,35,127,360
2,35,127,360
2,35,127,360
2,35,127,360
2,35,127,360
2,35,127,360
2,35,127,360
2,35,127,360
2,35,127,360
2,35,127,360
2,35,127,360
2,35,127,360
2,35,127,360
2,35,127,360
2,35,127,360
2,35,127,360
2,35,127,360
2,35,127,360
2,35,127,360
2,35,127,360
2,35,127,360
2,35,127,360
2,35,127,360
2,35,127,360
2,35,127,360
2,35,127,360
2,35,127,360
2,35,127,360
2,35,127,360
2,35,127,360
2,35,127,360
2,35,127,360
2,35,127,360
2,35,127,360
2,35,127,360
2,35,127,360
2,35,127,360
2,35,127,360
2,35,127,360
2,35,127,360
2,35,127,360
2,35,127,360
2,35,127,360
2,35,127,360
2,35,127,360
2,35,127,360
2,35,127,360
2,35,127,1296
2,35,127,192
2,35,127,360
2,35,127,360
2,35,127,360
2,35,127,360
2,35,127,360
2,35,127,360
2,35,127,360
2,35,127,360
2,35,127,360
2,35,127,360
2,35,127,360
2,35,127,360
2,35,127,360
2,35,127,360
2,35,127,360
2,35,127,360
2,35,127,360
2,35,127,360
2,35,127,360
2,35,127,360
2,35,127,360
2,35,127,360
2,35,127,360
2,35,127,360
2,35,127,360
2,35,127,360
2,35,127,360
2,35,127,360
2,35,127,360
2,35,127,360
2,35,127,360
2,35,127,360
2,35,127,360
2,35,127,360
2,35,127,360
2,35,127,360
2,35,127,360
2,35,127,360
2,35,127,360
2,35,127,360
2,35,127,360
2,35,127,360
2,35,127,360
2,35,127,360
2,35,127,360
2,35,127,360
2,35,127,360
2,35,127,360
2,35,127,360
2,35,127,360
2,35,127,360
2,35,127,360
2,35,127,360
2,35,127,360
2,35,127,360
2,35,127,360
2,35,127,360
2,35,127,360
2,35,127,360
2,35,127,360
2,35,127,360
2,35,127,360
2,35,127,360
2,35,127,360
2,35,127,12264
2,35,127,360
2,35,127,360
2,35,127,360
2,35,127,360
2,35,127,360
2,35,127,360
2,35,127,360
2,35,127,360
2,35,127,360
2,35,127,360
2,35,127,360
2,35,127,360
2,35,127,360
2,35,127,360
2,35,127,360
2,35,127,360
2,35,127,360
2,35,127,360
2,35,127,360
2,35,127,360
2,35,127,360
2,35,127,360
2,35,127,360
2,35,127,360
2,35,127,360
2,35,127,360
2,35,127,360
2,35,127,360
2,35,127,360
2,35,127,360
2,35,127,360
2,35,127,360
2,35,127,360
2,35,127,360
2,35,127,360
2,35,127,360
2,35,127,360
2,35,127,360
2,35,127,360
2,35,127,360
2,35,127,360
2,35,127,360
2,35,127,360
2,35,127,360
2,35,127,360
2,35,127,360
2,35,127,360
2,35,127,360
2,35,127,360
2,35,127,360
2,35,127,360
2,35,127,360
2,35,127,360
2,35,127,360
2,35,127,360
2,35,127,360
2,35,127,360
2,35,127,360
2,35,127,360
2,35,127,1896
2,35,127,360
2,35,127,360
2,35,127,360
2,35,127,360
2,35,127,360
2,35,127,360
2,35,127,360
2,35,127,360
2,35,127,360
2,35,127,360
2,35,127,360
2,35,127,360
2,35,127,360
2,35,127,360
2,35,127,360
2,35,127,360
2,35,127,360
2,35,127,360
2,35,127,360
2,35,127,360
2,35,127,360
2,35,127,360
2,35,127,360
2,35,127,360
2,35,127,360
2,35,127,360
2,35,127,360
2,35,127,360
2,35,127,1512
2,35,127,360
2,35,127,360
2,35,127,360
2,35,127,360
2,35,127,360
2,35,127,360
2,35,127,360
2,35,127,360
2,35,127,360
2,35,127,360
2,35,127,360
2,35,127,360
2,35,127,360
2,35,127,360
2,35,127,360
2,35,127,360
2,35,127,360
2,35,127,360
2,35,127,360
2,35,127,360
2,35,127,360
2,35,127,360
2,35,127,360
2,35,127,360
2,35,127,360
2,35,127,360
2,35,127,360
2,35,127,360
2,35,127,360
2,35,127,360
2,35,127,360
2,35,127,360
2,35,127,360
2,35,127,360
2,35,127,360
2,35,127,360
2,35,127,360
2,35,127,360
2,35,127,360
2,35,127,360
2,35,127,360
2,35,127,360
2,35,127,360
2,35,127,360
2,35,127,360
2,35,127,360
2,35,127,360
2,35,127,360
2,35,127,360
2,35,127,360
2,35,127,360
2,35,127,360
2,35,127,360
2,35,127,360
2,35,127,360
2,35,127,360
2,35,127,360
2,35,127,360
2,35,127,360
2,35,127,360
2,35,127,360
2,35,127,360
2,35,127,360
2,35,127,360
2,35,127,360
2,35,127,360
2,35,127,360
2,35,127,360
2,35,127,360
2,35,127,360
2,35,127,360
2,35,127,360
2,35,127,360
2,35,127,360
2,35,127,360
2,35,127,360
2,35,127,360
2,35,127,360
2,35,127,360
2,35,127,360
2,35,127,360
2,35,127,360
2,35,127,360
2,35,127,360
2,35,127,360
2,35,127,360
2,35,127,360
2,35,127,360
2,35,127,360
2,35,127,360
2,35,127,360
2,35,127,360
2,35,127,360
2,35,127,360
2,35,127,360
2,35,127,360
3,27,85,18804
3,27,85,360
3,27,85,360
3,27,85,360
3,27,85,360
3,27,85,360
3,27,85,360
3,27,85,360
3,27,85,360
3,27,85,360
3,27,85,360
3,27,85,360
3,27,85,360
3,27,85,360
3,27,85,360
3,27,85,360
3,27,85,360
3,27,85,360
3,27,85,360
3,27,85,360
3,27,85,360
3,27,85,360
3,27,85,360
3,27,85,360
3,27,85,360
3,27,85,360
3,27,85,360
3,27,85,360
3,27,85,360
3,27,85,360
3,27,85,360
3,27,85,360
3,27,85,360
3,27,85,360
3,27,85,360
3,27,85,360
3,27,85,360
3,27,85,360
3,27,85,360
3,27,85,360
3,27,85,360
3,27,85,360
3,27,85,360
3,27,85,360
3,27,85,360
3,27,85,360
3,27,85,360
3,27,85,360
3,27,85,360
3,27,85,360
3,27,85,360
3,27,85,360
3,27,85,360
3,27,85,360
3,27,85,360
3,27,85,360
3,27,85,360
3,27,85,360
3,27,85,360
3,27,85,360
3,27,85,360
3,27,85,360
3,27,85,360
3,27,85,360
3,27,85,1896
3,27,85,360
3,27,85,360
3,27,85,360
3,27,85,360
3,27,85,360
3,27,85,360
3,27,85,360
3,27,85,360
3,27,85,360
3,27,85,360
3,27,85,360
3,27,85,360
3,27,85,360
3,27,85,360
3,27,85,360
3,27,85,360
3,27,85,360
3,27,85,360
3,27,85,360
3,27,85,360
3,27,85,360
3,27,85,360
3,27,85,360
3,27,85,360
3,27,85,360
3,27,85,360
3,27,85,360
3,27,85,360
3,27,85,360
3,27,85,360
3,27,85,360
3,27,85,360
3,27,85,360
3,27,85,360
3,27,85,360
3,27,85,360
3,27,85,360
3,27,85,360
3,27,85,360
3,27,85,360
3,27,85,360
3,27,85,360
3,27,85,360
3,27,85,360
3,27,85,360
3,27,85,360
3,27,85,360
3,27,85,360
3,27,85,360
3,27,85,360
3,27,85,360
3,27,85,360
3,27,85,360
3,27,85,360
3,27,85,360
3,27,85,360
3,27,85,360
3,27,85,360
3,27,85,360
3,27,85,360
3,27,85,360
3,27,85,360
3,27,85,360
3,27,85,360
3,27,85,360
3,27,85,360
3,27,85,360
3,27,85,360
3,27,85,360
3,27,85,360
3,27,85,360
3,27,85,360
3,27,85,360
3,27,85,360
3,27,85,360
3,27,85,1896
3,27,85,360
3,27,85,360
3,27,85,360
3,27,85,360
3,27,85,360
3,27,85,360
3,27,85,360
3,27,85,360
3,27,85,360
3,27,85,360
3,27,85,360
3,27,85,360
3,27,85,360
3,27,85,360
3,27,85,360
3,27,85,360
3,27,85,360
3,27,85,360
3,27,85,360
3,27,85,360
3,27,85,360
3,27,85,360
3,27,85,360
3,27,85,360
3,27,85,360
3,27,85,360
3,27,85,360
3,27,85,360
3,27,85,360
3,27,85,360
3,27,85,360
3,27,85,360
3,27,85,360
3,27,85,360
3,27,85,360
3,27,85,360
3,27,85,360
3,27,85,360
3,27,85,360
3,27,85,360
3,27,85,360
3,27,85,360
3,27,85,360
3,27,85,360
3,27,85,360
3,27,85,360
3,27,85,360
3,27,85,360
3,27,85,360
3,27,85,360
3,27,85,360
3,27,85,360
3,27,85,360
3,27,85,360
3,27,85,360
3,27,85,360
3,27,85,360
3,27,85,360
3,27,85,360
3,27,85,360
3,27,85,360
3,27,85,360
3,27,85,360
3,27,85,360
3,27,85,12264
3,27,85,360
3,27,85,360
3,27,85,360
3,27,85,360
3,27,85,360
3,27,85,360
3,27,85,360
3,27,85,360
3,27,85,360
3,27,85,360
3,27,85,360
3,27,85,360
3,27,85,360
3,27,85,360
3,27,85,360
3,27,85,360
3,27,85,360
3,27,85,360
3,27,85,360
3,27,85,360
3,27,85,360
3,27,85,360
3,27,85,360
3,27,85,360
3,27,85,360
3,27,85,360
3,27,85,360
3,27,85,360
3,27,85,360
3,27,85,360
3,27,85,360
3,27,85,360
3,27,85,360
3,27,85,360
3,27,85,360
3,27,85,360
3,27,85,360
3,27,85,360
3,27,85,360
3,27,85,360
3,27,85,360
3,27,85,360
3,27,85,360
3,27,85,360
3,27,85,360
3,27,85,360
3,27,85,360
3,27,85,360
3,27,85,360
3,27,85,360
3,27,85,360
3,27,85,360
3,27,85,360
3,27,85,360
3,27,85,360
3,27,85,360
3,27,85,360
3,27,85,360
3,27,85,360
3,27,85,1896
3,27,85,360
3,27,85,360
3,27,85,360
3,27,85,360
3,27,85,360
3,27,85,360
3,27,85,360
3,27,85,360
3,27,85,360
3,27,85,360
3,27,85,360
3,27,85,360
3,27,85,360
3,27,85,360
3,27,85,360
3,27,85,360
3,27,85,360
3,27,85,360
3,27,85,360
3,27,85,360
3,27,85,360
3,27,85,360
3,27,85,360
3,27,85,360
3,27,85,360
3,27,85,360
3,27,85,360
3,27,85,1896
3,27,85,360
3,27,85,360
3,27,85,360
3,27,85,360
3,27,85,360
3,27,85,360
3,27,85,360
3,27,85,360
3,27,85,360
3,27,85,360
3,27,85,360
3,27,85,360
3,27,85,360
3,27,85,360
3,27,85,360
3,27,85,360
3,27,85,360
3,27,85,360
3,27,85,360
3,27,85,360
3,27,85,360
3,27,85,360
3,27,85,360
3,27,85,360
3,27,85,360
3,27,85,360
3,27,85,360
3,27,85,360
3,27,85,360
3,27,85,360
3,27,85,360
3,27,85,360
3,27,85,360
3,27,85,360
3,27,85,360
3,27,85,360
3,27,85,360
3,27,85,360
3,27,85,360
3,27,85,360
3,27,85,360
3,27,85,360
3,27,85,360
3,27,85,360
3,27,85,360
3,27,85,360
3,27,85,360
3,27,85,360
3,27,85,360
3,27,85,360
3,27,85,360
3,27,85,360
3,27,85,360
3,27,85,360
3,27,85,360
3,27,85,360
3,27,85,360
3,27,85,360
3,27,85,360
3,27,85,360
3,27,85,360
3,27,85,360
3,27,85,360
3,27,85,360
3,27,85,360
3,27,85,360
3,27,85,360
3,27,85,360
3,27,85,360
3,27,85,360
3,27,85,360
3,27,85,360
3,27,85,360
3,27,85,360
3,27,85,360
3,27,85,360
3,27,85,360
3,27,85,360
3,27,85,360
3,27,85,360
3,27,85,360
3,27,85,360
3,27,85,360
3,27,85,360
3,27,85,360
3,27,85,360
3,27,85,360
3,27,85,360
3,27,85,360
3,27,85,360
3,27,85,360
3,27,85,360
3,27,85,360
3,27,85,360
3,27,85,360
3,27,85,360
4,42,62,20336
4,42,47,52
4,42,58,221
4,42,46,56
4,42,64,219
4,42,48,55
4,42,64,221
4,42,47,61
4,42,62,227
4,42,47,52
4,42,58,221
4,42,46,56
4,42,64,219
4,42,48,55
4,42,64,221
4,42,47,61
4,42,62,227
4,42,47,52
4,42,58,221
4,42,46,56
4,42,64,219
4,42,48,55
4,42,64,221
4,42,47,61
4,42,62,227
4,42,47,52
4,42,58,221
4,42,46,56
4,42,64,219
4,42,48,55
4,42,64,221
4,42,47,61
4,42,62,227
4,42,47,52
4,42,58,221
4,42,46,56
4,42,64,219
4,42,48,55
4,42,64,221
4,42,47,61
4,42,62,227
4,42,47,52
4,42,58,221
4,42,46,56
4,42,64,219
4,42,48,55
4,42,64,221
4,42,47,61
4,42,62,227
4,42,47,52
4,42,58,221
4,42,46,56
4,42,64,219
4,42,48,55
4,42,64,221
4,42,47,61
4,42,62,227
4,42,47,52
4,42,58,221
4,42,46,56
4,42,64,219
4,42,48,55
4,42,64,221
4,42,47,61
4,42,62,227
4,42,47,52
4,42,58,221
4,42,46,56
4,42,64,219
4,42,48,55
4,42,64,221
4,42,47,61
4,42,62,227
4,42,47,52
4,42,58,221
4,42,46,56
4,42,64,219
4,42,48,55
4,42,64,221
4,42,47,61
4,42,62,227
4,42,47,52
4,42,58,221
4,42,46,56
4,42,64,219
4,42,48,55
4,42,64,221
4,42,47,61
4,42,62,227
4,42,47,52
4,42,58,221
4,42,46,56
4,42,64,219
4,42,48,55
4,42,64,221
4,42,47,61
4,42,62,227
4,42,47,52
4,42,58,221
4,42,46,56
4,42,64,219
4,42,48,55
4,42,64,221
4,42,47,61
4,42,62,227
4,42,47,52
4,42,58,221
4,42,46,56
4,42,64,219
4,42,48,55
4,42,64,221
4,42,47,61
4,42,62,227
4,42,47,52
4,42,58,221
4,42,46,56
4,42,64,219
4,42,48,55
4,42,64,221
4,42,47,61
4,42,62,1763
4,42,47,52
4,42,58,221
4,42,46,56
4,42,64,219
4,42,48,55
4,42,64,221
4,42,47,61
4,42,62,227
4,42,47,52
4,42,58,221
4,42,46,56
4,42,64,219
4,42,48,55
4,42,64,221
4,42,47,61
4,42,62,227
4,42,47,52
4,42,58,221
4,42,46,56
4,42,64,219
4,42,48,55
4,42,64,221
4,42,47,61
4,42,62,227
4,42,47,52
4,42,58,221
4,42,46,56
4,42,64,219
4,42,48,55
4,42,64,221
4,42,47,61
4,42,62,227
4,42,47,52
4,42,58,221
4,42,46,56
4,42,64,219
4,42,48,55
4,42,64,221
4,42,47,61
4,42,62,227
4,42,47,52
4,42,58,221
4,42,46,56
4,42,64,219
4,42,48,55
4,42,64,221
4,42,47,61
4,42,62,227
4,42,47,52
4,42,58,221
4,42,46,56
4,42,64,219
4,42,48,55
4,42,64,221
4,42,47,61
4,42,62,227
4,42,47,52
4,42,58,221
4,42,46,56
4,42,64,219
4,42,48,55
4,42,64,221
4,42,47,61
4,42,62,227
4,42,47,52
4,42,58,221
4,42,46,56
4,42,64,219
4,42,48,55
4,42,64,221
4,42,47,61
4,42,62,227
4,42,47,52
4,42,58,221
4,42,46,56
4,42,64,219
4,42,48,55
4,42,64,221
4,42,47,61
4,42,62,227
4,42,47,52
4,42,58,221
4,42,46,56
4,42,64,219
4,42,48,55
4,42,64,221
4,42,47,61
4,42,62,227
4,42,47,52
4,42,58,221
4,42,46,56
4,42,64,219
4,42,48,55
4,42,64,221
