track,note,velocity,time
0,86,13,1822
0,36,110,406
0,46,60,0
0,77,60,0
0,54,74,2
0,69,72,0
0,77,50,74
0,54,50,2
0,46,56,74
0,63,57,0
0,77,45,0
0,54,82,2
0,69,62,0
0,77,40,74
0,54,46,2
0,42,42,42
0,38,108,12
0,42,80,0
0,77,59,0
0,39,94,2
0,54,74,0
0,77,29,74
0,54,50,2
0,36,104,74
0,46,50,0
0,63,59,0
0,77,52,0
0,54,82,2
0,69,64,0
0,77,44,74
0,54,46,2
0,36,110,74
0,46,60,0
0,77,60,0
0,54,74,2
0,69,72,0
0,77,50,74
0,54,50,2
0,42,42,10
0,46,68,44
0,63,57,0
0,77,45,0
0,54,82,2
0,77,40,74
0,54,46,2
0,38,108,74
0,42,80,0
0,77,59,0
0,39,94,2
0,54,74,0
0,77,29,74
0,54,50,2
0,36,104,74
0,42,74,0
0,63,56,0
0,77,52,0
0,54,82,2
0,77,44,74
0,54,46,2
0,36,110,74
0,46,60,0
0,77,60,0
0,54,74,2
0,69,72,0
0,77,50,74
0,54,50,2
0,46,56,74
0,63,55,0
0,77,45,0
0,54,82,2
0,69,62,0
0,77,40,74
0,54,46,2
0,42,42,42
0,38,108,12
0,42,80,0
0,77,59,0
0,39,94,2
0,54,74,0
0,77,29,74
0,54,50,2
0,46,50,74
0,63,53,0
0,77,52,0
0,54,82,2
0,69,64,0
0,77,44,74
0,54,46,2
0,36,110,74
0,46,60,0
0,77,60,0
0,54,74,2
0,69,72,0
0,77,50,74
0,54,50,2
0,42,42,10
0,46,68,44
0,63,56,0
0,77,45,0
0,54,82,2
0,77,40,74
0,54,46,2
0,38,108,74
0,42,80,0
0,77,59,0
0,39,94,2
0,54,74,0
0,77,29,74
0,54,50,2
0,42,74,74
0,63,53,0
0,77,52,0
0,54,82,2
0,77,44,74
0,54,46,2
0,36,110,74
0,46,60,0
0,77,60,0
0,54,74,2
0,69,72,0
0,77,50,74
0,54,50,2
0,46,56,74
0,63,52,0
0,77,45,0
0,54,82,2
0,69,62,0
0,77,40,74
0,54,46,2
0,42,42,42
0,38,108,12
0,42,80,0
0,77,59,0
0,39,94,2
0,54,74,0
0,77,29,74
0,54,50,2
0,36,104,74
0,46,50,0
0,63,54,0
0,77,52,0
0,54,82,2
0,69,64,0
0,77,44,74
0,54,46,2
0,36,110,74
0,46,60,0
0,77,60,0
0,54,74,2
0,69,72,0
0,77,50,74
0,54,50,2
0,42,42,10
0,46,68,44
0,63,57,0
0,77,45,0
0,54,82,2
0,77,40,74
0,54,46,2
0,38,108,74
0,42,80,0
0,77,59,0
0,39,94,2
0,54,74,0
0,77,29,74
0,54,50,2
0,42,74,74
0,63,54,0
0,77,52,0
0,54,82,2
0,77,44,74
0,54,46,2
0,36,110,74
0,46,60,0
0,77,60,0
0,54,74,2
0,69,72,0
0,77,50,74
0,54,50,2
0,46,56,74
0,63,56,0
0,77,45,0
0,54,82,2
0,69,62,0
0,77,40,74
0,54,46,2
0,42,42,42
0,38,108,12
0,42,80,0
0,77,59,0
0,39,94,2
0,54,74,0
0,77,29,74
0,54,50,2
0,36,76,74
0,46,50,0
0,63,55,0
0,77,52,0
0,54,82,2
0,69,64,0
0,77,44,74
0,54,46,2
0,36,110,74
0,46,60,0
0,77,60,0
0,54,74,2
0,69,72,0
0,77,50,74
0,54,50,2
0,42,42,10
0,28,87,44
0,46,68,0
0,63,59,0
0,77,45,0
0,54,82,2
0,67,76,4
0,70,82,0
0,77,40,74
0,54,46,2
0,28,102,74
0,38,108,0
0,42,80,0
0,77,59,0
0,39,94,2
0,54,74,0
0,67,74,2
0,70,85,0
0,77,29,74
0,77,52,76
0,77,44,76
0,36,110,76
0,46,60,0
0,77,60,0
0,79,116,0
0,54,74,2
0,69,72,0
0,31,102,2
0,77,50,74
0,54,50,2
0,46,56,2
0,63,57,0
0,77,45,0
0,77,113,0
0,54,82,2
0,69,62,0
0,62,94,6
0,67,96,0
0,70,96,0
0,36,106,2
0,77,40,0
0,54,46,2
0,31,93,2
0,42,42,42
0,38,108,4
0,42,80,0
0,77,59,0
0,79,116,0
0,39,94,2
0,54,74,0
0,31,100,2
0,77,29,74
0,54,50,2
0,36,104,2
0,46,50,0
0,63,59,0
0,77,52,0
0,77,108,0
0,54,82,0
0,69,64,0
0,34,100,2
0,62,98,4
0,67,98,0
0,70,98,0
0,77,44,2
0,82,113,0
0,54,46,2
0,36,110,74
0,46,60,0
0,77,60,0
0,54,74,2
0,69,72,0
0,77,50,40
0,54,50,2
0,34,100,2
0,42,42,10
0,46,68,2
0,63,57,0
0,77,45,0
0,79,111,0
0,54,82,2
0,58,96,6
0,63,96,0
0,67,98,0
0,36,106,24
0,77,40,0
0,54,46,2
0,38,108,74
0,42,80,0
0,77,59,0
0,77,114,0
0,39,94,0
0,54,74,0
0,36,100,2
0,77,29,2
0,79,106,0
0,54,50,2
0,36,104,74
0,42,74,0
0,63,56,0
0,77,52,0
0,54,82,0
0,38,100,2
0,60,94,4
0,65,96,0
0,69,100,0
0,77,44,24
0,54,46,2
0,36,110,74
0,46,60,0
0,77,60,0
0,79,116,0
0,54,74,0
0,69,72,0
0,31,102,2
0,77,50,74
0,54,50,2
0,46,56,2
0,63,55,0
0,77,45,0
0,77,113,0
0,54,82,2
0,69,62,0
0,62,94,6
0,67,96,0
0,70,96,0
0,36,106,2
0,77,40,0
0,54,46,2
0,31,93,2
0,42,42,42
0,38,108,4
0,42,80,0
0,77,59,0
0,79,116,0
0,39,94,2
0,54,74,0
0,31,100,2
0,77,29,74
0,54,50,2
0,36,104,2
0,46,50,0
0,63,53,0
0,77,52,0
0,77,108,0
0,54,82,0
0,69,64,0
0,34,100,2
0,62,98,4
0,67,98,0
0,70,98,0
0,77,44,2
0,82,113,0
0,54,46,2
0,36,110,74
0,46,60,0
0,77,60,0
0,54,74,2
0,69,72,0
0,77,50,40
0,54,50,2
0,34,100,2
0,42,42,10
0,46,68,2
0,63,56,0
0,77,45,0
0,79,111,0
0,54,82,2
0,58,96,6
0,63,96,0
0,67,98,0
0,36,106,24
0,77,40,0
0,54,46,2
0,38,108,74
0,42,80,0
0,77,59,0
0,77,114,0
0,39,94,0
0,54,74,0
0,36,100,2
0,77,29,2
0,79,106,0
0,54,50,2
0,42,74,74
0,63,53,0
0,77,52,0
0,54,82,0
0,38,100,2
0,60,94,4
0,65,96,0
0,69,100,0
0,77,44,24
0,54,46,2
0,36,110,74
0,46,60,0
0,77,60,0
0,79,116,0
0,54,74,0
0,69,72,0
0,31,102,2
0,77,50,74
0,54,50,2
0,46,56,2
0,63,57,0
0,77,45,0
0,77,113,0
0,54,82,2
0,69,62,0
0,62,94,6
0,67,96,0
0,70,96,0
0,36,106,2
0,77,40,0
0,54,46,2
0,31,93,2
0,42,42,42
0,38,108,4
0,42,80,0
0,77,59,0
0,79,116,0
0,39,94,2
0,54,74,0
0,31,100,2
0,77,29,74
0,54,50,2
0,36,104,2
0,46,50,0
0,63,59,0
0,77,52,0
0,77,108,0
0,54,82,0
0,69,64,0
0,34,100,2
0,62,98,4
0,67,98,0
0,70,98,0
0,77,44,2
0,82,113,0
0,54,46,2
0,36,110,74
0,46,60,0
0,77,60,0
0,54,74,2
0,69,72,0
0,77,50,40
0,54,50,2
0,34,100,2
0,42,42,10
0,46,68,2
0,63,57,0
0,77,45,0
0,79,111,0
0,54,82,2
0,58,96,6
0,63,96,0
0,67,98,0
0,36,106,24
0,77,40,0
0,54,46,2
0,38,108,74
0,42,80,0
0,77,59,0
0,77,114,0
0,39,94,0
0,54,74,0
0,36,100,2
0,77,29,2
0,79,106,0
0,54,50,2
0,36,104,74
0,42,74,0
0,63,56,0
0,77,52,0
0,54,82,0
0,38,100,2
0,60,94,4
0,65,96,0
0,69,100,0
0,77,44,24
0,54,46,2
0,36,110,74
0,46,60,0
0,77,60,0
0,79,116,0
0,54,74,0
0,69,72,0
0,31,102,2
0,77,50,74
0,54,50,2
0,46,56,2
0,63,55,0
0,77,45,0
0,77,113,0
0,54,82,2
0,69,62,0
0,82,113,0
0,62,94,6
0,67,96,0
0,70,96,0
0,36,106,2
0,77,40,0
0,54,46,2
0,31,100,2
0,42,42,0
0,38,108,12
0,42,80,0
0,77,59,0
0,79,116,0
0,39,94,2
0,54,74,0
0,82,111,0
0,31,100,2
0,77,29,74
0,54,50,2
0,36,104,0
0,46,50,0
0,63,53,0
0,77,52,0
0,77,108,0
0,54,82,0
0,69,64,0
0,84,108,0
0,34,100,2
0,62,98,4
0,67,98,0
0,70,98,0
0,77,44,2
0,82,113,0
0,54,46,2
0,36,110,74
0,46,60,0
0,77,60,0
0,54,74,2
0,69,72,0
0,85,112,0
0,77,50,40
0,54,50,2
0,34,100,2
0,42,42,10
0,46,68,0
0,63,56,0
0,77,45,0
0,79,111,0
0,54,82,2
0,82,107,0
0,58,96,6
0,63,96,0
0,67,98,0
0,36,106,24
0,77,40,0
0,54,46,2
0,60,85,48
0,38,108,2
0,42,80,0
0,60,105,0
0,77,59,0
0,77,114,0
0,39,94,2
0,54,74,0
0,84,109,0
0,33,102,2
0,60,98,2
0,77,29,0
0,79,106,0
0,54,50,2
0,42,74,0
0,63,53,0
0,77,52,0
0,54,82,0
0,82,105,0
0,32,100,2
0,60,94,4
0,65,96,0
0,69,100,0
0,60,102,24
0,77,44,0
0,54,46,2
0,36,110,54
0,46,60,0
0,57,82,0
0,77,60,0
0,79,116,0
0,54,74,0
0,69,72,0
0,31,102,2
0,77,50,74
0,54,50,2
0,46,56,2
0,63,57,0
0,77,45,0
0,77,113,0
0,54,82,2
0,69,62,0
0,62,94,6
0,67,96,0
0,70,96,0
0,36,106,2
0,77,40,0
0,54,46,2
0,31,93,2
0,42,42,42
0,38,108,4
0,42,80,0
0,77,59,0
0,79,116,0
0,39,94,2
0,54,74,0
0,31,100,2
0,77,29,74
0,54,50,2
0,36,104,2
0,46,50,0
0,63,59,0
0,77,52,0
0,77,108,0
0,54,82,0
0,69,64,0
0,34,100,2
0,62,98,4
0,67,98,0
0,70,98,0
0,77,44,2
0,82,113,0
0,54,46,2
0,36,110,74
0,46,60,0
0,77,60,0
0,54,74,2
0,69,72,0
0,77,50,40
0,54,50,2
0,34,100,2
0,42,42,10
0,46,68,2
0,63,57,0
0,77,45,0
0,79,111,0
0,54,82,2
0,58,96,6
0,63,96,0
0,67,98,0
0,36,106,24
0,77,40,0
0,54,46,2
0,38,108,74
0,42,80,0
0,77,59,0
0,77,114,0
0,39,94,0
0,54,74,0
0,36,100,2
0,77,29,2
0,79,106,0
0,54,50,2
0,36,104,74
0,42,74,0
0,63,56,0
0,77,52,0
0,54,82,0
0,38,100,2
0,60,94,4
0,65,96,0
0,69,100,0
0,77,44,24
0,54,46,2
0,36,110,74
0,46,60,0
0,77,60,0
0,79,116,0
0,54,74,0
0,69,72,0
0,31,102,2
0,77,50,74
0,54,50,2
0,46,56,2
0,63,55,0
0,77,45,0
0,77,113,0
0,54,82,2
0,69,62,0
0,62,94,6
0,67,96,0
0,70,96,0
0,36,106,2
0,77,40,0
0,54,46,2
0,31,93,2
0,42,42,42
0,38,108,4
0,42,80,0
0,77,59,0
0,79,116,0
0,39,94,2
0,54,74,0
0,31,100,2
0,77,29,74
0,54,50,2
0,36,104,2
0,46,50,0
0,63,53,0
0,77,52,0
0,77,108,0
0,54,82,0
0,69,64,0
0,34,100,2
0,62,98,4
0,67,98,0
0,70,98,0
0,77,44,2
0,82,113,0
0,54,46,2
0,36,110,74
0,46,60,0
0,77,60,0
0,54,74,2
0,69,72,0
0,77,50,40
0,54,50,2
0,34,100,2
0,42,42,10
0,46,68,2
0,63,56,0
0,77,45,0
0,79,111,0
0,54,82,2
0,58,96,6
0,63,96,0
0,67,98,0
0,36,106,24
0,77,40,0
0,54,46,2
0,38,108,74
0,42,80,0
0,77,59,0
0,77,114,0
0,39,94,0
0,54,74,0
0,36,100,2
0,77,29,2
0,79,106,0
0,54,50,2
0,42,74,74
0,63,53,0
0,77,52,0
0,54,82,0
0,38,100,2
0,60,94,4
0,65,96,0
0,69,100,0
0,77,44,24
0,54,46,2
0,36,110,74
0,46,60,0
0,77,60,0
0,79,116,0
0,54,74,0
0,69,72,0
0,31,102,2
0,77,50,74
0,54,50,2
0,46,56,2
0,63,57,0
0,77,45,0
0,77,113,0
0,54,82,2
0,69,62,0
0,62,94,6
0,67,96,0
0,70,96,0
0,36,106,2
0,77,40,0
0,54,46,2
0,31,93,2
0,42,42,42
0,38,108,4
0,42,80,0
0,77,59,0
0,79,116,0
0,39,94,2
0,54,74,0
0,31,100,2
0,77,29,74
0,54,50,2
0,36,104,2
0,46,50,0
0,63,59,0
0,77,52,0
0,77,108,0
0,54,82,0
0,69,64,0
0,34,100,2
0,62,98,4
0,67,98,0
0,70,98,0
0,77,44,2
0,82,113,0
0,54,46,2
0,36,110,74
0,46,60,0
0,77,60,0
0,54,74,2
0,69,72,0
0,77,50,40
0,54,50,2
0,34,100,2
0,42,42,10
0,46,68,2
0,63,57,0
0,77,45,0
0,79,111,0
0,54,82,2
0,58,96,6
0,63,96,0
0,67,98,0
0,36,106,24
0,77,40,0
0,54,46,2
0,38,108,74
0,42,80,0
0,77,59,0
0,77,114,0
0,39,94,0
0,54,74,0
0,36,100,2
0,77,29,2
0,79,106,0
0,54,50,2
0,36,104,74
0,42,74,0
0,63,56,0
0,77,52,0
0,54,82,0
0,38,100,2
0,60,94,4
0,65,96,0
0,69,100,0
0,77,44,24
0,54,46,2
0,36,110,74
0,46,60,0
0,77,60,0
0,79,114,0
0,54,74,0
0,69,72,0
0,31,102,2
0,77,50,74
0,54,50,2
0,46,56,74
0,63,55,0
0,77,45,0
0,54,82,2
0,69,62,0
0,62,94,6
0,67,96,0
0,70,96,0
0,36,106,20
0,77,40,0
0,79,106,0
0,54,46,2
0,31,100,2
0,42,42,0
0,38,108,12
0,42,80,0
0,77,59,0
0,39,94,2
0,54,74,0
0,31,100,2
0,77,29,74
0,54,50,2
0,36,104,64
0,46,50,0
0,63,53,0
0,77,52,0
0,79,112,0
0,54,82,0
0,69,64,0
0,34,100,2
0,62,98,4
0,67,98,0
0,70,98,0
0,77,44,22
0,54,46,2
0,36,110,2
0,46,60,0
0,77,60,0
0,87,117,0
0,54,74,2
0,69,72,0
0,77,50,40
0,54,50,2
0,34,100,2
0,42,42,10
0,46,68,44
0,63,56,0
0,77,45,0
0,54,82,2
0,58,96,6
0,63,96,0
0,67,98,0
0,36,106,24
0,77,40,0
0,54,46,2
0,38,108,20
0,42,80,0
0,77,59,0
0,86,114,0
0,39,94,0
0,54,74,0
0,33,102,2
0,77,29,74
0,54,50,2
0,42,74,74
0,63,53,0
0,77,52,0
0,54,82,0
0,29,100,2
0,60,94,4
0,65,96,0
0,69,100,0
0,77,44,24
0,54,46,2
0,60,80,42
0,64,80,0
0,67,80,0
0,36,110,20
0,46,60,0
0,77,60,0
0,84,113,0
0,54,74,0
0,69,72,0
0,60,93,6
0,64,99,0
0,67,95,0
0,77,50,74
0,54,50,2
0,46,56,74
0,63,57,0
0,77,45,0
0,54,82,2
0,69,62,0
0,36,106,74
0,77,40,0
0,54,46,2
0,42,42,42
0,38,108,12
0,42,80,0
0,77,59,0
0,39,94,2
0,54,74,0
0,77,29,74
0,54,50,2
0,36,104,2
0,46,50,0
0,63,59,0
0,77,52,0
0,54,82,2
0,69,64,0
0,77,44,0
0,54,46,0
0,57,80,42
0,62,80,0
0,66,80,0
0,36,110,16
0,46,60,0
0,77,60,0
0,86,106,0
0,54,74,2
0,69,72,0
0,57,99,6
0,62,94,0
0,66,99,0
0,77,50,74
0,54,50,2
0,42,42,10
0,46,68,44
0,63,57,0
0,77,45,0
0,54,82,2
0,36,106,74
0,77,40,0
0,54,46,2
0,38,108,74
0,42,80,0
0,77,59,0
0,39,94,2
0,54,74,0
0,77,29,74
0,77,52,2
0,77,44,76
0,55,76,4
