track,note,velocity,time
1,28,99,13226
1,28,87,20
1,28,85,38
1,30,96,132
1,31,92,6
1,31,92,118
1,28,98,42
1,28,91,102
1,30,98,296
1,28,97,10
1,28,96,108
1,26,97,10
1,26,97,108
1,25,96,10
1,25,97,108
1,35,97,10
1,33,97,104
1,35,86,76
1,28,92,80
1,30,92,64
1,33,89,256
1,35,97,32
1,33,97,104
1,35,86,76
1,28,92,80
1,28,92,64
1,30,92,64
1,35,97,6358
1,35,86,52
1,33,97,80
1,33,86,52
1,35,92,80
1,33,83,30
1,35,92,30
1,33,86,1120
1,35,92,80
1,33,83,30
1,35,92,30
1,35,89,256
1,28,97,32
1,28,86,52
1,28,97,80
1,28,92,724
1,30,92,20
1,30,92,96
1,33,92,74
1,33,92,96
1,35,92,74
1,30,92,128
1,28,102,320
1,28,90,20
1,28,88,38
1,30,99,132
1,31,95,6
1,31,95,118
1,28,101,42
1,28,94,102
1,30,101,296
1,28,100,10
1,28,99,108
1,26,100,10
1,26,100,108
1,25,99,10
1,25,100,108
1,35,100,10
1,33,100,104
1,35,89,76
1,28,95,80
1,30,95,64
1,33,92,256
1,35,100,32
1,33,100,104
1,35,89,76
1,28,95,80
1,28,95,64
1,30,95,64
1,28,102,406
1,28,90,20
1,28,88,38
1,30,99,132
1,31,95,6
1,31,95,118
1,28,101,42
1,28,94,102
1,30,101,296
1,28,100,10
1,28,99,108
1,26,100,10
1,26,100,108
1,25,99,10
1,25,100,108
1,35,100,10
1,35,89,62
1,33,100,80
1,35,89,76
1,28,95,80
1,30,95,64
1,33,92,256
1,35,100,32
1,33,100,104
1,35,89,76
1,28,95,80
1,28,95,64
1,30,95,64
1,28,107,406
1,30,87,6
1,30,103,136
1,31,88,6
1,31,101,136
1,28,87,6
1,28,94,136
1,30,102,200
1,28,93,10
1,28,104,130
1,26,96,10
1,26,103,130
1,25,92,10
1,25,102,130
1,35,100,10
1,35,89,70
1,33,100,80
1,33,89,76
1,35,95,80
1,33,95,26
1,35,95,26
1,33,92,234
1,35,100,44
1,35,89,70
1,33,100,80
1,33,89,76
1,35,95,80
1,33,95,26
1,35,95,26
1,28,86,11084
1,30,92,80
1,30,92,96
1,33,92,74
1,33,92,96
1,35,92,74
1,30,92,128
1,28,103,320
1,28,91,20
1,28,89,38
1,30,100,132
1,31,96,6
1,31,96,118
1,28,102,42
1,28,95,102
1,30,102,296
1,28,101,10
1,28,100,108
1,26,101,10
1,26,101,108
1,25,100,10
1,25,101,108
1,35,101,10
1,33,101,104
1,35,90,76
1,28,96,80
1,30,96,64
1,33,93,256
1,35,101,32
1,33,101,104
1,35,90,76
1,28,96,80
1,28,96,64
1,30,96,64
1,28,103,406
1,28,91,20
1,28,89,38
1,30,100,132
1,31,96,6
1,31,96,118
1,28,102,42
1,28,95,102
1,30,102,296
1,28,101,10
1,28,100,108
1,26,101,10
1,26,101,108
1,25,100,10
1,25,101,108
1,35,101,10
1,35,90,62
1,33,101,80
1,35,90,76
1,28,96,80
1,30,96,64
1,33,93,256
1,35,101,32
1,33,101,104
1,35,90,76
1,28,96,80
1,28,96,64
1,30,96,64
1,28,103,406
1,28,91,20
1,28,89,38
1,30,100,132
1,31,96,6
1,31,96,118
1,28,102,42
1,28,95,102
1,30,102,296
1,28,101,10
1,28,100,108
1,26,101,10
1,26,101,108
1,25,100,10
1,25,101,108
1,35,101,10
1,35,90,62
1,33,101,80
1,35,90,76
1,28,96,80
1,30,96,64
1,33,93,256
1,35,101,32
1,33,101,104
1,35,90,76
1,28,96,80
1,28,96,64
1,30,96,64
1,28,108,406
1,30,88,6
1,30,104,136
1,31,89,6
1,31,102,136
1,28,88,6
1,28,95,136
1,30,103,200
1,28,94,10
1,28,105,130
1,26,97,10
1,26,104,130
1,25,93,10
1,25,103,130
1,28,102,12490
1,28,90,20
1,28,88,38
1,30,99,132
1,31,95,6
1,31,95,118
1,28,101,42
1,28,94,102
1,30,101,296
1,28,100,10
1,28,99,108
1,26,100,10
1,26,100,108
1,25,99,10
1,25,100,108
1,35,100,10
1,33,100,104
1,35,89,76
1,28,95,80
1,30,95,64
1,33,92,256
1,35,100,32
1,33,100,104
1,35,89,76
1,28,95,80
1,28,95,64
1,30,95,64
1,28,102,406
1,28,90,20
1,28,88,38
1,30,99,132
1,31,95,6
1,31,95,118
1,28,101,42
1,28,94,102
1,30,103,296
1,28,102,10
1,28,101,108
1,26,102,10
1,26,102,108
1,25,101,10
1,25,102,108
1,35,102,10
1,35,91,62
1,33,102,80
1,35,91,76
1,28,97,80
1,30,97,64
1,33,94,256
1,35,102,32
1,33,102,104
1,35,91,76
1,28,97,80
1,28,97,64
1,30,97,64
1,28,104,406
1,28,92,20
1,28,90,38
1,30,101,132
1,31,97,6
1,31,97,118
1,28,103,42
1,28,96,102
1,30,103,296
1,28,102,10
1,28,101,108
1,26,102,10
1,26,102,108
1,33,101,10
1,35,102,104
2,54,90,890
2,59,90,0
2,62,90,0
2,54,89,334
2,59,90,0
2,62,88,0
2,54,88,332
2,59,91,0
2,62,90,0
2,54,89,334
2,59,89,0
2,62,88,0
2,54,90,340
2,57,91,0
2,61,93,0
2,54,91,336
2,57,91,0
2,61,92,0
2,54,88,332
2,57,89,0
2,61,92,0
2,54,88,334
2,57,89,0
2,61,92,0
2,55,88,336
2,59,89,0
2,64,87,0
2,55,87,332
2,59,90,0
2,64,91,0
2,55,87,334
2,59,91,0
2,64,90,0
2,55,88,342
2,59,90,0
2,64,91,0
2,54,89,344
2,58,90,0
2,61,90,0
2,54,91,334
2,58,89,0
2,61,91,0
2,54,91,344
2,58,88,0
2,61,89,0
2,54,91,344
2,58,90,0
2,61,91,0
2,54,90,344
2,59,90,0
2,62,90,0
2,54,89,334
2,59,90,0
2,62,88,0
2,54,88,332
2,59,91,0
2,62,90,0
2,54,89,334
2,59,89,0
2,62,88,0
2,54,90,340
2,57,91,0
2,61,93,0
2,54,91,336
2,57,91,0
2,61,92,0
2,54,88,332
2,57,89,0
2,61,92,0
2,54,88,334
2,57,89,0
2,61,92,0
2,55,88,336
2,59,89,0
2,64,87,0
2,55,87,332
2,59,90,0
2,64,91,0
2,55,87,334
2,59,91,0
2,64,90,0
2,55,88,342
2,59,90,0
2,64,91,0
2,54,89,344
2,58,90,0
2,61,90,0
2,54,91,334
2,58,89,0
2,61,91,0
2,54,91,344
2,58,88,0
2,61,89,0
2,54,91,344
2,58,90,0
2,61,91,0
2,52,78,344
2,59,78,0
2,64,78,0
2,67,78,0
2,52,77,334
2,59,77,0
2,64,78,0
2,67,76,0
2,52,76,332
2,59,76,0
2,64,79,0
2,67,78,0
2,52,77,334
2,59,77,0
2,64,77,0
2,67,76,0
2,54,78,340
2,61,78,0
2,66,79,0
2,69,81,0
2,54,79,336
2,61,79,0
2,66,79,0
2,69,80,0
2,54,76,332
2,61,76,0
2,66,77,0
2,69,80,0
2,54,76,334
2,61,76,0
2,66,77,0
2,69,80,0
2,59,77,336
2,62,76,0
2,66,75,0
2,59,78,332
2,62,75,0
2,66,79,0
2,59,79,334
2,62,75,0
2,66,78,0
2,59,78,342
2,62,76,0
2,66,79,0
2,47,77,344
2,59,77,0
2,62,78,0
2,66,78,0
2,47,79,334
2,59,79,0
2,62,77,0
2,66,79,0
2,47,79,344
2,59,79,0
2,62,76,0
2,66,77,0
2,47,79,344
2,59,79,0
2,62,78,0
2,66,79,0
2,47,78,344
2,50,78,0
2,54,78,0
2,59,78,0
2,47,76,334
2,50,76,0
2,54,77,0
2,59,78,0
2,47,78,332
2,50,78,0
2,54,76,0
2,59,79,0
2,47,76,334
2,50,76,0
2,54,77,0
2,59,77,0
2,49,78,340
2,54,78,0
2,57,79,0
2,61,81,0
2,49,79,336
2,54,79,0
2,57,79,0
2,61,80,0
2,49,76,332
2,54,76,0
2,57,77,0
2,61,80,0
2,49,76,334
2,54,76,0
2,57,77,0
2,61,80,0
2,52,75,336
2,55,76,0
2,59,77,0
2,64,75,0
2,52,79,332
2,55,75,0
2,59,78,0
2,64,79,0
2,52,78,334
2,55,75,0
2,59,79,0
2,64,78,0
2,52,79,342
2,55,76,0
2,59,78,0
2,64,79,0
2,49,77,344
2,54,77,0
2,58,78,0
2,61,78,0
2,49,79,334
2,54,79,0
2,58,77,0
2,61,79,0
2,49,79,344
2,54,79,0
2,58,76,0
2,61,77,0
2,49,79,344
2,54,79,0
2,58,78,0
2,61,79,0
2,47,78,344
2,59,78,0
2,62,78,0
2,66,78,0
2,47,76,334
2,59,78,0
2,62,77,0
2,66,76,0
2,47,78,332
2,59,79,0
2,62,76,0
2,66,78,0
2,47,76,334
2,59,77,0
2,62,77,0
2,66,76,0
2,54,78,340
2,57,79,0
2,61,81,0
2,66,78,0
2,54,79,336
2,57,79,0
2,61,80,0
2,66,79,0
2,54,76,332
2,57,77,0
2,61,80,0
2,66,76,0
2,54,76,334
2,57,77,0
2,61,80,0
2,66,76,0
2,52,75,336
2,59,77,0
2,64,76,0
2,67,75,0
2,52,79,332
2,59,78,0
2,64,75,0
2,67,79,0
2,52,78,334
2,59,79,0
2,64,75,0
2,67,78,0
2,52,79,342
2,59,78,0
2,64,76,0
2,67,79,0
2,54,77,344
2,58,77,0
2,61,78,0
2,66,78,0
2,54,79,334
2,58,79,0
2,61,77,0
2,66,79,0
2,54,79,344
2,59,79,0
2,62,76,0
2,66,77,0
2,52,89,728
2,59,89,0
2,64,89,0
2,67,89,0
2,52,88,334
2,59,88,0
2,64,89,0
2,67,87,0
2,52,87,332
2,59,87,0
2,64,90,0
2,67,89,0
2,52,88,334
2,59,88,0
2,64,88,0
2,67,87,0
2,54,89,340
2,61,89,0
2,66,90,0
2,69,92,0
2,54,90,336
2,61,90,0
2,66,90,0
2,69,91,0
2,54,87,332
2,61,87,0
2,66,88,0
2,69,91,0
2,54,87,334
2,61,87,0
2,66,88,0
2,69,91,0
2,59,88,336
2,62,87,0
2,66,86,0
2,59,89,332
2,62,86,0
2,66,90,0
2,59,90,334
2,62,86,0
2,66,89,0
2,59,89,342
2,62,87,0
2,66,90,0
2,47,88,344
2,59,88,0
2,62,89,0
2,66,89,0
2,47,90,334
2,59,90,0
2,62,88,0
2,66,90,0
2,47,90,344
2,59,90,0
2,62,87,0
2,66,88,0
2,47,90,344
2,59,90,0
2,62,89,0
2,66,90,0
2,52,89,344
2,59,89,0
2,64,89,0
2,67,89,0
2,52,88,334
2,59,88,0
2,64,89,0
2,67,87,0
2,52,87,332
2,59,87,0
2,64,90,0
2,67,89,0
2,52,88,334
2,59,88,0
2,64,88,0
2,67,87,0
2,54,89,340
2,61,89,0
2,66,90,0
2,69,92,0
2,54,90,336
2,61,90,0
2,66,90,0
2,69,91,0
2,54,87,332
2,61,87,0
2,66,88,0
2,69,91,0
2,54,87,334
2,61,87,0
2,66,88,0
2,69,91,0
2,59,88,336
2,62,87,0
2,66,86,0
2,59,89,332
2,62,86,0
2,66,90,0
2,59,90,334
2,62,86,0
2,66,89,0
2,59,89,342
2,62,87,0
2,66,90,0
2,47,88,344
2,59,88,0
2,62,89,0
2,66,89,0
2,47,90,334
2,59,90,0
2,62,88,0
2,66,90,0
2,47,90,344
2,59,90,0
2,62,87,0
2,66,88,0
2,47,90,344
2,59,90,0
2,62,89,0
2,66,90,0
2,52,73,344
2,59,73,0
2,64,73,0
2,67,73,0
2,52,72,334
2,59,72,0
2,64,73,0
2,67,71,0
2,52,71,332
2,59,71,0
2,64,74,0
2,67,73,0
2,52,72,334
2,59,72,0
2,64,72,0
2,67,71,0
2,54,73,340
2,61,73,0
2,66,74,0
2,69,76,0
2,54,74,336
2,61,74,0
2,66,74,0
2,69,75,0
2,54,71,332
2,61,71,0
2,66,72,0
2,69,75,0
2,85,77,152
2,83,79,2
2,81,78,6
2,79,77,8
2,78,77,10
2,76,77,6
2,74,77,8
2,73,77,0
2,71,77,8
2,69,76,8
2,67,78,8
2,66,79,8
2,64,80,8
2,62,77,6
2,61,76,12
2,59,78,8
2,57,80,6
2,55,79,8
2,54,78,8
2,52,77,8
2,50,76,0
2,59,88,334
2,62,87,0
2,66,86,0
2,59,89,332
2,62,86,0
2,66,90,0
2,59,90,334
2,62,86,0
2,66,89,0
2,59,89,342
2,62,87,0
2,66,90,0
2,47,88,344
2,59,88,0
2,61,89,0
2,66,89,0
2,47,90,334
2,59,90,0
2,61,88,0
2,66,90,0
2,47,90,344
2,59,90,0
2,62,87,0
2,66,88,0
2,47,86,728
2,50,86,0
2,54,86,0
2,59,86,0
2,47,64,54
2,50,64,0
2,54,64,0
2,59,64,0
2,47,84,230
2,50,84,0
2,54,85,0
2,59,86,0
2,47,86,332
2,50,86,0
2,54,84,0
2,59,87,0
2,47,84,334
2,50,84,0
2,54,85,0
2,59,85,0
2,49,86,340
2,54,86,0
2,57,87,0
2,61,89,0
2,49,64,56
2,54,64,0
2,57,64,0
2,61,64,0
2,49,87,232
2,54,87,0
2,57,87,0
2,61,88,0
2,49,84,332
2,54,84,0
2,57,85,0
2,61,88,0
2,49,84,334
2,54,84,0
2,57,85,0
2,61,88,0
2,52,83,336
2,55,84,0
2,59,85,0
2,64,83,0
2,52,64,52
2,55,64,0
2,59,64,0
2,64,64,0
2,52,87,228
2,55,83,0
2,59,86,0
2,64,87,0
2,52,86,334
2,55,83,0
2,59,87,0
2,64,86,0
2,52,87,342
2,55,84,0
2,59,86,0
2,64,87,0
2,49,85,344
2,54,85,0
2,58,86,0
2,61,86,0
2,49,64,54
2,54,64,0
2,58,64,0
2,61,64,0
2,49,87,230
2,54,87,0
2,58,85,0
2,61,87,0
2,49,87,344
2,54,87,0
2,58,84,0
2,61,85,0
2,49,87,344
2,54,87,0
2,58,86,0
2,61,87,0
2,47,86,344
2,59,86,0
2,62,86,0
2,66,86,0
2,47,64,54
2,59,64,0
2,62,64,0
2,66,64,0
2,47,84,230
2,59,86,0
2,62,85,0
2,66,84,0
2,47,86,332
2,59,87,0
2,62,84,0
2,66,86,0
2,47,84,334
2,59,85,0
2,62,85,0
2,66,84,0
2,54,86,340
2,57,87,0
2,61,89,0
2,66,86,0
2,54,64,56
2,57,64,0
2,61,64,0
2,66,64,0
2,54,87,232
2,57,87,0
2,61,88,0
2,66,87,0
2,54,84,332
2,57,85,0
2,61,88,0
2,66,84,0
2,54,84,334
2,57,85,0
2,61,88,0
2,66,84,0
2,52,83,336
2,59,85,0
2,64,84,0
2,67,83,0
2,52,64,52
2,59,64,0
2,64,64,0
2,67,64,0
2,52,87,228
2,59,86,0
2,64,83,0
2,67,87,0
2,52,86,334
2,59,87,0
2,64,83,0
2,67,86,0
2,52,87,342
2,59,86,0
2,64,84,0
2,67,87,0
2,54,85,344
2,58,85,0
2,61,86,0
2,66,86,0
2,54,64,54
2,58,64,0
2,61,64,0
2,66,64,0
2,54,87,230
2,58,87,0
2,61,85,0
2,66,87,0
2,54,87,344
2,59,87,0
2,62,84,0
2,66,85,0
2,52,90,728
2,59,90,0
2,64,90,0
2,67,90,0
2,52,89,334
2,59,89,0
2,64,90,0
2,67,88,0
2,52,88,332
2,59,88,0
2,64,91,0
2,67,90,0
2,52,89,334
2,59,89,0
2,64,89,0
2,67,88,0
2,54,90,340
2,61,90,0
2,66,91,0
2,69,93,0
2,54,91,336
2,61,91,0
2,66,91,0
2,69,92,0
2,54,88,332
2,61,88,0
2,66,89,0
2,69,92,0
2,54,88,334
2,61,88,0
2,66,89,0
2,69,92,0
2,59,89,336
2,62,88,0
2,66,87,0
2,59,90,332
2,62,87,0
2,66,91,0
2,59,91,334
2,62,87,0
2,66,90,0
2,59,90,342
2,62,88,0
2,66,91,0
2,47,89,344
2,59,89,0
2,62,90,0
2,66,90,0
2,47,91,334
2,59,91,0
2,62,89,0
2,66,91,0
2,47,91,344
2,59,91,0
2,62,88,0
2,66,89,0
2,47,91,344
2,59,91,0
2,62,90,0
2,66,91,0
2,52,90,344
2,59,90,0
2,64,90,0
2,67,90,0
