track,note,velocity,time
3,31,127,9776
3,31,0,555
3,57,83,1
3,57,0,948
3,33,121,3
3,33,0,765
3,36,127,3
3,36,0,764
3,31,125,4
3,31,0,764
3,38,127,4
3,38,0,764
3,33,126,4
3,33,0,764
3,36,127,4
3,36,0,764
3,31,125,4
3,31,0,764
3,38,127,4
3,38,0,764
3,33,127,4
3,33,0,764
3,36,126,4
3,36,0,764
3,31,124,4
3,31,0,344
3,31,116,40
3,31,0,47
3,31,113,49
3,31,0,280
3,38,114,8
3,38,0,302
3,38,113,34
3,38,0,17
3,38,117,31
3,38,0,37
3,38,111,59
3,38,0,285
3,33,115,3
3,33,0,358
3,33,115,26
3,33,0,53
3,33,119,43
3,33,0,282
3,36,119,6
3,36,0,314
3,36,113,22
3,36,0,18
3,36,119,30
3,36,0,48
3,36,119,48
3,36,0,272
3,31,123,16
3,31,0,344
3,31,115,40
3,31,0,47
3,31,116,49
3,31,0,280
3,38,112,8
3,38,0,302
3,38,113,34
3,38,0,17
3,38,115,31
3,38,0,37
3,38,116,59
3,38,0,285
3,33,118,3
3,33,0,358
3,33,114,26
3,33,0,53
3,33,118,43
3,33,0,282
3,36,115,6
3,36,0,314
3,36,111,22
3,36,0,18
3,36,116,30
3,36,0,48
3,36,119,48
3,36,0,272
3,28,122,16
3,28,0,381
3,35,122,3
3,35,0,189
3,38,118,3
3,38,0,189
3,31,118,3
3,31,0,573
3,35,88,1
3,35,0,29
3,38,112,3
3,38,0,93
3,28,119,3
3,28,0,573
3,38,122,3
3,38,0,93
3,35,120,3
3,35,0,93
3,31,115,3
3,31,0,573
3,35,93,1
3,35,0,29
3,38,113,3
3,38,0,93
3,28,119,3
3,28,0,669
3,33,113,3
3,33,0,45
3,35,99,3
3,35,0,45
3,36,118,3
3,36,0,659
3,35,117,13
3,35,0,80
3,33,116,16
3,33,0,761
3,29,112,7
3,29,0,78
3,29,112,18
3,29,0,78
3,29,114,18
3,29,0,78
3,29,114,18
3,29,0,78
3,29,118,18
3,29,0,78
3,29,117,18
3,29,0,78
3,29,114,18
3,29,0,78
3,29,112,18
3,29,0,78
3,31,127,18
3,31,0,764
3,38,127,4
3,38,0,764
3,33,127,4
3,33,0,764
3,36,127,4
3,36,0,44
3,31,127,724
3,31,0,764
3,38,127,4
3,38,0,764
3,33,125,4
3,33,0,764
3,36,127,4
3,36,0,764
3,31,123,4
3,31,0,344
3,31,120,40
3,31,0,47
3,31,116,49
3,31,0,280
3,38,112,8
3,38,0,302
3,38,108,34
3,38,0,17
3,38,113,31
3,38,0,37
3,38,110,59
3,38,0,285
3,33,117,3
3,33,0,358
3,33,116,26
3,33,0,53
3,33,116,43
3,33,0,282
3,36,117,6
3,36,0,314
3,36,109,22
3,36,0,18
3,36,115,30
3,36,0,48
3,36,120,48
3,36,0,272
3,31,124,16
3,31,0,344
3,31,113,40
3,31,0,47
3,31,118,49
3,31,0,280
3,38,114,8
3,38,0,302
3,38,108,34
3,38,0,17
3,38,111,31
3,38,0,37
3,38,117,59
3,38,0,285
3,33,113,3
3,33,0,358
3,33,112,26
3,33,0,53
3,33,122,43
3,33,0,282
3,36,117,6
3,36,0,314
3,36,115,22
3,36,0,18
3,36,119,30
3,36,0,48
3,36,114,48
3,36,0,272
3,31,122,16
3,31,0,344
3,31,115,40
3,31,0,47
3,31,115,49
3,31,0,280
3,38,112,8
3,38,0,302
3,38,107,34
3,38,0,17
3,38,112,31
3,38,0,37
3,38,115,59
3,38,0,285
3,33,116,3
3,33,0,358
3,33,112,26
3,33,0,53
3,33,114,43
3,33,0,282
3,36,112,6
3,36,0,314
3,36,110,22
3,36,0,18
3,36,119,30
3,36,0,48
3,36,120,48
3,36,0,272
3,31,121,16
3,31,0,344
3,31,115,40
3,31,0,47
3,31,113,49
3,31,0,280
3,38,119,8
3,38,0,302
3,38,109,34
3,38,0,17
3,38,117,31
3,38,0,37
3,38,111,59
3,38,0,285
3,33,119,3
3,33,0,358
3,33,119,26
3,33,0,53
3,33,115,43
3,33,0,282
3,36,118,6
3,36,0,314
3,36,116,22
3,36,0,18
3,36,117,30
3,36,0,48
3,36,115,48
3,36,0,272
3,31,116,16
3,31,0,765
3,38,115,3
3,38,0,1533
3,31,116,771
3,31,0,1005
4,79,81,6
4,79,0,77
4,86,75,3
4,86,0,189
4,81,77,3
4,81,0,573
4,86,76,3
4,86,0,189
4,81,77,3
4,81,0,573
4,83,74,3
4,83,0,189
4,79,73,3
4,79,0,381
4,84,79,3
4,84,0,381
4,86,75,3
4,86,0,765
4,81,78,3
4,81,0,573
4,86,80,3
4,86,0,189
4,81,80,3
4,81,0,573
4,83,78,3
4,83,0,189
4,79,74,3
4,79,0,5
5,59,120,3692
5,59,0,23
5,59,120,25
5,59,0,36
5,59,127,12
5,59,0,119
5,59,125,25
5,59,0,36
5,59,127,12
5,59,0,119
5,59,127,25
5,59,0,45
5,57,118,3
5,57,0,45
5,55,119,3
5,55,0,135
5,59,124,105
5,59,0,26
5,59,122,22
5,59,0,30
5,59,122,18
5,59,0,81
5,59,119,15
5,59,0,39
5,59,115,9
5,59,0,141
5,59,125,3
5,59,0,38
5,57,120,10
5,57,0,45
5,55,116,3
5,55,0,129
5,59,113,159
5,59,0,32
5,59,120,16
5,59,0,27
5,59,122,21
5,59,0,75
5,59,127,21
5,59,0,30
5,59,126,18
5,59,0,141
5,52,112,3
5,52,0,45
5,55,118,3
5,55,0,141
5,57,119,3
5,57,0,88
5,59,119,8
5,59,0,92
5,52,120,4
5,52,0,45
5,55,119,3
5,55,0,89
5,57,119,7
5,57,0,93
5,59,117,3
5,59,0,141
5,52,118,3
5,52,0,93
5,55,116,3
5,55,0,45
5,57,118,3
5,57,0,103
5,59,122,137
5,59,0,23
5,59,122,25
5,59,0,36
5,59,127,12
5,59,0,119
5,59,122,25
5,59,0,36
5,59,127,12
5,59,0,119
5,59,124,25
5,59,0,45
5,57,123,3
5,57,0,45
5,55,121,3
5,55,0,135
5,59,119,105
5,59,0,26
5,59,125,22
5,59,0,30
5,59,121,18
5,59,0,81
5,59,115,15
5,59,0,39
5,59,119,9
5,59,0,141
5,59,126,3
5,59,0,38
5,57,119,10
5,57,0,45
5,55,114,3
5,55,0,129
5,59,109,159
5,59,0,32
5,59,118,16
5,59,0,27
5,59,127,21
5,59,0,75
5,59,126,21
5,59,0,30
5,59,127,18
5,59,0,141
5,52,112,3
5,52,0,45
5,55,120,3
5,55,0,141
5,57,121,3
5,57,0,88
5,59,123,8
5,59,0,92
5,52,120,4
5,52,0,45
5,55,123,3
5,55,0,89
5,57,115,7
5,57,0,93
5,59,115,3
5,59,0,141
5,52,115,3
5,52,0,93
5,55,121,3
5,55,0,45
5,57,123,3
5,57,0,103
5,62,127,617
5,62,0,89
5,59,127,7
5,59,0,90
5,57,122,6
5,57,0,204
5,62,127,372
5,62,0,93
5,59,127,3
5,59,0,93
5,57,126,3
5,57,0,93
5,55,117,3
5,55,0,232
5,52,124,248
5,52,0,45
5,55,118,3
5,55,0,45
5,57,121,3
5,57,0,45
5,59,127,3
5,59,0,140
5,52,119,4
5,52,0,184
5,55,117,8
5,55,0,153
5,59,115,423
5,59,0,23
5,59,122,25
5,59,0,36
5,59,127,12
5,59,0,119
5,59,125,25
5,59,0,36
5,59,127,12
5,59,0,119
5,59,122,25
5,59,0,45
5,57,124,3
5,57,0,45
5,55,115,3
5,55,0,135
5,59,118,105
5,59,0,26
5,59,120,22
5,59,0,30
5,59,124,18
5,59,0,81
5,59,121,15
5,59,0,39
5,59,119,9
5,59,0,141
5,59,126,3
5,59,0,38
5,57,119,10
5,57,0,45
5,55,113,3
5,55,0,129
5,59,115,159
5,59,0,32
5,59,123,16
5,59,0,27
5,59,123,21
5,59,0,75
5,59,127,21
5,59,0,30
5,59,127,18
5,59,0,141
5,52,109,3
5,52,0,45
5,55,117,3
5,55,0,141
5,57,117,3
5,57,0,88
5,59,124,8
5,59,0,92
5,52,120,4
5,52,0,45
5,55,123,3
5,55,0,89
5,57,116,7
5,57,0,93
5,59,118,3
5,59,0,141
5,52,115,3
5,52,0,93
5,55,122,3
5,55,0,45
5,57,122,3
5,57,0,103
5,55,127,137
5,55,0,24
5,55,123,24
5,55,0,42
5,64,125,6
5,64,0,137
5,62,124,7
5,62,0,45
5,59,127,3
5,59,0,137
5,62,127,7
5,62,0,45
5,59,122,3
5,59,0,45
5,57,127,3
5,57,0,175
5,55,127,65
5,55,0,30
5,55,120,18
5,55,0,45
5,64,127,3
5,64,0,93
5,62,124,3
5,62,0,93
5,59,124,3
5,59,0,141
5,62,124,3
5,62,0,45
5,59,126,3
5,59,0,45
5,57,126,3
5,57,0,118
5,59,122,122
5,59,0,23
5,59,122,25
5,59,0,24
5,59,127,24
5,59,0,93
5,60,124,3
5,60,0,45
5,59,127,3
5,59,0,140
5,60,124,4
5,60,0,45
5,59,123,3
5,59,0,137
5,60,125,7
5,60,0,45
5,59,126,3
5,59,0,129
5,60,126,15
5,60,0,45
5,59,126,3
5,59,0,141
5,60,127,3
5,60,0,45
5,59,126,3
5,59,0,141
5,60,126,3
5,60,0,93
5,59,121,3
5,59,0,45
5,57,126,3
5,57,0,135
5,55,127,9
5,55,0,515
5,62,127,61
5,62,0,90
5,59,127,6
5,59,0,90
5,57,127,6
5,57,0,531
5,62,127,45
5,62,0,87
5,59,127,9
5,59,0,93
5,57,127,3
5,57,0,93
5,55,126,3
5,55,0,445
5,52,125,35
5,52,0,45
5,55,127,3
5,55,0,45
5,57,127,3
5,57,0,45
5,59,127,3
5,59,0,141
5,52,127,3
5,52,0,189
5,55,127,3
5,55,0,189
5,57,127,3
5,57,0,275
5,55,127,13
5,55,0,514
5,62,127,62
5,62,0,93
5,59,127,3
5,59,0,93
5,57,126,3
5,57,0,529
5,62,127,47
5,62,0,93
5,59,127,3
5,59,0,93
5,57,127,3
5,57,0,93
5,55,127,3
5,55,0,413
5,52,127,67
5,52,0,45
5,55,127,3
5,55,0,45
5,57,127,3
5,57,0,45
5,59,127,3
5,59,0,173
5,59,124,67
5,59,0,30
5,59,127,18
5,59,0,45
5,60,127,3
5,60,0,45
5,59,127,3
5,59,0,141
5,60,127,3
5,60,0,285
5,59,119,3
5,59,0,360
5,59,121,5880
5,59,0,23
5,59,121,25
5,59,0,36
5,59,127,12
5,59,0,119
5,59,122,25
5,59,0,36
5,59,127,12
5,59,0,119
5,59,125,25
5,59,0,45
5,57,124,3
5,57,0,45
5,55,121,3
5,55,0,135
5,59,119,57
5,59,0,26
5,59,120,22
5,59,0,26
5,59,124,22
5,59,0,30
5,59,117,18
5,59,0,81
5,59,121,15
5,59,0,39
5,59,115,9
5,59,0,141
5,59,123,3
5,59,0,38
5,57,119,10
5,57,0,45
5,55,119,3
5,55,0,129
5,59,111,159
5,59,0,37
5,59,125,11
5,59,0,36
5,59,120,12
5,59,0,92
5,60,127,4
5,60,0,41
5,59,127,7
5,59,0,141
5,60,114,3
5,60,0,45
5,59,121,3
5,59,0,141
5,60,114,3
5,60,0,88
5,59,118,8
5,59,0,92
5,60,119,4
5,60,0,45
5,59,118,3
5,59,0,137
5,60,118,7
5,60,0,45
5,59,116,3
5,59,0,141
5,60,121,3
5,60,0,45
5,59,113,3
5,59,0,93
5,57,121,3
5,57,0,103
5,55,127,137
5,55,0,24
5,55,126,24
5,55,0,42
5,64,127,6
5,64,0,137
5,62,124,7
5,62,0,45
5,59,127,3
5,59,0,137
5,62,127,7
5,62,0,45
5,59,121,3
5,59,0,45
5,57,123,3
5,57,0,175
5,55,127,65
5,55,0,30
5,55,119,18
5,55,0,45
5,64,126,3
5,64,0,93
5,62,126,3
5,62,0,93
5,59,127,3
5,59,0,141
5,62,124,3
5,62,0,45
5,59,124,3
5,59,0,45
5,57,124,3
5,57,0,118
5,59,123,122
5,59,0,23
5,59,125,25
5,59,0,24
5,59,127,24
5,59,0,93
5,60,127,3
5,60,0,45
5,59,127,3
5,59,0,140
5,60,127,4
5,60,0,45
5,59,123,3
5,59,0,137
5,60,127,7
5,60,0,45
5,59,124,3
5,59,0,129
5,60,124,15
5,60,0,45
5,59,120,3
5,59,0,141
5,60,127,3
5,60,0,45
5,59,122,3
5,59,0,141
5,60,127,3
5,60,0,93
5,59,123,3
5,59,0,45
5,57,127,3
5,57,0,135
5,55,127,9
5,55,0,515
5,62,127,61
5,62,0,90
5,59,127,6
5,59,0,90
5,57,127,6
5,57,0,531
5,62,126,45
5,62,0,87
5,59,126,9
5,59,0,93
5,57,126,3
5,57,0,93
5,55,127,3
5,55,0,445
5,52,125,35
5,52,0,45
5,55,127,3
5,55,0,45
5,57,127,3
5,57,0,45
5,59,125,3
5,59,0,141
5,52,127,3
5,52,0,189
5,55,126,3
5,55,0,189
5,57,127,3
5,57,0,275
5,55,125,13
5,55,0,514
5,62,126,62
5,62,0,93
5,59,127,3
5,59,0,93
5,57,127,3
5,57,0,529
5,62,127,47
5,62,0,93
5,59,127,3
5,59,0,93
5,57,127,3
5,57,0,93
5,55,125,3
5,55,0,413
5,52,127,67
5,52,0,45
5,55,125,3
5,55,0,45
5,57,127,3
5,57,0,45
5,59,127,3
5,59,0,173
5,59,127,67
5,59,0,30
5,59,127,18
5,59,0,45
5,60,127,3
5,60,0,45
5,59,127,3
5,59,0,141
5,60,127,3
5,60,0,285
5,59,120,3
5,59,0,360
6,62,95,18974
6,62,0,515
6,62,91,61
6,62,0,90
6,62,92,6
6,62,0,90
6,62,94,6
6,62,0,531
6,62,97,45
6,62,0,87
6,62,90,9
6,62,0,93
6,64,93,3
6,64,0,93
6,62,92,3
6,62,0,445
6,62,79,35
6,62,0,45
6,62,86,3
6,62,0,45
6,62,86,3
6,62,0,45
6,64,84,3
6,64,0,141
6,64,85,3
6,64,0,189
6,62,89,3
6,62,0,189
6,64,91,3
6,64,0,275
6,62,96,13
6,62,0,514
6,62,93,62
6,62,0,93
6,62,86,3
6,62,0,93
6,62,85,3
6,62,0,529
6,62,95,47
6,62,0,93
6,62,88,3
6,62,0,93
6,64,87,3
6,64,0,93
6,62,86,3
6,62,0,413
6,62,82,67
6,62,0,45
6,62,87,3
6,62,0,45
6,62,82,3
6,62,0,45
6,64,87,3
6,64,0,173
6,64,79,67
6,64,0,30
6,64,80,18
6,64,0,45
6,64,90,3
6,64,0,45
6,64,86,3
6,64,0,141
6,64,84,3
6,64,0,285
6,62,71,3
6,62,0,360
6,62,97,11928
6,62,0,570
6,62,98,6
6,62,0,83
6,62,93,13
6,62,0,90
6,62,87,6
6,62,0,531
6,62,90,45
6,62,0,87
6,62,89,9
6,62,0,93
6,64,93,3
6,64,0,93
6,62,92,3
6,62,0,445
6,62,81,35
6,62,0,45
6,62,89,3
6,62,0,45
6,62,92,3
6,62,0,45
6,64,83,3
6,64,0,141
6,64,87,3
6,64,0,189
6,62,95,3
6,62,0,189
6,64,93,3
6,64,0,275
6,62,90,13
6,62,0,514
6,62,91,62
6,62,0,93
6,62,91,3
6,62,0,93
6,62,85,3
6,62,0,529
6,62,93,47
6,62,0,93
6,62,92,3
6,62,0,93
6,64,86,3
6,64,0,93
6,62,85,3
6,62,0,413
6,62,82,67
6,62,0,45
6,62,85,3
6,62,0,45
6,62,82,3
6,62,0,45
6,64,88,3
6,64,0,173
6,64,77,67
6,64,0,30
6,64,78,18
6,64,0,45
6,64,86,3
6,64,0,45
6,64,92,3
6,64,0,141
6,64,89,3
6,64,0,285
6,62,74,3
6,62,0,360
7,71,80,15758
7,71,0,523
7,71,87,53
7,71,0,523
7,67,84,53
7,67,0,523
7,67,87,53
7,67,0,523
7,57,94,0
7,57,0,93
7,59,90,3
7,59,0,188
7,62,92,1
7,62,0,203
7,57,86,2
7,57,0,100
7,59,88,6
7,59,0,93
7,55,84,3
7,55,0,93
7,62,87,0
7,62,0,96
7,55,83,3
7,55,0,93
7,57,95,11
7,57,0,93
7,59,84,3
7,59,0,188
7,62,89,1
7,62,0,203
