track,note,velocity,time
1,29,112,7868
1,29,96,34
1,29,113,18
1,31,112,34
1,24,113,18
1,24,113,34
1,24,113,26
1,24,112,1410
1,26,85,12
1,29,113,2
1,29,94,28
1,29,113,24
1,31,112,18
1,24,112,12
1,24,112,38
1,24,112,38
1,29,112,1612
1,29,96,34
1,29,113,18
1,31,112,34
1,24,113,18
1,24,113,34
1,24,113,26
1,24,112,1410
1,26,85,12
1,29,113,2
1,29,94,28
1,29,113,24
1,31,112,18
1,24,112,12
1,24,112,38
1,24,112,38
1,26,117,1616
1,26,108,46
1,24,117,14
1,26,117,88
1,24,108,92
1,26,117,20
1,26,117,762
1,26,94,34
1,24,112,8
1,26,117,86
1,24,103,76
1,26,117,32
1,21,108,172
1,21,100,26
1,24,117,12
1,24,100,30
1,21,117,6
1,26,117,52
1,26,103,46
1,24,117,6
1,26,117,102
1,24,121,94
1,26,121,22
1,26,112,766
1,26,100,46
1,24,117,2
1,26,117,92
1,24,108,92
1,26,117,26
1,21,117,166
1,26,117,184
1,26,108,46
1,24,117,14
1,26,117,88
1,24,108,92
1,26,117,20
1,26,117,762
1,26,94,34
1,24,112,8
1,26,117,86
1,24,103,76
1,26,117,32
1,21,108,172
1,21,100,26
1,24,117,12
1,24,100,30
1,21,117,6
1,26,117,52
1,26,103,46
1,24,117,6
1,26,117,102
1,24,121,94
1,26,121,22
1,29,112,2298
1,29,96,34
1,29,113,18
1,31,112,34
1,24,113,18
1,24,113,34
1,24,113,26
1,24,112,1410
1,26,85,12
1,29,113,2
1,29,94,28
1,29,113,24
1,31,112,18
1,24,112,12
1,24,112,38
1,24,112,38
1,29,112,1612
1,29,96,34
1,29,113,18
1,31,112,34
1,24,113,18
1,24,113,34
1,24,113,26
1,24,112,1410
1,26,85,12
1,29,113,2
1,29,94,28
1,29,113,24
1,31,112,18
1,24,112,12
1,24,112,38
1,24,112,38
1,26,117,1616
1,26,108,46
1,24,117,14
1,26,117,88
1,24,108,92
1,26,117,20
1,26,117,762
1,26,94,34
1,24,112,8
1,26,117,86
1,24,103,76
1,26,117,32
1,21,108,172
1,21,100,26
1,24,117,12
1,24,100,30
1,21,117,6
1,26,117,52
1,26,103,46
1,24,117,6
1,26,117,102
1,24,121,94
1,26,121,22
1,26,112,766
1,26,100,46
1,24,117,2
1,26,117,92
1,24,108,92
1,26,117,26
1,21,117,166
1,26,117,184
1,26,108,46
1,24,117,14
1,26,117,88
1,24,108,92
1,26,117,20
1,26,117,762
1,26,94,34
1,24,112,8
1,26,117,86
1,24,103,76
1,26,117,32
1,21,108,172
1,21,100,26
1,24,117,12
1,24,100,30
1,21,117,6
1,26,117,52
1,26,103,46
1,24,117,6
1,26,117,102
1,24,121,94
1,26,121,22
1,29,112,2298
1,29,96,34
1,29,113,18
1,31,112,34
1,24,113,18
1,24,113,34
1,24,113,26
1,24,112,1410
1,26,85,12
1,29,113,2
1,29,94,28
1,29,113,24
1,31,112,18
1,24,112,12
1,24,112,38
1,24,112,38
1,29,112,1612
1,29,96,34
1,29,113,18
1,31,112,34
1,24,113,18
1,24,113,34
1,24,113,26
1,24,112,1410
1,26,85,12
1,29,113,2
1,29,94,28
1,29,113,24
1,31,112,18
1,24,112,12
1,24,112,38
1,24,112,38
1,29,94,7756
1,29,112,15524
1,29,96,34
1,29,113,18
1,31,112,34
1,24,113,18
1,24,113,34
1,24,113,26
1,24,112,1434
1,26,85,12
1,29,113,2
1,29,94,28
1,29,113,24
1,33,112,18
1,25,112,12
1,25,112,38
1,25,112,38
1,29,112,1624
1,29,96,34
1,29,113,18
1,31,112,34
1,24,113,18
1,24,113,34
1,24,113,26
1,24,112,1434
1,26,85,12
1,29,113,2
1,29,94,28
1,29,113,24
1,33,112,18
1,25,112,12
1,25,112,38
1,25,112,38
1,26,112,1630
2,41,39,556
2,72,39,0
2,77,39,0
2,81,39,0
2,84,39,0
2,79,39,10
2,76,39,2
2,36,39,10
2,38,39,4
2,77,39,2
2,81,39,0
2,86,39,8
2,74,39,4
2,34,39,8
2,82,39,0
2,82,39,24
2,81,39,12
2,79,39,4
2,81,39,6
2,72,39,4
2,41,39,2
2,79,39,6
2,36,39,2
2,76,39,0
2,84,39,0
2,77,39,6
2,81,39,0
2,86,39,0
2,38,39,8
2,82,39,4
2,74,39,10
2,34,39,2
2,82,39,14
2,81,39,10
2,79,39,16
2,81,39,2
2,72,39,4
2,41,39,4
2,84,39,4
2,79,39,10
2,76,39,2
2,36,39,10
2,38,39,4
2,77,39,2
2,81,39,0
2,86,39,8
2,74,39,4
2,34,39,8
2,82,39,0
2,82,39,24
2,81,39,12
2,79,39,4
2,81,39,6
2,72,39,4
2,41,39,2
2,79,39,6
2,36,39,2
2,76,39,0
2,84,39,0
2,77,39,6
2,81,39,0
2,86,39,0
2,38,39,8
2,82,39,4
2,74,39,10
2,34,39,2
2,82,39,14
2,81,39,10
2,79,39,16
2,41,39,6
2,72,39,0
2,81,39,0
2,84,39,0
2,79,39,10
2,76,39,2
2,36,39,10
2,38,39,4
2,77,39,2
2,81,39,0
2,86,39,8
2,74,39,4
2,34,39,8
2,82,39,0
2,82,39,24
2,81,39,12
2,79,39,4
2,81,39,6
2,72,39,4
2,41,39,2
2,79,39,6
2,36,39,2
2,76,39,0
2,84,39,0
2,77,39,6
2,81,39,0
2,86,39,0
2,38,39,8
2,84,39,4
2,76,39,10
2,33,39,2
2,79,26,0
2,83,26,2
2,86,26,4
2,43,26,4
2,41,39,11524
2,77,39,0
2,81,39,2
2,72,39,4
2,84,39,2
2,79,39,8
2,76,39,2
2,36,39,10
2,38,39,4
2,77,39,2
2,81,39,0
2,86,39,8
2,74,39,4
2,34,39,8
2,82,39,0
2,82,39,24
2,81,39,12
2,79,39,4
2,81,39,6
2,72,39,4
2,41,39,2
2,79,39,6
2,36,39,2
2,76,39,0
2,84,39,0
2,77,39,6
2,81,39,0
2,86,39,0
2,38,39,8
2,82,39,4
2,74,39,10
2,34,39,2
2,82,39,14
2,81,39,10
2,79,39,16
2,41,39,6
2,72,39,0
2,81,39,0
2,84,39,0
2,79,39,10
2,76,39,2
2,36,39,10
2,38,39,4
2,77,39,2
2,81,39,0
2,86,39,8
2,74,39,4
2,34,39,8
2,82,39,0
2,82,39,24
2,81,39,12
2,79,39,4
2,81,39,6
2,72,39,4
2,41,39,2
2,79,39,6
2,36,39,2
2,76,39,0
2,84,39,0
2,77,39,6
2,81,39,0
2,86,39,0
2,38,39,8
2,84,39,4
2,76,39,10
2,33,39,2
2,79,26,0
2,83,26,2
2,86,26,4
2,43,26,4
2,41,39,11524
2,77,39,0
2,81,39,2
2,72,39,4
2,84,39,2
2,79,39,8
2,76,39,2
2,36,39,10
2,38,39,4
2,77,39,2
2,81,39,0
2,86,39,8
2,74,39,4
2,34,39,8
2,82,39,0
2,82,39,24
2,81,39,12
2,79,39,4
2,81,39,6
2,72,39,4
2,41,39,2
2,79,39,6
2,36,39,2
2,76,39,0
2,84,39,0
2,77,39,6
2,81,39,0
2,86,39,0
2,38,39,8
2,82,39,4
2,74,39,10
2,34,39,2
2,82,39,14
2,81,39,10
2,79,39,16
2,41,39,6
2,72,39,0
2,81,39,0
2,84,39,0
2,79,39,10
2,76,39,2
2,36,39,10
2,38,39,4
2,77,39,2
2,81,39,0
2,86,39,8
2,74,39,4
2,34,39,8
2,82,39,0
2,82,39,24
2,81,39,12
2,79,39,4
2,81,39,6
2,72,39,4
2,41,39,2
2,79,39,6
2,36,39,2
2,76,39,0
2,84,39,0
2,77,39,6
2,81,39,0
2,86,39,0
2,38,39,8
2,84,39,4
2,76,39,10
2,33,39,2
2,74,39,4
2,79,39,0
2,83,39,0
2,31,39,8
2,41,39,13834
2,77,39,0
2,81,39,2
2,72,39,4
2,84,39,2
2,79,39,8
2,76,39,2
2,36,39,10
2,38,39,4
2,77,39,2
2,81,39,0
2,86,39,8
2,74,39,4
2,34,39,8
2,82,39,0
2,82,39,24
2,81,39,12
2,79,39,4
2,81,39,6
2,72,39,4
2,41,39,2
2,45,39,8
2,76,39,0
2,85,39,0
2,77,39,6
2,86,39,0
2,38,39,8
2,82,39,4
2,74,39,6
2,34,39,2
2,82,39,14
2,81,39,10
2,79,39,16
2,41,39,0
2,81,39,2
2,72,39,4
2,84,39,2
2,79,39,8
2,76,39,2
2,36,39,10
2,38,39,4
2,77,39,2
2,81,39,0
2,86,39,8
2,74,39,4
2,34,39,8
2,82,39,0
2,82,39,24
2,81,39,12
2,79,39,4
2,81,39,6
2,72,39,4
2,41,39,2
2,45,39,8
2,76,39,0
2,85,39,0
2,77,39,6
2,86,39,0
2,38,39,8
2,82,39,4
2,74,39,6
2,34,39,2
2,82,39,14
2,81,39,10
2,79,39,16
2,41,39,0
2,81,39,2
2,72,39,4
2,84,39,2
2,79,39,8
2,76,39,2
2,36,39,10
2,38,39,4
2,77,39,2
2,81,39,0
2,86,39,8
2,74,39,4
2,34,39,8
2,82,39,0
2,82,39,24
2,81,39,12
2,79,39,4
2,81,39,6
2,72,39,4
2,41,39,2
2,45,39,8
2,76,39,0
2,85,39,0
2,77,39,6
2,86,39,0
2,38,39,8
2,82,39,4
2,74,39,6
2,34,39,2
2,82,39,14
2,81,39,10
2,79,39,16
2,41,39,0
2,81,39,2
2,72,39,4
2,84,39,2
2,79,39,8
2,76,39,2
2,36,39,10
2,38,39,4
2,77,39,2
2,81,39,0
2,86,39,8
2,74,39,4
2,34,39,8
2,82,39,0
2,82,39,24
2,81,39,12
2,79,39,4
2,81,39,6
2,72,39,4
2,41,39,2
2,45,39,8
2,76,39,0
2,85,39,0
2,77,39,6
2,86,39,0
2,38,39,8
2,82,39,4
2,74,39,6
2,34,39,2
2,82,39,14
2,81,39,10
2,79,39,16
3,65,83,2062
3,65,83,2
3,65,80,26
3,67,80,6
3,69,75,2
3,70,83,12
3,69,80,16
3,69,91,4428
3,69,86,14
3,69,88,16
3,67,88,12
3,67,89,12
3,65,88,6
3,67,91,10
3,65,88,18
3,62,91,14
3,65,86,24
3,67,88,2
3,65,88,12
3,69,88,84
3,67,86,8
3,60,86,138
3,62,85,6
3,69,86,10
3,65,84,16
3,62,86,6
3,65,88,10
3,62,91,50
3,60,91,12
3,69,86,210
3,69,88,22
3,72,88,12
3,69,90,22
3,67,90,14
3,65,88,12
3,67,88,14
3,65,84,12
3,62,90,26
3,65,90,12
3,67,86,18
3,65,88,10
3,69,86,90
3,67,88,20
3,60,86,116
3,62,84,2
3,69,84,22
3,65,84,8
3,62,86,2
3,64,82,12
3,62,83,86
3,62,83,16
3,67,97,184
3,67,94,22
3,67,90,24
3,65,90,8
3,67,94,12
3,65,90,12
3,67,94,12
3,65,89,16
3,62,90,12
3,65,90,14
3,67,94,2
3,65,90,4
3,67,97,3238
3,67,94,22
3,67,90,16
3,65,90,16
3,67,94,12
3,65,90,12
3,67,94,12
3,65,89,16
3,62,90,12
3,65,90,14
3,67,94,2
3,65,90,4
3,62,87,556
3,64,90,10
3,60,87,12
3,60,84,92
3,60,87,20
3,62,87,10
3,65,85,8
3,67,85,6
3,65,85,6
3,69,91,26
3,69,86,14
3,69,88,16
3,67,88,12
3,67,89,12
3,65,88,6
3,67,91,10
3,65,88,18
3,62,91,14
3,65,86,24
3,67,88,2
3,65,88,12
3,69,88,84
3,67,86,8
3,60,86,138
3,62,85,6
3,69,86,10
3,65,84,16
3,62,86,6
3,65,88,10
3,62,91,50
3,60,91,12
3,69,86,210
3,69,88,22
3,72,88,12
3,69,90,22
3,67,90,14
3,65,88,12
3,67,88,14
3,65,84,12
3,62,90,26
3,65,90,12
3,67,86,18
3,65,88,10
3,69,86,90
3,67,88,20
3,60,86,116
3,62,84,2
3,69,84,22
3,65,84,8
3,62,86,2
3,64,82,12
3,62,83,86
3,62,83,16
3,67,97,184
3,67,94,22
3,67,90,24
3,65,90,8
3,67,94,12
3,65,90,12
3,67,94,12
3,65,89,16
3,62,90,12
3,65,90,14
3,67,94,2
3,65,90,4
3,67,97,3238
3,67,94,22
3,67,90,16
3,65,90,16
3,67,94,12
3,65,90,12
3,67,94,12
3,65,89,16
3,62,90,12
3,65,90,14
3,67,94,2
3,65,90,4
3,62,87,556
3,64,90,10
3,60,87,12
3,60,84,92
3,60,87,20
3,62,87,10
3,65,85,8
3,67,85,6
3,65,85,6
3,69,91,26
3,69,86,14
3,69,88,16
3,67,88,12
3,67,89,12
3,65,88,6
3,67,91,10
3,65,88,18
3,62,91,14
3,65,86,24
3,67,88,2
3,65,88,12
3,69,88,84
3,67,86,8
3,60,86,138
3,62,85,6
3,69,86,10
3,65,84,16
3,62,86,6
3,65,88,10
3,62,91,50
3,60,91,12
3,69,86,210
3,69,88,22
3,72,88,12
3,69,90,22
3,67,90,14
3,65,88,12
3,67,88,14
3,65,84,12
3,62,90,26
3,65,90,12
3,67,86,18
3,65,88,10
3,69,86,90
3,67,88,20
3,57,77,8752
3,57,76,24
3,60,75,2
3,62,79,10
3,65,77,6
3,62,79,14
3,60,77,14
3,57,79,8
3,64,80,10
3,62,79,10
3,60,76,18
3,53,79,20
3,57,79,24
3,55,81,18
3,57,79,80
3,58,79,8
3,58,77,18
3,58,81,20
3,57,79,10
3,69,84,804
3,69,80,26
3,69,82,24
3,67,84,14
3,69,84,518
3,69,79,14
3,70,85,6
3,69,80,12
3,67,82,20
3,65,85,6
3,69,85,242
3,69,80,16
3,69,80,8
3,67,84,20
3,67,84,18
3,65,84,8
3,67,88,12
3,65,84,22
3,62,88,22
3,65,85,6
3,69,84,510
3,69,80,26
3,69,82,24
3,67,84,14
3,69,84,518
3,69,79,14
3,70,85,6
3,69,80,12
3,67,82,20
3,65,85,6
3,69,85,242
3,69,80,16
3,69,80,8
3,67,84,20
3,67,84,18
3,65,84,8
3,67,88,12
3,65,84,22
3,62,88,22
3,65,85,6
3,69,91,496
3,69,86,14
3,69,88,16
3,67,88,12
3,67,89,12
3,65,88,6
3,67,91,10
3,65,88,18
3,62,91,14
3,65,86,24
3,67,88,2
3,65,88,12
3,69,88,84
3,67,86,8
3,60,86,138
3,62,85,6
3,69,86,10
3,65,84,16
3,62,86,6
3,65,88,10
3,62,91,50
3,60,91,12
3,69,86,210
3,69,88,22
3,72,88,12
3,69,90,22
3,67,90,14
3,65,88,12
3,67,88,14
3,65,84,12
3,62,90,26
3,65,90,12
3,67,86,18
3,65,88,10
3,69,86,90
3,67,88,20
3,60,86,116
3,62,84,2
3,69,84,22
3,65,84,8
3,62,86,2
3,64,81,18
3,62,83,4
3,62,83,16
4,65,59,8874
4,65,54,14
4,65,56,16
4,64,56,12
4,64,57,12
4,62,56,6
4,64,59,10
4,62,56,18
4,60,59,14
4,62,54,24
4,65,59,3840
4,65,54,14
4,65,56,16
4,64,56,12
4,64,57,12
4,62,56,6
4,64,59,10
4,62,56,18
4,60,59,14
4,62,54,24
4,65,59,16128
4,65,54,14
4,65,56,16
4,64,56,12
4,64,57,12
4,62,56,6
4,64,59,10
4,62,56,18
4,60,59,14
4,62,54,24
4,65,59,3840
4,65,54,14
4,65,56,16
4,64,56,12
4,64,57,12
4,62,56,6
4,64,59,10
4,62,56,18
4,60,59,14
4,62,54,24
4,65,59,16128
4,65,54,14
4,65,56,16
4,64,56,12
4,64,57,12
4,62,56,6
4,64,59,10
4,62,56,18
4,60,59,14
4,62,54,24
4,65,59,3840
4,65,54,14
4,65,56,16
4,64,56,12
4,64,57,12
4,62,56,6
4,64,59,10
4,62,56,18
4,60,59,14
4,62,54,24
4,69,53,10176
4,69,52,24
4,72,51,2
4,74,55,10
4,77,53,6
4,74,55,14
4,72,53,14
4,69,55,8
4,76,56,10
4,74,55,10
4,72,52,18
4,65,55,20
4,69,55,24
4,67,57,18
4,69,55,80
4,70,55,8
4,70,53,18
4,70,57,20
4,69,55,10
4,65,59,3862
4,65,54,14
4,65,56,16
4,64,56,12
4,64,57,12
4,62,56,6
4,64,59,10
4,62,56,18
4,60,59,14
4,62,54,24
4,65,59,3840
4,65,54,14
