track,note,velocity,time
0,42,100,724
0,42,85,368
0,42,85,368
0,42,85,368
0,54,60,360
0,60,85,8
0,72,106,0
0,54,50,76
0,54,50,76
0,55,96,8
0,60,96,0
0,63,96,0
0,54,50,24
0,54,60,76
0,58,87,4
0,70,106,0
0,54,50,76
0,54,50,76
0,55,96,4
0,60,96,0
0,63,96,0
0,55,83,0
0,67,106,0
0,54,50,24
0,60,99,4
0,72,106,0
0,54,60,0
0,54,50,76
0,54,50,76
0,53,96,8
0,56,96,0
0,60,96,0
0,54,50,24
0,54,60,76
0,60,89,8
0,72,106,0
0,54,50,8
0,54,50,76
0,53,96,8
0,56,96,0
0,60,96,0
0,60,85,0
0,72,106,0
0,54,50,8
0,54,60,76
0,60,99,8
0,72,106,0
0,54,50,76
0,58,85,4
0,70,106,0
0,54,50,0
0,53,96,8
0,58,96,0
0,62,96,0
0,54,50,24
0,58,75,8
0,70,99,0
0,54,60,76
0,54,50,76
0,54,50,76
0,53,96,8
0,58,96,0
0,62,96,0
0,58,91,0
0,70,106,0
0,54,50,24
0,63,99,4
0,75,106,0
0,54,60,76
0,54,50,76
0,54,50,76
0,53,96,4
0,58,96,0
0,62,96,0
0,62,85,0
0,74,106,0
0,54,50,0
0,54,60,76
0,60,87,8
0,72,106,0
0,54,50,0
0,54,50,76
0,53,96,8
0,58,96,0
0,62,96,0
0,58,75,0
0,70,99,0
0,54,50,0
0,54,60,76
0,60,106,8
0,72,106,0
0,54,50,76
0,54,50,76
0,55,96,8
0,60,96,0
0,63,96,0
0,54,50,24
0,35,107,76
0,54,60,0
0,58,87,4
0,70,106,0
0,54,50,76
0,54,50,76
0,55,96,4
0,60,96,0
0,63,96,0
0,55,83,0
0,67,106,0
0,54,50,24
0,60,99,4
0,72,106,0
0,54,60,76
0,54,50,76
0,54,50,76
0,53,96,8
0,56,96,0
0,60,96,0
0,54,50,24
0,35,107,76
0,54,60,0
0,60,89,8
0,72,106,0
0,54,50,0
0,54,50,76
0,53,96,8
0,56,96,0
0,60,96,0
0,60,85,0
0,72,106,0
0,54,50,0
0,58,99,8
0,70,106,0
0,54,60,76
0,54,50,76
0,54,50,76
0,53,96,8
0,58,96,0
0,62,96,0
0,54,50,28
0,53,68,8
0,58,68,0
0,62,68,0
0,35,107,32
0,54,60,0
0,54,50,76
0,54,50,76
0,53,96,8
0,58,96,0
0,62,96,0
0,54,50,24
0,55,106,8
0,67,106,0
0,54,60,76
0,54,50,76
0,54,50,76
0,53,96,4
0,58,96,0
0,62,96,0
0,53,85,0
0,65,106,0
0,54,50,8
0,35,107,76
0,54,60,0
0,51,87,8
0,63,106,0
0,54,50,8
0,54,50,76
0,53,96,8
0,58,96,0
0,62,96,0
0,50,93,0
0,62,106,0
0,54,50,8
0,35,107,76
0,54,60,0
0,60,106,8
0,72,106,0
0,54,50,76
0,63,82,76
0,54,50,0
0,55,96,8
0,60,96,0
0,63,96,0
0,35,107,24
0,63,74,0
0,54,50,0
0,35,107,76
0,62,92,0
0,54,60,0
0,58,87,4
0,70,106,0
0,54,50,76
0,35,107,76
0,64,80,0
0,54,50,0
0,55,96,4
0,60,96,0
0,63,96,0
0,55,83,0
0,67,106,0
0,64,78,24
0,54,50,0
0,60,99,4
0,72,106,0
0,54,60,0
0,35,107,76
0,63,57,0
0,54,50,0
0,35,107,76
0,63,80,0
0,54,50,0
0,53,96,8
0,56,96,0
0,60,96,0
0,63,95,24
0,54,50,0
0,35,107,76
0,62,91,0
0,54,60,0
0,60,89,8
0,72,106,0
0,54,50,8
0,35,107,76
0,64,85,0
0,54,50,0
0,53,96,8
0,56,96,0
0,60,96,0
0,60,85,0
0,72,106,0
0,64,89,8
0,54,50,0
0,35,107,76
0,54,60,0
0,60,99,8
0,72,106,0
0,35,107,76
0,54,50,0
0,58,85,4
0,70,106,0
0,63,93,0
0,54,50,0
0,53,96,8
0,58,96,0
0,62,96,0
0,35,107,24
0,63,82,0
0,54,50,0
0,58,75,8
0,70,99,0
0,35,107,76
0,62,94,0
0,54,60,0
0,54,50,76
0,35,107,76
0,64,82,0
0,54,50,0
0,53,96,8
0,58,96,0
0,62,96,0
0,58,91,0
0,70,106,0
0,64,76,24
0,54,50,0
0,63,99,4
0,75,106,0
0,63,93,76
0,54,60,0
0,35,107,76
0,64,80,0
0,54,50,0
0,35,107,76
0,62,98,0
0,54,50,0
0,53,96,4
0,58,96,0
0,62,96,0
0,62,85,0
0,74,106,0
0,54,50,0
0,35,107,76
0,62,72,0
0,54,60,0
0,60,87,8
0,72,106,0
0,54,50,0
0,64,78,76
0,54,50,0
0,53,96,8
0,58,96,0
0,62,96,0
0,58,75,0
0,70,99,0
0,54,50,0
0,35,107,76
0,54,60,0
0,60,106,8
0,72,106,0
0,54,50,76
0,63,82,76
0,54,50,0
0,55,96,8
0,60,96,0
0,63,96,0
0,35,107,24
0,63,74,0
0,54,50,0
0,35,107,76
0,62,92,0
0,54,60,0
0,58,87,4
0,70,106,0
0,54,50,76
0,35,107,76
0,64,80,0
0,54,50,0
0,55,96,4
0,60,96,0
0,63,96,0
0,55,83,0
0,67,106,0
0,64,78,24
0,54,50,0
0,60,99,4
0,72,106,0
0,54,60,76
0,35,107,76
0,63,57,0
0,54,50,0
0,35,107,76
0,63,80,0
0,54,50,0
0,53,96,8
0,56,96,0
0,60,96,0
0,63,95,24
0,54,50,0
0,35,107,76
0,62,91,0
0,54,60,0
0,60,89,8
0,72,106,0
0,54,50,0
0,35,107,76
0,64,85,0
0,54,50,0
0,53,96,8
0,56,96,0
0,60,96,0
0,60,85,0
0,72,106,0
0,64,89,0
0,54,50,0
0,58,99,8
0,70,106,0
0,35,107,76
0,54,60,0
0,35,107,76
0,54,50,0
0,63,93,76
0,54,50,0
0,53,96,8
0,58,96,0
0,62,96,0
0,35,107,28
0,63,82,0
0,54,50,0
0,53,68,8
0,58,68,0
0,62,68,0
0,35,107,32
0,62,94,0
0,54,60,0
0,54,50,76
0,35,107,76
0,64,82,0
0,54,50,0
0,53,96,8
0,58,96,0
0,62,96,0
0,64,76,24
0,54,50,0
0,55,106,8
0,67,106,0
0,62,92,76
0,54,60,0
0,35,107,24
0,64,95,0
0,54,50,0
0,35,107,28
0,54,50,0
0,53,96,4
0,58,96,0
0,62,96,0
0,53,85,0
0,65,106,0
0,64,80,8
0,54,50,0
0,35,107,28
0,63,93,0
0,54,60,0
0,51,87,8
0,63,106,0
0,63,84,8
0,54,50,0
0,64,78,36
0,54,50,0
0,53,96,8
0,58,96,0
0,62,96,0
0,50,93,0
0,62,106,0
0,54,50,8
0,35,107,76
0,54,60,0
0,60,86,8
0,54,50,76
0,72,85,4
0,54,50,16
0,55,96,8
0,60,96,0
0,63,96,0
0,72,80,0
0,35,107,8
0,54,50,0
0,35,107,60
0,54,60,0
0,67,85,8
0,54,50,76
0,35,107,0
0,54,50,0
0,55,96,8
0,60,96,0
0,63,96,0
0,65,73,0
0,54,50,8
0,54,60,32
0,65,82,8
0,35,107,76
0,54,50,0
0,35,107,76
0,54,50,0
0,53,96,8
0,56,96,0
0,60,96,0
0,54,50,8
0,35,107,76
0,54,60,0
0,72,87,8
0,54,50,76
0,35,107,76
0,54,50,0
0,53,96,4
0,56,96,0
0,60,96,0
0,70,72,0
0,54,50,8
0,35,107,44
0,54,60,0
0,65,83,8
0,35,107,76
0,54,50,0
0,54,50,76
0,53,96,8
0,58,96,0
0,62,96,0
0,35,107,8
0,54,50,0
0,35,107,76
0,54,60,0
0,67,80,4
0,54,50,76
0,35,107,76
0,54,50,0
0,53,96,8
0,58,96,0
0,62,96,0
0,54,50,8
0,54,60,16
0,63,85,8
0,35,107,76
0,54,50,0
0,35,107,76
0,54,50,0
0,55,96,4
0,60,96,0
0,63,96,0
0,60,71,0
0,54,50,8
0,35,107,36
0,54,60,0
0,54,50,76
0,54,50,76
0,55,96,8
0,60,96,0
0,63,96,0
0,54,50,8
0,35,107,76
0,54,60,0
0,60,86,8
0,54,50,76
0,72,85,4
0,54,50,16
0,55,96,8
0,60,96,0
0,63,96,0
0,72,80,0
0,35,107,8
0,54,50,0
0,35,107,60
0,54,60,0
0,67,85,8
0,54,50,76
0,35,107,0
0,54,50,0
0,55,96,8
0,60,96,0
0,63,96,0
0,65,73,0
0,54,50,8
0,54,60,32
0,65,82,8
0,35,107,76
0,54,50,0
0,35,107,76
0,54,50,0
0,53,96,8
0,56,96,0
0,60,96,0
0,54,50,8
0,35,107,76
0,54,60,0
0,72,87,8
0,54,50,76
0,35,107,76
0,54,50,0
0,53,96,4
0,56,96,0
0,60,96,0
0,70,72,0
0,54,50,8
0,35,107,44
0,54,60,0
0,65,83,8
0,35,107,76
0,54,50,0
0,54,50,76
0,53,96,8
0,58,96,0
0,62,96,0
0,35,107,8
0,54,50,0
0,35,107,76
0,54,60,0
0,67,82,4
0,54,50,76
0,35,107,16
0,54,50,0
0,53,96,8
0,58,96,0
0,62,96,0
0,70,65,0
0,54,50,8
0,70,64,8
0,54,60,76
0,67,81,4
0,35,107,76
0,54,50,0
0,35,107,36
0,54,50,0
0,55,96,8
0,60,96,0
0,63,96,0
0,54,50,8
0,35,107,76
0,54,60,0
0,54,50,76
0,54,50,76
0,55,96,8
0,60,96,0
0,63,96,0
0,67,81,0
0,54,50,8
0,35,107,76
0,54,60,0
0,92,85,0
0,68,82,4
0,54,50,76
0,54,50,76
0,53,96,8
0,56,96,0
0,60,96,0
0,35,107,8
0,54,50,0
0,35,107,48
0,54,60,0
0,68,80,8
0,54,50,76
0,35,107,0
0,54,50,0
0,53,96,8
0,56,96,0
0,60,96,0
0,68,72,0
0,54,50,8
0,67,82,4
0,54,60,76
0,35,107,76
0,54,50,0
0,35,107,12
0,54,50,0
0,53,96,8
0,56,96,0
0,60,96,0
0,63,75,0
0,54,50,8
0,35,107,20
0,54,60,0
0,54,50,76
0,55,97,8
0,35,107,20
0,54,50,0
0,53,96,8
0,56,96,0
0,60,96,0
0,63,76,0
0,54,50,8
0,35,107,0
0,54,60,0
0,91,85,4
0,62,82,4
0,35,107,76
0,54,50,0
0,54,50,76
0,55,96,4
0,59,96,0
0,62,96,0
0,63,71,0
0,35,107,8
0,54,50,0
0,35,107,76
0,54,60,0
0,62,76,4
0,54,50,76
0,35,107,76
0,54,50,0
0,55,96,4
0,59,96,0
0,62,96,0
0,60,72,0
0,54,50,8
0,54,60,0
0,87,82,4
0,35,107,60
0,54,50,0
0,35,107,76
0,54,50,0
0,55,96,8
0,60,96,0
0,63,96,0
0,60,84,0
0,54,50,8
0,35,107,72
0,54,60,0
0,62,80,8
0,54,50,76
0,54,50,76
0,55,96,8
0,60,96,0
0,63,96,0
0,63,80,0
0,54,50,8
0,35,107,76
0,54,60,0
0,65,76,8
0,54,50,76
0,54,50,76
0,53,96,8
0,56,96,0
0,60,96,0
0,35,107,8
0,54,50,0
0,35,107,76
0,54,60,0
0,54,50,76
0,66,60,4
0,35,107,76
0,54,50,0
0,53,96,4
0,56,96,0
0,60,96,0
0,65,78,0
0,54,50,8
0,54,60,76
0,63,78,4
0,35,107,76
0,54,50,0
0,35,107,76
0,54,50,0
0,51,96,8
0,55,96,0
0,58,96,0
0,54,50,8
0,35,107,76
0,54,60,0
0,54,50,76
0,55,98,4
0,65,74,0
0,35,107,16
0,54,50,0
0,51,96,4
0,55,96,0
0,58,96,0
0,63,74,0
0,54,50,8
0,35,107,0
0,54,60,0
0,62,79,8
0,35,107,76
0,54,50,0
0,54,50,76
0,50,96,8
0,54,96,0
0,57,96,0
0,35,107,8
0,54,50,0
0,35,107,28
0,54,60,0
0,54,50,76
0,35,107,76
0,54,50,0
0,50,96,8
0,54,96,0
0,57,96,0
0,55,77,0
0,54,50,8
0,55,73,8
0,54,60,20
0,55,84,8
0,54,50,76
0,54,50,20
0,55,76,8
0,54,50,32
0,55,76,8
0,54,60,12
0,58,75,8
0,54,50,76
0,60,76,4
0,54,50,76
0,54,50,36
0,60,80,8
0,35,107,76
0,54,60,0
0,34,97,4
0,79,72,0
0,84,72,0
0,87,73,0
0,58,105,4
0,35,97,76
0,54,50,0
0,35,89,8
0,54,50,0
0,36,95,4
0,55,96,4
0,60,96,0
0,63,96,0
0,60,100,0
0,35,80,8
0,54,50,0
0,36,95,4
0,35,107,28
0,38,98,0
0,54,60,0
0,39,95,4
0,35,95,28
0,54,50,0
0,39,95,4
0,35,85,28
0,54,50,0
0,41,95,4
0,55,96,4
0,60,96,0
0,63,96,0
0,54,50,8
0,54,60,76
0,38,95,76
0,54,50,0
0,46,69,76
0,54,50,0
0,53,96,8
0,56,96,0
0,60,96,0
0,38,48,8
0,54,50,0
0,38,93,76
0,42,72,0
0,54,60,0
0,54,50,48
0,54,50,76
0,53,96,8
0,56,96,0
0,60,96,0
0,54,50,8
0,54,60,76
0,77,72,4
0,82,72,0
0,86,72,0
0,54,50,76
0,54,50,76
0,53,96,8
0,58,96,0
0,62,96,0
0,54,50,8
0,38,98,76
0,54,60,0
0,54,50,76
0,65,77,8
0,54,50,76
0,53,96,8
0,58,96,0
0,62,96,0
0,54,50,8
0,54,60,44
0,67,84,8
0,38,83,76
0,54,50,0
0,37,97,48
0,54,50,0
0,53,96,8
0,58,96,0
0,62,96,0
0,65,78,0
0,54,50,8
0,38,96,48
0,54,60,0
0,63,72,8
0,54,50,48
0,37,87,32
0,54,50,0
0,53,96,8
0,58,96,0
0,62,96,0
0,62,84,0
0,54,50,8
0,35,107,32
0,54,60,0
0,34,97,4
0,79,72,0
0,84,72,0
0,87,73,0
0,60,86,4
0,58,105,0
0,35,97,76
0,54,50,0
0,35,89,8
0,54,50,0
0,36,95,4
0,55,96,4
0,60,96,0
0,63,96,0
0,63,72,0
0,60,100,0
0,35,80,8
0,54,50,0
0,36,95,4
0,35,107,28
0,38,98,0
0,54,60,0
0,39,95,4
0,60,89,4
0,35,95,28
0,54,50,0
0,39,95,4
0,35,85,28
0,54,50,0
0,41,95,4
0,55,96,4
0,60,96,0
0,63,96,0
0,63,68,0
0,54,50,8
0,60,84,8
0,54,60,76
0,38,95,76
0,54,50,0
0,46,69,76
0,54,50,0
0,53,96,4
0,56,96,0
0,60,96,0
0,58,61,0
0,38,48,8
0,54,50,0
0,38,93,76
0,42,72,0
0,54,60,0
0,54,50,48
0,54,50,76
0,53,96,8
0,56,96,0
0,60,96,0
0,54,50,8
0,54,60,76
0,77,72,4
0,82,72,0
0,86,72,0
0,54,50,76
0,54,50,76
0,53,96,8
0,58,96,0
0,62,96,0
0,54,50,8
0,38,98,76
0,54,60,0
0,54,50,76
0,54,50,76
0,53,96,8
0,58,96,0
0,62,96,0
0,54,50,8
0,54,60,76
0,55,76,8
0,38,83,76
0,54,50,0
0,37,97,76
0,46,69,0
0,54,50,0
0,53,96,8
0,58,96,0
0,62,96,0
0,54,50,8
0,38,96,76
0,42,72,0
0,54,60,0
0,63,79,8
0,54,50,48
0,37,87,76
0,46,69,0
0,54,50,0
0,53,96,8
0,58,96,0
0,62,96,0
0,54,50,8
0,62,82,8
0,35,107,76
0,42,72,0
0,54,60,0
0,34,97,4
0,79,72,0
0,84,72,0
0,87,73,0
0,58,105,4
0,35,97,76
0,54,50,0
0,35,89,8
0,54,50,0
0,36,95,4
0,55,96,4
0,60,96,0
0,63,96,0
0,60,72,0
0,60,100,0
0,35,80,0
0,54,50,0
0,36,95,4
0,35,107,28
0,38,98,0
0,54,60,0
0,39,95,4
0,35,95,28
0,54,50,0
0,39,95,4
0,35,85,28
0,54,50,0
0,41,95,4
0,55,96,4
0,60,96,0
0,63,96,0
0,54,50,8
0,54,60,76
0,38,95,76
0,54,50,0
0,46,69,76
0,54,50,0
0,53,96,8
0,56,96,0
0,60,96,0
0,38,48,8
0,54,50,0
0,38,93,76
0,42,72,0
0,54,60,0
0,54,50,48
0,54,50,76
0,53,96,8
0,56,96,0
0,60,96,0
0,54,50,8
0,54,60,76
0,77,72,4
