track,note,velocity,time
1,73,100,6336
1,80,106,16
1,78,122,20
1,80,122,192
1,78,127,272
1,80,113,248
1,73,118,1664
1,80,122,192
1,78,127,0
1,80,110,192
1,78,127,284
1,80,113,256
1,80,106,7452
1,80,69,64
1,80,100,48
1,73,67,8
1,73,87,44
1,80,94,196
1,80,103,100
1,73,90,24
1,73,77,48
1,80,103,196
1,78,94,0
1,78,90,120
1,78,94,128
1,76,76,192
1,78,103,92
1,76,77,152
1,73,100,8
1,73,97,280
1,77,113,8
1,73,84,192
1,73,92,128
1,73,74,112
1,77,106,28
1,73,92,0
1,73,84,100
1,75,87,472
1,75,94,112
1,73,78,4
1,72,80,96
1,70,82,164
1,68,110,12
1,73,78,256
1,80,103,32
1,80,103,96
1,80,55,104
1,80,97,84
1,80,106,88
1,80,106,96
1,80,90,52
1,80,100,192
1,82,127,56
1,82,110,112
1,82,118,100
1,82,127,100
1,81,106,40
1,81,106,116
1,80,97,8
1,80,82,72
1,78,80,192
1,77,103,84
1,80,92,16
1,80,106,60
1,78,92,16
1,77,97,96
1,73,85,176
1,68,100,144
1,71,100,112
1,73,103,48
1,76,118,100
1,73,113,88
1,80,127,204
1,78,127,16
1,76,100,192
1,73,127,72
1,76,127,268
1,76,127,88
1,76,103,52
1,76,85,48
1,78,103,24
1,78,118,56
1,76,127,280
1,78,113,0
1,78,118,80
1,78,106,40
1,76,127,24
1,76,103,64
1,80,127,68
1,78,127,384
1,76,110,180
1,73,127,80
1,76,103,268
1,76,127,88
1,76,97,56
1,76,100,48
1,76,106,52
1,75,110,192
1,75,127,304
1,73,122,96
1,80,127,740
1,78,122,24
1,76,92,192
1,73,106,4
1,76,127,272
1,76,127,112
1,76,97,60
1,76,97,52
1,78,100,32
1,78,110,68
1,76,127,276
1,78,110,32
1,78,127,108
1,78,113,52
1,76,127,88
1,76,103,60
1,80,127,80
1,78,113,32
1,76,100,192
1,73,103,4
1,76,97,288
1,76,127,108
1,76,100,52
1,76,100,52
1,76,106,56
1,75,122,0
1,73,47,224
1,75,113,20
1,73,122,96
1,73,94,13776
1,76,100,104
1,78,103,108
1,80,100,60
1,73,94,32
1,73,90,112
1,80,106,72
1,80,76,48
1,80,90,56
1,73,92,52
1,73,85,40
1,80,97,200
1,80,62,52
1,78,103,24
1,78,100,80
1,78,100,96
1,76,97,4
1,78,97,96
1,76,66,168
1,73,78,16
1,73,82,372
1,77,103,32
1,73,84,4
1,73,80,100
1,73,94,96
1,77,118,100
1,73,103,100
1,73,94,44
1,75,84,552
1,75,92,104
1,73,84,4
1,72,113,96
1,70,85,184
1,68,92,56
1,80,94,656
1,80,100,28
1,80,100,48
1,80,103,124
1,85,92,36
1,80,100,12
1,80,127,368
1,80,78,64
1,81,97,48
1,81,97,92
1,81,97,96
1,80,106,68
1,78,106,88
1,78,106,436
1,80,85,80
1,80,100,92
1,78,94,60
1,77,97,96
1,80,92,84
1,80,97,196
1,78,84,64
1,77,97,4
1,73,94,4
1,68,92,188
1,71,110,88
1,73,103,48
1,76,94,108
1,73,118,88
1,80,127,220
1,78,127,16
1,76,100,192
1,73,127,72
1,76,127,268
1,76,127,88
1,76,103,52
1,76,85,48
1,78,103,24
1,78,118,56
1,76,127,280
1,78,113,0
1,78,118,80
1,78,106,40
1,76,127,24
1,76,103,64
1,80,127,68
1,78,127,384
1,76,110,180
1,73,127,80
1,76,103,268
1,76,127,88
1,76,97,56
1,76,100,48
1,76,106,52
1,75,110,192
1,75,127,304
1,73,122,96
1,80,127,740
1,78,122,24
1,76,92,192
1,73,106,4
1,76,127,272
1,76,127,112
1,76,97,60
1,76,97,52
1,78,100,32
1,78,110,68
1,76,127,276
1,78,110,32
1,78,127,108
1,78,113,52
1,76,127,88
1,76,103,60
1,80,127,80
1,78,113,32
1,76,100,192
1,73,103,4
1,76,97,288
1,76,127,108
1,76,100,52
1,76,100,52
1,76,106,56
1,75,122,0
1,73,47,224
1,75,113,20
1,73,122,96
1,80,127,13008
1,78,127,16
1,76,100,192
1,73,127,72
1,76,127,268
1,76,127,88
1,76,103,52
1,76,85,48
1,78,103,24
1,78,118,56
1,76,127,280
1,78,113,0
1,78,118,80
1,78,106,40
1,76,127,24
1,76,103,64
1,80,127,68
1,78,127,384
1,76,110,180
1,73,127,80
1,76,103,268
1,76,127,88
1,76,97,56
1,76,100,48
1,76,106,52
1,75,110,192
1,75,127,304
1,73,122,96
1,80,127,740
1,78,122,24
1,76,92,192
1,73,106,4
1,76,127,272
1,76,127,112
1,76,97,60
1,76,97,52
1,78,100,32
1,78,110,68
1,76,127,276
1,78,110,32
1,78,127,108
1,78,113,52
1,76,127,88
1,76,103,60
1,80,127,80
1,78,113,32
1,76,100,192
1,73,103,4
1,76,97,288
1,76,127,108
1,76,100,52
1,76,100,52
1,76,106,56
1,75,122,0
1,75,113,320
1,73,122,96
1,80,127,6864
1,78,127,16
1,76,100,192
1,73,127,72
1,80,127,2284
1,78,127,16
1,76,100,192
1,73,127,72
2,68,118,58736
2,71,106,192
2,73,127,72
2,71,113,152
2,68,127,0
2,68,100,27360
2,66,100,4
2,64,100,4
2,61,100,4
2,68,100,5568
2,66,100,4
2,64,100,4
2,61,100,4
2,68,118,1148
2,71,122,168
2,73,118,172
2,73,127,88
2,73,122,88
2,73,122,88
2,68,127,1088
2,71,127,188
2,73,127,16
2,73,127,104
2,76,122,80
2,75,127,396
2,73,127,160
2,68,118,940
2,71,127,16
2,73,113,48
2,73,103,84
2,73,113,88
2,73,110,92
2,68,110,1208
2,71,127,24
2,73,113,60
2,73,113,96
2,76,113,104
2,75,127,376
2,73,118,152
3,37,127,6144
3,37,127,96
3,40,127,4
3,42,127,4
3,37,127,4
3,37,127,4
3,35,127,1924
3,37,127,4
3,37,127,96
3,40,127,4
3,42,127,4
3,37,127,4
3,37,127,4
3,44,127,388
3,44,127,4
3,42,127,4
3,44,127,4
3,39,127,388
3,40,127,4
3,42,127,4
3,42,127,4
3,37,127,580
3,37,127,96
3,40,127,4
3,42,127,4
3,37,127,4
3,37,127,4
3,35,127,1924
3,37,127,4
3,37,127,96
3,40,127,4
3,42,127,4
3,37,127,4
3,37,127,4
3,44,127,388
3,44,127,4
3,42,127,4
3,44,127,4
3,39,127,388
3,40,127,4
3,42,127,4
3,42,127,4
3,37,127,12868
3,37,127,100
3,40,127,4
3,42,127,4
3,37,127,4
3,37,127,4
3,37,127,388
3,37,127,4
3,35,127,4
3,35,127,4
3,35,127,388
3,35,127,4
3,30,127,4
3,30,127,4
3,35,127,388
3,37,127,4
3,37,127,100
3,40,127,4
3,42,127,4
3,37,127,4
3,37,127,4
3,44,127,388
3,44,127,4
3,42,127,4
3,44,127,4
3,39,127,388
3,40,127,4
3,42,127,4
3,42,127,4
3,37,127,580
3,37,127,100
3,40,127,4
3,42,127,4
3,37,127,4
3,37,127,4
3,37,127,388
3,37,127,4
3,35,127,4
3,35,127,4
3,35,127,388
3,35,127,4
3,30,127,4
3,30,127,4
3,35,127,388
3,37,127,4
3,37,127,100
3,40,127,4
3,42,127,4
3,37,127,4
3,37,127,4
3,44,127,388
3,44,127,4
3,42,127,4
3,44,127,4
3,39,127,388
3,40,127,4
3,42,127,4
3,42,127,4
3,37,127,580
3,37,127,100
3,40,127,4
3,42,127,4
3,37,127,4
3,37,127,4
3,37,127,388
3,37,127,4
3,35,127,4
3,35,127,4
3,35,127,388
3,35,127,4
3,30,127,4
3,30,127,4
3,35,127,388
3,37,127,4
3,37,127,100
3,40,127,4
3,42,127,4
3,37,127,4
3,37,127,4
3,44,127,388
3,44,127,4
3,42,127,4
3,44,127,4
3,39,127,388
3,40,127,4
3,42,127,4
3,42,127,4
3,37,127,580
3,37,127,100
3,40,127,4
3,42,127,4
3,37,127,4
3,37,127,4
3,37,127,388
3,37,127,4
3,35,127,4
3,35,127,4
3,35,127,388
3,35,127,4
3,30,127,4
3,30,127,4
3,35,127,388
3,37,127,4
3,37,127,100
3,40,127,4
3,42,127,4
3,37,127,4
3,37,127,4
3,44,127,388
3,44,127,4
3,42,127,4
3,44,127,4
3,39,127,388
3,40,127,4
3,42,127,4
3,42,127,4
3,37,127,14404
3,37,127,100
3,40,127,4
3,42,127,4
3,37,127,4
3,37,127,4
3,37,127,388
3,37,127,4
3,35,127,4
3,35,127,4
3,35,127,388
3,35,127,4
3,30,127,4
3,30,127,4
3,35,127,388
3,37,127,4
3,37,127,100
3,40,127,4
3,42,127,4
3,37,127,4
3,37,127,4
3,44,127,388
3,44,127,4
3,42,127,4
3,44,127,4
3,39,127,388
3,40,127,4
3,42,127,4
3,42,127,4
3,37,127,580
3,37,127,100
3,40,127,4
3,42,127,4
3,37,127,4
3,37,127,4
3,37,127,388
3,37,127,4
3,35,127,4
3,35,127,4
3,35,127,388
3,35,127,4
3,30,127,4
3,30,127,4
3,35,127,388
3,37,127,4
3,37,127,100
3,40,127,4
3,42,127,4
3,37,127,4
3,37,127,4
3,44,127,388
3,44,127,4
3,42,127,4
3,44,127,4
3,39,127,388
3,40,127,4
3,42,127,4
3,42,127,4
3,37,127,580
3,37,127,100
3,37,127,292
3,32,127,4
3,35,127,4
3,36,127,4
3,37,127,4
3,37,127,100
3,37,127,292
3,32,127,4
3,35,127,4
3,36,127,4
3,37,127,4
3,37,127,100
3,37,127,292
3,32,127,4
3,35,127,4
3,36,127,4
3,37,127,4
3,37,127,100
3,37,127,292
3,32,127,4
3,35,127,4
3,36,127,4
3,37,127,4
3,37,127,100
3,37,127,292
3,32,127,4
3,35,127,4
3,36,127,4
3,37,127,4
3,37,127,100
3,37,127,292
3,32,127,4
3,35,127,4
3,36,127,4
3,37,127,4
3,37,127,100
3,37,127,292
3,32,127,4
3,35,127,4
3,36,127,4
3,37,127,4
3,37,127,100
3,37,127,292
3,32,127,4
3,35,127,4
3,36,127,4
3,37,127,4
3,37,127,100
3,40,127,4
3,42,127,4
3,37,127,4
3,37,127,4
3,37,127,388
3,37,127,4
3,35,127,4
3,35,127,4
3,35,127,388
3,35,127,4
3,30,127,4
3,30,127,4
3,35,127,388
3,37,127,4
3,37,127,100
3,40,127,4
3,42,127,4
3,37,127,4
3,37,127,4
3,44,127,388
3,44,127,4
3,42,127,4
3,44,127,4
3,39,127,388
3,40,127,4
3,42,127,4
3,42,127,4
3,37,127,580
3,37,127,100
3,40,127,4
3,42,127,4
3,37,127,4
3,37,127,4
3,37,127,388
3,37,127,4
3,35,127,4
3,35,127,4
3,35,127,388
3,35,127,4
3,30,127,4
3,30,127,4
3,35,127,388
3,37,127,4
3,37,127,100
3,40,127,4
3,42,127,4
3,37,127,4
3,37,127,4
3,44,127,388
3,44,127,4
3,42,127,4
3,44,127,4
3,39,127,388
3,40,127,4
3,42,127,4
3,42,127,4
3,37,127,580
3,37,127,100
3,37,127,292
3,32,127,4
3,35,127,4
3,36,127,4
3,37,127,4
3,37,127,100
3,37,127,292
3,32,127,4
3,35,127,4
3,36,127,4
3,37,127,4
3,37,127,100
3,37,127,292
3,32,127,4
3,35,127,4
3,36,127,4
3,37,127,4
3,37,127,100
3,37,127,292
3,32,127,4
3,35,127,4
3,36,127,4
3,37,127,4
3,37,127,100
3,37,127,292
3,32,127,4
3,35,127,4
3,36,127,4
3,37,127,4
3,37,127,100
3,37,127,292
3,32,127,4
3,35,127,4
3,36,127,4
3,37,127,4
3,37,127,100
3,37,127,292
3,32,127,4
3,35,127,4
3,36,127,4
3,37,127,4
3,37,127,100
3,37,127,292
3,32,127,4
3,35,127,4
3,36,127,4
3,37,127,4
3,37,127,100
3,37,127,292
3,32,127,4
3,35,127,4
3,36,127,4
3,37,127,4
3,37,127,100
3,37,127,292
3,32,127,4
3,35,127,4
3,36,127,4
3,37,127,4
3,37,127,100
3,37,127,292
3,32,127,4
3,35,127,4
3,36,127,4
3,37,127,4
3,37,127,100
3,37,127,292
3,32,127,4
3,35,127,4
3,36,127,4
3,37,127,4
4,68,110,6336
4,61,113,0
4,64,122,0
4,68,110,332
4,64,127,0
4,61,118,0
4,64,122,336
4,68,106,0
4,61,113,0
4,68,106,336
4,64,122,0
4,61,113,0
4,63,122,336
4,66,106,0
4,59,113,0
4,63,122,336
4,59,118,0
4,66,113,0
4,66,87,332
4,61,106,0
4,58,106,0
4,66,84,316
4,61,100,0
4,58,118,0
4,64,87,320
4,68,82,0
4,61,97,0
4,64,110,336
4,61,103,0
4,68,100,0
4,68,97,336
4,64,110,0
4,61,106,0
4,61,103,336
4,68,100,0
4,64,127,0
4,66,100,332
4,59,103,0
4,63,122,0
4,63,113,336
4,59,113,0
4,66,103,0
4,66,85,336
4,61,103,0
4,58,110,0
4,66,82,324
4,61,103,0
4,58,100,0
4,68,110,328
4,61,113,0
4,64,122,0
4,68,110,332
4,64,127,0
4,61,118,0
4,64,122,336
4,68,106,0
4,61,113,0
4,68,106,336
4,64,122,0
4,61,113,0
4,63,122,336
4,66,106,0
4,59,113,0
4,63,122,336
4,59,118,0
4,66,113,0
4,66,87,332
4,61,106,0
4,58,106,0
4,66,84,316
4,61,100,0
4,58,118,0
4,64,87,320
4,68,82,0
4,61,97,0
4,64,110,336
4,61,103,0
4,68,100,0
4,68,97,336
4,64,110,0
4,61,106,0
4,61,103,336
4,68,100,0
4,64,127,0
4,66,100,332
4,59,103,0
4,63,122,0
4,63,113,336
4,59,113,0
4,66,103,0
4,66,85,336
4,61,103,0
4,58,110,0
4,61,106,708
4,68,106,0
4,65,127,0
4,68,103,336
4,61,113,0
4,65,127,0
4,68,97,352
4,61,106,0
4,65,127,0
4,68,106,340
4,61,103,0
4,65,127,0
4,63,127,340
4,66,113,0
4,59,113,0
4,63,127,336
4,59,118,0
4,66,103,0
4,66,87,336
4,61,113,0
4,58,122,0
4,61,127,320
4,66,97,0
4,58,127,0
4,68,94,332
4,61,106,0
4,65,127,0
4,68,100,336
4,61,106,0
4,65,127,0
4,61,103,340
4,68,94,0
4,65,122,0
4,61,106,340
4,65,127,0
4,68,106,0
4,63,85,344
4,68,80,0
4,60,103,0
4,68,82,336
4,63,90,0
4,60,110,0
4,63,90,328
4,68,85,0
4,60,110,0
4,63,127,336
4,68,103,0
4,60,113,0
4,61,113,332
4,65,122,0
4,68,106,0
4,61,103,336
4,68,100,0
4,65,127,0
4,68,97,336
4,61,100,0
4,65,127,0
4,68,100,336
4,65,127,0
4,61,100,0
4,61,92,344
4,66,122,0
4,70,127,0
4,61,92,340
4,66,110,0
4,70,113,0
4,69,103,348
4,66,122,0
4,61,106,0
4,66,118,344
4,61,103,0
4,69,97,0
4,68,97,336
4,61,100,0
4,65,122,0
4,61,97,340
4,65,118,0
4,68,77,0
4,69,72,0
4,63,122,332
4,68,94,0
4,60,110,0
4,63,113,332
4,68,97,0
4,60,118,0
4,61,85,328
4,66,77,0
4,58,100,0
4,66,76,336
4,61,85,0
4,58,87,0
4,66,78,336
4,61,92,0
4,58,84,0
4,58,90,328
4,61,82,0
4,66,80,0
4,64,100,336
4,56,106,0
4,61,106,0
4,64,100,332
4,56,106,0
4,61,106,0
4,64,94,336
4,61,118,0
4,56,113,0
4,64,94,336
4,56,100,0
4,61,100,0
4,63,92,332
4,59,103,0
4,54,100,0
4,59,103,332
4,63,92,0
4,54,106,0
4,61,97,336
4,58,122,0
4,54,106,0
4,58,127,344
4,61,100,0
4,54,106,0
4,64,100,336
4,56,106,0
4,61,106,0
4,64,100,332
4,56,106,0
4,61,106,0
4,64,94,336
4,61,118,0
4,56,113,0
4,64,94,336
4,56,100,0
4,61,100,0
4,63,92,332
4,59,103,0
4,54,100,0
4,59,103,332
4,63,92,0
4,54,106,0
4,61,97,336
4,58,122,0
4,54,106,0
4,58,127,344
4,61,100,0
4,54,106,0
4,64,100,336
4,56,106,0
4,61,106,0
4,64,100,332
4,56,106,0
4,61,106,0
4,64,94,336
4,61,118,0
4,56,113,0
4,64,94,336
4,56,100,0
4,61,100,0
4,63,92,332
4,59,103,0
4,54,100,0
4,59,103,332
