track,note,velocity,time
0,42,55,534
0,42,0,10
0,42,40,182
0,42,0,10
0,60,90,135
0,42,42,47
0,42,0,3
0,42,40,159
0,42,0,10
0,35,109,183
0,42,81,0
0,49,95,0
0,54,69,1
0,70,57,0
0,82,65,0
0,60,0,1
0,35,0,8
0,42,0,0
0,49,0,0
0,54,0,1
0,70,0,0
0,82,0,0
0,54,44,38
0,82,39,0
0,54,0,10
0,82,0,0
0,42,68,37
0,54,57,1
0,70,35,0
0,82,52,0
0,59,94,1
0,62,94,0
0,66,94,0
0,42,0,8
0,54,0,1
0,70,0,0
0,82,0,0
0,59,0,23
0,62,0,0
0,66,0,0
0,35,105,14
0,54,39,1
0,82,20,0
0,35,0,9
0,54,0,1
0,82,0,0
0,35,103,37
0,38,103,0
0,42,85,0
0,35,99,1
0,39,94,0
0,54,71,0
0,70,55,0
0,78,97,0
0,82,65,0
0,35,0,9
0,38,0,0
0,42,0,0
0,39,0,1
0,54,0,0
0,70,0,0
0,82,0,0
0,35,0,18
0,35,99,1
0,39,82,0
0,54,44,0
0,76,92,0
0,82,40,0
0,39,0,10
0,54,0,0
0,82,0,0
0,35,0,18
0,42,70,19
0,35,99,1
0,39,87,0
0,54,60,0
0,70,37,0
0,78,96,0
0,82,50,0
0,59,94,1
0,62,94,0
0,66,94,0
0,42,0,8
0,39,0,1
0,54,0,0
0,70,0,0
0,82,0,0
0,35,0,18
0,59,0,5
0,62,0,0
0,66,0,0
0,40,94,14
0,35,99,1
0,39,75,0
0,54,42,0
0,76,89,0
0,82,20,0
0,40,0,9
0,39,0,1
0,54,0,0
0,82,0,0
0,35,0,18
0,35,107,19
0,42,82,0
0,38,99,1
0,54,70,0
0,70,54,0
0,78,101,0
0,82,64,0
0,35,0,9
0,42,0,0
0,54,0,1
0,70,0,0
0,82,0,0
0,35,93,37
0,54,44,1
0,82,42,0
0,35,0,9
0,54,0,1
0,82,0,0
0,35,87,37
0,38,0,0
0,42,66,0
0,77,73,0
0,35,99,1
0,54,59,0
0,70,38,0
0,71,95,0
0,82,52,0
0,59,94,1
0,62,94,0
0,66,94,0
0,35,0,8
0,42,0,0
0,77,0,0
0,54,0,1
0,70,0,0
0,82,0,0
0,59,0,23
0,62,0,0
0,66,0,0
0,77,66,14
0,54,39,1
0,82,22,0
0,77,0,1
0,54,0,1
0,82,0,0
0,35,0,4
0,35,109,33
0,38,103,0
0,42,84,0
0,77,71,0
0,33,99,1
0,39,86,0
0,54,68,0
0,70,58,0
0,71,91,0
0,82,64,0
0,35,0,9
0,38,0,0
0,42,0,0
0,77,0,0
0,39,0,1
0,54,0,0
0,70,0,0
0,82,0,0
0,77,64,37
0,54,44,1
0,82,41,0
0,77,0,9
0,54,0,1
0,82,0,0
0,33,0,4
0,42,69,33
0,77,69,0
0,35,99,1
0,54,57,0
0,69,86,0
0,70,39,0
0,82,52,0
0,59,94,1
0,62,94,0
0,66,94,0
0,42,0,8
0,77,0,0
0,54,0,1
0,70,0,0
0,82,0,0
0,59,0,23
0,62,0,0
0,66,0,0
0,69,53,14
0,77,57,0
0,54,41,1
0,82,17,0
0,69,0,9
0,77,0,0
0,54,0,1
0,82,0,0
0,35,109,37
0,35,0,0
0,42,81,0
0,54,69,1
0,70,55,0
0,71,94,0
0,82,65,0
0,35,0,9
0,42,0,0
0,54,0,1
0,70,0,0
0,82,0,0
0,54,44,38
0,82,39,0
0,54,0,10
0,82,0,0
0,42,68,37
0,54,57,1
0,70,42,0
0,82,52,0
0,59,94,1
0,64,94,0
0,67,94,0
0,42,0,8
0,54,0,1
0,70,0,0
0,82,0,0
0,59,0,23
0,64,0,0
0,67,0,0
0,35,105,14
0,54,39,1
0,79,85,0
0,82,20,0
0,35,0,9
0,54,0,1
0,82,0,0
0,35,103,37
0,38,103,0
0,42,85,0
0,39,86,1
0,54,71,0
0,70,58,0
0,82,65,0
0,35,0,9
0,38,0,0
0,42,0,0
0,39,0,1
0,54,0,0
0,70,0,0
0,82,0,0
0,54,44,38
0,82,40,0
0,54,0,10
0,82,0,0
0,42,70,27
0,54,60,1
0,70,42,0
0,78,95,0
0,82,50,0
0,59,94,1
0,64,94,0
0,67,94,0
0,42,0,8
0,54,0,1
0,70,0,0
0,82,0,0
0,59,0,23
0,64,0,0
0,67,0,0
0,40,94,14
0,54,42,1
0,82,20,0
0,40,0,9
0,54,0,1
0,82,0,0
0,35,109,37
0,42,82,0
0,26,101,1
0,54,70,0
0,70,54,0
0,82,64,0
0,35,0,9
0,42,0,0
0,54,0,1
0,70,0,0
0,82,0,0
0,54,44,38
0,82,42,0
0,54,0,10
0,82,0,0
0,26,0,37
0,42,66,0
0,28,99,1
0,54,59,0
0,70,40,0
0,82,52,0
0,59,94,1
0,64,94,0
0,67,94,0
0,42,0,8
0,54,0,1
0,70,0,0
0,82,0,0
0,59,0,23
0,64,0,0
0,67,0,0
0,69,44,14
0,54,39,1
0,82,22,0
0,28,0,4
0,69,0,5
0,54,0,1
0,82,0,0
0,35,107,27
0,38,103,0
0,42,84,0
0,33,101,1
0,39,86,0
0,54,68,0
0,70,57,0
0,76,92,0
0,82,64,0
0,35,0,9
0,38,0,0
0,42,0,0
0,39,0,1
0,54,0,0
0,70,0,0
0,82,0,0
0,54,44,38
0,82,41,0
0,54,0,10
0,82,0,0
0,33,0,37
0,42,69,0
0,30,99,1
0,54,57,0
0,70,39,0
0,82,52,0
0,59,94,1
0,64,94,0
0,67,94,0
0,42,0,8
0,54,0,1
0,70,0,0
0,82,0,0
0,59,0,23
0,64,0,0
0,67,0,0
0,35,101,7
0,54,41,1
0,82,17,0
0,35,0,9
0,54,0,1
0,82,0,0
0,30,0,37
0,35,109,0
0,42,81,0
0,54,69,1
0,70,57,0
0,82,65,0
0,35,0,9
0,42,0,0
0,54,0,1
0,70,0,0
0,82,0,0
0,54,44,38
0,82,39,0
0,54,0,10
0,82,0,0
0,42,68,37
0,54,57,1
0,70,35,0
0,82,52,0
0,59,94,1
0,62,94,0
0,66,94,0
0,42,0,8
0,54,0,1
0,70,0,0
0,82,0,0
0,59,0,23
0,62,0,0
0,66,0,0
0,35,105,14
0,54,39,1
0,82,20,0
0,35,0,9
0,54,0,1
0,82,0,0
0,35,103,37
0,38,103,0
0,42,85,0
0,35,99,1
0,39,94,0
0,54,71,0
0,70,55,0
0,78,97,0
0,82,65,0
0,35,0,9
0,38,0,0
0,42,0,0
0,39,0,1
0,54,0,0
0,70,0,0
0,82,0,0
0,35,0,18
0,35,99,1
0,39,82,0
0,54,44,0
0,76,92,0
0,82,40,0
0,39,0,10
0,54,0,0
0,82,0,0
0,35,0,18
0,42,70,19
0,35,99,1
0,39,87,0
0,54,60,0
0,70,37,0
0,78,96,0
0,82,50,0
0,59,94,1
0,62,94,0
0,66,94,0
0,42,0,8
0,39,0,1
0,54,0,0
0,70,0,0
0,82,0,0
0,35,0,18
0,59,0,5
0,62,0,0
0,66,0,0
0,40,94,14
0,35,99,1
0,39,75,0
0,54,42,0
0,76,89,0
0,82,20,0
0,40,0,9
0,39,0,1
0,54,0,0
0,82,0,0
0,35,0,18
0,35,107,19
0,42,82,0
0,38,99,1
0,54,70,0
0,70,54,0
0,78,101,0
0,82,64,0
0,35,0,9
0,42,0,0
0,54,0,1
0,70,0,0
0,82,0,0
0,35,93,37
0,54,44,1
0,82,42,0
0,35,0,9
0,54,0,1
0,82,0,0
0,35,87,37
0,38,0,0
0,42,66,0
0,77,73,0
0,35,99,1
0,54,59,0
0,70,38,0
0,71,95,0
0,82,52,0
0,59,94,1
0,62,94,0
0,66,94,0
0,35,0,8
0,42,0,0
0,77,0,0
0,54,0,1
0,70,0,0
0,82,0,0
0,59,0,23
0,62,0,0
0,66,0,0
0,77,66,14
0,54,39,1
0,82,22,0
0,77,0,1
0,54,0,1
0,82,0,0
0,35,0,4
0,35,109,33
0,38,103,0
0,42,84,0
0,77,71,0
0,33,99,1
0,39,86,0
0,54,68,0
0,70,58,0
0,71,91,0
0,82,64,0
0,35,0,9
0,38,0,0
0,42,0,0
0,77,0,0
0,39,0,1
0,54,0,0
0,70,0,0
0,82,0,0
0,77,64,37
0,54,44,1
0,82,41,0
0,77,0,9
0,54,0,1
0,82,0,0
0,33,0,4
0,71,109,33
0,42,69,0
0,77,69,0
0,35,99,1
0,54,57,0
0,69,86,0
0,70,39,0
0,82,52,0
0,59,94,1
0,62,94,0
0,66,94,0
0,42,0,8
0,77,0,0
0,54,0,1
0,70,0,0
0,82,0,0
0,59,0,23
0,62,0,0
0,66,0,0
0,69,53,14
0,77,57,0
0,54,41,1
0,82,17,0
0,71,0,9
0,69,0,0
0,77,0,0
0,54,0,1
0,82,0,0
0,35,0,36
0,71,111,1
0,35,109,0
0,42,81,0
0,54,69,1
0,70,55,0
0,71,94,0
0,82,65,0
0,35,0,9
0,42,0,0
0,54,0,1
0,70,0,0
0,82,0,0
0,54,44,38
0,82,39,0
0,54,0,10
0,82,0,0
0,42,68,37
0,54,57,1
0,70,42,0
0,82,52,0
0,59,94,1
0,62,94,0
0,67,94,0
0,42,0,8
0,54,0,1
0,70,0,0
0,82,0,0
0,71,0,4
0,59,0,8
0,62,0,0
0,67,0,0
0,71,107,14
0,35,105,0
0,54,39,1
0,76,85,0
0,82,20,0
0,35,0,9
0,54,0,1
0,82,0,0
0,35,103,37
0,38,103,0
0,42,85,0
0,39,86,1
0,54,71,0
0,70,58,0
0,82,65,0
0,35,0,9
0,38,0,0
0,42,0,0
0,39,0,1
0,54,0,0
0,70,0,0
0,82,0,0
0,54,44,38
0,82,40,0
0,71,0,8
0,54,0,2
0,82,0,0
0,71,109,27
0,42,70,0
0,54,60,1
0,70,42,0
0,74,95,0
0,82,50,0
0,59,94,1
0,62,94,0
0,67,94,0
0,42,0,8
0,54,0,1
0,70,0,0
0,82,0,0
0,59,0,23
0,62,0,0
0,67,0,0
0,40,94,14
0,54,42,1
0,82,20,0
0,71,0,8
0,40,0,1
0,54,0,1
0,82,0,0
0,71,114,37
0,35,109,0
0,42,82,0
0,30,99,1
0,54,70,0
0,70,54,0
0,82,64,0
0,35,0,9
0,42,0,0
0,54,0,1
0,70,0,0
0,82,0,0
0,30,0,37
0,37,99,1
0,54,44,0
0,82,42,0
0,54,0,10
0,82,0,0
0,37,0,37
0,42,66,0
0,42,99,1
0,54,59,0
0,70,40,0
0,82,52,0
0,58,94,1
0,61,94,0
0,66,94,0
0,42,0,8
0,54,0,1
0,70,0,0
0,82,0,0
0,71,0,15
0,58,0,8
0,61,0,0
0,66,0,0
0,69,108,14
0,69,44,0
0,54,39,1
0,82,22,0
0,69,0,9
0,54,0,1
0,82,0,0
0,42,0,22
0,35,107,5
0,38,103,0
0,42,84,0
0,39,86,1
0,54,68,0
0,70,57,0
0,73,92,0
0,82,64,0
0,35,0,9
0,38,0,0
0,42,0,0
0,39,0,1
0,54,0,0
0,70,0,0
0,82,0,0
0,54,44,38
0,82,41,0
0,54,0,10
0,82,0,0
0,69,0,9
0,67,107,28
0,42,69,0
0,42,99,1
0,54,57,0
0,70,39,0
0,82,52,0
0,58,94,1
0,61,94,0
0,66,94,0
0,42,0,8
0,54,0,1
0,70,0,0
0,82,0,0
0,58,0,23
0,61,0,0
0,66,0,0
0,35,101,7
0,54,41,1
0,82,17,0
0,35,0,9
0,54,0,1
0,82,0,0
0,42,0,8
0,67,0,11
0,62,115,13
0,66,121,0
0,66,109,5
0,35,109,0
0,42,81,0
0,57,69,0
0,54,69,1
0,70,57,0
0,82,65,0
0,35,0,9
0,42,0,0
0,57,0,0
0,54,0,1
0,70,0,0
0,82,0,0
0,54,44,38
0,82,39,0
0,54,0,10
0,82,0,0
0,42,68,37
0,54,57,1
0,70,35,0
0,82,52,0
0,59,94,1
0,62,94,0
0,66,94,0
0,42,0,8
0,54,0,1
0,70,0,0
0,82,0,0
0,59,0,23
0,62,0,0
0,66,0,0
0,62,0,7
0,66,0,0
0,61,95,2
0,64,101,0
0,35,105,5
0,54,39,1
0,82,20,0
0,35,0,9
0,54,0,1
0,82,0,0
0,61,0,30
0,64,0,0
0,62,113,2
0,66,119,0
0,35,103,5
0,38,103,0
0,42,85,0
0,35,99,1
0,39,94,0
0,54,71,0
0,70,55,0
0,78,97,0
0,82,65,0
0,35,0,9
0,38,0,0
0,42,0,0
0,39,0,1
0,54,0,0
0,70,0,0
0,82,0,0
0,35,0,18
0,66,0,6
0,35,99,1
0,39,82,0
0,54,44,0
0,76,92,0
0,82,40,0
0,39,0,10
0,54,0,0
0,82,0,0
0,35,0,18
0,42,70,19
0,35,99,1
0,39,87,0
0,54,60,0
0,70,37,0
0,78,96,0
0,82,50,0
0,59,94,1
0,62,94,0
0,66,94,0
0,42,0,8
0,39,0,1
0,54,0,0
0,70,0,0
0,82,0,0
0,35,0,18
0,59,0,5
0,62,0,0
0,66,0,0
0,62,0,7
0,66,0,0
0,61,96,2
0,64,102,0
0,40,94,5
0,35,99,1
0,39,75,0
0,54,42,0
0,76,89,0
0,82,20,0
0,40,0,9
0,39,0,1
0,54,0,0
0,82,0,0
0,35,0,18
0,61,0,12
0,64,0,0
0,62,106,2
0,66,112,0
0,35,107,5
0,42,82,0
0,38,99,1
0,54,70,0
0,70,54,0
0,78,101,0
0,82,64,0
0,35,0,9
0,42,0,0
0,54,0,1
0,70,0,0
0,82,0,0
0,35,93,37
0,54,44,1
0,82,42,0
0,35,0,9
0,54,0,1
0,82,0,0
0,35,87,37
0,38,0,0
0,42,66,0
0,77,73,0
0,35,99,1
0,54,59,0
0,70,38,0
0,71,95,0
0,82,52,0
0,59,94,1
0,62,94,0
0,66,94,0
0,35,0,8
0,42,0,0
0,77,0,0
0,54,0,1
0,70,0,0
0,82,0,0
0,59,0,23
0,62,0,0
0,66,0,0
0,62,0,7
0,66,0,0
0,61,101,2
0,64,107,0
0,77,66,5
0,54,39,1
0,82,22,0
0,77,0,1
0,54,0,1
0,82,0,0
0,35,0,4
0,61,0,26
0,64,0,0
0,62,114,2
0,66,120,0
0,35,109,5
0,38,103,0
0,42,84,0
0,77,71,0
0,33,99,1
0,39,86,0
0,54,68,0
0,70,58,0
0,71,91,0
0,82,64,0
0,35,0,9
0,38,0,0
0,42,0,0
0,77,0,0
0,39,0,1
0,54,0,0
0,70,0,0
0,82,0,0
0,77,64,37
0,54,44,1
0,82,41,0
0,77,0,9
0,54,0,1
0,82,0,0
0,33,0,4
0,62,0,23
0,66,0,0
0,64,88,5
0,67,94,0
0,42,69,5
0,77,69,0
0,35,99,1
0,54,57,0
0,69,86,0
0,70,39,0
0,82,52,0
0,59,94,1
0,62,94,0
0,66,94,0
0,42,0,8
0,77,0,0
0,54,0,1
0,70,0,0
0,82,0,0
0,59,0,23
0,62,0,0
0,66,0,0
0,69,53,14
0,77,57,0
0,54,41,1
0,82,17,0
0,69,0,9
0,77,0,0
0,54,0,1
0,82,0,0
0,64,0,4
0,67,0,0
0,35,109,33
0,35,0,0
0,42,81,0
0,54,69,1
0,70,55,0
0,71,94,0
0,82,65,0
0,35,0,9
0,42,0,0
0,54,0,1
0,70,0,0
0,82,0,0
0,54,44,38
0,82,39,0
0,54,0,10
0,82,0,0
0,42,68,37
0,54,57,1
0,70,42,0
0,82,52,0
0,59,94,1
0,64,94,0
0,67,94,0
0,42,0,8
0,54,0,1
0,70,0,0
0,82,0,0
0,59,0,23
0,64,0,0
0,67,0,0
0,35,105,14
0,54,39,1
0,79,85,0
0,82,20,0
0,35,0,9
0,54,0,1
0,82,0,0
0,35,103,37
0,38,103,0
0,42,85,0
0,39,86,1
0,54,71,0
0,70,58,0
0,82,65,0
0,35,0,9
0,38,0,0
0,42,0,0
0,39,0,1
0,54,0,0
0,70,0,0
0,82,0,0
0,54,44,38
0,82,40,0
0,54,0,10
0,82,0,0
0,42,70,27
0,54,60,1
0,70,42,0
0,78,95,0
0,82,50,0
0,59,94,1
0,64,94,0
0,67,94,0
