track,note,velocity,time
1,40,98,3072
1,40,98,44
1,40,90,16
1,40,109,46
1,40,90,36
1,40,109,38
1,40,81,36
1,40,109,40
1,40,90,32
1,40,109,38
1,40,90,32
1,40,98,32
1,40,90,6
1,40,109,34
1,40,81,38
1,40,109,40
1,40,90,42
1,40,109,28
1,40,98,32
1,40,98,26
1,40,98,34
1,40,98,40
1,40,90,26
1,40,98,32
1,40,81,38
1,40,98,40
1,40,81,42
1,40,109,30
1,40,98,26
1,40,98,20
1,40,90,32
1,40,98,32
1,40,98,26
1,40,98,32
1,40,81,38
1,40,109,44
1,40,90,34
1,40,98,16
1,40,98,48
1,40,109,36
1,47,90,28
1,47,90,50
1,47,90,14
1,47,98,34
1,47,79,36
1,47,98,40
1,47,90,38
1,47,98,22
1,47,81,40
1,47,109,8
1,47,90,24
1,47,98,40
1,47,98,10
1,47,98,44
1,47,81,34
1,47,98,34
1,47,81,34
1,47,90,12
1,47,98,42
1,47,109,8
1,45,90,48
1,45,109,30
1,45,90,20
1,45,98,12
1,45,81,32
1,45,109,40
1,45,90,36
1,45,98,4
1,45,90,26
1,45,90,4
1,45,90,28
1,45,98,8
1,45,109,46
1,45,98,32
1,45,81,40
1,45,109,34
1,45,98,24
1,45,123,42
1,47,109,32
1,40,109,0
1,40,90,42
1,40,109,22
1,40,81,34
1,40,109,38
1,40,90,44
1,40,109,36
1,40,90,30
1,40,109,22
1,40,90,10
1,40,98,32
1,40,81,14
1,40,109,16
1,40,81,18
1,40,109,34
1,40,90,38
1,40,109,22
1,40,109,20
1,40,109,16
1,40,109,28
1,47,109,12
1,47,90,62
1,50,90,20
1,47,123,0
1,50,98,28
1,52,109,8
1,50,90,36
1,52,98,32
1,52,98,94
1,50,90,30
1,52,98,16
1,40,98,774
1,40,98,44
1,40,90,16
1,40,109,46
1,40,90,36
1,40,109,38
1,40,81,36
1,40,109,40
1,40,90,32
1,40,109,38
1,40,90,32
1,40,98,32
1,40,90,6
1,40,109,34
1,40,81,38
1,40,109,40
1,40,90,42
1,40,109,28
1,40,98,32
1,40,98,26
1,40,98,34
1,40,98,40
1,40,90,26
1,40,98,32
1,40,81,38
1,40,98,40
1,40,81,42
1,40,109,30
1,40,98,26
1,40,98,20
1,40,90,32
1,40,98,32
1,40,98,26
1,40,98,32
1,40,81,38
1,40,109,44
1,40,90,34
1,40,98,16
1,40,98,48
1,40,109,36
1,47,90,28
1,47,90,50
1,47,90,14
1,47,98,34
1,47,79,36
1,47,98,40
1,47,90,38
1,47,98,22
1,47,81,40
1,47,109,8
1,47,90,24
1,47,98,40
1,47,98,10
1,47,98,44
1,47,81,34
1,47,98,34
1,47,81,34
1,47,90,12
1,47,98,42
1,47,109,8
1,45,90,48
1,45,109,30
1,45,90,20
1,45,98,12
1,45,81,32
1,45,109,40
1,45,90,36
1,45,98,4
1,45,90,26
1,45,90,4
1,45,90,28
1,45,98,8
1,45,109,46
1,45,98,32
1,45,81,40
1,45,109,34
1,45,98,24
1,45,123,42
1,47,109,32
1,40,109,0
1,40,90,42
1,40,109,22
1,40,81,34
1,40,109,38
1,40,90,44
1,40,109,36
1,40,90,30
1,40,109,22
1,40,90,10
1,40,98,32
1,40,81,14
1,40,109,16
1,40,81,18
1,40,109,34
1,40,90,38
1,40,109,22
1,40,109,20
1,40,109,16
1,40,109,28
1,47,109,12
1,47,90,62
1,50,90,20
1,47,123,0
1,50,98,28
1,52,109,8
1,50,90,36
1,52,98,32
1,52,98,94
1,50,90,30
1,52,98,16
1,40,98,774
1,40,98,44
1,40,90,16
1,40,109,46
1,40,90,36
1,40,109,38
1,40,81,36
1,40,109,40
1,40,90,32
1,40,109,38
1,40,90,32
1,40,98,32
1,40,90,6
1,40,109,34
1,40,81,38
1,40,109,40
1,40,90,42
1,40,109,28
1,40,98,32
1,40,98,26
1,40,98,34
1,40,98,40
1,40,90,26
1,40,98,32
1,40,81,38
1,40,98,40
1,40,81,42
1,40,109,30
1,40,98,26
1,40,98,20
1,40,90,32
1,40,98,32
1,40,98,26
1,40,98,32
1,40,81,38
1,40,109,44
1,40,90,34
1,40,98,16
1,40,98,48
1,40,109,36
1,47,90,28
1,47,90,50
1,47,90,14
1,47,98,34
1,47,79,36
1,47,98,40
1,47,90,38
1,47,98,22
1,47,81,40
1,47,109,8
1,47,90,24
1,47,98,40
1,47,98,10
1,47,98,44
1,47,81,34
1,47,98,34
1,47,81,34
1,47,90,12
1,47,98,42
1,47,109,8
1,45,90,48
1,45,109,30
1,45,90,20
1,45,98,12
1,45,81,32
1,45,109,40
1,45,90,36
1,45,98,4
1,45,90,26
1,45,90,4
1,45,90,28
1,45,98,8
1,45,109,46
1,45,98,32
1,45,81,40
1,45,109,34
1,45,98,24
1,45,123,42
1,47,109,32
1,40,109,0
1,40,90,42
1,40,109,22
1,40,81,34
1,40,109,38
1,40,90,44
1,40,109,36
1,40,90,30
1,40,109,22
1,40,90,10
1,40,98,32
1,40,81,14
1,40,109,16
1,40,81,18
1,40,109,34
1,40,90,38
1,40,109,22
1,40,109,20
1,40,109,16
1,40,109,28
1,40,127,12
1,44,127,1490
1,47,98,96
1,50,74,40
1,40,109,384
1,40,123,2712
1,44,127,1484
1,47,90,116
1,50,81,40
1,40,109,34
1,52,81,1184
1,52,79,92
1,50,79,48
1,50,79,80
1,49,98,68
1,49,123,74
1,47,90,54
1,47,90,70
1,40,98,80
1,40,98,44
1,40,90,16
1,40,109,46
1,40,90,36
1,40,109,38
1,40,81,36
1,40,109,40
1,40,90,32
1,40,109,38
1,40,90,32
1,40,98,32
1,40,90,6
1,40,109,34
1,40,81,38
1,40,109,40
1,40,90,42
1,40,109,28
1,40,98,32
1,40,98,26
1,40,98,34
1,40,98,40
1,40,90,26
1,40,98,32
1,40,81,38
1,40,98,40
1,40,81,42
1,40,109,30
1,40,98,26
1,40,98,20
1,40,90,32
1,40,98,32
1,40,98,26
1,40,98,32
1,40,81,38
1,40,109,44
1,40,90,34
1,40,98,16
1,40,98,48
1,40,109,36
1,47,90,28
1,47,90,50
1,47,90,14
1,47,98,34
1,47,79,36
1,47,98,40
1,47,90,38
1,47,98,22
1,47,81,40
1,47,109,8
1,47,90,24
1,47,98,40
1,47,98,10
1,47,98,44
1,47,81,34
1,47,98,34
1,47,81,34
1,47,90,12
1,47,98,42
1,47,109,8
1,45,90,48
1,45,109,30
1,45,90,20
1,45,98,12
1,45,81,32
1,45,109,40
1,45,90,36
1,45,98,4
1,45,90,26
1,45,90,4
1,45,90,28
1,45,98,8
1,45,109,46
1,45,98,32
1,45,81,40
1,45,109,34
1,45,98,24
1,45,123,42
1,47,109,32
1,40,127,0
1,40,123,350
1,40,98,370
1,40,98,44
1,40,90,16
1,40,109,46
1,40,90,36
1,40,109,38
1,40,81,36
1,40,109,40
1,40,90,32
1,40,109,38
1,40,90,32
1,40,98,32
1,40,90,6
1,40,109,34
1,40,81,38
1,40,109,40
1,40,90,42
1,40,109,28
1,40,98,32
1,40,98,26
1,40,98,34
1,40,98,40
1,40,90,26
1,40,98,32
1,40,81,38
1,40,98,40
1,40,81,42
1,40,109,30
1,40,98,26
1,40,98,20
1,40,90,32
1,40,98,32
1,40,98,26
1,40,98,32
1,40,81,38
1,40,109,44
1,40,90,34
1,40,98,16
1,40,98,48
1,40,109,36
1,47,90,28
1,47,90,50
1,47,90,14
1,47,98,34
1,47,79,36
1,47,98,40
1,47,90,38
1,47,98,22
1,47,81,40
1,47,109,8
1,47,90,24
1,47,98,40
1,47,98,10
1,47,98,44
1,47,81,34
1,47,98,34
1,47,81,34
1,47,90,12
1,47,98,42
1,47,109,8
1,45,90,48
1,45,109,30
1,45,90,20
1,45,98,12
1,45,81,32
1,45,109,40
1,45,90,36
1,45,98,4
1,45,90,26
1,45,90,4
1,45,90,28
1,45,98,8
1,45,109,46
1,45,98,32
1,45,81,40
1,45,109,34
1,45,98,24
1,45,123,42
1,47,109,32
1,40,109,0
1,40,90,42
1,40,109,22
1,40,81,34
1,40,109,38
1,40,90,44
1,40,109,36
1,40,90,30
1,40,109,22
1,40,90,10
1,40,98,32
1,40,81,14
1,40,109,16
1,40,81,18
1,40,109,34
1,40,90,38
1,40,109,22
1,40,109,20
1,40,109,16
1,40,109,28
1,40,127,12
1,44,127,1490
1,47,98,96
1,50,74,40
1,40,109,384
1,40,123,2712
1,44,127,1484
1,47,90,116
1,50,81,40
1,40,109,34
1,40,127,2720
1,44,127,1490
1,47,98,96
1,50,74,40
1,40,109,384
1,40,123,2712
1,44,127,1484
1,47,90,116
1,50,81,40
1,40,109,34
1,52,81,1184
1,52,79,92
1,50,79,48
1,50,79,80
1,49,98,68
1,49,123,74
1,47,90,54
1,47,90,70
1,40,98,80
1,40,98,44
1,40,90,16
1,40,109,46
1,40,90,36
1,40,109,38
1,40,81,36
1,40,109,40
1,40,90,32
1,40,109,38
1,40,90,32
1,40,98,32
1,40,90,6
1,40,109,34
1,40,81,38
1,40,109,40
1,40,90,42
1,40,109,28
1,40,98,32
1,40,98,26
1,40,98,34
1,40,98,40
1,40,90,26
1,40,98,32
1,40,81,38
1,40,98,40
1,40,81,42
1,40,109,30
1,40,98,26
1,40,98,20
1,40,90,32
1,40,98,32
1,40,98,26
1,40,98,32
1,40,81,38
1,40,109,44
1,40,90,34
1,40,98,16
1,40,98,48
1,40,109,36
1,47,90,28
1,47,90,50
1,47,90,14
1,47,98,34
1,47,79,36
1,47,98,40
1,47,90,38
1,47,98,22
1,47,81,40
1,47,109,8
1,47,90,24
1,47,98,40
1,47,98,10
1,47,98,44
1,47,81,34
1,47,98,34
1,47,81,34
1,47,90,12
1,47,98,42
1,47,109,8
1,45,90,48
1,45,109,30
1,45,90,20
1,45,98,12
1,45,81,32
1,45,109,40
1,45,90,36
1,45,98,4
1,45,90,26
1,45,90,4
1,45,90,28
1,45,98,8
1,45,109,46
1,45,98,32
1,45,81,40
1,45,109,34
1,45,98,24
1,45,123,42
1,47,109,32
1,40,98,0
1,40,98,44
1,40,90,16
1,40,109,46
1,40,90,36
1,40,109,38
1,40,81,36
1,40,109,40
1,40,90,32
1,40,109,38
1,40,90,32
1,40,98,32
1,40,90,6
1,40,109,34
1,40,81,38
1,40,109,40
1,40,90,42
1,40,109,28
1,40,98,32
1,40,98,26
1,40,98,34
1,40,98,40
1,40,90,26
1,40,98,32
1,40,81,38
1,40,98,40
1,40,81,42
1,40,109,30
1,40,98,26
1,40,98,20
1,40,90,32
1,40,98,32
1,40,98,26
1,40,98,32
1,40,81,38
1,40,109,44
1,40,90,34
1,40,98,16
1,40,98,48
1,40,109,36
1,47,90,28
1,47,90,50
1,47,90,14
1,47,98,34
1,47,79,36
1,47,98,40
1,47,90,38
1,47,98,22
1,47,81,40
1,47,109,8
1,47,90,24
1,47,98,40
1,47,98,10
1,47,98,44
1,47,81,34
1,47,98,34
1,47,81,34
1,47,90,12
1,47,98,42
1,47,109,8
1,45,90,48
1,45,109,30
1,45,90,20
1,45,98,12
1,45,81,32
1,45,109,40
1,45,90,36
1,45,98,4
1,45,90,26
1,45,90,4
1,45,90,28
1,45,98,8
1,45,109,46
1,45,98,32
1,45,81,40
1,45,109,34
1,45,98,24
1,45,123,42
1,47,109,32
1,40,109,0
1,47,109,0
1,40,90,42
1,40,109,22
1,40,81,34
1,40,109,38
1,40,90,44
1,40,109,36
1,40,90,30
1,40,109,22
1,40,90,10
1,40,98,32
1,40,81,14
1,40,109,16
1,40,81,18
1,40,109,34
1,40,90,38
1,40,109,22
1,40,109,20
1,40,109,16
1,40,109,28
1,47,109,12
1,47,90,62
1,50,90,20
1,47,123,0
1,50,98,28
1,52,109,8
1,50,90,36
1,47,109,32
1,47,90,62
1,50,90,20
1,47,123,0
1,50,98,28
1,52,109,8
1,50,90,36
1,47,109,32
1,47,90,62
1,50,90,20
1,47,123,0
1,50,98,28
1,52,109,8
1,50,90,36
1,52,98,32
1,41,127,2
1,44,127,2
1,54,127,0
1,44,127,0
1,52,98,80
1,44,127,4
1,54,127,0
1,50,90,30
1,39,127,4
1,44,127,0
1,54,127,0
1,52,98,16
1,44,127,4
1,54,127,0
1,40,98,774
1,40,98,44
1,40,90,16
1,40,109,46
1,40,90,36
1,40,109,38
1,40,81,36
1,40,109,40
1,40,90,32
1,40,109,38
1,40,90,32
1,40,98,32
1,40,90,6
1,40,109,34
1,40,81,38
1,40,109,40
1,40,90,42
1,40,109,28
1,40,98,32
1,40,98,26
1,40,98,34
1,40,98,40
1,40,90,26
1,40,98,32
1,40,81,38
1,40,98,40
1,40,81,42
1,40,109,30
1,40,98,26
1,40,98,20
1,40,90,32
1,40,98,32
1,40,98,26
1,40,98,32
1,40,81,38
1,40,109,44
1,40,90,34
1,40,98,16
1,40,98,48
1,40,109,36
1,47,90,28
1,47,90,50
1,47,90,14
1,47,98,34
1,47,79,36
1,47,98,40
1,47,90,38
1,47,98,22
1,47,81,40
1,47,109,8
1,47,90,24
1,47,98,40
1,47,98,10
1,47,98,44
1,47,81,34
1,47,98,34
1,47,81,34
1,47,90,12
1,47,98,42
1,47,109,8
1,45,90,48
1,45,109,30
1,45,90,20
1,45,98,12
1,45,81,32
1,45,109,40
1,45,90,36
1,45,98,4
1,45,90,26
1,45,90,4
1,45,90,28
1,45,98,8
1,45,109,46
1,45,98,32
1,45,81,40
1,45,109,34
1,45,98,24
1,45,123,42
1,47,109,32
1,40,109,0
1,40,90,42
1,40,109,22
1,40,81,34
1,40,109,38
1,40,90,44
1,40,109,36
1,40,90,30
1,40,109,22
1,40,90,10
1,40,98,32
1,40,81,14
1,40,109,16
1,40,81,18
1,40,109,34
1,40,90,38
1,40,109,22
1,40,109,20
1,40,109,16
1,40,109,28
1,40,127,12
1,44,127,1490
1,47,98,96
1,50,74,40
1,40,109,384
1,40,123,2712
1,44,127,1484
1,47,90,116
1,50,81,40
1,40,109,34
1,40,127,2720
1,44,127,1490
1,47,98,96
1,50,74,40
1,40,109,384
1,40,123,2712
1,44,127,1484
1,47,90,116
1,50,81,40
1,40,109,34
1,40,127,2720
1,44,127,1490
1,47,98,96
1,50,74,40
1,40,109,384
1,52,109,2712
2,76,80,3072
2,71,64,0
2,68,99,0
2,64,99,0
2,76,71,46
2,71,56,0
2,68,88,0
2,64,80,0
2,71,56,50
2,76,69,0
2,68,127,0
2,64,88,0
2,76,80,44
2,71,60,0
2,68,113,0
2,64,88,0
2,76,80,42
2,71,64,0
2,68,127,0
2,64,113,0
2,73,99,112
2,69,60,0
2,64,99,0
2,73,71,52
2,69,56,0
2,64,88,0
2,73,71,50
2,69,49,0
2,64,113,0
2,73,71,50
2,69,56,0
2,64,113,0
2,73,99,42
2,69,60,0
2,64,113,0
2,76,71,524
2,71,56,0
2,68,113,0
2,64,113,0
2,76,69,46
2,71,56,0
2,68,99,0
2,64,88,0
2,71,52,48
2,76,69,0
2,68,113,0
2,64,113,0
2,71,56,40
2,76,69,0
2,68,88,0
2,64,88,0
2,76,80,34
2,71,64,0
2,68,127,0
2,64,113,0
2,73,99,132
2,69,64,0
2,64,113,0
2,73,71,52
2,69,49,0
2,64,88,0
2,73,88,48
2,69,60,0
2,64,113,0
2,73,80,50
2,69,49,0
2,64,88,0
2,73,88,18
2,69,60,0
2,64,99,0
2,76,71,526
2,71,56,0
2,68,113,0
2,64,113,0
2,76,69,44
2,71,52,0
2,68,99,0
2,64,88,0
2,76,71,52
2,71,56,0
2,68,127,0
2,64,99,0
2,76,71,40
2,71,52,0
2,68,99,0
2,64,99,0
2,76,71,44
2,71,60,0
2,68,113,0
2,64,113,0
2,73,88,122
2,69,60,0
2,64,99,0
2,73,80,56
2,69,56,0
2,64,88,0
2,73,80,56
2,69,56,0
2,64,113,0
2,73,71,56
2,69,56,0
2,64,99,0
2,73,88,48
2,69,64,0
2,64,113,0
2,76,64,532
2,71,52,0
2,68,127,0
2,64,99,0
2,76,71,44
2,71,43,0
2,68,88,0
2,64,80,0
2,71,56,50
2,76,71,0
