track,note,velocity,time
2,72,79,8256
2,72,0,32
2,74,79,16
2,74,0,32
2,74,79,16
2,74,0,64
2,72,79,224
2,72,0,32
2,74,79,16
2,74,0,32
2,74,79,16
2,74,0,64
2,72,79,32
2,72,0,32
2,69,79,16
2,69,0,32
2,72,79,16
2,72,0,48
2,74,79,0
2,74,0,32
2,72,79,16
2,72,0,32
2,69,79,16
2,69,0,112
2,69,79,560
2,69,0,32
2,72,79,16
2,72,0,32
2,74,79,16
2,74,0,32
2,74,79,16
2,74,0,64
2,72,79,32
2,72,0,64
2,69,79,128
2,69,0,32
2,67,79,16
2,67,0,32
2,69,79,16
2,69,0,64
2,72,79,32
2,72,0,64
2,69,79,32
2,69,0,64
2,69,79,32
2,69,0,32
2,69,79,16
2,69,0,32
2,74,79,16
2,74,0,32
2,72,79,16
2,72,0,32
2,69,79,16
2,69,0,64
2,69,79,32
2,69,0,64
2,69,79,464
2,69,0,32
2,74,79,16
2,74,0,64
2,69,79,224
2,69,0,32
2,69,79,16
2,69,0,32
2,74,79,16
2,74,0,32
2,77,79,16
2,77,0,32
2,76,79,16
2,76,0,32
2,74,79,16
2,74,0,32
2,74,79,0
2,74,0,64
2,72,79,744
2,72,0,126
2,69,79,66
2,69,0,64
2,67,79,32
2,67,0,64
2,69,79,32
2,69,0,96
2,69,79,48
2,69,0,112
2,72,79,128
2,72,0,126
2,69,79,66
2,69,0,32
2,67,79,16
2,67,0,80
2,69,79,16
2,69,0,112
2,69,79,272
2,69,0,32
2,72,79,16
2,72,0,64
2,69,79,32
2,69,0,64
2,69,79,32
2,69,0,96
2,67,79,0
2,67,0,64
2,69,79,32
2,69,0,64
2,72,79,32
2,72,0,32
2,69,79,16
2,69,0,112
2,69,79,704
2,69,0,32
2,67,79,16
2,67,0,32
2,65,79,16
2,65,0,64
2,74,79,32
2,74,0,64
2,69,79,512
2,69,0,32
2,67,79,16
2,67,0,32
2,65,79,16
2,65,0,64
2,77,79,32
2,77,0,64
2,74,79,32
2,74,0,32
2,74,79,16
2,74,0,80
2,69,79,352
2,69,0,32
2,67,79,16
2,67,0,32
2,65,79,16
2,65,0,32
2,62,79,16
2,62,0,32
2,72,79,16
2,72,0,144
2,69,79,0
2,69,0,112
2,72,79,1184
2,72,0,32
2,74,79,16
2,74,0,32
2,74,79,16
2,74,0,64
2,72,79,224
2,72,0,32
2,74,79,16
2,74,0,32
2,74,79,16
2,74,0,64
2,72,79,32
2,72,0,32
2,69,79,16
2,69,0,32
2,72,79,16
2,72,0,48
2,74,79,0
2,74,0,32
2,72,79,16
2,72,0,32
2,69,79,16
2,69,0,112
2,69,79,560
2,69,0,32
2,72,79,16
2,72,0,32
2,74,79,16
2,74,0,32
2,74,79,16
2,74,0,64
2,72,79,32
2,72,0,64
2,69,79,128
2,69,0,32
2,67,79,16
2,67,0,32
2,69,79,16
2,69,0,64
2,72,79,32
2,72,0,64
2,69,79,32
2,69,0,64
2,69,79,32
2,69,0,32
2,69,79,16
2,69,0,32
2,74,79,16
2,74,0,32
2,72,79,16
2,72,0,32
2,69,79,16
2,69,0,64
2,69,79,32
2,69,0,64
2,69,79,464
2,69,0,32
2,74,79,16
2,74,0,64
2,69,79,224
2,69,0,32
2,69,79,16
2,69,0,32
2,74,79,16
2,74,0,32
2,77,79,16
2,77,0,32
2,76,79,16
2,76,0,32
2,74,79,16
2,74,0,32
2,74,79,0
2,74,0,64
2,72,79,744
2,72,0,126
2,69,79,66
2,69,0,64
2,67,79,32
2,67,0,64
2,69,79,32
2,69,0,96
2,69,79,48
2,69,0,112
2,72,79,128
2,72,0,126
2,69,79,66
2,69,0,32
2,67,79,16
2,67,0,80
2,69,79,16
2,69,0,112
2,69,79,272
2,69,0,32
2,72,79,16
2,72,0,64
2,69,79,32
2,69,0,64
2,69,79,32
2,69,0,96
2,67,79,0
2,67,0,64
2,69,79,32
2,69,0,64
2,72,79,32
2,72,0,32
2,69,79,16
2,69,0,112
2,79,79,704
2,79,0,32
2,79,79,16
2,79,0,32
2,77,79,16
2,77,0,64
2,76,79,32
2,76,0,64
2,69,79,4400
2,69,0,32
2,72,79,16
2,72,0,32
2,74,79,16
2,74,0,32
2,74,79,16
2,74,0,64
2,74,79,224
2,74,0,32
2,72,79,16
2,72,0,32
2,74,79,16
2,74,0,64
2,72,79,32
2,72,0,32
2,69,79,16
2,69,0,32
2,74,79,16
2,74,0,64
2,72,79,32
2,72,0,32
2,69,79,16
2,69,0,112
2,69,79,560
2,69,0,32
2,72,79,16
2,72,0,32
2,74,79,16
2,74,0,32
2,74,79,16
2,74,0,64
2,72,79,32
2,72,0,64
2,69,79,128
2,69,0,32
2,67,79,16
2,67,0,32
2,69,79,16
2,69,0,64
2,72,79,32
2,72,0,64
2,69,79,32
2,69,0,64
2,69,79,32
2,69,0,32
2,69,79,16
2,69,0,32
2,74,79,16
2,74,0,32
2,72,79,16
2,72,0,32
2,69,79,16
2,69,0,64
2,69,79,32
2,69,0,64
2,72,79,464
2,72,0,32
2,74,79,16
2,74,0,64
2,69,79,224
2,69,0,32
2,67,79,16
2,67,0,32
2,74,79,16
2,74,0,32
2,77,79,16
2,77,0,32
2,76,79,16
2,76,0,32
2,74,79,16
2,74,0,32
2,74,79,0
2,74,0,4
2,72,79,744
2,72,0,126
2,69,79,66
2,69,0,64
2,67,79,32
2,67,0,64
2,69,79,32
2,69,0,96
2,69,79,48
2,69,0,112
2,72,79,128
2,72,0,126
2,69,79,66
2,69,0,32
2,67,79,16
2,67,0,80
2,69,79,16
2,69,0,112
2,69,79,272
2,69,0,32
2,72,79,16
2,72,0,64
2,69,79,32
2,69,0,64
2,69,79,32
2,69,0,96
2,67,79,0
2,67,0,64
2,69,79,32
2,69,0,64
2,72,79,32
2,72,0,32
2,69,79,16
2,69,0,112
2,81,79,704
2,81,0,32
2,79,79,16
2,79,0,32
2,77,79,16
2,77,0,64
2,74,79,32
2,74,0,64
2,69,79,512
2,69,0,32
2,67,79,16
2,67,0,32
2,65,79,16
2,65,0,64
2,77,79,32
2,77,0,64
2,74,79,32
2,74,0,32
2,74,79,16
2,74,0,80
2,69,79,352
2,69,0,32
2,67,79,16
2,67,0,32
2,65,79,16
2,65,0,32
2,62,79,16
2,62,0,32
2,72,79,16
2,72,0,192
2,72,79,0
2,72,0,48
2,69,79,0
2,69,0,112
2,72,79,272
2,72,0,32
2,72,79,16
2,72,0,32
2,72,79,16
2,72,0,32
2,72,79,16
2,72,0,32
2,72,79,16
2,72,0,32
2,72,79,16
2,72,0,64
2,81,79,464
2,81,0,80
2,77,79,16
2,77,0,32
2,74,79,16
2,74,0,64
2,72,79,224
2,72,0,32
2,74,79,16
2,74,0,32
2,74,79,16
2,74,0,64
2,72,79,32
2,72,0,32
2,69,79,16
2,69,0,32
2,74,79,16
2,74,0,64
2,72,79,32
2,72,0,32
2,69,79,16
2,69,0,112
2,81,79,608
2,81,0,32
2,77,79,16
2,77,0,32
2,74,79,16
2,74,0,64
2,72,79,224
2,72,0,32
2,74,79,16
2,74,0,32
2,74,79,16
2,74,0,64
2,72,79,32
2,72,0,32
2,69,79,16
2,69,0,32
2,74,79,16
2,74,0,64
2,72,79,32
2,72,0,32
2,69,79,16
2,69,0,112
2,72,79,608
2,72,0,32
2,74,79,16
2,74,0,32
2,74,79,16
2,74,0,64
3,72,79,5712
3,76,79,0
3,72,0,270
3,76,0,0
3,74,79,162
3,78,79,0
3,74,0,62
3,78,0,0
3,72,79,34
3,76,79,0
3,72,0,32
3,76,0,0
3,72,79,16
3,77,79,0
3,72,0,32
3,77,0,0
3,72,79,160
3,76,79,0
3,72,0,80
3,76,0,0
3,72,79,64
3,76,79,0
3,72,0,32
3,76,0,0
3,74,79,16
3,78,79,0
3,74,0,32
3,78,0,0
3,74,79,16
3,78,79,0
3,74,0,32
3,78,0,0
3,72,79,16
3,76,79,0
3,72,0,32
3,76,0,0
3,62,79,16
3,78,79,0
3,78,0,64
3,62,0,32
3,64,79,48
3,64,0,80
3,62,79,16
3,62,0,32
3,57,79,16
3,64,79,144
3,69,79,0
3,64,0,32
3,69,0,0
3,62,79,16
3,67,79,0
3,62,0,32
3,67,0,0
3,64,79,16
3,69,79,0
3,64,0,32
3,69,0,0
3,62,79,16
3,67,79,0
3,62,0,32
3,67,0,0
3,64,79,16
3,69,79,0
3,57,0,14
3,64,0,18
3,69,0,0
3,64,79,16
3,69,79,0
3,64,0,32
3,69,0,0
3,62,79,16
3,67,79,0
3,62,0,32
3,67,0,0
3,64,79,16
3,69,79,0
3,64,0,32
3,69,0,0
3,64,79,16
3,69,79,0
3,64,0,32
3,69,0,0
3,64,79,16
3,69,79,0
3,64,0,32
3,69,0,0
3,64,79,64
3,69,79,0
3,64,0,126
3,69,0,0
3,67,79,114
3,72,79,0
3,67,0,32
3,72,0,0
3,69,79,16
3,74,79,0
3,69,0,32
3,74,0,0
3,67,79,16
3,72,79,0
3,67,0,32
3,72,0,0
3,67,79,16
3,72,79,0
3,67,0,32
3,72,0,0
3,69,79,16
3,74,79,0
3,69,0,32
3,74,0,0
3,69,79,16
3,74,79,0
3,69,0,32
3,74,0,0
3,67,79,16
3,72,79,0
3,67,0,32
3,72,0,0
3,74,79,16
3,62,79,0
3,69,79,0
3,78,79,0
3,62,0,96
3,69,0,0
3,74,0,0
3,78,0,0
3,74,79,48
3,69,79,0
3,62,79,0
3,78,79,0
3,62,0,174
3,69,0,0
3,74,0,0
3,78,0,0
3,67,79,114
3,72,79,0
3,67,0,32
3,72,0,0
3,64,79,16
3,69,79,0
3,64,0,32
3,69,0,0
3,64,79,16
3,69,79,0
3,64,0,32
3,69,0,0
3,64,79,16
3,69,79,0
3,64,0,62
3,69,0,0
3,67,79,34
3,72,79,0
3,67,0,62
3,72,0,0
3,67,79,178
3,72,79,0
3,67,0,32
3,72,0,0
3,64,79,16
3,69,79,0
3,64,0,32
3,69,0,0
3,67,79,208
3,72,79,0
3,67,0,32
3,72,0,0
3,62,79,16
3,62,0,32
3,64,79,16
3,64,0,32
3,62,79,16
3,62,0,32
3,57,79,16
3,57,0,32
3,60,79,16
3,60,0,32
3,64,79,16
3,69,79,0
3,64,0,32
3,69,0,0
3,62,79,16
3,67,79,0
3,62,0,224
3,67,0,0
3,62,79,16
3,62,0,32
3,57,79,16
3,57,0,32
3,64,79,160
3,69,79,0
3,64,0,160
3,69,0,0
3,64,79,32
3,69,79,0
3,64,0,32
3,69,0,0
3,62,79,64
3,67,79,0
3,62,0,126
3,67,0,0
3,67,79,66
3,72,79,0
3,67,0,32
3,72,0,0
3,64,79,16
3,69,79,0
3,64,0,32
3,69,0,0
3,67,79,16
3,72,79,0
3,67,0,32
3,72,0,0
3,62,79,64
3,67,79,0
3,62,0,32
3,67,0,0
3,64,79,64
3,69,79,0
3,64,0,32
3,69,0,0
3,64,79,16
3,69,79,0
3,64,0,174
3,69,0,0
3,69,79,66
3,74,79,0
3,69,0,16
3,74,0,0
3,62,79,32
3,62,0,16
3,62,79,32
3,62,0,16
3,69,79,32
3,74,79,0
3,69,0,174
3,74,0,0
3,69,79,114
3,74,79,0
3,69,0,32
3,74,0,0
3,69,79,16
3,74,79,0
3,69,0,32
3,74,0,0
3,69,79,16
3,74,79,0
3,69,0,32
3,74,0,0
3,69,79,16
3,74,79,0
3,69,0,32
3,74,0,0
3,69,79,16
3,74,79,0
3,69,0,32
3,74,0,0
3,69,79,16
3,74,79,0
3,69,0,32
3,74,0,0
3,69,79,16
3,74,79,0
3,69,0,32
3,74,0,0
3,69,79,16
3,74,79,0
3,69,0,64
3,74,0,0
3,67,79,80
3,72,79,0
3,67,0,32
3,72,0,0
3,67,79,16
3,72,79,0
3,67,0,32
3,72,0,0
3,67,79,16
3,72,79,0
3,67,0,32
3,72,0,0
3,67,79,16
3,72,79,0
3,67,0,32
3,72,0,0
3,69,79,16
3,74,79,0
3,69,0,32
3,74,0,0
3,69,79,160
3,74,79,0
3,69,0,32
3,74,0,0
3,69,79,16
3,74,79,0
3,69,0,64
3,74,0,0
3,67,79,32
3,72,79,0
3,67,0,64
3,72,0,0
3,69,79,800
3,69,0,254
3,69,79,130
3,69,0,254
3,69,79,130
3,69,0,254
3,69,79,130
3,69,0,254
3,69,79,130
3,69,0,254
3,69,79,130
3,69,0,254
3,69,79,130
3,74,79,0
3,69,0,64
3,74,0,0
3,69,79,32
3,74,79,0
3,69,0,64
3,74,0,0
3,69,79,32
3,74,79,0
3,69,0,32
3,74,0,0
3,69,79,16
3,74,79,0
3,69,0,32
3,74,0,0
3,69,79,16
3,74,79,0
3,69,0,32
3,74,0,0
3,64,79,16
3,69,79,0
3,64,0,32
3,69,0,0
3,67,79,16
3,72,79,0
3,67,0,32
3,72,0,0
3,67,79,16
3,72,79,0
3,67,0,32
3,72,0,0
3,69,79,16
3,74,79,0
3,69,0,32
3,74,0,0
3,72,79,16
3,79,79,0
3,72,0,174
3,79,0,0
3,69,79,66
3,74,79,0
3,69,0,62
3,74,0,0
3,69,79,34
3,74,79,0
3,69,0,62
3,74,0,0
3,69,79,34
3,74,79,0
3,69,0,32
3,74,0,0
3,69,79,16
3,74,79,0
3,69,0,32
3,74,0,0
3,67,79,16
3,72,79,0
3,67,0,32
3,72,0,0
3,64,79,16
3,69,79,0
3,64,0,32
3,69,0,0
3,67,79,16
3,72,79,0
3,67,0,32
3,72,0,0
3,67,79,16
3,72,79,0
3,67,0,32
3,72,0,0
3,69,79,16
3,74,79,0
3,69,0,32
3,74,0,0
3,72,79,16
3,77,79,0
3,72,0,112
3,77,0,0
3,64,79,128
3,69,79,0
3,64,0,64
3,69,0,0
3,64,79,32
3,69,79,0
3,64,0,32
3,69,0,0
3,64,79,16
3,69,79,0
3,64,0,32
3,69,0,0
3,64,79,16
3,69,79,0
3,64,0,32
3,69,0,0
3,67,79,16
3,72,79,0
3,67,0,32
3,72,0,0
3,64,79,16
3,69,79,0
3,64,0,32
3,69,0,0
3,64,79,16
3,69,79,0
3,64,0,32
3,69,0,0
3,64,79,16
3,69,79,0
3,64,0,32
3,69,0,0
3,64,79,16
3,69,79,0
3,64,0,32
3,69,0,0
3,64,79,16
3,69,79,0
3,64,0,32
3,69,0,0
3,64,79,16
3,69,79,0
3,64,0,80
3,69,0,0
3,67,79,64
3,72,79,0
3,67,0,32
3,72,0,0
3,64,79,16
3,69,79,0
3,64,0,32
3,69,0,0
3,67,79,64
3,72,79,0
3,67,0,32
3,72,0,0
3,64,79,16
3,69,79,0
3,64,0,32
3,69,0,0
3,67,79,64
3,72,79,0
3,67,0,32
3,72,0,0
3,64,79,16
3,69,79,0
3,64,0,32
3,69,0,0
3,64,79,64
3,69,79,0
3,64,0,32
3,69,0,0
3,64,79,16
3,69,79,0
3,64,0,32
3,69,0,0
3,64,79,16
3,69,79,0
3,64,0,32
3,69,0,0
3,64,79,16
3,69,79,0
3,64,0,32
3,69,0,0
3,64,79,16
3,69,79,0
3,64,0,32
3,69,0,0
3,64,79,16
3,69,79,0
3,64,0,32
3,69,0,0
3,64,79,16
3,69,79,0
3,64,0,32
3,69,0,0
3,64,79,16
3,69,79,0
3,64,0,32
3,69,0,0
3,64,79,16
3,69,79,0
3,64,0,32
3,69,0,0
3,74,79,16
3,62,79,0
3,69,79,0
3,78,79,0
3,62,0,96
3,69,0,0
3,74,0,0
3,78,0,0
3,74,79,48
3,69,79,0
3,62,79,0
3,78,79,0
3,62,0,174
3,69,0,0
3,74,0,0
3,78,0,0
3,67,79,114
3,72,79,0
3,67,0,32
3,72,0,0
3,64,79,16
3,69,79,0
3,64,0,32
3,69,0,0
3,64,79,16
3,69,79,0
3,64,0,32
3,69,0,0
3,64,79,16
3,69,79,0
3,64,0,62
3,69,0,0
3,67,79,34
3,72,79,0
3,67,0,62
3,72,0,0
3,67,79,178
3,72,79,0
3,67,0,32
3,72,0,0
3,64,79,16
3,69,79,0
3,64,0,32
3,69,0,0
