track,note,velocity,time
0,59,96,0
0,36,116,857
0,46,109,188
0,38,118,188
0,42,109,0
0,54,64,0
0,54,65,92
0,54,78,92
0,36,123,92
0,54,71,0
0,54,71,0
0,40,117,36
0,54,77,0
0,36,115,92
0,46,106,0
0,54,64,0
0,54,78,92
0,38,109,92
0,42,101,0
0,54,80,0
0,54,65,92
0,54,72,92
0,36,121,92
0,54,72,0
0,36,111,32
0,54,75,0
0,76,127,0
0,54,69,32
0,46,114,32
0,54,65,0
0,54,64,32
0,38,101,32
0,42,119,0
0,54,82,0
0,54,81,32
0,54,77,32
0,36,126,32
0,54,65,0
0,54,70,32
0,40,110,32
0,54,81,0
0,36,121,32
0,46,100,0
0,54,68,0
0,54,64,32
0,78,95,24
0,38,115,8
0,42,113,0
0,54,66,0
0,54,83,16
0,54,83,32
0,36,126,16
0,54,70,0
0,36,122,32
0,54,83,0
0,54,73,32
0,46,101,32
0,54,73,0
0,54,71,32
0,38,119,32
0,42,107,0
0,54,75,0
0,54,73,92
0,54,67,68
0,36,121,60
0,54,70,0
0,54,66,32
0,40,105,4
0,54,69,0
0,36,122,92
0,46,100,0
0,54,83,0
0,54,74,80
0,38,102,92
0,42,106,0
0,54,78,0
0,54,78,92
0,54,67,92
0,36,116,92
0,54,76,0
0,36,116,24
0,54,69,0
0,54,72,16
0,46,110,92
0,54,76,0
0,54,64,92
0,38,107,24
0,42,119,0
0,54,71,0
0,54,74,16
0,54,68,92
0,36,109,92
0,54,81,0
0,54,64,24
0,40,114,16
0,54,71,0
0,36,117,92
0,46,106,0
0,54,72,0
0,54,69,24
0,78,92,6
0,38,111,2
0,42,100,0
0,54,74,0
0,77,108,26
0,54,81,2
0,76,91,0
0,71,101,10
0,54,73,0
0,76,108,6
0,71,104,0
0,36,119,32
0,54,64,0
0,36,123,32
0,54,82,0
0,47,106,0
0,54,74,32
0,46,116,32
0,54,66,0
0,54,82,32
0,38,104,16
0,42,106,0
0,54,76,0
0,47,110,0
0,54,70,32
0,54,73,32
0,36,109,16
0,54,67,0
0,47,115,0
0,54,80,32
0,40,115,32
0,54,74,0
0,36,118,16
0,46,116,0
0,54,73,0
0,45,107,0
0,54,69,32
0,38,116,16
0,42,100,0
0,54,67,0
0,47,102,0
0,54,76,92
0,54,80,16
0,50,112,0
0,36,116,92
0,54,80,0
0,36,113,16
0,54,70,0
0,47,113,0
0,54,82,92
0,46,103,92
0,54,66,0
0,54,81,32
0,77,95,2
0,76,99,4
0,38,102,12
0,42,111,0
0,54,68,0
0,47,116,0
0,81,104,58
0,54,65,12
0,80,95,58
0,54,72,20
0,36,126,16
0,54,72,0
0,47,116,0
0,77,96,30
0,54,70,32
0,40,119,26
0,54,78,0
0,76,96,2
0,71,92,8
0,36,116,8
0,46,104,0
0,54,78,0
0,45,115,0
0,54,66,32
0,38,119,8
0,42,100,0
0,54,82,0
0,47,113,0
0,54,64,32
0,71,109,12
0,54,66,4
0,50,109,0
0,36,113,32
0,54,65,0
0,36,107,16
0,54,73,0
0,47,105,0
0,54,77,32
0,46,105,32
0,54,78,0
0,54,73,32
0,38,105,16
0,42,102,0
0,54,83,0
0,47,107,0
0,54,75,32
0,54,69,32
0,36,120,16
0,54,77,0
0,47,112,0
0,54,80,32
0,40,117,32
0,54,81,0
0,36,125,16
0,46,100,0
0,54,76,0
0,45,102,0
0,54,68,32
0,38,102,16
0,42,119,0
0,54,64,0
0,47,106,0
0,54,80,32
0,54,83,16
0,50,114,0
0,36,108,32
0,54,77,0
0,36,122,16
0,54,66,0
0,47,116,0
0,54,70,32
0,46,116,32
0,54,76,0
0,54,82,32
0,38,102,16
0,42,107,0
0,54,70,0
0,47,115,0
0,54,74,32
0,54,81,32
0,36,118,16
0,54,74,0
0,47,105,0
0,54,74,4
0,40,110,32
0,54,72,0
0,36,120,16
0,46,119,0
0,54,68,0
0,45,112,0
0,54,78,32
0,38,111,16
0,42,119,0
0,54,67,0
0,47,105,0
0,54,73,92
0,54,76,16
0,50,111,0
0,36,111,92
0,54,67,0
0,36,120,16
0,54,81,0
0,47,106,0
0,71,108,0
0,54,71,92
0,46,104,92
0,54,72,0
0,54,68,92
0,38,103,16
0,42,118,0
0,54,73,0
0,47,110,0
0,54,68,32
0,54,65,32
0,36,122,16
0,54,74,0
0,47,119,0
0,54,71,32
0,71,97,0
0,40,106,32
0,54,79,0
0,36,115,16
0,46,104,0
0,54,73,0
0,45,109,0
0,54,75,32
0,38,105,16
0,42,115,0
0,54,65,0
0,47,106,0
0,54,68,32
0,54,67,16
0,50,117,0
0,36,115,32
0,54,82,0
0,36,121,16
0,54,64,0
0,47,117,0
0,54,64,32
0,46,107,32
0,54,69,0
0,54,69,32
0,38,104,16
0,42,113,0
0,54,73,0
0,47,117,0
0,54,79,32
0,54,68,32
0,36,114,16
0,54,80,0
0,47,118,0
0,54,65,32
0,40,107,32
0,54,83,0
0,36,111,16
0,46,118,0
0,54,83,0
0,45,117,0
0,54,72,24
0,38,118,16
0,42,105,0
0,54,65,0
0,47,108,0
0,54,66,32
0,54,72,16
0,50,113,0
0,36,113,18
0,54,64,0
0,36,111,16
0,54,75,0
0,47,116,0
0,54,67,32
0,46,111,32
0,54,69,0
0,54,73,32
0,38,109,16
0,42,118,0
0,54,83,0
0,47,100,0
0,54,66,64
0,54,74,92
0,36,123,16
0,54,72,0
0,47,119,0
0,54,82,92
0,40,117,92
0,54,79,0
0,36,122,16
0,46,117,0
0,54,66,0
0,45,109,0
0,54,75,92
0,38,116,16
0,42,118,0
0,54,69,0
0,47,105,0
0,54,81,92
0,54,64,16
0,50,111,0
0,36,120,92
0,54,70,0
0,36,116,16
0,54,70,0
0,47,104,0
0,54,74,32
0,46,108,32
0,50,115,0
0,54,66,0
0,50,115,32
0,54,67,0
0,38,117,16
0,42,103,0
0,50,103,0
0,54,75,0
0,47,102,0
0,50,109,32
0,54,81,0
0,50,115,32
0,54,83,0
0,36,119,16
0,50,106,0
0,54,64,0
0,47,100,0
0,50,102,32
0,54,67,0
0,40,116,32
0,54,79,0
0,36,111,16
0,46,104,0
0,47,119,0
0,54,65,0
0,45,113,0
0,54,70,32
0,38,100,16
0,42,108,0
0,43,100,0
0,54,74,0
0,47,115,0
0,62,121,0
0,54,83,32
0,43,102,16
0,54,68,0
0,50,103,0
0,36,122,92
0,54,71,0
0,36,125,16
0,37,114,0
0,54,80,0
0,47,102,0
0,71,127,0
0,54,74,92
0,46,112,16
0,54,71,0
0,54,71,92
0,38,115,16
0,42,109,0
0,39,90,0
0,54,71,0
0,47,101,0
0,54,68,92
0,54,66,92
0,36,126,16
0,37,101,0
0,54,79,0
0,47,100,0
0,54,69,92
0,40,105,92
0,54,77,0
0,36,116,16
0,37,109,0
0,46,109,0
0,54,72,0
0,45,106,0
0,71,124,0
0,54,71,16
0,38,114,16
0,42,108,0
0,39,84,0
0,54,77,0
0,47,109,0
0,65,127,0
0,54,75,92
0,36,108,16
0,37,116,0
0,54,71,0
0,50,118,0
0,62,114,0
0,54,69,16
0,64,111,0
0,36,118,16
0,37,119,0
0,54,69,0
0,47,110,0
0,62,126,0
0,54,81,92
0,46,116,16
0,54,72,0
0,54,79,92
0,38,117,16
0,42,102,0
0,39,100,0
0,54,78,0
0,47,106,0
0,54,70,92
0,54,70,92
0,36,120,16
0,37,112,0
0,54,76,0
0,47,103,0
0,54,77,92
0,40,102,92
0,54,69,0
0,36,110,16
0,37,116,0
0,46,109,0
0,54,82,0
0,45,118,0
0,71,126,0
0,54,75,16
0,38,119,16
0,42,104,0
0,39,82,0
0,54,83,0
0,47,104,0
0,71,124,0
0,54,80,16
0,54,80,16
0,50,110,0
0,71,123,0
0,54,67,16
0,36,119,16
0,37,118,0
0,54,72,0
0,47,109,0
0,74,116,0
0,54,82,92
0,46,105,16
0,54,78,0
0,71,117,0
0,54,71,16
0,38,109,16
0,42,108,0
0,39,96,0
0,54,68,0
0,47,112,0
0,54,68,92
0,54,71,92
0,36,121,16
0,37,100,0
0,54,69,0
0,47,105,0
0,54,75,92
0,40,116,92
0,54,66,0
0,36,114,16
0,37,113,0
0,46,110,0
0,54,71,0
0,45,111,0
0,71,127,0
0,54,74,16
0,38,103,16
0,42,107,0
0,39,98,0
0,54,79,0
0,47,113,0
0,71,124,0
0,54,74,16
0,78,92,0
0,36,126,4
0,37,103,0
0,54,81,0
0,50,104,0
0,69,127,0
0,81,109,20
0,54,72,16
0,71,127,0
0,36,123,16
0,37,101,0
0,54,66,0
0,47,116,0
0,54,67,64
0,46,108,44
0,54,78,0
0,54,65,80
0,38,111,0
0,42,113,0
0,39,96,0
0,54,78,0
0,47,113,0
0,81,96,0
0,54,69,92
0,54,65,0
0,36,111,16
0,37,107,0
0,54,65,0
0,47,112,0
0,54,72,92
0,40,113,0
0,54,73,0
0,76,99,12
0,80,99,0
0,36,119,16
0,37,109,0
0,46,105,0
0,54,76,0
0,45,101,0
0,54,78,92
0,71,108,56
0,78,103,6
0,38,103,16
0,42,113,0
0,39,82,0
0,54,65,0
0,47,104,0
0,76,127,0
0,54,77,18
0,54,77,16
0,50,108,0
0,74,127,0
0,71,95,0
0,54,80,16
0,76,122,0
0,36,124,16
0,37,104,0
0,54,77,0
0,47,119,0
0,71,102,28
0,54,77,16
0,62,93,12
0,46,109,20
0,54,81,0
0,76,111,0
0,54,75,16
0,74,126,0
0,38,114,16
0,42,109,0
0,39,94,0
0,54,79,0
0,47,105,0
0,71,127,0
0,54,74,16
0,54,73,32
0,36,110,16
0,37,110,0
0,54,66,0
0,47,111,0
0,54,73,32
0,40,116,32
0,54,81,0
0,36,108,16
0,37,111,0
0,46,119,0
0,54,73,0
0,45,109,0
0,54,80,32
0,38,100,16
0,42,110,0
0,39,97,0
0,54,80,0
0,47,107,0
0,69,121,0
0,54,74,32
0,36,115,16
0,37,116,0
0,54,80,0
0,50,108,0
0,71,116,0
0,54,74,16
0,74,118,0
0,36,124,16
0,37,119,0
0,54,72,0
0,47,104,0
0,54,76,32
0,46,109,32
0,54,69,0
0,54,69,32
0,38,101,16
0,42,113,0
0,39,93,0
0,54,70,0
0,47,107,0
0,54,74,32
0,54,70,32
0,36,113,16
0,37,108,0
0,54,67,0
0,47,119,0
0,54,69,32
0,40,114,32
0,54,83,0
0,36,117,16
0,37,109,0
0,46,116,0
0,54,77,0
0,45,117,0
0,71,124,0
0,54,76,32
0,38,100,16
0,42,104,0
0,39,91,0
0,54,68,0
0,47,115,0
0,54,74,32
0,71,112,0
0,54,78,16
0,50,109,0
0,54,69,16
0,36,126,16
0,37,116,0
0,54,79,0
0,47,108,0
0,71,119,0
0,54,78,92
0,46,118,16
0,54,64,0
0,54,75,92
0,38,113,16
0,42,118,0
0,39,98,0
0,54,74,0
0,47,102,0
0,54,73,92
0,54,80,92
0,36,118,16
0,37,116,0
0,54,64,0
0,47,105,0
0,54,81,92
0,40,106,32
0,54,68,0
0,36,124,16
0,37,106,0
0,46,110,0
0,54,77,0
0,45,118,0
0,71,127,0
0,54,81,16
0,71,125,0
0,38,101,16
0,42,109,0
0,39,100,0
0,54,67,0
0,47,112,0
0,71,125,0
0,54,77,16
0,71,125,0
0,36,115,16
0,37,112,0
0,54,67,0
0,50,102,0
0,54,74,32
0,66,123,0
0,36,110,16
0,37,118,0
0,54,82,0
0,47,111,0
0,54,65,32
0,46,119,32
0,54,75,0
0,54,72,92
0,38,113,16
0,42,114,0
0,39,83,0
0,54,68,0
0,47,113,0
0,54,67,92
0,54,80,92
0,36,122,16
0,37,103,0
0,54,68,0
0,47,105,0
0,54,69,92
0,40,107,92
0,54,82,0
0,36,107,16
0,37,103,0
0,46,113,0
0,54,79,0
0,45,110,0
0,71,122,0
0,54,81,16
0,38,100,16
0,42,110,0
0,39,83,0
0,54,78,0
0,47,101,0
0,71,127,0
0,54,81,16
0,71,114,0
0,54,66,2
0,50,112,0
0,74,126,0
0,54,71,16
0,36,109,16
0,37,106,0
0,54,64,0
0,47,107,0
0,54,69,32
0,36,112,32
0,37,113,0
0,46,104,0
0,54,79,0
0,54,80,64
0,38,118,16
0,42,102,0
0,39,93,0
0,54,72,0
0,47,109,0
0,54,65,92
0,54,70,92
0,40,109,16
0,54,70,0
0,47,111,0
0,54,72,92
0,40,106,92
0,54,68,0
0,40,112,16
0,46,103,0
0,54,65,0
0,45,102,0
0,71,118,0
0,54,80,16
0,74,113,0
0,38,117,16
0,42,117,0
0,39,90,0
0,54,80,0
0,47,115,0
0,54,76,16
0,74,127,0
0,36,108,16
0,37,101,0
0,54,82,0
0,50,106,0
0,54,71,92
0,36,119,16
0,37,100,0
0,54,64,0
0,47,110,0
0,71,112,0
0,54,75,16
0,36,114,92
0,37,104,0
0,46,102,0
0,54,72,0
0,54,65,92
0,38,110,16
0,42,115,0
0,39,97,0
0,54,83,0
0,47,115,0
0,36,124,92
0,37,102,0
0,54,72,0
0,54,81,92
0,40,104,16
0,54,70,0
0,47,114,0
0,54,66,92
0,40,101,92
0,54,74,0
0,36,112,16
0,37,115,0
0,40,111,0
0,46,115,0
0,54,65,0
0,45,114,0
0,77,123,0
0,54,73,92
0,38,103,16
0,42,119,0
0,39,82,0
0,54,77,0
0,47,105,0
0,76,122,0
0,54,71,16
0,36,120,16
0,37,119,0
0,54,80,0
0,50,106,0
0,74,125,0
0,54,77,16
0,76,119,0
0,36,117,16
0,37,116,0
0,54,79,0
0,47,110,0
0,54,82,16
0,36,109,92
0,37,102,0
0,46,109,0
0,54,82,0
0,76,119,0
0,54,69,16
0,74,114,0
0,66,101,0
0,38,109,16
0,42,113,0
0,39,97,0
0,54,72,0
0,47,101,0
0,71,124,0
0,54,72,16
0,36,115,32
0,37,114,0
0,54,64,0
0,40,105,16
0,54,64,0
0,47,102,0
0,54,66,32
0,40,108,32
0,54,73,0
0,36,125,16
0,37,116,0
0,40,116,0
0,46,104,0
0,54,64,0
0,45,100,0
0,71,111,0
0,54,82,16
0,71,125,0
0,38,109,16
0,42,119,0
0,39,95,0
0,54,78,0
0,47,115,0
0,74,127,0
0,54,66,16
0,36,121,16
0,37,105,0
0,54,76,0
0,50,102,0
0,69,126,0
0,54,74,16
0,71,111,0
0,36,117,16
0,37,102,0
0,54,75,0
0,47,113,0
0,54,70,32
0,36,113,32
0,37,115,0
0,46,106,0
0,54,69,0
0,54,70,32
0,38,100,16
0,42,115,0
0,39,95,0
0,54,70,0
0,47,117,0
0,36,117,32
0,37,105,0
0,54,83,0
0,54,68,28
0,40,119,16
0,54,76,0
0,47,108,0
0,54,65,28
0,40,104,32
0,54,81,0
0,36,119,16
0,37,116,0
0,40,100,0
0,46,111,0
0,54,74,0
0,45,113,0
0,74,111,0
0,54,79,16
0,38,114,16
0,42,101,0
0,39,101,0
0,54,77,0
0,47,111,0
0,76,126,0
0,54,82,16
0,54,71,16
0,50,112,0
0,74,120,0
0,54,66,16
0,77,113,0
0,36,122,16
0,37,100,0
0,54,75,0
0,47,111,0
0,54,77,16
0,36,114,32
0,37,102,0
0,46,114,0
0,54,77,0
0,54,78,32
0,38,106,16
0,42,110,0
0,39,89,0
0,54,77,0
0,47,101,0
0,36,116,32
0,37,109,0
0,54,76,0
0,54,82,32
0,40,119,16
0,54,82,0
0,47,111,0
0,54,80,92
0,40,110,92
0,54,67,0
0,36,124,16
0,37,101,0
0,40,116,0
0,46,102,0
0,54,80,0
0,45,112,0
0,74,114,0
0,54,75,16
0,38,114,16
0,42,101,0
0,39,93,0
0,54,64,0
0,47,103,0
0,76,113,0
0,54,78,16
0,36,121,16
0,37,119,0
0,54,79,0
0,50,100,0
0,74,125,0
0,54,75,16
0,76,127,0
0,36,126,16
0,37,117,0
0,54,80,0
0,47,106,0
0,54,76,16
0,74,121,0
0,36,123,16
0,37,118,0
0,46,116,0
0,54,68,0
0,71,127,0
0,54,70,16
0,38,100,16
0,42,112,0
0,39,89,0
0,54,67,0
0,47,103,0
0,54,81,92
