track,note,velocity,time
1,82,114,803
1,82,0,17
1,82,104,1023
1,82,0,22
1,82,114,37
1,82,0,30
1,78,114,2730
1,78,0,29
1,78,100,271
1,78,0,29
1,80,109,31
1,80,0,29
1,78,109,31
1,78,0,29
1,80,114,31
1,80,0,29
1,78,114,61
1,78,0,29
1,80,109,331
1,80,0,29
1,78,96,1
1,78,0,29
1,78,58,31
1,78,0,29
1,80,92,1
1,80,0,29
1,78,100,61
1,78,0,29
1,80,109,31
1,80,0,29
1,78,119,31
1,78,0,29
1,80,114,61
1,80,0,29
1,78,119,61
1,78,0,29
1,78,104,451
1,78,0,29
1,80,96,31
1,80,0,29
1,78,104,1
1,78,0,29
1,78,109,241
1,78,0,29
1,80,104,31
1,80,0,29
1,78,114,31
1,78,0,29
1,80,119,61
1,80,0,29
1,78,109,361
1,78,0,29
1,80,100,31
1,80,0,29
1,78,96,1
1,78,0,29
1,80,104,61
1,80,0,29
1,78,104,31
1,78,0,29
1,80,104,31
1,80,0,29
1,78,104,1
1,78,0,29
1,80,119,61
1,80,0,29
1,78,119,31
1,78,0,29
1,78,119,1291
1,78,0,29
1,80,119,31
1,80,0,29
1,78,109,871
1,78,0,29
1,80,119,31
1,80,0,29
1,78,114,871
1,78,0,29
1,80,119,31
1,80,0,29
1,78,104,451
1,78,0,29
1,80,92,1
1,80,0,29
1,78,96,1
1,78,0,29
1,80,109,31
1,80,0,29
1,78,96,1
1,78,0,29
1,78,100,31
1,78,0,29
1,80,86,1
1,80,0,29
1,78,92,1
1,78,0,29
1,80,89,1
1,80,0,29
1,78,109,31
1,78,0,29
1,80,100,1
1,80,0,29
1,78,114,3961
1,78,0,29
1,80,114,91
1,80,0,29
1,78,104,151
1,78,0,29
1,80,114,31
1,80,0,29
1,80,89,31
1,80,0,29
1,78,109,1
1,78,0,29
1,80,119,61
1,80,0,29
1,80,109,331
1,80,0,29
1,78,109,31
1,78,0,29
1,78,96,31
1,78,0,29
1,80,104,1
1,80,0,29
1,78,109,61
1,78,0,29
1,80,114,31
1,80,0,29
1,80,100,31
1,80,0,29
1,78,104,1
1,78,0,29
1,80,119,31
1,80,0,29
1,78,119,61
1,78,0,29
1,78,109,451
1,78,0,29
1,80,100,31
1,80,0,29
1,78,114,31
1,78,0,29
1,80,100,151
1,80,0,29
1,78,109,31
1,78,0,29
1,78,81,31
1,78,0,29
1,80,100,1
1,80,0,29
1,78,114,61
1,78,0,29
1,80,104,331
1,80,0,29
1,80,109,31
1,80,0,29
1,80,100,31
1,80,0,29
1,78,104,1
1,78,0,29
1,80,109,61
1,80,0,29
1,78,114,31
1,78,0,29
1,80,109,31
1,80,0,29
1,78,104,1
1,78,0,29
1,80,114,31
1,80,0,29
1,78,124,61
1,78,0,29
1,78,100,1291
1,78,0,29
1,80,109,31
1,80,0,29
1,78,89,811
1,78,0,29
1,80,104,31
1,80,0,29
1,78,96,931
1,78,0,29
1,80,109,31
1,80,0,29
1,78,104,451
1,78,0,29
1,80,79,1
1,80,0,29
1,78,92,1
1,78,0,29
1,80,100,31
1,80,0,29
1,78,96,1
1,78,0,29
1,80,92,31
1,80,0,29
1,78,100,1
1,78,0,29
1,80,89,1
1,80,0,29
1,78,86,1
1,78,0,29
1,80,104,31
1,80,0,29
1,78,109,1
1,78,0,29
1,80,96,541
1,80,0,29
1,78,92,1
1,78,0,29
1,80,77,1
1,80,0,29
1,80,92,31
1,80,0,29
1,78,92,1
1,78,0,29
1,80,100,31
1,80,0,29
1,78,86,1
1,78,0,29
1,80,84,1
1,80,0,29
1,78,86,1
1,78,0,29
1,80,96,31
1,80,0,29
1,78,104,1
1,78,0,29
1,80,96,541
1,80,0,29
1,78,84,1
1,78,0,29
1,80,81,1
1,80,0,29
1,80,96,31
1,80,0,29
1,78,89,1
1,78,0,29
1,80,100,61
1,80,0,29
1,78,89,1
1,78,0,29
1,80,79,1
1,80,0,29
1,80,89,31
1,80,0,29
1,78,96,1
1,78,0,29
1,80,100,31
1,80,0,29
1,78,81,1
1,78,0,29
1,80,86,1
1,80,0,29
1,78,79,1
1,78,0,29
1,80,104,31
1,80,0,29
1,78,100,1
1,78,0,29
1,78,109,5641
1,78,0,29
1,80,114,91
1,80,0,29
1,78,109,211
1,78,0,29
1,80,104,31
1,80,0,29
1,78,104,1
1,78,0,29
1,80,119,61
1,80,0,29
1,78,114,391
1,78,0,29
1,80,104,31
1,80,0,29
1,78,104,1
1,78,0,29
1,80,114,61
1,80,0,29
1,78,114,31
1,78,0,29
1,80,119,31
1,80,0,29
1,78,114,61
1,78,0,29
1,80,119,61
1,80,0,29
1,78,114,451
1,78,0,29
1,80,100,31
1,80,0,29
1,78,104,1
1,78,0,29
1,78,109,181
1,78,0,29
1,80,109,31
1,80,0,29
1,78,109,31
1,78,0,29
1,80,119,31
1,80,0,29
1,78,119,61
1,78,0,29
1,78,104,301
1,78,0,29
1,80,109,31
1,80,0,29
1,78,109,31
1,78,0,29
1,80,109,31
1,80,0,29
1,80,109,31
1,80,0,29
1,78,114,31
1,78,0,29
1,80,114,31
1,80,0,29
1,78,100,1
1,78,0,29
1,80,114,61
1,80,0,29
1,78,119,31
1,78,0,29
1,78,100,4711
1,78,0,29
1,80,81,1
1,80,0,29
1,78,100,1
1,78,0,29
1,80,100,31
1,80,0,29
1,78,104,1
1,78,0,29
1,80,96,61
1,80,0,29
1,78,96,1
1,78,0,29
1,80,86,1
1,80,0,29
1,80,96,31
1,80,0,29
1,78,96,1
1,78,0,29
1,80,100,31
1,80,0,29
1,78,81,1
1,78,0,29
1,80,84,1
1,80,0,29
1,78,89,1
1,78,0,29
1,80,104,31
1,80,0,29
1,78,100,1
1,78,0,29
1,80,100,1261
1,80,0,29
1,78,89,1
1,78,0,29
1,80,81,1
1,80,0,29
1,80,96,31
1,80,0,29
1,78,92,1
1,78,0,29
1,80,100,61
1,80,0,29
1,78,86,1
1,78,0,29
1,80,89,1
1,80,0,29
1,80,92,31
1,80,0,29
1,78,96,1
1,78,0,29
1,80,96,31
1,80,0,29
1,78,81,1
1,78,0,29
1,80,81,1
1,80,0,29
1,78,89,1
1,78,0,29
1,80,96,31
1,80,0,29
1,78,100,1
1,78,0,29
1,80,100,1261
1,80,0,29
1,78,89,1
1,78,0,29
1,80,86,1
1,80,0,29
1,80,89,31
1,80,0,29
1,78,92,1
1,78,0,29
1,80,89,61
1,80,0,29
1,78,86,1
1,78,0,29
1,80,86,1
1,80,0,29
1,80,92,31
1,80,0,29
1,78,100,1
1,78,0,29
1,80,92,31
1,80,0,29
1,78,89,1
1,78,0,29
1,80,81,1
1,80,0,29
1,78,86,1
1,78,0,29
1,80,96,31
1,80,0,29
1,78,100,1
1,78,0,29
1,78,100,1261
1,78,0,29
1,80,79,1
1,80,0,29
1,78,96,1
1,78,0,29
1,80,104,31
1,80,0,29
1,78,100,1
1,78,0,29
1,80,104,61
1,80,0,29
1,78,100,1
1,78,0,29
1,80,96,1
1,80,0,29
1,80,104,31
1,80,0,29
1,78,100,1
1,78,0,29
1,80,104,31
1,80,0,29
1,78,96,1
1,78,0,29
1,80,100,1
1,80,0,29
1,78,100,1
1,78,0,29
1,80,114,31
1,80,0,29
1,78,114,1
1,78,0,29
2,73,94,837
2,61,94,0
2,66,94,0
2,78,94,5
2,66,0,45
2,73,0,5
2,61,0,5
2,78,0,0
2,73,94,65
2,61,94,0
2,78,94,0
2,66,94,0
2,78,0,55
2,66,0,5
2,73,0,0
2,61,0,5
2,66,94,765
2,73,94,5
2,78,94,0
2,61,94,0
2,78,0,45
2,61,0,5
2,66,0,0
2,73,0,5
2,66,94,60
2,73,94,5
2,61,94,0
2,78,94,0
2,78,0,50
2,66,0,5
2,73,0,0
2,61,0,0
2,66,94,775
2,73,94,5
2,61,94,0
2,78,94,5
2,78,0,45
2,66,0,5
2,73,0,0
2,61,0,0
2,61,94,70
2,66,94,5
2,73,94,0
2,78,94,0
2,78,0,45
2,61,0,5
2,66,0,0
2,73,0,5
2,73,94,770
2,66,94,0
2,61,94,5
2,78,94,0
2,78,0,45
2,61,0,5
2,66,0,0
2,73,0,5
2,66,94,70
2,78,94,0
2,73,94,0
2,61,94,5
2,78,0,40
2,73,0,5
2,66,0,5
2,61,0,0
2,69,94,305
2,69,0,5
2,69,94,25
2,69,0,25
2,68,94,5
2,68,0,15
2,66,94,45
2,66,0,15
2,68,94,45
2,68,0,15
2,69,94,45
2,69,0,15
2,63,94,45
2,63,0,20
2,66,94,40
2,66,0,15
2,63,94,15
2,63,0,15
2,78,94,75
2,73,94,0
2,66,94,5
2,61,94,0
2,61,0,50
2,66,0,0
2,73,0,5
2,78,0,0
2,78,94,60
2,73,94,0
2,61,94,5
2,66,94,0
2,66,0,50
2,61,0,0
2,73,0,0
2,78,0,10
2,61,94,770
2,66,94,0
2,73,94,0
2,78,94,5
2,78,0,50
2,61,0,5
2,66,0,0
2,73,0,0
2,61,94,65
2,78,94,0
2,66,94,0
2,73,94,0
2,66,0,50
2,61,0,0
2,78,0,5
2,73,0,0
2,73,94,780
2,61,94,5
2,66,94,0
2,78,94,0
2,78,0,50
2,66,0,0
2,61,0,5
2,73,0,0
2,61,94,65
2,66,94,0
2,73,94,5
2,78,94,0
2,78,0,50
2,61,0,0
2,66,0,0
2,73,0,0
2,73,94,780
2,66,94,0
2,61,94,0
2,78,94,0
2,78,0,45
2,61,0,10
2,66,0,0
2,73,0,5
2,73,94,65
2,78,94,0
2,61,94,0
2,66,94,0
2,66,0,50
2,78,0,0
2,61,0,5
2,73,0,0
2,71,94,4625
2,71,0,0
2,71,94,0
2,71,0,25
2,69,94,175
2,69,0,15
2,69,94,15
2,69,0,25
2,68,94,5
2,68,0,20
2,66,94,40
2,66,0,95
2,63,94,15
2,63,0,5
2,68,94,190
2,69,94,10
2,68,0,10
2,69,0,50
2,68,94,5
2,68,0,15
2,66,94,40
2,66,0,20
2,63,94,40
2,63,0,25
2,68,94,40
2,68,0,20
2,63,94,30
2,63,0,25
2,66,94,40
2,66,0,15
2,68,94,10
2,68,0,20
2,63,94,40
2,63,0,20
2,68,94,20
2,68,0,25
2,66,94,5
2,66,0,15
2,63,94,5
2,63,0,15
2,66,94,15
2,58,94,5
2,66,0,385
2,58,0,5
2,59,94,0
2,47,94,5
2,51,94,230
2,54,94,240
2,59,0,245
2,59,94,0
2,54,0,210
2,63,94,35
2,51,0,5
2,63,0,230
2,66,94,0
2,66,0,240
2,68,94,5
2,68,0,240
2,70,94,0
2,70,0,110
2,71,94,5
2,71,0,105
2,47,0,0
2,73,94,5
2,59,0,10
2,54,94,0
2,73,0,5
2,73,94,0
2,78,94,0
2,61,94,0
2,66,94,0
2,66,0,45
2,78,0,5
2,61,0,0
2,73,0,65
2,73,94,0
2,78,94,0
2,61,94,5
2,66,94,0
2,66,0,55
2,78,0,5
2,61,0,0
2,73,0,660
2,54,0,5
2,66,94,115
2,73,94,0
2,61,94,0
2,78,94,5
2,61,0,45
2,73,0,0
2,66,0,5
2,78,0,5
2,78,94,60
2,66,94,0
2,61,94,5
2,73,94,0
2,61,0,50
2,73,0,5
2,66,0,0
2,78,0,5
2,61,94,770
2,66,94,0
2,73,94,5
2,78,94,0
2,73,0,50
2,66,0,0
2,61,0,5
2,78,0,0
2,66,94,60
2,61,94,5
2,78,94,0
2,73,94,0
2,66,0,55
2,61,0,5
2,78,0,0
2,73,0,0
2,66,94,775
2,61,94,0
2,73,94,0
2,78,94,0
2,66,0,50
2,61,0,5
2,73,0,0
2,78,0,0
2,61,94,65
2,66,94,0
2,73,94,5
2,78,94,0
2,66,0,50
2,61,0,5
2,73,0,0
2,78,0,0
2,66,94,10385
2,73,94,0
2,61,94,0
2,78,94,0
2,78,0,55
2,66,0,0
2,73,0,0
2,61,0,0
2,61,94,60
2,66,94,5
2,73,94,0
2,78,94,0
2,73,0,55
2,61,0,0
2,66,0,0
2,78,0,5
2,66,94,770
2,61,94,5
2,73,94,0
2,78,94,0
2,73,0,50
2,66,0,0
2,61,0,0
2,78,0,5
2,78,94,65
2,61,94,5
2,66,94,0
2,73,94,0
2,66,0,50
2,78,0,5
2,61,0,0
2,73,0,0
2,69,94,305
2,69,0,15
2,63,94,10
2,63,0,15
2,66,94,15
2,66,0,20
2,63,94,10
2,63,0,15
2,69,94,10
2,69,0,25
2,63,94,5
2,63,0,20
2,66,94,15
2,66,0,15
2,63,94,10
2,63,0,20
2,69,94,5
2,69,0,25
2,61,94,5
2,61,0,15
2,63,94,15
2,73,94,10
2,63,0,15
2,73,0,5
2,61,94,5
2,75,94,5
2,61,0,10
2,75,0,10
2,66,94,0
2,78,94,10
2,66,0,35
2,78,0,10
2,78,94,80
2,66,94,0
2,73,94,0
2,61,94,0
2,78,0,45
2,66,0,5
2,73,0,0
2,61,0,0
2,66,94,65
2,61,94,5
2,73,94,0
2,78,94,0
2,78,0,55
2,73,0,0
2,61,0,5
2,66,0,0
2,73,94,780
2,78,94,0
2,66,94,5
2,61,94,0
2,78,0,40
2,73,0,5
2,66,0,0
2,61,0,0
2,73,94,65
2,61,94,0
2,66,94,0
2,78,94,5
2,78,0,55
2,73,0,0
2,61,0,0
2,66,0,5
2,73,94,770
2,78,94,0
2,61,94,5
2,66,94,0
2,66,0,50
2,73,0,0
2,78,0,0
2,61,0,0
2,73,94,75
2,61,94,5
2,66,94,0
2,78,94,0
2,78,0,50
2,73,0,0
2,61,0,0
2,66,0,5
2,73,94,780
2,78,94,0
2,66,94,5
2,61,94,0
2,61,0,45
2,73,0,0
2,78,0,0
2,66,0,0
2,73,94,65
2,61,94,5
2,66,94,0
2,78,94,5
2,78,0,45
2,73,0,0
2,61,0,0
2,66,0,0
2,47,94,785
2,47,0,5
2,47,94,0
2,51,94,230
2,56,94,235
2,56,0,240
2,58,94,0
2,58,0,255
2,51,0,0
2,54,94,0
2,56,94,230
2,56,0,230
2,58,94,5
2,58,0,225
2,59,94,10
2,54,0,255
2,59,0,5
2,63,94,0
2,59,94,0
2,66,94,235
2,47,0,215
2,68,94,25
2,66,0,5
2,68,0,235
2,70,94,5
2,63,0,240
2,63,94,0
2,66,94,0
2,70,0,15
2,59,0,5
2,66,0,210
2,68,94,0
2,68,0,245
2,70,94,0
2,70,0,230
2,71,94,10
2,63,0,205
2,71,0,5
2,66,94,30
2,73,94,0
2,73,0,5
2,73,94,0
2,70,94,0
2,70,0,790
2,73,0,10
2,73,94,35
2,70,94,5
2,73,0,10
2,70,0,5
2,71,94,5
2,68,94,0
2,66,0,80
2,68,0,5
2,71,0,0
2,66,94,5
2,70,94,5
2,70,0,675
2,66,0,20
2,70,94,30
2,73,94,0
2,66,94,5
2,73,0,10
2,70,0,0
2,66,0,10
2,70,94,30
2,73,94,5
2,66,94,0
2,73,0,20
2,70,0,0
2,66,0,5
2,75,94,35
2,71,94,0
2,68,94,0
2,68,0,20
2,71,0,5
2,75,0,0
2,73,94,5
2,66,94,0
2,70,94,0
2,66,0,15
2,73,0,0
2,70,0,5
2,63,94,0
2,68,94,5
2,71,94,5
2,71,0,15
2,68,0,0
2,63,0,0
2,70,94,10
2,66,94,0
2,73,94,5
2,70,0,710
2,66,0,5
2,73,0,5
2,73,94,30
2,66,94,5
2,70,94,0
2,73,0,10
2,66,0,5
2,70,0,5
2,73,94,35
2,66,94,0
2,70,94,0
2,66,0,20
2,73,0,0
2,70,0,5
2,71,94,30
2,68,94,0
2,75,94,5
2,68,0,15
2,75,0,10
2,71,0,0
2,66,94,0
2,73,94,5
2,70,94,0
2,66,0,10
2,70,0,5
2,73,0,0
2,63,94,0
2,68,94,5
2,71,94,10
2,63,0,5
2,68,0,5
2,71,0,5
2,66,94,0
2,70,94,5
2,73,94,10
2,70,0,710
2,66,0,5
2,73,0,5
2,73,94,30
2,66,94,0
2,70,94,5
2,70,0,15
2,73,0,0
2,66,0,5
2,66,94,35
2,73,94,0
2,70,94,0
2,70,0,20
2,73,0,0
2,66,0,0
