track,note,velocity,time
1,33,113,23040
1,33,99,50
1,33,88,40
1,33,88,40
1,33,99,36
1,33,88,24
1,33,99,40
1,33,99,684
1,33,88,48
1,33,99,48
1,33,99,48
1,33,99,46
1,33,88,48
1,33,99,48
1,33,113,696
1,33,88,68
1,33,88,24
1,33,99,56
1,31,88,128
1,29,80,16
1,29,99,70
1,29,99,44
1,29,88,48
1,28,99,8
1,26,80,24
1,38,88,34
1,26,113,128
1,26,113,68
1,28,80,40
1,29,88,32
1,29,80,38
1,29,88,32
1,29,80,50
1,29,99,48
1,31,88,24
1,33,99,40
1,28,99,30
1,33,99,0
1,33,99,52
1,31,69,38
1,29,80,34
1,29,71,50
1,29,69,34
1,29,99,82
1,28,99,22
1,26,99,128
1,33,113,32
1,26,113,128
1,26,113,56
1,28,88,24
1,29,80,128
1,29,99,56
1,29,99,66
1,29,99,44
1,31,88,16
1,36,113,26
1,36,99,90
1,40,99,8
1,41,88,0
1,29,113,384
1,41,88,6
1,40,88,4
1,36,99,128
1,31,113,2
1,40,99,10
1,41,80,16
1,29,113,6
1,41,80,8
1,36,88,22
1,36,88,50
1,40,64,22
1,41,80,22
1,40,99,20
1,36,113,32
1,36,99,46
1,40,99,4
1,41,71,18
1,40,99,48
1,38,80,128
1,31,99,122
1,31,71,32
1,31,80,46
1,31,99,46
1,31,60,40
1,31,60,44
1,31,80,48
1,31,64,52
1,31,64,44
1,31,71,44
1,31,69,34
1,31,71,44
1,31,113,46
1,33,113,1448
1,33,99,50
1,33,88,40
1,33,88,40
1,33,99,36
1,33,88,24
1,33,99,40
1,33,99,684
1,33,88,48
1,33,99,48
1,33,99,48
1,33,99,46
1,33,88,48
1,33,99,48
1,33,113,696
1,33,88,68
1,33,88,24
1,33,99,56
1,31,88,128
1,29,80,16
1,29,99,70
1,29,99,44
1,29,88,48
1,28,99,8
1,26,80,24
1,38,88,34
1,26,113,128
1,26,113,68
1,28,80,40
1,29,88,32
1,29,80,38
1,29,88,32
1,29,80,50
1,29,99,48
1,31,88,24
1,36,113,40
1,36,99,90
1,40,99,8
1,41,88,0
1,29,113,384
1,41,88,6
1,40,88,4
1,36,99,128
1,31,113,2
1,40,99,10
1,41,80,16
1,29,113,6
1,41,80,8
1,36,88,22
1,36,88,50
1,40,64,22
1,41,80,22
1,40,99,20
1,36,113,32
1,36,99,46
1,40,99,4
1,41,71,18
1,40,99,48
1,38,80,128
1,31,99,122
1,31,71,32
1,31,80,46
1,31,99,46
1,31,60,40
1,31,60,44
1,31,80,48
1,31,64,52
1,31,64,44
1,31,71,44
1,31,69,34
1,31,71,44
1,36,113,46
1,36,99,90
1,40,99,8
1,41,88,0
1,29,113,384
1,41,88,6
1,40,88,4
1,36,99,128
1,31,113,2
1,40,99,10
1,41,80,16
1,29,113,6
1,41,80,8
1,36,88,22
1,36,88,50
1,40,64,22
1,41,80,22
1,40,99,20
1,36,113,32
1,36,99,46
1,40,99,4
1,41,71,18
1,40,99,48
1,38,80,128
1,31,99,122
1,31,71,32
1,31,80,46
1,31,99,46
1,31,60,40
1,31,60,44
1,31,80,48
1,31,64,52
1,31,64,44
1,31,71,44
1,31,69,34
1,31,71,44
1,36,113,46
1,36,99,90
1,40,99,8
1,41,88,0
1,29,113,384
1,41,88,6
1,40,88,4
1,36,99,128
1,31,113,2
1,40,99,10
1,41,80,16
1,29,113,6
1,41,80,8
1,36,88,22
1,36,88,50
1,40,64,22
1,41,80,22
1,40,99,20
1,36,113,32
1,36,99,46
1,40,99,4
1,41,71,18
1,40,99,48
1,38,80,128
1,31,99,122
1,31,71,32
1,31,80,46
1,31,99,46
1,31,60,40
1,31,60,44
1,31,80,48
1,31,64,52
1,31,64,44
1,31,71,44
1,31,69,34
1,31,71,44
1,31,99,46
2,67,80,1536
2,64,88,0
2,60,80,0
2,64,80,86
2,60,69,0
2,67,71,0
2,64,71,84
2,60,71,0
2,67,99,0
2,60,80,88
2,64,88,0
2,67,88,0
2,64,69,78
2,60,69,0
2,67,71,0
2,67,80,76
2,64,71,0
2,60,71,0
2,64,80,82
2,67,80,0
2,60,88,0
2,64,80,74
2,67,80,0
2,60,71,0
2,64,88,80
2,67,71,0
2,60,69,0
2,64,88,86
2,67,80,0
2,60,80,0
2,64,71,76
2,67,71,0
2,60,69,0
2,64,71,86
2,67,71,0
2,60,71,0
2,64,80,84
2,60,71,0
2,67,80,0
2,64,64,82
2,67,69,0
2,60,69,0
2,67,69,86
2,64,71,0
2,60,69,0
2,64,80,88
2,60,71,0
2,67,88,0
2,64,69,80
2,67,69,0
2,60,69,0
2,64,71,82
2,67,71,0
2,60,71,0
2,64,80,84
2,60,71,0
2,67,88,0
2,64,71,82
2,60,69,0
2,67,80,0
2,64,71,86
2,60,69,0
2,67,71,0
2,67,71,88
2,64,80,0
2,60,80,0
2,64,80,80
2,67,80,0
2,60,71,0
2,64,71,84
2,60,71,0
2,67,71,0
2,57,71,80
2,62,99,0
2,65,71,0
2,57,56,90
2,62,80,0
2,65,69,0
2,57,60,86
2,62,88,0
2,65,71,0
2,62,88,90
2,57,64,0
2,65,71,0
2,57,52,82
2,62,80,0
2,65,69,0
2,57,52,82
2,62,80,0
2,65,64,0
2,57,52,84
2,65,64,0
2,62,80,0
2,57,52,82
2,62,71,0
2,65,69,0
2,57,52,80
2,62,80,0
2,65,64,0
2,57,56,82
2,62,88,0
2,65,69,0
2,57,49,80
2,62,69,0
2,65,60,0
2,62,80,82
2,57,52,0
2,65,69,0
2,60,69,82
2,69,60,0
2,65,69,0
2,65,69,80
2,60,60,0
2,69,64,0
2,65,69,88
2,60,64,0
2,69,64,0
2,65,69,90
2,60,71,0
2,69,69,0
2,65,69,80
2,60,64,0
2,69,64,0
2,65,71,82
2,60,69,0
2,69,60,0
2,65,71,88
2,60,71,0
2,69,69,0
2,60,64,74
2,65,71,0
2,69,69,0
2,60,56,82
2,65,71,0
2,69,69,0
2,65,71,80
2,69,69,0
2,60,71,0
2,65,69,80
2,60,64,0
2,69,64,0
2,65,80,80
2,60,71,0
2,69,69,0
2,67,80,80
2,64,88,0
2,60,80,0
2,64,80,86
2,60,69,0
2,67,71,0
2,64,71,84
2,60,71,0
2,67,99,0
2,60,80,88
2,64,88,0
2,67,88,0
2,64,69,78
2,60,69,0
2,67,71,0
2,67,80,76
2,64,71,0
2,60,71,0
2,64,80,82
2,67,80,0
2,60,88,0
2,64,80,74
2,67,80,0
2,60,71,0
2,64,88,80
2,67,71,0
2,60,69,0
2,64,88,86
2,67,80,0
2,60,80,0
2,64,71,76
2,67,71,0
2,60,69,0
2,64,71,86
2,67,71,0
2,60,71,0
2,64,80,84
2,60,71,0
2,67,80,0
2,64,64,82
2,67,69,0
2,60,69,0
2,67,69,86
2,64,71,0
2,60,69,0
2,64,80,88
2,60,71,0
2,67,88,0
2,64,69,80
2,67,69,0
2,60,69,0
2,64,71,82
2,67,71,0
2,60,71,0
2,64,80,84
2,60,71,0
2,67,88,0
2,64,71,82
2,60,69,0
2,67,80,0
2,64,71,86
2,60,69,0
2,67,71,0
2,67,71,88
2,64,80,0
2,60,80,0
2,64,80,80
2,67,80,0
2,60,71,0
2,64,71,84
2,60,71,0
2,67,71,0
2,57,71,80
2,62,99,0
2,65,71,0
2,57,56,90
2,62,80,0
2,65,69,0
2,57,60,86
2,62,88,0
2,65,71,0
2,62,88,90
2,57,64,0
2,65,71,0
2,57,52,82
2,62,80,0
2,65,69,0
2,57,52,82
2,62,80,0
2,65,64,0
2,57,52,84
2,65,64,0
2,62,80,0
2,57,52,82
2,62,71,0
2,65,69,0
2,57,52,80
2,62,80,0
2,65,64,0
2,57,56,82
2,62,88,0
2,65,69,0
2,57,49,80
2,62,69,0
2,65,60,0
2,62,80,82
2,57,52,0
2,65,69,0
2,60,69,82
2,69,60,0
2,65,69,0
2,65,69,80
2,60,60,0
2,69,64,0
2,65,69,88
2,60,64,0
2,69,64,0
2,65,69,90
2,60,71,0
2,69,69,0
2,65,69,80
2,60,64,0
2,69,64,0
2,65,71,82
2,60,69,0
2,69,60,0
2,65,71,88
2,60,71,0
2,69,69,0
2,60,64,74
2,65,71,0
2,69,69,0
2,60,56,82
2,65,71,0
2,69,69,0
2,65,71,80
2,69,69,0
2,60,71,0
2,65,69,80
2,60,64,0
2,69,64,0
2,65,80,80
2,60,71,0
2,69,69,0
2,60,71,80
2,67,88,0
2,64,88,0
2,60,71,86
2,67,80,0
2,64,71,0
2,60,71,86
2,67,80,0
2,64,80,0
2,60,71,88
2,67,71,0
2,64,80,0
2,60,71,82
2,64,71,0
2,67,71,0
2,60,69,80
2,64,80,0
2,67,69,0
2,60,71,78
2,65,71,0
2,69,71,0
2,60,64,68
2,65,69,0
2,69,60,0
2,60,60,82
2,65,69,0
2,69,64,0
2,65,71,76
2,60,71,0
2,69,69,0
2,60,69,78
2,65,69,0
2,69,64,0
2,60,69,74
2,65,71,0
2,69,64,0
2,64,80,80
2,60,71,0
2,67,80,0
2,60,69,74
2,64,71,0
2,67,71,0
2,64,69,76
2,60,69,0
2,67,69,0
2,60,69,80
2,64,71,0
2,67,80,0
2,60,64,78
2,64,69,0
2,67,69,0
2,60,69,78
2,64,71,0
2,67,69,0
2,65,71,74
2,69,69,0
2,65,64,66
2,69,64,0
2,65,71,80
2,69,64,0
2,65,71,78
2,69,64,0
2,65,71,74
2,69,60,0
2,65,69,82
2,69,64,0
2,60,71,80
2,67,80,0
2,64,71,0
2,60,69,74
2,64,69,0
2,67,69,0
2,60,64,80
2,64,71,0
2,67,71,0
2,60,64,80
2,64,71,0
2,67,69,0
2,60,64,78
2,64,71,0
2,67,71,0
2,60,56,82
2,64,64,0
2,67,69,0
2,65,69,74
2,60,71,0
2,69,69,0
2,65,69,72
2,60,69,0
2,69,60,0
2,60,60,80
2,65,69,0
2,69,60,0
2,65,71,80
2,60,69,0
2,69,64,0
2,60,71,76
2,65,71,0
2,69,69,0
2,60,80,80
2,65,71,0
2,69,69,0
2,64,71,80
2,60,69,0
2,67,80,0
2,60,69,84
2,64,69,0
2,67,71,0
2,60,71,82
2,64,71,0
2,67,69,0
2,64,71,82
2,60,71,0
2,67,80,0
2,60,69,78
2,64,69,0
2,67,71,0
2,60,71,84
2,64,80,0
2,67,71,0
2,60,71,74
2,65,80,0
2,69,71,0
2,60,60,74
2,65,69,0
2,69,64,0
2,65,71,80
2,60,69,0
2,69,60,0
2,60,64,80
2,65,69,0
2,69,60,0
2,60,60,80
2,65,71,0
2,69,69,0
2,60,127,80
2,60,64,0
2,65,69,0
2,69,69,0
2,59,52,80
2,67,80,0
2,62,64,0
2,64,80,0
2,59,49,72
2,62,56,0
2,67,69,0
2,64,64,0
2,67,64,76
2,64,69,0
2,59,49,0
2,62,71,0
2,62,60,72
2,59,60,0
2,64,80,0
2,67,69,0
2,62,69,76
2,59,52,0
2,64,69,0
2,67,64,0
2,59,56,82
2,62,71,0
2,64,71,0
2,67,80,0
2,59,56,78
2,62,80,0
2,64,71,0
2,67,69,0
2,62,71,78
2,59,56,0
2,64,69,0
2,67,64,0
2,59,52,82
2,62,71,0
2,64,71,0
2,67,69,0
2,59,52,74
2,62,60,0
2,67,60,0
2,64,69,0
2,59,52,72
2,62,69,0
2,64,69,0
2,67,69,0
2,59,52,80
2,62,71,0
2,67,69,0
2,64,71,0
2,62,127,78
2,59,80,0
2,67,80,0
2,64,80,0
2,67,80,4542
2,64,88,0
2,60,80,0
2,64,80,86
2,60,69,0
2,67,71,0
2,64,71,84
2,60,71,0
2,67,99,0
2,60,80,88
2,64,88,0
2,67,88,0
2,64,69,78
2,60,69,0
2,67,71,0
2,67,80,76
2,64,71,0
2,60,71,0
2,64,80,82
2,67,80,0
2,60,88,0
2,64,80,74
2,67,80,0
2,60,71,0
2,64,88,80
2,67,71,0
2,60,69,0
2,64,88,86
2,67,80,0
2,60,80,0
2,64,71,76
2,67,71,0
2,60,69,0
2,64,71,86
2,67,71,0
2,60,71,0
2,64,80,84
2,60,71,0
2,67,80,0
2,64,64,82
2,67,69,0
2,60,69,0
2,67,69,86
2,64,71,0
2,60,69,0
2,64,80,88
2,60,71,0
2,67,88,0
2,64,69,80
2,67,69,0
2,60,69,0
2,64,71,82
2,67,71,0
2,60,71,0
2,64,80,84
2,60,71,0
2,67,88,0
2,64,71,82
2,60,69,0
2,67,80,0
2,64,71,86
2,60,69,0
2,67,71,0
2,67,71,88
2,64,80,0
2,60,80,0
2,64,80,80
2,67,80,0
2,60,71,0
2,64,71,84
2,60,71,0
2,67,71,0
2,57,71,80
2,62,99,0
2,65,71,0
2,57,56,90
2,62,80,0
2,65,69,0
2,57,60,86
2,62,88,0
2,65,71,0
2,62,88,90
2,57,64,0
2,65,71,0
2,57,52,82
2,62,80,0
2,65,69,0
2,57,52,82
2,62,80,0
2,65,64,0
2,57,52,84
2,65,64,0
2,62,80,0
2,57,52,82
2,62,71,0
2,65,69,0
2,57,52,80
2,62,80,0
2,65,64,0
2,57,56,82
2,62,88,0
2,65,69,0
2,57,49,80
2,62,69,0
2,65,60,0
2,62,80,82
2,57,52,0
2,65,69,0
2,60,69,82
2,69,60,0
2,65,69,0
2,65,69,80
2,60,60,0
2,69,64,0
2,65,69,88
2,60,64,0
2,69,64,0
2,65,69,90
2,60,71,0
2,69,69,0
2,65,69,80
2,60,64,0
2,69,64,0
2,65,71,82
2,60,69,0
2,69,60,0
2,65,71,88
2,60,71,0
2,69,69,0
2,60,64,74
2,65,71,0
2,69,69,0
2,60,56,82
2,65,71,0
2,69,69,0
2,65,71,80
2,69,69,0
2,60,71,0
2,65,69,80
2,60,64,0
2,69,64,0
2,65,80,80
2,60,71,0
2,69,69,0
2,67,80,80
2,64,88,0
2,60,80,0
2,64,80,86
2,60,69,0
2,67,71,0
2,64,71,84
2,60,71,0
2,67,99,0
2,60,80,88
2,64,88,0
2,67,88,0
2,64,69,78
2,60,69,0
2,67,71,0
2,67,80,76
2,64,71,0
2,60,71,0
2,64,80,82
2,67,80,0
2,60,88,0
2,64,80,74
2,67,80,0
2,60,71,0
2,64,88,80
2,67,71,0
2,60,69,0
2,64,88,86
2,67,80,0
2,60,80,0
2,64,71,76
2,67,71,0
2,60,69,0
2,64,71,86
2,67,71,0
2,60,71,0
2,64,80,84
2,60,71,0
2,67,80,0
2,64,64,82
2,67,69,0
2,60,69,0
2,67,69,86
2,64,71,0
2,60,69,0
2,64,80,88
2,60,71,0
2,67,88,0
2,64,69,80
2,67,69,0
2,60,69,0
2,64,71,82
2,67,71,0
2,60,71,0
2,64,80,84
2,60,71,0
2,67,88,0
2,64,71,82
2,60,69,0
2,67,80,0
2,64,71,86
2,60,69,0
2,67,71,0
2,67,71,88
2,64,80,0
2,60,80,0
2,64,80,80
2,67,80,0
2,60,71,0
2,64,71,84
2,60,71,0
2,67,71,0
2,57,71,80
2,62,99,0
2,65,71,0
2,57,56,90
2,62,80,0
2,65,69,0
2,57,60,86
2,62,88,0
2,65,71,0
2,62,88,90
2,57,64,0
2,65,71,0
2,57,52,82
2,62,80,0
2,65,69,0
2,57,52,82
2,62,80,0
2,65,64,0
2,57,52,84
2,65,64,0
2,62,80,0
2,57,52,82
2,62,71,0
2,65,69,0
2,57,52,80
2,62,80,0
2,65,64,0
2,57,56,82
2,62,88,0
2,65,69,0
2,57,49,80
2,62,69,0
2,65,60,0
2,62,80,82
2,57,52,0
2,65,69,0
2,60,69,82
2,69,60,0
2,65,69,0
2,65,69,80
2,60,60,0
2,69,64,0
2,65,69,88
2,60,64,0
2,69,64,0
2,65,69,90
2,60,71,0
2,69,69,0
2,65,69,80
2,60,64,0
2,69,64,0
2,65,71,82
2,60,69,0
2,69,60,0
2,65,71,88
2,60,71,0
2,69,69,0
2,60,64,74
2,65,71,0
2,69,69,0
2,60,56,82
2,65,71,0
2,69,69,0
2,65,71,80
2,69,69,0
2,60,71,0
2,65,69,80
2,60,64,0
2,69,64,0
