track,note,velocity,time
1,73,94,2670
1,61,94,0
1,66,94,0
1,78,94,16
1,73,94,208
1,61,94,0
1,78,94,0
1,66,94,0
1,66,94,2448
1,73,94,16
1,78,94,0
1,61,94,0
1,66,94,192
1,73,94,16
1,61,94,0
1,78,94,0
1,66,94,2480
1,73,94,16
1,61,94,0
1,78,94,16
1,61,94,224
1,66,94,16
1,73,94,0
1,78,94,0
1,73,94,2464
1,66,94,0
1,61,94,16
1,78,94,0
1,66,94,224
1,78,94,0
1,73,94,0
1,61,94,16
1,69,94,976
1,69,94,80
1,68,94,16
1,66,94,144
1,68,94,144
1,69,94,144
1,63,94,144
1,66,94,128
1,63,94,48
1,78,94,240
1,73,94,0
1,66,94,16
1,61,94,0
1,78,94,192
1,73,94,0
1,61,94,16
1,66,94,0
1,61,94,2464
1,66,94,0
1,73,94,0
1,78,94,16
1,61,94,208
1,78,94,0
1,66,94,0
1,73,94,0
1,73,94,2496
1,61,94,16
1,66,94,0
1,78,94,0
1,61,94,208
1,66,94,0
1,73,94,16
1,78,94,0
1,73,94,2496
1,66,94,0
1,61,94,0
1,78,94,0
1,73,94,208
1,78,94,0
1,61,94,0
1,66,94,0
1,71,94,14800
1,71,94,0
1,69,94,560
1,69,94,48
1,68,94,16
1,66,94,128
1,63,94,48
1,68,94,608
1,69,94,32
1,68,94,16
1,66,94,128
1,63,94,128
1,68,94,128
1,63,94,96
1,66,94,128
1,68,94,32
1,63,94,128
1,68,94,64
1,66,94,16
1,63,94,16
1,66,94,48
1,58,94,16
1,59,94,0
1,47,94,16
1,51,94,736
1,54,94,768
1,59,94,0
1,63,94,112
1,66,94,0
1,68,94,16
1,70,94,0
1,71,94,16
1,73,94,16
1,54,94,0
1,73,94,0
1,78,94,0
1,61,94,0
1,66,94,0
1,73,94,0
1,78,94,0
1,61,94,16
1,66,94,0
1,66,94,368
1,73,94,0
1,61,94,0
1,78,94,16
1,78,94,192
1,66,94,0
1,61,94,16
1,73,94,0
1,61,94,2464
1,66,94,0
1,73,94,16
1,78,94,0
1,66,94,192
1,61,94,16
1,78,94,0
1,73,94,0
1,66,94,2480
1,61,94,0
1,73,94,0
1,78,94,0
1,61,94,208
1,66,94,0
1,73,94,16
1,78,94,0
1,66,94,33232
1,73,94,0
1,61,94,0
1,78,94,0
1,61,94,192
1,66,94,16
1,73,94,0
1,78,94,0
1,66,94,2464
1,61,94,16
1,73,94,0
1,78,94,0
1,78,94,208
1,61,94,16
1,66,94,0
1,73,94,0
1,69,94,976
1,63,94,32
1,66,94,48
1,63,94,32
1,69,94,32
1,63,94,16
1,66,94,48
1,63,94,32
1,69,94,16
1,61,94,16
1,63,94,48
1,73,94,32
1,61,94,16
1,75,94,16
1,66,94,0
1,78,94,32
1,78,94,256
1,66,94,0
1,73,94,0
1,61,94,0
1,66,94,208
1,61,94,16
1,73,94,0
1,78,94,0
1,73,94,2496
1,78,94,0
1,66,94,16
1,61,94,0
1,73,94,208
1,61,94,0
1,66,94,0
1,78,94,16
1,73,94,2464
1,78,94,0
1,61,94,16
1,66,94,0
1,73,94,240
1,61,94,16
1,66,94,0
1,78,94,0
1,73,94,2496
1,78,94,0
1,66,94,16
1,61,94,0
1,73,94,208
1,61,94,16
1,66,94,0
1,78,94,16
1,47,94,2512
1,47,94,0
1,51,94,736
1,56,94,752
1,58,94,0
1,54,94,0
1,56,94,736
1,58,94,16
1,59,94,32
1,63,94,0
1,59,94,0
1,66,94,752
1,68,94,80
1,70,94,16
1,63,94,0
1,66,94,0
1,68,94,0
1,70,94,0
1,71,94,32
1,66,94,96
1,73,94,0
1,73,94,0
1,70,94,0
1,73,94,112
1,70,94,16
1,71,94,16
1,68,94,0
1,66,94,16
1,70,94,16
1,70,94,96
1,73,94,0
1,66,94,16
1,70,94,96
1,73,94,16
1,66,94,0
1,75,94,112
1,71,94,0
1,68,94,0
1,73,94,16
1,66,94,0
1,70,94,0
1,63,94,0
1,68,94,16
1,71,94,16
1,70,94,32
1,66,94,0
1,73,94,16
1,73,94,96
1,66,94,16
1,70,94,0
1,73,94,112
1,66,94,0
1,70,94,0
1,71,94,96
1,68,94,0
1,75,94,16
1,66,94,0
1,73,94,16
1,70,94,0
1,63,94,0
1,68,94,16
1,71,94,32
1,66,94,0
1,70,94,16
1,73,94,32
1,73,94,96
1,66,94,0
1,70,94,16
1,66,94,112
1,73,94,0
1,70,94,0
1,68,94,112
1,71,94,0
1,75,94,16
1,66,94,16
1,70,94,16
1,73,94,0
1,63,94,16
1,68,94,0
1,71,94,32
1,66,94,32
1,70,94,0
1,73,94,32
1,73,94,112
1,70,94,0
1,66,94,0
1,70,94,112
1,73,94,0
1,66,94,0
1,71,94,112
1,68,94,0
1,75,94,16
1,70,94,0
1,66,94,0
1,73,94,16
1,68,94,0
1,63,94,16
1,71,94,32
1,70,94,16
1,66,94,16
1,73,94,32
1,73,94,96
1,70,94,0
1,66,94,16
1,70,94,112
1,73,94,0
1,66,94,0
1,71,94,96
1,68,94,0
1,75,94,16
1,70,94,16
1,66,94,0
1,73,94,16
1,71,94,0
1,68,94,0
1,63,94,16
1,70,94,16
1,66,94,16
1,73,94,32
1,66,94,112
1,70,94,16
1,73,94,0
1,66,94,112
1,70,94,0
1,73,94,16
1,68,94,96
1,71,94,16
1,75,94,16
1,73,94,0
1,66,94,0
1,70,94,16
1,71,94,16
1,68,94,16
1,63,94,0
1,73,94,48
1,70,94,32
1,66,94,0
1,68,94,32
1,63,94,16
1,70,94,16
1,70,94,32
1,73,94,16
1,66,94,0
1,63,94,160
1,68,94,0
1,75,94,32
1,70,94,48
1,66,94,0
1,78,94,16
2,85,94,2670
2,73,94,0
2,78,94,0
2,90,94,16
2,85,94,208
2,73,94,0
2,90,94,0
2,78,94,0
2,78,94,2448
2,85,94,16
2,90,94,0
2,73,94,0
2,78,94,192
2,85,94,16
2,73,94,0
2,90,94,0
2,78,94,2480
2,85,94,0
2,73,94,16
2,90,94,16
2,73,94,208
2,78,94,16
2,85,94,0
2,90,94,0
2,85,94,2464
2,78,94,0
2,73,94,16
2,90,94,0
2,78,94,224
2,90,94,0
2,85,94,0
2,73,94,16
2,81,94,976
2,81,94,80
2,80,94,16
2,78,94,144
2,80,94,144
2,81,94,144
2,75,94,144
2,78,94,128
2,75,94,48
2,90,94,240
2,85,94,0
2,78,94,16
2,73,94,0
2,90,94,192
2,85,94,0
2,73,94,16
2,78,94,0
2,73,94,2464
2,78,94,0
2,85,94,0
2,90,94,16
2,73,94,208
2,90,94,0
2,78,94,0
2,85,94,0
2,85,94,2496
2,73,94,16
2,78,94,0
2,90,94,0
2,73,94,208
2,78,94,0
2,85,94,0
2,90,94,16
2,85,94,2496
2,78,94,0
2,73,94,0
2,90,94,0
2,85,94,208
2,90,94,0
2,73,94,0
2,78,94,0
2,83,94,14800
2,83,94,0
2,81,94,560
2,81,94,48
2,80,94,16
2,78,94,128
2,75,94,48
2,80,94,608
2,81,94,32
2,80,94,16
2,78,94,128
2,75,94,128
2,80,94,128
2,75,94,96
2,78,94,128
2,80,94,32
2,75,94,128
2,80,94,64
2,78,94,16
2,75,94,16
2,78,94,48
2,70,94,16
2,71,94,0
2,59,94,16
2,63,94,736
2,66,94,768
2,71,94,0
2,75,94,112
2,78,94,0
2,80,94,16
2,82,94,0
2,83,94,16
2,85,94,16
2,66,94,0
2,85,94,0
2,90,94,0
2,73,94,0
2,78,94,0
2,85,94,0
2,90,94,0
2,73,94,16
2,78,94,0
2,78,94,368
2,85,94,0
2,73,94,0
2,90,94,16
2,90,94,192
2,78,94,0
2,73,94,16
2,85,94,0
2,73,94,2464
2,78,94,0
2,85,94,0
2,90,94,16
2,78,94,192
2,73,94,16
2,90,94,0
2,85,94,0
2,78,94,2480
2,73,94,0
2,85,94,0
2,90,94,0
2,73,94,208
2,78,94,0
2,85,94,0
2,90,94,16
2,78,94,33232
2,85,94,0
2,73,94,0
2,90,94,0
2,73,94,176
2,78,94,0
2,85,94,16
2,90,94,0
2,78,94,2464
2,73,94,16
2,85,94,0
2,90,94,0
2,90,94,208
2,73,94,16
2,78,94,0
2,85,94,0
2,81,94,976
2,75,94,32
2,78,94,48
2,75,94,32
2,81,94,32
2,75,94,16
2,78,94,48
2,75,94,32
2,81,94,16
2,73,94,16
2,75,94,48
2,85,94,32
2,73,94,16
2,87,94,16
2,78,94,0
2,90,94,32
2,90,94,256
2,78,94,0
2,85,94,0
2,73,94,0
2,78,94,208
2,73,94,16
2,85,94,0
2,90,94,0
2,85,94,2496
2,90,94,0
2,78,94,0
2,73,94,16
2,85,94,208
2,73,94,0
2,78,94,0
2,90,94,16
2,85,94,2464
2,90,94,0
2,73,94,16
2,78,94,0
2,85,94,240
2,73,94,16
2,78,94,0
2,90,94,0
2,85,94,2496
2,90,94,0
2,78,94,16
2,73,94,0
2,85,94,208
2,73,94,16
2,78,94,0
2,90,94,0
2,59,94,2512
2,59,94,0
2,63,94,736
2,68,94,752
2,70,94,0
2,66,94,0
2,68,94,736
2,70,94,0
2,71,94,16
2,75,94,0
2,71,94,0
2,78,94,752
2,80,94,80
2,82,94,16
2,75,94,0
2,78,94,0
2,80,94,0
2,82,94,0
2,83,94,32
2,78,94,96
2,85,94,0
2,85,94,0
2,82,94,0
2,85,94,112
2,82,94,16
2,83,94,16
2,80,94,0
2,78,94,16
2,82,94,16
2,82,94,96
2,78,94,16
2,82,94,96
2,78,94,16
2,83,94,112
2,80,94,0
2,78,94,16
2,82,94,0
2,75,94,0
2,80,94,16
2,82,94,32
2,78,94,0
2,78,94,128
2,82,94,0
2,78,94,112
2,82,94,0
2,83,94,96
2,80,94,0
2,78,94,0
2,82,94,16
2,75,94,0
2,80,94,16
2,78,94,16
2,82,94,16
2,78,94,112
2,82,94,16
2,78,94,112
2,82,94,0
2,80,94,112
2,83,94,0
2,78,94,0
2,82,94,16
2,75,94,16
2,80,94,0
2,78,94,32
2,82,94,0
2,82,94,128
2,78,94,0
2,82,94,112
2,78,94,0
2,83,94,112
2,80,94,0
2,82,94,32
2,78,94,0
2,80,94,0
2,75,94,16
2,82,94,16
2,78,94,16
2,82,94,112
2,78,94,16
2,82,94,112
2,78,94,0
2,83,94,96
2,80,94,0
2,82,94,16
2,78,94,0
2,80,94,0
2,75,94,16
2,82,94,16
2,78,94,16
2,78,94,128
2,82,94,16
2,78,94,112
2,82,94,0
2,80,94,96
2,83,94,16
2,78,94,0
2,82,94,0
2,80,94,16
2,75,94,0
2,82,94,32
2,78,94,0
2,80,94,32
2,75,94,16
2,82,94,32
2,78,94,16
2,75,94,176
2,80,94,0
2,82,94,64
2,78,94,0
3,30,84,2670
3,30,84,48
3,30,84,80
3,30,84,96
3,32,84,0
3,33,84,16
3,32,84,32
3,30,84,32
3,30,84,48
3,30,84,64
3,30,84,64
3,30,84,64
3,30,84,64
3,30,84,48
3,30,84,48
3,30,84,64
3,30,84,64
3,30,84,64
3,30,84,48
3,30,84,80
3,30,84,96
3,32,84,80
3,33,84,0
3,32,84,0
3,30,84,48
3,30,84,48
3,30,84,64
3,30,84,64
3,30,84,48
3,30,84,64
3,30,84,80
3,30,84,64
3,30,84,64
3,30,84,64
3,30,84,48
3,30,84,64
3,30,84,80
3,30,84,96
3,32,84,80
3,33,84,0
3,32,84,16
3,30,84,32
3,30,84,48
3,30,84,64
3,30,84,64
3,30,84,64
3,30,84,64
3,30,84,64
3,30,84,80
3,30,84,80
3,30,84,80
3,30,84,80
3,30,84,64
3,30,84,96
3,30,84,96
3,32,84,80
3,33,84,32
3,32,84,0
3,30,84,32
3,30,84,64
3,30,84,64
3,30,84,80
3,30,84,80
3,30,84,64
3,30,84,80
3,30,84,80
3,30,84,80
3,30,84,80
3,30,84,112
3,30,84,96
3,30,84,80
3,30,84,112
3,32,84,0
3,33,84,0
3,32,84,16
3,30,84,32
3,30,84,48
3,30,84,80
3,30,84,64
3,30,84,64
3,30,84,80
3,30,84,80
3,30,84,80
3,30,84,80
3,30,84,80
3,30,84,96
3,30,84,96
3,30,84,112
3,30,84,96
3,32,84,0
3,33,84,16
3,32,84,0
3,30,84,32
3,30,84,64
3,30,84,64
3,30,84,80
3,30,84,80
3,30,84,80
3,30,84,80
3,30,84,80
3,30,84,80
3,30,84,80
3,30,84,80
3,30,84,96
3,30,84,96
3,30,84,112
3,32,84,0
3,33,84,0
3,32,84,0
3,30,84,48
3,30,84,64
3,30,84,64
3,30,84,80
3,30,84,80
3,30,84,80
3,30,84,80
3,30,84,80
3,30,84,80
3,30,84,80
3,30,84,80
3,30,84,112
3,30,84,96
3,30,84,96
3,32,84,96
3,33,84,0
3,32,84,32
3,30,84,32
3,30,84,80
3,30,84,80
3,30,84,64
3,30,84,64
3,30,84,64
3,30,84,80
3,30,84,64
3,30,84,80
3,30,84,80
3,30,84,80
3,30,84,128
3,28,84,32
3,30,84,144
3,28,84,160
3,30,84,80
3,28,84,128
3,30,84,80
3,30,84,624
3,30,84,192
3,28,84,48
3,30,84,144
3,28,84,144
3,30,84,112
3,28,84,144
3,30,84,112
3,30,84,624
3,30,84,192
3,28,84,32
3,30,84,128
3,28,84,128
3,30,84,112
3,28,84,128
3,30,84,96
3,30,84,624
3,30,84,192
3,28,84,32
3,30,84,128
3,28,84,160
3,30,84,112
3,28,84,144
3,30,84,112
3,30,84,624
3,30,84,32
3,30,84,80
3,30,84,96
3,32,84,0
3,33,84,16
3,32,84,32
3,30,84,48
3,30,84,64
3,30,84,80
3,30,84,80
3,30,84,64
3,30,84,64
3,30,84,64
3,30,84,64
3,30,84,64
3,30,84,80
3,30,84,64
3,30,84,80
3,30,84,96
3,30,84,80
3,32,84,96
3,33,84,0
3,32,84,16
3,30,84,32
3,30,84,64
3,30,84,64
3,30,84,80
3,30,84,64
3,30,84,64
3,30,84,64
3,30,84,64
3,30,84,80
3,30,84,80
3,35,84,96
3,35,84,80
3,35,84,64
3,35,84,64
3,35,84,64
3,35,84,80
3,35,84,64
3,35,84,64
3,35,84,64
3,35,84,64
3,35,84,64
3,35,84,64
3,35,84,64
3,35,84,80
3,35,84,64
3,35,84,64
3,35,84,80
3,35,84,64
3,35,84,64
3,35,84,64
3,35,84,64
3,35,84,64
3,35,84,48
3,35,84,80
3,35,84,64
3,35,84,64
3,35,84,64
3,35,84,64
3,35,84,80
3,35,84,64
3,35,84,80
3,35,84,48
3,30,84,112
3,30,84,64
3,30,84,80
3,30,84,96
3,32,84,64
3,33,84,0
3,32,84,16
3,30,84,32
3,30,84,48
3,30,84,80
3,30,84,64
3,30,84,64
3,30,84,64
3,30,84,80
3,30,84,96
3,30,84,80
3,30,84,80
3,30,84,80
3,30,84,80
3,30,84,96
3,30,84,80
3,32,84,80
3,33,84,0
3,32,84,32
3,30,84,48
3,30,84,80
3,30,84,80
3,30,84,64
3,30,84,80
3,30,84,80
3,30,84,80
3,30,84,80
3,30,84,64
3,30,84,80
3,30,84,64
3,30,84,80
3,30,84,80
3,30,84,80
3,32,84,0
3,33,84,16
3,32,84,0
3,30,84,32
3,30,84,64
3,30,84,80
3,30,84,80
3,30,84,80
3,30,84,80
3,30,84,64
3,30,84,80
3,30,84,80
3,30,84,96
3,30,84,80
3,30,84,96
3,30,84,80
3,30,84,96
3,32,84,80
3,33,84,0
3,32,84,16
3,30,84,48
3,30,84,80
3,30,84,80
3,30,84,80
3,30,84,64
3,30,84,64
3,30,84,64
3,30,84,80
3,30,84,96
3,30,84,80
3,30,84,96
3,30,84,112
3,28,84,48
3,30,84,144
3,28,84,128
3,30,84,80
3,28,84,96
3,30,84,112
3,30,84,640
3,30,84,176
3,28,84,32
3,30,84,128
3,28,84,128
3,30,84,112
3,28,84,112
3,30,84,96
3,30,84,624
3,30,84,192
3,28,84,32
3,30,84,144
3,28,84,176
3,30,84,96
3,28,84,112
3,30,84,96
3,30,84,624
3,30,84,208
3,28,84,32
3,30,84,144
3,28,84,160
3,30,84,112
3,28,84,144
3,30,84,112
3,30,84,19072
3,30,84,32
