track,note,velocity,time
1,40,112,2312
1,40,102,204
1,35,104,136
1,40,101,60
1,33,100,80
1,33,101,164
1,40,109,120
1,33,105,20
1,35,107,88
1,35,105,188
1,42,111,116
1,35,109,40
1,40,109,96
1,40,105,152
1,35,111,140
1,35,102,180
1,40,109,136
1,40,93,148
1,35,107,144
1,35,102,180
1,33,101,132
1,33,104,208
1,40,105,140
1,33,104,32
1,35,105,44
1,35,101,168
1,42,111,116
1,35,104,28
1,40,109,72
1,40,101,168
1,35,105,136
1,35,96,192
1,40,109,136
1,40,98,184
1,35,104,140
1,35,105,168
1,40,105,120
1,40,104,176
1,40,105,140
1,40,101,176
1,33,102,144
1,33,104,200
1,33,107,136
1,35,116,44
1,35,107,212
1,35,109,136
1,35,104,164
1,40,107,148
1,40,101,188
1,40,107,152
1,35,105,72
1,40,102,68
1,40,100,188
1,40,107,136
1,33,102,48
1,33,111,172
1,33,104,140
1,33,98,140
1,35,104,136
1,35,104,180
1,35,109,132
1,40,111,68
1,40,100,168
1,40,107,152
1,35,104,56
1,40,109,72
1,40,107,176
1,40,107,132
1,35,104,28
1,32,109,64
1,32,112,184
1,32,107,136
1,33,112,80
1,33,102,164
1,33,109,136
1,40,111,124
1,40,101,168
1,40,107,144
1,35,107,28
1,40,105,56
1,40,107,180
1,40,107,148
1,35,111,52
1,32,107,32
1,32,105,168
1,32,111,136
1,33,121,120
1,33,105,152
1,33,114,140
1,33,114,164
1,33,102,184
1,33,118,144
1,40,104,72
1,31,114,36
1,31,110,152
1,31,108,132
1,40,107,128
1,40,102,136
1,40,109,136
1,35,118,32
1,40,109,60
1,40,118,168
1,35,111,584
1,40,118,100
1,40,109,184
1,40,121,140
1,35,123,28
1,40,111,100
1,40,116,208
1,40,123,128
1,35,118,32
1,35,127,140
1,35,121,200
1,35,114,144
1,42,112,80
1,35,121,28
1,35,118,232
1,35,112,136
1,37,114,64
1,40,107,60
1,40,109,176
1,40,111,136
1,35,114,36
1,40,105,72
1,40,104,188
1,40,112,132
1,35,114,52
1,35,125,136
1,35,111,176
1,35,121,148
1,42,109,64
1,35,125,44
1,35,112,184
1,37,114,124
1,39,105,60
1,40,102,64
1,40,111,164
1,40,114,128
1,35,114,44
1,32,116,36
1,32,112,176
1,32,116,136
1,39,105,68
1,33,114,28
1,33,116,192
1,33,114,136
1,33,105,216
1,35,123,124
1,35,116,152
1,35,114,144
1,42,114,80
1,35,118,16
1,35,118,164
1,37,116,120
1,39,104,56
1,40,109,112
1,40,107,152
1,35,112,136
1,35,107,188
1,33,105,136
1,33,112,156
1,40,111,116
1,33,112,16
1,35,105,36
1,35,112,200
1,42,107,100
1,35,111,24
1,40,107,64
1,40,109,164
1,35,112,136
1,35,112,188
1,40,111,136
1,40,112,180
1,35,112,140
1,40,102,48
1,33,114,44
1,33,116,196
1,40,111,140
1,33,116,20
1,35,114,92
1,35,114,184
1,42,104,128
1,35,112,36
1,40,104,68
1,40,109,180
1,35,112,128
1,35,109,184
1,40,107,144
1,40,107,188
1,35,114,140
1,35,112,200
1,40,105,136
1,40,111,180
1,40,111,136
1,35,107,28
1,33,107,40
1,33,107,196
1,33,112,128
1,35,112,60
1,35,109,188
1,35,114,132
1,40,111,92
1,40,111,120
1,40,109,136
1,35,112,16
1,40,109,64
1,40,107,184
1,40,112,136
1,40,107,104
1,35,104,36
1,33,107,196
1,33,111,204
1,33,114,120
1,35,121,96
1,35,112,196
1,35,109,136
1,37,111,40
1,40,104,60
1,40,107,188
1,40,107,144
1,35,112,24
1,40,104,56
1,40,111,164
1,40,107,140
1,35,114,24
1,32,107,20
1,32,111,164
1,32,112,132
1,32,111,144
1,33,123,136
1,33,112,152
1,33,112,136
1,40,112,48
1,40,111,208
1,40,107,144
1,35,118,32
1,40,105,56
1,40,112,176
1,40,114,136
1,35,116,32
1,32,105,52
1,32,104,172
1,32,116,136
1,32,107,148
1,33,121,140
1,33,109,216
1,33,109,124
1,40,100,20
1,33,112,0
1,33,100,184
1,33,111,140
1,33,107,136
1,31,104,144
1,31,98,180
1,31,104,132
1,31,99,132
1,40,121,120
1,40,105,208
1,40,118,136
1,35,109,40
1,40,109,96
1,40,116,164
1,35,121,584
1,40,107,88
1,40,114,188
1,40,116,136
1,35,121,32
1,40,107,80
1,40,109,200
1,40,114,140
1,35,112,56
1,35,121,140
1,35,111,208
1,35,114,140
1,42,111,80
1,35,116,20
1,35,116,212
1,35,116,124
1,37,114,84
1,40,105,80
1,40,107,180
1,40,111,148
1,35,121,32
1,40,114,92
1,40,111,200
1,40,116,136
1,35,121,36
1,35,127,160
1,35,111,228
1,35,118,144
1,42,112,108
1,35,125,12
1,35,114,192
1,37,114,128
1,39,104,76
1,40,114,96
1,40,112,160
1,40,114,136
1,40,105,120
1,32,116,128
1,32,118,216
1,32,111,140
1,32,104,168
1,33,116,140
1,33,102,236
1,33,105,144
1,40,107,72
1,35,118,56
1,35,105,184
1,35,107,148
1,42,105,92
1,35,109,20
1,35,109,204
1,35,112,136
1,42,107,88
1,35,112,36
1,35,105,208
1,35,114,140
1,42,107,76
1,35,111,44
1,35,105,168
1,37,109,116
1,39,104,64
1,40,109,112
1,40,111,180
1,40,107,136
1,35,111,32
1,40,109,80
1,40,102,188
1,40,107,148
1,35,114,60
1,35,118,148
1,35,105,212
1,35,111,144
1,42,112,92
1,35,116,40
1,35,109,212
1,42,101,132
1,35,112,20
1,40,109,44
1,40,104,184
1,40,111,136
1,35,112,60
1,40,104,104
1,40,111,212
1,40,112,132
1,35,111,44
1,35,116,144
1,35,111,200
1,35,114,136
1,42,104,68
1,35,112,40
1,35,112,208
1,35,111,132
1,42,112,72
1,40,111,84
1,40,107,188
1,40,107,136
1,35,112,80
1,40,107,116
1,40,111,176
1,40,109,132
1,35,112,96
1,35,118,180
1,35,109,228
1,35,118,140
1,42,109,68
1,35,114,44
1,35,109,204
1,35,111,140
1,42,104,112
1,40,105,88
1,40,104,220
1,40,114,128
1,35,112,92
1,40,121,144
1,40,121,248
2,64,104,2308
2,59,96,4
2,68,90,0
2,64,89,104
2,61,94,4
2,69,94,4
2,63,97,104
2,59,89,0
2,66,97,4
2,59,82,4
2,64,101,4
2,68,97,0
2,61,92,132
2,69,92,4
2,59,87,92
2,63,96,0
2,66,98,0
2,64,94,84
2,59,78,4
2,68,88,4
2,64,89,8
2,69,98,0
2,61,94,4
2,63,91,120
2,59,85,0
2,66,98,0
2,64,94,28
2,68,98,0
2,69,90,108
2,61,82,0
2,59,91,88
2,63,98,4
2,66,97,4
2,64,97,76
2,68,100,0
2,68,89,20
2,59,89,0
2,63,109,0
2,64,96,116
2,61,85,0
2,69,97,4
2,64,87,8
2,68,97,0
2,59,100,4
2,63,87,108
2,61,87,80
2,64,101,0
2,69,96,4
2,67,91,96
2,59,94,4
2,62,103,4
2,64,98,28
2,59,89,4
2,68,82,0
2,64,100,132
2,68,93,4
2,59,96,0
2,59,60,28
2,63,100,0
2,66,100,4
2,68,98,84
2,64,98,0
2,59,96,0
2,59,85,96
2,63,102,4
2,66,97,0
2,64,102,0
2,59,67,0
2,68,104,0
2,59,84,92
2,63,104,0
2,68,105,0
2,64,98,84
2,69,101,0
2,61,100,0
2,59,97,100
2,63,102,0
2,66,105,4
2,64,101,72
2,59,82,4
2,68,92,0
2,64,86,24
2,61,94,0
2,69,102,4
2,59,98,100
2,63,102,0
2,66,104,0
2,59,84,68
2,64,101,0
2,68,89,4
2,64,91,24
2,61,97,0
2,69,102,0
2,59,104,76
2,66,109,0
2,63,104,0
2,59,91,116
2,64,109,4
2,68,98,4
2,64,87,44
2,69,98,0
2,59,88,4
2,61,96,0
2,66,104,92
2,59,98,4
2,63,107,4
2,59,82,96
2,64,98,0
2,68,92,4
2,64,94,56
2,61,96,0
2,69,100,4
2,66,98,88
2,59,91,4
2,63,96,4
2,59,83,96
2,64,100,0
2,68,100,0
2,59,92,80
2,63,98,0
2,68,96,0
2,61,96,72
2,64,101,4
2,69,100,4
2,68,100,84
2,64,98,0
2,59,100,4
2,68,91,40
2,63,101,0
2,59,92,0
2,64,102,184
2,61,98,0
2,69,93,4
2,59,98,100
2,62,103,0
2,67,95,4
2,64,98,84
2,68,96,0
2,59,105,4
2,64,107,56
2,59,109,4
2,68,105,0
2,59,82,92
2,63,101,4
2,66,104,4
2,59,92,8
2,64,105,4
2,68,96,0
2,59,87,152
2,63,105,4
2,66,104,0
2,59,87,0
2,68,100,0
2,64,107,0
2,59,77,128
2,63,97,0
2,68,104,0
2,64,98,36
2,61,97,0
2,69,102,4
2,59,104,44
2,63,101,0
2,66,107,0
2,59,90,152
2,68,98,4
2,64,105,0
2,59,91,52
2,66,109,0
2,63,105,4
2,64,102,96
2,68,104,0
2,59,98,4
2,59,92,76
2,63,105,0
2,66,109,4
2,59,92,84
2,64,104,0
2,68,102,0
2,59,83,56
2,63,105,4
2,66,100,4
2,59,76,44
2,64,88,4
2,68,96,4
3,68,127,15560
3,71,127,84
3,71,127,128
3,71,127,80
3,71,127,88
3,71,127,112
3,71,127,140
3,69,127,112
3,68,127,244
3,69,127,56
3,69,127,88
3,68,127,88
3,64,127,136
3,66,127,48
3,68,127,144
3,68,127,448
3,71,127,16
3,71,127,112
3,71,127,16
3,71,127,96
3,71,127,128
3,71,127,116
3,69,127,92
3,68,127,476
3,69,127,72
3,69,127,80
3,68,127,120
3,64,127,72
3,66,127,60
3,68,127,96
3,68,127,276
3,71,127,32
3,76,127,68
3,76,127,52
3,76,127,8
3,75,127,92
3,75,127,84
3,75,127,72
3,71,127,80
3,73,127,28
3,73,127,72
3,73,127,188
3,71,127,64
3,71,127,132
3,68,127,416
3,69,127,4
3,71,127,24
3,71,127,76
3,71,127,28
3,68,127,32
3,71,127,48
3,71,127,220
3,69,127,88
3,68,127,28
3,69,127,32
3,69,127,104
3,69,127,704
3,68,127,52
3,69,127,76
3,71,127,64
3,69,127,84
3,71,127,116
3,69,127,0
3,68,127,24
3,68,127,2240
3,71,127,32
3,71,127,212
3,73,127,364
3,71,127,64
3,68,127,204
3,69,127,592
3,69,127,148
3,69,127,96
3,68,127,16
3,66,127,96
3,69,127,72
3,69,127,80
3,68,127,116
3,66,127,80
3,68,127,156
3,71,127,44
3,71,127,188
3,73,127,364
3,71,127,68
3,68,127,200
3,69,127,496
3,69,127,128
3,69,127,136
3,68,127,44
3,66,127,108
3,73,127,64
3,73,127,96
3,73,127,92
3,71,127,88
3,76,127,452
3,76,127,84
3,76,127,112
3,75,127,28
3,75,127,132
3,75,127,100
3,76,127,8
3,75,127,4
3,73,127,184
3,71,127,44
3,76,127,240
3,76,127,132
3,76,127,112
3,75,127,32
3,76,127,12
3,78,127,60
3,76,127,56
3,75,127,88
3,73,127,12
3,71,127,20
3,68,127,14116
3,71,127,4
3,71,127,116
3,71,127,136
3,71,127,60
3,71,127,132
3,71,127,144
3,69,127,56
3,68,127,212
3,69,127,44
3,69,127,104
3,68,127,116
3,64,127,80
3,66,127,84
3,68,127,136
3,68,127,452
3,71,127,32
3,71,127,96
3,71,127,96
3,73,127,112
3,71,127,88
3,71,127,96
3,69,127,76
3,68,127,300
3,69,127,96
3,69,127,92
3,68,127,104
3,64,127,104
3,66,127,24
3,68,127,88
3,68,127,484
3,71,127,32
3,76,127,124
3,76,127,72
3,76,127,68
3,75,127,100
3,75,127,88
3,75,127,76
3,71,127,124
3,73,127,64
3,73,127,72
3,73,127,144
3,71,127,52
3,71,127,132
3,68,127,420
3,69,127,88
3,71,127,60
3,71,127,108
3,71,127,76
3,68,127,84
3,71,127,40
3,71,127,76
3,69,127,72
3,68,127,16
3,69,127,136
3,69,127,116
3,69,127,568
3,68,127,44
3,69,127,36
3,71,127,72
3,69,127,48
3,71,127,116
3,69,127,92
3,68,127,0
3,68,127,1860
3,71,127,36
3,71,127,220
3,73,127,360
3,71,127,60
3,68,127,188
3,69,127,516
3,69,127,96
3,69,127,112
3,68,127,52
3,66,127,64
3,69,127,44
3,69,127,72
3,68,127,148
3,66,127,116
3,68,127,160
3,71,127,16
3,71,127,184
3,73,127,244
3,71,127,60
3,68,127,204
3,69,127,500
3,69,127,140
3,69,127,128
3,68,127,44
3,66,127,56
3,73,127,4
3,73,127,92
3,73,127,116
3,71,127,32
3,76,127,416
3,76,127,128
3,76,127,120
3,75,127,72
3,75,127,100
3,75,127,88
3,76,127,16
3,75,127,120
3,73,127,8
3,71,127,32
3,76,127,236
3,76,127,176
3,76,127,128
3,75,127,32
3,76,127,76
3,78,127,116
3,76,127,84
3,75,127,76
3,73,127,28
3,71,127,116
3,68,127,3360
3,71,127,36
3,71,127,196
3,73,127,384
3,71,127,44
3,68,127,212
3,69,127,564
3,69,127,116
3,69,127,100
3,68,127,48
3,66,127,84
3,69,127,52
3,69,127,68
3,68,127,160
3,66,127,124
3,68,127,180
3,71,127,48
3,71,127,188
3,73,127,368
3,71,127,48
3,68,127,140
3,69,127,584
3,69,127,136
3,69,127,124
3,68,127,68
3,66,127,28
3,73,127,20
3,73,127,128
3,73,127,116
3,71,127,40
3,68,127,252
3,71,127,24
3,71,127,232
3,73,127,492
3,71,127,52
3,68,127,208
3,69,127,560
3,69,127,140
3,69,127,128
3,68,127,56
3,66,127,124
3,69,127,60
3,69,127,64
3,68,127,156
3,66,127,108
3,68,127,200
3,71,127,48
3,71,127,204
3,73,127,444
3,71,127,52
3,68,127,280
4,56,114,2588
4,59,114,16
4,64,114,12
4,68,114,4
4,56,101,304
4,59,101,8
4,64,101,8
4,68,101,8
4,56,102,56
4,59,102,8
4,64,102,4
4,68,102,8
4,56,105,116
4,59,105,8
4,64,105,8
4,68,105,8
4,56,75,104
4,59,75,8
4,64,75,12
4,68,75,4
4,56,116,132
4,59,116,4
4,64,116,8
4,68,116,8
4,56,94,108
4,59,94,8
4,64,94,8
4,68,94,8
4,57,116,88
4,61,116,20
4,64,116,16
4,69,116,4
4,57,53,104
4,61,53,8
4,64,53,0
4,69,53,8
4,57,111,152
4,61,111,8
4,64,111,8
4,69,111,8
4,57,114,124
4,61,114,8
4,64,114,8
4,69,114,8
4,57,114,300
4,61,114,8
4,64,114,8
4,69,114,8
4,57,109,304
4,61,109,8
4,64,109,8
4,69,109,8
4,54,112,16
4,59,112,16
4,63,112,12
4,71,112,8
4,54,75,112
4,59,75,8
4,63,75,8
4,71,75,8
4,54,116,136
4,59,116,8
4,63,116,12
4,71,116,4
4,54,109,120
4,59,109,8
4,63,109,8
4,71,109,8
4,54,59,116
4,59,59,4
4,63,59,8
4,71,59,0
4,54,111,140
4,59,111,8
4,63,111,12
4,71,111,4
4,54,105,312
4,59,105,8
4,63,105,12
4,71,105,4
4,56,114,108
4,59,114,16
4,64,114,4
4,68,114,4
4,56,109,304
4,59,109,4
4,64,109,8
4,68,109,8
4,56,112,20
4,59,112,8
4,64,112,8
4,68,112,8
4,56,60,112
4,59,60,12
4,64,60,8
4,68,60,4
4,56,105,136
4,59,105,8
4,64,105,8
4,68,105,8
4,56,112,120
4,59,112,4
4,64,112,8
4,68,112,8
4,56,80,108
4,59,80,8
4,64,80,8
4,68,80,8
4,56,114,16
4,59,114,12
4,64,114,4
4,68,114,8
4,56,77,108
4,59,77,8
4,64,77,8
4,68,77,8
4,56,107,128
4,59,107,12
4,64,107,8
4,68,107,4
4,56,121,124
4,59,121,4
4,64,121,8
4,68,121,12
4,56,118,300
4,59,118,8
4,64,118,12
4,68,118,4
4,56,105,308
4,59,105,8
4,64,105,8
4,68,105,8
4,57,114,24
4,61,114,20
4,64,114,0
4,69,114,4
4,57,62,108
4,61,62,8
4,64,62,12
4,69,62,0
4,57,104,144
4,61,104,8
4,64,104,8
4,69,104,8
4,57,111,128
4,61,111,4
4,64,111,8
4,69,111,12
4,57,63,116
4,61,63,8
4,64,63,8
4,69,63,0
4,57,112,144
4,61,112,8
4,64,112,8
4,69,112,8
4,57,52,108
4,61,52,8
4,64,52,0
4,69,52,4
