track,note,velocity,time
1,61,64,0
1,61,0,60
1,64,64,0
1,64,0,60
1,69,76,0
1,69,0,840
1,64,70,0
1,64,0,480
1,73,72,0
1,73,0,240
1,74,74,0
1,74,0,120
1,71,70,0
1,71,0,120
1,69,70,0
1,69,0,240
1,73,50,720
1,73,0,240
1,74,52,0
1,74,0,120
1,71,46,0
1,71,0,120
1,69,49,0
1,69,0,480
1,85,57,0
1,85,0,240
1,75,50,240
1,75,0,480
1,76,52,0
1,76,0,720
1,77,51,0
1,77,0,220
1,80,57,20
1,80,0,240
1,78,56,0
1,78,0,240
1,76,54,0
1,76,0,240
1,74,53,0
1,74,0,240
1,73,52,0
1,73,0,240
1,71,51,0
1,71,0,240
1,69,51,0
1,69,0,240
1,68,46,0
1,68,0,240
1,76,53,0
1,76,0,240
1,74,51,0
1,74,0,240
1,71,57,480
1,71,0,240
1,69,53,0
1,69,0,240
1,78,57,0
1,78,0,240
1,76,56,0
1,76,0,240
1,73,63,480
1,73,0,240
1,71,59,0
1,71,0,240
1,79,62,0
1,79,0,240
1,78,59,0
1,78,0,240
1,66,51,480
1,66,0,480
1,76,53,0
1,76,0,240
1,74,51,0
1,74,0,240
1,73,51,0
1,73,0,240
1,71,49,0
1,71,0,240
1,69,51,0
1,69,0,240
1,68,48,0
1,68,0,240
1,69,51,0
1,69,0,480
1,71,68,300
1,71,0,60
1,76,71,0
1,76,0,60
1,80,74,0
1,80,0,60
1,83,77,0
1,83,0,1440
1,83,73,0
1,83,0,120
1,81,72,0
1,81,0,120
1,80,71,0
1,80,0,120
1,78,70,0
1,78,0,112
1,78,72,8
1,78,0,120
1,76,71,0
1,76,0,120
1,75,69,0
1,75,0,120
1,73,68,0
1,73,0,120
1,71,70,0
1,71,0,120
1,69,67,0
1,69,0,120
1,68,67,0
1,68,0,120
1,69,67,0
1,69,0,120
1,68,67,0
1,68,0,120
1,71,69,0
1,71,0,120
1,76,70,0
1,76,0,120
1,80,72,0
1,80,0,120
1,83,73,0
1,83,0,960
1,83,73,0
1,83,0,120
1,81,72,0
1,81,0,120
1,80,71,0
1,80,0,120
1,78,70,0
1,78,0,115
1,78,72,5
1,78,0,120
1,76,71,0
1,76,0,120
1,75,69,0
1,75,0,120
1,73,68,0
1,73,0,120
1,71,70,0
1,71,0,120
1,69,67,0
1,69,0,120
1,68,67,0
1,68,0,120
1,69,67,0
1,69,0,120
1,68,67,0
1,68,0,120
1,71,64,0
1,71,0,120
1,69,70,0
1,69,0,120
1,68,64,0
1,69,68,113
1,68,0,7
1,69,0,113
1,71,68,7
1,71,0,120
1,73,69,0
1,73,0,120
1,75,70,0
1,75,0,120
1,76,70,0
1,76,0,120
1,78,71,0
1,78,0,120
1,80,72,0
1,80,0,120
1,81,72,0
1,81,0,120
1,83,73,0
1,83,0,120
1,85,74,0
1,85,0,120
1,87,74,0
1,87,0,120
1,88,75,0
1,88,0,120
1,87,72,0
1,87,0,120
1,85,70,0
1,85,0,120
1,83,68,0
1,83,0,120
1,81,65,0
1,81,0,120
1,80,63,0
1,80,0,120
1,78,61,0
1,78,0,120
1,76,59,0
1,76,0,120
1,75,57,0
1,75,0,120
1,73,50,0
1,73,0,240
1,85,50,120
1,85,0,120
1,76,54,0
1,76,0,420
1,80,50,0
1,80,0,60
1,75,53,0
1,78,53,0
1,78,0,480
1,75,0,0
1,76,51,0
1,76,0,480
1,61,64,960
1,61,0,60
1,64,64,0
1,64,0,60
1,69,76,0
1,69,0,840
1,64,70,0
1,64,0,480
1,73,72,0
1,73,0,240
1,74,74,0
1,74,0,120
1,71,70,0
1,71,0,120
1,69,70,0
1,69,0,240
1,73,50,720
1,73,0,240
1,74,52,0
1,74,0,120
1,71,46,0
1,71,0,120
1,69,49,0
1,69,0,480
1,85,57,0
1,85,0,240
1,75,50,240
1,75,0,480
1,76,52,0
1,76,0,720
1,77,51,0
1,77,0,220
1,80,57,20
1,80,0,240
1,78,56,0
1,78,0,240
1,76,54,0
1,76,0,240
1,74,53,0
1,74,0,240
1,73,52,0
1,73,0,240
1,71,51,0
1,71,0,240
1,69,51,0
1,69,0,240
1,68,46,0
1,68,0,240
1,76,53,0
1,76,0,240
1,74,51,0
1,74,0,240
1,71,57,480
1,71,0,240
1,69,53,0
1,69,0,240
1,78,57,0
1,78,0,240
1,76,56,0
1,76,0,240
1,73,63,480
1,73,0,240
1,71,59,0
1,71,0,240
1,79,62,0
1,79,0,240
1,78,59,0
1,78,0,240
1,66,51,480
1,66,0,480
1,76,53,0
1,76,0,240
1,74,51,0
1,74,0,240
1,73,51,0
1,73,0,240
1,71,49,0
1,71,0,240
1,69,51,0
1,69,0,240
1,68,48,0
1,68,0,240
1,69,51,0
1,69,0,480
1,71,68,300
1,71,0,60
1,76,71,0
1,76,0,60
1,80,74,0
1,80,0,60
1,83,77,0
1,83,0,1440
1,83,73,0
1,83,0,120
1,81,72,0
1,81,0,120
1,80,71,0
1,80,0,120
1,78,70,0
1,78,0,120
1,78,72,0
1,78,0,116
1,76,71,4
1,76,0,120
1,75,69,0
1,75,0,120
1,73,68,0
1,73,0,120
1,71,70,0
1,71,0,120
1,69,67,0
1,69,0,120
1,68,67,0
1,68,0,120
1,69,67,0
1,69,0,120
1,68,67,0
1,68,0,120
1,71,69,0
1,71,0,120
1,76,70,0
1,76,0,120
1,80,72,0
1,80,0,120
1,83,73,0
1,83,0,960
1,83,73,0
1,83,0,120
1,81,72,0
1,81,0,120
1,80,71,0
1,80,0,120
1,78,70,0
1,78,0,116
1,78,72,4
1,78,0,120
1,76,71,0
1,76,0,120
1,75,69,0
1,75,0,120
1,73,68,0
1,73,0,120
1,71,70,0
1,71,0,120
1,69,67,0
1,69,0,120
1,68,67,0
1,68,0,120
1,69,67,0
1,69,0,120
1,68,67,0
1,68,0,120
1,71,64,0
1,71,0,120
1,69,70,0
1,69,0,120
1,68,64,0
1,69,68,113
1,68,0,7
1,69,0,113
1,71,68,7
1,71,0,120
1,73,69,0
1,73,0,120
1,75,70,0
1,75,0,120
1,76,70,0
1,76,0,120
1,78,71,0
1,78,0,120
1,80,72,0
1,80,0,120
1,81,72,0
1,81,0,120
1,83,73,0
1,83,0,120
1,85,74,0
1,85,0,120
1,87,74,0
1,87,0,120
1,88,75,0
1,88,0,120
1,87,72,0
1,87,0,120
1,85,70,0
1,85,0,120
1,83,68,0
1,83,0,120
1,81,65,0
1,81,0,120
1,80,63,0
1,80,0,120
1,78,61,0
1,78,0,120
1,76,59,0
1,76,0,120
1,75,57,0
1,75,0,120
1,73,50,0
1,73,0,240
1,85,50,120
1,85,0,120
1,76,54,0
1,76,0,420
1,80,50,0
1,80,0,60
1,75,53,0
1,78,53,0
1,78,0,480
1,75,0,0
1,76,51,0
1,76,0,480
1,64,61,900
1,76,74,60
1,64,0,60
1,76,0,360
1,66,61,0
1,78,70,60
1,66,0,60
1,78,0,360
1,67,61,0
1,79,70,60
1,67,0,60
1,79,0,420
1,71,56,0
1,71,0,480
1,70,52,0
1,70,0,480
1,70,51,360
1,70,0,120
1,73,57,0
1,73,0,480
1,71,56,0
1,71,0,480
1,71,63,360
1,71,0,120
1,74,66,0
1,74,0,480
1,73,60,0
1,73,0,480
1,73,68,360
1,73,0,120
1,76,72,0
1,76,0,240
1,74,68,0
1,74,0,240
1,77,72,0
1,77,0,240
1,76,67,0
1,76,0,240
1,79,70,0
1,79,0,240
1,77,66,0
1,77,0,240
1,69,56,0
1,69,0,480
1,68,52,0
1,68,0,480
1,68,51,360
1,68,0,120
1,71,57,0
1,71,0,480
1,69,56,0
1,69,0,480
1,69,63,360
1,69,0,120
1,72,66,0
1,72,0,480
1,71,60,0
1,71,0,480
1,71,68,360
1,71,0,120
1,74,72,0
1,74,0,240
1,72,68,0
1,72,0,240
1,71,72,0
1,71,0,240
1,69,67,0
1,69,0,240
1,81,73,0
1,81,0,180
1,81,70,60
1,81,0,180
1,83,78,60
1,83,0,240
1,81,78,0
1,81,0,240
1,79,77,0
1,79,0,240
1,77,75,0
1,77,0,240
1,76,79,0
1,76,0,240
1,75,75,0
1,75,0,240
1,84,81,0
1,84,0,960
1,75,55,0
1,75,0,480
1,76,55,0
1,76,0,720
1,78,57,0
1,78,0,120
1,76,46,0
1,76,0,90
1,76,55,30
1,76,0,120
1,74,53,0
1,74,0,120
1,73,52,0
1,73,0,120
1,71,51,0
1,71,0,120
1,61,64,0
1,61,0,60
1,64,64,0
1,64,0,60
1,69,76,0
1,69,0,840
1,64,70,0
1,64,0,480
1,73,72,0
1,73,0,240
1,74,74,0
1,74,0,120
1,71,70,0
1,71,0,120
1,69,70,0
1,69,0,240
1,73,50,720
1,73,0,240
1,74,52,0
1,74,0,120
1,71,46,0
1,71,0,120
1,69,49,0
1,69,0,480
1,85,57,0
1,85,0,240
1,75,50,240
1,75,0,480
1,76,52,0
1,76,0,720
1,77,51,0
1,77,0,220
1,80,57,20
1,80,0,240
1,78,56,0
1,78,0,240
1,76,54,0
1,76,0,240
1,74,53,0
1,74,0,240
1,73,52,0
1,73,0,240
1,71,51,0
1,71,0,240
1,69,51,0
1,69,0,240
1,68,46,0
1,68,0,240
1,76,53,0
1,76,0,240
1,74,51,0
1,74,0,240
1,71,57,480
1,71,0,240
1,69,53,0
1,69,0,240
1,78,57,0
1,78,0,240
1,76,56,0
1,76,0,240
1,71,63,480
1,71,0,240
1,69,59,0
1,69,0,240
1,81,62,0
1,81,0,240
1,79,59,0
1,79,0,240
1,79,55,480
1,79,0,240
1,78,52,0
1,78,0,240
1,76,51,0
1,76,0,240
1,74,50,0
1,74,0,240
1,73,49,0
1,73,0,240
1,71,47,0
1,71,0,240
1,76,49,0
1,76,0,120
1,78,45,0
1,78,0,40
1,76,45,0
1,76,0,40
1,74,45,0
1,74,0,40
1,76,51,0
1,76,0,120
1,78,52,0
1,78,0,120
1,69,51,0
1,69,0,480
1,68,48,0
1,69,66,360
1,69,0,60
1,73,67,0
1,73,0,60
1,68,0,0
1,76,67,0
1,76,0,480
1,76,69,0
1,76,0,960
1,76,65,0
1,76,0,120
1,74,64,0
1,74,0,120
1,73,63,0
1,73,0,120
1,71,63,0
1,71,0,109
1,71,64,11
1,71,0,120
1,69,63,0
1,69,0,120
1,68,62,0
1,68,0,120
1,66,61,0
1,66,0,120
1,64,63,0
1,64,0,120
1,62,60,0
1,62,0,120
1,61,60,0
1,61,0,120
1,62,60,0
1,62,0,120
1,61,60,0
1,61,0,120
1,64,62,0
1,64,0,120
1,69,63,0
1,69,0,120
1,73,64,0
1,73,0,120
1,76,65,0
1,76,0,720
1,88,65,0
1,88,0,236
1,88,70,4
1,88,0,120
1,86,70,0
1,86,0,120
1,85,69,0
1,85,0,120
1,83,69,0
1,83,0,115
1,83,68,5
1,83,0,120
1,81,67,0
1,81,0,120
1,80,67,0
1,80,0,120
1,78,66,0
1,78,0,120
1,76,66,0
1,76,0,120
1,74,65,0
1,74,0,120
1,73,65,0
1,73,0,120
1,74,64,0
1,74,0,120
1,73,63,0
1,73,0,120
1,76,64,0
1,76,0,120
1,74,60,0
1,74,0,120
1,73,61,0
1,73,0,120
1,74,62,0
1,74,0,120
1,76,63,0
1,76,0,120
1,78,64,0
1,78,0,120
1,80,66,0
1,80,0,120
1,81,67,0
1,81,0,120
1,83,68,0
1,83,0,120
1,85,70,0
1,85,0,120
1,86,71,0
1,86,0,120
1,88,72,0
1,88,0,120
1,86,71,0
1,86,0,120
1,85,69,0
1,85,0,120
1,83,68,0
1,83,0,120
1,81,66,0
1,81,0,120
1,80,65,0
1,80,0,120
1,78,63,0
1,78,0,120
1,76,62,0
1,76,0,120
1,74,60,0
1,74,0,120
1,73,59,0
1,73,0,120
1,71,57,0
1,71,0,120
1,69,56,0
1,69,0,120
1,78,59,0
1,78,0,80
1,80,55,0
1,80,0,80
1,78,59,0
1,78,0,80
1,77,59,0
1,77,0,60
1,78,55,0
1,78,0,60
1,80,55,0
1,80,0,60
1,81,55,0
1,81,0,60
1,69,59,0
1,69,0,420
1,73,50,0
1,73,0,60
1,68,53,0
1,71,53,0
1,71,0,480
1,68,0,0
1,69,51,0
1,69,0,480
1,64,61,900
1,76,74,60
1,64,0,60
1,76,0,360
1,66,61,0
1,78,70,60
1,66,0,60
1,78,0,360
1,67,61,0
1,79,70,60
1,67,0,60
1,79,0,420
1,71,56,0
1,71,0,480
1,70,52,0
1,70,0,480
1,70,51,360
1,70,0,120
1,73,57,0
1,73,0,480
1,71,56,0
1,71,0,480
1,71,63,360
1,71,0,120
1,74,66,0
1,74,0,480
1,73,60,0
1,73,0,480
1,73,68,360
1,73,0,120
1,76,72,0
1,76,0,240
1,74,68,0
1,74,0,240
1,77,72,0
1,77,0,240
1,76,67,0
1,76,0,240
1,79,70,0
1,79,0,240
1,77,66,0
1,77,0,240
1,69,56,0
1,69,0,480
1,68,52,0
1,68,0,480
1,68,51,360
1,68,0,120
1,71,57,0
1,71,0,480
1,69,56,0
1,69,0,480
1,69,63,360
1,69,0,120
1,72,66,0
1,72,0,480
1,71,60,0
1,71,0,480
1,71,68,360
1,71,0,120
1,74,72,0
1,74,0,240
1,72,68,0
1,72,0,240
1,71,72,0
1,71,0,240
1,69,67,0
1,69,0,240
1,81,73,0
1,81,0,180
1,81,70,60
1,81,0,180
1,83,78,60
1,83,0,240
1,81,78,0
1,81,0,240
1,79,77,0
1,79,0,240
1,77,75,0
1,77,0,240
1,76,79,0
1,76,0,240
1,75,75,0
1,75,0,240
1,84,81,0
1,84,0,960
1,75,55,0
1,75,0,480
1,76,55,0
1,76,0,720
1,78,57,0
1,78,0,120
1,76,46,0
1,76,0,114
1,76,55,6
1,76,0,120
1,74,53,0
1,74,0,120
1,73,52,0
1,73,0,120
1,71,51,0
1,71,0,120
1,61,64,0
1,61,0,60
1,64,64,0
1,64,0,60
1,69,76,0
1,69,0,840
1,64,70,0
1,64,0,480
1,73,72,0
1,73,0,240
1,74,74,0
1,74,0,120
1,71,70,0
1,71,0,120
1,69,70,0
1,69,0,240
1,73,50,720
1,73,0,240
1,74,52,0
1,74,0,120
1,71,46,0
1,71,0,120
1,69,49,0
1,69,0,480
1,85,57,0
1,85,0,240
1,75,50,240
1,75,0,480
1,76,52,0
1,76,0,720
1,77,51,0
1,77,0,220
1,80,57,20
1,80,0,240
1,78,56,0
1,78,0,240
1,76,54,0
1,76,0,240
1,74,53,0
1,74,0,240
1,73,52,0
1,73,0,240
1,71,51,0
1,71,0,240
1,69,51,0
1,69,0,240
1,68,46,0
1,68,0,240
1,76,53,0
1,76,0,240
1,74,51,0
1,74,0,240
1,71,57,480
1,71,0,240
1,69,53,0
1,69,0,240
1,78,57,0
1,78,0,240
1,76,56,0
1,76,0,240
1,71,63,480
1,71,0,240
1,69,59,0
1,69,0,240
1,81,62,0
1,81,0,240
1,79,59,0
1,79,0,240
1,79,55,480
1,79,0,240
1,78,52,0
1,78,0,240
1,76,51,0
1,76,0,240
1,74,50,0
1,74,0,240
1,73,49,0
1,73,0,240
1,71,47,0
1,71,0,240
1,76,49,0
1,76,0,120
1,78,45,0
1,78,0,40
1,76,45,0
1,76,0,40
1,74,45,0
1,74,0,40
1,76,51,0
1,76,0,120
1,78,52,0
1,78,0,120
1,69,51,0
1,69,0,480
1,68,48,0
1,69,66,360
1,69,0,60
1,73,67,0
1,73,0,60
1,68,0,0
1,76,67,0
1,76,0,480
1,76,69,0
1,76,0,960
1,76,65,0
1,76,0,120
1,74,64,0
1,74,0,120
1,73,63,0
1,73,0,120
1,71,63,0
1,71,0,109
1,71,64,11
1,71,0,120
1,69,63,0
1,69,0,120
1,68,62,0
1,68,0,120
1,66,61,0
1,66,0,120
1,64,63,0
1,64,0,120
1,62,60,0
1,62,0,120
1,61,60,0
1,61,0,120
1,62,60,0
1,62,0,120
1,61,60,0
1,61,0,120
1,64,62,0
1,64,0,120
1,69,63,0
1,69,0,120
1,73,64,0
1,73,0,120
