track,note,velocity,time
1,61,127,10766
1,60,127,188
1,61,127,34
1,61,127,144
1,62,127,752
1,61,127,364
1,59,126,12
1,57,127,8
1,61,127,72
1,61,127,170
1,60,118,194
1,61,123,2
1,59,122,218
1,57,127,10
1,64,127,76
1,62,127,744
1,61,110,164
1,59,124,10
1,57,118,190
1,61,127,54
1,59,125,28
1,62,127,742
1,61,124,194
1,62,127,38
1,61,120,0
1,62,127,68
1,62,127,128
1,61,121,8
1,62,127,96
1,61,127,12
1,59,127,0
1,59,127,94
1,61,127,0
1,62,127,54
1,62,127,130
1,61,119,8
1,62,127,120
1,61,119,12
1,62,120,388
1,61,120,76
1,59,108,12
1,61,127,194
1,62,127,64
1,61,122,24
1,59,127,28
1,61,127,784
1,62,127,20
1,66,127,28
1,64,127,44
1,62,127,44
1,61,127,20
1,59,112,176
1,57,116,12
1,61,127,256
1,60,112,12
1,61,127,24
1,61,127,152
1,62,127,762
1,62,127,40
1,61,127,34
1,61,127,128
1,59,111,20
1,57,117,0
1,61,127,104
1,61,127,104
1,61,127,150
1,62,127,776
1,64,127,12
1,64,127,96
1,64,127,108
1,64,127,100
1,67,127,100
1,67,127,118
1,66,122,52
1,64,124,20
1,62,121,12
1,66,127,108
1,64,127,12
1,66,119,196
1,61,127,168
1,60,115,190
1,61,126,192
1,60,125,188
1,61,127,24
1,61,127,140
1,59,127,24
1,61,123,84
1,61,127,188
1,60,127,34
1,61,127,24
1,60,127,20
1,61,127,80
1,62,127,128
1,62,126,44
1,62,124,88
1,62,127,128
1,61,127,92
1,60,121,198
1,61,122,162
1,60,123,194
1,61,127,76
1,61,127,140
1,59,120,24
1,59,127,130
1,61,127,130
1,59,127,32
1,59,127,128
1,61,127,32
1,61,127,80
1,62,115,4
1,61,124,76
1,59,127,12
1,61,127,202
1,60,124,184
1,61,122,140
1,60,119,188
1,61,127,88
1,61,127,130
1,59,127,22
1,61,120,68
1,61,127,128
1,60,120,192
1,61,126,12
1,60,108,182
1,61,124,60
1,62,127,78
1,62,120,84
1,62,118,96
1,62,127,108
1,61,127,128
1,60,127,188
1,61,127,22
1,60,119,178
1,61,127,116
1,61,127,160
1,59,124,44
1,59,127,116
1,61,127,128
1,59,127,40
1,59,127,104
1,61,111,0
1,59,118,8
1,57,118,12
1,66,127,764
1,64,127,20
1,62,127,60
1,61,125,20
1,62,127,56
1,62,127,128
1,59,127,376
1,57,127,0
1,61,127,12
1,57,127,14
1,66,127,14
1,64,127,66
1,62,127,54
1,64,127,14
1,61,127,8
1,59,127,8
1,57,127,124
1,57,127,584
1,62,127,24
1,61,127,184
1,62,127,84
1,62,127,116
1,59,125,292
1,57,127,20
1,57,127,84
1,66,127,52
1,64,127,96
1,62,127,96
1,64,127,168
1,64,127,84
1,66,127,116
1,64,127,64
1,62,127,34
1,64,127,114
1,61,127,18648
1,60,127,12
1,61,127,60
1,61,127,142
1,62,127,766
1,62,127,84
1,61,127,56
1,61,127,156
1,59,112,22
1,57,126,10
1,61,127,36
1,61,127,116
1,61,127,148
1,62,127,20
1,64,120,4
1,64,121,108
1,64,127,108
1,64,127,104
1,67,127,116
1,67,127,120
1,66,127,104
1,64,113,12
1,62,121,10
1,66,127,188
1,64,122,12
1,66,127,192
1,61,127,160
1,60,125,188
1,61,123,12
1,60,112,0
1,61,126,72
1,61,127,172
1,59,127,20
1,61,124,22
1,61,127,136
1,60,121,192
1,61,125,186
1,60,121,176
1,61,127,110
1,62,127,148
1,62,127,96
1,62,127,102
1,62,127,120
1,61,127,152
1,60,115,196
1,61,125,14
1,60,111,182
1,61,127,118
1,61,127,180
1,59,120,24
1,59,127,120
1,61,127,116
1,59,127,42
1,59,127,132
1,61,127,20
1,61,127,152
1,62,127,12
1,61,127,84
1,59,127,0
1,61,127,154
1,60,116,166
1,61,127,12
1,60,113,176
1,61,127,132
1,61,127,184
1,59,127,12
1,61,127,56
1,61,127,152
1,60,123,188
1,61,127,12
1,60,112,168
1,61,127,32
1,62,127,148
1,62,126,96
1,62,125,84
1,62,127,96
1,61,127,128
1,60,127,12
1,61,127,20
1,60,122,176
1,61,127,104
1,61,127,244
1,59,126,192
1,59,126,118
1,59,124,64
1,59,127,120
1,61,123,572
1,59,127,0
1,57,127,26
1,61,127,710
1,59,126,8
1,59,127,128
1,59,127,128
1,59,116,52
1,61,127,32
1,62,127,90
1,61,127,52
1,59,127,20
1,59,127,192
1,61,122,8
1,61,99,56
1,61,127,844
1,61,127,284
1,59,123,8
1,59,127,126
1,59,127,128
1,61,127,20
1,62,127,76
1,62,127,140
1,61,127,68
1,59,127,10
1,59,127,148
1,61,113,14
1,61,127,44
1,64,127,68
1,61,127,24
1,61,127,340
1,59,127,20
1,59,127,108
1,59,127,140
1,59,120,52
1,61,127,118
1,62,127,120
1,61,127,56
1,59,127,36
1,59,127,192
1,61,121,24
2,33,115,1540
2,33,103,312
2,33,115,128
2,28,107,140
2,38,101,50
2,38,99,110
2,38,108,298
2,38,98,142
2,33,108,26
2,28,86,94
2,33,107,32
2,33,117,110
2,33,107,146
2,28,101,98
2,28,99,418
2,28,102,110
2,28,110,172
2,33,110,22
2,33,102,290
2,33,110,134
2,28,84,138
2,33,110,78
2,33,108,102
2,37,109,166
2,38,101,106
2,39,120,26
2,40,89,10
2,33,102,70
2,33,102,322
2,33,102,110
2,33,97,142
2,33,103,126
2,33,98,290
2,33,108,122
2,28,102,176
2,33,103,82
2,33,103,296
2,33,107,126
2,33,85,128
2,33,101,138
2,33,107,126
2,33,112,164
2,33,108,150
2,33,100,170
2,28,112,92
2,28,115,354
2,28,105,114
2,35,102,140
2,28,115,2
2,28,115,178
2,28,117,194
2,28,107,162
2,40,108,36
2,35,101,306
2,35,107,118
2,35,77,140
2,40,99,146
2,40,103,106
2,40,107,128
2,40,108,186
2,35,92,174
2,40,105,60
2,40,102,278
2,40,105,122
2,35,85,170
2,40,108,126
2,40,110,126
2,40,112,166
2,40,115,202
2,35,102,222
2,40,110,78
2,28,108,46
2,28,112,114
2,28,110,92
2,40,110,54
2,40,105,322
2,40,112,198
2,28,120,134
2,33,120,14
2,33,84,298
2,33,112,126
2,28,117,286
2,33,108,66
2,33,115,138
2,37,127,118
2,38,107,6
2,40,101,192
2,33,112,188
2,33,110,302
2,33,112,118
2,28,103,138
2,33,112,16
2,33,107,112
2,33,110,154
2,33,108,178
2,28,115,116
2,33,115,194
2,33,112,318
2,33,115,114
2,33,96,144
2,33,98,118
2,33,108,122
2,33,110,134
2,33,110,134
2,33,105,106
2,38,115,90
2,38,99,286
2,38,105,114
2,33,108,102
2,38,103,38
2,38,97,82
2,38,98,138
2,38,100,148
2,38,98,144
2,33,120,26
2,28,94,212
2,33,107,26
2,33,108,114
2,33,103,132
2,28,117,72
2,28,117,170
2,28,115,162
2,30,113,0
2,28,117,12
2,33,112,32
2,33,100,350
2,33,110,122
2,33,103,150
2,38,117,62
2,38,97,78
2,38,102,158
2,42,113,190
2,43,98,6
2,45,99,192
2,33,127,180
2,33,107,366
2,33,110,126
2,33,94,134
2,28,110,114
2,28,108,186
2,28,124,214
2,28,112,150
2,33,117,82
2,33,102,278
2,33,124,126
2,33,94,112
2,28,107,136
2,28,107,90
2,28,107,178
2,28,107,234
2,28,107,82
2,33,117,10
2,33,112,302
2,33,117,122
2,33,108,126
2,28,120,36
2,28,124,154
2,28,124,226
2,28,110,122
2,33,127,18
2,33,110,310
2,33,112,126
2,33,84,100
2,38,105,126
2,38,115,128
2,38,124,174
2,42,105,384
2,43,105,26
2,45,97,2
2,33,115,6
2,33,110,302
2,33,110,110
2,33,75,120
2,28,117,94
2,28,127,186
2,28,120,198
2,40,97,18
2,28,120,192
2,33,124,22
2,33,107,242
2,33,120,114
2,28,101,80
2,33,115,70
2,33,124,122
2,37,124,94
2,38,110,66
2,40,108,384
2,38,112,38
2,38,101,290
2,38,102,126
2,33,84,144
2,38,101,126
2,38,102,138
2,38,100,146
2,42,113,70
2,43,102,14
2,45,88,2
2,33,112,38
2,33,110,330
2,33,108,114
2,28,85,148
2,33,117,124
2,33,105,138
2,33,124,154
2,33,124,194
2,33,112,186
2,38,112,42
2,38,103,316
2,38,101,126
2,33,70,154
2,38,108,158
2,38,100,334
2,38,108,138
2,38,101,166
2,40,112,140
2,28,108,1252
2,28,107,340
2,28,112,370
2,40,103,6
2,28,105,4
2,40,110,382
2,33,110,54
2,33,100,310
2,33,105,126
2,33,101,366
2,33,103,114
2,33,102,154
2,33,108,226
2,28,98,210
2,33,108,126
2,33,107,302
2,33,108,138
2,28,78,128
2,33,100,134
2,33,108,126
2,33,107,130
2,37,113,156
2,38,100,154
2,40,103,22
2,40,97,278
2,40,110,114
2,35,82,150
2,40,103,126
2,40,101,130
2,40,105,250
2,35,90,198
2,40,110,102
2,40,102,298
2,40,107,134
2,35,78,132
2,40,115,146
2,40,112,134
2,40,120,166
2,40,117,190
2,35,108,210
2,40,117,28
2,28,112,78
2,28,110,126
2,28,108,278
2,28,110,114
2,28,120,188
2,28,115,184
2,32,113,136
2,33,124,50
2,33,112,338
2,33,110,138
2,28,100,160
2,33,110,128
2,33,107,98
2,33,112,130
2,37,124,162
2,38,108,2
2,40,103,192
2,33,112,188
2,33,110,298
2,33,103,126
2,28,84,140
2,33,105,122
2,33,105,118
2,33,103,154
2,33,112,182
2,28,101,206
2,33,117,110
2,33,108,330
2,33,108,136
2,33,102,286
2,33,103,134
2,33,115,138
2,33,115,170
2,37,113,70
2,38,105,30
2,38,101,328
2,38,105,126
2,33,82,146
2,38,107,134
2,38,101,122
2,38,112,178
2,42,124,154
2,43,105,28
2,45,94,28
2,33,117,34
2,33,105,290
2,33,110,134
2,28,108,302
2,28,110,102
2,28,82,158
2,28,98,146
2,28,115,134
2,28,92,150
2,33,124,126
2,33,103,314
2,33,110,110
2,38,101,142
2,38,100,114
2,38,100,162
2,38,112,222
2,38,87,184
2,33,127,118
2,28,79,132
2,33,102,138
2,33,112,126
2,33,85,132
2,28,112,146
2,28,108,114
2,28,115,146
2,28,127,238
2,28,105,174
2,33,120,146
2,33,102,318
2,33,117,126
2,33,74,118
2,28,124,160
2,28,108,110
2,40,115,14
2,28,115,98
2,40,107,384
2,33,120,44
2,28,61,160
2,33,105,162
2,33,115,126
2,33,78,108
2,28,115,146
2,28,107,346
2,28,115,122
2,28,110,138
2,33,120,22
2,33,112,334
2,33,105,134
2,38,105,96
2,38,107,122
2,38,105,222
2,38,107,252
2,40,108,18
2,33,115,14
2,28,77,142
2,33,107,134
2,33,107,122
2,33,107,98
2,28,103,24
2,28,112,114
2,28,117,194
2,28,115,206
2,28,110,150
2,33,120,46
2,33,105,298
2,33,112,114
2,33,78,118
2,33,101,146
2,33,110,114
2,37,127,122
2,38,115,158
2,39,113,162
2,40,115,28
2,40,74,122
2,40,110,158
2,40,117,102
2,40,83,138
2,40,107,134
2,40,107,110
2,40,107,146
2,40,110,242
2,28,115,14
2,33,102,10
2,33,112,306
2,33,110,114
2,28,102,174
2,33,105,114
2,33,115,126
2,37,127,82
2,38,120,110
2,39,120,62
2,40,120,62
2,40,74,164
2,40,115,154
2,40,110,126
2,35,91,152
2,28,108,140
2,28,110,110
2,28,115,170
2,28,120,218
2,28,115,170
2,33,124,54
2,33,105,286
2,33,110,122
2,28,97,162
2,33,115,126
2,33,117,126
2,33,117,218
2,33,124,226
2,33,103,146
2,28,124,50
2,28,107,342
2,28,117,126
2,28,115,338
2,28,117,114
2,28,120,166
2,28,112,194
2,28,110,138
2,33,117,78
2,33,115,114
2,28,101,174
2,33,115,116
2,33,112,110
2,37,127,130
2,38,120,142
2,39,116,118
2,40,107,74
2,40,101,330
2,40,108,114
2,35,97,106
2,28,105,6
2,28,115,124
2,28,120,162
2,28,112,182
2,32,111,118
2,33,112,50
2,33,105,310
2,33,115,110
2,28,101,160
2,33,103,114
2,33,112,126
2,33,110,194
2,33,112,242
2,37,120,138
2,40,108,4
2,40,101,310
2,40,110,110
2,35,85,148
2,40,103,102
2,40,117,98
2,28,117,138
2,28,120,162
2,28,124,162
2,33,120,50
2,38,124,546
2,33,127,34
3,59,94,1530
3,64,96,16
3,61,95,4
3,59,91,76
3,64,101,0
3,63,83,4
3,61,81,0
3,61,79,72
3,64,80,0
3,64,94,98
3,59,103,0
3,61,93,24
3,57,80,22
3,57,84,116
3,62,91,16
3,59,87,20
3,57,89,8
3,59,96,112
3,64,96,20
3,61,106,0
3,63,84,2
3,59,91,48
3,64,103,0
3,61,127,2
3,61,127,64
3,64,106,0
3,64,94,80
3,59,110,0
3,57,78,52
3,59,96,96
3,64,96,0
3,61,84,24
3,64,84,28
3,59,96,0
3,59,87,76
3,61,106,108
3,64,82,32
3,64,94,472
3,59,114,2
3,61,74,4
3,59,93,76
3,64,106,0
3,61,102,4
3,59,101,80
3,64,93,0
3,57,86,24
3,59,94,116
3,61,92,36
3,69,82,60
3,64,76,20544
3,66,93,20
3,69,87,0
3,64,86,260
3,59,91,124
3,64,88,0
3,61,87,88
3,57,77,138
3,64,89,3756
3,69,98,0
3,66,114,2
3,64,101,8
3,59,89,140
3,64,94,16
3,61,120,0
3,59,101,96
3,57,88,88
3,59,94,40
3,62,84,16
3,57,103,64
3,64,86,25260
3,69,91,16
3,66,66,4
3,64,98,80
3,59,93,126
3,64,96,16
3,61,110,0
3,59,103,0
3,57,93,84
3,57,82,20
3,62,93,16
3,59,87,4
3,57,94,36
3,61,120,93052
3,57,91,0
3,59,101,88
3,62,71,16
3,61,85,12
3,64,89,2
3,62,96,60
3,66,102,0
3,57,101,184
3,69,94,20
3,61,106,0
4,61,74,1502
4,52,74,0
4,57,74,2
4,57,74,22
4,62,74,0
4,54,74,24
4,52,74,134
4,61,74,0
4,57,74,0
4,56,74,136
4,59,74,0
4,57,74,240
4,61,74,0
4,59,74,152
4,56,74,0
4,62,74,20
4,59,74,128
4,64,74,0
4,56,74,0
4,61,74,120
4,52,74,2
4,57,74,0
4,57,74,232
4,54,74,2
4,62,74,4
4,57,74,136
4,52,74,0
4,61,74,0
4,59,74,84
4,56,74,16
4,61,74,12
4,57,74,0
4,62,74,84
4,54,74,0
4,52,74,112
4,61,74,2
4,57,74,0
4,59,74,128
4,56,74,0
4,57,74,36
4,61,74,2
4,59,74,96
4,64,74,28
4,56,74,0
4,57,74,98
4,61,74,16
4,59,74,92
4,56,74,16
4,61,74,46
4,57,74,0
4,54,74,164
4,57,74,0
4,62,74,24
4,63,74,0
4,52,74,148
4,61,74,2
4,57,74,22
4,52,74,114
4,59,74,0
4,56,74,20
4,61,74,20
4,57,74,20
4,55,74,88
4,57,74,92
4,62,74,0
4,54,74,0
4,61,74,100
4,57,74,2
4,52,74,0
4,55,74,104
4,57,74,142
4,54,74,0
4,62,74,0
4,64,74,192
4,59,74,0
4,56,74,2
4,52,74,22436
4,57,74,16
4,61,74,0
4,57,74,36
4,62,74,0
4,54,74,2
4,61,74,156
4,52,74,2
4,57,74,0
4,59,74,52
4,56,74,32
4,61,74,8
4,57,74,0
4,57,74,76
4,62,74,2
4,54,74,0
4,57,74,170
4,52,74,0
4,61,74,0
4,59,74,128
4,52,74,0
4,56,74,2
4,61,74,116
4,57,74,2
4,52,74,0
4,59,74,54
4,56,74,16
4,57,74,124
4,52,74,20
4,61,74,0
4,56,74,172
4,52,74,0
4,59,74,0
4,57,74,200
4,61,74,0
4,57,74,130
4,62,74,0
4,54,74,2
4,52,74,118
4,61,74,0
4,57,74,0
4,59,74,92
4,56,74,0
4,52,74,124
4,57,74,0
4,61,74,2
4,52,74,142
4,56,74,2
4,59,74,0
4,57,74,108
4,52,74,0
4,61,74,2
4,56,74,116
4,52,74,0
4,59,74,24
4,57,74,124
4,52,74,0
4,61,74,2
4,59,74,156
4,56,74,0
4,52,74,2
4,52,74,160
4,57,74,0
4,61,74,2
4,56,74,164
4,52,74,18
4,59,74,2
4,61,74,64
4,57,74,0
4,52,74,2
4,52,74,172
