track,note,velocity,time
0,55,78,2616
0,58,74,10
0,74,89,2
0,55,74,2
0,35,102,4
0,42,77,0
0,53,74,0
0,27,105,2
0,63,74,0
0,39,96,2
0,63,78,148
0,55,79,24
0,58,79,0
0,63,79,0
0,67,76,2
0,70,81,0
0,58,78,70
0,55,78,56
0,42,53,20
0,58,78,22
0,63,78,0
0,73,98,10
0,35,102,0
0,42,80,0
0,53,74,2
0,34,105,2
0,55,79,0
0,58,79,0
0,46,96,2
0,63,79,0
0,67,80,0
0,70,76,0
0,37,105,80
0,39,105,0
0,51,96,4
0,63,78,32
0,42,50,20
0,55,79,4
0,58,79,0
0,63,79,0
0,67,62,0
0,70,63,2
0,58,78,4
0,38,103,4
0,42,55,0
0,34,105,2
0,46,96,2
0,67,62,0
0,70,63,0
0,42,52,172
0,55,79,4
0,58,79,0
0,63,79,0
0,55,78,6
0,74,89,12
0,35,102,6
0,42,68,0
0,53,74,0
0,27,105,2
0,39,96,2
0,63,78,104
0,48,92,0
0,55,79,4
0,58,79,0
0,63,79,0
0,67,82,0
0,70,79,2
0,58,78,56
0,55,78,40
0,42,61,4
0,58,78,10
0,63,78,0
0,73,98,14
0,35,102,2
0,42,75,0
0,45,92,0
0,53,74,0
0,34,105,2
0,55,79,2
0,58,79,0
0,63,79,0
0,46,96,2
0,67,80,0
0,70,79,0
0,37,105,92
0,39,105,0
0,45,92,0
0,51,96,4
0,63,78,28
0,42,58,20
0,45,92,0
0,55,79,4
0,58,79,0
0,63,79,0
0,67,65,2
0,70,65,0
0,58,78,18
0,38,103,8
0,41,92,0
0,42,73,0
0,51,70,0
0,34,105,2
0,46,96,2
0,67,65,0
0,70,70,0
0,44,78,124
0,55,79,4
0,58,79,0
0,63,79,0
0,55,78,2
0,74,89,14
0,35,102,4
0,42,77,0
0,51,70,2
0,53,74,0
0,27,105,2
0,39,96,0
0,63,78,150
0,55,79,24
0,58,79,0
0,63,67,0
0,63,79,0
0,67,73,2
0,70,60,0
0,58,78,16
0,55,78,60
0,42,53,20
0,63,78,14
0,73,98,14
0,35,102,0
0,42,80,0
0,53,74,0
0,34,105,2
0,46,96,2
0,55,79,0
0,58,79,0
0,63,79,0
0,67,71,2
0,70,76,0
0,37,105,24
0,39,105,0
0,51,96,4
0,63,78,4
0,42,50,20
0,55,79,4
0,58,79,0
0,63,79,0
0,67,68,2
0,70,60,0
0,58,78,38
0,38,103,0
0,42,55,0
0,34,105,2
0,46,96,2
0,67,60,0
0,70,63,0
0,42,52,140
0,55,79,4
0,58,79,0
0,63,79,0
0,55,78,70
0,74,89,4
0,35,102,4
0,42,77,0
0,53,74,0
0,27,105,2
0,39,96,2
0,63,78,48
0,55,79,24
0,58,79,0
0,63,79,0
0,63,53,2
0,67,82,0
0,70,91,0
0,58,78,0
0,55,78,56
0,42,53,20
0,63,78,10
0,73,98,14
0,35,102,2
0,42,80,0
0,53,74,0
0,34,105,2
0,55,79,2
0,58,79,0
0,63,79,0
0,46,96,2
0,67,73,0
0,70,67,0
0,37,105,84
0,39,105,0
0,51,96,4
0,63,78,16
0,42,50,20
0,55,79,4
0,58,79,0
0,63,79,0
0,67,65,0
0,70,60,2
0,58,78,14
0,38,103,0
0,42,55,0
0,34,105,2
0,46,96,2
0,67,68,0
0,70,72,0
0,42,52,92
0,55,79,4
0,58,79,0
0,63,79,0
0,55,78,6
0,74,89,12
0,35,102,4
0,42,77,0
0,53,74,0
0,27,105,2
0,39,96,2
0,63,78,80
0,55,79,24
0,58,79,0
0,63,79,0
0,63,74,2
0,67,76,0
0,70,81,0
0,58,78,8
0,55,78,12
0,42,53,20
0,63,78,22
0,73,98,14
0,35,102,4
0,42,80,0
0,53,74,0
0,34,105,2
0,55,79,2
0,58,79,0
0,63,79,0
0,46,96,2
0,67,75,0
0,70,76,0
0,37,105,56
0,39,105,0
0,51,70,0
0,51,96,4
0,63,78,0
0,42,50,20
0,55,79,4
0,58,79,0
0,63,79,0
0,67,66,2
0,70,70,0
0,58,78,26
0,38,103,0
0,42,55,0
0,34,105,2
0,51,70,0
0,46,96,2
0,67,65,0
0,70,57,0
0,42,52,0
0,55,79,4
0,58,79,0
0,63,79,0
0,53,78,8
0,74,89,10
0,35,102,0
0,42,77,2
0,51,70,0
0,53,74,0
0,34,105,2
0,46,96,0
0,62,74,0
0,53,74,0
0,62,78,150
0,53,79,24
0,58,79,0
0,62,65,0
0,62,79,0
0,65,69,2
0,70,67,0
0,58,78,0
0,53,78,52
0,42,53,0
0,62,78,22
0,73,98,14
0,35,102,4
0,42,80,0
0,53,74,0
0,41,105,2
0,53,79,2
0,58,79,0
0,62,79,0
0,53,96,2
0,65,75,0
0,70,72,0
0,37,105,40
0,46,105,0
0,58,96,4
0,62,78,0
0,42,50,20
0,53,79,4
0,58,79,0
0,62,79,0
0,65,75,2
0,70,68,0
0,58,78,0
0,38,103,12
0,42,55,0
0,41,105,2
0,53,96,2
0,65,59,0
0,70,67,0
0,42,52,156
0,53,79,4
0,58,79,0
0,62,79,0
0,53,78,22
0,74,89,12
0,35,102,6
0,42,77,0
0,53,74,0
0,34,105,2
0,46,96,2
0,62,78,68
0,53,79,24
0,58,79,0
0,62,79,0
0,62,71,2
0,65,75,0
0,70,76,0
0,58,78,4
0,53,78,52
0,42,53,20
0,62,78,6
0,73,98,14
0,35,102,4
0,42,80,0
0,53,74,0
0,41,105,2
0,53,96,2
0,53,79,0
0,58,79,0
0,62,79,0
0,65,76,2
0,70,76,0
0,37,105,68
0,46,105,0
0,58,96,4
0,62,78,16
0,42,50,20
0,53,79,4
0,58,79,0
0,62,79,0
0,65,76,0
0,70,57,2
0,58,78,2
0,38,103,0
0,42,55,0
0,41,105,2
0,51,70,0
0,53,96,2
0,65,68,0
0,70,70,0
0,42,52,20
0,53,79,4
0,58,79,0
0,62,79,0
0,53,78,10
0,74,89,8
0,35,102,4
0,42,77,0
0,51,70,0
0,53,74,0
0,34,105,2
0,46,96,2
0,62,78,136
0,53,79,24
0,58,79,0
0,62,79,0
0,62,76,2
0,65,80,0
0,70,79,0
0,58,78,8
0,53,78,56
0,42,53,20
0,62,78,38
0,73,98,16
0,35,102,2
0,42,80,0
0,53,74,0
0,41,105,2
0,53,79,2
0,58,79,0
0,62,79,0
0,53,96,2
0,65,71,0
0,70,72,0
0,37,105,56
0,46,105,0
0,58,96,4
0,62,78,32
0,42,50,20
0,53,79,4
0,58,79,0
0,62,79,0
0,65,59,0
0,70,54,2
0,58,78,22
0,38,103,0
0,42,55,0
0,41,105,2
0,53,96,2
0,65,68,0
0,70,54,0
0,42,52,84
0,53,79,4
0,58,79,0
0,62,79,0
0,53,78,2
0,74,89,4
0,35,102,4
0,42,77,0
0,53,74,0
0,34,105,2
0,46,96,2
0,62,78,132
0,53,79,24
0,58,79,0
0,62,75,0
0,62,79,0
0,65,80,2
0,70,83,0
0,58,78,16
0,53,78,40
0,42,53,20
0,62,78,42
0,73,98,0
0,35,102,4
0,42,80,0
0,53,74,0
0,41,105,2
0,53,79,2
0,58,79,0
0,62,79,0
0,53,96,2
0,65,68,0
0,70,70,0
0,37,105,68
0,46,105,0
0,58,96,4
0,62,78,48
0,42,50,20
0,53,79,4
0,58,79,0
0,62,79,0
0,65,53,2
0,70,54,0
0,58,78,18
0,38,103,0
0,42,55,0
0,41,105,2
0,53,96,2
0,65,62,0
0,70,53,0
0,42,52,84
0,53,79,4
0,58,79,0
0,62,79,0
0,53,78,78
0,74,89,12
0,35,102,0
0,42,77,0
0,34,105,2
0,53,74,0
0,46,96,0
0,62,78,120
0,53,79,24
0,58,79,0
0,62,73,0
0,62,79,0
0,65,82,2
0,70,79,0
0,58,78,8
0,53,78,48
0,42,53,20
0,62,78,38
0,73,98,0
0,35,102,4
0,42,80,0
0,53,74,0
0,41,105,2
0,53,96,2
0,53,79,0
0,58,79,0
0,62,79,0
0,65,76,2
0,70,70,0
0,37,105,68
0,46,105,0
0,58,96,4
0,62,78,32
0,42,50,20
0,53,79,4
0,58,79,0
0,62,79,0
0,65,57,2
0,70,56,0
0,58,78,22
0,38,103,0
0,42,55,0
0,51,70,0
0,41,105,2
0,53,96,2
0,65,66,0
0,70,53,0
0,53,78,84
0,42,52,20
0,51,70,0
0,53,79,4
0,58,79,0
0,62,79,0
0,55,78,6
0,63,74,0
0,55,74,4
0,74,89,0
0,35,102,0
0,42,77,0
0,51,70,0
0,53,74,2
0,27,105,2
0,39,96,0
0,63,78,150
0,55,79,24
0,58,79,0
0,63,79,0
0,63,79,2
0,67,76,0
0,70,74,0
0,58,78,24
0,55,78,44
0,42,53,20
0,63,78,22
0,73,98,16
0,35,102,2
0,42,80,0
0,53,74,0
0,34,105,2
0,55,79,2
0,58,79,0
0,63,79,0
0,46,96,2
0,67,76,0
0,70,63,0
0,37,105,76
0,39,105,0
0,51,96,4
0,63,78,32
0,42,50,20
0,55,79,4
0,58,79,0
0,63,79,0
0,67,64,2
0,70,56,0
0,58,78,36
0,38,103,16
0,42,55,0
0,34,105,2
0,46,96,2
0,67,65,0
0,70,70,0
0,42,52,160
0,55,79,4
0,58,79,0
0,63,79,0
0,61,74,8
0,55,78,6
0,74,89,8
0,35,102,4
0,42,77,0
0,51,70,0
0,53,74,0
0,27,105,2
0,39,96,2
0,63,78,104
0,55,79,24
0,58,79,0
0,61,79,0
0,63,79,0
0,63,79,2
0,67,76,0
0,70,79,0
0,58,78,20
0,55,78,44
0,42,53,20
0,51,70,0
0,63,78,38
0,73,98,14
0,35,102,4
0,42,80,0
0,53,74,0
0,34,105,2
0,55,79,2
0,58,79,0
0,61,79,0
0,63,79,0
0,46,96,2
0,67,80,0
0,70,76,0
0,61,78,4
0,37,105,20
0,38,59,0
0,51,70,0
0,39,105,2
0,51,96,2
0,58,78,14
0,38,79,18
0,42,50,0
0,51,70,0
0,55,79,4
0,58,79,0
0,61,79,0
0,63,79,2
0,67,62,0
0,70,63,0
0,55,78,10
0,38,89,0
0,42,55,0
0,34,105,2
0,51,70,0
0,46,96,2
0,67,71,0
0,70,67,0
0,58,78,116
0,38,103,20
0,42,52,0
0,51,70,0
0,55,79,0
0,58,79,0
0,61,79,0
0,63,79,0
0,60,74,0
0,56,74,8
0,56,78,2
0,74,89,4
0,35,102,4
0,42,77,0
0,51,70,0
0,53,74,0
0,32,105,2
0,44,96,2
0,63,78,152
0,56,79,24
0,60,79,0
0,63,81,0
0,63,79,0
0,68,74,2
0,72,65,0
0,60,78,0
0,56,78,64
0,42,53,20
0,68,31,80
0,63,78,18
0,73,98,14
0,35,102,4
0,42,80,0
0,53,74,0
0,39,105,2
0,56,79,2
0,60,79,0
0,63,79,0
0,51,96,2
0,68,74,0
0,72,69,0
0,37,105,24
0,44,105,0
0,56,96,4
0,63,78,16
0,42,50,4
0,56,79,4
0,60,79,0
0,63,79,0
0,68,65,2
0,72,60,0
0,60,78,66
0,38,103,0
0,42,55,0
0,45,92,0
0,39,105,2
0,51,96,2
0,42,52,48
0,56,79,4
0,60,79,0
0,63,79,0
0,68,67,2
0,72,71,0
0,56,78,50
0,74,89,14
0,35,102,0
0,42,77,0
0,51,70,2
0,53,74,0
0,32,105,0
0,44,96,0
0,63,78,36
0,56,79,24
0,60,79,0
0,63,79,0
0,63,79,2
0,68,79,0
0,72,66,0
0,60,78,24
0,56,78,56
0,42,53,8
0,63,78,26
0,73,98,16
0,35,102,2
0,42,80,0
0,53,74,0
0,39,105,2
0,56,79,2
0,60,79,0
0,63,79,0
0,51,96,2
0,68,76,0
0,72,73,0
0,37,105,36
0,44,105,0
0,56,96,4
0,63,78,16
0,42,50,20
0,56,79,4
0,60,79,0
0,63,79,0
0,68,60,0
0,72,54,2
0,60,78,6
0,38,103,0
0,42,55,0
0,39,105,2
0,45,92,0
0,51,70,0
0,51,96,2
0,68,68,0
0,72,44,0
0,56,78,48
0,42,52,20
0,56,79,4
0,60,79,0
0,63,79,0
0,55,74,4
0,58,74,4
0,55,78,10
0,74,89,0
0,35,102,0
0,42,77,0
0,51,70,0
0,53,74,2
0,27,105,2
0,39,96,0
0,63,57,0
0,63,78,144
0,55,79,20
0,58,79,0
0,63,79,0
0,67,76,2
0,70,91,0
0,58,78,20
0,55,78,64
0,42,53,8
0,63,78,6
0,73,98,14
0,35,102,4
0,42,80,0
0,53,74,0
0,34,105,2
0,55,79,2
0,58,79,0
0,63,79,0
0,46,96,2
0,67,71,0
0,70,68,0
0,37,105,68
0,39,105,0
0,51,96,4
0,63,78,28
0,42,50,20
0,55,79,4
0,58,79,0
0,63,79,0
0,67,60,0
0,70,65,2
0,58,78,30
0,38,103,0
0,42,55,0
0,34,105,2
0,45,92,0
0,46,96,2
0,67,71,0
0,70,57,0
0,42,52,36
0,55,79,4
0,58,79,0
0,63,79,0
0,55,78,14
0,74,89,8
0,35,102,0
0,42,77,0
0,51,70,0
0,27,105,2
0,53,74,0
0,39,96,2
0,63,57,0
0,63,78,100
0,55,79,24
0,58,79,0
0,63,79,0
0,67,80,2
0,70,91,0
0,58,78,24
0,55,78,44
0,42,53,20
0,63,78,34
0,73,98,14
0,35,102,4
0,42,80,0
0,53,74,0
0,34,105,2
0,55,79,2
0,58,79,0
0,63,79,0
0,46,96,2
0,67,73,0
0,70,81,0
0,37,105,72
0,39,105,0
0,51,96,4
0,63,78,44
0,42,50,20
0,55,79,4
0,58,79,0
0,63,79,0
0,67,68,2
0,70,60,0
0,58,78,30
0,38,103,0
0,42,55,0
0,34,105,2
0,45,92,0
0,46,96,2
0,67,68,0
0,70,65,0
0,55,78,68
0,42,52,20
0,55,79,4
0,58,79,0
0,63,79,0
0,63,68,2
0,53,74,8
0,62,74,0
0,53,78,6
0,74,89,12
0,35,102,4
0,42,77,0
0,51,70,0
0,53,74,0
0,34,105,2
0,46,96,2
0,62,60,0
0,62,78,4
0,53,79,24
0,58,79,0
0,62,79,0
0,65,76,2
0,70,81,0
0,58,78,16
0,53,78,48
0,42,53,20
0,62,78,10
0,73,98,8
0,35,102,4
0,42,80,0
0,53,74,0
0,41,105,2
0,53,96,2
0,53,79,0
0,58,79,0
0,62,79,0
0,65,73,2
0,70,67,0
0,37,105,80
0,46,105,0
0,58,96,4
0,62,78,36
0,42,50,20
0,53,79,4
0,58,79,0
0,62,79,0
0,65,57,2
0,70,60,0
0,58,78,22
0,38,103,0
0,42,55,0
0,51,70,0
0,41,105,2
0,45,92,0
0,53,96,2
0,65,59,0
0,70,65,0
0,42,52,170
0,53,79,4
0,58,79,0
0,62,79,0
0,53,78,30
0,74,89,4
0,35,102,4
0,42,77,0
0,51,70,0
0,53,74,0
0,34,105,2
0,46,96,0
0,62,69,0
0,62,78,148
0,53,79,8
0,58,79,0
0,62,79,0
0,65,73,2
0,70,70,0
0,58,78,8
0,53,78,32
0,42,53,20
0,62,78,38
0,73,98,6
0,35,102,2
0,42,80,0
0,53,74,0
0,41,105,2
0,53,79,2
0,58,79,0
0,62,79,0
0,53,96,2
0,65,80,0
0,70,79,0
0,37,105,92
0,46,105,0
0,58,96,4
0,62,78,32
0,42,50,20
0,51,70,0
0,53,79,4
0,58,79,0
0,62,79,0
0,65,57,2
0,70,53,0
0,58,78,26
0,38,103,0
0,42,55,0
0,41,105,2
0,45,92,0
0,51,70,0
0,53,96,2
0,65,60,0
0,70,57,0
0,53,78,88
0,42,52,16
0,51,70,0
0,53,79,4
0,58,79,0
0,62,79,0
0,63,74,8
0,55,74,0
0,55,78,2
0,74,89,4
0,35,102,4
0,42,77,0
0,51,70,0
0,27,105,2
0,53,74,0
0,39,96,2
0,63,65,0
0,63,78,150
0,55,79,24
0,58,79,0
0,63,79,0
0,67,76,2
0,70,74,0
0,58,78,28
0,55,78,44
0,42,53,20
0,63,78,6
0,73,98,14
0,35,102,4
0,42,80,0
0,53,74,0
0,34,105,2
0,46,96,2
0,55,79,0
0,58,79,0
0,63,79,0
0,67,80,2
0,70,91,0
0,37,105,56
