track,note,velocity,time
1,60,64,184
1,65,64,0
1,69,64,0
1,72,64,0
1,67,64,8
1,71,64,0
1,65,64,280
1,69,64,0
1,64,64,0
1,67,64,0
1,59,64,56
1,62,64,0
1,67,64,0
1,55,64,0
1,52,64,24
1,60,64,8
1,64,64,0
1,55,64,8
1,64,64,0
1,60,64,0
1,55,64,40
1,64,64,0
1,60,64,0
1,62,64,0
1,59,64,0
1,65,64,232
1,59,64,40
1,63,64,0
1,55,64,8
1,60,64,32
1,64,64,0
1,62,64,24
1,59,64,8
1,65,64,120
1,55,64,40
1,59,64,0
1,63,64,0
1,60,64,24
1,64,64,8
1,76,64,0
1,60,64,0
1,72,64,0
1,74,64,0
1,62,64,0
1,70,64,0
1,64,64,0
1,67,64,0
1,72,64,0
1,60,64,8
1,65,64,0
1,69,64,8
1,60,64,8
1,65,64,0
1,72,64,0
1,69,64,0
1,60,64,24
1,65,64,8
1,69,64,0
1,72,64,0
1,67,64,8
1,71,64,0
1,69,64,0
1,65,64,8
1,67,64,0
1,64,64,8
1,69,64,32
1,68,64,112
1,62,64,32
1,59,64,0
1,67,64,0
1,60,64,16
1,64,64,0
1,59,64,32
1,62,64,0
1,67,64,0
1,57,64,0
1,60,64,8
1,65,64,0
1,59,64,0
1,62,64,0
1,67,64,0
1,55,64,8
1,60,64,8
1,64,64,0
1,60,64,80
1,72,64,8
1,76,64,0
1,74,64,8
1,70,64,0
1,64,64,8
1,62,64,8
1,64,64,8
1,67,64,0
1,72,64,0
1,70,64,16
1,60,64,24
1,65,64,8
1,69,64,8
1,67,64,8
1,71,64,0
1,65,64,0
1,69,64,8
1,67,64,0
1,64,64,8
1,59,64,32
1,65,64,0
1,62,64,8
1,55,64,8
1,60,64,0
1,64,64,8
1,59,64,16
1,62,64,0
1,65,64,368
1,55,64,48
1,59,64,0
1,63,64,0
1,60,64,40
1,64,64,0
1,62,64,16
1,59,64,0
1,65,64,0
1,55,64,48
1,59,64,0
1,63,64,0
1,60,64,40
1,64,64,0
1,64,64,8
1,72,64,0
1,76,64,8
1,62,64,8
1,70,64,0
1,74,64,0
1,72,64,8
1,64,64,8
1,67,64,0
1,60,64,0
1,65,64,40
1,69,64,0
1,67,64,8
1,71,64,0
1,65,64,0
1,69,64,0
1,67,64,8
1,64,64,0
1,69,64,376
1,68,64,120
1,59,64,32
1,62,64,8
1,67,64,0
1,60,64,48
1,64,64,0
1,59,64,24
1,67,64,0
1,55,64,8
1,62,64,0
1,60,64,0
1,65,64,0
1,57,64,8
1,59,64,0
1,62,64,0
1,67,64,0
1,60,64,8
1,64,64,0
1,55,64,0
1,64,64,0
1,67,64,0
1,72,64,0
1,76,64,8
1,62,64,8
1,70,64,0
1,74,64,0
1,60,64,0
1,64,64,8
1,67,64,0
1,72,64,0
1,69,64,16
1,65,64,0
1,67,64,8
1,71,64,0
1,65,64,0
1,69,64,0
1,67,64,24
1,64,64,8
1,65,64,24
1,59,64,0
1,62,64,0
1,60,64,8
1,55,64,8
1,64,64,0
1,58,64,8
1,60,64,0
1,58,64,8
1,62,64,0
1,65,64,0
1,57,64,48
1,60,64,0
1,58,64,8
1,64,64,8
1,67,64,0
1,57,64,32
1,65,64,0
1,60,64,8
1,60,64,48
1,65,64,0
1,69,64,0
1,64,64,16
1,59,64,8
1,68,64,0
1,58,64,32
1,63,64,0
1,67,64,0
1,57,64,48
1,60,64,0
1,62,64,0
1,66,64,0
1,60,64,16
1,64,64,0
1,67,64,0
1,62,64,0
1,59,64,8
1,57,64,16
1,66,64,0
1,62,64,8
1,60,64,112
1,59,64,8
1,67,64,0
1,62,64,0
1,66,64,8
1,58,64,0
1,59,64,8
1,62,64,0
1,55,64,8
1,65,64,0
1,65,64,96
1,69,64,0
1,72,64,0
1,60,64,0
1,67,64,16
1,71,64,0
1,65,64,8
1,69,64,0
1,64,64,0
1,67,64,0
1,69,64,16
1,68,64,0
1,62,64,24
1,67,64,0
1,59,64,8
1,60,64,8
1,64,64,0
1,59,64,8
1,62,64,8
1,55,64,0
1,60,64,8
1,65,64,0
1,57,64,8
1,59,64,8
1,62,64,0
1,67,64,0
1,55,64,0
1,60,64,8
1,64,64,0
1,64,64,8
1,67,64,8
1,72,64,0
1,76,64,0
1,62,64,16
1,70,64,0
1,74,64,0
1,64,64,0
1,60,64,0
1,72,64,0
1,65,64,32
1,69,64,0
1,71,64,16
1,67,64,0
1,65,64,8
1,69,64,8
1,67,64,8
1,64,64,8
1,59,64,40
1,65,64,0
1,62,64,8
1,60,64,16
1,64,64,0
1,55,64,8
1,67,64,104
1,72,64,0
1,76,64,0
1,74,64,8
1,62,64,16
1,70,64,0
1,64,64,8
1,72,64,0
1,60,64,0
1,65,64,40
1,69,64,0
1,67,64,16
1,71,64,0
1,69,64,0
1,65,64,8
1,67,64,40
1,64,64,0
1,69,64,120
1,68,64,120
1,59,64,32
1,62,64,8
1,67,64,0
1,60,64,0
1,64,64,0
1,59,64,0
1,62,64,0
1,55,64,200
1,57,64,32
1,65,64,0
1,60,64,0
1,67,64,184
1,62,64,0
1,59,64,8
1,60,64,0
1,64,64,0
1,72,64,8
1,76,64,0
1,67,64,8
1,70,64,0
1,74,64,0
1,72,64,0
1,60,64,40
1,65,64,0
1,69,64,0
1,67,64,16
1,71,64,0
1,65,64,8
1,69,64,0
1,64,64,40
1,67,64,0
1,65,64,48
1,59,64,8
1,53,64,896
1,55,64,0
1,52,64,8
1,60,64,0
1,64,64,0
1,67,64,384
1,72,64,8
2,60,85,272
2,62,84,128
2,64,93,56
2,63,80,120
2,64,97,0
2,63,87,0
2,64,96,0
2,63,76,0
2,64,99,72
2,65,86,288
2,64,97,72
2,62,81,16
2,62,92,360
2,64,87,120
2,65,90,8
2,64,82,120
2,65,88,72
2,64,81,120
2,65,87,72
2,64,94,96
2,65,87,8
2,62,91,16
2,63,91,16
2,64,93,176
2,60,102,400
2,62,79,128
2,64,88,0
2,63,79,8
2,64,87,72
2,63,75,0
2,64,79,72
2,63,83,96
2,64,82,8
2,65,86,64
2,64,88,8
2,62,74,0
2,62,90,440
2,64,86,120
2,65,92,16
2,64,89,120
2,65,91,8
2,64,91,120
2,65,89,0
2,64,87,0
2,65,88,8
2,62,91,8
2,63,89,0
2,64,95,8
2,72,85,168
2,72,87,48
2,72,86,64
2,72,89,40
2,71,93,184
2,69,83,56
2,69,86,32
2,67,74,0
2,67,91,384
2,67,88,72
2,67,86,56
2,67,89,48
2,65,83,8
2,67,87,304
2,64,90,0
2,72,88,600
2,72,89,48
2,72,88,80
2,72,97,40
2,71,96,8
2,69,88,64
2,69,92,40
2,67,87,8
2,67,95,432
2,67,86,72
2,67,87,80
2,67,97,32
2,65,93,200
2,59,114,192
2,60,80,0
2,60,90,352
2,62,83,120
2,64,93,8
2,63,80,8
2,64,88,0
2,63,80,8
2,64,88,64
2,63,87,112
2,64,84,16
2,65,81,8
2,64,86,0
2,62,72,16
2,62,88,344
2,64,88,120
2,65,89,8
2,64,97,24
2,65,90,8
2,64,85,8
2,65,85,0
2,64,94,88
2,65,88,8
2,62,88,56
2,63,83,8
2,64,82,0
2,60,88,216
2,62,77,128
2,64,88,64
2,63,75,0
2,64,83,72
2,63,75,8
2,64,81,64
2,63,82,80
2,64,85,16
2,65,81,304
2,64,84,0
2,62,70,8
2,62,86,376
2,64,78,0
2,65,88,8
2,64,82,120
2,65,88,0
2,64,78,0
2,65,86,8
2,64,82,96
2,65,83,8
2,62,81,56
2,63,79,8
2,64,73,184
2,72,88,224
2,72,86,56
2,72,85,56
2,72,88,32
2,71,91,192
2,69,73,40
2,69,85,40
2,67,79,8
2,67,95,336
2,67,86,80
2,67,81,56
2,67,89,32
2,65,78,8
2,67,86,192
2,64,85,184
2,72,95,632
2,72,85,40
2,72,90,64
2,72,95,32
2,71,94,184
2,69,81,8
2,69,89,40
2,67,80,0
2,67,100,224
2,67,90,72
2,67,75,88
2,67,98,40
2,65,90,8
2,59,103,192
2,60,75,8
2,60,88,280
2,70,90,32
2,72,84,8
2,70,85,16
2,69,71,0
2,70,73,0
2,69,80,64
2,70,81,16
2,72,81,296
2,70,80,72
2,69,67,8
2,60,83,552
2,67,98,0
2,69,78,0
2,67,84,8
2,66,72,112
2,67,70,8
2,66,67,0
2,67,73,8
2,69,84,152
2,65,74,72
2,72,89,672
2,74,81,128
2,72,88,64
2,71,82,112
2,72,82,64
2,71,73,0
2,72,72,8
2,71,86,88
2,72,85,16
2,74,75,0
2,72,75,8
2,71,74,0
2,62,88,552
2,69,88,8
2,71,86,8
2,69,80,16
2,68,77,8
2,69,75,0
2,68,62,8
2,69,73,8
2,71,82,384
2,67,81,8
2,66,71,0
2,65,76,8
2,72,87,160
2,72,88,64
2,72,88,48
2,72,100,32
2,71,103,184
2,69,80,56
2,69,86,32
2,67,76,8
2,67,92,216
2,67,89,56
2,67,86,64
2,67,95,40
2,65,82,8
2,67,97,192
2,64,93,192
2,72,92,496
2,72,89,48
2,72,91,72
2,72,93,32
2,71,93,192
2,69,75,56
2,69,83,40
2,67,79,0
2,67,100,408
2,67,88,80
2,67,85,80
2,67,93,48
2,65,91,8
2,59,101,184
2,60,76,8
2,72,92,576
2,72,90,48
2,72,90,72
2,72,93,40
2,71,90,8
2,69,82,48
2,69,90,40
2,67,81,200
2,67,88,336
2,67,83,64
2,67,88,64
2,67,93,48
2,65,86,184
2,67,91,192
2,64,86,192
2,72,98,608
2,72,88,48
2,72,88,80
2,72,92,56
2,71,96,8
2,69,87,0
2,69,91,40
2,67,88,24
2,67,93,368
2,67,90,72
2,67,83,72
2,67,95,48
2,65,88,16
2,59,97,192
2,60,95,8
3,48,112,4032
3,43,103,128
3,48,105,16
3,48,108,160
3,43,120,120
3,48,110,8
3,43,117,80
3,38,127,96
3,43,122,0
3,43,101,56
3,50,113,80
3,43,120,64
3,48,125,112
3,43,113,128
3,48,110,0
3,48,107,64
3,43,122,104
3,48,106,8
3,43,115,96
3,38,115,120
3,43,106,8
3,43,117,136
3,50,106,72
3,43,122,8
3,48,120,144
3,48,117,0
3,48,104,104
3,36,120,8
3,38,127,8
3,40,127,8
3,41,125,168
3,41,96,144
3,41,108,24
3,43,107,16
3,45,110,64
3,47,121,64
3,48,125,64
3,48,117,112
3,57,120,8
3,56,116,128
3,55,104,8
3,52,112,128
3,48,117,8
3,45,112,128
3,43,122,64
3,43,103,144
3,41,113,8
3,43,120,384
3,48,122,16
3,48,127,64
3,50,120,8
3,48,122,8
3,57,125,192
3,55,120,104
3,52,121,128
3,48,117,8
3,45,112,64
3,41,125,64
3,36,113,160
3,41,115,8
3,43,103,16
3,45,108,64
3,47,125,64
3,48,113,8
3,43,110,24
3,52,116,64
3,50,97,32
3,48,120,8
3,45,110,192
3,43,117,192
3,38,99,80
3,43,113,64
3,45,110,192
3,47,121,24
3,48,117,8
3,43,122,104
3,48,120,16
3,48,112,64
3,43,107,104
3,48,110,64
3,43,127,96
3,38,120,80
3,43,108,64
3,43,115,184
3,50,115,80
3,43,113,64
3,48,127,72
3,43,112,120
3,48,105,64
3,48,113,88
3,43,112,80
3,48,110,0
3,43,117,112
3,38,104,88
3,43,110,64
3,43,117,168
3,50,115,64
3,43,122,64
3,48,125,104
3,48,98,56
3,36,127,64
3,38,127,8
3,40,127,16
3,41,127,8
3,36,107,72
3,41,112,8
3,43,112,384
3,45,108,64
3,47,116,56
3,48,122,8
3,48,115,96
3,57,120,0
3,56,112,128
3,55,101,8
3,52,114,8
3,48,120,64
3,45,110,112
3,43,115,24
3,43,113,104
3,41,110,64
3,43,125,8
3,48,125,192
3,48,125,40
3,50,122,16
3,48,127,8
3,57,117,256
3,55,107,56
3,52,118,56
3,48,117,56
3,45,117,48
3,43,112,64
3,41,125,64
3,36,98,144
3,41,115,64
3,43,110,24
3,45,102,8
3,47,114,64
3,48,122,8
3,43,107,16
3,52,118,64
3,50,110,40
3,48,115,8
3,45,107,16
3,43,117,8
3,38,115,72
3,43,125,64
3,45,122,40
3,47,121,32
3,48,125,48
3,43,122,96
3,48,113,8
3,43,115,80
3,36,120,16
3,43,120,88
3,48,110,0
3,36,122,384
3,41,117,16
3,36,108,136
3,41,107,64
3,48,113,48
3,43,113,112
3,36,108,64
3,41,108,80
3,41,107,112
3,53,127,8
3,52,127,32
3,51,125,32
3,50,117,40
3,45,110,104
3,38,115,64
3,50,113,8
3,43,107,0
3,38,115,128
3,43,112,0
3,43,91,96
3,38,127,8
3,45,122,64
3,50,115,8
3,38,112,384
3,43,112,8
3,38,103,88
3,43,115,8
3,41,127,48
3,36,108,136
3,41,113,64
3,43,115,16
3,45,103,64
3,47,114,64
3,48,127,16
3,48,103,128
3,57,122,0
3,56,118,128
3,55,104,16
3,52,114,8
3,48,125,64
3,45,108,16
3,43,110,8
3,43,102,96
3,41,112,8
3,43,125,384
3,48,122,8
3,48,120,40
3,50,125,16
3,48,110,8
3,57,117,112
3,55,105,64
3,52,116,56
3,48,112,8
3,43,115,64
3,41,112,120
3,36,98,136
3,41,112,64
3,43,112,16
3,45,101,8
3,47,121,64
3,48,127,8
3,43,108,144
3,52,118,8
3,48,113,16
3,45,107,192
3,43,120,8
3,38,94,136
3,43,113,64
3,45,115,168
3,47,127,32
3,48,107,40
3,48,113,168
3,36,125,64
3,38,122,8
3,40,116,32
3,41,113,192
3,36,91,192
3,41,108,64
3,43,106,32
3,45,97,8
3,47,111,8
3,48,115,64
3,48,104,120
3,57,110,8
3,56,108,128
3,55,105,16
3,52,106,128
3,48,122,64
3,45,108,8
3,43,113,64
3,43,96,128
3,41,113,8
3,43,117,8
3,48,125,192
3,48,122,48
3,50,115,64
3,48,117,64
3,57,113,128
3,55,110,128
3,52,125,48
3,50,117,56
3,48,122,56
3,45,105,64
3,46,98,0
3,43,117,56
3,41,117,64
3,36,97,192
3,41,117,64
3,43,97,24
3,45,103,8
3,47,111,8
3,48,117,0
3,43,103,120
3,52,125,0
3,50,99,24
3,48,117,8
3,45,115,16
3,43,106,192
3,38,105,192
3,43,122,64
3,45,117,8
3,47,121,40
3,48,113,56
3,43,122,128
3,48,107,8
3,43,107,72
3,36,127,64
4,52,109,272
4,60,82,0
4,53,95,8
4,62,74,0
4,55,85,0
4,64,86,0
4,54,99,8
4,63,73,0
4,64,80,64
4,55,83,8
4,54,86,0
4,63,71,0
4,55,77,72
4,64,74,0
4,54,99,96
4,63,82,0
4,55,80,16
4,64,81,0
4,57,80,0
4,65,78,0
4,55,73,16
4,64,88,0
4,53,75,16
4,62,73,0
4,53,99,176
4,62,80,8
4,55,78,8
4,64,82,0
4,57,77,8
4,65,87,0
4,55,73,8
4,64,86,8
4,57,77,0
4,65,76,0
4,55,71,16
4,64,81,8
4,57,80,8
4,65,82,0
4,55,87,56
4,64,84,8
4,57,78,8
4,65,87,8
4,62,70,48
4,55,78,48
4,63,78,8
4,64,75,8
4,52,116,112
4,60,87,8
4,53,85,8
4,62,77,8
4,55,78,16
4,64,88,0
4,63,82,0
4,54,95,8
4,55,80,8
4,64,86,0
4,54,84,0
4,63,75,8
4,55,80,8
4,64,86,8
4,54,82,80
4,63,77,16
4,55,76,0
4,64,80,8
4,57,75,8
4,65,80,0
4,55,72,16
4,64,99,0
4,53,82,8
4,62,74,8
4,53,108,152
4,62,78,0
4,55,75,8
4,64,82,0
4,57,82,8
4,65,85,0
4,55,76,8
4,64,88,8
4,57,83,8
4,65,80,0
4,55,70,8
4,64,88,0
4,57,83,0
4,65,82,0
4,55,82,56
4,64,91,0
4,57,77,8
4,65,82,8
4,62,76,296
4,55,78,48
4,63,82,8
4,64,80,0
4,69,92,168
4,72,87,0
4,69,85,32
4,72,85,0
4,69,90,40
4,72,83,8
4,72,90,32
4,69,103,8
4,67,92,24
4,71,80,0
4,69,77,16
4,65,82,0
4,65,90,48
4,69,92,0
4,64,95,32
4,67,73,8
4,59,91,136
4,67,95,8
4,59,86,48
4,67,85,0
