track,note,velocity,time
0,67,30,170
0,72,30,0
0,76,30,0
0,43,127,1
0,48,108,1
0,52,125,2
0,55,120,2
0,60,127,2
0,64,117,1
0,43,0,179
0,48,0,1
0,52,0,2
0,43,117,2
0,55,0,0
0,48,127,1
0,52,127,1
0,60,0,0
0,64,0,0
0,55,105,2
0,60,123,2
0,64,127,2
0,55,0,117
0,60,0,0
0,52,0,3
0,60,111,0
0,48,0,2
0,55,111,1
0,43,0,1
0,52,114,1
0,48,127,2
0,43,127,2
0,43,0,55
0,48,0,2
0,52,0,2
0,43,127,1
0,48,108,1
0,55,0,0
0,60,0,1
0,52,125,1
0,64,0,1
0,55,120,1
0,60,127,2
0,64,117,1
0,64,0,101
0,60,0,4
0,55,0,2
0,52,0,1
0,64,127,0
0,48,0,1
0,60,127,1
0,55,114,1
0,43,0,1
0,52,125,0
0,48,127,3
0,43,127,1
0,43,0,57
0,48,0,2
0,52,0,1
0,55,0,1
0,43,117,1
0,60,0,0
0,48,108,1
0,52,127,1
0,55,127,1
0,64,0,0
0,60,127,3
0,64,127,1
0,64,0,103
0,60,0,5
0,55,0,2
0,64,127,1
0,52,0,2
0,60,127,0
0,48,0,1
0,55,102,1
0,43,0,2
0,52,125,0
0,48,127,2
0,43,127,2
0,43,0,54
0,48,0,3
0,52,0,1
0,55,0,2
0,60,0,1
0,64,0,2
0,43,127,2
0,48,108,1
0,52,125,2
0,55,120,2
0,60,127,2
0,64,117,1
0,43,0,179
0,48,0,1
0,52,0,2
0,43,117,2
0,55,0,0
0,48,127,1
0,52,127,1
0,60,0,0
0,64,0,0
0,55,105,2
0,60,123,2
0,64,127,2
0,55,0,117
0,60,0,0
0,52,0,3
0,60,111,0
0,48,0,2
0,55,111,1
0,43,0,1
0,52,114,1
0,48,127,2
0,43,127,2
0,43,0,55
0,48,0,2
0,52,0,2
0,43,127,1
0,48,108,1
0,55,0,0
0,60,0,1
0,52,125,1
0,64,0,1
0,55,120,1
0,60,127,2
0,64,117,1
0,64,0,101
0,60,0,4
0,55,0,2
0,52,0,1
0,64,127,0
0,48,0,1
0,60,127,1
0,55,114,1
0,43,0,1
0,52,125,0
0,48,127,3
0,43,127,1
0,43,0,57
0,48,0,2
0,52,0,1
0,55,0,1
0,43,117,1
0,60,0,0
0,48,108,1
0,52,127,1
0,55,127,1
0,64,0,0
0,60,127,3
0,64,127,1
0,64,0,103
0,60,0,5
0,55,0,2
0,64,127,1
0,52,0,2
0,60,127,0
0,48,0,1
0,55,102,1
0,43,0,2
0,52,125,0
0,48,127,2
0,43,127,2
0,43,0,54
0,48,0,3
0,52,0,1
0,55,0,2
0,60,0,1
0,64,0,2
0,67,118,1
0,79,42,0
0,84,42,0
0,88,42,0
0,43,127,1
0,48,108,1
0,52,125,2
0,55,120,2
0,60,127,2
0,64,117,1
0,67,82,37
0,67,55,35
0,43,0,31
0,48,0,1
0,52,0,2
0,67,35,1
0,43,117,1
0,55,0,0
0,48,127,1
0,52,127,1
0,60,0,0
0,64,0,0
0,55,105,2
0,60,123,2
0,64,127,2
0,55,0,97
0,60,0,0
0,52,0,3
0,60,111,0
0,48,0,2
0,55,111,1
0,43,0,1
0,52,114,1
0,48,127,2
0,43,127,2
0,43,0,55
0,48,0,2
0,52,0,2
0,43,127,1
0,48,108,1
0,55,0,0
0,60,0,1
0,52,125,1
0,64,0,1
0,55,120,1
0,60,127,2
0,64,117,1
0,64,0,101
0,60,0,4
0,55,0,2
0,52,0,1
0,64,127,0
0,48,0,1
0,60,127,1
0,55,114,1
0,43,0,1
0,52,125,0
0,65,118,2
0,48,127,1
0,43,127,1
0,43,0,32
0,48,0,2
0,52,0,1
0,55,0,1
0,43,117,1
0,60,0,0
0,64,118,0
0,48,108,1
0,52,127,1
0,55,127,1
0,64,0,0
0,60,127,3
0,64,127,1
0,64,81,37
0,64,0,17
0,60,0,5
0,55,0,2
0,64,127,1
0,52,0,2
0,60,127,0
0,48,0,1
0,55,102,1
0,43,0,2
0,52,125,0
0,48,127,2
0,43,127,2
0,65,118,0
0,43,0,27
0,48,0,3
0,52,0,1
0,55,0,2
0,60,0,1
0,64,0,2
0,67,118,1
0,43,127,1
0,48,108,1
0,52,125,2
0,55,120,2
0,60,127,2
0,64,117,1
0,67,82,37
0,67,58,35
0,43,0,31
0,48,0,1
0,52,0,2
0,67,34,1
0,43,117,1
0,55,0,0
0,48,127,1
0,52,127,1
0,60,0,0
0,64,0,0
0,55,105,2
0,60,123,2
0,64,127,2
0,55,0,97
0,60,0,0
0,52,0,3
0,60,111,0
0,48,0,2
0,55,111,1
0,43,0,1
0,52,114,1
0,48,127,2
0,43,127,2
0,43,0,55
0,48,0,2
0,52,0,2
0,43,127,1
0,48,108,1
0,55,0,0
0,60,0,1
0,52,125,1
0,64,0,1
0,55,120,1
0,60,127,2
0,64,117,1
0,64,0,101
0,60,0,4
0,55,0,2
0,52,0,1
0,64,127,0
0,48,0,1
0,60,127,1
0,55,114,1
0,43,0,1
0,52,125,0
0,64,118,2
0,48,127,1
0,43,127,1
0,43,0,32
0,48,0,2
0,52,0,1
0,55,0,1
0,43,117,1
0,60,0,0
0,67,118,0
0,91,42,0
0,48,108,1
0,52,127,1
0,55,127,1
0,64,0,0
0,60,127,3
0,64,127,1
0,67,83,37
0,64,0,17
0,60,0,5
0,55,0,2
0,64,127,1
0,52,0,2
0,60,127,0
0,48,0,1
0,55,102,1
0,43,0,2
0,52,125,0
0,48,127,2
0,43,127,2
0,72,118,0
0,43,0,27
0,48,0,3
0,52,0,1
0,55,0,2
0,60,0,1
0,64,0,2
0,43,127,1
0,65,118,0
0,83,42,0
0,86,42,0
0,89,42,0
0,47,127,2
0,50,127,2
0,55,114,2
0,59,127,1
0,65,114,3
0,65,82,37
0,65,58,35
0,43,0,31
0,47,0,2
0,50,0,2
0,65,34,0
0,43,127,1
0,55,0,1
0,47,125,1
0,59,0,1
0,50,127,1
0,65,0,0
0,55,127,2
0,59,127,1
0,65,125,2
0,65,0,84
0,59,0,5
0,55,0,1
0,50,0,2
0,47,0,2
0,43,0,3
0,65,114,3
0,59,127,1
0,55,123,3
0,50,114,1
0,47,127,3
0,43,114,1
0,43,0,51
0,47,0,3
0,43,114,1
0,50,0,1
0,55,0,1
0,47,125,1
0,59,0,1
0,50,127,1
0,55,127,1
0,65,0,0
0,59,117,2
0,65,127,2
0,43,0,90
0,47,0,3
0,50,0,2
0,55,0,1
0,59,0,2
0,65,0,2
0,64,118,17
0,65,127,1
0,59,127,3
0,55,114,2
0,50,127,2
0,47,127,2
0,43,127,2
0,43,0,37
0,62,118,0
0,47,0,1
0,50,0,2
0,43,127,1
0,47,127,1
0,55,0,0
0,50,127,2
0,59,0,0
0,65,0,1
0,55,127,1
0,59,127,2
0,65,127,1
0,62,81,37
0,43,0,21
0,47,0,1
0,50,0,2
0,55,0,2
0,59,0,2
0,65,0,1
0,64,118,6
0,65,127,1
0,59,127,2
0,55,127,3
0,50,127,1
0,47,127,3
0,43,127,2
0,43,0,34
0,47,0,2
0,43,127,1
0,65,118,0
0,50,0,1
0,47,127,1
0,55,0,1
0,50,127,1
0,55,114,2
0,59,0,0
0,59,127,1
0,65,0,0
0,65,114,3
0,65,81,37
0,65,58,35
0,43,0,31
0,47,0,2
0,50,0,2
0,65,34,0
0,93,42,0
0,43,127,1
0,55,0,1
0,47,125,1
0,59,0,1
0,50,127,1
0,65,0,0
0,55,127,2
0,59,127,1
0,65,125,2
0,65,0,84
0,59,0,5
0,55,0,1
0,50,0,2
0,47,0,2
0,43,0,1
0,91,42,2
0,65,114,1
0,59,127,1
0,55,123,3
0,50,114,1
0,47,127,3
0,43,114,1
0,43,0,51
0,47,0,3
0,43,114,1
0,50,0,1
0,55,0,1
0,47,125,1
0,59,0,1
0,50,127,1
0,55,127,1
0,65,0,0
0,59,117,2
0,65,127,2
0,43,0,90
0,47,0,3
0,50,0,2
0,55,0,1
0,59,0,2
0,65,0,2
0,65,127,18
0,59,127,3
0,55,114,2
0,50,127,2
0,47,127,2
0,43,127,2
0,43,0,52
0,47,0,1
0,50,0,2
0,43,127,1
0,47,127,1
0,55,0,0
0,50,127,2
0,59,0,0
0,65,0,1
0,55,127,1
0,59,127,2
0,65,127,1
0,43,0,102
0,47,0,1
0,50,0,2
0,55,0,2
0,59,0,2
0,65,0,1
0,65,127,7
0,59,127,2
0,55,127,3
0,50,127,1
0,47,127,3
0,43,127,2
0,43,0,49
0,47,0,2
0,43,127,1
0,69,118,0
0,83,42,0
0,86,42,0
0,89,42,0
0,50,0,1
0,47,127,1
0,55,0,1
0,50,127,1
0,55,114,2
0,59,0,0
0,59,127,1
0,65,0,0
0,65,114,3
0,69,80,37
0,69,59,35
0,43,0,31
0,47,0,2
0,50,0,2
0,69,34,0
0,43,127,1
0,55,0,1
0,47,125,1
0,59,0,1
0,50,127,1
0,65,0,0
0,55,127,2
0,59,127,1
0,65,125,2
0,65,0,84
0,59,0,5
0,55,0,1
0,50,0,2
0,47,0,2
0,43,0,3
0,65,114,3
0,59,127,1
0,55,123,3
0,50,114,1
0,47,127,3
0,43,114,1
0,43,0,51
0,47,0,3
0,43,114,1
0,50,0,1
0,55,0,1
0,47,125,1
0,59,0,1
0,50,127,1
0,55,127,1
0,65,0,0
0,59,117,2
0,65,127,2
0,43,0,90
0,47,0,3
0,50,0,2
0,55,0,1
0,59,0,2
0,65,0,2
0,67,118,17
0,65,127,1
0,59,127,3
0,55,114,2
0,50,127,2
0,47,127,2
0,43,127,2
0,43,0,37
0,65,118,0
0,47,0,1
0,50,0,2
0,43,127,1
0,47,127,1
0,55,0,0
0,50,127,2
0,59,0,0
0,65,0,1
0,55,127,1
0,59,127,2
0,65,127,1
0,65,80,37
0,43,0,21
0,47,0,1
0,50,0,2
0,55,0,2
0,59,0,2
0,65,0,1
0,67,118,6
0,65,127,1
0,59,127,2
0,55,127,3
0,50,127,1
0,47,127,3
0,43,127,2
0,43,0,34
0,47,0,2
0,43,127,1
0,69,118,0
0,50,0,1
0,47,127,1
0,55,0,1
0,50,127,1
0,55,114,2
0,59,0,0
0,59,127,1
0,65,0,0
0,65,114,3
0,69,80,37
0,69,58,35
0,43,0,31
0,47,0,2
0,50,0,2
0,69,34,0
0,43,127,1
0,55,0,1
0,47,125,1
0,59,0,1
0,50,127,1
0,65,0,0
0,55,127,2
0,59,127,1
0,65,125,2
0,65,0,84
0,59,0,5
0,55,0,1
0,50,0,2
0,47,0,2
0,43,0,3
0,65,114,3
0,59,127,1
0,55,123,3
0,50,114,1
0,47,127,3
0,43,114,1
0,43,0,51
0,47,0,3
0,43,114,1
0,50,0,1
0,55,0,1
0,47,125,1
0,59,0,1
0,50,127,1
0,55,127,1
0,65,0,0
0,59,117,2
0,65,127,2
0,43,0,90
0,47,0,3
0,50,0,2
0,55,0,1
0,59,0,2
0,65,0,2
0,74,118,17
0,65,127,1
0,59,127,3
0,55,114,2
0,50,127,2
0,47,127,2
0,43,127,2
0,43,0,37
0,71,118,0
0,47,0,1
0,50,0,2
0,43,127,1
0,47,127,1
0,55,0,0
0,50,127,2
0,59,0,0
0,65,0,1
0,55,127,1
0,59,127,2
0,65,127,1
0,71,79,37
0,43,0,21
0,47,0,1
0,50,0,2
0,55,0,2
0,59,0,2
0,65,0,1
0,69,118,6
0,65,127,1
0,59,127,2
0,55,127,3
0,50,127,1
0,47,127,3
0,43,127,2
0,43,0,34
0,47,0,2
0,67,118,1
0,84,42,0
0,88,42,0
0,50,0,1
0,43,127,2
0,55,0,0
0,48,114,1
0,52,120,2
0,59,0,0
0,65,0,1
0,55,127,1
0,60,127,2
0,64,127,1
0,67,79,37
0,67,59,35
0,43,0,27
0,48,0,2
0,43,72,3
0,52,0,0
0,55,0,1
0,48,120,1
0,67,34,1
0,52,127,1
0,60,0,0
0,64,0,1
0,55,127,2
0,60,127,0
0,64,127,3
0,64,0,83
0,60,0,3
0,55,0,2
0,64,127,1
0,52,0,2
0,60,127,0
0,48,0,1
0,43,0,1
0,55,125,0
0,52,120,2
0,48,127,1
0,43,127,2
0,43,0,58
0,48,0,2
0,52,0,2
0,43,117,1
0,55,0,1
0,48,127,1
0,60,0,1
0,64,0,0
0,52,127,1
0,55,127,2
0,60,127,0
0,64,127,2
0,64,0,109
0,60,0,4
0,55,0,1
0,52,0,2
0,64,127,0
0,60,127,1
0,48,0,2
0,55,127,0
0,43,0,1
0,52,127,2
0,76,118,0
0,48,127,2
0,43,127,1
0,43,0,34
0,72,118,3
0,48,0,1
0,52,0,0
0,55,0,2
0,43,127,1
0,48,102,0
0,60,0,0
0,52,123,2
0,64,0,0
0,55,127,1
0,60,127,2
0,64,127,1
0,72,80,37
0,64,0,19
0,60,0,4
0,55,0,2
0,64,127,1
0,52,0,1
0,48,0,1
0,60,127,0
0,55,105,2
0,43,0,1
0,52,127,0
0,48,127,3
0,43,127,1
0,69,118,0
0,43,0,30
0,48,0,2
0,52,0,1
0,43,117,2
0,48,120,1
0,55,0,0
0,67,118,1
0,60,0,1
0,43,127,2
0,43,0,0
0,64,0,0
0,48,114,1
0,52,120,2
0,55,127,2
0,60,127,2
0,64,127,1
0,67,80,37
0,67,59,35
0,48,0,26
0,43,0,1
0,48,0,2
0,43,72,3
0,52,0,0
0,55,0,1
0,48,120,1
0,67,33,1
0,52,127,1
0,60,0,0
0,64,0,1
0,55,127,2
0,60,127,0
0,64,127,3
0,64,0,83
0,60,0,3
0,55,0,2
0,64,127,1
0,52,0,2
0,60,127,0
0,48,0,1
0,43,0,1
0,55,125,0
0,52,120,2
0,48,127,1
0,43,127,2
0,43,0,58
0,48,0,2
0,52,0,2
0,43,117,1
0,55,0,1
0,48,127,1
0,60,0,1
0,64,0,0
0,52,127,1
0,55,127,2
0,60,127,0
0,64,127,2
0,64,0,109
0,60,0,4
0,55,0,1
0,52,0,2
0,64,127,0
0,60,127,1
0,48,0,2
0,55,127,0
0,43,0,1
0,40,82,2
0,52,127,0
0,48,127,2
0,43,127,1
0,43,0,37
0,40,113,3
0,48,0,1
0,52,0,0
0,55,0,2
0,43,127,1
0,48,102,0
0,60,0,0
0,52,123,2
0,64,0,0
0,55,127,1
0,60,127,2
0,64,127,1
0,64,0,88
0,60,0,4
0,55,0,2
0,64,127,1
0,52,0,1
0,48,0,1
0,60,127,0
0,55,105,2
0,43,0,1
0,52,127,0
0,48,127,3
0,35,80,1
0,43,127,0
0,43,0,33
0,48,0,2
0,52,0,1
0,52,85,1
0,43,117,1
0,48,120,1
0,55,107,0
0,55,0,0
0,35,110,1
0,36,89,0
0,67,118,0
0,79,42,0
0,84,42,0
0,88,42,0
0,60,0,1
0,60,94,1
0,43,127,1
0,64,107,0
0,64,0,0
0,48,114,1
0,52,120,2
0,55,127,2
0,60,127,2
0,64,127,1
0,67,82,37
0,67,55,35
0,43,0,24
0,48,0,2
0,43,0,1
0,48,0,2
0,43,72,2
0,52,0,0
0,55,0,0
0,48,120,1
0,44,121,1
0,52,79,0
0,67,35,0
0,52,127,1
0,60,0,0
0,55,85,1
0,64,0,0
0,60,91,1
0,55,127,1
0,60,127,0
0,64,107,1
0,64,127,2
0,64,0,83
0,60,0,3
0,55,0,2
0,64,127,1
0,52,0,1
0,60,127,0
0,48,0,1
0,43,0,1
0,55,125,0
0,64,127,0
0,35,80,1
0,52,120,1
0,60,125,0
0,48,127,1
0,55,102,1
0,43,127,1
0,52,127,1
0,43,0,38
0,48,0,2
0,52,0,2
0,43,117,1
0,55,0,0
0,31,89,1
0,35,110,0
0,48,127,0
0,60,0,1
0,64,0,0
0,52,127,1
0,52,105,1
0,55,127,0
0,60,127,0
0,55,107,1
0,64,127,0
0,60,91,2
0,64,107,1
0,64,0,0
0,64,127,1
0,60,0,1
0,55,0,1
0,60,127,0
0,55,125,1
0,52,0,1
0,64,127,0
0,52,127,1
0,60,127,0
0,48,0,2
0,55,127,0
0,43,0,1
