track,note,velocity,time
1,35,109,13398
1,35,109,52
1,35,109,52
1,35,109,52
1,35,109,52
1,35,109,148
1,35,109,52
1,35,109,52
1,35,109,52
1,35,109,52
1,35,109,52
1,35,109,52
1,35,109,148
1,35,109,52
1,31,109,52
1,31,109,52
1,31,109,52
1,31,109,52
1,31,109,52
1,31,109,148
1,31,109,52
1,33,109,52
1,33,109,52
1,33,109,52
1,33,109,52
1,33,109,52
1,33,109,148
1,33,109,52
1,35,109,52
1,35,109,52
1,35,109,52
1,35,109,52
1,35,109,52
1,35,109,148
1,35,109,52
1,35,109,52
1,35,109,52
1,35,109,52
1,35,109,52
1,35,109,52
1,35,109,148
1,35,109,52
1,31,109,52
1,31,109,52
1,31,109,52
1,31,109,52
1,31,109,52
1,31,109,148
1,31,109,52
1,33,109,52
1,33,109,52
1,33,109,52
1,33,109,52
1,33,109,52
1,33,109,148
1,33,109,52
1,35,109,52
1,35,109,52
1,35,109,52
1,35,109,52
1,35,109,52
1,35,109,148
1,35,109,52
1,35,109,52
1,35,109,52
1,35,109,52
1,35,109,52
1,35,109,52
1,35,109,148
1,35,109,52
1,31,109,52
1,31,109,52
1,31,109,52
1,31,109,52
1,31,109,52
1,31,109,148
1,31,109,52
1,33,109,52
1,33,109,52
1,33,109,52
1,33,109,52
1,33,109,52
1,33,109,148
1,33,109,52
1,35,109,52
1,35,109,52
1,35,109,52
1,35,109,52
1,35,109,52
1,35,109,148
1,35,109,52
1,35,109,52
1,35,109,52
1,35,109,52
1,35,109,52
1,35,109,52
1,35,109,148
1,35,109,52
1,31,109,52
1,31,109,52
1,31,109,52
1,31,109,52
1,31,109,52
1,31,109,148
1,31,109,52
1,33,109,52
1,33,109,52
1,33,109,52
1,33,109,52
1,33,109,52
1,33,109,148
1,33,109,52
1,35,109,52
1,35,109,52
1,35,109,52
1,35,109,52
1,35,109,52
1,35,109,148
1,35,109,52
1,35,109,52
1,35,109,52
1,35,109,52
1,35,109,52
1,35,109,52
1,35,109,148
1,35,109,52
1,31,109,52
1,31,109,52
1,31,109,52
1,31,109,52
1,31,109,52
1,31,109,148
1,31,109,52
1,33,109,52
1,33,109,52
1,33,109,52
1,33,109,52
1,33,109,52
1,33,109,148
1,33,109,52
1,35,109,52
1,35,109,52
1,35,109,52
1,35,109,52
1,35,109,52
1,35,109,148
1,35,109,52
1,35,109,52
1,35,109,52
1,35,109,52
1,35,109,52
1,35,109,52
1,35,109,148
1,35,109,52
1,31,109,52
1,31,109,52
1,31,109,52
1,31,109,52
1,31,109,52
1,31,109,148
1,31,109,52
1,33,109,52
1,33,109,52
1,33,109,52
1,33,109,52
1,33,109,52
1,33,109,148
1,33,109,52
1,35,109,52
1,35,109,52
1,35,109,52
1,35,109,52
1,35,109,52
1,35,109,148
1,35,109,52
1,35,109,52
1,35,109,52
1,35,109,52
1,35,109,52
1,35,109,52
1,35,109,148
1,35,109,52
1,31,109,52
1,31,109,52
1,31,109,52
1,31,109,52
1,31,109,52
1,31,109,148
1,31,109,52
1,33,109,52
1,33,109,52
1,33,109,52
1,33,109,52
1,33,109,52
1,33,109,148
1,33,109,52
1,35,109,52
1,35,109,52
1,35,109,52
1,35,109,52
1,35,109,52
1,35,109,148
1,35,109,52
1,35,109,52
1,35,109,52
1,35,109,52
1,35,109,52
1,35,109,52
1,35,109,148
1,35,109,52
1,31,109,52
1,31,109,52
1,31,109,52
1,31,109,52
1,31,109,52
1,31,109,148
1,31,109,52
1,33,109,52
1,33,109,52
1,33,109,52
1,33,109,52
1,33,109,52
1,33,109,148
1,33,109,52
1,35,109,52
1,35,109,52
1,35,109,52
1,35,109,52
1,35,109,52
1,35,109,148
1,35,109,52
1,35,109,52
1,35,109,52
1,35,109,52
1,35,109,52
1,35,109,52
1,35,109,148
1,35,109,52
1,31,109,52
1,31,109,52
1,31,109,52
1,31,109,52
1,31,109,52
1,31,109,148
1,31,109,52
1,33,109,52
1,33,109,52
1,33,109,52
1,33,109,52
1,33,109,52
1,33,109,148
1,33,109,52
1,35,109,52
1,35,109,52
1,35,109,52
1,35,109,52
1,35,109,52
1,35,109,148
1,35,109,52
1,35,109,52
1,35,109,52
1,35,109,52
1,35,109,52
1,35,109,52
1,35,109,148
1,35,109,52
1,31,109,52
1,31,109,52
1,31,109,52
1,31,109,52
1,31,109,52
1,31,109,148
1,31,109,52
1,33,109,52
1,33,109,52
1,33,109,52
1,33,109,52
1,33,109,52
1,33,109,148
1,33,109,52
1,35,109,52
1,35,109,52
1,35,109,52
1,35,109,52
1,35,109,52
1,35,109,148
1,35,109,52
1,35,109,52
1,35,109,52
1,35,109,52
1,35,109,52
1,35,109,52
1,35,109,148
1,35,109,52
1,31,109,52
1,31,109,52
1,31,109,52
1,31,109,52
1,31,109,52
1,31,109,148
1,31,109,52
1,33,109,52
1,33,109,52
1,33,109,52
1,33,109,52
1,33,109,52
1,33,109,148
1,33,109,52
1,35,109,52
1,35,109,52
1,35,109,52
1,35,109,52
1,35,109,52
1,35,109,148
1,35,109,52
1,35,109,52
1,35,109,52
1,35,109,52
1,35,109,52
1,35,109,52
1,35,109,148
1,35,109,52
1,31,109,52
1,31,109,52
1,31,109,52
1,31,109,52
1,31,109,52
1,31,109,148
1,31,109,52
1,33,109,52
1,33,109,52
1,33,109,52
1,33,109,52
1,33,109,52
1,33,109,148
1,33,109,52
1,35,109,52
1,35,109,52
1,35,109,52
1,35,109,52
1,35,109,52
1,35,109,148
1,35,109,52
1,35,109,52
1,35,109,52
1,35,109,52
1,35,109,52
1,35,109,52
1,35,109,148
1,35,109,52
1,31,109,52
1,31,109,52
1,31,109,52
1,31,109,52
1,31,109,52
1,31,109,148
1,31,109,52
1,33,109,52
1,33,109,52
1,33,109,52
1,33,109,52
1,33,109,52
1,33,109,148
1,33,109,52
1,35,109,52
1,35,109,52
1,35,109,52
1,35,109,52
1,35,109,52
1,35,109,148
1,35,109,52
1,35,109,52
1,35,109,52
1,35,109,52
1,35,109,52
1,35,109,52
1,35,109,148
1,35,109,52
1,31,109,52
1,31,109,52
1,31,109,52
1,31,109,52
1,31,109,52
1,31,109,148
1,31,109,52
1,33,109,52
1,33,109,52
1,33,109,52
1,33,109,52
1,33,109,52
1,33,109,148
1,33,109,52
1,35,109,52
1,35,109,52
1,35,109,52
1,35,109,52
1,35,109,52
1,35,109,148
1,35,109,52
1,35,109,52
1,35,109,52
1,35,109,52
1,35,109,52
1,35,109,52
1,35,109,148
1,35,109,52
1,31,109,52
1,31,109,52
1,31,109,52
1,31,109,52
1,31,109,52
1,31,109,148
1,31,109,52
1,33,109,52
1,33,109,52
1,33,109,52
1,33,109,52
1,33,109,52
1,33,109,148
1,33,109,52
1,35,109,52
1,35,109,52
1,35,109,52
1,35,109,52
1,35,109,52
1,35,109,148
1,35,109,52
1,35,109,52
1,35,109,52
1,35,109,52
1,35,109,52
1,35,109,52
1,35,109,148
1,35,109,52
1,31,109,52
1,31,109,52
1,31,109,52
1,31,109,52
1,31,109,52
1,31,109,148
1,31,109,52
1,33,109,52
1,33,109,52
1,33,109,52
1,33,109,52
1,33,109,52
1,33,109,148
1,33,109,52
1,35,109,52
1,35,109,52
1,35,109,52
1,35,109,52
1,35,109,52
1,35,109,148
1,35,109,52
1,35,109,52
1,35,109,52
1,35,109,52
1,35,109,52
1,35,109,52
1,35,109,148
1,35,109,52
1,31,109,52
1,31,109,52
1,31,109,52
1,31,109,52
1,31,109,52
1,31,109,148
1,31,109,52
1,33,109,52
1,33,109,52
1,33,109,52
1,33,109,52
1,33,109,52
1,33,109,148
1,33,109,52
1,35,109,52
1,35,109,52
1,35,109,52
1,35,109,52
1,35,109,52
1,35,109,148
1,35,109,52
1,35,109,52
1,35,109,52
1,35,109,52
1,35,109,52
1,35,109,52
1,35,109,148
1,35,109,52
1,31,109,52
1,31,109,52
1,31,109,52
1,31,109,52
1,31,109,52
1,31,109,148
1,31,109,52
1,33,109,52
1,33,109,52
1,33,109,52
1,33,109,52
1,33,109,52
1,33,109,148
1,33,109,52
1,35,109,52
1,35,109,52
1,35,109,52
1,35,109,52
1,35,109,52
1,35,109,148
1,35,109,52
1,35,109,52
1,35,109,52
1,35,109,52
1,35,109,52
1,35,109,52
1,35,109,148
1,35,109,52
1,31,109,52
1,31,109,52
1,31,109,52
1,31,109,52
1,31,109,52
1,31,109,148
1,31,109,52
1,33,109,52
1,33,109,52
1,33,109,52
1,33,109,52
1,33,109,52
1,33,109,148
1,33,109,52
1,35,109,52
1,35,109,52
1,35,109,52
1,35,109,52
1,35,109,52
1,35,109,148
1,35,109,52
1,35,109,52
1,35,109,52
1,35,109,52
1,35,109,52
1,35,109,52
1,35,109,148
1,35,109,52
1,31,109,52
1,31,109,52
1,31,109,52
1,31,109,52
1,31,109,52
1,31,109,148
1,31,109,52
1,33,109,52
1,33,109,52
1,33,109,52
1,33,109,52
1,33,109,52
1,33,109,148
1,33,109,52
1,35,109,52
1,35,109,52
1,35,109,52
1,35,109,52
1,35,109,52
1,35,109,148
1,35,109,52
1,35,109,52
1,35,109,52
1,35,109,52
1,35,109,52
1,35,109,52
1,35,109,148
1,35,109,52
1,31,109,52
1,31,109,52
1,31,109,52
1,31,109,52
1,31,109,52
1,31,109,148
1,31,109,52
1,33,109,52
1,33,109,52
1,33,109,52
1,33,109,52
1,33,109,52
1,33,109,148
1,33,109,52
1,35,109,52
1,35,109,52
1,35,109,52
1,35,109,52
1,35,109,52
1,35,109,148
1,35,109,52
1,35,109,52
1,35,109,52
1,35,109,52
1,35,109,52
1,35,109,52
1,35,109,148
1,35,109,52
1,31,109,52
1,31,109,52
1,31,109,52
1,31,109,52
1,31,109,52
1,31,109,148
1,31,109,52
1,33,109,52
1,33,109,52
1,33,109,52
1,33,109,52
1,33,109,52
1,33,109,148
1,33,109,52
1,35,109,52
1,35,109,52
1,35,109,52
1,35,109,52
1,35,109,52
1,35,109,148
1,35,109,52
1,35,109,52
1,35,109,52
1,35,109,52
1,35,109,52
1,35,109,52
1,35,109,148
1,35,109,52
1,31,109,52
1,31,109,52
1,31,109,52
1,31,109,52
1,31,109,52
1,31,109,148
1,31,109,52
1,33,109,52
1,33,109,52
1,33,109,52
1,33,109,52
1,33,109,52
1,33,109,148
1,33,109,52
1,35,109,52
1,35,109,52
1,35,109,52
1,35,109,52
1,35,109,52
1,35,109,148
1,35,109,52
1,35,109,52
1,35,109,52
1,35,109,52
1,35,109,52
1,35,109,52
1,35,109,148
1,35,109,52
1,31,109,52
1,31,109,52
1,31,109,52
1,31,109,52
1,31,109,52
1,31,109,148
1,31,109,52
1,33,109,52
1,33,109,52
1,33,109,52
1,33,109,52
1,33,109,52
1,33,109,148
1,33,109,52
1,35,77,52
1,47,99,96
1,47,99,4
1,47,99,52
1,35,77,52
1,47,99,4
1,47,99,52
1,35,77,52
1,47,99,96
1,47,99,4
1,47,99,52
1,35,77,52
1,47,99,4
1,47,99,52
1,35,77,52
1,47,99,96
1,47,99,4
1,47,99,52
1,35,77,52
1,47,99,4
1,47,99,52
1,35,77,52
1,47,99,96
1,47,99,4
1,47,99,52
1,35,77,52
1,47,99,96
1,47,99,4
1,47,99,52
1,35,77,52
1,47,99,96
1,47,99,4
1,47,99,52
1,35,77,52
1,47,99,4
1,47,99,52
1,35,77,52
1,47,99,96
1,47,99,4
1,47,99,52
1,35,77,52
1,47,99,4
1,47,99,52
1,35,77,52
1,47,99,96
1,47,99,4
1,47,99,52
1,35,77,52
1,47,99,4
1,47,99,52
1,35,77,52
1,47,99,96
1,47,99,4
1,47,99,52
1,35,77,52
1,47,99,96
1,47,99,4
1,47,99,52
1,35,77,52
1,47,99,96
1,47,99,4
1,47,99,52
1,35,77,52
1,47,99,4
1,47,99,52
1,35,77,52
1,47,99,96
1,47,99,4
1,47,99,52
1,35,77,52
1,47,99,4
1,47,99,52
1,35,77,52
1,47,99,96
1,47,99,4
1,47,99,52
1,35,77,52
1,47,99,4
1,47,99,52
1,35,77,52
1,47,99,96
1,47,99,4
1,47,99,52
1,35,77,52
1,47,99,96
1,47,99,4
1,47,99,52
1,35,77,52
1,47,99,96
1,47,99,4
1,47,99,52
1,35,77,52
1,47,99,4
1,47,99,52
1,35,77,52
1,47,99,96
1,47,99,4
1,47,99,52
1,35,77,52
1,47,99,4
1,47,99,52
1,35,77,52
1,47,99,96
1,47,99,4
1,47,99,52
1,35,77,52
1,47,99,4
1,47,99,52
1,35,119,52
1,35,109,580
1,35,109,52
1,35,109,52
1,35,109,52
1,35,109,52
1,35,109,148
1,35,109,52
1,35,109,52
1,35,109,52
1,35,109,52
1,35,109,52
1,35,109,52
1,35,109,148
1,35,109,52
1,31,109,52
1,31,109,52
1,31,109,52
1,31,109,52
1,31,109,52
1,31,109,148
1,31,109,52
1,33,109,52
1,33,109,52
1,33,109,52
1,33,109,52
1,33,109,52
1,33,109,148
1,33,109,52
1,35,109,52
1,35,109,52
1,35,109,52
1,35,109,52
1,35,109,52
1,35,109,148
1,35,109,52
1,35,109,52
1,35,109,52
1,35,109,52
1,35,109,52
1,35,109,52
1,35,109,148
1,35,109,52
1,31,109,52
1,31,109,52
1,31,109,52
1,31,109,52
1,31,109,52
1,31,109,148
1,31,109,52
1,33,109,52
1,33,109,52
1,33,109,52
1,33,109,52
1,33,109,52
1,33,109,148
1,33,109,52
1,35,109,52
1,35,109,52
1,35,109,52
1,35,109,52
1,35,109,52
1,35,109,148
1,35,109,52
1,35,109,52
1,35,109,52
1,35,109,52
1,35,109,52
1,35,109,52
1,35,109,148
1,35,109,52
1,31,109,52
1,31,109,52
1,31,109,52
1,31,109,52
1,31,109,52
1,31,109,148
1,31,109,52
1,33,109,52
1,33,109,52
1,33,109,52
1,33,109,52
1,33,109,52
1,33,109,148
1,33,109,52
1,35,109,52
1,35,109,52
1,35,109,52
1,35,109,52
1,35,109,52
1,35,109,148
1,35,109,52
1,35,109,52
1,35,109,52
1,35,109,52
1,35,109,52
1,35,109,52
1,35,109,148
1,35,109,52
1,31,109,52
1,31,109,52
1,31,109,52
1,31,109,52
1,31,109,52
1,31,109,148
1,31,109,52
1,33,109,52
1,33,109,52
1,33,109,52
1,33,109,52
1,33,109,52
1,33,109,148
1,33,109,52
1,35,109,52
1,35,109,52
1,35,109,52
1,35,109,52
1,35,109,52
1,35,109,148
1,35,109,52
1,35,109,52
1,35,109,52
1,35,109,52
1,35,109,52
1,35,109,52
1,35,109,148
1,35,109,52
1,31,109,52
1,31,109,52
1,31,109,52
1,31,109,52
1,31,109,52
1,31,109,148
1,31,109,52
1,33,109,52
1,33,109,52
1,33,109,52
1,33,109,52
1,33,109,52
1,33,109,148
1,33,109,52
1,35,109,52
1,35,109,52
1,35,109,52
1,35,109,52
1,35,109,52
1,35,109,148
1,35,109,52
1,35,109,52
1,35,109,52
1,35,109,52
1,35,109,52
1,35,109,52
1,35,109,148
1,35,109,52
1,31,109,52
1,31,109,52
1,31,109,52
1,31,109,52
1,31,109,52
1,31,109,148
1,31,109,52
1,33,109,52
1,33,109,52
1,33,109,52
1,33,109,52
1,33,109,52
1,33,109,148
1,33,109,52
1,35,109,52
1,35,109,52
1,35,109,52
1,35,109,52
1,35,109,52
1,35,109,148
1,35,109,52
1,35,109,52
1,35,109,52
1,35,109,52
1,35,109,52
1,35,109,52
1,35,109,148
1,35,109,52
1,31,109,52
1,31,109,52
1,31,109,52
1,31,109,52
1,31,109,52
1,31,109,148
1,31,109,52
1,33,109,52
1,33,109,52
1,33,109,52
1,33,109,52
1,33,109,52
1,33,109,148
1,33,109,52
1,35,109,52
1,35,109,52
1,35,109,52
1,35,109,52
1,35,109,52
1,35,109,148
1,35,109,52
1,35,109,52
1,35,109,52
1,35,109,52
1,35,109,52
1,35,109,52
1,35,109,148
1,35,109,52
1,31,109,52
1,31,109,52
1,31,109,52
1,31,109,52
1,31,109,52
1,31,109,148
1,31,109,52
1,33,109,52
1,33,109,52
