track,note,velocity,time
1,74,127,0
1,50,127,0
1,69,127,0
1,74,127,0
1,69,127,0
1,74,127,0
1,50,127,0
1,69,127,0
1,74,127,0
1,69,127,0
1,74,127,0
1,50,127,0
1,69,127,0
1,50,127,0
1,74,127,0
1,50,127,0
1,69,127,0
1,50,127,0
1,74,127,0
1,50,127,0
1,69,127,0
1,50,127,0
1,74,127,0
1,50,127,0
1,69,127,0
1,50,127,0
1,74,127,0
1,50,127,0
1,69,127,0
1,74,127,0
1,69,127,0
1,76,127,0
1,69,127,0
1,76,127,0
1,69,127,0
1,45,127,0
1,77,127,0
1,50,127,0
1,69,127,0
1,77,127,0
1,69,127,0
1,76,127,0
1,77,127,0
1,76,127,0
1,69,127,0
1,74,127,0
1,50,127,0
1,69,127,0
1,74,127,0
1,69,127,0
1,76,127,0
1,69,127,0
1,76,127,0
1,69,127,0
1,45,127,0
1,77,127,0
1,50,127,0
1,69,127,0
1,77,127,0
1,69,127,0
1,76,127,0
1,77,127,0
1,76,127,0
1,69,127,0
1,74,127,0
1,50,127,0
1,69,127,0
1,74,127,0
1,69,127,0
1,76,127,0
1,69,127,0
1,76,127,0
1,69,127,0
1,45,127,0
1,77,127,0
1,50,127,0
1,69,127,0
1,77,127,0
1,69,127,0
1,76,127,0
1,77,127,0
1,76,127,0
1,69,127,0
1,74,127,0
1,50,127,0
1,69,127,0
1,74,127,0
1,69,127,0
1,76,127,0
1,69,127,0
1,76,127,0
1,69,127,0
1,45,127,0
1,77,127,0
1,50,127,0
1,69,127,0
1,77,127,0
1,69,127,0
1,76,127,0
1,77,127,0
1,76,127,0
1,69,127,0
1,74,127,0
1,50,127,0
1,69,127,0
1,74,127,0
1,69,127,0
1,76,127,0
1,69,127,0
1,76,127,0
1,69,127,0
1,45,127,0
1,77,127,0
1,50,127,0
1,69,127,0
1,77,127,0
1,69,127,0
1,76,127,0
1,77,127,0
1,76,127,0
1,69,127,0
1,50,127,0
1,45,127,0
1,50,127,0
1,74,127,120
1,50,127,0
1,69,127,0
1,74,127,0
1,69,127,0
1,76,127,0
1,69,127,0
1,76,127,0
1,69,127,0
1,45,127,0
1,77,127,0
1,50,127,0
1,69,127,0
1,77,127,0
1,69,127,0
1,76,127,0
1,77,127,0
1,76,127,0
1,69,127,0
1,74,127,0
1,50,127,0
1,69,127,0
1,74,127,0
1,69,127,0
1,76,127,0
1,69,127,0
1,76,127,0
1,69,127,0
1,45,127,0
1,77,127,0
1,50,127,0
1,69,127,0
1,77,127,0
1,69,127,0
1,76,127,0
1,77,127,0
1,76,127,0
1,69,127,0
1,74,127,0
1,50,127,0
1,69,127,0
1,74,127,0
1,69,127,0
1,76,127,0
1,69,127,0
1,76,127,0
1,69,127,0
1,45,127,0
1,77,127,0
1,50,127,0
1,69,127,0
1,77,127,0
1,69,127,0
1,76,127,0
1,77,127,0
1,76,127,0
1,69,127,0
1,74,127,0
1,50,127,0
1,69,127,0
1,74,127,0
1,69,127,0
1,76,127,0
1,69,127,0
1,76,127,0
1,69,127,0
1,45,127,0
1,77,127,0
1,50,127,0
1,69,127,0
1,77,127,0
1,69,127,0
1,76,127,0
1,77,127,0
1,76,127,0
1,69,127,0
1,74,127,0
1,50,127,0
1,69,127,0
1,74,127,0
1,69,127,0
1,76,127,0
1,69,127,0
1,76,127,0
1,69,127,0
1,45,127,0
1,77,127,0
1,50,127,0
1,69,127,0
1,77,127,0
1,69,127,0
1,76,127,0
1,77,127,0
1,76,127,0
1,69,127,0
1,74,127,0
1,50,127,0
1,69,127,0
1,74,127,0
1,69,127,0
1,76,127,0
1,69,127,0
1,76,127,0
1,69,127,0
1,45,127,0
1,77,127,0
1,50,127,0
1,69,127,0
1,77,127,0
1,69,127,0
1,76,127,0
1,77,127,0
1,76,127,0
1,69,127,0
1,74,127,0
1,50,127,0
1,69,127,0
1,74,127,0
1,69,127,0
1,76,127,0
1,69,127,0
1,76,127,0
1,69,127,0
1,45,127,0
1,77,127,0
1,50,127,0
1,69,127,0
1,77,127,0
1,69,127,0
1,76,127,0
1,77,127,0
1,76,127,0
1,69,127,0
1,74,127,0
1,50,127,0
1,69,127,0
1,74,127,0
1,69,127,0
1,76,127,0
1,69,127,0
1,76,127,0
1,69,127,0
1,45,127,0
1,77,127,0
1,50,127,0
1,69,127,0
1,77,127,0
1,69,127,0
1,76,127,0
1,77,127,0
1,76,127,0
1,69,127,0
1,74,127,0
1,50,127,0
1,69,127,0
1,74,127,0
1,69,127,0
1,76,127,0
1,69,127,0
1,76,127,0
1,69,127,0
1,45,127,0
1,77,127,0
1,50,127,0
1,69,127,0
1,77,127,0
1,69,127,0
1,76,127,0
1,77,127,0
1,76,127,0
1,69,127,0
1,74,127,0
1,50,127,0
1,69,127,0
1,74,127,0
1,69,127,0
1,76,127,0
1,69,127,0
1,76,127,0
1,69,127,0
1,45,127,0
1,77,127,0
1,50,127,0
1,69,127,0
1,77,127,0
1,69,127,0
1,76,127,0
1,77,127,0
1,76,127,0
1,69,127,0
1,74,127,0
1,50,127,0
1,69,127,0
1,74,127,0
1,69,127,0
1,76,127,0
1,69,127,0
1,76,127,0
1,69,127,0
1,45,127,0
1,77,127,0
1,50,127,0
1,69,127,0
1,77,127,0
1,69,127,0
1,76,127,0
1,77,127,0
1,76,127,0
1,69,127,0
1,74,127,0
1,50,127,0
1,69,127,0
1,74,127,0
1,69,127,0
1,76,127,0
1,69,127,0
1,76,127,0
1,69,127,0
1,45,127,0
1,77,127,0
1,50,127,0
1,69,127,0
1,77,127,0
1,69,127,0
1,76,127,0
1,77,127,0
1,76,127,0
1,69,127,0
1,74,127,0
1,50,127,0
1,69,127,0
1,74,127,0
1,69,127,0
1,76,127,0
1,69,127,0
1,76,127,0
1,69,127,0
1,45,127,0
1,77,127,0
1,50,127,0
1,69,127,0
1,77,127,0
1,69,127,0
1,76,127,0
1,77,127,0
1,76,127,0
1,69,127,0
1,74,127,0
1,50,127,0
1,69,127,0
1,74,127,0
1,69,127,0
1,76,127,0
1,69,127,0
1,76,127,0
1,69,127,0
1,45,127,0
1,77,127,0
1,50,127,0
1,69,127,0
1,77,127,0
1,69,127,0
1,76,127,0
1,77,127,0
1,76,127,0
1,69,127,0
1,74,127,0
1,50,127,0
1,69,127,0
1,74,127,0
1,69,127,0
1,76,127,0
1,69,127,0
1,76,127,0
1,69,127,0
1,45,127,0
1,77,127,0
1,50,127,0
1,69,127,0
1,77,127,0
1,69,127,0
1,76,127,0
1,77,127,0
1,76,127,0
1,69,127,0
1,74,127,0
1,50,127,0
1,69,127,0
1,74,127,0
1,69,127,0
1,76,127,0
1,69,127,0
1,76,127,0
1,69,127,0
1,45,127,0
1,77,127,0
1,50,127,0
1,69,127,0
1,77,127,0
1,69,127,0
1,76,127,0
1,77,127,0
1,76,127,0
1,69,127,0
1,74,127,0
1,50,127,0
1,69,127,0
1,74,127,0
1,69,127,0
1,76,127,0
1,69,127,0
1,76,127,0
1,69,127,0
1,45,127,0
1,77,127,0
1,50,127,0
1,69,127,0
1,77,127,0
1,69,127,0
1,76,127,0
1,77,127,0
1,76,127,0
1,69,127,0
1,74,127,0
1,50,127,0
1,69,127,0
1,74,127,0
1,69,127,0
1,76,127,0
1,69,127,0
1,76,127,0
1,69,127,0
1,45,127,0
1,77,127,0
1,50,127,0
1,69,127,0
1,77,127,0
1,69,127,0
1,76,127,0
1,77,127,0
1,76,127,0
1,69,127,0
1,74,127,0
1,50,127,0
1,69,127,0
1,74,127,0
1,69,127,0
1,76,127,0
1,69,127,0
1,76,127,0
1,69,127,0
1,45,127,0
1,77,127,0
1,50,127,0
1,69,127,0
1,77,127,0
1,69,127,0
1,76,127,0
1,77,127,0
1,76,127,0
1,69,127,0
1,74,127,0
1,50,127,0
1,69,127,0
1,74,127,0
1,69,127,0
1,76,127,0
1,69,127,0
1,76,127,0
1,69,127,0
1,45,127,0
1,77,127,0
1,50,127,0
1,69,127,0
1,77,127,0
1,69,127,0
1,76,127,0
1,77,127,0
1,76,127,0
1,69,127,0
1,74,127,0
1,50,127,0
1,69,127,0
1,74,127,0
1,69,127,0
1,76,127,0
1,69,127,0
1,76,127,0
1,69,127,0
1,45,127,0
1,77,127,0
1,50,127,0
1,69,127,0
1,77,127,0
1,69,127,0
1,76,127,0
1,77,127,0
1,76,127,0
1,69,127,0
1,74,127,0
1,50,127,0
1,69,127,0
1,74,127,0
1,69,127,0
1,76,127,0
1,69,127,0
1,76,127,0
1,69,127,0
1,45,127,0
1,77,127,0
1,50,127,0
1,69,127,0
1,77,127,0
1,69,127,0
1,76,127,0
1,77,127,0
1,76,127,0
1,69,127,0
1,74,127,0
1,50,127,0
1,69,127,0
1,74,127,0
1,69,127,0
1,76,127,0
1,69,127,0
1,76,127,0
1,69,127,0
1,45,127,0
1,77,127,0
1,50,127,0
1,69,127,0
1,77,127,0
1,69,127,0
1,76,127,0
1,77,127,0
1,76,127,0
1,69,127,0
1,74,127,0
1,50,127,0
1,69,127,0
1,74,127,0
1,69,127,0
1,76,127,0
1,69,127,0
1,76,127,0
1,69,127,0
1,45,127,0
1,77,127,0
1,50,127,0
1,69,127,0
1,77,127,0
1,69,127,0
1,76,127,0
1,77,127,0
1,76,127,0
1,69,127,0
1,74,127,0
1,50,127,0
1,69,127,0
1,74,127,0
1,69,127,0
1,76,127,0
1,69,127,0
1,76,127,0
1,69,127,0
1,45,127,0
1,77,127,0
1,50,127,0
1,69,127,0
1,77,127,0
1,69,127,0
1,76,127,0
1,77,127,0
1,76,127,0
1,69,127,0
1,74,127,0
1,50,127,0
1,69,127,0
1,74,127,0
1,69,127,0
1,76,127,0
1,69,127,0
1,76,127,0
1,69,127,0
1,45,127,0
1,77,127,0
1,50,127,0
1,69,127,0
1,77,127,0
1,69,127,0
1,76,127,0
1,77,127,0
1,76,127,0
1,69,127,0
1,74,127,0
1,50,127,0
1,69,127,0
1,74,127,0
1,69,127,0
1,76,127,0
1,69,127,0
1,76,127,0
1,69,127,0
1,45,127,0
1,77,127,0
1,50,127,0
1,69,127,0
1,77,127,0
1,69,127,0
1,76,127,0
1,77,127,0
1,76,127,0
1,69,127,0
1,74,127,0
1,50,127,0
1,69,127,0
1,74,127,0
1,69,127,0
1,76,127,0
1,69,127,0
1,76,127,0
1,69,127,0
1,45,127,0
1,77,127,0
1,50,127,0
1,69,127,0
1,77,127,0
1,69,127,0
1,76,127,0
1,77,127,0
1,76,127,0
1,69,127,0
1,74,127,0
1,50,127,0
1,69,127,0
1,74,127,0
1,69,127,0
1,76,127,0
1,69,127,0
1,76,127,0
1,69,127,0
1,45,127,0
1,77,127,0
1,50,127,0
1,69,127,0
1,77,127,0
1,69,127,0
1,76,127,0
1,77,127,0
1,76,127,0
1,69,127,0
1,74,127,0
1,50,127,0
1,69,127,0
1,74,127,0
1,69,127,0
1,76,127,0
1,69,127,0
1,76,127,0
1,69,127,0
1,45,127,0
1,77,127,0
1,50,127,0
1,69,127,0
1,77,127,0
1,69,127,0
1,76,127,0
1,77,127,0
1,76,127,0
1,69,127,0
1,74,127,0
1,50,127,0
1,69,127,0
1,74,127,0
1,69,127,0
1,76,127,0
1,69,127,0
1,76,127,0
1,69,127,0
1,45,127,0
1,77,127,0
1,50,127,0
1,69,127,0
1,77,127,0
1,69,127,0
1,76,127,0
1,77,127,0
1,76,127,0
1,69,127,0
1,74,127,0
1,50,127,0
1,69,127,0
1,74,127,0
1,69,127,0
1,76,127,0
1,69,127,0
1,76,127,0
1,69,127,0
1,45,127,0
1,77,127,0
1,50,127,0
1,69,127,0
1,77,127,0
1,69,127,0
1,76,127,0
1,77,127,0
1,76,127,0
1,69,127,0
1,74,127,0
1,50,127,0
1,69,127,0
1,74,127,0
1,69,127,0
1,76,127,0
1,69,127,0
1,76,127,0
1,69,127,0
1,45,127,0
1,77,127,0
1,50,127,0
1,69,127,0
1,77,127,0
1,69,127,0
1,76,127,0
1,77,127,0
1,76,127,0
1,69,127,0
1,74,127,0
1,50,127,0
1,69,127,0
1,74,127,0
1,69,127,0
1,76,127,0
1,69,127,0
1,76,127,0
1,69,127,0
1,45,127,0
1,77,127,0
1,50,127,0
1,69,127,0
1,77,127,0
1,69,127,0
1,76,127,0
1,77,127,0
1,76,127,0
1,69,127,0
1,74,127,0
1,50,127,0
1,69,127,0
1,74,127,0
1,69,127,0
1,76,127,0
1,69,127,0
1,76,127,0
1,69,127,0
1,45,127,0
1,77,127,0
1,50,127,0
1,69,127,0
1,77,127,0
1,69,127,0
1,76,127,0
1,77,127,0
1,76,127,0
1,69,127,0
1,74,127,0
1,50,127,0
1,69,127,0
1,74,127,0
1,69,127,0
1,76,127,0
1,69,127,0
1,76,127,0
1,69,127,0
1,45,127,0
1,77,127,0
1,50,127,0
1,69,127,0
1,77,127,0
1,69,127,0
1,76,127,0
1,77,127,0
1,76,127,0
1,69,127,0
1,74,127,0
1,50,127,0
1,69,127,0
1,74,127,0
1,69,127,0
1,76,127,0
1,69,127,0
1,76,127,0
1,69,127,0
1,45,127,0
1,77,127,0
1,50,127,0
1,69,127,0
1,77,127,0
1,69,127,0
1,76,127,0
1,77,127,0
1,76,127,0
1,69,127,0
1,74,127,0
1,50,127,0
1,69,127,0
1,74,127,0
1,69,127,0
1,76,127,0
1,69,127,0
1,76,127,0
1,69,127,0
1,45,127,0
1,77,127,0
1,50,127,0
1,69,127,0
1,77,127,0
1,69,127,0
1,76,127,0
1,77,127,0
1,76,127,0
1,69,127,0
1,74,127,0
1,50,127,0
1,69,127,0
1,74,127,0
1,69,127,0
1,76,127,0
1,69,127,0
1,76,127,0
1,69,127,0
1,45,127,0
1,77,127,0
1,50,127,0
1,69,127,0
1,77,127,0
1,69,127,0
1,76,127,0
1,77,127,0
1,76,127,0
1,69,127,0
1,74,127,0
1,50,127,0
1,69,127,0
1,74,127,0
1,69,127,0
1,76,127,0
1,69,127,0
1,76,127,0
1,69,127,0
1,45,127,0
1,77,127,0
1,50,127,0
1,69,127,0
1,77,127,0
1,69,127,0
1,76,127,0
1,77,127,0
1,76,127,0
1,69,127,0
1,74,127,0
1,50,127,0
1,69,127,0
1,74,127,0
1,69,127,0
1,76,127,0
1,69,127,0
1,76,127,0
1,69,127,0
1,45,127,0
1,77,127,0
1,50,127,0
1,69,127,0
1,77,127,0
1,69,127,0
1,76,127,0
1,77,127,0
1,76,127,0
1,69,127,0
1,74,127,0
1,50,127,0
1,69,127,0
1,74,127,0
1,69,127,0
1,76,127,0
1,69,127,0
1,76,127,0
1,69,127,0
1,45,127,0
1,77,127,0
1,50,127,0
1,69,127,0
1,77,127,0
1,69,127,0
1,76,127,0
1,77,127,0
1,76,127,0
1,69,127,0
2,69,127,0
2,65,127,0
2,62,127,0
2,69,127,120
2,65,127,0
2,62,127,0
2,69,127,120
2,65,127,0
2,62,127,0
2,69,127,0
2,65,127,0
2,62,127,0
2,62,127,0
2,65,127,0
2,69,127,0
2,69,127,0
2,65,127,0
2,62,127,0
2,62,127,0
2,65,127,0
2,69,127,0
2,69,127,0
2,65,127,0
2,62,127,0
2,62,127,0
2,65,127,0
2,69,127,0
2,69,127,0
2,65,127,0
2,62,127,0
2,62,127,0
2,57,127,160
2,62,127,0
2,62,127,120
2,57,127,160
2,62,127,0
2,64,127,120
2,57,127,160
2,64,127,0
2,64,127,120
2,57,127,160
2,64,127,0
2,65,127,120
2,57,127,160
2,65,127,0
2,65,127,120
2,57,127,160
2,65,127,0
2,64,127,120
2,57,127,160
2,64,127,0
2,64,127,120
2,57,127,160
2,64,127,0
2,62,127,120
2,57,127,160
2,62,127,0
2,62,127,120
2,57,127,160
2,62,127,0
2,64,127,120
2,57,127,160
2,64,127,0
2,64,127,120
2,57,127,160
2,64,127,0
2,65,127,120
2,57,127,160
2,65,127,0
2,65,127,120
2,57,127,160
2,65,127,0
2,64,127,120
2,57,127,160
2,64,127,0
2,64,127,120
2,57,127,160
2,64,127,0
