track,note,velocity,time
1,34,106,382
1,36,114,10
1,36,114,64
1,36,110,1018
1,34,106,192
1,34,114,46
1,31,114,1042
1,32,96,16
1,32,106,116
1,29,106,1042
1,31,114,192
1,31,114,114
1,29,91,432
1,31,114,12
1,34,90,70
1,34,114,22
1,36,106,192
1,36,112,78
1,36,112,1022
1,34,94,6
1,34,111,62
1,31,114,994
1,32,89,192
1,32,112,66
1,32,114,644
1,31,41,96
1,30,36,74
1,29,114,26
1,31,114,192
1,34,114,1210
1,36,114,184
1,36,114,40
1,36,114,832
1,38,114,4
1,38,114,74
1,34,111,992
1,36,114,8
1,36,114,108
1,38,114,8
1,31,114,40
1,31,103,136
1,29,103,486
1,31,103,192
1,34,106,114
1,34,94,96
1,36,112,20
1,36,112,60
1,36,112,0
1,36,114,920
1,38,114,384
1,38,114,128
1,36,114,1028
1,35,46,56
1,34,36,48
1,33,18,26
1,32,114,30
1,29,94,768
1,29,91,90
1,31,106,6
1,31,103,82
1,29,96,408
1,31,114,192
1,34,111,184
1,34,114,118
1,36,114,190
1,36,114,76
1,36,114,818
1,38,114,384
1,38,103,120
1,34,106,1030
1,36,110,190
1,36,110,86
1,38,114,24
1,31,78,20
1,31,106,44
1,29,96,448
1,31,114,192
1,34,94,176
1,34,114,116
1,36,96,192
1,36,100,126
1,36,114,838
1,38,114,0
1,38,114,114
1,36,114,996
1,32,114,104
1,29,96,140
1,29,95,122
1,31,114,192
1,31,106,116
1,29,87,442
1,31,106,194
1,34,89,142
1,36,88,16
1,36,106,156
1,36,96,196
1,36,100,162
1,36,100,140
1,32,89,186
1,32,102,174
1,32,85,124
1,32,82,122
1,34,94,116
1,34,106,180
1,46,77,48
1,34,106,48
1,34,82,158
1,29,100,188
1,29,90,156
1,31,103,166
1,36,114,210
1,36,103,214
1,36,100,174
1,36,91,182
1,36,96,186
1,32,102,234
1,32,96,236
1,32,94,202
1,32,96,180
1,34,106,176
1,34,96,168
1,34,102,152
1,34,94,154
1,29,106,192
1,29,91,136
1,31,114,138
1,31,106,150
1,34,102,8
1,36,114,28
1,36,114,68
1,36,114,1010
1,34,96,192
1,34,102,120
1,31,106,1020
1,32,97,192
1,32,97,118
1,29,100,996
1,31,108,194
1,31,103,114
1,24,114,16
1,34,102,24
1,36,114,192
1,36,114,410
1,38,114,386
1,38,103,96
1,34,111,782
1,36,106,384
1,36,114,70
1,36,108,804
1,50,114,2
1,31,112,48
1,29,103,256
1,31,110,192
1,34,102,90
1,34,112,110
1,36,114,8
1,36,114,72
1,36,114,808
1,38,114,386
1,38,110,114
1,36,114,960
1,35,50,4
1,34,41,12
1,33,26,2
1,32,111,8
1,29,87,14
1,29,106,108
1,31,114,192
1,31,103,116
1,29,100,442
1,31,114,192
1,34,89,164
1,34,114,122
1,36,114,192
1,36,100,104
1,36,114,794
1,38,106,386
1,38,106,82
1,34,96,786
1,36,110,384
1,36,103,92
1,38,114,4
1,31,91,40
1,31,114,136
1,29,96,460
1,31,114,192
1,34,85,186
1,34,111,118
1,36,110,192
1,36,110,110
1,36,114,818
1,38,114,32
1,38,110,116
1,36,114,1002
1,32,114,576
1,31,114,762
1,31,114,138
1,31,114,76
1,36,92,950
1,36,91,138
1,36,91,132
1,36,91,142
1,32,100,156
1,32,91,158
1,32,91,142
1,32,91,122
1,34,91,150
1,34,91,150
1,34,91,160
1,34,95,146
1,29,95,152
1,29,95,148
1,31,95,130
1,36,95,142
1,36,104,176
1,36,95,162
1,36,95,176
1,36,95,166
1,32,95,190
1,32,91,160
1,32,91,144
1,32,91,168
1,34,91,162
1,34,91,174
1,46,77,48
1,34,91,46
1,34,91,186
1,29,91,150
1,29,91,158
1,31,91,172
1,36,87,20
1,36,102,150
1,36,102,150
1,36,102,150
1,36,97,166
1,32,97,152
1,32,97,146
1,32,97,132
1,32,97,168
1,34,97,152
1,34,97,172
1,34,97,154
1,34,97,154
1,29,97,156
1,29,97,140
1,31,97,176
1,36,97,8
1,36,97,160
1,36,97,136
1,36,97,160
1,36,97,148
1,32,97,182
1,32,97,158
1,32,97,160
1,32,97,174
1,34,89,178
1,34,97,170
1,46,77,48
1,34,97,46
1,34,97,158
1,29,97,160
1,29,97,150
1,31,97,152
1,31,91,26
1,36,106,2
1,36,100,110
1,34,94,80
1,34,85,112
1,32,102,112
1,32,102,82
1,31,87,1346
1,31,90,100
1,48,65,54
1,49,57,2
1,50,55,14
1,51,71,8
1,36,97,0
1,50,73,6
1,34,91,0
1,48,81,22
1,32,103,0
1,31,106,214
1,31,95,112
1,34,100,324
1,36,95,176
1,36,111,80
1,36,111,1010
1,34,100,8
1,34,100,94
1,31,111,972
1,32,91,192
1,32,95,124
1,29,106,984
1,31,95,192
1,31,97,114
1,29,95,456
1,31,95,190
1,34,86,182
1,34,95,126
1,36,97,4
1,36,106,62
1,36,91,996
1,34,91,192
1,34,95,102
1,31,106,994
1,32,86,190
1,32,100,108
1,31,114,794
1,29,106,338
1,31,111,204
1,34,100,196
1,36,106,552
1,36,111,184
1,36,95,176
1,36,103,156
1,32,91,184
1,32,86,172
1,32,95,136
1,32,91,154
1,34,91,140
1,34,95,162
1,34,70,4
1,46,87,56
1,34,95,22
1,34,86,156
1,29,85,166
1,29,72,172
1,31,85,148
1,36,88,22
1,36,106,20
1,36,85,192
1,36,85,172
1,36,97,158
1,32,86,166
1,32,82,170
1,32,82,166
1,32,68,166
1,34,75,164
1,34,86,170
1,34,68,174
1,34,75,168
1,29,78,166
1,29,82,150
1,31,79,178
1,36,91,54
1,36,88,56
1,36,97,196
1,36,72,200
1,36,85,172
1,32,76,168
1,32,91,192
1,32,83,160
1,32,83,186
1,34,79,156
1,34,87,196
1,34,70,20
1,46,70,62
1,34,79,16
1,34,86,192
1,29,75,160
1,29,79,198
1,31,79,192
1,31,70,42
1,36,79,128
1,36,95,238
1,36,85,148
1,36,75,188
1,36,85,202
1,32,86,192
1,32,78,218
1,32,73,204
1,32,78,180
1,34,78,192
1,34,82,200
1,34,86,180
1,34,73,182
1,29,79,172
1,29,78,186
1,31,88,188
1,36,88,176
1,36,83,244
1,36,83,150
1,36,83,381
1,36,83,156
1,32,83,180
1,32,91,140
1,32,86,188
1,32,91,184
1,34,86,154
1,34,91,184
1,34,86,170
1,34,91,172
1,29,85,170
1,29,91,170
1,31,95,158
1,36,103,24
1,48,111,8
1,46,79,14
1,43,103,20
1,41,79,190
1,39,97,28
1,36,79,192
1,32,91,8
1,32,91,168
1,32,86,148
1,32,75,170
1,34,87,168
1,34,83,190
1,34,73,46
1,46,110,36
1,34,83,4
1,34,91,120
1,29,87,208
1,29,87,168
1,31,97,158
1,36,95,170
1,24,105,70
1,26,105,386
1,27,105,58
1,32,87,32
1,32,91,180
1,32,91,170
1,32,86,162
1,32,91,138
1,34,95,196
1,34,91,184
1,34,95,172
1,34,91,182
1,29,91,162
1,29,82,148
1,31,78,162
1,36,103,386
1,36,88,206
1,36,85,170
1,36,75,164
1,36,79,156
1,32,86,192
1,32,78,158
1,32,91,184
1,32,75,160
1,34,86,176
1,34,86,146
1,34,60,188
1,34,91,68
1,34,82,162
1,29,75,170
1,29,75,166
1,31,78,182
1,36,95,384
1,36,91,198
1,36,91,164
1,36,111,180
1,36,106,176
1,32,78,216
1,32,91,166
1,32,86,178
1,32,86,194
1,34,78,182
1,34,86,172
1,34,91,166
1,34,82,168
1,29,82,170
1,29,95,154
1,31,82,174
1,36,103,386
1,36,88,204
1,36,72,158
1,36,106,180
1,36,103,180
1,32,82,180
1,32,91,172
1,32,86,172
1,32,86,166
1,34,86,182
1,34,91,174
1,34,82,172
1,34,82,178
1,29,91,182
1,29,88,176
1,31,91,172
1,36,106,384
1,36,88,164
1,36,78,136
1,36,95,146
1,36,82,126
1,32,75,168
1,32,78,168
1,32,68,150
1,32,66,140
1,34,75,152
1,34,75,166
1,34,78,152
1,34,73,180
1,29,72,174
1,29,73,164
1,31,85,180
1,36,95,384
1,36,88,154
1,36,70,152
1,36,79,170
1,36,88,170
1,32,82,184
1,32,75,170
1,32,58,152
1,32,78,168
1,34,75,178
1,34,73,172
1,34,73,176
1,34,78,200
1,31,78,14
1,34,95,0
1,36,97,238
1,39,100,260
2,55,109,1718
2,55,110,104
2,60,103,270
2,58,109,376
2,53,87,1972
2,55,107,200
2,60,110,244
2,58,94,2
2,55,95,1996
2,55,98,130
2,60,107,232
2,58,94,20
2,53,87,1948
2,55,110,196
2,60,107,252
2,58,94,392
2,53,72,226
2,55,72,202
2,60,107,42
2,60,127,22
2,63,91,168
2,65,127,174
2,67,127,80
2,60,123,218
2,56,91,60
2,58,94,28
2,60,118,82
2,63,108,194
2,65,127,234
2,67,127,206
2,58,103,602
2,60,118,192
2,63,99,236
2,62,95,16
2,58,91,1904
2,60,110,192
2,63,91,230
2,62,82,26
2,60,87,988
2,63,91,102
2,62,86,184
2,60,72,160
2,59,45,330
2,57,41,22
2,55,31,24
2,67,100,150
2,65,87,316
2,63,80,282
2,60,72,592
2,63,69,560
2,63,72,126
2,62,72,560
2,72,79,320
2,75,86,586
2,79,103,738
2,70,94,194
2,60,107,42
2,60,127,22
2,63,91,168
2,65,109,174
2,67,114,80
2,60,123,218
2,56,91,60
2,58,94,28
2,60,127,84
2,63,91,168
2,65,127,174
2,67,127,80
2,60,127,66
2,60,127,22
2,63,91,168
2,65,127,174
2,67,127,80
2,60,123,218
2,56,91,60
2,58,94,28
2,60,91,84
2,63,91,168
2,65,82,174
2,67,118,80
2,70,123,18
2,72,123,192
2,63,114,194
2,63,118,440
2,63,118,2096
2,63,114,482
2,63,108,2060
2,63,108,472
2,63,118,2076
2,63,118,470
3,60,86,1720
3,60,110,108
3,63,94,264
3,62,95,0
3,58,77,1988
3,60,115,212
3,63,94,246
3,62,103,2
3,60,109,1978
3,60,110,82
3,63,100,242
3,62,107,12
3,58,80,1964
3,60,118,200
3,63,86,288
3,62,100,6
3,60,91,206
3,62,91,194
3,55,110,200
3,55,107,110
3,58,114,188
3,60,123,226
3,63,118,232
3,60,103,182
3,67,103,32
3,70,114,42
3,67,103,268
3,70,99,206
3,72,115,232
3,75,114,284
3,72,87,196
3,53,80,388
3,55,103,66
3,60,103,228
3,58,80,74
3,53,77,1878
3,55,94,180
3,60,100,256
3,58,77,6
3,65,110,26
3,67,72,76
3,70,72,76
3,70,72,140
3,72,72,84
3,75,72,60
3,75,72,144
3,77,82,118
3,78,82,190
3,79,82,2
3,77,36,306
3,76,31,24
3,74,27,22
3,72,18,20
3,71,9,2
3,67,94,184
3,65,80,320
3,63,74,300
3,60,54,580
3,59,50,2090
3,72,94,334
3,68,77,548
3,67,72,2
3,58,95,236
3,55,110,200
3,55,107,362
3,58,114,188
3,60,123,226
3,63,118,232
3,60,103,182
3,67,103,32
3,70,114,4
3,55,86,408
3,58,86,188
3,60,86,226
3,63,86,232
3,67,110,184
3,55,104,110
3,58,104,188
3,60,104,226
3,63,104,232
3,60,91,184
3,67,103,32
3,70,95,20
3,55,107,54
3,58,114,188
3,60,123,226
3,51,118,232
3,53,118,190
3,55,118,42
3,54,54,240
3,53,50,2
3,52,45,6
3,51,41,24
3,60,110,204
3,60,115,470
3,60,115,2042
3,60,110,450
3,60,110,2056
3,60,103,446
3,60,110,2016
3,60,107,504
3,48,127,66
3,51,94,310
3,53,103,8
3,55,92,104
3,58,118,126
3,55,76,2
3,48,98,8
3,53,123,6
3,53,123,262
3,55,107,186
3,58,118,258
3,60,127,224
3,48,127,30
3,51,86,330
3,53,107,22
3,55,107,90
3,58,118,120
3,55,115,34
3,48,110,6
3,53,127,4
3,53,115,232
3,55,86,204
3,58,118,262
3,60,127,216
3,48,118,86
3,51,77,2
3,53,118,10
3,55,103,98
3,58,118,130
3,55,107,162
3,51,108,128
3,48,127,4
3,53,107,310
3,53,118,296
3,55,107,200
3,58,118,242
3,60,100,302
3,48,118,76
3,51,94,356
3,53,90,16
3,55,92,74
3,58,118,118
3,55,103,184
3,51,114,118
3,48,103,12
3,53,115,372
3,55,123,6
3,58,114,272
3,60,118,286
3,48,118,158
3,51,94,356
3,53,90,16
3,55,92,74
3,58,118,118
3,55,103,184
3,51,114,118
3,48,103,12
3,53,115,380
3,55,123,6
3,58,114,272
3,60,118,286
3,48,118,158
3,51,94,356
3,53,90,48
3,55,92,40
3,58,118,166
3,55,103,184
3,51,114,118
3,48,103,12
3,53,115,372
3,55,123,6
3,58,114,272
3,60,118,286
4,60,87,39928
4,60,83,174
4,63,91,202
4,65,110,230
4,67,127,226
4,60,115,180
4,64,62,1604
4,65,71,32
4,66,87,2
4,67,109,2
4,65,123,8
4,67,114,354
4,70,114,182
4,72,127,236
4,75,125,214
4,72,127,166
4,71,63,372
4,69,59,46
4,67,45,48
4,65,36,30
4,64,31,32
4,62,22,32
4,60,100,108
4,63,109,4
4,65,109,18
4,65,114,154
4,67,114,18
4,70,114,90
4,75,127,16
4,77,127,66
4,78,127,18
4,79,127,198
4,72,71,16
4,75,91,562
4,79,110,4
4,79,127,152
4,60,87,8
4,60,83,374
4,63,91,202
4,65,110,230
4,67,127,226
4,60,115,180
4,67,109,38
4,65,123,8
4,60,83,342
4,63,91,202
4,65,110,230
4,67,127,226
4,60,87,16
4,70,118,8
4,60,83,332
4,63,91,202
4,65,110,230
4,67,127,282
4,60,115,152
4,67,109,46
4,65,123,8
4,60,100,342
4,63,109,202
4,65,123,230
4,67,127,298
4,70,127,192
4,72,127,176
4,71,86,310
4,70,82,6
4,69,68,6
4,68,59,6
4,67,50,24
4,65,127,222
4,65,127,30
4,65,127,462
4,70,118,18
4,74,127,54
4,70,118,4
4,74,118,170
4,79,118,2
4,70,127,224
4,74,127,0
4,77,114,254
4,79,114,300
4,82,114,326
4,60,127,52
4,67,127,84
4,70,108,82
4,72,127,26
4,75,125,126
4,72,94,198
4,77,127,96
4,72,127,12
4,78,123,1716
4,79,123,2
4,77,127,10
4,72,127,98
4,75,118,190
4,77,127,298
4,79,127,254
4,60,127,22
4,67,127,352
4,70,114,92
4,72,127,18
4,75,125,144
4,72,90,182
4,77,127,86
4,72,123,6
4,78,91,1720
4,79,118,4
4,77,127,1516
4,72,118,270
4,75,103,192
4,77,127,284
4,79,127,224
4,60,127,6
4,67,123,430
4,70,118,18
4,72,123,30
4,75,118,146
4,72,104,4
4,77,118,94
4,72,127,12
4,78,108,1720
4,79,123,4
4,77,118,1484
4,72,103,64
4,75,118,56
4,77,127,268
4,79,127,308
4,60,127,70
4,67,127,360
4,70,114,10
4,72,123,16
4,75,125,130
4,72,103,2
4,77,127,104
4,72,127,180
4,78,49,8
4,79,127,2
4,77,127,6
4,72,127,334
4,75,114,198
4,77,127,260
4,79,127,316
4,60,127,40
4,67,127,360
4,70,114,10
4,72,123,16
4,75,125,130
4,72,103,2
4,77,127,104
4,72,127,180
4,79,127,10
4,77,127,6
4,72,127,334
4,75,114,198
4,77,127,260
4,79,127,316
4,60,127,80
4,67,127,360
4,70,114,26
4,72,123,48
4,75,125,146
4,72,103,2
4,77,127,104
4,72,127,180
4,78,49,8
4,79,127,2
4,77,127,6
4,72,127,334
4,75,114,198
4,77,127,260
4,79,127,316
5,72,94,1606
5,79,110,1734
5,77,107,1498
5,67,114,274
5,70,118,198
5,72,118,246
5,75,125,206
5,84,127,4
5,60,118,100
5,63,109,18
5,65,109,0
5,65,114,144
5,67,109,12
5,70,109,14
5,67,118,142
5,70,118,64
5,71,118,194
5,72,118,174
5,72,98,8
5,68,86,548
5,67,109,4
5,67,127,28
5,72,94,1606
5,79,110,1734
5,77,107,1498
5,72,127,22
5,72,94,1718
5,72,94,0
5,72,94,0
5,79,110,4
5,79,110,0
5,77,107,0
5,55,98,402
5,58,108,10
5,60,127,272
5,63,108,212
5,65,118,206
5,67,110,16
5,60,127,390
5,60,127,46
5,60,127,142
5,65,127,6
5,60,127,340
5,60,127,12
5,67,127,370
5,65,127,196
5,67,127,286
5,70,127,300
5,67,127,30
5,63,91,314
5,65,110,10
5,67,94,88
5,70,125,122
