track,note,velocity,time
1,51,62,62576
1,61,75,0
1,63,86,0
1,68,75,0
1,61,75,260
1,63,75,0
1,68,80,0
1,51,58,200
1,61,75,0
1,63,75,0
1,68,75,0
1,61,91,124
1,63,91,0
1,68,91,0
1,56,71,288
1,63,55,0
1,66,91,0
1,68,91,0
1,73,91,0
1,56,46,72
1,63,43,0
1,66,75,0
1,68,80,0
1,73,71,0
1,73,16,76
1,56,17,464
1,63,36,0
1,66,86,0
1,68,91,0
1,73,86,0
1,56,66,248
1,63,71,0
1,65,91,0
1,68,91,0
1,73,98,0
1,51,62,272
1,61,91,0
1,63,98,0
1,68,98,0
1,61,34,280
1,51,62,36
1,51,36,604
1,61,75,0
1,63,71,0
1,68,75,0
1,61,34,56
1,63,22,0
1,68,12,0
1,56,75,84
1,66,80,0
1,68,75,0
1,73,86,0
1,66,86,96
1,68,91,0
1,73,98,0
1,56,28,92
1,66,91,44
1,68,98,0
1,73,98,0
1,44,40,20
1,56,55,144
1,66,86,72
1,68,91,0
1,73,98,0
1,56,75,0
1,66,98,192
1,68,91,0
1,73,98,0
1,56,75,128
1,51,58,136
1,61,98,0
1,63,86,0
1,68,104,0
1,51,48,136
1,61,86,0
1,66,86,0
1,63,75,256
1,51,40,620
1,61,80,128
1,56,75,36
1,66,91,384
1,68,104,0
1,70,12,0
1,73,86,0
1,44,71,32
1,66,75,0
1,68,75,0
1,70,66,0
1,73,71,0
1,66,91,8
1,66,80,64
1,70,71,0
1,66,71,28
1,70,62,0
1,56,91,52
1,66,91,76
1,70,91,0
1,56,91,136
2,32,48,14936
2,32,39,112
2,32,60,108
2,32,60,112
2,32,53,104
2,32,57,112
2,32,71,116
2,32,60,116
2,32,67,64
2,32,63,52
2,32,76,124
2,32,63,100
2,32,91,116
2,32,67,128
2,30,48,68
2,32,116,20
2,30,71,128
2,27,96,8
2,27,80,560
2,27,70,296
2,25,80,32
2,27,60,28
2,27,80,592
2,27,37,112
2,27,85,44
2,27,76,72
2,30,76,192
2,32,103,0
2,32,85,564
2,32,55,672
2,32,80,44
2,32,67,584
2,32,80,188
2,32,91,84
2,30,71,0
2,27,91,72
2,27,17,268
2,27,96,212
2,27,71,96
2,27,96,28
2,25,67,416
2,27,71,64
2,27,91,528
2,27,60,132
2,25,96,64
2,27,76,48
2,25,91,28
2,32,103,80
2,32,85,564
2,32,85,160
2,32,55,416
2,32,80,44
2,32,67,584
2,32,80,188
2,32,91,84
2,30,71,0
2,27,91,72
2,27,17,268
2,27,96,212
2,27,71,96
2,27,96,28
2,25,67,416
2,27,71,64
2,27,91,112
2,27,60,132
2,25,96,64
2,27,76,48
2,25,91,28
2,35,103,80
2,35,96,84
2,35,91,204
2,35,80,68
2,35,48,144
2,30,109,40
2,35,51,192
2,35,80,104
2,30,96,36
2,35,85,32
2,35,85,104
2,35,85,188
2,35,76,72
2,35,51,136
2,30,96,28
2,35,116,192
2,35,76,56
2,30,91,0
2,27,96,72
2,39,103,28
2,25,76,208
2,39,45,128
2,34,80,108
2,25,80,28
2,34,96,192
2,37,96,64
2,27,91,256
2,39,91,96
2,39,109,144
2,39,80,148
2,25,91,16
2,34,53,4
2,37,80,160
2,27,96,8
2,39,96,192
2,37,80,0
2,34,96,64
2,35,96,8
2,47,103,32
2,47,103,144
2,35,71,0
2,47,39,32
2,30,41,44
2,42,80,80
2,30,96,48
2,42,96,36
2,42,76,88
2,34,91,32
2,35,76,0
2,47,96,128
2,47,103,132
2,47,80,140
2,35,91,28
2,42,96,128
2,42,60,156
2,30,91,44
2,42,96,4
2,34,109,16
2,35,91,76
2,27,96,64
2,39,109,44
2,39,71,144
2,25,76,20
2,37,80,128
2,25,76,204
2,37,96,144
2,25,51,64
2,39,57,0
2,32,91,24
2,44,60,128
2,44,103,124
2,44,71,148
2,30,76,20
2,39,96,128
2,42,85,136
2,30,80,20
2,44,103,192
2,32,96,96
2,29,96,244
2,41,80,36
2,29,76,224
2,41,85,128
2,41,60,104
2,29,91,40
2,41,103,192
2,41,63,60
2,29,63,24
2,39,63,128
2,27,80,44
2,39,96,128
2,39,103,4
2,27,48,216
2,39,103,128
2,39,71,80
2,27,76,28
2,39,103,192
2,30,109,12
2,30,76,12
2,42,103,72
2,30,76,212
2,42,91,128
2,42,21,96
2,30,80,44
2,42,103,192
2,42,33,68
2,30,76,32
2,42,76,128
2,32,85,16
2,44,80,128
2,44,103,8
2,44,48,76
2,32,96,28
2,44,96,20
2,44,60,124
2,32,103,28
2,44,103,192
2,30,96,8
2,29,85,12
2,41,91,128
2,41,109,148
2,29,80,140
2,41,96,128
2,41,39,132
2,29,85,48
2,41,103,192
2,29,63,120
2,39,48,128
2,27,80,32
2,39,96,128
2,39,80,140
2,27,91,216
2,39,96,128
2,27,85,112
2,39,103,192
2,39,17,80
2,27,48,36
2,39,67,24
2,30,96,28
2,42,103,128
2,42,103,160
2,30,76,208
2,42,96,128
2,42,48,120
2,30,96,48
2,42,96,192
2,42,48,60
2,30,80,8
2,42,91,128
2,32,96,8
2,44,96,128
2,44,96,116
2,44,32,144
2,32,85,44
2,44,96,128
2,32,96,172
2,44,103,192
2,32,96,44
2,32,96,96
2,44,96,128
2,44,96,116
2,44,32,144
2,32,85,44
2,44,96,128
2,32,96,172
2,44,103,192
2,32,96,44
2,27,96,96
2,27,80,560
2,27,70,104
2,27,70,96
2,25,80,32
2,27,103,28
2,39,82,624
2,39,100,68
2,37,80,48
2,34,87,24
2,39,103,28
2,32,103,284
2,32,85,564
2,32,55,672
2,32,80,44
2,32,67,584
2,32,80,188
2,32,91,84
2,30,71,0
2,27,91,72
2,27,17,268
2,27,96,212
2,27,71,96
2,27,96,28
2,25,67,416
2,27,71,64
2,27,91,528
2,27,60,132
2,25,96,64
2,27,76,48
2,25,91,28
2,32,103,80
2,32,85,564
2,32,85,160
2,32,55,416
2,32,80,44
2,32,67,584
2,32,67,4
2,32,80,124
2,27,91,148
2,27,17,136
2,27,96,212
2,27,71,96
2,27,96,28
2,25,67,416
2,27,71,64
2,27,91,528
2,27,60,132
2,25,96,20
2,27,76,48
2,25,91,28
2,32,103,80
2,32,85,564
2,32,85,160
2,32,55,416
2,32,80,44
2,32,67,584
2,32,80,188
2,32,91,84
2,30,71,0
2,27,91,256
2,27,17,136
2,27,96,212
2,27,71,96
2,27,96,28
2,25,67,416
2,27,71,64
2,27,91,528
2,27,60,132
2,25,96,20
2,27,76,48
2,25,91,28
2,35,103,80
2,35,96,84
2,35,91,204
2,35,80,68
2,35,48,144
2,30,109,40
2,35,51,192
2,35,80,104
2,30,96,36
2,35,85,32
2,35,85,104
2,35,85,188
2,35,76,72
2,35,51,136
2,30,96,28
2,35,116,192
2,35,76,56
2,30,91,0
2,27,96,72
2,39,103,28
2,25,76,208
2,39,45,128
2,34,80,108
2,25,80,28
2,34,96,192
2,37,96,64
2,27,91,256
2,39,91,96
2,39,109,144
2,39,80,148
2,25,91,16
2,34,53,4
2,37,80,160
2,27,96,8
2,39,96,192
2,37,80,0
2,34,96,64
2,35,96,8
2,47,103,32
2,47,103,144
2,35,71,0
2,47,39,32
2,30,41,44
2,42,80,80
2,30,96,48
2,42,96,36
2,42,76,88
2,34,91,32
2,35,76,0
2,47,96,128
2,47,103,132
2,47,80,140
2,35,91,28
2,42,96,128
2,42,60,156
2,30,91,44
2,42,96,4
2,34,109,16
2,35,91,76
2,27,96,64
2,39,109,44
2,39,71,144
2,25,76,20
2,37,80,128
2,25,76,204
2,37,96,144
2,25,51,64
2,39,57,0
2,32,91,24
2,44,60,128
2,44,103,124
2,44,71,148
2,30,76,20
2,39,96,128
2,42,85,136
2,30,80,20
2,44,103,192
2,32,96,96
2,29,96,244
2,41,80,36
2,29,76,224
2,41,85,128
2,41,60,104
2,29,91,40
2,41,103,192
2,41,63,60
2,29,63,24
2,39,63,128
2,27,80,44
2,39,96,128
2,39,103,4
2,27,48,216
2,39,103,128
2,39,71,80
2,27,76,28
2,39,103,192
2,30,109,12
2,30,76,12
2,42,103,72
2,30,76,212
2,42,91,128
2,42,21,96
2,30,80,44
2,42,103,192
2,42,33,68
2,30,76,32
2,42,76,128
2,32,85,16
2,44,80,128
2,44,103,8
2,44,48,76
2,32,96,28
2,44,96,20
2,44,60,124
2,32,103,28
2,44,103,192
2,30,96,8
2,29,85,12
2,41,91,128
2,41,109,148
2,29,80,140
2,41,96,128
2,41,39,132
2,29,85,48
2,41,103,192
2,29,63,120
2,39,48,128
2,27,80,32
2,39,96,128
2,39,80,140
2,27,91,216
2,39,96,128
2,27,85,112
2,39,103,192
2,39,17,80
2,27,48,36
2,39,67,24
2,30,96,28
2,42,103,128
2,42,103,160
2,30,76,208
2,42,96,128
2,42,48,120
2,30,96,48
2,42,96,192
2,42,48,60
2,30,80,8
2,42,91,128
2,32,96,8
2,44,96,128
2,44,96,116
2,44,32,144
2,32,85,44
2,44,96,128
2,32,96,172
2,44,103,192
2,32,96,44
2,29,96,96
2,41,80,36
2,29,76,224
2,41,85,128
2,41,60,104
2,29,91,40
2,41,103,192
2,41,63,60
2,29,63,24
2,39,63,128
2,27,80,44
2,39,96,128
2,39,103,4
2,27,48,216
2,39,103,128
2,39,71,80
2,27,76,28
2,39,103,192
2,30,109,12
2,30,76,12
2,42,103,72
2,30,76,212
2,42,91,128
2,42,21,96
2,30,80,44
2,42,103,192
2,42,33,68
2,30,76,32
2,42,76,128
2,32,85,16
2,44,80,128
2,44,103,8
2,44,48,76
2,32,96,28
2,44,96,20
2,44,60,124
2,32,103,28
2,44,103,192
2,30,96,8
2,29,85,12
2,41,91,128
2,41,109,148
2,29,80,140
2,41,96,128
2,41,39,132
2,29,85,48
2,41,103,192
2,29,63,120
2,39,48,128
2,27,80,32
2,39,96,128
2,39,80,140
2,27,91,216
2,39,96,128
2,27,85,112
2,39,103,192
2,39,17,80
2,27,48,36
2,39,67,24
2,30,96,28
2,42,103,128
2,42,103,160
2,30,76,208
2,42,96,128
2,42,48,120
2,30,96,48
2,42,96,192
2,42,48,60
2,30,80,8
2,42,91,128
2,32,96,8
2,44,96,128
2,44,96,116
2,44,32,144
2,32,85,44
2,44,96,128
2,32,96,172
2,44,103,192
2,32,96,44
2,32,96,96
2,44,96,128
2,44,96,116
2,44,32,144
2,32,85,44
2,44,96,128
2,32,96,172
2,44,103,192
2,32,96,44
2,27,103,96
2,29,96,12132
2,41,80,36
2,29,76,224
2,41,85,128
2,41,60,104
2,29,91,40
2,41,103,192
2,41,63,60
2,29,63,24
2,39,63,128
2,27,80,44
2,39,96,128
2,39,103,4
2,27,48,216
2,39,103,128
2,39,71,80
2,27,76,28
2,39,103,192
2,30,109,12
2,30,76,12
2,42,103,72
2,30,76,212
2,42,91,128
2,42,21,96
2,30,80,44
2,42,103,192
2,42,33,68
2,30,76,32
2,42,76,128
2,32,85,16
2,44,80,128
2,44,103,8
2,44,48,76
2,32,96,28
2,44,96,20
2,44,60,124
2,32,103,28
2,44,103,192
2,30,96,8
2,29,85,12
2,41,91,128
2,41,109,148
2,29,80,140
2,41,96,128
2,41,39,132
2,29,85,48
2,41,103,192
2,29,63,120
2,39,48,128
2,27,80,32
2,39,96,128
2,39,80,140
2,27,91,216
2,39,96,128
2,27,85,112
2,39,103,192
2,39,17,80
2,27,48,36
2,39,67,24
2,30,96,28
2,42,103,128
2,42,103,160
2,30,76,208
2,42,96,128
2,42,48,120
2,30,96,48
2,42,96,192
2,42,48,60
2,30,80,8
2,42,91,128
2,32,96,8
2,44,96,128
2,44,96,116
2,44,32,144
2,32,85,44
2,44,96,128
2,32,96,172
2,44,103,192
2,32,96,44
2,29,96,96
2,41,80,36
2,29,76,224
2,41,85,128
2,41,60,104
2,29,91,40
2,41,103,192
2,41,63,60
2,29,63,24
2,39,63,128
2,27,80,44
2,39,96,128
2,39,103,4
2,27,48,216
2,39,103,128
2,39,71,80
2,27,76,28
2,39,103,192
2,30,109,12
2,30,76,12
2,42,103,72
2,30,76,212
2,42,91,128
2,42,21,96
2,30,80,44
2,42,103,192
2,42,33,68
2,30,76,32
2,42,76,128
2,32,85,16
2,44,80,128
2,44,103,8
2,44,48,76
2,32,96,28
2,44,96,20
2,44,60,124
2,32,103,28
2,44,103,192
2,30,96,8
2,29,85,12
2,41,91,128
2,41,109,148
2,29,80,140
2,41,96,128
2,41,39,132
2,29,85,48
2,41,103,192
2,29,63,120
2,39,48,128
2,27,80,32
2,39,96,128
2,39,80,140
2,27,91,216
2,39,96,128
2,27,85,112
2,39,103,192
2,39,17,80
2,27,48,36
2,39,67,24
2,30,96,28
2,42,103,128
2,42,103,160
2,30,76,208
2,42,96,128
2,42,48,120
2,30,96,48
2,42,96,192
2,42,48,60
2,30,80,8
2,42,91,128
2,32,96,8
2,44,96,128
2,44,96,116
2,44,32,144
2,32,85,44
2,44,96,128
2,32,96,172
2,44,103,192
2,32,96,44
2,32,96,96
2,44,96,128
2,44,96,116
2,44,32,144
2,32,85,44
2,44,96,128
2,32,96,172
2,44,103,192
2,32,96,44
2,27,103,96
3,41,58,20
3,53,46,0
3,61,55,0
3,63,66,0
3,68,71,0
3,43,66,540
3,55,46,0
3,63,62,0
3,65,71,0
3,70,71,0
3,42,62,440
3,54,66,0
3,63,62,0
3,65,75,0
3,70,71,0
3,44,58,560
3,56,52,0
3,61,58,0
3,63,58,0
3,68,66,0
3,41,75,600
3,53,71,0
3,61,66,0
3,63,71,0
3,68,71,0
3,43,66,564
3,55,46,0
3,63,66,0
3,65,75,0
3,70,71,0
3,42,58,364
3,54,55,0
3,63,52,0
3,65,71,0
3,70,71,0
3,44,66,536
3,56,62,0
3,63,58,0
3,66,66,0
3,68,55,0
3,73,71,0
3,59,86,15360
3,61,86,0
3,66,86,0
3,59,80,76
3,61,75,0
3,65,86,0
3,59,75,104
3,61,71,0
3,63,66,0
3,59,75,12
3,61,71,0
3,65,86,0
3,61,75,432
3,63,75,0
3,68,80,0
3,73,75,984
3,75,75,0
3,80,80,0
3,59,91,4
3,61,91,0
3,66,91,0
3,59,75,156
3,61,75,0
3,65,80,0
3,59,86,8
3,61,91,0
3,63,86,0
3,59,80,24
3,61,75,0
3,65,80,0
3,61,86,456
3,63,86,0
3,68,80,0
3,63,75,1692
3,68,75,4
3,61,71,0
3,53,66,4
3,53,62,4
3,61,66,0
3,63,75,0
3,68,80,0
3,51,75,4
3,63,62,0
3,65,75,0
3,70,75,0
3,54,75,320
3,63,86,0
3,68,71,0
3,70,75,0
3,56,91,184
3,63,55,0
3,66,75,0
3,68,75,0
3,53,75,8
3,61,71,0
3,63,75,0
3,68,80,0
3,51,75,348
3,63,62,0
3,65,80,0
3,70,80,0
3,56,75,12
3,61,71,0
3,66,80,0
3,68,71,0
3,68,6,180
3,44,71,56
3,63,75,0
3,66,75,0
3,68,58,0
3,73,86,0
3,75,46,428
3,78,98,0
3,85,91,0
3,63,98,7748
3,65,75,384
3,66,98,332
3,73,80,352
3,68,75,372
3,59,86,10900
3,61,86,0
3,66,86,0
3,59,80,76
3,61,75,0
3,65,86,0
3,59,75,104
3,61,71,0
3,63,66,0
3,59,75,12
3,61,71,0
3,65,86,0
3,61,75,432
3,63,75,0
3,68,80,0
3,73,75,984
3,75,75,0
3,80,80,0
3,59,91,4
3,61,91,0
3,66,91,0
3,59,75,156
3,61,75,0
3,65,80,0
3,59,86,8
3,61,91,0
3,63,86,0
3,59,80,24
3,61,75,0
3,65,80,0
3,61,86,456
3,63,86,0
3,68,80,0
3,53,62,1716
3,61,66,0
3,63,75,0
3,68,80,0
3,51,75,240
3,63,62,0
3,65,75,0
3,70,75,0
3,54,75,320
3,63,86,0
3,68,71,0
3,70,75,0
3,56,91,184
3,63,55,0
3,66,75,0
3,68,75,0
3,53,75,8
3,61,71,0
3,63,75,0
3,68,80,0
3,51,75,348
3,63,62,0
3,65,80,0
3,70,80,0
3,56,75,12
3,61,71,0
3,66,80,0
3,68,71,0
3,68,6,180
