track,note,velocity,time
0,76,113,896
0,81,113,0
0,76,102,0
0,81,100,0
0,88,107,0
0,93,111,0
0,33,101,212
0,33,97,0
0,33,100,28
0,33,100,32
0,33,103,0
0,33,104,0
0,33,98,40
0,33,98,32
0,33,96,32
0,33,97,0
0,33,100,0
0,33,93,32
0,33,97,32
0,33,96,0
0,33,103,0
0,33,100,20
0,33,98,32
0,60,84,0
0,60,34,0
0,33,96,0
0,57,64,0
0,57,34,0
0,33,97,0
0,33,96,64
0,33,101,20
0,33,101,20
0,33,95,0
0,33,95,0
0,33,101,20
0,33,90,32
0,33,103,0
0,33,90,0
0,33,99,32
0,33,99,32
0,33,102,0
0,33,94,0
0,33,103,32
0,33,91,32
0,33,98,32
0,33,100,0
0,33,101,0
0,33,101,32
0,33,90,24
0,33,92,0
0,33,100,0
0,33,95,32
0,33,96,32
0,33,93,0
0,33,103,0
0,65,123,0
0,65,99,32
0,65,74,32
0,65,49,36
0,33,90,32
0,65,49,0
0,65,73,32
0,65,98,32
0,33,99,32
0,65,123,0
0,36,102,0
0,38,103,0
0,69,72,0
0,62,68,0
0,65,78,0
0,50,59,0
0,35,127,0
0,42,92,0
0,49,64,0
0,69,116,0
0,70,114,0
0,50,93,0
0,50,71,4
0,65,69,8
0,69,66,32
0,74,66,12
0,42,66,0
0,38,97,180
0,62,74,0
0,65,75,0
0,69,72,0
0,69,97,0
0,74,96,0
0,42,66,0
0,65,98,0
0,69,99,0
0,74,97,0
0,65,43,0
0,35,59,100
0,42,66,0
0,38,95,0
0,62,70,0
0,65,70,0
0,69,68,0
0,35,112,0
0,42,66,0
0,62,75,0
0,65,74,0
0,69,73,0
0,69,99,0
0,74,95,0
0,42,66,0
0,69,100,0
0,74,97,0
0,42,66,96
0,65,98,0
0,65,43,68
0,34,101,4
0,35,59,0
0,42,66,0
0,38,97,0
0,35,127,0
0,42,92,0
0,69,116,0
0,70,114,0
0,42,66,0
0,69,102,0
0,74,99,0
0,42,66,0
0,65,98,0
0,69,99,0
0,74,97,0
0,65,43,0
0,38,104,12
0,60,75,0
0,69,78,0
0,35,59,0
0,42,66,0
0,41,60,20
0,41,91,0
0,53,63,64
0,29,92,0
0,60,76,0
0,65,70,0
0,69,68,0
0,65,74,0
0,35,112,0
0,42,66,0
0,72,64,0
0,77,61,32
0,72,103,28
0,77,103,0
0,35,112,0
0,42,66,0
0,72,97,0
0,77,93,0
0,29,94,20
0,46,77,0
0,65,98,0
0,65,43,0
0,35,59,16
0,45,59,0
0,45,103,0
0,57,61,16
0,69,70,0
0,33,94,16
0,64,69,0
0,69,69,0
0,35,127,0
0,42,92,0
0,69,116,0
0,70,114,0
0,72,65,4
0,81,67,8
0,42,66,32
0,33,103,40
0,64,68,0
0,69,72,0
0,64,95,0
0,69,96,0
0,42,66,0
0,65,98,0
0,64,100,0
0,69,97,0
0,65,43,0
0,35,59,24
0,42,66,0
0,69,72,20
0,33,99,4
0,72,73,0
0,76,76,0
0,81,71,0
0,35,112,0
0,42,66,0
0,69,72,120
0,42,66,0
0,42,66,12
0,65,98,0
0,65,43,0
0,33,94,100
0,35,59,0
0,42,66,0
0,33,77,4
0,35,127,0
0,42,92,0
0,69,116,0
0,70,114,0
0,42,66,112
0,64,98,180
0,69,96,0
0,42,66,0
0,65,98,0
0,64,96,0
0,69,100,0
0,65,43,8
0,31,98,100
0,35,59,0
0,42,66,0
0,33,102,116
0,35,112,0
0,42,66,0
0,31,98,120
0,35,112,0
0,42,66,0
0,33,103,112
0,46,77,0
0,65,98,0
0,65,43,12
0,36,97,100
0,35,59,0
0,50,59,8
0,50,90,0
0,50,67,20
0,38,102,12
0,62,70,0
0,69,78,0
0,65,71,0
0,35,127,0
0,42,92,0
0,69,116,0
0,70,114,0
0,69,71,20
0,74,65,12
0,42,66,40
0,38,100,180
0,62,76,0
0,69,71,0
0,69,100,0
0,74,100,0
0,42,66,0
0,65,98,0
0,69,101,0
0,74,96,0
0,65,43,0
0,35,59,0
0,42,66,0
0,38,90,4
0,62,69,0
0,69,73,0
0,35,112,0
0,42,66,0
0,62,72,36
0,69,68,0
0,69,95,0
0,74,95,0
0,42,66,0
0,69,93,0
0,74,101,0
0,42,66,12
0,65,98,0
0,65,43,28
0,34,97,4
0,35,59,0
0,42,66,0
0,38,99,4
0,35,127,0
0,42,92,0
0,69,116,0
0,70,114,0
0,42,66,120
0,69,100,180
0,74,98,0
0,42,66,0
0,65,98,0
0,69,96,0
0,74,97,0
0,65,43,0
0,38,96,36
0,62,75,0
0,69,78,0
0,35,59,0
0,42,66,0
0,48,72,4
0,48,59,16
0,48,91,0
0,64,69,12
0,67,73,32
0,36,101,16
0,60,71,0
0,67,74,0
0,35,112,0
0,42,66,0
0,72,69,4
0,60,74,120
0,67,70,0
0,67,98,0
0,72,96,0
0,35,112,0
0,42,66,0
0,67,101,0
0,72,96,0
0,36,79,8
0,31,114,16
0,60,69,0
0,67,77,0
0,46,77,0
0,65,98,0
0,65,43,0
0,28,103,24
0,35,59,0
0,45,63,52
0,31,81,24
0,45,59,0
0,57,66,0
0,45,103,0
0,60,61,4
0,64,70,16
0,33,93,0
0,60,69,0
0,64,77,0
0,69,70,0
0,35,127,0
0,42,92,0
0,69,116,0
0,70,114,0
0,42,66,36
0,33,92,180
0,64,98,0
0,69,102,0
0,42,66,0
0,65,98,0
0,64,101,0
0,69,96,0
0,65,43,0
0,35,59,28
0,42,66,0
0,31,92,16
0,33,104,16
0,60,78,0
0,64,78,0
0,35,112,0
0,42,66,0
0,42,66,16
0,42,66,180
0,65,98,0
0,65,43,68
0,33,95,8
0,35,59,0
0,42,66,0
0,33,103,4
0,35,127,0
0,42,92,0
0,69,116,0
0,70,114,0
0,42,66,100
0,64,94,180
0,69,96,0
0,42,66,0
0,65,98,0
0,64,98,0
0,69,94,0
0,65,43,4
0,33,90,100
0,35,59,0
0,42,66,0
0,35,112,4
0,42,66,0
0,31,97,36
0,35,112,0
0,42,66,0
0,33,91,144
0,46,77,0
0,65,98,0
0,65,43,8
0,36,93,100
0,35,59,0
0,38,94,48
0,69,72,0
0,62,75,0
0,65,71,0
0,50,59,0
0,35,127,0
0,42,92,0
0,49,64,0
0,69,116,0
0,70,114,0
0,50,99,0
0,50,71,4
0,65,67,4
0,69,67,32
0,74,73,16
0,42,66,20
0,38,104,180
0,62,74,0
0,65,74,0
0,69,71,0
0,69,99,0
0,74,99,0
0,42,66,0
0,65,98,0
0,69,95,0
0,74,95,0
0,65,43,0
0,35,59,40
0,42,66,0
0,38,94,4
0,62,71,0
0,65,68,0
0,69,73,0
0,35,112,0
0,42,66,0
0,62,75,96
0,65,74,0
0,69,68,0
0,69,96,0
0,74,102,0
0,42,66,0
0,69,96,0
0,74,93,0
0,42,66,96
0,65,98,0
0,65,43,68
0,34,97,4
0,35,59,0
0,42,66,0
0,38,99,4
0,35,127,0
0,42,92,0
0,69,116,0
0,70,114,0
0,42,66,76
0,69,104,180
0,74,102,0
0,42,66,0
0,65,98,0
0,69,97,0
0,74,98,0
0,65,43,0
0,38,90,100
0,60,73,0
0,69,70,0
0,35,59,0
0,42,66,0
0,38,95,20
0,41,59,0
0,41,92,0
0,53,74,64
0,29,94,16
0,60,70,0
0,65,75,0
0,69,73,0
0,35,112,0
0,42,66,0
0,69,63,12
0,72,68,32
0,77,74,4
0,72,94,28
0,77,102,0
0,62,104,0
0,69,103,0
0,35,112,0
0,42,66,0
0,72,100,0
0,77,95,0
0,62,82,0
0,69,75,0
0,29,99,20
0,65,107,0
0,72,100,0
0,46,77,0
0,65,98,0
0,65,81,0
0,72,73,0
0,65,43,0
0,69,107,16
0,76,100,0
0,35,59,0
0,69,77,0
0,76,79,0
0,45,59,0
0,45,105,0
0,57,71,16
0,33,104,0
0,64,77,0
0,69,76,0
0,35,127,0
0,42,92,0
0,69,116,0
0,70,114,0
0,72,74,4
0,76,73,32
0,81,69,4
0,42,66,20
0,33,102,12
0,64,77,0
0,69,76,0
0,64,99,0
0,69,96,0
0,42,66,0
0,65,98,0
0,64,94,0
0,69,98,0
0,65,43,4
0,35,59,32
0,42,66,0
0,69,70,20
0,33,89,4
0,72,72,0
0,76,75,0
0,81,70,0
0,35,112,0
0,42,66,0
0,69,69,112
0,42,66,0
0,42,66,16
0,65,98,0
0,65,43,0
0,33,94,100
0,35,59,0
0,42,66,0
0,35,127,4
0,42,92,0
0,69,116,0
0,70,114,0
0,42,66,124
0,64,101,180
0,69,102,0
0,42,66,0
0,65,98,0
0,64,95,0
0,69,99,0
0,65,43,68
0,33,93,100
0,35,59,0
0,42,66,0
0,35,112,4
0,42,66,0
0,31,103,124
0,35,112,0
0,42,66,0
0,33,93,116
0,46,77,0
0,65,98,0
0,65,43,4
0,36,102,4
0,35,59,12
0,50,59,4
0,50,97,0
0,36,100,16
0,50,64,0
0,38,92,4
0,62,74,0
0,69,78,0
0,65,62,0
0,35,127,0
0,42,92,0
0,69,116,0
0,70,114,0
0,69,62,20
0,74,64,8
0,42,66,36
0,38,97,44
0,62,69,0
0,69,68,0
0,69,94,0
0,74,96,0
0,42,66,0
0,65,98,0
0,69,94,0
0,74,99,0
0,65,43,8
0,35,59,20
0,42,66,0
0,36,93,16
0,38,95,24
0,62,74,0
0,69,76,0
0,35,112,0
0,42,66,0
0,62,72,120
0,69,68,0
0,69,94,0
0,74,100,0
0,42,66,0
0,69,97,0
0,74,99,0
0,42,66,104
0,65,98,0
0,65,43,68
0,33,97,100
0,35,59,0
0,42,66,0
0,36,93,4
0,38,94,20
0,35,127,0
0,42,92,0
0,69,116,0
0,70,114,0
0,42,66,20
0,69,98,148
0,74,99,0
0,42,66,0
0,65,98,0
0,69,94,0
0,74,94,0
0,65,43,8
0,38,104,24
0,62,77,0
0,69,77,0
0,35,59,0
0,42,66,0
0,48,65,4
0,38,95,4
0,48,59,0
0,48,93,0
0,64,63,8
0,67,74,12
0,29,98,16
0,60,71,0
0,67,73,0
0,35,112,0
0,42,66,0
0,72,63,4
0,60,74,40
0,67,74,0
0,67,98,0
0,72,103,0
0,62,101,0
0,69,103,0
0,35,112,0
0,42,66,0
0,67,98,0
0,72,94,0
0,62,72,0
0,69,76,0
0,29,92,108
0,60,77,0
0,67,73,0
0,65,98,0
0,72,98,0
0,46,77,0
0,65,98,0
0,65,73,0
0,72,77,0
0,65,43,0
0,29,95,4
0,67,100,0
0,74,104,0
0,35,59,0
0,67,83,0
0,74,78,0
0,45,65,16
0,29,98,4
0,45,59,0
0,45,96,0
0,60,65,0
0,64,71,0
0,33,97,16
0,60,70,0
0,64,73,0
0,69,68,0
0,35,127,0
0,42,92,0
0,49,64,0
0,69,116,0
0,70,114,0
0,42,66,24
0,33,104,180
0,64,99,0
0,69,94,0
0,42,66,0
0,65,98,0
0,64,101,0
0,69,97,0
0,65,43,4
0,35,59,40
0,42,66,0
0,31,96,16
0,33,98,16
0,60,69,0
0,64,72,0
0,35,112,0
0,42,66,0
0,42,66,16
0,42,66,180
0,65,98,0
0,65,43,68
0,33,98,100
0,35,59,0
0,42,66,0
0,31,94,24
0,33,99,48
0,35,127,0
0,42,92,0
0,69,116,0
0,70,114,0
0,42,66,120
0,64,102,180
0,69,98,0
0,42,66,0
0,65,98,0
0,64,95,0
0,69,95,0
0,65,43,0
0,33,91,100
0,35,59,0
0,42,66,0
0,31,102,24
0,33,96,28
0,35,112,0
0,42,66,0
0,31,94,124
0,35,112,0
0,42,66,0
0,60,101,12
0,33,104,4
0,46,77,0
0,65,98,0
0,65,43,4
0,36,95,20
0,35,59,0
0,62,106,12
0,38,92,4
0,69,68,0
0,62,78,0
0,65,70,0
0,50,59,0
0,62,91,0
0,65,86,0
0,35,127,0
0,42,92,0
0,49,64,0
0,69,116,0
0,70,114,0
0,50,73,0
0,50,68,4
0,65,68,4
0,69,66,24
0,74,63,20
0,42,66,28
0,62,86,112
0,65,88,0
0,38,94,16
0,62,69,0
0,65,73,0
0,69,74,0
0,69,104,0
0,74,103,0
0,42,66,0
0,65,98,0
0,69,93,0
0,74,99,0
0,62,99,4
0,65,43,8
0,35,59,32
0,42,66,0
0,36,91,0
0,62,83,8
0,65,90,0
0,38,103,16
0,62,71,0
0,65,71,0
0,69,76,0
0,35,112,0
0,42,66,0
0,62,97,4
0,62,75,36
0,65,71,0
0,69,77,0
0,69,97,0
0,74,102,0
0,42,66,0
0,69,101,0
0,74,102,0
0,42,66,96
0,65,98,0
0,65,43,68
0,33,105,100
0,35,59,0
0,42,66,0
0,36,97,4
0,38,90,20
0,35,127,0
0,42,92,0
0,69,116,0
0,70,114,0
0,42,66,32
0,69,103,180
0,74,104,0
0,42,66,0
0,65,98,0
0,69,96,0
0,74,98,0
0,65,43,0
0,62,81,84
0,65,80,0
0,38,91,16
0,60,73,0
0,69,77,0
0,57,70,0
0,35,59,0
0,42,66,0
0,41,59,12
0,41,76,0
0,53,63,8
0,62,80,0
0,65,84,0
0,29,91,16
0,60,73,0
0,65,69,0
0,69,74,0
0,60,103,0
0,35,112,0
0,42,66,0
0,69,72,8
0,72,65,0
0,77,65,0
0,72,103,24
0,77,104,0
0,35,112,0
0,42,66,0
0,72,93,0
0,77,98,0
0,62,79,4
0,65,82,0
0,29,102,12
0,46,77,0
0,65,98,0
0,60,102,4
0,65,43,0
0,62,90,0
0,64,87,0
0,57,67,12
0,35,59,4
0,45,59,0
0,45,77,0
0,57,69,12
0,60,87,0
0,64,83,0
0,33,100,16
0,64,72,0
0,69,77,0
0,64,104,0
0,35,127,0
0,42,92,0
0,49,64,0
0,69,116,0
0,70,114,0
0,72,66,0
0,76,68,12
0,81,70,0
0,42,66,20
0,60,90,0
0,64,82,0
0,57,87,12
0,33,95,4
0,64,70,0
0,69,76,0
0,64,104,0
0,69,95,0
0,42,66,0
0,65,98,0
0,64,98,0
0,69,94,0
0,65,43,0
0,35,59,12
0,42,66,0
0,31,101,16
0,69,68,16
0,60,90,12
0,64,90,0
0,57,100,12
0,33,103,4
0,72,74,0
0,76,74,0
0,81,69,0
0,35,112,0
0,42,66,0
0,69,78,8
0,42,66,0
0,42,66,32
0,65,98,0
0,65,43,0
0,33,93,96
0,35,59,0
0,42,66,0
0,31,102,24
0,33,103,12
0,35,127,0
0,42,92,0
0,69,116,0
0,70,114,0
0,42,66,120
0,64,104,180
0,69,97,0
0,42,66,0
0,65,98,0
0,64,93,0
0,69,93,0
0,65,43,0
0,31,99,100
0,35,59,0
0,42,66,0
0,33,93,124
0,81,74,0
0,35,112,0
0,42,66,0
0,31,94,36
0,76,69,0
0,35,112,0
0,42,66,0
0,33,102,116
0,64,92,0
0,46,77,0
0,65,98,0
0,65,43,12
0,36,96,0
0,35,59,0
0,50,59,4
0,50,73,0
0,50,61,16
0,64,89,0
0,67,88,0
0,38,100,8
0,62,71,0
0,69,78,0
0,65,67,0
0,35,127,0
0,42,92,0
0,49,64,0
0,69,116,0
0,70,114,0
0,64,105,4
0,69,61,20
0,74,62,0
0,42,66,40
0,62,81,72
0,65,90,0
0,38,103,0
0,62,70,0
0,69,72,0
0,69,94,0
0,74,101,0
0,42,66,0
0,65,98,0
0,69,96,0
0,74,101,0
0,62,87,4
0,65,43,0
0,35,59,36
0,42,66,0
0,36,96,8
0,62,91,4
0,65,90,0
0,62,100,12
0,38,95,4
0,62,70,0
0,69,68,0
0,35,112,0
0,42,66,0
0,62,71,20
0,69,71,0
0,69,97,0
0,74,104,0
0,42,66,0
0,69,97,0
0,74,98,0
0,42,66,16
0,65,98,0
0,65,43,68
0,33,95,40
0,35,59,0
0,42,66,0
0,36,96,16
0,38,90,28
0,35,127,0
0,42,92,0
0,69,116,0
0,70,114,0
0,42,66,20
0,69,94,180
0,74,95,0
0,42,66,0
0,65,98,0
0,69,96,0
0,74,93,0
0,65,43,0
0,38,103,24
0,62,75,0
0,69,70,0
0,57,96,0
0,35,59,0
0,42,66,0
0,48,71,4
0,48,59,16
