track,note,velocity,time
1,43,89,1536
1,55,98,0
1,71,83,0
1,74,92,16
1,79,94,56
1,74,107,124
1,71,92,4
1,78,96,8
1,81,101,56
1,47,94,48
1,74,98,4
1,78,107,0
1,71,86,4
1,43,89,128
1,55,98,0
1,71,83,0
1,74,92,16
1,79,94,56
1,74,107,124
1,71,92,4
1,78,96,8
1,81,101,56
1,47,94,48
1,74,98,4
1,78,107,0
1,71,86,4
1,43,89,128
1,55,98,0
1,71,83,0
1,74,92,16
1,79,94,56
1,74,107,124
1,71,92,4
1,78,96,8
1,81,101,56
1,47,94,48
1,74,98,4
1,78,107,0
1,71,86,4
1,43,89,128
1,55,98,0
1,71,83,0
1,74,92,16
1,79,94,56
1,74,107,124
1,71,92,4
1,78,96,8
1,81,101,56
1,47,94,48
1,74,98,4
1,78,107,0
1,71,86,4
1,43,92,128
1,55,98,0
1,71,83,0
1,74,94,24
1,79,92,56
1,43,91,68
1,55,87,4
1,71,92,8
1,74,101,4
1,81,104,8
1,55,85,12
1,43,88,4
1,74,81,12
1,71,72,8
1,79,93,0
1,71,86,56
1,74,93,0
1,47,96,8
1,78,101,0
1,43,92,76
1,55,94,12
1,79,112,4
1,71,98,4
1,74,96,4
1,43,88,120
1,55,91,4
1,74,98,4
1,71,81,0
1,81,96,4
1,43,89,32
1,55,86,4
1,71,76,8
1,74,88,4
1,79,92,4
1,71,70,32
1,47,92,20
1,74,92,16
1,78,72,48
1,43,81,36
1,55,88,32
1,71,80,8
1,74,92,44
1,79,89,64
1,43,91,52
1,55,98,8
1,71,89,4
1,81,107,0
1,74,96,8
1,71,80,40
1,43,88,4
1,55,85,4
1,74,86,4
1,79,88,4
1,46,36,44
1,47,93,32
1,71,83,4
1,74,88,4
1,78,94,4
1,43,86,12
1,55,89,36
1,71,83,12
1,74,92,32
1,79,86,52
1,55,86,328
1,74,91,0
1,71,89,0
1,81,89,0
1,43,92,0
1,55,82,20
1,43,83,0
1,71,80,0
1,79,94,0
1,74,89,0
1,74,101,48
1,78,96,0
1,71,85,0
1,47,92,4
1,74,88,24
1,71,85,4
1,47,88,0
1,81,101,8
1,79,93,120
1,72,101,4
1,45,88,4
1,69,93,0
1,78,81,160
1,50,94,60
1,76,91,4
1,69,80,4
1,72,87,4
1,43,76,100
1,71,85,0
1,74,88,0
1,79,92,0
1,55,87,0
1,78,89,200
1,74,91,0
1,71,82,0
1,55,76,0
1,43,81,0
1,81,92,60
1,78,92,12
1,71,82,0
1,74,91,0
1,42,68,0
1,54,76,0
1,52,82,8
1,71,82,0
1,64,78,0
1,40,78,0
1,67,87,0
1,52,63,88
1,64,46,76
1,67,61,180
1,71,75,148
1,64,80,32
1,72,86,0
1,69,87,0
1,45,77,0
1,74,88,212
1,62,78,0
1,50,81,0
1,66,78,0
1,45,68,32
1,72,86,0
1,57,76,0
1,69,83,0
1,64,75,0
1,64,47,28
1,50,77,204
1,74,81,0
1,57,73,0
1,62,76,0
1,64,81,0
1,69,71,0
1,62,78,36
1,57,87,0
1,69,85,0
1,66,81,0
1,50,43,0
1,62,36,0
1,57,58,368
1,64,56,0
1,72,75,0
1,69,80,0
1,45,77,0
1,50,77,148
1,69,80,0
1,66,77,0
1,74,72,0
1,62,78,0
1,62,76,156
1,43,78,0
1,71,88,0
1,67,86,0
1,76,89,60
1,79,96,0
1,72,80,0
1,45,86,0
1,57,89,0
1,81,85,80
1,57,78,0
1,76,82,0
1,72,76,0
1,45,82,0
1,50,89,284
1,69,77,0
1,79,76,0
1,76,86,0
1,74,85,72
1,78,88,0
1,50,88,0
1,69,83,0
1,71,70,412
1,79,76,0
1,43,57,0
1,74,81,0
1,55,73,0
1,78,80,188
1,74,78,0
1,71,71,0
1,54,59,0
1,42,67,0
1,79,75,44
1,76,75,0
1,52,76,0
1,40,72,0
1,71,76,0
1,48,101,92
1,76,98,384
1,72,101,0
1,79,98,0
1,72,89,260
1,76,94,0
1,81,98,0
1,60,107,228
1,76,101,100
1,79,104,0
1,72,91,0
1,48,86,8
1,72,36,164
1,72,87,24
1,79,91,0
1,76,92,0
1,60,107,80
1,72,85,192
1,76,88,0
1,79,88,0
1,72,80,84
1,76,88,0
1,81,96,0
1,60,92,44
1,48,89,44
1,48,92,96
1,72,87,384
1,79,96,0
1,75,91,0
1,60,87,96
1,81,98,192
1,72,85,0
1,75,93,0
1,60,96,216
1,72,85,64
1,79,94,0
1,75,87,0
1,48,89,36
1,72,59,144
1,72,83,76
1,75,93,0
1,79,96,0
1,60,92,60
1,75,77,192
1,79,88,0
1,72,71,0
1,81,89,76
1,75,73,0
1,72,77,0
1,48,83,44
1,43,92,212
1,74,94,384
1,67,89,0
1,71,93,0
1,67,89,268
1,76,104,0
1,71,98,0
1,55,98,248
1,74,91,88
1,67,86,0
1,71,81,0
1,43,80,20
1,67,57,104
1,67,57,44
1,71,66,0
1,74,73,0
1,55,92,76
1,74,75,192
1,67,60,0
1,71,77,0
1,67,89,88
1,76,101,0
1,71,93,0
1,55,36,40
1,55,83,184
1,48,89,84
1,75,87,384
1,72,78,0
1,79,92,0
1,75,88,280
1,81,98,0
1,72,86,0
1,60,101,256
1,79,89,84
1,72,78,0
1,75,89,0
1,48,86,64
1,72,59,84
1,72,77,60
1,79,91,0
1,75,83,0
1,60,92,64
1,75,85,192
1,72,72,0
1,79,88,0
1,72,78,60
1,75,83,0
1,81,89,0
1,48,72,48
1,57,82,284
1,81,93,0
1,76,94,0
1,72,85,0
1,45,78,0
1,50,93,156
1,72,92,0
1,81,104,0
1,78,93,0
1,43,87,76
1,55,91,0
1,74,98,0
1,71,92,0
1,79,91,0
1,74,86,216
1,76,86,168
1,79,89,32
1,81,92,192
1,83,88,20
1,74,82,112
1,78,88,4
1,71,68,4
1,47,98,12
1,45,83,232
1,57,89,16
1,69,88,8
1,72,89,20
1,76,88,96
1,78,94,108
1,74,94,8
1,50,88,0
1,69,92,0
1,96,67,40
1,95,68,40
1,93,87,32
1,91,87,28
1,89,78,16
1,88,92,20
1,86,84,28
1,84,84,24
1,83,92,20
1,81,87,24
1,79,84,28
1,77,87,24
1,76,78,32
1,74,78,32
1,72,78,28
1,71,78,0
1,69,78,0
1,67,71,4
1,65,67,8
1,64,61,12
1,51,104,96
1,63,96,688
1,67,98,4
1,70,89,8
1,74,104,4
1,63,82,76
1,67,89,4
1,72,92,8
1,67,89,60
1,63,86,4
1,70,83,4
1,63,87,44
1,72,94,4
1,70,46,4
1,67,88,4
1,53,82,64
1,69,86,4
1,74,93,4
1,65,85,4
1,65,46,28
1,72,61,20
1,53,92,112
1,69,94,4
1,74,92,4
1,65,83,4
1,53,89,44
1,69,87,8
1,65,77,8
1,72,89,4
1,70,89,60
1,69,88,8
1,65,89,4
1,72,92,92
1,69,86,4
1,53,88,4
1,65,76,4
1,71,93,88
1,55,82,4
1,67,91,8
1,74,101,4
1,62,92,1132
1,67,89,68
1,71,85,276
1,74,94,372
1,91,98,360
1,81,101,4
1,86,98,8
1,74,107,8
1,74,107,44
1,86,93,8
1,81,88,8
1,90,98,4
1,86,112,944
1,91,104,4
1,74,109,4
1,81,98,0
1,74,107,72
1,86,98,4
1,90,107,4
1,81,96,4
1,55,94,720
1,74,107,768
1,79,115,0
1,71,94,0
1,78,72,36
1,74,36,80
1,79,80,0
1,74,94,120
1,71,86,0
1,78,93,0
1,76,92,128
1,71,88,0
1,55,85,176
1,74,89,0
1,71,86,0
1,76,72,20
1,78,96,72
1,71,85,0
1,74,91,0
1,55,92,0
1,54,86,104
1,71,86,244
1,74,93,0
1,78,92,0
1,54,92,0
1,76,59,20
1,78,44,40
1,71,77,128
1,76,88,0
1,54,86,0
1,74,98,132
1,71,88,0
1,54,86,0
1,71,96,128
1,67,86,0
1,54,88,0
1,74,81,384
1,71,85,100
1,67,88,0
1,54,89,0
1,76,98,0
1,52,91,124
1,67,88,208
1,76,96,0
1,71,94,0
1,52,89,0
1,75,75,48
1,76,83,60
1,71,86,96
1,52,87,0
1,67,78,0
1,74,89,0
1,67,83,104
1,71,91,0
1,52,91,0
1,52,91,148
1,67,94,0
1,71,86,384
1,74,87,164
1,52,86,0
1,49,36,152
1,47,67,0
1,72,91,368
1,69,93,0
1,76,98,0
1,45,81,0
1,74,67,64
1,57,59,8
1,76,68,0
1,74,107,60
1,69,96,0
1,66,91,0
1,50,86,0
1,73,76,0
1,72,98,8
1,50,78,0
1,69,63,0
1,66,76,0
1,69,96,76
1,66,89,0
1,50,88,0
1,72,86,384
1,74,94,72
1,66,59,0
1,50,81,0
1,57,98,188
1,76,109,768
1,81,107,0
1,72,96,0
1,80,76,40
1,81,77,32
1,72,77,88
1,76,88,0
1,79,88,0
1,72,81,120
1,76,92,0
1,72,89,108
1,74,88,60
1,72,68,0
1,72,81,92
1,76,94,0
1,50,81,92
1,69,92,768
1,74,104,0
1,78,92,0
1,76,43,36
1,78,65,36
1,76,92,88
1,69,77,0
1,69,76,60
1,74,85,0
1,72,96,108
1,69,83,0
1,74,83,384
1,76,92,72
1,62,78,0
1,69,83,0
1,50,89,60
1,57,89,12
1,69,92,768
1,72,96,0
1,76,94,0
1,74,70,48
1,76,75,144
1,50,81,8
1,69,85,0
1,74,91,0
1,72,88,8
1,69,86,0
1,62,86,64
1,69,89,0
1,71,92,252
1,54,88,16
1,72,85,0
1,67,86,96
1,74,94,0
1,71,101,0
1,55,92,0
1,57,87,104
1,69,87,0
1,76,101,0
1,72,93,0
1,50,85,8
1,62,80,0
1,78,93,0
1,69,88,0
1,74,92,0
1,55,86,92
1,74,109,768
1,71,101,0
1,79,107,0
1,78,78,28
1,79,75,44
1,71,75,120
1,78,88,0
1,76,91,92
1,71,83,0
1,74,88,76
1,71,77,0
1,76,83,36
1,74,92,104
1,78,93,0
1,71,83,0
1,54,94,52
1,71,88,768
1,78,91,0
1,74,94,0
1,76,68,8
1,78,76,4
1,76,98,64
1,71,88,0
1,71,82,48
1,74,88,0
1,71,93,160
1,67,92,0
1,74,81,384
1,76,101,80
1,67,86,0
1,52,88,72
1,67,91,768
1,71,94,0
1,76,109,0
1,75,59,36
1,76,81,48
1,67,89,72
1,74,104,0
1,71,104,0
1,50,87,0
1,71,92,32
1,67,81,0
1,67,92,100
1,71,86,384
1,74,89,88
1,67,85,0
1,71,87,0
1,48,101,192
1,76,98,384
1,72,101,0
1,79,98,0
1,72,89,260
1,76,94,0
1,81,98,0
1,60,107,228
1,76,101,100
1,79,104,0
1,72,91,0
1,48,86,8
1,72,36,164
1,72,87,24
1,79,91,0
1,76,92,0
1,60,107,80
1,72,85,192
1,76,88,0
1,79,88,0
1,72,80,84
1,76,88,0
1,81,96,0
1,60,92,44
1,48,89,44
1,48,92,96
1,72,87,384
1,79,96,0
1,75,91,0
1,60,87,96
1,81,98,192
1,72,85,0
1,75,93,0
1,60,96,216
1,72,85,64
1,79,94,0
1,75,87,0
1,48,89,36
1,72,59,144
1,72,83,76
1,75,93,0
1,79,96,0
1,60,92,60
1,75,77,192
1,79,88,0
1,72,71,0
1,81,89,76
1,75,73,0
1,72,77,0
1,48,83,44
1,43,92,212
1,74,94,384
1,67,89,0
1,71,93,0
1,67,89,268
1,76,104,0
1,71,98,0
1,55,98,248
1,74,91,88
1,67,86,0
1,71,81,0
1,43,80,20
1,67,57,104
1,67,57,44
1,71,66,0
1,74,73,0
1,55,92,76
1,74,75,192
1,67,60,0
1,71,77,0
1,67,89,88
1,76,101,0
1,71,93,0
1,55,36,40
1,55,83,184
1,48,89,84
1,75,87,384
1,72,78,0
1,79,92,0
1,75,88,280
1,81,98,0
1,72,86,0
1,60,101,256
1,79,89,84
1,72,78,0
1,75,89,0
1,48,86,64
1,72,59,84
1,72,77,60
1,79,91,0
1,75,83,0
1,60,92,64
1,75,85,192
1,72,72,0
1,79,88,0
1,72,78,60
1,75,83,0
1,81,89,0
1,48,72,48
1,57,82,284
1,81,93,0
1,76,94,0
1,72,85,0
1,45,78,0
1,69,92,156
1,66,73,0
1,74,92,0
1,50,86,0
1,66,72,96
1,50,62,0
1,72,87,0
1,76,66,0
1,62,48,0
1,69,80,0
1,62,78,140
1,74,89,0
1,50,67,0
1,66,67,0
1,69,78,0
1,62,78,40
1,76,81,0
1,50,89,0
1,72,87,0
1,69,89,0
1,66,76,0
1,43,70,132
1,55,72,0
1,74,76,0
1,79,73,0
1,83,83,60
1,42,65,36
1,54,65,16
1,74,72,24
1,78,72,44
1,83,72,72
1,45,68,96
1,72,61,8
1,76,87,16
1,57,57,4
1,81,76,40
1,78,80,68
1,81,85,8
1,72,80,0
1,50,80,0
1,51,104,372
1,63,96,768
1,67,98,0
1,70,89,0
1,74,104,0
1,63,82,72
1,67,89,0
1,72,92,0
1,67,89,80
1,63,86,0
1,70,83,0
1,63,87,60
1,72,94,0
1,70,46,0
1,67,88,0
1,53,82,48
1,69,86,0
1,74,93,0
1,65,85,0
1,65,46,28
1,72,61,0
1,53,92,100
1,69,94,0
1,74,92,0
1,65,83,0
1,53,89,44
1,69,87,0
1,65,77,0
1,72,89,0
1,70,89,64
1,69,88,0
1,65,89,0
1,72,92,88
1,69,86,0
1,53,88,0
1,65,76,0
1,51,104,80
1,63,96,768
1,67,98,0
1,70,89,0
1,74,104,0
1,63,82,72
1,67,89,0
1,72,92,0
1,67,89,80
1,63,86,0
1,70,83,0
1,63,87,60
1,72,94,0
1,70,46,0
1,67,88,0
1,53,82,48
1,69,86,0
1,74,93,0
1,65,85,0
1,65,46,28
1,72,61,0
1,53,92,100
1,69,94,0
1,74,92,0
1,65,83,0
1,53,89,44
1,69,87,0
1,65,77,0
1,72,89,0
1,70,89,64
1,69,88,0
1,65,89,0
1,72,92,88
1,69,86,0
1,53,88,0
1,65,76,0
1,51,104,80
1,63,96,768
1,67,98,0
1,70,89,0
1,74,104,0
1,63,82,72
1,67,89,0
1,72,92,0
1,67,89,80
1,63,86,0
1,70,83,0
1,63,87,60
1,72,94,0
1,70,46,0
1,67,88,0
1,53,82,48
1,69,86,0
1,74,93,0
1,65,85,0
1,65,46,28
1,72,61,0
1,53,92,100
1,69,94,0
1,74,92,0
1,65,83,0
1,53,89,44
1,69,87,0
1,65,77,0
1,72,89,0
1,70,89,64
1,69,88,0
1,65,89,0
1,72,92,88
1,69,86,0
1,53,88,0
1,65,76,0
1,51,104,80
1,63,96,768
1,67,98,0
1,70,89,0
1,74,104,0
1,63,82,72
1,67,89,0
1,72,92,0
1,67,89,80
1,63,86,0
1,70,83,0
1,63,87,60
1,72,94,0
1,70,46,0
1,67,88,0
1,53,82,48
1,69,86,0
1,74,93,0
1,65,85,0
1,65,46,28
1,72,61,0
1,53,92,100
1,69,94,0
1,74,92,0
1,65,83,0
1,53,89,44
1,69,87,0
1,65,77,0
1,72,89,0
1,70,89,64
1,69,88,0
1,65,89,0
1,72,92,88
1,69,86,0
1,53,88,0
1,65,76,0
1,51,104,80
1,63,96,768
1,67,98,0
1,70,89,0
1,74,104,0
1,63,82,72
1,67,89,0
1,72,92,0
1,67,89,80
1,63,86,0
1,70,83,0
1,63,87,60
1,72,94,0
1,70,46,0
1,67,88,0
1,53,82,48
1,69,86,0
1,74,93,0
1,65,85,0
1,65,46,28
1,72,61,0
1,53,92,100
1,69,94,0
1,74,92,0
1,65,83,0
1,53,89,44
1,69,87,0
1,65,77,0
1,72,89,0
1,70,89,64
1,69,88,0
1,65,89,0
1,72,92,88
1,69,86,0
1,53,88,0
1,65,76,0
1,51,104,80
1,63,96,768
1,67,98,0
1,70,89,0
1,74,104,0
1,63,82,72
1,67,89,0
1,72,92,0
1,67,89,80
1,63,86,0
1,70,83,0
1,63,87,60
1,72,94,0
1,70,46,0
1,67,88,0
1,53,82,48
1,69,86,0
1,74,93,0
1,65,85,0
1,65,46,28
1,72,61,0
1,53,92,100
1,69,94,0
1,74,92,0
1,65,83,0
1,53,89,44
1,69,87,0
1,65,77,0
1,72,89,0
1,70,89,64
