track,note,velocity,time
0,50,127,0
0,50,127,0
0,57,127,0
0,50,127,0
0,36,122,0
0,49,116,0
0,50,127,0
0,50,127,0
0,57,127,0
0,50,127,0
0,36,127,0
0,50,127,0
0,50,127,0
0,57,127,0
0,42,104,0
0,38,127,0
0,42,108,0
0,50,127,4
0,50,127,0
0,57,127,0
0,50,127,0
0,42,110,0
0,50,127,0
0,50,127,0
0,57,127,0
0,50,127,0
0,50,127,0
0,50,127,0
0,57,127,0
0,50,127,0
0,36,110,0
0,42,116,0
0,38,127,0
0,36,106,0
0,38,127,0
0,38,127,0
0,42,100,0
0,50,127,0
0,50,127,0
0,58,127,0
0,38,127,0
0,38,127,0
0,42,108,0
0,50,127,0
0,50,127,0
0,58,127,0
0,38,127,0
0,50,127,0
0,50,127,0
0,58,127,0
0,38,127,0
0,42,116,0
0,36,110,0
0,42,116,0
0,36,106,4
0,50,127,4
0,50,127,0
0,58,127,0
0,50,127,0
0,42,100,0
0,50,127,0
0,50,127,0
0,58,127,0
0,50,127,0
0,50,127,0
0,50,127,0
0,58,127,0
0,50,127,0
0,38,127,0
0,42,108,0
0,38,127,0
0,38,127,0
0,42,116,0
0,50,127,0
0,50,127,0
0,59,127,0
0,38,127,0
0,36,110,0
0,42,116,0
0,50,127,0
0,50,127,0
0,59,127,0
0,38,127,0
0,36,106,0
0,50,127,0
0,50,127,0
0,59,127,0
0,38,127,0
0,42,100,0
0,38,127,0
0,42,108,0
0,50,127,4
0,50,127,0
0,59,127,0
0,50,127,0
0,42,116,0
0,50,127,0
0,50,127,0
0,59,127,0
0,50,127,0
0,50,127,0
0,50,127,0
0,59,127,0
0,50,127,0
0,36,110,0
0,42,116,0
0,36,106,4
0,38,127,0
0,38,127,0
0,42,100,0
0,50,127,0
0,50,127,0
0,60,127,0
0,38,127,0
0,38,127,0
0,42,108,0
0,50,127,0
0,50,127,0
0,60,127,0
0,38,127,0
0,50,127,0
0,50,127,0
0,60,127,0
0,38,127,0
0,42,116,0
0,36,110,0
0,42,116,0
0,36,106,4
0,50,127,4
0,50,127,0
0,60,127,0
0,50,127,0
0,42,100,0
0,50,127,0
0,50,127,0
0,60,127,0
0,50,127,0
0,50,127,0
0,50,127,0
0,60,127,0
0,50,127,0
0,38,127,0
0,42,108,0
0,38,127,0
0,38,127,0
0,42,116,0
0,50,127,0
0,50,127,0
0,62,127,0
0,38,127,0
0,36,110,0
0,42,116,0
0,50,127,0
0,50,127,0
0,62,127,0
0,38,127,0
0,36,106,0
0,50,127,0
0,50,127,0
0,62,127,0
0,38,127,0
0,42,100,0
0,38,127,0
0,42,108,0
0,50,127,4
0,50,127,0
0,57,127,0
0,50,127,0
0,42,116,0
0,50,127,0
0,50,127,0
0,57,127,0
0,50,127,0
0,50,127,0
0,50,127,0
0,57,127,0
0,50,127,0
0,36,110,0
0,42,116,0
0,38,127,0
0,36,106,0
0,38,127,0
0,38,127,0
0,42,100,0
0,50,127,0
0,50,127,0
0,58,127,0
0,38,127,0
0,38,127,0
0,42,108,0
0,50,127,0
0,50,127,0
0,58,127,0
0,38,127,0
0,50,127,0
0,50,127,0
0,58,127,0
0,38,127,0
0,42,116,0
0,36,110,0
0,42,116,0
0,36,106,4
0,50,127,4
0,50,127,0
0,58,127,0
0,50,127,0
0,42,100,0
0,50,127,0
0,50,127,0
0,58,127,0
0,50,127,0
0,50,127,0
0,50,127,0
0,58,127,0
0,50,127,0
0,38,127,0
0,42,108,0
0,38,127,0
0,38,127,0
0,42,116,0
0,50,127,0
0,50,127,0
0,59,127,0
0,38,127,0
0,36,110,0
0,42,116,0
0,50,127,0
0,50,127,0
0,59,127,0
0,38,127,0
0,36,106,0
0,50,127,0
0,50,127,0
0,59,127,0
0,38,127,0
0,42,100,0
0,38,127,0
0,42,108,0
0,50,127,4
0,50,127,0
0,59,127,0
0,50,127,0
0,42,116,0
0,50,127,0
0,50,127,0
0,59,127,0
0,50,127,0
0,50,127,0
0,50,127,0
0,59,127,0
0,50,127,0
0,36,110,0
0,42,116,0
0,36,106,4
0,38,127,0
0,38,127,0
0,42,100,0
0,50,127,0
0,50,127,0
0,60,127,0
0,38,127,0
0,38,127,0
0,42,108,0
0,50,127,0
0,50,127,0
0,60,127,0
0,38,127,0
0,50,127,0
0,50,127,0
0,60,127,0
0,38,127,0
0,42,116,0
0,36,110,0
0,42,116,0
0,36,106,4
0,50,127,4
0,50,127,0
0,60,127,0
0,50,127,0
0,42,100,0
0,50,127,0
0,50,127,0
0,60,127,0
0,50,127,0
0,50,127,0
0,50,127,0
0,60,127,0
0,50,127,0
0,38,127,0
0,42,108,0
0,38,127,0
0,38,127,0
0,42,116,0
0,50,127,0
0,50,127,0
0,62,127,0
0,38,127,0
0,36,110,0
0,42,116,0
0,50,127,0
0,50,127,0
0,62,127,0
0,38,127,0
0,36,106,0
0,50,127,0
0,50,127,0
0,62,127,0
0,38,127,0
0,78,70,0
0,42,100,0
0,78,70,0
0,38,127,0
0,42,108,0
0,50,127,4
0,50,127,0
0,57,127,0
0,50,127,0
0,78,66,0
0,42,116,0
0,50,127,0
0,50,127,0
0,57,127,0
0,50,127,0
0,81,98,0
0,50,127,0
0,50,127,0
0,57,127,0
0,50,127,0
0,36,110,0
0,42,116,0
0,38,127,0
0,36,106,0
0,38,127,0
0,38,127,0
0,78,72,0
0,42,100,0
0,50,127,0
0,50,127,0
0,58,127,0
0,38,127,0
0,76,76,0
0,38,127,0
0,42,108,0
0,50,127,0
0,50,127,0
0,58,127,0
0,38,127,0
0,50,127,0
0,50,127,0
0,58,127,0
0,38,127,0
0,78,98,0
0,42,116,0
0,76,78,4
0,36,110,0
0,42,116,0
0,74,92,4
0,36,106,0
0,50,127,4
0,50,127,0
0,58,127,0
0,50,127,0
0,76,78,0
0,42,100,0
0,50,127,0
0,50,127,0
0,58,127,0
0,50,127,0
0,50,127,0
0,50,127,0
0,58,127,0
0,50,127,0
0,38,127,0
0,42,108,0
0,38,127,0
0,38,127,0
0,42,116,0
0,50,127,0
0,50,127,0
0,59,127,0
0,38,127,0
0,71,104,0
0,36,110,0
0,42,116,0
0,50,127,0
0,50,127,0
0,59,127,0
0,38,127,0
0,36,106,0
0,50,127,0
0,50,127,0
0,59,127,0
0,38,127,0
0,71,98,0
0,42,100,0
0,38,127,0
0,42,108,0
0,50,127,4
0,50,127,0
0,59,127,0
0,50,127,0
0,74,115,0
0,42,116,0
0,50,127,0
0,50,127,0
0,59,127,0
0,50,127,0
0,50,127,0
0,50,127,0
0,59,127,0
0,50,127,0
0,74,109,0
0,36,110,0
0,42,116,0
0,36,106,4
0,38,127,0
0,38,127,0
0,71,104,0
0,42,100,0
0,50,127,0
0,50,127,0
0,60,127,0
0,38,127,0
0,38,127,0
0,42,108,0
0,50,127,0
0,50,127,0
0,60,127,0
0,38,127,0
0,76,74,0
0,50,127,0
0,50,127,0
0,60,127,0
0,38,127,0
0,74,104,0
0,42,116,0
0,36,110,0
0,42,116,0
0,36,106,4
0,50,127,4
0,50,127,0
0,60,127,0
0,50,127,0
0,42,100,0
0,50,127,0
0,50,127,0
0,60,127,0
0,50,127,0
0,50,127,0
0,50,127,0
0,60,127,0
0,50,127,0
0,38,127,0
0,42,108,0
0,38,127,0
0,38,127,0
0,42,116,0
0,50,127,0
0,50,127,0
0,62,127,0
0,38,127,0
0,36,110,0
0,42,116,0
0,50,127,0
0,50,127,0
0,62,127,0
0,38,127,0
0,36,106,0
0,50,127,0
0,50,127,0
0,62,127,0
0,38,127,0
0,78,76,0
0,42,100,0
0,78,92,0
0,38,127,0
0,42,108,0
0,78,80,4
0,50,127,4
0,50,127,0
0,57,127,0
0,38,127,0
0,42,116,0
0,50,127,0
0,50,127,0
0,57,127,0
0,38,127,0
0,81,98,0
0,50,127,0
0,50,127,0
0,57,127,0
0,38,127,0
0,36,110,0
0,42,116,0
0,38,127,0
0,36,106,0
0,38,127,0
0,38,127,0
0,78,98,0
0,42,100,0
0,50,127,0
0,50,127,0
0,58,127,0
0,38,127,0
0,76,78,0
0,38,127,0
0,42,108,0
0,50,127,0
0,50,127,0
0,58,127,0
0,38,127,0
0,78,98,0
0,50,127,0
0,50,127,0
0,58,127,0
0,38,127,0
0,42,116,0
0,76,80,0
0,36,110,0
0,42,116,0
0,74,98,4
0,36,106,0
0,50,127,4
0,50,127,0
0,58,127,0
0,38,127,0
0,42,100,0
0,50,127,0
0,50,127,0
0,58,127,0
0,38,127,0
0,76,78,0
0,50,127,0
0,50,127,0
0,58,127,0
0,38,127,0
0,38,127,0
0,42,108,0
0,38,127,0
0,38,127,0
0,38,127,0
0,42,116,0
0,50,127,0
0,50,127,0
0,59,127,0
0,38,127,0
0,36,110,0
0,42,116,0
0,50,127,0
0,50,127,0
0,59,127,0
0,38,127,0
0,36,106,0
0,50,127,0
0,50,127,0
0,59,127,0
0,38,127,0
0,69,98,0
0,42,100,0
0,71,98,0
0,38,127,0
0,42,108,0
0,50,127,4
0,50,127,0
0,59,127,0
0,50,127,0
0,74,98,0
0,42,116,0
0,50,127,0
0,50,127,0
0,59,127,0
0,50,127,0
0,50,127,0
0,50,127,0
0,59,127,0
0,50,127,0
0,76,74,0
0,36,110,0
0,42,116,0
0,36,106,4
0,38,127,0
0,38,127,0
0,71,104,0
0,42,100,0
0,50,127,0
0,50,127,0
0,60,127,0
0,38,127,0
0,76,76,0
0,38,127,0
0,42,108,0
0,50,127,0
0,50,127,0
0,60,127,0
0,38,127,0
0,74,109,0
0,50,127,0
0,50,127,0
0,60,127,0
0,38,127,0
0,42,116,0
0,36,110,0
0,42,116,0
0,36,106,4
0,50,127,4
0,50,127,0
0,60,127,0
0,50,127,0
0,42,100,0
0,50,127,0
0,50,127,0
0,60,127,0
0,50,127,0
0,50,127,0
0,50,127,0
0,60,127,0
0,50,127,0
0,38,127,0
0,42,108,0
0,38,127,0
0,38,127,0
0,42,116,0
0,50,127,0
0,50,127,0
0,62,127,0
0,38,127,0
0,36,110,0
0,49,116,0
0,50,127,0
0,50,127,0
0,62,127,0
0,38,127,0
0,36,106,0
0,50,127,0
0,50,127,0
0,62,127,0
0,38,127,0
0,42,100,0
0,78,70,0
0,38,127,0
0,42,108,0
0,78,72,4
0,50,127,4
0,50,127,0
0,57,127,0
0,50,127,0
0,42,116,0
0,50,127,0
0,50,127,0
0,57,127,0
0,50,127,0
0,81,92,0
0,50,127,0
0,50,127,0
0,57,127,0
0,50,127,0
0,36,110,0
0,42,116,0
0,38,127,0
0,36,106,0
0,38,127,0
0,38,127,0
0,78,74,0
0,42,100,0
0,50,127,0
0,50,127,0
0,58,127,0
0,38,127,0
0,38,127,0
0,42,108,0
0,50,127,0
0,50,127,0
0,58,127,0
0,38,127,0
0,76,76,32
0,50,127,0
0,50,127,0
0,58,127,0
0,38,127,0
0,42,116,0
0,78,76,4
0,76,78,0
0,36,110,0
0,42,116,0
0,36,106,4
0,74,104,4
0,50,127,4
0,50,127,0
0,58,127,0
0,50,127,0
0,42,100,0
0,76,104,4
0,50,127,0
0,50,127,0
0,58,127,0
0,50,127,0
0,50,127,0
0,50,127,0
0,58,127,0
0,50,127,0
0,38,127,0
0,42,108,0
0,38,127,0
0,38,127,0
0,38,127,0
0,42,116,0
0,50,127,0
0,50,127,0
0,59,127,0
0,38,127,0
0,71,121,0
0,36,110,0
0,42,116,0
0,50,127,0
0,50,127,0
0,59,127,0
0,38,127,0
0,36,106,0
0,50,127,0
0,50,127,0
0,59,127,0
0,38,127,0
0,71,92,0
0,42,100,0
0,74,92,0
0,38,127,0
0,42,108,0
0,50,127,4
0,50,127,0
0,59,127,0
0,50,127,0
0,74,92,0
0,42,116,0
0,50,127,0
0,50,127,0
0,59,127,0
0,50,127,0
0,50,127,0
0,50,127,0
0,59,127,0
0,50,127,0
0,74,98,0
0,36,110,0
0,42,116,0
0,71,104,4
0,36,106,0
0,38,127,0
0,38,127,0
0,42,100,0
0,50,127,0
0,50,127,0
0,60,127,0
0,38,127,0
0,76,78,0
0,38,127,0
0,42,108,0
0,50,127,0
0,50,127,0
0,60,127,0
0,38,127,0
0,74,104,0
0,50,127,0
0,50,127,0
0,60,127,0
0,38,127,0
0,42,116,0
0,36,110,0
0,42,116,0
0,36,106,4
0,50,127,4
0,50,127,0
0,60,127,0
0,38,127,0
0,42,100,0
0,50,127,0
0,50,127,0
0,60,127,0
0,38,127,0
0,50,127,0
0,50,127,0
0,60,127,0
0,38,127,0
0,38,127,0
0,42,108,0
0,38,127,0
0,38,127,0
0,38,127,0
0,42,116,0
0,50,127,0
0,50,127,0
0,62,127,0
0,38,127,0
0,36,110,0
0,42,116,0
0,50,127,0
0,50,127,0
0,62,127,0
0,38,127,0
0,36,106,0
0,50,127,0
0,50,127,0
0,62,127,0
0,38,127,0
0,42,100,0
0,78,98,0
0,38,127,0
0,42,108,0
0,78,68,4
0,50,127,4
0,50,127,0
0,57,127,0
0,38,127,0
0,42,116,0
0,50,127,0
0,50,127,0
0,57,127,0
0,38,127,0
0,81,98,0
0,50,127,0
0,50,127,0
0,57,127,0
0,38,127,0
0,36,110,0
0,42,116,0
0,38,127,0
0,36,106,0
0,38,127,0
0,38,127,0
0,42,100,0
0,78,109,4
0,50,127,0
0,50,127,0
0,58,127,0
0,38,127,0
0,76,86,0
0,38,127,0
0,42,108,0
0,50,127,0
0,50,127,0
0,58,127,0
0,38,127,0
0,50,127,0
0,50,127,0
0,58,127,0
0,38,127,0
0,78,74,0
0,42,116,0
0,36,110,0
0,42,116,0
0,36,106,4
0,50,127,4
0,50,127,0
0,58,127,0
0,38,127,0
0,76,86,0
0,42,100,0
0,50,127,0
0,50,127,0
0,58,127,0
0,38,127,0
0,74,109,0
0,50,127,0
0,50,127,0
0,58,127,0
0,38,127,0
0,38,127,0
0,42,108,0
0,38,127,0
0,74,121,0
0,38,127,0
0,38,127,0
0,42,116,0
0,50,127,0
0,50,127,0
0,59,127,0
0,38,127,0
0,36,110,0
0,42,116,0
0,50,127,0
0,50,127,0
0,59,127,0
0,38,127,0
0,36,106,0
0,50,127,0
0,50,127,0
0,59,127,0
0,38,127,0
0,42,100,0
0,71,115,0
0,38,127,0
0,42,108,0
0,50,127,4
0,50,127,0
0,59,127,0
0,50,127,0
0,42,116,0
0,50,127,0
0,50,127,0
0,59,127,0
0,50,127,0
0,74,115,0
0,50,127,0
0,50,127,0
0,59,127,0
0,50,127,0
0,36,110,0
0,42,116,0
0,38,127,0
0,74,121,0
0,36,106,0
0,38,127,0
0,38,127,0
0,42,100,0
0,71,121,4
0,50,127,0
0,50,127,0
0,60,127,0
0,38,127,0
0,38,127,0
0,42,108,0
0,50,127,0
0,50,127,0
0,60,127,0
0,38,127,0
0,76,109,0
0,50,127,0
0,50,127,0
0,60,127,0
0,38,127,0
0,42,116,0
0,36,110,0
0,42,116,0
0,36,106,4
0,50,127,4
0,50,127,0
0,60,127,0
0,38,127,0
0,42,100,0
0,50,127,0
0,50,127,0
0,60,127,0
0,38,127,0
0,50,127,0
0,50,127,0
0,60,127,0
0,38,127,0
0,38,127,0
0,42,108,0
0,38,127,0
0,38,127,0
0,38,60,0
0,38,127,0
0,42,116,0
0,62,127,0
0,67,127,0
0,57,127,0
0,74,127,0
0,50,60,0
0,50,60,0
0,62,60,0
0,38,127,0
0,36,110,0
0,42,116,0
0,50,60,0
0,50,60,0
0,62,60,0
0,38,127,0
0,36,106,0
0,50,60,0
0,50,60,0
0,62,60,0
0,38,127,0
0,42,100,0
0,62,127,0
0,66,127,0
0,57,127,0
0,74,127,0
0,38,127,0
0,42,108,0
0,60,127,0
0,65,127,0
0,57,127,0
0,72,127,0
0,50,60,0
0,50,60,0
0,57,60,0
0,50,127,0
0,42,116,0
0,50,60,0
0,50,60,0
0,57,60,0
0,50,60,0
0,50,60,0
0,57,60,0
0,36,110,0
0,42,116,0
0,60,127,0
0,64,127,0
0,57,127,0
0,72,127,0
