track,note,velocity,time
1,64,90,54
1,64,0,60
1,68,90,0
1,68,0,60
1,71,90,0
1,71,0,60
1,73,90,0
1,73,0,60
1,71,90,0
1,71,0,60
1,67,90,0
1,67,0,90
1,66,90,0
1,66,0,30
1,66,90,0
1,66,0,60
1,64,90,0
1,64,0,60
1,68,90,540
1,68,0,30
1,71,90,0
1,71,0,90
1,73,90,0
1,73,0,60
1,71,90,0
1,71,0,120
1,67,90,0
1,67,0,60
1,66,90,0
1,66,0,60
1,66,90,0
1,66,0,59
1,64,90,379
1,64,0,30
1,68,90,0
1,68,0,30
1,71,90,0
1,71,0,30
1,73,90,0
1,73,0,60
1,71,90,0
1,71,0,120
1,67,90,0
1,67,0,30
1,67,90,0
1,67,0,60
1,66,90,0
1,66,0,60
1,64,90,0
1,64,0,150
1,64,90,390
1,64,0,30
1,68,90,0
1,68,0,30
1,71,90,0
1,71,0,90
1,67,90,0
1,67,0,30
1,71,90,0
1,71,0,87
1,66,90,0
1,66,0,150
1,64,90,0
1,64,0,30
1,66,90,0
1,66,0,30
1,68,90,0
1,68,0,30
1,64,90,0
1,64,0,150
1,70,80,3000
1,73,80,0
1,78,80,0
1,70,0,480
1,69,80,0
1,69,0,480
1,78,0,0
1,73,0,0
1,64,90,54
1,64,0,60
1,68,90,0
1,68,0,60
1,71,90,0
1,71,0,60
1,73,90,0
1,73,0,60
1,71,90,0
1,71,0,60
1,67,90,0
1,67,0,90
1,66,90,0
1,66,0,30
1,66,90,0
1,66,0,60
1,64,90,0
1,64,0,60
1,64,90,480
1,64,0,60
1,68,90,0
1,68,0,30
1,73,90,0
1,73,0,90
1,71,90,0
1,71,0,60
1,71,90,0
1,71,0,120
1,67,90,0
1,67,0,60
1,66,90,0
1,66,0,60
1,66,90,0
1,66,0,59
1,64,90,379
1,64,0,30
1,68,90,0
1,68,0,30
1,71,90,0
1,71,0,30
1,73,90,0
1,73,0,60
1,71,90,0
1,71,0,120
1,67,90,0
1,67,0,30
1,67,90,0
1,67,0,60
1,66,90,0
1,66,0,60
1,64,90,0
1,64,0,90
1,66,90,0
1,66,0,30
1,64,90,0
1,64,0,30
1,61,90,0
1,61,0,60
1,64,90,330
1,64,0,90
1,71,90,30
1,71,0,90
1,73,90,27
1,73,0,90
1,66,90,0
1,66,0,60
1,64,90,0
1,64,0,60
1,64,90,0
1,64,0,30
1,66,90,0
1,66,0,30
1,68,90,0
1,68,0,30
1,64,90,0
1,64,0,150
1,70,80,3000
1,73,80,0
1,78,80,0
1,70,0,480
1,69,80,0
1,69,0,480
1,78,0,0
1,73,0,0
1,64,100,8790
1,64,0,30
1,68,100,0
1,68,0,30
1,71,100,0
1,71,0,90
1,67,100,0
1,67,0,30
1,71,100,0
1,71,0,90
1,67,100,0
1,67,0,30
1,66,100,0
1,66,0,30
1,66,100,0
1,66,0,60
1,64,100,0
1,64,0,180
1,64,100,420
1,64,0,60
1,68,100,0
1,68,0,30
1,71,100,0
1,71,0,60
1,73,100,0
1,73,0,90
1,71,100,0
1,71,0,90
1,66,100,0
1,66,0,60
1,66,100,0
1,66,0,83
1,66,100,7
1,66,0,120
1,64,100,223
1,64,0,60
1,68,100,0
1,68,0,40
1,71,100,0
1,71,0,40
1,67,100,0
1,67,0,40
1,71,100,0
1,71,0,40
1,68,100,0
1,68,0,40
1,71,100,0
1,71,0,40
1,76,100,0
1,76,0,90
1,73,100,0
1,73,0,90
1,70,100,0
1,70,0,240
1,78,100,148
1,78,0,30
1,86,100,0
1,86,0,120
1,86,100,0
1,86,0,60
1,86,100,0
1,86,0,30
1,83,100,0
1,83,0,30
1,88,100,0
1,88,0,30
1,86,100,0
1,86,0,150
1,82,100,0
1,82,0,30
1,81,100,0
1,81,0,60
1,79,100,0
1,79,0,30
1,74,100,0
1,74,0,120
1,70,80,3000
1,73,80,0
1,78,80,0
1,70,0,480
1,69,80,0
1,69,0,480
1,78,0,0
1,73,0,0
2,76,121,3810
2,76,0,30
2,81,121,0
2,81,0,30
2,81,121,0
2,81,0,30
2,81,121,0
2,81,0,60
2,81,121,0
2,81,0,30
2,81,121,0
2,81,0,30
2,81,121,0
2,81,0,60
2,81,121,0
2,81,0,30
2,81,121,0
2,81,0,30
2,81,121,0
2,81,0,60
2,81,121,0
2,81,0,30
2,81,121,0
2,81,0,30
2,81,121,0
2,81,0,60
2,81,121,0
2,81,0,30
2,81,121,0
2,81,0,30
2,81,121,0
2,81,0,60
2,81,121,0
2,81,0,30
2,81,121,0
2,81,0,30
2,81,121,0
2,81,0,30
2,79,121,0
2,79,0,30
2,87,127,30
2,87,0,90
2,85,121,0
2,85,0,60
2,81,121,0
2,81,0,30
2,81,121,0
2,81,0,30
2,81,121,0
2,81,0,60
2,81,121,0
2,81,0,60
2,81,121,0
2,81,0,60
2,81,121,30
2,81,0,30
2,85,121,0
2,85,0,30
2,85,121,0
2,85,0,30
2,81,121,0
2,81,0,30
2,81,121,0
2,81,0,30
2,81,121,0
2,81,0,60
2,81,121,30
2,81,0,30
2,79,121,0
2,79,0,30
2,81,121,0
2,81,0,30
2,81,121,0
2,81,0,30
2,81,121,0
2,81,0,30
2,81,121,0
2,81,0,30
2,79,121,0
2,79,0,90
2,69,121,180
2,73,121,0
2,73,0,60
2,69,0,0
2,71,121,0
2,75,121,0
2,75,0,60
2,71,0,0
2,75,121,0
2,71,121,0
2,71,0,60
2,75,0,0
2,71,121,0
2,75,121,0
2,75,0,60
2,71,0,0
2,71,121,0
2,75,121,0
2,75,0,30
2,71,0,0
2,69,121,0
2,73,121,0
2,73,0,30
2,69,0,0
2,69,121,180
2,73,121,0
2,73,0,60
2,69,0,0
2,69,121,0
2,73,121,0
2,73,0,60
2,69,0,0
2,71,121,0
2,75,121,0
2,75,0,30
2,71,0,0
2,71,121,0
2,75,121,0
2,75,0,90
2,71,0,0
2,71,121,0
2,75,121,0
2,75,0,30
2,71,0,0
2,69,121,0
2,73,121,0
2,73,0,30
2,69,0,0
2,76,121,5490
2,76,0,30
2,81,121,0
2,81,0,30
2,81,121,0
2,81,0,30
2,81,121,0
2,81,0,60
2,81,121,0
2,81,0,30
2,81,121,0
2,81,0,30
2,81,121,0
2,81,0,60
2,81,121,0
2,81,0,30
2,81,121,0
2,81,0,30
2,81,121,0
2,81,0,60
2,81,121,0
2,81,0,30
2,81,121,0
2,81,0,30
2,81,121,0
2,81,0,60
2,81,121,0
2,81,0,30
2,81,121,0
2,81,0,30
2,81,121,0
2,81,0,60
2,81,121,0
2,81,0,30
2,81,121,0
2,81,0,30
2,81,121,0
2,81,0,30
2,79,121,0
2,79,0,30
2,87,121,30
2,87,0,90
2,85,121,0
2,85,0,60
2,81,121,0
2,81,0,30
2,81,121,0
2,81,0,30
2,81,121,0
2,81,0,60
2,81,121,0
2,81,0,60
2,81,121,0
2,81,0,60
2,81,121,30
2,81,0,30
2,81,121,0
2,81,0,30
2,81,121,0
2,81,0,30
2,81,121,0
2,81,0,30
2,81,121,0
2,81,0,30
2,79,121,0
2,79,0,60
2,81,121,30
2,81,0,30
2,79,121,0
2,79,0,30
2,81,121,0
2,81,0,30
2,81,121,0
2,81,0,30
2,81,121,0
2,81,0,30
2,81,121,0
2,81,0,30
2,79,121,0
2,79,0,90
2,69,121,180
2,73,121,0
2,73,0,60
2,69,0,0
2,71,121,0
2,75,121,0
2,75,0,60
2,71,0,0
2,75,121,0
2,71,121,0
2,71,0,60
2,75,0,0
2,71,121,0
2,75,121,0
2,75,0,60
2,71,0,0
2,71,121,0
2,75,121,0
2,75,0,30
2,71,0,0
2,69,121,0
2,73,121,0
2,73,0,30
2,69,0,0
2,69,121,180
2,73,121,0
2,73,0,60
2,69,0,0
2,69,121,0
2,73,121,0
2,73,0,60
2,69,0,0
2,71,121,0
2,75,121,0
2,75,0,30
2,71,0,0
2,71,121,0
2,75,121,0
2,75,0,90
2,71,0,0
2,71,121,0
2,75,121,0
2,75,0,30
2,71,0,0
2,69,121,0
2,73,121,0
2,73,0,90
2,69,0,0
2,76,110,13590
2,76,0,30
2,81,121,0
2,81,0,30
2,81,121,0
2,81,0,30
2,81,121,0
2,81,0,60
2,81,121,0
2,81,0,30
2,81,121,0
2,81,0,30
2,81,121,0
2,81,0,60
2,81,121,0
2,81,0,30
2,81,121,0
2,81,0,30
2,81,121,0
2,81,0,60
2,81,121,0
2,81,0,30
2,81,121,0
2,81,0,30
2,81,121,0
2,81,0,60
2,81,121,0
2,81,0,30
2,81,121,0
2,81,0,30
2,81,121,0
2,81,0,60
2,81,121,0
2,81,0,30
2,81,121,0
2,81,0,30
2,81,121,0
2,81,0,30
2,79,121,0
2,79,0,30
2,87,121,30
2,87,0,90
2,85,121,0
2,85,0,60
2,81,121,0
2,81,0,30
2,81,121,0
2,81,0,30
2,81,121,0
2,81,0,60
2,81,121,0
2,81,0,60
2,81,121,0
2,81,0,60
2,81,121,30
2,81,0,30
2,81,121,0
2,81,0,30
2,81,121,0
2,81,0,30
2,81,121,0
2,81,0,30
2,81,121,0
2,81,0,30
2,79,121,0
2,79,0,60
2,81,121,30
2,81,0,30
2,79,121,0
2,79,0,30
2,81,121,0
2,81,0,30
2,81,121,0
2,81,0,30
2,81,121,0
2,81,0,30
2,81,121,0
2,81,0,30
2,79,121,0
2,79,0,90
2,69,121,180
2,73,121,0
2,73,0,60
2,69,0,0
2,71,121,0
2,75,121,0
2,75,0,60
2,71,0,0
2,75,121,0
2,71,121,0
2,71,0,60
2,75,0,0
2,71,121,0
2,75,121,0
2,75,0,60
2,71,0,0
2,71,121,0
2,75,121,0
2,75,0,30
2,71,0,0
2,69,121,0
2,73,121,0
2,73,0,30
2,69,0,0
2,69,121,180
2,73,121,0
2,73,0,60
2,69,0,0
2,69,121,0
2,73,121,0
2,73,0,60
2,69,0,0
2,71,121,0
2,75,121,0
2,75,0,30
2,71,0,0
2,71,121,0
2,75,121,0
2,75,0,90
2,71,0,0
2,71,121,0
2,75,121,0
2,75,0,30
2,71,0,0
2,69,121,0
2,73,121,0
2,73,0,90
2,69,0,0
2,83,127,14
2,83,0,115
2,81,127,1
2,81,0,60
2,74,127,0
2,74,0,180
2,83,127,150
2,83,0,30
2,83,127,0
2,83,0,30
2,83,127,0
2,83,0,30
2,83,127,0
2,83,0,60
2,83,127,0
2,83,0,60
2,83,127,0
2,83,0,60
2,83,127,0
2,83,0,30
2,83,127,0
2,83,0,30
2,81,127,0
2,81,0,30
2,83,127,0
2,83,0,30
2,83,127,0
2,83,0,30
2,83,127,0
2,83,0,30
2,83,127,0
2,83,0,60
2,83,127,0
2,83,0,60
2,81,127,0
2,81,0,30
2,83,127,0
2,83,0,30
2,83,127,0
2,83,0,30
2,83,127,0
2,83,0,30
2,83,127,0
2,83,0,90
2,83,127,0
2,83,0,90
2,81,127,0
2,81,0,60
2,79,127,0
2,79,0,120
2,81,127,0
2,81,0,60
2,83,127,0
2,83,0,30
2,83,127,0
2,83,0,60
2,83,127,0
2,83,0,30
2,83,127,0
2,83,0,30
2,83,127,0
2,83,0,30
2,83,127,0
2,83,0,60
2,83,127,0
2,83,0,30
2,83,127,0
2,83,0,60
2,83,127,0
2,83,0,30
2,83,127,0
2,83,0,30
2,83,127,0
2,83,0,30
2,83,127,90
2,83,0,150
2,83,127,30
2,83,0,30
2,81,127,0
2,81,0,30
2,80,127,0
2,80,0,60
2,74,127,0
2,74,0,60
2,83,127,90
2,83,0,30
2,81,127,0
2,81,0,30
2,79,127,0
2,79,0,60
2,83,127,30
2,83,0,30
2,83,127,30
2,83,0,60
2,81,127,0
2,81,0,30
2,79,127,0
2,79,0,60
2,76,127,0
2,76,0,60
2,85,127,480
2,85,0,60
2,83,127,0
2,83,0,60
2,81,127,0
2,81,0,60
2,79,127,0
2,79,0,60
2,81,127,0
2,81,0,30
2,79,127,0
2,79,0,60
2,79,127,0
2,79,0,90
2,74,127,0
2,74,0,60
2,74,127,420
2,74,0,30
2,74,127,0
2,74,0,30
2,74,127,0
2,74,0,30
2,74,127,0
2,74,0,30
2,74,127,0
2,74,0,60
2,74,127,0
2,74,0,60
2,74,127,0
2,74,0,30
2,74,127,0
2,74,0,30
2,74,127,0
2,74,0,60
2,74,127,0
2,74,0,60
2,74,127,0
2,74,0,60
2,74,127,0
2,74,0,30
2,74,127,0
2,74,0,30
2,74,127,0
2,74,0,30
2,74,127,0
2,74,0,30
2,74,127,0
2,74,0,30
2,74,127,0
2,74,0,30
2,74,127,0
2,74,0,30
2,74,127,0
2,74,0,30
2,74,127,0
2,74,0,30
2,71,127,0
2,71,0,30
2,74,127,0
2,74,0,60
2,74,127,0
2,74,0,30
2,76,127,0
2,76,0,150
2,71,127,30
2,71,0,30
2,86,127,0
2,86,0,60
2,83,127,0
2,83,0,30
2,86,127,0
2,86,0,60
2,83,127,0
2,83,0,30
2,86,127,0
2,86,0,60
2,83,127,0
2,83,0,30
2,86,127,0
2,86,0,60
2,83,127,0
2,83,0,30
2,86,127,0
2,86,0,60
2,83,127,0
2,83,0,30
2,86,127,0
2,86,0,60
2,83,127,0
2,83,0,150
2,81,127,30
2,81,0,60
2,79,127,0
2,79,0,45
2,76,127,0
2,76,0,105
2,86,127,0
2,86,0,60
2,83,127,0
2,83,0,30
2,86,127,0
2,86,0,60
2,83,127,0
2,83,0,30
2,86,127,0
2,86,0,60
2,81,127,0
2,81,0,180
2,74,127,0
2,74,0,180
2,79,127,60
2,79,0,60
2,78,127,0
2,78,0,30
2,76,127,0
2,76,0,60
2,76,127,0
2,76,0,150
2,83,120,0
2,83,0,60
2,79,118,0
2,79,0,30
2,83,117,0
2,83,0,90
2,81,115,0
2,81,0,30
2,83,114,0
2,83,0,60
2,79,111,0
2,79,0,90
2,81,109,0
2,81,0,90
2,79,106,0
2,79,0,90
2,81,103,0
2,81,0,90
2,76,97,120
2,76,0,15
2,76,97,0
2,76,0,15
2,76,96,0
2,76,0,120
2,67,69,720
2,67,0,60
2,66,68,0
2,66,0,30
2,64,67,0
2,64,0,60
2,64,64,0
2,64,0,150
2,71,63,30
2,71,0,30
2,86,62,0
2,86,0,60
2,83,60,0
2,83,0,30
2,86,59,0
2,86,0,60
2,83,57,0
2,83,0,30
2,86,56,0
2,86,0,60
2,83,54,0
2,83,0,30
2,86,53,0
2,86,0,60
2,83,51,0
2,83,0,30
2,86,50,0
2,86,0,60
2,83,48,0
2,83,0,30
2,86,47,0
2,86,0,60
2,83,45,0
2,83,0,150
2,81,39,30
2,81,0,60
2,79,37,0
2,79,0,45
2,76,36,0
2,76,0,105
2,67,10,660
2,67,0,60
2,66,8,0
2,66,0,30
2,64,7,0
2,64,0,60
2,64,4,0
2,64,0,150
3,58,90,6720
3,61,90,0
3,66,90,0
3,58,0,480
3,57,90,0
3,57,0,480
3,66,0,0
3,61,0,0
3,58,90,7200
3,61,90,0
3,66,90,0
3,58,0,480
3,57,90,0
3,57,0,480
3,66,0,0
3,61,0,0
3,58,90,15360
3,61,90,0
3,66,90,0
3,58,0,480
3,57,90,0
3,57,0,480
3,66,0,0
3,61,0,0
4,55,90,480
4,61,90,0
4,64,90,0
4,66,90,0
4,66,0,60
4,55,0,0
4,61,0,0
4,64,0,0
4,55,50,0
4,61,50,0
4,64,50,0
4,66,50,0
4,66,0,60
4,55,0,0
4,61,0,0
4,64,0,0
4,55,100,0
4,61,100,0
4,64,100,0
4,66,100,0
4,66,0,60
4,55,0,0
4,61,0,0
4,64,0,0
4,55,80,0
4,61,80,0
4,64,80,0
4,66,80,0
4,66,0,60
4,55,0,0
4,61,0,0
4,64,0,0
4,55,90,0
4,61,90,0
4,64,90,0
4,66,90,0
4,66,0,60
4,55,0,0
4,61,0,0
4,64,0,0
4,55,80,0
4,61,80,0
4,64,80,0
4,66,80,0
4,66,0,60
4,55,0,0
4,61,0,0
4,64,0,0
4,55,100,0
4,61,100,0
4,64,100,0
4,66,100,0
4,66,0,60
4,55,0,0
4,61,0,0
4,64,0,0
