track,note,velocity,time
0,43,100,0
0,43,0,60
0,67,100,0
0,55,100,0
0,55,0,60
0,67,0,0
0,65,100,0
0,43,100,0
0,43,0,60
0,65,0,0
0,67,100,0
0,55,100,0
0,55,0,60
0,67,0,0
0,74,100,0
0,69,100,0
0,43,100,0
0,69,0,30
0,70,100,0
0,43,0,30
0,55,100,0
0,70,0,30
0,74,0,0
0,74,100,0
0,67,100,0
0,55,0,30
0,43,100,0
0,67,0,30
0,74,0,0
0,65,100,0
0,65,0,30
0,43,0,0
0,62,100,0
0,55,100,0
0,62,0,30
0,55,0,30
0,43,100,0
0,43,0,60
0,67,100,0
0,55,100,0
0,55,0,60
0,67,0,0
0,65,100,0
0,43,100,0
0,43,0,60
0,65,0,0
0,67,100,0
0,55,100,0
0,55,0,60
0,67,0,0
0,74,100,0
0,69,100,0
0,43,100,0
0,69,0,30
0,70,100,0
0,43,0,30
0,55,100,0
0,40,100,0
0,70,0,30
0,74,0,0
0,74,100,0
0,65,100,0
0,55,0,30
0,40,0,0
0,43,100,0
0,38,100,0
0,74,0,30
0,65,0,0
0,72,100,0
0,65,100,0
0,72,0,30
0,38,0,0
0,43,0,0
0,70,100,0
0,55,100,0
0,40,100,0
0,40,0,30
0,65,0,0
0,70,0,0
0,70,100,0
0,65,100,0
0,40,100,0
0,40,0,30
0,55,0,0
0,70,0,0
0,65,0,0
0,43,100,0
0,43,100,0
0,77,100,0
0,36,100,0
0,49,100,0
0,49,0,60
0,77,0,0
0,43,0,0
0,43,0,0
0,36,0,0
0,67,100,0
0,55,100,0
0,70,100,0
0,74,100,0
0,79,100,0
0,36,100,0
0,46,100,0
0,46,0,60
0,79,0,0
0,55,0,0
0,70,0,0
0,67,0,0
0,36,0,0
0,74,0,0
0,65,100,0
0,43,100,0
0,69,100,0
0,73,100,0
0,43,100,0
0,79,100,0
0,36,100,0
0,38,100,0
0,46,100,0
0,46,0,60
0,65,0,0
0,79,0,0
0,73,0,0
0,43,0,0
0,69,0,0
0,43,0,0
0,67,100,0
0,55,100,0
0,74,100,0
0,70,100,0
0,79,100,0
0,46,100,0
0,46,0,60
0,36,0,0
0,70,0,0
0,38,0,0
0,67,0,0
0,55,0,0
0,74,0,0
0,74,100,0
0,69,100,0
0,43,100,0
0,69,100,0
0,43,100,0
0,36,100,0
0,46,100,0
0,69,0,30
0,69,0,0
0,70,100,0
0,70,100,0
0,70,0,30
0,43,0,0
0,46,0,0
0,43,0,0
0,36,0,0
0,55,100,0
0,67,100,0
0,43,100,0
0,36,100,0
0,46,100,0
0,36,0,30
0,74,0,0
0,67,0,0
0,70,0,0
0,43,0,0
0,74,100,0
0,67,100,0
0,65,100,0
0,43,100,0
0,36,100,0
0,36,0,30
0,43,0,0
0,46,0,0
0,55,0,0
0,79,0,0
0,65,0,0
0,43,100,0
0,62,100,0
0,43,100,0
0,36,100,0
0,40,100,0
0,46,100,0
0,62,0,30
0,74,0,0
0,67,0,0
0,65,100,0
0,65,100,0
0,65,0,30
0,46,0,0
0,43,0,0
0,43,0,0
0,65,0,0
0,62,100,0
0,55,100,0
0,67,100,0
0,46,100,0
0,62,0,30
0,40,0,30
0,55,0,0
0,36,0,0
0,46,0,0
0,67,0,0
0,43,100,0
0,43,100,0
0,79,100,0
0,36,100,0
0,46,100,0
0,46,0,60
0,43,0,0
0,43,0,0
0,67,100,0
0,55,100,0
0,70,100,0
0,74,100,0
0,46,100,0
0,46,0,60
0,70,0,0
0,79,0,0
0,67,0,0
0,36,0,0
0,74,0,0
0,55,0,0
0,65,100,0
0,43,100,0
0,69,100,0
0,73,100,0
0,43,100,0
0,79,100,0
0,36,100,0
0,38,100,0
0,46,100,0
0,46,0,60
0,65,0,0
0,43,0,0
0,73,0,0
0,69,0,0
0,43,0,0
0,67,100,0
0,55,100,0
0,74,100,0
0,70,100,0
0,46,100,0
0,46,0,60
0,79,0,0
0,55,0,0
0,36,0,0
0,38,0,0
0,67,0,0
0,74,0,0
0,70,0,0
0,74,100,0
0,69,100,0
0,43,100,0
0,69,100,0
0,43,100,0
0,79,100,0
0,36,100,0
0,46,100,0
0,69,0,30
0,69,0,0
0,70,100,0
0,70,100,0
0,70,0,30
0,79,0,0
0,46,0,0
0,43,0,0
0,43,0,0
0,36,0,0
0,55,100,0
0,67,100,0
0,43,100,0
0,74,100,0
0,36,100,0
0,46,100,0
0,36,0,30
0,67,0,0
0,70,0,0
0,74,0,0
0,43,0,0
0,74,100,0
0,67,100,0
0,65,100,0
0,43,100,0
0,36,100,0
0,36,0,30
0,43,0,0
0,46,0,0
0,74,0,0
0,55,0,0
0,65,0,0
0,43,100,0
0,62,100,0
0,43,100,0
0,36,100,0
0,40,100,0
0,46,100,0
0,62,0,30
0,74,0,0
0,67,0,0
0,65,100,0
0,65,100,0
0,65,0,30
0,46,0,0
0,43,0,0
0,43,0,0
0,65,0,0
0,62,100,0
0,55,100,0
0,67,100,0
0,46,100,0
0,62,0,30
0,77,100,0
0,77,0,30
0,46,0,0
0,55,0,0
0,36,0,0
0,40,0,0
0,67,0,0
0,43,100,0
0,43,100,0
0,79,100,0
0,36,100,0
0,46,100,0
0,46,0,60
0,79,0,0
0,43,0,0
0,43,0,0
0,36,0,0
0,67,100,0
0,55,100,0
0,70,100,0
0,74,100,0
0,79,100,0
0,36,100,0
0,46,100,0
0,46,0,60
0,79,0,0
0,55,0,0
0,70,0,0
0,67,0,0
0,36,0,0
0,74,0,0
0,65,100,0
0,43,100,0
0,69,100,0
0,73,100,0
0,43,100,0
0,79,100,0
0,36,100,0
0,38,100,0
0,46,100,0
0,46,0,60
0,65,0,0
0,79,0,0
0,73,0,0
0,43,0,0
0,69,0,0
0,43,0,0
0,67,100,0
0,55,100,0
0,74,100,0
0,70,100,0
0,79,100,0
0,46,100,0
0,79,0,30
0,82,100,0
0,36,0,30
0,46,0,0
0,74,0,0
0,38,0,0
0,67,0,0
0,55,0,0
0,70,0,0
0,74,100,0
0,69,100,0
0,43,100,0
0,69,100,0
0,43,100,0
0,36,100,0
0,46,100,0
0,69,0,30
0,69,0,0
0,70,100,0
0,70,100,0
0,70,0,30
0,43,0,0
0,46,0,0
0,82,0,0
0,43,0,0
0,36,0,0
0,55,100,0
0,67,100,0
0,43,100,0
0,79,100,0
0,36,100,0
0,46,100,0
0,36,0,30
0,67,0,0
0,70,0,0
0,74,0,0
0,43,0,0
0,74,100,0
0,67,100,0
0,65,100,0
0,43,100,0
0,36,100,0
0,36,0,30
0,43,0,0
0,46,0,0
0,79,0,0
0,55,0,0
0,65,0,0
0,43,100,0
0,62,100,0
0,43,100,0
0,79,100,0
0,36,100,0
0,40,100,0
0,46,100,0
0,62,0,30
0,74,0,0
0,67,0,0
0,65,100,0
0,65,100,0
0,65,0,30
0,65,0,0
0,43,0,0
0,43,0,0
0,46,0,0
0,62,100,0
0,55,100,0
0,67,100,0
0,46,100,0
0,62,0,30
0,67,0,30
0,36,0,0
0,40,0,0
0,79,0,0
0,46,0,0
0,55,0,0
0,43,100,0
0,43,100,0
0,77,100,0
0,36,100,0
0,42,100,0
0,77,0,30
0,79,100,0
0,79,0,30
0,42,0,0
0,43,0,0
0,43,0,0
0,36,0,0
0,67,100,0
0,55,100,0
0,70,100,0
0,74,100,0
0,79,100,0
0,36,100,0
0,46,100,0
0,79,0,30
0,79,100,0
0,36,0,30
0,74,0,0
0,55,0,0
0,70,0,0
0,67,0,0
0,46,0,0
0,65,100,0
0,43,100,0
0,69,100,0
0,73,100,0
0,43,100,0
0,36,100,0
0,38,100,0
0,46,100,0
0,79,0,30
0,79,100,0
0,65,0,30
0,46,0,0
0,73,0,0
0,69,0,0
0,43,0,0
0,43,0,0
0,67,100,0
0,55,100,0
0,74,100,0
0,70,100,0
0,46,100,0
0,46,0,60
0,36,0,0
0,55,0,0
0,38,0,0
0,79,0,0
0,67,0,0
0,74,0,0
0,70,0,0
0,74,100,0
0,69,100,0
0,43,100,0
0,69,100,0
0,43,100,0
0,79,100,0
0,36,100,0
0,46,100,0
0,69,0,30
0,69,0,0
0,70,100,0
0,70,100,0
0,70,0,30
0,43,0,0
0,46,0,0
0,43,0,0
0,36,0,0
0,55,100,0
0,67,100,0
0,43,100,0
0,36,100,0
0,46,100,0
0,36,0,30
0,74,0,0
0,67,0,0
0,70,0,0
0,43,0,0
0,74,100,0
0,67,100,0
0,65,100,0
0,43,100,0
0,36,100,0
0,36,0,30
0,43,0,0
0,46,0,0
0,55,0,0
0,79,0,0
0,65,0,0
0,43,100,0
0,62,100,0
0,43,100,0
0,77,100,0
0,36,100,0
0,40,100,0
0,46,100,0
0,77,0,20
0,79,100,0
0,74,0,10
0,67,0,0
0,62,0,0
0,65,100,0
0,65,100,0
0,79,0,10
0,79,100,0
0,79,0,20
0,65,0,0
0,43,0,0
0,46,0,0
0,43,0,0
0,65,0,0
0,62,100,0
0,55,100,0
0,67,100,0
0,79,100,0
0,46,100,0
0,62,0,30
0,79,0,30
0,36,0,0
0,55,0,0
0,40,0,0
0,46,0,0
0,67,0,0
0,43,100,0
0,43,100,0
0,82,100,0
0,36,100,0
0,49,100,0
0,49,0,60
0,43,0,0
0,43,0,0
0,36,0,0
0,67,100,0
0,55,100,0
0,70,100,0
0,74,100,0
0,36,100,0
0,46,100,0
0,46,0,60
0,74,0,0
0,67,0,0
0,55,0,0
0,82,0,0
0,36,0,0
0,70,0,0
0,65,100,0
0,43,100,0
0,69,100,0
0,73,100,0
0,43,100,0
0,36,100,0
0,38,100,0
0,46,100,0
0,46,0,60
0,65,0,0
0,43,0,0
0,73,0,0
0,69,0,0
0,43,0,0
0,67,100,0
0,55,100,0
0,74,100,0
0,70,100,0
0,46,100,0
0,46,0,60
0,74,0,0
0,38,0,0
0,67,0,0
0,36,0,0
0,70,0,0
0,55,0,0
0,74,100,0
0,69,100,0
0,43,100,0
0,69,100,0
0,43,100,0
0,36,100,0
0,46,100,0
0,69,0,30
0,69,0,0
0,70,100,0
0,70,100,0
0,70,0,30
0,46,0,0
0,36,0,0
0,43,0,0
0,43,0,0
0,55,100,0
0,67,100,0
0,43,100,0
0,36,100,0
0,46,100,0
0,36,0,30
0,67,0,0
0,70,0,0
0,74,0,0
0,43,0,0
0,74,100,0
0,67,100,0
0,65,100,0
0,43,100,0
0,36,100,0
0,36,0,30
0,65,0,0
0,46,0,0
0,55,0,0
0,43,0,0
0,43,100,0
0,62,100,0
0,43,100,0
0,77,100,0
0,36,100,0
0,40,100,0
0,46,100,0
0,77,0,20
0,79,100,0
0,67,0,10
0,74,0,0
0,62,0,0
0,65,100,0
0,65,100,0
0,79,0,10
0,79,100,0
0,79,0,20
0,65,0,0
0,43,0,0
0,46,0,0
0,43,0,0
0,65,0,0
0,62,100,0
0,55,100,0
0,67,100,0
0,79,100,0
0,46,100,0
0,62,0,30
0,79,0,30
0,36,0,0
0,55,0,0
0,40,0,0
0,46,0,0
0,67,0,0
0,43,100,0
0,43,100,0
0,79,100,0
0,36,100,0
0,46,100,0
0,46,0,60
0,43,0,0
0,43,0,0
0,36,0,0
0,67,100,0
0,55,100,0
0,70,100,0
0,74,100,0
0,36,100,0
0,46,100,0
0,46,0,60
0,74,0,0
0,67,0,0
0,55,0,0
0,79,0,0
0,36,0,0
0,70,0,0
0,65,100,0
0,43,100,0
0,69,100,0
0,73,100,0
0,43,100,0
0,36,100,0
0,38,100,0
0,46,100,0
0,46,0,60
0,65,0,0
0,43,0,0
0,73,0,0
0,69,0,0
0,43,0,0
0,67,100,0
0,55,100,0
0,74,100,0
0,70,100,0
0,46,100,0
0,46,0,60
0,74,0,0
0,38,0,0
0,67,0,0
0,36,0,0
0,70,0,0
0,55,0,0
0,74,100,0
0,69,100,0
0,43,100,0
0,69,100,0
0,43,100,0
0,36,100,0
0,46,100,0
0,69,0,30
0,69,0,0
0,70,100,0
0,70,100,0
0,70,0,30
0,46,0,0
0,36,0,0
0,43,0,0
0,43,0,0
0,55,100,0
0,67,100,0
0,43,100,0
0,36,100,0
0,46,100,0
0,36,0,30
0,67,0,0
0,70,0,0
0,74,0,0
0,43,0,0
0,74,100,0
0,67,100,0
0,65,100,0
0,43,100,0
0,36,100,0
0,36,0,30
0,65,0,0
0,46,0,0
0,55,0,0
0,43,0,0
0,43,100,0
0,62,100,0
0,43,100,0
0,77,100,0
0,36,100,0
0,40,100,0
0,46,100,0
0,77,0,20
0,79,100,0
0,67,0,10
0,74,0,0
0,62,0,0
0,65,100,0
0,65,100,0
0,79,0,10
0,79,100,0
0,79,0,20
0,65,0,0
0,43,0,0
0,46,0,0
0,43,0,0
0,65,0,0
0,62,100,0
0,55,100,0
0,67,100,0
0,79,100,0
0,46,100,0
0,62,0,30
0,79,0,30
0,36,0,0
0,55,0,0
0,40,0,0
0,46,0,0
0,67,0,0
0,46,100,0
0,65,100,0
0,74,100,0
0,70,100,0
0,74,100,0
0,46,100,0
0,36,100,0
0,49,100,0
0,74,0,30
0,74,100,0
0,49,0,30
0,36,0,0
0,36,100,0
0,46,100,0
0,82,100,30
0,46,0,30
0,36,0,0
0,40,100,0
0,46,100,0
0,82,0,30
0,82,100,0
0,82,0,30
0,46,0,0
0,40,0,0
0,46,0,0
0,46,100,0
0,74,100,0
0,36,100,0
0,46,100,0
0,46,0,60
0,46,0,0
0,74,0,0
0,74,0,0
0,65,0,0
0,70,0,0
0,74,0,0
0,46,0,0
0,36,0,0
0,48,100,0
0,76,100,0
0,72,100,0
0,67,100,0
0,74,100,0
0,48,100,0
0,36,100,0
0,49,100,0
0,74,0,30
0,76,100,0
0,49,0,30
0,36,0,0
0,36,100,0
0,46,100,0
0,84,100,30
0,46,0,30
0,36,0,0
0,76,0,0
0,76,100,0
0,46,100,0
0,84,0,30
0,84,100,0
0,40,100,0
0,40,0,30
0,48,0,0
0,84,0,0
0,46,0,0
0,48,0,0
0,48,100,0
0,76,100,0
0,43,100,0
0,40,100,0
0,40,0,30
0,38,100,0
0,38,0,30
0,67,0,0
0,48,0,0
0,72,0,0
0,76,0,0
0,43,0,0
0,76,0,0
0,76,0,0
0,43,100,0
0,43,100,0
0,36,100,0
0,46,100,0
0,46,0,60
0,43,0,0
0,43,0,0
0,36,0,0
0,67,100,0
0,55,100,0
0,86,100,0
0,81,100,0
0,36,100,0
0,46,100,0
0,46,0,60
0,55,0,0
0,86,0,0
0,67,0,0
0,36,0,0
0,81,0,0
0,65,100,0
0,43,100,0
0,86,100,0
0,82,100,0
0,43,100,0
0,36,100,0
0,38,100,0
0,46,100,0
0,46,0,60
0,65,0,0
0,43,0,0
0,82,0,0
0,86,0,0
0,43,0,0
0,67,100,0
0,55,100,0
0,46,100,0
0,46,0,60
0,67,0,0
0,36,0,0
0,38,0,0
0,55,0,0
0,74,100,0
0,69,100,0
0,43,100,0
0,81,100,0
0,43,100,0
0,36,100,0
0,46,100,0
0,81,0,30
0,69,0,0
0,70,100,0
0,82,100,0
0,82,0,30
0,46,0,0
0,36,0,0
0,43,0,0
0,43,0,0
0,55,100,0
0,79,100,0
0,36,100,0
0,46,100,0
0,36,0,30
0,79,0,0
0,74,0,0
0,70,0,0
0,74,100,0
0,67,100,0
0,77,100,0
0,36,100,0
0,36,0,30
0,46,0,0
0,55,0,0
0,77,0,0
0,43,100,0
0,74,100,0
0,43,100,0
0,36,100,0
0,40,100,0
0,46,100,0
0,74,0,30
0,67,0,0
0,74,0,0
0,65,100,0
0,77,100,0
0,77,0,30
0,46,0,0
0,43,0,0
0,43,0,0
0,65,0,0
0,62,100,0
0,55,100,0
0,79,100,0
0,46,100,0
0,62,0,30
0,40,0,30
0,55,0,0
0,36,0,0
0,46,0,0
0,79,0,0
0,43,100,0
0,43,100,0
0,36,100,0
0,46,100,0
0,46,0,60
0,43,0,0
0,43,0,0
0,36,0,0
0,67,100,0
0,55,100,0
0,86,100,0
0,81,100,0
0,36,100,0
0,46,100,0
0,46,0,60
0,55,0,0
