track,note,velocity,time
1,69,88,18098
1,69,0,120
1,69,88,120
1,69,0,120
1,72,88,120
1,72,0,120
1,76,88,120
1,76,0,1080
1,74,88,0
1,74,0,60
1,72,88,0
1,72,0,60
1,72,88,0
1,72,0,296
1,76,88,4
1,76,0,120
1,74,88,0
1,74,0,360
1,69,88,1422
1,69,0,120
1,72,88,120
1,72,0,120
1,76,88,120
1,76,0,1320
1,74,88,0
1,74,0,60
1,72,88,0
1,72,0,180
1,74,88,0
1,74,0,300
1,69,88,1418
1,69,0,120
1,72,88,120
1,72,0,120
1,76,88,120
1,76,0,1140
1,74,88,0
1,74,0,30
1,72,88,0
1,72,0,30
1,72,88,3
1,72,0,329
1,76,88,1
1,76,0,120
1,74,88,0
1,74,0,182
1,69,88,1404
1,69,0,120
1,72,88,120
1,72,0,120
1,76,88,120
1,76,0,720
1,74,88,600
1,74,0,60
1,72,88,0
1,72,0,60
1,74,88,0
1,74,0,360
1,76,88,0
1,76,0,120
1,74,88,0
1,74,0,176
1,76,88,2
1,76,0,60
1,76,88,0
1,76,0,60
1,74,88,0
1,74,0,360
1,76,88,0
1,76,0,120
1,74,88,0
1,74,0,120
1,76,124,2
1,76,0,182
1,76,124,120
1,76,0,120
1,74,124,120
1,74,0,60
1,72,124,0
1,72,0,60
1,74,124,0
1,74,0,60
1,72,124,0
1,72,0,60
1,72,124,0
1,72,0,60
1,76,124,2
1,76,0,62
1,74,124,0
1,74,0,60
1,72,124,0
1,72,0,60
1,69,124,0
1,69,0,60
1,72,124,0
1,72,0,120
1,69,124,0
1,69,0,56
1,69,124,362
1,69,0,60
1,67,124,0
1,67,0,60
1,69,124,60
1,69,0,180
1,72,124,0
1,72,0,90
1,69,124,0
1,69,0,390
1,76,124,1200
1,76,0,120
1,74,124,0
1,74,0,60
1,76,124,112
1,76,0,120
1,69,124,0
1,69,0,120
1,74,124,120
1,74,0,60
1,72,124,0
1,72,0,60
1,74,124,0
1,74,0,60
1,72,124,0
1,72,0,60
1,76,124,0
1,76,0,120
1,74,124,0
1,74,0,60
1,72,124,0
1,72,0,60
1,69,124,0
1,69,0,120
1,72,124,0
1,72,0,120
1,69,124,0
1,69,0,60
1,69,124,174
1,69,0,60
1,67,124,0
1,67,0,60
1,69,124,0
1,69,0,30
1,67,124,0
1,67,0,90
1,72,124,60
1,72,0,80
1,72,124,0
1,72,0,80
1,72,124,0
1,72,0,80
1,72,124,0
1,72,0,300
1,69,124,0
1,69,0,122
1,74,127,710
1,74,0,60
1,78,124,292
1,78,0,30
1,76,124,0
1,76,0,30
1,79,124,0
1,79,0,60
1,76,124,0
1,76,0,60
1,79,124,0
1,79,0,30
1,76,124,0
1,76,0,90
1,79,124,0
1,79,0,120
1,72,124,0
1,72,0,60
1,72,124,0
1,72,0,30
1,72,124,0
1,72,0,30
1,72,124,0
1,72,0,90
1,69,124,0
1,69,0,72
1,67,124,182
1,67,0,60
1,69,124,0
1,69,0,60
1,67,124,0
1,67,0,60
1,69,124,0
1,69,0,60
1,67,124,0
1,67,0,60
1,69,124,0
1,69,0,60
1,69,124,0
1,69,0,60
1,73,124,0
1,73,0,120
1,69,124,0
1,69,0,240
1,73,111,540
1,73,0,60
1,76,111,0
1,76,0,60
1,69,111,0
1,69,0,60
1,74,124,540
1,74,0,120
1,74,127,60
1,74,0,62
1,74,124,476
1,74,0,60
1,72,124,0
1,72,0,60
1,74,124,0
1,74,0,60
1,72,124,0
1,72,0,60
1,76,124,0
1,76,0,60
1,74,124,0
1,74,0,60
1,72,124,0
1,72,0,60
1,69,124,0
1,69,0,60
1,72,124,0
1,72,0,60
1,72,124,0
1,72,0,118
1,67,124,2
1,67,0,122
1,72,124,0
1,72,0,30
1,72,124,0
1,72,0,90
1,69,124,120
1,69,0,60
1,67,124,0
1,67,0,60
1,72,124,0
1,72,0,60
1,72,124,0
1,72,0,120
1,72,124,0
1,72,0,180
1,72,124,300
1,72,0,180
1,69,124,0
1,69,0,60
1,67,124,0
1,67,0,60
1,69,127,0
1,69,0,60
1,69,127,0
1,69,0,120
1,69,127,0
1,69,0,180
1,69,127,600
1,69,0,30
1,67,127,0
1,67,0,90
1,69,127,0
1,69,0,60
1,69,127,0
1,69,0,120
1,69,127,0
1,69,0,180
1,83,127,26
1,83,0,116
1,81,127,2
1,81,0,60
1,79,127,0
1,79,0,60
1,81,127,0
1,81,0,120
1,69,127,600
1,69,0,60
1,69,127,0
1,69,0,120
1,69,127,0
1,69,0,180
1,69,87,19080
1,69,0,120
1,72,87,120
1,72,0,120
1,74,87,120
1,74,0,120
1,76,87,120
1,76,0,840
1,74,87,0
1,74,0,60
1,72,87,0
1,72,0,60
1,78,87,0
1,78,0,4
1,76,87,0
1,76,0,120
1,74,87,0
1,74,0,354
1,69,87,1202
1,69,0,120
1,74,87,120
1,74,0,120
1,76,87,120
1,76,0,720
1,74,87,120
1,74,0,60
1,72,87,0
1,72,0,60
1,74,87,0
1,74,0,360
1,76,87,0
1,76,0,118
1,72,87,2
1,72,0,420
1,74,115,720
1,74,0,120
1,79,115,112
1,79,0,60
1,74,115,0
1,74,0,240
1,74,115,62
1,74,0,60
1,74,115,0
1,74,0,60
1,72,115,0
1,72,0,60
1,76,115,2
1,76,0,180
1,74,115,0
1,74,0,120
1,72,115,0
1,72,0,40
1,74,115,0
1,74,0,40
1,72,115,0
1,72,0,40
1,67,115,0
1,67,0,120
1,67,115,180
1,67,0,60
1,69,115,0
1,69,0,60
1,67,115,0
1,67,0,60
1,69,115,0
1,69,0,60
1,69,115,0
1,69,0,120
1,72,115,0
1,72,0,120
1,69,115,0
1,69,0,180
1,69,115,960
1,69,0,120
1,74,115,360
1,74,0,62
1,74,115,112
1,74,0,56
1,79,115,2
1,79,0,180
1,79,115,0
1,79,0,60
1,76,115,0
1,76,0,120
1,79,115,0
1,79,0,180
1,76,115,0
1,76,0,60
1,74,115,0
1,74,0,60
1,72,115,0
1,72,0,60
1,74,115,0
1,74,0,240
1,72,115,0
1,72,0,120
1,69,115,120
1,69,0,120
1,69,115,0
1,69,0,60
1,67,115,0
1,67,0,60
1,69,115,0
1,69,0,80
1,69,115,0
1,69,0,80
1,69,115,0
1,69,0,80
1,69,115,0
1,69,0,240
1,72,115,1080
1,72,0,120
1,72,115,0
1,72,0,60
1,69,115,0
1,69,0,120
1,71,115,0
1,71,0,60
1,71,115,0
1,71,0,90
1,79,115,524
1,79,0,120
1,76,115,0
1,76,0,60
1,79,115,0
1,79,0,80
1,79,115,0
1,79,0,80
1,74,115,2
1,74,0,120
1,81,115,284
1,81,0,60
1,79,115,0
1,79,0,60
1,81,115,0
1,81,0,60
1,76,115,0
1,76,0,120
1,81,115,300
1,81,0,420
1,81,115,0
1,81,0,60
1,76,115,0
1,76,0,60
1,81,100,900
1,81,0,60
1,81,100,0
1,81,0,60
1,81,100,0
1,81,0,120
1,76,100,0
1,76,0,120
1,83,100,1072
1,83,0,60
1,84,100,0
1,84,0,60
1,83,100,0
1,83,0,60
1,81,100,0
1,81,0,60
1,81,100,0
1,81,0,120
1,78,100,0
1,78,0,60
1,81,100,0
1,81,0,60
1,76,100,0
1,76,0,122
1,84,100,300
1,84,0,180
1,81,100,0
1,81,0,60
1,84,113,720
1,84,0,240
1,83,113,0
1,83,0,60
1,81,113,0
1,81,0,60
1,84,113,300
1,84,0,60
1,84,113,0
1,84,0,60
1,83,113,0
1,83,0,60
1,81,113,0
1,81,0,60
1,85,113,60
1,85,0,60
1,85,113,0
1,85,0,60
1,83,113,0
1,83,0,60
1,81,113,0
1,81,0,60
1,84,113,720
1,84,0,240
1,83,113,0
1,83,0,60
1,81,113,0
1,81,0,60
1,84,113,300
1,84,0,60
1,84,113,0
1,84,0,60
1,83,113,0
1,83,0,60
1,81,113,0
1,81,0,60
1,85,113,60
1,85,0,60
1,85,113,0
1,85,0,60
1,83,113,0
1,83,0,60
1,81,113,0
1,81,0,60
1,84,100,720
1,84,0,240
1,83,113,0
1,83,0,60
1,81,113,0
1,81,0,300
2,76,88,18098
2,76,0,120
2,76,88,120
2,76,0,120
2,78,88,120
2,78,0,120
2,79,88,120
2,79,0,1080
2,78,88,0
2,78,0,60
2,76,88,0
2,76,0,60
2,78,88,0
2,78,0,356
2,79,88,4
2,79,0,120
2,78,88,0
2,78,0,360
2,76,88,1422
2,76,0,120
2,78,88,120
2,78,0,120
2,79,88,120
2,79,0,1320
2,78,88,0
2,78,0,60
2,76,88,0
2,76,0,180
2,78,88,0
2,78,0,300
2,76,88,1418
2,76,0,120
2,78,88,120
2,78,0,120
2,79,88,120
2,79,0,1140
2,78,88,0
2,78,0,30
2,76,88,0
2,76,0,30
2,78,88,0
2,78,0,356
2,79,88,4
2,79,0,120
2,78,88,0
2,78,0,182
2,76,88,1404
2,76,0,120
2,78,88,120
2,78,0,120
2,79,88,120
2,79,0,720
2,78,88,600
2,78,0,60
2,76,88,0
2,76,0,60
2,78,88,0
2,78,0,360
2,79,88,0
2,79,0,120
2,78,88,0
2,78,0,176
2,76,87,41762
2,76,0,120
2,76,87,120
2,76,0,120
2,78,87,120
2,78,0,120
2,79,87,120
2,79,0,840
2,78,87,0
2,78,0,60
2,76,87,0
2,76,0,60
2,74,87,0
2,74,0,356
2,79,87,4
2,79,0,120
2,78,87,0
2,78,0,356
2,76,87,1204
2,76,0,120
2,78,87,120
2,78,0,120
2,79,87,120
2,79,0,720
2,78,87,120
2,78,0,60
2,76,87,0
2,76,0,60
2,78,87,0
2,78,0,360
2,79,87,0
2,79,0,118
2,76,87,2
2,76,0,418
3,76,70,32726
3,76,0,60
3,76,70,0
3,76,0,60
3,74,70,0
3,74,0,360
3,76,70,0
3,76,0,120
3,74,70,0
3,74,0,120
3,76,124,2
3,76,0,182
3,76,124,120
3,76,0,120
3,74,124,120
3,74,0,60
3,72,124,0
3,72,0,60
3,74,124,0
3,74,0,60
3,72,124,0
3,72,0,60
3,72,124,0
3,72,0,60
3,76,124,2
3,76,0,62
3,74,124,0
3,74,0,60
3,72,124,0
3,72,0,60
3,69,124,0
3,69,0,60
3,72,124,0
3,72,0,120
3,69,124,0
3,69,0,56
3,69,124,362
3,69,0,60
3,67,124,0
3,67,0,60
3,69,124,60
3,69,0,180
3,72,124,0
3,72,0,90
3,69,124,0
3,69,0,390
3,76,124,1200
3,76,0,120
3,74,124,0
3,74,0,60
3,76,124,112
3,76,0,120
3,69,124,0
3,69,0,120
3,74,124,120
3,74,0,60
3,72,124,0
3,72,0,60
3,74,124,0
3,74,0,60
3,72,124,0
3,72,0,60
3,76,124,0
3,76,0,120
3,74,124,0
3,74,0,60
3,72,124,0
3,72,0,60
3,69,124,0
3,69,0,120
3,72,124,0
3,72,0,120
3,69,124,0
3,69,0,60
3,69,124,174
3,69,0,60
3,67,124,0
3,67,0,60
3,69,124,0
3,69,0,30
3,67,124,0
3,67,0,90
3,72,124,60
3,72,0,80
3,72,124,0
3,72,0,80
3,72,124,0
3,72,0,80
3,72,124,0
3,72,0,300
3,69,124,0
3,69,0,122
3,74,127,710
3,74,0,60
3,78,124,292
3,78,0,30
3,76,124,0
3,76,0,30
3,79,124,0
3,79,0,60
3,76,124,0
3,76,0,60
3,79,124,0
3,79,0,30
3,76,124,0
3,76,0,90
3,79,124,0
3,79,0,120
3,72,124,0
3,72,0,60
3,72,124,0
3,72,0,30
3,72,124,0
3,72,0,30
3,72,124,0
3,72,0,90
3,69,124,0
3,69,0,72
3,67,124,182
3,67,0,60
3,69,124,0
3,69,0,60
3,67,124,0
3,67,0,60
3,69,124,0
3,69,0,60
3,67,124,0
3,67,0,60
3,69,124,0
3,69,0,60
3,69,124,0
3,69,0,60
3,73,124,0
3,73,0,120
3,69,124,0
3,69,0,240
3,73,111,540
3,73,0,60
3,76,111,0
3,76,0,60
3,69,111,0
3,69,0,60
3,74,124,540
3,74,0,120
3,74,127,60
3,74,0,62
3,74,124,476
3,74,0,60
3,72,124,0
3,72,0,60
3,74,124,0
3,74,0,60
3,72,124,0
3,72,0,60
3,76,124,0
3,76,0,60
3,74,124,0
3,74,0,60
3,72,124,0
3,72,0,60
3,69,124,0
3,69,0,60
3,72,124,0
3,72,0,60
3,72,124,0
3,72,0,118
3,67,124,2
3,67,0,122
3,72,124,0
3,72,0,30
3,72,124,0
3,72,0,90
3,69,124,120
3,69,0,60
3,67,124,0
3,67,0,60
3,72,124,0
3,72,0,60
3,72,124,0
3,72,0,120
3,72,124,0
3,72,0,180
3,72,124,300
3,72,0,180
3,69,124,0
3,69,0,60
3,67,124,0
3,67,0,60
3,69,127,0
3,69,0,60
3,69,127,0
3,69,0,120
3,69,127,0
3,69,0,180
3,69,127,600
3,69,0,30
3,67,127,0
3,67,0,90
3,69,127,0
3,69,0,60
3,69,127,0
3,69,0,120
3,69,127,0
3,69,0,180
3,83,127,26
3,83,0,116
3,81,127,2
3,81,0,60
3,79,127,0
3,79,0,60
3,81,127,0
3,81,0,120
3,69,127,600
3,69,0,60
3,69,127,0
3,69,0,120
3,69,127,0
3,69,0,180
3,74,115,26040
3,74,0,120
3,79,115,112
3,79,0,60
3,74,115,0
3,74,0,240
3,74,115,62
3,74,0,60
3,74,115,0
3,74,0,60
3,72,115,0
3,72,0,60
3,76,115,2
3,76,0,180
3,74,115,0
3,74,0,120
3,72,115,0
3,72,0,40
3,74,115,0
3,74,0,40
3,72,115,0
3,72,0,40
3,67,115,0
3,67,0,120
3,67,115,180
3,67,0,60
3,69,115,0
3,69,0,60
3,67,115,0
3,67,0,60
3,69,115,0
3,69,0,60
3,69,115,0
3,69,0,120
3,72,115,0
3,72,0,120
3,69,115,0
3,69,0,180
3,69,115,960
3,69,0,120
3,74,115,360
3,74,0,62
3,74,115,112
3,74,0,56
3,79,115,2
3,79,0,180
3,79,115,0
3,79,0,60
3,76,115,0
3,76,0,120
3,79,115,0
3,79,0,180
3,76,115,0
3,76,0,60
3,74,115,0
3,74,0,60
3,72,115,0
3,72,0,60
3,74,115,0
3,74,0,240
3,72,115,0
3,72,0,120
3,69,115,120
3,69,0,120
3,69,115,0
3,69,0,60
3,67,115,0
3,67,0,60
3,69,115,0
3,69,0,80
3,69,115,0
3,69,0,80
3,69,115,0
3,69,0,80
3,69,115,0
3,69,0,240
3,72,115,1080
3,72,0,120
3,72,115,0
3,72,0,60
3,69,115,0
3,69,0,120
3,71,115,0
3,71,0,60
3,71,115,0
3,71,0,90
3,79,115,524
3,79,0,120
3,76,115,0
3,76,0,60
3,79,115,0
3,79,0,80
3,79,115,0
3,79,0,80
3,74,115,2
3,74,0,120
3,81,115,284
3,81,0,60
3,79,115,0
3,79,0,60
3,81,115,0
3,81,0,60
3,76,115,0
3,76,0,120
3,81,115,300
3,81,0,420
3,81,115,0
3,81,0,60
3,76,115,0
3,76,0,60
4,57,99,33918
4,57,0,60
4,56,99,0
4,56,0,180
4,55,99,0
4,55,0,60
4,52,99,0
4,52,0,180
4,51,99,0
4,51,0,60
4,50,99,0
4,50,0,180
4,48,99,0
4,48,0,60
4,45,99,0
4,45,0,180
4,57,99,0
4,57,0,60
4,56,99,0
4,56,0,180
4,55,99,0
4,55,0,60
4,52,99,0
4,52,0,180
4,51,99,0
4,51,0,60
4,50,99,0
4,50,0,180
4,48,99,0
4,48,0,60
4,45,99,0
4,45,0,180
4,57,99,0
4,57,0,60
4,56,99,0
4,56,0,180
4,55,99,0
4,55,0,60
4,52,99,0
4,52,0,180
4,51,99,0
4,51,0,60
4,50,99,0
4,50,0,180
4,48,99,0
4,48,0,60
4,45,99,0
4,45,0,180
4,57,99,0
4,57,0,60
4,56,99,0
4,56,0,180
4,55,99,0
4,55,0,60
4,52,99,0
4,52,0,180
4,51,99,0
4,51,0,60
4,50,99,0
4,50,0,180
4,48,99,0
4,48,0,60
4,45,99,0
4,45,0,180
4,45,89,0
4,45,0,120
4,45,89,0
4,45,0,120
4,57,89,0
4,57,0,240
4,55,89,0
4,55,0,60
4,57,89,0
4,57,0,60
