track,note,velocity,time
0,76,80,217
0,69,45,1
0,79,90,46
0,76,0,44
0,79,0,0
0,76,80,5
0,79,90,2
0,76,0,42
0,76,69,3
0,79,0,10
0,76,0,21
0,76,90,1
0,69,0,41
0,76,0,3
0,69,68,5
0,69,0,33
0,69,69,14
0,76,56,47
0,76,0,31
0,76,89,2
0,76,0,44
0,76,55,2
0,79,90,2
0,79,0,44
0,79,85,2
0,76,0,44
0,76,65,6
0,79,0,5
0,76,0,26
0,76,85,2
0,69,0,33
0,69,63,15
0,76,0,5
0,69,0,28
0,69,69,11
0,76,56,50
0,76,0,31
0,76,89,2
0,76,0,42
0,76,55,2
0,78,90,2
0,78,0,44
0,78,85,3
0,76,0,43
0,76,65,7
0,78,0,4
0,76,0,27
0,76,85,13
0,69,63,17
0,76,0,2
0,69,0,31
0,69,69,14
0,76,56,50
0,76,0,31
0,76,89,0
0,76,0,44
0,76,55,4
0,78,90,2
0,78,0,44
0,78,90,2
0,76,0,44
0,76,69,3
0,78,0,8
0,76,0,23
0,78,90,17
0,76,49,5
0,69,68,2
0,76,0,29
0,69,0,4
0,76,89,11
0,69,58,4
0,76,0,40
0,76,56,8
0,76,0,31
0,76,89,0
0,76,0,44
0,79,90,3
0,76,55,2
0,79,0,42
0,79,90,5
0,76,0,45
0,76,69,5
0,79,0,5
0,76,0,26
0,76,90,13
0,69,68,6
0,69,0,33
0,69,69,17
0,76,56,48
0,76,0,31
0,76,89,1
0,76,0,43
0,76,55,2
0,79,90,2
0,79,0,44
0,79,85,3
0,76,0,43
0,76,65,6
0,79,0,6
0,76,0,25
0,76,85,16
0,69,63,12
0,76,0,4
0,69,0,29
0,69,69,16
0,76,56,49
0,76,0,31
0,76,89,13
0,76,55,5
0,78,90,1
0,78,0,44
0,78,85,3
0,76,0,44
0,76,65,4
0,78,0,7
0,76,0,24
0,76,85,16
0,69,63,15
0,76,0,1
0,69,0,32
0,69,69,14
0,76,56,47
0,76,0,31
0,76,89,1
0,76,0,44
0,78,90,2
0,76,55,3
0,78,0,41
0,78,90,7
0,76,0,44
0,76,69,2
0,78,0,9
0,76,0,22
0,78,90,15
0,45,104,5
0,69,0,30
0,78,0,7
0,76,49,5
0,69,68,2
0,76,0,29
0,69,0,4
0,76,89,12
0,33,70,2
0,35,79,0
0,40,55,0
0,44,47,0
0,55,55,0
0,69,58,2
0,35,0,2
0,40,0,0
0,44,0,0
0,55,0,0
0,57,86,9
0,52,92,1
0,76,0,28
0,40,26,6
0,76,56,2
0,40,0,2
0,33,0,14
0,40,26,6
0,40,0,4
0,76,0,5
0,33,68,15
0,76,89,0
0,40,25,0
0,40,0,4
0,40,26,20
0,40,0,4
0,76,0,16
0,79,90,2
0,40,25,2
0,40,0,4
0,33,0,14
0,40,25,6
0,40,0,4
0,79,0,14
0,76,80,5
0,33,72,1
0,35,81,0
0,40,26,0
0,44,49,0
0,79,90,1
0,35,0,3
0,40,0,0
0,44,0,0
0,40,27,20
0,40,0,4
0,76,0,15
0,76,69,3
0,40,28,2
0,40,0,4
0,79,0,4
0,33,0,10
0,40,26,6
0,40,0,4
0,76,0,1
0,33,69,19
0,40,26,0
0,76,90,1
0,40,0,3
0,40,30,20
0,40,0,4
0,69,0,8
0,76,0,9
0,40,27,3
0,69,68,2
0,40,0,2
0,33,0,18
0,40,31,2
0,40,0,4
0,69,0,7
0,33,73,13
0,35,83,0
0,40,28,0
0,44,51,0
0,69,69,1
0,35,0,3
0,40,0,0
0,44,0,0
0,40,27,20
0,40,0,4
0,76,56,20
0,40,33,0
0,40,0,4
0,40,31,20
0,33,0,4
0,40,0,0
0,76,0,3
0,33,79,17
0,40,30,0
0,76,89,2
0,40,0,2
0,40,34,20
0,40,0,4
0,76,0,18
0,76,55,2
0,40,29,0
0,79,90,2
0,40,0,2
0,33,0,14
0,40,31,6
0,40,0,4
0,79,0,18
0,33,76,2
0,79,85,0
0,35,86,0
0,40,36,0
0,44,54,0
0,35,0,4
0,40,0,0
0,44,0,0
0,40,32,20
0,40,0,4
0,76,0,16
0,40,31,4
0,76,65,2
0,40,0,2
0,79,0,3
0,33,0,11
0,40,36,6
0,40,0,4
0,76,0,5
0,33,76,15
0,40,31,0
0,76,85,2
0,40,0,2
0,45,0,7
0,45,99,3
0,40,31,10
0,40,0,4
0,69,0,7
0,40,31,13
0,69,63,2
0,40,0,2
0,76,0,3
0,40,38,17
0,40,0,4
0,69,0,7
0,33,0,5
0,69,69,6
0,35,78,2
0,35,89,0
0,40,38,0
0,44,57,0
0,45,0,1
0,52,0,2
0,35,0,1
0,40,0,0
0,44,0,0
0,57,0,4
0,47,104,4
0,40,33,12
0,40,0,4
0,76,56,20
0,40,32,0
0,40,0,4
0,35,0,16
0,40,31,4
0,40,0,4
0,76,0,3
0,35,78,17
0,40,33,0
0,76,89,2
0,40,0,2
0,40,32,20
0,40,0,4
0,76,0,16
0,76,55,2
0,78,90,2
0,40,35,0
0,40,0,4
0,35,0,14
0,40,36,6
0,40,0,4
0,78,0,16
0,78,85,3
0,35,77,1
0,35,91,0
0,40,41,0
0,44,59,0
0,35,0,4
0,40,0,0
0,44,0,0
0,40,40,20
0,40,0,4
0,76,0,14
0,40,39,6
0,76,65,2
0,40,0,2
0,78,0,2
0,35,0,12
0,40,40,6
0,40,0,4
0,76,0,5
0,76,85,13
0,35,79,2
0,40,35,0
0,57,95,4
0,62,88,0
0,40,0,0
0,40,36,20
0,40,0,4
0,69,0,4
0,40,42,16
0,69,63,1
0,76,0,2
0,40,0,1
0,35,0,14
0,40,41,6
0,40,0,4
0,69,0,6
0,35,83,14
0,69,69,0
0,35,93,0
0,40,43,0
0,44,61,0
0,35,0,4
0,40,0,0
0,44,0,0
0,40,36,20
0,40,0,4
0,40,43,20
0,76,56,2
0,40,0,2
0,40,35,20
0,35,0,4
0,40,0,0
0,76,0,5
0,35,89,15
0,76,89,0
0,40,39,0
0,40,0,4
0,40,39,20
0,40,0,4
0,76,0,16
0,76,55,4
0,40,40,0
0,78,90,2
0,40,0,2
0,35,0,14
0,40,46,6
0,40,0,4
0,57,0,11
0,78,0,7
0,35,86,2
0,78,90,0
0,55,99,0
0,35,96,0
0,40,39,0
0,44,64,0
0,35,0,4
0,40,0,0
0,44,0,0
0,40,37,20
0,40,0,4
0,76,0,16
0,76,69,3
0,40,42,1
0,40,0,4
0,78,0,3
0,35,0,11
0,40,46,6
0,40,0,4
0,76,0,2
0,78,90,17
0,35,87,1
0,40,41,0
0,47,0,3
0,40,0,1
0,47,100,2
0,40,39,18
0,40,0,4
0,69,0,6
0,78,0,9
0,76,49,5
0,40,49,0
0,69,68,2
0,40,0,2
0,47,0,20
0,40,42,0
0,40,0,4
0,76,0,3
0,69,0,4
0,35,0,3
0,76,89,8
0,36,86,2
0,35,99,0
0,40,41,0
0,44,67,0
0,69,58,2
0,35,0,2
0,40,0,0
0,44,0,0
0,48,95,5
0,40,49,15
0,40,0,4
0,76,0,14
0,40,44,6
0,76,56,2
0,40,0,2
0,62,0,12
0,40,50,8
0,40,0,4
0,36,0,2
0,76,0,3
0,36,88,15
0,76,89,0
0,40,43,0
0,40,0,4
0,40,47,20
0,40,0,4
0,76,0,16
0,79,90,3
0,40,43,1
0,76,55,1
0,40,0,3
0,36,0,14
0,40,42,6
0,40,0,4
0,79,0,15
0,36,89,5
0,79,90,0
0,35,101,0
0,40,44,0
0,44,69,0
0,35,0,4
0,40,0,0
0,44,0,0
0,40,49,20
0,40,0,4
0,76,0,17
0,40,47,3
0,76,69,2
0,40,0,2
0,79,0,3
0,36,0,12
0,40,44,5
0,40,0,4
0,76,0,5
0,76,90,13
0,36,93,2
0,40,47,0
0,55,0,2
0,55,96,2
0,62,96,0
0,40,0,0
0,40,43,20
0,40,0,4
0,69,0,8
0,76,0,6
0,69,68,6
0,40,49,0
0,40,0,4
0,36,0,14
0,40,51,6
0,40,0,4
0,69,0,5
0,36,92,15
0,35,103,0
0,40,53,0
0,44,71,0
0,69,69,2
0,35,0,2
0,40,0,0
0,44,0,0
0,40,45,20
0,40,0,4
0,40,46,20
0,76,56,2
0,40,0,2
0,36,0,16
0,40,46,4
0,40,0,4
0,76,0,5
0,36,90,15
0,40,55,0
0,76,89,1
0,40,0,3
0,40,55,20
0,40,0,4
0,76,0,16
0,76,55,2
0,79,90,2
0,40,48,0
0,40,0,4
0,36,0,14
0,40,45,6
0,40,0,4
0,79,0,16
0,79,85,3
0,36,97,1
0,35,106,0
0,40,47,0
0,44,74,0
0,35,0,4
0,40,0,0
0,44,0,0
0,40,57,20
0,40,0,4
0,76,0,14
0,76,65,6
0,40,52,0
0,40,0,4
0,79,0,2
0,36,0,13
0,40,56,5
0,40,0,4
0,76,0,3
0,76,85,16
0,36,98,1
0,40,50,0
0,40,0,4
0,48,0,1
0,55,0,0
0,62,0,0
0,55,96,3
0,62,95,0
0,48,91,3
0,40,59,13
0,40,0,4
0,69,0,8
0,69,63,12
0,40,58,0
0,76,0,4
0,40,0,0
0,36,0,14
0,40,58,6
0,40,0,4
0,69,0,5
0,36,98,15
0,35,109,0
0,40,50,0
0,44,77,0
0,69,69,1
0,35,0,3
0,40,0,0
0,44,0,0
0,40,60,20
0,40,0,4
0,40,55,20
0,76,56,2
0,40,0,2
0,36,0,17
0,40,61,3
0,40,0,4
0,76,0,5
0,76,89,13
0,36,101,2
0,40,52,0
0,40,0,4
0,40,58,20
0,40,0,4
0,76,0,14
0,76,55,5
0,78,90,1
0,40,50,0
0,40,0,4
0,36,0,14
0,40,51,6
0,40,0,4
0,55,0,15
0,78,0,1
0,78,85,3
0,36,100,1
0,55,96,0
0,35,111,0
0,40,51,0
0,44,79,0
0,35,0,4
0,40,0,0
0,44,0,0
0,40,60,20
0,40,0,4
0,76,0,15
0,76,65,4
0,40,58,1
0,40,0,4
0,78,0,2
0,36,0,16
0,40,54,2
0,40,0,4
0,76,0,2
0,76,85,16
0,36,103,2
0,40,58,0
0,55,0,2
0,40,0,2
0,62,0,1
0,55,104,4
0,62,103,1
0,40,52,14
0,40,0,4
0,69,0,7
0,40,60,13
0,69,63,2
0,76,0,1
0,40,0,1
0,36,0,14
0,40,62,6
0,40,0,4
0,69,0,7
0,36,105,13
0,35,113,0
0,40,64,0
0,44,81,0
0,69,69,1
0,35,0,3
0,40,0,0
0,44,0,0
0,40,55,20
0,40,0,4
0,76,56,20
0,40,57,0
0,40,0,4
0,36,0,14
0,40,57,6
0,40,0,4
0,76,0,3
0,36,106,17
0,40,66,0
0,76,89,1
0,40,0,3
0,40,66,20
0,40,0,4
0,76,0,17
0,78,90,2
0,40,58,1
0,76,55,2
0,40,0,2
0,36,0,18
0,40,56,2
0,40,0,4
0,78,0,15
0,36,105,5
0,35,119,0
0,40,58,0
0,44,87,0
0,78,90,2
0,35,0,2
0,40,0,0
0,44,0,0
0,62,0,12
0,55,0,2
0,62,105,1
0,55,107,2
0,40,67,3
0,40,0,4
0,76,0,18
0,76,69,2
0,40,63,0
0,40,0,4
0,78,0,5
0,36,0,9
0,40,67,6
0,40,0,4
0,76,0,3
0,78,90,15
0,36,110,2
0,40,61,0
0,40,0,4
0,40,70,20
0,48,0,1
0,40,0,3
0,69,0,7
0,78,0,7
0,76,49,5
0,40,68,1
0,69,68,1
0,40,0,3
0,40,68,20
0,40,0,4
0,76,0,2
0,69,0,4
0,36,0,11
0,55,0,0
0,62,0,0
0,31,104,3
0,43,106,0
0,55,82,0
0,62,72,0
0,35,119,0
0,49,69,0
0,51,75,0
0,67,73,1
0,74,73,0
0,35,0,3
0,49,0,0
0,51,0,0
0,31,0,62
0,31,96,30
0,51,62,0
0,51,0,4
0,31,0,62
0,62,94,24
0,62,0,3
0,31,104,3
0,62,74,0
0,40,99,0
0,51,79,0
0,40,0,4
0,51,0,0
0,31,0,62
0,67,0,24
0,62,0,3
0,31,96,3
0,67,90,0
0,35,91,0
0,51,59,0
0,35,0,4
0,51,0,0
0,67,0,31
0,74,0,0
0,31,0,35
0,60,89,24
0,31,104,2
0,35,119,0
0,51,76,0
0,35,0,4
0,51,0,0
0,62,0,2
0,31,0,70
0,31,96,20
0,62,65,0
0,51,58,0
0,59,96,1
0,51,0,3
0,60,0,13
0,31,0,49
0,31,104,30
0,59,54,0
0,40,99,0
0,51,79,0
0,57,87,2
0,40,0,2
0,51,0,0
0,59,0,4
0,31,0,58
0,57,0,23
0,62,0,3
0,55,85,3
0,31,96,1
0,62,78,0
0,35,75,0
0,51,59,0
0,35,0,4
0,51,0,0
0,59,0,82
0,31,0,2
0,45,107,2
0,43,0,3
0,55,0,0
0,33,104,3
0,57,82,0
0,35,119,0
0,51,75,0
0,35,0,4
0,51,0,0
0,50,89,1
0,55,0,8
0,33,0,53
0,62,0,25
0,33,96,5
0,35,103,0
0,51,62,0
0,35,0,4
0,51,0,0
0,33,0,62
0,50,0,24
0,33,104,6
0,62,70,0
0,40,99,0
0,51,79,0
0,62,87,1
0,40,0,3
0,51,0,0
0,33,0,62
0,33,96,30
0,67,88,0
0,35,91,0
0,51,59,0
0,35,0,4
0,51,0,0
0,33,0,66
0,62,0,23
0,33,104,3
0,35,119,0
0,51,76,0
0,60,90,1
0,35,0,3
0,51,0,0
0,62,0,7
0,33,0,65
0,33,96,20
0,62,67,0
0,51,58,0
0,59,83,3
0,51,0,1
0,60,0,19
0,33,0,43
0,62,0,27
0,33,104,3
0,60,79,0
0,40,99,0
0,51,79,0
0,57,82,3
0,40,0,1
0,51,0,0
0,59,0,11
0,33,0,51
0,67,0,27
0,33,96,3
0,67,64,0
0,51,59,0
0,59,99,4
0,51,0,0
0,57,0,20
0,60,0,54
0,47,102,7
0,45,0,2
0,33,0,1
0,57,0,5
0,67,0,0
0,35,104,3
0,59,82,0
0,35,119,0
0,51,75,0
0,35,0,4
0,51,0,0
0,35,0,62
0,35,96,30
0,51,62,0
0,51,0,4
0,35,0,62
0,35,104,30
0,62,70,0
0,40,99,0
0,51,79,0
0,62,92,4
0,40,0,0
0,51,0,0
0,59,0,4
0,35,0,58
0,35,96,30
0,67,88,0
0,35,91,0
0,51,59,0
0,35,0,4
0,51,0,0
0,35,0,66
0,62,0,23
0,60,85,2
0,35,104,1
0,35,119,0
0,51,76,0
0,35,0,4
0,51,0,0
0,62,0,3
0,35,0,69
0,67,0,17
0,35,96,3
0,62,59,0
0,67,78,0
0,51,58,0
0,59,80,1
0,51,0,3
0,60,0,22
0,35,0,40
0,62,0,27
0,35,104,3
0,62,66,0
0,40,99,0
0,51,79,0
0,40,0,4
0,51,0,0
0,57,83,1
0,59,0,27
0,35,0,34
0,67,0,27
0,28,96,3
0,67,78,0
0,51,59,0
0,55,85,4
0,51,0,0
0,57,0,2
0,62,0,72
0,47,0,4
0,48,106,4
0,28,0,4
0,59,0,3
0,59,86,1
0,36,104,2
0,60,82,0
0,35,119,0
0,51,75,0
0,35,0,4
0,51,0,0
0,55,0,24
0,36,0,58
0,28,96,10
0,51,62,0
0,51,0,4
0,67,81,40
0,59,0,9
0,28,0,25
0,36,104,18
0,40,99,0
0,51,79,0
0,40,0,4
0,51,0,0
0,59,86,66
0,67,0,11
0,36,0,5
0,50,100,7
0,28,96,3
0,35,91,0
0,51,59,0
0,35,0,4
0,51,0,0
0,48,0,2
0,28,0,72
0,60,0,15
0,67,0,0
0,38,104,3
0,52,96,0
0,62,82,0
0,35,119,0
0,51,76,0
0,35,0,4
0,51,0,0
0,60,84,4
0,59,0,5
0,50,0,14
0,38,0,49
0,38,96,20
0,55,115,0
0,51,58,0
0,51,0,4
0,52,0,2
0,67,77,25
0,60,0,18
0,38,0,17
0,38,104,30
0,40,99,0
0,51,79,0
0,40,0,4
0,51,0,0
0,60,82,50
0,67,0,10
0,38,0,2
0,38,96,30
0,51,59,0
0,51,0,4
0,38,0,84
0,55,0,2
0,62,0,3
0,31,104,3
0,43,106,0
0,55,88,0
0,62,70,0
0,67,76,0
