track,note,velocity,time
1,40,120,0
1,40,0,34
1,40,110,1
1,40,0,54
1,40,110,6
1,40,0,54
1,40,110,6
1,40,0,54
1,40,110,6
1,40,0,60
1,40,110,0
1,40,0,54
1,40,110,6
1,40,0,54
1,40,110,6
1,40,0,49
1,40,120,11
1,40,0,60
1,50,90,0
1,57,90,0
1,62,90,0
1,62,0,180
1,57,0,0
1,50,0,0
1,45,90,0
1,52,90,0
1,57,90,0
1,61,90,0
1,61,0,120
1,45,0,0
1,52,0,0
1,57,0,0
1,50,90,0
1,57,90,0
1,62,90,0
1,62,0,120
1,57,0,0
1,50,0,0
1,40,110,0
1,40,0,60
1,40,110,0
1,40,0,54
1,40,110,6
1,40,0,54
1,40,110,6
1,40,0,54
1,40,110,6
1,40,0,60
1,40,110,0
1,40,0,54
1,40,110,6
1,40,0,54
1,40,110,6
1,40,0,54
1,40,120,6
1,40,0,60
1,50,90,0
1,57,90,0
1,62,90,0
1,62,0,180
1,57,0,0
1,50,0,0
1,45,90,0
1,52,90,0
1,57,90,0
1,61,90,0
1,61,0,120
1,45,0,0
1,52,0,0
1,57,0,0
1,50,90,0
1,57,90,0
1,62,90,0
1,62,0,120
1,57,0,0
1,50,0,0
1,40,110,0
1,40,0,60
1,40,110,0
1,40,0,54
1,40,110,6
1,40,0,54
1,40,110,6
1,40,0,54
1,40,110,6
1,40,0,60
1,40,110,0
1,40,0,54
1,40,110,6
1,40,0,54
1,40,110,6
1,40,0,54
1,40,120,6
1,40,0,60
1,50,90,0
1,57,90,0
1,62,90,0
1,62,0,180
1,57,0,0
1,50,0,0
1,45,90,0
1,52,90,0
1,57,90,0
1,61,90,0
1,61,0,120
1,45,0,0
1,52,0,0
1,57,0,0
1,50,90,0
1,57,90,0
1,62,90,0
1,62,0,120
1,57,0,0
1,50,0,0
1,40,110,0
1,40,0,60
1,40,110,0
1,40,0,54
1,40,110,6
1,40,0,54
1,40,110,6
1,40,0,54
1,40,110,6
1,40,0,60
1,40,110,0
1,40,0,54
1,40,110,6
1,40,0,54
1,40,110,6
1,40,0,54
1,40,120,6
1,40,0,60
1,50,90,0
1,57,90,0
1,62,90,0
1,62,0,180
1,57,0,0
1,50,0,0
1,45,90,0
1,52,90,0
1,57,90,0
1,61,90,0
1,61,0,120
1,45,0,0
1,52,0,0
1,57,0,0
1,50,90,0
1,57,90,0
1,62,90,0
1,62,0,120
1,57,0,0
1,50,0,0
1,40,110,0
1,40,0,60
1,40,110,0
1,40,0,54
1,40,110,6
1,40,0,54
1,40,110,6
1,40,0,54
1,40,110,6
1,40,0,60
1,40,110,0
1,40,0,54
1,40,110,6
1,40,0,54
1,40,110,6
1,40,0,54
1,40,120,6
1,40,0,60
1,50,90,0
1,57,90,0
1,62,90,0
1,62,0,180
1,57,0,0
1,50,0,0
1,45,90,0
1,52,90,0
1,57,90,0
1,61,90,0
1,61,0,120
1,45,0,0
1,52,0,0
1,57,0,0
1,50,90,0
1,57,90,0
1,62,90,0
1,62,0,120
1,57,0,0
1,50,0,0
1,40,110,0
1,40,0,60
1,40,110,0
1,40,0,54
1,40,110,6
1,40,0,54
1,40,110,6
1,40,0,54
1,40,110,6
1,40,0,60
1,40,110,0
1,40,0,54
1,40,110,6
1,40,0,54
1,40,110,6
1,40,0,54
1,40,120,6
1,40,0,60
1,50,90,0
1,57,90,0
1,62,90,0
1,62,0,180
1,57,0,0
1,50,0,0
1,45,90,0
1,52,90,0
1,57,90,0
1,61,90,0
1,61,0,120
1,45,0,0
1,52,0,0
1,57,0,0
1,50,90,0
1,57,90,0
1,62,90,0
1,62,0,120
1,57,0,0
1,50,0,0
1,40,110,0
1,40,0,60
1,40,110,0
1,40,0,54
1,40,110,6
1,40,0,54
1,40,110,6
1,40,0,54
1,40,110,6
1,40,0,60
1,40,110,0
1,40,0,54
1,40,110,6
1,40,0,54
1,40,110,6
1,40,0,54
1,40,120,6
1,40,0,60
1,50,90,0
1,57,90,0
1,62,90,0
1,62,0,180
1,57,0,0
1,50,0,0
1,45,90,0
1,52,90,0
1,57,90,0
1,61,90,0
1,61,0,120
1,45,0,0
1,52,0,0
1,57,0,0
1,50,90,0
1,57,90,0
1,62,90,0
1,62,0,120
1,57,0,0
1,50,0,0
1,40,110,0
1,40,0,60
1,40,110,0
1,40,0,54
1,40,110,6
1,40,0,54
1,40,110,6
1,40,0,54
1,40,110,6
1,40,0,60
1,40,110,0
1,40,0,54
1,40,110,6
1,40,0,54
1,40,110,6
1,40,0,54
1,40,120,6
1,40,0,60
1,50,90,0
1,57,90,0
1,62,90,0
1,62,0,180
1,57,0,0
1,50,0,0
1,45,90,0
1,52,90,0
1,57,90,0
1,61,90,0
1,61,0,120
1,45,0,0
1,52,0,0
1,57,0,0
1,50,90,0
1,57,90,0
1,62,90,0
1,62,0,120
1,57,0,0
1,50,0,0
1,40,110,0
1,40,0,60
1,40,110,0
1,40,0,54
1,40,110,6
1,40,0,54
1,40,110,6
1,40,0,54
1,40,110,6
1,40,0,60
1,40,110,0
1,40,0,54
1,40,110,6
1,40,0,54
1,40,110,6
1,40,0,54
1,40,120,6
1,40,0,60
1,50,90,0
1,57,90,0
1,62,90,0
1,62,0,180
1,57,0,0
1,50,0,0
1,45,90,0
1,52,90,0
1,57,90,0
1,61,90,0
1,61,0,120
1,45,0,0
1,52,0,0
1,57,0,0
1,50,90,0
1,57,90,0
1,62,90,0
1,62,0,120
1,57,0,0
1,50,0,0
1,40,110,0
1,40,0,60
1,40,110,0
1,40,0,54
1,40,110,6
1,40,0,54
1,40,110,6
1,40,0,54
1,40,110,6
1,40,0,60
1,40,110,0
1,40,0,54
1,40,110,6
1,40,0,54
1,40,110,6
1,40,0,54
1,40,120,6
1,40,0,60
1,50,90,0
1,57,90,0
1,62,90,0
1,62,0,180
1,57,0,0
1,50,0,0
1,45,90,0
1,52,90,0
1,57,90,0
1,61,90,0
1,61,0,120
1,45,0,0
1,52,0,0
1,57,0,0
1,50,90,0
1,57,90,0
1,62,90,0
1,62,0,120
1,57,0,0
1,50,0,0
1,40,110,0
1,40,0,60
1,40,110,0
1,40,0,54
1,40,110,6
1,40,0,54
1,40,110,6
1,40,0,54
1,40,110,6
1,40,0,60
1,40,110,0
1,40,0,54
1,40,110,6
1,40,0,54
1,40,110,6
1,40,0,54
1,40,120,6
1,40,0,60
1,50,90,0
1,57,90,0
1,62,90,0
1,62,0,180
1,57,0,0
1,50,0,0
1,45,90,0
1,52,90,0
1,57,90,0
1,61,90,0
1,61,0,120
1,45,0,0
1,52,0,0
1,57,0,0
1,50,90,0
1,57,90,0
1,62,90,0
1,62,0,120
1,57,0,0
1,50,0,0
1,40,110,0
1,40,0,60
1,40,110,0
1,40,0,54
1,40,110,6
1,40,0,54
1,40,110,6
1,40,0,54
1,40,110,6
1,40,0,60
1,40,110,0
1,40,0,54
1,40,110,6
1,40,0,54
1,40,110,6
1,40,0,54
1,40,120,6
1,40,0,60
1,50,90,0
1,57,90,0
1,62,90,0
1,62,0,180
1,57,0,0
1,50,0,0
1,45,90,0
1,52,90,0
1,57,90,0
1,61,90,0
1,61,0,120
1,45,0,0
1,52,0,0
1,57,0,0
1,50,90,0
1,57,90,0
1,62,90,0
1,62,0,60
1,57,0,0
1,50,0,0
1,45,100,0
1,45,0,60
1,45,100,0
1,52,100,0
1,52,0,60
1,45,0,0
1,45,100,0
1,52,100,0
1,52,0,60
1,45,0,0
1,45,100,0
1,52,100,0
1,52,0,60
1,45,0,0
1,48,100,0
1,52,100,0
1,48,0,60
1,49,100,0
1,49,0,60
1,52,0,0
1,45,100,0
1,52,100,0
1,52,0,60
1,45,0,0
1,54,100,0
1,45,100,0
1,45,0,60
1,54,0,0
1,45,100,0
1,52,100,0
1,55,100,0
1,61,100,0
1,61,0,120
1,45,0,0
1,52,0,0
1,55,0,0
1,45,100,0
1,52,100,0
1,52,0,60
1,45,0,0
1,45,100,0
1,54,100,0
1,54,0,60
1,45,0,0
1,45,100,0
1,52,100,0
1,52,0,60
1,45,0,0
1,45,100,0
1,52,100,0
1,52,0,60
1,45,0,0
1,45,100,0
1,52,100,0
1,52,0,60
1,45,0,0
1,45,100,0
1,54,100,0
1,54,0,60
1,45,0,0
1,61,100,0
1,55,100,0
1,52,100,0
1,45,100,0
1,45,0,120
1,61,0,0
1,55,0,0
1,52,0,0
1,45,100,0
1,52,100,0
1,52,0,60
1,45,0,0
1,45,100,0
1,54,100,0
1,54,0,60
1,45,0,0
1,45,100,0
1,52,100,0
1,52,0,60
1,45,0,0
1,45,100,0
1,52,100,0
1,52,0,60
1,45,0,0
1,45,100,0
1,52,100,0
1,52,0,60
1,45,0,0
1,45,100,0
1,54,100,0
1,54,0,60
1,45,0,0
1,61,100,0
1,55,100,0
1,52,100,0
1,45,100,0
1,45,0,120
1,61,0,0
1,55,0,0
1,52,0,0
1,45,100,0
1,52,100,0
1,52,0,60
1,45,0,0
1,45,100,0
1,54,100,0
1,54,0,60
1,45,0,0
1,45,100,0
1,52,100,0
1,52,0,60
1,45,0,0
1,45,100,0
1,52,100,0
1,52,0,60
1,45,0,0
1,45,100,0
1,52,100,0
1,52,0,60
1,45,0,0
1,45,100,0
1,54,100,0
1,54,0,60
1,45,0,0
1,45,100,0
1,52,100,0
1,52,0,60
1,45,0,0
1,47,100,0
1,54,100,0
1,54,0,60
1,47,0,0
1,47,100,0
1,54,100,0
1,54,0,60
1,47,0,0
1,47,100,0
1,56,100,0
1,56,0,60
1,47,0,0
1,47,100,0
1,54,100,0
1,54,0,60
1,47,0,0
1,47,100,0
1,54,100,0
1,54,0,60
1,47,0,0
1,47,100,0
1,54,100,0
1,54,0,60
1,47,0,0
1,47,100,0
1,56,100,0
1,56,0,60
1,47,0,0
1,63,100,0
1,57,100,0
1,54,100,0
1,47,100,0
1,47,0,120
1,63,0,0
1,57,0,0
1,54,0,0
1,47,100,0
1,54,100,0
1,54,0,60
1,47,0,0
1,47,100,0
1,56,100,0
1,56,0,60
1,47,0,0
1,47,100,0
1,54,100,0
1,54,0,60
1,47,0,0
1,47,100,0
1,54,100,0
1,54,0,60
1,47,0,0
1,47,100,0
1,54,100,0
1,54,0,60
1,47,0,0
1,47,100,0
1,56,100,0
1,56,0,60
1,47,0,0
1,63,100,0
1,57,100,0
1,54,100,0
1,47,100,0
1,47,0,120
1,63,0,0
1,57,0,0
1,54,0,0
1,47,100,0
1,54,100,0
1,54,0,60
1,47,0,0
1,47,100,0
1,56,100,0
1,56,0,60
1,47,0,0
1,47,100,0
1,54,100,0
1,54,0,60
1,47,0,0
1,47,100,0
1,54,100,0
1,54,0,60
1,47,0,0
1,47,100,0
1,54,100,0
1,54,0,60
1,47,0,0
1,47,100,0
1,56,100,0
1,56,0,60
1,47,0,0
1,63,100,0
1,57,100,0
1,54,100,0
1,47,100,0
1,47,0,120
1,63,0,0
1,57,0,0
1,54,0,0
1,47,100,0
1,54,100,0
1,54,0,60
1,47,0,0
1,47,100,0
1,56,100,0
1,56,0,60
1,47,0,0
1,47,100,0
1,54,100,0
1,54,0,60
1,47,0,0
1,47,100,0
1,54,100,0
1,54,0,60
1,47,0,0
1,47,100,0
1,54,100,0
1,54,0,60
1,47,0,0
1,47,100,0
1,56,100,0
1,56,0,60
1,47,0,0
1,47,100,0
1,54,100,0
1,54,0,60
1,47,0,0
1,40,120,0
1,40,0,34
1,40,110,1
1,40,0,54
1,40,110,6
1,40,0,54
1,40,110,6
1,40,0,54
1,40,110,6
1,40,0,60
1,40,110,0
1,40,0,54
1,40,110,6
1,40,0,54
1,40,110,6
1,40,0,49
1,40,120,11
1,40,0,60
1,50,90,0
1,57,90,0
1,62,90,0
1,62,0,180
1,57,0,0
1,50,0,0
1,45,90,0
1,52,90,0
1,57,90,0
1,61,90,0
1,61,0,120
1,45,0,0
1,52,0,0
1,57,0,0
1,50,90,0
1,57,90,0
1,62,90,0
1,62,0,120
1,57,0,0
1,50,0,0
1,40,110,0
1,40,0,60
1,40,110,0
1,40,0,54
1,40,110,6
1,40,0,54
1,40,110,6
1,40,0,54
1,40,110,6
1,40,0,60
1,40,110,0
1,40,0,54
1,40,110,6
1,40,0,54
1,40,110,6
1,40,0,54
1,40,120,6
1,40,0,60
1,50,90,0
1,57,90,0
1,62,90,0
1,62,0,180
1,57,0,0
1,50,0,0
1,45,90,0
1,52,90,0
1,57,90,0
1,61,90,0
1,61,0,120
1,45,0,0
1,52,0,0
1,57,0,0
1,50,90,0
1,57,90,0
1,62,90,0
1,62,0,120
1,57,0,0
1,50,0,0
1,40,110,0
1,40,0,60
1,40,110,0
1,40,0,54
1,40,110,6
1,40,0,54
1,40,110,6
1,40,0,54
1,40,110,6
1,40,0,60
1,40,110,0
1,40,0,54
1,40,110,6
1,40,0,54
1,40,110,6
1,40,0,54
1,40,120,6
1,40,0,60
1,50,90,0
1,57,90,0
1,62,90,0
1,62,0,180
1,57,0,0
1,50,0,0
1,45,90,0
1,52,90,0
1,57,90,0
1,61,90,0
1,61,0,120
1,45,0,0
1,52,0,0
1,57,0,0
1,50,90,0
1,57,90,0
1,62,90,0
1,62,0,120
1,57,0,0
1,50,0,0
1,40,110,0
1,40,0,60
1,40,110,0
1,40,0,54
1,40,110,6
1,40,0,54
1,40,110,6
1,40,0,54
1,40,110,6
1,40,0,60
1,40,110,0
1,40,0,54
1,40,110,6
1,40,0,54
1,40,110,6
1,40,0,54
1,40,120,6
1,40,0,60
1,50,90,0
1,57,90,0
1,62,90,0
1,62,0,180
1,57,0,0
1,50,0,0
1,45,90,0
1,52,90,0
1,57,90,0
1,61,90,0
1,61,0,120
1,45,0,0
1,52,0,0
1,57,0,0
1,50,90,0
1,57,90,0
1,62,90,0
1,62,0,120
1,57,0,0
1,50,0,0
1,40,110,0
1,40,0,60
1,40,110,0
1,40,0,54
1,40,110,6
1,40,0,54
1,40,110,6
1,40,0,54
1,40,110,6
1,40,0,60
1,40,110,0
1,40,0,54
1,40,110,6
1,40,0,54
1,40,110,6
1,40,0,54
1,40,120,6
1,40,0,60
1,50,90,0
1,57,90,0
1,62,90,0
1,62,0,180
1,57,0,0
1,50,0,0
1,45,90,0
1,52,90,0
1,57,90,0
1,61,90,0
1,61,0,120
1,45,0,0
1,52,0,0
1,57,0,0
1,50,90,0
1,57,90,0
1,62,90,0
1,62,0,120
1,57,0,0
1,50,0,0
1,40,110,0
1,40,0,60
1,40,110,0
1,40,0,54
1,40,110,6
1,40,0,54
1,40,110,6
1,40,0,54
1,40,110,6
1,40,0,60
1,40,110,0
1,40,0,54
1,40,110,6
1,40,0,54
1,40,110,6
1,40,0,54
1,40,120,6
1,40,0,60
1,50,90,0
1,57,90,0
1,62,90,0
1,62,0,180
1,57,0,0
1,50,0,0
1,45,90,0
1,52,90,0
1,57,90,0
1,61,90,0
1,61,0,120
1,45,0,0
1,52,0,0
1,57,0,0
1,50,90,0
1,57,90,0
1,62,90,0
1,62,0,120
1,57,0,0
1,50,0,0
1,40,110,0
1,40,0,60
1,40,110,0
1,40,0,54
1,40,110,6
1,40,0,54
1,40,110,6
1,40,0,54
1,40,110,6
1,40,0,60
1,40,110,0
1,40,0,54
1,40,110,6
1,40,0,54
1,40,110,6
1,40,0,54
1,40,120,6
1,40,0,60
1,50,90,0
1,57,90,0
1,62,90,0
1,62,0,180
1,57,0,0
1,50,0,0
1,45,90,0
1,52,90,0
1,57,90,0
1,61,90,0
1,61,0,120
1,45,0,0
1,52,0,0
1,57,0,0
1,50,90,0
1,57,90,0
1,62,90,0
1,62,0,120
1,57,0,0
1,50,0,0
1,40,110,0
1,40,0,60
1,40,110,0
1,40,0,54
1,40,110,6
1,40,0,54
1,40,110,6
1,40,0,54
1,40,110,6
1,40,0,60
1,40,110,0
1,40,0,54
1,40,110,6
1,40,0,54
1,40,110,6
1,40,0,54
1,40,120,6
1,40,0,60
1,50,90,0
1,57,90,0
1,62,90,0
1,62,0,180
