track,note,velocity,time
1,47,104,8064
1,47,90,42
1,45,84,47
1,45,91,47
1,45,92,94
1,41,93,46
1,41,93,93
1,46,116,90
1,49,102,1
1,36,115,1
1,38,119,50
1,46,125,1
1,46,99,43
1,46,100,20
1,36,118,0
1,36,114,24
1,46,101,4
1,38,108,16
1,46,118,4
1,36,114,25
1,46,110,4
1,46,110,20
1,46,104,26
1,36,113,2
1,46,116,12
1,38,104,1
1,46,107,21
1,46,110,22
1,36,112,1
1,38,115,18
1,46,105,1
1,36,114,3
1,46,112,11
1,38,113,3
1,38,116,36
1,46,106,22
1,57,111,2
1,46,127,8
1,36,122,57
1,46,127,1
1,46,124,22
1,38,121,4
1,46,123,58
1,46,127,47
1,36,119,4
1,36,120,53
1,46,124,1
1,36,7,3
1,46,124,45
1,38,115,5
1,36,107,52
1,46,127,1
1,46,127,53
1,46,127,47
1,36,107,5
1,46,127,7
1,38,114,1
1,46,116,48
1,46,125,56
1,36,116,2
1,36,121,53
1,46,117,1
1,46,127,50
1,40,91,2
1,47,110,2
1,45,107,4
1,36,109,29
1,46,127,1
1,41,108,2
1,49,95,55
1,36,127,31
1,46,122,1
1,38,117,25
1,46,124,3
1,46,127,50
1,36,117,51
1,46,127,3
1,46,127,50
1,36,124,1
1,36,4,4
1,38,124,48
1,46,127,1
1,36,107,47
1,46,127,3
1,46,124,53
1,36,118,48
1,46,127,3
1,38,107,11
1,46,127,0
1,46,114,54
1,36,117,51
1,46,123,2
1,36,127,49
1,46,118,3
1,46,127,52
1,40,99,0
1,47,110,5
1,45,108,0
1,46,125,34
1,36,97,2
1,41,109,0
1,46,127,57
1,46,123,51
1,36,127,4
1,38,119,20
1,46,127,4
1,46,123,53
1,36,113,48
1,46,127,4
1,36,125,49
1,46,127,2
1,36,1,2
1,38,116,48
1,46,125,0
1,36,118,49
1,46,120,2
1,46,124,52
1,36,117,52
1,46,123,1
1,46,127,8
1,38,106,2
1,46,123,52
1,46,126,50
1,36,118,1
1,36,121,52
1,38,117,3
1,46,114,0
1,46,126,53
1,38,97,2
1,38,106,3
1,36,100,32
1,46,127,3
1,36,113,8445
1,53,108,0
1,53,115,15
1,53,116,20
1,36,121,3
1,53,113,16
1,38,123,1
1,53,108,20
1,36,118,19
1,53,116,2
1,53,112,13
1,36,126,2
1,38,126,19
1,53,106,4
1,36,115,15
1,53,118,3
1,53,110,18
1,49,108,14
1,36,114,2
1,53,111,19
1,38,120,1
1,53,117,16
1,36,121,3
1,53,116,20
1,48,105,2
1,41,113,18
1,47,105,2
1,53,112,0
1,47,105,35
1,41,125,2
1,53,117,15
1,38,105,2
1,41,106,33
1,53,111,17
1,36,123,2
1,53,104,19
1,53,111,17
1,36,120,2
1,53,115,18
1,38,126,5
1,53,107,21
1,53,115,17
1,36,123,0
1,53,113,20
1,36,123,1
1,53,107,16
1,38,123,2
1,36,125,19
1,53,106,0
1,53,107,20
1,49,114,15
1,36,113,0
1,53,108,19
1,38,114,2
1,53,115,20
1,36,121,0
1,53,105,18
1,47,107,46
1,53,113,16
1,45,118,2
1,45,115,35
1,38,106,18
1,53,109,2
1,41,108,36
1,36,112,14
1,53,108,0
1,53,113,18
1,53,110,21
1,36,126,1
1,53,118,16
1,38,114,1
1,53,113,19
1,36,124,16
1,53,107,1
1,53,104,18
1,36,122,2
1,38,123,19
1,53,108,1
1,36,126,14
1,53,106,2
1,53,114,21
1,36,121,13
1,53,117,4
1,38,122,16
1,53,105,2
1,36,124,14
1,53,113,4
1,36,125,20
1,53,118,14
1,40,126,46
1,53,117,14
1,47,113,0
1,47,110,17
1,53,110,17
1,45,118,2
1,36,123,23
1,53,110,0
1,53,112,13
1,53,109,20
1,36,119,1
1,53,105,20
1,53,106,18
1,38,113,48
1,53,117,12
1,36,122,4
1,36,119,17
1,53,118,2
1,38,116,18
1,53,108,1
1,53,113,19
1,36,123,0
1,53,111,16
1,36,118,20
1,53,113,1
1,53,118,13
1,38,117,5
1,53,110,22
1,53,110,19
1,36,119,0
1,40,126,10
1,53,110,16
1,45,124,2
1,47,109,11
1,45,105,15
1,53,104,2
1,41,107,40
1,36,118,18
1,53,109,2
1,53,104,18
1,53,113,14
1,36,116,4
1,38,123,18
1,53,110,4
1,53,114,17
1,38,124,45
1,53,106,17
1,38,126,49
1,36,114,13
1,53,112,2
1,36,126,17
1,38,117,12
1,53,113,5
1,36,116,18
1,53,115,12
1,36,112,3
1,53,118,21
1,36,122,16
1,53,105,4
1,53,111,17
1,38,119,1
1,36,123,14
1,53,110,3
1,53,112,15
1,42,112,4
1,46,125,11
1,53,104,15
1,42,113,3
1,44,105,15
1,38,116,18
1,53,115,1
1,41,110,36
1,36,120,19
1,53,106,2
1,53,107,18
1,53,111,14
1,36,112,5
1,53,107,18
1,38,117,3
1,53,105,20
1,36,121,16
1,53,110,1
1,53,111,18
1,36,120,4
1,38,119,17
1,53,117,2
1,53,115,20
1,36,113,0
1,53,117,16
1,36,123,18
1,49,116,3
1,53,113,13
1,38,119,3
1,36,124,20
1,53,114,1
1,53,104,20
1,48,104,0
1,48,96,40
1,50,108,13
1,53,105,1
1,50,114,40
1,53,113,17
1,44,105,5
1,46,118,32
1,53,106,19
1,36,122,3
1,53,114,19
1,53,116,17
1,38,124,48
1,53,118,14
1,36,122,3
1,53,106,22
1,53,106,16
1,36,118,3
1,53,114,17
1,36,116,0
1,38,117,19
1,53,107,3
1,53,108,13
1,36,118,4
1,53,111,22
1,36,112,15
1,53,118,2
1,38,115,15
1,53,117,3
1,53,116,16
1,36,118,2
1,36,116,14
1,53,109,17
1,40,125,45
1,53,112,18
1,41,121,1
1,41,113,12
1,53,109,18
1,38,118,1
1,41,118,33
1,36,123,15
1,53,115,2
1,53,105,20
1,36,114,13
1,53,107,2
1,53,117,19
1,38,118,2
1,53,116,17
1,38,112,46
1,53,114,18
1,38,118,47
1,53,117,13
1,36,113,0
1,36,124,17
1,53,117,15
1,38,126,2
1,36,115,14
1,53,115,13
1,36,122,2
1,53,118,21
1,53,116,15
1,36,117,4
1,38,121,17
1,53,117,2
1,53,104,16
1,36,117,0
1,36,117,18
1,46,116,3
1,36,117,15
1,38,117,15
1,46,118,4
1,38,117,15
1,46,106,14
1,36,117,0
1,36,117,15
1,46,127,17
1,46,127,53
1,36,120,2
1,46,121,22
1,38,121,3
1,46,127,56
1,46,126,50
1,36,121,0
1,46,127,49
1,36,117,0
1,36,1,7
1,46,127,46
1,38,115,1
1,36,109,48
1,46,125,4
1,46,124,53
1,36,105,50
1,46,127,0
1,46,122,7
1,38,114,5
1,46,121,52
1,36,117,53
1,46,120,3
1,38,101,3
1,46,125,38
1,36,127,0
1,40,101,7
1,46,123,36
1,36,127,2
1,47,112,4
1,45,103,24
1,46,127,1
1,41,104,6
1,46,126,36
1,36,127,51
1,46,127,1
1,46,125,22
1,38,121,2
1,46,126,55
1,36,121,50
1,46,121,2
1,36,114,51
1,46,126,2
1,36,1,3
1,46,127,46
1,38,126,2
1,46,127,48
1,36,114,2
1,46,127,59
1,36,106,47
1,46,127,4
1,38,116,9
1,46,120,4
1,46,123,48
1,46,127,53
1,36,112,3
1,47,116,3
1,47,116,27
1,46,118,3
1,45,98,7
1,45,98,33
1,46,127,1
1,41,112,33
1,46,121,33
1,41,112,0
1,38,127,4
1,46,127,10
1,46,127,50
1,36,127,4
1,46,122,22
1,38,116,1
1,46,124,54
1,46,123,51
1,36,115,3
1,46,127,49
1,36,117,5
1,36,7,9
1,46,127,44
1,38,115,2
1,36,112,50
1,46,127,3
1,46,127,49
1,49,111,0
1,36,105,55
1,46,122,1
1,38,115,7
1,46,126,3
1,46,116,47
1,36,112,53
1,46,127,1
1,36,127,50
1,46,122,5
1,47,107,54
1,46,127,2
1,40,93,1
1,45,96,29
1,46,123,29
1,41,107,4
1,36,101,1
1,46,120,58
1,36,127,53
1,46,123,2
1,38,113,22
1,46,127,4
1,46,125,52
1,46,126,50
1,36,112,3
1,46,123,51
1,36,115,2
1,36,8,5
1,46,127,46
1,38,122,4
1,46,127,48
1,36,112,2
1,36,126,54
1,53,115,0
1,53,116,17
1,53,114,17
1,38,122,0
1,53,109,20
1,38,113,49
1,36,115,11
1,53,109,1
1,38,121,17
1,53,106,5
1,53,110,14
1,38,114,52
1,53,109,12
1,36,114,0
1,53,107,18
1,38,124,47
1,53,109,15
1,42,123,2
1,44,114,12
1,36,114,17
1,53,116,2
1,47,98,17
1,53,105,2
1,47,100,13
1,53,118,0
1,45,92,27
1,41,91,20
1,53,118,3
1,41,100,25
1,53,116,17
1,53,112,15
1,36,114,1
1,38,104,14
1,53,116,18
1,36,112,4
1,53,104,17
1,36,124,20
1,53,109,0
1,38,116,16
1,53,109,5
1,38,117,14
1,53,110,3
1,38,114,15
1,53,107,14
1,46,117,4
1,53,114,20
1,53,118,18
1,38,120,3
1,36,114,16
1,53,112,3
1,53,117,16
1,53,109,17
1,36,114,3
1,38,124,22
1,53,113,1
1,36,126,16
1,53,115,2
1,36,125,16
1,53,117,11
1,40,123,48
1,53,117,16
1,47,113,3
1,47,114,16
1,53,107,21
1,45,105,1
1,41,110,33
1,53,110,18
1,36,126,1
1,53,117,17
1,53,114,18
1,36,116,2
1,53,104,18
1,38,125,2
1,53,105,18
1,53,107,19
1,36,126,1
1,53,115,14
1,38,123,4
1,53,111,18
1,44,106,1
1,36,123,6
1,38,123,11
1,53,117,3
1,53,111,18
1,36,121,15
1,53,114,1
1,38,126,18
1,53,104,2
1,53,108,19
1,36,122,15
1,53,104,2
1,42,122,18
1,46,113,12
1,53,109,1
1,44,117,16
1,53,117,18
1,41,104,3
1,41,109,31
1,53,107,18
1,36,123,1
1,53,110,19
1,36,126,17
1,53,109,2
1,38,122,14
1,53,118,3
1,53,108,19
1,53,107,15
1,44,117,1
1,38,123,36
1,36,122,14
1,53,105,2
1,44,101,19
1,44,95,180
1,44,95,186
1,45,109,88
1,45,72,44
1,41,79,44
1,41,81,50
1,45,92,92
1,41,80,43
1,46,120,93
1,49,79,0
1,36,124,56
1,46,127,1
1,38,122,12
1,46,124,5
1,46,125,53
1,46,122,50
1,36,112,2
1,46,127,50
1,36,123,2
1,36,1,7
1,38,123,45
1,46,127,1
1,36,117,46
1,46,127,2
1,46,127,56
1,46,127,47
1,36,104,0
1,46,120,11
1,38,118,3
1,46,118,50
1,46,125,57
1,36,107,0
1,38,127,47
1,46,117,3
1,38,119,57
1,46,124,1
1,38,119,1
1,46,120,26
1,57,98,0
1,46,127,56
1,46,126,53
1,36,127,1
1,38,126,19
1,46,124,2
1,46,123,52
1,46,127,52
1,36,125,0
1,36,117,51
1,46,124,4
1,36,1,3
1,46,123,46
1,38,116,3
1,36,104,47
1,46,127,3
1,46,127,51
1,46,125,56
1,36,111,0
1,46,127,4
1,38,118,5
1,46,121,54
1,36,115,51
1,46,127,0
1,36,127,55
1,46,122,1
1,40,92,51
1,47,117,1
1,46,124,3
1,45,100,26
1,49,105,32
1,36,109,2
1,41,107,3
1,45,104,7963
1,45,81,47
1,41,84,41
1,41,91,47
1,45,92,94
1,41,93,46
1,46,127,2
1,46,123,50
1,57,109,0
1,36,127,2
1,46,127,23
1,38,122,2
1,46,123,52
1,46,127,53
1,36,117,0
1,46,123,49
1,36,116,5
1,38,126,55
1,46,127,1
1,46,127,49
1,36,109,1
1,46,126,51
1,36,108,52
1,46,127,2
1,38,105,10
1,46,127,2
1,46,114,50
1,36,108,54
1,46,127,2
1,46,120,47
1,36,127,2
1,47,109,52
1,46,127,1
1,40,89,3
1,45,96,3
1,41,117,28
1,36,106,1
1,46,127,1
1,46,127,53
1,36,127,54
1,46,123,4
1,46,124,24
1,38,125,3
1,46,123,54
1,46,127,51
1,36,118,4
1,36,126,50
1,46,127,1
1,36,1,9
1,38,114,46
1,46,127,1
1,36,118,43
1,46,126,5
1,46,127,54
1,46,127,46
1,36,104,1
1,38,108,12
1,46,124,0
1,46,118,52
1,36,117,50
1,46,121,4
1,36,125,47
1,46,116,4
1,40,101,54
1,46,123,3
1,44,109,37
1,42,115,27
1,36,96,0
1,46,122,2
1,46,127,53
1,36,126,55
1,46,127,2
1,38,121,26
1,46,126,0
1,46,127,52
1,46,124,50
1,36,119,4
1,46,127,49
1,36,117,1
1,36,1,11
1,38,117,43
1,46,127,3
1,46,122,44
1,36,108,3
1,46,124,54
1,36,107,52
1,46,127,1
1,46,127,9
1,38,116,4
1,46,113,51
1,36,105,54
1,46,127,2
1,38,99,50
1,46,118,1
1,46,127,59
1,38,97,0
1,38,82,32
1,52,104,34
1,46,127,2
1,46,127,51
1,46,124,56
1,36,125,1
1,46,127,21
1,38,113,0
1,46,127,57
1,46,124,49
1,36,126,3
1,36,118,49
1,46,127,2
1,36,1,5
1,46,127,50
1,38,114,0
1,46,124,47
1,36,109,1
1,46,127,51
1,36,108,56
1,46,122,0
1,46,127,4
1,38,107,5
1,46,118,52
1,46,127,57
1,36,104,1
1,46,124,48
1,36,127,1
1,40,96,52
1,46,120,5
1,47,116,0
1,45,101,25
1,46,127,30
1,41,114,0
1,49,92,4
1,36,105,1
2,57,6,1533
2,21,1,0
2,33,100,386
2,33,94,3
2,32,108,5
2,33,98,2
2,29,91,5
2,21,7,1
2,57,8,1
2,33,103,384
2,33,102,2
2,32,107,8
2,33,97,0
2,29,83,7
2,21,1,860
2,57,3,0
2,33,100,385
2,33,91,6
2,32,104,2
2,33,107,7
2,29,87,45
2,33,105,3
2,33,80,2
2,42,78,15
2,42,75,7
2,40,96,5
2,40,96,7
2,40,93,10
2,40,91,45
2,40,80,6
2,40,72,10
2,38,102,6
2,38,77,9
2,38,86,8
2,38,86,2
2,38,85,3
2,36,106,4
2,28,97,11
2,29,119,1
2,33,124,10
2,36,121,45
2,38,105,9
2,41,114,0
2,40,99,13
2,33,99,28
2,33,100,48
2,33,97,2
2,33,108,7
2,33,110,122
2,33,107,14
2,33,108,5
2,33,108,13
2,33,113,103
2,33,114,26
2,33,106,12
2,33,117,9
2,33,96,102
2,37,100,18
2,40,94,5
2,45,105,15
2,33,123,109
2,33,115,50
2,33,101,22
2,40,115,75
2,33,121,4
2,33,119,14
2,33,116,8
2,33,117,9
2,33,125,113
2,33,113,29
2,33,119,10
2,33,111,18
2,33,127,107
2,36,106,37
2,40,127,6
2,45,121,13
2,33,121,20
2,33,122,49
2,33,106,7
2,33,109,5
2,33,120,109
2,30,119,15
2,30,114,10
2,33,122,9
2,33,123,107
2,33,110,31
2,33,117,7
2,33,107,10
2,33,98,101
2,37,109,16
2,40,90,9
2,45,122,11
2,33,117,20
2,33,108,61
2,33,110,15
2,33,100,21
2,33,113,128
2,33,117,20
2,33,117,10
2,33,102,12
2,33,109,103
2,33,105,32
2,33,116,12
2,33,107,4
2,33,100,107
2,37,101,13
2,40,100,12
2,45,123,13
2,33,58,92
2,21,1,2
2,57,1,2
2,33,106,35
2,33,95,7
2,32,97,2
2,33,97,4
2,29,80,6
2,57,6,859
2,21,1,0
2,33,100,386
2,33,94,3
2,32,108,5
2,33,98,2
2,29,91,5
2,21,7,1
2,57,8,1
2,33,103,384
2,33,102,2
2,32,107,8
2,33,97,45
2,29,83,7
2,21,1,860
2,57,3,2
2,33,100,385
2,33,91,6
2,32,104,2
2,33,107,7
2,29,87,0
2,33,105,3
2,33,80,2
2,42,78,15
2,42,75,7
2,40,96,5
2,40,96,7
2,40,93,10
2,40,91,0
2,40,80,6
2,40,72,10
2,38,102,6
2,38,77,9
2,38,86,8
2,38,86,2
2,38,85,3
2,36,106,4
2,28,97,11
2,29,119,1
2,33,124,10
2,36,121,45
2,38,105,9
2,41,114,45
2,40,99,13
2,33,99,28
2,33,100,48
2,33,97,2
2,33,108,7
2,33,110,122
2,33,107,14
2,33,108,5
2,33,108,13
2,33,113,103
2,33,114,26
2,33,106,12
2,33,117,9
2,33,96,102
2,37,100,18
2,40,94,5
2,45,105,15
2,33,123,109
2,33,115,50
