track,note,velocity,time
1,74,115,3024
1,74,0,46
1,76,115,2
1,76,0,160
1,76,115,32
1,76,0,142
1,76,115,2
1,76,0,142
1,71,115,194
1,71,0,94
1,76,115,2
1,76,0,94
1,76,115,2
1,76,0,142
1,76,115,2
1,76,0,46
1,71,115,2
1,71,0,94
1,74,115,2
1,74,0,94
1,76,115,2
1,76,0,94
1,80,115,338
1,80,0,46
1,80,115,2
1,80,0,46
1,81,115,2
1,81,0,142
1,82,115,2
1,82,0,46
1,82,115,2
1,82,0,94
1,82,115,2
1,82,0,94
1,76,115,2
1,76,0,142
1,71,115,2
1,71,0,94
1,71,115,530
1,71,0,46
1,71,115,2
1,71,0,46
1,71,115,2
1,71,0,46
1,76,115,2
1,76,0,94
1,76,115,2
1,76,0,142
1,78,115,2
1,78,0,142
1,71,115,338
1,71,0,46
1,76,115,2
1,76,0,94
1,76,115,2
1,76,0,142
1,76,115,2
1,76,0,46
1,71,115,2
1,71,0,46
1,74,115,2
1,74,0,94
1,74,115,2
1,74,0,46
1,76,115,2
1,76,0,46
1,76,115,338
1,76,0,94
1,80,115,2
1,80,0,62
1,81,115,2
1,81,0,62
1,82,115,2
1,82,0,110
1,81,115,2
1,81,0,94
1,81,115,2
1,81,0,22
1,82,115,2
1,82,0,22
1,81,115,2
1,81,0,94
1,81,115,2
1,81,0,94
1,79,115,2
1,79,0,48
1,76,115,0
1,76,0,304
1,74,115,1760
1,74,0,94
1,74,115,2
1,74,0,94
1,74,115,2
1,74,0,94
1,71,115,1394
1,71,0,46
1,76,115,2
1,76,0,94
1,74,115,2
1,74,0,46
1,76,115,2
1,76,0,94
1,80,115,2
1,80,0,142
1,74,115,290
1,74,0,94
1,76,115,2
1,76,0,94
1,74,115,2
1,74,0,94
1,80,115,2
1,80,0,46
1,80,115,2
1,80,0,94
1,76,115,2
1,76,0,46
1,74,115,2
1,74,0,46
1,74,115,2
1,74,0,46
1,80,115,482
1,80,0,62
1,81,115,2
1,81,0,62
1,82,115,2
1,82,0,126
1,82,115,2
1,82,0,62
1,82,115,2
1,81,115,64
1,82,0,0
1,81,0,160
1,80,115,32
1,80,0,142
1,78,115,2
1,78,0,48
1,76,115,0
1,74,115,192
1,76,0,0
1,74,0,46
1,71,115,194
1,71,0,46
1,71,115,2
1,71,0,46
1,71,115,2
1,71,0,46
1,76,115,2
1,76,0,142
1,76,115,2
1,76,0,94
1,79,115,2
1,79,0,48
1,80,115,0
1,80,0,94
1,74,115,290
1,74,0,94
1,76,115,2
1,76,0,94
1,76,115,2
1,76,0,94
1,76,115,2
1,76,0,94
1,74,115,2
1,74,0,94
1,74,115,2
1,74,0,94
1,76,115,2
1,76,0,94
1,76,115,290
1,76,0,94
1,80,115,2
1,80,0,62
1,81,115,2
1,81,0,62
1,82,115,2
1,82,0,110
1,82,115,2
1,81,115,144
1,82,0,0
1,81,0,160
1,80,115,80
1,80,0,142
1,76,115,2
1,76,0,94
1,76,115,2
1,74,115,48
1,76,0,0
1,74,0,46
1,81,115,1634
1,81,0,256
1,79,115,32
1,79,0,336
1,74,115,3936
1,74,0,94
1,74,115,2
1,74,0,94
1,74,115,2
1,74,0,94
1,74,115,2
1,74,0,190
1,76,115,2
1,76,0,94
1,76,115,2
1,74,115,48
1,76,0,0
1,74,0,94
1,74,115,242
1,74,0,46
1,68,115,2
1,68,0,46
1,68,115,2
1,68,0,46
1,76,115,2
1,76,0,94
1,76,115,2
1,76,0,94
1,78,115,2
1,78,0,46
1,71,115,2
1,71,0,94
1,74,115,2
1,74,0,94
1,76,115,2
1,76,0,46
1,74,115,386
1,74,0,94
1,80,115,2
1,80,0,62
1,81,115,2
1,81,0,62
1,82,115,2
1,82,0,62
1,83,115,2
1,83,0,94
1,76,115,2
1,76,0,190
1,76,115,2
1,76,0,46
1,73,115,2
1,73,0,46
1,71,115,674
1,71,0,94
1,76,115,2
1,76,0,142
1,76,115,2
1,76,0,142
1,74,115,2
1,74,0,48
1,76,115,0
1,76,0,46
1,71,115,290
1,71,0,94
1,76,115,2
1,76,0,94
1,76,115,2
1,76,0,46
1,78,115,2
1,78,0,94
1,76,115,2
1,76,0,94
1,74,115,2
1,74,0,94
1,76,115,2
1,76,0,46
1,74,115,386
1,74,0,94
1,80,115,2
1,80,0,46
1,81,115,2
1,81,0,94
1,81,115,2
1,81,0,94
1,81,115,2
1,81,0,94
1,82,115,50
1,81,115,96
1,82,0,0
1,81,0,256
1,82,115,32
1,82,0,94
1,78,115,2
1,76,115,48
1,78,0,0
1,76,0,208
1,83,115,7616
1,83,0,160
1,81,115,32
1,81,0,256
1,81,115,1664
1,81,0,46
1,83,115,2
1,83,0,46
1,81,115,2
1,81,0,142
1,81,115,2
1,81,0,46
1,81,115,2
1,83,115,48
1,81,0,0
1,83,0,46
1,83,115,338
1,83,0,46
1,81,115,2
1,81,0,46
1,79,115,2
1,79,0,46
1,81,115,2
1,81,0,48
1,83,115,0
1,83,0,46
1,81,115,482
1,81,0,46
1,81,115,2
1,81,0,46
1,81,115,2
1,81,0,46
1,79,115,2
1,79,0,46
1,81,115,2
1,81,0,142
1,81,115,2
1,81,0,46
1,81,115,2
1,81,0,46
1,81,115,2
1,81,0,46
1,79,115,2
1,79,0,46
1,81,115,2
1,83,115,48
1,81,0,0
1,83,0,94
1,83,115,2
1,83,0,142
1,81,115,2
1,81,0,46
1,79,115,2
1,79,0,46
1,76,115,2
1,76,0,46
1,82,115,578
1,82,0,62
1,81,115,2
1,81,0,62
1,79,115,2
1,79,0,62
1,81,115,2
1,82,115,48
1,81,0,0
1,82,0,142
1,82,115,242
1,82,0,46
1,82,115,2
1,82,0,94
1,81,115,2
1,81,0,94
1,79,115,2
1,79,0,94
1,76,115,2
1,76,0,160
1,81,115,320
1,81,0,94
1,81,115,2
1,81,0,46
1,79,115,2
1,79,0,46
1,82,115,2
1,82,0,190
1,82,115,2
1,82,0,94
1,81,115,2
1,81,0,94
1,82,115,98
1,82,0,46
1,82,115,2
1,82,0,94
1,80,115,2
1,80,0,94
1,78,115,2
1,78,0,94
1,74,115,2
1,73,115,48
1,74,0,0
1,73,0,94
1,76,115,674
1,76,0,46
1,76,115,2
1,76,0,94
1,76,115,2
1,76,0,142
1,78,115,2
1,78,0,46
1,80,115,2
1,80,0,142
1,76,115,290
1,76,0,46
1,76,115,2
1,76,0,94
1,76,115,2
1,76,0,46
1,74,115,2
1,74,0,94
1,76,115,98
1,76,0,238
1,71,115,2
1,71,0,142
1,76,115,146
1,76,0,46
1,80,115,2
1,80,0,46
1,82,115,2
1,82,0,46
1,82,115,2
1,82,0,94
1,82,115,2
1,82,0,94
1,82,115,2
1,81,115,192
1,82,0,0
1,81,0,190
1,82,115,2
1,82,0,142
1,76,115,2
1,74,115,96
1,76,0,0
1,74,0,46
1,70,115,290
1,70,0,46
1,74,115,2
1,74,0,46
1,76,115,2
1,76,0,142
1,76,115,2
1,76,0,142
1,78,115,2
1,78,0,94
1,76,115,338
1,76,0,46
1,76,115,2
1,76,0,46
1,76,115,2
1,76,0,142
1,80,115,2
1,80,0,94
1,76,115,2
1,76,0,94
1,74,115,2
1,74,0,94
1,76,115,2
1,76,0,94
1,76,115,338
1,76,0,46
1,80,115,2
1,80,0,46
1,81,115,2
1,81,0,94
1,81,115,2
1,81,0,94
1,81,115,2
1,81,0,94
1,82,115,2
1,81,115,48
1,82,0,0
1,81,0,160
1,83,115,32
1,83,0,46
1,79,115,2
1,76,115,96
1,79,0,0
1,76,0,142
1,71,115,386
1,71,0,94
1,76,115,2
1,76,0,142
1,76,115,2
1,76,0,142
1,79,115,2
1,79,0,190
1,71,115,242
1,71,0,46
1,76,115,2
1,76,0,94
1,76,115,2
1,76,0,94
1,79,115,2
1,79,0,46
1,76,115,2
1,76,0,94
1,74,115,2
1,76,115,48
1,74,0,0
1,76,0,94
1,76,115,2
1,76,0,94
1,80,115,386
1,80,0,46
1,81,115,2
1,81,0,94
1,81,115,2
1,81,0,94
1,81,115,2
1,81,0,94
1,81,115,2
1,80,115,48
1,81,0,0
1,80,0,160
1,78,115,80
1,78,0,142
1,76,115,2
1,74,115,48
1,76,0,0
1,74,0,46
1,71,115,338
1,71,0,46
1,71,115,2
1,71,0,46
1,71,115,2
1,71,0,46
1,76,115,2
1,76,0,94
1,76,115,2
1,76,0,160
1,79,115,32
1,79,0,190
1,71,115,242
1,71,0,46
1,76,115,2
1,76,0,94
1,76,115,2
1,76,0,94
1,80,115,2
1,80,0,46
1,76,115,2
1,76,0,46
1,74,115,2
1,74,0,48
1,76,115,0
1,76,0,94
1,76,115,2
1,76,0,46
1,76,115,386
1,76,0,94
1,79,115,2
1,79,0,46
1,81,115,2
1,81,0,94
1,82,115,2
1,82,0,94
1,82,115,2
1,82,0,94
1,82,115,2
1,83,115,48
1,82,0,0
1,82,115,48
1,83,0,0
1,82,0,144
1,82,115,0
1,82,0,256
1,83,115,32
1,83,0,94
1,76,115,50
1,76,0,46
1,74,115,2
1,74,0,190
1,74,115,2
1,74,0,96
2,52,100,0
2,52,0,46
2,54,100,2
2,54,0,46
2,55,100,2
2,55,0,46
2,57,100,2
2,57,0,142
2,52,100,2
2,52,0,46
2,54,100,2
2,54,0,46
2,55,100,2
2,55,0,46
2,57,100,2
2,57,0,142
2,52,100,2
2,52,0,46
2,54,100,2
2,54,0,46
2,55,100,2
2,55,0,46
2,57,100,2
2,57,0,46
2,71,100,14
2,71,0,82
2,69,100,2
2,69,0,94
2,66,100,2
2,66,0,46
2,64,100,2
2,64,0,46
2,61,100,2
2,61,0,46
2,57,100,2
2,57,0,46
2,52,100,386
2,52,0,46
2,54,100,2
2,54,0,46
2,55,100,2
2,55,0,46
2,57,100,2
2,57,0,142
2,52,100,2
2,52,0,46
2,54,100,2
2,54,0,46
2,55,100,2
2,55,0,46
2,57,100,2
2,57,0,142
2,52,100,2
2,52,0,46
2,54,100,2
2,54,0,46
2,55,100,2
2,55,0,46
2,57,100,2
2,57,0,46
2,71,100,14
2,71,0,82
2,69,100,2
2,69,0,94
2,66,100,2
2,66,0,46
2,64,100,2
2,64,0,46
2,61,100,2
2,61,0,46
2,57,100,2
2,57,0,46
2,64,100,386
2,59,100,0
2,68,100,0
2,64,0,46
2,59,0,0
2,68,0,0
2,64,100,2
2,59,100,0
2,68,100,0
2,59,0,46
2,64,0,0
2,68,0,0
2,62,100,2
2,57,100,0
2,66,100,0
2,66,0,32
2,62,0,0
2,57,0,0
2,68,100,64
2,64,100,0
2,59,100,0
2,68,0,46
2,59,0,0
2,64,0,0
2,64,100,2
2,59,100,0
2,68,100,0
2,64,0,46
2,68,0,0
2,59,0,0
2,59,100,2
2,64,100,0
2,68,100,0
2,68,0,46
2,64,0,0
2,59,0,0
2,66,100,2
2,62,100,0
2,57,100,0
2,57,0,46
2,66,0,0
2,62,0,0
2,59,100,386
2,68,100,0
2,64,100,0
2,59,0,46
2,64,0,0
2,68,0,0
2,64,100,2
2,59,100,0
2,68,100,0
2,59,0,46
2,68,0,0
2,64,0,0
2,57,100,2
2,62,100,0
2,66,100,0
2,62,0,32
2,57,0,0
2,66,0,0
2,64,100,64
2,59,100,0
2,68,100,0
2,59,0,46
2,68,0,0
2,64,0,0
2,64,100,2
2,68,100,0
2,59,100,0
2,68,0,46
2,59,0,0
2,64,0,0
2,68,100,2
2,59,100,0
2,64,100,0
2,59,0,46
2,68,0,0
2,64,0,0
2,62,100,2
2,66,100,0
2,57,100,0
2,57,0,46
2,66,0,0
2,62,0,0
2,64,100,386
2,68,100,0
2,59,100,0
2,59,0,46
2,64,0,0
2,68,0,0
2,64,100,2
2,68,100,0
2,59,100,0
2,64,0,46
2,59,0,0
2,68,0,0
2,57,100,2
2,62,100,0
2,66,100,0
2,62,0,32
2,66,0,0
2,57,0,0
2,59,100,64
2,64,100,0
2,68,100,0
2,64,0,46
2,59,0,0
2,68,0,0
2,59,100,2
2,68,100,0
2,64,100,0
2,64,0,46
2,59,0,0
2,68,0,0
2,64,100,2
2,59,100,0
2,68,100,0
2,68,0,46
2,59,0,0
2,64,0,0
2,57,100,2
2,66,100,0
2,62,100,0
2,62,0,46
2,66,0,0
2,57,0,0
2,66,100,338
2,57,100,0
2,62,100,0
2,57,0,46
2,66,0,0
2,62,0,0
2,64,100,2
2,59,100,0
2,68,100,0
2,64,0,46
2,68,0,0
2,59,0,0
2,64,100,2
2,68,100,0
2,59,100,0
2,68,0,46
2,59,0,0
2,64,0,0
2,62,100,2
2,66,100,0
2,57,100,0
2,57,0,32
2,62,0,0
2,66,0,0
2,64,100,64
2,59,100,0
2,68,100,0
2,64,0,46
2,59,0,0
2,68,0,0
2,64,100,2
2,68,100,0
2,59,100,0
2,68,0,46
2,64,0,0
2,59,0,0
2,59,100,2
2,68,100,0
2,64,100,0
2,59,0,46
2,64,0,0
2,68,0,0
2,57,100,2
2,62,100,0
2,66,100,0
2,57,0,46
2,66,0,0
2,62,0,0
2,64,100,386
2,68,100,0
2,59,100,0
2,64,0,46
2,59,0,0
2,68,0,0
2,59,100,2
2,64,100,0
2,68,100,0
2,68,0,46
2,59,0,0
2,64,0,0
2,66,100,2
2,62,100,0
2,57,100,0
2,66,0,32
2,57,0,0
2,62,0,0
2,59,100,64
2,68,100,0
2,64,100,0
2,64,0,46
2,68,0,0
2,59,0,0
2,59,100,2
2,68,100,0
2,64,100,0
2,68,0,46
2,59,0,0
2,64,0,0
2,68,100,2
2,64,100,0
2,59,100,0
2,64,0,46
2,68,0,0
2,59,0,0
2,57,100,2
2,62,100,0
2,66,100,0
2,66,0,46
2,62,0,0
2,57,0,0
2,66,100,338
2,57,100,0
2,62,100,0
2,57,0,46
2,62,0,0
2,66,0,0
2,59,100,2
2,68,100,0
2,64,100,0
2,68,0,46
2,59,0,0
2,64,0,0
2,68,100,2
2,59,100,0
2,64,100,0
2,68,0,46
2,59,0,0
2,64,0,0
2,62,100,2
2,66,100,0
2,57,100,0
2,62,0,32
2,57,0,0
2,66,0,0
2,68,100,64
2,64,100,0
2,59,100,0
2,59,0,46
2,68,0,0
2,64,0,0
2,64,100,2
2,68,100,0
2,59,100,0
2,59,0,46
2,64,0,0
2,68,0,0
2,64,100,2
2,68,100,0
2,59,100,0
2,68,0,46
2,64,0,0
2,59,0,0
2,62,100,2
2,66,100,0
2,57,100,0
2,66,0,46
2,62,0,0
2,57,0,0
2,59,100,386
2,68,100,0
2,64,100,0
2,59,0,46
2,64,0,0
2,68,0,0
2,64,100,2
2,59,100,0
2,68,100,0
2,68,0,46
2,59,0,0
2,64,0,0
2,66,100,2
2,57,100,0
2,62,100,0
2,62,0,32
2,66,0,0
2,57,0,0
2,64,100,64
2,59,100,0
2,68,100,0
2,64,0,46
2,59,0,0
2,68,0,0
2,64,100,2
2,68,100,0
2,59,100,0
2,68,0,46
2,64,0,0
2,59,0,0
2,64,100,2
2,68,100,0
2,59,100,0
2,68,0,46
2,64,0,0
2,59,0,0
2,57,100,2
2,66,100,0
2,62,100,0
2,57,0,46
2,66,0,0
2,62,0,0
2,66,100,338
2,57,100,0
2,62,100,0
2,62,0,46
2,66,0,0
2,57,0,0
2,59,100,2
2,68,100,0
2,64,100,0
2,59,0,46
2,68,0,0
2,64,0,0
2,59,100,2
2,68,100,0
2,64,100,0
2,68,0,46
2,59,0,0
2,64,0,0
2,66,100,2
2,62,100,0
2,57,100,0
2,62,0,32
2,66,0,0
2,57,0,0
2,68,100,64
2,64,100,0
2,59,100,0
2,64,0,46
2,68,0,0
2,59,0,0
2,64,100,2
2,59,100,0
2,68,100,0
2,64,0,46
2,59,0,0
2,68,0,0
2,64,100,2
2,59,100,0
2,68,100,0
2,64,0,46
2,59,0,0
2,68,0,0
2,57,100,2
2,66,100,0
2,62,100,0
2,57,0,46
2,66,0,0
2,62,0,0
2,52,100,386
2,52,0,46
2,54,100,2
2,54,0,46
2,55,100,2
2,55,0,46
2,57,100,2
2,57,0,142
