track,note,velocity,time
0,55,100,1344
0,43,100,0
0,45,100,4
0,57,100,0
0,57,100,4
0,55,100,100
0,43,100,0
0,45,100,4
0,57,100,0
0,57,100,4
0,55,100,100
0,43,100,0
0,45,100,4
0,57,100,0
0,57,100,4
0,55,100,100
0,43,100,0
0,45,100,4
0,57,100,0
0,57,100,4
0,64,100,100
0,57,100,0
0,55,100,0
0,43,100,0
0,43,100,0
0,40,127,0
0,64,100,4
0,57,100,0
0,44,100,0
0,40,127,0
0,69,100,4
0,64,100,0
0,57,100,0
0,57,100,0
0,45,100,0
0,74,100,0
0,69,100,0
0,65,100,0
0,45,100,0
0,57,127,0
0,36,127,0
0,74,100,4
0,69,100,0
0,65,100,0
0,33,100,0
0,36,127,0
0,74,100,4
0,69,100,0
0,65,100,0
0,33,100,0
0,42,127,96
0,40,127,0
0,74,100,4
0,69,100,0
0,65,100,0
0,45,100,0
0,74,100,4
0,69,100,0
0,65,100,0
0,33,100,0
0,42,127,0
0,33,100,4
0,42,127,0
0,36,127,0
0,73,100,4
0,69,100,0
0,64,100,0
0,33,100,0
0,81,100,4
0,76,100,0
0,73,100,0
0,69,100,0
0,64,100,0
0,33,100,0
0,42,127,0
0,36,127,0
0,81,100,4
0,76,100,0
0,73,100,0
0,69,100,0
0,64,100,0
0,33,100,0
0,42,127,0
0,40,127,0
0,64,100,4
0,57,100,0
0,71,100,0
0,43,100,0
0,42,127,0
0,57,100,4
0,64,100,0
0,69,100,0
0,44,100,0
0,69,100,4
0,64,100,0
0,57,100,0
0,74,100,0
0,69,100,0
0,65,100,0
0,45,100,0
0,42,127,0
0,36,127,0
0,45,100,4
0,74,100,4
0,69,100,0
0,65,100,0
0,42,127,0
0,74,100,4
0,69,100,0
0,65,100,0
0,33,100,0
0,42,127,96
0,40,127,0
0,74,100,4
0,69,100,0
0,65,100,0
0,74,100,4
0,69,100,0
0,65,100,0
0,33,100,0
0,42,127,0
0,42,127,100
0,36,127,0
0,73,100,4
0,69,100,0
0,64,100,0
0,45,100,0
0,81,100,4
0,76,100,0
0,73,100,0
0,69,100,0
0,64,100,0
0,33,100,0
0,42,127,0
0,36,127,0
0,81,100,4
0,76,100,0
0,73,100,0
0,69,100,0
0,64,100,0
0,33,100,0
0,42,127,0
0,40,127,0
0,64,100,4
0,57,100,0
0,71,100,0
0,43,100,0
0,42,127,0
0,36,127,0
0,57,100,4
0,64,100,0
0,69,100,0
0,44,100,0
0,69,100,4
0,64,100,0
0,57,100,0
0,74,100,0
0,69,100,0
0,65,100,0
0,45,100,0
0,42,127,0
0,36,127,0
0,74,100,4
0,69,100,0
0,65,100,0
0,33,100,0
0,42,127,0
0,74,100,4
0,69,100,0
0,65,100,0
0,33,100,0
0,42,127,96
0,40,127,0
0,74,100,4
0,69,100,0
0,65,100,0
0,45,100,0
0,74,100,4
0,69,100,0
0,65,100,0
0,33,100,0
0,42,127,0
0,42,127,100
0,36,127,0
0,73,100,4
0,69,100,0
0,64,100,0
0,45,100,0
0,81,100,4
0,76,100,0
0,73,100,0
0,69,100,0
0,64,100,0
0,33,100,0
0,42,127,0
0,36,127,0
0,81,100,4
0,76,100,0
0,73,100,0
0,69,100,0
0,64,100,0
0,45,100,0
0,42,127,0
0,40,127,0
0,64,100,4
0,57,100,0
0,71,100,0
0,43,100,0
0,42,127,0
0,57,100,4
0,64,100,0
0,69,100,0
0,44,100,0
0,69,100,4
0,64,100,0
0,57,100,0
0,74,100,0
0,69,100,0
0,65,100,0
0,45,100,0
0,42,127,0
0,36,127,0
0,45,100,4
0,74,100,4
0,69,100,0
0,65,100,0
0,42,127,0
0,74,100,4
0,69,100,0
0,65,100,0
0,33,100,0
0,42,127,96
0,40,127,0
0,74,100,4
0,69,100,0
0,65,100,0
0,45,100,0
0,74,100,4
0,69,100,0
0,65,100,0
0,33,100,0
0,42,127,0
0,42,127,100
0,36,127,0
0,73,100,4
0,69,100,0
0,64,100,0
0,45,100,0
0,81,100,4
0,76,100,0
0,73,100,0
0,69,100,0
0,64,100,0
0,33,100,0
0,42,127,0
0,36,127,0
0,81,100,4
0,76,100,0
0,73,100,0
0,69,100,0
0,64,100,0
0,42,100,0
0,42,127,0
0,40,127,0
0,64,100,4
0,57,100,0
0,71,100,0
0,43,100,0
0,42,127,0
0,57,100,4
0,64,100,0
0,69,100,0
0,44,100,0
0,69,100,4
0,64,100,0
0,57,100,0
0,57,100,0
0,45,100,0
0,74,100,0
0,69,100,0
0,65,100,0
0,45,100,0
0,42,127,0
0,36,127,0
0,74,100,4
0,69,100,0
0,65,100,0
0,33,100,0
0,42,127,0
0,74,100,4
0,69,100,0
0,65,100,0
0,42,127,96
0,40,127,0
0,74,100,4
0,69,100,0
0,65,100,0
0,45,100,0
0,74,100,4
0,69,100,0
0,65,100,0
0,42,127,0
0,42,127,100
0,36,127,0
0,73,100,4
0,69,100,0
0,64,100,0
0,33,100,0
0,81,100,4
0,76,100,0
0,73,100,0
0,69,100,0
0,64,100,0
0,33,100,0
0,42,127,0
0,36,127,0
0,81,100,4
0,76,100,0
0,73,100,0
0,69,100,0
0,64,100,0
0,45,100,0
0,42,127,0
0,40,127,0
0,64,100,4
0,57,100,0
0,71,100,0
0,43,100,0
0,42,127,0
0,57,100,4
0,64,100,0
0,69,100,0
0,44,100,0
0,40,127,0
0,69,100,4
0,64,100,0
0,57,100,0
0,57,100,0
0,45,100,0
0,74,100,0
0,69,100,0
0,65,100,0
0,45,100,0
0,36,127,0
0,57,127,0
0,74,100,4
0,69,100,0
0,65,100,0
0,74,100,4
0,69,100,0
0,65,100,0
0,33,100,0
0,42,127,96
0,40,127,0
0,74,100,4
0,69,100,0
0,65,100,0
0,45,100,0
0,74,100,4
0,69,100,0
0,65,100,0
0,33,100,0
0,42,127,0
0,42,127,100
0,36,127,0
0,73,100,4
0,69,100,0
0,64,100,0
0,45,100,0
0,81,100,4
0,76,100,0
0,73,100,0
0,69,100,0
0,64,100,0
0,33,100,0
0,42,127,0
0,36,127,0
0,81,100,4
0,76,100,0
0,73,100,0
0,69,100,0
0,64,100,0
0,45,100,0
0,42,127,0
0,40,127,0
0,64,100,4
0,57,100,0
0,71,100,0
0,43,100,0
0,42,127,0
0,57,100,4
0,64,100,0
0,69,100,0
0,44,100,0
0,69,100,4
0,64,100,0
0,57,100,0
0,57,100,0
0,45,100,0
0,74,100,0
0,69,100,0
0,65,100,0
0,45,100,0
0,42,127,0
0,36,127,0
0,74,100,4
0,69,100,0
0,65,100,0
0,33,100,0
0,42,127,0
0,74,100,4
0,69,100,0
0,65,100,0
0,33,100,0
0,42,127,96
0,40,127,0
0,74,100,4
0,69,100,0
0,65,100,0
0,45,100,0
0,74,100,4
0,69,100,0
0,65,100,0
0,33,100,0
0,42,127,0
0,42,127,100
0,36,127,0
0,73,100,4
0,69,100,0
0,64,100,0
0,45,100,0
0,81,100,4
0,76,100,0
0,73,100,0
0,69,100,0
0,64,100,0
0,33,100,0
0,42,127,0
0,36,127,0
0,81,100,4
0,76,100,0
0,73,100,0
0,69,100,0
0,64,100,0
0,45,100,0
0,42,127,0
0,40,127,0
0,64,100,4
0,57,100,0
0,71,100,0
0,43,100,0
0,42,127,0
0,57,100,4
0,64,100,0
0,69,100,0
0,44,100,0
0,69,100,4
0,64,100,0
0,57,100,0
0,57,100,0
0,45,100,0
0,74,100,0
0,69,100,0
0,65,100,0
0,45,100,0
0,42,127,0
0,36,127,0
0,74,100,4
0,69,100,0
0,65,100,0
0,33,100,0
0,42,127,0
0,74,100,4
0,69,100,0
0,65,100,0
0,33,100,0
0,42,127,96
0,40,127,0
0,74,100,4
0,69,100,0
0,65,100,0
0,45,100,0
0,74,100,4
0,69,100,0
0,65,100,0
0,33,100,0
0,42,127,0
0,45,100,4
0,36,127,0
0,46,127,0
0,73,100,4
0,69,100,0
0,64,100,0
0,45,100,0
0,40,127,0
0,81,100,4
0,76,100,0
0,73,100,0
0,69,100,0
0,64,100,0
0,33,100,0
0,40,127,0
0,81,100,4
0,76,100,0
0,73,100,0
0,69,100,0
0,64,100,0
0,45,100,0
0,45,127,0
0,42,127,0
0,64,100,4
0,57,100,0
0,67,100,0
0,71,100,0
0,43,100,0
0,41,127,0
0,57,100,4
0,64,100,0
0,43,100,0
0,60,100,4
0,60,100,0
0,48,100,0
0,69,100,0
0,72,100,0
0,77,100,0
0,36,100,0
0,36,127,0
0,57,127,0
0,77,100,4
0,72,100,0
0,69,100,0
0,36,100,0
0,77,100,4
0,72,100,0
0,69,100,0
0,36,100,0
0,79,100,4
0,42,127,0
0,40,127,0
0,77,100,4
0,72,100,0
0,69,100,0
0,76,100,4
0,77,100,0
0,72,100,0
0,69,100,0
0,36,100,0
0,42,127,0
0,79,100,4
0,67,100,4
0,38,100,0
0,42,127,0
0,36,127,0
0,76,100,4
0,67,100,0
0,72,100,0
0,76,100,0
0,67,100,0
0,40,100,0
0,79,100,4
0,67,100,0
0,72,100,0
0,76,100,0
0,67,100,0
0,43,100,0
0,42,127,0
0,36,127,0
0,76,100,4
0,67,100,4
0,72,100,0
0,76,100,0
0,67,100,0
0,43,100,0
0,42,127,0
0,40,127,0
0,79,100,4
0,45,100,0
0,74,100,4
0,48,100,0
0,42,127,0
0,76,100,4
0,72,100,0
0,79,100,4
0,64,100,0
0,60,100,0
0,69,100,0
0,72,100,0
0,77,100,0
0,36,100,0
0,42,127,0
0,36,127,0
0,77,100,4
0,72,100,0
0,69,100,0
0,42,127,0
0,79,100,4
0,77,100,0
0,72,100,0
0,69,100,0
0,48,100,0
0,79,100,4
0,42,127,0
0,40,127,0
0,79,100,4
0,77,100,0
0,72,100,0
0,69,100,0
0,43,100,0
0,77,100,4
0,72,100,0
0,69,100,0
0,46,100,0
0,42,127,0
0,79,100,4
0,81,100,4
0,67,100,0
0,45,100,0
0,42,127,0
0,36,127,0
0,72,100,4
0,76,100,0
0,67,100,0
0,45,100,0
0,72,100,4
0,76,100,0
0,67,100,0
0,43,100,0
0,42,127,0
0,36,127,0
0,67,100,4
0,72,100,0
0,76,100,0
0,67,100,0
0,45,100,0
0,42,127,0
0,40,127,0
0,39,100,4
0,74,100,4
0,40,100,0
0,42,127,0
0,72,100,4
0,72,100,0
0,76,100,4
0,64,100,0
0,60,100,0
0,69,100,0
0,72,100,0
0,77,100,0
0,36,100,0
0,42,127,0
0,36,127,0
0,76,100,4
0,77,100,0
0,72,100,0
0,69,100,0
0,36,100,0
0,42,127,0
0,77,100,4
0,72,100,0
0,69,100,0
0,36,100,0
0,76,100,4
0,42,127,0
0,40,127,0
0,77,100,4
0,72,100,0
0,69,100,0
0,36,100,0
0,76,100,4
0,77,100,0
0,72,100,0
0,69,100,0
0,36,100,0
0,42,127,0
0,74,100,4
0,60,100,4
0,62,100,0
0,38,100,0
0,42,127,0
0,36,127,0
0,72,100,4
0,72,100,0
0,76,100,0
0,67,100,0
0,40,100,0
0,72,100,4
0,72,100,0
0,76,100,0
0,67,100,0
0,43,100,0
0,42,127,0
0,36,127,0
0,64,100,4
0,72,100,0
0,76,100,0
0,67,100,0
0,43,100,0
0,42,127,0
0,40,127,0
0,45,100,4
0,72,100,4
0,62,100,0
0,74,100,0
0,48,100,0
0,42,127,0
0,72,100,4
0,72,100,4
0,64,100,0
0,60,100,0
0,69,100,0
0,72,100,0
0,77,100,0
0,36,100,0
0,42,127,0
0,36,127,0
0,77,100,4
0,72,100,0
0,69,100,0
0,42,127,0
0,77,100,4
0,72,100,0
0,69,100,0
0,48,100,0
0,42,127,4
0,40,127,0
0,77,100,4
0,72,100,0
0,69,100,0
0,46,100,0
0,77,100,4
0,72,100,0
0,69,100,0
0,46,100,0
0,42,127,0
0,64,100,4
0,60,100,0
0,72,100,0
0,76,100,0
0,67,100,0
0,45,100,0
0,42,127,0
0,36,127,0
0,64,100,4
0,60,100,0
0,72,100,0
0,76,100,0
0,67,100,0
0,45,100,0
0,45,127,0
0,43,100,4
0,42,127,0
0,36,127,0
0,72,100,4
0,76,100,0
0,67,100,0
0,72,100,4
0,60,100,0
0,59,100,0
0,59,100,0
0,47,100,0
0,40,100,0
0,42,127,0
0,40,127,0
0,31,100,4
0,60,100,4
0,74,100,0
0,67,100,0
0,32,100,0
0,45,127,0
0,45,127,4
0,69,100,4
0,57,100,0
0,69,100,0
0,64,100,0
0,57,100,0
0,57,100,0
0,45,100,0
0,74,100,0
0,69,100,0
0,65,100,0
0,33,100,0
0,36,127,0
0,57,127,0
0,74,100,4
0,69,100,0
0,65,100,0
0,33,100,0
0,74,100,4
0,69,100,0
0,65,100,0
0,33,100,0
0,42,127,96
0,40,127,0
0,74,100,4
0,69,100,0
0,65,100,0
0,33,100,0
0,72,100,4
0,74,100,0
0,69,100,0
0,65,100,0
0,33,100,0
0,42,127,0
0,76,100,4
0,35,100,0
0,42,127,0
0,36,127,0
0,73,100,4
0,69,100,0
0,64,100,0
0,37,100,0
0,73,100,4
0,81,100,0
0,76,100,0
0,73,100,0
0,69,100,0
0,64,100,0
0,40,100,0
0,42,127,0
0,36,127,0
0,76,100,4
0,81,100,4
0,76,100,0
0,73,100,0
0,69,100,0
0,64,100,0
0,38,100,0
0,42,127,0
0,40,127,0
0,73,100,4
0,64,100,0
0,57,100,0
0,71,100,0
0,36,100,0
0,42,127,0
0,57,100,4
0,64,100,0
0,69,100,0
0,76,100,4
0,69,100,0
0,64,100,0
0,57,100,0
0,74,100,0
0,69,100,0
0,65,100,0
0,33,100,0
0,42,127,0
0,36,127,0
0,76,100,4
0,74,100,4
0,69,100,0
0,65,100,0
0,33,100,0
0,42,127,0
0,76,100,4
0,74,100,0
0,69,100,0
0,65,100,0
0,33,100,0
0,42,127,96
0,40,127,0
0,74,100,4
0,69,100,0
0,65,100,0
0,33,100,0
0,76,100,4
0,74,100,0
0,69,100,0
0,65,100,0
0,33,100,0
0,42,127,0
0,78,100,4
0,33,100,4
0,42,127,0
0,36,127,0
0,33,100,24
0,73,100,4
0,69,100,0
0,64,100,0
0,76,100,4
0,81,100,0
0,76,100,0
0,73,100,0
0,69,100,0
0,64,100,0
0,43,100,0
0,42,127,0
0,36,127,0
0,44,100,4
0,81,100,4
0,76,100,0
0,73,100,0
0,69,100,0
0,64,100,0
0,45,100,0
0,42,127,0
0,40,127,0
0,64,100,4
0,57,100,0
0,71,100,0
0,45,100,0
0,42,127,0
0,73,100,4
0,57,100,0
0,64,100,0
0,69,100,0
0,76,100,4
0,69,100,0
0,64,100,0
0,57,100,0
0,73,100,0
0,74,100,0
0,69,100,0
0,65,100,0
0,33,100,0
0,42,127,0
0,36,127,0
0,76,100,4
0,74,100,0
0,69,100,0
0,65,100,0
0,33,100,0
0,42,127,0
0,76,100,4
0,74,100,0
0,69,100,0
0,65,100,0
0,33,100,0
0,42,127,96
0,40,127,0
0,74,100,4
0,69,100,0
0,65,100,0
0,33,100,0
0,76,100,4
0,74,100,0
0,69,100,0
0,65,100,0
0,33,100,0
0,42,127,0
0,78,100,4
0,35,100,4
0,42,127,0
0,36,127,0
0,73,100,4
0,69,100,0
0,64,100,0
0,37,100,0
0,76,100,4
0,81,100,0
0,76,100,0
0,69,100,0
0,73,100,0
0,69,100,0
0,64,100,0
0,40,100,0
0,42,127,0
0,36,127,0
0,76,100,4
0,81,100,0
0,76,100,0
0,69,100,0
0,73,100,0
0,69,100,0
0,64,100,0
0,38,100,0
0,42,127,0
0,40,127,0
0,76,100,4
0,57,100,0
0,71,100,0
0,36,100,0
0,42,127,0
0,73,100,4
0,57,100,0
0,69,100,0
0,71,100,4
0,69,100,0
0,64,100,0
0,57,100,0
0,74,100,0
0,69,100,0
0,65,100,0
0,33,100,0
0,42,127,0
0,36,127,0
0,69,100,4
0,74,100,4
0,69,100,0
0,65,100,0
0,33,100,0
0,42,127,0
0,74,100,4
0,69,100,0
0,65,100,0
0,33,100,0
0,42,127,96
0,40,127,0
0,74,100,4
0,69,100,0
