track,note,velocity,time
1,69,113,0
1,62,119,6
1,66,123,6
1,72,115,1184
1,65,113,6
1,69,113,8
1,74,115,1222
1,67,115,6
1,71,115,6
1,76,107,1208
1,69,115,8
1,73,119,8
1,81,119,1254
1,78,125,14
1,74,119,6
1,81,111,448
1,78,121,6
1,74,117,6
1,64,86,88
1,69,99,6
1,62,105,6
1,64,107,6
1,64,57,66
1,69,51,4
1,62,57,4
1,64,69,2
1,64,75,6
1,62,72,6
1,69,61,2
1,64,82,24
1,69,71,10
1,62,97,6
1,66,117,6
1,64,61,52
1,69,61,6
1,62,47,2
1,66,75,4
1,66,95,74
1,62,74,4
1,69,72,0
1,64,82,34
1,69,86,8
1,62,95,6
1,64,103,6
1,64,62,68
1,69,56,4
1,62,60,2
1,64,71,4
1,69,72,64
1,64,73,0
1,62,70,0
1,64,89,0
1,69,83,6
1,62,101,10
1,66,117,6
1,64,52,70
1,69,51,4
1,62,59,4
1,66,85,2
1,66,85,62
1,69,70,6
1,62,59,0
1,64,82,20
1,69,80,10
1,62,95,6
1,64,103,8
1,64,65,84
1,69,60,4
1,62,60,2
1,64,66,4
1,64,77,50
1,62,73,14
1,69,69,0
1,64,82,34
1,69,74,6
1,62,101,8
1,66,119,6
1,64,56,76
1,69,54,6
1,62,69,4
1,66,93,4
1,66,92,64
1,62,78,6
1,69,71,6
1,64,71,2
1,64,83,6
1,69,81,8
1,62,103,6
1,64,113,10
1,64,60,86
1,69,56,6
1,62,66,6
1,64,80,4
1,64,78,44
1,69,82,8
1,62,76,4
1,64,86,16
1,69,87,12
1,62,105,10
1,66,123,6
1,62,85,28
1,69,89,4
1,62,105,6
1,66,97,6
1,62,67,50
1,62,56,6
1,69,60,4
1,66,67,2
1,62,66,44
1,62,85,4
1,69,74,2
1,66,85,2
1,62,82,380
1,62,97,4
1,66,93,2
1,69,80,4
1,69,76,56
1,62,87,6
1,66,93,2
1,62,76,4
1,66,77,32
1,62,60,4
1,62,81,54
1,69,80,10
1,62,93,10
1,67,85,6
1,62,59,40
1,62,65,6
1,69,56,2
1,67,45,0
1,67,92,60
1,62,82,0
1,62,95,6
1,69,86,0
1,62,92,304
1,69,81,6
1,62,95,10
1,66,101,10
1,69,81,92
1,62,87,10
1,62,82,4
1,64,76,2
1,69,61,64
1,64,64,6
1,62,58,4
1,62,50,4
1,62,89,68
1,69,80,6
1,66,99,6
1,62,86,4
1,62,60,60
1,66,70,6
1,69,42,0
1,62,41,8
1,62,83,68
1,69,89,2
1,66,103,4
1,62,101,10
1,62,85,368
1,69,87,10
1,62,93,6
1,66,93,10
1,62,83,74
1,66,95,4
1,69,81,0
1,62,97,8
1,62,58,58
1,66,75,10
1,62,50,0
1,69,51,6
1,62,82,68
1,62,97,6
1,69,81,2
1,67,93,0
1,69,37,22
1,69,61,72
1,62,53,4
1,62,82,68
1,67,87,4
1,69,82,2
1,62,87,6
1,62,95,330
1,69,69,6
1,62,93,6
1,66,97,10
1,69,83,102
1,62,90,6
1,64,85,6
1,62,85,4
1,62,60,84
1,69,55,0
1,64,53,6
1,62,47,4
1,62,101,66
1,62,86,4
1,69,81,0
1,66,101,6
1,62,66,50
1,69,52,6
1,62,38,4
1,66,52,4
1,62,73,64
1,69,75,4
1,66,95,2
1,62,87,6
1,62,81,314
1,69,73,12
1,62,82,6
1,66,92,10
1,62,76,52
1,66,92,2
1,62,89,8
1,69,76,0
1,62,62,50
1,62,52,4
1,66,62,6
1,69,46,2
1,62,101,76
1,69,87,4
1,67,99,4
1,62,89,2
1,62,59,42
1,62,55,8
1,69,54,4
1,67,51,0
1,62,77,64
1,67,92,4
1,62,93,2
1,69,86,4
1,62,86,332
1,69,76,6
1,62,90,10
1,66,93,10
1,69,83,102
1,62,92,4
1,62,82,2
1,64,83,2
1,62,53,64
1,69,50,2
1,64,43,10
1,62,101,58
1,62,83,4
1,69,78,2
1,66,109,4
1,62,60,54
1,62,59,6
1,69,55,4
1,66,71,2
1,62,76,66
1,62,95,4
1,66,95,2
1,69,85,4
1,62,85,328
1,69,82,6
1,62,95,12
1,66,95,10
1,62,81,72
1,66,95,4
1,69,81,4
1,62,93,2
1,62,47,58
1,62,53,2
1,69,48,0
1,62,85,68
1,62,99,4
1,69,85,2
1,67,92,2
1,62,51,48
1,67,56,14
1,69,49,0
1,62,47,6
1,62,77,52
1,67,92,8
1,62,97,4
1,69,78,4
1,62,90,360
1,69,73,10
1,62,92,10
1,66,97,6
1,62,90,102
1,69,80,4
1,62,85,2
1,64,76,4
1,69,77,82
1,62,86,6
1,62,82,4
1,64,82,2
1,65,89,0
1,64,99,196
1,60,101,2
1,60,93,72
1,65,81,106
1,64,97,100
1,60,95,74
1,64,92,76
1,59,90,62
1,64,101,8
1,59,87,74
1,59,89,50
1,64,90,4
1,65,73,0
1,64,89,78
1,59,101,96
1,64,103,148
1,60,99,74
1,65,83,8
1,62,80,264
1,64,90,18
1,62,101,234
1,60,93,204
1,62,86,212
1,59,90,80
1,64,101,0
1,65,93,0
1,59,65,48
1,64,73,0
1,59,53,26
1,64,52,0
1,64,58,40
1,59,54,2
1,64,47,42
1,59,55,0
1,59,44,52
1,59,42,28
1,59,66,40
1,64,85,0
1,59,60,48
1,64,74,0
1,59,65,38
1,64,78,2
1,59,75,46
1,64,86,0
1,59,68,42
1,64,78,0
1,59,80,38
1,64,89,4
1,59,95,38
1,64,111,0
1,64,82,102
1,69,71,10
1,62,97,6
1,66,117,6
1,64,61,52
1,69,61,6
1,62,47,2
1,66,75,4
1,66,95,74
1,62,74,4
1,69,72,0
1,64,82,34
1,69,86,8
1,62,95,6
1,64,103,6
1,64,62,68
1,69,56,4
1,62,60,2
1,64,71,4
1,69,72,64
1,64,73,0
1,62,70,0
1,64,89,0
1,69,83,6
1,62,101,10
1,66,117,6
1,64,52,70
1,69,51,4
1,62,59,4
1,66,85,2
1,66,85,62
1,69,70,6
1,62,59,0
1,64,82,20
1,69,80,10
1,62,95,6
1,64,103,8
1,52,101,0
1,57,109,12
1,64,101,0
1,62,111,10
1,69,109,4
1,64,111,6
1,62,111,4
1,64,111,8
1,52,107,306
1,57,111,4
1,62,113,6
1,64,107,4
1,66,126,2
1,69,111,0
1,62,113,8
1,66,126,6
1,52,107,458
1,57,115,10
1,64,107,2
1,62,115,6
1,69,115,4
1,64,113,10
1,62,115,0
1,64,113,12
1,52,107,0
1,57,113,10
1,64,107,4
1,62,99,10
1,69,113,0
1,66,126,8
1,62,99,4
1,66,126,10
1,62,90,26
1,66,101,188
1,62,103,192
1,69,93,2
1,66,97,4
1,62,103,288
1,67,95,278
1,67,90,38
1,62,87,192
1,69,93,192
1,69,90,176
1,62,92,2
1,67,99,102
1,64,93,2
1,62,61,190
1,62,87,4
1,66,95,256
1,62,92,192
1,69,82,4
1,66,90,176
1,62,95,272
1,66,107,4
1,67,95,14
1,62,72,194
1,69,85,190
1,69,92,176
1,62,93,4
1,67,101,72
1,64,95,4
1,62,55,186
1,62,87,36
1,66,101,194
1,62,93,190
1,69,82,10
1,66,93,0
1,62,81,232
1,66,101,260
1,62,95,196
1,66,109,256
1,62,92,280
1,69,90,86
1,62,75,4
1,67,99,82
1,64,92,8
1,62,67,182
1,62,90,62
1,66,97,184
1,62,103,192
1,69,69,10
1,66,97,6
1,62,97,290
1,66,87,160
1,67,76,136
1,62,81,0
1,67,99,60
1,62,95,4
1,67,99,48
1,62,90,176
1,62,74,120
1,67,99,102
1,62,99,2
1,62,73,54
1,67,51,0
1,66,105,48
1,69,81,0
1,66,89,54
1,69,77,4
1,69,86,66
1,66,109,0
1,69,92,130
1,72,92,0
1,69,73,80
1,72,78,4
1,72,95,66
1,69,95,0
1,62,89,192
1,67,101,178
1,62,73,0
1,66,109,96
1,69,89,2
1,69,85,168
1,72,98,0
1,72,86,188
1,69,95,4
1,72,93,52
1,69,92,2
1,62,86,192
1,64,80,124
1,67,70,0
1,69,89,120
1,66,109,4
1,72,86,160
1,69,97,0
1,69,82,80
1,72,71,0
1,72,72,68
1,69,93,2
1,62,89,114
1,67,92,162
1,64,93,0
1,66,109,134
1,69,90,4
1,69,89,102
1,72,81,0
1,72,71,68
1,69,95,0
1,69,76,116
1,72,67,0
1,72,99,68
1,69,90,0
1,62,92,134
1,67,99,344
1,64,99,0
1,66,107,90
1,69,74,2
1,72,75,118
1,69,77,0
1,69,87,76
1,72,92,0
1,72,77,54
1,69,76,4
1,68,92,48
1,71,70,0
1,71,85,64
1,68,99,2
1,69,86,54
1,72,81,2
1,67,89,208
1,64,77,0
1,69,90,98
1,66,105,0
1,72,51,100
1,69,53,0
1,72,80,70
1,69,86,4
1,72,86,54
1,69,90,0
1,68,93,38
1,71,76,0
1,71,90,54
1,68,92,0
1,72,83,48
1,69,86,2
1,67,86,248
1,64,76,4
1,66,105,96
1,69,90,0
1,69,58,88
1,72,52,8
1,72,87,64
1,69,89,0
1,72,77,46
1,69,82,0
1,68,90,42
1,71,72,4
1,68,101,64
1,71,61,4
1,72,89,56
1,69,85,0
1,64,87,288
1,67,92,0
1,66,105,110
1,69,89,2
1,69,67,100
1,72,58,4
1,69,90,68
1,72,93,0
1,69,87,86
1,72,93,0
1,62,62,192
1,62,76,80
1,69,81,12
1,72,86,4
1,69,78,62
1,72,86,0
1,62,67,2
1,69,80,56
1,72,83,0
1,62,67,0
1,62,54,32
1,69,58,8
1,72,65,0
1,62,66,60
1,69,89,4
1,72,92,0
1,62,58,64
1,69,67,6
1,72,71,0
1,62,63,42
1,69,47,2
1,72,62,8
1,69,65,60
1,72,80,0
1,62,89,0
1,62,82,48
1,69,83,2
1,72,89,0
1,72,97,70
1,62,105,0
1,69,97,8
1,60,97,156
1,64,89,0
1,67,99,0
1,64,85,0
1,60,85,0
1,64,95,90
1,67,95,0
1,64,78,0
1,60,83,0
1,60,92,0
1,62,72,284
1,62,99,88
1,64,89,0
1,67,89,4
1,62,95,92
1,64,89,374
1,62,85,76
1,64,83,358
1,62,93,150
1,64,85,372
1,62,95,170
1,67,99,142
1,64,95,2
1,60,90,0
1,60,87,4
1,64,82,0
1,67,93,86
1,64,92,4
1,60,93,0
1,60,87,0
1,64,86,1
1,62,93,90
1,62,72,76
1,62,95,110
1,67,89,2
1,64,57,0
1,65,55,0
1,62,89,74
1,64,90,360
1,62,93,142
1,64,87,336
1,62,87,72
1,64,85,342
1,62,93,64
1,67,75,0
1,64,86,8
1,64,89,186
1,67,93,0
1,64,75,0
1,60,78,0
1,60,92,1
1,60,83,74
1,64,81,0
1,67,85,2
1,64,78,0
1,60,81,2
1,61,90,84
1,66,97,0
1,66,90,68
1,61,103,108
1,58,103,196
1,61,90,126
1,64,78,192
1,59,76,0
1,62,90,190
1,71,74,192
1,59,89,10
1,61,99,184
1,64,81,192
1,70,97,190
1,59,81,76
1,60,87,0
1,64,92,184
1,65,87,200
1,69,95,0
1,59,81,178
1,60,87,192
1,64,93,190
1,60,95,0
1,59,74,192
1,60,90,16
1,64,85,192
1,59,83,6
1,60,89,194
1,59,40,54
1,64,90,102
1,60,86,136
1,59,93,2
1,59,92,104
1,62,87,0
1,67,89,2
1,64,103,2304
1,60,99,0
1,60,97,0
1,67,97,0
1,60,93,70
1,64,103,0
1,67,97,0
1,60,99,4
1,67,92,106
1,62,107,192
1,64,103,188
1,62,97,88
1,64,99,108
1,62,89,114
1,64,93,142
1,62,92,154
1,64,92,150
1,62,93,166
1,60,92,80
1,67,93,0
1,64,105,0
1,60,90,0
1,60,89,56
1,67,93,0
1,60,97,2
1,64,103,0
1,62,107,152
1,64,99,384
1,62,92,90
1,64,92,324
1,62,90,86
1,64,95,160
1,62,87,160
1,64,92,154
1,62,75,368
1,62,95,106
1,64,92,4
1,67,83,0
1,64,105,220
1,60,89,0
1,67,93,0
1,60,97,4
1,60,89,112
1,67,90,0
1,64,105,0
1,60,101,0
1,66,85,64
1,61,109,192
1,64,105,384
1,61,95,130
1,64,103,116
1,61,81,72
1,64,99,122
1,61,101,98
1,59,90,0
1,60,99,112
1,64,99,192
1,59,75,30
1,60,95,10
1,64,87,188
1,59,76,18
1,60,93,38
1,64,95,190
1,60,3,258
1,59,73,6
1,60,86,100
1,64,86,186
1,60,90,174
1,67,95,206
1,59,103,0
1,62,109,192
1,62,76,1286
1,69,57,0
1,64,71,0
1,69,103,78
1,64,109,2
1,62,113,0
1,64,82,0
1,69,71,0
1,62,97,0
1,66,117,0
1,64,61,52
1,69,61,6
1,62,47,2
1,66,75,4
1,66,95,74
1,62,74,4
1,69,72,0
1,64,82,34
1,69,86,8
1,62,95,6
1,64,103,6
1,64,62,68
1,69,56,4
1,62,60,2
1,64,71,4
1,69,72,64
1,64,73,0
1,62,70,0
1,64,89,0
1,69,83,6
1,62,101,10
1,66,117,6
1,64,52,70
1,69,51,4
1,62,59,4
1,66,85,2
1,66,85,62
1,69,70,6
1,62,59,0
1,64,82,20
1,69,80,10
1,62,95,6
1,64,103,8
1,52,101,644
1,57,109,12
1,64,101,0
1,62,111,10
1,69,109,4
1,64,111,6
1,62,111,4
1,64,111,8
1,52,107,306
1,57,111,4
1,62,113,6
1,64,107,4
1,66,126,2
1,69,111,0
1,62,113,8
1,66,126,6
1,52,107,458
1,57,115,10
1,64,107,2
1,62,115,6
1,69,115,4
1,64,113,10
1,62,115,0
1,64,113,12
1,52,107,0
1,57,113,10
1,64,107,4
1,62,99,10
1,69,113,0
1,66,126,8
1,62,99,4
1,66,126,10
1,62,85,32
1,69,89,4
1,62,105,6
1,66,97,6
1,62,67,50
1,62,56,6
1,69,60,4
1,66,67,2
1,62,66,44
1,62,85,4
1,69,74,2
1,66,85,2
1,62,82,380
1,62,97,4
1,66,93,2
1,69,80,4
1,69,76,56
1,62,87,6
1,66,93,2
1,62,76,4
1,66,77,32
1,62,60,4
1,62,81,54
1,69,80,10
1,62,93,10
1,67,85,6
1,62,59,40
1,62,65,6
1,69,56,2
1,67,45,0
1,67,92,60
1,62,82,0
1,62,95,6
1,69,86,0
1,62,92,304
1,69,81,6
1,62,95,10
1,66,101,10
1,69,81,92
1,62,87,10
1,62,82,4
1,64,76,2
1,69,61,64
1,64,64,6
1,62,58,4
1,62,50,4
1,62,89,68
1,69,80,6
1,66,99,6
1,62,86,4
1,62,60,60
1,66,70,6
1,69,42,0
1,62,41,8
1,62,83,68
1,69,89,2
1,66,103,4
1,62,101,10
1,62,85,368
1,69,87,10
1,62,93,6
1,66,93,10
1,62,83,74
1,66,95,4
1,69,81,0
1,62,97,8
1,62,58,58
1,66,75,10
1,62,50,0
1,69,51,6
1,62,82,68
1,62,97,6
1,69,81,2
1,67,93,0
1,69,37,22
1,69,61,72
1,62,53,4
1,62,82,68
1,67,87,4
1,69,82,2
1,62,87,6
1,62,95,330
1,69,69,6
1,62,93,6
1,66,97,10
1,69,83,102
1,62,90,6
1,64,85,6
1,62,85,4
1,62,60,84
1,69,55,0
1,64,53,6
1,62,47,4
1,62,101,66
1,62,86,4
1,69,81,0
1,66,101,6
1,62,66,50
1,69,52,6
1,62,38,4
1,66,52,4
1,62,73,64
1,69,75,4
1,66,95,2
1,62,87,6
1,62,81,314
1,69,73,12
1,62,82,6
1,66,92,10
1,62,76,52
1,66,92,2
1,62,89,8
1,69,76,0
1,62,62,50
1,62,52,4
1,66,62,6
1,69,46,2
1,62,101,76
1,69,87,4
1,67,99,4
1,62,89,2
1,62,59,42
1,62,55,8
1,69,54,4
1,67,51,0
1,62,77,64
1,67,92,4
1,62,93,2
1,69,86,4
1,62,86,332
1,69,76,6
1,62,90,10
1,66,93,10
1,69,83,102
1,62,92,4
1,62,82,2
1,64,83,2
1,62,53,64
1,69,50,2
1,64,43,10
1,62,101,58
1,62,83,4
1,69,78,2
1,66,109,4
1,62,60,54
1,62,59,6
1,69,55,4
1,66,71,2
1,62,76,66
1,62,95,4
1,66,95,2
1,69,85,4
1,62,85,328
1,69,82,6
1,62,95,12
1,66,95,10
