track,note,velocity,time
1,50,127,0
1,50,127,0
1,57,127,0
1,50,0,60
1,50,0,0
1,57,0,0
1,50,127,0
1,50,127,0
1,57,127,0
1,50,0,60
1,50,0,0
1,57,0,0
1,50,127,0
1,50,127,0
1,57,127,0
1,50,0,120
1,50,0,0
1,57,0,0
1,50,127,120
1,50,127,0
1,57,127,0
1,50,0,60
1,50,0,0
1,57,0,0
1,50,127,0
1,50,127,0
1,57,127,0
1,50,0,60
1,50,0,0
1,57,0,0
1,50,127,0
1,50,127,0
1,57,127,0
1,50,0,120
1,50,0,0
1,57,0,0
1,38,127,0
1,50,127,120
1,50,127,0
1,58,127,0
1,50,0,60
1,50,0,0
1,58,0,0
1,50,127,0
1,50,127,0
1,58,127,0
1,50,0,60
1,50,0,0
1,58,0,0
1,50,127,0
1,50,127,0
1,58,127,0
1,38,0,120
1,50,0,0
1,50,0,0
1,58,0,0
1,50,127,120
1,50,127,0
1,58,127,0
1,50,0,60
1,50,0,0
1,58,0,0
1,50,127,0
1,50,127,0
1,58,127,0
1,50,0,60
1,50,0,0
1,58,0,0
1,50,127,0
1,50,127,0
1,58,127,0
1,50,0,120
1,50,0,0
1,58,0,0
1,38,127,0
1,50,127,120
1,50,127,0
1,59,127,0
1,50,0,60
1,50,0,0
1,59,0,0
1,50,127,0
1,50,127,0
1,59,127,0
1,50,0,60
1,50,0,0
1,59,0,0
1,50,127,0
1,50,127,0
1,59,127,0
1,38,0,120
1,50,0,0
1,50,0,0
1,59,0,0
1,50,127,120
1,50,127,0
1,59,127,0
1,50,0,60
1,50,0,0
1,59,0,0
1,50,127,0
1,50,127,0
1,59,127,0
1,50,0,60
1,50,0,0
1,59,0,0
1,50,127,0
1,50,127,0
1,59,127,0
1,50,0,120
1,50,0,0
1,59,0,0
1,38,127,0
1,50,127,120
1,50,127,0
1,60,127,0
1,50,0,60
1,50,0,0
1,60,0,0
1,50,127,0
1,50,127,0
1,60,127,0
1,50,0,60
1,50,0,0
1,60,0,0
1,50,127,0
1,50,127,0
1,60,127,0
1,38,0,120
1,50,0,0
1,50,0,0
1,60,0,0
1,50,127,120
1,50,127,0
1,60,127,0
1,50,0,60
1,50,0,0
1,60,0,0
1,50,127,0
1,50,127,0
1,60,127,0
1,50,0,60
1,50,0,0
1,60,0,0
1,50,127,0
1,50,127,0
1,60,127,0
1,50,0,120
1,50,0,0
1,60,0,0
1,38,127,0
1,50,127,120
1,50,127,0
1,62,127,0
1,50,0,60
1,50,0,0
1,62,0,0
1,50,127,0
1,50,127,0
1,62,127,0
1,50,0,60
1,50,0,0
1,62,0,0
1,50,127,0
1,50,127,0
1,62,127,0
1,38,0,120
1,50,0,0
1,50,0,0
1,62,0,0
1,50,127,120
1,50,127,0
1,57,127,0
1,50,0,60
1,50,0,0
1,57,0,0
1,50,127,0
1,50,127,0
1,57,127,0
1,50,0,60
1,50,0,0
1,57,0,0
1,50,127,0
1,50,127,0
1,57,127,0
1,50,0,120
1,50,0,0
1,57,0,0
1,38,127,0
1,50,127,120
1,50,127,0
1,58,127,0
1,50,0,60
1,50,0,0
1,58,0,0
1,50,127,0
1,50,127,0
1,58,127,0
1,50,0,60
1,50,0,0
1,58,0,0
1,50,127,0
1,50,127,0
1,58,127,0
1,38,0,120
1,50,0,0
1,50,0,0
1,58,0,0
1,50,127,120
1,50,127,0
1,58,127,0
1,50,0,60
1,50,0,0
1,58,0,0
1,50,127,0
1,50,127,0
1,58,127,0
1,50,0,60
1,50,0,0
1,58,0,0
1,50,127,0
1,50,127,0
1,58,127,0
1,50,0,120
1,50,0,0
1,58,0,0
1,38,127,0
1,50,127,120
1,50,127,0
1,59,127,0
1,50,0,60
1,50,0,0
1,59,0,0
1,50,127,0
1,50,127,0
1,59,127,0
1,50,0,60
1,50,0,0
1,59,0,0
1,50,127,0
1,50,127,0
1,59,127,0
1,38,0,120
1,50,0,0
1,50,0,0
1,59,0,0
1,50,127,120
1,50,127,0
1,59,127,0
1,50,0,60
1,50,0,0
1,59,0,0
1,50,127,0
1,50,127,0
1,59,127,0
1,50,0,60
1,50,0,0
1,59,0,0
1,50,127,0
1,50,127,0
1,59,127,0
1,50,0,120
1,50,0,0
1,59,0,0
1,38,127,0
1,50,127,120
1,50,127,0
1,60,127,0
1,50,0,60
1,50,0,0
1,60,0,0
1,50,127,0
1,50,127,0
1,60,127,0
1,50,0,60
1,50,0,0
1,60,0,0
1,50,127,0
1,50,127,0
1,60,127,0
1,38,0,120
1,50,0,0
1,50,0,0
1,60,0,0
1,50,127,120
1,50,127,0
1,60,127,0
1,50,0,60
1,50,0,0
1,60,0,0
1,50,127,0
1,50,127,0
1,60,127,0
1,50,0,60
1,50,0,0
1,60,0,0
1,50,127,0
1,50,127,0
1,60,127,0
1,50,0,120
1,50,0,0
1,60,0,0
1,38,127,0
1,50,127,120
1,50,127,0
1,62,127,0
1,50,0,60
1,50,0,0
1,62,0,0
1,50,127,0
1,50,127,0
1,62,127,0
1,50,0,60
1,50,0,0
1,62,0,0
1,50,127,0
1,50,127,0
1,62,127,0
1,38,0,120
1,50,0,0
1,50,0,0
1,62,0,0
1,50,127,120
1,50,127,0
1,57,127,0
1,50,0,60
1,50,0,0
1,57,0,0
1,50,127,0
1,50,127,0
1,57,127,0
1,50,0,60
1,50,0,0
1,57,0,0
1,50,127,0
1,50,127,0
1,57,127,0
1,50,0,120
1,50,0,0
1,57,0,0
1,38,127,0
1,50,127,120
1,50,127,0
1,58,127,0
1,50,0,60
1,50,0,0
1,58,0,0
1,50,127,0
1,50,127,0
1,58,127,0
1,50,0,60
1,50,0,0
1,58,0,0
1,50,127,0
1,50,127,0
1,58,127,0
1,38,0,120
1,50,0,0
1,50,0,0
1,58,0,0
1,50,127,120
1,50,127,0
1,58,127,0
1,50,0,60
1,50,0,0
1,58,0,0
1,50,127,0
1,50,127,0
1,58,127,0
1,50,0,60
1,50,0,0
1,58,0,0
1,50,127,0
1,50,127,0
1,58,127,0
1,50,0,120
1,50,0,0
1,58,0,0
1,38,127,0
1,50,127,120
1,50,127,0
1,59,127,0
1,50,0,60
1,50,0,0
1,59,0,0
1,50,127,0
1,50,127,0
1,59,127,0
1,50,0,60
1,50,0,0
1,59,0,0
1,50,127,0
1,50,127,0
1,59,127,0
1,38,0,120
1,50,0,0
1,50,0,0
1,59,0,0
1,50,127,120
1,50,127,0
1,59,127,0
1,50,0,60
1,50,0,0
1,59,0,0
1,50,127,0
1,50,127,0
1,59,127,0
1,50,0,60
1,50,0,0
1,59,0,0
1,50,127,0
1,50,127,0
1,59,127,0
1,50,0,120
1,50,0,0
1,59,0,0
1,38,127,0
1,50,127,120
1,50,127,0
1,60,127,0
1,50,0,60
1,50,0,0
1,60,0,0
1,50,127,0
1,50,127,0
1,60,127,0
1,50,0,60
1,50,0,0
1,60,0,0
1,50,127,0
1,50,127,0
1,60,127,0
1,38,0,120
1,50,0,0
1,50,0,0
1,60,0,0
1,50,127,120
1,50,127,0
1,60,127,0
1,50,0,60
1,50,0,0
1,60,0,0
1,50,127,0
1,50,127,0
1,60,127,0
1,50,0,60
1,50,0,0
1,60,0,0
1,50,127,0
1,50,127,0
1,60,127,0
1,50,0,120
1,50,0,0
1,60,0,0
1,38,127,0
1,50,127,120
1,50,127,0
1,62,127,0
1,50,0,60
1,50,0,0
1,62,0,0
1,50,127,0
1,50,127,0
1,62,127,0
1,50,0,60
1,50,0,0
1,62,0,0
1,50,127,0
1,50,127,0
1,62,127,0
1,38,0,120
1,50,0,0
1,50,0,0
1,62,0,0
1,50,127,120
1,50,127,0
1,57,127,0
1,50,0,60
1,50,0,0
1,57,0,0
1,50,127,0
1,50,127,0
1,57,127,0
1,50,0,60
1,50,0,0
1,57,0,0
1,50,127,0
1,50,127,0
1,57,127,0
1,50,0,120
1,50,0,0
1,57,0,0
1,38,127,0
1,50,127,120
1,50,127,0
1,58,127,0
1,50,0,60
1,50,0,0
1,58,0,0
1,50,127,0
1,50,127,0
1,58,127,0
1,50,0,60
1,50,0,0
1,58,0,0
1,50,127,0
1,50,127,0
1,58,127,0
1,38,0,120
1,50,0,0
1,50,0,0
1,58,0,0
1,50,127,120
1,50,127,0
1,58,127,0
1,50,0,60
1,50,0,0
1,58,0,0
1,50,127,0
1,50,127,0
1,58,127,0
1,50,0,60
1,50,0,0
1,58,0,0
1,50,127,0
1,50,127,0
1,58,127,0
1,50,0,120
1,50,0,0
1,58,0,0
1,38,127,0
1,50,127,120
1,50,127,0
1,59,127,0
1,50,0,60
1,50,0,0
1,59,0,0
1,50,127,0
1,50,127,0
1,59,127,0
1,50,0,60
1,50,0,0
1,59,0,0
1,50,127,0
1,50,127,0
1,59,127,0
1,38,0,120
1,50,0,0
1,50,0,0
1,59,0,0
1,50,127,120
1,50,127,0
1,59,127,0
1,50,0,60
1,50,0,0
1,59,0,0
1,50,127,0
1,50,127,0
1,59,127,0
1,50,0,60
1,50,0,0
1,59,0,0
1,50,127,0
1,50,127,0
1,59,127,0
1,50,0,120
1,50,0,0
1,59,0,0
1,38,127,0
1,50,127,120
1,50,127,0
1,60,127,0
1,50,0,60
1,50,0,0
1,60,0,0
1,50,127,0
1,50,127,0
1,60,127,0
1,50,0,60
1,50,0,0
1,60,0,0
1,50,127,0
1,50,127,0
1,60,127,0
1,38,0,120
1,50,0,0
1,50,0,0
1,60,0,0
1,50,127,120
1,50,127,0
1,60,127,0
1,50,0,60
1,50,0,0
1,60,0,0
1,50,127,0
1,50,127,0
1,60,127,0
1,50,0,60
1,50,0,0
1,60,0,0
1,50,127,0
1,50,127,0
1,60,127,0
1,50,0,120
1,50,0,0
1,60,0,0
1,38,127,0
1,50,127,120
1,50,127,0
1,62,127,0
1,50,0,60
1,50,0,0
1,62,0,0
1,50,127,0
1,50,127,0
1,62,127,0
1,50,0,60
1,50,0,0
1,62,0,0
1,50,127,0
1,50,127,0
1,62,127,0
1,38,0,120
1,50,0,0
1,50,0,0
1,62,0,0
1,50,127,120
1,50,127,0
1,57,127,0
1,50,0,60
1,50,0,0
1,57,0,0
1,50,127,0
1,50,127,0
1,57,127,0
1,50,0,60
1,50,0,0
1,57,0,0
1,50,127,0
1,50,127,0
1,57,127,0
1,50,0,120
1,50,0,0
1,57,0,0
1,38,127,0
1,50,127,120
1,50,127,0
1,58,127,0
1,50,0,60
1,50,0,0
1,58,0,0
1,50,127,0
1,50,127,0
1,58,127,0
1,50,0,60
1,50,0,0
1,58,0,0
1,50,127,0
1,50,127,0
1,58,127,0
1,38,0,120
1,50,0,0
1,50,0,0
1,58,0,0
1,50,127,120
1,50,127,0
1,58,127,0
1,50,0,60
1,50,0,0
1,58,0,0
1,50,127,0
1,50,127,0
1,58,127,0
1,50,0,60
1,50,0,0
1,58,0,0
1,50,127,0
1,50,127,0
1,58,127,0
1,50,0,120
1,50,0,0
1,58,0,0
1,38,127,0
1,50,127,120
1,50,127,0
1,59,127,0
1,50,0,60
1,50,0,0
1,59,0,0
1,50,127,0
1,50,127,0
1,59,127,0
1,50,0,60
1,50,0,0
1,59,0,0
1,50,127,0
1,50,127,0
1,59,127,0
1,38,0,120
1,50,0,0
1,50,0,0
1,59,0,0
1,50,127,120
1,50,127,0
1,59,127,0
1,50,0,60
1,50,0,0
1,59,0,0
1,50,127,0
1,50,127,0
1,59,127,0
1,50,0,60
1,50,0,0
1,59,0,0
1,50,127,0
1,50,127,0
1,59,127,0
1,50,0,120
1,50,0,0
1,59,0,0
1,38,127,0
1,50,127,120
1,50,127,0
1,60,127,0
1,50,0,60
1,50,0,0
1,60,0,0
1,50,127,0
1,50,127,0
1,60,127,0
1,50,0,60
1,50,0,0
1,60,0,0
1,50,127,0
1,50,127,0
1,60,127,0
1,38,0,120
1,50,0,0
1,50,0,0
1,60,0,0
1,50,127,120
1,50,127,0
1,60,127,0
1,50,0,60
1,50,0,0
1,60,0,0
1,50,127,0
1,50,127,0
1,60,127,0
1,50,0,60
1,50,0,0
1,60,0,0
1,50,127,0
1,50,127,0
1,60,127,0
1,50,0,120
1,50,0,0
1,60,0,0
1,38,127,0
1,50,127,120
1,50,127,0
1,62,127,0
1,50,0,60
1,50,0,0
1,62,0,0
1,50,127,0
1,50,127,0
1,62,127,0
1,50,0,60
1,50,0,0
1,62,0,0
1,50,127,0
1,50,127,0
1,62,127,0
1,38,0,120
1,50,0,0
1,50,0,0
1,62,0,0
1,50,127,120
1,50,127,0
1,57,127,0
1,50,0,60
1,50,0,0
1,57,0,0
1,50,127,0
1,50,127,0
1,57,127,0
1,50,0,60
1,50,0,0
1,57,0,0
1,50,127,0
1,50,127,0
1,57,127,0
1,50,0,120
1,50,0,0
1,57,0,0
1,38,127,0
1,50,127,120
1,50,127,0
1,58,127,0
1,50,0,60
1,50,0,0
1,58,0,0
1,50,127,0
1,50,127,0
1,58,127,0
1,50,0,60
1,50,0,0
1,58,0,0
1,50,127,0
1,50,127,0
1,58,127,0
1,38,0,120
1,50,0,0
1,50,0,0
1,58,0,0
1,50,127,120
1,50,127,0
1,58,127,0
1,50,0,60
1,50,0,0
1,58,0,0
1,50,127,0
1,50,127,0
1,58,127,0
1,50,0,60
1,50,0,0
1,58,0,0
1,50,127,0
1,50,127,0
1,58,127,0
1,50,0,120
1,50,0,0
1,58,0,0
1,38,127,0
1,50,127,120
1,50,127,0
1,59,127,0
1,50,0,60
1,50,0,0
1,59,0,0
1,50,127,0
1,50,127,0
1,59,127,0
1,50,0,60
1,50,0,0
1,59,0,0
1,50,127,0
1,50,127,0
1,59,127,0
1,38,0,120
1,50,0,0
1,50,0,0
1,59,0,0
1,50,127,120
1,50,127,0
1,59,127,0
1,50,0,60
1,50,0,0
1,59,0,0
1,50,127,0
1,50,127,0
1,59,127,0
1,50,0,60
1,50,0,0
1,59,0,0
1,50,127,0
1,50,127,0
1,59,127,0
1,50,0,120
1,50,0,0
1,59,0,0
1,38,127,0
1,50,127,120
1,50,127,0
1,60,127,0
1,50,0,60
1,50,0,0
1,60,0,0
1,50,127,0
1,50,127,0
1,60,127,0
1,50,0,60
1,50,0,0
1,60,0,0
1,50,127,0
1,50,127,0
1,60,127,0
1,38,0,120
1,50,0,0
1,50,0,0
1,60,0,0
1,50,127,120
1,50,127,0
1,60,127,0
1,50,0,60
1,50,0,0
1,60,0,0
1,50,127,0
1,50,127,0
1,60,127,0
1,50,0,60
1,50,0,0
1,60,0,0
1,50,127,0
1,50,127,0
1,60,127,0
1,50,0,120
1,50,0,0
1,60,0,0
1,38,127,0
1,38,0,120
1,62,127,0
1,67,127,0
1,57,127,0
1,74,127,0
1,62,0,180
1,67,0,0
1,57,0,0
1,74,0,0
1,62,127,0
1,66,127,0
1,57,127,0
1,74,127,0
1,62,0,180
1,66,0,0
1,57,0,0
1,74,0,0
1,60,127,0
1,65,127,0
1,57,127,0
1,72,127,0
1,60,0,180
1,65,0,0
1,57,0,0
1,72,0,0
1,60,127,0
1,64,127,0
1,57,127,0
1,72,127,0
1,60,0,180
1,64,0,0
1,57,0,0
1,72,0,0
1,57,127,0
1,62,127,0
1,57,127,0
1,69,127,0
1,57,0,120
1,62,0,0
1,57,0,0
1,69,0,0
1,57,127,0
1,61,127,0
1,57,127,0
1,69,127,0
1,57,0,120
1,61,0,0
1,57,0,0
1,69,0,0
1,55,127,0
1,60,127,0
1,57,127,0
1,67,127,0
1,55,0,180
1,60,0,0
1,57,0,0
1,67,0,0
1,55,127,0
1,59,127,0
1,57,127,0
1,67,127,0
1,55,0,180
1,59,0,0
1,57,0,0
1,67,0,0
1,53,127,0
1,58,127,0
1,57,127,0
1,65,127,0
1,53,0,180
1,58,0,0
1,57,0,0
1,65,0,0
1,53,127,0
1,57,127,0
1,57,127,0
1,65,127,0
1,53,0,180
1,57,0,0
1,57,0,0
1,65,0,0
1,53,127,0
1,53,0,60
1,52,127,0
1,52,0,60
1,50,127,0
1,50,0,120
1,62,127,0
1,67,127,0
