track,note,velocity,time
2,76,79,2856
2,76,0,16
2,79,79,8
2,79,0,16
2,81,79,8
2,81,0,16
2,83,79,56
2,83,0,32
2,81,79,16
2,81,0,24
2,79,79,0
2,79,0,16
2,68,79,416
2,68,0,16
2,83,79,8
2,83,0,80
2,81,79,16
2,81,0,32
2,79,79,16
2,79,0,32
2,81,79,16
2,81,0,48
2,79,79,0
2,79,0,32
2,83,79,592
2,83,0,112
2,83,79,32
2,83,0,32
2,81,79,16
2,81,0,32
2,81,79,16
2,81,0,64
2,79,79,32
2,79,0,48
2,76,79,0
2,74,79,24
2,74,0,16
2,76,0,8
2,83,79,288
2,83,0,64
2,81,79,32
2,81,0,32
2,79,79,16
2,79,0,16
2,81,79,8
2,81,0,24
2,79,79,0
2,79,0,64
2,81,79,584
2,81,0,16
2,81,79,8
2,81,0,16
2,79,79,8
2,79,0,32
2,81,79,16
2,81,0,16
2,83,79,104
2,83,0,32
2,83,79,16
2,83,0,32
2,81,79,16
2,81,0,24
2,80,79,0
2,80,0,48
2,83,79,216
2,83,0,32
2,81,79,16
2,81,0,80
2,81,79,16
2,81,0,32
2,79,79,16
2,79,0,16
2,76,79,8
2,76,0,16
2,76,79,8
2,76,0,112
2,74,79,632
2,74,0,32
2,79,79,16
2,79,0,8
2,81,79,4
2,81,0,8
2,83,79,4
2,83,0,32
2,81,79,16
2,81,0,16
2,81,79,8
2,81,0,48
2,74,79,0
2,74,0,24
2,74,79,0
2,74,0,32
2,71,79,424
2,71,0,16
2,83,79,8
2,83,0,64
2,86,79,8
2,86,0,32
2,83,79,16
2,83,0,16
2,81,79,8
2,81,0,72
2,79,79,0
2,79,0,16
2,80,79,536
2,80,0,96
2,76,79,0
2,76,0,32
2,71,79,64
2,71,0,32
2,83,79,16
2,83,0,16
2,83,79,8
2,83,0,16
2,83,79,8
2,83,0,32
2,83,79,16
2,83,0,32
2,83,79,16
2,83,0,80
2,81,79,16
2,81,0,16
2,79,79,8
2,79,0,16
2,74,79,272
2,74,0,16
2,74,79,8
2,74,0,48
2,74,79,24
2,74,0,56
2,74,79,16
2,74,0,32
2,74,79,16
2,74,0,72
2,73,79,0
2,73,0,24
2,71,79,0
2,71,0,24
2,73,79,0
2,73,0,24
2,71,79,0
2,71,0,32
2,83,79,496
2,83,0,16
2,83,79,8
2,83,0,16
2,83,79,8
2,83,0,16
2,81,79,8
2,81,0,16
2,81,79,8
2,81,0,16
2,81,79,8
2,81,0,16
2,81,79,8
2,81,0,16
2,79,79,8
2,79,0,16
2,83,79,8
2,83,0,32
2,81,79,16
2,81,0,16
2,79,79,8
2,79,0,24
2,81,79,0
2,81,0,32
2,79,79,16
2,79,0,32
2,83,79,208
2,83,0,10
2,83,79,6
2,83,0,10
2,83,79,6
2,83,0,10
2,83,79,6
2,83,0,48
2,81,79,0
2,81,0,48
2,81,79,24
2,81,0,16
2,79,79,8
2,79,0,48
2,76,79,24
2,76,0,16
2,76,79,8
2,76,0,64
2,83,79,224
2,83,0,64
2,83,79,14144
2,83,0,1248
2,79,79,48
2,79,0,112
2,83,79,728
2,83,0,16
2,83,79,8
2,83,0,16
2,83,79,8
2,83,0,16
2,81,79,8
2,81,0,24
2,79,79,0
2,79,0,16
2,79,79,8
2,79,0,32
2,81,79,592
2,81,0,416
2,83,79,16
2,83,0,32
2,83,79,16
2,83,0,64
2,81,79,176
2,81,0,16
2,79,79,8
2,79,0,40
2,79,79,8
2,79,0,48
2,76,79,24
2,76,0,16
2,74,79,8
2,74,0,48
2,75,79,24
2,75,0,64
2,71,79,32
2,71,0,64
2,71,79,224
2,71,0,64
2,71,79,32
2,71,0,64
2,71,79,32
2,71,0,64
2,71,79,32
2,71,0,32
2,71,79,16
2,71,0,32
2,83,79,112
2,83,0,16
2,83,79,8
2,83,0,16
2,83,79,8
2,83,0,16
2,83,79,8
2,83,0,16
2,83,79,8
2,83,0,64
2,83,79,272
2,83,0,16
2,81,79,8
2,81,0,16
2,79,79,8
2,79,0,16
2,81,79,8
2,81,0,16
2,79,79,8
2,79,0,32
2,83,79,256
2,83,0,8
2,83,79,4
2,83,0,8
2,83,79,4
2,83,0,8
2,83,79,4
2,83,0,8
2,83,79,4
2,83,0,16
2,83,79,8
2,83,0,32
2,83,79,16
2,83,0,16
2,83,79,8
2,83,0,16
2,83,79,8
2,83,0,16
2,83,79,8
2,83,0,16
2,83,79,8
2,83,0,16
2,83,79,104
2,83,0,32
2,81,79,16
2,81,0,16
2,80,79,8
2,80,0,16
2,81,79,8
2,81,0,24
2,80,79,0
2,80,0,32
2,76,79,16
2,76,0,12
2,74,79,0
2,74,0,8
2,83,79,244
2,83,0,8
2,83,79,4
2,83,0,8
2,83,79,4
2,83,0,8
2,83,79,4
2,83,0,8
2,79,79,4
2,79,0,64
2,74,79,344
2,74,0,32
2,76,79,16
2,76,0,16
2,76,79,32
2,76,0,32
2,74,79,16
2,74,0,16
2,69,79,8
2,69,0,64
2,71,79,536
2,71,0,16
2,76,79,56
2,76,0,16
2,76,79,8
2,76,0,16
2,74,79,8
2,74,0,16
2,73,79,8
2,73,0,16
2,74,79,8
2,74,0,64
2,71,79,152
2,71,0,48
2,74,79,24
2,74,0,16
2,74,79,8
2,74,0,16
2,71,79,8
2,71,0,16
2,71,79,8
2,71,0,16
2,71,79,8
2,71,0,16
2,70,79,8
2,70,0,48
2,70,79,24
2,70,0,32
2,70,79,16
2,70,0,16
2,69,79,8
2,69,0,120
2,68,79,48
2,68,0,24
2,69,79,0
2,69,0,16
2,68,79,8
2,68,0,64
2,76,79,728
2,76,0,16
2,83,79,8
2,83,0,16
2,83,79,8
2,83,0,16
2,81,79,8
2,81,0,32
2,79,79,16
2,79,0,32
2,76,79,16
2,76,0,64
2,76,79,152
2,76,0,16
2,83,79,8
2,83,0,16
2,83,79,8
2,83,0,16
2,81,79,8
2,81,0,16
2,79,79,8
2,79,0,16
2,79,79,8
2,79,0,16
2,83,79,8
2,83,0,88
2,71,79,152
2,71,0,16
2,83,79,8
2,83,0,32
2,81,79,16
2,81,0,32
2,81,79,16
2,81,0,32
2,79,79,16
2,79,0,16
2,76,79,8
2,76,0,16
2,76,79,8
2,76,0,16
2,81,79,8
2,81,0,40
2,81,79,8
2,81,0,16
2,81,79,8
2,81,0,16
2,79,79,8
2,79,0,16
2,82,79,8
2,82,0,16
2,83,79,8
2,83,0,16
2,81,79,8
2,81,0,16
2,79,79,8
2,79,0,16
2,81,79,8
2,81,0,16
2,83,79,8
2,83,0,32
2,79,79,16
2,79,0,88
2,76,79,104
2,76,0,16
2,79,79,8
2,79,0,16
2,81,79,8
2,81,0,16
2,83,79,8
2,83,0,32
2,81,79,16
2,81,0,32
2,79,79,16
2,79,0,16
2,74,79,8
2,74,0,40
2,74,79,8
2,74,0,48
2,71,79,264
2,71,0,64
2,71,79,8
2,71,0,32
2,71,79,16
2,71,0,16
2,71,79,8
2,71,0,64
2,76,79,32
2,76,0,32
2,74,79,16
2,74,0,16
2,71,79,8
2,71,0,88
2,79,79,680
2,79,0,16
2,81,79,8
2,81,0,10
2,79,79,6
2,79,0,10
2,81,79,6
2,81,0,22
2,79,79,10
2,79,0,16
2,79,79,0
2,83,79,16
2,79,0,6
2,83,0,10
2,83,79,8
2,83,0,16
2,76,79,8
2,76,0,16
2,76,79,8
2,76,0,16
2,71,79,248
2,71,0,32
2,72,79,16
2,72,0,32
2,69,79,16
2,69,0,32
2,73,79,16
2,73,0,16
2,75,79,8
2,75,0,48
2,75,79,24
2,75,0,24
2,72,79,0
2,72,0,48
2,74,79,888
2,74,0,32
2,74,79,16
2,74,0,16
2,76,79,8
2,76,0,88
2,76,79,176
2,76,0,16
2,76,79,8
2,76,0,16
2,76,79,8
2,76,0,48
2,74,79,24
2,74,0,88
2,74,79,32
2,74,0,48
2,74,79,24
2,74,0,16
2,73,79,8
2,73,0,64
2,83,79,512
2,83,0,8
2,81,79,4
2,81,0,8
2,80,79,4
2,80,0,48
2,83,79,24
2,83,0,64
2,83,79,32
2,83,0,32
2,83,79,16
2,83,0,16
2,83,79,8
2,83,0,88
2,83,79,272
2,83,0,16
2,83,79,8
2,83,0,16
2,83,79,8
2,83,0,32
2,81,79,16
2,81,0,24
2,79,79,0
2,79,0,16
2,81,79,8
2,81,0,32
2,79,79,16
2,79,0,32
2,80,79,16
2,80,0,64
2,81,79,824
2,81,0,16
2,81,79,8
2,81,0,16
2,79,79,8
2,79,0,16
2,83,79,8
2,83,0,32
2,81,79,16
2,81,0,16
2,79,79,8
2,79,0,40
2,71,79,8
2,71,0,48
2,71,79,144
2,71,0,16
2,74,79,8
2,74,0,16
2,71,79,8
2,71,0,16
2,74,79,32
2,74,0,32
2,74,79,16
2,74,0,40
2,71,79,8
2,71,0,32
2,71,79,16
2,71,0,16
2,76,79,8
2,76,0,64
2,80,79,32
2,80,0,64
2,81,79,32
2,81,0,64
2,83,79,32
2,83,0,64
2,83,79,5024
2,83,0,64
2,83,79,320
2,83,0,64
2,83,79,320
2,83,0,64
2,83,79,128
2,83,0,64
2,83,79,128
2,83,0,64
2,83,79,32
2,83,0,64
2,83,79,32
2,83,0,64
2,83,79,32
2,83,0,64
2,83,79,32
2,83,0,64
2,83,79,128
2,83,0,32
2,83,79,16
2,83,0,16
2,83,79,8
2,83,0,40
2,83,79,8
2,83,0,16
2,83,79,8
2,83,0,32
2,83,79,16
2,83,0,16
2,83,79,8
2,83,0,32
2,83,79,16
2,83,0,16
2,83,79,8
2,83,0,32
2,83,79,16
2,83,0,16
2,83,79,8
2,83,0,40
2,83,79,8
2,83,0,16
2,83,79,8
2,83,0,32
2,83,79,16
2,83,0,16
2,83,79,8
2,83,0,32
2,83,79,16
2,83,0,16
2,83,95,8
2,83,0,32
2,83,95,16
2,83,0,16
2,83,95,8
2,83,0,40
2,83,95,8
2,83,0,16
2,81,95,8
2,81,0,32
2,79,95,16
2,79,0,16
2,79,95,8
2,79,0,48
2,83,95,192
2,83,0,12
2,81,95,0
2,81,0,12
2,79,95,0
2,79,0,64
2,83,95,104
2,83,0,12
2,81,95,0
2,81,0,12
2,79,95,0
2,79,0,64
2,83,95,248
2,83,0,48
2,83,95,120
2,83,0,64
2,83,95,32
2,83,0,64
2,76,95,224
2,76,0,64
2,76,95,128
2,76,0,64
2,81,95,8048
2,81,0,32
2,81,95,16
2,81,0,16
2,79,95,8
2,79,0,16
2,81,95,8
2,81,0,32
2,83,95,16
2,83,0,48
2,83,95,24
2,83,0,88
2,83,95,224
2,83,0,64
2,81,95,32
2,81,0,32
2,79,95,16
2,79,0,80
2,83,95,16
2,83,0,32
2,81,95,16
2,81,0,64
2,81,95,32
2,81,0,32
2,74,95,16
2,74,0,32
3,71,79,172
3,52,79,0
3,76,79,0
3,52,0,32
3,71,0,0
3,76,0,0
3,71,79,16
3,52,79,0
3,76,79,0
3,52,0,32
3,71,0,0
3,76,0,0
3,71,79,0
3,56,79,0
3,76,79,0
3,56,0,32
3,71,0,0
3,76,0,0
3,71,79,16
3,56,79,0
3,76,79,0
3,56,0,32
3,71,0,0
3,76,0,0
3,71,79,16
3,57,79,0
3,76,79,0
3,57,0,32
3,71,0,0
3,76,0,0
3,57,79,16
3,57,0,32
3,59,79,16
3,59,0,48
3,52,79,0
3,52,0,32
3,74,79,16
3,68,79,0
3,64,79,0
3,79,79,0
3,64,0,64
3,68,0,0
3,74,0,0
3,79,0,0
3,74,79,80
3,68,79,0
3,64,79,0
3,79,79,0
3,68,0,32
3,74,0,0
3,79,0,0
3,74,79,16
3,68,79,0
3,79,79,0
3,64,0,126
3,68,0,0
3,74,0,0
3,79,0,0
3,52,79,66
3,52,0,32
3,52,79,16
3,71,79,0
3,76,79,0
3,52,0,32
3,71,0,0
3,76,0,0
3,71,79,16
3,56,79,0
3,76,79,0
3,56,0,32
3,71,0,0
3,76,0,0
3,71,79,16
3,56,79,0
3,76,79,0
3,56,0,32
3,71,0,0
3,76,0,0
3,57,79,16
3,57,0,32
3,57,79,16
3,57,0,32
3,59,79,16
3,59,0,32
3,52,79,16
3,52,0,32
3,74,79,16
3,68,79,0
3,64,79,0
3,79,79,0
3,64,0,64
3,68,0,0
3,74,0,0
3,79,0,0
3,74,79,80
3,68,79,0
3,64,79,0
3,79,79,0
3,68,0,32
3,74,0,0
3,79,0,0
3,74,79,16
3,68,79,0
3,79,79,0
3,64,0,16
3,68,0,0
3,74,0,0
3,79,0,0
3,74,95,8
3,79,95,0
3,74,0,16
3,79,0,0
3,74,95,8
3,79,95,0
3,74,0,16
3,79,0,0
3,71,95,8
3,71,0,16
3,74,95,8
3,79,95,0
3,74,0,16
3,79,0,0
3,74,95,8
3,79,95,0
3,74,0,16
3,79,0,0
3,71,95,8
3,71,0,48
3,71,79,0
3,52,79,0
3,76,79,0
3,52,0,32
3,71,0,0
3,76,0,0
3,71,79,16
3,52,79,0
3,76,79,0
3,52,0,32
3,71,0,0
3,76,0,0
3,71,79,16
3,56,79,0
3,76,79,0
3,56,0,32
3,71,0,0
3,76,0,0
3,71,79,16
3,56,79,0
3,76,79,0
3,56,0,32
3,71,0,0
3,76,0,0
3,71,79,16
3,57,79,0
3,76,79,0
3,57,0,32
3,71,0,0
3,76,0,0
3,71,79,16
3,57,79,0
3,76,79,0
3,57,0,32
3,71,0,0
3,76,0,0
3,71,79,16
3,59,79,0
3,76,79,0
3,59,0,32
3,71,0,0
3,76,0,0
3,52,79,16
3,52,0,32
3,74,79,16
3,68,79,0
3,64,79,0
3,79,79,0
3,64,0,22
3,68,0,0
3,74,0,0
3,79,0,0
3,74,79,122
3,68,79,0
3,64,79,0
3,79,79,0
3,68,0,10
3,74,0,0
3,79,0,0
3,74,79,38
3,68,79,0
3,79,79,0
3,64,0,16
3,68,0,0
3,74,0,0
3,79,0,0
3,67,95,8
3,67,0,14
3,69,95,10
3,69,0,16
3,71,95,0
3,71,0,10
3,74,95,6
3,74,0,10
3,67,95,6
3,67,0,12
3,71,95,0
3,71,0,12
3,69,95,0
3,69,0,12
3,67,95,0
3,67,0,8
3,66,95,4
3,66,0,12
3,64,95,0
3,64,0,12
3,62,95,0
3,62,0,16
3,52,79,8
3,52,0,32
3,52,79,16
3,52,0,32
3,56,79,16
3,56,0,32
3,56,79,16
3,56,0,32
3,57,79,16
3,71,79,0
3,57,0,32
3,71,0,0
3,57,79,16
3,71,79,0
3,57,0,32
3,71,0,0
3,59,79,16
3,71,79,0
3,71,0,32
3,59,0,16
3,52,79,0
3,52,0,32
3,74,79,16
3,68,79,0
3,64,79,0
3,79,79,0
3,64,0,64
3,68,0,0
3,74,0,0
3,79,0,0
3,74,79,80
3,68,79,0
3,64,79,0
3,79,79,0
3,68,0,32
3,74,0,0
3,79,0,0
3,74,79,16
3,68,79,0
3,79,79,0
3,64,0,126
3,68,0,0
3,74,0,0
3,79,0,0
3,52,79,66
3,71,79,0
3,52,0,32
3,71,0,0
3,52,79,16
3,71,79,0
3,52,0,32
3,71,0,0
3,56,79,16
3,71,79,0
3,56,0,32
3,71,0,0
3,56,79,16
3,71,79,0
3,56,0,32
3,71,0,0
3,57,79,16
3,71,79,0
3,57,0,32
3,71,0,0
3,57,79,16
3,71,79,0
3,57,0,32
3,71,0,0
3,59,79,16
3,71,79,0
3,71,0,32
3,59,0,16
3,52,79,0
3,71,79,0
3,52,0,32
3,71,0,0
3,74,79,16
3,68,79,0
3,64,79,0
3,79,79,0
3,64,0,64
3,68,0,0
3,74,0,0
3,79,0,0
3,74,79,80
3,68,79,0
3,64,79,0
3,79,79,0
3,68,0,32
3,74,0,0
3,79,0,0
3,68,79,16
3,74,79,0
3,79,79,0
3,64,0,126
3,68,0,0
3,74,0,0
3,79,0,0
3,52,79,66
3,52,0,32
3,52,79,16
3,52,0,32
3,56,79,16
3,56,0,32
3,56,79,16
3,56,0,32
3,57,79,16
3,57,0,32
3,57,79,16
3,57,0,32
3,59,79,16
3,59,0,48
