track,note,velocity,time
3,31,87,5180
3,31,0,228
3,31,82,12
3,31,0,148
3,31,83,12
3,31,0,68
3,31,87,12
3,31,0,228
3,31,82,12
3,31,0,148
3,31,83,12
3,31,0,68
3,31,86,12
3,31,0,228
3,31,82,12
3,31,0,148
3,31,83,12
3,31,0,68
3,31,87,12
3,31,0,228
3,31,82,12
3,31,0,148
3,31,82,12
3,31,0,68
3,36,87,12
3,36,0,228
3,36,83,12
3,36,0,148
3,36,82,12
3,36,0,68
3,36,86,12
3,36,0,228
3,36,83,12
3,36,0,148
3,36,82,12
3,36,0,68
3,36,87,12
3,36,0,228
3,36,83,12
3,36,0,148
3,36,82,12
3,36,0,68
3,36,87,12
3,36,0,228
3,36,82,12
3,36,0,148
3,36,82,12
3,36,0,68
3,28,87,12
3,28,0,228
3,28,83,12
3,28,0,148
3,28,82,12
3,28,0,68
3,28,86,12
3,28,0,228
3,28,83,12
3,28,0,148
3,28,83,12
3,28,0,68
3,28,86,12
3,28,0,228
3,28,82,12
3,28,0,148
3,28,83,12
3,28,0,68
3,28,86,12
3,28,0,228
3,28,83,12
3,28,0,148
3,28,83,12
3,28,0,68
3,38,86,12
3,38,0,228
3,38,83,12
3,38,0,148
3,38,82,12
3,38,0,68
3,38,86,12
3,38,0,228
3,38,83,12
3,38,0,148
3,38,83,12
3,38,0,68
3,38,86,12
3,38,0,228
3,38,82,12
3,38,0,148
3,38,83,12
3,38,0,68
3,38,87,12
3,38,0,228
3,38,82,12
3,38,0,148
3,38,82,12
3,38,0,68
3,36,87,12
3,36,0,228
3,36,82,12
3,36,0,148
3,36,83,12
3,36,0,68
3,36,87,12
3,36,0,228
3,36,82,12
3,36,0,148
3,36,83,12
3,36,0,68
3,38,86,12
3,38,0,228
3,38,82,12
3,38,0,148
3,38,83,12
3,38,0,68
3,38,87,12
3,38,0,228
3,38,82,12
3,38,0,148
3,38,82,12
3,38,0,68
3,40,87,12
3,40,0,228
3,40,83,12
3,40,0,148
3,40,82,12
3,40,0,68
3,40,86,12
3,40,0,228
3,40,83,12
3,40,0,148
3,40,82,12
3,40,0,68
3,35,87,12
3,35,0,228
3,35,83,12
3,35,0,148
3,35,82,12
3,35,0,68
3,35,87,12
3,35,0,228
3,35,82,12
3,35,0,148
3,35,82,12
3,35,0,68
3,36,87,12
3,36,0,228
3,36,83,12
3,36,0,148
3,36,82,12
3,36,0,68
3,36,86,12
3,36,0,228
3,36,83,12
3,36,0,148
3,36,83,12
3,36,0,68
3,38,86,12
3,38,0,228
3,38,82,12
3,38,0,148
3,38,83,12
3,38,0,68
3,38,86,12
3,38,0,228
3,38,83,12
3,38,0,148
3,38,83,12
3,38,0,68
3,36,86,12
3,36,0,228
3,36,83,12
3,36,0,148
3,36,82,12
3,36,0,68
3,36,86,12
3,36,0,228
3,36,83,12
3,36,0,148
3,36,83,12
3,36,0,68
3,36,86,12
3,36,0,228
3,36,82,12
3,36,0,148
3,36,83,12
3,36,0,68
3,36,87,12
3,36,0,228
3,36,82,12
3,36,0,148
3,36,82,12
3,36,0,68
3,31,93,12
3,31,0,745
3,31,92,55
3,31,0,38
3,31,93,122
3,31,0,801
3,36,93,159
3,36,0,698
3,36,92,102
3,36,0,39
3,36,93,121
3,36,0,819
3,28,92,141
3,28,0,665
3,28,92,135
3,28,0,35
3,28,93,125
3,28,0,630
3,33,93,10
3,33,0,160
3,40,92,0
3,40,0,160
3,38,92,0
3,38,0,665
3,38,93,135
3,38,0,35
3,38,93,125
3,38,0,480
3,35,92,0
3,35,0,480
3,36,92,0
3,36,0,693
3,36,93,107
3,36,0,33
3,38,92,127
3,38,0,790
3,40,93,170
3,40,0,658
3,40,93,142
3,40,0,36
3,35,92,124
3,35,0,475
3,38,93,5
3,38,0,475
3,36,92,5
3,36,0,638
3,36,92,162
3,36,0,33
3,38,93,127
3,38,0,924
3,41,93,36
3,41,0,471
3,36,92,9
3,41,92,480
3,36,0,15
3,41,0,405
3,36,93,60
3,36,0,464
3,40,101,16
3,40,0,308
3,40,86,12
3,40,0,148
3,40,100,12
3,40,0,308
3,40,87,12
3,40,0,148
3,38,100,12
3,38,0,308
3,38,87,12
3,38,0,148
3,38,87,12
3,38,0,308
3,38,86,12
3,38,0,148
3,36,101,12
3,36,0,308
3,36,86,12
3,36,0,148
3,36,100,12
3,36,0,308
3,36,87,12
3,36,0,148
3,35,101,12
3,35,0,308
3,35,86,12
3,35,0,148
3,35,100,12
3,35,0,308
3,35,87,12
3,35,0,148
3,33,101,12
3,33,0,308
3,33,86,12
3,33,0,148
3,33,100,12
3,33,0,308
3,33,87,12
3,33,0,148
3,36,100,12
3,36,0,308
3,36,87,12
3,36,0,148
3,36,101,12
3,36,0,308
3,36,86,12
3,36,0,148
3,38,101,12
3,38,0,308
3,38,86,12
3,38,0,148
3,38,100,12
3,38,0,308
3,38,87,12
3,38,0,148
3,42,99,4
3,42,0,254
3,42,86,12
3,42,0,148
3,42,100,12
3,42,0,148
3,40,91,12
3,40,0,148
3,38,81,12
3,38,0,148
3,40,100,12
3,40,0,308
3,40,86,12
3,40,0,148
3,40,101,12
3,40,0,308
3,40,86,12
3,40,0,148
3,35,101,12
3,35,0,308
3,35,87,12
3,35,0,148
3,38,86,12
3,38,0,308
3,38,87,12
3,38,0,148
3,36,100,12
3,36,0,308
3,36,86,12
3,36,0,148
3,36,101,12
3,36,0,308
3,36,87,12
3,36,0,148
3,35,100,12
3,35,0,308
3,35,86,12
3,35,0,148
3,35,101,12
3,35,0,308
3,35,87,12
3,35,0,148
3,33,100,12
3,33,0,308
3,33,86,12
3,33,0,148
3,33,101,12
3,33,0,308
3,33,86,12
3,33,0,148
3,36,101,12
3,36,0,308
3,36,87,12
3,36,0,148
3,36,100,12
3,36,0,308
3,36,87,12
3,36,0,148
3,31,92,12
3,31,0,745
3,31,92,55
3,31,0,38
3,31,93,122
3,31,0,801
3,36,93,159
3,36,0,698
3,36,92,102
3,36,0,39
3,36,92,121
3,36,0,819
3,28,93,141
3,28,0,665
3,28,93,135
3,28,0,35
3,28,92,125
3,28,0,630
3,33,92,10
3,33,0,160
3,40,93,0
3,40,0,160
3,38,92,0
3,38,0,665
3,38,93,135
3,38,0,35
3,38,93,125
3,38,0,480
3,35,92,0
3,35,0,480
3,36,93,0
3,36,0,693
3,36,92,107
3,36,0,33
3,38,92,127
3,38,0,790
3,40,93,170
3,40,0,658
3,40,93,142
3,40,0,36
3,35,92,124
3,35,0,475
3,38,92,5
3,38,0,475
3,36,93,5
3,36,0,638
3,36,93,162
3,36,0,33
3,38,92,127
3,38,0,924
3,41,92,36
3,41,0,471
3,36,93,9
3,41,92,480
3,36,0,15
3,41,0,405
3,36,93,60
3,36,0,464
3,40,101,16
3,40,0,308
3,40,86,12
3,40,0,148
3,40,101,12
3,40,0,308
3,40,86,12
3,40,0,148
3,38,100,12
3,38,0,308
3,38,87,12
3,38,0,148
3,38,87,12
3,38,0,308
3,38,86,12
3,38,0,148
3,36,100,12
3,36,0,308
3,36,87,12
3,36,0,148
3,36,101,12
3,36,0,308
3,36,86,12
3,36,0,148
3,35,100,12
3,35,0,308
3,35,87,12
3,35,0,148
3,35,100,12
3,35,0,308
3,35,87,12
3,35,0,148
3,33,101,12
3,33,0,308
3,33,86,12
3,33,0,148
3,33,101,12
3,33,0,308
3,33,86,12
3,33,0,148
3,36,100,12
3,36,0,308
3,36,87,12
3,36,0,148
3,36,101,12
3,36,0,308
3,36,86,12
3,36,0,148
3,38,100,12
3,38,0,308
3,38,87,12
3,38,0,148
3,38,101,12
3,38,0,308
3,38,86,12
3,38,0,148
3,42,104,4
3,42,0,174
3,42,103,12
3,42,0,159
3,40,94,1
3,40,0,50
3,42,113,30
3,42,0,140
3,40,107,20
3,40,0,135
3,38,92,25
3,38,0,150
3,40,101,10
3,40,0,308
3,40,86,12
3,40,0,148
3,43,100,12
3,43,0,308
3,40,87,12
3,40,0,148
3,35,101,12
3,35,0,308
3,35,86,12
3,35,0,148
3,35,86,12
3,35,0,308
3,35,87,12
3,35,0,148
3,36,101,12
3,36,0,308
3,36,86,12
3,36,0,148
3,36,100,12
3,36,0,308
3,36,87,12
3,36,0,148
3,35,100,12
3,35,0,308
3,35,87,12
3,35,0,148
3,35,101,12
3,35,0,308
3,35,86,12
3,35,0,148
3,33,101,12
3,33,0,308
3,33,86,12
3,33,0,148
3,33,100,12
3,33,0,308
3,33,87,12
3,33,0,148
3,36,101,12
3,36,0,308
3,36,86,12
3,36,0,148
3,36,100,12
3,36,0,308
3,36,87,12
3,36,0,148
3,33,101,12
3,33,0,308
3,33,86,12
3,33,0,148
3,43,100,12
3,43,0,160
3,45,87,0
3,45,0,148
3,33,86,12
3,33,0,148
3,33,101,12
3,33,0,308
3,33,87,12
3,33,0,148
3,43,100,12
3,43,0,160
3,45,87,0
3,45,0,148
3,33,86,12
3,33,0,148
3,31,114,12
3,31,0,228
3,31,111,12
3,31,0,148
3,31,111,12
3,31,0,68
3,31,114,12
3,31,0,228
3,31,110,12
3,31,0,148
3,31,111,12
3,31,0,68
3,31,115,12
3,31,0,228
3,31,110,12
3,31,0,148
3,31,110,12
3,31,0,68
3,43,105,12
3,43,0,228
3,43,100,12
3,43,0,148
3,43,101,12
3,43,0,68
3,36,105,12
3,36,0,228
3,36,100,12
3,36,0,148
3,36,101,12
3,36,0,68
3,36,104,12
3,36,0,228
3,36,100,12
3,36,0,148
3,36,101,12
3,36,0,68
3,36,105,12
3,36,0,228
3,36,100,12
3,36,0,148
3,36,100,12
3,36,0,68
3,48,105,12
3,48,0,228
3,48,101,12
3,48,0,148
3,48,100,12
3,48,0,68
3,40,104,12
3,40,0,228
3,40,101,12
3,40,0,148
3,40,100,12
3,40,0,68
3,40,105,12
3,40,0,228
3,40,101,12
3,40,0,148
3,40,100,12
3,40,0,68
3,40,105,12
3,40,0,228
3,40,100,12
3,40,0,148
3,40,100,12
3,40,0,68
3,45,105,12
3,45,0,160
3,43,101,0
3,43,0,160
3,40,100,0
3,40,0,160
3,38,104,0
3,38,0,228
3,38,101,12
3,38,0,148
3,38,101,12
3,38,0,68
3,38,104,12
3,38,0,228
3,38,100,12
3,38,0,148
3,38,101,12
3,38,0,68
3,38,104,12
3,38,0,228
3,38,101,12
3,38,0,148
3,38,101,12
3,38,0,68
3,38,104,12
3,38,0,320
3,33,101,0
3,33,0,80
3,35,100,0
3,35,0,80
3,36,104,0
3,36,0,308
3,36,93,12
3,36,0,148
3,36,101,12
3,36,0,308
3,36,92,12
3,36,0,148
3,38,104,12
3,38,0,308
3,38,93,12
3,38,0,148
3,38,101,12
3,38,0,308
3,38,92,12
3,38,0,148
3,40,104,12
3,40,0,308
3,40,93,12
3,40,0,148
3,40,100,12
3,40,0,308
3,40,93,12
3,40,0,148
3,35,105,12
3,35,0,308
3,35,92,12
3,35,0,148
3,38,101,12
3,38,0,308
3,38,92,12
3,38,0,148
3,36,104,12
3,36,0,308
3,36,93,12
3,36,0,148
3,36,101,12
3,36,0,308
3,36,92,12
3,36,0,148
3,38,104,12
3,38,0,308
3,38,93,12
3,38,0,148
3,38,101,12
3,38,0,308
3,38,92,12
3,38,0,148
3,31,114,12
3,31,0,228
3,31,111,12
3,31,0,148
3,31,110,12
3,31,0,68
3,31,115,12
3,31,0,228
3,31,111,12
3,31,0,148
3,31,110,12
3,31,0,68
3,31,115,12
3,31,0,228
3,31,110,12
3,31,0,148
3,31,110,12
3,31,0,68
3,43,105,12
3,43,0,228
3,43,101,12
3,43,0,148
3,43,100,12
3,43,0,68
3,36,104,12
3,36,0,228
3,36,101,12
3,36,0,148
3,36,101,12
3,36,0,68
3,36,104,12
3,36,0,228
3,36,100,12
3,36,0,148
3,36,101,12
3,36,0,68
3,36,104,12
3,36,0,228
3,36,101,12
3,36,0,148
3,36,101,12
3,36,0,68
3,48,104,12
3,48,0,228
3,48,101,12
3,48,0,148
3,48,100,12
3,48,0,68
3,40,104,12
3,40,0,228
3,40,101,12
3,40,0,148
3,40,101,12
3,40,0,68
3,40,104,12
3,40,0,228
3,40,100,12
3,40,0,148
3,40,101,12
3,40,0,68
3,40,105,12
3,40,0,228
3,40,100,12
3,40,0,148
3,40,100,12
3,40,0,68
3,45,105,12
3,45,0,160
3,43,100,0
3,43,0,160
3,40,101,0
3,40,0,160
3,38,105,0
3,38,0,228
3,38,100,12
3,38,0,148
3,38,101,12
3,38,0,68
3,38,104,12
3,38,0,228
3,38,100,12
3,38,0,148
3,38,101,12
3,38,0,68
3,38,105,12
3,38,0,228
3,38,100,12
3,38,0,148
3,38,100,12
3,38,0,68
3,38,105,12
3,38,0,320
3,33,101,0
3,33,0,80
3,35,100,0
3,35,0,80
3,36,104,0
3,36,0,308
3,36,93,12
3,36,0,148
3,36,100,12
3,36,0,308
3,36,93,12
3,36,0,148
3,38,105,12
3,38,0,308
3,38,92,12
3,38,0,148
3,38,101,12
3,38,0,308
3,38,92,12
3,38,0,148
3,40,104,12
3,40,0,308
3,40,93,12
3,40,0,148
3,40,101,12
3,40,0,308
3,40,92,12
3,40,0,148
3,35,104,12
3,35,0,308
3,35,93,12
3,35,0,148
3,38,101,12
3,38,0,308
3,38,92,12
3,38,0,148
3,36,104,12
3,36,0,308
3,36,93,12
3,36,0,148
3,36,100,12
3,36,0,308
3,36,93,12
3,36,0,148
3,38,105,12
3,38,0,308
3,38,92,12
3,38,0,148
3,38,101,12
3,38,0,308
3,38,92,12
3,38,0,148
3,31,114,12
3,31,0,374
3,31,89,10
3,31,0,18
3,31,127,43
3,31,0,243
3,31,98,12
3,31,0,24
3,31,126,39
3,31,0,239
3,31,101,12
3,31,0,29
3,31,127,42
3,31,0,1305
3,31,106,13
3,31,0,111
4,55,89,1315
4,62,94,10
4,67,99,15
4,55,0,123
4,67,0,3
4,55,77,9
4,67,68,0
4,62,0,64
4,67,0,4
4,62,73,8
4,67,66,4
4,60,78,66
4,55,0,2
4,67,0,0
4,62,0,9
4,55,79,3
4,67,79,0
4,60,0,147
4,55,0,1
4,67,0,0
4,62,94,5
4,55,94,7
4,67,85,0
4,55,0,148
4,67,0,0
4,55,77,12
4,67,66,0
4,62,0,68
4,67,0,0
4,67,68,12
4,62,73,4
4,55,0,64
4,67,0,0
4,60,74,6
4,62,0,4
4,55,79,2
4,67,79,0
4,55,0,148
4,67,0,0
4,55,94,12
4,67,105,0
4,60,0,4
4,62,92,0
4,55,0,144
4,67,0,0
4,55,76,12
4,67,59,0
4,67,0,68
4,62,0,11
4,67,67,1
4,62,80,10
4,55,0,58
4,67,0,0
4,60,82,5
4,62,0,3
4,55,79,4
4,67,83,0
4,60,0,143
4,55,0,5
4,67,0,0
4,55,94,12
4,67,90,0
4,62,95,6
4,55,0,142
4,67,0,0
4,62,0,7
4,55,76,5
4,67,75,0
4,64,79,3
4,55,0,145
4,67,0,0
4,55,78,12
4,67,89,0
4,64,0,8
4,60,80,0
4,60,0,111
4,55,0,29
4,67,0,0
4,55,94,12
4,62,101,3
4,67,99,5
4,55,0,140
4,67,0,8
4,55,76,4
4,67,68,0
4,67,0,68
4,62,0,4
4,62,73,4
4,67,67,4
4,60,78,66
4,55,0,2
4,67,0,0
4,62,0,9
4,55,78,3
4,67,79,0
4,60,0,147
4,55,0,1
4,67,0,0
4,62,94,5
4,55,95,7
4,67,85,0
4,55,0,148
4,67,0,0
4,55,76,12
4,67,67,0
4,62,0,68
4,67,0,0
4,67,68,12
4,62,72,4
4,55,0,64
4,67,0,0
4,60,75,6
4,62,0,4
4,55,79,2
4,67,78,0
4,55,0,148
4,67,0,0
4,55,94,12
4,67,105,0
4,60,0,4
4,62,93,0
4,55,0,144
4,67,0,0
4,55,76,12
4,67,58,0
4,67,0,68
4,62,0,11
4,67,67,1
4,62,80,10
4,55,0,58
4,67,0,0
4,60,83,5
4,62,0,3
4,55,79,4
4,67,82,0
4,60,0,143
4,55,0,5
4,67,0,0
