track,note,velocity,time
1,68,100,14040
1,68,0,60
1,71,100,0
1,71,0,30
1,71,100,0
1,71,0,120
1,73,100,0
1,73,0,30
1,73,100,0
1,73,0,60
1,75,100,0
1,75,0,30
1,75,100,0
1,75,0,150
1,71,100,450
1,71,0,30
1,71,100,0
1,71,0,60
1,71,100,0
1,71,0,30
1,71,100,0
1,71,0,60
1,73,100,0
1,73,0,90
1,66,100,0
1,66,0,60
1,68,100,0
1,68,0,30
1,68,100,0
1,68,0,150
1,66,72,120
1,66,0,30
1,68,72,0
1,68,0,30
1,66,72,0
1,66,0,30
1,64,72,0
1,64,0,60
1,61,72,0
1,61,0,90
1,68,100,90
1,68,0,30
1,68,100,0
1,68,0,60
1,71,100,0
1,71,0,60
1,71,100,0
1,71,0,60
1,73,100,0
1,73,0,30
1,73,100,0
1,73,0,60
1,75,100,0
1,75,0,30
1,75,100,0
1,75,0,180
1,71,100,450
1,71,0,30
1,71,100,0
1,71,0,60
1,71,100,0
1,71,0,30
1,71,100,0
1,71,0,60
1,73,100,0
1,73,0,30
1,66,100,0
1,66,0,90
1,68,100,0
1,68,0,60
1,68,100,0
1,68,80,60
1,68,60,60
1,68,40,60
1,68,30,60
1,68,0,30
1,68,0,60
1,68,0,60
1,68,0,120
1,68,0,0
1,68,100,90
1,68,0,30
1,68,100,0
1,68,0,60
1,71,100,0
1,71,0,30
1,71,100,0
1,71,0,90
1,73,100,0
1,73,0,30
1,73,100,0
1,73,0,60
1,75,100,0
1,75,0,30
1,75,100,0
1,75,0,300
1,75,100,330
1,75,0,30
1,75,100,0
1,75,0,30
1,75,100,0
1,75,0,60
1,75,100,0
1,75,0,60
1,76,100,0
1,76,0,60
1,76,100,0
1,76,0,60
1,78,100,0
1,78,0,60
1,80,100,0
1,80,0,150
1,80,110,480
1,80,0,30
1,80,110,0
1,80,0,30
1,80,110,0
1,80,0,30
1,80,110,0
1,80,0,60
1,83,110,0
1,83,0,60
1,78,110,0
1,78,0,60
1,80,110,0
1,80,0,90
1,80,110,0
1,80,0,480
1,68,110,360
1,68,0,60
1,71,110,0
1,71,0,60
1,73,110,0
1,73,0,60
1,73,110,0
1,73,0,270
1,76,110,0
1,76,0,30
1,73,110,0
1,73,0,60
1,71,110,0
1,71,0,180
1,68,110,270
1,68,0,60
1,71,110,0
1,71,0,60
1,73,110,0
1,73,0,90
1,73,110,0
1,73,0,210
1,75,110,0
1,75,0,60
1,73,110,0
1,73,0,90
1,71,110,0
1,71,0,30
1,73,110,0
1,73,0,30
1,71,110,0
1,71,0,30
1,73,110,0
1,73,0,30
1,71,110,0
1,71,0,120
1,80,110,300
1,80,0,90
1,78,110,0
1,78,0,30
1,76,110,0
1,76,0,90
1,78,110,0
1,78,0,30
1,76,110,0
1,76,0,120
1,75,110,0
1,75,0,150
1,73,110,0
1,73,0,390
1,68,100,15960
1,68,0,60
1,71,100,0
1,71,0,30
1,71,100,0
1,71,0,120
1,73,100,0
1,73,0,30
1,73,100,0
1,73,0,60
1,75,100,0
1,75,0,30
1,75,100,0
1,75,0,150
1,71,100,450
1,71,0,30
1,71,100,0
1,71,0,60
1,71,100,0
1,71,0,30
1,71,100,0
1,71,0,60
1,73,100,0
1,73,0,90
1,66,100,0
1,66,0,60
1,68,100,0
1,68,0,30
1,68,100,0
1,68,0,150
1,66,72,120
1,66,0,30
1,68,72,0
1,68,0,30
1,66,72,0
1,66,0,30
1,64,72,0
1,64,0,60
1,61,72,0
1,61,0,90
1,68,100,90
1,68,0,30
1,68,100,0
1,68,0,60
1,71,100,0
1,71,0,60
1,71,100,0
1,71,0,60
1,73,100,0
1,73,0,30
1,73,100,0
1,73,0,60
1,75,100,0
1,75,0,30
1,75,100,0
1,75,0,180
1,71,100,450
1,71,0,30
1,71,100,0
1,71,0,60
1,71,100,0
1,71,0,30
1,71,100,0
1,71,0,60
1,73,100,0
1,73,0,30
1,66,100,0
1,66,0,90
1,68,100,0
1,68,0,60
1,68,100,0
1,68,0,270
1,68,100,330
1,68,0,30
1,68,100,0
1,68,0,60
1,71,100,0
1,71,0,30
1,71,100,0
1,71,0,90
1,73,100,0
1,73,0,30
1,73,100,0
1,73,0,60
1,75,100,0
1,75,0,30
1,75,100,0
1,75,0,300
1,75,100,330
1,75,0,30
1,75,100,0
1,75,0,30
1,75,100,0
1,75,0,60
1,75,100,0
1,75,0,60
1,76,100,0
1,76,0,60
1,76,100,0
1,76,0,60
1,78,100,0
1,78,0,60
1,80,100,0
1,80,0,150
1,80,110,480
1,80,0,30
1,80,110,0
1,80,0,30
1,80,110,0
1,80,0,30
1,80,110,0
1,80,0,60
1,83,110,0
1,83,0,60
1,78,110,0
1,78,0,60
1,80,110,0
1,80,0,90
1,80,127,0
1,80,0,390
1,78,127,0
1,78,0,30
1,76,127,0
1,76,0,30
1,75,127,0
1,75,0,120
1,73,127,0
1,73,0,150
1,68,110,1080
1,68,0,60
1,71,110,0
1,71,0,60
1,73,110,0
1,73,0,60
1,73,110,0
1,73,0,90
1,75,110,0
1,75,0,30
1,73,110,0
1,73,0,150
1,75,110,0
1,75,0,90
1,73,110,0
1,73,0,30
1,71,110,0
1,71,0,30
1,68,110,0
1,68,0,30
1,66,110,0
1,66,0,120
1,64,110,0
1,64,0,90
1,68,110,120
1,68,0,30
1,71,110,0
1,71,0,60
1,73,110,0
1,73,0,90
1,73,110,0
1,73,0,30
1,75,110,0
1,75,0,60
1,76,110,0
1,76,0,30
1,78,110,0
1,78,0,90
1,80,110,0
1,80,0,30
1,83,110,0
1,83,0,30
1,80,110,0
1,80,0,60
1,78,110,0
1,78,0,60
1,76,110,0
1,76,0,30
1,75,110,0
1,75,0,30
1,73,110,0
1,73,0,60
1,73,110,0
1,73,0,150
1,68,110,120
1,68,0,60
1,71,110,0
1,71,0,60
1,73,110,0
1,73,0,60
1,73,110,0
1,73,0,90
1,75,110,0
1,75,0,30
1,73,110,0
1,73,0,150
1,75,110,0
1,75,0,90
1,73,110,0
1,73,0,30
1,71,110,0
1,71,0,30
1,68,110,0
1,68,0,30
1,66,110,0
1,66,0,120
1,64,110,0
1,64,0,90
1,68,110,120
1,68,0,30
1,71,110,0
1,71,0,60
1,73,110,0
1,73,0,90
1,73,110,0
1,73,0,30
1,75,110,0
1,75,0,60
1,76,110,0
1,76,0,30
1,78,110,0
1,78,0,90
1,80,110,0
1,80,0,30
1,83,110,0
1,83,0,30
1,80,110,0
1,80,0,60
1,78,110,0
1,78,0,60
1,76,110,0
1,76,0,30
1,75,110,0
1,75,0,30
1,73,110,0
1,73,0,60
1,73,110,0
1,73,0,150
1,68,110,120
1,68,0,60
1,71,110,0
1,71,0,60
1,73,110,0
1,73,0,60
1,73,108,0
1,73,0,90
1,75,105,0
1,75,0,30
1,73,104,0
1,73,0,150
1,75,100,0
1,75,0,90
1,73,96,0
1,73,0,30
1,71,95,0
1,71,0,30
1,68,94,0
1,68,0,30
1,66,93,0
1,66,0,120
1,64,90,0
1,64,0,90
1,68,82,120
1,68,0,30
1,71,82,0
1,71,0,60
1,73,80,0
1,73,0,90
1,73,74,0
1,73,0,30
1,75,73,0
1,75,0,60
1,76,69,0
1,76,0,30
1,78,69,0
1,78,0,90
1,80,64,0
1,80,0,30
1,83,62,0
1,83,0,30
1,80,60,0
1,80,0,60
1,78,57,0
1,78,0,60
1,76,54,0
1,76,0,30
1,75,53,0
1,75,0,30
1,73,51,0
1,73,0,60
1,73,48,0
1,73,0,150
1,68,36,120
1,68,0,60
1,71,33,0
1,71,0,60
1,73,31,0
1,73,0,60
1,73,29,0
1,73,0,90
1,75,26,0
1,75,0,30
1,73,25,0
1,73,0,150
1,75,20,0
1,75,0,90
1,73,17,0
1,73,0,30
1,71,17,0
1,71,0,30
1,68,15,0
1,68,0,30
1,66,14,0
1,66,0,120
1,64,12,0
1,64,0,90
1,68,7,120
1,68,0,30
1,71,6,0
1,71,0,60
1,73,6,0
1,73,0,90
1,73,4,0
1,73,0,30
1,75,4,0
1,75,0,60
1,76,3,0
1,76,0,30
1,78,2,0
1,78,0,90
1,80,1,0
1,80,0,30
1,83,1,0
1,83,0,30
1,80,1,0
1,80,0,60
2,68,48,72
2,68,0,90
2,71,49,30
2,71,0,90
2,73,49,30
2,73,0,60
2,75,49,30
2,75,0,150
2,71,50,30
2,71,0,30
2,68,50,0
2,68,0,60
2,70,50,0
2,70,0,150
2,71,51,240
2,71,0,60
2,71,51,30
2,71,0,60
2,73,52,0
2,73,0,60
2,68,52,90
2,68,0,210
2,68,54,420
2,68,0,90
2,71,55,30
2,71,0,90
2,73,56,30
2,73,0,60
2,75,56,30
2,75,0,150
2,68,56,30
2,71,56,0
2,68,0,90
2,71,0,0
2,68,56,0
2,68,0,60
2,71,58,330
2,71,0,90
2,71,58,0
2,71,0,60
2,73,58,0
2,73,0,90
2,68,59,60
2,68,0,210
2,68,61,450
2,68,0,60
2,71,61,30
2,71,0,90
2,73,62,30
2,73,0,90
2,75,62,30
2,75,0,150
2,75,70,450
2,75,0,30
2,75,70,0
2,75,0,90
2,75,70,0
2,75,0,60
2,76,70,0
2,76,0,60
2,76,70,0
2,76,0,60
2,78,70,0
2,78,0,60
2,68,70,0
2,80,70,0
2,68,0,150
2,80,0,0
2,80,70,480
2,68,70,0
2,80,0,90
2,68,0,0
2,68,70,0
2,80,70,0
2,68,0,60
2,80,0,0
2,83,70,0
2,71,70,0
2,83,0,60
2,71,0,0
2,78,70,0
2,78,0,90
2,80,70,0
2,68,70,0
2,80,0,60
2,68,0,0
2,68,70,0
2,73,70,0
2,76,70,0
2,68,0,90
2,73,0,0
2,76,0,0
2,68,70,3540
2,68,0,60
2,71,70,0
2,71,0,150
2,68,56,2010
2,68,0,90
2,68,56,30
2,68,0,90
2,73,56,30
2,73,0,60
2,75,56,30
2,75,0,210
2,71,70,0
2,71,0,60
2,71,70,0
2,71,0,150
2,70,70,0
2,70,0,210
2,71,56,30
2,71,0,60
2,71,56,30
2,71,0,60
2,73,56,0
2,73,0,60
2,68,56,90
2,68,0,210
2,68,56,450
2,68,0,60
2,71,56,30
2,71,0,90
2,73,56,30
2,73,0,60
2,75,56,30
2,75,0,210
2,68,70,0
2,68,0,60
2,71,56,390
2,71,0,90
2,71,56,0
2,71,0,60
2,73,56,0
2,73,0,90
2,68,56,60
2,68,0,180
2,68,56,480
2,68,0,60
2,71,56,30
2,71,0,90
2,73,56,30
2,73,0,90
2,75,56,30
2,75,0,150
2,68,70,0
2,68,0,90
2,75,56,390
2,75,0,90
2,75,56,0
2,75,0,60
2,76,56,0
2,76,0,60
2,76,56,0
2,76,0,90
2,78,56,0
2,78,0,60
2,68,70,0
2,80,70,0
2,68,0,120
2,80,0,0
2,80,63,480
2,80,0,60
2,80,63,0
2,80,0,30
2,80,63,0
2,80,0,60
2,83,63,0
2,83,0,60
2,78,63,0
2,78,0,90
2,80,63,0
2,80,0,60
2,73,63,0
2,76,63,0
2,73,0,90
2,76,0,0
2,68,70,19680
2,68,0,90
2,68,70,30
2,68,0,90
2,73,70,30
2,73,0,60
2,75,70,30
2,75,0,210
2,71,70,0
2,71,0,60
2,71,70,0
2,71,0,150
2,70,70,0
2,70,0,210
2,71,70,30
2,71,0,60
2,71,70,30
2,71,0,60
2,73,70,0
2,73,0,60
2,68,70,90
2,68,0,210
2,68,70,450
2,68,0,60
2,71,70,30
2,71,0,90
2,73,70,30
2,73,0,60
2,75,70,30
2,75,0,210
2,68,70,0
2,68,0,60
2,71,70,390
2,71,0,90
2,71,70,0
2,71,0,60
2,73,70,0
2,73,0,90
2,68,70,60
2,68,0,180
2,68,70,480
2,68,0,60
2,71,70,30
2,71,0,90
2,73,70,30
2,73,0,90
2,75,70,30
2,75,0,150
2,68,70,0
2,68,0,90
2,75,70,390
2,75,0,90
2,75,70,0
2,75,0,60
2,76,70,0
2,76,0,60
2,76,70,0
2,76,0,90
2,78,70,0
2,78,0,60
2,68,70,0
2,80,70,0
2,68,0,120
2,80,0,0
2,80,70,480
2,80,0,60
2,80,70,0
2,80,0,30
2,80,70,0
2,80,0,60
2,83,70,0
2,83,0,60
2,78,70,0
2,78,0,90
2,80,70,0
2,80,0,60
3,56,42,75
3,56,0,30
3,64,42,0
3,64,0,30
3,63,42,0
3,63,0,30
3,61,42,0
3,61,0,30
3,63,42,0
3,63,0,60
3,59,42,0
3,59,0,90
3,54,42,0
3,54,0,60
3,56,43,0
3,56,0,150
3,56,43,0
3,56,0,30
3,64,43,0
3,64,0,30
3,63,44,0
3,63,0,30
3,61,44,0
3,61,0,30
3,63,44,0
3,63,0,120
3,66,44,0
3,66,0,60
3,59,44,0
3,59,0,90
3,56,44,0
3,56,0,90
3,56,45,0
3,56,0,30
3,64,45,0
3,64,0,30
3,63,45,0
3,63,0,30
3,61,45,0
3,61,0,30
3,63,45,0
3,63,0,60
3,59,45,0
3,59,0,90
3,54,46,0
3,54,0,60
3,56,46,0
3,56,0,150
3,56,46,0
3,56,0,30
3,64,46,0
3,64,0,30
3,63,46,0
3,63,0,30
3,61,46,0
3,61,0,30
3,63,46,0
3,63,0,120
3,59,47,0
3,59,0,30
3,66,47,0
3,59,47,0
3,66,0,120
3,59,0,0
3,56,48,60
3,56,0,30
3,68,48,0
3,68,0,90
3,59,49,0
3,59,0,30
3,71,49,0
3,71,0,90
3,61,49,0
3,61,0,30
3,73,49,0
3,73,0,60
3,63,49,0
3,63,0,30
3,75,49,0
3,75,0,150
3,63,49,0
3,63,0,30
3,71,50,0
3,71,0,30
3,68,50,0
3,68,0,60
3,70,50,0
3,70,0,150
3,66,51,0
3,66,0,210
3,59,51,0
3,59,0,30
3,71,51,0
3,71,0,60
3,59,51,0
3,59,0,30
3,71,51,0
3,71,0,60
3,61,52,0
3,73,52,0
3,61,0,60
3,73,0,0
3,54,52,0
3,54,0,30
3,66,52,0
3,66,0,60
3,56,52,0
3,68,52,0
3,56,0,210
3,68,0,0
3,56,53,0
3,64,53,0
3,56,0,60
3,64,0,0
3,56,53,0
3,64,53,0
3,56,0,60
3,64,0,0
3,59,53,0
3,66,53,0
3,59,0,150
3,66,0,0
3,58,54,0
3,66,54,0
3,58,0,120
3,66,0,0
3,56,54,0
3,56,0,30
3,68,54,0
3,68,0,90
3,59,55,0
3,59,0,30
3,71,55,0
3,71,0,90
3,61,55,0
3,61,0,30
3,73,56,0
3,73,0,60
3,59,56,0
3,59,0,30
3,75,56,0
3,75,0,150
3,63,56,0
3,63,0,30
3,68,56,0
3,71,56,0
3,68,0,90
3,71,0,0
3,68,56,0
3,68,0,60
3,66,57,0
3,66,0,150
3,66,57,0
3,66,0,150
3,59,58,0
3,59,0,30
3,71,58,0
3,71,0,90
3,71,58,0
3,71,0,60
3,61,58,0
3,73,58,0
3,61,0,90
3,73,0,0
3,54,58,0
3,66,58,0
3,54,0,60
3,66,0,0
3,56,59,0
3,68,59,0
3,56,0,210
3,68,0,0
3,56,60,0
3,64,60,0
3,56,0,60
3,64,0,0
3,56,60,0
3,64,60,0
3,56,0,60
3,64,0,0
3,59,60,0
3,66,60,0
3,59,0,90
3,66,0,0
3,61,60,0
3,61,0,120
3,56,61,90
3,56,0,30
3,68,61,0
3,68,0,60
3,59,61,0
3,59,0,30
3,71,61,0
3,71,0,90
3,61,62,0
3,61,0,30
3,73,62,0
3,73,0,90
3,63,62,0
3,75,62,30
3,63,0,150
3,75,0,0
3,52,70,0
3,57,70,0
3,63,70,0
3,52,0,90
3,57,0,0
3,63,0,0
3,63,70,0
3,57,70,0
3,52,70,0
3,63,0,60
3,57,0,0
3,52,0,0
3,63,70,0
3,57,70,0
3,52,70,0
3,63,0,120
3,57,0,0
3,52,0,0
3,64,70,0
3,59,70,0
3,54,70,0
3,64,0,60
3,59,0,0
3,54,0,0
3,57,70,0
3,52,70,0
3,63,70,0
3,57,0,120
3,52,0,0
3,63,0,0
3,63,70,0
3,75,70,0
3,63,0,30
3,75,0,0
