track,note,velocity,time
1,72,127,0
1,76,127,0
1,82,127,0
1,72,0,48
1,76,0,0
1,82,0,0
1,74,127,0
1,77,127,0
1,83,127,0
1,74,0,48
1,77,0,0
1,83,0,0
1,74,127,0
1,77,127,0
1,83,127,0
1,74,0,48
1,77,0,0
1,83,0,0
1,74,127,0
1,77,127,0
1,83,127,0
1,74,0,48
1,77,0,0
1,83,0,0
1,74,127,0
1,77,127,0
1,83,127,0
1,74,0,48
1,77,0,0
1,83,0,0
1,74,127,0
1,77,127,0
1,83,127,0
1,74,0,48
1,77,0,0
1,83,0,0
1,74,127,0
1,77,127,0
1,83,127,0
1,74,0,48
1,77,0,0
1,83,0,0
1,74,127,0
1,77,127,0
1,83,127,0
1,74,0,48
1,77,0,0
1,83,0,0
1,72,127,0
1,76,127,0
1,82,127,0
1,72,0,48
1,76,0,0
1,82,0,0
1,74,127,0
1,77,127,0
1,83,127,0
1,74,0,48
1,77,0,0
1,83,0,0
1,74,127,0
1,77,127,0
1,83,127,0
1,74,0,48
1,77,0,0
1,83,0,0
1,74,127,0
1,77,127,0
1,83,127,0
1,74,0,48
1,77,0,0
1,83,0,0
1,74,127,0
1,77,127,0
1,83,127,0
1,74,0,48
1,77,0,0
1,83,0,0
1,74,127,0
1,77,127,0
1,83,127,0
1,74,0,48
1,77,0,0
1,83,0,0
1,74,127,0
1,77,127,0
1,83,127,0
1,74,0,48
1,77,0,0
1,83,0,0
1,74,127,0
1,77,127,0
1,83,127,0
1,74,0,48
1,77,0,0
1,83,0,0
1,72,127,0
1,76,127,0
1,82,127,0
1,72,0,48
1,76,0,0
1,82,0,0
1,74,127,0
1,77,127,0
1,83,127,0
1,74,0,48
1,77,0,0
1,83,0,0
1,74,127,0
1,77,127,0
1,83,127,0
1,74,0,48
1,77,0,0
1,83,0,0
1,74,127,0
1,77,127,0
1,83,127,0
1,74,0,48
1,77,0,0
1,83,0,0
1,72,127,0
1,76,127,0
1,82,127,0
1,72,0,48
1,76,0,0
1,82,0,0
1,74,127,0
1,77,127,0
1,83,127,0
1,74,0,48
1,77,0,0
1,83,0,0
1,74,127,0
1,77,127,0
1,83,127,0
1,74,0,48
1,77,0,0
1,83,0,0
1,74,127,0
1,77,127,0
1,83,127,0
1,74,0,48
1,77,0,0
1,83,0,0
1,72,127,0
1,76,127,0
1,82,127,0
1,72,0,48
1,76,0,0
1,82,0,0
1,74,127,0
1,77,127,0
1,83,127,0
1,74,0,48
1,77,0,0
1,83,0,0
1,74,127,0
1,77,127,0
1,83,127,0
1,74,0,48
1,77,0,0
1,83,0,0
1,74,127,0
1,77,127,0
1,83,127,0
1,74,0,48
1,77,0,0
1,83,0,0
1,74,127,0
1,77,127,0
1,83,127,0
1,74,0,48
1,77,0,0
1,83,0,0
1,74,127,0
1,78,127,0
1,84,127,0
1,74,0,48
1,78,0,0
1,84,0,0
1,74,127,0
1,78,127,0
1,84,127,0
1,74,0,48
1,78,0,0
1,84,0,0
1,74,127,0
1,78,127,0
1,84,127,0
1,74,0,48
1,78,0,0
1,84,0,0
1,75,127,0
1,78,127,0
1,84,127,0
1,75,0,48
1,78,0,0
1,84,0,0
1,76,127,0
1,79,127,0
1,85,127,0
1,76,0,48
1,79,0,0
1,85,0,0
1,76,127,0
1,79,127,0
1,85,127,0
1,76,0,48
1,79,0,0
1,85,0,0
1,76,127,0
1,79,127,0
1,85,127,0
1,76,0,48
1,79,0,0
1,85,0,0
1,76,127,0
1,79,127,0
1,85,127,0
1,76,0,48
1,79,0,0
1,85,0,0
1,76,127,0
1,79,127,0
1,85,127,0
1,76,0,48
1,79,0,0
1,85,0,0
1,76,127,0
1,79,127,0
1,85,127,0
1,76,0,48
1,79,0,0
1,85,0,0
1,76,127,0
1,79,127,0
1,85,127,0
1,76,0,48
1,79,0,0
1,85,0,0
1,76,127,0
1,79,127,0
1,85,127,0
1,76,0,48
1,79,0,0
1,85,0,0
1,76,127,0
1,79,127,0
1,85,127,0
1,76,0,48
1,79,0,0
1,85,0,0
1,76,127,0
1,79,127,0
1,85,127,0
1,76,0,48
1,79,0,0
1,85,0,0
1,76,127,0
1,79,127,0
1,85,127,0
1,76,0,48
1,79,0,0
1,85,0,0
1,76,127,0
1,79,127,0
1,85,127,0
1,76,0,48
1,79,0,0
1,85,0,0
1,76,127,0
1,79,127,0
1,85,127,0
1,76,0,48
1,79,0,0
1,85,0,0
1,76,127,0
1,79,127,0
1,85,127,0
1,76,0,48
1,79,0,0
1,85,0,0
1,76,127,0
1,79,127,0
1,85,127,0
1,76,0,46
1,79,0,0
1,85,0,0
1,57,127,2
1,64,127,0
1,57,0,94
1,64,0,0
1,66,127,2
1,76,127,0
1,66,0,94
1,76,0,0
1,57,127,2
1,64,127,0
1,57,0,46
1,64,0,0
1,66,127,2
1,73,127,0
1,66,0,94
1,73,0,0
1,57,127,2
1,64,127,0
1,57,0,46
1,64,0,0
1,66,127,2
1,73,127,0
1,66,0,48
1,73,0,0
1,64,127,0
1,71,127,0
1,64,0,46
1,71,0,0
1,57,127,2
1,64,127,0
1,57,0,46
1,64,0,0
1,64,127,2
1,71,127,0
1,64,0,46
1,71,0,0
1,64,127,50
1,71,127,0
1,64,0,46
1,71,0,0
1,66,127,2
1,73,127,0
1,66,0,48
1,73,0,0
1,64,127,0
1,71,127,0
1,64,0,46
1,71,0,0
1,57,127,2
1,64,127,0
1,57,0,94
1,64,0,0
1,66,127,2
1,76,127,0
1,66,0,94
1,76,0,0
1,57,127,2
1,64,127,0
1,57,0,46
1,64,0,0
1,66,127,2
1,73,127,0
1,66,0,94
1,73,0,0
1,57,127,2
1,64,127,0
1,57,0,46
1,64,0,0
1,66,127,2
1,73,127,0
1,66,0,48
1,73,0,0
1,64,127,0
1,71,127,0
1,64,0,46
1,71,0,0
1,57,127,2
1,64,127,0
1,57,0,46
1,64,0,0
1,62,127,2
1,69,127,0
1,62,0,48
1,69,0,0
1,60,127,0
1,67,127,0
1,60,0,46
1,67,0,0
1,57,127,2
1,64,127,0
1,57,0,46
1,64,0,0
1,62,127,2
1,69,127,0
1,62,0,48
1,69,0,0
1,60,127,0
1,67,127,0
1,60,0,46
1,67,0,0
1,57,127,2
1,64,127,0
1,57,0,94
1,64,0,0
1,59,127,2
1,66,127,0
1,59,0,94
1,66,0,0
1,57,127,2
1,64,127,0
1,57,0,94
1,64,0,0
1,69,127,2
1,76,127,0
1,69,0,432
1,76,0,0
1,69,127,144
1,76,127,0
1,69,0,96
1,76,0,0
1,66,127,0
1,73,127,0
1,66,0,94
1,73,0,0
1,57,127,2
1,64,127,0
1,57,0,46
1,64,0,0
1,57,127,2
1,64,127,0
1,57,0,46
1,64,0,0
1,67,127,2
1,74,127,0
1,67,0,48
1,74,0,0
1,66,127,0
1,73,127,0
1,66,0,46
1,73,0,0
1,57,127,2
1,64,127,0
1,57,0,46
1,64,0,0
1,66,127,2
1,73,127,0
1,66,0,48
1,73,0,0
1,64,127,0
1,71,127,0
1,64,0,46
1,71,0,0
1,57,127,2
1,64,127,0
1,57,0,46
1,64,0,0
1,64,127,2
1,71,127,0
1,64,0,94
1,71,0,0
1,57,127,2
1,64,127,0
1,57,0,94
1,64,0,0
1,59,127,2
1,66,127,0
1,59,0,94
1,66,0,0
1,57,127,2
1,64,127,0
1,57,0,94
1,64,0,0
1,69,127,2
1,76,127,0
1,69,0,432
1,76,0,0
1,69,127,144
1,76,127,0
1,69,0,96
1,76,0,0
1,66,127,0
1,73,127,0
1,66,0,94
1,73,0,0
1,57,127,2
1,64,127,0
1,57,0,46
1,64,0,0
1,57,127,2
1,64,127,0
1,57,0,46
1,64,0,0
1,67,127,2
1,74,127,0
1,67,0,48
1,74,0,0
1,66,127,0
1,73,127,0
1,66,0,46
1,73,0,0
1,57,127,2
1,64,127,0
1,57,0,46
1,64,0,0
1,66,127,2
1,73,127,0
1,66,0,48
1,73,0,0
1,64,127,0
1,71,127,0
1,64,0,46
1,71,0,0
1,57,127,2
1,64,127,0
1,57,0,46
1,64,0,0
1,64,127,2
1,71,127,0
1,64,0,94
1,71,0,0
1,57,127,2
1,64,127,0
1,57,0,94
1,64,0,0
1,59,127,2
1,66,127,0
1,59,0,94
1,66,0,0
1,57,127,2
1,64,127,0
1,57,0,94
1,64,0,0
1,69,127,2
1,76,127,0
1,69,0,432
1,76,0,0
1,69,127,144
1,76,127,0
1,69,0,96
1,76,0,0
1,66,127,0
1,73,127,0
1,66,0,94
1,73,0,0
1,57,127,2
1,64,127,0
1,57,0,46
1,64,0,0
1,57,127,2
1,64,127,0
1,57,0,46
1,64,0,0
1,67,127,2
1,74,127,0
1,67,0,48
1,74,0,0
1,66,127,0
1,73,127,0
1,66,0,46
1,73,0,0
1,57,127,2
1,64,127,0
1,57,0,46
1,64,0,0
1,66,127,2
1,73,127,0
1,66,0,48
1,73,0,0
1,64,127,0
1,71,127,0
1,64,0,46
1,71,0,0
1,57,127,2
1,64,127,0
1,57,0,46
1,64,0,0
1,64,127,2
1,71,127,0
1,64,0,94
1,71,0,0
1,57,127,2
1,64,127,0
1,57,0,94
1,64,0,0
1,59,127,2
1,66,127,0
1,59,0,94
1,66,0,0
1,57,127,2
1,64,127,0
1,57,0,94
1,64,0,0
1,69,127,2
1,76,127,0
1,69,0,432
1,76,0,0
1,69,127,144
1,76,127,0
1,69,0,94
1,76,0,0
1,66,127,2
1,73,127,0
1,66,0,94
1,73,0,0
1,57,127,2
1,64,127,0
1,57,0,46
1,64,0,0
1,57,127,2
1,64,127,0
1,57,0,46
1,64,0,0
1,67,127,2
1,74,127,0
1,67,0,46
1,74,0,0
1,66,127,2
1,73,127,0
1,66,0,46
1,73,0,0
1,57,127,2
1,64,127,0
1,57,0,46
1,64,0,0
1,66,127,2
1,73,127,0
1,66,0,46
1,73,0,0
1,64,127,2
1,71,127,0
1,64,0,46
1,71,0,0
1,57,127,2
1,64,127,0
1,57,0,46
1,64,0,0
1,64,127,2
1,71,127,0
1,64,0,94
1,71,0,0
1,57,92,2
1,64,92,0
1,57,0,94
1,64,0,0
1,59,92,2
1,66,92,0
1,59,0,94
1,66,0,0
1,57,92,2
1,64,92,0
1,57,0,94
1,64,0,0
1,69,92,2
1,76,92,0
1,69,0,432
1,76,0,0
1,69,92,144
1,76,92,0
1,69,0,96
1,76,0,0
1,66,92,0
1,73,92,0
1,66,0,94
1,73,0,0
1,57,92,2
1,64,92,0
1,57,0,46
1,64,0,0
1,57,92,2
1,64,92,0
1,57,0,46
1,64,0,0
1,67,92,2
1,74,92,0
1,67,0,48
1,74,0,0
1,66,92,0
1,73,92,0
1,66,0,46
1,73,0,0
1,57,92,2
1,64,92,0
1,57,0,46
1,64,0,0
1,66,92,2
1,73,92,0
1,66,0,48
1,73,0,0
1,64,92,0
1,71,92,0
1,64,0,46
1,71,0,0
1,57,92,2
1,64,92,0
1,57,0,46
1,64,0,0
1,64,92,2
1,71,92,0
1,64,0,94
1,71,0,0
1,57,92,2
1,64,92,0
1,57,0,94
1,64,0,0
1,59,92,2
1,66,92,0
1,59,0,94
1,66,0,0
1,57,92,2
1,64,92,0
1,57,0,94
1,64,0,0
1,69,92,2
1,76,92,0
1,69,0,432
1,76,0,0
1,69,92,144
1,76,92,0
1,69,0,96
1,76,0,0
1,66,92,0
1,73,92,0
1,66,0,94
1,73,0,0
1,57,92,2
1,64,92,0
1,57,0,46
1,64,0,0
1,57,92,2
1,64,92,0
1,57,0,46
1,64,0,0
1,67,92,2
1,74,92,0
1,67,0,48
1,74,0,0
1,66,92,0
1,73,92,0
1,66,0,46
1,73,0,0
1,57,92,2
1,64,92,0
1,57,0,46
1,64,0,0
1,66,92,2
1,73,92,0
1,66,0,48
1,73,0,0
1,64,92,0
1,71,92,0
1,64,0,46
1,71,0,0
1,57,92,2
1,64,92,0
1,57,0,46
1,64,0,0
1,64,92,2
1,71,92,0
1,64,0,94
1,71,0,0
1,57,92,2
1,64,92,0
1,57,0,94
1,64,0,0
1,59,92,2
1,66,92,0
1,59,0,94
1,66,0,0
1,57,92,2
1,64,92,0
1,57,0,94
1,64,0,0
1,69,92,2
1,76,92,0
1,69,0,432
1,76,0,0
1,69,92,144
1,76,92,0
1,69,0,96
1,76,0,0
1,66,92,0
1,73,92,0
1,66,0,94
1,73,0,0
1,57,92,2
1,64,92,0
1,57,0,46
1,64,0,0
1,57,92,2
1,64,92,0
1,57,0,46
1,64,0,0
1,67,92,2
1,74,92,0
1,67,0,48
1,74,0,0
1,66,92,0
1,73,92,0
1,66,0,46
1,73,0,0
1,57,92,2
1,64,92,0
1,57,0,46
1,64,0,0
1,66,92,2
1,73,92,0
1,66,0,48
1,73,0,0
1,64,92,0
1,71,92,0
1,64,0,46
1,71,0,0
1,57,92,2
1,64,92,0
1,57,0,46
1,64,0,0
1,64,92,2
1,71,92,0
1,64,0,94
1,71,0,0
1,57,92,2
1,64,92,0
1,57,0,94
1,64,0,0
1,59,92,2
1,66,92,0
1,59,0,94
1,66,0,0
1,57,92,2
1,64,92,0
1,57,0,94
1,64,0,0
1,69,92,2
1,76,92,0
1,69,0,432
1,76,0,0
1,69,92,144
1,76,92,0
1,69,0,96
1,76,0,0
1,66,92,0
1,73,92,0
1,66,0,94
1,73,0,0
1,57,92,2
1,64,92,0
1,57,0,46
1,64,0,0
1,57,92,2
1,64,92,0
1,57,0,46
1,64,0,0
1,67,92,2
1,74,92,0
1,67,0,48
1,74,0,0
1,66,92,0
1,73,92,0
1,66,0,46
1,73,0,0
1,57,92,2
1,64,92,0
1,57,0,46
1,64,0,0
1,66,92,2
1,73,92,0
1,66,0,48
1,73,0,0
1,64,92,0
1,71,92,0
1,64,0,46
1,71,0,0
1,57,92,2
1,64,92,0
1,57,0,46
1,64,0,0
1,64,92,2
1,71,92,0
1,64,0,94
1,71,0,0
1,57,92,2
1,64,92,0
1,57,0,94
1,64,0,0
1,59,92,2
1,66,92,0
1,59,0,94
1,66,0,0
1,57,92,2
1,64,92,0
1,57,0,94
1,64,0,0
1,69,92,2
1,76,92,0
1,69,0,432
1,76,0,0
1,69,92,144
1,76,92,0
1,69,0,96
1,76,0,0
1,66,92,0
1,73,92,0
1,66,0,94
1,73,0,0
1,57,92,2
1,64,92,0
1,57,0,46
1,64,0,0
1,57,92,2
1,64,92,0
1,57,0,46
1,64,0,0
1,67,92,2
1,74,92,0
1,67,0,48
1,74,0,0
1,66,92,0
1,73,92,0
1,66,0,46
1,73,0,0
1,57,92,2
1,64,92,0
1,57,0,46
1,64,0,0
1,66,92,2
1,73,92,0
1,66,0,48
1,73,0,0
1,64,92,0
1,71,92,0
1,64,0,46
1,71,0,0
1,57,92,2
1,64,92,0
1,57,0,46
1,64,0,0
1,64,92,2
1,71,92,0
1,64,0,94
1,71,0,0
1,57,92,2
1,64,92,0
1,57,0,94
1,64,0,0
1,59,92,2
1,66,92,0
1,59,0,94
1,66,0,0
1,57,92,2
1,64,92,0
1,57,0,94
1,64,0,0
1,69,92,2
1,76,92,0
1,69,0,432
1,76,0,0
1,69,92,144
1,76,92,0
1,69,0,96
1,76,0,0
1,66,92,0
1,73,92,0
1,66,0,94
1,73,0,0
1,57,92,2
1,64,92,0
1,57,0,46
1,64,0,0
1,57,92,2
1,64,92,0
1,57,0,46
1,64,0,0
1,67,92,2
1,74,92,0
1,67,0,48
1,74,0,0
1,66,92,0
1,73,92,0
1,66,0,46
1,73,0,0
1,57,92,2
1,64,92,0
1,57,0,46
1,64,0,0
1,66,92,2
1,73,92,0
1,66,0,48
1,73,0,0
1,64,92,0
1,71,92,0
1,64,0,46
1,71,0,0
1,57,92,2
1,64,92,0
1,57,0,46
1,64,0,0
1,64,92,2
1,71,92,0
1,64,0,94
1,71,0,0
1,60,60,2
1,67,60,0
1,70,60,0
1,60,0,160
1,67,0,0
1,70,0,0
1,60,60,32
1,67,60,0
1,70,60,0
1,60,0,142
1,67,0,0
1,70,0,0
