track,note,velocity,time
0,62,100,384
0,62,100,0
0,69,100,0
0,57,100,0
0,50,100,0
0,49,127,0
0,36,90,0
0,57,127,1
0,36,0,9
0,49,0,0
0,57,0,11
0,69,0,3
0,62,0,0
0,62,0,0
0,62,100,0
0,62,100,0
0,69,100,0
0,57,127,0
0,57,0,0
0,57,100,0
0,50,0,0
0,50,100,0
0,36,90,0
0,36,0,10
0,57,0,6
0,69,0,8
0,62,0,0
0,62,0,0
0,62,100,0
0,62,100,0
0,69,100,0
0,57,127,0
0,57,0,0
0,57,100,0
0,50,0,0
0,50,100,0
0,42,100,0
0,42,0,10
0,57,0,26
0,69,0,12
0,62,0,0
0,62,0,0
0,57,0,0
0,50,0,0
0,42,100,0
0,40,127,0
0,40,0,10
0,42,0,0
0,62,100,38
0,62,100,0
0,69,100,0
0,57,127,0
0,57,100,0
0,62,100,0
0,42,100,0
0,42,0,10
0,57,0,6
0,69,0,8
0,62,0,0
0,62,0,0
0,62,100,0
0,62,100,0
0,69,100,0
0,57,127,0
0,57,0,0
0,57,100,0
0,62,0,0
0,62,100,0
0,57,0,16
0,69,0,8
0,62,0,0
0,62,0,0
0,62,100,0
0,62,100,0
0,69,100,0
0,57,127,0
0,57,0,0
0,57,100,0
0,62,0,0
0,62,100,0
0,42,100,0
0,36,90,0
0,36,0,10
0,42,0,0
0,36,90,14
0,36,0,10
0,57,0,2
0,69,0,12
0,62,0,0
0,62,0,0
0,50,100,0
0,57,0,0
0,50,100,0
0,62,0,0
0,50,100,0
0,42,100,0
0,42,0,10
0,62,100,38
0,62,100,0
0,70,100,0
0,58,127,0
0,50,0,0
0,58,100,0
0,50,0,0
0,50,100,0
0,42,100,0
0,40,127,0
0,40,0,10
0,42,0,0
0,58,0,6
0,70,0,8
0,62,0,0
0,62,0,0
0,62,100,0
0,62,100,0
0,70,100,0
0,58,127,0
0,58,0,0
0,58,100,0
0,50,0,0
0,50,100,0
0,58,0,16
0,70,0,8
0,62,0,0
0,62,0,0
0,62,100,0
0,62,100,0
0,70,100,0
0,58,127,0
0,58,0,0
0,58,100,0
0,50,0,0
0,50,100,0
0,42,100,0
0,42,0,10
0,58,0,26
0,70,0,12
0,50,0,0
0,62,0,0
0,62,0,0
0,58,0,0
0,50,0,0
0,42,100,0
0,36,90,0
0,36,0,10
0,42,0,0
0,36,90,14
0,36,0,10
0,62,100,14
0,62,100,0
0,70,100,0
0,58,127,0
0,58,100,0
0,62,100,0
0,42,100,0
0,42,0,10
0,58,0,6
0,70,0,8
0,62,0,0
0,62,0,0
0,62,100,0
0,62,100,0
0,70,100,0
0,58,127,0
0,58,0,0
0,58,100,0
0,62,0,0
0,62,100,0
0,58,0,16
0,70,0,8
0,62,0,0
0,62,0,0
0,62,100,0
0,62,100,0
0,70,100,0
0,58,127,0
0,58,0,0
0,58,100,0
0,62,0,0
0,62,100,0
0,42,100,0
0,40,127,0
0,40,0,10
0,42,0,0
0,58,0,26
0,70,0,12
0,62,0,0
0,62,0,0
0,50,100,0
0,58,0,0
0,50,100,0
0,62,0,0
0,50,100,0
0,42,100,0
0,42,0,10
0,62,100,38
0,62,100,0
0,71,100,0
0,59,127,0
0,50,0,0
0,59,100,0
0,50,0,0
0,50,100,0
0,42,100,0
0,36,90,0
0,36,0,10
0,42,0,0
0,59,0,6
0,71,0,8
0,62,0,0
0,62,0,0
0,62,100,0
0,62,100,0
0,71,100,0
0,59,127,0
0,59,0,0
0,59,100,0
0,50,0,0
0,50,100,0
0,36,90,0
0,36,0,10
0,59,0,6
0,71,0,8
0,62,0,0
0,62,0,0
0,62,100,0
0,62,100,0
0,71,100,0
0,59,127,0
0,59,0,0
0,59,100,0
0,50,0,0
0,50,100,0
0,42,100,0
0,42,0,10
0,59,0,26
0,71,0,12
0,50,0,0
0,62,0,0
0,62,0,0
0,59,0,0
0,50,0,0
0,42,100,0
0,40,127,0
0,40,0,10
0,42,0,0
0,62,100,38
0,62,100,0
0,71,100,0
0,59,127,0
0,59,100,0
0,62,100,0
0,42,100,0
0,42,0,10
0,59,0,6
0,71,0,8
0,62,0,0
0,62,0,0
0,62,100,0
0,62,100,0
0,71,100,0
0,59,127,0
0,59,0,0
0,59,100,0
0,62,0,0
0,62,100,0
0,59,0,16
0,71,0,8
0,62,0,0
0,62,0,0
0,62,100,0
0,62,100,0
0,71,100,0
0,59,127,0
0,59,0,0
0,59,100,0
0,62,0,0
0,62,100,0
0,42,100,0
0,36,90,0
0,36,0,10
0,42,0,0
0,36,90,14
0,36,0,10
0,59,0,2
0,71,0,12
0,62,0,0
0,62,0,0
0,50,100,0
0,59,0,0
0,50,100,0
0,62,0,0
0,50,100,0
0,42,100,0
0,42,0,10
0,62,100,38
0,62,100,0
0,72,100,0
0,60,127,0
0,50,0,0
0,60,100,0
0,50,0,0
0,50,100,0
0,42,100,0
0,40,127,0
0,40,0,10
0,42,0,0
0,60,0,6
0,72,0,8
0,62,0,0
0,62,0,0
0,62,100,0
0,62,100,0
0,72,100,0
0,60,127,0
0,60,0,0
0,60,100,0
0,50,0,0
0,50,100,0
0,60,0,16
0,72,0,8
0,62,0,0
0,62,0,0
0,62,100,0
0,62,100,0
0,72,100,0
0,60,127,0
0,60,0,0
0,60,100,0
0,50,0,0
0,50,100,0
0,42,100,0
0,42,0,10
0,60,0,26
0,72,0,12
0,50,0,0
0,62,0,0
0,62,0,0
0,60,0,0
0,50,0,0
0,42,100,0
0,36,90,0
0,36,0,10
0,42,0,0
0,36,90,14
0,36,0,10
0,62,100,14
0,62,100,0
0,72,100,0
0,60,127,0
0,60,100,0
0,62,100,0
0,42,100,0
0,42,0,10
0,60,0,6
0,72,0,8
0,62,0,0
0,62,0,0
0,62,100,0
0,62,100,0
0,72,100,0
0,60,127,0
0,60,0,0
0,60,100,0
0,62,0,0
0,62,100,0
0,60,0,16
0,72,0,8
0,62,0,0
0,62,0,0
0,62,100,0
0,62,100,0
0,72,100,0
0,60,127,0
0,60,0,0
0,60,100,0
0,62,0,0
0,62,100,0
0,42,100,0
0,40,127,0
0,40,0,10
0,42,0,0
0,60,0,26
0,72,0,12
0,62,0,0
0,62,0,0
0,50,100,0
0,60,0,0
0,50,100,0
0,62,0,0
0,50,100,0
0,42,100,0
0,42,0,10
0,62,100,38
0,62,100,0
0,74,100,0
0,62,127,0
0,50,0,0
0,62,100,0
0,50,0,0
0,50,100,0
0,42,100,0
0,36,90,0
0,36,0,10
0,42,0,0
0,62,0,6
0,74,0,8
0,62,0,0
0,62,0,0
0,62,100,0
0,62,100,0
0,74,100,0
0,62,127,0
0,62,0,0
0,62,100,0
0,50,0,0
0,50,100,0
0,36,90,0
0,36,0,10
0,62,0,6
0,74,0,8
0,62,0,0
0,62,0,0
0,62,100,0
0,62,100,0
0,74,100,0
0,62,127,0
0,62,0,0
0,62,100,0
0,50,0,0
0,50,100,0
0,42,100,0
0,42,0,10
0,62,0,26
0,74,0,12
0,50,0,0
0,62,0,0
0,62,0,0
0,62,0,0
0,50,0,0
0,42,100,0
0,40,127,0
0,40,0,10
0,42,0,0
0,62,100,38
0,62,100,0
0,69,100,0
0,57,127,0
0,57,100,0
0,62,100,0
0,42,100,0
0,42,0,10
0,57,0,6
0,69,0,8
0,62,0,0
0,62,0,0
0,62,100,0
0,62,100,0
0,69,100,0
0,57,127,0
0,57,0,0
0,57,100,0
0,62,0,0
0,62,100,0
0,57,0,16
0,69,0,8
0,62,0,0
0,62,0,0
0,62,100,0
0,62,100,0
0,69,100,0
0,57,127,0
0,57,0,0
0,57,100,0
0,62,0,0
0,62,100,0
0,42,100,0
0,36,90,0
0,36,0,10
0,42,0,0
0,36,90,14
0,36,0,10
0,57,0,2
0,69,0,12
0,62,0,0
0,62,0,0
0,50,100,0
0,57,0,0
0,50,100,0
0,62,0,0
0,50,100,0
0,42,100,0
0,42,0,10
0,62,100,38
0,62,100,0
0,70,100,0
0,58,127,0
0,50,0,0
0,58,100,0
0,50,0,0
0,50,100,0
0,42,100,0
0,40,127,0
0,40,0,10
0,42,0,0
0,58,0,6
0,70,0,8
0,62,0,0
0,62,0,0
0,62,100,0
0,62,100,0
0,70,100,0
0,58,127,0
0,58,0,0
0,58,100,0
0,50,0,0
0,50,100,0
0,58,0,16
0,70,0,8
0,62,0,0
0,62,0,0
0,62,100,0
0,62,100,0
0,70,100,0
0,58,127,0
0,58,0,0
0,58,100,0
0,50,0,0
0,50,100,0
0,42,100,0
0,42,0,10
0,58,0,26
0,70,0,12
0,50,0,0
0,62,0,0
0,62,0,0
0,58,0,0
0,50,0,0
0,42,100,0
0,36,90,0
0,36,0,10
0,42,0,0
0,36,90,14
0,36,0,10
0,62,100,14
0,62,100,0
0,70,100,0
0,58,127,0
0,58,100,0
0,62,100,0
0,42,100,0
0,42,0,10
0,58,0,6
0,70,0,8
0,62,0,0
0,62,0,0
0,62,100,0
0,62,100,0
0,70,100,0
0,58,127,0
0,58,0,0
0,58,100,0
0,62,0,0
0,62,100,0
0,58,0,16
0,70,0,8
0,62,0,0
0,62,0,0
0,62,100,0
0,62,100,0
0,70,100,0
0,58,127,0
0,58,0,0
0,58,100,0
0,62,0,0
0,62,100,0
0,42,100,0
0,40,127,0
0,40,0,10
0,42,0,0
0,58,0,26
0,70,0,12
0,62,0,0
0,62,0,0
0,50,100,0
0,58,0,0
0,50,100,0
0,62,0,0
0,50,100,0
0,42,100,0
0,42,0,10
0,62,100,38
0,62,100,0
0,71,100,0
0,59,127,0
0,50,0,0
0,59,100,0
0,50,0,0
0,50,100,0
0,42,100,0
0,36,90,0
0,36,0,10
0,42,0,0
0,59,0,6
0,71,0,8
0,62,0,0
0,62,0,0
0,62,100,0
0,62,100,0
0,71,100,0
0,59,127,0
0,59,0,0
0,59,100,0
0,50,0,0
0,50,100,0
0,36,90,0
0,36,0,10
0,59,0,6
0,71,0,8
0,62,0,0
0,62,0,0
0,62,100,0
0,62,100,0
0,71,100,0
0,59,127,0
0,59,0,0
0,59,100,0
0,50,0,0
0,50,100,0
0,42,100,0
0,42,0,10
0,59,0,26
0,71,0,12
0,50,0,0
0,62,0,0
0,62,0,0
0,59,0,0
0,50,0,0
0,42,100,0
0,40,127,0
0,40,0,10
0,42,0,0
0,62,100,38
0,62,100,0
0,71,100,0
0,59,127,0
0,59,100,0
0,62,100,0
0,42,100,0
0,42,0,10
0,59,0,6
0,71,0,8
0,62,0,0
0,62,0,0
0,62,100,0
0,62,100,0
0,71,100,0
0,59,127,0
0,59,0,0
0,59,100,0
0,62,0,0
0,62,100,0
0,59,0,16
0,71,0,8
0,62,0,0
0,62,0,0
0,62,100,0
0,62,100,0
0,71,100,0
0,59,127,0
0,59,0,0
0,59,100,0
0,62,0,0
0,62,100,0
0,42,100,0
0,36,90,0
0,36,0,10
0,42,0,0
0,36,90,14
0,36,0,10
0,59,0,2
0,71,0,12
0,62,0,0
0,62,0,0
0,50,100,0
0,59,0,0
0,50,100,0
0,62,0,0
0,50,100,0
0,42,100,0
0,42,0,10
0,62,100,38
0,62,100,0
0,72,100,0
0,60,127,0
0,50,0,0
0,60,100,0
0,50,0,0
0,50,100,0
0,42,100,0
0,40,127,0
0,40,0,10
0,42,0,0
0,60,0,6
0,72,0,8
0,62,0,0
0,62,0,0
0,62,100,0
0,62,100,0
0,72,100,0
0,60,127,0
0,60,0,0
0,60,100,0
0,50,0,0
0,50,100,0
0,60,0,16
0,72,0,8
0,62,0,0
0,62,0,0
0,62,100,0
0,62,100,0
0,72,100,0
0,60,127,0
0,60,0,0
0,60,100,0
0,50,0,0
0,50,100,0
0,42,100,0
0,42,0,10
0,60,0,26
0,72,0,12
0,50,0,0
0,62,0,0
0,62,0,0
0,60,0,0
0,50,0,0
0,42,100,0
0,36,90,0
0,36,0,10
0,42,0,0
0,36,90,14
0,36,0,10
0,62,100,14
0,62,100,0
0,72,100,0
0,60,127,0
0,60,100,0
0,62,100,0
0,42,100,0
0,42,0,10
0,60,0,6
0,72,0,8
0,62,0,0
0,62,0,0
0,62,100,0
0,62,100,0
0,72,100,0
0,60,127,0
0,60,0,0
0,60,100,0
0,62,0,0
0,62,100,0
0,60,0,16
0,72,0,8
0,62,0,0
0,62,0,0
0,62,100,0
0,62,100,0
0,72,100,0
0,60,127,0
0,60,0,0
0,60,100,0
0,62,0,0
0,62,100,0
0,42,100,0
0,40,127,0
0,40,0,10
0,42,0,0
0,60,0,26
0,72,0,12
0,62,0,0
0,62,0,0
0,50,100,0
0,60,0,0
0,50,100,0
0,62,0,0
0,50,100,0
0,42,100,0
0,42,0,10
0,62,100,38
0,62,100,0
0,74,100,0
0,62,127,0
0,50,0,0
0,62,100,0
0,50,0,0
0,50,100,0
0,42,100,0
0,36,90,0
0,36,0,10
0,42,0,0
0,62,0,6
0,74,0,8
0,62,0,0
0,62,0,0
0,62,100,0
0,62,100,0
0,74,100,0
0,62,127,0
0,62,0,0
0,62,100,0
0,50,0,0
0,50,100,0
0,36,90,0
0,36,0,10
0,62,0,6
0,78,100,0
0,74,0,0
0,62,0,0
0,62,0,0
0,62,100,0
0,62,100,0
0,74,100,0
0,62,127,0
0,62,0,0
0,62,100,0
0,50,0,0
0,50,100,0
0,42,100,0
0,42,0,10
0,62,0,26
0,78,0,12
0,78,100,0
0,74,0,0
0,50,0,0
0,62,0,0
0,62,0,0
0,62,0,0
0,50,0,0
0,42,100,0
0,40,127,0
0,40,0,10
0,42,0,0
0,78,0,38
0,78,100,0
0,62,100,0
0,62,100,0
0,69,100,0
0,57,127,0
0,57,100,0
0,62,100,0
0,42,100,0
0,42,0,10
0,57,0,6
0,78,0,8
0,81,100,0
0,69,0,0
0,62,0,0
0,62,0,0
0,62,100,0
0,62,100,0
0,69,100,0
0,57,127,0
0,57,0,0
0,57,100,0
0,62,0,0
0,62,100,0
0,57,0,16
0,69,0,8
0,62,0,0
0,62,0,0
0,62,100,0
0,62,100,0
0,69,100,0
0,57,127,0
0,57,0,0
0,57,100,0
0,62,0,0
0,62,100,0
0,42,100,0
0,36,90,0
0,36,0,10
0,42,0,0
0,36,90,14
0,36,0,10
0,57,0,2
0,81,0,12
0,78,100,0
0,69,0,0
0,62,0,0
0,62,0,0
0,50,100,0
0,57,0,0
0,50,100,0
0,62,0,0
0,50,100,0
0,42,100,0
0,42,0,10
0,78,0,38
0,76,100,0
0,62,100,0
0,62,100,0
0,70,100,0
0,58,127,0
0,50,0,0
0,58,100,0
0,50,0,0
0,50,100,0
0,42,100,0
0,40,127,0
0,40,0,10
0,42,0,0
0,58,0,6
0,70,0,8
0,62,0,0
0,62,0,0
0,62,100,0
0,62,100,0
0,70,100,0
0,58,127,0
0,58,0,0
0,58,100,0
0,50,0,0
0,50,100,0
0,58,0,16
0,76,0,8
0,78,100,0
0,70,0,0
0,62,0,0
0,62,0,0
0,62,100,0
0,62,100,0
0,70,100,0
0,58,127,0
0,58,0,0
0,58,100,0
0,50,0,0
0,50,100,0
0,42,100,0
0,42,0,10
0,78,0,14
0,76,100,0
0,58,0,12
0,70,0,12
0,50,0,0
0,62,0,0
0,62,0,0
0,58,0,0
0,50,0,0
0,42,100,0
0,36,90,0
0,36,0,10
0,42,0,0
0,76,0,14
0,74,100,0
0,36,90,0
0,36,0,10
0,74,0,14
0,76,100,0
0,62,100,0
0,62,100,0
0,70,100,0
0,58,127,0
0,58,100,0
0,62,100,0
0,42,100,0
0,42,0,10
0,58,0,6
0,70,0,8
0,62,0,0
0,62,0,0
0,62,100,0
0,62,100,0
0,70,100,0
0,58,127,0
0,58,0,0
0,58,100,0
0,62,0,0
0,62,100,0
0,58,0,16
0,70,0,8
0,62,0,0
0,62,0,0
0,62,100,0
0,62,100,0
0,70,100,0
0,58,127,0
0,58,0,0
0,58,100,0
0,62,0,0
0,62,100,0
0,42,100,0
0,40,127,0
0,40,0,10
0,42,0,0
0,76,0,18
0,58,0,8
0,70,0,12
0,62,0,0
0,62,0,0
