track,note,velocity,time
1,50,113,0
1,48,101,112
1,55,95,96
1,62,99,96
1,67,105,96
1,55,92,64
1,62,95,58
1,64,101,90
1,55,95,6
1,62,85,54
1,67,103,80
1,55,90,92
1,62,93,60
1,64,97,96
1,50,109,80
1,48,99,102
1,55,95,96
1,62,95,96
1,67,103,96
1,55,89,74
1,62,93,74
1,64,107,96
1,55,92,74
1,62,92,70
1,67,103,90
1,55,86,84
1,62,81,58
1,64,109,96
1,50,101,90
1,57,97,194
1,62,107,192
1,66,111,186
1,48,99,4
1,55,82,88
1,62,97,96
1,67,99,10
1,55,82,64
1,62,92,64
1,64,97,92
1,55,89,76
1,62,86,4
1,67,101,84
1,55,83,82
1,62,97,50
1,64,101,90
1,50,101,100
1,57,97,194
1,62,107,192
1,66,111,186
1,48,99,4
1,55,82,88
1,62,97,96
1,67,99,92
1,55,82,64
1,62,92,64
1,64,97,92
1,55,89,76
1,62,86,4
1,67,101,96
1,55,83,82
1,62,97,50
1,64,101,90
1,50,101,100
1,57,97,194
1,62,107,192
1,66,111,186
1,48,99,4
1,55,82,88
1,62,97,96
1,67,99,92
1,55,82,64
1,62,92,64
1,64,97,92
1,55,89,76
1,62,86,4
1,67,101,96
1,55,83,82
1,62,97,50
1,64,101,90
1,50,101,100
1,57,97,194
1,62,107,192
1,66,111,186
1,48,99,4
1,55,82,88
1,62,97,96
1,67,99,92
1,55,82,64
1,62,92,64
1,64,97,92
1,55,89,76
1,62,86,4
1,67,101,96
1,55,83,82
1,62,97,50
1,64,101,90
1,50,101,100
1,57,97,194
1,62,107,192
1,66,111,186
1,48,99,4
1,55,82,88
1,62,97,96
1,67,99,92
1,55,82,64
1,62,92,64
1,64,97,92
1,55,89,76
1,62,86,4
1,67,101,96
1,55,83,82
1,62,97,50
1,64,101,90
1,50,101,100
1,57,97,194
1,62,107,192
1,66,111,186
1,48,99,4
1,55,82,88
1,62,97,96
1,67,99,92
1,55,82,64
1,62,92,64
1,64,97,92
1,55,89,76
1,62,86,4
1,67,101,96
1,55,83,82
1,62,97,50
1,64,101,90
1,50,101,100
1,57,97,194
1,62,107,192
1,66,111,186
1,48,99,4
1,55,82,88
1,62,97,96
1,67,99,92
1,55,82,64
1,62,92,64
1,64,97,92
1,55,89,76
1,62,86,4
1,67,101,96
1,55,83,82
1,62,97,50
1,64,101,90
1,50,90,100
1,62,101,198
1,66,109,188
1,69,93,196
1,50,80,0
1,61,85,96
1,64,78,96
1,71,93,94
1,50,81,50
1,61,105,6
1,64,75,96
1,69,92,90
1,50,86,70
1,60,87,48
1,64,81,94
1,67,85,92
1,50,71,48
1,60,85,6
1,64,75,90
1,67,87,96
1,50,82,60
1,59,85,64
1,62,87,96
1,69,105,96
1,50,78,70
1,59,87,12
1,62,80,96
1,67,93,96
1,50,111,22
1,57,62,252
1,62,103,14
1,66,86,12
1,57,77,58
1,62,99,2
1,67,97,0
1,62,95,14
1,57,78,0
1,66,101,0
1,57,80,60
1,62,80,0
1,64,67,0
1,62,97,42
1,57,71,0
1,66,105,0
1,43,109,8
1,43,85,82
1,59,97,190
1,62,109,2
1,67,89,0
1,59,86,54
1,62,101,0
1,67,90,0
1,55,78,106
1,55,63,80
1,50,57,0
1,55,82,60
1,50,69,0
1,55,80,64
1,50,69,0
1,50,89,74
1,55,97,0
1,47,93,2
1,50,101,32
1,55,103,0
1,57,89,64
1,62,97,0
1,66,92,0
1,50,89,0
1,66,99,96
1,57,87,0
1,62,99,0
1,50,86,0
1,57,93,92
1,62,99,0
1,67,92,4
1,62,90,16
1,57,70,0
1,66,99,0
1,57,71,38
1,62,89,0
1,64,97,0
1,62,76,28
1,57,70,0
1,66,103,0
1,43,71,16
1,62,65,188
1,59,58,0
1,59,78,58
1,62,87,0
1,67,85,0
1,67,97,64
1,59,105,0
1,62,107,0
1,50,67,106
1,55,44,0
1,55,85,80
1,50,89,0
1,43,82,70
1,45,83,10
1,50,109,90
1,50,113,64
1,62,103,4
1,57,93,0
1,50,93,0
1,62,81,32
1,50,72,0
1,57,60,0
1,62,87,158
1,66,78,2
1,57,64,0
1,50,83,0
1,50,46,46
1,66,80,70
1,50,62,0
1,62,62,0
1,57,45,6
1,62,103,68
1,57,85,0
1,67,99,4
1,50,89,2
1,62,71,30
1,57,75,2
1,66,67,0
1,50,73,0
1,64,89,54
1,62,64,0
1,57,49,4
1,50,82,2
1,62,90,42
1,66,93,0
1,57,67,0
1,50,85,4
1,43,75,12
1,43,83,100
1,62,97,192
1,59,93,0
1,67,80,0
1,62,53,34
1,59,48,0
1,67,51,0
1,62,36,68
1,59,43,2
1,67,38,0
1,67,64,62
1,62,47,2
1,59,49,0
1,67,83,68
1,59,78,0
1,62,83,0
1,67,89,128
1,59,87,0
1,62,93,0
1,47,92,26
1,50,92,86
1,55,93,14
1,55,113,76
1,57,81,0
1,62,99,0
1,50,86,0
1,50,71,44
1,62,81,0
1,57,60,0
1,57,50,38
1,62,75,0
1,66,66,4
1,50,67,0
1,50,49,50
1,66,75,68
1,50,62,0
1,57,35,0
1,62,41,6
1,57,82,58
1,62,97,0
1,67,97,4
1,50,89,0
1,62,89,28
1,66,101,4
1,57,73,0
1,50,80,2
1,62,75,38
1,57,62,0
1,64,76,0
1,50,83,6
1,62,93,36
1,66,107,0
1,57,72,0
1,50,76,4
1,43,93,26
1,62,64,580
1,59,57,2
1,67,62,0
1,59,83,86
1,67,90,0
1,62,93,0
1,67,93,64
1,59,85,0
1,62,90,0
1,50,87,48
1,57,72,0
1,45,95,0
1,57,66,54
1,45,66,0
1,50,56,0
1,45,61,54
1,50,51,4
1,57,60,2
1,45,58,64
1,50,44,6
1,57,47,0
1,57,89,60
1,45,80,0
1,50,81,0
1,45,59,52
1,50,37,6
1,57,50,0
1,45,66,58
1,57,66,0
1,50,37,4
1,45,75,64
1,57,55,0
1,50,40,0
1,55,82,60
1,52,76,0
1,48,89,6
1,48,44,56
1,55,45,2
1,52,25,0
1,48,49,64
1,55,48,6
1,52,33,0
1,48,58,60
1,55,55,0
1,52,35,4
1,48,76,68
1,55,86,0
1,52,71,0
1,48,60,54
1,55,55,0
1,48,64,56
1,55,48,4
1,48,56,60
1,55,64,0
1,52,36,4
1,55,71,68
1,62,81,0
1,50,80,0
1,47,74,4
1,50,52,42
1,62,75,4
1,47,46,2
1,55,61,0
1,55,46,68
1,62,50,0
1,50,45,4
1,47,48,0
1,50,42,56
1,62,64,4
1,47,45,0
1,55,52,0
1,50,63,64
1,47,65,0
1,55,71,0
1,62,81,0
1,50,43,58
1,47,50,0
1,55,51,0
1,62,53,0
1,50,39,64
1,47,47,0
1,55,56,0
1,62,71,0
1,50,66,60
1,47,51,0
1,62,74,0
1,55,61,4
1,50,71,70
1,62,77,0
1,55,70,0
1,50,44,52
1,62,55,0
1,55,46,4
1,50,45,54
1,55,55,4
1,62,69,0
1,50,75,56
1,62,86,4
1,55,78,0
1,50,56,58
1,62,64,0
1,55,42,0
1,50,52,60
1,55,58,0
1,62,64,0
1,50,56,56
1,55,70,0
1,62,80,0
1,50,101,144
1,57,97,194
1,62,107,192
1,66,111,186
1,48,99,4
1,55,82,88
1,62,97,96
1,67,99,92
1,55,82,64
1,62,92,64
1,64,97,92
1,55,89,76
1,62,86,4
1,67,101,96
1,55,83,82
1,62,97,50
1,64,101,90
1,50,101,100
1,57,97,194
1,62,107,192
1,66,111,186
1,48,99,4
1,55,82,88
1,62,97,96
1,67,99,92
1,55,82,64
1,62,92,64
1,64,97,92
1,55,89,76
1,62,86,4
1,67,101,96
1,55,83,82
1,62,97,50
1,64,101,90
1,50,101,100
1,57,97,194
1,62,107,192
1,66,111,186
1,48,99,4
1,55,82,88
1,62,97,96
1,67,99,92
1,55,82,64
1,62,92,64
1,64,97,92
1,55,89,76
1,62,86,4
1,67,101,96
1,55,83,82
1,62,97,50
1,64,101,90
1,50,101,100
1,57,97,194
1,62,107,192
1,66,111,186
1,48,99,4
1,55,82,88
1,62,97,96
1,67,99,92
1,55,82,64
1,62,92,64
1,64,97,92
1,55,89,76
1,62,86,4
1,67,101,96
1,55,83,82
1,62,97,50
1,64,101,90
1,50,101,100
1,57,97,194
1,62,107,192
1,66,111,186
1,48,99,4
1,55,82,88
1,62,97,96
1,67,99,92
1,55,82,64
1,62,92,64
1,64,97,92
1,55,89,76
1,62,86,4
1,67,101,96
1,55,83,82
1,62,97,50
1,64,101,90
1,50,101,100
1,57,97,194
1,62,107,192
1,66,111,186
1,48,99,4
1,55,82,88
1,62,97,96
1,67,99,92
1,55,82,64
1,62,92,64
1,64,97,92
1,55,89,76
1,62,86,4
1,67,101,96
1,55,83,82
1,62,97,50
1,64,101,90
1,50,101,100
1,57,97,194
1,62,107,192
1,66,111,186
1,48,99,4
1,55,82,88
1,62,97,96
1,67,99,92
1,55,82,64
1,62,92,64
1,64,97,92
1,55,89,76
1,62,86,4
1,67,101,96
1,55,83,82
1,62,97,50
1,64,101,90
1,50,90,100
1,62,101,198
1,66,109,188
1,69,93,196
1,50,80,0
1,61,85,96
1,64,78,96
1,71,93,94
1,50,81,50
1,61,105,6
1,64,75,96
1,69,92,90
1,50,86,70
1,60,87,48
1,64,81,94
1,67,85,92
1,50,71,48
1,60,85,6
1,64,75,90
1,67,87,96
1,50,82,60
1,59,85,64
1,62,87,96
1,69,105,96
1,50,78,70
1,59,87,12
1,62,80,96
1,67,93,96
1,50,111,22
1,57,62,252
1,62,103,14
1,66,86,12
1,57,77,58
1,62,99,2
1,67,97,0
1,62,95,14
1,57,78,0
1,66,101,0
1,57,80,60
1,62,80,0
1,64,67,0
1,62,97,42
1,57,71,0
1,66,105,0
1,43,109,8
1,43,85,82
1,59,97,190
1,62,109,2
1,67,89,0
1,59,86,54
1,62,101,0
1,67,90,0
1,55,78,106
1,55,63,80
1,50,57,0
1,55,82,60
1,50,69,0
1,55,80,64
1,50,69,0
1,50,89,74
1,55,97,0
1,47,93,2
1,50,101,32
1,55,103,0
1,57,89,64
1,62,97,0
1,66,92,0
1,50,89,0
1,66,99,96
1,57,87,0
1,62,99,0
1,50,86,0
1,57,93,92
1,62,99,0
1,67,92,4
1,62,90,16
1,57,70,0
1,66,99,0
1,57,71,38
1,62,89,0
1,64,97,0
1,62,76,28
1,57,70,0
1,66,103,0
1,43,71,16
1,62,65,188
1,59,58,0
1,59,78,58
1,62,87,0
1,67,85,0
1,67,97,64
1,59,105,0
1,62,107,0
1,50,67,106
1,55,44,0
1,55,85,80
1,50,89,0
1,43,82,70
1,45,83,10
1,50,109,90
1,50,113,64
1,62,103,4
1,57,93,0
1,50,93,0
1,62,81,32
1,50,72,0
1,57,60,0
1,62,87,158
1,66,78,2
1,57,64,0
1,50,83,0
1,50,46,46
1,66,80,70
1,50,62,0
1,62,62,0
1,57,45,6
1,62,103,68
1,57,85,0
1,67,99,4
1,50,89,2
1,62,71,30
1,57,75,2
1,66,67,0
1,50,73,0
1,64,89,54
1,62,64,0
1,57,49,4
1,50,82,2
1,62,90,42
1,66,93,0
1,57,67,0
1,50,85,4
1,43,75,12
1,43,83,100
1,62,97,192
1,59,93,0
1,67,80,0
1,62,53,34
1,59,48,0
1,67,51,0
1,62,36,68
1,59,43,2
1,67,38,0
1,67,64,62
1,62,47,2
1,59,49,0
1,67,83,68
1,59,78,0
1,62,83,0
1,67,89,128
1,59,87,0
1,62,93,0
1,47,92,26
1,50,92,86
1,55,93,14
1,55,113,76
1,57,81,0
1,62,99,0
1,50,86,0
1,50,71,44
1,62,81,0
1,57,60,0
1,57,50,38
1,62,75,0
1,66,66,4
1,50,67,0
1,50,49,50
1,66,75,68
1,50,62,0
1,57,35,0
1,62,41,6
1,57,82,58
1,62,97,0
1,67,97,4
1,50,89,0
1,62,89,28
1,66,101,4
1,57,73,0
1,50,80,2
1,62,75,38
1,57,62,0
1,64,76,0
1,50,83,6
1,62,93,36
1,66,107,0
1,57,72,0
1,50,76,4
1,43,93,26
1,62,64,580
1,59,57,2
1,67,62,0
1,59,83,86
1,67,90,0
1,62,93,0
1,67,93,64
1,59,85,0
1,62,90,0
1,50,111,48
1,57,62,358
1,62,103,14
1,66,86,12
1,57,77,58
1,62,99,2
1,67,97,0
1,62,95,14
1,57,78,0
1,66,101,0
1,57,80,60
1,62,80,0
1,64,67,0
1,62,97,42
1,57,71,0
1,66,105,0
1,43,109,8
1,43,85,82
1,59,97,190
1,62,109,2
1,67,89,0
1,59,86,54
1,62,101,0
1,67,90,0
1,55,78,106
1,55,63,80
1,50,57,0
1,55,82,60
1,50,69,0
1,55,80,64
1,50,69,0
1,50,89,74
1,55,97,0
1,47,93,2
1,50,101,32
1,55,103,0
1,57,89,64
1,62,97,0
1,66,92,0
1,50,89,0
1,66,99,96
1,57,87,0
1,62,99,0
1,50,86,0
1,57,93,92
1,62,99,0
1,67,92,4
1,62,90,16
1,57,70,0
1,66,99,0
1,57,71,38
1,62,89,0
1,64,97,0
1,62,76,28
1,57,70,0
1,66,103,0
1,43,71,16
1,62,65,188
1,59,58,0
1,59,78,58
1,62,87,0
1,67,85,0
1,67,97,64
1,59,105,0
1,62,107,0
1,50,67,106
1,55,44,0
1,55,85,80
1,50,89,0
1,43,82,70
1,45,83,10
1,50,109,90
1,50,113,64
1,62,103,4
1,57,93,0
1,50,93,0
1,62,81,32
1,50,72,0
1,57,60,0
1,62,87,158
1,66,78,2
1,57,64,0
1,50,83,0
1,50,46,46
1,66,80,70
1,50,62,0
1,62,62,0
1,57,45,6
1,62,103,68
1,57,85,0
1,67,99,4
1,50,89,2
1,62,71,30
1,57,75,2
1,66,67,0
1,50,73,0
1,64,89,54
1,62,64,0
1,57,49,4
1,50,82,2
1,62,90,42
1,66,93,0
1,57,67,0
1,50,85,4
1,43,75,12
1,43,83,100
1,62,97,192
1,59,93,0
1,67,80,0
1,62,53,34
1,59,48,0
1,67,51,0
1,62,36,68
1,59,43,2
1,67,38,0
1,67,64,62
1,62,47,2
1,59,49,0
1,67,83,68
1,59,78,0
1,62,83,0
1,67,89,128
1,59,87,0
1,62,93,0
1,47,92,26
1,50,92,86
1,55,93,14
1,55,113,76
1,57,81,0
1,62,99,0
1,50,86,0
1,50,71,44
1,62,81,0
1,57,60,0
1,57,50,38
1,62,75,0
1,66,66,4
1,50,67,0
1,50,49,50
1,66,75,68
1,50,62,0
1,57,35,0
1,62,41,6
1,57,82,58
1,62,97,0
1,67,97,4
1,50,89,0
1,62,89,28
1,66,101,4
1,57,73,0
1,50,80,2
1,62,75,38
1,57,62,0
1,64,76,0
1,50,83,6
1,62,93,36
1,66,107,0
1,57,72,0
1,50,76,4
1,43,93,26
1,62,64,580
1,59,57,2
1,67,62,0
1,59,83,86
1,67,90,0
1,62,93,0
1,67,93,64
1,59,85,0
1,62,90,0
1,50,111,48
1,57,62,358
1,62,103,14
1,66,86,12
1,57,77,58
1,62,99,2
1,67,97,0
1,62,95,14
1,57,78,0
1,66,101,0
1,57,80,60
1,62,80,0
1,64,67,0
1,62,97,42
1,57,71,0
1,66,105,0
1,43,109,8
1,66,99,264
1,69,95,16
1,74,92,16
1,62,103,8
2,38,97,4610
2,36,92,54
2,36,103,76
2,31,90,52
2,31,99,70
2,38,99,796
2,36,89,32
2,36,101,96
2,31,93,388
2,31,93,84
2,38,89,874
2,36,101,20
2,36,99,96
2,31,95,4
2,31,95,90
2,38,95,872
2,36,90,26
2,36,93,92
2,31,92,24
2,31,89,60
2,38,90,940
2,36,92,24
2,36,90,70
2,31,90,384
2,31,95,90
2,38,105,904
2,36,90,18
2,36,105,140
2,31,95,76
2,31,97,68
2,38,97,838
2,36,101,12
2,36,107,96
2,31,99,18
2,31,105,90
2,38,90,844
2,36,89,22
2,36,90,116
2,31,87,2
2,31,92,72
2,38,92,820
2,36,93,6
2,36,86,108
2,31,90,6
2,31,87,60
2,38,92,912
2,38,103,2410
2,38,101,70
2,38,87,84
2,38,105,136
2,31,101,10
