track,note,velocity,time
3,68,100,14040
3,68,0,60
3,71,100,0
3,71,0,30
3,71,100,0
3,71,0,120
3,73,100,0
3,73,0,30
3,73,100,0
3,73,0,60
3,75,100,0
3,75,0,30
3,75,100,0
3,75,0,150
3,71,100,450
3,71,0,30
3,71,100,0
3,71,0,60
3,71,100,0
3,71,0,30
3,71,100,0
3,71,0,60
3,73,100,0
3,73,0,90
3,66,100,0
3,66,0,60
3,68,100,0
3,68,0,30
3,68,100,0
3,68,0,150
3,66,72,120
3,66,0,30
3,68,72,0
3,68,0,30
3,66,72,0
3,66,0,30
3,64,72,0
3,64,0,60
3,61,72,0
3,61,0,90
3,68,100,90
3,68,0,30
3,68,100,0
3,68,0,60
3,71,100,0
3,71,0,60
3,71,100,0
3,71,0,60
3,73,100,0
3,73,0,30
3,73,100,0
3,73,0,60
3,75,100,0
3,75,0,30
3,75,100,0
3,75,0,180
3,71,100,450
3,71,0,30
3,71,100,0
3,71,0,60
3,71,100,0
3,71,0,30
3,71,100,0
3,71,0,60
3,73,100,0
3,73,0,30
3,66,100,0
3,66,0,90
3,68,100,0
3,68,0,60
3,68,100,0
3,68,80,60
3,68,60,60
3,68,40,60
3,68,30,60
3,68,0,30
3,68,0,60
3,68,0,60
3,68,0,120
3,68,0,0
3,68,100,90
3,68,0,30
3,68,100,0
3,68,0,60
3,71,100,0
3,71,0,30
3,71,100,0
3,71,0,90
3,73,100,0
3,73,0,30
3,73,100,0
3,73,0,60
3,75,100,0
3,75,0,30
3,75,100,0
3,75,0,300
3,75,100,330
3,75,0,30
3,75,100,0
3,75,0,30
3,75,100,0
3,75,0,60
3,75,100,0
3,75,0,60
3,76,100,0
3,76,0,60
3,76,100,0
3,76,0,60
3,78,100,0
3,78,0,60
3,80,100,0
3,80,0,150
3,80,110,480
3,80,0,30
3,80,110,0
3,80,0,30
3,80,110,0
3,80,0,30
3,80,110,0
3,80,0,60
3,83,110,0
3,83,0,60
3,78,110,0
3,78,0,60
3,80,110,0
3,80,0,90
3,80,110,0
3,80,0,480
3,68,110,360
3,68,0,60
3,71,110,0
3,71,0,60
3,73,110,0
3,73,0,60
3,73,110,0
3,73,0,270
3,76,110,0
3,76,0,30
3,73,110,0
3,73,0,60
3,71,110,0
3,71,0,180
3,68,110,270
3,68,0,60
3,71,110,0
3,71,0,60
3,73,110,0
3,73,0,90
3,73,110,0
3,73,0,210
3,75,110,0
3,75,0,60
3,73,110,0
3,73,0,90
3,71,110,0
3,71,0,30
3,73,110,0
3,73,0,30
3,71,110,0
3,71,0,30
3,73,110,0
3,73,0,30
3,71,110,0
3,71,0,120
3,80,110,300
3,80,0,90
3,78,110,0
3,78,0,30
3,76,110,0
3,76,0,90
3,78,110,0
3,78,0,30
3,76,110,0
3,76,0,120
3,75,110,0
3,75,0,150
3,73,110,0
3,73,0,390
3,68,100,15960
3,68,0,60
3,71,100,0
3,71,0,30
3,71,100,0
3,71,0,120
3,73,100,0
3,73,0,30
3,73,100,0
3,73,0,60
3,75,100,0
3,75,0,30
3,75,100,0
3,75,0,150
3,71,100,450
3,71,0,30
3,71,100,0
3,71,0,60
3,71,100,0
3,71,0,30
3,71,100,0
3,71,0,60
3,73,100,0
3,73,0,90
3,66,100,0
3,66,0,60
3,68,100,0
3,68,0,30
3,68,100,0
3,68,0,150
3,66,72,120
3,66,0,30
3,68,72,0
3,68,0,30
3,66,72,0
3,66,0,30
3,64,72,0
3,64,0,60
3,61,72,0
3,61,0,90
3,68,100,90
3,68,0,30
3,68,100,0
3,68,0,60
3,71,100,0
3,71,0,60
3,71,100,0
3,71,0,60
3,73,100,0
3,73,0,30
3,73,100,0
3,73,0,60
3,75,100,0
3,75,0,30
3,75,100,0
3,75,0,180
3,71,100,450
3,71,0,30
3,71,100,0
3,71,0,60
3,71,100,0
3,71,0,30
3,71,100,0
3,71,0,60
3,73,100,0
3,73,0,30
3,66,100,0
3,66,0,90
3,68,100,0
3,68,0,60
3,68,100,0
3,68,0,270
3,68,100,330
3,68,0,30
3,68,100,0
3,68,0,60
3,71,100,0
3,71,0,30
3,71,100,0
3,71,0,90
3,73,100,0
3,73,0,30
3,73,100,0
3,73,0,60
3,75,100,0
3,75,0,30
3,75,100,0
3,75,0,300
3,75,100,330
3,75,0,30
3,75,100,0
3,75,0,30
3,75,100,0
3,75,0,60
3,75,100,0
3,75,0,60
3,76,100,0
3,76,0,60
3,76,100,0
3,76,0,60
3,78,100,0
3,78,0,60
3,80,100,0
3,80,0,150
3,80,110,480
3,80,0,30
3,80,110,0
3,80,0,30
3,80,110,0
3,80,0,30
3,80,110,0
3,80,0,60
3,83,110,0
3,83,0,60
3,78,110,0
3,78,0,60
3,80,110,0
3,80,0,90
3,80,127,0
3,80,0,390
3,78,127,0
3,78,0,30
3,76,127,0
3,76,0,30
3,75,127,0
3,75,0,120
3,73,127,0
3,73,0,150
3,68,110,1080
3,68,0,60
3,71,110,0
3,71,0,60
3,73,110,0
3,73,0,60
3,73,110,0
3,73,0,90
3,75,110,0
3,75,0,30
3,73,110,0
3,73,0,150
3,75,110,0
3,75,0,90
3,73,110,0
3,73,0,30
3,71,110,0
3,71,0,30
3,68,110,0
3,68,0,30
3,66,110,0
3,66,0,120
3,64,110,0
3,64,0,90
3,68,110,120
3,68,0,30
3,71,110,0
3,71,0,60
3,73,110,0
3,73,0,90
3,73,110,0
3,73,0,30
3,75,110,0
3,75,0,60
3,76,110,0
3,76,0,30
3,78,110,0
3,78,0,90
3,80,110,0
3,80,0,30
3,83,110,0
3,83,0,30
3,80,110,0
3,80,0,60
3,78,110,0
3,78,0,60
3,76,110,0
3,76,0,30
3,75,110,0
3,75,0,30
3,73,110,0
3,73,0,60
3,73,110,0
3,73,0,150
3,68,110,120
3,68,0,60
3,71,110,0
3,71,0,60
3,73,110,0
3,73,0,60
3,73,110,0
3,73,0,90
3,75,110,0
3,75,0,30
3,73,110,0
3,73,0,150
3,75,110,0
3,75,0,90
3,73,110,0
3,73,0,30
3,71,110,0
3,71,0,30
3,68,110,0
3,68,0,30
3,66,110,0
3,66,0,120
3,64,110,0
3,64,0,90
3,68,110,120
3,68,0,30
3,71,110,0
3,71,0,60
3,73,110,0
3,73,0,90
3,73,110,0
3,73,0,30
3,75,110,0
3,75,0,60
3,76,110,0
3,76,0,30
3,78,110,0
3,78,0,90
3,80,110,0
3,80,0,30
3,83,110,0
3,83,0,30
3,80,110,0
3,80,0,60
3,78,110,0
3,78,0,60
3,76,110,0
3,76,0,30
3,75,110,0
3,75,0,30
3,73,110,0
3,73,0,60
3,73,110,0
3,73,0,150
3,68,110,120
3,68,0,60
3,71,110,0
3,71,0,60
3,73,110,0
3,73,0,60
3,73,108,0
3,73,0,90
3,75,105,0
3,75,0,30
3,73,104,0
3,73,0,150
3,75,100,0
3,75,0,90
3,73,96,0
3,73,0,30
3,71,95,0
3,71,0,30
3,68,94,0
3,68,0,30
3,66,93,0
3,66,0,120
3,64,90,0
3,64,0,90
3,68,82,120
3,68,0,30
3,71,82,0
3,71,0,60
3,73,80,0
3,73,0,90
3,73,74,0
3,73,0,30
3,75,73,0
3,75,0,60
3,76,69,0
3,76,0,30
3,78,69,0
3,78,0,90
3,80,64,0
3,80,0,30
3,83,62,0
3,83,0,30
3,80,60,0
3,80,0,60
3,78,57,0
3,78,0,60
3,76,54,0
3,76,0,30
3,75,53,0
3,75,0,30
3,73,51,0
3,73,0,60
3,73,48,0
3,73,0,150
3,68,36,120
3,68,0,60
3,71,33,0
3,71,0,60
3,73,31,0
3,73,0,60
3,73,29,0
3,73,0,90
3,75,26,0
3,75,0,30
3,73,25,0
3,73,0,150
3,75,20,0
3,75,0,90
3,73,17,0
3,73,0,30
3,71,17,0
3,71,0,30
3,68,15,0
3,68,0,30
3,66,14,0
3,66,0,120
3,64,12,0
3,64,0,90
3,68,7,120
3,68,0,30
3,71,6,0
3,71,0,60
3,73,6,0
3,73,0,90
3,73,4,0
3,73,0,30
3,75,4,0
3,75,0,60
3,76,3,0
3,76,0,30
3,78,2,0
3,78,0,90
3,80,1,0
3,80,0,30
3,83,1,0
3,83,0,30
3,80,1,0
3,80,0,60
4,68,48,72
4,68,0,90
4,71,49,30
4,71,0,90
4,73,49,30
4,73,0,60
4,75,49,30
4,75,0,150
4,71,50,30
4,71,0,30
4,68,50,0
4,68,0,60
4,70,50,0
4,70,0,150
4,71,51,240
4,71,0,60
4,71,51,30
4,71,0,60
4,73,52,0
4,73,0,60
4,68,52,90
4,68,0,210
4,68,54,420
4,68,0,90
4,71,55,30
4,71,0,90
4,73,56,30
4,73,0,60
4,75,56,30
4,75,0,150
4,68,56,30
4,71,56,0
4,71,0,90
4,68,0,0
4,68,56,0
4,68,0,60
4,71,58,330
4,71,0,90
4,71,58,0
4,71,0,60
4,73,58,0
4,73,0,90
4,68,59,60
4,68,0,210
4,68,61,450
4,68,0,60
4,71,61,30
4,71,0,90
4,73,62,30
4,73,0,90
4,75,62,30
4,75,0,150
4,75,70,450
4,75,0,30
4,75,70,0
4,75,0,90
4,75,70,0
4,75,0,60
4,76,70,0
4,76,0,60
4,76,70,0
4,76,0,60
4,78,70,0
4,78,0,60
4,68,70,0
4,80,70,0
4,80,0,150
4,68,0,0
4,80,70,480
4,68,70,0
4,68,0,90
4,80,0,0
4,68,70,0
4,80,70,0
4,80,0,60
4,68,0,0
4,83,70,0
4,71,70,0
4,71,0,60
4,83,0,0
4,78,70,0
4,78,0,90
4,80,70,0
4,68,70,0
4,68,0,60
4,80,0,0
4,68,70,0
4,73,70,0
4,76,70,0
4,76,0,90
4,73,0,0
4,68,0,0
4,68,70,3540
4,68,0,60
4,71,70,0
4,71,0,150
4,68,56,2010
4,68,0,90
4,68,56,30
4,68,0,90
4,73,56,30
4,73,0,60
4,75,56,30
4,75,0,210
4,71,70,0
4,71,0,60
4,71,70,0
4,71,0,150
4,70,70,0
4,70,0,210
4,71,56,30
4,71,0,60
4,71,56,30
4,71,0,60
4,73,56,0
4,73,0,60
4,68,56,90
4,68,0,210
4,68,56,450
4,68,0,60
4,71,56,30
4,71,0,90
4,73,56,30
4,73,0,60
4,75,56,30
4,75,0,210
4,68,70,0
4,68,0,60
4,71,56,390
4,71,0,90
4,71,56,0
4,71,0,60
4,73,56,0
4,73,0,90
4,68,56,60
4,68,0,180
4,68,56,480
4,68,0,60
4,71,56,30
4,71,0,90
4,73,56,30
4,73,0,90
4,75,56,30
4,75,0,150
4,68,70,0
4,68,0,90
4,75,56,390
4,75,0,90
4,75,56,0
4,75,0,60
4,76,56,0
4,76,0,60
4,76,56,0
4,76,0,90
4,78,56,0
4,78,0,60
4,68,70,0
4,80,70,0
4,80,0,120
4,68,0,0
4,80,63,480
4,80,0,60
4,80,63,0
4,80,0,30
4,80,63,0
4,80,0,60
4,83,63,0
4,83,0,60
4,78,63,0
4,78,0,90
4,80,63,0
4,80,0,60
4,73,63,0
4,76,63,0
4,76,0,90
4,73,0,0
4,68,70,19680
4,68,0,90
4,68,70,30
4,68,0,90
4,73,70,30
4,73,0,60
4,75,70,30
4,75,0,210
4,71,70,0
4,71,0,60
4,71,70,0
4,71,0,150
4,70,70,0
4,70,0,210
4,71,70,30
4,71,0,60
4,71,70,30
4,71,0,60
4,73,70,0
4,73,0,60
4,68,70,90
4,68,0,210
4,68,70,450
4,68,0,60
4,71,70,30
4,71,0,90
4,73,70,30
4,73,0,60
4,75,70,30
4,75,0,210
4,68,70,0
4,68,0,60
4,71,70,390
4,71,0,90
4,71,70,0
4,71,0,60
4,73,70,0
4,73,0,90
4,68,70,60
4,68,0,180
4,68,70,480
4,68,0,60
4,71,70,30
4,71,0,90
4,73,70,30
4,73,0,90
4,75,70,30
4,75,0,150
4,68,70,0
4,68,0,90
4,75,70,390
4,75,0,90
4,75,70,0
4,75,0,60
4,76,70,0
4,76,0,60
4,76,70,0
4,76,0,90
4,78,70,0
4,78,0,60
4,68,70,0
4,80,70,0
4,80,0,120
4,68,0,0
4,80,70,480
4,80,0,60
4,80,70,0
4,80,0,30
4,80,70,0
4,80,0,60
4,83,70,0
4,83,0,60
4,78,70,0
4,78,0,90
4,80,70,0
4,80,0,60
5,56,42,75
5,56,0,30
5,64,42,0
5,64,0,30
5,63,42,0
5,63,0,30
5,61,42,0
5,61,0,30
5,63,42,0
5,63,0,60
5,59,42,0
5,59,0,90
5,54,42,0
5,54,0,60
5,56,43,0
5,56,0,150
5,56,43,0
5,56,0,30
5,64,43,0
5,64,0,30
5,63,44,0
5,63,0,30
5,61,44,0
5,61,0,30
5,63,44,0
5,63,0,120
5,66,44,0
5,66,0,60
5,59,44,0
5,59,0,90
5,56,44,0
5,56,0,90
5,56,45,0
5,56,0,30
5,64,45,0
5,64,0,30
5,63,45,0
5,63,0,30
5,61,45,0
5,61,0,30
5,63,45,0
5,63,0,60
5,59,45,0
5,59,0,90
5,54,46,0
5,54,0,60
5,56,46,0
5,56,0,150
5,56,46,0
5,56,0,30
5,64,46,0
5,64,0,30
5,63,46,0
5,63,0,30
5,61,46,0
5,61,0,30
5,63,46,0
5,63,0,120
5,59,47,0
5,59,0,30
5,66,47,0
5,59,47,0
5,59,0,120
5,66,0,0
5,56,48,60
5,56,0,30
5,68,48,0
5,68,0,90
5,59,49,0
5,59,0,30
5,71,49,0
5,71,0,90
5,61,49,0
5,61,0,30
5,73,49,0
5,73,0,60
5,63,49,0
5,63,0,30
5,75,49,0
5,75,0,150
5,63,49,0
5,63,0,30
5,71,50,0
5,71,0,30
5,68,50,0
5,68,0,60
5,70,50,0
5,70,0,150
5,66,51,0
5,66,0,210
5,59,51,0
5,59,0,30
5,71,51,0
5,71,0,60
5,59,51,0
5,59,0,30
5,71,51,0
5,71,0,60
5,61,52,0
5,73,52,0
5,73,0,60
5,61,0,0
5,54,52,0
5,54,0,30
5,66,52,0
5,66,0,60
5,56,52,0
5,68,52,0
5,68,0,210
5,56,0,0
5,56,53,0
5,64,53,0
5,64,0,60
5,56,0,0
5,56,53,0
5,64,53,0
5,64,0,60
5,56,0,0
5,59,53,0
5,66,53,0
5,66,0,150
5,59,0,0
5,58,54,0
5,66,54,0
5,66,0,120
5,58,0,0
5,56,54,0
5,56,0,30
5,68,54,0
5,68,0,90
5,59,55,0
5,59,0,30
5,71,55,0
5,71,0,90
5,61,55,0
5,61,0,30
5,73,56,0
5,73,0,60
5,59,56,0
5,59,0,30
5,75,56,0
5,75,0,150
5,63,56,0
5,63,0,30
5,68,56,0
5,71,56,0
5,71,0,90
5,68,0,0
5,68,56,0
5,68,0,60
5,66,57,0
5,66,0,150
5,66,57,0
5,66,0,150
5,59,58,0
5,59,0,30
5,71,58,0
5,71,0,90
5,71,58,0
5,71,0,60
5,61,58,0
5,73,58,0
5,73,0,90
5,61,0,0
5,54,58,0
5,66,58,0
5,66,0,60
5,54,0,0
5,56,59,0
5,68,59,0
5,68,0,210
5,56,0,0
5,56,60,0
5,64,60,0
5,64,0,60
5,56,0,0
5,56,60,0
5,64,60,0
5,64,0,60
5,56,0,0
5,59,60,0
5,66,60,0
5,66,0,90
5,59,0,0
5,61,60,0
5,61,0,120
5,56,61,90
5,56,0,30
5,68,61,0
5,68,0,60
5,59,61,0
5,59,0,30
5,71,61,0
5,71,0,90
5,61,62,0
5,61,0,30
5,73,62,0
5,73,0,90
5,63,62,0
5,75,62,30
5,75,0,150
5,63,0,0
5,52,70,0
5,57,70,0
5,63,70,0
5,63,0,90
5,57,0,0
5,52,0,0
5,63,70,0
5,57,70,0
5,52,70,0
5,52,0,60
5,57,0,0
5,63,0,0
5,63,70,0
5,57,70,0
5,52,70,0
5,52,0,120
5,57,0,0
5,63,0,0
5,64,70,0
5,59,70,0
5,54,70,0
5,54,0,60
5,59,0,0
5,64,0,0
5,57,70,0
5,52,70,0
5,63,70,0
5,63,0,120
5,52,0,0
5,57,0,0
5,63,70,0
5,75,70,0
5,75,0,30
5,63,0,0
