track,note,velocity,time
1,52,84,192
1,62,84,0
1,64,84,0
1,68,80,0
1,71,84,0
1,52,84,20
1,62,84,0
1,64,80,0
1,68,72,0
1,71,76,0
1,52,84,9
1,62,84,0
1,64,68,0
1,68,76,0
1,71,84,0
1,52,84,190
1,62,84,0
1,64,84,0
1,68,80,0
1,71,84,0
1,45,84,56
1,61,84,0
1,64,84,0
1,67,80,0
1,69,84,0
1,45,84,24
1,61,80,0
1,64,84,0
1,67,76,0
1,71,80,0
1,45,84,14
1,61,84,0
1,64,72,0
1,67,68,0
1,71,84,0
1,45,84,152
1,61,84,0
1,64,84,0
1,67,80,0
1,71,84,0
1,50,84,25
1,38,56,9
1,50,84,0
1,62,84,0
1,64,84,0
1,69,84,0
1,71,84,0
1,38,72,24
1,50,84,0
1,62,84,0
1,64,76,0
1,69,80,0
1,71,80,0
1,38,68,13
1,50,76,0
1,62,80,0
1,64,64,0
1,69,64,0
1,71,64,0
1,45,84,95
1,52,84,0
1,57,84,0
1,62,80,0
1,67,80,0
1,71,80,0
1,45,80,2
1,52,80,0
1,57,68,0
1,61,80,0
1,67,80,0
1,71,80,0
1,40,80,41
1,62,84,0
1,64,84,0
1,68,76,0
1,71,84,0
1,40,68,31
1,52,84,0
1,62,84,0
1,64,84,0
1,68,84,0
1,71,84,0
1,40,72,14
1,52,84,0
1,62,84,0
1,64,84,0
1,68,72,0
1,71,84,0
1,71,97,40
1,74,82,0
1,76,82,0
1,80,82,0
1,71,97,37
1,74,82,0
1,76,82,0
1,80,78,0
1,69,97,11
1,74,74,0
1,76,82,0
1,80,58,0
1,67,97,23
1,74,82,0
1,76,82,0
1,80,78,0
1,68,89,5
1,52,83,28443
1,62,83,0
1,64,83,0
1,68,82,0
1,71,83,0
1,52,83,20
1,62,83,0
1,64,82,0
1,68,80,0
1,71,81,0
1,52,83,9
1,62,83,0
1,64,79,0
1,68,81,0
1,71,83,0
1,52,83,190
1,62,83,0
1,64,83,0
1,68,82,0
1,71,83,0
1,45,83,56
1,61,83,0
1,64,83,0
1,67,82,0
1,69,83,0
1,45,83,24
1,61,82,0
1,64,83,0
1,67,81,0
1,71,82,0
1,45,83,14
1,61,83,0
1,64,80,0
1,67,79,0
1,71,83,0
1,45,83,152
1,61,83,0
1,64,83,0
1,67,82,0
1,71,83,0
1,50,83,25
1,38,76,9
1,50,83,0
1,62,83,0
1,64,83,0
1,69,83,0
1,71,83,0
1,38,80,24
1,50,83,0
1,62,83,0
1,62,79,0
1,64,83,0
1,64,79,0
1,69,82,0
1,71,82,0
1,38,79,13
1,50,81,0
1,62,82,0
1,62,76,0
1,64,82,0
1,64,76,0
1,69,78,0
1,71,78,0
1,45,83,95
1,52,83,0
1,57,83,0
1,62,82,0
1,64,82,0
1,67,82,0
1,69,82,0
1,45,82,2
1,52,82,0
1,57,79,0
1,61,82,0
1,67,82,0
1,71,82,0
1,40,82,41
1,62,83,0
1,64,83,0
1,68,81,0
1,71,83,0
1,40,79,31
1,52,83,0
1,62,83,0
1,64,83,0
1,68,83,0
1,71,83,0
1,40,80,14
1,52,83,0
1,62,83,0
1,64,83,0
1,68,80,0
1,71,83,0
1,75,85,43
1,76,90,8
1,80,88,0
1,80,89,15
1,74,90,4
1,70,90,41
1,74,91,4
1,71,88,3
1,69,91,9
1,74,89,3
1,76,91,1
2,35,106,990
2,40,110,2
2,33,106,2
2,35,106,38
2,38,106,2
2,33,110,2
2,28,110,2
2,38,114,68
2,33,114,9
2,38,106,2
2,33,114,20
2,38,106,8
2,33,110,2
2,28,114,2
2,28,104,46
2,28,104,99
2,33,104,51
2,33,104,68
2,38,104,65
2,38,104,76
2,38,104,65
2,38,104,76
2,28,104,87
2,28,104,63
2,33,104,60
2,33,104,80
2,38,104,80
2,38,104,80
2,38,104,67
2,38,104,72
2,28,104,87
2,28,104,77
2,33,104,90
2,33,104,76
2,38,104,56
2,38,104,73
2,38,104,74
2,38,104,57
2,28,104,63
2,28,104,64
2,33,104,97
2,33,96,70
2,38,104,74
2,38,104,76
2,33,104,64
2,33,104,104
2,28,114,2
2,28,114,2
2,28,114,2
2,23,114,146
2,38,114,2
2,38,114,2
2,38,114,2
2,38,114,98
2,35,114,2
2,38,114,50
2,40,114,2
2,28,114,2
2,28,114,2
2,28,114,2
2,23,114,146
2,38,114,2
2,38,114,2
2,38,114,2
2,28,114,434
2,28,114,2
2,28,114,2
2,23,114,146
2,38,114,2
2,38,114,2
2,38,114,2
2,38,114,98
2,35,114,2
2,38,114,50
2,40,114,2
2,28,114,2
2,28,114,2
2,28,114,2
2,23,114,146
2,38,114,2
2,38,114,2
2,38,114,2
2,28,114,434
2,28,114,2
2,28,114,2
2,28,114,146
2,33,114,0
2,33,114,2
2,33,114,2
2,33,114,146
2,38,114,34
2,38,114,2
2,38,114,2
2,33,114,146
2,28,114,49
2,28,114,2
2,28,114,2
2,40,114,2
2,28,114,2
2,28,114,2
2,28,114,2
2,28,114,146
2,33,114,0
2,33,114,2
2,33,114,2
2,33,114,146
2,38,114,34
2,38,114,2
2,38,114,2
2,33,114,146
2,28,114,49
2,28,114,2
2,28,114,2
2,33,114,146
2,28,114,1
2,28,114,2
2,28,114,2
2,28,114,146
2,33,114,0
2,33,114,2
2,33,114,2
2,33,114,146
2,38,114,34
2,38,114,2
2,38,114,2
2,33,114,146
2,28,114,49
2,28,114,2
2,38,114,31
2,28,114,2
2,28,114,2
2,28,114,2
2,28,114,146
2,33,114,20
2,33,114,2
2,33,114,2
2,33,114,146
2,38,114,35
2,38,114,2
2,38,114,2
2,33,114,146
2,28,114,35
2,28,114,2
2,28,114,2
2,28,114,2
2,38,114,962
2,28,114,4
2,28,114,25
2,33,114,176
2,38,114,44
2,38,106,16
2,38,114,21
2,38,114,64
2,38,114,78
2,38,114,28
2,40,114,2
2,28,114,2
2,28,114,27
2,33,114,206
2,38,114,44
2,38,102,17
2,38,110,17
2,38,114,22
2,38,114,64
2,38,114,26
2,40,114,3
2,28,114,2
2,28,114,24
2,33,114,239
2,38,114,45
2,38,102,11
2,38,110,24
2,38,114,57
2,38,114,74
2,38,102,18
2,38,102,10
2,28,114,32
2,28,114,21
2,33,114,152
2,33,114,21
2,38,114,79
2,38,114,18
2,38,114,32
2,38,114,48
2,33,114,28
2,33,114,26
2,33,114,28
2,28,114,2
2,28,114,2
2,28,114,2
2,23,114,146
2,38,114,2
2,38,114,2
2,38,114,2
2,38,114,98
2,35,114,2
2,38,114,50
2,40,114,2
2,28,114,2
2,28,114,2
2,28,114,2
2,23,114,146
2,38,114,2
2,38,114,2
2,38,114,2
2,28,114,434
2,28,114,2
2,28,114,2
2,23,114,146
2,38,114,2
2,38,114,2
2,38,114,2
2,38,114,98
2,35,114,2
2,38,114,50
2,40,114,2
2,28,114,2
2,28,114,2
2,28,114,2
2,23,114,146
2,38,114,2
2,38,114,2
2,38,114,2
2,35,114,434
2,35,114,64
2,38,114,35
2,38,114,88
2,33,114,39
2,33,114,94
2,28,114,72
2,35,114,192
2,44,114,84
2,35,114,472
2,35,114,93
2,38,114,153
2,38,114,79
2,28,114,1538
2,28,114,2
2,28,114,2
2,28,114,146
2,33,114,0
2,33,114,2
2,33,114,2
2,33,114,146
2,38,114,34
2,38,114,2
2,38,114,2
2,33,114,146
2,28,114,49
2,28,114,2
2,28,114,2
2,40,114,2
2,40,114,50
2,40,114,2
2,38,114,10
2,28,114,2
2,28,114,2
2,28,114,2
2,28,114,146
2,33,114,0
2,33,114,2
2,33,114,2
2,33,114,146
2,38,114,34
2,38,114,2
2,38,114,2
2,33,114,146
2,28,114,49
2,28,114,2
2,28,114,2
2,33,114,146
2,28,114,1
2,28,114,2
2,28,114,2
2,28,114,146
2,33,114,0
2,33,114,2
2,33,114,2
2,33,114,146
2,38,114,34
2,38,114,2
2,38,114,2
2,33,114,146
2,28,114,49
2,28,114,2
2,40,114,31
2,40,114,20
2,38,114,20
2,28,114,2
2,28,114,2
2,28,114,2
2,28,114,146
2,33,114,20
2,33,114,2
2,33,114,2
2,33,114,146
2,38,114,35
2,38,114,2
2,38,114,2
2,33,114,146
2,35,114,131
2,33,114,2
2,28,114,2
2,38,114,1730
2,28,114,4
2,28,114,25
2,33,114,144
2,33,0,94
2,33,114,2
2,38,114,44
2,38,106,16
2,38,114,21
2,38,114,64
2,38,114,78
2,38,114,28
2,40,114,2
2,28,114,2
2,28,114,27
2,33,114,144
2,33,0,94
2,33,114,2
2,33,114,0
2,38,114,44
2,38,102,17
2,38,110,17
2,38,114,22
2,38,114,64
2,38,114,26
2,40,114,3
2,28,114,2
2,28,114,24
2,33,114,143
2,33,0,94
2,33,114,2
2,38,114,45
2,38,102,11
2,38,110,24
2,38,114,57
2,38,114,74
2,38,102,18
2,40,102,10
2,28,114,32
2,28,114,21
2,33,114,152
2,33,114,21
2,38,114,79
2,38,114,18
2,38,114,32
2,38,114,48
2,33,114,28
2,33,114,26
2,33,114,28
2,28,114,2
2,28,114,4610
2,28,114,2
2,28,114,2
2,23,114,146
2,38,114,2
2,38,114,2
2,38,114,2
2,38,114,98
2,35,114,2
2,38,114,50
2,40,114,2
2,28,114,2
2,28,114,2
2,28,114,2
2,23,114,146
2,38,114,2
2,38,114,2
2,38,114,2
2,28,114,434
2,28,114,2
2,28,114,2
2,23,114,146
2,38,114,2
2,38,114,2
2,38,114,2
2,38,114,98
2,35,114,2
2,38,114,50
2,40,114,2
2,28,114,2
2,28,114,2
2,28,114,2
2,23,114,146
2,38,114,2
2,38,114,2
2,38,114,2
2,38,114,2
2,38,114,2
2,38,114,2
2,38,114,194
2,38,114,2
2,38,114,2
2,38,114,2
2,38,114,2
2,38,114,2
2,28,114,194
3,45,77,606
3,50,76,1
3,52,73,61
3,40,77,74
3,45,77,28
3,50,72,4
3,52,74,62
3,54,73,86
3,62,64,71
3,66,62,96
3,69,64,79
3,68,62,81
3,68,64,2
3,64,67,192
3,40,76,1268
3,43,75,2
3,40,75,96
3,69,62,88
3,74,67,2
3,76,67,94
3,74,61,20
3,73,56,2
3,74,61,2
3,73,57,2
3,69,59,192
3,68,42,1
3,67,41,2
3,66,41,1
3,65,42,18
3,64,34,2
3,63,28,6
3,62,25,2
3,59,56,54
3,61,57,10
3,64,63,16
3,69,64,4
3,68,63,76
3,64,64,3
3,59,64,96
3,74,65,2
3,79,65,2
3,76,65,2
3,78,63,2
3,74,65,2
3,72,51,1
3,71,57,15
3,69,57,1
3,67,55,2
3,50,67,1536
3,57,67,0
3,45,66,19
3,57,66,0
3,50,63,0
3,57,66,0
3,59,64,2
3,57,60,2
3,64,67,10
3,59,64,2
3,57,60,2
3,62,68,10
3,59,64,19
3,57,60,2
3,64,68,10
3,62,65,2
3,52,59,57
3,59,59,4
3,64,59,4
3,68,58,12
3,71,59,2
3,61,59,20
3,57,59,4
3,64,59,0
3,69,59,3
3,57,57,4
3,50,59,7
3,62,59,0
3,64,58,1
3,69,59,3
3,59,58,33
3,64,59,1
3,52,59,3
3,71,59,1
3,68,58,2
3,57,59,3
3,61,58,3
3,64,58,3
3,69,57,9
3,57,54,10
3,50,59,4
3,64,59,0
3,62,59,0
3,69,59,4
3,52,59,24
3,59,59,3
3,64,58,2
3,71,58,8
3,68,57,4
3,57,59,16
3,61,58,0
3,64,58,0
3,69,59,1
3,64,59,2
3,50,59,4
3,57,58,0
3,62,59,0
3,69,59,0
3,52,59,21
3,59,59,0
3,64,59,3
3,68,58,0
3,71,59,0
3,61,58,0
3,69,59,2
3,64,59,1
3,57,59,2
3,57,59,10
3,50,59,2
3,62,59,0
3,64,58,2
3,69,59,3
3,57,58,2
3,45,59,3
3,61,58,0
3,64,59,1
3,69,58,5
3,64,72,7
3,59,72,77
3,64,72,68
3,59,71,76
3,59,71,2
3,66,71,48
3,59,71,72
3,69,72,42
3,59,70,80
3,68,72,31
3,50,72,2
3,57,72,0
3,50,73,4
3,57,73,0
3,47,72,96
3,47,72,14
3,56,73,3
3,50,73,48
3,50,72,13
3,45,72,48
3,47,73,44
3,52,73,32
3,59,72,2
3,64,72,0
3,59,71,2
3,59,72,2
3,64,71,10
3,59,71,12
3,59,71,18
3,66,71,2
3,59,71,56
3,69,72,48
3,59,71,3
3,68,71,40
3,57,72,2
3,50,72,2
3,57,72,0
3,50,71,4
3,57,72,0
3,45,73,96
3,45,72,16
3,56,72,4
3,50,73,48
3,50,72,13
3,45,73,48
3,52,73,12
3,59,72,192
3,64,72,0
3,59,71,2
3,64,71,2
3,59,71,96
3,59,71,18
3,66,71,2
3,59,71,56
3,69,72,48
3,59,71,3
3,68,71,40
3,57,72,2
3,50,72,2
3,57,72,0
3,50,73,4
3,57,73,0
3,47,72,96
3,47,72,14
3,56,73,3
3,50,73,48
3,50,72,13
3,45,72,48
3,47,73,44
3,52,73,32
3,59,72,2
3,64,72,0
3,59,71,2
3,64,71,2
3,59,71,96
3,59,71,18
3,66,71,2
3,59,71,56
3,69,72,48
3,59,71,3
3,68,71,40
3,57,72,2
3,50,72,2
3,57,72,0
3,45,72,96
3,50,72,3
3,57,72,0
3,45,73,96
3,45,72,15
3,56,79,6
3,50,79,48
3,50,78,12
3,45,79,7
3,52,79,3
3,40,79,2
3,52,79,288
3,40,79,136
3,45,79,2
3,57,70,190
3,45,79,147
3,50,79,6
3,45,79,4
3,45,79,12
3,52,79,10
3,64,75,16
3,64,74,9
3,64,75,16
3,62,60,2
3,60,68,2
3,59,62,20
3,57,72,1
3,55,69,3
3,53,67,8
3,52,65,3
3,40,79,10
3,52,79,25
3,40,79,136
3,45,79,6
3,57,69,223
3,45,79,2
3,50,79,224
3,50,79,26
3,45,79,8
3,55,85,35
3,54,81,2
3,52,78,2
3,50,84,2
3,47,83,2
3,45,84,2
3,47,84,2
3,52,83,2
3,52,74,2
3,64,74,96
3,52,74,37
3,52,74,11
3,64,73,0
3,62,69,5
3,67,68,0
3,64,73,186
3,57,74,2
3,64,71,96
3,57,74,22
3,64,70,11
3,62,69,0
3,67,68,0
3,64,74,186
3,62,54,1
3,60,53,1
3,59,63,18
3,57,65,12
3,55,65,3
3,53,59,7
3,52,54,8
3,50,57,5
3,48,55,8
3,57,74,4
3,57,74,17
3,57,74,16
3,57,74,10
3,50,76,9
3,52,74,2
3,57,71,2
3,59,74,2
3,62,74,2
3,69,74,2
3,62,74,2
3,62,74,2
3,40,81,16
3,40,81,2
3,40,81,2
3,40,81,146
3,45,81,23
3,45,81,2
3,45,81,2
3,45,81,146
3,50,80,12
3,50,80,96
3,50,80,2
3,45,81,146
3,40,81,32
3,40,81,6
3,40,81,2
3,40,81,2
3,50,74,963
3,62,74,0
3,48,66,59
3,60,66,0
3,47,65,5
3,59,65,0
3,45,65,2
3,57,65,0
3,43,63,17
3,55,63,0
3,41,62,15
3,53,62,0
3,40,69,10
3,52,69,0
3,38,70,16
3,50,70,0
3,40,84,10
3,52,82,53
3,56,94,96
3,57,72,6
3,45,83,2
3,61,71,4
3,50,84,12
3,57,78,96
3,62,72,96
3,57,77,76
3,57,77,1
3,57,74,16
3,59,84,18
3,40,83,15
3,52,82,92
3,56,84,68
3,45,82,17
3,57,76,0
3,61,66,10
3,50,84,26
3,69,67,64
3,66,64,36
3,62,67,12
3,50,82,5
3,62,67,0
3,66,65,0
3,57,66,25
3,69,67,0
3,59,72,32
3,40,84,51
3,52,82,53
3,56,84,96
3,57,72,6
3,45,83,2
3,61,71,4
3,50,84,12
3,57,65,96
3,62,71,96
3,57,71,76
3,57,71,1
3,57,68,16
3,59,73,18
3,40,83,15
3,52,82,92
3,56,84,68
3,45,83,17
3,57,70,0
3,61,69,10
3,50,84,26
3,57,62,28
3,62,70,96
3,57,61,40
3,45,82,2
3,61,68,0
3,57,69,15
3,64,72,2
3,59,72,96
3,64,72,68
3,59,71,76
3,59,71,2
3,66,71,48
3,59,71,72
3,69,72,42
3,59,70,80
3,68,72,31
3,50,72,2
3,57,72,0
3,50,73,4
