track,note,velocity,time
1,76,100,2400
1,76,0,60
1,74,100,0
1,74,0,30
1,73,100,0
1,73,0,30
1,76,100,150
1,76,0,60
1,74,100,0
1,74,0,30
1,72,100,0
1,72,0,60
1,73,100,90
1,73,0,30
1,76,100,0
1,76,0,30
1,76,100,0
1,76,0,30
1,74,100,0
1,74,0,30
1,73,100,0
1,73,0,60
1,73,100,0
1,73,0,120
1,73,100,180
1,73,0,30
1,74,100,0
1,74,0,30
1,74,100,0
1,74,0,30
1,75,100,0
1,75,0,30
1,75,100,0
1,75,0,90
1,76,100,0
1,76,0,120
1,74,100,0
1,74,0,30
1,72,100,0
1,72,0,30
1,72,100,120
1,72,0,30
1,72,100,0
1,72,0,30
1,71,100,0
1,71,0,14
1,71,100,1
1,71,0,14
1,71,100,1
1,71,0,90
1,71,100,0
1,71,0,30
1,72,100,0
1,72,0,60
1,69,100,0
1,69,0,120
1,76,100,810
1,76,0,30
1,76,100,0
1,76,0,30
1,76,100,0
1,76,0,60
1,74,100,0
1,74,0,60
1,76,100,0
1,76,0,90
1,76,100,0
1,76,0,30
1,74,100,150
1,74,0,30
1,76,100,0
1,76,0,30
1,74,100,0
1,74,0,30
1,76,100,0
1,76,0,30
1,74,100,0
1,74,0,60
1,76,100,0
1,76,0,120
1,76,100,210
1,76,0,60
1,76,100,0
1,76,0,60
1,74,100,0
1,74,0,30
1,76,100,0
1,76,0,60
1,76,100,0
1,76,0,30
1,76,100,0
1,76,0,30
1,74,100,0
1,74,0,60
1,72,100,0
1,72,0,60
1,72,100,0
1,72,0,30
1,72,100,0
1,72,0,30
1,72,100,0
1,72,0,30
1,72,100,0
1,72,0,30
1,72,100,0
1,72,0,30
1,72,100,0
1,72,0,30
1,71,100,0
1,71,0,150
1,71,100,0
1,71,0,30
1,69,100,0
1,69,0,180
1,69,100,600
1,69,0,30
1,69,100,0
1,69,0,30
1,69,100,0
1,69,0,30
1,72,100,0
1,72,0,120
1,71,100,0
1,71,0,30
1,69,100,0
1,69,0,60
1,69,100,0
1,69,0,30
1,72,100,0
1,72,0,30
1,72,100,15
1,72,100,15
1,72,0,15
1,72,0,15
1,72,100,0
1,72,0,30
1,71,100,0
1,71,0,30
1,71,100,0
1,71,0,30
1,72,100,0
1,72,0,120
1,69,100,0
1,69,0,30
1,67,100,0
1,67,0,180
1,72,100,720
1,72,0,30
1,81,100,0
1,81,0,30
1,81,100,0
1,81,0,30
1,81,100,0
1,81,0,60
1,81,100,0
1,81,0,60
1,76,100,0
1,76,0,30
1,74,100,0
1,74,0,30
1,72,100,0
1,72,0,60
1,73,100,150
1,73,0,30
1,81,100,0
1,81,0,30
1,81,100,0
1,81,0,30
1,81,100,0
1,81,0,60
1,81,100,0
1,81,0,60
1,76,100,0
1,76,0,30
1,74,100,0
1,74,0,90
1,79,100,150
1,79,0,30
1,81,100,0
1,81,0,30
1,81,100,0
1,81,0,30
1,81,100,0
1,81,0,60
1,86,100,30
1,86,0,60
1,86,100,0
1,86,0,60
1,84,100,0
1,84,0,90
1,71,100,30
1,71,0,30
1,72,100,0
1,72,0,30
1,72,100,0
1,72,0,30
1,72,100,0
1,72,0,30
1,72,100,0
1,72,0,30
1,71,100,0
1,71,0,30
1,72,100,30
1,72,0,120
1,69,100,0
1,69,0,30
1,67,100,0
1,67,0,120
1,81,100,750
1,81,0,60
1,81,100,0
1,81,0,60
1,81,100,120
1,81,0,60
1,81,100,0
1,81,0,60
1,81,100,150
1,81,0,30
1,81,100,0
1,81,0,30
1,81,100,0
1,81,0,30
1,81,100,0
1,81,0,30
1,81,100,0
1,81,0,60
1,81,100,0
1,81,0,120
1,76,100,180
1,76,0,30
1,81,100,0
1,81,0,30
1,81,100,0
1,81,0,30
1,81,100,0
1,81,0,60
1,81,100,0
1,81,0,90
1,81,100,15
1,81,100,45
1,81,0,15
1,81,0,15
1,76,100,0
1,76,0,60
1,74,100,0
1,74,0,60
1,76,100,0
1,76,0,60
1,76,100,0
1,76,0,60
1,74,100,0
1,74,0,30
1,74,100,0
1,74,0,30
1,74,100,0
1,74,0,30
1,72,100,0
1,72,0,120
1,81,100,870
1,81,0,30
1,81,100,0
1,81,0,30
1,81,100,0
1,81,0,30
1,81,100,0
1,81,0,30
1,81,100,0
1,81,0,30
1,81,100,15
1,81,100,15
1,81,0,15
1,81,100,30
1,81,0,15
1,81,0,45
1,81,100,15
1,81,0,60
1,76,100,150
1,76,0,30
1,81,100,0
1,81,0,30
1,81,100,0
1,81,0,30
1,81,100,0
1,81,0,30
1,81,100,0
1,81,0,60
1,81,100,0
1,81,0,120
1,76,100,165
1,76,0,30
1,81,100,15
1,81,0,60
1,81,100,0
1,81,0,60
1,81,100,0
1,81,0,30
1,84,100,0
1,84,0,60
1,84,100,0
1,84,0,30
1,84,100,0
1,84,0,60
1,84,100,0
1,84,0,60
1,81,100,0
1,81,0,30
1,76,100,0
1,76,0,30
1,76,100,0
1,76,0,30
1,76,100,0
1,76,0,30
1,76,100,0
1,76,0,30
1,76,100,0
1,76,0,30
1,74,100,0
1,74,0,30
1,76,100,0
1,76,0,120
1,74,100,0
1,74,0,30
1,72,100,0
1,72,0,180
1,81,100,720
1,81,0,29
1,81,100,1
1,81,0,29
1,81,100,1
1,81,0,29
1,81,100,1
1,81,0,60
1,81,100,0
1,81,0,29
1,81,100,1
1,81,0,60
1,81,100,0
1,81,0,60
1,81,100,0
1,81,0,60
1,69,100,0
1,69,0,120
1,81,100,30
1,81,0,29
1,81,100,1
1,81,0,29
1,81,100,1
1,81,0,29
1,81,100,1
1,81,0,29
1,81,100,1
1,81,0,60
1,81,100,0
1,81,0,180
1,81,100,120
1,81,0,29
1,86,100,1
1,86,0,29
1,86,100,1
1,86,0,29
1,87,100,1
1,87,0,29
1,87,100,1
1,87,0,29
1,87,100,1
1,87,0,29
1,88,100,1
1,88,0,60
1,88,100,0
1,88,0,60
1,85,100,0
1,85,0,120
1,76,100,0
1,76,0,29
1,76,100,1
1,76,0,29
1,76,100,1
1,76,0,29
1,76,100,1
1,76,0,29
1,76,100,1
1,76,0,29
1,76,100,1
1,76,0,29
1,76,100,1
1,76,0,150
1,74,100,0
1,74,0,29
1,72,100,1
1,72,0,120
1,67,100,628
1,69,100,28
1,67,0,2
1,69,0,88
1,72,100,4
1,72,0,60
1,73,100,0
1,73,0,30
1,69,100,1
1,69,0,120
1,69,100,0
1,76,100,29
1,69,0,1
1,76,0,29
1,76,100,0
1,76,0,30
1,76,100,0
1,76,0,30
1,76,100,0
1,76,0,30
1,74,100,0
1,74,0,30
1,72,100,9
1,69,100,113
1,72,0,7
1,69,0,173
1,81,100,508
1,81,0,60
1,81,100,0
1,81,0,60
1,81,100,120
1,81,0,60
1,81,100,0
1,81,0,60
1,81,100,160
1,81,0,19
1,81,100,1
1,81,0,40
1,81,100,0
1,81,0,19
1,81,100,1
1,81,0,40
1,81,100,0
1,81,0,60
1,81,100,0
1,81,0,120
1,76,100,180
1,76,0,19
1,81,100,1
1,81,0,40
1,81,100,0
1,81,0,19
1,81,100,1
1,81,0,60
1,84,100,0
1,84,0,80
1,84,100,40
1,81,100,40
1,84,0,20
1,81,0,40
1,81,100,0
1,81,0,80
1,81,100,0
1,81,0,60
1,81,100,0
1,81,0,60
1,84,100,60
1,84,0,19
1,84,100,1
1,84,0,19
1,84,100,1
1,84,0,19
1,84,100,1
1,84,0,60
1,81,100,0
1,81,0,180
1,81,100,60
1,81,0,60
1,81,100,0
1,81,0,120
1,74,100,0
1,74,0,40
1,72,100,0
1,72,0,19
1,69,100,1
1,69,0,60
1,79,100,840
1,79,0,60
1,81,100,0
1,81,0,60
1,81,100,0
1,81,0,60
1,81,100,0
1,81,0,60
1,84,100,0
1,84,0,60
1,84,100,0
1,84,0,60
1,79,100,120
1,79,0,60
1,81,100,0
1,81,0,60
1,81,100,0
1,81,0,60
1,81,100,0
1,81,0,29
1,81,100,1
1,81,0,120
1,79,100,150
1,79,0,60
1,81,100,0
1,81,0,60
1,81,100,0
1,81,0,60
1,81,100,0
1,81,0,60
1,86,100,0
1,86,0,60
1,86,100,0
1,86,0,29
1,84,100,1
1,84,0,120
1,79,100,30
1,79,0,29
1,79,100,1
1,79,0,29
1,79,100,1
1,79,0,29
1,79,100,1
1,79,0,29
1,79,100,1
1,79,0,29
1,79,100,1
1,79,0,29
1,80,100,1
1,80,0,60
1,81,100,0
1,81,0,120
1,81,100,780
1,81,0,60
1,84,100,0
1,84,0,60
1,81,100,0
1,81,0,60
1,84,100,120
1,84,0,30
1,84,100,0
1,84,0,30
1,84,100,0
1,84,0,30
1,84,100,0
1,84,0,30
1,83,100,0
1,83,0,40
1,81,100,0
1,81,0,40
1,83,100,0
1,83,0,40
1,84,100,19
1,84,0,150
1,81,100,9
1,79,100,57
1,81,0,3
1,79,0,57
1,81,100,665
1,81,0,60
1,81,100,0
1,81,0,60
1,81,100,120
1,81,0,60
1,81,100,0
1,81,0,60
1,76,100,90
1,76,0,29
1,81,100,1
1,81,0,60
1,81,100,0
1,81,0,60
1,84,100,0
1,84,0,60
1,84,100,0
1,84,0,29
1,84,100,1
1,84,0,120
1,80,100,150
1,81,100,0
1,80,0,29
1,81,0,31
1,81,100,0
1,81,0,60
1,81,100,0
1,81,0,29
1,81,100,1
1,81,0,90
1,84,100,0
1,84,0,60
1,81,100,0
1,81,0,29
1,83,100,1
1,83,0,120
1,81,100,30
1,81,0,90
1,81,100,0
1,81,0,29
1,79,100,1
1,79,0,29
1,79,100,1
1,79,0,29
1,79,100,1
1,79,0,29
1,81,100,1
1,81,0,90
1,79,100,0
1,79,0,180
1,79,100,0
1,79,0,60
1,81,100,0
1,81,0,180
1,81,100,0
1,81,0,60
1,79,100,0
1,79,0,180
1,76,100,690
1,76,0,29
1,81,100,1
1,81,0,60
1,79,100,0
1,79,0,29
1,81,100,1
1,81,0,60
1,79,100,0
1,79,0,29
1,81,100,1
1,81,0,120
1,81,100,0
1,81,0,60
1,76,100,0
1,76,0,60
1,81,100,30
1,81,0,29
1,81,100,1
1,81,0,60
1,81,100,0
1,81,0,60
1,84,100,0
1,84,0,60
1,84,100,0
1,84,0,29
1,84,100,31
1,84,0,120
1,81,100,90
1,81,0,29
1,79,100,1
1,79,0,60
1,81,100,0
1,81,0,60
1,81,100,0
1,81,0,60
1,81,100,0
1,81,0,29
1,84,100,1
1,84,0,60
1,84,100,0
1,84,0,60
1,84,100,0
1,84,0,120
1,81,100,0
1,81,0,29
1,81,100,1
1,81,0,29
1,81,100,1
1,81,0,29
1,81,100,1
1,81,0,29
1,81,100,1
1,81,0,29
1,81,100,1
1,81,0,29
1,81,100,1
1,81,0,150
1,84,100,0
1,84,0,120
1,84,100,0
1,84,0,120
1,84,100,0
1,84,0,60
1,81,100,0
1,81,0,60
1,81,100,0
1,81,0,120
1,79,100,0
1,79,0,60
1,81,100,0
1,81,0,90
1,79,100,240
1,79,0,30
1,81,100,0
1,81,0,30
1,81,100,2
1,81,100,56
1,81,0,4
1,81,0,56
1,81,100,7
1,81,100,59
1,81,0,1
1,81,100,56
1,81,0,3
1,81,0,57
1,81,100,89
1,81,0,30
1,81,100,0
1,81,0,30
1,84,100,0
1,84,0,60
1,84,100,0
1,84,0,60
1,84,100,0
1,84,0,60
1,84,100,0
1,84,0,60
1,84,100,0
1,84,0,30
1,81,100,7
1,81,0,120
1,84,100,53
1,84,0,30
1,86,100,0
1,86,0,30
1,86,100,2
1,86,0,60
1,84,100,0
1,81,100,88
1,84,0,2
1,86,100,51
1,81,0,7
1,86,0,53
1,86,100,6
1,86,0,30
1,84,100,7
1,79,100,51
1,84,0,9
1,79,0,21
1,79,100,2
1,79,0,30
1,79,100,1
1,79,0,30
1,81,100,0
1,81,0,30
1,81,100,0
1,81,0,30
1,81,100,0
1,81,0,30
1,81,100,0
1,81,0,30
1,81,100,0
1,81,0,30
1,81,100,4
1,84,100,146
1,81,0,4
1,84,0,176
1,81,100,0
1,81,0,120
1,81,100,570
1,81,0,29
1,84,100,1
1,84,0,29
1,84,100,1
1,84,0,60
1,84,100,0
1,84,0,60
1,84,100,0
1,84,0,29
1,86,100,1
1,86,0,60
1,88,100,0
1,88,0,60
1,84,100,0
1,84,0,60
1,81,100,0
1,81,0,29
1,81,100,1
1,81,0,29
1,81,100,1
1,81,0,29
1,81,100,1
1,81,0,29
1,81,100,1
1,81,0,29
1,81,100,1
1,81,0,29
1,81,100,1
1,81,0,29
1,81,100,1
1,81,0,29
1,81,100,1
1,81,0,29
1,81,100,1
1,81,0,150
1,81,100,0
1,81,0,120
1,79,100,0
1,79,0,120
1,74,100,0
1,74,0,29
1,76,100,1
1,76,0,120
1,84,100,510
1,84,0,29
1,84,100,1
1,84,0,29
1,84,100,1
1,84,0,29
1,84,100,1
1,84,0,29
1,84,100,1
1,84,0,29
1,84,100,1
1,84,0,90
1,84,100,0
1,84,0,29
1,81,100,1
1,81,0,90
1,84,100,120
1,84,0,29
1,84,100,1
1,84,0,29
1,84,100,1
1,84,0,29
1,84,100,1
1,84,0,29
1,84,100,1
1,84,0,29
1,84,100,1
1,84,0,90
1,84,100,0
1,84,0,29
1,81,100,1
1,81,0,90
1,84,100,120
1,84,0,29
1,84,100,1
1,84,0,29
1,84,100,1
1,84,0,29
1,84,100,1
1,84,0,29
1,84,100,1
1,84,0,29
1,84,100,1
1,84,0,90
1,84,100,0
1,84,0,60
1,81,100,0
1,81,0,90
1,84,100,90
1,84,0,29
1,84,100,1
1,84,0,29
1,84,100,1
1,84,0,29
1,84,100,1
1,84,0,29
1,83,100,1
1,83,0,29
1,83,100,1
1,83,0,120
1,84,100,0
1,84,0,60
1,81,100,0
1,81,0,90
1,79,100,0
1,79,0,120
1,81,100,0
1,81,0,120
1,81,100,0
1,81,0,120
1,79,100,0
1,79,0,120
1,78,100,0
1,76,100,150
1,76,0,29
1,78,0,1
1,74,100,0
1,74,0,90
2,66,100,40680
2,66,0,120
2,69,100,0
2,69,0,60
2,69,100,0
2,69,0,60
2,66,100,240
2,66,0,120
2,69,100,0
2,69,0,60
2,69,100,0
2,69,0,60
2,66,100,240
2,66,0,120
2,69,100,0
2,69,0,60
2,69,100,0
2,69,0,60
2,66,100,240
2,66,0,120
2,69,100,0
2,69,0,60
2,69,100,0
2,69,0,60
2,66,100,240
2,66,0,120
2,69,100,0
2,69,0,60
2,69,100,0
2,69,0,60
2,66,100,14
2,66,0,6
2,69,100,0
2,69,0,2
2,69,100,0
2,69,0,19
2,66,100,3
2,66,0,17
2,69,100,0
2,69,0,13
2,69,100,0
2,69,0,9
2,66,100,14
2,66,0,6
2,69,100,0
2,69,0,2
2,69,100,0
2,69,0,20
2,66,100,4
2,66,0,17
2,69,100,0
2,69,0,13
2,69,100,0
2,69,0,9
3,76,100,2400
3,76,0,60
3,74,100,0
3,74,0,30
3,73,100,0
3,73,0,30
3,76,100,150
3,76,0,60
3,74,100,0
3,74,0,30
3,72,100,0
3,72,0,60
3,73,100,90
3,73,0,30
3,76,100,0
3,76,0,30
3,76,100,0
3,76,0,30
3,74,100,0
3,74,0,30
3,73,100,0
3,73,0,60
3,73,100,0
3,73,0,120
3,73,100,180
3,73,0,30
3,74,100,0
3,74,0,30
3,74,100,0
3,74,0,30
3,75,100,0
3,75,0,30
3,75,100,0
3,75,0,90
3,76,100,0
3,76,0,120
3,74,100,0
3,74,0,30
3,72,100,0
3,72,0,30
3,72,100,120
3,72,0,30
3,72,100,0
3,72,0,30
3,71,100,0
3,71,0,14
3,71,100,1
3,71,0,14
3,71,100,1
3,71,0,90
3,71,100,0
3,71,0,30
3,72,100,0
3,72,0,60
3,69,100,0
3,69,0,120
3,76,100,810
3,76,0,30
3,76,100,0
3,76,0,30
3,76,100,0
3,76,0,60
3,74,100,0
3,74,0,60
3,76,100,0
3,76,0,90
3,76,100,0
3,76,0,30
3,74,100,150
3,74,0,30
3,76,100,0
3,76,0,30
