track,note,velocity,time
2,60,64,2832
2,60,0,23
2,60,64,1
2,60,0,23
2,60,64,1
2,60,0,47
2,60,64,1
2,60,0,11
2,61,64,1
2,61,0,35
2,57,64,1
2,57,0,23
2,55,64,1
2,55,0,23
2,57,64,1
2,57,0,23
2,57,64,1
2,57,0,47
2,59,64,1
2,59,0,47
2,54,64,1
2,54,0,71
2,54,64,1
2,54,0,23
2,57,64,1
2,57,0,71
2,60,64,265
2,60,0,23
2,60,64,0
2,60,0,23
2,60,64,1
2,60,0,23
2,60,64,1
2,60,0,47
2,60,64,1
2,60,0,47
2,57,64,1
2,57,0,23
2,55,64,1
2,55,0,23
2,57,64,1
2,57,0,23
2,57,64,1
2,57,0,47
2,59,64,1
2,59,0,47
2,54,64,1
2,54,0,47
2,57,64,1
2,57,0,167
2,60,64,145
2,60,0,83
2,55,64,13
2,55,0,23
2,55,64,1
2,55,0,23
2,57,64,1
2,57,0,23
2,57,64,1
2,57,0,23
2,60,64,1
2,60,0,47
2,54,64,1
2,54,0,23
2,54,64,1
2,54,0,23
2,57,64,1
2,57,0,23
2,57,64,1
2,57,0,23
2,60,64,1
2,60,0,47
2,54,64,1
2,54,0,23
2,54,64,1
2,54,0,23
2,57,64,1
2,57,0,23
2,57,64,1
2,57,0,23
2,60,64,1
2,60,0,71
2,62,64,1
2,62,0,23
2,60,64,97
2,60,0,23
2,60,64,1
2,60,0,23
2,60,64,1
2,60,0,23
2,60,64,1
2,60,0,47
2,57,64,1
2,57,0,47
2,57,64,1
2,57,0,35
2,55,64,1
2,55,0,131
2,47,64,601
2,47,0,23
2,56,64,1
2,56,0,23
2,56,64,1
2,56,0,23
2,57,64,1
2,57,0,47
2,59,64,1
2,59,0,47
2,56,64,1
2,56,0,23
2,56,64,1
2,56,0,23
2,57,64,1
2,57,0,47
2,59,64,1
2,59,0,47
2,54,64,1
2,54,0,23
2,54,64,1
2,54,0,23
2,57,64,1
2,57,0,47
2,61,64,1
2,61,0,47
2,61,64,1
2,61,0,23
2,57,64,1
2,57,0,47
2,57,64,1
2,57,0,23
2,56,64,1
2,56,0,47
2,56,64,1
2,56,0,23
2,52,64,1
2,52,0,47
2,52,64,1
2,52,0,23
2,52,64,1
2,52,0,47
2,50,64,1
2,50,0,47
2,49,64,1
2,49,0,71
2,50,64,241
2,50,0,23
2,51,64,1
2,51,0,23
2,49,64,1
2,49,0,71
2,49,64,313
2,49,0,23
2,60,64,1
2,60,0,23
2,60,64,1
2,60,0,23
2,60,64,1
2,60,0,47
2,60,64,1
2,60,0,47
2,57,64,1
2,57,0,23
2,55,64,1
2,55,0,23
2,57,64,1
2,57,0,23
2,57,64,1
2,57,0,47
2,59,64,1
2,59,0,47
2,54,64,1
2,54,0,47
2,57,64,1
2,57,0,119
2,57,64,265
2,57,0,23
2,60,64,1
2,60,0,23
2,60,64,1
2,60,0,23
2,60,64,1
2,60,0,23
2,61,64,1
2,61,0,47
2,57,64,1
2,57,0,23
2,55,64,1
2,55,0,23
2,57,64,1
2,57,0,47
2,57,64,1
2,57,0,23
2,57,64,1
2,57,0,47
2,59,64,1
2,59,0,23
2,54,64,1
2,54,0,47
2,57,64,1
2,57,0,119
2,54,64,289
2,54,0,23
2,54,64,1
2,54,0,23
2,57,64,1
2,57,0,23
2,60,64,1
2,60,0,71
2,54,64,1
2,54,0,23
2,54,64,1
2,54,0,23
2,57,64,1
2,57,0,23
2,60,64,1
2,60,0,71
2,54,64,1
2,54,0,23
2,54,64,1
2,54,0,23
2,57,64,1
2,57,0,23
2,60,64,1
2,60,0,95
2,61,64,121
2,61,0,23
2,61,64,1
2,61,0,23
2,61,64,1
2,61,0,23
2,60,64,1
2,60,0,47
2,57,64,1
2,57,0,59
2,57,64,1
2,57,0,23
2,55,64,1
2,55,0,83
2,57,64,145
2,57,0,23
2,61,64,1
2,61,0,23
2,55,64,1
2,55,0,23
2,57,64,1
2,57,0,71
2,50,64,1
2,50,0,23
2,47,64,1
2,47,0,47
2,48,64,1
2,48,0,47
2,49,64,1
2,49,0,47
2,56,64,217
2,56,0,23
2,56,64,1
2,56,0,23
2,57,64,1
2,57,0,47
2,59,64,1
2,59,0,47
2,56,64,1
2,56,0,23
2,56,64,1
2,56,0,23
2,57,64,1
2,57,0,47
2,59,64,1
2,59,0,47
2,54,64,1
2,54,0,23
2,54,64,1
2,54,0,23
2,57,64,1
2,57,0,47
2,61,64,1
2,61,0,47
2,61,64,1
2,61,0,23
2,57,64,1
2,57,0,47
2,57,64,1
2,57,0,23
2,56,64,1
2,56,0,47
2,56,64,1
2,56,0,23
2,52,64,1
2,52,0,47
2,52,64,1
2,52,0,23
2,52,64,1
2,52,0,47
2,50,64,1
2,50,0,23
2,49,64,1
2,49,0,71
2,64,64,7441
2,64,0,179
2,60,64,13
2,60,0,23
2,60,64,1
2,60,0,47
2,60,64,1
2,60,0,71
2,57,64,1
2,57,0,23
2,57,64,1
2,57,0,23
2,57,64,1
2,57,0,23
2,57,64,1
2,57,0,23
2,57,64,1
2,57,0,23
2,61,64,1
2,61,0,47
2,55,64,1
2,55,0,167
2,64,64,289
2,64,0,23
2,64,64,1
2,64,0,47
2,64,64,1
2,64,0,71
2,64,64,49
2,64,0,23
2,64,64,1
2,64,0,47
2,61,64,1
2,61,0,47
2,57,64,1
2,57,0,95
2,57,64,217
2,57,0,71
2,57,64,1
2,57,0,47
2,54,64,25
2,54,0,23
2,54,64,1
2,54,0,23
2,57,64,1
2,57,0,47
2,59,64,1
2,59,0,47
2,54,64,1
2,54,0,23
2,54,64,1
2,54,0,23
2,57,64,1
2,57,0,47
2,59,64,1
2,59,0,47
2,54,64,1
2,54,0,23
2,54,64,1
2,54,0,23
2,57,64,1
2,57,0,47
2,61,64,1
2,61,0,95
2,64,64,97
2,64,0,11
2,64,64,1
2,64,0,11
2,64,64,1
2,64,0,23
2,64,64,1
2,64,0,23
2,64,64,1
2,64,0,71
2,62,64,1
2,62,0,23
2,60,64,1
2,60,0,11
2,62,64,1
2,62,0,11
2,60,64,1
2,60,0,71
2,61,64,193
2,61,0,11
2,62,64,1
2,62,0,23
2,59,64,469
2,59,0,23
2,59,64,1
2,59,0,23
2,59,64,1
2,59,0,47
2,59,64,1
2,59,0,47
2,59,64,1
2,59,0,23
2,59,64,1
2,59,0,23
2,59,64,1
2,59,0,47
2,59,64,1
2,59,0,47
2,59,64,1
2,59,0,23
2,59,64,1
2,59,0,23
2,59,64,1
2,59,0,47
2,61,64,1
2,61,0,47
2,61,64,1
2,61,0,23
2,57,64,1
2,57,0,47
2,57,64,1
2,57,0,23
2,56,64,1
2,56,0,47
2,56,64,1
2,56,0,23
2,52,64,1
2,52,0,47
2,52,64,1
2,52,0,23
2,52,64,1
2,52,0,47
2,50,64,1
2,50,0,47
2,48,64,1
2,48,0,71
2,64,64,721
2,64,0,71
2,57,64,1
2,57,0,71
2,57,64,1
2,57,0,47
2,59,64,1
2,59,0,71
2,61,64,1
2,61,0,23
2,64,64,97
2,64,0,23
2,57,64,1
2,57,0,23
2,57,64,1
2,57,0,95
2,57,64,1
2,57,0,71
2,61,64,1
2,61,0,23
2,64,64,145
2,64,0,23
2,64,64,1
2,64,0,23
2,57,64,1
2,57,0,95
2,57,64,1
2,57,0,119
2,61,64,1
2,61,0,23
2,64,64,121
2,64,0,23
2,57,64,1
2,57,0,95
2,57,64,1
2,57,0,143
2,61,64,1
2,61,0,23
2,54,64,625
2,54,0,23
2,57,64,1
2,57,0,23
2,54,64,1
2,54,0,23
2,50,64,1
2,50,0,23
2,49,64,1
2,49,0,23
2,52,64,1
2,52,0,23
2,49,64,1
2,49,0,23
2,45,64,1
2,45,0,23
2,61,64,49
2,61,0,47
2,57,64,1
2,57,0,47
2,61,64,49
2,61,0,23
2,59,64,1
2,59,0,47
2,57,64,1
2,57,0,71
2,61,64,73
2,61,0,23
2,57,64,1
2,57,0,47
2,61,64,97
2,61,0,23
2,59,64,1
2,59,0,47
2,57,64,1
2,57,0,71
2,56,64,49
2,56,0,23
2,56,64,1
2,56,0,23
2,56,64,1
2,56,0,47
2,59,64,1
2,59,0,47
2,56,64,1
2,56,0,23
2,56,64,1
2,56,0,23
2,56,64,1
2,56,0,47
2,59,64,1
2,59,0,47
2,54,64,1
2,54,0,23
2,54,64,1
2,54,0,23
2,57,64,1
2,57,0,47
2,60,64,1
2,60,0,47
2,60,64,1
2,60,0,23
2,57,64,1
2,57,0,47
2,57,64,1
2,57,0,23
2,55,64,1
2,55,0,47
2,55,64,1
2,55,0,23
2,52,64,1
2,52,0,47
2,52,64,1
2,52,0,23
2,52,64,1
2,52,0,47
2,50,64,1
2,50,0,47
2,49,64,1
2,49,0,47
3,61,64,1440
3,61,0,23
3,61,64,1
3,61,0,23
3,60,64,25
3,60,0,215
3,60,64,97
3,60,0,23
3,60,64,1
3,60,0,23
3,61,64,25
3,61,0,263
3,61,64,49
3,61,0,23
3,61,64,1
3,61,0,23
3,62,64,25
3,62,0,263
3,62,64,49
3,62,0,23
3,62,64,1
3,62,0,23
3,61,64,25
3,61,0,23
3,61,64,1
3,61,0,239
3,43,64,1
3,43,0,11
3,45,64,1
3,45,0,11
3,45,64,1
3,45,0,23
3,48,64,1
3,48,0,23
3,45,64,1
3,45,0,23
3,47,64,1
3,47,0,23
3,45,64,1
3,45,0,23
3,57,64,25
3,57,0,167
3,57,64,25
3,57,0,167
3,57,64,25
3,57,0,167
3,57,64,25
3,57,0,47
3,57,64,25
3,57,0,47
3,57,64,24
3,57,0,167
3,57,64,25
3,57,0,167
3,57,64,25
3,57,0,167
3,57,64,25
3,57,0,47
3,57,64,25
3,57,0,47
3,62,64,73
3,62,0,167
3,62,64,25
3,62,0,167
3,62,64,25
3,62,0,167
3,62,64,25
3,62,0,47
3,62,64,25
3,62,0,47
3,57,64,73
3,57,0,167
3,57,64,25
3,57,0,167
3,57,64,25
3,57,0,167
3,57,64,25
3,57,0,47
3,57,64,25
3,57,0,47
3,62,64,1249
3,62,0,23
3,61,64,25
3,61,0,23
3,61,64,1
3,61,0,23
3,61,64,1
3,61,0,23
3,61,64,1
3,61,0,203
3,57,64,37
3,57,0,167
3,57,64,25
3,57,0,167
3,57,64,25
3,57,0,167
3,57,64,25
3,57,0,47
3,57,64,25
3,57,0,47
3,57,64,73
3,57,0,167
3,57,64,25
3,57,0,167
3,57,64,25
3,57,0,167
3,57,64,25
3,57,0,47
3,57,64,25
3,57,0,47
3,62,64,73
3,62,0,167
3,62,64,25
3,62,0,167
3,62,64,25
3,62,0,167
3,62,64,25
3,62,0,47
3,62,64,25
3,62,0,47
3,57,64,73
3,57,0,167
3,57,64,25
3,57,0,167
3,57,64,25
3,57,0,167
3,57,64,25
3,57,0,47
3,57,64,25
3,57,0,47
3,61,64,865
3,61,0,23
3,61,64,25
3,61,0,23
3,61,64,1
3,61,0,23
3,61,64,25
3,61,0,251
3,61,64,13
3,61,0,23
3,61,64,25
3,61,0,23
3,61,64,1
3,61,0,23
3,61,64,25
3,61,0,215
3,60,64,217
3,60,0,23
3,60,64,25
3,60,0,23
3,57,64,1
3,57,0,23
3,55,64,1
3,55,0,23
3,57,64,1
3,57,0,23
3,55,64,1
3,55,0,23
3,57,64,1
3,57,0,71
3,60,64,145
3,60,0,23
3,60,64,25
3,60,0,23
3,57,64,1
3,57,0,23
3,55,64,1
3,55,0,23
3,57,64,1
3,57,0,23
3,55,64,1
3,55,0,23
3,57,64,1
3,57,0,47
3,60,64,169
3,60,0,23
3,60,64,25
3,60,0,23
3,57,64,1
3,57,0,23
3,55,64,1
3,55,0,23
3,57,64,1
3,57,0,23
3,55,64,1
3,55,0,23
3,57,64,1
3,57,0,47
3,60,64,169
3,60,0,23
3,60,64,25
3,60,0,23
3,57,64,1
3,57,0,23
3,55,64,1
3,55,0,23
3,57,64,1
3,57,0,23
3,55,64,1
3,55,0,23
3,57,64,1
3,57,0,47
3,60,64,169
3,60,0,23
3,60,64,25
3,60,0,23
3,57,64,1
3,57,0,23
3,55,64,1
3,55,0,23
3,57,64,1
3,57,0,23
3,55,64,1
3,55,0,23
3,57,64,1
3,57,0,47
3,48,64,97
3,48,0,11
3,45,64,1
3,45,0,11
3,43,64,1
3,43,0,23
3,48,64,1
3,48,0,11
3,45,64,1
3,45,0,11
3,43,64,1
3,43,0,23
3,48,64,1
3,48,0,11
3,45,64,1
3,45,0,11
3,43,64,1
3,43,0,23
3,48,64,1
3,48,0,11
3,45,64,1
3,45,0,11
3,43,64,1
3,43,0,23
3,48,64,1
3,48,0,11
3,45,64,1
3,45,0,11
3,43,64,1
3,43,0,23
3,48,64,1
3,48,0,11
3,45,64,1
3,45,0,11
3,43,64,1
3,43,0,23
3,48,64,1
3,48,0,11
3,45,64,1
3,45,0,11
3,43,64,1
3,43,0,23
3,48,64,1
3,48,0,11
3,45,64,1
3,45,0,11
3,48,64,1
3,48,0,23
3,48,64,1
3,48,0,11
3,45,64,1
3,45,0,11
3,43,64,1
3,43,0,23
3,48,64,1
3,48,0,11
3,45,64,1
3,45,0,11
3,45,64,1
3,45,0,71
3,52,64,1
3,52,0,11
3,50,64,1
3,50,0,11
3,45,64,1
3,45,0,23
3,48,64,1
3,48,0,11
3,45,64,1
3,45,0,11
3,43,64,1
3,43,0,23
3,45,64,1
3,45,0,11
3,43,64,1
3,43,0,11
3,45,64,1
3,45,0,23
3,48,64,1
3,48,0,11
3,45,64,1
3,45,0,11
3,43,64,1
3,43,0,11
3,52,64,1
3,52,0,11
3,50,64,1
3,50,0,11
3,45,64,1
3,45,0,11
3,48,64,1
3,48,0,23
3,45,64,1
3,45,0,11
3,48,64,1
3,48,0,11
3,50,64,1
3,50,0,23
3,52,64,1
3,52,0,11
3,50,64,1
3,50,0,11
3,49,64,1
3,49,0,23
3,57,64,1
3,57,0,11
3,55,64,1
3,55,0,11
3,52,64,1
3,52,0,23
3,61,64,1
3,61,0,11
3,55,64,1
3,55,0,11
3,50,64,1
3,50,0,23
3,61,64,1
3,61,0,11
3,55,64,1
3,55,0,11
3,50,64,1
3,50,0,23
3,55,64,1
3,55,0,23
3,57,64,1
3,57,0,23
3,59,64,1
3,59,0,11
3,61,64,1
3,61,0,23
3,59,64,1
3,59,0,11
3,60,64,1
3,60,0,23
3,61,64,1
3,61,0,23
3,69,64,1
3,69,0,23
3,64,64,1
3,64,0,23
3,62,64,1
3,62,0,11
3,60,64,1
3,60,0,11
3,57,64,1
3,57,0,23
3,62,64,1
3,62,0,23
3,60,64,1
3,60,0,11
3,61,64,1
3,61,0,11
3,57,64,1
3,57,0,23
3,55,64,1
3,55,0,23
3,57,64,1
3,57,0,23
3,60,64,1
3,60,0,23
3,64,64,1
3,64,0,47
3,69,64,1
3,69,0,23
3,64,64,1
3,64,0,23
3,64,64,1
3,64,0,23
3,69,64,1
3,69,0,23
3,64,64,1
3,64,0,11
3,67,64,1
3,67,0,11
3,64,64,1
3,64,0,11
3,62,64,1
3,62,0,11
3,68,64,1
3,68,0,11
3,65,64,1
3,65,0,11
3,63,64,1
3,63,0,23
3,69,64,1
3,69,0,11
3,66,64,1
3,66,0,11
3,64,64,1
3,64,0,23
3,70,64,1
3,70,0,11
3,67,64,1
3,67,0,11
3,65,64,1
3,65,0,23
3,68,64,1
3,68,0,11
3,71,64,1
3,71,0,11
3,68,64,1
3,68,0,11
3,66,64,1
3,66,0,11
3,69,64,1
3,69,0,11
3,72,64,1
3,72,0,11
3,69,64,1
3,69,0,11
3,67,64,1
3,67,0,11
3,69,64,1
3,69,0,23
3,67,64,1
3,67,0,23
3,69,64,1
3,69,0,23
3,72,64,1
3,72,0,11
3,74,64,1
3,74,0,11
3,76,64,1
3,76,0,23
3,74,64,1
3,74,0,11
3,73,64,1
3,73,0,11
3,74,64,1
3,74,0,11
3,76,64,1
3,76,0,35
3,69,64,1
3,69,0,23
3,67,64,1
3,67,0,23
3,72,64,1
3,72,0,23
