track,note,velocity,time
1,67,115,4320
1,67,0,96
1,69,115,0
1,69,0,160
1,67,115,128
1,67,0,94
1,69,115,2
1,69,0,94
1,67,115,2
1,67,0,94
1,69,115,2
1,69,0,142
1,72,115,2
1,72,0,142
1,69,115,2
1,69,0,46
1,67,115,2
1,67,0,46
1,69,115,2
1,69,0,46
1,69,115,2
1,69,0,46
1,69,115,2
1,69,0,94
1,69,115,2
1,69,0,94
1,72,115,2
1,72,0,256
1,72,115,320
1,72,0,94
1,69,115,2
1,69,0,94
1,67,115,2
1,67,0,94
1,69,115,2
1,69,0,142
1,72,115,2
1,72,0,94
1,67,115,2
1,67,0,46
1,67,115,2
1,67,0,46
1,67,115,2
1,67,0,46
1,69,115,2
1,69,0,46
1,69,115,2
1,69,0,46
1,69,115,2
1,69,0,46
1,69,115,2
1,69,0,46
1,69,115,2
1,69,0,46
1,69,115,2
1,69,0,46
1,69,115,2
1,69,0,46
1,64,115,2
1,64,0,46
1,72,115,482
1,72,0,94
1,69,115,2
1,69,0,94
1,67,115,2
1,67,0,94
1,69,115,2
1,69,0,142
1,72,115,2
1,72,0,94
1,67,115,2
1,67,0,46
1,69,115,2
1,69,0,46
1,67,115,2
1,67,0,46
1,69,115,2
1,69,0,46
1,69,115,2
1,69,0,46
1,69,115,2
1,69,0,46
1,69,115,2
1,69,0,46
1,69,115,2
1,69,0,94
1,69,115,2
1,69,0,46
1,73,115,2
1,76,115,96
1,73,0,0
1,78,115,96
1,76,0,0
1,78,0,142
1,72,115,194
1,72,0,94
1,69,115,2
1,69,0,94
1,67,115,2
1,67,0,94
1,69,115,2
1,69,0,142
1,72,115,2
1,72,0,94
1,67,115,2
1,67,0,46
1,69,115,2
1,69,0,46
1,67,115,2
1,67,0,46
1,69,115,2
1,69,0,46
1,69,115,2
1,69,0,46
1,69,115,2
1,69,0,46
1,69,115,2
1,69,0,46
1,74,115,2
1,74,0,94
1,69,115,2
1,69,0,46
1,67,115,2
1,67,0,142
1,69,115,3074
1,69,0,256
1,72,115,128
1,72,0,94
1,69,115,2
1,69,0,94
1,67,115,2
1,67,0,94
1,69,115,2
1,69,0,142
1,72,115,2
1,72,0,94
1,67,115,2
1,67,0,46
1,69,115,2
1,69,0,46
1,69,115,2
1,69,0,46
1,69,115,2
1,69,0,46
1,69,115,2
1,69,0,46
1,69,115,2
1,69,0,46
1,69,115,2
1,69,0,46
1,69,115,2
1,69,0,94
1,69,115,2
1,69,0,46
1,72,115,2
1,72,0,208
1,72,115,320
1,72,0,94
1,69,115,2
1,69,0,94
1,67,115,2
1,67,0,94
1,69,115,2
1,69,0,142
1,72,115,2
1,72,0,94
1,67,115,2
1,67,0,46
1,69,115,2
1,69,0,46
1,67,115,2
1,67,0,46
1,69,115,2
1,69,0,46
1,69,115,2
1,69,0,46
1,69,115,2
1,69,0,46
1,69,115,2
1,69,0,46
1,69,115,2
1,69,0,94
1,67,115,2
1,67,0,46
1,64,115,2
1,64,0,208
1,72,115,320
1,72,0,94
1,69,115,2
1,69,0,94
1,67,115,2
1,67,0,94
1,69,115,2
1,69,0,142
1,72,115,2
1,72,0,94
1,67,115,2
1,67,0,46
1,69,115,2
1,69,0,46
1,67,115,2
1,67,0,46
1,69,115,2
1,69,0,46
1,69,115,2
1,69,0,46
1,69,115,2
1,69,0,46
1,69,115,2
1,69,0,46
1,69,115,2
1,69,0,94
1,69,115,2
1,69,0,46
1,73,115,2
1,76,115,96
1,73,0,0
1,76,0,96
1,78,115,0
1,78,0,142
1,72,115,194
1,72,0,94
1,69,115,2
1,69,0,94
1,67,115,2
1,67,0,94
1,69,115,2
1,69,0,142
1,72,115,2
1,72,0,94
1,76,115,2
1,76,0,46
1,76,115,2
1,76,0,46
1,76,115,2
1,76,0,46
1,78,115,2
1,78,0,94
1,78,115,2
1,78,0,94
1,76,115,50
1,76,0,46
1,76,115,2
1,76,0,46
1,76,115,2
1,76,0,46
1,83,115,2
1,83,0,94
1,76,115,2
1,76,0,94
1,76,115,2
1,76,0,94
1,76,115,2
1,76,0,94
1,78,115,2
1,78,0,96
1,76,115,0
1,76,0,256
1,76,115,224
1,76,0,46
1,76,115,2
1,76,0,46
1,76,115,2
1,76,0,46
1,76,115,2
1,76,0,46
1,78,115,2
1,78,0,96
1,76,115,0
1,76,0,256
1,78,115,416
1,78,0,96
1,76,115,0
1,76,0,256
1,76,115,224
1,76,0,46
1,76,115,2
1,76,0,46
1,76,115,2
1,76,0,46
1,76,115,2
1,76,0,46
1,78,115,2
1,78,0,96
1,76,115,0
1,76,0,256
1,72,115,512
1,72,0,94
1,69,115,2
1,69,0,94
1,67,115,2
1,67,0,94
1,69,115,2
1,69,0,142
1,72,115,2
1,72,0,94
1,67,115,2
1,67,0,46
1,69,115,2
1,69,0,46
1,69,115,2
1,69,0,46
1,69,115,2
1,69,0,46
1,69,115,2
1,69,0,46
1,69,115,2
1,69,0,46
1,69,115,2
1,69,0,46
1,69,115,2
1,69,0,94
1,69,115,2
1,69,0,46
1,72,115,2
1,72,0,208
1,72,115,320
1,72,0,94
1,69,115,2
1,69,0,94
1,67,115,2
1,67,0,94
1,69,115,2
1,69,0,142
1,72,115,2
1,72,0,94
1,67,115,2
1,67,0,46
1,69,115,2
1,69,0,46
1,67,115,2
1,67,0,46
1,69,115,2
1,69,0,46
1,69,115,2
1,69,0,46
1,69,115,2
1,69,0,46
1,69,115,2
1,69,0,46
1,69,115,2
1,69,0,94
1,67,115,2
1,67,0,46
1,64,115,2
1,64,0,208
1,72,115,320
1,72,0,94
1,69,115,2
1,69,0,94
1,67,115,2
1,67,0,94
1,69,115,2
1,69,0,142
1,72,115,2
1,72,0,94
1,67,115,2
1,67,0,46
1,69,115,2
1,69,0,46
1,67,115,2
1,67,0,46
1,69,115,2
1,69,0,46
1,69,115,2
1,69,0,46
1,69,115,2
1,69,0,46
1,69,115,2
1,69,0,46
1,69,115,2
1,69,0,94
1,69,115,2
1,69,0,46
1,73,115,2
1,76,115,96
1,73,0,0
1,78,115,96
1,76,0,0
1,78,0,142
1,72,115,194
1,72,0,94
1,69,115,2
1,69,0,94
1,67,115,2
1,67,0,94
1,69,115,2
1,69,0,142
1,72,115,2
1,72,0,94
1,76,115,2
1,76,0,46
1,76,115,2
1,76,0,46
1,76,115,2
1,76,0,46
1,78,115,2
1,78,0,94
1,78,115,2
1,78,0,94
1,76,115,50
1,76,0,46
1,76,115,2
1,76,0,46
1,76,115,2
1,76,0,46
1,83,115,2
1,83,0,94
1,76,115,2
1,76,0,94
1,76,115,2
1,76,0,94
1,76,115,2
1,76,0,94
1,78,115,2
1,78,0,96
1,76,115,0
1,76,0,256
1,76,115,224
1,76,0,46
1,76,115,2
1,76,0,46
1,76,115,2
1,76,0,46
1,76,115,2
1,76,0,46
1,78,115,2
1,78,0,96
1,76,115,0
1,76,0,256
1,78,115,416
1,76,115,96
1,78,0,0
1,76,0,256
1,76,115,224
1,76,0,46
1,76,115,2
1,76,0,46
1,76,115,2
1,76,0,46
1,76,115,2
1,76,0,46
1,78,115,2
1,76,115,96
1,78,0,0
1,76,0,256
1,57,115,1088
1,67,115,48
1,57,0,0
1,67,0,46
1,64,115,674
1,64,0,48
1,67,115,0
1,67,0,46
1,64,115,674
1,67,115,48
1,64,0,0
1,67,0,46
1,78,115,3842
1,76,115,96
1,78,0,0
1,76,0,256
1,76,115,224
1,76,0,46
1,76,115,2
1,76,0,46
1,76,115,2
1,76,0,46
1,76,115,2
1,76,0,46
1,78,115,2
1,78,0,96
1,76,115,0
1,76,0,256
1,78,115,416
1,78,0,96
1,76,115,0
1,76,0,256
1,76,115,224
1,76,0,46
1,76,115,2
1,76,0,46
1,76,115,2
1,76,0,46
1,76,115,2
1,76,0,46
1,78,115,2
1,78,0,96
1,76,115,0
1,76,0,256
1,79,115,416
1,77,115,192
1,79,0,0
1,77,0,160
1,73,115,80
1,73,0,142
1,72,115,2
1,72,0,160
1,70,115,32
1,70,0,96
1,67,115,0
1,67,0,256
1,72,115,80
1,72,0,46
1,72,115,2
1,72,0,46
1,72,115,2
1,72,0,46
1,74,115,2
1,74,0,142
1,72,115,2
1,72,0,48
1,71,115,0
1,71,0,160
1,67,115,416
1,67,0,46
1,67,115,2
1,67,0,94
1,67,115,2
1,67,0,208
1,79,115,608
1,77,115,192
1,79,0,0
1,77,0,192
1,74,115,0
1,72,115,192
1,74,0,0
1,72,0,160
1,70,115,32
1,70,0,192
1,67,115,0
1,67,0,94
1,72,115,146
1,72,0,46
1,70,115,2
1,70,0,46
1,72,115,2
1,72,0,46
1,72,115,2
1,72,0,94
1,70,115,2
1,70,0,94
1,65,115,434
1,65,0,46
1,65,115,2
1,65,0,46
1,65,115,2
1,65,0,46
1,67,115,2
1,67,0,94
1,65,115,2
1,65,0,94
1,79,115,386
1,79,0,192
1,77,115,0
1,77,0,160
1,72,115,128
1,72,0,94
1,69,115,2
1,69,0,94
1,67,115,2
1,67,0,94
1,69,115,2
1,69,0,142
1,72,115,2
1,72,0,94
1,67,115,2
1,67,0,46
1,69,115,2
1,69,0,46
1,69,115,2
1,69,0,46
1,69,115,2
1,69,0,46
1,69,115,2
1,69,0,46
1,69,115,2
1,69,0,46
1,69,115,2
1,69,0,46
1,69,115,2
1,69,0,94
1,69,115,2
1,69,0,46
1,72,115,2
1,72,0,208
1,72,115,320
1,72,0,94
1,69,115,2
1,69,0,94
1,67,115,2
1,67,0,94
1,69,115,2
1,69,0,142
1,72,115,2
1,72,0,94
1,67,115,2
1,67,0,46
1,69,115,2
1,69,0,46
1,67,115,2
1,67,0,46
1,69,115,2
1,69,0,46
1,69,115,2
1,69,0,46
1,69,115,2
1,69,0,46
1,69,115,2
1,69,0,46
1,69,115,2
1,69,0,94
1,67,115,2
1,67,0,46
1,64,115,2
1,64,0,208
1,72,115,320
1,72,0,94
1,69,115,2
1,69,0,94
1,67,115,2
1,67,0,94
1,69,115,2
1,69,0,142
1,72,115,2
1,72,0,94
1,67,115,2
1,67,0,46
1,69,115,2
1,69,0,46
1,67,115,2
1,67,0,46
1,69,115,2
1,69,0,46
1,69,115,2
1,69,0,46
1,69,115,2
1,69,0,46
1,69,115,2
1,69,0,46
1,69,115,2
1,69,0,94
1,69,115,2
1,69,0,46
1,73,115,2
1,76,115,96
1,73,0,0
1,78,115,96
1,76,0,0
1,78,0,142
1,72,115,194
1,72,0,94
1,69,115,2
1,69,0,94
1,67,115,2
1,67,0,94
1,69,115,2
1,69,0,142
1,72,115,2
1,72,0,94
1,76,115,2
1,76,0,46
1,76,115,2
1,76,0,46
1,76,115,2
1,76,0,46
1,78,115,2
1,78,0,94
1,78,115,2
1,78,0,94
1,76,115,50
1,76,0,46
1,76,115,2
1,76,0,46
1,76,115,2
1,76,0,46
1,83,115,2
1,83,0,94
1,76,115,2
1,76,0,94
1,76,115,2
1,76,0,94
1,76,115,2
1,76,0,94
1,81,115,290
1,81,0,190
1,76,115,2
1,76,0,94
1,72,115,2
1,71,115,48
1,72,0,0
1,71,0,46
1,69,115,2
1,69,0,94
1,81,115,290
1,81,0,190
1,76,115,2
1,76,0,94
1,72,115,2
1,71,115,48
1,72,0,0
1,71,0,46
1,69,115,2
1,69,0,94
1,81,115,290
1,81,0,190
1,76,115,2
1,76,0,94
1,72,115,2
1,72,0,48
1,71,115,0
1,71,0,46
1,69,115,2
1,69,0,94
1,81,115,290
1,81,0,190
1,76,115,2
1,76,0,94
1,72,115,2
1,71,115,48
1,72,0,0
1,71,0,46
1,69,115,2
1,69,0,94
1,79,115,98
1,77,115,192
1,79,0,0
1,77,0,96
1,74,115,0
1,72,115,192
1,74,0,0
1,70,115,192
1,72,0,0
1,70,0,160
1,72,115,320
1,72,0,46
1,70,115,2
1,70,0,46
1,72,115,2
1,72,0,94
1,72,115,2
1,72,0,94
1,70,115,2
1,70,0,160
1,67,115,320
1,67,0,94
1,65,115,2
1,65,0,94
1,67,115,2
1,67,0,94
1,67,115,2
1,67,0,160
1,79,115,608
1,77,115,192
1,79,0,0
1,74,115,192
1,77,0,0
1,74,0,192
1,72,115,0
1,72,0,192
1,70,115,0
1,70,0,160
1,72,115,224
1,72,0,94
1,72,115,2
1,72,0,46
1,70,115,2
1,70,0,46
1,72,115,2
1,72,0,46
1,72,115,2
1,72,0,142
1,70,115,2
1,70,0,160
1,67,115,224
1,67,0,160
1,65,115,32
1,65,0,46
1,67,115,2
1,67,0,142
1,67,115,2
1,67,0,160
1,81,115,608
1,81,0,144
1,79,115,0
1,77,115,144
1,79,0,0
1,77,0,48
1,74,115,0
1,72,115,48
1,74,0,0
1,72,0,336
1,81,115,48
1,81,0,144
1,79,115,0
1,79,115,144
1,79,0,0
1,77,115,96
1,79,0,0
1,77,0,48
1,74,115,0
1,74,0,48
1,72,115,0
1,72,0,238
1,74,115,2
1,74,0,46
1,76,115,2
1,76,0,142
1,76,115,2
1,76,0,208
1,67,115,320
1,74,115,0
1,74,0,94
1,67,0,0
1,76,115,2
1,69,115,0
1,76,0,46
1,69,0,0
1,74,115,2
1,67,115,0
1,67,0,142
1,74,0,0
1,69,115,2
1,76,115,0
1,69,0,160
1,76,0,0
1,81,115,416
1,79,115,144
1,81,0,0
1,77,115,144
1,79,0,0
1,77,0,48
1,74,115,0
1,72,115,48
1,74,0,0
1,72,0,336
1,81,115,48
1,81,0,144
1,79,115,0
1,79,0,128
1,79,115,16
1,77,115,96
1,79,0,0
1,77,0,48
1,74,115,0
1,72,115,48
1,74,0,0
1,72,0,238
1,74,115,2
1,74,0,46
1,76,115,2
1,76,0,142
1,76,115,2
1,76,0,208
1,74,115,320
1,67,115,0
1,74,0,94
1,67,0,0
1,69,115,2
1,76,115,0
1,69,0,46
1,76,0,0
1,74,115,2
1,67,115,0
1,67,0,142
1,74,0,0
1,76,115,2
1,69,115,0
1,76,0,160
1,69,0,0
1,81,115,416
1,81,0,144
1,79,115,0
1,77,115,144
1,79,0,0
1,77,0,48
1,74,115,0
1,72,115,48
1,74,0,0
1,72,0,336
1,81,115,48
1,81,0,144
1,79,115,0
1,79,0,128
1,79,115,16
1,77,115,96
1,79,0,0
1,77,0,48
1,74,115,0
1,74,0,48
1,72,115,0
1,72,0,238
1,74,115,2
1,74,0,46
1,76,115,2
1,76,0,142
1,76,115,2
1,76,0,208
1,74,115,320
1,67,115,0
1,67,0,94
1,74,0,0
1,76,115,2
1,69,115,0
1,76,0,46
1,69,0,0
1,74,115,2
1,67,115,0
1,67,0,142
1,74,0,0
1,76,115,2
1,69,115,0
1,76,0,160
1,69,0,0
1,81,115,416
1,79,115,144
1,81,0,0
1,77,115,144
1,79,0,0
1,77,0,48
1,74,115,0
1,72,115,48
1,74,0,0
1,72,0,336
1,81,115,48
1,81,0,144
1,79,115,0
1,79,0,128
1,79,115,16
1,77,115,96
1,79,0,0
1,77,0,48
1,74,115,0
1,72,115,48
1,74,0,0
1,72,0,238
1,74,115,2
1,74,0,46
1,76,115,2
1,76,0,142
1,76,115,2
1,76,0,208
1,67,115,320
1,74,115,0
1,67,0,94
1,74,0,0
1,76,115,2
1,69,115,0
1,76,0,46
1,69,0,0
1,67,115,2
1,74,115,0
1,74,0,142
1,67,0,0
1,69,115,2
1,76,115,0
1,69,0,160
1,76,0,0
1,81,115,416
1,81,0,144
1,79,115,0
1,77,115,144
1,79,0,0
1,77,0,48
1,74,115,0
1,72,115,48
1,74,0,0
1,72,0,336
1,81,115,48
1,81,0,144
1,79,115,0
1,79,0,124
1,79,115,20
1,77,115,96
1,79,0,0
1,77,0,48
1,74,115,0
1,74,0,48
1,72,115,0
1,72,0,238
1,74,115,2
1,74,0,46
1,76,115,2
1,76,0,142
1,76,115,2
1,76,0,208
1,74,115,320
1,67,115,0
1,67,0,94
1,74,0,0
1,69,115,2
1,76,115,0
1,69,0,46
1,76,0,0
1,74,115,2
1,67,115,0
1,74,0,142
1,67,0,0
1,69,115,2
1,76,115,0
