track,note,velocity,time
1,69,72,12048
1,69,0,84
1,71,72,12
1,71,0,84
1,72,72,12
1,72,0,180
1,71,72,12
1,71,0,36
1,69,72,12
1,69,0,84
1,71,72,12
1,71,0,132
1,69,72,204
1,69,0,36
1,71,72,12
1,71,0,36
1,72,72,12
1,72,0,36
1,74,72,12
1,74,0,228
1,72,72,12
1,72,0,84
1,71,72,12
1,69,72,48
1,71,0,0
1,69,0,132
1,72,72,12
1,72,0,84
1,74,72,12
1,74,0,84
1,76,72,12
1,76,0,132
1,74,72,12
1,74,0,132
1,72,72,12
1,72,0,84
1,71,72,12
1,71,0,84
1,69,72,12
1,69,0,180
1,67,72,60
1,67,0,36
1,67,72,12
1,67,0,84
1,69,72,12
1,69,0,276
1,69,72,204
1,69,0,84
1,71,72,12
1,71,0,84
1,72,72,12
1,72,0,180
1,71,72,12
1,71,0,84
1,69,72,12
1,69,0,36
1,71,72,12
1,71,0,132
1,69,72,204
1,69,0,36
1,71,72,12
1,71,0,36
1,72,72,12
1,72,0,132
1,74,72,12
1,74,0,132
1,72,72,12
1,72,0,84
1,71,72,12
1,69,72,48
1,71,0,0
1,69,0,132
1,72,72,60
1,72,0,36
1,74,72,12
1,74,0,36
1,76,72,12
1,76,0,180
1,74,72,12
1,74,0,132
1,72,72,12
1,72,0,84
1,71,72,12
1,71,0,180
1,69,72,12
1,69,0,84
1,67,72,12
1,67,0,84
1,67,72,12
1,69,72,96
1,67,0,0
1,69,0,84
1,69,72,12
1,69,0,180
1,72,72,588
1,76,72,84
1,72,0,0
1,74,72,108
1,76,0,0
1,74,0,372
1,74,72,12
1,72,72,240
1,74,0,0
1,71,72,48
1,72,0,0
1,72,72,96
1,71,0,0
1,69,72,96
1,72,0,0
1,69,0,84
1,69,72,12
1,69,0,84
1,71,72,12
1,71,0,84
1,72,72,12
1,74,72,96
1,72,0,0
1,74,0,84
1,76,72,12
1,76,0,84
1,74,72,12
1,74,0,84
1,74,72,12
1,72,72,48
1,74,0,0
1,72,0,132
1,71,72,12
1,71,0,132
1,67,72,12
1,67,0,36
1,67,72,12
1,67,0,84
1,69,72,12
1,69,0,276
1,69,72,204
1,69,0,84
1,71,72,12
1,71,0,84
1,72,72,12
1,72,0,180
1,71,72,12
1,71,0,84
1,69,72,12
1,69,0,36
1,71,72,12
1,69,72,48
1,71,0,0
1,69,0,180
1,69,72,108
1,69,0,36
1,71,72,12
1,71,0,36
1,72,72,12
1,72,0,180
1,74,72,12
1,74,0,36
1,72,72,12
1,72,0,84
1,71,72,12
1,69,72,48
1,71,0,0
1,69,0,180
1,72,72,12
1,72,0,84
1,74,72,12
1,74,0,84
1,76,72,12
1,76,0,132
1,74,72,12
1,74,0,132
1,72,72,12
1,72,0,84
1,71,72,12
1,71,0,132
1,69,72,12
1,69,0,132
1,67,72,12
1,67,0,84
1,67,72,12
1,67,0,84
1,69,72,12
1,69,0,84
1,69,72,12
1,69,0,180
1,69,72,204
1,69,0,84
1,71,72,12
1,71,0,84
1,72,72,12
1,72,0,180
1,74,72,12
1,74,0,84
1,72,72,12
1,72,0,36
1,71,72,12
1,69,72,48
1,71,0,0
1,69,0,180
1,69,72,12
1,69,0,84
1,71,72,12
1,71,0,84
1,72,72,12
1,72,0,132
1,74,72,12
1,74,0,132
1,72,72,12
1,72,0,84
1,71,72,12
1,69,72,48
1,71,0,0
1,69,0,132
1,72,72,12
1,72,0,84
1,74,72,12
1,74,0,84
1,76,72,12
1,76,0,132
1,74,72,12
1,74,0,84
1,72,72,12
1,72,0,132
1,71,72,12
1,69,72,48
1,71,0,0
1,69,0,84
1,69,72,60
1,69,0,84
1,67,72,12
1,67,0,84
1,67,72,12
1,67,0,84
1,69,72,12
1,69,0,84
1,69,72,12
1,69,0,168
1,72,90,4248
1,72,0,468
1,72,90,12
1,72,0,36
1,71,90,12
1,71,0,132
1,72,90,12
1,72,0,84
1,71,90,12
1,71,0,84
1,69,90,12
1,69,0,276
1,72,90,1164
1,72,0,948
1,71,90,12
1,71,0,84
1,72,90,12
1,72,0,36
1,71,90,12
1,69,90,96
1,71,0,0
1,69,0,48
1,69,90,12
1,69,90,276
1,69,0,0
1,69,0,132
1,67,90,12
1,67,0,36
1,69,90,12
1,69,0,84
1,67,90,12
1,67,0,36
1,69,90,12
1,69,0,84
1,67,90,12
1,67,0,36
1,69,90,12
1,69,0,276
1,69,90,588
1,69,0,84
1,71,90,12
1,71,0,84
1,72,90,12
1,72,0,180
1,71,90,12
1,71,0,36
1,69,90,12
1,69,0,84
1,71,90,12
1,71,0,228
1,69,90,60
1,69,0,36
1,71,90,12
1,71,0,84
1,72,90,12
1,72,0,180
1,74,90,12
1,74,0,84
1,72,90,12
1,72,0,36
1,71,90,12
1,69,90,48
1,71,0,0
1,69,0,180
1,72,90,12
1,72,0,84
1,74,90,12
1,74,0,84
1,76,90,12
1,76,0,180
1,74,90,12
1,74,0,84
1,72,90,12
1,72,0,84
1,71,90,12
1,71,0,84
1,69,90,12
1,69,0,84
1,67,90,12
1,67,0,84
1,67,90,12
1,67,0,180
1,69,90,12
1,69,0,276
1,69,90,204
1,69,0,84
1,71,90,12
1,71,0,84
1,72,90,12
1,72,0,180
1,74,90,12
1,74,0,84
1,72,90,12
1,72,0,84
1,71,90,12
1,71,0,36
1,69,90,12
1,69,0,204
1,69,90,12
1,69,0,48
1,71,90,12
1,71,0,48
1,72,90,12
1,72,0,180
1,74,90,12
1,74,0,84
1,72,90,12
1,72,0,36
1,71,90,12
1,69,90,48
1,71,0,0
1,69,0,180
1,72,90,12
1,72,0,84
1,74,90,12
1,74,0,84
1,76,90,12
1,76,0,180
1,74,90,12
1,74,0,84
1,72,90,12
1,72,0,84
1,71,90,12
1,71,0,84
1,69,90,12
1,69,0,84
1,67,90,12
1,67,0,84
1,67,90,12
1,67,0,180
1,69,90,12
1,69,0,276
1,72,90,1932
1,72,0,468
1,72,90,12
1,72,0,36
1,71,90,12
1,71,0,132
1,72,90,12
1,72,0,84
1,71,90,12
1,71,0,84
1,69,90,12
1,69,0,276
1,72,90,1164
1,72,0,948
1,71,90,12
1,71,0,84
1,72,90,12
1,72,0,36
1,71,90,12
1,69,90,96
1,71,0,0
1,69,0,48
1,69,90,12
1,69,90,276
1,69,0,0
1,69,0,132
1,67,90,12
1,67,0,36
1,69,90,12
1,69,0,84
1,67,90,12
1,67,0,36
1,69,90,12
1,69,0,84
1,67,90,12
1,67,0,36
1,69,90,12
1,69,0,276
1,69,90,588
1,69,0,84
1,71,90,12
1,71,0,84
1,72,90,12
1,72,0,180
1,71,90,12
1,71,0,36
1,69,90,12
1,69,0,84
1,71,90,12
1,71,0,228
1,69,90,60
1,69,0,36
1,71,90,12
1,71,0,84
1,72,90,12
1,72,0,180
1,74,90,12
1,74,0,84
1,72,90,12
1,72,0,36
1,71,90,12
1,69,90,48
1,71,0,0
1,69,0,180
1,72,90,12
1,72,0,84
1,74,90,12
1,74,0,84
1,76,90,12
1,76,0,180
1,74,90,12
1,74,0,84
1,72,90,12
1,72,0,84
1,71,90,12
1,71,0,84
1,69,90,12
1,69,0,84
1,67,90,12
1,67,0,84
1,67,90,12
1,67,0,180
1,69,90,12
1,69,0,276
1,69,90,204
1,69,0,84
1,71,90,12
1,71,0,84
1,72,90,12
1,72,0,180
1,74,90,12
1,74,0,84
1,72,90,12
1,72,0,84
1,71,90,12
1,71,0,36
1,69,90,12
1,69,0,204
1,69,90,12
1,69,0,48
1,71,90,12
1,71,0,48
1,72,90,12
1,72,0,180
1,74,90,12
1,74,0,84
1,72,90,12
1,72,0,36
1,71,90,12
1,69,90,48
1,71,0,0
1,69,0,180
1,72,90,12
1,72,0,84
1,74,90,12
1,74,0,84
1,76,90,12
1,76,0,180
1,74,90,12
1,74,0,84
1,72,90,12
1,72,0,84
1,71,90,12
1,71,0,84
1,69,90,12
1,69,0,84
1,67,90,12
1,67,0,84
1,67,90,12
1,67,0,180
1,69,90,12
1,69,0,276
1,72,90,5004
1,74,90,48
1,72,0,0
1,72,90,48
1,74,0,0
1,74,90,48
1,72,0,0
1,72,90,48
1,74,0,0
1,74,90,48
1,72,0,0
1,72,90,48
1,74,0,0
1,74,90,48
1,72,0,0
1,72,90,48
1,74,0,0
1,72,0,132
1,71,90,12
1,71,0,84
1,69,90,12
1,69,0,132
1,76,90,1644
1,76,0,84
1,74,90,12
1,74,0,84
1,72,90,12
1,72,0,84
1,74,90,12
1,74,0,84
1,72,90,12
1,72,0,84
1,69,90,12
1,69,0,84
1,67,90,12
1,67,0,36
1,69,90,12
1,69,0,132
1,72,90,12
1,72,0,132
1,69,90,12
1,69,0,36
1,69,90,12
1,69,0,36
1,67,90,12
1,67,0,36
1,69,90,12
1,64,90,48
1,69,0,0
1,64,0,36
1,64,90,12
1,64,0,84
1,72,90,300
1,72,0,84
1,72,90,12
1,72,0,84
1,76,90,12
1,76,0,84
1,74,90,12
1,74,0,84
1,72,90,12
1,72,0,84
1,69,90,12
1,69,0,36
1,67,90,12
1,67,0,36
1,72,90,12
1,72,0,180
1,69,90,12
1,69,0,288
1,76,90,480
1,76,0,84
1,74,90,12
1,74,0,84
1,72,90,12
1,72,0,84
1,74,90,12
1,74,0,84
1,72,90,12
1,72,0,84
1,69,90,12
1,69,0,84
1,67,90,12
1,67,0,84
1,69,90,12
1,69,0,84
1,72,90,12
1,72,0,132
1,69,90,12
1,69,0,36
1,69,90,12
1,69,0,36
1,67,90,12
1,67,0,36
1,69,90,12
1,64,90,48
1,69,0,0
1,64,0,36
1,64,90,12
1,64,0,84
1,69,90,348
1,69,0,36
1,72,90,12
1,72,0,84
1,76,90,12
1,76,0,84
1,74,90,12
1,74,0,84
1,72,90,12
1,72,0,36
1,74,90,12
1,74,0,84
1,69,90,12
1,69,0,36
1,72,90,12
1,69,90,192
1,72,0,0
1,69,0,36
1,69,90,12
1,69,0,228
1,74,90,2412
1,74,0,36
1,74,90,12
1,74,0,36
1,74,90,12
1,74,0,84
1,74,90,12
1,74,0,36
1,72,90,12
1,72,0,132
1,72,90,12
1,72,0,276
1,76,90,1932
1,76,0,468
1,78,90,12
1,78,0,36
1,74,90,12
1,74,0,84
1,72,90,12
1,72,0,228
1,76,90,1548
1,76,0,84
1,74,90,12
1,74,0,84
1,72,90,12
1,72,0,84
1,74,90,12
1,74,0,84
1,72,90,12
1,72,0,84
1,69,90,12
1,69,0,84
1,67,90,12
1,67,0,84
1,69,90,12
1,69,0,84
1,72,90,12
1,72,0,84
1,69,90,60
1,69,0,36
1,69,90,12
1,69,0,36
1,67,90,12
1,67,0,36
1,69,90,12
1,69,0,36
1,64,90,12
1,64,0,132
1,69,90,300
1,69,0,36
1,72,90,12
1,72,0,132
1,76,90,12
1,76,0,84
1,74,90,12
1,74,0,84
1,72,90,12
1,72,0,36
1,69,90,12
1,69,0,84
1,67,90,12
1,67,0,36
1,72,90,12
1,72,0,180
1,69,90,12
1,69,0,192
1,76,90,576
1,76,0,84
1,74,90,12
1,74,0,84
1,72,90,12
1,72,0,84
1,74,90,12
1,74,0,84
1,72,90,12
1,72,0,84
1,69,90,12
1,69,0,84
1,67,90,12
1,67,0,36
1,69,90,12
1,69,0,132
1,72,90,12
1,72,0,84
1,69,90,108
1,69,0,36
1,67,90,12
1,67,0,36
1,69,90,12
1,69,0,36
1,64,90,12
1,64,0,132
1,72,90,300
1,72,0,84
1,72,90,12
1,72,0,84
1,76,90,12
1,76,0,84
1,74,90,12
1,74,0,84
1,72,90,12
1,72,0,84
1,69,90,12
1,69,0,84
1,72,90,12
1,72,0,180
1,69,90,12
1,69,0,84
1,69,90,12
1,69,0,948
1,71,90,12
1,71,0,516
1,69,90,12
1,69,0,216
1,81,120,21912
1,81,120,96
1,81,0,0
1,81,120,96
1,81,0,0
1,84,120,48
1,81,0,0
1,83,120,144
1,84,0,0
1,81,120,96
1,83,0,0
1,79,120,96
1,81,0,0
1,81,120,48
1,79,0,0
1,81,0,240
1,81,120,672
1,81,120,96
1,81,0,0
1,81,120,48
1,81,0,0
1,84,120,144
1,81,0,0
1,83,120,96
1,84,0,0
1,81,120,48
1,83,0,0
1,83,120,48
1,81,0,0
1,83,120,192
1,83,0,0
1,81,120,84
1,83,0,12
1,81,0,288
1,81,120,480
1,81,120,96
1,81,0,0
1,81,120,96
1,81,0,0
1,81,0,48
1,88,120,12
1,86,120,132
1,88,0,12
1,84,120,84
1,86,0,0
1,83,120,48
1,84,0,0
1,83,120,96
1,83,0,0
1,84,120,144
1,83,0,0
1,83,120,48
1,84,0,0
1,81,120,48
1,83,0,0
1,81,0,180
1,81,120,492
1,81,120,96
1,81,0,0
1,81,120,96
1,81,0,0
1,88,120,96
1,81,0,0
1,86,120,96
1,88,0,0
1,84,120,96
1,86,0,0
1,83,120,96
1,84,0,0
1,83,120,96
1,83,0,0
1,81,120,84
1,83,0,12
1,81,0,288
1,81,120,480
1,81,120,96
1,81,0,0
1,81,120,96
1,81,0,0
1,84,120,48
1,81,0,0
1,83,120,144
1,84,0,0
1,81,120,96
1,83,0,0
1,83,120,144
1,81,0,0
1,83,120,48
1,83,0,0
1,81,120,96
1,83,0,0
1,81,0,288
1,81,120,480
1,81,120,96
1,81,0,0
1,81,120,96
1,81,0,0
1,84,120,96
1,81,0,0
1,83,120,48
1,84,0,0
1,81,120,144
1,83,0,0
1,83,120,48
1,81,0,0
1,83,120,96
1,83,0,0
1,81,120,144
1,83,0,0
1,81,0,276
1,81,120,492
1,81,120,96
1,81,0,0
1,81,120,96
1,81,0,0
1,84,120,48
1,81,0,0
1,83,120,144
1,84,0,0
1,83,120,48
1,83,0,0
1,81,120,144
1,83,0,0
1,79,120,48
1,81,0,0
1,81,120,48
1,79,0,0
1,81,0,384
1,81,120,480
1,81,120,96
1,81,0,0
1,81,120,48
1,81,0,0
1,88,120,96
1,81,0,0
1,86,120,144
1,88,0,0
1,84,120,96
1,86,0,0
1,86,120,48
1,84,0,0
1,88,120,96
1,86,0,0
1,86,120,144
1,88,0,0
1,84,120,192
1,86,0,0
1,83,120,48
1,84,0,0
1,83,0,240
1,81,120,288
1,81,120,96
1,81,0,0
1,81,120,48
1,81,0,0
1,84,120,96
1,81,0,0
1,84,0,144
1,79,120,48
1,84,120,48
1,79,0,0
1,84,120,96
1,84,0,0
1,84,127,96
1,84,0,0
1,83,127,2304
1,84,0,0
1,81,127,384
1,83,0,12
1,81,0,180
1,72,100,3648
1,74,100,192
1,72,0,0
1,76,100,192
1,74,0,0
1,75,100,192
1,74,100,0
1,76,0,0
1,75,0,1
1,72,100,191
1,74,0,0
1,71,100,192
1,72,0,0
1,72,100,192
1,71,0,0
1,71,100,96
1,72,0,0
1,69,100,96
1,71,0,0
1,68,100,48
1,67,100,0
1,69,0,0
1,68,0,1
1,67,0,143
1,67,100,192
1,72,100,192
1,67,0,0
1,67,100,96
1,72,0,0
1,68,100,96
1,69,100,0
1,67,0,0
1,68,0,1
1,69,0,947
2,57,90,0
2,60,90,96
2,60,0,84
2,64,90,12
2,64,0,84
2,69,90,12
2,69,0,84
2,57,0,0
2,71,90,12
2,56,90,0
2,71,0,84
2,64,90,12
2,64,0,84
2,60,90,12
2,60,0,84
2,71,90,12
2,71,0,84
2,56,0,0
2,72,90,12
2,55,90,0
2,72,0,84
2,64,90,12
2,64,0,84
2,60,90,12
2,60,0,84
2,72,90,12
2,72,0,84
2,55,0,0
2,66,90,12
2,54,90,0
2,66,0,84
2,62,90,12
2,62,0,84
2,57,90,12
2,57,0,84
2,66,90,12
2,66,0,84
2,53,90,12
2,64,90,0
2,54,0,0
2,64,0,84
2,60,90,12
2,60,0,84
2,57,90,12
2,57,0,84
2,60,90,12
2,53,0,84
2,60,0,96
2,64,90,12
2,64,0,84
2,60,90,12
2,60,0,84
2,57,90,12
2,57,0,84
2,59,90,12
2,55,90,0
2,47,90,0
2,47,0,84
2,55,0,0
2,59,0,0
2,45,90,12
2,57,90,0
