track,note,velocity,time
1,57,77,15644
1,33,92,0
1,60,80,0
1,67,87,0
1,64,88,0
1,67,62,14
1,60,85,17
1,57,85,0
1,67,90,0
1,64,84,0
1,67,90,17
1,60,85,0
1,64,88,1
1,57,85,0
1,60,85,34
1,57,81,0
1,64,96,0
1,57,87,34
1,67,96,1
1,62,90,0
1,38,100,0
1,57,82,35
1,62,85,0
1,66,114,0
1,50,72,2
1,57,85,1
1,50,73,36
1,50,67,23
1,57,90,1
1,45,81,40
1,33,100,0
1,60,84,0
1,57,76,0
1,67,88,0
1,64,87,1
1,67,66,12
1,67,81,1
1,57,81,0
1,60,85,2
1,64,77,0
1,67,88,1
1,60,84,0
1,64,84,0
1,57,77,0
1,57,85,1
1,60,84,0
1,64,94,1
1,45,92,0
1,64,76,40
1,71,82,0
1,67,82,0
1,50,96,2
1,66,104,37
1,62,85,0
1,69,85,1
1,45,90,1
1,60,85,1
1,67,88,0
1,64,88,0
1,38,96,23
1,69,88,36
1,62,88,0
1,66,106,1
1,45,102,96
1,33,98,38
1,57,77,0
1,60,80,1
1,67,87,0
1,64,88,0
1,67,62,14
1,60,85,17
1,57,85,0
1,67,90,0
1,64,84,0
1,67,90,17
1,60,85,0
1,64,88,1
1,57,85,0
1,33,106,21
1,60,85,34
1,57,81,0
1,64,96,0
1,57,87,34
1,67,96,1
1,62,90,0
1,38,102,2
1,57,82,35
1,62,85,0
1,66,114,0
1,50,69,50
1,50,76,15
1,55,80,94
1,57,84,1
1,33,96,0
1,60,84,1
1,57,76,0
1,67,88,0
1,64,87,1
1,33,94,2
1,67,66,12
1,67,81,1
1,57,81,0
1,60,85,2
1,64,77,0
1,33,94,18
1,67,88,3
1,60,84,0
1,64,84,0
1,57,77,0
1,33,100,4
1,57,85,42
1,60,84,0
1,64,94,1
1,33,98,5
1,64,76,47
1,71,82,0
1,67,82,0
1,45,102,24
1,50,98,4
1,66,104,37
1,62,85,0
1,69,85,1
1,60,85,35
1,67,88,0
1,64,88,0
1,45,90,13
1,38,92,24
1,69,88,36
1,62,88,0
1,66,106,1
1,64,84,15
1,60,84,0
1,67,77,0
1,48,88,5
1,47,90,25
1,59,75,0
1,62,81,0
1,67,84,0
1,45,100,16
1,64,88,3
1,60,87,0
1,47,96,23
1,67,96,4
1,48,94,2
1,67,85,1
1,64,81,0
1,60,84,2
1,47,87,25
1,62,78,1
1,59,76,0
1,67,96,0
1,41,90,5
1,60,80,1
1,65,92,1
1,57,67,1
1,45,92,56
1,60,84,3
1,57,77,0
1,64,96,0
1,47,92,33
1,48,94,0
1,64,77,5
1,60,77,0
1,67,92,0
1,62,84,19
1,47,94,0
1,59,82,0
1,67,90,2
1,45,94,22
1,57,72,1
1,60,76,0
1,64,87,0
1,64,84,27
1,69,85,24
1,69,94,20
1,47,92,46
1,59,72,1
1,62,69,0
1,67,98,0
1,48,87,8
1,64,84,1
1,60,76,0
1,67,92,97
1,47,92,22
1,62,77,1
1,59,75,0
1,67,92,2
1,41,84,24
1,65,98,1
1,60,98,0
1,57,82,0
1,45,90,52
1,60,81,0
1,57,78,1
1,64,88,1
1,59,77,35
1,62,84,0
1,67,90,1
1,47,96,2
1,67,84,14
1,60,76,0
1,64,92,1
1,48,90,1
1,62,82,1
1,47,85,1
1,59,76,0
1,67,87,0
1,45,92,15
1,57,77,0
1,33,92,1
1,60,80,0
1,67,87,0
1,64,88,0
1,67,62,14
1,60,85,17
1,57,85,0
1,67,90,0
1,64,84,0
1,67,90,17
1,60,85,0
1,64,88,1
1,57,85,0
1,60,85,34
1,57,81,0
1,64,96,0
1,57,87,34
1,67,96,1
1,62,90,0
1,38,100,0
1,57,82,35
1,62,85,0
1,66,114,0
1,50,72,2
1,57,85,1
1,50,73,36
1,50,67,23
1,57,90,1
1,45,81,40
1,33,100,0
1,60,84,0
1,57,76,0
1,67,88,0
1,64,87,1
1,67,66,12
1,67,81,1
1,57,81,0
1,60,85,2
1,64,77,0
1,67,88,1
1,60,84,0
1,64,84,0
1,57,77,0
1,57,85,1
1,60,84,0
1,64,94,1
1,45,92,0
1,64,76,40
1,71,82,0
1,67,82,0
1,50,96,2
1,66,104,37
1,62,85,0
1,69,85,1
1,45,90,1
1,60,85,1
1,67,88,0
1,64,88,0
1,38,96,23
1,69,88,36
1,62,88,0
1,66,106,1
1,45,102,96
1,33,98,38
1,57,77,0
1,60,80,1
1,67,87,0
1,64,88,0
1,67,62,14
1,60,85,17
1,57,85,0
1,67,90,0
1,64,84,0
1,67,90,17
1,60,85,0
1,64,88,1
1,57,85,0
1,33,106,21
1,60,85,34
1,57,81,0
1,64,96,0
1,57,87,34
1,67,96,1
1,62,90,0
1,38,102,2
1,57,82,35
1,62,85,0
1,66,114,0
1,50,69,50
1,50,76,15
1,55,80,94
1,57,84,1
1,33,96,0
1,60,84,1
1,57,76,0
1,67,88,0
1,64,87,1
1,33,94,2
1,67,66,12
1,67,81,1
1,57,81,0
1,60,85,2
1,64,77,0
1,33,94,18
1,67,88,3
1,60,84,0
1,64,84,0
1,57,77,0
1,33,100,4
1,57,85,42
1,60,84,0
1,64,94,1
1,33,98,5
1,64,76,47
1,71,82,0
1,67,82,0
1,45,102,24
1,50,98,4
1,66,104,37
1,62,85,0
1,69,85,1
1,60,85,35
1,67,88,0
1,64,88,0
1,45,90,13
1,38,92,24
1,69,88,36
1,62,88,0
1,66,106,1
1,64,84,15
1,60,84,0
1,67,77,0
1,48,88,5
1,47,90,25
1,59,75,0
1,62,81,0
1,67,84,0
1,45,100,16
1,64,88,3
1,60,87,0
1,47,96,23
1,67,96,4
1,48,94,2
1,67,85,1
1,64,81,0
1,60,84,2
1,47,87,25
1,62,78,1
1,59,76,0
1,67,96,0
1,41,90,5
1,60,80,1
1,65,92,1
1,57,67,1
1,45,92,56
1,60,84,3
1,57,77,0
1,64,96,0
1,47,92,33
1,48,94,0
1,64,77,5
1,60,77,0
1,67,92,0
1,62,84,19
1,47,94,0
1,59,82,0
1,67,90,2
1,45,94,22
1,57,72,1
1,60,76,0
1,64,87,0
1,64,84,27
1,69,85,24
1,69,94,20
1,47,92,46
1,59,72,1
1,62,69,0
1,67,98,0
1,48,87,8
1,64,84,1
1,60,76,0
1,67,92,97
1,47,92,22
1,62,77,1
1,59,75,0
1,67,92,2
1,41,84,24
1,65,98,1
1,60,98,0
1,57,82,0
1,45,90,52
1,60,81,0
1,57,78,1
1,64,88,1
1,59,77,35
1,62,84,0
1,67,90,1
1,47,96,2
1,67,84,14
1,60,76,0
1,64,92,1
1,48,90,1
1,62,82,1
1,47,85,1
1,59,76,0
1,67,87,0
1,45,92,15
1,57,77,0
1,33,92,1
1,60,80,0
1,67,87,0
1,64,88,0
1,67,62,14
1,60,85,17
1,57,85,0
1,67,90,0
1,64,84,0
1,67,90,17
1,60,85,0
1,64,88,1
1,57,85,0
1,60,85,34
1,57,81,0
1,64,96,0
1,57,87,34
1,67,96,1
1,62,90,0
1,38,100,0
1,57,82,35
1,62,85,0
1,66,114,0
1,50,72,2
1,57,85,1
1,50,73,36
1,50,67,23
1,57,90,1
1,45,81,40
1,33,100,0
1,60,84,0
1,57,76,0
1,67,88,0
1,64,87,1
1,67,66,12
1,67,81,1
1,57,81,0
1,60,85,2
1,64,77,0
1,67,88,1
1,60,84,0
1,64,84,0
1,57,77,0
1,57,85,1
1,60,84,0
1,64,94,1
1,45,92,0
1,64,76,40
1,71,82,0
1,67,82,0
1,50,96,2
1,66,104,37
1,62,85,0
1,69,85,1
1,45,90,1
1,60,85,1
1,67,88,0
1,64,88,0
1,38,96,23
1,69,88,36
1,62,88,0
1,66,106,1
1,45,102,96
1,33,98,38
1,57,77,0
1,60,80,1
1,67,87,0
1,64,88,0
1,67,62,14
1,60,85,17
1,57,85,0
1,67,90,0
1,64,84,0
1,67,90,17
1,60,85,0
1,64,88,1
1,57,85,0
1,33,106,21
1,60,85,34
1,57,81,0
1,64,96,0
1,57,87,34
1,67,96,1
1,62,90,0
1,38,102,2
1,57,82,35
1,62,85,0
1,66,114,0
1,50,69,50
1,50,76,15
1,55,80,94
1,57,84,1
1,33,96,0
1,60,84,1
1,57,76,0
1,67,88,0
1,64,87,1
1,33,94,2
1,67,66,12
1,67,81,1
1,57,81,0
1,60,85,2
1,64,77,0
1,33,94,18
1,67,88,3
1,60,84,0
1,64,84,0
1,57,77,0
1,33,100,4
1,57,85,42
1,60,84,0
1,64,94,1
1,33,98,5
1,64,76,47
1,71,82,0
1,67,82,0
1,45,102,24
1,50,98,4
1,66,104,37
1,62,85,0
1,69,85,1
1,60,85,35
1,67,88,0
1,64,88,0
1,45,90,13
1,38,92,24
1,69,88,36
1,62,88,0
1,66,106,1
1,64,84,15
1,60,84,0
1,67,77,0
1,48,88,5
1,47,90,25
1,59,75,0
1,62,81,0
1,67,84,0
1,45,100,16
1,64,88,3
1,60,87,0
1,47,96,23
1,67,96,4
1,48,94,2
1,67,85,1
1,64,81,0
1,60,84,2
1,47,87,25
1,62,78,1
1,59,76,0
1,67,96,0
1,41,90,5
1,60,80,1
1,65,92,1
1,57,67,1
1,45,92,56
1,60,84,3
1,57,77,0
1,64,96,0
1,47,92,33
1,48,94,0
1,64,77,5
1,60,77,0
1,67,92,0
1,62,84,19
1,47,94,0
1,59,82,0
1,67,90,2
1,45,94,22
1,57,72,1
1,60,76,0
1,64,87,0
1,64,84,27
1,69,85,24
1,69,94,20
1,47,92,46
1,59,72,1
1,62,69,0
1,67,98,0
1,48,87,8
1,64,84,1
1,60,76,0
1,67,92,97
1,47,92,22
1,62,77,1
1,59,75,0
1,67,92,2
1,41,84,24
1,65,98,1
1,60,98,0
1,57,82,0
1,45,90,52
1,60,81,0
1,57,78,1
1,64,88,1
1,59,77,35
1,62,84,0
1,67,90,1
1,47,96,2
1,67,84,14
1,60,76,0
1,64,92,1
1,48,90,1
1,62,82,1
1,47,85,1
1,59,76,0
1,67,87,0
1,45,92,15
1,57,77,0
1,33,92,1
1,60,80,0
1,67,87,0
1,64,88,0
1,67,62,14
1,60,85,17
1,57,85,0
1,67,90,0
1,64,84,0
1,67,90,17
1,60,85,0
1,64,88,1
1,57,85,0
1,60,85,34
1,57,81,0
1,64,96,0
1,57,87,34
1,67,96,1
1,62,90,0
1,38,100,0
1,57,82,35
1,62,85,0
1,66,114,0
1,50,72,2
1,57,85,1
1,50,73,36
1,50,67,23
1,57,90,1
1,45,81,40
1,33,100,0
1,60,84,0
1,57,76,0
1,67,88,0
1,64,87,1
1,67,66,12
1,67,81,1
1,57,81,0
1,60,85,2
1,64,77,0
1,67,88,1
1,60,84,0
1,64,84,0
1,57,77,0
1,57,85,1
1,60,84,0
1,64,94,1
1,45,92,0
1,64,76,40
1,71,82,0
1,67,82,0
1,50,96,2
1,66,104,37
1,62,85,0
1,69,85,1
1,45,90,1
1,60,85,1
1,67,88,0
1,64,88,0
1,38,96,23
1,69,88,36
1,62,88,0
1,66,106,1
1,45,102,96
1,33,98,38
1,57,77,0
1,60,80,1
1,67,87,0
1,64,88,0
1,67,62,14
1,60,85,17
1,57,85,0
1,67,90,0
1,64,84,0
1,67,90,17
1,60,85,0
1,64,88,1
1,57,85,0
1,33,106,21
1,60,85,34
1,57,81,0
1,64,96,0
1,57,87,34
1,67,96,1
1,62,90,0
1,38,102,2
1,57,82,35
1,62,85,0
1,66,114,0
1,50,69,50
1,50,76,15
1,55,80,94
1,57,84,1
1,33,96,0
1,60,84,1
1,57,76,0
1,67,88,0
1,64,87,1
1,33,94,2
1,67,66,12
1,67,81,1
1,57,81,0
1,60,85,2
1,64,77,0
1,33,94,18
1,67,88,3
1,60,84,0
1,64,84,0
1,57,77,0
1,33,100,4
1,57,85,42
1,60,84,0
1,64,94,1
1,33,98,5
1,64,76,47
1,71,82,0
1,67,82,0
1,45,102,24
1,50,98,4
1,66,104,37
1,62,85,0
1,69,85,1
1,60,85,35
1,67,88,0
1,64,88,0
1,45,90,13
1,38,92,24
1,69,88,36
1,62,88,0
1,66,106,1
1,64,84,15
1,60,84,0
1,67,77,0
1,48,88,5
1,47,90,25
1,59,75,0
1,62,81,0
1,67,84,0
1,45,100,16
1,64,88,3
1,60,87,0
1,47,96,23
1,67,96,4
1,48,94,2
1,67,85,1
1,64,81,0
1,60,84,2
1,47,87,25
1,62,78,1
1,59,76,0
1,67,96,0
1,41,90,5
1,60,80,1
1,65,92,1
1,57,67,1
1,45,92,56
1,60,84,3
1,57,77,0
1,64,96,0
1,47,92,33
1,48,94,0
1,64,77,5
1,60,77,0
1,67,92,0
1,62,84,19
1,47,94,0
1,59,82,0
1,67,90,2
1,45,94,22
1,57,72,1
1,60,76,0
1,64,87,0
1,64,84,27
1,69,85,24
1,69,94,20
1,47,92,46
1,59,72,1
1,62,69,0
1,67,98,0
1,48,87,8
1,64,84,1
1,60,76,0
1,67,92,97
1,47,92,22
1,62,77,1
1,59,75,0
1,67,92,2
1,41,84,24
1,65,98,1
1,60,98,0
1,57,82,0
1,45,90,52
1,60,81,0
1,57,78,1
1,64,88,1
1,59,77,35
1,62,84,0
1,67,90,1
1,47,96,2
1,67,84,14
1,60,76,0
1,64,92,1
1,48,90,1
1,62,82,1
1,47,85,1
1,59,76,0
1,67,87,0
1,45,92,15
1,62,73,0
1,66,92,1
1,50,70,0
1,57,68,2
2,36,94,31769
2,35,90,5
2,33,92,192
2,35,85,27
2,36,84,50
2,35,90,5
2,29,92,32
2,33,98,44
2,35,76,291
2,36,85,1
2,35,81,191
2,33,85,192
2,33,88,37
2,35,76,48
2,36,85,43
2,35,90,186
2,29,94,25
2,33,100,54
2,35,80,288
2,36,98,45
2,35,88,0
2,33,77,193
2,45,98,0
2,40,98,48
2,38,98,22
2,45,88,18
2,50,94,19
2,42,108,0
2,38,94,49
2,43,92,22
2,38,92,2
2,45,100,1
2,33,92,49
2,40,82,33
2,45,102,47
2,40,90,47
2,38,84,30
2,45,94,24
2,50,98,23
2,50,92,29
2,45,96,24
2,38,82,21
2,45,90,36
2,40,96,24
2,33,85,22
2,45,90,21
2,40,96,7
2,38,84,3
2,33,71,18
2,38,96,2
2,38,78,30
2,43,100,25
2,38,78,2
2,45,98,25
2,33,78,0
2,33,92,24
2,40,96,2
2,38,81,96
2,45,78,21
2,50,85,22
2,48,81,0
2,50,92,28
2,45,70,25
2,38,76,2
2,40,82,27
2,38,81,25
2,36,77,20
2,35,87,13
2,33,92,0
2,45,88,27
2,40,92,49
2,33,87,1
2,35,98,48
2,36,92,45
2,35,87,1
2,29,96,6
2,33,102,72
2,33,92,27
2,35,94,49
2,36,96,46
2,35,90,191
2,33,96,190
2,45,94,1
2,40,98,1
2,33,87,48
2,35,90,45
2,36,90,1
2,35,90,192
2,29,96,8
2,33,100,77
2,33,72,18
2,33,88,14
2,35,85,24
2,36,102,22
2,35,100,190
2,38,98,2
2,38,58,1
2,38,82,16
2,38,106,17
2,38,56,16
2,38,82,15
2,38,108,16
2,38,51,24
2,38,85,16
2,38,104,16
2,38,88,10
2,38,102,19
2,36,87,15
2,35,106,431
2,33,112,12
2,31,94,190
2,31,106,39
2,31,77,16
2,33,77,0
2,29,94,2
2,29,96,30
2,29,62,13
2,29,87,8
2,29,94,11
2,29,94,9
2,29,106,4
2,29,104,8
2,29,100,8
2,31,102,8
2,33,108,12
2,33,98,19
2,33,92,24
2,31,92,27
2,31,98,34
2,31,94,25
2,29,88,26
2,29,90,19
2,29,98,22
2,29,77,16
2,29,94,3
2,29,87,5
2,29,96,8
2,29,106,8
2,31,100,2
2,33,102,7
2,33,98,28
2,33,88,26
2,31,84,26
2,31,94,29
2,31,92,27
2,29,88,24
2,29,61,25
2,29,84,15
2,29,100,8
2,29,81,14
2,29,80,6
2,29,60,9
2,29,75,9
2,29,98,6
2,29,94,4
2,29,100,10
2,29,100,4
2,31,94,5
2,33,106,7
2,33,102,26
2,33,90,21
2,31,85,26
2,31,104,33
2,31,90,30
