track,note,velocity,time
0,44,100,0
0,36,89,0
0,23,100,8
0,44,100,184
0,38,89,0
0,18,100,184
0,44,100,184
0,36,89,0
0,23,100,184
0,44,100,184
0,38,89,0
0,18,100,184
0,44,100,184
0,36,89,0
0,23,100,184
0,44,100,184
0,38,89,0
0,18,100,184
0,44,100,184
0,36,89,0
0,23,100,184
0,44,100,184
0,38,89,0
0,18,100,184
0,44,100,184
0,36,89,0
0,23,100,184
0,44,100,184
0,38,89,0
0,18,100,184
0,44,100,184
0,36,89,0
0,23,100,184
0,44,100,184
0,38,89,0
0,18,100,184
0,44,100,184
0,36,89,0
0,23,100,184
0,44,100,184
0,38,89,0
0,18,100,184
0,44,100,184
0,36,89,0
0,23,100,184
0,44,100,184
0,38,89,0
0,18,100,184
0,45,100,184
0,52,100,0
0,57,100,0
0,44,100,0
0,36,89,0
0,57,100,0
0,52,100,0
0,45,100,0
0,23,100,0
0,45,100,0
0,54,100,0
0,48,82,0
0,45,82,0
0,44,100,0
0,38,89,0
0,45,100,0
0,52,100,0
0,45,82,0
0,49,82,0
0,18,100,0
0,57,100,0
0,52,100,0
0,45,100,0
0,52,82,0
0,45,82,0
0,44,100,0
0,36,89,0
0,48,100,0
0,52,82,0
0,45,82,0
0,23,100,0
0,49,100,0
0,73,82,0
0,76,82,0
0,54,82,0
0,45,82,0
0,44,100,0
0,38,89,0
0,57,100,0
0,52,100,0
0,45,100,0
0,54,82,0
0,45,82,0
0,18,100,0
0,52,82,0
0,45,82,0
0,44,100,0
0,36,89,0
0,45,100,0
0,52,100,0
0,57,100,0
0,52,82,0
0,45,82,0
0,23,100,0
0,45,100,0
0,54,100,0
0,73,83,0
0,76,83,0
0,54,83,0
0,45,83,0
0,44,100,0
0,38,89,0
0,45,100,0
0,52,100,0
0,54,83,0
0,45,83,0
0,18,100,0
0,57,100,0
0,52,100,0
0,45,100,0
0,52,83,0
0,45,83,0
0,44,100,0
0,36,89,0
0,48,100,0
0,52,83,0
0,45,83,0
0,23,100,0
0,49,100,0
0,73,83,0
0,54,83,0
0,45,83,0
0,44,100,0
0,38,89,0
0,57,100,0
0,52,100,0
0,45,100,0
0,73,90,0
0,76,90,0
0,54,83,0
0,45,83,0
0,18,100,0
0,73,83,0
0,76,83,0
0,73,83,0
0,52,83,0
0,45,83,0
0,44,100,0
0,36,89,0
0,76,83,0
0,73,83,0
0,45,100,0
0,52,100,0
0,57,100,0
0,76,83,0
0,52,83,0
0,45,83,0
0,23,100,0
0,73,83,0
0,76,83,0
0,45,100,0
0,54,100,0
0,73,83,0
0,54,83,0
0,45,83,0
0,44,100,0
0,38,89,0
0,76,83,0
0,73,83,0
0,45,100,0
0,52,100,0
0,76,83,0
0,54,83,0
0,45,83,0
0,18,100,0
0,73,85,0
0,76,85,0
0,57,100,0
0,52,100,0
0,45,100,0
0,73,85,0
0,52,85,0
0,45,85,0
0,44,100,0
0,36,89,0
0,76,85,0
0,73,85,0
0,48,100,0
0,76,85,0
0,52,85,0
0,45,85,0
0,23,100,0
0,73,85,0
0,76,85,0
0,49,100,0
0,73,85,0
0,54,85,0
0,45,85,0
0,44,100,0
0,38,89,0
0,76,85,0
0,73,85,0
0,57,100,0
0,52,100,0
0,45,100,0
0,76,85,0
0,54,85,0
0,45,85,0
0,18,100,0
0,73,85,0
0,76,85,0
0,73,85,0
0,52,85,0
0,45,85,0
0,44,100,0
0,36,89,0
0,76,85,0
0,73,85,0
0,45,100,0
0,52,100,0
0,57,100,0
0,76,85,0
0,52,85,0
0,45,85,0
0,23,100,0
0,73,85,0
0,76,85,0
0,45,100,0
0,54,100,0
0,73,85,0
0,54,85,0
0,45,85,0
0,44,100,0
0,38,89,0
0,76,85,0
0,45,100,0
0,52,100,0
0,54,85,0
0,45,85,0
0,18,100,0
0,74,92,24
0,78,92,0
0,79,85,0
0,76,85,0
0,57,100,0
0,52,100,0
0,45,100,0
0,76,85,0
0,52,85,0
0,45,85,0
0,44,100,0
0,36,89,0
0,79,85,0
0,76,85,0
0,48,100,0
0,79,87,0
0,52,87,0
0,45,87,0
0,23,100,0
0,76,87,0
0,79,87,0
0,49,100,0
0,76,87,0
0,54,87,0
0,45,87,0
0,44,100,0
0,38,89,0
0,79,87,0
0,76,87,0
0,45,100,0
0,52,100,0
0,57,100,0
0,79,87,0
0,54,87,0
0,45,87,0
0,18,100,0
0,78,87,0
0,81,87,0
0,50,100,0
0,57,100,0
0,38,87,0
0,78,87,0
0,44,100,0
0,36,89,0
0,81,87,0
0,78,87,0
0,50,100,0
0,57,100,0
0,38,87,0
0,81,87,0
0,23,100,0
0,78,87,0
0,81,87,0
0,53,100,0
0,42,87,0
0,38,87,0
0,78,87,0
0,44,100,0
0,38,89,0
0,81,87,0
0,78,87,0
0,54,100,0
0,42,87,0
0,38,87,0
0,81,87,0
0,18,100,0
0,78,87,0
0,81,87,0
0,50,100,0
0,57,100,0
0,45,87,0
0,38,87,0
0,78,87,0
0,44,100,0
0,36,89,0
0,81,87,0
0,78,87,0
0,50,100,0
0,57,100,0
0,45,87,0
0,38,87,0
0,81,87,0
0,23,100,0
0,78,87,0
0,81,87,0
0,50,100,0
0,59,100,0
0,47,87,0
0,38,87,0
0,78,87,0
0,44,100,0
0,38,89,0
0,81,87,0
0,78,89,0
0,50,100,0
0,57,100,0
0,45,89,0
0,38,89,0
0,81,89,0
0,18,100,0
0,78,89,0
0,81,89,0
0,50,100,0
0,57,100,0
0,48,89,0
0,38,89,0
0,78,89,0
0,44,100,0
0,36,89,0
0,81,89,0
0,78,89,0
0,50,100,0
0,57,100,0
0,48,89,0
0,38,89,0
0,81,89,0
0,23,100,0
0,78,89,0
0,81,89,0
0,53,100,0
0,47,89,0
0,38,89,0
0,78,89,0
0,44,100,0
0,38,89,0
0,81,89,0
0,78,89,0
0,54,100,0
0,47,89,0
0,38,89,0
0,81,89,0
0,18,100,0
0,78,89,0
0,81,89,0
0,50,100,0
0,57,100,0
0,45,89,0
0,38,89,0
0,78,89,0
0,44,100,0
0,36,89,0
0,81,89,0
0,78,89,0
0,50,100,0
0,57,100,0
0,45,89,0
0,38,89,0
0,81,89,0
0,23,100,0
0,78,89,0
0,81,89,0
0,50,100,0
0,59,100,0
0,42,89,0
0,38,89,0
0,78,89,0
0,44,100,0
0,38,89,0
0,81,89,0
0,78,89,0
0,50,100,0
0,57,100,0
0,76,96,0
0,73,96,0
0,42,89,0
0,38,89,0
0,18,100,0
0,76,89,0
0,73,89,0
0,45,100,0
0,52,100,0
0,57,100,0
0,73,91,0
0,45,91,0
0,44,100,0
0,36,89,0
0,76,91,0
0,73,91,0
0,45,100,0
0,52,100,0
0,57,100,0
0,76,91,0
0,45,91,0
0,23,100,0
0,73,91,0
0,76,91,0
0,45,100,0
0,54,100,0
0,49,91,0
0,73,91,0
0,45,91,0
0,44,100,0
0,38,89,0
0,76,91,0
0,73,91,0
0,45,100,0
0,52,100,0
0,49,91,0
0,76,91,0
0,45,91,0
0,18,100,0
0,73,91,0
0,76,91,0
0,57,100,0
0,52,100,0
0,45,100,0
0,73,91,0
0,52,91,0
0,45,91,0
0,44,100,0
0,36,89,0
0,76,91,0
0,73,91,0
0,48,100,0
0,76,91,0
0,52,91,0
0,45,91,0
0,23,100,0
0,73,91,0
0,76,91,0
0,49,100,0
0,74,91,0
0,77,91,0
0,54,91,0
0,45,91,0
0,44,100,0
0,38,89,0
0,45,100,0
0,52,100,0
0,57,100,0
0,78,91,0
0,75,91,0
0,54,91,0
0,45,91,0
0,18,100,0
0,45,100,0
0,52,100,0
0,57,100,0
0,78,91,0
0,75,91,0
0,55,91,0
0,45,91,0
0,44,100,0
0,36,89,0
0,79,91,0
0,76,91,0
0,76,91,0
0,45,100,0
0,52,100,0
0,57,100,0
0,79,91,0
0,55,91,0
0,45,91,0
0,23,100,0
0,76,91,0
0,79,92,0
0,54,100,0
0,45,100,0
0,75,92,0
0,78,92,0
0,54,92,0
0,45,92,0
0,44,100,0
0,38,89,0
0,45,100,0
0,52,100,0
0,74,92,0
0,77,92,0
0,54,92,0
0,45,92,0
0,18,100,0
0,57,100,0
0,52,100,0
0,45,100,0
0,73,92,0
0,76,92,0
0,52,92,0
0,45,92,0
0,44,100,0
0,36,89,0
0,76,92,0
0,73,92,0
0,45,100,0
0,52,100,0
0,57,100,0
0,76,92,0
0,52,92,0
0,45,92,0
0,23,100,0
0,73,92,0
0,76,92,0
0,45,100,0
0,54,100,0
0,68,92,0
0,71,92,0
0,54,92,0
0,45,92,0
0,44,100,0
0,38,89,0
0,45,100,0
0,52,100,0
0,71,92,0
0,68,92,0
0,54,92,0
0,45,92,0
0,18,100,0
0,68,92,0
0,71,92,0
0,40,100,0
0,47,100,0
0,40,92,0
0,68,92,0
0,44,100,0
0,36,89,0
0,71,92,0
0,68,92,0
0,47,100,0
0,40,100,0
0,40,92,0
0,71,92,0
0,23,100,0
0,68,92,0
0,71,92,0
0,40,100,0
0,49,100,0
0,43,92,0
0,40,92,0
0,68,92,0
0,44,100,0
0,38,89,0
0,71,92,0
0,68,92,0
0,47,100,0
0,40,100,0
0,44,92,0
0,71,92,0
0,18,100,0
0,68,94,0
0,71,94,0
0,47,100,0
0,40,100,0
0,47,94,0
0,40,94,0
0,68,94,0
0,44,100,0
0,36,89,0
0,71,94,0
0,68,94,0
0,40,100,0
0,47,100,0
0,47,94,0
0,40,94,0
0,71,94,0
0,23,100,0
0,68,94,0
0,71,94,0
0,49,100,0
0,40,100,0
0,49,94,0
0,40,94,0
0,68,94,0
0,44,100,0
0,38,89,0
0,71,94,0
0,68,94,0
0,47,100,0
0,40,100,0
0,49,94,0
0,40,94,0
0,71,94,0
0,18,100,0
0,68,94,0
0,71,94,0
0,40,100,0
0,47,100,0
0,69,94,0
0,73,94,0
0,47,94,0
0,40,94,0
0,44,100,0
0,36,89,0
0,47,100,0
0,40,100,0
0,68,94,0
0,71,94,0
0,47,94,0
0,40,94,0
0,23,100,0
0,40,100,0
0,49,100,0
0,49,94,0
0,40,94,0
0,44,100,0
0,38,89,0
0,47,100,0
0,40,100,0
0,49,94,0
0,40,94,0
0,18,100,0
0,47,100,0
0,40,100,0
0,69,94,0
0,73,94,0
0,47,94,0
0,40,94,0
0,44,100,0
0,36,89,0
0,40,100,0
0,47,100,0
0,71,96,0
0,68,96,0
0,47,96,0
0,40,96,0
0,23,100,0
0,49,100,0
0,40,100,0
0,44,96,0
0,40,96,0
0,44,100,0
0,38,89,0
0,47,100,0
0,40,100,0
0,69,104,0
0,81,104,0
0,44,96,0
0,40,96,0
0,18,100,0
0,45,100,0
0,52,100,0
0,69,104,0
0,81,104,0
0,45,96,0
0,44,100,0
0,36,89,0
0,45,100,0
0,52,100,0
0,45,96,0
0,23,100,0
0,48,100,0
0,69,104,0
0,81,104,0
0,49,96,0
0,45,96,0
0,44,100,0
0,38,89,0
0,49,100,0
0,69,104,0
0,81,104,0
0,49,96,0
0,45,96,0
0,18,100,0
0,45,100,0
0,52,100,0
0,69,104,0
0,81,104,0
0,52,96,0
0,45,96,0
0,44,100,0
0,36,89,0
0,45,100,0
0,52,100,0
0,69,104,0
0,81,104,0
0,52,96,0
0,45,96,0
0,23,100,0
0,45,100,0
0,54,100,0
0,73,104,0
0,76,104,0
0,54,96,0
0,45,96,0
0,44,100,0
0,38,89,0
0,45,100,0
0,52,100,0
0,78,106,0
0,74,106,0
0,54,98,0
0,45,98,0
0,18,100,0
0,45,100,0
0,52,100,0
0,73,106,0
0,76,106,0
0,52,98,0
0,45,98,0
0,44,100,0
0,36,89,0
0,45,100,0
0,52,100,0
0,69,106,0
0,52,98,0
0,45,98,0
0,23,100,0
0,48,100,0
0,73,106,0
0,54,98,0
0,45,98,0
0,44,100,0
0,38,89,0
0,49,100,0
0,73,106,0
0,76,106,0
0,69,106,0
0,54,98,0
0,45,98,0
0,18,100,0
0,45,100,0
0,52,100,0
0,52,98,0
0,45,98,0
0,44,100,0
0,36,89,0
0,45,100,0
0,52,100,0
0,69,106,0
0,76,106,0
0,81,106,0
0,52,98,0
0,45,98,0
0,23,100,0
0,45,100,0
0,54,100,0
0,81,106,0
0,76,106,0
0,69,106,0
0,54,98,0
0,45,98,0
0,44,100,0
0,38,89,0
0,45,100,0
0,52,100,0
0,81,106,0
0,76,106,0
0,69,106,0
0,54,98,0
0,45,98,0
0,18,100,0
0,72,100,184
0,45,95,0
0,52,95,0
0,52,110,0
0,45,110,0
0,44,100,0
0,36,89,0
0,45,95,0
0,52,95,0
0,81,120,0
0,76,120,0
0,69,120,0
0,45,110,0
0,23,100,0
0,71,100,0
0,48,95,0
0,73,120,0
0,54,110,0
0,45,110,0
0,44,100,0
0,38,89,0
0,49,95,0
0,45,110,0
0,18,100,0
0,69,100,0
0,45,95,0
0,52,95,0
0,55,110,0
0,45,110,0
0,44,100,0
0,36,89,0
0,45,95,0
0,52,95,0
0,45,110,0
0,23,100,0
0,69,100,0
0,45,95,0
0,54,95,0
0,54,110,0
0,45,110,0
0,44,100,0
0,38,89,0
0,66,100,0
0,45,95,0
0,52,95,0
0,73,120,0
0,76,120,0
0,81,120,0
0,69,120,0
0,45,110,0
0,18,100,0
0,69,100,0
0,52,110,0
0,45,110,0
0,44,100,0
0,36,89,0
0,45,95,0
0,52,95,0
0,69,120,0
0,73,120,0
0,76,120,0
0,45,110,0
0,23,100,0
0,71,100,0
0,48,95,0
0,78,120,0
0,74,120,0
0,69,120,0
0,54,110,0
0,45,110,0
0,44,100,0
0,38,89,0
0,73,100,0
0,49,95,0
0,72,120,0
0,75,120,0
0,54,110,0
0,45,110,0
0,18,100,0
0,45,95,0
0,52,95,0
0,69,120,0
0,73,120,0
0,76,120,0
0,52,110,0
0,45,110,0
0,44,100,0
0,36,89,0
0,45,95,0
0,52,95,0
0,69,120,0
0,52,110,0
0,45,110,0
0,23,100,0
0,45,95,0
0,54,95,0
0,73,120,0
0,54,110,0
0,45,110,0
0,44,100,0
0,38,89,0
0,45,95,0
0,52,95,0
0,81,120,0
0,76,120,0
0,73,120,0
0,69,120,0
0,54,110,0
0,45,110,0
0,18,100,0
0,72,100,184
0,52,110,0
0,45,110,0
0,44,100,0
0,36,89,0
0,45,95,0
0,52,95,0
0,69,120,0
0,73,120,0
0,76,120,0
0,81,120,0
0,45,110,0
0,23,100,0
0,71,100,0
0,48,95,0
0,54,110,0
0,45,110,0
0,44,100,0
0,38,89,0
0,69,100,0
0,49,95,0
0,45,110,0
0,18,100,0
0,45,95,0
0,52,95,0
0,55,110,0
0,45,110,0
0,44,100,0
0,36,89,0
0,69,100,0
0,45,95,0
0,52,95,0
0,69,120,0
0,45,110,0
0,23,100,0
0,69,100,0
0,45,95,0
0,54,95,0
0,73,120,0
0,54,110,0
0,45,110,0
0,44,100,0
0,38,89,0
0,67,100,0
0,45,95,0
0,52,95,0
0,69,120,0
0,73,120,0
0,76,120,0
0,81,120,0
0,45,110,0
0,18,100,0
0,69,100,0
0,52,110,0
0,45,110,0
0,44,100,0
0,36,89,0
0,45,95,0
0,52,95,0
0,73,120,0
0,76,120,0
0,45,110,0
0,23,100,0
0,48,95,0
0,74,120,0
0,78,120,0
0,54,110,0
0,45,110,0
0,44,100,0
0,38,89,0
0,49,95,0
0,72,120,0
0,75,120,0
0,52,110,0
0,45,110,0
0,18,100,0
0,45,95,0
0,52,95,0
0,73,120,0
0,76,120,0
0,45,110,0
0,44,100,0
0,36,89,0
0,45,95,0
0,52,95,0
0,69,120,0
0,52,110,0
0,45,110,0
0,23,100,0
0,45,95,0
0,54,95,0
0,73,120,0
0,76,120,0
0,54,110,0
0,45,110,0
0,44,100,0
0,38,89,0
0,45,95,0
0,52,95,0
0,74,120,0
0,78,120,0
0,45,110,0
0,18,100,0
0,74,100,184
0,50,95,0
0,57,95,0
0,74,120,0
0,38,110,0
0,44,100,0
0,36,89,0
0,81,120,0
0,78,120,0
0,74,120,0
