track,note,velocity,time
2,69,79,15360
2,73,79,40
2,73,79,40
2,73,79,40
2,73,79,80
2,69,79,80
2,67,79,40
2,69,79,40
2,69,79,40
2,71,79,40
2,66,79,0
2,69,79,0
2,69,79,1165
2,72,79,40
2,72,79,40
2,72,79,40
2,72,79,80
2,69,79,80
2,67,79,40
2,69,79,40
2,69,79,40
2,71,79,40
2,66,79,0
2,69,79,0
2,72,79,805
2,66,79,165
2,66,79,40
2,69,79,40
2,69,79,40
2,72,79,40
2,66,79,80
2,66,79,40
2,69,79,40
2,69,79,40
2,72,79,40
2,66,79,80
2,66,79,40
2,69,79,40
2,69,79,40
2,72,79,40
2,72,79,325
2,72,79,40
2,72,79,40
2,72,79,40
2,69,79,40
2,69,79,80
2,67,79,0
2,64,79,2925
2,68,79,40
2,68,79,40
2,69,79,40
2,71,79,85
2,68,79,85
2,68,79,40
2,69,79,40
2,71,79,85
2,66,79,85
2,66,79,40
2,69,79,40
2,72,79,85
2,72,79,80
2,69,79,40
2,69,79,40
2,67,79,40
2,67,79,80
2,64,79,40
2,64,79,40
2,63,79,40
2,62,79,80
2,60,79,80
2,57,79,40
2,61,79,885
2,62,79,40
2,61,79,40
2,57,79,40
2,69,79,1005
2,72,79,40
2,72,79,40
2,72,79,40
2,72,79,85
2,69,79,85
2,67,79,40
2,69,79,40
2,69,79,40
2,71,79,40
2,71,79,0
2,66,79,0
2,69,79,0
2,67,79,1165
2,72,79,40
2,72,79,40
2,72,79,40
2,72,79,40
2,69,79,40
2,67,79,40
2,69,79,40
2,69,79,40
2,69,79,40
2,71,79,80
2,66,79,0
2,69,79,0
2,66,79,1285
2,66,79,40
2,69,79,40
2,72,79,40
2,66,79,80
2,66,79,40
2,69,79,40
2,72,79,40
2,66,79,80
2,66,79,40
2,69,79,40
2,72,79,40
2,72,79,325
2,72,79,40
2,72,79,40
2,72,79,40
2,69,79,40
2,69,79,40
2,67,79,40
2,69,79,485
2,72,79,0
2,69,79,0
2,62,79,0
2,61,79,0
2,57,79,0
2,62,79,0
2,64,79,1005
2,68,79,40
2,68,79,40
2,69,79,40
2,71,79,80
2,68,79,80
2,68,79,40
2,69,79,40
2,71,79,80
2,66,79,80
2,66,79,40
2,69,79,40
2,72,79,80
2,72,79,80
2,69,79,40
2,69,79,40
2,67,79,40
2,67,79,80
2,67,79,40
2,64,79,40
2,63,79,40
2,62,79,80
2,60,79,40
2,57,79,40
2,64,79,2085
2,76,79,0
2,76,79,0
2,69,79,0
2,76,79,0
2,69,79,0
2,76,79,30885
2,76,79,325
2,76,79,40
2,76,79,40
2,69,79,80
2,69,79,40
2,69,79,40
2,69,79,40
2,69,79,40
2,72,79,40
2,69,79,80
2,76,79,2000
2,76,79,40
2,76,79,40
2,69,79,120
2,76,79,40
2,76,79,40
2,72,79,40
2,69,79,40
2,69,79,565
2,69,79,40
2,66,79,200
2,66,79,40
2,69,79,40
2,71,79,80
2,66,79,80
2,66,79,40
2,69,79,40
2,71,79,40
2,66,79,80
2,66,79,40
2,69,79,40
2,72,79,40
2,76,79,325
2,76,79,40
2,76,79,40
2,76,79,40
2,76,79,40
2,74,79,80
2,74,79,80
2,74,79,20
2,72,79,20
2,69,79,3320
2,71,79,40
2,71,79,40
2,71,79,40
2,71,79,80
2,71,79,80
2,71,79,40
2,71,79,40
2,71,79,80
2,71,79,80
2,71,79,40
2,71,79,40
2,72,79,80
2,72,79,80
2,69,79,40
2,69,79,40
2,67,79,40
2,67,79,80
2,64,79,40
2,64,79,40
2,63,79,40
2,62,79,80
2,60,79,80
2,76,79,3325
2,69,79,0
2,73,79,0
2,76,79,565
2,69,79,0
2,73,79,0
2,76,79,565
2,69,79,0
2,73,79,0
2,76,79,565
2,69,79,0
2,73,79,0
2,73,79,4405
2,69,79,80
2,73,79,165
2,71,79,0
2,69,79,40
2,73,79,405
2,69,79,85
2,73,79,170
2,71,79,0
2,69,79,40
2,64,79,200
2,68,79,40
2,68,79,40
2,69,79,40
2,71,79,80
2,68,79,80
2,68,79,40
2,69,79,40
2,71,79,80
2,66,79,80
2,66,79,40
2,69,79,40
2,72,79,80
2,72,79,80
2,69,79,40
2,69,79,40
2,67,79,40
2,67,79,80
2,64,79,40
2,64,79,40
2,63,79,40
2,62,79,80
2,61,79,80
3,57,79,4750
3,64,79,0
3,61,79,40
3,57,79,40
3,64,79,0
3,57,79,40
3,67,79,0
3,57,79,40
3,64,79,0
3,57,79,40
3,66,79,0
3,60,79,40
3,61,79,0
3,57,79,40
3,64,79,0
3,57,79,40
3,66,79,0
3,57,79,40
3,64,79,0
3,57,79,40
3,64,79,0
3,57,79,40
3,64,79,0
3,57,79,40
3,66,79,0
3,57,79,40
3,64,79,0
3,57,79,40
3,64,79,0
3,57,79,40
3,64,79,0
3,61,79,40
3,57,79,40
3,64,79,0
3,57,79,40
3,67,79,0
3,57,79,40
3,64,79,0
3,57,79,40
3,66,79,0
3,60,79,40
3,61,79,0
3,57,79,40
3,64,79,0
3,57,79,40
3,66,79,0
3,57,79,40
3,64,79,0
3,57,79,40
3,64,79,0
3,57,79,40
3,66,79,0
3,57,79,40
3,66,79,0
3,57,79,40
3,64,79,0
3,62,79,40
3,69,79,0
3,66,79,40
3,62,79,40
3,69,79,0
3,62,79,40
3,71,79,0
3,62,79,40
3,72,79,0
3,62,79,40
3,69,79,0
3,62,79,40
3,71,79,0
3,65,79,40
3,66,79,0
3,62,79,40
3,69,79,0
3,62,79,40
3,71,79,0
3,62,79,40
3,69,79,0
3,62,79,40
3,69,79,0
3,62,79,40
3,69,79,0
3,62,79,40
3,71,79,0
3,62,79,40
3,69,79,0
3,57,79,40
3,64,79,0
3,57,79,40
3,64,79,0
3,61,79,40
3,57,79,40
3,64,79,0
3,57,79,40
3,67,79,0
3,57,79,40
3,64,79,0
3,57,79,40
3,66,79,0
3,60,79,40
3,61,79,0
3,57,79,40
3,64,79,0
3,57,79,40
3,66,79,0
3,57,79,40
3,64,79,0
3,57,79,40
3,64,79,0
3,57,79,40
3,64,79,0
3,57,79,40
3,66,79,0
3,57,79,40
3,64,79,0
3,52,79,40
3,59,79,0
3,54,79,40
3,59,79,0
3,56,79,40
3,52,79,40
3,59,79,0
3,52,79,40
3,62,79,0
3,52,79,40
3,59,79,0
3,52,79,40
3,61,79,0
3,55,79,40
3,56,79,0
3,52,79,40
3,59,79,0
3,52,79,40
3,61,79,0
3,52,79,40
3,59,79,0
3,52,79,40
3,59,79,0
3,52,79,40
3,59,79,0
3,52,79,40
3,61,79,0
3,52,79,40
3,59,79,0
3,57,79,40
3,64,79,0
3,57,79,40
3,64,79,0
3,61,79,40
3,57,79,40
3,64,79,0
3,57,79,40
3,67,79,0
3,57,79,40
3,64,79,0
3,57,79,40
3,66,79,0
3,60,79,40
3,61,79,0
3,57,79,40
3,64,79,0
3,57,79,40
3,66,79,0
3,57,79,40
3,64,79,0
3,57,79,40
3,64,79,0
3,57,79,40
3,64,79,0
3,57,79,40
3,66,79,0
3,57,79,40
3,64,79,0
3,55,79,40
3,57,79,40
3,64,79,0
3,55,79,165
3,57,79,40
3,64,79,0
3,55,79,165
3,57,79,40
3,64,79,0
3,55,79,165
3,57,79,40
3,64,79,0
3,55,79,160
3,57,79,40
3,64,79,0
3,55,79,80
3,52,79,40
3,55,79,40
3,57,79,40
3,64,79,0
3,55,79,165
3,57,79,40
3,64,79,0
3,55,79,165
3,57,79,40
3,64,79,0
3,55,79,165
3,57,79,40
3,64,79,0
3,55,79,160
3,57,79,40
3,64,79,0
3,55,79,80
3,52,79,40
3,60,79,40
3,62,79,40
3,69,79,0
3,60,79,170
3,62,79,40
3,69,79,0
3,60,79,170
3,62,79,40
3,69,79,0
3,60,79,170
3,62,79,45
3,69,79,0
3,60,79,165
3,62,79,45
3,69,79,0
3,60,79,85
3,57,79,45
3,55,79,45
3,57,79,45
3,64,79,0
3,55,79,175
3,57,79,45
3,64,79,0
3,55,79,175
3,57,79,45
3,64,79,0
3,55,79,175
3,57,79,40
3,64,79,0
3,55,79,160
3,57,79,40
3,64,79,0
3,55,79,85
3,52,79,40
3,64,79,40
3,71,79,0
3,64,79,40
3,71,79,0
3,64,79,40
3,73,79,0
3,64,79,40
3,71,79,0
3,64,79,40
3,71,79,0
3,64,79,40
3,71,79,0
3,64,79,40
3,73,79,0
3,64,79,40
3,71,79,0
3,64,79,40
3,71,79,0
3,64,79,40
3,71,79,0
3,64,79,40
3,73,79,0
3,64,79,40
3,71,79,0
3,64,79,40
3,71,79,0
3,64,79,40
3,71,79,0
3,64,79,40
3,73,79,0
3,64,79,40
3,71,79,0
3,62,79,40
3,69,79,0
3,64,79,1880
3,57,79,0
3,64,79,0
3,61,79,40
3,59,79,40
3,64,79,0
3,57,79,40
3,67,79,0
3,57,79,40
3,64,79,0
3,59,79,40
3,66,79,0
3,60,79,40
3,61,79,0
3,57,79,40
3,64,79,0
3,57,79,40
3,66,79,0
3,57,79,40
3,64,79,0
3,57,79,40
3,64,79,0
3,57,79,40
3,64,79,0
3,57,79,40
3,66,79,0
3,64,79,40
3,57,79,0
3,57,79,40
3,64,79,0
3,57,79,40
3,64,79,0
3,61,79,40
3,57,79,40
3,64,79,0
3,57,79,40
3,67,79,0
3,57,79,40
3,64,79,0
3,57,79,40
3,66,79,0
3,60,79,40
3,61,79,0
3,57,79,40
3,64,79,0
3,57,79,40
3,66,79,0
3,57,79,40
3,64,79,0
3,57,79,40
3,64,79,0
3,57,79,40
3,64,79,0
3,57,79,40
3,66,79,0
3,57,79,40
3,64,79,0
3,55,79,40
3,57,79,40
3,64,79,0
3,55,79,165
3,57,79,40
3,64,79,0
3,55,79,165
3,57,79,40
3,64,79,0
3,55,79,165
3,57,79,40
3,64,79,0
3,55,79,160
3,57,79,40
3,64,79,0
3,55,79,80
3,52,79,40
3,55,79,40
3,57,79,40
3,64,79,0
3,55,79,165
3,57,79,40
3,64,79,0
3,55,79,165
3,57,79,40
3,64,79,0
3,55,79,165
3,57,79,40
3,64,79,0
3,55,79,160
3,57,79,40
3,64,79,0
3,55,79,80
3,52,79,40
3,60,79,40
3,62,79,40
3,69,79,0
3,60,79,165
3,62,79,40
3,69,79,0
3,60,79,165
3,62,79,40
3,69,79,0
3,60,79,165
3,62,79,40
3,69,79,0
3,60,79,160
3,62,79,40
3,69,79,0
3,60,79,80
3,57,79,40
3,55,79,40
3,57,79,40
3,64,79,0
3,55,79,165
3,57,79,40
3,64,79,0
3,55,79,165
3,57,79,40
3,64,79,0
3,55,79,165
3,57,79,40
3,64,79,0
3,55,79,160
3,57,79,40
3,64,79,0
3,55,79,80
3,52,79,40
3,64,79,40
3,71,79,0
3,64,79,40
3,71,79,0
3,64,79,40
3,73,79,0
3,64,79,40
3,71,79,0
3,64,79,40
3,71,79,0
3,64,79,40
3,71,79,0
3,64,79,40
3,73,79,0
3,64,79,40
3,71,79,0
3,64,79,40
3,71,79,0
3,64,79,40
3,71,79,0
3,64,79,40
3,73,79,0
3,64,79,40
3,71,79,0
3,64,79,40
3,71,79,0
3,64,79,40
3,71,79,0
3,64,79,40
3,73,79,0
3,64,79,40
3,71,79,0
3,62,79,40
3,69,79,0
3,57,79,1880
3,64,79,0
3,61,79,40
3,57,79,40
3,64,79,0
3,57,79,40
3,67,79,0
3,57,79,40
3,64,79,0
3,57,79,40
3,66,79,0
3,60,79,40
3,61,79,0
3,57,79,40
3,64,79,0
3,57,79,40
3,66,79,0
3,57,79,40
3,64,79,0
3,57,79,40
3,64,79,0
3,57,79,40
3,64,79,0
3,57,79,40
3,66,79,0
3,57,79,40
3,64,79,0
3,57,79,40
3,64,79,0
3,57,79,40
3,64,79,0
3,61,79,40
3,57,79,40
3,64,79,0
3,57,79,40
3,67,79,0
3,57,79,40
3,64,79,0
3,57,79,40
3,66,79,0
3,60,79,40
3,61,79,0
3,57,79,40
3,64,79,0
3,57,79,40
3,66,79,0
3,57,79,40
3,64,79,0
3,57,79,40
3,64,79,0
3,57,79,40
3,64,79,0
3,57,79,40
3,66,79,0
3,57,79,40
3,64,79,0
3,57,79,160
3,64,79,0
3,61,79,40
3,57,79,40
3,64,79,0
3,57,79,40
3,67,79,0
3,57,79,40
3,64,79,0
3,59,79,40
3,66,79,0
3,60,79,40
3,61,79,0
3,57,79,40
3,64,79,0
3,57,79,40
3,66,79,0
3,57,79,40
3,64,79,0
3,57,79,40
3,64,79,0
3,57,79,40
3,64,79,0
3,57,79,40
3,66,79,0
3,57,79,40
3,64,79,0
3,57,79,40
3,64,79,0
3,57,79,40
3,64,79,0
3,61,79,40
3,57,79,40
3,64,79,0
3,57,79,40
3,67,79,0
3,57,79,40
3,64,79,0
3,66,79,40
3,57,79,0
3,60,79,40
3,61,79,0
3,57,79,40
3,64,79,0
3,57,79,40
3,66,79,0
3,57,79,40
3,64,79,0
3,57,79,40
3,64,79,0
3,57,79,40
3,64,79,0
3,57,79,40
3,66,79,0
3,57,79,40
3,64,79,0
3,62,79,40
3,69,79,0
3,66,79,40
3,62,79,40
3,69,79,0
3,62,79,40
3,71,79,0
3,62,79,40
3,72,79,0
3,62,79,40
3,69,79,0
3,62,79,40
3,71,79,0
3,65,79,40
3,66,79,0
3,62,79,40
3,69,79,0
3,62,79,40
3,71,79,0
3,62,79,40
3,69,79,0
3,62,79,40
3,69,79,0
3,62,79,40
3,69,79,0
3,62,79,40
3,71,79,0
3,62,79,40
3,69,79,0
3,57,79,40
3,64,79,0
3,57,79,40
3,64,79,0
3,61,79,40
3,57,79,40
3,64,79,0
3,57,79,40
3,67,79,0
3,57,79,40
3,64,79,0
3,57,79,40
3,67,79,0
3,60,79,40
3,61,79,0
3,57,79,40
3,64,79,0
3,57,79,40
3,66,79,0
3,57,79,40
3,64,79,0
3,57,79,40
3,64,79,0
3,57,79,40
3,64,79,0
3,57,79,40
3,66,79,0
3,57,79,40
3,64,79,0
3,52,79,40
3,59,79,0
3,52,79,40
3,59,79,0
3,56,79,40
3,52,79,40
3,59,79,0
3,52,79,40
3,62,79,0
3,52,79,40
3,59,79,0
3,52,79,40
3,61,79,0
3,55,79,40
3,56,79,0
3,52,79,40
3,59,79,0
3,52,79,40
3,61,79,0
3,52,79,40
3,59,79,0
3,52,79,40
3,59,79,0
3,52,79,40
3,59,79,0
3,52,79,40
3,61,79,0
3,52,79,40
3,59,79,0
3,57,79,40
3,64,79,0
3,57,79,40
3,64,79,0
3,61,79,40
3,57,79,40
3,64,79,0
3,57,79,40
3,67,79,0
3,57,79,40
3,64,79,0
3,57,79,40
3,66,79,0
3,60,79,40
3,61,79,0
3,57,79,40
3,64,79,0
3,57,79,40
3,66,79,0
3,57,79,40
3,64,79,0
3,57,79,40
3,64,79,0
3,57,79,40
3,64,79,0
3,57,79,40
3,66,79,0
3,57,79,40
3,64,79,0
3,55,79,40
3,57,79,40
3,64,79,0
3,55,79,165
3,57,79,40
3,64,79,0
3,55,79,165
3,57,79,40
3,64,79,0
3,55,79,165
3,57,79,40
3,64,79,0
3,55,79,160
3,57,79,40
3,64,79,0
3,55,79,80
3,52,79,40
3,55,79,40
3,57,79,40
3,64,79,0
3,55,79,165
3,57,79,40
3,64,79,0
3,55,79,165
3,57,79,40
3,64,79,0
3,55,79,165
3,57,79,40
3,64,79,0
3,55,79,160
3,57,79,40
3,64,79,0
3,55,79,80
3,52,79,40
3,60,79,40
3,62,79,40
3,69,79,0
3,60,79,245
3,62,79,40
3,69,79,0
3,60,79,245
3,62,79,40
3,69,79,0
3,60,79,245
3,62,79,40
3,69,79,0
3,60,79,160
3,62,79,40
3,69,79,0
3,60,79,80
3,57,79,40
3,55,79,40
3,57,79,40
3,64,79,0
3,55,79,165
3,57,79,40
3,64,79,0
3,55,79,165
3,57,79,40
3,64,79,0
3,55,79,165
3,57,79,40
3,64,79,0
3,55,79,160
3,57,79,40
3,64,79,0
3,55,79,80
3,52,79,40
3,64,79,40
3,71,79,0
3,64,79,40
3,71,79,0
