track,note,velocity,time
3,69,113,0
3,71,109,60
3,69,0,1
3,72,95,58
3,71,0,4
3,71,99,115
3,72,0,1
3,69,95,31
3,71,0,4
3,69,0,25
3,71,101,31
3,71,0,204
3,69,70,4
3,71,93,30
3,69,0,5
3,72,101,26
3,71,0,4
3,74,97,25
3,72,0,2
3,72,71,150
3,74,0,15
3,72,0,42
3,71,101,3
3,69,107,30
3,71,0,0
3,72,99,91
3,69,0,2
3,74,105,57
3,72,0,1
3,74,0,57
3,76,99,3
3,76,0,87
3,74,105,1
3,72,101,89
3,74,0,1
3,71,90,59
3,72,0,2
3,69,92,58
3,71,0,4
3,69,0,110
3,67,81,37
3,67,0,10
3,67,103,20
3,69,101,60
3,67,0,0
3,69,0,225
3,69,109,75
3,71,111,59
3,69,0,1
3,72,105,59
3,71,0,6
3,71,99,115
3,72,0,2
3,71,0,48
3,69,90,10
3,69,0,28
3,71,107,1
3,71,0,203
3,69,76,6
3,69,0,27
3,71,105,3
3,72,99,31
3,71,0,5
3,72,0,82
3,74,92,3
3,72,99,90
3,74,0,2
3,71,97,58
3,72,0,4
3,71,0,25
3,69,99,3
3,69,0,87
3,72,86,62
3,74,109,31
3,72,0,0
3,76,103,30
3,74,0,4
3,74,103,87
3,76,0,7
3,74,0,76
3,72,90,6
3,72,0,32
3,71,103,28
3,71,0,94
3,69,101,26
3,69,0,57
3,67,90,3
3,67,0,20
3,67,105,40
3,67,0,58
3,69,95,2
3,69,0,15
3,69,81,45
3,69,0,222
3,72,81,254
3,72,0,59
3,76,113,2
3,76,0,55
3,74,107,10
3,74,0,188
3,74,111,48
3,72,67,179
3,74,0,0
3,72,0,24
3,71,70,6
3,71,0,29
3,72,111,1
3,69,82,61
3,72,0,5
3,69,0,33
3,69,90,22
3,71,93,61
3,69,0,34
3,72,82,27
3,71,0,8
3,74,95,51
3,72,0,4
3,74,0,47
3,76,92,8
3,74,77,60
3,76,0,6
3,74,0,35
3,74,97,19
3,74,0,21
3,72,97,8
3,71,101,90
3,72,0,0
3,71,0,78
3,67,87,12
3,67,0,22
3,67,75,8
3,69,107,60
3,67,0,30
3,69,0,223
3,69,92,48
3,69,0,55
3,71,101,5
3,72,93,60
3,71,0,5
3,71,97,115
3,72,0,0
3,71,0,55
3,69,71,5
3,69,0,21
3,71,103,9
3,71,0,21
3,69,109,8
3,69,0,114
3,69,77,67
3,71,101,32
3,69,0,1
3,71,0,22
3,72,91,6
3,72,0,84
3,74,109,35
3,72,99,30
3,74,0,6
3,72,0,20
3,71,86,33
3,71,0,21
3,69,101,10
3,69,0,81
3,72,95,40
3,74,111,59
3,72,0,2
3,76,107,60
3,74,0,2
3,76,0,75
3,74,109,13
3,74,0,84
3,72,83,4
3,72,0,38
3,71,101,23
3,71,0,78
3,69,109,12
3,69,0,87
3,67,97,3
3,67,0,24
3,67,103,37
3,67,0,54
3,69,95,5
3,69,0,19
3,69,86,42
3,69,0,201
3,69,109,37
3,69,0,59
3,71,107,2
3,71,0,54
3,72,111,8
3,72,0,117
3,74,109,1
3,72,87,60
3,74,0,6
3,72,0,21
3,71,86,2
3,69,109,30
3,71,0,5
3,69,0,134
3,69,69,41
3,71,107,31
3,69,0,2
3,72,103,29
3,71,0,5
3,72,0,71
3,74,97,12
3,72,97,90
3,74,0,4
3,71,97,57
3,72,0,6
3,71,0,19
3,69,103,4
3,69,0,74
3,72,105,20
3,72,0,57
3,74,101,2
3,74,0,58
3,76,105,1
3,74,113,90
3,76,0,4
3,72,105,57
3,74,0,6
3,72,0,75
3,71,103,6
3,69,101,32
3,71,0,8
3,69,0,52
3,69,87,28
3,67,92,60
3,69,0,2
3,67,0,36
3,67,95,24
3,69,87,60
3,67,0,3
3,69,0,18
3,69,86,39
3,69,0,218
3,72,119,0
3,72,0,261
3,72,117,39
3,71,115,30
3,72,0,3
3,71,0,86
3,72,107,1
3,72,0,21
3,71,121,38
3,69,117,61
3,71,0,0
3,69,0,189
3,72,121,711
3,72,0,531
3,71,115,71
3,71,0,54
3,72,103,3
3,71,111,31
3,72,0,6
3,71,0,48
3,69,111,6
3,69,0,28
3,69,117,31
3,69,0,128
3,69,113,23
3,69,0,74
3,67,83,15
3,67,0,10
3,69,115,21
3,67,97,59
3,69,0,0
3,67,0,22
3,69,109,9
3,69,0,57
3,67,105,3
3,67,0,12
3,69,121,18
3,69,0,168
3,69,113,0
3,71,113,60
3,69,0,3
3,72,109,58
3,71,0,4
3,71,105,118
3,72,0,8
3,71,0,20
3,69,107,2
3,69,0,13
3,71,113,45
3,71,0,166
3,69,83,14
3,69,0,20
3,71,119,10
3,71,0,33
3,72,117,28
3,72,0,97
3,74,111,22
3,74,0,36
3,72,111,23
3,72,0,23
3,71,109,7
3,71,0,28
3,69,105,2
3,69,0,72
3,72,111,49
3,74,117,60
3,72,0,4
3,76,111,56
3,74,0,2
3,74,103,120
3,76,0,6
3,74,0,45
3,72,99,7
3,71,103,60
3,72,0,7
3,71,0,52
3,69,101,1
3,67,101,60
3,69,0,6
3,67,0,24
3,67,103,30
3,67,0,116
3,69,105,4
3,69,0,240
3,69,113,59
3,71,113,61
3,69,0,2
3,71,0,42
3,72,113,17
3,74,111,119
3,72,0,1
3,72,101,59
3,74,0,5
3,71,93,55
3,72,0,2
3,69,111,27
3,71,0,5
3,69,0,115
3,69,92,4
3,71,113,31
3,69,0,7
3,71,0,43
3,72,105,6
3,72,0,111
3,74,101,9
3,74,0,57
3,72,92,2
3,71,101,30
3,72,0,1
3,71,0,23
3,69,107,6
3,69,0,67
3,72,99,53
3,74,113,60
3,72,0,4
3,76,109,57
3,74,0,7
3,74,107,114
3,76,0,5
3,74,0,51
3,72,105,3
3,71,107,60
3,72,0,5
3,71,0,54
3,69,103,1
3,67,105,60
3,69,0,4
3,67,0,19
3,67,117,37
3,69,119,120
3,67,0,1
3,69,0,180
3,72,119,0
3,72,0,261
3,72,117,39
3,71,115,30
3,72,0,3
3,71,0,86
3,72,107,1
3,72,0,21
3,71,121,38
3,69,117,61
3,71,0,0
3,69,0,189
3,72,121,711
3,72,0,531
3,71,115,71
3,71,0,54
3,72,103,3
3,71,111,31
3,72,0,6
3,71,0,48
3,69,111,6
3,69,0,28
3,69,117,31
3,69,0,128
3,69,113,23
3,69,0,74
3,67,83,15
3,67,0,10
3,69,115,21
3,67,97,59
3,69,0,0
3,67,0,22
3,69,109,9
3,69,0,57
3,67,105,3
3,67,0,12
3,69,121,18
3,69,0,168
3,69,113,0
3,71,113,60
3,69,0,3
3,72,109,58
3,71,0,4
3,71,105,118
3,72,0,8
3,71,0,20
3,69,107,2
3,69,0,13
3,71,113,45
3,71,0,166
3,69,83,14
3,69,0,20
3,71,119,10
3,71,0,33
3,72,117,28
3,72,0,97
3,74,111,22
3,74,0,36
3,72,111,23
3,72,0,23
3,71,109,7
3,71,0,28
3,69,105,2
3,69,0,72
3,72,111,49
3,74,117,60
3,72,0,4
3,76,111,56
3,74,0,2
3,74,103,120
3,76,0,6
3,74,0,45
3,72,99,7
3,71,103,60
3,72,0,7
3,71,0,52
3,69,101,1
3,67,101,60
3,69,0,6
3,67,0,24
3,67,103,30
3,67,0,116
3,69,105,4
3,69,0,240
3,69,113,59
3,71,113,61
3,69,0,2
3,71,0,42
3,72,113,17
3,74,111,119
3,72,0,1
3,72,101,59
3,74,0,5
3,71,93,55
3,72,0,2
3,69,111,27
3,71,0,5
3,69,0,115
3,69,92,4
3,71,113,31
3,69,0,7
3,71,0,43
3,72,105,6
3,72,0,111
3,74,101,9
3,74,0,57
3,72,92,2
3,71,101,30
3,72,0,1
3,71,0,23
3,69,107,6
3,69,0,67
3,72,99,53
3,74,113,60
3,72,0,4
3,76,109,57
3,74,0,7
3,74,107,114
3,76,0,5
3,74,0,51
3,72,105,3
3,71,107,60
3,72,0,5
3,71,0,54
3,69,103,1
3,67,105,60
3,69,0,4
3,67,0,19
3,67,117,37
3,69,119,120
3,67,0,1
3,69,0,244
3,72,117,0
3,72,0,29
3,74,97,1
3,72,93,30
3,74,0,1
3,74,95,29
3,72,0,0
3,72,105,29
3,74,0,1
3,74,95,30
3,72,0,2
3,74,0,26
3,72,103,2
3,72,0,26
3,74,105,3
3,74,0,29
3,72,109,1
3,72,0,61
3,71,113,30
3,71,0,38
3,69,115,22
3,69,0,128
3,76,111,983
3,74,105,59
3,76,0,4
3,74,0,53
3,72,99,2
3,74,103,60
3,72,0,1
3,72,107,59
3,74,0,4
3,69,95,57
3,72,0,7
3,69,0,20
3,67,105,3
3,69,117,30
3,67,0,3
3,69,0,111
3,72,109,5
3,69,70,91
3,72,0,4
3,69,0,7
3,69,111,19
3,67,95,30
3,69,0,0
3,67,0,28
3,69,117,1
3,64,65,30
3,69,0,0
3,64,0,11
3,64,111,20
3,64,0,113
3,72,87,127
3,72,0,34
3,72,103,26
3,76,105,60
3,72,0,6
3,74,105,54
3,76,0,1
3,72,103,59
3,74,0,0
3,72,0,59
3,69,109,1
3,67,105,30
3,69,0,2
3,67,0,9
3,72,117,21
3,72,0,114
3,69,121,6
3,69,0,217
3,76,111,261
3,74,101,60
3,76,0,2
3,74,0,55
3,72,107,2
3,74,95,61
3,72,0,2
3,72,107,58
3,74,0,1
3,69,111,59
3,72,0,1
3,67,101,59
3,69,0,0
3,69,109,61
3,67,0,7
3,69,0,44
3,72,109,7
3,69,81,90
3,72,0,1
3,69,0,11
3,69,105,19
3,69,0,29
3,67,97,1
3,67,0,28
3,69,113,2
3,69,0,28
3,64,65,2
3,64,0,11
3,64,99,19
3,64,0,111
3,69,80,158
3,69,0,18
3,72,115,13
3,76,95,62
3,72,0,3
3,76,0,54
3,74,111,1
3,74,0,58
3,72,97,2
3,72,0,27
3,74,107,3
3,74,0,55
3,69,83,5
3,69,0,28
3,72,115,5
3,69,82,87
3,72,0,6
3,69,0,1
3,69,109,23
3,69,0,279
3,74,80,2
3,74,0,8
3,74,109,20
3,74,0,10
3,74,119,19
3,74,0,34
3,74,117,27
3,72,111,29
3,74,0,0
3,72,0,73
3,72,115,18
3,72,0,61
3,76,123,1320
3,76,0,258
3,78,121,41
3,78,0,29
3,74,119,2
3,74,0,39
3,72,115,20
3,72,0,143
3,76,109,969
3,74,101,58
3,76,0,10
3,74,0,49
3,72,99,1
3,72,0,58
3,74,99,2
3,74,0,59
3,72,97,1
3,69,86,60
3,72,0,6
3,69,0,52
3,67,76,2
3,69,103,60
3,67,0,3
3,69,0,54
3,72,103,3
3,72,0,81
3,69,81,9
3,69,0,10
3,69,103,20
3,67,86,30
3,69,0,1
3,69,107,29
3,67,0,3
3,69,0,25
3,64,99,2
3,64,0,10
3,64,111,20
3,64,0,98
3,69,90,142
3,72,113,30
3,69,0,3
3,72,0,80
3,76,77,8
3,76,0,56
3,74,111,3
3,72,92,60
3,74,0,0
3,72,0,15
3,69,103,16
3,69,0,49
3,67,83,10
3,67,0,12
3,72,115,18
3,72,0,113
3,69,115,7
3,69,0,203
3,76,111,279
3,76,0,57
3,74,95,1
3,74,0,58
3,72,93,1
3,74,103,61
3,72,0,5
3,72,93,55
3,74,0,3
3,72,0,55
3,69,99,2
3,67,90,59
3,69,0,3
3,69,101,27
3,67,0,2
3,72,107,90
3,69,0,4
3,72,0,73
3,69,97,42
3,67,87,30
3,69,0,2
3,69,103,28
3,67,0,1
3,69,0,26
3,64,89,3
3,64,0,13
3,64,107,17
3,64,0,111
3,72,80,131
3,72,0,31
3,72,107,27
3,76,103,60
3,72,0,6
3,76,0,50
3,74,99,4
3,72,85,60
3,74,0,3
3,72,0,55
3,69,103,2
3,69,0,58
3,72,111,2
3,72,0,119
3,69,113,2
3,69,0,18
3,69,117,41
3,69,0,291
3,71,119,306
3,69,115,242
3,71,0,1
3,69,0,353
3,81,109,2
3,81,0,29
3,81,115,28
3,81,0,36
3,81,80,22
3,81,0,8
3,84,117,24
3,84,0,89
3,83,93,2
3,83,0,56
3,81,109,2
3,79,85,61
3,81,0,2
3,79,0,8
3,81,117,19
3,81,0,130
3,81,113,440
3,81,0,38
3,81,105,25
3,81,0,8
3,81,115,19
3,81,0,70
3,84,117,21
3,84,0,56
3,83,87,4
3,83,0,16
3,81,109,12
3,81,0,16
3,83,107,14
3,83,0,92
3,83,113,32
3,81,109,57
3,83,0,0
3,81,0,154
3,81,111,326
3,81,0,36
3,81,109,26
3,81,0,30
3,81,76,28
3,81,0,10
3,88,111,20
3,86,103,92
3,88,0,0
3,84,99,58
3,86,0,1
3,83,97,30
3,84,0,0
3,83,0,32
3,83,113,27
3,84,101,88
3,83,0,0
3,84,0,24
3,83,103,9
3,83,0,19
3,81,93,13
3,81,0,173
3,81,109,246
3,81,0,33
3,81,109,26
3,81,0,31
3,81,103,28
3,81,0,47
3,88,113,16
3,88,0,56
3,86,105,1
3,84,99,60
3,86,0,4
3,84,0,54
3,83,103,2
3,83,0,32
3,83,97,28
3,83,0,58
3,81,101,4
3,81,0,157
3,81,113,322
3,81,0,40
3,81,111,19
3,81,0,38
3,81,68,22
3,81,0,8
3,84,113,22
3,84,0,82
3,83,93,9
3,81,107,58
3,83,0,3
3,81,0,57
3,83,88,31
3,83,0,5
3,83,105,28
3,81,109,57
3,83,0,0
3,81,0,163
3,81,107,317
3,81,0,36
3,81,109,24
3,81,0,32
3,81,111,28
3,81,0,23
3,84,107,37
3,84,0,24
3,83,101,6
3,83,0,76
3,81,109,15
3,81,0,21
3,83,103,8
3,83,0,30
3,83,111,30
3,83,0,87
3,81,111,2
3,81,0,212
3,81,109,272
3,81,0,42
3,81,109,17
3,81,0,34
3,81,81,24
3,81,0,10
3,84,119,20
3,83,81,92
3,84,0,0
3,83,0,10
3,83,99,18
3,83,0,62
3,81,107,28
3,79,99,30
3,81,0,0
3,79,0,29
3,81,119,1
3,81,0,177
3,81,113,365
3,81,0,39
3,81,105,21
3,81,0,12
3,81,107,18
3,81,0,22
3,88,119,35
3,88,0,91
3,86,109,2
3,84,92,58
3,86,0,0
3,84,0,29
3,86,111,2
3,86,0,31
3,88,109,28
3,86,111,90
3,88,0,1
3,84,87,119
3,86,0,7
3,83,99,22
3,84,0,2
3,83,0,165
3,81,52,166
3,81,0,20
3,81,111,38
3,81,0,39
3,81,109,20
3,81,0,14
3,84,111,16
3,84,0,113
3,81,74,8
3,81,0,11
3,84,119,19
3,84,0,39
3,84,109,24
3,84,0,35
3,84,106,22
3,84,0,505
3,72,111,3579
3,74,113,118
3,72,0,0
3,74,0,117
3,76,103,1
3,76,0,115
3,74,89,3
3,72,97,120
3,74,0,5
3,71,86,120
3,72,0,0
3,72,97,123
3,71,0,6
3,71,90,58
3,72,0,4
3,71,0,56
3,69,69,2
3,69,0,26
3,67,95,4
3,67,0,246
3,67,99,70
3,72,89,115
3,67,0,1
3,72,0,62
3,67,61,4
3,69,89,63
3,67,0,0
3,69,0,467
4,40,123,0
4,40,0,1
4,40,115,4
4,40,0,1
4,45,119,59
4,45,0,1
4,43,113,59
4,43,0,1
4,36,109,58
4,36,0,1
4,49,121,59
4,36,113,1
4,49,0,0
4,36,0,1
4,42,105,116
4,40,117,1
4,42,0,0
4,40,0,1
4,44,95,60
4,44,0,1
4,36,109,57
4,42,101,0
4,42,0,1
4,36,0,0
4,44,92,59
4,44,0,1
4,42,117,59
4,40,115,1
4,42,0,0
4,40,0,1
4,44,93,60
4,44,0,1
4,42,111,57
4,42,0,1
4,36,105,1
4,36,0,1
4,44,89,58
4,44,0,1
4,42,113,57
4,40,113,1
4,42,0,0
4,40,0,1
4,44,62,61
4,44,0,1
4,42,107,57
4,42,0,1
4,36,101,1
4,36,0,1
4,36,99,58
4,44,80,1
4,36,0,0
4,44,0,1
4,42,109,57
4,42,0,1
4,40,115,1
4,40,0,1
4,44,99,57
4,44,0,1
4,36,90,1
4,36,0,1
4,36,103,59
4,42,101,0
4,42,0,1
4,36,0,0
4,44,78,59
4,44,0,1
4,40,113,57
4,42,111,0
