track,note,velocity,time
1,64,110,10495
1,64,0,60
1,69,110,0
1,69,0,115
1,71,110,3
1,71,0,115
1,74,110,3
1,74,0,180
1,76,110,0
1,76,0,60
1,76,110,0
1,76,0,120
1,69,110,0
1,69,0,240
1,67,110,0
1,67,0,60
1,69,110,0
1,69,0,115
1,69,110,5
1,69,0,60
1,69,110,0
1,69,0,175
1,72,110,5
1,72,0,60
1,69,110,0
1,69,0,295
1,64,110,185
1,64,0,60
1,69,110,0
1,69,0,120
1,69,110,0
1,69,0,60
1,72,110,0
1,72,0,235
1,74,110,5
1,74,0,60
1,74,110,0
1,74,0,54
1,76,110,2
1,76,0,60
1,69,110,0
1,69,0,240
1,69,110,0
1,69,0,60
1,76,110,0
1,76,0,115
1,76,110,5
1,76,0,60
1,74,110,0
1,74,0,180
1,76,110,0
1,76,0,60
1,72,110,0
1,72,0,780
1,64,110,1620
1,64,0,60
1,69,110,0
1,69,0,120
1,69,110,0
1,69,0,120
1,72,110,0
1,72,0,120
1,74,110,0
1,74,0,60
1,76,110,0
1,76,0,180
1,69,110,0
1,69,0,60
1,69,110,0
1,69,0,240
1,69,110,0
1,69,0,60
1,76,110,0
1,76,0,120
1,76,110,0
1,76,0,60
1,74,110,0
1,74,0,120
1,72,110,0
1,72,0,115
1,74,110,3
1,74,0,174
1,76,110,1922
1,76,0,120
1,76,110,0
1,76,0,60
1,74,110,0
1,74,0,240
1,76,110,0
1,76,0,60
1,76,110,0
1,76,0,120
1,76,110,0
1,76,0,60
1,74,110,0
1,74,0,240
1,74,110,0
1,74,0,30
1,74,110,0
1,74,0,30
1,76,110,0
1,76,0,120
1,76,110,0
1,76,0,60
1,72,110,0
1,72,0,180
1,74,110,0
1,74,0,55
1,74,110,2
1,74,0,1
1,71,110,2
1,71,0,432
1,76,110,119
1,76,0,360
1,76,110,0
1,76,0,960
1,69,110,1320
1,69,0,60
1,72,110,0
1,72,0,240
1,62,110,0
1,62,0,60
1,62,110,0
1,62,0,2
1,69,110,2
1,69,0,53
1,69,110,0
1,69,0,60
1,69,110,0
1,69,0,120
1,69,110,0
1,69,0,180
1,76,110,0
1,76,0,120
1,69,110,0
1,69,0,60
1,69,110,0
1,69,0,60
1,69,110,0
1,69,0,60
1,69,110,0
1,69,0,60
1,69,110,0
1,69,0,56
1,67,110,2
1,67,0,240
1,71,110,355
1,71,0,60
1,74,110,0
1,74,0,120
1,74,110,0
1,74,0,60
1,74,110,0
1,74,0,60
1,71,110,0
1,71,0,60
1,69,110,0
1,69,0,53
1,67,110,2
1,67,0,60
1,67,110,0
1,67,0,60
1,67,110,0
1,67,0,60
1,69,110,0
1,69,0,60
1,67,110,0
1,67,0,115
1,71,110,5
1,71,0,60
1,71,110,0
1,71,0,60
1,71,110,0
1,71,0,60
1,71,110,0
1,71,0,60
1,74,110,0
1,74,0,115
1,71,110,5
1,71,0,115
1,69,110,5
1,69,0,179
1,69,110,176
1,69,0,60
1,69,110,0
1,69,0,60
1,69,110,0
1,69,0,120
1,72,110,0
1,72,0,180
1,74,110,0
1,74,0,60
1,76,110,0
1,76,0,120
1,76,110,0
1,76,0,120
1,76,110,0
1,76,0,60
1,81,110,0
1,81,0,300
1,81,110,0
1,81,0,60
1,74,110,0
1,74,0,60
1,74,110,0
1,74,0,60
1,72,110,0
1,72,0,60
1,74,110,0
1,74,0,120
1,76,110,0
1,76,0,300
1,69,110,180
1,69,0,60
1,69,110,0
1,69,0,120
1,69,110,0
1,69,0,120
1,72,110,0
1,72,0,120
1,74,110,0
1,74,0,120
1,76,110,0
1,76,0,120
1,76,110,0
1,76,0,60
1,76,110,0
1,76,0,240
1,72,110,0
1,72,0,60
1,76,110,0
1,76,0,120
1,76,110,0
1,76,0,60
1,72,110,0
1,72,0,180
1,72,110,0
1,72,0,60
1,76,110,0
1,76,0,300
1,84,120,0
1,84,0,240
1,81,120,0
1,81,0,480
1,69,110,1380
1,69,0,60
1,69,110,0
1,69,0,60
1,69,110,0
1,69,0,120
1,72,110,0
1,72,0,240
1,74,110,0
1,74,0,60
1,76,110,0
1,76,0,120
1,76,110,0
1,76,0,60
1,74,110,0
1,74,0,175
1,72,110,2
1,72,0,60
1,76,110,0
1,76,0,60
1,76,110,0
1,76,0,120
1,72,110,0
1,72,0,180
1,72,110,0
1,72,0,60
1,76,110,0
1,76,0,900
1,84,110,0
1,84,0,240
1,81,110,0
1,81,0,360
1,72,110,900
1,72,0,60
1,76,110,0
1,76,0,60
1,76,110,0
1,76,0,120
1,74,110,0
1,74,0,240
1,72,110,0
1,72,0,60
1,76,110,0
1,76,0,60
1,76,110,0
1,76,0,120
1,74,110,0
1,74,0,240
1,72,110,0
1,72,0,60
1,76,110,0
1,76,0,60
1,76,110,0
1,76,0,120
1,74,110,0
1,74,0,117
1,72,110,3
1,72,0,60
1,76,120,0
1,76,0,540
1,83,110,2
1,83,0,177
1,77,110,1
1,77,0,355
1,76,120,2
1,76,0,116
1,69,120,2
1,69,0,960
1,72,110,1080
1,72,0,60
1,67,110,0
1,67,0,240
1,62,110,0
1,62,0,60
1,62,110,0
1,62,0,60
1,69,110,0
1,69,0,60
1,69,110,0
1,69,0,60
1,69,110,0
1,69,0,240
1,69,110,0
1,69,0,60
1,76,110,0
1,76,0,60
1,69,110,0
1,69,0,60
1,67,110,0
1,67,0,60
1,69,110,0
1,69,0,120
1,69,110,0
1,69,0,60
1,64,110,0
1,64,0,55
1,67,110,2
1,67,0,240
1,71,110,355
1,71,0,60
1,74,110,0
1,74,0,120
1,74,110,0
1,74,0,60
1,71,110,0
1,71,0,60
1,69,110,0
1,69,0,120
1,67,110,0
1,67,0,420
1,71,110,0
1,71,0,60
1,71,110,0
1,71,0,60
1,71,110,0
1,71,0,60
1,71,110,0
1,71,0,60
1,74,110,0
1,74,0,120
1,71,110,0
1,71,0,120
1,69,110,0
1,69,0,182
1,69,110,176
1,69,0,60
1,69,110,0
1,69,0,60
1,69,110,0
1,69,0,120
1,72,110,0
1,72,0,240
1,74,110,0
1,74,0,60
1,76,110,0
1,76,0,60
1,76,110,0
1,76,0,120
1,72,110,0
1,72,0,180
1,72,110,0
1,72,0,60
1,76,110,0
1,76,0,180
1,76,110,0
1,76,0,60
1,74,110,0
1,74,0,180
1,72,110,0
1,72,0,60
1,76,110,0
1,76,0,300
1,69,110,180
1,69,0,60
1,69,110,0
1,69,0,120
1,69,110,0
1,69,0,60
1,72,110,0
1,72,0,240
1,74,110,0
1,74,0,60
1,76,110,0
1,76,0,120
1,76,110,0
1,76,0,60
1,76,110,0
1,76,0,174
1,72,110,2
1,72,0,60
1,76,110,0
1,76,0,60
1,76,110,0
1,76,0,180
1,72,110,0
1,72,0,120
1,74,110,0
1,74,0,60
1,76,110,0
1,76,0,300
1,84,120,0
1,84,0,240
1,81,120,0
1,81,0,480
1,84,110,360
1,84,0,60
1,81,120,0
1,81,0,300
1,76,110,660
1,76,0,60
1,76,110,0
1,76,0,60
1,76,110,0
1,76,0,120
1,76,110,0
1,76,0,240
1,74,110,0
1,74,0,60
1,76,110,0
1,76,0,60
1,76,110,0
1,76,0,120
1,76,110,0
1,76,0,240
1,72,110,0
1,72,0,60
1,76,110,0
1,76,0,120
1,76,110,0
1,76,0,60
1,74,110,0
1,74,0,180
1,74,110,0
1,74,0,60
1,76,110,0
1,76,0,540
1,67,120,1860
1,67,0,60
1,69,110,0
1,69,0,60
1,69,110,0
1,69,0,120
1,72,110,0
1,72,0,240
1,74,110,0
1,74,0,60
1,76,110,0
1,76,0,60
1,76,110,0
1,76,0,120
1,76,110,0
1,76,0,180
1,72,110,0
1,72,0,60
1,76,110,0
1,76,0,180
1,76,110,0
1,76,0,60
1,72,110,0
1,72,0,120
1,72,110,0
1,72,0,120
1,76,110,0
1,76,0,540
1,72,110,3960
1,72,0,60
1,72,110,0
1,72,0,240
1,64,110,0
1,64,0,55
1,64,110,2
1,64,0,54
1,69,110,2
1,69,0,60
1,69,110,0
1,69,0,120
1,69,110,0
1,69,0,120
1,69,110,0
1,69,0,56
1,71,110,2
1,71,0,56
1,67,110,2
1,67,0,60
1,69,110,0
1,69,0,120
1,69,110,0
1,69,0,60
1,64,110,0
1,64,0,55
1,67,110,3
1,67,0,240
1,71,110,358
1,71,0,55
1,74,110,5
1,74,0,180
1,71,110,0
1,71,0,55
1,71,110,5
1,71,0,55
1,69,110,5
1,69,0,55
1,67,110,5
1,67,0,55
1,67,110,5
1,67,0,55
1,67,110,5
1,67,0,115
1,64,110,5
1,64,0,115
1,67,110,5
1,67,0,55
1,71,110,5
1,71,0,55
1,71,110,5
1,71,0,180
1,74,110,0
1,74,0,240
1,74,110,0
1,74,0,60
1,74,110,0
1,74,0,59
1,71,110,0
1,71,0,1
1,74,110,2
1,74,0,907
1,74,110,60
1,74,0,240
1,74,110,5
1,74,0,2
1,69,110,0
1,69,0,180
1,76,110,0
1,76,0,3840
1,64,110,0
1,64,0,1920
1,81,110,1800
1,81,0,90
1,81,100,0
1,81,0,30
1,81,120,0
1,81,0,120
1,81,110,180
1,81,0,60
1,81,110,0
1,81,0,60
1,81,120,0
1,81,0,180
1,81,110,240
1,81,0,60
1,81,100,0
1,81,0,60
1,81,120,0
1,81,0,120
1,81,110,180
1,81,0,60
1,81,100,0
1,81,0,60
1,81,120,0
1,81,0,180
1,81,110,180
1,81,0,60
1,81,100,0
1,81,0,60
1,81,120,0
1,81,0,180
1,81,110,180
1,81,0,60
1,81,100,0
1,81,0,60
1,81,120,0
1,81,0,180
1,84,110,180
1,84,0,60
1,84,100,0
1,84,0,60
1,81,120,0
1,81,0,180
1,84,110,180
1,84,0,60
1,84,100,0
1,84,0,60
1,81,120,0
1,81,0,180
1,84,110,480
1,84,0,120
1,81,100,0
1,81,0,120
1,84,110,0
1,84,0,120
1,81,100,0
1,81,0,120
1,84,110,0
1,84,0,120
1,81,100,0
1,81,0,120
1,84,120,0
1,84,0,120
1,84,110,120
1,84,0,120
1,81,110,0
1,81,0,120
1,84,110,0
1,84,0,120
1,81,110,0
1,81,0,120
1,84,110,0
1,84,0,120
1,81,110,0
1,81,0,60
1,81,110,0
1,81,0,60
1,81,100,0
1,81,0,60
1,81,120,0
1,81,0,180
1,81,110,180
1,81,0,60
1,81,100,0
1,81,0,60
1,81,120,0
1,81,0,180
1,84,110,180
1,84,0,60
1,84,100,0
1,84,0,60
1,81,120,0
1,81,0,180
1,84,110,180
1,84,0,60
1,84,100,0
1,84,0,60
1,81,120,0
1,81,0,180
1,88,110,480
1,88,0,120
1,81,110,0
1,81,0,120
1,81,110,0
1,81,0,120
1,81,110,0
1,81,0,120
1,79,110,0
1,79,0,120
1,81,110,0
1,81,0,120
1,84,110,0
1,84,0,120
1,88,110,120
1,88,0,120
1,81,110,0
1,81,0,120
1,81,110,0
1,81,0,120
1,81,110,0
1,81,0,120
1,79,110,0
1,79,0,120
1,81,110,0
1,81,0,120
1,84,110,0
1,84,0,60
1,84,110,0
1,84,0,60
1,84,100,60
1,84,0,60
1,84,110,0
1,84,0,120
1,84,100,0
1,84,0,60
1,84,110,0
1,84,0,120
1,84,100,0
1,84,0,60
1,84,110,0
1,84,0,120
1,81,100,0
1,81,0,60
1,84,110,0
1,84,0,120
1,81,100,0
1,81,0,60
1,84,110,0
1,84,0,120
1,81,100,0
1,81,0,60
1,84,110,0
1,84,0,120
1,81,100,0
1,81,0,60
1,84,110,0
1,84,0,120
1,81,100,0
1,81,0,60
1,84,110,0
1,84,0,120
1,81,100,0
1,81,0,60
1,84,110,0
1,84,0,120
1,81,100,0
1,81,0,60
1,84,110,0
1,84,0,120
1,81,100,0
1,81,0,55
1,83,120,2
1,83,0,360
2,81,110,14270
2,81,0,53
2,83,110,3
2,83,0,60
2,81,110,0
2,81,0,60
2,79,110,0
2,79,0,60
2,81,110,0
2,81,0,120
2,81,110,0
2,81,0,60
2,81,110,0
2,81,0,120
2,83,110,120
2,83,0,60
2,81,110,0
2,81,0,60
2,79,110,0
2,79,0,60
2,81,105,0
2,81,0,420
2,79,90,0
2,79,0,120
2,81,90,0
2,81,0,600
2,81,110,960
2,81,0,600
2,81,110,0
2,81,0,60
2,81,110,0
2,81,0,60
2,79,110,0
2,79,0,60
2,81,110,0
2,81,0,240
2,81,110,0
2,81,0,60
2,81,110,0
2,81,0,235
2,76,110,2
2,76,0,60
2,76,110,0
2,76,0,60
2,76,110,0
2,76,0,60
2,76,110,0
2,76,0,60
2,76,110,0
2,76,0,120
2,76,100,0
2,76,0,600
2,84,110,1680
2,84,0,117
2,81,110,5
2,81,0,117
2,74,110,3
2,74,0,474
2,76,100,1081
2,76,0,60
2,79,100,0
2,79,0,240
2,79,100,0
2,79,0,60
2,78,100,0
2,78,0,120
2,78,100,0
2,78,0,60
2,78,100,0
2,78,0,120
2,78,100,0
2,78,0,180
2,79,100,0
2,79,0,120
2,79,100,0
2,79,0,60
2,79,100,0
2,79,0,60
2,79,100,0
2,79,0,60
2,79,100,0
2,79,0,60
2,79,100,0
2,79,0,60
2,78,100,0
2,78,0,300
2,79,100,360
2,79,0,60
2,79,100,0
2,79,0,120
2,79,100,0
2,79,0,60
2,79,100,0
2,79,0,60
2,79,100,0
2,79,0,60
2,79,100,0
2,79,0,120
2,79,100,0
2,79,0,60
2,79,100,0
2,79,0,60
2,79,100,0
2,79,0,60
2,77,100,0
2,77,0,60
2,76,100,0
2,76,0,120
2,79,100,0
2,79,0,60
2,79,100,0
2,79,0,60
2,79,100,0
2,79,0,60
2,79,100,0
2,79,0,60
2,79,100,0
2,79,0,120
2,79,100,0
2,79,0,120
2,79,100,0
2,79,0,240
2,84,120,3720
2,84,0,840
2,84,110,0
2,84,0,60
2,81,110,0
2,81,0,60
2,81,110,0
2,81,0,60
2,81,110,0
2,81,0,120
2,81,110,0
2,81,0,60
2,81,110,0
2,81,0,237
2,76,110,2
2,76,0,60
2,76,110,0
2,76,0,60
2,76,110,0
2,76,0,60
2,76,110,0
2,76,0,120
2,76,110,0
2,76,0,60
2,76,100,0
2,76,0,595
2,74,90,1445
2,74,0,480
2,81,110,0
2,81,0,60
2,81,110,0
2,81,0,60
2,81,110,0
2,81,0,60
2,84,110,0
2,84,0,60
2,84,110,0
2,84,0,60
2,81,110,0
2,81,0,234
2,79,110,3
2,79,0,60
2,79,110,0
2,79,0,60
2,79,110,0
2,79,0,55
2,77,110,2
2,77,0,54
2,76,110,3
2,76,0,175
2,76,100,5
2,76,0,480
2,84,110,1200
2,84,0,1197
2,79,100,2
2,79,0,59
2,76,100,2
2,76,0,1080
2,79,100,1080
2,79,0,60
2,79,100,0
2,79,0,240
2,78,100,0
2,78,0,60
2,78,100,0
2,78,0,120
2,78,100,0
2,78,0,60
2,78,100,0
2,78,0,240
2,78,100,0
2,78,0,60
2,79,100,0
2,79,0,120
2,79,100,0
2,79,0,60
2,79,100,0
2,79,0,120
2,79,100,0
2,79,0,120
2,78,100,0
2,78,0,300
2,79,100,360
2,79,0,60
2,79,100,0
2,79,0,120
2,79,100,0
2,79,0,60
2,79,100,0
2,79,0,60
2,79,100,0
2,79,0,120
2,79,100,0
2,79,0,420
2,79,100,0
2,79,0,60
2,79,100,0
2,79,0,60
2,79,100,0
2,79,0,60
2,79,100,0
2,79,0,60
2,79,100,0
2,79,0,120
2,79,100,0
2,79,0,120
2,79,100,0
2,79,0,240
2,84,120,3840
2,84,0,720
2,84,110,0
2,84,0,60
2,83,110,0
2,83,0,60
2,81,110,0
2,81,0,60
2,81,110,0
2,81,0,120
2,81,110,0
2,81,0,60
2,81,100,0
2,81,0,480
2,79,110,120
2,79,0,60
2,79,110,0
2,79,0,120
2,76,110,0
2,76,0,60
2,76,110,0
2,76,0,60
2,76,110,0
2,76,0,60
2,76,100,0
2,76,0,1560
2,79,90,0
2,79,0,840
2,74,110,120
2,74,0,60
2,74,110,0
2,74,0,60
2,74,110,0
2,74,0,60
2,76,110,0
2,76,0,120
2,79,110,0
2,79,0,60
