track,note,velocity,time
1,69,100,2520
1,69,0,60
1,69,100,0
1,69,0,60
1,69,100,0
1,69,0,60
1,69,100,0
1,69,0,30
1,69,100,0
1,69,0,30
1,69,100,240
1,69,0,60
1,69,100,0
1,69,0,30
1,72,100,0
1,72,0,150
1,69,100,0
1,69,0,120
1,69,100,120
1,69,0,60
1,69,100,0
1,69,0,60
1,69,100,0
1,69,0,60
1,69,100,7
1,69,0,120
1,69,100,113
1,69,0,60
1,72,100,0
1,72,0,60
1,71,100,0
1,71,0,60
1,69,100,0
1,69,0,90
1,69,100,0
1,69,0,90
1,66,100,0
1,66,0,60
1,66,100,60
1,66,0,60
1,69,100,0
1,69,0,60
1,71,100,0
1,71,0,90
1,69,100,0
1,69,0,90
1,69,100,300
1,69,0,60
1,72,100,0
1,72,0,30
1,72,100,0
1,72,0,90
1,71,100,0
1,71,0,30
1,69,100,0
1,69,0,60
1,69,100,1
1,69,0,150
1,71,100,749
1,71,0,30
1,71,100,0
1,71,0,60
1,73,100,0
1,73,0,90
1,71,100,0
1,71,0,30
1,71,100,0
1,71,0,60
1,71,100,0
1,71,0,60
1,73,100,0
1,73,0,90
1,71,100,0
1,71,0,90
1,69,100,270
1,69,0,30
1,72,100,0
1,72,0,30
1,72,100,1
1,72,0,60
1,69,100,2
1,69,100,87
1,69,0,3
1,69,0,57
1,71,100,0
1,71,0,30
1,69,100,7
1,69,0,90
1,69,100,953
1,69,0,60
1,69,100,0
1,69,0,60
1,69,100,0
1,69,0,60
1,69,100,0
1,69,0,30
1,69,100,0
1,69,0,30
1,69,100,240
1,69,0,60
1,69,100,0
1,69,0,30
1,72,100,0
1,72,0,150
1,69,100,0
1,69,0,120
1,69,100,120
1,69,0,60
1,69,100,0
1,69,0,60
1,69,100,0
1,69,0,60
1,69,100,7
1,69,0,120
1,69,100,113
1,69,0,60
1,72,100,0
1,72,0,60
1,71,100,0
1,71,0,60
1,69,100,0
1,69,0,90
1,69,100,0
1,69,0,90
1,66,100,0
1,66,0,60
1,66,100,60
1,66,0,60
1,69,100,0
1,69,0,60
1,71,100,0
1,71,0,90
1,69,100,0
1,69,0,90
1,69,100,300
1,69,0,60
1,72,100,0
1,72,0,30
1,72,100,0
1,72,0,90
1,71,100,0
1,71,0,30
1,69,100,0
1,69,0,60
1,69,100,1
1,69,0,150
1,71,100,929
1,71,0,30
1,71,100,0
1,71,0,60
1,71,100,0
1,71,0,60
1,73,100,0
1,73,0,90
1,71,100,0
1,71,0,90
1,69,100,270
1,69,0,30
1,72,100,0
1,72,0,30
1,72,100,1
1,72,0,60
1,69,100,2
1,69,100,87
1,69,0,3
1,69,0,57
1,71,100,0
1,71,0,30
1,69,100,7
1,69,0,90
1,66,100,893
1,66,0,30
1,69,100,0
1,69,0,90
1,69,100,0
1,69,0,60
1,71,100,0
1,71,0,60
1,69,100,0
1,69,0,60
1,69,100,0
1,69,0,60
1,69,100,0
1,69,0,60
1,66,100,120
1,66,0,60
1,69,100,0
1,69,0,30
1,69,100,0
1,69,0,150
1,64,100,210
1,64,0,30
1,66,100,0
1,66,0,30
1,69,100,0
1,69,0,30
1,69,100,0
1,69,0,30
1,71,100,7
1,69,100,58
1,71,0,2
1,69,100,57
1,69,0,1
1,69,100,50
1,69,0,9
1,69,0,81
1,64,100,65
1,64,0,30
1,66,100,0
1,66,0,30
1,69,100,0
1,69,0,60
1,69,100,0
1,69,0,180
1,69,100,180
1,69,0,30
1,72,100,0
1,72,100,59
1,72,0,1
1,72,0,59
1,71,100,4
1,69,100,56
1,71,0,4
1,69,0,86
1,72,100,361
1,72,0,30
1,72,100,0
1,72,0,30
1,72,100,0
1,72,0,30
1,71,100,0
1,71,0,30
1,69,100,0
1,69,0,60
1,69,100,0
1,69,0,30
1,69,100,0
1,69,0,90
1,72,100,840
1,72,0,30
1,72,100,0
1,72,0,30
1,71,100,0
1,71,0,120
1,71,100,0
1,71,0,60
1,71,100,0
1,71,0,180
1,72,100,360
1,72,0,30
1,72,100,0
1,72,0,30
1,69,100,0
1,69,0,30
1,72,100,7
1,69,100,55
1,72,0,5
1,69,100,23
1,69,0,2
1,69,0,58
1,69,100,0
1,69,0,120
1,72,100,527
1,72,0,60
1,69,100,13
1,69,0,60
1,72,100,11
1,69,100,49
1,72,0,11
1,69,0,109
1,66,100,5790
1,66,0,30
1,69,100,0
1,69,0,90
1,69,100,0
1,69,0,60
1,71,100,0
1,71,0,60
1,69,100,0
1,69,0,60
1,69,100,0
1,69,0,60
1,69,100,0
1,69,0,60
1,66,100,120
1,66,0,60
1,69,100,0
1,69,0,30
1,69,100,0
1,69,0,150
1,64,100,210
1,64,0,30
1,66,100,0
1,66,0,30
1,69,100,0
1,69,0,30
1,69,100,0
1,69,0,30
1,71,100,7
1,69,100,58
1,71,0,2
1,69,100,57
1,69,0,1
1,69,100,50
1,69,0,9
1,69,0,81
1,64,100,65
1,64,0,30
1,66,100,0
1,66,0,30
1,69,100,0
1,69,0,60
1,69,100,0
1,69,0,180
1,69,100,180
1,69,0,30
1,72,100,0
1,72,100,59
1,72,0,1
1,72,0,59
1,71,100,4
1,69,100,56
1,71,0,4
1,69,0,86
1,72,100,361
1,72,0,30
1,72,100,0
1,72,0,30
1,72,100,0
1,72,0,30
1,71,100,0
1,71,0,30
1,69,100,0
1,69,0,60
1,69,100,0
1,69,0,30
1,69,100,0
1,69,0,90
1,72,100,840
1,72,0,30
1,72,100,0
1,72,0,30
1,71,100,0
1,71,0,120
1,71,100,0
1,71,0,60
1,71,100,0
1,71,0,180
1,72,100,360
1,72,0,30
1,72,100,0
1,72,0,30
1,69,100,0
1,69,0,30
1,72,100,7
1,69,100,55
1,72,0,5
1,69,100,23
1,69,0,2
1,69,0,58
1,69,100,0
1,69,0,120
1,69,100,656
1,69,0,60
1,69,100,1023
1,69,0,60
1,73,100,1
1,73,0,30
1,73,100,0
1,73,0,30
1,73,100,0
1,73,0,30
1,73,100,0
1,73,0,60
1,71,100,1
1,69,100,28
1,71,0,2
1,69,100,56
1,69,0,2
1,69,0,58
1,69,100,3
1,71,100,58
1,69,0,2
1,71,0,58
1,69,100,8
1,69,0,60
1,69,100,413
1,69,0,60
1,73,100,1
1,73,0,30
1,73,100,0
1,73,0,30
1,73,100,0
1,73,0,30
1,73,100,0
1,73,0,60
1,71,100,1
1,69,100,28
1,71,0,2
1,69,100,56
1,69,0,2
1,69,0,58
1,69,100,3
1,71,100,58
1,69,0,2
1,71,0,58
1,69,100,8
1,69,0,60
1,69,100,413
1,69,0,60
1,73,100,0
1,73,0,14
1,73,100,0
1,73,0,10
1,73,100,0
1,73,0,7
1,73,100,0
1,73,0,17
1,71,100,1
1,69,100,13
1,71,0,2
1,69,100,4
1,69,0,2
1,69,0,14
1,69,100,0
1,71,100,8
1,69,0,2
1,71,0,1
1,69,100,8
1,69,0,3
1,69,100,15
1,69,0,8
1,73,100,1
1,73,0,6
1,73,100,0
1,73,0,3
1,73,100,0
1,73,0,16
1,73,100,0
1,73,0,9
1,71,100,1
1,69,100,5
1,71,0,2
1,69,100,13
1,69,0,2
1,69,0,6
1,69,100,3
1,71,100,0
1,69,0,2
1,71,0,10
1,69,100,1
1,69,0,11
2,76,100,30690
2,76,0,49
2,76,100,0
2,76,0,12
2,74,100,0
2,74,0,67
2,76,100,4
2,74,100,25
2,76,0,4
2,74,0,26
2,76,100,4
2,76,0,11
2,69,100,38
2,69,0,30
2,76,100,1
2,76,0,12
2,73,100,58
2,69,100,4
2,69,100,52
2,73,0,4
2,73,100,2
2,69,0,2
2,69,0,22
2,73,0,6
2,69,100,0
2,73,100,0
2,69,100,54
2,73,0,6
2,69,0,0
2,73,100,0
2,69,0,24
2,69,100,2
2,73,100,2
2,73,0,2
2,69,0,56
2,73,0,2
2,69,100,26
2,73,100,8
2,69,0,22
2,73,100,2
2,69,100,2
2,73,0,4
2,73,100,51
2,73,0,3
2,69,0,2
2,69,100,0
2,73,0,55
2,69,0,5
2,73,100,60
2,69,100,4
2,69,100,52
2,73,0,4
2,73,100,2
2,69,0,2
2,69,0,22
2,73,0,6
2,69,100,0
2,73,100,0
2,69,100,54
2,73,0,6
2,69,0,0
2,73,100,0
2,69,0,24
2,69,100,2
2,73,100,2
2,73,0,2
2,69,0,56
2,73,0,2
2,69,100,26
2,73,100,8
2,69,0,22
2,73,100,2
2,69,100,2
2,73,0,4
2,73,100,51
2,73,0,3
2,69,0,2
2,69,100,0
2,73,0,55
2,69,0,5
2,73,100,60
2,69,100,4
2,69,100,52
2,73,0,4
2,73,100,2
2,69,0,2
2,69,0,22
2,73,0,6
2,69,100,0
2,73,100,0
2,69,100,54
2,73,0,6
2,69,0,0
2,73,100,0
2,69,0,24
2,69,100,2
2,73,100,2
2,73,0,2
2,69,0,56
2,73,0,2
2,69,100,26
2,73,100,8
2,69,0,22
2,73,100,2
2,69,100,2
2,73,0,4
2,73,100,51
2,73,0,3
2,69,0,2
2,69,100,0
2,73,0,55
2,69,0,5
2,69,100,28
2,69,0,30
2,76,100,0
2,76,0,12
2,73,100,12
2,69,100,1
2,69,100,8
2,73,0,4
2,73,100,2
2,69,0,1
2,69,0,7
2,73,0,6
2,73,100,0
2,69,100,0
2,69,100,7
2,69,0,6
2,73,0,0
2,73,100,0
2,69,0,7
2,69,100,2
2,73,100,2
2,73,0,2
2,69,0,8
2,73,0,2
2,69,100,6
2,73,100,8
2,69,0,6
2,73,100,2
2,69,100,2
2,73,0,4
2,73,100,4
2,73,0,3
2,69,0,2
2,69,100,0
2,73,0,4
2,69,0,5
2,73,100,9
2,69,100,4
2,69,100,4
2,73,0,4
2,73,100,2
2,69,0,2
2,69,0,4
2,73,0,6
2,69,100,0
2,73,100,0
2,69,100,3
2,73,0,6
2,69,0,0
2,73,100,0
2,69,0,3
2,69,100,2
2,73,100,2
2,73,0,2
2,69,0,5
2,73,0,2
2,69,100,3
2,73,100,8
2,69,0,2
2,73,100,2
2,69,100,2
2,73,0,4
2,73,100,1
2,73,0,3
2,69,0,2
2,69,100,0
2,73,0,16
2,69,0,5
2,73,100,5
2,69,100,4
2,69,100,1
2,73,0,4
2,73,100,2
2,69,0,2
2,69,0,15
2,73,0,6
2,69,100,0
2,73,100,0
2,69,100,0
2,73,0,6
2,69,0,0
2,73,100,0
2,69,0,15
2,69,100,2
2,73,100,2
2,73,0,2
2,69,0,1
2,73,0,2
2,69,100,14
2,73,100,7
2,69,0,14
2,73,100,1
2,69,100,2
2,73,0,4
2,73,100,12
2,73,0,3
2,69,0,2
2,69,100,0
2,73,0,12
2,69,0,2
2,69,100,0
2,69,0,15
3,67,100,0
3,64,100,0
3,64,0,44
3,67,0,0
3,67,100,0
3,64,100,0
3,64,0,42
3,67,0,0
3,67,100,0
3,64,100,0
3,64,0,246
3,67,0,0
3,67,100,0
3,64,100,0
3,64,0,44
3,67,0,0
3,67,100,0
3,64,100,0
3,64,0,42
3,67,0,0
3,67,100,0
3,64,100,0
3,64,0,246
3,67,0,0
3,67,100,0
3,64,100,0
3,64,0,44
3,67,0,0
3,67,100,0
3,64,100,0
3,64,0,42
3,67,0,0
3,67,100,0
3,64,100,0
3,64,0,66
3,67,0,0
3,67,100,0
3,64,100,0
3,64,0,15
3,67,0,0
3,62,100,0
3,66,100,0
3,66,0,15
3,62,0,0
3,60,100,0
3,64,100,0
3,66,100,29
3,64,0,1
3,60,0,0
3,62,100,1
3,66,0,28
3,64,100,1
3,62,0,1
3,60,100,0
3,64,0,29
3,57,100,0
3,60,0,1
3,57,0,29
3,60,100,1
3,67,100,0
3,64,100,0
3,60,0,1
3,64,0,44
3,67,0,0
3,67,100,0
3,64,100,0
3,62,100,88
3,64,0,2
3,67,0,0
3,66,100,0
3,62,0,28
3,66,0,2
3,67,100,0
3,64,100,5
3,67,0,25
3,66,100,1
3,62,100,0
3,64,0,4
3,62,0,26
3,66,0,0
3,67,100,0
3,64,100,0
3,67,100,29
3,64,0,1
3,67,0,0
3,64,100,0
3,66,100,13
3,67,0,1
3,64,0,1
3,62,100,0
3,66,0,13
3,64,100,0
3,62,0,2
3,60,100,0
3,64,0,28
3,62,100,0
3,66,100,0
3,60,0,2
3,66,0,28
3,62,0,0
3,60,100,1
3,64,100,0
3,64,0,30
3,60,0,0
3,57,100,0
3,57,0,30
3,60,100,0
3,60,0,30
3,67,100,0
3,64,100,0
3,64,0,44
3,67,0,0
3,67,100,0
3,64,100,0
3,62,100,88
3,64,0,2
3,67,0,0
3,66,100,0
3,62,0,28
3,66,0,2
3,67,100,0
3,64,100,5
3,67,0,25
3,66,100,1
3,62,100,0
3,64,0,4
3,62,0,26
3,66,0,0
3,67,100,0
3,64,100,0
3,67,100,29
3,64,0,1
3,67,0,0
3,64,100,0
3,66,100,13
3,67,0,1
3,64,0,1
3,62,100,0
3,66,0,13
3,64,100,0
3,62,0,2
3,60,100,0
3,64,0,28
3,62,100,0
3,66,100,0
3,60,0,2
3,66,0,28
3,62,0,0
3,60,100,1
3,64,100,0
3,64,0,30
3,60,0,0
3,57,100,0
3,57,0,30
3,60,100,0
3,60,0,30
3,62,100,0
3,62,0,30
3,64,100,2
3,69,100,28
3,64,0,2
3,69,0,28
3,64,100,2
3,62,100,43
3,64,0,7
3,62,0,18
3,60,100,5
3,62,100,15
3,60,0,5
3,62,0,25
3,57,100,0
3,57,0,30
3,60,100,0
3,60,0,30
3,62,100,0
3,62,0,30
3,60,100,0
3,60,0,30
3,57,100,0
3,57,0,30
3,61,100,0
3,61,0,34
3,57,100,0
3,57,0,30
3,61,100,0
3,61,0,30
3,66,100,0
3,66,0,10
3,66,100,0
3,66,0,30
3,66,100,0
3,66,0,30
3,66,100,0
3,66,0,30
3,64,100,0
3,64,0,10
3,62,100,0
3,62,0,30
3,59,100,0
3,59,0,30
3,62,100,0
3,62,0,30
3,60,100,0
3,60,0,8
3,57,100,0
3,57,0,30
3,53,100,0
3,53,0,30
3,50,100,0
3,50,0,30
3,54,100,0
3,54,0,30
3,50,100,0
3,50,0,30
3,53,100,0
3,53,0,30
3,55,100,60
3,55,0,30
3,54,100,0
3,54,0,30
3,53,100,0
3,53,0,150
3,55,100,0
3,55,0,30
3,54,100,0
3,54,0,30
3,53,100,0
3,53,0,150
3,52,100,0
3,52,0,30
3,55,100,0
3,55,0,30
3,56,100,0
3,56,0,30
3,57,100,0
3,57,0,30
3,60,100,0
3,60,0,30
3,62,100,30
3,62,0,30
3,59,100,0
3,59,0,30
3,60,100,0
3,60,0,30
3,62,100,0
3,62,0,30
3,60,100,0
3,60,0,30
3,60,100,30
3,60,0,30
3,61,100,0
3,61,0,30
3,57,100,0
3,57,0,30
3,52,100,0
3,52,0,15
3,66,100,15
3,66,0,15
3,69,100,15
3,69,0,15
3,71,100,15
3,71,0,30
3,69,100,0
3,69,0,90
3,66,100,0
3,66,0,30
3,69,100,0
3,69,0,30
3,73,100,0
3,73,0,42
3,73,100,0
3,73,0,40
3,73,100,0
3,73,0,20
3,71,100,0
3,71,0,20
3,69,100,0
3,69,0,20
3,71,100,0
3,71,0,30
3,66,100,0
3,66,0,15
3,72,100,15
3,72,0,24
3,72,100,0
3,72,0,38
3,72,100,0
3,72,0,36
3,72,100,0
3,72,0,30
3,71,100,0
3,71,0,30
3,69,100,0
3,69,0,30
3,66,100,0
3,66,0,30
3,69,100,0
3,69,0,30
3,64,100,0
3,64,0,32
3,53,100,0
3,53,0,30
3,57,100,0
3,57,0,30
3,65,100,0
3,65,0,1
3,69,100,0
3,69,0,47
3,67,100,0
3,67,0,30
3,66,100,0
3,66,0,30
3,69,100,0
3,69,0,34
3,72,100,1
3,76,100,29
3,72,0,1
3,72,100,41
3,76,0,1
3,72,0,29
3,74,100,1
3,74,0,30
3,72,100,0
3,72,0,60
3,79,100,0
3,79,0,60
3,76,100,0
3,74,100,28
3,76,0,2
3,74,0,28
3,72,100,2
3,72,0,30
3,74,100,0
3,74,0,30
