track,note,velocity,time
3,75,100,12420
3,75,0,30
3,72,100,0
3,72,0,30
3,77,100,0
3,77,0,30
3,77,100,0
3,77,0,60
3,79,100,0
3,79,0,149
3,77,100,1
3,77,0,30
3,77,100,0
3,77,0,60
3,77,100,0
3,77,0,90
3,72,100,0
3,72,0,30
3,72,100,0
3,72,0,269
3,75,100,181
3,75,0,30
3,75,100,0
3,75,0,30
3,77,100,0
3,77,0,30
3,77,100,0
3,77,0,60
3,80,100,0
3,80,0,60
3,77,100,0
3,77,0,90
3,77,100,0
3,77,0,30
3,77,100,0
3,77,0,60
3,77,100,0
3,77,0,90
3,72,100,0
3,72,0,30
3,72,100,0
3,72,0,269
3,68,100,181
3,68,0,30
3,70,100,0
3,70,0,30
3,72,100,0
3,72,0,30
3,72,100,0
3,72,0,60
3,72,100,0
3,72,0,149
3,68,100,1
3,68,0,30
3,72,100,0
3,72,0,60
3,68,100,0
3,68,0,90
3,65,100,0
3,65,0,30
3,65,100,0
3,65,0,389
3,77,100,601
3,77,0,30
3,77,100,0
3,77,0,30
3,75,100,0
3,75,0,30
3,77,100,0
3,77,0,30
3,80,100,0
3,80,0,30
3,77,100,0
3,77,0,90
3,77,100,0
3,77,0,30
3,75,100,0
3,75,0,30
3,77,100,0
3,77,0,30
3,80,100,0
3,75,100,58
3,80,0,2
3,75,0,58
3,77,100,4
3,68,100,268
3,77,0,1
3,68,0,29
3,65,100,0
3,65,0,209
3,77,100,1
3,77,0,30
3,77,100,0
3,77,0,30
3,75,100,0
3,75,0,30
3,77,100,0
3,77,0,30
3,80,100,0
3,80,0,120
3,77,100,0
3,77,0,30
3,75,100,0
3,75,0,30
3,77,100,0
3,77,0,30
3,80,100,2
3,80,100,56
3,80,0,4
3,80,0,56
3,77,100,2
3,77,0,269
3,68,100,211
3,68,0,30
3,72,100,0
3,72,0,30
3,72,100,0
3,72,0,30
3,70,100,0
3,70,0,30
3,72,100,0
3,72,0,60
3,70,100,0
3,70,0,30
3,72,100,0
3,72,0,30
3,70,100,0
3,70,0,30
3,77,100,0
3,70,100,51
3,77,0,9
3,65,100,80
3,70,0,1
3,65,0,29
3,65,100,10
3,65,0,30
3,65,100,0
3,65,0,209
3,68,100,1
3,68,0,30
3,65,100,0
3,68,100,85
3,65,0,5
3,68,0,25
3,65,100,5
3,68,100,86
3,65,0,4
3,68,0,26
3,65,100,4
3,65,0,119
3,65,100,1
3,65,0,149
3,80,100,91
3,80,0,30
3,77,100,0
3,77,0,120
3,84,100,3780
3,84,0,30
3,82,100,0
3,82,0,30
3,84,100,0
3,84,0,30
3,84,100,0
3,84,0,30
3,87,100,0
3,87,0,60
3,82,100,0
3,82,0,60
3,84,100,0
3,84,0,30
3,82,100,0
3,82,0,30
3,82,100,0
3,82,0,30
3,82,100,0
3,82,0,30
3,82,100,0
3,82,0,30
3,82,100,0
3,82,0,30
3,84,100,0
3,84,100,27
3,84,0,3
3,84,0,57
3,82,100,3
3,82,0,30
3,82,100,0
3,82,0,30
3,77,100,0
3,77,0,90
3,84,100,0
3,84,0,30
3,87,100,0
3,87,0,30
3,84,100,0
3,84,0,30
3,82,100,2
3,81,100,58
3,82,0,2
3,81,0,88
3,84,100,60
3,84,0,30
3,84,100,0
3,84,0,30
3,84,100,0
3,84,0,30
3,84,100,0
3,87,100,28
3,84,0,2
3,87,0,58
3,84,100,2
3,84,0,60
3,84,100,0
3,84,0,30
3,82,100,0
3,82,0,30
3,84,100,0
3,84,0,30
3,82,100,2
3,82,100,58
3,82,0,2
3,82,0,28
3,84,100,0
3,84,0,60
3,82,100,0
3,82,0,30
3,82,100,0
3,82,0,30
3,82,100,0
3,82,0,60
3,82,100,0
3,82,0,30
3,77,100,0
3,77,0,60
3,82,100,0
3,82,0,30
3,82,100,0
3,82,0,60
3,81,100,0
3,81,0,120
3,84,100,120
3,84,0,90
3,82,100,0
3,82,0,30
3,81,100,0
3,81,0,120
3,84,100,0
3,84,0,90
3,82,100,0
3,82,0,30
3,81,100,0
3,81,0,120
3,84,100,0
3,84,0,90
3,82,100,0
3,82,0,30
3,81,100,0
3,81,0,120
3,75,100,0
3,75,0,60
3,77,100,0
3,77,0,180
3,77,100,10080
3,77,0,60
3,75,100,0
3,75,0,60
3,80,100,0
3,80,0,60
3,75,100,0
3,75,0,60
3,75,100,0
3,75,0,60
3,75,100,0
3,75,0,30
3,80,100,0
3,80,0,60
3,75,100,0
3,75,0,30
3,77,100,0
3,77,0,60
3,77,100,0
3,77,0,240
3,77,100,90
3,76,100,80
3,77,0,9
3,76,0,0
3,75,100,1
3,75,0,9
3,74,100,1
3,74,0,9
3,73,100,1
3,73,0,9
3,72,100,1
3,72,0,9
3,71,100,1
3,71,0,9
3,77,100,11
3,77,0,60
3,77,100,0
3,77,0,30
3,80,100,0
3,80,0,60
3,75,100,0
3,75,0,90
3,77,100,0
3,77,0,60
3,77,100,0
3,77,0,30
3,80,100,0
3,80,0,60
3,77,100,0
3,77,0,30
3,77,100,0
3,77,0,60
3,77,100,0
3,77,0,240
3,65,100,150
3,65,0,30
3,68,100,0
3,68,0,30
3,70,100,0
3,70,0,30
3,72,100,0
3,72,0,30
3,72,100,0
3,72,0,60
3,77,100,0
3,77,0,90
3,72,100,60
3,72,0,30
3,72,100,0
3,72,0,30
3,72,100,0
3,72,0,30
3,70,100,0
3,70,0,90
3,68,100,0
3,68,0,30
3,65,100,0
3,65,0,269
3,68,100,31
3,68,0,30
3,80,100,2
3,77,100,118
3,80,0,2
3,77,0,58
3,77,100,960
3,77,0,30
3,77,100,0
3,77,0,60
3,80,100,0
3,80,0,149
3,77,100,1
3,77,0,30
3,77,100,0
3,77,0,30
3,75,100,0
3,75,0,30
3,80,100,3
3,77,100,57
3,80,0,3
3,77,0,57
3,77,100,0
3,77,0,269
3,84,100,241
3,84,0,40
3,82,100,0
3,82,0,40
3,80,100,0
3,80,0,40
3,77,100,0
3,77,0,120
3,75,100,0
3,75,0,30
3,75,100,0
3,75,0,30
3,77,100,0
3,77,0,30
3,80,100,3
3,77,100,57
3,80,0,3
3,77,0,57
3,77,100,0
3,77,0,149
3,82,100,301
3,82,0,30
3,82,100,0
3,82,0,30
3,84,100,0
3,84,0,30
3,84,100,0
3,84,0,60
3,84,100,0
3,84,0,60
3,84,100,0
3,84,0,90
3,84,100,0
3,84,0,60
3,84,100,0
3,84,0,60
3,82,100,0
3,82,0,60
3,80,100,0
3,80,0,60
3,77,100,0
3,77,0,240
3,82,100,92
3,75,100,58
3,82,0,2
3,75,0,88
3,77,100,3840
3,77,0,90
3,75,100,0
3,75,0,30
3,72,100,0
3,72,0,120
3,77,100,0
3,77,0,90
3,75,100,0
3,75,0,30
3,72,100,0
3,72,0,120
3,77,100,0
3,77,0,90
3,76,100,0
3,76,0,30
3,72,100,0
3,72,0,60
3,77,100,0
3,77,0,180
3,77,100,120
3,77,0,90
3,75,100,0
3,75,0,30
3,72,100,0
3,72,0,120
3,77,100,0
3,77,0,90
3,75,100,0
3,75,0,30
3,72,100,0
3,72,0,120
3,77,100,0
3,77,0,90
3,76,100,0
3,76,0,30
3,72,100,0
3,72,0,60
3,77,100,0
3,77,0,180
3,82,100,780
3,82,0,69
3,81,100,1
3,81,0,9
3,79,100,11
3,79,0,9
3,77,100,11
3,77,0,9
3,76,100,1
3,76,0,9
3,75,100,1
3,75,0,9
3,74,100,1
3,74,0,9
3,73,100,1
3,73,0,9
3,72,100,1
3,72,0,9
3,71,100,1
3,71,0,9
3,79,100,1501
3,79,0,60
3,87,100,400
3,87,0,40
3,84,100,0
3,84,0,40
3,87,100,0
3,87,0,30
3,84,100,0
3,84,0,60
3,82,100,0
3,82,0,30
3,80,100,0
3,80,0,120
3,87,110,240
3,87,0,40
3,84,110,0
3,84,0,40
3,87,110,0
3,87,0,40
3,84,110,0
3,84,0,60
3,82,100,0
3,82,0,60
3,80,100,0
3,80,0,240
3,84,100,420
3,84,0,60
3,87,100,400
3,87,0,40
3,84,100,0
3,84,0,40
3,87,80,0
3,87,0,30
3,84,80,0
3,84,0,60
3,82,80,0
3,82,0,30
3,80,100,0
3,80,0,120
3,87,100,240
3,87,0,40
3,84,100,0
3,84,0,40
3,87,100,0
3,87,0,40
3,84,110,0
3,84,0,60
3,82,100,0
3,82,0,60
3,80,100,0
3,80,0,240
3,84,100,420
3,84,0,60
3,87,100,400
3,87,0,40
3,84,100,0
3,84,0,40
3,87,100,0
3,87,0,30
3,84,100,0
3,84,0,60
3,82,100,0
3,82,0,30
3,80,100,0
3,80,0,120
3,87,100,240
3,87,0,40
3,84,100,0
3,84,0,40
3,87,100,0
3,87,0,40
3,84,100,0
3,84,0,60
3,82,100,0
3,82,0,60
3,80,100,0
3,80,0,240
3,84,100,420
3,84,0,60
3,87,100,400
3,87,0,40
3,84,100,0
3,84,0,40
3,87,100,0
3,87,0,30
3,84,100,0
3,84,0,60
3,82,100,0
3,82,0,30
3,80,100,0
3,80,0,120
3,87,100,240
3,87,0,40
3,84,100,0
3,84,0,40
3,87,100,0
3,87,0,40
3,84,100,0
3,84,0,60
3,82,100,0
3,82,0,60
3,80,100,0
3,80,0,240
3,84,100,420
3,84,0,60
3,87,100,400
3,87,0,40
3,84,100,0
3,84,0,40
3,87,100,0
3,87,0,30
3,84,100,0
3,84,0,60
3,82,100,0
3,82,0,30
3,80,100,0
3,80,0,120
3,87,100,240
3,87,0,40
3,84,100,0
3,84,0,40
3,87,100,0
3,87,0,40
3,84,100,0
3,84,0,60
3,82,100,0
3,82,0,60
3,80,100,0
3,80,0,240
3,84,100,420
3,84,0,60
3,87,100,400
3,87,0,40
3,84,100,0
3,84,0,40
3,87,100,0
3,87,0,30
3,84,100,0
3,84,0,60
3,82,100,0
3,82,0,30
3,80,100,0
3,80,0,120
3,87,100,240
3,87,0,40
3,84,100,0
3,84,0,40
3,87,100,0
3,87,0,40
3,84,100,0
3,84,0,60
3,82,90,0
3,82,0,60
3,80,80,0
3,80,0,240
3,77,100,0
3,77,0,269
3,72,100,1
3,72,0,30
3,82,100,0
3,82,0,30
3,79,100,0
3,79,0,60
3,72,100,0
3,72,0,30
3,82,100,0
3,82,0,60
3,77,100,0
3,77,0,480
4,65,100,1380
4,65,0,20
4,68,100,0
4,68,0,20
4,72,100,0
4,72,0,20
4,75,100,0
4,75,0,480
4,65,100,0
4,65,0,20
4,68,100,0
4,68,0,20
4,72,100,0
4,72,0,20
4,75,100,0
4,75,0,419
4,65,100,1
4,65,0,20
4,68,100,0
4,68,0,20
4,72,100,0
4,72,0,20
4,75,100,0
4,75,0,419
4,65,100,1
4,65,0,20
4,68,100,0
4,68,0,20
4,72,100,0
4,72,0,20
4,75,100,0
4,75,0,60
4,75,100,0
4,75,0,120
4,75,100,0
4,75,0,30
4,75,100,0
4,75,0,30
4,75,100,0
4,75,0,30
4,68,100,0
4,68,0,60
4,68,100,0
4,68,0,30
4,68,100,0
4,68,0,30
4,65,100,0
4,65,0,90
4,68,100,120
4,68,0,539
4,72,100,1
4,72,0,120
4,65,100,0
4,65,0,60
4,65,100,0
4,65,0,60
4,68,100,0
4,68,0,30
4,65,100,0
4,65,0,30
4,60,100,0
4,60,0,60
4,60,100,270
4,60,0,30
4,62,100,0
4,62,0,60
4,68,100,0
4,68,0,720
4,65,100,0
4,65,0,60
4,65,100,90
4,65,0,30
4,65,100,0
4,65,0,60
4,68,100,0
4,68,0,30
4,65,100,0
4,65,0,30
4,60,100,335
4,65,100,55
4,60,0,5
4,65,0,25
4,79,100,120
4,79,0,40
4,79,100,0
4,79,0,40
4,79,100,0
4,79,0,40
4,79,100,0
4,79,0,30
4,79,100,0
4,79,0,60
4,78,100,0
4,79,100,383
4,78,0,6
4,79,0,174
4,78,100,10
4,79,100,57
4,78,0,3
4,79,0,27
4,77,100,0
4,75,100,25
4,77,0,5
4,75,0,25
4,74,100,7
4,74,0,30
4,72,100,28
4,72,0,30
4,70,100,0
4,70,0,30
4,75,100,0
4,75,0,30
4,74,100,0
4,72,100,29
4,74,0,1
4,72,0,59
4,70,100,1
4,70,0,30
4,72,100,0
4,72,0,30
4,75,100,0
4,75,0,30
4,74,100,0
4,74,0,30
4,72,100,3
4,70,100,57
4,72,0,3
4,70,0,27
4,72,100,0
4,72,0,30
4,75,100,0
4,75,0,30
4,74,100,0
4,74,0,30
4,75,100,0
4,75,0,30
4,74,100,0
4,74,0,30
4,75,100,0
4,75,0,30
4,74,100,120
4,74,0,30
4,75,100,0
4,75,0,30
4,74,100,0
4,74,0,30
4,75,100,0
4,75,0,30
4,75,100,0
4,75,0,480
4,77,100,0
4,77,0,1019
4,63,100,17401
4,63,0,839
4,65,100,1
4,65,0,180
4,60,100,150
4,60,0,90
4,58,90,0
4,58,0,480
4,60,100,0
4,60,0,480
4,70,100,90
4,74,100,0
4,70,0,30
4,74,0,0
4,68,100,0
4,60,100,0
4,68,0,299
4,60,0,0
4,68,100,1
4,68,0,30
4,68,100,0
4,68,0,30
4,69,100,0
4,70,100,26
4,69,0,4
4,70,0,26
4,71,100,4
4,71,0,30
4,74,100,0
4,74,0,30
4,75,100,0
4,75,0,30
4,75,100,0
4,75,0,30
4,74,100,0
4,74,0,30
4,72,100,0
4,72,0,30
4,72,100,0
4,72,0,60
4,68,100,0
4,68,100,28
4,68,0,2
4,68,0,58
4,65,100,2
4,65,0,30
4,65,100,0
4,65,0,60
4,68,100,0
4,68,100,28
4,68,0,2
4,68,0,58
4,65,100,2
4,63,100,82
4,65,0,8
4,63,0,31
4,68,100,27
4,68,0,30
4,68,90,3
4,65,90,54
4,68,0,6
4,65,0,24
4,65,100,10
4,68,100,55
4,65,0,5
4,68,0,25
4,68,100,0
4,68,0,60
4,65,100,0
4,65,0,30
4,65,100,0
4,65,0,60
4,65,100,0
4,65,0,30
4,65,100,0
4,65,0,30
4,65,100,0
4,65,0,30
4,63,100,0
4,63,0,30
4,65,100,30
4,65,0,30
4,65,100,0
4,65,0,30
4,68,100,0
4,68,0,30
4,65,100,30
4,65,0,30
4,65,100,0
4,65,0,30
4,68,100,0
4,68,0,30
4,65,100,30
4,65,0,30
4,65,100,0
4,65,0,30
4,68,100,0
4,68,0,30
4,65,100,0
4,65,0,30
4,65,100,0
4,65,0,30
4,65,100,0
4,65,0,30
4,68,100,0
4,68,0,30
4,68,100,0
4,68,0,30
4,70,100,0
4,70,0,30
4,65,100,0
4,65,0,30
4,68,100,0
4,68,0,30
4,70,100,0
4,70,0,30
4,68,100,0
4,68,0,30
4,65,100,0
4,65,0,30
4,68,100,0
4,68,0,30
4,70,100,0
4,70,0,30
4,65,100,0
4,68,100,28
4,65,0,2
4,68,0,28
4,70,100,2
4,65,100,26
4,70,0,4
4,65,0,26
4,68,68,10
4,70,105,22
4,68,0,8
4,70,0,19
4,65,100,5
4,65,0,30
4,68,100,0
4,70,100,28
4,68,0,2
4,70,0,58
4,68,100,2
4,68,0,30
4,70,100,0
4,70,0,30
4,68,100,0
4,68,0,30
4,68,100,0
4,68,0,30
4,70,100,0
4,70,0,30
4,72,100,0
4,77,100,0
4,72,0,179
4,77,0,0
4,72,100,1
4,76,100,0
4,72,0,30
4,76,0,0
4,74,100,0
4,77,100,0
4,74,0,30
4,77,0,0
4,79,100,30
4,79,0,209
4,77,100,1
4,72,95,26
4,77,0,4
4,72,0,26
4,72,100,4
4,72,0,60
4,79,100,30
4,79,0,90
4,82,100,0
4,82,0,30
4,82,100,0
4,82,0,30
4,79,100,0
4,79,0,15
4,76,100,0
4,76,0,15
4,72,100,0
4,72,0,30
4,79,100,30
4,79,0,90
4,79,100,0
4,79,0,30
4,77,100,0
4,77,0,30
4,77,100,0
4,77,0,30
4,72,100,0
4,72,0,30
4,72,100,30
4,72,0,30
4,72,100,0
4,72,0,30
4,74,100,0
4,74,0,30
4,75,100,0
4,75,0,30
4,75,100,0
4,75,0,30
4,77,100,0
4,77,0,60
4,77,100,0
4,77,0,60
