track,note,velocity,time
1,57,119,0
1,60,119,192
1,64,119,172
1,69,119,188
1,56,119,36
1,71,119,4
1,71,119,12
1,64,119,188
1,60,119,0
1,71,119,104
1,72,119,0
1,72,119,0
1,55,119,0
1,64,119,168
1,60,119,200
1,72,119,68
1,66,119,44
1,50,119,8
1,66,119,0
1,62,119,148
1,57,119,156
1,66,119,180
1,64,119,0
1,48,119,0
1,64,119,0
1,60,119,132
1,53,119,132
1,60,119,144
1,64,119,384
1,60,119,16
1,53,119,124
1,55,119,192
1,43,119,16
1,57,119,12
1,45,119,0
1,57,119,4
1,45,119,0
1,45,127,144
1,47,119,128
1,48,119,8
1,53,119,16
1,50,119,8
1,52,119,0
1,52,119,0
1,57,119,228
1,60,119,156
1,64,119,172
1,69,119,188
1,56,119,64
1,71,119,0
1,71,119,0
1,64,119,168
1,60,119,192
1,71,119,44
1,72,119,64
1,72,119,0
1,55,119,0
1,64,119,140
1,60,119,0
1,72,119,68
1,66,119,40
1,66,119,0
1,50,119,8
1,62,119,144
1,57,119,136
1,66,119,0
1,48,119,132
1,64,119,4
1,64,119,0
1,60,119,156
1,57,119,164
1,60,119,100
1,64,119,380
1,60,119,16
1,57,119,80
1,43,119,40
1,55,119,4
1,55,119,204
1,43,119,4
1,43,119,0
1,55,119,4
1,57,119,12
1,45,119,0
1,45,119,0
1,57,119,0
1,57,119,24
1,45,119,0
1,57,119,0
1,45,119,0
1,45,119,32
1,47,119,12
1,48,119,172
1,52,119,184
1,55,119,196
1,60,119,180
1,50,119,124
1,54,119,128
1,57,119,180
1,62,119,12
1,53,119,160
1,57,119,144
1,60,119,192
1,64,119,12
1,45,119,184
1,48,119,68
1,52,119,192
1,59,119,176
1,48,119,0
1,52,119,192
1,55,119,192
1,60,119,192
1,50,119,96
1,55,119,144
1,59,119,176
1,62,119,192
1,67,119,32
1,50,119,0
1,64,119,96
1,54,119,0
1,57,119,48
1,62,119,4
1,62,119,0
1,66,119,12
1,57,119,12
1,50,119,40
1,54,119,0
1,57,119,8
1,62,119,0
1,57,119,12
1,66,119,0
1,62,119,12
1,45,119,64
1,47,119,92
1,48,119,28
1,52,119,160
1,55,119,192
1,60,119,192
1,50,119,136
1,54,119,88
1,57,119,192
1,62,119,12
1,53,119,164
1,57,119,156
1,60,119,192
1,64,119,192
1,45,119,124
1,48,119,192
1,52,119,176
1,59,119,20
1,48,119,172
1,52,119,160
1,55,119,192
1,60,119,192
1,50,119,76
1,54,119,140
1,57,119,224
1,62,119,0
1,53,119,92
1,53,119,0
1,57,119,84
1,60,119,84
1,64,119,0
1,64,119,32
1,60,119,0
1,57,119,0
1,53,119,0
1,57,119,288
1,60,119,192
1,64,119,172
1,69,119,188
1,56,119,36
1,71,119,4
1,71,119,12
1,64,119,188
1,60,119,0
1,71,119,104
1,72,119,0
1,72,119,0
1,55,119,0
1,64,119,168
1,60,119,200
1,72,119,68
1,66,119,44
1,50,119,8
1,66,119,0
1,62,119,148
1,57,119,156
1,66,119,180
1,64,119,0
1,48,119,0
1,64,119,0
1,60,119,132
1,53,119,132
1,60,119,144
1,64,119,368
1,60,119,0
1,53,119,92
1,43,119,240
1,55,119,4
1,45,119,12
1,57,119,0
1,57,119,36
1,45,119,0
1,57,119,628
1,60,119,192
1,64,119,172
1,69,119,188
1,56,119,36
1,71,119,4
1,71,119,12
1,64,119,188
1,60,119,0
1,71,119,116
1,72,119,0
1,72,119,0
1,55,119,0
1,64,119,168
1,60,119,200
1,72,119,68
1,66,119,44
1,50,119,8
1,66,119,0
1,62,119,148
1,57,119,156
1,66,119,180
1,64,119,0
1,48,119,0
1,64,119,0
1,60,119,132
1,53,119,132
1,60,119,144
1,64,119,368
1,60,119,32
1,53,119,124
1,43,119,208
1,55,119,4
1,57,119,12
1,45,119,0
1,57,119,4
1,45,119,0
1,45,119,212
1,47,119,224
1,48,119,24
1,52,119,192
1,55,119,196
1,60,119,180
1,50,119,124
1,54,119,128
1,57,119,180
1,62,119,12
1,53,119,160
1,57,119,144
1,60,119,192
1,64,119,12
1,45,119,0
1,67,119,0
1,64,119,0
1,48,119,68
1,52,119,192
1,59,119,176
1,48,119,0
1,52,119,192
1,55,119,192
1,60,119,192
1,50,119,128
1,55,119,164
1,59,119,192
1,62,119,192
1,67,119,108
1,50,119,24
1,64,119,72
1,54,119,0
1,62,119,4
1,62,119,8
1,57,119,4
1,57,119,0
1,66,119,0
1,50,119,40
1,54,119,0
1,57,119,8
1,57,119,0
1,66,119,0
1,62,119,0
1,62,119,8
1,45,119,0
1,47,119,192
1,48,119,16
1,52,119,180
1,55,119,192
1,60,119,192
1,50,119,144
1,54,119,88
1,57,119,192
1,62,119,12
1,53,119,164
1,57,119,156
1,60,119,192
1,64,119,192
1,45,119,124
1,48,119,192
1,52,119,176
1,59,119,20
1,48,119,172
1,52,119,160
1,55,119,192
1,60,119,192
1,50,119,108
1,54,119,172
1,57,119,192
1,62,119,192
1,53,119,92
1,53,119,0
1,57,119,84
1,60,119,100
1,64,119,12
1,64,119,32
1,60,119,0
1,57,119,0
1,53,119,0
1,57,119,288
1,60,119,192
1,64,119,172
1,69,119,188
1,56,119,36
1,71,119,4
1,71,119,12
1,64,119,188
1,60,119,0
1,71,119,104
1,72,119,0
1,72,119,0
1,55,119,0
1,64,119,168
1,60,119,200
1,72,119,68
1,66,119,44
1,50,119,8
1,66,119,0
1,62,119,148
1,57,119,156
1,66,119,180
1,64,119,0
1,48,119,0
1,64,119,0
1,60,119,132
1,53,119,132
1,60,119,144
1,64,119,384
1,60,119,60
1,53,119,92
1,43,119,224
1,55,119,20
1,57,119,32
1,45,119,0
1,57,119,36
1,45,119,0
1,45,119,4
1,47,119,176
1,48,119,8
1,53,119,16
1,50,119,0
1,52,119,0
1,52,119,0
1,57,119,228
1,60,119,156
1,64,119,164
1,69,119,188
1,56,119,108
1,71,119,4
1,72,119,756
1,55,119,12
1,50,119,704
1,66,119,0
1,64,119,0
1,48,119,8
1,55,119,412
1,67,119,4
1,57,119,0
1,64,119,8
1,60,119,0
1,64,119,0
1,60,119,60
1,57,119,4
1,64,119,0
1,55,119,148
1,60,119,28
1,67,119,28
1,57,119,32
1,64,119,0
1,57,119,88
1,60,119,0
1,67,119,0
1,64,119,0
1,67,119,80
1,64,119,68
1,57,119,4
1,60,119,0
1,67,119,124
1,64,119,100
1,60,119,0
1,57,119,4
1,55,119,152
1,66,119,16
1,62,119,4
1,66,119,96
1,57,119,0
1,62,119,0
1,62,119,108
1,66,119,8
1,57,119,156
1,62,119,76
1,66,119,0
1,57,119,52
1,66,119,32
1,62,119,0
1,57,119,48
1,57,119,148
1,60,119,0
1,67,119,0
1,64,119,8
1,67,119,96
1,57,119,40
1,60,119,0
1,64,119,0
1,67,119,160
1,57,119,144
1,64,119,0
1,60,119,4
1,71,119,180
1,64,119,4
1,67,119,0
1,66,119,180
1,62,119,8
1,69,119,0
1,64,119,184
1,67,119,0
1,60,119,4
1,69,119,176
1,62,119,0
1,66,119,8
1,57,119,84
1,60,119,0
1,67,119,0
1,64,119,0
1,67,119,80
1,64,119,68
1,57,119,4
1,60,119,0
1,67,119,124
1,64,119,100
1,60,119,0
1,57,119,4
1,55,119,152
1,66,119,16
1,62,119,4
1,66,119,96
1,57,119,0
1,62,119,0
1,62,119,108
1,66,119,8
1,57,119,156
1,62,119,76
1,66,119,0
1,57,119,52
1,66,119,32
1,62,119,0
1,57,119,48
1,57,119,148
1,60,119,0
1,67,119,0
1,64,119,8
1,67,119,96
1,57,119,40
1,60,119,0
1,64,119,0
1,67,119,160
1,57,119,144
1,64,119,0
1,60,119,4
1,71,119,180
1,64,119,4
1,67,119,0
1,66,119,180
1,62,119,8
1,69,119,0
1,64,119,184
1,67,119,0
1,60,119,4
1,69,119,176
1,62,119,0
1,66,119,8
1,57,119,13908
1,60,119,0
1,67,119,0
1,64,119,0
1,67,119,80
1,64,119,68
1,57,119,4
1,60,119,0
1,67,119,124
1,64,119,100
1,60,119,0
1,57,119,4
1,55,119,152
1,66,119,16
1,62,119,4
1,66,119,96
1,57,119,0
1,62,119,0
1,62,119,108
1,66,119,8
1,57,119,156
1,62,119,76
1,66,119,0
1,57,119,52
1,66,119,32
1,62,119,0
1,57,119,48
1,57,119,148
1,60,119,0
1,67,119,0
1,64,119,8
1,67,119,96
1,57,119,40
1,60,119,0
1,64,119,0
1,67,119,160
1,57,119,144
1,64,119,0
1,60,119,4
1,71,119,180
1,64,119,4
1,67,119,0
1,66,119,180
1,62,119,8
1,69,119,0
1,64,119,184
1,67,119,0
1,60,119,4
1,69,119,176
1,62,119,0
1,66,119,8
1,57,119,84
1,60,119,0
1,67,119,0
1,64,119,0
1,67,119,80
1,64,119,68
1,57,119,4
1,60,119,0
1,67,119,124
1,64,119,100
1,60,119,0
1,57,119,4
1,55,119,152
1,66,119,16
1,62,119,4
1,66,119,96
1,57,119,0
1,62,119,0
1,62,119,108
1,66,119,8
1,57,119,156
1,62,119,76
1,66,119,0
1,57,119,52
1,66,119,32
1,62,119,0
1,57,119,48
1,57,119,148
1,60,119,0
1,67,119,0
1,64,119,8
1,67,119,96
1,57,119,40
1,60,119,0
1,64,119,0
1,67,119,160
1,57,119,144
1,64,119,0
1,60,119,4
1,71,119,180
1,64,119,4
1,67,119,0
1,66,119,180
1,62,119,8
1,69,119,0
1,64,119,184
1,67,119,0
1,60,119,4
1,69,119,176
1,62,119,0
1,66,119,8
1,57,119,13908
1,60,119,0
1,67,119,0
1,64,119,0
1,67,119,80
1,64,119,68
1,57,119,4
1,60,119,0
1,67,119,124
1,64,119,100
1,60,119,0
1,57,119,4
1,55,119,152
1,66,119,16
1,62,119,4
1,66,119,96
1,57,119,0
1,62,119,0
1,62,119,108
1,66,119,8
1,57,119,156
1,62,119,76
1,66,119,0
1,57,119,52
1,66,119,32
1,62,119,0
1,57,119,48
1,57,119,148
1,60,119,0
1,67,119,0
1,64,119,8
1,67,119,96
1,57,119,40
1,60,119,0
1,64,119,0
1,67,119,160
1,57,119,144
1,64,119,0
1,60,119,4
1,71,119,180
1,64,119,4
1,67,119,0
1,66,119,180
1,62,119,8
1,69,119,0
1,64,119,184
1,67,119,0
1,60,119,4
1,69,119,176
1,62,119,0
1,66,119,8
1,57,119,84
1,60,119,0
1,67,119,0
1,64,119,0
1,67,119,80
1,64,119,68
1,57,119,4
1,60,119,0
1,67,119,124
1,64,119,100
1,60,119,0
1,57,119,4
1,55,119,152
1,66,119,16
1,62,119,4
1,66,119,96
1,57,119,0
1,62,119,0
1,62,119,108
1,66,119,8
1,57,119,156
1,62,119,76
1,66,119,0
1,57,119,52
1,66,119,32
1,62,119,0
1,57,119,48
1,57,119,148
1,60,119,0
1,67,119,0
1,64,119,8
1,67,119,96
1,57,119,40
1,60,119,0
1,64,119,0
1,67,119,160
1,57,119,144
1,64,119,0
1,60,119,4
1,71,119,180
1,64,119,4
1,67,119,0
1,66,119,180
1,62,119,8
1,69,119,0
1,64,119,184
1,67,119,0
1,60,119,4
1,69,119,176
1,62,119,0
1,66,119,8
1,57,119,13908
1,60,119,0
1,67,119,0
1,64,119,0
1,67,119,80
1,64,119,68
1,57,119,4
1,60,119,0
1,67,119,124
1,64,119,100
1,60,119,0
1,57,119,4
1,55,119,152
1,66,119,16
1,62,119,4
1,66,119,96
1,57,119,0
1,62,119,0
1,62,119,108
1,66,119,8
1,57,119,156
1,62,119,76
1,66,119,0
1,57,119,52
1,66,119,32
1,62,119,0
1,57,119,48
1,57,119,148
1,60,119,0
1,67,119,0
1,64,119,8
1,67,119,96
1,57,119,40
1,60,119,0
1,64,119,0
1,67,119,160
1,57,119,144
1,64,119,0
1,60,119,4
1,71,119,152
1,67,119,0
1,64,119,0
1,66,119,212
1,62,119,8
1,69,119,0
1,64,119,184
1,67,119,0
1,60,119,4
1,69,119,176
1,62,119,0
1,66,119,8
1,57,119,84
1,60,119,0
1,67,119,0
1,64,119,0
1,67,119,80
1,64,119,68
1,57,119,4
1,60,119,0
1,67,119,124
1,64,119,100
1,60,119,0
1,57,119,4
1,55,119,152
1,66,119,16
1,62,119,4
1,66,119,96
1,57,119,0
1,62,119,0
1,62,119,108
1,66,119,8
1,57,119,156
1,62,119,76
1,66,119,0
1,57,119,52
1,66,119,32
1,62,119,0
1,57,119,48
1,57,119,148
1,60,119,0
1,67,119,0
1,64,119,8
1,67,119,96
1,57,119,40
1,60,119,0
1,64,119,0
1,67,119,160
1,57,119,144
1,64,119,0
1,60,119,4
1,71,119,152
1,67,119,0
1,64,119,0
1,66,119,212
1,62,119,8
1,69,119,0
1,64,119,184
1,67,119,0
1,60,119,4
1,69,119,176
1,62,119,0
1,66,119,8
2,71,119,4
2,68,119,100
2,64,119,68
2,68,119,76
2,71,119,64
2,68,119,64
2,64,119,72
2,55,119,48
2,60,119,104
2,64,119,40
2,72,119,44
2,64,119,76
2,60,119,72
2,55,119,76
2,54,119,40
2,57,119,96
2,62,119,104
2,66,119,20
2,62,119,48
2,57,119,56
2,54,119,104
2,53,119,184
2,57,119,8
2,60,119,0
2,64,119,52
2,60,119,176
2,57,119,92
2,53,119,0
2,57,119,20
2,60,119,16
2,64,119,8
2,60,119,84
2,57,119,36
2,53,119,104
2,57,119,384
2,60,119,0
2,67,119,0
2,64,119,0
2,67,119,80
2,64,119,68
2,57,119,4
2,60,119,0
2,67,119,124
2,64,119,100
2,60,119,0
2,57,119,4
2,55,119,152
2,66,119,16
2,62,119,4
2,66,119,96
2,57,119,0
2,62,119,0
2,62,119,108
2,66,119,8
2,57,119,156
2,62,119,76
2,66,119,0
2,57,119,52
2,66,119,32
2,62,119,0
2,57,119,48
2,57,119,148
2,60,119,0
2,67,119,0
2,64,119,8
2,67,119,96
2,57,119,40
2,60,119,0
2,64,119,0
2,67,119,160
2,57,119,144
2,64,119,0
2,60,119,4
2,71,119,180
2,64,119,4
2,67,119,0
2,66,119,180
2,62,119,8
2,69,119,0
2,64,119,184
2,67,119,0
2,60,119,4
2,69,119,176
2,62,119,0
2,66,119,8
2,57,119,84
2,60,119,0
2,67,119,0
2,64,119,0
2,67,119,80
2,64,119,68
2,57,119,4
2,60,119,0
2,67,119,124
2,64,119,100
2,60,119,0
2,57,119,4
2,55,119,152
2,66,119,16
2,62,119,4
2,66,119,96
2,57,119,0
2,62,119,0
2,62,119,108
2,66,119,8
2,57,119,156
2,62,119,76
2,66,119,0
2,57,119,52
2,66,119,32
2,62,119,0
2,57,119,48
2,57,119,148
2,60,119,0
2,67,119,0
2,64,119,8
2,67,119,96
2,57,119,40
2,60,119,0
2,64,119,0
2,67,119,160
2,57,119,144
2,64,119,0
2,60,119,4
2,71,119,180
2,64,119,4
2,67,119,0
2,66,119,180
2,62,119,8
2,69,119,0
2,64,119,184
2,67,119,0
2,60,119,4
2,69,119,176
2,62,119,0
2,66,119,8
2,57,119,13908
2,60,119,0
2,67,119,0
2,64,119,0
2,67,119,80
2,64,119,68
2,57,119,4
2,60,119,0
2,67,119,124
2,64,119,100
2,60,119,0
2,57,119,4
2,55,119,152
2,66,119,16
2,62,119,4
2,66,119,96
2,57,119,0
2,62,119,0
2,62,119,108
2,66,119,8
2,57,119,156
2,62,119,76
2,66,119,0
2,57,119,52
2,66,119,32
2,62,119,0
2,57,119,48
2,57,119,148
2,60,119,0
2,67,119,0
2,64,119,8
2,67,119,96
2,57,119,40
2,60,119,0
2,64,119,0
2,67,119,160
2,57,119,144
2,64,119,0
2,60,119,4
2,71,119,180
2,64,119,4
2,67,119,0
2,66,119,180
2,62,119,8
2,69,119,0
2,64,119,184
2,67,119,0
2,60,119,4
2,69,119,176
2,62,119,0
2,66,119,8
2,57,119,84
2,60,119,0
2,67,119,0
2,64,119,0
2,67,119,80
2,64,119,68
2,57,119,4
2,60,119,0
2,67,119,124
2,64,119,100
2,60,119,0
2,57,119,4
2,55,119,152
2,66,119,16
2,62,119,4
2,66,119,96
