track,note,velocity,time
1,43,100,0
1,43,0,32
1,43,100,16
1,43,0,32
1,55,100,16
1,55,0,32
1,43,100,16
1,43,0,32
1,43,100,16
1,43,0,32
1,55,100,16
1,43,100,0
1,43,0,32
1,55,0,0
1,55,100,16
1,55,0,32
1,55,100,16
1,55,0,96
1,43,100,336
1,43,0,32
1,43,100,16
1,43,0,32
1,55,100,16
1,55,0,32
1,43,100,16
1,43,0,32
1,43,100,16
1,43,0,32
1,55,100,16
1,43,100,0
1,43,0,32
1,55,0,0
1,55,100,16
1,55,0,32
1,55,100,16
1,55,0,96
1,43,100,336
1,43,0,32
1,43,100,16
1,43,0,32
1,55,100,16
1,55,0,32
1,43,100,16
1,43,0,32
1,43,100,16
1,43,0,32
1,43,100,16
1,55,100,0
1,55,0,32
1,43,0,0
1,55,100,16
1,55,0,32
1,55,100,16
1,55,0,96
1,43,100,336
1,43,0,32
1,43,100,16
1,43,0,32
1,55,100,16
1,55,0,32
1,43,100,16
1,43,0,32
1,43,100,16
1,43,0,32
1,55,100,16
1,55,0,32
1,55,100,16
1,55,0,32
1,55,100,16
1,55,0,96
1,53,100,48
1,57,100,0
1,60,100,0
1,53,0,96
1,60,0,0
1,57,0,0
1,58,100,48
1,54,100,0
1,61,100,0
1,61,0,96
1,58,0,0
1,54,0,0
1,43,100,48
1,43,0,32
1,43,100,16
1,43,0,32
1,55,100,16
1,55,0,32
1,43,100,16
1,43,0,32
1,43,100,16
1,43,0,32
1,55,100,16
1,43,100,0
1,43,0,32
1,55,0,0
1,55,100,16
1,55,0,32
1,55,100,16
1,55,0,96
1,43,100,336
1,43,0,32
1,43,100,16
1,43,0,32
1,55,100,16
1,55,0,32
1,43,100,16
1,43,0,32
1,43,100,16
1,43,0,32
1,55,100,16
1,43,100,0
1,55,0,32
1,43,0,0
1,55,100,16
1,55,0,32
1,55,100,16
1,55,0,96
1,43,100,336
1,43,0,32
1,43,100,16
1,43,0,32
1,55,100,16
1,55,0,32
1,43,100,16
1,43,0,32
1,43,100,16
1,43,0,32
1,43,100,16
1,55,100,0
1,43,0,32
1,55,0,0
1,55,100,16
1,55,0,32
1,55,100,16
1,55,0,96
1,43,100,336
1,43,0,32
1,55,100,16
1,43,100,0
1,43,0,32
1,55,100,16
1,55,0,16
1,55,0,16
1,55,100,16
1,43,100,0
1,43,0,32
1,43,100,16
1,55,0,16
1,43,0,16
1,43,100,16
1,55,100,0
1,55,0,32
1,43,0,0
1,55,100,16
1,55,0,32
1,55,100,16
1,55,0,64
1,48,100,32
1,48,0,64
1,49,100,32
1,49,0,64
1,50,100,32
1,50,0,32
1,53,100,16
1,53,0,32
1,50,100,16
1,50,0,32
1,62,100,16
1,62,0,32
1,50,100,16
1,50,0,64
1,61,100,32
1,61,0,96
1,60,100,48
1,60,0,96
1,53,100,96
1,58,100,0
1,53,0,192
1,58,0,0
1,43,100,96
1,43,0,32
1,43,100,16
1,43,0,32
1,55,100,16
1,55,0,32
1,43,100,16
1,43,0,32
1,43,100,16
1,43,0,32
1,55,100,16
1,43,100,0
1,55,0,32
1,43,0,0
1,55,100,16
1,55,0,32
1,55,100,16
1,55,0,96
1,43,100,336
1,43,0,32
1,43,100,16
1,43,0,32
1,55,100,16
1,55,0,32
1,43,100,16
1,43,0,32
1,43,100,16
1,43,0,32
1,55,100,16
1,43,100,0
1,43,0,32
1,55,0,0
1,55,100,16
1,55,0,32
1,55,100,16
1,55,0,96
1,43,100,336
1,43,0,32
1,43,100,16
1,43,0,32
1,55,100,16
1,55,0,32
1,43,100,16
1,43,0,32
1,43,100,16
1,43,0,32
1,43,100,16
1,55,100,0
1,55,0,32
1,43,0,0
1,55,100,16
1,55,0,32
1,55,100,16
1,55,0,96
1,43,100,336
1,43,0,32
1,43,100,16
1,43,0,32
1,55,100,16
1,55,0,32
1,43,100,16
1,43,0,32
1,43,100,16
1,43,0,32
1,55,100,16
1,55,0,32
1,55,100,16
1,55,0,32
1,55,100,16
1,55,0,96
1,57,100,48
1,53,100,0
1,60,100,0
1,53,0,96
1,57,0,0
1,60,0,0
1,58,100,48
1,54,100,0
1,61,100,0
1,58,0,96
1,61,0,0
1,54,0,0
1,43,100,48
1,43,0,32
1,43,100,16
1,43,0,32
1,55,100,16
1,55,0,32
1,43,100,16
1,43,0,32
1,43,100,16
1,43,0,32
1,43,100,16
1,55,100,0
1,43,0,32
1,55,0,0
1,55,100,16
1,55,0,32
1,55,100,16
1,55,0,96
1,43,100,336
1,43,0,32
1,43,100,16
1,43,0,32
1,55,100,16
1,55,0,32
1,43,100,16
1,43,0,32
1,43,100,16
1,43,0,32
1,55,100,16
1,43,100,0
1,55,0,32
1,43,0,0
1,55,100,16
1,55,0,32
1,55,100,16
1,55,0,96
1,43,100,336
1,43,0,32
1,43,100,16
1,43,0,32
1,55,100,16
1,55,0,32
1,43,100,16
1,43,0,32
1,43,100,16
1,43,0,32
1,55,100,16
1,43,100,0
1,55,0,32
1,43,0,0
1,55,100,16
1,55,0,32
1,55,100,16
1,55,0,96
1,43,100,336
1,43,0,32
1,43,100,16
1,55,100,0
1,43,0,32
1,55,100,16
1,55,0,16
1,55,0,16
1,55,100,16
1,43,100,0
1,43,0,32
1,43,100,16
1,55,0,16
1,43,0,16
1,55,100,16
1,43,100,0
1,43,0,32
1,55,0,0
1,55,100,16
1,55,0,32
1,55,100,16
1,55,0,64
1,48,100,32
1,48,0,64
1,49,100,32
1,49,0,64
1,50,100,32
1,50,0,32
1,53,100,16
1,53,0,32
1,50,100,16
1,50,0,32
1,62,100,16
1,62,0,32
1,50,100,16
1,50,0,64
1,61,100,32
1,61,0,96
1,60,100,48
1,60,0,96
1,53,100,96
1,58,100,0
1,53,0,192
1,58,0,0
1,43,100,96
1,43,0,32
1,43,100,16
1,43,0,32
1,55,100,16
1,55,0,32
1,43,100,16
1,43,0,32
1,43,100,16
1,43,0,32
1,55,100,16
1,43,100,0
1,43,0,32
1,55,0,0
1,55,100,16
1,55,0,32
1,55,100,16
1,55,0,96
1,43,100,336
1,43,0,32
1,43,100,16
1,43,0,32
1,55,100,16
1,55,0,32
1,43,100,16
1,43,0,32
1,43,100,16
1,43,0,32
1,55,100,16
1,43,100,0
1,43,0,32
1,55,0,0
1,55,100,16
1,55,0,32
1,55,100,16
1,55,0,96
1,43,100,336
1,43,0,32
1,43,100,16
1,43,0,32
1,55,100,16
1,55,0,32
1,43,100,16
1,43,0,32
1,43,100,16
1,43,0,32
1,55,100,16
1,43,100,0
1,55,0,32
1,43,0,0
1,55,100,16
1,55,0,32
1,55,100,16
1,55,0,96
1,43,100,336
1,43,0,32
1,43,100,16
1,43,0,32
1,55,100,16
1,55,0,32
1,43,100,16
1,43,0,32
1,43,100,16
1,43,0,32
1,55,100,16
1,55,0,32
1,55,100,16
1,55,0,32
1,55,100,16
1,55,0,96
1,60,100,48
1,53,100,0
1,57,100,0
1,57,0,96
1,60,0,0
1,53,0,0
1,61,100,48
1,58,100,0
1,54,100,0
1,58,0,96
1,61,0,0
1,54,0,0
1,43,100,48
1,43,0,32
1,43,100,16
1,43,0,32
1,55,100,16
1,55,0,32
1,43,100,16
1,43,0,32
1,43,100,16
1,43,0,32
1,55,100,16
1,43,100,0
1,43,0,32
1,55,0,0
1,55,100,16
1,55,0,32
1,55,100,16
1,55,0,96
1,43,100,336
1,43,0,32
1,43,100,16
1,43,0,32
1,55,100,16
1,55,0,32
1,43,100,16
1,43,0,32
1,43,100,16
1,43,0,32
1,55,100,16
1,43,100,0
1,43,0,32
1,55,0,0
1,55,100,16
1,55,0,32
1,55,100,16
1,55,0,96
1,43,100,336
1,43,0,32
1,43,100,16
1,43,0,32
1,55,100,16
1,55,0,32
1,43,100,16
1,43,0,32
1,43,100,16
1,43,0,32
1,55,100,16
1,43,100,0
1,43,0,32
1,55,0,0
1,55,100,16
1,55,0,32
1,55,100,16
1,55,0,96
1,43,100,336
1,43,0,32
1,55,100,16
1,43,100,0
1,43,0,32
1,55,100,16
1,55,0,16
1,55,0,16
1,55,100,16
1,43,100,0
1,43,0,32
1,43,100,16
1,55,0,16
1,43,0,16
1,55,100,16
1,43,100,0
1,55,0,32
1,43,0,0
1,55,100,16
1,55,0,32
1,55,100,16
1,55,0,64
1,48,100,32
1,48,0,64
1,49,100,32
1,49,0,64
1,50,100,32
1,50,0,32
1,53,100,16
1,53,0,32
1,50,100,16
1,50,0,32
1,62,100,16
1,62,0,32
1,50,100,16
1,50,0,64
1,61,100,32
1,61,0,96
1,60,100,48
1,60,0,96
1,53,100,96
1,58,100,0
1,53,0,192
1,58,0,0
1,62,100,1248
1,62,0,64
1,63,100,32
1,63,0,64
1,62,100,32
1,62,0,64
1,63,100,32
1,63,0,352
1,63,100,128
1,63,0,64
1,65,100,32
1,65,0,64
1,67,100,32
1,67,0,64
1,64,100,32
1,64,0,352
1,64,100,128
1,64,0,64
1,65,100,32
1,65,0,64
1,67,100,32
1,67,0,64
1,60,100,32
1,69,100,0
1,69,0,288
1,60,0,0
1,60,100,96
1,64,100,0
1,60,0,192
1,64,0,0
1,55,100,96
1,60,100,0
1,55,0,64
1,60,0,0
1,57,100,32
1,57,0,64
1,58,100,32
1,58,0,128
1,64,100,640
1,64,0,64
1,65,100,32
1,65,0,32
1,64,100,16
1,64,0,32
1,57,100,16
1,57,0,64
1,55,100,32
1,55,0,128
1,57,100,64
1,57,0,32
1,55,100,16
1,55,0,32
1,52,100,16
1,52,0,64
1,50,100,32
1,50,0,224
1,50,100,64
1,50,0,64
1,49,100,32
1,49,0,32
1,50,100,16
1,50,0,32
1,58,100,16
1,58,0,32
1,49,100,16
1,49,0,32
1,50,100,16
1,50,0,32
1,52,100,16
1,52,0,32
1,64,100,208
1,64,0,64
1,65,100,32
1,65,0,32
1,64,100,16
1,64,0,32
1,57,100,16
1,57,0,64
1,55,100,32
1,55,0,96
1,57,100,48
1,57,0,32
1,55,100,16
1,55,0,32
1,52,100,16
1,52,0,32
1,58,100,208
1,53,100,0
1,58,0,96
1,53,0,0
1,53,100,48
1,58,100,0
1,53,0,32
1,58,0,0
1,50,100,16
1,50,0,64
1,50,100,80
1,50,0,32
1,50,100,16
1,50,0,32
1,58,100,16
1,53,100,0
1,58,0,32
1,53,0,0
1,50,100,16
1,50,0,32
1,50,100,16
1,50,0,32
1,53,100,16
1,58,100,0
1,58,0,64
1,53,0,0
1,50,100,32
1,50,0,64
1,60,100,32
1,69,100,0
1,69,0,192
1,60,0,0
1,64,100,96
1,60,100,0
1,60,0,256
1,64,0,0
1,58,100,128
1,53,100,0
1,53,0,64
1,58,0,160
1,50,100,64
1,50,0,64
1,48,100,128
1,48,0,32
1,50,100,16
1,50,0,32
1,53,100,16
1,58,100,0
1,53,0,192
1,58,0,0
1,43,100,96
1,43,0,32
1,43,100,16
1,43,0,32
1,55,100,16
1,55,0,32
1,43,100,16
1,43,0,32
1,43,100,16
1,43,0,32
1,55,100,16
1,43,100,0
1,43,0,32
1,55,0,0
1,55,100,16
1,55,0,32
1,55,100,16
1,55,0,96
1,43,100,336
1,43,0,32
1,43,100,16
1,43,0,32
1,55,100,16
1,55,0,32
1,43,100,16
1,43,0,32
1,43,100,16
1,43,0,32
1,43,100,16
1,55,100,0
1,55,0,32
1,43,0,0
1,55,100,16
1,55,0,32
1,55,100,16
1,55,0,96
1,43,100,336
1,43,0,32
1,43,100,16
1,43,0,32
1,55,100,16
1,55,0,32
1,43,100,16
1,43,0,32
1,43,100,16
1,43,0,32
1,43,100,16
1,55,100,0
1,43,0,32
1,55,0,0
1,55,100,16
1,55,0,32
1,55,100,16
1,55,0,96
1,43,100,336
1,43,0,32
1,43,100,16
1,43,0,32
1,55,100,16
1,55,0,32
1,43,100,16
1,43,0,32
1,43,100,16
1,43,0,32
1,55,100,16
1,55,0,32
1,55,100,16
1,55,0,32
1,55,100,16
1,55,0,96
1,60,100,48
1,53,100,0
1,57,100,0
1,53,0,96
1,60,0,0
1,57,0,0
1,61,100,48
1,58,100,0
1,54,100,0
1,61,0,96
1,58,0,0
1,54,0,0
1,43,100,48
1,43,0,32
1,43,100,16
1,43,0,32
1,55,100,16
1,55,0,32
1,43,100,16
1,43,0,32
1,43,100,16
1,43,0,32
1,43,100,16
1,55,100,0
1,43,0,32
1,55,0,0
1,55,100,16
1,55,0,32
1,55,100,16
1,55,0,96
1,43,100,336
1,43,0,32
1,43,100,16
1,43,0,32
1,55,100,16
1,55,0,32
1,43,100,16
1,43,0,32
1,43,100,16
1,43,0,32
1,43,100,16
1,55,100,0
1,55,0,32
1,43,0,0
1,55,100,16
1,55,0,32
1,55,100,16
1,55,0,96
1,43,100,336
1,43,0,32
1,43,100,16
1,43,0,32
1,55,100,16
1,55,0,32
1,43,100,16
1,43,0,32
1,43,100,16
1,43,0,32
1,55,100,16
1,43,100,0
1,43,0,32
1,55,0,0
1,55,100,16
1,55,0,32
1,55,100,16
1,55,0,96
1,43,100,336
1,43,0,32
1,55,100,16
1,43,100,0
1,43,0,32
1,55,100,16
1,55,0,16
1,55,0,16
1,55,100,16
1,43,100,0
1,43,0,32
1,43,100,16
1,55,0,16
1,43,0,16
1,43,100,16
1,55,100,0
1,43,0,32
1,55,0,0
1,55,100,16
1,55,0,32
1,55,100,16
1,55,0,64
1,48,100,32
1,48,0,64
1,49,100,32
1,49,0,64
1,50,100,32
1,50,0,32
1,53,100,16
1,53,0,32
1,50,100,16
1,50,0,32
1,62,100,16
1,62,0,32
1,50,100,16
1,50,0,64
1,61,100,32
1,61,0,96
1,60,100,48
1,60,0,96
1,58,100,96
1,53,100,0
1,58,0,192
1,53,0,0
1,43,100,96
1,43,0,32
1,43,100,16
1,43,0,32
1,55,100,16
1,55,0,32
1,43,100,16
1,43,0,32
1,43,100,16
1,43,0,32
1,55,100,16
1,43,100,0
1,43,0,32
1,55,0,0
1,55,100,16
1,55,0,32
1,55,100,16
1,55,0,96
1,43,100,336
1,43,0,32
1,43,100,16
1,43,0,32
1,55,100,16
1,55,0,32
1,43,100,16
1,43,0,32
1,43,100,16
1,43,0,32
1,43,100,16
1,55,100,0
1,55,0,32
1,43,0,0
1,55,100,16
1,55,0,32
1,55,100,16
1,55,0,96
1,43,100,336
1,43,0,32
1,43,100,16
1,43,0,32
1,55,100,16
1,55,0,32
1,43,100,16
1,43,0,32
1,43,100,16
1,43,0,32
1,55,100,16
1,43,100,0
1,43,0,32
1,55,0,0
1,55,100,16
1,55,0,32
1,55,100,16
1,55,0,96
1,43,100,336
1,43,0,32
1,43,100,16
1,43,0,32
1,55,100,16
1,55,0,32
1,43,100,16
1,43,0,32
1,43,100,16
1,43,0,32
1,55,100,16
1,55,0,32
1,55,100,16
1,55,0,32
1,55,100,16
1,55,0,96
1,60,100,48
1,57,100,0
1,53,100,0
1,53,0,96
1,57,0,0
1,60,0,0
1,54,100,48
1,58,100,0
1,61,100,0
1,61,0,96
1,54,0,0
1,58,0,0
1,43,100,48
1,43,0,32
1,43,100,16
1,43,0,32
1,55,100,16
1,55,0,32
1,43,100,16
1,43,0,32
1,43,100,16
1,43,0,32
1,43,100,16
1,55,100,0
1,55,0,32
1,43,0,0
1,55,100,16
1,55,0,32
1,55,100,16
1,55,0,96
1,43,100,336
1,43,0,32
1,43,100,16
1,43,0,32
1,55,100,16
1,55,0,32
1,43,100,16
1,43,0,32
1,43,100,16
1,43,0,32
1,43,100,16
1,55,100,0
1,43,0,32
1,55,0,0
1,55,100,16
1,55,0,32
1,55,100,16
1,55,0,96
1,43,100,336
1,43,0,32
1,43,100,16
1,43,0,32
1,55,100,16
1,55,0,32
1,43,100,16
1,43,0,32
1,43,100,16
1,43,0,32
1,43,100,16
1,55,100,0
1,43,0,32
1,55,0,0
1,55,100,16
1,55,0,32
1,55,100,16
1,55,0,96
1,43,100,336
1,43,0,32
1,43,100,16
1,55,100,0
1,43,0,32
1,55,100,16
1,55,0,16
1,55,0,16
