track,note,velocity,time
1,52,84,192
1,62,84,0
1,64,84,0
1,68,80,0
1,71,84,0
1,64,0,115
1,68,0,5
1,62,0,2
1,71,0,1
1,52,0,1
1,52,84,20
1,62,84,0
1,64,80,0
1,68,72,0
1,71,76,0
1,68,0,30
1,64,0,2
1,71,0,4
1,62,0,0
1,52,0,3
1,52,84,9
1,62,84,0
1,64,68,0
1,68,76,0
1,71,84,0
1,68,0,87
1,64,0,2
1,52,0,3
1,62,0,3
1,71,0,3
1,52,84,190
1,62,84,0
1,64,84,0
1,68,80,0
1,71,84,0
1,52,0,220
1,64,0,4
1,68,0,4
1,71,0,1
1,62,0,3
1,45,84,56
1,61,84,0
1,64,84,0
1,67,80,0
1,69,84,0
1,64,0,111
1,67,0,4
1,45,0,1
1,69,0,1
1,61,0,3
1,45,84,24
1,61,80,0
1,64,84,0
1,67,76,0
1,71,80,0
1,67,0,28
1,64,0,1
1,71,0,1
1,45,0,2
1,61,0,2
1,45,84,14
1,61,84,0
1,64,72,0
1,67,68,0
1,71,84,0
1,45,0,106
1,67,0,24
1,64,0,2
1,61,0,4
1,71,0,0
1,45,84,152
1,61,84,0
1,64,84,0
1,67,80,0
1,71,84,0
1,45,0,139
1,64,0,8
1,67,0,5
1,61,0,13
1,71,0,2
1,50,84,25
1,50,0,87
1,38,56,9
1,50,84,0
1,62,84,0
1,64,84,0
1,69,84,0
1,71,84,0
1,62,0,109
1,64,0,3
1,38,0,0
1,71,0,1
1,69,0,0
1,50,0,7
1,38,72,24
1,50,84,0
1,62,84,0
1,64,76,0
1,69,80,0
1,71,80,0
1,64,0,28
1,38,0,2
1,69,0,2
1,71,0,0
1,50,0,1
1,62,0,2
1,38,68,13
1,50,76,0
1,62,80,0
1,64,64,0
1,69,64,0
1,71,64,0
1,64,0,82
1,38,0,0
1,69,0,8
1,71,0,0
1,62,0,4
1,50,0,3
1,45,84,95
1,52,84,0
1,57,84,0
1,62,80,0
1,67,80,0
1,71,80,0
1,45,0,113
1,57,0,5
1,52,0,2
1,67,0,22
1,71,0,0
1,45,80,2
1,52,80,0
1,57,68,0
1,61,80,0
1,67,80,0
1,71,80,0
1,62,0,47
1,52,0,127
1,57,0,13
1,71,0,3
1,67,0,1
1,61,0,0
1,45,0,8
1,40,80,41
1,62,84,0
1,64,84,0
1,68,76,0
1,71,84,0
1,62,0,104
1,71,0,6
1,68,0,1
1,64,0,1
1,40,0,1
1,40,68,31
1,52,84,0
1,62,84,0
1,64,84,0
1,68,84,0
1,71,84,0
1,68,0,24
1,64,0,5
1,62,0,3
1,40,0,0
1,52,0,2
1,71,0,0
1,40,72,14
1,52,84,0
1,62,84,0
1,64,84,0
1,68,72,0
1,71,84,0
1,40,0,72
1,62,0,15
1,64,0,1
1,52,0,8
1,68,0,4
1,71,0,4
1,71,97,40
1,74,82,0
1,76,82,0
1,80,82,0
1,71,0,44
1,76,0,11
1,74,0,1
1,80,0,3
1,71,97,37
1,74,82,0
1,76,82,0
1,80,78,0
1,80,0,23
1,76,0,5
1,74,0,1
1,71,0,8
1,69,97,11
1,74,74,0
1,76,82,0
1,80,58,0
1,69,0,69
1,80,0,2
1,74,0,1
1,76,0,1
1,67,97,23
1,74,82,0
1,76,82,0
1,80,78,0
1,67,0,91
1,68,89,5
1,74,0,56
1,80,0,0
1,76,0,2
1,68,0,11
1,52,83,28443
1,62,83,0
1,64,83,0
1,68,82,0
1,71,83,0
1,64,0,115
1,68,0,5
1,62,0,2
1,71,0,1
1,52,0,1
1,52,83,20
1,62,83,0
1,64,82,0
1,68,80,0
1,71,81,0
1,68,0,30
1,64,0,2
1,71,0,4
1,62,0,0
1,52,0,3
1,52,83,9
1,62,83,0
1,64,79,0
1,68,81,0
1,71,83,0
1,68,0,87
1,64,0,2
1,52,0,3
1,62,0,3
1,71,0,3
1,52,83,190
1,62,83,0
1,64,83,0
1,68,82,0
1,71,83,0
1,52,0,220
1,64,0,4
1,68,0,4
1,71,0,1
1,62,0,3
1,45,83,56
1,61,83,0
1,64,83,0
1,67,82,0
1,69,83,0
1,64,0,111
1,67,0,4
1,45,0,1
1,69,0,1
1,61,0,3
1,45,83,24
1,61,82,0
1,64,83,0
1,67,81,0
1,71,82,0
1,67,0,28
1,64,0,1
1,71,0,1
1,45,0,2
1,61,0,2
1,45,83,14
1,61,83,0
1,64,80,0
1,67,79,0
1,71,83,0
1,45,0,106
1,67,0,24
1,64,0,2
1,61,0,4
1,71,0,0
1,45,83,152
1,61,83,0
1,64,83,0
1,67,82,0
1,71,83,0
1,45,0,139
1,64,0,8
1,67,0,5
1,61,0,13
1,71,0,2
1,50,83,25
1,50,0,87
1,38,76,9
1,50,83,0
1,62,83,0
1,64,83,0
1,69,83,0
1,71,83,0
1,64,0,109
1,62,0,0
1,38,0,3
1,71,0,1
1,69,0,0
1,50,0,7
1,38,80,24
1,50,83,0
1,62,83,0
1,62,79,0
1,64,83,0
1,64,79,0
1,69,82,0
1,71,82,0
1,64,0,28
1,62,0,0
1,38,0,2
1,71,0,2
1,69,0,0
1,50,0,1
1,64,0,2
1,62,0,0
1,38,79,13
1,50,81,0
1,62,82,0
1,62,76,0
1,64,82,0
1,64,76,0
1,69,78,0
1,71,78,0
1,64,0,82
1,62,0,0
1,38,0,0
1,71,0,8
1,69,0,0
1,64,0,4
1,62,0,0
1,50,0,3
1,45,83,95
1,52,83,0
1,57,83,0
1,62,82,0
1,64,82,0
1,67,82,0
1,69,82,0
1,45,0,113
1,57,0,5
1,52,0,2
1,67,0,22
1,69,0,0
1,45,82,2
1,52,82,0
1,57,79,0
1,61,82,0
1,67,82,0
1,71,82,0
1,62,0,47
1,64,0,0
1,52,0,127
1,57,0,13
1,71,0,3
1,61,0,1
1,67,0,0
1,45,0,8
1,40,82,41
1,62,83,0
1,64,83,0
1,68,81,0
1,71,83,0
1,62,0,104
1,71,0,6
1,68,0,1
1,64,0,1
1,40,0,1
1,40,79,31
1,52,83,0
1,62,83,0
1,64,83,0
1,68,83,0
1,71,83,0
1,68,0,24
1,64,0,5
1,62,0,3
1,40,0,0
1,52,0,2
1,71,0,0
1,40,80,14
1,52,83,0
1,62,83,0
1,64,83,0
1,68,80,0
1,71,83,0
1,40,0,72
1,62,0,15
1,64,0,1
1,52,0,8
1,68,0,4
1,71,0,4
1,75,85,43
1,76,90,8
1,80,88,0
1,75,0,20
1,80,0,47
1,76,0,13
1,80,89,15
1,74,90,4
1,80,0,41
1,74,0,1
1,70,90,41
1,74,91,4
1,71,88,3
1,70,0,20
1,74,0,56
1,71,0,7
1,69,91,9
1,74,89,3
1,76,91,1
1,76,0,30
1,69,0,80
1,74,0,7
2,35,106,1038
2,35,0,94
2,40,110,2
2,40,0,766
2,33,106,2
2,33,0,634
2,35,106,38
2,35,0,94
2,38,106,2
2,38,0,382
2,33,110,2
2,33,0,382
2,28,110,2
2,28,0,604
2,38,114,68
2,38,0,5
2,33,114,9
2,33,0,190
2,38,106,2
2,38,0,556
2,33,114,20
2,33,0,88
2,38,106,8
2,38,0,382
2,33,110,2
2,33,0,382
2,28,114,2
2,28,0,722
2,28,104,46
2,28,0,93
2,28,104,99
2,28,0,141
2,33,104,51
2,33,0,124
2,33,104,68
2,33,0,127
2,38,104,65
2,38,0,116
2,38,104,76
2,38,0,127
2,38,104,65
2,38,0,116
2,38,104,76
2,38,0,105
2,28,104,87
2,28,0,129
2,28,104,63
2,28,0,132
2,33,104,60
2,33,0,112
2,33,104,80
2,33,0,112
2,38,104,80
2,38,0,112
2,38,104,80
2,38,0,125
2,38,104,67
2,38,0,120
2,38,104,72
2,38,0,105
2,28,104,87
2,28,0,115
2,28,104,77
2,28,0,102
2,33,104,90
2,33,0,116
2,33,104,76
2,33,0,136
2,38,104,56
2,38,0,119
2,38,104,73
2,38,0,118
2,38,104,74
2,38,0,135
2,38,104,57
2,38,0,129
2,28,104,63
2,28,0,128
2,28,104,64
2,28,0,95
2,33,104,97
2,33,0,122
2,33,96,70
2,33,0,118
2,38,104,74
2,38,0,116
2,38,104,76
2,38,0,128
2,33,104,64
2,33,0,88
2,33,104,104
2,28,114,2
2,33,0,16
2,28,0,78
2,28,114,2
2,28,0,94
2,28,114,2
2,28,0,142
2,23,114,146
2,23,0,286
2,38,114,2
2,38,0,94
2,38,114,2
2,38,0,94
2,38,114,2
2,38,0,142
2,38,114,98
2,38,0,142
2,35,114,2
2,35,0,46
2,38,114,50
2,38,0,46
2,40,114,2
2,40,0,46
2,28,114,2
2,28,0,94
2,28,114,2
2,28,0,94
2,28,114,2
2,28,0,142
2,23,114,146
2,23,0,286
2,38,114,2
2,38,0,94
2,38,114,2
2,38,0,94
2,38,114,2
2,38,0,142
2,28,114,434
2,28,0,94
2,28,114,2
2,28,0,94
2,28,114,2
2,28,0,142
2,23,114,146
2,23,0,286
2,38,114,2
2,38,0,94
2,38,114,2
2,38,0,94
2,38,114,2
2,38,0,142
2,38,114,98
2,38,0,142
2,35,114,2
2,35,0,46
2,38,114,50
2,38,0,46
2,40,114,2
2,40,0,46
2,28,114,2
2,28,0,94
2,28,114,2
2,28,0,94
2,28,114,2
2,28,0,142
2,23,114,146
2,23,0,286
2,38,114,2
2,38,0,94
2,38,114,2
2,38,0,94
2,38,114,2
2,38,0,142
2,28,114,434
2,28,0,94
2,28,114,2
2,28,0,94
2,28,114,2
2,28,0,142
2,28,114,146
2,28,0,288
2,33,114,0
2,33,0,94
2,33,114,2
2,33,0,94
2,33,114,2
2,33,0,142
2,33,114,146
2,33,0,254
2,38,114,34
2,38,0,94
2,38,114,2
2,38,0,94
2,38,114,2
2,38,0,142
2,33,114,146
2,33,0,239
2,28,114,49
2,28,0,94
2,28,114,2
2,28,0,94
2,28,114,2
2,28,0,142
2,40,114,2
2,40,0,46
2,28,114,2
2,28,0,94
2,28,114,2
2,28,0,94
2,28,114,2
2,28,0,142
2,28,114,146
2,28,0,288
2,33,114,0
2,33,0,94
2,33,114,2
2,33,0,94
2,33,114,2
2,33,0,142
2,33,114,146
2,33,0,254
2,38,114,34
2,38,0,94
2,38,114,2
2,38,0,94
2,38,114,2
2,38,0,142
2,33,114,146
2,33,0,239
2,28,114,49
2,28,0,94
2,28,114,2
2,28,0,94
2,28,114,2
2,28,0,142
2,33,114,146
2,33,0,8
2,28,114,1
2,28,0,142
2,28,114,2
2,28,0,46
2,28,114,2
2,28,0,142
2,28,114,146
2,28,0,288
2,33,114,0
2,33,0,142
2,33,114,2
2,33,0,46
2,33,114,2
2,33,0,142
2,33,114,146
2,33,0,254
2,38,114,34
2,38,0,142
2,38,114,2
2,38,0,46
2,38,114,2
2,38,0,142
2,33,114,146
2,33,0,239
2,28,114,49
2,28,0,94
2,28,114,2
2,28,0,353
2,38,114,31
2,38,0,46
2,28,114,2
2,28,0,94
2,28,114,2
2,28,0,94
2,28,114,2
2,28,0,142
2,28,114,146
2,28,0,268
2,33,114,20
2,33,0,94
2,33,114,2
2,33,0,94
2,33,114,2
2,33,0,142
2,33,114,146
2,33,0,253
2,38,114,35
2,38,0,94
2,38,114,2
2,38,0,94
2,38,114,2
2,38,0,142
2,33,114,146
2,33,0,253
2,28,114,35
2,28,0,94
2,28,114,2
2,28,0,94
2,28,114,2
2,28,0,94
2,28,114,2
2,28,0,94
2,38,114,962
2,38,0,4
2,28,114,4
2,28,0,71
2,28,114,25
2,28,0,208
2,33,114,176
2,33,0,244
2,38,114,44
2,38,0,80
2,38,106,16
2,38,0,75
2,38,114,21
2,38,0,80
2,38,114,64
2,38,0,66
2,38,114,78
2,38,0,68
2,38,114,28
2,38,0,94
2,40,114,2
2,40,0,94
2,28,114,2
2,28,0,69
2,28,114,27
2,28,0,178
2,33,114,206
2,33,0,244
2,38,114,44
2,38,0,79
2,38,102,17
2,38,0,79
2,38,110,17
2,38,0,122
2,38,114,22
2,38,0,80
2,38,114,64
2,38,0,70
2,38,114,26
2,38,0,93
2,40,114,3
2,40,0,94
2,28,114,2
2,28,0,72
2,28,114,24
2,28,0,145
2,33,114,239
2,33,0,243
2,38,114,45
2,38,0,85
2,38,102,11
2,38,0,72
2,38,110,24
2,38,0,87
2,38,114,57
2,38,0,70
2,38,114,74
2,38,0,78
2,38,102,18
2,38,0,86
2,38,102,10
2,38,0,64
2,28,114,32
2,28,0,75
2,28,114,21
2,28,0,136
2,33,114,152
2,33,0,75
2,33,114,21
2,33,0,209
2,38,114,79
2,38,0,78
2,38,114,18
2,38,0,64
2,38,114,32
2,38,0,96
2,38,114,48
2,38,0,20
2,33,114,28
2,33,0,70
2,33,114,26
2,33,0,68
2,33,114,28
2,33,0,190
2,28,114,2
2,28,0,94
2,28,114,2
2,28,0,94
2,28,114,2
2,28,0,142
2,23,114,146
2,23,0,286
2,38,114,2
2,38,0,94
2,38,114,2
2,38,0,94
2,38,114,2
2,38,0,142
2,38,114,98
2,38,0,142
2,35,114,2
2,35,0,46
2,38,114,50
2,38,0,46
2,40,114,2
2,40,0,46
2,28,114,2
2,28,0,94
2,28,114,2
2,28,0,94
2,28,114,2
2,28,0,142
2,23,114,146
2,23,0,286
2,38,114,2
2,38,0,94
2,38,114,2
2,38,0,94
2,38,114,2
2,38,0,142
2,28,114,434
2,28,0,94
2,28,114,2
2,28,0,94
2,28,114,2
2,28,0,142
2,23,114,146
2,23,0,286
2,38,114,2
2,38,0,94
2,38,114,2
2,38,0,94
2,38,114,2
2,38,0,142
2,38,114,98
2,38,0,142
2,35,114,2
2,35,0,46
2,38,114,50
2,38,0,46
2,40,114,2
2,40,0,46
2,28,114,2
2,28,0,94
2,28,114,2
2,28,0,94
2,28,114,2
2,28,0,142
2,23,114,146
2,23,0,286
2,38,114,2
2,38,0,94
2,38,114,2
2,38,0,94
2,38,114,2
2,38,0,142
2,35,114,434
2,35,0,224
2,35,114,64
2,35,0,445
2,38,114,35
2,38,0,200
2,38,114,88
2,38,0,441
2,33,114,39
2,33,0,194
2,33,114,94
2,33,0,408
2,28,114,72
2,35,114,192
2,28,0,12
2,44,114,84
2,35,0,8
2,35,114,472
2,44,0,15
2,35,0,180
2,35,114,93
2,35,0,327
2,38,114,153
2,38,0,209
2,38,114,79
2,38,0,1
2,28,114,1538
2,28,0,94
2,28,114,2
2,28,0,94
2,28,114,2
2,28,0,142
2,28,114,146
2,28,0,288
2,33,114,0
2,33,0,94
2,33,114,2
2,33,0,94
2,33,114,2
2,33,0,142
2,33,114,146
2,33,0,254
2,38,114,34
2,38,0,94
2,38,114,2
2,38,0,94
2,38,114,2
2,38,0,142
2,33,114,146
2,33,0,239
2,28,114,49
2,28,0,94
2,28,114,2
2,28,0,94
2,28,114,2
2,28,0,142
2,40,114,2
2,40,0,46
2,40,114,50
2,40,0,46
2,40,114,2
2,40,0,86
2,38,114,10
2,38,0,16
2,28,114,2
2,28,0,94
2,28,114,2
2,28,0,94
2,28,114,2
2,28,0,142
2,28,114,146
2,28,0,288
2,33,114,0
2,33,0,94
2,33,114,2
2,33,0,94
2,33,114,2
2,33,0,142
2,33,114,146
2,33,0,254
2,38,114,34
2,38,0,94
2,38,114,2
2,38,0,94
2,38,114,2
2,38,0,142
2,33,114,146
2,33,0,239
2,28,114,49
2,28,0,94
2,28,114,2
2,28,0,94
2,28,114,2
2,28,0,142
2,33,114,146
2,33,0,8
2,28,114,1
2,28,0,142
2,28,114,2
2,28,0,46
2,28,114,2
2,28,0,142
2,28,114,146
2,28,0,288
2,33,114,0
2,33,0,142
2,33,114,2
2,33,0,46
2,33,114,2
2,33,0,142
2,33,114,146
2,33,0,254
2,38,114,34
2,38,0,142
2,38,114,2
2,38,0,46
2,38,114,2
2,38,0,142
2,33,114,146
2,33,0,239
2,28,114,49
2,28,0,94
2,28,114,2
2,28,0,161
2,40,114,31
2,40,0,172
2,40,114,20
2,40,0,76
2,38,114,20
2,38,0,46
2,28,114,2
2,28,0,94
2,28,114,2
2,28,0,94
2,28,114,2
2,28,0,142
