track,note,velocity,time
0,55,100,0
0,67,100,0
0,55,100,0
0,55,100,0
0,36,100,0
0,38,100,0
0,40,100,28
0,38,0,2
0,55,0,0
0,67,0,0
0,55,0,0
0,55,0,0
0,36,0,0
0,55,100,0
0,67,100,0
0,55,100,0
0,55,100,0
0,40,0,28
0,38,100,0
0,55,0,2
0,55,0,0
0,55,0,0
0,67,0,0
0,67,100,0
0,55,100,0
0,55,100,0
0,55,100,0
0,38,0,28
0,55,0,2
0,67,0,0
0,55,0,0
0,55,0,0
0,55,100,0
0,67,100,0
0,55,100,0
0,55,100,0
0,40,100,5
0,38,100,23
0,55,0,2
0,55,0,0
0,55,0,0
0,67,0,0
0,55,100,0
0,67,100,0
0,55,100,0
0,55,100,0
0,36,100,0
0,40,0,5
0,38,0,23
0,55,0,2
0,55,0,0
0,67,0,0
0,36,0,0
0,55,0,0
0,55,100,0
0,67,100,0
0,55,100,0
0,55,100,0
0,38,100,0
0,38,0,30
0,55,0,0
0,55,0,0
0,67,0,0
0,55,0,0
0,55,100,0
0,67,100,0
0,55,100,0
0,55,100,0
0,38,100,0
0,38,0,30
0,55,0,0
0,55,0,0
0,67,0,0
0,55,0,0
0,55,100,0
0,67,100,0
0,55,100,0
0,55,100,0
0,38,100,0
0,38,0,30
0,55,0,0
0,55,0,0
0,67,0,0
0,55,0,0
0,54,100,0
0,66,100,0
0,54,100,0
0,54,100,0
0,36,100,0
0,38,100,0
0,38,0,30
0,66,0,0
0,54,0,0
0,54,0,0
0,36,0,0
0,54,0,0
0,54,100,0
0,66,100,0
0,54,100,0
0,54,100,0
0,40,100,0
0,40,0,30
0,54,0,0
0,54,0,0
0,66,0,0
0,54,0,0
0,54,100,0
0,66,100,0
0,54,100,0
0,54,100,0
0,38,100,0
0,38,0,30
0,54,0,0
0,54,0,0
0,66,0,0
0,54,0,0
0,54,100,0
0,66,100,0
0,54,100,0
0,54,100,0
0,40,100,0
0,40,0,30
0,54,0,0
0,54,0,0
0,66,0,0
0,54,0,0
0,54,100,0
0,66,100,0
0,54,100,0
0,54,100,0
0,36,100,0
0,40,100,0
0,40,0,30
0,66,0,0
0,54,0,0
0,54,0,0
0,36,0,0
0,54,0,0
0,54,100,0
0,66,100,0
0,54,100,0
0,54,100,0
0,40,100,0
0,40,0,30
0,54,0,0
0,54,0,0
0,66,0,0
0,54,0,0
0,54,100,0
0,66,100,0
0,54,100,0
0,54,100,0
0,38,100,0
0,38,0,30
0,54,0,0
0,54,0,0
0,66,0,0
0,54,0,0
0,54,100,0
0,66,100,0
0,54,100,0
0,54,100,0
0,40,100,0
0,40,0,30
0,54,0,0
0,54,0,0
0,66,0,0
0,54,0,0
0,64,100,0
0,57,100,0
0,45,100,0
0,45,100,0
0,40,100,0
0,57,100,29
0,40,0,1
0,45,0,0
0,45,0,0
0,64,0,0
0,57,0,0
0,64,100,0
0,45,100,0
0,45,100,0
0,36,100,0
0,49,100,4
0,49,0,60
0,40,100,22
0,57,100,2
0,57,0,1
0,36,0,1
0,64,0,0
0,45,0,0
0,45,0,0
0,69,100,0
0,64,100,0
0,45,100,0
0,45,100,0
0,40,0,26
0,36,100,0
0,57,0,2
0,69,0,2
0,45,0,0
0,64,0,0
0,45,0,0
0,64,100,0
0,57,100,0
0,45,100,0
0,45,100,0
0,49,100,2
0,49,0,60
0,36,0,24
0,45,0,4
0,64,0,0
0,57,0,0
0,45,0,0
0,69,100,0
0,64,100,0
0,57,100,0
0,45,100,0
0,45,100,0
0,38,100,0
0,38,0,30
0,45,0,0
0,57,0,0
0,45,0,0
0,57,100,0
0,45,100,0
0,45,100,0
0,36,100,4
0,49,100,3
0,36,0,57
0,38,100,0
0,49,0,3
0,40,100,19
0,64,0,4
0,69,0,0
0,76,100,0
0,38,0,4
0,76,0,26
0,76,100,0
0,40,0,26
0,40,100,2
0,40,0,60
0,76,0,2
0,45,0,0
0,45,0,0
0,57,0,0
0,54,100,0
0,42,100,0
0,85,100,0
0,42,100,0
0,36,100,0
0,49,100,0
0,42,0,30
0,42,0,0
0,54,0,0
0,57,100,0
0,46,100,0
0,46,100,0
0,46,0,30
0,57,0,0
0,46,0,0
0,61,100,0
0,49,100,0
0,49,100,0
0,49,0,30
0,61,0,0
0,36,0,0
0,49,0,0
0,66,100,0
0,54,100,0
0,54,100,0
0,36,100,0
0,40,100,28
0,36,0,2
0,49,0,0
0,85,0,0
0,85,100,0
0,42,100,0
0,42,0,60
0,66,0,0
0,54,0,0
0,54,0,0
0,42,100,0
0,40,0,28
0,85,0,2
0,87,100,0
0,36,100,0
0,36,0,30
0,87,0,0
0,42,0,0
0,81,100,0
0,36,100,0
0,42,100,0
0,36,0,30
0,81,0,0
0,80,100,0
0,38,100,0
0,38,0,30
0,80,0,0
0,42,0,0
0,78,100,0
0,36,100,0
0,42,100,0
0,36,0,30
0,36,100,0
0,36,0,30
0,42,0,0
0,78,0,0
0,78,100,0
0,38,100,0
0,42,100,0
0,38,0,30
0,78,0,0
0,73,100,0
0,36,100,5
0,42,0,25
0,42,100,0
0,63,100,30
0,51,100,0
0,51,100,0
0,36,100,0
0,36,0,5
0,51,0,25
0,42,0,0
0,63,0,0
0,73,0,0
0,36,0,0
0,51,0,0
0,64,100,0
0,52,100,0
0,75,100,0
0,52,100,0
0,36,100,0
0,42,100,0
0,52,0,30
0,52,0,0
0,64,0,0
0,63,100,0
0,51,100,0
0,51,100,0
0,42,100,23
0,51,0,7
0,63,0,0
0,42,0,0
0,75,0,0
0,51,0,0
0,64,100,0
0,52,100,0
0,78,100,0
0,52,100,0
0,52,0,30
0,36,0,0
0,64,0,0
0,52,0,0
0,63,100,0
0,51,100,0
0,51,100,0
0,36,100,2
0,42,0,21
0,42,100,3
0,51,0,4
0,78,0,0
0,51,0,0
0,63,0,0
0,64,100,0
0,52,100,0
0,78,100,0
0,52,100,0
0,36,0,2
0,38,100,0
0,64,0,28
0,52,0,0
0,52,0,0
0,63,100,0
0,51,100,0
0,51,100,0
0,42,0,26
0,42,100,0
0,38,100,2
0,78,0,2
0,51,0,0
0,63,0,0
0,51,0,0
0,61,100,0
0,49,100,0
0,78,100,0
0,49,100,0
0,38,0,2
0,49,0,28
0,61,0,0
0,49,0,0
0,57,100,0
0,45,100,0
0,45,100,0
0,36,100,25
0,42,0,1
0,38,0,2
0,45,0,2
0,57,0,0
0,78,0,0
0,45,0,0
0,59,100,0
0,47,100,0
0,78,100,0
0,47,100,0
0,42,100,1
0,47,0,29
0,47,0,0
0,59,0,0
0,57,100,0
0,45,100,0
0,45,100,0
0,42,100,26
0,45,0,4
0,57,0,0
0,45,0,0
0,59,100,0
0,47,100,0
0,47,100,0
0,42,0,1
0,47,0,29
0,59,0,0
0,47,0,0
0,57,100,0
0,45,100,0
0,45,100,0
0,36,0,25
0,42,0,1
0,42,100,2
0,57,0,2
0,45,0,0
0,78,0,0
0,45,0,0
0,59,100,0
0,47,100,0
0,47,100,0
0,38,100,2
0,47,0,28
0,47,0,0
0,59,0,0
0,61,100,0
0,48,100,0
0,48,100,0
0,42,0,28
0,42,100,0
0,48,0,2
0,48,0,0
0,61,0,0
0,59,100,0
0,47,100,0
0,75,100,0
0,47,100,0
0,38,100,0
0,38,0,2
0,75,0,28
0,59,0,0
0,47,0,0
0,47,0,0
0,57,100,0
0,45,100,0
0,75,100,0
0,45,100,0
0,42,0,28
0,57,0,2
0,45,0,0
0,38,0,0
0,45,0,0
0,75,0,0
0,54,100,0
0,42,100,0
0,85,100,0
0,42,100,0
0,36,100,0
0,42,100,0
0,42,0,30
0,42,0,0
0,54,0,0
0,57,100,0
0,46,100,0
0,46,100,0
0,46,0,30
0,42,0,0
0,85,0,0
0,57,0,0
0,46,0,0
0,61,100,0
0,49,100,0
0,85,100,0
0,49,100,0
0,42,100,0
0,49,0,30
0,49,0,0
0,61,0,0
0,66,100,0
0,54,100,0
0,54,100,0
0,36,0,30
0,42,0,0
0,85,0,0
0,85,100,0
0,38,100,0
0,42,100,0
0,38,0,30
0,85,0,0
0,38,100,4
0,87,100,1
0,66,0,25
0,54,0,0
0,54,0,0
0,42,0,0
0,42,100,0
0,81,100,30
0,36,100,2
0,38,0,2
0,87,0,1
0,36,100,9
0,36,0,3
0,40,100,11
0,36,0,1
0,42,0,1
0,42,100,0
0,40,0,28
0,40,100,2
0,42,0,30
0,81,0,0
0,80,100,0
0,42,100,0
0,36,100,29
0,40,0,1
0,36,0,14
0,36,100,0
0,36,0,15
0,42,0,1
0,80,0,0
0,78,100,0
0,38,100,0
0,42,100,0
0,38,0,30
0,38,100,2
0,42,0,28
0,78,0,0
0,71,100,0
0,46,100,0
0,63,100,30
0,51,100,0
0,51,100,0
0,36,100,0
0,38,0,2
0,36,100,12
0,36,0,1
0,36,0,14
0,46,0,1
0,63,0,0
0,71,0,0
0,51,0,0
0,51,0,0
0,64,100,0
0,52,100,0
0,76,100,0
0,52,100,0
0,36,100,0
0,49,100,0
0,52,0,30
0,76,0,0
0,64,0,0
0,52,0,0
0,63,100,0
0,51,100,0
0,78,100,0
0,51,100,0
0,51,0,30
0,49,0,0
0,63,0,0
0,51,0,0
0,64,100,0
0,52,100,0
0,52,100,0
0,42,100,0
0,52,0,30
0,52,0,0
0,64,0,0
0,63,100,0
0,51,100,0
0,51,100,0
0,38,100,28
0,51,0,2
0,63,0,0
0,42,0,0
0,78,0,0
0,36,0,0
0,51,0,0
0,64,100,0
0,52,100,0
0,78,100,0
0,52,100,0
0,42,100,0
0,52,0,30
0,52,0,0
0,64,0,0
0,63,100,0
0,51,100,0
0,51,100,0
0,38,0,28
0,42,0,2
0,63,0,0
0,78,0,0
0,51,0,0
0,51,0,0
0,61,100,0
0,49,100,0
0,78,100,0
0,49,100,0
0,38,100,0
0,42,100,0
0,49,0,30
0,78,0,0
0,61,0,0
0,49,0,0
0,57,100,0
0,45,100,0
0,78,100,0
0,45,100,0
0,42,100,26
0,45,0,4
0,45,0,0
0,42,0,0
0,57,0,0
0,38,0,0
0,78,0,0
0,59,100,0
0,47,100,0
0,47,100,0
0,36,100,0
0,47,0,30
0,47,0,0
0,59,0,0
0,57,100,0
0,45,100,0
0,45,100,0
0,42,0,26
0,45,0,4
0,45,0,0
0,57,0,0
0,59,100,0
0,47,100,0
0,47,100,0
0,42,100,0
0,47,0,30
0,47,0,0
0,59,0,0
0,57,100,0
0,45,100,0
0,45,100,0
0,42,100,26
0,45,0,4
0,45,0,0
0,57,0,0
0,42,0,0
0,36,0,0
0,59,100,0
0,47,100,0
0,47,100,0
0,38,100,0
0,47,0,30
0,47,0,0
0,59,0,0
0,61,100,0
0,48,100,0
0,48,100,0
0,42,0,26
0,48,0,4
0,38,0,0
0,61,0,0
0,48,0,0
0,59,100,0
0,47,100,0
0,47,100,0
0,42,100,0
0,40,100,2
0,47,0,28
0,59,0,0
0,47,0,0
0,57,100,0
0,45,100,0
0,73,100,0
0,45,100,0
0,45,0,30
0,42,0,0
0,57,0,0
0,45,0,0
0,73,0,0
0,54,100,0
0,42,100,0
0,85,100,0
0,42,100,0
0,36,100,0
0,42,100,0
0,40,0,2
0,42,0,28
0,54,0,0
0,42,0,0
0,57,100,0
0,46,100,0
0,46,100,0
0,42,100,28
0,46,0,2
0,57,0,0
0,42,0,0
0,85,0,0
0,46,0,0
0,61,100,0
0,49,100,0
0,85,100,0
0,49,100,0
0,49,0,30
0,61,0,0
0,49,0,0
0,66,100,0
0,54,100,0
0,54,100,0
0,42,0,28
0,40,100,0
0,36,0,2
0,85,0,0
0,85,100,0
0,42,100,0
0,42,0,60
0,54,0,0
0,54,0,0
0,66,0,0
0,85,0,0
0,87,100,0
0,42,100,0
0,40,0,28
0,87,0,2
0,36,100,0
0,81,100,4
0,36,0,26
0,42,0,0
0,36,100,0
0,42,100,0
0,36,0,30
0,80,100,0
0,38,100,0
0,81,0,4
0,42,0,26
0,80,0,0
0,38,0,0
0,78,100,0
0,36,100,0
0,42,100,0
0,36,0,30
0,78,0,0
0,81,100,0
0,36,100,0
0,36,0,30
0,42,0,0
0,38,100,0
0,42,100,0
0,38,0,30
0,36,100,0
0,42,0,30
0,81,0,0
0,78,100,0
0,42,100,0
0,78,0,30
0,63,100,0
0,51,100,0
0,81,100,0
0,51,100,0
0,51,0,30
0,42,0,0
0,63,0,0
0,36,0,0
0,51,0,0
0,64,100,0
0,52,100,0
0,52,100,0
0,36,100,0
0,49,100,0
0,52,0,30
0,52,0,0
0,64,0,0
0,63,100,0
0,51,100,0
0,51,100,0
0,51,0,30
0,63,0,0
0,81,0,0
0,49,0,0
0,51,0,0
0,64,100,0
0,52,100,0
0,78,100,0
0,52,100,0
0,42,100,0
0,52,0,30
0,78,0,0
0,52,0,0
0,64,0,0
0,63,100,0
0,51,100,0
0,81,100,0
0,51,100,0
0,38,100,28
0,51,0,2
0,63,0,0
0,36,0,0
0,42,0,0
0,51,0,0
0,64,100,0
0,52,100,0
0,52,100,0
0,42,100,0
0,52,0,30
0,52,0,0
0,64,0,0
0,63,100,0
0,51,100,0
0,51,100,0
0,38,0,28
0,81,0,2
0,63,0,0
0,42,0,0
0,51,0,0
0,51,0,0
0,61,100,0
0,49,100,0
0,78,100,0
0,49,100,0
0,38,100,0
0,42,100,0
0,49,0,30
0,49,0,0
0,61,0,0
0,59,100,0
0,47,100,0
0,47,100,0
0,42,100,26
0,47,0,4
0,59,0,0
0,42,0,0
0,78,0,0
0,38,0,0
0,47,0,0
0,61,100,0
0,49,100,0
0,81,100,0
0,49,100,0
0,36,100,0
0,49,0,30
0,49,0,0
0,61,0,0
0,59,100,0
0,47,100,0
0,47,100,0
0,42,0,26
0,47,0,4
0,59,0,0
0,81,0,0
0,47,0,0
0,61,100,0
0,49,100,0
0,78,100,0
0,49,100,0
0,42,100,0
0,49,0,30
0,78,0,0
0,49,0,0
0,61,0,0
0,59,100,0
0,47,100,0
0,47,100,0
0,81,100,2
0,42,100,24
0,47,0,4
0,47,0,0
0,42,0,0
0,59,0,0
0,36,0,0
0,61,100,0
0,49,100,0
0,49,100,0
0,38,100,0
0,49,0,30
0,49,0,0
0,61,0,0
0,59,100,0
0,47,100,0
0,78,100,0
0,47,100,0
0,81,0,2
0,42,0,24
0,38,0,4
0,47,0,0
0,59,0,0
0,47,0,0
0,57,100,0
0,45,100,0
0,45,100,0
0,42,100,0
0,40,100,2
0,45,0,28
0,45,0,0
0,57,0,0
0,56,100,0
0,44,100,0
0,44,100,0
0,44,0,0
0,42,0,0
0,78,0,0
0,56,0,0
0,44,0,0
0,57,100,0
0,45,100,0
0,78,100,0
0,45,100,0
0,36,100,0
0,42,100,0
0,40,0,2
0,45,0,28
0,57,0,0
0,45,0,0
0,56,100,0
0,44,100,0
0,44,100,0
0,42,100,26
0,44,0,4
0,56,0,0
0,42,0,0
0,44,0,0
0,57,100,0
0,45,100,0
0,45,100,0
0,45,0,30
0,57,0,0
0,45,0,0
0,56,100,0
0,44,100,0
0,44,100,0
0,42,100,23
0,42,0,3
0,44,0,4
0,36,0,0
0,56,0,0
0,78,0,0
0,44,0,0
0,57,100,0
0,45,100,0
0,45,100,0
0,38,100,0
0,45,0,30
0,45,0,0
0,57,0,0
0,56,100,0
0,44,100,0
0,44,100,0
0,42,0,23
0,42,100,3
0,44,0,4
0,44,0,0
0,38,0,0
0,56,0,0
0,57,100,0
0,45,100,0
0,45,100,0
0,40,100,0
0,42,0,56
0,45,0,0
0,57,0,0
0,45,0,0
0,40,0,0
0,54,100,0
0,61,100,0
0,42,100,0
0,42,100,0
0,36,100,0
0,49,100,0
0,36,100,85
0,49,0,5
0,42,0,0
0,61,0,0
0,42,0,0
0,54,0,0
0,36,0,0
0,52,100,0
0,59,100,0
0,40,100,0
0,40,100,0
0,49,100,4
0,36,0,81
0,36,100,0
0,49,100,3
0,40,0,2
0,52,0,0
0,40,0,0
0,59,0,0
0,54,100,0
0,61,100,0
0,42,100,0
