track,note,velocity,time
1,70,100,10656
1,70,0,500
1,70,100,8
1,70,0,58
1,67,100,1606
1,67,0,52
1,70,100,0
1,70,0,500
1,70,100,5
1,70,0,95
1,64,100,1426
1,64,0,240
1,68,100,0
1,68,0,120
1,64,100,0
1,64,0,60
1,70,100,0
1,70,0,120
1,71,100,0
1,71,0,60
1,70,100,0
1,70,0,180
1,68,100,120
1,64,100,165
1,68,0,15
1,64,0,45
1,64,100,15
1,64,0,240
1,62,100,1890
1,62,0,120
1,71,100,30
1,71,0,90
1,71,100,30
1,71,0,90
1,69,100,30
1,69,0,120
1,59,100,0
1,59,0,60
1,59,100,0
1,59,0,120
1,64,100,0
1,64,0,180
1,64,100,0
1,64,0,180
1,68,100,0
1,68,0,180
1,76,100,1620
1,76,0,60
1,76,100,0
1,76,0,60
1,68,100,120
1,68,0,55
1,68,100,5
1,68,0,55
1,68,100,5
1,68,0,180
1,64,100,0
1,64,0,60
1,64,100,300
1,64,0,180
1,64,100,0
1,64,0,75
1,64,100,15
1,64,0,180
1,68,100,1470
1,68,0,55
1,68,100,5
1,68,0,55
1,69,100,5
1,69,0,115
1,69,100,5
1,69,0,175
1,69,100,5
1,69,0,180
1,69,100,240
1,69,0,115
1,69,100,5
1,69,0,175
1,69,100,5
1,69,0,113
1,73,70,898
1,73,0,174
1,69,80,3
1,69,0,59
1,69,100,240
1,69,0,60
1,71,100,0
1,71,0,120
1,68,100,0
1,68,0,174
1,66,100,5
1,66,0,160
1,59,100,2
1,59,0,120
1,59,100,0
1,59,0,60
1,62,100,90
1,62,0,210
1,64,100,0
1,64,0,55
1,64,100,5
1,64,0,120
1,71,100,1620
1,71,0,25
1,71,100,5
1,71,0,25
1,71,100,5
1,71,0,85
1,71,100,5
1,71,0,25
1,71,100,5
1,71,0,180
1,74,100,0
1,74,0,60
1,68,100,0
1,68,0,18
1,76,100,420
1,76,0,60
1,69,100,0
1,69,0,60
1,71,100,0
1,71,0,60
1,69,100,0
1,69,0,180
1,71,100,0
1,71,0,115
1,66,100,2
1,66,0,172
1,71,75,230
1,71,0,60
1,64,75,0
1,64,0,60
1,71,75,120
1,71,0,60
1,64,75,0
1,64,0,60
1,71,100,28980
1,71,0,120
1,71,100,0
1,71,0,60
1,71,100,0
1,71,0,120
1,71,100,0
1,71,0,240
1,71,100,180
1,71,0,120
1,71,100,0
1,71,0,60
1,71,100,60
1,71,0,55
1,67,100,3
1,67,0,180
1,64,100,0
1,64,0,120
1,64,100,0
1,64,0,240
2,64,70,1072
2,64,0,60
2,67,70,0
2,67,0,60
2,69,70,60
2,73,70,0
2,73,0,60
2,69,0,0
2,70,70,0
2,70,0,180
2,71,80,0
2,74,80,0
2,74,0,1
2,71,0,22
2,69,70,2
2,69,0,180
2,69,60,0
2,69,0,60
2,71,60,0
2,71,0,60
2,68,50,0
2,68,0,60
2,64,70,300
2,64,0,60
2,67,70,0
2,67,0,60
2,73,70,60
2,69,70,0
2,69,0,60
2,73,0,0
2,70,80,0
2,74,80,240
2,70,0,900
2,70,60,0
2,70,0,60
2,70,60,0
2,70,0,60
2,70,60,0
2,70,0,120
2,70,70,0
2,70,0,60
2,70,70,0
2,70,0,90
2,71,70,0
2,71,0,450
2,74,0,0
2,70,70,120
2,70,0,60
2,71,70,0
2,71,0,180
2,69,70,0
2,69,0,120
2,67,70,0
2,67,0,6
2,64,70,0
2,64,0,80
2,67,70,0
2,67,0,40
2,66,50,0
2,66,0,120
2,62,70,0
2,62,0,120
2,68,70,0
2,64,70,0
2,64,0,240
2,68,0,0
2,64,60,118
2,68,60,0
2,68,0,60
2,64,0,0
2,62,60,0
2,66,60,0
2,66,0,120
2,62,0,0
2,64,90,50
2,76,90,0
2,68,90,10
2,80,90,0
2,71,90,10
2,83,90,0
2,83,0,110
2,76,0,0
2,68,0,0
2,64,0,0
2,71,0,0
2,80,0,0
2,64,90,170
2,76,90,0
2,68,90,10
2,80,90,0
2,71,90,10
2,83,90,0
2,83,0,170
2,76,0,0
2,68,0,0
2,64,0,0
2,71,0,0
2,80,0,0
2,69,80,0
2,73,80,0
2,81,80,0
2,85,80,0
2,85,0,60
2,69,0,0
2,73,0,0
2,81,0,0
2,64,90,170
2,76,90,0
2,68,90,10
2,80,90,0
2,71,90,10
2,83,90,0
2,83,0,110
2,76,0,0
2,68,0,0
2,64,0,0
2,71,0,0
2,80,0,0
2,64,90,170
2,76,90,0
2,68,90,10
2,80,90,0
2,71,90,10
2,83,90,0
2,83,0,170
2,76,0,0
2,68,0,0
2,64,0,0
2,71,0,0
2,80,0,0
2,69,80,0
2,73,80,0
2,81,80,0
2,85,80,0
2,85,0,60
2,69,0,0
2,73,0,0
2,81,0,0
2,64,90,170
2,76,90,0
2,68,90,10
2,80,90,0
2,71,90,10
2,83,90,0
2,83,0,110
2,76,0,0
2,68,0,0
2,64,0,0
2,71,0,0
2,80,0,0
2,64,90,170
2,76,90,0
2,68,90,10
2,80,90,0
2,71,90,10
2,83,90,0
2,83,0,170
2,76,0,0
2,68,0,0
2,64,0,0
2,71,0,0
2,80,0,0
2,69,80,0
2,73,80,0
2,81,80,0
2,85,80,0
2,85,0,60
2,69,0,0
2,73,0,0
2,81,0,0
2,70,90,180
2,74,90,0
2,74,0,300
2,70,0,0
2,70,88,0
2,70,0,60
2,68,88,0
2,68,0,45
2,64,88,0
2,64,0,45
2,59,88,0
2,59,0,45
2,59,87,0
2,59,0,45
2,59,87,0
2,59,0,120
2,61,87,0
2,61,0,60
2,64,86,0
2,64,0,540
2,70,80,2093
2,70,0,240
2,71,80,0
2,71,0,300
2,70,80,0
2,70,0,60
2,71,80,0
2,71,0,80
2,68,80,0
2,68,0,40
2,64,80,0
2,64,0,60
2,67,60,1980
2,67,0,60
2,68,60,0
2,71,90,300
2,68,0,180
2,71,0,120
2,70,80,0
2,70,0,60
2,71,80,0
2,71,0,80
2,68,70,0
2,68,0,40
2,64,60,0
2,64,0,60
2,59,30,1740
2,64,30,0
2,68,30,0
2,68,0,60
2,64,0,0
2,59,0,0
2,59,30,0
2,64,30,0
2,68,30,0
2,68,0,120
2,64,0,0
2,59,0,0
2,59,30,0
2,64,30,0
2,68,30,0
2,68,0,60
2,64,0,0
2,59,0,0
2,59,30,0
2,64,30,0
2,68,30,0
2,68,0,60
2,64,0,0
2,59,0,0
2,68,50,60
2,64,50,0
2,59,50,0
2,64,90,50
2,76,90,0
2,59,0,10
2,68,0,0
2,64,0,0
2,68,90,0
2,80,90,0
2,71,90,10
2,83,90,0
2,83,0,110
2,64,0,0
2,68,0,0
2,76,0,0
2,71,0,0
2,80,0,0
2,64,90,170
2,76,90,0
2,68,90,10
2,80,90,0
2,71,90,10
2,83,90,0
2,83,0,110
2,76,0,0
2,68,0,0
2,64,0,0
2,71,0,0
2,80,0,0
2,59,40,60
2,64,40,0
2,68,40,0
2,68,0,60
2,64,0,0
2,59,0,0
2,59,40,0
2,64,40,0
2,68,40,0
2,68,0,60
2,64,0,0
2,59,0,0
2,67,90,60
2,67,0,60
2,71,90,0
2,71,0,180
2,69,90,0
2,69,0,60
2,64,90,60
2,64,0,60
2,59,90,1680
2,59,0,120
2,61,90,0
2,61,0,120
2,64,90,0
2,64,0,240
2,67,90,0
2,67,0,60
2,68,90,0
2,68,0,120
2,59,90,120
2,59,0,60
2,57,90,0
2,57,0,120
2,64,90,0
2,64,0,180
2,64,40,1980
2,68,40,0
2,71,40,0
2,71,0,180
2,68,0,0
2,64,0,0
2,64,60,0
2,68,60,0
2,71,60,0
2,71,0,60
2,68,0,0
2,64,0,0
2,64,60,0
2,68,60,0
2,71,60,0
2,71,0,120
2,68,0,0
2,64,0,0
2,68,70,0
2,71,70,0
2,71,0,60
2,68,0,0
2,64,50,0
2,68,60,0
2,68,0,60
2,64,0,0
2,59,40,60
2,64,40,0
2,64,0,60
2,59,0,0
2,59,42,0
2,64,42,0
2,64,0,60
2,59,0,0
2,59,46,60
2,64,46,0
2,68,46,0
2,68,0,180
2,64,0,0
2,59,0,0
2,59,60,0
2,68,60,0
2,64,60,0
2,64,0,60
2,68,0,0
2,59,0,0
2,59,70,4620
2,64,70,0
2,68,70,0
2,68,0,120
2,64,0,0
2,59,0,0
2,68,30,60
2,64,30,0
2,64,0,60
2,68,0,0
2,64,70,0
2,68,70,0
2,68,0,120
2,64,0,0
2,69,55,0
2,69,0,60
2,70,55,0
2,70,0,120
2,70,55,360
2,70,0,60
2,71,55,0
2,71,0,76
2,64,40,570
2,64,0,30
2,69,40,0
2,69,0,30
2,73,65,0
2,73,0,60
2,59,65,0
2,64,65,0
2,68,65,0
2,71,65,0
2,71,0,120
2,59,0,0
2,64,0,0
2,68,0,0
2,76,65,0
2,73,65,0
2,69,65,0
2,64,65,0
2,64,0,30
2,76,0,0
2,73,0,0
2,69,0,0
2,57,65,1950
2,61,65,0
2,61,0,60
2,57,0,0
2,64,65,0
2,68,65,0
2,71,65,0
2,71,0,45
2,68,0,0
2,64,0,0
2,64,65,0
2,64,0,45
2,71,65,0
2,68,65,0
2,68,0,45
2,71,0,0
2,69,65,0
2,73,65,0
2,73,0,45
2,69,0,0
2,64,55,0
2,71,75,5
2,68,75,0
2,64,0,10
2,68,0,225
2,71,0,240
2,70,75,0
2,70,0,60
2,74,75,0
2,76,75,45
2,76,0,15
2,74,0,0
2,78,75,0
2,78,0,20
2,76,75,0
2,76,0,20
2,74,75,0
2,74,0,20
2,76,75,0
2,76,0,60
2,73,85,0
2,73,0,10
2,71,75,0
2,71,0,80
2,69,75,0
2,69,0,150
2,67,75,0
2,67,0,60
2,71,75,0
2,71,0,60
2,68,75,0
2,68,0,120
2,64,85,0
2,64,0,10
2,62,75,0
2,62,0,110
2,64,85,0
2,64,0,10
2,62,75,0
2,62,0,110
2,64,85,0
2,64,0,10
2,62,75,0
2,62,0,585
2,62,95,2
2,66,95,0
2,57,55,346
2,57,0,90
2,66,0,0
2,62,0,0
2,70,120,20416
2,70,0,120
2,69,120,0
2,69,0,60
2,67,120,0
2,67,0,90
2,69,120,1470
2,69,0,30
2,71,120,0
2,71,0,60
2,69,120,0
2,69,0,30
2,68,120,0
2,68,0,30
2,69,120,0
2,69,0,30
2,68,120,0
2,68,0,60
2,64,120,240
2,64,0,120
2,64,120,0
2,64,0,30
2,61,120,0
2,61,0,120
2,69,120,210
2,69,0,30
2,71,120,0
2,71,0,60
2,69,120,0
2,69,0,30
2,68,120,0
2,68,0,30
2,69,120,0
2,69,0,30
2,68,120,0
2,68,0,60
2,64,120,240
2,64,0,120
2,64,120,0
2,64,0,30
2,61,120,0
2,61,0,120
2,69,120,210
2,69,0,30
2,71,120,0
2,71,0,60
2,69,120,0
2,69,0,30
2,68,120,0
2,68,0,30
2,69,120,0
2,69,0,30
2,68,120,0
2,68,0,60
2,64,120,360
2,64,0,30
2,61,120,0
2,61,0,7
2,68,100,1800
2,68,0,180
2,73,100,0
2,69,100,0
2,69,0,150
2,73,0,0
2,71,100,0
2,71,0,15
2,66,100,0
2,66,0,15
2,64,70,120
2,64,0,60
2,64,80,0
2,68,80,0
2,68,0,60
2,64,0,0
2,64,100,60
2,68,100,0
2,68,0,180
2,64,0,0
2,64,100,0
2,64,0,60
2,68,100,0
2,66,100,8
2,68,0,2
2,66,0,48
2,71,100,2
2,68,100,0
2,68,0,60
2,71,0,0
2,69,100,0
2,73,100,0
2,73,0,60
2,69,0,0
2,70,100,0
2,74,100,0
2,70,0,120
2,71,100,0
2,71,0,360
2,74,0,0
2,69,100,0
2,69,0,60
2,70,100,0
2,70,0,60
2,71,100,0
2,71,0,60
2,74,100,0
2,74,0,60
2,64,100,150
2,64,0,60
2,68,100,60
2,68,0,60
2,69,100,60
2,69,0,60
2,67,100,90
2,67,0,60
2,68,100,0
2,68,0,60
2,64,100,0
2,64,0,120
2,74,100,120
2,74,0,180
2,73,100,0
2,73,0,120
2,71,100,0
2,71,0,60
2,69,100,0
2,69,0,120
2,68,100,0
2,68,0,60
2,64,110,0
2,64,0,90
2,64,120,90
2,62,100,8
2,64,0,22
2,62,0,150
2,62,110,0
2,62,0,240
2,64,80,0
2,68,80,0
2,68,0,240
2,64,0,0
2,81,100,0
2,85,100,7
2,81,0,1
2,85,0,7
2,92,100,0
2,95,100,7
2,92,0,1
2,95,0,7
3,40,80,0
3,47,80,0
3,47,0,120
3,40,0,0
3,40,80,0
3,47,80,0
3,47,0,60
3,40,0,0
3,49,80,0
3,40,80,0
3,40,0,120
3,49,0,0
3,49,80,0
3,40,80,0
3,40,0,60
3,49,0,0
3,40,80,0
3,47,80,0
3,47,0,120
3,40,0,0
3,40,80,0
3,47,80,0
3,47,0,60
3,40,0,0
3,43,101,0
3,43,0,57
3,47,80,3
3,47,0,60
3,40,80,0
3,47,80,0
3,47,0,120
3,40,0,0
3,40,80,0
3,47,80,0
3,47,0,60
3,40,0,0
3,49,80,0
3,40,80,0
3,40,0,120
3,49,0,0
3,49,80,0
3,40,80,0
3,40,0,60
3,49,0,0
3,40,80,0
3,47,80,0
3,47,0,120
3,40,0,0
3,40,80,0
3,47,80,0
3,47,0,60
3,40,0,0
3,43,101,0
3,43,0,57
3,47,80,3
3,47,0,60
3,40,80,0
3,47,80,0
3,47,0,120
3,40,0,0
3,40,80,0
3,47,80,0
3,47,0,60
3,40,0,0
3,49,80,0
3,40,80,0
3,40,0,120
3,49,0,0
3,49,80,0
3,40,80,0
3,40,0,60
3,49,0,0
3,40,80,0
3,47,80,0
3,47,0,120
3,40,0,0
3,40,80,0
3,47,80,0
3,47,0,60
3,40,0,0
3,43,101,0
3,43,0,57
3,47,80,3
3,47,0,60
3,40,80,0
3,47,80,0
3,47,0,120
3,40,0,0
3,40,80,0
3,47,80,0
3,47,0,60
3,40,0,0
3,49,80,0
3,40,80,0
3,40,0,120
3,49,0,0
3,49,80,0
3,40,80,0
3,40,0,60
3,49,0,0
3,40,80,0
3,47,80,0
3,47,0,120
3,40,0,0
3,40,80,0
3,47,80,0
3,47,0,60
3,40,0,0
3,43,101,0
3,43,0,57
3,47,80,3
3,47,0,60
3,40,80,0
3,47,80,0
3,47,0,120
3,40,0,0
3,40,80,0
3,47,80,0
3,47,0,60
3,40,0,0
3,49,80,0
3,40,80,0
3,40,0,120
3,49,0,0
3,49,80,0
3,40,80,0
3,40,0,60
3,49,0,0
3,40,80,0
3,47,80,0
3,47,0,120
3,40,0,0
3,40,80,0
3,47,80,0
3,47,0,60
3,40,0,0
3,43,101,0
3,43,0,57
3,47,80,3
3,47,0,60
3,40,80,0
3,47,80,0
3,47,0,120
3,40,0,0
3,40,80,0
3,47,80,0
3,47,0,60
3,40,0,0
3,49,80,0
3,40,80,0
3,40,0,120
3,49,0,0
3,49,80,0
3,40,80,0
3,40,0,60
3,49,0,0
3,40,80,0
3,47,80,0
3,47,0,120
3,40,0,0
3,40,80,0
3,47,80,0
3,47,0,60
3,40,0,0
3,43,101,0
3,43,0,57
3,47,80,3
3,47,0,60
3,40,80,0
3,47,80,0
3,47,0,120
3,40,0,0
3,40,80,0
3,47,80,0
3,47,0,60
3,40,0,0
3,49,80,0
3,40,80,0
3,40,0,120
3,49,0,0
3,49,80,0
3,40,80,0
3,40,0,60
3,49,0,0
3,40,80,0
3,47,80,0
3,47,0,120
3,40,0,0
3,40,80,0
3,47,80,0
3,47,0,60
3,40,0,0
3,43,101,0
3,43,0,57
3,47,80,3
3,47,0,60
3,40,80,0
3,47,80,0
3,47,0,120
3,40,0,0
3,40,80,0
3,47,80,0
3,47,0,60
3,40,0,0
3,49,80,0
3,40,80,0
3,40,0,120
3,49,0,0
3,49,80,0
3,40,80,0
3,40,0,60
3,49,0,0
3,40,80,0
3,47,80,0
3,47,0,120
3,40,0,0
3,40,80,0
3,47,80,0
3,47,0,60
3,40,0,0
3,43,101,0
3,43,0,57
3,47,80,3
3,47,0,60
3,40,80,0
3,47,80,0
3,47,0,120
3,40,0,0
3,40,80,0
3,47,80,0
