track,note,velocity,time
1,69,72,12048
1,71,72,12
1,72,72,12
1,71,72,12
1,69,72,12
1,71,72,12
1,69,72,204
1,71,72,12
1,72,72,12
1,74,72,12
1,72,72,12
1,71,72,12
1,69,72,0
1,72,72,12
1,74,72,12
1,76,72,12
1,74,72,12
1,72,72,12
1,71,72,12
1,69,72,12
1,67,72,60
1,67,72,12
1,69,72,12
1,69,72,204
1,71,72,12
1,72,72,12
1,71,72,12
1,69,72,12
1,71,72,12
1,69,72,204
1,71,72,12
1,72,72,12
1,74,72,12
1,72,72,12
1,71,72,12
1,69,72,0
1,72,72,60
1,74,72,12
1,76,72,12
1,74,72,12
1,72,72,12
1,71,72,12
1,69,72,12
1,67,72,12
1,67,72,12
1,69,72,0
1,69,72,12
1,72,72,588
1,76,72,0
1,74,72,0
1,74,72,12
1,72,72,0
1,71,72,0
1,72,72,0
1,69,72,0
1,69,72,12
1,71,72,12
1,72,72,12
1,74,72,0
1,76,72,12
1,74,72,12
1,74,72,12
1,72,72,0
1,71,72,12
1,67,72,12
1,67,72,12
1,69,72,12
1,69,72,204
1,71,72,12
1,72,72,12
1,71,72,12
1,69,72,12
1,71,72,12
1,69,72,0
1,69,72,108
1,71,72,12
1,72,72,12
1,74,72,12
1,72,72,12
1,71,72,12
1,69,72,0
1,72,72,12
1,74,72,12
1,76,72,12
1,74,72,12
1,72,72,12
1,71,72,12
1,69,72,12
1,67,72,12
1,67,72,12
1,69,72,12
1,69,72,12
1,69,72,204
1,71,72,12
1,72,72,12
1,74,72,12
1,72,72,12
1,71,72,12
1,69,72,0
1,69,72,12
1,71,72,12
1,72,72,12
1,74,72,12
1,72,72,12
1,71,72,12
1,69,72,0
1,72,72,12
1,74,72,12
1,76,72,12
1,74,72,12
1,72,72,12
1,71,72,12
1,69,72,0
1,69,72,60
1,67,72,12
1,67,72,12
1,69,72,12
1,69,72,12
1,72,90,4248
1,72,90,12
1,71,90,12
1,72,90,12
1,71,90,12
1,69,90,12
1,72,90,1164
1,71,90,12
1,72,90,12
1,71,90,12
1,69,90,0
1,69,90,12
1,69,90,0
1,67,90,12
1,69,90,12
1,67,90,12
1,69,90,12
1,67,90,12
1,69,90,12
1,69,90,588
1,71,90,12
1,72,90,12
1,71,90,12
1,69,90,12
1,71,90,12
1,69,90,60
1,71,90,12
1,72,90,12
1,74,90,12
1,72,90,12
1,71,90,12
1,69,90,0
1,72,90,12
1,74,90,12
1,76,90,12
1,74,90,12
1,72,90,12
1,71,90,12
1,69,90,12
1,67,90,12
1,67,90,12
1,69,90,12
1,69,90,204
1,71,90,12
1,72,90,12
1,74,90,12
1,72,90,12
1,71,90,12
1,69,90,12
1,69,90,12
1,71,90,12
1,72,90,12
1,74,90,12
1,72,90,12
1,71,90,12
1,69,90,0
1,72,90,12
1,74,90,12
1,76,90,12
1,74,90,12
1,72,90,12
1,71,90,12
1,69,90,12
1,67,90,12
1,67,90,12
1,69,90,12
1,72,90,1932
1,72,90,12
1,71,90,12
1,72,90,12
1,71,90,12
1,69,90,12
1,72,90,1164
1,71,90,12
1,72,90,12
1,71,90,12
1,69,90,0
1,69,90,12
1,69,90,0
1,67,90,12
1,69,90,12
1,67,90,12
1,69,90,12
1,67,90,12
1,69,90,12
1,69,90,588
1,71,90,12
1,72,90,12
1,71,90,12
1,69,90,12
1,71,90,12
1,69,90,60
1,71,90,12
1,72,90,12
1,74,90,12
1,72,90,12
1,71,90,12
1,69,90,0
1,72,90,12
1,74,90,12
1,76,90,12
1,74,90,12
1,72,90,12
1,71,90,12
1,69,90,12
1,67,90,12
1,67,90,12
1,69,90,12
1,69,90,204
1,71,90,12
1,72,90,12
1,74,90,12
1,72,90,12
1,71,90,12
1,69,90,12
1,69,90,12
1,71,90,12
1,72,90,12
1,74,90,12
1,72,90,12
1,71,90,12
1,69,90,0
1,72,90,12
1,74,90,12
1,76,90,12
1,74,90,12
1,72,90,12
1,71,90,12
1,69,90,12
1,67,90,12
1,67,90,12
1,69,90,12
1,72,90,5004
1,74,90,0
1,72,90,0
1,74,90,0
1,72,90,0
1,74,90,0
1,72,90,0
1,74,90,0
1,72,90,0
1,71,90,12
1,69,90,12
1,76,90,1644
1,74,90,12
1,72,90,12
1,74,90,12
1,72,90,12
1,69,90,12
1,67,90,12
1,69,90,12
1,72,90,12
1,69,90,12
1,69,90,12
1,67,90,12
1,69,90,12
1,64,90,0
1,64,90,12
1,72,90,300
1,72,90,12
1,76,90,12
1,74,90,12
1,72,90,12
1,69,90,12
1,67,90,12
1,72,90,12
1,69,90,12
1,76,90,480
1,74,90,12
1,72,90,12
1,74,90,12
1,72,90,12
1,69,90,12
1,67,90,12
1,69,90,12
1,72,90,12
1,69,90,12
1,69,90,12
1,67,90,12
1,69,90,12
1,64,90,0
1,64,90,12
1,69,90,348
1,72,90,12
1,76,90,12
1,74,90,12
1,72,90,12
1,74,90,12
1,69,90,12
1,72,90,12
1,69,90,0
1,69,90,12
1,74,90,2412
1,74,90,12
1,74,90,12
1,74,90,12
1,72,90,12
1,72,90,12
1,76,90,1932
1,78,90,12
1,74,90,12
1,72,90,12
1,76,90,1548
1,74,90,12
1,72,90,12
1,74,90,12
1,72,90,12
1,69,90,12
1,67,90,12
1,69,90,12
1,72,90,12
1,69,90,60
1,69,90,12
1,67,90,12
1,69,90,12
1,64,90,12
1,69,90,300
1,72,90,12
1,76,90,12
1,74,90,12
1,72,90,12
1,69,90,12
1,67,90,12
1,72,90,12
1,69,90,12
1,76,90,576
1,74,90,12
1,72,90,12
1,74,90,12
1,72,90,12
1,69,90,12
1,67,90,12
1,69,90,12
1,72,90,12
1,69,90,108
1,67,90,12
1,69,90,12
1,64,90,12
1,72,90,300
1,72,90,12
1,76,90,12
1,74,90,12
1,72,90,12
1,69,90,12
1,72,90,12
1,69,90,12
1,69,90,12
1,71,90,12
1,69,90,12
1,81,120,21912
1,81,120,0
1,81,120,0
1,84,120,0
1,83,120,0
1,81,120,0
1,79,120,0
1,81,120,0
1,81,120,672
1,81,120,0
1,81,120,0
1,84,120,0
1,83,120,0
1,81,120,0
1,83,120,0
1,83,120,0
1,81,120,84
1,81,120,480
1,81,120,0
1,81,120,0
1,88,120,12
1,86,120,132
1,84,120,0
1,83,120,0
1,83,120,0
1,84,120,0
1,83,120,0
1,81,120,0
1,81,120,492
1,81,120,0
1,81,120,0
1,88,120,0
1,86,120,0
1,84,120,0
1,83,120,0
1,83,120,0
1,81,120,84
1,81,120,480
1,81,120,0
1,81,120,0
1,84,120,0
1,83,120,0
1,81,120,0
1,83,120,0
1,83,120,0
1,81,120,0
1,81,120,480
1,81,120,0
1,81,120,0
1,84,120,0
1,83,120,0
1,81,120,0
1,83,120,0
1,83,120,0
1,81,120,0
1,81,120,492
1,81,120,0
1,81,120,0
1,84,120,0
1,83,120,0
1,83,120,0
1,81,120,0
1,79,120,0
1,81,120,0
1,81,120,480
1,81,120,0
1,81,120,0
1,88,120,0
1,86,120,0
1,84,120,0
1,86,120,0
1,88,120,0
1,86,120,0
1,84,120,0
1,83,120,0
1,81,120,288
1,81,120,0
1,81,120,0
1,84,120,0
1,79,120,48
1,84,120,0
1,84,120,0
1,84,127,0
1,83,127,0
1,81,127,384
1,72,100,3648
1,74,100,0
1,76,100,0
1,75,100,0
1,74,100,0
1,72,100,0
1,71,100,0
1,72,100,0
1,71,100,0
1,69,100,0
1,68,100,0
1,67,100,0
1,67,100,192
1,72,100,0
1,67,100,0
1,68,100,0
1,69,100,0
2,57,90,0
2,60,90,96
2,64,90,12
2,69,90,12
2,71,90,12
2,56,90,0
2,64,90,12
2,60,90,12
2,71,90,12
2,72,90,12
2,55,90,0
2,64,90,12
2,60,90,12
2,72,90,12
2,66,90,12
2,54,90,0
2,62,90,12
2,57,90,12
2,66,90,12
2,53,90,0
2,64,90,0
2,60,90,12
2,57,90,12
2,60,90,12
2,64,90,12
2,60,90,12
2,57,90,12
2,59,90,12
2,55,90,0
2,47,90,0
2,45,90,12
2,57,90,0
2,60,90,0
2,60,90,12
2,57,90,0
2,45,90,0
2,45,90,12
2,53,90,12
2,52,90,12
2,45,90,12
2,57,90,96
2,60,90,12
2,64,90,12
2,71,90,12
2,56,90,0
2,64,90,12
2,60,90,12
2,71,90,12
2,55,90,12
2,72,90,0
2,64,90,12
2,60,90,12
2,72,90,12
2,66,90,12
2,54,90,0
2,62,90,12
2,57,90,12
2,66,90,12
2,53,90,12
2,64,90,0
2,60,90,12
2,57,90,12
2,60,90,12
2,64,90,12
2,60,90,12
2,57,90,12
2,47,90,12
2,59,90,0
2,55,90,0
2,45,90,12
2,57,90,0
2,60,90,0
2,45,90,12
2,60,90,0
2,57,90,0
2,45,90,12
2,47,90,12
2,48,90,12
2,52,90,96
2,55,90,12
2,64,90,12
2,66,90,12
2,50,90,0
2,62,90,12
2,57,90,12
2,66,90,12
2,53,90,12
2,64,90,0
2,60,90,12
2,57,90,12
2,64,90,12
2,59,90,12
2,45,90,0
2,60,90,0
2,57,90,12
2,45,90,12
2,47,90,12
2,48,90,12
2,60,90,0
2,55,90,12
2,52,90,12
2,60,90,12
2,43,90,12
2,67,90,0
2,59,90,12
2,55,90,12
2,67,90,12
2,57,70,12
2,62,70,0
2,67,70,0
2,50,70,0
2,66,70,0
2,66,70,12
2,62,70,0
2,62,70,12
2,66,70,0
2,50,70,0
2,57,70,0
2,45,90,12
2,47,90,12
2,48,90,12
2,52,90,96
2,55,90,12
2,60,90,12
2,66,90,12
2,50,90,0
2,62,90,12
2,57,90,12
2,66,90,12
2,53,90,12
2,64,90,0
2,60,90,12
2,57,90,12
2,64,90,12
2,59,90,12
2,45,90,0
2,60,90,0
2,57,90,12
2,45,90,12
2,47,90,12
2,48,90,12
2,52,90,96
2,55,90,12
2,60,90,12
2,50,90,12
2,57,90,96
2,62,90,12
2,66,90,12
2,60,80,12
2,64,80,0
2,57,80,0
2,53,80,0
2,53,80,12
2,60,80,0
2,64,80,0
2,57,80,0
2,64,80,12
2,60,80,0
2,57,80,0
2,53,80,0
2,57,90,204
2,60,90,96
2,64,90,12
2,69,90,12
2,71,90,12
2,56,90,0
2,64,90,12
2,60,90,12
2,71,90,12
2,55,90,12
2,72,90,0
2,64,90,12
2,60,90,12
2,72,90,12
2,54,90,12
2,66,90,0
2,62,90,12
2,57,90,12
2,66,90,12
2,53,90,12
2,64,90,0
2,60,90,12
2,57,90,12
2,60,90,12
2,64,90,12
2,60,90,12
2,57,90,12
2,59,90,12
2,55,90,0
2,47,90,0
2,57,90,12
2,60,90,0
2,45,90,0
2,60,90,12
2,57,90,0
2,45,90,0
2,57,90,204
2,60,90,96
2,64,90,12
2,69,90,12
2,71,90,12
2,56,90,0
2,64,90,12
2,60,90,12
2,71,90,12
2,55,90,12
2,72,90,0
2,64,90,12
2,60,90,12
2,72,90,12
2,54,90,12
2,66,90,0
2,62,90,12
2,57,90,12
2,66,90,12
2,53,90,12
2,64,90,0
2,60,90,12
2,57,90,12
2,60,90,12
2,64,90,12
2,60,90,12
2,57,90,12
2,59,90,12
2,55,90,0
2,47,90,0
2,57,90,12
2,60,90,0
2,45,90,0
2,60,90,12
2,57,90,0
2,45,90,0
2,45,90,12
2,47,90,12
2,48,90,12
2,52,90,96
2,55,90,12
2,60,90,12
2,66,90,12
2,50,90,0
2,62,90,12
2,57,90,12
2,66,90,12
2,53,90,12
2,64,90,0
2,60,90,12
2,57,90,12
2,60,90,12
2,59,90,12
2,60,90,12
2,57,90,12
2,45,90,0
2,45,90,12
2,47,90,12
2,48,90,12
2,60,90,0
2,55,90,12
2,55,90,12
2,52,90,0
2,60,90,0
2,60,90,12
2,67,90,12
2,43,90,0
2,59,90,12
2,55,90,12
2,67,90,12
2,50,90,12
2,57,90,0
2,62,90,0
2,67,90,0
2,66,90,12
2,62,90,12
2,66,90,0
2,50,90,12
2,57,90,0
2,62,90,0
2,66,90,0
2,45,90,12
2,47,90,12
2,48,90,12
2,52,90,96
2,55,90,12
2,60,90,12
2,66,90,12
2,50,90,0
2,62,90,12
2,57,90,12
2,66,90,12
2,53,90,12
2,64,90,0
2,60,90,12
2,57,90,12
2,60,90,12
2,59,90,12
2,60,90,12
2,57,90,12
2,45,90,0
2,45,90,12
2,47,90,12
2,48,90,12
2,60,90,0
2,55,90,12
2,52,90,12
2,60,90,12
2,50,90,12
2,66,90,0
2,62,90,12
2,57,90,12
2,67,90,12
2,53,70,12
2,57,70,0
2,60,70,0
2,64,70,0
2,64,70,12
2,60,70,0
2,57,70,0
2,53,70,0
2,53,70,12
2,57,70,0
2,60,70,0
2,64,70,0
2,57,90,204
2,60,90,96
2,64,90,12
2,69,90,12
2,71,90,12
2,56,90,0
2,64,90,12
2,60,90,12
2,71,90,12
2,55,90,12
2,72,90,0
2,64,90,12
2,60,90,12
2,72,90,12
2,54,90,12
2,66,90,0
2,62,90,12
2,57,90,12
2,66,90,12
2,53,90,12
2,64,90,0
2,60,90,12
2,57,90,12
2,60,90,12
2,64,90,12
2,60,90,12
2,57,90,12
2,59,90,12
2,55,90,0
2,47,90,0
2,57,90,12
2,60,90,0
2,45,90,0
2,60,90,12
2,57,90,0
2,45,90,0
2,45,90,12
2,53,90,12
2,52,90,12
2,45,90,12
2,45,90,12
2,57,90,48
2,60,90,12
2,69,90,12
2,56,90,12
2,71,90,0
2,64,90,12
2,60,90,12
2,64,90,12
2,71,90,12
2,64,90,12
2,60,90,12
2,56,90,12
2,55,90,12
2,60,90,48
2,64,90,12
2,72,90,12
2,64,90,12
2,60,90,12
2,55,90,12
2,54,90,12
2,57,90,48
2,62,90,12
2,66,90,12
2,62,90,12
2,57,90,12
2,54,90,12
2,57,90,60
2,53,90,12
2,57,90,48
2,60,90,12
2,64,90,12
2,60,90,12
2,57,90,12
2,53,90,12
2,57,90,48
2,60,90,12
2,64,90,12
2,60,90,12
2,57,90,12
2,53,90,12
2,59,90,12
2,55,90,0
2,47,90,0
2,57,90,12
2,60,90,0
2,45,90,0
2,60,90,12
2,57,90,0
2,45,90,0
2,47,90,12
2,50,90,0
2,55,90,0
2,62,90,0
2,52,90,0
2,60,90,0
2,67,90,0
2,55,90,0
2,52,90,12
2,60,90,0
2,67,90,0
2,55,90,0
2,60,90,12
2,67,90,0
2,55,90,0
2,52,90,12
2,55,90,0
2,67,90,0
2,60,90,0
2,52,90,0
2,55,90,0
2,67,90,0
2,60,90,12
2,64,90,0
2,55,90,0
2,64,90,12
2,55,90,0
2,62,90,12
2,57,90,12
2,62,90,0
2,66,90,0
2,45,90,192
2,57,90,12
2,62,90,0
2,66,90,0
2,66,90,12
2,62,90,0
2,57,90,0
2,57,90,12
2,62,90,0
2,66,90,0
2,66,90,12
2,62,90,0
2,57,90,0
2,64,90,12
2,59,90,0
2,55,90,0
2,52,90,12
2,55,90,0
2,60,90,0
2,67,90,0
2,60,90,12
2,55,90,0
2,52,90,0
2,67,90,0
2,67,90,12
2,60,90,0
2,55,90,0
2,55,90,12
2,52,90,0
2,60,90,0
2,67,90,0
2,55,90,12
2,52,90,0
2,60,90,0
2,67,90,0
2,55,90,12
2,60,90,0
2,64,90,0
2,64,90,108
2,67,90,0
2,71,90,0
2,62,90,108
2,66,90,0
2,69,90,0
2,60,90,108
2,64,90,0
2,67,90,0
2,62,90,108
2,66,90,0
2,69,90,0
2,52,90,108
2,45,90,0
2,52,90,12
2,60,90,0
2,67,90,0
2,55,90,0
2,52,90,12
2,60,90,0
2,67,90,0
2,55,90,0
2,60,90,12
2,67,90,0
2,55,90,0
2,52,90,12
2,60,90,0
2,67,90,0
2,55,90,0
2,52,90,12
2,67,90,0
2,55,90,0
2,60,90,12
2,64,90,0
2,55,90,0
2,64,90,12
2,55,90,0
2,62,90,12
2,57,90,12
2,62,90,0
2,66,90,0
2,57,90,12
2,62,90,0
2,66,90,0
2,57,90,12
2,62,90,0
2,66,90,0
2,50,90,0
2,66,90,12
2,62,90,0
2,57,90,0
