track,note,velocity,time
0,57,66,9
0,60,78,62
0,64,85,46
0,69,67,54
0,57,0,25
0,60,0,20
0,64,0,0
0,69,0,1
0,71,82,12
0,56,71,1
0,60,79,46
0,71,0,46
0,64,64,5
0,71,54,59
0,56,0,11
0,60,0,15
0,64,0,13
0,71,0,17
0,72,82,13
0,55,63,1
0,60,67,26
0,72,0,77
0,64,60,0
0,55,0,12
0,72,65,94
0,60,0,19
0,64,0,7
0,72,0,7
0,57,51,128
0,62,58,1
0,66,42,1
0,54,42,2
0,57,0,614
0,62,0,6
0,66,0,44
0,54,0,21
0,57,56,168
0,60,58,11
0,64,64,67
0,69,61,60
0,57,0,64
0,56,60,3
0,71,59,4
0,60,0,3
0,64,0,9
0,69,0,5
0,60,63,54
0,56,0,61
0,64,63,17
0,71,53,73
0,71,0,17
0,60,0,3
0,64,0,18
0,55,55,40
0,72,76,2
0,71,0,3
0,60,79,65
0,55,0,18
0,72,0,43
0,64,78,3
0,69,67,80
0,60,0,7
0,64,0,7
0,69,0,1
0,66,66,67
0,54,57,1
0,62,56,100
0,66,0,89
0,57,49,5
0,54,0,44
0,62,0,1
0,57,0,42
0,64,61,1
0,53,48,1
0,60,59,50
0,64,0,2
0,53,0,53
0,57,66,4
0,60,69,74
0,60,0,2
0,57,0,61
0,57,40,11
0,64,48,83
0,60,0,43
0,57,0,11
0,60,50,24
0,64,0,14
0,60,0,57
0,57,43,12
0,57,0,12
0,45,56,60
0,52,43,9
0,55,58,6
0,57,66,81
0,45,0,6
0,52,0,12
0,57,66,9
0,55,0,6
0,57,0,112
0,52,66,289
0,57,0,8
0,53,71,13
0,52,0,9
0,53,0,34
0,52,57,21
0,45,44,25
0,52,0,56
0,45,0,23
0,60,65,2
0,52,39,3
0,60,0,8
0,64,63,60
0,57,63,1
0,52,0,46
0,69,66,27
0,57,63,11
0,64,0,43
0,71,71,14
0,56,68,1
0,57,0,2
0,69,0,6
0,57,0,1
0,60,74,42
0,71,0,3
0,64,75,68
0,56,0,28
0,56,66,34
0,71,51,3
0,60,0,10
0,64,0,24
0,56,0,12
0,71,0,23
0,72,77,0
0,55,67,6
0,60,69,63
0,72,0,64
0,64,70,0
0,55,0,30
0,55,71,41
0,72,57,3
0,60,0,10
0,64,0,0
0,55,0,14
0,72,0,5
0,66,61,45
0,54,58,2
0,57,60,2
0,66,0,61
0,62,59,9
0,54,0,46
0,66,58,31
0,57,0,10
0,62,0,13
0,66,0,48
0,64,66,9
0,53,57,1
0,60,60,70
0,64,0,10
0,57,51,9
0,53,0,6
0,60,60,67
0,60,0,9
0,64,54,145
0,57,0,3
0,60,0,26
0,60,57,46
0,64,0,8
0,60,0,57
0,57,56,10
0,57,0,11
0,52,52,68
0,45,57,1
0,55,64,10
0,57,63,76
0,52,0,4
0,45,0,16
0,57,64,20
0,55,0,388
0,57,0,127
0,45,53,26
0,57,0,2
0,47,63,87
0,45,0,3
0,47,0,19
0,48,58,58
0,67,65,39
0,72,64,51
0,76,53,86
0,48,0,12
0,67,0,11
0,72,0,35
0,76,0,4
0,50,47,20
0,74,48,4
0,50,0,12
0,62,49,27
0,67,34,93
0,74,0,111
0,71,26,1
0,62,0,50
0,67,0,1
0,71,0,10
0,53,59,64
0,74,65,1
0,69,64,3
0,65,62,1
0,53,0,20
0,74,0,31
0,69,0,10
0,72,74,18
0,65,50,1
0,65,0,41
0,72,0,22
0,65,75,8
0,55,78,1
0,65,0,1
0,71,71,0
0,65,0,8
0,55,0,7
0,71,0,43
0,57,74,34
0,69,78,1
0,72,61,2
0,57,0,83
0,64,56,0
0,69,0,12
0,72,0,27
0,69,58,52
0,64,48,3
0,64,0,66
0,69,0,15
0,59,55,7
0,71,53,0
0,64,0,8
0,59,0,22
0,71,0,37
0,72,63,25
0,60,64,1
0,64,58,0
0,67,54,3
0,72,0,10
0,74,56,10
0,60,0,4
0,64,0,10
0,67,0,17
0,76,70,61
0,74,0,74
0,74,53,27
0,76,0,23
0,74,0,50
0,67,41,24
0,62,56,0
0,74,62,6
0,72,43,1
0,67,0,29
0,62,0,67
0,71,38,9
0,74,0,5
0,72,0,92
0,67,41,4
0,71,0,14
0,67,0,25
0,53,51,14
0,57,68,28
0,60,56,14
0,67,44,1
0,64,49,38
0,69,57,75
0,53,0,38
0,57,0,7
0,69,48,55
0,60,0,72
0,81,58,89
0,67,0,10
0,64,0,347
0,69,82,93
0,69,0,5
0,69,0,7
0,81,0,12
0,71,77,45
0,69,0,4
0,71,0,57
0,72,59,8
0,45,57,2
0,60,45,31
0,52,51,7
0,72,0,2
0,71,31,78
0,57,54,3
0,45,0,8
0,60,0,61
0,69,54,8
0,52,0,6
0,71,0,1
0,52,44,1
0,57,0,8
0,69,0,16
0,52,0,4
0,60,60,43
0,45,18,7
0,52,51,2
0,56,57,4
0,64,52,8
0,68,57,5
0,71,44,2
0,60,0,96
0,45,0,4
0,52,0,10
0,56,0,1
0,64,0,11
0,56,47,40
0,68,0,48
0,69,76,9
0,71,0,8
0,56,0,28
0,71,59,13
0,69,0,8
0,71,0,41
0,45,71,8
0,72,71,8
0,64,74,1
0,67,66,3
0,52,69,41
0,45,0,18
0,72,0,12
0,55,77,4
0,64,0,5
0,67,0,3
0,52,0,31
0,60,76,2
0,64,44,29
0,74,81,39
0,55,0,43
0,72,60,53
0,60,0,2
0,64,0,6
0,74,0,6
0,72,0,5
0,45,54,61
0,54,58,16
0,62,58,0
0,71,48,7
0,66,56,4
0,45,0,26
0,69,53,8
0,54,0,25
0,62,0,38
0,71,0,8
0,66,0,12
0,54,58,24
0,72,85,50
0,69,0,12
0,54,0,13
0,72,0,0
0,74,93,26
0,48,61,43
0,74,0,1
0,41,63,33
0,48,0,2
0,72,74,2
0,64,83,1
0,76,69,2
0,69,76,0
0,48,68,39
0,41,0,22
0,72,0,8
0,53,76,6
0,64,0,11
0,76,0,4
0,69,0,1
0,48,0,15
0,53,0,3
0,64,81,12
0,74,78,1
0,69,78,0
0,64,0,51
0,57,76,0
0,74,0,20
0,72,70,23
0,64,74,1
0,69,67,2
0,69,0,2
0,57,0,6
0,72,0,4
0,64,0,5
0,60,64,20
0,69,0,8
0,60,0,18
0,71,53,57
0,60,53,0
0,64,60,3
0,41,56,7
0,48,53,19
0,71,0,35
0,60,0,12
0,64,0,15
0,41,0,7
0,52,38,12
0,60,43,11
0,48,0,4
0,69,54,0
0,64,51,1
0,52,0,13
0,57,64,75
0,60,0,2
0,69,0,6
0,64,0,2
0,57,0,2
0,60,48,77
0,67,53,0
0,45,57,1
0,64,49,2
0,60,0,11
0,69,55,0
0,67,0,14
0,45,0,3
0,64,0,7
0,69,69,55
0,64,61,1
0,60,57,2
0,52,49,69
0,69,0,59
0,57,63,18
0,69,0,7
0,64,0,68
0,60,37,21
0,60,0,4
0,52,0,26
0,57,0,19
0,60,0,22
0,59,24,24
0,59,0,52
0,69,68,15
0,69,0,47
0,71,62,5
0,71,0,38
0,45,62,14
0,64,60,4
0,72,57,0
0,69,64,3
0,52,67,45
0,71,72,65
0,45,0,1
0,57,74,1
0,64,0,1
0,72,0,2
0,69,77,66
0,52,70,0
0,69,0,1
0,52,0,2
0,71,0,3
0,57,0,8
0,69,0,30
0,52,0,2
0,45,66,8
0,71,70,10
0,64,62,1
0,68,63,3
0,52,48,24
0,56,66,89
0,45,0,12
0,71,0,5
0,64,0,27
0,68,0,5
0,52,0,30
0,52,61,1
0,56,0,7
0,64,63,17
0,69,70,1
0,71,73,38
0,52,0,10
0,64,0,2
0,69,0,13
0,71,0,0
0,45,75,11
0,67,87,3
0,64,87,2
0,72,87,0
0,52,71,8
0,45,0,26
0,67,0,8
0,55,65,11
0,64,0,7
0,72,0,1
0,67,77,26
0,64,83,1
0,74,87,1
0,52,0,34
0,52,60,11
0,55,0,12
0,67,0,21
0,72,73,0
0,64,0,5
0,74,0,4
0,64,51,1
0,55,69,4
0,52,0,6
0,72,0,4
0,64,0,8
0,55,0,24
0,45,58,16
0,62,67,25
0,54,70,1
0,71,46,1
0,66,60,1
0,45,0,35
0,69,71,3
0,62,0,5
0,54,0,5
0,71,0,3
0,66,0,7
0,54,79,62
0,69,0,19
0,54,0,11
0,72,87,14
0,72,0,30
0,74,82,11
0,41,66,20
0,74,0,22
0,72,77,1
0,69,83,1
0,29,76,0
0,64,82,2
0,76,74,1
0,41,0,6
0,72,0,1
0,69,0,11
0,64,62,31
0,29,0,37
0,64,0,8
0,76,0,3
0,64,0,8
0,41,73,4
0,74,83,10
0,69,75,0
0,64,77,1
0,48,71,43
0,41,0,1
0,74,0,15
0,69,0,4
0,64,0,9
0,48,0,2
0,53,77,1
0,72,74,2
0,64,63,5
0,69,37,7
0,53,0,6
0,72,0,2
0,64,0,18
0,69,0,20
0,57,85,25
0,64,82,7
0,71,71,1
0,57,0,80
0,60,63,7
0,64,0,33
0,57,61,63
0,71,0,5
0,60,0,19
0,57,0,23
0,64,55,3
0,69,63,2
0,67,62,54
0,64,0,6
0,69,0,2
0,67,0,11
0,52,61,14
0,45,60,49
0,64,53,2
0,52,0,2
0,67,54,0
0,60,24,4
0,45,0,48
0,69,61,13
0,52,51,3
0,64,0,9
0,67,0,7
0,60,0,13
0,69,69,43
0,60,61,2
0,64,69,1
0,57,60,69
0,69,0,3
0,52,0,15
0,60,55,64
0,69,0,14
0,52,57,72
0,60,0,6
0,64,0,37
0,57,0,18
0,45,71,16
0,60,0,24
0,52,0,10
0,45,0,6
0,47,63,28
0,47,0,47
0,48,83,38
0,67,68,36
0,72,67,79
0,48,0,63
0,76,70,14
0,67,0,48
0,72,0,16
0,76,0,14
0,74,67,5
0,50,59,3
0,66,41,9
0,74,0,68
0,69,66,10
0,50,0,49
0,66,0,35
0,74,76,3
0,69,0,25
0,74,0,49
0,53,63,11
0,65,72,1
0,69,73,0
0,74,70,1
0,53,0,167
0,72,67,1
0,65,0,35
0,69,0,2
0,71,60,3
0,55,66,16
0,74,0,12
0,72,0,23
0,71,0,29
0,55,0,12
0,57,65,35
0,69,61,1
0,72,41,4
0,57,0,4
0,69,0,5
0,64,62,1
0,72,0,34
0,72,82,48
0,69,76,1
0,64,74,0
0,64,0,57
0,72,0,12
0,69,0,2
0,64,0,16
0,59,62,3
0,71,69,0
0,59,0,60
0,71,0,5
0,60,81,21
0,72,92,1
0,64,86,1
0,60,0,57
0,74,79,4
0,72,0,15
0,64,0,26
0,72,81,34
0,76,79,1
0,74,0,47
0,72,0,1
0,76,0,0
0,60,74,24
0,74,90,0
0,60,0,18
0,74,0,22
0,74,88,41
0,66,92,0
0,62,91,1
0,74,0,23
0,72,71,0
0,66,0,5
0,71,81,78
0,62,0,8
0,72,0,15
0,71,0,55
0,67,82,3
0,67,0,14
0,48,61,35
0,60,64,36
0,48,0,1
0,64,69,0
0,67,63,1
0,41,60,5
0,48,66,4
0,60,0,19
0,69,61,18
0,64,0,48
0,67,0,1
0,41,0,2
0,48,0,3
0,52,59,0
0,69,0,7
0,52,0,15
0,69,74,15
0,64,53,2
0,60,52,3
0,69,0,27
0,57,63,6
0,64,0,14
0,60,0,9
0,60,50,16
0,64,58,19
0,57,0,1
0,60,0,28
0,69,66,7
0,64,0,8
0,72,38,31
0,69,0,25
0,76,54,2
0,72,0,23
0,84,69,37
0,76,0,30
0,88,45,4
0,84,0,11
0,93,54,6
0,88,0,9
0,96,65,24
0,93,0,17
0,100,65,0
0,96,0,9
0,105,76,2
0,100,0,9
0,108,91,14
0,105,0,15
0,108,0,204
0,69,59,265
0,71,48,81
0,69,0,116
0,71,0,7
0,45,60,8
0,72,62,3
0,52,49,24
0,60,35,7
0,45,0,3
0,71,53,78
0,72,0,1
0,57,53,3
0,52,0,76
0,69,51,5
0,60,0,5
0,71,0,5
0,52,31,0
0,57,0,5
0,69,0,10
0,52,0,43
0,71,51,19
0,68,53,7
0,60,41,0
0,45,49,2
0,52,51,47
0,71,0,81
0,56,50,43
0,68,0,8
0,60,0,6
0,45,0,3
0,52,0,14
0,56,49,95
0,56,0,47
0,59,54,13
0,69,64,9
0,56,0,17
0,59,0,4
0,69,0,18
0,71,60,7
0,71,0,48
0,45,52,3
0,72,68,1
0,64,64,2
0,67,63,3
0,52,71,3
0,45,0,30
0,72,0,10
0,55,79,6
0,64,0,8
0,67,0,16
0,60,82,16
0,52,0,23
0,64,74,13
0,55,0,40
0,74,85,4
0,60,0,23
0,64,0,34
0,74,0,2
0,72,69,7
0,72,0,27
0,54,57,16
0,54,0,36
0,71,58,4
0,45,59,3
0,66,52,1
0,54,53,49
0,71,0,20
0,45,0,21
0,66,0,10
0,62,47,2
0,69,52,2
0,54,0,11
0,62,0,12
0,69,0,8
0,54,59,29
0,72,74,69
0,66,72,0
0,60,51,3
0,54,0,25
0,72,0,19
0,66,0,1
0,60,0,16
0,69,92,28
0,74,93,0
0,69,0,23
0,74,0,7
0,41,77,17
0,41,0,33
0,69,88,1
0,76,80,0
0,72,82,1
0,29,83,1
0,64,82,1
0,69,0,6
0,41,69,7
0,76,0,8
0,41,69,44
0,72,0,23
0,29,0,1
0,48,75,15
0,64,0,1
0,41,0,6
0,41,0,26
0,74,97,0
0,69,90,1
0,48,0,1
0,64,88,1
0,53,73,0
0,74,0,17
0,57,86,32
0,69,0,1
0,64,0,8
0,53,0,8
0,72,80,12
0,64,82,1
0,69,76,0
0,57,0,34
0,60,67,10
0,72,0,3
0,64,0,3
0,69,0,9
0,60,0,8
0,76,81,37
0,64,78,1
0,69,77,1
0,41,64,39
0,76,0,19
0,64,0,4
0,69,0,19
0,48,67,4
0,74,84,23
0,64,79,1
0,69,74,2
0,41,0,14
0,48,0,23
0,53,59,13
0,74,0,4
0,64,0,6
0,69,0,0
0,64,71,37
0,53,0,2
0,72,63,1
0,69,64,1
0,64,0,9
0,72,0,3
0,69,0,5
0,57,73,34
0,57,0,8
0,52,70,50
0,52,0,44
0,45,66,8
0,60,63,2
0,64,60,2
0,67,55,1
0,52,54,50
0,69,69,22
0,45,0,15
0,60,0,13
0,64,0,4
0,67,0,0
0,57,58,60
0,64,51,2
0,69,21,1
0,60,49,72
0,52,0,9
0,69,0,72
0,64,52,7
0,57,0,76
0,60,41,5
0,64,0,100
0,57,45,1
0,69,0,21
0,60,0,16
0,64,0,15
0,60,51,29
0,60,0,3
0,57,0,7
0,60,0,3
0,33,68,72
0,55,64,4
0,60,61,1
0,64,60,2
0,33,0,3
0,55,0,1
0,60,0,4
0,45,61,15
0,60,84,87
0,64,84,1
0,55,85,1
0,64,0,21
0,45,0,17
0,60,0,3
0,64,0,4
0,45,55,37
0,55,0,34
0,55,50,2
0,64,63,2
0,60,37,6
0,45,0,12
0,55,0,3
0,64,0,5
0,45,62,13
0,55,83,80
0,64,79,0
0,60,78,1
0,67,60,3
0,60,0,13
0,45,0,61
0,45,70,12
0,55,0,4
0,64,0,20
0,55,62,15
0,60,0,3
0,67,0,2
0,45,0,2
0,55,0,19
0,45,64,19
0,54,76,91
0,66,59,1
0,38,55,2
0,62,74,1
0,60,71,1
0,45,0,7
0,54,0,2
0,66,0,21
0,38,0,4
0,62,0,10
0,45,58,27
0,50,58,69
0,66,62,0
0,62,66,3
0,71,66,1
0,60,0,46
0,45,0,3
0,50,0,33
0,72,52,1
0,66,0,17
0,62,0,17
0,66,59,1
0,62,66,2
0,71,60,1
0,50,61,40
0,71,0,8
0,72,0,24
0,66,0,13
0,62,0,1
0,71,0,18
0,66,59,15
0,62,59,4
0,69,67,0
0,50,0,56
0,45,58,16
0,66,0,9
0,62,0,14
0,62,64,15
0,69,0,4
0,45,0,2
0,62,0,14
0,39,66,23
0,39,0,8
0,40,60,2
0,40,0,10
0,40,54,25
0,40,0,31
0,55,65,7
0,67,60,2
0,33,71,0
0,60,64,1
0,64,63,1
0,55,0,25
0,67,0,3
0,33,0,4
0,60,0,0
0,55,53,23
0,64,0,21
0,67,68,61
0,64,71,0
0,60,69,1
