track,note,velocity,time
1,69,100,480
1,65,100,0
1,60,100,0
1,53,100,0
1,53,0,120
1,69,0,0
1,65,0,0
1,60,0,0
1,55,100,0
1,76,100,0
1,72,100,0
1,67,100,0
1,60,100,0
1,55,100,105
1,55,0,14
1,76,0,1
1,72,0,0
1,55,0,0
1,60,0,0
1,67,0,0
1,57,100,0
1,60,100,30
1,57,0,30
1,57,100,0
1,60,0,30
1,65,100,0
1,57,0,30
1,41,100,0
1,65,0,30
1,60,100,0
1,41,0,30
1,57,100,0
1,57,0,30
1,60,0,0
1,69,100,30
1,65,100,0
1,60,100,0
1,53,100,0
1,53,0,120
1,69,0,0
1,65,0,0
1,60,0,0
1,76,100,0
1,60,100,0
1,72,100,0
1,67,100,0
1,55,100,105
1,55,0,14
1,72,0,1
1,76,0,0
1,60,0,0
1,67,0,0
1,57,100,0
1,60,100,30
1,57,0,30
1,53,100,0
1,60,0,30
1,65,100,0
1,53,0,30
1,57,100,0
1,65,0,30
1,60,100,0
1,57,0,30
1,53,100,0
1,53,0,60
1,60,0,0
1,57,100,0
1,60,100,30
1,57,0,30
1,53,100,0
1,60,0,30
1,65,100,0
1,53,0,30
1,57,100,0
1,65,0,30
1,60,100,0
1,57,0,30
1,53,100,0
1,60,0,30
1,65,100,0
1,53,0,30
1,57,100,0
1,65,0,30
1,60,100,0
1,57,0,30
1,53,100,0
1,60,0,30
1,65,100,0
1,65,0,30
1,53,0,0
1,55,100,0
1,55,0,60
1,53,100,0
1,55,100,45
1,55,0,14
1,53,0,1
1,57,100,0
1,60,100,30
1,57,0,30
1,53,100,0
1,60,0,30
1,65,100,0
1,53,0,30
1,57,100,0
1,65,0,30
1,60,100,0
1,57,0,30
1,53,100,0
1,60,0,30
1,65,100,0
1,53,0,30
1,57,100,0
1,65,0,30
1,60,100,0
1,57,0,30
1,53,100,0
1,60,0,30
1,60,100,0
1,60,0,30
1,53,0,0
1,55,100,0
1,57,100,30
1,55,0,30
1,53,100,0
1,55,100,45
1,55,0,14
1,53,0,1
1,57,0,0
1,57,100,0
1,60,100,30
1,57,0,30
1,53,100,0
1,60,0,30
1,65,100,0
1,53,0,30
1,57,100,0
1,65,0,30
1,60,100,0
1,57,0,30
1,53,100,0
1,60,0,30
1,65,100,0
1,53,0,30
1,57,100,0
1,65,0,30
1,60,100,0
1,57,0,30
1,53,100,0
1,60,0,30
1,60,100,0
1,60,0,30
1,53,0,0
1,55,100,0
1,57,100,30
1,55,0,30
1,53,100,0
1,53,0,60
1,57,0,0
1,57,100,0
1,57,0,45
1,53,100,0
1,53,0,14
1,53,100,1
1,60,100,30
1,53,0,30
1,57,100,0
1,57,0,30
1,53,100,0
1,53,0,30
1,60,0,0
1,60,100,0
1,53,100,0
1,57,100,0
1,53,0,30
1,48,100,0
1,48,0,30
1,57,0,0
1,60,0,0
1,48,100,0
1,48,0,14
1,50,100,1
1,50,0,14
1,53,100,1
1,60,100,0
1,53,0,30
1,53,100,0
1,60,0,30
1,60,100,0
1,60,0,30
1,53,0,0
1,53,100,0
1,60,100,0
1,60,0,60
1,53,0,0
1,53,100,0
1,60,100,0
1,60,0,60
1,53,0,0
1,57,100,0
1,57,0,30
1,53,100,0
1,53,0,30
1,60,100,0
1,53,100,0
1,60,0,30
1,60,100,0
1,53,0,30
1,57,100,0
1,57,0,30
1,53,100,0
1,53,0,30
1,60,0,0
1,60,100,0
1,53,100,0
1,53,0,30
1,60,0,0
1,53,100,0
1,53,0,30
1,55,100,0
1,55,0,30
1,53,100,0
1,53,0,30
1,53,100,0
1,60,100,0
1,60,0,30
1,60,100,0
1,53,0,30
1,50,100,0
1,50,0,60
1,60,0,0
1,48,100,0
1,53,100,0
1,55,100,45
1,55,0,14
1,53,0,1
1,48,0,0
1,57,100,0
1,60,100,0
1,57,0,30
1,53,100,0
1,60,0,15
1,53,0,15
1,53,100,0
1,60,100,30
1,53,0,30
1,57,100,0
1,57,0,30
1,53,100,0
1,60,100,0
1,60,0,30
1,60,0,0
1,53,0,60
1,57,100,0
1,57,0,30
1,53,100,0
1,53,0,30
1,53,100,0
1,53,0,60
1,55,100,0
1,55,0,60
1,53,100,0
1,60,100,0
1,53,0,60
1,48,100,0
1,48,0,14
1,50,100,1
1,50,0,14
1,60,0,1
1,60,100,0
1,53,100,0
1,53,0,30
1,53,100,0
1,53,0,30
1,60,0,0
1,55,100,0
1,60,100,0
1,55,0,30
1,53,100,0
1,60,0,30
1,60,100,0
1,53,0,30
1,53,100,0
1,60,0,30
1,60,100,0
1,60,0,30
1,53,0,0
1,53,100,0
1,60,100,0
1,60,0,30
1,60,100,0
1,53,0,30
1,53,100,0
1,60,0,30
1,60,100,0
1,53,0,30
1,50,100,0
1,60,0,15
1,50,0,45
1,60,100,0
1,48,100,0
1,48,0,60
1,60,0,0
1,48,100,0
1,48,0,14
1,50,100,1
1,50,0,14
1,60,100,1
1,53,100,0
1,53,0,30
1,53,100,0
1,53,0,30
1,60,0,0
1,60,100,0
1,55,100,0
1,55,0,30
1,60,0,0
1,53,100,0
1,60,100,30
1,53,0,30
1,53,100,0
1,60,0,30
1,60,100,0
1,53,0,30
1,53,100,0
1,60,0,30
1,60,100,0
1,53,0,30
1,53,100,0
1,60,0,30
1,60,100,0
1,60,0,30
1,53,0,0
1,50,100,0
1,50,0,60
1,48,100,0
1,53,100,0
1,60,100,60
1,60,0,30
1,60,100,0
1,60,0,30
1,53,0,0
1,48,0,0
1,48,100,0
1,48,0,60
1,44,100,0
1,56,100,0
1,51,100,0
1,51,0,60
1,56,0,0
1,44,0,0
1,51,100,0
1,56,100,0
1,56,0,30
1,51,0,0
1,51,100,0
1,56,100,0
1,56,0,30
1,51,0,0
1,58,100,0
1,50,100,0
1,53,100,0
1,53,0,60
1,50,0,0
1,58,0,0
1,50,100,0
1,58,100,0
1,53,100,0
1,53,0,30
1,58,0,0
1,50,0,0
1,50,78,0
1,53,80,0
1,58,80,0
1,58,0,30
1,53,0,0
1,50,0,0
1,53,100,0
1,53,0,60
1,48,100,0
1,53,100,0
1,57,100,0
1,41,100,0
1,41,0,90
1,48,0,0
1,53,0,0
1,57,0,0
1,41,100,0
1,48,100,0
1,53,100,0
1,57,100,0
1,57,0,30
1,41,0,0
1,48,0,0
1,53,0,0
1,48,100,0
1,57,100,0
1,53,100,0
1,41,100,0
1,41,0,60
1,48,0,0
1,57,0,0
1,53,0,0
1,44,100,0
1,51,100,0
1,56,100,0
1,56,0,60
1,51,0,0
1,44,0,0
1,56,100,0
1,51,100,0
1,51,0,30
1,56,0,0
1,51,100,0
1,56,100,0
1,56,0,30
1,51,0,0
1,46,100,0
1,53,100,0
1,58,100,0
1,58,0,60
1,53,0,0
1,46,0,0
1,58,100,0
1,46,100,0
1,53,100,0
1,53,0,30
1,46,0,0
1,58,0,0
1,48,100,0
1,53,100,0
1,57,100,0
1,53,100,30
1,53,0,60
1,48,0,0
1,53,0,0
1,57,0,0
1,48,100,0
1,53,100,0
1,57,100,0
1,41,100,0
1,41,0,90
1,48,0,0
1,53,0,0
1,57,0,0
1,41,100,0
1,48,100,0
1,53,100,0
1,57,100,0
1,57,0,30
1,41,0,0
1,48,0,0
1,53,0,0
1,48,100,0
1,57,100,0
1,53,100,0
1,41,100,0
1,41,0,60
1,48,0,0
1,57,0,0
1,53,0,0
1,44,100,0
1,51,100,0
1,56,100,0
1,56,0,60
1,51,0,0
1,44,0,0
1,56,100,0
1,51,100,0
1,51,0,30
1,56,0,0
1,51,100,0
1,56,100,0
1,56,0,30
1,51,0,0
1,46,100,0
1,53,100,0
1,58,100,0
1,58,0,60
1,53,0,0
1,46,0,0
1,58,100,0
1,46,100,0
1,53,100,0
1,53,0,30
1,46,0,0
1,58,0,0
1,48,100,0
1,53,100,0
1,57,100,0
1,53,100,30
1,53,0,60
1,48,0,0
1,53,0,0
1,57,0,0
1,48,100,0
1,53,100,0
1,57,100,0
1,41,100,0
1,41,0,90
1,48,0,0
1,53,0,0
1,57,0,0
1,41,100,0
1,48,100,0
1,53,100,0
1,57,100,0
1,57,0,30
1,41,0,0
1,48,0,0
1,53,0,0
1,48,100,0
1,57,100,0
1,53,100,0
1,41,100,0
1,41,0,60
1,48,0,0
1,57,0,0
1,53,0,0
1,44,100,0
1,51,100,0
1,56,100,0
1,56,0,60
1,51,0,0
1,44,0,0
1,56,100,0
1,51,100,0
1,51,0,30
1,56,0,0
1,51,100,0
1,56,100,0
1,56,0,30
1,51,0,0
1,46,100,0
1,53,100,0
1,58,100,0
1,58,0,60
1,53,0,0
1,46,0,0
1,58,100,0
1,46,100,0
1,53,100,0
1,53,0,30
1,46,0,0
1,58,0,0
1,48,100,0
1,53,100,0
1,57,100,0
1,57,0,90
1,53,0,0
1,48,0,0
1,41,100,0
1,48,100,0
1,53,100,0
1,57,100,0
1,57,0,30
1,41,0,0
1,48,0,0
1,53,0,0
1,57,100,0
1,41,100,0
1,48,100,0
1,53,100,0
1,53,0,30
1,57,0,0
1,41,0,0
1,48,0,0
1,41,100,0
1,48,100,0
1,53,100,0
1,57,100,0
1,57,0,30
1,41,0,0
1,48,0,0
1,53,0,0
1,41,100,0
1,48,100,0
1,53,100,0
1,57,100,0
1,57,0,30
1,41,0,0
1,48,0,0
1,53,0,0
1,41,100,0
1,48,100,0
1,53,100,0
1,57,100,0
1,57,0,30
1,41,0,0
1,48,0,0
1,53,0,0
1,41,100,0
1,48,100,0
1,53,100,0
1,57,100,0
1,57,0,30
1,41,0,0
1,48,0,0
1,53,0,0
1,41,100,0
1,48,100,0
1,53,100,0
1,57,100,0
1,57,0,30
1,41,0,0
1,48,0,0
1,53,0,0
1,41,100,0
1,48,100,0
1,53,100,0
1,57,100,0
1,57,0,30
1,41,0,0
1,48,0,0
1,53,0,0
1,57,100,0
1,41,100,0
1,48,100,0
1,53,100,0
1,53,0,30
1,57,0,0
1,41,0,0
1,48,0,0
1,53,100,0
1,48,100,0
1,41,100,0
1,57,100,0
1,57,0,60
1,53,0,0
1,48,0,0
1,41,0,0
1,41,100,0
1,48,100,0
1,53,100,0
1,57,100,0
1,57,0,30
1,41,0,0
1,48,0,0
1,53,0,0
1,57,100,0
1,41,100,0
1,48,100,0
1,53,100,0
1,53,0,30
1,57,0,0
1,41,0,0
1,48,0,0
1,41,100,0
1,48,100,0
1,53,100,0
1,57,100,0
1,57,0,30
1,41,0,0
1,48,0,0
1,53,0,0
1,41,100,0
1,48,100,0
1,57,100,0
1,53,100,0
1,53,0,30
1,41,0,0
1,48,0,0
1,57,0,0
1,48,100,0
1,53,100,0
1,41,100,0
1,57,100,0
1,57,0,30
1,48,0,0
1,53,0,0
1,41,0,0
1,41,100,0
1,48,100,0
1,53,100,0
1,57,100,0
1,57,0,30
1,41,0,0
1,48,0,0
1,53,0,0
1,57,100,0
1,41,100,0
1,48,100,0
1,53,100,0
1,53,0,30
1,57,0,0
1,41,0,0
1,48,0,0
1,41,100,0
1,48,100,0
1,53,100,0
1,57,100,0
1,57,0,30
1,41,0,0
1,48,0,0
1,53,0,0
1,41,100,0
1,48,100,0
1,53,100,0
1,57,100,0
1,57,0,30
1,41,0,0
1,48,0,0
1,53,0,0
1,41,100,0
1,48,100,0
1,53,100,0
1,57,100,0
1,57,0,30
1,41,0,0
1,48,0,0
1,53,0,0
1,41,100,0
1,48,100,0
1,53,100,0
1,57,100,0
1,57,0,30
1,41,0,0
1,48,0,0
1,53,0,0
1,41,100,0
1,48,100,0
1,53,100,0
1,57,100,0
1,57,0,30
1,41,0,0
1,48,0,0
1,53,0,0
1,41,100,0
1,48,100,0
1,53,100,0
1,57,100,0
1,57,0,30
1,41,0,0
1,48,0,0
1,53,0,0
1,57,100,0
1,41,100,0
1,48,100,0
1,53,100,0
1,53,0,30
1,57,0,0
1,41,0,0
1,48,0,0
1,53,100,0
1,48,100,0
1,41,100,0
1,57,100,0
1,57,0,60
1,53,0,0
1,48,0,0
1,41,0,0
1,41,100,0
1,48,100,0
1,53,100,0
1,57,100,0
1,57,0,30
1,41,0,0
1,48,0,0
1,53,0,0
1,57,100,0
1,41,100,0
1,48,100,0
1,53,100,0
1,53,0,30
1,57,0,0
1,41,0,0
1,48,0,0
1,41,100,0
1,48,100,0
1,53,100,0
1,57,100,0
1,57,0,30
1,41,0,0
1,48,0,0
1,53,0,0
1,41,100,0
1,48,100,0
1,53,100,0
1,57,100,0
1,57,0,60
1,41,0,0
1,48,0,0
1,53,0,0
1,41,100,0
1,48,100,0
1,53,100,0
1,57,100,0
1,57,0,30
1,41,0,0
1,48,0,0
1,53,0,0
1,57,100,0
1,41,100,0
1,48,100,0
1,53,100,0
1,53,0,30
1,57,0,0
1,41,0,0
1,48,0,0
1,41,100,0
1,48,100,0
1,53,100,0
1,57,100,0
1,57,0,30
1,41,0,0
1,48,0,0
1,53,0,0
1,41,100,0
1,48,100,0
1,53,100,0
1,57,100,0
1,57,0,30
1,41,0,0
1,48,0,0
1,53,0,0
1,41,100,0
1,48,100,0
1,53,100,0
1,57,100,0
1,57,0,30
1,41,0,0
1,48,0,0
1,53,0,0
1,41,100,0
1,53,100,0
1,57,100,0
1,57,0,30
1,53,0,0
1,41,0,0
1,51,100,0
1,57,100,0
1,51,100,0
1,51,0,30
1,48,100,0
1,48,0,30
1,51,0,0
1,57,0,0
1,48,100,0
1,53,100,0
1,53,0,30
1,48,0,0
1,46,100,0
1,57,100,0
1,53,100,0
1,46,0,30
1,45,100,0
1,45,0,30
1,53,0,0
1,57,0,0
1,45,100,0
1,48,100,0
1,48,0,30
1,45,0,0
1,36,100,0
1,48,100,0
1,36,0,30
1,39,100,0
1,39,0,30
1,48,0,0
1,41,100,0
1,48,100,0
1,53,100,0
1,57,100,0
1,57,0,60
1,41,0,0
1,48,0,0
1,53,0,0
1,41,100,0
1,48,100,0
1,53,100,0
1,57,100,0
1,57,0,30
1,41,0,0
1,48,0,0
1,53,0,0
1,57,100,0
1,41,100,0
1,48,100,0
1,53,100,0
1,53,0,30
1,57,0,0
1,41,0,0
1,48,0,0
1,41,100,0
1,48,100,0
1,53,100,0
1,57,100,0
1,57,0,30
1,41,0,0
1,48,0,0
1,53,0,0
1,41,100,0
1,48,100,0
1,53,100,0
1,57,100,0
1,57,0,30
1,41,0,0
1,48,0,0
1,53,0,0
1,41,100,0
1,48,100,0
1,53,100,0
1,57,100,0
1,57,0,30
1,41,0,0
1,48,0,0
1,53,0,0
1,41,100,0
1,53,100,0
1,57,100,0
1,57,0,30
1,53,0,0
1,41,0,0
1,51,100,0
1,57,100,0
1,51,100,0
1,51,0,30
1,48,100,0
1,48,0,30
1,51,0,0
1,57,0,0
1,48,100,0
1,53,100,0
1,53,0,30
1,48,0,0
1,46,100,0
1,57,100,0
1,53,100,0
1,46,0,30
1,45,100,0
1,45,0,30
1,53,0,0
1,57,0,0
1,45,100,0
1,48,100,0
1,48,0,30
1,45,0,0
1,36,100,0
1,48,100,0
1,36,0,30
1,39,100,0
1,39,0,30
1,48,0,0
1,41,100,0
1,48,100,0
1,53,100,0
1,57,100,0
1,57,0,60
1,41,0,0
1,48,0,0
1,53,0,0
1,41,100,0
1,48,100,0
1,53,100,0
1,57,100,0
1,57,0,30
1,41,0,0
1,48,0,0
1,53,0,0
1,57,100,0
1,41,100,0
1,48,100,0
1,53,100,0
1,53,0,30
1,57,0,0
1,41,0,0
1,48,0,0
1,41,100,0
1,48,100,0
1,53,100,0
1,57,100,0
1,57,0,30
1,41,0,0
1,48,0,0
1,53,0,0
1,41,100,0
1,48,100,0
1,53,100,0
1,57,100,0
1,57,0,30
1,41,0,0
1,48,0,0
1,53,0,0
1,41,100,0
1,48,100,0
1,53,100,0
1,57,100,0
1,57,0,30
1,41,0,0
1,48,0,0
1,53,0,0
1,41,100,0
1,53,100,0
1,57,100,0
1,57,0,30
1,53,0,0
1,41,0,0
1,51,100,0
1,57,100,0
1,51,100,0
1,51,0,30
