track,note,velocity,time
3,59,100,7
3,59,0,35
3,59,111,11
3,59,0,44
3,68,117,1
3,68,0,67
3,68,116,2
3,68,0,40
3,66,101,2
3,66,0,57
3,64,99,2
3,64,0,3
3,64,91,4
3,64,0,28
3,64,87,15
3,64,0,36
3,64,113,24
3,64,0,73
3,64,92,9
3,64,0,6
3,62,104,14
3,62,0,25
3,61,106,34
3,61,0,113
3,61,110,5
3,61,0,26
3,61,110,4
3,61,0,53
3,61,82,7
3,61,0,39
3,61,109,21
3,61,0,152
3,68,107,21
3,68,0,34
3,68,84,11
3,68,0,41
3,68,107,19
3,66,81,59
3,68,0,1
3,66,0,26
3,64,102,3
3,64,0,72
3,64,94,17
3,64,0,45
3,64,95,16
3,64,0,37
3,64,86,23
3,64,0,10
3,64,106,21
3,64,0,40
3,62,108,14
3,62,0,37
3,62,102,23
3,62,0,20
3,62,102,7
3,61,104,21
3,62,0,8
3,61,0,32
3,61,78,19
3,61,0,11
3,61,113,20
3,61,0,35
3,61,104,25
3,61,0,28
3,61,119,32
3,61,0,131
3,59,97,676
3,59,0,31
3,68,113,1
3,68,0,26
3,68,79,13
3,68,0,12
3,68,101,18
3,68,0,86
3,66,104,4
3,66,0,34
3,64,91,25
3,64,0,79
3,64,78,12
3,64,0,14
3,64,98,16
3,64,0,39
3,64,104,20
3,64,0,25
3,64,108,34
3,62,98,1
3,64,0,9
3,62,0,22
3,62,91,25
3,62,0,25
3,61,101,10
3,61,0,101
3,61,99,12
3,61,0,77
3,61,107,9
3,61,0,142
3,57,106,3
3,57,0,84
3,57,106,19
3,57,0,92
3,57,110,2
3,57,0,58
3,57,112,14
3,57,0,91
3,57,77,27
3,57,0,14
3,57,106,16
3,57,0,20
3,57,104,11
3,57,0,37
3,57,112,23
3,57,0,45
3,57,100,17
3,57,0,30
3,57,114,27
3,57,0,180
3,57,78,31
3,57,0,16
3,57,102,14
3,57,0,16
3,59,108,14
3,59,0,20
3,59,106,10
3,59,0,15
3,59,98,14
3,59,0,36
3,59,110,3
3,59,0,24
3,59,88,18
3,59,0,13
3,59,95,17
3,59,0,15
3,62,120,3
3,62,0,14
3,62,104,6
3,62,0,28
3,62,104,31
3,62,0,77
3,59,100,11
3,59,0,16
3,59,100,13
3,59,0,15
3,59,106,16
3,59,0,87
3,62,120,5
3,62,0,65
3,59,76,9
3,59,0,13
3,62,117,4
3,62,0,40
3,59,100,7
3,59,0,204
3,54,107,458
3,54,0,118
3,57,100,2
3,57,0,36
3,57,94,23
3,57,0,44
3,57,86,16
3,54,91,60
3,57,0,8
3,54,0,14
3,54,113,10
3,54,0,66
3,54,99,23
3,54,0,28
3,54,88,1
3,54,0,24
3,52,88,7
3,52,0,44
3,52,95,16
3,54,93,60
3,52,0,6
3,54,0,23
3,52,75,1
3,52,0,29
3,54,85,0
3,54,0,19
3,54,110,13
3,54,0,145
3,54,60,94
3,54,0,24
3,57,100,6
3,57,0,47
3,57,87,13
3,57,0,47
3,57,77,13
3,57,0,27
3,57,90,5
3,57,0,31
3,57,92,27
3,54,67,60
3,57,0,5
3,54,0,11
3,54,82,13
3,54,0,17
3,54,93,14
3,54,0,70
3,54,97,20
3,52,87,59
3,54,0,7
3,52,0,41
3,52,94,13
3,54,107,60
3,52,0,5
3,54,0,22
3,54,87,5
3,54,0,31
3,54,110,27
3,54,0,153
3,54,77,87
3,61,101,31
3,54,0,4
3,61,0,43
3,61,101,14
3,61,0,54
3,59,88,4
3,59,0,26
3,59,86,6
3,59,0,33
3,57,90,25
3,54,93,60
3,57,0,2
3,54,0,70
3,54,95,18
3,54,0,35
3,54,110,25
3,54,0,60
3,52,73,0
3,54,107,60
3,52,0,3
3,54,0,37
3,54,110,20
3,54,0,27
3,54,84,5
3,54,0,30
3,54,110,28
3,54,0,161
3,54,84,78
3,61,107,33
3,54,0,11
3,61,0,19
3,61,67,1
3,61,0,24
3,61,101,35
3,61,0,81
3,59,90,6
3,57,95,61
3,59,0,9
3,57,0,49
3,54,77,1
3,54,0,16
3,54,101,15
3,54,0,93
3,54,79,27
3,58,89,30
3,54,0,2
3,59,87,58
3,58,0,4
3,59,0,37
3,60,87,19
3,61,95,30
3,60,0,2
3,61,0,35
3,57,92,22
3,54,97,62
3,57,0,6
3,54,0,153
3,59,106,52
3,59,0,84
3,59,106,19
3,59,0,92
3,59,110,2
3,59,0,58
3,59,112,14
3,59,0,91
3,59,77,27
3,59,0,14
3,59,106,16
3,59,0,20
3,59,104,11
3,59,0,37
3,59,112,23
3,59,0,45
3,59,100,17
3,59,0,30
3,59,114,27
3,59,0,180
3,59,78,31
3,59,0,16
3,59,102,14
3,59,0,16
3,61,108,14
3,61,0,20
3,61,106,10
3,61,0,15
3,61,98,14
3,61,0,36
3,61,110,3
3,61,0,24
3,61,88,18
3,61,0,13
3,61,95,17
3,61,0,15
3,64,120,3
3,64,0,14
3,64,104,6
3,64,0,28
3,64,104,31
3,64,0,77
3,61,100,11
3,61,0,16
3,61,100,13
3,61,0,15
3,61,106,16
3,61,0,87
3,64,120,5
3,64,0,65
3,61,76,9
3,61,0,13
3,64,117,4
3,64,0,40
3,61,100,7
3,61,0,204
3,57,106,4300
3,57,0,84
3,57,106,19
3,57,0,92
3,57,110,2
3,57,0,58
3,57,112,14
3,57,0,91
3,57,77,27
3,57,0,14
3,57,106,16
3,57,0,20
3,57,104,11
3,57,0,37
3,57,112,23
3,57,0,45
3,57,100,17
3,57,0,30
3,57,114,27
3,57,0,180
3,57,78,31
3,57,0,16
3,57,102,14
3,57,0,16
3,59,108,14
3,59,0,20
3,59,106,10
3,59,0,15
3,59,98,14
3,59,0,36
3,59,110,3
3,59,0,24
3,59,88,18
3,59,0,13
3,59,95,17
3,59,0,15
3,62,120,3
3,62,0,14
3,62,104,6
3,62,0,28
3,62,104,31
3,62,0,77
3,59,100,11
3,59,0,16
3,59,100,13
3,59,0,15
3,59,106,16
3,59,0,87
3,62,120,5
3,62,0,65
3,59,76,9
3,59,0,13
3,62,117,4
3,62,0,40
3,59,100,7
3,59,0,204
3,71,83,0
3,71,0,16
3,71,98,11
3,71,0,42
3,71,106,3
3,70,79,49
3,71,0,7
3,70,0,16
3,71,92,25
3,71,0,31
3,69,92,16
3,67,77,40
3,69,0,5
3,67,0,37
3,64,90,10
3,64,0,25
3,67,104,32
3,67,0,4
3,71,87,0
3,71,0,13
3,71,86,0
3,71,0,33
3,70,107,0
3,70,0,25
3,69,100,8
3,69,0,2
3,62,84,0
3,62,0,27
3,62,75,31
3,62,0,23
3,62,78,36
3,62,0,14
3,67,90,0
3,67,0,2
3,71,88,4
3,71,0,37
3,71,85,7
3,71,0,1
3,71,79,14
3,71,0,2
3,67,90,1
3,67,0,50
3,64,72,4
3,64,0,39
3,67,90,0
3,62,81,62
3,67,0,2
3,62,0,39
3,62,91,49
3,62,0,1
3,69,97,8
3,69,0,27
3,69,90,9
3,69,0,32
3,69,85,3
3,69,0,1
3,69,98,3
3,69,0,4
3,64,97,2
3,64,0,99
3,67,100,23
3,67,0,41
3,64,90,1
3,64,0,42
3,64,87,16
3,64,0,29
3,64,80,29
3,64,0,19
3,64,91,3
3,64,0,139
3,69,102,3
3,69,0,39
3,69,80,2
3,69,0,6
3,69,81,24
3,69,0,28
3,71,98,30
3,71,0,30
3,67,85,1
3,67,0,14
3,64,87,2
3,64,0,36
3,64,92,18
3,64,0,21
3,64,80,38
3,64,0,22
3,68,95,0
3,68,0,5
3,71,92,1
3,71,0,42
3,71,92,2
3,71,0,7
3,71,98,8
3,71,0,1
3,69,98,1
3,69,0,13
3,67,97,33
3,67,0,2
3,62,85,3
3,62,0,25
3,64,88,15
3,64,0,25
3,64,95,33
3,64,0,32
3,62,88,2
3,62,0,17
3,67,86,12
3,67,0,33
3,67,94,26
3,67,0,27
3,64,97,8
3,64,0,4
4,43,104,0
4,47,106,6
4,43,0,22
4,47,0,6
4,47,95,32
4,43,98,0
4,43,0,30
4,47,0,0
4,42,119,31
4,42,0,24
4,42,119,95
4,42,0,36
4,42,127,83
4,42,0,16
4,43,102,100
4,47,98,5
4,43,0,21
4,47,0,3
4,47,91,36
4,43,95,0
4,43,0,28
4,47,0,0
4,42,123,33
4,42,0,24
4,42,54,35
4,42,0,16
4,42,127,44
4,42,0,20
4,42,68,40
4,42,0,14
4,42,127,45
4,42,0,18
4,42,123,42
4,42,0,20
4,43,108,35
4,47,100,5
4,43,0,15
4,47,0,7
4,43,98,39
4,47,92,0
4,47,0,22
4,43,0,2
4,42,123,36
4,56,77,0
4,56,0,10
4,42,0,12
4,56,82,7
4,56,0,16
4,42,66,14
4,42,0,18
4,56,116,9
4,56,0,17
4,42,127,16
4,42,0,18
4,56,97,9
4,56,0,19
4,42,78,14
4,42,0,18
4,56,104,10
4,56,0,17
4,42,127,15
4,42,0,20
4,56,107,39
4,42,110,1
4,56,0,14
4,42,0,4
4,43,104,38
4,47,98,4
4,43,0,20
4,47,0,4
4,47,95,36
4,43,98,0
4,43,0,28
4,47,0,2
4,56,95,29
4,42,119,1
4,56,0,11
4,42,0,9
4,56,84,9
4,56,0,15
4,42,62,16
4,42,0,16
4,56,95,11
4,56,0,18
4,42,127,15
4,42,0,20
4,56,93,7
4,56,0,18
4,42,104,15
4,42,0,16
4,56,68,11
4,56,0,9
4,56,93,23
4,42,123,1
4,56,0,17
4,42,0,3
4,56,99,39
4,42,119,1
4,56,0,10
4,42,0,8
4,43,102,38
4,47,102,4
4,43,0,20
4,47,0,2
4,47,102,38
4,43,104,0
4,43,0,26
4,47,0,2
4,42,127,32
4,42,0,22
4,43,102,9
4,43,0,8
4,42,66,22
4,42,0,12
4,40,90,21
4,40,0,4
4,40,70,10
4,40,0,6
4,42,123,6
4,40,127,0
4,40,0,7
4,42,0,13
4,40,113,8
4,40,0,6
4,42,84,26
4,42,0,14
4,40,76,12
4,40,0,6
4,40,101,27
4,42,123,1
4,40,0,6
4,42,0,12
4,40,91,1
4,40,0,8
4,45,102,10
4,45,0,8
4,45,117,12
4,42,123,3
4,45,0,4
4,43,117,12
4,42,0,6
4,43,0,2
4,43,127,13
4,43,0,6
4,49,116,8
4,36,125,7
4,42,79,1
4,56,84,1
4,49,0,20
4,56,0,8
4,42,0,1
4,36,0,5
4,42,70,23
4,56,52,1
4,36,120,1
4,42,0,23
4,56,0,8
4,36,0,14
4,40,120,13
4,42,79,0
4,56,82,2
4,40,0,9
4,42,0,12
4,56,0,7
4,40,127,0
4,40,0,14
4,42,74,15
4,56,60,1
4,42,0,27
4,56,0,2
4,36,104,1
4,36,0,27
4,42,64,2
4,56,61,1
4,42,0,25
4,36,68,5
4,56,0,4
4,36,0,9
4,42,65,16
4,56,58,1
4,36,84,2
4,36,0,11
4,42,0,11
4,56,0,6
4,36,102,0
4,36,0,19
4,42,101,10
4,40,127,1
4,56,84,0
4,40,0,12
4,42,0,8
4,56,0,10
4,40,127,0
4,40,0,18
4,42,67,12
4,56,61,0
4,42,0,25
4,56,0,5
4,36,78,2
4,36,0,9
4,36,110,19
4,56,87,1
4,42,74,1
4,42,0,23
4,36,0,3
4,56,0,9
4,36,114,23
4,42,67,2
4,56,58,0
4,42,0,20
4,56,0,10
4,36,0,7
4,40,127,21
4,42,95,0
4,56,89,2
4,42,0,19
4,40,0,4
4,56,0,8
4,40,127,27
4,42,68,0
4,56,64,0
4,40,0,17
4,42,0,6
4,36,92,7
4,56,0,3
4,36,0,24
4,42,75,2
4,56,51,1
4,42,0,26
4,36,77,3
4,56,0,7
4,36,0,6
4,42,67,17
4,36,97,1
4,56,64,2
4,36,0,14
4,56,0,6
4,42,0,1
4,36,108,7
4,36,0,19
4,42,93,10
4,45,120,1
4,56,97,0
4,45,0,17
4,42,0,2
4,56,0,12
4,43,127,28
4,42,61,0
4,56,56,1
4,43,0,21
4,42,0,3
4,56,0,10
4,36,104,26
4,42,67,0
4,56,67,0
4,57,104,0
4,57,0,22
4,36,0,3
4,42,0,1
4,56,0,13
4,36,100,21
4,56,51,1
4,42,61,1
4,56,0,19
4,42,0,2
4,36,0,9
4,40,125,28
4,42,95,0
4,56,95,0
4,40,0,14
4,42,0,10
4,40,127,6
4,56,0,3
4,40,0,13
4,42,68,14
4,56,61,0
4,42,0,25
4,36,98,5
4,56,0,2
4,36,0,25
4,42,71,3
4,56,70,0
4,42,0,23
4,36,66,9
4,56,0,3
4,36,0,11
4,42,73,14
4,56,61,0
4,36,80,1
4,36,0,14
4,42,0,7
4,56,0,6
4,36,98,3
4,36,0,23
4,40,127,6
4,42,89,0
4,56,95,0
4,40,0,14
4,42,0,10
4,40,127,8
4,56,0,1
4,40,0,15
4,42,68,12
4,56,61,0
4,42,0,24
4,56,0,6
4,36,76,2
4,36,0,12
4,56,74,16
4,36,106,2
4,42,81,0
4,42,0,23
4,36,0,0
4,56,0,5
4,36,110,30
4,56,62,0
4,42,70,2
4,56,0,24
4,42,0,1
4,36,0,9
4,40,127,23
4,56,87,1
4,42,87,2
4,40,0,15
4,42,0,8
4,56,0,7
4,40,114,27
4,56,67,0
4,42,65,1
4,40,0,16
4,42,0,6
4,36,106,7
4,56,0,1
4,36,0,30
4,42,62,0
4,56,74,0
4,42,0,22
4,36,74,7
4,56,0,5
4,36,0,9
4,36,97,17
4,42,77,0
4,56,54,0
4,36,0,18
4,42,0,3
4,56,0,7
4,36,97,2
4,36,0,20
4,45,122,9
4,42,95,1
4,56,87,0
4,42,0,21
4,45,0,0
4,56,0,10
4,43,127,28
4,42,63,0
4,56,58,1
4,43,0,19
4,42,0,2
4,56,0,12
4,49,119,23
4,36,106,3
4,42,79,1
4,56,66,1
4,42,0,16
4,49,0,4
4,36,0,3
4,56,0,11
4,36,104,25
4,42,73,0
4,56,61,0
4,42,0,20
4,56,0,4
4,36,0,11
4,42,97,24
4,40,127,1
4,56,95,0
4,42,0,17
4,56,0,13
4,40,0,1
4,42,67,28
4,56,59,0
4,42,0,20
4,56,0,8
4,36,76,1
4,36,0,6
4,36,67,11
4,36,0,8
4,36,91,6
4,42,70,0
4,56,73,1
4,36,0,13
4,42,0,2
4,36,108,14
4,56,0,4
4,36,0,8
4,36,71,5
4,36,0,12
4,42,75,0
4,36,83,4
4,56,67,0
4,36,0,13
4,42,0,2
4,56,0,7
4,36,104,8
4,36,0,9
4,36,72,7
4,42,101,11
4,36,0,1
4,56,97,0
4,40,127,2
4,42,0,13
4,40,0,4
4,56,0,10
4,36,125,31
4,42,85,0
4,56,66,0
4,42,0,16
4,36,0,1
4,56,0,8
4,36,104,34
4,56,82,1
4,42,97,1
4,42,0,17
4,36,0,6
4,56,0,4
4,36,102,32
4,42,91,0
4,56,61,0
4,42,0,16
4,56,0,8
4,36,0,17
4,40,114,19
4,42,99,0
4,56,95,0
4,42,0,16
4,40,0,5
4,56,0,7
4,40,125,31
4,42,71,0
4,56,63,1
4,42,0,16
4,40,0,0
4,56,0,11
4,36,92,3
4,42,82,29
4,56,75,1
4,36,0,1
4,42,0,14
4,36,74,15
4,56,0,6
4,36,0,8
4,36,95,16
4,42,93,0
4,56,74,1
4,36,0,11
4,42,0,2
4,56,0,13
4,36,100,2
4,36,0,17
4,45,117,13
4,42,110,1
4,56,95,0
4,42,0,14
4,45,0,2
4,56,0,14
4,43,120,29
4,42,75,1
4,56,61,0
4,43,0,12
4,42,0,4
4,56,0,14
4,36,120,29
4,42,82,1
4,57,112,0
4,56,74,2
4,55,74,0
4,55,0,5
4,42,0,7
4,36,0,13
4,57,0,4
4,56,0,6
4,36,104,23
4,42,79,0
4,56,56,2
4,42,0,14
4,56,0,9
4,36,0,10
4,40,127,25
4,42,104,0
4,56,91,0
4,42,0,24
4,40,0,7
4,56,0,3
4,42,67,26
4,56,56,2
4,42,0,17
4,36,76,9
4,56,0,3
4,36,0,3
4,36,67,11
4,36,0,8
4,36,91,6
4,42,93,1
4,56,71,2
4,36,0,11
4,42,0,6
4,36,108,10
