track,note,velocity,time
1,71,90,2820
1,71,0,60
1,71,90,0
1,71,0,120
1,69,90,0
1,69,0,30
1,67,90,0
1,67,0,30
1,69,90,0
1,69,0,60
1,67,90,0
1,67,0,60
1,64,90,0
1,64,0,60
1,64,90,0
1,64,0,60
1,64,90,0
1,64,0,90
1,62,90,0
1,62,0,30
1,64,90,0
1,64,0,60
1,67,90,0
1,67,0,120
1,71,90,180
1,71,0,60
1,71,90,0
1,71,0,30
1,71,90,0
1,71,0,60
1,71,90,0
1,71,0,90
1,69,90,0
1,69,0,60
1,69,90,0
1,69,0,30
1,67,90,0
1,67,0,30
1,69,90,0
1,69,0,60
1,67,90,0
1,67,0,60
1,64,90,0
1,64,0,30
1,64,90,0
1,64,0,90
1,62,90,0
1,62,0,60
1,71,90,90
1,71,0,90
1,71,90,0
1,71,0,60
1,69,90,0
1,69,0,30
1,67,90,0
1,67,0,30
1,69,90,0
1,69,0,60
1,67,90,0
1,67,0,60
1,64,90,0
1,64,0,30
1,62,90,0
1,62,0,30
1,64,90,0
1,64,0,60
1,67,90,0
1,67,0,60
1,71,90,180
1,71,0,120
1,69,90,0
1,69,0,30
1,67,90,0
1,67,0,30
1,69,90,0
1,69,0,60
1,67,90,0
1,67,0,60
1,64,90,0
1,64,0,30
1,64,90,0
1,64,0,30
1,74,90,0
1,74,0,60
1,74,90,0
1,74,0,60
1,71,90,0
1,71,0,60
1,71,108,0
1,71,0,120
1,69,108,0
1,69,0,60
1,71,108,0
1,71,0,120
1,71,100,2520
1,71,0,60
1,71,100,0
1,71,0,240
1,69,100,0
1,69,0,30
1,67,100,0
1,67,0,30
1,71,100,0
1,71,0,60
1,69,100,0
1,69,0,120
1,64,100,0
1,64,0,30
1,62,100,0
1,62,0,30
1,64,100,0
1,64,0,30
1,62,100,0
1,62,0,30
1,64,100,0
1,64,0,60
1,67,100,0
1,67,0,60
1,71,100,180
1,71,0,60
1,69,100,0
1,69,0,60
1,69,100,0
1,69,0,60
1,71,100,0
1,71,0,60
1,69,100,0
1,69,0,60
1,67,100,0
1,67,0,30
1,64,100,0
1,64,0,30
1,64,100,60
1,64,0,30
1,62,100,0
1,62,0,30
1,64,100,0
1,64,0,30
1,62,100,0
1,62,0,30
1,64,100,0
1,64,0,60
1,62,100,0
1,62,0,120
1,71,100,60
1,71,0,60
1,71,100,0
1,71,0,30
1,71,100,0
1,71,0,30
1,71,100,0
1,71,0,60
1,69,100,0
1,69,0,60
1,69,100,0
1,69,0,30
1,67,100,0
1,67,0,30
1,69,100,0
1,69,0,60
1,67,100,0
1,67,0,30
1,64,100,0
1,64,0,30
1,64,100,0
1,64,0,30
1,62,100,0
1,62,0,30
1,71,100,180
1,71,0,30
1,71,100,0
1,71,0,30
1,69,100,0
1,69,0,60
1,67,100,0
1,67,0,60
1,67,100,0
1,67,0,30
1,64,100,0
1,64,0,30
1,64,100,0
1,64,0,60
1,71,100,60
1,71,0,60
1,71,100,0
1,71,0,60
1,69,100,0
1,69,0,30
1,67,100,0
1,67,0,30
1,71,120,0
1,71,0,60
1,69,120,0
1,69,0,120
1,71,100,4080
1,71,0,30
1,71,100,0
1,71,0,30
1,71,100,0
1,71,0,60
1,71,100,0
1,71,0,60
1,69,100,0
1,69,0,30
1,67,100,0
1,67,0,30
1,69,100,0
1,69,0,60
1,67,100,0
1,67,0,60
1,64,100,0
1,64,0,30
1,62,100,0
1,62,0,30
1,64,100,0
1,64,0,60
1,64,100,0
1,64,0,30
1,64,100,0
1,64,0,30
1,64,100,0
1,64,0,60
1,67,100,0
1,67,0,180
1,71,100,0
1,71,0,60
1,71,100,0
1,71,0,30
1,71,100,0
1,71,0,30
1,71,100,0
1,71,0,60
1,71,100,0
1,71,0,60
1,71,100,0
1,71,0,30
1,69,100,0
1,69,0,30
1,67,100,0
1,67,0,60
1,66,100,0
1,66,0,60
1,64,100,0
1,64,0,30
1,64,100,0
1,64,0,30
1,64,100,0
1,64,0,30
1,62,100,0
1,62,0,150
1,59,100,180
1,59,0,60
1,71,100,0
1,71,0,120
1,69,100,0
1,69,0,30
1,67,100,0
1,67,0,30
1,69,100,0
1,69,0,60
1,71,100,0
1,71,0,60
1,64,100,0
1,64,0,30
1,62,100,0
1,62,0,30
1,64,100,0
1,64,0,60
1,64,100,0
1,64,0,60
1,64,100,0
1,64,0,30
1,62,100,0
1,62,0,30
1,64,100,0
1,64,0,180
1,71,100,0
1,71,0,120
1,71,100,0
1,71,0,30
1,71,100,0
1,71,0,30
1,71,100,0
1,71,0,60
1,69,100,0
1,69,0,60
1,67,100,0
1,67,0,30
1,64,100,0
1,64,0,90
1,64,100,0
1,64,0,60
1,64,100,0
1,64,0,60
1,71,127,0
1,71,0,60
1,69,127,0
1,69,0,120
1,62,90,50520
1,62,0,120
1,61,90,0
1,61,0,120
1,59,90,0
1,59,0,120
1,59,90,0
1,59,0,60
1,57,90,0
1,57,0,120
1,71,100,2820
1,71,0,60
1,71,100,0
1,71,0,120
1,69,100,0
1,69,0,30
1,67,100,0
1,67,0,30
1,71,100,0
1,71,0,120
1,69,100,0
1,69,0,60
1,71,100,0
1,71,0,60
1,71,100,0
1,71,0,60
1,71,100,0
1,71,0,60
1,71,100,0
1,71,0,60
1,69,100,0
1,69,0,20
1,71,100,128
1,71,0,60
1,71,100,0
1,71,0,30
1,71,100,0
1,71,0,30
1,71,100,0
1,71,0,60
1,69,100,0
1,69,0,60
1,69,100,0
1,69,0,30
1,67,100,0
1,67,0,30
1,69,100,0
1,69,0,60
1,67,100,0
1,67,0,60
1,67,100,0
1,67,0,60
1,64,100,0
1,64,0,19
1,71,100,217
1,71,0,44
1,71,100,1
1,71,0,44
1,71,100,1
1,71,0,44
1,71,100,1
1,71,0,44
1,71,100,1
1,71,0,60
1,69,100,0
1,69,0,30
1,69,100,0
1,69,0,30
1,67,100,0
1,67,0,60
1,69,100,0
1,69,0,120
1,71,100,0
1,71,0,30
1,69,100,0
1,69,0,26
1,65,100,2
1,65,0,15
1,71,100,169
1,71,0,60
1,69,100,0
1,69,0,60
1,67,100,0
1,67,0,60
1,69,100,0
1,69,0,60
1,64,100,0
1,64,0,26
1,64,100,4
1,64,0,26
1,76,110,4
1,76,0,60
1,76,120,0
1,76,0,60
1,71,110,0
1,71,0,60
1,71,127,0
1,71,0,225
1,69,90,2160
1,69,0,60
1,69,120,300
1,69,0,60
1,62,90,120
1,62,0,60
1,66,120,120
1,66,0,60
1,66,100,120
1,66,0,60
1,67,110,120
1,67,0,60
1,66,90,120
1,66,0,60
1,66,120,120
1,66,0,60
1,66,100,120
1,66,0,60
1,66,100,120
1,66,0,60
1,66,120,120
1,66,0,120
1,66,110,60
1,66,0,60
1,66,120,120
1,66,0,60
1,66,100,120
1,66,0,120
1,66,110,60
1,66,0,120
1,64,120,10
1,64,0,24
1,64,120,2
1,64,0,28
1,64,120,2
1,64,0,32
1,64,120,2
1,64,0,36
2,83,100,840
2,83,0,60
2,88,100,0
2,88,0,174
2,95,100,0
2,95,0,60
2,100,100,0
2,100,0,120
2,79,100,0
2,79,0,60
2,83,63,300
2,83,0,60
2,88,63,0
2,88,0,300
2,95,63,0
2,95,0,60
2,100,63,0
2,100,0,120
2,95,63,0
2,95,0,60
2,91,63,0
2,91,0,540
2,83,63,180
2,79,63,0
2,79,0,360
2,83,0,0
2,95,63,0
2,91,63,0
2,91,0,360
2,95,0,0
2,91,100,720
2,91,0,180
2,90,100,0
2,90,0,2
2,89,100,0
2,89,0,56
2,88,100,2
2,88,0,180
2,86,100,0
2,86,0,180
2,85,100,0
2,85,0,2
2,84,100,0
2,84,0,1
2,83,100,1
2,83,0,120
2,91,100,60
2,91,0,180
2,90,100,0
2,90,0,2
2,89,100,0
2,89,0,56
2,88,100,2
2,88,0,180
2,86,100,0
2,86,0,180
2,85,100,0
2,85,0,2
2,84,100,0
2,84,0,56
2,83,100,2
2,83,0,180
2,76,100,2880
2,76,0,30
2,78,100,0
2,78,0,30
2,81,100,0
2,81,0,30
2,83,100,0
2,83,0,30
2,76,100,0
2,76,0,30
2,78,100,0
2,78,0,30
2,76,100,180
2,76,0,30
2,78,100,0
2,78,0,30
2,81,100,0
2,81,0,30
2,83,100,0
2,83,0,30
2,76,100,0
2,76,0,30
2,78,100,0
2,78,0,30
2,76,100,180
2,76,0,30
2,78,100,0
2,78,0,30
2,81,100,0
2,81,0,30
2,83,100,0
2,83,0,30
2,76,100,0
2,76,0,30
2,78,100,0
2,78,0,30
2,76,100,180
2,76,0,30
2,78,100,0
2,78,0,30
2,81,100,0
2,81,0,30
2,83,100,0
2,83,0,30
2,76,100,0
2,76,0,30
2,78,100,0
2,78,0,30
2,91,100,180
2,91,0,180
2,90,100,0
2,90,0,180
2,89,100,0
2,89,0,120
2,88,100,0
2,88,0,60
2,88,100,0
2,88,0,180
2,86,100,0
2,86,0,180
2,85,100,0
2,85,0,2
2,84,100,0
2,84,0,56
2,83,100,2
2,83,0,120
2,91,100,60
2,91,0,180
2,90,100,0
2,90,0,2
2,89,100,0
2,89,0,56
2,88,100,2
2,88,0,180
2,86,100,0
2,86,0,180
2,85,100,0
2,85,0,2
2,84,100,0
2,84,0,56
2,83,80,2
2,83,0,120
2,91,80,60
2,91,0,180
2,90,80,0
2,90,0,2
2,89,80,0
2,89,0,56
2,88,80,2
2,88,0,180
2,86,80,0
2,86,0,180
2,85,80,0
2,85,0,2
2,84,80,0
2,84,0,56
2,83,80,2
2,83,0,120
2,91,80,60
2,91,0,180
2,90,80,0
2,90,0,2
2,89,80,0
2,89,0,56
2,88,80,2
2,88,0,180
2,86,80,0
2,86,0,180
2,85,80,0
2,85,0,2
2,84,80,0
2,84,0,56
2,76,80,182
2,76,0,30
2,78,80,0
2,78,0,30
2,81,80,0
2,81,0,30
2,83,80,0
2,83,0,30
2,76,80,0
2,76,0,30
2,78,80,0
2,78,0,30
2,76,80,180
2,76,0,30
2,78,80,0
2,78,0,30
2,81,80,0
2,81,0,30
2,83,80,0
2,83,0,30
2,76,80,0
2,76,0,30
2,78,80,0
2,78,0,30
2,76,100,180
2,76,0,30
2,78,100,0
2,78,0,30
2,81,100,0
2,81,0,30
2,83,100,0
2,83,0,30
2,76,100,0
2,76,0,30
2,78,100,0
2,78,0,30
2,76,100,180
2,76,0,30
2,78,100,0
2,78,0,30
2,81,100,0
2,81,0,30
2,83,100,0
2,83,0,30
2,76,100,0
2,76,0,30
2,78,100,0
2,78,0,30
2,59,100,0
2,64,100,0
2,64,0,60
2,59,0,0
2,60,50,9
2,60,0,179
2,69,100,8760
2,69,0,60
2,71,100,0
2,71,0,60
2,74,100,0
2,74,0,60
2,76,100,0
2,76,0,60
2,79,100,0
2,79,0,60
2,81,100,0
2,81,0,60
2,79,100,0
2,79,0,60
2,76,100,0
2,76,0,60
2,69,100,0
2,69,0,60
2,71,100,0
2,71,0,60
2,74,100,0
2,74,0,60
2,76,100,0
2,76,0,60
2,79,100,0
2,79,0,60
2,81,100,0
2,81,0,60
2,79,100,0
2,79,0,120
2,69,100,0
2,69,0,60
2,71,100,0
2,71,0,60
2,74,100,0
2,74,0,60
2,76,100,0
2,76,0,60
2,79,100,0
2,79,0,60
2,81,100,0
2,81,0,60
2,79,100,0
2,79,0,60
2,76,100,0
2,76,0,60
2,69,100,0
2,69,0,60
2,71,100,0
2,71,0,60
2,74,100,0
2,74,0,60
2,76,100,0
2,76,0,60
2,79,100,0
2,79,0,60
2,81,100,0
2,81,0,60
2,84,80,60
2,86,100,0
2,84,0,60
2,86,0,420
2,83,80,0
2,85,100,0
2,83,0,60
2,85,0,420
2,81,80,0
2,83,100,0
2,81,0,60
2,83,0,420
2,79,80,0
2,81,100,0
2,79,0,60
2,81,0,420
2,77,80,0
2,79,100,0
2,77,0,60
2,79,0,180
2,76,80,0
2,78,100,0
2,76,0,60
2,78,0,180
2,74,80,0
2,76,100,0
2,74,0,60
2,76,0,420
2,77,80,0
2,79,100,0
2,77,0,60
2,79,0,180
2,76,80,0
2,78,100,0
2,76,0,60
2,78,0,180
2,72,80,0
2,74,100,0
2,72,0,60
2,74,0,420
2,71,80,0
2,73,100,0
2,71,0,60
2,73,0,780
2,71,100,0
2,71,0,180
2,81,100,0
2,81,0,40
2,83,100,0
2,83,0,40
2,83,100,0
2,83,0,40
2,86,100,0
2,86,0,30
2,83,100,0
2,83,0,30
2,81,100,0
2,81,0,30
2,81,100,0
2,81,0,30
2,83,100,0
2,83,0,30
2,83,100,0
2,83,0,30
2,86,100,0
2,86,0,30
2,83,100,0
2,83,0,30
2,81,100,0
2,81,0,40
2,81,100,0
2,81,0,40
2,83,100,0
2,83,0,40
2,83,100,0
2,83,0,40
2,86,100,0
2,86,0,40
2,83,100,0
2,83,0,40
2,81,100,0
2,81,0,40
2,81,100,0
2,81,0,40
2,83,100,0
2,83,0,40
2,83,100,0
2,83,0,40
2,86,100,0
2,86,0,40
2,83,100,0
2,83,0,40
2,88,100,0
2,88,0,10
2,83,100,70
2,83,0,40
2,91,100,0
2,91,0,30
2,88,100,0
2,88,0,30
2,83,100,0
2,83,0,30
2,91,100,0
2,91,0,30
2,88,100,0
2,88,0,30
2,83,100,0
2,83,0,30
2,91,100,0
2,91,0,30
2,88,100,0
2,88,0,30
2,83,100,0
2,83,0,30
2,91,100,0
2,91,0,30
2,88,100,0
2,88,0,30
2,83,100,0
2,83,0,30
2,91,100,0
2,91,0,30
2,88,100,0
2,88,0,30
2,83,100,0
2,83,0,100
2,83,100,0
2,83,0,40
2,83,100,0
2,83,0,40
2,93,100,0
2,93,0,80
2,91,100,0
2,91,0,40
2,88,100,0
2,88,0,60
2,86,100,0
2,86,0,60
2,88,100,0
2,88,0,30
2,86,100,0
2,86,0,30
2,83,100,0
2,83,0,30
2,81,100,0
2,81,0,30
2,79,100,0
2,79,0,60
2,76,100,0
2,76,0,30
2,79,100,0
2,79,0,30
2,81,100,0
2,81,0,60
2,79,100,0
2,79,0,60
2,81,100,0
2,81,0,60
2,79,100,0
2,79,0,30
2,81,100,0
2,81,0,30
2,83,100,0
2,83,0,30
2,86,100,0
2,86,0,30
2,81,100,0
2,81,0,60
2,83,100,0
2,83,0,45
2,81,100,0
2,81,0,15
2,79,100,0
2,79,0,60
2,81,100,0
2,81,0,30
2,79,100,0
2,79,0,30
2,76,100,0
2,76,0,60
2,74,100,0
2,74,0,15
2,76,100,0
2,76,0,45
2,74,100,0
2,74,0,30
2,76,100,0
2,76,0,30
2,74,100,0
2,74,0,20
2,71,100,0
2,71,0,59
2,74,100,1
2,74,0,39
2,76,100,1
2,76,0,40
2,76,100,0
2,76,0,80
2,100,100,240
2,88,100,0
2,88,0,60
2,100,0,0
2,102,100,0
2,90,100,0
2,90,0,60
2,102,0,0
2,76,100,0
2,76,0,60
2,78,100,0
2,78,0,90
2,76,100,0
2,76,0,30
2,71,100,0
2,71,0,60
2,76,100,0
2,76,0,40
2,74,100,0
2,74,0,40
2,74,100,0
2,74,0,40
2,74,100,0
2,74,0,40
2,73,100,0
2,73,0,20
2,73,100,0
2,73,0,20
2,73,100,0
2,73,0,40
2,73,100,0
2,73,0,40
2,74,100,0
2,74,0,40
2,73,100,0
2,73,0,40
2,73,100,0
2,73,0,60
2,71,100,0
2,71,0,60
2,71,100,0
2,71,0,40
2,69,100,0
2,69,0,40
2,69,100,0
2,69,0,40
2,71,100,0
2,71,0,40
2,69,100,0
2,69,0,40
2,69,100,0
2,69,0,40
2,67,100,0
2,67,0,80
2,67,100,0
2,67,0,80
2,69,100,0
2,69,0,80
2,67,100,60
2,67,0,60
2,69,100,0
2,69,0,60
2,67,100,0
2,67,0,60
2,69,100,0
2,69,0,80
2,67,100,0
2,67,0,80
2,69,100,0
2,69,0,80
2,67,100,0
2,67,0,80
2,67,100,0
2,67,0,80
2,69,100,0
2,69,0,80
2,71,80,0
2,71,0,300
2,67,80,0
2,67,0,60
2,67,80,0
2,67,0,90
