track,note,velocity,time
1,53,70,64
1,48,70,0
1,29,70,128
1,24,70,0
1,36,70,256
1,48,0,0
1,41,70,0
1,53,0,0
1,29,0,0
1,24,0,0
1,41,0,0
1,36,0,4
1,60,115,1296
1,65,115,0
1,41,115,0
1,53,115,0
1,65,0,90
1,53,0,0
1,60,0,0
1,41,0,0
1,41,115,6
1,60,115,0
1,53,115,0
1,65,115,0
1,60,0,90
1,41,0,0
1,53,0,0
1,65,0,0
1,41,115,6
1,60,115,0
1,53,115,0
1,65,115,0
1,41,0,90
1,60,0,0
1,53,0,0
1,65,0,0
1,60,115,6
1,41,115,0
1,65,115,0
1,53,115,0
1,58,115,0
1,53,0,90
1,41,0,0
1,60,0,0
1,65,0,0
1,58,0,0
1,41,115,6
1,53,115,0
1,56,115,0
1,60,115,0
1,65,115,0
1,53,0,178
1,56,0,0
1,41,0,0
1,65,0,0
1,60,0,0
1,39,90,14
1,65,115,0
1,58,90,0
1,53,90,0
1,56,90,40
1,56,90,72
1,56,0,18
1,56,0,0
1,55,90,54
1,65,0,8
1,55,0,82
1,65,85,30
1,65,0,192
1,58,0,196
1,53,0,0
1,39,0,4
1,53,115,264
1,65,115,0
1,60,115,0
1,41,115,0
1,41,0,90
1,53,0,0
1,65,0,0
1,60,0,0
1,60,115,6
1,41,115,0
1,53,115,0
1,65,115,0
1,53,0,90
1,60,0,0
1,41,0,0
1,65,0,0
1,41,115,6
1,65,115,0
1,53,115,0
1,60,115,0
1,53,0,90
1,60,0,0
1,41,0,0
1,65,0,0
1,58,115,6
1,65,115,0
1,60,115,0
1,53,115,0
1,41,115,0
1,58,0,90
1,41,0,0
1,53,0,0
1,60,0,0
1,65,0,0
1,65,115,6
1,41,115,0
1,53,115,0
1,56,115,0
1,60,115,0
1,56,0,178
1,53,0,0
1,60,0,0
1,41,0,0
1,65,0,0
1,65,115,14
1,39,90,0
1,53,90,0
1,58,90,0
1,56,90,40
1,56,90,72
1,56,0,18
1,56,0,0
1,55,90,54
1,65,0,8
1,55,0,82
1,65,85,30
1,65,0,192
1,58,0,196
1,53,0,0
1,39,0,4
1,53,115,264
1,65,115,0
1,41,115,0
1,60,115,0
1,41,0,90
1,65,0,0
1,60,0,0
1,53,0,0
1,53,115,6
1,60,115,0
1,65,115,0
1,41,115,0
1,41,0,90
1,60,0,0
1,65,0,0
1,53,0,0
1,41,115,6
1,65,115,0
1,60,115,0
1,53,115,0
1,60,0,90
1,53,0,0
1,65,0,0
1,41,0,0
1,41,115,6
1,60,115,0
1,58,115,0
1,53,115,0
1,65,115,0
1,60,0,90
1,53,0,0
1,41,0,0
1,65,0,0
1,58,0,0
1,65,115,6
1,53,115,0
1,60,115,0
1,41,115,0
1,56,115,0
1,65,0,178
1,60,0,0
1,53,0,0
1,56,0,0
1,41,0,0
1,58,90,14
1,53,90,0
1,39,90,0
1,65,115,0
1,56,90,40
1,56,90,72
1,56,0,18
1,56,0,0
1,55,90,54
1,65,0,8
1,55,0,82
1,65,85,30
1,65,0,192
1,58,0,196
1,53,0,0
1,39,0,4
1,53,115,264
1,41,115,0
1,65,115,0
1,60,115,0
1,60,0,90
1,41,0,0
1,65,0,0
1,53,0,0
1,53,115,6
1,41,115,0
1,60,115,0
1,65,115,0
1,65,0,90
1,53,0,0
1,60,0,0
1,41,0,0
1,53,115,6
1,41,115,0
1,60,115,0
1,65,115,0
1,41,0,90
1,53,0,0
1,65,0,0
1,60,0,0
1,53,115,6
1,41,115,0
1,58,115,0
1,60,115,0
1,65,115,0
1,41,0,90
1,53,0,0
1,60,0,0
1,65,0,0
1,58,0,0
1,56,115,6
1,65,115,0
1,41,115,0
1,53,115,0
1,60,115,0
1,41,0,178
1,56,0,0
1,60,0,0
1,65,0,0
1,53,0,0
1,65,115,14
1,53,90,0
1,39,90,0
1,58,90,0
1,56,90,40
1,56,90,72
1,56,0,18
1,56,0,0
1,55,90,54
1,65,0,8
1,55,0,82
1,65,85,30
1,65,0,192
1,53,0,196
1,58,0,0
1,39,0,4
1,41,115,264
1,60,115,0
1,65,115,0
1,53,115,0
1,41,0,90
1,53,0,0
1,65,0,0
1,60,0,0
1,65,115,6
1,53,115,0
1,60,115,0
1,41,115,0
1,53,0,90
1,41,0,0
1,65,0,0
1,60,0,0
1,60,115,6
1,41,115,0
1,53,115,0
1,65,115,0
1,65,0,90
1,41,0,0
1,60,0,0
1,53,0,0
1,60,115,6
1,65,115,0
1,41,115,0
1,58,115,0
1,53,115,0
1,53,0,90
1,41,0,0
1,60,0,0
1,58,0,0
1,65,0,0
1,56,115,6
1,41,115,0
1,65,115,0
1,53,115,0
1,60,115,0
1,60,0,178
1,53,0,0
1,56,0,0
1,65,0,0
1,41,0,0
1,39,90,14
1,65,115,0
1,58,90,0
1,53,90,0
1,56,90,40
1,56,90,72
1,56,0,18
1,56,0,0
1,55,90,54
1,65,0,8
1,55,0,82
1,65,85,30
1,65,0,192
1,58,0,196
1,53,0,0
1,39,0,4
1,53,115,264
1,60,115,0
1,65,115,0
1,41,115,0
1,65,0,90
1,41,0,0
1,60,0,0
1,53,0,0
1,65,115,6
1,41,115,0
1,60,115,0
1,53,115,0
1,41,0,90
1,53,0,0
1,65,0,0
1,60,0,0
1,65,115,6
1,60,115,0
1,53,115,0
1,41,115,0
1,65,0,90
1,60,0,0
1,53,0,0
1,41,0,0
1,53,115,6
1,58,115,0
1,41,115,0
1,60,115,0
1,65,115,0
1,53,0,90
1,60,0,0
1,41,0,0
1,58,0,0
1,65,0,0
1,56,115,6
1,60,115,0
1,53,115,0
1,41,115,0
1,65,115,0
1,60,0,178
1,41,0,0
1,65,0,0
1,53,0,0
1,56,0,0
1,39,90,14
1,58,90,0
1,53,90,0
1,65,115,0
1,56,90,40
1,56,90,72
1,56,0,18
1,56,0,0
1,55,90,54
1,65,0,8
1,55,0,82
1,65,85,30
1,65,0,192
1,58,0,196
1,53,0,0
1,39,0,4
1,60,115,264
1,53,115,0
1,65,115,0
1,41,115,0
1,41,0,90
1,53,0,0
1,60,0,0
1,65,0,0
1,53,115,6
1,60,115,0
1,41,115,0
1,65,115,0
1,60,0,90
1,41,0,0
1,65,0,0
1,53,0,0
1,41,115,6
1,60,115,0
1,53,115,0
1,65,115,0
1,60,0,90
1,41,0,0
1,53,0,0
1,65,0,0
1,41,115,6
1,58,115,0
1,65,115,0
1,60,115,0
1,53,115,0
1,41,0,90
1,58,0,0
1,60,0,0
1,65,0,0
1,53,0,0
1,56,115,6
1,53,115,0
1,60,115,0
1,41,115,0
1,65,115,0
1,56,0,178
1,41,0,0
1,65,0,0
1,53,0,0
1,60,0,0
1,58,90,14
1,53,90,0
1,65,115,0
1,39,90,0
1,56,90,40
1,56,90,72
1,56,0,18
1,56,0,0
1,55,90,54
1,65,0,8
1,55,0,82
1,65,85,30
1,65,0,192
1,58,0,196
1,53,0,0
1,39,0,4
1,65,115,264
1,53,115,0
1,41,115,0
1,60,115,0
1,65,0,90
1,41,0,0
1,53,0,0
1,60,0,0
1,41,115,6
1,65,115,0
1,60,115,0
1,53,115,0
1,53,0,90
1,41,0,0
1,60,0,0
1,65,0,0
1,41,115,6
1,53,115,0
1,60,115,0
1,65,115,0
1,53,0,90
1,65,0,0
1,60,0,0
1,41,0,0
1,60,115,6
1,58,115,0
1,53,115,0
1,65,115,0
1,41,115,0
1,65,0,90
1,60,0,0
1,41,0,0
1,58,0,0
1,53,0,0
1,65,115,6
1,56,115,0
1,53,115,0
1,60,115,0
1,41,115,0
1,41,0,178
1,53,0,0
1,65,0,0
1,60,0,0
1,56,0,0
1,58,90,14
1,53,90,0
1,39,90,0
1,65,115,0
1,56,90,40
1,56,90,72
1,56,0,18
1,56,0,0
1,55,90,54
1,65,0,8
1,55,0,82
1,65,85,30
1,65,0,192
1,58,0,196
1,53,0,0
1,39,0,4
1,49,100,184
1,46,100,0
1,55,100,0
1,55,0,266
1,46,0,0
1,49,0,0
1,51,115,22
1,46,115,0
1,46,115,0
1,55,115,0
1,46,0,40
1,55,0,0
1,51,0,0
1,46,0,0
1,46,115,8
1,51,115,0
1,55,115,0
1,51,0,40
1,55,0,0
1,46,0,0
1,51,115,8
1,55,115,0
1,46,115,0
1,46,0,468
1,49,100,4
1,51,0,0
1,55,0,2
1,46,100,6
1,55,100,0
1,49,0,120
1,46,0,8
1,55,0,0
1,55,100,64
1,46,100,8
1,51,100,0
1,46,0,168
1,51,0,4
1,55,0,6
1,51,115,6
1,44,115,0
1,48,115,0
1,51,0,172
1,44,0,0
1,48,0,0
1,55,115,20
1,51,115,0
1,46,115,0
1,46,0,356
1,51,0,4
1,55,0,2
1,48,100,22
1,51,100,0
1,48,0,88
1,51,0,2
1,49,100,6
1,53,100,0
1,49,0,80
1,53,0,10
1,48,100,6
1,51,100,0
1,48,0,88
1,51,0,2
1,43,100,6
1,43,0,90
1,46,100,6
1,46,0,90
1,48,100,6
1,43,100,0
1,43,0,88
1,48,0,2
1,46,100,6
1,46,0,90
1,43,100,6
1,43,0,90
1,46,100,6
1,46,0,186
1,51,115,6
1,48,115,0
1,44,115,0
1,48,0,172
1,51,0,0
1,44,0,0
1,46,115,20
1,55,115,0
1,51,115,0
1,51,0,96
1,51,100,8
1,43,115,24
1,46,0,24
1,43,0,6
1,46,115,2
1,51,0,12
1,55,0,4
1,46,0,14
1,49,100,2
1,49,0,90
1,51,100,6
1,51,0,90
1,53,100,6
1,53,0,90
1,51,100,6
1,51,0,90
1,46,100,102
1,46,0,90
1,48,100,102
1,43,100,0
1,43,0,84
1,48,0,6
1,46,100,6
1,46,0,90
1,43,100,6
1,43,0,90
1,46,100,6
1,46,0,164
1,44,115,28
1,48,115,0
1,51,115,0
1,48,0,172
1,51,0,0
1,44,0,0
1,46,115,20
1,55,115,0
1,51,115,0
1,46,0,460
1,51,0,4
1,55,0,0
1,43,100,16
1,43,0,46
1,46,100,2
1,46,0,46
1,51,100,2
1,51,0,46
1,53,100,2
1,53,0,46
1,51,100,2
1,51,0,176
1,51,100,16
1,51,0,90
1,46,100,6
1,49,100,0
1,55,100,0
1,46,0,180
1,55,0,0
1,49,0,0
1,51,115,12
1,46,115,0
1,55,115,0
1,55,0,272
1,46,0,0
1,51,0,0
1,41,115,288
1,53,115,0
1,60,115,0
1,65,115,0
1,53,0,90
1,65,0,0
1,41,0,0
1,60,0,0
1,41,115,6
1,60,115,0
1,65,115,0
1,53,115,0
1,60,0,90
1,41,0,0
1,53,0,0
1,65,0,0
1,65,115,6
1,60,115,0
1,53,115,0
1,41,115,0
1,41,0,90
1,65,0,0
1,60,0,0
1,53,0,0
1,60,115,6
1,65,115,0
1,41,115,0
1,53,115,0
1,58,115,0
1,65,0,90
1,60,0,0
1,53,0,0
1,41,0,0
1,58,0,0
1,41,115,6
1,65,115,0
1,60,115,0
1,53,115,0
1,56,115,0
1,65,0,178
1,60,0,0
1,53,0,0
1,56,0,0
1,41,0,0
1,39,90,14
1,53,90,0
1,65,115,0
1,58,90,0
1,56,90,40
1,56,90,72
1,56,0,18
1,56,0,0
1,55,90,54
1,65,0,8
1,55,0,82
1,65,85,30
1,65,0,192
1,58,0,196
1,53,0,0
1,39,0,4
1,53,115,264
1,41,115,0
1,60,115,0
1,65,115,0
1,60,0,90
1,41,0,0
1,53,0,0
1,65,0,0
1,53,115,6
1,65,115,0
1,60,115,0
1,41,115,0
1,60,0,90
1,53,0,0
1,65,0,0
1,41,0,0
1,60,115,6
1,41,115,0
1,53,115,0
1,65,115,0
1,60,0,90
1,53,0,0
1,41,0,0
1,65,0,0
1,65,115,6
1,60,115,0
1,58,115,0
1,41,115,0
1,53,115,0
1,60,0,90
1,65,0,0
1,58,0,0
1,41,0,0
1,53,0,0
1,60,115,6
1,53,115,0
1,41,115,0
1,56,115,0
1,65,115,0
1,56,0,178
1,53,0,0
1,41,0,0
1,60,0,0
1,65,0,0
1,53,90,14
1,65,115,0
1,58,90,0
1,39,90,0
1,56,90,40
1,56,90,72
1,56,0,18
1,56,0,0
1,55,90,54
1,65,0,8
1,55,0,82
1,65,85,30
1,65,0,192
1,58,0,196
1,53,0,0
1,39,0,4
1,60,115,264
1,53,115,0
1,65,115,0
1,41,115,0
1,60,0,90
1,65,0,0
1,53,0,0
1,41,0,0
1,53,115,6
1,60,115,0
1,65,115,0
1,41,115,0
1,60,0,90
1,53,0,0
1,41,0,0
1,65,0,0
1,53,115,6
1,41,115,0
1,60,115,0
1,65,115,0
1,65,0,90
1,53,0,0
1,41,0,0
1,60,0,0
1,58,115,6
1,60,115,0
1,65,115,0
1,53,115,0
1,41,115,0
1,53,0,90
1,58,0,0
1,60,0,0
1,65,0,0
1,41,0,0
1,56,115,6
1,53,115,0
1,60,115,0
1,65,115,0
1,41,115,0
1,41,0,178
1,60,0,0
1,65,0,0
1,56,0,0
1,53,0,0
1,65,115,14
1,53,90,0
1,58,90,0
1,39,90,0
1,56,90,40
1,56,90,72
1,56,0,18
1,56,0,0
1,55,90,54
1,65,0,8
1,55,0,82
1,65,85,30
1,65,0,192
1,53,0,196
1,58,0,0
1,39,0,4
1,53,115,264
1,60,115,0
1,65,115,0
1,41,115,0
1,65,0,90
1,60,0,0
1,41,0,0
1,53,0,0
1,41,115,6
1,65,115,0
1,53,115,0
1,60,115,0
1,41,0,90
1,53,0,0
1,65,0,0
1,60,0,0
1,41,115,6
1,60,115,0
1,53,115,0
1,65,115,0
1,65,0,90
1,60,0,0
1,53,0,0
1,41,0,0
1,65,115,6
1,60,115,0
1,53,115,0
1,41,115,0
1,58,115,0
1,65,0,90
1,41,0,0
1,53,0,0
1,60,0,0
1,58,0,0
1,53,115,6
1,60,115,0
1,65,115,0
1,56,115,0
1,41,115,0
1,65,0,178
1,41,0,0
1,53,0,0
1,60,0,0
1,56,0,0
1,65,115,14
1,53,90,0
1,39,90,0
1,58,90,0
1,56,90,40
1,56,90,72
1,56,0,18
1,56,0,0
1,55,90,54
1,65,0,8
1,55,0,82
1,65,85,30
1,65,0,192
1,58,0,196
1,53,0,0
1,39,0,4
1,65,115,264
1,53,115,0
1,60,115,0
1,41,115,0
1,60,0,90
1,41,0,0
1,53,0,0
1,65,0,0
1,41,115,6
1,65,115,0
1,53,115,0
1,60,115,0
1,65,0,90
1,60,0,0
1,41,0,0
1,53,0,0
1,60,115,6
1,53,115,0
1,65,115,0
1,41,115,0
1,65,0,90
1,60,0,0
1,53,0,0
1,41,0,0
1,53,115,6
1,65,115,0
1,41,115,0
1,58,115,0
1,60,115,0
1,60,0,90
1,58,0,0
1,41,0,0
1,53,0,0
1,65,0,0
1,60,115,6
1,41,115,0
1,56,115,0
1,53,115,0
1,65,115,0
1,60,0,178
1,41,0,0
1,65,0,0
1,53,0,0
1,56,0,0
1,53,90,14
1,39,90,0
1,65,115,0
1,58,90,0
1,56,90,40
1,56,90,72
1,56,0,18
1,56,0,0
1,55,90,54
1,65,0,8
1,55,0,82
1,65,85,30
1,65,0,192
1,58,0,196
1,53,0,0
1,39,0,4
1,41,115,264
1,53,115,0
1,60,115,0
1,65,115,0
1,65,0,90
1,60,0,0
1,41,0,0
1,53,0,0
1,53,115,6
1,41,115,0
1,65,115,0
1,60,115,0
1,53,0,90
1,60,0,0
1,65,0,0
1,41,0,0
1,60,115,6
1,53,115,0
1,41,115,0
1,65,115,0
1,53,0,90
1,60,0,0
1,41,0,0
1,65,0,0
1,41,115,6
1,53,115,0
1,58,115,0
1,60,115,0
1,65,115,0
1,65,0,90
1,60,0,0
1,41,0,0
1,58,0,0
1,53,0,0
1,53,115,6
1,60,115,0
1,41,115,0
1,56,115,0
1,65,115,0
1,41,0,178
1,60,0,0
1,53,0,0
1,56,0,0
1,65,0,0
1,65,115,14
1,39,90,0
1,53,90,0
1,58,90,0
1,56,90,40
1,56,90,72
1,56,0,18
1,56,0,0
1,55,90,54
1,65,0,8
1,55,0,82
1,65,85,30
1,65,0,192
1,58,0,196
