track,note,velocity,time
1,42,100,0
1,42,0,60
1,42,100,0
1,42,0,30
1,42,100,0
1,42,0,30
1,54,100,0
1,54,0,30
1,42,100,0
1,42,0,30
1,42,100,30
1,42,0,30
1,42,100,0
1,42,0,60
1,42,100,0
1,42,0,30
1,42,100,0
1,42,0,30
1,54,100,0
1,54,0,30
1,42,100,0
1,42,0,30
1,42,100,30
1,42,0,30
1,42,100,0
1,42,0,60
1,42,100,0
1,42,0,30
1,42,100,0
1,42,0,30
1,54,100,0
1,54,0,30
1,42,100,0
1,42,0,30
1,42,100,30
1,42,0,30
1,42,100,0
1,42,0,60
1,42,100,0
1,42,0,30
1,42,100,0
1,42,0,30
1,54,100,0
1,54,0,30
1,42,100,0
1,42,0,30
1,42,100,30
1,42,0,30
1,42,100,0
1,42,0,60
1,42,100,0
1,42,0,30
1,42,100,0
1,42,0,30
1,54,100,0
1,54,0,30
1,42,100,0
1,42,0,30
1,42,100,30
1,42,0,30
1,42,100,0
1,42,0,60
1,42,100,0
1,42,0,30
1,42,100,0
1,42,0,30
1,54,100,0
1,54,0,30
1,42,100,0
1,42,0,30
1,42,100,30
1,42,0,30
1,42,100,0
1,42,0,60
1,42,100,0
1,42,0,30
1,42,100,0
1,42,0,30
1,54,100,0
1,54,0,30
1,42,100,0
1,42,0,30
1,42,100,30
1,42,0,30
1,42,100,0
1,42,0,60
1,42,100,0
1,42,0,30
1,42,100,0
1,42,0,30
1,54,100,0
1,54,0,30
1,42,100,0
1,42,0,30
1,42,100,30
1,42,0,30
1,42,100,0
1,42,0,60
1,42,100,0
1,42,0,30
1,42,100,0
1,42,0,30
1,54,100,0
1,54,0,30
1,42,100,0
1,42,0,30
1,42,100,30
1,42,0,30
1,42,100,0
1,42,0,60
1,42,100,0
1,42,0,30
1,42,100,0
1,42,0,30
1,54,100,0
1,54,0,30
1,42,100,0
1,42,0,30
1,42,100,30
1,42,0,30
1,42,100,0
1,42,0,60
1,42,100,0
1,42,0,30
1,42,100,0
1,42,0,30
1,54,100,0
1,54,0,30
1,42,100,0
1,42,0,30
1,42,100,30
1,42,0,30
1,42,100,0
1,42,0,60
1,42,100,0
1,42,0,30
1,42,100,0
1,42,0,30
1,54,100,0
1,54,0,30
1,42,100,0
1,42,0,30
1,42,100,30
1,42,0,30
1,42,100,0
1,42,0,60
1,42,100,0
1,42,0,30
1,42,100,0
1,42,0,30
1,54,100,0
1,54,0,30
1,42,100,0
1,42,0,30
1,42,100,30
1,42,0,30
1,42,100,0
1,42,0,60
1,42,100,0
1,42,0,30
1,42,100,0
1,42,0,30
1,54,100,0
1,54,0,30
1,42,100,0
1,42,0,30
1,42,100,30
1,42,0,30
1,42,100,0
1,42,0,60
1,42,100,0
1,42,0,30
1,42,100,0
1,42,0,30
1,54,100,0
1,54,0,30
1,42,100,0
1,42,0,30
1,42,100,30
1,42,0,30
1,42,100,0
1,42,0,60
1,42,100,0
1,42,0,30
1,42,100,0
1,42,0,30
1,45,100,0
1,57,100,0
1,52,100,0
1,52,0,120
1,57,0,0
1,45,0,0
1,40,100,0
1,47,100,0
1,52,100,0
1,56,100,0
1,59,100,0
1,64,100,0
1,64,0,720
1,47,0,0
1,52,0,0
1,40,0,0
1,59,0,0
1,56,0,0
1,40,100,0
1,47,100,0
1,52,100,0
1,56,100,0
1,59,100,0
1,64,100,0
1,56,0,120
1,52,0,0
1,40,0,0
1,47,0,0
1,61,100,0
1,57,100,0
1,45,100,0
1,52,100,0
1,52,0,120
1,64,0,0
1,61,0,0
1,59,0,0
1,45,0,0
1,57,0,0
1,42,100,0
1,42,0,60
1,42,100,0
1,42,0,30
1,42,100,0
1,42,0,30
1,54,100,0
1,54,0,30
1,42,100,0
1,42,0,30
1,42,100,30
1,42,0,30
1,42,100,0
1,42,0,60
1,42,100,0
1,42,0,30
1,42,100,0
1,42,0,30
1,54,100,0
1,54,0,30
1,42,100,0
1,42,0,30
1,42,100,30
1,42,0,30
1,42,100,0
1,42,0,60
1,42,100,0
1,42,0,30
1,42,100,0
1,42,0,30
1,54,100,0
1,54,0,30
1,42,100,0
1,42,0,30
1,42,100,30
1,42,0,30
1,42,100,0
1,42,0,60
1,42,100,0
1,42,0,30
1,42,100,0
1,42,0,30
1,54,100,0
1,54,0,30
1,42,100,0
1,42,0,30
1,42,100,30
1,42,0,30
1,42,100,0
1,42,0,60
1,42,100,0
1,42,0,30
1,42,100,0
1,42,0,30
1,54,100,0
1,54,0,30
1,42,100,0
1,42,0,30
1,42,100,30
1,42,0,30
1,42,100,0
1,42,0,60
1,42,100,0
1,42,0,30
1,42,100,0
1,42,0,30
1,54,100,0
1,54,0,30
1,42,100,0
1,42,0,30
1,42,100,30
1,42,0,30
1,42,100,0
1,42,0,60
1,42,100,0
1,42,0,30
1,42,100,0
1,42,0,30
1,54,100,0
1,54,0,30
1,42,100,0
1,42,0,30
1,42,100,60
1,42,0,60
1,42,100,0
1,42,0,30
1,42,100,0
1,42,0,30
1,54,100,0
1,54,0,30
1,42,100,0
1,42,0,30
1,42,100,60
1,42,0,60
1,42,100,0
1,42,0,30
1,42,100,0
1,42,0,30
1,54,100,0
1,54,0,30
1,42,100,0
1,42,0,30
1,42,100,60
1,42,0,60
1,42,100,0
1,42,0,30
1,42,100,0
1,42,0,30
1,54,100,0
1,54,0,30
1,42,100,0
1,42,0,30
1,42,100,60
1,42,0,60
1,42,100,0
1,42,0,30
1,42,100,0
1,42,0,30
1,54,100,0
1,54,0,30
1,42,100,0
1,42,0,30
1,42,100,30
1,42,0,30
1,42,100,0
1,42,0,60
1,42,100,0
1,42,0,30
1,42,100,0
1,42,0,30
1,45,100,0
1,57,100,0
1,52,100,0
1,52,0,120
1,57,0,0
1,45,0,0
1,40,100,0
1,47,100,0
1,52,100,0
1,56,100,0
1,59,100,0
1,64,100,0
1,64,0,720
1,47,0,0
1,52,0,0
1,40,0,0
1,59,0,0
1,56,0,0
1,40,100,0
1,47,100,0
1,52,100,0
1,56,100,0
1,59,100,0
1,64,100,0
1,56,0,120
1,52,0,0
1,40,0,0
1,47,0,0
1,61,100,0
1,57,100,0
1,45,100,0
1,52,100,0
1,52,0,120
1,64,0,0
1,61,0,0
1,59,0,0
1,45,0,0
1,57,0,0
1,42,100,0
1,42,0,60
1,42,100,0
1,42,0,30
1,42,100,0
1,42,0,30
1,54,100,0
1,54,0,30
1,42,100,0
1,42,0,30
1,42,100,30
1,42,0,30
1,42,100,0
1,42,0,60
1,42,100,0
1,42,0,30
1,42,100,0
1,42,0,30
1,54,100,0
1,54,0,30
1,42,100,0
1,42,0,30
1,42,100,30
1,42,0,30
1,42,100,0
1,42,0,60
1,42,100,0
1,42,0,30
1,42,100,0
1,42,0,30
1,54,100,0
1,54,0,30
1,42,100,0
1,42,0,30
1,42,100,30
1,42,0,30
1,42,100,0
1,42,0,60
1,42,100,0
1,42,0,30
1,42,100,0
1,42,0,30
1,54,100,0
1,54,0,30
1,42,100,0
1,42,0,30
1,42,100,30
1,42,0,30
1,61,100,0
1,57,100,0
1,52,100,0
1,45,100,0
1,45,0,90
1,61,0,0
1,57,0,0
1,52,0,0
1,45,100,0
1,52,100,0
1,57,100,0
1,61,100,0
1,61,0,15
1,45,0,0
1,52,0,0
1,57,0,0
1,61,100,15
1,57,100,0
1,52,100,0
1,45,100,0
1,45,0,30
1,61,0,0
1,57,0,0
1,52,0,0
1,61,100,0
1,57,100,0
1,52,100,0
1,45,100,0
1,45,0,90
1,61,0,0
1,57,0,0
1,52,0,0
1,45,100,0
1,52,100,0
1,57,100,0
1,61,100,0
1,61,0,90
1,45,0,0
1,52,0,0
1,57,0,0
1,45,100,0
1,52,100,0
1,57,100,0
1,61,100,0
1,61,0,15
1,45,0,0
1,52,0,0
1,57,0,0
1,45,100,15
1,52,100,0
1,57,100,0
1,61,100,0
1,61,0,30
1,45,0,0
1,52,0,0
1,57,0,0
1,61,100,0
1,57,100,0
1,52,100,0
1,45,100,0
1,45,0,90
1,61,0,0
1,57,0,0
1,52,0,0
1,47,100,0
1,54,100,0
1,59,100,0
1,63,100,0
1,63,0,60
1,47,0,0
1,54,0,0
1,59,0,0
1,63,100,0
1,59,100,0
1,54,100,0
1,47,100,0
1,47,0,30
1,63,0,0
1,59,0,0
1,54,0,0
1,54,100,0
1,59,100,0
1,63,100,0
1,47,100,0
1,47,0,30
1,54,0,0
1,59,0,0
1,63,0,0
1,63,100,0
1,59,100,0
1,54,100,0
1,47,100,0
1,47,0,30
1,63,0,0
1,59,0,0
1,54,0,0
1,54,100,0
1,59,100,0
1,63,100,0
1,47,100,0
1,47,0,60
1,54,0,0
1,59,0,0
1,63,0,0
1,63,100,0
1,59,100,0
1,54,100,0
1,47,100,0
1,47,0,15
1,63,0,0
1,59,0,0
1,54,0,0
1,63,100,15
1,59,100,0
1,54,100,0
1,47,100,0
1,47,0,60
1,63,0,0
1,59,0,0
1,54,0,0
1,63,100,0
1,59,100,0
1,54,100,0
1,47,100,0
1,47,0,30
1,63,0,0
1,59,0,0
1,54,0,0
1,54,100,0
1,59,100,0
1,63,100,0
1,47,100,0
1,47,0,30
1,54,0,0
1,59,0,0
1,63,0,0
1,63,100,0
1,59,100,0
1,54,100,0
1,47,100,0
1,47,0,30
1,63,0,0
1,59,0,0
1,54,0,0
1,63,100,0
1,59,100,0
1,54,100,0
1,47,100,0
1,47,0,30
1,63,0,0
1,59,0,0
1,54,0,0
1,63,100,30
1,54,100,0
1,59,100,0
1,47,100,0
1,47,0,30
1,63,0,0
1,54,0,0
1,59,0,0
1,48,100,0
1,55,100,0
1,64,100,0
1,60,100,0
1,60,0,120
1,48,0,0
1,55,0,0
1,64,0,0
1,48,100,0
1,55,100,0
1,60,100,0
1,64,100,0
1,64,0,60
1,48,0,0
1,55,0,0
1,60,0,0
1,48,100,0
1,55,100,0
1,60,100,0
1,64,100,0
1,64,0,30
1,48,0,0
1,55,0,0
1,60,0,0
1,48,100,0
1,55,100,0
1,60,100,0
1,64,100,0
1,64,0,60
1,48,0,0
1,55,0,0
1,60,0,0
1,48,100,0
1,55,100,0
1,60,100,0
1,64,100,0
1,64,0,30
1,48,0,0
1,55,0,0
1,60,0,0
1,48,100,0
1,55,100,0
1,60,100,0
1,64,100,0
1,64,0,60
1,48,0,0
1,55,0,0
1,60,0,0
1,48,100,0
1,55,100,0
1,60,100,0
1,64,100,0
1,64,0,60
1,48,0,0
1,55,0,0
1,60,0,0
1,48,100,0
1,55,100,0
1,60,100,0
1,64,100,0
1,64,0,60
1,48,0,0
1,55,0,0
1,60,0,0
1,64,100,0
1,48,100,0
1,55,100,0
1,60,100,0
1,60,0,30
1,64,0,0
1,48,0,0
1,55,0,0
1,64,100,0
1,48,100,0
1,55,100,0
1,60,100,0
1,60,0,30
1,64,0,0
1,48,0,0
1,55,0,0
1,64,100,0
1,60,100,0
1,55,100,0
1,48,100,0
1,48,0,30
1,64,0,0
1,60,0,0
1,55,0,0
1,64,100,0
1,55,100,0
1,60,100,0
1,48,100,0
1,48,0,30
1,64,0,0
1,55,0,0
1,60,0,0
1,64,100,0
1,60,100,0
1,55,100,0
1,48,100,0
1,48,0,30
1,64,0,0
1,60,0,0
1,55,0,0
1,64,100,0
1,55,100,0
1,60,100,0
1,48,100,0
1,48,0,30
1,64,0,0
1,55,0,0
1,60,0,0
1,64,100,0
1,55,100,0
1,60,100,0
1,48,100,0
1,48,0,30
1,64,0,0
1,55,0,0
1,60,0,0
1,64,100,0
1,55,100,0
1,60,100,0
1,48,100,0
1,48,0,30
1,64,0,0
1,55,0,0
1,60,0,0
1,64,100,0
1,48,100,0
1,55,100,0
1,60,100,0
1,60,0,60
1,64,0,0
1,48,0,0
1,55,0,0
1,42,100,120
1,42,0,60
1,42,100,0
1,42,0,60
1,42,100,0
1,42,0,30
1,42,100,0
1,42,0,30
1,54,100,0
1,54,0,30
1,42,100,0
1,42,0,30
1,42,100,30
1,42,0,30
1,42,100,0
1,42,0,60
1,42,100,0
1,42,0,30
1,42,100,0
1,42,0,30
1,54,100,0
1,54,0,30
1,42,100,0
1,42,0,30
1,42,100,30
1,42,0,30
1,42,100,0
1,42,0,60
1,42,100,0
1,42,0,30
1,42,100,0
1,42,0,30
1,54,100,0
1,54,0,30
1,42,100,0
1,42,0,30
1,42,100,30
1,42,0,30
1,42,100,0
1,42,0,60
1,42,100,0
1,42,0,30
1,42,100,0
1,42,0,30
1,54,100,0
1,54,0,30
1,42,100,0
1,42,0,30
1,42,100,30
1,42,0,30
1,42,100,0
1,42,0,60
1,42,100,0
1,42,0,30
1,42,100,0
1,42,0,30
1,54,100,0
1,54,0,30
1,42,100,0
1,42,0,30
1,42,100,30
1,42,0,30
1,42,100,0
1,42,0,60
1,42,100,0
1,42,0,30
1,42,100,0
1,42,0,30
1,54,100,0
1,54,0,30
1,42,100,0
1,42,0,30
1,42,100,30
1,42,0,30
1,42,100,0
1,42,0,60
1,42,100,0
1,42,0,30
1,42,100,0
1,42,0,30
1,54,100,0
1,54,0,30
1,42,100,0
1,42,0,30
1,42,100,30
1,42,0,30
1,42,100,0
1,42,0,60
1,42,100,0
1,42,0,30
1,42,100,0
1,42,0,30
1,54,100,0
1,54,0,30
1,42,100,0
1,42,0,30
1,42,100,30
1,42,0,30
1,42,100,0
1,42,0,60
1,42,100,0
1,42,0,30
1,42,100,0
1,42,0,30
1,54,100,0
1,54,0,30
1,42,100,0
1,42,0,30
1,42,100,30
1,42,0,30
1,42,100,0
1,42,0,60
1,42,100,0
1,42,0,30
1,42,100,0
1,42,0,30
1,54,100,0
1,54,0,30
1,42,100,0
1,42,0,30
1,42,100,30
1,42,0,30
1,42,100,0
1,42,0,60
1,42,100,0
1,42,0,30
1,42,100,0
1,42,0,30
1,54,100,0
1,54,0,30
1,42,100,0
1,42,0,30
1,42,100,30
1,42,0,30
1,42,100,0
1,42,0,60
1,42,100,0
1,42,0,30
1,42,100,0
1,42,0,30
1,45,100,0
1,57,100,0
1,52,100,0
1,52,0,120
1,57,0,0
1,45,0,0
1,40,100,0
1,47,100,0
1,52,100,0
1,56,100,0
1,59,100,0
1,64,100,0
1,64,0,720
1,47,0,0
1,52,0,0
1,40,0,0
1,59,0,0
1,56,0,0
1,40,100,0
1,47,100,0
1,52,100,0
1,56,100,0
1,59,100,0
1,64,100,0
1,56,0,120
1,52,0,0
1,40,0,0
1,47,0,0
1,61,100,0
1,57,100,0
1,45,100,0
1,52,100,0
1,52,0,120
1,64,0,0
1,61,0,0
1,59,0,0
1,45,0,0
1,57,0,0
1,42,100,0
1,42,0,60
1,42,100,0
1,42,0,30
1,42,100,0
1,42,0,30
1,54,100,0
1,54,0,30
1,42,100,0
1,42,0,30
1,42,100,30
1,42,0,30
1,42,100,0
1,42,0,60
1,42,100,0
1,42,0,30
1,42,100,0
1,42,0,30
1,54,100,0
1,54,0,30
1,42,100,0
1,42,0,30
1,42,100,30
1,42,0,30
1,42,100,0
1,42,0,60
1,42,100,0
1,42,0,30
1,42,100,0
1,42,0,30
1,54,100,0
1,54,0,30
1,42,100,0
1,42,0,30
1,42,100,30
1,42,0,30
1,42,100,0
1,42,0,60
1,42,100,0
1,42,0,30
1,42,100,0
1,42,0,30
1,54,100,0
1,54,0,30
1,42,100,0
1,42,0,30
1,42,100,30
1,42,0,30
1,42,100,0
1,42,0,60
1,42,100,0
1,42,0,30
1,42,100,0
1,42,0,30
1,54,100,0
1,54,0,30
1,42,100,0
1,42,0,30
1,42,100,30
1,42,0,30
1,42,100,0
1,42,0,60
1,42,100,0
1,42,0,30
1,42,100,0
1,42,0,30
1,54,100,0
1,54,0,30
1,42,100,0
1,42,0,30
1,42,100,30
1,42,0,30
1,42,100,0
1,42,0,60
1,42,100,0
1,42,0,30
1,42,100,0
1,42,0,30
1,54,100,0
1,54,0,30
1,42,100,0
1,42,0,30
1,42,100,60
1,42,0,60
1,42,100,0
1,42,0,30
