track,note,velocity,time
1,76,117,1818
1,71,117,0
1,76,125,58
1,71,125,0
1,76,125,49
1,71,114,0
1,76,127,49
1,71,120,0
1,74,113,587
1,78,81,17
1,74,82,4
1,78,80,3
1,74,71,7
1,78,64,5
1,74,93,2
1,78,84,3
1,74,85,3
1,78,67,4
1,74,84,4
1,78,58,4
1,74,78,4
1,78,46,4
1,74,87,4
1,78,68,4
1,74,89,4
1,78,66,5
1,74,84,4
1,78,61,3
1,74,84,4
1,78,64,4
1,74,91,5
1,78,45,6
1,74,70,3
1,78,57,2
1,74,87,4
1,78,54,4
1,74,84,4
1,78,41,5
1,74,87,4
1,78,49,4
1,74,85,4
1,78,53,4
1,74,87,7
1,78,54,4
1,74,85,2
1,78,64,4
1,74,82,3
1,78,70,3
1,74,77,5
1,78,64,5
1,74,75,4
1,78,69,3
1,76,78,3
1,80,78,3
1,74,113,541
1,78,81,17
1,74,82,4
1,78,80,3
1,74,71,7
1,78,64,5
1,74,93,2
1,78,84,3
1,74,85,3
1,78,67,4
1,74,84,4
1,78,58,4
1,74,78,4
1,78,46,4
1,74,87,4
1,78,68,4
1,74,89,4
1,78,66,5
1,74,84,4
1,78,61,3
1,74,84,4
1,78,64,4
1,74,91,5
1,78,45,6
1,74,70,3
1,78,57,2
1,74,87,4
1,78,54,4
1,74,84,4
1,78,41,5
1,74,87,4
1,78,49,4
1,74,85,4
1,78,53,4
1,74,87,7
1,78,54,4
1,74,85,2
1,78,64,4
1,74,82,3
1,78,70,3
1,74,77,5
1,78,64,5
1,74,75,4
1,78,69,3
1,76,78,3
1,80,78,3
1,52,97,510
1,52,104,1
1,50,104,64
1,47,98,0
1,50,112,95
1,40,92,78
1,52,108,80
1,50,108,75
1,47,95,91
1,50,102,52
1,40,91,29
1,52,110,85
1,50,102,54
1,47,94,28
1,50,106,93
1,40,92,79
1,52,102,85
1,50,100,82
1,47,102,92
1,50,106,56
1,40,97,29
1,52,104,90
1,50,100,49
1,47,95,29
1,50,104,90
1,40,90,81
1,52,106,84
1,50,104,80
1,47,100,93
1,50,100,1
1,40,92,33
1,52,102,89
1,50,102,57
1,47,104,31
1,50,108,87
1,40,94,85
1,52,108,91
1,50,108,84
1,47,98,94
1,50,106,55
1,40,90,25
1,52,104,85
1,50,97,34
1,47,102,29
1,50,108,89
1,40,95,80
1,52,102,88
1,50,108,75
1,47,98,91
1,50,102,4
1,40,95,32
1,52,102,88
1,50,104,45
1,47,95,0
1,50,112,95
1,40,94,93
1,52,104,89
1,50,108,85
1,47,90,92
1,50,102,4
1,40,86,32
1,52,108,88
1,50,100,40
1,47,92,1
1,50,112,96
1,40,95,86
1,52,110,89
1,50,110,85
1,47,88,92
1,50,104,4
1,40,94,32
1,52,104,84
1,50,100,47
1,47,104,29
1,50,110,93
1,40,97,81
1,52,110,93
1,50,106,85
1,47,92,95
1,50,112,57
1,52,104,83
1,50,104,64
1,47,98,0
1,50,112,95
1,40,92,78
1,52,108,80
1,50,108,75
1,47,95,91
1,50,102,52
1,40,91,29
1,52,110,85
1,50,102,54
1,47,94,28
1,50,106,93
1,40,92,79
1,52,102,85
1,50,100,82
1,47,102,92
1,50,106,56
1,40,97,29
1,52,104,90
1,50,100,49
1,47,95,29
1,50,104,90
1,40,90,81
1,52,106,84
1,50,104,80
1,47,100,93
1,50,100,1
1,40,92,33
1,52,102,89
1,50,102,57
1,47,104,31
1,50,108,87
1,40,94,85
1,52,108,91
1,50,108,84
1,47,98,94
1,50,106,55
1,40,90,25
1,52,104,85
1,50,97,34
1,47,102,29
1,50,108,89
1,40,95,80
1,52,102,88
1,50,108,75
1,47,98,91
1,50,102,4
1,40,95,32
1,52,102,88
1,50,104,45
1,47,95,0
1,50,112,95
1,62,87,3
1,57,94,0
1,50,100,0
1,62,91,15
1,50,98,0
1,57,104,0
1,57,122,36
1,62,106,0
1,50,125,0
1,57,90,24
1,50,72,1
1,52,73,0
1,64,59,0
1,57,94,16
1,52,97,0
1,64,81,1
1,52,122,41
1,64,114,0
1,57,127,0
1,40,117,0
1,52,108,0
1,50,100,64
1,47,92,1
1,50,112,96
1,40,95,86
1,52,110,89
1,50,110,85
1,47,88,92
1,50,104,4
1,40,94,32
1,52,104,84
1,50,100,47
1,47,104,29
1,50,110,93
1,40,97,81
1,52,110,93
1,50,106,85
1,47,92,95
1,50,112,57
1,52,104,83
1,50,104,64
1,47,98,0
1,50,112,95
1,40,92,78
1,52,108,80
1,50,108,75
1,47,95,91
1,50,102,52
1,40,91,29
1,52,110,85
1,50,102,54
1,47,94,28
1,50,106,93
1,40,92,79
1,52,102,85
1,50,100,82
1,47,102,92
1,50,106,56
1,40,97,29
1,52,104,90
1,50,100,49
1,47,95,29
1,50,104,90
1,40,90,81
1,52,106,84
1,50,104,80
1,47,100,93
1,50,100,1
1,40,92,33
1,52,102,89
1,50,102,57
1,47,104,31
1,50,108,87
1,40,94,85
1,52,108,91
1,50,108,84
1,47,98,94
1,50,106,55
1,40,90,25
1,52,104,85
1,50,97,34
1,47,102,29
1,50,108,89
1,40,95,80
1,52,102,88
1,50,108,75
1,47,98,91
1,50,102,4
1,40,95,32
1,52,102,88
1,50,104,45
1,47,95,0
1,50,112,95
1,40,94,93
1,52,104,89
1,50,108,85
1,47,90,92
1,50,102,4
1,40,86,32
1,52,108,88
1,50,100,40
1,47,92,1
1,50,112,96
1,40,95,86
1,52,110,89
1,50,110,85
1,47,88,92
1,50,104,4
1,40,94,32
1,52,104,84
1,50,100,47
1,47,104,29
1,50,110,93
1,40,97,81
1,52,110,93
1,50,106,85
1,47,92,95
1,50,112,57
1,52,104,83
1,50,104,64
1,47,98,0
1,50,112,95
1,40,92,78
1,52,108,80
1,50,108,75
1,47,95,91
1,50,102,52
1,40,91,29
1,52,110,85
1,50,102,54
1,47,94,28
1,50,106,93
1,40,92,79
1,52,102,85
1,50,100,82
1,47,102,92
1,50,106,56
1,40,97,29
1,52,104,90
1,50,100,49
1,47,95,29
1,50,104,90
1,40,90,81
1,52,108,90
1,57,102,82
1,62,98,0
1,57,86,13
1,62,100,2
1,57,88,25
1,62,98,0
1,59,108,28
1,64,110,0
1,62,87,0
1,57,80,0
1,64,80,3
1,59,76,0
1,62,94,2
1,57,80,0
1,64,83,3
1,59,80,0
1,62,85,5
1,57,70,0
1,64,77,2
1,59,78,0
1,62,84,2
1,57,74,0
1,59,81,2
1,64,72,0
1,57,79,4
1,62,90,0
1,64,76,2
1,59,81,1
1,62,81,0
1,57,73,0
1,59,83,2
1,64,79,0
1,57,81,0
1,62,87,2
1,64,80,2
1,59,84,3
1,62,79,0
1,57,73,0
1,59,81,4
1,64,76,0
1,57,71,1
1,62,80,0
1,59,80,6
1,64,75,0
1,59,80,2
1,64,78,0
1,59,58,16
1,64,70,4
1,64,46,3
1,59,53,8
1,59,72,14
1,64,80,0
1,59,55,15
1,64,59,2
1,59,34,6
1,64,65,3
1,64,80,16
1,59,68,2
1,64,68,20
1,59,59,2
1,64,54,9
1,59,51,1
1,59,47,10
1,64,58,2
1,62,86,14
1,57,73,0
1,62,92,21
1,57,80,0
1,59,75,13
1,64,86,1
1,59,62,32
1,64,60,0
1,64,67,11
1,59,65,2
1,59,64,9
1,64,68,4
1,59,73,18
1,64,80,0
1,59,60,21
1,64,63,1
1,59,62,8
1,64,78,4
1,59,65,10
1,64,66,1
1,59,72,10
1,64,73,1
1,59,54,28
1,64,60,0
1,59,61,15
1,64,53,1
1,59,61,12
1,64,59,3
1,57,76,18
1,62,90,0
1,64,79,21
1,59,77,0
1,62,86,22
1,57,84,3
1,64,75,20
1,59,78,0
1,59,66,22
1,64,58,3
1,64,73,13
1,59,66,0
1,64,70,12
1,59,70,0
1,59,71,20
1,64,77,0
1,64,60,26
1,59,64,4
1,64,68,8
1,59,63,2
1,59,64,12
1,64,70,2
1,59,76,21
1,64,80,0
1,64,65,31
1,59,61,0
1,64,57,9
1,59,58,3
1,59,61,12
1,64,67,2
1,62,77,19
1,57,68,0
1,64,73,19
1,59,72,0
1,62,73,22
1,57,80,0
1,64,73,22
1,59,75,0
1,59,62,25
1,64,59,0
1,64,71,11
1,59,68,0
1,59,65,8
1,64,65,3
1,59,72,16
1,64,79,2
1,59,64,28
1,64,61,0
1,59,63,13
1,64,71,2
1,64,73,14
1,59,64,2
1,64,75,19
1,59,70,0
1,64,65,31
1,59,62,0
1,59,63,19
1,64,66,0
1,59,63,6
1,64,67,2
1,57,68,2
1,62,78,0
1,64,73,26
1,59,80,0
1,57,70,22
1,62,71,2
1,64,78,26
1,59,80,0
1,59,63,27
1,64,63,0
1,64,68,14
1,59,65,0
1,59,65,14
1,64,70,0
1,59,72,17
1,64,75,2
1,59,60,25
1,64,65,0
1,59,62,15
1,64,66,0
1,59,69,16
1,64,69,0
1,59,68,15
1,64,80,1
1,59,57,23
1,64,61,0
1,64,71,14
1,59,64,2
1,64,68,12
1,59,65,0
1,62,86,17
1,57,70,0
1,64,70,19
1,59,73,2
1,62,81,26
1,57,80,0
1,64,75,4
1,59,73,1
1,59,56,11
1,64,68,2
1,59,54,11
1,64,64,0
1,59,68,18
1,64,71,1
1,59,59,5
1,64,41,0
1,64,69,7
1,59,56,0
1,59,70,12
1,64,78,0
1,59,53,8
1,59,54,10
1,59,68,13
1,64,78,2
1,64,70,8
1,59,65,0
1,59,59,12
1,64,68,1
1,64,75,16
1,59,70,0
1,64,70,11
1,59,61,0
1,59,62,8
1,64,57,2
1,59,73,17
1,64,80,0
1,59,65,10
1,59,65,11
1,64,70,2
1,59,79,18
1,64,81,0
1,59,66,9
1,64,73,0
1,59,73,10
1,64,67,2
1,64,86,14
1,59,80,0
1,64,73,8
1,59,71,1
1,59,66,8
1,64,69,1
1,64,86,21
1,59,83,0
1,64,70,8
1,59,66,0
1,59,64,10
1,64,72,0
1,59,73,14
1,64,70,0
1,59,68,11
1,59,69,9
1,64,65,4
1,59,80,14
1,64,87,2
1,64,72,8
1,59,70,0
1,64,74,11
1,59,69,0
1,64,85,16
1,59,81,0
1,64,73,10
1,59,70,1
1,64,74,12
1,59,72,0
1,59,75,14
1,64,85,1
1,64,79,12
1,59,68,0
1,59,73,12
1,64,78,0
1,59,81,16
1,64,87,0
1,64,84,10
1,59,84,0
1,59,70,13
1,64,83,0
1,64,86,14
1,59,81,0
1,59,70,7
1,64,84,2
1,59,80,16
1,64,85,0
1,59,90,18
1,64,92,0
1,59,80,17
1,64,91,0
1,59,84,13
1,64,77,3
1,59,98,17
1,64,104,0
1,52,122,5381
1,52,108,3
1,52,104,11
1,55,125,3
1,57,94,2
1,57,86,13
1,59,110,12
1,52,104,14
1,52,122,70
1,52,98,3
1,52,91,11
1,55,117,6
1,57,92,25
1,57,78,14
1,59,112,15
1,52,104,17
1,52,110,75
1,52,98,8
1,52,98,16
1,55,94,10
1,57,85,24
1,57,76,14
1,59,114,16
1,52,110,18
1,52,122,73
1,52,100,8
1,52,100,16
1,55,102,10
1,57,81,24
1,57,72,16
1,59,108,15
1,52,114,21
1,52,120,37
1,52,98,3
1,52,104,13
1,55,102,7
1,57,87,1
1,57,72,17
1,59,102,13
1,52,108,20
1,52,110,45
1,52,87,6
1,52,100,16
1,55,97,9
1,57,92,25
1,57,76,19
1,59,104,14
1,52,104,21
1,52,114,33
1,52,94,5
1,52,106,14
1,55,106,11
1,57,90,0
1,57,80,12
1,59,108,17
1,52,112,22
1,52,114,90
1,52,94,1
1,52,98,16
1,55,106,11
1,57,88,27
1,57,80,11
1,59,110,15
1,52,106,21
1,52,106,95
1,52,91,3
1,52,98,16
1,55,104,12
1,57,98,25
1,57,72,11
1,59,110,14
1,52,108,19
1,52,114,73
1,52,87,1
1,52,95,17
1,55,108,13
1,57,90,26
1,57,73,10
1,59,110,15
1,52,110,18
1,52,112,41
1,52,92,3
1,52,102,15
1,55,104,11
1,57,88,25
1,57,80,12
1,59,104,16
1,52,104,20
1,52,114,39
1,52,83,1
1,52,94,16
1,55,117,7
1,57,102,0
1,57,86,14
1,59,87,13
1,57,85,0
1,52,104,23
1,59,94,67
1,66,99,1
1,59,79,17
1,66,104,0
1,59,90,16
1,66,101,0
1,57,92,28
1,64,102,0
1,55,102,29
1,62,97,0
1,52,95,36
1,59,97,0
1,52,104,2682
1,50,104,64
1,47,98,0
1,50,112,95
1,40,92,78
1,52,108,80
1,50,108,75
1,47,95,91
1,50,102,52
1,40,91,29
1,52,110,85
1,50,102,54
1,47,94,28
1,50,106,93
1,40,92,79
1,52,102,85
1,50,100,82
1,47,102,92
1,50,106,56
1,40,97,29
1,52,104,90
1,50,100,49
1,47,95,29
1,50,104,90
1,40,90,81
1,52,106,84
1,50,104,80
1,47,100,93
1,50,100,1
1,40,92,33
1,52,102,89
1,50,102,57
1,47,104,31
1,50,108,87
1,40,94,85
1,52,108,91
1,50,108,84
1,47,98,94
1,50,106,55
1,40,90,25
1,52,104,85
1,50,97,34
1,47,102,29
1,50,108,89
1,40,95,80
1,52,102,88
1,50,108,75
1,47,98,91
1,50,102,4
1,40,95,32
1,52,102,88
1,50,104,45
1,47,95,0
1,50,112,95
1,62,87,3
1,57,94,0
1,50,100,0
1,62,91,15
1,50,98,0
1,57,104,0
1,57,122,36
1,62,106,0
1,50,125,0
1,57,90,24
1,50,72,1
1,52,73,0
1,64,59,0
1,57,94,16
1,52,97,0
1,64,81,1
1,52,122,41
1,64,114,0
1,57,127,0
1,40,97,92
1,52,104,93
1,50,100,49
1,47,95,29
1,50,104,90
1,40,90,81
1,52,106,84
1,50,104,80
1,47,100,93
1,50,100,1
1,40,92,33
1,52,102,89
1,50,102,57
1,47,104,31
1,50,108,87
1,40,94,85
1,52,108,91
1,50,108,84
1,47,98,94
1,50,106,55
1,40,90,25
1,52,104,85
1,50,97,34
1,47,102,29
1,50,108,89
1,40,95,80
1,52,102,88
1,50,108,75
1,47,98,91
1,50,102,4
1,40,95,32
1,52,102,88
1,50,104,45
1,47,95,0
1,50,112,95
1,62,87,3
1,57,94,0
1,50,100,0
1,62,91,15
1,50,98,0
1,57,104,0
1,57,122,36
1,62,106,0
1,50,125,0
1,57,90,24
1,50,72,1
1,52,73,0
1,64,59,0
1,57,94,16
1,52,97,0
1,64,81,1
1,52,122,41
1,64,114,0
1,57,127,0
1,40,97,92
1,52,104,93
1,50,100,49
1,47,95,29
1,50,104,90
1,40,90,81
1,52,106,84
1,50,104,80
1,47,100,93
1,50,100,1
1,40,92,33
1,52,102,89
1,50,102,57
1,47,104,31
1,50,108,87
1,40,94,85
1,52,108,91
1,50,108,84
1,47,98,94
1,50,106,55
1,40,90,25
1,52,104,85
1,50,97,34
1,47,102,29
1,50,108,89
1,40,95,80
1,52,102,88
1,50,108,75
1,47,98,91
1,50,102,4
1,40,95,32
1,52,102,88
1,50,104,45
1,47,95,0
1,50,112,95
1,57,81,88
1,62,91,0
1,62,90,19
1,57,85,0
1,62,94,17
1,57,104,0
1,57,84,13
1,61,116,0
1,57,92,19
1,61,116,2
1,57,94,26
1,61,116,3
1,40,106,4
1,52,104,92
1,50,97,59
1,47,102,29
1,50,108,89
1,40,95,80
1,52,102,88
1,50,108,75
1,47,98,91
1,50,102,4
1,40,95,32
1,52,102,88
1,50,104,45
1,47,95,0
1,50,112,95
1,62,86,88
1,57,79,0
1,62,85,21
1,57,75,0
1,62,106,29
1,57,106,0
1,57,94,25
1,61,116,0
1,57,77,13
1,61,99,2
1,57,100,23
1,61,116,4
1,40,110,4
1,52,104,90
1,50,97,52
1,47,102,29
1,50,108,89
1,40,95,80
1,52,102,88
1,50,108,75
1,47,98,91
1,50,102,4
1,40,95,32
1,52,102,88
1,50,104,45
1,47,95,0
1,50,112,95
1,62,106,91
1,57,92,0
1,62,73,8
1,57,73,1
1,62,79,16
1,57,81,2
1,61,110,16
1,57,85,1
1,57,71,14
1,61,68,2
1,61,107,24
1,57,91,0
1,64,117,22
1,59,108,3
1,57,92,24
