track,note,velocity,time
1,50,127,0
1,57,127,0
1,50,127,0
1,57,127,0
1,50,127,0
1,57,127,0
1,50,127,192
1,57,127,0
1,50,127,0
1,57,127,0
1,50,127,0
1,57,127,0
1,38,127,0
1,50,127,192
1,58,127,0
1,50,127,0
1,58,127,0
1,50,127,0
1,58,127,0
1,50,127,192
1,58,127,0
1,50,127,0
1,58,127,0
1,50,127,0
1,58,127,0
1,38,127,0
1,50,127,192
1,59,127,0
1,50,127,0
1,59,127,0
1,50,127,0
1,59,127,0
1,50,127,192
1,59,127,0
1,50,127,0
1,59,127,0
1,50,127,0
1,59,127,0
1,38,127,0
1,50,127,192
1,60,127,0
1,50,127,0
1,60,127,0
1,50,127,0
1,60,127,0
1,50,127,192
1,60,127,0
1,50,127,0
1,60,127,0
1,50,127,0
1,60,127,0
1,38,127,0
1,50,127,192
1,62,127,0
1,50,127,0
1,62,127,0
1,50,127,0
1,62,127,0
1,50,127,192
1,57,127,0
1,50,127,0
1,57,127,0
1,50,127,0
1,57,127,0
1,38,127,0
1,50,127,192
1,58,127,0
1,50,127,0
1,58,127,0
1,50,127,0
1,58,127,0
1,50,127,192
1,58,127,0
1,50,127,0
1,58,127,0
1,50,127,0
1,58,127,0
1,38,127,0
1,50,127,192
1,59,127,0
1,50,127,0
1,59,127,0
1,50,127,0
1,59,127,0
1,50,127,192
1,59,127,0
1,50,127,0
1,59,127,0
1,50,127,0
1,59,127,0
1,38,127,0
1,50,127,192
1,60,127,0
1,50,127,0
1,60,127,0
1,50,127,0
1,60,127,0
1,50,127,192
1,60,127,0
1,50,127,0
1,60,127,0
1,50,127,0
1,60,127,0
1,38,127,0
1,50,127,192
1,62,127,0
1,50,127,0
1,62,127,0
1,50,127,0
1,62,127,0
1,50,127,192
1,57,127,0
1,50,127,0
1,57,127,0
1,50,127,0
1,57,127,0
1,38,127,0
1,50,127,192
1,58,127,0
1,50,127,0
1,58,127,0
1,50,127,0
1,58,127,0
1,50,127,192
1,58,127,0
1,50,127,0
1,58,127,0
1,50,127,0
1,58,127,0
1,38,127,0
1,50,127,192
1,59,127,0
1,50,127,0
1,59,127,0
1,50,127,0
1,59,127,0
1,50,127,192
1,59,127,0
1,50,127,0
1,59,127,0
1,50,127,0
1,59,127,0
1,38,127,0
1,50,127,192
1,60,127,0
1,50,127,0
1,60,127,0
1,50,127,0
1,60,127,0
1,50,127,192
1,60,127,0
1,50,127,0
1,60,127,0
1,50,127,0
1,60,127,0
1,38,127,0
1,50,127,192
1,62,127,0
1,50,127,0
1,62,127,0
1,50,127,0
1,62,127,0
1,50,127,192
1,57,127,0
1,50,127,0
1,57,127,0
1,50,127,0
1,57,127,0
1,38,127,0
1,50,127,192
1,58,127,0
1,50,127,0
1,58,127,0
1,50,127,0
1,58,127,0
1,50,127,192
1,58,127,0
1,50,127,0
1,58,127,0
1,50,127,0
1,58,127,0
1,38,127,0
1,50,127,192
1,59,127,0
1,50,127,0
1,59,127,0
1,50,127,0
1,59,127,0
1,50,127,192
1,59,127,0
1,50,127,0
1,59,127,0
1,50,127,0
1,59,127,0
1,38,127,0
1,50,127,192
1,60,127,0
1,50,127,0
1,60,127,0
1,50,127,0
1,60,127,0
1,50,127,192
1,60,127,0
1,50,127,0
1,60,127,0
1,50,127,0
1,60,127,0
1,38,127,0
1,50,127,192
1,62,127,0
1,50,127,0
1,62,127,0
1,50,127,0
1,62,127,0
1,50,127,192
1,57,127,0
1,50,127,0
1,57,127,0
1,50,127,0
1,57,127,0
1,38,127,0
1,50,127,192
1,58,127,0
1,50,127,0
1,58,127,0
1,50,127,0
1,58,127,0
1,50,127,192
1,58,127,0
1,50,127,0
1,58,127,0
1,50,127,0
1,58,127,0
1,38,127,0
1,50,127,192
1,59,127,0
1,50,127,0
1,59,127,0
1,50,127,0
1,59,127,0
1,50,127,192
1,59,127,0
1,50,127,0
1,59,127,0
1,50,127,0
1,59,127,0
1,38,127,0
1,50,127,192
1,60,127,0
1,50,127,0
1,60,127,0
1,50,127,0
1,60,127,0
1,50,127,192
1,60,127,0
1,50,127,0
1,60,127,0
1,50,127,0
1,60,127,0
1,38,127,0
1,50,127,192
1,62,127,0
1,50,127,0
1,62,127,0
1,50,127,0
1,62,127,0
1,50,127,192
1,57,127,0
1,50,127,0
1,57,127,0
1,50,127,0
1,57,127,0
1,38,127,0
1,50,127,192
1,58,127,0
1,50,127,0
1,58,127,0
1,50,127,0
1,58,127,0
1,50,127,192
1,58,127,0
1,50,127,0
1,58,127,0
1,50,127,0
1,58,127,0
1,38,127,0
1,50,127,192
1,59,127,0
1,50,127,0
1,59,127,0
1,50,127,0
1,59,127,0
1,50,127,192
1,59,127,0
1,50,127,0
1,59,127,0
1,50,127,0
1,59,127,0
1,38,127,0
1,50,127,192
1,60,127,0
1,50,127,0
1,60,127,0
1,50,127,0
1,60,127,0
1,50,127,192
1,60,127,0
1,50,127,0
1,60,127,0
1,50,127,0
1,60,127,0
1,38,127,0
1,62,127,0
1,67,127,0
1,57,127,0
1,74,127,0
1,62,127,0
1,66,127,0
1,57,127,0
1,74,127,0
1,60,127,0
1,65,127,0
1,57,127,0
1,72,127,0
1,60,127,0
1,64,127,0
1,57,127,0
1,72,127,0
1,57,127,0
1,62,127,0
1,69,127,0
1,57,127,0
1,61,127,0
1,69,127,0
1,55,127,0
1,60,127,0
1,57,127,0
1,67,127,0
1,55,127,0
1,59,127,0
1,57,127,0
1,67,127,0
1,53,127,0
1,58,127,0
1,57,127,0
1,65,127,0
1,53,127,0
1,57,127,0
1,65,127,0
1,53,127,0
1,52,127,0
1,50,127,0
1,62,127,0
1,67,127,0
1,57,127,0
1,74,127,0
1,62,127,0
1,66,127,0
1,57,127,0
1,74,127,0
1,60,127,0
1,65,127,0
1,57,127,0
1,72,127,0
1,60,127,0
1,64,127,0
1,57,127,0
1,72,127,0
1,57,127,0
1,62,127,0
1,69,127,0
1,57,127,0
1,61,127,0
1,69,127,0
1,55,127,0
1,60,127,0
1,57,127,0
1,67,127,0
1,55,127,0
1,59,127,0
1,57,127,0
1,67,127,0
1,53,127,0
1,58,127,0
1,57,127,0
1,65,127,0
1,53,127,0
1,57,127,0
1,65,127,0
1,53,127,0
1,52,127,0
1,50,127,0
1,50,127,192
1,58,127,0
1,50,127,0
1,58,127,0
1,50,127,0
1,58,127,0
1,38,127,0
1,50,127,192
1,59,127,0
1,50,127,0
1,59,127,0
1,50,127,0
1,59,127,0
1,50,127,192
1,59,127,0
1,50,127,0
1,59,127,0
1,50,127,0
1,59,127,0
1,38,127,0
1,50,127,192
1,60,127,0
1,50,127,0
1,60,127,0
1,50,127,0
1,60,127,0
1,50,127,192
1,60,127,0
1,50,127,0
1,60,127,0
1,50,127,0
1,60,127,0
1,38,127,0
1,50,127,192
1,62,127,0
1,50,127,0
1,62,127,0
1,50,127,0
1,62,127,0
1,50,127,192
1,57,127,0
1,50,127,0
1,57,127,0
1,50,127,0
1,57,127,0
1,38,127,0
1,50,127,192
1,58,127,0
1,50,127,0
1,58,127,0
1,50,127,0
1,58,127,0
1,50,127,192
1,58,127,0
1,50,127,0
1,58,127,0
1,50,127,0
1,58,127,0
1,38,127,0
1,50,127,192
1,59,127,0
1,50,127,0
1,59,127,0
1,50,127,0
1,59,127,0
1,50,127,192
1,59,127,0
1,50,127,0
1,59,127,0
1,50,127,0
1,59,127,0
1,38,127,0
1,50,127,192
1,60,127,0
1,50,127,0
1,60,127,0
1,50,127,0
1,60,127,0
1,50,127,192
1,60,127,0
1,50,127,0
1,60,127,0
1,50,127,0
1,60,127,0
1,38,127,0
1,50,127,192
1,62,127,0
1,50,127,0
1,62,127,0
1,50,127,0
1,62,127,0
1,50,127,192
1,57,127,0
1,50,127,0
1,57,127,0
1,50,127,0
1,57,127,0
1,38,127,0
1,50,127,192
1,58,127,0
1,50,127,0
1,58,127,0
1,50,127,0
1,58,127,0
1,50,127,192
1,58,127,0
1,50,127,0
1,58,127,0
1,50,127,0
1,58,127,0
1,38,127,0
1,50,127,192
1,59,127,0
1,50,127,0
1,59,127,0
1,50,127,0
1,59,127,0
1,50,127,192
1,59,127,0
1,50,127,0
1,59,127,0
1,50,127,0
1,59,127,0
1,38,127,0
1,50,127,192
1,60,127,0
1,50,127,0
1,60,127,0
1,50,127,0
1,60,127,0
1,50,127,192
1,60,127,0
1,50,127,0
1,60,127,0
1,50,127,0
1,60,127,0
1,38,127,0
1,50,127,192
1,62,127,0
1,50,127,0
1,62,127,0
1,50,127,0
1,62,127,0
1,50,127,192
1,57,127,0
1,50,127,0
1,57,127,0
1,50,127,0
1,57,127,0
1,38,127,0
1,50,127,192
1,58,127,0
1,50,127,0
1,58,127,0
1,50,127,0
1,58,127,0
1,50,127,192
1,58,127,0
1,50,127,0
1,58,127,0
1,50,127,0
1,58,127,0
1,38,127,0
1,50,127,192
1,59,127,0
1,50,127,0
1,59,127,0
1,50,127,0
1,59,127,0
1,50,127,192
1,59,127,0
1,50,127,0
1,59,127,0
1,50,127,0
1,59,127,0
1,38,127,0
1,50,127,192
1,60,127,0
1,50,127,0
1,60,127,0
1,50,127,0
1,60,127,0
1,50,127,192
1,60,127,0
1,50,127,0
1,60,127,0
1,50,127,0
1,60,127,0
1,38,127,0
1,50,127,192
1,62,127,0
1,50,127,0
1,62,127,0
1,50,127,0
1,62,127,0
1,50,127,192
1,57,127,0
1,50,127,0
1,57,127,0
1,50,127,0
1,57,127,0
1,38,127,0
1,50,127,192
1,58,127,0
1,50,127,0
1,58,127,0
1,50,127,0
1,58,127,0
1,50,127,192
1,58,127,0
1,50,127,0
1,58,127,0
1,50,127,0
1,58,127,0
1,38,127,0
1,50,127,192
1,59,127,0
1,50,127,0
1,59,127,0
1,50,127,0
1,59,127,0
1,50,127,192
1,59,127,0
1,50,127,0
1,59,127,0
1,50,127,0
1,59,127,0
1,38,127,0
1,50,127,192
1,60,127,0
1,50,127,0
1,60,127,0
1,50,127,0
1,60,127,0
1,50,127,192
1,60,127,0
1,50,127,0
1,60,127,0
1,50,127,0
1,60,127,0
1,62,127,192
1,67,127,0
1,57,127,0
1,74,127,0
1,62,127,0
1,66,127,0
1,57,127,0
1,74,127,0
1,60,127,0
1,65,127,0
1,57,127,0
1,72,127,0
1,60,127,0
1,64,127,0
1,57,127,0
1,72,127,0
1,57,127,0
1,62,127,0
1,69,127,0
1,57,127,0
1,61,127,0
1,69,127,0
1,55,127,0
1,60,127,0
1,57,127,0
1,67,127,0
1,55,127,0
1,59,127,0
1,57,127,0
1,67,127,0
1,53,127,0
1,58,127,0
1,57,127,0
1,65,127,0
1,53,127,0
1,57,127,0
1,65,127,0
1,53,127,0
1,52,127,0
1,50,127,0
1,62,127,0
1,67,127,0
1,57,127,0
1,74,127,0
1,62,127,0
1,66,127,0
1,57,127,0
1,74,127,0
1,60,127,0
1,65,127,0
1,57,127,0
1,72,127,0
1,60,127,0
1,64,127,0
1,57,127,0
1,72,127,0
1,57,127,0
1,62,127,0
1,69,127,0
1,57,127,0
1,61,127,0
1,69,127,0
1,55,127,0
1,60,127,0
1,57,127,0
1,67,127,0
1,55,127,0
1,59,127,0
1,57,127,0
1,67,127,0
1,53,127,0
1,58,127,0
1,57,127,0
1,65,127,0
1,53,127,0
1,57,127,0
1,65,127,0
1,53,127,0
1,52,127,0
1,50,127,0
1,50,127,192
1,58,127,0
1,50,127,0
1,58,127,0
1,50,127,0
1,58,127,0
1,38,127,0
1,50,127,192
1,59,127,0
1,50,127,0
1,59,127,0
1,50,127,0
1,59,127,0
1,50,127,192
1,59,127,0
1,50,127,0
1,59,127,0
1,50,127,0
1,59,127,0
1,38,127,0
1,50,127,192
1,60,127,0
1,50,127,0
1,60,127,0
1,50,127,0
1,60,127,0
1,50,127,192
1,60,127,0
1,50,127,0
1,60,127,0
1,50,127,0
1,60,127,0
1,62,127,192
1,67,127,0
1,57,127,0
1,74,127,0
1,62,127,0
1,66,127,0
1,57,127,0
1,74,127,0
1,60,127,0
1,65,127,0
1,57,127,0
1,72,127,0
1,60,127,0
1,64,127,0
1,57,127,0
1,72,127,0
1,57,127,0
1,62,127,0
1,69,127,0
1,57,127,0
1,61,127,0
1,69,127,0
1,55,127,0
1,60,127,0
1,57,127,0
1,67,127,0
1,55,127,0
1,59,127,0
1,57,127,0
1,67,127,0
1,53,127,0
1,58,127,0
1,57,127,0
1,65,127,0
1,53,127,0
1,57,127,0
1,65,127,0
1,53,127,0
1,52,127,0
1,50,127,0
1,45,127,0
1,47,127,0
1,50,127,0
1,45,127,0
1,52,127,0
1,45,127,384
1,54,127,0
1,45,127,192
1,52,127,0
1,57,127,192
1,61,127,0
1,45,127,0
1,52,127,0
1,45,127,1152
1,52,127,0
1,45,127,384
1,54,127,0
1,45,127,192
1,52,127,0
1,57,127,192
1,61,127,0
1,45,127,0
1,52,127,0
1,53,127,576
1,52,127,0
1,50,127,0
1,45,127,0
1,47,127,0
1,50,127,0
1,45,127,0
1,52,127,0
1,45,127,384
1,54,127,0
1,45,127,192
1,52,127,0
1,57,127,192
1,61,127,0
1,45,127,0
1,52,127,0
1,45,127,1152
1,52,127,0
1,45,127,384
1,54,127,0
1,45,127,192
1,52,127,0
1,57,127,192
1,61,127,0
1,45,127,0
1,52,127,0
1,53,127,576
1,52,127,0
1,50,127,0
1,45,127,0
1,47,127,0
1,50,127,0
1,45,127,0
1,52,127,0
1,45,127,384
1,54,127,0
1,45,127,192
1,52,127,0
1,57,127,192
1,61,127,0
1,45,127,0
1,52,127,0
1,45,127,1152
1,52,127,0
1,45,127,384
1,54,127,0
1,45,127,192
1,52,127,0
1,57,127,192
1,61,127,0
1,45,127,0
1,52,127,0
1,53,127,576
1,52,127,0
1,50,127,0
1,45,127,0
1,47,127,0
1,50,127,0
1,45,127,0
1,52,127,0
1,45,127,384
1,54,127,0
1,45,127,192
1,52,127,0
1,57,127,192
1,61,127,0
1,45,127,0
1,52,127,0
1,45,127,1152
1,52,127,0
1,45,127,384
1,54,127,0
1,45,127,192
1,52,127,0
1,57,127,192
1,61,127,0
1,45,127,0
1,52,127,0
1,53,127,576
1,52,127,0
1,50,127,0
1,45,127,0
1,47,127,0
1,50,127,0
1,45,127,0
1,52,127,0
1,45,127,384
1,54,127,0
1,45,127,192
1,52,127,0
1,57,127,192
1,61,127,0
1,45,127,0
1,52,127,0
1,45,127,1152
1,52,127,0
1,45,127,384
1,54,127,0
1,45,127,192
1,52,127,0
1,57,127,192
1,61,127,0
1,45,127,0
1,52,127,0
1,53,127,576
1,52,127,0
1,50,127,0
1,45,127,0
1,47,127,0
1,50,127,0
1,62,127,0
1,67,127,0
1,57,127,0
1,74,127,0
1,62,127,0
1,66,127,0
1,57,127,0
1,74,127,0
1,60,127,0
1,65,127,0
1,57,127,0
1,72,127,0
1,60,127,0
1,64,127,0
1,57,127,0
1,72,127,0
1,57,127,0
1,62,127,0
1,69,127,0
1,57,127,0
1,61,127,0
1,69,127,0
1,55,127,0
1,60,127,0
1,57,127,0
1,67,127,0
1,55,127,0
1,59,127,0
1,57,127,0
1,67,127,0
1,53,127,0
1,58,127,0
1,57,127,0
1,65,127,0
1,53,127,0
1,57,127,0
1,65,127,0
1,53,127,0
1,52,127,0
1,50,127,0
1,62,127,0
1,67,127,0
1,57,127,0
1,74,127,0
1,62,127,0
1,66,127,0
1,57,127,0
1,74,127,0
1,60,127,0
1,65,127,0
1,57,127,0
1,72,127,0
1,60,127,0
1,64,127,0
1,57,127,0
1,72,127,0
1,57,127,0
1,62,127,0
1,69,127,0
1,57,127,0
1,61,127,0
1,69,127,0
1,55,127,0
1,60,127,0
1,57,127,0
1,67,127,0
1,55,127,0
1,59,127,0
1,57,127,0
1,67,127,0
1,53,127,0
1,58,127,0
1,57,127,0
1,65,127,0
1,53,127,0
1,57,127,0
1,65,127,0
1,53,127,0
1,52,127,0
1,50,127,0
1,43,127,0
1,50,127,0
1,55,127,0
