track,note,velocity,time
1,72,110,7104
1,72,0,94
1,72,110,2
1,72,0,94
1,72,110,2
1,72,0,160
1,72,110,32
1,72,0,94
1,72,110,2
1,72,0,190
1,72,110,2
1,72,0,94
1,72,110,2
1,72,0,160
1,72,110,224
1,72,0,94
1,72,110,2
1,72,0,94
1,72,110,2
1,72,0,94
1,72,110,2
1,72,0,160
1,72,110,32
1,72,0,190
1,72,110,2
1,72,0,160
1,72,110,32
1,72,0,256
1,72,110,704
1,72,0,94
1,72,110,2
1,72,0,94
1,72,110,2
1,72,0,94
1,72,110,2
1,72,0,94
1,72,110,2
1,72,0,94
1,72,110,2
1,72,0,94
1,72,110,2
1,72,0,190
1,72,110,2
1,72,0,94
1,72,110,2
1,72,0,160
1,72,110,32
1,72,0,160
1,72,110,320
1,72,0,94
1,72,110,2
1,72,0,94
1,72,110,2
1,72,0,94
1,72,110,2
1,72,0,94
1,72,110,2
1,72,0,94
1,72,110,2
1,72,0,94
1,72,110,2
1,72,0,256
1,72,110,704
1,72,0,94
1,76,110,2
1,76,0,94
1,77,110,2
1,77,0,94
1,76,110,2
1,76,0,94
1,72,110,2
1,72,0,256
1,72,110,128
1,72,0,94
1,76,110,2
1,76,0,94
1,77,110,2
1,77,0,94
1,76,110,2
1,76,0,94
1,72,110,2
1,72,0,256
1,72,110,128
1,72,0,94
1,76,110,2
1,76,0,94
1,76,110,2
1,76,0,94
1,76,110,2
1,76,0,94
1,72,110,2
1,72,0,94
1,72,110,2
1,72,0,94
1,72,110,2
1,72,0,256
1,72,110,704
1,72,0,94
1,76,110,2
1,76,0,94
1,77,110,2
1,77,0,94
1,79,110,2
1,79,0,96
1,77,110,0
1,77,0,94
1,76,110,2
1,76,0,160
1,72,110,128
1,72,0,94
1,76,110,2
1,76,0,94
1,77,110,2
1,77,0,94
1,79,110,2
1,79,0,96
1,77,110,0
1,77,0,94
1,76,110,2
1,76,0,160
1,72,110,128
1,72,0,94
1,72,110,2
1,72,0,94
1,72,110,2
1,72,0,94
1,76,110,2
1,76,0,94
1,72,110,2
1,72,0,94
1,72,110,2
1,72,0,94
1,72,110,2
1,72,0,256
1,72,110,800
1,72,0,94
1,72,110,2
1,72,0,94
1,72,110,2
1,72,0,160
1,72,110,32
1,72,0,94
1,72,110,2
1,72,0,94
1,72,110,2
1,72,0,94
1,72,110,2
1,72,0,160
1,72,110,320
1,72,0,94
1,72,110,2
1,72,0,94
1,70,110,2
1,70,0,94
1,72,110,2
1,72,0,94
1,72,110,2
1,72,0,94
1,72,110,2
1,72,0,190
1,72,110,2
1,72,0,94
1,72,110,2
1,72,0,94
1,72,110,2
1,72,0,256
1,72,110,800
1,72,0,94
1,72,110,2
1,72,0,94
1,72,110,2
1,72,0,160
1,72,110,32
1,72,0,94
1,70,110,2
1,70,0,94
1,70,110,2
1,70,0,94
1,72,110,2
1,72,0,94
1,72,110,2
1,72,0,160
1,72,110,224
1,72,0,94
1,72,110,2
1,72,0,94
1,72,110,2
1,72,0,160
1,72,110,32
1,72,0,160
1,72,110,32
1,72,0,160
1,72,110,32
1,72,0,94
1,72,110,2
1,72,0,256
1,72,110,704
1,72,0,94
1,76,110,2
1,76,0,94
1,77,110,2
1,77,0,94
1,76,110,2
1,76,0,94
1,72,110,2
1,72,0,256
1,72,110,128
1,72,0,94
1,76,110,2
1,76,0,94
1,77,110,2
1,77,0,94
1,76,110,2
1,76,0,94
1,72,110,2
1,72,0,256
1,72,110,128
1,72,0,94
1,76,110,2
1,76,0,94
1,77,110,2
1,77,0,94
1,79,110,2
1,79,0,94
1,77,110,2
1,77,0,94
1,77,110,2
1,77,0,94
1,76,110,2
1,76,0,96
1,72,110,0
1,72,0,160
1,72,110,704
1,72,0,94
1,76,110,2
1,76,0,94
1,77,110,2
1,77,0,94
1,79,110,2
1,79,0,96
1,77,110,0
1,77,0,94
1,76,110,2
1,76,0,160
1,72,110,128
1,72,0,94
1,76,110,2
1,76,0,94
1,77,110,2
1,77,0,94
1,79,110,2
1,79,0,96
1,77,110,0
1,77,0,94
1,76,110,2
1,76,0,160
1,72,110,128
1,72,0,94
1,72,110,2
1,72,0,94
1,72,110,2
1,72,0,94
1,76,110,2
1,76,0,94
1,72,110,2
1,72,0,94
1,72,110,2
1,72,0,94
1,72,110,2
1,72,0,256
1,72,110,6944
1,72,0,94
1,72,110,2
1,72,0,94
1,72,110,2
1,72,0,160
1,72,110,32
1,72,0,94
1,72,110,2
1,72,0,190
1,72,110,2
1,72,0,94
1,72,110,2
1,72,0,160
1,72,110,224
1,72,0,94
1,72,110,2
1,72,0,94
1,72,110,2
1,72,0,94
1,72,110,2
1,72,0,160
1,72,110,32
1,72,0,190
1,72,110,2
1,72,0,160
1,72,110,32
1,72,0,256
1,72,110,704
1,72,0,94
1,72,110,2
1,72,0,94
1,72,110,2
1,72,0,94
1,72,110,2
1,72,0,94
1,72,110,2
1,72,0,94
1,72,110,2
1,72,0,94
1,72,110,2
1,72,0,190
1,72,110,2
1,72,0,94
1,72,110,2
1,72,0,160
1,72,110,32
1,72,0,160
1,72,110,320
1,72,0,94
1,72,110,2
1,72,0,94
1,72,110,2
1,72,0,94
1,72,110,2
1,72,0,94
1,72,110,2
1,72,0,94
1,72,110,2
1,72,0,94
1,72,110,2
1,72,0,256
1,72,110,704
1,72,0,94
1,76,110,2
1,76,0,94
1,77,110,2
1,77,0,94
1,76,110,2
1,76,0,94
1,72,110,2
1,72,0,256
1,72,110,128
1,72,0,94
1,76,110,2
1,76,0,94
1,77,110,2
1,77,0,94
1,76,110,2
1,76,0,94
1,72,110,2
1,72,0,256
1,72,110,128
1,72,0,94
1,76,110,2
1,76,0,94
1,76,110,2
1,76,0,94
1,76,110,2
1,76,0,94
1,72,110,2
1,72,0,94
1,72,110,2
1,72,0,94
1,72,110,2
1,72,0,256
1,72,110,704
1,72,0,94
1,76,110,2
1,76,0,94
1,77,110,2
1,77,0,94
1,79,110,2
1,79,0,96
1,77,110,0
1,77,0,94
1,76,110,2
1,76,0,160
1,72,110,128
1,72,0,94
1,76,110,2
1,76,0,94
1,77,110,2
1,77,0,94
1,79,110,2
1,79,0,96
1,77,110,0
1,77,0,94
1,76,110,2
1,76,0,160
1,72,110,128
1,72,0,94
1,72,110,2
1,72,0,94
1,72,110,2
1,72,0,94
1,76,110,2
1,76,0,94
1,72,110,2
1,72,0,94
1,72,110,2
1,72,0,94
1,72,110,2
1,72,0,256
1,72,110,800
1,72,0,94
1,72,110,2
1,72,0,94
1,72,110,2
1,72,0,160
1,72,110,32
1,72,0,94
1,72,110,2
1,72,0,94
1,72,110,2
1,72,0,94
1,72,110,2
1,72,0,160
1,72,110,320
1,72,0,94
1,72,110,2
1,72,0,94
1,70,110,2
1,70,0,94
1,72,110,2
1,72,0,94
1,72,110,2
1,72,0,94
1,72,110,2
1,72,0,190
1,72,110,2
1,72,0,94
1,72,110,2
1,72,0,94
1,72,110,2
1,72,0,256
1,72,110,800
1,72,0,94
1,72,110,2
1,72,0,94
1,72,110,2
1,72,0,160
1,72,110,32
1,72,0,94
1,70,110,2
1,70,0,94
1,70,110,2
1,70,0,94
1,72,110,2
1,72,0,94
1,72,110,2
1,72,0,160
1,72,110,224
1,72,0,94
1,72,110,2
1,72,0,94
1,72,110,2
1,72,0,160
1,72,110,32
1,72,0,160
1,72,110,32
1,72,0,160
1,72,110,32
1,72,0,94
1,72,110,2
1,72,0,256
1,72,110,704
1,72,0,94
1,76,110,2
1,76,0,94
1,77,110,2
1,77,0,94
1,76,110,2
1,76,0,94
1,72,110,2
1,72,0,256
1,72,110,128
1,72,0,94
1,76,110,2
1,76,0,94
1,77,110,2
1,77,0,94
1,76,110,2
1,76,0,94
1,72,110,2
1,72,0,256
1,72,110,128
1,72,0,94
1,76,110,2
1,76,0,94
1,77,110,2
1,77,0,94
1,79,110,2
1,79,0,94
1,77,110,2
1,77,0,94
1,77,110,2
1,77,0,94
1,76,110,2
1,76,0,96
1,72,110,0
1,72,0,160
1,72,110,704
1,72,0,94
1,76,110,2
1,76,0,94
1,77,110,2
1,77,0,94
1,79,110,2
1,79,0,96
1,77,110,0
1,77,0,94
1,76,110,2
1,76,0,160
1,72,110,128
1,72,0,94
1,76,110,2
1,76,0,94
1,77,110,2
1,77,0,94
1,79,110,2
1,79,0,96
1,77,110,0
1,77,0,94
1,76,110,2
1,76,0,160
1,72,110,128
1,72,0,94
1,72,110,2
1,72,0,94
1,72,110,2
1,72,0,94
1,76,110,2
1,76,0,94
1,72,110,2
1,72,0,94
1,72,110,2
1,72,0,94
1,72,110,2
1,72,110,96
1,72,0,160
1,72,110,128
1,72,0,94
1,84,110,2
1,84,0,94
1,82,110,2
1,82,0,94
1,79,110,2
1,79,0,94
1,77,110,2
1,77,0,94
1,77,110,2
1,77,0,160
2,73,110,672
2,72,0,190
2,74,110,2
2,74,0,94
2,73,110,2
2,73,0,94
2,74,110,2
2,74,0,48
2,73,110,0
2,73,0,46
2,71,110,2
2,71,0,32
2,73,110,256
2,72,0,190
2,74,110,2
2,74,0,94
2,73,110,2
2,73,0,94
2,74,110,2
2,74,0,48
2,73,110,0
2,73,0,46
2,71,110,2
2,71,0,32
2,73,110,256
2,72,0,190
2,74,110,2
2,74,0,94
2,73,110,2
2,73,0,94
2,74,110,2
2,74,0,94
2,78,110,2
2,78,0,94
2,76,110,2
2,76,0,94
2,73,110,98
2,72,0,190
2,74,110,2
2,74,0,94
2,73,110,2
2,73,0,94
2,74,110,2
2,74,0,48
2,73,110,0
2,73,0,46
2,71,110,2
2,71,0,32
2,73,110,256
2,72,0,190
2,74,110,2
2,74,0,94
2,73,110,2
2,73,0,94
2,74,110,2
2,74,0,48
2,73,110,0
2,73,0,46
2,71,110,2
2,71,0,32
2,73,110,256
2,72,0,190
2,74,110,2
2,74,0,94
2,73,110,2
2,73,0,94
2,74,110,2
2,74,0,48
2,73,110,0
2,73,0,46
2,71,110,2
2,71,0,32
2,73,110,256
2,72,0,190
2,74,110,2
2,74,0,94
2,73,110,2
2,73,0,94
2,74,110,2
2,74,0,94
2,78,110,2
2,78,0,94
2,76,110,2
2,76,0,94
2,73,110,98
2,72,0,190
2,74,110,2
2,74,0,94
2,73,110,2
2,73,0,94
2,74,110,2
2,74,0,48
2,73,110,0
2,73,0,46
2,71,110,2
2,71,0,32
2,72,110,544
2,77,110,0
2,81,110,0
2,72,0,94
2,77,0,0
2,81,0,0
2,72,110,98
2,77,110,0
2,81,110,0
2,72,0,94
2,77,0,0
2,81,0,0
2,72,110,2
2,76,110,0
2,79,110,0
2,72,0,94
2,76,0,0
2,79,0,0
2,73,110,98
2,79,110,0
2,82,110,0
2,74,0,190
2,79,0,0
2,83,0,0
2,73,110,2
2,77,110,0
2,80,110,0
2,73,0,94
2,77,0,0
2,80,0,0
2,73,110,2
2,79,110,0
2,82,110,0
2,73,0,94
2,79,0,0
2,82,0,0
2,73,110,98
2,79,110,0
2,82,110,0
2,73,0,94
2,79,0,0
2,82,0,0
2,73,110,2
2,77,110,0
2,80,110,0
2,73,0,94
2,77,0,0
2,80,0,0
2,72,110,98
2,77,110,0
2,81,110,0
2,72,0,190
2,78,0,0
2,81,0,0
2,72,110,2
2,76,110,0
2,79,110,0
2,72,0,94
2,76,0,0
2,79,0,0
2,72,110,2
2,77,110,0
2,81,110,0
2,72,0,94
2,77,0,0
2,81,0,0
2,72,110,98
2,77,110,0
2,81,110,0
2,72,0,94
2,77,0,0
2,81,0,0
2,72,110,2
2,76,110,0
2,79,110,0
2,72,0,94
2,76,0,0
2,79,0,0
2,72,110,98
2,76,110,0
2,79,110,0
2,72,0,190
2,76,0,0
2,79,0,0
2,72,110,2
2,76,110,0
2,79,110,0
2,72,0,94
2,76,0,0
2,79,0,0
2,72,110,482
2,77,110,0
2,81,110,0
2,72,0,190
2,78,0,0
2,81,0,0
2,72,110,2
2,76,110,0
2,79,110,0
2,72,0,94
2,76,0,0
2,79,0,0
2,72,110,2
2,77,110,0
2,81,110,0
2,72,0,94
2,77,0,0
2,81,0,0
2,72,110,98
2,77,110,0
2,81,110,0
2,72,0,94
2,77,0,0
2,81,0,0
2,72,110,2
2,76,110,0
2,79,110,0
2,72,0,94
2,76,0,0
2,79,0,0
2,73,110,98
2,79,110,0
2,82,110,0
2,74,0,190
2,79,0,0
2,83,0,0
2,73,110,2
2,77,110,0
2,80,110,0
2,73,0,94
2,77,0,0
2,80,0,0
2,73,110,2
2,79,110,0
2,82,110,0
2,73,0,94
2,79,0,0
2,82,0,0
2,73,110,98
2,79,110,0
2,82,110,0
2,73,0,94
2,79,0,0
2,82,0,0
2,73,110,2
2,77,110,0
2,80,110,0
2,73,0,94
2,77,0,0
2,80,0,0
2,72,110,98
2,77,110,0
2,81,110,0
2,72,0,190
2,78,0,0
2,81,0,0
2,72,110,2
2,76,110,0
2,79,110,0
2,72,0,94
2,76,0,0
2,79,0,0
2,72,110,2
2,77,110,0
2,81,110,0
2,72,0,94
2,77,0,0
2,81,0,0
2,72,110,98
2,77,110,0
2,81,110,0
2,72,0,94
2,77,0,0
2,81,0,0
2,72,110,2
2,76,110,0
2,79,110,0
2,72,0,94
2,76,0,0
2,79,0,0
2,72,110,98
2,76,110,0
2,79,110,0
2,72,0,190
2,76,0,0
2,79,0,0
2,72,110,2
2,76,110,0
2,79,110,0
2,72,0,94
2,76,0,0
2,79,0,0
2,72,110,482
2,77,110,0
2,81,110,0
2,72,0,190
2,78,0,0
2,81,0,0
2,72,110,2
2,76,110,0
2,79,110,0
2,72,0,94
2,76,0,0
2,79,0,0
2,72,110,2
2,77,110,0
2,81,110,0
2,72,0,94
2,77,0,0
2,81,0,0
2,72,110,98
2,77,110,0
2,81,110,0
2,72,0,94
2,77,0,0
2,81,0,0
2,72,110,2
2,76,110,0
2,79,110,0
2,72,0,94
2,76,0,0
2,79,0,0
2,70,110,98
2,76,110,0
2,79,110,0
2,71,0,190
2,76,0,0
2,79,0,0
2,70,110,2
2,74,110,0
2,77,110,0
2,70,0,94
2,74,0,0
2,77,0,0
2,70,110,2
2,76,110,0
2,79,110,0
2,70,0,94
2,76,0,0
2,79,0,0
2,70,110,98
2,76,110,0
2,79,110,0
2,70,0,94
2,76,0,0
2,79,0,0
2,70,110,2
2,74,110,0
2,77,110,0
2,70,0,94
2,74,0,0
2,77,0,0
2,69,110,98
2,74,110,0
2,77,110,0
2,69,0,190
2,74,0,0
2,78,0,0
2,69,110,2
2,73,110,0
2,76,110,0
2,69,0,94
2,73,0,0
2,76,0,0
2,69,110,2
2,74,110,0
2,77,110,0
2,69,0,94
2,74,0,0
2,77,0,0
2,69,110,98
2,74,110,0
2,77,110,0
2,69,0,256
2,74,0,0
2,77,0,0
2,69,110,32
2,73,110,0
2,76,110,0
2,69,0,190
2,72,0,0
2,76,0,0
2,69,110,2
2,72,110,0
2,76,110,0
2,69,0,94
2,72,0,0
2,76,0,0
2,72,110,482
2,77,110,0
2,81,110,0
2,72,0,190
2,78,0,0
2,81,0,0
2,72,110,2
2,76,110,0
2,79,110,0
2,72,0,94
2,76,0,0
2,79,0,0
2,72,110,2
2,77,110,0
2,81,110,0
2,72,0,94
2,77,0,0
2,81,0,0
2,72,110,98
2,77,110,0
2,81,110,0
2,72,0,94
2,77,0,0
2,81,0,0
2,72,110,2
2,76,110,0
2,79,110,0
2,72,0,94
2,76,0,0
2,79,0,0
2,70,110,98
2,76,110,0
2,79,110,0
2,71,0,190
2,76,0,0
2,79,0,0
2,70,110,2
2,74,110,0
2,77,110,0
2,70,0,94
2,74,0,0
2,77,0,0
2,70,110,2
2,76,110,0
2,79,110,0
2,70,0,94
2,76,0,0
2,79,0,0
2,70,110,98
2,76,110,0
2,79,110,0
2,70,0,94
2,76,0,0
2,79,0,0
2,70,110,2
2,74,110,0
2,77,110,0
2,70,0,94
2,74,0,0
2,77,0,0
2,69,110,98
2,74,110,0
2,77,110,0
