track,note,velocity,time
1,76,102,474
1,76,0,1362
1,64,106,0
1,64,0,150
1,68,91,100
1,68,0,58
1,69,97,14
1,69,0,50
1,69,95,30
1,69,0,162
1,64,94,46
1,64,0,384
1,67,92,18
1,67,0,48
1,67,98,154
1,67,0,4
1,62,88,64
1,62,0,54
1,64,102,86
1,64,0,488
1,62,79,114
1,62,0,40
1,64,106,84
1,62,75,108
1,64,0,0
1,62,0,42
1,64,114,86
1,64,0,482
1,64,106,0
1,64,0,150
1,68,91,100
1,68,0,58
1,69,97,14
1,69,0,50
1,69,95,30
1,69,0,162
1,64,94,46
1,64,0,384
1,67,74,1092
1,67,0,16
1,67,88,30
1,67,0,52
1,67,98,78
1,67,0,78
1,67,104,46
1,67,0,6
1,64,104,4
1,62,91,474
1,64,0,16
1,62,0,36
1,64,102,150
1,62,104,120
1,64,0,10
1,62,0,58
1,58,107,72
1,58,0,0
1,55,106,52
1,55,0,26
1,62,102,2358
1,62,0,46
1,64,112,0
1,67,108,94
1,64,0,10
1,67,0,72
1,69,110,78
1,69,0,84
1,67,117,72
1,64,102,146
1,67,0,0
1,64,0,84
1,64,122,0
1,64,0,656
1,69,114,666
1,69,0,490
1,67,102,10
1,67,0,0
1,63,101,0
1,64,97,498
1,63,0,10
1,64,0,100
1,64,114,10
1,64,0,686
1,64,106,6
1,64,0,110
1,67,112,16
1,67,0,72
1,69,112,46
1,69,0,68
1,71,108,68
1,69,95,136
1,71,0,14
1,69,0,68
1,67,102,78
1,64,104,126
1,67,0,0
1,64,0,78
1,62,97,66
1,62,0,6
1,67,108,20
1,67,0,0
1,62,114,198
1,62,0,0
1,62,90,432
1,62,0,56
1,64,120,94
1,64,0,4
1,67,102,12
1,67,0,308
1,64,106,6
1,67,108,98
1,64,0,10
1,67,0,78
1,69,114,52
1,69,0,68
1,71,110,62
1,69,92,130
1,71,0,22
1,69,0,52
1,67,100,78
1,67,0,52
1,69,120,82
1,69,0,48
1,67,114,82
1,67,0,0
1,71,120,42
1,71,0,4
1,70,101,26
1,70,0,0
1,71,112,72
1,71,0,40
1,67,106,84
1,67,0,6
1,64,112,0
1,67,104,108
1,64,0,0
1,67,0,68
1,69,117,68
1,69,0,58
1,69,117,78
1,69,0,0
1,69,112,22
1,69,0,72
1,69,100,104
1,67,85,100
1,69,0,20
1,64,102,72
1,67,0,0
1,64,0,68
1,67,112,0
1,67,0,78
1,62,104,30
1,62,0,0
1,62,106,258
1,62,0,68
1,67,110,20
1,67,0,696
1,69,112,0
1,69,0,442
1,69,114,78
1,69,0,6
1,67,112,88
1,67,0,124
1,64,102,6
1,64,0,94
1,64,110,68
1,64,0,588
1,71,104,2
1,71,0,58
1,74,95,4
1,74,0,24
1,71,100,22
1,71,0,56
1,71,95,4
1,71,0,166
1,71,90,6
1,71,0,58
1,69,85,2
1,69,0,58
1,71,93,2
1,71,0,48
1,69,91,12
1,69,0,100
1,71,91,22
1,71,0,54
1,67,86,4
1,67,0,58
1,71,110,6
1,69,95,76
1,71,0,10
1,69,0,62
1,67,110,52
1,69,98,120
1,67,0,12
1,69,0,50
1,67,106,64
1,67,0,4
1,64,114,2
1,64,0,82
1,69,114,48
1,69,0,418
1,64,108,26
1,64,0,146
1,71,114,22
1,71,0,4
1,66,89,24
1,66,0,262
1,67,108,38
1,67,0,130
1,64,106,66
1,64,0,372
1,71,108,10
1,71,0,70
1,69,102,48
1,69,0,38
1,67,104,22
1,67,0,158
1,69,112,10
1,69,0,0
1,71,106,16
1,74,98,90
1,71,0,22
1,74,0,22
1,71,102,2
1,71,0,28
1,70,104,54
1,70,0,4
1,71,102,18
1,71,0,22
1,70,110,50
1,70,0,38
1,69,110,28
1,69,0,106
1,67,104,62
1,67,0,12
1,64,106,4
1,64,0,6
1,67,104,4
1,67,0,88
1,68,93,2
1,68,0,34
1,64,91,50
1,64,0,0
1,71,104,44
1,71,0,4
1,71,106,24
1,71,0,44
1,71,78,8
1,71,0,28
1,71,92,32
1,71,0,24
1,71,106,38
1,71,0,36
1,71,97,28
1,71,0,56
1,69,102,4
1,69,0,62
1,67,112,54
1,67,0,12
1,64,114,2
1,64,0,0
1,71,95,58
1,70,89,32
1,71,0,0
1,70,0,50
1,69,100,72
1,69,0,398
1,74,104,6
1,74,0,42
1,74,106,24
1,74,0,70
1,74,91,48
1,74,0,62
1,71,95,4
1,71,0,48
1,71,84,60
1,69,80,60
1,71,0,6
1,71,110,62
1,69,0,10
1,71,0,28
1,70,91,70
1,70,0,16
1,67,98,14
1,67,0,100
1,64,88,10
1,64,0,28
1,68,99,16
1,68,0,28
1,66,89,6
1,66,0,420
1,64,83,28
1,64,0,44
1,64,77,34
1,64,0,2
1,71,85,0
1,71,0,6
1,67,87,66
1,67,0,0
1,64,108,3952
1,64,0,68
1,64,85,34
1,64,0,66
1,67,117,4
1,67,0,370
1,67,112,14
1,64,91,198
1,67,0,0
1,64,0,60
1,67,110,0
1,67,0,0
1,64,102,6
1,64,0,6
1,67,106,12
1,67,0,132
1,67,112,64
1,67,0,70
1,67,110,8
1,67,0,4
1,71,114,20
1,71,0,326
1,71,102,16
1,69,98,200
1,71,0,6
1,69,0,54
1,67,100,66
1,67,0,18
1,64,100,16
1,64,0,0
1,67,113,492
1,67,0,76
1,67,125,34
1,67,0,146
1,64,100,98
1,64,0,10
1,67,112,2
1,67,0,98
1,64,97,6
1,64,0,128
1,67,98,10
1,67,0,110
1,71,104,2
1,71,0,164
1,71,110,40
1,71,0,188
1,71,104,0
1,71,0,132
1,71,98,50
1,71,0,74
1,71,100,4
1,71,0,18
1,69,108,16
1,69,0,126
1,69,104,60
1,69,0,172
1,71,108,56
1,71,0,148
1,69,98,0
1,69,0,34
1,69,100,44
1,69,0,4
1,62,104,42
1,62,0,166
1,64,114,58
1,64,0,0
1,67,94,0
1,67,0,234
1,67,100,84
1,67,0,262
1,67,108,8
1,67,0,254
1,64,100,72
1,64,0,234
1,67,106,22
1,67,0,22
1,64,100,16
1,64,0,352
1,64,102,18
1,64,0,2
1,64,104,42
1,64,0,326
1,74,113,58
1,74,0,0
1,71,104,6
1,71,0,54
1,71,98,50
1,71,0,38
1,71,100,40
1,71,0,38
1,71,102,44
1,71,0,54
1,71,104,68
1,71,0,58
1,69,106,4
1,69,0,460
1,74,108,68
1,74,0,10
1,74,104,44
1,74,0,108
1,71,106,98
1,71,0,430
1,69,108,14
1,69,0,58
1,71,102,40
1,71,0,64
1,69,97,10
1,69,0,44
1,66,95,24
1,66,0,396
1,71,104,6
1,71,0,54
1,71,98,50
1,71,0,38
1,71,100,40
1,71,0,38
1,71,102,44
1,71,0,54
1,71,104,68
1,71,0,58
1,69,106,4
1,69,0,460
1,74,108,68
1,74,0,10
1,74,104,44
1,74,0,108
1,71,106,98
1,71,0,430
1,69,108,14
1,69,0,58
1,71,102,40
1,71,0,64
1,69,97,10
1,69,0,44
1,66,95,24
1,66,0,396
1,74,90,8
1,74,0,58
1,76,98,54
1,76,0,84
1,76,80,72
1,76,0,54
1,76,110,44
1,76,0,78
1,76,88,64
1,76,0,44
1,76,117,48
1,76,0,60
1,71,112,0
1,71,0,0
1,69,108,98
1,69,0,0
1,71,104,0
1,74,100,60
1,71,0,18
1,74,0,40
1,71,106,10
1,74,86,62
1,71,0,26
1,74,0,44
1,71,97,0
1,74,102,34
1,71,0,30
1,74,0,48
1,71,108,0
1,71,0,414
1,67,100,14
1,67,0,34
1,64,97,4
1,64,0,72
1,64,110,94
1,64,0,4
1,74,90,8
1,74,0,58
1,76,98,54
1,76,0,84
1,76,80,72
1,76,0,54
1,76,110,44
1,76,0,78
1,76,88,64
1,76,0,44
1,76,117,48
1,76,0,60
1,71,112,0
1,71,0,0
1,69,108,98
1,69,0,0
1,71,104,0
1,71,104,0
1,71,0,34
1,71,100,54
1,71,0,0
1,71,0,84
1,71,100,72
1,71,0,84
1,69,100,0
1,67,98,20
1,69,0,4
1,67,0,114
1,64,102,24
1,64,0,0
1,71,108,0
1,71,0,36
1,71,100,62
1,71,0,88
1,69,97,58
1,69,0,74
1,71,104,6
1,71,0,0
1,67,98,0
1,67,0,58
1,64,106,118
1,64,0,0
1,76,106,6
1,76,0,38
1,76,98,54
1,76,0,78
1,74,106,78
1,74,0,68
1,71,110,88
1,71,0,74
1,69,110,108
1,69,0,0
1,71,112,20
1,71,0,0
2,28,81,484
2,28,0,224
2,40,85,10
2,38,85,164
2,40,0,20
2,35,63,56
2,38,0,10
2,38,88,232
2,35,0,8
2,28,74,230
2,38,0,6
2,40,83,232
2,28,0,6
2,38,84,236
2,40,0,16
2,35,70,224
2,38,0,10
2,38,81,150
2,35,0,2
2,28,80,80
2,38,0,0
2,28,0,234
2,40,81,4
2,38,85,166
2,40,0,22
2,35,73,58
2,38,0,12
2,38,83,226
2,35,0,0
2,28,84,236
2,38,0,2
2,40,92,238
2,28,0,0
2,38,87,240
2,40,0,18
2,35,74,222
2,38,0,0
2,35,0,158
2,38,84,2
2,28,94,84
2,38,0,6
2,28,0,212
2,40,80,18
2,38,80,164
2,40,0,10
2,35,70,72
2,38,0,10
2,38,80,226
2,35,0,4
2,28,84,236
2,38,0,10
2,40,85,228
2,28,0,0
2,38,78,244
2,40,0,0
2,35,69,236
2,38,0,4
2,38,76,156
2,35,0,8
2,38,0,68
2,28,79,6
2,28,0,238
2,40,79,4
2,38,79,162
2,40,0,6
2,35,72,76
2,38,0,10
2,35,0,220
2,38,85,6
2,38,0,228
2,28,81,8
2,40,79,240
2,28,0,4
2,38,80,236
2,40,0,10
2,35,61,230
2,38,0,8
2,35,0,148
2,38,80,2
2,28,85,86
2,38,0,22
2,28,0,216
2,40,76,2
2,38,84,162
2,40,0,10
2,35,68,70
2,38,0,10
2,38,77,230
2,35,0,0
2,28,80,238
2,38,0,16
2,40,74,220
2,28,0,2
2,38,85,242
2,40,0,0
2,35,73,236
2,38,0,4
2,35,0,154
2,38,85,2
2,28,84,82
2,38,0,10
2,28,0,224
2,40,80,6
2,38,86,162
2,40,0,0
2,35,71,82
2,38,0,20
2,35,0,218
2,38,84,2
2,28,85,238
2,38,0,10
2,28,0,218
2,40,83,8
2,38,80,240
2,40,0,10
2,38,0,224
2,35,70,4
2,38,84,160
2,35,0,4
2,28,84,78
2,38,0,4
2,28,0,220
2,40,86,16
2,38,85,160
2,40,0,2
2,35,76,78
2,38,0,0
2,35,0,234
2,38,87,4
2,28,91,244
2,38,0,10
2,28,0,224
2,40,88,4
2,40,0,224
2,38,90,12
2,35,78,242
2,38,0,6
2,35,0,152
2,38,88,2
2,28,88,80
2,38,0,2
2,40,85,240
2,28,0,2
2,38,87,158
2,40,0,2
2,35,73,78
2,38,0,6
2,35,0,228
2,38,87,6
2,28,78,242
2,38,0,32
2,40,78,210
2,28,0,8
2,40,0,212
2,38,85,12
2,35,70,242
2,38,0,8
2,38,81,154
2,35,0,6
2,28,84,74
2,38,0,22
2,28,0,212
2,40,80,8
2,38,85,162
2,40,0,10
2,35,66,70
2,38,0,6
2,38,80,234
2,35,0,4
2,28,86,236
2,38,0,14
2,40,85,226
2,28,0,4
2,40,0,214
2,38,87,16
2,35,78,242
2,38,0,2
2,38,85,160
2,35,0,16
2,28,95,66
2,38,0,0
2,28,0,228
2,40,79,10
2,38,80,162
2,40,0,6
2,38,0,54
2,35,73,20
2,35,0,208
2,38,97,32
2,28,97,240
2,38,0,4
2,28,0,220
2,40,90,12
2,38,98,240
2,40,0,14
2,38,0,214
2,35,84,10
2,38,92,158
2,35,0,4
2,38,0,72
2,28,104,6
2,40,97,242
2,28,0,12
2,38,97,148
2,40,0,18
2,35,91,66
2,38,0,18
2,35,0,214
2,38,112,8
2,28,100,242
2,38,0,12
2,40,97,224
2,28,0,8
2,38,106,230
2,40,0,16
2,35,86,224
2,38,0,4
2,35,0,154
2,38,102,2
2,28,97,84
2,38,0,22
2,28,0,208
2,40,95,8
2,38,106,162
2,40,0,6
2,35,84,76
2,38,0,20
2,38,100,214
2,35,0,0
2,28,98,244
2,38,0,4
2,28,0,226
2,40,98,6
2,38,106,240
2,40,0,14
2,38,0,210
2,35,86,12
2,38,104,162
2,35,0,6
2,28,104,76
2,38,0,20
2,40,95,222
2,28,0,2
2,38,98,160
2,40,0,16
2,35,83,62
2,38,0,12
2,38,102,230
2,35,0,2
2,28,100,240
2,38,0,26
2,40,98,214
2,28,0,4
2,38,104,232
2,40,0,12
2,38,0,216
2,35,85,8
2,38,102,162
2,35,0,10
2,28,95,76
2,38,0,10
2,28,0,224
2,40,92,4
2,38,98,160
2,40,0,12
2,35,85,68
2,38,0,6
2,35,0,218
2,38,98,10
2,28,98,246
2,38,0,28
2,28,0,200
2,40,94,12
2,38,100,236
2,40,0,6
2,38,0,224
2,35,90,8
2,38,102,162
2,35,0,6
2,28,100,74
2,38,0,10
2,28,0,228
2,40,97,6
2,38,100,160
2,40,0,12
2,35,92,68
2,38,0,6
2,35,0,212
2,38,98,16
2,28,95,242
2,38,0,32
2,28,0,202
2,40,98,6
2,38,102,240
2,40,0,20
2,35,86,218
2,38,0,0
2,38,102,160
2,35,0,4
2,28,102,78
2,38,0,10
2,28,0,208
2,40,95,22
2,38,95,160
2,40,0,22
2,35,80,62
2,38,0,18
2,35,0,204
2,38,106,12
2,28,102,246
2,38,0,8
2,28,0,212
2,40,97,16
2,38,98,238
2,40,0,10
2,38,0,228
2,35,92,2
2,35,0,158
2,38,102,2
2,28,92,82
2,38,0,18
2,40,98,220
2,28,0,2
2,38,97,160
2,40,0,16
2,35,91,64
2,38,0,6
2,38,98,236
2,35,0,12
2,28,95,232
2,38,0,20
2,28,0,198
2,40,104,16
2,38,106,240
2,40,0,10
2,35,94,230
2,38,0,0
2,38,102,160
2,35,0,12
2,28,98,74
2,38,0,16
2,28,0,196
2,40,90,26
2,38,98,158
2,40,0,14
2,35,92,68
2,38,0,8
2,35,0,216
2,38,98,12
2,28,92,240
2,38,0,14
2,28,0,218
2,40,98,8
2,38,98,240
2,40,0,18
2,38,0,200
2,35,87,18
2,38,102,162
2,35,0,10
2,28,104,70
2,38,0,6
2,40,97,236
2,28,0,12
2,38,97,148
2,40,0,18
2,35,91,66
2,38,0,18
2,35,0,214
2,38,112,8
2,28,100,242
2,38,0,12
2,40,97,224
2,28,0,8
2,38,106,230
2,40,0,16
2,35,86,224
2,38,0,4
2,35,0,154
2,38,102,2
2,28,97,84
2,38,0,22
2,28,0,208
2,40,95,8
2,38,106,162
2,40,0,6
2,35,84,76
2,38,0,20
2,38,100,214
2,35,0,0
2,28,98,244
2,38,0,4
2,28,0,226
2,40,98,6
2,38,106,240
2,40,0,14
2,38,0,210
2,35,86,12
2,38,104,162
2,35,0,6
2,28,104,76
2,38,0,20
2,40,95,222
2,28,0,2
2,38,98,160
2,40,0,16
2,35,83,62
2,38,0,12
2,38,102,230
2,35,0,2
2,28,100,240
2,38,0,26
2,40,98,214
2,28,0,4
2,38,104,232
2,40,0,12
2,38,0,216
2,35,85,8
2,38,102,162
2,35,0,10
2,28,95,76
2,38,0,10
2,28,0,224
2,40,92,4
2,38,98,160
2,40,0,12
2,35,85,68
2,38,0,6
2,35,0,218
2,38,98,10
2,28,98,246
2,38,0,28
2,28,0,200
2,40,94,12
2,38,100,236
2,40,0,6
2,38,0,224
2,35,90,8
2,38,102,162
2,35,0,6
2,28,100,74
2,38,0,10
2,28,0,228
2,40,97,6
2,38,100,160
2,40,0,12
2,35,92,68
2,38,0,6
2,35,0,212
2,38,98,16
2,28,95,242
2,38,0,32
2,28,0,202
2,40,98,6
2,38,102,240
2,40,0,20
2,35,86,218
2,38,0,0
2,38,102,160
2,35,0,4
2,28,102,78
2,38,0,10
2,28,0,208
2,40,95,22
2,38,95,160
2,40,0,22
2,35,80,62
2,38,0,18
2,35,0,204
2,38,106,12
2,38,85,246
2,38,0,8
2,38,0,20
2,38,112,48
2,38,0,54
2,38,127,106
2,33,108,240
