track,note,velocity,time
1,47,104,8064
1,47,0,3
1,47,90,42
1,47,0,2
1,45,84,47
1,45,0,3
1,45,91,47
1,45,0,3
1,45,92,94
1,45,0,3
1,41,93,46
1,41,0,3
1,41,93,93
1,41,0,3
1,46,116,90
1,49,102,1
1,36,115,1
1,46,0,28
1,36,0,14
1,38,119,50
1,46,125,1
1,38,0,20
1,46,0,10
1,49,0,26
1,46,99,43
1,46,0,72
1,46,100,20
1,36,118,0
1,36,0,48
1,46,0,24
1,36,114,24
1,46,101,4
1,46,0,72
1,36,0,5
1,38,108,16
1,46,118,4
1,38,0,11
1,46,0,55
1,36,114,25
1,46,110,4
1,46,0,75
1,36,0,2
1,46,110,20
1,46,0,66
1,46,104,26
1,36,113,2
1,46,0,73
1,36,0,11
1,46,116,12
1,38,104,1
1,38,0,6
1,46,0,68
1,46,107,21
1,46,0,75
1,46,110,22
1,36,112,1
1,36,0,33
1,46,0,41
1,38,115,18
1,46,105,1
1,36,114,3
1,38,0,14
1,46,0,58
1,36,0,9
1,46,112,11
1,38,113,3
1,38,0,9
1,38,116,36
1,38,0,9
1,46,0,18
1,46,106,22
1,57,111,2
1,46,0,73
1,57,0,11
1,46,127,8
1,46,0,42
1,36,122,57
1,46,127,1
1,46,0,42
1,36,0,29
1,46,124,22
1,38,121,4
1,38,0,36
1,46,0,2
1,46,123,58
1,46,0,45
1,46,127,47
1,36,119,4
1,46,0,41
1,36,0,1
1,36,120,53
1,46,124,1
1,36,0,35
1,46,0,7
1,36,7,3
1,36,0,1
1,46,124,45
1,38,115,5
1,38,0,36
1,46,0,7
1,36,107,52
1,46,127,1
1,36,0,38
1,46,0,4
1,46,127,53
1,46,0,45
1,46,127,47
1,36,107,5
1,46,0,40
1,36,0,47
1,46,127,7
1,38,114,1
1,38,0,33
1,46,0,11
1,46,116,48
1,46,0,42
1,46,125,56
1,36,116,2
1,36,0,39
1,46,0,4
1,36,121,53
1,46,117,1
1,46,0,39
1,36,0,2
1,46,127,50
1,40,91,2
1,47,110,2
1,40,0,7
1,47,0,14
1,46,0,23
1,45,107,4
1,45,0,15
1,36,109,29
1,46,127,1
1,41,108,2
1,36,0,9
1,41,0,6
1,46,0,25
1,49,95,55
1,49,0,63
1,36,127,31
1,46,122,1
1,46,0,42
1,36,0,29
1,38,117,25
1,46,124,3
1,38,0,24
1,46,0,18
1,46,127,50
1,46,0,45
1,36,117,51
1,46,127,3
1,36,0,39
1,46,0,6
1,46,127,50
1,36,124,1
1,36,0,36
1,46,0,5
1,36,4,4
1,36,0,1
1,38,124,48
1,46,127,1
1,38,0,35
1,46,0,13
1,36,107,47
1,46,127,3
1,36,0,36
1,46,0,6
1,46,124,53
1,46,0,45
1,36,118,48
1,46,127,3
1,46,0,45
1,36,0,39
1,38,107,11
1,46,127,0
1,38,0,33
1,46,0,12
1,46,114,54
1,46,0,42
1,36,117,51
1,46,123,2
1,36,0,37
1,46,0,8
1,36,127,49
1,46,118,3
1,36,0,39
1,46,0,0
1,46,127,52
1,40,99,0
1,47,110,5
1,40,0,4
1,47,0,17
1,46,0,22
1,45,108,0
1,45,0,15
1,46,125,34
1,36,97,2
1,41,109,0
1,36,0,12
1,41,0,3
1,46,0,25
1,46,127,57
1,46,0,42
1,46,123,51
1,36,127,4
1,46,0,38
1,36,0,34
1,38,119,20
1,46,127,4
1,38,0,32
1,46,0,10
1,46,123,53
1,46,0,45
1,36,113,48
1,46,127,4
1,36,0,38
1,46,0,7
1,36,125,49
1,46,127,2
1,36,0,34
1,46,0,8
1,36,1,2
1,36,0,1
1,38,116,48
1,46,125,0
1,38,0,36
1,46,0,12
1,36,118,49
1,46,120,2
1,36,0,37
1,46,0,5
1,46,124,52
1,46,0,45
1,36,117,52
1,46,123,1
1,46,0,45
1,36,0,41
1,46,127,8
1,38,106,2
1,38,0,33
1,46,0,10
1,46,123,52
1,46,0,42
1,46,126,50
1,36,118,1
1,36,0,39
1,46,0,5
1,36,121,52
1,38,117,3
1,46,114,0
1,38,0,21
1,36,0,18
1,46,0,0
1,46,126,53
1,38,97,2
1,38,0,9
1,46,0,37
1,38,106,3
1,38,0,15
1,36,100,32
1,46,127,3
1,36,0,9
1,46,0,33
1,36,113,8445
1,53,108,0
1,36,0,30
1,53,0,48
1,53,115,15
1,53,0,78
1,53,116,20
1,36,121,3
1,36,0,33
1,53,0,42
1,53,113,16
1,38,123,1
1,38,0,33
1,53,0,44
1,53,108,20
1,53,0,78
1,36,118,19
1,53,116,2
1,36,0,31
1,53,0,47
1,53,112,13
1,36,126,2
1,36,0,33
1,53,0,43
1,38,126,19
1,53,106,4
1,38,0,29
1,53,0,49
1,36,115,15
1,53,118,3
1,36,0,30
1,53,0,48
1,53,110,18
1,53,0,78
1,49,108,14
1,36,114,2
1,36,0,33
1,49,0,43
1,53,111,19
1,38,120,1
1,38,0,33
1,53,0,44
1,53,117,16
1,36,121,3
1,36,0,33
1,53,0,42
1,53,116,20
1,48,105,2
1,48,0,6
1,53,0,70
1,41,113,18
1,47,105,2
1,53,112,0
1,41,0,7
1,47,0,2
1,47,105,35
1,41,125,2
1,47,0,10
1,41,0,2
1,53,0,20
1,53,117,15
1,38,105,2
1,38,0,12
1,41,106,33
1,41,0,12
1,53,0,19
1,53,111,17
1,36,123,2
1,36,0,33
1,53,0,43
1,53,104,19
1,53,0,78
1,53,111,17
1,36,120,2
1,36,0,33
1,53,0,43
1,53,115,18
1,38,126,5
1,38,0,33
1,53,0,40
1,53,107,21
1,53,0,78
1,53,115,17
1,36,123,0
1,36,0,33
1,53,0,45
1,53,113,20
1,36,123,1
1,36,0,33
1,53,0,44
1,53,107,16
1,38,123,2
1,38,0,33
1,53,0,43
1,36,125,19
1,53,106,0
1,36,0,33
1,53,0,45
1,53,107,20
1,53,0,78
1,49,114,15
1,36,113,0
1,36,0,33
1,49,0,45
1,53,108,19
1,38,114,2
1,38,0,33
1,53,0,43
1,53,115,20
1,36,121,0
1,36,0,33
1,53,0,45
1,53,105,18
1,47,107,46
1,47,0,12
1,53,0,20
1,53,113,16
1,45,118,2
1,45,0,9
1,45,115,35
1,45,0,12
1,53,0,20
1,38,106,18
1,53,109,2
1,38,0,10
1,41,108,36
1,41,0,12
1,53,0,20
1,36,112,14
1,53,108,0
1,36,0,33
1,53,0,45
1,53,113,18
1,53,0,78
1,53,110,21
1,36,126,1
1,36,0,33
1,53,0,44
1,53,118,16
1,38,114,1
1,38,0,33
1,53,0,44
1,53,113,19
1,53,0,78
1,36,124,16
1,53,107,1
1,36,0,32
1,53,0,46
1,53,104,18
1,36,122,2
1,36,0,33
1,53,0,43
1,38,123,19
1,53,108,1
1,38,0,32
1,53,0,46
1,36,126,14
1,53,106,2
1,36,0,31
1,53,0,47
1,53,114,21
1,53,0,78
1,36,121,13
1,53,117,4
1,36,0,29
1,53,0,49
1,38,122,16
1,53,105,2
1,38,0,31
1,53,0,47
1,36,124,14
1,53,113,4
1,36,0,29
1,36,125,20
1,53,0,29
1,36,0,4
1,53,118,14
1,40,126,46
1,53,0,32
1,40,0,1
1,53,117,14
1,47,113,0
1,47,0,33
1,47,110,17
1,47,0,12
1,53,0,16
1,53,110,17
1,45,118,2
1,45,0,12
1,53,0,64
1,36,123,23
1,53,110,0
1,36,0,33
1,53,0,45
1,53,112,13
1,53,0,78
1,53,109,20
1,36,119,1
1,36,0,33
1,53,0,44
1,53,105,20
1,53,0,78
1,53,106,18
1,38,113,48
1,53,0,30
1,38,0,3
1,53,117,12
1,36,122,4
1,36,0,33
1,53,0,41
1,36,119,17
1,53,118,2
1,36,0,31
1,53,0,47
1,38,116,18
1,53,108,1
1,38,0,32
1,53,0,46
1,53,113,19
1,36,123,0
1,36,0,33
1,53,0,45
1,53,111,16
1,53,0,78
1,36,118,20
1,53,113,1
1,36,0,32
1,53,0,46
1,53,118,13
1,38,117,5
1,38,0,33
1,53,0,40
1,53,110,22
1,53,0,78
1,53,110,19
1,36,119,0
1,36,0,33
1,40,126,10
1,40,0,33
1,53,0,2
1,53,110,16
1,45,124,2
1,45,0,33
1,47,109,11
1,47,0,12
1,53,0,20
1,45,105,15
1,53,104,2
1,45,0,10
1,41,107,40
1,41,0,12
1,53,0,16
1,36,118,18
1,53,109,2
1,36,0,31
1,53,0,47
1,53,104,18
1,53,0,78
1,53,113,14
1,36,116,4
1,36,0,33
1,53,0,41
1,38,123,18
1,53,110,4
1,38,0,29
1,53,0,49
1,53,114,17
1,38,124,45
1,53,0,33
1,38,0,0
1,53,106,17
1,38,126,49
1,53,0,29
1,38,0,4
1,36,114,13
1,53,112,2
1,36,0,31
1,36,126,17
1,53,0,30
1,36,0,3
1,38,117,12
1,53,113,5
1,38,0,28
1,36,116,18
1,53,0,32
1,36,0,1
1,53,115,12
1,36,112,3
1,36,0,33
1,53,0,42
1,53,118,21
1,53,0,78
1,36,122,16
1,53,105,4
1,36,0,29
1,53,0,49
1,53,111,17
1,38,119,1
1,38,0,33
1,53,0,44
1,36,123,14
1,53,110,3
1,36,0,30
1,53,0,48
1,53,112,15
1,42,112,4
1,42,0,33
1,46,125,11
1,53,0,30
1,46,0,3
1,53,104,15
1,42,113,3
1,42,0,33
1,44,105,15
1,44,0,12
1,53,0,15
1,38,116,18
1,53,115,1
1,38,0,11
1,41,110,36
1,41,0,12
1,53,0,19
1,36,120,19
1,53,106,2
1,36,0,31
1,53,0,47
1,53,107,18
1,53,0,78
1,53,111,14
1,36,112,5
1,36,0,33
1,53,0,40
1,53,107,18
1,38,117,3
1,38,0,33
1,53,0,42
1,53,105,20
1,53,0,78
1,36,121,16
1,53,110,1
1,36,0,32
1,53,0,46
1,53,111,18
1,36,120,4
1,36,0,33
1,53,0,41
1,38,119,17
1,53,117,2
1,38,0,31
1,53,0,47
1,53,115,20
1,36,113,0
1,36,0,33
1,53,0,45
1,53,117,16
1,53,0,78
1,36,123,18
1,49,116,3
1,36,0,30
1,49,0,48
1,53,113,13
1,38,119,3
1,38,0,33
1,53,0,42
1,36,124,20
1,53,114,1
1,36,0,32
1,53,0,46
1,53,104,20
1,48,104,0
1,48,0,6
1,48,96,40
1,48,0,12
1,53,0,20
1,50,108,13
1,53,105,1
1,50,0,8
1,50,114,40
1,50,0,12
1,53,0,18
1,53,113,17
1,44,105,5
1,44,0,12
1,46,118,32
1,46,0,12
1,53,0,17
1,53,106,19
1,36,122,3
1,36,0,33
1,53,0,42
1,53,114,19
1,53,0,78
1,53,116,17
1,38,124,48
1,53,0,30
1,38,0,3
1,53,118,14
1,36,122,3
1,36,0,33
1,53,0,42
1,53,106,22
1,53,0,78
1,53,106,16
1,36,118,3
1,36,0,33
1,53,0,42
1,53,114,17
1,36,116,0
1,36,0,33
1,53,0,45
1,38,117,19
1,53,107,3
1,38,0,30
1,53,0,48
1,53,108,13
1,36,118,4
1,36,0,33
1,53,0,41
1,53,111,22
1,53,0,78
1,36,112,15
1,53,118,2
1,36,0,31
1,53,0,47
1,38,115,15
1,53,117,3
1,38,0,30
1,53,0,48
1,53,116,16
1,36,118,2
1,36,0,33
1,36,116,14
1,53,0,29
1,36,0,4
1,53,109,17
1,40,125,45
1,53,0,33
1,40,0,0
1,53,112,18
1,41,121,1
1,41,0,33
1,41,113,12
1,41,0,12
1,53,0,20
1,53,109,18
1,38,118,1
1,38,0,12
1,41,118,33
1,41,0,12
1,53,0,20
1,36,123,15
1,53,115,2
1,36,0,31
1,53,0,47
1,53,105,20
1,53,0,78
1,36,114,13
1,53,107,2
1,36,0,31
1,53,0,47
1,53,117,19
1,38,118,2
1,38,0,33
1,53,0,43
1,53,116,17
1,38,112,46
1,53,0,32
1,38,0,1
1,53,114,18
1,38,118,47
1,53,0,31
1,38,0,2
1,53,117,13
1,36,113,0
1,36,0,33
1,36,124,17
1,53,0,28
1,36,0,5
1,53,117,15
1,38,126,2
1,38,0,33
1,36,115,14
1,53,0,29
1,36,0,4
1,53,115,13
1,36,122,2
1,36,0,33
1,53,0,43
1,53,118,21
1,53,0,78
1,53,116,15
1,36,117,4
1,36,0,33
1,53,0,41
1,38,121,17
1,53,117,2
1,38,0,31
1,53,0,47
1,53,104,16
1,36,117,0
1,36,0,33
1,53,0,45
1,36,117,18
1,46,116,3
1,36,0,30
1,36,117,15
1,46,0,33
1,36,0,0
1,38,117,15
1,46,118,4
1,38,0,29
1,38,117,15
1,38,0,33
1,46,0,1
1,46,106,14
1,36,117,0
1,36,0,33
1,36,117,15
1,46,0,30
1,36,0,3
1,46,127,17
1,46,0,41
1,46,127,53
1,36,120,2
1,46,0,40
1,36,0,32
1,46,121,22
1,38,121,3
1,38,0,36
1,46,0,3
1,46,127,56
1,46,0,45
1,46,126,50
1,36,121,0
1,36,0,42
1,46,0,3
1,46,127,49
1,36,117,0
1,36,0,36
1,46,0,6
1,36,1,7
1,36,0,1
1,46,127,46
1,38,115,1
1,38,0,36
1,46,0,11
1,36,109,48
1,46,125,4
1,36,0,35
1,46,0,7
1,46,124,53
1,46,0,45
1,36,105,50
1,46,127,0
1,46,0,45
1,36,0,42
1,46,122,7
1,38,114,5
1,38,0,33
1,46,0,7
1,46,121,52
1,46,0,42
1,36,117,53
1,46,120,3
1,36,0,36
1,46,0,9
1,38,101,3
1,38,0,9
1,46,125,38
1,36,127,0
1,46,0,39
1,36,0,3
1,40,101,7
1,40,0,9
1,46,123,36
1,36,127,2
1,36,0,42
1,46,0,4
1,47,112,4
1,47,0,21
1,45,103,24
1,46,127,1
1,45,0,14
1,46,0,28
1,41,104,6
1,41,0,15
1,46,126,36
1,46,0,42
1,36,127,51
1,46,127,1
1,46,0,42
1,36,0,29
1,46,125,22
1,38,121,2
1,38,0,36
1,46,0,4
1,46,126,55
1,46,0,45
1,36,121,50
1,46,121,2
1,36,0,40
1,46,0,5
1,36,114,51
1,46,126,2
1,36,0,34
1,46,0,8
1,36,1,3
1,36,0,1
1,46,127,46
1,38,126,2
1,38,0,36
1,46,0,10
1,46,127,48
1,36,114,2
1,36,0,39
1,46,0,1
1,46,127,59
1,46,0,45
1,36,106,47
1,46,127,4
1,46,0,45
1,36,0,38
1,38,116,9
1,46,120,4
1,38,0,29
1,46,0,16
1,46,123,48
1,46,0,42
1,46,127,53
1,36,112,3
1,36,0,39
1,46,0,3
1,47,116,3
1,47,0,21
1,47,116,27
1,46,118,3
1,47,0,18
1,46,0,21
1,45,98,7
1,45,0,15
1,45,98,33
1,46,127,1
1,45,0,14
1,41,112,33
1,46,0,1
1,41,0,14
1,46,121,33
1,41,112,0
1,41,0,15
1,46,0,27
1,38,127,4
1,38,0,42
1,46,127,10
1,46,0,42
1,46,127,50
1,36,127,4
1,46,0,38
1,36,0,34
1,46,122,22
1,38,116,1
1,38,0,36
1,46,0,5
1,46,124,54
1,46,0,45
1,46,123,51
1,36,115,3
1,46,0,42
1,36,0,0
1,46,127,49
1,36,117,5
1,36,0,36
1,46,0,1
1,36,7,9
1,36,0,1
1,46,127,44
1,38,115,2
1,38,0,36
1,46,0,10
1,36,112,50
1,46,127,3
1,36,0,36
1,46,0,6
1,46,127,49
1,49,111,0
1,46,0,45
1,36,105,55
1,46,122,1
1,46,0,45
1,49,0,34
1,36,0,7
1,38,115,7
1,46,126,3
1,38,0,33
1,46,0,12
1,46,116,47
1,46,0,42
1,36,112,53
1,46,127,1
1,36,0,38
1,46,0,7
1,36,127,50
1,46,122,5
1,36,0,37
1,46,0,2
1,47,107,54
1,46,127,2
1,40,93,1
1,40,0,9
1,47,0,9
1,46,0,29
1,45,96,0
1,45,0,15
1,46,123,29
1,41,107,4
1,36,101,1
1,36,0,12
1,41,0,2
1,46,0,23
1,46,120,58
1,46,0,42
1,36,127,53
1,46,123,2
1,46,0,42
1,36,0,28
1,38,113,22
1,46,127,4
1,38,0,32
1,46,0,10
1,46,125,52
1,46,0,45
1,46,126,50
1,36,112,3
1,46,0,42
1,36,0,0
1,46,123,51
1,36,115,2
