track,note,velocity,time
0,40,115,1464
0,40,100,60
0,35,101,60
0,31,113,0
0,72,107,0
0,67,107,0
0,35,126,0
0,49,87,0
0,43,93,0
0,62,110,0
0,67,111,0
0,72,111,0
0,31,110,10
0,31,93,14
0,35,101,0
0,62,102,0
0,67,103,0
0,72,102,0
0,31,111,38
0,40,119,0
0,42,101,0
0,42,54,23
0,55,74,0
0,31,100,0
0,71,106,0
0,67,106,0
0,35,125,0
0,42,71,0
0,62,103,0
0,67,103,0
0,71,102,0
0,31,111,38
0,42,101,0
0,55,74,0
0,31,92,0
0,42,56,0
0,31,100,38
0,35,124,0
0,42,71,0
0,67,113,0
0,55,75,0
0,31,115,0
0,67,109,0
0,67,109,0
0,40,119,0
0,42,100,0
0,62,112,0
0,31,103,38
0,42,58,0
0,55,100,0
0,42,71,0
0,36,112,0
0,55,101,0
0,60,100,0
0,60,101,0
0,64,100,0
0,35,127,0
0,42,101,0
0,48,93,0
0,62,112,0
0,67,113,0
0,72,113,0
0,36,110,7
0,42,70,0
0,36,93,14
0,35,100,0
0,62,98,0
0,67,99,0
0,72,98,0
0,36,111,38
0,40,116,0
0,42,100,0
0,48,74,2
0,36,100,38
0,35,124,0
0,42,71,0
0,62,117,0
0,67,117,0
0,71,116,0
0,36,110,38
0,42,101,0
0,48,74,0
0,36,93,38
0,42,62,0
0,62,103,0
0,67,103,0
0,71,102,0
0,36,100,38
0,35,125,0
0,42,70,0
0,48,74,60
0,36,115,38
0,40,117,0
0,42,101,0
0,67,115,0
0,42,64,0
0,36,103,0
0,46,71,0
0,62,112,0
0,28,112,38
0,62,111,0
0,67,111,0
0,35,127,0
0,42,101,0
0,52,91,0
0,62,111,0
0,67,110,0
0,72,111,0
0,28,111,29
0,42,71,0
0,28,92,24
0,35,100,0
0,42,74,0
0,62,102,0
0,67,102,0
0,72,103,0
0,28,110,38
0,40,118,0
0,42,101,0
0,52,75,9
0,28,101,0
0,67,110,0
0,67,110,0
0,35,124,0
0,42,70,0
0,62,102,0
0,67,102,0
0,71,103,0
0,28,111,38
0,42,100,0
0,52,75,0
0,28,92,0
0,42,47,0
0,28,100,38
0,35,125,0
0,42,71,0
0,67,112,0
0,52,74,0
0,28,115,0
0,62,112,0
0,67,112,0
0,40,118,0
0,42,100,0
0,62,113,0
0,42,64,60
0,28,103,38
0,42,71,0
0,55,100,0
0,42,85,0
0,36,112,0
0,55,97,0
0,60,97,0
0,60,97,0
0,64,97,0
0,35,127,0
0,42,100,0
0,48,91,0
0,62,111,0
0,67,110,0
0,72,111,0
0,36,110,8
0,42,70,0
0,36,93,22
0,35,100,0
0,62,102,0
0,67,102,0
0,72,103,0
0,36,110,38
0,40,119,0
0,42,101,0
0,48,75,9
0,36,101,38
0,35,124,0
0,42,70,0
0,62,114,0
0,67,114,0
0,71,115,0
0,42,85,60
0,36,111,38
0,42,101,0
0,48,75,0
0,36,92,38
0,42,56,0
0,62,102,0
0,67,98,0
0,71,103,0
0,36,101,38
0,35,125,0
0,42,71,0
0,48,74,32
0,36,114,38
0,40,119,0
0,42,100,0
0,67,117,0
0,42,60,0
0,30,102,0
0,40,108,0
0,46,70,0
0,62,113,0
0,40,104,57
0,31,113,38
0,72,106,0
0,67,106,0
0,35,126,0
0,49,86,0
0,43,92,0
0,62,111,0
0,67,110,0
0,72,110,0
0,31,111,10
0,31,92,14
0,35,101,0
0,62,103,0
0,67,103,0
0,72,102,0
0,31,110,38
0,40,119,0
0,42,101,0
0,42,55,23
0,55,74,0
0,31,101,0
0,71,106,0
0,67,106,0
0,35,125,0
0,42,70,0
0,62,103,0
0,67,103,0
0,71,102,0
0,31,111,38
0,42,100,0
0,55,74,0
0,31,92,0
0,42,57,0
0,31,100,38
0,35,124,0
0,42,71,0
0,67,113,0
0,55,74,0
0,31,115,0
0,67,109,0
0,67,109,0
0,40,119,0
0,42,100,0
0,62,113,0
0,31,102,38
0,42,58,0
0,55,101,0
0,42,71,0
0,36,113,0
0,55,101,0
0,60,100,0
0,60,101,0
0,64,100,0
0,35,127,0
0,42,100,0
0,48,92,0
0,62,113,0
0,67,112,0
0,72,112,0
0,36,111,7
0,42,71,0
0,36,92,14
0,35,100,0
0,62,99,0
0,67,99,0
0,72,98,0
0,36,111,38
0,40,116,0
0,42,101,0
0,48,74,2
0,36,100,38
0,35,124,0
0,42,70,0
0,62,117,0
0,67,117,0
0,71,116,0
0,36,110,38
0,42,101,0
0,48,74,0
0,36,93,38
0,42,62,0
0,62,103,0
0,67,102,0
0,71,103,0
0,36,101,38
0,35,125,0
0,42,70,0
0,48,75,60
0,36,114,38
0,40,116,0
0,42,101,0
0,67,114,0
0,42,65,0
0,36,102,0
0,46,71,0
0,62,113,0
0,28,113,38
0,62,110,0
0,67,110,0
0,35,127,0
0,42,100,0
0,52,90,0
0,62,110,0
0,67,111,0
0,72,111,0
0,28,111,29
0,42,70,0
0,28,92,24
0,35,100,0
0,42,75,0
0,62,102,0
0,67,102,0
0,72,103,0
0,28,110,38
0,40,119,0
0,42,101,0
0,52,75,9
0,28,101,0
0,67,111,0
0,67,111,0
0,35,124,0
0,42,70,0
0,62,102,0
0,67,102,0
0,71,103,0
0,28,110,38
0,42,100,0
0,52,74,0
0,28,93,0
0,42,47,0
0,28,101,38
0,35,125,0
0,42,70,0
0,67,113,0
0,52,75,0
0,28,114,0
0,62,112,0
0,67,112,0
0,40,118,0
0,42,101,0
0,62,112,0
0,42,65,60
0,28,103,38
0,42,70,0
0,55,101,0
0,42,85,0
0,36,112,0
0,55,97,0
0,60,97,0
0,60,97,0
0,64,97,0
0,35,127,0
0,42,100,0
0,48,90,0
0,62,110,0
0,67,111,0
0,72,111,0
0,36,110,8
0,42,70,0
0,36,93,22
0,35,100,0
0,62,102,0
0,67,102,0
0,72,103,0
0,36,111,38
0,40,119,0
0,42,101,0
0,48,75,9
0,36,100,38
0,35,124,0
0,42,71,0
0,62,114,0
0,67,114,0
0,71,115,0
0,42,82,60
0,36,110,38
0,42,100,0
0,48,74,0
0,36,93,38
0,62,103,0
0,67,99,0
0,71,102,0
0,36,101,38
0,35,125,0
0,42,71,0
0,48,75,32
0,35,114,38
0,40,117,0
0,67,116,0
0,40,94,0
0,33,102,0
0,40,105,0
0,62,112,0
0,40,118,57
0,31,107,0
0,43,82,0
0,35,100,0
0,46,95,0
0,50,63,10
0,42,65,10
0,43,58,10
0,42,84,0
0,50,38,10
0,42,64,10
0,43,61,0
0,42,85,0
0,50,41,10
0,42,66,60
0,31,100,28
0,43,82,0
0,35,101,0
0,46,88,0
0,50,62,10
0,42,63,60
0,43,59,28
0,42,85,0
0,50,39,10
0,42,64,60
0,43,58,28
0,42,83,0
0,50,38,10
0,42,64,60
0,43,65,28
0,46,85,0
0,50,44,10
0,42,62,60
0,43,59,28
0,42,83,0
0,50,39,10
0,42,67,60
0,36,103,28
0,48,76,0
0,35,101,0
0,46,94,0
0,55,57,10
0,42,64,60
0,48,56,28
0,42,84,0
0,55,36,10
0,42,65,60
0,48,55,0
0,42,85,0
0,55,35,10
0,42,66,60
0,36,101,10
0,48,82,0
0,35,100,0
0,46,88,0
0,55,62,10
0,42,62,10
0,48,55,28
0,42,85,0
0,55,35,10
0,42,64,60
0,48,54,28
0,42,83,0
0,55,34,10
0,42,65,60
0,48,65,28
0,46,85,0
0,55,44,10
0,42,62,60
0,48,57,28
0,42,65,0
0,55,37,10
0,42,76,0
0,42,84,0
0,42,89,0
0,28,104,0
0,40,84,0
0,35,101,0
0,46,95,0
0,47,65,10
0,42,65,60
0,40,58,28
0,42,84,0
0,47,38,10
0,42,64,60
0,40,57,0
0,42,85,0
0,47,37,10
0,42,67,60
0,28,101,28
0,40,82,0
0,35,100,0
0,46,88,0
0,47,62,10
0,42,62,60
0,40,59,28
0,42,84,0
0,47,39,10
0,42,65,60
0,40,56,28
0,42,82,0
0,47,36,10
0,42,65,60
0,40,65,28
0,46,84,0
0,47,44,10
0,42,63,60
0,40,55,28
0,42,82,0
0,47,35,10
0,42,67,60
0,36,102,28
0,48,82,0
0,35,100,0
0,46,95,0
0,55,63,10
0,42,64,60
0,48,54,28
0,42,84,0
0,55,34,10
0,42,65,60
0,48,59,0
0,42,85,0
0,55,39,10
0,42,66,28
0,36,100,28
0,48,78,0
0,35,101,0
0,46,89,0
0,55,58,10
0,42,62,60
0,48,59,28
0,42,85,0
0,55,39,10
0,42,65,60
0,48,52,28
0,42,82,0
0,55,32,10
0,42,64,60
0,48,65,28
0,46,84,0
0,55,44,10
0,42,63,60
0,30,103,28
0,48,53,0
0,42,64,0
0,55,33,10
0,42,77,0
0,42,85,0
0,42,88,0
0,31,107,0
0,43,82,0
0,35,101,0
0,46,94,0
0,50,63,10
0,42,65,60
0,43,58,28
0,42,84,0
0,50,38,10
0,42,64,60
0,43,61,0
0,42,85,0
0,50,41,10
0,42,67,60
0,31,100,28
0,43,82,0
0,35,100,0
0,46,89,0
0,50,62,10
0,42,62,60
0,43,59,28
0,42,84,0
0,50,39,10
0,42,65,60
0,43,58,28
0,42,83,0
0,50,38,10
0,42,64,60
0,43,65,28
0,46,84,0
0,50,44,10
0,42,62,60
0,43,59,28
0,42,83,0
0,50,39,10
0,42,66,29
0,36,102,28
0,48,76,0
0,35,100,0
0,46,95,0
0,55,57,10
0,42,65,60
0,48,56,28
0,42,85,0
0,55,36,10
0,42,64,60
0,48,55,0
0,42,85,0
0,55,35,10
0,42,66,60
0,36,101,28
0,48,82,0
0,35,101,0
0,46,89,0
0,55,62,10
0,42,62,60
0,48,55,28
0,42,85,0
0,55,35,10
0,42,65,60
0,48,54,28
0,42,82,0
0,55,34,10
0,42,64,60
0,48,65,28
0,46,84,0
0,55,44,10
0,42,63,60
0,48,57,28
0,42,65,0
0,55,37,10
0,42,76,0
0,42,84,0
0,42,89,0
0,28,105,0
0,40,84,0
0,35,101,0
0,46,95,0
0,47,65,10
0,42,64,60
0,40,58,28
0,42,85,0
0,47,38,10
0,42,65,60
0,40,57,0
0,42,84,0
0,47,37,10
0,42,67,60
0,28,100,28
0,40,82,0
0,35,100,0
0,46,88,0
0,47,62,10
0,42,62,60
0,40,59,28
0,42,84,0
0,47,39,10
0,42,65,60
0,40,56,28
0,42,83,0
0,47,36,10
0,42,64,60
0,40,65,28
0,46,84,0
0,47,44,10
0,42,62,60
0,40,55,28
0,42,83,0
0,67,81,0
0,47,35,10
0,42,67,60
0,36,102,28
0,48,82,0
0,35,100,0
0,46,95,0
0,67,89,0
0,74,88,0
0,55,63,10
0,42,64,60
0,48,54,28
0,42,84,0
0,72,82,0
0,55,34,10
0,42,65,60
0,48,59,0
0,42,84,0
0,55,39,10
0,42,67,60
0,36,101,0
0,48,78,0
0,35,101,0
0,46,89,0
0,67,81,0
0,71,81,0
0,55,58,10
0,42,63,60
0,48,59,28
0,42,84,0
0,55,39,10
0,42,65,60
0,48,52,28
0,46,100,0
0,67,84,0
0,55,32,10
0,48,65,28
0,40,110,0
0,42,100,0
0,55,44,10
0,42,62,60
0,30,102,0
0,48,53,0
0,67,105,0
0,46,70,0
0,55,33,10
0,31,107,0
0,43,96,0
0,35,100,0
0,49,71,0
0,71,72,10
0,42,65,60
0,69,104,0
0,42,85,0
0,42,64,60
0,71,105,0
0,42,84,0
0,42,67,60
0,31,101,0
0,55,97,0
0,72,105,0
0,35,101,0
0,46,89,0
0,79,71,5
0,42,63,60
0,71,104,0
0,42,84,0
0,42,64,60
0,42,83,60
0,42,64,60
0,47,96,0
0,67,105,0
0,46,85,0
0,71,68,10
0,42,63,60
0,67,104,0
0,42,83,0
0,42,66,60
0,36,102,0
0,48,96,0
0,35,101,0
0,46,94,0
0,72,73,5
0,42,65,60
0,69,104,0
0,42,84,0
0,42,64,60
0,71,105,0
0,42,85,0
0,42,67,60
0,36,101,0
0,55,97,0
0,72,105,0
0,35,100,0
0,46,88,0
0,79,75,10
0,42,62,60
0,71,104,0
0,42,84,0
0,42,65,60
0,42,83,60
0,42,64,60
0,48,97,0
0,67,104,0
0,46,85,0
0,72,72,10
0,42,62,60
0,67,105,0
0,42,65,0
0,42,76,0
0,42,85,0
0,42,89,0
0,28,104,0
0,47,96,0
0,35,101,0
0,46,94,0
0,71,69,10
0,42,64,60
0,69,105,0
0,42,85,0
0,42,64,60
0,71,104,0
0,42,84,0
0,42,67,60
0,28,100,0
0,55,96,0
0,72,104,0
0,35,100,0
0,46,89,0
0,79,68,10
0,42,63,60
0,71,105,0
0,42,84,0
0,42,64,60
0,67,104,0
0,42,83,0
0,42,65,60
0,47,97,0
0,46,85,0
0,71,74,10
0,42,62,60
0,69,105,0
0,42,82,0
0,42,67,60
0,36,103,0
0,48,97,0
0,35,100,0
0,46,94,0
0,72,73,10
0,42,64,60
0,67,105,0
0,42,85,0
0,42,65,60
0,42,84,0
0,42,67,60
0,36,101,0
0,35,101,0
0,46,89,0
0,84,107,10
0,42,62,60
0,42,84,60
0,42,65,60
0,83,98,0
0,42,83,15
0,79,100,0
0,42,64,60
0,46,84,60
0,74,99,0
0,42,62,60
0,30,102,0
0,74,104,0
0,42,65,0
0,72,99,0
0,42,77,0
0,42,84,0
0,42,88,0
0,31,106,0
0,43,96,0
0,35,101,0
0,46,94,0
0,71,72,10
0,42,65,60
0,72,105,0
0,42,84,0
0,42,65,60
0,71,104,0
0,42,85,0
0,42,66,60
0,31,101,0
0,55,96,0
0,69,104,0
0,35,100,0
0,46,89,0
0,79,70,5
0,42,63,60
0,71,105,0
0,42,84,0
0,42,64,60
0,42,83,60
0,42,65,60
0,47,97,0
0,67,105,0
0,46,85,0
0,71,69,10
0,42,62,60
0,74,104,0
0,42,82,0
0,42,67,60
0,36,103,0
0,48,96,0
0,35,100,0
0,46,94,0
0,72,72,5
0,42,65,60
0,72,104,0
0,42,84,0
0,42,64,60
0,71,105,0
0,42,85,0
0,42,66,60
0,36,100,0
0,55,97,0
0,69,105,0
0,35,101,0
0,46,88,0
0,79,75,10
0,42,63,60
0,71,104,0
0,42,85,0
0,42,64,60
0,42,83,60
0,42,64,60
0,48,97,0
0,67,104,0
0,46,85,0
0,72,73,10
0,42,62,60
0,67,105,0
0,42,65,0
0,42,77,0
0,42,84,0
0,42,88,0
0,28,104,0
0,47,96,0
0,35,101,0
0,46,95,0
0,71,68,10
0,42,65,60
0,69,104,0
0,42,85,0
0,42,64,60
0,71,105,0
0,42,84,0
0,42,67,60
0,28,101,0
0,55,97,0
0,72,105,0
0,35,100,0
0,46,88,0
0,79,69,10
0,42,62,60
0,71,104,0
0,42,85,0
0,42,65,60
0,67,105,0
0,42,82,0
0,42,65,60
0,47,96,0
0,46,84,0
0,71,74,10
0,42,62,60
0,69,104,0
0,42,82,0
0,42,67,60
0,36,102,0
0,48,96,0
0,35,100,0
0,46,95,0
0,79,90,0
0,72,87,10
0,42,65,60
0,67,104,0
0,42,84,0
0,42,64,60
0,42,85,0
0,42,67,0
0,36,101,0
0,35,101,0
0,46,88,0
0,84,109,0
0,86,108,0
0,79,110,10
0,42,62,60
0,42,84,60
0,42,65,60
0,42,82,60
0,46,45,60
0,46,67,60
0,46,78,60
0,30,103,38
0,46,91,0
0,46,100,0
0,31,106,0
0,43,83,0
0,35,100,0
0,49,71,0
0,50,63,10
0,67,71,7
0,71,71,1
0,74,70,0
0,42,65,60
0,43,58,28
0,42,85,0
0,50,38,10
0,42,64,60
0,43,61,0
0,42,85,0
0,50,41,10
0,42,66,60
0,31,101,28
0,43,82,0
0,35,101,0
0,46,88,0
0,50,62,10
0,42,62,60
0,43,59,28
0,42,85,0
0,50,38,10
0,42,65,60
0,43,59,28
0,42,82,0
0,50,39,10
0,42,64,60
0,43,64,28
0,46,85,0
0,50,45,10
0,42,63,3
0,43,58,28
0,42,83,0
0,50,38,10
0,42,66,60
0,36,102,28
0,48,77,0
0,35,101,0
0,46,95,0
0,55,57,10
0,42,64,60
0,48,56,28
0,42,85,0
