track,note,velocity,time
3,69,113,0
3,71,109,192
3,72,95,188
3,71,99,368
3,69,95,96
3,71,101,96
3,69,70,12
3,71,93,96
3,72,101,84
3,74,97,80
3,72,71,480
3,71,101,8
3,69,107,0
3,72,99,292
3,74,105,180
3,76,99,8
3,74,105,4
3,72,101,284
3,71,90,188
3,69,92,188
3,67,81,120
3,67,103,64
3,69,101,0
3,69,109,240
3,71,111,188
3,72,105,188
3,71,99,368
3,69,90,32
3,71,107,4
3,69,76,20
3,71,105,8
3,72,99,100
3,74,92,12
3,72,99,288
3,71,97,188
3,69,99,8
3,72,86,200
3,74,109,0
3,76,103,96
3,74,103,276
3,72,90,16
3,71,103,88
3,69,101,80
3,67,90,8
3,67,105,128
3,69,95,4
3,69,81,144
3,72,81,812
3,76,113,8
3,74,107,32
3,74,111,156
3,72,67,0
3,71,70,20
3,72,111,4
3,69,82,196
3,69,90,72
3,71,93,196
3,72,82,84
3,74,95,164
3,76,92,28
3,74,77,192
3,74,97,60
3,72,97,24
3,71,101,0
3,67,87,40
3,67,75,24
3,69,107,192
3,69,92,156
3,71,101,16
3,72,93,192
3,71,97,0
3,69,71,16
3,71,103,28
3,69,109,24
3,69,77,216
3,71,101,100
3,72,91,20
3,74,109,112
3,72,99,96
3,71,86,104
3,69,101,32
3,72,95,128
3,74,111,188
3,76,107,192
3,74,109,40
3,72,83,12
3,71,101,76
3,69,109,40
3,67,97,12
3,67,103,116
3,69,95,16
3,69,86,132
3,69,109,120
3,71,107,8
3,72,111,24
3,74,109,4
3,72,87,192
3,71,86,8
3,69,109,96
3,69,69,132
3,71,107,100
3,72,103,92
3,74,97,40
3,72,97,288
3,71,97,184
3,69,103,12
3,72,105,64
3,74,101,4
3,76,105,0
3,74,113,288
3,72,105,180
3,71,103,20
3,69,101,100
3,69,87,92
3,67,92,192
3,67,95,76
3,69,87,192
3,69,86,124
3,72,119,0
3,72,117,124
3,71,115,96
3,72,107,4
3,71,121,120
3,69,117,0
3,72,121,2276
3,71,115,224
3,72,103,8
3,71,111,100
3,69,111,20
3,69,117,100
3,69,113,76
3,67,83,48
3,69,115,68
3,67,97,0
3,69,109,28
3,67,105,12
3,69,121,60
3,69,113,0
3,71,113,192
3,72,109,188
3,71,105,376
3,69,107,4
3,71,113,144
3,69,83,44
3,71,119,32
3,72,117,92
3,74,111,72
3,72,111,72
3,71,109,24
3,69,105,8
3,72,111,156
3,74,117,192
3,76,111,180
3,74,103,384
3,72,99,24
3,71,103,192
3,69,101,4
3,67,101,192
3,67,103,96
3,69,105,12
3,69,113,188
3,71,113,196
3,72,113,56
3,74,111,380
3,72,101,188
3,71,93,176
3,69,111,88
3,69,92,12
3,71,113,100
3,72,105,20
3,74,101,28
3,72,92,8
3,71,101,96
3,69,107,20
3,72,99,168
3,74,113,192
3,76,109,184
3,74,107,368
3,72,105,12
3,71,107,192
3,69,103,4
3,67,105,192
3,67,117,120
3,69,119,384
3,72,119,0
3,72,117,124
3,71,115,96
3,72,107,4
3,71,121,120
3,69,117,0
3,72,121,2276
3,71,115,224
3,72,103,8
3,71,111,100
3,69,111,20
3,69,117,100
3,69,113,76
3,67,83,48
3,69,115,68
3,67,97,0
3,69,109,28
3,67,105,12
3,69,121,60
3,69,113,0
3,71,113,192
3,72,109,188
3,71,105,376
3,69,107,4
3,71,113,144
3,69,83,44
3,71,119,32
3,72,117,92
3,74,111,72
3,72,111,72
3,71,109,24
3,69,105,8
3,72,111,156
3,74,117,192
3,76,111,180
3,74,103,384
3,72,99,24
3,71,103,192
3,69,101,4
3,67,101,192
3,67,103,96
3,69,105,12
3,69,113,188
3,71,113,196
3,72,113,56
3,74,111,380
3,72,101,188
3,71,93,176
3,69,111,88
3,69,92,12
3,71,113,100
3,72,105,20
3,74,101,28
3,72,92,8
3,71,101,96
3,69,107,20
3,72,99,168
3,74,113,192
3,76,109,184
3,74,107,368
3,72,105,12
3,71,107,192
3,69,103,4
3,67,105,192
3,67,117,120
3,69,119,384
3,72,117,0
3,74,97,4
3,72,93,96
3,74,95,0
3,72,105,92
3,74,95,96
3,72,103,8
3,74,105,8
3,72,109,4
3,71,113,96
3,69,115,72
3,76,111,3148
3,74,105,188
3,72,99,8
3,74,103,192
3,72,107,188
3,69,95,184
3,67,105,12
3,69,117,96
3,72,109,16
3,69,70,292
3,69,111,60
3,67,95,0
3,69,117,4
3,64,65,0
3,64,111,64
3,72,87,408
3,72,103,84
3,76,105,192
3,74,105,172
3,72,103,0
3,69,109,4
3,67,105,96
3,72,117,64
3,69,121,16
3,76,111,836
3,74,101,192
3,72,107,8
3,74,95,196
3,72,107,188
3,69,111,188
3,67,101,0
3,69,109,196
3,72,109,24
3,69,81,288
3,69,105,60
3,67,97,4
3,69,113,8
3,64,65,8
3,64,99,60
3,69,80,504
3,72,115,44
3,76,95,196
3,74,111,4
3,72,97,8
3,74,107,12
3,69,83,16
3,72,115,16
3,69,82,280
3,69,109,76
3,74,80,4
3,74,109,64
3,74,119,60
3,74,117,88
3,72,111,0
3,72,115,60
3,76,123,4224
3,78,121,132
3,74,119,8
3,72,115,64
3,76,109,3100
3,74,101,188
3,72,99,4
3,74,99,8
3,72,97,4
3,69,86,192
3,67,76,8
3,69,103,192
3,72,103,12
3,69,81,28
3,69,103,64
3,67,86,96
3,69,107,92
3,64,99,8
3,64,111,64
3,69,90,456
3,72,113,96
3,76,77,28
3,74,111,12
3,72,92,0
3,69,103,52
3,67,83,32
3,72,115,60
3,69,115,24
3,76,111,892
3,74,95,4
3,72,93,4
3,74,103,196
3,72,93,176
3,69,99,8
3,67,90,188
3,69,101,88
3,72,107,288
3,69,97,136
3,67,87,96
3,69,103,92
3,64,89,12
3,64,107,56
3,72,80,416
3,72,107,88
3,76,103,192
3,74,99,12
3,72,85,192
3,69,103,8
3,72,111,8
3,69,113,8
3,69,117,132
3,71,119,976
3,69,115,776
3,81,109,8
3,81,115,92
3,81,80,72
3,84,117,80
3,83,93,4
3,81,109,8
3,79,85,196
3,81,117,60
3,81,113,1408
3,81,105,80
3,81,115,60
3,84,117,68
3,83,87,16
3,81,109,40
3,83,107,44
3,83,113,100
3,81,109,0
3,81,111,1044
3,81,109,80
3,81,76,92
3,88,111,64
3,86,103,0
3,84,99,188
3,83,97,0
3,83,113,88
3,84,101,0
3,83,103,32
3,81,93,40
3,81,109,784
3,81,109,84
3,81,103,92
3,88,113,52
3,86,105,4
3,84,99,192
3,83,103,8
3,83,97,92
3,81,101,12
3,81,113,1032
3,81,111,60
3,81,68,72
3,84,113,72
3,83,93,32
3,81,107,184
3,83,88,100
3,83,105,88
3,81,109,0
3,81,107,1016
3,81,109,76
3,81,111,92
3,84,107,120
3,83,101,20
3,81,109,48
3,83,103,28
3,83,111,96
3,81,111,8
3,81,109,868
3,81,109,52
3,81,81,76
3,84,119,64
3,83,81,0
3,83,99,60
3,81,107,92
3,79,99,0
3,81,119,4
3,81,113,1168
3,81,105,64
3,81,107,56
3,88,119,112
3,86,109,4
3,84,92,0
3,86,111,8
3,88,109,92
3,86,111,288
3,84,87,380
3,83,99,72
3,81,52,528
3,81,111,124
3,81,109,64
3,84,111,52
3,81,74,28
3,84,119,60
3,84,109,76
3,84,106,72
3,72,111,11452
3,74,113,0
3,76,103,4
3,74,89,8
3,72,97,384
3,71,86,0
3,72,97,396
3,71,90,188
3,69,69,4
3,67,95,12
3,67,99,224
3,72,89,368
3,67,61,12
3,69,89,0
3,12,1,420
3,12,1,128
3,12,1,128
3,12,1,128
4,40,123,126708
4,40,115,12
4,45,119,188
4,43,113,188
4,36,109,184
4,49,121,188
4,36,113,0
4,42,105,372
4,40,117,0
4,44,95,192
4,36,109,184
4,42,101,0
4,44,92,188
4,42,117,188
4,40,115,0
4,44,93,192
4,42,111,184
4,36,105,0
4,44,89,188
4,42,113,184
4,40,113,0
4,44,62,192
4,42,107,184
4,36,101,0
4,36,99,188
4,44,80,0
4,42,109,184
4,40,115,0
4,44,99,184
4,36,90,0
4,36,103,188
4,42,101,0
4,44,78,188
4,40,113,184
4,42,111,0
4,44,74,188
4,36,105,188
4,42,119,0
4,40,63,192
4,40,87,88
4,40,115,92
4,36,103,184
4,44,101,4
4,42,109,184
4,36,109,188
4,44,81,0
4,42,111,184
4,40,123,0
4,44,92,188
4,42,103,184
4,36,105,188
4,44,92,0
4,42,105,188
4,40,117,0
4,44,90,188
4,36,99,0
4,42,109,184
4,36,103,0
4,44,83,188
4,42,115,192
4,40,111,0
4,44,99,184
4,42,115,188
4,36,89,0
4,44,97,188
4,36,92,0
4,42,109,184
4,40,119,0
4,44,97,184
4,36,90,0
4,42,109,184
4,36,103,0
4,44,107,184
4,42,105,188
4,40,117,0
4,44,99,188
4,42,105,188
4,36,89,0
4,36,93,184
4,44,89,0
4,42,105,184
4,40,115,0
4,36,93,188
4,44,99,0
4,42,103,188
4,36,103,0
4,44,101,188
4,42,97,188
4,40,113,0
4,44,78,188
4,36,101,184
4,42,105,0
4,40,80,288
4,40,89,92
4,40,111,92
4,36,111,92
4,44,113,0
4,42,105,188
4,36,115,188
4,44,89,0
4,42,103,188
4,40,100,8
4,44,97,180
4,42,99,184
4,44,95,188
4,36,113,0
4,42,99,188
4,40,119,0
4,36,105,184
4,44,101,0
4,42,97,188
4,36,117,4
4,44,93,184
4,40,117,192
4,42,103,0
4,44,90,188
4,36,107,184
4,42,101,0
4,40,109,188
4,44,93,0
4,40,119,88
4,42,109,92
4,40,87,96
4,40,111,88
4,40,121,92
4,36,117,96
4,51,90,4
4,53,80,184
4,51,92,184
4,40,119,0
4,36,111,184
4,53,60,0
4,51,97,188
4,53,83,188
4,36,111,0
4,51,95,184
4,40,113,0
4,53,65,184
4,36,97,4
4,51,85,180
4,36,95,0
4,40,113,92
4,53,71,80
4,36,111,4
4,51,95,188
4,40,115,0
4,53,66,192
4,40,113,96
4,51,89,72
4,36,101,16
4,40,54,96
4,53,63,84
4,40,107,0
4,36,113,92
4,51,89,76
4,36,111,12
4,40,69,92
4,53,81,84
4,40,103,4
4,40,121,92
4,51,87,80
4,36,117,8
4,53,74,184
4,40,117,192
4,51,87,0
4,53,71,176
4,36,109,8
4,51,92,172
4,53,85,200
4,36,103,4
4,51,103,188
4,40,111,0
4,53,72,184
4,51,95,192
4,53,81,176
4,36,113,8
4,40,117,188
4,51,95,0
4,36,105,184
4,53,73,0
4,51,86,188
4,53,75,184
4,43,71,0
4,43,107,92
4,40,105,92
4,51,95,0
4,53,87,176
4,36,113,8
4,36,115,188
4,51,86,0
4,53,76,192
4,51,90,192
4,40,121,0
4,53,64,184
4,36,103,0
4,51,89,188
4,53,86,184
4,36,103,4
4,51,82,192
4,40,111,0
4,53,76,180
4,36,101,4
4,51,69,188
4,40,115,96
4,53,66,76
4,36,109,16
4,51,90,172
4,40,115,12
4,53,73,172
4,40,115,104
4,51,82,80
4,36,107,8
4,40,67,96
4,53,69,80
4,40,113,8
4,36,89,92
4,51,87,84
4,36,107,4
4,40,75,92
4,53,82,76
4,40,95,12
4,40,121,92
4,51,83,80
4,36,119,12
4,53,81,184
4,40,117,196
4,51,87,0
4,36,105,180
4,53,76,0
4,51,89,192
4,36,103,188
4,53,76,0
4,40,115,188
4,51,93,0
4,36,105,188
4,53,74,0
4,51,95,196
4,53,69,168
4,36,103,8
4,40,111,188
4,51,103,0
4,53,80,180
4,36,95,4
4,40,115,188
4,40,95,288
4,40,119,88
4,40,121,188
4,36,105,192
4,49,111,0
4,36,107,188
4,40,113,188
4,42,113,0
4,44,107,180
4,36,71,92
4,36,113,92
4,42,95,0
4,44,95,184
4,42,93,188
4,40,111,0
4,44,105,176
4,42,90,188
4,36,113,8
4,44,93,176
4,42,86,188
4,40,113,12
4,44,74,272
4,42,103,92
4,36,111,16
4,44,90,184
4,42,99,184
4,40,113,4
4,44,47,184
4,44,86,80
4,36,64,12
4,42,97,84
4,36,107,4
4,44,89,192
4,42,81,188
4,40,111,0
4,44,78,268
4,42,97,100
4,36,87,0
4,40,74,96
4,40,67,88
4,44,93,4
4,40,93,84
4,40,90,92
4,42,99,0
4,40,105,88
4,44,101,88
4,40,109,0
4,36,113,0
4,42,103,192
4,36,107,188
4,44,93,0
4,40,119,188
4,42,87,4
4,44,70,168
4,44,60,88
4,42,101,96
4,44,99,188
4,36,105,12
4,42,99,184
4,40,113,0
4,44,64,188
4,44,80,96
4,42,95,80
4,36,107,8
4,44,87,180
4,42,90,196
4,40,115,0
4,44,92,188
4,42,93,180
4,36,82,4
4,44,80,184
4,36,103,0
4,40,115,188
4,42,92,0
4,44,95,184
4,36,81,0
4,36,117,188
4,42,89,0
4,44,99,184
4,42,101,192
4,40,111,0
4,44,65,260
4,36,71,24
4,42,101,76
4,36,105,16
4,44,90,184
4,36,107,0
4,42,92,184
4,40,111,0
4,36,86,188
4,44,93,0
4,42,90,184
4,36,109,0
4,44,95,176
4,42,95,192
4,40,115,4
4,44,45,188
4,44,93,88
4,36,87,0
4,36,101,96
4,42,105,0
4,44,82,184
4,40,62,0
4,40,90,96
4,42,93,88
4,40,97,0
4,40,105,92
4,44,90,84
4,40,117,4
4,36,113,0
4,42,95,188
4,44,87,184
4,36,113,4
4,40,115,188
4,42,101,0
4,44,51,180
4,44,92,88
4,42,103,100
4,36,103,184
4,44,89,4
4,42,101,184
4,40,115,0
4,44,74,184
4,44,93,84
4,42,99,92
4,36,109,12
4,42,85,0
4,36,105,184
4,44,77,0
4,40,113,188
4,42,87,0
4,36,78,188
4,44,71,0
4,44,90,88
4,36,103,96
4,42,107,0
4,36,90,188
4,44,87,0
4,40,99,188
4,42,99,0
4,40,95,184
4,44,101,0
4,40,105,92
4,40,117,92
4,36,119,0
4,49,121,0
4,45,56,1344
4,45,93,92
4,45,125,92
4,45,64,568
4,45,99,92
4,45,123,92
4,45,40,572
4,45,95,92
4,45,123,92
4,45,115,384
4,45,115,384
4,36,111,378
4,49,127,0
4,44,92,378
4,36,99,0
4,42,117,180
4,40,121,0
4,44,119,188
4,36,97,188
4,42,117,0
4,36,97,188
4,44,115,0
4,40,121,184
4,42,117,0
4,44,119,192
4,36,97,188
4,49,127,0
4,40,53,192
4,40,95,88
4,40,119,96
4,45,52,188
4,45,101,92
4,45,121,92
4,43,105,188
4,43,119,188
4,49,119,0
4,36,119,184
4,49,126,192
4,36,115,0
4,40,117,376
4,42,117,0
4,44,107,188
4,36,111,188
4,42,111,0
4,36,115,188
4,44,111,0
4,42,109,188
4,40,121,0
4,44,113,188
4,36,99,96
4,42,111,92
4,36,111,4
4,44,107,184
4,40,121,0
4,42,115,180
4,40,117,96
4,44,113,88
4,36,111,0
4,42,109,184
4,36,109,0
4,44,101,188
4,40,90,0
4,36,109,92
4,42,109,84
4,40,113,0
4,36,99,88
4,44,115,92
4,40,117,0
4,42,109,188
4,36,113,0
4,44,70,188
4,36,111,0
4,42,109,184
4,40,117,0
4,44,90,188
4,36,109,96
4,42,109,88
4,36,105,0
4,44,103,184
4,36,111,0
4,42,109,188
4,40,117,0
4,44,107,188
4,36,99,96
4,36,111,92
4,42,109,0
4,36,115,188
4,44,101,0
4,40,115,188
4,42,107,0
4,44,97,188
4,36,107,188
4,42,111,0
4,40,105,92
4,40,109,92
4,44,107,0
4,36,105,88
4,40,121,92
4,42,109,0
4,36,115,184
4,44,81,4
4,36,115,188
4,42,105,0
4,36,113,188
4,44,76,0
4,40,119,188
4,42,111,0
4,44,92,188
4,36,103,96
4,42,111,88
4,36,111,0
4,36,105,192
4,44,101,0
4,42,115,188
4,40,117,4
4,44,109,184
4,36,101,96
4,42,105,88
4,36,111,4
4,36,107,184
4,44,92,0
4,42,109,188
4,40,121,0
4,44,95,188
4,36,93,92
4,42,107,92
4,36,111,0
4,36,107,184
4,44,107,0
4,40,121,192
4,42,105,0
4,44,107,188
4,36,99,96
4,42,105,96
4,36,111,0
4,44,93,184
4,36,107,0
4,40,115,188
4,42,103,0
4,44,95,188
