track,note,velocity,time
1,76,102,237
1,76,0,681
1,64,106,0
1,64,0,75
1,68,91,50
1,68,0,29
1,69,97,7
1,69,0,25
1,69,95,15
1,69,0,81
1,64,94,23
1,64,0,192
1,67,92,9
1,67,0,24
1,67,98,77
1,67,0,2
1,62,88,32
1,62,0,27
1,64,102,43
1,64,0,244
1,62,79,57
1,62,0,20
1,64,106,42
1,64,0,54
1,62,75,0
1,62,0,21
1,64,114,43
1,64,0,241
1,64,106,0
1,64,0,75
1,68,91,50
1,68,0,29
1,69,97,7
1,69,0,25
1,69,95,15
1,69,0,81
1,64,94,23
1,64,0,192
1,67,74,546
1,67,0,8
1,67,88,15
1,67,0,26
1,67,98,39
1,67,0,39
1,67,104,23
1,67,0,3
1,64,104,2
1,62,91,237
1,64,0,8
1,62,0,18
1,64,102,75
1,62,104,60
1,64,0,5
1,62,0,29
1,58,107,36
1,58,0,5
1,55,106,26
1,55,0,13
1,62,102,1179
1,62,0,23
1,64,112,0
1,67,108,47
1,64,0,5
1,67,0,36
1,69,110,39
1,69,0,42
1,67,117,36
1,67,0,73
1,64,102,0
1,64,0,42
1,64,122,0
1,64,0,328
1,69,114,333
1,69,0,245
1,67,102,5
1,67,0,6
1,63,101,0
1,64,97,249
1,63,0,5
1,64,0,50
1,64,114,5
1,64,0,343
1,64,106,3
1,64,0,55
1,67,112,8
1,67,0,36
1,69,112,23
1,69,0,34
1,71,108,34
1,69,95,68
1,71,0,7
1,69,0,34
1,67,102,39
1,67,0,63
1,64,104,0
1,64,0,39
1,62,97,33
1,62,0,3
1,67,108,10
1,67,0,6
1,62,114,99
1,62,0,2
1,62,90,216
1,62,0,28
1,64,120,47
1,64,0,2
1,67,102,6
1,67,0,154
1,64,106,3
1,67,108,49
1,64,0,5
1,67,0,39
1,69,114,26
1,69,0,34
1,71,110,31
1,69,92,65
1,71,0,11
1,69,0,26
1,67,100,39
1,67,0,26
1,69,120,41
1,69,0,24
1,67,114,41
1,67,0,5
1,71,120,21
1,71,0,2
1,70,101,13
1,70,0,3
1,71,112,36
1,71,0,20
1,67,106,42
1,67,0,3
1,64,112,0
1,64,0,54
1,67,104,0
1,67,0,34
1,69,117,34
1,69,0,29
1,69,117,39
1,69,0,5
1,69,112,11
1,69,0,36
1,69,100,52
1,67,85,50
1,69,0,10
1,67,0,36
1,64,102,0
1,64,0,34
1,67,112,0
1,67,0,39
1,62,104,15
1,62,0,5
1,62,106,129
1,62,0,34
1,67,110,10
1,67,0,348
1,69,112,0
1,69,0,221
1,69,114,39
1,69,0,3
1,67,112,44
1,67,0,62
1,64,102,3
1,64,0,47
1,64,110,34
1,64,0,294
1,71,104,1
1,71,0,29
1,74,95,2
1,74,0,12
1,71,100,11
1,71,0,28
1,71,95,2
1,71,0,83
1,71,90,3
1,71,0,29
1,69,85,1
1,69,0,29
1,71,93,1
1,71,0,24
1,69,91,6
1,69,0,50
1,71,91,11
1,71,0,27
1,67,86,2
1,67,0,29
1,71,110,3
1,69,95,38
1,71,0,5
1,69,0,31
1,67,110,26
1,69,98,60
1,67,0,6
1,69,0,25
1,67,106,32
1,67,0,2
1,64,114,1
1,64,0,41
1,69,114,24
1,69,0,209
1,64,108,13
1,64,0,73
1,71,114,11
1,71,0,2
1,66,89,12
1,66,0,131
1,67,108,19
1,67,0,65
1,64,106,33
1,64,0,186
1,71,108,5
1,71,0,35
1,69,102,24
1,69,0,19
1,67,104,11
1,67,0,79
1,69,112,5
1,69,0,3
1,71,106,8
1,74,98,45
1,71,0,11
1,74,0,11
1,71,102,1
1,71,0,14
1,70,104,27
1,70,0,2
1,71,102,9
1,71,0,11
1,70,110,25
1,70,0,19
1,69,110,14
1,69,0,53
1,67,104,31
1,67,0,6
1,64,106,2
1,64,0,3
1,67,104,2
1,67,0,44
1,68,93,1
1,68,0,17
1,64,91,25
1,64,0,126
1,71,104,22
1,71,0,2
1,71,106,12
1,71,0,22
1,71,78,4
1,71,0,14
1,71,92,16
1,71,0,12
1,71,106,19
1,71,0,18
1,71,97,14
1,71,0,28
1,69,102,2
1,69,0,31
1,67,112,27
1,67,0,6
1,64,114,1
1,64,0,3
1,71,95,29
1,71,0,16
1,70,89,0
1,70,0,25
1,69,100,36
1,69,0,199
1,74,104,3
1,74,0,21
1,74,106,12
1,74,0,35
1,74,91,24
1,74,0,31
1,71,95,2
1,71,0,24
1,71,84,30
1,69,80,30
1,71,0,3
1,71,110,31
1,69,0,5
1,71,0,14
1,70,91,35
1,70,0,8
1,67,98,7
1,67,0,50
1,64,88,5
1,64,0,14
1,68,99,8
1,68,0,14
1,66,89,3
1,66,0,210
1,64,83,14
1,64,0,22
1,64,77,17
1,64,0,1
1,71,85,0
1,71,0,3
1,67,87,33
1,67,0,2
1,64,108,1976
1,64,0,34
1,64,85,17
1,64,0,33
1,67,117,2
1,67,0,185
1,67,112,7
1,67,0,99
1,64,91,0
1,64,0,30
1,67,110,0
1,67,0,2
1,64,102,3
1,64,0,3
1,67,106,6
1,67,0,66
1,67,112,32
1,67,0,35
1,67,110,4
1,67,0,2
1,71,114,10
1,71,0,163
1,71,102,8
1,69,98,100
1,71,0,3
1,69,0,27
1,67,100,33
1,67,0,9
1,64,100,8
1,64,0,3
1,67,113,246
1,67,0,38
1,67,125,17
1,67,0,73
1,64,100,49
1,64,0,5
1,67,112,1
1,67,0,49
1,64,97,3
1,64,0,64
1,67,98,5
1,67,0,55
1,71,104,1
1,71,0,82
1,71,110,20
1,71,0,94
1,71,104,0
1,71,0,66
1,71,98,25
1,71,0,37
1,71,100,2
1,71,0,9
1,69,108,8
1,69,0,63
1,69,104,30
1,69,0,86
1,71,108,28
1,71,0,74
1,69,98,0
1,69,0,17
1,69,100,22
1,69,0,2
1,62,104,21
1,62,0,83
1,64,114,29
1,64,0,2
1,67,94,0
1,67,0,117
1,67,100,42
1,67,0,131
1,67,108,4
1,67,0,127
1,64,100,36
1,64,0,117
1,67,106,11
1,67,0,11
1,64,100,8
1,64,0,176
1,64,102,9
1,64,0,1
1,64,104,21
1,64,0,163
1,74,113,29
1,74,0,18
1,71,104,3
1,71,0,27
1,71,98,25
1,71,0,19
1,71,100,20
1,71,0,19
1,71,102,22
1,71,0,27
1,71,104,34
1,71,0,29
1,69,106,2
1,69,0,230
1,74,108,34
1,74,0,5
1,74,104,22
1,74,0,54
1,71,106,49
1,71,0,215
1,69,108,7
1,69,0,29
1,71,102,20
1,71,0,32
1,69,97,5
1,69,0,22
1,66,95,12
1,66,0,198
1,71,104,3
1,71,0,27
1,71,98,25
1,71,0,19
1,71,100,20
1,71,0,19
1,71,102,22
1,71,0,27
1,71,104,34
1,71,0,29
1,69,106,2
1,69,0,230
1,74,108,34
1,74,0,5
1,74,104,22
1,74,0,54
1,71,106,49
1,71,0,215
1,69,108,7
1,69,0,29
1,71,102,20
1,71,0,32
1,69,97,5
1,69,0,22
1,66,95,12
1,66,0,198
1,74,90,4
1,74,0,29
1,76,98,27
1,76,0,42
1,76,80,36
1,76,0,27
1,76,110,22
1,76,0,39
1,76,88,32
1,76,0,22
1,76,117,24
1,76,0,30
1,71,112,0
1,71,0,7
1,69,108,49
1,69,0,69
1,71,104,0
1,74,100,30
1,71,0,9
1,74,0,20
1,71,106,5
1,74,86,31
1,71,0,13
1,74,0,22
1,71,97,0
1,74,102,17
1,71,0,15
1,74,0,24
1,71,108,0
1,71,0,207
1,67,100,7
1,67,0,17
1,64,97,2
1,64,0,36
1,64,110,47
1,64,0,2
1,74,90,4
1,74,0,29
1,76,98,27
1,76,0,42
1,76,80,36
1,76,0,27
1,76,110,22
1,76,0,39
1,76,88,32
1,76,0,22
1,76,117,24
1,76,0,30
1,71,112,0
1,71,0,7
1,69,108,49
1,69,0,69
1,71,104,0
1,71,104,0
1,71,0,17
1,71,0,27
1,71,100,0
1,71,0,42
1,71,100,36
1,71,0,42
1,69,100,0
1,67,98,10
1,69,0,2
1,67,0,57
1,64,102,12
1,64,0,56
1,71,108,0
1,71,0,18
1,71,100,31
1,71,0,44
1,69,97,29
1,69,0,37
1,71,104,3
1,71,0,4
1,67,98,0
1,67,0,29
1,64,106,59
1,64,0,5
1,76,106,3
1,76,0,19
1,76,98,27
1,76,0,39
1,74,106,39
1,74,0,34
1,71,110,44
1,71,0,37
1,69,110,54
1,69,0,56
1,71,112,10
1,71,0,3
2,28,88,242
2,28,0,112
2,40,92,5
2,38,92,82
2,40,0,10
2,35,70,28
2,38,0,5
2,38,95,116
2,35,0,4
2,28,81,115
2,38,0,3
2,40,90,116
2,28,0,3
2,38,91,118
2,40,0,8
2,35,77,112
2,38,0,5
2,38,88,75
2,35,0,1
2,38,0,40
2,28,87,0
2,28,0,117
2,40,88,2
2,38,92,83
2,40,0,11
2,35,80,29
2,38,0,6
2,35,0,113
2,38,90,0
2,28,91,118
2,38,0,1
2,28,0,119
2,40,99,0
2,38,94,120
2,40,0,9
2,38,0,111
2,35,81,0
2,35,0,79
2,38,91,1
2,28,101,42
2,38,0,3
2,28,0,106
2,40,87,9
2,38,87,82
2,40,0,5
2,35,77,36
2,38,0,5
2,38,87,113
2,35,0,2
2,28,91,118
2,38,0,5
2,28,0,114
2,40,92,0
2,40,0,122
2,38,85,0
2,35,76,118
2,38,0,2
2,38,83,78
2,35,0,4
2,38,0,34
2,28,86,3
2,28,0,119
2,40,86,2
2,38,86,81
2,40,0,3
2,35,79,38
2,38,0,5
2,35,0,110
2,38,92,3
2,38,0,114
2,28,88,4
2,40,86,120
2,28,0,2
2,38,87,118
2,40,0,5
2,35,68,115
2,38,0,4
2,35,0,74
2,38,87,1
2,28,92,43
2,38,0,11
2,28,0,108
2,40,83,1
2,38,91,81
2,40,0,5
2,35,75,35
2,38,0,5
2,35,0,115
2,38,84,0
2,28,87,119
2,38,0,8
2,40,81,110
2,28,0,1
2,40,0,121
2,38,92,0
2,35,80,118
2,38,0,2
2,35,0,77
2,38,92,1
2,28,91,41
2,38,0,5
2,28,0,112
2,40,87,3
2,40,0,81
2,38,93,0
2,35,78,41
2,38,0,10
2,35,0,109
2,38,91,1
2,28,92,119
2,38,0,5
2,28,0,109
2,40,90,4
2,38,87,120
2,40,0,5
2,38,0,112
2,35,77,2
2,38,91,80
2,35,0,2
2,28,91,39
2,38,0,2
2,28,0,110
2,40,93,8
2,38,92,80
2,40,0,1
2,38,0,39
2,35,83,0
2,35,0,117
2,38,94,2
2,28,98,122
2,38,0,5
2,28,0,112
2,40,95,2
2,40,0,112
2,38,97,6
2,35,85,121
2,38,0,3
2,35,0,76
2,38,95,1
2,28,95,40
2,38,0,1
2,40,92,120
2,28,0,1
2,38,94,79
2,40,0,1
2,35,80,39
2,38,0,3
2,35,0,114
2,38,94,3
2,28,85,121
2,38,0,16
2,40,85,105
2,28,0,4
2,40,0,106
2,38,92,6
2,35,77,121
2,38,0,4
2,38,88,77
2,35,0,3
2,28,91,37
2,38,0,11
2,28,0,106
2,40,87,4
2,38,92,81
2,40,0,5
2,35,73,35
2,38,0,3
2,38,87,117
2,35,0,2
2,28,93,118
2,38,0,7
2,40,92,113
2,28,0,2
2,40,0,107
2,38,94,8
2,35,85,121
2,38,0,1
2,38,92,80
2,35,0,8
2,38,0,33
2,28,102,0
2,28,0,114
2,40,86,5
2,38,87,81
2,40,0,3
2,38,0,27
2,35,80,10
2,35,0,104
2,38,104,16
2,28,104,120
2,38,0,2
2,28,0,110
2,40,97,6
2,38,105,120
2,40,0,7
2,38,0,107
2,35,91,5
2,38,99,79
2,35,0,2
2,38,0,36
2,28,111,3
2,40,104,121
2,28,0,6
2,38,104,74
2,40,0,9
2,35,98,33
2,38,0,9
2,35,0,107
2,38,119,4
2,28,107,121
2,38,0,6
2,40,104,112
2,28,0,4
2,38,113,115
2,40,0,8
2,35,93,112
2,38,0,2
2,35,0,77
2,38,109,1
2,28,104,42
2,38,0,11
2,28,0,104
2,40,102,4
2,38,113,81
2,40,0,3
2,35,91,38
2,38,0,10
2,35,0,107
2,38,107,0
2,28,105,122
2,38,0,2
2,28,0,113
2,40,105,3
2,38,113,120
2,40,0,7
2,38,0,105
2,35,93,6
2,38,111,81
2,35,0,3
2,28,111,38
2,38,0,10
2,40,102,111
2,28,0,1
2,38,105,80
2,40,0,8
2,35,90,31
2,38,0,6
2,38,109,115
2,35,0,1
2,28,107,120
2,38,0,13
2,40,105,107
2,28,0,2
2,38,111,116
2,40,0,6
2,38,0,108
2,35,92,4
2,38,109,81
2,35,0,5
2,28,102,38
2,38,0,5
2,28,0,112
2,40,99,2
2,38,105,80
2,40,0,6
2,35,92,34
2,38,0,3
2,35,0,109
2,38,105,5
2,28,105,123
2,38,0,14
2,28,0,100
2,40,101,6
2,38,107,118
2,40,0,3
2,38,0,112
2,35,97,4
2,38,109,81
2,35,0,3
2,28,107,37
2,38,0,5
2,28,0,114
2,40,104,3
2,38,107,80
2,40,0,6
2,35,99,34
2,38,0,3
2,35,0,106
2,38,105,8
2,28,102,121
2,38,0,16
2,28,0,101
2,40,105,3
2,38,109,120
2,40,0,10
2,38,0,109
2,35,93,0
2,38,109,80
2,35,0,2
2,28,109,39
2,38,0,5
2,28,0,104
2,40,102,11
2,38,102,80
2,40,0,11
2,35,87,31
2,38,0,9
2,35,0,102
2,38,113,6
2,28,109,123
2,38,0,4
2,28,0,106
2,40,104,8
2,38,105,119
2,40,0,5
2,38,0,114
2,35,99,1
2,35,0,79
2,38,109,1
2,28,99,41
2,38,0,9
2,40,105,110
2,28,0,1
2,38,104,80
2,40,0,8
2,35,98,32
2,38,0,3
2,38,105,118
2,35,0,6
2,28,102,116
2,38,0,10
2,28,0,99
2,40,111,8
2,38,113,120
2,40,0,5
2,38,0,115
2,35,101,0
2,38,109,80
2,35,0,6
2,28,105,37
2,38,0,8
2,28,0,98
2,40,97,13
2,38,105,79
2,40,0,7
2,35,99,34
2,38,0,4
2,35,0,108
2,38,105,6
2,28,99,120
2,38,0,7
2,28,0,109
2,40,105,4
2,38,105,120
2,40,0,9
2,38,0,100
2,35,94,9
2,38,109,81
2,35,0,5
2,28,111,35
2,38,0,3
2,40,104,118
2,28,0,6
2,38,104,74
2,40,0,9
2,35,98,33
2,38,0,9
2,35,0,107
2,38,119,4
2,28,107,121
2,38,0,6
2,40,104,112
2,28,0,4
2,38,113,115
2,40,0,8
2,35,93,112
2,38,0,2
2,35,0,77
2,38,109,1
2,28,104,42
2,38,0,11
2,28,0,104
2,40,102,4
2,38,113,81
2,40,0,3
2,35,91,38
2,38,0,10
2,35,0,107
2,38,107,0
2,28,105,122
2,38,0,2
2,28,0,113
2,40,105,3
2,38,113,120
2,40,0,7
2,38,0,105
2,35,93,6
2,38,111,81
2,35,0,3
2,28,111,38
2,38,0,10
2,40,102,111
2,28,0,1
2,38,105,80
2,40,0,8
2,35,90,31
2,38,0,6
2,38,109,115
2,35,0,1
2,28,107,120
2,38,0,13
2,40,105,107
2,28,0,2
2,38,111,116
2,40,0,6
2,38,0,108
2,35,92,4
2,38,109,81
2,35,0,5
2,28,102,38
2,38,0,5
2,28,0,112
2,40,99,2
2,38,105,80
2,40,0,6
2,35,92,34
2,38,0,3
2,35,0,109
2,38,105,5
2,28,105,123
2,38,0,14
2,28,0,100
2,40,101,6
2,38,107,118
2,40,0,3
2,38,0,112
2,35,97,4
2,38,109,81
2,35,0,3
2,28,107,37
2,38,0,5
2,28,0,114
2,40,104,3
2,38,107,80
2,40,0,6
2,35,99,34
2,38,0,3
2,35,0,106
2,38,105,8
2,28,102,121
2,38,0,16
2,28,0,101
2,40,105,3
2,38,109,120
2,40,0,10
2,38,0,109
2,35,93,0
2,38,109,80
2,35,0,2
2,28,109,39
2,38,0,5
2,28,0,104
2,40,102,11
2,38,102,80
2,40,0,11
2,35,87,31
2,38,0,9
2,35,0,102
2,38,113,6
2,38,92,123
2,38,0,4
2,38,0,10
2,38,119,24
2,38,0,27
2,38,127,53
2,38,0,120
