track,note,velocity,time
1,80,100,12357
1,80,0,80
1,81,100,0
1,81,0,80
1,78,100,0
1,78,0,157
1,69,100,32
1,69,0,30
1,72,100,0
1,72,0,180
1,69,100,0
1,69,0,120
1,81,100,270
1,81,0,60
1,81,100,0
1,81,0,90
1,74,100,0
1,74,0,60
1,76,100,0
1,76,0,120
1,72,100,0
1,72,0,60
1,72,100,0
1,72,0,180
1,69,100,0
1,69,0,180
1,81,100,180
1,81,0,60
1,81,100,0
1,81,0,120
1,81,100,0
1,81,0,120
1,84,100,0
1,84,0,120
1,72,100,0
1,72,0,60
1,76,100,0
1,76,0,30
1,74,100,0
1,74,0,90
1,73,100,0
1,73,0,60
1,73,100,0
1,73,0,180
1,73,100,90
1,73,0,30
1,76,100,0
1,76,0,60
1,74,100,0
1,74,0,120
1,72,100,0
1,72,0,60
1,69,100,0
1,69,0,90
1,69,100,0
1,69,0,240
1,69,100,30
1,69,0,240
1,69,100,600
1,69,0,60
1,72,100,0
1,72,0,60
1,74,100,60
1,74,0,180
1,69,100,60
1,69,0,60
1,76,100,0
1,76,0,60
1,69,100,0
1,69,0,60
1,74,100,0
1,74,0,60
1,72,100,0
1,72,0,180
1,69,100,0
1,69,0,120
1,69,100,960
1,69,0,60
1,72,100,0
1,72,0,60
1,74,100,60
1,74,0,180
1,69,100,60
1,69,0,60
1,76,100,0
1,76,0,60
1,69,100,0
1,69,0,60
1,74,100,0
1,74,0,60
1,72,100,0
1,72,0,180
1,69,100,0
1,69,0,120
1,76,100,420
1,76,0,120
1,69,100,0
1,69,0,60
1,74,100,40
1,74,0,40
1,74,100,0
1,74,0,40
1,72,100,0
1,72,0,60
1,67,100,0
1,67,0,180
1,81,87,900
1,81,0,30
1,81,87,0
1,81,0,30
1,81,87,0
1,81,0,60
1,84,87,0
1,84,0,60
1,76,88,1260
1,76,0,120
1,76,88,0
1,76,0,60
1,74,88,0
1,74,0,30
1,74,88,0
1,74,0,30
1,72,88,0
1,72,0,60
1,69,88,0
1,69,0,60
1,67,88,0
1,67,0,60
1,76,100,240
1,76,0,30
1,79,100,0
1,79,0,90
1,74,100,0
1,74,0,40
1,74,100,0
1,74,0,80
1,76,100,0
1,76,0,40
1,74,100,0
1,74,0,40
1,74,100,0
1,74,0,40
1,72,100,0
1,72,0,40
1,74,100,0
1,74,0,80
1,72,100,0
1,72,0,240
1,80,100,3960
1,80,0,80
1,81,100,0
1,81,0,80
1,78,100,0
1,78,0,157
1,72,100,2
1,72,0,60
1,69,100,0
1,69,0,180
1,80,100,300
1,80,0,60
1,80,100,0
1,80,0,60
1,81,100,0
1,81,0,60
1,81,100,0
1,81,0,60
1,74,100,0
1,74,0,60
1,74,100,0
1,74,0,40
1,76,100,0
1,76,0,40
1,74,100,0
1,74,0,40
1,72,100,0
1,72,0,60
1,72,100,0
1,72,0,240
1,81,100,300
1,81,0,60
1,81,100,0
1,81,0,120
1,84,100,0
1,84,0,120
1,81,100,0
1,81,0,60
1,81,100,0
1,81,0,60
1,76,100,0
1,76,0,60
1,76,100,0
1,76,0,30
1,74,100,0
1,74,0,90
1,73,100,0
1,73,0,60
1,73,100,0
1,73,0,180
1,73,100,90
1,73,0,30
1,76,100,0
1,76,0,60
1,74,100,0
1,74,0,60
1,74,100,0
1,74,0,60
1,72,100,0
1,72,0,60
1,69,100,0
1,69,0,30
1,69,100,0
1,69,0,60
1,69,100,0
1,69,0,90
1,69,100,180
1,69,0,240
1,69,100,600
1,69,0,60
1,72,100,0
1,72,0,60
1,74,100,60
1,74,0,180
1,69,100,60
1,69,0,60
1,76,100,0
1,76,0,60
1,69,100,0
1,69,0,60
1,74,100,0
1,74,0,60
1,72,100,0
1,72,0,180
1,69,100,0
1,69,0,120
1,69,100,960
1,69,0,60
1,72,100,0
1,72,0,60
1,74,100,60
1,74,0,180
1,69,100,60
1,69,0,60
1,76,100,0
1,76,0,60
1,69,100,0
1,69,0,60
1,74,100,0
1,74,0,60
1,72,100,0
1,72,0,180
1,69,100,0
1,69,0,120
1,76,100,420
1,76,0,120
1,69,100,0
1,69,0,60
1,74,100,40
1,74,0,40
1,74,100,0
1,74,0,40
1,72,100,0
1,72,0,60
1,67,100,0
1,67,0,180
1,81,100,900
1,81,0,30
1,81,100,0
1,81,0,30
1,81,100,0
1,81,0,60
1,84,100,0
1,84,0,60
1,76,100,1260
1,76,0,120
1,76,100,0
1,76,0,60
1,74,100,0
1,74,0,30
1,74,100,0
1,74,0,30
1,72,100,0
1,72,0,60
1,69,100,0
1,69,0,60
1,67,100,0
1,67,0,60
1,76,100,240
1,76,0,30
1,79,100,0
1,79,0,90
1,74,100,0
1,74,0,40
1,74,100,0
1,74,0,80
1,76,100,0
1,76,0,40
1,74,100,0
1,74,0,40
1,74,100,0
1,74,0,40
1,72,100,0
1,72,0,40
1,74,100,0
1,74,0,80
1,72,100,0
1,72,0,240
1,81,120,3240
1,81,0,60
1,81,120,180
1,81,0,60
1,81,120,30
1,81,0,90
1,81,120,0
1,81,0,60
1,81,120,120
1,81,0,30
1,79,120,0
1,79,0,30
1,81,120,0
1,81,0,60
1,79,120,0
1,79,0,30
1,81,120,0
1,81,0,90
1,81,120,360
1,81,0,30
1,79,120,0
1,79,0,30
1,81,120,0
1,81,0,30
1,84,120,0
1,84,0,60
1,81,120,0
1,81,0,90
1,81,120,210
1,81,0,30
1,81,120,0
1,81,0,30
1,79,120,0
1,79,0,30
1,81,120,0
1,81,0,30
1,81,120,0
1,81,0,60
1,81,120,0
1,81,0,150
1,81,120,270
1,81,0,30
1,81,120,0
1,81,0,30
1,79,120,0
1,79,0,30
1,81,120,0
1,81,0,60
1,76,120,0
1,76,0,60
1,74,120,0
1,74,0,30
1,72,120,0
1,72,0,90
1,81,120,1320
1,81,0,60
1,79,120,180
1,79,0,60
1,81,120,0
1,81,0,60
1,81,120,0
1,81,0,30
1,81,120,0
1,81,0,30
1,81,120,150
1,81,0,30
1,81,120,0
1,81,0,30
1,79,120,0
1,79,0,30
1,81,120,0
1,81,0,30
1,84,120,0
1,84,0,60
1,81,120,0
1,81,0,30
1,84,120,0
1,84,0,60
1,81,120,0
1,81,0,60
1,81,120,180
1,81,0,30
1,79,120,0
1,79,0,30
1,81,120,0
1,81,0,30
1,84,120,0
1,84,0,60
1,81,120,0
1,81,0,150
1,81,120,150
1,81,0,90
1,76,120,0
1,76,0,120
1,76,104,60
1,76,0,30
1,76,104,0
1,76,0,30
1,74,104,120
1,74,0,30
1,74,104,0
1,74,0,60
1,76,104,0
1,76,0,90
1,81,105,360
1,81,0,30
1,76,105,0
1,76,0,60
1,74,105,0
1,74,0,60
1,72,105,0
1,72,0,30
1,79,120,1290
1,79,0,30
1,81,120,0
1,81,0,30
1,79,120,0
1,79,0,30
1,81,120,0
1,81,0,40
1,79,120,0
1,79,0,40
1,81,120,0
1,81,0,70
1,81,120,0
1,81,0,90
1,79,120,270
1,79,0,30
1,81,120,0
1,81,0,30
1,79,120,0
1,79,0,30
1,81,120,180
1,81,0,30
1,79,120,0
1,79,0,30
1,81,120,0
1,81,0,40
1,81,120,0
1,81,0,40
1,79,120,0
1,79,0,40
1,81,120,0
1,81,0,40
1,84,120,0
1,84,0,40
1,81,120,0
1,81,0,35
1,81,120,5
1,81,0,81
1,81,120,9
1,81,0,81
1,81,120,9
1,81,0,51
1,81,120,9
1,81,0,81
1,72,120,9
1,72,0,90
1,77,88,1620
1,77,0,30
1,79,88,0
1,79,0,90
1,81,88,0
1,81,0,180
1,81,88,0
1,81,0,60
1,81,120,9120
1,81,0,60
1,81,120,120
1,81,0,60
1,81,120,0
1,81,0,60
1,81,120,120
1,81,0,60
1,79,120,0
1,79,0,30
1,81,120,0
1,81,0,30
1,81,120,0
1,81,0,60
1,79,120,0
1,79,0,60
1,81,120,300
1,81,0,30
1,79,120,0
1,79,0,30
1,81,120,0
1,81,0,30
1,84,120,0
1,84,0,60
1,81,120,0
1,81,0,90
1,81,120,60
1,81,0,30
1,81,120,2430
1,81,0,60
1,79,120,120
1,79,0,60
1,81,120,0
1,81,0,60
1,81,120,0
1,81,0,60
1,84,120,0
1,84,0,60
1,81,120,0
1,81,0,60
1,79,120,30
1,79,0,90
1,84,120,0
1,84,0,60
1,81,120,0
1,81,0,60
1,81,120,120
1,81,0,60
1,81,120,0
1,81,0,60
1,81,120,60
1,81,0,60
1,81,120,0
1,81,0,30
1,84,120,0
1,84,0,60
1,81,120,0
1,81,0,30
1,81,120,0
1,81,0,30
1,79,120,90
1,79,0,60
1,76,120,0
1,76,0,60
1,81,120,30
1,81,0,90
1,76,120,60
1,76,0,60
1,79,120,2250
1,79,0,30
1,81,120,0
1,81,0,30
1,79,120,0
1,79,0,30
1,81,120,0
1,81,0,40
1,79,120,0
1,79,0,40
1,81,120,0
1,81,0,70
1,81,120,0
1,81,0,90
1,81,120,0
1,81,0,90
1,81,120,450
1,81,0,30
1,79,120,0
1,79,0,30
1,84,120,0
1,84,0,90
1,81,120,30
1,81,0,90
1,81,120,30
1,81,0,81
1,81,120,9
1,81,0,81
1,81,120,9
1,81,0,51
1,81,120,9
1,81,0,81
1,72,120,9
1,72,0,90
1,81,109,12060
1,81,0,40
1,79,109,0
1,79,0,40
1,81,109,0
1,81,0,40
1,79,109,0
1,79,0,40
1,81,109,0
1,81,0,40
1,79,109,0
1,79,0,40
1,81,109,0
1,81,0,120
1,81,109,520
1,81,0,40
1,79,109,0
1,79,0,40
1,81,109,0
1,81,0,40
1,79,109,0
1,79,0,40
1,81,109,0
1,81,0,40
1,79,109,0
1,79,0,40
1,81,109,0
1,81,0,80
1,81,109,630
1,81,0,30
1,79,109,0
1,79,0,60
1,81,109,0
1,81,0,40
1,79,109,0
1,79,0,40
1,81,109,0
1,81,0,40
1,81,109,0
1,81,0,40
1,84,109,0
1,84,0,80
1,81,109,0
1,81,0,120
1,81,109,400
1,81,0,40
1,79,109,0
1,79,0,40
1,81,109,0
1,81,0,40
1,79,109,0
1,79,0,40
1,81,109,0
1,81,0,40
1,84,109,0
1,84,0,60
1,81,109,0
1,81,0,60
1,76,109,0
1,76,0,60
1,74,109,0
1,74,0,60
1,79,109,660
1,79,0,60
1,81,109,0
1,81,0,40
1,79,109,0
1,79,0,40
1,81,109,0
1,81,0,40
1,79,109,0
1,79,0,60
1,81,109,0
1,81,0,180
1,76,109,540
1,76,0,60
1,77,109,0
1,77,0,30
1,76,109,0
1,76,0,90
1,74,109,0
1,74,0,60
1,72,109,0
1,72,0,60
1,86,109,540
1,86,0,60
1,81,109,0
1,81,0,30
1,79,109,0
1,79,0,60
1,79,109,0
1,79,0,30
1,81,109,0
1,81,0,30
1,79,109,0
1,79,0,30
1,81,109,0
1,81,0,60
1,81,109,0
1,81,0,30
1,84,109,0
1,84,0,30
1,81,109,0
1,81,0,60
1,84,109,0
1,84,0,60
1,81,109,540
1,81,0,40
1,79,109,0
1,79,0,40
1,81,109,0
1,81,0,40
1,84,109,0
1,84,0,40
1,79,109,0
1,79,0,40
1,76,109,0
1,76,0,40
1,74,109,0
1,74,0,60
1,72,109,0
1,72,0,60
1,72,109,0
1,72,0,120
1,81,94,1200
1,81,0,120
1,76,94,0
1,76,0,120
1,79,94,60
1,79,0,30
1,79,94,0
1,79,0,30
1,81,94,0
1,81,0,60
1,79,94,0
1,79,0,60
1,81,94,0
1,81,0,60
1,81,94,0
1,81,0,60
1,81,94,240
1,81,0,60
1,81,94,0
1,81,0,60
1,81,94,240
1,81,0,30
1,81,94,0
1,81,0,60
1,81,94,0
1,81,0,60
1,81,94,0
1,81,0,90
1,81,94,240
1,81,0,30
1,81,94,0
1,81,0,60
1,81,94,0
1,81,0,60
1,81,94,0
1,81,0,90
1,79,94,330
1,79,0,30
1,81,94,0
1,81,0,60
1,81,94,0
1,81,0,60
1,76,100,900
1,76,0,60
1,79,100,0
1,79,0,60
1,81,100,0
1,81,0,120
1,81,100,0
1,81,0,120
1,76,100,120
1,76,0,60
1,79,100,0
1,79,0,60
1,81,100,0
1,81,0,120
1,81,100,0
1,81,0,120
1,76,100,120
1,76,0,60
1,79,100,0
1,79,0,60
1,81,100,0
1,81,0,120
1,81,100,0
1,81,0,120
1,76,100,120
1,76,0,60
1,79,100,0
1,79,0,60
1,83,100,0
1,83,0,90
1,79,100,0
1,79,0,30
1,81,100,0
1,81,0,120
1,76,100,120
1,76,0,60
1,79,100,0
1,79,0,60
1,81,100,0
1,81,0,120
1,81,100,0
1,81,0,60
1,76,100,180
1,76,0,60
1,79,100,0
1,79,0,60
1,81,100,0
1,81,0,120
1,81,100,0
1,81,0,60
1,79,100,240
1,79,0,60
1,81,100,0
1,81,0,120
1,81,100,0
1,81,0,120
1,76,100,120
1,76,0,60
1,79,100,0
1,79,0,60
1,81,100,0
1,81,0,120
1,81,100,0
1,81,0,120
1,76,100,120
1,76,0,60
1,79,100,0
1,79,0,60
1,81,100,0
1,81,0,120
1,81,100,0
1,81,0,120
1,84,84,120
1,84,0,60
1,81,84,0
1,81,0,60
1,81,84,0
1,81,0,60
1,81,84,60
1,81,0,60
1,81,84,60
1,81,0,60
1,81,84,60
1,81,0,60
1,81,84,0
1,81,0,60
1,81,84,0
1,81,0,30
1,81,84,0
1,81,0,30
1,81,84,60
1,81,0,60
1,81,84,60
1,81,0,60
1,81,84,60
1,81,0,60
1,81,84,0
1,81,0,60
1,81,84,0
1,81,0,60
1,81,84,60
1,81,0,60
1,81,84,0
1,81,0,60
1,81,84,0
1,81,0,120
1,81,84,0
1,81,0,60
1,81,84,0
1,81,0,60
1,76,84,0
1,76,0,60
1,79,84,0
1,79,0,60
1,81,84,0
1,81,0,60
1,81,84,540
1,81,0,120
1,83,84,0
1,83,0,60
1,81,84,0
1,81,0,60
1,81,84,0
1,81,0,180
1,81,84,0
1,81,0,60
1,86,84,0
1,86,0,60
1,81,84,0
1,81,0,40
1,81,84,0
1,81,0,40
1,81,84,0
1,81,0,40
1,79,84,0
1,79,0,90
1,81,84,0
1,81,0,150
1,84,100,180
1,84,0,120
1,86,100,0
1,86,0,60
1,81,100,0
1,81,0,60
1,81,100,0
1,81,0,120
1,81,100,120
1,81,0,120
1,83,100,600
1,83,0,120
1,83,100,0
1,83,0,60
1,81,100,0
1,81,0,40
1,83,100,0
1,83,0,40
1,81,100,0
1,81,0,40
1,78,100,0
1,78,0,60
1,81,100,0
1,81,0,180
1,81,100,420
1,81,0,120
1,76,100,0
1,76,0,60
1,79,100,0
1,79,0,60
1,81,100,0
1,81,0,60
1,81,100,0
1,81,0,240
1,81,87,1440
1,81,0,30
1,81,87,0
1,81,0,90
1,79,87,360
1,79,0,30
1,81,87,0
1,81,0,90
1,79,87,300
1,79,0,30
1,81,87,0
1,81,0,30
1,81,87,0
1,81,0,30
1,81,87,0
1,81,0,30
1,79,87,0
1,79,0,30
1,81,87,0
1,81,0,90
1,81,87,0
1,81,0,30
1,81,87,0
1,81,0,60
1,79,87,690
1,79,0,30
1,81,87,0
1,81,0,90
1,81,87,360
1,81,0,120
1,79,87,300
1,79,0,60
1,81,87,0
1,81,0,60
1,83,87,0
1,83,0,30
1,81,87,0
1,81,0,30
1,81,87,0
1,81,0,120
1,81,87,660
1,81,0,30
1,79,87,0
1,79,0,30
1,81,87,0
1,81,0,30
1,79,87,0
1,79,0,30
1,81,87,0
1,81,0,30
1,81,87,0
1,81,0,30
1,79,87,240
1,79,0,30
1,81,87,0
1,81,0,30
1,79,87,0
1,79,0,60
1,81,87,0
1,81,0,30
1,81,87,30
1,81,0,30
1,81,87,0
1,81,0,120
1,81,87,750
1,81,0,30
1,79,87,0
1,79,0,30
1,81,87,0
1,81,0,60
1,81,87,300
1,81,0,60
1,83,87,0
1,83,0,60
1,84,87,0
1,84,0,60
1,81,87,0
1,81,0,60
1,81,87,360
1,81,0,60
1,81,87,1320
1,81,0,60
1,81,87,0
1,81,0,60
1,81,88,900
1,81,0,60
1,79,88,360
1,79,0,60
