track,note,velocity,time
1,74,100,7200
1,74,0,240
1,74,100,0
1,74,0,240
1,74,100,0
1,74,0,240
1,76,100,0
1,76,0,120
1,74,100,0
1,74,0,120
1,76,100,0
1,76,0,120
1,74,100,0
1,74,0,120
1,76,100,0
1,76,0,120
1,78,100,0
1,78,0,240
1,76,100,0
1,76,0,360
1,76,100,240
1,76,0,120
1,76,100,0
1,76,0,120
1,74,100,0
1,74,0,60
1,74,100,0
1,74,0,60
1,76,100,0
1,76,0,120
1,76,100,0
1,76,0,120
1,74,100,0
1,74,0,120
1,76,100,0
1,76,0,120
1,74,100,0
1,74,0,120
1,76,100,0
1,76,0,120
1,76,100,0
1,76,0,240
1,74,100,600
1,74,0,120
1,74,100,0
1,74,0,120
1,74,100,0
1,74,0,160
1,76,100,0
1,76,0,160
1,74,100,0
1,74,0,160
1,76,100,0
1,76,0,160
1,74,100,0
1,74,0,160
1,76,100,0
1,76,0,160
1,79,100,0
1,79,0,360
1,79,100,0
1,79,0,360
1,74,100,240
1,74,0,240
1,76,100,0
1,76,0,120
1,74,100,0
1,74,0,120
1,76,100,0
1,76,0,120
1,76,100,0
1,76,0,120
1,76,100,0
1,76,0,120
1,76,100,0
1,76,0,120
1,74,100,360
1,74,0,120
1,76,100,0
1,76,0,240
1,76,100,0
1,76,0,240
1,74,100,0
1,74,0,240
1,76,100,0
1,76,0,120
1,74,100,0
1,74,0,120
1,76,100,0
1,76,0,120
1,76,100,0
1,76,0,120
1,76,100,0
1,76,0,120
1,76,100,0
1,76,0,480
1,73,100,0
1,73,0,480
1,76,100,0
1,76,0,120
1,74,100,0
1,74,0,240
1,76,100,0
1,76,0,120
1,74,100,0
1,74,0,120
1,76,100,0
1,76,0,120
1,76,100,0
1,76,0,120
1,76,100,0
1,76,0,120
1,76,100,0
1,76,0,200
1,79,100,0
1,79,0,80
1,74,100,0
1,74,0,320
1,74,100,360
1,74,0,120
1,74,100,0
1,74,0,120
1,76,100,0
1,76,0,120
1,74,100,0
1,74,0,120
1,76,100,0
1,76,0,240
1,76,100,0
1,76,0,120
1,76,100,0
1,76,0,240
1,81,100,0
1,81,0,360
1,79,100,0
1,79,0,240
1,74,100,0
1,74,0,120
1,74,100,0
1,74,0,240
1,74,100,0
1,74,0,240
1,74,100,0
1,74,0,120
1,73,100,0
1,73,0,120
1,74,100,0
1,74,0,120
1,73,100,0
1,73,0,120
1,74,100,0
1,74,0,80
1,76,100,0
1,76,0,80
1,76,100,0
1,76,0,320
1,74,100,14160
1,74,0,240
1,76,100,0
1,76,0,120
1,74,100,0
1,74,0,120
1,76,100,0
1,76,0,120
1,73,100,0
1,73,0,120
1,73,100,0
1,73,0,120
1,73,100,0
1,73,0,120
1,79,100,0
1,79,0,120
1,76,100,0
1,76,0,360
1,73,100,240
1,73,0,120
1,73,100,0
1,73,0,120
1,74,100,0
1,74,0,240
1,76,100,0
1,76,0,240
1,76,100,0
1,76,0,120
1,76,100,0
1,76,0,120
1,76,100,120
1,76,0,360
1,74,100,720
1,74,0,120
1,74,100,0
1,74,0,120
1,76,100,0
1,76,0,120
1,76,100,0
1,76,0,240
1,76,100,0
1,76,0,240
1,81,100,0
1,81,0,720
1,79,100,0
1,79,0,360
1,74,100,0
1,74,0,240
1,74,100,0
1,74,0,120
1,74,100,0
1,74,0,120
1,74,100,0
1,74,0,120
1,74,100,0
1,74,0,120
1,74,100,0
1,74,0,240
1,74,100,0
1,74,0,120
1,76,100,0
1,76,0,120
1,74,100,600
1,74,0,120
1,74,100,0
1,74,0,240
1,76,100,0
1,76,0,120
1,74,100,0
1,74,0,120
1,76,100,0
1,76,0,120
1,76,100,0
1,76,0,120
1,76,100,0
1,76,0,120
1,79,100,0
1,79,0,600
1,74,100,0
1,74,0,240
1,74,100,0
1,74,0,120
1,74,100,0
1,74,0,120
1,74,100,0
1,74,0,240
1,74,100,0
1,74,0,80
1,74,100,0
1,74,0,80
1,74,100,0
1,74,0,80
1,74,100,0
1,74,0,120
1,74,100,0
1,74,0,120
1,74,100,0
1,74,0,120
1,74,100,0
1,74,0,360
1,74,100,600
1,74,0,120
1,74,100,0
1,74,0,240
1,76,100,0
1,76,0,120
1,74,100,0
1,74,0,120
1,76,100,0
1,76,0,120
1,76,100,0
1,76,0,120
1,76,100,0
1,76,0,120
1,81,100,0
1,81,0,240
1,83,100,0
1,83,0,120
1,81,100,0
1,81,0,240
1,79,100,0
1,79,0,240
1,74,100,120
1,74,0,120
1,74,100,0
1,74,0,120
1,74,100,0
1,74,0,120
1,74,100,0
1,74,0,120
1,74,100,0
1,74,0,120
1,74,100,0
1,74,0,120
1,74,100,0
1,74,0,120
1,74,100,0
1,74,0,120
1,74,100,0
1,74,0,120
1,76,100,0
1,76,0,240
1,74,100,0
1,74,0,120
1,76,100,0
1,76,0,120
1,73,100,13680
1,73,0,120
1,73,100,0
1,73,0,120
1,73,100,0
1,73,0,240
1,76,100,0
1,76,0,120
1,73,100,0
1,73,0,120
1,76,100,0
1,76,0,120
1,76,100,0
1,76,0,120
1,76,100,0
1,76,0,120
1,79,100,0
1,79,0,240
1,76,100,0
1,76,0,360
1,73,100,120
1,73,0,120
1,74,100,0
1,74,0,120
1,73,100,0
1,73,0,120
1,74,100,0
1,74,0,240
1,74,100,0
1,74,0,120
1,73,100,0
1,73,0,120
1,74,100,0
1,74,0,120
1,74,100,0
1,74,0,240
1,74,100,0
1,74,0,120
1,76,100,0
1,76,0,240
1,74,100,600
1,74,0,120
1,74,100,0
1,74,0,120
1,76,100,0
1,76,0,120
1,74,100,0
1,74,0,120
1,76,100,0
1,76,0,240
1,76,100,0
1,76,0,120
1,76,100,0
1,76,0,120
1,79,100,0
1,79,0,480
1,76,100,0
1,76,0,240
1,74,100,0
1,74,0,120
1,74,100,0
1,74,0,120
1,74,100,0
1,74,0,120
1,74,100,0
1,74,0,120
1,74,100,0
1,74,0,120
1,74,100,0
1,74,0,120
1,74,100,0
1,74,0,240
1,74,100,0
1,74,0,240
1,74,100,0
1,74,0,120
1,74,100,0
1,74,0,120
1,76,100,0
1,76,0,120
1,76,100,360
1,76,0,120
1,73,100,0
1,73,0,240
1,74,100,0
1,74,0,160
1,74,100,0
1,74,0,160
1,74,100,0
1,74,0,160
1,74,100,0
1,74,0,240
1,74,100,0
1,74,0,120
1,74,100,0
1,74,0,120
1,74,100,0
1,74,0,120
1,78,100,0
1,78,0,120
1,76,100,0
1,76,0,240
1,76,100,120
1,76,0,120
1,76,100,0
1,76,0,240
1,74,100,0
1,74,0,120
1,74,100,0
1,74,0,120
1,74,100,0
1,74,0,120
1,74,100,0
1,74,0,120
1,79,100,0
1,79,0,120
1,81,100,0
1,81,0,120
1,79,100,0
1,79,0,120
1,76,100,0
1,76,0,240
1,76,100,480
1,76,0,120
1,73,100,0
1,73,0,120
1,73,100,0
1,73,0,120
1,74,100,0
1,74,0,120
1,73,100,0
1,73,0,120
1,73,100,0
1,73,0,120
1,74,100,0
1,74,0,240
1,79,100,0
1,79,0,120
1,79,100,0
1,79,0,120
1,79,100,0
1,79,0,120
1,81,100,0
1,81,0,240
1,79,100,0
1,79,0,480
1,73,100,0
1,73,0,120
1,73,100,0
1,73,0,120
1,74,100,0
1,74,0,120
1,74,100,0
1,74,0,120
1,73,100,0
1,73,0,120
1,73,100,0
1,73,0,120
1,74,100,0
1,74,0,120
1,74,100,0
1,74,0,120
1,74,100,0
1,74,0,120
1,76,100,0
1,76,0,360
1,79,120,7560
1,79,0,120
1,79,120,0
1,79,0,240
1,79,120,0
1,79,0,120
1,79,120,0
1,79,0,120
1,73,100,44280
1,73,0,360
1,76,100,0
1,76,0,120
1,73,100,0
1,73,0,120
1,76,100,0
1,76,0,120
1,76,100,0
1,76,0,120
1,76,100,0
1,76,0,120
1,79,100,0
1,79,0,240
1,79,100,0
1,79,0,240
1,88,100,0
1,88,0,120
1,74,100,360
1,74,0,120
1,74,100,0
1,74,0,120
1,76,100,0
1,76,0,120
1,76,100,0
1,76,0,120
1,76,100,0
1,76,0,240
1,76,100,0
1,76,0,120
1,76,100,0
1,76,0,120
1,76,100,0
1,76,0,360
1,76,100,360
1,76,0,120
1,73,100,0
1,73,0,120
1,74,100,0
1,74,0,120
1,74,100,0
1,74,0,160
1,76,100,0
1,76,0,160
1,73,100,0
1,73,0,160
1,76,100,0
1,76,0,160
1,73,100,0
1,73,0,160
1,74,100,0
1,74,0,160
1,81,100,0
1,81,0,240
1,79,100,0
1,79,0,480
1,74,100,0
1,74,0,120
1,74,100,0
1,74,0,120
1,74,100,0
1,74,0,120
1,76,100,0
1,76,0,120
1,76,100,0
1,76,0,120
1,76,100,0
1,76,0,240
1,76,100,0
1,76,0,120
1,76,100,0
1,76,0,120
1,76,100,0
1,76,0,600
1,76,100,120
1,76,0,120
1,73,100,0
1,73,0,120
1,74,100,0
1,74,0,240
1,76,100,0
1,76,0,120
1,76,100,0
1,76,0,240
1,76,100,0
1,76,0,120
1,76,100,0
1,76,0,120
1,76,100,0
1,76,0,120
1,76,100,0
1,76,0,120
1,81,100,0
1,81,0,240
1,79,100,0
1,79,0,480
1,74,100,0
1,74,0,120
1,74,100,0
1,74,0,120
1,74,100,0
1,74,0,120
1,74,100,0
1,74,0,120
1,74,100,0
1,74,0,120
1,74,100,0
1,74,0,120
1,74,100,0
1,74,0,120
1,74,100,0
1,74,0,120
1,74,100,0
1,74,0,120
1,74,100,0
1,74,0,120
1,76,100,0
1,76,0,240
1,76,100,360
1,76,0,120
1,76,100,0
1,76,0,120
1,76,100,0
1,76,0,120
1,79,100,0
1,79,0,120
1,79,100,0
1,79,0,120
1,76,100,0
1,76,0,120
1,79,100,0
1,79,0,240
1,76,100,0
1,76,0,120
1,76,100,0
1,76,0,120
1,78,100,0
1,78,0,120
1,79,100,0
1,79,0,120
1,79,100,0
1,79,0,120
1,74,100,0
1,74,0,120
1,79,100,0
1,79,0,240
1,76,100,0
1,76,0,120
1,76,100,0
1,76,0,120
1,76,100,0
1,76,0,120
1,79,100,0
1,79,0,120
1,79,100,0
1,79,0,120
1,76,100,0
1,76,0,120
1,79,100,0
1,79,0,120
1,82,100,0
1,82,0,120
1,79,100,0
1,79,0,120
1,79,100,0
1,79,0,120
1,76,100,0
1,76,0,120
1,73,100,0
1,73,0,480
1,83,100,15600
1,83,0,120
1,80,100,0
1,80,0,360
1,83,100,480
1,83,0,120
1,80,100,0
1,80,0,360
1,83,100,480
1,83,0,120
1,80,100,0
1,80,0,360
1,78,100,600
1,78,0,120
1,80,100,0
1,80,0,120
1,78,100,0
1,78,0,120
1,80,100,0
1,80,0,480
1,81,100,480
1,81,0,120
1,80,100,0
1,80,0,360
1,81,100,480
1,81,0,120
1,80,100,0
1,80,0,360
1,78,100,1080
1,78,0,120
1,81,100,0
1,81,0,120
1,78,100,0
1,78,0,120
1,81,100,0
1,81,0,120
1,81,100,0
1,81,0,120
1,78,100,0
1,78,0,120
1,76,100,0
1,76,0,120
1,83,100,480
1,83,0,120
1,80,100,0
1,80,0,360
1,83,100,480
1,83,0,120
1,80,100,0
1,80,0,360
1,78,100,840
1,78,0,120
1,81,100,0
1,81,0,120
1,78,100,0
1,78,0,120
1,81,100,0
1,81,0,120
1,78,100,0
1,78,0,120
1,81,100,0
1,81,0,120
1,78,100,0
1,78,0,120
1,78,100,0
1,78,0,240
1,83,100,480
1,83,0,120
1,80,100,0
1,80,0,360
1,83,100,480
1,83,0,120
1,80,100,0
1,80,0,240
1,78,100,0
1,78,0,120
1,81,100,0
1,81,0,120
1,78,100,0
1,78,0,120
1,81,100,0
1,81,0,120
1,81,100,0
1,81,0,120
1,81,100,0
1,81,0,120
1,78,100,0
1,78,0,120
1,81,100,0
1,81,0,120
1,78,100,0
1,78,0,120
1,81,100,0
1,81,0,120
1,78,100,0
1,78,0,120
1,81,100,0
1,81,0,120
1,78,100,0
1,78,0,120
1,81,100,0
1,81,0,120
1,78,100,0
1,78,0,120
1,81,100,0
1,81,0,120
1,81,100,0
1,81,0,240
1,78,100,0
1,78,0,600
1,78,100,15000
1,78,0,120
1,81,100,0
1,81,0,120
1,78,100,0
1,78,0,120
1,81,100,0
1,81,0,120
1,78,100,0
1,78,0,120
1,81,100,0
1,81,0,120
1,83,100,0
1,83,0,240
1,76,100,0
1,76,0,120
1,83,100,480
1,83,0,120
1,83,100,0
1,83,0,120
1,81,100,0
1,81,0,120
1,78,100,0
1,78,0,120
1,81,100,360
1,81,0,120
1,78,100,0
1,78,0,120
1,81,100,0
1,81,0,240
1,81,100,0
1,81,0,240
1,81,100,0
1,81,0,240
1,81,100,0
1,81,0,120
1,78,100,0
1,78,0,120
1,81,100,0
1,81,0,240
1,81,100,0
1,81,0,240
1,81,100,0
1,81,0,240
1,78,100,0
1,78,0,120
1,81,100,0
1,81,0,120
1,83,100,0
1,83,0,360
1,81,100,360
1,81,0,120
1,80,100,0
1,80,0,120
1,81,100,0
1,81,0,240
1,81,100,0
1,81,0,120
1,81,100,360
1,81,0,120
1,81,100,0
1,81,0,120
1,81,100,0
1,81,0,240
1,81,100,0
1,81,0,240
1,81,100,0
1,81,0,240
1,81,100,0
1,81,0,240
1,78,100,0
1,78,0,120
1,81,100,0
1,81,0,120
1,81,100,0
1,81,0,240
1,81,100,0
1,81,0,240
1,78,100,0
1,78,0,120
1,81,100,0
1,81,0,240
1,83,100,0
1,83,0,480
1,81,100,120
1,81,0,120
1,78,100,0
1,78,0,120
1,81,100,0
1,81,0,240
1,81,100,0
1,81,0,120
1,81,100,360
1,81,0,120
1,78,100,0
1,78,0,120
1,81,100,0
1,81,0,240
1,81,100,0
1,81,0,120
1,78,100,0
1,78,0,120
1,81,100,0
1,81,0,240
1,81,100,0
1,81,0,120
1,78,100,0
1,78,0,120
1,81,100,0
1,81,0,240
1,81,100,0
1,81,0,120
1,78,100,0
1,78,0,120
1,81,100,0
1,81,0,240
1,81,100,0
1,81,0,120
1,83,100,0
1,83,0,240
1,79,100,0
1,79,0,120
1,80,100,0
1,80,0,120
1,83,100,360
1,83,0,240
1,80,100,0
1,80,0,240
1,76,100,0
1,76,0,120
1,83,100,240
1,83,0,360
1,80,100,0
1,80,0,360
1,81,100,720
1,81,0,240
1,76,100,240
1,76,0,120
1,73,100,0
1,73,0,120
2,79,100,23040
2,79,0,120
2,79,100,0
2,79,0,120
2,78,100,0
2,78,0,120
2,78,100,0
2,78,0,120
2,76,100,0
2,76,0,120
2,76,100,0
2,76,0,120
2,74,100,0
2,74,0,120
2,76,100,0
2,76,0,480
2,71,100,0
2,71,0,120
2,73,100,0
2,73,0,240
2,80,100,240
2,80,0,120
2,80,100,0
2,80,0,120
2,78,100,0
2,78,0,120
2,78,100,0
2,78,0,120
2,76,100,0
2,76,0,120
2,76,100,0
2,76,0,120
2,73,100,0
2,73,0,120
2,76,100,0
2,76,0,240
2,76,100,0
2,76,0,240
2,71,100,0
2,71,0,120
2,73,100,0
2,73,0,120
2,76,100,0
2,76,0,240
2,73,100,0
2,73,0,120
2,79,100,0
2,79,0,120
2,79,100,0
2,79,0,120
2,78,100,0
2,78,0,120
2,78,100,0
2,78,0,120
2,76,100,0
2,76,0,120
2,76,100,0
2,76,0,120
2,73,100,0
2,73,0,120
2,76,100,0
2,76,0,480
2,71,100,0
2,71,0,120
2,73,100,0
2,73,0,360
2,73,100,0
2,73,0,120
2,79,100,0
2,79,0,120
2,79,100,0
2,79,0,120
2,78,100,0
2,78,0,120
2,78,100,0
2,78,0,120
2,76,100,0
2,76,0,120
2,76,100,0
2,76,0,120
2,73,100,0
2,73,0,120
2,76,100,0
2,76,0,360
2,73,100,21720
2,73,0,120
2,79,100,0
2,79,0,120
2,79,100,0
2,79,0,120
2,78,100,0
2,78,0,120
2,78,100,0
2,78,0,120
2,76,100,0
2,76,0,120
2,76,100,0
2,76,0,120
2,74,100,0
2,74,0,120
2,76,100,0
2,76,0,480
2,71,100,0
2,71,0,120
