track,note,velocity,time
1,67,75,595
1,81,87,0
1,83,72,5
1,79,86,1
1,74,69,57
1,91,97,0
1,79,77,23
1,74,71,29
1,67,84,96
1,86,102,0
1,91,92,0
1,74,56,81
1,79,75,1
1,86,96,0
1,90,90,0
1,74,63,3
1,71,67,3
1,83,94,0
1,86,100,0
1,74,60,25
1,67,75,17
1,84,105,0
1,88,96,0
1,76,72,76
1,72,66,0
1,76,77,96
1,72,63,0
1,79,66,96
1,67,79,65
1,84,99,0
1,88,100,0
1,76,64,3
1,72,72,96
1,86,97,0
1,90,97,0
1,76,75,22
1,72,77,69
1,88,97,0
1,91,91,0
1,67,47,38
1,64,83,15
1,79,86,0
1,83,99,0
1,71,67,60
1,67,68,4
1,76,64,88
1,71,69,96
1,67,71,8
1,64,88,76
1,79,93,0
1,83,94,0
1,71,64,87
1,67,68,3
1,81,98,0
1,84,91,0
1,71,76,7
1,67,70,62
1,83,93,0
1,86,93,0
1,60,79,35
1,76,93,0
1,79,98,0
1,67,53,5
1,64,68,96
1,72,72,85
1,81,83,0
1,84,91,0
1,67,66,23
1,79,95,0
1,83,83,0
1,64,60,1
1,62,85,27
1,78,104,0
1,81,91,0
1,69,49,0
1,66,76,87
1,69,76,82
1,76,100,0
1,79,89,0
1,66,75,3
1,74,94,0
1,78,96,0
1,69,63,31
1,71,71,47
1,55,66,12
1,79,84,0
1,50,35,171
1,55,68,0
1,67,65,96
1,62,58,0
1,50,32,92
1,67,79,51
1,59,79,0
1,50,63,45
1,71,84,96
1,67,85,0
1,50,66,70
1,48,80,8
1,72,86,0
1,64,82,0
1,55,41,148
1,64,94,56
1,72,92,0
1,52,61,22
1,60,79,63
1,67,69,96
1,62,74,0
1,72,85,0
1,55,67,96
1,72,85,54
1,67,90,0
1,52,74,96
1,72,81,5
1,64,88,0
1,55,56,2
1,52,66,1
1,71,81,0
1,67,79,0
1,64,70,0
1,67,89,29
1,59,44,0
1,55,58,0
1,62,66,96
1,76,92,96
1,67,92,0
1,59,63,13
1,74,92,43
1,67,86,0
1,55,61,2
1,52,67,6
1,48,73,18
1,72,86,0
1,64,90,0
1,55,68,113
1,67,89,96
1,60,92,0
1,52,60,96
1,50,78,4
1,69,87,0
1,62,95,0
1,57,66,8
1,54,75,92
1,66,98,0
1,62,59,15
1,57,65,96
1,74,94,0
1,43,82,31
1,71,85,0
1,62,89,0
1,71,80,19
1,67,83,0
1,50,63,96
1,55,68,71
1,71,82,58
1,62,92,0
1,50,77,18
1,62,82,192
1,71,78,0
1,50,28,87
1,48,72,20
1,64,68,0
1,67,71,0
1,64,89,23
1,72,85,0
1,55,45,0
1,52,63,82
1,60,73,6
1,71,91,96
1,64,93,0
1,55,66,19
1,52,54,5
1,62,72,51
1,71,79,0
1,55,72,0
1,52,55,8
1,52,81,24
1,71,86,0
1,64,89,0
1,67,85,0
1,59,65,9
1,74,81,35
1,67,83,0
1,55,57,24
1,62,73,84
1,76,89,96
1,67,94,0
1,59,75,96
1,74,88,65
1,67,89,0
1,55,52,5
1,59,61,79
1,71,82,0
1,67,92,0
1,52,55,13
1,72,85,23
1,48,76,0
1,64,88,0
1,55,69,40
1,67,90,96
1,60,98,0
1,64,80,4
1,52,55,0
1,55,56,35
1,50,83,12
1,69,89,0
1,62,99,0
1,57,55,179
1,66,101,58
1,62,92,0
1,54,83,96
1,50,63,8
1,55,75,10
1,69,87,0
1,71,72,5
1,67,86,1
1,62,69,57
1,79,97,0
1,67,77,23
1,62,71,29
1,55,84,28
1,74,102,0
1,79,92,0
1,62,56,81
1,67,75,1
1,74,96,0
1,78,90,0
1,62,63,3
1,59,67,3
1,71,94,0
1,74,100,0
1,62,60,25
1,55,75,17
1,72,105,0
1,76,96,0
1,64,72,96
1,60,66,0
1,64,77,96
1,60,63,0
1,67,66,13
1,55,79,65
1,72,99,0
1,76,100,0
1,64,64,3
1,60,72,31
1,74,97,0
1,78,97,0
1,64,75,22
1,60,77,36
1,76,97,0
1,79,91,0
1,55,47,38
1,52,83,32
1,67,86,0
1,71,99,0
1,59,67,93
1,55,68,4
1,64,64,88
1,59,69,96
1,55,71,8
1,52,88,23
1,67,93,0
1,71,94,0
1,59,64,87
1,55,68,3
1,69,98,0
1,72,91,0
1,59,76,7
1,55,70,39
1,71,93,0
1,74,93,0
1,64,93,30
1,67,98,0
1,55,53,5
1,52,68,96
1,60,72,85
1,69,83,0
1,72,91,0
1,55,66,23
1,67,95,0
1,71,83,0
1,52,60,26
1,66,104,27
1,69,91,0
1,57,49,0
1,54,76,87
1,57,76,19
1,64,100,0
1,67,89,0
1,54,75,3
1,62,94,0
1,66,96,0
1,57,63,20
1,59,71,12
1,71,52,4
1,74,78,4
1,67,84,4
1,55,62,2
1,79,82,13
1,62,52,60
1,62,80,0
1,57,77,0
1,55,69,0
1,50,70,10
1,67,84,54
1,59,85,0
1,43,64,96
1,48,69,27
1,64,85,0
1,67,74,0
1,60,78,0
1,67,72,140
1,62,69,0
1,55,56,46
1,60,77,96
1,74,84,71
1,67,91,0
1,55,60,12
1,74,100,18
1,67,105,0
1,60,94,96
1,72,102,46
1,67,103,0
1,55,72,96
1,52,72,22
1,64,81,0
1,69,84,0
1,59,56,170
1,55,58,14
1,74,85,96
1,67,89,0
1,62,79,96
1,69,86,6
1,64,87,0
1,59,44,192
1,62,91,5
1,69,91,63
1,67,102,0
1,59,76,16
1,48,73,2
1,72,92,0
1,64,88,0
1,67,76,0
1,55,72,76
1,62,90,67
1,72,74,0
1,52,65,43
1,50,88,30
1,62,92,0
1,69,89,0
1,57,55,66
1,74,95,2
1,66,97,0
1,54,77,38
1,69,56,31
1,66,98,0
1,43,86,7
1,71,89,0
1,67,74,0
1,62,75,0
1,50,66,177
1,69,105,96
1,74,103,0
1,71,74,7
1,67,105,81
1,74,96,0
1,55,91,24
1,59,99,96
1,50,69,96
1,62,93,67
1,59,100,0
1,47,63,8
1,48,81,31
1,62,84,0
1,67,88,0
1,55,71,78
1,62,102,96
1,67,94,0
1,60,93,96
1,64,99,24
1,67,78,0
1,55,73,96
1,62,106,29
1,67,97,0
1,55,87,63
1,62,100,37
1,67,81,0
1,52,72,9
1,64,92,22
1,52,88,0
1,67,74,0
1,59,74,62
1,71,84,96
1,64,83,0
1,55,55,19
1,62,83,96
1,67,99,96
1,74,94,0
1,59,73,17
1,55,66,24
1,67,88,0
1,71,88,0
1,59,76,18
1,55,16,73
1,67,94,0
1,76,93,0
1,48,92,25
1,79,93,0
1,72,100,0
1,55,67,71
1,52,66,42
1,60,95,88
1,76,96,92
1,67,97,0
1,55,62,96
1,50,92,1
1,74,96,0
1,69,96,0
1,57,58,76
1,54,81,32
1,62,99,69
1,79,91,53
1,57,41,54
1,47,92,33
1,66,101,0
1,62,98,0
1,54,72,164
1,62,89,3
1,69,82,0
1,57,69,6
1,54,71,96
1,47,78,72
1,62,85,0
1,74,88,0
1,66,97,0
1,54,58,37
1,62,90,55
1,71,94,0
1,66,96,0
1,59,89,96
1,54,75,30
1,64,94,0
1,67,87,0
1,48,92,0
1,62,87,0
1,55,53,9
1,67,81,31
1,62,95,0
1,52,66,5
1,60,85,96
1,67,88,96
1,62,103,0
1,55,81,4
1,64,82,91
1,59,86,0
1,67,77,0
1,52,63,7
1,55,52,12
1,67,82,0
1,62,99,0
1,48,27,17
1,40,86,18
1,64,89,0
1,59,97,0
1,67,86,0
1,47,54,149
1,67,77,2
1,62,99,0
1,52,77,96
1,59,45,1
1,47,63,0
1,64,81,2
1,40,74,0
1,59,97,0
1,67,83,0
1,47,60,1
1,67,87,23
1,59,99,0
1,52,84,29
1,62,88,30
1,67,93,8
1,36,88,0
1,64,92,0
1,60,100,0
1,43,50,39
1,64,53,37
1,67,93,0
1,60,102,0
1,48,82,1
1,38,72,16
1,38,89,28
1,69,90,0
1,62,99,0
1,45,54,57
1,50,89,96
1,69,94,56
1,66,100,0
1,62,104,0
1,45,64,96
1,42,57,1
1,43,79,22
1,67,94,0
1,62,97,0
1,59,100,0
1,50,56,43
1,57,68,96
1,67,76,0
1,55,71,44
1,50,58,10
1,57,81,85
1,67,84,0
1,50,37,0
1,67,81,96
1,59,93,0
1,62,5,0
1,43,61,2
1,50,54,1
1,62,66,0
1,48,76,16
1,64,87,0
1,67,77,0
1,60,93,0
1,55,53,27
1,67,78,96
1,62,85,0
1,52,63,96
1,60,85,59
1,67,89,96
1,55,60,192
1,72,93,0
1,64,100,0
1,52,66,56
1,55,61,96
1,67,72,0
1,52,93,9
1,59,90,0
1,71,99,0
1,64,104,0
1,55,58,37
1,59,85,1
1,67,104,64
1,55,55,9
1,50,94,19
1,62,106,0
1,69,97,0
1,57,80,39
1,62,100,48
1,66,103,0
1,54,75,96
1,67,94,28
1,62,93,0
1,62,102,29
1,67,91,0
1,50,51,145
1,55,82,96
1,67,77,63
1,59,93,0
1,50,73,96
1,36,96,15
1,62,86,0
1,57,94,0
1,38,87,63
1,55,87,0
1,59,93,7
1,67,94,0
1,38,89,88
1,50,78,0
1,40,104,23
1,62,91,0
1,59,95,0
1,38,99,9
1,50,13,0
1,31,104,27
1,43,66,0
1,59,86,0
1,67,82,0
1,50,30,141
1,55,60,288
1,67,78,33
1,57,75,0
1,50,77,192
1,59,93,150
1,67,82,0
1,55,63,11
1,62,80,0
1,48,73,0
1,71,84,0
1,64,83,0
1,52,38,18
1,59,75,14
1,55,51,17
1,67,90,50
1,62,94,0
1,55,55,12
1,52,76,34
1,74,95,96
1,67,97,0
1,55,61,5
1,52,73,6
1,71,82,0
1,67,85,0
1,62,74,0
1,59,73,420
1,69,86,50
1,62,88,0
1,55,53,34
1,59,71,96
1,66,92,26
1,69,22,0
1,62,60,0
1,55,58,56
1,59,64,20
1,55,74,17
1,64,85,0
1,67,71,0
1,48,64,0
1,60,79,0
1,55,55,18
1,60,74,96
1,50,85,3
1,69,84,0
1,66,89,0
1,62,97,0
1,57,71,45
1,54,77,68
1,62,79,96
1,66,103,29
1,74,76,58
1,71,90,32
1,62,83,0
1,43,87,0
1,67,90,0
1,50,70,0
1,50,22,0
1,69,91,80
1,62,84,0
1,55,63,192
1,50,68,18
1,71,81,40
1,67,88,0
1,62,89,0
1,47,55,1
1,48,70,32
1,71,85,0
1,67,87,0
1,62,87,0
1,55,47,163
1,74,85,3
1,67,60,0
1,60,79,0
1,55,69,53
1,71,82,53
1,62,81,0
1,55,72,57
1,52,81,0
1,71,84,0
1,64,88,0
1,67,83,0
1,59,64,20
1,69,90,46
1,64,100,0
1,62,80,9
1,59,78,20
1,69,66,37
1,66,93,0
1,67,82,8
1,64,92,0
1,55,65,0
1,48,85,0
1,60,85,0
1,55,76,45
1,60,88,27
1,67,56,0
1,52,60,1
1,50,84,21
1,66,92,0
1,69,88,0
1,62,93,0
1,57,79,25
1,69,84,2
1,62,94,0
1,57,72,9240
1,62,75,0
1,47,84,0
1,66,89,0
1,54,18,111
1,59,82,9
1,69,77,0
1,54,30,156
1,50,50,16
1,66,90,52
1,62,96,0
1,69,85,0
1,64,89,3
1,48,76,0
1,62,84,0
1,71,90,0
1,71,53,46
1,67,67,0
1,62,70,0
1,55,49,96
1,62,79,33
1,71,79,0
1,59,79,275
1,62,105,52
1,71,95,0
1,55,67,96
1,52,74,4
1,67,83,0
1,71,76,0
1,62,88,0
1,59,62,84
1,67,91,192
1,74,93,0
1,55,37,166
1,67,71,12
1,62,93,0
1,74,89,0
1,59,56,1
1,48,65,8
1,64,87,0
1,67,87,0
1,60,98,0
1,55,74,15
1,67,95,15
1,62,99,0
1,52,61,23
1,50,84,24
1,62,49,0
1,66,89,0
1,69,82,0
1,57,75,8
1,74,93,192
1,66,93,0
1,43,66,32
1,71,92,0
1,67,92,0
1,62,89,0
1,50,65,12
1,71,84,192
1,62,91,0
1,67,90,48
1,55,74,0
1,74,95,0
1,55,12,16
1,48,68,0
1,72,86,0
1,64,88,0
1,67,78,0
1,55,52,75
1,71,88,38
1,60,72,0
1,64,85,0
1,55,57,181
1,67,91,22
1,64,40,0
1,52,71,137
1,40,74,0
1,64,83,0
1,59,85,0
1,67,83,0
1,47,68,38
1,67,90,18
1,62,98,0
1,50,69,28
1,38,52,33
1,66,87,0
1,69,74,0
1,62,83,0
1,45,50,7
1,64,83,11
1,69,79,0
1,67,88,40
1,59,94,0
1,43,84,0
1,62,96,0
1,31,98,254
1,36,85,0
1,38,89,66
1,43,98,0
1,31,94,1
1,36,81,96
1,38,93,91
1,40,102,82
1,38,91,93
1,31,104,88
1,43,66,0
1,62,83,0
1,59,86,0
1,67,82,0
1,50,30,141
1,55,60,288
1,67,78,33
1,57,75,0
1,50,77,192
1,59,93,150
1,67,82,0
1,55,63,11
1,62,80,0
1,48,73,0
1,71,84,0
1,64,83,0
1,52,38,18
1,59,75,14
1,55,51,17
1,67,90,50
1,62,94,0
1,55,55,12
1,52,76,34
1,74,95,96
1,67,97,0
1,55,61,5
1,52,73,6
1,71,82,0
1,67,85,0
1,62,74,0
1,59,73,420
1,69,86,50
1,62,88,0
1,55,53,34
1,59,71,96
1,66,92,26
1,69,22,0
1,62,60,0
1,55,58,56
1,59,64,20
1,55,74,17
1,64,85,0
1,67,71,0
1,48,64,0
1,60,79,0
1,55,55,18
1,60,74,96
1,50,85,3
1,69,84,0
1,66,89,0
1,62,97,0
1,57,71,45
1,54,77,68
1,62,79,96
1,66,103,29
1,74,76,58
1,71,90,32
1,62,83,0
1,43,87,0
1,67,90,0
1,50,70,0
1,50,22,0
1,69,91,80
1,62,84,0
1,55,63,192
1,50,68,18
1,71,81,40
1,67,88,0
1,62,89,0
1,47,55,1
1,48,70,32
1,71,85,0
1,67,87,0
1,62,87,0
1,55,47,163
1,74,85,3
1,67,60,0
1,60,79,0
1,55,69,53
1,71,82,53
1,62,81,0
1,55,72,57
1,52,81,0
1,71,84,0
1,64,88,0
1,67,83,0
1,59,64,20
1,69,90,46
1,64,100,0
1,62,80,9
1,59,78,20
1,69,66,37
1,66,93,0
1,67,82,8
1,64,92,0
1,55,65,0
1,48,85,0
1,60,85,0
1,55,76,45
1,60,88,27
1,67,56,0
1,52,60,1
1,50,84,21
1,66,92,0
1,69,88,0
1,62,93,0
1,57,79,25
1,69,84,2
1,62,94,0
1,62,83,15
1,65,89,7
1,70,87,2
1,53,66,0
1,58,74,0
1,46,77,0
1,53,44,2
1,50,37,9
1,70,100,29
1,62,100,0
1,53,47,192
1,50,66,77
1,62,85,52
1,70,89,0
1,65,99,0
1,41,76,114
1,69,92,0
1,60,96,0
1,65,85,98
1,57,87,0
1,53,55,0
1,48,46,96
1,41,72,14
1,65,91,96
1,60,85,0
1,57,89,0
1,65,93,41
1,60,103,0
1,48,76,96
1,53,69,22
1,50,70,51
1,69,88,0
1,57,64,0
1,66,95,0
1,62,97,0
1,54,39,129
1,57,63,60
1,64,90,19
1,69,74,0
1,54,44,96
1,50,73,0
1,66,75,0
1,62,85,0
1,54,71,30
1,66,63,96
1,57,49,96
1,62,69,43
1,74,91,0
1,66,94,0
1,69,69,9
1,62,69,0
1,57,46,96
1,54,51,2
1,50,78,64
1,62,91,0
1,66,101,0
1,54,46,92
1,57,74,63
1,67,80,0
1,62,89,0
1,54,42,82
1,69,96,29
1,54,80,0
1,62,97,0
1,70,98,13
1,46,86,0
1,65,95,0
1,62,86,0
1,70,91,34
1,53,48,0
1,62,92,0
1,58,66,1
1,53,62,5
1,46,81,96
1,70,98,0
1,62,92,0
1,70,73,31
1,62,84,0
1,65,95,0
1,53,80,96
1,46,65,2
1,65,94,6
1,41,86,0
1,60,95,0
1,57,83,0
1,65,72,70
1,57,69,0
1,48,38,96
1,53,73,43
1,65,98,95
1,57,102,0
1,48,71,17
1,65,91,120
1,60,93,0
1,57,92,0
1,50,88,22
1,57,90,0
1,66,99,0
1,69,92,0
1,62,98,0
1,54,26,147
1,62,74,1
1,69,33,0
1,57,52,96
1,54,56,96
1,69,77,44
