track,note,velocity,time
3,71,127,1
3,71,0,31
3,71,127,19
3,69,112,116
3,71,0,2
3,67,95,33
3,69,0,1
3,67,0,19
3,69,127,3
3,69,0,0
3,64,127,0
3,64,0,35
3,64,127,30
3,64,0,37
3,64,123,19
3,64,0,89
3,62,105,2
3,62,0,10
3,64,127,12
3,64,0,33
3,67,127,1
3,67,0,14
3,71,123,3
3,71,0,42
3,71,106,13
3,71,0,21
3,71,127,16
3,71,0,38
3,71,127,23
3,69,123,86
3,71,0,1
3,69,0,37
3,69,125,22
3,67,102,36
3,69,0,0
3,69,127,23
3,67,0,3
3,67,117,56
3,69,0,0
3,67,0,43
3,64,123,19
3,64,0,18
3,64,127,15
3,64,0,0
3,71,127,92
3,71,0,53
3,71,127,1
3,71,0,28
3,69,127,23
3,67,96,34
3,69,0,1
3,69,127,23
3,67,0,1
3,69,0,60
3,67,121,1
3,67,0,33
3,64,125,29
3,62,110,37
3,64,0,0
3,64,127,24
3,62,0,2
3,64,0,36
3,67,127,23
3,67,0,2
3,71,127,1
3,69,119,108
3,71,0,2
3,69,0,35
3,67,94,1
3,67,0,19
3,69,127,3
3,69,0,63
3,67,119,1
3,67,0,37
3,64,123,25
3,64,0,21
3,64,119,9
3,64,0,10
3,74,127,1
3,74,0,29
3,74,127,2
3,74,0,28
3,71,127,17
3,71,0,32
3,71,127,0
3,71,0,0
3,71,127,8
3,71,0,59
3,67,127,1
3,67,0,0
3,71,127,2
3,71,0,17
3,71,127,1
3,71,0,85
3,69,127,24
3,67,101,32
3,69,0,3
3,67,0,6
3,71,127,1
3,71,0,22
3,69,125,16
3,69,0,91
3,64,121,34
3,62,92,34
3,64,0,3
3,64,127,23
3,62,0,0
3,62,101,32
3,64,0,1
3,62,0,22
3,64,127,1
3,64,0,38
3,67,107,1
3,67,0,4
3,71,127,1
3,69,117,48
3,71,0,2
3,69,0,38
3,69,127,22
3,69,0,38
3,71,127,0
3,69,121,41
3,71,0,2
3,69,0,24
3,67,123,33
3,67,0,35
3,64,112,1
3,64,0,5
3,64,115,26
3,62,86,33
3,64,0,1
3,64,119,24
3,62,0,3
3,64,0,32
3,62,98,1
3,62,0,15
3,64,127,12
3,64,0,3
3,71,125,1
3,71,0,25
3,71,121,20
3,71,0,22
3,71,109,10
3,71,0,11
3,71,119,3
3,69,121,48
3,71,0,1
3,69,0,32
3,69,115,27
3,67,92,33
3,69,0,1
3,67,0,23
3,69,127,1
3,69,0,59
3,67,109,1
3,64,102,34
3,67,0,3
3,64,0,7
3,64,115,15
3,64,0,1
3,71,119,2
3,71,0,11
3,71,105,6
3,71,0,11
3,69,127,19
3,69,0,57
3,67,117,3
3,67,0,39
3,67,125,23
3,67,0,28
3,64,107,1
3,64,0,17
3,64,115,14
3,64,0,3
3,71,125,0
3,71,0,29
3,71,127,20
3,71,0,39
3,69,125,19
3,67,95,34
3,69,0,2
3,67,0,7
3,71,127,0
3,71,0,0
3,71,106,2
3,71,0,12
3,71,78,4
3,71,0,16
3,71,121,15
3,71,0,49
3,71,113,12
3,71,0,51
3,69,113,14
3,67,93,32
3,69,0,1
3,67,0,12
3,69,115,10
3,67,102,59
3,69,0,0
3,67,0,44
3,64,98,18
3,62,90,34
3,64,0,0
3,64,119,21
3,62,0,0
3,64,0,49
3,64,109,1
3,64,0,9
3,64,101,11
3,64,0,19
3,64,110,11
3,64,0,41
3,67,109,0
3,67,0,3
3,71,110,1
3,71,0,30
3,71,102,12
3,71,0,20
3,71,100,13
3,71,0,12
3,71,103,1
3,71,0,31
3,71,112,20
3,71,0,38
3,71,110,1
3,69,90,26
3,71,0,3
3,69,0,19
3,67,94,3
3,67,0,41
3,66,123,1
3,64,91,48
3,66,0,0
3,64,0,15
3,64,91,15
3,64,0,12
3,64,117,17
3,64,0,1
3,59,107,172
3,59,0,37
3,71,110,1
3,69,101,103
3,71,0,2
3,67,86,33
3,69,0,1
3,67,0,14
3,69,113,9
3,69,0,44
3,71,106,2
3,64,90,50
3,71,0,1
3,62,80,31
3,64,0,3
3,62,0,13
3,64,103,8
3,64,0,52
3,64,113,11
3,64,0,38
3,64,109,0
3,62,87,29
3,64,0,0
3,62,0,14
3,64,113,9
3,64,0,7
3,71,115,0
3,71,0,90
3,71,107,2
3,71,0,16
3,71,93,10
3,71,0,13
3,71,109,11
3,69,100,60
3,71,0,2
3,69,0,36
3,67,106,21
3,67,0,31
3,64,103,1
3,64,0,69
3,64,119,2
3,64,0,30
3,64,115,19
3,64,0,30
3,71,121,2
3,71,0,2
3,67,102,2
3,66,106,0
3,67,0,0
3,66,0,2
3,67,97,3
3,66,98,2
3,67,0,0
3,66,0,0
3,67,98,1
3,66,102,0
3,67,0,0
3,66,0,0
3,71,110,1
3,71,0,7
3,72,95,2
3,72,0,0
3,71,101,2
3,72,93,8
3,71,0,0
3,72,0,62
3,76,110,3
3,76,0,0
3,78,107,512
3,78,0,3
3,76,94,3
3,76,0,0
3,71,102,2
3,71,0,1
3,73,92,437
3,71,100,63
3,73,0,0
3,71,0,0
3,74,101,2
3,74,0,690
3,71,96,2
3,69,102,170
3,71,0,0
3,67,101,182
3,69,0,1
3,66,103,175
3,67,0,3
3,66,0,177
3,64,95,1
3,64,0,168
3,71,125,0
3,71,0,3
3,71,115,3
3,71,0,0
3,67,106,6
3,67,0,116
3,67,115,0
3,66,115,3
3,67,0,1
3,66,0,0
3,64,110,3
3,64,0,132
3,64,113,40
3,64,0,4
3,74,123,10
3,74,0,69
3,73,127,0
3,73,0,6
3,71,121,3
3,71,0,45
3,69,119,0
3,69,0,130
3,67,113,8
3,66,105,216
3,67,0,4
3,66,0,221
3,64,110,0
3,64,0,153
3,67,112,2
3,66,121,225
3,67,0,3
3,66,0,223
3,62,107,6
3,62,0,0
3,61,102,3
3,61,0,703
3,71,103,2
3,71,0,1
3,64,96,0
3,64,0,98
3,66,105,9
3,66,0,8
3,62,92,1
3,62,0,80
3,71,107,1
3,71,0,1
3,64,101,2
3,64,0,103
3,66,110,3
3,66,0,0
3,62,103,1
3,62,0,69
3,74,110,0
3,74,0,145
3,73,113,2
3,73,0,0
3,71,109,25
3,71,0,1
3,71,115,1
3,71,0,31
3,71,119,16
3,69,102,119
3,71,0,3
3,67,92,30
3,69,0,0
3,67,0,6
3,71,121,2
3,69,113,99
3,71,0,1
3,69,0,28
3,71,117,2
3,71,0,33
3,71,95,9
3,71,0,42
3,71,123,17
3,71,0,40
3,71,109,0
3,71,0,24
3,69,117,22
3,69,0,0
3,71,113,128
3,71,0,41
3,71,115,1
3,71,0,16
3,71,94,7
3,71,0,12
3,71,115,8
3,69,113,61
3,71,0,0
3,69,0,33
3,69,109,0
3,67,92,31
3,69,0,1
3,69,123,18
3,67,0,1
3,67,110,58
3,69,0,3
3,67,0,33
3,67,115,1
3,67,0,33
3,64,117,19
3,64,0,1
3,71,100,25
3,71,0,29
3,71,101,11
3,71,0,24
3,71,110,14
3,71,0,24
3,71,112,14
3,71,0,14
3,71,117,1
3,69,103,43
3,71,0,3
3,69,0,19
3,69,92,12
3,69,0,11
3,67,102,12
3,67,0,42
3,69,112,19
3,69,0,91
3,71,117,2
3,69,94,22
3,71,0,5
3,69,0,17
3,67,103,1
3,64,109,34
3,67,0,3
3,64,0,12
3,71,119,1
3,69,113,47
3,71,0,1
3,69,0,43
3,67,105,12
3,69,110,64
3,67,0,0
3,69,0,59
3,64,93,1
3,64,0,14
3,64,82,12
3,64,0,11
3,76,119,1
3,76,0,37
3,76,117,10
3,76,0,56
3,71,117,2
3,71,0,40
3,71,127,22
3,71,0,2
3,69,106,3
3,69,0,1
3,69,102,2
3,69,0,98
3,62,97,2
3,62,0,5
3,66,121,3
3,66,0,90
3,66,100,4
3,66,0,81
3,67,100,2
3,67,0,6
3,66,97,1
3,66,0,0
3,66,91,2
3,66,0,9
3,66,93,2
3,66,0,9
3,66,112,3
3,66,0,7
3,66,102,1
3,66,0,8
3,66,105,3
3,66,0,6
3,66,98,2
3,66,0,109
3,66,110,2
3,66,0,107
3,66,123,4
3,66,0,139
3,66,123,2
3,66,0,1
3,64,112,1
3,64,0,0
3,66,123,4
3,66,0,0
3,64,109,1
3,64,0,2
3,66,127,2
3,66,0,1
3,64,106,2
3,64,0,1
3,66,123,3
3,66,0,2
3,64,110,3
3,64,0,2
4,36,81,0
4,36,0,23
4,36,107,37
4,36,0,135
4,36,103,46
4,36,0,111
4,36,99,68
4,36,0,121
4,36,101,59
4,36,0,73
4,36,56,46
4,36,0,20
4,36,105,42
4,36,0,121
4,36,105,59
4,36,0,86
4,36,105,94
4,36,0,79
4,36,101,101
4,36,0,46
4,36,75,76
4,36,0,10
4,36,109,50
4,36,0,93
4,36,93,85
4,36,0,74
4,36,105,106
4,36,0,30
4,36,103,149
4,36,0,30
4,36,90,91
4,36,0,12
4,36,105,50
4,36,0,22
4,36,105,159
4,36,0,22
4,36,99,155
4,36,0,20
4,36,71,100
4,36,0,17
4,36,101,43
4,36,0,22
4,36,71,98
4,36,0,20
4,36,93,40
4,36,0,22
4,36,95,160
4,36,0,17
4,36,92,160
4,36,0,21
4,36,105,160
4,36,0,19
4,36,73,100
4,36,0,12
4,36,109,49
4,36,0,14
4,36,105,168
4,36,0,13
4,36,107,167
4,36,0,13
4,36,105,165
4,36,0,14
4,36,63,105
4,36,0,10
4,36,107,50
4,36,0,17
4,36,105,165
4,36,0,15
4,36,107,166
4,36,0,14
4,40,113,164
4,40,0,16
4,43,87,45
4,43,0,10
4,43,113,49
4,43,0,18
4,36,103,44
4,49,123,0
4,49,0,17
4,36,0,33
4,51,97,11
4,51,0,11
4,36,99,46
4,51,89,2
4,51,0,10
4,36,0,14
4,51,121,36
4,40,87,1
4,51,0,14
4,40,0,11
4,51,76,34
4,51,0,16
4,36,99,42
4,51,78,1
4,36,0,11
4,51,0,1
4,51,107,48
4,36,107,1
4,51,0,15
4,36,0,4
4,51,54,41
4,51,0,12
4,36,103,46
4,51,77,0
4,51,0,12
4,36,0,10
4,40,117,38
4,51,121,2
4,51,0,13
4,40,0,6
4,51,119,42
4,51,0,10
4,40,113,9
4,40,0,6
4,40,83,13
4,40,0,11
4,40,117,8
4,40,0,5
4,43,101,15
4,43,0,8
4,43,123,11
4,43,0,6
4,36,109,14
4,51,107,3
4,51,0,13
4,36,0,16
4,51,77,30
4,51,0,14
4,36,97,40
4,51,74,5
4,51,0,12
4,36,0,8
4,40,111,37
4,51,113,4
4,51,0,13
4,40,0,5
4,51,89,42
4,51,0,12
4,36,57,27
4,36,0,7
4,36,92,13
4,51,90,2
4,36,0,11
4,51,0,1
4,36,113,45
4,51,121,0
4,51,0,12
4,36,0,15
4,40,101,36
4,40,0,14
4,40,113,16
4,40,0,14
4,40,109,16
4,40,0,8
4,43,109,22
4,43,0,14
4,45,109,16
4,45,0,13
4,40,105,18
4,40,0,13
4,45,119,17
4,45,0,9
4,43,95,21
4,43,0,7
4,41,121,23
4,41,0,6
4,36,109,50
4,49,123,1
4,49,0,20
4,36,0,36
4,51,89,4
4,51,0,14
4,36,101,46
4,51,95,0
4,51,0,14
4,40,111,48
4,51,115,0
4,36,0,0
4,51,0,10
4,40,0,27
4,51,77,23
4,51,0,10
4,36,93,47
4,51,87,1
4,51,0,10
4,36,0,11
4,36,107,39
4,51,111,2
4,51,0,10
4,51,85,50
4,36,0,2
4,51,0,8
4,36,101,48
4,51,90,0
4,51,0,10
4,36,0,47
4,40,113,4
4,51,105,0
4,51,0,10
4,40,0,19
4,51,113,30
4,51,0,10
4,40,119,12
4,40,0,6
4,40,82,13
4,40,0,11
4,40,117,8
4,40,0,5
4,43,88,15
4,43,0,8
4,43,123,11
4,43,0,6
4,36,109,15
4,51,113,1
4,51,0,13
4,51,78,47
4,36,0,1
4,51,0,8
4,36,101,49
4,51,80,1
4,51,0,9
4,36,0,49
4,40,113,2
4,51,107,2
4,51,0,10
4,40,0,13
4,51,85,37
4,51,0,9
4,36,87,48
4,51,83,1
4,51,0,10
4,36,0,10
4,36,103,40
4,51,107,0
4,51,0,12
4,51,75,48
4,36,0,6
4,51,0,2
4,36,92,51
4,51,83,1
4,51,0,9
4,36,0,21
4,36,107,30
4,51,109,2
4,51,0,12
4,36,0,27
4,51,90,19
4,51,0,12
4,40,94,29
4,40,0,11
4,40,117,8
4,51,109,2
4,40,0,3
4,51,0,8
4,40,90,7
4,40,0,8
4,40,123,11
4,40,0,6
4,36,105,17
4,44,105,0
4,44,0,19
4,36,0,44
4,42,82,34
4,42,0,9
4,36,97,13
4,42,111,0
4,42,0,11
4,36,0,46
4,40,107,3
4,42,125,0
4,42,0,14
4,40,0,27
4,42,105,20
4,42,0,10
4,36,93,48
4,42,107,2
4,42,0,10
4,36,0,13
4,36,97,36
4,42,115,1
4,42,0,11
4,36,0,30
4,42,81,20
4,42,0,4
4,42,103,32
4,42,0,7
4,42,113,14
4,42,0,11
4,40,117,50
4,42,123,1
4,42,0,10
4,40,0,18
4,42,83,31
4,42,0,12
4,36,83,47
4,42,115,2
4,42,0,11
4,36,0,9
4,36,101,40
4,42,113,0
4,42,0,10
4,42,90,49
4,36,0,0
4,42,0,7
4,42,90,33
4,42,0,4
4,42,111,16
4,36,85,2
4,42,0,10
4,36,0,3
4,40,113,46
4,42,119,0
4,42,0,11
4,40,0,33
4,42,89,15
4,42,0,6
4,36,69,25
4,42,105,10
4,36,0,0
4,42,0,6
4,36,89,13
4,42,113,2
4,42,0,8
4,36,0,16
4,36,109,35
4,42,115,1
4,42,0,10
4,36,0,34
4,42,97,15
4,42,0,7
4,42,93,33
4,42,0,5
4,36,90,12
4,42,103,4
4,42,0,7
4,36,0,21
4,40,113,29
4,42,117,3
4,42,0,9
4,40,0,27
4,42,55,21
4,42,0,3
4,42,103,37
4,42,0,7
4,36,90,14
4,42,117,1
4,42,0,10
4,36,0,6
4,36,99,44
4,42,123,0
4,42,0,10
4,42,92,50
4,36,0,4
4,42,0,2
4,42,87,34
4,42,0,1
4,36,97,19
4,42,107,1
4,42,0,7
4,36,0,46
4,40,113,6
4,42,117,1
4,42,0,10
4,40,0,16
4,42,111,33
4,42,0,7
4,42,95,34
4,42,0,4
4,36,85,13
4,42,107,2
4,42,0,8
4,36,0,11
4,36,99,41
4,42,115,1
4,42,0,9
4,42,82,50
4,36,0,2
4,42,0,4
4,42,107,32
4,42,0,10
4,36,95,10
4,42,103,3
4,42,0,7
4,36,0,44
4,40,107,6
4,42,117,3
4,42,0,9
4,40,0,20
4,42,90,30
4,42,0,6
4,42,74,34
4,42,0,1
4,36,95,17
4,42,105,2
4,42,0,7
4,36,0,19
4,36,103,34
4,42,121,0
4,42,0,10
4,42,103,50
4,36,0,7
4,42,0,2
4,42,97,29
4,42,0,6
4,36,103,14
4,42,109,2
4,42,0,10
4,36,0,47
4,40,111,3
4,42,121,1
4,42,0,8
4,40,0,38
4,42,109,11
4,42,0,10
4,36,99,50
4,42,119,1
4,42,0,8
4,36,0,13
4,36,105,38
4,42,115,1
4,42,0,11
4,36,0,22
4,42,115,26
4,42,0,10
4,42,123,52
4,42,0,7
4,36,82,52
4,49,125,1
4,49,0,10
4,36,0,18
4,49,93,30
4,36,109,2
4,49,0,9
4,36,0,12
4,36,123,37
4,49,117,0
4,49,0,8
4,36,0,26
4,42,107,27
4,43,100,0
4,42,0,10
4,43,0,1
4,43,70,20
4,43,0,16
4,42,86,13
4,45,103,1
4,42,0,8
4,45,0,6
4,43,101,16
4,43,0,16
4,41,116,13
4,42,95,1
4,42,0,7
4,41,0,5
4,41,84,18
4,41,0,14
4,36,101,14
4,49,127,1
4,49,0,9
4,36,0,13
4,36,109,37
4,49,107,1
4,49,0,10
4,36,0,13
4,36,119,36
4,49,113,2
4,49,0,7
4,36,0,29
4,42,121,22
4,45,120,0
4,45,0,8
4,42,0,2
4,45,80,10
4,45,0,8
4,45,109,12
4,45,0,8
4,43,126,11
4,42,92,1
