track,note,velocity,time
3,71,107,0
3,71,0,13
3,71,117,20
3,71,0,56
3,71,117,4
3,69,90,44
3,71,0,7
3,69,0,18
3,67,113,6
3,67,0,1
3,62,103,1
3,64,107,18
3,62,0,5
3,64,0,24
3,64,103,2
3,64,0,26
3,64,99,4
3,64,0,14
3,64,117,6
3,64,0,25
3,67,116,1
3,64,117,82
3,67,0,9
3,64,0,2
3,71,110,2
3,71,0,11
3,71,101,23
3,71,0,12
3,71,108,17
3,71,0,49
3,71,111,1
3,71,0,9
3,71,111,10
3,71,0,33
3,69,111,24
3,69,0,6
3,62,75,62
3,62,0,20
3,64,105,11
3,64,0,63
3,64,113,25
3,64,0,34
3,67,111,4
3,67,0,102
3,64,111,6
3,64,0,9
3,71,113,3
3,69,111,74
3,71,0,3
3,69,0,63
3,67,115,3
3,67,0,52
3,64,115,4
3,64,0,36
3,62,99,178
3,62,0,22
3,64,113,8
3,64,0,23
3,62,93,5
3,62,0,11
3,64,115,19
3,64,0,60
3,67,109,2
3,67,0,70
3,62,99,9
3,62,0,69
3,64,86,145
3,64,0,10
3,71,117,2
3,71,0,6
3,71,105,11
3,69,87,28
3,71,0,2
3,69,0,15
3,69,101,14
3,69,0,9
3,71,115,4
3,71,0,16
3,69,107,0
3,69,0,126
3,64,86,181
3,64,0,10
3,71,117,2
3,71,0,6
3,71,105,11
3,69,87,28
3,71,0,2
3,69,0,15
3,69,101,14
3,69,0,9
3,71,115,4
3,71,0,16
3,69,107,0
3,69,0,126
3,71,107,10
3,71,0,2
3,62,101,96
3,57,85,0
3,62,0,20
3,57,0,1
3,62,95,9
3,57,71,0
3,62,0,19
3,57,0,1
3,57,83,9
3,62,97,0
3,57,0,23
3,62,0,2
3,62,101,5
3,57,89,1
3,57,0,20
3,62,0,1
3,62,92,8
3,57,72,0
3,57,0,9
3,62,0,8
3,57,103,14
3,62,111,0
3,62,0,59
3,57,0,3
3,57,69,224
3,62,72,1
3,62,0,16
3,57,0,6
3,57,35,7
3,62,81,1
3,62,0,18
3,57,0,6
3,57,76,6
3,62,92,0
3,62,0,13
3,57,0,4
3,57,66,13
3,62,86,0
3,62,0,13
3,57,0,6
3,57,72,11
3,62,97,0
3,62,0,12
3,57,0,1
3,57,109,17
3,62,115,2
3,62,0,49
3,57,0,2
3,57,69,224
3,62,72,1
3,62,0,16
3,57,0,6
3,57,35,7
3,62,81,1
3,62,0,18
3,57,0,6
3,57,76,6
3,62,92,0
3,62,0,13
3,57,0,4
3,57,66,13
3,62,86,0
3,62,0,13
3,57,0,6
3,57,72,11
3,62,97,0
3,62,0,12
3,57,0,1
3,57,109,17
3,62,115,2
3,62,0,49
3,57,0,2
3,57,69,224
3,62,72,1
3,62,0,16
3,57,0,6
3,57,35,7
3,62,81,1
3,62,0,18
3,57,0,6
3,57,76,6
3,62,92,0
3,62,0,13
3,57,0,4
3,57,66,13
3,62,86,0
3,62,0,13
3,57,0,6
3,57,72,11
3,62,97,0
3,62,0,12
3,57,0,1
3,57,109,17
3,62,115,2
3,62,0,49
3,57,0,4
3,71,113,10
3,71,0,26
3,71,107,16
3,71,0,1
3,71,109,4
3,69,105,29
3,71,0,1
3,69,0,47
3,67,97,1
3,67,0,96
3,67,99,4
3,67,0,14
3,69,92,5
3,69,0,28
3,67,95,2
3,69,99,25
3,67,0,2
3,69,0,16
3,71,113,3
3,71,0,26
3,71,109,2
3,69,92,28
3,71,0,1
3,69,0,48
3,67,101,4
3,67,0,92
3,64,86,142
3,64,0,17
3,71,109,2
3,71,0,19
3,71,111,20
3,71,0,78
3,71,109,3
3,71,0,41
3,71,113,6
3,71,0,3
3,69,109,38
3,69,0,32
3,67,78,3
3,67,0,5
3,69,117,10
3,69,0,34
3,67,85,25
3,67,0,10
3,69,113,18
3,69,0,29
3,69,109,3
3,69,0,58
3,69,113,21
3,69,0,55
3,67,107,10
3,67,0,20
3,64,115,36
3,64,0,19
3,71,111,2
3,71,0,58
3,71,111,10
3,71,0,54
3,71,115,1
3,71,0,46
3,69,105,8
3,69,0,28
3,67,90,0
3,62,103,69
3,67,0,4
3,62,0,71
3,62,95,9
3,64,107,20
3,62,0,2
3,64,0,22
3,64,92,10
3,64,0,12
3,64,103,13
3,64,0,13
3,64,113,18
3,64,0,29
3,64,117,24
3,64,0,53
3,64,86,196
3,64,0,10
3,71,117,2
3,71,0,6
3,71,105,11
3,69,87,28
3,71,0,2
3,69,0,15
3,69,101,14
3,69,0,9
3,71,115,4
3,71,0,16
3,69,107,0
3,69,0,126
3,59,101,3
3,71,97,37
3,59,0,3
3,71,0,53
3,64,86,45
3,64,0,10
3,24,50,3
3,24,0,1
3,71,117,2
3,71,0,6
3,71,105,11
3,69,87,28
3,71,0,2
3,69,0,15
3,69,101,14
3,69,0,9
3,71,115,4
3,71,0,16
3,69,107,0
3,69,0,126
3,62,109,3
3,64,99,43
3,62,0,2
3,64,0,58
3,71,119,3
3,71,0,1
3,57,83,87
3,62,97,0
3,57,0,23
3,62,0,2
3,62,101,6
3,57,89,0
3,57,0,20
3,62,0,2
3,62,92,7
3,57,72,0
3,57,0,9
3,62,0,8
3,57,103,14
3,62,111,0
3,62,0,59
3,57,0,3
3,57,69,224
3,62,72,1
3,62,0,16
3,57,0,6
3,57,35,7
3,62,81,1
3,62,0,18
3,57,0,6
3,57,76,6
3,62,92,0
3,62,0,13
3,57,0,4
3,57,66,13
3,62,86,0
3,62,0,13
3,57,0,6
3,57,72,11
3,62,97,0
3,62,0,12
3,57,0,1
3,57,109,17
3,62,115,2
3,62,0,49
3,57,0,2
3,57,69,224
3,62,72,1
3,62,0,16
3,57,0,6
3,57,35,7
3,62,81,1
3,62,0,18
3,57,0,6
3,57,76,6
3,62,92,0
3,62,0,13
3,57,0,4
3,57,66,13
3,62,86,0
3,62,0,13
3,57,0,6
3,57,72,11
3,62,97,0
3,62,0,12
3,57,0,1
3,57,109,17
3,62,115,2
3,62,0,49
3,57,0,2
3,57,69,224
3,62,72,1
3,62,0,16
3,57,0,6
3,57,35,7
3,62,81,1
3,62,0,18
3,57,0,6
3,57,76,6
3,62,92,0
3,62,0,13
3,57,0,4
3,62,86,13
3,57,66,0
3,62,0,13
3,57,0,6
3,57,72,11
3,62,97,0
3,62,0,12
3,57,0,1
3,57,109,17
3,62,115,2
3,62,0,49
3,57,0,4
3,71,111,4
3,71,0,10
3,71,121,32
3,71,0,89
3,71,113,1
3,71,0,42
3,69,109,1
3,69,0,29
3,67,101,1
3,67,0,89
3,69,105,93
3,69,0,1
3,69,101,5
3,69,0,14
3,71,115,5
3,71,0,2
3,69,117,2
3,69,0,73
3,67,99,1
3,67,0,89
3,64,82,1
3,64,0,29
3,62,101,1
3,62,0,56
3,64,113,4
3,64,0,29
3,59,93,1
3,59,0,59
3,71,107,5
3,71,0,42
3,71,81,3
3,71,0,28
3,71,115,2
3,71,0,29
3,71,117,31
3,71,0,28
3,69,119,14
3,69,0,29
3,67,71,31
3,67,0,29
3,69,117,3
3,69,0,59
3,69,115,29
3,69,0,29
3,71,113,1
3,71,0,50
3,69,109,1
3,69,0,29
3,67,95,1
3,67,0,29
3,67,115,31
3,67,0,26
3,64,89,4
3,64,0,29
3,62,109,1
3,62,0,3
3,71,101,0
3,71,0,14
3,71,107,16
3,71,0,31
3,69,111,22
3,69,0,39
3,69,109,23
3,69,0,56
3,62,95,2
3,62,0,83
3,62,83,97
3,64,105,30
3,62,0,2
3,64,0,23
3,62,70,5
3,62,0,16
3,64,101,14
3,64,0,18
3,64,87,14
3,64,0,10
3,64,90,20
3,64,0,10
3,67,107,2
3,64,111,18
3,67,0,3
3,62,105,27
3,64,0,1
3,62,0,133
3,64,81,104
3,64,0,11
3,71,97,4
3,71,0,4
3,71,99,9
3,71,0,17
3,71,105,15
3,69,90,30
3,71,0,6
3,69,0,10
3,69,103,14
3,67,85,30
3,69,0,4
3,67,0,8
3,69,103,17
3,67,69,31
3,69,0,6
3,67,0,1
3,71,107,2
3,71,0,20
3,69,109,22
3,69,0,45
3,64,101,0
3,71,103,16
3,64,0,3
3,71,0,16
3,71,95,11
3,71,0,16
3,71,111,2
3,71,0,2
3,71,105,13
3,71,0,13
3,70,119,16
3,70,0,1
3,67,115,2
3,67,0,1
3,62,113,10
3,62,0,2
3,71,113,9
3,71,0,48
3,67,111,0
3,67,0,1
3,71,109,5
3,71,0,35
3,69,111,18
3,67,105,60
3,69,0,2
3,67,0,39
3,71,109,2
3,71,0,40
3,67,111,2
3,67,0,105
3,71,107,10
3,71,0,2
3,62,101,96
3,57,85,0
3,62,0,20
3,57,0,1
3,62,95,9
3,57,71,0
3,62,0,19
3,57,0,1
3,57,83,9
3,62,97,0
3,57,0,23
3,62,0,2
3,62,101,5
3,57,89,1
3,57,0,20
3,62,0,1
3,62,92,8
3,57,72,0
3,57,0,9
3,62,0,8
3,57,103,14
3,62,111,0
3,62,0,59
3,57,0,3
3,57,69,224
3,62,72,1
3,62,0,16
3,57,0,6
3,57,35,7
3,62,81,1
3,62,0,18
3,57,0,6
3,57,76,6
3,62,92,0
3,62,0,13
3,57,0,4
3,57,66,13
3,62,86,0
3,62,0,13
3,57,0,6
3,57,72,11
3,62,97,0
3,62,0,12
3,57,0,1
3,57,109,17
3,62,115,2
3,62,0,49
3,57,0,2
3,57,69,224
3,62,72,1
3,62,0,16
3,57,0,6
3,57,35,7
3,62,81,1
3,62,0,18
3,57,0,6
3,57,76,6
3,62,92,0
3,62,0,13
3,57,0,4
3,57,66,13
3,62,86,0
3,62,0,13
3,57,0,6
3,57,72,11
3,62,97,0
3,62,0,12
3,57,0,1
3,57,109,17
3,62,115,2
3,62,0,49
3,57,0,2
3,57,69,224
3,62,72,1
3,62,0,16
3,57,0,6
3,57,35,7
3,62,81,1
3,62,0,18
3,57,0,6
3,57,76,6
3,62,92,0
3,62,0,13
3,57,0,4
3,57,66,13
3,62,86,0
3,62,0,13
3,57,0,6
3,57,72,11
3,62,97,0
3,62,0,12
3,57,0,1
3,57,109,17
3,62,115,2
3,62,0,49
3,57,0,4
3,71,119,9
3,71,0,197
3,71,117,4
3,71,0,150
3,71,119,28
3,71,0,59
3,67,111,61
3,67,0,2
3,59,80,5
3,59,0,128
3,71,121,3
3,71,0,52
3,71,109,16
3,71,0,5
3,71,117,3
3,71,0,1
3,67,115,5
3,67,0,3
3,59,89,3
3,59,0,246
3,71,117,4
3,71,0,3
3,59,103,2
3,59,0,54
3,59,109,6
3,61,107,49
3,59,0,1
3,61,0,67
3,62,109,3
3,62,0,73
3,59,107,2
3,59,0,71
3,59,99,3
3,61,99,55
3,59,0,5
3,61,0,66
3,62,103,2
3,62,0,91
3,71,86,2
3,71,0,14
3,64,82,10
3,64,0,79
3,71,90,8
3,71,0,32
3,69,109,16
3,69,0,52
3,64,103,10
3,64,0,55
3,69,81,52
3,69,0,22
3,69,113,8
3,69,0,27
3,69,81,4
3,69,0,18
3,69,90,13
3,69,0,22
3,69,87,7
3,69,0,10
3,71,113,2
3,69,103,43
3,71,0,3
3,67,95,57
3,69,0,1
3,62,103,57
3,67,0,3
3,62,0,2
4,40,123,5969
4,40,115,3
4,40,0,13
4,40,0,6
4,40,125,40
4,40,0,15
4,40,119,16
4,40,0,13
4,40,126,16
4,40,0,14
4,45,123,17
4,45,0,11
4,45,125,19
4,45,0,11
4,43,121,18
4,43,0,11
4,43,126,17
4,43,0,13
4,36,121,19
4,49,117,5
4,49,0,7
4,36,0,15
4,36,119,33
4,42,111,3
4,42,0,8
4,36,0,39
4,42,113,9
4,40,119,1
4,42,0,9
4,40,0,35
4,42,90,13
4,42,0,9
4,42,113,51
4,36,123,1
4,42,0,8
4,36,0,49
4,42,90,4
4,42,0,9
4,36,119,20
4,42,109,29
4,36,0,2
4,42,0,7
4,36,113,24
4,36,0,25
4,42,87,1
4,40,125,4
4,42,0,2
4,42,99,22
4,42,0,6
4,40,0,28
4,42,115,1
4,36,119,1
4,42,0,8
4,36,0,29
4,36,109,23
4,42,103,0
4,42,0,9
4,36,0,42
4,40,125,9
4,42,113,2
4,42,0,9
4,40,0,34
4,42,90,14
4,42,0,6
4,42,107,52
4,36,121,2
4,42,0,7
4,36,0,44
4,42,90,9
4,42,0,7
4,36,115,23
4,42,113,4
4,42,0,8
4,36,0,15
4,36,123,34
4,42,113,29
4,42,0,7
4,36,0,1
4,36,121,53
4,49,115,5
4,49,0,7
4,36,0,10
4,36,119,38
4,42,103,6
4,42,0,8
4,36,0,32
4,40,119,14
4,42,117,6
4,42,0,8
4,40,0,35
4,42,103,14
4,42,0,8
4,36,119,47
4,42,107,4
4,42,0,7
4,36,0,39
4,42,105,11
4,42,0,6
4,36,117,24
4,42,99,3
4,42,0,4
4,36,0,22
4,36,123,32
4,42,119,2
4,42,0,4
4,36,0,31
4,36,121,52
4,49,113,1
4,49,0,8
4,36,0,10
4,36,117,40
4,42,107,2
4,42,0,9
4,36,0,33
4,40,123,16
4,42,113,1
4,42,0,12
4,40,0,32
4,42,99,15
4,42,0,9
4,36,115,51
4,42,111,0
4,42,0,11
4,36,0,40
4,42,90,9
4,42,0,6
4,36,119,24
4,42,101,1
4,42,0,7
4,36,0,17
4,36,123,35
4,42,109,0
4,42,0,8
4,36,0,44
4,36,117,40
4,49,115,0
4,49,0,6
4,36,0,21
4,36,117,33
4,42,109,0
4,42,0,8
4,36,0,35
4,40,119,17
4,42,107,0
4,42,0,9
4,40,0,44
4,42,101,7
4,42,0,11
4,36,119,47
4,42,109,2
4,42,0,9
4,36,0,37
4,42,107,12
4,42,0,11
4,36,123,19
4,42,107,30
4,36,0,2
4,42,0,9
4,36,113,21
4,36,0,20
4,42,86,7
4,40,123,2
4,42,0,7
4,40,0,46
4,36,119,8
4,42,115,0
4,42,0,9
4,36,0,17
4,42,85,32
4,36,119,2
4,42,0,7
4,36,0,33
4,40,117,18
4,42,113,2
4,42,0,9
4,40,0,35
4,42,97,15
4,42,0,7
4,36,117,52
4,42,111,1
4,42,0,9
4,36,0,41
4,42,90,9
4,42,0,7
4,36,117,23
4,42,105,30
4,36,0,1
4,42,0,8
4,36,109,21
4,36,0,24
4,40,119,5
4,42,86,0
4,42,0,8
4,40,0,51
4,42,109,2
4,36,117,1
4,42,0,10
4,36,0,44
4,42,89,4
4,42,0,7
4,36,113,26
4,36,0,23
4,40,123,5
4,42,105,0
4,42,0,9
4,42,74,51
4,42,0,6
4,40,0,16
4,42,105,38
4,36,121,2
4,42,0,7
4,36,0,43
4,42,69,8
4,42,0,5
4,36,115,25
4,42,111,30
4,36,0,4
4,42,0,7
4,36,105,19
4,36,0,22
4,40,121,8
4,42,81,0
4,42,0,7
4,40,0,48
4,36,115,4
4,42,113,2
4,42,0,9
4,36,0,42
4,42,90,8
4,42,0,9
4,36,105,21
4,36,0,23
4,40,123,6
4,42,115,1
4,42,0,9
4,40,0,52
4,42,66,0
4,42,0,6
4,36,111,53
4,42,113,0
4,42,0,9
4,42,93,53
4,36,0,1
4,42,0,5
4,36,109,22
4,42,113,32
4,36,0,3
4,42,0,6
4,36,107,21
4,36,0,18
4,40,123,11
4,42,95,2
4,42,0,9
4,40,0,46
4,36,113,4
4,42,103,0
4,42,0,12
4,36,0,36
4,42,86,11
4,42,0,7
4,36,92,22
4,36,0,23
4,40,121,7
4,42,117,2
4,42,0,7
4,40,0,47
4,42,86,5
4,42,0,7
4,36,111,51
4,42,113,3
4,42,0,11
4,36,0,37
4,42,72,12
4,42,0,6
4,36,105,22
4,42,107,32
4,36,0,5
4,42,0,6
4,36,103,17
4,36,0,20
4,40,121,10
4,42,78,2
4,42,0,8
4,40,0,49
4,36,117,1
4,42,113,2
4,42,0,11
4,36,0,40
4,42,90,8
4,42,0,7
4,36,105,23
4,36,0,26
4,40,125,3
4,42,109,1
4,42,0,9
4,42,70,50
4,40,0,6
4,42,0,5
4,42,111,50
4,36,115,1
4,42,0,9
4,36,0,39
