track,note,velocity,time
1,67,100,4980
1,67,100,20
1,67,0,0
1,69,100,20
1,67,0,0
1,69,100,20
1,69,0,0
1,74,100,90
1,69,0,0
1,70,100,150
1,74,0,0
1,69,100,40
1,70,0,0
1,67,100,40
1,69,0,0
1,69,100,40
1,67,0,0
1,69,0,120
1,67,100,300
1,67,100,60
1,67,0,0
1,67,100,60
1,67,0,0
1,67,100,120
1,67,0,0
1,67,100,120
1,67,0,0
1,67,100,180
1,67,0,0
1,67,100,30
1,67,0,0
1,69,100,60
1,67,0,0
1,67,100,30
1,69,0,0
1,69,100,60
1,67,0,0
1,67,100,30
1,69,0,0
1,67,0,150
1,67,100,120
1,67,100,20
1,67,0,0
1,67,100,20
1,67,0,0
1,71,100,20
1,67,0,0
1,74,100,60
1,71,0,0
1,70,100,120
1,74,0,0
1,69,100,60
1,70,0,0
1,67,100,60
1,69,0,0
1,69,100,60
1,67,0,0
1,69,0,120
1,67,100,360
1,67,100,60
1,67,0,0
1,67,100,30
1,67,0,0
1,67,100,60
1,67,0,0
1,67,0,270
1,69,100,60
1,67,100,90
1,69,0,0
1,69,100,60
1,67,0,0
1,67,100,30
1,69,0,0
1,69,100,60
1,67,0,0
1,67,100,30
1,69,0,0
1,67,0,150
1,67,100,180
1,67,100,20
1,67,0,0
1,67,100,20
1,67,0,0
1,71,100,20
1,67,0,0
1,74,100,60
1,71,0,0
1,76,100,60
1,74,0,0
1,74,100,60
1,76,0,0
1,70,100,30
1,74,0,0
1,69,100,60
1,70,0,0
1,67,100,30
1,69,0,0
1,67,0,180
1,67,100,300
1,67,100,60
1,67,0,0
1,69,100,60
1,67,0,0
1,70,100,60
1,69,0,0
1,72,100,180
1,70,0,0
1,74,100,120
1,72,0,0
1,77,100,60
1,74,0,0
1,74,100,60
1,77,0,0
1,72,100,60
1,74,0,0
1,74,100,240
1,72,0,0
1,75,100,420
1,74,0,0
1,71,100,300
1,75,0,0
1,69,100,30
1,71,0,0
1,67,100,30
1,69,0,0
1,67,0,60
1,67,100,24300
1,67,100,20
1,67,0,0
1,69,100,20
1,67,0,0
1,71,100,20
1,69,0,0
1,74,100,60
1,71,0,0
1,71,100,60
1,74,0,0
1,69,100,60
1,71,0,0
1,67,100,60
1,69,0,0
1,69,100,60
1,67,0,0
1,69,0,180
1,67,100,300
1,67,100,120
1,67,0,0
1,67,100,120
1,67,0,0
1,67,0,120
1,67,100,60
1,67,100,60
1,67,0,0
1,67,100,120
1,67,0,0
1,69,100,90
1,67,0,0
1,67,100,30
1,69,0,0
1,69,100,90
1,67,0,0
1,67,100,30
1,69,0,0
1,67,0,60
1,67,100,180
1,67,100,60
1,67,0,0
1,69,100,30
1,67,0,0
1,71,100,30
1,69,0,0
1,74,100,60
1,71,0,0
1,76,100,60
1,74,0,0
1,74,100,60
1,76,0,0
1,70,100,60
1,74,0,0
1,69,100,30
1,70,0,0
1,67,100,30
1,69,0,0
1,67,0,120
1,67,100,360
1,67,100,30
1,67,0,0
1,70,100,90
1,67,0,0
1,70,100,60
1,70,0,0
1,72,100,120
1,70,0,0
1,74,100,120
1,72,0,0
1,79,100,60
1,74,0,0
1,74,100,60
1,79,0,0
1,72,100,30
1,74,0,0
1,72,100,30
1,72,0,0
1,72,0,120
1,67,100,270
1,67,100,30
1,67,0,0
1,69,100,60
1,67,0,0
1,71,100,60
1,69,0,0
1,74,100,60
1,71,0,0
1,76,100,60
1,74,0,0
1,79,100,30
1,76,0,0
1,76,100,30
1,79,0,0
1,74,100,30
1,76,0,0
1,74,100,90
1,74,0,0
1,70,100,60
1,74,0,0
1,69,100,30
1,70,0,0
1,67,100,30
1,69,0,0
1,67,0,120
1,67,100,240
1,67,100,60
1,67,0,0
1,69,100,120
1,67,0,0
1,67,100,60
1,69,0,0
1,69,100,120
1,67,0,0
1,67,100,60
1,69,0,0
1,69,100,120
1,67,0,0
1,67,100,60
1,69,0,0
1,67,100,180
1,67,0,0
1,79,100,30
1,67,0,0
1,79,0,390
1,81,100,180
1,77,100,60
1,81,0,0
1,79,100,120
1,77,0,0
1,74,100,120
1,79,0,0
1,72,100,30
1,74,0,0
1,70,100,30
1,72,0,0
1,70,0,180
1,76,100,1140
1,71,100,90
1,76,0,0
1,69,100,30
1,71,0,0
1,67,100,30
1,69,0,0
1,67,0,150
1,76,100,180
1,71,100,120
1,76,0,0
1,69,100,30
1,71,0,0
1,67,100,30
1,69,0,0
1,67,0,120
1,79,100,4740
1,79,100,60
1,79,0,0
1,79,100,90
1,79,0,0
1,82,100,30
1,79,0,0
1,81,100,60
1,82,0,0
1,79,100,60
1,81,0,0
1,76,100,30
1,79,0,0
1,79,100,60
1,76,0,0
1,76,100,90
1,79,0,0
1,76,0,180
1,79,100,300
1,79,100,60
1,79,0,0
1,79,100,30
1,79,0,0
1,79,100,60
1,79,0,0
1,72,100,90
1,79,0,0
1,79,100,180
1,72,0,0
1,79,100,60
1,79,0,0
1,86,100,60
1,79,0,0
1,84,100,30
1,86,0,0
1,83,100,60
1,84,0,0
1,84,100,30
1,83,0,0
1,83,100,30
1,84,0,0
1,83,0,210
1,79,100,60
1,79,100,60
1,79,0,0
1,79,100,60
1,79,0,0
1,82,100,30
1,79,0,0
1,81,100,90
1,82,0,0
1,79,100,60
1,81,0,0
1,76,100,30
1,79,0,0
1,79,100,30
1,76,0,0
1,76,100,90
1,79,0,0
1,79,100,90
1,76,0,0
1,76,100,90
1,79,0,0
1,79,100,90
1,76,0,0
1,76,100,90
1,79,0,0
1,76,0,90
1,76,100,180
1,76,100,30
1,76,0,0
1,76,100,30
1,76,0,0
1,74,100,30
1,76,0,0
1,74,0,90
1,76,100,150
1,74,100,30
1,76,0,0
1,74,100,60
1,74,0,0
1,71,100,60
1,74,0,0
1,74,100,120
1,71,0,0
1,76,100,60
1,74,0,0
1,74,100,60
1,76,0,0
1,74,0,60
1,83,100,180
1,83,0,780
1,76,100,120
1,76,100,30
1,76,0,0
1,76,100,60
1,76,0,0
1,74,100,30
1,76,0,0
1,74,0,120
1,74,100,120
1,74,100,30
1,74,0,0
1,74,100,90
1,74,0,0
1,71,100,60
1,74,0,0
1,74,100,60
1,71,0,0
1,76,100,30
1,74,0,0
1,77,100,90
1,76,0,0
1,77,0,120
1,67,100,60
1,67,100,60
1,67,0,0
1,67,100,60
1,67,0,0
1,71,100,60
1,67,0,0
1,74,100,60
1,71,0,0
1,70,100,120
1,74,0,0
1,69,100,30
1,70,0,0
1,67,100,30
1,69,0,0
1,69,100,60
1,67,0,0
1,69,0,180
1,67,100,300
1,67,100,60
1,67,0,0
1,67,100,120
1,67,0,0
1,67,100,60
1,67,0,0
1,67,0,120
1,67,100,60
1,67,100,60
1,67,0,0
1,67,100,120
1,67,0,0
1,67,100,60
1,67,0,0
1,69,100,30
1,67,0,0
1,67,100,30
1,69,0,0
1,67,0,60
1,67,100,330
1,67,100,30
1,67,0,0
1,69,100,30
1,67,0,0
1,71,100,30
1,69,0,0
1,74,100,30
1,71,0,0
1,76,100,30
1,74,0,0
1,74,100,60
1,76,0,0
1,70,100,60
1,74,0,0
1,69,100,30
1,70,0,0
1,67,100,60
1,69,0,0
1,69,100,30
1,67,0,0
1,65,100,30
1,69,0,0
1,65,0,90
1,67,100,300
1,67,100,60
1,67,0,0
1,69,100,60
1,67,0,0
1,67,100,60
1,69,0,0
1,67,0,120
1,67,100,120
1,67,100,60
1,67,0,0
1,69,100,60
1,67,0,0
1,67,100,60
1,69,0,0
1,69,100,90
1,67,0,0
1,67,100,30
1,69,0,0
1,67,0,60
1,67,100,300
1,67,100,30
1,67,0,0
1,69,100,30
1,67,0,0
1,71,100,30
1,69,0,0
1,74,100,30
1,71,0,0
1,76,100,30
1,74,0,0
1,79,100,30
1,76,0,0
1,76,100,60
1,79,0,0
1,74,100,60
1,76,0,0
1,70,100,60
1,74,0,0
1,69,100,60
1,70,0,0
1,69,100,60
1,69,0,0
1,65,100,60
1,69,0,0
1,65,0,120
1,84,100,120
1,84,100,60
1,84,0,0
1,84,100,30
1,84,0,0
1,82,100,30
1,84,0,0
1,79,100,30
1,82,0,0
1,84,100,60
1,79,0,0
1,84,100,90
1,84,0,0
1,84,100,30
1,84,0,0
1,84,100,30
1,84,0,0
1,82,100,30
1,84,0,0
1,84,100,30
1,82,0,0
1,82,100,30
1,84,0,0
1,87,100,90
1,82,0,0
1,84,100,60
1,87,0,0
1,84,100,60
1,84,0,0
1,82,100,60
1,84,0,0
1,79,100,30
1,82,0,0
1,79,0,90
1,77,100,360
1,77,100,30
1,77,0,0
1,79,100,30
1,77,0,0
1,77,100,30
1,79,0,0
1,82,100,30
1,77,0,0
1,77,100,180
1,82,0,0
1,72,100,180
1,77,0,0
1,72,0,120
1,79,100,300
1,79,100,30
1,79,0,0
1,79,0,150
1,86,100,180
1,84,100,60
1,86,0,0
1,82,100,120
1,84,0,0
1,84,100,30
1,82,0,0
1,82,100,30
1,84,0,0
1,84,100,30
1,82,0,0
1,82,100,30
1,84,0,0
1,82,0,120
2,71,100,2820
2,67,100,0
2,62,100,0
2,69,100,120
2,67,100,0
2,62,100,0
2,62,0,0
2,71,0,0
2,67,0,0
2,72,100,120
2,67,100,0
2,62,100,0
2,69,0,0
2,62,0,0
2,67,0,0
2,71,100,120
2,67,100,0
2,62,100,0
2,72,0,0
2,62,0,0
2,67,0,0
2,64,100,120
2,62,100,0
2,55,100,0
2,71,0,0
2,62,0,0
2,67,0,0
2,60,100,120
2,69,100,0
2,67,100,0
2,51,100,0
2,64,0,0
2,55,0,0
2,62,0,0
2,69,100,60
2,67,100,0
2,60,100,0
2,51,100,0
2,69,0,0
2,51,0,0
2,60,0,0
2,67,0,0
2,71,100,300
2,67,100,0
2,62,100,0
2,69,0,0
2,60,0,0
2,51,0,0
2,67,0,0
2,69,100,120
2,67,100,0
2,62,100,0
2,62,0,0
2,67,0,0
2,71,0,0
2,72,100,120
2,67,100,0
2,62,100,0
2,69,0,0
2,62,0,0
2,67,0,0
2,71,100,120
2,67,100,0
2,62,100,0
2,72,0,0
2,62,0,0
2,67,0,0
2,64,100,120
2,62,100,0
2,55,100,0
2,71,0,0
2,62,0,0
2,67,0,0
2,69,100,120
2,67,100,0
2,60,100,0
2,51,100,0
2,64,0,0
2,55,0,0
2,62,0,0
2,69,100,60
2,67,100,0
2,60,100,0
2,51,100,0
2,67,0,0
2,51,0,0
2,69,0,0
2,60,0,0
2,69,0,240
2,51,0,0
2,67,0,0
2,60,0,0
2,71,100,12540
2,67,100,0
2,62,100,0
2,62,100,120
2,69,100,0
2,67,100,0
2,62,0,0
2,71,0,0
2,67,0,0
2,72,100,120
2,67,100,0
2,62,100,0
2,62,0,0
2,67,0,0
2,69,0,0
2,71,100,120
2,67,100,0
2,62,100,0
2,72,0,0
2,62,0,0
2,67,0,0
2,64,100,120
2,62,100,0
2,55,100,0
2,71,0,0
2,62,0,0
2,67,0,0
2,69,100,120
2,67,100,0
2,60,100,0
2,51,100,0
2,64,0,0
2,55,0,0
2,62,0,0
2,51,100,60
2,69,100,0
2,67,100,0
2,60,100,0
2,67,0,0
2,51,0,0
2,69,0,0
2,60,0,0
2,71,100,300
2,67,100,0
2,62,100,0
2,51,0,0
2,67,0,0
2,60,0,0
2,69,0,0
2,69,100,120
2,67,100,0
2,62,100,0
2,62,0,0
2,67,0,0
2,71,0,0
2,72,100,120
2,67,100,0
2,62,100,0
2,69,0,0
2,62,0,0
2,67,0,0
2,71,100,120
2,67,100,0
2,62,100,0
2,72,0,0
2,62,0,0
2,67,0,0
2,64,100,120
2,62,100,0
2,55,100,0
2,71,0,0
2,62,0,0
2,67,0,0
2,69,100,120
2,67,100,0
2,60,100,0
2,51,100,0
2,64,0,0
2,55,0,0
2,62,0,0
2,69,100,60
2,67,100,0
2,60,100,0
2,51,100,0
2,67,0,0
2,51,0,0
2,69,0,0
2,60,0,0
2,69,0,240
2,51,0,0
2,67,0,0
2,60,0,0
2,71,100,14460
2,67,100,0
2,62,100,0
2,62,100,120
2,69,100,0
2,67,100,0
2,62,0,0
2,71,0,0
2,67,0,0
2,72,100,120
2,67,100,0
2,62,100,0
2,62,0,0
2,67,0,0
2,69,0,0
2,71,100,120
2,67,100,0
2,62,100,0
2,72,0,0
2,62,0,0
2,67,0,0
2,64,100,120
2,62,100,0
2,55,100,0
2,71,0,0
2,62,0,0
2,67,0,0
2,69,100,120
2,67,100,0
2,60,100,0
2,51,100,0
2,64,0,0
2,55,0,0
2,62,0,0
2,51,100,60
2,69,100,0
2,67,100,0
2,60,100,0
2,67,0,0
2,51,0,0
2,69,0,0
2,60,0,0
2,71,100,300
2,67,100,0
2,62,100,0
2,51,0,0
2,67,0,0
2,60,0,0
2,69,0,0
2,69,100,120
2,67,100,0
2,62,100,0
2,62,0,0
2,67,0,0
2,71,0,0
2,72,100,120
2,67,100,0
2,62,100,0
2,69,0,0
2,62,0,0
2,67,0,0
2,71,100,120
2,67,100,0
2,62,100,0
2,72,0,0
2,62,0,0
2,67,0,0
2,64,100,120
2,62,100,0
2,55,100,0
2,71,0,0
2,62,0,0
2,67,0,0
2,69,100,120
2,67,100,0
2,60,100,0
2,51,100,0
2,64,0,0
2,55,0,0
2,62,0,0
2,69,100,60
2,67,100,0
2,60,100,0
2,51,100,0
2,67,0,0
2,51,0,0
2,69,0,0
2,60,0,0
2,69,0,240
2,51,0,0
2,67,0,0
2,60,0,0
3,55,100,900
3,62,100,0
3,66,100,0
3,43,100,540
3,66,0,0
3,55,0,0
3,62,0,0
3,53,100,120
3,65,100,0
3,59,100,0
3,53,100,60
3,65,100,0
3,59,100,0
3,59,0,0
3,65,0,0
3,53,0,0
3,63,100,60
3,59,100,0
3,53,100,0
3,53,0,0
3,59,0,0
3,65,0,0
3,62,100,60
3,59,100,0
3,53,100,0
3,63,0,0
3,53,0,0
3,59,0,0
3,43,100,120
3,58,100,0
3,51,100,0
3,55,100,0
3,63,100,0
3,62,0,0
3,53,0,0
3,43,0,0
3,59,0,0
3,43,100,360
3,58,0,0
3,55,0,0
3,43,0,0
3,63,0,0
3,51,0,0
3,43,100,60
3,43,0,0
3,57,100,60
3,50,100,0
3,43,100,0
3,43,0,0
3,59,100,120
3,50,100,0
3,57,0,0
3,50,0,0
3,62,100,60
3,59,100,0
3,50,100,0
3,50,0,0
3,59,0,0
3,62,100,300
3,59,100,0
3,50,100,0
3,43,100,0
3,62,0,0
3,59,0,0
3,43,0,0
3,50,0,0
3,62,100,120
3,59,100,0
3,50,100,0
3,43,100,0
3,62,0,0
3,50,0,0
3,43,0,0
3,59,0,0
3,62,100,120
3,59,100,0
3,50,100,0
3,43,100,0
3,62,0,0
3,50,0,0
3,43,0,0
3,59,0,0
3,62,100,120
3,59,100,0
3,50,100,0
3,43,100,0
3,62,0,0
3,50,0,0
3,43,0,0
3,59,0,0
3,43,100,120
3,62,100,0
3,59,100,0
3,50,100,0
3,62,0,0
3,50,0,0
3,43,0,0
3,59,0,0
3,62,100,120
3,57,100,0
3,51,100,0
3,48,100,0
3,43,0,0
3,59,0,0
3,50,0,0
3,62,0,0
3,57,100,60
3,62,100,0
3,51,100,0
3,48,100,0
3,62,0,0
3,51,0,0
3,48,0,0
3,57,0,0
3,62,100,300
3,59,100,0
3,50,100,0
3,43,100,0
3,57,0,0
3,51,0,0
3,48,0,0
3,62,0,0
3,62,100,120
3,59,100,0
3,50,100,0
3,43,100,0
3,62,0,0
3,50,0,0
3,43,0,0
3,59,0,0
3,62,100,120
3,59,100,0
3,50,100,0
3,43,100,0
3,62,0,0
3,50,0,0
3,43,0,0
3,59,0,0
3,62,100,120
3,59,100,0
3,50,100,0
3,43,100,0
3,62,0,0
3,50,0,0
3,43,0,0
3,59,0,0
3,62,100,120
3,59,100,0
3,50,100,0
3,43,100,0
3,62,0,0
3,50,0,0
3,43,0,0
3,59,0,0
3,62,100,120
3,57,100,0
3,51,100,0
3,48,100,0
