track,note,velocity,time
1,42,108,1332
1,42,92,20
1,42,108,0
1,54,127,96
1,42,107,0
1,42,99,98
1,42,104,0
1,42,87,0
1,42,100,4
1,54,127,100
1,42,112,4
1,42,97,90
1,42,109,0
1,42,99,0
1,42,108,6
1,54,127,98
1,42,110,2
1,42,103,84
1,42,64,0
1,42,111,0
1,42,97,18
1,42,107,4
1,54,127,98
1,42,108,16
1,42,105,100
1,42,105,16
1,42,98,18
1,42,107,6
1,54,127,94
1,42,109,14
1,42,105,106
1,42,109,12
1,42,98,0
1,42,98,2
1,54,127,92
1,42,109,0
1,42,102,96
1,42,111,4
1,42,97,20
1,42,106,0
1,54,127,104
1,42,111,0
1,42,101,96
1,42,108,0
1,42,102,2
1,42,93,4
1,54,127,100
1,42,111,4
1,42,105,90
1,42,100,4
1,42,104,0
1,42,88,14
1,54,127,100
1,42,108,6
1,42,105,92
1,42,99,4
1,42,97,0
1,42,102,14
1,54,127,102
1,42,103,10
1,42,104,102
1,42,104,0
1,42,99,4
1,42,101,16
1,54,127,96
1,42,106,12
1,42,108,96
1,42,108,6
1,42,97,0
1,42,101,12
1,54,127,94
1,42,108,14
1,42,101,92
1,42,109,14
1,42,99,14
1,42,90,12
1,54,127,94
1,42,108,10
1,42,109,96
1,42,109,14
1,42,96,0
1,42,100,16
1,54,127,92
1,42,108,0
1,42,105,102
1,42,109,6
1,42,100,0
1,42,107,0
1,54,127,96
1,42,111,4
1,42,108,86
1,42,104,12
1,42,101,0
1,42,99,0
1,45,105,0
1,52,104,0
1,57,106,20
1,52,90,6
1,59,96,2
1,56,96,0
1,47,98,0
1,40,88,0
1,47,100,12
1,52,100,6
1,56,100,4
1,59,100,4
1,57,83,0
1,53,103,0
1,48,114,0
1,54,99,0
1,58,65,0
1,49,107,0
1,55,92,0
1,50,102,0
1,56,87,0
1,60,24,10
1,51,96,0
1,57,80,0
1,52,110,8
1,45,100,0
1,57,118,6
1,51,110,2
1,61,114,22
1,42,105,0
1,42,98,18
1,42,107,6
1,54,127,94
1,42,109,8
1,42,105,106
1,42,109,12
1,42,98,0
1,42,98,2
1,54,127,92
1,42,109,0
1,42,102,96
1,42,111,4
1,42,97,0
1,42,106,0
1,54,127,104
1,42,111,0
1,42,101,96
1,42,108,0
1,42,102,2
1,42,93,4
1,54,127,100
1,42,111,0
1,42,105,90
1,42,100,4
1,42,104,0
1,42,88,14
1,54,127,100
1,42,108,6
1,42,105,92
1,42,99,4
1,42,97,0
1,42,102,14
1,54,127,102
1,42,103,10
1,42,104,102
1,42,104,0
1,42,99,4
1,42,101,16
1,54,127,96
1,42,106,12
1,42,108,96
1,42,108,6
1,42,97,0
1,42,101,12
1,54,127,94
1,42,108,14
1,42,101,92
1,42,109,14
1,42,99,14
1,42,90,12
1,54,127,94
1,42,108,10
1,42,109,96
1,42,109,14
1,42,96,22
1,42,100,16
1,54,127,92
1,42,108,12
1,42,105,102
1,42,109,6
1,42,100,20
1,42,107,14
1,54,127,96
1,42,111,4
1,42,108,86
1,42,104,12
1,42,101,22
1,42,99,18
1,45,100,0
1,52,100,0
1,57,100,20
1,40,100,0
1,47,100,0
1,52,90,0
1,56,96,0
1,59,94,0
1,64,92,0
1,47,100,26
1,52,100,6
1,56,100,4
1,59,100,4
1,57,83,0
1,53,103,0
1,48,114,0
1,54,99,0
1,58,65,0
1,49,107,0
1,55,92,0
1,50,102,0
1,56,87,0
1,60,24,10
1,51,96,0
1,57,80,0
1,52,110,8
1,45,100,0
1,57,118,6
1,51,110,2
1,61,114,22
1,42,108,0
1,42,92,20
1,42,108,14
1,54,127,96
1,42,107,6
1,42,99,98
1,42,104,4
1,42,87,12
1,42,100,4
1,54,127,100
1,42,112,2
1,42,97,80
1,42,109,12
1,42,99,16
1,42,108,6
1,54,127,98
1,42,110,2
1,42,103,84
1,42,111,4
1,42,97,18
1,42,107,4
1,54,127,98
1,42,108,0
1,42,105,100
1,45,105,16
1,52,105,4
1,57,107,2
1,61,106,0
1,64,82,8
1,64,92,0
1,61,102,4
1,57,98,0
1,52,91,0
1,45,96,0
1,52,95,0
1,61,105,0
1,64,91,0
1,64,88,24
1,61,101,0
1,57,99,0
1,52,97,0
1,45,93,0
1,64,85,22
1,64,89,18
1,61,95,4
1,57,99,2
1,52,89,0
1,45,97,18
1,61,99,0
1,64,95,0
1,64,88,20
1,47,103,6
1,54,95,0
1,59,103,4
1,63,100,0
1,59,95,0
1,63,95,2
1,63,93,4
1,59,95,6
1,54,72,2
1,47,84,0
1,54,81,0
1,59,99,2
1,63,101,0
1,63,100,8
1,59,95,2
1,54,87,2
1,63,87,0
1,59,83,0
1,54,78,0
1,47,84,4
1,54,89,12
1,59,102,0
1,47,96,2
1,63,93,0
1,54,97,6
1,59,97,2
1,47,83,2
1,63,91,2
1,63,92,24
1,54,78,10
1,54,85,14
1,59,100,2
1,63,94,0
1,63,97,4
1,47,94,14
1,63,99,0
1,59,95,2
1,47,96,12
1,60,31,0
1,48,107,6
1,55,101,2
1,64,100,2
1,60,96,0
1,55,97,0
1,60,100,4
1,48,93,0
1,64,96,2
1,55,94,18
1,64,93,2
1,64,95,4
1,60,97,2
1,64,95,0
1,60,93,0
1,55,81,0
1,55,93,4
1,60,97,0
1,64,94,2
1,48,101,0
1,55,97,0
1,64,94,0
1,64,97,0
1,60,98,0
1,48,106,8
1,55,103,2
1,60,92,2
1,48,106,0
1,64,85,2
1,64,93,2
1,60,92,4
1,64,92,0
1,64,92,8
1,60,89,4
1,48,97,12
1,55,100,2
1,64,88,0
1,64,94,0
1,60,93,4
1,64,93,0
1,64,96,10
1,60,94,2
1,55,95,2
1,48,101,0
1,60,99,2
1,64,85,2
1,42,105,0
1,42,98,18
1,42,107,6
1,54,127,94
1,42,109,8
1,42,105,106
1,42,109,12
1,42,98,22
1,42,98,12
1,54,127,92
1,42,109,4
1,42,102,96
1,42,111,4
1,42,97,20
1,42,106,10
1,54,127,104
1,42,111,2
1,42,101,96
1,42,108,12
1,42,102,26
1,42,93,4
1,54,127,100
1,42,111,0
1,42,105,90
1,42,100,4
1,42,104,26
1,42,88,14
1,54,127,100
1,42,108,6
1,42,105,92
1,42,99,4
1,42,97,22
1,42,102,14
1,54,127,102
1,42,103,10
1,42,104,102
1,42,104,18
1,42,99,4
1,42,101,16
1,54,127,96
1,42,106,12
1,42,108,96
1,42,108,6
1,42,97,18
1,42,101,12
1,54,127,94
1,42,108,14
1,42,101,92
1,42,109,14
1,42,99,14
1,42,90,12
1,54,127,94
1,42,108,10
1,42,109,96
1,42,109,14
1,42,96,22
1,42,100,16
1,54,127,92
1,42,108,12
1,42,105,102
1,42,109,6
1,42,100,20
1,42,107,14
1,54,127,96
1,42,111,4
1,42,108,86
1,42,104,12
1,42,101,22
1,42,99,18
1,45,100,0
1,52,100,0
1,57,100,20
1,56,99,4
1,47,76,0
1,40,97,0
1,59,96,0
1,52,98,6
1,47,90,12
1,52,98,6
1,56,96,4
1,59,121,4
1,57,83,0
1,53,103,0
1,48,114,0
1,54,99,0
1,58,65,0
1,49,107,0
1,55,92,0
1,50,102,0
1,56,87,0
1,60,24,10
1,51,96,0
1,57,80,0
1,52,110,8
1,45,100,0
1,57,118,6
1,51,110,2
1,61,114,22
1,42,105,0
1,42,98,18
1,42,107,6
1,54,127,94
1,42,109,8
1,42,105,106
1,42,109,12
1,42,98,22
1,42,98,12
1,54,127,92
1,42,109,4
1,42,102,96
1,42,111,4
1,42,97,20
1,42,106,10
1,54,127,104
1,42,111,2
1,42,101,96
1,42,108,12
1,42,102,26
1,42,93,4
1,54,127,100
1,42,111,0
1,42,105,90
1,42,100,4
1,42,104,26
1,42,88,14
1,54,127,100
1,42,108,6
1,42,105,92
1,42,99,4
1,42,97,22
1,42,102,14
1,54,127,102
1,42,103,10
1,42,104,102
1,42,104,18
1,42,99,4
1,42,101,16
1,54,127,96
1,42,106,12
1,42,108,96
1,42,108,6
1,42,97,18
1,42,101,12
1,54,127,94
1,42,108,14
1,42,101,92
1,42,109,14
1,42,99,14
1,42,90,12
1,54,127,94
1,42,108,10
1,42,109,96
1,42,109,14
1,42,96,22
1,42,100,16
1,54,127,92
1,42,108,12
1,42,105,102
1,42,109,6
1,42,100,20
1,42,107,14
1,54,127,96
1,42,111,4
1,42,108,86
1,42,104,12
1,42,101,22
1,42,99,18
1,45,99,0
1,52,97,0
1,57,97,20
1,56,98,4
1,47,96,0
1,40,97,0
1,59,98,0
1,64,90,2
1,52,96,4
1,47,100,12
1,52,100,6
1,56,100,4
1,59,100,4
1,57,83,0
1,53,103,0
1,48,114,0
1,54,99,0
1,58,65,0
1,49,107,0
1,55,92,0
1,50,102,0
1,56,87,0
1,60,24,10
1,51,96,0
1,57,80,0
1,52,110,8
1,45,100,0
1,57,118,6
1,51,110,2
1,61,114,22
1,42,108,0
1,42,92,20
1,42,108,14
1,54,127,96
1,42,107,6
1,42,99,98
1,42,104,4
1,42,87,12
1,42,100,4
1,54,127,100
1,42,112,2
1,42,97,80
1,42,109,12
1,42,99,16
1,42,108,6
1,54,127,98
1,42,110,2
1,42,103,84
1,42,111,4
1,42,97,18
1,42,107,4
1,54,127,98
1,42,108,0
1,42,105,100
1,45,105,16
1,52,105,4
1,57,107,2
1,61,106,0
1,64,82,8
1,64,92,0
1,61,102,4
1,57,98,0
1,52,91,0
1,45,96,0
1,52,95,0
1,61,105,0
1,64,91,0
1,64,88,24
1,61,101,0
1,57,99,0
1,52,97,0
1,45,93,0
1,64,85,22
1,64,89,18
1,61,95,4
1,57,99,2
1,52,89,0
1,45,97,18
1,61,99,0
1,64,95,0
1,64,88,20
1,47,103,6
1,54,95,0
1,59,103,4
1,63,100,2
1,59,95,0
1,63,95,2
1,63,93,4
1,59,95,6
1,54,72,2
1,47,84,0
1,54,81,0
1,59,99,2
1,63,101,0
1,63,100,8
1,59,95,2
1,54,87,2
1,63,87,0
1,59,83,0
1,54,78,0
1,47,84,4
1,54,89,12
1,59,102,0
1,47,96,2
1,63,93,0
1,54,97,6
1,59,97,2
1,47,83,2
1,63,91,2
1,63,92,24
1,54,78,10
1,54,85,14
1,59,100,2
1,63,94,0
1,63,97,4
1,47,94,14
1,63,99,0
1,59,95,2
1,47,96,12
1,60,31,0
1,48,107,6
1,55,101,2
1,64,100,2
1,60,96,0
1,55,97,0
1,60,100,4
1,48,93,0
1,64,96,2
1,55,94,18
1,64,93,2
1,64,95,4
1,60,97,2
1,64,95,0
1,60,93,0
1,55,81,0
1,55,93,4
1,60,97,0
1,64,94,2
1,48,101,0
1,55,97,0
1,64,94,0
1,64,97,0
1,60,98,0
1,48,106,8
1,55,103,2
1,60,92,2
1,48,106,0
1,64,85,2
1,64,93,2
1,60,92,4
1,64,92,0
1,64,92,8
1,60,89,4
1,48,97,12
1,55,100,2
1,64,88,0
1,64,94,0
1,60,93,4
1,64,93,0
1,64,96,10
1,60,94,2
1,55,95,2
1,48,101,0
1,60,99,2
1,64,85,2
1,42,108,628
1,42,92,20
1,42,108,14
1,54,127,96
1,42,107,0
1,42,104,24
1,42,87,6
1,42,100,0
1,54,127,100
1,42,112,2
1,42,109,60
1,42,99,16
1,42,108,6
1,54,127,98
1,42,110,2
1,42,111,16
1,42,97,6
1,42,107,0
1,54,127,98
1,42,108,0
1,42,105,20
1,42,98,18
1,42,107,0
1,54,127,94
1,42,109,8
1,42,109,48
1,42,98,0
1,42,98,2
1,54,127,92
1,42,109,0
1,42,111,54
1,42,97,20
1,42,106,10
1,54,127,104
1,42,111,2
1,42,108,18
1,42,102,2
1,42,93,2
1,54,127,100
1,42,111,0
1,42,100,42
1,42,104,0
1,42,88,14
1,54,127,100
1,42,108,6
1,42,99,56
1,42,97,0
1,42,102,14
1,54,127,102
1,42,103,10
1,42,104,78
1,42,99,4
1,42,101,16
1,54,127,96
1,42,106,12
1,42,108,32
1,42,97,0
1,42,101,12
1,48,118,90
1,55,116,6
1,58,123,0
1,62,119,0
1,42,100,2
1,42,99,0
1,42,90,12
1,54,127,94
1,42,108,10
1,42,109,96
1,42,109,14
1,42,96,0
1,42,100,16
1,54,127,92
1,42,108,0
1,42,105,102
1,42,100,4
1,42,104,0
1,42,88,14
1,54,127,100
1,42,108,6
1,42,99,42
1,42,97,0
1,42,102,14
1,62,115,0
1,48,118,2
1,55,110,0
1,58,106,0
1,42,104,304
1,42,99,4
1,42,101,16
1,54,127,96
1,42,106,12
1,42,108,52
1,42,97,0
1,42,101,12
1,54,127,94
1,42,108,14
1,42,100,194
1,42,99,0
1,42,90,12
1,54,127,94
1,42,108,10
1,42,109,96
1,42,109,14
1,42,96,0
1,42,100,16
1,62,115,82
1,48,115,2
1,55,114,0
1,58,108,0
1,42,100,4
1,42,104,0
1,42,88,14
1,54,127,100
1,42,108,6
1,42,99,68
1,42,97,0
1,42,102,14
1,54,127,102
1,42,103,10
1,42,104,198
1,42,99,4
1,42,101,16
1,54,127,96
1,42,106,12
1,42,108,26
1,42,97,0
1,42,101,12
1,58,110,90
1,62,116,0
1,48,119,2
1,55,114,0
1,42,100,0
1,42,99,0
1,42,90,12
1,54,127,94
1,42,108,10
1,42,109,96
1,42,109,14
1,42,96,0
1,42,100,16
1,62,110,100
1,48,110,2
1,58,100,6
1,55,108,2
1,42,100,14
1,42,99,32
1,42,90,12
1,54,127,94
1,42,108,10
1,42,109,96
1,42,109,14
1,42,96,0
1,42,100,16
1,48,114,14
1,62,104,0
1,55,115,4
1,58,102,0
1,42,100,16
1,42,99,0
1,42,90,12
1,54,127,94
1,42,108,10
1,42,109,96
1,42,109,14
1,42,96,0
1,42,100,16
1,62,104,102
1,48,115,4
1,55,116,2
1,58,104,2
1,42,100,2
1,42,99,0
1,42,90,12
1,54,127,94
1,42,108,10
1,42,109,96
1,42,109,14
1,42,96,0
1,42,100,16
1,48,102,6
1,62,108,0
1,58,106,4
1,55,115,2
1,42,100,16
1,42,99,32
1,42,90,12
1,54,127,94
1,42,108,10
1,42,109,96
1,42,109,14
1,42,96,0
1,42,100,16
1,62,108,102
1,48,114,4
1,58,104,0
1,55,116,0
1,42,100,12
1,42,99,32
1,42,90,12
1,54,127,94
1,42,108,10
1,42,109,96
1,42,109,14
1,42,96,0
1,42,100,16
1,62,112,0
1,58,104,4
1,48,116,2
1,55,115,0
1,42,100,314
1,42,99,32
1,42,90,12
1,54,127,94
1,42,108,10
1,42,109,96
1,42,109,14
1,42,96,0
1,42,100,16
1,62,104,92
1,48,108,6
1,58,104,0
1,55,115,2
1,42,100,0
1,42,99,0
1,42,90,12
1,54,127,94
1,42,108,10
1,42,109,96
1,42,109,14
2,33,120,13238
2,28,112,96
2,28,117,36
2,28,104,44
2,28,120,24
2,28,120,32
2,28,117,38
2,28,116,24
2,28,120,36
2,28,117,28
2,28,118,50
2,28,116,48
2,28,116,28
2,28,118,48
2,28,115,30
2,28,83,32
2,28,115,152
2,28,113,40
2,33,116,192
2,33,116,14
2,30,113,54
2,30,116,66
2,30,115,156
2,28,113,192
2,30,113,78
2,30,116,52
2,30,112,166
2,28,104,192
2,30,118,80
2,30,116,42
2,30,118,158
2,28,113,192
2,30,115,92
2,30,110,50
2,30,118,142
2,28,120,192
2,30,118,80
2,30,116,46
2,30,112,142
2,28,120,192
2,30,115,86
2,30,115,40
2,30,112,134
2,28,117,192
2,30,119,66
2,30,111,38
2,30,120,154
2,28,116,192
2,30,114,68
2,30,116,36
2,30,115,142
2,28,112,192
2,30,116,72
2,30,114,48
2,30,111,154
2,28,120,192
2,30,118,70
2,30,105,48
2,30,113,158
2,28,116,192
2,30,115,12
2,30,112,46
2,30,107,118
2,28,116,192
2,30,112,84
2,33,118,34
2,33,118,28
2,33,119,36
2,33,114,48
2,28,117,194
2,28,119,30
2,28,119,54
2,28,114,28
2,28,118,64
2,28,118,54
2,28,116,34
2,28,112,58
2,28,113,26
2,28,114,68
2,28,120,66
2,28,112,36
2,28,116,74
