track,note,velocity,time
1,71,107,1
1,71,0,31
1,71,111,19
1,69,92,116
1,71,0,2
1,67,75,33
1,69,0,1
1,67,0,19
1,69,115,3
1,69,0,0
1,64,109,0
1,64,0,35
1,64,107,30
1,64,0,37
1,64,103,19
1,64,0,89
1,62,85,2
1,62,0,10
1,64,113,12
1,64,0,33
1,67,109,1
1,67,0,14
1,71,103,3
1,71,0,42
1,71,86,13
1,71,0,21
1,71,113,16
1,71,0,38
1,71,113,23
1,69,103,86
1,71,0,1
1,69,0,37
1,69,105,22
1,67,82,36
1,69,0,0
1,69,111,23
1,67,0,3
1,67,97,56
1,69,0,0
1,67,0,43
1,64,103,19
1,64,0,18
1,64,111,15
1,64,0,0
1,71,111,92
1,71,0,53
1,71,111,1
1,71,0,28
1,69,109,23
1,67,76,34
1,69,0,1
1,69,111,23
1,67,0,1
1,69,0,60
1,67,101,1
1,67,0,33
1,64,105,29
1,62,90,37
1,64,0,0
1,64,111,24
1,62,0,2
1,64,0,36
1,67,107,23
1,67,0,2
1,71,111,1
1,69,99,108
1,71,0,2
1,69,0,35
1,67,74,1
1,67,0,19
1,69,119,3
1,69,0,63
1,67,99,1
1,67,0,37
1,64,103,25
1,64,0,21
1,64,99,9
1,64,0,10
1,74,117,1
1,74,0,29
1,74,119,2
1,74,0,28
1,71,113,17
1,71,0,32
1,71,119,0
1,71,0,0
1,71,107,8
1,71,0,59
1,67,107,1
1,67,0,0
1,71,109,2
1,71,0,17
1,71,113,1
1,71,0,85
1,69,107,24
1,67,81,32
1,69,0,3
1,67,0,6
1,71,111,1
1,71,0,22
1,69,105,16
1,69,0,91
1,64,101,34
1,62,72,34
1,64,0,3
1,64,109,23
1,62,0,0
1,62,81,32
1,64,0,1
1,62,0,22
1,64,111,1
1,64,0,38
1,67,87,1
1,67,0,4
1,71,111,1
1,69,97,48
1,71,0,2
1,69,0,38
1,69,107,22
1,69,0,38
1,71,111,0
1,69,101,41
1,71,0,2
1,69,0,24
1,67,103,33
1,67,0,35
1,64,92,1
1,64,0,5
1,64,95,26
1,62,66,33
1,64,0,1
1,64,99,24
1,62,0,3
1,64,0,32
1,62,78,1
1,62,0,15
1,64,111,12
1,64,0,3
1,71,105,1
1,71,0,25
1,71,101,20
1,71,0,22
1,71,89,10
1,71,0,11
1,71,99,3
1,69,101,48
1,71,0,1
1,69,0,32
1,69,95,27
1,67,72,33
1,69,0,1
1,67,0,23
1,69,111,1
1,69,0,59
1,67,89,1
1,64,82,34
1,67,0,3
1,64,0,7
1,64,95,15
1,64,0,1
1,71,99,2
1,71,0,11
1,71,85,6
1,71,0,11
1,69,107,19
1,69,0,57
1,67,97,3
1,67,0,39
1,67,105,23
1,67,0,28
1,64,87,1
1,64,0,17
1,64,95,14
1,64,0,3
1,71,105,0
1,71,0,29
1,71,111,20
1,71,0,39
1,69,105,19
1,67,75,34
1,69,0,2
1,67,0,7
1,71,111,0
1,71,0,0
1,71,86,2
1,71,0,12
1,71,58,4
1,71,0,16
1,71,101,15
1,71,0,49
1,71,93,12
1,71,0,51
1,69,93,14
1,67,73,32
1,69,0,1
1,67,0,12
1,69,95,10
1,67,82,59
1,69,0,0
1,67,0,44
1,64,78,18
1,62,70,34
1,64,0,0
1,64,99,21
1,62,0,0
1,64,0,49
1,64,89,1
1,64,0,9
1,64,81,11
1,64,0,19
1,64,90,11
1,64,0,41
1,67,89,0
1,67,0,3
1,71,90,1
1,71,0,30
1,71,82,12
1,71,0,20
1,71,80,13
1,71,0,12
1,71,83,1
1,71,0,31
1,71,92,20
1,71,0,38
1,71,90,1
1,69,70,26
1,71,0,3
1,69,0,19
1,67,74,3
1,67,0,41
1,66,103,1
1,64,71,48
1,66,0,0
1,64,0,15
1,64,71,15
1,64,0,12
1,64,97,17
1,64,0,1
1,59,87,172
1,59,0,37
1,71,90,1
1,69,81,103
1,71,0,2
1,67,66,33
1,69,0,1
1,67,0,14
1,69,93,9
1,69,0,44
1,71,86,2
1,64,70,50
1,71,0,1
1,62,60,31
1,64,0,3
1,62,0,13
1,64,83,8
1,64,0,52
1,64,93,11
1,64,0,38
1,64,89,0
1,62,67,29
1,64,0,0
1,62,0,14
1,64,93,9
1,64,0,7
1,71,95,0
1,71,0,90
1,71,87,2
1,71,0,16
1,71,73,10
1,71,0,13
1,71,89,11
1,69,80,60
1,71,0,2
1,69,0,36
1,67,86,21
1,67,0,31
1,64,83,1
1,64,0,69
1,64,99,2
1,64,0,30
1,64,95,19
1,64,0,30
1,71,101,2
1,71,0,2
1,67,82,2
1,66,86,0
1,67,0,0
1,66,0,2
1,67,77,3
1,66,78,2
1,67,0,0
1,66,0,0
1,67,78,1
1,66,82,0
1,67,0,0
1,66,0,0
1,71,90,1
1,71,0,7
1,72,75,2
1,72,0,0
1,71,81,2
1,72,73,8
1,71,0,0
1,72,0,62
1,76,90,3
1,76,0,0
1,78,87,512
1,78,0,3
1,76,74,3
1,76,0,0
1,71,82,2
1,71,0,1
1,73,72,437
1,71,80,63
1,73,0,0
1,71,0,0
1,74,81,2
1,74,0,690
1,71,76,2
1,69,82,170
1,71,0,0
1,67,81,182
1,69,0,1
1,66,83,175
1,67,0,3
1,66,0,177
1,64,75,1
1,64,0,168
1,71,105,0
1,71,0,3
1,71,95,3
1,71,0,0
1,67,86,6
1,67,0,116
1,67,95,0
1,66,95,3
1,67,0,1
1,66,0,0
1,64,90,3
1,64,0,132
1,64,93,40
1,64,0,4
1,74,103,10
1,74,0,69
1,73,109,0
1,73,0,6
1,71,101,3
1,71,0,45
1,69,99,0
1,69,0,130
1,67,93,8
1,66,85,216
1,67,0,4
1,66,0,221
1,64,90,0
1,64,0,153
1,67,92,2
1,66,101,225
1,67,0,3
1,66,0,223
1,62,87,6
1,62,0,0
1,61,82,3
1,61,0,703
1,71,83,2
1,71,0,1
1,64,76,0
1,64,0,98
1,66,85,9
1,66,0,8
1,62,72,1
1,62,0,80
1,71,87,1
1,71,0,1
1,64,81,2
1,64,0,103
1,66,90,3
1,66,0,0
1,62,83,1
1,62,0,69
1,74,90,0
1,74,0,145
1,73,93,2
1,73,0,0
1,71,89,25
1,71,0,1
1,71,95,1
1,71,0,31
1,71,99,16
1,69,82,119
1,71,0,3
1,67,72,30
1,69,0,0
1,67,0,6
1,71,101,2
1,69,93,99
1,71,0,1
1,69,0,28
1,71,97,2
1,71,0,33
1,71,75,9
1,71,0,42
1,71,103,17
1,71,0,40
1,71,89,0
1,71,0,24
1,69,97,22
1,69,0,0
1,71,93,128
1,71,0,41
1,71,95,1
1,71,0,16
1,71,74,7
1,71,0,12
1,71,95,8
1,69,93,61
1,71,0,0
1,69,0,33
1,69,89,0
1,67,72,31
1,69,0,1
1,69,103,18
1,67,0,1
1,67,90,58
1,69,0,3
1,67,0,33
1,67,95,1
1,67,0,33
1,64,97,19
1,64,0,1
1,71,80,25
1,71,0,29
1,71,81,11
1,71,0,24
1,71,90,14
1,71,0,24
1,71,92,14
1,71,0,14
1,71,97,1
1,69,83,43
1,71,0,3
1,69,0,19
1,69,72,12
1,69,0,11
1,67,82,12
1,67,0,42
1,69,92,19
1,69,0,91
1,71,97,2
1,69,74,22
1,71,0,5
1,69,0,17
1,67,83,1
1,64,89,34
1,67,0,3
1,64,0,12
1,71,99,1
1,69,93,47
1,71,0,1
1,69,0,43
1,67,85,12
1,69,90,64
1,67,0,0
1,69,0,59
1,64,73,1
1,64,0,14
1,64,62,12
1,64,0,11
1,76,99,1
1,76,0,37
1,76,97,10
1,76,0,56
1,71,97,2
1,71,0,40
1,71,107,22
1,71,0,2
1,69,86,3
1,69,0,1
1,69,82,2
1,69,0,98
1,62,77,2
1,62,0,5
1,66,101,3
1,66,0,90
1,66,80,4
1,66,0,81
1,67,80,2
1,67,0,6
1,66,77,1
1,66,0,0
1,66,71,2
1,66,0,9
1,66,73,2
1,66,0,9
1,66,92,3
1,66,0,7
1,66,82,1
1,66,0,8
1,66,85,3
1,66,0,6
1,66,78,2
1,66,0,109
1,66,90,2
1,66,0,107
1,66,103,4
1,66,0,139
1,66,103,2
1,66,0,1
1,64,92,1
1,64,0,0
1,66,103,4
1,66,0,0
1,64,89,1
1,64,0,2
1,66,107,2
1,66,0,1
1,64,86,2
1,64,0,1
1,66,103,3
1,66,0,2
1,64,90,3
1,64,0,2
2,36,81,0
2,36,0,23
2,36,107,37
2,36,0,135
2,36,103,46
2,36,0,111
2,36,99,68
2,36,0,121
2,36,101,59
2,36,0,73
2,36,56,46
2,36,0,20
2,36,105,42
2,36,0,121
2,36,105,59
2,36,0,86
2,36,105,94
2,36,0,79
2,36,101,101
2,36,0,46
2,36,75,76
2,36,0,10
2,36,109,50
2,36,0,93
2,36,93,85
2,36,0,74
2,36,105,106
2,36,0,30
2,36,103,149
2,36,0,30
2,36,90,91
2,36,0,12
2,36,105,50
2,36,0,22
2,36,105,159
2,36,0,22
2,36,99,155
2,36,0,20
2,36,71,100
2,36,0,17
2,36,101,43
2,36,0,22
2,36,71,98
2,36,0,20
2,36,93,40
2,36,0,22
2,36,95,160
2,36,0,17
2,36,92,160
2,36,0,21
2,36,105,160
2,36,0,19
2,36,73,100
2,36,0,12
2,36,109,49
2,36,0,14
2,36,105,168
2,36,0,13
2,36,107,167
2,36,0,13
2,36,105,165
2,36,0,14
2,36,63,105
2,36,0,10
2,36,107,50
2,36,0,17
2,36,105,165
2,36,0,15
2,36,107,166
2,36,0,14
2,40,113,164
2,40,0,16
2,43,87,45
2,43,0,10
2,43,113,49
2,43,0,18
2,36,103,44
2,49,123,0
2,49,0,17
2,36,0,33
2,51,97,11
2,51,0,11
2,36,99,46
2,51,89,2
2,51,0,10
2,36,0,14
2,51,121,36
2,40,87,1
2,51,0,14
2,40,0,11
2,51,76,34
2,51,0,16
2,36,99,42
2,51,78,1
2,36,0,11
2,51,0,1
2,51,107,48
2,36,107,1
2,51,0,15
2,36,0,4
2,51,54,41
2,51,0,12
2,36,103,46
2,51,77,0
2,51,0,12
2,36,0,10
2,40,117,38
2,51,121,2
2,51,0,13
2,40,0,6
2,51,119,42
2,51,0,10
2,40,113,9
2,40,0,6
2,40,83,13
2,40,0,11
2,40,117,8
2,40,0,5
2,43,101,15
2,43,0,8
2,43,123,11
2,43,0,6
2,36,109,14
2,51,107,3
2,51,0,13
2,36,0,16
2,51,77,30
2,51,0,14
2,36,97,40
2,51,74,5
2,51,0,12
2,36,0,8
2,40,111,37
2,51,113,4
2,51,0,13
2,40,0,5
2,51,89,42
2,51,0,12
2,36,57,27
2,36,0,7
2,36,92,13
2,51,90,2
2,36,0,11
2,51,0,1
2,36,113,45
2,51,121,0
2,51,0,12
2,36,0,15
2,40,101,36
2,40,0,14
2,40,113,16
2,40,0,14
2,40,109,16
2,40,0,8
2,43,109,22
2,43,0,14
2,45,109,16
2,45,0,13
2,40,105,18
2,40,0,13
2,45,119,17
2,45,0,9
2,43,95,21
2,43,0,7
2,41,121,23
2,41,0,6
2,36,109,50
2,49,123,1
2,49,0,20
2,36,0,36
2,51,89,4
2,51,0,14
2,36,101,46
2,51,95,0
2,51,0,14
2,40,111,48
2,51,115,0
2,36,0,0
2,51,0,10
2,40,0,27
2,51,77,23
2,51,0,10
2,36,93,47
2,51,87,1
2,51,0,10
2,36,0,11
2,36,107,39
2,51,111,2
2,51,0,10
2,51,85,50
2,36,0,2
2,51,0,8
2,36,101,48
2,51,90,0
2,51,0,10
2,36,0,47
2,40,113,4
2,51,105,0
2,51,0,10
2,40,0,19
2,51,113,30
2,51,0,10
2,40,119,12
2,40,0,6
2,40,82,13
2,40,0,11
2,40,117,8
2,40,0,5
2,43,88,15
2,43,0,8
2,43,123,11
2,43,0,6
2,36,109,15
2,51,113,1
2,51,0,13
2,51,78,47
2,36,0,1
2,51,0,8
2,36,101,49
2,51,80,1
2,51,0,9
2,36,0,49
2,40,113,2
2,51,107,2
2,51,0,10
2,40,0,13
2,51,85,37
2,51,0,9
2,36,87,48
2,51,83,1
2,51,0,10
2,36,0,10
2,36,103,40
2,51,107,0
2,51,0,12
2,51,75,48
2,36,0,6
2,51,0,2
2,36,92,51
2,51,83,1
2,51,0,9
2,36,0,21
2,36,107,30
2,51,109,2
2,51,0,12
2,36,0,27
2,51,90,19
2,51,0,12
2,40,94,29
2,40,0,11
2,40,117,8
2,51,109,2
2,40,0,3
2,51,0,8
2,40,90,7
2,40,0,8
2,40,123,11
2,40,0,6
2,36,105,17
2,44,105,0
2,44,0,19
2,36,0,44
2,42,82,34
2,42,0,9
2,36,97,13
2,42,111,0
2,42,0,11
2,36,0,46
2,40,107,3
2,42,125,0
2,42,0,14
2,40,0,27
2,42,105,20
2,42,0,10
2,36,93,48
2,42,107,2
2,42,0,10
2,36,0,13
2,36,97,36
2,42,115,1
2,42,0,11
2,36,0,30
2,42,81,20
2,42,0,4
2,42,103,32
2,42,0,7
2,42,113,14
2,42,0,11
2,40,117,50
2,42,123,1
2,42,0,10
2,40,0,18
2,42,83,31
2,42,0,12
2,36,83,47
2,42,115,2
2,42,0,11
2,36,0,9
2,36,101,40
2,42,113,0
2,42,0,10
2,42,90,49
2,36,0,0
2,42,0,7
2,42,90,33
2,42,0,4
2,42,111,16
2,36,85,2
2,42,0,10
2,36,0,3
2,40,113,46
2,42,119,0
2,42,0,11
2,40,0,33
2,42,89,15
2,42,0,6
2,36,69,25
2,42,105,10
2,36,0,0
2,42,0,6
2,36,89,13
2,42,113,2
2,42,0,8
2,36,0,16
2,36,109,35
2,42,115,1
2,42,0,10
2,36,0,34
2,42,97,15
2,42,0,7
2,42,93,33
2,42,0,5
2,36,90,12
2,42,103,4
2,42,0,7
2,36,0,21
2,40,113,29
2,42,117,3
2,42,0,9
2,40,0,27
2,42,55,21
2,42,0,3
2,42,103,37
2,42,0,7
2,36,90,14
2,42,117,1
2,42,0,10
2,36,0,6
2,36,99,44
2,42,123,0
2,42,0,10
2,42,92,50
2,36,0,4
2,42,0,2
2,42,87,34
2,42,0,1
2,36,97,19
2,42,107,1
2,42,0,7
2,36,0,46
2,40,113,6
2,42,117,1
2,42,0,10
2,40,0,16
2,42,111,33
2,42,0,7
2,42,95,34
2,42,0,4
2,36,85,13
2,42,107,2
2,42,0,8
2,36,0,11
2,36,99,41
2,42,115,1
2,42,0,9
2,42,82,50
2,36,0,2
2,42,0,4
2,42,107,32
2,42,0,10
2,36,95,10
2,42,103,3
2,42,0,7
2,36,0,44
2,40,107,6
2,42,117,3
2,42,0,9
2,40,0,20
2,42,90,30
2,42,0,6
2,42,74,34
2,42,0,1
2,36,95,17
2,42,105,2
2,42,0,7
2,36,0,19
2,36,103,34
2,42,121,0
2,42,0,10
2,42,103,50
2,36,0,7
2,42,0,2
2,42,97,29
2,42,0,6
2,36,103,14
2,42,109,2
2,42,0,10
2,36,0,47
2,40,111,3
2,42,121,1
2,42,0,8
2,40,0,38
2,42,109,11
2,42,0,10
2,36,99,50
2,42,119,1
2,42,0,8
2,36,0,13
2,36,105,38
2,42,115,1
2,42,0,11
2,36,0,22
2,42,115,26
2,42,0,10
2,42,123,52
2,42,0,7
2,36,82,52
2,49,125,1
2,49,0,10
2,36,0,18
2,49,93,30
2,36,109,2
2,49,0,9
2,36,0,12
2,36,123,37
2,49,117,0
2,49,0,8
2,36,0,26
2,42,107,27
2,43,100,0
2,42,0,10
2,43,0,1
2,43,70,20
2,43,0,16
2,42,86,13
2,45,103,1
2,42,0,8
2,45,0,6
2,43,101,16
2,43,0,16
2,41,116,13
2,42,95,1
2,42,0,7
2,41,0,5
2,41,84,18
2,41,0,14
2,36,101,14
2,49,127,1
2,49,0,9
2,36,0,13
2,36,109,37
2,49,107,1
2,49,0,10
2,36,0,13
2,36,119,36
2,49,113,2
2,49,0,7
2,36,0,29
2,42,121,22
2,45,120,0
2,45,0,8
2,42,0,2
2,45,80,10
2,45,0,8
2,45,109,12
2,45,0,8
2,43,126,11
2,42,92,1
