track,note,velocity,time
1,79,109,0
1,78,111,506
1,77,107,16
1,76,109,48
1,74,109,10
1,73,107,2
1,72,90,6
1,71,109,68
1,79,99,2
1,78,105,10
1,77,109,4
1,76,109,78
1,74,111,10
1,73,109,0
1,72,103,10
1,71,109,74
1,64,111,572
1,69,103,6
1,64,95,6
1,64,105,554
1,69,90,10
1,64,90,2
1,64,105,570
1,69,95,6
1,64,93,4
1,64,103,544
1,69,95,10
1,64,92,2
1,79,109,0
1,78,111,506
1,77,107,16
1,76,109,48
1,74,109,10
1,73,107,2
1,72,90,6
1,71,109,68
1,79,99,2
1,78,105,10
1,77,109,4
1,76,109,78
1,74,111,10
1,73,109,0
1,72,103,10
1,71,109,74
1,79,109,0
1,78,111,506
1,77,107,16
1,76,109,48
1,74,109,10
1,73,107,2
1,72,90,6
1,71,109,68
1,79,99,2
1,78,105,10
1,77,109,4
1,76,109,78
1,74,111,10
1,73,109,0
1,72,103,10
1,71,109,2
1,64,111,138
1,69,103,6
1,64,95,6
1,64,105,554
1,69,90,10
1,64,90,2
1,64,105,570
1,69,95,6
1,64,93,4
1,64,103,544
1,69,95,10
1,64,92,2
1,57,97,50288
1,62,95,10
1,67,95,8
1,67,97,42
1,64,89,192
1,57,86,16
1,62,93,6
1,67,95,10
1,67,97,48
1,57,95,20
1,62,97,16
1,67,93,6
1,67,93,34
1,64,95,2
1,57,86,16
1,62,97,16
1,67,95,40
1,74,101,10
1,73,103,16
1,71,113,16
1,69,103,10
1,67,101,10
1,66,109,10
1,64,95,6
1,67,99,16
1,66,107,16
1,62,103,2
1,61,105,4
1,64,105,2
1,71,73,10
1,62,95,2
1,69,86,2
1,57,97,48
1,64,86,14
1,52,103,14
1,59,101,2
1,67,97,16
1,74,99,16
1,64,99,6
1,71,90,16
1,62,95,6
1,69,92,0
1,57,99,128
1,64,95,0
1,52,97,6
1,59,99,4
1,67,92,4
1,74,101,16
1,64,92,10
1,71,82,18
1,62,92,6
1,69,95,0
1,64,65,86
1,57,93,6
1,64,99,10
1,71,97,0
1,67,93,10
1,74,89,0
1,64,111,560
1,69,103,6
1,64,95,6
1,64,105,554
1,69,90,10
1,64,90,2
1,64,105,570
1,69,95,6
1,64,93,4
1,64,103,544
1,69,95,10
1,64,92,2
1,79,109,0
1,78,111,506
1,77,107,16
1,76,109,48
1,74,109,10
1,73,107,2
1,72,90,6
1,71,109,68
1,79,99,2
1,78,105,10
1,77,109,4
1,76,109,78
1,74,111,10
1,73,109,0
1,72,103,10
1,71,109,74
1,64,111,572
1,69,103,6
1,64,95,6
1,64,105,554
1,69,90,10
1,64,90,2
1,64,105,570
1,69,95,6
1,64,93,4
1,64,103,544
1,69,95,10
1,64,92,2
1,52,68,88
1,52,56,48
1,52,62,66
1,52,56,72
1,50,75,0
1,57,71,592
1,57,64,46
1,57,63,52
1,57,68,60
1,55,81,0
1,59,86,618
1,59,70,42
1,59,68,58
1,59,70,64
1,57,71,96
1,62,81,640
1,62,69,38
1,62,65,64
1,62,70,70
1,59,67,102
1,64,65,604
1,64,69,36
1,64,56,60
1,64,64,64
1,62,71,100
1,50,64,58
1,50,54,52
1,50,55,58
1,50,58,60
1,62,60,96
1,61,67,68
1,60,64,64
1,50,51,32
1,50,45,34
1,50,48,54
1,50,55,54
1,62,70,94
1,61,72,66
1,60,66,60
1,50,48,48
1,50,50,54
1,50,55,56
1,50,60,54
1,62,61,96
1,61,78,70
1,60,54,50
1,50,49,44
1,50,55,58
1,50,46,64
1,50,57,58
1,62,66,90
1,61,78,70
1,60,57,60
1,50,47,44
1,50,44,54
1,50,45,52
1,50,53,52
1,62,71,96
1,61,49,10
1,60,58,4
1,50,51,52
1,50,48,54
1,50,51,58
1,50,53,50
1,62,75,94
1,61,62,66
1,60,60,0
1,50,48,58
1,50,49,54
1,50,52,66
1,50,62,64
1,62,64,88
1,61,72,0
1,60,53,60
1,50,46,52
1,50,49,62
1,50,54,66
1,50,54,60
1,62,59,80
1,61,68,4
1,60,42,40
1,50,55,60
1,50,47,62
1,50,51,64
1,50,55,58
1,62,64,82
1,61,58,14
1,50,53,4
1,50,42,68
1,50,44,66
1,50,45,60
1,50,66,56
1,50,45,70
1,62,54,6
1,50,47,44
1,62,36,10
1,50,46,52
1,62,43,12
1,50,52,64
1,62,49,2
1,50,66,60
1,62,61,4
1,50,46,74
1,62,69,4
1,50,48,48
1,62,53,0
1,62,52,58
1,50,47,2
1,62,54,44
1,50,54,16
1,62,62,48
1,50,63,12
1,62,53,64
1,50,51,4
1,50,51,44
1,62,54,6
1,62,55,54
1,50,54,6
1,62,52,56
1,50,54,8
1,50,65,68
1,62,60,0
1,50,45,80
1,57,49,4
1,62,83,0
1,62,55,52
1,50,47,6
1,57,32,0
1,62,55,50
1,50,51,10
1,57,43,0
1,57,49,60
1,50,53,0
1,62,60,0
1,62,63,50
1,57,67,10
1,50,68,0
1,57,54,52
1,62,83,0
1,50,48,2
1,50,51,48
1,62,62,4
1,57,46,2
1,62,62,48
1,50,44,8
1,57,54,0
1,62,71,48
1,50,58,4
1,57,60,0
1,62,78,54
1,50,71,8
1,57,81,2
1,50,53,42
1,57,59,0
1,62,82,0
1,62,73,40
1,57,49,8
1,50,52,2
1,62,72,42
1,50,60,6
1,57,73,6
1,62,86,48
1,57,81,14
1,50,70,2
1,62,101,50
1,57,92,8
1,50,89,2
1,57,72,44
1,50,57,0
1,62,107,4
1,57,71,48
1,50,60,0
1,62,97,4
1,57,69,54
1,50,70,4
1,62,105,4
1,57,97,60
1,50,93,0
1,62,109,10
1,40,77,80
1,64,111,2
1,52,77,0
1,59,101,0
2,28,99,376
2,43,101,4
2,42,101,576
2,41,101,6
2,40,99,576
2,28,105,144
2,38,97,12
2,37,97,576
2,36,107,6
2,35,107,0
2,28,103,118
2,43,109,6
2,42,103,582
2,41,97,32
2,40,99,580
2,28,99,124
2,38,95,6
2,37,101,0
2,36,105,6
2,35,103,576
2,28,101,134
2,43,95,12
2,42,107,576
2,41,109,0
2,40,101,576
2,28,107,108
2,38,97,16
2,37,109,0
2,36,97,12
2,35,105,580
2,28,105,90
2,43,103,10
2,42,109,570
2,41,107,6
2,40,89,576
2,28,105,100
2,38,95,12
2,37,107,576
2,36,103,570
2,35,103,570
2,28,107,90
2,43,95,0
2,42,107,580
2,41,103,10
2,40,107,576
2,28,105,68
2,38,97,14
2,37,101,572
2,36,101,6
2,35,105,576
2,28,103,58
2,43,97,12
2,42,109,572
2,41,99,576
2,40,107,564
2,28,101,64
2,38,95,10
2,37,101,576
2,36,103,20
2,35,103,576
2,28,103,54
2,43,93,0
2,42,107,582
2,41,103,22
2,40,109,580
2,28,105,124
2,38,97,6
2,37,99,0
2,36,105,586
2,35,109,566
2,28,97,100
2,43,97,12
2,42,107,580
2,41,107,0
2,40,95,570
2,28,105,98
2,38,99,6
2,37,107,576
2,36,95,22
2,35,99,60
2,35,99,36
2,35,103,54
2,40,86,196
2,42,97,88
2,45,97,0
2,47,99,92
2,40,111,28
2,42,107,94
2,35,101,88
2,35,93,40
2,35,101,42
2,40,89,0
2,42,113,100
2,45,90,80
2,47,97,80
2,40,107,26
2,42,115,96
2,35,99,84
2,35,90,54
2,35,95,52
2,40,99,0
2,42,109,96
2,45,87,76
2,47,97,86
2,40,103,4
2,42,113,100
2,35,103,86
2,35,92,44
2,35,101,78
2,40,89,188
2,42,107,60
2,45,92,86
2,47,93,86
2,40,105,86
2,42,115,76
2,28,105,36
2,29,109,0
2,28,107,100
2,43,97,0
2,42,109,580
2,41,93,18
2,40,97,580
2,28,103,74
2,38,101,10
2,37,109,0
2,36,93,24
2,35,105,576
2,28,105,80
2,43,97,192
2,42,107,576
2,41,101,16
2,40,101,576
2,28,99,108
2,38,97,196
2,37,99,560
2,36,97,10
2,35,99,580
2,28,101,170
2,43,92,190
2,42,101,570
2,41,87,12
2,40,97,576
2,28,101,100
2,38,92,12
2,37,95,22
2,36,95,8
2,35,87,586
2,28,99,62
2,43,89,10
2,42,89,576
2,41,89,12
2,40,95,582
2,28,95,74
2,38,83,192
2,37,101,4
2,36,83,18
2,35,117,6
2,35,99,10
2,35,103,12
2,40,86,196
2,42,97,88
2,45,97,0
2,47,99,92
2,40,111,28
2,42,107,94
2,35,101,88
2,35,93,40
2,35,101,42
2,40,89,0
2,42,113,100
2,45,90,80
2,47,97,80
2,40,107,26
2,42,115,96
2,35,99,84
2,35,90,54
2,35,95,52
2,40,99,0
2,42,109,96
2,45,87,76
2,47,97,86
2,40,103,4
2,42,113,100
2,35,103,86
2,35,92,44
2,35,101,78
2,40,89,188
2,42,107,60
2,45,92,86
2,47,93,86
2,40,105,86
2,42,115,76
2,40,109,32
2,40,76,34
2,40,72,46
2,40,103,58
2,38,97,98
2,43,95,660
2,43,48,22
2,43,35,44
2,43,67,52
2,40,97,96
2,45,92,656
2,45,50,38
2,45,43,52
2,45,81,48
2,40,93,96
2,43,75,660
2,43,46,32
2,43,37,52
2,43,67,52
2,40,87,96
2,40,75,672
2,40,47,32
2,40,52,38
2,40,66,52
2,38,93,96
2,43,95,660
2,43,38,18
2,43,48,42
2,43,86,48
2,40,80,6
2,45,97,646
2,45,49,26
2,45,60,58
2,45,76,60
2,40,90,96
2,47,80,656
2,47,36,22
2,47,48,44
2,47,69,52
2,40,95,0
2,45,76,662
2,45,57,12
2,45,41,54
2,45,76,54
2,40,103,96
2,43,90,652
2,43,52,30
2,43,40,48
2,43,70,52
2,40,95,96
2,38,75,656
2,38,50,36
2,38,54,42
2,38,55,32
2,38,89,50
2,40,87,90
2,43,81,582
2,43,66,6
2,43,56,64
2,43,89,60
2,40,85,96
2,45,93,660
2,47,72,96
2,47,69,42
2,47,89,52
2,40,92,96
2,45,83,630
2,45,61,6
2,45,77,60
2,45,95,48
2,40,97,96
2,38,85,660
2,38,65,16
2,38,71,42
2,38,92,38
2,38,97,50
2,40,105,10
2,43,92,578
2,43,65,12
2,43,67,58
2,43,81,48
2,38,90,32
2,40,86,10
2,45,99,566
2,45,72,12
2,45,65,44
2,45,85,48
2,38,86,16
2,40,99,102
2,46,103,578
2,47,72,2
2,47,73,28
2,47,90,48
2,40,101,4
2,45,111,630
2,45,58,22
2,45,41,48
2,45,76,46
2,40,99,4
2,43,92,634
2,43,44,22
2,43,57,48
2,43,89,44
2,40,95,100
2,43,85,674
2,43,60,10
2,43,57,46
2,43,92,52
2,40,97,96
2,45,90,642
2,45,56,10
2,45,62,48
2,45,92,38
2,40,97,6
2,46,95,636
2,47,76,6
2,47,81,58
2,47,74,60
2,40,90,96
2,45,93,614
2,45,48,10
2,45,72,42
2,45,80,44
2,40,92,96
2,46,103,630
2,47,78,96
2,47,78,46
2,47,75,52
2,40,92,102
2,50,101,636
2,45,83,102
2,40,80,2
2,45,92,10
2,40,92,4
2,52,95,652
2,47,85,6
2,40,93,10
2,47,87,92
2,40,93,0
2,50,92,642
2,45,85,14
2,40,86,0
2,45,86,96
2,40,89,92
2,40,86,656
2,47,87,96
2,52,92,90
2,47,87,0
2,52,93,0
2,40,81,602
2,50,95,94
2,45,75,0
2,50,93,96
2,45,87,4
2,40,71,630
2,47,87,96
2,52,86,80
2,47,83,10
2,52,97,96
2,50,86,640
2,45,78,6
2,40,78,4
2,45,86,4
2,40,83,96
2,41,76,626
2,41,54,12
2,41,54,50
2,41,74,48
2,41,85,34
2,41,83,618
2,41,61,12
2,41,62,48
2,41,80,42
2,41,95,32
2,41,82,634
2,41,56,10
2,41,63,48
2,41,80,40
2,41,99,38
2,41,90,636
2,41,63,28
2,41,55,48
2,41,64,46
2,41,89,48
2,41,95,74
2,41,67,30
2,41,80,44
2,41,80,38
2,41,103,52
2,40,107,108
2,33,99,1522
2,35,92,196
2,38,105,180
2,40,101,186
2,43,109,40
2,45,97,188
2,43,103,12
2,40,87,6
2,33,97,86
2,35,83,8
2,38,105,196
2,40,99,168
2,43,105,74
2,45,93,192
2,43,109,58
2,33,99,106
2,35,92,186
2,38,97,192
2,40,97,170
2,43,101,74
2,45,95,196
2,43,103,16
2,40,92,6
2,33,95,100
2,35,82,192
2,38,101,186
2,40,99,172
2,43,107,60
2,45,92,192
2,43,107,52
2,33,95,106
2,35,95,192
2,38,101,172
2,40,103,180
2,43,109,32
2,45,99,192
2,43,107,4
2,40,99,196
2,33,93,90
2,35,89,0
2,38,105,192
2,40,93,170
2,43,109,52
2,45,97,192
2,43,103,48
2,33,93,60
2,35,81,192
2,38,103,166
2,40,97,170
2,43,109,68
2,45,99,0
2,43,105,16
2,40,97,0
2,33,95,96
2,35,90,192
2,38,97,182
2,40,101,176
2,43,109,70
2,45,103,192
2,43,109,42
2,33,95,138
2,35,92,192
2,38,93,166
2,40,90,166
2,43,109,64
2,45,97,192
2,43,101,182
2,40,109,10
2,33,101,10
2,35,89,192
2,38,99,186
2,40,99,2
2,43,107,80
2,45,93,6
2,43,109,66
2,33,101,84
2,35,85,192
2,38,103,186
2,40,99,0
2,43,107,54
2,45,95,4
2,43,103,2
2,40,101,12
2,33,99,86
2,35,90,188
2,38,99,182
2,40,97,10
2,43,109,64
2,45,99,192
2,43,103,114
2,33,105,70
2,35,93,190
2,38,101,184
2,40,101,170
2,43,107,60
2,45,97,192
2,43,105,6
2,40,103,10
2,33,95,84
2,35,95,192
2,38,103,190
2,40,97,182
2,43,111,32
2,45,99,192
2,43,109,112
2,33,103,86
2,35,86,4
2,38,101,192
2,40,101,166
2,43,107,54
2,45,97,188
2,43,103,6
2,40,99,2
2,33,78,74
2,35,83,8
2,38,105,196
2,40,101,0
2,43,105,58
2,45,95,188
2,43,111,64
2,33,97,160
2,35,87,186
2,38,101,172
2,40,95,168
2,43,103,54
2,45,93,196
2,43,97,180
2,40,93,186
2,33,90,86
2,35,87,26
2,38,103,192
2,40,93,170
2,43,103,58
2,45,92,192
2,43,105,88
2,33,105,66
2,35,97,186
2,38,99,180
2,40,97,0
2,43,107,58
2,45,95,192
2,43,103,182
2,40,92,188
2,33,92,56
2,35,83,192
2,38,97,176
2,40,95,168
2,43,107,54
2,45,97,196
2,43,103,82
2,33,87,126
2,35,90,188
2,38,103,186
2,40,101,170
2,43,105,12
2,45,97,18
2,43,95,6
2,40,101,192
2,33,90,100
2,35,87,188
2,38,101,192
2,40,93,166
2,43,107,22
2,45,92,196
2,43,107,114
2,33,107,108
2,35,89,186
2,38,95,172
2,40,90,166
2,43,105,6
2,45,92,196
2,43,99,0
2,40,103,192
2,33,101,84
2,35,92,188
2,38,95,182
2,40,93,176
2,43,107,26
2,45,90,192
2,43,105,120
2,33,105,102
2,35,93,192
2,38,97,176
2,40,93,164
2,43,105,10
2,45,92,198
2,43,99,10
2,40,95,188
2,33,97,84
2,35,93,192
2,38,99,186
2,40,92,178
2,43,107,42
2,45,97,188
2,43,109,108
2,33,105,120
2,35,93,188
2,38,99,184
2,40,95,164
2,43,101,22
2,45,87,198
2,43,101,0
2,40,97,192
2,33,101,76
2,35,73,186
2,38,95,182
2,40,92,164
2,43,111,54
2,45,97,192
2,43,107,98
2,33,101,130
2,35,87,0
2,38,87,192
2,40,93,180
2,43,109,52
2,45,90,196
2,43,99,12
2,40,101,196
2,33,95,92
2,35,90,8
2,38,95,196
2,40,90,176
2,43,105,48
2,45,95,192
2,43,105,70
2,33,103,102
2,35,87,192
2,38,97,190
2,40,99,182
2,43,107,38
2,45,95,10
2,43,103,0
2,40,99,8
2,33,95,80
2,35,83,188
2,38,95,186
2,40,101,172
2,43,107,38
2,45,97,192
2,43,107,106
2,33,101,132
2,35,80,0
2,38,99,192
2,40,99,168
2,43,107,64
2,45,92,188
2,43,101,178
2,40,92,184
2,33,95,82
2,35,81,192
2,38,97,184
2,40,101,156
2,43,103,54
2,45,93,192
2,43,107,100
2,33,99,160
2,35,82,198
2,38,103,154
2,40,92,182
2,43,103,40
2,45,93,4
2,43,103,16
2,40,99,18
2,33,95,84
2,35,83,6
