track,note,velocity,time
1,66,108,6152
1,69,108,0
1,73,108,0
1,69,0,256
1,66,0,0
1,73,0,0
1,71,108,32
1,64,108,0
1,67,108,0
1,71,0,94
1,64,0,0
1,67,0,0
1,67,108,2
1,71,108,0
1,64,108,0
1,71,0,720
1,64,0,0
1,67,0,0
1,57,108,48
1,57,0,70
1,57,108,2
1,57,0,70
1,57,108,2
1,57,0,118
1,57,108,2
1,57,0,22
1,58,108,2
1,58,0,46
1,59,108,2
1,59,0,46
1,40,108,2
1,40,0,256
1,66,108,32
1,71,108,0
1,57,108,0
1,62,108,0
1,66,0,1200
1,71,0,0
1,57,0,0
1,62,0,0
1,73,108,48
1,66,108,0
1,69,108,0
1,66,0,256
1,73,0,0
1,69,0,0
1,64,108,32
1,67,108,0
1,71,108,0
1,71,0,94
1,64,0,0
1,67,0,0
1,64,108,2
1,71,108,0
1,67,108,0
1,67,0,720
1,71,0,0
1,64,0,0
1,57,108,48
1,57,0,70
1,57,108,2
1,57,0,70
1,57,108,2
1,57,0,118
1,57,108,2
1,57,0,22
1,58,108,2
1,58,0,46
1,59,108,2
1,59,0,46
1,40,108,2
1,40,0,256
1,66,108,32
1,57,108,0
1,71,108,0
1,62,108,0
1,62,0,1200
1,66,0,0
1,57,0,0
1,71,0,0
1,69,108,48
1,66,108,0
1,73,108,0
1,66,0,256
1,69,0,0
1,73,0,0
1,64,108,32
1,71,108,0
1,67,108,0
1,64,0,94
1,71,0,0
1,67,0,0
1,64,108,2
1,67,108,0
1,71,108,0
1,71,0,720
1,64,0,0
1,67,0,0
1,57,108,48
1,57,0,46
1,57,108,2
1,57,0,70
1,57,108,2
1,57,0,118
1,57,108,2
1,57,0,22
1,58,108,2
1,58,0,46
1,59,108,2
1,59,0,46
1,40,108,2
1,40,0,280
1,71,108,32
1,62,108,0
1,57,108,0
1,66,108,0
1,66,0,1200
1,62,0,0
1,71,0,0
1,57,0,0
1,73,108,48
1,69,108,0
1,66,108,0
1,69,0,256
1,73,0,0
1,66,0,0
1,67,108,32
1,64,108,0
1,71,108,0
1,71,0,94
1,67,0,0
1,64,0,0
1,67,108,2
1,71,108,0
1,64,108,0
1,71,0,720
1,64,0,0
1,67,0,0
1,57,108,48
1,57,0,70
1,57,108,2
1,57,0,70
1,57,108,2
1,57,0,118
1,57,108,2
1,57,0,22
1,58,108,2
1,58,0,46
1,59,108,2
1,59,0,46
1,40,108,2
1,40,0,256
1,62,108,32
1,71,108,0
1,57,108,0
1,66,108,0
1,57,0,1200
1,62,0,0
1,71,0,0
1,66,0,0
1,40,108,48
1,40,0,256
1,66,108,32
1,69,108,0
1,73,108,0
1,73,0,256
1,66,0,0
1,69,0,0
1,64,108,32
1,67,108,0
1,71,108,0
1,67,0,912
1,71,0,0
1,64,0,0
1,40,108,48
1,40,0,256
1,66,108,32
1,57,108,0
1,62,108,0
1,57,0,256
1,66,0,0
1,62,0,0
1,66,108,32
1,71,108,0
1,62,108,0
1,62,0,912
1,71,0,0
1,40,108,48
1,40,0,256
1,69,108,32
1,73,108,0
1,66,108,0
1,69,0,256
1,66,0,0
1,73,0,0
1,67,108,32
1,71,108,0
1,64,108,0
1,64,0,912
1,67,0,0
1,71,0,0
1,40,108,48
1,40,0,256
1,57,108,32
1,62,108,0
1,66,108,0
1,62,0,256
1,66,0,0
1,57,0,0
1,66,108,32
1,62,108,0
1,69,108,0
1,62,0,912
1,69,0,0
1,40,108,48
1,40,0,256
1,69,108,32
1,73,108,0
1,66,108,0
1,66,0,256
1,69,0,0
1,73,0,0
1,67,108,32
1,71,108,0
1,64,108,0
1,67,0,912
1,64,0,0
1,71,0,0
1,40,108,48
1,40,0,256
1,62,108,32
1,66,108,0
1,57,108,0
1,62,0,256
1,66,0,0
1,57,0,0
1,66,108,32
1,71,108,0
1,62,108,0
1,62,0,912
1,71,0,0
1,40,108,48
1,40,0,256
1,69,108,32
1,73,108,0
1,66,108,0
1,73,0,256
1,69,0,0
1,66,0,0
1,67,108,32
1,64,108,0
1,71,108,0
1,67,0,912
1,71,0,0
1,64,0,0
1,40,108,48
1,40,0,256
1,66,108,32
1,57,108,0
1,62,108,0
1,62,0,256
1,57,0,0
1,66,0,0
1,71,108,32
1,66,108,0
1,62,108,0
1,62,0,912
1,71,0,0
1,73,108,48
1,69,108,0
1,66,108,0
1,69,0,256
1,73,0,0
1,66,0,0
1,67,108,32
1,71,108,0
1,64,108,0
1,64,0,94
1,71,0,0
1,67,0,0
1,64,108,2
1,71,108,0
1,67,108,0
1,64,0,720
1,71,0,0
1,67,0,0
1,57,108,48
1,57,0,70
1,57,108,2
1,57,0,70
1,57,108,2
1,57,0,118
1,57,108,2
1,57,0,22
1,58,108,2
1,58,0,46
1,59,108,2
1,59,0,46
1,40,108,2
1,40,0,256
1,62,108,32
1,66,108,0
1,71,108,0
1,57,108,0
1,62,0,1200
1,57,0,0
1,71,0,0
1,66,0,0
1,69,108,48
1,66,108,0
1,73,108,0
1,73,0,256
1,69,0,0
1,66,0,0
1,71,108,32
1,67,108,0
1,64,108,0
1,67,0,94
1,71,0,0
1,64,0,0
1,71,108,2
1,67,108,0
1,64,108,0
1,67,0,720
1,71,0,0
1,64,0,0
1,57,108,48
1,57,0,70
1,57,108,2
1,57,0,70
1,57,108,2
1,57,0,118
1,57,108,2
1,57,0,22
1,58,108,2
1,58,0,46
1,59,108,2
1,59,0,46
1,40,108,2
1,40,0,256
1,62,108,32
1,57,108,0
1,71,108,0
1,66,108,0
1,62,0,1200
1,71,0,0
1,66,0,0
1,57,0,0
1,40,108,48
1,40,0,256
1,69,108,32
1,66,108,0
1,73,108,0
1,66,0,256
1,69,0,0
1,73,0,0
1,67,108,32
1,71,108,0
1,64,108,0
1,71,0,912
1,64,0,0
1,67,0,0
1,40,108,48
1,40,0,256
1,62,108,32
1,66,108,0
1,57,108,0
1,57,0,256
1,66,0,0
1,62,0,0
1,62,108,32
1,66,108,0
1,69,108,0
1,62,0,912
1,69,0,0
1,40,108,48
1,40,0,256
1,69,108,32
1,73,108,0
1,66,108,0
1,66,0,256
1,69,0,0
1,73,0,0
1,71,108,32
1,67,108,0
1,64,108,0
1,71,0,912
1,64,0,0
1,67,0,0
1,40,108,48
1,40,0,256
1,66,108,32
1,62,108,0
1,57,108,0
1,57,0,256
1,62,0,0
1,66,0,0
1,66,108,32
1,62,108,0
1,71,108,0
1,71,0,912
1,62,0,0
1,40,108,48
1,40,0,256
1,69,108,32
1,73,108,0
1,66,108,0
1,69,0,256
1,73,0,0
1,66,0,0
1,71,108,32
1,67,108,0
1,64,108,0
1,64,0,912
1,71,0,0
1,67,0,0
1,40,108,48
1,40,0,256
1,62,108,32
1,57,108,0
1,66,108,0
1,57,0,256
1,66,0,0
1,62,0,0
1,66,108,32
1,62,108,0
1,71,108,0
1,71,0,912
1,62,0,0
1,40,108,48
1,40,0,256
1,66,108,32
1,69,108,0
1,73,108,0
1,69,0,256
1,73,0,0
1,66,0,0
1,64,108,32
1,67,108,0
1,71,108,0
1,71,0,912
1,64,0,0
1,67,0,0
1,40,108,48
1,40,0,256
1,57,108,32
1,62,108,0
1,66,108,0
1,57,0,256
1,62,0,0
1,66,0,0
1,62,108,32
1,69,108,0
1,66,108,0
1,69,0,912
1,62,0,0
1,68,108,48
1,59,108,0
1,64,108,0
1,64,0,94
1,59,0,0
1,68,0,0
1,57,108,2
1,66,108,0
1,62,108,0
1,62,0,94
1,57,0,0
1,66,0,0
1,63,108,2
1,67,108,0
1,58,108,0
1,63,0,94
1,58,0,0
1,67,0,0
1,59,108,2
1,68,108,0
1,64,108,0
1,64,0,190
1,59,0,0
1,68,0,0
1,63,108,2
1,57,108,0
1,63,0,46
1,57,0,0
1,63,108,2
1,58,108,0
1,58,0,46
1,63,0,0
1,64,108,2
1,59,108,0
1,64,0,46
1,59,0,0
1,59,108,2
1,64,108,0
1,64,0,46
1,59,0,0
1,62,108,2
1,57,108,0
1,57,0,46
1,62,0,0
1,63,108,2
1,58,108,0
1,63,0,46
1,58,0,0
1,59,108,2
1,64,108,0
1,64,0,94
1,59,0,0
1,57,108,2
1,62,108,0
1,62,0,94
1,57,0,0
1,64,108,2
1,59,108,0
1,59,0,94
1,64,0,0
1,65,108,2
1,60,108,0
1,65,0,432
1,60,0,0
1,68,108,48
1,59,108,0
1,64,108,0
1,59,0,94
1,68,0,0
1,64,0,0
1,57,108,2
1,66,108,0
1,62,108,0
1,62,0,94
1,57,0,0
1,66,0,0
1,67,108,2
1,58,108,0
1,63,108,0
1,58,0,94
1,67,0,0
1,63,0,0
1,64,108,2
1,59,108,0
1,68,108,0
1,59,0,190
1,68,0,0
1,64,0,0
1,57,108,2
1,63,108,0
1,63,0,46
1,57,0,0
1,58,108,2
1,63,108,0
1,63,0,46
1,58,0,0
1,59,108,2
1,64,108,0
1,64,0,46
1,59,0,0
1,64,108,2
1,59,108,0
1,64,0,46
1,59,0,0
1,57,108,2
1,62,108,0
1,62,0,46
1,57,0,0
1,58,108,2
1,63,108,0
1,63,0,46
1,58,0,0
1,64,108,2
1,59,108,0
1,59,0,94
1,64,0,0
1,62,108,2
1,57,108,0
1,62,0,94
1,57,0,0
1,59,108,2
1,64,108,0
1,59,0,94
1,64,0,0
1,65,108,2
1,60,108,0
1,65,0,432
1,60,0,0
1,54,108,48
1,54,0,10
1,55,108,2
1,55,0,178
1,52,108,2
1,52,0,94
1,55,108,2
1,55,0,10
1,57,108,2
1,57,0,178
1,54,108,2
1,54,0,94
1,57,108,2
1,57,0,10
1,59,108,2
1,59,0,178
1,55,108,2
1,55,0,94
1,60,108,2
1,60,0,160
1,57,108,32
1,57,0,94
1,60,108,2
1,60,0,10
1,62,108,2
1,62,0,178
1,59,108,2
1,59,0,160
1,62,108,32
1,62,0,10
1,64,108,2
1,64,0,178
1,60,108,2
1,60,0,94
1,66,108,2
1,66,0,160
1,62,108,32
1,62,0,94
1,67,108,2
1,67,0,160
1,64,108,32
1,64,0,94
1,67,108,2
1,67,0,10
1,69,108,2
1,69,0,178
1,66,108,2
1,66,0,94
1,69,108,2
1,69,0,10
1,71,108,2
1,71,0,178
1,67,108,2
1,67,0,10
1,62,108,2
1,62,0,178
1,57,108,2
1,57,0,10
1,59,108,2
1,59,0,178
1,55,108,2
1,55,0,94
1,60,108,2
1,60,0,160
1,57,108,32
1,57,0,94
1,60,108,2
1,60,0,10
1,62,108,2
1,62,0,178
1,59,108,2
1,59,0,94
1,62,108,2
1,62,0,10
1,64,108,2
1,64,0,178
1,60,108,2
1,60,0,94
1,64,108,2
1,64,0,10
1,66,108,2
1,66,0,178
1,62,108,2
1,62,0,10
1,59,108,2
1,59,0,178
1,66,108,2
1,66,0,10
1,67,108,2
1,67,0,178
1,64,108,2
1,64,0,94
1,69,108,2
1,69,0,160
1,66,108,32
1,66,0,94
1,69,108,2
1,69,0,10
1,71,108,2
1,71,0,178
1,67,108,2
1,67,0,94
1,72,108,2
1,72,0,160
1,69,108,32
1,69,0,94
1,74,108,2
1,74,0,160
1,71,108,32
1,71,0,160
1,66,108,32
1,73,108,0
1,69,108,0
1,73,0,256
1,69,0,0
1,66,0,0
1,64,108,32
1,67,108,0
1,71,108,0
1,67,0,94
1,64,0,0
1,71,0,0
1,67,108,2
1,71,108,0
1,64,108,0
1,71,0,720
1,64,0,0
1,67,0,0
1,57,108,48
1,57,0,70
1,57,108,2
1,57,0,70
1,57,108,2
1,57,0,118
1,57,108,2
1,57,0,22
1,58,108,2
1,58,0,46
1,59,108,2
1,59,0,46
1,40,108,2
1,40,0,256
1,66,108,32
1,57,108,0
1,71,108,0
1,62,108,0
1,62,0,1200
1,57,0,0
1,66,0,0
1,71,0,0
1,69,108,48
1,73,108,0
1,66,108,0
1,69,0,256
1,73,0,0
1,66,0,0
1,64,108,32
1,71,108,0
1,67,108,0
1,64,0,94
1,71,0,0
1,67,0,0
1,67,108,2
1,64,108,0
1,71,108,0
1,67,0,720
1,64,0,0
1,71,0,0
1,57,108,48
1,57,0,70
1,57,108,2
1,57,0,70
1,57,108,2
1,57,0,118
1,57,108,2
1,57,0,22
1,58,108,2
1,58,0,46
1,59,108,2
1,59,0,46
1,40,108,2
1,40,0,256
1,66,108,32
1,62,108,0
1,71,108,0
1,57,108,0
1,71,0,1200
1,57,0,0
1,66,0,0
1,62,0,0
1,40,108,48
1,40,0,256
1,73,108,32
1,66,108,0
1,69,108,0
1,69,0,256
1,66,0,0
1,73,0,0
1,64,108,32
1,71,108,0
1,67,108,0
1,67,0,912
1,64,0,0
1,71,0,0
1,40,108,48
1,40,0,256
1,66,108,32
1,62,108,0
1,57,108,0
1,66,0,256
1,57,0,0
1,62,0,0
1,62,108,32
1,69,108,0
1,66,108,0
1,69,0,912
1,62,0,0
1,40,108,48
1,40,0,256
1,73,108,32
1,66,108,0
1,69,108,0
1,66,0,256
1,73,0,0
1,69,0,0
1,64,108,32
1,67,108,0
1,71,108,0
1,67,0,912
1,71,0,0
1,64,0,0
1,40,108,48
1,40,0,256
1,66,108,32
1,62,108,0
1,57,108,0
1,62,0,256
1,66,0,0
1,57,0,0
1,66,108,32
1,71,108,0
1,62,108,0
1,62,0,912
1,71,0,0
1,40,108,48
1,40,0,256
1,66,108,32
1,69,108,0
1,73,108,0
1,73,0,256
1,66,0,0
1,69,0,0
1,71,108,32
1,64,108,0
1,67,108,0
1,71,0,912
1,64,0,0
1,67,0,0
1,40,108,48
1,40,0,256
1,66,108,32
1,62,108,0
1,57,108,0
1,62,0,256
1,66,0,0
1,57,0,0
1,62,108,32
1,66,108,0
1,69,108,0
1,62,0,912
1,69,0,0
1,40,108,48
1,40,0,256
1,66,108,32
1,73,108,0
1,69,108,0
1,69,0,256
1,66,0,0
1,73,0,0
1,64,108,32
1,67,108,0
1,71,108,0
1,64,0,912
1,71,0,0
1,67,0,0
1,40,108,48
1,40,0,256
1,62,108,32
1,57,108,0
1,66,108,0
1,62,0,256
1,66,0,0
1,57,0,0
1,71,108,32
1,66,108,0
1,62,108,0
1,71,0,912
1,62,0,0
1,66,108,48
1,69,108,0
1,73,108,0
1,66,0,256
1,73,0,0
1,69,0,0
1,71,108,32
1,64,108,0
1,67,108,0
1,71,0,94
1,67,0,0
1,64,0,0
1,71,108,2
1,64,108,0
1,67,108,0
1,64,0,720
1,71,0,0
1,67,0,0
1,57,108,48
1,57,0,70
1,57,108,2
1,57,0,70
1,57,108,2
1,57,0,118
1,57,108,2
1,57,0,22
1,58,108,2
1,58,0,46
1,59,108,2
1,59,0,46
1,40,108,2
1,40,0,256
1,57,108,32
1,66,108,0
1,71,108,0
1,62,108,0
1,66,0,1200
1,57,0,0
1,71,0,0
1,62,0,0
1,73,108,48
1,66,108,0
1,69,108,0
1,69,0,256
1,73,0,0
1,66,0,0
1,71,108,32
1,64,108,0
1,67,108,0
1,71,0,94
1,67,0,0
1,64,0,0
1,71,108,2
1,64,108,0
1,67,108,0
1,67,0,720
1,71,0,0
1,64,0,0
1,57,108,48
1,57,0,70
1,57,108,2
1,57,0,70
1,57,108,2
1,57,0,118
1,57,108,2
1,57,0,22
1,58,108,2
1,58,0,46
1,59,108,2
1,59,0,46
1,40,108,2
1,40,0,256
1,57,108,32
1,71,108,0
1,62,108,0
1,66,108,0
1,57,0,1200
1,71,0,0
1,62,0,0
1,66,0,0
1,40,108,48
1,40,0,256
1,66,108,32
1,73,108,0
1,69,108,0
1,66,0,256
1,69,0,0
1,73,0,0
1,71,108,32
1,67,108,0
1,64,108,0
1,71,0,912
1,64,0,0
1,67,0,0
1,40,108,48
1,40,0,256
1,57,108,32
1,66,108,0
1,62,108,0
1,57,0,256
1,62,0,0
1,66,0,0
1,62,108,32
1,69,108,0
1,66,108,0
1,62,0,912
1,69,0,0
1,40,108,48
1,40,0,256
1,73,108,32
1,69,108,0
1,66,108,0
1,73,0,256
1,66,0,0
1,69,0,0
1,71,108,32
1,67,108,0
1,64,108,0
