track,note,velocity,time
1,67,127,37344
1,67,0,286
1,69,127,2
1,69,0,256
1,67,127,32
1,67,0,190
1,66,127,2
1,66,0,46
1,64,127,2
1,64,0,46
1,62,127,2
1,62,0,142
1,64,127,2
1,64,0,46
1,66,127,2
1,66,0,94
1,64,127,2
1,64,0,94
1,62,127,2
1,62,0,62
1,64,127,2
1,64,0,62
1,62,127,2
1,62,0,62
1,64,127,2
1,64,0,94
1,62,127,2
1,62,0,94
1,61,127,2
1,61,0,352
1,73,127,32
1,73,0,94
1,71,127,2
1,71,0,190
1,66,127,98
1,66,0,94
1,68,127,2
1,68,0,94
1,66,127,2
1,66,0,94
1,64,127,2
1,64,0,46
1,61,127,2
1,61,0,46
1,68,127,98
1,68,0,94
1,66,127,2
1,66,0,46
1,64,127,2
1,64,0,46
1,61,127,2
1,61,0,94
1,64,127,2
1,64,0,336
1,79,127,336
1,79,0,94
1,81,127,2
1,81,0,94
1,79,127,2
1,79,0,46
1,78,127,2
1,78,0,46
1,76,127,2
1,76,0,62
1,76,127,2
1,76,0,62
1,76,127,2
1,76,0,62
1,74,127,2
1,74,0,46
1,71,127,2
1,71,0,46
1,70,127,2
1,70,0,46
1,69,127,2
1,69,0,46
1,67,127,2
1,67,0,46
1,64,127,2
1,64,0,32
1,71,127,64
1,71,0,46
1,69,127,2
1,69,0,46
1,67,127,2
1,67,0,46
1,69,127,2
1,69,0,46
1,69,127,2
1,69,0,142
1,67,127,2
1,67,0,94
1,70,127,2
1,70,0,94
1,64,127,2
1,64,0,46
1,64,127,2
1,64,0,208
1,76,127,288
1,76,0,62
1,79,127,2
1,79,0,62
1,80,127,2
1,80,0,32
1,81,127,64
1,81,0,32
1,80,127,64
1,80,0,46
1,81,127,2
1,81,0,94
1,83,127,2
1,83,0,46
1,76,127,50
1,76,0,46
1,76,127,2
1,76,0,94
1,55,127,2
1,55,0,62
1,78,127,2
1,78,0,62
1,76,127,2
1,76,0,62
1,82,127,50
1,82,0,142
1,76,127,50
1,76,0,46
1,76,127,2
1,76,0,190
1,85,127,386
1,85,0,190
1,83,127,2
1,83,0,94
1,76,127,2
1,76,0,94
1,79,127,98
1,79,0,46
1,82,127,2
1,82,0,46
1,79,127,2
1,79,0,46
1,76,127,2
1,76,0,46
1,74,127,2
1,74,0,32
1,79,127,64
1,79,0,94
1,78,127,2
1,78,0,46
1,76,127,2
1,76,0,238
1,80,127,194
1,80,0,94
1,81,127,2
1,81,0,46
1,82,127,2
1,82,0,46
1,83,127,2
1,83,0,94
1,78,127,2
1,78,0,46
1,80,127,2
1,80,0,46
1,78,127,2
1,78,0,94
1,76,127,2
1,76,0,46
1,73,127,2
1,73,0,46
1,78,127,2
1,78,0,46
1,73,127,2
1,73,0,46
1,76,127,2
1,76,0,46
1,78,127,2
1,78,0,46
1,76,127,2
1,76,0,46
1,73,127,2
1,73,0,46
1,78,127,2
1,78,0,32
1,78,127,64
1,78,0,382
1,80,127,2
1,80,0,94
1,80,127,98
1,80,0,94
1,80,127,2
1,80,0,94
1,78,127,2
1,78,0,46
1,76,127,2
1,76,0,46
1,73,127,2
1,73,0,46
1,81,127,98
1,81,0,46
1,76,127,50
1,76,0,238
1,83,127,2
1,83,0,94
1,81,127,2
1,81,0,30
1,79,127,2
1,79,0,30
1,76,127,2
1,76,0,30
1,76,127,2
1,76,0,432
1,76,127,48
1,76,0,94
1,64,127,2
1,64,0,94
1,76,127,2
1,76,0,94
1,64,127,2
1,64,0,94
1,64,127,42338
1,64,0,46
1,67,127,2
1,67,0,46
1,69,127,2
1,69,0,46
1,71,127,2
1,71,0,46
1,71,127,2
1,71,0,46
1,67,127,2
1,67,0,46
1,71,127,2
1,71,0,94
1,71,127,2
1,71,0,94
1,69,127,2
1,69,0,46
1,67,127,2
1,67,0,46
1,64,127,2
1,64,0,32
1,64,127,160
1,64,0,94
1,67,127,2
1,67,0,46
1,69,127,2
1,69,0,46
1,69,127,2
1,69,0,94
1,69,127,2
1,69,0,142
1,67,127,2
1,67,0,46
1,69,127,2
1,69,0,46
1,67,127,2
1,67,0,46
1,64,127,2
1,64,0,32
1,71,127,160
1,71,0,46
1,71,127,2
1,71,0,46
1,76,127,2
1,76,0,94
1,74,127,2
1,74,0,46
1,71,127,2
1,71,0,46
1,69,127,2
1,69,0,46
1,64,127,2
1,64,0,46
1,69,127,2
1,69,0,46
1,67,127,2
1,67,0,46
1,69,127,2
1,69,0,46
1,67,127,2
1,67,0,46
1,64,127,2
1,64,0,32
1,71,127,160
1,71,0,46
1,71,127,2
1,71,0,46
1,76,127,2
1,76,0,94
1,74,127,2
1,74,0,46
1,71,127,2
1,71,0,46
1,69,127,2
1,69,0,46
1,64,127,2
1,64,0,46
1,64,127,2
1,64,0,46
1,69,127,2
1,69,0,46
1,68,127,2
1,68,0,46
1,64,127,2
1,64,0,46
1,64,127,2
1,64,0,46
1,69,127,2
1,69,0,46
1,68,127,2
1,68,0,94
1,68,127,2
1,68,0,46
1,64,127,2
1,64,0,46
1,62,127,2
1,62,0,46
1,71,127,2
1,71,0,46
1,64,127,2
1,64,0,46
1,59,127,2
1,59,0,46
1,62,127,2
1,62,0,46
1,64,127,2
1,64,0,46
1,62,127,2
1,62,0,46
1,59,127,2
1,59,0,46
1,62,127,2
1,62,0,46
1,59,127,2
1,59,0,46
1,57,127,2
1,57,0,46
1,55,127,2
1,55,0,46
1,57,127,2
1,57,0,46
1,55,127,2
1,55,0,46
1,52,127,2
1,52,0,46
1,55,127,2
1,55,0,46
1,57,127,2
1,57,0,46
1,59,127,2
1,59,0,46
1,62,127,2
1,62,0,46
1,63,127,2
1,63,0,46
1,64,127,2
1,64,0,46
1,67,127,2
1,67,0,46
1,69,127,2
1,69,0,46
1,67,127,2
1,67,0,46
1,69,127,2
1,69,0,46
1,67,127,2
1,67,0,46
1,64,127,2
1,64,0,94
1,70,127,2
1,70,0,94
1,71,127,2
1,71,0,94
1,76,127,2
1,76,0,94
1,76,127,2
1,76,0,94
1,76,127,2
1,76,0,238
1,76,127,2
1,76,0,46
1,75,127,2
1,75,0,46
1,71,127,2
1,71,0,46
1,69,127,2
1,69,0,46
1,67,127,2
1,67,0,46
1,64,127,2
1,64,0,94
1,81,127,2
1,81,0,190
1,81,127,2
1,81,0,160
1,81,127,32
1,81,0,190
1,79,127,2
1,79,0,94
1,76,127,2
1,76,0,94
1,76,127,2
1,76,0,46
1,76,127,2
1,76,0,46
2,64,115,30624
2,64,0,96
2,66,115,0
2,66,0,94
2,66,115,2
2,66,0,94
2,66,115,2
2,66,0,94
2,66,115,2
2,66,0,96
2,64,115,0
2,64,0,256
2,63,115,32
2,63,0,190
2,63,115,2
2,63,0,160
2,63,115,32
2,61,115,96
2,63,0,0
2,61,0,256
2,64,115,32
2,66,115,96
2,64,0,0
2,66,0,94
2,66,115,2
2,66,0,94
2,66,115,2
2,66,0,94
2,66,115,2
2,66,0,96
2,64,115,0
2,64,0,256
2,63,115,32
2,63,0,190
2,63,115,2
2,63,0,160
2,63,115,32
2,61,115,96
2,63,0,0
2,61,0,256
2,64,115,26912
2,66,115,96
2,64,0,0
2,66,0,94
2,66,115,2
2,66,0,94
2,66,115,2
2,66,0,94
2,66,115,2
2,66,0,96
2,64,115,0
2,64,0,256
2,63,115,32
2,63,0,190
2,63,115,2
2,63,0,160
2,63,115,32
2,61,115,96
2,63,0,0
2,61,0,256
2,64,115,32
2,66,115,96
2,64,0,0
2,66,0,94
2,66,115,2
2,66,0,94
2,66,115,2
2,66,0,94
2,66,115,2
2,64,115,96
2,66,0,0
2,64,0,256
2,63,115,32
2,63,0,190
2,63,115,2
2,63,0,160
2,63,115,32
2,63,0,96
2,61,115,0
2,61,0,256
2,64,115,17312
2,66,115,96
2,64,0,0
2,66,0,94
2,66,115,2
2,66,0,94
2,66,115,2
2,66,0,94
2,66,115,2
2,66,0,96
2,64,115,0
2,64,0,256
2,63,115,32
2,63,0,190
2,63,115,2
2,63,0,160
2,63,115,32
2,61,115,96
2,63,0,0
2,61,0,256
2,64,115,32
2,64,0,96
2,66,115,0
2,66,0,94
2,66,115,2
2,66,0,94
2,66,115,2
2,66,0,94
2,66,115,2
2,66,0,96
2,64,115,0
2,64,0,256
2,63,115,32
2,63,0,190
2,63,115,2
2,63,0,160
2,63,115,32
2,63,0,96
2,61,115,0
2,61,0,256
3,69,115,30632
3,69,0,96
3,71,115,0
3,71,0,94
3,71,115,2
3,71,0,94
3,71,115,2
3,71,0,94
3,71,115,2
3,71,0,96
3,69,115,0
3,69,0,256
3,71,115,32
3,71,0,190
3,71,115,2
3,71,0,160
3,71,115,32
3,69,115,96
3,71,0,0
3,69,0,256
3,69,115,32
3,71,115,96
3,69,0,0
3,71,0,94
3,71,115,2
3,71,0,94
3,71,115,2
3,71,0,94
3,71,115,2
3,71,0,96
3,69,115,0
3,69,0,256
3,71,115,32
3,71,0,190
3,71,115,2
3,71,0,160
3,71,115,32
3,69,115,96
3,71,0,0
3,69,0,256
3,69,115,26912
3,71,115,96
3,69,0,0
3,71,0,94
3,71,115,2
3,71,0,94
3,71,115,2
3,71,0,94
3,71,115,2
3,71,0,96
3,69,115,0
3,69,0,256
3,71,115,32
3,71,0,190
3,71,115,2
3,71,0,160
3,71,115,32
3,69,115,96
3,71,0,0
3,69,0,256
3,69,115,32
3,71,115,96
3,69,0,0
3,71,0,94
3,71,115,2
3,71,0,94
3,71,115,2
3,71,0,94
3,71,115,2
3,69,115,96
3,71,0,0
3,69,0,256
3,71,115,32
3,71,0,190
3,71,115,2
3,71,0,160
3,71,115,32
3,71,0,96
3,69,115,0
3,69,0,256
3,69,115,17312
3,71,115,96
3,69,0,0
3,71,0,94
3,71,115,2
3,71,0,94
3,71,115,2
3,71,0,94
3,71,115,2
3,71,0,96
3,69,115,0
3,69,0,256
3,71,115,32
3,71,0,190
3,71,115,2
3,71,0,160
3,71,115,32
3,69,115,96
3,71,0,0
3,69,0,256
3,69,115,32
3,69,0,96
3,71,115,0
3,71,0,94
3,71,115,2
3,71,0,94
3,71,115,2
3,71,0,94
3,71,115,2
3,71,0,96
3,69,115,0
3,69,0,256
3,71,115,32
3,71,0,190
3,71,115,2
3,71,0,160
3,71,115,32
3,71,0,96
3,69,115,0
3,69,0,256
4,64,115,7296
4,55,115,0
4,60,115,0
4,64,0,94
4,55,0,0
4,60,0,0
4,66,115,2
4,57,115,0
4,62,115,0
4,57,0,94
4,62,0,0
4,66,0,0
4,67,115,2
4,59,115,0
4,64,115,0
4,59,0,94
4,67,0,0
4,64,0,0
4,64,115,2
4,67,115,0
4,59,115,0
4,59,0,94
4,64,0,0
4,67,0,0
4,64,115,386
4,60,115,0
4,55,115,0
4,60,0,94
4,55,0,0
4,64,0,0
4,66,115,2
4,57,115,0
4,62,115,0
4,57,0,94
4,66,0,0
4,62,0,0
4,64,115,2
4,59,115,0
4,67,115,0
4,59,0,94
4,64,0,0
4,67,0,0
4,67,115,2
4,59,115,0
4,64,115,0
4,64,0,94
4,59,0,0
4,67,0,0
4,55,115,2114
4,64,115,0
4,60,115,0
4,55,0,94
4,64,0,0
4,60,0,0
4,66,115,2
4,62,115,0
4,57,115,0
4,66,0,94
4,57,0,0
4,62,0,0
4,67,115,2
4,59,115,0
4,64,115,0
4,59,0,94
4,64,0,0
4,67,0,0
4,64,115,2
4,59,115,0
4,67,115,0
4,64,0,94
4,59,0,0
4,67,0,0
4,64,115,386
4,60,115,0
4,55,115,0
4,55,0,94
4,64,0,0
4,60,0,0
4,62,115,2
4,57,115,0
4,66,115,0
4,62,0,94
4,57,0,0
4,66,0,0
4,64,115,2
4,67,115,0
4,59,115,0
4,59,0,94
4,67,0,0
4,64,0,0
4,64,115,2
4,59,115,0
4,67,115,0
4,59,0,94
4,67,0,0
4,64,0,0
4,61,115,1058
4,61,0,94
4,59,115,2
4,59,0,94
4,61,115,2
4,61,0,94
4,59,115,2
4,59,0,94
4,54,115,2
4,54,0,94
4,52,115,2
4,52,0,94
4,54,115,2
4,54,0,190
4,52,115,2
4,52,0,32
4,48,115,352
4,48,0,94
4,49,115,2
4,49,0,94
4,45,115,2
4,45,0,94
4,61,115,98
4,61,0,94
4,59,115,2
4,59,0,94
4,61,115,2
4,61,0,94
4,59,115,2
4,59,0,94
4,54,115,2
4,54,0,94
4,52,115,2
4,52,0,94
4,54,115,2
4,54,0,190
4,52,115,2
4,52,0,32
4,48,115,352
4,48,0,94
4,49,115,2
4,49,0,94
4,45,115,2
4,45,0,94
4,61,115,98
4,61,0,94
4,59,115,2
4,59,0,94
4,61,115,2
4,61,0,94
4,59,115,2
4,59,0,94
4,54,115,2
4,54,0,94
4,52,115,2
4,52,0,94
4,54,115,2
4,59,115,288
4,59,0,94
4,63,115,2
4,54,0,190
4,54,115,2
4,63,0,94
4,59,115,2
4,59,0,94
4,63,115,2
4,54,0,190
4,54,115,2
4,63,0,94
4,59,115,2
4,59,0,94
4,63,115,2
4,54,0,190
4,54,115,2
4,63,0,94
4,59,115,2
4,59,0,94
4,63,115,2
4,54,0,190
4,54,115,2
4,63,0,94
4,59,115,2
4,59,0,94
4,63,115,2
4,54,0,190
4,54,115,2
4,63,0,94
4,59,115,2
4,59,0,94
4,63,115,2
4,54,0,190
4,54,115,2
4,63,0,94
4,59,115,2
4,59,0,94
4,63,115,2
4,63,0,94
4,54,0,0
4,59,115,2
4,63,115,0
4,54,115,0
4,59,0,160
4,54,0,0
4,63,0,0
4,64,115,32
4,59,115,0
4,59,0,94
4,64,0,0
4,64,115,2
4,59,115,0
4,59,0,94
4,64,0,0
4,55,115,1922
4,64,115,0
4,60,115,0
4,60,0,94
4,55,0,0
4,64,0,0
4,62,115,2
4,57,115,0
4,66,115,0
4,66,0,94
4,62,0,0
4,57,0,0
4,67,115,2
4,59,115,0
4,64,115,0
4,64,0,94
4,67,0,0
4,59,0,0
4,59,115,2
4,67,115,0
4,64,115,0
4,67,0,94
4,59,0,0
4,64,0,0
4,64,115,386
4,55,115,0
4,60,115,0
4,55,0,94
4,64,0,0
4,60,0,0
4,62,115,2
4,57,115,0
4,66,115,0
4,57,0,94
4,62,0,0
4,66,0,0
4,64,115,2
4,67,115,0
4,59,115,0
4,59,0,94
4,67,0,0
4,64,0,0
4,59,115,2
4,64,115,0
4,67,115,0
4,59,0,94
4,64,0,0
4,67,0,0
4,60,115,2114
4,64,115,0
4,55,115,0
4,60,0,94
4,64,0,0
4,55,0,0
4,62,115,2
4,57,115,0
4,66,115,0
4,62,0,94
4,57,0,0
4,66,0,0
4,64,115,2
4,59,115,0
4,67,115,0
4,67,0,94
4,64,0,0
4,59,0,0
4,64,115,2
4,67,115,0
4,59,115,0
4,59,0,94
4,64,0,0
4,67,0,0
4,55,115,386
4,60,115,0
4,64,115,0
4,60,0,94
4,55,0,0
4,64,0,0
4,66,115,2
4,62,115,0
4,57,115,0
4,66,0,94
4,62,0,0
4,57,0,0
4,67,115,2
4,64,115,0
4,59,115,0
4,67,0,94
4,59,0,0
4,64,0,0
4,67,115,2
4,64,115,0
4,59,115,0
4,67,0,94
4,64,0,0
4,59,0,0
4,61,115,1058
4,61,0,94
4,59,115,2
4,59,0,94
4,61,115,2
4,61,0,94
4,59,115,2
4,59,0,94
4,54,115,2
4,54,0,94
4,52,115,2
4,52,0,94
4,54,115,2
4,54,0,190
4,52,115,2
4,52,0,32
4,48,115,352
4,48,0,94
4,49,115,2
4,49,0,94
4,45,115,2
4,45,0,94
4,61,115,98
4,61,0,94
4,59,115,2
4,59,0,94
4,61,115,2
4,61,0,94
4,59,115,2
4,59,0,94
4,54,115,2
4,54,0,94
4,52,115,2
4,52,0,94
4,54,115,2
4,54,0,190
4,52,115,2
4,52,0,32
4,48,115,352
4,48,0,94
4,49,115,2
4,49,0,94
4,45,115,2
4,45,0,94
4,61,115,98
4,61,0,94
4,59,115,2
4,59,0,94
4,61,115,2
4,61,0,94
4,59,115,2
4,59,0,94
