track,note,velocity,time
1,55,100,1800
1,62,100,0
1,66,100,0
1,55,0,1080
1,62,0,0
1,66,0,0
1,43,100,0
1,53,100,240
1,59,100,0
1,65,100,0
1,53,0,120
1,59,0,0
1,65,0,0
1,53,100,0
1,59,100,0
1,65,100,0
1,53,0,120
1,59,0,0
1,65,0,0
1,53,100,0
1,59,100,0
1,63,100,0
1,53,0,120
1,59,0,0
1,63,0,0
1,53,100,0
1,59,100,0
1,62,100,0
1,43,0,240
1,53,0,0
1,59,0,0
1,62,0,0
1,43,100,0
1,51,100,0
1,55,100,0
1,58,100,0
1,63,100,0
1,43,0,720
1,51,0,0
1,55,0,0
1,58,0,0
1,63,0,0
1,43,100,0
1,43,0,120
1,43,100,0
1,43,0,120
1,43,100,0
1,50,100,0
1,57,100,0
1,50,0,240
1,57,0,0
1,50,100,0
1,59,100,0
1,50,0,120
1,59,0,0
1,50,100,0
1,59,100,0
1,62,100,0
1,64,100,0
1,43,0,600
1,50,0,0
1,59,0,0
1,62,0,0
1,64,0,0
1,43,100,0
1,50,100,0
1,55,100,0
1,62,100,0
1,43,0,240
1,50,0,0
1,55,0,0
1,62,0,0
1,43,100,0
1,50,100,0
1,55,100,0
1,62,100,0
1,43,0,240
1,50,0,0
1,55,0,0
1,62,0,0
1,43,100,0
1,50,100,0
1,55,100,0
1,62,100,0
1,43,0,240
1,50,0,0
1,55,0,0
1,62,0,0
1,43,100,0
1,50,100,0
1,55,100,0
1,62,100,0
1,43,0,240
1,50,0,0
1,55,0,0
1,62,0,0
1,43,100,0
1,50,100,0
1,55,100,0
1,62,100,0
1,43,0,240
1,50,0,0
1,55,0,0
1,62,0,0
1,48,100,0
1,51,100,0
1,57,100,0
1,62,100,0
1,48,0,120
1,51,0,0
1,57,0,0
1,62,0,0
1,48,100,0
1,51,100,0
1,57,100,0
1,62,100,0
1,48,0,600
1,51,0,0
1,57,0,0
1,62,0,0
1,43,100,0
1,50,100,0
1,55,100,0
1,62,100,0
1,43,0,240
1,50,0,0
1,55,0,0
1,62,0,0
1,43,100,0
1,50,100,0
1,55,100,0
1,62,100,0
1,43,0,240
1,50,0,0
1,55,0,0
1,62,0,0
1,43,100,0
1,50,100,0
1,55,100,0
1,62,100,0
1,43,0,240
1,50,0,0
1,55,0,0
1,62,0,0
1,43,100,0
1,50,100,0
1,55,100,0
1,62,100,0
1,43,0,240
1,50,0,0
1,55,0,0
1,62,0,0
1,43,100,0
1,50,100,0
1,55,100,0
1,62,100,0
1,43,0,240
1,50,0,0
1,55,0,0
1,62,0,0
1,48,100,0
1,51,100,0
1,57,100,0
1,62,100,0
1,48,0,120
1,51,0,0
1,57,0,0
1,62,0,0
1,48,100,0
1,51,100,0
1,57,100,0
1,62,100,0
1,48,0,240
1,51,0,0
1,57,0,0
1,62,0,0
1,48,100,0
1,51,100,0
1,57,100,0
1,62,100,0
1,48,0,120
1,51,0,0
1,57,0,0
1,62,0,0
1,48,100,0
1,51,100,0
1,57,100,0
1,60,100,0
1,48,0,120
1,51,0,0
1,57,0,0
1,60,0,0
1,56,100,0
1,60,100,0
1,66,100,0
1,70,100,0
1,56,0,120
1,60,0,0
1,66,0,0
1,70,0,0
1,55,100,0
1,59,100,0
1,65,100,0
1,69,100,0
1,55,0,960
1,59,0,0
1,65,0,0
1,69,0,0
1,58,100,0
1,62,100,0
1,65,100,0
1,69,100,0
1,58,0,960
1,62,0,0
1,65,0,0
1,69,0,0
1,53,100,0
1,67,100,0
1,53,0,240
1,67,0,0
1,52,100,0
1,67,100,0
1,52,0,240
1,67,0,0
1,48,100,0
1,67,100,0
1,48,0,480
1,67,0,0
1,53,100,0
1,67,100,0
1,53,0,240
1,67,0,0
1,52,100,0
1,67,100,0
1,52,0,240
1,67,0,0
1,48,100,0
1,67,100,0
1,48,0,120
1,67,0,0
1,52,100,0
1,67,100,0
1,52,0,120
1,67,0,0
1,53,100,0
1,67,100,0
1,53,0,120
1,67,0,0
1,56,100,0
1,60,100,0
1,66,100,0
1,70,100,0
1,56,0,120
1,60,0,0
1,66,0,0
1,70,0,0
1,55,100,0
1,59,100,0
1,65,100,0
1,69,100,0
1,55,0,960
1,59,0,0
1,65,0,0
1,69,0,0
1,58,100,0
1,62,100,0
1,65,100,0
1,69,100,0
1,58,0,960
1,62,0,0
1,65,0,0
1,69,0,0
1,53,100,0
1,67,100,0
1,53,0,240
1,67,0,0
1,52,100,0
1,67,100,0
1,52,0,240
1,67,0,0
1,48,100,0
1,67,100,0
1,48,0,480
1,67,0,0
1,53,100,0
1,67,100,0
1,53,0,240
1,67,0,0
1,52,100,0
1,67,100,0
1,52,0,240
1,67,0,0
1,48,100,0
1,67,100,0
1,48,0,120
1,67,0,0
1,52,100,0
1,67,100,0
1,52,0,120
1,67,0,0
1,53,100,0
1,67,100,0
1,53,0,120
1,67,0,0
1,56,100,0
1,60,100,0
1,66,100,0
1,70,100,0
1,56,0,120
1,60,0,0
1,66,0,0
1,70,0,0
1,55,100,0
1,59,100,0
1,65,100,0
1,69,100,0
1,55,0,960
1,59,0,0
1,65,0,0
1,69,0,0
1,58,100,0
1,62,100,0
1,65,100,0
1,69,100,0
1,58,0,960
1,62,0,0
1,65,0,0
1,69,0,0
1,53,100,0
1,67,100,0
1,53,0,240
1,67,0,0
1,52,100,0
1,67,100,0
1,52,0,240
1,67,0,0
1,48,100,0
1,67,100,0
1,48,0,480
1,67,0,0
1,53,100,0
1,67,100,0
1,53,0,240
1,67,0,0
1,55,100,0
1,67,100,0
1,55,0,240
1,67,0,0
1,48,100,0
1,67,100,0
1,48,0,120
1,67,0,0
1,52,100,0
1,67,100,0
1,52,0,120
1,67,0,0
1,53,100,0
1,67,100,0
1,53,0,120
1,67,0,0
1,55,100,0
1,55,0,120
1,50,100,0
1,57,100,0
1,57,0,240
1,59,100,0
1,50,0,120
1,59,0,0
1,59,100,0
1,59,0,120
1,57,100,0
1,57,0,60
1,59,100,0
1,59,0,60
1,55,100,0
1,55,0,60
1,57,100,0
1,57,0,60
1,52,100,0
1,52,0,60
1,55,100,0
1,55,0,60
1,50,100,0
1,50,0,120
1,51,100,0
1,57,100,0
1,51,0,240
1,57,0,0
1,59,100,0
1,59,0,120
1,59,100,0
1,59,0,120
1,57,100,0
1,57,0,60
1,59,100,0
1,59,0,60
1,55,100,0
1,55,0,60
1,57,100,0
1,57,0,60
1,52,100,0
1,52,0,60
1,55,100,0
1,55,0,60
1,50,100,0
1,50,0,120
1,52,100,0
1,57,100,0
1,52,0,240
1,57,0,0
1,59,100,0
1,59,0,120
1,59,100,0
1,59,0,120
1,57,100,0
1,57,0,60
1,59,100,0
1,59,0,60
1,55,100,0
1,55,0,60
1,57,100,0
1,57,0,60
1,52,100,0
1,52,0,60
1,55,100,0
1,55,0,60
1,50,100,0
1,50,0,120
1,53,100,0
1,57,100,0
1,57,0,240
1,59,100,0
1,59,0,120
1,59,100,0
1,59,0,120
1,64,100,0
1,64,0,240
1,62,100,0
1,62,0,120
1,59,100,0
1,53,0,120
1,59,0,0
1,53,100,0
1,53,0,120
1,52,100,0
1,59,100,240
1,52,0,120
1,43,100,0
1,59,0,60
1,59,100,0
1,59,0,60
1,55,100,0
1,55,0,60
1,67,100,0
1,67,0,60
1,64,100,0
1,64,0,60
1,63,100,0
1,43,0,180
1,63,0,0
1,50,100,0
1,64,100,0
1,64,0,240
1,62,100,0
1,62,0,120
1,66,100,0
1,66,0,120
1,62,100,0
1,50,0,120
1,62,0,0
1,48,100,0
1,66,100,0
1,66,0,120
1,62,100,0
1,48,0,120
1,62,0,0
1,47,100,0
1,47,0,240
1,45,100,0
1,48,100,0
1,55,100,0
1,60,100,0
1,62,100,0
1,55,0,360
1,60,0,0
1,62,0,0
1,64,100,0
1,64,0,120
1,62,100,0
1,62,0,39
1,64,100,1
1,64,0,39
1,62,100,1
1,62,0,39
1,60,100,1
1,60,0,119
1,55,100,1
1,45,0,240
1,48,0,0
1,55,0,0
1,45,100,0
1,48,100,0
1,55,100,0
1,60,100,0
1,62,100,0
1,55,0,360
1,60,0,0
1,62,0,0
1,64,100,0
1,64,0,120
1,62,100,0
1,62,0,39
1,64,100,1
1,64,0,39
1,62,100,1
1,62,0,39
1,60,100,1
1,60,0,119
1,55,100,1
1,45,0,120
1,48,0,0
1,55,0,0
1,43,100,0
1,50,100,0
1,57,100,0
1,50,0,240
1,57,0,0
1,50,100,0
1,59,100,0
1,43,0,120
1,50,0,0
1,59,0,0
1,43,100,0
1,50,100,0
1,59,100,0
1,59,100,0
1,64,100,0
1,43,0,600
1,50,0,0
1,59,0,0
1,59,0,0
1,64,0,0
1,43,100,0
1,50,100,0
1,55,100,0
1,59,100,0
1,67,100,0
1,43,0,960
1,50,0,0
1,55,0,0
1,59,0,0
1,67,0,0
1,43,100,0
1,50,100,0
1,55,100,0
1,62,100,0
1,66,100,0
1,43,0,1080
1,50,0,0
1,55,0,0
1,62,0,0
1,66,0,0
1,43,100,0
1,53,100,240
1,59,100,0
1,65,100,0
1,53,0,120
1,59,0,0
1,65,0,0
1,53,100,0
1,59,100,0
1,65,100,0
1,53,0,120
1,59,0,0
1,65,0,0
1,53,100,0
1,59,100,0
1,63,100,0
1,53,0,120
1,59,0,0
1,63,0,0
1,53,100,0
1,59,100,0
1,62,100,0
1,43,0,240
1,53,0,0
1,59,0,0
1,62,0,0
1,43,100,0
1,51,100,0
1,55,100,0
1,58,100,0
1,63,100,0
1,43,0,720
1,51,0,0
1,55,0,0
1,58,0,0
1,63,0,0
1,43,100,0
1,43,0,120
1,43,100,0
1,43,0,120
1,43,100,0
1,50,100,0
1,57,100,0
1,50,0,240
1,57,0,0
1,50,100,0
1,59,100,0
1,50,0,120
1,59,0,0
1,50,100,0
1,59,100,0
1,62,100,0
1,64,100,0
1,43,0,600
1,50,0,0
1,59,0,0
1,62,0,0
1,64,0,0
1,43,100,0
1,50,100,0
1,55,100,0
1,62,100,0
1,43,0,240
1,50,0,0
1,55,0,0
1,62,0,0
1,43,100,0
1,50,100,0
1,55,100,0
1,62,100,0
1,43,0,240
1,50,0,0
1,55,0,0
1,62,0,0
1,43,100,0
1,50,100,0
1,55,100,0
1,62,100,0
1,43,0,240
1,50,0,0
1,55,0,0
1,62,0,0
1,43,100,0
1,50,100,0
1,55,100,0
1,62,100,0
1,43,0,240
1,50,0,0
1,55,0,0
1,62,0,0
1,43,100,0
1,50,100,0
1,55,100,0
1,62,100,0
1,43,0,240
1,50,0,0
1,55,0,0
1,62,0,0
1,48,100,0
1,51,100,0
1,57,100,0
1,62,100,0
1,48,0,120
1,51,0,0
1,57,0,0
1,62,0,0
1,48,100,0
1,51,100,0
1,57,100,0
1,62,100,0
1,48,0,600
1,51,0,0
1,57,0,0
1,62,0,0
1,43,100,0
1,50,100,0
1,55,100,0
1,62,100,0
1,43,0,240
1,50,0,0
1,55,0,0
1,62,0,0
1,43,100,0
1,50,100,0
1,55,100,0
1,62,100,0
1,43,0,240
1,50,0,0
1,55,0,0
1,62,0,0
1,43,100,0
1,50,100,0
1,55,100,0
1,62,100,0
1,43,0,240
1,50,0,0
1,55,0,0
1,62,0,0
1,43,100,0
1,50,100,0
1,55,100,0
1,62,100,0
1,43,0,240
1,50,0,0
1,55,0,0
1,62,0,0
1,43,100,0
1,50,100,0
1,55,100,0
1,62,100,0
1,43,0,240
1,50,0,0
1,55,0,0
1,62,0,0
1,48,100,0
1,51,100,0
1,57,100,0
1,62,100,0
1,48,0,120
1,51,0,0
1,57,0,0
1,62,0,0
1,48,100,0
1,51,100,0
1,57,100,0
1,62,100,0
1,48,0,240
1,51,0,0
1,57,0,0
1,62,0,0
1,48,100,0
1,51,100,0
1,57,100,0
1,62,100,0
1,48,0,120
1,51,0,0
1,57,0,0
1,62,0,0
1,48,100,0
1,51,100,0
1,57,100,0
1,60,100,0
1,48,0,120
1,51,0,0
1,57,0,0
1,60,0,0
1,56,100,0
1,60,100,0
1,66,100,0
1,70,100,0
1,56,0,120
1,60,0,0
1,66,0,0
1,70,0,0
1,55,100,0
1,59,100,0
1,65,100,0
1,69,100,0
1,55,0,960
1,59,0,0
1,65,0,0
1,69,0,0
1,58,100,0
1,62,100,0
1,65,100,0
1,69,100,0
1,58,0,480
1,62,0,0
1,65,0,0
1,69,0,0
1,62,100,120
1,62,0,120
1,69,100,0
1,69,0,60
1,72,100,0
1,72,0,60
1,69,100,0
1,69,0,120
1,53,100,0
1,67,100,0
1,53,0,240
1,67,0,0
1,52,100,0
1,67,100,0
1,52,0,240
1,67,0,0
1,48,100,0
1,67,100,0
1,48,0,480
1,67,0,0
1,53,100,0
1,67,100,0
1,53,0,240
1,67,0,0
1,52,100,0
1,67,100,0
1,52,0,240
1,67,0,0
1,48,100,0
1,67,100,0
1,48,0,120
1,67,0,0
1,52,100,0
1,67,100,0
1,52,0,120
1,67,0,0
1,53,100,0
1,67,100,0
1,53,0,120
1,67,0,0
1,56,100,0
1,60,100,0
1,66,100,0
1,70,100,0
1,56,0,120
1,60,0,0
1,66,0,0
1,70,0,0
1,55,100,0
1,59,100,0
1,65,100,0
1,69,100,0
1,55,0,440
1,59,0,0
1,65,0,0
1,69,0,0
1,62,100,0
1,62,0,80
1,65,100,0
1,65,0,80
1,69,100,1
1,69,0,60
1,72,100,0
1,72,0,60
1,69,100,0
1,69,0,120
1,62,100,120
1,65,100,0
1,69,100,0
1,62,0,360
1,65,0,0
1,69,0,0
1,62,100,0
1,62,0,120
1,65,100,0
1,65,0,120
1,69,100,0
1,69,0,60
1,72,100,0
1,72,0,60
1,69,100,0
1,69,0,120
1,53,100,120
1,67,100,0
1,53,0,240
1,67,0,0
1,52,100,0
1,67,100,0
1,52,0,240
1,67,0,0
1,48,100,0
1,67,100,0
1,48,0,480
1,67,0,0
1,53,100,0
1,67,100,0
1,53,0,240
1,67,0,0
1,52,100,0
1,67,100,0
1,52,0,240
1,67,0,0
1,48,100,0
1,67,100,0
1,48,0,120
1,67,0,0
1,52,100,0
1,67,100,0
1,52,0,120
1,67,0,0
1,53,100,0
1,67,100,0
1,53,0,120
1,67,0,0
1,56,100,0
1,60,100,0
1,66,100,0
1,70,100,0
1,56,0,120
1,60,0,0
1,66,0,0
1,70,0,0
1,55,100,0
1,59,100,0
1,65,100,0
1,69,100,0
1,55,0,440
1,59,0,0
1,65,0,0
1,69,0,0
1,62,100,0
1,62,0,80
1,65,100,0
1,69,100,79
1,65,0,1
1,69,0,59
1,72,100,0
1,72,0,60
1,69,100,0
1,69,0,120
1,62,100,120
1,65,100,0
1,69,100,0
1,62,0,360
1,65,0,0
1,69,0,0
1,62,100,0
1,62,0,120
1,65,100,0
1,65,0,120
1,69,100,0
1,69,0,60
1,72,100,0
1,72,0,60
1,69,100,0
1,69,0,120
1,53,100,120
1,67,100,0
1,53,0,240
1,67,0,0
1,52,100,0
1,67,100,0
1,52,0,240
1,67,0,0
1,48,100,0
1,67,100,0
1,48,0,480
1,67,0,0
1,53,100,0
1,67,100,0
1,53,0,240
1,67,0,0
1,55,100,0
1,67,100,0
1,55,0,240
1,67,0,0
1,48,100,0
1,67,100,0
1,48,0,120
1,67,0,0
1,52,100,0
1,67,100,0
1,52,0,120
1,67,0,0
1,53,100,0
1,67,100,0
1,53,0,120
1,67,0,0
1,55,100,0
1,55,0,120
1,50,100,0
1,57,100,0
1,57,0,240
1,59,100,0
1,50,0,120
1,59,0,0
1,59,100,0
1,59,0,120
1,57,100,0
1,57,0,60
1,59,100,0
1,59,0,60
1,55,100,0
1,55,0,60
1,57,100,0
1,57,0,60
1,52,100,0
1,52,0,60
1,55,100,0
1,55,0,60
1,50,100,0
1,50,0,120
1,51,100,0
1,57,100,0
1,51,0,240
1,57,0,0
1,59,100,0
1,59,0,120
1,59,100,0
1,59,0,120
1,57,100,0
1,57,0,60
1,59,100,0
1,59,0,60
1,55,100,0
1,55,0,60
1,57,100,0
1,57,0,60
