track,note,velocity,time
1,40,53,1634
1,40,57,28
1,40,63,32
1,40,49,146
1,40,55,26
1,40,62,28
1,40,49,144
1,40,55,32
1,40,59,32
1,40,48,156
1,40,54,34
1,40,58,32
1,40,45,148
1,40,52,34
1,40,62,48
1,40,49,154
1,40,56,42
1,40,53,1020
1,40,57,64
1,40,63,64
1,40,49,146
1,40,55,60
1,40,62,64
1,40,49,144
1,40,55,60
1,40,59,64
1,40,48,156
1,40,54,60
1,40,58,60
1,40,45,148
1,40,52,66
1,40,62,70
1,40,49,154
1,40,56,60
1,40,45,1014
1,40,52,66
1,40,62,70
1,40,49,154
1,40,56,60
1,40,45,1014
1,40,52,66
1,40,62,70
1,40,49,154
1,40,56,60
1,40,45,1014
1,40,52,66
1,40,62,70
1,40,49,154
1,40,56,60
1,40,45,1014
1,40,52,66
1,40,62,70
1,40,49,154
1,40,56,60
1,40,45,1014
1,40,52,66
1,40,62,70
1,40,49,154
1,40,56,60
1,40,45,1014
1,40,52,66
1,40,62,70
1,40,49,154
1,40,56,60
1,40,45,1014
1,40,52,66
1,40,62,70
1,40,49,154
1,40,56,60
1,40,45,1014
1,40,52,66
1,40,62,70
1,40,49,154
1,40,56,60
1,40,45,1014
1,40,52,66
1,40,62,70
1,40,49,154
1,40,56,60
1,40,45,1014
1,40,52,66
1,40,62,70
1,40,49,154
1,40,56,60
1,40,45,1014
1,40,52,66
1,40,62,70
1,40,49,154
1,40,56,60
1,40,45,1014
1,40,52,66
1,40,62,70
1,40,49,154
1,40,56,60
1,40,45,1014
1,40,52,66
1,40,62,70
1,40,49,154
1,40,56,60
1,40,45,1014
1,40,52,66
1,40,62,70
1,40,49,154
1,40,56,60
1,40,45,1014
1,40,52,66
1,40,62,70
1,40,49,154
1,40,56,60
1,40,45,1014
1,40,52,66
1,40,62,70
1,40,49,154
1,40,56,60
1,40,45,1014
1,40,52,66
1,40,62,70
1,40,49,154
1,40,56,60
1,40,45,1014
1,40,52,66
1,40,62,70
1,40,49,154
1,40,56,60
1,40,45,1014
1,40,52,66
1,40,62,70
1,40,49,154
1,40,56,60
1,40,45,1014
1,40,52,66
1,40,62,70
1,40,49,154
1,40,56,60
1,40,45,1014
1,40,52,66
1,40,62,70
1,40,49,154
1,40,56,60
1,40,45,1014
1,40,52,66
1,40,62,70
1,40,49,154
1,40,56,60
1,40,45,1014
1,40,52,66
1,40,62,70
1,40,49,154
1,40,56,60
1,40,45,1014
1,40,52,66
1,40,62,70
1,40,49,154
1,40,56,60
1,40,45,1014
1,40,52,66
1,40,62,70
1,40,49,154
1,40,56,60
1,40,45,30198
1,40,52,66
1,40,62,70
1,40,49,154
1,40,56,60
1,40,45,1014
1,40,52,66
1,40,62,70
1,40,49,154
1,40,56,60
1,40,45,1014
1,40,52,66
1,40,62,70
1,40,49,154
1,40,56,60
1,40,45,1014
1,40,52,66
1,40,62,70
1,40,49,154
1,40,56,60
1,40,45,1014
1,40,52,66
1,40,62,70
1,40,49,154
1,40,56,60
1,40,45,1014
1,40,52,66
1,40,62,70
1,40,49,154
1,40,56,60
1,40,45,1014
1,40,52,66
1,40,62,70
1,40,49,154
1,40,56,60
1,40,45,1014
1,40,52,66
1,40,62,70
1,40,49,154
1,40,56,60
1,40,45,1014
1,40,52,66
1,40,62,70
1,40,49,154
1,40,56,60
1,40,45,1014
1,40,52,66
1,40,62,70
1,40,49,154
1,40,56,60
1,40,45,1014
1,40,52,66
1,40,62,70
1,40,49,154
1,40,56,60
1,40,45,1014
1,40,52,66
1,40,62,70
1,40,49,154
1,40,56,60
1,40,45,1014
1,40,52,66
1,40,62,70
1,40,49,154
1,40,56,60
1,40,45,1014
1,40,52,66
1,40,62,70
1,40,49,154
1,40,56,60
1,40,45,19446
1,40,52,66
1,40,62,70
1,40,49,154
1,40,56,60
1,40,45,1014
1,40,52,66
1,40,62,70
1,40,49,154
1,40,56,60
1,40,45,1014
1,40,52,66
1,40,62,70
1,40,49,154
1,40,56,60
1,40,45,1014
1,40,52,66
1,40,62,70
1,40,49,154
1,40,56,60
1,40,45,1014
1,40,52,66
1,40,62,70
1,40,49,154
1,40,56,60
1,40,45,1014
1,40,52,66
1,40,62,70
1,40,49,154
1,40,56,60
1,40,45,1014
1,40,52,66
1,40,62,70
1,40,49,154
1,40,56,60
1,40,45,1014
1,40,52,66
1,40,62,70
1,40,49,154
1,40,56,60
1,40,45,1014
1,40,52,66
1,40,62,70
1,40,49,154
1,40,56,60
1,40,45,1014
1,40,52,66
1,40,62,70
1,40,49,154
1,40,56,60
2,35,92,16
2,38,75,34
2,35,83,148
2,38,109,84
2,28,101,36
2,28,72,126
2,28,93,60
2,28,73,80
2,28,87,50
2,28,67,66
2,28,87,64
2,28,81,66
2,28,92,60
2,28,72,68
2,28,99,58
2,28,92,74
2,28,97,48
2,35,75,16
2,38,103,6
2,35,87,162
2,38,113,90
2,28,115,22
2,28,86,106
2,28,103,76
2,28,99,124
2,28,89,42
2,35,76,22
2,38,101,32
2,35,78,192
2,38,109,90
2,28,113,16
2,28,89,112
2,28,97,60
2,28,82,96
2,28,92,60
2,35,75,102
2,38,101,12
2,35,82,0
2,38,109,90
2,28,107,28
2,28,99,126
2,28,90,62
2,28,87,96
2,28,105,72
2,35,82,14
2,38,93,16
2,35,89,0
2,38,105,86
2,28,103,18
2,28,90,118
2,28,105,66
2,28,93,104
2,28,101,70
2,35,85,22
2,38,101,28
2,35,75,170
2,38,107,98
2,28,105,22
2,28,92,134
2,28,103,66
2,28,97,114
2,28,97,56
2,35,77,22
2,38,92,28
2,35,77,0
2,38,109,86
2,28,109,16
2,28,92,134
2,28,101,66
2,28,95,124
2,28,97,66
2,35,78,6
2,38,97,16
2,35,71,0
2,38,105,92
2,28,105,32
2,28,97,128
2,28,103,74
2,28,101,136
2,28,103,60
2,35,74,16
2,38,99,30
2,35,81,0
2,38,107,82
2,28,111,32
2,28,99,132
2,28,107,74
2,28,109,142
2,28,83,44
2,35,76,22
2,38,89,20
2,35,85,0
2,38,111,102
2,28,111,38
2,28,99,132
2,28,107,74
2,28,109,142
2,28,83,44
2,35,76,22
2,38,89,20
2,35,85,0
2,38,111,102
2,28,111,38
2,28,99,132
2,28,107,74
2,28,109,142
2,28,83,44
2,35,76,22
2,38,89,20
2,35,85,0
2,38,111,102
2,28,111,38
2,28,99,132
2,28,107,74
2,28,109,142
2,28,83,44
2,35,76,22
2,38,89,20
2,35,85,0
2,38,111,102
2,28,111,38
2,28,99,132
2,28,107,74
2,28,109,142
2,28,83,44
2,35,76,22
2,38,89,20
2,35,85,0
2,38,111,102
2,28,111,38
2,28,99,132
2,28,107,74
2,28,109,142
2,28,83,44
2,35,76,22
2,38,89,20
2,35,85,0
2,38,111,102
2,28,111,38
2,28,99,132
2,28,107,74
2,28,109,142
2,28,83,44
2,35,76,22
2,38,89,20
2,35,85,0
2,38,111,102
2,28,111,38
2,28,99,132
2,28,107,74
2,28,109,142
2,28,83,44
2,35,76,22
2,38,89,20
2,35,85,0
2,38,111,102
2,28,111,38
2,28,99,132
2,28,107,74
2,28,109,142
2,28,83,44
2,35,76,22
2,38,89,20
2,35,85,0
2,38,111,102
2,28,111,38
2,28,99,132
2,28,107,74
2,28,109,142
2,28,83,44
2,35,76,22
2,38,89,20
2,35,85,0
2,38,111,102
2,28,111,38
2,28,99,132
2,28,107,74
2,28,109,142
2,28,83,44
2,35,76,22
2,38,89,20
2,35,85,0
2,38,111,102
2,28,111,38
2,28,99,132
2,28,107,74
2,28,109,142
2,28,83,44
2,35,76,22
2,38,89,20
2,35,85,0
2,38,111,102
2,28,111,38
2,28,99,132
2,28,107,74
2,28,109,142
2,28,83,44
2,35,76,22
2,38,89,20
2,35,85,0
2,38,111,102
2,28,111,38
2,28,99,132
2,28,107,74
2,28,109,142
2,28,83,44
2,35,76,22
2,38,89,20
2,35,85,0
2,38,111,102
2,28,111,38
2,28,99,132
2,28,107,74
2,28,109,142
2,28,83,44
2,35,76,22
2,38,89,20
2,35,85,0
2,38,111,102
2,28,111,38
2,28,99,132
2,28,107,74
2,28,109,142
2,28,83,44
2,35,76,22
2,38,89,20
2,35,85,0
2,38,111,102
2,28,111,38
2,28,99,132
2,28,107,74
2,28,109,142
2,28,83,44
2,35,76,22
2,38,89,20
2,35,85,0
2,38,111,102
2,28,111,38
2,28,99,132
2,28,107,74
2,28,109,142
2,28,83,44
2,35,76,22
2,38,89,20
2,35,85,0
2,38,111,102
2,28,115,20
2,28,121,19678
2,28,126,150
2,28,125,1152
2,28,127,128
2,28,125,1114
2,28,125,122
2,28,125,1108
2,28,125,126
2,28,125,1092
2,28,125,130
2,28,125,1090
2,28,125,134
2,35,92,16
2,38,75,34
2,35,83,148
2,38,109,84
2,28,115,54
2,28,86,106
2,28,103,76
2,28,99,124
2,28,89,42
2,35,76,22
2,38,101,32
2,35,78,192
2,38,109,90
2,28,115,16
2,28,86,106
2,28,103,76
2,28,99,124
2,28,89,42
2,35,76,22
2,38,101,32
2,35,78,192
2,38,109,90
2,28,115,16
2,28,86,106
2,28,103,76
2,28,99,124
2,28,89,42
2,35,76,22
2,38,101,32
2,35,78,192
2,38,109,90
2,28,115,16
2,28,86,106
2,28,103,76
2,28,99,124
2,28,89,42
2,35,76,22
2,38,101,32
2,35,78,192
2,38,109,90
2,28,115,16
2,28,86,106
2,28,103,76
2,28,99,124
2,28,89,42
2,35,76,22
2,38,101,32
2,35,78,192
2,38,109,90
2,28,115,16
2,28,86,106
2,28,103,76
2,28,99,124
2,28,89,42
2,35,76,22
2,38,101,32
2,35,78,192
2,38,109,90
2,28,115,16
2,28,86,106
2,28,103,76
2,28,99,124
2,28,89,42
2,35,76,22
2,38,101,32
2,35,78,192
2,38,109,90
2,28,115,16
2,28,86,106
2,28,103,76
2,28,99,124
2,28,89,42
2,35,76,22
2,38,101,32
2,35,78,192
2,38,109,90
2,28,115,16
2,28,86,106
2,28,103,76
2,28,99,124
2,28,89,42
2,35,76,22
2,38,101,32
2,35,78,192
2,38,109,90
2,28,115,16
2,28,86,106
2,28,103,76
2,28,99,124
2,28,89,42
2,35,76,22
2,38,101,32
2,35,78,192
2,38,109,90
2,28,111,10
2,28,99,132
2,28,107,74
2,28,109,142
2,28,83,44
2,35,76,22
2,38,89,20
2,35,85,0
2,38,111,102
2,28,111,38
2,28,99,132
2,28,107,74
2,28,109,142
2,28,83,44
2,35,76,22
2,38,89,20
2,35,85,0
2,38,111,102
2,28,111,38
2,28,99,132
2,28,107,74
2,28,109,142
2,28,83,44
2,35,76,22
2,38,89,20
2,35,85,0
2,38,111,102
2,28,111,38
2,28,99,132
2,28,107,74
2,28,109,142
2,28,83,44
2,35,76,22
2,38,89,20
2,35,85,0
2,38,111,102
2,28,115,20
2,28,127,11240
2,33,125,268
2,35,92,16
2,38,75,34
2,35,83,148
2,38,109,84
2,28,115,54
2,28,86,106
2,28,103,76
2,28,99,124
2,28,89,42
2,35,76,22
2,38,101,32
2,35,78,192
2,38,109,90
2,28,115,16
2,28,86,106
2,28,103,76
2,28,99,124
2,28,89,42
2,35,76,22
2,38,101,32
2,35,78,192
2,38,109,90
2,28,115,16
2,28,86,106
2,28,103,76
2,28,99,124
2,28,89,42
2,35,76,22
2,38,101,32
2,35,78,192
2,38,109,90
2,28,115,16
2,28,86,106
2,28,103,76
2,28,99,124
2,28,89,42
2,35,76,22
2,38,101,32
2,35,78,192
2,38,109,90
2,28,115,16
2,28,86,106
2,28,103,76
2,28,99,124
2,28,89,42
2,35,76,22
2,38,101,32
2,35,78,192
2,38,109,90
2,28,115,16
2,28,86,106
2,28,103,76
2,28,99,124
2,28,89,42
2,35,76,22
2,38,101,32
2,35,78,192
2,38,109,90
2,28,115,16
2,28,86,106
2,28,103,76
2,28,99,124
2,28,89,42
2,35,76,22
2,38,101,32
2,35,78,192
2,38,109,90
2,28,115,16
2,28,86,106
2,28,103,76
2,28,99,124
2,28,89,42
2,35,76,22
2,38,101,32
2,35,78,192
2,38,109,90
2,28,115,16
2,28,86,106
2,28,103,76
2,28,99,124
2,28,89,42
2,35,76,22
2,38,101,32
2,35,78,192
2,38,109,90
2,28,115,16
2,28,86,106
2,28,103,76
2,28,99,124
2,28,89,42
2,35,76,22
2,38,101,32
2,35,78,192
2,38,109,90
2,28,117,10
3,47,119,14
3,50,109,58
3,47,105,0
3,50,115,106
3,47,99,26
3,52,99,0
3,40,101,0
3,40,59,96
3,40,58,26
3,40,69,32
3,47,99,10
3,52,103,0
3,40,95,4
3,40,53,92
3,40,56,4
3,40,63,26
3,47,93,32
3,52,99,0
3,40,99,0
3,40,48,92
3,40,58,8
3,40,65,30
3,52,105,26
3,47,93,4
3,40,97,0
3,40,50,90
3,40,60,12
3,40,68,38
3,52,93,26
3,47,93,4
3,40,92,0
3,40,47,92
3,40,55,8
3,40,64,26
3,52,103,6
3,47,90,4
3,40,93,2
3,40,54,96
3,40,70,0
3,47,92,26
3,52,94,0
3,40,90,0
3,52,114,12
3,47,109,4
3,40,109,2
3,47,111,14
3,50,101,32
3,47,81,160
3,50,117,90
3,47,99,20
3,52,99,0
3,40,101,0
3,40,59,96
3,40,58,26
3,40,69,32
3,47,99,10
3,52,103,0
3,40,95,4
3,40,53,92
3,40,56,4
3,40,63,26
3,47,93,32
3,52,99,0
3,40,99,0
3,40,48,92
3,40,58,8
3,40,65,30
3,52,105,26
3,47,93,4
3,40,97,0
3,40,50,90
3,40,60,12
3,40,68,38
3,52,93,26
3,47,93,4
3,40,92,0
3,40,47,92
3,40,55,8
3,40,64,26
3,52,103,6
3,47,90,4
3,40,93,2
3,40,54,96
3,40,70,0
3,47,92,26
3,52,94,0
3,40,90,0
3,52,114,12
3,47,109,4
3,40,109,2
3,47,111,14
3,50,101,32
3,47,81,160
3,50,117,90
3,52,93,16
3,47,93,4
3,40,92,0
3,40,47,92
3,40,55,8
3,40,64,26
3,52,103,6
3,47,90,4
3,40,93,2
3,40,54,96
3,40,70,0
3,40,90,26
3,52,114,12
3,47,109,4
3,40,109,2
3,47,111,14
3,50,101,32
3,47,81,160
3,50,117,90
3,52,93,16
3,47,93,4
3,40,92,0
3,40,47,92
3,40,55,8
3,40,64,26
3,52,103,6
3,47,90,4
3,40,93,2
3,40,54,96
3,40,70,0
3,40,90,26
3,52,114,12
3,47,109,4
3,40,109,2
3,47,111,14
3,50,101,32
3,47,81,160
3,50,117,90
3,52,93,16
3,47,93,4
3,40,92,0
3,40,47,92
3,40,55,8
3,40,64,26
3,52,103,6
3,47,90,4
3,40,93,2
3,40,54,96
3,40,70,0
3,40,90,26
3,52,114,12
3,47,109,4
3,40,109,2
3,47,111,14
3,50,101,32
3,47,81,160
3,50,117,90
3,52,93,16
3,47,93,4
3,40,92,0
3,40,47,92
3,40,55,8
3,40,64,26
3,52,103,6
3,47,90,4
3,40,93,2
3,40,54,96
3,40,70,0
3,40,90,26
3,52,114,12
3,47,109,4
3,40,109,2
3,47,111,14
3,50,101,32
3,47,81,160
3,50,117,90
3,52,93,16
3,47,93,4
3,40,92,0
3,40,47,92
3,40,55,8
3,40,64,26
3,52,103,6
3,47,90,4
3,40,93,2
3,40,54,96
3,40,70,0
3,40,90,26
3,52,114,12
3,47,109,4
3,40,109,2
3,47,111,14
3,50,101,32
3,47,81,160
3,50,117,90
3,52,93,16
3,47,93,4
3,40,92,0
3,40,47,92
3,40,55,8
3,40,64,26
3,52,103,6
3,47,90,4
3,40,93,2
3,40,54,96
3,40,70,0
3,40,90,26
3,52,114,12
3,47,109,4
3,40,109,2
3,47,111,14
3,50,101,32
3,47,81,160
3,50,117,90
3,52,93,16
3,47,93,4
3,40,92,0
3,40,47,92
3,40,55,8
3,40,64,26
3,52,103,6
3,47,90,4
3,40,93,2
3,40,54,96
3,40,70,0
3,40,90,26
3,52,114,12
3,47,109,4
3,40,109,2
3,47,111,14
3,50,101,32
3,47,81,160
3,50,117,90
3,52,93,16
3,47,93,4
3,40,92,0
3,40,47,92
3,40,55,8
3,40,64,26
3,52,103,6
