track,note,velocity,time
1,72,110,9216
1,72,0,160
1,72,110,32
1,72,0,94
1,76,110,2
1,76,0,256
1,76,110,32
1,76,0,94
1,72,110,2
1,72,0,432
1,72,110,336
1,72,0,94
1,76,110,2
1,76,0,160
1,76,110,32
1,76,0,94
1,79,110,2
1,79,0,190
1,72,110,2
1,72,0,160
1,72,110,32
1,72,0,96
1,70,110,0
1,70,0,336
1,72,110,336
1,72,0,94
1,76,110,2
1,76,0,160
1,76,110,32
1,76,0,94
1,76,110,2
1,76,0,190
1,76,110,2
1,76,0,160
1,72,110,32
1,70,110,96
1,72,0,0
1,70,0,336
1,72,110,336
1,72,0,94
1,76,110,2
1,76,0,94
1,76,110,2
1,76,0,160
1,79,110,32
1,79,0,256
1,72,110,32
1,72,0,94
1,70,110,2
1,70,0,94
1,70,110,2
1,70,0,336
1,72,110,240
1,72,0,160
1,79,110,32
1,75,110,0
1,75,0,256
1,79,0,0
1,75,110,32
1,79,110,0
1,79,0,256
1,75,0,0
1,77,110,224
1,72,110,0
1,72,0,94
1,77,0,0
1,77,110,2
1,72,110,0
1,77,0,160
1,72,0,0
1,75,110,32
1,70,110,0
1,70,0,256
1,75,0,0
1,75,110,224
1,79,110,0
1,79,0,94
1,75,0,0
1,75,110,2
1,79,110,0
1,75,0,160
1,79,0,0
1,79,110,32
1,75,110,0
1,79,0,190
1,75,0,0
1,72,110,2
1,75,110,0
1,72,0,160
1,75,0,0
1,70,110,128
1,77,110,0
1,70,0,160
1,77,0,0
1,77,110,32
1,72,110,0
1,72,0,94
1,77,0,0
1,75,110,2
1,72,110,0
1,72,0,256
1,75,0,0
1,69,110,224
1,69,0,94
1,69,110,2
1,69,0,160
1,69,110,32
1,69,0,256
1,69,110,32
1,69,0,160
1,68,110,32
1,68,0,94
1,76,110,2
1,76,0,160
1,76,110,32
1,76,0,256
1,68,110,32
1,68,0,94
1,67,110,2
1,67,0,96
1,67,110,0
1,67,0,336
1,68,110,912
1,68,0,94
1,68,110,2
1,68,0,94
1,69,110,2
1,69,0,190
1,69,110,2
1,69,0,160
1,69,110,32
1,69,0,190
1,69,110,2
1,69,0,256
1,68,110,32
1,68,0,160
1,68,110,32
1,68,0,160
1,68,110,32
1,68,0,160
1,68,110,32
1,68,0,94
1,67,110,2
1,67,0,96
1,67,110,0
1,67,0,160
1,72,110,4352
1,72,0,94
1,76,110,2
1,76,0,160
1,76,110,32
1,76,0,94
1,76,110,2
1,76,0,190
1,76,110,2
1,76,0,160
1,72,110,32
1,70,110,96
1,72,0,0
1,70,0,336
1,76,110,432
1,76,0,94
1,76,110,2
1,76,0,160
1,76,110,32
1,76,0,256
1,76,110,32
1,76,0,160
1,72,110,32
1,72,0,336
1,75,110,432
1,75,0,94
1,75,110,2
1,75,0,160
1,75,110,32
1,75,0,94
1,75,110,2
1,75,0,160
1,75,110,32
1,75,0,160
1,72,110,32
1,72,0,96
1,70,110,0
1,70,0,256
1,76,110,416
1,76,0,94
1,76,110,2
1,76,0,94
1,76,110,2
1,76,0,94
1,79,110,2
1,79,0,256
1,72,110,32
1,72,0,160
1,72,110,32
1,72,0,336
1,75,110,432
1,79,110,0
1,75,0,256
1,79,0,0
1,75,110,32
1,79,110,0
1,79,0,256
1,75,0,0
1,70,110,224
1,77,110,0
1,70,0,160
1,77,0,0
1,70,110,32
1,77,110,0
1,77,0,94
1,70,0,0
1,72,110,2
1,75,110,0
1,72,0,256
1,75,0,0
1,72,110,32
1,75,110,0
1,75,0,160
1,72,0,0
1,79,110,32
1,75,110,0
1,79,0,94
1,75,0,0
1,75,110,2
1,79,110,0
1,79,0,160
1,75,0,0
1,79,110,32
1,75,110,0
1,75,0,190
1,79,0,0
1,77,110,2
1,74,110,0
1,77,0,94
1,74,0,0
1,75,110,2
1,75,0,160
1,75,110,32
1,75,0,160
1,72,110,32
1,77,110,0
1,77,0,160
1,72,0,0
1,75,110,32
1,72,110,0
1,72,0,336
1,75,0,0
1,69,110,3120
1,69,0,94
1,69,110,2
1,69,0,160
1,76,110,32
1,76,0,256
1,69,110,32
1,69,0,160
1,68,110,32
1,68,0,94
1,76,110,2
1,76,0,160
1,76,110,32
1,76,0,256
1,68,110,32
1,68,0,94
1,67,110,2
1,67,0,94
1,67,110,2
1,67,0,160
1,69,110,1280
1,69,0,190
1,69,110,2
1,69,0,160
1,69,110,32
1,69,0,256
1,69,110,32
1,69,0,160
1,68,110,32
1,68,0,94
1,68,110,2
1,68,0,160
1,68,110,32
1,68,0,256
1,68,110,32
1,68,0,160
1,67,110,32
1,67,0,160
1,72,110,4352
1,72,0,94
1,76,110,2
1,76,0,160
1,76,110,32
1,76,0,94
1,76,110,2
1,76,0,190
1,76,110,2
1,76,0,160
1,72,110,32
1,70,110,96
1,72,0,0
1,70,0,336
1,72,110,144
1,72,0,94
1,72,110,2
1,72,0,94
1,72,110,2
1,72,0,94
1,76,110,2
1,76,0,94
1,76,110,2
1,76,0,160
1,76,110,32
1,76,0,256
1,76,110,32
1,76,0,160
1,72,110,32
1,72,0,336
1,72,110,240
1,72,0,160
1,75,110,32
1,75,0,94
1,75,110,2
1,75,0,160
1,75,110,32
1,75,0,94
1,75,110,2
1,75,0,160
1,75,110,32
1,75,0,160
1,72,110,32
1,70,110,96
1,72,0,0
1,70,0,256
1,72,110,128
1,72,0,94
1,72,110,2
1,72,0,94
1,72,110,2
1,72,0,94
1,76,110,2
1,76,0,94
1,76,110,2
1,76,0,94
1,76,110,2
1,76,0,94
1,79,110,2
1,79,0,256
1,72,110,32
1,72,0,160
1,75,110,800
1,79,110,0
1,79,0,256
1,75,0,0
1,75,110,32
1,79,110,0
1,75,0,256
1,79,0,0
1,77,110,224
1,70,110,0
1,70,0,160
1,77,0,0
1,70,110,32
1,77,110,0
1,70,0,94
1,77,0,0
1,75,110,2
1,72,110,0
1,75,0,256
1,72,0,0
1,79,110,224
1,75,110,0
1,79,0,94
1,75,0,0
1,79,110,2
1,75,110,0
1,79,0,160
1,75,0,0
1,75,110,32
1,79,110,0
1,75,0,190
1,79,0,0
1,74,110,2
1,77,110,0
1,74,0,94
1,77,0,0
1,75,110,2
1,75,0,160
1,75,110,32
1,75,0,94
1,75,110,2
1,75,0,94
1,77,110,2
1,72,110,0
1,77,0,160
1,72,0,0
1,69,110,3488
1,69,0,94
1,69,110,2
1,69,0,160
1,76,110,32
1,76,0,256
1,69,110,32
1,69,0,160
1,68,110,32
1,68,0,94
1,76,110,2
1,76,0,160
1,76,110,32
1,76,0,256
1,68,110,32
1,68,0,94
1,67,110,2
1,67,0,94
1,67,110,2
1,67,0,160
1,69,110,1280
1,69,0,190
1,69,110,2
1,69,0,160
1,69,110,32
1,69,0,256
1,69,110,32
1,69,0,160
1,68,110,32
1,68,0,94
1,68,110,2
1,68,0,160
1,68,110,32
1,68,0,256
1,68,110,32
1,68,0,160
1,67,110,32
1,67,0,160
1,75,110,4448
1,75,0,94
1,76,110,2
1,76,0,160
1,75,110,32
1,75,0,190
1,76,110,2
1,76,0,160
1,72,110,32
1,72,0,432
1,76,110,240
1,76,0,160
1,76,110,32
1,76,0,160
1,76,110,32
1,76,0,94
1,79,110,2
1,79,0,190
1,72,110,2
1,72,0,160
1,72,110,32
1,70,110,96
1,72,0,0
1,70,0,336
1,76,110,336
1,76,0,94
1,75,110,2
1,75,0,160
1,76,110,32
1,76,0,94
1,76,110,2
1,76,0,94
1,75,110,2
1,75,0,94
1,75,110,2
1,75,0,94
1,75,110,2
1,75,0,94
1,72,110,2
1,70,110,96
1,72,0,0
1,70,0,336
1,76,110,432
1,76,0,94
1,76,110,2
1,76,0,94
1,76,110,2
1,76,0,94
1,79,110,2
1,79,0,190
1,72,110,2
1,72,0,160
1,72,110,32
1,72,0,432
1,76,110,432
1,79,110,0
1,79,0,256
1,76,0,0
1,79,110,32
1,72,110,0
1,79,0,256
1,72,0,0
1,77,110,224
1,70,110,0
1,77,0,94
1,70,0,0
1,72,110,2
1,77,110,0
1,77,0,160
1,72,0,0
1,75,110,32
1,72,110,0
1,75,0,256
1,72,0,0
1,75,110,32
1,72,110,0
1,75,0,160
1,72,0,0
1,75,110,32
1,79,110,0
1,79,0,94
1,75,0,0
1,75,110,2
1,79,110,0
1,75,0,160
1,79,0,0
1,75,110,32
1,79,110,0
1,75,0,352
1,79,0,0
1,75,110,32
1,72,110,0
1,72,0,94
1,75,0,0
1,77,110,2
1,70,110,0
1,77,0,94
1,70,0,0
1,77,110,2
1,72,110,0
1,77,0,160
1,72,0,0
1,76,110,32
1,72,110,0
1,72,0,256
1,76,0,0
1,69,110,3296
1,69,0,94
1,69,110,2
1,69,0,160
1,69,110,32
1,69,0,256
1,69,110,32
1,69,0,160
1,68,110,32
1,68,0,160
1,68,110,32
1,68,0,160
1,68,110,32
1,68,0,160
1,68,110,32
1,68,0,94
1,67,110,2
1,67,110,96
1,67,0,0
1,67,0,336
1,68,110,1104
1,68,0,94
1,69,110,2
1,69,0,94
1,69,110,2
1,69,0,160
1,69,110,32
1,69,0,256
1,69,110,32
1,69,0,160
1,68,110,32
1,68,0,94
1,68,110,2
1,68,0,160
1,68,110,32
1,68,0,190
1,68,110,2
1,68,0,160
1,67,110,32
1,67,0,84
1,67,110,12
1,67,0,336
1,81,110,1200
1,81,0,94
1,81,110,2
1,81,0,160
1,81,110,32
1,81,0,94
1,81,110,2
1,81,0,160
1,72,110,32
1,72,0,160
1,81,110,32
1,81,0,160
1,72,110,32
1,72,0,94
1,76,110,2
1,76,0,190
1,76,110,2
1,76,0,160
1,72,110,32
1,72,0,256
1,72,110,1280
1,72,0,94
1,79,110,2
1,79,0,94
1,79,110,2
1,79,0,160
1,79,110,32
1,79,0,352
1,72,110,32
1,72,0,94
1,72,110,2
1,72,0,94
1,72,110,2
1,72,0,160
1,76,110,32
1,76,0,190
1,76,110,2
1,76,0,160
1,72,110,32
1,72,0,256
1,67,110,7328
1,67,0,94
1,70,110,2
1,70,0,94
1,70,110,2
1,70,0,94
1,70,110,2
1,70,0,160
1,70,110,32
1,70,0,190
1,70,110,2
1,70,0,160
1,69,110,32
1,69,0,190
1,69,110,2
1,69,0,160
1,66,110,32
1,66,0,190
1,69,110,2
1,69,0,160
1,67,110,32
1,67,0,94
1,67,110,2
1,67,0,160
1,69,110,1184
1,69,0,160
1,70,110,32
1,70,0,94
1,70,110,2
1,70,0,160
1,70,110,32
1,70,0,256
1,70,110,32
1,70,0,160
1,68,110,32
1,68,0,94
1,68,110,2
1,68,0,160
1,70,110,32
1,70,0,256
1,68,110,32
1,68,0,94
1,67,110,2
1,67,0,94
1,67,110,2
1,67,0,160
1,69,110,1184
1,69,0,94
1,72,110,2
1,72,0,190
1,72,110,2
1,72,0,160
1,72,110,32
1,72,0,190
1,72,110,2
1,72,0,160
1,76,110,32
1,76,0,190
1,76,110,2
1,76,0,160
1,75,110,32
1,75,0,256
1,72,110,32
1,72,0,94
1,72,110,2
1,72,0,256
1,76,110,992
1,76,0,160
1,67,110,32
1,67,0,160
1,76,110,992
1,76,0,94
1,76,110,2
1,76,0,94
1,72,110,2
1,72,0,160
1,76,110,32
1,76,0,160
1,76,110,992
1,76,0,94
1,76,110,2
1,76,0,94
1,72,110,2
1,72,0,160
1,76,110,32
1,76,0,160
1,72,110,992
1,72,0,94
1,72,110,2
1,72,0,94
1,76,110,2
1,76,0,160
1,72,110,32
1,72,0,160
2,66,110,80640
2,66,0,22
2,66,110,2
2,66,0,22
2,66,110,2
2,66,0,22
2,66,110,2
2,66,0,22
2,66,110,2
2,66,0,22
2,66,110,2
2,66,0,22
2,66,110,2
2,66,0,22
2,66,110,2
2,66,0,22
2,69,110,2
2,69,0,22
2,69,110,2
2,69,0,22
2,69,110,2
2,69,0,22
2,69,110,2
2,69,0,22
2,69,110,2
2,69,0,22
2,69,110,2
2,69,0,22
2,69,110,2
2,69,0,22
2,69,110,2
2,69,0,22
2,79,110,1154
2,79,0,160
2,72,110,2336
2,75,110,0
2,75,0,160
2,72,0,0
2,72,110,128
2,75,110,0
2,72,0,190
2,75,0,0
2,75,110,98
2,72,110,0
2,72,0,160
2,75,0,0
2,72,110,1280
2,72,0,1200
2,76,110,2928
2,67,110,0
2,72,110,0
2,67,0,94
2,72,0,0
2,76,0,0
2,67,110,2
2,76,110,0
2,72,110,0
2,76,0,94
2,67,0,0
2,72,0,0
2,72,110,98
2,67,110,0
2,76,110,0
2,76,0,94
2,72,0,0
2,67,0,0
2,76,110,194
2,72,110,0
2,67,110,0
2,72,0,94
2,76,0,0
2,67,0,0
2,72,110,98
2,76,110,0
2,67,110,0
2,72,0,94
2,76,0,0
2,67,0,0
2,76,110,2
2,72,110,0
2,67,110,0
2,72,0,94
2,67,0,0
2,76,0,0
2,79,110,3074
2,79,0,720
2,77,110,48
2,77,0,336
2,79,110,48
2,79,0,528
2,75,110,48
2,75,0,94
2,76,110,2
2,76,0,94
2,75,110,2
2,75,0,94
2,76,110,2
2,76,0,94
2,72,110,2
2,72,0,528
2,72,110,48
2,72,0,256
2,72,110,32
2,72,0,256
2,72,110,32
2,72,0,160
2,79,110,224
2,79,0,286
2,78,110,2
2,78,0,94
2,79,110,2
2,79,0,160
2,78,110,32
2,78,0,94
2,79,110,2
2,79,0,160
2,78,110,32
2,78,0,94
2,79,110,2
2,79,0,160
2,78,110,32
2,78,0,94
2,79,110,2
2,79,0,94
2,78,110,2
2,78,0,94
2,79,110,2
2,79,0,94
2,77,110,2
2,77,0,46
2,75,110,2
2,75,0,46
2,72,110,2
2,72,0,94
2,72,110,2
2,72,0,160
2,72,110,32
2,72,0,160
2,72,110,32
2,72,0,256
2,72,110,32
2,72,0,256
2,75,110,416
2,75,0,94
2,76,110,2
2,76,0,94
2,75,110,98
2,75,0,94
2,76,110,2
2,76,0,94
2,75,110,98
2,75,0,94
2,76,110,2
2,76,0,94
2,75,110,98
2,75,0,94
2,76,110,2
2,76,0,94
2,76,110,2
2,76,0,94
2,75,110,2
2,75,0,94
2,76,110,2
2,76,0,94
2,72,110,2
2,72,0,862
2,70,110,2
2,70,0,256
2,75,110,608
2,75,0,94
2,76,110,2
2,76,0,432
2,76,110,48
2,76,0,720
2,76,110,48
2,76,0,720
2,72,110,1584
2,72,0,160
2,73,110,32
2,73,0,46
2,71,110,2
2,71,0,46
2,72,110,2
2,72,0,1584
2,72,110,432
2,67,110,0
2,72,0,94
2,67,0,0
2,67,110,2
2,72,110,0
2,72,0,94
2,67,0,0
2,72,110,2
2,67,110,0
2,67,0,94
2,72,0,0
2,67,110,2
2,72,110,0
2,67,0,94
2,72,0,0
2,67,110,98
2,72,110,0
2,67,0,94
2,72,0,0
2,72,110,98
2,67,110,0
2,72,0,94
2,67,0,0
2,67,110,2
2,72,110,0
2,72,0,94
2,67,0,0
2,72,110,2
2,67,110,0
2,72,0,94
2,67,0,0
2,69,110,2
2,65,110,0
2,65,0,160
2,69,0,0
2,64,110,32
2,67,110,0
2,64,0,160
2,67,0,0
2,65,110,32
2,69,110,0
2,65,0,160
2,69,0,0
2,72,110,32
2,67,110,0
2,67,0,94
2,72,0,0
2,67,110,2
2,72,110,0
2,72,0,94
2,67,0,0
2,67,110,2
2,72,110,0
2,67,0,94
2,72,0,0
2,72,110,2
2,67,110,0
2,67,0,94
2,72,0,0
2,72,110,98
2,67,110,0
2,72,0,94
2,67,0,0
2,67,110,98
2,72,110,0
2,72,0,94
2,67,0,0
2,72,110,2
2,67,110,0
2,72,0,94
2,67,0,0
2,67,110,2
2,72,110,0
2,72,0,94
2,67,0,0
2,65,110,2
2,69,110,0
2,65,0,160
2,69,0,0
2,67,110,32
2,64,110,0
2,64,0,160
2,67,0,0
2,65,110,32
2,69,110,0
2,65,0,160
2,69,0,0
2,67,110,32
2,72,110,0
2,72,0,94
2,67,0,0
2,67,110,2
2,72,110,0
2,67,0,94
2,72,0,0
2,67,110,2
2,72,110,0
2,72,0,94
2,67,0,0
2,72,110,2
2,67,110,0
