track,note,velocity,time
1,35,106,1
1,35,0,43
1,28,95,1
1,28,0,76
1,28,95,20
1,28,0,69
1,28,99,27
1,28,0,68
1,28,78,28
1,28,0,57
1,28,85,39
1,28,0,66
1,28,74,30
1,28,0,61
1,28,92,35
1,28,0,69
1,28,74,27
1,28,0,64
1,28,67,32
1,28,0,62
1,28,78,34
1,28,0,58
1,28,88,38
1,28,0,65
1,28,67,31
1,28,0,57
1,28,71,39
1,28,0,64
1,28,67,32
1,28,0,57
1,28,81,39
1,28,0,65
1,28,74,31
1,28,0,60
1,28,85,36
1,28,0,59
1,28,74,37
1,28,0,52
1,28,85,44
1,28,0,59
1,28,74,37
1,28,0,58
1,28,85,38
1,28,0,62
1,28,71,34
1,28,0,64
1,28,71,32
1,28,0,67
1,28,74,29
1,28,0,59
1,28,78,37
1,28,0,64
1,28,81,32
1,28,0,59
1,28,78,37
1,28,0,67
1,28,78,29
1,28,0,60
1,28,85,36
1,28,0,62
1,28,78,34
1,28,0,63
1,28,89,33
1,28,0,61
1,28,77,35
1,28,0,74
1,40,102,22
1,40,0,161
1,40,106,31
1,40,0,68
1,40,85,28
1,40,0,57
1,40,92,39
1,40,0,66
1,40,81,30
1,40,0,61
1,40,99,35
1,40,0,69
1,40,81,27
1,40,0,64
1,38,78,32
1,38,0,64
1,38,74,32
1,38,0,57
1,38,95,39
1,38,0,65
1,38,74,31
1,38,0,57
1,38,78,39
1,38,0,64
1,38,74,32
1,38,0,57
1,38,88,39
1,38,0,65
1,38,81,31
1,38,0,60
1,33,92,36
1,33,0,155
1,33,92,37
1,33,0,59
1,33,81,37
1,33,0,58
1,33,92,38
1,33,0,62
1,33,78,34
1,33,0,64
1,33,78,32
1,33,0,67
1,35,81,29
1,35,0,155
1,35,88,37
1,35,0,155
1,33,85,37
1,33,0,60
1,35,92,36
1,35,0,62
1,33,85,34
1,33,0,63
1,35,96,33
1,35,0,61
1,33,84,35
1,33,0,74
1,40,102,22
1,40,0,161
1,40,106,31
1,40,0,68
1,40,85,28
1,40,0,57
1,40,92,39
1,40,0,66
1,40,81,30
1,40,0,61
1,40,99,35
1,40,0,69
1,40,81,27
1,40,0,64
1,38,74,32
1,38,0,62
1,38,85,34
1,38,0,58
1,38,95,38
1,38,0,65
1,38,74,31
1,38,0,57
1,38,78,39
1,38,0,64
1,38,74,32
1,38,0,57
1,38,88,39
1,38,0,65
1,38,81,31
1,38,0,60
1,33,92,36
1,33,0,155
1,33,92,37
1,33,0,59
1,33,81,37
1,33,0,58
1,33,92,38
1,33,0,62
1,33,78,34
1,33,0,64
1,33,78,32
1,33,0,67
1,35,81,29
1,35,0,155
1,35,88,37
1,35,0,155
1,33,85,37
1,33,0,60
1,35,92,36
1,35,0,62
1,33,85,34
1,33,0,63
1,35,96,33
1,35,0,61
1,33,84,35
1,33,0,74
1,40,102,22
1,40,0,161
1,40,106,31
1,40,0,68
1,40,85,28
1,40,0,57
1,40,92,39
1,40,0,66
1,40,81,30
1,40,0,61
1,40,99,35
1,40,0,69
1,38,78,27
1,38,0,160
1,38,74,32
1,38,0,57
1,38,95,39
1,38,0,65
1,38,74,31
1,38,0,57
1,38,78,39
1,38,0,64
1,38,74,32
1,38,0,57
1,38,88,39
1,38,0,65
1,38,81,31
1,38,0,60
1,33,92,36
1,33,0,155
1,33,92,37
1,33,0,59
1,33,81,37
1,33,0,58
1,33,92,38
1,33,0,62
1,33,78,34
1,33,0,64
1,33,78,32
1,33,0,67
1,35,81,29
1,35,0,155
1,35,88,37
1,35,0,155
1,33,85,37
1,33,0,60
1,35,92,36
1,35,0,62
1,33,85,34
1,33,0,63
1,35,96,33
1,35,0,61
1,33,84,35
1,33,0,74
1,40,92,22
1,40,0,66
1,40,81,30
1,40,0,61
1,40,106,35
1,40,0,68
1,40,85,28
1,40,0,57
1,40,92,39
1,40,0,66
1,40,81,30
1,40,0,61
1,40,99,35
1,40,0,69
1,38,74,27
1,38,0,158
1,38,85,34
1,38,0,58
1,38,95,38
1,38,0,65
1,38,74,31
1,38,0,57
1,38,78,39
1,38,0,64
1,38,74,32
1,38,0,57
1,38,88,39
1,38,0,65
1,38,81,31
1,38,0,60
1,33,92,36
1,33,0,155
1,33,92,37
1,33,0,59
1,33,81,37
1,33,0,58
1,33,92,38
1,33,0,62
1,33,78,34
1,33,0,64
1,33,78,32
1,33,0,67
1,35,81,29
1,35,0,155
1,35,88,37
1,35,0,155
1,33,85,37
1,33,0,60
1,35,92,36
1,35,0,62
1,33,85,34
1,33,0,63
1,35,96,33
1,35,0,61
1,33,84,35
1,33,0,74
1,40,99,22
1,40,0,92
1,38,93,100
1,38,0,85
1,40,99,107
1,40,0,427
1,38,92,53
1,38,0,75
1,33,80,117
1,33,0,20
1,38,97,76
1,38,0,277
1,38,80,11
1,38,0,20
1,33,97,76
1,33,0,218
1,33,80,70
1,33,0,22
1,33,97,74
1,33,0,218
1,33,80,70
1,33,0,22
1,35,99,74
1,35,0,161
1,35,103,31
1,35,0,68
1,35,82,28
1,35,0,57
1,35,89,39
1,35,0,66
1,35,78,30
1,35,0,61
1,35,96,35
1,35,0,69
1,35,78,27
1,35,0,64
1,40,99,32
1,40,0,92
1,38,93,100
1,38,0,85
1,40,99,107
1,40,0,427
1,38,92,53
1,38,0,75
1,33,80,117
1,33,0,20
1,38,97,76
1,38,0,277
1,38,80,11
1,38,0,20
1,33,89,76
1,33,0,66
1,33,78,30
1,33,0,61
1,33,103,35
1,33,0,68
1,33,82,28
1,33,0,57
1,33,89,39
1,33,0,66
1,33,78,30
1,33,0,61
1,35,103,35
1,35,0,68
1,35,82,28
1,35,0,57
1,35,89,39
1,35,0,66
1,35,78,30
1,35,0,61
1,35,103,35
1,35,0,68
1,40,82,28
1,40,0,57
1,42,89,39
1,42,0,66
1,42,78,30
1,42,0,61
1,41,96,35
1,41,0,69
1,40,78,27
1,40,0,86
1,40,82,10
1,40,0,64
1,40,78,32
1,40,0,57
1,40,110,39
1,40,0,68
1,40,89,28
1,40,0,57
1,40,96,39
1,40,0,66
1,40,85,30
1,40,0,61
1,40,103,35
1,40,0,69
1,40,85,27
1,40,0,64
1,38,82,32
1,38,0,64
1,38,78,32
1,38,0,57
1,38,99,39
1,38,0,65
1,38,78,31
1,38,0,57
1,38,82,39
1,38,0,64
1,38,78,32
1,38,0,57
1,38,92,39
1,38,0,65
1,35,85,31
1,35,0,60
1,33,96,36
1,33,0,107
1,33,96,85
1,33,0,59
1,33,85,37
1,33,0,58
1,33,96,38
1,33,0,62
1,33,82,34
1,33,0,64
1,33,82,32
1,33,0,67
1,33,85,29
1,33,0,58
1,35,96,38
1,35,0,62
1,35,82,34
1,35,0,64
1,35,82,32
1,35,0,67
1,35,85,29
1,35,0,58
1,38,96,38
1,38,0,80
1,35,89,16
1,35,0,63
1,38,100,33
1,38,0,80
1,35,88,16
1,35,0,74
1,40,82,22
1,40,0,64
1,40,78,32
1,40,0,57
1,40,110,39
1,40,0,68
1,40,89,28
1,40,0,57
1,40,96,39
1,40,0,66
1,40,85,30
1,40,0,61
1,40,103,35
1,40,0,69
1,40,85,27
1,40,0,64
1,38,82,32
1,38,0,64
1,38,78,32
1,38,0,57
1,38,99,39
1,38,0,65
1,38,78,31
1,38,0,57
1,38,82,39
1,38,0,64
1,38,78,32
1,38,0,57
1,38,92,39
1,38,0,65
1,35,85,31
1,35,0,60
1,33,96,36
1,33,0,107
1,33,96,85
1,33,0,59
1,33,85,37
1,33,0,58
1,33,96,38
1,33,0,62
1,33,82,34
1,33,0,64
1,33,82,32
1,33,0,67
1,33,85,29
1,33,0,58
1,35,96,38
1,35,0,62
1,33,82,34
1,33,0,64
1,35,82,32
1,35,0,67
1,33,85,29
1,33,0,58
1,35,96,38
1,35,0,80
1,35,89,16
1,35,0,63
1,38,100,33
1,38,0,80
1,35,88,16
1,35,0,74
1,40,82,22
1,40,0,64
1,40,78,32
1,40,0,57
1,40,110,39
1,40,0,68
1,40,89,28
1,40,0,57
1,40,96,39
1,40,0,66
1,40,85,30
1,40,0,61
1,40,103,35
1,40,0,69
1,40,85,27
1,40,0,64
1,38,82,32
1,38,0,64
1,38,78,32
1,38,0,57
1,38,99,39
1,38,0,65
1,38,78,31
1,38,0,57
1,38,82,39
1,38,0,64
1,38,78,32
1,38,0,57
1,38,92,39
1,38,0,65
1,35,85,31
1,35,0,60
1,33,96,36
1,33,0,107
1,33,96,85
1,33,0,59
1,33,85,37
1,33,0,58
1,33,96,38
1,33,0,62
1,33,82,34
1,33,0,64
1,33,82,32
1,33,0,67
1,33,85,29
1,33,0,58
1,35,96,38
1,35,0,62
1,33,82,34
1,33,0,64
1,33,82,32
1,33,0,152
1,31,96,40
1,31,0,139
1,31,100,53
1,31,0,9
1,28,104,1
1,28,0,76
1,28,104,20
1,28,0,69
1,28,108,27
1,28,0,68
1,28,87,28
1,28,0,57
1,28,94,39
1,28,0,66
1,28,83,30
1,28,0,61
1,28,101,35
1,28,0,69
1,28,83,27
1,28,0,64
1,28,76,32
1,28,0,62
1,28,87,34
1,28,0,58
1,28,97,38
1,28,0,65
1,28,76,31
1,28,0,57
1,28,80,39
1,28,0,64
1,28,76,32
1,28,0,57
1,28,90,39
1,28,0,65
1,28,83,31
1,28,0,60
1,28,94,36
1,28,0,59
1,28,83,37
1,28,0,52
1,28,94,44
1,28,0,59
1,28,83,37
1,28,0,58
1,28,94,38
1,28,0,62
1,28,80,34
1,28,0,64
1,28,80,32
1,28,0,67
1,28,83,29
1,28,0,59
1,28,87,37
1,28,0,64
1,28,90,32
1,28,0,59
1,28,87,37
1,28,0,67
1,28,87,29
1,28,0,60
1,28,94,36
1,28,0,62
1,28,87,34
1,28,0,63
1,28,98,33
1,28,0,61
1,28,86,35
1,28,0,74
1,40,104,22
1,40,0,161
1,40,108,31
1,40,0,68
1,40,87,28
1,40,0,57
1,40,94,39
1,40,0,66
1,40,83,30
1,40,0,61
1,40,101,35
1,40,0,69
1,40,83,27
1,40,0,64
1,38,80,32
1,38,0,64
1,38,76,32
1,38,0,57
1,38,97,39
1,38,0,65
1,38,76,31
1,38,0,57
1,38,80,39
1,38,0,64
1,38,76,32
1,38,0,57
1,38,90,39
1,38,0,65
1,38,83,31
1,38,0,60
1,33,94,36
1,33,0,155
1,33,94,37
1,33,0,59
1,33,83,37
1,33,0,58
1,33,94,38
1,33,0,62
1,33,80,34
1,33,0,64
1,33,80,32
1,33,0,67
1,35,83,29
1,35,0,155
1,35,90,37
1,35,0,155
1,33,87,37
1,33,0,60
1,35,94,36
1,35,0,62
1,33,87,34
1,33,0,63
1,35,98,33
1,35,0,61
1,33,86,35
1,33,0,74
1,40,104,22
1,40,0,161
1,40,108,31
1,40,0,68
1,40,87,28
1,40,0,57
1,40,94,39
1,40,0,66
1,40,83,30
1,40,0,61
1,40,101,35
1,40,0,69
1,40,83,27
1,40,0,64
1,38,76,32
1,38,0,62
1,38,87,34
1,38,0,58
1,38,97,38
1,38,0,65
1,38,76,31
1,38,0,57
1,38,80,39
1,38,0,64
1,38,76,32
1,38,0,57
1,38,90,39
1,38,0,65
1,38,83,31
1,38,0,60
1,33,94,36
1,33,0,155
1,33,94,37
1,33,0,59
1,33,83,37
1,33,0,58
1,33,94,38
1,33,0,62
1,33,80,34
1,33,0,64
1,33,80,32
1,33,0,67
1,35,83,29
1,35,0,155
1,35,90,37
1,35,0,155
1,33,87,37
1,33,0,60
1,35,94,36
1,35,0,62
1,33,87,34
1,33,0,63
1,35,98,33
1,35,0,61
1,33,86,35
1,33,0,74
1,40,104,22
1,40,0,161
1,40,108,31
1,40,0,68
1,40,87,28
1,40,0,57
1,40,94,39
1,40,0,66
1,40,83,30
1,40,0,61
1,40,101,35
1,40,0,69
1,38,80,27
1,38,0,160
1,38,76,32
1,38,0,57
1,38,97,39
1,38,0,65
1,38,76,31
1,38,0,57
1,38,80,39
1,38,0,64
1,38,76,32
1,38,0,57
1,38,90,39
1,38,0,65
1,38,83,31
1,38,0,60
1,33,94,36
1,33,0,155
1,33,94,37
1,33,0,59
1,33,83,37
1,33,0,58
1,33,94,38
1,33,0,62
1,33,80,34
1,33,0,64
1,33,80,32
1,33,0,67
1,35,83,29
1,35,0,155
1,35,90,37
1,35,0,155
1,33,87,37
1,33,0,60
1,35,94,36
1,35,0,62
1,33,87,34
1,33,0,63
1,35,98,33
1,35,0,61
1,33,86,35
1,33,0,74
1,40,94,22
1,40,0,66
1,40,83,30
1,40,0,61
1,40,108,35
1,40,0,68
1,40,87,28
1,40,0,57
1,40,94,39
1,40,0,66
1,40,83,30
1,40,0,61
1,40,101,35
1,40,0,69
1,38,76,27
1,38,0,158
1,38,87,34
1,38,0,58
1,38,97,38
1,38,0,65
1,38,76,31
1,38,0,57
1,38,80,39
1,38,0,64
1,38,76,32
1,38,0,57
1,38,90,39
1,38,0,65
1,38,83,31
1,38,0,60
1,33,94,36
1,33,0,155
1,33,94,37
1,33,0,59
1,33,83,37
1,33,0,58
1,33,94,38
1,33,0,62
1,33,80,34
1,33,0,64
1,33,80,32
1,33,0,67
1,35,83,29
1,35,0,155
1,35,90,37
1,35,0,155
1,33,87,37
1,33,0,60
1,35,94,36
1,35,0,62
1,33,87,34
1,33,0,63
1,35,98,33
1,35,0,61
1,33,86,35
1,33,0,74
1,40,101,0
1,40,0,92
1,38,95,100
1,38,0,85
1,40,101,107
1,40,0,427
1,38,94,53
1,38,0,75
1,33,82,117
1,33,0,20
1,38,99,76
1,38,0,277
1,38,82,11
1,38,0,20
1,33,99,76
1,33,0,218
1,33,82,70
1,33,0,22
1,33,99,74
1,33,0,218
1,33,82,70
1,33,0,22
1,35,101,74
1,35,0,68
1,35,84,28
1,35,0,57
1,38,105,39
1,38,0,68
1,35,84,28
1,35,0,57
1,38,91,39
1,38,0,66
1,35,80,30
1,35,0,61
1,38,98,35
1,38,0,69
1,35,80,27
1,35,0,64
1,40,101,32
1,40,0,92
1,38,95,100
1,38,0,85
1,40,101,107
1,40,0,427
1,38,94,53
1,38,0,75
1,33,82,117
1,33,0,20
1,38,99,76
1,38,0,277
1,38,82,11
1,38,0,20
1,33,91,76
1,33,0,66
1,33,80,30
1,33,0,61
1,33,105,35
1,33,0,68
1,33,84,28
1,33,0,57
1,33,91,39
1,33,0,66
1,33,80,30
1,33,0,61
1,33,105,35
1,33,0,68
1,33,84,28
1,33,0,57
1,33,91,39
1,33,0,66
1,33,80,30
1,33,0,61
1,33,105,35
1,33,0,68
1,33,84,28
1,33,0,57
1,45,91,39
1,45,0,66
1,45,80,30
1,45,0,61
1,45,105,35
1,45,0,68
1,45,84,28
1,45,0,57
1,47,91,39
1,47,0,66
1,47,80,30
1,47,0,61
1,47,105,35
1,47,0,68
1,47,84,28
1,47,0,57
1,47,91,39
1,47,0,66
1,47,80,30
1,47,0,61
1,47,105,35
1,47,0,68
1,47,84,28
1,47,0,57
1,47,91,39
1,47,0,66
1,47,80,30
1,47,0,189
1,40,84,3
1,40,0,57
1,42,91,39
1,42,0,1
1,42,98,0
1,42,0,184
1,40,84,2
1,40,0,64
1,40,80,32
1,40,0,57
1,40,112,39
1,40,0,68
1,40,91,28
1,40,0,57
1,40,98,39
1,40,0,66
1,40,87,30
1,40,0,61
1,40,105,35
1,40,0,69
1,40,87,27
1,40,0,64
1,38,84,32
1,38,0,64
1,38,80,32
1,38,0,57
1,38,101,39
1,38,0,65
1,38,80,31
1,38,0,57
1,38,84,39
1,38,0,64
1,38,80,32
1,38,0,57
1,38,94,39
1,38,0,65
1,35,87,31
1,35,0,60
1,33,98,36
1,33,0,107
1,33,98,85
1,33,0,59
1,33,87,37
1,33,0,58
1,33,98,38
1,33,0,62
1,33,84,34
1,33,0,64
1,33,84,32
1,33,0,67
1,33,87,29
1,33,0,58
1,35,98,38
1,35,0,62
1,35,84,34
1,35,0,64
1,35,84,32
1,35,0,67
1,35,87,29
1,35,0,58
