track,note,velocity,time
1,67,115,11520
1,67,0,286
1,68,115,2
1,68,0,94
1,68,115,2
1,68,0,94
1,68,115,2
1,68,0,94
1,67,115,2
1,67,0,94
1,68,115,770
1,68,0,94
1,68,115,2
1,68,0,94
1,68,115,2
1,68,0,46
1,68,115,2
1,68,0,46
1,67,115,2
1,67,0,160
1,67,115,512
1,67,0,94
1,68,115,98
1,68,0,94
1,68,115,2
1,68,0,142
1,67,115,2
1,67,0,94
1,68,115,2
1,68,0,94
1,67,115,2
1,67,0,94
1,72,115,434
1,72,0,46
1,74,115,2
1,74,0,46
1,75,115,2
1,75,0,46
1,74,115,2
1,74,0,46
1,75,115,2
1,75,0,94
1,74,115,2
1,74,0,94
1,72,115,2
1,74,115,48
1,72,0,0
1,74,0,496
1,69,115,224
1,69,0,46
1,72,115,2
1,72,0,46
1,75,115,2
1,75,0,142
1,74,115,2
1,74,0,142
1,72,115,2
1,74,115,48
1,72,0,0
1,74,0,48
1,69,115,0
1,69,0,160
1,69,115,512
1,69,0,94
1,72,115,2
1,72,0,70
1,74,115,2
1,74,0,70
1,75,115,2
1,75,0,70
1,74,115,2
1,74,0,70
1,72,115,2
1,72,0,94
1,71,115,2
1,71,0,160
1,69,115,512
1,69,0,46
1,72,115,2
1,72,0,46
1,75,115,2
1,75,0,94
1,74,115,2
1,74,0,94
1,72,115,2
1,72,0,46
1,69,115,2
1,69,0,46
1,72,115,2
1,74,115,48
1,72,0,0
1,74,0,208
1,81,115,320
1,81,0,94
1,79,115,2
1,79,0,94
1,76,115,2
1,76,0,94
1,81,115,2
1,81,0,94
1,79,115,2
1,79,0,94
1,76,115,2
1,76,0,94
1,79,115,2
1,81,115,48
1,79,0,0
1,81,0,1392
1,79,115,0
1,79,0,576
1,74,115,0
1,74,0,528
1,67,115,1008
1,67,0,160
1,68,115,80
1,68,0,46
1,68,115,2
1,68,0,46
1,68,115,2
1,68,0,46
1,68,115,2
1,68,0,46
1,68,115,2
1,68,0,46
1,68,115,2
1,68,0,94
1,67,115,2
1,67,0,160
1,75,115,608
1,75,0,46
1,75,115,2
1,75,0,46
1,72,115,2
1,72,0,46
1,75,115,2
1,75,0,94
1,72,115,2
1,72,0,142
1,67,115,2
1,67,0,160
1,67,115,416
1,67,0,94
1,67,115,2
1,67,0,94
1,68,115,2
1,68,0,46
1,68,115,2
1,68,0,46
1,68,115,2
1,68,0,94
1,68,115,2
1,68,0,94
1,68,115,2
1,68,0,94
1,67,115,2
1,67,0,160
1,69,115,512
1,69,0,46
1,72,115,2
1,72,0,46
1,75,115,2
1,75,0,46
1,72,115,2
1,72,0,142
1,81,115,98
1,81,0,94
1,79,115,2
1,79,0,48
1,75,115,0
1,75,0,46
1,76,115,2
1,74,115,32
1,76,0,0
1,74,0,32
1,72,115,0
1,72,0,30
1,69,115,434
1,69,0,46
1,72,115,2
1,72,0,46
1,74,115,2
1,74,0,46
1,75,115,2
1,75,0,70
1,74,115,2
1,74,0,70
1,74,115,2
1,74,0,70
1,72,115,2
1,74,115,36
1,72,0,0
1,74,0,292
1,81,115,416
1,81,0,94
1,79,115,50
1,79,0,46
1,81,115,2
1,81,0,46
1,81,115,2
1,81,0,46
1,81,115,2
1,81,0,94
1,81,115,2
1,81,0,94
1,79,115,2
1,79,0,256
1,79,115,464
1,79,0,46
1,81,115,2
1,81,0,46
1,81,115,2
1,81,0,46
1,81,115,2
1,81,0,46
1,81,115,2
1,81,0,46
1,81,115,2
1,81,0,46
1,81,115,2
1,81,0,46
1,81,115,2
1,81,0,256
1,76,115,368
1,76,0,46
1,81,115,2
1,81,0,94
1,79,115,2
1,79,0,94
1,76,115,2
1,76,0,94
1,81,115,2
1,81,0,46
1,79,115,2
1,79,0,46
1,81,115,2
1,81,0,928
1,81,115,32
1,81,0,94
1,81,115,290
1,81,0,94
1,79,115,2
1,79,0,94
1,79,115,2
1,79,0,46
1,81,115,2
1,81,0,94
1,79,115,2
1,79,0,238
1,81,115,98
1,81,0,46
1,79,115,2
1,79,0,46
1,81,115,2
1,81,0,46
1,81,115,2
1,81,0,46
1,81,115,2
1,81,0,48
1,79,115,0
1,79,0,208
1,81,115,416
1,79,115,96
1,81,0,0
1,79,0,190
1,74,115,2
1,74,0,160
1,81,115,32
1,81,0,46
1,81,115,2
1,81,0,46
1,81,115,2
1,81,0,46
1,81,115,2
1,81,0,46
1,81,115,2
1,81,0,94
1,81,115,2
1,81,0,46
1,81,115,2
1,81,0,46
1,81,115,2
1,81,0,46
1,81,115,2
1,81,0,46
1,81,115,2
1,81,0,94
1,81,115,2
1,81,0,46
1,81,115,2
1,81,0,46
1,81,115,2
1,81,0,46
1,81,115,2
1,81,0,46
1,81,115,2
1,81,0,94
1,81,115,146
1,81,0,46
1,79,115,2
1,79,0,94
1,79,115,2
1,79,0,48
1,77,115,0
1,77,0,208
1,77,115,272
1,77,0,46
1,72,115,2
1,72,0,46
1,74,115,2
1,74,0,46
1,72,115,2
1,72,0,94
1,75,115,2
1,75,0,190
1,81,115,194
1,81,0,46
1,81,115,2
1,81,0,46
1,81,115,2
1,81,0,46
1,81,115,2
1,81,0,46
1,81,115,2
1,81,0,94
1,81,115,2
1,81,0,46
1,81,115,2
1,81,0,46
1,81,115,2
1,81,0,46
1,81,115,2
1,81,0,46
1,81,115,2
1,81,0,94
1,81,115,2
1,81,0,46
1,81,115,2
1,81,0,46
1,81,115,2
1,81,0,46
1,81,115,2
1,81,0,46
1,81,115,2
1,81,0,94
1,81,115,2
1,81,0,46
1,81,115,2
1,81,0,46
1,79,115,266
1,79,0,70
1,79,115,2
1,79,0,70
1,77,115,2
1,77,0,34
1,77,115,2
1,77,0,34
1,79,115,2
1,79,0,46
1,77,115,2
1,77,0,46
1,79,115,2
1,77,115,144
1,79,0,0
1,77,0,46
1,79,115,2
1,79,0,48
1,77,115,0
1,77,0,208
1,75,115,32
1,72,115,96
1,75,0,0
1,72,0,160
1,75,115,18080
1,75,0,46
1,74,115,2
1,74,0,46
1,75,115,2
1,75,0,46
1,75,115,2
1,75,0,46
1,75,115,2
1,75,0,46
1,75,115,2
1,75,0,46
1,75,115,2
1,75,0,352
1,75,115,656
1,75,0,46
1,75,115,2
1,75,0,94
1,75,115,2
1,75,0,46
1,75,115,2
1,75,0,46
1,75,115,2
1,75,0,46
1,75,115,2
1,75,0,94
1,75,115,2
1,75,0,142
1,87,115,674
1,87,0,46
1,84,115,2
1,84,0,46
1,79,115,2
1,79,0,46
1,79,115,2
1,79,0,46
1,80,115,2
1,80,0,46
1,80,115,2
1,80,0,46
1,80,115,2
1,80,0,46
1,80,115,2
1,80,0,46
1,80,115,2
1,80,0,94
1,82,115,674
1,82,0,46
1,82,115,2
1,82,0,46
1,82,115,2
1,82,0,46
1,82,115,2
1,82,0,46
1,82,115,2
1,82,0,94
1,82,115,2
1,82,0,94
1,82,115,2
1,82,0,94
1,82,115,2
1,82,0,46
1,75,115,2
1,75,0,208
1,75,115,608
1,75,0,46
1,75,115,2
1,75,0,46
1,75,115,2
1,75,0,46
1,75,115,2
1,75,0,400
1,76,115,464
1,76,0,46
1,76,115,2
1,76,0,46
1,76,115,2
1,76,0,46
1,78,115,2
1,78,0,256
1,82,115,800
1,82,0,46
1,82,115,2
1,82,0,46
1,82,115,2
1,82,0,46
1,82,115,2
1,82,0,22
1,82,115,2
1,82,0,22
1,82,115,2
1,82,0,46
1,82,115,2
1,82,0,46
1,82,115,2
1,82,0,46
1,82,115,2
1,82,0,46
1,82,115,2
1,82,0,256
1,82,115,512
1,82,0,46
1,82,115,2
1,82,0,46
1,82,115,2
1,82,0,46
1,82,115,2
1,82,0,22
1,82,115,2
1,82,0,22
1,82,115,2
1,82,0,46
1,82,115,2
1,82,0,46
1,82,115,2
1,82,0,46
1,82,115,2
1,82,0,46
1,82,115,2
1,82,0,46
1,82,115,2
1,82,0,46
1,79,115,626
1,79,0,46
1,79,115,2
1,79,0,46
1,79,115,2
1,79,0,46
1,75,115,2
1,75,0,256
1,79,115,800
1,79,0,94
1,80,115,2
1,80,0,46
1,80,115,2
1,80,0,46
1,80,115,2
1,80,0,192
1,74,115,0
1,74,0,160
1,80,115,704
1,79,115,288
1,80,0,0
1,79,0,160
1,79,115,32
1,79,0,46
1,76,115,2
1,76,0,142
1,84,115,290
1,84,0,94
1,79,115,2
1,79,0,46
1,79,115,2
1,79,0,46
1,80,115,2
1,80,0,46
1,80,115,2
1,80,0,46
1,80,115,2
1,80,0,94
1,80,115,2
1,80,0,46
1,80,115,2
1,80,0,46
1,80,115,674
1,80,0,574
1,80,115,2
1,80,0,96
1,79,115,0
1,84,115,192
1,79,0,0
1,76,115,96
1,84,0,0
1,76,0,48
1,74,115,0
1,72,115,48
1,74,0,0
1,72,0,160
1,81,115,608
1,81,0,46
1,81,115,2
1,81,0,46
1,81,115,2
1,81,0,46
1,81,115,2
1,81,0,46
1,79,115,2
1,79,0,94
1,79,115,2
1,79,0,94
1,81,115,194
1,81,0,46
1,81,115,2
1,81,0,46
1,81,115,2
1,81,0,46
1,81,115,2
1,81,0,46
1,79,115,2
1,79,0,94
1,79,115,2
1,79,0,94
1,81,115,146
1,81,0,46
1,81,115,2
1,81,0,46
1,81,115,2
1,81,0,46
1,81,115,2
1,81,0,46
1,79,115,2
1,79,0,46
1,79,115,2
1,79,0,94
1,81,115,242
1,81,0,46
1,81,115,2
1,81,0,46
1,81,115,2
1,81,0,46
1,81,115,2
1,81,0,46
1,79,115,2
1,79,0,46
1,79,115,2
1,79,0,94
1,81,115,242
1,81,0,46
1,81,115,2
1,81,0,46
1,81,115,2
1,81,0,46
1,81,115,2
1,81,0,46
1,81,115,2
1,81,0,46
1,81,115,2
1,81,0,94
1,79,115,2
1,79,0,94
1,79,115,2
1,79,0,160
1,80,115,176
1,84,115,48
1,80,0,0
1,84,0,48
1,82,115,0
1,80,115,48
1,82,0,0
1,79,115,96
1,80,0,0
1,79,0,94
1,79,115,2
1,79,0,94
1,79,115,2
1,79,0,94
1,81,115,2
1,81,0,94
1,79,115,2
1,79,0,94
1,79,115,242
1,79,0,46
1,79,115,2
1,79,0,46
1,79,115,2
1,79,0,46
1,79,115,2
1,79,0,94
1,79,115,2
1,79,0,94
1,79,115,194
1,79,0,94
1,84,115,2
1,84,0,94
1,81,115,2
1,81,0,94
1,79,115,2
1,79,0,94
1,76,115,770
1,76,0,94
1,76,115,2
1,76,0,46
1,76,115,2
1,76,0,46
1,76,115,2
1,76,0,96
1,74,115,0
1,74,0,160
2,64,110,40320
2,64,0,160
2,63,110,32
2,63,0,448
2,64,110,32
2,64,0,94
2,64,110,2
2,64,0,46
2,62,110,2
2,62,0,46
2,60,110,2
2,60,0,160
2,51,110,128
2,51,0,46
2,52,110,2
2,52,0,46
2,55,110,2
2,55,0,46
2,57,110,2
2,57,0,46
2,60,110,2
2,60,0,30
2,57,110,2
2,57,0,30
2,60,110,2
2,60,0,30
2,64,110,2
2,64,0,94
2,69,110,2
2,69,0,46
2,67,110,2
2,67,0,46
2,64,110,2
2,64,0,14
2,67,110,2
2,67,0,14
2,64,110,2
2,64,0,30
2,64,110,2
2,64,0,30
2,62,110,2
2,62,0,30
2,60,110,2
2,60,0,30
2,57,110,2
2,57,0,30
2,60,110,2
2,60,0,30
2,57,110,2
2,57,0,30
2,60,110,2
2,60,0,30
2,64,110,2
2,64,0,382
2,64,110,2
2,64,0,94
2,64,110,2
2,64,0,94
2,63,110,2
2,63,0,510
2,62,110,2
2,62,0,30
2,63,110,2
2,63,0,30
2,62,110,2
2,62,0,94
2,60,110,2
2,60,0,160
2,60,110,80
2,60,0,46
2,67,110,2
2,67,0,46
2,69,110,2
2,69,0,46
2,72,110,2
2,72,0,94
2,72,110,2
2,72,0,94
2,67,110,2
2,67,0,448
2,69,110,32
2,69,0,382
2,69,110,2
2,69,0,142
2,69,110,2
2,69,0,46
2,67,110,2
2,67,0,46
2,65,110,2
2,65,0,208
2,64,110,32
2,64,0,22
2,65,110,2
2,65,0,22
2,64,110,2
2,64,0,22
2,62,110,2
2,62,0,22
2,62,110,2
2,62,0,30
2,60,110,2
2,60,0,30
2,57,110,2
2,57,0,30
2,57,110,2
2,57,0,30
2,60,110,2
2,60,0,30
2,62,110,2
2,62,0,30
2,60,110,2
2,60,0,30
2,57,110,2
2,57,0,30
2,60,110,2
2,60,0,192
2,71,110,80
2,71,0,46
2,72,110,2
2,72,0,30
2,71,110,2
2,71,0,30
2,72,110,2
2,72,0,30
2,71,110,2
2,71,0,30
2,69,110,2
2,69,0,30
2,67,110,2
2,67,0,30
2,64,110,2
2,64,0,30
2,65,110,2
2,65,0,30
2,64,110,2
2,64,0,30
2,62,110,2
2,62,0,30
2,64,110,2
2,64,0,30
2,62,110,2
2,62,0,30
2,60,110,2
2,60,0,30
2,57,110,2
2,57,0,30
2,62,110,2
2,62,0,30
2,60,110,2
2,60,0,30
2,62,110,2
2,62,0,30
2,60,110,2
2,60,0,30
2,57,110,2
2,57,0,30
2,52,110,2
2,52,0,30
2,55,110,2
2,55,0,30
2,57,110,2
2,57,0,30
2,52,110,2
2,52,0,30
2,55,110,2
2,55,0,30
2,57,110,2
2,57,0,46
2,52,110,2
2,52,0,46
2,57,110,2
2,57,0,46
2,52,110,2
2,52,0,46
2,55,110,2
2,55,0,46
2,57,110,2
2,57,0,304
2,60,110,80
2,60,0,94
2,62,110,2
2,62,0,46
2,64,110,2
2,64,0,30
2,65,110,2
2,65,0,30
2,64,110,2
2,64,0,30
2,64,110,2
2,64,0,30
2,65,110,2
2,65,0,30
2,67,110,2
2,67,0,30
2,69,110,2
2,69,0,30
2,71,110,2
2,71,0,30
2,72,110,2
2,72,0,30
2,71,110,2
2,71,0,30
2,72,110,2
2,72,0,30
2,71,110,2
2,71,0,30
2,69,110,2
2,69,0,256
2,55,110,32
2,55,0,62
2,72,110,2
2,72,0,62
2,69,110,2
2,69,0,62
2,72,110,2
2,72,0,46
2,74,110,2
2,74,0,46
2,76,110,2
2,76,0,30
2,72,110,2
2,72,0,30
2,71,110,2
2,71,0,30
2,69,110,2
2,69,0,94
2,69,110,2
2,69,0,46
2,71,110,2
2,71,0,46
2,74,110,2
2,74,0,46
2,76,110,146
2,76,0,46
2,77,110,2
2,77,0,46
2,81,110,2
2,81,0,94
2,81,110,2
2,81,0,352
2,83,110,224
2,83,0,192
2,81,110,0
2,81,0,94
2,74,110,2
2,74,0,94
2,74,110,2
2,74,0,190
2,77,110,2
2,77,0,46
2,79,110,2
2,79,0,46
2,80,110,2
2,80,0,46
2,81,110,2
2,81,0,142
2,83,110,2
2,83,0,94
2,83,110,2
2,83,0,94
2,83,110,2
2,83,0,46
2,81,110,2
2,81,0,46
2,79,110,2
2,79,0,286
2,79,110,2
2,79,0,94
2,81,110,2
2,81,0,94
2,83,110,2
2,83,0,46
2,81,110,2
2,81,0,46
2,79,110,2
2,79,0,160
2,81,110,32
2,81,0,94
2,79,110,2
2,79,0,94
2,81,110,2
2,81,0,94
2,72,110,2
2,76,110,0
2,79,110,0
2,79,0,46
2,76,0,0
2,72,0,0
2,72,110,2
2,79,110,0
2,76,110,0
2,76,0,46
2,79,0,0
2,72,0,0
2,72,110,2
2,76,110,0
2,79,110,0
2,79,0,46
2,76,0,0
2,72,0,0
2,76,110,2
2,79,110,0
2,72,110,0
2,72,0,46
2,79,0,0
2,76,0,0
2,72,110,2
2,76,110,0
2,79,110,0
2,79,0,94
2,76,0,0
2,72,0,0
2,72,110,2
2,76,110,0
2,79,110,0
2,79,0,46
2,76,0,0
2,72,0,0
2,79,110,2
2,72,110,0
2,76,110,0
2,76,0,46
2,72,0,0
2,79,0,0
2,72,110,2
2,79,110,0
2,76,110,0
2,76,0,46
2,79,0,0
2,72,0,0
2,72,110,2
2,76,110,0
2,79,110,0
2,79,0,46
2,76,0,0
2,72,0,0
2,72,110,2
2,76,110,0
2,79,110,0
2,79,0,94
