track,note,velocity,time
1,74,80,11520
1,71,80,48
1,74,0,0
1,71,0,96
1,74,80,0
1,74,0,96
1,71,80,0
1,74,80,48
1,71,0,0
1,74,0,96
1,76,80,0
1,76,0,256
1,74,80,128
1,71,80,48
1,74,0,0
1,71,0,96
1,74,80,0
1,71,80,96
1,74,0,0
1,71,0,48
1,74,80,0
1,74,0,96
1,71,80,0
1,71,0,256
1,74,80,128
1,74,0,48
1,71,80,0
1,71,0,96
1,74,80,0
1,74,0,208
1,76,80,32
1,74,80,96
1,76,0,0
1,74,0,48
1,71,80,0
1,69,80,48
1,71,0,0
1,69,0,48
1,67,80,0
1,67,0,46
1,69,80,98
1,68,80,48
1,69,0,0
1,69,80,96
1,68,0,0
1,69,0,48
1,68,80,0
1,69,80,96
1,68,0,0
1,69,0,94
1,71,80,2
1,69,80,48
1,71,0,0
1,68,80,48
1,69,0,0
1,68,0,48
1,64,80,0
1,64,0,960
1,74,90,48
1,71,90,48
1,74,0,0
1,71,0,96
1,74,90,0
1,71,90,96
1,74,0,0
1,74,90,48
1,71,0,0
1,74,0,96
1,76,90,0
1,76,0,256
1,74,90,128
1,71,90,48
1,74,0,0
1,71,0,96
1,74,90,0
1,71,90,96
1,74,0,0
1,74,90,48
1,71,0,0
1,74,0,96
1,71,90,0
1,71,0,256
1,74,90,128
1,71,90,48
1,74,0,0
1,71,0,96
1,74,90,0
1,74,0,208
1,76,90,32
1,74,90,96
1,76,0,0
1,74,0,48
1,71,90,0
1,71,0,48
1,69,90,0
1,67,90,48
1,69,0,0
1,67,0,46
1,69,90,98
1,68,90,48
1,69,0,0
1,69,90,96
1,68,0,0
1,69,0,48
1,68,90,0
1,69,90,96
1,68,0,0
1,69,0,94
1,71,90,2
1,71,0,48
1,69,90,0
1,69,0,48
1,68,90,0
1,64,90,48
1,68,0,0
1,64,0,960
1,80,115,5040
1,80,0,160
1,83,115,224
1,83,0,46
1,83,115,2
1,83,0,46
1,83,115,2
1,83,0,46
1,79,115,2
1,78,115,48
1,79,0,0
1,78,0,94
1,76,115,2
1,76,0,46
1,76,115,2
1,76,0,208
1,83,115,224
1,83,0,46
1,83,115,2
1,83,0,46
1,83,115,2
1,83,0,46
1,79,115,2
1,79,0,48
1,78,115,0
1,78,0,46
1,76,115,2
1,76,0,46
1,76,115,2
1,76,0,238
1,76,115,2
1,76,0,142
1,76,115,146
1,76,0,46
1,76,115,2
1,76,0,46
1,78,115,2
1,78,0,94
1,78,115,2
1,78,0,94
1,79,115,2
1,79,0,48
1,81,115,0
1,81,0,94
1,79,115,2
1,79,0,46
1,81,115,2
1,81,0,624
1,79,115,0
1,79,0,160
1,76,115,224
1,76,0,142
1,67,115,2
1,67,0,46
1,69,115,2
1,69,0,46
1,69,115,2
1,69,0,46
1,67,115,2
1,67,0,190
1,76,115,2
1,76,0,46
1,69,115,2
1,69,0,46
1,69,115,2
1,69,0,48
1,67,115,0
1,67,0,142
1,83,115,5762
1,83,0,46
1,83,115,2
1,83,0,46
1,83,115,2
1,83,0,46
1,79,115,2
1,79,0,94
1,78,115,2
1,78,0,46
1,76,115,2
1,76,0,46
1,80,115,2
1,80,0,46
1,80,115,2
1,80,0,160
1,80,115,176
1,80,0,46
1,83,115,2
1,83,0,46
1,83,115,2
1,83,0,46
1,83,115,2
1,83,0,46
1,83,115,2
1,83,0,94
1,83,115,2
1,83,0,46
1,83,115,2
1,83,0,46
1,80,115,2
1,80,0,94
1,80,115,2
1,80,0,94
1,80,115,2
1,80,0,94
1,76,115,2
1,76,0,46
1,74,115,2
1,74,0,94
1,76,115,50
1,76,0,46
1,76,115,2
1,76,0,46
1,78,115,2
1,78,0,190
1,78,115,2
1,78,0,46
1,79,115,2
1,79,0,94
1,79,115,2
1,79,0,46
1,81,115,2
1,81,0,768
1,76,115,240
1,76,0,94
1,69,115,98
1,69,0,46
1,67,115,2
1,67,0,46
1,69,115,2
1,69,0,46
1,67,115,2
1,67,0,46
1,69,115,2
1,67,115,48
1,69,0,0
1,67,0,304
1,74,115,2336
1,71,115,48
1,74,0,0
1,71,0,96
1,74,115,0
1,71,115,96
1,74,0,0
1,71,0,48
1,74,115,0
1,76,115,96
1,74,0,0
1,76,0,256
1,74,115,128
1,74,0,48
1,71,115,0
1,74,115,96
1,71,0,0
1,71,115,96
1,74,0,0
1,71,0,48
1,74,115,0
1,71,115,96
1,74,0,0
1,71,0,256
1,74,115,128
1,74,0,48
1,71,115,0
1,74,115,96
1,71,0,0
1,74,0,208
1,76,115,32
1,76,0,96
1,74,115,0
1,74,0,48
1,71,115,0
1,69,115,48
1,71,0,0
1,69,0,48
1,67,115,0
1,67,0,46
1,69,115,98
1,68,115,48
1,69,0,0
1,68,0,96
1,69,115,0
1,69,0,48
1,68,115,0
1,69,115,96
1,68,0,0
1,69,0,94
1,71,115,2
1,69,115,48
1,71,0,0
1,68,115,48
1,69,0,0
1,68,0,48
1,64,115,0
1,64,0,960
1,74,115,48
1,71,115,48
1,74,0,0
1,71,0,96
1,74,115,0
1,71,115,96
1,74,0,0
1,74,115,48
1,71,0,0
1,74,0,96
1,76,115,0
1,76,0,256
1,74,115,128
1,71,115,48
1,74,0,0
1,71,0,96
1,74,115,0
1,71,115,96
1,74,0,0
1,74,115,48
1,71,0,0
1,74,0,96
1,71,115,0
1,71,0,256
1,74,115,128
1,71,115,48
1,74,0,0
1,71,0,96
1,74,115,0
1,74,0,208
1,76,115,32
1,74,115,96
1,76,0,0
1,74,0,48
1,71,115,0
1,69,115,48
1,71,0,0
1,67,115,48
1,69,0,0
1,67,0,46
1,69,115,98
1,68,115,48
1,69,0,0
1,69,115,96
1,68,0,0
1,69,0,48
1,68,115,0
1,68,0,96
1,69,115,0
1,69,0,94
1,71,115,2
1,71,0,48
1,69,115,0
1,68,115,48
1,69,0,0
1,64,115,48
1,68,0,0
1,64,0,960
1,74,115,48
1,71,115,48
1,74,0,0
1,74,115,96
1,71,0,0
1,74,0,96
1,71,115,0
1,74,115,48
1,71,0,0
1,76,115,96
1,74,0,0
1,76,0,256
1,74,115,128
1,71,115,48
1,74,0,0
1,74,115,96
1,71,0,0
1,74,0,96
1,71,115,0
1,74,115,48
1,71,0,0
1,71,115,96
1,74,0,0
1,71,0,256
1,74,115,128
1,71,115,48
1,74,0,0
1,74,115,96
1,71,0,0
1,74,0,208
1,76,115,32
1,74,115,96
1,76,0,0
1,71,115,48
1,74,0,0
1,71,0,48
1,69,115,0
1,67,115,48
1,69,0,0
1,67,0,46
1,69,115,98
1,69,0,48
1,68,115,0
1,69,115,96
1,68,0,0
1,68,115,48
1,69,0,0
1,68,0,96
1,69,115,0
1,69,0,94
1,71,115,2
1,69,115,48
1,71,0,0
1,69,0,48
1,68,115,0
1,64,115,48
1,68,0,0
1,64,0,960
1,83,115,18480
1,83,0,46
1,83,115,2
1,83,0,46
1,83,115,2
1,83,0,46
1,79,115,2
1,79,0,48
1,78,115,0
1,78,0,94
1,76,115,2
1,76,0,46
1,76,115,2
1,76,0,208
1,83,115,224
1,83,0,46
1,83,115,2
1,83,0,46
1,83,115,2
1,83,0,46
1,79,115,2
1,78,115,48
1,79,0,0
1,78,0,46
1,76,115,2
1,76,0,46
1,76,115,2
1,76,0,238
1,76,115,2
1,76,0,142
1,76,115,146
1,76,0,46
1,76,115,2
1,76,0,46
1,78,115,2
1,78,0,94
1,78,115,2
1,78,0,94
1,79,115,2
1,81,115,48
1,79,0,0
1,81,0,94
1,79,115,2
1,79,0,46
1,81,115,2
1,79,115,624
1,81,0,0
1,79,0,160
1,76,115,224
1,76,0,142
1,67,115,2
1,67,0,46
1,69,115,2
1,69,0,46
1,69,115,2
1,69,0,46
1,67,115,2
1,67,0,190
1,76,115,2
1,76,0,46
1,69,115,2
1,69,0,46
1,69,115,2
1,67,115,48
1,69,0,0
1,67,0,142
1,83,115,6530
1,83,0,46
1,83,115,2
1,83,0,46
1,83,115,2
1,83,0,46
1,79,115,2
1,79,0,94
1,78,115,2
1,78,0,46
1,76,115,2
1,76,0,46
1,80,115,2
1,80,0,46
1,80,115,2
1,80,0,160
1,80,115,176
1,80,0,46
1,83,115,2
1,83,0,46
1,83,115,2
1,83,0,46
1,83,115,2
1,83,0,46
1,83,115,2
1,83,0,94
1,83,115,2
1,83,0,46
1,83,115,2
1,83,0,46
1,80,115,2
1,80,0,94
1,80,115,2
1,80,0,94
1,80,115,2
1,80,0,94
1,76,115,2
1,76,0,46
1,74,115,2
1,74,0,94
1,76,115,50
1,76,0,46
1,76,115,2
1,76,0,46
1,78,115,2
1,78,0,190
1,78,115,2
1,78,0,46
1,79,115,2
1,79,0,94
1,79,115,2
1,79,0,46
1,81,115,2
1,81,0,768
1,76,115,240
1,76,0,94
1,69,115,98
1,69,0,46
1,67,115,2
1,67,0,46
1,69,115,2
1,69,0,46
1,67,115,2
1,67,0,46
1,69,115,2
1,67,115,48
1,69,0,0
1,67,0,304
1,74,115,16928
1,71,115,48
1,74,0,0
1,74,115,96
1,71,0,0
1,74,0,96
1,71,115,0
1,74,115,48
1,71,0,0
1,76,115,96
1,74,0,0
1,76,0,256
1,74,115,128
1,71,115,48
1,74,0,0
1,74,115,96
1,71,0,0
1,74,0,96
1,71,115,0
1,74,115,48
1,71,0,0
1,71,115,96
1,74,0,0
1,71,0,256
1,74,115,128
1,71,115,48
1,74,0,0
1,74,115,96
1,71,0,0
1,74,0,208
1,76,115,32
1,74,115,96
1,76,0,0
1,71,115,48
1,74,0,0
1,71,0,48
1,69,115,0
1,67,115,48
1,69,0,0
1,67,0,46
1,69,115,98
1,69,0,48
1,68,115,0
1,69,115,96
1,68,0,0
1,68,115,48
1,69,0,0
1,68,0,96
1,69,115,0
1,69,0,94
1,71,115,2
1,69,115,48
1,71,0,0
1,69,0,48
1,68,115,0
1,64,115,48
1,68,0,0
1,64,0,960
1,74,115,48
1,74,0,48
1,71,115,0
1,74,115,96
1,71,0,0
1,71,115,96
1,74,0,0
1,71,0,48
1,74,115,0
1,76,115,96
1,74,0,0
1,76,0,256
1,74,115,128
1,74,0,48
1,71,115,0
1,74,115,96
1,71,0,0
1,71,115,96
1,74,0,0
1,71,0,48
1,74,115,0
1,71,115,96
1,74,0,0
1,71,0,256
1,74,115,128
1,74,0,48
1,71,115,0
1,74,115,96
1,71,0,0
1,74,0,208
1,76,115,32
1,76,0,96
1,74,115,0
1,71,115,48
1,74,0,0
1,69,115,48
1,71,0,0
1,69,0,48
1,67,115,0
1,67,0,46
1,69,115,98
1,68,115,48
1,69,0,0
1,68,0,96
1,69,115,0
1,68,115,48
1,69,0,0
1,69,115,96
1,68,0,0
1,69,0,94
1,71,115,2
1,69,115,48
1,71,0,0
1,68,115,48
1,69,0,0
1,68,0,48
1,64,115,0
1,64,0,960
1,74,115,48
1,71,115,48
1,74,0,0
1,71,0,96
1,74,115,0
1,71,115,96
1,74,0,0
1,74,115,48
1,71,0,0
1,74,0,96
1,76,115,0
1,76,0,256
1,74,115,128
1,71,115,48
1,74,0,0
1,71,0,96
1,74,115,0
1,71,115,96
1,74,0,0
1,74,115,48
1,71,0,0
1,74,0,96
1,71,115,0
1,71,0,256
1,76,115,128
1,76,0,46
1,76,115,2
1,76,0,94
1,78,115,2
1,78,0,94
1,78,115,2
1,78,0,94
1,79,115,50
1,79,0,94
1,79,115,2
1,79,0,46
1,81,115,2
1,79,115,816
1,81,0,0
1,79,0,160
1,81,115,32
1,81,0,46
1,81,115,2
1,81,0,46
1,81,115,2
1,81,0,46
1,81,115,2
1,81,0,94
1,81,115,2
1,81,0,94
1,81,115,2
1,81,0,94
1,81,115,2
1,81,0,94
1,81,115,2
1,81,0,46
1,79,115,2
1,79,0,160
1,76,115,128
1,76,0,46
1,74,115,2
1,74,0,46
1,76,115,2
1,76,0,94
2,74,115,54960
2,74,0,46
2,73,115,2
2,73,0,46
2,71,115,2
2,71,0,46
2,69,115,2
2,69,0,94
2,64,115,50
2,64,0,46
2,67,115,2
2,67,0,12
2,68,115,0
2,68,0,34
2,67,115,2
2,68,115,12
2,67,0,0
2,68,0,82
2,67,115,2
2,68,115,12
2,67,0,0
2,68,115,36
2,68,0,0
2,68,0,46
2,64,115,2
2,64,0,46
2,62,115,2
2,62,0,94
2,78,115,50
2,78,0,46
2,76,115,2
2,76,0,46
2,74,115,2
2,74,0,46
2,73,115,2
2,73,0,46
2,71,115,2
2,71,0,46
2,68,115,2
2,68,0,46
2,71,115,2
2,71,0,94
2,70,115,2
2,70,0,46
2,71,115,2
2,71,0,46
2,70,115,2
2,70,0,46
2,71,115,2
2,71,0,46
2,68,115,2
2,68,0,46
2,64,115,2
2,64,0,94
2,78,115,50
2,78,0,46
2,76,115,2
2,76,0,46
2,74,115,2
2,74,0,46
2,73,115,2
2,73,0,46
2,71,115,2
2,71,0,46
2,67,115,2
2,67,0,46
2,67,115,2
2,68,115,12
2,67,0,0
2,68,0,34
2,67,115,2
2,68,115,12
2,67,0,0
2,68,0,34
2,67,115,2
2,67,0,12
2,68,115,0
2,68,0,82
2,67,115,2
2,68,115,12
2,67,0,0
2,68,0,28
2,68,115,8
2,68,0,46
2,64,115,2
2,64,0,46
2,62,115,2
2,62,0,94
2,78,115,50
2,78,0,46
2,76,115,2
2,76,0,46
2,74,115,2
2,74,0,46
2,73,115,2
2,73,0,46
2,71,115,2
2,71,0,46
2,67,115,2
2,67,0,46
2,67,115,2
2,67,0,12
2,68,115,0
2,68,0,34
2,67,115,2
2,67,0,12
2,68,115,0
2,68,0,34
2,67,115,2
2,67,0,12
2,68,115,0
2,68,0,82
2,67,115,2
2,68,115,12
2,67,0,0
2,68,0,24
2,68,115,12
2,68,0,46
2,64,115,2
2,64,0,46
2,62,115,2
2,62,0,94
2,59,115,50
2,59,0,46
2,59,115,2
2,59,0,46
2,59,115,2
2,59,0,46
2,59,115,2
2,59,0,46
2,59,115,2
2,59,0,46
2,59,115,2
2,59,0,46
2,59,115,2
2,59,0,46
2,59,115,2
2,59,0,94
2,67,115,2
2,67,0,46
2,67,115,2
2,67,0,94
2,66,115,2
2,66,0,46
2,64,115,2
2,64,0,94
2,59,115,50
2,59,0,46
2,59,115,2
2,59,0,46
2,59,115,2
2,59,0,46
2,59,115,2
2,59,0,46
2,64,115,2
2,64,0,94
2,66,115,2
2,66,0,10
2,67,115,2
2,67,0,82
2,66,115,2
2,66,0,10
2,67,115,2
2,67,0,82
2,66,115,2
2,66,0,10
2,67,115,2
2,67,0,82
2,64,115,2
2,64,0,142
2,71,115,50
2,71,0,46
2,74,115,2
2,74,0,46
2,74,115,2
2,74,0,46
2,74,115,2
2,74,0,46
2,74,115,2
2,74,0,46
2,74,115,2
2,74,0,46
2,74,115,2
2,74,0,46
2,74,115,2
2,74,0,46
2,74,115,2
2,74,0,46
2,73,115,2
2,73,0,46
2,71,115,2
2,71,0,46
2,69,115,2
2,69,0,46
2,67,115,2
2,67,0,46
2,64,115,2
2,64,0,94
2,71,115,50
2,71,0,46
2,74,115,2
2,74,0,46
2,74,115,2
2,74,0,46
2,74,115,2
2,74,0,46
2,74,115,2
2,74,0,46
2,74,115,2
2,74,0,46
2,74,115,2
2,74,0,46
2,74,115,2
2,74,0,46
2,74,115,2
2,74,0,46
2,73,115,2
2,73,0,46
2,71,115,2
2,71,0,46
2,69,115,2
2,69,0,46
2,67,115,2
2,67,0,46
2,64,115,2
2,64,0,94
2,78,115,50
2,78,0,46
2,76,115,2
2,76,0,46
2,74,115,2
2,74,0,46
2,73,115,2
2,73,0,46
2,71,115,2
2,71,0,46
2,67,115,2
2,67,0,46
2,67,115,2
2,68,115,12
2,67,0,0
2,68,0,34
2,67,115,2
2,67,0,12
2,68,115,0
2,68,0,34
2,67,115,2
2,68,115,12
2,67,0,0
2,68,0,82
2,67,115,2
2,67,0,12
2,68,115,0
2,68,0,28
2,68,115,8
2,68,0,46
2,64,115,2
2,64,0,142
2,78,115,50
2,78,0,46
