track,note,velocity,time
1,66,100,11040
1,68,100,4
1,70,100,4
1,68,100,196
1,62,100,4
1,59,100,964
1,62,100,4
1,64,100,4
1,67,100,4
1,64,100,4
1,62,100,4
1,61,100,480
1,60,100,4
1,59,100,4
1,58,100,4
1,57,100,4
1,56,100,4
1,55,100,4
1,59,100,1540
1,62,100,4
1,64,100,4
1,67,100,4
1,64,100,196
1,62,100,4
1,64,100,4
1,62,100,4
1,61,100,4
1,55,100,4
1,59,100,196
1,62,100,4
1,64,100,4
1,67,100,4
1,64,100,4
1,62,100,4
1,61,100,480
1,60,100,4
1,59,100,4
1,58,100,4
1,57,100,4
1,56,100,4
1,71,100,2116
1,71,100,4
1,71,100,4
1,71,100,4
1,76,100,388
1,71,100,4
1,69,100,4
1,67,100,4
1,76,100,964
1,69,100,4
1,70,100,4
1,69,100,4
1,70,100,196
1,67,100,4
1,64,100,4
1,62,100,4
1,59,100,3460
1,62,100,4
1,64,100,4
1,68,100,4
1,64,100,100
1,64,100,196
1,62,100,4
1,62,100,4
1,64,100,4
1,62,100,4
1,59,100,772
1,62,100,4
1,64,100,4
1,67,100,4
1,64,100,672
1,62,100,4
1,61,100,100
1,60,100,4
1,59,100,4
1,58,100,4
1,57,100,4
1,56,100,4
1,59,100,2308
1,62,100,4
1,64,100,4
1,68,100,4
1,64,100,196
1,62,100,100
1,64,100,4
1,61,100,4
1,57,100,4
1,59,100,388
1,62,100,4
1,64,100,4
1,68,100,4
1,64,100,4
1,62,100,4
1,62,100,4
1,61,100,480
1,60,100,4
1,59,100,4
1,58,100,4
1,57,100,4
1,56,100,4
1,52,100,676
1,52,100,4
1,52,100,4
1,52,100,4
1,70,100,1060
1,71,100,0
1,70,100,168
1,71,100,0
1,70,100,360
1,71,100,0
1,70,100,168
1,71,100,0
1,69,100,168
1,71,100,388
1,71,100,4
1,69,100,4
1,67,100,100
1,64,100,4
1,74,100,580
1,76,100,4
1,79,100,4
1,74,100,4
1,71,100,388
1,76,100,4
1,69,100,4
1,64,100,1060
1,64,100,4
1,67,100,4
1,69,100,4
1,70,100,4
1,69,100,4
1,59,100,46084
1,55,100,24
1,59,100,268
1,55,100,24
1,59,100,9580
1,59,100,4
1,76,100,388
1,74,100,4
1,68,100,4
1,68,100,4
1,71,100,4
1,59,100,27556
1,61,100,4
1,64,100,4
1,71,100,100
1,69,100,4
1,68,100,4
1,68,100,4
1,59,100,1732
1,62,100,4
1,64,100,4
1,67,100,4
1,64,100,4
1,62,100,4
1,61,100,100
1,60,100,4
1,59,100,4
1,58,100,4
1,57,100,4
1,56,100,4
1,71,100,696
1,70,100,0
1,69,100,2
1,69,100,0
1,68,100,2
1,69,100,2
1,68,100,0
1,70,100,2
1,69,100,0
1,67,100,2
1,59,100,292
1,62,100,4
1,64,100,4
1,67,100,4
1,64,100,196
1,62,100,4
1,64,100,4
1,62,100,4
1,59,100,772
1,62,100,4
1,64,100,4
1,67,100,4
1,64,100,4
1,62,100,4
1,61,100,100
1,60,100,4
1,59,100,4
1,58,100,4
1,57,100,4
1,56,100,4
1,70,100,2116
1,71,100,0
1,70,100,168
1,71,100,0
1,70,100,360
1,71,100,0
1,70,100,168
1,71,100,0
1,69,100,364
1,69,100,4
1,66,100,4
1,79,100,1348
1,78,100,772
1,78,100,4
1,79,100,580
1,79,100,4
1,79,100,580
1,79,100,4
1,76,100,4
1,74,100,4
1,78,100,580
1,78,100,4
1,74,100,4
1,76,100,4
1,74,100,4
1,80,100,964
1,76,100,100
1,76,100,4
1,80,100,1924
1,76,100,4
1,80,100,4
1,76,100,4
1,80,100,4
1,76,100,100
1,76,100,4
1,71,100,2596
1,71,100,4
1,71,100,4
1,71,100,580
1,75,100,4
1,71,100,4
1,75,100,4
1,71,100,4
1,75,100,4
1,71,100,4
1,75,100,4
1,71,100,4
1,75,100,4
1,71,100,4
1,75,100,4
1,71,100,4
1,75,100,4
1,71,100,4
1,70,100,4
1,69,100,4
1,67,100,4
1,69,100,4
1,67,100,4
1,71,100,772
1,70,100,4
1,75,100,4
1,68,100,4
1,64,100,100
1,62,100,4
2,66,100,4032
2,63,100,4
2,62,100,4
2,64,100,4
2,62,100,4
2,64,100,4
2,64,100,4
2,64,100,4
2,68,100,0
2,69,100,4
2,64,100,0
2,71,100,388
2,71,100,4
2,71,100,4
2,59,100,196
2,58,100,4
2,59,100,4
2,64,127,82948
2,68,127,0
2,71,127,0
2,69,127,4
2,73,127,0
2,71,127,148
2,78,127,0
2,78,127,4
2,74,127,0
2,74,127,0
2,78,127,0
2,74,127,0
2,74,127,4
2,74,127,4
2,73,127,4
2,68,127,4
2,64,127,4
2,71,127,4
2,69,127,0
2,67,127,0
2,64,127,0
2,62,127,4
2,64,127,4
2,59,127,4
2,64,127,0
2,71,127,0
2,69,127,4
2,64,127,4
2,59,127,4
2,68,127,100
2,71,127,0
2,74,127,0
2,78,127,0
2,78,127,4
2,74,127,0
2,78,127,0
2,74,127,0
2,78,127,0
2,74,127,0
2,78,127,4
2,74,127,0
2,74,127,4
2,73,127,4
2,71,127,4
2,67,127,0
2,64,127,0
2,67,127,0
2,69,127,4
2,64,127,0
2,67,127,4
2,64,127,2
2,62,127,2
2,64,127,4
2,64,127,4
2,61,127,0
2,59,127,4
2,64,127,4
2,68,127,0
2,74,127,0
2,73,127,4
2,64,127,100
2,68,127,46
2,74,127,2
2,73,127,4
2,64,127,100
2,68,127,46
2,74,127,2
2,73,127,4
2,64,127,4
2,68,127,46
2,74,127,2
2,73,127,4
2,64,127,4
2,68,127,46
2,74,127,2
2,73,127,4
2,71,127,4
2,93,127,100
2,88,127,0
2,85,127,0
2,69,127,100
2,64,127,0
2,74,127,4
2,74,127,4
2,74,127,4
2,74,127,4
2,74,127,4
2,74,127,4
2,74,127,4
2,74,127,4
2,74,127,4
2,74,127,4
2,74,127,4
2,74,127,4
2,74,127,4
2,73,127,4
2,71,127,4
2,67,127,0
2,64,127,0
2,67,127,0
2,64,127,4
2,62,127,4
2,66,127,772
2,66,127,4
2,66,127,4
2,66,127,4
2,66,127,4
2,66,127,4
2,66,127,4
2,66,127,4
2,66,127,4
2,66,127,4
2,66,127,4
2,66,127,4
2,62,127,4
2,64,127,4
2,62,127,4
2,66,127,4
2,74,127,0
2,73,127,168
2,66,127,4
2,74,127,0
2,73,127,168
2,66,127,4
2,74,127,0
2,73,127,168
2,71,127,4
2,73,127,4
2,71,127,4
2,69,127,4
2,68,127,4
2,69,127,4
2,66,127,4
2,64,127,4
2,66,127,52
2,67,127,4
2,66,127,4
2,67,127,4
2,66,127,4
2,64,127,4
2,64,127,4
2,64,127,4
2,64,127,4
2,64,127,4
2,64,127,4
2,59,127,4
2,58,127,4
2,59,127,292
2,58,127,4
2,67,127,388
2,64,127,100
2,64,127,4
2,67,127,4
2,71,127,0
2,71,127,4
2,67,127,0
2,66,127,4
2,67,127,4
2,66,127,0
2,62,127,0
2,64,127,4
2,64,127,4
2,64,127,4
2,62,127,0
2,68,127,172
2,64,127,4
2,68,127,4
2,71,127,0
2,74,127,0
2,68,127,96
2,71,127,0
2,78,127,0
2,77,127,4
2,78,127,4
2,81,127,4
2,76,127,0
2,74,127,4
2,69,127,4
2,73,127,0
2,71,127,4
2,69,127,4
2,67,127,4
2,64,127,4
2,62,127,4
2,64,127,436
2,62,127,0
2,63,127,4
2,64,127,4
2,63,127,4
2,64,127,0
2,62,127,0
2,64,127,0
2,62,127,0
2,64,127,0
2,62,127,0
2,64,127,0
2,62,127,0
2,64,127,0
2,62,127,0
2,64,100,0
2,62,100,0
2,64,100,4
2,67,100,4
2,69,100,4
2,64,100,4
2,61,100,0
2,64,100,100
2,67,100,0
2,71,100,0
2,69,100,4
2,64,100,100
2,67,100,0
2,71,100,0
2,69,100,4
2,67,100,388
2,64,100,4
2,62,100,4
2,64,100,4
2,62,100,4
2,59,100,388
2,58,100,4
2,68,100,76612
2,64,100,4
2,64,100,4
2,62,100,4
2,64,100,3552
3,59,127,121536
3,64,127,0
3,68,127,168
3,69,127,4
3,68,127,4
3,69,127,4
3,71,127,4
3,74,127,100
3,76,127,0
3,74,127,120
3,69,127,700
3,71,127,0
3,69,127,148
3,68,127,4
3,69,127,4
3,68,127,4
3,64,127,4
3,62,127,4
3,61,127,4
3,64,127,0
3,68,127,168
3,69,127,4
3,68,127,4
3,69,127,4
3,71,127,0
3,72,127,552
3,74,127,0
3,74,127,552
3,76,127,0
3,79,127,552
3,81,127,0
3,80,127,360
3,79,127,484
3,80,127,4
3,79,127,4
3,76,127,4
3,76,127,4
3,76,127,4
3,83,127,4
3,85,127,0
3,83,127,172
3,82,127,4
3,81,127,4
3,79,127,4
3,78,127,4
3,76,127,4
3,73,127,4
3,76,127,4
3,79,127,4
3,76,127,0
3,73,127,0
3,76,127,0
3,73,127,0
3,76,127,0
3,78,127,0
3,80,127,0
3,83,127,104
3,78,127,64
3,80,127,0
3,83,127,100
3,78,127,64
3,78,127,100
3,80,127,14
3,78,127,4
3,78,127,4
3,78,127,4
3,79,127,0
3,78,127,72
3,78,127,4
3,79,127,0
3,78,127,72
3,78,127,4
3,79,127,0
3,78,127,72
3,78,127,4
3,80,127,0
3,78,127,24
3,76,127,0
3,73,127,0
3,76,127,0
3,76,127,0
3,78,127,0
3,80,127,48
3,83,127,128
3,76,127,4
3,83,127,4
3,85,127,0
3,83,127,168
3,82,127,4
3,81,127,4
3,80,127,0
3,78,127,0
3,76,127,0
3,78,127,4
3,76,127,0
3,73,127,0
3,76,127,0
3,73,127,0
3,76,127,0
3,78,127,0
3,80,127,0
3,83,127,104
3,78,127,64
3,80,127,4
3,78,127,4
3,79,127,0
3,78,127,168
3,78,127,108
3,79,127,20
3,78,127,68
3,78,127,48
3,80,127,22
3,78,127,4
3,76,127,0
3,73,127,0
3,76,127,0
3,78,127,4
3,76,127,4
3,78,127,4
3,76,127,4
3,78,127,4
3,73,127,4
3,78,127,132
3,73,127,64
3,78,127,100
3,73,127,4
3,78,127,100
3,73,127,4
3,78,127,100
3,73,127,4
3,71,127,4
3,73,127,4
3,76,127,4
3,79,127,4
3,81,127,0
3,79,127,168
3,81,127,0
3,79,127,72
3,76,127,4
3,74,127,4
3,76,127,4
3,74,127,4
3,71,127,4
3,74,127,4
3,73,127,0
3,71,127,0
3,73,127,0
3,69,127,4
3,59,127,196
3,61,127,0
3,64,127,72
3,71,127,4
3,73,127,4
3,71,127,4
3,69,127,0
3,71,127,104
3,69,127,64
3,69,127,4
3,71,127,0
3,69,127,24
3,67,127,0
3,64,127,0
3,67,127,0
3,64,127,0
3,67,127,0
3,69,127,0
3,71,127,0
3,74,127,104
3,69,127,64
3,71,127,0
3,69,127,20
3,67,127,0
3,64,127,0
3,67,127,0
3,64,127,0
3,62,127,0
3,64,127,32
3,62,127,32
3,64,127,4
3,57,127,4
3,59,127,0
3,64,127,168
3,59,127,192
3,58,127,4
3,64,127,4
3,58,127,4
3,57,127,4
3,64,127,4
3,57,127,4
3,56,127,4
3,64,127,4
3,59,127,4
4,74,100,1536
4,76,100,24
4,76,100,166
4,74,100,4
4,76,100,4
4,72,100,4
4,74,100,0
4,71,100,168
4,69,100,4
4,67,100,4
4,64,100,4
4,59,100,4
4,74,100,388
4,76,100,24
4,76,100,166
4,75,100,4
4,76,100,4
4,74,100,4
4,71,100,4
4,69,100,4
4,71,100,4
4,69,100,4
4,67,100,4
4,68,100,4
4,64,100,96
4,56,100,4
4,59,100,24
4,64,100,100
4,68,100,4
4,64,100,0
4,67,100,64
4,64,100,4
4,66,100,24
4,64,100,358
4,63,100,108
4,64,100,4
4,59,100,132
4,64,100,26
4,68,100,26
4,63,100,16
4,59,100,0
4,54,100,0
4,62,100,4
4,58,100,0
4,53,100,0
4,63,100,4
4,59,100,0
4,54,100,0
4,40,100,4
4,43,100,4
4,45,100,2
4,43,100,358
4,40,100,4
4,40,100,4
4,40,100,4
4,40,100,4
4,40,100,4
4,40,100,4
4,43,100,4
4,45,100,0
4,45,100,168
4,43,100,4
4,40,100,4
4,59,100,4
4,64,100,4
4,66,100,4
4,67,100,0
4,64,100,172
4,62,100,4
4,61,100,480
4,60,100,4
4,59,100,4
4,58,100,4
4,40,100,100
4,43,100,4
4,45,100,2
4,43,100,358
4,40,100,4
4,40,100,4
4,40,100,4
4,40,100,4
4,40,100,4
4,59,100,4
4,62,100,4
4,64,100,4
4,66,100,4
4,67,100,0
4,62,100,172
4,64,100,0
4,62,100,360
4,64,100,4
4,62,100,4
4,61,100,4
4,58,100,4
4,68,100,196
4,59,100,4
4,62,100,4
4,64,100,4
4,66,100,4
4,67,100,0
4,62,100,744
4,64,100,0
4,62,100,360
4,61,100,460
4,60,100,4
4,59,100,4
4,58,100,4
4,40,100,196
4,43,100,4
4,45,100,2
4,43,100,358
4,40,100,4
4,40,100,4
4,40,100,4
4,40,100,4
4,40,100,4
4,69,100,4
4,71,100,0
4,71,100,168
4,69,100,100
4,71,100,4
4,73,100,196
4,75,100,0
4,71,100,168
4,69,100,4
4,68,100,4
4,64,100,4
4,73,100,360
4,76,100,2
4,74,100,388
4,76,100,4
4,74,100,4
4,71,100,4
4,69,100,4
4,71,100,4
4,69,100,4
4,67,100,4
4,68,100,4
4,64,100,96
4,57,100,550
4,59,100,4
4,64,100,4
4,68,100,4
4,64,100,128
4,67,100,4
4,64,100,4
4,66,100,4
4,64,100,4
4,62,100,4
4,57,100,0
4,68,100,100
4,64,100,0
4,59,100,0
4,63,100,4
4,59,100,0
4,54,100,0
4,62,100,4
4,58,100,0
4,53,100,0
4,63,100,4
4,59,100,0
4,54,100,0
4,61,100,4
4,57,100,0
4,52,100,0
4,40,100,0
4,43,100,4
4,45,100,2
4,43,100,358
4,40,100,4
4,40,100,4
4,40,100,4
4,40,100,4
4,40,100,4
4,40,100,4
4,43,100,4
4,45,100,2
4,43,100,358
4,40,100,4
4,68,100,4
4,64,100,0
4,59,100,4
4,62,100,4
4,64,100,4
4,66,100,4
4,67,100,4
4,62,100,4
4,64,100,4
4,62,100,196
4,61,100,100
4,60,100,4
4,59,100,4
4,58,100,4
4,40,100,100
4,43,100,4
4,45,100,2
4,43,100,358
4,40,100,4
4,40,100,4
4,40,100,4
4,40,100,4
4,40,100,4
4,59,100,4
4,62,100,4
4,64,100,4
4,66,100,4
4,67,100,0
4,62,100,744
4,64,100,4
4,62,100,100
4,64,100,292
4,62,100,4
4,60,100,4
4,58,100,4
4,64,100,4
4,59,100,4
4,62,100,4
4,64,100,4
4,66,100,4
4,67,100,0
4,62,100,172
4,64,100,0
4,62,100,168
4,61,100,460
4,60,100,4
4,59,100,4
4,58,100,4
4,40,100,4
4,43,100,4
4,45,100,2
4,43,100,358
4,40,100,4
4,40,100,4
4,40,100,4
4,40,100,4
4,40,100,4
4,69,100,196
4,71,100,4
4,71,100,4
4,69,100,4
4,71,100,4
4,68,100,4
4,71,100,4
4,76,100,0
4,71,100,4
4,69,100,4
4,68,100,196
4,86,100,868
4,88,100,24
4,88,100,166
4,86,100,4
4,88,100,4
4,86,100,4
4,83,100,4
4,81,100,128
4,83,100,4
4,81,100,4
4,76,100,4
4,80,100,4
4,76,100,4
4,69,100,4
4,71,100,0
4,76,100,168
4,80,100,4
4,76,100,4
4,79,100,4
4,76,100,4
4,78,100,0
4,76,100,360
4,75,100,108
4,76,100,4
4,80,100,4
4,81,100,4
4,82,100,4
4,83,100,4
4,66,100,4
4,71,100,0
4,76,100,168
4,71,100,4
4,40,60,4
4,40,60,4
4,40,60,4
4,40,60,4
4,40,60,4
4,40,60,4
4,43,60,4
4,45,60,2
4,43,60,358
4,40,60,4
4,47,60,0
4,40,60,4
4,47,60,0
4,40,60,4
4,49,60,0
4,40,60,4
4,49,60,0
4,40,60,4
4,47,60,0
4,40,60,4
4,45,60,0
4,52,60,4
4,45,60,0
4,43,60,4
4,50,60,0
4,40,60,4
4,47,60,0
4,40,60,4
4,47,60,0
4,40,60,4
4,49,60,0
