track,note,velocity,time
1,74,127,420
1,67,127,0
1,62,127,0
1,55,127,0
1,55,0,180
1,74,0,0
1,67,0,0
1,62,0,0
1,74,127,0
1,67,127,0
1,62,127,0
1,55,127,0
1,55,0,60
1,74,0,0
1,67,0,0
1,62,0,0
1,76,127,120
1,72,127,0
1,67,127,0
1,67,0,60
1,72,0,0
1,76,0,0
1,70,127,0
1,65,127,0
1,65,0,30
1,70,0,0
1,72,127,0
1,67,127,0
1,67,0,30
1,72,0,0
1,74,127,0
1,67,127,0
1,62,127,0
1,55,127,0
1,55,0,180
1,74,0,0
1,67,0,0
1,62,0,0
1,74,127,0
1,67,127,0
1,62,127,0
1,55,127,0
1,55,0,60
1,74,0,0
1,67,0,0
1,62,0,0
1,74,127,240
1,67,127,0
1,62,127,0
1,55,127,0
1,55,0,180
1,74,0,0
1,67,0,0
1,62,0,0
1,74,127,0
1,67,127,0
1,62,127,0
1,55,127,0
1,55,0,60
1,74,0,0
1,67,0,0
1,62,0,0
1,72,127,120
1,67,127,0
1,67,0,60
1,72,0,0
1,70,127,0
1,65,127,0
1,65,0,30
1,70,0,0
1,72,127,0
1,67,127,0
1,67,0,30
1,72,0,0
1,74,127,0
1,67,127,0
1,62,127,0
1,55,127,0
1,69,100,293
1,50,100,3
1,57,100,0
1,62,100,0
1,55,0,4
1,62,0,0
1,74,0,0
1,67,0,0
1,69,0,53
1,62,0,3
1,50,0,0
1,57,0,0
1,50,100,4
1,62,100,0
1,69,100,4
1,57,100,3
1,62,0,113
1,50,0,0
1,74,127,0
1,67,127,0
1,62,127,0
1,55,127,0
1,69,0,4
1,57,0,3
1,62,0,173
1,67,0,0
1,55,0,0
1,74,0,0
1,74,127,0
1,67,127,0
1,62,127,0
1,55,127,0
1,55,0,60
1,74,0,0
1,67,0,0
1,62,0,0
1,72,127,120
1,67,127,0
1,67,0,60
1,72,0,0
1,70,127,0
1,65,127,0
1,65,0,30
1,70,0,0
1,72,127,0
1,67,127,0
1,67,0,30
1,72,0,0
1,74,127,0
1,67,127,0
1,62,127,0
1,55,127,0
1,55,0,180
1,74,0,0
1,67,0,0
1,62,0,0
1,74,127,0
1,67,127,0
1,62,127,0
1,55,127,0
1,55,0,60
1,74,0,0
1,67,0,0
1,62,0,0
1,74,127,240
1,67,127,0
1,62,127,0
1,55,127,0
1,55,0,180
1,74,0,0
1,67,0,0
1,62,0,0
1,74,127,0
1,67,127,0
1,62,127,0
1,55,127,0
1,55,0,60
1,74,0,0
1,67,0,0
1,62,0,0
1,72,127,120
1,67,127,0
1,67,0,60
1,72,0,0
1,70,127,0
1,65,127,0
1,65,0,30
1,70,0,0
1,72,127,0
1,67,127,0
1,67,0,30
1,72,0,0
1,74,127,0
1,67,127,0
1,62,127,0
1,55,127,0
1,55,0,180
1,74,0,0
1,67,0,0
1,62,0,0
1,74,127,0
1,67,127,0
1,62,127,0
1,55,127,0
1,55,0,60
1,74,0,0
1,67,0,0
1,62,0,0
1,72,127,120
1,67,127,0
1,67,0,60
1,72,0,0
1,70,127,0
1,70,0,30
1,69,127,0
1,69,0,30
1,72,127,0
1,67,127,0
1,67,0,120
1,72,0,0
1,72,127,0
1,67,127,0
1,67,0,30
1,72,0,0
1,72,127,0
1,69,127,0
1,69,0,30
1,72,0,0
1,72,127,0
1,67,127,0
1,67,0,30
1,72,0,0
1,72,127,0
1,69,127,0
1,69,0,90
1,72,0,0
1,74,127,0
1,67,127,0
1,67,0,30
1,74,0,0
1,72,127,0
1,67,127,0
1,67,0,30
1,72,0,0
1,72,127,120
1,67,127,0
1,67,0,90
1,72,0,0
1,72,127,0
1,67,127,0
1,67,0,30
1,72,0,0
1,72,127,0
1,69,127,0
1,69,0,30
1,72,0,0
1,72,127,0
1,67,127,0
1,67,0,30
1,72,0,0
1,72,127,0
1,67,127,0
1,67,0,30
1,72,0,0
1,72,127,0
1,67,127,0
1,67,0,30
1,72,0,0
1,72,127,0
1,69,127,0
1,69,0,30
1,72,0,0
1,72,127,0
1,67,127,0
1,67,0,30
1,72,0,0
1,74,127,180
1,67,127,0
1,62,127,0
1,55,127,0
1,55,0,180
1,74,0,0
1,67,0,0
1,62,0,0
1,74,127,0
1,67,127,0
1,62,127,0
1,55,127,0
1,55,0,60
1,74,0,0
1,67,0,0
1,62,0,0
1,76,127,120
1,72,127,0
1,67,127,0
1,67,0,60
1,72,0,0
1,70,127,0
1,65,127,0
1,65,0,30
1,70,0,0
1,76,0,0
1,72,127,0
1,67,127,0
1,67,0,30
1,72,0,0
1,74,127,0
1,67,127,0
1,62,127,0
1,55,127,0
1,55,0,180
1,74,0,0
1,67,0,0
1,62,0,0
1,74,127,0
1,67,127,0
1,62,127,0
1,55,127,0
1,55,0,60
1,74,0,0
1,67,0,0
1,62,0,0
1,72,127,120
1,67,127,0
1,67,0,60
1,72,0,0
1,70,127,0
1,70,0,30
1,69,127,0
1,69,0,30
1,72,127,0
1,67,127,0
1,67,0,120
1,72,0,0
1,72,127,0
1,67,127,0
1,67,0,30
1,72,0,0
1,72,127,0
1,69,127,0
1,69,0,30
1,72,0,0
1,72,127,0
1,67,127,0
1,67,0,30
1,72,0,0
1,72,127,0
1,69,127,0
1,69,0,90
1,72,0,0
1,74,127,0
1,67,127,0
1,67,0,30
1,74,0,0
1,72,127,0
1,67,127,0
1,67,0,30
1,72,0,0
1,72,127,120
1,67,127,0
1,67,0,90
1,72,0,0
1,72,127,0
1,67,127,0
1,67,0,30
1,72,0,0
1,74,127,0
1,67,127,0
1,67,0,30
1,74,0,0
1,72,127,0
1,67,127,0
1,67,0,30
1,72,0,0
1,72,127,0
1,69,127,0
1,69,0,30
1,72,0,0
1,72,127,0
1,67,127,0
1,67,0,30
1,72,0,0
1,74,127,0
1,67,127,0
1,67,0,30
1,74,0,0
1,72,127,0
1,67,127,0
1,67,0,30
1,72,0,0
1,74,127,180
1,67,127,0
1,62,127,0
1,55,127,0
1,55,0,180
1,74,0,0
1,67,0,0
1,62,0,0
1,74,127,0
1,67,127,0
1,62,127,0
1,55,127,0
1,55,0,60
1,74,0,0
1,67,0,0
1,62,0,0
1,72,127,120
1,67,127,0
1,67,0,60
1,72,0,0
1,70,127,0
1,65,127,0
1,65,0,30
1,70,0,0
1,72,127,0
1,67,127,0
1,67,0,30
1,72,0,0
1,74,127,0
1,67,127,0
1,62,127,0
1,55,127,0
1,55,0,180
1,74,0,0
1,67,0,0
1,62,0,0
1,74,127,0
1,67,127,0
1,62,127,0
1,55,127,0
1,55,0,60
1,74,0,0
1,67,0,0
1,62,0,0
1,72,127,120
1,67,127,0
1,67,0,60
1,72,0,0
1,70,127,0
1,70,0,30
1,69,127,0
1,69,0,30
1,72,127,0
1,67,127,0
1,67,0,120
1,72,0,0
1,72,127,0
1,67,127,0
1,67,0,30
1,72,0,0
1,72,127,0
1,69,127,0
1,69,0,30
1,72,0,0
1,72,127,0
1,67,127,0
1,67,0,30
1,72,0,0
1,72,127,0
1,69,127,0
1,69,0,90
1,72,0,0
1,74,127,0
1,67,127,0
1,67,0,30
1,74,0,0
1,72,127,0
1,67,127,0
1,67,0,30
1,72,0,0
1,72,127,120
1,67,127,0
1,67,0,90
1,72,0,0
1,72,127,0
1,67,127,0
1,67,0,30
1,72,0,0
1,74,127,0
1,67,127,0
1,67,0,30
1,74,0,0
1,72,127,0
1,67,127,0
1,67,0,30
1,72,0,0
1,72,127,0
1,69,127,0
1,69,0,30
1,72,0,0
1,72,127,0
1,67,127,0
1,67,0,30
1,72,0,0
1,74,127,0
1,67,127,0
1,67,0,30
1,74,0,0
1,72,127,0
1,67,127,0
1,67,0,30
1,72,0,0
1,74,127,180
1,67,127,0
1,62,127,0
1,55,127,0
1,55,0,180
1,74,0,0
1,67,0,0
1,62,0,0
1,74,127,0
1,67,127,0
1,62,127,0
1,55,127,0
1,55,0,60
1,74,0,0
1,67,0,0
1,62,0,0
1,72,127,120
1,67,127,0
1,67,0,60
1,72,0,0
1,70,127,0
1,65,127,0
1,65,0,30
1,70,0,0
1,72,127,0
1,67,127,0
1,67,0,30
1,72,0,0
1,74,127,0
1,67,127,0
1,62,127,0
1,55,127,0
1,55,0,180
1,74,0,0
1,67,0,0
1,62,0,0
1,74,127,0
1,67,127,0
1,62,127,0
1,55,127,0
1,55,0,60
1,74,0,0
1,67,0,0
1,62,0,0
1,72,127,120
1,67,127,0
1,67,0,60
1,72,0,0
1,70,127,0
1,65,127,0
1,65,0,30
1,70,0,0
1,67,127,0
1,62,127,0
1,62,0,90
1,67,0,0
1,75,127,0
1,70,127,0
1,63,127,0
1,63,0,90
1,70,0,0
1,75,0,0
1,75,127,0
1,70,127,0
1,63,127,0
1,63,0,30
1,70,0,0
1,75,0,0
1,75,127,0
1,70,127,0
1,63,127,0
1,63,0,60
1,70,0,0
1,75,0,0
1,75,127,60
1,70,127,0
1,63,127,0
1,63,0,30
1,70,0,0
1,75,0,0
1,77,127,0
1,72,127,0
1,65,127,0
1,65,0,60
1,72,0,0
1,77,0,0
1,77,127,0
1,72,127,0
1,65,127,0
1,65,0,30
1,72,0,0
1,77,0,0
1,64,127,0
1,57,127,0
1,57,0,30
1,64,0,0
1,65,127,0
1,58,127,0
1,58,0,30
1,65,0,0
1,65,127,60
1,58,127,0
1,58,0,30
1,65,0,0
1,67,127,0
1,60,127,0
1,60,0,60
1,67,0,0
1,67,127,0
1,60,127,0
1,60,0,30
1,67,0,0
1,79,127,0
1,74,127,0
1,67,127,0
1,67,0,30
1,74,0,0
1,79,0,0
1,79,127,0
1,74,127,0
1,67,127,0
1,67,0,90
1,74,0,0
1,79,0,0
1,76,127,0
1,71,127,0
1,64,127,0
1,64,0,120
1,71,0,0
1,76,0,0
1,79,127,0
1,74,127,0
1,67,127,0
1,67,0,60
1,74,0,0
1,79,0,0
1,75,127,60
1,70,127,0
1,63,127,0
1,63,0,90
1,70,0,0
1,75,0,0
1,75,127,0
1,70,127,0
1,63,127,0
1,63,0,30
1,70,0,0
1,75,0,0
1,75,127,0
1,70,127,0
1,63,127,0
1,63,0,60
1,70,0,0
1,75,0,0
1,75,127,60
1,70,127,0
1,63,127,0
1,63,0,30
1,70,0,0
1,75,0,0
1,77,127,0
1,72,127,0
1,65,127,0
1,65,0,60
1,72,0,0
1,77,0,0
1,77,127,0
1,72,127,0
1,65,127,0
1,65,0,30
1,72,0,0
1,77,0,0
1,64,127,0
1,57,127,0
1,57,0,30
1,64,0,0
1,65,127,0
1,58,127,0
1,58,0,30
1,65,0,0
1,65,127,0
1,58,127,0
1,58,0,30
1,65,0,0
1,67,127,0
1,60,127,0
1,60,0,60
1,67,0,0
1,67,127,0
1,60,127,0
1,60,0,30
1,67,0,0
1,79,127,0
1,74,127,0
1,67,127,0
1,67,0,30
1,74,0,0
1,79,0,0
1,79,127,0
1,74,127,0
1,67,127,0
1,67,0,90
1,74,0,0
1,79,0,0
1,77,127,0
1,74,127,0
1,69,127,0
1,69,0,60
1,74,0,0
1,77,0,0
1,77,127,0
1,74,127,0
1,69,127,0
1,69,0,60
1,74,0,0
1,77,0,0
1,83,127,0
1,79,127,0
1,74,127,0
1,74,0,60
1,79,0,0
1,83,0,0
1,74,127,0
1,67,127,0
1,62,127,0
1,62,0,180
1,67,0,0
1,74,0,0
1,74,127,0
1,67,127,0
1,62,127,0
1,62,0,60
1,67,0,0
1,74,0,0
1,74,127,240
1,67,127,0
1,62,127,0
1,55,127,0
1,55,0,180
1,74,0,0
1,67,0,0
1,62,0,0
1,74,127,0
1,67,127,0
1,62,127,0
1,55,127,0
1,55,0,60
1,74,0,0
1,67,0,0
1,62,0,0
1,74,127,240
1,67,127,0
1,62,127,0
1,55,127,0
1,55,0,180
1,74,0,0
1,67,0,0
1,62,0,0
1,74,127,0
1,67,127,0
1,62,127,0
1,55,127,0
1,55,0,60
1,74,0,0
1,67,0,0
1,62,0,0
1,76,127,120
1,72,127,0
1,67,127,0
1,67,0,60
1,72,0,0
1,76,0,0
1,70,127,0
1,65,127,0
1,65,0,30
1,70,0,0
1,72,127,0
1,67,127,0
1,67,0,30
1,72,0,0
1,74,127,0
1,67,127,0
1,62,127,0
1,55,127,0
1,55,0,180
1,74,0,0
1,67,0,0
1,62,0,0
1,74,127,0
1,67,127,0
1,62,127,0
1,55,127,0
1,55,0,120
1,74,0,0
1,67,0,0
1,62,0,0
1,69,127,0
1,62,127,0
1,57,127,0
1,50,127,0
1,50,0,120
1,69,0,0
1,62,0,0
1,57,0,0
1,74,127,0
1,67,127,0
1,62,127,0
1,55,127,0
1,55,0,60
1,74,0,0
1,67,0,0
1,62,0,0
1,74,127,0
1,67,127,0
1,62,127,0
1,55,127,0
1,55,0,180
1,74,0,0
1,67,0,0
1,62,0,0
1,74,127,0
1,67,127,0
1,62,127,0
1,55,127,0
1,55,0,60
1,74,0,0
1,67,0,0
1,62,0,0
1,76,127,120
1,72,127,0
1,67,127,0
1,67,0,60
1,72,0,0
1,76,0,0
1,70,127,0
1,65,127,0
1,65,0,30
1,70,0,0
1,72,127,0
1,67,127,0
1,67,0,30
1,72,0,0
1,74,127,0
1,67,127,0
1,62,127,0
1,55,127,0
1,55,0,180
1,74,0,0
1,67,0,0
1,62,0,0
1,74,127,0
1,67,127,0
1,62,127,0
1,55,127,0
1,55,0,60
1,74,0,0
1,67,0,0
1,62,0,0
1,74,127,240
1,67,127,0
1,62,127,0
1,55,127,0
1,55,0,180
1,74,0,0
1,67,0,0
1,62,0,0
1,74,127,0
1,67,127,0
1,62,127,0
1,55,127,0
1,55,0,60
1,74,0,0
1,67,0,0
1,62,0,0
1,76,127,120
1,72,127,0
1,67,127,0
1,67,0,60
1,72,0,0
1,76,0,0
1,70,127,0
1,65,127,0
1,65,0,30
1,70,0,0
1,72,127,0
1,67,127,0
1,67,0,30
1,72,0,0
1,74,127,0
1,67,127,0
1,62,127,0
1,55,127,0
1,55,0,180
1,74,0,0
1,67,0,0
1,62,0,0
1,74,127,0
1,67,127,0
1,62,127,0
1,55,127,0
1,55,0,60
1,74,0,0
1,67,0,0
1,62,0,0
1,72,127,120
1,67,127,0
1,67,0,60
1,72,0,0
1,70,127,0
1,70,0,30
1,69,127,0
1,69,0,30
1,72,127,0
1,67,127,0
1,67,0,120
1,72,0,0
1,72,127,0
1,67,127,0
1,67,0,30
1,72,0,0
1,72,127,0
1,69,127,0
1,69,0,30
1,72,0,0
1,72,127,0
1,67,127,0
1,67,0,30
1,72,0,0
1,72,127,0
1,69,127,0
1,69,0,90
1,72,0,0
1,74,127,0
1,67,127,0
1,67,0,30
1,74,0,0
1,72,127,0
1,67,127,0
1,67,0,30
1,72,0,0
1,72,127,120
1,67,127,0
1,67,0,90
1,72,0,0
1,72,127,0
1,67,127,0
1,67,0,30
1,72,0,0
1,72,127,0
1,69,127,0
1,69,0,30
1,72,0,0
1,72,127,0
1,67,127,0
1,67,0,30
1,72,0,0
1,72,127,0
1,67,127,0
1,67,0,30
1,72,0,0
1,72,127,0
1,67,127,0
1,67,0,30
1,72,0,0
1,72,127,0
1,69,127,0
1,69,0,30
1,72,0,0
1,72,127,0
1,67,127,0
1,67,0,30
1,72,0,0
1,74,127,180
1,67,127,0
1,62,127,0
1,55,127,0
1,55,0,180
1,74,0,0
1,67,0,0
1,62,0,0
1,74,127,0
1,67,127,0
1,62,127,0
1,55,127,0
1,55,0,60
1,74,0,0
1,67,0,0
1,62,0,0
1,76,127,120
1,72,127,0
1,67,127,0
1,67,0,60
1,72,0,0
1,70,127,0
1,65,127,0
1,65,0,30
1,70,0,0
1,76,0,0
1,72,127,0
1,67,127,0
1,67,0,30
1,72,0,0
1,74,127,0
1,67,127,0
1,62,127,0
1,55,127,0
1,55,0,180
1,74,0,0
1,67,0,0
1,62,0,0
1,74,127,0
1,67,127,0
1,62,127,0
1,55,127,0
1,55,0,60
1,74,0,0
1,67,0,0
1,62,0,0
1,72,127,120
1,67,127,0
