track,note,velocity,time
13,60,109,5
13,60,105,16
13,60,103,21
13,60,111,4
13,58,123,6
13,60,109,2
13,58,109,0
13,60,101,48
13,53,113,8
13,55,105,144
13,55,107,18
13,53,92,0
13,51,113,51
13,60,93,605
13,60,93,2
13,58,103,5
13,60,93,0
13,58,101,48
13,60,92,6
13,63,107,3
13,62,93,4
13,60,93,0
13,55,95,32
13,53,93,3
13,53,99,24
13,51,107,0
13,48,101,5
13,65,93,3
13,72,92,13
13,72,93,18
13,72,90,16
13,70,107,46
13,72,107,27
13,63,86,56
13,65,85,51
13,65,95,22
13,65,101,5
13,63,95,31
13,53,85,7
13,60,86,18
13,60,92,13
13,60,97,12
13,63,111,19
13,60,90,0
13,58,87,3
13,60,90,40
13,63,95,44
13,60,72,4
13,58,73,48
13,60,85,0
13,58,72,50
13,60,86,2
13,63,92,2
13,60,66,0
13,58,72,48
13,60,82,2
13,58,80,48
13,60,83,3
13,63,101,3
13,60,77,5
13,58,76,48
13,60,82,3
13,58,83,48
13,60,71,5
13,63,92,12
13,60,81,0
13,58,80,53
13,60,90,3
13,58,87,20
13,58,107,1
13,60,109,1
13,60,77,602
13,62,99,46
13,62,90,16
13,62,105,2
13,62,87,11
13,62,83,14
13,62,82,22
13,62,85,22
13,62,95,4
13,63,95,0
13,62,103,5
13,67,95,813
13,67,99,5
13,67,97,7
13,67,103,18
13,67,103,21
13,65,95,4
13,68,92,207
13,68,109,32
13,68,101,26
13,68,111,38
13,67,95,47
13,68,115,8
13,68,115,14
13,67,101,0
13,72,101,2
13,70,81,0
13,72,90,29
13,72,95,14
13,72,97,1
13,70,105,0
13,72,109,29
13,60,77,3
13,74,107,2
13,72,92,3
13,74,92,0
13,72,87,48
13,72,99,19
13,72,105,14
13,68,109,1
13,65,101,0
13,63,105,3
13,58,111,658
13,60,93,3
13,63,105,50
13,62,111,10
13,72,115,2
13,72,109,6
13,70,101,3
13,72,107,3
13,72,107,102
13,70,71,32
13,72,90,33
13,70,107,32
13,72,85,31
13,70,87,24
13,72,107,16
13,72,105,14
13,77,105,4
13,75,101,0
13,74,113,0
13,58,111,617
13,60,90,1
13,58,101,0
13,60,92,0
13,60,90,14
13,60,107,16
13,60,97,23
13,63,117,2
13,55,115,85
13,60,99,3
13,63,93,38
13,60,86,4
13,58,101,48
13,55,86,3
13,55,93,17
13,53,89,48
13,51,86,46
13,51,92,11
13,53,86,96
13,51,93,3
13,53,76,1
13,55,90,0
13,53,93,48
13,55,89,3
13,55,97,2
13,55,85,10
13,55,105,24
13,58,107,144
13,60,97,3
13,63,121,1
13,74,127,3
13,74,109,1
13,72,97,0
13,60,101,6
13,67,85,2
13,67,97,22
13,67,85,16
13,77,127,2
13,75,111,0
13,74,99,145
13,72,111,1
13,72,93,10
13,72,109,18
13,70,113,0
13,72,109,3
13,72,109,3
13,72,97,12
13,72,109,19
13,70,89,32
13,72,107,28
13,70,111,4
13,67,109,2
13,67,103,14
13,65,101,42
13,63,101,0
13,77,127,2
13,75,105,5
13,75,117,2
13,74,105,0
13,72,101,0
13,72,111,3
13,60,115,0
13,60,103,3
13,58,101,43
13,60,103,3
13,58,105,33
13,55,89,43
13,55,101,17
13,53,109,4
13,51,103,30
13,67,95,3
13,70,87,22
13,72,101,24
13,72,113,0
13,67,97,3
13,70,99,11
13,72,107,26
13,72,85,5
13,72,92,13
13,72,111,14
13,67,103,2
13,70,93,2
13,72,107,0
13,67,95,2
13,70,107,3
13,72,105,32
13,72,109,11
13,75,117,15
13,72,85,153
13,72,97,3
13,70,95,21
13,72,90,31
13,72,97,11
13,72,87,15
13,72,107,17
13,72,107,16
13,72,103,4
13,70,93,19
13,72,87,24
13,72,80,11
13,72,77,16
13,72,85,19
13,72,109,23
13,70,107,2
13,72,95,34
13,70,95,0
13,72,97,27
13,72,90,19
13,72,90,19
13,75,119,19
13,70,115,5
13,72,89,0
13,72,103,18
13,75,115,2
13,75,85,18
13,75,99,16
13,74,107,0
13,72,99,0
13,72,97,2
13,68,109,6
13,65,107,3
13,63,107,0
13,72,105,2
13,72,71,11
13,72,85,13
13,72,97,17
13,72,103,22
13,72,73,16
13,72,90,19
13,72,107,3
13,72,105,24
13,72,115,26
13,72,105,1
13,72,101,23
13,70,97,18
13,70,117,11
13,70,113,0
13,70,85,16
13,70,95,19
13,67,73,32
13,72,90,24
13,72,92,11
13,72,69,14
13,72,101,3
13,72,82,1
13,72,99,11
13,70,109,32
13,70,113,20
13,67,86,3
13,60,81,2
13,62,78,1
13,64,109,5
13,67,109,0
13,70,123,0
13,72,109,2
13,70,93,1
13,72,92,32
13,70,95,0
13,72,89,32
13,72,97,3
13,72,97,16
13,68,90,0
13,72,92,3
13,68,85,0
13,72,99,2
13,68,95,25
13,72,92,3
13,68,103,1
13,72,93,1
13,68,99,0
13,72,90,3
13,68,89,2
13,72,89,3
13,68,99,0
13,67,93,27
13,68,95,0
13,67,82,27
13,68,97,32
13,67,97,6
13,67,103,24
13,65,87,14
13,63,105,0
13,60,92,5
13,60,101,22
13,63,115,3
13,63,113,2
13,79,120,19
13,77,107,5
13,75,119,0
13,74,97,144
13,75,121,2
13,74,117,2
13,72,111,2
13,74,105,3
13,72,97,5
13,72,111,21
13,72,101,13
13,72,105,26
13,70,95,0
13,70,117,24
13,72,109,16
13,72,109,3
13,72,107,13
13,70,107,21
13,70,109,11
13,72,111,12
13,72,105,3
13,72,101,11
13,72,57,6
13,70,113,2
13,70,105,13
13,72,113,15
13,72,107,2
13,67,111,2
13,67,103,12
13,65,95,25
13,63,123,5
13,70,105,3
13,72,101,44
13,72,105,16
13,72,113,24
13,75,121,1
13,72,97,0
13,72,115,24
13,77,121,0
13,75,119,0
13,74,92,0
13,75,117,59
13,74,87,42
13,75,123,40
13,74,107,4
13,72,103,2
13,72,103,3
13,72,82,12
13,72,111,21
13,72,107,4
13,70,119,31
13,72,107,3
13,72,107,20
13,70,111,0
13,72,111,46
13,67,111,1
13,67,113,18
13,65,117,0
13,63,117,27
14,40,117,0
14,42,103,189
14,36,107,1
14,36,109,45
14,42,107,3
14,42,89,67
14,42,97,43
14,36,113,3
14,42,105,19
14,40,117,2
14,42,92,80
14,36,73,8
14,42,89,0
14,36,107,51
14,42,83,2
14,42,73,78
14,42,81,27
14,36,93,5
14,40,115,32
14,42,97,0
14,42,75,75
14,42,74,77
14,36,90,1
14,36,101,51
14,42,95,0
14,42,77,79
14,42,71,28
14,36,56,3
14,36,93,30
14,42,103,14
14,40,117,3
14,42,87,84
14,42,76,8
14,36,97,3
14,42,83,40
14,36,107,1
14,42,73,78
14,42,81,48
14,36,77,3
14,40,117,21
14,42,97,1
14,42,75,75
14,42,74,77
14,36,89,2
14,36,103,46
14,42,95,3
14,42,77,47
14,42,71,77
14,36,103,1
14,42,103,48
14,40,119,3
14,42,87,32
14,42,76,80
14,36,101,3
14,42,83,58
14,36,111,1
14,42,73,50
14,42,81,74
14,36,101,3
14,40,111,61
14,42,97,0
14,42,75,37
14,42,74,77
14,36,103,3
14,36,105,69
14,42,95,0
14,42,77,60
14,40,82,48
14,42,71,18
14,36,107,3
14,36,101,42
14,42,103,14
14,40,117,5
14,42,87,48
14,40,107,51
14,42,76,2
14,36,105,3
14,36,71,35
14,42,83,23
14,36,107,1
14,42,73,37
14,42,81,74
14,36,103,51
14,40,115,21
14,42,97,0
14,42,75,21
14,42,74,77
14,36,107,5
14,36,107,69
14,42,95,0
14,42,77,74
14,42,71,77
14,36,87,1
14,36,92,27
14,42,103,30
14,40,117,2
14,42,87,56
14,42,76,80
14,36,95,3
14,42,83,74
14,36,101,1
14,42,73,58
14,36,103,74
14,42,81,0
14,40,121,62
14,42,97,3
14,42,75,62
14,36,109,77
14,42,74,0
14,36,107,64
14,42,95,3
14,42,77,68
14,36,105,75
14,42,71,2
14,40,113,69
14,42,103,0
14,42,87,80
14,40,95,38
14,40,78,15
14,36,111,11
14,42,76,0
14,36,109,56
14,42,83,2
14,42,73,69
14,36,97,71
14,42,81,3
14,40,113,62
14,42,97,5
14,42,75,64
14,36,101,75
14,42,74,2
14,36,109,61
14,42,95,6
14,42,77,71
14,36,105,75
14,42,71,2
14,40,66,44
14,40,111,19
14,42,103,0
14,40,77,69
14,42,87,0
14,40,86,16
14,36,105,16
14,42,76,11
14,40,111,2
14,36,111,59
14,42,83,2
14,42,73,70
14,36,103,74
14,42,81,0
14,40,107,70
14,42,97,3
14,42,75,56
14,36,101,77
14,42,74,0
14,36,103,66
14,42,95,3
14,42,77,72
14,40,78,27
14,40,105,32
14,42,71,2
14,40,101,24
14,40,109,27
14,42,103,0
14,40,115,61
14,42,87,2
14,42,76,74
14,36,103,2
14,36,113,66
14,42,83,2
14,42,73,70
14,36,107,74
14,42,81,0
14,40,109,72
14,42,97,1
14,42,75,70
14,42,74,77
14,36,103,2
14,36,109,67
14,42,95,3
14,42,77,77
14,36,105,75
14,42,71,2
14,36,105,30
14,42,103,19
14,36,93,37
14,40,111,29
14,42,87,2
14,40,115,54
14,42,76,0
14,36,103,61
14,49,105,1
14,51,71,69
14,36,105,87
14,51,99,1
14,40,109,72
14,51,107,0
14,51,82,67
14,36,99,82
14,51,62,3
14,36,105,69
14,51,87,2
14,51,69,78
14,36,113,80
14,51,97,0
14,40,111,77
14,51,107,1
14,51,73,69
14,36,101,74
14,51,87,1
14,36,107,67
14,51,90,2
14,51,66,75
14,36,105,83
14,51,85,0
14,40,111,74
14,51,103,2
14,51,70,78
14,40,85,36
14,40,97,15
14,51,80,6
14,36,101,3
14,36,107,58
14,51,93,0
14,51,76,66
14,36,105,85
14,51,82,3
14,40,111,67
14,51,93,2
14,51,77,69
14,40,111,53
14,51,90,9
14,40,92,53
14,40,117,9
14,36,95,24
14,49,105,0
14,36,58,44
14,36,111,22
14,49,111,3
14,36,95,50
14,49,103,0
14,40,76,35
14,40,101,17
14,51,95,2
14,40,117,28
14,51,107,7
14,36,82,43
14,40,119,16
14,51,119,0
14,36,97,27
14,49,107,0
14,36,59,46
14,49,93,26
14,36,103,2
14,36,93,45
14,49,101,2
14,40,60,38
14,40,97,17
14,51,111,2
14,40,117,30
14,51,111,5
14,36,78,51
14,36,103,21
14,51,109,3
14,51,90,48
14,36,103,77
14,51,95,5
14,36,82,32
14,40,115,15
14,51,86,0
14,51,78,60
14,40,71,35
14,40,86,11
14,36,107,8
14,51,97,3
14,36,107,51
14,51,105,3
14,51,93,75
14,36,89,82
14,51,99,1
14,36,82,36
14,40,111,18
14,51,97,1
14,51,103,59
14,40,89,34
14,40,65,8
14,36,111,8
14,51,105,3
14,42,99,51
14,36,105,2
14,42,77,33
14,36,101,52
14,42,72,1
14,42,105,47
14,40,113,1
14,42,74,48
14,42,71,60
14,36,90,1
14,42,113,51
14,36,107,3
14,42,80,54
14,42,60,64
14,36,105,3
14,42,117,59
14,40,107,2
14,42,78,52
14,40,113,1
14,42,69,51
14,36,67,5
14,36,113,62
14,42,117,0
14,42,73,57
14,36,87,67
14,42,70,0
14,42,115,56
14,40,115,3
14,42,83,53
14,36,61,74
14,42,83,0
14,36,103,58
14,42,111,0
14,42,71,53
14,42,70,74
14,36,87,3
14,42,115,61
14,40,119,3
14,42,81,56
14,36,86,77
14,42,75,0
14,36,99,77
14,42,105,0
14,42,63,55
14,36,90,45
14,42,80,0
14,36,66,48
14,42,117,16
14,40,115,2
14,42,89,47
14,42,97,72
14,36,78,3
14,42,109,66
14,36,90,1
14,42,76,48
14,42,92,78
14,36,93,3
14,42,113,69
14,40,86,1
14,42,86,56
14,40,115,3
14,42,97,46
14,36,90,3
14,49,111,56
14,36,109,1
14,42,74,51
14,42,97,77
14,36,95,3
14,42,121,63
14,40,115,1
14,42,93,54
14,36,86,83
14,42,101,0
14,36,107,67
14,42,105,0
14,42,80,57
14,42,86,82
14,36,103,3
14,40,117,66
14,42,115,0
14,42,82,50
14,42,99,82
14,36,105,3
14,42,111,72
14,36,107,1
14,42,93,46
14,42,85,83
14,36,101,2
14,40,115,62
14,42,115,0
14,42,83,48
14,42,87,83
14,36,93,3
14,42,113,60
14,36,109,1
14,42,92,59
14,42,92,82
14,36,93,3
14,40,115,64
14,42,113,0
14,42,86,49
14,36,97,85
14,42,103,1
14,42,109,69
14,36,115,6
14,42,90,43
14,36,103,85
14,42,97,3
14,36,82,32
14,40,115,15
14,42,117,0
14,42,90,60
14,40,71,38
14,40,86,11
14,36,107,8
14,42,93,0
14,36,107,51
14,42,115,2
14,42,83,72
14,42,87,86
14,36,89,2
14,36,82,36
14,42,113,16
14,40,111,2
14,42,97,56
14,40,89,39
14,40,65,8
14,36,111,8
14,42,107,0
14,49,115,48
14,36,115,6
14,42,101,43
14,36,103,82
14,42,107,3
14,36,82,32
14,40,115,15
14,42,117,0
14,42,92,61
14,40,71,37
14,40,86,11
14,36,107,8
14,42,99,3
14,36,107,51
14,42,109,2
14,42,99,72
14,40,111,41
14,42,107,8
14,36,86,3
14,36,93,27
14,40,115,14
14,42,123,0
14,40,119,53
14,42,123,0
14,36,89,9
14,42,123,34
14,36,111,1
14,36,109,53
14,49,113,0
14,42,115,147
14,36,99,3
14,42,117,53
14,40,111,1
14,42,105,51
14,42,95,82
14,36,87,3
14,36,107,64
14,42,45,0
14,42,117,58
14,42,115,85
14,36,72,3
14,36,101,30
14,42,117,13
14,40,115,3
14,42,113,46
14,40,115,5
14,42,115,53
14,36,99,1
14,51,109,60
14,36,105,1
14,51,105,57
14,36,93,89
14,51,107,0
14,40,113,51
14,51,119,0
14,51,85,54
14,36,81,85
14,51,105,0
14,36,113,62
14,51,105,2
14,51,107,51
14,51,97,87
14,36,95,1
14,51,107,62
14,40,109,3
14,51,89,53
14,51,90,86
14,36,86,3
14,51,101,61
14,36,109,1
14,51,86,61
14,51,82,88
14,36,105,1
14,40,111,61
14,51,101,0
14,51,85,56
14,51,97,87
14,36,107,1
14,36,111,72
14,51,105,0
14,51,81,64
14,36,107,89
14,51,90,0
14,51,111,66
14,40,107,1
14,51,92,64
14,40,115,57
14,51,97,9
14,36,89,57
14,40,115,23
14,36,107,31
14,49,105,27
14,36,76,61
14,36,111,17
14,49,101,0
14,36,105,56
14,49,93,0
14,40,62,34
14,40,115,24
14,42,87,0
14,40,117,27
14,42,111,13
14,36,78,48
14,40,119,19
14,36,78,33
14,49,113,18
14,36,71,61
14,36,109,22
14,49,86,0
14,36,105,57
14,49,86,0
14,40,61,42
14,40,103,22
14,42,95,3
14,40,109,13
14,40,113,19
14,40,115,11
14,42,99,0
14,49,103,72
14,36,101,3
14,42,64,58
14,36,103,80
14,42,87,3
14,40,121,62
14,42,105,3
14,42,87,65
14,36,109,82
14,42,82,5
14,36,107,64
14,42,99,3
14,42,80,69
14,36,105,80
14,42,86,3
14,40,113,69
14,42,111,3
14,42,78,78
14,40,95,43
14,40,78,15
14,36,111,11
14,42,93,3
14,36,109,56
14,42,99,0
14,42,77,72
14,36,107,85
14,42,82,2
14,40,115,50
14,42,107,2
14,42,83,57
14,36,90,80
14,42,89,3
14,36,111,56
14,42,101,2
14,42,68,49
14,36,111,89
14,42,86,0
14,40,111,51
14,42,107,0
14,42,83,59
14,36,99,89
14,42,89,0
14,36,101,83
14,42,107,0
14,42,72,61
14,36,103,85
14,42,87,3
14,40,121,62
14,42,107,0
14,42,81,62
14,36,109,86
14,42,89,0
14,36,107,64
14,42,109,2
14,42,70,69
14,36,105,85
14,42,90,2
14,40,113,69
14,42,93,3
14,42,85,78
14,40,95,46
14,40,78,15
14,36,111,11
14,42,85,0
14,36,113,58
14,49,111,0
14,42,81,25
14,36,113,86
14,42,97,0
14,42,111,61
14,40,117,3
14,42,83,59
14,42,85,86
14,36,113,3
14,36,117,61
14,42,95,0
14,42,90,61
14,42,97,86
14,36,113,2
14,42,97,61
14,40,103,2
14,40,115,64
14,42,89,0
14,36,111,17
14,42,92,14
14,42,113,89
14,36,115,5
14,42,90,61
