track,note,velocity,time
1,79,127,6048
1,79,0,94
1,79,127,2
1,79,0,46
1,79,127,2
1,79,0,46
1,79,127,2
1,79,0,94
1,79,127,2
1,79,0,94
1,79,127,2
1,79,0,94
1,79,127,2
1,79,0,160
1,79,127,32
1,79,0,190
1,81,127,2
1,81,0,96
1,79,127,0
1,79,0,94
1,78,127,866
1,78,0,46
1,76,127,2
1,76,0,94
1,74,127,2
1,74,0,46
1,76,127,98
1,76,0,94
1,76,127,2
1,76,0,94
1,76,127,2
1,76,0,94
1,76,127,2
1,76,0,46
1,78,127,2
1,78,0,334
1,80,127,2
1,80,0,288
1,81,127,0
1,81,0,160
1,81,127,464
1,81,0,142
1,74,127,2
1,74,0,94
1,74,127,2
1,74,0,46
1,74,127,2
1,74,0,46
1,76,127,2
1,76,0,94
1,76,127,2
1,76,0,94
1,79,127,194
1,79,0,288
1,81,127,0
1,81,0,160
1,78,127,320
1,78,0,94
1,76,127,2
1,76,0,94
1,76,127,2
1,76,0,46
1,76,127,2
1,76,0,46
1,76,127,2
1,76,0,46
1,76,127,2
1,76,0,46
1,76,127,2
1,76,0,46
1,76,127,2
1,76,0,94
1,78,127,2
1,78,0,94
1,79,127,2
1,79,0,142
1,80,127,50
1,80,0,96
1,81,127,0
1,81,0,304
1,79,127,224
1,79,0,46
1,76,127,2
1,76,0,142
1,76,127,2
1,76,0,46
1,76,127,2
1,76,0,94
1,76,127,2
1,76,0,46
1,79,127,2
1,79,0,62
1,79,127,2
1,79,0,62
1,80,127,2
1,80,0,62
1,81,127,2
1,81,0,448
1,84,127,32
1,84,0,190
1,81,127,242
1,81,0,48
1,76,127,0
1,76,0,94
1,78,127,1250
1,78,0,94
1,75,127,2
1,75,0,94
1,75,127,2
1,75,0,94
1,75,127,2
1,75,0,46
1,75,127,2
1,75,0,94
1,75,127,2
1,75,0,46
1,76,127,2
1,76,0,94
1,76,127,2
1,76,0,94
1,77,127,2
1,77,0,46
1,78,127,2
1,78,0,94
1,78,127,2
1,78,0,142
1,78,127,2
1,78,0,94
1,79,127,2
1,79,0,46
1,79,127,2
1,79,0,142
1,80,127,2
1,80,0,96
1,81,127,0
1,81,0,382
1,76,127,2
1,76,0,160
1,79,127,512
1,79,0,94
1,79,127,2
1,79,0,46
1,79,127,2
1,79,0,46
1,79,127,2
1,79,0,94
1,79,127,2
1,79,0,46
1,79,127,2
1,79,0,46
1,79,127,2
1,79,0,94
1,79,127,2
1,79,0,94
1,74,127,2
1,74,0,48
1,72,127,0
1,72,0,46
1,79,127,722
1,79,0,46
1,79,127,2
1,79,0,46
1,79,127,2
1,79,0,46
1,78,127,2
1,78,0,94
1,79,127,2
1,79,0,62
1,76,127,2
1,76,0,62
1,79,127,2
1,79,0,62
1,79,127,2
1,79,0,94
1,79,127,2
1,79,0,94
1,79,127,2
1,79,0,94
1,79,127,2
1,79,0,94
1,79,127,2
1,79,0,94
1,79,127,2
1,79,0,142
1,79,127,2
1,79,0,48
1,81,127,0
1,81,0,448
1,83,127,224
1,83,0,160
1,79,127,32
1,79,0,48
1,76,127,0
1,76,0,46
1,83,127,578
1,83,0,160
1,79,127,32
1,79,0,48
1,76,127,0
1,76,0,46
1,81,127,146
1,81,0,46
1,78,127,2
1,78,0,94
1,79,127,2
1,79,0,96
1,76,127,0
1,76,0,94
1,83,127,98
1,83,0,160
1,79,127,32
1,79,0,48
1,76,127,0
1,76,0,46
1,79,127,98
1,79,0,46
1,79,127,2
1,79,0,46
1,76,127,2
1,76,0,94
1,81,127,2
1,81,0,160
1,81,127,512
1,81,0,160
1,79,127,128
1,79,0,62
1,79,127,2
1,79,0,62
1,79,127,2
1,79,0,62
1,79,127,2
1,79,0,94
1,79,127,98
1,79,0,94
1,81,127,2
1,81,0,448
1,81,127,320
1,81,0,94
1,81,127,2
1,81,0,46
1,78,127,2
1,78,0,46
1,78,127,2
1,78,0,46
1,78,127,2
1,78,0,46
1,78,127,66
1,78,0,62
1,79,127,2
1,79,0,62
1,79,127,2
1,79,0,94
1,83,127,242
1,83,0,142
1,78,127,2
1,78,0,94
1,78,127,2
1,78,0,96
1,81,127,0
1,81,0,160
1,79,127,320
1,79,0,94
1,79,127,2
1,79,0,94
1,79,127,2
1,79,0,46
1,79,127,2
1,79,0,46
1,79,127,2
1,79,0,94
1,79,127,2
1,79,0,94
1,79,127,2
1,79,0,94
1,79,127,2
1,79,0,94
1,79,127,194
1,79,0,192
1,81,127,0
1,81,0,160
1,79,127,320
1,79,0,94
1,79,127,2
1,79,0,94
1,79,127,2
1,79,0,46
1,79,127,2
1,79,0,46
1,79,127,2
1,79,0,94
1,79,127,2
1,79,0,94
1,79,127,2
1,79,0,46
1,79,127,2
1,79,0,46
1,79,127,2
1,79,0,46
1,79,127,2
1,79,0,46
1,81,127,2
1,81,0,160
1,78,127,560
1,78,0,206
1,78,127,2
1,78,0,62
1,78,127,2
1,78,0,62
1,79,127,2
1,79,0,62
1,79,127,2
1,79,0,62
1,79,127,2
1,79,0,62
1,79,127,2
1,79,0,62
1,79,127,2
1,79,0,62
1,79,127,2
1,79,0,62
1,80,127,2
1,80,0,62
1,81,127,2
1,81,0,288
1,74,127,416
1,74,0,94
1,78,127,2
1,78,0,94
1,78,127,2
1,78,0,94
1,79,127,2
1,79,0,46
1,78,127,2
1,78,0,46
1,79,127,2
1,79,0,142
1,74,127,2
1,74,0,46
1,80,127,194
1,80,0,142
1,77,127,2
1,77,0,46
1,78,127,2
1,78,0,46
1,77,127,2
1,77,0,46
1,77,127,2
1,77,0,94
1,81,127,386
1,81,0,256
1,81,127,464
1,81,0,46
1,81,127,2
1,81,0,94
1,81,127,2
1,81,0,62
1,79,127,2
1,79,0,62
1,81,127,2
1,81,0,62
1,79,127,2
1,79,0,62
1,81,127,2
1,81,0,62
1,79,127,2
1,79,0,62
1,81,127,2
1,81,0,46
1,85,127,2
1,85,0,46
1,81,127,2
1,81,0,160
1,76,127,32
1,76,0,48
1,74,127,0
1,74,0,46
1,81,127,386
1,81,0,190
1,80,127,146
1,80,0,48
1,81,127,0
1,81,0,94
1,81,127,2
1,81,0,94
1,81,127,2
1,81,0,62
1,81,127,2
1,81,0,62
1,81,127,2
1,81,0,62
1,81,127,2
1,81,0,94
1,79,127,2
1,79,0,94
1,81,127,2
1,81,0,94
1,81,127,2
1,81,0,46
1,81,127,2
1,81,0,46
1,83,127,2
1,83,0,96
1,81,127,0
1,81,0,94
1,76,127,50
1,76,0,94
1,83,127,434
1,83,0,160
1,81,127,32
1,81,0,48
1,76,127,0
1,76,0,46
1,81,127,530
1,81,0,48
1,83,127,0
1,83,0,160
1,81,127,32
1,81,0,48
1,76,127,0
1,76,0,46
1,83,127,530
1,83,0,48
1,83,127,0
1,83,0,160
1,79,127,32
1,79,0,48
1,76,127,0
1,76,0,46
1,79,127,722
1,79,0,46
1,79,127,2
1,79,0,46
1,79,127,2
1,79,0,46
1,79,127,2
1,79,0,46
1,79,127,2
1,79,0,46
1,79,127,2
1,79,0,46
1,79,127,2
1,79,0,46
1,79,127,2
1,79,0,46
1,79,127,2
1,79,0,46
1,79,127,2
1,79,0,46
1,79,127,2
1,79,0,46
1,79,127,2
1,79,0,46
1,79,127,2
1,79,0,46
1,79,127,2
1,79,0,46
1,79,127,2
1,79,0,94
1,81,127,2
1,81,0,238
1,81,127,98
1,81,0,160
1,79,127,224
1,79,0,62
1,79,127,2
1,79,0,62
1,79,127,2
1,79,0,62
1,79,127,2
1,79,0,62
1,79,127,2
1,79,0,62
1,77,127,2
1,77,0,62
1,79,127,2
1,79,0,46
1,77,127,2
1,77,0,46
1,79,127,2
1,79,0,46
1,77,127,2
1,77,0,46
1,79,127,2
1,79,0,46
1,77,127,2
1,77,0,46
1,79,127,2
1,79,0,46
1,77,127,2
1,77,0,142
1,81,127,194
1,81,0,256
1,79,127,272
1,79,0,94
1,79,127,2
1,79,0,46
1,78,127,2
1,78,0,46
1,79,127,2
1,79,0,46
1,78,127,2
1,78,0,46
1,78,127,2
1,78,0,46
1,79,127,2
1,79,0,46
1,78,127,2
1,78,0,46
1,79,127,2
1,79,0,46
1,78,127,2
1,78,0,46
1,79,127,2
1,79,0,46
1,78,127,2
1,78,0,46
1,79,127,2
1,79,0,46
1,78,127,2
1,78,0,46
1,79,127,2
1,79,0,46
1,78,127,2
1,78,0,46
1,81,127,2
1,81,0,160
1,84,127,320
1,84,0,94
1,84,127,2
1,84,0,94
1,81,127,2
1,81,0,160
1,84,127,32
1,84,0,256
1,79,127,32
1,79,0,94
1,79,127,2
1,79,0,94
1,79,127,2
1,79,0,46
1,78,127,2
1,78,0,46
1,79,127,2
1,79,0,46
1,78,127,2
1,78,0,46
1,79,127,2
1,79,0,46
1,78,127,2
1,78,0,46
1,79,127,2
1,79,0,46
1,81,127,2
1,81,0,190
1,81,127,2
1,81,0,208
1,81,127,32
1,81,0,256
1,79,127,224
1,79,0,46
1,78,127,2
1,78,0,46
1,79,127,2
1,79,0,46
1,78,127,2
1,78,0,46
1,79,127,2
1,79,0,46
1,78,127,2
1,78,0,46
1,78,127,2
1,78,0,46
1,79,127,2
1,79,0,46
1,78,127,2
1,78,0,46
1,79,127,2
1,79,0,46
1,78,127,2
1,78,0,46
1,79,127,2
1,79,0,46
1,79,127,2
1,79,0,94
1,81,127,2
1,81,0,190
1,81,127,578
1,81,0,46
1,81,127,2
1,81,0,46
1,81,127,2
1,81,0,94
1,84,127,2
1,84,0,94
1,81,127,98
1,81,0,46
1,81,127,2
1,81,0,46
1,81,127,2
1,81,0,94
1,79,127,2
1,79,0,94
1,81,127,98
1,81,0,46
1,81,127,2
1,81,0,46
1,81,127,2
1,81,0,46
1,76,127,2
1,76,0,46
1,71,127,2
1,71,0,48
1,69,127,0
1,69,0,46
1,81,127,290
1,81,0,46
1,81,127,2
1,81,0,46
1,81,127,2
1,81,0,46
1,79,127,2
1,79,0,46
1,81,127,2
1,81,0,46
1,79,127,2
1,79,0,46
1,81,127,2
1,81,0,94
1,81,127,2
1,81,0,94
1,81,127,2
1,81,0,94
1,79,127,2
1,79,0,46
1,81,127,2
1,81,0,94
1,79,127,2
1,79,0,46
1,81,127,2
1,81,0,46
1,81,127,2
1,81,0,142
1,81,127,2
1,81,0,94
1,76,127,146
1,76,0,144
1,81,127,0
1,81,0,352
1,79,127,128
1,79,0,94
1,79,127,2
1,79,0,94
1,81,127,2
1,81,0,94
1,79,127,2
1,79,0,94
1,81,127,2
1,81,0,46
1,79,127,2
1,79,0,46
1,81,127,2
1,81,0,46
1,79,127,2
1,79,0,94
1,81,127,2
1,81,0,94
1,79,127,2
1,79,0,46
1,81,127,2
1,81,0,94
1,74,127,98
1,74,0,192
1,81,127,0
1,81,0,96
1,81,127,0
1,81,0,334
1,81,127,2
1,81,0,142
1,79,127,2
1,79,0,46
1,81,127,2
1,81,0,142
1,79,127,2
1,79,0,46
1,81,127,2
1,81,0,94
1,79,127,2
1,79,0,46
1,81,127,2
1,81,0,46
1,79,127,2
1,79,0,46
1,80,127,2
1,80,0,46
1,81,127,2
1,81,0,94
1,80,127,2
1,80,0,94
1,81,127,2
1,81,0,142
1,74,127,98
1,74,0,192
1,81,127,0
1,81,0,448
1,81,127,128
1,81,0,94
1,79,127,2
1,79,0,46
1,81,127,2
1,81,0,94
1,79,127,2
1,79,0,46
1,81,127,2
1,81,0,94
1,79,127,2
1,79,0,46
1,81,127,2
1,81,0,94
1,81,127,2
1,81,0,142
1,79,127,2
1,79,0,94
1,81,127,2
1,81,0,46
1,79,127,2
1,79,0,46
1,81,127,2
1,81,0,94
1,81,127,2
1,81,0,94
1,74,127,98
1,74,0,192
1,81,127,0
1,81,0,256
1,81,127,128
1,81,0,94
1,79,127,2
1,79,0,94
1,81,127,2
1,81,0,94
1,79,127,2
1,79,0,94
1,81,127,2
1,81,0,94
1,79,127,2
1,79,0,94
1,81,127,2
1,81,0,94
1,79,127,2
1,79,0,94
1,81,127,2
1,81,0,94
1,79,127,2
1,79,0,94
1,76,127,2
1,76,0,160
1,76,127,128
1,76,0,192
1,81,127,0
1,81,0,160
1,81,127,128
1,81,0,94
1,79,127,2
1,79,0,94
1,81,127,2
1,81,0,94
1,79,127,2
1,79,0,94
1,81,127,2
1,81,0,94
1,78,127,194
1,78,0,94
1,76,127,2
1,76,0,94
1,76,127,2
1,76,0,46
1,76,127,2
1,76,0,46
1,83,127,50
1,83,0,94
1,83,127,2
1,83,0,46
1,74,127,2
1,74,0,190
1,81,127,866
1,81,0,32
1,81,127,16
1,81,0,32
1,81,127,16
1,81,0,32
1,81,127,544
1,81,0,94
1,81,127,2
1,81,0,94
1,81,127,2
1,81,0,32
1,81,127,64
1,81,0,32
1,81,127,64
1,81,0,48
1,81,127,96
1,81,0,80
1,78,127,832
1,78,0,142
1,78,127,2
1,78,0,46
1,81,127,2
1,81,0,160
1,78,127,32
1,78,0,48
1,81,127,0
1,81,0,142
1,79,127,194
1,79,0,94
1,79,127,2
1,79,0,46
1,79,127,2
1,79,0,46
1,79,127,2
1,79,0,94
1,81,127,2
1,81,0,96
1,79,127,0
1,79,0,94
1,81,127,2
1,81,0,48
1,83,127,0
1,83,0,46
1,81,127,290
1,81,0,32
1,81,127,64
1,81,0,32
1,81,127,64
1,81,0,21
1,81,127,11
1,81,0,21
1,81,127,11
1,81,0,21
1,81,127,11
1,81,0,32
1,81,127,64
1,81,0,32
1,83,127,64
1,83,0,190
1,81,127,386
1,81,0,32
1,81,127,16
1,81,0,80
1,81,127,16
1,81,0,32
1,81,127,16
1,81,0,32
1,81,127,64
1,81,0,32
1,81,127,16
1,81,0,80
1,81,127,16
1,81,0,32
1,81,127,16
1,81,0,48
1,83,127,0
1,83,0,94
1,83,127,626
1,83,0,160
1,69,127,416
1,69,0,32
1,69,127,64
1,69,0,32
1,69,127,64
1,69,0,32
1,69,127,64
1,69,0,32
1,69,127,64
1,69,0,48
1,81,127,336
1,81,0,32
1,81,127,16
1,81,0,80
1,81,127,16
1,81,0,32
1,81,127,64
1,81,0,32
1,81,127,16
1,81,0,128
1,64,127,640
1,64,0,21
1,57,127,11
1,57,0,21
1,57,127,11
1,57,0,21
1,57,127,11
1,57,0,21
1,57,127,11
1,57,0,21
1,57,127,11
1,57,0,21
2,79,45,4176
2,83,45,0
2,88,45,0
2,79,0,46
2,83,0,0
2,88,0,0
2,79,45,2
2,83,45,0
2,88,45,0
2,79,0,46
2,83,0,0
2,88,0,0
2,79,45,2
2,83,45,0
2,88,45,0
2,79,0,46
2,83,0,0
2,88,0,0
2,81,45,2
2,85,45,0
2,90,45,0
2,81,0,46
2,85,0,0
2,90,0,0
2,79,45,2
2,83,45,0
2,88,45,0
2,79,0,46
2,83,0,0
2,88,0,0
2,79,45,98
2,83,45,0
2,88,45,0
2,79,0,46
2,83,0,0
2,88,0,0
2,79,45,146
2,83,45,0
2,88,45,0
2,79,0,46
2,83,0,0
2,88,0,0
2,79,45,2
2,83,45,0
2,88,45,0
2,79,0,46
2,83,0,0
2,88,0,0
2,79,45,50
2,83,45,0
2,88,45,0
2,79,0,94
2,83,0,0
2,88,0,0
2,79,45,98
2,83,45,0
2,88,45,0
2,79,0,46
2,83,0,0
2,88,0,0
2,79,45,2
2,83,45,0
2,88,45,0
2,79,0,46
2,83,0,0
2,88,0,0
2,79,45,2
2,83,45,0
2,88,45,0
2,79,0,46
2,83,0,0
2,88,0,0
2,81,45,2
2,85,45,0
2,90,45,0
2,81,0,46
2,85,0,0
2,90,0,0
2,79,45,2
2,83,45,0
2,88,45,0
2,79,0,46
2,83,0,0
2,88,0,0
2,79,45,98
2,83,45,0
2,88,45,0
2,79,0,46
2,83,0,0
2,88,0,0
2,79,45,146
2,83,45,0
2,88,45,0
2,79,0,46
2,83,0,0
2,88,0,0
2,79,45,2
2,83,45,0
2,88,45,0
2,79,0,46
2,83,0,0
2,88,0,0
2,79,45,50
2,83,45,0
