track,note,velocity,time
13,59,100,28
13,59,111,43
13,68,117,5
13,68,116,8
13,66,101,8
13,64,99,7
13,64,91,15
13,64,87,60
13,64,113,95
13,64,92,37
13,62,104,57
13,61,106,135
13,61,110,20
13,61,110,15
13,61,82,28
13,61,109,85
13,68,107,85
13,68,84,45
13,68,107,75
13,66,81,235
13,64,102,10
13,64,94,67
13,64,95,63
13,64,86,90
13,64,106,85
13,62,108,55
13,62,102,90
13,62,102,28
13,61,104,85
13,61,78,75
13,61,113,80
13,61,104,100
13,61,119,128
13,59,97,2703
13,68,113,5
13,68,79,53
13,68,101,73
13,66,104,15
13,64,91,100
13,64,78,48
13,64,98,65
13,64,104,80
13,64,108,137
13,62,98,5
13,62,91,100
13,61,101,40
13,61,99,47
13,61,107,35
13,57,106,12
13,57,106,75
13,57,110,8
13,57,112,58
13,57,77,108
13,57,106,63
13,57,104,45
13,57,112,93
13,57,100,67
13,57,114,108
13,57,78,125
13,57,102,55
13,59,108,55
13,59,106,40
13,59,98,55
13,59,110,13
13,59,88,70
13,59,95,68
13,62,120,13
13,62,104,25
13,62,104,122
13,59,100,45
13,59,100,50
13,59,106,65
13,62,120,20
13,59,76,37
13,62,117,15
13,59,100,27
13,54,107,1833
13,57,100,8
13,57,94,90
13,57,86,63
13,54,91,240
13,54,113,40
13,54,99,93
13,54,88,3
13,52,88,28
13,52,95,65
13,54,93,240
13,52,75,5
13,54,85,0
13,54,110,53
13,54,60,375
13,57,100,25
13,57,87,53
13,57,77,53
13,57,90,20
13,57,92,108
13,54,67,240
13,54,82,50
13,54,93,55
13,54,97,80
13,52,87,235
13,52,94,53
13,54,107,240
13,54,87,20
13,54,110,108
13,54,77,348
13,61,101,125
13,61,101,55
13,59,88,15
13,59,86,22
13,57,90,100
13,54,93,240
13,54,95,73
13,54,110,100
13,52,73,0
13,54,107,240
13,54,110,80
13,54,84,20
13,54,110,113
13,54,84,310
13,61,107,132
13,61,67,5
13,61,101,140
13,59,90,23
13,57,95,245
13,54,77,3
13,54,101,60
13,54,79,108
13,58,89,120
13,59,87,233
13,60,87,75
13,61,95,120
13,57,92,88
13,54,97,250
13,59,106,207
13,59,106,75
13,59,110,8
13,59,112,58
13,59,77,108
13,59,106,63
13,59,104,45
13,59,112,93
13,59,100,67
13,59,114,108
13,59,78,125
13,59,102,55
13,61,108,55
13,61,106,40
13,61,98,55
13,61,110,13
13,61,88,70
13,61,95,68
13,64,120,13
13,64,104,25
13,64,104,122
13,61,100,45
13,61,100,50
13,61,106,65
13,64,120,20
13,61,76,37
13,64,117,15
13,61,100,27
13,57,106,17200
13,57,106,75
13,57,110,8
13,57,112,58
13,57,77,108
13,57,106,63
13,57,104,45
13,57,112,93
13,57,100,67
13,57,114,108
13,57,78,125
13,57,102,55
13,59,108,55
13,59,106,40
13,59,98,55
13,59,110,13
13,59,88,70
13,59,95,68
13,62,120,13
13,62,104,25
13,62,104,122
13,59,100,45
13,59,100,50
13,59,106,65
13,62,120,20
13,59,76,37
13,62,117,15
13,59,100,27
13,71,83,0
13,71,98,43
13,71,106,10
13,70,79,197
13,71,92,100
13,69,92,65
13,67,77,160
13,64,90,40
13,67,104,127
13,71,87,0
13,71,86,0
13,70,107,0
13,69,100,32
13,62,84,0
13,62,75,125
13,62,78,143
13,67,90,0
13,71,88,15
13,71,85,28
13,71,79,55
13,67,90,5
13,64,72,15
13,67,90,0
13,62,81,248
13,62,91,195
13,69,97,32
13,69,90,35
13,69,85,10
13,69,98,13
13,64,97,7
13,67,100,92
13,64,90,2
13,64,87,65
13,64,80,117
13,64,91,12
13,69,102,13
13,69,80,8
13,69,81,95
13,71,98,120
13,67,85,3
13,64,87,8
13,64,92,73
13,64,80,150
13,68,95,0
13,71,92,3
13,71,92,7
13,71,98,33
13,69,98,2
13,67,97,132
13,62,85,13
13,64,88,60
13,64,95,132
13,62,88,7
13,67,86,48
13,67,94,103
13,64,97,30
14,43,104,0
14,47,106,23
14,47,95,128
14,43,98,0
14,42,119,125
14,42,119,380
14,42,127,332
14,43,102,400
14,47,98,20
14,47,91,143
14,43,95,0
14,42,123,133
14,42,54,140
14,42,127,175
14,42,68,160
14,42,127,180
14,42,123,167
14,43,108,140
14,47,100,20
14,43,98,155
14,47,92,0
14,42,123,143
14,56,77,0
14,56,82,27
14,42,66,57
14,56,116,35
14,42,127,65
14,56,97,35
14,42,78,57
14,56,104,40
14,42,127,60
14,56,107,155
14,42,110,5
14,43,104,150
14,47,98,17
14,47,95,145
14,43,98,0
14,56,95,115
14,42,119,5
14,56,84,35
14,42,62,65
14,56,95,45
14,42,127,60
14,56,93,28
14,42,104,60
14,56,68,45
14,56,93,92
14,42,123,5
14,56,99,155
14,42,119,5
14,43,102,150
14,47,102,17
14,47,102,152
14,43,104,0
14,42,127,127
14,43,102,35
14,42,66,88
14,40,90,82
14,40,70,40
14,42,123,25
14,40,127,0
14,40,113,33
14,42,84,105
14,40,76,48
14,40,101,107
14,42,123,5
14,40,91,2
14,45,102,40
14,45,117,48
14,42,123,12
14,43,117,48
14,43,127,53
14,49,116,30
14,36,125,30
14,42,79,2
14,56,84,5
14,42,70,93
14,56,52,5
14,36,120,2
14,40,120,53
14,42,79,0
14,56,82,7
14,40,127,0
14,42,74,60
14,56,60,5
14,36,104,5
14,42,64,8
14,56,61,5
14,36,68,20
14,42,65,63
14,56,58,5
14,36,84,7
14,36,102,0
14,42,101,40
14,40,127,5
14,56,84,0
14,40,127,0
14,42,67,48
14,56,61,0
14,36,78,7
14,36,110,75
14,56,87,5
14,42,74,2
14,36,114,93
14,42,67,7
14,56,58,0
14,40,127,85
14,42,95,0
14,56,89,7
14,40,127,108
14,42,68,0
14,56,64,0
14,36,92,28
14,42,75,8
14,56,51,5
14,36,77,10
14,42,67,68
14,36,97,5
14,56,64,7
14,36,108,28
14,42,93,40
14,45,120,5
14,56,97,0
14,43,127,110
14,42,61,0
14,56,56,5
14,36,104,105
14,42,67,0
14,56,67,0
14,57,104,0
14,36,100,85
14,56,51,5
14,42,61,2
14,40,125,113
14,42,95,0
14,56,95,0
14,40,127,25
14,42,68,55
14,56,61,0
14,36,98,20
14,42,71,13
14,56,70,0
14,36,66,35
14,42,73,55
14,56,61,0
14,36,80,5
14,36,98,13
14,40,127,25
14,42,89,0
14,56,95,0
14,40,127,32
14,42,68,48
14,56,61,0
14,36,76,7
14,56,74,65
14,36,106,7
14,42,81,0
14,36,110,120
14,56,62,0
14,42,70,7
14,40,127,90
14,56,87,5
14,42,87,7
14,40,114,108
14,56,67,0
14,42,65,5
14,36,106,28
14,42,62,0
14,56,74,0
14,36,74,28
14,36,97,68
14,42,77,0
14,56,54,0
14,36,97,8
14,45,122,35
14,42,95,5
14,56,87,0
14,43,127,110
14,42,63,0
14,56,58,5
14,49,119,93
14,36,106,10
14,42,79,5
14,56,66,5
14,36,104,100
14,42,73,0
14,56,61,0
14,42,97,95
14,40,127,5
14,56,95,0
14,42,67,110
14,56,59,0
14,36,76,5
14,36,67,45
14,36,91,23
14,42,70,0
14,56,73,5
14,36,108,55
14,36,71,20
14,42,75,0
14,36,83,15
14,56,67,0
14,36,104,32
14,36,72,27
14,42,101,43
14,56,97,0
14,40,127,7
14,36,125,125
14,42,85,0
14,56,66,0
14,36,104,135
14,56,82,5
14,42,97,5
14,36,102,128
14,42,91,0
14,56,61,0
14,40,114,75
14,42,99,0
14,56,95,0
14,40,125,123
14,42,71,0
14,56,63,5
14,36,92,13
14,42,82,115
14,56,75,5
14,36,74,60
14,36,95,65
14,42,93,0
14,56,74,5
14,36,100,8
14,45,117,50
14,42,110,5
14,56,95,0
14,43,120,115
14,42,75,5
14,56,61,0
14,36,120,115
14,42,82,5
14,57,112,0
14,56,74,7
14,55,74,0
14,36,104,93
14,42,79,0
14,56,56,7
14,40,127,100
14,42,104,0
14,56,91,0
14,42,67,105
14,56,56,7
14,36,76,37
14,36,67,45
14,36,91,23
14,42,93,5
14,56,71,7
14,36,108,40
14,36,71,20
14,42,87,8
14,56,58,5
14,36,83,2
14,36,104,47
14,36,72,27
14,42,101,0
14,56,99,0
14,40,127,7
14,56,63,148
14,36,125,5
14,42,68,0
14,36,104,115
14,42,95,5
14,56,78,5
14,36,102,108
14,42,91,0
14,56,50,7
14,40,114,75
14,42,104,0
14,56,99,5
14,40,125,115
14,42,58,0
14,56,63,5
14,36,92,13
14,42,91,115
14,56,70,5
14,36,74,55
14,42,87,60
14,36,95,5
14,56,70,7
14,36,100,50
14,45,117,50
14,42,95,0
14,56,95,12
14,43,120,110
14,42,73,0
14,56,62,12
14,42,87,132
14,56,71,8
14,36,125,5
14,49,119,0
14,42,82,88
14,56,61,5
14,36,120,7
14,42,91,48
14,40,120,5
14,56,93,0
14,40,127,0
14,42,82,65
14,56,59,5
14,36,104,15
14,42,87,8
14,56,72,5
14,36,68,48
14,42,79,68
14,56,54,5
14,36,102,28
14,42,101,40
14,40,127,5
14,56,95,7
14,40,127,40
14,42,70,43
14,56,65,12
14,36,78,35
14,42,84,70
14,36,110,5
14,56,78,0
14,42,82,123
14,36,114,5
14,56,53,7
14,42,93,80
14,40,127,5
14,56,89,0
14,42,77,123
14,40,127,5
14,56,66,0
14,36,92,28
14,42,91,8
14,56,79,5
14,36,77,63
14,42,87,68
14,36,97,5
14,56,63,7
14,36,108,40
14,42,97,40
14,45,120,5
14,56,85,0
14,43,127,120
14,42,74,0
14,56,40,10
14,57,125,122
14,42,87,8
14,36,104,5
14,56,74,0
14,42,82,115
14,56,50,5
14,36,120,2
14,40,120,53
14,42,95,0
14,56,91,0
14,40,127,13
14,42,70,60
14,56,58,5
14,36,104,33
14,42,93,8
14,56,73,10
14,36,68,13
14,42,85,63
14,36,84,12
14,56,45,0
14,36,102,45
14,42,95,40
14,40,127,5
14,56,93,0
14,40,127,8
14,42,74,43
14,56,64,12
14,36,78,55
14,36,110,75
14,42,91,0
14,56,87,0
14,36,114,120
14,42,84,0
14,56,45,0
14,42,101,80
14,40,127,5
14,56,91,0
14,40,127,125
14,42,77,0
14,56,59,0
14,36,92,53
14,42,93,8
14,56,97,5
14,36,77,10
14,36,97,73
14,42,93,0
14,56,53,0
14,36,108,55
14,45,120,45
14,42,95,0
14,56,93,5
14,43,127,148
14,42,68,0
14,56,74,12
14,42,99,147
14,36,127,15
14,53,100,0
14,51,107,0
14,53,73,80
14,36,122,2
14,51,107,75
14,53,108,0
14,40,127,12
14,53,59,73
14,36,98,7
14,51,99,68
14,53,110,7
14,36,108,5
14,53,95,93
14,51,95,0
14,36,120,12
14,53,64,113
14,36,108,7
14,51,101,33
14,53,106,0
14,40,112,12
14,53,65,40
14,53,112,175
14,51,113,0
14,36,127,12
14,53,80,105
14,36,122,12
14,40,127,112
14,51,116,0
14,53,117,0
14,53,73,45
14,40,127,80
14,51,113,0
14,53,122,7
14,45,102,20
14,45,58,40
14,45,58,42
14,45,84,27
14,45,75,113
14,45,108,28
14,45,64,25
14,43,78,40
14,43,85,23
14,41,69,40
14,41,83,40
14,53,100,32
14,51,110,0
14,36,117,8
14,51,91,120
14,36,127,5
14,53,100,0
14,51,101,100
14,40,127,5
14,53,108,0
14,53,68,60
14,40,127,60
14,53,106,0
14,51,107,0
14,36,122,13
14,53,92,110
14,51,97,12
14,40,127,140
14,53,67,5
14,51,116,73
14,45,105,5
14,53,120,0
14,45,58,20
14,45,63,20
14,45,49,33
14,45,96,20
14,53,117,0
14,45,68,0
14,45,64,15
14,45,62,35
14,36,127,67
14,51,107,108
14,53,102,0
14,36,125,5
14,40,127,128
14,53,108,0
14,51,113,0
14,53,68,68
14,36,108,68
14,53,117,12
14,51,113,0
14,36,127,33
14,53,102,20
14,51,107,7
14,36,125,28
14,53,81,125
14,40,127,75
14,51,110,5
14,53,117,0
14,40,127,130
14,40,127,0
14,53,78,5
14,51,60,12
14,36,127,150
14,53,127,5
14,51,127,0
14,36,108,1795
14,42,97,0
14,49,107,7
14,36,108,105
14,42,60,0
14,56,107,7
14,40,94,80
14,42,101,7
14,56,43,0
14,40,127,8
14,42,68,127
14,56,97,0
14,36,117,108
14,42,67,95
14,56,33,0
14,36,68,0
14,36,90,68
14,42,81,0
14,56,99,7
14,36,85,33
14,40,127,60
14,42,116,0
14,56,42,7
14,40,127,30
14,42,68,28
14,56,93,0
14,36,71,0
14,36,102,65
14,56,53,0
14,42,81,2
14,36,112,115
14,42,70,5
14,56,99,0
14,40,97,93
14,42,110,2
14,56,23,5
14,40,127,15
14,42,74,12
14,56,99,0
14,36,102,8
14,42,84,107
14,56,35,0
14,36,80,30
14,42,84,53
14,36,106,7
14,56,93,0
14,36,88,28
14,45,112,53
14,42,113,2
14,56,32,5
14,43,117,35
14,56,113,65
14,42,78,7
14,36,74,20
14,36,122,65
14,49,123,5
14,42,81,2
14,36,122,93
14,56,72,0
14,42,77,2
14,42,113,85
14,40,117,5
14,56,54,0
14,42,91,120
14,56,110,0
14,40,120,5
14,36,112,32
14,42,93,80
14,36,83,40
14,42,91,53
14,56,93,5
14,36,106,7
14,36,97,40
14,42,110,25
14,47,114,7
14,56,38,5
14,45,117,47
14,42,84,68
14,56,93,7
14,36,92,5
14,42,95,62
14,56,21,0
14,36,108,5
14,42,67,128
14,56,99,0
14,36,106,5
14,40,98,100
14,42,101,0
14,56,49,7
14,40,127,20
14,42,77,27
14,56,101,0
14,36,94,28
14,42,93,55
14,56,42,0
14,36,87,35
14,36,100,73
14,42,84,0
14,56,99,0
14,36,102,35
14,45,114,53
14,42,107,5
14,56,61,2
14,43,120,40
14,42,81,68
14,56,89,0
14,36,80,33
14,49,104,65
14,42,89,5
14,36,114,2
14,42,77,105
14,56,61,0
14,36,106,5
14,40,91,93
14,42,97,0
14,56,52,12
14,40,127,40
14,42,67,113
14,56,104,2
14,36,114,8
14,42,93,127
14,56,46,0
14,36,68,52
14,42,82,65
14,36,86,7
14,56,95,0
14,36,90,15
14,42,110,35
14,56,23,7
14,40,122,5
14,40,122,57
14,42,82,27
14,56,97,0
14,36,73,20
14,42,101,70
14,56,31,2
14,36,117,5
14,36,114,102
14,42,77,0
14,56,97,0
14,42,104,80
14,40,95,2
14,40,122,45
14,42,82,0
14,56,97,2
14,36,100,0
14,42,95,113
14,56,61,0
14,36,68,52
14,42,89,68
14,56,91,5
14,36,92,2
14,36,95,8
14,45,122,40
14,42,107,0
14,56,43,7
14,43,114,40
14,42,79,73
14,56,101,0
14,42,99,155
14,49,95,0
14,36,114,7
14,42,91,113
14,56,77,0
14,36,127,7
14,40,112,62
14,42,107,0
14,56,97,113
14,40,120,2
14,42,81,0
14,36,114,25
14,42,93,113
14,56,53,2
14,36,90,47
14,42,87,65
14,56,97,0
14,36,100,7
14,36,98,12
14,42,110,33
14,56,55,2
14,47,112,5
14,45,104,40
14,56,93,65
14,42,84,2
14,36,83,20
14,42,99,62
14,36,106,5
14,56,18,0
14,42,87,108
14,56,93,5
14,36,125,2
14,40,98,85
14,42,101,0
14,56,28,7
14,40,127,35
14,56,85,0
14,42,82,7
14,36,83,13
14,36,114,65
14,42,104,2
14,56,46,0
14,36,87,35
14,56,82,60
14,36,94,5
14,42,93,2
14,36,106,10
14,45,122,58
14,42,104,2
14,56,41,5
14,43,125,45
14,42,104,75
14,56,95,0
14,36,125,42
14,36,127,62
14,53,73,110
14,36,122,2
14,51,107,75
14,53,108,0
14,40,127,12
14,53,59,73
14,36,98,7
14,51,99,68
14,53,110,7
14,36,108,5
14,53,95,93
14,51,95,0
14,36,120,12
14,53,64,113
14,36,108,7
14,51,101,33
14,53,106,0
14,40,112,12
14,53,65,40
14,53,112,175
14,51,113,0
14,36,127,12
14,53,80,105
14,36,122,12
14,40,127,112
14,51,116,0
14,53,117,0
14,53,73,45
14,40,127,80
14,51,113,0
14,53,122,7
14,45,102,20
14,45,58,40
14,45,58,42
14,45,84,27
14,45,75,113
14,45,108,28
14,45,64,25
14,43,78,40
