track,note,velocity,time
2,36,123,32060
2,36,0,120
2,36,106,120
2,36,0,600
2,36,121,120
2,36,0,120
2,36,107,120
2,36,0,600
2,38,106,120
2,38,0,120
2,38,97,120
2,38,0,600
2,38,104,120
2,38,0,120
2,38,96,120
2,38,0,600
2,43,97,120
2,43,0,120
2,43,87,120
2,43,0,600
2,42,94,120
2,42,0,120
2,42,86,120
2,42,0,600
2,40,95,120
2,40,0,120
2,40,87,120
2,40,0,600
2,36,120,120
2,36,0,120
2,36,106,120
2,36,0,600
2,36,123,120
2,36,0,120
2,36,106,120
2,36,0,600
2,36,121,120
2,36,0,120
2,36,107,120
2,36,0,600
2,38,106,120
2,38,0,120
2,38,97,120
2,38,0,600
2,38,104,120
2,38,0,120
2,38,96,120
2,38,0,600
2,43,97,120
2,43,0,120
2,43,87,120
2,43,0,600
2,42,94,120
2,42,0,120
2,42,86,120
2,42,0,600
2,40,95,120
2,40,0,120
2,40,87,120
2,40,0,600
2,40,100,120
2,40,0,120
2,40,86,120
2,40,0,480
2,33,121,0
2,33,0,95
2,35,120,25
2,35,0,95
2,36,123,25
2,36,0,120
2,36,107,120
2,36,0,600
2,36,120,120
2,36,0,120
2,36,107,120
2,36,0,600
2,38,106,120
2,38,0,120
2,38,96,120
2,38,0,600
2,38,105,120
2,38,0,120
2,38,97,120
2,38,0,600
2,40,112,120
2,40,0,120
2,40,96,120
2,40,0,600
2,40,111,120
2,40,0,120
2,40,97,120
2,40,0,600
2,38,106,120
2,38,0,120
2,38,96,120
2,38,0,600
2,38,105,120
2,38,0,120
2,38,96,120
2,38,0,600
2,31,123,120
2,31,0,120
2,31,117,120
2,31,0,600
2,38,112,120
2,38,0,120
2,38,107,120
2,38,0,600
2,36,118,120
2,36,0,120
2,36,112,120
2,36,0,360
2,28,121,120
2,28,0,1162
2,31,123,38
2,31,0,120
2,31,116,120
2,31,0,600
2,38,112,120
2,38,0,120
2,38,107,120
2,38,0,600
2,40,119,120
2,40,0,120
2,40,112,120
2,40,0,682
2,28,118,38
2,28,0,120
2,28,113,120
2,28,0,682
2,36,122,38
2,36,0,120
2,36,117,120
2,36,0,240
2,38,113,480
2,38,0,120
2,38,106,120
2,38,0,240
2,40,119,480
2,40,0,120
2,40,112,120
2,40,0,360
2,33,120,120
2,33,0,1162
2,36,123,38
2,36,0,120
2,36,117,120
2,36,0,600
2,38,112,120
2,38,0,120
2,38,106,120
2,38,0,600
2,41,119,120
2,41,0,120
2,41,113,120
2,41,0,360
2,43,116,120
2,43,0,1162
2,31,122,38
2,31,0,120
2,31,117,120
2,31,0,600
2,38,112,120
2,38,0,120
2,38,107,120
2,38,0,600
2,36,119,120
2,36,0,120
2,36,112,120
2,36,0,360
2,28,121,120
2,28,0,1162
2,31,122,38
2,31,0,120
2,31,116,120
2,31,0,600
2,38,113,120
2,38,0,120
2,38,107,120
2,38,0,600
2,36,118,120
2,36,0,120
2,36,112,120
2,36,0,360
2,28,121,120
2,28,0,1162
2,36,123,38
2,36,0,120
2,36,106,120
2,36,0,600
2,36,120,120
2,36,0,120
2,36,107,120
2,36,0,600
2,38,106,120
2,38,0,120
2,38,97,120
2,38,0,600
2,38,105,120
2,38,0,120
2,38,96,120
2,38,0,600
2,43,97,120
2,43,0,120
2,43,86,120
2,43,0,600
2,42,94,120
2,42,0,120
2,42,87,120
2,42,0,600
2,40,95,120
2,40,0,120
2,40,86,120
2,40,0,600
2,36,120,120
2,36,0,120
2,36,107,120
2,36,0,600
2,36,123,120
2,36,0,120
2,36,106,120
2,36,0,600
2,36,120,120
2,36,0,120
2,36,107,120
2,36,0,600
2,38,106,120
2,38,0,120
2,38,97,120
2,38,0,600
2,38,105,120
2,38,0,120
2,38,96,120
2,38,0,600
2,43,97,120
2,43,0,120
2,43,86,120
2,43,0,600
2,42,94,120
2,42,0,120
2,42,87,120
2,42,0,600
2,40,95,120
2,40,0,120
2,40,86,120
2,40,0,600
2,40,100,120
2,40,0,120
2,40,87,120
2,40,0,480
2,33,121,0
2,33,0,95
2,35,120,25
2,35,0,95
2,36,122,25
2,36,0,120
2,36,107,120
2,36,0,600
2,36,120,120
2,36,0,120
2,36,107,120
2,36,0,600
2,38,107,120
2,38,0,120
2,38,96,120
2,38,0,600
2,38,105,120
2,38,0,120
2,38,96,120
2,38,0,600
2,40,112,120
2,40,0,120
2,40,97,120
2,40,0,600
2,40,111,120
2,40,0,120
2,40,96,120
2,40,0,600
2,38,106,120
2,38,0,120
2,38,97,120
2,38,0,600
2,38,105,120
2,38,0,120
2,38,96,120
2,38,0,600
2,31,122,120
2,31,0,120
2,31,117,120
2,31,0,600
2,38,112,120
2,38,0,120
2,38,107,120
2,38,0,600
2,36,119,120
2,36,0,120
2,36,112,120
2,36,0,360
2,28,121,120
2,28,0,1162
2,31,122,38
2,31,0,120
2,31,116,120
2,31,0,600
2,38,113,120
2,38,0,120
2,38,107,120
2,38,0,600
2,40,118,120
2,40,0,120
2,40,112,120
2,40,0,682
2,28,119,38
2,28,0,120
2,28,113,120
2,28,0,682
2,36,122,38
2,36,0,120
2,36,116,120
2,36,0,240
2,38,113,480
2,38,0,120
2,38,106,120
2,38,0,240
2,40,119,480
2,40,0,120
2,40,113,120
2,40,0,360
2,33,120,120
2,33,0,1162
2,36,123,38
2,36,0,120
2,36,116,120
2,36,0,600
2,38,112,120
2,38,0,120
2,38,107,120
2,38,0,600
2,41,119,120
2,41,0,120
2,41,112,120
2,41,0,360
2,43,116,120
2,43,0,1162
2,31,123,15398
2,31,0,120
2,31,117,120
2,31,0,600
2,38,112,120
2,38,0,120
2,38,106,120
2,38,0,600
2,36,119,120
2,36,0,120
2,36,112,120
2,36,0,360
2,28,121,120
2,28,0,1162
2,31,123,38
2,31,0,120
2,31,116,120
2,31,0,600
2,38,113,120
2,38,0,120
2,38,106,120
2,38,0,600
2,40,118,120
2,40,0,120
2,40,113,120
2,40,0,682
2,28,119,38
2,28,0,120
2,28,112,120
2,28,0,682
2,36,122,38
2,36,0,120
2,36,117,120
2,36,0,240
2,38,113,480
2,38,0,120
2,38,106,120
2,38,0,240
2,40,118,480
2,40,0,120
2,40,113,120
2,40,0,360
2,33,120,120
2,33,0,1162
2,36,123,38
2,36,0,120
2,36,117,120
2,36,0,600
2,38,112,120
2,38,0,120
2,38,107,120
2,38,0,600
2,41,118,120
2,41,0,120
2,41,112,120
2,41,0,360
2,43,117,120
2,43,0,120
3,62,107,1315
3,67,106,10
3,71,107,10
3,62,0,82
3,67,0,10
3,71,0,10
3,62,107,18
3,67,106,10
3,71,107,10
3,67,0,192
3,62,0,8
3,71,0,2
3,62,68,18
3,67,68,10
3,71,69,10
3,67,0,82
3,71,0,0
3,62,0,3
3,62,75,15
3,67,74,0
3,71,74,0
3,62,0,100
3,67,0,10
3,71,0,10
3,62,89,0
3,67,89,10
3,71,88,10
3,67,0,72
3,71,0,10
3,62,0,10
3,62,98,8
3,67,99,0
3,71,98,0
3,62,0,100
3,67,0,5
3,71,0,15
3,62,107,0
3,67,107,10
3,71,106,10
3,62,0,62
3,67,0,10
3,71,0,10
3,50,91,138
3,57,90,10
3,62,90,10
3,50,0,182
3,57,0,10
3,62,0,10
3,50,107,18
3,57,107,10
3,62,106,10
3,66,106,10
3,50,0,172
3,57,0,10
3,62,0,10
3,66,0,10
3,50,93,8
3,57,93,10
3,62,92,10
3,66,92,10
3,50,0,52
3,57,0,10
3,62,0,10
3,66,0,10
3,50,107,8
3,57,106,0
3,62,107,0
3,66,107,0
3,50,0,120
3,57,0,0
3,62,0,0
3,66,0,0
3,52,106,0
3,55,107,10
3,60,106,10
3,64,106,10
3,52,0,292
3,55,0,10
3,60,0,10
3,64,0,10
3,52,81,8
3,55,81,0
3,60,80,0
3,64,80,0
3,52,0,82
3,55,0,0
3,60,0,38
3,64,0,0
3,52,99,0
3,55,99,10
3,60,98,10
3,64,98,10
3,52,0,117
3,55,0,10
3,60,0,10
3,64,0,10
3,40,107,63
3,47,106,10
3,52,107,10
3,55,107,10
3,59,106,10
3,64,107,12
3,47,0,400
3,52,0,10
3,55,0,10
3,47,58,8
3,59,0,2
3,52,58,8
3,64,0,5
3,55,59,5
3,59,59,10
3,52,0,182
3,55,0,10
3,59,0,10
3,52,74,8
3,55,74,10
3,59,75,10
3,64,75,10
3,52,0,70
3,59,0,2
3,55,0,3
3,64,0,7
3,52,84,8
3,55,84,0
3,59,85,0
3,64,84,0
3,52,0,102
3,55,0,3
3,59,0,15
3,64,0,0
3,52,97,0
3,55,97,10
3,59,96,10
3,64,97,10
3,52,0,72
3,59,0,0
3,55,0,3
3,64,0,7
3,40,0,8
3,47,0,0
3,52,98,0
3,55,98,0
3,59,99,0
3,64,99,0
3,52,0,82
3,55,0,0
3,59,0,0
3,64,0,0
3,62,106,38
3,67,106,10
3,71,107,10
3,62,0,82
3,67,0,10
3,71,0,10
3,62,107,18
3,67,106,10
3,71,106,10
3,62,0,182
3,67,0,10
3,71,0,10
3,62,69,18
3,67,68,10
3,71,69,10
3,67,0,72
3,62,0,10
3,71,0,0
3,62,75,18
3,67,74,0
3,71,75,0
3,62,0,100
3,67,0,17
3,71,0,3
3,62,88,0
3,67,88,10
3,71,89,10
3,67,0,72
3,71,0,10
3,62,0,3
3,62,99,15
3,67,98,0
3,71,98,0
3,62,0,105
3,67,0,2
3,71,0,13
3,62,107,0
3,67,107,10
3,71,106,10
3,62,0,62
3,67,0,10
3,71,0,10
3,50,90,138
3,57,91,10
3,62,90,10
3,50,0,182
3,57,0,10
3,62,0,10
3,50,107,18
3,57,107,10
3,62,106,10
3,66,107,10
3,57,0,182
3,50,0,8
3,62,0,2
3,66,0,10
3,50,92,8
3,57,92,10
3,62,93,10
3,66,93,10
3,62,0,72
3,57,0,5
3,50,0,3
3,66,0,2
3,50,106,8
3,57,106,0
3,62,107,0
3,66,107,0
3,50,0,120
3,57,0,0
3,62,0,0
3,66,0,0
3,52,106,0
3,55,106,10
3,60,107,10
3,64,106,10
3,52,0,292
3,55,0,10
3,60,0,10
3,64,0,10
3,52,81,8
3,55,81,0
3,60,80,0
3,64,81,0
3,52,0,82
3,55,0,0
3,60,0,38
3,64,0,0
3,52,98,0
3,55,98,10
3,60,99,10
3,64,99,10
3,52,0,117
3,55,0,10
3,60,0,10
3,64,0,10
3,43,106,63
3,47,106,10
3,50,107,10
3,55,107,10
3,59,106,10
3,67,106,12
3,47,0,400
3,50,0,10
3,55,0,10
3,47,59,8
3,59,0,2
3,50,58,8
3,67,0,5
3,55,59,5
3,59,59,10
3,50,0,182
3,55,0,10
3,59,0,10
3,50,74,8
3,55,75,10
3,59,74,10
3,67,74,10
3,55,0,62
3,50,0,10
3,59,0,0
3,67,0,10
3,50,85,8
3,55,85,0
3,59,84,0
3,67,84,0
3,50,0,105
3,55,0,2
3,59,0,13
3,67,0,0
3,50,97,0
3,55,97,10
3,59,96,10
3,67,96,10
3,50,0,70
3,55,0,2
3,59,0,0
3,67,0,10
3,47,0,8
3,50,99,0
3,55,98,0
3,59,99,0
3,67,99,0
3,50,0,82
3,55,0,0
3,59,0,0
3,67,0,0
3,43,0,38
3,48,106,0
3,48,0,120
3,48,107,120
3,48,0,240
3,52,90,0
3,55,76,120
3,52,0,82
3,60,115,38
3,64,115,0
3,60,0,202
3,60,106,38
3,55,0,120
3,64,0,0
3,48,106,0
3,60,0,120
3,48,0,120
3,52,91,0
3,60,85,120
3,64,82,5
3,52,0,77
3,50,106,158
3,60,0,120
3,64,0,0
3,50,0,0
3,50,107,120
3,55,96,240
3,62,77,0
3,66,77,10
3,55,0,110
3,57,102,0
3,62,0,180
3,57,0,0
3,66,0,27
3,50,0,33
3,66,95,0
3,62,94,10
3,57,94,10
3,50,107,100
3,50,0,120
3,50,107,120
3,66,0,120
3,62,0,10
3,57,0,10
3,55,96,100
3,62,76,0
3,66,77,10
3,55,0,110
3,57,103,0
3,62,0,180
3,57,0,0
3,66,0,15
3,50,0,45
3,66,74,0
3,62,74,10
3,57,75,10
3,66,0,100
3,43,106,0
3,62,0,10
3,57,0,10
3,43,0,100
3,43,107,120
3,50,95,240
3,55,94,10
3,59,95,10
3,50,0,280
3,55,0,10
3,59,0,10
3,43,0,40
3,59,94,0
3,55,94,10
3,50,95,10
3,59,0,100
3,42,107,0
3,55,0,10
3,50,0,10
3,42,0,100
3,42,106,120
3,50,94,240
3,57,95,10
3,62,95,10
3,50,0,280
3,57,0,10
3,62,0,10
3,42,0,40
3,62,94,0
3,57,94,10
3,50,95,10
3,62,0,100
3,48,106,0
3,57,0,10
3,50,0,10
3,48,0,100
3,48,107,120
3,48,0,240
3,52,91,0
3,55,76,120
3,52,0,82
3,60,125,38
3,64,124,0
3,60,0,202
3,64,0,38
3,60,106,0
3,55,0,120
3,48,107,0
3,60,0,120
3,48,0,120
3,52,91,0
3,60,84,120
3,64,82,5
3,52,0,77
3,48,107,158
3,60,0,120
3,64,0,0
3,48,0,0
3,48,107,120
3,48,0,240
3,52,90,0
3,55,76,120
3,52,0,82
3,60,115,38
3,64,114,0
3,60,0,202
3,60,107,38
3,55,0,120
3,64,0,0
3,48,107,0
3,60,0,120
3,48,0,120
3,52,90,0
3,60,85,120
3,64,82,5
3,52,0,77
3,50,106,158
3,60,0,120
3,64,0,0
3,50,0,0
3,50,107,120
3,55,97,240
3,62,76,0
3,66,76,10
3,55,0,110
3,57,103,0
3,62,0,180
3,57,0,0
3,66,0,27
3,50,0,33
3,66,95,0
3,62,94,10
3,57,94,10
3,50,107,100
3,50,0,120
3,50,106,120
3,66,0,120
3,62,0,10
3,57,0,10
3,55,97,100
3,62,77,0
3,66,76,10
3,55,0,110
3,57,103,0
3,62,0,180
3,57,0,0
3,66,0,15
3,50,0,45
3,66,74,0
3,62,74,10
3,57,75,10
3,66,0,100
3,43,107,0
3,62,0,10
3,57,0,10
3,43,0,100
3,43,106,120
3,50,104,240
3,55,105,10
3,59,105,10
3,50,0,280
3,55,0,10
3,59,0,10
3,43,0,40
3,59,94,0
3,55,94,10
3,50,95,10
3,59,0,100
3,42,106,0
3,55,0,10
3,50,0,10
3,42,0,100
3,42,107,120
3,50,105,240
3,57,104,10
3,62,105,10
3,50,0,280
3,57,0,10
3,62,0,10
3,42,0,40
3,62,94,0
3,57,94,10
3,50,95,10
3,62,0,100
3,40,107,0
3,57,0,10
3,50,0,10
3,40,0,100
3,40,106,120
3,52,104,240
3,55,105,10
3,59,105,10
3,64,104,10
3,52,0,270
3,55,0,10
3,59,0,10
3,64,0,10
3,40,0,30
3,64,94,5
3,59,95,5
3,55,94,5
3,52,95,5
3,40,107,100
3,64,0,5
3,59,0,5
3,55,0,5
3,52,0,5
3,40,0,100
3,40,106,120
3,52,105,240
3,55,104,10
3,59,104,10
3,64,105,10
3,52,0,270
3,55,0,10
3,59,0,10
3,64,0,10
3,40,0,30
3,64,95,5
3,59,94,5
3,55,94,5
3,52,95,5
3,48,117,100
3,64,0,5
3,59,0,5
3,55,0,5
3,52,0,5
3,48,0,100
3,48,116,120
3,48,0,240
3,52,100,0
3,55,87,120
3,52,0,82
3,60,124,38
3,64,125,0
3,60,0,202
3,60,117,38
3,55,0,120
3,64,0,0
3,48,116,0
3,60,0,120
3,48,0,120
3,52,101,0
3,60,94,120
3,64,92,5
3,52,0,77
3,50,117,158
3,60,0,120
3,64,0,0
3,50,0,0
3,50,117,120
3,55,106,240
3,62,86,0
3,66,87,10
3,55,0,110
3,57,113,0
3,62,0,180
3,57,0,0
3,66,0,27
3,50,0,33
3,66,104,0
3,62,104,10
3,57,105,10
3,50,116,100
3,50,0,120
3,50,117,120
3,66,0,120
3,62,0,10
3,57,0,10
3,55,107,100
3,62,86,0
3,66,87,10
3,55,0,110
3,57,112,0
3,62,0,180
3,57,0,0
3,66,0,15
3,50,0,45
3,66,84,0
3,62,85,10
3,57,85,10
3,66,0,100
3,48,116,0
3,62,0,10
3,57,0,10
3,48,0,100
