track,note,velocity,time
1,72,100,3060
1,72,0,180
1,72,100,0
1,72,0,180
1,69,100,0
1,69,0,60
1,67,100,0
1,67,0,120
1,76,100,2340
1,76,0,180
1,76,100,0
1,76,0,180
1,76,100,0
1,76,0,180
1,76,100,0
1,76,0,120
1,74,100,0
1,74,0,60
1,72,100,0
1,72,0,120
1,72,100,0
1,72,0,180
1,72,100,0
1,72,0,60
1,72,100,0
1,72,0,120
1,71,100,0
1,71,0,180
1,67,100,0
1,67,0,120
1,76,100,300
1,76,0,120
1,76,100,0
1,76,0,60
1,76,100,0
1,76,0,120
1,74,100,0
1,74,0,60
1,72,100,0
1,72,0,120
1,72,100,0
1,72,0,180
1,72,100,0
1,72,0,60
1,72,100,0
1,72,0,120
1,74,100,0
1,74,0,240
1,76,100,660
1,76,0,60
1,74,100,0
1,74,0,120
1,72,100,0
1,72,0,60
1,72,100,0
1,72,0,120
1,72,100,0
1,72,0,60
1,72,100,0
1,72,0,120
1,69,100,0
1,69,0,120
1,67,100,0
1,67,0,120
1,67,100,0
1,67,0,60
1,69,100,0
1,69,0,120
1,72,100,0
1,72,0,120
1,76,100,360
1,76,0,60
1,74,100,0
1,74,0,120
1,72,100,0
1,72,0,60
1,72,100,0
1,72,0,120
1,72,100,0
1,72,0,60
1,72,100,0
1,72,0,120
1,67,100,0
1,67,0,240
1,76,100,360
1,76,0,120
1,76,100,0
1,76,0,60
1,76,100,0
1,76,0,120
1,74,100,0
1,74,0,60
1,72,100,0
1,72,0,120
1,72,100,0
1,72,0,180
1,71,100,0
1,71,0,60
1,72,100,0
1,72,0,120
1,76,100,0
1,76,0,240
1,74,100,0
1,74,0,180
1,76,100,180
1,76,0,120
1,76,100,0
1,76,0,60
1,76,100,0
1,76,0,120
1,74,100,0
1,74,0,60
1,72,100,0
1,72,0,120
1,72,100,0
1,72,0,180
1,72,100,0
1,72,0,120
1,72,100,0
1,72,0,120
1,74,100,0
1,74,0,180
1,76,100,360
1,76,0,120
1,76,100,0
1,76,0,60
1,76,100,0
1,76,0,120
1,74,100,0
1,74,0,60
1,72,100,0
1,72,0,120
1,72,100,0
1,72,0,180
1,72,100,0
1,72,0,60
1,72,100,0
1,72,0,120
1,71,100,0
1,71,0,180
1,67,100,0
1,67,0,240
1,76,100,120
1,76,0,60
1,76,100,0
1,76,0,120
1,76,100,0
1,76,0,60
1,76,100,0
1,76,0,120
1,74,100,0
1,74,0,120
1,72,100,60
1,72,0,60
1,77,100,0
1,77,0,120
1,76,100,0
1,76,0,60
1,77,100,0
1,77,0,120
1,79,100,0
1,79,0,1800
1,74,100,0
1,74,0,60
1,76,100,0
1,76,0,60
1,74,100,0
1,74,0,420
1,72,100,0
1,72,0,180
1,72,100,0
1,72,0,60
1,67,100,0
1,67,0,360
1,76,100,3060
1,76,0,180
1,76,100,0
1,76,0,180
1,76,100,0
1,76,0,180
1,76,100,0
1,76,0,120
1,74,100,0
1,74,0,60
1,72,100,0
1,72,0,120
1,72,100,0
1,72,0,180
1,72,100,0
1,72,0,60
1,72,100,0
1,72,0,120
1,76,100,0
1,76,0,180
1,74,100,0
1,74,0,120
1,76,100,300
1,76,0,120
1,76,100,0
1,76,0,60
1,76,100,0
1,76,0,120
1,74,100,0
1,74,0,60
1,72,100,0
1,72,0,120
1,77,100,0
1,77,0,180
1,76,100,0
1,76,0,120
1,77,100,0
1,77,0,120
1,79,100,0
1,79,0,360
1,72,100,300
1,72,0,60
1,76,100,0
1,76,0,120
1,74,100,0
1,74,0,60
1,72,100,0
1,72,0,120
1,72,100,0
1,72,0,180
1,71,100,0
1,71,0,60
1,72,100,0
1,72,0,120
1,76,100,0
1,76,0,240
1,74,100,0
1,74,0,180
1,76,100,0
1,76,0,180
1,74,100,0
1,74,0,120
1,72,100,0
1,72,0,60
1,76,100,120
1,76,0,60
1,74,100,0
1,74,0,120
1,72,100,0
1,72,0,60
1,72,100,0
1,72,0,120
1,72,100,0
1,72,0,60
1,72,100,0
1,72,0,120
1,67,100,0
1,67,0,360
1,76,100,240
1,76,0,120
1,76,100,0
1,76,0,60
1,76,100,0
1,76,0,120
1,74,100,0
1,74,0,120
1,72,100,0
1,72,0,120
1,72,100,0
1,72,0,120
1,72,100,0
1,72,0,120
1,72,100,0
1,72,0,120
1,71,100,0
1,71,0,120
1,67,100,0
1,67,0,120
1,76,100,300
1,76,0,120
1,76,100,0
1,76,0,60
1,76,100,0
1,76,0,120
1,74,100,0
1,74,0,60
1,72,100,0
1,72,0,120
1,77,100,0
1,77,0,180
1,76,100,0
1,76,0,60
1,76,100,0
1,76,0,120
1,76,100,0
1,76,0,120
1,74,100,0
1,74,0,300
1,76,100,0
1,76,0,180
1,76,100,300
1,76,0,60
1,74,100,0
1,74,0,120
1,72,100,0
1,72,0,60
1,72,100,0
1,72,0,120
1,72,100,0
1,72,0,60
1,72,100,0
1,72,0,120
1,76,100,0
1,76,0,240
1,74,100,0
1,74,0,120
1,72,100,0
1,72,0,60
1,76,100,0
1,76,0,180
1,74,100,0
1,74,0,120
1,72,100,0
1,72,0,60
1,76,100,120
1,76,0,60
1,74,100,0
1,74,0,120
1,72,100,0
1,72,0,60
1,72,100,0
1,72,0,120
1,72,100,0
1,72,0,60
1,72,100,0
1,72,0,120
1,79,100,0
1,79,0,60
1,81,100,0
1,81,0,60
1,79,100,0
1,79,0,660
1,79,100,0
1,79,0,60
1,81,100,0
1,81,0,60
1,79,100,0
1,79,0,720
1,76,100,4380
1,76,0,180
1,76,100,0
1,76,0,180
1,76,100,0
1,76,0,180
1,76,100,0
1,76,0,120
1,74,100,0
1,74,0,60
1,72,100,0
1,72,0,120
1,72,100,0
1,72,0,180
1,72,100,0
1,72,0,60
1,72,100,0
1,72,0,120
1,76,100,0
1,76,0,180
1,74,100,0
1,74,0,120
1,76,100,300
1,76,0,120
1,76,100,0
1,76,0,60
1,76,100,0
1,76,0,120
1,74,100,0
1,74,0,60
1,72,100,0
1,72,0,120
1,77,100,0
1,77,0,180
1,76,100,0
1,76,0,120
1,77,100,0
1,77,0,120
1,79,100,0
1,79,0,360
1,72,100,300
1,72,0,60
1,76,100,0
1,76,0,120
1,74,100,0
1,74,0,60
1,72,100,0
1,72,0,120
1,72,100,0
1,72,0,180
1,71,100,0
1,71,0,60
1,72,100,0
1,72,0,120
1,76,100,0
1,76,0,240
1,74,100,0
1,74,0,180
1,76,100,0
1,76,0,180
1,74,100,0
1,74,0,120
1,72,100,0
1,72,0,60
1,76,100,120
1,76,0,60
1,74,100,0
1,74,0,120
1,72,100,0
1,72,0,60
1,72,100,0
1,72,0,120
1,72,100,0
1,72,0,60
1,72,100,0
1,72,0,120
1,67,100,0
1,67,0,360
1,76,100,240
1,76,0,120
1,76,100,0
1,76,0,60
1,76,100,0
1,76,0,120
1,74,100,0
1,74,0,120
1,72,100,0
1,72,0,120
1,72,100,0
1,72,0,120
1,72,100,0
1,72,0,120
1,72,100,0
1,72,0,120
1,71,100,0
1,71,0,120
1,67,100,0
1,67,0,120
1,76,100,300
1,76,0,120
1,76,100,0
1,76,0,60
1,76,100,0
1,76,0,120
1,74,100,0
1,74,0,60
1,72,100,0
1,72,0,120
1,77,100,0
1,77,0,180
1,76,100,0
1,76,0,60
1,76,100,0
1,76,0,120
1,76,100,0
1,76,0,120
1,74,100,0
1,74,0,300
1,76,100,0
1,76,0,180
1,76,100,300
1,76,0,60
1,74,100,0
1,74,0,120
1,72,100,0
1,72,0,60
1,72,100,0
1,72,0,120
1,72,100,0
1,72,0,60
1,72,100,0
1,72,0,120
1,76,100,0
1,76,0,240
1,74,100,0
1,74,0,120
1,72,100,0
1,72,0,60
1,76,100,0
1,76,0,180
1,74,100,0
1,74,0,120
1,72,100,0
1,72,0,60
1,76,100,120
1,76,0,60
1,74,100,0
1,74,0,120
1,72,100,0
1,72,0,60
1,72,100,0
1,72,0,120
1,72,100,0
1,72,0,60
1,72,100,0
1,72,0,120
1,79,100,0
1,79,0,60
1,81,100,0
1,81,0,60
1,79,100,0
1,79,0,660
1,79,100,0
1,79,0,60
1,81,100,0
1,81,0,60
1,79,100,0
1,79,0,720
1,76,100,0
1,76,0,60
1,74,100,0
1,74,0,120
1,72,100,0
1,72,0,60
1,76,100,0
1,76,0,120
1,74,100,0
1,74,0,60
1,72,100,0
1,72,0,120
1,72,100,0
1,72,0,360
1,76,100,540
1,76,0,60
1,74,100,0
1,74,0,120
1,72,100,0
1,72,0,60
1,76,100,0
1,76,0,120
1,74,100,0
1,74,0,60
1,72,100,0
1,72,0,120
1,72,100,0
1,72,0,29
1,74,100,1
1,74,0,29
1,72,100,1
1,72,0,720
1,76,100,120
1,76,0,180
1,69,100,0
1,69,0,180
1,69,100,0
1,69,0,60
1,69,100,0
1,69,0,120
1,67,100,0
1,67,0,720
1,79,100,8460
1,79,0,1680
1,81,100,0
1,81,0,120
1,79,100,0
1,79,0,240
1,81,100,0
1,81,0,240
1,79,100,0
1,79,0,1320
1,76,100,240
1,76,0,300
1,77,100,0
1,77,0,60
1,76,100,0
1,76,0,120
1,72,100,0
1,72,0,120
1,72,100,240
1,72,0,120
1,72,100,0
1,72,0,120
1,72,100,0
1,72,0,240
1,72,100,0
1,72,0,360
1,72,100,0
1,72,0,240
1,72,100,0
1,72,0,120
1,72,100,480
1,72,0,60
1,72,100,0
1,72,0,60
1,72,100,0
1,72,0,60
1,72,100,0
1,72,0,60
1,72,100,0
1,72,0,60
1,67,100,0
1,67,0,180
1,67,100,0
1,67,0,480
1,79,100,1320
1,79,0,1680
1,81,100,0
1,81,0,120
1,79,100,0
1,79,0,240
1,81,100,0
1,81,0,240
1,79,100,0
1,79,0,1320
1,76,100,240
1,76,0,300
1,77,100,0
1,77,0,60
1,76,100,0
1,76,0,120
1,72,100,0
1,72,0,120
1,72,100,240
1,72,0,120
1,72,100,0
1,72,0,120
1,72,100,0
1,72,0,240
1,72,100,0
1,72,0,360
1,72,100,0
1,72,0,240
1,72,100,0
1,72,0,480
1,79,100,1440
1,79,0,1680
1,81,100,0
1,81,0,120
1,79,100,0
1,79,0,240
1,81,100,0
1,81,0,240
1,79,100,0
1,79,0,1320
1,76,100,240
1,76,0,300
1,77,100,0
1,77,0,60
1,76,100,0
1,76,0,120
1,72,100,0
1,72,0,120
1,72,100,240
1,72,0,120
1,72,100,0
1,72,0,120
1,72,100,0
1,72,0,240
1,72,100,0
1,72,0,360
1,72,100,0
1,72,0,240
1,72,100,0
1,72,0,480
1,72,100,180
1,72,0,60
1,72,100,0
1,72,0,60
1,72,100,0
1,72,0,60
1,72,100,0
1,72,0,60
1,72,100,0
1,72,0,180
1,76,100,600
1,76,0,60
1,74,100,0
1,74,0,60
1,72,100,0
1,72,0,60
1,72,100,0
1,72,0,480
1,72,100,300
1,72,0,60
1,72,100,0
1,72,0,60
1,72,100,0
1,72,0,60
1,72,100,0
1,72,0,480
1,72,100,180
1,72,0,60
1,76,100,0
1,76,0,120
1,74,100,0
1,74,0,60
1,72,100,0
1,72,0,120
1,79,100,0
1,79,0,1560
1,76,100,60
1,76,0,120
1,74,100,0
1,74,0,60
1,72,100,0
1,72,0,1440
1,76,100,28860
1,76,0,180
1,76,100,0
1,76,0,180
1,76,100,0
1,76,0,180
1,76,100,0
1,76,0,120
1,74,100,0
1,74,0,60
1,72,100,0
1,72,0,120
1,72,100,0
1,72,0,180
1,72,100,0
1,72,0,60
1,72,100,0
1,72,0,120
1,71,100,0
1,71,0,180
1,67,100,0
1,67,0,120
1,76,100,300
1,76,0,120
1,76,100,0
1,76,0,60
1,76,100,0
1,76,0,120
1,74,100,0
1,74,0,60
1,72,100,0
1,72,0,120
1,72,100,0
1,72,0,180
1,72,100,0
1,72,0,60
1,72,100,0
1,72,0,120
1,74,100,0
1,74,0,240
1,76,100,660
1,76,0,60
1,74,100,0
1,74,0,120
1,72,100,0
1,72,0,60
1,72,100,0
1,72,0,120
1,72,100,0
1,72,0,60
1,72,100,0
1,72,0,120
1,69,100,0
1,69,0,120
1,67,100,0
1,67,0,120
1,67,100,0
1,67,0,60
1,69,100,0
1,69,0,120
1,72,100,0
1,72,0,120
1,76,100,360
1,76,0,60
1,74,100,0
1,74,0,120
1,72,100,0
1,72,0,60
1,72,100,0
1,72,0,120
1,72,100,0
1,72,0,60
1,72,100,0
1,72,0,120
1,67,100,0
1,67,0,240
1,76,100,360
1,76,0,120
1,76,100,0
1,76,0,60
1,76,100,0
1,76,0,120
1,74,100,0
1,74,0,60
1,72,100,0
1,72,0,120
1,72,100,0
1,72,0,180
1,71,100,0
1,71,0,60
1,72,100,0
1,72,0,120
1,76,100,0
1,76,0,240
1,74,100,0
1,74,0,180
1,76,100,180
1,76,0,120
1,76,100,0
1,76,0,60
1,76,100,0
1,76,0,120
1,74,100,0
1,74,0,60
1,72,100,0
1,72,0,120
1,72,100,0
1,72,0,180
1,72,100,0
1,72,0,120
1,72,100,0
1,72,0,120
1,74,100,0
1,74,0,180
1,76,100,360
1,76,0,120
1,79,100,0
1,79,0,60
1,79,100,0
1,79,0,540
1,79,100,180
1,79,0,60
1,81,100,0
1,81,0,60
1,79,100,0
1,79,0,600
1,77,100,0
1,77,0,60
1,74,100,0
1,74,0,60
1,72,100,0
1,72,0,240
1,76,100,480
1,76,0,60
1,67,100,0
1,67,0,300
1,67,100,0
1,67,0,180
1,79,100,60
1,79,0,2160
1,81,100,0
1,81,0,60
1,81,100,60
1,81,0,60
1,79,100,0
1,79,0,360
1,74,100,0
1,74,0,360
1,72,100,0
1,72,0,360
1,76,100,300
1,76,0,60
1,74,100,0
1,74,0,120
1,72,100,0
1,72,0,60
1,76,100,0
1,76,0,120
1,74,100,0
1,74,0,60
1,72,100,0
1,72,0,120
1,72,100,0
1,72,0,360
1,76,100,540
1,76,0,60
1,74,100,0
1,74,0,120
1,72,100,0
1,72,0,60
1,76,100,0
1,76,0,120
1,74,100,0
1,74,0,60
1,72,100,0
1,72,0,120
1,72,100,0
1,72,0,360
1,76,100,540
1,76,0,60
1,74,100,0
1,74,0,120
1,72,100,0
1,72,0,60
1,76,100,0
1,76,0,120
1,74,100,0
1,74,0,60
1,72,100,0
1,72,0,120
1,72,100,0
1,72,0,360
1,76,100,540
1,76,0,60
1,74,100,0
1,74,0,120
1,72,100,0
1,72,0,60
1,72,100,0
1,72,0,120
1,72,100,0
1,72,0,60
1,72,100,0
1,72,0,120
1,72,100,0
1,72,0,360
1,76,100,540
1,76,0,60
1,74,100,0
1,74,0,120
1,72,100,0
1,72,0,60
1,72,100,120
1,72,0,60
1,67,100,0
1,67,0,60
1,67,100,0
1,67,0,60
1,67,100,0
1,67,0,60
1,76,100,120
1,76,0,60
1,74,100,0
1,74,0,120
1,72,100,0
1,72,0,60
1,72,100,120
1,72,0,60
1,67,100,0
1,67,0,60
1,67,100,0
1,67,0,60
1,67,100,0
1,67,0,60
1,76,100,120
1,76,0,60
1,74,100,0
1,74,0,120
1,72,100,0
1,72,0,60
1,76,100,0
1,76,0,120
1,74,100,0
1,74,0,60
1,72,100,0
1,72,0,120
1,72,100,0
1,72,0,900
1,76,100,0
1,76,0,60
1,74,100,0
1,74,0,120
1,72,100,0
1,72,0,60
1,76,100,0
1,76,0,120
1,74,100,0
1,74,0,60
1,72,100,0
1,72,0,180
1,72,100,0
1,72,0,1440
2,69,100,60
2,69,0,60
2,76,100,0
2,76,0,60
2,79,100,0
2,79,0,60
2,76,100,0
2,76,0,60
2,77,100,4
2,69,100,112
2,77,0,8
2,69,0,52
2,76,100,8
2,79,100,49
2,76,0,11
2,79,0,49
2,76,100,11
2,76,0,60
2,77,100,0
2,76,100,172
2,77,0,8
2,76,0,352
2,67,100,305
2,74,100,59
2,67,0,1
2,77,100,57
2,74,0,2
2,74,100,57
2,77,0,1
2,74,0,59
2,76,100,4
2,67,100,115
2,76,0,5
2,67,0,55
2,74,100,0
2,76,100,57
2,74,0,3
2,76,0,57
2,74,100,3
2,74,0,60
