track,note,velocity,time
0,43,127,17
0,43,125,0
0,44,127,21
0,44,127,0
0,36,108,3
0,44,0,2
0,44,0,0
0,36,0,2
0,43,0,89
0,43,0,0
0,44,127,5
0,44,0,88
0,40,77,0
0,40,0,4
0,56,127,1
0,40,120,1
0,40,0,4
0,56,0,87
0,56,127,100
0,36,105,1
0,36,0,4
0,40,80,2
0,40,0,4
0,40,121,2
0,40,0,4
0,43,116,6
0,44,127,91
0,36,107,4
0,44,0,2
0,36,0,2
0,43,0,84
0,44,127,6
0,44,0,71
0,56,127,15
0,40,75,4
0,40,0,4
0,40,120,4
0,40,0,4
0,49,127,4
0,36,107,2
0,36,0,4
0,50,120,184
0,36,104,4
0,50,0,2
0,36,0,2
0,40,81,84
0,51,126,4
0,40,0,0
0,49,0,1
0,40,119,3
0,40,0,4
0,54,124,85
0,51,0,2
0,44,127,98
0,36,108,3
0,54,0,1
0,36,0,3
0,44,0,89
0,44,127,5
0,44,0,88
0,40,77,0
0,40,0,4
0,56,127,1
0,40,120,1
0,40,0,4
0,56,0,87
0,56,127,100
0,36,105,1
0,36,0,4
0,40,80,8
0,40,0,4
0,40,121,2
0,43,116,25
0,44,127,91
0,36,107,4
0,44,0,2
0,36,0,2
0,43,0,84
0,44,127,6
0,44,0,71
0,56,127,15
0,40,75,4
0,40,0,4
0,40,120,4
0,40,0,4
0,56,0,86
0,49,127,4
0,36,107,2
0,36,0,4
0,50,120,184
0,36,104,4
0,50,0,2
0,36,0,2
0,40,81,84
0,51,126,4
0,40,0,0
0,49,0,1
0,40,119,3
0,40,0,4
0,54,124,85
0,51,0,2
0,40,118,4
0,40,0,4
0,54,0,81
0,49,127,9
0,36,108,3
0,36,0,4
0,49,0,89
0,36,105,3
0,49,127,2
0,36,0,2
0,49,0,86
0,40,77,0
0,40,0,4
0,56,127,1
0,40,120,1
0,40,0,4
0,56,0,87
0,36,100,5
0,36,0,4
0,56,127,91
0,36,105,1
0,36,0,4
0,40,80,18
0,40,0,4
0,40,121,2
0,48,116,6
0,49,127,91
0,36,107,4
0,49,0,2
0,36,0,2
0,48,0,84
0,49,127,6
0,49,0,71
0,56,127,15
0,40,75,4
0,40,0,4
0,40,120,4
0,40,0,4
0,56,0,86
0,49,127,4
0,36,107,2
0,36,0,4
0,50,120,184
0,36,104,4
0,50,0,2
0,36,0,2
0,40,81,84
0,51,126,4
0,40,0,0
0,49,0,1
0,40,119,3
0,40,0,4
0,54,124,85
0,51,0,2
0,44,127,98
0,36,108,3
0,54,0,1
0,36,0,3
0,44,0,89
0,44,127,5
0,44,0,88
0,40,77,0
0,40,0,4
0,56,127,1
0,40,120,1
0,40,0,4
0,56,0,87
0,56,127,100
0,36,105,1
0,36,0,4
0,40,80,11
0,40,0,4
0,40,121,2
0,40,0,4
0,43,116,6
0,44,127,91
0,36,107,4
0,44,0,2
0,36,0,2
0,43,0,84
0,44,127,6
0,56,127,86
0,40,75,4
0,44,0,2
0,40,0,2
0,40,120,4
0,40,0,4
0,56,0,86
0,49,127,4
0,36,107,2
0,36,0,4
0,50,120,184
0,36,104,4
0,50,0,2
0,36,0,2
0,40,81,84
0,51,126,4
0,40,0,0
0,49,0,1
0,40,119,3
0,43,87,0
0,48,87,0
0,40,0,4
0,43,0,0
0,48,0,0
0,54,124,85
0,51,0,2
0,40,111,4
0,43,79,2
0,48,82,1
0,40,0,1
0,43,0,2
0,48,0,1
0,44,127,87
0,36,108,3
0,54,0,1
0,36,0,3
0,44,0,89
0,36,99,3
0,44,1,0
0,56,123,2
0,44,118,0
0,44,127,0
0,36,0,2
0,56,0,53
0,44,0,0
0,44,0,33
0,40,77,0
0,63,127,4
0,51,127,0
0,40,0,0
0,56,127,1
0,44,0,0
0,40,120,1
0,51,1,0
0,40,0,4
0,63,0,54
0,51,0,0
0,56,0,33
0,60,127,4
0,48,127,0
0,51,0,0
0,36,97,1
0,48,1,0
0,36,0,4
0,60,0,44
0,48,0,0
0,61,127,46
0,49,125,0
0,56,127,1
0,48,0,0
0,36,105,1
0,49,1,0
0,36,0,4
0,61,0,73
0,49,0,0
0,61,127,17
0,49,124,0
0,61,0,74
0,49,0,0
0,40,80,2
0,40,0,4
0,40,121,2
0,40,0,4
0,43,116,6
0,44,127,91
0,49,0,3
0,36,107,1
0,48,1,0
0,44,0,2
0,36,0,2
0,60,127,4
0,48,127,0
0,60,0,37
0,48,0,0
0,43,0,43
0,44,127,6
0,60,127,4
0,48,126,0
0,60,0,42
0,48,0,0
0,44,0,25
0,56,127,15
0,40,75,4
0,40,0,4
0,60,127,1
0,48,124,0
0,40,120,3
0,40,0,4
0,60,0,40
0,48,0,0
0,56,0,46
0,49,127,4
0,48,0,1
0,36,107,1
0,49,1,0
0,61,127,3
0,49,125,0
0,36,0,1
0,61,0,70
0,49,0,0
0,61,123,21
0,49,118,0
0,61,0,49
0,49,0,0
0,50,120,44
0,56,127,1
0,44,122,0
0,49,0,2
0,36,104,1
0,44,1,0
0,50,0,2
0,36,0,2
0,56,0,46
0,44,0,0
0,40,81,38
0,51,126,4
0,40,0,0
0,56,123,1
0,44,118,0
0,49,0,0
0,40,119,3
0,40,0,4
0,56,0,68
0,44,0,0
0,54,124,17
0,51,0,2
0,56,123,4
0,44,118,0
0,40,118,0
0,40,0,4
0,56,0,54
0,44,0,0
0,44,127,36
0,36,108,3
0,54,0,1
0,36,0,3
0,56,123,87
0,44,118,0
0,44,0,2
0,44,0,2
0,36,105,1
0,44,1,0
0,44,127,2
0,36,0,2
0,56,0,48
0,44,0,0
0,44,0,38
0,40,77,0
0,63,127,2
0,51,127,0
0,40,0,2
0,56,127,1
0,44,0,0
0,40,120,1
0,51,1,0
0,40,0,4
0,63,0,49
0,51,0,0
0,56,0,38
0,51,0,4
0,60,127,1
0,48,127,0
0,36,100,0
0,48,1,0
0,36,0,4
0,60,0,46
0,48,0,0
0,61,126,42
0,49,121,0
0,56,127,3
0,48,0,0
0,36,105,1
0,49,1,0
0,36,0,4
0,61,0,71
0,49,0,0
0,61,127,18
0,49,122,0
0,61,0,67
0,49,0,0
0,40,80,8
0,40,0,4
0,40,121,2
0,56,123,23
0,44,118,0
0,49,0,0
0,44,1,1
0,43,116,1
0,56,0,46
0,44,0,0
0,44,127,45
0,60,127,1
0,48,127,0
0,44,0,2
0,36,107,1
0,48,1,0
0,44,0,2
0,36,0,2
0,60,0,61
0,48,0,0
0,43,0,23
0,60,127,4
0,48,124,0
0,44,127,2
0,60,0,71
0,48,0,0
0,44,0,0
0,56,127,15
0,40,75,4
0,60,123,1
0,48,118,0
0,40,0,3
0,40,120,4
0,40,0,4
0,60,0,34
0,48,0,0
0,56,0,52
0,61,127,3
0,49,125,0
0,49,127,1
0,48,0,1
0,36,107,1
0,49,1,0
0,36,0,4
0,61,0,65
0,49,0,0
0,61,124,24
0,49,119,0
0,61,0,51
0,49,0,0
0,50,120,44
0,56,123,1
0,44,118,0
0,49,0,2
0,36,104,1
0,44,1,0
0,50,0,2
0,36,0,2
0,56,0,44
0,44,0,0
0,40,81,40
0,51,126,4
0,40,0,0
0,56,123,1
0,44,118,0
0,49,0,0
0,40,119,3
0,40,0,4
0,56,0,66
0,44,0,0
0,54,124,19
0,56,123,2
0,44,118,0
0,51,0,0
0,40,118,4
0,40,0,4
0,56,0,44
0,44,0,0
0,54,0,37
0,49,127,9
0,36,108,3
0,36,0,4
0,56,123,86
0,44,118,0
0,49,0,3
0,44,0,2
0,36,99,1
0,44,1,0
0,49,127,2
0,36,0,2
0,56,0,43
0,44,0,0
0,49,0,43
0,40,77,0
0,63,127,1
0,51,127,0
0,40,0,3
0,56,127,1
0,44,0,0
0,40,120,1
0,51,1,0
0,40,0,4
0,63,0,78
0,51,0,0
0,60,127,9
0,48,127,0
0,56,0,0
0,51,0,4
0,36,97,1
0,48,1,0
0,36,0,4
0,60,0,40
0,48,0,0
0,61,127,45
0,49,122,0
0,56,127,6
0,48,0,0
0,36,105,1
0,49,1,0
0,36,0,4
0,61,0,68
0,49,0,0
0,61,127,17
0,49,127,0
0,40,80,10
0,40,0,4
0,40,121,2
0,48,116,6
0,49,127,91
0,60,127,2
0,48,127,0
0,49,0,1
0,36,107,1
0,48,1,0
0,49,0,2
0,36,0,2
0,60,0,66
0,48,0,0
0,48,0,18
0,60,127,6
0,48,127,0
0,49,127,0
0,60,0,68
0,48,0,0
0,49,0,3
0,56,127,15
0,40,75,4
0,60,127,4
0,48,127,0
0,40,0,0
0,40,120,4
0,40,0,4
0,60,0,31
0,48,0,0
0,56,0,55
0,60,127,1
0,48,127,0
0,49,127,3
0,36,107,2
0,36,0,4
0,60,0,62
0,48,0,0
0,60,127,27
0,48,125,0
0,60,0,31
0,48,0,0
0,50,120,64
0,60,127,2
0,48,122,0
0,36,104,2
0,50,0,2
0,36,0,2
0,60,0,23
0,48,0,0
0,40,81,61
0,61,127,1
0,49,127,0
0,51,126,3
0,40,0,0
0,49,0,1
0,48,0,2
0,40,119,1
0,49,1,0
0,40,0,4
0,61,0,63
0,49,0,0
0,61,127,21
0,49,125,0
0,54,124,1
0,51,0,2
0,40,118,4
0,40,0,4
0,61,0,35
0,49,0,0
0,60,127,51
0,48,127,0
0,44,127,4
0,49,0,2
0,36,108,1
0,48,1,0
0,54,0,1
0,36,0,3
0,60,0,61
0,48,0,0
0,58,127,16
0,46,127,0
0,44,0,12
0,48,0,2
0,36,105,1
0,46,1,0
0,44,127,2
0,36,0,2
0,58,0,34
0,46,0,0
0,56,123,46
0,44,118,0
0,44,0,6
0,40,77,0
0,40,0,4
0,56,127,1
0,46,0,0
0,40,120,1
0,44,1,0
0,40,0,4
0,56,0,57
0,44,0,0
0,56,0,30
0,58,127,94
0,46,125,0
0,56,127,6
0,44,0,0
0,36,105,1
0,46,1,0
0,36,0,4
0,58,0,137
0,46,0,0
0,40,80,11
0,40,0,4
0,46,0,1
0,40,121,1
0,44,1,0
0,56,127,2
0,44,127,0
0,40,0,2
0,43,116,6
0,56,0,57
0,44,0,0
0,44,127,34
0,36,107,4
0,44,0,2
0,36,0,2
0,43,0,84
0,44,127,6
0,56,127,86
0,40,75,4
0,44,0,2
0,40,0,2
0,40,120,4
0,40,0,4
0,56,0,86
0,49,127,4
0,36,107,2
0,36,0,4
0,50,120,184
0,36,104,4
0,50,0,2
0,36,0,2
0,40,81,84
0,51,126,4
0,40,0,0
0,49,0,1
0,44,0,0
0,40,119,3
0,43,87,0
0,48,87,0
0,40,0,4
0,43,0,0
0,48,0,0
0,54,124,85
0,51,0,2
0,40,118,4
0,43,79,2
0,48,82,1
0,40,0,1
0,43,0,2
0,48,0,1
0,44,127,87
0,36,108,3
0,54,0,1
0,36,0,3
0,44,0,89
0,36,99,3
0,44,1,0
0,56,123,2
0,44,118,0
0,44,127,0
0,36,0,2
0,56,0,53
0,44,0,0
0,44,0,33
0,40,77,0
0,63,127,4
0,51,127,0
0,40,0,0
0,56,127,1
0,44,0,0
0,40,120,1
0,51,1,0
0,40,0,4
0,63,0,54
0,51,0,0
0,56,0,33
0,60,127,4
0,48,127,0
0,51,0,0
0,36,97,1
0,48,1,0
0,36,0,4
0,60,0,44
0,48,0,0
0,61,127,46
0,49,125,0
0,56,127,1
0,48,0,0
0,36,105,1
0,49,1,0
0,36,0,4
0,61,0,68
0,49,0,0
0,61,127,22
0,49,124,0
0,61,0,74
0,49,0,0
0,40,80,18
0,40,121,2
0,40,0,4
0,43,116,6
0,44,127,91
0,49,0,3
0,36,107,1
0,48,1,0
0,44,0,2
0,36,0,2
0,60,127,4
0,48,127,0
0,60,0,37
0,48,0,0
0,43,0,43
0,44,127,6
0,60,127,4
0,48,126,0
0,44,0,67
0,60,0,5
0,48,0,0
0,56,127,10
0,40,75,4
0,40,0,4
0,60,127,1
0,48,124,0
0,40,120,3
0,40,0,4
0,60,0,76
0,48,0,0
0,56,0,10
0,49,127,4
0,48,0,1
0,36,107,1
0,49,1,0
0,61,127,3
0,49,125,0
0,36,0,1
0,61,0,43
0,49,0,0
0,61,123,48
0,49,118,0
0,61,0,49
0,49,0,0
0,50,120,44
0,56,127,1
0,44,122,0
0,49,0,2
0,36,104,1
0,44,1,0
0,50,0,2
0,36,0,2
0,56,0,70
0,44,0,0
0,40,81,14
0,51,126,4
0,40,0,0
0,56,123,1
0,44,118,0
0,49,0,0
0,40,119,3
0,40,0,4
0,56,0,73
0,44,0,0
0,54,124,12
0,51,0,2
0,56,123,4
0,44,118,0
0,40,118,0
0,40,0,4
0,56,0,54
0,44,0,0
0,44,127,36
0,36,108,3
0,54,0,1
0,36,0,3
0,56,123,87
0,44,118,0
0,44,0,2
0,44,0,2
0,36,105,1
0,44,1,0
0,44,127,2
0,36,0,2
0,56,0,48
0,44,0,0
0,44,0,38
0,40,77,0
0,63,127,2
0,51,127,0
0,40,0,2
0,56,127,1
0,44,0,0
0,40,120,1
0,51,1,0
0,40,0,4
0,63,0,49
0,51,0,0
0,56,0,38
0,51,0,4
0,60,127,1
0,48,127,0
0,36,100,0
0,48,1,0
0,36,0,4
0,60,0,46
0,48,0,0
0,61,126,42
0,49,121,0
0,56,127,3
0,48,0,0
0,36,105,1
0,49,1,0
0,36,0,4
0,61,0,63
0,49,0,0
0,61,127,26
0,49,122,0
0,61,0,67
0,49,0,0
0,40,80,8
0,40,0,4
0,40,121,2
0,43,116,25
0,44,127,91
0,60,127,1
0,48,127,0
0,49,0,2
0,36,107,1
0,48,1,0
0,44,0,2
0,36,0,2
0,60,0,56
0,48,0,0
0,43,0,28
0,60,127,4
0,48,124,0
0,44,127,2
0,60,0,40
0,48,0,0
0,44,0,31
0,56,127,15
0,40,75,4
0,60,123,1
0,48,118,0
0,40,0,3
0,40,120,4
0,40,0,4
0,60,0,34
0,48,0,0
0,56,0,52
0,61,127,3
0,49,125,0
0,49,127,1
0,48,0,1
0,36,107,1
0,49,1,0
0,36,0,4
0,61,0,70
0,49,0,0
0,61,124,19
0,49,119,0
0,61,0,51
0,49,0,0
0,50,120,44
0,56,123,1
0,44,118,0
0,49,0,2
0,36,104,1
0,44,1,0
0,50,0,2
0,36,0,2
0,56,0,44
0,44,0,0
0,40,81,40
0,51,126,4
0,40,0,0
0,56,123,1
0,44,118,0
0,49,0,0
0,40,119,3
0,40,0,4
0,56,0,66
0,44,0,0
0,54,124,19
0,56,123,2
0,44,118,0
0,51,0,0
0,40,118,4
0,40,0,4
0,56,0,44
0,44,0,0
0,54,0,37
0,49,127,9
0,36,108,3
0,36,0,4
0,56,123,86
0,44,118,0
0,49,0,3
0,44,0,2
0,36,99,1
0,44,1,0
0,49,127,2
0,36,0,2
0,56,0,43
0,44,0,0
0,49,0,43
0,40,77,0
0,63,127,1
0,51,127,0
0,40,0,3
0,56,127,1
0,44,0,0
0,40,120,1
0,51,1,0
0,40,0,4
0,63,0,50
0,51,0,0
0,60,127,37
0,48,127,0
0,56,0,0
0,51,0,4
0,36,97,1
0,48,1,0
0,36,0,4
0,60,0,40
0,48,0,0
0,61,127,45
0,49,122,0
0,56,127,6
0,48,0,0
0,36,105,1
0,49,1,0
0,36,0,4
0,61,0,63
0,49,0,0
0,61,127,22
0,49,127,0
0,40,80,10
0,40,0,4
0,40,121,2
0,48,116,6
0,49,127,91
0,60,127,2
0,48,127,0
0,49,0,1
0,36,107,1
0,48,1,0
0,49,0,2
0,36,0,2
0,60,0,38
0,48,0,0
0,48,0,46
0,60,127,6
0,48,127,0
0,49,127,0
0,49,0,71
0,60,0,5
0,48,0,0
0,56,127,10
0,40,75,4
0,60,127,4
0,48,127,0
0,40,0,0
0,40,120,4
0,40,0,4
0,60,0,31
0,48,0,0
0,61,127,53
0,49,124,0
0,56,0,2
0,49,127,4
0,48,0,1
0,36,107,1
0,49,1,0
0,36,0,4
0,61,0,60
0,49,0,0
0,61,123,21
0,49,118,0
0,61,0,51
0,49,0,0
0,61,127,49
0,49,122,0
0,50,120,3
