track,note,velocity,time
1,59,127,6
1,59,127,9
1,68,127,1
1,68,127,2
1,66,127,2
1,64,127,1
1,64,127,3
1,64,127,12
1,64,127,19
1,64,127,7
1,62,127,11
1,61,127,27
1,61,127,4
1,61,127,3
1,61,127,6
1,61,127,17
1,68,127,17
1,68,127,9
1,68,127,15
1,66,127,47
1,64,127,2
1,64,127,13
1,64,127,13
1,64,127,18
1,64,127,17
1,62,127,11
1,62,127,18
1,62,127,6
1,61,127,17
1,61,127,15
1,61,127,16
1,61,127,20
1,61,127,26
1,59,127,541
1,68,127,1
1,68,127,11
1,68,127,15
1,66,127,3
1,64,127,20
1,64,127,10
1,64,127,13
1,64,127,16
1,64,127,27
1,62,127,1
1,62,127,20
1,61,127,8
1,61,127,9
1,61,127,7
1,57,127,2
1,57,127,15
1,57,127,2
1,57,127,12
1,57,127,22
1,57,127,13
1,57,127,9
1,57,127,19
1,57,127,13
1,57,127,22
1,57,127,25
1,57,127,11
1,59,127,11
1,59,127,8
1,59,127,11
1,59,127,3
1,59,127,14
1,59,127,14
1,62,127,3
1,62,127,5
1,62,127,24
1,59,127,9
1,59,127,10
1,59,127,13
1,62,127,4
1,59,127,7
1,62,127,3
1,59,127,5
1,54,127,367
1,57,127,2
1,57,127,18
1,57,127,13
1,54,127,48
1,54,127,8
1,54,127,19
1,54,127,1
1,52,127,6
1,52,127,13
1,54,127,48
1,52,127,1
1,54,127,0
1,54,127,11
1,54,117,75
1,57,127,5
1,57,127,11
1,57,127,11
1,57,127,4
1,57,127,22
1,54,127,48
1,54,127,10
1,54,127,11
1,54,127,16
1,52,127,47
1,52,127,11
1,54,127,48
1,54,127,4
1,54,127,22
1,54,127,70
1,61,127,25
1,61,127,11
1,59,127,3
1,59,127,4
1,57,127,20
1,54,127,48
1,54,127,15
1,54,127,20
1,52,127,0
1,54,127,48
1,54,127,16
1,54,127,4
1,54,127,23
1,54,127,62
1,61,127,26
1,61,127,1
1,61,127,28
1,59,127,5
1,57,127,49
1,54,127,1
1,54,127,12
1,54,127,22
1,58,127,24
1,59,127,47
1,60,127,15
1,61,127,24
1,57,127,18
1,54,127,50
1,59,127,41
1,59,127,15
1,59,127,2
1,59,127,12
1,59,127,22
1,59,127,13
1,59,127,9
1,59,127,19
1,59,127,13
1,59,127,22
1,59,127,25
1,59,127,11
1,61,127,11
1,61,127,8
1,61,127,11
1,61,127,3
1,61,127,14
1,61,127,14
1,64,127,3
1,64,127,5
1,64,127,24
1,61,127,9
1,61,127,10
1,61,127,13
1,64,127,4
1,61,127,7
1,64,127,3
1,61,127,5
1,57,127,3440
1,57,127,15
1,57,127,2
1,57,127,12
1,57,127,22
1,57,127,13
1,57,127,9
1,57,127,19
1,57,127,13
1,57,127,22
1,57,127,25
1,57,127,11
1,59,127,11
1,59,127,8
1,59,127,11
1,59,127,3
1,59,127,14
1,59,127,14
1,62,127,3
1,62,127,5
1,62,127,24
1,59,127,9
1,59,127,10
1,59,127,13
1,62,127,4
1,59,127,7
1,62,127,3
1,59,127,5
1,71,127,0
1,71,127,9
1,71,127,2
1,70,127,39
1,71,127,20
1,69,127,13
1,67,127,32
1,64,127,8
1,67,127,25
1,71,127,0
1,71,127,0
1,70,127,0
1,69,127,6
1,62,127,0
1,62,127,25
1,62,127,29
1,67,127,0
1,71,127,3
1,71,127,6
1,71,127,11
1,67,127,1
1,64,127,3
1,67,127,0
1,62,127,50
1,62,127,39
1,69,127,6
1,69,127,7
1,69,127,2
1,69,127,3
1,64,127,1
1,67,127,18
1,64,127,0
1,64,127,13
1,64,127,23
1,64,127,2
1,69,127,3
1,69,127,2
1,69,127,19
1,71,127,24
1,67,127,1
1,64,127,2
1,64,127,15
1,64,127,30
1,68,127,0
1,71,127,1
1,71,127,1
1,71,127,7
1,69,127,0
1,67,127,26
1,62,127,3
1,64,127,12
1,64,127,26
1,62,127,1
1,67,127,10
1,67,127,21
1,64,127,6
2,43,104,381
2,47,106,5
2,47,95,26
2,43,98,0
2,42,119,25
2,42,119,76
2,42,127,66
2,43,102,80
2,47,98,4
2,47,91,29
2,43,95,0
2,42,123,27
2,42,54,28
2,42,127,35
2,42,68,32
2,42,127,36
2,42,123,33
2,43,108,28
2,47,100,4
2,43,98,31
2,47,92,0
2,42,123,29
2,56,77,0
2,56,82,5
2,42,66,11
2,56,116,7
2,42,127,13
2,56,97,7
2,42,78,11
2,56,104,8
2,42,127,12
2,56,107,31
2,42,110,1
2,43,104,30
2,47,98,3
2,47,95,29
2,43,98,0
2,56,95,23
2,42,119,1
2,56,84,7
2,42,62,13
2,56,95,9
2,42,127,12
2,56,93,6
2,42,104,12
2,56,68,9
2,56,93,18
2,42,123,1
2,56,99,31
2,42,119,1
2,43,102,30
2,47,102,3
2,47,102,30
2,43,104,0
2,42,127,25
2,43,102,7
2,42,66,18
2,40,90,16
2,40,70,8
2,42,123,5
2,40,127,0
2,40,113,7
2,42,84,21
2,40,76,10
2,40,101,21
2,42,123,1
2,40,91,0
2,45,102,8
2,45,117,10
2,42,123,2
2,43,117,10
2,43,127,11
2,49,116,6
2,36,125,6
2,42,79,0
2,56,84,1
2,42,70,19
2,56,52,1
2,36,120,0
2,40,120,11
2,42,79,0
2,56,82,1
2,40,127,0
2,42,74,12
2,56,60,1
2,36,104,1
2,42,64,2
2,56,61,1
2,36,68,4
2,42,65,13
2,56,58,1
2,36,84,1
2,36,102,0
2,42,101,8
2,40,127,1
2,56,84,0
2,40,127,0
2,42,67,10
2,56,61,0
2,36,78,1
2,36,110,15
2,56,87,1
2,42,74,0
2,36,114,19
2,42,67,1
2,56,58,0
2,40,127,17
2,42,95,0
2,56,89,1
2,40,127,22
2,42,68,0
2,56,64,0
2,36,92,6
2,42,75,2
2,56,51,1
2,36,77,2
2,42,67,14
2,36,97,1
2,56,64,1
2,36,108,6
2,42,93,8
2,45,120,1
2,56,97,0
2,43,127,22
2,42,61,0
2,56,56,1
2,36,104,21
2,42,67,0
2,56,67,0
2,57,104,0
2,36,100,17
2,56,51,1
2,42,61,0
2,40,125,23
2,42,95,0
2,56,95,0
2,40,127,5
2,42,68,11
2,56,61,0
2,36,98,4
2,42,71,3
2,56,70,0
2,36,66,7
2,42,73,11
2,56,61,0
2,36,80,1
2,36,98,3
2,40,127,5
2,42,89,0
2,56,95,0
2,40,127,6
2,42,68,10
2,56,61,0
2,36,76,1
2,56,74,13
2,36,106,1
2,42,81,0
2,36,110,24
2,56,62,0
2,42,70,1
2,40,127,18
2,56,87,1
2,42,87,1
2,40,114,22
2,56,67,0
2,42,65,1
2,36,106,6
2,42,62,0
2,56,74,0
2,36,74,6
2,36,97,14
2,42,77,0
2,56,54,0
2,36,97,2
2,45,122,7
2,42,95,1
2,56,87,0
2,43,127,22
2,42,63,0
2,56,58,1
2,49,119,19
2,36,106,2
2,42,79,1
2,56,66,1
2,36,104,20
2,42,73,0
2,56,61,0
2,42,97,19
2,40,127,1
2,56,95,0
2,42,67,22
2,56,59,0
2,36,76,1
2,36,67,9
2,36,91,5
2,42,70,0
2,56,73,1
2,36,108,11
2,36,71,4
2,42,75,0
2,36,83,3
2,56,67,0
2,36,104,6
2,36,72,5
2,42,101,9
2,56,97,0
2,40,127,1
2,36,125,25
2,42,85,0
2,56,66,0
2,36,104,27
2,56,82,1
2,42,97,1
2,36,102,26
2,42,91,0
2,56,61,0
2,40,114,15
2,42,99,0
2,56,95,0
2,40,125,25
2,42,71,0
2,56,63,1
2,36,92,3
2,42,82,23
2,56,75,1
2,36,74,12
2,36,95,13
2,42,93,0
2,56,74,1
2,36,100,2
2,45,117,10
2,42,110,1
2,56,95,0
2,43,120,23
2,42,75,1
2,56,61,0
2,36,120,23
2,42,82,1
2,57,112,0
2,56,74,1
2,55,74,0
2,36,104,19
2,42,79,0
2,56,56,1
2,40,127,20
2,42,104,0
2,56,91,0
2,42,67,21
2,56,56,1
2,36,76,7
2,36,67,9
2,36,91,5
2,42,93,1
2,56,71,1
2,36,108,8
2,36,71,4
2,42,87,2
2,56,58,1
2,36,83,0
2,36,104,9
2,36,72,5
2,42,101,0
2,56,99,0
2,40,127,1
2,56,63,30
2,36,125,1
2,42,68,0
2,36,104,23
2,42,95,1
2,56,78,1
2,36,102,22
2,42,91,0
2,56,50,1
2,40,114,15
2,42,104,0
2,56,99,1
2,40,125,23
2,42,58,0
2,56,63,1
2,36,92,3
2,42,91,23
2,56,70,1
2,36,74,11
2,42,87,12
2,36,95,1
2,56,70,1
2,36,100,10
2,45,117,10
2,42,95,0
2,56,95,2
2,43,120,22
2,42,73,0
2,56,62,2
2,42,87,26
2,56,71,2
2,36,125,1
2,49,119,0
2,42,82,18
2,56,61,1
2,36,120,1
2,42,91,10
2,40,120,1
2,56,93,0
2,40,127,0
2,42,82,13
2,56,59,1
2,36,104,3
2,42,87,2
2,56,72,1
2,36,68,10
2,42,79,14
2,56,54,1
2,36,102,6
2,42,101,8
2,40,127,1
2,56,95,1
2,40,127,8
2,42,70,9
2,56,65,2
2,36,78,7
2,42,84,14
2,36,110,1
2,56,78,0
2,42,82,25
2,36,114,1
2,56,53,1
2,42,93,16
2,40,127,1
2,56,89,0
2,42,77,25
2,40,127,1
2,56,66,0
2,36,92,6
2,42,91,2
2,56,79,1
2,36,77,13
2,42,87,14
2,36,97,1
2,56,63,1
2,36,108,8
2,42,97,8
2,45,120,1
2,56,85,0
2,43,127,24
2,42,74,0
2,56,40,2
2,57,125,24
2,42,87,2
2,36,104,1
2,36,125,1
2,56,74,0
2,42,82,19
2,56,50,1
2,36,120,0
2,40,120,11
2,42,95,0
2,56,91,0
2,40,127,3
2,42,70,12
2,56,58,1
2,36,104,7
2,42,93,2
2,56,73,2
2,36,68,3
2,42,85,13
2,36,84,2
2,56,45,0
2,36,102,9
2,42,95,8
2,40,127,1
2,56,93,0
2,40,127,2
2,42,74,9
2,56,64,2
2,36,78,11
2,36,110,15
2,42,91,0
2,56,87,0
2,36,114,24
2,42,84,0
2,56,45,0
2,42,101,16
2,40,127,1
2,56,91,0
2,40,127,25
2,42,77,0
2,56,59,0
2,36,92,11
2,42,93,2
2,56,97,1
2,36,77,2
2,36,97,15
2,42,93,0
2,56,53,0
2,36,108,11
2,45,120,9
2,42,95,0
2,56,93,1
2,43,127,30
2,42,68,0
2,56,74,2
2,42,99,29
2,36,127,3
2,53,100,0
2,51,107,0
2,53,73,16
2,36,122,0
2,51,107,15
2,53,108,0
2,40,127,2
2,53,59,15
2,36,98,1
2,51,99,14
2,53,110,1
2,36,108,1
2,53,95,19
2,51,95,0
2,36,120,2
2,53,64,23
2,36,108,1
2,51,101,7
2,53,106,0
2,40,112,2
2,53,65,8
2,53,112,35
2,51,113,0
2,36,127,2
2,53,80,21
2,36,122,2
2,40,127,22
2,51,116,0
2,53,117,0
2,53,73,9
2,40,127,16
2,51,113,0
2,53,122,1
2,45,102,4
2,45,58,8
2,45,58,8
2,45,84,5
2,45,75,23
2,45,108,6
2,45,64,5
2,43,78,8
2,43,85,5
2,41,69,8
2,41,83,8
2,53,100,6
2,51,110,0
2,36,117,2
2,51,91,24
2,36,127,1
2,53,100,0
2,51,101,20
2,40,127,1
2,53,108,0
2,53,68,12
2,40,127,12
2,53,106,0
2,51,107,0
2,36,122,3
2,53,92,22
2,51,97,2
2,40,127,28
2,53,67,1
2,51,116,15
2,45,105,1
2,53,120,0
2,45,58,4
2,45,63,4
2,45,49,7
2,45,96,4
2,53,117,0
2,45,68,0
2,45,64,3
2,45,62,7
2,36,127,13
2,51,107,22
2,53,102,0
2,36,125,1
2,40,127,26
2,53,108,0
2,51,113,0
2,53,68,14
2,36,108,14
2,53,117,2
2,51,113,0
2,36,127,7
2,53,102,4
2,51,107,1
2,36,125,6
2,53,81,25
2,40,127,15
2,51,110,1
2,53,117,0
2,40,127,26
2,40,127,4
2,53,78,1
2,51,60,2
2,36,127,30
2,53,127,1
2,51,127,0
2,36,108,359
2,42,97,0
2,49,107,1
2,36,108,21
2,42,60,0
2,56,107,1
2,40,94,16
2,42,101,1
2,56,43,0
2,40,127,2
2,42,68,25
2,56,97,0
2,36,117,22
2,42,67,19
2,56,33,0
2,36,68,0
2,36,90,14
2,42,81,0
2,56,99,1
2,36,85,7
2,40,127,12
2,42,116,0
2,56,42,1
2,40,127,6
2,42,68,6
2,56,93,0
2,36,71,0
2,36,102,13
2,56,53,0
2,42,81,0
2,36,112,23
2,42,70,1
2,56,99,0
2,40,97,19
2,42,110,0
2,56,23,1
2,40,127,3
2,42,74,2
2,56,99,0
2,36,102,2
2,42,84,21
2,56,35,0
2,36,80,6
2,42,84,11
2,36,106,1
2,56,93,0
2,36,88,6
2,45,112,11
2,42,113,0
2,56,32,1
2,43,117,7
2,56,113,13
2,42,78,1
2,36,74,4
2,36,122,13
2,49,123,1
2,42,81,0
2,36,122,19
2,56,72,0
2,42,77,0
2,42,113,17
2,40,117,1
2,56,54,0
2,42,91,24
2,56,110,0
2,40,120,1
2,36,112,6
2,42,93,16
2,36,83,8
2,42,91,11
2,56,93,1
2,36,106,1
2,36,97,8
2,42,110,5
2,47,114,1
2,56,38,1
2,45,117,9
2,42,84,14
2,56,93,1
2,36,92,1
2,42,95,12
2,56,21,0
2,36,108,1
2,42,67,26
2,56,99,0
2,36,106,1
2,40,98,20
2,42,101,0
2,56,49,1
2,40,127,4
2,42,77,5
2,56,101,0
2,36,94,6
2,42,93,11
2,56,42,0
2,36,87,7
2,36,100,15
2,42,84,0
2,56,99,0
2,36,102,7
2,45,114,11
2,42,107,1
2,56,61,0
2,43,120,8
2,42,81,14
2,56,89,0
2,36,80,7
2,49,104,13
2,42,89,1
2,36,114,0
2,42,77,21
2,56,61,0
2,36,106,1
2,40,91,19
2,42,97,0
2,56,52,2
2,40,127,8
2,42,67,23
2,56,104,0
2,36,114,2
2,42,93,25
2,56,46,0
2,36,68,10
2,42,82,13
2,36,86,1
2,56,95,0
2,36,90,3
2,42,110,7
2,56,23,1
2,40,122,1
2,40,122,11
2,42,82,5
2,56,97,0
2,36,73,4
2,42,101,14
2,56,31,0
2,36,117,1
2,36,114,20
2,42,77,0
2,56,97,0
2,42,104,16
2,40,95,0
2,40,122,9
2,42,82,0
2,56,97,0
2,36,100,0
2,42,95,23
2,56,61,0
2,36,68,10
2,42,89,14
2,56,91,1
2,36,92,0
2,36,95,2
2,45,122,8
2,42,107,0
2,56,43,1
2,43,114,8
2,42,79,15
2,56,101,0
2,42,99,31
2,49,95,0
2,36,114,1
2,42,91,23
2,56,77,0
2,36,127,1
2,40,112,12
2,42,107,0
2,56,97,23
2,40,120,0
2,42,81,0
2,36,114,5
2,42,93,23
2,56,53,0
2,36,90,9
2,42,87,13
2,56,97,0
2,36,100,1
2,36,98,2
2,42,110,7
2,56,55,0
2,47,112,1
2,45,104,8
2,56,93,13
2,42,84,0
2,36,83,4
2,42,99,12
2,36,106,1
2,56,18,0
2,42,87,22
2,56,93,1
2,36,125,0
2,40,98,17
2,42,101,0
2,56,28,1
2,40,127,7
2,56,85,0
2,42,82,1
2,36,83,3
2,36,114,13
2,42,104,0
2,56,46,0
2,36,87,7
2,56,82,12
2,36,94,1
2,42,93,0
2,36,106,2
2,45,122,12
2,42,104,0
2,56,41,1
2,43,125,9
2,42,104,15
2,56,95,0
2,36,125,8
2,36,127,12
2,53,73,22
2,36,122,0
2,51,107,15
2,53,108,0
2,40,127,2
2,53,59,15
2,36,98,1
2,51,99,14
2,53,110,1
2,36,108,1
2,53,95,19
2,51,95,0
2,36,120,2
2,53,64,23
2,36,108,1
2,51,101,7
2,53,106,0
2,40,112,2
2,53,65,8
2,53,112,35
2,51,113,0
2,36,127,2
2,53,80,21
2,36,122,2
2,40,127,22
2,51,116,0
2,53,117,0
2,53,73,9
2,40,127,16
2,51,113,0
2,53,122,1
2,45,102,4
2,45,58,8
2,45,58,8
2,45,84,5
2,45,75,23
2,45,108,6
2,45,64,5
