track,note,velocity,time
1,38,127,53
1,38,0,60
1,62,127,0
1,62,0,60
1,50,127,0
1,50,0,60
1,62,127,0
1,62,0,60
1,38,127,0
1,38,0,60
1,62,127,0
1,62,0,60
1,50,127,0
1,50,0,120
1,38,127,0
1,38,0,60
1,62,127,0
1,62,0,60
1,50,127,0
1,50,0,60
1,62,127,0
1,62,0,60
1,38,127,0
1,38,0,60
1,62,127,0
1,62,0,60
1,50,127,0
1,50,0,120
1,38,127,0
1,38,0,60
1,62,127,0
1,62,0,60
1,50,127,0
1,50,0,60
1,62,127,0
1,62,0,60
1,38,127,0
1,38,0,60
1,62,127,0
1,62,0,60
1,50,127,0
1,50,0,120
1,38,127,0
1,38,0,60
1,62,127,0
1,62,0,60
1,50,127,0
1,50,0,60
1,62,127,0
1,62,0,60
1,38,127,0
1,38,0,60
1,62,127,0
1,62,0,60
1,50,127,0
1,50,0,120
1,38,127,0
1,38,0,60
1,62,127,0
1,62,0,60
1,50,127,0
1,50,0,60
1,62,127,0
1,62,0,60
1,38,127,0
1,38,0,60
1,62,127,0
1,62,0,60
1,50,127,0
1,50,0,120
1,38,127,0
1,38,0,60
1,62,127,0
1,62,0,60
1,50,127,0
1,50,0,60
1,62,127,0
1,62,0,60
1,38,127,0
1,38,0,60
1,62,127,0
1,62,0,60
1,50,127,0
1,50,0,120
1,38,127,0
1,38,0,60
1,62,127,0
1,62,0,60
1,50,127,0
1,50,0,60
1,62,127,0
1,62,0,60
1,38,127,0
1,38,0,60
1,62,127,0
1,62,0,60
1,50,127,0
1,50,0,120
1,38,127,0
1,38,0,60
1,62,127,0
1,62,0,60
1,50,127,0
1,50,0,60
1,62,127,0
1,62,0,60
1,38,127,0
1,38,0,60
1,62,127,0
1,62,0,60
1,50,127,0
1,50,0,120
1,43,127,0
1,43,0,120
1,55,127,0
1,55,0,120
1,43,127,0
1,43,0,60
1,64,127,0
1,64,0,60
1,55,127,0
1,55,0,120
1,43,127,0
1,43,0,120
1,55,127,0
1,55,0,120
1,43,127,0
1,43,0,60
1,64,127,0
1,64,0,60
1,55,127,0
1,55,0,120
1,43,127,0
1,43,0,120
1,55,127,0
1,55,0,120
1,43,127,0
1,43,0,60
1,64,127,0
1,64,0,60
1,55,127,0
1,55,0,120
1,43,127,0
1,43,0,120
1,55,127,0
1,55,0,120
1,43,127,0
1,43,0,60
1,64,127,0
1,64,0,60
1,38,127,0
1,38,0,120
1,38,127,0
1,38,0,60
1,62,127,0
1,62,0,60
1,50,127,0
1,50,0,60
1,62,127,0
1,62,0,60
1,38,127,0
1,38,0,60
1,62,127,0
1,62,0,60
1,50,127,0
1,50,0,120
1,38,127,0
1,38,0,60
1,62,127,0
1,62,0,60
1,50,127,0
1,50,0,60
1,62,127,0
1,62,0,60
1,38,127,0
1,38,0,60
1,62,127,0
1,62,0,60
1,50,127,0
1,50,0,120
1,38,127,0
1,38,0,60
1,62,127,0
1,62,0,60
1,50,127,0
1,50,0,60
1,62,127,0
1,62,0,60
1,38,127,0
1,38,0,60
1,62,127,0
1,62,0,60
1,50,127,0
1,50,0,120
1,38,127,0
1,38,0,60
1,62,127,0
1,62,0,60
1,50,127,0
1,50,0,60
1,62,127,0
1,62,0,60
1,38,127,0
1,38,0,60
1,62,127,0
1,62,0,60
1,50,127,0
1,50,0,120
1,43,127,0
1,43,0,120
1,55,127,0
1,55,0,120
1,43,127,0
1,43,0,60
1,64,127,0
1,64,0,60
1,55,127,0
1,55,0,120
1,43,127,0
1,43,0,120
1,55,127,0
1,55,0,120
1,43,127,0
1,43,0,60
1,64,127,0
1,64,0,60
1,55,127,0
1,55,0,120
1,43,127,0
1,43,0,120
1,55,127,0
1,55,0,120
1,43,127,0
1,43,0,60
1,64,127,0
1,64,0,60
1,55,127,0
1,55,0,120
1,43,127,0
1,43,0,120
1,55,127,0
1,55,0,120
1,43,127,0
1,43,0,60
1,64,127,0
1,64,0,60
1,38,127,0
1,38,0,120
1,38,127,0
1,38,0,60
1,62,127,0
1,62,0,60
1,50,127,0
1,50,0,60
1,62,127,0
1,62,0,60
1,38,127,0
1,38,0,60
1,62,127,0
1,62,0,60
1,50,127,0
1,50,0,120
1,38,127,0
1,38,0,60
1,62,127,0
1,62,0,60
1,50,127,0
1,50,0,60
1,62,127,0
1,62,0,60
1,38,127,0
1,38,0,60
1,62,127,0
1,62,0,60
1,50,127,0
1,50,0,120
1,38,127,0
1,38,0,60
1,62,127,0
1,62,0,60
1,50,127,0
1,50,0,60
1,62,127,0
1,62,0,60
1,38,127,0
1,38,0,60
1,62,127,0
1,62,0,60
1,50,127,0
1,50,0,120
1,38,127,0
1,38,0,60
1,62,127,0
1,62,0,60
1,50,127,0
1,50,0,60
1,62,127,0
1,62,0,60
1,38,127,0
1,38,0,60
1,62,127,0
1,62,0,60
1,50,127,0
1,50,0,120
1,43,127,0
1,43,0,120
1,55,127,0
1,55,0,120
1,43,127,0
1,43,0,60
1,64,127,0
1,64,0,60
1,55,127,0
1,55,0,120
1,43,127,0
1,43,0,120
1,55,127,0
1,55,0,120
1,43,127,0
1,43,0,60
1,64,127,0
1,64,0,60
1,55,127,0
1,55,0,120
1,43,127,0
1,43,0,120
1,55,127,0
1,55,0,120
1,43,127,0
1,43,0,60
1,64,127,0
1,64,0,60
1,55,127,0
1,55,0,120
1,43,127,0
1,43,0,120
1,55,127,0
1,55,0,120
1,43,127,0
1,43,0,60
1,64,127,0
1,64,0,60
1,38,127,0
1,38,0,120
1,38,127,0
1,38,0,60
1,62,127,0
1,62,0,60
1,50,127,0
1,50,0,60
1,62,127,0
1,62,0,60
1,38,127,0
1,38,0,60
1,62,127,0
1,62,0,60
1,50,127,0
1,50,0,120
1,38,127,0
1,38,0,60
1,62,127,0
1,62,0,60
1,50,127,0
1,50,0,60
1,62,127,0
1,62,0,60
1,38,127,0
1,38,0,60
1,62,127,0
1,62,0,60
1,50,127,0
1,50,0,120
1,38,127,0
1,38,0,60
1,62,127,0
1,62,0,60
1,50,127,0
1,50,0,60
1,62,127,0
1,62,0,60
1,38,127,0
1,38,0,60
1,62,127,0
1,62,0,60
1,50,127,0
1,50,0,120
1,38,127,0
1,38,0,60
1,62,127,0
1,62,0,60
1,50,127,0
1,50,0,60
1,62,127,0
1,62,0,60
1,38,127,0
1,38,0,60
1,62,127,0
1,62,0,60
1,50,127,0
1,50,0,120
1,65,127,0
1,38,127,0
1,65,0,120
1,38,0,0
1,50,127,0
1,65,127,0
1,50,0,60
1,65,0,0
1,65,127,0
1,65,0,119
1,64,127,1
1,64,0,60
1,50,127,0
1,50,0,119
1,62,127,1
1,47,127,0
1,62,0,119
1,47,0,0
1,50,127,1
1,50,0,60
1,64,127,0
1,64,0,60
1,62,127,0
1,62,0,60
1,62,127,0
1,62,0,120
1,64,127,0
1,64,0,60
1,38,127,0
1,38,0,120
1,62,127,0
1,62,0,60
1,66,127,0
1,66,0,179
1,50,127,1
1,50,0,119
1,57,127,1
1,38,127,0
1,57,0,120
1,38,0,0
1,50,127,0
1,50,0,60
1,62,127,0
1,62,0,119
1,62,127,1
1,62,0,60
1,50,127,0
1,50,0,119
1,65,127,1
1,65,0,180
1,65,127,0
1,65,0,60
1,50,127,0
1,50,0,60
1,64,127,0
1,64,0,120
1,62,127,0
1,62,0,60
1,62,127,0
1,47,127,0
1,62,0,120
1,47,0,0
1,55,127,0
1,55,0,60
1,64,127,0
1,64,0,60
1,62,127,0
1,62,0,60
1,62,127,0
1,62,0,60
1,50,127,0
1,50,0,60
1,64,127,0
1,64,0,60
1,38,127,0
1,38,0,120
1,66,127,0
1,66,0,60
1,62,127,0
1,62,0,179
1,50,127,1
1,50,0,120
1,38,127,0
1,38,0,120
1,50,127,0
1,50,0,60
1,61,127,0
1,61,0,60
1,38,127,0
1,38,0,120
1,50,127,0
1,50,0,120
1,62,127,0
1,38,127,0
1,62,0,120
1,38,0,0
1,50,127,0
1,50,0,60
1,62,127,0
1,62,0,60
1,38,127,0
1,38,0,120
1,50,127,0
1,50,0,120
1,62,127,0
1,38,127,0
1,62,0,120
1,38,0,0
1,50,127,0
1,50,0,60
1,62,127,0
1,62,0,60
1,38,127,0
1,38,0,120
1,50,127,0
1,50,0,120
1,43,127,0
1,43,0,120
1,55,127,0
1,55,0,120
1,43,127,0
1,43,0,60
1,64,127,0
1,64,0,60
1,55,127,0
1,55,0,120
1,43,127,0
1,43,0,120
1,55,127,0
1,55,0,120
1,43,127,0
1,43,0,60
1,64,127,0
1,64,0,60
1,55,127,0
1,55,0,120
1,43,127,0
1,43,0,120
1,55,127,0
1,55,0,120
1,43,127,0
1,43,0,60
1,64,127,0
1,64,0,60
1,55,127,0
1,55,0,120
1,43,127,0
1,43,0,120
1,55,127,0
1,55,0,120
1,43,127,0
1,43,0,60
1,64,127,0
1,64,0,60
1,38,127,0
1,38,0,120
1,38,127,0
1,38,0,60
1,62,127,0
1,62,0,60
1,50,127,0
1,50,0,60
1,62,127,0
1,62,0,60
1,38,127,0
1,38,0,60
1,62,127,0
1,62,0,60
1,50,127,0
1,50,0,120
1,38,127,0
1,38,0,60
1,62,127,0
1,62,0,60
1,50,127,0
1,50,0,60
1,62,127,0
1,62,0,60
1,38,127,0
1,38,0,60
1,62,127,0
1,62,0,60
1,50,127,0
1,50,0,120
1,38,127,0
1,38,0,60
1,62,127,0
1,62,0,60
1,50,127,0
1,50,0,60
1,62,127,0
1,62,0,60
1,38,127,0
1,38,0,60
1,62,127,0
1,62,0,60
1,50,127,0
1,50,0,120
1,38,127,0
1,38,0,60
1,62,127,0
1,62,0,60
1,50,127,0
1,50,0,60
1,62,127,0
1,62,0,60
1,38,127,0
1,38,0,60
1,62,127,0
1,62,0,60
1,50,127,0
1,50,0,120
1,43,127,0
1,43,0,120
1,55,127,0
1,55,0,120
1,43,127,0
1,43,0,60
1,64,127,0
1,64,0,60
1,55,127,0
1,55,0,120
1,43,127,0
1,43,0,120
1,55,127,0
1,55,0,120
1,43,127,0
1,43,0,60
1,64,127,0
1,64,0,60
1,55,127,0
1,55,0,120
1,43,127,0
1,43,0,120
1,55,127,0
1,55,0,120
1,43,127,0
1,43,0,60
1,64,127,0
1,64,0,60
1,55,127,0
1,55,0,120
1,43,127,0
1,43,0,120
1,55,127,0
1,55,0,120
1,43,127,0
1,43,0,60
1,64,127,0
1,64,0,60
1,38,127,0
1,38,0,120
1,38,127,0
1,38,0,60
1,62,127,0
1,62,0,60
1,50,127,0
1,50,0,60
1,62,127,0
1,62,0,60
1,38,127,0
1,38,0,60
1,62,127,0
1,62,0,60
1,50,127,0
1,50,0,120
1,38,127,0
1,38,0,60
1,62,127,0
1,62,0,60
1,50,127,0
1,50,0,60
1,62,127,0
1,62,0,60
1,38,127,0
1,38,0,60
1,62,127,0
1,62,0,60
1,50,127,0
1,50,0,120
1,38,127,0
1,38,0,60
1,62,127,0
1,62,0,60
1,50,127,0
1,50,0,60
1,62,127,0
1,62,0,60
1,38,127,0
1,38,0,60
1,62,127,0
1,62,0,60
1,50,127,0
1,50,0,120
1,38,127,0
1,38,0,60
1,62,127,0
1,62,0,60
1,50,127,0
1,50,0,60
1,62,127,0
1,62,0,60
1,38,127,0
1,38,0,60
1,62,127,0
1,62,0,60
1,50,127,0
1,50,0,120
1,43,127,0
1,43,0,120
1,55,127,0
1,55,0,120
1,43,127,0
1,43,0,60
1,64,127,0
1,64,0,60
1,55,127,0
1,55,0,120
1,43,127,0
1,43,0,120
1,55,127,0
1,55,0,120
1,43,127,0
1,43,0,60
1,64,127,0
1,64,0,60
1,55,127,0
1,55,0,120
1,43,127,0
1,43,0,120
1,55,127,0
1,55,0,120
1,43,127,0
1,43,0,60
1,64,127,0
1,64,0,60
1,55,127,0
1,55,0,120
1,43,127,0
1,43,0,120
1,55,127,0
1,55,0,120
1,43,127,0
1,43,0,60
1,64,127,0
1,64,0,60
1,38,127,0
1,38,0,120
1,38,127,0
1,38,0,60
1,62,127,0
1,62,0,60
1,50,127,0
1,50,0,60
1,62,127,0
1,62,0,60
1,38,127,0
1,38,0,60
1,62,127,0
1,62,0,60
1,50,127,0
1,50,0,120
1,38,127,0
1,38,0,60
1,62,127,0
1,62,0,60
1,50,127,0
1,50,0,60
1,62,127,0
1,62,0,60
1,38,127,0
1,38,0,60
1,62,127,0
1,62,0,60
1,50,127,0
1,50,0,120
1,38,127,0
1,38,0,60
1,62,127,0
1,62,0,60
1,50,127,0
1,50,0,60
1,62,127,0
1,62,0,60
1,38,127,0
1,38,0,60
1,62,127,0
1,62,0,60
1,50,127,0
1,50,0,120
1,38,127,0
1,38,0,60
1,62,127,0
1,62,0,60
1,50,127,0
1,50,0,60
1,62,127,0
1,62,0,60
1,38,127,0
1,38,0,60
1,62,127,0
1,62,0,60
1,50,127,0
1,50,0,120
1,45,127,0
1,45,0,120
1,62,127,0
1,62,0,120
1,50,127,0
1,50,0,120
1,62,127,0
1,62,0,120
1,45,127,0
1,45,0,120
1,62,127,0
1,62,0,120
1,50,127,0
1,50,0,120
1,62,127,0
1,62,0,120
1,45,127,0
1,45,0,120
1,62,127,0
1,62,0,120
1,50,127,0
1,50,0,120
1,62,127,0
1,62,0,120
1,45,127,0
1,45,0,120
1,62,127,0
1,62,0,120
1,50,127,0
1,50,0,120
1,62,127,0
1,62,0,120
1,55,127,0
1,55,0,60
1,59,127,0
1,59,0,60
1,61,127,0
1,61,0,60
1,62,127,0
1,62,0,119
1,61,127,1
1,61,0,119
1,61,127,1
1,61,0,59
1,45,127,1
1,45,0,120
1,61,127,0
1,61,0,60
1,62,127,0
1,62,0,60
1,45,127,0
1,45,0,120
1,61,127,0
1,61,0,120
1,45,127,0
1,45,0,120
1,61,127,0
1,61,0,60
1,62,127,0
1,62,0,60
1,45,127,0
1,45,0,120
1,61,127,0
1,61,0,120
1,45,127,0
1,45,0,120
1,61,127,0
1,61,0,60
1,62,127,0
1,62,0,60
1,38,127,0
1,38,0,120
1,61,127,0
1,61,0,120
1,38,127,0
1,38,0,120
1,62,127,0
1,62,0,120
1,38,127,0
1,38,0,120
1,62,127,0
1,62,0,120
1,38,127,0
1,38,0,120
1,62,127,0
1,62,0,120
1,38,127,0
1,38,0,120
1,62,127,0
1,62,0,120
1,38,127,0
1,38,0,120
1,62,127,0
1,62,0,120
1,38,127,0
1,38,0,120
1,62,127,0
1,62,0,120
1,38,127,0
1,38,0,120
1,62,127,0
1,62,0,120
1,38,127,0
1,38,0,120
1,62,127,0
1,62,0,120
1,62,127,0
1,45,127,0
1,62,0,120
1,45,0,0
1,61,127,0
1,61,0,60
1,62,127,0
1,62,0,60
1,45,127,0
1,45,0,120
1,61,127,0
1,61,0,120
1,62,127,0
1,45,127,0
1,62,0,120
1,45,0,0
1,61,127,0
1,61,0,60
1,62,127,0
1,62,0,60
1,45,127,0
1,45,0,120
1,61,127,0
1,61,0,120
1,62,127,0
1,45,127,0
1,62,0,120
1,45,0,0
1,61,127,0
1,61,0,60
1,62,127,0
1,62,0,60
1,45,127,0
1,45,0,120
1,61,127,0
1,61,0,120
1,62,127,0
1,45,127,0
1,62,0,120
1,45,0,0
1,61,127,0
1,61,0,60
1,62,127,0
1,62,0,60
1,45,127,0
1,45,0,120
1,61,127,0
1,61,0,120
1,62,127,0
1,38,127,0
1,62,0,120
1,38,0,0
1,50,127,0
1,50,0,60
1,62,127,0
1,62,0,60
1,38,127,0
1,38,0,120
1,50,127,0
1,50,0,120
1,62,127,0
1,38,127,0
1,62,0,120
1,38,0,0
1,50,127,0
1,50,0,60
1,62,127,0
1,62,0,60
1,38,127,0
1,38,0,120
1,50,127,0
1,50,0,120
1,62,127,0
1,38,127,0
1,62,0,120
1,38,0,0
1,50,127,0
1,50,0,60
1,62,127,0
1,62,0,60
1,38,127,0
1,38,0,120
1,50,127,0
1,50,0,120
1,62,127,0
1,38,127,0
1,62,0,120
1,38,0,0
1,50,127,0
1,50,0,60
