track,note,velocity,time
1,64,100,10560
1,64,100,4
1,67,100,4
1,67,100,4
1,69,100,4
1,69,100,4
1,71,100,4
1,71,100,4
1,69,100,4
1,67,100,4
1,69,100,1540
1,69,100,4
1,71,100,4
1,71,100,4
1,71,100,4
1,71,100,4
1,71,100,4
1,69,100,4
1,67,100,4
1,64,100,1540
1,64,100,4
1,67,100,4
1,69,100,4
1,69,100,4
1,71,100,4
1,62,100,1060
1,74,100,4
1,69,100,4
1,74,100,4
1,74,100,128
1,71,100,68
1,74,100,68
1,71,100,4
1,69,100,4
1,69,100,4
1,71,100,4
1,69,100,1156
1,69,100,4
1,69,100,4
1,69,100,4
1,69,100,868
1,67,100,4
1,69,100,100
1,69,100,4
1,69,100,4
1,69,100,4
1,71,100,4
1,72,100,4
1,69,100,580
1,61,100,292
1,69,100,4
1,69,100,4
1,69,100,4
1,67,100,4
1,69,100,4
1,69,100,4
1,67,100,4
1,69,100,4
1,62,100,4
1,67,100,4
1,64,100,4
1,62,100,4
1,60,100,772
1,69,100,4
1,69,100,4
1,69,100,4
1,69,100,4
1,67,100,4
1,64,100,2788
1,64,100,4
1,67,100,4
1,69,100,4
1,71,100,4
1,69,100,4
1,69,100,4
1,67,100,4
1,69,100,1540
1,71,100,4
1,71,100,4
1,71,100,4
1,69,100,4
1,71,100,4
1,69,100,4
1,67,100,4
1,64,100,1732
1,64,100,4
1,67,100,4
1,67,100,4
1,69,100,4
1,69,100,4
1,71,100,4
1,69,100,4
1,67,100,4
1,71,100,1348
1,71,100,4
1,71,100,4
1,69,100,4
1,70,100,4
1,72,100,4
1,69,100,4
1,67,100,4
1,64,100,4
1,64,100,676
1,69,100,4
1,69,100,4
1,69,100,4
1,69,100,4
1,69,100,772
1,67,100,4
1,69,100,292
1,69,100,4
1,69,100,4
1,69,100,4
1,72,100,4
1,71,100,4
1,72,100,100
1,76,100,4
1,69,100,4
1,69,100,4
1,69,100,196
1,69,100,4
1,64,100,4
1,69,100,4
1,69,100,4
1,69,100,4
1,67,100,4
1,67,100,580
1,67,100,4
1,67,100,4
1,62,100,4
1,64,100,4
1,64,100,4
1,64,100,4
1,64,100,4
1,64,100,31876
1,64,100,4
1,67,100,4
1,69,100,4
1,71,100,4
1,69,100,4
1,69,100,4
1,67,100,4
1,69,100,1540
1,71,100,4
1,71,100,4
1,71,100,4
1,69,100,4
1,71,100,4
1,69,100,4
1,67,100,4
1,64,100,1732
1,64,100,4
1,67,100,4
1,67,100,4
1,69,100,4
1,69,100,4
1,71,100,4
1,69,100,4
1,67,100,4
1,71,100,1348
1,71,100,4
1,71,100,4
1,69,100,4
1,70,100,4
1,72,100,4
1,69,100,4
1,67,100,4
1,64,100,4
1,64,100,676
1,69,100,4
1,69,100,4
1,69,100,4
1,69,100,4
1,69,100,772
1,67,100,4
1,69,100,292
1,69,100,4
1,69,100,4
1,69,100,4
1,72,100,4
1,71,100,4
1,72,100,100
1,76,100,4
1,69,100,4
1,69,100,4
1,69,100,196
1,69,100,4
1,64,100,4
1,69,100,4
1,69,100,4
1,69,100,4
1,67,100,4
1,67,100,580
1,67,100,4
1,67,100,4
1,62,100,4
1,64,100,4
1,64,100,4
1,64,100,4
1,64,100,4
1,64,100,2212
1,69,100,4
1,69,100,4
1,69,100,4
1,69,100,4
1,69,100,772
1,67,100,4
1,69,100,292
1,69,100,4
1,69,100,4
1,69,100,4
1,72,100,4
1,71,100,4
1,72,100,100
1,76,100,4
1,69,100,4
1,69,100,4
1,69,100,196
1,69,100,4
2,69,100,36960
2,67,100,4
2,64,100,4
2,62,100,4
2,69,100,5092
2,67,100,4
2,64,100,4
2,62,100,4
2,64,100,21444
2,63,100,128
2,80,100,15300
2,74,100,196
2,71,100,196
2,74,100,4
2,71,100,4
2,69,100,4
2,74,100,4
2,69,100,4
2,71,100,4
2,69,100,7972
2,67,100,4
2,64,100,4
2,62,100,4
2,69,100,5092
2,67,100,4
2,64,100,4
2,62,100,4
3,60,100,12096
3,62,100,44
3,65,100,484
3,67,100,4
3,60,100,15512
3,62,100,44
3,60,100,3028
3,62,100,44
3,65,100,484
3,67,100,4
3,60,100,4760
3,62,100,44
3,65,100,484
3,67,100,4
3,60,100,9368
3,62,100,44
3,60,100,3748
3,62,100,44
3,60,100,4
3,60,100,1728
3,65,100,4
3,67,100,4
3,65,100,96
3,64,100,1636
3,66,100,4
3,64,100,4
3,66,100,4
3,64,100,4
3,67,100,4
3,45,100,4
3,64,100,4
3,62,100,480
3,64,100,4
3,62,100,4
3,64,100,4
3,71,100,1924
3,72,100,44
3,71,100,292
3,72,100,4
3,71,100,100
3,71,100,128
3,72,100,28
3,71,100,24
3,71,100,40
3,72,100,44
3,71,100,36
3,71,100,24
3,72,100,20
3,71,100,36
3,71,100,68
3,72,100,28
3,71,100,36
3,71,100,40
3,72,100,44
3,71,100,36
3,71,100,24
3,72,100,16
3,71,100,4
3,69,100,32
3,67,100,68
3,69,100,68
3,70,100,68
3,69,100,4
3,67,100,4
3,70,100,4
3,69,100,4
3,67,100,4
3,70,100,4
3,69,100,4
3,67,100,4
3,70,100,4
3,69,100,4
3,67,100,4
3,69,100,4
3,67,100,4
3,64,100,4
3,62,100,4
3,67,100,4
3,64,100,4
3,62,100,4
3,67,100,4
3,64,100,4
3,62,100,4
3,67,100,4
3,69,100,4
3,71,100,4
3,69,100,4
3,72,100,44
3,71,100,0
3,69,100,36
3,71,100,40
3,69,100,24
3,71,100,40
3,70,100,0
3,69,100,28
3,71,100,40
3,69,100,36
3,71,100,40
3,70,100,0
3,69,100,28
3,71,100,40
3,71,100,24
3,69,100,0
3,69,100,132
3,71,100,12
3,70,100,0
3,71,100,36
3,69,100,0
3,70,100,4
3,69,100,4
3,67,100,100
3,64,100,4
3,62,100,4
3,59,100,1440
3,50,100,4
3,40,100,44
3,74,100,440
3,79,100,44
3,76,100,0
3,74,100,292
3,79,100,4
3,76,100,0
3,74,100,56
3,79,100,44
3,76,100,0
3,74,100,292
3,79,100,4
3,76,100,0
3,74,100,292
3,79,100,4
3,76,100,0
3,74,100,1400
3,79,100,44
3,76,100,0
3,74,100,56
3,79,100,44
3,76,100,0
3,74,100,292
3,79,100,4
3,76,100,0
3,74,100,292
3,79,100,4
3,76,100,0
3,74,100,196
3,76,100,44
3,79,100,0
3,67,100,824
3,62,100,0
3,67,100,60
3,62,100,0
3,67,100,60
3,62,100,0
3,60,100,1596
3,62,100,44
3,65,100,484
3,67,100,4
3,60,100,4760
3,62,100,44
3,65,100,484
3,67,100,4
3,60,100,9368
3,62,100,44
4,64,100,15168
4,68,100,0
4,66,100,4
4,62,100,0
4,64,100,4
4,62,100,4
4,59,100,4
4,57,100,4
4,60,100,1636
4,62,100,44
4,65,100,484
4,67,100,4
4,68,100,1688
4,64,100,0
4,66,100,4
4,62,100,0
4,66,100,4
4,62,100,0
4,57,100,0
4,61,100,4
4,57,100,0
4,52,100,0
4,73,100,1348
4,69,100,0
4,64,100,0
4,67,100,4
4,71,100,0
4,62,100,0
4,73,100,4
4,69,100,0
4,64,100,0
4,71,100,964
4,67,100,0
4,62,100,0
4,69,100,44
4,73,100,0
4,64,100,0
4,71,100,1208
4,67,100,0
4,62,100,0
4,69,100,44
4,73,100,0
4,64,100,0
4,71,100,632
4,67,100,0
4,62,100,0
4,69,100,44
4,73,100,0
4,64,100,0
4,68,100,11288
4,64,100,0
4,65,100,4
4,62,100,0
4,59,100,4
4,57,100,4
4,55,100,4
4,61,100,4
4,57,100,0
4,52,100,0
4,68,100,5188
4,64,100,0
4,65,100,4
4,62,100,0
4,59,100,4
4,57,100,4
4,55,100,4
4,61,100,4
4,57,100,0
4,52,100,0
4,73,100,1540
4,69,100,0
4,64,100,0
4,67,100,4
4,71,100,0
4,62,100,0
4,73,100,4
4,69,100,0
4,64,100,0
4,71,100,964
4,67,100,0
4,62,100,0
4,69,100,44
4,73,100,0
4,64,100,0
4,71,100,1208
4,67,100,0
4,62,100,0
4,69,100,44
4,73,100,0
4,64,100,0
4,71,100,632
4,67,100,0
4,62,100,0
4,69,100,44
4,73,100,0
4,64,100,0
4,61,100,1208
4,62,100,4
4,57,100,672
4,59,100,4
4,67,100,6340
4,71,100,0
4,69,100,44
4,73,100,0
4,68,100,1688
4,64,100,0
4,66,100,4
4,62,100,0
4,59,100,4
4,57,100,4
4,55,100,4
4,52,100,4
4,57,100,0
4,61,100,0
4,68,100,1732
4,64,100,0
4,66,100,4
4,62,100,0
4,59,100,4
4,71,100,4
4,67,100,0
4,62,100,0
4,73,100,44
4,69,100,0
4,64,100,0
4,68,100,1304
4,64,100,0
4,66,100,4
4,62,100,0
4,59,100,4
4,57,100,4
4,55,100,4
4,52,100,4
4,57,100,0
4,61,100,0
4,64,100,2788
4,62,100,4
4,68,100,16516
4,64,100,0
4,65,100,4
4,62,100,0
4,59,100,4
4,57,100,4
4,55,100,4
4,61,100,4
4,57,100,0
4,52,100,0
4,68,100,5188
4,64,100,0
4,65,100,4
4,62,100,0
4,59,100,4
4,57,100,4
4,55,100,4
4,61,100,4
4,57,100,0
4,52,100,0
4,73,100,1540
4,69,100,0
4,64,100,0
4,67,100,4
4,71,100,0
4,62,100,0
4,73,100,4
4,69,100,0
4,64,100,0
4,71,100,964
4,67,100,0
4,62,100,0
4,69,100,44
4,73,100,0
4,64,100,0
4,71,100,1208
4,67,100,0
4,62,100,0
4,69,100,44
4,73,100,0
4,64,100,0
4,71,100,632
4,67,100,0
4,62,100,0
4,69,100,44
4,73,100,0
4,64,100,0
4,73,100,7640
4,69,100,0
4,64,100,0
4,67,100,4
4,71,100,0
4,62,100,0
4,73,100,4
4,69,100,0
4,64,100,0
4,71,100,964
4,67,100,0
4,62,100,0
4,69,100,44
4,73,100,0
4,64,100,0
4,71,100,1208
4,67,100,0
4,62,100,0
4,69,100,44
4,73,100,0
4,64,100,0
4,71,100,632
4,67,100,0
4,62,100,0
4,69,100,44
4,73,100,0
4,64,100,0
4,68,100,536
4,64,100,0
4,59,100,0
4,66,100,4
4,62,100,0
4,57,100,0
4,57,100,4
4,52,100,0
5,33,100,22848
5,31,100,4
5,33,100,4
5,33,100,676
5,31,100,4
5,33,100,4
5,33,100,676
5,31,100,4
5,33,100,4
5,33,100,676
5,31,100,4
5,33,100,4
5,31,100,292
5,33,100,44
5,28,100,56
5,33,100,18244
5,31,100,4
5,33,100,4
5,33,100,676
5,31,100,4
5,33,100,4
5,33,100,676
5,31,100,4
5,33,100,4
5,33,100,676
5,31,100,4
5,33,100,4
5,31,100,292
5,33,100,44
5,28,100,56
5,38,100,14980
5,40,100,4
5,28,100,4
5,38,100,1348
5,40,100,4
5,28,100,4
5,38,100,196
5,40,100,4
5,28,100,4
5,38,100,196
5,40,100,4
5,28,100,4
5,38,100,196
5,40,100,4
5,28,100,4
5,38,100,196
5,40,100,4
5,33,100,16900
5,31,100,4
5,33,100,4
5,33,100,676
5,31,100,4
5,33,100,4
5,33,100,676
5,31,100,4
5,33,100,4
5,33,100,676
5,31,100,4
5,33,100,4
5,31,100,292
5,33,100,44
5,28,100,56
5,33,100,5956
5,31,100,4
5,33,100,4
5,33,100,676
5,31,100,4
5,33,100,4
5,33,100,676
5,31,100,4
5,33,100,4
5,33,100,676
5,31,100,4
5,33,100,4
5,31,100,292
5,33,100,44
5,28,100,56
6,50,100,10080
6,50,100,96
6,50,100,4
6,52,100,4
6,40,100,4
6,40,100,1156
6,52,100,0
6,54,100,4
6,42,100,0
6,55,100,4
6,43,100,0
6,40,100,196
6,68,100,1156
6,64,100,0
6,59,100,0
6,52,100,0
6,66,100,4
6,62,100,0
6,57,100,0
6,50,100,0
6,61,100,4
6,57,100,0
6,52,100,0
6,45,100,0
6,40,100,960
6,59,100,1156
6,50,100,0
6,61,100,4
6,54,100,0
6,62,100,4
6,55,100,0
6,40,100,196
6,68,100,1156
6,64,100,0
6,59,100,0
6,52,100,0
6,66,100,4
6,62,100,0
6,57,100,0
6,50,100,0
6,61,100,4
6,57,100,0
6,52,100,0
6,45,100,0
6,61,100,0
6,57,100,0
6,52,100,0
6,45,100,0
6,59,100,4
6,55,100,0
6,50,100,0
6,43,100,0
6,61,100,4
6,57,100,0
6,52,100,0
6,45,100,0
6,61,100,676
6,57,100,0
6,52,100,0
6,45,100,0
6,59,100,4
6,55,100,0
6,50,100,0
6,43,100,0
6,61,100,4
6,57,100,0
6,52,100,0
6,45,100,0
6,61,100,676
6,57,100,0
6,52,100,0
6,45,100,0
6,59,100,4
6,55,100,0
6,50,100,0
6,43,100,0
6,61,100,4
6,57,100,0
6,52,100,0
6,45,100,0
6,61,100,676
6,57,100,0
6,52,100,0
6,45,100,0
6,59,100,4
6,55,100,0
6,50,100,0
6,43,100,0
6,61,100,4
6,57,100,0
6,52,100,0
6,45,100,0
6,40,100,676
6,40,100,1156
6,40,100,4
6,40,100,4
6,67,100,4
6,62,100,0
6,56,100,0
6,67,100,4
6,62,100,0
6,56,100,0
6,67,100,4
6,62,100,0
6,56,100,0
6,67,100,100
6,62,100,0
6,56,100,0
6,52,100,0
6,67,100,4
6,62,100,0
6,56,100,0
6,67,100,4
6,62,100,0
6,56,100,0
6,67,100,4
6,62,100,0
6,56,100,0
6,67,100,4
6,62,100,0
6,56,100,0
6,67,100,4
6,62,100,0
6,56,100,0
6,40,100,4
6,52,100,4
6,59,100,0
6,59,100,4
6,52,100,0
6,52,100,4
6,59,100,0
6,59,100,4
6,52,100,0
6,52,100,4
6,59,100,0
6,59,100,4
6,52,100,0
6,52,100,100
6,59,100,0
6,52,100,4
6,59,100,0
6,52,100,4
6,59,100,0
6,52,100,4
6,59,100,0
6,59,100,4
6,52,100,0
6,52,100,4
6,59,100,0
6,67,100,100
6,62,100,0
6,56,100,0
6,52,100,0
6,52,100,4
6,56,100,0
6,62,100,0
6,67,100,0
6,67,100,4
6,62,100,0
6,56,100,0
6,52,100,0
6,52,100,4
6,56,100,0
6,62,100,0
6,67,100,0
6,67,100,4
6,62,100,0
6,56,100,0
6,52,100,0
6,67,100,4
6,62,100,0
6,56,100,0
6,52,100,0
6,67,100,100
6,62,100,0
6,56,100,0
6,52,100,0
6,52,100,4
6,56,100,0
6,62,100,0
6,67,100,0
6,67,100,4
6,62,100,0
6,56,100,0
6,52,100,0
6,67,100,4
6,62,100,0
6,56,100,0
6,52,100,0
6,50,100,4
6,52,100,4
6,40,100,4
6,52,100,1156
6,59,100,0
6,61,100,4
6,54,100,0
6,62,100,4
6,55,100,0
6,50,100,4
6,50,100,4
6,52,100,4
6,40,100,4
6,68,100,1156
6,64,100,0
6,59,100,0
6,52,100,0
6,66,100,4
6,62,100,0
6,57,100,0
6,50,100,0
6,61,100,4
6,57,100,0
6,52,100,0
6,45,100,0
6,40,100,0
6,52,100,1156
6,59,100,0
6,61,100,4
6,54,100,0
6,62,100,4
6,55,100,0
6,50,100,4
6,50,100,4
6,52,100,4
6,40,100,4
6,68,100,1156
6,64,100,0
6,59,100,0
6,52,100,0
6,66,100,4
6,62,100,0
6,57,100,0
6,50,100,0
6,61,100,4
6,57,100,0
6,52,100,0
6,45,100,0
6,61,100,0
6,57,100,0
6,52,100,0
6,45,100,0
6,59,100,4
6,55,100,0
6,50,100,0
6,43,100,0
6,61,100,4
6,57,100,0
6,52,100,0
6,45,100,0
6,61,100,676
6,57,100,0
6,52,100,0
6,45,100,0
6,59,100,4
6,55,100,0
6,50,100,0
6,43,100,0
6,61,100,4
6,57,100,0
6,52,100,0
6,45,100,0
6,61,100,676
6,57,100,0
6,52,100,0
6,45,100,0
6,59,100,4
6,55,100,0
6,50,100,0
6,43,100,0
6,61,100,4
6,57,100,0
6,52,100,0
6,45,100,0
6,61,100,676
6,57,100,0
6,52,100,0
6,45,100,0
6,59,100,4
6,55,100,0
6,50,100,0
6,43,100,0
6,61,100,4
6,57,100,0
6,52,100,0
6,45,100,0
6,40,100,676
6,52,100,2692
6,52,100,4
6,52,100,4
6,56,100,0
6,62,100,0
6,67,100,0
6,67,100,4
6,62,100,0
6,56,100,0
6,52,100,0
