track,note,velocity,time
1,61,127,1536
1,64,127,4
1,64,127,4
1,64,127,4
1,66,127,4
1,64,127,4
1,64,127,4
1,64,127,4
1,61,127,4
1,59,127,4
1,57,127,4
1,59,127,4
1,61,127,4
1,59,127,4
1,57,127,4
1,57,127,4
1,59,127,196
1,61,127,4
1,59,127,4
1,57,127,4
1,57,127,4
1,59,127,4
1,61,127,4
1,64,127,4
1,60,127,100
1,60,127,4
1,59,127,4
1,57,127,4
1,54,127,4
1,52,127,4
1,49,127,4
1,52,127,4
1,54,127,4
1,57,127,4
1,61,127,388
1,64,127,4
1,64,127,4
1,64,127,4
1,64,127,4
1,66,127,4
1,64,127,4
1,64,127,4
1,64,127,4
1,64,127,4
1,57,127,4
1,57,127,4
1,59,127,4
1,61,127,4
1,64,127,4
1,61,127,4
1,59,127,4
1,61,127,4
1,59,127,4
1,57,127,4
1,57,127,292
1,59,127,4
1,64,127,4
1,57,127,4
1,59,127,4
1,61,127,4
1,59,127,4
1,57,127,4
1,69,127,580
1,68,127,4
1,66,127,4
1,64,127,4
1,66,127,4
1,64,127,4
1,62,127,4
1,64,127,4
1,62,127,4
1,64,127,4
1,62,127,4
1,64,127,4
1,62,127,4
1,62,127,4
1,62,127,4
1,64,127,4
1,62,127,388
1,62,127,4
1,62,127,4
1,62,127,4
1,65,127,4
1,64,127,4
1,62,127,4
1,59,127,4
1,62,127,4
1,64,127,4
1,66,127,4
1,69,127,384
1,67,127,4
1,67,127,4
1,67,127,4
1,67,127,4
1,67,127,4
1,67,127,4
1,69,127,4
1,63,127,4
1,62,127,4
1,60,127,4
1,67,127,196
1,65,127,4
1,67,127,4
1,65,127,4
1,67,127,4
1,65,127,4
1,67,127,4
1,65,127,4
1,70,127,4
1,70,127,4
1,70,127,4
1,69,127,4
1,70,127,4
1,74,127,4
1,72,127,7012
1,67,127,4
1,69,127,4
1,72,127,1636
1,67,127,4
1,69,127,4
1,62,127,1540
1,64,127,4
1,64,127,4
1,64,127,4
1,72,127,4
1,71,127,4
1,69,127,4
1,71,127,4
1,72,127,4
1,66,127,4
1,68,127,388
1,69,127,4
1,69,127,4
1,74,127,4
1,74,127,4
1,73,127,128
1,74,127,68
1,72,127,68
1,69,127,4
1,69,127,4
1,67,127,4
1,73,127,4
1,64,127,4
1,69,127,196
1,67,127,4
1,67,127,4
1,69,127,4
1,57,127,1060
1,57,127,4
1,61,127,4
1,64,127,4
1,66,127,4
1,69,127,100
1,72,127,4
1,72,127,4
1,71,127,4
1,69,127,4
1,71,127,196
1,73,127,4
1,76,127,4
1,73,127,4
1,71,127,4
1,73,127,4
1,71,127,4
1,69,127,4
1,66,127,100
1,73,127,4
1,71,127,4
1,73,127,4
1,69,127,4
1,69,127,4
1,69,127,4
1,68,127,4
1,69,127,4
1,69,127,580
1,68,127,4
1,66,127,4
1,64,127,4
1,64,127,196
1,62,127,4
1,64,127,4
1,62,127,4
1,66,127,4
1,62,127,4
1,64,127,4
1,62,127,4
1,62,127,4
1,62,127,4
1,62,127,4
1,64,127,4
1,72,127,4
1,71,127,4
1,72,127,100
1,72,127,4
1,71,127,4
1,72,127,4
1,72,127,4
1,71,127,4
1,69,127,4
1,67,127,4
1,71,127,4
1,73,127,4
1,69,127,4
1,67,127,4
1,62,127,4
1,60,127,4
1,69,127,384
1,67,127,4
1,67,127,4
1,65,127,4
1,67,127,4
1,67,127,4
1,67,127,4
1,67,127,4
1,71,127,4
1,74,127,4
1,69,127,484
1,74,127,4
1,74,127,4
1,74,127,4
1,72,127,4
1,74,127,4
1,72,127,4
1,74,127,4
1,72,127,4
1,74,127,4
1,74,127,4
1,69,127,4
1,71,127,4
1,71,127,3076
1,71,127,4
1,69,127,4
1,67,127,4
1,64,127,4
1,71,127,4
1,74,127,4
1,71,127,4
1,74,127,4
1,71,127,4
1,70,127,4
1,67,127,4
1,71,127,196
1,67,127,4
1,71,127,4
1,67,127,4
1,72,127,4
1,65,127,4
1,70,127,4
1,71,127,4
1,74,127,4
1,71,127,1156
1,70,127,4
1,71,127,4
1,69,127,4
1,67,127,4
1,64,127,4
1,71,127,4
1,74,127,4
1,74,127,4
1,76,127,4
1,71,127,4
1,69,127,4
1,64,127,196
1,67,127,4
1,62,127,4
1,64,127,4
1,62,127,4
1,65,127,4
1,66,127,4
1,67,127,4
1,67,127,4
1,74,127,4
1,74,127,4
1,77,127,4
1,70,127,4
1,69,127,4
1,72,127,580
1,71,127,4
1,72,127,4
1,72,127,4
1,70,127,4
1,72,127,4
1,70,127,4
1,72,127,4
1,72,127,4
1,70,127,4
1,72,127,4
1,70,127,4
1,72,127,772
1,72,127,4
1,70,127,4
1,72,127,4
1,67,127,4
1,67,127,4
1,70,127,4
1,69,127,4
1,70,127,4
1,69,127,580
1,67,127,4
1,65,127,4
1,72,127,196
1,69,127,4
1,67,127,4
1,69,127,4
1,64,127,4
1,72,127,388
1,70,127,4
1,72,127,4
1,74,127,4
1,70,127,4
1,67,127,4
1,72,127,772
1,71,127,4
1,72,127,4
1,72,127,4
1,73,127,4
1,74,127,36
1,74,127,128
1,74,127,164
1,73,127,4
1,73,127,4
1,72,127,288
1,70,127,4
1,65,127,4
1,74,127,5472
1,76,127,4
1,69,127,4
1,69,127,132
1,69,127,128
1,69,127,68
1,69,127,4
1,73,127,4
1,73,127,4
1,73,127,4
1,73,127,4
1,71,127,4
1,69,127,4
1,69,127,4
1,73,127,388
1,73,127,4
1,71,127,4
1,69,127,4
1,69,127,4
1,73,127,196
1,73,127,4
1,71,127,4
1,69,127,4
1,69,127,4
1,66,127,196
1,66,127,4
1,71,127,4
1,66,127,128
1,69,127,68
1,66,127,68
1,71,127,68
1,66,127,68
1,64,127,68
1,69,127,1348
1,69,127,4
1,69,127,4
1,69,127,4
1,73,127,4
1,73,127,4
1,73,127,4
1,69,127,4
1,73,127,4
1,69,127,4
1,69,127,100
1,73,127,4
1,69,127,4
1,69,127,4
1,67,127,4
1,69,127,4
1,67,127,4
1,72,127,4
1,67,127,4
1,69,127,4
1,69,127,196
1,67,127,4
1,69,127,4
1,67,127,4
1,73,127,4
1,67,127,4
1,66,127,4
1,64,127,4
1,69,127,580
1,68,127,4
1,66,127,4
1,64,127,4
1,62,127,4
1,66,127,4
1,62,127,4
1,64,127,4
1,62,127,4
1,64,127,4
1,62,127,4
1,62,127,4
1,62,127,4
1,62,127,4
1,62,127,4
1,62,127,4
1,62,127,4
1,62,127,4
1,62,127,4
1,73,127,196
1,73,127,4
1,73,127,128
1,73,127,68
1,73,127,68
1,71,127,4
1,69,127,4
1,67,127,4
1,72,127,196
1,69,127,4
1,69,127,100
1,72,127,4
1,72,127,4
1,69,127,4
1,69,127,192
1,68,127,100
1,67,127,4
1,65,127,4
1,67,127,388
1,65,127,4
1,67,127,4
1,67,127,4
1,67,127,4
1,67,127,4
1,67,127,4
1,67,127,4
1,67,127,4
1,70,127,4
1,74,127,4
1,74,127,4
1,70,127,4
1,74,127,4
1,73,127,4
1,74,127,4
1,70,127,4
1,74,127,4
1,67,127,4
1,64,127,292
1,75,127,4
1,70,127,4
1,69,127,4
1,67,127,4
1,72,127,196
1,71,127,388
1,67,127,100
1,62,127,964
1,71,127,36
1,70,127,128
1,71,127,68
1,65,127,4
1,65,127,4
1,67,127,4
1,74,127,772
1,70,127,4
1,67,127,4
1,65,127,4
1,65,127,4
1,62,127,772
1,72,127,4
1,74,127,4
1,70,127,4
1,67,127,4
1,74,127,196
1,70,127,4
1,67,127,4
1,65,127,4
1,65,127,4
1,67,127,964
1,76,127,4
1,77,127,4
1,71,127,4
1,67,127,4
1,72,127,196
1,72,127,1156
1,72,127,388
1,72,127,196
2,69,100,1536
2,62,100,0
2,57,100,0
2,69,100,4
2,61,100,0
2,57,100,0
2,69,100,4
2,62,100,0
2,57,100,0
2,69,100,4
2,61,100,0
2,57,100,0
2,69,100,4
2,57,100,384
2,69,100,196
2,69,100,4
2,57,100,4
2,57,100,4
2,69,100,4
2,57,100,4
2,57,100,4
2,69,100,4
2,57,100,4
2,69,100,4
2,69,100,4
2,62,100,4
2,57,100,4
2,69,100,4
2,57,100,4
2,69,100,4
2,69,100,4
2,61,100,4
2,57,100,4
2,61,100,4
2,69,100,4
2,69,100,12868
2,61,100,0
2,57,100,0
2,69,100,4
2,62,100,0
2,57,100,0
2,69,100,4
2,61,100,0
2,57,100,0
2,69,100,4
2,62,100,0
2,57,100,0
2,69,100,4
2,57,100,4
2,69,100,4
2,61,100,4
2,57,100,4
2,69,100,4
2,61,100,4
2,57,100,4
2,69,100,4
2,57,100,4
2,69,100,4
2,57,100,4
2,57,100,4
2,69,100,0
2,57,100,4
2,69,100,0
2,69,100,4
2,57,100,4
2,57,100,4
2,69,100,0
2,69,100,580
2,57,100,4
2,52,100,4
2,57,100,4
2,52,100,4
2,57,100,4
2,69,100,4
2,57,100,4
2,52,100,4
2,57,100,4
2,52,100,4
2,57,100,4
2,69,100,4
2,57,100,4
2,52,100,4
2,57,100,4
2,52,100,4
2,57,100,4
2,69,100,4
2,57,100,4
2,52,100,4
2,57,100,4
2,52,100,4
2,57,100,4
2,69,100,4
2,57,100,4
2,52,100,4
2,57,100,4
2,52,100,4
2,57,100,4
2,69,100,4
2,57,100,4
2,52,100,4
2,57,100,4
2,52,100,4
2,57,100,4
2,69,100,4
2,57,100,4
2,52,100,4
2,57,100,4
2,52,100,4
2,57,100,4
2,69,100,4
2,61,100,4
2,57,100,4
2,61,100,4
2,69,100,4
2,61,100,0
2,69,100,39748
2,61,100,0
2,57,100,0
2,69,100,4
2,62,100,0
2,57,100,0
2,69,100,4
2,61,100,0
2,57,100,0
2,69,100,4
2,62,100,0
2,57,100,0
4,64,100,1536
4,62,100,0
4,57,100,0
4,54,100,0
4,45,100,0
4,61,100,4
4,57,100,0
4,52,100,0
4,45,100,0
4,64,100,4
4,62,100,0
4,57,100,0
4,54,100,0
4,45,100,0
4,61,100,4
4,57,100,0
4,52,100,0
4,45,100,0
4,62,100,4
4,57,100,0
4,52,100,0
4,45,100,0
4,57,100,4
4,52,100,0
4,45,100,0
4,62,100,0
4,61,100,4
4,57,100,4
4,52,100,0
4,45,100,0
4,61,100,0
4,57,100,4
4,52,100,0
4,45,100,0
4,62,100,0
4,61,100,4
4,57,100,4
4,52,100,0
4,45,100,0
4,61,100,0
4,57,100,4
4,52,100,0
4,45,100,0
4,61,100,0
4,57,100,4
4,52,100,0
4,45,100,0
4,62,100,0
4,61,100,4
4,57,100,4
4,52,100,0
4,45,100,0
4,61,100,0
4,57,100,4
4,52,100,0
4,45,100,0
4,62,100,0
4,61,100,4
4,57,100,4
4,52,100,0
4,45,100,0
4,61,100,0
4,62,100,4
4,57,100,0
4,52,100,0
4,45,100,0
4,57,100,4
4,52,100,0
4,45,100,0
4,62,100,0
4,61,100,4
4,57,100,4
4,52,100,0
4,45,100,0
4,61,100,0
4,57,100,4
4,52,100,0
4,45,100,0
4,62,100,0
4,61,100,4
4,57,100,4
4,52,100,0
4,45,100,0
4,61,100,0
4,61,100,4
4,57,100,0
4,52,100,0
4,45,100,0
4,61,100,12292
4,57,100,0
4,52,100,0
4,45,100,0
4,64,100,4
4,62,100,0
4,57,100,0
4,54,100,0
4,45,100,0
4,61,100,4
4,57,100,0
4,52,100,0
4,45,100,0
4,64,100,4
4,62,100,0
4,57,100,0
4,54,100,0
4,45,100,0
4,45,100,4
4,52,100,0
4,57,100,0
4,61,100,0
4,57,100,4
4,57,100,4
4,61,100,4
4,62,100,4
4,61,100,4
4,57,100,4
4,61,100,4
4,62,100,4
4,61,100,4
4,57,100,4
4,61,100,4
4,45,100,4
4,52,100,0
4,57,100,0
4,61,100,0
4,57,100,4
4,57,100,4
4,61,100,4
4,62,100,4
4,61,100,4
4,57,100,4
4,61,100,4
4,62,100,4
4,61,100,4
4,57,100,4
4,61,100,4
4,45,100,4
4,52,100,0
4,57,100,0
4,61,100,0
4,57,100,4
4,57,100,4
4,61,100,4
4,62,100,4
4,61,100,4
4,57,100,4
4,61,100,4
4,62,100,4
4,61,100,4
4,57,100,4
4,61,100,4
4,62,100,4
4,57,100,0
4,52,100,0
4,45,100,0
4,62,100,4
4,57,100,0
4,52,100,0
4,45,100,0
4,62,100,4
4,57,100,0
4,52,100,0
4,45,100,0
4,62,100,4
4,57,100,0
4,52,100,0
4,45,100,0
4,64,100,580
4,62,100,0
4,57,100,0
4,54,100,0
4,45,100,0
4,45,100,4
4,52,100,0
4,57,100,0
4,61,100,0
4,57,100,4
4,57,100,4
4,61,100,4
4,62,100,4
4,61,100,4
4,57,100,4
4,61,100,4
4,62,100,4
4,61,100,4
4,57,100,4
4,61,100,4
4,64,100,4
4,62,100,0
4,57,100,0
4,54,100,0
4,45,100,0
4,45,100,4
4,52,100,0
4,57,100,0
4,61,100,0
4,57,100,4
4,57,100,4
4,61,100,4
4,62,100,4
4,61,100,4
4,57,100,4
4,61,100,4
4,62,100,4
4,61,100,4
4,57,100,4
4,61,100,4
4,64,100,4
4,62,100,0
4,57,100,0
4,54,100,0
4,45,100,0
4,45,100,4
4,52,100,0
4,57,100,0
4,61,100,0
4,57,100,4
4,57,100,4
4,61,100,4
4,62,100,4
4,61,100,4
4,57,100,4
4,61,100,4
4,62,100,4
4,61,100,4
4,57,100,4
4,61,100,4
4,64,100,4
4,62,100,0
4,57,100,0
4,54,100,0
4,45,100,0
4,61,100,4
4,57,100,0
4,52,100,0
4,45,100,0
4,61,100,39556
4,57,100,0
4,52,100,0
4,45,100,0
4,64,100,4
4,62,100,0
4,57,100,0
4,54,100,0
4,45,100,0
4,61,100,4
4,57,100,0
4,52,100,0
4,45,100,0
4,64,100,4
4,62,100,0
4,57,100,0
4,54,100,0
4,45,100,0
4,64,100,4
4,62,100,0
4,57,100,0
4,54,100,0
4,45,100,0
4,45,100,4
4,52,100,0
4,57,100,0
4,61,100,0
4,57,100,4
4,57,100,4
4,61,100,4
4,62,100,4
4,61,100,4
4,57,100,4
4,61,100,4
4,62,100,4
4,61,100,4
4,57,100,4
4,61,100,4
4,64,100,4
4,62,100,0
4,57,100,0
4,54,100,0
4,45,100,0
4,45,100,4
4,52,100,0
4,57,100,0
4,61,100,0
4,57,100,4
4,57,100,4
4,61,100,4
4,62,100,4
4,61,100,4
4,57,100,4
4,61,100,4
4,62,100,4
4,61,100,4
4,57,100,4
4,61,100,4
4,64,100,4
4,62,100,0
4,57,100,0
4,54,100,0
4,45,100,0
4,45,100,4
4,52,100,0
4,57,100,0
4,61,100,0
4,57,100,4
4,57,100,4
4,61,100,4
4,62,100,4
4,61,100,4
4,57,100,4
4,61,100,4
4,62,100,4
4,61,100,4
4,57,100,4
4,61,100,4
4,62,100,4
4,57,100,0
4,52,100,0
4,45,100,0
4,61,100,4
4,57,100,0
4,52,100,0
4,45,100,0
4,61,100,4
4,57,100,0
4,52,100,0
4,45,100,0
4,61,100,4
4,57,100,0
4,52,100,0
4,45,100,0
5,40,100,13824
5,52,100,192
5,57,100,0
5,40,100,4
5,47,100,0
5,52,100,0
5,57,100,0
5,57,100,4
5,52,100,0
5,47,100,4
5,49,100,4
5,52,100,4
5,54,100,4
5,40,100,4
5,40,100,4
5,47,100,0
5,40,100,196
5,47,100,0
5,40,100,196
5,47,100,0
5,40,100,4
5,47,100,0
5,42,100,4
5,49,100,0
5,43,100,4
5,50,100,0
5,50,100,4
5,43,100,0
5,43,100,4
5,52,100,0
5,52,100,4
5,43,100,0
5,50,100,4
5,43,100,0
5,43,100,4
5,50,100,0
5,43,100,4
5,52,100,0
5,43,100,4
5,50,100,0
5,50,100,4
5,57,100,0
5,50,100,4
5,57,100,0
5,50,100,4
5,59,100,0
5,50,100,4
5,59,100,0
5,50,100,4
5,57,100,0
5,50,100,4
5,57,100,0
5,50,100,4
5,59,100,0
5,40,100,4
5,41,100,0
5,48,100,0
5,41,100,4
5,48,100,0
5,41,100,4
5,50,100,0
5,41,100,4
5,50,100,0
