track,note,velocity,time
1,75,115,20544
1,75,0,46
1,72,115,2
1,72,0,46
1,72,115,98
1,72,0,46
1,70,115,2
1,70,0,46
1,72,115,2
1,72,0,46
1,72,115,50
1,70,115,48
1,72,0,0
1,72,115,48
1,70,0,0
1,72,0,48
1,75,115,0
1,75,0,142
1,72,115,578
1,72,0,30
1,70,115,2
1,70,0,30
1,72,115,34
1,72,0,46
1,72,115,2
1,72,0,142
1,72,115,2
1,72,0,46
1,72,115,2
1,72,0,46
1,78,115,338
1,78,0,46
1,77,115,2
1,77,0,46
1,75,115,2
1,75,0,46
1,72,115,2
1,71,115,48
1,72,0,0
1,72,115,48
1,71,0,0
1,72,0,256
1,70,115,1808
1,70,0,142
1,75,115,2
1,75,0,46
1,72,115,2
1,72,0,46
1,72,115,2
1,72,0,46
1,72,115,98
1,71,115,48
1,72,0,0
1,71,0,48
1,72,115,0
1,72,0,48
1,75,115,0
1,75,0,94
1,67,115,722
1,67,0,46
1,68,115,2
1,68,0,46
1,72,115,2
1,72,0,94
1,72,115,2
1,72,0,46
1,72,115,2
1,72,0,142
1,72,115,2
1,72,0,94
1,72,115,2
1,72,0,142
1,79,115,338
1,79,0,46
1,77,115,2
1,77,0,46
1,75,115,2
1,75,0,46
1,72,115,2
1,72,0,46
1,71,115,2
1,71,0,46
1,72,115,2
1,72,0,46
1,75,115,2
1,75,0,238
1,70,115,2
1,70,0,256
1,73,115,1640
1,73,0,22
1,73,115,2
1,73,0,22
1,73,115,2
1,73,0,22
1,73,115,2
1,73,0,22
1,73,115,2
1,73,0,22
1,72,115,50
1,74,115,48
1,72,0,0
1,74,0,142
1,72,115,2
1,72,0,22
1,70,115,2
1,70,0,22
1,72,115,2
1,72,0,144
1,74,115,0
1,74,0,46
1,67,115,2
1,67,0,94
1,72,115,722
1,72,0,142
1,67,115,194
1,67,0,46
1,70,115,2
1,70,0,94
1,70,115,2
1,70,0,46
1,70,115,2
1,70,0,160
1,75,115,32
1,75,0,46
1,72,115,2
1,72,0,46
1,72,115,2
1,72,0,160
1,72,115,2144
1,72,0,46
1,70,115,2
1,70,0,46
1,72,115,98
1,72,0,46
1,70,115,2
1,70,0,46
1,72,115,2
1,72,0,46
1,70,115,2
1,70,0,46
1,74,115,50
1,75,115,48
1,74,0,0
1,75,0,256
1,70,115,464
1,70,0,46
1,72,115,98
1,72,0,160
1,78,115,32
1,78,0,94
1,77,115,2
1,77,0,94
1,75,115,2
1,72,115,48
1,75,0,0
1,72,0,46
1,72,115,578
1,72,0,46
1,70,115,2
1,70,0,46
1,72,115,2
1,72,0,46
1,70,115,2
1,70,0,46
1,72,115,50
1,72,0,46
1,70,115,2
1,70,0,46
1,75,115,2
1,75,0,142
1,72,115,2
1,72,0,46
1,72,115,2
1,72,0,142
1,70,115,482
1,70,0,94
1,72,115,2
1,72,0,46
1,72,115,2
1,72,0,46
1,78,115,194
1,78,0,94
1,77,115,2
1,77,0,46
1,75,115,2
1,75,0,46
1,72,115,2
1,72,0,46
1,70,115,2
1,72,115,24
1,70,0,0
1,72,0,280
1,75,115,128
1,75,0,46
1,72,115,2
1,72,0,46
1,72,115,146
1,72,0,46
1,70,115,2
1,70,0,46
1,72,115,2
1,72,0,46
1,72,115,2
1,72,0,22
1,70,115,2
1,70,0,22
1,72,115,2
1,72,0,22
1,75,115,2
1,75,0,280
1,69,115,608
1,69,0,94
1,72,115,2
1,72,0,94
1,72,115,2
1,72,0,94
1,72,115,2
1,72,0,94
1,72,115,2
1,72,0,94
1,72,115,2
1,72,0,94
1,67,115,290
1,78,115,96
1,67,0,0
1,78,0,62
1,77,115,2
1,77,0,62
1,75,115,2
1,75,0,62
1,72,115,2
1,70,115,48
1,72,0,0
1,70,0,400
1,77,115,1712
1,77,0,46
1,77,115,2
1,77,0,22
1,77,115,2
1,77,0,22
1,78,115,50
1,78,0,142
1,77,115,2
1,77,0,46
1,75,115,2
1,75,0,94
1,72,115,2
1,72,0,94
1,72,115,2
1,72,0,160
1,67,115,944
1,67,0,142
1,70,115,2
1,70,0,22
1,70,115,2
1,70,0,22
1,75,115,146
1,75,0,24
1,74,115,0
1,74,0,22
1,72,115,2
1,72,0,22
1,70,115,2
1,70,0,24
1,72,115,0
1,72,0,256
1,70,115,29936
1,70,0,46
1,72,115,2
1,72,0,46
1,70,115,2
1,70,0,94
1,75,115,2
1,75,0,94
1,72,115,2
1,72,0,46
1,72,115,2
1,72,0,256
1,72,115,512
1,72,0,46
1,72,115,2
1,72,0,94
1,79,115,2
1,79,0,94
1,77,115,2
1,77,0,46
1,75,115,2
1,75,0,94
1,74,115,2
1,74,0,46
1,70,115,2
1,70,0,208
1,67,115,464
1,67,0,46
1,70,115,2
1,70,0,46
1,70,115,2
1,70,0,46
1,67,115,50
1,67,0,46
1,72,115,2
1,72,0,46
1,72,115,2
1,72,0,46
1,75,115,50
1,75,0,46
1,75,115,2
1,75,0,94
1,70,115,2
1,70,0,256
1,72,115,368
1,72,0,46
1,72,115,2
1,72,0,46
1,72,115,2
1,72,0,46
1,82,115,98
1,82,0,94
1,79,115,2
1,79,0,160
1,82,115,32
1,82,0,94
1,79,115,2
1,79,0,46
1,77,115,2
1,77,0,46
1,75,115,2
1,72,115,24
1,75,0,0
1,72,0,24
1,70,115,0
1,72,115,24
1,70,0,0
1,72,0,118
1,63,115,242
1,63,0,46
1,75,115,2
1,75,0,94
1,72,115,2
1,72,0,94
1,72,115,50
1,72,0,46
1,70,115,2
1,70,0,46
1,72,115,2
1,72,0,46
1,72,115,2
1,72,0,256
1,70,115,512
1,70,0,142
1,72,115,2
1,72,0,94
1,70,115,2
1,70,0,46
1,72,115,2
1,72,0,160
1,72,115,32
1,72,0,94
1,72,115,2
1,72,0,160
1,79,115,320
1,79,0,142
1,77,115,2
1,77,0,46
1,75,115,2
1,75,0,46
1,70,115,2
1,72,115,96
1,70,0,0
1,72,0,238
1,77,115,1802
1,77,0,22
1,77,115,2
1,77,0,46
1,77,115,2
1,77,0,46
1,79,115,2
1,79,0,238
1,77,115,2
1,77,0,22
1,75,115,2
1,75,0,22
1,77,115,2
1,77,0,24
1,79,115,0
1,79,0,70
1,79,115,2
1,74,115,48
1,79,0,0
1,74,0,238
1,77,115,338
1,77,0,46
1,79,115,2
1,79,0,46
1,79,115,2
1,79,0,46
1,79,115,2
1,79,0,22
1,79,115,2
1,79,0,70
1,79,115,98
1,79,0,24
1,77,115,0
1,77,0,550
1,79,115,2
1,79,0,70
1,77,115,2
1,77,0,24
1,75,115,0
1,75,0,352
1,67,115,2192
1,67,0,46
1,72,115,2
1,72,0,22
1,72,115,2
1,72,0,22
1,72,115,2
1,72,0,22
1,79,115,74
1,79,0,94
1,78,115,2
1,78,0,46
1,78,115,2
1,78,0,94
1,75,115,2
1,75,0,94
1,72,115,2
1,72,0,160
1,70,115,560
1,70,0,22
1,70,115,2
1,70,0,22
1,72,115,50
1,72,0,94
1,70,115,2
1,70,0,46
1,75,115,2
1,75,0,46
1,72,115,2
1,72,0,46
1,72,115,2
1,72,0,256
1,72,115,464
1,72,0,46
1,72,115,2
1,72,0,46
1,72,115,2
1,72,0,46
1,79,115,50
1,79,0,94
1,77,115,2
1,77,0,94
1,79,115,2
1,79,0,46
1,75,115,2
1,75,0,46
1,72,115,2
1,72,0,46
1,72,115,2
1,72,0,46
1,72,115,2
1,72,0,46
1,79,115,434
1,79,0,46
1,79,115,2
1,79,0,46
1,79,115,2
1,79,0,46
1,82,115,2
1,82,0,94
1,79,115,98
1,79,0,94
1,77,115,98
1,77,0,46
1,75,115,2
1,75,0,46
1,72,115,2
1,72,0,160
1,72,115,368
1,72,0,96
1,82,115,0
1,82,0,142
1,79,115,2
1,79,0,94
1,77,115,2
1,77,0,46
1,75,115,2
1,75,0,46
1,72,115,2
1,72,0,94
1,72,115,2
1,72,0,96
1,70,115,0
1,72,115,48
1,70,0,0
1,72,0,142
1,82,115,290
1,82,0,94
1,79,115,2
1,77,115,48
1,79,0,0
1,77,0,286
1,77,115,2
1,77,0,46
1,75,115,2
1,75,0,46
1,82,115,338
1,82,0,142
1,79,115,2
1,79,0,46
1,77,115,2
1,77,0,94
1,75,115,2
1,75,0,30
1,72,115,2
1,72,0,30
1,70,115,2
1,70,0,30
1,72,115,2
1,72,0,30
1,75,115,2
1,75,0,206
1,75,115,2
1,75,0,94
1,75,115,2
1,75,0,142
1,72,115,962
1,72,0,142
1,75,115,2
1,75,0,94
1,77,115,2
1,77,0,94
1,79,115,2
1,79,0,142
1,79,115,338
1,79,0,46
1,79,115,2
1,79,0,22
1,79,115,2
1,79,0,22
1,82,115,2
1,82,0,142
1,79,115,2
1,79,0,22
1,77,115,2
1,77,0,22
1,79,115,2
1,79,0,142
1,79,115,2
1,77,115,24
1,79,0,0
1,77,0,70
1,79,115,866
1,79,0,22
1,79,115,2
1,79,0,22
1,79,115,2
1,79,0,22
1,79,115,2
1,79,0,22
1,79,115,50
1,77,115,48
1,79,0,0
1,77,0,352
1,77,115,32
1,77,0,94
1,75,115,2
1,77,115,48
1,75,0,0
1,77,0,48
1,75,115,0
1,75,0,352
1,75,115,2096
1,75,0,46
1,79,115,2
1,79,0,22
1,79,115,2
1,79,0,22
1,79,115,2
1,79,0,94
1,77,115,2
1,77,0,22
1,75,115,2
1,75,0,22
1,77,115,2
1,79,115,24
1,77,0,0
1,79,0,70
1,77,115,2
1,77,0,22
1,75,115,2
1,75,0,166
1,72,115,722
1,72,0,94
1,72,115,2
1,72,0,94
1,75,115,2
1,75,0,142
1,72,115,242
1,72,0,46
1,72,115,2
1,72,0,22
1,70,115,2
1,70,0,22
1,75,115,146
1,75,0,94
1,72,115,2
1,72,0,70
1,70,115,2
1,72,115,24
1,70,0,0
1,72,0,160
1,79,115,512
1,79,0,94
1,77,115,2
1,77,0,46
1,75,115,2
1,75,0,46
1,72,115,50
1,72,0,46
1,70,115,2
1,70,0,46
1,72,115,2
1,72,0,142
2,70,127,4128
2,70,0,46
2,72,127,2
2,72,0,46
2,67,127,2
2,67,0,46
2,69,127,2
2,69,0,142
2,70,127,2
2,70,0,46
2,72,127,2
2,72,0,46
2,67,127,2
2,67,0,46
2,69,127,2
2,69,0,142
2,70,127,290
2,70,0,46
2,72,127,2
2,72,0,46
2,67,127,2
2,67,0,46
2,69,127,2
2,69,0,142
2,70,127,2
2,70,0,46
2,72,127,2
2,72,0,46
2,67,127,2
2,67,0,46
2,69,127,2
2,69,0,142
2,41,110,5090
2,48,110,0
2,48,0,94
2,41,0,0
2,48,110,98
2,41,110,0
2,48,0,640
2,41,0,0
2,48,110,32
2,48,0,46
2,50,110,2
2,53,110,48
2,53,0,94
2,58,110,2
2,58,0,46
2,50,0,0
2,56,110,50
2,41,110,0
2,48,110,0
2,53,110,0
2,41,0,94
2,53,0,0
2,48,0,0
2,56,0,0
2,48,110,98
2,60,110,0
2,56,110,0
2,53,110,0
2,41,110,0
2,60,0,640
2,56,0,0
2,53,0,0
2,41,0,0
2,48,0,0
2,55,110,32
2,55,0,46
2,57,110,2
2,60,110,48
2,60,0,94
2,65,110,2
2,57,0,46
2,65,0,0
2,60,110,50
2,55,110,0
2,48,110,0
2,55,0,94
2,48,0,0
2,60,0,0
2,55,110,98
2,48,110,0
2,60,110,0
2,55,0,640
2,48,0,0
2,60,0,0
2,55,110,32
2,55,0,46
2,57,110,2
2,60,110,48
2,60,0,94
2,65,110,2
2,65,0,46
2,57,0,0
2,55,110,50
2,60,110,0
2,48,110,0
2,55,0,94
2,60,0,0
2,48,0,0
2,60,110,98
2,55,110,0
2,48,110,0
2,55,0,640
2,60,0,0
2,48,0,0
2,55,110,32
2,55,0,46
2,57,110,2
2,60,110,48
2,60,0,94
2,65,110,2
2,57,0,46
2,65,0,0
2,48,110,50
2,41,110,0
2,41,0,94
2,48,0,0
2,50,110,98
2,43,110,0
2,43,0,640
2,50,0,0
2,50,110,32
2,50,0,46
2,52,110,2
2,52,0,46
2,55,110,2
2,55,0,94
2,52,110,2
2,52,0,94
2,53,110,2
2,48,110,0
2,56,110,0
2,53,0,94
2,48,0,0
2,56,0,0
2,60,110,98
2,48,110,0
2,53,110,0
2,56,110,0
2,53,0,352
2,48,0,0
2,56,0,0
2,60,0,0
2,58,110,32
2,53,110,0
2,62,110,0
2,46,110,0
2,46,0,94
2,58,0,0
2,53,0,0
2,62,0,0
2,58,110,98
2,46,110,0
2,53,110,0
2,62,110,0
2,62,0,352
2,58,0,0
2,53,0,0
2,46,0,0
2,55,110,32
2,63,110,0
2,60,110,0
2,60,0,94
2,63,0,0
2,55,0,0
2,63,110,98
2,55,110,0
2,60,110,0
2,60,0,640
2,63,0,0
2,55,0,0
2,55,110,32
2,55,0,46
2,57,110,2
2,60,110,48
2,60,0,94
2,65,110,2
2,57,0,46
2,65,0,0
2,60,110,50
2,55,110,0
2,63,110,0
2,60,0,94
2,55,0,0
2,63,0,0
2,63,110,98
2,60,110,12
2,55,110,12
2,55,0,600
2,60,0,0
2,63,0,0
2,67,110,3216
2,67,0,46
2,65,110,2
2,65,0,22
2,63,110,2
2,63,0,22
2,63,110,2
2,63,0,46
2,60,110,2
2,60,0,22
2,60,110,2
2,60,0,166
2,53,110,290
2,53,0,46
2,51,110,2
2,51,0,30
2,48,110,2
2,48,0,30
2,48,110,2
2,48,0,384
2,60,110,1184
2,65,110,0
2,56,110,0
2,65,0,94
2,60,0,0
2,56,0,0
2,66,110,242
2,66,0,46
2,65,110,2
2,65,0,30
2,63,110,2
2,63,0,30
2,65,110,2
2,65,0,14
2,65,110,2
2,65,0,110
2,63,110,50
2,63,0,22
2,60,110,2
2,60,0,22
2,60,110,2
2,60,0,160
2,77,110,1448
2,77,0,22
2,79,110,2
2,79,0,46
2,77,110,2
2,77,0,46
2,75,110,2
2,75,0,62
2,77,110,2
2,77,0,30
2,79,110,2
2,79,0,46
2,77,110,2
2,77,0,46
2,79,110,2
2,79,0,430
2,77,110,2
2,77,0,46
2,77,110,66
2,77,0,30
2,75,110,2
2,75,0,46
2,77,110,2
2,77,0,94
2,75,110,2
2,75,0,78
2,72,110,2
2,72,0,30
2,72,110,2
2,72,0,30
2,72,110,2
2,72,0,528
2,79,110,1104
2,79,0,46
2,82,110,2
2,82,0,46
2,79,110,34
2,79,0,62
2,80,110,2
2,80,0,160
2,80,110,272
2,80,0,14
2,82,110,2
2,82,0,14
2,80,110,2
2,80,0,14
2,79,110,2
2,79,0,256
2,77,110,288
2,77,0,14
2,79,110,2
2,79,0,14
2,77,110,2
2,77,0,14
2,75,110,2
2,75,0,240
2,77,110,320
2,77,0,14
2,79,110,2
2,79,0,14
2,77,110,2
2,77,0,14
2,75,110,2
2,75,0,46
2,72,110,2
2,72,0,22
2,72,110,2
2,72,0,424
2,70,110,288
2,70,0,30
2,72,110,2
2,72,0,30
2,75,110,2
2,75,0,512
2,72,110,32
2,72,0,192
2,70,110,0
2,70,0,46
2,67,110,2
2,67,0,46
2,67,110,2
2,67,0,256
2,70,110,1568
2,70,0,94
2,72,110,2
2,72,0,94
2,65,110,2
2,65,0,94
2,67,110,2
2,67,0,94
2,63,110,2
2,63,0,94
2,70,110,1826
2,70,0,94
2,72,110,2
2,72,0,94
2,65,110,2
2,65,0,94
2,67,110,2
2,67,0,94
2,63,110,2
2,63,0,94
2,70,110,1826
2,70,0,94
2,72,110,2
2,72,0,94
2,65,110,2
2,65,0,94
2,67,110,2
2,67,0,94
2,63,110,2
2,63,0,94
2,70,110,1826
2,70,0,94
2,72,110,2
2,72,0,94
2,65,110,2
2,65,0,94
2,67,110,2
2,67,0,94
2,63,110,2
2,63,0,94
2,79,110,866
2,79,0,62
2,82,110,2
2,82,0,158
2,79,110,2
2,79,0,30
2,80,110,2
2,80,0,30
2,79,110,2
2,79,0,22
2,80,110,2
2,80,0,46
2,80,110,2
2,80,0,22
2,80,110,2
2,80,0,352
2,80,110,80
2,80,0,46
2,82,110,2
2,82,0,832
