track,note,velocity,time
12,71,107,0
12,71,117,32
12,71,117,6
12,69,90,70
12,67,113,10
12,62,103,2
12,64,107,28
12,64,103,3
12,64,99,6
12,64,117,10
12,67,116,2
12,64,117,131
12,71,110,3
12,71,101,37
12,71,108,27
12,71,111,1
12,71,111,16
12,69,111,38
12,62,75,100
12,64,105,17
12,64,113,40
12,67,111,6
12,64,111,10
12,71,113,5
12,69,111,118
12,67,115,4
12,64,115,6
12,62,99,285
12,64,113,13
12,62,93,8
12,64,115,30
12,67,109,3
12,62,99,14
12,64,86,232
12,71,117,3
12,71,105,18
12,69,87,45
12,69,101,22
12,71,115,6
12,69,107,0
12,64,86,290
12,71,117,3
12,71,105,18
12,69,87,45
12,69,101,22
12,71,115,6
12,69,107,0
12,71,107,16
12,62,101,154
12,57,85,0
12,62,95,14
12,57,71,0
12,57,83,14
12,62,97,0
12,62,101,8
12,57,89,2
12,62,92,12
12,57,72,0
12,57,103,22
12,62,111,0
12,57,69,358
12,62,72,2
12,57,35,11
12,62,81,2
12,57,76,10
12,62,92,0
12,57,66,21
12,62,86,0
12,57,72,18
12,62,97,0
12,57,109,27
12,62,115,3
12,57,69,358
12,62,72,2
12,57,35,11
12,62,81,2
12,57,76,10
12,62,92,0
12,57,66,21
12,62,86,0
12,57,72,18
12,62,97,0
12,57,109,27
12,62,115,3
12,57,69,358
12,62,72,2
12,57,35,11
12,62,81,2
12,57,76,10
12,62,92,0
12,57,66,21
12,62,86,0
12,57,72,18
12,62,97,0
12,57,109,27
12,62,115,3
12,71,113,16
12,71,107,26
12,71,109,7
12,69,105,46
12,67,97,1
12,67,99,6
12,69,92,8
12,67,95,3
12,69,99,40
12,71,113,5
12,71,109,3
12,69,92,45
12,67,101,6
12,64,86,227
12,71,109,3
12,71,111,32
12,71,109,5
12,71,113,9
12,69,109,61
12,67,78,5
12,69,117,16
12,67,85,40
12,69,113,29
12,69,109,5
12,69,113,34
12,67,107,16
12,64,115,57
12,71,111,3
12,71,111,16
12,71,115,2
12,69,105,13
12,67,90,0
12,62,103,110
12,62,95,14
12,64,107,32
12,64,92,16
12,64,103,20
12,64,113,29
12,64,117,39
12,64,86,314
12,71,117,3
12,71,105,18
12,69,87,45
12,69,101,22
12,71,115,6
12,69,107,0
12,59,101,5
12,71,97,59
12,64,86,72
12,24,50,5
12,71,117,3
12,71,105,18
12,69,87,45
12,69,101,22
12,71,115,6
12,69,107,0
12,62,109,5
12,64,99,68
12,71,119,5
12,57,83,139
12,62,97,0
12,62,101,10
12,57,89,0
12,62,92,11
12,57,72,0
12,57,103,22
12,62,111,0
12,57,69,358
12,62,72,2
12,57,35,11
12,62,81,2
12,57,76,10
12,62,92,0
12,57,66,21
12,62,86,0
12,57,72,18
12,62,97,0
12,57,109,27
12,62,115,3
12,57,69,358
12,62,72,2
12,57,35,11
12,62,81,2
12,57,76,10
12,62,92,0
12,57,66,21
12,62,86,0
12,57,72,18
12,62,97,0
12,57,109,27
12,62,115,3
12,57,69,358
12,62,72,2
12,57,35,11
12,62,81,2
12,57,76,10
12,62,92,0
12,62,86,21
12,57,66,0
12,57,72,18
12,62,97,0
12,57,109,27
12,62,115,3
12,71,111,7
12,71,121,51
12,71,113,2
12,69,109,2
12,67,101,2
12,69,105,149
12,69,101,8
12,71,115,8
12,69,117,3
12,67,99,2
12,64,82,2
12,62,101,2
12,64,113,6
12,59,93,2
12,71,107,8
12,71,81,5
12,71,115,3
12,71,117,50
12,69,119,22
12,67,71,50
12,69,117,5
12,69,115,46
12,71,113,2
12,69,109,2
12,67,95,2
12,67,115,50
12,64,89,6
12,62,109,2
12,71,101,0
12,71,107,25
12,69,111,35
12,69,109,37
12,62,95,3
12,62,83,155
12,64,105,48
12,62,70,8
12,64,101,22
12,64,87,22
12,64,90,32
12,67,107,3
12,64,111,29
12,62,105,43
12,64,81,166
12,71,97,6
12,71,99,14
12,71,105,24
12,69,90,48
12,69,103,22
12,67,85,48
12,69,103,28
12,67,69,49
12,71,107,3
12,69,109,35
12,64,101,0
12,71,103,25
12,71,95,17
12,71,111,3
12,71,105,21
12,70,119,25
12,67,115,3
12,62,113,16
12,71,113,14
12,67,111,0
12,71,109,8
12,69,111,29
12,67,105,96
12,71,109,3
12,67,111,3
12,71,107,16
12,62,101,154
12,57,85,0
12,62,95,14
12,57,71,0
12,57,83,14
12,62,97,0
12,62,101,8
12,57,89,2
12,62,92,12
12,57,72,0
12,57,103,22
12,62,111,0
12,57,69,358
12,62,72,2
12,57,35,11
12,62,81,2
12,57,76,10
12,62,92,0
12,57,66,21
12,62,86,0
12,57,72,18
12,62,97,0
12,57,109,27
12,62,115,3
12,57,69,358
12,62,72,2
12,57,35,11
12,62,81,2
12,57,76,10
12,62,92,0
12,57,66,21
12,62,86,0
12,57,72,18
12,62,97,0
12,57,109,27
12,62,115,3
12,57,69,358
12,62,72,2
12,57,35,11
12,62,81,2
12,57,76,10
12,62,92,0
12,57,66,21
12,62,86,0
12,57,72,18
12,62,97,0
12,57,109,27
12,62,115,3
12,71,119,14
12,71,117,7
12,71,119,45
12,67,111,97
12,59,80,8
12,71,121,4
12,71,109,26
12,71,117,5
12,67,115,8
12,59,89,5
12,71,117,6
12,59,103,4
12,59,109,9
12,61,107,78
12,62,109,5
12,59,107,3
12,59,99,5
12,61,99,88
12,62,103,3
12,71,86,3
12,64,82,16
12,71,90,13
12,69,109,26
12,64,103,16
12,69,81,83
12,69,113,13
12,69,81,7
12,69,90,21
12,69,87,12
12,71,113,4
12,69,103,69
12,67,95,91
12,62,103,91
13,40,123,718
13,40,115,0
13,40,125,64
13,40,119,26
13,40,126,25
13,45,123,27
13,45,125,31
13,43,121,29
13,43,126,27
13,36,121,30
13,49,117,8
13,36,119,53
13,42,111,5
13,42,113,15
13,40,119,1
13,42,90,20
13,42,113,81
13,36,123,2
13,42,90,7
13,36,119,32
13,42,109,46
13,36,113,38
13,42,87,2
13,40,125,6
13,42,99,36
13,42,115,2
13,36,119,1
13,36,109,37
13,42,103,0
13,40,125,14
13,42,113,3
13,42,90,23
13,42,107,83
13,36,121,4
13,42,90,15
13,36,115,37
13,42,113,6
13,36,123,54
13,42,113,47
13,36,121,85
13,49,115,8
13,36,119,61
13,42,103,10
13,40,119,22
13,42,117,10
13,42,103,22
13,36,119,75
13,42,107,6
13,42,105,18
13,36,117,39
13,42,99,4
13,36,123,51
13,42,119,3
13,36,121,84
13,49,113,1
13,36,117,64
13,42,107,3
13,40,123,26
13,42,113,2
13,42,99,24
13,36,115,82
13,42,111,0
13,42,90,14
13,36,119,38
13,42,101,2
13,36,123,56
13,42,109,0
13,36,117,64
13,49,115,0
13,36,117,53
13,42,109,0
13,40,119,27
13,42,107,0
13,42,101,11
13,36,119,75
13,42,109,3
13,42,107,19
13,36,123,30
13,42,107,48
13,36,113,33
13,42,86,11
13,40,123,4
13,36,119,13
13,42,115,0
13,42,85,51
13,36,119,3
13,40,117,29
13,42,113,3
13,42,97,24
13,36,117,83
13,42,111,2
13,42,90,14
13,36,117,37
13,42,105,48
13,36,109,34
13,40,119,8
13,42,86,0
13,42,109,3
13,36,117,2
13,42,89,6
13,36,113,41
13,40,123,8
13,42,105,0
13,42,74,82
13,42,105,61
13,36,121,3
13,42,69,13
13,36,115,40
13,42,111,48
13,36,105,30
13,40,121,13
13,42,81,0
13,36,115,6
13,42,113,4
13,42,90,13
13,36,105,34
13,40,123,9
13,42,115,2
13,42,66,0
13,36,111,85
13,42,113,0
13,42,93,85
13,36,109,35
13,42,113,51
13,36,107,33
13,40,123,18
13,42,95,3
13,36,113,6
13,42,103,0
13,42,86,18
13,36,92,35
13,40,121,11
13,42,117,3
13,42,86,8
13,36,111,81
13,42,113,5
13,42,72,19
13,36,105,35
13,42,107,51
13,36,103,27
13,40,121,16
13,42,78,3
13,36,117,2
13,42,113,3
13,42,90,13
13,36,105,37
13,40,125,5
13,42,109,2
13,42,70,80
13,42,111,80
13,36,115,1
13,42,78,18
13,36,95,28
13,42,113,0
13,36,105,29
13,40,123,18
13,42,90,2
13,36,119,0
13,42,111,3
13,42,83,18
13,36,107,38
13,40,125,11
13,42,117,2
13,42,85,86
13,42,101,82
13,36,113,1
13,42,87,21
13,36,111,32
13,42,113,48
13,36,109,33
13,40,125,18
13,42,97,3
13,36,123,82
13,42,111,1
13,42,99,16
13,36,113,34
13,40,126,14
13,42,103,0
13,42,90,80
13,42,107,78
13,36,119,3
13,42,99,22
13,36,105,33
13,42,93,50
13,36,107,30
13,40,123,12
13,42,99,2
13,36,117,82
13,42,111,3
13,42,86,10
13,36,111,30
13,40,123,4
13,42,111,2
13,42,82,76
13,36,115,74
13,42,109,0
13,42,86,11
13,36,105,33
13,42,105,50
13,36,105,27
13,40,121,17
13,42,93,2
13,36,119,82
13,42,105,0
13,42,92,13
13,36,109,32
13,40,121,11
13,42,113,4
13,42,101,78
13,36,117,62
13,42,103,4
13,42,97,15
13,36,105,30
13,42,107,52
13,36,107,28
13,40,121,22
13,42,97,2
13,36,119,85
13,49,111,0
13,42,97,20
13,36,109,28
13,40,121,12
13,42,109,5
13,42,105,74
13,36,117,65
13,42,103,2
13,42,93,17
13,36,123,35
13,42,105,3
13,36,125,56
13,42,117,2
13,36,123,106
13,49,125,0
13,42,82,16
13,36,107,24
13,40,121,14
13,42,103,5
13,42,95,24
13,36,111,72
13,42,105,0
13,42,105,20
13,40,119,2
13,49,119,30
13,36,115,0
13,36,111,47
13,36,99,54
13,36,125,35
13,49,123,2
13,42,115,16
13,36,109,30
13,40,121,6
13,42,117,5
13,42,115,17
13,42,117,78
13,40,117,2
13,43,107,48
13,42,121,0
13,49,121,3
13,36,113,2
13,36,113,42
13,36,101,53
13,36,126,37
13,49,127,3
13,36,123,0
13,46,101,37
13,44,92,25
13,46,105,27
13,44,97,32
13,46,97,32
13,44,97,30
13,46,99,33
13,44,92,32
13,46,93,30
13,44,97,34
13,46,109,36
13,44,95,35
13,46,99,32
13,44,90,33
13,46,103,32
13,61,74,34
13,44,97,0
13,64,62,19
13,46,95,5
13,63,75,17
13,44,87,8
13,62,57,16
13,46,95,14
13,61,71,13
13,44,90,14
13,64,72,30
13,46,103,3
13,44,93,30
13,62,85,30
13,46,109,3
13,61,77,14
13,44,99,11
13,64,66,18
13,46,101,11
13,51,81,2
13,63,80,11
13,44,92,14
13,62,77,21
13,46,105,13
13,61,77,19
13,44,99,13
13,51,107,8
13,64,68,11
13,46,101,8
13,44,93,33
13,62,73,28
13,46,107,9
13,61,73,16
13,51,93,7
13,44,97,9
13,64,65,19
13,46,103,16
13,63,78,19
13,44,97,13
13,62,69,19
13,46,105,12
13,61,75,19
13,44,95,16
13,64,65,22
13,46,101,11
13,51,93,3
13,44,89,32
13,51,97,20
13,62,69,5
13,46,103,3
13,61,71,27
13,44,97,2
13,51,93,3
13,64,64,19
13,46,103,5
13,53,89,3
13,63,73,11
13,44,92,10
13,51,90,6
13,62,59,26
13,46,103,5
13,61,72,19
13,44,92,5
13,51,71,11
13,46,99,22
13,62,68,5
13,44,92,25
13,51,77,3
13,62,60,27
13,46,105,3
13,61,68,20
13,51,87,4
13,44,92,4
13,64,69,10
13,46,99,18
13,59,86,0
13,63,70,10
13,44,90,0
13,51,87,8
13,62,64,5
13,46,103,19
13,53,90,0
13,61,70,1
13,44,92,18
13,51,81,2
13,62,58,11
13,59,66,13
13,46,105,0
13,44,90,30
13,51,81,2
13,62,58,26
13,46,103,8
13,59,71,0
13,61,76,19
13,51,66,8
13,44,99,5
13,53,81,26
13,64,71,3
13,46,97,6
13,63,76,20
13,51,87,3
13,44,97,6
13,59,97,19
13,62,65,5
13,46,107,9
13,51,87,22
13,61,77,2
13,44,95,8
13,62,56,26
13,53,83,6
13,46,103,5
13,51,75,26
13,44,99,8
13,53,99,30
13,46,105,5
13,51,82,29
13,61,74,2
13,44,92,0
13,59,95,16
13,64,62,3
13,46,99,4
13,63,75,17
13,51,76,2
13,44,90,3
13,62,57,16
13,46,103,11
13,53,93,0
13,61,71,13
13,51,66,9
13,44,92,2
13,64,72,30
13,46,105,0
13,53,89,2
13,44,90,27
13,51,60,2
13,53,69,30
13,62,85,2
13,46,103,2
13,61,77,14
13,44,99,11
13,51,75,2
13,64,66,18
13,59,95,10
13,46,97,1
13,63,80,11
13,44,97,14
13,51,71,0
13,62,77,19
13,46,107,14
13,53,64,0
13,61,77,14
13,44,95,15
13,51,60,5
13,64,68,16
13,59,99,10
13,46,103,5
13,44,99,29
13,51,81,0
13,62,73,21
13,46,105,11
13,59,99,0
13,61,73,3
13,44,97,15
13,51,66,8
13,64,65,14
13,46,95,16
13,53,103,3
13,63,78,16
13,44,87,13
13,51,78,0
13,62,69,12
13,46,95,13
13,59,101,3
13,61,75,8
13,51,71,13
13,44,90,3
13,64,65,24
13,59,82,8
13,46,103,3
13,51,82,29
13,44,93,1
13,53,99,0
13,62,69,1
13,46,109,8
13,51,68,16
13,61,71,11
13,44,99,0
13,53,107,13
13,64,64,6
13,46,101,3
13,63,73,17
13,51,77,0
13,44,92,8
13,59,90,20
13,62,59,10
13,46,105,2
13,61,72,19
13,51,77,2
13,44,99,1
13,53,80,21
13,46,101,1
13,62,68,5
13,51,60,20
13,44,93,5
13,62,60,34
13,53,87,2
13,46,107,1
13,61,68,18
13,44,97,9
13,51,83,0
13,64,69,10
13,59,93,10
13,46,103,9
13,63,70,8
13,44,97,3
13,51,78,0
13,62,64,10
13,46,105,21
13,53,83,0
13,61,70,9
13,51,64,20
13,44,95,0
13,62,58,11
13,46,101,3
13,53,92,0
13,51,92,25
13,44,89,5
13,62,58,24
13,53,103,6
13,46,103,3
13,61,76,20
13,51,90,13
13,44,97,2
13,64,71,27
13,59,86,0
13,46,103,8
13,63,76,20
13,51,76,6
13,44,92,5
13,62,65,24
13,53,72,3
13,46,103,8
13,61,77,26
13,51,77,1
13,44,92,7
13,53,77,20
13,62,56,4
13,46,99,0
13,44,92,30
13,51,76,0
13,59,95,25
13,46,105,5
13,61,74,31
13,44,92,0
13,51,81,4
13,64,62,19
13,46,99,4
13,53,92,3
13,63,75,17
13,44,90,5
13,51,77,3
13,62,57,16
13,46,103,11
13,53,76,8
13,61,71,13
13,44,92,11
13,51,76,6
13,64,72,30
13,46,105,0
13,53,76,5
13,44,90,24
13,51,74,11
13,62,85,26
13,46,103,2
13,59,95,3
13,61,77,14
13,44,99,11
13,51,73,7
13,64,66,18
13,53,73,8
13,46,97,3
13,63,80,18
13,51,70,13
13,44,97,1
13,62,77,19
13,46,107,14
13,53,80,5
13,61,77,16
13,44,95,15
13,51,68,0
13,64,68,19
13,46,103,15
13,53,80,0
13,44,99,34
13,51,71,0
13,62,73,24
13,59,93,8
13,46,105,3
13,61,73,11
13,44,97,15
13,51,80,4
13,64,65,17
13,53,80,15
13,46,95,1
13,63,78,16
13,44,87,13
13,51,73,0
13,62,69,17
13,46,95,13
13,53,80,2
13,61,75,9
13,44,90,16
13,51,73,2
13,64,65,22
13,46,103,11
13,53,78,2
13,44,93,29
13,51,71,5
13,62,69,22
13,59,97,2
13,46,109,6
13,51,83,26
13,61,71,1
13,44,99,0
13,64,64,19
13,53,80,0
13,46,101,3
13,63,73,17
13,44,92,8
13,51,73,2
13,62,59,30
13,53,77,0
13,46,105,2
13,51,82,14
13,61,72,5
13,44,99,3
13,59,95,11
13,46,101,11
13,62,68,5
13,51,92,20
13,44,93,5
13,53,87,28
13,62,60,6
13,46,107,3
13,61,68,20
13,51,89,3
13,44,97,6
13,64,69,10
13,59,101,8
13,46,103,11
13,63,70,10
13,51,89,16
13,44,97,3
13,62,64,10
13,53,87,14
13,46,105,7
13,61,70,14
13,51,89,16
13,44,95,0
13,62,58,12
13,59,97,12
13,46,101,3
13,51,93,29
13,44,89,3
13,62,58,24
13,53,95,1
13,46,103,8
13,61,76,20
13,51,107,5
13,44,97,10
13,64,71,27
13,46,103,8
