track,note,velocity,time
1,45,95,4224
1,48,95,384
1,45,79,8
1,48,94,196
1,49,87,4
1,50,90,4
1,43,86,192
1,43,73,106
1,43,91,146
1,45,91,186
1,48,102,180
1,45,92,12
1,43,86,382
1,45,87,196
1,43,98,432
1,45,87,198
1,52,98,586
1,45,90,0
1,52,83,42
1,45,68,0
1,45,71,112
1,52,73,0
1,50,94,112
1,57,81,0
1,45,79,152
1,52,94,2
1,45,102,3142
1,48,98,6
1,45,80,6
1,48,97,194
1,49,93,158
1,50,80,170
1,43,95,174
1,43,94,116
1,43,97,120
1,45,90,192
1,48,102,182
1,45,95,10
1,43,80,384
1,45,90,192
1,43,80,344
1,45,90,200
1,52,94,534
1,45,92,4
1,52,74,54
1,45,74,120
1,52,80,0
1,57,86,122
1,50,90,0
1,52,88,156
1,45,80,0
1,66,104,52
1,57,95,0
1,62,102,0
1,66,56,178
1,62,68,0
1,57,54,4
1,57,94,116
1,66,107,0
1,62,100,0
1,57,80,244
1,62,87,0
1,66,82,0
1,66,113,178
1,57,91,0
1,62,106,0
1,66,58,186
1,62,64,6
1,57,52,0
1,66,101,118
1,57,86,0
1,62,97,6
1,57,90,420
1,61,110,0
1,64,84,0
1,64,72,192
1,57,66,0
1,61,56,6
1,64,86,130
1,61,95,0
1,57,80,0
1,64,87,280
1,62,114,0
1,57,90,0
1,64,104,180
1,62,110,0
1,57,94,0
1,64,59,188
1,61,54,0
1,64,95,118
1,57,87,0
1,61,99,0
1,66,101,396
1,57,92,4
1,62,98,0
1,57,66,250
1,62,78,0
1,66,64,0
1,66,95,134
1,57,90,0
1,62,100,0
1,57,81,260
1,62,91,0
1,66,79,0
1,57,98,162
1,66,116,0
1,62,106,0
1,66,66,164
1,57,68,4
1,62,61,2
1,66,110,124
1,57,102,0
1,62,104,4
1,64,104,444
1,59,97,0
1,52,104,0
1,59,81,2784
1,52,81,4
1,52,69,84
1,59,64,0
1,52,60,102
1,59,62,0
1,52,51,80
1,59,58,0
1,52,64,84
1,59,62,0
1,52,56,64
1,59,60,4
1,52,70,66
1,59,66,0
1,52,70,64
1,59,72,0
1,52,80,84
1,59,81,0
1,52,80,82
1,59,84,0
1,52,81,96
1,59,92,0
1,52,85,86
1,59,87,0
1,52,87,84
1,59,95,2
1,59,97,86
1,52,100,0
1,58,53,10
1,59,85,88
1,52,104,0
1,58,72,8
1,59,102,92
1,52,108,0
1,45,95,92
1,48,95,384
1,45,79,8
1,48,94,196
1,49,87,4
1,50,90,4
1,43,86,192
1,43,73,106
1,43,91,146
1,45,91,186
1,48,102,180
1,45,92,12
1,43,86,382
1,45,87,196
1,43,98,432
1,45,87,198
1,52,98,586
1,45,90,0
1,52,83,42
1,45,68,0
1,45,71,112
1,52,73,0
1,50,94,112
1,57,81,0
1,45,79,152
1,52,94,2
1,43,95,3138
1,45,87,200
1,43,98,432
1,45,87,198
1,52,98,586
1,45,90,0
1,52,83,42
1,45,68,0
1,45,71,112
1,52,73,0
1,50,94,112
1,57,81,0
1,45,79,152
1,52,94,2
1,43,102,3142
1,45,90,192
1,43,80,344
1,45,90,200
1,52,94,534
1,45,92,4
1,52,74,54
1,45,74,120
1,52,80,0
1,57,86,122
1,50,90,0
1,52,88,156
1,45,80,0
1,66,104,52
1,57,95,0
1,62,102,0
1,66,56,178
1,62,68,0
1,57,54,4
1,57,94,116
1,66,107,0
1,62,100,0
1,57,80,244
1,62,87,0
1,66,82,0
1,66,113,178
1,57,91,0
1,62,106,0
1,66,58,186
1,62,64,6
1,57,52,0
1,66,101,118
1,57,86,0
1,62,97,6
1,57,90,420
1,61,110,0
1,64,84,0
1,64,72,192
1,57,66,0
1,61,56,6
1,64,86,130
1,61,95,0
1,57,80,0
1,64,87,280
1,62,114,0
1,57,90,0
1,64,104,180
1,62,110,0
1,57,94,0
1,64,59,188
1,61,54,0
1,64,95,118
1,57,87,0
1,61,99,0
1,66,101,396
1,57,92,4
1,62,98,0
1,57,66,250
1,62,78,0
1,66,64,0
1,66,95,134
1,57,90,0
1,62,100,0
1,57,81,260
1,62,91,0
1,66,79,0
1,57,98,162
1,66,116,0
1,62,106,0
1,66,66,164
1,57,68,4
1,62,61,2
1,66,110,124
1,57,102,0
1,62,104,4
1,64,104,444
1,59,97,0
1,52,104,0
1,45,95,3080
1,48,95,384
1,45,79,8
1,48,94,196
1,49,87,4
1,50,90,4
1,43,86,192
1,43,73,106
1,43,91,146
1,45,91,186
1,48,102,180
1,45,92,12
1,43,86,382
1,45,87,196
1,43,98,432
1,45,87,198
1,52,98,586
1,45,90,0
1,52,83,42
1,45,68,0
1,45,71,112
1,52,73,0
1,50,94,112
1,57,81,0
1,45,79,152
1,52,94,2
1,45,102,3142
1,48,98,6
1,45,80,6
1,48,97,194
1,49,93,158
1,50,80,170
1,43,95,174
1,43,94,116
1,43,97,120
1,45,90,192
1,48,102,182
1,45,95,10
1,43,80,384
1,45,90,192
1,43,80,344
1,45,90,200
1,52,94,534
1,45,92,4
1,52,74,54
1,45,74,120
1,52,80,0
1,57,86,122
1,50,90,0
1,52,88,156
1,45,80,0
1,66,104,52
1,57,95,0
1,62,102,0
1,66,56,178
1,62,68,0
1,57,54,4
1,57,94,116
1,66,107,0
1,62,100,0
1,57,80,244
1,62,87,0
1,66,82,0
1,66,113,178
1,57,91,0
1,62,106,0
1,66,58,186
1,62,64,6
1,57,52,0
1,66,101,118
1,57,86,0
1,62,97,6
1,57,90,420
1,61,110,0
1,64,84,0
1,64,72,192
1,57,66,0
1,61,56,6
1,64,86,130
1,61,95,0
1,57,80,0
1,64,87,280
1,62,114,0
1,57,90,0
1,64,104,180
1,62,110,0
1,57,94,0
1,64,59,188
1,61,54,0
1,64,95,118
1,57,87,0
1,61,99,0
1,66,101,396
1,57,92,4
1,62,98,0
1,57,66,250
1,62,78,0
1,66,64,0
1,66,95,134
1,57,90,0
1,62,100,0
1,57,81,260
1,62,91,0
1,66,79,0
1,57,98,162
1,66,116,0
1,62,106,0
1,66,66,164
1,57,68,4
1,62,61,2
1,66,110,124
1,57,102,0
1,62,104,4
1,64,104,444
1,59,97,0
1,52,104,0
1,59,81,2784
1,52,81,4
1,52,69,84
1,59,64,0
1,52,60,102
1,59,62,0
1,52,51,80
1,59,58,0
1,52,64,84
1,59,62,0
1,52,56,64
1,59,60,4
1,52,70,66
1,59,66,0
1,52,70,64
1,59,72,0
1,52,80,84
1,59,81,0
1,52,80,82
1,59,84,0
1,52,81,96
1,59,92,0
1,52,85,86
1,59,87,0
1,52,87,84
1,59,95,2
1,59,97,86
1,52,100,0
1,58,53,10
1,59,85,88
1,52,104,0
1,58,72,8
1,59,102,92
1,52,108,0
1,45,95,92
1,48,95,384
1,45,79,8
1,48,94,196
1,49,87,4
1,50,90,4
1,43,86,192
1,43,73,106
1,43,91,146
1,45,91,186
1,48,102,180
1,45,92,12
1,43,86,382
1,45,87,196
1,43,98,432
1,45,87,198
1,52,98,586
1,45,90,0
1,52,83,42
1,45,68,0
1,45,71,112
1,52,73,0
1,50,94,112
1,57,81,0
1,45,79,152
1,52,94,2
1,43,95,3138
1,45,87,200
1,43,98,432
1,45,87,198
1,52,98,586
1,45,90,0
1,52,83,42
1,45,68,0
1,45,71,112
1,52,73,0
1,50,94,112
1,57,81,0
1,45,79,152
1,52,94,2
1,43,102,3142
1,45,90,192
1,43,80,344
1,45,90,200
1,52,94,534
1,45,92,4
1,52,74,54
1,45,74,120
1,52,80,0
1,57,86,122
1,50,90,0
1,52,88,156
1,45,80,0
1,66,104,52
1,57,95,0
1,62,102,0
1,66,56,178
1,62,68,0
1,57,54,4
1,57,94,116
1,66,107,0
1,62,100,0
1,57,80,244
1,62,87,0
1,66,82,0
1,66,113,178
1,57,91,0
1,62,106,0
1,66,58,186
1,62,64,6
1,57,52,0
1,66,101,118
1,57,86,0
1,62,97,6
1,57,90,420
1,61,110,0
1,64,84,0
1,64,72,192
1,57,66,0
1,61,56,6
1,64,86,130
1,61,95,0
1,57,80,0
1,64,87,280
1,62,114,0
1,57,90,0
1,64,104,180
1,62,110,0
1,57,94,0
1,64,59,188
1,61,54,0
1,64,95,118
1,57,87,0
1,61,99,0
1,66,101,396
1,57,92,4
1,62,98,0
1,57,66,250
1,62,78,0
1,66,64,0
1,66,95,134
1,57,90,0
1,62,100,0
1,57,81,260
1,62,91,0
1,66,79,0
1,57,98,162
1,66,116,0
1,62,106,0
1,66,66,164
1,57,68,4
1,62,61,2
1,66,110,124
1,57,102,0
1,62,104,4
1,64,104,444
1,59,97,0
1,52,104,0
1,59,81,372
1,52,81,4
1,52,69,84
1,59,64,0
1,52,60,102
1,59,62,0
1,52,51,80
1,59,58,0
1,52,64,84
1,59,62,0
1,52,56,64
1,59,60,4
1,52,70,66
1,59,66,0
1,52,70,64
1,59,72,0
1,52,80,84
1,59,81,0
1,52,80,82
1,59,84,0
1,52,81,96
1,59,92,0
1,52,85,86
1,59,87,0
1,52,87,84
1,59,95,2
1,59,97,86
1,52,100,0
1,58,53,10
1,59,103,88
1,52,104,0
1,58,72,8
1,59,102,92
1,52,108,0
1,45,95,92
1,48,95,384
1,45,79,8
1,48,94,196
1,49,87,4
1,50,90,4
1,43,86,192
1,43,73,106
1,43,91,146
1,45,91,186
1,48,102,180
1,45,92,12
1,43,86,382
1,45,87,196
1,43,98,432
1,45,87,198
1,52,98,586
1,45,90,0
1,52,83,42
1,45,68,0
1,45,71,112
1,52,73,0
1,50,94,112
1,57,81,0
1,45,79,152
1,52,94,2
1,45,95,66
1,48,95,384
1,45,79,8
1,48,94,196
1,49,87,4
1,50,90,4
1,43,86,192
1,43,73,106
1,43,91,146
1,45,91,186
1,48,102,180
1,45,92,12
1,43,86,382
1,45,87,196
1,43,98,432
1,45,87,198
1,52,98,586
1,45,90,0
1,52,83,42
1,45,68,0
1,45,71,112
1,52,73,0
1,50,94,112
1,57,81,0
1,45,79,152
1,52,94,2
1,45,95,66
1,48,95,384
1,45,79,8
1,48,94,196
1,49,87,4
1,50,90,4
1,43,86,192
1,43,73,106
1,43,91,146
1,45,91,186
1,48,102,180
1,45,92,12
1,43,86,382
1,45,87,196
1,43,98,432
1,45,87,198
1,52,98,586
1,45,90,0
1,52,83,42
1,45,68,0
1,45,71,112
1,52,73,0
1,50,94,112
1,57,81,0
1,45,79,152
1,52,94,2
2,33,97,1162
2,33,90,60
2,33,87,86
2,33,85,82
2,33,97,84
2,33,95,90
2,33,91,90
2,33,87,106
2,33,73,106
2,33,90,118
2,36,95,384
2,33,75,174
2,36,95,184
2,37,85,26
2,38,86,2
2,31,98,192
2,31,78,70
2,31,84,92
2,33,92,192
2,36,92,176
2,33,100,354
2,31,95,374
2,33,102,190
2,31,100,420
2,33,92,188
2,33,102,532
2,33,68,52
2,33,87,98
2,38,97,192
2,33,95,368
2,33,79,108
2,33,87,44
2,33,80,92
2,33,85,98
2,33,91,90
2,33,85,92
2,33,84,86
2,33,84,92
2,33,76,108
2,33,92,128
2,36,80,384
2,33,88,172
2,36,92,6
2,37,81,18
2,38,78,20
2,31,97,194
2,31,85,64
2,31,88,102
2,33,87,192
2,36,91,170
2,33,100,0
2,31,97,380
2,33,104,170
2,31,94,394
2,33,94,192
2,33,102,556
2,33,69,50
2,33,80,82
2,38,108,196
2,33,98,374
2,38,90,110
2,38,94,74
2,45,56,148
2,45,74,80
2,50,93,16
2,42,84,48
2,43,75,64
2,43,79,112
2,44,104,42
2,45,98,6
2,33,91,32
2,38,86,194
2,40,87,0
2,33,73,188
2,33,85,54
2,40,63,182
2,45,100,196
2,45,98,76
2,43,65,154
2,43,100,122
2,40,102,156
2,38,90,22
2,33,80,16
2,36,90,196
2,38,97,4
2,30,77,188
2,31,80,6
2,32,87,4
2,33,80,194
2,34,93,194
2,35,70,176
2,36,80,198
2,37,85,0
2,38,97,192
2,33,60,182
2,38,95,14
2,39,101,16
2,40,104,16
2,28,86,2828
2,28,58,74
2,28,57,106
2,28,55,86
2,28,57,102
2,28,59,90
2,28,62,96
2,28,70,90
2,28,67,92
2,28,61,84
2,28,77,102
2,28,83,102
2,28,100,100
2,28,85,92
2,28,114,100
2,28,122,88
2,33,90,86
2,36,95,384
2,33,75,174
2,36,95,184
2,37,85,26
2,38,86,2
2,31,98,192
2,31,78,70
2,31,84,92
2,33,92,192
2,36,92,176
2,33,100,354
2,31,95,374
2,33,102,190
2,31,100,420
2,33,92,188
2,33,102,532
2,33,68,52
2,33,87,98
2,38,97,192
2,33,95,368
2,33,97,118
2,33,90,60
2,33,87,86
2,33,85,82
2,33,97,84
2,33,95,90
2,33,91,90
2,33,87,106
2,33,73,106
2,31,117,126
2,33,102,192
2,31,100,420
2,33,92,188
2,33,102,532
2,33,68,52
2,33,87,98
2,38,97,192
2,33,95,368
2,33,79,108
2,33,87,44
2,33,80,92
2,33,85,98
2,33,91,90
2,33,85,92
2,33,84,86
2,33,84,92
2,33,76,108
2,31,92,128
2,33,104,196
2,31,94,394
2,33,94,192
2,33,102,556
2,33,69,50
2,33,80,82
2,38,108,196
2,33,98,374
2,38,90,110
2,38,94,74
2,45,56,148
2,45,74,80
2,50,93,16
2,42,84,48
2,43,75,64
2,43,79,112
2,44,104,42
2,45,98,6
2,33,91,32
2,38,86,194
2,40,87,0
2,33,73,188
2,33,85,54
2,40,63,182
2,45,100,196
2,45,98,76
2,43,65,154
2,43,100,122
2,40,102,156
2,38,90,22
2,33,80,16
2,36,90,196
2,38,97,4
2,30,77,188
2,31,80,6
2,32,87,4
2,33,80,194
2,34,93,194
2,35,70,176
2,36,80,198
2,37,85,0
2,38,97,192
2,33,60,182
2,38,95,14
2,39,101,16
2,40,104,16
2,33,97,4370
2,33,90,60
2,33,87,86
2,33,85,82
2,33,97,84
2,33,95,90
2,33,91,90
2,33,87,106
2,33,73,106
2,33,90,118
2,36,95,384
2,33,75,174
2,36,95,184
2,37,85,26
2,38,86,2
2,31,98,192
2,31,78,70
2,31,84,92
2,33,92,192
2,36,92,176
2,33,100,354
2,31,95,374
2,33,102,190
2,31,100,420
2,33,92,188
2,33,102,532
2,33,68,52
2,33,87,98
2,38,97,192
2,33,95,368
2,33,79,108
2,33,87,44
2,33,80,92
2,33,85,98
2,33,91,90
2,33,85,92
2,33,84,86
2,33,84,92
2,33,76,108
2,33,92,128
2,36,80,384
2,33,88,172
2,36,92,6
2,37,81,18
2,38,78,20
2,31,97,194
2,31,85,64
2,31,88,102
2,33,87,192
2,36,91,170
2,33,100,0
2,31,97,380
2,33,104,170
2,31,94,394
2,33,94,192
2,33,102,556
2,33,69,50
2,33,80,82
2,38,108,196
2,33,98,374
2,38,90,110
2,38,94,74
2,45,56,148
2,45,74,80
2,50,93,16
2,42,84,48
2,43,75,64
2,43,79,112
2,44,104,42
2,45,98,6
2,33,91,32
2,38,86,194
2,40,87,0
2,33,73,188
2,33,85,54
2,40,63,182
2,45,100,196
2,45,98,76
2,43,65,154
2,43,100,122
2,40,102,156
2,38,90,22
2,33,80,16
2,36,90,196
2,38,97,4
2,30,77,188
2,31,80,6
2,32,87,4
2,33,80,194
2,34,93,194
2,35,70,176
2,36,80,198
2,37,85,0
2,38,97,192
2,33,60,182
2,38,95,14
2,39,101,16
2,40,104,16
2,28,86,2828
2,28,58,74
2,28,57,106
2,28,55,86
2,28,57,102
2,28,59,90
2,28,62,96
2,28,70,90
2,28,67,92
2,28,61,84
2,28,77,102
2,28,83,102
2,28,100,100
2,28,85,92
2,28,114,100
2,28,122,88
2,33,90,86
2,36,95,384
2,33,75,174
2,36,95,184
2,37,85,26
2,38,86,2
2,31,98,192
2,31,78,70
2,31,84,92
2,33,92,192
2,36,92,176
2,33,100,354
2,31,95,374
2,33,102,190
2,31,100,420
2,33,92,188
2,33,102,532
2,33,68,52
2,33,87,98
2,38,97,192
2,33,95,368
2,33,97,118
2,33,90,60
2,33,87,86
2,33,85,82
2,33,97,84
2,33,95,90
2,33,91,90
2,33,87,106
