track,note,velocity,time
0,57,49,239
0,69,103,0
0,64,76,48
0,57,31,0
0,69,58,0
0,60,91,48
0,64,45,0
0,69,70,36
0,60,52,0
0,56,91,36
0,71,97,0
0,69,42,0
0,64,40,37
0,56,52,0
0,71,55,0
0,60,88,42
0,64,27,0
0,71,79,3
0,60,51,0
0,55,76,3
0,72,91,0
0,71,46,0
0,64,43,24
0,55,45,0
0,72,52,0
0,60,91,39
0,64,28,0
0,72,97,1
0,60,52,0
0,54,79,1
0,66,100,0
0,72,55,0
0,62,79,46
0,54,46,0
0,66,57,0
0,57,79,9
0,62,46,0
0,64,76,9
0,57,46,0
0,53,85,0
0,57,109,0
0,64,94,0
0,64,45,0
0,60,73,0
0,53,49,0
0,57,61,0
0,64,54,0
0,57,82,41
0,60,43,0
0,60,82,41
0,57,48,0
0,60,48,34
0,64,64,1
0,60,82,0
0,64,39,0
0,57,100,0
0,60,48,0
0,43,85,5
0,50,97,0
0,55,64,0
0,59,103,0
0,55,90,0
0,57,57,0
0,64,1,16
0,45,1,1
0,52,97,0
0,57,52,0
0,60,79,0
0,57,98,0
0,43,49,0
0,50,55,0
0,55,39,0
0,59,58,0
0,64,7,16
0,45,7,1
0,52,55,0
0,57,33,0
0,60,46,0
0,45,61,0
0,53,88,6
0,45,37,0
0,53,51,0
0,57,97,0
0,69,100,0
0,64,90,0
0,72,90,0
0,76,90,0
0,64,70,0
0,57,55,0
0,69,57,0
0,60,76,48
0,64,42,0
0,69,79,39
0,60,45,0
0,56,91,5
0,71,79,0
0,69,46,0
0,64,67,5
0,56,52,0
0,71,46,0
0,60,88,40
0,64,40,0
0,71,79,9
0,60,51,0
0,55,82,4
0,72,85,0
0,64,58,0
0,69,100,0
0,72,79,0
0,71,46,0
0,64,49,28
0,55,48,0
0,72,49,0
0,60,88,40
0,64,31,0
0,72,76,1
0,60,51,0
0,54,79,14
0,66,91,0
0,60,90,0
0,72,45,0
0,62,82,0
0,54,46,0
0,66,52,0
0,57,82,5
0,62,48,0
0,64,82,5
0,57,48,0
0,53,67,2
0,57,94,0
0,64,79,0
0,60,84,0
0,65,84,0
0,69,84,0
0,72,84,0
0,64,48,0
0,60,88,0
0,53,40,0
0,57,54,0
0,64,46,0
0,57,79,0
0,60,51,0
0,60,79,39
0,57,46,0
0,60,46,39
0,64,70,48
0,60,97,39
0,64,42,0
0,57,112,3
0,60,55,0
0,43,67,0
0,50,97,0
0,59,94,0
0,59,82,0
0,71,79,0
0,74,61,0
0,57,63,0
0,45,91,0
0,52,61,0
0,57,79,0
0,60,85,0
0,57,94,0
0,72,76,0
0,76,82,0
0,43,40,0
0,50,55,0
0,59,54,0
0,45,88,0
0,52,101,0
0,57,101,0
0,60,101,0
0,57,97,0
0,72,76,0
0,76,94,0
0,45,52,0
0,52,37,0
0,57,46,0
0,60,49,0
0,45,51,0
0,52,57,0
0,57,57,0
0,60,57,0
0,45,97,22
0,47,103,2
0,45,55,0
0,48,91,2
0,67,97,0
0,72,85,0
0,76,88,0
0,47,58,0
0,55,103,41
0,48,52,0
0,60,91,41
0,55,58,0
0,64,73,48
0,60,52,0
0,50,82,0
0,57,85,0
0,66,94,0
0,69,97,0
0,74,82,0
0,78,61,0
0,64,43,0
0,62,76,0
0,50,48,0
0,57,49,0
0,66,54,0
0,57,91,5
0,62,45,0
0,59,61,45
0,57,52,0
0,53,67,3
0,57,52,0
0,60,94,0
0,72,100,0
0,77,82,0
0,81,64,0
0,59,37,0
0,57,88,8
0,53,40,0
0,57,33,0
0,60,54,0
0,64,76,0
0,71,103,0
0,76,72,0
0,79,72,0
0,57,51,0
0,60,70,0
0,69,91,0
0,74,75,0
0,77,75,0
0,64,45,0
0,43,16,0
0,59,112,0
0,71,91,0
0,72,90,0
0,76,90,0
0,60,42,0
0,45,91,3
0,60,97,0
0,69,97,0
0,57,73,5
0,43,15,0
0,59,63,0
0,45,52,17
0,60,55,0
0,60,85,11
0,57,43,0
0,47,79,0
0,59,88,0
0,62,97,0
0,74,78,0
0,79,78,0
0,60,49,0
0,48,82,0
0,60,109,0
0,64,106,0
0,67,97,0
0,76,95,0
0,79,95,0
0,47,46,0
0,59,51,0
0,62,55,0
0,55,79,0
0,48,48,0
0,60,61,0
0,64,60,0
0,60,88,0
0,55,46,0
0,67,79,48
0,60,51,0
0,43,55,0
0,59,79,0
0,71,109,0
0,74,82,0
0,79,85,0
0,67,46,0
0,55,85,1
0,43,34,0
0,59,46,0
0,67,88,1
0,55,49,0
0,62,70,1
0,67,51,0
0,57,97,1
0,62,109,0
0,67,97,0
0,64,103,0
0,74,28,0
0,79,79,0
0,62,42,0
0,66,82,0
0,66,100,0
0,78,61,0
0,57,55,0
0,62,61,0
0,67,55,0
0,50,104,0
0,57,104,0
0,62,104,0
0,66,104,0
0,66,103,0
0,69,37,0
0,66,48,0
0,50,59,39
0,57,59,0
0,62,59,0
0,66,59,0
0,45,109,0
0,47,97,0
0,45,61,0
0,48,85,41
0,60,94,1
0,72,109,0
0,76,109,0
0,47,55,0
0,60,91,0
0,48,49,44
0,55,91,1
0,60,94,3
0,64,97,0
0,81,106,0
0,55,52,0
0,64,79,2
0,67,88,0
0,79,79,0
0,60,54,0
0,50,94,1
0,62,91,0
0,62,97,0
0,69,106,0
0,74,7,0
0,64,46,0
0,57,79,1
0,78,91,0
0,50,54,0
0,62,52,0
0,66,91,1
0,64,97,0
0,76,109,0
0,57,46,0
0,66,100,1
0,74,97,0
0,66,52,0
0,53,82,4
0,60,82,0
0,69,106,0
0,72,94,0
0,77,91,0
0,81,109,0
0,57,94,4
0,53,48,0
0,60,48,0
0,64,88,2
0,67,94,0
0,84,97,0
0,57,54,0
0,60,79,2
0,65,103,0
0,74,88,0
0,79,97,0
0,83,70,0
0,64,51,0
0,43,58,3
0,59,97,0
0,64,106,0
0,76,94,0
0,81,103,0
0,84,76,0
0,60,46,0
0,45,88,1
0,60,61,0
0,57,88,3
0,43,36,0
0,59,55,0
0,45,51,19
0,60,37,0
0,60,82,1
0,84,88,0
0,57,51,0
0,47,85,3
0,62,91,0
0,67,100,0
0,83,109,0
0,86,85,0
0,60,48,0
0,48,97,4
0,60,100,0
0,64,91,0
0,67,94,0
0,79,97,0
0,84,100,0
0,88,82,0
0,47,49,0
0,62,52,0
0,55,79,1
0,48,55,0
0,60,57,0
0,64,52,0
0,60,85,1
0,55,46,0
0,64,85,3
0,60,49,0
0,50,97,3
0,62,85,0
0,67,100,0
0,78,100,0
0,81,7,0
0,86,82,0
0,64,49,0
0,57,82,3
0,50,55,0
0,62,49,0
0,66,88,0
0,66,94,0
0,57,48,0
0,62,70,5
0,66,51,0
0,53,82,0
0,57,79,0
0,60,76,0
0,64,88,0
0,64,100,0
0,72,87,0
0,76,87,0
0,79,87,0
0,62,42,0
0,53,40,0
0,57,43,0
0,60,61,0
0,64,37,0
0,65,106,0
0,72,95,0
0,76,95,0
0,81,95,0
0,53,48,0
0,57,46,0
0,60,45,0
0,64,51,0
0,53,73,20
0,57,67,0
0,60,55,0
0,64,52,0
0,65,100,0
0,72,95,0
0,76,95,0
0,81,95,0
0,53,27,0
0,57,28,0
0,60,37,0
0,64,25,0
0,53,34,0
0,57,73,0
0,60,70,0
0,64,85,0
0,65,103,0
0,72,107,0
0,76,107,0
0,81,107,0
0,53,43,0
0,57,40,0
0,60,34,0
0,64,33,0
0,53,24,31
0,57,43,0
0,60,42,0
0,64,49,0
0,69,63,96
0,71,73,24
0,57,49,13
0,69,103,0
0,72,63,0
0,64,76,36
0,57,31,0
0,69,58,0
0,60,91,5
0,64,45,0
0,71,77,9
0,69,70,17
0,69,74,0
0,60,52,0
0,56,91,11
0,71,97,0
0,71,68,0
0,69,42,0
0,64,40,37
0,56,52,0
0,71,55,0
0,60,88,42
0,64,27,0
0,71,79,2
0,69,78,0
0,60,51,0
0,71,80,0
0,55,76,3
0,72,91,0
0,72,78,0
0,71,46,0
0,64,43,24
0,55,45,0
0,72,52,0
0,60,91,4
0,64,28,0
0,72,97,1
0,60,52,0
0,54,79,1
0,66,100,0
0,71,74,0
0,72,55,0
0,69,58,22
0,62,79,22
0,54,46,0
0,66,57,0
0,57,79,4
0,62,46,0
0,64,76,0
0,72,88,0
0,57,46,0
0,74,77,1
0,53,85,0
0,57,109,0
0,64,94,0
0,64,45,0
0,60,73,0
0,53,49,0
0,57,61,0
0,64,54,0
0,57,82,3
0,60,43,0
0,60,82,41
0,72,72,0
0,57,48,0
0,71,78,34
0,60,48,0
0,64,64,1
0,69,51,0
0,60,82,0
0,64,39,0
0,57,100,0
0,67,55,0
0,60,48,0
0,43,85,5
0,50,97,0
0,55,64,0
0,59,103,0
0,67,71,0
0,57,57,0
0,64,1,16
0,45,1,1
0,52,97,0
0,57,52,0
0,60,79,0
0,69,63,0
0,43,49,0
0,50,55,0
0,55,39,0
0,59,58,0
0,64,7,16
0,45,7,1
0,52,55,0
0,57,33,0
0,60,46,0
0,45,61,0
0,53,88,6
0,69,83,0
0,45,37,0
0,71,98,0
0,53,51,0
0,57,97,0
0,69,100,0
0,64,90,0
0,72,90,0
0,76,90,0
0,64,70,0
0,57,55,0
0,69,57,0
0,60,76,48
0,64,42,0
0,69,79,7
0,60,45,0
0,69,84,5
0,56,91,5
0,71,79,0
0,71,77,0
0,69,46,0
0,64,67,5
0,56,52,0
0,71,46,0
0,60,88,6
0,64,40,0
0,71,79,2
0,69,94,0
0,60,51,0
0,71,96,4
0,55,82,0
0,72,85,0
0,72,94,0
0,64,58,0
0,69,100,0
0,72,79,0
0,71,46,0
0,64,49,26
0,72,85,0
0,55,48,0
0,72,49,0
0,60,88,25
0,64,31,0
0,72,76,1
0,60,51,0
0,71,79,5
0,54,79,14
0,66,91,0
0,69,68,0
0,60,90,0
0,72,45,0
0,62,82,0
0,54,46,0
0,66,52,0
0,57,82,5
0,62,48,0
0,64,82,5
0,72,127,0
0,57,48,0
0,74,103,5
0,53,67,2
0,57,94,0
0,64,79,0
0,60,84,0
0,65,84,0
0,69,84,0
0,72,84,0
0,64,48,0
0,60,88,0
0,53,40,0
0,57,54,0
0,64,46,0
0,57,79,0
0,60,51,0
0,60,79,3
0,57,46,0
0,72,89,15
0,71,81,18
0,60,46,0
0,64,70,5
0,69,65,0
0,60,97,39
0,64,42,0
0,57,112,1
0,67,46,0
0,60,55,0
0,43,67,0
0,50,97,0
0,59,94,0
0,67,96,0
0,59,82,0
0,71,79,0
0,74,61,0
0,57,63,0
0,45,91,0
0,52,61,0
0,57,79,0
0,60,85,0
0,69,71,0
0,57,94,0
0,72,76,0
0,76,82,0
0,43,40,0
0,50,55,0
0,59,54,0
0,45,88,0
0,52,101,0
0,57,101,0
0,60,101,0
0,57,97,0
0,72,76,0
0,76,94,0
0,45,52,0
0,52,37,0
0,57,46,0
0,60,49,0
0,45,51,0
0,52,57,0
0,57,57,0
0,60,57,0
0,57,97,0
0,45,97,9
0,59,91,15
0,59,76,0
0,47,103,2
0,45,55,0
0,60,97,33
0,60,82,0
0,48,91,2
0,47,58,0
0,55,103,41
0,48,52,0
0,60,91,41
0,72,91,0
0,55,58,0
0,64,73,1
0,74,79,0
0,60,52,0
0,50,82,0
0,57,85,0
0,66,94,0
0,62,94,0
0,64,43,0
0,62,76,0
0,50,48,0
0,57,49,0
0,66,54,0
0,57,91,2
0,62,45,0
0,59,61,7
0,57,52,0
0,53,67,8
0,57,52,0
0,60,94,0
0,72,79,0
0,62,100,0
0,59,37,0
0,57,88,8
0,53,40,0
0,57,33,0
0,60,54,0
0,64,76,14
0,60,94,0
0,57,51,0
0,60,70,0
0,71,85,0
0,59,91,0
0,64,45,0
0,43,16,0
0,59,112,0
0,60,94,0
0,60,42,0
0,45,91,1
0,60,97,0
0,57,73,5
0,69,75,0
0,43,15,0
0,59,63,0
0,45,52,17
0,60,55,0
0,60,85,11
0,57,43,0
0,47,79,0
0,59,88,0
0,62,97,0
0,72,77,0
0,62,106,0
0,60,49,0
0,74,83,3
0,48,82,1
0,60,109,0
0,64,106,0
0,64,109,0
0,47,46,0
0,59,51,0
0,62,55,0
0,55,79,0
0,48,48,0
0,60,61,0
0,64,60,0
0,60,88,0
0,55,46,0
0,67,79,47
0,72,77,0
0,60,51,0
0,43,55,5
0,59,79,0
0,74,86,0
0,62,109,0
0,67,46,0
0,55,85,1
0,43,34,0
0,59,46,0
0,67,88,1
0,72,73,0
0,55,49,0
0,62,70,1
0,67,74,0
0,67,51,0
0,57,97,1
0,62,109,0
0,67,97,0
0,62,103,0
0,62,42,0
0,66,82,0
0,69,72,0
0,57,103,0
0,57,55,0
0,62,61,0
0,67,55,0
0,50,104,0
0,57,104,0
0,62,104,0
0,66,104,0
0,66,48,0
0,50,59,7
0,57,59,0
0,62,59,0
0,66,59,0
0,45,109,0
0,69,76,0
0,47,97,0
0,71,95,0
0,59,97,0
0,45,61,0
0,48,85,4
0,72,78,1
0,67,85,0
0,47,55,0
0,48,49,4
0,55,91,1
0,60,94,5
0,74,79,0
0,72,64,0
0,55,52,0
0,64,79,0
0,72,81,0
0,71,32,0
0,60,54,0
0,50,94,1
0,62,91,0
0,71,79,0
0,64,46,0
0,57,79,0
0,69,85,0
0,50,54,0
0,62,52,0
0,66,91,0
0,67,85,0
0,57,46,0
0,69,80,1
0,66,61,0
0,66,52,0
0,71,80,21
0,53,82,4
0,60,82,0
0,72,84,0
0,69,91,0
0,57,94,4
0,53,48,0
0,60,48,0
0,64,88,2
0,72,93,0
0,57,54,0
0,60,79,2
0,71,98,0
0,64,51,0
0,43,58,0
0,59,97,0
0,71,72,0
0,72,104,0
0,60,46,0
0,45,88,1
0,60,61,0
0,57,88,0
0,69,78,0
0,43,36,0
0,59,55,0
0,45,51,19
0,60,37,0
0,60,82,0
0,57,51,0
0,47,85,9
0,62,91,0
0,72,101,0
0,74,85,0
0,79,67,0
0,60,48,0
0,74,94,4
0,48,97,4
0,60,100,0
0,64,91,0
0,76,103,0
0,79,1,0
0,47,49,0
0,62,52,0
0,55,79,1
0,48,55,0
0,60,57,0
0,64,52,0
0,60,85,1
0,55,46,0
0,64,85,3
0,72,89,0
0,60,49,0
0,50,97,1
0,62,85,0
0,74,80,0
0,74,91,0
0,64,49,0
0,57,82,3
0,50,55,0
0,62,49,0
0,66,88,33
0,72,79,0
0,57,48,0
0,62,70,2
0,67,70,0
0,66,51,0
0,53,82,0
0,57,79,0
0,60,76,0
0,64,88,0
0,67,58,0
0,71,58,0
0,74,58,0
0,79,58,0
0,62,42,0
0,53,40,0
0,57,43,0
0,60,61,0
0,64,37,0
0,69,73,0
0,69,66,0
0,72,66,0
0,76,66,0
0,81,66,0
0,53,48,0
0,57,46,0
0,60,45,0
0,64,51,0
0,53,73,29
0,57,67,0
0,60,55,0
0,64,52,0
0,69,81,0
0,72,81,0
0,76,81,0
0,81,81,0
0,53,27,0
0,57,28,0
0,60,37,0
0,64,25,0
0,53,34,29
0,57,73,0
0,60,70,0
0,64,85,0
0,69,90,0
0,72,90,0
0,76,90,0
0,81,90,0
0,53,43,0
0,57,40,0
0,60,34,0
0,64,33,0
0,53,24,2
0,57,43,0
0,60,42,0
0,64,49,0
0,69,63,24
0,71,73,28
0,57,49,13
0,69,103,0
0,72,63,0
0,64,90,0
0,72,90,0
0,76,90,0
0,64,76,36
0,57,31,0
0,69,58,0
0,60,91,5
0,64,45,0
0,71,77,9
0,69,70,17
0,69,74,0
0,60,52,0
0,56,91,11
0,71,97,0
0,71,68,0
0,69,42,0
0,64,40,37
0,56,52,0
0,71,55,0
0,60,88,42
0,64,27,0
0,71,79,2
0,69,78,0
0,60,51,0
0,71,80,0
0,55,76,3
0,72,91,0
0,72,78,0
0,64,58,0
0,69,100,0
0,72,79,0
0,71,46,0
0,64,43,24
0,55,45,0
0,72,52,0
0,60,91,4
0,64,28,0
0,72,97,1
0,60,52,0
0,54,79,1
0,66,100,0
0,71,74,0
