track,note,velocity,time
1,77,113,2488
1,81,102,0
1,79,85,24
1,76,109,8
1,74,111,116
1,77,118,0
1,72,109,116
1,76,111,0
1,79,108,12
1,67,102,76
1,76,101,16
1,72,111,0
1,79,99,4
1,67,93,172
1,77,102,56
1,71,108,0
1,76,102,16
1,79,92,4
1,67,102,20
1,71,106,4
1,77,109,0
1,67,121,292
1,69,118,280
1,71,111,72
1,74,108,152
1,79,113,140
1,83,102,0
1,77,113,16
1,81,102,0
1,79,103,132
1,76,104,0
1,74,109,92
1,77,113,0
1,72,109,120
1,76,116,0
1,79,101,360
1,67,99,92
1,72,108,192
1,76,99,0
1,77,118,108
1,81,108,0
1,79,100,8
1,76,111,0
1,77,111,128
1,74,109,4
1,72,103,128
1,76,106,0
1,79,106,4
1,67,106,84
1,72,106,64
1,76,99,0
1,79,101,4
1,67,99,68
1,71,102,56
1,77,106,16
1,79,103,16
1,67,97,56
1,71,96,68
1,77,103,0
1,67,118,196
1,69,127,4
1,71,113,12
1,74,104,100
1,79,104,140
1,83,96,0
1,81,93,8
1,77,116,12
1,79,102,96
1,76,106,0
1,74,100,100
1,77,104,4
1,72,104,108
1,76,111,0
1,67,109,256
1,71,103,0
1,65,102,4
1,67,102,112
1,64,102,0
1,72,101,0
1,77,125,132
1,81,111,0
1,79,102,172
1,76,111,12
1,74,116,132
1,77,118,4
1,72,111,132
1,76,113,0
1,79,106,24
1,67,116,116
1,72,109,116
1,76,103,0
1,79,97,4
1,67,104,104
1,71,104,100
1,77,103,0
1,79,99,12
1,67,109,108
1,77,108,92
1,71,99,0
1,67,125,304
1,69,127,24
1,71,106,20
1,74,101,144
1,83,104,136
1,79,109,0
1,77,108,64
1,81,108,0
1,79,118,116
1,76,111,0
1,77,118,120
1,74,113,0
1,76,108,120
1,72,111,12
1,79,100,20
1,67,113,100
1,72,96,28
1,76,99,12
1,71,87,4
1,81,103,116
1,77,116,0
1,79,103,16
1,76,113,16
1,77,118,144
1,74,116,12
1,72,108,132
1,76,109,0
1,79,104,12
1,67,118,108
1,76,103,100
1,72,106,0
1,79,102,8
1,67,106,84
1,71,109,96
1,77,109,0
1,79,99,16
1,67,108,96
1,71,111,92
1,77,111,0
1,76,87,20
1,67,121,244
1,69,113,20
1,71,113,12
1,74,109,136
1,83,102,124
1,79,121,12
1,81,99,16
1,77,118,0
1,79,109,116
1,76,106,0
1,74,102,92
1,77,106,12
1,72,109,112
1,76,116,0
1,67,113,280
1,71,103,12
1,65,101,0
1,72,98,160
1,64,93,0
1,67,97,4
1,77,118,24600
1,81,104,0
1,79,99,12
1,76,113,4
1,77,113,124
1,74,106,0
1,76,111,128
1,72,103,0
1,79,106,8
1,67,108,100
1,72,103,84
1,76,100,4
1,79,100,0
1,67,103,76
1,71,106,92
1,77,103,0
1,79,97,8
1,67,106,84
1,71,103,92
1,77,108,4
1,67,125,204
1,69,106,268
1,71,108,8
1,74,102,132
1,79,116,132
1,83,103,12
1,77,108,80
1,81,106,12
1,79,102,100
1,76,102,4
1,74,103,92
1,77,109,12
1,76,102,104
1,72,103,12
1,79,103,364
1,67,104,92
1,72,100,84
1,76,96,12
1,77,121,108
1,81,108,0
1,76,104,4
1,79,99,0
1,77,113,124
1,74,106,0
1,76,102,124
1,72,106,0
1,79,101,8
1,67,113,108
1,72,111,100
1,76,106,0
1,79,99,16
1,67,102,92
1,71,99,104
1,77,101,0
1,79,99,24
1,67,108,116
1,71,100,100
1,77,100,0
1,67,121,232
1,69,127,12
1,71,121,24
1,74,108,132
1,79,106,132
1,83,99,0
1,77,113,84
1,81,106,0
1,79,109,112
1,76,103,0
1,74,108,108
1,77,109,4
1,72,106,116
1,76,109,0
1,67,109,260
1,71,108,0
1,65,106,4
1,67,109,264
1,64,99,0
1,72,109,0
1,69,106,616
1,77,97,0
1,76,102,44
1,67,108,0
1,77,103,16
1,69,116,0
1,70,114,56
1,79,106,4
1,69,102,24
1,77,103,12
1,76,104,16
1,67,103,0
1,65,99,0
1,74,102,0
1,64,98,24
1,72,100,12
1,62,103,0
1,70,108,0
1,69,111,8
1,60,97,8
1,58,98,8
1,67,103,0
1,57,92,16
1,65,109,12
1,69,109,148
1,72,102,0
1,77,103,0
1,72,98,224
1,69,108,0
1,84,127,16
1,83,106,136
1,84,106,16
1,86,109,24
1,84,106,24
1,83,103,24
1,84,111,24
1,89,112,16
1,84,109,64
1,81,127,16
1,77,116,8
1,76,116,72
1,84,107,132
1,76,102,0
1,82,108,16
1,77,100,0
1,82,120,40
1,84,111,0
1,76,106,0
1,82,109,140
1,76,106,0
1,86,111,0
1,82,105,128
1,76,100,0
1,84,99,0
1,84,121,88
1,83,103,104
1,84,107,24
1,86,114,16
1,84,106,28
1,83,101,24
1,84,114,40
1,88,111,16
1,84,119,64
1,82,113,84
1,76,112,68
1,77,121,96
1,77,112,188
1,84,112,0
1,81,119,0
1,77,104,36
1,84,112,0
1,81,111,0
1,81,109,132
1,86,111,0
1,77,107,0
1,84,98,116
1,77,100,0
1,81,101,0
1,77,114,200
1,69,124,0
1,67,99,100
1,76,102,12
1,77,102,0
1,69,98,0
1,70,99,8
1,79,88,0
1,77,102,24
1,69,85,0
1,76,102,16
1,67,95,0
1,65,95,8
1,74,102,0
1,72,107,372
1,64,102,0
1,70,110,8
1,62,98,0
1,69,105,0
1,60,97,0
1,67,95,384
1,58,101,0
1,57,92,16
1,65,103,0
1,72,106,232
1,77,112,0
1,72,89,228
1,69,107,0
1,84,127,8
1,84,121,12
1,83,107,184
1,84,107,24
1,86,102,24
1,84,101,16
1,83,105,24
1,84,107,24
1,89,119,24
1,84,104,24
1,81,116,16
1,77,114,4
1,82,102,120
1,86,109,0
1,77,109,4
1,82,117,188
1,77,107,0
1,86,109,0
1,77,109,40
1,86,112,0
1,82,124,0
1,82,124,132
1,77,112,0
1,86,121,0
1,86,104,124
1,82,105,0
1,77,101,0
1,84,106,24
1,76,111,0
1,83,107,104
1,84,103,24
1,86,106,16
1,84,98,16
1,83,100,16
1,84,103,16
1,88,107,8
1,84,102,184
1,82,109,4
1,76,100,8
1,77,119,4
1,76,103,292
1,70,127,4
1,72,116,0
1,77,105,196
1,72,104,0
1,69,107,0
1,77,102,504
1,69,106,0
1,76,95,16
1,67,91,16
1,77,99,16
1,69,109,12
1,70,98,0
1,79,97,0
1,69,89,16
1,77,102,0
1,76,107,400
1,67,96,0
1,65,103,8
1,74,102,12
1,72,100,352
1,64,112,0
1,70,113,4
1,62,105,0
1,60,103,8
1,69,114,0
1,58,108,372
1,67,102,12
1,57,92,8
1,65,112,12
1,72,106,64
1,77,106,0
1,69,95,184
1,72,89,0
1,84,124,768
1,83,107,140
1,84,116,16
1,86,121,16
1,84,109,24
1,83,106,16
1,84,109,4
1,89,111,16
1,84,119,8
1,81,114,16
1,77,124,8
1,76,116,64
1,82,110,124
1,84,98,0
1,76,102,16
1,76,101,28
1,82,111,12
1,84,116,0
1,82,117,140
1,86,112,0
1,76,106,0
1,82,109,128
1,84,105,0
1,76,106,0
1,84,119,84
1,83,100,112
1,84,107,16
1,86,111,20
1,84,107,8
1,83,102,16
1,84,101,96
1,88,109,8
1,84,107,180
1,82,111,8
1,76,111,8
1,77,116,48
1,84,100,180
1,81,102,0
1,77,104,4
1,77,102,36
1,84,102,0
1,81,105,0
1,86,103,120
1,77,107,12
1,81,104,0
1,84,101,104
1,77,103,0
1,81,102,16
1,69,106,264
1,77,109,0
1,67,100,96
1,76,96,0
1,69,109,12
1,77,101,0
1,79,101,28
1,70,107,0
1,69,100,16
1,77,102,0
1,76,100,8
1,67,88,0
1,65,91,16
1,74,101,8
1,64,98,32
1,72,101,16
1,62,101,8
1,70,96,0
1,60,97,8
1,69,103,12
1,58,108,12
1,67,99,4
1,57,91,40
1,65,105,12
1,57,89,20
1,65,91,0
1,72,100,344
1,77,92,4
1,69,93,152
1,72,91,0
1,84,121,104
1,83,102,136
1,84,106,80
1,86,112,24
1,84,105,12
1,83,105,16
1,84,107,32
1,89,109,16
1,84,109,8
1,81,109,16
1,77,109,8
1,82,120,200
1,86,104,0
1,82,110,200
1,77,101,12
1,86,100,0
1,86,104,36
1,82,105,4
1,77,100,0
1,82,103,144
1,77,102,0
1,86,105,0
1,82,99,136
1,86,99,16
1,77,102,0
1,76,112,12
1,84,107,0
1,84,114,12
1,76,114,0
1,83,103,168
1,84,105,32
1,86,111,28
1,84,109,32
1,83,101,24
1,84,111,28
1,88,114,36
1,84,114,184
1,82,111,76
1,76,104,28
1,65,119,48
1,77,127,0
1,84,119,132
1,84,111,52
1,84,127,64
1,72,119,0
1,86,127,24
1,74,121,0
1,88,121,24
1,76,114,12
1,77,121,44
1,89,127,4
2,31,125,3072
2,31,125,548
2,33,125,192
2,35,125,44
2,36,125,44
2,31,125,172
2,36,125,8
2,31,125,108
2,33,125,72
2,35,125,92
2,36,125,76
2,31,125,120
2,36,125,168
2,40,125,148
2,38,125,120
2,31,125,116
2,38,125,148
2,31,125,112
2,38,125,136
2,31,125,112
2,38,125,168
2,35,125,120
2,36,125,100
2,31,125,64
2,36,125,4
2,31,125,100
2,33,125,96
2,35,125,96
2,36,125,88
2,31,125,120
2,36,125,180
2,31,125,116
2,38,125,172
2,31,125,96
2,38,125,176
2,31,125,140
2,38,125,152
2,31,125,116
2,38,125,164
2,35,125,148
2,36,125,172
2,31,125,200
2,36,125,116
2,31,125,124
2,33,125,88
2,35,125,96
2,36,125,92
2,31,125,120
2,36,125,200
2,40,125,160
2,38,125,104
2,31,125,112
2,38,125,148
2,31,125,108
2,38,125,148
2,38,125,4
2,31,125,376
2,38,125,128
2,35,125,124
2,36,125,92
2,31,125,108
2,36,125,100
2,31,125,112
2,33,125,100
2,35,125,84
2,33,125,0
2,36,125,80
2,31,125,152
2,36,125,192
2,40,125,124
2,38,125,104
2,31,125,120
2,38,125,164
2,31,125,140
2,38,125,172
2,31,125,116
2,38,125,180
2,35,125,116
2,36,125,176
2,31,125,152
2,36,125,128
2,33,125,580
2,26,125,132
2,31,125,100
2,26,125,100
2,31,125,140
2,26,125,112
2,33,125,120
2,26,125,92
2,33,125,140
2,26,125,92
2,33,125,128
2,26,125,136
2,33,125,116
2,26,125,140
2,31,125,136
2,26,125,140
2,33,125,180
2,26,125,92
2,31,125,144
2,26,125,144
2,31,125,160
2,26,125,124
2,33,125,180
2,26,125,128
2,33,125,152
2,26,125,128
2,33,125,124
2,26,125,140
2,33,125,164
2,26,125,128
2,31,125,148
2,33,125,580
2,26,125,120
2,31,125,112
2,26,125,140
2,31,125,148
2,26,125,188
2,33,125,176
2,26,125,172
2,33,125,180
2,26,125,196
2,33,125,164
2,26,125,164
2,33,125,196
2,26,125,188
2,31,125,176
2,26,125,200
2,33,125,192
2,26,125,152
2,31,125,168
2,26,125,200
2,31,125,172
2,26,125,208
2,33,125,196
2,26,125,216
2,33,125,168
2,26,125,180
2,33,125,148
2,26,125,236
2,33,125,176
2,26,125,224
2,31,125,232
2,36,125,568
2,31,125,104
2,36,125,140
2,40,125,172
2,38,125,108
2,31,125,104
2,38,125,124
2,31,125,112
2,38,125,108
2,31,125,132
2,38,125,144
2,35,125,132
2,36,125,100
2,31,125,96
2,36,125,8
2,31,125,112
2,33,125,88
2,35,125,96
2,36,125,64
2,31,125,124
2,36,125,180
2,40,125,92
2,38,125,56
2,31,125,88
2,38,125,124
2,31,125,140
2,38,125,112
2,31,125,140
2,38,125,152
2,35,125,132
2,36,125,176
2,31,125,172
2,36,125,104
2,41,125,332
2,40,125,60
2,41,125,384
2,43,125,4
2,41,125,384
2,40,125,380
2,38,125,20
2,36,125,384
2,36,125,100
2,36,125,136
2,36,125,128
2,38,125,192
2,40,125,0
2,41,125,0
2,36,125,84
2,29,125,176
2,36,125,72
2,29,125,140
2,36,125,84
2,29,125,124
2,36,125,144
2,31,125,132
2,36,125,120
2,31,125,108
2,36,125,136
2,31,125,120
2,36,125,156
2,31,125,84
2,36,125,108
2,29,125,140
2,36,125,136
2,29,125,136
2,36,125,104
2,41,125,12
2,40,125,152
2,41,125,8
2,43,125,4
2,41,125,8
2,40,125,4
2,38,125,24
2,36,125,0
2,36,125,104
2,36,125,136
2,36,125,152
2,38,125,192
2,40,125,12
2,41,125,4
2,36,125,56
2,29,125,164
2,36,125,100
2,29,125,52
2,36,125,108
2,29,125,136
2,36,125,104
2,34,125,136
2,29,125,132
2,34,125,136
2,29,125,116
2,31,125,100
2,36,125,152
2,31,125,104
2,36,125,124
2,29,125,152
2,36,125,132
2,29,125,92
2,41,125,528
2,40,125,100
2,41,125,8
2,43,125,384
2,41,125,40
2,40,125,384
2,38,125,0
2,36,125,20
2,36,125,120
2,36,125,168
2,36,125,128
2,38,125,192
2,40,125,20
2,41,125,192
2,36,125,116
2,29,125,144
2,36,125,88
2,29,125,100
2,36,125,72
2,29,125,88
2,36,125,24
2,31,125,84
2,36,125,184
2,31,125,120
2,36,125,100
2,31,125,80
2,36,125,164
2,31,125,96
2,36,125,128
2,29,125,92
2,36,125,156
2,29,125,200
2,36,125,92
2,41,125,12
2,40,125,112
2,41,125,388
2,43,125,376
2,41,125,16
2,40,125,384
2,38,125,28
2,36,125,8
2,36,125,88
2,36,125,140
2,36,125,132
2,38,125,12
2,40,125,20
2,41,125,4
2,36,125,56
2,29,125,188
2,36,125,92
2,29,125,80
2,36,125,92
2,29,125,140
2,36,125,112
2,34,125,132
2,29,125,76
2,34,125,88
2,29,125,32
2,31,125,84
2,36,125,104
2,31,125,36
2,36,125,24
2,29,125,152
2,36,125,180
2,41,125,144
2,41,125,60
3,60,108,3264
3,55,108,0
3,64,108,0
3,60,108,304
3,55,108,4
3,64,108,0
3,60,108,312
3,55,108,0
3,64,108,0
3,60,108,308
3,55,108,4
3,64,108,0
3,59,108,308
3,55,108,0
3,65,108,0
3,59,108,308
3,55,108,4
3,65,108,0
3,55,108,316
3,59,108,0
3,65,108,0
3,55,108,312
3,59,108,0
3,65,108,0
3,59,108,320
3,55,108,0
3,65,108,0
3,59,108,308
3,55,108,0
3,65,108,0
3,59,108,324
3,55,108,0
3,65,108,0
3,59,108,320
3,65,108,0
3,55,108,0
3,60,108,312
3,55,108,0
3,64,108,0
3,55,108,312
3,60,108,0
3,64,108,0
3,55,108,320
3,60,108,0
3,64,108,4
3,60,108,320
3,55,108,0
3,64,108,4
3,55,108,316
3,60,108,0
3,64,108,0
3,55,108,308
3,60,108,0
3,64,108,0
3,60,108,320
3,55,108,0
3,64,108,0
3,55,108,312
3,60,108,0
3,64,108,0
3,59,108,308
3,55,108,0
3,65,108,0
3,59,108,324
3,55,108,0
3,65,108,0
3,59,108,324
3,55,108,0
3,65,108,0
3,59,108,328
3,55,108,0
3,65,108,0
3,55,108,328
3,59,108,4
3,65,108,0
3,55,108,332
3,59,108,0
3,65,108,0
3,59,108,336
3,65,108,0
3,55,108,0
3,55,108,332
3,59,108,0
3,65,108,0
3,55,108,132
3,60,108,0
3,64,108,0
3,55,108,300
3,59,108,4
3,62,108,0
3,60,108,292
3,55,108,0
3,64,108,0
3,60,108,868
3,55,108,0
3,64,108,0
3,55,108,308
3,60,108,0
3,64,108,0
3,55,108,332
3,60,108,4
3,64,108,0
3,55,108,328
3,60,108,0
3,64,108,0
3,59,108,316
3,55,108,4
3,65,108,0
3,59,108,320
3,55,108,0
3,65,108,0
3,59,108,328
3,55,108,4
3,65,108,0
3,59,108,332
3,55,108,0
3,65,108,0
3,55,108,328
3,59,108,4
3,65,108,0
3,55,108,320
3,59,108,0
3,65,108,0
3,65,108,320
3,59,108,0
3,55,108,0
3,59,108,328
3,55,108,0
3,65,108,0
3,55,108,332
3,60,108,0
3,64,108,0
3,55,108,320
3,60,108,0
3,64,108,0
3,55,108,324
3,60,108,0
3,64,108,0
3,55,108,320
3,60,108,4
3,64,108,0
3,55,108,332
3,60,108,0
3,64,108,0
3,60,108,320
3,55,108,0
3,64,108,0
