track,note,velocity,time
0,72,97,0
0,64,109,0
0,37,84,4
0,62,71,4
0,71,84,0
0,37,82,14
0,60,76,94
0,69,115,0
0,37,85,0
0,59,72,96
0,67,92,14
0,31,80,0
0,49,77,2
0,71,88,14
0,67,79,8
0,71,84,16
0,74,64,26
0,79,88,8
0,55,68,0
0,37,85,4
0,77,81,10
0,69,102,0
0,31,80,6
0,57,58,8
0,37,78,4
0,67,72,4
0,76,76,0
0,33,80,12
0,59,96,28
0,74,97,12
0,65,79,0
0,37,75,2
0,35,80,4
0,42,56,44
0,36,80,2
0,37,78,0
0,49,77,0
0,60,102,2
0,64,84,4
0,72,92,0
0,31,80,8
0,44,51,0
0,49,77,2
0,67,97,2
0,65,88,0
0,71,84,2
0,37,76,0
0,55,48,6
0,72,92,98
0,64,88,0
0,42,60,6
0,36,80,2
0,49,77,0
0,37,76,0
0,60,96,20
0,77,83,0
0,81,72,0
0,31,80,8
0,81,59,0
0,77,68,0
0,79,55,22
0,76,79,8
0,33,80,0
0,79,45,8
0,76,50,0
0,74,81,84
0,77,88,0
0,35,80,10
0,77,58,18
0,74,56,0
0,72,79,68
0,76,81,0
0,36,100,6
0,36,80,2
0,42,63,0
0,49,77,0
0,56,83,2
0,76,61,12
0,72,53,0
0,60,78,0
0,42,59,0
0,55,78,2
0,64,78,0
0,79,59,8
0,79,78,0
0,36,100,0
0,42,60,0
0,31,80,2
0,37,85,0
0,56,83,0
0,67,72,16
0,67,58,4
0,60,78,6
0,42,59,0
0,55,78,2
0,64,78,0
0,72,53,4
0,76,46,0
0,36,100,2
0,36,80,2
0,42,57,0
0,56,83,0
0,76,71,6
0,72,81,0
0,60,78,36
0,42,50,0
0,55,78,2
0,64,78,0
0,79,57,0
0,36,100,0
0,42,57,0
0,40,80,2
0,37,90,0
0,79,69,0
0,56,83,2
0,67,63,4
0,67,65,4
0,60,78,14
0,42,54,0
0,55,78,2
0,64,78,0
0,77,72,58
0,71,78,0
0,71,41,8
0,77,48,0
0,36,100,6
0,38,80,2
0,42,57,0
0,76,72,0
0,56,83,2
0,59,78,44
0,42,54,0
0,55,78,2
0,65,78,0
0,79,56,4
0,79,62,0
0,36,100,12
0,42,56,0
0,31,80,2
0,37,89,0
0,56,83,0
0,67,65,20
0,67,72,0
0,59,78,14
0,42,54,0
0,55,78,2
0,65,78,0
0,71,76,6
0,77,79,0
0,71,46,4
0,36,100,10
0,38,80,2
0,42,58,0
0,77,58,0
0,56,83,2
0,55,78,36
0,42,56,0
0,59,78,2
0,65,78,0
0,36,100,112
0,42,58,0
0,31,80,2
0,37,92,0
0,56,83,0
0,55,78,28
0,44,67,0
0,59,78,2
0,65,78,0
0,67,61,120
0,36,100,2
0,38,80,2
0,42,66,0
0,56,83,0
0,67,91,2
0,59,78,10
0,42,57,0
0,55,78,2
0,65,78,0
0,69,66,8
0,69,88,0
0,71,63,8
0,71,81,0
0,36,100,18
0,42,63,0
0,31,80,2
0,37,89,0
0,56,83,0
0,74,52,16
0,42,51,16
0,74,78,0
0,59,78,2
0,55,78,0
0,65,78,0
0,36,100,120
0,38,80,2
0,42,64,0
0,56,83,0
0,79,83,16
0,83,72,0
0,83,53,2
0,79,59,0
0,42,54,2
0,59,78,2
0,55,78,0
0,65,78,0
0,77,83,0
0,81,72,0
0,81,48,2
0,77,49,0
0,36,100,94
0,42,63,0
0,35,80,2
0,37,89,0
0,79,61,0
0,56,83,2
0,76,54,0
0,79,73,12
0,76,74,0
0,59,78,34
0,42,51,0
0,65,78,2
0,55,78,0
0,74,56,2
0,77,60,0
0,74,79,14
0,77,83,0
0,36,100,98
0,36,80,2
0,42,61,0
0,76,52,0
0,56,83,2
0,72,53,0
0,72,79,14
0,76,86,0
0,42,50,56
0,60,78,2
0,55,78,0
0,64,78,0
0,79,61,6
0,79,71,8
0,36,100,4
0,42,58,0
0,31,80,2
0,37,90,0
0,56,83,0
0,67,58,52
0,67,69,0
0,55,78,4
0,42,50,0
0,60,78,2
0,64,78,0
0,72,44,100
0,72,78,0
0,76,69,0
0,76,40,2
0,36,100,0
0,36,80,2
0,42,63,0
0,56,83,0
0,42,51,66
0,31,80,2
0,55,78,0
0,60,78,0
0,37,83,0
0,64,78,2
0,77,88,0
0,81,78,0
0,37,88,0
0,79,70,6
0,76,81,0
0,36,100,8
0,42,63,0
0,33,80,2
0,37,89,0
0,56,83,0
0,77,81,48
0,74,79,4
0,35,80,4
0,44,66,0
0,60,78,2
0,55,78,0
0,37,88,0
0,64,78,2
0,36,100,86
0,42,57,2
0,72,73,0
0,76,76,0
0,36,80,2
0,49,77,0
0,56,83,0
0,76,54,2
0,72,56,0
0,42,61,44
0,55,78,2
0,60,78,0
0,64,78,0
0,79,76,4
0,36,100,8
0,42,65,0
0,31,80,2
0,37,89,0
0,79,56,0
0,56,83,2
0,67,76,56
0,55,78,8
0,42,49,0
0,60,78,2
0,64,78,0
0,67,65,0
0,72,50,56
0,76,45,0
0,36,100,6
0,42,65,2
0,72,76,0
0,76,69,0
0,36,80,2
0,56,83,0
0,42,61,74
0,60,78,2
0,55,78,0
0,64,78,0
0,79,71,2
0,36,100,6
0,42,69,0
0,31,80,2
0,37,94,0
0,56,83,0
0,79,53,2
0,67,69,48
0,67,59,8
0,55,78,8
0,42,56,0
0,60,78,2
0,64,78,0
0,71,72,56
0,71,38,4
0,36,100,10
0,38,80,2
0,42,68,0
0,77,76,0
0,56,83,2
0,77,54,4
0,42,58,54
0,59,78,2
0,55,78,0
0,65,78,0
0,79,73,4
0,79,53,4
0,36,100,8
0,42,61,0
0,31,80,2
0,37,97,0
0,56,83,0
0,67,67,36
0,67,58,8
0,59,78,8
0,42,61,0
0,55,78,2
0,65,78,0
0,71,55,64
0,77,54,0
0,71,66,4
0,77,73,0
0,36,100,10
0,38,80,2
0,42,53,0
0,56,83,0
0,42,62,62
0,59,78,2
0,55,78,0
0,65,78,0
0,36,100,100
0,42,57,0
0,31,80,2
0,37,92,0
0,56,83,0
0,44,66,0
0,59,78,2
0,55,78,0
0,65,78,0
0,36,100,126
0,38,80,2
0,42,54,0
0,56,83,0
0,67,88,2
0,67,73,4
0,55,78,46
0,42,63,0
0,59,78,2
0,65,78,0
0,69,99,4
0,69,63,4
0,71,83,12
0,71,66,4
0,36,100,24
0,42,57,0
0,31,80,2
0,37,89,0
0,56,83,0
0,74,74,22
0,74,56,6
0,55,78,16
0,42,69,0
0,59,78,2
0,65,78,0
0,79,56,100
0,79,74,8
0,83,66,0
0,83,47,4
0,36,100,4
0,38,80,2
0,42,52,0
0,56,83,0
0,81,63,8
0,77,59,4
0,81,44,0
0,77,86,4
0,42,64,0
0,59,78,2
0,65,78,0
0,55,78,0
0,79,72,98
0,76,76,0
0,76,56,4
0,79,60,4
0,36,100,6
0,42,59,0
0,35,80,2
0,37,94,0
0,56,83,0
0,74,70,46
0,77,74,2
0,74,54,4
0,77,55,0
0,42,59,12
0,55,78,2
0,59,78,0
0,65,78,0
0,72,74,108
0,76,81,0
0,76,61,4
0,72,60,0
0,36,100,8
0,36,80,2
0,42,76,0
0,37,90,0
0,55,78,2
0,60,78,0
0,64,78,0
0,56,83,2
0,37,73,10
0,37,87,56
0,67,79,50
0,71,73,0
0,65,72,2
0,36,100,4
0,44,79,0
0,31,80,2
0,55,78,0
0,37,95,0
0,59,78,2
0,62,78,0
0,56,83,0
0,37,94,56
0,67,72,108
0,64,72,0
0,72,71,2
0,36,100,4
0,36,80,2
0,42,80,0
0,37,102,0
0,60,78,2
0,55,78,0
0,64,78,0
0,56,83,0
0,81,61,40
0,77,68,0
0,31,80,6
0,77,95,4
0,81,81,0
0,79,72,10
0,79,47,4
0,76,57,0
0,76,81,8
0,33,80,0
0,74,86,86
0,77,88,4
0,35,80,4
0,77,59,4
0,74,56,0
0,36,100,88
0,42,79,2
0,72,81,0
0,76,83,0
0,36,80,2
0,49,77,0
0,56,83,0
0,76,43,4
0,72,52,0
0,72,76,38
0,42,60,0
0,60,78,2
0,55,78,0
0,64,78,0
0,79,76,8
0,36,100,2
0,42,67,0
0,31,80,2
0,37,95,0
0,56,83,0
0,79,55,2
0,69,84,8
0,67,57,4
0,55,78,4
0,42,60,0
0,60,78,2
0,64,78,0
0,67,86,0
0,67,71,8
0,72,54,72
0,76,45,0
0,36,100,4
0,36,80,2
0,42,62,0
0,56,83,0
0,72,79,4
0,76,73,0
0,72,74,44
0,55,78,6
0,42,59,0
0,60,78,2
0,64,78,0
0,79,53,4
0,79,67,0
0,36,100,0
0,42,67,0
0,40,80,2
0,37,102,0
0,56,83,0
0,69,84,2
0,67,60,44
0,67,74,0
0,42,55,8
0,67,74,2
0,55,78,0
0,60,78,0
0,64,78,0
0,71,49,70
0,77,54,0
0,71,74,8
0,77,73,0
0,38,80,2
0,36,100,0
0,42,65,0
0,56,83,0
0,59,78,38
0,42,62,0
0,55,78,2
0,65,78,0
0,71,81,6
0,79,56,60
0,36,100,2
0,42,70,0
0,31,80,2
0,37,95,0
0,56,83,0
0,69,92,2
0,79,69,2
0,67,60,38
0,67,79,4
0,42,61,0
0,59,78,2
0,55,78,0
0,65,78,0
0,67,72,6
0,71,49,12
0,77,53,0
0,65,67,4
0,36,100,4
0,42,65,2
0,77,78,0
0,71,69,0
0,38,80,2
0,56,83,0
0,59,78,34
0,42,74,0
0,55,78,2
0,65,78,0
0,36,100,14
0,42,69,0
0,31,80,2
0,37,94,0
0,56,83,0
0,44,71,0
0,59,78,2
0,55,78,0
0,65,78,0
0,67,111,96
0,67,70,4
0,36,100,4
0,38,80,2
0,42,61,0
0,67,95,0
0,38,80,2
0,56,83,0
0,55,78,22
0,42,74,0
0,59,78,2
0,65,78,0
0,69,63,6
0,69,99,4
0,71,57,12
0,71,76,0
0,36,100,2
0,42,48,0
0,31,80,2
0,37,94,0
0,56,83,0
0,74,71,22
0,74,57,8
0,42,71,6
0,55,78,2
0,59,78,0
0,65,78,0
0,79,63,0
0,83,74,4
0,79,79,0
0,83,45,2
0,36,100,6
0,38,80,2
0,42,53,0
0,56,83,2
0,77,58,4
0,81,45,0
0,77,78,8
0,81,78,0
0,42,69,8
0,65,78,2
0,59,78,0
0,55,78,0
0,79,57,102
0,76,57,0
0,79,88,12
0,76,81,0
0,36,100,6
0,42,52,0
0,35,80,2
0,37,94,0
0,56,83,0
0,74,57,26
0,77,58,0
0,77,88,8
0,74,83,0
0,42,65,2
0,59,78,2
0,55,78,0
0,65,78,0
0,76,78,86
0,36,100,4
0,36,80,2
0,42,56,0
0,56,83,0
0,72,96,2
0,76,47,2
0,72,55,0
0,72,81,2
0,55,78,34
0,42,65,0
0,60,78,2
0,64,78,0
0,79,70,20
0,79,57,4
0,36,100,0
0,42,55,0
0,31,80,2
0,37,95,0
0,56,83,0
0,67,57,18
0,67,83,0
0,42,65,10
0,55,78,2
0,60,78,0
0,64,78,0
0,72,66,30
0,76,47,0
0,76,69,4
0,71,57,4
0,36,100,4
0,36,80,2
0,42,52,0
0,56,83,2
0,72,44,0
0,42,63,24
0,81,73,0
0,31,80,2
0,37,94,0
0,77,86,0
0,55,78,2
0,60,78,0
0,64,78,0
0,79,73,16
0,36,100,14
0,42,68,0
0,33,80,2
0,37,88,0
0,76,83,0
0,56,83,2
0,77,88,22
0,44,64,6
0,35,80,2
0,33,80,0
0,55,78,0
0,37,87,0
0,60,78,2
0,64,78,0
0,74,86,0
0,37,90,18
0,72,78,26
0,76,79,0
0,36,100,4
0,36,80,2
0,42,55,0
0,49,77,0
0,56,83,2
0,76,49,4
0,72,51,0
0,42,71,24
0,55,78,2
0,60,78,0
0,64,78,0
0,72,79,20
0,79,74,0
0,79,56,0
0,36,100,0
0,42,56,0
0,31,80,2
0,37,94,0
0,56,83,0
0,69,84,6
0,67,72,8
0,42,65,6
0,60,78,2
0,55,78,0
0,64,78,0
0,67,60,0
0,67,88,0
0,36,100,44
0,42,59,2
0,76,73,0
0,72,76,0
0,36,80,2
0,56,83,0
0,72,55,0
0,76,56,0
0,55,78,42
0,42,65,0
0,60,78,2
0,64,78,0
0,72,79,6
0,79,72,4
0,69,84,0
0,79,57,2
0,36,100,0
0,42,61,0
0,40,80,2
0,37,94,0
0,56,83,0
0,67,59,0
0,67,72,4
0,67,76,8
0,42,68,2
0,55,78,2
0,64,78,0
0,60,78,0
0,36,100,30
0,38,80,2
0,42,61,0
0,56,83,0
0,71,42,6
0,77,53,0
0,71,79,4
0,77,79,0
0,71,84,38
0,42,63,4
0,55,78,2
0,59,78,0
0,65,78,0
0,69,79,0
0,36,100,6
0,42,61,0
0,31,80,2
0,37,95,0
0,56,83,0
0,79,69,2
0,79,56,4
0,67,76,34
0,67,61,4
0,67,78,0
0,42,64,2
0,59,78,2
0,65,78,0
0,55,78,0
0,71,81,84
0,77,81,0
0,71,55,4
0,77,63,0
0,36,100,8
0,65,72,2
0,38,80,0
0,42,58,0
0,56,83,2
0,76,57,4
0,42,66,42
0,55,78,2
0,59,78,0
0,65,78,0
0,36,100,26
0,42,56,0
0,31,80,2
0,37,94,0
0,56,83,0
0,42,67,0
0,55,78,2
0,65,78,0
0,59,78,0
0,67,111,60
0,36,100,4
0,38,80,2
0,42,58,0
0,56,83,0
0,67,66,2
0,67,91,0
0,55,78,36
0,42,68,0
0,59,78,2
0,65,78,0
0,69,61,8
0,69,83,4
0,71,56,0
0,71,83,0
0,36,100,30
0,42,57,0
0,31,80,2
0,37,90,0
0,56,83,0
0,74,57,12
0,74,79,10
0,42,66,10
0,59,78,2
0,55,78,0
0,65,78,0
0,79,63,18
0,83,72,0
0,83,50,2
0,36,100,4
0,38,80,2
0,42,59,0
0,56,83,0
0,79,91,2
0,81,49,6
0,77,57,2
0,81,69,0
0,77,88,0
0,42,56,12
0,59,78,2
0,55,78,0
0,65,78,0
0,79,57,0
0,76,54,0
0,79,79,4
0,76,76,0
0,36,100,18
0,42,65,0
0,35,80,2
0,37,90,0
0,56,83,0
0,74,72,20
0,77,57,8
0,74,49,0
0,77,76,4
0,55,78,10
0,42,61,0
0,59,78,2
0,65,78,0
0,72,79,86
0,76,86,0
0,36,100,2
0,36,80,2
0,42,76,0
0,37,90,0
0,55,78,2
0,60,78,0
0,64,78,0
0,56,83,2
0,72,107,0
0,76,61,2
0,72,63,0
0,37,72,36
0,37,82,24
0,67,83,26
0,71,73,12
0,65,71,0
0,36,100,8
0,44,72,0
0,31,80,2
0,55,78,0
0,37,87,0
0,59,78,2
0,62,78,0
0,56,83,0
0,67,96,8
0,65,45,10
0,71,42,0
0,37,89,30
0,72,68,26
0,64,63,0
0,67,67,4
0,60,84,4
0,64,51,0
0,36,100,2
0,36,80,2
0,42,82,0
0,37,94,0
0,55,78,2
0,60,78,0
0,64,78,0
0,56,83,0
0,72,56,4
0,62,72,138
0,44,60,0
0,62,69,6
0,62,83,40
0,36,100,10
0,33,80,2
0,42,65,0
0,49,77,2
0,56,83,0
0,66,71,0
0,64,68,0
0,65,71,0
0,42,58,8
0,62,78,2
0,60,78,0
0,66,78,0
0,66,69,8
0,67,72,4
0,36,100,4
0,42,64,0
0,26,80,2
0,37,90,0
0,56,83,0
0,68,76,10
0,69,72,0
0,60,78,6
0,42,62,0
0,62,78,2
0,66,78,0
0,70,78,10
0,67,69,26
0,36,100,6
0,71,78,2
0,31,80,0
0,42,65,0
0,56,83,2
0,67,89,0
0,76,69,26
0,72,78,0
0,42,61,8
0,59,78,2
0,62,78,0
0,67,78,0
0,74,71,6
0,71,72,0
0,36,100,8
0,42,64,0
0,26,80,2
0,37,89,0
0,56,83,0
0,71,71,24
0,42,65,0
0,67,78,2
0,59,78,0
0,62,78,0
0,67,78,0
0,71,72,14
0,67,71,0
0,71,73,14
0,67,76,0
0,36,100,10
0,31,80,0
0,42,61,0
0,56,83,2
0,72,79,32
0,76,71,0
0,42,61,0
0,59,78,2
0,62,78,0
0,67,78,0
0,74,72,104
0,71,68,0
