track,note,velocity,time
1,65,127,0
1,65,127,40
1,65,127,56
1,74,127,36
1,72,127,36
1,65,127,36
1,65,127,44
1,74,127,44
1,72,127,44
1,65,127,36
1,64,127,44
1,74,127,36
1,72,127,48
1,70,127,48
1,64,127,56
1,64,127,1656
1,64,127,48
1,64,127,52
1,74,127,20
1,72,127,40
1,64,127,44
1,64,127,48
1,74,127,36
1,72,127,48
1,64,127,52
1,65,127,40
1,74,127,28
1,72,127,48
1,69,127,36
1,65,127,56
1,65,127,1612
1,65,127,56
1,65,127,64
1,74,127,36
1,72,127,52
1,65,127,36
1,65,127,52
1,74,127,48
1,72,127,52
1,65,127,48
1,64,127,56
1,74,127,32
1,72,127,32
1,70,127,40
1,64,127,44
1,64,127,1644
1,64,127,48
1,64,127,56
1,74,127,40
1,72,123,44
1,64,127,40
1,64,127,60
1,74,127,40
1,72,127,44
1,64,127,40
1,65,127,52
1,74,127,32
1,72,127,52
1,69,127,48
1,65,127,52
1,65,127,1664
1,65,127,44
1,65,127,60
1,74,127,32
1,72,127,40
1,65,127,40
1,65,127,56
1,74,127,36
1,72,127,52
1,65,127,48
1,64,127,52
1,74,127,32
1,72,127,40
1,70,127,40
1,64,127,44
1,64,127,1652
1,64,127,56
1,64,127,52
1,74,127,40
1,72,127,44
1,64,127,48
1,64,127,52
1,74,127,40
1,72,127,48
1,64,127,36
1,65,127,52
1,74,127,40
1,72,127,44
1,69,127,40
1,65,127,28
1,65,127,1624
1,65,127,40
1,65,127,44
1,74,127,32
1,72,127,32
1,65,127,12
1,65,127,28
1,74,127,24
1,72,127,28
1,65,127,20
1,64,127,24
1,74,127,0
1,72,127,16
1,70,127,28
1,64,127,8
1,64,127,1616
1,64,127,48
1,64,127,56
1,74,127,24
1,72,127,20
1,64,127,16
1,76,127,20
1,74,127,16
1,72,127,8
1,64,120,16
1,65,127,40
1,70,127,27972
1,72,127,0
1,74,127,96
1,75,127,0
1,79,127,96
1,79,127,104
1,82,127,0
1,79,127,112
1,87,127,4
1,86,127,116
1,79,127,0
1,84,127,100
1,79,127,4
1,87,127,40
1,79,127,0
1,79,127,56
1,86,127,0
1,84,127,40
1,79,127,0
1,79,127,48
1,87,127,0
1,79,127,56
1,86,127,0
1,84,127,40
1,79,127,0
1,79,127,52
1,87,127,0
1,86,122,44
1,80,127,0
1,70,127,132
1,72,127,12
1,73,127,96
1,74,127,0
1,77,127,124
1,74,127,132
1,80,127,0
1,80,127,120
1,87,127,4
1,86,127,136
1,80,127,0
1,84,127,108
1,80,127,4
1,87,127,44
1,80,127,0
1,86,127,44
1,80,127,0
1,84,127,32
1,80,127,0
1,80,127,48
1,87,127,0
1,86,127,52
1,80,127,0
1,84,126,32
1,80,127,4
1,80,127,44
1,86,127,0
1,79,127,52
1,84,121,0
1,70,127,136
1,72,127,20
1,74,127,92
1,75,127,84
1,79,127,136
1,79,127,128
1,82,127,0
1,79,127,132
1,87,127,4
1,86,127,136
1,79,127,0
1,84,127,140
1,79,127,4
1,87,127,40
1,79,127,0
1,79,127,56
1,86,127,0
1,84,127,28
1,79,127,4
1,87,127,48
1,79,127,0
1,79,127,44
1,86,127,0
1,84,127,48
1,79,127,0
1,79,127,40
1,87,127,0
1,86,127,32
1,80,127,4
1,70,127,144
1,72,127,16
1,73,127,92
1,74,127,20
1,77,127,132
1,80,127,124
1,74,127,0
1,80,127,140
1,87,127,4
1,86,127,148
1,80,127,0
1,82,127,152
1,86,127,0
1,86,127,48
1,82,127,0
1,82,127,44
1,86,127,0
1,80,127,8
1,84,127,0
1,82,127,52
1,79,127,0
1,77,127,72
1,80,127,0
1,75,127,92
1,79,127,4
1,70,127,160
1,72,127,4
1,74,127,92
1,75,127,80
1,79,127,132
1,79,127,136
1,82,127,0
1,87,127,132
1,79,127,4
1,86,127,128
1,79,127,0
1,84,127,140
1,79,127,4
1,79,127,44
1,87,127,0
1,86,127,60
1,79,127,0
1,84,127,36
1,79,127,0
1,87,127,48
1,79,127,0
1,79,127,52
1,86,127,0
1,79,127,60
1,84,127,0
1,79,127,40
1,87,127,0
1,80,127,44
1,86,127,0
1,70,127,168
1,72,127,20
1,73,127,96
1,74,127,28
1,77,127,120
1,74,127,140
1,80,127,4
1,80,127,124
1,87,127,4
1,80,127,152
1,86,127,0
1,80,127,112
1,84,127,4
1,87,127,44
1,80,127,0
1,80,127,56
1,86,127,0
1,84,127,48
1,80,127,0
1,80,127,48
1,87,127,0
1,80,127,44
1,86,127,0
1,84,127,52
1,80,127,0
1,80,127,48
1,86,127,0
1,79,119,52
1,84,117,0
1,70,127,124
1,72,127,44
1,74,127,92
1,75,127,92
1,79,127,132
1,82,127,124
1,79,127,0
1,87,127,124
1,79,127,4
1,86,126,128
1,79,127,0
1,84,127,124
1,79,127,4
1,87,127,36
1,79,127,0
1,86,127,52
1,79,127,0
1,84,127,20
1,79,127,0
1,87,127,52
1,79,127,0
1,86,127,48
1,79,127,4
1,79,127,40
1,84,127,0
1,79,127,44
1,87,127,0
1,80,127,44
1,86,127,4
1,70,127,184
1,72,127,28
1,73,127,92
1,74,127,20
1,77,127,128
1,74,127,4
1,80,127,136
1,74,127,0
1,87,127,132
1,80,127,4
1,86,127,128
1,80,127,0
1,86,127,108
1,82,127,4
1,86,127,28
1,82,127,0
1,82,127,40
1,86,127,0
1,84,127,36
1,80,127,0
1,79,127,68
1,82,127,4
1,77,127,88
1,80,127,0
1,75,127,92
1,79,127,4
1,80,127,3164
1,80,127,48
1,80,127,52
1,75,127,0
1,72,127,8
1,75,127,96
1,80,127,16
1,75,127,92
1,72,127,28
1,75,127,96
1,73,127,0
1,73,127,124
1,75,127,0
1,73,127,132
1,79,127,4
1,73,127,128
1,79,127,0
1,79,127,44
1,73,127,0
1,79,127,48
1,73,127,0
1,75,127,8
1,73,127,8
1,75,127,92
1,79,127,16
1,75,125,92
1,73,127,24
1,75,127,92
1,72,127,24
1,75,127,124
1,72,127,120
1,80,127,0
1,80,127,3160
1,80,127,36
1,80,127,48
1,75,127,92
1,72,127,16
1,75,127,92
1,80,127,20
1,80,127,36
1,79,127,4
1,78,127,0
1,77,127,12
1,82,127,52
1,85,127,100
1,75,127,148
1,79,127,0
1,79,127,40
1,75,127,0
1,77,127,20
1,73,127,4
1,75,127,80
1,72,127,0
1,70,127,68
1,73,127,0
1,72,127,84
1,68,127,0
1,82,127,3368
1,82,127,48
1,82,127,60
1,77,127,92
1,74,127,16
1,77,127,96
1,82,127,16
1,77,125,92
1,74,127,20
1,77,127,96
1,75,127,12
1,75,126,148
1,77,127,0
1,75,127,136
1,81,127,0
1,75,127,60
1,81,127,0
1,75,127,60
1,81,127,0
1,77,127,0
1,75,127,4
1,77,127,96
1,81,127,24
1,77,127,92
1,75,127,20
1,77,127,96
1,74,127,16
1,77,127,124
1,77,127,128
1,82,127,0
1,74,127,0
1,82,127,3072
1,82,127,40
1,82,127,60
1,77,127,8
1,74,127,8
1,77,125,96
1,82,127,24
1,82,127,32
1,81,127,8
1,80,127,0
1,79,127,24
1,84,127,76
1,87,127,108
1,77,127,152
1,81,127,0
1,81,127,48
1,77,127,0
1,79,127,64
1,75,127,4
1,77,127,60
1,74,127,4
1,72,127,76
1,75,127,0
1,74,127,100
1,70,127,0
1,74,127,132
1,82,127,0
1,82,127,40
1,74,127,0
1,82,127,32
1,74,127,4
2,41,120,1536
2,36,120,128
2,41,120,104
2,36,120,136
2,41,120,132
2,36,120,144
2,43,120,120
2,36,120,96
2,43,120,104
2,36,120,124
2,43,120,144
2,36,120,120
2,43,120,132
2,36,120,116
2,41,120,124
2,36,120,136
2,41,120,156
2,36,120,132
2,41,120,124
2,36,120,144
2,41,120,156
2,36,120,144
2,43,120,164
2,36,120,144
2,43,120,152
2,36,120,168
2,43,120,144
2,36,120,176
2,43,120,20
2,36,120,96
2,38,120,196
2,40,120,168
2,41,120,176
2,36,120,132
2,41,120,132
2,36,120,124
2,41,120,116
2,36,120,156
2,41,120,144
2,36,120,124
2,43,120,112
2,36,120,128
2,43,120,156
2,36,120,112
2,43,120,144
2,36,120,148
2,43,120,144
2,36,120,148
2,41,120,128
2,36,120,112
2,41,120,124
2,36,120,144
2,41,120,132
2,36,120,148
2,41,120,132
2,36,120,132
2,43,120,116
2,36,120,124
2,43,120,152
2,36,120,156
2,43,120,148
2,36,120,144
2,43,120,0
2,36,120,116
2,38,120,76
2,40,120,84
2,41,120,48
2,29,120,264
2,34,120,100
2,29,120,152
2,34,120,172
2,29,120,156
2,34,120,104
2,29,120,148
2,36,120,152
2,29,120,120
2,36,120,132
2,29,120,144
2,36,120,156
2,29,120,132
2,36,120,4
2,29,120,192
2,34,120,156
2,29,120,152
2,34,120,164
2,29,120,136
2,34,120,156
2,29,120,156
2,34,120,136
2,29,120,164
2,36,120,164
2,29,120,120
2,36,120,140
2,29,120,152
2,36,120,152
2,29,120,136
2,36,120,0
2,29,120,96
2,31,120,36
2,33,120,20
2,34,120,196
2,34,120,244
2,34,120,192
2,29,120,112
2,34,120,120
2,29,120,136
2,34,120,156
2,29,120,136
2,36,120,144
2,29,120,124
2,36,120,144
2,29,120,144
2,36,120,156
2,29,120,156
2,36,120,140
2,29,120,156
2,34,120,140
2,29,120,136
2,34,120,156
2,29,120,136
2,34,120,112
2,29,120,128
2,34,120,168
2,29,120,124
2,36,120,156
2,29,120,124
2,36,120,148
2,29,120,140
2,36,120,152
2,29,120,148
2,36,120,4
2,29,120,96
2,31,120,84
2,33,120,64
2,34,120,44
2,34,120,256
2,34,127,1764
2,35,115,52
2,36,125,100
2,38,123,80
2,39,127,16
2,34,127,220
2,39,120,124
2,34,120,116
2,39,120,148
2,34,120,136
2,39,120,148
2,34,120,116
2,41,120,124
2,34,120,124
2,41,120,148
2,34,120,104
2,41,120,176
2,34,120,112
2,41,120,116
2,34,120,84
2,39,120,156
2,34,120,156
2,39,120,144
2,34,120,124
2,39,120,124
2,34,120,168
2,39,120,132
2,34,120,124
2,41,120,88
2,34,120,112
2,41,120,104
2,34,120,96
2,41,120,180
2,34,120,136
2,41,120,4
2,34,120,68
2,36,120,4
2,38,120,8
2,39,120,8
2,34,120,140
2,39,120,116
2,34,120,132
2,39,120,168
2,34,120,164
2,39,120,164
2,34,120,164
2,41,120,144
2,34,120,100
2,41,120,92
2,34,120,132
2,41,120,136
2,34,120,136
2,41,120,24
2,34,120,84
2,36,120,68
2,38,120,44
2,39,120,56
2,34,120,88
2,39,120,60
2,34,120,112
2,39,120,144
2,34,120,132
2,39,120,124
2,34,120,100
2,41,120,120
2,34,120,112
2,41,120,144
2,34,120,112
2,41,120,148
2,34,120,116
2,41,120,24
2,34,120,84
2,36,120,32
2,38,120,40
2,39,120,192
2,39,120,244
2,32,120,184
2,32,120,0
2,36,120,132
2,37,120,64
2,34,120,76
2,39,120,32
2,41,120,24
2,43,120,192
2,44,120,0
2,39,120,4
2,32,120,184
2,32,120,0
2,27,120,96
2,34,120,120
2,27,120,96
2,34,120,136
2,27,120,100
2,32,120,140
2,27,120,128
2,32,120,72
2,32,120,0
2,36,120,40
2,37,120,4
2,34,120,36
2,39,120,16
2,41,120,8
2,43,120,4
2,44,120,196
2,39,120,88
2,32,120,200
2,32,120,0
2,36,120,156
2,37,120,384
2,34,120,32
2,39,120,8
2,41,120,56
2,43,120,4
2,44,120,12
2,32,120,268
2,34,120,204
2,38,120,100
2,39,120,72
2,36,120,12
2,41,120,48
2,43,120,16
2,45,120,48
2,46,120,40
2,41,120,24
2,34,120,108
2,29,120,124
2,36,120,136
2,29,120,108
2,36,120,132
2,29,120,36
2,34,120,72
2,29,120,116
2,34,120,108
2,34,120,0
2,38,120,76
2,39,120,92
2,36,120,84
2,41,120,64
2,43,120,64
2,45,120,56
2,46,120,64
2,41,120,140
2,34,120,176
2,38,120,104
2,39,120,12
2,36,120,68
2,41,120,72
2,31,120,52
2,33,120,100
2,34,120,96
2,34,120,248
3,65,117,13820
3,69,122,760
3,65,127,8
3,64,126,124
3,70,125,1316
3,64,122,16
3,65,117,20
3,69,115,1536
3,65,127,8
3,64,116,412
3,70,127,244
3,64,121,28
3,65,117,40
3,65,127,96
3,65,127,52
3,65,118,28
3,65,127,340
3,65,127,36
3,65,127,40
3,65,127,348
3,65,127,20
3,65,127,44
3,65,127,268
3,65,121,40
3,65,126,40
3,65,127,528
3,65,119,40
3,65,124,40
3,65,127,168
3,65,127,28
3,65,120,36
3,65,127,240
3,65,127,28
3,65,127,24
3,65,127,520
3,65,126,40
3,65,127,40
3,70,123,196
3,70,111,244
3,69,120,20
3,68,107,188
3,67,114,0
3,65,111,200
3,63,105,60
3,62,105,8
3,60,110,176
3,58,120,188
3,58,113,156
3,60,110,8
3,62,121,40
3,63,127,80
3,63,125,1560
3,67,120,188
3,72,118,100
3,70,102,116
3,62,127,948
3,65,120,108
3,75,127,140
3,74,101,132
3,63,127,1720
3,67,124,196
3,72,124,88
3,70,115,108
3,62,126,1216
3,65,119,184
3,70,127,128
3,70,118,120
3,63,127,1284
3,67,126,184
3,72,127,80
3,70,116,112
3,62,124,1156
3,68,123,116
3,75,125,116
3,74,107,128
3,72,104,8
3,63,127,1256
3,67,122,28
3,72,127,52
3,70,120,108
3,62,126,432
3,65,119,180
3,72,124,108
3,70,111,116
4,74,127,1352
4,73,127,88
4,72,127,8
4,73,127,88
4,74,127,4
4,73,127,88
4,72,127,80
4,73,127,100
4,74,127,20
4,73,127,92
4,72,127,4
4,77,127,104
4,81,127,4
4,86,127,12
4,84,127,12
4,74,127,1416
4,73,127,80
4,72,127,8
4,73,127,100
4,74,127,12
4,73,127,96
4,72,127,8
4,73,127,108
4,74,127,4
4,73,127,80
4,72,127,4
4,76,127,88
4,79,127,4
4,86,127,20
4,84,127,44
4,74,127,1372
4,73,127,80
4,72,127,0
4,73,127,100
4,74,127,4
4,73,127,104
4,72,127,4
4,73,127,104
4,74,127,56
4,73,127,92
4,72,127,12
4,74,127,8
4,77,127,40
4,81,127,12
4,86,127,4
4,84,127,16
4,74,127,1352
4,73,127,80
4,72,127,4
4,73,127,108
4,74,127,12
4,73,127,104
4,72,127,0
4,73,127,108
4,74,127,4
4,73,127,108
4,72,127,4
4,76,127,96
4,79,127,8
4,86,127,20
4,84,127,4
4,74,127,1348
4,73,127,88
4,72,127,4
4,73,127,100
4,74,127,16
4,73,127,108
4,72,127,12
4,73,127,108
4,74,127,4
4,73,127,88
4,72,127,8
4,77,127,4
4,81,127,4
4,86,127,12
4,84,127,40
4,74,127,1384
4,73,127,84
4,72,127,68
4,73,127,108
4,74,127,12
4,73,127,100
4,72,127,4
4,73,127,112
4,74,127,16
4,73,127,88
4,72,127,4
4,76,127,96
4,79,127,0
4,86,127,20
4,84,127,12
4,74,127,1380
4,73,127,96
4,72,127,68
4,73,127,60
4,74,127,8
4,73,127,96
4,72,127,4
4,73,127,104
4,74,127,8
4,73,127,88
4,72,127,4
4,77,127,112
4,81,127,4
4,86,127,12
4,84,127,20
4,74,127,1400
4,73,127,80
4,72,127,4
4,73,127,108
4,74,127,4
4,73,127,104
4,72,127,72
4,73,127,100
4,74,127,4
4,73,127,4
4,72,127,4
4,76,127,96
4,79,127,84
4,86,127,28
4,84,127,96
4,74,127,1816
4,77,127,0
4,77,127,44
4,74,127,0
4,77,127,40
4,82,127,0
4,82,127,116
4,86,127,12
4,79,127,140
4,74,127,0
4,79,127,128
4,74,127,4
4,77,127,132
4,74,127,16
4,77,127,144
4,74,127,0
4,74,127,40
4,77,127,0
4,77,127,36
4,82,127,0
4,77,127,132
4,74,127,0
4,75,127,32
4,81,127,4
4,75,127,148
4,79,127,0
4,75,127,148
4,77,127,0
4,75,127,184
4,77,127,0
4,77,127,28
4,75,127,12
4,75,127,40
4,81,127,0
4,87,127,132
4,81,127,0
4,75,127,124
4,81,127,0
4,75,127,140
4,81,127,0
4,75,127,124
4,79,127,0
4,75,127,192
4,77,127,0
4,77,127,40
4,75,127,0
4,79,127,44
4,75,127,0
