track,note,velocity,time
0,54,66,1720
0,54,46,110
0,42,48,100
0,54,60,0
0,54,54,58
0,54,68,120
0,54,53,124
0,42,41,122
0,54,65,0
0,54,57,22
0,54,65,124
0,54,52,124
0,42,46,132
0,54,66,0
0,54,54,52
0,54,75,122
0,67,98,10
0,54,57,0
0,69,93,0
0,42,46,0
0,54,65,0
0,67,106,78
0,54,60,2
0,65,114,0
0,54,70,2
0,54,58,48
0,43,80,2
0,77,98,0
0,71,91,0
0,36,90,0
0,42,58,0
0,49,70,2
0,54,70,0
0,55,97,0
0,65,94,0
0,71,91,2
0,54,46,48
0,38,71,6
0,54,70,2
0,55,102,92
0,43,80,2
0,67,103,0
0,54,56,2
0,67,95,10
0,65,87,0
0,67,98,32
0,38,68,0
0,57,96,36
0,45,80,4
0,69,106,0
0,42,45,0
0,38,69,2
0,54,66,0
0,69,93,10
0,65,85,0
0,47,80,66
0,71,96,0
0,38,76,2
0,54,63,2
0,59,91,2
0,71,86,0
0,65,89,2
0,48,80,108
0,64,91,0
0,67,101,0
0,72,93,0
0,36,90,2
0,42,56,2
0,60,97,0
0,64,93,0
0,49,70,2
0,54,60,0
0,72,97,14
0,54,65,28
0,43,80,120
0,71,89,0
0,65,101,0
0,67,101,0
0,36,90,0
0,44,64,0
0,49,70,2
0,54,56,2
0,55,98,0
0,67,100,0
0,54,66,14
0,48,80,72
0,64,103,0
0,72,101,0
0,67,119,0
0,36,90,2
0,42,71,2
0,60,97,0
0,49,70,2
0,54,65,0
0,64,96,10
0,72,97,0
0,67,119,10
0,54,62,0
0,67,96,32
0,67,101,48
0,54,57,0
0,67,106,118
0,54,59,0
0,48,80,4
0,67,105,0
0,36,90,2
0,42,68,2
0,49,70,0
0,54,58,0
0,72,87,82
0,60,67,10
0,55,67,0
0,52,67,0
0,42,51,0
0,54,51,0
0,43,80,6
0,36,90,0
0,42,71,0
0,64,110,0
0,38,80,2
0,54,55,0
0,60,93,0
0,60,74,8
0,52,68,0
0,55,73,0
0,42,47,0
0,54,63,0
0,64,101,80
0,48,80,24
0,36,90,2
0,42,64,0
0,54,49,2
0,60,72,6
0,55,74,0
0,52,70,0
0,42,52,0
0,67,89,0
0,54,52,2
0,43,80,116
0,36,90,0
0,42,49,0
0,60,105,0
0,38,85,2
0,54,50,0
0,60,77,0
0,52,71,0
0,55,77,0
0,42,65,0
0,54,47,0
0,64,82,4
0,48,80,32
0,64,101,0
0,36,90,2
0,42,44,2
0,54,46,0
0,52,65,36
0,55,70,0
0,60,68,0
0,42,62,0
0,54,51,0
0,67,105,0
0,43,80,0
0,36,90,0
0,42,41,0
0,72,85,0
0,38,87,2
0,54,53,0
0,52,80,18
0,55,67,0
0,52,63,0
0,60,65,0
0,42,60,0
0,76,89,0
0,54,60,2
0,50,80,44
0,77,110,0
0,71,97,0
0,36,90,2
0,42,45,0
0,54,56,2
0,59,97,54
0,53,71,2
0,55,79,0
0,59,75,0
0,42,69,0
0,54,57,0
0,53,66,6
0,59,73,0
0,55,72,0
0,43,80,48
0,53,69,0
0,59,77,0
0,55,78,0
0,36,90,0
0,42,52,0
0,71,105,0
0,38,92,0
0,54,66,0
0,65,110,20
0,53,76,70
0,59,77,0
0,55,79,0
0,44,68,0
0,54,68,0
0,65,88,4
0,50,80,4
0,67,127,0
0,36,90,2
0,42,39,2
0,54,72,0
0,53,71,10
0,59,70,0
0,55,77,0
0,42,67,0
0,71,92,0
0,54,66,2
0,43,80,28
0,36,90,0
0,42,51,0
0,65,122,0
0,38,85,2
0,54,57,0
0,59,93,30
0,59,68,0
0,53,72,0
0,55,78,0
0,42,65,0
0,54,57,2
0,50,80,92
0,65,115,0
0,36,90,2
0,42,45,2
0,54,56,0
0,53,73,12
0,59,71,0
0,55,82,0
0,42,67,0
0,54,63,0
0,67,92,0
0,43,80,110
0,36,90,0
0,42,42,0
0,59,110,0
0,38,83,2
0,54,60,0
0,65,93,4
0,53,77,2
0,55,80,0
0,59,71,0
0,42,68,0
0,54,58,0
0,50,80,12
0,67,105,0
0,36,90,2
0,42,48,2
0,54,62,0
0,43,80,8
0,53,71,0
0,59,69,0
0,55,75,0
0,71,92,0
0,42,70,2
0,54,60,2
0,45,80,2
0,36,90,0
0,42,44,0
0,74,110,0
0,38,85,2
0,54,64,0
0,77,97,2
0,47,80,6
0,53,71,0
0,55,72,0
0,59,71,0
0,44,64,0
0,54,68,2
0,48,80,26
0,67,127,0
0,76,89,0
0,36,90,2
0,42,46,2
0,54,51,0
0,60,93,30
0,52,68,4
0,60,77,0
0,55,77,0
0,42,63,2
0,54,51,0
0,55,83,14
0,52,66,0
0,60,71,0
0,43,80,2
0,52,68,0
0,55,81,0
0,60,70,0
0,36,90,0
0,42,47,0
0,72,110,0
0,64,94,0
0,38,78,2
0,54,45,0
0,64,75,44
0,60,76,8
0,55,79,0
0,52,73,0
0,42,67,0
0,54,50,0
0,48,80,12
0,67,127,0
0,36,90,2
0,42,40,2
0,54,48,0
0,55,75,34
0,60,77,0
0,52,71,0
0,72,92,0
0,42,64,2
0,54,48,0
0,43,80,102
0,36,90,0
0,42,43,0
0,64,105,0
0,38,80,2
0,54,48,0
0,60,88,64
0,52,71,6
0,55,77,0
0,60,77,0
0,42,57,0
0,54,49,0
0,64,122,20
0,48,80,16
0,36,90,2
0,42,44,2
0,54,46,0
0,67,101,14
0,60,74,12
0,55,76,0
0,52,71,0
0,42,61,2
0,54,50,0
0,43,80,2
0,36,90,0
0,42,42,0
0,60,110,0
0,38,76,2
0,54,45,0
0,60,73,12
0,52,68,0
0,55,73,0
0,42,53,0
0,54,51,2
0,64,82,2
0,48,80,60
0,64,92,0
0,36,90,2
0,42,46,2
0,54,53,0
0,60,72,6
0,55,75,0
0,52,70,0
0,67,115,0
0,42,59,2
0,54,56,0
0,43,80,68
0,36,90,0
0,42,44,0
0,72,127,0
0,38,87,2
0,54,49,2
0,76,101,0
0,52,80,2
0,60,72,0
0,55,73,0
0,52,67,0
0,42,61,0
0,54,55,2
0,50,80,8
0,36,90,0
0,77,101,0
0,71,122,0
0,42,46,2
0,54,51,0
0,53,70,46
0,55,83,0
0,59,74,0
0,42,63,2
0,54,53,2
0,59,93,6
0,65,127,40
0,43,80,24
0,36,90,0
0,42,48,0
0,71,97,0
0,38,78,2
0,54,52,0
0,65,88,42
0,53,73,6
0,55,77,0
0,59,73,0
0,44,64,0
0,54,54,0
0,50,80,26
0,36,90,0
0,67,122,0
0,42,52,2
0,54,44,0
0,71,85,10
0,53,72,8
0,55,79,0
0,59,75,0
0,42,68,2
0,54,54,0
0,43,80,6
0,36,90,0
0,42,46,0
0,65,122,0
0,38,83,2
0,54,45,0
0,59,75,42
0,53,75,6
0,55,77,0
0,59,72,0
0,42,63,0
0,54,48,0
0,65,127,76
0,50,80,24
0,36,90,0
0,42,46,2
0,54,54,0
0,59,73,4
0,53,71,0
0,55,74,0
0,67,101,0
0,42,65,2
0,54,51,0
0,43,80,86
0,36,90,0
0,42,45,0
0,59,115,0
0,38,82,2
0,54,46,0
0,53,70,22
0,55,72,0
0,59,74,0
0,42,64,0
0,67,127,0
0,54,57,2
0,65,93,2
0,67,82,12
0,50,80,36
0,36,90,0
0,67,127,0
0,42,47,2
0,54,47,0
0,43,80,38
0,53,71,0
0,59,76,0
0,55,75,0
0,65,127,0
0,42,71,2
0,54,54,2
0,45,80,78
0,36,90,0
0,42,51,0
0,64,122,0
0,38,76,2
0,54,51,0
0,47,80,58
0,55,70,0
0,53,70,0
0,59,73,0
0,44,73,0
0,62,127,0
0,38,70,2
0,54,58,0
0,38,72,4
0,64,65,28
0,60,82,0
0,48,80,16
0,36,90,0
0,42,71,0
0,60,115,0
0,38,78,0
0,54,63,2
0,60,68,16
0,67,82,0
0,64,84,0
0,60,77,48
0,64,80,0
0,67,82,0
0,67,93,48
0,60,84,0
0,64,88,0
0,42,80,0
0,60,84,62
0,64,81,0
0,67,81,0
0,48,80,144
0,36,90,0
0,49,70,2
0,54,64,0
0,60,107,10
0,67,122,12
0,52,78,28
0,55,86,0
0,60,80,0
0,42,70,2
0,54,63,0
0,88,82,0
0,84,79,0
0,72,122,2
0,89,75,12
0,86,84,0
0,88,76,22
0,43,80,16
0,36,90,2
0,42,50,0
0,91,82,2
0,38,78,0
0,54,57,2
0,64,110,0
0,60,93,34
0,60,78,2
0,52,77,0
0,55,81,0
0,42,71,0
0,54,57,2
0,48,80,36
0,36,90,0
0,42,49,0
0,64,122,0
0,54,48,2
0,59,115,6
0,60,78,18
0,52,72,0
0,55,81,0
0,67,105,0
0,42,70,2
0,54,60,2
0,84,87,6
0,76,77,0
0,77,78,8
0,86,78,4
0,79,87,16
0,88,78,2
0,43,80,10
0,60,101,0
0,36,90,2
0,42,42,0
0,38,78,2
0,54,51,0
0,60,78,14
0,55,83,0
0,52,75,0
0,42,75,0
0,54,51,0
0,64,82,4
0,48,80,26
0,36,90,0
0,64,110,0
0,42,46,2
0,54,55,0
0,57,127,2
0,60,73,8
0,55,82,0
0,52,73,0
0,67,97,0
0,42,73,2
0,54,49,0
0,43,80,12
0,72,92,0
0,36,90,2
0,42,48,0
0,38,82,2
0,54,53,0
0,52,80,36
0,55,82,0
0,52,77,0
0,60,80,0
0,42,67,0
0,76,94,0
0,54,55,2
0,50,80,8
0,36,90,0
0,42,50,0
0,71,97,0
0,77,105,0
0,55,107,2
0,54,57,2
0,59,88,0
0,86,79,6
0,89,73,0
0,53,79,2
0,59,73,0
0,55,84,0
0,42,61,2
0,54,51,0
0,88,68,8
0,84,77,0
0,83,75,22
0,86,78,0
0,43,80,12
0,71,94,0
0,65,101,0
0,36,90,2
0,42,55,0
0,38,85,2
0,54,51,0
0,65,88,8
0,53,72,2
0,55,81,0
0,59,77,0
0,42,63,0
0,54,51,0
0,62,119,4
0,50,80,4
0,36,90,0
0,67,115,0
0,42,51,2
0,54,50,0
0,53,77,8
0,59,73,0
0,55,84,0
0,71,110,0
0,42,64,0
0,54,55,2
0,86,78,20
0,83,62,0
0,88,61,12
0,84,75,18
0,86,80,8
0,89,75,0
0,43,80,12
0,65,127,0
0,36,90,2
0,42,52,0
0,38,85,2
0,54,45,0
0,53,77,14
0,55,84,0
0,59,81,0
0,42,63,0
0,54,60,2
0,59,88,2
0,59,102,58
0,50,80,0
0,36,90,0
0,42,49,2
0,54,48,0
0,65,127,22
0,83,77,6
0,74,76,4
0,53,73,4
0,55,80,0
0,59,73,0
0,67,110,0
0,42,67,2
0,54,55,2
0,76,77,4
0,84,75,0
0,86,77,8
0,77,94,0
0,43,80,8
0,59,97,0
0,36,90,2
0,42,47,0
0,38,83,2
0,54,57,0
0,59,79,6
0,53,79,0
0,55,85,0
0,42,58,0
0,54,64,2
0,65,82,4
0,50,80,4
0,36,90,0
0,42,48,2
0,54,65,0
0,55,110,2
0,67,127,20
0,43,80,26
0,53,76,0
0,55,84,0
0,59,79,0
0,42,64,0
0,54,63,2
0,71,94,2
0,45,80,38
0,74,105,0
0,36,90,2
0,42,53,0
0,38,82,2
0,54,65,0
0,47,80,24
0,53,76,0
0,55,85,0
0,59,85,0
0,42,62,0
0,77,92,0
0,54,60,2
0,76,89,54
0,60,95,18
0,48,80,6
0,36,90,0
0,67,122,0
0,42,52,2
0,54,58,0
0,88,68,40
0,79,89,0
0,60,101,4
0,60,75,4
0,55,79,0
0,52,73,0
0,42,68,0
0,54,63,0
0,86,70,8
0,77,78,0
0,84,77,26
0,76,79,4
0,43,80,4
0,72,101,0
0,64,94,0
0,36,90,2
0,42,50,0
0,38,82,2
0,54,59,0
0,60,77,8
0,55,81,0
0,52,76,0
0,44,60,0
0,54,52,0
0,60,112,60
0,48,80,2
0,36,90,0
0,67,115,0
0,42,53,2
0,54,52,0
0,84,78,60
0,52,80,0
0,60,84,0
0,55,91,0
0,42,60,0
0,72,115,0
0,88,75,2
0,54,55,0
0,60,93,2
0,89,75,6
0,86,85,18
0,88,78,8
0,91,76,0
0,43,80,8
0,64,110,0
0,36,90,2
0,42,41,0
0,38,80,2
0,54,55,0
0,60,83,36
0,52,78,0
0,55,87,0
0,42,56,0
0,54,51,0
0,59,107,96
0,48,80,2
0,36,90,0
0,64,122,0
0,42,47,2
0,54,52,0
0,67,101,12
0,84,73,8
0,76,69,2
0,64,82,6
0,60,79,0
0,55,84,0
0,52,76,0
0,42,63,0
0,54,60,2
0,77,77,4
0,86,75,10
0,88,74,8
0,79,87,4
0,43,80,4
0,60,110,0
0,36,90,2
0,42,46,0
0,38,83,2
0,54,54,0
0,52,76,14
0,55,84,0
0,60,80,0
0,42,63,0
0,54,57,2
0,48,80,54
0,36,90,0
0,64,110,0
0,42,50,2
0,54,59,0
0,57,103,8
0,60,69,22
0,52,68,0
0,55,72,0
0,42,64,0
0,54,62,0
0,67,105,0
0,70,52,0
0,43,80,0
0,72,87,0
0,36,90,2
0,42,56,0
0,38,82,2
0,54,60,0
0,52,68,60
0,55,77,0
0,60,75,0
0,42,60,0
0,54,56,0
0,76,92,0
0,55,105,50
0,50,80,2
0,36,90,0
0,77,105,0
0,71,101,0
0,42,54,2
0,54,56,0
0,59,97,14
0,86,87,12
0,53,82,0
0,55,86,0
0,59,78,0
0,42,64,0
0,89,76,2
0,54,57,0
0,88,67,6
0,84,79,0
0,86,78,4
0,83,76,0
0,43,80,12
0,71,101,0
0,65,127,0
0,36,90,2
0,42,54,0
0,38,82,2
0,54,59,0
0,53,77,20
0,55,84,0
0,59,78,0
0,44,65,0
0,54,62,2
0,65,88,2
0,62,105,8
0,50,80,20
0,36,90,0
0,67,127,0
0,42,58,0
0,54,58,0
0,86,78,14
0,53,81,0
0,59,80,0
0,55,87,0
0,42,68,0
0,71,110,0
0,54,60,2
0,83,66,4
0,88,63,4
0,84,77,2
0,86,79,4
0,89,75,4
0,43,80,8
0,65,127,0
0,36,90,2
0,42,54,0
0,38,83,2
0,54,60,2
0,53,73,8
0,55,84,0
0,59,71,0
0,42,67,0
0,59,88,2
0,54,54,0
0,59,100,8
0,50,80,6
0,36,90,0
0,65,127,0
0,42,58,2
0,54,55,0
0,74,77,22
0,53,79,4
0,55,85,0
0,59,79,0
0,42,62,0
0,67,115,0
0,54,57,2
0,83,76,6
0,76,78,4
0,84,72,10
0,77,92,8
0,86,79,0
0,43,80,4
0,59,127,0
0,36,90,2
0,42,56,0
0,38,82,2
0,54,56,0
0,53,79,20
0,55,86,0
0,59,78,0
0,42,56,2
0,54,57,0
0,65,97,8
0,67,115,4
0,67,122,24
0,50,80,2
0,36,90,0
0,42,63,2
0,54,66,0
0,54,62,2
0,55,105,0
0,67,127,18
0,43,80,30
0,59,85,0
0,55,93,0
0,53,84,0
0,42,59,0
0,54,63,4
0,65,127,2
0,45,80,22
0,36,90,2
0,42,56,0
0,38,87,2
0,54,65,0
0,57,107,0
0,64,115,10
0,47,80,2
0,53,76,0
0,59,82,0
0,55,84,0
0,62,127,0
0,44,54,2
0,38,62,2
0,54,62,0
0,59,123,10
0,38,65,0
0,60,93,38
0,64,75,4
0,48,80,2
0,55,67,0
0,60,71,0
0,52,66,0
0,36,90,0
0,60,105,0
0,42,70,2
0,60,115,0
0,38,85,2
0,54,70,0
0,76,80,4
0,84,73,0
0,62,106,36
0,59,110,0
0,64,89,0
0,60,91,0
0,59,103,0
0,62,84,0
0,45,80,0
0,57,114,0
0,60,91,0
0,36,90,0
0,42,55,2
0,49,70,0
0,54,65,0
0,42,50,48
0,54,62,0
0,50,80,126
0,62,94,0
0,66,92,0
0,36,90,0
0,42,52,0
0,38,77,2
0,54,57,0
0,42,51,30
0,54,52,0
0,45,80,92
0,36,90,0
0,42,50,2
0,54,54,0
0,59,87,16
0,62,94,0
0,42,52,0
0,54,50,0
0,59,79,18
0,62,91,0
0,50,80,24
0,64,88,0
0,60,98,0
0,36,90,0
0,42,52,0
0,38,80,2
0,54,60,0
0,54,102,0
0,60,94,0
0,42,50,2
