track,note,velocity,time
0,35,105,38
0,35,0,50
0,40,115,48
0,40,102,3
0,44,87,0
0,40,0,24
0,40,0,24
0,44,0,2
0,33,123,74
0,35,76,4
0,33,0,46
0,35,0,4
0,36,116,48
0,35,73,12
0,35,0,50
0,35,85,48
0,35,0,50
0,36,0,0
0,69,39,0
0,33,127,0
0,49,77,0
0,35,126,0
0,45,70,0
0,33,67,0
0,40,83,0
0,40,0,15
0,45,0,0
0,35,0,8
0,49,0,0
0,69,0,0
0,33,57,27
0,45,59,15
0,40,59,0
0,82,35,1
0,40,0,14
0,45,0,0
0,82,0,36
0,33,0,42
0,33,60,13
0,79,61,14
0,45,57,0
0,42,77,0
0,40,56,0
0,69,38,2
0,35,117,5
0,40,0,8
0,45,0,0
0,31,105,2
0,33,0,21
0,42,0,12
0,69,0,2
0,35,0,5
0,79,0,24
0,33,0,12
0,33,59,13
0,40,58,14
0,45,58,0
0,82,34,3
0,45,0,12
0,40,0,0
0,82,0,38
0,33,0,38
0,33,63,12
0,40,63,4
0,40,115,0
0,55,81,0
0,45,63,0
0,42,64,0
0,69,41,1
0,36,116,3
0,45,0,4
0,40,0,0
0,31,0,2
0,42,0,4
0,40,0,0
0,55,0,0
0,69,0,1
0,33,0,5
0,33,58,2
0,79,50,4
0,40,74,0
0,45,74,0
0,82,35,2
0,45,0,4
0,40,0,0
0,82,0,2
0,33,0,5
0,33,61,2
0,79,0,1
0,79,69,2
0,42,81,0
0,40,83,0
0,45,83,0
0,69,39,2
0,45,117,1
0,45,0,4
0,40,0,0
0,36,0,2
0,42,0,7
0,69,0,2
0,33,0,4
0,79,0,6
0,33,58,5
0,40,74,9
0,45,74,0
0,82,35,1
0,45,0,12
0,40,0,0
0,40,51,5
0,82,0,33
0,40,0,17
0,33,0,21
0,33,62,12
0,45,86,17
0,35,120,0
0,40,87,0
0,53,77,0
0,69,40,3
0,40,0,12
0,45,0,0
0,35,0,35
0,53,0,0
0,69,0,3
0,33,0,40
0,33,59,13
0,40,41,4
0,45,41,0
0,82,34,0
0,45,0,7
0,40,0,0
0,40,32,5
0,82,0,18
0,40,0,12
0,33,0,20
0,33,65,12
0,79,73,17
0,35,50,0
0,45,81,0
0,42,67,0
0,40,80,0
0,69,39,1
0,40,0,14
0,45,0,0
0,42,0,3
0,35,0,0
0,69,0,1
0,33,0,6
0,33,58,5
0,40,78,17
0,45,78,0
0,82,35,2
0,35,89,3
0,79,0,8
0,40,0,2
0,45,0,0
0,82,0,2
0,35,0,3
0,33,0,38
0,33,58,13
0,45,71,14
0,40,89,0
0,40,115,0
0,69,40,1
0,53,76,2
0,40,0,12
0,45,0,0
0,40,0,35
0,69,0,1
0,53,0,2
0,33,0,38
0,33,53,12
0,45,0,10
0,40,54,7
0,45,54,0
0,33,126,0
0,79,68,0
0,82,34,2
0,35,127,3
0,45,0,10
0,40,0,0
0,33,0,7
0,82,0,30
0,35,0,3
0,33,0,36
0,33,59,12
0,79,0,4
0,36,122,4
0,79,59,9
0,42,72,0
0,40,67,0
0,45,67,0
0,69,38,2
0,45,0,13
0,40,0,0
0,42,0,35
0,69,0,2
0,33,0,10
0,33,50,12
0,79,0,4
0,79,70,13
0,45,74,0
0,40,74,0
0,82,34,2
0,35,94,3
0,40,0,10
0,45,0,0
0,82,0,37
0,35,0,3
0,33,0,36
0,79,0,4
0,33,54,8
0,33,127,17
0,40,91,0
0,69,39,0
0,35,126,0
0,45,72,0
0,53,79,0
0,36,0,13
0,45,0,2
0,40,0,0
0,69,0,8
0,53,0,0
0,35,0,0
0,33,0,13
0,82,35,30
0,82,0,50
0,45,79,69
0,40,79,0
0,79,68,0
0,69,39,2
0,35,79,5
0,40,0,8
0,45,0,0
0,31,105,2
0,33,0,21
0,69,0,14
0,35,0,5
0,79,0,18
0,82,35,48
0,82,0,50
0,40,50,5
0,40,114,0
0,53,77,0
0,45,51,0
0,69,40,2
0,36,116,0
0,45,0,5
0,40,0,0
0,31,0,3
0,53,0,5
0,40,0,0
0,69,0,2
0,79,67,5
0,82,34,3
0,82,0,3
0,79,0,1
0,40,90,0
0,79,57,0
0,45,90,0
0,69,38,3
0,45,116,2
0,45,0,5
0,40,0,0
0,36,0,3
0,69,0,3
0,79,0,7
0,45,61,9
0,79,76,0
0,40,61,0
0,82,34,1
0,40,0,12
0,45,0,0
0,40,50,5
0,82,0,33
0,40,0,17
0,79,0,32
0,53,76,18
0,40,46,0
0,35,121,0
0,45,46,0
0,69,41,3
0,45,0,12
0,40,0,0
0,35,0,35
0,53,0,0
0,69,0,3
0,82,35,4
0,40,89,0
0,45,89,0
0,45,0,7
0,40,0,0
0,40,33,5
0,82,0,18
0,40,0,12
0,40,74,49
0,45,68,0
0,79,62,0
0,35,50,0
0,69,39,1
0,45,0,14
0,40,0,0
0,35,0,3
0,69,0,1
0,79,0,4
0,45,52,18
0,40,53,0
0,82,35,2
0,35,88,3
0,40,0,2
0,45,0,0
0,82,0,2
0,35,0,3
0,45,97,0
0,40,115,0
0,40,105,0
0,69,40,1
0,53,77,2
0,40,0,12
0,45,0,0
0,40,0,35
0,69,0,1
0,53,0,2
0,45,0,18
0,40,70,49
0,79,57,0
0,45,71,0
0,33,125,2
0,82,34,0
0,35,85,3
0,45,0,10
0,40,0,0
0,33,0,17
0,82,0,20
0,35,0,3
0,79,0,52
0,36,123,4
0,45,50,9
0,79,53,0
0,35,112,0
0,40,50,0
0,69,38,2
0,40,0,13
0,45,0,0
0,35,0,35
0,69,0,2
0,79,0,26
0,79,70,13
0,40,95,0
0,45,91,0
0,82,34,2
0,45,0,13
0,40,0,0
0,82,0,37
0,79,0,10
0,40,86,58
0,35,127,0
0,57,81,0
0,69,39,0
0,33,126,0
0,45,82,0
0,36,0,13
0,45,0,2
0,40,0,0
0,57,0,8
0,35,0,0
0,69,0,0
0,79,70,42
0,82,35,1
0,82,0,50
0,79,0,56
0,45,77,13
0,79,65,0
0,40,77,0
0,35,71,0
0,42,77,0
0,69,38,2
0,40,0,13
0,45,0,0
0,31,104,2
0,33,0,21
0,42,0,12
0,35,0,0
0,69,0,2
0,79,0,55
0,76,74,13
0,82,34,3
0,82,0,50
0,76,0,54
0,76,73,0
0,40,52,0
0,45,52,0
0,40,114,0
0,42,64,0
0,55,80,0
0,69,41,2
0,36,117,3
0,45,0,5
0,40,0,0
0,31,0,3
0,55,0,5
0,40,0,0
0,42,0,0
0,69,0,2
0,76,0,2
0,76,87,0
0,82,35,3
0,82,0,8
0,76,0,9
0,45,76,2
0,42,80,0
0,40,77,0
0,69,39,3
0,45,116,4
0,40,0,8
0,45,0,0
0,36,0,28
0,42,0,7
0,69,0,3
0,45,41,9
0,79,66,0
0,40,41,0
0,82,35,1
0,40,0,12
0,45,0,0
0,40,50,5
0,82,0,33
0,40,0,17
0,79,0,37
0,53,76,13
0,35,120,0
0,79,75,0
0,40,66,0
0,45,55,0
0,69,40,3
0,45,0,12
0,40,0,0
0,53,0,35
0,35,0,0
0,69,0,3
0,79,0,54
0,40,62,4
0,76,70,0
0,82,34,0
0,45,62,0
0,45,0,7
0,40,0,0
0,40,33,5
0,82,0,18
0,40,0,12
0,76,0,36
0,35,51,13
0,42,67,0
0,45,87,0
0,76,76,0
0,40,89,0
0,69,39,1
0,40,0,14
0,45,0,0
0,42,0,3
0,35,0,0
0,69,0,1
0,76,0,9
0,45,68,13
0,40,68,0
0,76,83,0
0,82,35,2
0,35,88,3
0,40,0,2
0,45,0,0
0,82,0,2
0,35,0,3
0,40,115,0
0,40,59,0
0,45,59,0
0,69,40,1
0,53,76,2
0,76,0,2
0,40,0,10
0,45,0,0
0,40,0,35
0,69,0,1
0,53,0,2
0,45,0,33
0,36,125,34
0,45,70,0
0,64,65,0
0,71,64,0
0,40,70,0
0,82,34,2
0,35,126,3
0,40,0,10
0,45,0,0
0,36,0,7
0,82,0,30
0,35,0,3
0,71,0,52
0,64,0,0
0,36,123,4
0,40,55,9
0,42,73,0
0,71,50,0
0,45,54,0
0,69,38,2
0,45,0,13
0,40,0,0
0,42,0,35
0,69,0,2
0,71,0,55
0,40,87,13
0,76,71,0
0,45,87,0
0,71,71,0
0,82,34,2
0,35,95,3
0,45,0,10
0,40,0,0
0,82,0,37
0,35,0,3
0,76,0,52
0,71,0,0
0,45,71,13
0,64,66,0
0,55,79,0
0,40,82,0
0,33,126,0
0,35,127,0
0,71,66,0
0,69,39,0
0,36,0,13
0,40,0,2
0,45,0,0
0,69,0,8
0,55,0,0
0,35,0,0
0,64,0,29
0,71,0,0
0,76,78,13
0,71,79,0
0,40,58,0
0,45,58,0
0,82,35,1
0,45,0,14
0,40,0,0
0,82,0,36
0,76,0,69
0,45,57,0
0,40,57,0
0,71,0,1
0,69,39,1
0,35,78,5
0,45,0,8
0,40,0,0
0,31,105,2
0,33,0,21
0,69,0,14
0,35,0,5
0,76,67,63
0,45,56,0
0,40,56,0
0,71,67,0
0,82,35,3
0,40,0,12
0,45,0,0
0,82,0,38
0,76,0,54
0,52,93,13
0,76,64,0
0,40,114,0
0,40,63,0
0,45,63,0
0,33,116,1
0,69,40,1
0,45,0,13
0,40,0,0
0,31,0,13
0,52,0,22
0,40,0,0
0,69,0,2
0,76,0,55
0,45,74,13
0,76,73,0
0,40,74,0
0,82,34,3
0,40,0,12
0,45,0,0
0,82,0,38
0,76,0,1
0,71,0,9
0,28,122,0
0,35,32,2
0,40,83,0
0,76,68,0
0,45,82,0
0,71,62,3
0,69,38,0
0,33,0,5
0,40,0,7
0,45,0,0
0,35,0,35
0,69,0,3
0,28,0,10
0,76,0,44
0,76,81,13
0,45,83,0
0,35,71,0
0,83,81,0
0,40,83,0
0,82,34,3
0,40,0,12
0,45,0,0
0,35,0,35
0,82,0,3
0,40,116,29
0,76,0,25
0,83,0,0
0,45,87,13
0,40,103,0
0,40,86,0
0,83,52,0
0,76,52,0
0,69,41,3
0,40,0,9
0,45,0,3
0,40,0,0
0,40,0,35
0,69,0,3
0,76,0,14
0,83,0,0
0,71,0,0
0,45,40,53
0,52,69,0
0,57,69,0
0,35,121,0
0,82,51,0
0,40,40,0
0,40,0,15
0,45,0,0
0,35,0,35
0,82,0,0
0,52,0,57
0,82,53,13
0,40,81,0
0,45,81,0
0,52,60,0
0,45,0,15
0,40,0,0
0,57,10,25
0,82,0,10
0,49,13,30
0,57,0,10
0,57,0,15
0,52,0,2
0,40,78,13
0,57,77,0
0,52,76,0
0,45,78,0
0,57,28,0
0,69,17,0
0,35,88,5
0,49,0,5
0,45,0,5
0,40,0,0
0,49,40,25
0,69,0,10
0,57,0,0
0,35,0,5
0,57,51,25
0,49,0,10
0,52,0,5
0,57,0,0
0,40,89,3
0,45,71,0
0,57,69,0
0,49,77,0
0,40,114,0
0,52,68,0
0,69,22,1
0,57,0,9
0,45,0,5
0,40,0,0
0,40,0,35
0,49,0,0
0,69,0,1
0,57,0,56
0,40,54,0
0,45,54,0
0,82,52,2
0,57,95,1
0,35,84,2
0,45,0,10
0,40,0,0
0,82,0,37
0,35,0,3
0,57,0,53
0,52,0,4
0,45,66,8
0,57,69,0
0,82,50,0
0,40,67,0
0,52,68,0
0,40,0,15
0,45,0,0
0,82,0,35
0,57,0,44
0,45,75,13
0,69,38,0
0,35,115,0
0,40,75,0
0,57,94,3
0,40,0,12
0,45,0,0
0,33,0,1
0,69,0,20
0,35,0,0
0,60,110,56
0,57,0,2
0,52,0,4
0,33,66,8
0,52,82,0
0,57,79,0
0,60,80,0
0,60,61,0
0,57,89,0
0,69,39,0
0,33,113,0
0,35,126,0
0,35,0,3
0,69,0,0
0,57,0,0
0,33,57,47
0,60,0,2
0,52,0,0
0,57,0,0
0,57,73,13
0,52,58,0
0,60,59,0
0,82,35,1
0,82,0,50
0,33,0,42
0,33,0,3
0,33,60,10
0,57,0,1
0,60,0,0
0,52,0,0
0,35,109,11
0,57,76,2
0,67,103,0
0,52,50,0
0,60,55,0
0,33,117,1
0,42,50,0
0,69,38,1
0,60,0,29
0,35,0,17
0,42,0,3
0,69,0,1
0,33,0,41
0,33,59,13
0,52,0,1
0,60,0,0
0,57,0,0
0,67,0,8
0,52,95,5
0,57,100,0
0,60,90,0
0,82,34,3
0,82,0,50
0,33,0,5
0,33,0,5
0,33,63,6
0,57,105,3
0,42,86,8
0,40,115,0
0,33,112,3
0,69,41,1
0,40,0,5
0,42,0,0
0,69,0,4
0,57,0,19
0,33,0,6
0,33,58,12
0,57,0,4
0,52,0,0
0,60,0,0
0,60,59,13
0,57,58,0
0,52,55,0
0,82,35,3
0,82,0,7
0,33,0,1
0,33,0,2
0,64,104,3
0,33,61,7
0,57,0,4
0,60,0,0
0,52,0,0
0,33,112,7
0,52,59,2
0,57,70,0
0,60,57,0
0,42,51,1
0,69,39,1
0,42,0,5
0,69,0,2
0,33,0,38
0,33,58,12
0,60,0,4
0,57,0,0
0,52,0,0
0,60,81,13
0,57,88,0
0,52,78,0
0,82,35,3
0,40,37,2
0,82,0,48
0,40,0,2
0,33,0,36
0,33,0,5
0,33,62,7
0,35,127,15
0,33,113,3
0,42,83,0
0,69,40,2
0,35,0,45
0,42,0,3
0,69,0,2
0,33,0,40
0,33,59,13
0,52,0,1
0,60,0,0
0,57,0,0
0,40,28,9
0,60,50,4
0,52,53,0
0,57,56,0
0,82,34,0
0,40,0,46
0,82,0,4
0,33,0,41
0,33,0,5
0,33,65,7
0,60,0,4
0,57,0,0
0,52,0,0
0,35,112,11
0,57,63,2
0,42,50,0
0,60,52,0
0,52,51,0
0,33,109,1
0,69,39,0
0,35,0,7
0,42,0,2
0,69,0,1
0,33,0,5
0,33,58,12
0,60,0,4
0,52,0,0
0,57,0,0
0,60,90,13
0,57,91,0
0,40,19,0
0,52,90,0
0,82,35,2
0,40,0,48
0,82,0,2
0,33,0,6
0,33,0,3
0,33,58,8
0,57,0,1
0,52,0,0
0,60,0,0
0,40,118,10
0,52,63,2
0,57,75,0
0,60,60,0
0,42,80,1
0,69,40,0
0,33,108,0
0,40,0,3
0,69,0,3
0,42,0,0
0,33,0,40
0,33,53,12
0,60,0,4
0,57,0,0
0,52,0,0
0,60,54,13
0,52,57,0
0,57,66,0
0,82,34,2
0,82,0,6
0,33,0,34
0,33,0,2
0,33,59,10
0,60,0,4
0,57,0,0
0,52,0,0
0,33,112,6
0,60,58,2
0,52,61,0
0,57,73,0
0,42,45,1
0,69,38,1
0,42,0,48
0,69,0,1
0,33,0,39
0,64,0,11
0,33,50,1
0,52,0,4
0,57,0,0
0,60,0,0
0,40,40,13
0,57,67,0
0,52,54,0
0,60,53,0
0,82,34,2
0,40,0,48
0,82,0,2
0,33,0,9
0,33,0,1
0,33,54,7
0,60,110,3
0,57,0,1
0,60,0,0
0,52,0,0
0,69,39,10
0,60,63,0
0,42,80,0
0,57,78,0
0,35,127,0
0,52,66,0
0,33,109,1
0,35,0,8
0,42,0,0
0,69,0,0
0,33,0,5
0,57,0,9
0,52,0,0
0,60,0,0
0,52,82,13
0,57,83,0
0,60,83,0
0,82,35,1
0,82,0,50
0,33,0,45
0,67,109,6
0,57,0,5
0,52,0,0
0,60,0,0
0,35,108,11
0,57,73,2
0,60,54,0
0,52,58,0
0,42,51,1
0,33,112,0
0,69,39,1
0,60,0,29
0,35,0,17
0,42,0,3
0,69,0,1
0,67,0,44
0,57,0,11
0,52,0,0
0,60,0,0
0,52,76,13
0,57,87,0
0,60,79,0
0,82,35,3
0,82,0,50
0,33,0,4
0,57,107,4
0,40,115,5
0,42,87,0
0,33,111,3
0,69,40,1
0,42,0,8
0,40,0,0
0,69,0,2
0,57,0,9
0,57,0,12
0,52,0,0
0,60,0,0
0,52,80,13
0,60,83,0
0,57,90,0
0,82,34,3
0,82,0,50
0,33,0,14
0,64,100,2
0,60,0,9
0,52,0,0
0,57,0,0
0,52,63,2
0,60,68,0
0,57,72,0
0,42,50,1
0,33,105,0
0,69,38,2
0,42,0,9
