track,note,velocity,time
1,74,116,2108
1,73,99,0
1,74,95,100
1,70,91,72
1,74,108,184
1,73,108,96
1,74,93,12
1,70,101,68
1,74,93,108
1,73,95,4
1,74,89,4
1,74,100,108
1,74,103,120
1,74,87,96
1,74,93,52
1,72,96,88
1,73,59,96
1,72,93,80
1,71,90,96
1,72,96,0
1,75,104,96
1,75,97,132
1,75,86,72
1,75,108,60
1,72,103,96
1,72,100,108
1,71,91,0
1,72,93,12
1,72,105,108
1,72,105,120
1,69,100,4
1,70,84,100
1,71,62,0
1,70,95,124
1,74,78,84
1,73,71,0
1,73,83,24
1,74,67,0
1,74,86,24
1,70,95,112
1,74,91,96
1,73,95,4
1,74,96,24
1,70,101,96
1,74,98,112
1,73,94,28
1,74,95,32
1,74,90,88
1,74,91,108
1,74,89,100
1,74,96,60
1,72,96,108
1,72,103,164
1,72,96,100
1,72,100,116
1,72,98,128
1,69,95,16
1,69,89,104
1,69,121,144
1,72,96,60
1,69,108,100
1,69,100,80
1,65,98,28
1,65,96,104
1,74,89,104
1,73,94,28
1,74,95,24
1,70,101,76
1,74,93,116
1,73,95,12
1,74,93,24
1,70,101,100
1,74,89,100
1,73,91,0
1,74,87,100
1,74,90,124
1,74,84,128
1,74,89,100
1,74,90,52
1,72,90,104
1,72,96,96
1,71,85,16
1,72,93,28
1,72,96,120
1,75,108,132
1,75,99,92
1,74,98,76
1,72,96,92
1,72,89,80
1,71,93,16
1,72,96,40
1,72,86,136
1,72,93,120
1,69,98,96
1,70,86,20
1,70,99,120
1,74,96,56
1,73,99,4
1,74,95,16
1,70,97,120
1,74,89,108
1,73,94,12
1,74,88,28
1,70,97,116
1,74,89,108
1,73,95,20
1,74,93,40
1,74,86,140
1,74,87,116
1,74,88,112
1,74,95,68
1,72,93,108
1,72,112,172
1,72,100,0
1,72,103,120
1,72,105,128
1,72,100,112
1,69,98,40
1,69,100,108
1,65,116,288
1,63,112,32
1,62,116,76
1,60,116,60
1,58,116,80
1,72,105,2288
1,69,98,0
1,70,97,0
1,74,96,0
1,72,108,24
1,75,95,0
1,74,98,92
1,77,95,0
1,75,101,88
1,79,103,0
1,78,88,12
1,74,87,0
1,75,91,12
1,79,100,0
1,70,112,2152
1,65,95,0
1,72,88,16
1,69,96,0
1,70,99,4
1,74,93,4
1,79,91,108
1,74,98,0
1,77,95,104
1,74,95,0
1,75,93,2160
1,74,88,16
1,72,87,8
1,69,89,8
1,70,89,2176
1,67,90,12
1,65,87,0
1,70,88,16
1,69,93,2216
1,72,105,0
1,74,89,0
1,70,101,0
1,72,100,0
1,75,94,0
1,74,93,80
1,77,96,0
1,75,99,88
1,79,96,0
1,74,86,4
1,78,88,0
1,79,95,4
1,75,88,0
1,65,91,2100
1,70,108,0
1,72,89,16
1,69,91,0
1,70,95,8
1,74,91,0
1,79,91,88
1,74,91,0
1,77,89,92
1,74,90,0
1,75,104,2128
1,74,86,20
1,72,83,8
1,69,83,12
1,65,95,2284
1,67,95,8
1,65,95,188
1,70,95,188
1,63,108,2352
1,60,89,0
1,62,85,16
1,65,86,0
1,63,80,12
1,67,88,0
1,63,84,92
1,67,82,0
1,63,92,272
1,67,91,0
1,68,82,32
1,65,90,0
1,67,88,24
1,70,80,0
1,70,80,100
1,67,87,0
1,68,61,0
1,70,86,476
1,67,101,0
1,74,82,28
1,70,88,0
1,72,82,12
1,75,78,0
1,75,77,92
1,72,82,0
1,72,79,76
1,68,86,0
1,71,78,20
1,67,82,0
1,72,82,36
1,68,82,0
1,72,82,68
1,75,78,0
1,75,80,100
1,72,84,0
1,68,88,92
1,72,84,0
1,71,78,16
1,67,94,12
1,72,82,16
1,68,80,12
1,58,95,2564
1,62,90,0
1,63,82,36
1,60,88,0
1,62,81,32
1,65,85,0
1,62,86,104
1,65,87,0
1,62,84,280
1,65,88,0
1,63,86,8
1,67,90,0
1,65,89,8
1,68,82,4
1,68,84,96
1,65,89,0
1,68,87,480
1,65,86,4
1,70,85,28
1,67,85,0
1,74,82,100
1,70,81,0
1,70,83,104
1,74,86,0
1,72,84,92
1,68,88,4
1,71,84,4
1,67,88,0
1,68,89,16
1,72,86,0
1,67,105,3068
1,67,98,152
1,67,103,112
1,67,98,96
1,67,108,280
1,67,96,88
1,67,105,140
1,67,96,100
1,67,98,88
1,67,100,124
1,68,91,20
1,62,103,408
1,62,103,68
1,65,93,16
1,65,83,56
1,65,89,84
1,65,84,120
1,65,95,92
1,63,93,188
1,58,95,136
1,62,87,4
1,63,86,20
1,62,105,116
1,62,96,68
1,63,85,100
1,63,101,196
1,63,88,236
1,60,85,0
1,67,87,0
1,67,105,12
1,65,91,188
1,63,97,156
1,62,103,164
1,63,99,180
1,62,98,164
1,60,100,188
1,58,80,144
1,65,82,0
1,62,86,0
1,65,93,96
1,63,94,188
1,62,93,0
1,60,91,188
1,58,92,192
1,70,97,548
1,71,86,4
1,70,91,12
1,70,99,100
1,74,86,16
1,70,94,16
1,75,97,144
1,63,116,1612
1,60,91,0
1,65,86,4
1,62,87,0
1,63,86,12
1,67,88,0
1,63,86,92
1,67,88,0
1,63,95,240
1,67,93,0
1,68,74,4
1,65,88,0
1,67,86,8
1,70,83,0
1,70,88,96
1,67,91,0
1,67,98,280
1,70,97,0
1,70,88,0
1,74,79,0
1,75,85,96
1,72,91,0
1,72,88,84
1,75,88,0
1,68,92,56
1,72,88,0
1,71,83,4
1,67,93,0
1,68,85,16
1,72,87,0
1,58,92,3620
1,62,85,0
1,60,86,28
1,63,76,0
1,65,86,8
1,62,82,4
1,65,84,92
1,62,84,0
1,62,91,272
1,65,88,0
1,67,84,0
1,63,95,0
1,68,84,28
1,65,95,4
1,68,84,84
1,65,96,0
1,68,104,476
1,65,93,4
1,70,89,20
1,67,95,0
1,70,97,28
1,74,95,0
1,70,104,112
1,74,96,0
1,72,89,120
1,68,94,4
1,67,95,8
1,71,87,0
1,68,93,12
1,72,90,0
1,67,98,3116
1,67,88,152
1,67,86,108
1,67,89,132
1,67,77,320
1,67,84,116
1,67,87,104
1,67,86,120
1,67,86,132
1,67,88,92
1,68,80,24
1,62,93,300
1,62,88,104
1,65,89,36
1,65,87,92
1,65,96,96
1,65,100,104
1,65,96,84
1,63,91,8
1,58,99,296
1,62,86,192
1,63,89,4
1,62,88,84
1,62,88,100
1,62,89,116
1,58,85,12
1,58,99,236
2,29,127,768
2,29,127,256
2,29,127,264
2,29,127,272
2,34,127,276
2,29,127,276
2,34,127,280
2,29,127,276
2,34,127,284
2,29,127,292
2,29,127,268
2,29,127,292
2,36,127,292
2,29,127,288
2,36,127,256
2,29,127,292
2,36,127,284
2,29,127,296
2,34,127,264
2,29,127,300
2,34,127,276
2,29,127,276
2,34,127,272
2,34,127,296
2,34,127,300
2,29,127,296
2,29,127,248
2,29,127,304
2,36,127,276
2,29,125,276
2,36,127,260
2,29,127,292
2,36,127,296
2,29,127,304
2,34,127,292
2,29,127,300
2,34,127,164
2,29,124,276
2,34,127,304
2,29,127,284
2,34,127,264
2,29,127,292
2,29,127,264
2,29,127,288
2,36,127,256
2,29,127,288
2,36,127,212
2,29,127,288
2,36,127,284
2,29,127,292
2,34,127,292
2,29,127,308
2,34,127,208
2,29,127,284
2,34,127,284
2,34,127,284
2,34,127,304
2,29,127,304
2,29,127,232
2,29,122,300
2,36,127,292
2,29,124,240
2,36,127,240
2,29,127,256
2,29,127,304
2,34,127,36
2,34,127,288
2,29,127,260
2,36,127,268
2,41,127,108
2,36,117,828
2,29,119,296
2,36,127,272
2,30,127,296
2,29,127,0
2,31,127,20
2,34,127,52
2,31,127,268
2,34,127,68
2,34,127,844
2,29,127,284
2,34,126,256
2,29,127,264
2,36,127,272
2,29,127,264
2,36,127,276
2,29,127,292
2,36,127,292
2,29,124,280
2,36,127,276
2,29,127,276
2,36,127,256
2,29,124,244
2,36,127,244
2,29,125,252
2,34,127,264
2,29,124,296
2,34,127,268
2,34,127,308
2,29,127,196
2,36,127,216
2,41,124,20
2,36,127,804
2,29,127,260
2,36,127,256
2,29,127,268
2,31,127,36
2,34,127,64
2,34,127,0
2,31,127,248
2,34,127,12
2,34,127,820
2,29,127,260
2,34,127,264
2,29,125,272
2,36,127,272
2,29,125,224
2,36,127,268
2,29,125,224
2,36,127,244
2,29,125,244
2,36,127,280
2,29,125,264
2,36,127,268
2,29,125,248
2,36,127,284
2,29,127,264
2,34,127,284
2,29,127,292
2,34,127,280
2,34,127,312
2,39,127,296
2,36,127,36
2,34,127,20
2,31,127,12
2,27,127,64
2,34,126,272
2,39,118,300
2,34,126,256
2,39,114,272
2,34,122,260
2,39,120,292
2,34,127,284
2,39,118,288
2,34,126,280
2,39,116,296
2,34,127,288
2,41,125,280
2,38,124,92
2,36,122,100
2,34,126,96
2,41,115,176
2,34,124,212
2,41,120,240
2,34,127,228
2,41,118,276
2,34,127,252
2,41,119,252
2,34,127,280
2,41,120,288
2,34,127,256
2,41,118,268
2,34,127,272
2,39,126,276
2,41,127,100
2,39,127,96
2,38,117,4
2,36,127,8
2,34,126,28
2,39,126,32
2,34,127,204
2,39,122,244
2,34,127,200
2,39,127,240
2,39,123,0
2,41,127,136
2,43,125,36
2,39,127,56
2,41,127,64
2,39,127,236
2,39,127,248
2,34,127,244
2,39,127,268
2,34,127,260
2,32,127,244
2,34,127,148
2,36,127,92
2,39,127,60
2,41,127,120
2,34,127,208
2,41,120,228
2,34,127,244
2,39,124,216
2,34,127,272
2,39,126,236
2,34,127,252
2,39,127,232
2,34,127,216
2,41,122,224
2,34,127,216
2,39,127,260
2,34,127,252
2,39,127,244
2,39,127,296
2,36,127,316
2,38,127,4
2,39,127,28
2,38,127,16
2,36,127,44
2,38,127,0
2,39,127,20
2,41,120,96
2,43,127,92
2,43,127,52
2,43,127,136
2,43,127,132
2,34,127,260
2,36,124,284
2,38,120,28
2,36,122,32
2,34,127,52
2,36,118,92
2,38,118,16
2,39,127,20
2,42,123,20
2,41,127,0
2,34,127,16
2,34,127,284
2,34,127,256
2,35,122,60
2,34,127,56
2,34,127,120
2,38,118,92
2,34,127,68
2,39,127,116
2,36,127,100
2,34,127,80
2,31,124,80
2,39,116,76
2,34,127,240
2,39,127,276
2,34,127,276
2,39,126,288
2,34,127,288
2,39,126,288
2,34,127,316
2,39,121,232
2,34,127,260
2,39,123,308
2,34,127,304
2,41,127,276
2,41,119,0
2,38,124,244
2,36,127,104
2,34,127,104
2,41,118,136
2,34,127,192
2,41,120,236
2,34,127,208
2,41,120,248
2,34,126,240
2,41,117,264
2,34,127,240
2,41,124,268
2,34,127,220
2,41,122,248
2,34,127,220
2,39,127,224
2,41,122,236
2,39,127,232
2,38,127,4
2,36,127,8
2,34,124,16
2,39,121,16
2,34,127,224
2,39,126,308
2,34,127,248
2,39,127,268
2,41,112,40
2,43,120,32
2,39,123,8
2,41,119,16
2,39,127,204
2,39,127,252
2,34,127,228
2,39,126,260
2,34,127,232
2,32,127,280
2,32,127,0
2,34,127,188
2,36,124,92
2,39,127,88
2,41,119,160
2,34,127,188
2,41,120,244
2,34,127,228
2,39,127,256
2,34,127,212
2,39,127,256
2,34,127,244
2,39,127,252
2,34,127,192
2,41,120,236
2,34,127,224
2,39,127,220
2,34,127,260
2,39,127,228
2,27,127,288
3,65,90,760
3,57,97,0
3,60,95,0
3,63,92,0
3,65,95,268
3,60,99,0
3,63,94,0
3,57,95,4
3,57,97,256
3,60,94,0
3,63,93,0
3,65,92,4
3,62,92,476
3,65,87,0
3,64,77,4
3,61,84,0
3,62,87,8
3,65,87,0
3,58,90,96
3,62,88,0
3,62,89,180
3,65,86,0
3,64,78,8
3,61,82,0
3,62,84,12
3,65,87,16
3,58,81,84
3,62,78,0
3,62,89,244
3,65,84,0
3,64,81,12
3,61,90,0
3,62,84,20
3,65,90,0
3,65,99,108
3,62,90,0
3,70,94,0
3,65,99,100
3,62,90,0
3,72,104,0
3,62,86,64
3,70,92,4
3,65,89,0
3,65,97,56
3,62,89,0
3,70,98,0
3,60,85,112
3,69,86,0
3,63,88,0
3,69,89,80
3,60,95,0
3,68,79,20
3,59,80,8
3,60,95,40
3,69,92,0
3,70,87,132
3,63,100,0
3,67,95,8
3,72,83,116
3,63,93,0
3,69,87,0
3,65,88,80
3,62,86,0
3,70,88,4
3,70,83,56
3,67,89,0
3,63,90,0
3,69,82,124
3,60,90,4
3,63,92,0
3,60,95,88
3,69,95,0
3,68,81,28
3,59,85,12
3,69,94,40
3,60,95,0
3,63,91,120
3,60,88,0
3,67,86,0
3,63,90,72
3,67,95,0
3,60,95,0
3,66,73,24
3,62,79,4
3,67,82,52
3,62,99,0
3,65,78,16
3,65,90,124
3,58,93,4
3,62,95,0
3,62,97,108
3,65,92,4
3,61,92,4
3,64,85,0
3,62,89,12
3,65,92,12
3,62,89,108
3,58,96,12
3,62,104,76
3,65,94,0
3,61,94,20
3,64,84,0
3,62,94,20
3,65,94,0
3,62,90,108
3,58,100,0
3,62,92,104
3,65,88,0
3,61,91,12
3,64,79,0
3,62,84,24
3,65,87,0
3,62,99,132
3,65,102,0
3,70,100,0
3,65,99,112
3,62,92,0
3,72,102,4
3,70,98,80
3,65,95,0
3,62,87,0
3,62,88,52
3,65,102,0
3,70,98,0
3,63,91,108
3,60,85,0
3,69,89,0
3,65,99,192
3,60,95,0
3,69,88,0
3,60,99,0
3,69,95,0
3,60,90,128
3,65,92,0
3,69,94,0
3,69,80,128
3,65,82,8
3,64,88,0
3,63,67,16
3,67,90,64
3,63,98,0
3,67,97,60
3,63,100,0
3,57,104,116
3,65,104,8
3,65,115,108
3,57,111,0
3,67,99,44
3,63,103,0
3,57,115,56
3,65,107,0
3,63,98,44
3,57,95,0
3,63,107,56
3,57,115,0
3,62,90,104
3,58,98,12
3,62,86,92
3,65,88,0
3,64,81,16
3,61,93,12
3,65,90,16
3,62,85,0
3,62,89,120
3,58,93,0
3,65,94,84
3,62,88,8
3,64,85,16
3,61,91,0
3,62,85,28
3,65,88,0
3,58,87,116
3,62,85,0
3,62,86,48
3,65,84,0
3,61,85,4
3,64,85,0
3,62,84,28
3,65,89,0
3,70,93,128
3,65,99,0
3,62,92,0
3,65,92,128
3,72,99,0
3,62,87,0
3,70,86,48
3,65,85,4
3,62,79,0
3,65,89,52
3,70,92,0
3,62,82,0
3,63,85,132
3,69,81,0
3,60,81,0
3,69,92,84
3,60,95,4
3,68,82,32
3,59,84,0
3,63,63,12
3,69,86,32
3,60,94,4
3,70,90,136
3,63,98,0
3,67,97,4
3,63,93,136
3,72,85,0
3,69,82,4
3,70,85,60
3,65,83,0
3,62,84,4
3,63,100,68
3,70,92,0
3,67,78,16
3,63,94,124
3,60,94,0
3,69,89,0
3,69,94,88
3,60,99,0
3,68,85,20
3,59,87,8
3,60,89,40
3,69,90,0
3,67,85,124
3,63,94,0
3,63,91,68
3,67,87,0
3,66,92,24
3,60,94,0
3,67,92,36
3,58,98,0
3,62,99,0
3,62,92,120
3,58,93,8
3,65,87,0
3,65,86,92
3,62,102,12
3,64,86,4
3,61,98,4
3,62,90,16
3,65,92,0
3,62,90,112
3,58,98,0
3,62,92,48
3,65,88,0
3,64,84,16
3,61,93,0
3,62,92,20
3,65,92,0
3,58,94,124
3,62,84,0
3,65,90,104
3,62,102,0
3,61,96,8
3,64,87,0
3,62,85,24
3,65,94,4
3,65,92,116
3,62,89,0
3,70,92,0
3,62,83,108
3,72,99,0
3,65,90,0
3,70,90,52
3,65,92,4
3,62,86,0
3,70,93,48
3,62,85,0
3,65,97,4
3,60,84,108
3,69,85,0
3,63,86,0
3,69,90,312
3,60,95,4
3,69,92,112
3,60,94,0
3,69,89,116
3,60,95,0
3,63,94,68
3,67,89,0
3,63,94,48
3,67,94,0
3,65,90,128
3,57,102,0
3,57,111,140
3,65,111,0
3,63,100,80
3,55,102,4
3,53,92,72
3,62,88,0
3,61,87,12
3,60,82,60
3,51,103,0
3,58,103,120
3,50,90,4
3,65,92,268
