track,note,velocity,time
1,60,123,4
1,72,127,0
1,62,124,8
1,74,125,0
1,64,127,24
1,76,127,0
1,65,127,32
1,77,127,0
1,66,127,112
1,78,127,0
1,67,127,4
1,79,127,0
1,60,123,4
1,72,127,0
1,70,127,252
1,82,127,0
1,69,127,104
1,81,127,0
1,67,127,4
1,79,127,0
1,66,127,112
1,78,127,0
1,79,127,8
1,67,127,4
1,72,127,276
1,76,127,0
1,82,127,0
1,84,127,0
1,67,117,18800
1,71,119,0
1,77,123,0
1,77,121,312
1,67,115,0
1,71,113,0
1,77,127,328
1,74,127,0
1,72,118,12
1,76,105,0
1,74,117,4
1,71,121,4
1,73,127,112
1,74,118,4
1,71,120,16
1,67,114,4
1,75,127,196
1,76,113,12
1,72,122,196
1,67,116,404
1,71,118,0
1,77,121,0
1,67,112,312
1,71,111,0
1,77,114,0
1,74,115,320
1,77,120,0
1,72,114,192
1,76,103,0
1,71,119,4
1,74,117,0
1,68,126,140
1,67,120,4
1,76,122,4
1,74,122,12
1,67,121,304
1,64,111,4
1,72,125,0
1,64,114,112
1,67,118,0
1,72,123,0
1,72,127,116
1,72,118,44
1,72,118,36
1,64,105,192
1,67,106,0
1,60,101,0
1,60,104,104
1,64,103,0
1,67,106,4
1,72,127,40
1,72,121,56
1,72,122,48
1,65,109,192
1,69,112,0
1,60,110,0
1,60,112,108
1,65,115,0
1,69,118,4
1,72,121,60
1,72,105,52
1,60,112,52
1,72,127,0
1,64,117,0
1,67,115,0
1,63,113,56
1,66,117,0
1,69,127,0
1,72,125,0
1,60,108,0
1,60,106,96
1,64,112,0
1,72,127,0
1,67,123,0
1,72,122,84
1,84,116,0
1,72,117,48
1,84,114,0
1,72,112,48
1,84,104,0
1,72,120,108
1,84,118,0
1,79,119,18544
1,77,118,132
1,82,124,128
1,81,119,132
1,86,123,120
1,84,117,116
1,91,123,120
1,89,127,216
1,88,111,144
1,87,124,16
1,86,118,128
1,84,116,124
1,82,118,120
1,81,101,124
1,79,89,120
1,77,86,124
1,77,118,11080
1,74,120,12
1,77,115,100
1,82,112,12
1,86,123,12
1,77,127,296
1,81,125,0
1,85,127,0
1,69,118,12336
1,72,119,0
1,69,117,40
1,72,111,0
1,69,116,36
1,72,123,0
1,68,111,108
1,71,109,0
1,72,118,28
1,69,119,4
1,70,112,36
1,74,111,0
1,70,114,32
1,74,111,0
1,74,118,52
1,70,120,4
1,69,120,124
1,73,123,0
1,70,112,40
1,74,118,4
1,72,118,68
1,76,118,0
1,72,122,184
1,76,113,0
1,72,103,32
1,74,120,0
1,70,124,112
1,76,116,0
1,69,127,124
1,77,127,0
1,89,122,308
1,88,120,24
1,86,118,40
1,88,117,44
1,89,119,48
1,86,127,120
1,82,125,36
1,88,115,0
1,82,123,128
1,88,117,4
1,86,118,112
1,84,119,0
1,82,126,8
1,84,106,24
1,86,119,8
1,80,127,132
1,76,122,0
1,77,108,24
1,81,104,0
1,81,118,104
1,84,113,0
1,81,112,48
1,84,110,0
1,81,115,44
1,84,111,0
1,80,103,104
1,83,110,0
1,81,107,8
1,84,111,0
1,82,120,72
1,86,111,0
1,82,112,40
1,86,102,0
1,82,123,52
1,86,118,0
1,81,113,132
1,85,125,0
1,82,117,24
1,86,114,0
1,85,120,12
1,88,115,0
1,85,121,40
1,88,106,0
1,85,124,48
1,88,120,0
1,86,120,100
1,85,119,20
1,88,123,0
1,86,113,88
1,89,114,0
1,74,120,168
1,77,122,0
1,82,125,4
1,74,119,108
1,77,122,0
1,80,121,0
1,83,119,4
1,77,122,124
1,81,119,0
1,84,122,0
1,77,120,120
1,81,118,0
1,86,127,0
1,81,118,108
1,77,113,4
1,70,109,136
1,74,112,0
1,77,114,0
1,79,118,0
1,70,114,152
1,74,114,0
1,81,118,0
1,76,116,4
1,72,106,156
1,77,118,0
1,77,121,188
1,79,112,120
1,81,121,116
1,82,127,120
1,84,119,120
1,86,127,68
1,87,127,56
1,86,127,116
1,84,127,132
1,82,127,152
1,77,117,12524
1,74,118,8
1,77,117,0
1,82,120,24
1,86,116,0
1,77,117,232
1,81,116,0
1,85,124,0
1,74,106,11984
1,77,111,0
1,82,113,0
2,36,127,3076
2,38,127,104
2,40,127,120
2,41,127,112
2,42,127,116
2,43,127,116
2,36,127,100
2,36,127,276
2,36,127,884
2,41,127,140
2,36,127,136
2,43,127,124
2,36,127,156
2,41,127,176
2,40,127,120
2,38,127,132
2,36,127,140
2,41,127,148
2,36,127,140
2,41,127,168
2,36,127,140
2,43,127,164
2,36,127,136
2,40,127,144
2,36,127,108
2,43,127,124
2,36,127,136
2,43,127,156
2,36,127,160
2,40,127,176
2,36,127,108
2,43,127,160
2,36,127,144
2,43,127,156
2,36,127,128
2,38,127,124
2,40,127,140
2,41,127,108
2,40,127,132
2,38,127,140
2,36,127,148
2,41,127,164
2,36,127,116
2,41,127,156
2,36,127,136
2,34,127,208
2,29,127,152
2,34,127,160
2,29,127,136
2,36,127,148
2,31,127,96
2,36,127,156
2,36,127,164
2,41,127,184
2,36,127,144
2,41,127,152
2,29,127,180
2,31,127,104
2,33,127,92
2,35,127,92
2,36,127,104
2,37,127,112
2,38,127,120
2,31,127,108
2,31,127,208
2,31,127,136
2,36,127,156
2,36,127,172
2,31,127,196
2,33,127,100
2,35,127,100
2,36,127,120
2,37,127,116
2,38,127,124
2,31,127,104
2,31,127,208
2,31,127,180
2,36,127,368
2,36,127,80
2,36,127,244
2,36,127,268
2,36,127,296
2,36,127,164
2,36,127,140
2,41,127,360
2,36,127,100
2,43,127,120
2,36,127,96
2,41,127,108
2,40,127,96
2,38,127,112
2,36,127,120
2,41,127,136
2,36,127,124
2,41,127,116
2,36,127,88
2,43,127,112
2,36,127,116
2,40,127,92
2,36,127,116
2,43,127,104
2,36,127,120
2,43,127,72
2,36,127,140
2,40,127,116
2,36,127,72
2,43,127,112
2,36,127,100
2,43,127,88
2,36,127,104
2,38,127,92
2,40,127,144
2,41,127,136
2,40,127,120
2,38,127,128
2,36,127,140
2,41,127,132
2,36,127,92
2,41,127,100
2,36,127,84
2,34,127,156
2,29,127,132
2,34,127,116
2,29,127,144
2,36,127,84
2,31,127,100
2,36,127,112
2,36,127,52
2,41,127,196
2,38,127,16
2,36,127,112
2,29,127,100
2,29,127,244
2,43,127,164
2,41,127,84
2,46,127,84
2,45,127,92
2,50,127,92
2,48,127,112
2,55,127,104
2,41,127,192
2,34,127,1084
2,34,127,160
2,38,127,56
2,38,127,124
2,41,127,128
2,36,127,92
2,29,127,144
2,33,127,112
2,36,127,92
2,36,127,64
2,29,127,124
2,29,127,108
2,34,127,136
2,33,127,76
2,31,127,80
2,29,127,76
2,34,127,96
2,29,127,104
2,34,127,0
2,29,127,92
2,41,127,64
2,36,127,100
2,41,127,72
2,36,127,104
2,41,127,28
2,36,127,100
2,29,127,140
2,33,127,36
2,34,127,56
2,33,127,20
2,31,127,4
2,29,127,56
2,29,127,248
2,34,127,68
2,34,127,96
2,38,127,4
2,38,127,124
2,41,127,20
2,36,127,80
2,29,127,52
2,33,127,4
2,36,127,32
2,36,127,104
2,29,127,44
2,41,127,32
2,34,127,80
2,33,127,64
2,31,127,84
2,29,127,72
2,34,127,92
2,34,127,0
2,29,127,112
2,34,127,88
2,34,127,152
2,39,127,120
2,34,127,132
2,39,127,64
2,39,127,164
2,34,127,96
2,34,127,120
2,29,127,148
2,29,127,132
2,34,127,196
2,34,127,0
2,46,127,76
2,41,127,76
2,38,127,84
2,34,127,92
2,34,127,264
2,29,127,220
2,29,127,176
2,34,127,144
2,34,127,236
2,36,127,104
2,36,127,216
2,29,127,180
2,29,127,172
2,41,127,156
2,36,127,152
2,43,127,96
2,36,127,144
2,43,127,128
2,36,127,100
2,41,127,164
2,36,127,136
2,41,127,112
2,29,127,104
2,34,127,112
2,34,127,204
2,33,127,104
2,33,127,124
2,36,127,100
2,38,127,100
2,38,127,128
2,34,127,144
2,35,127,88
2,36,127,16
2,36,127,140
2,31,127,128
2,36,127,132
2,29,127,100
2,29,127,152
2,41,127,1256
2,34,127,80
2,33,127,120
2,31,127,112
2,29,127,84
2,34,127,136
2,34,127,160
2,38,127,96
2,38,127,124
2,41,127,120
2,36,127,88
2,29,127,172
2,33,127,68
2,36,127,40
2,36,127,112
2,29,127,120
2,29,127,96
2,34,127,128
2,33,127,100
2,31,127,104
2,29,127,92
2,34,127,136
2,34,127,0
2,29,127,116
2,34,127,112
2,29,127,24
2,36,127,112
2,29,127,104
2,36,127,128
2,29,127,96
2,36,127,100
2,29,127,104
2,36,127,120
2,33,127,44
2,34,127,24
2,33,127,48
2,31,127,52
2,29,127,92
2,29,127,236
2,34,127,56
2,34,127,148
2,38,127,128
2,38,127,112
2,41,127,96
2,36,127,64
2,29,127,80
2,33,127,76
2,36,127,120
2,36,127,132
2,29,127,128
2,29,127,108
2,34,127,176
2,33,127,8
2,31,127,112
2,29,127,92
2,31,127,384
2,33,127,120
2,34,127,100
2,29,127,144
2,34,127,28
2,34,127,156
2,39,127,100
2,34,127,152
2,39,127,28
2,39,127,192
2,34,127,116
2,34,127,84
2,29,127,180
2,29,127,80
2,34,127,168
2,29,127,152
2,34,127,384
2,34,127,276
3,60,124,932
3,62,120,120
3,64,121,120
3,65,120,128
3,66,127,124
3,67,127,132
3,60,127,112
3,70,127,268
3,69,127,112
3,67,127,36
3,66,126,156
3,67,123,128
3,60,119,2388
3,65,117,192
3,69,112,8
3,72,104,8
3,69,109,8
3,65,103,8
3,64,103,4
3,70,104,764
3,64,105,20
3,60,106,368
3,64,108,1136
3,67,109,192
3,72,116,20
3,69,108,16
3,65,105,12
3,60,101,564
3,65,113,180
3,69,113,8
3,72,106,8
3,62,107,292
3,65,113,192
3,70,113,168
3,74,104,8
3,72,108,16
3,65,112,28
3,55,127,704
3,67,116,4
3,57,122,96
3,69,116,16
3,71,120,116
3,59,120,0
3,60,121,120
3,72,122,0
3,61,127,116
3,73,127,0
3,62,125,112
3,74,124,0
3,55,117,108
3,67,121,0
3,55,115,1560
3,67,117,4
3,55,100,104
3,69,121,0
3,57,109,20
3,59,122,100
3,71,122,4
3,60,123,100
3,72,120,0
3,61,118,112
3,73,127,4
3,74,121,112
3,62,125,0
3,55,113,112
3,67,120,20
3,60,112,1340
3,72,114,0
3,72,111,32
3,60,96,24
3,72,113,28
3,60,118,20
3,60,121,140
3,72,124,16
3,60,120,40
3,72,122,16
3,60,117,36
3,72,121,12
3,60,110,120
3,72,120,16
3,60,118,48
3,72,116,0
3,60,120,44
3,72,119,0
3,60,120,284
3,72,115,0
3,60,112,240
3,72,108,12
3,60,122,2048
3,65,117,116
3,69,120,0
3,72,104,12
3,69,113,20
3,65,108,64
3,64,105,128
3,60,113,128
3,64,114,948
3,67,117,156
3,70,110,8
3,74,109,12
3,72,113,368
3,69,119,8
3,67,112,276
3,65,109,0
3,62,113,2240
3,65,115,188
3,70,125,8
3,74,109,12
3,72,113,752
3,69,117,1140
3,65,107,84
3,67,118,668
3,65,111,4
3,70,118,56
3,69,117,20
3,74,117,44
3,72,113,12
3,79,125,28
3,58,127,1696
3,62,117,740
3,65,114,760
3,63,116,1504
3,62,112,12
3,58,115,164
3,62,114,1144
3,65,113,8
3,72,119,2296
3,70,119,772
3,65,114,8
3,62,107,184
3,62,114,152
3,58,118,24
3,62,118,760
3,65,115,364
3,63,112,56
3,62,109,272
3,65,111,388
3,72,110,164
3,70,113,188
3,62,116,20
3,63,114,368
3,65,123,336
3,70,118,8
3,65,113,4
3,70,113,384
3,70,114,252
3,62,107,9388
3,65,117,0
3,70,110,0
3,62,104,96
3,65,106,0
3,71,113,4
3,65,107,136
3,72,109,0
3,69,119,0
3,74,115,108
3,69,115,108
3,58,106,176
3,67,122,4
3,58,108,112
3,69,119,0
3,64,108,4
3,57,102,128
3,65,107,0
3,58,122,3460
3,62,123,8
3,65,114,16
3,63,126,36
3,65,117,28
3,62,104,16
3,65,118,588
3,70,112,156
3,62,117,12
3,65,117,184
3,70,114,148
3,69,116,8
3,65,119,1148
3,63,110,8
3,62,120,1516
3,65,120,564
3,70,113,8
3,65,111,460
3,62,118,148
3,58,126,0
3,65,119,8
3,63,104,4
3,65,108,152
3,62,107,24
3,65,123,556
3,70,117,8
3,74,106,16
3,70,106,388
3,65,103,8
3,67,114,728
3,70,116,308
3,72,116,48
3,70,121,188
3,65,118,28
3,70,126,384
3,70,127,292
4,48,109,932
4,60,109,0
4,50,109,104
4,62,109,0
4,52,109,104
4,64,109,0
4,53,109,104
4,65,109,0
4,54,109,104
4,66,109,0
4,55,109,104
4,67,109,0
4,48,109,104
4,60,109,0
4,70,109,264
4,58,109,0
4,57,109,84
4,69,109,0
4,55,109,32
4,67,109,0
4,54,109,108
4,66,109,0
4,67,109,124
4,55,109,0
4,60,109,284
4,67,109,0
4,70,109,0
4,72,109,0
4,64,109,0
4,57,109,420
4,60,109,0
4,65,109,0
4,57,109,300
4,60,109,0
4,65,109,0
4,60,109,288
4,58,109,4
4,64,109,0
4,58,109,292
4,60,109,4
4,64,109,0
4,57,109,272
4,60,109,0
4,65,109,0
4,57,109,300
4,60,109,0
4,65,109,0
4,57,109,304
4,60,109,0
4,65,109,0
4,57,109,316
4,60,109,0
4,65,109,0
4,57,109,316
4,60,109,0
4,65,109,0
4,57,109,312
4,60,109,0
4,65,109,0
4,60,109,312
4,57,109,4
4,65,109,0
4,57,109,308
4,60,109,0
4,65,109,0
4,58,109,296
4,60,109,0
4,64,109,0
4,58,109,312
4,60,109,0
4,64,109,0
4,58,109,316
4,60,109,0
4,64,109,0
4,60,109,304
4,58,109,4
4,64,109,0
4,58,109,312
4,60,109,0
4,64,109,0
4,58,109,312
4,60,109,0
4,64,109,0
4,58,109,292
4,60,109,0
4,64,109,0
4,58,109,304
4,60,109,0
4,64,109,0
4,60,109,308
4,58,109,4
4,64,109,0
4,58,109,308
4,60,109,0
4,64,109,0
4,58,109,300
4,60,109,0
4,64,109,0
4,58,109,308
4,60,109,0
4,64,109,0
4,58,109,312
4,60,109,0
4,64,109,0
4,58,109,296
4,60,109,0
4,64,109,0
4,58,109,308
4,60,109,4
4,64,109,0
4,58,109,312
4,60,109,0
4,64,109,0
4,57,109,316
4,60,109,0
4,65,109,0
4,57,109,304
4,60,109,0
4,65,109,0
4,57,109,312
4,60,109,0
4,65,109,0
4,60,109,120
4,57,109,0
4,65,109,0
4,57,109,120
4,60,109,0
4,65,109,0
4,57,109,320
4,60,109,0
4,65,109,0
4,57,109,312
4,60,109,0
4,65,109,0
4,57,109,312
4,60,109,0
4,65,109,0
4,57,109,312
4,60,109,0
4,65,109,0
4,58,109,296
4,62,109,0
4,65,109,0
4,58,109,312
4,62,109,0
4,65,109,0
4,58,109,316
4,62,109,0
4,65,109,0
4,58,109,312
4,65,109,0
4,62,109,0
4,58,109,320
4,60,109,0
4,64,109,0
4,58,109,304
4,60,109,0
4,64,109,0
4,58,109,308
4,60,109,0
4,64,109,0
4,58,109,312
4,60,109,0
4,64,109,0
4,57,109,312
4,60,109,0
4,65,109,0
4,57,109,292
4,60,109,0
4,65,109,0
4,57,109,124
4,60,109,0
4,65,109,0
4,57,109,292
4,65,109,0
4,60,109,4
4,43,109,304
4,55,109,0
4,45,109,116
4,57,109,0
4,59,109,104
4,47,109,4
4,48,109,112
4,60,109,0
4,49,109,116
4,61,109,4
4,62,109,88
4,50,109,4
4,43,109,100
4,55,109,0
4,43,109,1484
4,55,109,0
4,45,109,84
4,57,109,0
4,47,109,96
4,59,109,0
4,48,109,104
4,60,109,0
4,49,109,92
4,61,109,4
4,62,109,112
4,50,109,4
4,43,109,108
4,55,109,0
4,48,109,1496
4,60,109,0
4,48,109,324
4,60,109,0
4,48,109,276
4,60,109,0
4,48,109,180
4,60,109,0
4,48,109,192
4,60,109,0
4,57,109,680
4,60,109,0
4,65,109,0
4,57,109,304
4,60,109,4
4,65,109,0
4,58,109,280
4,60,109,0
4,64,109,0
4,58,109,284
