track,note,velocity,time
1,67,127,0
1,69,124,180
1,67,127,176
1,65,127,180
1,71,122,236
1,77,127,0
1,67,127,144
1,67,127,36
1,69,127,36
1,71,127,124
1,72,124,128
1,67,127,0
1,64,122,0
1,67,127,128
1,65,127,0
1,71,120,20
1,67,127,56
1,72,127,0
1,64,127,0
1,67,127,124
1,67,127,32
1,67,127,28
1,67,127,140
1,52,98,328
1,55,98,0
1,60,98,0
1,55,104,300
1,52,99,0
1,60,105,4
1,52,101,340
1,55,105,0
1,60,103,0
1,55,108,320
1,52,102,0
1,60,108,0
1,60,99,316
1,55,101,4
1,52,96,0
1,60,96,312
1,52,94,0
1,55,98,0
1,59,106,324
1,55,110,0
1,53,102,4
1,59,104,36
1,55,103,0
1,53,97,0
1,55,109,36
1,59,108,0
1,53,100,4
1,55,110,160
1,59,108,0
1,53,107,0
1,55,108,320
1,59,101,0
1,53,102,0
1,55,109,320
1,53,103,0
1,59,99,0
1,55,113,328
1,59,102,0
1,53,104,4
1,59,102,324
1,55,111,0
1,53,108,0
1,55,106,320
1,59,100,0
1,53,102,4
1,59,102,324
1,55,103,0
1,53,102,0
1,55,108,316
1,60,108,0
1,52,99,0
1,60,102,24
1,52,97,0
1,55,114,0
1,60,101,28
1,52,99,12
1,55,112,0
1,52,104,144
1,55,110,4
1,60,107,0
1,52,102,312
1,60,108,0
1,55,106,0
1,60,108,312
1,55,108,0
1,52,102,0
1,52,102,324
1,55,107,0
1,60,105,0
1,55,104,320
1,52,99,0
1,60,104,0
1,52,101,312
1,55,106,0
1,60,103,0
1,52,98,320
1,55,104,0
1,60,103,4
1,59,105,328
1,55,114,4
1,53,101,12
1,59,104,320
1,55,108,0
1,53,104,0
1,59,106,324
1,55,110,0
1,53,103,0
1,59,103,312
1,55,108,0
1,53,106,0
1,55,105,328
1,53,102,0
1,59,104,4
1,55,103,324
1,59,105,0
1,53,101,0
1,55,106,340
1,59,107,0
1,53,102,0
1,59,104,320
1,53,101,4
1,55,101,0
1,64,115,328
1,67,113,0
1,60,99,16
1,67,113,40
1,64,111,0
1,60,108,0
1,64,119,28
1,60,115,0
1,67,124,0
1,67,112,160
1,64,112,0
1,60,115,0
1,60,111,348
1,55,117,0
1,52,109,4
1,55,112,324
1,52,108,0
1,60,109,0
1,55,112,304
1,52,103,12
1,60,109,0
1,52,106,328
1,55,114,0
1,60,109,4
1,52,104,312
1,55,113,0
1,60,104,0
1,60,111,328
1,52,108,4
1,55,113,0
1,55,115,328
1,59,104,4
1,53,110,0
1,59,108,324
1,55,112,0
1,53,103,4
1,55,115,320
1,59,104,0
1,53,108,4
1,59,112,348
1,55,115,0
1,53,108,0
1,59,104,324
1,55,111,0
1,53,104,0
1,55,116,340
1,53,110,0
1,59,110,0
1,59,110,324
1,55,115,0
1,53,107,0
1,59,116,320
1,55,116,0
1,53,107,20
1,52,104,332
1,55,110,0
1,60,106,20
1,52,107,324
1,55,112,0
1,60,108,4
1,55,122,328
1,60,115,0
1,52,111,0
1,55,118,312
1,52,109,0
1,60,114,4
1,52,107,312
1,55,115,4
1,60,110,0
1,60,111,304
1,55,115,0
1,52,107,4
1,55,103,304
1,52,99,0
1,60,100,4
1,60,106,328
1,55,108,4
1,52,99,0
1,59,109,320
1,55,117,0
1,53,113,0
1,59,109,312
1,55,115,4
1,53,108,0
1,55,118,332
1,59,111,0
1,53,112,0
1,59,102,332
1,55,115,0
1,53,104,0
1,59,110,316
1,55,116,0
1,53,110,0
1,59,109,320
1,55,117,0
1,53,110,0
1,53,115,336
1,55,124,0
1,59,116,0
1,55,115,288
1,59,113,0
1,53,107,0
1,52,97,112
1,60,102,0
1,55,98,4
1,59,127,128
1,62,127,12
1,60,122,12
1,64,120,0
1,62,115,20
1,59,127,0
1,60,122,0
1,57,127,0
1,66,123,268
1,62,125,0
1,62,125,112
1,59,118,0
1,62,122,40
1,59,110,0
1,60,127,20
1,64,119,0
1,60,125,4
1,54,127,16
1,59,119,8
1,55,125,0
1,59,117,116
1,67,120,0
1,66,127,108
1,69,117,0
1,66,123,36
1,69,108,0
1,66,122,36
1,69,114,0
1,67,111,24
1,64,125,0
1,66,123,12
1,62,124,0
1,65,119,4
1,61,126,0
1,66,115,12
1,62,122,12
1,64,114,4
1,60,122,0
1,60,124,64
1,64,117,0
1,62,114,12
1,59,113,4
1,62,118,32
1,59,118,0
1,61,123,124
1,58,124,0
1,59,127,124
1,62,120,0
1,59,127,140
1,62,127,0
1,64,112,12
1,60,115,0
1,62,114,0
1,59,127,12
1,60,120,108
1,57,127,0
1,62,124,164
1,66,115,12
1,62,122,120
1,59,115,0
1,62,114,32
1,59,96,0
1,64,114,24
1,60,125,0
1,60,117,4
1,54,122,12
1,59,119,16
1,55,122,0
1,59,124,20
1,55,120,12
1,59,115,324
1,67,115,0
1,66,127,84
1,69,115,0
1,69,108,28
1,66,124,4
1,66,124,40
1,69,115,0
1,64,111,24
1,67,114,0
1,66,120,68
1,62,117,8
1,69,125,88
1,74,125,64
1,66,127,0
1,72,118,36
1,64,110,0
1,71,120,12
1,62,116,0
1,69,117,116
1,60,118,0
1,59,119,104
1,67,124,0
1,60,120,256
1,62,122,0
1,66,117,0
1,62,110,16
1,67,118,0
1,59,119,0
1,59,127,120
1,62,127,0
1,60,124,12
1,64,112,12
1,62,113,4
1,59,122,12
1,60,119,72
1,57,127,0
1,62,127,272
1,66,123,0
1,59,119,96
1,62,125,0
1,59,108,40
1,62,119,0
1,64,120,12
1,60,127,0
1,60,125,12
1,54,127,0
1,55,116,12
1,59,122,0
1,59,122,148
1,67,116,0
1,66,127,152
1,69,116,0
1,66,120,28
1,69,110,0
1,66,123,28
1,69,116,0
1,67,111,44
1,64,120,0
1,66,122,88
1,62,125,0
1,66,113,20
1,62,113,0
1,61,118,348
1,65,115,0
1,66,115,20
1,62,115,12
1,64,104,12
1,60,110,0
1,60,120,84
1,64,115,0
1,62,116,12
1,59,120,0
1,62,115,20
1,59,110,0
1,61,120,108
1,58,122,0
1,62,115,108
1,59,118,0
1,62,127,120
1,59,127,0
1,64,117,8
1,60,127,0
1,62,125,4
1,59,127,0
1,60,125,68
1,57,127,0
1,62,127,264
1,66,127,0
1,62,127,116
1,59,127,4
1,62,115,28
1,59,95,0
1,60,127,24
1,64,124,0
1,60,127,8
1,54,127,0
1,55,127,8
1,59,127,0
1,59,125,200
1,67,115,0
1,66,127,164
1,69,115,0
1,69,111,32
1,66,122,0
1,69,115,36
1,66,122,0
1,67,116,68
1,64,119,0
1,62,118,88
1,66,127,0
1,69,127,148
1,74,125,80
1,66,127,0
1,72,125,20
1,64,110,12
1,71,122,4
1,62,118,0
1,60,117,116
1,69,122,12
1,59,124,108
1,67,127,0
1,59,122,20
1,62,124,0
1,67,122,0
1,54,123,208
1,62,119,0
1,59,119,20
1,55,125,0
1,62,119,0
1,67,124,0
1,67,127,108
1,55,122,16
1,67,115,36
1,55,119,0
1,55,119,36
1,67,127,12
1,55,119,36
1,67,127,0
1,55,124,24
1,67,122,16
1,52,99,332
1,60,108,0
1,55,108,0
1,55,105,324
1,52,99,0
1,60,106,4
1,55,103,324
1,52,99,0
1,60,108,0
1,60,99,320
1,55,100,0
1,52,95,4
1,55,103,320
1,52,97,0
1,60,103,4
1,55,107,324
1,60,104,0
1,52,96,4
1,55,113,336
1,59,108,0
1,53,101,0
1,59,103,36
1,55,103,0
1,53,99,0
1,55,107,32
1,59,104,0
1,53,99,16
1,55,115,168
1,59,109,0
1,53,108,0
1,59,104,332
1,55,114,0
1,53,107,0
1,55,111,324
1,53,108,12
1,59,105,0
1,55,105,312
1,59,100,0
1,53,99,4
1,59,105,316
1,55,114,0
1,53,103,0
1,55,103,312
1,59,100,0
1,53,97,4
1,59,107,324
1,55,114,0
1,53,106,4
1,55,109,316
1,52,99,0
1,60,106,0
1,52,98,124
1,55,108,0
1,60,106,0
1,60,107,128
1,55,111,4
1,52,100,0
1,55,109,312
1,52,101,0
1,60,107,0
1,52,102,312
1,60,105,0
1,55,109,0
1,55,113,324
1,52,104,0
1,60,109,0
1,52,104,304
1,55,112,0
1,60,110,4
1,60,104,308
1,55,104,0
1,52,98,0
1,55,104,304
1,52,97,0
1,60,102,0
1,55,110,328
1,59,103,0
1,53,102,4
1,55,107,128
1,59,105,0
1,53,100,0
1,55,109,140
1,53,103,0
1,59,104,0
1,55,108,332
1,59,100,0
1,53,101,0
1,59,104,324
1,55,110,0
1,53,103,0
1,59,108,320
1,55,115,0
1,53,108,0
1,55,112,320
1,59,103,0
1,53,103,4
1,55,109,332
1,59,104,0
1,53,101,0
1,55,116,312
1,59,113,0
1,53,106,20
1,55,116,348
1,67,124,0
1,67,122,24
1,55,117,0
1,55,124,20
1,67,120,0
1,67,127,152
1,55,125,0
1,52,103,324
1,55,107,12
1,60,110,0
1,55,114,300
1,52,107,12
1,60,112,0
1,55,112,312
1,52,105,0
1,60,112,0
1,60,113,324
1,52,108,0
1,55,117,0
1,55,116,320
1,52,108,4
1,60,109,0
1,52,100,316
1,60,103,0
1,55,104,0
1,55,113,324
1,59,107,0
1,53,99,4
1,55,112,312
1,59,106,0
1,53,103,0
1,55,118,332
1,53,104,12
1,59,109,0
1,55,116,324
1,59,109,0
1,53,108,0
1,55,115,320
1,59,108,4
1,53,106,0
1,55,115,332
1,53,106,0
1,59,108,0
1,55,114,340
1,59,106,0
1,53,103,4
1,55,109,320
1,53,104,0
1,59,102,4
1,55,115,340
1,52,105,0
1,60,113,4
1,60,104,44
1,52,100,4
1,55,111,0
1,60,111,36
1,55,112,0
1,52,103,0
1,60,116,148
1,52,110,4
1,55,117,0
1,55,112,188
1,52,103,0
1,60,108,0
1,60,109,324
1,52,106,0
1,55,113,0
1,55,111,312
1,60,108,0
1,52,102,20
1,55,110,312
1,52,101,0
1,60,106,0
1,55,111,304
1,52,104,0
1,60,110,4
1,55,116,312
1,52,105,0
1,60,113,4
1,55,117,320
1,59,112,0
1,53,108,4
1,55,118,332
1,59,109,0
1,53,110,0
1,55,119,340
1,59,113,0
1,53,111,0
1,59,116,332
1,55,116,0
1,53,110,0
1,59,114,320
1,55,119,0
1,53,112,4
1,59,114,328
1,55,118,0
1,53,108,0
1,59,115,332
1,55,117,0
1,53,111,4
1,59,108,336
1,53,103,0
1,55,108,0
1,55,118,148
1,52,112,0
1,60,115,0
1,72,124,704
1,60,127,4
1,67,122,24
1,72,122,24
1,64,119,4
1,70,127,72
1,62,122,0
1,69,120,40
1,60,119,12
1,58,127,116
1,67,122,12
1,60,111,296
1,57,119,0
1,65,113,4
1,57,99,340
1,60,100,0
1,65,101,0
1,60,96,320
1,57,94,4
1,65,97,0
1,60,94,332
1,57,93,4
1,65,81,16
1,57,117,336
1,60,109,4
1,53,108,0
1,58,112,320
1,62,108,0
1,53,108,0
1,60,103,320
1,57,108,0
1,53,102,4
1,57,108,336
1,60,102,0
1,53,98,0
1,57,108,328
1,60,100,0
1,53,99,0
1,57,111,320
1,60,104,4
1,53,104,0
1,58,111,328
1,60,110,0
1,52,102,0
1,58,111,332
1,52,103,4
1,60,110,0
1,58,109,332
1,60,109,0
1,52,103,4
1,53,103,320
1,62,110,0
1,58,99,0
1,60,111,328
1,58,109,0
1,52,104,0
1,58,107,320
1,60,106,0
1,52,100,0
1,58,110,320
1,60,108,0
1,52,102,16
1,58,112,320
1,52,103,0
1,60,103,0
1,57,116,332
1,60,109,0
1,53,110,0
1,57,112,320
1,53,108,0
1,60,105,0
1,57,117,344
1,60,111,0
1,53,109,0
1,58,117,308
1,62,114,12
1,53,103,0
1,53,107,316
1,60,111,0
1,57,113,0
1,60,102,312
1,53,104,8
1,57,108,0
1,60,114,332
1,57,114,0
1,53,104,0
1,60,103,324
1,57,104,0
1,53,100,0
1,58,116,320
1,60,114,0
1,52,106,0
1,60,108,320
1,58,107,0
1,52,102,4
1,60,108,320
1,58,105,0
1,52,104,0
1,58,110,320
1,53,108,0
1,62,115,4
1,58,110,320
1,60,111,0
1,52,105,0
1,58,116,312
1,60,110,16
1,52,104,0
1,58,106,324
1,60,107,0
1,52,100,0
1,58,105,316
1,60,106,0
1,52,97,16
1,57,115,136
1,60,109,0
1,53,107,0
1,60,112,884
1,57,119,0
1,53,108,0
1,62,112,320
1,58,114,0
1,53,113,0
1,57,113,304
1,60,105,0
1,53,106,0
1,57,112,324
1,53,103,0
1,60,106,4
1,57,115,344
1,60,108,4
1,53,108,0
1,57,110,304
1,60,103,0
1,53,102,4
1,58,114,320
1,52,104,12
1,60,106,0
1,58,111,312
1,52,102,12
1,60,110,4
1,58,109,332
1,60,108,0
1,52,103,0
1,55,103,328
1,53,96,4
1,62,98,16
1,58,112,324
1,60,111,0
1,52,104,0
1,58,114,328
1,60,108,0
1,52,102,0
1,58,111,316
1,60,107,0
1,52,104,0
1,58,109,312
1,60,107,0
1,52,103,4
1,60,109,320
1,57,116,0
1,53,109,0
1,60,108,320
1,57,114,12
1,53,106,0
1,60,110,328
1,57,115,0
1,53,108,0
1,58,120,336
1,62,115,0
1,53,112,4
1,60,106,332
1,57,115,0
1,53,108,0
1,60,105,332
1,53,105,0
1,57,111,0
1,60,107,324
1,57,114,0
1,53,105,0
1,57,115,324
1,60,108,0
1,53,108,4
1,58,115,312
1,52,107,12
1,60,111,0
1,58,117,312
1,60,113,0
1,52,105,0
1,60,114,320
1,52,104,0
1,58,118,0
1,60,111,336
1,58,118,0
1,52,109,20
1,60,112,320
1,52,106,4
1,58,107,0
1,58,109,328
1,60,111,4
1,52,102,0
1,58,111,316
1,60,110,0
1,52,104,4
1,58,105,316
1,52,97,0
1,60,103,0
1,60,115,120
1,57,124,12
1,53,114,0
1,60,127,320
1,65,127,0
1,57,127,4
2,31,100,4992
2,31,100,92
2,33,100,192
2,35,100,148
2,36,100,168
2,31,100,128
2,36,100,104
2,36,100,588
2,31,100,120
2,36,100,136
2,31,100,136
2,36,100,160
2,31,100,112
2,40,100,16
2,38,100,48
2,31,100,52
2,38,100,132
2,31,100,112
2,38,100,140
2,31,100,120
2,38,100,140
2,31,100,80
2,33,100,192
2,35,100,152
2,36,100,176
2,31,100,128
2,36,100,140
2,31,100,140
2,36,100,152
2,31,100,160
2,36,100,144
2,31,100,132
2,40,100,24
2,38,100,24
2,31,100,64
2,38,100,124
2,31,100,132
2,38,100,144
2,31,100,160
2,38,100,128
2,31,100,88
2,33,100,76
2,35,100,76
2,36,100,48
2,36,100,604
2,31,100,156
2,36,100,124
2,31,100,136
2,36,100,148
2,31,100,144
2,40,100,52
2,38,100,60
2,31,100,104
2,38,100,144
2,31,100,120
2,38,100,160
2,31,100,152
2,38,100,176
2,31,100,40
2,33,100,56
2,35,100,88
2,36,100,76
2,31,100,148
2,36,100,176
2,31,100,172
2,36,100,160
2,31,100,172
2,36,100,156
2,31,100,148
2,38,100,248
2,31,100,132
2,38,100,144
2,31,100,148
2,38,100,156
2,31,100,148
2,38,100,132
2,38,100,0
2,31,100,84
2,33,100,196
2,35,100,0
2,36,100,192
2,33,100,524
2,38,100,136
2,33,100,92
2,38,100,116
2,31,100,124
2,38,100,152
2,31,100,104
2,38,100,156
2,33,100,140
2,37,100,112
2,33,100,136
2,38,100,100
2,31,100,108
2,38,100,132
2,31,100,132
2,38,100,140
2,33,100,148
2,38,100,188
2,33,100,116
2,38,100,144
2,31,100,124
2,38,100,132
2,31,100,116
2,38,100,128
2,33,100,164
2,38,100,152
2,33,100,152
2,38,100,124
2,31,100,188
2,38,100,224
2,31,100,8
2,33,100,556
2,38,100,148
2,33,100,108
2,38,100,100
2,31,100,108
2,38,100,128
2,31,100,136
2,38,100,88
2,33,100,136
2,37,100,132
2,33,100,96
2,38,100,104
2,31,100,112
2,38,100,120
2,31,100,124
2,38,100,128
2,33,100,136
2,38,100,188
2,33,100,124
2,38,100,64
2,31,100,132
2,38,100,112
2,31,100,124
2,38,100,104
2,33,100,116
2,38,100,124
