track,note,velocity,time
1,59,90,3076
1,62,93,0
1,67,95,0
1,62,109,628
1,59,100,0
1,67,109,0
1,64,105,616
1,59,102,0
1,67,105,4
1,64,113,612
1,59,102,0
1,67,105,4
1,64,102,592
1,57,102,0
1,60,102,4
1,64,100,596
1,60,100,0
1,57,102,4
1,57,102,628
1,62,109,4
1,66,113,0
1,66,109,596
1,57,100,4
1,62,109,0
1,62,109,612
1,59,100,0
1,67,105,4
1,62,109,612
1,59,102,0
1,67,109,4
1,64,105,636
1,59,105,0
1,67,105,4
1,64,105,620
1,59,105,4
1,67,105,0
1,60,102,632
1,64,105,0
1,57,102,4
1,64,105,636
1,57,105,0
1,60,102,4
1,57,93,244
1,66,109,0
1,62,105,0
1,59,85,4
1,67,109,1596
1,62,109,0
1,59,105,4
1,62,102,616
1,59,100,0
1,67,105,0
1,62,113,624
1,59,109,4
1,67,109,0
1,62,118,652
1,67,118,0
1,59,102,4
1,62,102,636
1,59,100,0
1,67,109,4
1,62,102,656
1,59,97,0
1,67,105,4
1,62,100,644
1,57,93,0
1,66,98,4
1,66,96,612
1,62,93,0
1,57,90,0
1,66,98,640
1,57,93,0
1,62,102,4
1,66,98,636
1,62,105,0
1,57,93,0
1,66,101,632
1,62,105,4
1,57,95,0
1,66,105,660
1,62,105,0
1,57,93,0
1,66,96,636
1,62,102,4
1,57,95,0
1,66,105,620
1,62,105,0
1,57,93,4
1,67,109,648
1,62,105,0
1,59,100,0
1,62,100,652
1,59,100,0
1,67,100,0
1,62,102,628
1,59,100,0
1,67,100,4
1,62,102,652
1,67,105,0
1,59,102,0
1,62,105,628
1,59,100,0
1,67,109,4
1,62,105,648
1,59,100,0
1,67,109,4
1,62,105,632
1,59,97,0
1,67,102,4
1,62,105,672
1,67,109,0
1,59,102,0
1,66,105,616
1,62,109,4
1,57,100,0
1,66,98,648
1,62,105,4
1,57,93,0
1,66,109,648
1,57,95,0
1,62,113,4
1,66,109,652
1,62,109,0
1,57,95,0
1,66,101,648
1,62,105,0
1,57,95,4
1,66,109,628
1,62,113,4
1,57,100,0
1,62,113,644
1,66,109,0
1,57,100,4
1,66,109,660
1,62,113,0
1,57,100,0
1,62,113,284
1,59,113,0
1,67,118,4
1,62,109,1684
1,59,113,0
1,67,113,4
1,62,113,628
1,67,109,0
1,59,102,4
1,62,113,648
1,59,109,4
1,67,105,0
1,62,109,656
1,59,109,0
1,67,123,4
1,62,109,608
1,66,109,0
1,57,100,4
1,66,109,608
1,62,109,0
1,57,97,0
1,62,109,624
1,57,97,0
1,66,119,4
1,66,109,632
1,57,102,0
1,62,113,0
1,66,109,648
1,62,109,0
1,57,102,4
1,66,109,640
1,62,109,4
1,57,97,0
1,62,109,632
1,57,93,0
1,66,105,4
1,66,109,620
1,62,109,0
1,57,100,0
1,62,105,628
1,59,100,0
1,67,105,0
1,59,100,616
1,67,100,4
1,62,102,0
1,62,113,644
1,59,105,0
1,67,109,4
1,62,113,652
1,59,105,0
1,67,105,0
1,62,113,624
1,59,105,0
1,67,105,4
1,62,113,648
1,67,100,4
1,59,113,0
1,62,109,652
1,59,118,0
1,67,113,4
1,59,113,652
1,62,113,0
1,67,113,0
1,57,105,628
1,62,109,0
1,66,109,4
1,62,105,644
1,66,109,0
1,57,118,0
1,62,109,652
1,57,100,4
1,66,109,0
1,57,102,616
1,62,97,0
1,66,109,0
1,66,109,648
1,62,109,0
1,57,102,0
1,57,102,640
1,62,113,0
1,66,109,4
1,57,95,644
1,66,105,0
1,62,105,4
1,66,101,588
1,57,100,0
1,62,109,0
1,67,105,648
1,59,100,0
1,62,105,4
1,62,105,636
1,59,102,0
1,67,105,0
1,62,105,652
1,59,97,0
1,67,102,4
1,62,100,672
1,59,97,0
1,67,97,4
1,67,105,668
1,59,100,0
1,62,109,4
1,62,105,672
1,67,109,0
1,59,100,4
1,67,102,652
1,62,105,4
1,59,102,0
1,67,109,652
1,59,105,4
1,62,109,0
1,57,97,652
1,62,113,0
1,66,105,4
1,66,105,608
1,62,109,4
1,57,95,0
1,66,98,632
1,62,102,0
1,57,93,4
1,66,98,652
1,62,105,0
1,57,93,4
1,66,96,656
1,57,92,0
1,62,102,4
1,66,101,672
1,57,88,0
1,62,102,4
1,57,90,656
1,66,94,4
1,62,95,0
1,66,101,652
1,62,105,0
1,57,93,4
1,67,102,676
1,62,102,0
1,59,97,0
1,59,97,648
1,62,100,4
1,67,92,0
1,67,100,672
1,62,102,0
1,59,97,4
1,62,105,668
1,67,97,4
1,59,97,0
1,67,97,672
1,62,102,0
1,59,105,4
1,62,105,668
1,67,100,4
1,59,97,0
1,62,100,644
1,67,100,0
1,59,95,4
1,67,100,656
1,59,93,0
1,62,97,0
1,66,86,644
1,62,93,4
1,57,92,0
1,66,89,656
1,62,90,0
1,57,92,4
1,57,87,652
1,66,91,0
1,62,88,4
1,66,89,632
1,62,93,0
1,57,90,4
1,62,92,632
1,66,90,0
1,57,90,4
1,66,91,648
1,62,90,0
1,57,88,4
1,66,94,656
1,62,102,0
1,57,90,0
1,66,96,660
1,62,93,0
1,57,92,0
1,67,97,272
1,62,105,0
1,59,100,0
1,57,113,200
1,60,109,0
1,65,102,0
1,65,84,456
1,62,88,0
1,58,98,4
1,65,84,564
1,62,87,0
1,58,96,0
1,65,85,588
1,58,96,4
1,62,90,0
1,65,83,600
1,58,101,0
1,62,92,0
1,65,85,592
1,58,98,0
1,62,88,0
1,65,87,616
1,58,109,0
1,62,90,0
1,65,93,608
1,57,97,0
1,60,102,4
1,65,97,604
1,60,102,0
1,57,95,0
1,57,95,628
1,60,100,0
1,65,90,4
1,65,95,656
1,57,102,0
1,60,102,0
1,65,90,624
1,60,92,0
1,57,93,4
1,57,93,664
1,65,93,4
1,60,95,0
1,60,105,648
1,57,97,0
1,65,97,0
1,65,100,612
1,57,97,0
1,60,102,0
1,65,84,640
1,58,89,0
1,62,90,0
1,65,84,620
1,58,98,0
1,62,93,0
1,58,101,584
1,62,93,4
1,65,86,0
1,65,90,596
1,62,93,0
1,58,105,0
1,65,83,584
1,58,105,0
1,62,97,4
1,65,85,612
1,62,90,0
1,58,105,0
1,65,92,608
1,58,109,0
1,62,105,0
1,58,105,616
1,65,93,0
1,62,105,4
1,60,105,620
1,57,95,4
1,65,100,0
1,57,102,660
1,60,105,0
1,65,102,0
1,57,102,624
1,60,102,4
1,65,102,0
1,65,102,652
1,60,102,0
1,57,102,0
1,60,102,656
1,65,95,0
1,57,100,0
1,60,102,652
1,65,97,4
1,57,95,0
1,65,100,648
1,60,100,0
1,57,109,0
1,60,100,668
1,57,100,0
1,65,100,0
1,65,88,668
1,58,96,0
1,62,92,0
1,62,113,644
1,65,93,0
1,58,96,0
1,65,75,640
1,62,74,4
1,58,69,0
1,62,78,564
1,58,79,0
1,65,71,4
1,62,77,636
1,65,75,4
1,58,79,0
1,62,68,620
1,65,66,0
1,58,74,4
1,60,72,600
1,65,77,0
1,57,74,4
1,60,78,600
1,65,78,0
1,57,75,4
1,65,75,636
1,60,75,0
1,57,73,4
1,65,80,632
1,60,77,4
1,57,76,0
1,60,78,620
1,57,76,0
1,65,77,0
1,60,77,632
1,57,77,0
1,65,78,4
1,60,77,636
1,57,78,4
1,65,77,0
1,57,83,636
1,60,82,0
1,65,82,4
1,65,69,612
1,58,76,4
1,62,73,0
1,62,74,616
1,58,79,0
1,65,66,4
1,65,73,648
1,58,81,0
1,62,82,4
1,62,73,632
1,58,78,4
1,65,68,0
1,65,69,620
1,62,78,0
1,58,82,4
1,62,85,632
1,58,78,4
1,65,70,0
1,65,73,636
1,62,82,0
1,58,75,4
1,58,78,632
1,62,82,0
1,65,72,4
1,57,80,632
1,60,78,0
1,65,83,4
1,57,76,632
1,65,78,0
1,60,76,4
1,60,77,636
1,57,76,4
1,65,76,0
1,60,77,632
1,65,77,0
1,57,77,4
1,65,80,636
1,60,80,4
1,57,80,0
1,60,78,628
1,57,78,0
1,65,78,4
1,60,82,632
1,65,80,0
1,57,80,4
1,60,83,652
1,57,83,4
1,65,83,0
1,65,75,628
1,58,84,0
1,62,80,0
1,62,90,596
1,58,82,0
1,65,78,4
1,58,86,256
1,65,82,0
1,62,99,0
1,57,108,568
1,66,88,0
1,60,92,0
1,62,90,0
1,59,95,544
1,62,100,0
1,67,95,4
1,62,105,632
1,59,97,0
1,67,100,0
1,62,102,624
1,59,100,4
1,67,102,0
1,59,97,668
1,62,100,4
1,67,100,0
1,62,105,648
1,59,97,0
1,67,100,4
1,62,105,656
1,59,105,0
1,67,105,4
1,57,92,648
1,66,96,0
1,62,100,4
1,66,101,636
1,62,102,0
1,57,93,0
1,66,94,648
1,62,102,0
1,57,93,4
1,66,105,660
1,62,109,0
1,57,97,0
1,62,109,648
1,57,97,4
1,66,101,0
1,66,105,628
1,62,105,0
1,57,97,4
1,66,101,664
1,62,109,4
1,57,95,0
1,66,101,656
1,62,105,0
1,57,97,0
1,62,105,652
1,59,100,0
1,67,109,0
1,63,105,648
1,58,113,0
1,67,118,0
1,63,105,584
1,60,97,0
1,68,91,4
1,63,109,656
1,68,91,4
1,60,100,0
1,63,113,652
1,68,96,0
1,60,95,0
1,63,113,656
1,60,95,0
1,68,98,0
1,63,119,640
1,68,96,4
1,60,93,0
1,63,113,620
1,68,101,0
1,60,93,4
1,67,113,620
1,63,92,4
1,58,105,0
1,63,94,608
1,58,98,4
1,67,109,0
1,67,109,612
1,63,101,4
1,58,105,0
1,63,109,652
1,58,105,4
1,67,118,0
1,63,101,652
1,58,101,0
1,67,105,4
1,58,105,628
1,63,109,4
1,67,118,0
1,58,105,628
1,63,109,0
1,67,109,4
1,67,102,632
1,58,105,0
1,63,96,0
1,56,113,624
1,60,123,0
1,65,109,4
1,56,109,596
1,65,105,0
1,60,109,4
1,65,118,216
1,58,119,0
1,61,109,0
1,75,127,2976
1,77,103,552
1,79,97,64
1,80,105,20
1,63,127,480
1,56,127,4
1,60,111,0
1,68,109,0
1,56,127,412
1,63,127,0
1,60,120,4
1,68,112,0
2,31,127,2692
2,31,127,188
2,31,127,116
2,28,127,152
2,28,127,188
2,28,127,100
2,33,127,124
2,33,127,172
2,33,127,124
2,38,127,160
2,38,127,280
2,40,127,384
2,42,127,348
2,43,127,52
2,43,127,92
2,43,127,104
2,40,127,32
2,40,127,204
2,40,127,104
2,33,127,32
2,33,127,188
2,33,127,104
2,38,127,72
2,43,127,1076
2,43,127,164
2,38,127,124
2,43,127,124
2,43,127,140
2,38,127,92
2,43,127,192
2,43,127,148
2,38,127,68
2,43,127,76
2,45,127,92
2,45,127,88
2,38,127,8
2,45,127,208
2,45,127,120
2,38,127,48
2,45,127,208
2,45,127,156
2,38,127,32
2,45,127,168
2,45,127,136
2,38,127,48
2,43,127,100
2,42,127,380
2,40,127,60
2,38,127,64
2,43,127,20
2,43,127,176
2,38,127,192
2,43,127,112
2,43,127,108
2,38,127,16
2,43,127,172
2,43,127,168
2,38,127,88
2,45,127,88
2,45,127,80
2,38,127,48
2,45,127,192
2,45,127,136
2,38,127,36
2,45,127,192
2,45,127,152
2,38,127,52
2,45,127,768
2,45,127,180
2,38,127,52
2,43,127,64
2,43,127,1228
2,43,127,156
2,38,127,68
2,43,127,128
2,43,127,112
2,38,127,48
2,43,127,40
2,45,127,36
2,45,127,92
2,38,127,12
2,45,127,28
2,45,127,144
2,38,127,52
2,45,127,36
2,45,127,112
2,38,127,28
2,45,127,60
2,45,127,168
2,38,127,52
2,43,127,768
2,42,127,368
2,40,127,48
2,38,127,52
2,43,127,76
2,43,127,164
2,38,127,84
2,43,127,120
2,43,127,140
2,38,127,64
2,43,127,144
2,43,127,180
2,38,127,64
2,45,127,132
2,45,127,120
2,38,127,32
2,45,127,188
2,45,127,120
2,38,127,20
2,45,127,220
2,45,127,128
2,38,127,36
2,45,127,120
2,45,127,136
2,38,127,32
2,43,127,68
2,43,127,160
2,38,127,44
2,38,127,208
2,43,127,60
2,38,127,52
2,38,127,116
2,43,127,96
2,43,127,80
2,38,127,120
2,43,127,176
2,43,127,180
2,38,127,140
2,43,127,68
2,45,127,80
2,45,127,148
2,38,127,72
2,45,127,136
2,45,127,152
2,38,127,52
2,45,127,116
2,45,127,132
2,38,127,52
2,45,127,140
2,45,127,176
2,38,127,36
2,43,127,112
2,42,127,380
2,40,127,12
2,38,127,136
2,43,127,80
2,38,127,304
2,43,127,92
2,43,127,140
2,38,127,72
2,43,127,92
2,43,127,180
2,38,127,72
2,43,127,68
2,45,127,68
2,38,127,24
2,38,127,144
2,45,127,8
2,45,127,112
2,38,127,24
2,45,127,52
2,45,127,152
2,38,127,36
2,45,127,768
2,38,127,332
2,40,127,356
2,42,127,132
2,43,127,144
2,41,127,172
2,34,127,32
2,34,127,172
2,29,127,120
2,31,127,388
2,34,127,84
2,34,127,164
2,29,127,104
2,31,127,8
2,34,127,124
2,34,127,140
2,29,127,88
2,34,127,384
2,36,127,56
2,36,127,164
2,29,127,32
2,29,127,304
2,36,127,0
2,29,127,764
2,36,127,744
2,36,127,144
2,29,127,52
2,36,127,772
2,36,127,128
2,29,127,44
2,34,127,40
2,33,127,20
2,34,127,0
2,31,127,16
2,29,127,388
2,34,127,380
2,34,127,196
2,29,127,96
2,34,127,772
2,34,127,284
2,29,127,64
2,34,127,764
2,34,127,460
2,29,127,24
2,31,127,56
2,36,127,168
2,36,127,136
2,29,127,4
2,36,127,772
2,36,127,148
2,29,127,40
2,36,127,8
2,36,127,204
2,29,127,44
2,36,127,768
2,36,127,216
2,29,127,8
2,34,127,20
2,33,127,4
2,34,127,0
2,31,127,36
2,29,127,384
2,34,127,64
2,29,127,268
2,34,127,248
2,34,127,216
2,29,127,108
2,36,127,216
2,29,127,236
2,36,127,224
2,36,127,200
2,29,127,24
2,36,127,152
2,29,127,252
2,36,127,272
2,36,127,228
2,29,127,20
2,34,127,236
2,29,127,204
2,34,127,268
2,34,127,208
2,29,127,60
2,31,127,80
2,34,127,112
2,29,127,244
2,34,127,268
2,34,127,232
2,29,127,68
2,36,127,232
2,29,127,252
2,36,127,248
2,36,127,212
2,29,127,24
2,36,127,224
2,29,127,236
2,36,127,248
2,36,127,208
2,29,127,20
2,34,127,208
2,29,127,236
2,34,127,236
2,38,127,200
2,43,127,164
2,43,127,208
2,38,127,88
2,43,127,176
2,43,127,152
2,38,127,56
2,40,127,380
2,43,127,44
2,43,127,180
2,38,127,72
2,43,127,384
2,45,127,36
2,45,127,140
2,38,127,8
2,45,127,124
2,45,127,116
2,38,127,12
2,45,127,164
2,45,127,136
2,38,127,192
2,45,127,52
2,45,127,140
2,38,127,8
2,43,127,60
2,39,127,36
2,44,127,68
2,44,127,176
2,39,127,68
2,44,127,112
2,44,127,136
2,39,127,88
2,41,127,20
2,44,127,84
2,44,127,148
2,39,127,68
2,44,127,12
2,46,127,56
2,46,127,168
2,39,127,48
2,46,127,72
2,46,127,180
2,39,127,36
2,46,127,108
2,46,127,188
2,39,127,48
2,46,127,768
2,46,127,192
2,39,127,52
2,41,127,272
2,41,127,208
2,34,127,100
2,32,127,4876
2,32,127,396
3,62,41,2696
3,67,49,4
3,59,40,4
3,64,45,1516
3,60,44,88
3,57,40,32
3,66,46,128
3,62,44,28
3,67,40,72
3,59,36,4
3,64,38,20
3,60,37,12
3,57,39,12
3,67,41,768
3,66,52,152
3,62,45,28
3,67,37,1196
3,62,33,0
3,59,35,0
3,57,28,216
3,66,11,4
3,59,29,92
3,67,27,4
3,66,30,220
3,62,25,4
3,57,31,0
3,59,36,60
3,67,44,0
3,62,43,840
3,59,43,4
3,67,51,0
3,62,34,228
3,66,37,4
3,57,33,0
3,67,42,176
3,59,36,0
3,62,33,0
3,57,36,156
3,66,36,4
3,62,31,0
3,67,54,132
3,62,43,40
3,59,45,0
3,59,34,1108
3,62,38,4
3,55,35,4
3,57,34,76
3,54,34,28
3,59,12,200
3,55,37,0
3,62,37,0
3,57,44,0
3,54,41,32
