track,note,velocity,time
1,63,124,1536
1,62,103,60
1,60,95,4
1,59,108,68
1,60,95,68
1,56,95,60
1,55,113,44
1,53,92,68
1,58,109,44
1,62,113,196
1,63,103,128
1,67,99,31216
1,58,99,48
1,61,109,192
1,61,88,76
1,61,103,72
1,61,91,68
1,60,90,80
1,65,99,72
1,65,90,44
1,65,85,92
1,66,80,76
1,66,95,116
1,67,83,24
1,56,116,1372
1,58,109,176
1,63,103,128
1,67,85,6720
1,58,99,88
1,61,95,16
1,61,95,72
1,61,99,64
1,61,99,52
1,60,92,56
1,65,83,88
1,65,83,36
1,65,90,72
1,66,91,60
1,66,95,160
1,67,92,16
1,56,109,1400
1,58,99,212
1,63,86,216
1,56,103,2164
1,63,99,0
1,60,95,0
1,60,103,8
1,63,103,0
1,68,86,0
1,56,95,108
1,64,85,0
1,60,90,0
1,56,99,92
1,65,83,0
1,60,90,0
1,63,86,12
1,68,75,0
1,60,85,0
1,58,75,28
1,67,85,0
1,61,91,0
1,63,75,8
1,73,80,0
1,67,83,0
1,61,91,68
1,63,91,0
1,55,92,0
1,61,103,44
1,63,103,0
1,67,103,0
1,55,83,120
1,64,77,0
1,58,91,0
1,58,99,88
1,65,85,0
1,61,95,0
1,61,82,60
1,67,83,0
1,63,81,0
1,56,86,56
1,60,78,0
1,63,91,0
1,63,74,52
1,68,74,0
1,72,76,0
1,56,84,6248
1,63,81,0
1,60,77,0
1,63,80,32
1,68,82,0
1,60,87,0
1,56,88,108
1,64,80,0
1,60,82,0
1,56,91,96
1,65,78,0
1,60,76,0
1,56,59,12
1,63,84,0
1,60,92,0
1,68,72,0
1,61,88,0
1,58,84,0
1,67,83,0
1,63,72,40
1,67,80,0
1,73,84,0
1,55,85,128
1,63,91,0
1,61,95,0
1,61,99,32
1,63,88,0
1,67,82,0
1,58,91,116
1,64,75,0
1,55,87,0
1,61,86,108
1,65,83,0
1,58,88,0
1,67,85,0
1,61,84,0
1,63,82,0
1,56,74,36
1,63,86,0
1,58,43,0
1,60,87,0
1,68,70,84
1,72,74,0
1,63,73,0
1,72,80,168
1,63,84,4
1,68,80,0
1,63,99,72
1,68,88,0
1,72,83,0
1,63,95,124
1,68,84,0
1,72,80,0
1,72,85,112
1,63,86,4
1,67,95,0
1,72,92,96
1,63,95,4
1,66,99,0
1,69,85,192
1,65,76,4
1,75,82,0
1,60,77,100
1,69,108,0
1,65,92,4
1,70,84,56
1,65,83,4
1,73,81,0
1,61,95,52
1,64,80,4
1,68,86,0
1,68,76,52
1,63,84,4
1,72,78,0
1,60,78,96
1,63,95,0
1,68,78,0
1,61,86,48
1,67,87,0
1,70,78,0
1,67,80,156
1,73,86,0
1,75,78,0
1,75,82,156
1,72,85,0
1,80,86,0
1,73,80,208
1,75,78,0
1,79,78,0
1,80,86,60
1,72,95,0
1,72,87,100
1,80,82,0
1,72,85,44
1,80,86,0
1,72,83,48
1,80,91,0
1,75,103,224
1,74,99,92
1,72,95,0
1,71,90,80
1,72,99,92
1,68,95,32
1,67,120,36
1,65,103,52
1,70,99,44
1,68,86,168
1,74,85,4
1,67,82,128
1,75,82,0
1,63,95,25076
1,67,90,0
1,59,85,36
1,62,99,0
1,60,95,12
1,63,91,0
1,58,95,52
1,63,91,0
1,55,87,68
1,58,91,0
1,51,88,92
1,55,92,0
1,50,85,72
1,56,103,0
1,56,91,12
1,58,82,0
1,56,99,8
1,58,95,0
1,56,91,100
1,58,82,0
1,56,91,108
1,58,84,0
1,68,86,232
1,62,95,4
1,59,95,12
1,62,90,0
1,60,99,12
1,63,82,0
1,62,92,32
1,58,88,4
1,56,95,16
1,60,103,0
1,50,90,96
1,56,116,0
1,51,88,64
1,55,95,0
1,55,92,60
1,58,84,0
1,55,87,20
1,58,82,0
1,55,90,88
1,58,84,0
1,55,83,100
1,58,82,0
1,67,90,224
1,58,103,76
1,61,99,172
1,61,116,68
1,61,103,60
1,61,109,68
1,60,113,68
1,65,108,64
1,65,95,44
1,65,95,64
1,66,84,60
1,66,103,88
1,67,95,24
1,56,99,1348
1,58,103,172
1,63,84,188
1,63,86,604
1,67,80,0
1,62,83,68
1,59,92,4
1,60,92,32
1,63,88,0
1,58,88,52
1,63,82,0
1,55,99,44
1,58,95,0
1,55,90,72
1,51,84,4
1,56,91,88
1,50,92,4
1,56,88,60
1,58,76,0
1,56,91,48
1,58,84,0
1,56,95,96
1,58,84,0
1,56,86,116
1,58,78,0
1,62,83,236
1,68,79,0
1,59,83,108
1,62,82,0
1,60,75,4
1,63,79,0
1,62,73,88
1,58,82,4
1,56,95,48
1,60,76,0
1,50,83,100
1,56,88,4
1,51,95,84
1,55,90,0
1,55,83,64
1,58,86,0
1,55,80,52
1,58,91,0
1,55,82,92
1,58,86,0
1,55,75,112
1,58,80,0
1,67,85,232
1,58,95,80
1,61,91,124
1,61,82,52
1,61,95,56
1,61,95,56
1,60,95,64
1,65,90,76
1,65,90,40
1,65,95,56
1,66,81,60
1,66,103,116
1,67,92,24
1,56,103,1360
1,58,103,220
1,63,86,152
2,27,123,1432
2,39,123,0
2,29,121,736
2,41,121,0
2,31,123,84
2,43,123,0
2,32,123,112
2,44,123,0
2,34,123,80
2,46,123,0
2,34,123,336
2,46,123,0
2,39,123,168
2,51,123,0
2,39,122,328
2,51,122,0
2,39,123,324
2,51,123,0
2,34,123,260
2,46,123,0
2,39,123,252
2,51,123,0
2,34,123,236
2,46,123,0
2,39,123,240
2,51,123,0
2,38,123,208
2,50,123,0
2,41,123,204
2,53,123,0
2,34,123,216
2,46,123,0
2,38,119,232
2,50,119,0
2,34,123,208
2,46,123,0
2,38,119,204
2,50,119,0
2,34,123,208
2,46,123,0
2,41,114,216
2,53,114,0
2,34,123,208
2,46,123,0
2,39,123,220
2,51,123,0
2,38,117,108
2,50,117,0
2,36,123,100
2,48,123,0
2,34,123,92
2,46,123,0
2,39,123,128
2,51,123,0
2,34,123,220
2,46,123,0
2,39,123,220
2,51,123,0
2,34,123,196
2,46,123,0
2,39,123,248
2,51,123,0
2,42,123,200
2,54,123,0
2,41,123,188
2,53,123,0
2,34,123,208
2,46,123,0
2,36,123,244
2,48,123,0
2,41,123,220
2,53,123,0
2,34,123,256
2,46,123,0
2,41,123,224
2,44,90,0
2,53,123,0
2,56,90,0
2,41,123,216
2,53,123,0
2,29,123,312
2,41,123,0
2,34,123,212
2,46,123,0
2,32,123,188
2,44,123,0
2,31,123,164
2,43,123,0
2,29,123,188
2,41,123,0
2,27,123,144
2,39,123,0
2,34,123,272
2,46,123,0
2,39,123,228
2,51,123,0
2,34,123,268
2,46,123,0
2,39,123,220
2,51,123,0
2,38,123,204
2,50,123,0
2,41,123,212
2,53,123,0
2,34,123,208
2,46,123,0
2,38,123,252
2,50,123,0
2,34,123,204
2,46,123,0
2,38,123,224
2,50,123,0
2,34,123,208
2,46,123,0
2,41,123,232
2,53,123,0
2,34,123,216
2,46,123,0
2,39,122,228
2,51,122,0
2,38,123,96
2,50,123,0
2,36,123,100
2,48,123,0
2,34,120,116
2,46,120,0
2,39,123,120
2,51,123,0
2,34,123,268
2,46,123,0
2,39,123,244
2,51,123,0
2,34,123,148
2,46,123,0
2,39,123,228
2,51,123,0
2,42,123,220
2,54,123,0
2,41,123,164
2,53,123,0
2,34,123,188
2,46,123,0
2,36,123,244
2,48,123,0
2,41,123,192
2,53,123,0
2,34,123,204
2,46,123,0
2,41,123,220
2,53,123,0
2,41,123,228
2,53,123,0
2,29,119,256
2,41,119,0
2,34,123,180
2,46,123,0
2,34,123,188
2,46,123,0
2,34,123,188
2,46,123,0
2,39,123,356
2,51,123,0
2,34,123,192
2,46,123,0
2,39,123,212
2,51,123,0
2,34,123,208
2,46,123,0
2,41,123,216
2,53,123,0
2,34,123,124
2,46,123,0
2,46,123,132
2,58,123,0
2,44,123,120
2,56,123,0
2,41,123,100
2,44,84,0
2,53,123,0
2,56,84,0
2,38,123,100
2,50,123,0
2,41,123,112
2,53,123,0
2,34,123,120
2,46,123,0
2,41,123,132
2,53,123,0
2,34,123,116
2,46,123,0
2,39,123,184
2,51,123,0
2,34,123,176
2,46,123,0
2,39,123,172
2,51,123,0
2,38,112,108
2,50,112,0
2,39,87,4
2,51,87,0
2,36,117,132
2,48,117,0
2,34,122,92
2,46,122,0
2,39,120,152
2,51,120,0
2,34,123,112
2,46,123,0
2,39,123,236
2,51,123,0
2,39,123,240
2,51,123,0
2,32,123,228
2,44,123,0
2,32,123,232
2,44,123,0
2,33,123,228
2,45,123,0
2,33,123,244
2,45,123,0
2,34,123,184
2,46,123,0
2,39,118,156
2,51,118,0
2,38,108,95
2,50,108,0
2,36,112,88
2,48,112,0
2,34,123,152
2,46,123,0
2,32,123,160
2,44,123,0
2,31,123,176
2,43,123,0
2,29,119,172
2,41,119,0
2,27,123,156
2,39,123,0
2,32,123,180
2,44,123,0
2,34,123,280
2,46,123,0
2,39,123,292
2,51,123,0
2,39,123,608
2,51,123,0
2,34,123,236
2,46,123,0
2,39,123,240
2,51,123,0
2,34,123,248
2,46,123,0
2,41,123,216
2,53,123,0
2,34,123,188
2,46,123,0
2,46,123,108
2,58,123,0
2,44,123,96
2,56,123,0
2,41,123,112
2,53,123,0
2,38,119,84
2,50,119,0
2,41,123,132
2,53,123,0
2,34,123,116
2,46,123,0
2,41,123,136
2,53,123,0
2,34,123,220
2,46,123,0
2,39,123,268
2,51,123,0
2,34,123,212
2,46,123,0
2,39,123,216
2,51,123,0
2,38,114,96
2,50,114,0
2,39,86,4
2,51,86,0
2,36,123,116
2,48,123,0
2,34,123,92
2,46,123,0
2,39,123,128
2,51,123,0
2,34,123,156
2,46,123,0
2,39,123,236
2,51,123,0
2,39,123,224
2,51,123,0
2,44,123,232
2,56,123,0
2,44,123,224
2,56,123,0
2,45,123,200
2,57,123,0
2,45,123,232
2,57,123,0
2,46,123,252
2,58,123,0
2,39,123,188
2,51,123,0
2,38,123,95
2,50,123,0
2,36,123,95
2,48,123,0
2,34,123,144
2,46,123,0
2,32,123,140
2,44,123,0
2,31,123,144
2,34,91,0
2,43,123,0
2,46,91,0
2,29,123,156
2,41,123,0
2,27,123,112
2,39,123,0
2,32,123,136
2,44,123,0
2,31,107,0
2,43,107,0
2,34,123,379
2,46,123,0
2,39,122,336
2,51,122,0
2,32,123,684
2,44,123,0
2,31,123,296
2,43,123,0
2,29,123,292
2,41,123,0
2,27,123,292
2,39,123,0
2,32,123,268
2,44,123,0
2,27,123,284
2,39,123,0
2,32,123,300
2,44,123,0
2,27,123,232
2,39,123,0
2,34,123,296
2,46,123,0
2,27,123,292
2,39,123,0
2,34,123,300
2,46,123,0
2,27,123,316
2,39,123,0
2,34,123,308
2,46,123,0
2,27,123,284
2,39,123,0
2,34,123,320
2,46,123,0
2,27,123,308
2,39,123,0
2,32,123,312
2,44,123,0
2,27,123,284
2,39,123,0
2,32,123,324
2,44,123,0
2,27,123,316
2,39,123,0
2,32,123,348
2,44,123,0
2,32,123,292
2,44,123,0
2,27,123,308
2,39,123,0
2,27,123,316
2,39,123,0
2,34,123,316
2,46,123,0
2,34,123,272
2,46,123,0
2,39,122,216
2,51,122,0
2,34,123,160
2,46,123,0
2,39,123,212
2,51,123,0
2,34,123,220
2,46,123,0
2,34,123,208
2,46,123,0
2,39,122,232
2,51,122,0
2,32,123,188
2,44,123,0
2,32,122,192
2,44,122,0
2,32,123,236
2,44,123,0
2,31,123,128
2,43,123,0
2,29,123,132
2,41,123,0
2,27,120,112
2,39,120,0
2,32,123,112
2,44,123,0
2,27,123,236
2,39,123,0
2,32,123,276
2,44,123,0
2,27,123,216
2,39,123,0
2,34,123,276
2,46,123,0
2,27,123,228
2,39,123,0
2,34,123,276
2,46,123,0
2,27,123,200
2,39,123,0
2,34,123,252
2,46,123,0
2,27,123,232
2,39,123,0
2,34,123,248
2,46,123,0
2,27,123,200
2,39,123,0
2,32,123,208
2,44,123,0
2,27,123,176
2,39,123,0
2,32,123,224
2,44,123,0
2,27,123,232
2,39,123,0
2,32,123,204
2,44,123,0
2,32,123,212
2,44,123,0
2,32,123,248
2,44,123,0
2,33,123,256
2,45,123,0
2,29,123,196
2,41,123,0
2,29,123,264
2,41,123,0
2,34,123,228
2,46,123,0
2,37,123,192
2,49,123,0
2,39,123,180
2,51,123,0
2,39,123,224
2,51,123,0
2,39,123,228
2,51,123,0
2,39,123,240
2,51,123,0
2,32,123,240
2,44,123,0
2,27,123,260
2,39,123,0
2,32,123,124
2,44,123,0
2,32,123,268
2,44,123,0
2,39,123,324
2,51,123,0
2,29,123,808
2,41,123,0
2,31,119,80
2,43,119,0
2,32,123,128
2,44,123,0
2,34,123,88
2,46,123,0
2,34,123,352
2,46,123,0
2,39,123,228
2,51,123,0
2,39,123,280
2,51,123,0
2,39,123,356
2,51,123,0
2,34,123,308
2,46,123,0
2,39,123,240
2,51,123,0
2,34,123,284
2,46,123,0
2,39,123,252
2,51,123,0
2,38,123,216
2,50,123,0
2,41,123,216
2,53,123,0
2,34,123,248
2,46,123,0
2,38,123,264
2,50,123,0
2,34,123,236
2,46,123,0
2,38,123,240
2,50,123,0
2,34,123,216
2,46,123,0
2,41,116,216
2,53,116,0
2,34,123,252
2,46,123,0
2,39,123,216
2,51,123,0
2,38,123,112
2,50,123,0
2,36,123,112
2,48,123,0
2,34,123,128
2,46,123,0
2,39,123,136
2,51,123,0
2,34,123,292
2,46,123,0
2,39,123,244
2,51,123,0
2,34,123,220
2,46,123,0
2,39,123,264
2,51,123,0
2,42,123,208
2,54,123,0
2,41,123,200
2,53,123,0
2,34,123,208
2,46,123,0
2,36,123,240
2,48,123,0
2,41,123,208
2,53,123,0
2,34,123,208
2,46,123,0
2,41,123,208
2,53,123,0
2,29,123,100
2,41,123,0
2,29,123,240
2,41,123,0
2,34,123,204
2,46,123,0
2,32,123,116
2,34,88,0
2,44,123,0
2,46,88,0
2,31,123,112
2,34,91,0
2,43,123,0
2,46,91,0
2,29,123,108
2,41,123,0
2,27,123,100
2,39,123,0
2,34,123,232
2,46,123,0
2,39,122,228
2,51,122,0
2,34,123,204
2,46,123,0
2,39,123,240
2,51,123,0
2,38,123,200
2,50,123,0
2,41,123,196
2,53,123,0
2,34,123,216
2,46,123,0
2,38,123,232
2,50,123,0
2,34,123,268
2,46,123,0
2,38,114,256
2,50,114,0
2,34,123,292
2,46,123,0
2,41,114,196
2,53,114,0
2,34,123,184
2,46,123,0
2,39,123,244
2,51,123,0
2,38,111,108
2,50,111,0
2,36,119,148
2,48,119,0
2,34,122,128
2,46,122,0
2,39,123,148
2,51,123,0
2,34,123,244
2,46,123,0
2,39,122,240
2,51,122,0
2,34,123,204
2,46,123,0
2,39,123,232
2,51,123,0
2,42,123,200
2,54,123,0
2,41,119,196
2,53,119,0
2,34,123,192
2,46,123,0
2,36,123,208
2,48,123,0
2,41,123,188
2,53,123,0
2,34,123,272
2,46,123,0
2,41,121,240
2,53,121,0
2,29,119,164
2,41,119,0
2,29,116,292
2,41,116,0
2,34,123,112
2,46,123,0
2,34,123,188
2,46,123,0
2,34,123,191
2,46,123,0
2,39,123,360
2,51,123,0
2,34,123,200
2,46,123,0
2,39,120,212
2,51,120,0
2,34,123,224
2,46,123,0
2,41,117,228
2,53,117,0
2,34,123,200
2,46,123,0
2,46,120,252
2,58,120,0
2,44,122,72
2,56,122,0
2,41,119,104
2,53,119,0
2,38,114,92
2,50,114,0
2,41,121,100
2,53,121,0
2,34,123,212
2,46,123,0
2,41,119,216
2,53,119,0
2,34,123,256
2,46,123,0
2,39,122,236
2,51,122,0
2,34,123,208
2,46,123,0
2,39,123,204
2,51,123,0
2,38,110,108
2,50,110,0
2,36,116,136
2,48,116,0
2,34,123,120
2,46,123,0
2,39,122,144
2,51,122,0
2,34,123,188
2,46,123,0
2,39,123,216
2,51,123,0
2,39,123,204
2,51,123,0
2,32,123,240
2,44,123,0
2,32,123,292
2,44,123,0
2,33,123,276
