track,note,velocity,time
1,76,78,38400
1,72,88,0
1,69,85,0
1,62,97,0
1,72,90,96
1,62,90,0
1,76,80,0
1,69,88,0
1,62,88,96
1,72,93,0
1,76,81,0
1,69,85,0
1,76,68,160
1,62,80,0
1,72,73,0
1,69,73,0
1,62,97,112
1,76,85,0
1,72,90,0
1,69,111,0
1,79,85,0
1,76,83,96
1,72,90,0
1,69,97,0
1,62,90,0
1,79,90,0
1,62,97,144
1,76,88,0
1,72,97,0
1,69,106,0
1,79,90,0
1,77,62,0
1,62,101,176
1,76,90,0
1,69,106,0
1,72,93,0
1,79,88,0
1,62,97,144
1,79,88,0
1,72,93,0
1,76,93,0
1,83,85,0
1,62,101,96
1,79,90,0
1,76,88,0
1,72,97,0
1,83,83,0
1,62,106,144
1,72,97,0
1,83,80,0
1,76,90,0
1,79,85,0
1,62,101,176
1,79,80,0
1,72,85,0
1,76,80,0
1,83,75,0
1,62,106,288
1,72,93,0
1,76,85,0
1,69,101,0
1,79,88,0
1,62,118,12944
1,67,118,32
1,69,124,96
1,71,124,128
1,74,111,128
1,75,122,96
1,76,118,48
1,62,111,432
1,66,107,32
1,72,111,128
1,71,106,128
1,70,122,128
1,71,118,176
1,67,111,272
1,62,93,80
1,62,118,432
1,67,124,0
1,69,127,112
1,71,124,128
1,74,127,144
1,75,122,112
1,76,111,112
1,62,118,464
1,66,107,32
1,72,124,128
1,71,106,128
1,69,127,112
1,67,106,160
1,60,127,28256
1,67,127,32
1,65,127,576
1,64,127,0
1,65,127,352
1,64,76,0
1,65,127,112
1,65,127,112
1,64,127,128
1,62,127,128
1,60,127,144
1,57,127,304
1,60,127,112
1,59,127,16
1,58,127,16
1,62,127,352
1,60,127,96
1,59,127,144
1,60,127,32
1,60,127,320
1,67,127,112
1,65,127,96
1,64,85,16
1,65,127,224
1,65,127,128
1,65,127,128
1,64,127,112
1,62,127,128
1,60,124,160
1,57,127,320
1,60,127,128
1,61,127,144
1,62,127,112
1,65,127,80
1,64,127,144
1,65,127,112
1,67,127,128
1,68,127,144
1,68,127,128
1,68,127,64
1,67,127,80
1,65,127,96
1,63,127,128
1,61,127,128
1,60,127,144
1,58,127,160
1,62,127,112
1,58,122,48
1,64,127,64
1,65,127,80
1,67,127,96
1,65,127,80
1,53,127,48
2,76,127,13440
2,72,127,0
2,74,122,32
2,77,127,0
2,76,116,48
2,79,127,0
2,76,113,32
2,72,121,0
2,74,122,16
2,77,127,0
2,75,127,112
2,78,127,0
2,76,125,128
2,79,119,0
2,76,127,80
2,79,127,0
2,80,127,64
2,76,127,0
2,81,127,64
2,77,127,0
2,77,127,16
2,74,127,0
2,76,119,48
2,79,127,0
2,80,127,112
2,76,127,0
2,81,127,96
2,77,127,0
2,81,127,96
2,77,127,0
2,81,127,64
2,84,127,0
2,83,127,80
2,79,127,0
2,83,127,128
2,86,127,0
2,77,127,16
2,81,127,0
2,79,127,0
2,77,56,64
2,81,127,0
2,83,127,16
2,76,127,96
2,84,127,0
2,81,127,144
2,76,127,0
2,79,127,48
2,76,127,0
2,72,127,128
2,76,127,0
2,74,127,32
2,77,127,0
2,79,127,80
2,76,124,0
2,76,125,16
2,72,127,0
2,74,127,32
2,77,127,0
2,75,127,112
2,78,127,0
2,76,122,112
2,79,121,0
2,79,127,80
2,76,127,0
2,80,127,96
2,76,122,0
2,81,127,96
2,77,127,0
2,77,127,16
2,74,127,0
2,76,127,48
2,79,127,0
2,80,127,112
2,76,118,0
2,81,127,128
2,77,127,0
2,81,127,80
2,77,127,0
2,81,127,80
2,84,127,0
2,83,127,80
2,79,127,0
2,83,127,128
2,86,127,0
2,77,127,80
2,81,127,0
2,79,127,32
2,81,127,64
2,83,127,96
2,84,127,96
2,79,127,16
2,76,127,16
2,79,127,32
2,72,127,16
2,84,127,43904
2,89,127,0
2,84,127,64
2,88,127,0
2,79,127,80
2,86,127,0
2,76,127,112
2,84,127,0
2,84,127,336
2,89,127,0
2,84,127,48
2,88,127,0
2,86,127,80
2,79,127,0
2,84,127,144
2,76,127,0
3,48,127,1536
3,43,127,128
3,48,127,144
3,43,127,96
3,50,127,144
3,43,127,160
3,50,122,144
3,43,127,176
3,53,127,144
3,48,119,128
3,55,127,128
3,50,127,144
3,48,122,96
3,43,119,128
3,48,127,144
3,43,127,160
3,48,127,128
3,43,122,128
3,48,127,128
3,48,127,144
3,53,122,128
3,48,119,128
3,53,122,144
3,48,122,144
3,55,127,144
3,50,119,160
3,43,127,80
3,43,127,192
3,48,127,144
3,43,127,192
3,48,127,96
3,48,109,592
3,43,119,160
3,48,106,160
3,43,103,32
3,50,107,144
3,45,107,96
3,50,101,128
3,45,119,96
3,55,115,160
3,50,107,96
3,43,112,32
3,45,103,48
3,47,109,112
3,48,112,128
3,43,103,112
3,48,101,128
3,43,95,128
3,48,107,128
3,43,112,128
3,48,109,160
3,43,106,128
3,50,109,160
3,45,115,112
3,50,107,160
3,45,115,112
3,55,119,144
3,50,112,128
3,43,116,32
3,45,109,96
3,47,116,128
3,48,119,128
3,43,119,144
3,48,115,112
3,50,103,448
3,43,104,160
3,50,97,128
3,43,116,96
3,48,109,128
3,43,116,96
3,48,106,144
3,43,122,144
3,50,115,128
3,43,119,128
3,50,109,128
3,43,116,32
3,48,115,160
3,43,116,112
3,48,112,144
3,43,104,96
3,50,119,160
3,43,116,160
3,50,109,160
3,43,116,128
3,48,115,160
3,43,115,112
3,48,109,128
3,48,116,160
3,50,115,144
3,43,119,192
3,45,119,128
3,47,112,176
3,48,127,192
3,43,122,176
3,48,127,128
3,50,127,272
3,45,127,1344
3,47,115,16
3,38,127,16
3,45,127,1152
3,47,116,0
3,45,127,16
3,38,127,16
3,50,127,16
3,45,127,16
3,37,61,0
3,47,119,0
3,38,127,32
3,50,109,16
3,43,127,624
3,38,127,160
3,43,122,176
3,38,119,176
3,45,127,144
3,40,119,144
3,45,122,160
3,40,115,128
3,50,119,144
3,45,127,96
3,50,109,144
3,45,127,96
3,43,122,112
3,38,127,192
3,43,127,176
3,38,122,176
3,43,127,192
3,38,119,192
3,43,127,192
3,38,119,192
3,45,127,144
3,40,122,160
3,45,127,144
3,40,116,192
3,50,116,176
3,45,116,160
3,50,109,128
3,45,101,160
3,43,122,128
3,38,127,176
3,43,115,64
3,38,100,240
3,43,127,112
3,38,106,112
3,43,127,176
3,38,115,144
3,45,127,176
3,40,116,128
3,45,115,128
3,40,106,144
3,50,112,160
3,45,106,128
3,50,107,144
3,45,112,128
3,43,112,112
3,38,115,160
3,43,119,176
3,38,109,160
3,43,127,160
3,38,122,144
3,43,122,176
3,38,119,128
3,48,127,176
3,43,127,96
3,48,122,144
3,43,127,128
3,50,127,144
3,38,127,144
3,40,115,112
3,42,127,160
3,43,127,160
3,38,127,176
3,43,127,176
3,43,115,336
3,48,109,48
3,43,127,224
3,46,79,0
3,48,112,48
3,43,119,144
3,48,127,64
3,43,119,80
3,48,127,144
3,43,119,96
3,50,119,160
3,43,122,176
3,50,115,144
3,43,119,208
3,53,122,160
3,48,127,128
3,55,127,144
3,50,122,176
3,48,115,16
3,43,122,144
3,48,122,176
3,43,119,144
3,48,127,160
3,43,127,144
3,48,127,144
3,43,122,112
3,50,127,144
3,50,127,176
3,43,122,16
3,43,127,256
3,50,122,64
3,45,116,192
3,43,122,128
3,50,115,144
3,48,107,96
3,43,115,112
3,48,92,16
3,43,106,192
3,45,127,0
3,47,127,16
3,48,127,16
3,43,112,112
3,48,116,128
3,43,112,128
3,50,109,160
3,43,119,192
3,50,116,144
3,43,116,224
3,53,122,112
3,48,119,112
3,55,107,112
3,50,109,144
3,48,127,144
3,43,112,128
3,48,122,144
3,43,127,144
3,48,127,128
3,43,122,16
3,48,107,112
3,48,116,112
3,53,127,80
3,48,122,112
3,53,119,128
3,48,127,160
3,43,119,160
3,43,122,192
3,45,127,160
3,47,127,160
3,48,127,160
3,43,127,144
3,48,127,112
3,48,116,128
3,48,127,160
3,43,127,144
3,48,127,128
3,43,122,176
3,46,127,144
3,46,127,160
3,48,127,96
3,48,127,224
3,53,127,80
3,48,127,128
3,41,115,208
3,48,127,160
3,53,127,128
3,48,127,112
3,53,127,128
3,48,127,96
3,43,127,144
3,43,127,208
3,48,127,176
3,48,127,208
3,46,127,96
3,46,127,160
3,48,127,128
3,48,127,160
3,53,127,144
3,48,127,144
3,53,127,112
3,48,127,208
3,53,127,144
3,48,127,128
3,53,127,144
3,48,127,144
3,55,127,160
3,48,127,176
3,55,127,144
3,48,127,192
3,46,127,160
3,46,127,160
3,48,127,128
3,48,127,176
3,53,115,128
3,48,127,176
3,53,127,160
3,48,127,192
3,53,127,128
3,48,127,128
3,53,127,144
3,41,122,144
3,46,127,128
3,41,119,112
3,46,127,160
3,46,127,144
3,48,127,144
3,43,127,128
3,48,127,144
3,48,127,192
3,49,127,128
3,44,127,112
3,49,127,144
3,44,127,160
3,56,127,176
3,51,127,128
3,44,127,208
3,51,127,128
3,43,127,96
3,43,127,160
3,48,127,160
3,48,127,144
3,53,127,176
3,48,127,160
3,41,127,160
4,84,85,25536
4,81,89,0
4,86,64,32
4,83,73,0
4,84,69,16
4,81,94,0
4,83,71,80
4,79,78,0
4,86,68,80
4,83,73,0
4,81,85,112
4,77,73,0
4,80,72,112
4,77,66,0
4,76,61,144
4,79,71,0
4,76,62,80
4,84,68,0
4,76,52,112
4,79,57,0
4,78,70,16
4,75,66,0
4,77,63,240
4,74,66,0
4,79,73,96
4,76,66,0
4,79,81,128
4,83,66,0
4,77,78,64
4,81,64,0
4,79,73,48
4,76,71,0
4,74,73,128
4,77,81,0
4,76,71,144
4,72,63,0
4,84,81,240
4,81,99,0
4,86,66,48
4,83,85,0
4,81,85,16
4,84,64,0
4,83,66,48
4,79,68,0
4,86,66,112
4,83,71,0
4,77,63,112
4,81,78,0
4,80,65,96
4,77,63,0
4,76,66,128
4,79,81,0
4,76,66,96
4,84,76,0
4,76,62,96
4,79,68,0
4,75,66,48
4,78,64,0
4,74,73,224
4,77,66,0
4,76,66,96
4,79,73,0
4,79,85,112
4,83,73,0
4,81,61,64
4,77,76,0
4,77,54,48
4,79,78,0
4,83,73,112
4,77,81,0
4,76,68,128
4,84,78,0
4,84,94,59072
4,91,81,32
4,89,85,32
4,88,66,0
4,89,76,160
4,89,76,128
4,89,73,112
4,88,89,112
4,86,85,112
4,84,63,160
4,81,99,336
4,84,89,128
4,83,89,16
4,82,74,48
4,86,99,592
4,84,85,96
4,83,81,144
4,84,62,64
4,84,85,208
4,91,89,80
4,89,94,64
4,88,69,32
4,89,89,160
4,89,85,144
4,89,81,128
4,88,68,48
4,86,78,96
4,84,73,176
4,81,94,304
4,84,94,144
4,85,95,144
4,86,81,112
4,89,85,80
4,88,94,128
4,88,85,208
4,88,69,144
4,89,89,96
4,91,99,112
4,92,102,160
4,92,95,112
4,92,77,112
4,91,99,128
4,89,106,112
4,87,102,160
4,85,95,144
4,84,85,144
4,86,113,208
4,89,95,80
4,86,85,32
4,88,90,112
4,89,85,32
4,91,72,16
4,89,90,96
4,96,127,208
4,98,59,16
4,100,74,48
4,101,62,0
5,52,118,1536
5,55,127,0
5,59,127,96
5,62,127,0
5,60,97,32
5,57,118,0
5,59,90,0
5,55,104,0
5,60,109,128
5,57,127,0
5,59,102,16
5,55,118,0
5,53,114,112
5,57,127,0
5,55,95,128
5,52,79,0
5,52,104,160
5,48,104,0
5,55,113,128
5,52,109,0
5,56,123,16
5,53,109,16
5,57,109,0
5,57,127,192
5,60,113,0
5,59,109,64
5,55,121,0
5,55,106,0
5,55,113,96
5,64,118,0
5,62,114,80
5,53,127,0
5,52,102,112
5,60,102,0
5,52,60,25232
5,45,55,0
5,55,67,0
5,48,67,0
5,59,85,160
5,55,85,0
5,62,74,1536
5,50,104,448
5,47,104,0
5,59,100,128
5,50,99,0
5,50,104,144
5,59,109,0
5,58,93,32
5,49,113,0
5,57,121,96
5,48,102,0
5,52,86,32
5,52,85,32
5,55,90,0
5,50,93,48
5,54,95,0
5,50,65,48
5,60,109,112
5,52,97,0
5,59,97,128
5,50,99,0
5,58,86,16
5,49,123,0
5,50,88,64
5,59,93,0
5,43,113,192
5,47,118,0
5,45,127,48
5,48,102,0
5,50,109,80
5,47,100,0
5,50,100,112
5,59,118,0
5,50,99,144
5,59,109,0
5,58,99,80
5,49,116,0
5,48,104,128
5,57,109,0
5,48,93,16
5,52,83,0
5,52,69,0
5,55,83,0
5,54,127,112
5,50,83,0
5,50,78,80
5,52,106,128
5,60,114,0
5,50,113,128
5,59,118,0
5,48,109,112
5,57,127,0
5,47,106,96
5,55,100,0
5,43,102,208
5,47,109,0
5,45,114,64
5,48,93,0
5,47,97,112
5,50,113,0
5,50,100,128
5,59,99,0
5,50,99,128
5,59,99,0
5,58,99,112
5,49,123,0
5,48,99,128
5,57,109,0
5,52,85,16
5,52,100,80
5,55,95,0
5,50,86,128
5,54,113,0
5,50,95,0
5,52,95,144
5,60,109,0
5,59,97,128
5,50,102,0
5,49,113,80
5,58,99,0
5,59,93,96
5,50,93,0
5,47,114,144
5,43,109,0
5,48,99,96
5,45,100,0
5,47,102,112
5,50,113,0
5,59,97,128
5,50,102,0
5,50,109,128
5,59,109,0
5,58,107,112
5,49,116,0
5,48,100,128
5,57,106,0
5,48,92,64
5,52,88,0
5,52,93,128
5,48,92,0
5,52,92,80
5,55,95,0
5,50,85,112
5,54,123,0
5,50,106,32
5,52,100,128
5,60,102,0
5,59,100,128
5,50,102,0
5,48,102,128
5,57,114,0
5,55,102,160
5,47,100,0
5,52,104,3712
5,55,118,0
5,59,102,48
5,62,102,0
5,60,95,32
5,57,114,0
5,55,95,16
5,59,92,0
5,57,109,112
5,60,97,0
5,59,90,32
5,55,114,0
5,57,106,64
5,53,104,0
5,52,90,16
5,55,92,0
5,52,121,16
5,48,114,0
5,52,114,96
5,55,114,0
5,54,123,96
5,51,120,0
5,50,93,64
5,53,95,0
5,53,114,128
5,57,113,0
5,52,104,48
5,55,106,0
5,54,120,96
5,51,127,0
5,52,88,96
5,55,97,0
5,52,93,144
5,55,109,0
5,59,118,96
5,62,114,0
5,57,127,48
5,60,99,0
5,59,97,32
5,55,106,0
5,60,97,80
5,57,121,0
5,59,97,16
5,55,100,0
5,53,97,112
5,57,118,0
5,52,83,128
5,55,90,0
5,52,104,16
5,48,114,0
5,52,102,80
5,55,100,0
5,56,106,48
5,53,97,16
5,57,92,0
5,60,114,128
5,57,127,0
5,59,97,32
5,55,121,0
5,55,109,128
5,55,113,128
5,55,118,128
5,64,113,0
5,53,106,32
5,62,97,0
5,52,85,64
5,60,93,0
5,60,121,640
5,64,78,32
5,67,85,0
5,65,95,32
5,62,99,0
5,60,92,16
5,64,81,0
5,62,113,144
5,65,102,0
5,62,109,96
5,65,109,0
5,62,102,96
5,65,106,0
5,64,86,32
5,60,102,0
5,62,92,96
5,58,109,0
5,57,71,128
5,60,72,0
5,57,127,160
5,53,100,0
5,57,118,112
5,60,95,0
5,59,97,112
5,56,113,0
5,58,100,80
5,55,106,0
5,58,127,128
5,62,104,0
5,60,99,64
5,57,127,0
5,59,97,192
5,56,93,0
5,60,83,64
5,57,99,0
5,57,109,160
5,60,104,0
5,67,121,64
5,64,121,0
5,65,102,32
5,62,127,0
5,60,97,16
5,64,90,0
5,62,113,112
5,65,100,0
5,60,109,48
5,64,90,0
5,62,97,96
5,58,100,0
5,60,74,112
5,57,72,0
5,57,113,16
5,53,106,0
5,57,118,128
5,60,106,0
5,57,113,112
5,61,120,0
5,62,97,64
5,58,102,0
5,65,106,112
5,62,100,0
5,64,114,96
5,60,118,0
5,65,127,480
5,62,127,0
5,67,118,80
5,64,127,0
5,68,113,160
5,65,114,0
5,68,102,96
5,65,127,0
5,65,121,80
5,68,102,0
5,63,127,48
5,67,109,0
5,61,127,64
5,65,118,0
5,60,118,176
5,63,127,0
5,61,127,128
5,58,127,0
5,60,121,112
5,56,127,0
