track,note,velocity,time
1,64,73,0
1,72,75,0
1,67,82,0
1,64,73,68
1,67,82,0
1,72,77,0
1,64,70,40
1,67,85,0
1,72,77,0
1,63,74,268
1,66,74,0
1,72,80,0
1,66,72,32
1,63,70,0
1,72,77,0
1,72,77,48
1,66,76,0
1,63,76,0
1,72,73,272
1,64,73,0
1,67,80,0
1,74,85,64
1,76,93,48
1,74,77,104
1,72,73,112
1,70,74,112
1,69,80,128
1,67,73,120
1,65,77,120
1,69,93,0
1,69,77,816
1,65,68,0
1,68,49,0
1,64,63,0
1,65,63,4
1,69,65,0
1,70,72,64
1,67,75,0
1,69,67,32
1,65,65,0
1,68,68,0
1,64,64,0
1,69,73,8
1,65,77,0
1,72,70,64
1,69,75,0
1,72,77,128
1,69,80,0
1,71,63,24
1,68,76,0
1,70,55,0
1,67,59,0
1,72,63,36
1,69,68,0
1,72,70,124
1,69,82,0
1,71,56,48
1,68,74,0
1,70,56,32
1,67,58,0
1,74,62,16
1,69,62,0
1,69,75,112
1,74,70,0
1,73,62,0
1,69,38,8
1,72,40,0
1,69,73,0
1,65,72,0
1,69,85,832
1,65,73,0
1,68,59,52
1,64,56,0
1,65,53,16
1,69,60,0
1,70,63,32
1,67,73,0
1,69,67,16
1,65,66,0
1,68,71,0
1,64,65,0
1,65,66,16
1,69,72,0
1,72,68,48
1,69,75,0
1,69,73,120
1,72,73,0
1,71,61,20
1,68,74,0
1,70,52,16
1,67,60,0
1,69,70,48
1,72,66,0
1,72,70,120
1,69,80,0
1,71,62,88
1,68,66,0
1,67,68,52
1,70,65,0
1,64,75,80
1,58,81,0
1,57,56,64
1,65,61,0
1,65,110,144
1,67,80,0
1,69,80,192
1,70,85,96
1,74,70,32
1,70,85,0
1,70,81,112
1,74,66,0
1,70,72,112
1,74,63,0
1,74,68,100
1,68,72,0
1,68,70,88
1,74,72,0
1,68,72,104
1,76,73,0
1,68,74,56
1,74,80,0
1,69,90,96
1,74,69,0
1,72,58,32
1,69,65,0
1,72,60,64
1,69,72,0
1,71,46,24
1,68,62,0
1,72,58,68
1,69,64,0
1,65,67,8
1,64,60,192
1,65,67,4
1,69,73,96
1,65,77,0
1,69,63,68
1,65,63,0
1,65,63,64
1,69,64,0
1,65,66,68
1,69,67,0
1,65,75,64
1,69,75,0
1,65,75,64
1,69,75,0
1,64,66,0
1,67,66,0
1,62,68,16
1,65,65,0
1,64,73,80
1,69,85,0
1,64,68,48
1,67,85,0
1,64,65,40
1,67,82,0
1,63,81,96
1,66,76,0
1,67,73,16
1,64,68,0
1,68,93,240
1,64,75,0
1,69,72,24
1,65,70,4
1,65,77,788
1,69,82,0
1,68,52,0
1,64,59,0
1,65,63,24
1,69,64,0
1,70,71,72
1,67,75,0
1,65,66,16
1,69,70,0
1,68,65,0
1,64,64,0
1,69,64,0
1,65,61,0
1,69,70,80
1,72,66,0
1,69,70,112
1,72,63,0
1,71,48,32
1,68,72,0
1,67,66,16
1,70,61,4
1,69,98,52
1,72,75,0
1,69,98,128
1,72,77,0
1,71,70,68
1,68,85,0
1,70,65,32
1,67,67,0
1,65,60,0
1,64,85,0
1,58,85,0
1,57,63,68
1,65,60,0
1,57,75,48
1,65,77,0
1,59,77,224
1,67,80,0
1,64,63,208
1,69,77,0
1,64,61,48
1,67,70,0
1,64,63,48
1,67,77,0
1,64,72,136
1,67,85,0
1,69,85,136
1,64,68,0
1,69,75,120
1,64,67,0
1,64,68,128
1,67,75,0
1,67,98,192
1,64,103,4
1,64,82,0
1,72,80,0
1,71,62,16
1,65,61,0
1,67,89,96
1,69,93,148
1,65,80,0
1,67,70,16
1,65,75,0
1,67,77,48
1,65,70,0
1,67,82,128
1,65,70,0
1,69,85,128
1,65,77,0
1,69,89,128
1,65,75,0
1,67,75,128
1,65,68,0
1,65,80,144
1,67,82,0
1,65,98,48
1,74,93,0
1,64,75,64
1,72,73,0
1,64,70,104
1,67,85,0
1,69,103,128
1,64,73,0
1,67,68,48
1,64,64,0
1,64,61,48
1,67,70,0
1,64,70,144
1,67,80,0
1,69,82,124
1,64,68,0
1,69,77,128
1,64,68,0
1,67,64,128
1,64,62,0
1,67,72,168
1,64,67,0
1,64,75,4
1,72,70,0
1,71,58,84
1,65,62,0
1,74,110,136
1,76,93,144
1,74,89,48
1,74,85,48
1,74,98,140
1,76,98,132
1,74,75,0
1,74,93,128
1,76,93,96
1,74,116,32
1,72,98,16
1,71,110,32
1,69,110,144
1,67,93,128
1,67,93,0
1,67,73,196
1,72,85,136
1,64,89,0
1,67,98,0
1,64,72,128
1,67,82,0
1,72,72,0
1,64,73,36
1,67,85,0
1,72,82,0
1,66,85,256
1,63,89,0
1,72,93,0
1,66,81,128
1,63,85,0
1,72,82,0
1,72,77,32
1,63,89,0
1,66,85,0
1,64,82,272
1,67,110,0
1,72,93,0
1,74,93,112
1,76,93,32
1,74,85,96
1,72,93,100
1,70,99,96
1,69,98,112
1,67,89,112
1,69,82,104
1,65,89,4
1,69,75,816
1,65,70,0
1,68,53,0
1,64,56,0
1,65,65,16
1,69,66,0
1,70,78,100
1,67,77,0
1,69,77,32
1,65,72,0
1,68,66,0
1,64,67,0
1,69,70,16
1,65,62,0
1,67,70,0
1,69,77,48
1,72,70,0
1,69,85,120
1,72,80,0
1,71,63,48
1,68,74,0
1,70,66,48
1,67,64,0
1,72,61,96
1,69,70,0
1,69,89,128
1,72,72,0
1,71,65,92
1,68,70,0
1,70,53,64
1,67,60,0
1,69,77,48
1,74,68,0
1,69,89,112
1,74,77,0
1,73,71,120
1,69,72,0
1,69,56,100
1,72,49,0
1,69,98,84
1,65,93,0
1,69,82,848
1,65,75,0
1,68,59,0
1,64,56,0
1,65,64,16
1,69,67,0
1,70,76,84
1,67,77,0
1,69,82,16
1,65,82,0
1,68,60,0
1,64,58,0
1,69,66,0
1,65,75,0
1,72,75,48
1,69,80,0
1,69,68,48
1,72,67,0
1,71,66,48
1,68,81,0
1,67,73,16
1,70,70,0
1,72,72,80
1,69,85,0
1,72,77,96
1,69,98,0
1,68,74,112
1,71,68,0
1,70,64,64
1,67,73,0
1,58,71,192
1,64,62,0
1,66,47,0
1,65,66,144
1,57,68,0
1,65,70,80
1,67,67,192
1,69,75,160
1,70,70,0
1,70,85,112
1,74,63,0
1,70,81,128
1,74,61,0
1,70,69,128
1,74,62,0
1,68,71,112
1,74,70,0
1,68,66,112
1,74,70,0
1,68,71,96
1,76,72,0
1,74,73,64
1,68,72,0
1,74,80,108
1,69,75,0
1,72,65,32
1,69,80,0
1,69,93,112
1,72,75,0
1,71,66,16
1,68,71,0
1,69,65,40
1,72,66,0
1,65,77,0
1,64,80,64
1,65,72,16
1,69,72,36
1,65,85,0
1,65,75,128
1,69,75,0
1,65,75,112
1,69,77,0
1,65,73,112
1,69,75,0
1,65,85,112
1,69,82,0
1,65,89,128
1,69,93,0
1,64,77,8
1,67,80,0
1,65,75,16
1,62,80,0
1,64,80,80
1,69,93,0
1,64,73,64
1,67,89,0
1,64,64,24
1,67,73,0
1,66,74,88
1,63,89,0
1,64,72,80
1,67,80,0
1,66,63,0
1,69,42,0
1,68,106,264
1,64,82,0
1,69,82,32
1,65,93,0
1,65,67,816
1,69,63,0
1,64,55,24
1,68,51,0
1,65,60,0
1,69,65,0
1,70,76,96
1,67,72,0
1,69,77,32
1,65,77,0
1,68,71,4
1,64,68,0
1,69,72,8
1,65,72,0
1,69,70,60
1,72,63,0
1,69,75,128
1,72,70,0
1,71,59,32
1,68,66,0
1,70,57,48
1,67,64,0
1,69,75,100
1,72,63,0
1,72,72,128
1,69,93,0
1,71,64,96
1,68,69,0
1,70,66,72
1,67,70,0
1,58,78,224
1,64,67,0
1,65,62,96
1,57,68,0
1,67,93,288
1,59,82,0
1,69,85,144
1,67,65,16
1,67,73,48
1,67,70,144
1,69,63,0
1,69,75,128
1,64,65,0
1,67,68,0
1,64,59,152
1,69,72,0
1,64,85,112
1,72,82,0
1,71,73,80
1,65,73,4
1,67,68,32
1,69,82,128
1,65,68,0
1,67,67,32
1,67,77,32
1,67,77,128
1,65,68,24
1,69,80,0
1,69,77,116
1,65,65,0
1,67,72,112
1,65,64,0
1,67,85,176
1,65,75,0
1,65,85,96
1,74,89,0
1,64,73,64
1,72,75,0
1,67,80,144
1,64,64,0
1,69,93,128
1,64,72,0
1,69,80,72
1,64,60,0
1,67,75,20
1,67,82,128
1,64,67,0
1,64,70,16
1,69,77,0
1,69,85,128
1,64,70,0
1,67,77,120
1,64,68,0
1,64,89,192
1,67,93,0
1,64,73,88
1,72,82,0
1,71,75,80
1,65,75,0
1,74,93,176
1,76,110,136
1,74,82,48
1,74,80,40
1,74,89,128
1,76,80,8
1,76,89,128
1,74,93,112
1,76,82,144
1,74,121,64
1,72,95,32
1,69,117,32
1,66,115,144
1,67,108,160
1,67,117,152
1,64,93,120
1,67,116,0
1,72,85,0
1,67,80,128
1,64,66,0
1,72,68,0
1,64,73,40
1,67,98,0
1,72,80,0
1,72,89,272
1,66,81,0
1,63,85,0
1,66,72,96
1,72,73,0
1,63,66,0
1,66,93,20
1,63,85,0
1,72,103,0
1,64,85,280
1,72,98,0
1,67,103,0
1,74,89,128
1,76,98,32
1,74,80,100
1,72,82,16
1,70,93,120
1,69,85,128
1,67,80,112
1,69,103,112
1,65,110,0
1,65,75,836
1,69,72,0
1,64,54,24
1,68,55,0
1,65,67,16
1,69,70,0
1,70,76,80
1,67,66,0
1,65,73,32
1,69,80,0
1,68,70,0
1,64,70,0
1,69,65,32
1,65,80,0
1,72,75,68
1,69,80,0
1,72,82,120
1,69,89,0
1,71,64,80
1,68,81,0
1,70,70,64
1,67,64,0
1,69,77,64
1,72,70,0
1,69,93,128
1,72,73,0
1,71,67,84
1,68,74,0
1,70,61,64
1,67,63,0
1,74,66,32
1,69,80,0
1,69,98,120
1,74,82,0
1,73,76,112
1,69,85,0
1,69,72,96
1,72,66,0
1,69,98,0
1,65,93,0
1,65,82,864
1,69,80,0
1,68,52,8
1,64,53,0
1,65,61,32
1,69,66,0
1,67,75,96
1,70,76,0
1,69,70,32
1,65,67,0
1,68,61,0
1,64,59,0
1,69,68,0
1,65,67,0
1,69,80,68
1,72,70,0
1,69,85,128
1,72,80,0
1,71,66,32
1,68,78,0
1,67,63,72
1,70,61,0
1,69,80,96
1,72,72,0
1,72,75,128
1,69,89,0
1,71,64,144
1,68,71,0
1,67,68,80
1,70,64,0
1,64,65,208
1,58,78,0
1,65,65,124
1,57,72,0
1,65,77,128
1,67,72,192
1,69,72,164
1,70,74,124
1,65,54,0
1,70,74,24
1,74,73,0
1,70,71,128
1,74,60,0
1,70,78,132
1,74,67,0
1,74,68,116
1,68,68,0
1,74,72,96
1,68,68,0
1,68,72,96
1,76,77,0
1,68,68,64
1,74,80,0
1,74,73,88
1,69,43,96
1,72,66,0
1,69,67,0
1,72,73,120
1,69,82,0
1,71,52,24
1,68,70,0
1,69,67,36
1,72,66,0
1,65,60,188
1,64,68,48
1,65,75,192
1,69,68,16
1,65,85,0
1,65,75,128
1,69,77,0
1,69,75,128
1,65,75,0
1,65,77,112
1,69,75,0
1,65,82,124
1,69,77,0
1,65,82,112
1,69,82,0
1,64,73,16
1,67,70,0
1,65,73,20
1,62,73,0
1,64,77,88
1,69,89,0
1,64,77,60
1,67,93,0
1,64,63,32
1,67,80,0
1,66,70,80
1,63,81,0
1,64,77,64
1,67,82,0
1,66,50,0
1,64,89,264
1,68,114,0
1,69,77,32
1,65,93,0
1,68,52,0
1,69,75,816
1,65,72,0
1,64,54,16
1,68,57,0
1,65,64,0
1,69,67,0
1,70,74,96
1,67,77,4
1,65,68,24
1,69,70,0
1,68,71,16
1,64,66,0
1,69,70,20
1,65,67,0
1,69,67,80
1,72,63,0
1,69,68,128
1,72,68,0
1,71,63,48
1,68,72,0
1,70,57,60
1,67,63,0
1,69,68,48
1,72,64,0
1,69,85,128
1,72,70,0
1,71,67,80
1,68,71,0
1,70,66,68
1,67,66,0
1,58,76,256
1,64,64,0
1,65,70,208
1,57,77,0
1,57,72,112
1,60,82,0
1,65,77,0
1,62,64,72
1,60,66,0
1,57,60,0
1,66,65,0
1,60,67,120
1,62,66,0
1,66,70,0
1,57,65,0
1,60,59,112
1,66,65,0
1,57,55,0
1,62,57,0
1,66,70,112
1,62,67,0
1,60,67,0
1,57,63,0
1,59,82,96
1,67,98,0
1,62,93,0
1,67,80,848
1,71,68,0
1,70,52,0
1,66,59,0
1,71,54,32
1,67,59,0
1,72,66,20
1,69,70,4
1,71,63,32
1,67,75,0
1,66,68,64
1,70,68,0
1,71,62,0
1,67,63,0
1,71,68,48
1,74,70,0
1,71,68,124
1,74,77,0
1,73,66,32
1,70,76,0
1,69,62,36
1,72,62,0
1,71,66,48
1,74,67,0
1,71,72,136
1,74,75,0
1,73,72,80
1,70,76,0
1,72,56,40
1,69,67,0
1,76,66,80
1,71,77,0
1,71,82,116
1,76,72,0
1,75,71,80
1,71,70,0
1,74,50,64
1,71,56,0
1,71,75,112
1,67,82,4
1,67,75,840
1,71,73,0
1,70,45,40
1,66,64,0
1,67,58,32
1,71,50,0
1,72,63,32
1,69,63,0
1,71,58,40
1,67,63,0
1,70,72,80
1,66,68,0
1,67,65,64
1,71,63,0
1,71,65,64
1,74,67,0
1,74,73,112
1,71,72,0
1,73,72,52
1,70,81,0
1,69,68,60
1,72,63,0
1,71,66,64
1,74,67,0
1,74,73,112
1,71,72,0
1,73,70,88
1,70,71,0
1,69,80,80
1,72,67,0
1,60,73,164
1,66,99,0
1,67,80,120
1,59,77,0
1,66,54,0
1,64,85,287
1,62,93,16
1,59,93,96
1,55,93,112
1,59,85,288
1,64,89,0
1,62,93,0
1,67,89,0
2,48,104,0
2,48,95,112
2,48,99,112
2,48,99,144
2,48,104,112
2,48,104,464
2,50,88,0
2,52,95,112
2,53,104,96
2,48,91,224
2,41,88,228
2,55,91,1328
2,48,91,144
2,55,91,112
2,48,86,136
2,55,88,128
2,48,83,192
2,55,88,120
2,48,86,168
2,53,86,144
2,48,86,144
2,53,81,100
2,48,95,180
2,53,99,16
2,48,104,288
2,41,95,220
2,55,99,1328
2,48,83,164
2,55,86,128
2,48,83,160
2,55,88,120
2,48,86,216
2,55,66,112
2,48,83,96
2,50,86,32
2,52,91,64
2,53,86,80
2,48,91,80
2,41,74,48
2,41,78,112
2,43,86,32
2,45,74,4
2,46,91,64
2,46,87,144
2,47,95,112
2,47,83,128
2,48,83,116
2,41,78,88
2,48,88,84
2,41,74,16
2,50,88,80
2,49,105,0
2,48,73,120
2,47,57,0
2,47,83,112
2,43,91,88
2,48,91,80
2,48,91,176
2,48,95,192
2,48,127,264
2,53,116,36
2,48,86,224
2,41,88,384
2,55,81,1368
2,48,83,160
2,55,76,116
2,48,86,164
2,55,76,128
2,48,86,96
2,55,95,16
2,48,99,112
2,53,78,112
2,50,83,40
2,48,81,16
2,45,79,16
2,41,91,192
2,43,99,256
2,48,88,128
2,43,81,128
2,48,81,136
2,43,83,128
2,48,81,148
2,43,88,128
2,50,78,124
2,43,83,160
2,47,74,148
2,43,81,128
2,50,78,136
2,43,81,184
2,50,69,84
2,43,74,24
2,45,81,0
2,47,74,192
2,48,86,0
2,47,83,0
2,45,73,0
2,43,79,0
2,48,86,64
2,43,79,112
2,48,86,128
2,43,83,136
2,48,78,136
2,43,88,128
2,50,81,148
2,43,86,120
2,50,81,112
2,50,86,120
2,43,86,132
2,43,95,148
2,50,86,128
2,50,86,128
2,43,91,216
2,43,95,160
2,48,99,88
2,48,74,160
2,48,95,128
2,48,81,144
2,48,109,112
2,48,104,524
2,50,88,4
2,52,88,192
2,53,99,0
2,48,109,240
2,41,88,176
2,55,81,1376
2,48,86,128
2,55,83,136
2,48,88,128
2,55,91,144
2,48,91,128
2,55,86,112
2,48,95,120
2,53,81,112
2,48,91,144
2,53,95,88
2,52,88,192
2,50,91,0
2,48,88,192
