track,note,velocity,time
1,76,127,38404
1,72,127,0
1,69,127,0
1,62,127,0
1,72,127,92
1,62,127,0
1,76,127,4
1,69,127,0
1,62,127,80
1,72,127,4
1,76,127,0
1,69,127,0
1,76,127,156
1,62,127,4
1,72,127,0
1,69,127,0
1,62,127,108
1,76,127,0
1,72,127,0
1,69,127,0
1,79,127,0
1,76,127,96
1,72,127,0
1,69,127,0
1,62,127,0
1,79,127,0
1,62,127,136
1,76,127,4
1,72,127,0
1,69,127,0
1,79,127,0
1,77,127,92
1,62,127,176
1,76,127,0
1,69,127,0
1,72,127,0
1,79,127,0
1,62,127,144
1,79,127,0
1,72,127,0
1,76,127,0
1,83,127,0
1,62,127,80
1,79,127,4
1,76,127,0
1,72,127,0
1,83,127,0
1,62,127,136
1,72,127,0
1,83,127,0
1,76,127,4
1,79,127,0
1,62,127,172
1,79,127,4
1,72,127,0
1,76,127,0
1,83,127,0
1,62,127,288
1,72,127,0
1,76,127,0
1,69,127,0
1,79,127,0
1,62,127,12932
1,67,127,20
1,69,127,92
1,71,127,128
1,74,127,116
1,75,127,92
1,76,127,48
1,62,127,416
1,66,127,32
1,72,127,124
1,71,127,116
1,70,127,124
1,71,127,172
1,67,127,264
1,62,127,80
1,62,127,428
1,67,127,196
1,69,127,108
1,71,127,128
1,74,127,128
1,75,127,104
1,76,127,108
1,62,127,456
1,66,127,32
1,72,127,120
1,71,127,116
1,69,127,112
1,67,127,152
1,60,127,28256
1,67,127,32
1,65,127,576
1,64,127,168
1,65,127,348
1,64,127,0
1,65,127,104
1,65,127,100
1,64,127,116
1,62,127,116
1,60,127,140
1,57,127,296
1,60,127,112
1,59,127,12
1,58,127,8
1,62,127,348
1,60,127,92
1,59,127,140
1,60,127,28
1,60,127,320
1,67,127,112
1,65,127,88
1,64,127,4
1,65,127,224
1,65,127,124
1,65,127,116
1,64,127,112
1,62,127,124
1,60,127,148
1,57,127,308
1,60,127,120
1,61,127,132
1,62,127,104
1,65,127,80
1,64,127,140
1,65,127,100
1,67,127,116
1,68,127,132
1,68,127,128
1,68,127,60
1,67,127,76
1,65,127,96
1,63,127,124
1,61,127,128
1,60,127,136
1,58,127,148
1,62,127,100
1,58,127,48
1,64,127,60
1,65,127,76
1,67,127,84
1,65,127,80
1,53,127,36
2,36,127,1540
2,31,127,124
2,36,127,132
2,31,127,96
2,38,127,144
2,31,127,156
2,38,127,144
2,31,127,164
2,41,127,136
2,36,127,124
2,43,127,124
2,38,127,136
2,36,127,84
2,31,127,128
2,36,127,136
2,31,127,152
2,36,127,128
2,31,127,128
2,36,127,128
2,36,127,144
2,41,127,128
2,36,127,128
2,41,127,140
2,36,127,136
2,43,127,136
2,38,127,148
2,31,127,72
2,31,127,188
2,36,127,144
2,31,127,184
2,36,127,96
2,36,127,580
2,31,127,152
2,36,127,156
2,31,127,32
2,38,127,140
2,33,127,96
2,38,127,128
2,33,127,96
2,43,127,148
2,38,127,92
2,31,127,32
2,33,127,44
2,35,127,104
2,36,127,120
2,31,127,100
2,36,127,116
2,31,127,116
2,36,127,120
2,31,127,116
2,36,127,148
2,31,127,124
2,38,127,148
2,33,127,112
2,38,127,148
2,33,127,104
2,43,127,140
2,38,127,116
2,31,127,28
2,33,127,84
2,35,127,124
2,36,127,128
2,31,127,132
2,36,127,108
2,38,127,448
2,31,127,156
2,38,127,124
2,31,127,92
2,36,127,128
2,31,127,96
2,36,127,140
2,31,127,140
2,38,127,128
2,31,127,124
2,38,127,128
2,31,127,20
2,36,127,156
2,31,127,112
2,36,127,140
2,31,127,84
2,38,127,148
2,31,127,156
2,38,127,148
2,31,127,116
2,36,127,148
2,31,127,112
2,36,127,116
2,36,127,148
2,38,127,132
2,31,127,184
2,33,127,120
2,35,127,168
2,36,127,180
2,31,127,172
2,36,127,120
2,38,127,272
2,33,127,1340
2,35,127,4
2,26,127,16
2,33,127,1148
2,35,127,76
2,33,127,0
2,26,127,4
2,38,127,12
2,33,127,4
2,25,127,96
2,35,127,0
2,26,127,24
2,38,127,16
2,31,127,620
2,26,127,156
2,31,127,164
2,26,127,164
2,33,127,144
2,28,127,136
2,33,127,152
2,28,127,120
2,38,127,136
2,33,127,96
2,38,127,144
2,33,127,88
2,31,127,104
2,26,127,180
2,31,127,164
2,26,127,172
2,31,127,188
2,26,127,184
2,31,127,180
2,26,127,188
2,33,127,144
2,28,127,160
2,33,127,144
2,28,127,180
2,38,127,172
2,33,127,152
2,38,127,120
2,33,127,152
2,31,127,128
2,26,127,164
2,31,127,56
2,26,127,236
2,31,127,108
2,26,127,104
2,31,127,168
2,26,127,132
2,33,127,164
2,28,127,124
2,33,127,120
2,28,127,144
2,38,127,160
2,33,127,120
2,38,127,132
2,33,127,120
2,31,127,100
2,26,127,156
2,31,127,172
2,26,127,160
2,31,127,152
2,26,127,136
2,31,127,168
2,26,127,120
2,36,127,172
2,31,127,88
2,36,127,136
2,31,127,128
2,38,127,140
2,26,127,132
2,28,127,108
2,30,127,160
2,31,127,152
2,26,127,172
2,31,127,168
2,31,127,324
2,36,127,36
2,31,127,212
2,34,127,4
2,36,127,36
2,31,127,140
2,36,127,64
2,31,127,80
2,36,127,136
2,31,127,84
2,38,127,152
2,31,127,164
2,38,127,132
2,31,127,200
2,41,127,156
2,36,127,120
2,43,127,136
2,38,127,168
2,36,127,12
2,31,127,144
2,36,127,164
2,31,127,144
2,36,127,156
2,31,127,136
2,36,127,144
2,31,127,112
2,38,127,144
2,38,127,164
2,31,127,12
2,31,127,248
2,38,127,60
2,33,127,184
2,31,127,128
2,38,127,132
2,36,127,88
2,31,127,108
2,36,127,4
2,31,127,192
2,33,127,164
2,35,127,8
2,36,127,8
2,31,127,104
2,36,127,120
2,31,127,120
2,38,127,152
2,31,127,192
2,38,127,144
2,31,127,220
2,41,127,112
2,36,127,104
2,43,127,108
2,38,127,140
2,36,127,132
2,31,127,128
2,36,127,140
2,31,127,136
2,36,127,128
2,31,127,16
2,36,127,104
2,36,127,104
2,41,127,76
2,36,127,108
2,41,127,128
2,36,127,148
2,31,127,160
2,31,127,184
2,33,127,152
2,35,127,152
2,36,127,156
2,31,127,144
2,36,127,112
2,36,127,120
2,36,127,152
2,31,127,136
2,36,127,128
2,31,127,168
2,34,127,144
2,34,127,160
2,36,127,88
2,36,127,224
2,41,127,76
2,36,127,124
2,29,127,196
2,36,127,156
2,41,127,120
2,36,127,100
2,41,127,124
2,36,127,88
2,31,127,144
2,31,127,200
2,36,127,164
2,36,127,196
2,34,127,92
2,34,127,160
2,36,127,120
2,36,127,152
2,41,127,132
2,36,127,140
2,41,127,104
2,36,127,204
2,41,127,144
2,36,127,116
2,41,127,132
2,36,127,136
2,43,127,160
2,36,127,172
2,43,127,144
2,36,127,188
2,34,127,152
2,34,127,148
2,36,127,124
2,36,127,164
2,41,127,116
2,36,127,164
2,41,127,156
2,36,127,184
2,41,127,116
2,36,127,120
2,41,127,140
2,29,127,132
2,34,127,128
2,29,127,104
2,34,127,156
2,34,127,144
2,36,127,140
2,31,127,128
2,36,127,144
2,36,127,184
2,37,127,120
2,32,127,108
2,37,127,144
2,32,127,160
2,44,127,168
2,39,127,120
2,32,127,196
2,39,127,124
2,31,127,88
2,31,127,160
2,36,127,156
2,36,127,144
2,41,127,164
2,36,127,148
2,29,127,148
3,76,127,0
3,72,127,0
3,74,127,24
3,77,127,0
3,76,127,40
3,79,127,0
3,76,127,20
3,72,127,0
3,74,127,12
3,77,127,0
3,75,127,96
3,78,127,0
3,76,127,120
3,79,127,0
3,76,127,68
3,79,127,4
3,80,127,60
3,76,127,0
3,81,127,64
3,77,127,0
3,77,127,4
3,74,127,0
3,76,127,48
3,79,127,0
3,80,127,96
3,76,127,0
3,81,127,96
3,77,127,0
3,81,127,96
3,77,127,0
3,81,127,48
3,84,127,0
3,83,127,76
3,79,127,0
3,83,127,116
3,86,127,0
3,77,127,16
3,81,127,0
3,79,127,188
3,77,127,60
3,81,127,0
3,83,127,8
3,76,127,92
3,84,127,0
3,81,127,128
3,76,127,0
3,79,127,48
3,76,127,0
3,72,127,120
3,76,127,4
3,74,127,20
3,77,127,0
3,79,127,72
3,76,127,0
3,76,127,4
3,72,127,0
3,74,127,20
3,77,127,0
3,75,127,108
3,78,127,0
3,76,127,108
3,79,127,0
3,79,127,72
3,76,127,0
3,80,127,84
3,76,127,0
3,81,127,96
3,77,127,0
3,77,127,12
3,74,127,0
3,76,127,32
3,79,127,4
3,80,127,108
3,76,127,0
3,81,127,116
3,77,127,0
3,81,127,72
3,77,127,0
3,81,127,72
3,84,127,0
3,83,127,72
3,79,127,0
3,83,127,112
3,86,127,0
3,77,127,76
3,81,127,0
3,79,127,24
3,81,127,64
3,83,127,84
3,84,127,84
3,79,127,4
3,76,127,12
3,79,127,16
3,72,127,4
3,84,127,43892
3,89,127,0
3,84,127,52
3,88,127,4
3,79,127,68
3,86,127,0
3,76,127,104
3,84,127,0
3,84,127,332
3,89,127,0
3,84,127,44
3,88,127,4
3,86,127,72
3,79,127,0
3,84,127,128
3,76,127,4
4,84,85,25536
4,81,89,0
4,86,64,20
4,83,73,0
4,84,69,12
4,81,94,0
4,83,71,80
4,79,78,0
4,86,68,72
4,83,73,4
4,81,85,108
4,77,73,4
4,80,72,100
4,77,66,4
4,76,61,132
4,79,71,0
4,76,62,72
4,84,68,0
4,76,52,104
4,79,57,4
4,78,70,8
4,75,66,0
4,77,63,232
4,74,66,0
4,79,73,92
4,76,66,0
4,79,81,116
4,83,66,0
4,77,78,48
4,81,64,0
4,79,73,48
4,76,71,0
4,74,73,120
4,77,81,0
4,76,71,132
4,72,63,0
4,84,81,232
4,81,99,0
4,86,66,32
4,83,85,4
4,81,85,0
4,84,64,4
4,83,66,36
4,79,68,0
4,86,66,100
4,83,71,0
4,77,63,112
4,81,78,0
4,80,65,92
4,77,63,4
4,76,66,120
4,79,81,0
4,76,66,88
4,84,76,0
4,76,62,84
4,79,68,0
4,75,66,36
4,78,64,0
4,74,73,216
4,77,66,0
4,76,66,96
4,79,73,0
4,79,85,108
4,83,73,0
4,81,61,48
4,77,76,0
4,77,54,44
4,79,78,0
4,83,73,100
4,77,81,0
4,76,68,120
4,84,78,0
4,84,94,59068
4,91,81,20
4,89,85,28
4,88,66,196
4,89,76,152
4,89,76,124
4,89,73,112
4,88,89,112
4,86,85,108
4,84,63,152
4,81,99,332
4,84,89,128
4,83,89,4
4,82,74,36
4,86,99,588
4,84,85,92
4,83,81,136
4,84,62,52
4,84,85,200
4,91,89,72
4,89,94,60
4,88,69,28
4,89,89,152
4,89,85,132
4,89,81,116
4,88,68,40
4,86,78,92
4,84,73,172
4,81,94,296
4,84,94,136
4,85,95,144
4,86,81,104
4,89,85,80
4,88,94,128
4,88,85,200
4,88,69,128
4,89,89,96
4,91,99,112
4,92,102,152
4,92,95,108
4,92,77,112
4,91,99,116
4,89,106,108
4,87,102,152
4,85,95,140
4,84,85,140
4,86,113,200
4,89,95,84
4,86,85,24
4,88,90,116
4,89,85,20
4,91,72,8
4,89,90,100
4,96,127,212
4,98,59,16
4,100,74,32
4,101,62,28
5,64,127,1544
5,67,127,0
5,71,127,96
5,74,127,4
5,72,115,28
5,69,127,0
5,71,111,8
5,67,119,0
5,72,122,128
5,69,127,0
5,71,118,8
5,67,127,4
5,65,125,100
5,69,127,0
5,67,114,124
5,64,105,0
5,64,119,152
5,60,119,0
5,67,124,116
5,64,122,4
5,68,127,16
5,65,122,12
5,69,122,4
5,69,127,180
5,72,124,4
5,71,122,60
5,67,127,4
5,67,120,0
5,67,124,100
5,76,127,0
5,74,125,80
5,65,127,0
5,64,118,104
5,72,118,0
5,64,94,25236
5,57,91,0
5,67,98,0
5,60,98,4
5,71,108,156
5,67,108,4
5,74,102,1536
5,62,119,444
5,59,119,0
5,71,117,124
5,62,116,0
5,62,119,132
5,71,122,0
5,70,113,32
5,61,124,0
5,69,127,88
5,60,118,0
5,64,109,32
5,64,108,24
5,67,111,0
5,62,113,36
5,66,114,4
5,62,97,48
5,72,122,108
5,64,115,0
5,71,115,120
5,62,116,4
5,70,109,12
5,61,127,4
5,62,110,56
5,71,113,0
5,55,124,184
5,59,127,4
5,57,127,44
5,60,118,4
5,62,122,72
5,59,117,4
5,62,117,112
5,71,127,0
5,62,116,132
5,71,122,4
5,70,116,76
5,61,126,0
5,60,119,120
5,69,122,4
5,60,113,8
5,64,107,0
5,64,99,32
5,67,107,4
5,66,127,100
5,62,107,4
5,62,104,76
5,64,120,120
5,72,125,0
5,62,124,116
5,71,127,0
5,60,122,112
5,69,127,4
5,59,120,100
5,67,117,0
5,55,118,208
5,59,122,0
5,57,125,52
5,60,113,0
5,59,115,112
5,62,124,0
5,62,117,124
5,71,116,0
5,62,116,132
5,71,116,0
5,70,116,108
5,61,127,4
5,60,116,124
5,69,122,0
5,64,108,16
5,64,117,76
5,67,114,0
5,62,109,120
5,66,124,0
5,62,114,84
5,64,114,140
5,72,122,0
5,71,115,128
5,62,118,0
5,61,124,72
5,70,116,0
5,71,113,96
5,62,113,0
5,59,125,132
5,55,122,4
5,60,116,96
5,57,117,4
5,59,118,108
5,62,124,0
5,71,115,124
5,62,118,0
5,62,122,124
5,71,122,0
5,70,121,104
5,61,126,4
5,60,117,124
5,69,120,0
5,60,112,64
5,64,110,0
5,64,113,116
5,60,112,4
5,64,112,76
5,67,114,4
5,62,108,108
5,66,127,0
5,62,120,24
5,64,117,128
5,72,118,0
5,71,117,128
5,62,118,0
5,60,118,128
5,69,125,0
5,67,118,160
5,59,117,0
5,64,119,3716
5,67,127,0
5,71,118,40
5,74,118,0
5,72,114,28
5,69,125,0
5,67,114,8
5,71,112,0
5,69,122,112
5,72,115,0
5,71,111,32
5,67,125,0
5,69,120,56
5,65,119,0
5,64,111,12
5,67,112,0
5,64,127,12
5,60,125,4
5,64,125,88
5,67,125,4
5,66,127,96
5,63,127,0
5,62,113,52
5,65,114,0
5,65,125,124
5,69,124,4
5,64,119,48
5,67,120,4
5,66,127,92
5,63,127,0
5,64,110,88
5,67,115,0
5,64,113,136
5,67,122,0
5,71,127,96
5,74,125,0
5,69,127,48
5,72,116,0
5,71,115,28
5,67,120,0
5,72,115,76
5,69,127,0
5,71,115,8
5,67,117,4
5,65,115,108
5,69,127,0
5,64,107,116
5,67,111,0
5,64,119,4
5,60,125,4
5,64,118,80
5,67,117,4
5,68,120,44
5,65,115,8
5,69,112,0
5,72,125,120
5,69,127,0
5,71,115,28
5,67,127,0
5,67,122,128
5,67,124,124
5,67,127,116
5,76,124,4
5,65,120,32
5,74,115,0
5,64,108,64
5,72,113,0
5,72,127,644
5,76,104,20
5,79,108,0
5,77,114,28
5,74,116,0
5,72,112,12
5,76,106,0
5,74,124,148
5,77,118,0
5,74,122,96
5,77,122,0
5,74,118,100
5,77,120,0
5,76,109,24
5,72,118,0
5,74,112,96
5,70,122,0
5,69,100,124
5,72,101,0
5,69,127,156
5,65,117,0
5,69,127,108
5,72,114,0
5,71,115,112
5,68,124,0
5,70,117,76
5,67,120,0
5,70,127,120
5,74,119,0
5,72,116,68
5,69,127,0
5,71,115,188
5,68,113,0
5,72,107,68
5,69,116,0
5,69,122,156
5,72,119,0
5,79,127,52
5,76,127,4
5,77,118,28
5,74,127,0
5,72,115,12
5,76,111,0
5,74,124,116
5,77,117,0
5,72,122,52
5,76,111,0
5,74,115,92
5,70,117,4
5,72,102,104
5,69,101,0
5,69,124,12
5,65,120,0
5,69,127,124
5,72,120,0
5,69,124,108
5,73,127,0
5,74,115,64
5,70,118,0
5,77,120,104
5,74,117,0
5,76,125,96
5,72,127,0
5,77,127,484
5,74,127,0
5,79,127,76
5,76,127,0
5,80,124,160
5,77,125,0
5,80,118,96
5,77,127,4
5,77,127,72
5,80,118,0
5,75,127,52
5,79,122,0
5,73,127,60
5,77,127,0
5,72,127,168
5,75,127,0
5,73,127,128
5,70,127,0
5,72,127,104
5,68,127,0
