track,note,velocity,time
1,79,64,120
1,76,64,0
1,77,64,30
1,74,64,0
1,77,64,30
1,74,64,0
1,76,64,10
1,72,64,0
1,76,64,150
1,77,64,10
1,76,64,10
1,74,64,10
1,73,64,0
1,76,64,30
1,73,64,0
1,77,64,10
1,74,64,0
1,76,64,30
1,73,64,0
1,76,64,30
1,72,64,0
1,79,64,20
1,76,64,0
1,72,64,20
1,67,64,0
1,76,64,20
1,72,64,0
1,67,64,20
1,64,64,0
1,72,64,20
1,67,64,0
1,64,64,20
1,60,64,0
1,67,64,20
1,64,64,0
1,64,64,20
1,65,64,10
1,66,64,10
1,67,64,10
1,66,64,10
1,65,64,10
1,64,64,10
1,79,64,180
1,76,64,0
1,77,64,30
1,74,64,0
1,77,64,30
1,74,64,0
1,76,64,10
1,72,64,0
1,76,64,150
1,77,64,10
1,76,64,10
1,74,64,10
1,73,64,0
1,76,64,30
1,73,64,0
1,77,64,10
1,74,64,0
1,76,64,30
1,73,64,0
1,76,64,30
1,72,64,0
1,79,64,20
1,76,64,0
1,72,64,20
1,67,64,0
1,76,64,20
1,72,64,0
1,67,64,20
1,64,64,0
1,72,64,20
1,67,64,0
1,64,64,20
1,60,64,0
1,67,64,20
1,64,64,0
1,64,64,20
1,65,64,10
1,66,64,10
1,67,64,10
1,66,64,10
1,65,64,10
1,64,64,10
1,72,64,30
1,67,64,0
1,72,64,30
1,76,64,0
1,74,64,60
1,72,64,20
1,69,64,20
1,67,64,20
1,67,64,60
1,72,64,90
1,72,64,30
1,76,64,0
1,74,64,60
1,72,64,20
1,69,64,20
1,67,64,20
1,67,64,50
1,76,64,120
1,72,64,0
1,79,64,20
1,76,64,0
1,76,64,30
1,72,64,0
1,79,64,20
1,76,64,0
1,76,64,270
1,72,64,0
1,79,64,20
1,76,64,0
1,76,64,30
1,72,64,0
1,79,64,20
1,76,64,0
1,76,64,270
1,72,64,0
1,79,64,20
1,76,64,0
1,76,64,30
1,72,64,0
1,79,64,20
1,76,64,0
1,72,64,270
1,74,64,10
1,75,64,10
1,76,64,10
1,72,64,30
1,74,64,10
1,76,64,60
1,72,64,0
1,79,64,20
1,76,64,0
1,76,64,30
1,72,64,0
1,79,64,20
1,76,64,0
1,76,64,270
1,72,64,0
1,79,64,20
1,76,64,0
1,76,64,30
1,72,64,0
1,79,64,20
1,76,64,0
1,79,64,30
1,74,64,0
1,79,64,20
1,74,64,0
1,77,64,20
1,72,64,0
1,77,64,20
1,72,64,0
1,76,64,20
1,71,64,0
1,76,64,20
1,71,64,0
1,74,64,20
1,69,64,0
1,74,64,20
1,69,64,0
1,72,64,20
1,67,64,0
1,72,64,20
1,67,64,0
1,71,64,20
1,65,64,0
1,71,64,20
1,65,64,0
1,69,64,20
1,65,64,0
1,69,64,20
1,65,64,0
1,67,64,20
1,65,64,0
1,65,64,60
1,67,64,0
1,67,64,60
1,64,64,0
1,72,64,30
1,72,64,20
1,79,64,20
1,81,64,90
1,75,64,30
1,72,64,50
1,72,64,30
1,72,64,20
1,79,64,20
1,81,64,90
1,75,64,30
1,72,64,0
1,74,64,50
1,71,64,0
1,74,64,20
1,71,64,0
1,72,64,30
1,72,64,20
1,79,64,20
1,81,64,90
1,75,64,30
1,72,64,50
1,75,64,30
1,72,64,0
1,77,64,20
1,72,64,0
1,77,64,20
1,72,64,0
1,77,64,30
1,72,64,0
1,78,64,20
1,66,64,0
1,78,64,20
1,72,64,0
1,79,64,30
1,71,64,0
1,72,64,20
1,67,64,0
1,72,64,20
1,79,64,240
1,76,64,0
1,77,64,30
1,74,64,0
1,77,64,30
1,74,64,0
1,76,64,10
1,72,64,0
1,76,64,150
1,77,64,10
1,76,64,10
1,75,64,10
1,72,64,0
1,76,64,30
1,72,64,0
1,77,64,10
1,74,64,0
1,76,64,30
1,72,64,0
1,76,64,30
1,72,64,0
1,79,64,20
1,76,64,0
1,72,64,20
1,67,64,0
1,76,64,20
1,72,64,0
1,67,64,20
1,64,64,0
1,72,64,20
1,67,64,0
1,64,64,20
1,60,64,0
1,67,64,20
1,64,64,0
1,64,64,20
1,65,64,10
1,66,64,10
1,67,64,10
1,66,64,10
1,65,64,10
1,64,64,10
1,79,64,180
1,76,64,0
1,77,64,30
1,74,64,0
1,77,64,30
1,74,64,0
1,76,64,10
1,72,64,0
1,76,64,150
1,77,64,10
1,76,64,10
1,75,64,10
1,72,64,0
1,76,64,20
1,72,64,0
1,77,64,20
1,74,64,0
1,76,64,30
1,72,64,0
1,76,64,30
1,72,64,0
1,79,64,20
1,76,64,0
1,72,64,20
1,67,64,0
1,76,64,20
1,72,64,0
1,67,64,20
1,64,64,0
1,72,64,20
1,67,64,0
1,64,64,20
1,60,64,0
1,67,64,20
1,64,64,0
1,64,64,20
1,65,64,10
1,66,64,10
1,67,64,10
1,66,64,10
1,65,64,10
1,64,64,10
1,72,64,30
1,67,64,0
1,72,64,30
1,76,64,0
1,74,64,60
1,72,64,20
1,69,64,20
1,67,64,20
1,67,64,60
1,72,64,0
1,72,64,30
1,76,64,0
1,74,64,60
1,72,64,20
1,69,64,20
1,72,64,0
1,67,64,0
1,76,64,120
1,72,64,0
1,79,64,20
1,76,64,0
1,76,64,30
1,72,64,0
1,79,64,20
1,76,64,0
1,76,64,270
1,72,64,0
1,79,64,20
1,76,64,0
1,76,64,30
1,72,64,0
1,79,64,20
1,76,64,0
1,76,64,270
1,72,64,0
1,79,64,20
1,76,64,0
1,76,64,30
1,72,64,0
1,79,64,20
1,76,64,0
1,72,64,270
1,74,64,10
1,75,64,10
1,76,64,10
1,72,64,30
1,74,64,10
1,76,64,60
1,72,64,0
1,79,64,20
1,76,64,0
1,76,64,30
1,72,64,0
1,79,64,20
1,76,64,0
1,76,64,270
1,72,64,0
1,79,64,20
1,76,64,0
1,76,64,30
1,72,64,0
1,79,64,20
1,76,64,0
1,79,64,30
1,74,64,0
1,79,64,20
1,74,64,0
1,77,64,20
1,72,64,0
1,77,64,20
1,72,64,0
1,76,64,20
1,71,64,0
1,76,64,20
1,71,64,0
1,74,64,20
1,69,64,0
1,74,64,20
1,69,64,0
1,72,64,20
1,67,64,0
1,72,64,20
1,67,64,0
1,71,64,20
1,65,64,0
1,71,64,20
1,65,64,0
1,69,64,20
1,65,64,0
1,69,64,20
1,65,64,0
1,65,64,20
1,67,64,0
1,67,64,120
1,65,64,0
1,67,64,60
1,64,64,0
1,68,64,30
1,62,64,0
1,69,64,30
1,64,64,0
1,72,64,30
1,69,64,0
1,72,64,750
1,69,64,0
1,72,64,750
1,74,64,10
1,72,64,10
1,71,64,10
1,72,64,20
1,75,64,20
1,76,64,20
1,81,64,20
1,69,64,0
1,76,64,60
1,64,64,0
1,72,64,300
1,74,64,10
1,72,64,10
1,71,64,10
1,72,64,20
1,75,64,20
1,76,64,20
1,84,64,20
1,72,64,0
1,81,64,60
1,69,64,0
1,81,64,60
1,84,64,30
1,81,64,0
1,83,64,30
1,71,64,0
1,81,64,50
1,69,64,0
1,84,64,20
1,84,64,20
1,83,64,20
1,81,64,30
1,84,64,30
1,81,64,30
1,77,64,30
1,76,64,30
1,72,64,30
1,69,64,30
1,72,64,360
1,74,64,10
1,72,64,10
1,71,64,10
1,72,64,20
1,75,64,20
1,76,64,20
1,81,64,20
1,69,64,0
1,76,64,60
1,64,64,0
1,72,64,300
1,74,64,10
1,72,64,10
1,71,64,10
1,72,64,20
1,75,64,20
1,76,64,20
1,84,64,20
1,72,64,0
1,81,64,60
1,69,64,0
1,81,64,60
1,84,64,30
1,81,64,0
1,83,64,30
1,71,64,0
1,81,64,50
1,69,64,0
1,84,64,20
1,84,64,20
1,83,64,20
1,81,64,30
1,84,64,30
1,81,64,30
1,77,64,30
1,76,64,30
1,72,64,30
1,69,64,30
1,69,64,30
1,67,64,60
1,79,64,150
1,76,64,0
1,77,64,30
1,74,64,0
1,77,64,30
1,74,64,0
1,76,64,10
1,72,64,0
1,76,64,150
1,77,64,10
1,76,64,10
1,75,64,10
1,72,64,0
1,76,64,30
1,72,64,0
1,77,64,10
1,74,64,0
1,76,64,30
1,72,64,0
1,76,64,30
1,72,64,0
1,79,64,20
1,76,64,0
1,72,64,20
1,76,64,20
1,72,64,0
1,67,64,20
1,72,64,20
1,67,64,0
1,64,64,20
1,60,64,0
1,67,64,20
1,64,64,0
1,64,64,20
1,65,64,10
1,66,64,10
1,67,64,10
1,66,64,10
1,65,64,10
1,64,64,10
1,79,64,180
1,76,64,0
1,77,64,30
1,74,64,0
1,77,64,30
1,74,64,0
1,76,64,10
1,72,64,0
1,76,64,150
1,77,64,10
1,76,64,10
1,75,64,10
1,72,64,0
1,76,64,20
1,72,64,0
1,77,64,20
1,74,64,0
1,76,64,30
1,72,64,0
1,76,64,30
1,72,64,0
1,79,64,20
1,76,64,0
1,72,64,20
1,76,64,20
1,72,64,0
1,67,64,20
1,72,64,20
1,67,64,0
1,64,64,20
1,60,64,0
1,67,64,20
1,64,64,0
1,64,64,20
1,65,64,10
1,66,64,10
1,67,64,10
1,66,64,10
1,65,64,10
1,64,64,10
1,72,64,60
1,76,64,0
1,74,64,60
1,72,64,20
1,69,64,20
1,69,64,20
1,65,64,0
1,67,64,20
1,65,64,0
1,64,64,50
1,67,64,0
1,72,64,90
1,67,64,0
1,72,64,30
1,76,64,0
1,74,64,60
1,72,64,20
1,69,64,20
1,67,64,20
1,65,64,0
1,67,64,50
1,64,64,0
1,64,64,60
1,67,64,0
1,76,64,0
1,72,64,0
1,79,64,20
1,76,64,0
1,76,64,30
1,72,64,0
1,79,64,20
1,76,64,0
1,76,64,270
1,72,64,0
1,79,64,20
1,76,64,0
1,76,64,30
1,72,64,0
1,79,64,20
1,76,64,0
1,76,64,270
1,72,64,0
1,79,64,20
1,76,64,0
1,76,64,30
1,72,64,0
1,79,64,20
1,76,64,0
1,76,64,30
1,72,64,0
1,72,64,30
1,74,64,10
1,74,64,10
1,76,64,10
1,72,64,30
1,74,64,10
1,76,64,60
1,79,64,20
1,76,64,30
1,79,64,20
1,76,64,270
1,79,64,20
1,76,64,30
1,79,64,20
1,79,64,30
1,79,64,20
1,77,64,20
1,77,64,20
1,76,64,20
1,76,64,20
1,74,64,20
1,74,64,20
1,72,64,20
1,72,64,20
1,71,64,20
1,71,64,20
1,69,64,20
1,69,64,20
1,67,64,20
1,65,64,0
1,65,64,60
1,67,64,0
1,67,64,60
1,65,64,0
1,67,64,60
2,67,64,120
2,67,64,30
2,67,64,30
2,67,64,10
2,67,64,150
2,66,64,30
2,67,64,30
2,68,64,10
2,67,64,30
2,67,64,30
2,72,64,20
2,64,64,20
2,67,64,20
2,60,64,20
2,59,64,20
2,55,64,20
2,60,64,20
2,60,64,20
2,62,64,10
2,63,64,10
2,64,64,10
2,63,64,10
2,62,64,10
2,60,64,10
2,67,64,180
2,67,64,30
2,67,64,30
2,67,64,10
2,72,64,150
2,67,64,0
2,73,64,30
2,66,64,0
2,67,64,20
2,68,64,20
2,67,64,30
2,67,64,30
2,72,64,20
2,64,64,20
2,67,64,20
2,60,64,20
2,64,64,20
2,55,64,20
2,60,64,20
2,60,64,20
2,62,64,10
2,63,64,10
2,64,64,10
2,63,64,10
2,62,64,10
2,60,64,10
2,67,64,30
2,64,64,0
2,60,64,0
2,64,64,30
2,67,64,0
2,69,64,60
2,65,64,0
2,69,64,20
2,65,64,0
2,65,64,20
2,60,64,0
2,65,64,20
2,60,64,0
2,65,64,20
2,59,64,0
2,64,64,50
2,60,64,0
2,64,64,60
2,60,64,0
2,67,64,90
2,64,64,0
2,64,64,30
2,67,64,0
2,69,64,60
2,65,64,0
2,69,64,20
2,65,64,0
2,60,64,20
2,65,64,0
2,59,64,0
2,64,64,50
2,60,64,0
2,64,64,60
2,60,64,0
2,67,64,120
2,72,64,20
2,67,64,30
2,72,64,20
2,67,64,270
2,72,64,20
2,67,64,30
2,72,64,20
2,67,64,270
2,72,64,20
2,67,64,30
2,72,64,20
2,67,64,30
2,67,64,30
2,64,64,0
2,69,64,10
2,65,64,0
2,69,64,10
2,66,64,0
2,72,64,10
2,67,64,0
2,67,64,30
2,64,64,0
2,71,64,10
2,65,64,0
2,67,64,60
2,72,64,20
2,67,64,30
2,72,64,20
2,67,64,270
2,72,64,20
2,67,64,30
2,72,64,20
2,71,64,30
2,71,64,20
2,69,64,20
2,69,64,20
2,67,64,20
2,67,64,20
2,65,64,20
2,65,64,20
2,64,64,20
2,64,64,20
2,62,64,20
2,62,64,20
2,60,64,20
2,60,64,20
2,59,64,20
2,59,64,60
2,60,64,60
2,72,64,510
2,67,64,0
2,72,64,60
2,69,64,0
2,69,64,30
2,69,64,90
2,72,64,270
2,67,64,0
2,72,64,60
2,69,64,0
2,69,64,30
2,67,64,50
2,66,64,30
2,72,64,270
2,67,64,0
2,75,64,60
2,72,64,0
2,69,64,0
2,72,64,30
2,69,64,0
2,63,64,0
2,68,64,50
2,63,64,0
2,67,64,30
2,63,64,0
2,65,64,30
2,65,64,30
2,66,64,20
2,66,64,20
2,65,64,0
2,64,64,20
2,67,64,20
2,64,64,0
2,67,64,240
2,67,64,30
2,67,64,30
2,67,64,10
2,72,64,150
2,67,64,0
2,66,64,30
2,67,64,30
2,68,64,10
2,67,64,30
2,67,64,30
2,72,64,20
2,64,64,20
2,67,64,20
2,60,64,20
2,64,64,20
2,55,64,20
2,60,64,20
2,60,64,20
2,62,64,10
2,63,64,10
2,64,64,10
2,63,64,10
2,62,64,10
2,60,64,10
2,67,64,180
2,67,64,30
2,67,64,30
2,67,64,10
2,72,64,150
2,67,64,0
2,66,64,30
2,67,64,20
2,68,64,20
2,67,64,30
2,67,64,30
2,72,64,20
2,64,64,20
2,67,64,20
2,60,64,20
2,64,64,20
2,55,64,20
2,60,64,20
2,60,64,20
2,62,64,10
2,63,64,10
2,64,64,10
2,63,64,10
2,62,64,10
2,60,64,10
2,64,64,30
2,60,64,0
2,64,64,30
2,67,64,0
2,69,64,60
2,65,64,0
2,69,64,20
2,65,64,0
2,65,64,20
2,60,64,0
2,60,64,20
2,59,64,0
2,64,64,0
2,60,64,0
2,64,64,60
2,60,64,0
2,67,64,90
2,64,64,0
2,64,64,30
2,67,64,0
2,69,64,60
2,65,64,0
2,69,64,20
2,65,64,0
2,65,64,20
2,60,64,0
2,65,64,20
2,60,64,0
2,59,64,0
2,64,64,50
2,60,64,0
2,64,64,60
2,60,64,0
2,67,64,120
2,72,64,20
2,67,64,30
2,72,64,20
2,67,64,270
2,72,64,20
2,67,64,30
2,72,64,20
2,67,64,270
2,72,64,20
2,67,64,30
2,72,64,20
2,67,64,270
2,64,64,0
2,69,64,10
2,65,64,0
2,69,64,10
2,66,64,0
2,67,64,10
2,67,64,30
2,64,64,0
2,65,64,10
2,67,64,60
2,72,64,20
2,67,64,30
2,72,64,20
2,67,64,270
2,72,64,20
2,67,64,30
2,72,64,20
2,71,64,30
2,71,64,20
2,69,64,20
2,69,64,20
2,67,64,20
2,67,64,20
2,65,64,20
2,65,64,20
2,64,64,20
2,64,64,20
2,62,64,20
2,62,64,20
2,60,64,20
2,60,64,20
2,59,64,20
2,59,64,120
2,60,64,60
2,56,64,30
2,60,64,30
2,64,64,30
2,64,64,750
2,60,64,0
2,76,64,1710
2,72,64,0
2,74,64,270
2,71,64,0
2,81,64,1230
2,76,64,0
2,77,64,270
2,74,64,0
2,76,64,30
2,72,64,0
2,69,64,0
2,76,64,30
2,72,64,0
2,76,64,30
2,76,64,60
2,72,64,0
2,76,64,20
2,72,64,0
2,76,64,20
2,72,64,0
2,76,64,30
2,72,64,0
2,77,64,30
2,74,64,0
2,76,64,30
2,72,64,0
2,72,64,30
2,69,64,0
2,72,64,30
2,69,64,0
2,65,64,30
2,62,64,0
2,64,64,270
2,60,64,0
2,72,64,1290
2,69,64,0
2,74,64,270
2,71,64,0
2,81,64,1230
2,76,64,0
2,77,64,270
2,74,64,0
2,76,64,30
2,72,64,0
