track,note,velocity,time
15,37,84,1920
15,37,84,480
15,37,64,480
15,37,84,0
15,37,64,0
15,37,84,0
15,38,81,320
15,38,81,1
15,38,90,0
15,49,90,0
15,51,115,0
15,35,80,0
15,51,90,380
15,37,70,0
15,42,100,0
15,51,55,228
15,51,115,52
15,38,40,0
15,51,90,380
15,37,70,0
15,42,100,0
15,51,50,228
15,51,115,52
15,51,100,380
15,37,70,0
15,42,100,0
15,51,60,228
15,38,40,0
15,51,115,52
15,51,90,228
15,38,40,0
15,51,90,52
15,37,70,0
15,42,100,0
15,51,50,228
15,35,80,0
15,51,115,0
15,38,90,0
15,51,70,236
15,51,100,44
15,37,70,0
15,42,100,0
15,51,115,380
15,38,40,0
15,51,90,380
15,37,70,0
15,42,100,0
15,51,50,236
15,35,81,44
15,38,81,0
15,35,81,96
15,38,81,0
15,35,81,348
15,57,81,0
15,35,81,120
15,38,81,0
15,51,115,384
15,35,80,0
15,38,70,236
15,51,90,44
15,37,70,0
15,42,100,0
15,51,55,236
15,38,40,0
15,51,115,44
15,51,80,236
15,51,80,44
15,37,70,0
15,42,100,0
15,51,60,236
15,51,115,44
15,51,100,380
15,37,70,0
15,42,100,0
15,51,60,228
15,38,40,0
15,51,115,52
15,51,90,380
15,37,70,0
15,42,100,0
15,51,50,228
15,51,115,52
15,35,80,0
15,51,90,380
15,37,70,0
15,42,100,0
15,51,55,236
15,38,40,0
15,51,115,44
15,46,70,236
15,51,80,44
15,37,70,0
15,42,100,0
15,51,60,236
15,51,100,0
15,51,90,48
15,37,70,0
15,42,100,0
15,46,80,32
15,51,120,0
15,38,70,80
15,51,115,24
15,37,70,0
15,42,100,0
15,38,50,32
15,51,115,0
15,35,80,0
15,51,70,24
15,51,100,24
15,37,70,0
15,42,100,0
15,51,115,72
15,38,40,0
15,51,90,120
15,37,70,0
15,42,100,0
15,51,50,24
15,51,115,24
15,35,80,0
15,51,70,72
15,51,100,44
15,37,70,0
15,42,100,0
15,38,30,120
15,51,115,44
15,38,40,0
15,51,90,24
15,37,70,0
15,42,100,0
15,51,50,72
15,51,115,44
15,51,70,120
15,51,100,44
15,37,70,0
15,42,100,0
15,51,115,24
15,35,74,0
15,38,74,0
15,35,76,36
15,38,76,0
15,51,90,4
15,37,70,0
15,42,100,0
15,38,81,104
15,51,50,16
15,38,81,1
15,51,115,1
15,35,80,0
15,38,115,0
15,51,70,120
15,57,81,44
15,38,81,72
15,35,81,0
15,51,50,24
15,51,115,0
15,35,80,0
15,51,70,236
15,51,100,44
15,37,70,0
15,42,100,0
15,51,115,380
15,38,40,0
15,38,50,236
15,51,90,44
15,37,70,0
15,42,100,0
15,51,50,236
15,51,115,44
15,35,80,0
15,51,100,380
15,37,70,0
15,42,100,0
15,51,60,228
15,38,40,0
15,51,115,52
15,51,90,380
15,37,70,0
15,42,100,0
15,51,50,228
15,51,115,52
15,35,60,0
15,51,90,380
15,37,70,0
15,42,100,0
15,51,55,228
15,38,40,0
15,51,115,52
15,46,80,228
15,51,90,52
15,37,70,0
15,42,100,0
15,51,60,228
15,38,40,0
15,51,115,0
15,51,100,48
15,37,70,0
15,42,100,0
15,51,60,40
15,38,40,0
15,51,115,0
15,51,90,24
15,37,70,0
15,42,100,0
15,51,50,40
15,38,50,0
15,51,115,0
15,51,90,24
15,37,70,0
15,42,100,0
15,51,55,64
15,38,40,0
15,51,115,52
15,51,90,120
15,37,70,0
15,42,100,0
15,51,60,16
15,38,40,0
15,51,115,24
15,51,100,72
15,37,70,0
15,42,100,0
15,51,60,112
15,38,40,0
15,51,115,52
15,38,40,16
15,51,90,24
15,37,70,0
15,42,100,0
15,51,50,64
15,38,50,0
15,51,115,52
15,35,80,0
15,38,70,120
15,51,90,44
15,37,70,0
15,42,100,0
15,51,55,24
15,38,40,0
15,51,115,24
15,38,74,0
15,35,74,0
15,38,76,36
15,35,76,0
15,46,70,16
15,51,80,4
15,37,70,0
15,42,100,0
15,38,80,104
15,51,60,16
15,35,60,0
15,51,90,36
15,35,90,0
15,57,81,0
15,38,81,0
15,38,70,172
15,51,115,52
15,42,100,0
15,51,55,228
15,38,60,0
15,51,100,52
15,38,80,0
15,51,80,228
15,35,80,0
15,45,90,52
15,42,100,0
15,45,80,228
15,49,90,52
15,51,115,0
15,51,90,380
15,37,70,0
15,42,100,0
15,51,55,228
15,38,30,0
15,51,115,52
15,38,40,0
15,51,90,380
15,37,70,0
15,42,100,0
15,51,50,228
15,51,115,52
15,35,80,0
15,51,70,236
15,51,100,44
15,37,70,0
15,42,100,0
15,51,115,380
15,38,40,0
15,38,50,236
15,51,90,44
15,37,70,0
15,42,100,0
15,51,50,236
15,51,115,44
15,35,80,0
15,51,90,380
15,37,70,0
15,42,100,0
15,51,55,236
15,38,40,0
15,38,81,44
15,51,115,0
15,46,70,236
15,51,80,44
15,37,70,0
15,42,100,0
15,51,60,236
15,35,60,0
15,38,81,44
15,51,100,0
15,51,90,364
15,37,70,0
15,42,100,0
15,38,81,220
15,46,80,0
15,35,80,0
15,51,120,36
15,38,70,220
15,51,115,60
15,37,70,0
15,42,100,0
15,38,50,220
15,51,115,60
15,51,90,380
15,37,70,0
15,42,100,0
15,51,55,228
15,38,40,0
15,51,115,52
15,51,90,380
15,37,70,0
15,42,100,0
15,51,60,228
15,38,40,0
15,51,115,52
15,51,70,236
15,51,100,44
15,37,70,0
15,42,100,0
15,51,115,380
15,38,40,0
15,51,90,380
15,37,70,0
15,42,100,0
15,38,98,212
15,51,98,24
15,38,98,16
15,38,98,44
15,51,98,0
15,35,98,0
15,46,70,188
15,49,94,48
15,35,81,0
15,51,100,0
15,37,70,0
15,42,100,0
15,51,55,200
15,38,40,0
15,51,115,48
15,35,80,0
15,38,80,232
15,40,81,48
15,37,70,0
15,42,100,0
15,35,80,0
15,51,60,8
15,38,100,0
15,40,81,48
15,38,100,0
15,40,81,156
15,35,100,8
15,42,100,52
15,35,81,220
15,57,81,0
15,38,89,8
15,42,100,492
15,38,100,228
15,35,90,52
15,51,81,220
15,49,81,0
15,37,70,160
15,42,100,0
15,51,115,48
15,38,40,0
15,51,90,380
15,37,70,0
15,42,100,0
15,51,50,16
15,51,115,52
15,35,80,0
15,51,70,236
15,51,100,44
15,37,70,0
15,42,100,0
15,38,30,236
15,51,115,44
15,38,40,0
15,51,90,380
15,37,70,0
15,42,100,0
15,51,50,236
15,51,115,44
15,51,90,380
15,37,70,0
15,42,100,0
15,51,55,228
15,38,40,0
15,51,115,52
15,51,80,228
15,51,90,52
15,37,70,0
15,42,100,0
15,51,60,228
15,38,40,0
15,51,115,0
15,35,54,0
15,51,80,0
15,37,70,0
15,42,100,0
15,51,50,16
15,51,115,52
15,51,90,0
15,37,70,0
15,42,100,0
15,51,60,16
15,51,115,0
15,51,70,24
15,51,100,24
15,37,70,0
15,42,100,0
15,38,44,0
15,38,45,24
15,51,115,72
15,38,49,104
15,51,90,24
15,37,70,0
15,42,100,0
15,38,50,0
15,51,50,24
15,51,115,24
15,38,54,0
15,38,55,24
15,51,100,72
15,37,70,0
15,42,100,0
15,38,59,104
15,51,60,8
15,51,115,24
15,38,60,0
15,51,90,24
15,37,70,0
15,42,100,0
15,38,64,0
15,38,66,24
15,51,50,8
15,51,115,52
15,38,69,104
15,51,90,24
15,37,70,0
15,42,100,0
15,38,70,0
15,51,55,16
15,51,115,24
15,38,74,0
15,38,76,24
15,46,80,8
15,51,90,52
15,37,70,0
15,42,100,0
15,38,81,80
15,51,60,8
15,38,81,0
15,38,115,0
15,35,80,0
15,51,115,0
15,51,70,236
15,57,81,44
15,35,81,960
15,38,81,0
15,51,115,0
15,35,80,0
15,38,70,236
15,51,90,44
15,37,70,0
15,42,100,0
15,51,55,236
15,38,40,0
15,51,115,44
15,51,80,236
15,38,50,0
15,51,80,44
15,37,70,0
15,42,100,0
15,51,60,236
15,51,115,44
15,51,100,380
15,37,70,0
15,42,100,0
15,51,60,228
15,38,40,0
15,51,115,52
15,51,90,380
15,37,70,0
15,42,100,0
15,51,50,228
15,51,115,52
15,35,60,0
15,51,90,380
15,37,70,0
15,42,100,0
15,51,55,228
15,38,40,0
15,51,115,52
15,51,90,380
15,37,70,0
15,42,100,0
15,51,60,228
15,38,40,0
15,51,115,52
15,35,70,0
15,51,100,380
15,37,70,0
15,42,100,0
15,51,50,236
15,51,115,44
15,38,90,236
15,51,90,44
15,37,70,0
15,42,100,0
15,51,60,236
15,35,60,0
15,51,115,44
15,38,69,0
15,51,90,380
15,37,70,0
15,42,100,0
15,51,55,228
15,38,40,0
15,51,115,52
15,46,80,228
15,51,90,52
15,37,70,0
15,42,100,0
15,38,69,0
15,51,60,228
15,38,40,0
15,51,115,52
15,35,80,0
15,51,80,380
15,37,70,0
15,42,100,0
15,51,50,228
15,51,115,52
15,38,69,0
15,51,90,380
15,37,70,0
15,42,100,0
15,51,60,228
15,51,115,52
15,35,60,0
15,51,90,380
15,37,70,0
15,42,100,0
15,51,55,228
15,38,40,0
15,51,115,52
15,51,80,228
15,51,90,52
15,37,70,0
15,42,100,0
15,51,60,228
15,38,40,0
15,51,100,52
15,35,80,0
15,51,60,228
15,38,90,0
15,46,90,52
15,51,100,228
15,35,40,0
15,51,90,52
15,35,60,0
15,38,80,228
15,46,80,52
15,51,60,228
15,49,90,52
15,51,115,0
15,38,70,228
15,51,90,52
15,37,70,0
15,42,100,0
15,51,55,228
15,38,30,0
15,51,115,52
15,38,40,0
15,51,90,380
15,37,70,0
15,42,100,0
15,51,50,228
15,51,115,52
15,35,80,0
15,51,80,380
15,37,70,0
15,42,100,0
15,51,50,228
15,51,115,52
15,51,90,380
15,37,70,0
15,42,100,0
15,51,60,228
15,51,115,52
15,51,90,380
15,37,70,0
15,42,100,0
15,51,55,228
15,38,40,0
15,51,115,52
15,46,80,228
15,51,90,52
15,37,70,0
15,42,100,0
15,51,60,228
15,38,40,0
15,51,100,52
15,51,90,380
15,37,70,0
15,42,100,0
15,35,80,220
15,51,120,60
15,38,70,220
15,51,115,60
15,37,70,0
15,42,100,0
15,38,50,220
15,51,115,60
15,35,60,0
15,38,69,0
15,51,90,380
15,37,70,0
15,42,100,0
15,51,55,228
15,38,40,0
15,51,115,52
15,51,80,228
15,51,90,52
15,37,70,0
15,42,100,0
15,38,69,0
15,51,60,228
15,38,40,0
15,51,115,52
15,51,100,380
15,37,70,0
15,42,100,0
15,51,60,228
15,38,40,0
15,51,115,52
15,38,69,0
15,51,90,228
15,51,90,52
15,37,70,0
15,42,100,0
15,51,50,228
15,51,115,52
15,51,90,380
15,37,70,0
15,42,100,0
15,51,55,228
15,38,40,0
15,51,115,52
15,46,80,228
15,51,90,52
15,37,70,0
15,42,100,0
15,51,60,228
15,38,40,0
15,51,115,52
15,35,80,0
15,51,70,236
15,51,100,44
15,37,70,0
15,42,100,0
15,51,115,380
15,38,40,0
15,51,90,380
15,37,70,0
15,42,100,0
15,51,50,236
15,51,115,44
15,35,80,0
15,51,90,380
15,37,70,0
15,42,100,0
15,51,55,236
15,38,40,0
15,51,115,44
15,51,80,236
15,46,70,0
15,51,80,44
15,37,70,0
15,42,100,0
15,51,60,236
15,35,60,0
15,51,115,44
15,35,80,0
15,51,100,380
15,37,70,0
15,42,100,0
15,51,60,228
15,38,40,0
15,51,115,52
15,51,90,228
15,38,40,0
15,51,90,52
15,37,70,0
15,42,100,0
15,51,50,228
15,51,115,52
15,51,90,380
15,37,70,0
15,42,100,0
15,51,55,228
15,38,40,0
15,51,115,52
15,38,69,0
15,51,90,324
15,37,70,0
15,42,100,0
15,51,60,228
15,38,40,0
15,51,100,52
15,38,69,0
15,51,90,324
15,37,70,0
15,42,100,0
15,38,69,220
15,51,120,48
15,51,50,220
15,38,70,0
15,51,115,60
15,37,70,0
15,42,100,0
15,38,50,220
15,51,115,60
15,35,60,0
15,51,90,380
15,37,70,0
15,42,100,0
15,51,55,228
15,38,40,0
15,51,115,52
15,51,90,380
15,37,70,0
15,42,100,0
15,51,60,228
15,38,40,0
15,51,115,52
15,35,80,0
15,51,80,380
15,37,70,0
15,42,100,0
15,51,50,228
15,51,115,52
15,51,90,380
15,37,70,0
15,42,100,0
15,51,60,228
15,51,115,52
15,35,60,0
15,51,90,380
15,37,70,0
15,42,100,0
15,51,55,228
15,38,40,0
15,51,115,52
15,38,69,0
15,46,80,172
15,51,90,52
15,37,70,0
15,42,100,0
15,51,60,228
15,38,40,0
15,51,100,52
15,38,69,0
15,51,90,324
15,37,70,0
15,42,100,0
15,46,80,220
15,38,69,0
15,57,69,0
15,51,120,60
15,38,70,8
15,51,115,60
15,37,70,0
15,42,100,0
15,38,69,0
15,38,50,164
15,51,115,60
15,35,80,0
15,38,70,236
15,51,90,44
15,37,70,0
15,42,100,0
15,51,55,236
15,38,40,0
15,51,115,44
15,51,80,380
15,37,70,0
15,42,100,0
15,51,60,236
15,51,115,44
15,38,40,228
15,51,100,52
15,37,70,0
15,42,100,0
15,51,60,228
15,38,40,0
15,51,115,52
15,38,40,228
15,51,90,52
15,37,70,0
15,42,100,0
15,51,50,228
15,38,50,0
15,51,115,52
15,51,90,380
15,37,70,0
15,42,100,0
15,51,55,228
15,38,40,0
15,51,115,52
15,46,80,228
15,51,90,52
15,37,70,0
15,42,100,0
15,51,60,228
15,38,40,0
15,51,115,52
15,38,40,228
15,51,100,52
15,37,70,0
15,42,100,0
15,51,60,228
15,38,40,0
15,51,115,52
15,51,90,380
15,37,70,0
15,42,100,0
15,51,50,228
15,51,115,52
15,51,90,380
15,37,70,0
15,42,100,0
15,51,55,228
15,38,40,0
15,51,115,52
15,51,90,380
15,37,70,0
15,42,100,0
15,51,60,228
15,38,40,0
15,51,115,52
15,35,80,0
15,38,40,228
15,51,100,52
15,37,70,0
15,42,100,0
15,51,60,228
15,38,40,0
15,51,115,52
15,38,40,228
15,51,90,52
15,37,70,0
15,42,100,0
15,51,50,228
15,51,115,52
15,51,90,380
15,37,70,0
15,42,100,0
15,51,55,228
15,38,40,0
15,51,115,52
15,51,90,380
15,37,70,0
15,42,100,0
15,38,81,220
15,51,60,8
15,38,81,0
15,51,115,0
15,35,80,0
15,38,115,0
15,51,70,24
15,49,81,44
15,38,81,96
15,35,81,0
15,51,115,0
15,35,80,0
15,57,121,0
15,51,70,72
15,51,100,44
15,37,70,0
15,42,100,0
15,38,30,48
15,51,115,44
15,38,40,0
15,51,90,24
15,37,70,0
15,42,100,0
15,51,50,44
15,51,115,0
15,35,80,0
15,51,100,96
15,37,70,0
15,42,100,0
15,51,60,40
15,38,40,0
15,51,115,48
15,51,90,136
15,51,90,24
15,37,70,0
15,42,100,0
15,51,50,88
15,38,50,0
15,51,115,0
15,35,60,0
15,51,90,380
15,37,70,0
15,42,100,0
15,51,55,228
15,38,40,0
15,51,115,52
15,51,90,380
15,37,70,0
15,42,100,0
15,51,60,228
15,38,40,0
15,51,115,52
15,35,80,0
15,51,70,236
15,51,100,44
15,37,70,0
15,42,100,0
15,51,115,380
15,38,40,0
15,38,50,236
15,51,90,44
15,37,70,0
15,42,100,0
15,51,50,236
15,51,115,44
15,35,80,0
15,51,90,380
15,37,70,0
15,42,100,0
15,51,55,236
15,38,40,0
15,51,115,44
15,51,80,236
15,51,80,44
15,37,70,0
15,42,100,0
15,51,60,236
15,51,115,44
15,35,80,0
15,51,70,236
15,51,100,44
15,37,70,0
15,42,100,0
15,51,115,380
15,38,40,0
15,38,50,236
15,51,90,44
15,37,70,0
15,42,100,0
15,38,81,220
15,51,50,16
15,38,81,0
15,51,115,0
15,35,80,0
15,38,81,0
15,35,81,168
15,49,81,0
15,51,70,16
15,51,100,12
15,37,70,0
15,42,100,0
15,51,115,380
15,38,81,0
15,38,81,192
15,51,90,160
15,37,70,0
15,42,100,0
15,38,81,20
15,57,81,0
15,35,81,0
15,51,50,16
15,51,90,28
15,38,70,16
15,51,115,52
15,42,100,0
15,49,81,104
15,35,81,0
