track,note,velocity,time
1,62,100,0
1,64,100,0
1,60,100,0
1,64,100,0
1,59,100,0
1,64,100,0
1,63,100,0
1,64,100,0
1,66,100,0
1,69,100,192
1,71,100,0
1,69,100,0
1,66,100,0
1,64,100,0
1,63,100,0
1,64,100,0
1,66,100,0
1,69,100,192
1,71,100,0
1,69,100,0
1,66,100,0
1,64,100,0
1,63,100,0
1,64,100,0
1,66,100,0
1,69,100,192
1,71,100,0
1,69,100,0
1,66,100,0
1,64,100,0
1,63,100,0
1,64,100,0
1,66,100,0
1,69,100,192
1,71,100,0
1,69,100,0
1,66,100,0
1,64,100,0
1,63,100,0
1,64,100,0
1,66,100,0
1,69,100,192
1,71,100,0
1,64,100,0
1,66,100,0
1,69,100,192
1,71,100,0
1,63,100,0
1,64,100,0
1,66,100,0
1,69,100,192
1,71,100,0
1,69,100,0
1,66,100,0
1,64,100,0
1,63,100,0
1,64,100,0
1,66,100,0
1,69,100,192
1,71,100,0
1,69,100,0
1,66,100,0
1,64,100,0
1,63,100,0
1,64,100,0
1,66,100,0
1,69,100,192
1,71,100,0
1,64,100,0
1,66,100,0
1,69,100,192
1,71,100,0
1,64,100,0
1,66,100,0
1,69,100,192
1,71,100,0
1,69,100,0
1,66,100,0
1,64,100,0
1,63,100,0
1,64,100,0
1,66,100,0
1,69,100,192
1,71,100,0
1,69,100,0
1,66,100,0
1,64,100,0
1,64,100,192
1,66,100,0
1,69,100,192
1,71,100,0
1,69,100,0
1,66,100,0
1,64,100,0
1,64,100,192
1,66,100,0
1,69,100,192
1,71,100,0
1,69,100,0
1,66,100,0
1,64,100,0
1,64,100,192
1,66,100,0
1,69,100,192
1,71,100,0
1,64,100,0
1,66,100,0
1,69,100,192
1,71,100,0
1,63,100,480
1,64,100,0
1,66,100,0
1,69,100,192
1,71,100,0
1,64,100,0
1,66,100,0
1,69,100,192
1,71,100,0
1,63,100,0
1,64,100,0
1,66,100,0
1,69,100,192
1,71,100,0
1,69,100,0
1,66,100,0
1,64,100,0
1,63,100,0
1,64,100,0
1,66,100,0
1,69,100,192
1,71,100,0
1,69,100,0
1,66,100,0
1,64,100,0
1,63,100,0
1,64,100,0
1,66,100,0
1,69,100,192
1,71,100,0
1,64,100,0
1,66,100,0
1,69,100,192
1,71,100,0
1,64,100,0
1,66,100,0
1,69,100,192
1,71,100,0
1,69,100,0
1,66,100,0
1,64,100,0
1,63,100,0
1,64,100,0
1,66,100,0
1,69,100,192
1,71,100,0
1,69,100,0
1,66,100,0
1,64,100,0
1,64,100,192
1,66,100,0
1,69,100,192
1,71,100,0
1,69,100,0
1,66,100,0
1,64,100,0
1,64,100,192
1,66,100,0
1,69,100,192
1,71,100,0
1,69,100,0
1,66,100,0
1,64,100,0
1,64,100,192
1,66,100,0
1,69,100,192
1,71,100,0
1,64,100,0
1,66,100,0
1,69,100,192
1,71,100,0
1,59,100,12288
1,66,100,0
1,59,100,96
1,66,100,0
1,59,100,288
1,66,100,0
1,59,100,192
1,66,100,0
1,56,100,96
1,63,100,0
1,64,100,192
1,71,100,0
1,64,100,96
1,71,100,0
1,64,100,288
1,71,100,0
1,64,100,192
1,71,100,0
1,61,100,96
1,68,100,0
1,59,100,192
1,66,100,0
1,59,100,96
1,66,100,0
1,59,100,288
1,66,100,0
1,59,100,192
1,66,100,0
1,56,100,96
1,63,100,0
1,59,100,192
1,66,100,0
1,59,100,96
1,66,100,0
1,59,100,288
1,66,100,0
1,59,100,192
1,66,100,0
1,56,100,96
1,63,100,0
1,59,100,192
1,66,100,0
1,59,100,96
1,66,100,0
1,59,100,288
1,66,100,0
1,59,100,192
1,66,100,0
1,56,100,96
1,63,100,0
1,64,100,192
1,71,100,0
1,64,100,96
1,71,100,0
1,64,100,288
1,71,100,0
1,64,100,192
1,71,100,0
1,61,100,96
1,68,100,0
1,59,100,192
1,66,100,0
1,59,100,96
1,66,100,0
1,59,100,288
1,66,100,0
1,59,100,192
1,66,100,0
1,56,100,96
1,63,100,0
1,59,100,192
1,66,100,0
1,59,100,96
1,66,100,0
1,59,100,288
1,66,100,0
1,59,100,192
1,66,100,0
1,56,100,96
1,63,100,0
1,64,100,192
1,66,100,0
1,69,100,192
1,71,100,0
1,69,100,0
1,66,100,0
1,64,100,0
1,64,100,192
1,66,100,0
1,69,100,192
1,71,100,0
1,69,100,0
1,66,100,0
1,64,100,0
1,64,100,192
1,66,100,0
1,69,100,192
1,71,100,0
1,64,100,0
1,66,100,0
1,69,100,192
1,71,100,0
1,63,100,5952
1,64,100,0
1,66,100,0
1,69,100,192
1,71,100,0
1,69,100,0
1,66,100,0
1,64,100,0
1,63,100,0
1,64,100,0
1,66,100,0
1,69,100,192
1,71,100,0
1,69,100,0
1,66,100,0
1,64,100,0
1,63,100,0
1,64,100,0
1,66,100,0
1,69,100,192
1,71,100,0
1,69,100,0
1,66,100,0
1,64,100,0
1,63,100,0
1,68,100,96
1,69,100,96
1,69,100,8
1,68,100,192
1,68,100,8
1,69,100,8
1,68,100,672
1,69,100,96
1,69,100,8
1,68,100,192
1,68,100,8
1,69,100,8
1,68,100,672
1,69,100,96
1,69,100,8
1,68,100,192
1,68,100,8
1,69,100,8
1,68,100,672
1,69,100,96
1,69,100,8
2,31,100,0
2,43,100,0
2,33,100,0
2,45,100,0
2,29,100,0
2,41,100,0
2,24,100,0
2,36,100,0
2,28,100,0
2,40,100,0
2,40,100,0
2,35,100,0
2,47,100,0
2,28,100,0
2,40,100,0
2,35,100,0
2,47,100,0
2,28,100,0
2,40,100,0
2,35,100,0
2,47,100,0
2,33,100,0
2,45,100,0
2,32,100,0
2,44,100,0
2,28,100,0
2,40,100,0
2,35,100,0
2,47,100,0
2,28,100,0
2,40,100,0
2,35,100,0
2,47,100,0
2,28,100,0
2,40,100,0
2,35,100,0
2,47,100,0
2,33,100,0
2,45,100,0
2,32,100,0
2,44,100,0
2,28,100,0
2,40,100,0
2,31,100,0
2,43,100,0
2,33,100,0
2,45,100,0
2,31,100,0
2,43,100,0
2,33,100,0
2,45,100,0
2,29,100,0
2,41,100,0
2,36,100,0
2,48,100,0
2,40,100,0
2,52,100,0
2,35,100,192
2,47,100,0
2,35,100,96
2,47,100,0
2,35,100,288
2,47,100,0
2,35,100,192
2,47,100,0
2,32,100,96
2,44,100,0
2,40,100,192
2,52,100,0
2,40,100,96
2,52,100,0
2,40,100,288
2,52,100,0
2,40,100,192
2,52,100,0
2,37,100,96
2,49,100,0
2,35,100,192
2,47,100,0
2,35,100,96
2,47,100,0
2,35,100,288
2,47,100,0
2,35,100,192
2,47,100,0
2,32,100,96
2,44,100,0
2,35,100,192
2,47,100,0
2,35,100,96
2,47,100,0
2,35,100,288
2,47,100,0
2,35,100,192
2,47,100,0
2,32,100,96
2,44,100,0
2,35,100,192
2,47,100,0
2,35,100,96
2,47,100,0
2,35,100,288
2,47,100,0
2,35,100,192
2,47,100,0
2,32,100,96
2,44,100,0
2,40,100,192
2,52,100,0
2,40,100,96
2,52,100,0
2,40,100,288
2,52,100,0
2,40,100,192
2,52,100,0
2,37,100,96
2,49,100,0
2,35,100,192
2,47,100,0
2,35,100,96
2,47,100,0
2,35,100,288
2,47,100,0
2,35,100,192
2,47,100,0
2,32,100,96
2,44,100,0
2,35,100,192
2,47,100,0
2,35,100,96
2,47,100,0
2,35,100,288
2,47,100,0
2,35,100,192
2,47,100,0
2,32,100,96
2,44,100,0
2,33,100,0
2,45,100,0
2,32,100,0
2,44,100,0
2,28,100,0
2,40,100,0
2,35,100,0
2,47,100,0
3,50,100,0
3,52,100,0
3,48,100,0
3,52,100,0
3,52,100,0
3,56,100,0
3,59,100,0
3,52,100,0
3,56,100,0
3,59,100,0
3,52,100,0
3,56,100,0
3,59,100,0
3,52,100,0
3,56,100,0
3,59,100,0
3,59,100,7
3,59,100,0
3,66,100,0
3,71,100,0
3,59,100,778
3,66,100,0
3,71,100,0
3,59,100,720
3,66,100,0
3,71,100,0
3,59,100,778
3,66,100,0
3,71,100,0
3,59,100,768
3,66,100,0
3,71,100,0
3,52,100,778
3,59,100,0
3,64,100,0
3,59,100,778
3,66,100,0
3,71,100,0
3,59,100,778
3,66,100,0
3,71,100,0
3,59,100,778
3,66,100,0
3,71,100,0
3,52,100,778
3,59,100,0
3,64,100,0
3,59,100,778
3,66,100,0
3,71,100,0
3,59,100,778
3,66,100,0
3,71,100,0
3,57,100,778
3,64,100,0
3,69,100,0
3,56,100,778
3,63,100,0
3,68,100,0
3,52,100,768
3,56,100,0
3,59,100,0
3,52,100,0
3,56,100,0
3,59,100,0
3,52,100,0
3,56,100,0
3,59,100,0
3,52,100,0
3,56,100,0
3,59,100,0
3,59,100,7
3,59,100,0
3,66,100,0
3,71,100,0
3,52,100,778
3,59,100,0
3,64,100,0
3,59,100,778
3,66,100,0
3,71,100,0
3,59,100,778
3,66,100,0
3,71,100,0
3,59,100,778
3,66,100,0
3,71,100,0
3,52,100,778
3,59,100,0
3,64,100,0
3,59,100,778
3,66,100,0
3,71,100,0
3,59,100,778
3,66,100,0
3,71,100,0
3,57,100,778
3,64,100,0
3,69,100,0
3,56,100,778
3,63,100,0
3,68,100,0
3,52,100,768
3,56,100,0
3,59,100,0
3,52,100,0
3,56,100,0
3,59,100,0
3,52,100,0
3,56,100,0
3,59,100,0
3,52,100,0
3,56,100,0
3,59,100,0
3,59,100,7
3,55,100,0
3,62,100,0
3,67,100,0
3,57,100,768
3,64,100,0
3,69,100,0
3,55,100,768
3,62,100,0
3,67,100,0
3,57,100,768
3,64,100,0
3,69,100,0
3,48,100,768
3,52,100,0
3,53,100,0
3,48,100,0
3,52,100,0
3,53,100,0
3,52,100,0
3,53,100,96
3,48,100,0
3,57,100,0
3,55,100,0
3,53,100,384
3,52,100,0
3,40,100,0
3,44,100,0
3,40,100,0
3,40,100,0
3,40,100,0
3,43,100,0
3,40,100,0
3,43,100,5
3,40,100,0
3,64,100,576
3,68,100,0
3,52,100,2
3,52,100,0
3,52,100,0
3,55,100,0
3,52,100,0
3,57,100,12288
3,64,100,0
3,56,100,778
3,63,100,0
3,52,100,768
3,56,100,0
3,59,100,0
3,52,100,0
3,56,100,0
3,59,100,0
3,52,100,0
3,56,100,0
3,59,100,0
3,52,100,0
3,56,100,0
3,59,100,0
3,59,100,7
3,59,100,0
3,66,100,0
3,71,100,0
3,59,100,778
3,66,100,0
3,71,100,0
3,59,100,778
3,66,100,0
3,71,100,0
3,59,100,778
3,66,100,0
3,71,100,0
3,59,100,778
3,66,100,0
3,71,100,0
3,59,100,778
3,66,100,0
3,71,100,0
3,59,100,778
3,66,100,0
3,71,100,0
3,59,100,778
3,66,100,0
3,71,100,0
3,59,100,778
3,66,100,0
3,71,100,0
3,59,100,778
3,66,100,0
3,71,100,0
3,59,100,778
3,66,100,0
3,71,100,0
4,59,100,15168
4,59,100,48
4,57,100,48
4,57,100,48
4,59,100,48
4,59,100,96
4,59,100,98
4,57,100,96
4,59,100,50
4,56,100,89
4,56,100,48
4,59,100,3
4,59,100,63
4,62,100,0
4,59,100,33
4,57,100,92
4,57,100,0
4,59,100,0
4,59,100,67
4,59,100,100
4,57,100,110
4,59,100,34
4,59,100,62
4,59,100,149
4,59,100,96
4,59,100,111
4,63,100,24
4,59,100,0
4,59,100,87
4,59,100,43
4,57,100,29
4,59,100,39
4,59,100,52
4,62,100,192
4,59,100,168
4,56,100,82
4,56,100,53
4,56,100,53
4,59,100,53
4,59,100,34
4,59,100,93
4,57,100,348
4,57,100,53
4,57,100,53
4,59,100,53
4,59,100,34
4,59,100,93
4,57,100,348
4,57,100,53
4,57,100,53
4,59,100,53
4,59,100,34
4,59,100,93
4,63,100,348
4,57,100,0
4,63,100,1008
4,56,100,0
4,63,100,912
4,52,100,0
4,59,100,2496
4,59,100,48
4,57,100,48
4,57,100,48
4,59,100,48
4,59,100,96
4,59,100,98
4,57,100,96
4,59,100,50
4,56,100,89
4,56,100,48
4,59,100,3
4,59,100,63
4,62,100,0
4,59,100,33
4,57,100,92
4,57,100,0
4,59,100,0
4,59,100,67
4,59,100,100
4,57,100,110
4,59,100,34
4,59,100,62
4,59,100,149
4,59,100,96
4,59,100,111
4,63,100,24
4,59,100,0
4,59,100,87
4,59,100,43
4,57,100,29
4,59,100,39
4,59,100,52
4,62,100,192
4,59,100,168
4,56,100,82
4,56,100,53
4,56,100,53
4,59,100,53
4,59,100,34
4,59,100,93
4,57,100,348
4,57,100,53
4,57,100,53
4,59,100,53
4,59,100,34
4,59,100,93
4,57,100,348
4,57,100,53
4,57,100,53
4,59,100,53
4,59,100,34
4,59,100,93
4,63,100,348
4,57,100,0
4,63,100,1008
4,56,100,0
4,63,100,912
4,52,100,0
4,64,100,1152
4,59,100,521
4,59,100,48
4,59,100,48
4,59,100,144
4,55,100,144
4,67,100,2797
4,67,100,48
4,67,100,46
4,67,100,56
4,67,100,48
4,62,100,65
4,62,100,72
4,64,100,178
4,64,100,48
4,64,100,48
4,64,100,48
4,64,100,48
4,64,100,48
4,67,100,48
4,64,100,51
4,64,100,109
4,64,100,135
4,60,100,99
4,59,100,5427
4,59,100,48
4,57,100,48
4,57,100,48
4,59,100,48
4,59,100,96
4,59,100,98
4,57,100,96
4,59,100,50
4,56,100,89
4,56,100,48
4,59,100,3
4,59,100,63
4,62,100,0
4,59,100,33
4,57,100,92
4,57,100,0
4,59,100,0
4,59,100,67
4,59,100,100
4,57,100,110
4,59,100,34
4,59,100,62
4,59,100,149
4,59,100,96
4,59,100,111
4,63,100,24
4,59,100,0
4,59,100,87
4,59,100,43
4,57,100,29
4,59,100,39
4,59,100,52
4,62,100,192
4,59,100,168
4,56,100,82
4,56,100,53
4,56,100,53
4,59,100,53
4,59,100,34
4,59,100,93
4,57,100,348
4,57,100,53
4,57,100,53
4,59,100,53
4,59,100,34
4,59,100,93
4,57,100,348
4,57,100,53
4,57,100,53
4,59,100,53
4,59,100,34
4,59,100,93
4,63,100,348
4,57,100,0
4,63,100,1008
4,56,100,0
4,63,100,912
4,52,100,0
4,64,100,1152
4,59,100,768
4,59,100,87
4,59,100,96
4,59,100,96
4,71,100,231
4,71,100,48
4,71,100,48
4,71,100,48
4,71,100,48
4,71,100,48
4,59,100,288
4,59,100,43
4,71,100,305
4,71,100,48
4,71,100,48
4,71,100,48
4,71,100,48
4,71,100,48
4,59,100,288
4,59,100,43
4,71,100,271
4,71,100,48
4,71,100,48
4,71,100,48
4,71,100,48
4,71,100,48
4,59,100,288
4,59,100,43
4,71,100,334
4,71,100,48
4,71,100,48
4,71,100,48
4,71,100,48
4,71,100,48
4,59,100,288
4,59,100,45
4,71,100,362
4,71,100,48
4,71,100,48
4,71,100,48
4,71,100,48
4,71,100,48
4,71,100,619
4,71,100,48
4,71,100,48
4,71,100,48
4,71,100,48
4,71,100,48
4,71,100,619
4,71,100,48
4,71,100,48
4,71,100,48
4,71,100,48
4,71,100,48
4,68,100,235
4,68,100,48
4,69,100,48
4,69,100,48
4,69,100,48
4,68,100,144
4,68,100,48
4,68,100,48
4,69,100,48
4,68,100,576
4,68,100,48
4,69,100,48
4,69,100,48
4,69,100,48
4,68,100,144
4,68,100,48
4,68,100,48
4,69,100,48
4,68,100,576
4,68,100,48
4,69,100,48
4,69,100,48
4,69,100,48
4,68,100,144
4,68,100,48
4,68,100,48
4,69,100,48
4,68,100,576
4,68,100,48
4,69,100,48
4,69,100,48
4,69,100,48
4,68,100,144
4,68,100,48
4,66,100,48
4,64,100,48
5,31,100,0
5,43,100,0
5,33,100,0
5,45,100,0
5,29,100,0
5,41,100,0
5,24,100,0
5,36,100,0
5,28,100,0
5,40,100,0
5,40,100,0
5,35,100,0
5,47,100,0
5,28,100,0
5,40,100,0
5,35,100,0
5,47,100,0
5,28,100,0
5,40,100,0
5,35,100,0
5,47,100,0
5,33,100,0
5,45,100,0
5,32,100,0
5,44,100,0
5,28,100,0
5,40,100,0
5,35,100,0
5,47,100,0
