track,note,velocity,time
3,34,100,14861
3,34,0,77
3,34,96,19
3,34,0,79
3,34,96,17
3,34,0,77
3,34,97,19
3,34,0,77
3,34,95,19
3,34,0,77
3,34,100,19
3,34,0,77
3,34,100,19
3,34,0,77
3,34,99,19
3,34,0,80
3,36,100,16
3,36,0,77
3,36,100,19
3,36,0,77
3,36,97,19
3,36,0,77
3,36,93,19
3,36,0,77
3,36,95,19
3,36,0,77
3,36,98,19
3,36,0,77
3,36,97,19
3,36,0,77
3,36,98,19
3,36,0,77
3,38,100,19
3,38,0,77
3,38,96,19
3,38,0,77
3,38,99,19
3,38,0,77
3,38,98,19
3,38,0,82
3,45,98,14
3,43,99,96
3,45,0,1
3,43,0,88
3,41,98,7
3,41,0,77
3,38,98,19
3,38,0,83
3,36,99,13
3,38,98,96
3,36,0,16
3,38,0,68
3,40,96,12
3,40,0,80
3,33,99,16
3,33,0,285
3,36,98,3
3,36,0,179
3,34,100,13
3,34,0,77
3,34,96,19
3,34,0,79
3,34,96,17
3,34,0,77
3,34,97,19
3,34,0,77
3,34,95,19
3,34,0,77
3,34,100,19
3,34,0,77
3,34,100,19
3,34,0,77
3,34,99,19
3,34,0,80
3,36,100,16
3,36,0,77
3,36,100,19
3,36,0,77
3,36,97,19
3,36,0,77
3,36,93,19
3,36,0,77
3,36,95,19
3,36,0,77
3,36,98,19
3,36,0,77
3,36,97,19
3,36,0,77
3,36,98,19
3,36,0,77
3,38,100,19
3,38,0,77
3,38,96,19
3,38,0,77
3,38,99,19
3,38,0,77
3,38,98,19
3,38,0,82
3,45,98,14
3,43,99,96
3,45,0,1
3,43,0,88
3,41,98,7
3,41,0,77
3,38,98,19
3,38,0,83
3,36,99,13
3,38,98,96
3,36,0,16
3,38,0,68
3,40,96,12
3,40,0,80
3,33,99,16
3,33,0,285
3,29,98,3
3,29,0,179
3,34,104,13
3,34,0,141
3,29,85,3
3,29,0,45
3,33,86,3
3,33,0,45
3,29,92,3
3,29,0,45
3,34,92,3
3,34,0,1193
3,38,100,55
3,38,0,330
3,38,99,54
3,38,0,39
3,38,97,57
3,38,0,279
3,34,97,9
3,34,0,324
3,34,97,60
3,34,0,27
3,34,99,69
3,34,0,277
3,36,97,11
3,36,0,334
3,36,97,50
3,36,0,27
3,36,97,69
3,36,0,282
3,29,100,6
3,29,0,366
3,28,97,18
3,28,0,364
3,38,100,20
3,38,0,330
3,38,99,54
3,38,0,39
3,38,97,57
3,38,0,279
3,34,97,9
3,34,0,324
3,34,97,60
3,34,0,27
3,34,99,69
3,34,0,277
3,36,97,11
3,36,0,334
3,36,97,50
3,36,0,27
3,36,97,69
3,36,0,282
3,29,100,6
3,29,0,366
3,28,97,18
3,28,0,186
3,33,97,6
3,33,0,93
3,40,97,3
3,40,0,93
3,38,100,3
3,38,0,330
3,38,99,54
3,38,0,39
3,38,97,57
3,38,0,279
3,34,97,9
3,34,0,324
3,34,97,60
3,34,0,27
3,34,99,69
3,34,0,277
3,36,97,11
3,36,0,334
3,36,97,50
3,36,0,27
3,36,97,69
3,36,0,282
3,29,100,6
3,29,0,87
3,29,100,9
3,29,0,87
3,29,100,9
3,29,0,87
3,29,100,9
3,29,0,87
3,28,97,9
3,28,0,87
3,28,97,9
3,28,0,87
3,29,97,9
3,29,0,87
3,28,97,9
3,28,0,87
3,38,100,9
3,38,0,330
3,38,99,54
3,38,0,39
3,38,97,57
3,38,0,279
3,34,97,9
3,34,0,324
3,34,97,60
3,34,0,27
3,34,99,69
3,34,0,277
3,36,97,11
3,36,0,334
3,36,97,50
3,36,0,27
3,36,97,69
3,36,0,282
3,29,100,6
3,29,0,87
3,29,100,9
3,29,0,87
3,29,100,9
3,29,0,87
3,29,100,9
3,29,0,87
3,28,97,9
3,28,0,87
3,28,97,9
3,28,0,87
3,28,97,9
3,28,0,87
3,28,97,9
3,28,0,87
3,34,100,9
3,34,0,77
3,34,96,19
3,34,0,79
3,34,96,17
3,34,0,77
3,34,97,19
3,34,0,77
3,34,95,19
3,34,0,77
3,34,100,19
3,34,0,77
3,34,100,19
3,34,0,77
3,34,99,19
3,34,0,80
3,36,100,16
3,36,0,77
3,36,100,19
3,36,0,77
3,36,97,19
3,36,0,77
3,36,93,19
3,36,0,77
3,36,95,19
3,36,0,77
3,36,98,19
3,36,0,77
3,36,97,19
3,36,0,77
3,36,98,19
3,36,0,77
3,38,100,19
3,38,0,77
3,38,96,19
3,38,0,77
3,38,99,19
3,38,0,77
3,38,98,19
3,38,0,82
3,45,98,14
3,43,99,96
3,45,0,1
3,43,0,88
3,41,98,7
3,41,0,77
3,38,98,19
3,38,0,83
3,36,99,13
3,38,98,96
3,36,0,16
3,38,0,68
3,40,96,12
3,40,0,80
3,33,99,16
3,33,0,285
3,36,98,3
3,36,0,179
3,34,100,13
3,34,0,77
3,34,96,19
3,34,0,79
3,34,96,17
3,34,0,77
3,34,97,19
3,34,0,77
3,34,95,19
3,34,0,77
3,34,100,19
3,34,0,77
3,34,100,19
3,34,0,77
3,34,99,19
3,34,0,80
3,36,100,16
3,36,0,77
3,36,100,19
3,36,0,77
3,36,97,19
3,36,0,77
3,36,93,19
3,36,0,77
3,36,95,19
3,36,0,77
3,36,98,19
3,36,0,77
3,36,97,19
3,36,0,77
3,36,98,19
3,36,0,77
3,38,100,19
3,38,0,77
3,38,96,19
3,38,0,77
3,38,99,19
3,38,0,77
3,38,98,19
3,38,0,82
3,45,98,14
3,43,99,96
3,45,0,1
3,43,0,88
3,41,98,7
3,41,0,77
3,38,98,19
3,38,0,83
3,36,99,13
3,38,98,96
3,36,0,16
3,38,0,68
3,40,96,12
3,40,0,80
3,33,99,16
3,33,0,285
3,29,98,3
3,29,0,179
3,34,104,13
3,34,0,141
3,29,85,3
3,29,0,45
3,33,86,3
3,33,0,45
3,29,92,3
3,29,0,45
3,34,92,3
3,34,0,1193
3,38,100,3127
3,38,0,330
3,38,99,54
3,38,0,39
3,38,97,57
3,38,0,279
3,34,97,9
3,34,0,324
3,34,97,60
3,34,0,27
3,34,99,69
3,34,0,277
3,36,97,11
3,36,0,334
3,36,97,50
3,36,0,27
3,36,97,69
3,36,0,282
3,29,100,6
3,29,0,366
3,28,97,18
3,28,0,186
3,33,97,6
3,33,0,93
3,40,97,3
3,40,0,93
3,38,100,3
3,38,0,330
3,38,99,54
3,38,0,39
3,38,97,57
3,38,0,279
3,34,97,9
3,34,0,324
3,34,97,60
3,34,0,27
3,34,99,69
3,34,0,277
3,36,97,11
3,36,0,334
3,36,97,50
3,36,0,27
3,36,97,69
3,36,0,282
3,29,100,6
3,29,0,87
3,29,100,9
3,29,0,87
3,29,100,9
3,29,0,87
3,29,100,9
3,29,0,87
3,28,97,9
3,28,0,87
3,28,97,9
3,28,0,87
3,29,97,9
3,29,0,87
3,28,97,9
3,28,0,87
3,38,97,9
3,38,0,1047
3,38,100,5097
3,38,0,330
3,38,99,54
3,38,0,39
3,38,97,57
3,38,0,279
3,34,97,9
3,34,0,324
3,34,97,60
3,34,0,27
3,34,99,69
3,34,0,277
3,36,97,11
3,36,0,334
3,36,97,50
3,36,0,27
3,36,97,69
3,36,0,282
3,29,100,6
3,29,0,87
3,29,100,9
3,29,0,87
3,29,100,9
3,29,0,87
3,29,100,9
3,29,0,87
3,28,97,9
3,28,0,87
3,28,97,9
3,28,0,87
3,29,97,9
3,29,0,87
3,28,97,9
3,28,0,87
3,38,100,9
3,38,0,330
3,38,99,54
3,38,0,39
3,38,97,57
3,38,0,279
3,34,97,9
3,34,0,324
3,34,97,60
3,34,0,27
3,34,99,69
3,34,0,277
3,36,97,11
3,36,0,334
3,36,97,50
3,36,0,27
3,36,97,69
3,36,0,282
3,29,100,6
3,29,0,87
3,29,100,9
3,29,0,87
3,29,100,9
3,29,0,87
3,29,100,9
3,29,0,87
3,28,97,9
3,28,0,87
3,28,97,9
3,28,0,87
3,28,97,9
3,28,0,87
3,28,97,9
3,28,0,87
3,34,100,9
3,34,0,77
3,34,96,19
3,34,0,79
3,34,96,17
3,34,0,77
3,34,97,19
3,34,0,77
3,34,95,19
3,34,0,77
3,34,100,19
3,34,0,77
3,34,100,19
3,34,0,77
3,34,99,19
3,34,0,80
3,36,100,16
3,36,0,77
3,36,100,19
3,36,0,77
3,36,97,19
3,36,0,77
3,36,93,19
3,36,0,77
3,36,95,19
3,36,0,77
3,36,98,19
3,36,0,77
3,36,97,19
3,36,0,77
3,36,98,19
3,36,0,77
3,38,100,19
3,38,0,77
3,38,96,19
3,38,0,77
3,38,99,19
3,38,0,77
3,38,98,19
3,38,0,82
3,45,98,14
3,43,99,96
3,45,0,1
3,43,0,88
3,41,98,7
3,41,0,77
3,38,98,19
3,38,0,83
3,36,99,13
3,38,98,96
3,36,0,16
3,38,0,68
3,40,96,12
3,40,0,80
3,33,99,16
3,33,0,285
3,36,98,3
3,36,0,179
3,34,100,13
3,34,0,77
3,34,96,19
3,34,0,79
3,34,96,17
3,34,0,77
3,34,97,19
3,34,0,77
3,34,95,19
3,34,0,77
3,34,100,19
3,34,0,77
3,34,100,19
3,34,0,77
3,34,99,19
3,34,0,80
3,36,100,16
3,36,0,77
3,36,100,19
3,36,0,77
3,36,97,19
3,36,0,77
3,36,93,19
3,36,0,77
3,36,95,19
3,36,0,77
3,36,98,19
3,36,0,77
3,36,97,19
3,36,0,77
3,36,98,19
3,36,0,77
3,38,100,19
3,38,0,77
3,38,96,19
3,38,0,77
3,38,99,19
3,38,0,77
3,38,98,19
3,38,0,82
3,45,98,14
3,43,99,96
3,45,0,1
3,43,0,88
3,41,98,7
3,41,0,77
3,38,98,19
3,38,0,83
3,36,99,13
3,38,98,96
3,36,0,16
3,38,0,68
3,40,96,12
3,40,0,80
3,33,99,16
3,33,0,285
3,29,98,3
3,29,0,179
3,34,100,13
3,34,0,77
3,34,96,19
3,34,0,79
3,34,96,17
3,34,0,77
3,34,97,19
3,34,0,77
3,34,95,19
3,34,0,77
3,34,100,19
3,34,0,77
3,34,100,19
3,34,0,77
3,34,99,19
3,34,0,80
3,36,100,16
3,36,0,77
3,36,100,19
3,36,0,77
3,36,97,19
3,36,0,77
3,36,93,19
3,36,0,77
3,36,95,19
3,36,0,77
3,36,98,19
3,36,0,77
3,36,97,19
3,36,0,77
3,36,98,19
3,36,0,77
3,38,100,19
3,38,0,77
3,38,96,19
3,38,0,77
3,38,99,19
3,38,0,77
3,38,98,19
3,38,0,82
3,45,98,14
3,43,99,96
3,45,0,1
3,43,0,88
3,41,98,7
3,41,0,77
3,38,98,19
3,38,0,83
3,36,99,13
3,38,98,96
3,36,0,16
3,38,0,68
3,40,96,12
3,40,0,80
3,33,99,16
3,33,0,285
3,36,98,3
3,36,0,179
3,34,100,13
3,34,0,77
3,34,96,19
3,34,0,79
3,34,96,17
3,34,0,77
3,34,97,19
3,34,0,77
3,34,95,19
3,34,0,77
3,34,100,19
3,34,0,77
3,34,100,19
3,34,0,77
3,34,99,19
3,34,0,80
3,36,100,16
3,36,0,77
3,36,100,19
3,36,0,77
3,36,97,19
3,36,0,77
3,36,93,19
3,36,0,77
3,36,95,19
3,36,0,77
3,36,98,19
3,36,0,77
3,36,97,19
3,36,0,77
3,36,98,19
3,36,0,77
3,38,100,19
3,38,0,77
3,38,96,19
3,38,0,77
3,38,99,19
3,38,0,77
3,38,98,19
3,38,0,82
3,45,98,14
3,43,99,96
3,45,0,1
3,43,0,88
3,41,98,7
3,41,0,77
3,38,98,19
3,38,0,83
3,36,99,13
3,38,98,96
3,36,0,16
3,38,0,68
3,40,96,12
3,40,0,80
3,33,99,16
3,33,0,285
3,29,98,3
3,29,0,179
3,34,104,13
3,34,0,141
3,29,85,3
3,29,0,45
3,33,86,3
3,33,0,45
3,29,92,3
3,29,0,45
3,34,92,3
3,34,0,1193
3,38,100,55
3,38,0,330
3,38,99,54
3,38,0,39
3,38,97,57
3,38,0,279
3,38,100,9
3,38,0,330
3,38,99,54
3,38,0,39
3,38,97,57
3,38,0,279
3,38,100,9
3,38,0,330
3,38,99,54
3,38,0,39
3,38,97,57
3,38,0,279
3,38,100,9
3,38,0,1533
4,50,80,8918
4,62,78,288
4,50,0,471
4,53,78,9
4,62,0,59
4,62,75,229
4,53,0,349
4,65,70,35
4,62,0,24
4,65,0,69
4,65,72,3
4,65,0,8
4,60,76,1
4,60,0,1292
4,50,80,52
4,62,78,288
4,50,0,471
4,53,78,9
4,62,0,59
4,62,75,229
4,53,0,349
4,65,70,35
4,62,0,24
4,65,0,69
4,65,72,3
4,65,0,8
4,60,76,1
4,60,0,1292
4,46,85,7
4,53,86,30
4,58,82,26
4,58,0,707
4,48,83,9
4,53,0,2
4,46,0,13
4,55,83,3
4,62,80,39
4,48,0,703
4,55,0,2
4,50,83,0
4,62,0,11
4,57,82,5
4,64,82,39
4,62,80,273
4,64,0,6
4,50,0,469
4,57,0,10
4,62,0,0
4,48,86,2
4,48,0,93
4,50,85,3
4,50,0,93
4,52,84,3
4,52,0,93
4,45,91,3
4,45,0,428
4,46,85,7
4,53,86,30
4,58,82,26
4,58,0,707
4,48,83,9
4,53,0,2
4,46,0,13
4,55,83,3
4,62,80,39
4,48,0,703
4,55,0,2
4,50,83,0
4,62,0,11
4,57,82,5
4,64,82,39
4,62,80,273
4,64,0,7
4,50,0,468
4,62,0,7
4,57,0,1
4,48,86,4
4,48,0,93
4,50,85,3
4,50,0,93
4,52,84,3
4,52,0,93
4,45,91,3
4,46,84,455
4,45,0,8
4,53,85,17
4,58,78,19
4,46,0,1488
4,53,0,16
4,58,0,2
4,50,80,11
4,62,78,288
4,50,0,471
4,53,78,9
4,62,0,59
4,62,75,229
4,53,0,349
4,65,70,35
4,62,0,24
4,65,0,69
4,65,72,3
4,65,0,8
4,60,76,1
4,60,0,1292
4,50,80,52
4,62,78,288
4,50,0,471
4,53,78,9
4,62,0,59
4,62,75,229
4,53,0,349
4,65,70,35
4,62,0,24
4,65,0,69
4,65,72,3
4,65,0,8
4,60,76,1
4,60,0,1292
4,50,80,52
4,62,78,288
4,50,0,471
4,53,78,9
4,62,0,59
4,62,75,229
4,53,0,349
4,65,70,35
4,62,0,24
4,65,0,69
4,65,72,3
4,65,0,8
4,60,76,1
4,60,0,1292
4,50,80,52
4,62,78,288
4,50,0,471
4,53,78,9
4,62,0,59
4,62,75,229
4,53,0,349
4,65,70,35
4,62,0,24
4,65,0,69
4,65,72,3
4,65,0,8
4,60,76,1
4,60,0,1292
4,46,85,7
4,53,86,30
4,58,82,26
4,58,0,707
4,48,83,9
4,53,0,2
4,46,0,13
4,55,83,3
4,62,80,39
4,48,0,703
4,55,0,2
4,50,83,0
4,62,0,11
4,57,82,5
4,64,82,39
4,62,80,273
4,64,0,6
4,50,0,469
4,57,0,10
4,62,0,0
4,48,86,2
4,48,0,93
4,50,85,3
4,50,0,93
4,52,84,3
4,52,0,93
4,45,91,3
4,45,0,428
4,46,85,7
4,53,86,30
4,58,82,26
4,58,0,707
4,48,83,9
4,53,0,2
4,46,0,13
4,55,83,3
4,62,80,39
4,48,0,703
4,55,0,2
4,50,83,0
4,62,0,11
4,57,82,5
4,64,82,39
4,62,80,273
4,64,0,7
4,50,0,468
4,62,0,7
4,57,0,1
4,48,86,4
4,48,0,93
4,50,85,3
4,50,0,93
4,52,84,3
4,52,0,93
4,45,91,3
4,46,84,455
4,45,0,8
4,53,85,17
4,58,78,19
4,46,0,1488
4,53,0,16
4,58,0,2
4,50,80,11
4,62,78,288
4,50,0,471
4,53,78,9
4,62,0,59
4,62,75,229
4,53,0,349
4,65,70,35
4,62,0,24
4,65,0,69
4,65,72,3
4,65,0,8
4,60,76,1
4,60,0,1292
4,50,83,52
4,62,86,192
4,55,79,192
4,55,0,45
4,57,79,3
4,62,0,45
4,62,83,3
4,57,0,38
4,57,80,106
4,62,0,134
4,50,0,1
4,53,80,9
4,57,0,2
4,62,82,190
4,55,78,192
4,55,0,45
4,57,78,3
4,62,0,45
