track,note,velocity,time
1,40,90,475
1,40,0,106
1,40,86,14
1,40,0,116
1,43,90,4
1,43,0,101
1,43,78,19
1,43,0,110
1,45,94,11
1,45,0,99
1,45,90,20
1,46,86,121
1,45,0,5
1,47,82,55
1,46,0,5
1,47,0,24
1,47,94,30
1,46,82,61
1,47,0,9
1,47,86,50
1,46,0,5
1,47,0,25
1,47,90,31
1,46,82,59
1,47,0,10
1,46,0,51
1,47,90,0
1,47,0,30
1,47,94,29
1,46,82,60
1,47,0,11
1,46,0,50
1,47,86,0
1,47,0,30
1,47,90,29
1,46,78,60
1,47,0,11
1,47,82,50
1,46,0,5
1,47,0,25
1,47,82,29
1,46,70,61
1,47,0,5
1,47,82,55
1,46,0,5
1,47,0,19
1,47,82,36
1,46,78,60
1,47,0,4
1,46,0,50
1,47,94,5
1,47,0,45
1,40,74,5
1,40,0,40
1,40,82,20
1,40,0,65
1,43,78,114
1,43,0,36
1,43,78,24
1,43,0,66
1,47,94,114
1,47,0,31
1,47,94,29
1,47,0,61
1,38,94,120
1,38,0,40
1,38,78,20
1,38,0,34
1,38,94,25
1,38,0,56
1,40,82,65
1,40,0,30
1,40,82,30
1,40,0,59
1,43,90,120
1,43,0,30
1,43,90,31
1,43,0,60
1,47,94,119
1,47,0,26
1,47,99,35
1,47,0,55
1,38,78,125
1,38,0,35
1,38,82,25
1,38,0,30
1,38,90,30
1,38,0,49
1,40,90,70
1,40,0,30
1,40,86,30
1,40,0,61
1,43,86,119
1,43,0,30
1,43,90,30
1,43,0,70
1,47,94,110
1,47,0,31
1,47,94,30
1,47,0,62
1,38,90,117
1,38,0,32
1,38,82,29
1,38,0,34
1,38,90,26
1,38,0,50
1,40,94,70
1,40,0,34
1,40,82,25
1,40,0,65
1,43,90,115
1,43,0,31
1,43,90,29
1,43,0,65
1,47,94,116
1,47,0,30
1,47,99,30
1,47,0,69
1,38,94,111
1,38,0,39
1,38,78,21
1,38,0,35
1,38,94,25
1,38,0,44
1,45,86,5
1,45,0,25
1,45,70,35
1,45,0,24
1,45,74,36
1,45,0,24
1,45,70,36
1,45,0,19
1,45,70,41
1,45,0,20
1,45,66,40
1,45,0,19
1,45,82,41
1,45,0,54
1,43,49,6
1,40,61,60
1,43,0,4
1,40,0,21
1,40,53,34
1,40,0,20
1,40,53,41
1,40,0,18
1,40,49,42
1,40,0,19
1,40,53,41
1,40,0,19
1,40,53,41
1,40,0,20
1,40,66,39
1,45,61,61
1,40,0,5
1,45,0,55
1,47,66,0
1,47,0,19
1,47,66,41
1,47,0,15
1,47,70,44
1,47,0,20
1,47,70,41
1,47,0,14
1,47,70,45
1,47,0,15
1,47,61,46
1,47,0,15
1,47,78,44
1,47,0,60
1,45,61,0
1,45,0,61
1,43,53,0
1,43,0,19
1,43,49,40
1,43,0,15
1,43,49,45
1,43,0,21
1,43,57,39
1,43,0,15
1,43,61,46
1,43,0,20
1,43,41,40
1,43,0,9
1,43,53,50
1,43,0,61
1,49,66,0
1,50,61,60
1,49,0,9
1,50,0,15
1,50,53,36
1,50,0,19
1,50,70,40
1,50,0,20
1,50,66,40
1,50,0,21
1,50,70,40
1,50,0,19
1,50,70,41
1,50,0,19
1,50,74,41
1,47,66,60
1,50,0,5
1,47,0,54
1,45,61,0
1,45,0,21
1,45,82,39
1,45,0,20
1,45,74,40
1,45,0,20
1,45,66,41
1,45,0,15
1,45,82,44
1,45,0,61
1,43,70,0
1,43,0,60
1,42,78,0
1,42,0,54
1,41,70,5
1,40,82,60
1,41,0,10
1,40,0,95
1,40,86,16
1,40,0,109
1,43,82,10
1,43,0,100
1,43,86,20
1,43,0,115
1,45,94,6
1,45,0,109
1,45,90,10
1,45,0,115
1,46,74,5
1,47,82,60
1,46,0,5
1,47,0,25
1,47,90,31
1,46,66,60
1,47,0,4
1,47,82,56
1,46,0,4
1,47,0,25
1,47,82,31
1,46,70,59
1,47,0,5
1,47,82,56
1,46,0,5
1,47,0,24
1,47,86,31
1,47,0,60
1,46,70,0
1,46,0,59
1,47,82,0
1,47,0,30
1,47,82,31
1,46,66,59
1,47,0,5
1,46,0,55
1,47,74,0
1,47,0,28
1,47,78,32
1,47,0,61
1,46,66,0
1,46,0,60
1,47,78,0
1,47,0,24
1,47,78,36
1,47,0,60
1,46,66,0
1,47,90,49
1,46,0,5
1,47,0,40
1,40,74,26
1,40,0,39
1,40,82,20
1,40,0,66
1,43,78,114
1,43,0,35
1,43,78,26
1,43,0,64
1,47,94,116
1,47,0,29
1,47,94,30
1,47,0,60
1,38,94,120
1,38,0,39
1,38,78,22
1,38,0,34
1,38,94,25
1,38,0,56
1,40,82,64
1,40,0,30
1,40,82,31
1,40,0,59
1,43,90,120
1,43,0,30
1,43,90,30
1,43,0,61
1,47,94,119
1,47,0,25
1,47,99,35
1,47,0,56
1,38,78,125
1,38,0,34
1,38,82,25
1,38,0,30
1,38,90,31
1,38,0,49
1,40,90,70
1,40,0,30
1,40,86,31
1,40,0,60
1,43,86,120
1,43,0,30
1,43,90,29
1,43,0,70
1,47,94,111
1,47,0,29
1,47,94,31
1,47,0,61
1,38,90,118
1,38,0,35
1,38,82,25
1,38,0,35
1,38,90,26
1,38,0,49
1,40,94,71
1,40,0,34
1,40,82,25
1,40,0,65
1,43,90,116
1,43,0,30
1,43,90,29
1,43,0,65
1,47,94,116
1,47,0,30
1,47,99,30
1,47,0,69
1,38,94,110
1,38,0,41
1,38,78,20
1,38,0,31
1,38,94,29
1,38,0,43
1,36,90,5
1,36,0,41
1,36,70,18
1,36,0,40
1,36,74,21
1,36,0,45
1,36,70,14
1,36,0,40
1,36,70,20
1,36,0,36
1,36,57,25
1,36,0,40
1,36,70,20
1,36,0,29
1,36,78,30
1,36,0,56
1,38,78,5
1,38,0,40
1,38,66,20
1,38,0,34
1,38,66,26
1,38,0,35
1,38,61,24
1,38,0,35
1,38,61,25
1,38,0,34
1,38,53,27
1,38,0,35
1,38,74,25
1,38,0,35
1,38,78,25
1,38,0,35
1,36,78,24
1,36,0,35
1,36,61,25
1,36,0,31
1,36,70,29
1,36,0,30
1,36,66,30
1,36,0,30
1,36,61,31
1,36,0,30
1,36,66,29
1,36,0,26
1,36,78,34
1,36,0,61
1,38,70,0
1,40,61,59
1,38,0,6
1,40,0,35
1,40,45,20
1,40,0,30
1,40,53,30
1,40,0,35
1,40,49,25
1,40,0,30
1,40,53,29
1,40,0,30
1,40,41,30
1,40,0,35
1,40,53,26
1,40,0,30
1,40,66,30
1,40,0,24
1,36,70,36
1,36,0,35
1,36,61,25
1,36,0,30
1,36,61,30
1,36,0,29
1,36,61,30
1,36,0,30
1,36,61,31
1,36,0,29
1,36,53,31
1,36,0,30
1,36,61,30
1,36,0,30
1,36,61,29
1,36,0,51
1,38,53,9
1,38,0,40
1,38,45,20
1,38,0,30
1,38,61,31
1,38,0,29
1,38,53,31
1,38,0,24
1,38,70,36
1,38,0,24
1,38,53,36
1,38,0,25
1,38,66,34
1,38,0,31
1,38,61,29
1,38,0,51
1,45,78,10
1,45,0,29
1,45,49,31
1,45,0,30
1,45,70,29
1,45,0,30
1,45,70,31
1,45,0,25
1,45,70,34
1,45,0,25
1,45,66,36
1,45,0,25
1,45,66,35
1,45,0,29
1,45,70,31
1,45,0,25
1,45,74,34
1,45,0,30
1,45,53,30
1,45,0,26
1,45,70,35
1,45,0,30
1,45,66,30
1,45,0,25
1,45,70,34
1,45,0,30
1,45,78,31
1,45,0,29
1,45,70,31
1,45,0,25
1,45,78,24
1,45,0,25
1,40,74,6
1,40,0,40
1,40,82,20
1,40,0,65
1,43,78,114
1,43,0,36
1,43,78,24
1,43,0,66
1,47,94,114
1,47,0,30
1,47,94,30
1,47,0,61
1,38,94,119
1,38,0,40
1,38,78,20
1,38,0,36
1,38,94,24
1,38,0,55
1,40,82,66
1,40,0,27
1,40,82,32
1,40,0,61
1,43,90,120
1,43,0,29
1,43,90,31
1,43,0,60
1,47,94,119
1,47,0,25
1,47,99,36
1,47,0,54
1,38,78,126
1,38,0,35
1,38,82,24
1,38,0,30
1,38,90,30
1,38,0,50
1,40,90,71
1,40,0,30
1,40,86,30
1,40,0,60
1,43,86,120
1,43,0,29
1,43,90,31
1,43,0,69
1,47,94,111
1,47,0,29
1,47,94,30
1,47,0,65
1,38,90,116
1,38,0,35
1,38,82,25
1,38,0,35
1,38,90,25
1,38,0,50
1,40,94,69
1,40,0,35
1,40,82,25
1,40,0,66
1,43,90,114
1,43,0,30
1,43,90,31
1,43,0,65
1,47,94,115
1,47,0,30
1,47,99,30
1,47,0,69
1,38,94,111
1,38,0,35
1,38,78,25
1,38,0,34
1,38,94,25
1,38,0,46
1,40,74,5
1,40,0,40
1,40,82,19
1,40,0,66
1,43,78,114
1,43,0,35
1,43,78,26
1,43,0,65
1,47,94,115
1,47,0,29
1,47,94,31
1,47,0,59
1,38,94,121
1,38,0,40
1,38,78,20
1,38,0,31
1,38,94,29
1,38,0,54
1,45,86,6
1,45,0,24
1,45,70,36
1,45,0,25
1,45,74,35
1,45,0,25
1,45,70,35
1,45,0,19
1,45,70,41
1,45,0,18
1,45,66,42
1,45,0,19
1,45,82,40
1,45,0,55
1,43,49,6
1,40,61,60
1,43,0,4
1,40,0,20
1,40,53,35
1,40,0,18
1,40,53,43
1,40,0,19
1,40,49,40
1,40,0,21
1,40,53,40
1,40,0,20
1,40,53,39
1,40,0,20
1,40,66,41
1,45,61,59
1,40,0,5
1,47,66,55
1,45,0,6
1,47,0,15
1,47,66,40
1,47,0,15
1,47,70,45
1,47,0,20
1,47,70,40
1,47,0,15
1,47,70,44
1,47,0,15
1,47,61,46
1,47,0,14
1,47,78,46
1,47,0,59
1,45,61,0
1,45,0,61
1,43,53,0
1,43,0,19
1,43,49,41
1,43,0,14
1,43,49,45
1,43,0,21
1,43,57,40
1,43,0,14
1,43,61,45
1,43,0,21
1,43,41,40
1,43,0,9
1,43,53,50
1,43,0,61
1,49,66,0
1,50,61,59
1,49,0,10
1,50,0,16
1,50,53,35
1,50,0,19
1,50,70,40
1,50,0,21
1,50,66,39
1,50,0,21
1,50,70,40
1,50,0,20
1,50,70,40
1,50,0,19
1,50,74,41
1,47,66,60
1,50,0,4
1,47,0,55
1,45,61,0
1,45,0,21
1,45,82,40
1,45,0,20
1,45,74,40
1,45,0,19
1,45,66,41
1,45,0,15
1,45,82,45
1,45,0,60
1,43,70,0
1,43,0,59
1,42,78,0
1,42,0,56
1,41,70,5
1,40,82,59
1,41,0,10
1,40,0,95
1,40,86,16
1,40,0,109
1,43,82,11
1,43,0,99
1,43,86,21
1,43,0,114
1,45,94,5
1,45,0,110
1,45,90,10
1,45,0,116
1,46,74,5
1,47,82,60
1,46,0,4
1,47,0,26
1,47,90,30
1,46,66,60
1,47,0,5
1,47,82,54
1,46,0,3
1,47,0,28
1,47,82,30
1,46,70,60
1,47,0,5
1,47,82,55
1,46,0,4
1,47,0,26
1,47,86,29
1,47,0,61
1,46,70,0
1,46,0,60
1,47,82,0
1,47,0,30
1,47,82,30
1,46,66,60
1,47,0,5
1,46,0,54
1,47,74,0
1,47,0,31
1,47,78,30
1,47,0,60
1,46,66,0
1,46,0,60
1,47,78,0
1,47,0,24
1,47,78,36
1,47,0,60
1,46,66,0
1,47,90,50
1,46,0,4
1,47,0,40
1,40,74,26
1,40,0,39
1,40,82,20
1,40,0,66
1,43,78,115
1,43,0,31
1,43,78,29
1,43,0,65
1,47,94,114
1,47,0,30
1,47,94,31
1,47,0,60
1,38,94,119
1,38,0,40
1,38,78,20
1,38,0,35
1,38,94,26
1,38,0,55
1,40,82,64
1,40,0,30
1,40,82,30
1,40,0,61
1,43,90,119
1,43,0,31
1,43,90,30
1,43,0,60
1,47,94,120
1,47,0,25
1,47,99,35
1,47,0,54
1,38,78,125
1,38,0,36
1,38,82,24
1,38,0,31
1,38,90,29
1,38,0,50
1,40,90,70
1,40,0,30
1,40,86,30
1,40,0,61
1,43,86,120
1,43,0,30
1,43,90,30
1,43,0,69
1,47,94,111
1,47,0,29
1,47,94,31
1,47,0,64
1,38,90,115
1,38,0,35
1,38,82,25
1,38,0,35
1,38,90,26
1,38,0,49
1,40,94,71
1,40,0,34
1,40,82,25
1,40,0,65
1,43,90,115
1,43,0,31
1,43,90,30
1,43,0,64
1,47,94,116
1,47,0,30
1,47,99,29
1,47,0,70
1,38,94,110
1,38,0,41
1,38,78,19
1,38,0,36
1,38,94,24
1,38,0,45
1,36,90,0
1,36,0,44
1,36,70,15
1,36,0,40
1,36,74,20
1,36,0,45
1,36,70,16
1,36,0,40
1,36,70,20
1,36,0,34
1,36,57,26
1,36,0,39
1,36,70,21
1,36,0,30
1,36,78,30
1,36,0,54
1,38,78,5
1,38,0,41
1,38,66,20
1,38,0,34
1,38,66,26
1,38,0,35
1,38,61,25
1,38,0,34
1,38,61,25
1,38,0,32
1,38,53,29
1,38,0,35
1,38,74,24
1,38,0,35
1,38,78,26
1,38,0,35
1,36,78,24
1,36,0,36
1,36,61,25
1,36,0,30
1,36,70,29
1,36,0,31
1,36,66,30
1,36,0,30
1,36,61,29
1,36,0,31
1,36,66,29
1,36,0,26
1,36,78,35
1,38,70,59
1,36,0,1
1,40,61,60
1,38,0,4
1,40,0,36
1,40,45,20
1,40,0,30
1,40,53,29
1,40,0,36
1,40,49,25
1,40,0,29
1,40,53,31
1,40,0,29
1,40,41,30
1,40,0,35
1,40,53,25
1,40,0,31
1,40,66,29
1,40,0,26
1,36,70,35
1,36,0,34
1,36,61,26
1,36,0,30
1,36,61,29
1,36,0,31
1,36,61,29
1,36,0,30
1,36,61,31
1,36,0,29
1,36,53,31
1,36,0,29
1,36,61,31
1,36,0,29
1,36,61,31
1,36,0,50
1,38,53,9
1,38,0,40
1,38,45,20
1,38,0,31
1,38,61,30
1,38,0,29
1,38,53,31
1,38,0,25
1,38,70,35
1,38,0,24
1,38,53,36
1,38,0,24
1,38,66,36
1,38,0,30
1,38,61,29
1,38,0,51
1,45,78,10
1,45,0,29
1,45,49,31
1,45,0,29
1,45,70,31
1,45,0,29
1,45,70,31
1,45,0,23
1,45,70,36
1,45,0,25
1,45,66,35
1,45,0,25
1,45,66,36
1,45,0,29
1,45,70,31
1,45,0,25
1,45,74,35
1,45,0,30
1,45,53,30
1,45,0,25
1,45,70,35
1,45,0,29
1,45,66,30
1,45,0,25
1,45,70,35
1,45,0,31
1,45,78,29
1,45,0,30
1,45,70,30
1,45,0,25
1,45,78,26
1,45,0,24
1,40,74,1
1,40,0,40
1,40,82,19
1,40,0,65
1,43,78,116
1,43,0,34
1,43,78,25
1,43,0,65
1,47,94,115
1,47,0,31
1,47,94,29
1,47,0,61
1,38,94,119
1,38,0,40
1,38,78,20
1,38,0,36
1,38,94,25
1,38,0,54
1,40,82,65
1,40,0,30
1,40,82,30
1,40,0,61
1,43,90,119
1,43,0,31
1,43,90,30
1,43,0,59
1,47,94,120
1,47,0,25
1,47,99,35
1,47,0,56
1,38,78,124
1,38,0,36
1,38,82,24
1,38,0,28
1,38,90,33
1,38,0,50
1,40,90,69
1,40,0,31
1,40,86,30
1,40,0,59
1,43,86,121
1,43,0,29
1,43,90,31
1,43,0,70
1,47,94,109
1,47,0,28
1,47,94,33
1,47,0,65
1,38,90,114
1,38,0,36
1,38,82,25
1,38,0,35
1,38,90,25
1,38,0,50
1,40,94,69
1,40,0,35
1,40,82,26
1,40,0,64
1,43,90,115
1,43,0,30
1,43,90,31
1,43,0,65
1,47,94,115
1,47,0,30
1,47,99,29
1,47,0,68
1,38,94,113
1,38,0,39
1,38,78,20
1,38,0,36
1,38,94,25
1,38,0,44
1,45,86,0
1,45,0,26
1,45,70,34
1,45,0,25
1,45,74,36
1,45,0,25
1,45,70,34
1,45,0,21
1,45,70,39
1,45,0,20
1,45,66,40
1,45,0,21
1,45,82,40
1,45,0,54
1,43,49,5
1,40,61,61
1,43,0,5
1,40,0,20
