track,note,velocity,time
3,42,80,240
3,42,0,30
3,42,30,0
3,42,0,30
3,42,50,0
3,42,0,30
3,42,65,0
3,42,0,30
3,42,80,0
3,42,0,30
3,42,30,0
3,42,0,30
3,42,50,0
3,42,0,30
3,42,65,0
3,42,0,30
3,42,80,0
3,42,0,30
3,42,30,0
3,42,0,30
3,42,50,0
3,42,0,30
3,42,65,0
3,42,0,30
3,42,80,0
3,42,0,30
3,42,30,0
3,42,0,30
3,42,50,0
3,42,0,30
3,42,65,0
3,42,0,30
3,42,80,0
3,42,0,30
3,42,30,0
3,42,0,30
3,42,50,0
3,42,0,30
3,42,65,0
3,42,0,30
3,42,80,0
3,42,0,30
3,42,30,0
3,42,0,30
3,42,50,0
3,42,0,30
3,42,65,0
3,42,0,30
3,42,80,0
3,42,0,30
3,42,30,0
3,42,0,30
3,42,50,0
3,42,0,30
3,42,65,0
3,42,0,30
3,42,80,0
3,42,0,30
3,42,30,0
3,42,0,30
3,46,80,0
3,46,0,60
3,42,80,0
3,42,0,30
3,42,30,0
3,42,0,30
3,42,50,0
3,42,0,30
3,42,65,0
3,42,0,30
3,42,80,0
3,42,0,30
3,42,30,0
3,42,0,30
3,42,50,0
3,42,0,30
3,42,65,0
3,42,0,30
3,42,80,0
3,42,0,30
3,42,30,0
3,42,0,30
3,42,50,0
3,42,0,30
3,42,65,0
3,42,0,30
3,42,80,0
3,42,0,30
3,42,30,0
3,42,0,30
3,42,50,0
3,42,0,30
3,42,65,0
3,42,0,30
3,42,80,0
3,42,0,30
3,42,30,0
3,42,0,30
3,42,50,0
3,42,0,30
3,42,65,0
3,42,0,30
3,42,80,0
3,42,0,30
3,42,30,0
3,42,0,30
3,42,50,0
3,42,0,30
3,42,65,0
3,42,0,30
3,42,80,0
3,42,0,30
3,42,30,0
3,42,0,30
3,46,80,0
3,46,0,60
3,42,80,0
3,42,0,30
3,42,30,0
3,42,0,30
3,46,80,0
3,46,0,60
3,36,127,0
3,42,80,0
3,42,0,30
3,42,30,0
3,42,0,30
3,36,0,0
3,42,50,0
3,42,0,30
3,42,65,0
3,42,0,30
3,36,127,0
3,42,80,0
3,42,0,30
3,42,30,0
3,42,0,30
3,36,0,0
3,42,50,0
3,42,0,30
3,42,65,0
3,42,0,30
3,36,127,0
3,42,80,0
3,42,0,30
3,42,30,0
3,42,0,30
3,36,0,0
3,42,50,0
3,42,0,30
3,42,65,0
3,42,0,30
3,36,127,0
3,42,80,0
3,42,0,30
3,42,30,0
3,42,0,30
3,36,0,0
3,42,50,0
3,42,0,30
3,42,65,0
3,42,0,30
3,36,127,0
3,42,80,0
3,42,0,30
3,42,30,0
3,42,0,30
3,36,0,0
3,42,50,0
3,42,0,30
3,42,65,0
3,42,0,30
3,36,127,0
3,42,80,0
3,42,0,30
3,42,30,0
3,42,0,30
3,36,0,0
3,42,50,0
3,42,0,30
3,42,65,0
3,42,0,30
3,36,127,0
3,42,80,0
3,42,0,30
3,42,30,0
3,42,0,30
3,36,0,0
3,42,50,0
3,42,0,30
3,42,65,0
3,42,0,30
3,36,127,0
3,42,80,0
3,42,0,30
3,42,30,0
3,42,0,30
3,36,0,0
3,46,80,0
3,46,0,60
3,36,127,0
3,42,80,0
3,42,0,30
3,42,30,0
3,42,0,30
3,36,0,0
3,42,50,0
3,42,0,30
3,42,65,0
3,42,0,30
3,36,127,0
3,42,80,0
3,42,0,30
3,42,30,0
3,42,0,30
3,36,0,0
3,42,50,0
3,42,0,30
3,42,65,0
3,42,0,30
3,36,127,0
3,42,80,0
3,42,0,30
3,42,30,0
3,42,0,30
3,36,0,0
3,42,50,0
3,42,0,30
3,42,65,0
3,42,0,30
3,36,127,0
3,42,80,0
3,42,0,30
3,42,30,0
3,42,0,30
3,36,0,0
3,42,50,0
3,42,0,30
3,42,65,0
3,42,0,30
3,36,127,0
3,42,80,0
3,42,0,30
3,42,30,0
3,42,0,30
3,36,0,0
3,42,50,0
3,42,0,30
3,42,65,0
3,42,0,30
3,36,127,0
3,42,80,0
3,42,0,30
3,42,30,0
3,42,0,30
3,36,0,0
3,42,50,0
3,42,0,30
3,42,65,0
3,42,0,30
3,36,127,0
3,42,80,0
3,42,0,30
3,42,30,0
3,42,0,30
3,36,0,0
3,46,80,0
3,84,50,0
3,46,0,60
3,36,127,0
3,42,80,0
3,57,40,0
3,42,0,30
3,84,0,30
3,36,0,0
3,57,0,60
3,36,127,0
3,42,80,0
3,49,70,0
3,69,25,0
3,69,0,30
3,42,0,0
3,39,57,0
3,42,30,0
3,69,45,0
3,69,0,30
3,39,0,0
3,42,0,0
3,36,0,0
3,39,47,0
3,42,50,0
3,69,35,0
3,69,0,30
3,42,0,0
3,39,0,0
3,42,65,0
3,69,25,0
3,69,0,30
3,42,0,0
3,49,0,0
3,36,127,0
3,39,110,0
3,42,80,0
3,69,25,0
3,69,0,30
3,42,0,0
3,42,30,0
3,69,45,0
3,69,0,30
3,36,0,0
3,39,0,0
3,42,0,0
3,39,57,0
3,42,50,0
3,69,35,0
3,69,0,30
3,42,0,0
3,39,0,0
3,39,47,0
3,42,65,0
3,69,25,0
3,69,0,30
3,42,0,0
3,39,0,0
3,36,127,0
3,42,80,0
3,69,25,0
3,69,0,30
3,42,0,0
3,39,57,0
3,42,30,0
3,69,45,0
3,69,0,30
3,36,0,0
3,39,0,0
3,42,0,0
3,39,47,0
3,42,50,0
3,69,35,0
3,69,0,30
3,42,0,0
3,39,0,0
3,42,65,0
3,69,25,0
3,69,0,30
3,42,0,0
3,36,127,0
3,39,110,0
3,42,80,0
3,69,25,0
3,69,0,30
3,42,0,0
3,42,30,0
3,69,45,0
3,69,0,30
3,36,0,0
3,39,0,0
3,42,0,0
3,39,57,0
3,42,50,0
3,69,35,0
3,69,0,30
3,42,0,0
3,39,0,0
3,39,47,0
3,42,65,0
3,69,25,0
3,69,0,30
3,42,0,0
3,39,0,0
3,36,127,0
3,42,80,0
3,69,25,0
3,69,0,30
3,42,0,0
3,39,57,0
3,42,30,0
3,69,45,0
3,69,0,30
3,36,0,0
3,39,0,0
3,42,0,0
3,39,47,0
3,42,50,0
3,69,35,0
3,69,0,30
3,42,0,0
3,39,0,0
3,42,65,0
3,69,25,0
3,69,0,30
3,42,0,0
3,36,127,0
3,39,110,0
3,42,80,0
3,69,25,0
3,69,0,30
3,42,0,0
3,42,30,0
3,69,45,0
3,69,0,30
3,36,0,0
3,39,0,0
3,42,0,0
3,39,57,0
3,42,50,0
3,69,35,0
3,69,0,30
3,42,0,0
3,39,0,0
3,39,47,0
3,42,65,0
3,69,25,0
3,69,0,30
3,42,0,0
3,39,0,0
3,36,127,0
3,42,80,0
3,69,25,0
3,69,0,30
3,42,0,0
3,39,57,0
3,42,30,0
3,69,45,0
3,69,0,30
3,36,0,0
3,39,0,0
3,42,0,0
3,39,47,0
3,42,50,0
3,69,35,0
3,69,0,30
3,42,0,0
3,39,0,0
3,42,65,0
3,69,25,0
3,69,0,30
3,42,0,0
3,36,127,0
3,39,110,0
3,42,80,0
3,69,25,0
3,69,0,30
3,42,0,0
3,42,30,0
3,69,45,0
3,69,0,30
3,36,0,0
3,39,0,0
3,42,0,0
3,39,57,0
3,46,80,0
3,69,35,0
3,69,0,30
3,39,0,0
3,39,47,0
3,69,25,0
3,69,0,30
3,39,0,0
3,46,0,0
3,36,127,0
3,42,80,0
3,69,25,0
3,69,0,30
3,42,0,0
3,39,57,0
3,42,30,0
3,69,45,0
3,69,0,30
3,36,0,0
3,39,0,0
3,42,0,0
3,39,47,0
3,42,50,0
3,69,35,0
3,69,0,30
3,42,0,0
3,39,0,0
3,42,65,0
3,69,25,0
3,69,0,30
3,42,0,0
3,36,127,0
3,39,110,0
3,42,80,0
3,69,25,0
3,69,0,30
3,42,0,0
3,42,30,0
3,69,45,0
3,69,0,30
3,36,0,0
3,39,0,0
3,42,0,0
3,39,57,0
3,42,50,0
3,69,35,0
3,69,0,30
3,42,0,0
3,39,0,0
3,39,47,0
3,42,65,0
3,69,25,0
3,69,0,30
3,42,0,0
3,39,0,0
3,36,127,0
3,42,80,0
3,69,25,0
3,69,0,30
3,42,0,0
3,39,57,0
3,42,30,0
3,69,45,0
3,69,0,30
3,36,0,0
3,39,0,0
3,42,0,0
3,39,47,0
3,42,50,0
3,69,35,0
3,69,0,30
3,42,0,0
3,39,0,0
3,42,65,0
3,69,25,0
3,69,0,30
3,42,0,0
3,36,127,0
3,39,110,0
3,42,80,0
3,69,25,0
3,69,0,30
3,42,0,0
3,42,30,0
3,69,45,0
3,69,0,30
3,36,0,0
3,39,0,0
3,42,0,0
3,39,57,0
3,42,50,0
3,69,35,0
3,69,0,30
3,42,0,0
3,39,0,0
3,39,47,0
3,42,65,0
3,69,25,0
3,69,0,30
3,42,0,0
3,39,0,0
3,36,127,0
3,42,80,0
3,69,25,0
3,69,0,30
3,42,0,0
3,39,57,0
3,42,30,0
3,69,45,0
3,69,0,30
3,36,0,0
3,39,0,0
3,42,0,0
3,39,47,0
3,42,50,0
3,69,35,0
3,69,0,30
3,42,0,0
3,39,0,0
3,42,65,0
3,69,25,0
3,69,0,30
3,42,0,0
3,36,127,0
3,39,110,0
3,42,80,0
3,69,25,0
3,69,0,30
3,42,0,0
3,42,30,0
3,69,45,0
3,69,0,30
3,36,0,0
3,39,0,0
3,42,0,0
3,39,57,0
3,42,50,0
3,69,35,0
3,69,0,30
3,42,0,0
3,39,0,0
3,39,47,0
3,42,65,0
3,69,25,0
3,69,0,30
3,42,0,0
3,39,0,0
3,36,127,0
3,42,80,0
3,69,25,0
3,69,0,30
3,42,0,0
3,39,57,0
3,42,30,0
3,69,45,0
3,69,0,30
3,36,0,0
3,39,0,0
3,42,0,0
3,39,47,0
3,46,80,0
3,69,35,0
3,69,0,30
3,39,0,0
3,69,25,0
3,69,0,30
3,46,0,0
3,36,127,0
3,39,110,0
3,42,80,0
3,69,25,0
3,69,0,30
3,42,0,0
3,42,30,0
3,69,45,0
3,69,0,30
3,36,0,0
3,39,0,0
3,42,0,0
3,39,57,0
3,46,80,0
3,69,35,0
3,69,0,30
3,39,0,0
3,39,47,0
3,69,25,0
3,69,0,30
3,39,0,0
3,46,0,0
3,36,127,0
3,42,80,0
3,49,70,0
3,69,25,0
3,69,0,30
3,42,0,0
3,39,57,0
3,42,30,0
3,69,45,0
3,69,0,30
3,39,0,0
3,42,0,0
3,36,0,0
3,39,47,0
3,42,50,0
3,69,35,0
3,69,0,30
3,42,0,0
3,39,0,0
3,42,65,0
3,69,25,0
3,69,0,30
3,42,0,0
3,49,0,0
3,36,127,0
3,39,110,0
3,42,80,0
3,69,25,0
3,69,0,30
3,42,0,0
3,42,30,0
3,69,45,0
3,69,0,30
3,36,0,0
3,39,0,0
3,42,0,0
3,39,57,0
3,42,50,0
3,69,35,0
3,69,0,30
3,42,0,0
3,39,0,0
3,39,47,0
3,42,65,0
3,69,25,0
3,69,0,30
3,42,0,0
3,39,0,0
3,36,127,0
3,42,80,0
3,69,25,0
3,69,0,30
3,42,0,0
3,39,57,0
3,42,30,0
3,69,45,0
3,69,0,30
3,36,0,0
3,39,0,0
3,42,0,0
3,39,47,0
3,42,50,0
3,69,35,0
3,69,0,30
3,42,0,0
3,39,0,0
3,42,65,0
3,69,25,0
3,69,0,30
3,42,0,0
3,36,127,0
3,39,110,0
3,42,80,0
3,69,25,0
3,69,0,30
3,42,0,0
3,42,30,0
3,69,45,0
3,69,0,30
3,36,0,0
3,39,0,0
3,42,0,0
3,39,57,0
3,42,50,0
3,69,35,0
3,69,0,30
3,42,0,0
3,39,0,0
3,39,47,0
3,42,65,0
3,69,25,0
3,69,0,30
3,42,0,0
3,39,0,0
3,36,127,0
3,42,80,0
3,69,25,0
3,69,0,30
3,42,0,0
3,39,57,0
3,42,30,0
3,69,45,0
3,69,0,30
3,36,0,0
3,39,0,0
3,42,0,0
3,39,47,0
3,42,50,0
3,69,35,0
3,69,0,30
3,42,0,0
3,39,0,0
3,42,65,0
3,69,25,0
3,69,0,30
3,42,0,0
3,36,127,0
3,39,110,0
3,42,80,0
3,69,25,0
3,69,0,30
3,42,0,0
3,42,30,0
3,69,45,0
3,69,0,30
3,36,0,0
3,39,0,0
3,42,0,0
3,39,57,0
3,42,50,0
3,69,35,0
3,69,0,30
3,42,0,0
3,39,0,0
3,39,47,0
3,42,65,0
3,69,25,0
3,69,0,30
3,42,0,0
3,39,0,0
3,36,127,0
3,42,80,0
3,69,25,0
3,69,0,30
3,42,0,0
3,39,57,0
3,42,30,0
3,69,45,0
3,69,0,30
3,36,0,0
3,39,0,0
3,42,0,0
3,39,47,0
3,42,50,0
3,69,35,0
3,69,0,30
3,42,0,0
3,39,0,0
3,42,65,0
3,69,25,0
3,69,0,30
3,42,0,0
3,36,127,0
3,39,110,0
3,42,80,0
3,69,25,0
3,69,0,30
3,42,0,0
3,42,30,0
3,69,45,0
3,69,0,30
3,36,0,0
3,39,0,0
3,42,0,0
3,39,57,0
3,46,80,0
3,69,35,0
3,69,0,30
3,39,0,0
3,39,47,0
3,69,25,0
3,69,0,30
3,39,0,0
3,46,0,0
3,36,127,0
3,42,80,0
3,69,25,0
3,69,0,30
3,42,0,0
3,39,57,0
3,42,30,0
3,69,45,0
3,69,0,30
3,36,0,0
3,39,0,0
3,42,0,0
3,39,47,0
3,42,50,0
3,69,35,0
3,69,0,30
3,42,0,0
3,39,0,0
3,42,65,0
3,69,25,0
3,69,0,30
3,42,0,0
3,36,127,0
3,39,110,0
3,42,80,0
3,69,25,0
3,69,0,30
3,42,0,0
3,42,30,0
3,69,45,0
3,69,0,30
3,36,0,0
3,39,0,0
3,42,0,0
3,39,57,0
3,42,50,0
3,69,35,0
3,69,0,30
3,42,0,0
3,39,0,0
3,39,47,0
3,42,65,0
3,69,25,0
3,69,0,30
3,42,0,0
3,39,0,0
3,36,127,0
3,42,80,0
3,69,25,0
3,69,0,30
3,42,0,0
3,39,57,0
3,42,30,0
3,69,45,0
3,69,0,30
3,36,0,0
3,39,0,0
3,42,0,0
3,39,47,0
3,42,50,0
3,69,35,0
3,69,0,30
3,42,0,0
3,39,0,0
3,42,65,0
3,69,25,0
3,69,0,30
3,42,0,0
3,36,127,0
3,39,110,0
3,42,80,0
3,69,25,0
3,69,0,30
3,42,0,0
3,42,30,0
3,69,45,0
3,69,0,30
3,36,0,0
3,39,0,0
3,42,0,0
3,39,57,0
3,42,50,0
3,69,35,0
3,69,0,30
3,42,0,0
3,39,0,0
3,39,47,0
3,42,65,0
3,69,25,0
3,69,0,30
3,42,0,0
3,39,0,0
3,36,127,0
3,42,80,0
3,69,25,0
3,69,0,30
3,42,0,0
3,39,57,0
3,42,30,0
3,69,45,0
3,69,0,30
3,36,0,0
3,39,0,0
3,42,0,0
3,39,47,0
3,42,50,0
3,69,35,0
3,69,0,30
3,42,0,0
3,39,0,0
3,42,65,0
3,69,25,0
3,69,0,30
3,42,0,0
3,36,127,0
3,39,110,0
3,42,80,0
3,69,25,0
3,69,0,30
3,42,0,0
3,42,30,0
3,69,45,0
3,69,0,30
3,36,0,0
3,39,0,0
3,42,0,0
3,39,57,0
3,42,50,0
3,69,35,0
3,69,0,30
3,42,0,0
3,39,0,0
3,39,47,0
3,42,65,0
3,69,25,0
3,69,0,30
3,42,0,0
3,39,0,0
3,36,127,0
3,42,80,0
3,69,25,0
3,69,0,30
3,42,0,0
3,39,57,0
3,42,30,0
3,69,45,0
3,69,0,30
3,36,0,0
3,39,0,0
3,42,0,0
3,39,47,0
3,46,80,0
3,69,35,0
3,69,0,30
3,39,0,0
3,69,25,0
3,69,0,30
3,46,0,0
3,36,127,0
3,39,110,0
3,42,80,0
3,69,25,0
3,69,0,30
3,42,0,0
3,42,30,0
3,69,45,0
3,69,0,30
3,36,0,0
3,39,0,0
3,42,0,0
3,39,57,0
3,46,80,0
3,69,35,0
3,69,0,30
3,39,0,0
3,39,47,0
