track,note,velocity,time
1,67,56,241
1,67,0,120
1,72,60,0
1,72,0,120
1,76,63,0
1,76,0,108
1,67,50,12
1,67,0,120
1,72,47,0
1,72,0,120
1,76,47,0
1,76,0,120
1,67,56,240
1,67,0,120
1,72,60,0
1,72,0,120
1,76,62,0
1,76,0,108
1,67,50,12
1,67,0,120
1,72,48,0
1,72,0,120
1,76,48,0
1,76,0,1
1,69,56,240
1,69,0,120
1,74,60,0
1,74,0,120
1,77,65,0
1,77,0,108
1,69,51,12
1,69,0,120
1,74,50,0
1,74,0,120
1,77,50,0
1,77,0,120
1,69,58,240
1,69,0,120
1,74,60,0
1,74,0,120
1,77,65,0
1,77,0,108
1,69,52,12
1,69,0,120
1,74,50,0
1,74,0,120
1,77,50,0
1,77,0,1
1,67,56,240
1,67,0,120
1,74,60,0
1,74,0,120
1,77,65,0
1,77,0,108
1,67,51,12
1,67,0,120
1,74,50,0
1,74,0,120
1,77,50,0
1,77,0,120
1,67,56,240
1,67,0,120
1,74,60,0
1,74,0,120
1,77,65,0
1,77,0,108
1,67,52,12
1,67,0,120
1,74,50,0
1,74,0,120
1,77,50,0
1,77,0,1
1,67,53,240
1,67,0,120
1,72,55,0
1,72,0,120
1,76,60,0
1,76,0,108
1,67,50,12
1,67,0,120
1,72,47,0
1,72,0,120
1,76,47,0
1,76,0,120
1,67,55,240
1,67,0,120
1,72,57,0
1,72,0,120
1,76,61,0
1,76,0,108
1,67,50,12
1,67,0,120
1,72,48,0
1,72,0,120
1,76,48,0
1,76,0,1
1,69,61,240
1,69,0,120
1,76,66,0
1,76,0,120
1,81,70,0
1,81,0,108
1,69,55,12
1,69,0,120
1,76,51,0
1,76,0,120
1,81,51,0
1,81,0,120
1,69,61,240
1,69,0,120
1,76,65,0
1,76,0,120
1,81,68,0
1,81,0,108
1,69,55,12
1,69,0,120
1,76,52,0
1,76,0,120
1,81,52,0
1,81,0,1
1,66,56,240
1,66,0,120
1,69,60,0
1,69,0,120
1,74,63,0
1,74,0,108
1,66,50,12
1,66,0,120
1,69,47,0
1,69,0,120
1,74,47,0
1,74,0,120
1,66,56,240
1,66,0,120
1,69,60,0
1,69,0,120
1,74,62,0
1,74,0,108
1,66,50,12
1,66,0,120
1,69,48,0
1,69,0,120
1,74,48,0
1,74,0,1
1,67,58,240
1,67,0,120
1,74,63,0
1,74,0,120
1,79,66,0
1,79,0,108
1,67,51,12
1,67,0,120
1,74,50,0
1,74,0,120
1,79,50,0
1,79,0,120
1,67,58,240
1,67,0,120
1,74,62,0
1,74,0,120
1,79,65,0
1,79,0,108
1,67,52,12
1,67,0,120
1,74,50,0
1,74,0,120
1,79,50,0
1,79,0,1
1,64,56,240
1,64,0,120
1,67,60,0
1,67,0,120
1,72,63,0
1,72,0,108
1,64,50,12
1,64,0,120
1,67,47,0
1,67,0,120
1,72,47,0
1,72,0,120
1,64,56,240
1,64,0,120
1,67,60,0
1,67,0,120
1,72,62,0
1,72,0,108
1,64,50,12
1,64,0,120
1,67,48,0
1,67,0,120
1,72,48,0
1,72,0,1
1,64,56,240
1,64,0,120
1,67,60,0
1,67,0,120
1,72,63,0
1,72,0,108
1,64,50,12
1,64,0,120
1,67,47,0
1,67,0,120
1,72,47,0
1,72,0,120
1,64,56,240
1,64,0,120
1,67,60,0
1,67,0,120
1,72,62,0
1,72,0,108
1,64,50,12
1,64,0,120
1,67,48,0
1,67,0,120
1,72,48,0
1,72,0,1
1,62,56,240
1,62,0,120
1,66,60,0
1,66,0,120
1,72,63,0
1,72,0,108
1,62,50,12
1,62,0,120
1,66,47,0
1,66,0,120
1,72,47,0
1,72,0,120
1,62,56,240
1,62,0,120
1,66,60,0
1,66,0,120
1,72,62,0
1,72,0,108
1,62,50,12
1,62,0,120
1,66,48,0
1,66,0,120
1,72,48,0
1,72,0,1
1,62,53,240
1,62,0,120
1,67,56,0
1,67,0,120
1,71,60,0
1,71,0,108
1,62,46,12
1,62,0,120
1,67,45,0
1,67,0,120
1,71,45,0
1,71,0,120
1,62,53,240
1,62,0,120
1,67,56,0
1,67,0,120
1,71,58,0
1,71,0,108
1,62,47,12
1,62,0,120
1,67,45,0
1,67,0,120
1,71,45,0
1,71,0,1
1,64,53,240
1,64,0,120
1,67,56,0
1,67,0,120
1,73,60,0
1,73,0,108
1,64,46,12
1,64,0,120
1,67,45,0
1,67,0,120
1,73,45,0
1,73,0,120
1,64,53,240
1,64,0,120
1,67,56,0
1,67,0,120
1,73,58,0
1,73,0,108
1,64,47,12
1,64,0,120
1,67,45,0
1,67,0,120
1,73,45,0
1,73,0,1
1,62,56,240
1,62,0,120
1,69,60,0
1,69,0,120
1,74,63,0
1,74,0,108
1,62,50,12
1,62,0,120
1,69,47,0
1,69,0,120
1,74,47,0
1,74,0,120
1,62,56,240
1,62,0,120
1,69,60,0
1,69,0,120
1,74,62,0
1,74,0,108
1,62,50,12
1,62,0,120
1,69,48,0
1,69,0,120
1,74,48,0
1,74,0,1
1,62,53,240
1,62,0,120
1,65,56,0
1,65,0,120
1,71,60,0
1,71,0,108
1,62,46,12
1,62,0,120
1,65,45,0
1,65,0,120
1,71,45,0
1,71,0,120
1,62,53,240
1,62,0,120
1,65,56,0
1,65,0,120
1,71,58,0
1,71,0,108
1,62,47,12
1,62,0,120
1,65,45,0
1,65,0,120
1,71,45,0
1,71,0,1
1,60,53,240
1,60,0,120
1,67,56,0
1,67,0,120
1,72,60,0
1,72,0,108
1,60,46,12
1,60,0,120
1,67,45,0
1,67,0,120
1,72,45,0
1,72,0,120
1,60,53,240
1,60,0,120
1,67,56,0
1,67,0,120
1,72,58,0
1,72,0,108
1,60,47,12
1,60,0,120
1,67,45,0
1,67,0,120
1,72,45,0
1,72,0,1
1,57,50,240
1,57,0,120
1,60,53,0
1,60,0,120
1,65,56,0
1,65,0,108
1,57,45,12
1,57,0,120
1,60,42,0
1,60,0,120
1,65,42,0
1,65,0,120
1,57,50,240
1,57,0,120
1,60,53,0
1,60,0,120
1,65,55,0
1,65,0,108
1,57,45,12
1,57,0,120
1,60,43,0
1,60,0,120
1,65,43,0
1,65,0,1
1,57,50,240
1,57,0,120
1,60,53,0
1,60,0,120
1,65,56,0
1,65,0,108
1,57,45,12
1,57,0,120
1,60,42,0
1,60,0,120
1,65,42,0
1,65,0,120
1,57,50,240
1,57,0,120
1,60,53,0
1,60,0,120
1,65,55,0
1,65,0,108
1,57,45,12
1,57,0,120
1,60,43,0
1,60,0,120
1,65,43,0
1,65,0,1
1,55,50,240
1,55,0,120
1,59,53,0
1,59,0,120
1,65,56,0
1,65,0,108
1,55,45,12
1,55,0,120
1,59,42,0
1,59,0,120
1,65,42,0
1,65,0,120
1,55,50,240
1,55,0,120
1,59,53,0
1,59,0,120
1,65,55,0
1,65,0,108
1,55,45,12
1,55,0,120
1,59,43,0
1,59,0,120
1,65,43,0
1,65,0,1
1,55,50,240
1,55,0,120
1,60,53,0
1,60,0,120
1,64,56,0
1,64,0,108
1,55,45,12
1,55,0,120
1,60,42,0
1,60,0,120
1,64,42,0
1,64,0,120
1,55,50,240
1,55,0,120
1,60,53,0
1,60,0,120
1,64,55,0
1,64,0,108
1,55,45,12
1,55,0,120
1,60,43,0
1,60,0,120
1,64,43,0
1,64,0,1
1,58,47,240
1,58,0,120
1,60,50,0
1,60,0,120
1,64,53,0
1,64,0,108
1,58,41,12
1,58,0,120
1,60,40,0
1,60,0,120
1,64,40,0
1,64,0,120
1,58,47,240
1,58,0,120
1,60,50,0
1,60,0,120
1,64,52,0
1,64,0,108
1,58,42,12
1,58,0,120
1,60,40,0
1,60,0,120
1,64,40,0
1,64,0,1
1,57,47,240
1,57,0,120
1,60,50,0
1,60,0,120
1,64,53,0
1,64,0,108
1,57,41,12
1,57,0,120
1,60,40,0
1,60,0,120
1,64,40,0
1,64,0,120
1,57,47,240
1,57,0,120
1,60,50,0
1,60,0,120
1,64,52,0
1,64,0,108
1,57,42,12
1,57,0,120
1,60,40,0
1,60,0,120
1,64,40,0
1,64,0,1
1,57,50,240
1,57,0,120
1,60,53,0
1,60,0,120
1,63,56,0
1,63,0,108
1,57,45,12
1,57,0,120
1,60,42,0
1,60,0,120
1,63,42,0
1,63,0,120
1,57,50,240
1,57,0,120
1,60,53,0
1,60,0,120
1,63,55,0
1,63,0,108
1,57,45,12
1,57,0,120
1,60,43,0
1,60,0,120
1,63,43,0
1,63,0,1
1,59,47,240
1,59,0,120
1,60,50,0
1,60,0,120
1,62,53,0
1,62,0,108
1,59,41,12
1,59,0,120
1,60,40,0
1,60,0,120
1,62,40,0
1,62,0,120
1,59,47,240
1,59,0,120
1,60,50,0
1,60,0,120
1,62,52,0
1,62,0,108
1,59,42,12
1,59,0,120
1,60,40,0
1,60,0,120
1,62,40,0
1,62,0,1
1,55,50,240
1,55,0,120
1,59,53,0
1,59,0,120
1,62,56,0
1,62,0,108
1,55,45,12
1,55,0,120
1,59,42,0
1,59,0,120
1,62,42,0
1,62,0,120
1,55,50,240
1,55,0,120
1,59,53,0
1,59,0,120
1,62,55,0
1,62,0,108
1,55,45,12
1,55,0,120
1,59,43,0
1,59,0,120
1,62,43,0
1,62,0,1
1,55,50,240
1,55,0,120
1,60,53,0
1,60,0,120
1,64,56,0
1,64,0,108
1,55,45,12
1,55,0,120
1,60,42,0
1,60,0,120
1,64,42,0
1,64,0,120
1,55,50,240
1,55,0,120
1,60,53,0
1,60,0,120
1,64,55,0
1,64,0,108
1,55,45,12
1,55,0,120
1,60,43,0
1,60,0,120
1,64,43,0
1,64,0,1
1,55,53,240
1,55,0,120
1,60,56,0
1,60,0,120
1,65,60,0
1,65,0,108
1,55,46,12
1,55,0,120
1,60,45,0
1,60,0,120
1,65,45,0
1,65,0,120
1,55,53,240
1,55,0,120
1,60,56,0
1,60,0,120
1,65,58,0
1,65,0,108
1,55,47,12
1,55,0,120
1,60,45,0
1,60,0,120
1,65,45,0
1,65,0,1
1,55,53,240
1,55,0,120
1,59,56,0
1,59,0,120
1,65,60,0
1,65,0,108
1,55,46,12
1,55,0,120
1,59,45,0
1,59,0,120
1,65,45,0
1,65,0,120
1,55,53,240
1,55,0,120
1,59,56,0
1,59,0,120
1,65,58,0
1,65,0,108
1,55,47,12
1,55,0,120
1,59,45,0
1,59,0,120
1,65,45,0
1,65,0,1
1,57,56,240
1,57,0,120
1,60,60,0
1,60,0,120
1,66,63,0
1,66,0,108
1,57,50,12
1,57,0,120
1,60,47,0
1,60,0,120
1,66,47,0
1,66,0,120
1,57,56,240
1,57,0,120
1,60,60,0
1,60,0,120
1,66,62,0
1,66,0,108
1,57,50,12
1,57,0,120
1,60,48,0
1,60,0,120
1,66,48,0
1,66,0,1
1,55,58,240
1,55,0,120
1,60,63,0
1,60,0,120
1,67,66,0
1,67,0,108
1,55,51,12
1,55,0,120
1,60,50,0
1,60,0,120
1,67,50,0
1,67,0,120
1,55,58,240
1,55,0,120
1,60,62,0
1,60,0,120
1,67,65,0
1,67,0,108
1,55,52,12
1,55,0,120
1,60,50,0
1,60,0,120
1,67,50,0
1,67,0,1
1,55,50,240
1,55,0,120
1,60,53,0
1,60,0,120
1,65,56,0
1,65,0,108
1,55,45,12
1,55,0,120
1,60,42,0
1,60,0,120
1,65,42,0
1,65,0,120
1,55,50,240
1,55,0,120
1,60,53,0
1,60,0,120
1,65,55,0
1,65,0,108
1,55,45,12
1,55,0,120
1,60,43,0
1,60,0,120
1,65,43,0
1,65,0,1
1,55,50,240
1,55,0,120
1,59,53,0
1,59,0,120
1,65,56,0
1,65,0,108
1,55,45,12
1,55,0,120
1,59,42,0
1,59,0,120
1,65,42,0
1,65,0,120
1,55,50,240
1,55,0,120
1,59,53,0
1,59,0,120
1,65,55,0
1,65,0,108
1,55,45,12
1,55,0,120
1,59,43,0
1,59,0,120
1,65,43,0
1,65,0,1
1,55,53,240
1,55,0,120
1,58,56,0
1,58,0,120
1,64,60,0
1,64,0,108
1,55,46,12
1,55,0,120
1,58,45,0
1,58,0,120
1,64,45,0
1,64,0,120
1,55,53,240
1,55,0,120
1,58,56,0
1,58,0,120
1,64,58,0
1,64,0,108
1,55,47,12
1,55,0,120
1,58,45,0
1,58,0,120
1,64,45,0
1,64,0,120
1,53,50,239
1,53,0,120
1,57,53,0
1,57,0,120
1,60,55,0
1,60,0,120
1,65,53,0
1,65,0,120
1,60,53,0
1,60,0,120
1,57,53,0
1,57,0,120
1,60,55,0
1,60,0,120
1,57,50,0
1,57,0,120
1,53,47,0
1,53,0,120
1,57,46,0
1,57,0,120
1,53,46,0
1,53,0,120
1,50,42,0
1,50,0,120
1,53,43,0
1,53,0,120
1,50,38,0
1,50,0,120
1,67,50,240
1,67,0,120
1,71,53,0
1,71,0,120
1,74,55,0
1,74,0,120
1,77,60,0
1,77,0,120
1,74,55,0
1,74,0,120
1,71,53,0
1,71,0,120
1,74,56,0
1,74,0,120
1,71,53,0
1,71,0,120
1,67,56,0
1,67,0,120
1,71,53,0
1,71,0,120
1,62,55,0
1,62,0,120
1,65,50,0
1,65,0,120
1,64,50,0
1,64,0,120
1,62,50,0
1,62,0,120
1,72,50,1
1,67,50,0
1,64,50,0
1,64,0,1440
1,67,0,0
1,72,0,0
2,60,61,1
2,64,57,120
2,64,0,840
2,60,0,0
2,60,62,0
2,64,57,120
2,64,0,1
2,60,0,0
2,60,65,0
2,62,60,15
2,62,0,840
2,60,0,0
2,60,65,0
2,62,60,120
2,62,0,1
2,60,0,0
2,59,65,0
2,62,60,36
2,62,0,840
2,59,0,0
2,59,65,0
2,62,60,120
2,62,0,1
2,59,0,0
2,60,61,0
2,64,57,22
2,64,0,840
2,60,0,0
2,60,62,0
2,64,57,120
2,64,0,1
2,60,0,0
2,60,67,0
2,64,62,15
2,64,0,840
2,60,0,0
2,60,68,0
2,64,62,120
2,64,0,1
2,60,0,0
2,60,61,0
2,62,57,41
2,62,0,840
2,60,0,0
2,60,62,0
2,62,57,120
2,62,0,1
2,60,0,0
2,59,65,0
2,62,60,8
2,62,0,840
2,59,0,0
2,59,65,0
2,62,60,120
2,62,0,1
2,59,0,0
2,59,61,0
2,60,57,50
2,60,0,840
2,59,0,0
2,59,62,0
2,60,57,120
2,60,0,1
2,59,0,0
2,57,61,0
2,60,57,8
2,60,0,840
2,57,0,0
2,57,62,0
2,60,57,120
2,60,0,1
2,57,0,0
2,50,61,0
2,57,57,41
2,57,0,840
2,50,0,0
2,50,62,0
2,57,57,120
2,57,0,1
2,50,0,0
2,55,57,0
2,59,55,22
2,59,0,840
2,55,0,0
2,55,58,0
2,59,55,120
2,59,0,1
2,55,0,0
2,55,57,0
2,58,55,30
2,58,0,840
2,55,0,0
2,55,58,0
2,58,55,120
2,58,0,1
2,55,0,0
2,53,61,0
2,57,57,108
2,57,0,820
2,53,0,0
2,53,62,0
2,57,57,120
2,57,0,1
2,53,0,0
2,53,57,0
2,56,55,112
2,56,0,820
2,53,0,0
2,53,58,0
2,56,55,120
2,56,0,1
2,53,0,0
2,52,57,0
2,55,55,107
2,55,0,813
2,52,0,0
2,52,58,0
2,55,55,120
2,55,0,1
2,52,0,0
2,52,55,0
2,53,51,111
2,53,0,785
2,52,0,0
2,52,55,0
2,53,51,120
2,53,0,1
2,52,0,0
2,50,55,0
2,53,51,1
2,53,0,840
2,50,0,0
2,50,55,0
2,53,51,120
2,53,0,1
2,50,0,0
2,43,55,0
2,50,51,22
2,50,0,840
2,43,0,0
2,43,55,0
2,50,51,120
2,50,0,1
2,43,0,0
2,48,55,0
2,52,51,1
2,52,0,840
2,48,0,0
2,48,55,0
2,52,51,120
2,52,0,1
2,48,0,0
2,48,51,0
2,55,48,30
2,55,0,840
2,48,0,0
2,48,52,0
2,55,48,120
2,55,0,1
2,48,0,0
2,41,51,0
2,53,48,112
2,53,0,834
2,41,0,0
2,41,52,0
2,53,48,120
2,53,0,1
2,41,0,0
2,42,55,0
2,48,51,30
