track,note,velocity,time
1,67,40,0
1,67,0,480
1,62,32,0
1,62,0,480
1,67,38,0
1,67,0,480
1,62,30,0
1,62,0,480
1,67,37,0
1,67,0,160
1,66,33,0
1,62,28,80
1,66,0,80
1,67,35,0
1,67,0,160
1,62,0,0
1,64,28,0
1,69,39,0
1,69,0,160
1,71,32,0
1,64,0,80
1,66,23,0
1,71,0,80
1,69,32,0
1,69,0,160
1,66,0,0
1,67,38,0
1,67,0,480
1,62,34,0
1,62,0,360
1,66,33,0
1,71,36,60
1,74,38,60
1,71,0,480
1,66,0,0
1,69,33,0
1,62,28,0
1,62,0,360
1,69,0,0
1,66,33,0
1,71,36,60
1,74,0,60
1,74,38,0
1,71,0,480
1,66,0,0
1,69,33,0
1,62,28,0
1,62,0,360
1,69,0,0
1,66,33,0
1,71,36,60
1,74,0,60
1,74,38,0
1,74,0,160
1,71,0,0
1,66,0,0
1,62,26,0
1,69,31,0
1,69,0,160
1,62,0,0
1,74,31,0
1,66,23,0
1,66,0,160
1,74,0,0
1,76,41,0
1,67,31,0
1,67,0,160
1,76,0,0
1,72,27,0
1,78,36,0
1,78,0,160
1,72,0,0
1,67,24,0
1,76,32,0
1,67,0,40
1,76,0,40
1,66,33,0
1,71,36,40
1,74,38,40
1,71,0,480
1,66,0,0
1,69,33,0
1,62,28,0
1,62,0,360
1,69,0,0
1,76,38,60
1,74,0,60
1,79,44,0
1,79,0,480
1,76,0,0
1,74,34,0
1,67,28,0
1,76,38,420
1,67,0,60
1,74,0,0
1,79,44,0
1,79,0,480
1,76,0,0
1,74,34,0
1,67,28,0
1,67,0,420
1,74,0,0
1,76,34,0
1,79,37,60
1,79,0,160
1,76,0,0
1,67,28,0
1,74,33,0
1,67,0,120
1,74,0,40
1,79,40,0
1,79,0,160
1,76,28,0
1,81,44,0
1,81,0,160
1,83,39,0
1,76,0,80
1,78,23,0
1,83,0,80
1,81,38,0
1,81,0,100
1,76,38,0
1,78,0,60
1,79,44,0
1,79,0,480
1,76,0,0
1,74,34,0
1,67,28,0
1,81,36,360
1,83,41,60
1,67,0,60
1,74,0,0
1,86,52,0
1,81,0,480
1,79,33,0
1,74,28,0
1,74,0,360
1,83,0,0
1,86,0,0
1,79,0,0
1,82,36,0
1,86,41,60
1,88,52,60
1,86,0,480
1,82,0,0
1,85,33,0
1,76,28,0
1,76,0,360
1,85,0,0
1,88,0,0
1,84,36,0
1,88,42,60
1,90,52,60
1,88,0,480
1,84,0,0
1,86,33,0
1,78,28,0
1,78,0,360
1,86,0,0
1,90,0,0
1,83,41,0
1,86,44,60
1,91,48,60
1,86,0,480
1,83,0,0
1,79,33,0
1,79,0,420
1,91,0,60
1,67,36,0
1,67,0,480
1,62,28,0
1,62,0,480
1,67,34,0
1,67,0,480
1,62,27,0
1,62,0,480
1,67,33,0
1,67,0,160
1,66,29,0
1,62,25,80
1,66,0,80
1,67,31,0
1,67,0,160
1,62,0,0
1,64,25,0
1,69,35,0
1,69,0,160
1,71,28,0
1,64,0,80
1,66,20,0
1,71,0,80
1,69,28,0
1,69,0,160
1,66,0,0
1,67,34,0
1,67,0,480
1,62,30,0
1,62,0,360
1,66,29,0
1,71,32,60
1,74,34,60
1,71,0,480
1,66,0,0
1,69,29,0
1,62,25,0
1,62,0,360
1,69,0,0
1,66,33,0
1,71,36,60
1,74,0,60
1,74,38,0
1,71,0,480
1,66,0,0
1,69,33,0
1,62,28,0
1,62,0,360
1,69,0,0
1,66,33,0
1,71,36,60
1,74,0,60
1,74,38,0
1,74,0,160
1,71,0,0
1,66,0,0
1,62,26,0
1,69,31,0
1,69,0,160
1,62,0,0
1,74,31,0
1,66,23,0
1,66,0,160
1,74,0,0
1,76,41,0
1,67,31,0
1,67,0,160
1,76,0,0
1,72,27,0
1,78,36,0
1,78,0,160
1,72,0,0
1,67,24,0
1,76,32,0
1,67,0,40
1,76,0,40
1,66,33,0
1,71,36,40
1,74,38,40
1,71,0,480
1,66,0,0
1,69,33,0
1,62,28,0
1,62,0,360
1,69,0,0
1,76,38,60
1,74,0,60
1,79,44,0
1,79,0,480
1,76,0,0
1,74,34,0
1,67,28,0
1,76,38,420
1,67,0,60
1,74,0,0
1,79,44,0
1,79,0,480
1,76,0,0
1,74,34,0
1,67,28,0
1,67,0,420
1,74,0,0
1,76,34,0
1,79,37,60
1,79,0,160
1,76,0,0
1,67,28,0
1,74,33,0
1,67,0,120
1,74,0,40
1,79,40,0
1,79,0,160
1,76,28,0
1,81,44,0
1,81,0,160
1,83,39,0
1,76,0,80
1,78,23,0
1,83,0,80
1,81,38,0
1,81,0,100
1,76,38,0
1,78,0,60
1,79,44,0
1,79,0,480
1,76,0,0
1,74,34,0
1,67,28,0
1,81,36,360
1,83,41,60
1,67,0,60
1,74,0,0
1,86,52,0
1,81,0,480
1,79,33,0
1,74,28,0
1,74,0,360
1,83,0,0
1,86,0,0
1,79,0,0
1,82,36,0
1,86,41,60
1,88,52,60
1,86,0,480
1,82,0,0
1,85,33,0
1,76,28,0
1,76,0,360
1,85,0,0
1,88,0,0
1,84,36,0
1,88,42,60
1,90,52,60
1,88,0,480
1,84,0,0
1,86,33,0
1,78,28,0
1,78,0,360
1,86,0,0
1,90,0,0
1,83,41,0
1,86,44,60
1,91,48,60
1,86,0,480
1,83,0,0
1,79,33,0
1,79,0,420
1,91,0,60
1,67,42,0
1,58,35,0
1,58,0,60
1,67,0,0
1,66,39,180
1,58,33,0
1,66,0,120
1,67,35,0
1,67,0,120
1,58,0,0
1,69,46,0
1,66,39,0
1,60,39,0
1,69,0,360
1,70,38,0
1,70,0,120
1,60,0,0
1,66,0,0
1,67,42,0
1,58,35,0
1,58,0,60
1,67,0,0
1,66,39,180
1,58,33,0
1,66,0,120
1,67,35,0
1,67,0,120
1,58,0,0
1,69,46,0
1,66,39,0
1,60,39,0
1,69,0,360
1,70,38,0
1,70,0,120
1,60,0,0
1,66,0,0
1,67,42,0
1,58,35,0
1,58,0,60
1,67,0,0
1,66,36,180
1,69,42,0
1,60,36,0
1,69,0,120
1,70,38,0
1,70,0,120
1,60,0,0
1,66,0,0
1,67,47,0
1,58,39,0
1,58,0,60
1,67,0,0
1,66,48,180
1,69,48,0
1,60,40,0
1,69,0,120
1,70,44,0
1,70,0,120
1,60,0,0
1,66,0,0
1,67,53,0
1,58,44,0
1,58,0,60
1,67,0,0
1,66,45,180
1,69,54,0
1,60,45,0
1,69,0,120
1,70,49,0
1,70,0,120
1,60,0,0
1,66,0,0
1,67,59,0
1,58,49,0
1,58,0,60
1,67,0,0
1,66,49,180
1,69,66,0
1,60,49,0
1,69,0,120
1,70,61,0
1,70,0,120
1,60,0,0
1,66,0,0
1,58,56,0
1,67,66,0
1,67,0,480
1,69,62,0
1,69,0,240
1,70,57,0
1,70,0,120
1,69,45,0
1,69,0,60
1,70,45,0
1,70,0,60
1,58,0,0
1,58,42,0
1,69,58,0
1,69,0,480
1,67,48,0
1,67,0,240
1,65,41,0
1,65,0,240
1,58,0,0
1,58,29,0
1,62,35,0
1,62,0,480
1,62,27,0
1,62,0,960
1,58,0,0
1,70,42,480
1,61,35,0
1,61,0,60
1,70,0,0
1,69,39,180
1,61,33,0
1,69,0,120
1,70,35,0
1,70,0,120
1,61,0,0
1,72,46,0
1,69,39,0
1,63,39,0
1,72,0,360
1,73,38,0
1,73,0,120
1,63,0,0
1,69,0,0
1,70,42,0
1,61,35,0
1,61,0,60
1,70,0,0
1,69,39,180
1,61,33,0
1,69,0,120
1,70,35,0
1,70,0,120
1,61,0,0
1,72,46,0
1,69,39,0
1,63,39,0
1,72,0,360
1,73,38,0
1,73,0,120
1,63,0,0
1,69,0,0
1,70,42,0
1,61,35,0
1,61,0,60
1,70,0,0
1,69,36,180
1,72,42,0
1,63,36,0
1,72,0,120
1,73,38,0
1,73,0,120
1,63,0,0
1,69,0,0
1,70,47,0
1,61,39,0
1,61,0,60
1,70,0,0
1,69,48,180
1,72,48,0
1,63,40,0
1,72,0,120
1,73,44,0
1,73,0,120
1,63,0,0
1,69,0,0
1,70,53,0
1,61,44,0
1,61,0,60
1,70,0,0
1,69,45,180
1,72,54,0
1,63,45,0
1,72,0,120
1,73,49,0
1,73,0,120
1,63,0,0
1,69,0,0
1,70,59,0
1,61,49,0
1,61,0,60
1,70,0,0
1,69,49,180
1,72,66,0
1,63,49,0
1,72,0,120
1,73,61,0
1,73,0,120
1,63,0,0
1,69,0,0
1,61,56,0
1,70,66,0
1,70,0,480
1,72,62,0
1,72,0,240
1,73,57,0
1,73,0,120
1,72,45,0
1,72,0,60
1,73,45,0
1,73,0,60
1,61,0,0
1,61,42,0
1,72,58,0
1,72,0,480
1,70,48,0
1,70,0,240
1,68,41,0
1,68,0,240
1,61,0,0
1,61,29,0
1,65,35,0
1,65,0,480
1,65,27,0
1,65,0,960
1,61,0,0
1,64,35,1440
1,64,0,480
1,64,27,0
1,64,0,960
1,76,36,480
1,76,0,480
1,69,28,0
1,69,0,480
1,76,34,0
1,76,0,480
1,69,27,0
1,69,0,480
1,76,33,0
1,76,0,160
1,69,29,0
1,69,0,160
1,76,31,0
1,76,0,160
1,77,35,0
1,77,0,160
1,79,28,0
1,79,0,160
1,77,28,0
1,77,0,160
1,76,34,0
1,76,0,480
1,69,30,0
1,69,0,360
1,73,29,0
1,77,32,60
1,81,34,60
1,77,0,480
1,73,0,0
1,76,29,0
1,69,25,0
1,69,0,360
1,76,0,0
1,73,33,0
1,77,36,60
1,81,0,60
1,81,38,0
1,77,0,480
1,73,0,0
1,76,33,0
1,69,28,0
1,69,0,480
1,76,0,0
1,81,0,0
1,73,36,0
1,81,38,0
1,81,0,160
1,73,0,0
1,69,26,0
1,76,31,0
1,76,0,160
1,69,0,0
1,81,31,0
1,73,23,0
1,73,0,160
1,81,0,0
1,82,41,0
1,74,31,0
1,74,0,160
1,82,0,0
1,79,27,0
1,84,36,0
1,84,0,160
1,79,0,0
1,74,24,0
1,82,32,0
1,74,0,40
1,82,0,40
1,73,33,0
1,77,36,40
1,81,38,40
1,77,0,480
1,73,0,0
1,76,33,0
1,69,28,0
1,69,0,480
1,76,0,0
1,81,0,0
1,75,41,0
1,82,43,0
1,82,0,160
1,75,0,0
1,70,29,0
1,79,35,0
1,79,0,160
1,70,0,0
1,82,35,0
1,75,26,0
1,75,0,160
1,82,0,0
1,84,47,0
1,79,35,0
1,79,0,160
1,84,0,0
1,82,31,0
1,86,41,0
1,86,0,160
1,82,0,0
1,79,27,0
1,84,36,0
1,79,0,40
1,84,0,40
1,77,37,0
1,82,43,80
1,77,0,480
1,75,37,0
1,70,32,0
1,70,0,480
1,75,0,0
1,82,0,0
1,75,47,0
1,84,49,0
1,84,0,160
1,75,0,0
1,72,33,0
1,79,40,0
1,79,0,160
1,72,0,0
1,84,40,0
1,75,29,0
1,75,0,160
1,84,0,0
1,87,54,0
1,79,40,0
1,79,0,160
1,87,0,0
1,84,35,0
1,89,47,0
1,89,0,160
1,84,0,0
1,79,31,0
1,87,41,0
1,79,0,40
1,87,0,40
1,75,42,0
1,84,56,80
1,75,0,480
1,72,45,0
1,79,45,0
1,79,0,420
1,72,0,0
1,84,51,0
1,84,0,60
1,90,66,0
1,90,0,480
1,84,0,0
1,87,64,0
1,78,54,0
1,78,0,420
1,87,0,0
1,84,51,0
1,90,66,60
1,90,0,480
1,84,0,0
1,87,65,0
1,78,55,0
1,78,0,420
1,87,0,0
1,84,51,0
1,90,69,60
1,90,0,240
1,84,0,0
1,87,65,0
1,78,54,0
1,78,0,240
1,87,0,0
1,90,73,0
1,84,62,0
1,84,0,240
1,90,0,0
1,87,70,0
1,78,59,0
1,78,0,240
1,87,0,0
1,90,76,0
1,84,64,0
1,84,0,240
1,90,0,0
1,78,54,0
1,87,63,0
1,87,0,240
1,78,0,0
1,90,80,0
1,84,68,0
1,84,0,240
1,90,0,0
1,87,72,0
1,78,61,0
1,78,0,180
1,87,0,0
1,84,46,0
1,84,0,60
1,91,64,0
1,91,0,480
1,79,60,0
1,79,0,400
1,79,48,20
1,79,0,60
1,86,62,0
1,86,0,480
1,74,54,0
1,74,0,400
1,74,40,20
1,74,0,60
1,79,52,0
1,79,0,480
1,67,45,0
1,67,0,400
1,67,32,20
1,67,0,60
1,74,41,0
1,74,0,480
1,62,29,0
1,62,0,400
1,62,29,20
1,62,0,60
1,67,35,0
1,67,0,480
1,62,26,0
1,62,0,480
1,67,35,0
1,67,0,480
1,62,27,0
1,62,0,480
1,67,37,0
1,67,0,160
1,66,33,0
1,62,28,80
1,66,0,80
1,67,35,0
1,67,0,160
1,62,0,0
1,64,28,0
1,69,39,0
1,69,0,160
1,71,32,0
1,64,0,80
1,66,23,0
1,71,0,80
1,69,32,0
1,69,0,160
1,66,0,0
1,67,38,0
1,67,0,480
1,62,34,0
1,62,0,360
1,66,33,0
1,71,36,60
1,74,38,60
1,71,0,480
1,66,0,0
1,69,33,0
1,62,28,0
1,62,0,360
1,69,0,0
1,66,33,0
1,71,36,60
1,74,0,60
1,74,38,0
1,71,0,480
1,66,0,0
1,69,33,0
1,62,28,0
1,62,0,360
1,69,0,0
1,66,33,0
1,71,36,60
1,74,0,60
1,74,38,0
1,74,0,160
1,71,0,0
1,66,0,0
1,62,26,0
1,69,31,0
1,69,0,160
1,62,0,0
1,74,31,0
1,66,23,0
1,66,0,160
1,74,0,0
1,76,41,0
1,67,31,0
1,67,0,160
1,76,0,0
1,72,27,0
1,78,36,0
1,78,0,160
1,72,0,0
1,67,24,0
1,76,32,0
1,67,0,40
1,76,0,40
1,66,33,0
1,71,36,40
1,74,38,40
1,71,0,480
1,66,0,0
1,69,33,0
1,62,28,0
1,62,0,360
1,69,0,0
1,76,38,60
1,74,0,60
1,79,44,0
1,79,0,480
1,76,0,0
1,74,34,0
1,67,28,0
1,76,38,420
1,67,0,60
1,74,0,0
1,79,44,0
1,79,0,480
1,76,0,0
1,74,34,0
1,67,28,0
1,67,0,420
1,74,0,0
1,76,34,0
1,79,37,60
1,79,0,160
1,76,0,0
1,67,28,0
1,74,33,0
1,67,0,120
1,74,0,40
1,79,40,0
1,79,0,160
1,76,28,0
1,81,44,0
1,81,0,160
1,83,39,0
1,76,0,80
1,78,23,0
1,83,0,80
1,81,38,0
1,81,0,100
1,76,38,0
1,78,0,60
1,79,44,0
1,79,0,480
1,76,0,0
1,74,34,0
1,67,28,0
1,81,36,360
1,83,41,60
1,67,0,60
1,74,0,0
1,86,52,0
1,81,0,480
1,79,33,0
1,74,28,0
1,74,0,360
1,83,0,0
1,86,0,0
1,79,0,0
1,82,36,0
1,86,41,60
1,88,52,60
1,86,0,480
1,82,0,0
1,85,33,0
1,76,28,0
1,76,0,360
1,85,0,0
1,88,0,0
1,84,32,0
1,88,37,60
1,90,46,60
1,88,0,480
1,84,0,0
1,86,29,0
1,78,25,0
1,78,0,360
1,86,0,0
1,90,0,0
1,83,32,0
1,86,35,60
1,91,38,60
1,86,0,480
1,83,0,0
1,79,26,0
1,79,0,420
1,91,0,60
2,43,28,0
2,43,0,240
2,59,20,0
2,50,17,0
2,50,0,480
2,59,0,0
2,59,20,0
2,50,17,0
2,50,0,240
2,59,0,0
2,43,28,0
2,43,0,240
2,59,21,0
2,50,17,0
2,50,0,480
2,59,0,0
2,59,21,0
2,50,17,0
2,50,0,240
2,59,0,0
2,43,28,0
2,43,0,240
2,59,24,0
2,50,20,0
2,50,0,480
2,59,0,0
2,60,23,0
2,50,19,0
2,50,0,240
2,60,0,0
2,43,28,0
2,43,0,240
2,59,24,0
2,50,20,0
2,50,0,480
2,59,0,0
2,59,24,0
2,50,20,0
2,50,0,120
2,59,0,0
2,43,28,120
2,43,0,240
2,60,24,0
2,50,20,0
2,50,0,480
2,60,0,0
2,60,23,0
2,50,19,0
2,50,0,120
2,60,0,0
2,43,28,120
2,43,0,240
2,60,24,0
2,50,20,0
2,50,0,480
2,60,0,0
