track,note,velocity,time
1,50,127,7688
1,50,0,47
1,62,127,64
1,62,0,31
1,62,127,35
1,62,0,88
1,60,127,81
1,60,0,46
1,62,127,71
1,62,0,99
1,65,127,268
1,65,0,44
1,55,127,78
1,55,0,88
1,62,127,856
1,62,0,59
1,74,127,65
1,74,0,52
1,74,127,67
1,74,0,54
1,72,127,67
1,72,0,50
1,74,127,80
1,74,0,119
1,77,127,230
1,77,0,42
1,77,127,83
1,77,0,43
1,76,127,70
1,76,0,135
1,74,127,96
1,74,0,44
1,74,127,74
1,74,0,157
1,76,127,87
1,76,0,106
1,62,127,122
1,62,0,66
1,74,127,61
1,74,0,49
1,74,127,77
1,74,0,66
1,72,127,67
1,72,0,33
1,74,127,37
1,74,0,96
1,77,127,300
1,77,0,47
1,67,127,79
1,67,0,63
1,62,127,902
1,62,0,47
1,74,127,71
1,74,0,47
1,74,127,74
1,74,0,60
1,72,127,60
1,72,0,28
1,74,127,38
1,74,0,114
1,77,127,301
1,77,0,40
1,77,127,78
1,77,0,52
1,76,127,80
1,76,0,146
1,74,127,83
1,74,0,45
1,74,127,82
1,74,0,143
1,76,127,92
1,76,0,121
1,65,127,107
1,65,0,38
1,77,127,72
1,77,0,45
1,77,127,84
1,77,0,52
1,76,127,71
1,76,0,29
1,77,127,43
1,77,0,81
1,81,127,328
1,81,0,49
1,74,127,76
1,74,0,79
1,65,127,896
1,65,0,52
1,77,127,67
1,77,0,50
1,77,127,74
1,77,0,105
1,77,127,58
1,77,0,144
1,81,127,274
1,81,0,42
1,81,127,80
1,81,0,41
1,79,127,83
1,79,0,40
1,79,127,80
1,79,0,42
1,77,127,82
1,77,0,38
1,77,127,87
1,77,0,156
1,76,127,81
1,76,0,119
1,62,127,117
1,62,0,55
1,74,127,69
1,74,0,39
1,74,127,69
1,74,0,51
1,72,127,82
1,72,0,22
1,74,127,35
1,74,0,92
1,77,127,304
1,77,0,48
1,67,127,84
1,67,0,63
1,62,127,907
1,62,0,43
1,74,127,67
1,74,0,46
1,74,127,77
1,74,0,52
1,72,127,68
1,72,0,46
1,74,127,76
1,74,0,127
1,77,127,248
1,77,0,42
1,77,127,76
1,77,0,43
1,76,127,73
1,76,0,147
1,74,127,81
1,74,0,44
1,74,127,81
1,74,0,151
1,76,127,91
1,76,0,172
1,65,127,669
1,65,0,38
1,67,127,80
1,67,0,37
1,69,127,73
1,69,0,28
1,65,127,45
1,65,0,91
1,62,127,94
1,62,0,145
1,65,127,308
1,65,0,42
1,67,127,82
1,67,0,44
1,65,127,82
1,65,0,29
1,67,127,38
1,67,0,125
1,65,127,71
1,65,0,39
1,67,127,70
1,67,0,49
1,65,127,70
1,65,0,30
1,67,127,36
1,67,0,97
1,65,127,86
1,65,0,36
1,67,127,75
1,67,0,43
1,69,127,70
1,69,0,30
1,65,127,45
1,65,0,91
1,62,127,109
1,62,0,106
1,65,127,350
1,65,0,39
1,67,127,69
1,67,0,48
1,65,127,74
1,65,0,28
1,67,127,34
1,67,0,118
1,65,127,66
1,65,0,38
1,67,127,74
1,67,0,50
1,65,127,76
1,65,0,26
1,67,127,37
1,67,0,106
1,69,127,73
1,69,0,38
1,67,127,86
1,67,0,34
1,69,127,84
1,69,0,23
1,65,127,38
1,65,0,67
1,62,127,117
1,62,0,38
1,74,127,84
1,74,0,84
1,65,127,251
1,65,0,40
1,67,127,83
1,67,0,36
1,65,127,79
1,65,0,29
1,67,127,47
1,67,0,102
1,65,127,68
1,65,0,38
1,67,127,81
1,67,0,47
1,65,127,80
1,65,0,27
1,67,127,40
1,67,0,100
1,69,127,89
1,69,0,33
1,67,127,79
1,67,0,38
1,69,127,81
1,69,0,24
1,65,127,39
1,65,0,73
1,62,127,105
1,62,0,34
1,74,127,87
1,74,0,78
1,65,127,262
1,65,0,37
1,67,127,92
1,67,0,36
1,65,127,89
1,65,0,26
1,67,127,50
1,67,0,97
1,50,127,904
1,50,0,46
1,62,127,72
1,62,0,40
1,62,127,84
1,62,0,42
1,60,127,77
1,60,0,32
1,62,127,90
1,62,0,91
1,65,127,259
1,65,0,42
1,55,127,84
1,55,0,57
1,50,127,909
1,50,0,49
1,62,127,69
1,62,0,45
1,62,127,71
1,62,0,48
1,60,127,74
1,60,0,29
1,62,127,41
1,62,0,110
1,65,127,292
1,65,0,48
1,65,127,78
1,65,0,47
1,64,127,67
1,64,0,169
1,62,127,69
1,62,0,42
1,62,127,82
1,62,0,144
1,64,127,99
1,64,0,99
1,50,127,147
1,50,0,40
1,62,127,80
1,62,0,36
1,62,127,82
1,62,0,37
1,60,127,80
1,60,0,27
1,62,127,44
1,62,0,59
1,65,127,351
1,65,0,37
1,55,127,90
1,55,0,52
1,50,127,899
1,50,0,42
1,62,127,78
1,62,0,39
1,62,127,79
1,62,0,49
1,60,127,75
1,60,0,24
1,62,127,39
1,62,0,98
1,65,127,318
1,65,0,45
1,65,127,82
1,65,0,43
1,64,127,74
1,64,0,119
1,62,127,110
1,62,0,38
1,62,127,83
1,62,0,150
1,64,127,92
1,64,0,88
1,53,127,141
1,53,0,41
1,65,127,87
1,65,0,39
1,65,127,93
1,65,0,43
1,64,127,85
1,64,0,22
1,65,127,41
1,65,0,60
1,69,127,344
1,69,0,41
1,62,127,84
1,62,0,70
1,53,127,908
1,53,0,37
1,65,127,72
1,65,0,40
1,65,127,74
1,65,0,49
1,64,127,74
1,64,0,41
1,65,127,81
1,65,0,78
1,69,127,284
1,69,0,39
1,69,127,82
1,69,0,42
1,67,127,76
1,67,0,132
1,65,127,96
1,65,0,37
1,65,127,85
1,65,0,152
1,64,127,80
1,64,0,97
1,62,127,153
1,62,0,34
1,65,127,78
1,65,0,36
1,65,127,89
1,65,0,40
1,64,127,88
1,64,0,21
1,65,127,35
1,65,0,90
1,69,127,327
1,69,0,36
1,62,127,94
1,62,0,45
1,53,127,908
1,53,0,37
1,65,127,78
1,65,0,37
1,65,127,86
1,65,0,43
1,64,127,70
1,64,0,26
1,65,127,41
1,65,0,93
1,69,127,327
1,69,0,38
1,69,127,82
1,69,0,37
1,67,127,79
1,67,0,137
1,65,127,86
1,65,0,41
1,65,127,91
1,65,0,135
1,64,127,104
1,64,0,178
1,65,127,665
1,65,0,40
1,67,127,77
1,67,0,43
1,69,127,74
1,69,0,30
1,65,127,43
1,65,0,104
1,62,127,87
1,62,0,87
1,65,127,373
1,65,0,38
1,67,127,80
1,67,0,41
1,65,127,81
1,65,0,30
1,67,127,44
1,67,0,112
1,65,127,68
1,65,0,39
1,67,127,83
1,67,0,52
1,65,127,69
1,65,0,34
1,67,127,26
1,67,0,107
1,65,127,83
1,65,0,36
1,67,127,73
1,67,0,41
1,69,127,76
1,69,0,28
1,65,127,37
1,65,0,115
1,62,127,83
1,62,0,68
1,65,127,386
1,65,0,37
1,67,127,80
1,67,0,37
1,65,127,84
1,65,0,26
1,67,127,42
1,67,0,112
1,65,127,69
1,65,0,40
1,67,127,79
1,67,0,41
1,65,127,83
1,65,0,24
1,67,127,42
1,67,0,77
1,69,127,103
1,69,0,32
1,67,127,80
1,67,0,39
1,69,127,73
1,69,0,26
1,65,127,37
1,65,0,94
1,62,127,85
1,62,0,31
1,74,127,77
1,74,0,83
1,65,127,276
1,65,0,36
1,67,127,90
1,67,0,39
1,65,127,88
1,65,0,25
1,67,127,44
1,67,0,105
1,65,127,62
1,65,0,42
1,67,127,76
1,67,0,43
1,65,127,85
1,65,0,26
1,67,127,39
1,67,0,90
1,69,127,80
1,69,0,33
1,67,127,83
1,67,0,36
1,69,127,89
1,69,0,20
1,65,127,49
1,65,0,93
1,62,127,71
1,62,0,38
1,74,127,88
1,74,0,68
1,65,127,279
1,65,0,36
1,67,127,91
1,67,0,37
1,65,127,83
1,65,0,31
1,67,127,43
1,67,0,131
1,65,127,514
1,65,0,45
1,67,127,71
1,67,0,42
1,69,127,85
1,69,0,31
1,65,127,45
1,65,0,114
1,62,127,78
1,62,0,129
1,65,127,318
1,65,0,41
1,67,127,95
1,67,0,39
1,65,127,85
1,65,0,27
1,67,127,41
1,67,0,96
1,65,127,68
1,65,0,39
1,67,127,89
1,67,0,39
1,65,127,82
1,65,0,27
1,67,127,41
1,67,0,80
1,65,127,94
1,65,0,38
1,67,127,79
1,67,0,38
1,69,127,78
1,69,0,30
1,65,127,43
1,65,0,80
1,62,127,103
1,62,0,111
1,65,127,351
1,65,0,24
1,67,127,105
1,67,0,41
1,65,127,72
1,65,0,29
1,67,127,45
1,67,0,71
1,65,127,85
1,65,0,43
1,67,127,84
1,67,0,39
1,65,127,84
1,65,0,23
1,67,127,32
1,67,0,62
1,69,127,131
1,69,0,30
1,67,127,86
1,67,0,38
1,69,127,79
1,69,0,27
1,65,127,36
1,65,0,64
1,62,127,115
1,62,0,36
1,74,127,85
1,74,0,54
1,65,127,289
1,65,0,40
1,67,127,78
1,67,0,39
1,65,127,79
1,65,0,28
1,67,127,44
1,67,0,103
1,65,127,89
1,65,0,34
1,67,127,79
1,67,0,39
1,65,127,84
1,65,0,29
1,67,127,37
1,67,0,67
1,69,127,115
1,69,0,34
1,67,127,80
1,67,0,44
1,69,127,68
1,69,0,32
1,65,127,28
1,65,0,91
1,62,127,95
1,62,0,38
1,74,127,83
1,74,0,83
1,65,127,245
1,65,0,38
1,67,127,89
1,67,0,38
1,65,127,83
1,65,0,32
1,67,127,51
1,67,0,155
1,50,127,854
1,50,0,121
1,53,127,366
1,53,0,112
1,49,127,369
1,49,0,76
1,50,127,880
1,50,0,108
1,53,127,395
1,53,0,113
1,49,127,348
1,49,0,192
1,50,127,765
1,50,0,114
1,53,127,382
1,53,0,123
1,49,127,364
1,49,0,132
1,50,127,808
1,50,0,154
1,53,127,325
1,53,0,143
1,49,127,340
1,49,0,111
1,50,127,844
1,50,0,107
1,53,127,379
1,53,0,92
1,49,127,386
1,49,0,102
1,50,127,844
1,50,0,132
1,53,127,364
1,53,0,128
1,49,127,347
1,49,0,115
1,50,127,842
1,50,0,170
1,53,127,314
1,53,0,121
1,49,127,372
1,49,0,154
1,50,127,788
1,50,0,115
1,53,127,385
1,53,0,162
1,49,127,288
1,49,0,138
1,65,127,1422
1,65,0,54
1,67,127,67
1,67,0,56
1,69,127,68
1,69,0,34
1,65,127,32
1,65,0,123
1,62,127,56
1,62,0,157
1,65,127,318
1,65,0,43
1,67,127,71
1,67,0,60
1,65,127,66
1,65,0,30
1,67,127,36
1,67,0,129
1,65,127,50
1,65,0,50
1,67,127,71
1,67,0,57
1,65,127,64
1,65,0,29
1,67,127,34
1,67,0,107
1,65,127,62
1,65,0,45
1,67,127,72
1,67,0,60
1,69,127,65
1,69,0,31
1,65,127,42
1,65,0,122
1,62,127,59
1,62,0,125
1,65,127,353
1,65,0,44
1,67,127,72
1,67,0,53
1,65,127,70
1,65,0,30
1,67,127,38
1,67,0,104
1,65,127,69
1,65,0,37
1,67,127,82
1,67,0,40
1,65,127,73
1,65,0,22
1,67,127,38
1,67,0,104
1,69,127,75
1,69,0,34
1,67,127,78
1,67,0,43
1,69,127,71
1,69,0,26
1,65,127,46
1,65,0,111
1,62,127,60
1,62,0,44
1,74,127,73
1,74,0,122
1,65,127,241
1,65,0,39
1,67,127,75
1,67,0,53
1,65,127,71
1,65,0,28
1,67,127,42
1,67,0,124
1,65,127,58
1,65,0,42
1,67,127,73
1,67,0,53
1,65,127,75
1,65,0,22
1,67,127,43
1,67,0,104
1,69,127,75
1,69,0,36
1,67,127,76
1,67,0,39
1,69,127,84
1,69,0,34
1,65,127,38
1,65,0,90
1,62,127,62
1,62,0,49
1,74,127,73
1,74,0,90
1,65,127,271
1,65,0,37
1,67,127,80
1,67,0,50
1,65,127,75
1,65,0,30
1,67,127,43
1,67,0,129
1,65,127,515
1,65,0,40
1,67,127,80
1,67,0,44
1,69,127,73
1,69,0,31
1,65,127,44
1,65,0,144
1,62,127,47
1,62,0,109
1,65,127,357
1,65,0,42
1,67,127,80
1,67,0,47
1,65,127,74
1,65,0,26
1,67,127,42
1,67,0,116
1,65,127,59
1,65,0,47
1,67,127,77
1,67,0,46
1,65,127,76
1,65,0,25
1,67,127,31
1,67,0,106
1,65,127,71
1,65,0,36
1,67,127,85
1,67,0,37
1,69,127,82
1,69,0,30
1,65,127,43
1,65,0,102
1,62,127,69
1,62,0,106
1,65,127,371
1,65,0,34
1,67,127,88
1,67,0,35
1,65,127,83
1,65,0,24
1,67,127,47
1,67,0,81
1,65,127,83
1,65,0,33
1,67,127,84
1,67,0,37
1,65,127,94
1,65,0,21
1,67,127,43
1,67,0,109
1,65,127,71
1,65,0,30
1,67,127,79
1,67,0,41
1,69,127,78
1,69,0,22
1,65,127,49
1,65,0,87
1,62,127,74
1,62,0,39
1,74,127,85
1,74,0,82
1,65,127,291
1,65,0,30
1,67,127,86
1,67,0,38
1,65,127,86
1,65,0,24
1,67,127,46
1,67,0,110
1,65,127,65
1,65,0,40
1,67,127,79
1,67,0,44
1,65,127,73
1,65,0,25
1,67,127,46
1,67,0,91
1,69,127,85
1,69,0,32
1,67,127,82
1,67,0,42
1,69,127,84
1,69,0,17
1,65,127,42
1,65,0,78
1,62,127,66
1,62,0,51
1,74,127,95
1,74,0,66
1,65,127,285
1,65,0,36
1,67,127,88
1,67,0,42
1,65,127,84
1,65,0,29
1,67,127,40
1,67,0,147
1,65,127,488
1,65,0,37
1,67,127,83
1,67,0,44
1,69,127,86
1,69,0,24
1,65,127,48
1,65,0,134
1,62,127,51
1,62,0,111
1,65,127,354
1,65,0,39
1,67,127,82
1,67,0,44
1,65,127,81
1,65,0,21
1,67,127,40
1,67,0,135
1,65,127,58
1,65,0,40
1,67,127,73
1,67,0,46
1,65,127,70
1,65,0,25
1,67,127,34
1,67,0,99
1,65,127,77
1,65,0,39
1,67,127,82
1,67,0,47
1,69,127,79
1,69,0,27
1,65,127,41
1,65,0,113
1,62,127,66
1,62,0,99
1,65,127,366
1,65,0,36
1,67,127,93
1,67,0,41
1,65,127,78
1,65,0,25
1,67,127,43
1,67,0,101
1,65,127,63
1,65,0,41
1,67,127,82
1,67,0,39
1,65,127,75
1,65,0,27
1,67,127,42
1,67,0,105
1,69,127,72
1,69,0,33
1,67,127,71
1,67,0,41
1,69,127,82
1,69,0,26
1,65,127,46
1,65,0,107
1,62,127,71
1,62,0,43
1,74,127,81
1,74,0,93
1,65,127,257
1,65,0,34
1,67,127,93
1,67,0,36
1,65,127,82
1,65,0,27
1,67,127,47
1,67,0,110
1,65,127,70
1,65,0,41
1,67,127,78
1,67,0,43
1,65,127,70
1,65,0,26
1,67,127,39
1,67,0,86
1,69,127,90
1,69,0,36
1,67,127,79
1,67,0,44
1,69,127,73
1,69,0,26
1,65,127,36
1,65,0,105
1,62,127,76
1,62,0,36
1,74,127,79
1,74,0,113
1,65,127,256
1,65,0,37
1,67,127,77
1,67,0,44
1,65,127,76
1,65,0,30
1,67,127,44
1,67,0,108
1,65,127,526
1,65,0,38
1,67,127,77
1,67,0,45
1,69,127,72
1,69,0,34
1,65,127,46
1,65,0,131
1,62,127,60
1,62,0,98
1,65,127,364
1,65,0,43
1,67,127,81
1,67,0,51
1,65,127,72
1,65,0,31
1,67,127,42
1,67,0,105
1,65,127,59
1,65,0,44
1,67,127,76
1,67,0,51
1,65,127,71
1,65,0,28
1,67,127,41
1,67,0,115
1,65,127,63
1,65,0,45
1,67,127,76
1,67,0,42
1,69,127,79
1,69,0,32
1,65,127,27
1,65,0,111
1,62,127,77
1,62,0,104
1,65,127,361
1,65,0,37
1,67,127,84
1,67,0,43
1,65,127,74
1,65,0,27
1,67,127,49
1,67,0,102
1,65,127,69
1,65,0,39
1,67,127,89
1,67,0,32
1,65,127,81
1,65,0,23
1,67,127,31
1,67,0,111
1,69,127,74
1,69,0,38
1,67,127,80
1,67,0,34
1,69,127,78
1,69,0,28
1,65,127,41
1,65,0,106
1,62,127,49
1,62,0,57
1,74,127,78
1,74,0,78
