track,note,velocity,time
3,71,86,5274
3,71,0,103
3,74,88,17
3,74,0,33
3,74,92,87
3,74,0,86
3,71,85,34
3,71,0,119
3,76,84,1
3,76,0,330
3,74,76,30
3,74,0,73
3,74,83,47
3,74,0,415
3,74,79,65
3,74,0,212
3,76,83,28
3,74,87,120
3,76,0,28
3,74,0,164
3,74,81,48
3,74,0,143
3,74,76,97
3,74,0,234
3,76,90,6
3,76,0,214
3,74,87,26
3,72,91,240
3,74,0,1
3,72,0,234
3,74,77,5
3,74,0,474
3,71,80,6
3,71,0,48
3,71,88,72
3,71,0,108
3,74,66,12
3,74,0,60
3,74,86,60
3,74,0,112
3,71,63,8
3,71,0,109
3,76,82,11
3,76,0,339
3,74,88,21
3,74,0,57
3,74,82,63
3,74,0,406
3,74,82,74
3,74,0,204
3,74,79,36
3,74,0,56
3,74,82,64
3,74,0,182
3,74,80,58
3,74,0,141
3,74,82,99
3,74,0,238
3,76,92,2
3,76,0,227
3,74,87,13
3,72,83,240
3,74,0,16
3,71,78,104
3,72,0,13
3,71,0,78
3,71,89,29
3,71,0,581
3,69,81,19
3,69,0,113
3,71,80,7
3,72,76,360
3,71,0,17
3,72,0,280
3,72,82,63
3,71,82,60
3,72,0,5
3,69,80,55
3,71,0,25
3,69,0,410
3,74,90,45
3,74,0,222
3,76,89,18
3,76,0,113
3,74,92,7
3,74,0,234
3,72,85,6
3,72,0,216
3,71,83,24
3,71,0,163
3,71,87,77
3,71,0,161
3,71,91,79
3,74,87,240
3,71,0,10
3,74,0,207
3,79,95,23
3,78,82,60
3,79,0,33
3,79,73,27
3,78,0,13
3,79,0,430
3,76,82,37
3,76,0,57
3,76,87,63
3,76,0,135
3,76,86,105
3,72,83,600
3,76,0,7
3,72,0,268
3,72,80,85
3,72,0,117
3,78,100,3
3,78,0,240
3,78,73,0
3,78,83,0
3,78,0,73
3,78,0,18
3,76,90,29
3,76,0,185
3,78,80,55
3,78,0,109
3,79,88,11
3,79,0,98
3,77,93,22
3,77,0,199
3,77,85,41
3,77,0,151
3,77,86,89
3,77,0,225
3,79,87,15
3,77,62,120
3,79,0,19
3,77,0,28
3,77,93,73
3,77,0,227
3,76,84,13
3,76,0,244
3,74,80,116
3,72,82,120
3,74,0,3
3,72,0,203
3,79,89,34
3,75,84,240
3,79,0,21
3,74,79,219
3,75,0,1
3,74,0,238
3,72,87,1
3,72,0,193
3,72,74,47
3,74,87,120
3,72,0,1
3,74,0,59
3,72,85,0
3,72,0,60
3,71,89,0
3,71,0,275
3,71,79,85
3,71,0,53
3,71,85,67
3,71,0,220
3,74,82,20
3,74,0,221
3,76,88,19
3,76,0,642
3,76,85,78
3,76,0,38
3,76,85,82
3,76,0,460
3,72,83,20
3,72,0,476
3,78,76,4
3,78,0,462
3,74,78,18
3,71,73,480
3,74,0,12
3,71,0,408
3,71,90,60
3,71,0,473
3,81,90,7
3,79,93,480
3,81,0,10
3,79,0,340
3,76,89,10
3,78,72,120
3,76,0,22
3,78,0,406
3,74,80,52
3,74,0,61
3,74,87,59
3,74,0,220
3,79,90,20
3,79,0,117
3,81,85,3
3,79,93,120
3,81,0,26
3,79,0,188
3,81,88,26
3,81,0,222
3,81,96,18
3,81,0,113
3,83,85,7
3,79,82,120
3,83,0,14
3,79,0,576
3,76,89,10
3,76,0,61
3,76,92,59
3,76,0,142
3,76,89,98
3,76,0,344
3,76,69,16
3,76,0,61
3,76,89,59
3,76,0,239
3,72,80,1
3,72,0,211
3,76,93,29
3,76,0,60
3,74,82,0
3,74,0,60
3,76,75,0
3,76,0,416
3,76,85,64
3,76,0,49
3,76,87,71
3,76,0,221
3,78,78,19
3,78,0,194
3,78,82,46
3,78,0,161
3,78,82,79
3,76,92,240
3,78,0,14
3,76,0,220
3,74,85,6
3,74,0,511
3,71,83,89
3,71,0,479
3,81,92,1
3,79,93,480
3,81,0,11
3,76,80,349
3,79,0,6
3,78,82,114
3,76,0,17
3,78,0,370
3,74,88,93
3,74,0,48
3,74,82,72
3,74,0,205
3,81,90,35
3,81,0,217
3,79,84,23
3,81,87,240
3,79,0,3
3,81,0,180
3,81,87,57
3,81,0,114
3,83,80,6
3,79,84,120
3,83,0,11
3,79,0,526
3,76,89,63
3,76,0,86
3,76,90,34
3,76,0,135
3,76,80,105
3,76,0,346
3,76,80,14
3,76,0,72
3,76,89,48
3,76,0,232
3,74,88,8
3,74,0,102
3,72,67,18
3,72,0,100
3,76,87,20
3,76,0,60
3,74,74,0
3,74,0,60
3,76,80,0
3,76,0,352
3,76,87,128
3,76,0,46
3,76,82,74
3,76,0,229
3,78,82,11
3,78,0,334
3,78,77,26
3,78,0,65
3,78,80,55
3,78,0,237
3,79,86,3
3,79,0,159
3,79,82,81
3,79,0,1128
3,71,86,7152
3,71,0,103
3,74,88,17
3,74,0,33
3,74,92,87
3,74,0,86
3,71,85,34
3,71,0,119
3,76,84,1
3,76,0,330
3,74,76,30
3,74,0,73
3,74,83,47
3,74,0,415
3,74,79,65
3,74,0,212
3,76,83,28
3,74,87,120
3,76,0,28
3,74,0,164
3,74,81,48
3,74,0,143
3,74,76,97
3,74,0,234
3,76,90,6
3,76,0,214
3,74,87,26
3,72,91,240
3,74,0,1
3,72,0,234
3,74,77,5
3,74,0,474
3,71,80,6
3,71,0,48
3,71,88,72
3,71,0,108
3,74,66,12
3,74,0,60
3,74,86,60
3,74,0,112
3,71,63,8
3,71,0,109
3,76,82,11
3,76,0,339
3,74,88,21
3,74,0,57
3,74,82,63
3,74,0,406
3,74,82,74
3,74,0,204
3,74,79,36
3,74,0,56
3,74,82,64
3,74,0,182
3,74,80,58
3,74,0,141
3,74,82,99
3,74,0,238
3,76,92,2
3,76,0,227
3,74,87,13
3,72,83,240
3,74,0,16
3,71,78,104
3,72,0,13
3,71,0,78
3,71,89,29
3,71,0,581
3,69,81,19
3,69,0,113
3,71,80,7
3,72,76,360
3,71,0,17
3,72,0,280
3,72,82,63
3,71,82,60
3,72,0,5
3,69,80,55
3,71,0,25
3,69,0,410
3,74,90,45
3,74,0,222
3,76,89,18
3,76,0,113
3,74,92,7
3,74,0,234
3,72,85,6
3,72,0,216
3,71,83,24
3,71,0,163
3,71,87,77
3,71,0,161
3,71,91,79
3,74,87,240
3,71,0,10
3,74,0,207
3,79,95,23
3,78,82,60
3,79,0,33
3,79,73,27
3,78,0,13
3,79,0,430
3,76,82,37
3,76,0,57
3,76,87,63
3,76,0,135
3,76,86,105
3,72,83,600
3,76,0,7
3,72,0,268
3,72,80,85
3,72,0,117
3,78,100,3
3,78,0,240
3,78,73,0
3,78,83,0
3,78,0,73
3,78,0,18
3,76,90,29
3,76,0,185
3,78,80,55
3,78,0,109
3,79,88,11
3,79,0,98
3,77,93,22
3,77,0,199
3,77,85,41
3,77,0,151
3,77,86,89
3,77,0,225
3,79,87,15
3,77,62,120
3,79,0,19
3,77,0,28
3,77,93,73
3,77,0,227
3,76,84,13
3,76,0,244
3,74,80,116
3,72,82,120
3,74,0,3
3,72,0,203
3,79,89,34
3,75,84,240
3,79,0,21
3,74,79,219
3,75,0,1
3,74,0,238
3,72,87,1
3,72,0,193
3,72,74,47
3,74,87,120
3,72,0,1
3,74,0,59
3,72,85,0
3,72,0,60
3,71,89,0
3,71,0,275
3,71,79,85
3,71,0,53
3,71,85,67
3,71,0,220
3,74,82,20
3,74,0,221
3,76,88,19
3,76,0,642
3,76,85,78
3,76,0,38
3,76,85,82
3,76,0,460
3,72,83,20
3,72,0,476
3,78,76,4
3,78,0,462
3,74,78,18
3,71,73,480
3,74,0,12
3,71,0,408
3,71,90,60
3,71,0,473
3,81,90,7
3,79,93,480
3,81,0,10
3,79,0,340
3,76,89,10
3,78,72,120
3,76,0,22
3,78,0,406
3,74,80,52
3,74,0,61
3,74,87,59
3,74,0,220
3,79,90,20
3,79,0,117
3,81,85,3
3,79,93,120
3,81,0,26
3,79,0,188
3,81,88,26
3,81,0,222
3,81,96,18
3,81,0,113
3,83,85,7
3,79,82,120
3,83,0,14
3,79,0,576
3,76,89,10
3,76,0,61
3,76,92,59
3,76,0,142
3,76,89,98
3,76,0,344
3,76,69,16
3,76,0,61
3,76,89,59
3,76,0,239
3,72,80,1
3,72,0,211
3,76,93,29
3,76,0,60
3,74,82,0
3,74,0,60
3,76,75,0
3,76,0,416
3,76,85,64
3,76,0,49
3,76,87,71
3,76,0,221
3,78,78,19
3,78,0,194
3,78,82,46
3,78,0,161
3,78,82,79
3,76,92,240
3,78,0,14
3,76,0,220
3,74,85,6
3,74,0,511
3,71,83,89
3,71,0,479
3,81,92,1
3,79,93,480
3,81,0,11
3,76,80,349
3,79,0,6
3,78,82,114
3,76,0,17
3,78,0,370
3,74,88,93
3,74,0,48
3,74,82,72
3,74,0,205
3,81,90,35
3,81,0,217
3,79,84,23
3,81,87,240
3,79,0,3
3,81,0,180
3,81,87,57
3,81,0,114
3,83,80,6
3,79,84,120
3,83,0,11
3,79,0,526
3,76,89,63
3,76,0,86
3,76,90,34
3,76,0,135
3,76,80,105
3,76,0,346
3,76,80,14
3,76,0,72
3,76,89,48
3,76,0,232
3,74,88,8
3,74,0,102
3,72,67,18
3,72,0,100
3,76,87,20
3,76,0,60
3,74,74,0
3,74,0,60
3,76,80,0
3,76,0,352
3,76,87,128
3,76,0,46
3,76,82,74
3,76,0,229
3,78,82,11
3,78,0,334
3,78,77,26
3,78,0,65
3,78,80,55
3,78,0,237
3,79,86,3
3,79,0,159
3,79,82,81
3,79,0,1128
4,62,92,1064
4,67,103,0
4,67,0,128
4,62,0,3
4,62,79,109
4,67,93,0
4,67,0,194
4,62,0,9
4,67,107,37
4,62,100,0
4,67,0,106
4,62,0,3
4,67,87,131
4,62,85,0
4,67,0,221
4,62,0,5
4,62,99,14
4,67,103,0
4,67,0,133
4,62,0,21
4,62,81,206
4,67,96,0
4,62,0,48
4,67,0,4
4,67,101,68
4,62,89,0
4,62,0,137
4,67,0,1
4,60,90,102
4,67,101,0
4,64,101,240
4,67,0,16
4,64,0,123
4,60,0,17
4,67,101,204
4,60,101,0
4,55,95,120
4,67,0,18
4,60,0,136
4,55,0,5
4,55,97,81
4,60,105,0
4,64,99,240
4,55,0,7
4,60,0,88
4,64,0,8
4,66,85,137
4,62,96,0
4,66,0,230
4,67,99,10
4,67,0,113
4,62,0,10
4,67,85,117
4,62,81,0
4,67,0,101
4,62,92,139
4,67,103,0
4,67,0,128
4,62,0,3
4,62,79,109
4,67,93,0
4,67,0,194
4,62,0,9
4,67,107,37
4,62,100,0
4,67,0,106
4,62,0,3
4,67,87,131
4,62,85,0
4,67,0,221
4,62,0,5
4,62,99,14
4,67,103,0
4,67,0,133
4,62,0,21
4,62,81,206
4,67,96,0
4,62,0,48
4,67,0,4
4,67,101,68
4,62,89,0
4,62,0,137
4,67,0,1
4,60,90,102
4,67,101,0
4,64,101,240
4,67,0,16
4,64,0,123
4,60,0,17
4,67,101,204
4,60,101,0
4,55,95,120
4,67,0,18
4,60,0,136
4,55,0,5
4,55,97,81
4,60,105,0
4,64,99,240
4,55,0,7
4,60,0,88
4,64,0,8
4,66,85,137
4,62,96,0
4,66,0,230
4,67,99,10
4,67,0,113
4,62,0,10
4,67,85,117
4,62,81,0
4,62,0,120
4,67,0,0
4,62,92,120
4,67,103,0
4,67,0,128
4,62,0,3
4,62,79,109
4,67,93,0
4,67,0,194
4,62,0,9
4,67,107,37
4,62,100,0
4,67,0,106
4,62,0,3
4,67,87,131
4,62,85,0
4,67,0,221
4,62,0,5
4,62,99,14
4,67,103,0
4,67,0,133
4,62,0,21
4,62,81,206
4,67,96,0
4,62,0,48
4,67,0,4
4,67,101,68
4,62,89,0
4,62,0,137
4,67,0,1
4,60,90,102
4,67,101,0
4,64,101,240
4,67,0,16
4,64,0,123
4,60,0,17
4,67,101,204
4,60,101,0
4,55,95,120
4,67,0,18
4,60,0,136
4,55,0,5
4,55,97,81
4,60,105,0
4,64,99,240
4,55,0,7
4,60,0,88
4,64,0,8
4,66,85,137
4,62,96,0
4,66,0,230
4,67,99,10
4,67,0,113
4,62,0,10
4,67,85,117
4,62,81,0
4,62,0,120
4,67,0,0
4,55,86,120
4,59,90,0
4,52,83,0
4,59,0,144
4,55,0,0
4,52,0,12
4,52,63,84
4,59,82,0
4,59,0,177
4,52,0,38
4,52,101,25
4,59,106,0
4,59,0,124
4,52,0,48
4,52,75,68
4,60,85,0
4,60,0,194
4,52,0,19
4,60,110,27
4,52,82,0
4,52,0,138
4,60,0,2
4,52,101,220
4,60,106,0
4,60,0,35
4,52,0,15
4,57,92,70
4,48,70,0
4,48,0,271
4,57,0,7
4,62,100,82
4,54,94,0
4,54,0,191
4,62,0,33
4,54,69,16
4,64,93,0
4,54,0,47
4,64,0,25
4,62,101,48
4,54,85,0
4,54,0,152
4,62,0,34
4,54,85,54
4,60,103,0
4,60,0,120
4,54,0,0
4,55,96,120
4,50,91,0
4,59,94,0
4,59,0,211
4,55,0,4
4,50,0,4
4,50,98,21
4,59,99,0
4,55,102,0
4,59,0,104
4,55,0,16
4,50,0,3
4,54,78,117
4,50,89,0
4,59,90,0
4,54,0,208
4,59,0,6
4,59,99,26
4,54,85,0
4,50,0,58
4,54,0,2
4,59,0,16
4,55,92,164
4,59,90,0
4,62,96,0
4,62,0,227
4,62,98,13
4,55,0,120
4,59,0,29
4,59,82,91
4,62,0,25
4,59,0,14
4,64,93,81
4,60,95,0
4,60,0,77
4,64,0,0
4,64,96,43
4,60,96,0
4,60,0,186
4,64,0,23
4,64,99,31
4,60,107,0
4,60,0,449
4,64,0,134
4,57,92,17
4,60,92,0
4,60,0,360
4,57,0,0
4,66,117,120
4,62,105,0
4,62,0,188
4,66,0,1
4,66,83,51
4,62,96,0
4,66,0,107
4,64,105,13
4,60,99,0
4,62,0,1
4,60,0,186
4,64,0,13
4,66,112,40
4,60,99,0
4,67,98,120
4,66,0,11
4,67,0,12
4,60,0,5
4,62,94,92
4,65,98,0
4,59,94,0
4,65,0,194
4,62,0,22
4,59,0,1
4,65,101,23
4,62,92,0
4,59,92,0
4,65,0,168
4,62,0,6
4,59,0,7
4,62,92,59
4,65,96,0
4,59,90,0
4,62,0,119
4,65,0,3
4,59,0,69
4,62,0,32
4,64,104,17
4,67,108,0
4,64,0,107
4,65,87,13
4,62,87,0
4,67,0,5
4,62,0,46
4,65,0,2
4,62,110,67
4,65,102,0
4,62,0,140
4,65,0,5
4,60,80,95
4,64,93,0
4,64,0,257
4,60,0,16
4,62,105,87
4,55,96,0
4,62,0,87
4,55,0,25
4,55,86,8
4,60,96,0
4,55,0,92
4,60,0,6
4,63,91,142
4,67,106,0
4,63,0,217
4,67,0,6
4,63,99,17
4,60,96,0
4,63,0,99
4,60,0,12
4,61,79,9
4,61,0,11
4,55,99,109
4,62,101,0
4,62,0,178
4,55,0,12
4,55,92,50
4,60,96,0
4,60,0,167
4,55,0,24
4,60,106,49
4,60,0,118
4,62,103,2
4,60,79,60
4,62,0,17
4,59,88,43
4,60,0,20
4,59,0,205
4,59,92,135
4,50,79,0
4,55,92,0
4,59,0,36
4,55,0,5
4,50,0,5
4,59,92,74
4,55,92,0
4,50,92,0
4,55,0,220
4,50,0,10
4,59,0,10
4,59,75,0
4,55,78,0
4,62,78,0
4,62,0,240
4,55,0,0
4,59,0,0
4,62,86,0
4,59,74,0
4,59,0,120
4,62,0,0
4,64,90,0
4,60,77,0
4,60,0,480
4,64,0,0
4,60,92,120
4,64,92,0
4,64,0,120
4,60,0,0
4,60,109,0
4,64,92,0
4,64,0,223
4,60,0,60
4,60,92,197
4,57,92,0
4,60,0,277
4,57,0,106
4,62,92,97
4,66,92,0
4,66,0,360
4,62,0,0
4,59,92,0
4,62,92,0
4,62,0,31
4,59,0,10
4,59,92,79
4,62,92,0
4,62,0,391
4,59,0,49
4,67,110,160
4,62,103,0
4,67,0,117
4,62,0,2
4,62,80,121
4,67,87,0
