track,note,velocity,time
0,69,83,0
0,69,95,105
0,69,0,9
0,69,127,110
0,62,117,0
0,69,0,11
0,62,0,4
0,69,98,106
0,69,0,9
0,69,103,111
0,69,0,9
0,69,86,110
0,69,0,11
0,69,119,109
0,62,117,0
0,69,0,10
0,62,0,1
0,69,97,110
0,69,0,9
0,31,110,110
0,55,98,0
0,69,83,0
0,69,0,11
0,62,92,109
0,67,103,0
0,62,79,0
0,67,87,0
0,69,95,1
0,69,0,9
0,31,0,110
0,33,110,0
0,55,0,0
0,57,98,0
0,69,127,0
0,62,117,0
0,67,0,8
0,67,0,0
0,62,0,3
0,62,0,0
0,69,0,0
0,62,0,4
0,62,79,105
0,67,93,0
0,33,0,0
0,35,110,0
0,57,0,0
0,59,98,0
0,62,70,0
0,67,80,0
0,69,98,1
0,69,0,9
0,69,103,111
0,69,0,9
0,67,0,64
0,67,0,0
0,62,0,9
0,62,0,0
0,67,107,37
0,62,100,0
0,67,89,0
0,62,85,0
0,69,86,0
0,69,0,11
0,67,0,95
0,67,0,0
0,62,0,3
0,62,0,0
0,35,0,11
0,31,110,0
0,59,0,0
0,55,98,0
0,69,119,0
0,62,117,0
0,69,0,10
0,62,0,1
0,67,87,109
0,62,85,0
0,31,0,0
0,36,110,0
0,55,0,0
0,60,98,0
0,67,75,0
0,62,74,0
0,69,97,1
0,69,0,9
0,69,83,110
0,69,0,11
0,67,0,90
0,67,0,0
0,62,0,5
0,62,0,0
0,62,99,14
0,67,103,0
0,62,84,0
0,67,87,0
0,69,95,1
0,69,0,9
0,69,127,110
0,62,117,0
0,69,0,11
0,67,0,2
0,67,0,0
0,62,0,2
0,62,0,19
0,62,0,0
0,36,0,86
0,31,110,0
0,60,0,0
0,55,98,0
0,69,98,1
0,69,0,9
0,62,81,110
0,67,96,0
0,31,0,0
0,36,110,0
0,55,0,0
0,60,98,0
0,62,71,0
0,67,82,0
0,69,103,1
0,69,0,9
0,62,0,38
0,62,0,0
0,67,0,4
0,67,0,0
0,67,101,68
0,62,89,0
0,36,0,0
0,35,110,0
0,60,0,0
0,59,98,0
0,67,85,0
0,62,77,0
0,69,86,0
0,69,0,11
0,69,119,109
0,62,117,0
0,69,0,10
0,62,0,1
0,62,0,6
0,62,0,0
0,67,0,1
0,67,0,0
0,60,90,102
0,67,101,0
0,35,0,0
0,33,110,0
0,59,0,0
0,57,98,0
0,60,78,0
0,67,85,0
0,69,97,1
0,69,0,9
0,69,83,110
0,69,0,11
0,64,101,109
0,64,85,0
0,69,95,1
0,69,0,9
0,67,0,6
0,67,0,0
0,69,127,104
0,62,117,0
0,69,0,11
0,62,0,4
0,64,0,4
0,64,0,0
0,60,0,17
0,60,0,0
0,33,0,84
0,28,110,0
0,57,0,0
0,52,98,0
0,69,98,1
0,69,0,9
0,67,101,110
0,60,101,0
0,28,0,0
0,31,110,0
0,52,0,0
0,55,98,0
0,67,85,0
0,60,85,0
0,69,103,1
0,69,0,9
0,55,95,110
0,31,0,0
0,35,110,0
0,55,0,0
0,59,98,0
0,55,81,0
0,69,86,0
0,69,0,11
0,67,0,7
0,67,0,0
0,69,119,102
0,62,117,0
0,69,0,10
0,62,0,1
0,60,0,23
0,60,0,0
0,55,0,5
0,55,0,0
0,55,97,81
0,60,105,0
0,35,0,0
0,36,110,0
0,59,0,0
0,60,98,0
0,55,82,0
0,60,88,0
0,69,97,1
0,69,0,9
0,69,83,110
0,69,0,11
0,64,99,109
0,64,84,0
0,69,95,1
0,55,0,6
0,55,0,0
0,69,0,3
0,60,0,85
0,60,0,0
0,64,0,8
0,64,0,0
0,69,127,17
0,62,117,0
0,69,0,11
0,62,0,4
0,66,85,105
0,62,96,0
0,36,0,0
0,38,110,0
0,60,0,0
0,62,98,0
0,66,74,0
0,62,82,0
0,69,98,1
0,69,0,9
0,69,103,111
0,69,0,9
0,66,0,100
0,66,0,0
0,67,99,10
0,67,84,0
0,69,86,0
0,69,0,11
0,67,0,102
0,67,0,0
0,38,0,7
0,30,110,0
0,62,0,0
0,54,98,0
0,69,119,0
0,62,117,0
0,62,0,3
0,62,0,0
0,69,0,7
0,62,0,1
0,67,85,109
0,62,81,0
0,67,74,0
0,62,71,0
0,69,97,1
0,69,0,9
0,67,0,91
0,67,0,0
0,30,0,19
0,31,110,0
0,54,0,0
0,55,98,0
0,69,83,0
0,69,0,11
0,62,92,109
0,67,103,0
0,62,79,0
0,67,87,0
0,69,95,1
0,69,0,9
0,31,0,110
0,33,110,0
0,55,0,0
0,57,98,0
0,69,127,0
0,62,117,0
0,67,0,8
0,67,0,0
0,62,0,3
0,62,0,0
0,69,0,0
0,62,0,4
0,62,79,105
0,67,93,0
0,33,0,0
0,35,110,0
0,57,0,0
0,59,98,0
0,62,70,0
0,67,80,0
0,69,98,1
0,69,0,9
0,71,86,0
0,69,103,1
0,69,0,9
0,67,0,64
0,67,0,0
0,62,0,9
0,62,0,0
0,71,0,20
0,74,88,0
0,67,107,0
0,62,100,0
0,67,89,0
0,62,85,0
0,69,86,0
0,69,0,11
0,74,0,22
0,67,0,73
0,67,0,0
0,62,0,3
0,62,0,0
0,74,92,0
0,35,0,0
0,31,110,0
0,59,0,0
0,55,98,0
0,69,119,0
0,62,117,0
0,69,0,10
0,62,0,1
0,74,0,75
0,71,85,34
0,67,87,0
0,62,85,0
0,31,0,0
0,36,110,0
0,55,0,0
0,60,98,0
0,67,75,0
0,62,74,0
0,69,97,1
0,69,0,9
0,71,0,109
0,76,84,0
0,69,83,0
0,69,0,11
0,67,0,90
0,67,0,0
0,62,0,5
0,62,0,0
0,62,99,14
0,67,103,0
0,62,84,0
0,67,87,0
0,69,95,1
0,69,0,9
0,69,127,110
0,62,117,0
0,69,0,11
0,67,0,2
0,67,0,0
0,62,0,2
0,62,0,19
0,62,0,0
0,76,0,56
0,74,76,0
0,36,0,0
0,31,110,0
0,60,0,0
0,55,98,0
0,69,98,1
0,69,0,9
0,74,0,63
0,74,83,47
0,62,81,0
0,67,96,0
0,31,0,0
0,36,110,0
0,55,0,0
0,60,98,0
0,62,71,0
0,67,82,0
0,69,103,1
0,69,0,9
0,62,0,38
0,62,0,0
0,67,0,4
0,67,0,0
0,67,101,68
0,62,89,0
0,36,0,0
0,35,110,0
0,60,0,0
0,59,98,0
0,67,85,0
0,62,77,0
0,69,86,0
0,69,0,11
0,69,119,109
0,62,117,0
0,69,0,10
0,62,0,1
0,62,0,6
0,62,0,0
0,67,0,1
0,67,0,0
0,60,90,0
0,67,101,0
0,35,0,0
0,33,110,0
0,59,0,0
0,57,98,0
0,60,78,0
0,67,85,0
0,69,97,1
0,69,0,9
0,74,0,45
0,74,79,0
0,69,83,0
0,69,0,11
0,64,101,109
0,64,85,0
0,69,95,1
0,69,0,9
0,67,0,6
0,67,0,0
0,74,0,76
0,76,83,0
0,69,127,0
0,62,117,0
0,69,0,11
0,62,0,4
0,64,0,4
0,64,0,0
0,60,0,17
0,60,0,0
0,74,87,0
0,33,0,0
0,28,110,0
0,57,0,0
0,52,98,0
0,69,98,1
0,69,0,9
0,76,0,18
0,67,101,92
0,60,101,0
0,28,0,0
0,31,110,0
0,52,0,0
0,55,98,0
0,67,85,0
0,60,85,0
0,69,103,1
0,69,0,9
0,74,0,62
0,74,81,0
0,55,95,0
0,31,0,0
0,35,110,0
0,55,0,0
0,59,98,0
0,55,81,0
0,69,86,0
0,69,0,11
0,67,0,7
0,67,0,0
0,69,119,102
0,62,117,0
0,69,0,10
0,62,0,1
0,74,0,12
0,60,0,11
0,60,0,0
0,55,0,5
0,55,0,0
0,74,76,0
0,55,97,0
0,60,105,0
0,35,0,0
0,36,110,0
0,59,0,0
0,60,98,0
0,55,82,0
0,60,88,0
0,69,97,1
0,69,0,9
0,69,83,110
0,69,0,11
0,74,0,103
0,76,90,0
0,64,99,0
0,64,84,0
0,69,95,1
0,55,0,6
0,55,0,0
0,69,0,3
0,60,0,85
0,60,0,0
0,64,0,8
0,64,0,0
0,69,127,17
0,62,117,0
0,69,0,11
0,62,0,4
0,76,0,79
0,74,87,0
0,66,85,0
0,62,96,0
0,36,0,0
0,38,110,0
0,60,0,0
0,62,98,0
0,66,74,0
0,62,82,0
0,69,98,1
0,69,0,9
0,69,103,111
0,69,0,9
0,66,0,100
0,66,0,0
0,72,91,0
0,67,99,0
0,67,84,0
0,69,86,0
0,74,0,1
0,69,0,10
0,67,0,102
0,67,0,0
0,38,0,7
0,30,110,0
0,62,0,0
0,54,98,0
0,69,119,0
0,62,117,0
0,62,0,3
0,62,0,0
0,69,0,7
0,62,0,1
0,72,0,104
0,74,77,0
0,67,85,0
0,62,81,0
0,67,74,0
0,62,71,0
0,69,97,1
0,69,0,9
0,62,0,110
0,67,0,0
0,30,0,0
0,31,110,0
0,54,0,0
0,55,98,0
0,62,0,0
0,67,0,0
0,69,83,0
0,69,0,11
0,62,92,109
0,67,103,0
0,62,79,0
0,67,87,0
0,69,95,1
0,69,0,9
0,31,0,110
0,33,110,0
0,55,0,0
0,57,98,0
0,69,127,0
0,62,117,0
0,67,0,8
0,67,0,0
0,62,0,3
0,62,0,0
0,69,0,0
0,62,0,4
0,74,0,99
0,71,80,0
0,62,79,0
0,67,93,0
0,33,0,0
0,35,110,0
0,57,0,0
0,59,98,0
0,62,70,0
0,67,80,0
0,69,98,1
0,69,0,9
0,71,0,38
0,71,88,0
0,69,103,1
0,69,0,9
0,67,0,64
0,67,0,0
0,62,0,9
0,62,0,0
0,71,0,25
0,74,66,0
0,67,107,0
0,62,100,0
0,67,89,0
0,62,85,0
0,69,86,0
0,69,0,11
0,74,0,49
0,67,0,46
0,67,0,0
0,62,0,3
0,62,0,0
0,74,86,0
0,35,0,0
0,31,110,0
0,59,0,0
0,55,98,0
0,69,119,0
0,62,117,0
0,69,0,10
0,62,0,1
0,74,0,101
0,71,63,8
0,67,87,0
0,62,85,0
0,31,0,0
0,36,110,0
0,55,0,0
0,60,98,0
0,67,75,0
0,62,74,0
0,69,97,1
0,69,0,9
0,71,0,99
0,76,82,0
0,69,83,0
0,69,0,11
0,67,0,90
0,67,0,0
0,62,0,5
0,62,0,0
0,62,99,14
0,67,103,0
0,62,84,0
0,67,87,0
0,69,95,1
0,69,0,9
0,69,127,110
0,62,117,0
0,69,0,11
0,67,0,2
0,67,0,0
0,62,0,2
0,62,0,19
0,62,0,0
0,76,0,65
0,74,88,0
0,36,0,0
0,31,110,0
0,60,0,0
0,55,98,0
0,69,98,1
0,69,0,9
0,74,0,47
0,74,82,63
0,62,81,0
0,67,96,0
0,31,0,0
0,36,110,0
0,55,0,0
0,60,98,0
0,62,71,0
0,67,82,0
0,69,103,1
0,69,0,9
0,62,0,38
0,62,0,0
0,67,0,4
0,67,0,0
0,67,101,68
0,62,89,0
0,36,0,0
0,35,110,0
0,60,0,0
0,59,98,0
0,67,85,0
0,62,77,0
0,69,86,0
0,69,0,11
0,69,119,109
0,62,117,0
0,69,0,10
0,62,0,1
0,62,0,6
0,62,0,0
0,67,0,1
0,67,0,0
0,60,90,102
0,67,101,0
0,35,0,0
0,33,110,0
0,59,0,0
0,57,98,0
0,60,78,0
0,67,85,0
0,69,97,1
0,69,0,9
0,74,0,36
0,74,82,0
0,69,83,0
0,69,0,11
0,64,101,109
0,64,85,0
0,69,95,1
0,69,0,9
0,67,0,6
0,67,0,0
0,74,0,68
0,74,79,0
0,69,127,0
0,62,117,0
0,69,0,11
0,62,0,4
0,64,0,4
0,64,0,0
0,60,0,17
0,60,0,0
0,74,0,20
0,74,82,0
0,33,0,0
0,28,110,0
0,57,0,0
0,52,98,0
0,69,98,1
0,69,0,9
0,67,101,110
0,60,101,0
0,28,0,0
0,31,110,0
0,52,0,0
0,55,98,0
0,67,85,0
0,60,85,0
0,69,103,1
0,69,0,9
0,74,0,52
0,74,80,0
0,55,95,0
0,31,0,0
0,35,110,0
0,55,0,0
0,59,98,0
0,55,81,0
0,69,86,0
0,69,0,11
0,67,0,7
0,67,0,0
0,69,119,102
0,62,117,0
0,69,0,10
0,62,0,1
0,74,0,10
0,60,0,13
0,60,0,0
0,55,0,5
0,55,0,0
0,74,82,0
0,55,97,0
0,60,105,0
0,35,0,0
0,36,110,0
0,59,0,0
0,60,98,0
0,55,82,0
0,60,88,0
0,69,97,1
0,69,0,9
0,69,83,110
0,69,0,11
0,74,0,107
0,76,92,0
0,64,99,0
0,64,84,0
0,69,95,1
0,55,0,6
0,55,0,0
0,69,0,3
0,60,0,85
0,60,0,0
0,64,0,8
0,64,0,0
0,69,127,17
0,62,117,0
0,69,0,11
0,62,0,4
0,76,0,92
0,74,87,0
0,66,85,0
0,62,96,0
0,36,0,0
0,38,110,0
0,60,0,0
0,62,98,0
0,66,74,0
0,62,82,0
0,69,98,1
0,69,0,9
0,69,103,111
0,69,0,9
0,66,0,100
0,66,0,0
0,72,83,0
0,67,99,0
0,67,84,0
0,69,86,0
0,69,0,11
0,74,0,5
0,67,0,97
0,67,0,0
0,71,78,7
0,38,0,0
0,30,110,0
0,62,0,0
0,54,98,0
0,69,119,0
0,62,117,0
0,62,0,3
0,62,0,0
0,69,0,7
0,62,0,1
0,72,0,2
0,71,0,78
0,71,89,0
0,67,85,0
0,62,81,0
0,67,74,0
0,62,71,0
0,69,97,1
0,69,0,9
0,62,0,110
0,67,0,0
0,30,0,0
0,28,110,0
0,54,0,0
0,52,98,0
0,62,0,0
0,67,0,0
0,69,83,0
0,69,0,11
0,55,86,109
0,59,90,0
0,52,83,0
0,55,75,0
0,59,78,0
0,52,73,0
0,69,95,1
0,69,0,9
0,69,127,110
0,62,117,0
0,69,0,11
0,62,0,4
0,55,0,9
0,59,0,0
0,55,0,0
0,59,0,0
0,52,0,12
0,52,0,0
0,52,63,84
0,59,82,0
0,28,0,0
0,35,110,0
0,52,0,0
0,59,98,0
0,52,59,0
0,59,72,0
0,69,98,1
0,69,0,9
0,71,0,91
0,69,81,0
0,69,103,1
0,69,0,9
0,59,0,47
0,59,0,0
0,52,0,38
0,52,0,0
0,69,0,18
0,71,80,7
0,52,101,0
0,59,106,0
0,52,85,0
0,59,89,0
0,69,86,0
0,69,0,11
0,69,119,109
0,62,117,0
0,59,0,4
0,59,0,0
0,69,0,6
0,62,0,1
0,52,0,41
0,52,0,0
0,52,75,68
0,60,85,0
0,35,0,0
0,31,110,0
0,59,0,0
0,55,98,0
0,52,67,0
0,60,74,0
0,69,97,1
0,69,0,9
0,72,76,0
0,31,0,0
0,33,110,0
0,55,0,0
0,57,98,0
0,69,83,0
0,69,0,11
0,71,0,6
0,60,0,57
0,60,0,0
0,52,0,19
0,52,0,0
0,60,110,27
0,52,82,0
0,33,0,0
0,36,110,0
0,57,0,0
0,60,98,0
0,60,92,0
0,52,72,0
0,69,95,1
0,69,0,9
0,69,127,110
0,62,117,0
0,69,0,11
0,62,0,4
0,52,0,3
0,52,0,0
0,60,0,2
0,60,0,0
0,72,0,37
0,72,82,0
0,69,98,1
0,69,0,9
0,71,82,50
0,72,0,5
0,69,80,55
0,52,101,0
0,60,106,0
0,36,0,0
0,33,110,0
0,60,0,0
0,57,98,0
0,52,85,0
0,60,89,0
0,69,103,1
0,69,0,9
0,71,0,15
0,60,0,10
0,60,0,0
0,52,0,15
0,52,0,0
0,57,92,70
0,48,70,0
0,33,0,0
0,36,110,0
0,57,0,0
0,60,98,0
0,57,79,0
0,48,64,0
0,69,86,0
0,69,0,11
0,69,119,109
0,62,117,0
0,69,0,10
0,62,0,1
0,36,0,109
0,33,110,0
0,60,0,0
0,57,98,0
0,69,97,1
0,69,0,9
0,48,0,21
0,48,0,0
0,57,0,7
0,57,0,0
0,69,0,37
0,74,90,0
0,62,100,0
0,54,94,0
0,33,0,0
0,38,110,0
0,57,0,0
0,62,98,0
0,62,85,0
0,54,80,0
0,69,83,0
0,69,0,11
0,69,95,110
0,69,0,9
0,54,0,61
0,54,0,0
0,74,0,31
0,62,0,2
