track,note,velocity,time
1,71,79,6528
1,74,79,0
1,74,79,0
1,71,79,0
1,76,79,0
1,74,79,0
1,74,79,96
1,74,79,0
1,76,79,0
1,74,79,0
1,74,79,0
1,74,79,0
1,74,79,0
1,76,79,0
1,74,79,0
1,72,79,0
1,72,79,0
1,71,79,96
1,71,79,0
1,74,79,0
1,74,79,0
1,71,79,0
1,76,79,0
1,74,79,0
1,74,79,192
1,74,79,0
1,74,79,0
1,74,79,0
1,74,79,96
1,74,79,96
1,76,79,0
1,74,79,0
1,72,79,0
1,71,79,0
1,69,79,0
1,71,79,0
1,72,79,0
1,71,79,0
1,69,79,0
1,74,79,0
1,76,79,0
1,74,79,0
1,72,79,0
1,71,79,0
1,71,79,0
1,71,79,0
1,71,79,0
1,74,79,0
1,79,79,0
1,78,79,0
1,79,79,0
1,72,79,0
1,76,79,0
1,72,79,0
1,76,79,0
1,72,79,0
1,76,79,0
1,69,79,0
1,72,79,0
1,69,79,0
1,72,79,0
1,74,79,0
1,78,79,0
1,74,79,0
1,78,79,0
1,72,79,0
1,76,79,0
1,72,79,0
1,78,79,0
1,72,79,0
1,79,79,0
1,74,79,0
1,77,79,0
1,74,79,0
1,77,79,0
1,74,79,0
1,77,79,0
1,76,79,0
1,79,79,0
1,74,79,0
1,77,79,0
1,74,79,0
1,77,79,0
1,72,79,0
1,76,79,0
1,74,79,0
1,72,79,0
1,74,79,0
1,79,79,0
1,67,79,0
1,75,79,0
1,67,79,0
1,74,79,0
1,69,79,0
1,72,79,0
1,69,79,0
1,72,79,0
1,71,79,0
1,74,79,0
1,69,79,0
1,72,79,0
1,67,79,0
1,71,79,0
1,71,79,0
1,71,79,0
1,71,79,0
1,74,79,0
1,71,79,0
1,74,79,0
1,76,79,44
1,72,79,288
1,76,79,0
1,72,79,0
1,76,79,0
1,69,79,96
1,72,79,0
1,74,79,100
1,78,79,0
1,71,79,96
1,74,79,0
1,67,79,100
1,71,79,0
1,71,79,132
1,81,79,132
1,79,79,0
1,76,79,0
1,78,79,0
1,74,79,84
1,74,79,16
1,79,79,32
1,81,79,16
1,79,79,16
1,81,79,32
1,81,79,32
1,83,79,16
1,79,79,16
1,72,79,160
1,76,79,0
1,72,79,16
1,76,79,0
1,72,79,32
1,76,79,0
1,72,79,48
1,76,79,0
1,72,79,0
1,76,79,0
1,71,79,0
1,74,79,0
1,69,79,0
1,72,79,0
1,76,79,0
1,72,79,0
1,76,79,0
1,71,79,0
1,74,79,0
1,72,79,0
1,76,79,0
1,72,79,192
1,76,79,0
1,72,79,32
1,76,79,0
1,74,79,64
1,78,79,0
1,74,79,64
1,78,79,0
1,74,79,64
1,78,79,0
1,72,79,64
1,76,79,0
1,71,79,32
1,74,79,0
1,71,79,32
1,74,79,0
1,71,79,228
1,81,79,132
1,79,79,0
1,76,79,0
1,74,79,192
1,74,79,0
1,79,79,0
1,79,79,0
1,81,79,0
1,81,79,0
1,83,79,0
1,79,79,0
1,72,79,96
1,76,79,0
1,72,79,0
1,76,79,0
1,72,79,0
1,76,79,0
1,72,79,0
1,76,79,0
1,72,79,0
1,76,79,0
1,71,79,0
1,74,79,0
1,69,79,0
1,72,79,0
1,72,79,0
1,76,79,0
1,71,79,0
1,74,79,0
1,72,79,0
1,76,79,0
1,72,79,96
1,76,79,0
1,72,79,0
1,76,79,0
1,72,79,0
1,76,79,0
1,74,79,0
1,78,79,0
1,74,79,0
1,78,79,0
1,74,79,0
1,78,79,0
1,74,79,0
1,79,79,0
1,74,79,0
1,79,79,0
1,74,79,0
1,79,79,0
1,72,79,0
1,71,79,0
1,69,79,0
1,72,79,0
1,72,79,0
1,72,79,0
1,69,79,0
1,74,79,0
1,76,79,0
1,74,79,0
1,72,79,0
1,71,79,0
1,71,79,0
1,74,79,96
1,72,79,0
1,78,79,0
1,71,79,0
1,79,79,0
1,71,79,0
1,79,79,0
1,72,79,96
1,71,79,0
1,69,79,0
1,71,79,0
1,72,79,0
1,72,79,0
1,74,79,0
1,74,79,0
1,78,79,0
1,74,79,0
1,78,79,0
1,74,79,0
1,79,79,0
1,74,79,192
1,79,79,0
1,72,79,576
1,71,79,0
1,76,79,0
1,79,79,0
1,69,79,0
1,71,79,0
1,72,79,0
1,74,79,0
1,76,79,0
1,74,79,0
1,72,79,0
1,71,79,0
1,71,79,0
1,74,79,96
1,72,79,0
1,78,79,0
1,71,79,0
1,79,79,0
1,72,79,96
1,71,79,0
1,69,79,0
1,71,79,0
1,72,79,0
1,72,79,0
1,76,79,0
1,74,79,0
1,72,79,0
1,71,79,0
1,71,79,0
1,74,79,96
1,72,79,0
1,78,79,0
1,71,79,0
1,79,79,0
1,72,79,96
1,71,79,0
1,69,79,0
1,71,79,0
1,72,79,0
1,72,79,0
1,76,79,0
1,74,79,0
1,72,79,0
1,71,79,0
1,71,79,0
1,74,79,96
1,72,79,0
1,78,79,0
1,71,79,0
1,79,79,0
1,72,79,96
1,71,79,0
1,69,79,0
1,71,79,0
1,72,79,0
1,72,79,0
1,74,79,0
1,72,79,288
1,72,79,0
1,71,79,0
1,74,79,0
1,69,79,0
1,78,79,0
1,71,79,0
1,67,79,0
1,79,79,0
1,81,79,96
1,83,79,0
1,86,79,0
1,84,79,0
1,88,79,0
1,83,79,0
1,86,79,0
1,81,79,0
1,84,79,0
1,80,79,96
1,83,79,0
1,81,79,0
1,84,79,0
1,83,79,0
1,86,79,0
1,81,79,0
1,84,79,0
1,76,79,288
1,79,79,0
1,79,79,0
1,83,79,0
1,78,79,0
1,81,79,0
1,76,79,2688
1,78,79,32
1,79,79,0
1,79,79,0
1,83,79,0
1,79,79,260
1,84,79,0
1,79,79,0
1,83,79,0
1,79,79,0
1,82,79,0
1,79,79,0
1,81,79,0
1,79,79,0
1,81,79,0
2,72,79,15744
2,76,79,0
2,72,79,0
2,76,79,0
2,72,79,0
2,76,79,0
2,69,79,0
2,72,79,0
2,69,79,0
2,72,79,0
2,74,79,0
2,78,79,0
2,74,79,0
2,78,79,0
2,72,79,0
2,76,79,0
2,72,79,0
2,78,79,0
2,72,79,0
2,79,79,0
2,74,79,0
2,77,79,0
2,74,79,0
2,77,79,0
2,74,79,0
2,77,79,0
2,76,79,0
2,79,79,0
2,74,79,0
2,77,79,0
2,74,79,0
2,77,79,0
2,72,79,0
2,76,79,0
2,74,79,0
2,72,79,0
2,74,79,0
2,79,79,0
2,67,79,0
2,75,79,0
2,67,79,0
2,74,79,0
2,69,79,0
2,72,79,0
2,69,79,0
2,72,79,0
2,71,79,0
2,74,79,0
2,69,79,0
2,72,79,0
2,67,79,0
2,71,79,0
2,71,79,0
2,71,79,0
2,71,79,0
2,74,79,0
2,71,79,0
2,74,79,0
2,72,79,5536
2,76,79,0
2,72,79,16
2,76,79,0
2,72,79,32
2,76,79,0
2,72,79,48
2,76,79,0
2,72,79,0
2,76,79,0
2,71,79,0
2,74,79,0
2,69,79,0
2,72,79,0
2,72,79,0
2,76,79,0
2,76,79,0
2,71,79,0
2,74,79,0
2,72,79,0
2,76,79,0
2,72,79,192
2,76,79,0
2,72,79,32
2,76,79,0
2,74,79,64
2,78,79,0
2,74,79,64
2,78,79,0
2,74,79,64
2,78,79,0
2,72,79,64
2,76,79,0
2,71,79,32
2,74,79,0
2,71,79,32
2,74,79,0
2,71,79,0
2,81,79,0
2,79,79,0
2,76,79,0
2,74,79,192
2,74,79,0
2,79,79,0
2,79,79,0
2,81,79,0
2,81,79,0
2,83,79,0
2,79,79,0
3,72,79,15744
3,76,79,0
3,72,79,0
3,76,79,0
3,72,79,0
3,76,79,0
3,69,79,0
3,72,79,0
3,69,79,0
3,72,79,0
3,74,79,0
3,78,79,0
3,74,79,0
3,78,79,0
3,72,79,0
3,76,79,0
3,72,79,0
3,78,79,0
3,72,79,0
3,79,79,0
3,74,79,0
3,77,79,0
3,74,79,0
3,77,79,0
3,74,79,0
3,77,79,0
3,76,79,0
3,79,79,0
3,74,79,0
3,77,79,0
3,74,79,0
3,77,79,0
3,72,79,0
3,76,79,0
3,74,79,0
3,72,79,0
3,74,79,0
3,79,79,0
3,67,79,0
3,75,79,0
3,67,79,0
3,74,79,0
3,69,79,0
3,72,79,0
3,69,79,0
3,72,79,0
3,71,79,0
3,74,79,0
3,69,79,0
3,72,79,0
3,67,79,0
3,71,79,0
3,71,79,0
3,71,79,0
3,71,79,0
3,74,79,0
3,71,79,0
3,74,79,0
3,72,79,5536
3,76,79,0
3,72,79,16
3,76,79,0
3,72,79,32
3,76,79,0
3,72,79,48
3,76,79,0
3,72,79,0
3,76,79,0
3,71,79,0
3,74,79,0
3,69,79,0
3,72,79,0
3,72,79,0
3,76,79,0
3,76,79,0
3,71,79,0
3,74,79,0
3,72,79,0
3,76,79,0
3,72,79,192
3,76,79,0
3,72,79,32
3,76,79,0
3,74,79,64
3,78,79,0
3,74,79,64
3,78,79,0
3,74,79,64
3,78,79,0
3,72,79,64
3,76,79,0
3,71,79,32
3,74,79,0
3,71,79,32
3,74,79,0
3,71,79,0
3,81,79,0
3,79,79,0
3,76,79,0
3,74,79,192
3,74,79,0
3,79,79,0
3,79,79,0
3,81,79,0
3,81,79,0
3,83,79,0
3,79,79,0
4,72,79,0
4,76,79,0
4,72,79,0
4,76,79,0
4,72,79,0
4,76,79,0
4,69,79,0
4,72,79,0
4,69,79,0
4,72,79,0
4,74,79,0
4,78,79,0
4,74,79,0
4,78,79,0
4,72,79,0
4,76,79,0
4,72,79,0
4,78,79,0
4,72,79,0
4,79,79,0
4,74,79,0
4,77,79,0
4,74,79,0
4,77,79,0
4,74,79,0
4,77,79,0
4,76,79,0
4,79,79,0
4,74,79,0
4,77,79,0
4,74,79,0
4,77,79,0
4,72,79,0
4,76,79,0
4,74,79,0
4,72,79,0
4,74,79,0
4,79,79,0
4,67,79,0
4,75,79,0
4,67,79,0
4,74,79,0
4,69,79,0
4,72,79,0
4,69,79,0
4,72,79,0
4,71,79,0
4,74,79,0
4,69,79,0
4,72,79,0
4,67,79,0
4,71,79,0
4,71,79,0
4,71,79,0
4,71,79,0
4,74,79,0
4,71,79,0
4,74,79,0
4,72,79,5536
4,76,79,0
4,72,79,16
4,76,79,0
4,72,79,32
4,76,79,0
4,72,79,48
4,76,79,0
4,72,79,0
4,76,79,0
4,71,79,0
4,74,79,0
4,69,79,0
4,72,79,0
4,72,79,0
4,76,79,0
4,76,79,0
4,71,79,0
4,74,79,0
4,72,79,0
4,76,79,0
4,72,79,192
4,76,79,0
4,72,79,32
4,76,79,0
4,74,79,64
4,78,79,0
4,74,79,64
4,78,79,0
4,74,79,64
4,78,79,0
4,72,79,64
4,76,79,0
4,71,79,32
4,74,79,0
4,71,79,32
4,74,79,0
4,71,79,0
4,81,79,0
4,79,79,0
4,76,79,0
4,74,79,192
4,74,79,0
4,79,79,0
4,79,79,0
4,81,79,0
4,81,79,0
4,83,79,0
4,79,79,0
5,43,79,0
5,62,79,32
5,67,79,0
5,62,79,128
5,47,79,0
5,67,79,0
5,62,79,64
5,67,79,0
5,62,79,128
5,48,79,0
5,67,79,0
5,62,79,64
5,67,79,0
5,48,79,128
5,48,79,32
5,67,79,0
5,62,79,32
5,48,79,0
5,67,79,0
5,45,79,64
5,60,79,0
5,60,79,64
5,64,79,0
5,45,79,128
5,45,79,32
5,67,79,0
5,45,79,32
5,60,79,0
5,48,79,64
5,60,79,0
5,60,79,64
5,64,79,0
5,62,79,128
5,66,79,0
5,50,79,96
5,67,79,32
5,62,79,128
5,43,79,0
5,67,79,0
5,62,79,64
5,67,79,0
5,62,79,128
5,47,79,0
5,67,79,0
5,62,79,64
5,67,79,0
5,62,79,128
5,48,79,0
5,67,79,0
5,62,79,64
5,67,79,0
5,48,79,128
5,48,79,32
5,67,79,0
5,48,79,32
5,62,79,0
5,67,79,0
5,45,79,64
5,60,79,0
5,60,79,64
5,64,79,0
5,45,79,128
5,45,79,32
5,67,79,0
5,45,79,32
5,60,79,0
5,48,79,64
5,60,79,0
5,60,79,64
5,64,79,0
5,62,79,128
5,66,79,0
5,50,79,96
5,67,79,32
5,62,79,128
5,43,79,0
5,67,79,0
5,62,79,64
5,67,79,0
5,47,79,128
5,62,79,0
5,67,79,0
5,62,79,64
5,67,79,0
5,48,79,128
5,62,79,0
5,67,79,0
5,62,79,64
5,67,79,0
5,48,79,128
5,48,79,32
5,67,79,0
5,48,79,32
5,62,79,0
5,67,79,0
5,45,79,64
5,60,79,0
5,60,79,64
5,64,79,0
5,45,79,128
5,45,79,32
5,67,79,0
5,45,79,32
5,60,79,0
5,48,79,64
5,60,79,0
5,60,79,64
5,64,79,0
5,62,79,128
5,66,79,0
5,50,79,96
5,67,79,32
5,62,79,128
5,43,79,0
5,67,79,0
5,62,79,0
5,67,79,0
5,47,79,128
5,62,79,0
5,67,79,0
5,62,79,64
5,67,79,0
5,48,79,128
5,62,79,0
5,67,79,0
5,62,79,64
5,67,79,0
5,48,79,128
5,48,79,32
5,67,79,0
5,48,79,32
5,62,79,0
5,67,79,0
5,45,79,64
5,60,79,0
5,60,79,64
5,64,79,0
5,45,79,128
5,45,79,32
5,67,79,0
5,45,79,32
5,60,79,0
5,48,79,64
5,60,79,0
5,48,79,0
5,60,79,0
5,60,79,0
5,64,79,0
5,62,79,96
5,66,79,0
5,50,79,96
5,67,79,0
5,40,79,96
5,64,79,0
5,59,79,0
5,64,79,0
5,55,79,96
5,40,79,0
5,59,79,0
5,55,79,0
5,40,79,0
5,59,79,0
5,45,79,96
5,55,79,0
5,60,79,0
5,60,79,192
5,45,79,0
5,67,79,0
5,60,79,0
5,45,79,0
5,64,79,0
5,45,79,0
5,62,79,0
5,50,79,0
5,66,79,0
5,62,79,96
5,50,79,0
5,66,79,0
5,62,79,0
5,50,79,0
5,66,79,0
5,62,79,96
5,43,79,0
5,67,79,0
5,62,79,0
5,43,79,0
5,67,79,0
5,57,79,96
5,42,79,0
5,62,79,0
5,42,79,96
5,57,79,0
5,62,79,0
5,55,79,96
5,40,79,0
5,59,79,0
5,59,79,0
5,64,79,0
5,55,79,96
5,47,79,0
5,59,79,0
5,55,79,0
5,47,79,0
5,59,79,0
5,55,79,96
5,45,79,0
5,60,79,0
5,55,79,0
5,45,79,0
5,60,79,0
5,45,79,96
5,45,79,0
5,60,79,0
5,67,79,0
5,45,79,0
5,60,79,0
5,67,79,0
5,45,79,96
5,50,79,0
5,50,79,96
5,62,79,0
5,64,79,0
5,62,79,0
5,66,79,0
5,43,79,96
5,65,79,0
5,59,79,0
5,43,79,0
5,65,79,0
5,59,79,0
5,47,79,0
5,65,79,0
5,59,79,0
5,47,79,0
5,65,79,0
5,60,79,96
5,48,79,0
5,64,79,0
5,48,79,96
5,48,79,0
5,60,79,0
5,64,79,0
5,48,79,0
5,60,79,0
5,64,79,0
5,55,79,96
5,48,79,0
5,63,79,0
5,55,79,192
5,48,79,0
5,63,79,0
5,55,79,96
5,48,79,0
5,63,79,0
5,48,79,0
5,55,79,0
5,63,79,0
5,59,79,0
5,43,79,0
5,62,79,0
5,62,79,0
5,67,79,0
5,43,79,96
5,43,79,0
5,62,79,0
5,67,79,0
5,43,79,0
5,62,79,0
5,67,79,0
5,42,79,0
5,40,79,0
5,62,79,0
5,67,79,0
5,62,79,96
5,47,79,0
5,67,79,0
5,62,79,108
5,52,79,0
5,67,79,0
5,47,79,144
5,62,79,0
5,67,79,0
5,45,79,228
5,60,79,0
5,62,79,588
5,66,79,0
5,43,79,480
5,62,79,32
5,67,79,0
5,62,79,128
5,47,79,0
5,67,79,0
5,62,79,64
5,67,79,0
5,43,79,128
5,62,79,0
5,67,79,0
5,62,79,128
5,47,79,0
5,67,79,0
5,62,79,64
5,67,79,0
5,40,79,128
5,62,79,32
5,38,79,0
5,66,79,0
5,64,79,180
5,62,79,128
5,42,79,0
5,64,79,0
5,66,79,16
5,40,79,112
5,59,79,0
5,47,79,112
5,47,79,112
5,54,79,16
5,62,79,16
