track,note,velocity,time
2,71,86,8440
2,74,88,28
2,74,92,140
2,71,85,56
2,76,84,4
2,74,76,48
2,74,83,76
2,74,79,104
2,76,83,48
2,74,87,192
2,74,81,80
2,74,76,156
2,76,90,12
2,74,87,44
2,72,91,0
2,74,77,8
2,71,80,12
2,71,88,116
2,74,66,20
2,74,86,96
2,71,63,16
2,76,82,20
2,74,88,36
2,74,82,104
2,74,82,120
2,74,79,60
2,74,82,104
2,74,80,96
2,74,82,160
2,76,92,4
2,74,87,24
2,72,83,384
2,71,78,168
2,71,89,48
2,69,81,32
2,71,80,12
2,72,76,576
2,72,82,104
2,71,82,96
2,69,80,88
2,74,90,72
2,76,89,32
2,74,92,12
2,72,85,12
2,71,83,40
2,71,87,124
2,71,91,128
2,74,87,384
2,79,95,40
2,78,82,96
2,79,73,44
2,76,82,60
2,76,87,104
2,76,86,168
2,72,83,960
2,72,80,136
2,78,100,8
2,78,73,0
2,78,83,0
2,76,90,48
2,78,80,88
2,79,88,20
2,77,93,36
2,77,85,68
2,77,86,144
2,79,87,24
2,77,62,192
2,77,93,120
2,76,84,24
2,74,80,188
2,72,82,192
2,79,89,56
2,75,84,384
2,74,79,0
2,72,87,4
2,72,74,76
2,74,87,0
2,72,85,0
2,71,89,0
2,71,79,136
2,71,85,108
2,74,82,32
2,76,88,32
2,76,85,128
2,76,85,132
2,72,83,32
2,78,76,8
2,74,78,32
2,71,73,768
2,71,90,96
2,81,90,12
2,79,93,768
2,76,89,16
2,78,72,192
2,74,80,84
2,74,87,96
2,79,90,32
2,81,85,8
2,79,93,192
2,81,88,44
2,81,96,32
2,83,85,12
2,79,82,192
2,76,89,16
2,76,92,96
2,76,89,160
2,76,69,28
2,76,89,96
2,72,80,4
2,76,93,48
2,74,82,0
2,76,75,0
2,76,85,104
2,76,87,116
2,78,78,32
2,78,82,76
2,78,82,128
2,76,92,384
2,74,85,12
2,71,83,144
2,81,92,4
2,79,93,768
2,76,80,560
2,78,82,184
2,74,88,152
2,74,82,116
2,81,90,56
2,79,84,40
2,81,87,384
2,81,87,92
2,83,80,12
2,79,84,192
2,76,89,104
2,76,90,56
2,76,80,168
2,76,80,24
2,76,89,80
2,74,88,16
2,72,67,32
2,76,87,32
2,74,74,0
2,76,80,0
2,76,87,208
2,76,82,120
2,78,82,20
2,78,77,44
2,78,80,88
2,79,86,8
2,79,82,132
2,71,86,11444
2,74,88,28
2,74,92,140
2,71,85,56
2,76,84,4
2,74,76,48
2,74,83,76
2,74,79,104
2,76,83,48
2,74,87,192
2,74,81,80
2,74,76,156
2,76,90,12
2,74,87,44
2,72,91,0
2,74,77,8
2,71,80,12
2,71,88,116
2,74,66,20
2,74,86,96
2,71,63,16
2,76,82,20
2,74,88,36
2,74,82,104
2,74,82,120
2,74,79,60
2,74,82,104
2,74,80,96
2,74,82,160
2,76,92,4
2,74,87,24
2,72,83,384
2,71,78,168
2,71,89,48
2,69,81,32
2,71,80,12
2,72,76,576
2,72,82,104
2,71,82,96
2,69,80,88
2,74,90,72
2,76,89,32
2,74,92,12
2,72,85,12
2,71,83,40
2,71,87,124
2,71,91,128
2,74,87,384
2,79,95,40
2,78,82,96
2,79,73,44
2,76,82,60
2,76,87,104
2,76,86,168
2,72,83,960
2,72,80,136
2,78,100,8
2,78,73,0
2,78,83,0
2,76,90,48
2,78,80,88
2,79,88,20
2,77,93,36
2,77,85,68
2,77,86,144
2,79,87,24
2,77,62,192
2,77,93,120
2,76,84,24
2,74,80,188
2,72,82,192
2,79,89,56
2,75,84,384
2,74,79,0
2,72,87,4
2,72,74,76
2,74,87,0
2,72,85,0
2,71,89,0
2,71,79,136
2,71,85,108
2,74,82,32
2,76,88,32
2,76,85,128
2,76,85,132
2,72,83,32
2,78,76,8
2,74,78,32
2,71,73,768
2,71,90,96
2,81,90,12
2,79,93,768
2,76,89,16
2,78,72,192
2,74,80,84
2,74,87,96
2,79,90,32
2,81,85,8
2,79,93,192
2,81,88,44
2,81,96,32
2,83,85,12
2,79,82,192
2,76,89,16
2,76,92,96
2,76,89,160
2,76,69,28
2,76,89,96
2,72,80,4
2,76,93,48
2,74,82,0
2,76,75,0
2,76,85,104
2,76,87,116
2,78,78,32
2,78,82,76
2,78,82,128
2,76,92,384
2,74,85,12
2,71,83,144
2,81,92,4
2,79,93,768
2,76,80,560
2,78,82,184
2,74,88,152
2,74,82,116
2,81,90,56
2,79,84,40
2,81,87,384
2,81,87,92
2,83,80,12
2,79,84,192
2,76,89,104
2,76,90,56
2,76,80,168
2,76,80,24
2,76,89,80
2,74,88,16
2,72,67,32
2,76,87,32
2,74,74,0
2,76,80,0
2,76,87,208
2,76,82,120
2,78,82,20
2,78,77,44
2,78,80,88
2,79,86,8
2,79,82,132
3,62,92,1704
3,67,103,0
3,62,79,176
3,67,93,0
3,67,107,60
3,62,100,0
3,67,87,212
3,62,85,0
3,62,99,24
3,67,103,0
3,62,81,332
3,67,96,0
3,67,101,112
3,62,89,0
3,60,90,164
3,67,101,0
3,64,101,384
3,67,101,328
3,60,101,0
3,55,95,192
3,55,97,132
3,60,105,0
3,64,99,384
3,66,85,220
3,62,96,0
3,67,99,16
3,67,85,188
3,62,81,0
3,62,92,224
3,67,103,0
3,62,79,176
3,67,93,0
3,67,107,60
3,62,100,0
3,67,87,212
3,62,85,0
3,62,99,24
3,67,103,0
3,62,81,332
3,67,96,0
3,67,101,112
3,62,89,0
3,60,90,164
3,67,101,0
3,64,101,384
3,67,101,328
3,60,101,0
3,55,95,192
3,55,97,132
3,60,105,0
3,64,99,384
3,66,85,220
3,62,96,0
3,67,99,16
3,67,85,188
3,62,81,0
3,62,92,192
3,67,103,0
3,62,79,176
3,67,93,0
3,67,107,60
3,62,100,0
3,67,87,212
3,62,85,0
3,62,99,24
3,67,103,0
3,62,81,332
3,67,96,0
3,67,101,112
3,62,89,0
3,60,90,164
3,67,101,0
3,64,101,384
3,67,101,328
3,60,101,0
3,55,95,192
3,55,97,132
3,60,105,0
3,64,99,384
3,66,85,220
3,62,96,0
3,67,99,16
3,67,85,188
3,62,81,0
3,55,86,192
3,59,90,0
3,52,83,0
3,52,63,136
3,59,82,0
3,52,101,40
3,59,106,0
3,52,75,112
3,60,85,0
3,60,110,44
3,52,82,0
3,52,101,352
3,60,106,0
3,57,92,112
3,48,70,0
3,62,100,132
3,54,94,0
3,54,69,28
3,64,93,0
3,62,101,80
3,54,85,0
3,54,85,88
3,60,103,0
3,55,96,192
3,50,91,0
3,59,94,0
3,50,98,36
3,59,99,0
3,55,102,0
3,54,78,188
3,50,89,0
3,59,90,0
3,59,99,44
3,54,85,0
3,55,92,264
3,59,90,0
3,62,96,0
3,62,98,24
3,59,82,148
3,64,93,132
3,60,95,0
3,64,96,72
3,60,96,0
3,64,99,52
3,60,107,0
3,57,92,28
3,60,92,0
3,66,117,192
3,62,105,0
3,66,83,84
3,62,96,0
3,64,105,0
3,60,99,0
3,66,112,64
3,60,99,0
3,67,98,192
3,62,94,148
3,65,98,0
3,59,94,0
3,65,101,40
3,62,92,0
3,59,92,0
3,62,92,96
3,65,96,0
3,59,90,0
3,64,104,28
3,67,108,0
3,65,87,24
3,62,87,0
3,62,110,108
3,65,102,0
3,60,80,152
3,64,93,0
3,62,105,140
3,55,96,0
3,55,86,16
3,60,96,0
3,63,91,228
3,67,106,0
3,63,99,28
3,60,96,0
3,61,79,16
3,55,99,176
3,62,101,0
3,55,92,80
3,60,96,0
3,60,106,80
3,62,103,4
3,60,79,96
3,59,88,72
3,59,92,216
3,50,79,0
3,55,92,0
3,59,92,120
3,55,92,0
3,50,92,0
3,59,75,0
3,55,78,0
3,62,78,0
3,62,86,0
3,59,74,0
3,64,90,0
3,60,77,0
3,60,92,192
3,64,92,0
3,60,109,0
3,64,92,0
3,60,92,316
3,57,92,0
3,62,92,156
3,66,92,0
3,59,92,0
3,62,92,0
3,59,92,128
3,62,92,0
3,67,110,256
3,62,103,0
3,62,80,196
3,67,87,0
3,67,110,24
3,62,108,0
3,67,89,192
3,62,69,0
3,62,109,16
3,67,111,0
3,62,75,160
3,67,87,0
3,67,110,52
3,62,103,0
3,64,102,336
3,66,89,192
3,62,101,156
3,57,79,160
3,57,86,116
3,62,97,0
3,57,92,92
3,62,105,0
3,62,92,64
3,69,107,36
3,67,94,0
3,69,102,72
3,69,111,100
3,71,96,192
3,67,95,44
3,60,93,168
3,64,96,0
3,60,94,96
3,64,96,0
3,60,104,48
3,64,104,0
3,64,92,44
3,60,82,0
3,64,97,116
3,60,100,0
3,57,97,24
3,60,96,0
3,59,92,80
3,60,92,0
3,64,92,0
3,62,92,96
3,64,92,12
3,60,92,0
3,64,98,112
3,60,96,0
3,60,98,76
3,64,99,0
3,66,110,256
3,62,103,0
3,66,101,108
3,62,100,0
3,66,112,136
3,62,114,0
3,64,106,16
3,60,104,0
3,59,90,20
3,62,92,0
3,59,98,112
3,62,105,0
3,67,99,304
3,62,100,0
3,67,82,196
3,62,78,0
3,62,107,176
3,67,111,0
3,59,92,384
3,62,77,156
3,62,107,100
3,67,109,0
3,67,94,184
3,62,91,0
3,67,87,120
3,62,85,0
3,64,102,16
3,66,89,192
3,62,101,156
3,57,79,160
3,57,86,116
3,62,97,0
3,57,92,92
3,62,105,0
3,62,92,64
3,69,107,36
3,67,94,0
3,69,102,72
3,69,111,100
3,71,96,192
3,67,95,44
3,60,93,168
3,64,96,0
3,60,94,96
3,64,96,0
3,60,104,48
3,64,104,0
3,64,92,44
3,60,82,0
3,64,97,116
3,60,100,0
3,57,97,24
3,60,96,0
3,59,92,80
3,60,92,0
3,64,92,0
3,62,92,96
3,64,92,12
3,60,92,0
3,64,98,112
3,60,96,0
3,60,98,76
3,64,99,0
3,66,110,256
3,62,103,0
3,66,101,108
3,62,100,0
3,66,112,136
3,62,114,0
3,64,106,16
3,60,104,0
3,59,90,20
3,62,92,0
3,59,98,112
3,62,105,0
3,62,92,384
3,67,103,0
3,62,79,176
3,67,93,0
3,67,107,60
3,62,100,0
3,67,87,212
3,62,85,0
3,62,99,24
3,67,103,0
3,62,81,332
3,67,96,0
3,67,101,112
3,62,89,0
3,60,90,164
3,67,101,0
3,64,101,384
3,67,101,328
3,60,101,0
3,55,95,192
3,55,97,132
3,60,105,0
3,64,99,384
3,66,85,220
3,62,96,0
3,67,99,16
3,67,85,188
3,62,81,0
3,62,92,192
3,67,103,0
3,62,79,176
3,67,93,0
3,67,107,60
3,62,100,0
3,67,87,212
3,62,85,0
3,62,99,24
3,67,103,0
3,62,81,332
3,67,96,0
3,67,101,112
3,62,89,0
3,60,90,164
3,67,101,0
3,55,68,0
3,60,85,32
3,64,90,32
3,57,89,0
3,60,92,0
3,66,79,0
3,62,92,192
3,67,103,0
3,62,79,176
3,67,93,0
3,67,107,60
3,62,100,0
3,67,87,212
3,62,85,0
3,62,99,24
3,67,103,0
3,62,81,332
3,67,96,0
3,67,101,112
3,62,89,0
3,60,90,164
3,67,101,0
3,64,101,384
3,67,101,328
3,60,101,0
3,55,95,192
3,55,97,132
3,60,105,0
3,64,99,384
3,66,85,220
3,62,96,0
3,67,99,16
3,67,85,188
3,62,81,0
3,62,92,192
3,67,103,0
3,62,79,176
3,67,93,0
3,67,107,60
3,62,100,0
3,67,87,212
3,62,85,0
3,62,99,24
3,67,103,0
3,62,81,332
3,67,96,0
3,67,101,112
3,62,89,0
3,60,90,164
3,67,101,0
3,64,101,384
3,67,101,328
3,60,101,0
3,55,95,192
3,55,97,132
3,60,105,0
3,64,99,384
3,66,85,220
3,62,96,0
3,67,99,16
3,67,85,188
3,62,81,0
3,55,86,192
3,59,90,0
3,52,83,0
3,52,63,136
3,59,82,0
3,52,101,40
3,59,106,0
3,52,75,112
3,60,85,0
3,60,110,44
3,52,82,0
3,52,101,352
3,60,106,0
3,57,92,112
3,48,70,0
3,62,100,132
3,54,94,0
3,54,69,28
3,64,93,0
3,62,101,80
3,54,85,0
3,54,85,88
3,60,103,0
3,55,96,192
3,50,91,0
3,59,94,0
3,50,98,36
3,59,99,0
3,55,102,0
3,54,78,188
3,50,89,0
3,59,90,0
3,59,99,44
3,54,85,0
3,55,92,264
3,59,90,0
3,62,96,0
3,62,98,24
3,59,82,148
3,64,93,132
3,60,95,0
3,64,96,72
3,60,96,0
3,64,99,52
3,60,107,0
3,57,92,28
3,60,92,0
3,66,117,192
3,62,105,0
3,66,83,84
3,62,96,0
3,64,105,0
3,60,99,0
3,66,112,64
3,60,99,0
3,67,98,192
3,62,94,148
3,65,98,0
3,59,94,0
3,65,101,40
3,62,92,0
3,59,92,0
3,62,92,96
3,65,96,0
3,59,90,0
3,64,104,80
3,67,108,0
3,65,87,24
3,62,87,0
3,62,110,108
3,65,102,0
3,60,80,152
3,64,93,0
3,62,105,140
3,55,96,0
3,55,86,16
3,60,96,0
3,63,91,228
3,67,106,0
3,63,99,28
3,60,96,0
3,61,79,16
3,55,99,176
3,62,101,0
3,55,92,80
3,60,96,0
3,60,106,80
3,62,103,4
3,60,79,96
3,59,88,72
3,59,92,216
3,50,79,0
3,55,92,0
3,59,92,120
3,55,92,0
3,50,92,0
3,59,75,0
3,55,78,0
3,62,78,0
3,62,86,0
3,59,74,0
3,60,77,0
3,64,90,0
3,60,92,192
3,64,92,0
3,60,109,0
3,64,92,0
3,60,92,316
3,57,92,0
3,62,92,156
3,66,92,0
3,59,92,0
3,62,92,0
3,59,92,128
3,62,92,0
3,67,110,256
3,62,103,0
3,62,80,196
3,67,87,0
3,67,110,24
3,62,108,0
3,67,89,192
3,62,69,0
3,62,109,16
3,67,111,0
3,62,75,160
3,67,87,0
3,67,110,52
3,62,103,0
3,64,102,336
3,66,89,192
3,62,101,156
3,57,79,160
3,57,86,116
3,62,97,0
3,57,92,92
3,62,105,0
3,62,92,64
3,69,107,36
3,67,94,0
3,69,102,72
3,69,111,100
3,71,96,192
3,67,95,44
3,60,93,168
3,64,96,0
3,60,94,96
3,64,96,0
3,60,104,48
3,64,104,0
3,64,92,44
3,60,82,0
3,64,97,116
3,60,100,0
3,57,97,24
3,60,96,0
3,59,92,80
3,60,92,0
3,64,92,0
3,62,92,96
3,64,92,12
3,60,92,0
3,64,98,112
3,60,96,0
3,60,98,76
3,64,99,0
3,66,110,256
3,62,103,0
3,66,101,108
3,62,100,0
3,66,112,136
3,62,114,0
3,64,106,16
3,60,104,0
3,59,90,20
3,62,92,0
3,59,98,112
3,62,105,0
3,67,99,304
3,62,100,0
3,67,82,196
3,62,78,0
3,62,107,176
3,67,111,0
3,59,92,384
3,62,77,156
3,62,107,100
3,67,109,0
3,67,94,184
3,62,91,0
3,67,87,120
3,62,85,0
3,64,102,16
3,66,89,192
3,62,101,156
3,57,79,160
3,57,86,116
3,62,97,0
3,57,92,92
3,62,105,0
3,62,92,64
3,69,107,36
3,67,94,0
3,69,102,72
3,69,111,100
3,71,96,192
3,67,95,44
3,60,93,168
3,64,96,0
3,60,94,96
3,64,96,0
3,60,104,48
3,64,104,0
3,64,92,44
3,60,82,0
3,64,97,116
3,60,100,0
3,57,97,24
3,60,96,0
3,59,92,80
3,60,92,0
3,64,92,0
3,62,92,96
3,64,92,12
3,60,92,0
3,64,98,112
3,60,96,0
3,60,98,76
3,64,99,0
3,66,110,256
3,62,103,0
3,66,101,108
3,62,100,0
3,66,112,136
3,62,114,0
3,64,106,16
3,60,104,0
3,59,90,20
3,62,92,0
3,59,98,4
3,62,105,0
3,62,92,384
3,67,103,0
3,62,79,176
3,67,93,0
3,67,107,60
3,62,100,0
3,67,87,212
3,62,85,0
3,62,99,24
3,67,103,0
3,62,81,332
3,67,96,0
3,67,101,112
3,62,89,0
3,60,90,164
3,67,101,0
3,64,101,384
3,67,101,328
3,60,101,0
3,55,95,192
3,55,97,132
3,60,105,0
3,64,99,384
3,66,85,220
3,62,96,0
3,67,99,16
3,67,85,188
3,62,81,0
3,62,92,192
3,67,103,0
