track,note,velocity,time
0,66,127,263
0,63,118,0
0,63,127,1
0,66,107,0
0,58,123,1
0,68,127,17
0,64,119,0
0,59,124,1
0,64,127,0
0,68,119,1
0,35,127,16
0,70,119,0
0,70,127,0
0,66,119,0
0,61,119,0
0,66,123,0
0,61,123,0
0,47,123,0
0,66,112,0
0,70,127,1
0,70,125,0
0,70,123,0
0,58,114,0
0,42,102,3
0,36,107,0
0,54,104,0
0,75,81,11
0,35,116,2
0,42,66,10
0,35,113,1
0,47,72,5
0,56,58,1
0,75,73,8
0,42,108,1
0,38,100,0
0,59,75,0
0,39,97,0
0,40,117,0
0,36,109,0
0,32,127,0
0,56,99,0
0,54,113,0
0,59,40,2
0,42,63,1
0,30,122,0
0,59,55,0
0,64,95,0
0,75,69,0
0,47,73,1
0,59,74,1
0,42,105,1
0,35,127,0
0,36,106,0
0,54,110,0
0,42,63,9
0,56,123,16
0,35,127,6
0,61,101,0
0,63,106,2
0,66,106,0
0,58,106,0
0,76,90,0
0,38,110,3
0,54,113,0
0,39,107,0
0,40,116,0
0,42,105,0
0,36,106,0
0,61,89,10
0,47,82,1
0,30,117,1
0,59,105,0
0,68,105,0
0,64,105,0
0,32,105,4
0,42,72,1
0,56,118,0
0,64,98,0
0,35,118,6
0,59,84,1
0,70,107,1
0,66,114,0
0,61,114,0
0,70,117,0
0,70,117,0
0,58,114,1
0,42,108,1
0,36,107,0
0,35,120,22
0,59,83,0
0,75,85,2
0,54,101,4
0,35,113,8
0,56,71,0
0,42,63,1
0,36,73,0
0,54,101,0
0,62,83,0
0,38,100,23
0,32,127,0
0,56,110,0
0,59,82,0
0,39,97,0
0,40,117,0
0,42,111,0
0,36,107,0
0,54,119,0
0,75,79,0
0,30,113,24
0,54,99,0
0,61,75,0
0,42,56,1
0,64,104,0
0,76,86,0
0,76,77,9
0,42,108,19
0,35,127,0
0,59,75,0
0,36,110,0
0,61,113,0
0,76,91,1
0,42,56,1
0,56,57,0
0,61,110,1
0,35,105,1
0,66,109,2
0,63,107,0
0,58,111,0
0,62,87,0
0,61,76,1
0,42,102,6
0,38,110,0
0,39,107,0
0,40,116,0
0,36,103,0
0,59,98,0
0,62,87,0
0,54,127,0
0,57,97,7
0,42,127,1
0,61,85,1
0,42,73,8
0,41,105,0
0,56,119,0
0,64,108,0
0,46,99,10
0,40,113,0
0,54,109,0
0,56,109,0
0,50,110,0
0,61,109,0
0,54,123,0
0,66,117,1
0,66,117,0
0,54,114,1
0,59,85,1
0,42,62,4
0,36,107,0
0,40,113,24
0,54,116,0
0,59,82,0
0,75,82,0
0,42,67,4
0,40,123,0
0,54,97,0
0,56,71,1
0,62,95,1
0,42,108,22
0,38,100,0
0,52,112,0
0,59,84,0
0,54,127,0
0,39,97,0
0,40,117,0
0,36,109,0
0,37,122,0
0,75,71,0
0,42,61,29
0,35,110,0
0,75,66,0
0,64,108,0
0,56,123,3
0,59,79,0
0,42,105,12
0,36,106,0
0,54,107,0
0,40,108,0
0,42,61,44
0,61,93,0
0,62,86,0
0,40,115,1
0,52,110,0
0,56,101,0
0,59,101,0
0,59,107,1
0,59,116,0
0,76,90,1
0,56,101,4
0,54,97,0
0,61,92,1
0,50,95,0
0,42,105,1
0,38,110,0
0,52,94,0
0,54,127,0
0,39,107,0
0,40,116,0
0,36,106,0
0,40,104,6
0,52,75,0
0,61,97,2
0,41,101,10
0,52,87,0
0,64,106,0
0,42,58,1
0,54,116,8
0,56,102,0
0,42,111,1
0,59,102,0
0,56,99,1
0,61,124,0
0,61,121,0
0,61,89,1
0,52,101,0
0,59,84,0
0,42,105,1
0,36,107,0
0,37,117,17
0,54,104,0
0,59,83,0
0,75,82,0
0,54,113,8
0,42,102,1
0,56,71,0
0,36,73,1
0,42,58,0
0,62,84,2
0,38,100,23
0,37,117,0
0,52,110,0
0,59,82,0
0,39,97,0
0,75,67,0
0,40,117,0
0,36,107,0
0,42,105,0
0,54,127,0
0,32,122,24
0,52,108,0
0,61,75,0
0,64,104,0
0,42,56,1
0,76,86,0
0,42,123,4
0,76,77,0
0,30,113,19
0,54,123,0
0,59,75,0
0,36,110,1
0,42,92,0
0,54,126,0
0,76,91,2
0,56,57,0
0,42,61,1
0,66,105,4
0,54,106,0
0,63,101,0
0,76,91,0
0,30,113,1
0,58,99,0
0,54,119,0
0,62,85,0
0,66,104,1
0,66,104,0
0,61,76,5
0,38,110,1
0,39,107,0
0,40,116,0
0,42,105,0
0,36,103,0
0,62,87,0
0,52,97,0
0,54,127,0
0,68,109,6
0,56,113,0
0,59,96,1
0,64,107,0
0,30,115,1
0,54,104,0
0,61,85,1
0,68,104,0
0,68,113,0
0,32,105,1
0,52,91,0
0,42,80,1
0,64,114,0
0,54,113,9
0,70,111,1
0,46,96,1
0,35,127,0
0,66,114,0
0,61,114,0
0,66,111,0
0,66,102,0
0,61,117,0
0,58,117,0
0,59,85,2
0,70,111,0
0,70,103,0
0,42,60,1
0,36,107,0
0,54,104,0
0,35,116,23
0,75,91,0
0,42,66,10
0,35,113,1
0,62,80,4
0,47,72,1
0,56,58,1
0,78,113,1
0,78,82,0
0,77,117,8
0,77,86,0
0,42,102,1
0,38,100,0
0,59,75,0
0,39,97,0
0,75,74,0
0,40,117,0
0,36,109,0
0,32,127,0
0,56,99,0
0,75,109,0
0,75,78,0
0,54,113,0
0,73,120,6
0,73,89,0
0,59,40,2
0,42,62,1
0,30,122,0
0,59,55,0
0,75,64,0
0,64,106,0
0,47,73,1
0,73,104,0
0,73,62,0
0,59,74,1
0,42,105,1
0,35,127,0
0,36,106,0
0,54,110,0
0,42,65,8
0,56,123,17
0,35,127,6
0,61,101,0
0,54,106,0
0,63,106,2
0,66,106,0
0,58,106,0
0,62,84,0
0,76,90,0
0,66,112,1
0,42,96,2
0,38,110,0
0,54,113,0
0,39,107,0
0,40,116,0
0,36,106,0
0,61,89,10
0,56,113,0
0,47,82,1
0,30,117,1
0,59,105,0
0,68,105,0
0,64,105,0
0,68,109,1
0,32,105,2
0,42,68,1
0,56,118,0
0,64,110,0
0,35,118,6
0,59,84,1
0,66,117,0
0,66,107,0
0,61,117,0
0,70,107,1
0,66,114,0
0,61,114,0
0,58,117,0
0,70,118,2
0,70,108,0
0,42,105,6
0,36,107,0
0,35,120,18
0,59,83,0
0,75,82,0
0,54,101,6
0,42,61,8
0,35,113,0
0,56,71,0
0,36,73,0
0,54,101,0
0,62,85,2
0,78,94,1
0,78,63,0
0,77,103,10
0,77,72,0
0,42,96,1
0,38,100,0
0,32,127,0
0,56,110,0
0,59,82,0
0,39,97,0
0,75,75,0
0,40,117,0
0,36,107,0
0,75,90,0
0,75,59,0
0,54,119,0
0,73,96,6
0,73,65,0
0,30,113,24
0,54,99,0
0,61,75,0
0,42,56,1
0,64,108,0
0,76,86,0
0,73,99,8
0,73,52,0
0,76,77,1
0,35,127,19
0,59,75,0
0,42,99,1
0,36,110,0
0,61,113,0
0,76,91,1
0,56,57,1
0,42,55,2
0,61,110,0
0,35,105,2
0,66,109,1
0,63,107,0
0,58,111,0
0,62,90,0
0,61,76,0
0,42,88,6
0,38,110,0
0,39,107,0
0,40,116,0
0,36,103,0
0,59,98,0
0,62,87,0
0,54,127,0
0,57,97,7
0,35,127,1
0,61,85,1
0,42,90,11
0,37,105,0
0,56,119,0
0,68,112,0
0,73,112,0
0,66,119,0
0,40,119,0
0,56,119,0
0,62,110,0
0,64,114,0
0,40,113,10
0,54,109,0
0,56,109,0
0,50,110,0
0,61,109,0
0,66,126,0
0,66,126,0
0,56,109,0
0,46,93,1
0,54,123,0
0,62,114,0
0,59,85,2
0,42,77,3
0,36,107,0
0,75,75,2
0,40,113,1
0,54,116,0
0,59,82,0
0,40,123,1
0,54,97,0
0,42,79,2
0,56,71,0
0,62,88,0
0,78,94,1
0,78,63,0
0,77,103,10
0,77,72,0
0,42,108,1
0,38,100,0
0,52,112,0
0,59,84,0
0,54,127,0
0,39,97,0
0,40,117,0
0,36,109,0
0,75,90,0
0,75,59,0
0,37,122,0
0,75,78,0
0,73,96,6
0,73,65,0
0,35,110,24
0,64,110,0
0,42,72,1
0,75,72,0
0,73,99,2
0,73,68,0
0,56,123,1
0,59,79,0
0,36,106,13
0,54,107,0
0,42,105,0
0,40,108,0
0,66,89,2
0,66,58,0
0,42,63,8
0,68,95,0
0,68,64,0
0,61,93,0
0,40,115,1
0,52,110,0
0,66,127,1
0,66,123,0
0,71,102,1
0,71,71,0
0,58,95,0
0,63,111,0
0,62,102,0
0,76,90,0
0,56,101,4
0,54,97,0
0,61,92,1
0,50,95,0
0,38,110,1
0,52,94,0
0,54,127,0
0,39,107,0
0,40,116,0
0,42,96,0
0,36,106,0
0,40,104,6
0,52,75,0
0,61,97,2
0,73,114,0
0,73,83,0
0,41,101,3
0,52,87,0
0,71,104,0
0,71,73,0
0,42,62,1
0,64,110,0
0,54,116,6
0,42,111,1
0,63,105,0
0,56,99,1
0,66,123,0
0,52,100,0
0,58,100,0
0,63,100,0
0,66,108,0
0,73,101,0
0,61,89,1
0,52,101,0
0,59,84,0
0,74,82,0
0,58,97,0
0,74,123,6
0,36,107,1
0,42,99,0
0,54,104,17
0,59,83,0
0,37,117,2
0,73,122,0
0,73,91,0
0,75,74,0
0,54,113,9
0,56,71,0
0,42,62,1
0,36,73,0
0,37,96,0
0,74,90,4
0,74,59,0
0,73,81,0
0,73,50,0
0,30,117,1
0,62,87,0
0,71,102,1
0,71,71,0
0,38,100,3
0,32,117,0
0,52,110,0
0,59,82,0
0,39,97,0
0,40,117,0
0,42,96,0
0,36,107,0
0,54,127,0
0,75,85,0
0,73,117,1
0,73,86,0
0,31,113,1
0,71,102,0
0,71,71,0
0,52,108,2
0,61,75,0
0,30,107,1
0,42,61,1
0,68,95,0
0,68,64,0
0,64,114,0
0,76,86,0
0,42,123,3
0,66,90,0
0,66,59,0
0,76,77,0
0,30,127,19
0,54,123,0
0,59,75,0
0,36,110,1
0,42,94,0
0,54,126,0
0,66,94,0
0,32,127,4
0,68,78,2
0,76,91,0
0,42,57,4
0,56,57,0
0,35,117,0
0,70,89,2
0,37,127,3
0,66,105,0
0,63,101,1
0,76,91,0
0,58,99,1
0,54,119,0
0,62,86,0
0,71,88,1
0,78,111,0
0,61,76,5
0,42,94,1
0,38,110,0
0,39,107,0
0,40,116,0
0,36,103,0
0,35,127,0
0,62,87,0
0,52,97,0
0,73,87,0
0,54,127,0
0,32,118,1
0,59,96,1
0,64,107,0
0,68,109,0
0,54,104,0
0,75,81,0
0,80,111,0
0,61,85,0
0,52,91,0
0,64,106,0
0,42,84,1
0,30,103,0
0,76,83,0
0,54,113,2
0,82,127,0
0,78,126,0
0,73,123,0
0,70,111,1
0,46,114,1
0,35,127,0
0,66,114,0
0,61,114,0
0,77,94,0
0,82,110,0
0,59,85,0
0,78,78,2
0,42,102,1
0,36,107,0
0,54,104,0
0,75,81,20
0,35,116,2
0,42,66,10
0,35,113,1
0,47,72,5
0,56,58,1
0,75,73,8
0,42,108,1
0,38,100,0
0,59,75,0
0,39,97,0
0,40,117,0
0,36,109,0
0,32,127,0
0,56,99,0
0,54,113,0
0,59,40,2
0,42,63,1
0,30,122,0
0,59,55,0
0,64,95,0
0,75,69,0
0,47,73,1
0,59,74,1
0,42,105,1
0,35,127,0
0,36,106,0
0,54,110,0
0,75,107,0
0,42,63,2
0,56,123,16
0,35,127,2
0,61,101,0
0,63,106,2
0,66,106,0
0,58,106,0
0,76,90,0
0,78,104,0
0,38,110,3
0,54,113,0
0,39,107,0
0,40,116,0
0,42,105,0
0,36,106,0
0,61,89,10
0,47,82,1
0,30,117,1
0,59,105,0
0,68,105,0
0,64,105,0
0,80,107,0
0,32,105,0
0,42,72,1
0,56,118,0
0,64,98,0
0,35,118,6
0,59,84,1
0,70,107,1
0,66,114,0
0,61,114,0
0,82,111,0
0,42,108,1
0,36,107,0
0,35,120,1
0,59,83,0
0,75,85,2
0,54,101,4
0,35,113,8
0,56,71,0
0,42,63,1
0,36,73,0
0,54,101,0
0,62,83,0
0,38,100,23
0,32,127,0
0,56,110,0
0,59,82,0
0,39,97,0
0,40,117,0
0,42,111,0
0,36,107,0
0,54,119,0
0,75,79,0
0,30,113,24
0,54,99,0
0,61,75,0
0,42,56,1
0,64,104,0
0,76,86,0
0,76,77,9
0,42,108,19
0,35,127,0
0,59,75,0
0,36,110,0
0,61,113,0
0,76,91,1
0,42,56,1
0,56,57,0
0,61,110,1
0,78,110,0
0,35,105,1
0,66,109,2
0,63,107,0
0,58,111,0
0,62,87,0
0,61,76,1
0,42,102,6
0,38,110,0
0,39,107,0
0,40,116,0
0,36,103,0
0,59,98,0
0,62,87,0
0,54,127,0
0,57,97,7
0,35,127,1
0,61,85,1
0,74,111,0
0,42,73,11
0,37,105,0
0,56,119,0
0,64,108,0
0,46,99,10
0,40,113,0
0,54,109,0
0,56,109,0
0,50,110,0
0,61,109,0
0,54,123,0
0,59,85,3
0,73,111,0
0,42,62,5
0,36,107,0
0,40,113,24
0,54,116,0
0,59,82,0
0,75,82,0
0,42,67,4
0,40,123,0
0,54,97,0
0,56,71,1
0,62,95,1
0,42,108,22
0,38,100,0
0,52,112,0
0,59,84,0
0,54,127,0
0,39,97,0
0,40,117,0
0,36,109,0
0,37,122,0
0,75,71,0
0,42,61,29
0,35,110,0
0,75,66,0
0,64,108,0
0,56,123,3
0,59,79,0
0,42,105,12
0,36,106,0
0,54,107,0
0,40,108,0
0,42,61,44
0,71,98,0
0,61,93,0
0,62,86,0
0,40,115,1
0,59,110,0
0,76,90,2
0,56,101,4
0,54,97,0
0,61,92,1
0,50,95,0
0,42,105,1
0,38,110,0
0,59,94,0
0,54,127,0
0,39,107,0
0,40,116,0
0,36,106,0
0,40,104,6
0,59,75,0
0,74,94,0
0,61,97,0
0,41,101,10
0,59,87,0
0,64,106,0
0,42,58,1
0,54,116,8
0,42,111,1
0,56,99,1
0,61,89,1
0,52,101,0
0,59,84,0
0,73,104,0
0,42,105,2
0,36,107,0
0,32,127,17
0,54,104,0
0,59,83,0
0,75,82,0
0,54,113,9
0,37,113,1
0,56,71,0
0,36,73,1
0,42,58,0
0,28,115,2
0,62,84,0
0,38,100,2
0,32,127,0
0,52,110,0
0,59,82,0
0,39,97,0
0,75,67,0
0,40,117,0
0,36,107,0
0,42,105,0
0,54,127,0
0,31,124,3
0,52,108,3
0,61,75,0
0,64,104,0
0,42,56,1
0,30,119,0
0,76,86,0
0,42,123,2
0,76,77,0
0,54,123,19
0,59,75,0
0,36,110,1
0,42,92,0
0,30,127,0
0,54,126,0
0,66,94,0
0,32,127,2
0,68,78,0
0,76,91,0
0,56,57,0
0,42,61,1
0,35,115,0
0,70,89,1
0,66,105,4
0,63,101,1
0,76,91,0
0,37,125,1
0,58,99,0
0,59,119,0
0,62,85,0
0,71,88,1
0,78,104,0
0,61,76,1
0,38,110,1
0,35,120,0
0,39,107,0
0,40,116,0
0,42,105,0
0,36,103,0
0,62,87,0
0,59,97,0
0,73,87,0
0,54,127,0
0,32,119,4
0,68,109,0
0,59,96,1
0,64,107,0
0,59,104,1
0,75,81,0
0,61,85,1
0,80,104,0
0,30,99,1
0,59,91,1
0,42,80,1
0,76,83,0
0,64,114,0
0,35,127,9
0,54,113,0
0,70,111,1
0,46,96,1
0,66,114,0
0,61,114,0
0,77,94,0
0,59,85,2
0,82,111,0
0,78,78,2
0,42,60,1
0,36,107,0
0,54,104,0
0,35,116,24
0,75,91,0
0,42,66,10
0,35,113,1
0,62,80,4
0,47,72,1
0,56,58,1
0,42,102,9
0,38,100,0
0,59,75,0
0,39,97,0
0,75,74,0
0,40,117,0
0,36,109,0
0,32,127,0
0,56,99,0
0,54,113,0
0,59,40,2
0,42,62,1
0,30,122,0
0,59,55,0
0,75,64,0
0,64,106,0
0,47,73,1
0,59,74,1
0,42,105,1
0,35,127,0
0,36,106,0
0,54,110,0
