track,note,velocity,time
1,40,63,1344
1,41,63,24
1,42,65,31
1,43,70,80
1,38,91,93
1,43,69,82
1,38,83,37
1,43,80,71
1,38,85,58
1,31,58,71
1,38,85,0
1,43,89,74
1,38,92,101
1,43,79,92
1,38,92,72
1,43,89,37
1,38,87,61
1,33,60,100
1,38,80,130
1,33,68,72
1,43,91,156
1,38,92,103
1,43,90,160
1,38,88,66
1,43,80,58
1,38,92,63
1,43,91,122
1,38,91,60
1,43,77,64
1,38,92,37
1,31,67,79
1,38,92,119
1,43,82,106
1,38,92,71
1,31,66,133
1,38,92,133
1,43,88,100
1,38,92,50
1,38,92,128
1,33,66,90
1,31,65,157
1,38,92,136
1,43,91,64
1,38,84,69
1,43,84,146
1,38,84,87
1,31,60,87
1,38,92,144
1,43,91,100
1,38,84,117
1,31,55,133
1,38,88,98
1,43,89,95
1,38,92,160
1,31,63,106
1,35,92,112
1,36,92,10
1,38,88,69
1,33,61,58
1,28,17,164
1,38,91,0
1,33,60,119
1,43,91,216
1,38,92,12
1,43,89,77
1,38,92,130
1,43,91,133
1,38,91,85
1,43,87,100
1,38,92,77
1,43,84,140
1,38,83,124
1,43,81,119
1,38,92,130
1,31,56,98
1,38,90,85
1,43,77,116
1,38,71,74
1,43,90,63
1,35,89,74
1,36,91,21
1,38,84,60
1,33,58,95
1,43,92,151
1,38,75,72
1,31,60,103
1,38,90,117
1,43,70,133
1,38,91,93
1,43,69,82
1,38,83,37
1,43,80,71
1,38,85,58
1,31,58,71
1,38,85,109
1,43,89,74
1,38,92,101
1,43,79,92
1,38,92,72
1,43,89,37
1,38,87,61
1,33,60,100
1,38,80,130
1,33,68,72
1,43,91,156
1,38,92,103
1,43,90,160
1,38,88,66
1,43,80,58
1,38,92,63
1,43,91,122
1,38,91,60
1,43,77,64
1,38,92,37
1,31,67,79
1,38,92,119
1,43,82,106
1,38,92,71
1,31,66,133
1,38,92,133
1,43,88,100
1,38,92,50
1,38,92,128
1,33,66,0
1,31,65,157
1,38,92,136
1,43,91,64
1,38,84,69
1,43,84,146
1,38,84,87
1,31,60,87
1,38,92,144
1,43,91,100
1,38,84,117
1,31,55,133
1,38,88,98
1,43,89,95
1,38,92,160
1,31,63,106
1,35,92,112
1,36,92,10
1,38,88,69
1,33,61,58
1,28,17,164
1,38,91,0
1,33,60,119
1,43,91,216
1,38,92,12
1,43,89,77
1,38,92,130
1,43,91,133
1,38,91,85
1,43,87,100
1,38,92,77
1,43,84,140
1,38,83,124
1,43,81,119
1,38,92,130
1,31,56,98
1,38,90,85
1,43,77,116
1,38,71,74
1,43,90,63
1,35,89,74
1,36,91,21
1,38,84,60
1,33,58,95
1,43,92,151
1,38,75,72
1,31,60,103
1,38,90,117
1,43,70,133
1,38,91,93
1,43,69,82
1,38,83,37
1,43,80,71
1,38,85,58
1,31,58,71
1,38,85,109
1,43,89,74
1,38,92,101
1,43,79,92
1,38,92,72
1,43,89,37
1,38,87,61
1,33,60,100
1,38,80,130
1,33,68,72
1,43,91,156
1,38,92,103
1,43,90,160
1,38,88,66
1,43,80,58
1,38,92,63
1,43,91,122
1,38,91,60
1,43,77,64
1,38,92,37
1,31,67,79
1,38,92,119
1,43,82,106
1,38,92,71
1,31,66,133
1,38,92,133
1,43,88,100
1,38,92,50
1,38,92,128
1,33,66,90
1,31,65,157
1,38,92,136
1,43,91,64
1,38,84,69
1,43,84,146
1,38,84,87
1,31,60,87
1,38,92,144
1,43,91,100
1,38,84,117
1,31,55,133
1,38,88,98
1,43,89,95
1,38,92,160
1,31,63,106
1,35,92,112
1,36,92,10
1,38,88,69
1,33,61,58
1,28,17,164
1,38,91,0
1,33,60,119
1,43,91,216
1,38,92,12
1,43,89,77
1,38,92,130
1,43,91,133
1,38,91,85
1,43,87,100
1,38,92,77
1,43,84,140
1,38,83,124
1,43,81,119
1,38,92,130
1,31,56,98
1,38,90,85
1,43,77,116
1,38,71,74
1,43,90,63
1,35,89,74
1,36,91,21
1,38,84,60
1,33,58,95
1,43,92,151
1,38,75,72
1,31,60,103
1,38,90,117
1,43,70,133
1,38,91,93
1,43,69,82
1,38,83,37
1,43,80,71
1,38,85,58
1,31,58,71
1,38,85,109
1,43,89,74
1,38,92,101
1,43,79,92
1,38,92,72
1,43,89,37
1,38,87,61
1,33,60,100
1,38,80,130
1,33,68,72
1,43,91,156
1,38,92,103
1,43,90,160
1,38,88,66
1,43,80,58
1,38,92,63
1,43,91,122
1,38,91,60
1,43,77,64
1,38,92,37
1,31,67,79
1,38,92,119
1,43,82,106
1,38,92,71
1,31,66,133
1,38,92,133
1,43,88,100
1,38,92,50
1,38,92,128
1,33,66,90
1,31,65,157
1,38,92,136
1,43,91,64
1,38,84,69
1,43,84,146
1,38,84,87
1,31,60,87
1,38,92,144
1,43,91,0
1,38,84,117
1,31,55,133
1,38,88,98
1,43,89,95
1,38,92,160
1,31,63,106
1,35,92,112
1,36,92,10
1,38,88,69
1,33,61,58
1,28,17,164
1,38,91,0
1,33,60,119
1,43,91,216
1,38,92,12
1,43,89,77
1,38,92,130
1,43,91,133
1,38,91,85
1,43,87,100
1,38,92,77
1,43,84,140
1,38,83,124
1,43,81,119
1,38,92,130
1,31,56,98
1,38,90,85
1,43,77,116
1,38,71,74
1,43,90,63
1,35,89,74
1,36,91,21
1,38,84,60
1,33,58,95
1,43,92,151
1,38,75,72
1,43,92,103
1,31,60,72
2,67,102,1332
2,62,92,2
2,67,87,15
2,64,87,3
2,67,90,16
2,66,89,0
2,67,73,0
2,67,87,10
2,67,71,3
2,67,87,11
2,62,74,115
2,67,87,19
2,67,78,10
2,67,85,18
2,62,74,4
2,67,87,11
2,62,73,33
2,57,81,80
2,58,50,0
2,59,76,3
2,62,77,16
2,67,76,16
2,64,77,19
2,67,96,11
2,62,92,7
2,67,87,10
2,57,76,121
2,58,50,0
2,62,73,8
2,67,79,5
2,62,83,26
2,55,90,1
2,67,77,17
2,62,63,25
2,57,81,19
2,58,50,0
2,59,79,17
2,62,78,19
2,67,79,15
2,67,85,36
2,62,74,2
2,67,90,16
2,62,73,37
2,67,85,14
2,67,75,13
2,62,73,23
2,67,86,15
2,67,75,7
2,62,73,45
2,67,75,13
2,67,76,21
2,65,83,82
2,62,74,27
2,64,80,64
2,67,73,3
2,62,82,62
2,61,80,205
2,62,74,0
2,62,79,21
2,67,76,3
2,62,60,55
2,62,82,21
2,67,76,3
2,61,78,39
2,62,74,0
2,62,79,27
2,61,73,35
2,62,67,0
2,62,76,29
2,67,79,5
2,62,62,46
2,62,76,24
2,67,67,34
2,62,74,83
2,67,97,21
2,67,84,1
2,67,79,10
2,62,74,62
2,67,76,19
2,67,73,13
2,62,74,21
2,67,86,0
2,67,76,12
2,62,78,117
2,57,73,82
2,58,50,0
2,59,70,30
2,62,73,20
2,67,79,17
2,64,70,21
2,67,99,10
2,62,82,4
2,57,77,170
2,58,50,0
2,59,68,16
2,67,85,9
2,62,83,32
2,58,58,85
2,57,82,0
2,59,73,32
2,55,85,56
2,62,76,22
2,67,85,10
2,59,73,35
2,55,90,2
2,62,79,25
2,57,90,14
2,58,53,0
2,59,76,25
2,64,81,18
2,67,83,22
2,62,73,50
2,59,73,37
2,58,60,69
2,57,79,0
2,62,78,30
2,55,80,44
2,59,77,37
2,52,85,11
2,62,75,25
2,50,79,61
2,52,73,0
2,59,73,34
2,55,88,0
2,62,82,20
2,57,91,20
2,58,56,0
2,59,73,18
2,67,92,23
2,62,86,21
2,57,88,75
2,58,54,0
2,59,72,26
2,67,93,6
2,62,79,18
2,57,87,73
2,58,54,0
2,59,77,32
2,67,87,6
2,62,66,24
2,50,79,75
2,52,79,0
2,59,75,4
2,55,89,68
2,67,108,16
2,64,88,3
2,67,96,11
2,62,93,5
2,67,88,6
2,57,89,53
2,58,56,0
2,62,84,11
2,67,82,24
2,62,66,28
2,55,84,115
2,52,82,88
2,62,76,42
2,50,79,1
2,67,93,11
2,57,98,11
2,58,60,0
2,62,82,5
2,67,85,18
2,62,91,29
2,55,91,1
2,67,89,12
2,57,84,48
2,58,54,0
2,62,82,16
2,55,82,98
2,52,77,66
2,50,69,0
2,62,82,16
2,55,86,64
2,61,80,9
2,62,74,0
2,62,92,54
2,67,87,88
2,62,74,41
2,62,84,9
2,67,79,8
2,62,74,88
2,67,110,11
2,67,102,5
2,67,84,6
2,62,70,34
2,67,81,12
2,67,80,10
2,67,82,18
2,62,74,4
2,67,79,16
2,62,60,48
2,67,80,11
2,67,70,11
2,62,84,78
2,67,90,15
2,64,80,3
2,67,92,11
2,62,87,2
2,57,67,203
2,58,50,0
2,59,78,38
2,67,81,8
2,58,60,116
2,57,78,0
2,62,85,11
2,67,78,10
2,55,93,22
2,62,90,16
2,57,71,19
2,58,50,0
2,59,86,24
2,62,87,13
2,67,79,19
2,61,80,45
2,62,74,0
2,67,82,53
2,67,81,7
2,62,74,36
2,67,96,12
2,67,83,5
2,62,74,21
2,67,93,21
2,67,76,5
2,61,80,84
2,62,74,0
2,62,90,32
2,67,74,64
2,65,97,26
2,62,74,28
2,64,101,87
2,67,67,18
2,62,93,36
2,61,80,206
2,62,74,0
2,62,84,39
2,67,89,46
2,62,73,39
2,62,81,1
2,67,69,10
2,61,80,54
2,62,74,0
2,62,74,40
2,67,80,8
2,62,67,38
2,64,90,21
2,62,74,11
2,62,84,70
2,67,73,6
2,62,74,39
2,62,74,31
2,67,98,113
2,67,75,3
2,62,74,44
2,67,85,21
2,67,72,20
2,67,91,15
2,67,96,6
2,62,81,96
2,57,76,79
2,58,50,0
2,59,78,46
2,62,81,7
2,67,79,16
2,62,81,21
2,64,70,0
2,67,89,5
2,62,93,0
2,57,76,201
2,58,50,0
2,59,81,29
2,67,87,8
2,58,57,18
2,57,68,0
2,62,90,21
2,67,81,13
2,55,84,30
2,62,76,32
2,57,69,19
2,58,50,0
2,59,78,44
2,62,83,21
2,67,90,12
2,64,93,27
2,67,98,8
2,62,92,7
2,67,93,26
2,58,59,117
2,57,80,0
2,62,83,21
2,67,77,19
2,62,84,24
2,55,82,121
2,52,73,63
2,62,79,20
2,50,72,69
2,52,69,0
2,59,77,50
2,55,78,11
2,62,80,13
2,57,84,14
2,58,50,0
2,59,78,25
2,67,90,53
2,62,87,19
2,57,78,77
2,58,50,0
2,59,73,30
2,67,94,11
2,62,81,20
2,57,78,78
2,58,50,0
2,59,78,29
2,62,46,1
2,67,89,11
2,55,93,128
2,50,80,66
2,51,83,19
2,52,82,26
2,64,101,208
2,67,75,89
2,62,87,37
2,59,73,27
2,58,53,71
2,57,74,2
2,62,73,30
2,55,71,70
2,59,69,41
2,52,78,82
2,50,65,0
2,62,76,19
2,67,86,8
2,57,86,13
2,58,53,1
2,62,83,10
2,67,81,8
2,58,60,16
2,62,77,35
2,57,63,3
2,55,82,10
2,62,95,29
2,67,88,8
2,57,100,51
2,62,89,29
2,58,60,0
2,67,80,16
2,62,99,23
2,55,101,1
2,67,93,18
2,55,83,43
2,62,90,26
2,55,97,27
2,50,78,77
2,67,72,188
2,62,61,5
2,55,50,2
2,67,66,13
2,55,68,84
2,62,60,18
2,67,55,14
2,55,87,32
2,62,65,16
2,67,61,21
2,55,59,40
2,52,60,21
2,50,50,0
2,62,58,9
2,67,61,11
2,57,81,114
2,62,58,0
2,58,60,1
2,67,59,6
2,62,72,22
2,55,87,3
2,67,65,16
2,55,50,59
2,62,69,28
2,67,42,14
2,55,69,44
2,62,60,26
2,67,56,15
2,55,75,40
2,50,66,70
2,62,58,29
2,52,61,13
2,55,81,26
2,52,64,17
2,50,59,0
2,62,56,0
2,55,72,0
2,67,70,195
2,55,65,41
2,62,54,33
2,67,56,15
2,55,66,26
2,62,61,27
2,67,58,14
2,55,76,34
2,53,62,29
2,62,64,30
2,52,63,40
2,55,69,12
2,51,66,3
2,62,58,30
2,50,66,52
2,67,62,7
2,66,41,144
2,50,61,29
2,62,66,112
2,66,66,24
2,67,61,14
2,62,75,42
2,61,80,201
2,62,65,0
2,62,73,18
2,67,62,6
2,62,60,46
2,62,65,15
2,67,69,24
2,58,60,82
2,57,55,1
2,62,52,41
2,55,75,8
2,62,68,16
2,67,65,16
2,55,76,34
2,52,65,67
2,50,50,1
2,62,61,10
2,55,72,10
2,67,74,10
2,55,61,35
2,62,67,29
2,67,64,19
2,55,79,29
2,62,63,32
2,67,58,11
2,55,67,37
2,52,65,8
2,50,67,0
2,62,64,16
2,67,72,10
2,57,77,134
2,58,60,0
2,62,64,16
2,67,55,12
2,62,75,25
2,55,87,4
2,67,70,11
2,55,76,43
2,62,71,14
2,67,61,18
2,55,67,34
2,62,64,30
2,57,66,22
2,58,58,0
2,59,55,45
2,62,65,13
2,67,61,15
2,62,57,26
2,59,60,28
2,58,60,0
2,57,66,0
2,62,51,19
2,55,66,45
2,59,47,47
2,52,67,70
2,50,55,0
2,62,61,27
2,67,66,8
2,57,72,118
2,58,60,0
2,62,66,3
2,67,59,17
2,62,69,36
2,55,82,9
2,61,80,203
2,62,70,0
2,62,62,27
2,67,65,12
2,62,60,48
2,62,60,19
2,67,61,19
2,61,80,40
2,62,73,0
2,67,63,71
2,61,79,30
2,62,60,0
2,67,65,24
2,67,66,9
2,62,60,48
2,67,70,13
2,67,64,3
2,58,60,31
2,57,69,2
2,62,58,57
2,55,68,54
2,62,62,29
2,67,55,5
2,55,79,37
2,53,66,32
2,52,62,0
2,62,62,35
2,50,69,39
2,67,66,8
2,55,51,112
2,62,58,24
2,55,66,31
2,52,66,11
2,62,65,14
2,55,69,74
2,67,69,8
2,55,43,58
2,62,63,37
2,67,55,17
2,55,66,32
2,62,61,27
2,67,55,10
2,55,69,38
2,52,63,6
2,50,48,0
2,62,60,20
2,67,63,14
2,57,73,107
2,58,60,0
2,62,51,3
2,67,61,18
2,55,77,25
2,62,75,0
2,67,53,11
2,55,49,66
2,62,55,16
2,67,44,10
2,55,59,37
2,62,54,29
2,67,50,8
2,55,49,38
2,52,48,18
2,62,54,34
2,67,50,11
2,55,53,117
2,62,42,29
2,67,51,21
2,62,56,26
2,55,70,1
2,67,52,13
2,55,46,61
2,62,43,29
2,67,40,20
2,55,61,40
2,62,40,49
2,67,53,8
2,67,67,14
2,66,61,5
2,67,50,0
2,62,65,54
2,59,50,125
2,58,53,29
2,57,50,0
2,62,48,29
2,55,67,38
2,67,71,11
2,55,52,56
2,62,57,25
2,67,44,14
2,55,62,35
2,62,44,42
2,67,55,10
2,55,53,32
2,62,53,26
2,67,48,24
2,62,51,30
2,55,58,6
2,53,48,34
2,52,47,2
2,62,47,38
2,50,46,56
2,57,55,123
2,62,53,43
2,50,43,13
2,57,54,31
2,62,57,29
2,50,43,21
2,57,49,32
2,62,47,24
2,50,43,24
2,57,46,24
2,64,71,23
2,65,57,0
2,67,48,3
2,64,42,0
2,55,53,11
2,64,53,17
2,67,48,12
2,62,59,30
2,67,62,16
2,55,59,39
2,62,47,26
2,67,48,14
2,55,56,26
2,62,45,26
2,67,46,8
2,55,57,29
2,52,51,40
2,50,34,0
2,62,40,23
2,67,46,8
2,57,59,116
2,58,50,0
2,62,46,11
2,67,45,18
2,57,59,76
2,58,50,0
2,62,44,32
2,57,53,82
2,58,50,0
2,62,51,12
2,67,54,14
2,58,60,101
2,57,58,0
2,62,46,27
2,67,45,19
2,62,61,26
2,55,63,4
2,67,55,13
2,55,37,67
2,62,44,35
2,55,62,24
2,52,47,67
2,62,52,19
2,55,59,72
2,67,53,10
2,55,59,67
2,62,51,29
2,67,48,18
2,55,58,37
2,62,47,33
2,67,46,12
2,55,53,37
2,52,53,83
2,50,35,2
2,62,48,27
2,67,56,8
2,57,64,121
2,58,56,2
2,62,47,6
2,67,48,15
2,62,64,21
2,55,52,7
2,67,51,21
2,55,34,62
2,62,49,27
2,55,51,28
2,52,45,11
2,62,43,4
2,57,54,16
2,58,50,0
2,59,49,43
2,67,59,17
2,62,38,43
2,57,53,69
