track,note,velocity,time
1,43,93,948
1,38,89,416
1,38,84,228
1,43,84,80
1,42,90,96
1,40,97,78
1,35,84,428
1,35,71,260
1,40,75,92
1,38,75,66
1,36,94,68
1,43,91,396
1,43,81,284
1,40,78,72
1,36,60,82
1,38,91,98
1,38,85,430
1,38,93,272
1,40,84,102
1,42,97,76
1,43,93,76
1,38,89,416
1,38,84,228
1,43,84,80
1,42,90,96
1,40,97,78
1,35,84,428
1,35,71,260
1,40,75,92
1,38,75,66
1,36,94,68
1,43,91,396
1,43,81,284
1,40,78,72
1,36,60,82
1,38,91,98
1,38,85,430
1,38,93,272
1,40,84,102
1,42,97,76
1,43,93,76
1,38,89,416
1,38,84,228
1,43,84,80
1,42,90,96
1,40,97,78
1,35,84,428
1,35,71,260
1,40,75,92
1,38,75,66
1,36,94,68
1,43,91,396
1,43,81,284
1,40,78,72
1,36,60,82
1,38,91,98
1,38,85,430
1,38,93,272
1,40,84,102
1,42,97,76
1,43,93,76
1,38,89,416
1,38,84,228
1,43,84,80
1,42,90,96
1,40,97,78
1,35,84,428
1,35,71,260
1,40,75,92
1,38,75,66
1,36,94,68
1,43,91,396
1,43,81,284
1,40,78,72
1,36,60,82
1,38,91,98
1,38,85,430
1,38,93,272
1,40,84,102
1,42,97,76
1,43,93,76
1,38,89,416
1,38,84,228
1,43,84,80
1,42,90,96
1,40,97,78
1,35,84,428
1,35,71,260
1,40,75,92
1,38,75,66
1,36,94,68
1,43,91,396
1,43,81,284
1,40,78,72
1,36,60,82
1,38,91,98
1,38,85,430
1,38,93,272
1,40,84,102
1,42,97,76
1,43,93,76
1,38,89,416
1,38,84,228
1,43,84,80
1,42,90,96
1,40,97,78
1,35,84,428
1,35,71,260
1,40,75,92
1,38,75,66
1,36,94,68
1,43,91,396
1,43,81,284
1,40,78,72
1,36,60,82
1,38,91,98
1,38,85,430
1,38,93,272
1,40,84,102
1,42,97,76
1,43,93,76
1,38,89,416
1,38,84,228
1,43,84,80
1,42,90,96
1,40,97,78
1,35,84,428
1,35,71,260
1,40,75,92
1,38,75,66
1,36,94,68
1,43,91,396
1,43,81,284
1,40,78,72
1,36,60,82
1,38,91,98
1,38,85,430
1,38,93,272
1,40,84,102
1,42,97,76
1,43,93,76
1,38,89,416
1,38,84,228
1,43,84,80
1,42,90,96
1,40,97,78
1,35,84,428
1,35,71,260
1,40,75,92
1,38,75,66
1,36,94,68
1,43,91,396
1,43,81,284
1,40,78,72
1,36,60,82
1,38,91,98
1,38,85,430
1,38,93,272
1,40,84,102
1,42,97,76
1,43,93,76
1,38,89,416
1,38,84,228
1,43,84,80
1,42,90,96
1,40,97,78
1,35,84,428
1,35,71,260
1,40,75,92
1,38,75,66
1,36,94,68
1,43,91,396
1,43,81,284
1,40,78,72
1,36,60,82
1,38,91,98
1,38,85,430
1,38,93,272
1,40,84,102
1,42,97,76
1,43,93,76
1,38,89,416
1,38,84,228
1,43,84,80
1,42,90,96
1,40,97,78
1,35,84,428
1,35,71,260
1,40,75,92
1,38,75,66
1,36,94,68
1,43,91,396
1,43,81,284
1,40,78,72
1,36,60,82
1,38,91,98
1,38,85,430
1,38,93,272
1,40,84,102
1,42,97,76
1,43,93,76
1,38,89,416
1,38,84,228
1,43,84,80
1,42,90,96
1,40,97,78
1,35,84,428
1,35,71,260
1,40,75,92
1,38,75,66
1,36,94,68
1,43,91,396
1,43,81,284
1,40,78,72
1,36,60,82
1,38,91,98
1,38,85,430
1,38,93,272
1,40,84,102
1,42,97,76
1,43,93,76
1,38,89,416
1,38,84,228
1,43,84,80
1,42,90,96
1,40,97,78
1,35,84,428
1,35,71,260
1,40,75,92
1,38,75,66
1,36,94,68
1,43,91,396
1,43,81,284
1,40,78,72
1,36,60,82
1,38,91,98
1,38,85,430
1,43,104,76
1,41,88,94
1,40,91,86
1,38,91,100
1,36,80,120
1,40,87,202
1,45,87,204
1,43,72,162
1,36,86,156
1,39,86,210
1,45,79,188
1,43,67,178
1,31,91,176
1,35,77,162
1,40,87,184
1,38,79,178
1,31,91,202
1,35,81,130
1,43,85,172
1,41,68,104
1,40,72,90
1,38,79,94
1,36,97,86
1,40,89,172
1,45,93,180
1,43,75,150
1,36,80,172
1,39,95,148
1,45,73,182
1,43,73,134
1,38,91,384
1,38,119,128
1,38,107,432
1,38,119,120
1,38,104,470
1,38,101,254
1,38,116,246
1,38,113,250
1,43,93,66
1,38,89,416
1,38,84,228
1,43,84,80
1,42,90,96
1,40,97,78
1,35,84,428
1,35,71,260
1,40,75,92
1,38,75,66
1,36,94,68
1,43,91,396
1,43,81,284
1,40,78,72
1,36,60,82
1,38,91,98
1,38,85,430
1,38,93,272
1,40,84,102
1,42,97,76
1,43,93,76
1,38,89,416
1,38,84,228
1,43,84,80
1,42,90,96
1,40,97,78
1,35,84,428
1,35,71,260
1,40,75,92
1,38,75,66
1,36,94,68
1,43,91,396
1,43,81,284
1,40,78,72
1,36,60,82
1,38,91,98
1,38,85,430
1,38,93,272
1,40,84,102
1,42,97,76
1,43,93,76
1,38,89,416
1,38,84,228
1,43,84,80
1,42,90,96
1,40,97,78
1,35,84,428
1,35,71,260
1,40,75,92
1,38,75,66
1,36,94,68
1,43,91,396
1,43,81,284
1,40,78,72
1,36,60,82
1,38,91,98
1,38,85,430
1,38,93,272
1,40,84,102
1,42,97,76
1,43,93,76
1,38,89,416
1,38,84,228
1,43,84,80
1,42,90,96
1,40,97,78
1,35,84,428
1,35,71,260
1,40,75,92
1,38,75,66
1,36,94,68
1,43,91,396
1,43,81,284
1,40,78,72
1,36,60,82
1,38,91,98
1,38,85,430
1,38,93,272
1,40,84,102
1,42,97,76
1,43,93,76
1,38,89,416
1,38,84,228
1,43,84,80
1,42,90,96
1,40,97,78
1,35,84,428
1,35,71,260
1,40,75,92
1,38,75,66
1,36,94,68
1,43,91,396
1,43,81,284
1,40,78,72
1,36,60,82
1,38,91,98
1,38,85,430
1,38,93,272
1,40,84,102
1,42,97,76
1,43,93,76
1,38,89,416
1,38,84,228
1,43,84,80
1,42,90,96
1,40,97,78
1,35,84,428
1,35,71,260
1,40,75,92
1,38,75,66
1,36,94,68
1,43,91,396
1,43,81,284
1,40,78,72
1,36,60,82
1,38,91,98
1,38,85,430
1,38,93,272
1,40,84,20
1,42,97,76
1,43,93,96
1,38,89,22
1,38,84,52
1,43,84,42
1,42,90,96
1,40,97,72
1,35,84,10
1,35,71,40
1,40,75,44
1,38,75,30
1,36,94,86
1,43,91,56
2,67,87,1078
2,71,83,4
2,74,91,6
2,71,83,140
2,67,7,170
2,71,79,158
2,74,75,158
2,67,83,132
2,64,91,164
2,64,71,236
2,67,83,18
2,71,99,64
2,67,95,152
2,64,95,162
2,67,91,158
2,71,91,146
2,64,83,136
2,60,63,172
2,60,91,222
2,64,87,0
2,67,79,2
2,64,91,156
2,60,87,172
2,64,71,154
2,67,83,164
2,60,79,154
2,62,79,164
2,62,75,226
2,66,103,12
2,69,99,62
2,66,99,138
2,66,83,330
2,69,91,132
2,66,83,124
2,67,79,160
2,67,83,156
2,71,83,60
2,74,87,54
2,79,51,34
2,71,83,156
2,67,79,144
2,71,87,150
2,74,83,146
2,67,83,136
2,64,55,166
2,64,55,224
2,67,83,14
2,71,95,4
2,67,83,134
2,64,75,166
2,67,79,160
2,71,83,156
2,64,71,142
2,60,75,146
2,60,79,218
2,64,67,68
2,67,87,44
2,64,87,154
2,60,51,154
2,64,83,150
2,67,75,152
2,60,71,162
2,62,83,152
2,62,79,174
2,66,91,2
2,69,87,66
2,66,103,212
2,62,67,146
2,66,91,146
2,69,75,134
2,62,91,156
2,67,83,160
2,67,67,226
2,71,83,20
2,74,99,68
2,71,87,162
2,67,67,178
2,71,79,158
2,74,75,122
2,67,83,170
2,64,67,174
2,64,79,222
2,67,87,16
2,71,39,56
2,67,103,160
2,64,35,172
2,67,79,156
2,71,87,158
2,64,71,166
2,60,83,170
2,60,75,170
2,64,91,66
2,67,99,50
2,64,95,196
2,60,83,168
2,64,79,156
2,67,39,164
2,60,67,162
2,62,71,172
2,62,63,216
2,66,95,14
2,69,107,34
2,66,103,158
2,62,63,172
2,66,103,152
2,69,75,156
2,66,103,160
2,67,79,184
2,67,75,218
2,71,63,16
2,74,55,2
2,71,87,166
2,67,71,168
2,71,75,154
2,74,59,158
2,67,59,162
2,64,71,162
2,64,75,224
2,67,83,6
2,71,87,68
2,67,63,164
2,64,63,160
2,67,63,156
2,71,63,148
2,64,63,156
2,60,87,368
2,64,83,52
2,67,83,2
2,64,91,160
2,60,75,156
2,64,75,148
2,67,31,130
2,60,75,154
2,62,83,154
2,62,79,176
2,66,71,64
2,69,87,54
2,66,99,208
2,62,1,162
2,66,87,152
2,69,75,128
2,66,95,156
2,67,83,174
2,67,67,226
2,71,83,20
2,74,99,68
2,71,87,162
2,67,67,178
2,71,79,158
2,74,75,122
2,67,83,170
2,64,67,174
2,64,79,222
2,67,87,16
2,71,39,56
2,67,103,160
2,64,35,172
2,67,79,156
2,71,87,158
2,64,71,166
2,60,83,170
2,60,75,170
2,64,91,66
2,67,99,50
2,64,95,196
2,60,83,168
2,64,79,156
2,67,39,164
2,60,67,162
2,62,71,172
2,62,63,216
2,66,95,14
2,69,107,34
2,66,103,158
2,62,63,172
2,66,103,152
2,69,75,156
2,66,103,160
2,67,79,184
2,67,75,218
2,71,63,16
2,74,55,2
2,71,87,166
2,67,71,168
2,71,75,154
2,74,59,158
2,67,59,162
2,64,71,162
2,64,75,224
2,67,83,6
2,71,87,68
2,67,63,164
2,64,63,160
2,67,63,156
2,71,63,148
2,64,63,156
2,60,87,368
2,64,83,52
2,67,83,2
2,64,91,160
2,60,75,156
2,64,75,148
2,67,31,130
2,60,75,154
2,62,83,154
2,62,79,176
2,66,71,64
2,69,87,54
2,66,99,208
2,62,1,162
2,66,87,152
2,69,75,128
2,66,95,156
2,67,87,426
2,71,83,4
2,74,91,6
2,71,83,140
2,67,7,170
2,71,79,158
2,74,75,158
2,67,83,132
2,64,91,164
2,64,71,236
2,67,83,18
2,71,99,64
2,67,95,152
2,64,95,162
2,67,91,158
2,71,91,146
2,64,83,136
2,60,63,172
2,60,91,222
2,64,87,0
2,67,79,2
2,64,91,156
2,60,87,172
2,64,71,154
2,67,83,164
2,60,79,154
2,62,79,164
2,62,75,226
2,66,103,12
2,69,99,62
2,66,99,138
2,66,83,330
2,69,91,132
2,66,83,124
2,67,79,160
2,67,75,212
2,71,87,64
2,74,87,56
2,71,83,146
2,79,71,168
2,71,83,118
2,74,75,162
2,67,63,160
2,64,79,362
2,67,79,6
2,71,91,60
2,67,75,142
2,76,39,166
2,67,87,146
2,71,71,158
2,64,107,144
2,60,75,418
2,64,84,66
2,67,95,2
2,64,95,146
2,72,91,166
2,64,99,116
2,67,79,152
2,60,83,148
2,62,87,414
2,66,83,66
2,69,79,0
2,66,103,160
2,74,67,146
2,66,87,144
2,69,79,136
2,62,95,140
2,67,79,410
2,71,66,62
2,74,79,20
2,71,83,160
2,79,75,162
2,71,91,128
2,74,79,144
2,67,91,158
2,64,87,358
2,67,87,64
2,71,79,60
2,67,75,168
2,76,59,164
2,67,87,148
2,71,79,164
2,64,99,152
2,60,79,424
2,64,75,66
2,67,79,26
2,64,75,152
2,72,83,166
2,64,75,116
2,67,71,152
2,60,83,148
2,62,83,348
2,66,83,64
2,69,87,56
2,66,95,164
2,74,71,136
2,66,91,116
2,69,71,140
2,62,95,154
2,67,75,412
2,71,87,64
2,74,87,56
2,71,83,146
2,79,71,168
2,71,83,118
2,74,75,162
2,67,63,160
2,64,79,362
2,67,79,6
2,71,91,60
2,67,75,142
2,76,39,166
2,67,87,146
2,71,71,158
2,64,107,144
2,60,75,418
2,64,84,66
2,67,95,2
2,64,95,146
2,72,91,166
2,64,99,116
2,67,79,152
2,60,83,148
2,62,87,414
2,66,83,66
2,69,79,0
2,66,103,160
2,74,67,146
2,66,87,144
2,69,79,136
2,62,95,140
2,67,79,410
2,71,66,62
2,74,79,20
2,71,83,160
2,79,75,162
2,71,91,128
2,74,79,144
2,67,91,158
2,64,87,358
2,67,87,64
2,71,79,60
2,67,75,168
2,76,59,164
2,67,87,148
2,71,79,164
2,64,99,152
2,60,79,424
2,64,75,66
2,67,79,26
2,64,75,152
2,72,83,166
2,64,75,116
2,67,71,152
2,60,83,148
2,62,83,348
2,66,83,64
2,69,87,56
2,66,95,164
2,74,71,136
2,66,91,116
2,69,71,140
2,62,95,154
2,67,75,412
2,71,87,64
2,74,87,56
2,71,83,146
2,79,71,168
2,71,83,118
2,74,75,162
2,67,63,160
2,64,79,362
2,67,79,6
2,71,91,60
2,67,75,142
2,76,39,166
2,67,87,146
2,71,71,158
2,64,107,144
2,60,75,418
2,64,84,66
2,67,95,2
2,64,95,146
2,72,91,166
2,64,99,116
2,67,79,152
2,60,83,148
2,62,87,414
2,66,83,66
2,69,79,0
2,66,103,160
2,74,67,146
2,66,87,144
2,69,79,136
2,62,95,140
2,62,87,9580
2,57,87,4
2,57,79,74
2,62,79,6
2,62,87,440
2,57,91,4
2,57,87,82
2,62,87,4
2,62,91,426
2,57,91,0
2,62,79,220
2,57,79,4
2,62,91,254
2,57,91,0
2,62,87,244
2,57,87,0
2,67,83,310
2,71,83,64
2,74,63,8
2,71,87,148
2,79,75,142
2,71,87,136
2,74,87,160
2,67,91,128
2,64,87,410
2,67,87,66
2,71,83,2
2,67,79,158
2,76,67,160
2,67,87,142
2,71,83,158
2,64,75,138
2,60,79,422
2,64,95,66
2,67,43,8
2,64,99,168
2,72,79,136
2,64,95,126
2,67,83,160
2,60,87,134
2,62,79,404
2,66,79,64
2,69,87,36
2,66,103,152
2,74,71,136
2,66,99,124
2,69,79,138
2,62,71,134
2,67,83,414
2,71,83,64
2,74,63,8
2,71,87,148
2,79,75,142
2,71,87,136
2,74,87,160
2,67,91,128
2,64,87,410
2,67,87,66
2,71,83,2
2,67,79,158
2,76,67,160
2,67,87,142
2,71,83,158
2,64,75,138
2,60,79,422
2,64,95,66
2,67,43,8
2,64,99,168
2,72,79,136
2,64,95,126
2,67,83,160
2,60,87,134
2,62,79,404
2,66,79,64
2,69,87,36
2,66,103,152
2,74,71,136
2,66,99,124
2,69,79,138
2,62,71,134
2,67,83,414
2,71,83,64
2,74,63,8
2,71,87,148
2,71,87,334
2,74,87,160
2,67,91,128
2,64,87,410
2,67,87,66
2,71,83,2
2,67,79,158
2,76,67,160
2,67,87,142
2,71,83,158
2,64,75,138
2,60,79,422
2,64,95,66
2,67,43,8
2,64,99,168
2,64,95,326
2,67,83,160
2,60,87,134
2,62,79,404
2,66,79,64
2,69,87,36
2,66,103,152
2,74,71,136
2,66,99,124
2,69,79,138
2,62,71,134
2,67,83,414
2,71,83,64
2,74,63,8
2,71,87,148
2,71,87,334
2,74,87,160
2,67,91,128
2,64,87,410
2,67,87,66
2,71,83,2
2,67,79,158
2,76,67,160
2,67,87,142
2,71,83,158
2,64,75,138
2,60,79,422
2,64,95,66
2,67,43,8
2,64,99,168
2,64,95,326
2,67,83,160
2,60,87,134
2,62,79,404
2,66,79,64
2,69,87,36
2,66,103,152
2,74,71,136
2,66,99,124
2,69,79,138
2,62,71,134
2,67,83,414
2,71,83,64
2,74,63,8
2,71,87,148
2,71,87,334
2,74,87,160
2,67,91,128
2,64,87,410
2,67,87,66
2,71,83,2
2,67,79,158
2,67,87,352
2,71,83,158
2,64,75,138
2,60,79,422
2,64,95,66
2,67,43,8
2,64,99,168
2,64,95,326
2,67,83,160
2,60,87,134
2,62,79,404
2,66,79,64
2,69,87,36
2,66,103,152
2,74,71,136
2,66,99,124
2,69,79,138
2,62,71,134
2,67,83,414
2,71,83,64
2,74,63,8
2,71,87,148
2,79,75,142
2,71,87,136
2,74,87,160
2,67,91,128
2,64,87,410
2,67,87,66
2,71,83,2
2,67,79,158
2,67,87,352
2,71,83,158
2,64,75,138
2,60,79,422
