track,note,velocity,time
1,43,87,1538
1,43,74,118
1,38,83,6
1,38,71,86
1,43,77,2
1,43,70,70
1,38,89,192
1,38,89,120
1,43,71,16
1,42,81,192
1,41,94,2
1,41,81,102
1,36,92,74
1,36,80,122
1,41,83,28
1,41,87,106
1,36,89,38
1,31,85,78
1,33,85,42
1,34,84,18
1,36,80,86
1,36,80,182
1,31,92,12
1,31,77,128
1,36,75,34
1,36,80,98
1,31,89,192
1,31,83,100
1,33,74,198
1,34,72,84
1,36,92,102
1,36,75,102
1,31,81,26
1,31,69,96
1,36,77,50
1,36,74,72
1,31,94,138
1,31,99,122
1,34,76,12
1,34,40,36
1,36,94,122
1,31,89,112
1,36,83,122
1,31,94,66
1,31,99,136
1,34,95,202
1,36,92,22
1,36,80,80
1,31,94,16
1,36,94,44
1,31,99,144
1,31,94,142
1,36,75,16
1,38,74,20
1,41,102,98
1,41,83,108
1,36,94,6
1,41,87,90
1,36,99,38
1,36,96,212
1,36,75,178
1,36,92,90
1,36,75,176
1,31,87,2
1,36,89,98
1,36,102,134
1,36,99,136
1,31,94,6
1,43,89,60
1,43,89,60
1,38,99,192
1,43,85,48
1,41,87,18
1,41,87,150
1,36,87,192
1,41,87,346
1,36,78,102
1,36,89,150
1,31,81,12
1,36,99,70
1,31,96,70
1,31,89,180
1,34,99,208
1,36,105,50
1,36,78,116
1,31,83,194
1,36,94,114
1,31,99,114
1,31,102,200
1,31,89,240
1,36,89,26
1,36,83,138
1,31,99,192
1,36,102,146
1,36,96,178
1,31,96,382
1,36,87,60
1,31,102,190
1,41,77,70
1,41,81,122
1,36,87,192
1,41,99,50
1,41,89,150
1,41,78,184
1,40,83,194
1,38,83,8
1,36,96,44
1,36,92,116
1,31,83,194
1,36,96,160
1,31,85,122
1,31,80,148
1,36,102,22
1,31,94,4
1,43,87,44
1,43,81,128
1,38,99,6
1,43,85,48
1,41,96,60
1,41,96,134
1,36,92,192
1,41,96,64
1,36,120,96
1,36,99,2870
1,36,85,128
1,36,85,118
1,40,75,10
1,40,92,104
1,40,89,108
1,43,102,92
1,43,94,134
1,43,99,146
1,46,99,44
1,34,91,22
1,46,99,50
1,34,104,384
1,46,95,34
1,41,102,134
1,41,102,186
1,36,108,192
1,41,102,136
1,41,99,212
1,41,99,118
1,36,108,8
1,41,77,26
1,40,92,190
1,36,92,58
1,36,83,160
1,31,89,192
1,36,102,74
1,36,105,222
1,31,105,188
1,31,99,96
1,36,87,28
1,31,105,82
1,31,99,118
1,38,108,48
1,41,96,194
1,41,94,134
1,36,96,14
1,41,87,86
1,36,105,76
1,36,108,178
1,31,94,12
1,36,94,100
1,36,99,192
1,31,99,128
1,31,87,74
1,33,87,32
1,35,87,56
1,36,89,90
1,36,89,150
1,31,99,6
1,36,94,92
1,31,99,162
1,31,102,154
1,33,92,22
1,35,89,46
1,36,87,90
1,36,94,122
1,31,102,194
1,36,99,98
1,31,108,130
1,36,108,78
1,38,85,194
1,40,85,84
1,41,94,66
1,41,85,140
1,36,87,192
1,41,102,114
1,36,105,118
1,36,92,88
1,31,105,30
1,36,102,16
1,36,102,164
1,31,102,194
1,36,105,80
1,31,102,98
1,31,105,152
1,36,105,12
1,43,83,154
1,43,94,92
1,38,96,192
1,43,85,48
1,41,102,66
1,36,99,92
1,36,89,106
1,41,81,42
1,36,99,122
1,36,96,112
1,31,105,10
1,36,94,92
1,36,105,0
1,31,102,572
1,31,89,192
1,31,96,188
1,33,96,22
1,35,102,14
1,36,94,48
1,31,89,112
1,36,83,122
1,31,94,64
1,31,99,136
1,34,95,202
1,36,92,22
1,36,80,80
1,31,94,16
1,36,94,44
1,31,99,146
1,31,94,142
1,36,75,16
1,38,74,22
1,41,102,98
1,41,83,108
1,36,94,6
1,41,87,90
1,36,99,38
1,36,96,212
1,36,75,178
1,36,92,90
1,36,75,176
1,31,87,2
1,36,89,98
1,36,102,132
1,36,99,136
1,31,94,6
1,43,89,60
1,43,89,60
1,38,99,192
1,43,85,48
1,41,87,18
1,41,87,150
1,36,87,192
1,41,87,348
1,36,78,102
1,36,89,150
1,31,81,12
1,36,99,70
1,31,96,70
1,31,89,180
1,34,99,208
1,36,94,50
1,31,89,112
1,36,83,122
1,31,94,64
1,31,99,136
1,34,95,204
1,36,92,22
1,36,80,80
1,31,94,16
1,36,94,44
1,31,99,146
1,31,94,142
1,36,75,16
1,38,74,22
1,41,102,98
1,41,83,108
1,36,94,6
1,41,87,90
1,36,99,38
1,36,96,212
1,36,75,178
1,36,92,90
1,36,75,176
1,31,87,2
1,36,89,98
1,36,102,134
1,36,99,136
1,31,94,6
1,43,89,60
1,43,89,58
1,38,99,194
1,43,85,48
1,41,87,18
1,41,87,150
1,36,87,192
1,41,87,348
1,36,78,102
1,36,89,150
1,31,81,12
1,36,99,70
1,31,96,70
1,31,89,190
1,34,99,208
1,36,94,50
1,31,89,112
1,36,83,122
1,31,94,66
1,31,99,136
1,34,95,204
1,36,92,22
1,36,80,78
1,31,94,16
1,36,94,44
1,31,99,146
1,31,94,142
1,36,75,16
1,38,74,22
1,41,102,98
1,41,83,106
1,36,94,6
1,41,87,90
1,36,99,38
1,36,96,212
1,36,75,178
1,36,92,90
1,36,75,176
1,31,87,2
1,36,89,98
1,36,102,132
1,36,99,136
1,31,94,6
1,43,89,60
1,43,89,58
1,38,99,194
1,43,85,48
1,41,87,18
1,41,87,150
1,36,87,192
1,41,87,348
1,36,78,102
1,36,89,150
1,31,81,12
1,36,99,70
1,31,96,70
1,31,89,180
1,34,99,208
1,36,105,50
1,36,78,118
1,31,83,192
1,36,94,114
1,31,99,114
1,31,102,200
1,31,89,240
1,36,89,26
1,36,83,138
1,31,99,192
1,36,102,146
1,36,96,178
1,31,96,382
1,36,87,60
1,31,102,190
1,41,77,70
1,41,81,122
1,36,87,192
1,41,99,50
1,41,89,150
1,41,78,184
1,40,83,194
1,38,83,8
1,36,96,44
1,36,92,116
1,31,83,194
1,36,96,160
1,31,85,122
1,31,80,148
1,36,102,22
1,31,94,4
1,43,87,44
1,43,81,126
1,38,99,4
1,43,85,48
1,41,96,60
1,41,96,134
1,36,92,192
1,41,96,64
1,36,120,98
1,36,99,2870
1,36,85,126
1,36,85,118
1,40,75,10
1,40,92,106
1,40,89,108
1,43,102,92
1,43,94,134
1,43,99,146
1,46,99,44
1,34,91,22
1,46,99,48
1,34,104,384
1,46,95,34
1,36,120,134
2,43,102,0
2,59,109,388
2,55,99,0
2,62,95,2
2,43,106,84
2,62,74,108
2,59,79,0
2,55,71,0
2,59,106,132
2,62,97,0
2,55,93,2
2,43,102,196
2,59,64,138
2,59,104,70
2,62,93,0
2,55,95,0
2,55,93,132
2,62,90,2
2,59,104,0
2,43,102,22
2,62,88,118
2,55,91,0
2,59,97,0
2,43,88,384
2,62,88,128
2,59,93,0
2,55,87,0
2,41,104,100
2,57,97,324
2,53,85,0
2,60,90,2
2,41,87,60
2,53,80,130
2,60,84,4
2,57,85,0
2,53,91,116
2,57,104,0
2,60,93,2
2,41,99,196
2,57,91,252
2,53,83,0
2,60,85,4
2,57,104,110
2,60,90,2
2,53,90,0
2,60,97,300
2,53,91,0
2,57,106,0
2,60,97,102
2,57,106,0
2,53,91,0
2,55,84,678
2,60,85,0
2,64,93,0
2,48,87,2
2,55,79,278
2,48,85,4
2,60,84,0
2,64,90,0
2,60,95,120
2,64,109,0
2,55,95,208
2,64,97,118
2,60,87,0
2,60,91,132
2,64,106,0
2,55,84,118
2,48,79,0
2,64,106,122
2,60,93,0
2,55,88,382
2,48,90,2
2,67,91,6
2,60,84,0
2,64,99,2
2,67,95,112
2,64,106,0
2,60,90,0
2,55,95,494
2,64,93,0
2,60,78,0
2,48,93,2
2,55,87,284
2,64,99,4
2,60,85,0
2,48,88,0
2,64,97,122
2,48,102,2
2,55,99,0
2,60,87,0
2,60,80,124
2,64,90,4
2,48,87,0
2,55,84,0
2,60,84,126
2,48,99,2
2,55,97,0
2,64,99,0
2,60,90,306
2,55,99,0
2,52,83,0
2,64,99,4
2,48,102,0
2,64,88,24
2,60,79,2
2,48,104,196
2,55,99,0
2,52,73,0
2,64,88,74
2,60,80,0
2,60,81,130
2,55,88,4
2,64,90,0
2,48,99,2
2,64,99,274
2,60,91,4
2,48,99,122
2,55,95,0
2,60,69,114
2,64,77,4
2,64,97,138
2,60,85,2
2,55,95,128
2,48,97,0
2,60,71,116
2,64,77,2
2,60,84,138
2,64,95,0
2,64,91,128
2,60,79,2
2,64,97,210
2,60,87,0
2,55,87,382
2,48,90,2
2,60,84,96
2,64,91,4
2,48,97,188
2,55,102,0
2,60,83,112
2,64,83,4
2,67,99,246
2,60,97,0
2,64,106,4
2,60,84,166
2,67,91,4
2,64,104,0
2,64,109,120
2,60,99,0
2,67,102,2
2,60,84,214
2,67,87,4
2,64,104,0
2,60,81,136
2,67,88,2
2,64,95,0
2,60,91,144
2,67,88,4
2,64,104,0
2,67,95,140
2,64,112,0
2,60,97,0
2,60,104,144
2,64,112,0
2,67,97,4
2,60,106,142
2,67,104,2
2,64,115,0
2,53,79,202
2,60,77,4
2,57,87,0
2,41,84,0
2,53,91,16
2,60,90,4
2,57,104,0
2,41,102,108
2,57,91,124
2,53,81,0
2,60,84,4
2,53,91,126
2,57,104,0
2,60,91,2
2,41,97,106
2,53,85,120
2,60,84,2
2,57,99,0
2,60,93,138
2,57,104,0
2,53,91,0
2,57,106,116
2,60,91,2
2,53,91,0
2,60,99,284
2,57,115,0
2,53,102,0
2,53,97,74
2,60,102,4
2,57,115,0
2,60,104,666
2,64,115,4
2,67,104,0
2,64,99,254
2,60,85,0
2,67,93,0
2,64,115,122
2,60,104,0
2,67,102,2
2,64,85,182
2,67,83,4
2,60,78,0
2,60,91,128
2,64,99,0
2,67,91,2
2,60,91,134
2,67,93,4
2,64,106,0
2,67,95,130
2,60,93,0
2,64,106,0
2,60,97,134
2,64,109,0
2,67,95,4
2,64,112,126
2,67,102,2
2,60,106,0
2,43,95,192
2,55,90,384
2,62,91,4
2,59,99,0
2,43,102,118
2,55,88,318
2,59,97,0
2,62,88,2
2,43,91,16
2,62,85,102
2,59,91,0
2,55,85,0
2,53,84,134
2,60,83,4
2,57,95,0
2,57,93,112
2,60,87,4
2,53,87,0
2,41,88,54
2,60,80,124
2,57,91,4
2,53,80,0
2,60,91,126
2,57,106,0
2,53,90,2
2,60,95,114
2,57,104,0
2,53,87,0
2,48,104,106
2,67,91,118
2,60,88,4
2,64,99,0
2,64,99,300
2,60,87,4
2,67,88,0
2,64,109,126
2,67,95,2
2,60,95,0
2,64,102,332
2,67,85,0
2,60,84,0
2,60,93,132
2,64,106,0
2,67,90,2
2,64,102,124
2,67,88,4
2,60,87,0
2,67,90,128
2,60,85,0
2,64,97,0
2,60,90,128
2,64,97,0
2,67,91,4
2,67,102,128
2,60,97,0
2,64,109,0
2,55,95,144
2,64,93,0
2,60,85,0
2,48,102,4
2,64,95,118
2,60,85,4
2,48,106,28
2,55,99,0
2,60,80,114
2,64,87,4
2,48,90,186
2,55,85,0
2,62,85,96
2,65,93,0
2,48,87,190
2,55,81,0
2,60,83,112
2,64,90,4
2,48,83,186
2,55,72,0
2,65,85,102
2,62,76,4
2,64,91,66
2,60,84,0
2,55,91,382
2,48,95,2
2,65,93,80
2,62,85,4
2,60,81,118
2,48,77,4
2,55,74,0
2,64,91,0
2,62,87,108
2,65,99,0
2,48,87,182
2,55,85,0
2,64,90,26
2,60,83,4
2,48,88,186
2,55,85,0
2,62,79,60
2,65,90,4
2,48,90,188
2,55,88,0
2,60,85,80
2,64,97,4
2,62,90,74
2,65,97,4
2,64,106,112
2,60,97,0
2,55,83,384
2,48,93,0
2,64,91,80
2,60,88,0
2,41,93,40
2,57,80,194
2,60,65,0
2,53,60,0
2,41,76,176
2,57,97,18
2,60,87,4
2,53,83,0
2,41,83,102
2,53,75,112
2,60,79,4
2,57,88,0
2,41,91,186
2,53,83,86
2,60,85,4
2,57,95,0
2,41,84,96
2,53,84,108
2,60,85,4
2,57,91,0
2,41,84,186
2,53,84,108
2,60,84,4
2,57,95,0
2,60,93,134
2,53,91,0
2,57,104,0
2,41,95,382
2,53,88,106
2,60,91,4
2,57,97,0
2,48,88,48
2,55,90,0
2,60,79,16
2,64,90,4
2,65,93,58
2,62,87,4
2,48,87,188
2,55,83,0
2,60,84,108
2,64,88,4
2,48,85,186
2,55,73,0
2,65,93,102
2,62,84,4
2,48,95,186
2,55,91,0
2,60,90,70
2,64,95,4
2,65,102,186
2,62,85,4
2,64,99,122
2,60,87,0
2,55,91,384
2,48,97,0
2,64,90,64
2,60,85,0
2,43,91,246
2,55,88,4
2,62,85,0
2,59,93,2
2,55,90,172
2,59,95,0
2,62,87,4
2,43,93,352
2,59,95,68
2,55,88,0
2,62,90,2
2,53,90,172
2,60,90,0
2,57,99,0
2,41,97,384
2,60,91,128
2,53,91,0
2,57,109,0
2,60,88,148
2,57,99,0
2,53,87,0
2,55,97,240
2,48,112,0
2,60,106,0
2,60,118,2940
2,60,119,144
2,60,102,152
2,60,115,132
2,60,115,126
2,64,119,130
2,64,95,118
2,64,119,144
2,64,112,168
2,64,118,138
2,64,118,126
2,67,119,130
2,67,109,96
2,67,119,150
2,67,112,160
2,67,109,138
2,67,112,136
2,70,94,106
2,70,97,130
2,70,105,130
2,70,119,138
2,70,109,134
2,70,114,134
2,70,119,134
2,70,119,130
2,60,78,130
2,57,85,4
2,53,79,0
2,60,90,102
2,57,102,4
2,53,88,0
2,60,85,478
2,53,81,0
2,57,97,2
2,60,95,496
2,53,90,0
2,57,104,4
2,60,87,482
2,57,99,0
2,53,88,0
2,53,78,80
2,60,91,0
2,57,99,2
2,55,85,668
2,60,99,4
2,64,91,0
2,60,102,478
2,55,88,0
2,64,90,2
2,60,95,482
2,64,81,0
2,55,88,0
2,60,95,496
2,55,88,0
2,64,85,0
2,62,85,572
2,59,95,4
2,55,88,0
2,55,93,480
2,62,91,0
2,59,102,2
2,60,84,490
2,57,93,4
2,53,85,0
2,57,102,492
2,60,90,0
2,53,90,0
2,60,91,704
2,55,85,4
2,64,88,0
2,64,87,442
2,55,83,0
2,60,91,2
2,55,91,460
2,64,90,4
2,60,95,0
2,60,97,460
2,64,85,0
2,55,91,0
2,60,85,636
2,64,95,4
2,67,88,0
2,67,88,484
2,60,87,0
2,64,97,2
2,64,91,490
2,67,84,4
2,60,80,0
2,64,95,486
2,67,88,0
2,60,87,0
2,64,87,394
2,60,95,4
2,55,84,0
2,55,90,494
2,64,88,0
2,60,99,2
2,60,104,490
2,55,90,0
2,64,91,0
2,60,102,492
2,64,88,0
2,55,93,0
2,60,87,476
2,57,95,4
2,53,80,0
2,53,90,484
2,60,88,0
2,57,97,2
2,57,95,492
2,60,87,0
2,53,84,0
2,60,88,496
2,57,95,0
2,53,90,0
2,64,91,486
2,60,95,4
2,55,88,0
2,55,91,490
2,60,97,2
2,64,88,0
2,64,87,490
2,60,99,4
2,55,91,0
2,60,102,492
2,55,93,0
2,64,91,0
2,55,90,592
2,59,93,4
2,62,88,0
2,59,102,462
2,55,91,0
2,62,91,2
2,53,84,476
2,57,95,4
2,60,90,0
2,57,106,486
2,53,95,0
2,60,95,0
2,64,93,496
2,55,87,0
2,60,102,4
2,55,93,488
2,64,93,0
2,60,102,2
2,48,99,486
2,55,88,0
2,60,95,0
2,64,90,0
2,55,88,0
2,60,81,0
2,64,90,0
2,64,99,282
2,60,91,4
2,60,104,122
2,48,99,0
2,64,91,0
2,55,95,0
2,55,97,0
2,64,77,114
2,60,69,0
2,64,97,188
2,60,85,0
2,48,97,124
2,55,95,4
2,64,77,118
2,60,71,0
2,60,81,138
2,48,99,4
2,55,88,0
2,64,90,0
2,60,91,274
2,64,99,0
2,55,95,120
2,48,99,2
2,60,69,114
2,64,77,4
2,64,97,138
2,60,85,2
2,55,95,128
2,48,97,0
2,64,77,118
2,60,71,0
