track,note,velocity,time
1,59,127,1920
1,52,127,0
1,52,0,120
1,59,0,0
1,59,127,0
1,52,127,0
1,52,0,120
1,59,0,0
1,59,127,0
1,52,127,0
1,52,0,120
1,59,0,0
1,59,127,0
1,52,127,0
1,52,0,240
1,59,0,0
1,59,127,0
1,52,127,0
1,52,0,120
1,59,0,0
1,59,127,0
1,52,127,0
1,52,0,240
1,59,0,0
1,59,127,0
1,52,127,0
1,52,0,120
1,59,0,0
1,59,127,0
1,52,127,0
1,52,0,120
1,59,0,0
1,59,127,0
1,52,127,0
1,52,0,120
1,59,0,0
1,59,127,0
1,52,127,0
1,52,0,240
1,59,0,0
1,59,127,0
1,52,127,0
1,52,0,120
1,59,0,0
1,59,127,0
1,52,127,0
1,52,0,240
1,59,0,0
1,57,127,0
1,50,127,0
1,50,0,120
1,57,0,0
1,57,127,0
1,50,127,0
1,50,0,120
1,57,0,0
1,57,127,0
1,50,127,0
1,50,0,120
1,57,0,0
1,57,127,0
1,50,127,0
1,50,0,120
1,57,0,0
1,57,127,0
1,50,127,0
1,50,0,240
1,57,0,0
1,60,127,0
1,53,127,0
1,53,0,240
1,60,0,0
1,60,127,0
1,53,127,0
1,53,0,120
1,60,0,0
1,60,127,0
1,53,127,0
1,53,0,120
1,60,0,0
1,60,127,0
1,53,127,0
1,53,0,120
1,60,0,0
1,60,127,0
1,53,127,0
1,53,0,120
1,60,0,0
1,66,127,0
1,59,127,0
1,59,0,120
1,66,0,0
1,66,127,0
1,59,127,0
1,59,0,120
1,66,0,0
1,66,127,0
1,59,127,0
1,59,0,120
1,66,0,0
1,66,127,0
1,59,127,0
1,59,0,120
1,66,0,0
1,66,127,0
1,59,127,0
1,59,0,120
1,66,0,0
1,66,127,0
1,59,127,0
1,59,0,120
1,66,0,0
1,67,127,0
1,60,127,0
1,60,0,240
1,67,0,0
1,59,127,0
1,52,127,0
1,52,0,120
1,59,0,0
1,59,127,0
1,52,127,0
1,52,0,120
1,59,0,0
1,59,127,0
1,52,127,0
1,52,0,240
1,59,0,0
1,59,127,0
1,52,127,0
1,52,0,120
1,59,0,0
1,59,127,0
1,52,127,0
1,52,0,120
1,59,0,0
1,59,127,0
1,52,127,0
1,52,0,120
1,59,0,0
1,59,127,0
1,52,127,0
1,52,0,240
1,59,0,0
1,59,127,0
1,52,127,0
1,52,0,120
1,59,0,0
1,59,127,0
1,52,127,0
1,52,0,240
1,59,0,0
1,57,127,0
1,50,127,0
1,50,0,120
1,57,0,0
1,57,127,0
1,50,127,0
1,50,0,120
1,57,0,0
1,57,127,0
1,50,127,0
1,50,0,120
1,57,0,0
1,57,127,0
1,50,127,0
1,50,0,120
1,57,0,0
1,57,127,0
1,50,127,0
1,50,0,240
1,57,0,0
1,60,127,0
1,53,127,0
1,53,0,240
1,60,0,0
1,60,127,0
1,53,127,0
1,53,0,240
1,60,0,0
1,60,127,0
1,53,127,0
1,53,0,240
1,60,0,0
1,67,127,0
1,60,127,0
1,60,0,120
1,67,0,0
1,67,127,0
1,60,127,0
1,60,0,120
1,67,0,0
1,67,127,0
1,60,127,0
1,60,0,120
1,67,0,0
1,67,127,0
1,60,127,0
1,60,0,120
1,67,0,0
1,67,127,0
1,60,127,0
1,60,0,120
1,67,0,0
1,67,127,0
1,60,127,0
1,60,0,120
1,67,0,0
1,67,127,0
1,60,127,0
1,60,0,240
1,67,0,0
1,59,127,0
1,52,127,0
1,52,0,240
1,59,0,0
1,59,127,0
1,52,127,0
1,52,0,240
1,59,0,0
1,59,127,0
1,52,127,0
1,52,0,240
1,59,0,0
1,59,127,0
1,52,127,0
1,52,0,120
1,59,0,0
1,59,127,0
1,52,127,0
1,52,0,240
1,59,0,0
1,59,127,0
1,52,127,0
1,52,0,120
1,59,0,0
1,59,127,0
1,52,127,0
1,52,0,240
1,59,0,0
1,57,127,0
1,50,127,0
1,50,0,120
1,57,0,0
1,57,127,0
1,50,127,0
1,50,0,120
1,57,0,0
1,57,127,0
1,50,127,0
1,50,0,240
1,57,0,0
1,57,127,0
1,50,127,0
1,50,0,240
1,57,0,0
1,60,127,0
1,53,127,0
1,53,0,120
1,60,0,0
1,60,127,0
1,53,127,0
1,53,0,120
1,60,0,0
1,60,127,0
1,53,127,0
1,53,0,120
1,60,0,0
1,60,127,0
1,53,127,0
1,53,0,120
1,60,0,0
1,60,127,0
1,53,127,0
1,53,0,240
1,60,0,0
1,66,127,0
1,59,127,0
1,59,0,120
1,66,0,0
1,66,127,0
1,59,127,0
1,59,0,120
1,66,0,0
1,66,127,0
1,59,127,0
1,59,0,120
1,66,0,0
1,66,127,0
1,59,127,0
1,59,0,120
1,66,0,0
1,66,127,0
1,59,127,0
1,59,0,120
1,66,0,0
1,66,127,0
1,59,127,0
1,59,0,120
1,66,0,0
1,67,127,0
1,60,127,0
1,60,0,240
1,67,0,0
1,59,127,0
1,52,127,0
1,52,0,120
1,59,0,0
1,59,127,0
1,52,127,0
1,52,0,120
1,59,0,0
1,59,127,0
1,52,127,0
1,52,0,240
1,59,0,0
1,59,127,0
1,52,127,0
1,52,0,120
1,59,0,0
1,59,127,0
1,52,127,0
1,52,0,120
1,59,0,0
1,59,127,0
1,52,127,0
1,52,0,120
1,59,0,0
1,59,127,0
1,52,127,0
1,52,0,240
1,59,0,0
1,59,127,0
1,52,127,0
1,52,0,120
1,59,0,0
1,59,127,0
1,52,127,0
1,52,0,240
1,59,0,0
1,57,127,0
1,50,127,0
1,50,0,240
1,57,0,0
1,57,127,0
1,50,127,0
1,50,0,120
1,57,0,0
1,57,127,0
1,50,127,0
1,50,0,120
1,57,0,0
1,57,127,0
1,50,127,0
1,50,0,120
1,57,0,0
1,57,127,0
1,50,127,0
1,50,0,120
1,57,0,0
1,60,127,0
1,53,127,0
1,53,0,240
1,60,0,0
1,60,127,0
1,53,127,0
1,53,0,120
1,60,0,0
1,60,127,0
1,53,127,0
1,53,0,120
1,60,0,0
1,60,127,0
1,53,127,0
1,53,0,120
1,60,0,0
1,60,127,0
1,53,127,0
1,53,0,120
1,60,0,0
1,60,127,0
1,53,127,0
1,53,0,120
1,60,0,0
1,60,127,0
1,53,127,0
1,53,0,120
1,60,0,0
1,60,127,0
1,53,127,0
1,53,0,120
1,60,0,0
1,60,127,0
1,53,127,0
1,53,0,120
1,60,0,0
1,59,127,0
1,52,127,0
1,52,0,120
1,59,0,0
1,59,127,0
1,52,127,0
1,52,0,120
1,59,0,0
1,59,127,0
1,52,127,0
1,52,0,120
1,59,0,0
1,59,127,0
1,52,127,0
1,52,0,240
1,59,0,0
1,59,127,0
1,52,127,0
1,52,0,120
1,59,0,0
1,59,127,0
1,52,127,0
1,52,0,240
1,59,0,0
1,59,127,0
1,52,127,0
1,52,0,120
1,59,0,0
1,59,127,0
1,52,127,0
1,52,0,120
1,59,0,0
1,59,127,0
1,52,127,0
1,52,0,120
1,59,0,0
1,59,127,0
1,52,127,0
1,52,0,240
1,59,0,0
1,59,127,0
1,52,127,0
1,52,0,120
1,59,0,0
1,59,127,0
1,52,127,0
1,52,0,240
1,59,0,0
1,57,127,0
1,50,127,0
1,50,0,120
1,57,0,0
1,57,127,0
1,50,127,0
1,50,0,120
1,57,0,0
1,57,127,0
1,50,127,0
1,50,0,120
1,57,0,0
1,57,127,0
1,50,127,0
1,50,0,120
1,57,0,0
1,57,127,0
1,50,127,0
1,50,0,240
1,57,0,0
1,60,127,0
1,53,127,0
1,53,0,240
1,60,0,0
1,60,127,0
1,53,127,0
1,53,0,120
1,60,0,0
1,60,127,0
1,53,127,0
1,53,0,120
1,60,0,0
1,60,127,0
1,53,127,0
1,53,0,120
1,60,0,0
1,60,127,0
1,53,127,0
1,53,0,120
1,60,0,0
1,66,127,0
1,59,127,0
1,59,0,120
1,66,0,0
1,66,127,0
1,59,127,0
1,59,0,120
1,66,0,0
1,66,127,0
1,59,127,0
1,59,0,120
1,66,0,0
1,66,127,0
1,59,127,0
1,59,0,120
1,66,0,0
1,66,127,0
1,59,127,0
1,59,0,120
1,66,0,0
1,66,127,0
1,59,127,0
1,59,0,120
1,66,0,0
1,67,127,0
1,60,127,0
1,60,0,240
1,67,0,0
1,59,127,0
1,52,127,0
1,52,0,120
1,59,0,0
1,59,127,0
1,52,127,0
1,52,0,120
1,59,0,0
1,59,127,0
1,52,127,0
1,52,0,240
1,59,0,0
1,59,127,0
1,52,127,0
1,52,0,120
1,59,0,0
1,59,127,0
1,52,127,0
1,52,0,120
1,59,0,0
1,59,127,0
1,52,127,0
1,52,0,120
1,59,0,0
1,59,127,0
1,52,127,0
1,52,0,240
1,59,0,0
1,59,127,0
1,52,127,0
1,52,0,120
1,59,0,0
1,59,127,0
1,52,127,0
1,52,0,240
1,59,0,0
1,57,127,0
1,50,127,0
1,50,0,120
1,57,0,0
1,57,127,0
1,50,127,0
1,50,0,120
1,57,0,0
1,57,127,0
1,50,127,0
1,50,0,120
1,57,0,0
1,57,127,0
1,50,127,0
1,50,0,120
1,57,0,0
1,57,127,0
1,50,127,0
1,50,0,240
1,57,0,0
1,60,127,0
1,53,127,0
1,53,0,240
1,60,0,0
1,60,127,0
1,53,127,0
1,53,0,240
1,60,0,0
1,60,127,0
1,53,127,0
1,53,0,240
1,60,0,0
1,67,127,0
1,60,127,0
1,60,0,120
1,67,0,0
1,67,127,0
1,60,127,0
1,60,0,120
1,67,0,0
1,67,127,0
1,60,127,0
1,60,0,120
1,67,0,0
1,67,127,0
1,60,127,0
1,60,0,120
1,67,0,0
1,67,127,0
1,60,127,0
1,60,0,120
1,67,0,0
1,67,127,0
1,60,127,0
1,60,0,120
1,67,0,0
1,67,127,0
1,60,127,0
1,60,0,240
1,67,0,0
1,59,127,0
1,52,127,0
1,52,0,240
1,59,0,0
1,59,127,0
1,52,127,0
1,52,0,240
1,59,0,0
1,59,127,0
1,52,127,0
1,52,0,240
1,59,0,0
1,59,127,0
1,52,127,0
1,52,0,120
1,59,0,0
1,59,127,0
1,52,127,0
1,52,0,240
1,59,0,0
1,59,127,0
1,52,127,0
1,52,0,120
1,59,0,0
1,59,127,0
1,52,127,0
1,52,0,240
1,59,0,0
1,57,127,0
1,50,127,0
1,50,0,120
1,57,0,0
1,57,127,0
1,50,127,0
1,50,0,120
1,57,0,0
1,57,127,0
1,50,127,0
1,50,0,240
1,57,0,0
1,57,127,0
1,50,127,0
1,50,0,240
1,57,0,0
1,60,127,0
1,53,127,0
1,53,0,120
1,60,0,0
1,60,127,0
1,53,127,0
1,53,0,120
1,60,0,0
1,60,127,0
1,53,127,0
1,53,0,120
1,60,0,0
1,60,127,0
1,53,127,0
1,53,0,120
1,60,0,0
1,60,127,0
1,53,127,0
1,53,0,240
1,60,0,0
1,66,127,0
1,59,127,0
1,59,0,120
1,66,0,0
1,66,127,0
1,59,127,0
1,59,0,120
1,66,0,0
1,66,127,0
1,59,127,0
1,59,0,120
1,66,0,0
1,66,127,0
1,59,127,0
1,59,0,120
1,66,0,0
1,66,127,0
1,59,127,0
1,59,0,120
1,66,0,0
1,66,127,0
1,59,127,0
1,59,0,120
1,66,0,0
1,67,127,0
1,60,127,0
1,60,0,240
1,67,0,0
1,59,127,0
1,52,127,0
1,52,0,120
1,59,0,0
1,59,127,0
1,52,127,0
1,52,0,120
1,59,0,0
1,59,127,0
1,52,127,0
1,52,0,240
1,59,0,0
1,59,127,0
1,52,127,0
1,52,0,120
1,59,0,0
1,59,127,0
1,52,127,0
1,52,0,120
1,59,0,0
1,59,127,0
1,52,127,0
1,52,0,120
1,59,0,0
1,59,127,0
1,52,127,0
1,52,0,240
1,59,0,0
1,59,127,0
1,52,127,0
1,52,0,120
1,59,0,0
1,59,127,0
1,52,127,0
1,52,0,240
1,59,0,0
1,57,127,0
1,50,127,0
1,50,0,240
1,57,0,0
1,57,127,0
1,50,127,0
1,50,0,120
1,57,0,0
1,57,127,0
1,50,127,0
1,50,0,120
1,57,0,0
1,57,127,0
1,50,127,0
1,50,0,120
1,57,0,0
1,57,127,0
1,50,127,0
1,50,0,120
1,57,0,0
1,60,127,0
1,53,127,0
1,53,0,240
1,60,0,0
1,60,127,0
1,53,127,0
1,53,0,120
1,60,0,0
1,60,127,0
1,53,127,0
1,53,0,120
1,60,0,0
1,60,127,0
1,53,127,0
1,53,0,120
1,60,0,0
1,60,127,0
1,53,127,0
1,53,0,120
1,60,0,0
1,60,127,0
1,53,127,0
1,53,0,120
1,60,0,0
1,60,127,0
1,53,127,0
1,53,0,120
1,60,0,0
1,60,127,0
1,53,127,0
1,53,0,120
1,60,0,0
1,60,127,0
1,53,127,0
1,53,0,120
1,60,0,0
1,60,127,0
1,48,127,0
1,54,127,0
1,54,0,7200
1,48,0,0
1,60,0,0
1,57,127,3600
1,52,127,0
1,48,127,0
1,48,0,120
1,52,0,0
1,57,0,0
1,57,127,0
1,52,127,0
1,48,127,0
1,48,0,120
1,52,0,0
1,57,0,0
1,57,127,0
1,52,127,0
1,48,127,0
1,48,0,120
1,52,0,0
1,57,0,0
1,57,127,0
1,52,127,0
1,48,127,0
1,48,0,120
1,52,0,0
1,57,0,0
1,57,127,0
1,52,127,0
1,48,127,0
1,48,0,120
1,52,0,0
1,57,0,0
1,57,127,0
1,52,127,0
1,48,127,0
1,48,0,120
1,52,0,0
1,57,0,0
1,57,127,3120
1,52,127,0
1,48,127,0
1,48,0,120
1,52,0,0
1,57,0,0
1,57,127,0
1,52,127,0
1,48,127,0
1,48,0,120
1,52,0,0
1,57,0,0
1,57,127,0
1,52,127,0
1,48,127,0
1,48,0,120
1,52,0,0
1,57,0,0
1,57,127,0
1,52,127,0
1,48,127,0
1,48,0,120
1,52,0,0
1,57,0,0
1,57,127,0
1,52,127,0
1,48,127,0
1,48,0,120
1,52,0,0
1,57,0,0
1,57,127,0
1,52,127,0
1,48,127,0
1,48,0,120
1,52,0,0
1,57,0,0
1,57,127,3120
1,52,127,0
1,48,127,0
1,48,0,120
1,52,0,0
1,57,0,0
1,57,127,0
1,52,127,0
1,48,127,0
1,48,0,120
1,52,0,0
1,57,0,0
1,57,127,0
1,52,127,0
1,48,127,0
1,48,0,120
1,52,0,0
1,57,0,0
1,57,127,0
1,52,127,0
1,48,127,0
1,48,0,120
1,52,0,0
1,57,0,0
1,57,127,0
1,52,127,0
1,48,127,0
1,48,0,120
1,52,0,0
1,57,0,0
1,57,127,0
1,52,127,0
1,48,127,0
1,48,0,120
1,52,0,0
1,57,0,0
1,35,127,3840
1,35,0,120
1,35,127,0
1,35,0,120
1,57,127,0
1,52,127,0
1,48,127,0
1,43,127,0
1,38,127,0
1,33,127,0
1,33,0,15
1,52,0,0
1,48,0,0
1,57,0,0
1,38,0,0
1,43,0,0
1,57,127,105
1,52,127,0
1,48,127,0
1,43,127,0
1,38,127,0
1,33,127,0
1,33,0,15
1,52,0,0
1,48,0,0
1,57,0,0
1,38,0,0
1,43,0,0
1,33,127,105
1,33,0,120
1,33,127,0
1,33,0,120
1,35,127,0
1,35,0,120
1,35,127,0
1,35,0,120
1,57,127,0
1,52,127,0
1,48,127,0
1,43,127,0
1,38,127,0
1,33,127,0
1,33,0,15
1,52,0,0
1,48,0,0
1,57,0,0
1,38,0,0
1,43,0,0
1,57,127,105
1,52,127,0
1,48,127,0
1,43,127,0
1,38,127,0
1,33,127,0
1,33,0,15
1,52,0,0
1,48,0,0
1,57,0,0
1,38,0,0
1,43,0,0
1,57,127,105
1,52,127,0
1,48,127,0
1,43,127,0
1,38,127,0
1,33,127,0
1,33,0,15
1,52,0,0
1,48,0,0
1,57,0,0
1,38,0,0
1,43,0,0
1,57,127,105
1,52,127,0
1,48,127,0
1,43,127,0
1,38,127,0
1,33,127,0
1,33,0,15
1,52,0,0
1,48,0,0
1,57,0,0
1,38,0,0
1,43,0,0
1,35,127,105
1,35,0,120
1,35,127,0
1,35,0,120
1,57,127,0
1,52,127,0
1,48,127,0
1,43,127,0
1,38,127,0
1,33,127,0
