track,note,velocity,time
1.0,21.0,96.0,0.0
1.0,33.0,96.0,0.0
1.0,21.0,96.0,0.0
1.0,33.0,96.0,0.0
1.0,21.0,96.0,0.0
1.0,33.0,96.0,0.0
1.0,43.0,96.0,0.0
1.0,21.0,96.0,0.0
1.0,33.0,96.0,0.0
1.0,21.0,96.0,0.0
1.0,33.0,96.0,0.0
1.0,21.0,96.0,0.0
1.0,33.0,96.0,0.0
1.0,21.0,96.0,0.0
1.0,33.0,96.0,0.0
1.0,43.0,96.0,0.0
1.0,21.0,96.0,192.0
1.0,33.0,96.0,0.0
1.0,21.0,96.0,0.0
1.0,33.0,96.0,0.0
1.0,21.0,96.0,0.0
1.0,33.0,96.0,0.0
1.0,43.0,96.0,0.0
1.0,21.0,96.0,0.0
1.0,33.0,96.0,0.0
1.0,21.0,96.0,0.0
1.0,33.0,96.0,0.0
1.0,21.0,96.0,0.0
1.0,33.0,96.0,0.0
1.0,21.0,96.0,0.0
1.0,33.0,96.0,0.0
1.0,43.0,96.0,0.0
1.0,21.0,96.0,192.0
1.0,33.0,96.0,0.0
1.0,21.0,96.0,0.0
1.0,33.0,96.0,0.0
1.0,21.0,96.0,0.0
1.0,33.0,96.0,0.0
1.0,43.0,96.0,0.0
1.0,21.0,96.0,0.0
1.0,33.0,96.0,0.0
1.0,21.0,96.0,0.0
1.0,33.0,96.0,0.0
1.0,21.0,96.0,0.0
1.0,33.0,96.0,0.0
1.0,21.0,96.0,0.0
1.0,33.0,96.0,0.0
1.0,43.0,96.0,0.0
1.0,21.0,96.0,192.0
1.0,33.0,96.0,0.0
1.0,21.0,96.0,0.0
1.0,33.0,96.0,0.0
1.0,21.0,96.0,0.0
1.0,33.0,96.0,0.0
1.0,43.0,96.0,0.0
1.0,21.0,96.0,0.0
1.0,33.0,96.0,0.0
1.0,21.0,96.0,0.0
1.0,33.0,96.0,0.0
1.0,21.0,96.0,0.0
1.0,33.0,96.0,0.0
1.0,21.0,96.0,0.0
1.0,33.0,96.0,0.0
1.0,43.0,96.0,0.0
1.0,21.0,96.0,192.0
1.0,33.0,96.0,0.0
1.0,21.0,96.0,0.0
1.0,33.0,96.0,0.0
1.0,21.0,96.0,0.0
1.0,33.0,96.0,0.0
1.0,43.0,96.0,0.0
1.0,21.0,96.0,0.0
1.0,33.0,96.0,0.0
1.0,21.0,96.0,0.0
1.0,33.0,96.0,0.0
1.0,21.0,96.0,0.0
1.0,33.0,96.0,0.0
1.0,21.0,96.0,0.0
1.0,33.0,96.0,0.0
1.0,43.0,96.0,0.0
1.0,21.0,96.0,192.0
1.0,33.0,96.0,0.0
1.0,21.0,96.0,0.0
1.0,33.0,96.0,0.0
1.0,21.0,96.0,0.0
1.0,33.0,96.0,0.0
1.0,43.0,96.0,0.0
1.0,21.0,96.0,0.0
1.0,33.0,96.0,0.0
1.0,21.0,96.0,0.0
1.0,33.0,96.0,0.0
1.0,21.0,96.0,0.0
1.0,33.0,96.0,0.0
1.0,21.0,96.0,0.0
1.0,33.0,96.0,0.0
1.0,43.0,96.0,0.0
1.0,21.0,96.0,192.0
1.0,33.0,96.0,0.0
1.0,21.0,96.0,0.0
1.0,33.0,96.0,0.0
1.0,21.0,96.0,0.0
1.0,33.0,96.0,0.0
1.0,43.0,96.0,0.0
1.0,21.0,96.0,0.0
1.0,33.0,96.0,0.0
1.0,21.0,96.0,0.0
1.0,33.0,96.0,0.0
1.0,21.0,96.0,0.0
1.0,33.0,96.0,0.0
1.0,21.0,96.0,0.0
1.0,33.0,96.0,0.0
1.0,43.0,96.0,0.0
1.0,21.0,96.0,192.0
1.0,33.0,96.0,0.0
1.0,21.0,96.0,0.0
1.0,33.0,96.0,0.0
1.0,21.0,96.0,0.0
1.0,33.0,96.0,0.0
1.0,43.0,96.0,0.0
1.0,21.0,96.0,0.0
1.0,33.0,96.0,0.0
1.0,21.0,96.0,0.0
1.0,33.0,96.0,0.0
1.0,21.0,96.0,0.0
1.0,33.0,96.0,0.0
1.0,21.0,96.0,0.0
1.0,33.0,96.0,0.0
1.0,43.0,96.0,0.0
1.0,21.0,96.0,192.0
1.0,33.0,96.0,0.0
1.0,21.0,96.0,0.0
1.0,33.0,96.0,0.0
1.0,21.0,96.0,0.0
1.0,33.0,96.0,0.0
1.0,43.0,96.0,0.0
1.0,21.0,96.0,0.0
1.0,33.0,96.0,0.0
1.0,21.0,96.0,0.0
1.0,33.0,96.0,0.0
1.0,21.0,96.0,0.0
1.0,33.0,96.0,0.0
1.0,43.0,96.0,0.0
1.0,21.0,96.0,0.0
1.0,33.0,96.0,0.0
1.0,21.0,96.0,0.0
1.0,33.0,96.0,0.0
1.0,21.0,96.0,0.0
1.0,33.0,96.0,0.0
1.0,43.0,96.0,0.0
1.0,21.0,96.0,0.0
1.0,33.0,96.0,0.0
1.0,21.0,96.0,0.0
1.0,33.0,96.0,0.0
1.0,21.0,96.0,0.0
1.0,33.0,96.0,0.0
1.0,43.0,96.0,0.0
1.0,21.0,96.0,0.0
1.0,33.0,96.0,0.0
1.0,21.0,96.0,0.0
1.0,33.0,96.0,0.0
1.0,21.0,96.0,0.0
1.0,33.0,96.0,0.0
1.0,43.0,96.0,0.0
1.0,21.0,96.0,0.0
1.0,33.0,96.0,0.0
1.0,21.0,96.0,0.0
1.0,33.0,96.0,0.0
1.0,21.0,96.0,0.0
1.0,33.0,96.0,0.0
1.0,21.0,96.0,0.0
1.0,33.0,96.0,0.0
1.0,43.0,96.0,0.0
1.0,21.0,96.0,192.0
1.0,33.0,96.0,0.0
1.0,21.0,96.0,0.0
1.0,33.0,96.0,0.0
1.0,21.0,96.0,0.0
1.0,33.0,96.0,0.0
1.0,43.0,96.0,0.0
1.0,21.0,96.0,0.0
1.0,33.0,96.0,0.0
1.0,21.0,96.0,0.0
1.0,33.0,96.0,0.0
1.0,21.0,96.0,0.0
1.0,33.0,96.0,0.0
1.0,21.0,96.0,0.0
1.0,33.0,96.0,0.0
1.0,43.0,96.0,0.0
1.0,21.0,96.0,192.0
1.0,33.0,96.0,0.0
1.0,21.0,96.0,0.0
1.0,33.0,96.0,0.0
1.0,21.0,96.0,0.0
1.0,33.0,96.0,0.0
1.0,43.0,96.0,0.0
1.0,21.0,96.0,0.0
1.0,33.0,96.0,0.0
1.0,21.0,96.0,0.0
1.0,33.0,96.0,0.0
1.0,21.0,96.0,0.0
1.0,33.0,96.0,0.0
1.0,21.0,96.0,0.0
1.0,33.0,96.0,0.0
1.0,43.0,96.0,0.0
1.0,21.0,96.0,192.0
1.0,33.0,96.0,0.0
1.0,21.0,96.0,0.0
1.0,33.0,96.0,0.0
1.0,21.0,96.0,0.0
1.0,33.0,96.0,0.0
1.0,43.0,96.0,0.0
1.0,21.0,96.0,0.0
1.0,33.0,96.0,0.0
1.0,21.0,96.0,0.0
1.0,33.0,96.0,0.0
1.0,21.0,96.0,0.0
1.0,33.0,96.0,0.0
1.0,21.0,96.0,0.0
1.0,33.0,96.0,0.0
1.0,43.0,96.0,0.0
1.0,21.0,96.0,192.0
1.0,33.0,96.0,0.0
1.0,21.0,96.0,0.0
1.0,33.0,96.0,0.0
1.0,21.0,96.0,0.0
1.0,33.0,96.0,0.0
1.0,43.0,96.0,0.0
1.0,21.0,96.0,0.0
1.0,33.0,96.0,0.0
1.0,21.0,96.0,0.0
1.0,33.0,96.0,0.0
1.0,21.0,96.0,0.0
1.0,33.0,96.0,0.0
1.0,21.0,96.0,0.0
1.0,33.0,96.0,0.0
1.0,43.0,96.0,0.0
1.0,21.0,96.0,0.0
1.0,33.0,96.0,0.0
1.0,21.0,96.0,192.0
1.0,33.0,96.0,0.0
1.0,43.0,96.0,0.0
1.0,21.0,96.0,0.0
1.0,33.0,96.0,0.0
1.0,21.0,96.0,0.0
1.0,33.0,96.0,0.0
1.0,21.0,96.0,0.0
1.0,33.0,96.0,0.0
1.0,21.0,96.0,0.0
1.0,33.0,96.0,0.0
2.0,21.0,93.0,0.0
2.0,33.0,93.0,0.0
2.0,21.0,93.0,0.0
2.0,33.0,93.0,0.0
2.0,21.0,93.0,0.0
2.0,33.0,93.0,0.0
2.0,43.0,93.0,0.0
2.0,21.0,93.0,0.0
2.0,33.0,93.0,0.0
2.0,21.0,93.0,0.0
2.0,33.0,93.0,0.0
2.0,21.0,93.0,0.0
2.0,33.0,93.0,0.0
2.0,21.0,93.0,0.0
2.0,33.0,93.0,0.0
2.0,21.0,93.0,960.0
2.0,33.0,93.0,0.0
2.0,21.0,93.0,0.0
2.0,33.0,93.0,0.0
2.0,21.0,93.0,0.0
2.0,33.0,93.0,0.0
2.0,43.0,93.0,0.0
2.0,21.0,93.0,0.0
2.0,33.0,93.0,0.0
2.0,21.0,93.0,0.0
2.0,33.0,93.0,0.0
2.0,21.0,93.0,0.0
2.0,33.0,93.0,0.0
2.0,21.0,93.0,0.0
2.0,33.0,93.0,0.0
2.0,21.0,93.0,960.0
2.0,33.0,93.0,0.0
2.0,21.0,93.0,0.0
2.0,33.0,93.0,0.0
2.0,21.0,93.0,0.0
2.0,33.0,93.0,0.0
2.0,43.0,93.0,0.0
2.0,21.0,93.0,0.0
2.0,33.0,93.0,0.0
2.0,21.0,93.0,0.0
2.0,33.0,93.0,0.0
2.0,21.0,93.0,0.0
2.0,33.0,93.0,0.0
2.0,21.0,93.0,0.0
2.0,33.0,93.0,0.0
2.0,21.0,93.0,960.0
2.0,33.0,93.0,0.0
2.0,21.0,93.0,0.0
2.0,33.0,93.0,0.0
2.0,21.0,93.0,0.0
2.0,33.0,93.0,0.0
2.0,43.0,93.0,0.0
2.0,21.0,93.0,0.0
2.0,33.0,93.0,0.0
2.0,21.0,93.0,0.0
2.0,33.0,93.0,0.0
2.0,21.0,93.0,0.0
2.0,33.0,93.0,0.0
2.0,21.0,93.0,0.0
2.0,33.0,93.0,0.0
2.0,21.0,93.0,960.0
2.0,33.0,93.0,0.0
2.0,21.0,93.0,0.0
2.0,33.0,93.0,0.0
2.0,21.0,93.0,0.0
2.0,33.0,93.0,0.0
2.0,43.0,93.0,0.0
2.0,21.0,93.0,0.0
2.0,33.0,93.0,0.0
2.0,21.0,93.0,0.0
2.0,33.0,93.0,0.0
2.0,21.0,93.0,0.0
2.0,33.0,93.0,0.0
2.0,21.0,93.0,0.0
2.0,33.0,93.0,0.0
2.0,21.0,93.0,960.0
2.0,33.0,93.0,0.0
2.0,21.0,93.0,0.0
2.0,33.0,93.0,0.0
2.0,21.0,93.0,0.0
2.0,33.0,93.0,0.0
2.0,43.0,93.0,0.0
2.0,21.0,93.0,0.0
2.0,33.0,93.0,0.0
2.0,21.0,93.0,0.0
2.0,33.0,93.0,0.0
2.0,21.0,93.0,0.0
2.0,33.0,93.0,0.0
2.0,21.0,93.0,0.0
2.0,33.0,93.0,0.0
2.0,21.0,93.0,960.0
2.0,33.0,93.0,0.0
2.0,21.0,93.0,0.0
2.0,33.0,93.0,0.0
2.0,21.0,93.0,0.0
2.0,33.0,93.0,0.0
2.0,43.0,93.0,0.0
2.0,21.0,93.0,0.0
2.0,33.0,93.0,0.0
2.0,21.0,93.0,0.0
2.0,33.0,93.0,0.0
2.0,21.0,93.0,0.0
2.0,33.0,93.0,0.0
2.0,21.0,93.0,0.0
2.0,33.0,93.0,0.0
2.0,21.0,93.0,960.0
2.0,33.0,93.0,0.0
2.0,21.0,93.0,0.0
2.0,33.0,93.0,0.0
2.0,21.0,93.0,0.0
2.0,33.0,93.0,0.0
2.0,43.0,93.0,0.0
2.0,21.0,93.0,0.0
2.0,33.0,93.0,0.0
2.0,21.0,93.0,0.0
2.0,33.0,93.0,0.0
2.0,21.0,93.0,0.0
2.0,33.0,93.0,0.0
2.0,21.0,93.0,0.0
2.0,33.0,93.0,0.0
2.0,21.0,93.0,960.0
2.0,33.0,93.0,0.0
2.0,21.0,93.0,0.0
2.0,33.0,93.0,0.0
2.0,21.0,93.0,0.0
2.0,33.0,93.0,0.0
2.0,43.0,93.0,0.0
2.0,21.0,93.0,0.0
2.0,33.0,93.0,0.0
2.0,21.0,93.0,0.0
2.0,33.0,93.0,0.0
2.0,21.0,93.0,0.0
2.0,33.0,93.0,0.0
2.0,43.0,93.0,0.0
2.0,21.0,93.0,0.0
2.0,33.0,93.0,0.0
2.0,21.0,93.0,0.0
2.0,33.0,93.0,0.0
2.0,21.0,93.0,0.0
2.0,33.0,93.0,0.0
2.0,43.0,93.0,0.0
2.0,21.0,93.0,0.0
2.0,33.0,93.0,0.0
2.0,21.0,93.0,0.0
2.0,33.0,93.0,0.0
2.0,21.0,93.0,0.0
2.0,33.0,93.0,0.0
2.0,43.0,93.0,0.0
2.0,21.0,93.0,0.0
2.0,33.0,93.0,0.0
2.0,21.0,93.0,0.0
2.0,33.0,93.0,0.0
2.0,21.0,93.0,0.0
2.0,33.0,93.0,0.0
2.0,43.0,93.0,0.0
2.0,21.0,93.0,0.0
2.0,33.0,93.0,0.0
2.0,21.0,93.0,0.0
2.0,33.0,93.0,0.0
2.0,21.0,93.0,0.0
2.0,33.0,93.0,0.0
2.0,21.0,93.0,0.0
2.0,33.0,93.0,0.0
2.0,21.0,93.0,960.0
2.0,33.0,93.0,0.0
2.0,21.0,93.0,0.0
2.0,33.0,93.0,0.0
2.0,21.0,93.0,0.0
2.0,33.0,93.0,0.0
2.0,43.0,93.0,0.0
2.0,21.0,93.0,0.0
2.0,33.0,93.0,0.0
2.0,21.0,93.0,0.0
2.0,33.0,93.0,0.0
2.0,21.0,93.0,0.0
2.0,33.0,93.0,0.0
2.0,21.0,93.0,0.0
2.0,33.0,93.0,0.0
2.0,21.0,93.0,960.0
2.0,33.0,93.0,0.0
2.0,21.0,93.0,0.0
2.0,33.0,93.0,0.0
2.0,21.0,93.0,0.0
2.0,33.0,93.0,0.0
2.0,43.0,93.0,0.0
2.0,21.0,93.0,0.0
2.0,33.0,93.0,0.0
2.0,21.0,93.0,0.0
2.0,33.0,93.0,0.0
2.0,21.0,93.0,0.0
2.0,33.0,93.0,0.0
2.0,21.0,93.0,0.0
2.0,33.0,93.0,0.0
2.0,21.0,93.0,960.0
2.0,33.0,93.0,0.0
2.0,21.0,93.0,0.0
2.0,33.0,93.0,0.0
2.0,21.0,93.0,0.0
2.0,33.0,93.0,0.0
2.0,43.0,93.0,0.0
2.0,21.0,93.0,0.0
2.0,33.0,93.0,0.0
2.0,21.0,93.0,0.0
2.0,33.0,93.0,0.0
2.0,21.0,93.0,0.0
2.0,33.0,93.0,0.0
2.0,21.0,93.0,0.0
2.0,33.0,93.0,0.0
2.0,21.0,93.0,960.0
2.0,33.0,93.0,0.0
2.0,21.0,93.0,0.0
2.0,33.0,93.0,0.0
2.0,21.0,93.0,0.0
2.0,33.0,93.0,0.0
2.0,43.0,93.0,0.0
2.0,21.0,93.0,0.0
2.0,33.0,93.0,0.0
2.0,21.0,93.0,0.0
2.0,33.0,93.0,0.0
2.0,21.0,93.0,0.0
2.0,33.0,93.0,0.0
2.0,21.0,93.0,0.0
2.0,33.0,93.0,0.0
2.0,43.0,93.0,0.0
2.0,21.0,93.0,0.0
2.0,33.0,93.0,0.0
2.0,21.0,93.0,192.0
2.0,33.0,93.0,0.0
2.0,43.0,93.0,0.0
2.0,21.0,93.0,0.0
2.0,33.0,93.0,0.0
2.0,21.0,93.0,0.0
2.0,33.0,93.0,0.0
2.0,21.0,93.0,0.0
2.0,33.0,93.0,0.0
2.0,21.0,93.0,0.0
2.0,33.0,93.0,0.0
3.0,21.0,86.0,0.0
3.0,21.0,86.0,0.0
3.0,21.0,68.0,0.0
3.0,21.0,86.0,704.0
3.0,21.0,86.0,0.0
3.0,21.0,86.0,0.0
3.0,21.0,68.0,0.0
3.0,21.0,86.0,896.0
3.0,21.0,86.0,0.0
3.0,21.0,68.0,0.0
3.0,21.0,86.0,704.0
3.0,21.0,86.0,0.0
3.0,21.0,86.0,0.0
3.0,21.0,68.0,0.0
3.0,21.0,86.0,896.0
3.0,21.0,86.0,0.0
3.0,21.0,68.0,0.0
3.0,21.0,86.0,704.0
3.0,21.0,86.0,0.0
3.0,21.0,86.0,0.0
3.0,21.0,68.0,0.0
3.0,21.0,86.0,896.0
3.0,21.0,86.0,0.0
3.0,21.0,68.0,0.0
3.0,21.0,86.0,704.0
3.0,21.0,86.0,0.0
3.0,21.0,86.0,0.0
3.0,21.0,68.0,0.0
3.0,21.0,86.0,896.0
3.0,21.0,86.0,0.0
3.0,21.0,68.0,0.0
3.0,21.0,86.0,704.0
3.0,21.0,86.0,0.0
3.0,21.0,86.0,0.0
3.0,21.0,68.0,0.0
3.0,21.0,86.0,896.0
3.0,21.0,86.0,0.0
3.0,21.0,68.0,0.0
3.0,21.0,86.0,704.0
3.0,21.0,86.0,0.0
3.0,21.0,86.0,0.0
3.0,21.0,68.0,0.0
3.0,21.0,86.0,896.0
3.0,21.0,86.0,0.0
3.0,21.0,68.0,0.0
3.0,21.0,86.0,704.0
3.0,21.0,86.0,0.0
3.0,21.0,86.0,0.0
3.0,21.0,68.0,0.0
3.0,21.0,86.0,896.0
3.0,21.0,86.0,0.0
3.0,21.0,68.0,0.0
3.0,21.0,86.0,704.0
3.0,21.0,86.0,0.0
3.0,21.0,86.0,0.0
3.0,21.0,68.0,0.0
3.0,21.0,86.0,896.0
3.0,21.0,86.0,0.0
3.0,21.0,68.0,0.0
3.0,21.0,86.0,896.0
3.0,21.0,86.0,0.0
3.0,21.0,68.0,0.0
3.0,21.0,86.0,896.0
3.0,21.0,86.0,0.0
3.0,21.0,68.0,0.0
3.0,21.0,86.0,896.0
3.0,21.0,86.0,0.0
3.0,21.0,68.0,0.0
3.0,21.0,86.0,896.0
3.0,21.0,86.0,0.0
3.0,21.0,68.0,0.0
3.0,21.0,86.0,704.0
3.0,21.0,86.0,0.0
3.0,21.0,86.0,0.0
3.0,21.0,68.0,0.0
3.0,21.0,86.0,896.0
3.0,21.0,86.0,0.0
3.0,21.0,68.0,0.0
3.0,21.0,86.0,704.0
3.0,21.0,86.0,0.0
3.0,21.0,86.0,0.0
3.0,21.0,68.0,0.0
3.0,21.0,86.0,896.0
3.0,21.0,86.0,0.0
3.0,21.0,68.0,0.0
3.0,21.0,86.0,704.0
3.0,21.0,86.0,0.0
3.0,21.0,86.0,0.0
3.0,21.0,68.0,0.0
3.0,21.0,86.0,896.0
3.0,21.0,86.0,0.0
3.0,21.0,68.0,0.0
3.0,21.0,86.0,704.0
3.0,21.0,86.0,0.0
3.0,21.0,86.0,0.0
3.0,21.0,68.0,0.0
3.0,21.0,86.0,896.0
3.0,21.0,86.0,0.0
3.0,21.0,86.0,0.0
3.0,21.0,86.0,768.0
3.0,21.0,86.0,0.0
3.0,21.0,86.0,0.0
3.0,21.0,86.0,0.0
3.0,21.0,86.0,960.0
3.0,21.0,86.0,192.0
3.0,21.0,86.0,768.0
3.0,21.0,86.0,0.0
3.0,21.0,86.0,0.0
3.0,21.0,86.0,0.0
4.0,69.0,71.0,1920.0
4.0,81.0,71.0,0.0
4.0,69.0,71.0,0.0
4.0,81.0,71.0,2304.0
4.0,69.0,71.0,1920.0
4.0,81.0,71.0,0.0
4.0,69.0,71.0,0.0
4.0,81.0,71.0,2304.0
4.0,69.0,71.0,1920.0
4.0,81.0,71.0,0.0
4.0,69.0,71.0,0.0
4.0,81.0,71.0,2304.0
4.0,69.0,71.0,1920.0
4.0,81.0,71.0,0.0
4.0,69.0,71.0,0.0
4.0,81.0,71.0,2304.0
4.0,69.0,71.0,8064.0
4.0,81.0,71.0,0.0
4.0,69.0,71.0,0.0
4.0,81.0,71.0,2304.0
4.0,69.0,71.0,1920.0
4.0,81.0,71.0,0.0
4.0,69.0,71.0,0.0
4.0,81.0,71.0,2304.0
9.0,36.0,100.0,0.0
9.0,41.0,100.0,0.0
9.0,36.0,100.0,128.0
9.0,41.0,100.0,0.0
9.0,36.0,100.0,128.0
9.0,41.0,100.0,0.0
9.0,40.0,100.0,320.0
9.0,47.0,100.0,0.0
9.0,45.0,100.0,128.0
9.0,43.0,100.0,128.0
9.0,41.0,100.0,128.0
9.0,36.0,100.0,128.0
9.0,41.0,100.0,0.0
9.0,36.0,100.0,128.0
9.0,41.0,100.0,0.0
9.0,36.0,100.0,128.0
9.0,41.0,100.0,0.0
9.0,44.0,100.0,128.0
9.0,40.0,100.0,128.0
9.0,47.0,100.0,0.0
9.0,45.0,100.0,128.0
9.0,43.0,100.0,128.0
9.0,41.0,100.0,128.0
9.0,36.0,100.0,128.0
9.0,41.0,100.0,0.0
9.0,36.0,100.0,128.0
9.0,41.0,100.0,0.0
9.0,36.0,100.0,128.0
9.0,41.0,100.0,0.0
9.0,44.0,100.0,128.0
9.0,40.0,100.0,128.0
9.0,47.0,100.0,0.0
9.0,45.0,100.0,128.0
9.0,43.0,100.0,128.0
9.0,41.0,100.0,128.0
9.0,36.0,100.0,128.0
9.0,41.0,100.0,0.0
9.0,36.0,100.0,128.0
9.0,41.0,100.0,0.0
9.0,36.0,100.0,128.0
9.0,41.0,100.0,0.0
9.0,44.0,100.0,128.0
9.0,40.0,100.0,128.0
9.0,47.0,100.0,0.0
9.0,45.0,100.0,128.0
9.0,43.0,100.0,128.0
9.0,41.0,100.0,128.0
9.0,36.0,100.0,128.0
9.0,41.0,100.0,0.0
9.0,36.0,100.0,128.0
9.0,41.0,100.0,0.0
9.0,36.0,100.0,128.0
9.0,41.0,100.0,0.0
9.0,40.0,100.0,320.0
9.0,47.0,100.0,0.0
9.0,45.0,100.0,128.0
9.0,43.0,100.0,128.0
9.0,41.0,100.0,128.0
9.0,36.0,100.0,128.0
9.0,41.0,100.0,0.0
9.0,36.0,100.0,128.0
9.0,41.0,100.0,0.0
9.0,36.0,100.0,128.0
9.0,41.0,100.0,0.0
9.0,44.0,100.0,128.0
9.0,40.0,100.0,128.0
9.0,47.0,100.0,0.0
9.0,45.0,100.0,128.0
9.0,43.0,100.0,128.0
9.0,41.0,100.0,128.0
9.0,36.0,100.0,128.0
9.0,41.0,100.0,0.0
9.0,36.0,100.0,128.0
9.0,41.0,100.0,0.0
9.0,36.0,100.0,128.0
9.0,41.0,100.0,0.0
9.0,44.0,100.0,128.0
9.0,40.0,100.0,128.0
9.0,47.0,100.0,0.0
9.0,45.0,100.0,128.0
9.0,43.0,100.0,128.0
9.0,41.0,100.0,128.0
9.0,36.0,100.0,128.0
9.0,41.0,100.0,0.0
9.0,36.0,100.0,128.0
9.0,41.0,100.0,0.0
9.0,36.0,100.0,128.0
9.0,41.0,100.0,0.0
9.0,44.0,100.0,128.0
9.0,40.0,100.0,128.0
9.0,47.0,100.0,0.0
9.0,45.0,100.0,128.0
9.0,43.0,100.0,128.0
9.0,41.0,100.0,128.0
9.0,36.0,100.0,128.0
9.0,41.0,100.0,0.0
9.0,36.0,100.0,128.0
9.0,41.0,100.0,0.0
9.0,36.0,100.0,128.0
9.0,41.0,100.0,0.0
9.0,40.0,100.0,320.0
9.0,47.0,100.0,0.0
9.0,45.0,100.0,128.0
9.0,43.0,100.0,128.0
9.0,41.0,100.0,128.0
9.0,36.0,100.0,128.0
9.0,41.0,100.0,0.0
9.0,36.0,100.0,128.0
9.0,41.0,100.0,0.0
9.0,36.0,100.0,128.0
9.0,41.0,100.0,0.0
9.0,44.0,100.0,128.0
9.0,40.0,100.0,128.0
9.0,47.0,100.0,0.0
9.0,45.0,100.0,128.0
9.0,43.0,100.0,128.0
9.0,41.0,100.0,128.0
9.0,36.0,100.0,128.0
9.0,41.0,100.0,0.0
9.0,36.0,100.0,128.0
9.0,41.0,100.0,0.0
9.0,36.0,100.0,128.0
9.0,41.0,100.0,0.0
9.0,44.0,100.0,128.0
9.0,40.0,100.0,128.0
9.0,47.0,100.0,0.0
9.0,45.0,100.0,128.0
9.0,43.0,100.0,128.0
9.0,41.0,100.0,128.0
9.0,36.0,100.0,128.0
9.0,41.0,100.0,0.0
9.0,36.0,100.0,128.0
9.0,41.0,100.0,0.0
9.0,36.0,100.0,128.0
9.0,41.0,100.0,0.0
9.0,44.0,100.0,128.0
9.0,40.0,100.0,128.0
9.0,47.0,100.0,0.0
9.0,45.0,100.0,128.0
9.0,43.0,100.0,128.0
9.0,41.0,100.0,128.0
9.0,36.0,100.0,128.0
9.0,41.0,100.0,0.0
9.0,36.0,100.0,128.0
9.0,41.0,100.0,0.0
9.0,36.0,100.0,128.0
9.0,41.0,100.0,0.0
9.0,40.0,100.0,320.0
9.0,47.0,100.0,0.0
9.0,45.0,100.0,128.0
9.0,43.0,100.0,128.0
9.0,41.0,100.0,128.0
9.0,36.0,100.0,128.0
9.0,41.0,100.0,0.0
9.0,36.0,100.0,128.0
9.0,41.0,100.0,0.0
9.0,36.0,100.0,128.0
9.0,41.0,100.0,0.0
9.0,44.0,100.0,128.0
9.0,40.0,100.0,128.0
9.0,47.0,100.0,0.0
9.0,45.0,100.0,128.0
9.0,43.0,100.0,128.0
9.0,41.0,100.0,128.0
9.0,36.0,100.0,128.0
9.0,41.0,100.0,0.0
9.0,36.0,100.0,128.0
9.0,41.0,100.0,0.0
9.0,36.0,100.0,128.0
9.0,41.0,100.0,0.0
9.0,44.0,100.0,128.0
9.0,40.0,100.0,128.0
9.0,47.0,100.0,0.0
9.0,45.0,100.0,128.0
9.0,43.0,100.0,128.0
9.0,41.0,100.0,128.0
9.0,36.0,100.0,128.0
9.0,41.0,100.0,0.0
9.0,36.0,100.0,128.0
9.0,41.0,100.0,0.0
9.0,36.0,100.0,128.0
9.0,41.0,100.0,0.0
9.0,40.0,100.0,320.0
9.0,42.0,100.0,0.0
9.0,36.0,100.0,0.0
9.0,46.0,100.0,320.0
9.0,36.0,100.0,320.0
9.0,46.0,100.0,0.0
9.0,49.0,100.0,0.0
9.0,41.0,100.0,0.0
9.0,36.0,100.0,128.0
9.0,41.0,100.0,0.0
9.0,36.0,100.0,128.0
9.0,46.0,100.0,0.0
9.0,41.0,100.0,0.0
9.0,46.0,100.0,320.0
9.0,40.0,100.0,0.0
9.0,46.0,100.0,320.0
9.0,36.0,100.0,320.0
9.0,46.0,100.0,0.0
9.0,41.0,100.0,0.0
9.0,36.0,100.0,128.0
9.0,41.0,100.0,0.0
9.0,36.0,100.0,128.0
9.0,46.0,100.0,0.0
9.0,41.0,100.0,0.0
9.0,46.0,100.0,320.0
9.0,40.0,100.0,0.0
9.0,46.0,100.0,320.0
9.0,36.0,100.0,320.0
9.0,46.0,100.0,0.0
9.0,41.0,100.0,0.0
9.0,36.0,100.0,128.0
9.0,41.0,100.0,0.0
9.0,36.0,100.0,128.0
9.0,46.0,100.0,0.0
9.0,41.0,100.0,0.0
9.0,46.0,100.0,320.0
9.0,40.0,100.0,0.0
9.0,46.0,100.0,320.0
9.0,36.0,100.0,320.0
9.0,46.0,100.0,0.0
9.0,41.0,100.0,0.0
9.0,36.0,100.0,128.0
9.0,41.0,100.0,0.0
9.0,36.0,100.0,128.0
9.0,46.0,100.0,0.0
9.0,41.0,100.0,0.0
9.0,46.0,100.0,320.0
9.0,40.0,100.0,0.0
9.0,46.0,100.0,320.0
9.0,40.0,100.0,0.0
9.0,36.0,100.0,320.0
9.0,41.0,100.0,0.0
9.0,36.0,100.0,128.0
9.0,41.0,100.0,0.0
9.0,36.0,100.0,128.0
9.0,41.0,100.0,0.0
9.0,40.0,100.0,320.0
9.0,47.0,100.0,0.0
9.0,45.0,100.0,128.0
9.0,43.0,100.0,128.0
9.0,41.0,100.0,128.0
9.0,36.0,100.0,128.0
9.0,41.0,100.0,0.0
9.0,36.0,100.0,128.0
9.0,41.0,100.0,0.0
9.0,36.0,100.0,128.0
9.0,41.0,100.0,0.0
9.0,44.0,100.0,128.0
9.0,40.0,100.0,128.0
9.0,47.0,100.0,0.0
9.0,45.0,100.0,128.0
9.0,43.0,100.0,128.0
9.0,41.0,100.0,128.0
9.0,36.0,100.0,128.0
9.0,41.0,100.0,0.0
9.0,36.0,100.0,128.0
9.0,41.0,100.0,0.0
9.0,36.0,100.0,128.0
9.0,41.0,100.0,0.0
9.0,44.0,100.0,128.0
9.0,40.0,100.0,128.0
9.0,47.0,100.0,0.0
9.0,45.0,100.0,128.0
9.0,43.0,100.0,128.0
9.0,41.0,100.0,128.0
9.0,36.0,100.0,128.0
9.0,41.0,100.0,0.0
9.0,36.0,100.0,128.0
9.0,41.0,100.0,0.0
9.0,36.0,100.0,128.0
9.0,41.0,100.0,0.0
9.0,44.0,100.0,128.0
9.0,40.0,100.0,128.0
9.0,47.0,100.0,0.0
9.0,45.0,100.0,128.0
9.0,43.0,100.0,128.0
9.0,41.0,100.0,128.0
9.0,36.0,100.0,128.0
9.0,41.0,100.0,0.0
9.0,36.0,100.0,128.0
9.0,41.0,100.0,0.0
9.0,36.0,100.0,128.0
9.0,41.0,100.0,0.0
9.0,40.0,100.0,320.0
9.0,47.0,100.0,0.0
9.0,45.0,100.0,128.0
9.0,43.0,100.0,128.0
9.0,41.0,100.0,128.0
9.0,36.0,100.0,128.0
9.0,41.0,100.0,0.0
9.0,36.0,100.0,128.0
9.0,41.0,100.0,0.0
9.0,36.0,100.0,128.0
9.0,41.0,100.0,0.0
9.0,44.0,100.0,128.0
9.0,40.0,100.0,128.0
9.0,47.0,100.0,0.0
9.0,45.0,100.0,128.0
9.0,43.0,100.0,128.0
9.0,41.0,100.0,128.0
9.0,36.0,100.0,128.0
9.0,41.0,100.0,0.0
9.0,36.0,100.0,128.0
9.0,41.0,100.0,0.0
9.0,36.0,100.0,128.0
9.0,41.0,100.0,0.0
9.0,44.0,100.0,128.0
9.0,40.0,100.0,128.0
9.0,47.0,100.0,0.0
9.0,45.0,100.0,128.0
9.0,43.0,100.0,128.0
9.0,41.0,100.0,128.0
9.0,36.0,100.0,128.0
9.0,41.0,100.0,0.0
9.0,36.0,100.0,128.0
9.0,41.0,100.0,0.0
9.0,36.0,100.0,128.0
9.0,41.0,100.0,0.0
9.0,40.0,100.0,320.0
9.0,42.0,100.0,0.0
9.0,36.0,100.0,0.0
9.0,46.0,100.0,320.0
9.0,36.0,100.0,320.0
9.0,46.0,100.0,0.0
9.0,49.0,100.0,0.0
9.0,41.0,100.0,0.0
9.0,36.0,100.0,128.0
9.0,41.0,100.0,0.0
9.0,36.0,100.0,128.0
9.0,46.0,100.0,0.0
9.0,41.0,100.0,0.0
9.0,46.0,100.0,320.0
9.0,40.0,100.0,0.0
9.0,46.0,100.0,320.0
9.0,36.0,100.0,320.0
9.0,46.0,100.0,0.0
9.0,41.0,100.0,0.0
9.0,36.0,100.0,128.0
9.0,41.0,100.0,0.0
9.0,36.0,100.0,128.0
9.0,46.0,100.0,0.0
9.0,41.0,100.0,0.0
9.0,46.0,100.0,320.0
9.0,40.0,100.0,0.0
9.0,46.0,100.0,320.0
9.0,36.0,100.0,320.0
9.0,46.0,100.0,0.0
9.0,41.0,100.0,0.0
9.0,36.0,100.0,320.0
9.0,46.0,100.0,0.0
9.0,41.0,100.0,0.0
9.0,46.0,100.0,320.0
9.0,40.0,100.0,0.0
9.0,46.0,100.0,320.0
9.0,36.0,100.0,128.0
9.0,41.0,100.0,0.0
9.0,42.0,100.0,0.0
9.0,36.0,100.0,128.0
9.0,41.0,100.0,0.0
9.0,42.0,100.0,0.0
9.0,36.0,100.0,128.0
9.0,41.0,100.0,0.0
9.0,42.0,100.0,0.0
9.0,36.0,100.0,128.0
9.0,41.0,100.0,0.0
9.0,42.0,100.0,0.0
0.0,0.0,0.0,0.0
0.0,0.0,0.0,0.0
0.0,0.0,0.0,0.0
0.0,0.0,0.0,0.0
0.0,0.0,0.0,0.0
0.0,0.0,0.0,0.0
0.0,0.0,0.0,0.0
0.0,0.0,0.0,0.0
0.0,0.0,0.0,0.0
0.0,0.0,0.0,0.0
0.0,0.0,0.0,0.0
0.0,0.0,0.0,0.0
0.0,0.0,0.0,0.0
