track,note,velocity,time
1,51,127,3840
1,45,127,0
1,38,127,0
1,51,127,105
1,45,127,0
1,38,127,0
1,51,127,105
1,45,127,0
1,38,127,0
1,51,127,105
1,45,127,0
1,38,127,0
1,51,127,105
1,45,127,0
1,51,127,0
1,45,127,0
1,51,127,0
1,45,127,0
1,38,127,0
1,51,127,105
1,45,127,0
1,38,127,0
1,51,127,105
1,45,127,0
1,38,127,0
1,51,127,105
1,45,127,0
1,38,127,0
1,51,127,105
1,45,127,0
1,51,127,0
1,45,127,0
1,51,127,0
1,45,127,0
1,38,127,0
1,51,127,105
1,45,127,0
1,38,127,0
1,51,127,105
1,45,127,0
1,38,127,0
1,51,127,105
1,45,127,0
1,38,127,0
1,51,127,105
1,45,127,0
1,51,127,0
1,45,127,0
1,51,127,0
1,45,127,0
1,38,127,0
1,51,127,105
1,45,127,0
1,38,127,0
1,51,127,105
1,45,127,0
1,38,127,0
1,51,127,105
1,45,127,0
1,38,127,0
1,51,127,105
1,45,127,0
1,51,127,0
1,45,127,0
1,51,127,0
1,45,127,0
1,38,127,0
1,51,127,105
1,45,127,0
1,38,127,0
1,51,127,105
1,45,127,0
1,38,127,0
1,51,127,105
1,45,127,0
1,38,127,0
1,51,127,105
1,45,127,0
1,51,127,0
1,45,127,0
1,51,127,0
1,45,127,0
1,38,127,0
1,51,127,105
1,45,127,0
1,38,127,0
1,51,127,105
1,45,127,0
1,38,127,0
1,51,127,105
1,45,127,0
1,38,127,0
1,51,127,105
1,45,127,0
1,51,127,0
1,45,127,0
1,51,127,0
1,45,127,0
1,38,127,0
1,51,127,105
1,45,127,0
1,38,127,0
1,51,127,105
1,45,127,0
1,38,127,0
1,51,127,105
1,45,127,0
1,38,127,0
1,51,127,105
1,45,127,0
1,51,127,0
1,45,127,0
1,51,127,0
1,45,127,0
1,38,127,0
1,51,127,105
1,45,127,0
1,38,127,0
1,51,127,105
1,45,127,0
1,38,127,0
1,51,127,105
1,45,127,0
1,38,127,0
1,51,127,105
1,45,127,0
1,51,127,0
1,45,127,0
1,57,127,0
1,56,127,0
1,57,127,0
1,53,127,0
1,57,127,0
1,59,127,0
1,51,127,0
1,45,127,0
1,38,127,0
1,51,127,105
1,45,127,0
1,38,127,0
1,51,127,105
1,45,127,0
1,38,127,0
1,51,127,105
1,45,127,0
1,38,127,0
1,51,127,105
1,45,127,0
1,51,127,0
1,45,127,0
1,51,127,0
1,45,127,0
1,38,127,0
1,51,127,105
1,45,127,0
1,38,127,0
1,51,127,105
1,45,127,0
1,38,127,0
1,51,127,105
1,45,127,0
1,38,127,0
1,51,127,105
1,45,127,0
1,51,127,0
1,45,127,0
1,51,127,0
1,45,127,0
1,38,127,0
1,51,127,105
1,45,127,0
1,38,127,0
1,51,127,105
1,45,127,0
1,38,127,0
1,51,127,105
1,45,127,0
1,38,127,0
1,51,127,105
1,45,127,0
1,51,127,0
1,45,127,0
1,51,127,0
1,45,127,0
1,38,127,0
1,51,127,105
1,45,127,0
1,38,127,0
1,51,127,105
1,45,127,0
1,38,127,0
1,51,127,105
1,45,127,0
1,38,127,0
1,51,127,105
1,45,127,0
1,51,127,0
1,45,127,0
1,51,127,0
1,45,127,0
1,38,127,0
1,51,127,105
1,45,127,0
1,38,127,0
1,51,127,105
1,45,127,0
1,38,127,0
1,51,127,105
1,45,127,0
1,38,127,0
1,51,127,105
1,45,127,0
1,51,127,0
1,45,127,0
1,51,127,0
1,45,127,0
1,38,127,0
1,51,127,105
1,45,127,0
1,38,127,0
1,51,127,105
1,45,127,0
1,38,127,0
1,51,127,105
1,45,127,0
1,38,127,0
1,51,127,105
1,45,127,0
1,51,127,0
1,45,127,0
1,51,127,0
1,45,127,0
1,38,127,0
1,51,127,105
1,45,127,0
1,38,127,0
1,51,127,105
1,45,127,0
1,38,127,0
1,51,127,105
1,45,127,0
1,38,127,0
1,51,127,105
1,45,127,0
1,51,127,0
1,45,127,0
1,51,127,0
1,45,127,0
1,38,127,0
1,51,127,105
1,45,127,0
1,38,127,0
1,51,127,105
1,45,127,0
1,38,127,0
1,51,127,105
1,45,127,0
1,38,127,0
1,51,127,105
1,45,127,0
1,51,127,0
1,45,127,0
1,57,127,0
1,54,127,0
1,57,127,0
1,53,127,0
1,50,127,0
1,57,127,0
1,54,127,0
1,57,127,0
1,53,127,0
1,51,127,0
1,46,127,0
1,50,127,0
1,45,127,0
1,51,127,0
1,46,127,0
1,48,127,0
1,43,127,0
1,51,127,225
1,46,127,0
1,48,127,0
1,43,127,0
1,57,127,0
1,54,127,0
1,57,127,0
1,53,127,0
1,50,127,0
1,57,127,0
1,54,127,0
1,57,127,0
1,53,127,0
1,51,127,0
1,46,127,0
1,50,127,0
1,45,127,0
1,51,127,0
1,46,127,0
1,48,127,0
1,43,127,0
1,51,127,225
1,46,127,0
1,48,127,0
1,43,127,0
1,57,127,0
1,56,127,0
1,57,127,0
1,53,127,0
1,57,127,0
1,59,127,0
1,51,127,0
1,45,127,0
1,38,127,0
1,51,127,105
1,45,127,0
1,38,127,0
1,51,127,105
1,45,127,0
1,38,127,0
1,51,127,105
1,45,127,0
1,38,127,0
1,51,127,105
1,45,127,0
1,51,127,0
1,45,127,0
1,51,127,0
1,45,127,0
1,38,127,0
1,51,127,105
1,45,127,0
1,38,127,0
1,51,127,105
1,45,127,0
1,38,127,0
1,51,127,105
1,45,127,0
1,38,127,0
1,51,127,105
1,45,127,0
1,51,127,0
1,45,127,0
1,51,127,0
1,45,127,0
1,38,127,0
1,51,127,105
1,45,127,0
1,38,127,0
1,51,127,105
1,45,127,0
1,38,127,0
1,51,127,105
1,45,127,0
1,38,127,0
1,51,127,105
1,45,127,0
1,51,127,0
1,45,127,0
1,51,127,0
1,45,127,0
1,38,127,0
1,51,127,105
1,45,127,0
1,38,127,0
1,51,127,105
1,45,127,0
1,38,127,0
1,51,127,105
1,45,127,0
1,38,127,0
1,51,127,105
1,45,127,0
1,51,127,0
1,45,127,0
1,51,127,0
1,45,127,0
1,38,127,0
1,51,127,105
1,45,127,0
1,38,127,0
1,51,127,105
1,45,127,0
1,38,127,0
1,51,127,105
1,45,127,0
1,38,127,0
1,51,127,105
1,45,127,0
1,51,127,0
1,45,127,0
1,51,127,0
1,45,127,0
1,38,127,0
1,51,127,105
1,45,127,0
1,38,127,0
1,51,127,105
1,45,127,0
1,38,127,0
1,51,127,105
1,45,127,0
1,38,127,0
1,51,127,105
1,45,127,0
1,51,127,0
1,45,127,0
1,51,127,0
1,45,127,0
1,38,127,0
1,51,127,105
1,45,127,0
1,38,127,0
1,51,127,105
1,45,127,0
1,38,127,0
1,51,127,105
1,45,127,0
1,38,127,0
1,51,127,105
1,45,127,0
1,51,127,0
1,45,127,0
1,51,127,0
1,45,127,0
1,38,127,0
1,51,127,105
1,45,127,0
1,38,127,0
1,51,127,105
1,45,127,0
1,38,127,0
1,51,127,105
1,45,127,0
1,38,127,0
1,51,127,105
1,45,127,0
1,51,127,0
1,45,127,0
1,57,127,0
1,54,127,0
1,57,127,0
1,53,127,0
1,50,127,0
1,57,127,0
1,54,127,0
1,57,127,0
1,53,127,0
1,51,127,0
1,46,127,0
1,50,127,0
1,45,127,0
1,51,127,0
1,46,127,0
1,48,127,0
1,43,127,0
1,51,127,225
1,46,127,0
1,48,127,0
1,43,127,0
1,57,127,0
1,54,127,0
1,57,127,0
1,53,127,0
1,50,127,0
1,57,127,0
1,54,127,0
1,57,127,0
1,53,127,0
1,51,127,0
1,46,127,0
1,50,127,0
1,45,127,0
1,51,127,0
1,46,127,0
1,48,127,0
1,43,127,0
1,51,127,225
1,46,127,0
1,48,127,0
1,43,127,0
1,57,127,0
1,57,127,0
1,57,127,0
1,57,127,0
1,58,127,0
1,57,127,0
1,61,127,0
1,57,127,0
1,60,127,0
1,57,127,0
1,57,127,0
1,57,127,0
1,58,127,0
1,57,127,0
1,61,127,0
1,57,127,0
1,60,127,0
1,57,127,0
1,57,127,0
1,57,127,0
1,58,127,0
1,57,127,0
1,61,127,0
1,57,127,0
1,60,127,0
1,57,127,0
1,57,127,0
1,57,127,0
1,58,127,0
1,57,127,0
1,61,127,0
1,57,127,0
1,60,127,0
1,33,127,0
1,45,127,0
1,34,127,0
1,46,127,0
1,37,127,0
1,49,127,0
1,36,127,0
1,48,127,0
1,33,127,0
1,45,127,0
1,34,127,0
1,46,127,0
1,37,127,0
1,49,127,0
1,36,127,0
1,48,127,0
1,33,127,0
1,45,127,0
1,34,127,0
1,46,127,0
1,37,127,0
1,49,127,0
1,36,127,0
1,48,127,0
1,33,127,0
1,45,127,0
1,34,127,0
1,46,127,0
1,37,127,0
1,49,127,0
1,36,127,0
1,48,127,0
1,56,127,0
1,50,127,0
1,38,127,0
1,56,127,105
1,50,127,0
1,38,127,0
1,56,127,105
1,50,127,0
1,38,127,0
1,56,127,105
1,50,127,0
1,38,127,0
1,56,127,105
1,50,127,0
1,56,127,0
1,50,127,0
1,56,127,0
1,50,127,0
1,38,127,0
1,56,127,105
1,50,127,0
1,38,127,0
1,56,127,105
1,50,127,0
1,38,127,0
1,56,127,105
1,50,127,0
1,38,127,0
1,56,127,105
1,50,127,0
1,51,127,0
1,45,127,0
1,38,127,0
1,51,127,105
1,45,127,0
1,38,127,0
1,51,127,105
1,45,127,0
1,38,127,0
1,51,127,105
1,45,127,0
1,38,127,0
1,51,127,105
1,45,127,0
1,51,127,0
1,45,127,0
1,51,127,0
1,45,127,0
1,38,127,0
1,51,127,105
1,45,127,0
1,38,127,0
1,51,127,105
1,45,127,0
1,38,127,0
1,51,127,105
1,45,127,0
1,38,127,0
1,51,127,105
1,45,127,0
1,51,127,0
1,45,127,0
1,51,127,0
1,45,127,0
1,38,127,0
1,51,127,105
1,45,127,0
1,38,127,0
1,51,127,105
1,45,127,0
1,38,127,0
1,51,127,105
1,45,127,0
1,38,127,0
1,51,127,105
1,45,127,0
1,51,127,0
1,45,127,0
1,51,127,0
1,45,127,0
1,38,127,0
1,51,127,105
1,45,127,0
1,38,127,0
1,51,127,105
1,45,127,0
1,38,127,0
1,51,127,105
1,45,127,0
1,38,127,0
1,51,127,105
1,45,127,0
1,51,127,0
1,45,127,0
1,51,127,0
1,45,127,0
1,38,127,0
1,51,127,105
1,45,127,0
1,38,127,0
1,51,127,105
1,45,127,0
1,38,127,0
1,51,127,105
1,45,127,0
1,38,127,0
1,51,127,105
1,45,127,0
1,51,127,0
1,45,127,0
1,51,127,0
1,45,127,0
1,38,127,0
1,51,127,105
1,45,127,0
1,38,127,0
1,51,127,105
1,45,127,0
1,38,127,0
1,51,127,105
1,45,127,0
1,38,127,0
1,51,127,105
1,45,127,0
1,51,127,0
1,45,127,0
1,51,127,0
1,45,127,0
1,38,127,0
1,51,127,105
1,45,127,0
1,38,127,0
1,51,127,105
1,45,127,0
1,38,127,0
1,51,127,105
1,45,127,0
1,38,127,0
1,51,127,105
1,45,127,0
1,51,127,0
1,45,127,0
1,51,127,0
1,45,127,0
1,38,127,0
1,51,127,105
1,45,127,0
1,38,127,0
1,51,127,105
1,45,127,0
1,38,127,0
1,51,127,105
1,45,127,0
1,38,127,0
1,51,127,105
1,45,127,0
1,51,127,0
1,45,127,0
1,57,127,0
1,54,127,0
1,57,127,0
1,53,127,0
1,50,127,0
1,57,127,0
1,54,127,0
1,57,127,0
1,53,127,0
1,51,127,0
1,46,127,0
1,50,127,0
1,45,127,0
1,51,127,0
1,46,127,0
1,48,127,0
1,43,127,0
1,51,127,225
1,46,127,0
1,48,127,0
1,43,127,0
1,57,127,0
1,54,127,0
1,57,127,0
1,53,127,0
1,50,127,0
1,57,127,0
1,54,127,0
1,57,127,0
1,53,127,0
1,51,127,0
1,46,127,0
1,50,127,0
1,45,127,0
1,51,127,0
1,46,127,0
1,48,127,0
1,43,127,0
1,51,127,225
1,46,127,0
1,48,127,0
1,43,127,0
1,57,127,0
1,54,127,0
1,57,127,0
1,53,127,0
1,50,127,0
1,57,127,0
1,54,127,0
1,57,127,0
1,53,127,0
1,51,127,0
1,46,127,0
1,50,127,0
1,45,127,0
1,51,127,0
1,46,127,0
1,48,127,0
1,43,127,0
1,51,127,225
1,46,127,0
1,48,127,0
1,43,127,0
1,57,127,0
1,54,127,0
1,57,127,0
1,53,127,0
1,50,127,0
1,57,127,0
1,54,127,0
1,57,127,0
1,53,127,0
1,51,127,0
1,46,127,0
1,50,127,0
1,45,127,0
1,51,127,0
1,46,127,0
1,48,127,0
1,43,127,0
1,51,127,225
1,46,127,0
1,48,127,0
1,43,127,0
1,68,127,0
1,57,127,0
1,65,127,0
1,54,127,0
1,62,127,0
1,51,127,0
1,67,127,0
1,56,127,0
1,64,127,0
1,53,127,0
1,61,127,0
1,50,127,0
1,66,127,0
1,55,127,0
1,64,127,0
1,52,127,0
1,71,127,0
1,60,127,0
1,43,127,0
2,63,127,3840
2,57,127,0
2,48,127,0
2,63,127,105
2,57,127,0
2,48,127,0
2,63,127,105
2,57,127,0
2,48,127,0
2,63,127,105
2,57,127,0
2,48,127,0
2,63,127,105
2,57,127,0
2,63,127,0
2,57,127,0
2,63,127,0
2,57,127,0
2,48,127,0
2,63,127,105
2,57,127,0
2,48,127,0
2,63,127,105
2,57,127,0
2,48,127,0
2,63,127,105
2,57,127,0
2,48,127,0
2,63,127,105
2,57,127,0
2,63,127,0
2,57,127,0
2,63,127,0
2,57,127,0
2,48,127,0
2,63,127,105
2,57,127,0
2,48,127,0
2,63,127,105
2,57,127,0
2,48,127,0
2,63,127,105
2,57,127,0
2,48,127,0
2,63,127,105
2,57,127,0
2,63,127,0
2,57,127,0
2,63,127,0
2,57,127,0
2,48,127,0
2,63,127,105
2,57,127,0
2,48,127,0
2,63,127,105
2,57,127,0
2,48,127,0
2,63,127,105
2,57,127,0
2,48,127,0
2,63,127,105
2,57,127,0
2,63,127,0
2,57,127,0
2,63,127,0
2,57,127,0
2,48,127,0
2,63,127,105
2,57,127,0
2,48,127,0
2,63,127,105
2,57,127,0
2,48,127,0
2,63,127,105
2,57,127,0
2,48,127,0
2,63,127,105
2,57,127,0
2,63,127,0
2,57,127,0
2,63,127,0
2,57,127,0
2,48,127,0
2,63,127,105
2,57,127,0
2,48,127,0
2,63,127,105
2,57,127,0
2,48,127,0
2,63,127,105
2,57,127,0
2,48,127,0
2,63,127,105
2,57,127,0
2,63,127,0
2,57,127,0
2,63,127,0
2,57,127,0
2,48,127,0
2,63,127,105
2,57,127,0
2,48,127,0
2,63,127,105
2,57,127,0
2,48,127,0
2,63,127,105
2,57,127,0
2,48,127,0
2,63,127,105
2,57,127,0
2,63,127,0
2,57,127,0
2,63,127,0
2,57,127,0
2,48,127,0
2,63,127,105
2,57,127,0
2,48,127,0
2,63,127,105
2,57,127,0
2,48,127,0
2,63,127,105
2,57,127,0
2,48,127,0
2,63,127,105
2,57,127,0
2,63,127,0
2,57,127,0
2,57,127,0
2,56,127,0
2,57,127,0
2,53,127,0
2,57,127,0
2,59,127,0
2,63,127,0
2,57,127,0
2,48,127,0
2,63,127,105
2,57,127,0
2,48,127,0
2,63,127,105
2,57,127,0
2,48,127,0
2,63,127,105
2,57,127,0
2,48,127,0
2,63,127,105
2,57,127,0
2,63,127,0
2,57,127,0
2,63,127,0
2,57,127,0
2,48,127,0
2,63,127,105
2,57,127,0
2,48,127,0
2,63,127,105
2,57,127,0
2,48,127,0
2,63,127,105
2,57,127,0
2,48,127,0
2,63,127,105
2,57,127,0
2,63,127,0
2,57,127,0
2,63,127,0
2,57,127,0
2,48,127,0
2,63,127,105
2,57,127,0
2,48,127,0
2,63,127,105
2,57,127,0
2,48,127,0
2,63,127,105
2,57,127,0
2,48,127,0
2,63,127,105
2,57,127,0
2,63,127,0
2,57,127,0
2,63,127,0
2,57,127,0
2,48,127,0
2,63,127,105
2,57,127,0
2,48,127,0
2,63,127,105
2,57,127,0
2,48,127,0
2,63,127,105
2,57,127,0
2,48,127,0
