track,note,velocity,time
1,33,100,0
1,33,100,0
1,46,100,0
1,46,100,0
1,33,100,0
1,33,100,0
1,46,100,0
1,46,100,0
1,33,100,0
1,33,100,0
1,46,100,0
1,33,100,0
1,33,100,0
1,46,100,0
1,46,100,0
1,33,100,0
1,33,100,0
1,46,100,0
1,46,100,0
1,33,100,0
1,33,100,0
1,46,100,0
1,33,100,2160
1,33,100,0
1,40,100,0
1,40,100,0
1,33,100,0
1,33,100,0
1,40,100,0
1,40,100,0
1,33,100,0
1,33,100,0
1,40,100,0
1,33,100,0
1,33,100,0
1,40,100,0
1,40,100,0
1,33,100,0
1,33,100,0
1,40,100,0
1,40,100,0
1,33,100,0
1,33,100,0
1,40,100,0
1,33,100,0
1,33,100,0
1,40,100,0
1,40,100,0
1,33,100,0
1,33,100,0
1,40,100,0
1,40,100,0
1,33,100,0
1,33,100,0
1,40,100,0
1,33,100,0
1,33,100,0
1,40,100,0
1,40,100,0
1,33,100,0
1,33,100,0
1,40,100,0
1,40,100,0
1,33,100,0
1,33,100,0
1,40,100,0
1,33,100,0
1,33,100,0
1,40,100,0
1,40,100,0
1,33,100,0
1,33,100,0
1,40,100,0
1,40,100,0
1,33,100,0
1,33,100,0
1,40,100,0
1,33,100,0
1,33,100,0
1,40,100,0
1,40,100,0
1,33,100,0
1,33,100,0
1,40,100,0
1,40,100,0
1,33,100,0
1,33,100,0
1,40,100,0
1,33,100,0
1,33,100,0
1,40,100,0
1,40,100,0
1,33,100,0
1,33,100,0
1,40,100,0
1,40,100,0
1,33,100,0
1,33,100,0
1,40,100,0
1,33,100,0
1,33,100,0
1,40,100,0
1,40,100,0
1,33,100,0
1,33,100,0
1,40,100,0
1,36,100,720
1,34,100,0
1,36,100,0
1,35,100,0
1,34,100,0
1,36,100,720
1,35,100,0
1,34,100,0
1,36,100,720
1,35,100,0
1,34,100,0
1,36,100,240
1,35,100,0
1,34,100,0
1,36,100,720
1,35,100,0
1,34,100,0
1,36,100,720
1,35,100,0
1,34,100,0
1,36,100,240
1,35,100,0
1,34,100,0
1,36,100,720
1,35,100,0
1,34,100,0
1,36,100,720
1,35,100,0
1,34,100,0
1,36,100,240
1,35,100,0
1,34,100,0
1,36,100,720
1,35,100,0
1,34,100,0
1,36,100,720
1,35,100,0
1,34,100,0
1,36,100,240
1,35,100,0
1,34,100,0
1,36,100,720
1,35,100,0
1,34,100,0
1,36,100,720
1,35,100,0
1,34,100,0
1,36,100,240
1,35,100,0
1,34,100,0
1,36,100,720
1,35,100,0
1,34,100,0
1,36,100,720
1,35,100,0
1,34,100,0
1,36,100,240
1,35,100,0
1,34,100,0
1,36,100,720
1,35,100,0
1,34,100,0
1,36,100,720
1,35,100,0
1,34,100,0
1,36,100,240
1,35,100,0
1,34,100,0
1,36,100,720
1,35,100,0
1,34,100,0
1,36,100,720
1,33,100,0
1,33,100,0
1,40,100,0
1,40,100,0
1,33,100,0
1,33,100,0
1,40,100,0
1,40,100,0
1,33,100,0
1,33,100,0
1,40,100,0
1,33,100,0
1,33,100,0
1,40,100,0
1,40,100,0
1,33,100,0
1,33,100,0
1,40,100,0
1,40,100,0
1,33,100,0
1,33,100,0
1,40,100,0
1,33,100,0
1,33,100,0
1,40,100,0
1,40,100,0
1,33,100,0
1,33,100,0
1,40,100,0
1,40,100,0
1,33,100,0
1,33,100,0
1,40,100,0
1,33,100,0
1,33,100,0
1,40,100,0
1,40,100,0
1,33,100,0
1,33,100,0
1,40,100,0
1,40,100,0
1,33,100,0
1,33,100,0
1,40,100,0
1,33,100,0
1,33,100,0
1,40,100,0
1,40,100,0
1,33,100,0
1,33,100,0
1,40,100,0
1,40,100,0
1,33,100,0
1,33,100,0
1,40,100,0
1,33,100,0
1,33,100,0
1,40,100,0
1,40,100,0
1,33,100,0
1,33,100,0
1,40,100,0
1,40,100,0
1,33,100,0
1,33,100,0
1,40,100,0
1,33,100,0
1,33,100,0
1,40,100,0
1,40,100,0
1,33,100,0
1,33,100,0
1,40,100,0
1,40,100,0
1,33,100,0
1,33,100,0
1,40,100,0
1,33,100,0
1,33,100,0
1,40,100,0
1,40,100,0
1,33,100,0
1,33,100,0
1,40,100,0
1,40,100,0
1,33,100,0
1,33,100,0
1,40,100,0
1,36,100,0
1,35,100,0
1,34,100,0
1,36,100,720
1,35,100,0
1,34,100,0
1,36,100,720
1,35,100,0
1,34,100,0
1,36,100,240
1,35,100,0
1,34,100,0
1,36,100,720
1,35,100,0
1,34,100,0
1,36,100,720
1,36,100,0
1,35,100,0
1,34,100,0
1,36,100,720
1,35,100,0
1,34,100,0
1,36,100,720
1,35,100,0
1,34,100,0
1,36,100,240
1,35,100,0
1,34,100,0
1,36,100,720
1,35,100,0
1,34,100,0
1,36,100,720
1,35,100,0
1,34,100,0
1,36,100,240
1,35,100,0
1,34,100,0
1,36,100,720
1,35,100,0
1,34,100,0
1,36,100,720
1,35,100,0
1,34,100,0
1,36,100,240
1,35,100,0
1,34,100,0
1,36,100,720
1,35,100,0
1,34,100,0
1,36,100,720
1,35,100,0
1,34,100,0
1,36,100,240
1,35,100,0
1,34,100,0
1,36,100,720
1,35,100,0
1,34,100,0
1,36,100,720
1,35,100,0
1,34,100,0
1,36,100,240
1,35,100,0
1,34,100,0
1,36,100,720
1,35,100,0
1,34,100,0
1,36,100,720
1,35,100,0
1,34,100,0
1,36,100,240
1,35,100,0
1,34,100,0
1,36,100,720
1,35,100,0
1,34,100,0
1,36,100,720
1,35,100,0
1,34,100,0
1,36,100,240
1,35,100,0
1,34,100,0
1,36,100,720
1,35,100,0
1,34,100,0
1,36,100,720
1,33,100,0
1,33,100,0
1,40,100,0
1,40,100,0
1,33,100,0
1,33,100,0
1,40,100,0
1,40,100,0
1,33,100,0
1,33,100,0
1,40,100,0
1,33,100,0
1,33,100,0
1,40,100,0
1,40,100,0
1,33,100,0
1,33,100,0
1,40,100,0
1,40,100,0
1,33,100,0
1,33,100,0
1,40,100,0
1,33,100,0
1,33,100,0
1,40,100,0
1,40,100,0
1,33,100,0
1,33,100,0
1,40,100,0
1,40,100,0
1,33,100,0
1,33,100,0
1,40,100,0
1,33,100,0
1,33,100,0
1,40,100,0
1,40,100,0
1,33,100,0
1,33,100,0
1,40,100,0
1,40,100,0
1,33,100,0
1,33,100,0
1,40,100,0
1,33,100,0
1,33,100,0
1,40,100,0
1,40,100,0
1,33,100,0
1,33,100,0
1,40,100,0
1,40,100,0
1,33,100,0
1,33,100,0
1,40,100,0
1,33,100,0
1,33,100,0
1,40,100,0
1,40,100,0
1,33,100,0
1,33,100,0
1,40,100,0
1,40,100,0
1,33,100,0
1,33,100,0
1,40,100,0
1,33,100,0
1,33,100,0
1,40,100,0
1,40,100,0
1,33,100,0
1,33,100,0
1,40,100,0
1,40,100,0
1,33,100,0
1,33,100,0
1,40,100,0
1,33,100,0
1,33,100,0
1,40,100,0
1,40,100,0
1,33,100,0
1,33,100,0
1,40,100,0
1,40,100,0
1,33,100,0
1,33,100,0
1,40,100,0
1,33,100,0
1,33,100,0
1,33,100,240
1,33,100,0
1,33,100,240
1,33,100,0
1,33,100,240
1,33,100,0
1,34,100,240
1,34,100,240
1,33,100,240
1,33,100,0
1,33,100,240
1,33,100,0
1,33,100,240
1,33,100,0
1,33,100,240
1,33,100,0
1,34,100,240
1,34,100,240
1,33,100,240
1,33,100,0
1,33,100,240
1,33,100,0
1,33,100,240
1,33,100,0
1,33,100,240
1,33,100,0
1,34,100,240
1,34,100,240
1,33,100,240
1,33,100,0
1,33,100,240
1,33,100,0
1,33,100,240
1,33,100,0
1,33,100,240
1,33,100,0
1,34,100,240
1,34,100,240
1,33,100,240
1,34,100,7680
1,34,100,0
1,33,100,0
1,33,100,0
1,33,100,240
1,33,100,0
1,34,100,1680
1,34,100,0
1,33,100,0
1,33,100,0
1,33,100,240
1,33,100,0
1,34,100,1680
1,34,100,0
1,33,100,0
1,33,100,0
1,33,100,240
1,33,100,0
1,34,100,1680
1,34,100,0
1,33,100,0
1,33,100,0
1,33,100,240
1,33,100,0
1,34,100,1680
1,34,100,0
1,33,100,0
1,33,100,0
1,33,100,240
1,33,100,0
1,34,100,1680
1,34,100,0
1,33,100,0
1,33,100,0
1,33,100,240
1,33,100,0
1,34,100,1680
1,34,100,0
1,33,100,0
1,33,100,0
1,33,100,240
1,33,100,0
1,34,100,1680
1,34,100,0
1,33,100,0
1,33,100,0
1,33,100,240
1,33,100,0
1,34,100,1680
1,34,100,0
1,33,100,0
1,33,100,0
1,33,100,240
1,33,100,0
1,33,100,240
1,33,100,0
1,33,100,240
1,33,100,0
1,34,100,240
1,34,100,240
1,33,100,240
1,33,100,0
1,33,100,240
1,33,100,0
1,33,100,240
1,33,100,0
1,33,100,240
1,33,100,0
1,34,100,240
1,34,100,240
1,33,100,240
1,33,100,0
1,33,100,240
1,33,100,0
1,33,100,240
1,33,100,0
1,33,100,240
1,33,100,0
1,34,100,240
1,34,100,240
1,33,100,240
1,33,100,0
1,33,100,240
1,33,100,0
1,33,100,240
1,33,100,0
1,33,100,240
1,33,100,0
1,34,100,240
1,34,100,240
1,33,100,240
1,33,100,0
1,33,100,240
1,33,100,0
1,33,100,240
1,33,100,0
1,33,100,240
1,33,100,0
1,34,100,240
1,34,100,240
1,33,100,240
1,33,100,0
1,33,100,240
1,33,100,0
1,33,100,240
1,33,100,0
1,33,100,240
1,33,100,0
1,34,100,240
1,34,100,240
1,33,100,240
1,33,100,0
1,33,100,240
1,33,100,0
1,33,100,240
1,33,100,0
1,33,100,240
1,33,100,0
1,34,100,240
1,34,100,240
1,33,100,240
1,33,100,0
1,33,100,240
1,33,100,0
1,33,100,240
1,33,100,0
1,33,100,240
1,34,100,0
1,34,100,0
1,34,100,0
1,34,100,0
1,34,100,0
1,34,100,0
1,41,100,0
1,33,100,0
1,33,100,0
1,40,100,0
1,40,100,0
1,33,100,0
1,33,100,0
1,40,100,0
1,40,100,0
1,33,100,0
1,33,100,0
1,40,100,0
1,33,100,0
1,33,100,0
1,40,100,0
1,40,100,0
1,33,100,0
1,33,100,0
1,40,100,0
1,40,100,0
1,33,100,0
1,33,100,0
1,40,100,0
1,33,100,0
1,33,100,0
1,40,100,0
1,40,100,0
1,33,100,0
1,33,100,0
1,40,100,0
1,40,100,0
1,33,100,0
1,33,100,0
1,40,100,0
1,33,100,0
1,33,100,0
1,40,100,0
1,40,100,0
1,33,100,0
1,33,100,0
1,40,100,0
1,40,100,0
1,33,100,0
1,33,100,0
1,40,100,0
1,33,100,0
1,33,100,0
1,40,100,0
1,40,100,0
1,33,100,0
1,33,100,0
1,40,100,0
1,40,100,0
1,33,100,0
1,33,100,0
1,40,100,0
1,33,100,0
1,33,100,0
1,40,100,0
1,40,100,0
1,33,100,0
1,33,100,0
1,40,100,0
1,40,100,0
1,33,100,0
1,33,100,0
1,40,100,0
1,33,100,0
1,33,100,0
1,40,100,0
1,40,100,0
1,33,100,0
1,33,100,0
1,40,100,0
1,40,100,0
1,33,100,0
1,33,100,0
1,40,100,0
1,33,100,0
1,33,100,0
1,40,100,0
1,40,100,0
1,33,100,0
1,33,100,0
1,40,100,0
1,40,100,0
1,33,100,0
1,33,100,0
1,40,100,0
1,33,100,0
1,33,100,0
1,46,100,0
1,46,100,0
1,33,100,0
1,33,100,0
1,46,100,0
1,46,100,0
1,33,100,0
1,33,100,0
1,46,100,0
1,33,100,0
1,33,100,0
1,46,100,0
1,46,100,0
1,33,100,0
1,33,100,0
1,46,100,0
1,46,100,0
1,33,100,0
1,33,100,0
1,46,100,0
1,33,100,0
1,33,100,0
1,46,100,0
1,46,100,0
1,33,100,0
1,33,100,0
1,46,100,0
1,46,100,0
1,33,100,0
1,33,100,0
1,46,100,0
1,33,100,0
1,33,100,0
1,46,100,0
1,46,100,0
1,33,100,0
1,33,100,0
1,46,100,0
1,46,100,0
1,33,100,0
1,33,100,0
1,46,100,0
2,52,100,40800
2,52,100,0
2,52,100,0
2,52,100,0
2,52,100,0
2,52,100,0
2,52,100,0
2,52,100,0
2,52,100,0
2,52,100,0
2,52,100,0
2,52,100,0
2,52,100,0
2,52,100,0
2,52,100,0
2,52,100,0
2,52,100,0
2,52,100,0
2,52,100,0
2,52,100,0
2,52,100,0
2,52,100,0
2,52,100,0
2,52,100,0
2,52,100,0
2,48,100,0
2,55,100,0
2,52,100,0
2,52,100,0
2,52,100,0
2,52,100,0
2,52,100,0
2,52,100,0
2,52,100,0
2,52,100,0
2,52,100,0
2,52,100,0
2,52,100,0
2,52,100,0
2,52,100,0
2,52,100,0
2,52,100,0
2,52,100,0
2,52,100,0
2,52,100,0
2,52,100,0
2,52,100,0
2,52,100,0
2,52,100,0
2,52,100,0
2,52,100,0
2,52,100,0
2,48,100,0
2,55,100,0
2,52,100,0
2,50,100,0
2,50,100,0
2,52,100,0
2,48,100,0
2,48,100,0
2,52,100,0
2,50,100,0
2,50,100,0
2,52,100,0
2,48,100,0
2,52,100,0
2,52,100,0
2,50,100,0
2,50,100,0
2,50,100,0
2,50,100,0
2,52,100,0
2,52,100,0
2,48,100,0
2,48,100,0
2,52,100,0
2,50,100,0
2,50,100,0
2,50,100,0
2,50,100,0
2,52,100,0
2,48,100,0
2,48,100,0
2,52,100,0
2,52,100,0
2,52,100,0
2,52,100,0
2,52,100,0
2,52,100,0
2,52,100,0
2,52,100,0
2,52,100,0
2,52,100,0
2,52,100,0
2,52,100,0
2,48,100,0
2,55,100,0
2,52,100,0
2,52,100,0
2,52,100,0
2,52,100,0
2,52,100,0
2,52,100,0
2,52,100,0
2,52,100,0
2,52,100,0
2,52,100,0
2,52,100,0
2,52,100,0
2,52,100,0
2,52,100,0
2,52,100,0
2,52,100,0
2,52,100,0
2,52,100,0
2,52,100,0
2,52,100,0
2,52,100,0
2,52,100,0
2,52,100,0
2,52,100,0
2,52,100,0
2,48,100,0
2,55,100,0
2,52,100,0
2,52,100,0
2,52,100,0
2,52,100,0
2,52,100,0
2,52,100,0
2,52,100,0
2,52,100,0
2,52,100,0
2,52,100,0
2,52,100,0
2,52,100,0
2,52,100,0
2,52,100,0
2,52,100,0
2,52,100,0
2,52,100,0
2,52,100,0
2,52,100,0
2,52,100,0
2,52,100,0
2,52,100,0
2,52,100,0
2,52,100,0
2,52,100,0
2,48,100,0
2,55,100,0
2,52,100,0
2,50,100,0
2,50,100,0
2,52,100,0
2,48,100,0
2,48,100,0
2,52,100,0
2,50,100,0
2,50,100,0
2,52,100,0
2,48,100,0
2,52,100,0
2,52,100,0
2,50,100,0
2,50,100,0
2,50,100,0
2,50,100,0
2,52,100,0
2,52,100,0
2,48,100,0
2,48,100,0
2,52,100,0
2,50,100,0
2,50,100,0
2,50,100,0
2,50,100,0
2,52,100,0
2,48,100,0
2,48,100,0
2,52,100,0
2,45,100,7680
2,45,100,0
2,45,100,0
2,45,100,0
2,45,100,0
2,45,100,0
2,45,100,0
2,45,100,0
2,45,100,0
2,45,100,0
2,45,100,0
2,45,100,0
2,45,100,0
2,45,100,0
2,45,100,0
2,45,100,0
2,45,100,0
2,45,100,0
2,45,100,0
2,45,100,0
2,45,100,0
2,45,100,0
2,45,100,0
2,45,100,0
2,45,100,0
2,45,100,0
2,45,100,0
2,45,100,0
2,45,100,0
2,45,100,0
2,45,100,0
2,45,100,0
2,45,100,0
2,45,100,0
2,45,100,0
2,45,100,0
2,45,100,0
2,45,100,0
2,45,100,0
2,45,100,0
2,45,100,0
2,45,100,0
2,45,100,0
2,45,100,0
2,45,100,0
2,45,100,0
2,45,100,0
2,45,100,0
2,45,100,0
2,45,100,0
2,45,100,0
2,45,100,0
2,45,100,0
2,45,100,0
2,45,100,0
2,45,100,0
2,45,100,0
2,45,100,0
2,45,100,0
2,45,100,0
2,45,100,0
2,45,100,0
2,45,100,0
2,45,100,0
2,45,100,0
2,45,100,0
2,45,100,0
2,45,100,0
2,45,100,0
2,45,100,0
2,45,100,0
2,45,100,0
