track,note,velocity,time
0,60,77,72
0,64,77,0
0,69,76,0
0,45,123,0
0,36,115,0
0,42,83,0
0,49,91,0
0,81,109,4
0,42,57,48
0,42,54,124
0,55,68,28
0,60,75,0
0,64,69,0
0,45,121,0
0,36,89,0
0,38,116,0
0,42,70,0
0,42,53,124
0,42,47,0
0,45,122,28
0,36,119,0
0,42,66,0
0,42,49,124
0,42,41,124
0,55,68,124
0,60,74,0
0,64,71,0
0,38,121,0
0,42,77,0
0,42,56,28
0,45,107,120
0,36,98,0
0,42,47,0
0,42,87,16
0,42,57,124
0,45,124,120
0,36,118,4
0,42,62,0
0,55,68,124
0,60,77,0
0,64,69,0
0,38,115,0
0,42,75,0
0,42,52,124
0,45,114,28
0,36,123,0
0,42,52,0
0,59,77,16
0,62,80,0
0,67,85,0
0,43,127,0
0,36,114,0
0,42,65,0
0,79,111,8
0,42,41,116
0,42,42,124
0,55,76,124
0,59,77,0
0,62,76,0
0,38,119,0
0,42,77,0
0,42,55,28
0,43,108,120
0,36,95,0
0,42,55,0
0,57,77,16
0,60,76,0
0,64,77,0
0,41,127,0
0,36,119,0
0,42,84,0
0,76,110,8
0,42,63,116
0,42,62,124
0,57,73,28
0,60,71,0
0,64,71,0
0,41,127,0
0,36,92,0
0,38,118,0
0,42,71,0
0,42,51,124
0,42,54,0
0,41,127,28
0,36,122,0
0,42,62,0
0,42,49,124
0,42,42,124
0,57,76,124
0,60,75,0
0,64,71,0
0,38,119,0
0,42,77,0
0,42,51,28
0,41,107,120
0,36,92,0
0,42,53,0
0,42,88,16
0,42,55,68
0,41,127,120
0,36,123,4
0,42,58,0
0,57,68,124
0,60,69,0
0,64,74,0
0,38,118,0
0,42,71,0
0,42,56,124
0,41,113,28
0,36,122,0
0,42,54,0
0,55,84,16
0,59,76,0
0,62,81,0
0,40,127,0
0,36,117,0
0,42,64,0
0,74,105,8
0,42,44,116
0,42,49,124
0,55,74,16
0,59,75,0
0,62,72,0
0,38,114,0
0,42,77,0
0,79,106,8
0,42,56,28
0,38,112,120
0,36,93,0
0,42,55,0
0,57,76,16
0,60,84,0
0,64,76,0
0,38,127,0
0,36,118,0
0,42,82,0
0,76,103,8
0,42,56,116
0,42,58,124
0,53,75,28
0,57,74,0
0,62,74,0
0,38,127,0
0,36,98,0
0,38,123,0
0,42,70,0
0,42,56,56
0,42,54,0
0,38,127,28
0,36,123,0
0,42,65,0
0,42,45,124
0,42,49,124
0,53,77,124
0,57,68,0
0,62,74,0
0,38,118,0
0,42,70,0
0,42,53,0
0,40,122,12
0,55,83,0
0,59,80,0
0,62,81,0
0,36,89,0
0,42,50,0
0,74,105,8
0,42,85,116
0,42,59,124
0,40,127,28
0,36,119,4
0,42,60,0
0,55,69,124
0,59,68,0
0,64,70,0
0,38,120,0
0,42,70,0
0,42,54,0
0,40,110,28
0,36,122,0
0,42,55,0
0,59,83,16
0,62,80,0
0,67,82,0
0,40,126,0
0,36,120,0
0,42,68,0
0,79,107,8
0,42,47,116
0,42,47,124
0,55,76,28
0,59,70,0
0,64,75,0
0,52,121,0
0,38,118,0
0,42,69,0
0,42,48,68
0,43,108,0
0,36,93,0
0,42,50,0
0,55,85,12
0,60,79,0
0,64,77,0
0,45,123,0
0,36,116,0
0,42,86,0
0,76,103,8
0,42,57,116
0,42,54,124
0,55,76,28
0,60,70,0
0,64,76,0
0,45,127,0
0,36,90,0
0,38,123,0
0,42,72,0
0,42,48,124
0,42,49,0
0,45,127,28
0,36,120,0
0,42,66,0
0,42,44,124
0,42,46,124
0,55,75,124
0,60,71,0
0,64,76,0
0,38,115,0
0,42,72,0
0,42,51,124
0,38,115,24
0,36,97,0
0,42,54,0
0,53,78,16
0,57,85,0
0,62,81,0
0,38,107,0
0,42,85,0
0,74,107,8
0,42,58,12
0,38,125,120
0,36,122,4
0,42,61,0
0,57,68,124
0,60,75,0
0,65,77,0
0,38,115,0
0,42,68,0
0,38,113,32
0,42,54,0
0,38,114,0
0,36,114,0
0,42,52,0
0,55,84,12
0,59,83,0
0,64,84,0
0,40,121,0
0,36,121,0
0,42,69,0
0,76,102,8
0,42,45,116
0,38,116,0
0,42,48,0
0,64,119,28
0,55,77,0
0,59,68,0
0,62,73,0
0,28,125,0
0,38,116,0
0,42,68,0
0,42,47,124
0,40,108,0
0,36,89,0
0,42,47,0
0,60,77,12
0,64,76,0
0,69,76,0
0,45,126,0
0,36,117,0
0,42,83,0
0,49,95,0
0,81,104,2
0,42,59,8
0,42,57,16
0,55,122,28
0,55,109,0
0,67,60,0
0,55,68,0
0,60,75,0
0,64,68,0
0,45,123,0
0,36,98,0
0,38,120,0
0,42,70,0
0,42,51,12
0,42,53,0
0,57,115,28
0,57,82,0
0,69,44,0
0,45,127,0
0,36,119,0
0,42,69,0
0,42,45,124
0,42,44,124
0,55,76,0
0,60,72,0
0,64,73,0
0,38,121,0
0,42,69,0
0,42,55,28
0,45,107,12
0,57,118,0
0,57,114,0
0,69,63,0
0,36,97,0
0,42,53,0
0,42,82,0
0,42,54,124
0,45,121,120
0,57,116,4
0,57,111,0
0,69,67,0
0,36,123,0
0,42,59,0
0,55,75,0
0,60,68,0
0,64,71,0
0,38,120,0
0,42,68,0
0,42,49,16
0,45,110,28
0,60,117,0
0,60,110,0
0,72,60,0
0,36,115,0
0,42,52,0
0,59,119,0
0,59,118,0
0,71,66,0
0,59,76,0
0,62,81,0
0,67,80,0
0,43,122,0
0,36,117,0
0,42,66,0
0,79,107,8
0,42,40,116
0,57,116,0
0,57,116,0
0,69,60,0
0,42,40,0
0,55,118,0
0,55,114,0
0,67,60,0
0,55,76,0
0,59,77,0
0,62,77,0
0,38,122,0
0,42,73,0
0,42,53,12
0,43,111,120
0,36,92,0
0,42,55,0
0,57,82,16
0,60,83,0
0,64,76,0
0,41,127,0
0,36,115,0
0,42,84,0
0,76,106,8
0,42,58,116
0,42,54,124
0,55,114,28
0,55,110,0
0,67,65,0
0,57,69,0
0,60,71,0
0,64,75,0
0,41,127,0
0,36,92,0
0,38,116,0
0,42,76,0
0,42,47,0
0,42,55,0
0,57,122,0
0,57,118,0
0,69,68,0
0,41,127,0
0,36,117,0
0,42,64,0
0,42,48,8
0,55,119,0
0,55,109,0
0,67,66,0
0,42,44,0
0,57,70,0
0,60,75,0
0,64,77,0
0,38,122,0
0,42,70,0
0,42,47,16
0,41,110,120
0,57,115,0
0,57,112,0
0,69,59,0
0,36,89,0
0,42,52,0
0,42,84,0
0,42,60,16
0,41,121,120
0,57,120,4
0,57,111,0
0,69,63,0
0,36,119,0
0,42,63,0
0,57,74,0
0,60,77,0
0,64,68,0
0,38,122,0
0,42,77,0
0,42,47,16
0,41,108,28
0,60,116,0
0,60,110,0
0,72,63,0
0,36,122,0
0,42,53,0
0,59,120,0
0,59,110,0
0,71,68,0
0,55,85,0
0,59,78,0
0,62,84,0
0,40,127,0
0,36,117,0
0,42,61,0
0,74,102,8
0,42,44,116
0,57,118,0
0,57,118,0
0,69,68,0
0,42,41,0
0,55,120,0
0,55,114,0
0,67,61,0
0,55,73,0
0,59,69,0
0,62,73,0
0,38,123,0
0,42,77,0
0,79,105,8
0,42,55,12
0,38,109,12
0,36,98,0
0,42,54,0
0,57,83,16
0,60,79,0
0,64,85,0
0,38,121,0
0,36,115,0
0,42,86,0
0,76,109,8
0,42,61,116
0,42,60,124
0,55,117,28
0,55,113,0
0,67,64,0
0,53,74,0
0,57,69,0
0,62,75,0
0,38,127,0
0,36,94,0
0,38,118,0
0,42,68,0
0,42,51,0
0,42,51,0
0,57,119,0
0,57,113,0
0,69,61,0
0,38,127,0
0,36,115,0
0,42,70,0
0,42,42,8
0,55,116,0
0,55,117,0
0,67,65,0
0,42,44,0
0,53,71,0
0,57,73,0
0,62,72,0
0,38,121,0
0,42,75,0
0,42,55,0
0,40,111,12
0,55,117,0
0,55,117,0
0,67,64,0
0,55,83,0
0,59,81,0
0,62,80,0
0,36,94,0
0,42,52,0
0,74,104,8
0,42,81,0
0,42,58,124
0,40,125,120
0,55,122,4
0,55,110,0
0,67,62,0
0,36,123,0
0,42,60,0
0,55,75,0
0,59,76,0
0,64,69,0
0,38,121,0
0,42,73,0
0,42,47,0
0,40,110,28
0,60,122,0
0,60,114,0
0,72,67,0
0,36,119,0
0,42,54,0
0,59,120,0
0,59,118,0
0,71,61,0
0,59,85,0
0,62,85,0
0,67,78,0
0,40,123,0
0,36,117,0
0,42,64,0
0,79,106,8
0,42,48,116
0,57,117,0
0,57,113,0
0,69,61,0
0,42,48,0
0,55,121,0
0,55,118,0
0,67,66,0
0,55,77,0
0,59,75,0
0,64,74,0
0,52,126,0
0,38,123,0
0,42,75,0
0,42,52,68
0,52,115,0
0,52,78,0
0,64,61,0
0,43,112,0
0,36,92,0
0,42,53,0
0,55,115,0
0,55,109,0
0,67,59,0
0,55,82,0
0,60,84,0
0,64,78,0
0,45,127,0
0,36,122,0
0,42,84,0
0,76,102,8
0,42,61,116
0,57,120,0
0,57,115,0
0,69,65,0
0,42,58,0
0,55,69,0
0,60,70,0
0,64,70,0
0,45,127,0
0,36,89,0
0,38,114,0
0,42,71,0
0,42,55,124
0,57,118,0
0,57,87,0
0,69,39,0
0,42,48,0
0,45,126,28
0,36,116,0
0,42,62,0
0,42,45,124
0,42,46,124
0,55,68,0
0,60,71,0
0,64,73,0
0,38,118,0
0,42,73,0
0,42,49,124
0,38,106,24
0,36,98,0
0,42,49,0
0,50,81,16
0,53,87,0
0,57,82,0
0,53,77,0
0,57,80,0
0,62,77,0
0,38,123,0
0,42,82,0
0,74,106,8
0,42,60,16
0,40,123,28
0,36,114,0
0,42,59,0
0,57,75,124
0,60,69,0
0,65,70,0
0,38,118,0
0,42,75,0
0,41,107,28
0,42,50,0
0,64,119,0
0,36,114,0
0,42,50,0
0,62,116,16
0,52,89,0
0,55,87,0
0,59,88,0
0,55,76,0
0,59,77,0
0,64,83,0
0,40,127,0
0,36,115,0
0,42,67,0
0,76,106,8
0,42,40,116
0,38,122,124
0,42,46,0
0,60,122,16
0,55,76,0
0,59,75,0
0,62,72,0
0,28,122,0
0,42,71,0
0,42,53,124
0,36,94,0
0,38,118,0
0,42,48,0
0,57,114,0
0,52,88,0
0,57,87,0
0,60,82,0
0,55,81,0
0,60,79,0
0,64,85,0
0,45,125,0
0,36,119,0
0,42,89,0
0,49,90,0
0,42,63,124
0,42,63,16
0,64,120,0
0,55,76,0
0,60,68,0
0,64,70,0
0,45,127,0
0,36,90,0
0,38,117,0
0,42,69,0
0,42,48,0
0,62,117,0
0,42,49,0
0,45,126,0
0,36,120,0
0,42,70,0
0,42,46,0
0,60,122,64
0,42,44,0
0,55,73,0
0,60,74,0
0,64,73,0
0,38,120,0
0,42,73,0
0,42,54,0
0,43,115,24
0,57,117,0
0,36,95,0
0,42,50,0
0,45,108,16
0,42,88,0
0,42,58,12
0,45,108,120
0,36,122,4
0,42,63,0
0,55,77,16
0,60,70,0
0,64,71,0
0,38,115,0
0,42,68,0
0,42,49,124
0,45,114,12
0,64,116,0
0,36,119,0
0,42,47,0
0,62,123,16
0,55,76,0
0,59,85,0
0,62,84,0
0,43,124,0
0,36,121,0
0,42,68,0
0,42,43,124
0,42,43,16
0,60,114,28
0,55,73,0
0,59,72,0
0,62,72,0
0,55,125,0
0,38,117,0
0,42,74,0
0,42,49,68
0,43,110,0
0,36,97,0
0,42,53,0
0,57,121,12
0,57,82,0
0,60,76,0
0,64,78,0
0,41,122,0
0,36,123,0
0,42,84,0
0,42,58,124
0,42,54,124
0,64,123,0
0,57,74,0
0,60,68,0
0,64,68,0
0,41,125,0
0,36,90,0
0,38,122,0
0,42,74,0
0,42,55,8
0,62,122,0
0,42,53,0
0,41,127,28
0,36,114,0
0,42,63,0
0,42,47,16
0,60,116,124
0,42,42,0
0,57,70,124
0,60,77,0
0,64,75,0
0,38,118,0
0,42,75,0
0,42,47,16
0,41,121,120
0,57,119,0
0,36,97,0
0,42,50,0
0,42,80,124
0,42,54,124
0,41,127,28
0,36,123,4
0,42,57,0
0,57,117,16
0,57,77,0
0,60,68,0
0,64,71,0
0,38,118,0
0,42,68,0
0,42,48,124
0,41,112,12
0,52,121,0
0,36,120,0
0,42,54,0
0,57,114,16
0,55,76,0
0,59,83,0
0,62,81,0
0,40,127,0
0,36,121,0
0,42,68,0
0,42,44,124
0,52,116,16
0,42,41,0
0,57,118,16
0,55,73,0
0,59,72,0
0,62,69,0
0,52,125,0
0,38,122,0
0,42,74,0
0,42,48,68
0,59,116,0
0,40,106,0
0,36,96,0
0,42,55,0
0,60,121,0
0,53,74,0
0,57,81,0
0,60,80,0
0,53,85,0
0,57,76,0
0,60,81,0
0,38,125,0
0,36,114,0
0,42,84,0
0,42,63,8
0,42,62,116
0,53,68,28
0,57,75,0
0,60,75,0
0,38,121,0
0,36,93,0
0,38,123,0
0,42,69,0
0,42,56,124
0,42,50,0
0,38,127,28
0,36,116,0
0,42,69,0
0,42,47,124
0,42,40,124
0,57,117,28
0,53,68,0
0,57,72,0
0,60,72,0
0,50,123,0
0,38,121,0
0,42,70,0
0,42,52,68
0,38,106,0
0,36,90,0
0,42,49,0
0,59,123,12
0,55,79,0
0,59,80,0
0,62,83,0
0,55,76,0
0,59,81,0
0,62,77,0
0,40,107,0
0,42,83,0
0,42,60,12
0,40,110,120
0,36,114,4
0,42,56,0
0,55,71,16
0,59,71,0
0,62,68,0
0,38,120,0
0,42,70,0
0,42,56,124
0,40,110,120
0,36,123,0
0,42,49,0
0,55,114,16
0,40,123,0
0,36,115,0
0,42,70,0
0,42,45,124
0,42,46,124
0,55,74,28
0,59,71,0
0,62,69,0
0,52,127,0
0,38,120,0
0,42,71,0
0,42,52,68
0,52,114,0
0,40,108,0
0,36,94,0
0,42,54,0
0,55,119,0
0,55,78,0
0,59,80,0
0,62,79,0
0,55,81,0
0,59,84,0
0,62,79,0
0,43,113,0
0,36,122,0
0,42,84,0
0,42,60,8
0,45,114,8
0,57,115,0
0,57,74,0
0,60,79,0
0,64,81,0
0,60,85,0
0,64,80,0
0,42,63,0
0,55,77,16
0,60,70,0
0,64,73,0
0,36,90,0
0,38,123,0
0,42,77,0
0,42,51,124
0,45,106,120
0,42,56,0
0,45,125,16
0,36,121,0
0,42,61,0
0,42,49,124
0,42,48,124
0,55,75,124
0,60,77,0
0,64,71,0
0,38,121,0
0,42,72,0
0,42,51,28
0,45,107,120
0,36,98,0
0,42,54,0
0,45,106,0
0,42,89,0
0,42,58,0
0,45,109,60
0,36,117,0
0,42,62,0
0,55,73,0
0,60,76,0
0,64,74,0
0,55,112,0
0,38,115,0
0,42,76,0
0,55,111,0
0,42,55,0
0,64,122,0
0,52,108,0
0,36,114,0
0,42,49,0
0,62,118,12
0,50,109,0
0,36,121,0
0,42,62,0
0,42,43,0
0,42,48,0
0,60,120,64
0,55,75,0
0,60,75,0
0,64,71,0
0,50,126,0
0,38,123,0
0,42,71,0
0,42,53,0
0,36,98,0
0,42,49,0
0,57,114,22
0,55,77,0
0,60,84,0
0,64,83,0
0,45,127,0
0,36,121,0
0,42,86,0
0,42,63,124
0,42,57,16
0,64,118,0
0,55,77,0
0,60,74,0
0,64,69,0
0,45,127,0
0,36,90,0
0,38,115,0
0,42,76,0
0,42,54,8
0,62,118,0
0,42,49,0
0,45,124,28
0,36,116,0
0,42,63,0
0,42,44,16
0,60,117,124
0,42,44,0
0,55,69,28
0,60,75,0
0,64,68,0
0,57,127,0
0,38,114,0
0,42,72,0
0,42,53,16
0,57,120,0
0,43,114,0
0,36,98,0
0,42,52,0
0,45,110,12
0,42,87,0
0,42,57,12
0,45,112,120
0,36,114,4
0,42,56,0
0,55,77,16
0,60,69,0
0,64,69,0
0,38,122,0
0,42,68,0
0,42,55,124
0,45,112,12
0,64,118,0
0,36,122,0
0,42,47,0
0,62,117,0
0,59,77,0
0,62,80,0
0,43,124,0
0,36,120,0
