track,note,velocity,time
1,66,127,0
1,54,127,0
1,64,127,0
1,52,127,0
1,64,127,0
1,52,127,0
1,67,127,0
1,55,127,0
1,62,127,0
1,50,127,0
1,62,127,0
1,50,127,0
1,62,127,0
1,50,127,0
1,66,127,0
1,54,127,0
1,64,127,0
1,52,127,0
1,64,127,0
1,52,127,0
1,67,127,0
1,55,127,0
1,62,127,0
1,50,127,0
1,62,127,0
1,50,127,0
1,62,127,0
1,50,127,0
1,66,127,0
1,54,127,0
1,64,127,0
1,52,127,0
1,64,127,0
1,52,127,0
1,67,127,0
1,55,127,0
1,62,127,0
1,50,127,0
1,62,127,0
1,50,127,0
1,62,127,0
1,50,127,0
1,66,127,0
1,54,127,0
1,64,127,0
1,52,127,0
1,64,127,0
1,52,127,0
1,67,127,0
1,55,127,0
1,62,127,0
1,50,127,0
1,62,127,0
1,50,127,0
1,62,127,0
1,50,127,0
1,66,127,0
1,54,127,0
1,64,127,0
1,52,127,0
1,64,127,0
1,52,127,0
1,67,127,0
1,55,127,0
1,62,127,0
1,50,127,0
1,62,127,0
1,50,127,0
1,62,127,0
1,50,127,0
1,66,127,0
1,54,127,0
1,64,127,0
1,52,127,0
1,64,127,0
1,52,127,0
1,67,127,0
1,55,127,0
1,62,127,0
1,50,127,0
1,62,127,0
1,50,127,0
1,62,127,0
1,50,127,0
1,66,127,0
1,54,127,0
1,64,127,0
1,52,127,0
1,64,127,0
1,52,127,0
1,67,127,0
1,55,127,0
1,62,127,0
1,50,127,0
1,62,127,0
1,50,127,0
1,62,127,0
1,50,127,0
1,66,127,0
1,54,127,0
1,64,127,0
1,52,127,0
1,64,127,0
1,52,127,0
1,67,127,0
1,55,127,0
1,62,127,0
1,50,127,0
1,62,127,0
1,50,127,0
1,62,127,0
1,50,127,0
1,66,127,42240
1,54,127,0
1,64,127,0
1,52,127,0
1,64,127,0
1,52,127,0
1,67,127,0
1,55,127,0
1,62,127,0
1,50,127,0
1,62,127,0
1,50,127,0
1,62,127,0
1,50,127,0
1,66,127,0
1,54,127,0
1,64,127,0
1,52,127,0
1,64,127,0
1,52,127,0
1,67,127,0
1,55,127,0
1,62,127,0
1,50,127,0
1,62,127,0
1,50,127,0
1,62,127,0
1,50,127,0
1,66,127,0
1,54,127,0
1,64,127,0
1,52,127,0
1,64,127,0
1,52,127,0
1,67,127,0
1,55,127,0
1,62,127,0
1,50,127,0
1,62,127,0
1,50,127,0
1,62,127,0
1,50,127,0
1,66,127,0
1,54,127,0
1,64,127,0
1,52,127,0
1,64,127,0
1,52,127,0
1,67,127,0
1,55,127,0
1,62,127,0
1,50,127,0
1,62,127,0
1,50,127,0
1,62,127,0
1,50,127,0
1,66,127,0
1,54,127,0
1,64,127,0
1,52,127,0
1,64,127,0
1,52,127,0
1,67,127,0
1,55,127,0
1,62,127,0
1,50,127,0
1,62,127,0
1,50,127,0
1,62,127,0
1,50,127,0
1,66,127,0
1,54,127,0
1,64,127,0
1,52,127,0
1,64,127,0
1,52,127,0
1,67,127,0
1,55,127,0
1,62,127,0
1,50,127,0
1,62,127,0
1,50,127,0
1,62,127,0
1,50,127,0
1,66,127,0
1,54,127,0
1,64,127,0
1,52,127,0
1,64,127,0
1,52,127,0
1,67,127,0
1,55,127,0
1,62,127,0
1,50,127,0
1,62,127,0
1,50,127,0
1,62,127,0
1,50,127,0
1,66,127,0
1,54,127,0
1,64,127,0
1,52,127,0
1,64,127,0
1,52,127,0
1,67,127,0
1,55,127,0
1,62,127,0
1,50,127,0
1,62,127,0
1,50,127,0
1,62,127,0
1,50,127,0
1,74,127,6960
1,75,127,0
1,74,127,0
1,59,127,0
1,74,127,1185
1,75,127,0
1,74,127,0
1,59,127,0
1,74,127,1185
1,75,127,0
1,74,127,0
1,59,127,0
1,74,127,1185
1,75,127,0
1,74,127,0
1,59,127,0
1,66,127,945
1,54,127,0
1,64,127,0
1,52,127,0
1,64,127,0
1,52,127,0
1,67,127,0
1,55,127,0
1,62,127,0
1,50,127,0
1,62,127,0
1,50,127,0
1,62,127,0
1,50,127,0
1,66,127,0
1,54,127,0
1,64,127,0
1,52,127,0
1,64,127,0
1,52,127,0
1,67,127,0
1,55,127,0
1,62,127,0
1,50,127,0
1,62,127,0
1,50,127,0
1,62,127,0
1,50,127,0
1,66,127,0
1,54,127,0
1,64,127,0
1,52,127,0
1,64,127,0
1,52,127,0
1,67,127,0
1,55,127,0
1,62,127,0
1,50,127,0
1,62,127,0
1,50,127,0
1,62,127,0
1,50,127,0
1,66,127,0
1,54,127,0
1,64,127,0
1,52,127,0
1,64,127,0
1,52,127,0
1,67,127,0
1,55,127,0
1,62,127,0
1,50,127,0
1,62,127,0
1,50,127,0
1,62,127,0
1,50,127,0
1,66,127,0
1,54,127,0
1,64,127,0
1,52,127,0
1,64,127,0
1,52,127,0
1,67,127,0
1,55,127,0
1,62,127,0
1,50,127,0
1,62,127,0
1,50,127,0
1,62,127,0
1,50,127,0
1,66,127,0
1,54,127,0
1,64,127,0
1,52,127,0
1,64,127,0
1,52,127,0
1,67,127,0
1,55,127,0
1,62,127,0
1,50,127,0
1,62,127,0
1,50,127,0
1,62,127,0
1,50,127,0
1,66,127,0
1,54,127,0
1,64,127,0
1,52,127,0
1,64,127,0
1,52,127,0
1,67,127,0
1,55,127,0
1,62,127,0
1,50,127,0
1,62,127,0
1,50,127,0
1,62,127,0
1,50,127,0
1,66,127,0
1,54,127,0
1,64,127,0
1,52,127,0
1,64,127,0
1,52,127,0
1,67,127,0
1,55,127,0
1,62,127,0
1,50,127,0
1,62,127,0
1,50,127,0
1,62,127,0
1,50,127,0
2,47,127,0
2,47,127,0
2,47,127,0
2,47,127,0
2,47,127,0
2,47,127,0
2,47,127,0
2,47,127,0
2,45,127,0
2,45,127,0
2,45,127,0
2,41,127,0
2,41,127,0
2,41,127,0
2,40,127,0
2,40,127,0
2,47,127,0
2,47,127,0
2,47,127,0
2,47,127,0
2,47,127,0
2,47,127,0
2,47,127,0
2,47,127,0
2,45,127,0
2,45,127,0
2,45,127,0
2,41,127,0
2,41,127,0
2,41,127,0
2,40,127,0
2,40,127,0
2,47,127,0
2,47,127,0
2,47,127,0
2,47,127,0
2,47,127,0
2,47,127,0
2,47,127,0
2,47,127,0
2,45,127,0
2,45,127,0
2,45,127,0
2,41,127,0
2,41,127,0
2,41,127,0
2,40,127,0
2,40,127,0
2,47,127,0
2,47,127,0
2,47,127,0
2,47,127,0
2,47,127,0
2,47,127,0
2,47,127,0
2,47,127,0
2,45,127,0
2,45,127,0
2,45,127,0
2,41,127,0
2,41,127,0
2,41,127,0
2,40,127,0
2,40,127,0
2,47,127,0
2,47,127,0
2,47,127,0
2,47,127,0
2,47,127,0
2,47,127,0
2,47,127,0
2,47,127,0
2,45,127,0
2,45,127,0
2,45,127,0
2,41,127,0
2,41,127,0
2,41,127,0
2,40,127,0
2,40,127,0
2,47,127,0
2,47,127,0
2,47,127,0
2,47,127,0
2,47,127,0
2,47,127,0
2,47,127,0
2,47,127,0
2,45,127,0
2,45,127,0
2,45,127,0
2,41,127,0
2,41,127,0
2,41,127,0
2,40,127,0
2,40,127,0
2,47,127,0
2,47,127,0
2,47,127,0
2,47,127,0
2,47,127,0
2,47,127,0
2,47,127,0
2,47,127,0
2,45,127,0
2,45,127,0
2,45,127,0
2,41,127,0
2,41,127,0
2,41,127,0
2,40,127,0
2,40,127,0
2,47,127,0
2,47,127,0
2,47,127,0
2,47,127,0
2,47,127,0
2,47,127,0
2,47,127,0
2,47,127,0
2,45,127,0
2,45,127,0
2,45,127,0
2,41,127,0
2,41,127,0
2,41,127,0
2,40,127,0
2,40,127,0
2,47,127,0
2,45,127,0
2,45,127,0
2,45,127,0
2,47,127,0
2,45,127,0
2,45,127,0
2,45,127,0
2,45,127,0
2,45,127,0
2,47,127,0
2,45,127,0
2,45,127,0
2,45,127,0
2,47,127,0
2,45,127,0
2,45,127,0
2,45,127,0
2,45,127,0
2,45,127,0
2,47,127,0
2,45,127,0
2,45,127,0
2,45,127,0
2,47,127,0
2,45,127,0
2,45,127,0
2,45,127,0
2,45,127,0
2,45,127,0
2,47,127,0
2,45,127,0
2,45,127,0
2,45,127,0
2,47,127,0
2,47,127,960
2,45,127,0
2,45,127,0
2,45,127,0
2,47,127,0
2,45,127,0
2,45,127,0
2,45,127,0
2,45,127,0
2,45,127,0
2,47,127,0
2,45,127,0
2,45,127,0
2,45,127,0
2,47,127,0
2,45,127,0
2,45,127,0
2,45,127,0
2,45,127,0
2,45,127,0
2,47,127,0
2,45,127,0
2,45,127,0
2,45,127,0
2,47,127,0
2,45,127,0
2,45,127,0
2,45,127,0
2,45,127,0
2,45,127,0
2,47,127,0
2,45,127,0
2,45,127,0
2,45,127,0
2,47,127,0
2,45,127,0
2,45,127,0
2,45,127,0
2,45,127,0
2,45,127,0
2,47,127,0
2,45,127,0
2,45,127,0
2,45,127,0
2,47,127,0
2,45,127,0
2,45,127,0
2,45,127,0
2,45,127,0
2,45,127,0
2,47,127,0
2,45,127,0
2,45,127,0
2,45,127,0
2,47,127,0
2,45,127,0
2,45,127,0
2,45,127,0
2,45,127,0
2,45,127,0
2,47,127,0
2,45,127,0
2,45,127,0
2,45,127,0
2,47,127,0
2,45,127,0
2,45,127,0
2,45,127,0
2,45,127,0
2,45,127,0
2,50,127,0
2,45,127,0
2,45,127,0
2,40,127,0
2,48,127,225
2,43,127,0
2,50,127,0
2,45,127,0
2,45,127,0
2,40,127,0
2,50,127,945
2,45,127,0
2,45,127,0
2,40,127,0
2,48,127,225
2,43,127,0
2,50,127,0
2,45,127,0
2,45,127,0
2,40,127,0
2,50,127,945
2,45,127,0
2,45,127,0
2,40,127,0
2,48,127,225
2,43,127,0
2,50,127,0
2,45,127,0
2,45,127,0
2,40,127,0
2,50,127,945
2,45,127,0
2,45,127,0
2,40,127,0
2,48,127,225
2,43,127,0
2,50,127,0
2,45,127,0
2,45,127,0
2,40,127,0
2,47,127,945
2,45,127,0
2,45,127,0
2,45,127,0
2,47,127,0
2,45,127,0
2,45,127,0
2,45,127,0
2,45,127,0
2,45,127,0
2,47,127,0
2,45,127,0
2,45,127,0
2,45,127,0
2,47,127,0
2,45,127,0
2,45,127,0
2,45,127,0
2,45,127,0
2,45,127,0
2,47,127,0
2,45,127,0
2,45,127,0
2,45,127,0
2,47,127,0
2,45,127,0
2,45,127,0
2,45,127,0
2,45,127,0
2,45,127,0
2,47,127,0
2,45,127,0
2,45,127,0
2,45,127,0
2,47,127,0
2,45,127,0
2,45,127,0
2,45,127,0
2,45,127,0
2,45,127,0
2,47,127,0
2,45,127,0
2,45,127,0
2,45,127,0
2,47,127,0
2,45,127,0
2,45,127,0
2,45,127,0
2,45,127,0
2,45,127,0
2,47,127,0
2,45,127,0
2,45,127,0
2,45,127,0
2,47,127,0
2,45,127,0
2,45,127,0
2,45,127,0
2,45,127,0
2,45,127,0
2,47,127,0
2,45,127,0
2,45,127,0
2,45,127,0
2,47,127,0
2,45,127,0
2,45,127,0
2,45,127,0
2,45,127,0
2,45,127,0
2,47,127,0
2,47,127,0
2,47,127,0
2,47,127,0
2,47,127,0
2,47,127,0
2,47,127,0
2,47,127,0
2,45,127,0
2,45,127,0
2,45,127,0
2,41,127,0
2,41,127,0
2,41,127,0
2,40,127,0
2,40,127,0
2,47,127,0
2,47,127,0
2,47,127,0
2,47,127,0
2,47,127,0
2,47,127,0
2,47,127,0
2,47,127,0
2,45,127,0
2,45,127,0
2,45,127,0
2,41,127,0
2,41,127,0
2,41,127,0
2,40,127,0
2,40,127,0
2,47,127,0
2,47,127,0
2,47,127,0
2,47,127,0
2,47,127,0
2,47,127,0
2,47,127,0
2,47,127,0
2,45,127,0
2,45,127,0
2,45,127,0
2,41,127,0
2,41,127,0
2,41,127,0
2,40,127,0
2,40,127,0
2,47,127,0
2,47,127,0
2,47,127,0
2,47,127,0
2,47,127,0
2,47,127,0
2,47,127,0
2,47,127,0
2,45,127,0
2,45,127,0
2,45,127,0
2,41,127,0
2,41,127,0
2,41,127,0
2,40,127,0
2,40,127,0
2,47,127,0
2,47,127,0
2,47,127,0
2,47,127,0
2,47,127,0
2,47,127,0
2,47,127,0
2,47,127,0
2,45,127,0
2,45,127,0
2,45,127,0
2,41,127,0
2,41,127,0
2,41,127,0
2,40,127,0
2,40,127,0
2,47,127,0
2,47,127,0
2,47,127,0
2,47,127,0
2,47,127,0
2,47,127,0
2,47,127,0
2,47,127,0
2,45,127,0
2,45,127,0
2,45,127,0
2,41,127,0
2,41,127,0
2,41,127,0
2,40,127,0
2,40,127,0
2,47,127,0
2,47,127,0
2,47,127,0
2,47,127,0
2,47,127,0
2,47,127,0
2,47,127,0
2,47,127,0
2,45,127,0
2,45,127,0
2,45,127,0
2,41,127,0
2,41,127,0
2,41,127,0
2,40,127,0
2,40,127,0
2,47,127,0
2,47,127,0
2,47,127,0
2,47,127,0
2,47,127,0
2,47,127,0
2,47,127,0
2,47,127,0
2,45,127,0
2,45,127,0
2,45,127,0
2,41,127,0
2,41,127,0
2,41,127,0
2,40,127,0
2,40,127,0
2,47,127,14400
2,47,127,0
2,47,127,0
2,47,127,0
2,47,127,0
2,47,127,0
2,47,127,0
2,47,127,0
2,45,127,0
2,45,127,0
2,45,127,0
2,41,127,0
2,41,127,0
2,41,127,0
2,40,127,0
2,40,127,0
2,47,127,0
2,47,127,0
2,47,127,0
2,47,127,0
2,47,127,0
2,47,127,0
2,47,127,0
2,47,127,0
2,45,127,0
2,45,127,0
2,45,127,0
2,41,127,0
2,41,127,0
2,41,127,0
2,40,127,0
2,40,127,0
2,47,127,0
2,47,127,0
2,47,127,0
2,47,127,0
2,47,127,0
2,47,127,0
2,47,127,0
2,47,127,0
2,45,127,0
2,45,127,0
2,45,127,0
2,41,127,0
2,41,127,0
2,41,127,0
2,40,127,0
2,40,127,0
2,47,127,0
2,47,127,0
2,47,127,0
2,47,127,0
2,47,127,0
2,47,127,0
2,47,127,0
2,47,127,0
2,45,127,0
2,45,127,0
2,45,127,0
2,41,127,0
2,41,127,0
2,41,127,0
2,40,127,0
2,40,127,0
2,47,127,0
2,47,127,0
2,47,127,0
2,47,127,0
2,47,127,0
2,47,127,0
2,47,127,0
2,47,127,0
2,45,127,0
2,45,127,0
2,45,127,0
2,41,127,0
2,41,127,0
2,41,127,0
2,40,127,0
2,40,127,0
2,47,127,0
2,47,127,0
2,47,127,0
2,47,127,0
2,47,127,0
2,47,127,0
2,47,127,0
2,47,127,0
2,45,127,0
2,45,127,0
2,45,127,0
2,41,127,0
2,41,127,0
2,41,127,0
2,40,127,0
2,40,127,0
2,47,127,0
2,47,127,0
2,47,127,0
2,47,127,0
2,47,127,0
2,47,127,0
2,47,127,0
2,47,127,0
2,45,127,0
2,45,127,0
2,45,127,0
2,41,127,0
2,41,127,0
2,41,127,0
2,40,127,0
2,40,127,0
2,47,127,0
2,47,127,0
2,47,127,0
2,47,127,0
2,47,127,0
2,47,127,0
2,47,127,0
2,47,127,0
2,45,127,0
2,45,127,0
2,45,127,0
2,41,127,0
2,41,127,0
2,41,127,0
2,40,127,0
2,40,127,0
3,64,127,0
3,59,127,0
3,47,127,0
3,57,127,0
3,45,127,0
3,57,127,0
3,45,127,0
3,53,127,0
3,41,127,0
3,53,127,0
3,41,127,0
3,52,127,0
3,47,127,0
3,40,127,0
3,52,127,0
3,47,127,0
3,40,127,0
3,64,127,0
3,59,127,0
3,47,127,0
3,57,127,0
3,45,127,0
3,57,127,0
3,45,127,0
3,53,127,0
3,41,127,0
3,53,127,0
3,41,127,0
3,52,127,0
3,47,127,0
3,40,127,0
3,52,127,0
3,47,127,0
3,40,127,0
3,64,127,0
3,59,127,0
3,47,127,0
3,57,127,0
3,45,127,0
3,57,127,0
3,45,127,0
3,53,127,0
3,41,127,0
3,53,127,0
3,41,127,0
3,52,127,0
3,47,127,0
3,40,127,0
3,52,127,0
