track,note,velocity,time
1,21,92,0
1,21,92,0
1,21,92,0
1,28,92,0
1,27,92,0
1,21,92,0
1,23,92,0
1,21,92,0
1,23,92,0
1,24,92,0
1,28,92,0
1,27,92,0
1,24,92,0
1,23,92,0
1,21,92,0
1,21,92,0
1,21,92,0
1,28,92,0
1,27,92,0
1,21,92,0
1,23,92,0
1,21,92,0
1,23,92,0
1,24,92,0
1,28,92,0
1,27,92,0
1,24,92,0
1,23,92,0
1,21,92,0
1,21,92,0
1,21,92,0
1,28,92,0
1,27,92,0
1,21,92,0
1,23,92,0
1,21,92,0
1,23,92,0
1,24,92,0
1,28,92,0
1,27,92,0
1,24,92,0
1,23,92,0
1,21,92,0
1,21,92,0
1,21,92,0
1,28,92,0
1,27,92,0
1,21,92,0
1,23,92,0
1,21,92,0
1,23,92,0
1,24,92,0
1,28,92,0
1,27,92,0
1,21,92,480
1,21,92,0
1,21,92,0
1,21,92,0
1,21,92,240
1,21,92,0
1,21,92,0
1,21,92,0
1,21,92,0
1,21,92,0
1,21,92,0
1,21,92,0
1,21,92,0
1,21,92,240
1,21,92,0
1,21,92,0
1,21,92,0
1,21,92,0
1,21,92,0
1,21,92,0
1,21,92,0
1,21,92,0
1,21,92,240
1,21,92,0
1,21,92,0
1,21,92,0
1,21,92,0
1,21,92,0
1,21,92,0
1,21,92,0
1,21,92,0
1,21,92,240
1,21,92,0
1,21,92,0
1,21,92,0
1,21,92,0
1,21,92,0
1,21,92,0
1,21,92,0
1,21,92,0
1,21,92,240
1,21,92,0
1,21,92,0
1,21,92,0
1,21,92,0
1,21,92,0
1,21,92,0
1,21,92,0
1,21,92,0
1,21,92,240
1,21,92,0
1,21,92,0
1,21,92,0
1,21,92,0
1,21,92,0
1,21,92,0
1,21,92,0
1,21,92,0
1,21,92,240
1,21,92,0
1,21,92,0
1,21,92,0
1,21,92,0
1,21,92,0
1,21,92,0
1,21,92,0
1,21,92,0
1,21,92,240
1,21,92,0
1,21,92,0
1,21,92,0
1,21,92,0
1,21,92,0
1,21,92,0
1,21,92,0
1,21,92,0
1,21,92,240
1,21,92,0
1,21,92,0
1,21,92,0
1,21,92,0
1,21,92,0
1,21,92,0
1,21,92,0
1,21,92,0
1,21,92,240
1,21,92,0
1,21,92,0
1,21,92,0
1,21,92,0
1,21,92,0
1,21,92,0
1,21,92,0
1,21,92,0
1,21,92,240
1,21,92,0
1,21,92,0
1,21,92,0
1,21,92,0
1,21,92,0
1,21,92,0
1,21,92,0
1,21,92,0
1,21,92,240
1,21,92,0
1,21,92,0
1,21,92,0
1,23,92,0
1,21,92,240
1,21,92,0
1,21,92,0
1,21,92,0
1,21,92,240
1,21,92,0
1,21,92,0
1,21,92,0
1,21,92,0
1,21,92,0
1,21,92,0
1,21,92,0
1,21,92,0
1,21,92,240
1,21,92,0
1,21,92,0
1,21,92,0
1,21,92,0
1,21,92,0
1,21,92,0
1,21,92,0
1,21,92,0
1,21,92,240
1,21,92,0
1,21,92,0
1,21,92,0
1,21,92,0
1,21,92,0
1,21,92,0
1,21,92,0
1,21,92,0
1,21,92,240
1,21,92,0
1,21,92,0
1,21,92,0
1,21,92,0
1,21,92,0
1,21,92,0
1,21,92,0
1,21,92,0
1,21,92,240
1,21,92,0
1,21,92,0
1,21,92,0
1,21,92,0
1,21,92,0
1,21,92,0
1,21,92,0
1,21,92,0
1,21,92,240
1,21,92,0
1,21,92,0
1,21,92,0
1,21,92,0
1,21,92,0
1,21,92,0
1,21,92,0
1,21,92,0
1,21,92,240
1,21,92,0
1,21,92,0
1,21,92,0
1,21,92,0
1,21,92,0
1,21,92,0
1,21,92,0
1,21,92,0
1,21,92,240
1,21,92,0
1,21,92,0
1,21,92,0
1,21,92,0
1,33,90,0
1,21,90,80
1,33,90,320
1,33,90,1040
1,21,90,80
1,33,90,320
1,33,90,1040
1,21,90,80
1,33,90,320
1,33,90,1040
1,21,90,80
1,33,90,320
1,28,90,1040
1,27,90,80
1,27,90,0
1,26,90,80
1,26,90,0
1,25,90,80
1,25,90,0
1,33,90,80
1,33,90,0
1,32,90,80
1,32,90,0
1,31,90,80
1,31,90,0
1,30,90,80
1,30,90,0
1,28,90,320
1,27,90,80
1,27,90,0
1,26,90,80
1,26,90,0
1,25,90,80
1,25,90,0
1,33,90,80
1,33,90,0
1,32,90,80
1,32,90,0
1,31,90,80
1,31,90,0
1,30,90,80
1,30,90,0
1,28,90,320
1,27,90,80
1,27,90,0
1,26,90,80
1,26,90,0
1,25,90,80
1,25,90,0
1,33,90,80
1,33,90,0
1,32,90,80
1,32,90,0
1,31,90,80
1,31,90,0
1,30,90,80
1,30,90,0
1,28,90,320
1,27,90,80
1,27,90,0
1,26,90,80
1,26,90,0
1,25,90,80
1,25,90,0
1,33,90,80
1,33,90,0
1,32,90,80
1,32,90,0
1,31,90,80
1,31,90,0
1,30,90,80
1,30,90,0
1,21,90,320
1,21,90,0
1,21,90,245
1,21,90,5
1,21,90,245
1,21,90,5
1,21,90,245
1,21,90,365
1,21,90,10
1,21,90,0
1,21,90,850
1,21,90,0
1,21,90,245
1,21,90,5
1,21,90,245
1,21,90,5
1,21,90,245
1,21,90,365
1,21,90,10
1,21,90,0
1,38,90,850
1,33,90,360
1,34,90,240
1,29,90,240
1,28,90,240
1,29,90,80
1,28,90,360
1,34,90,240
1,33,90,240
1,29,90,240
1,38,90,0
1,33,90,360
1,34,90,240
1,29,90,240
1,28,90,240
1,29,90,240
1,28,90,360
1,34,90,240
1,33,90,240
1,29,90,240
1,38,90,0
1,33,90,360
1,34,90,240
1,29,90,240
1,28,90,240
1,29,90,240
1,28,90,360
1,34,90,240
1,33,90,240
1,29,90,240
1,26,90,0
1,21,90,360
1,22,90,240
1,29,90,240
1,28,90,240
1,29,90,80
1,28,90,360
1,34,90,240
1,33,90,240
1,29,90,240
1,26,90,0
1,21,90,360
1,22,90,240
1,29,90,240
1,28,90,240
1,28,90,240
1,29,90,40
1,28,90,360
1,34,90,240
1,33,90,240
1,29,90,240
1,26,90,0
1,21,90,360
1,22,90,240
1,29,90,240
1,28,90,240
1,28,90,240
1,29,90,40
1,28,90,360
1,34,90,240
1,33,90,240
1,29,90,240
1,26,90,0
1,21,90,360
1,22,90,240
1,29,90,240
1,28,90,240
1,28,90,240
1,29,90,40
1,28,90,360
1,34,90,240
1,33,90,240
1,29,90,240
1,26,90,0
1,21,90,360
1,22,90,240
1,29,90,240
1,28,90,240
1,28,90,240
1,29,90,40
1,28,90,360
1,34,90,240
1,33,90,240
1,29,90,240
1,26,90,0
1,21,90,360
1,22,90,240
1,29,90,240
1,28,90,240
1,28,90,240
1,29,90,40
1,28,90,360
1,34,90,240
1,33,90,240
1,29,90,240
1,26,90,0
1,21,90,360
1,22,90,240
1,29,90,240
1,28,90,240
1,28,90,120
1,26,90,0
1,21,90,360
1,22,90,240
1,29,90,240
1,28,90,240
1,28,90,120
1,26,90,0
1,21,90,360
1,22,90,240
1,29,90,240
1,28,90,240
1,28,90,120
1,26,90,0
1,21,90,360
1,22,90,240
1,29,90,240
1,28,90,240
1,28,90,120
1,21,92,0
1,21,92,0
1,21,92,0
1,21,92,0
1,21,92,240
1,21,92,0
1,21,92,0
1,21,92,0
1,21,92,0
1,21,92,0
1,21,92,0
1,21,92,0
1,21,92,0
1,21,92,240
1,21,92,0
1,21,92,0
1,21,92,0
1,21,92,0
1,21,92,0
1,21,92,0
1,21,92,0
1,21,92,0
1,21,92,240
1,21,92,0
1,21,92,0
1,21,92,0
1,21,92,0
1,21,92,0
1,21,92,0
1,21,92,0
1,21,92,0
1,21,92,240
1,21,92,0
1,21,92,0
1,21,92,0
1,21,92,0
1,33,90,0
1,21,90,80
1,33,90,320
1,33,90,1040
1,21,90,80
1,33,90,320
1,33,90,1040
1,21,90,80
1,33,90,320
1,33,90,1040
1,21,90,80
1,33,90,320
1,28,90,1040
1,27,90,80
1,27,90,0
1,26,90,80
1,26,90,0
1,25,90,80
1,25,90,0
1,33,90,80
1,33,90,0
1,32,90,80
1,32,90,0
1,31,90,80
1,31,90,0
1,30,90,80
1,30,90,0
1,28,90,320
1,27,90,80
1,27,90,0
1,26,90,80
1,26,90,0
1,25,90,80
1,25,90,0
1,33,90,80
1,33,90,0
1,32,90,80
1,32,90,0
1,31,90,80
1,31,90,0
1,30,90,80
1,30,90,0
1,28,90,320
1,27,90,80
1,27,90,0
1,26,90,80
1,26,90,0
1,25,90,80
1,25,90,0
1,33,90,80
1,33,90,0
1,32,90,80
1,32,90,0
1,31,90,80
1,31,90,0
1,30,90,80
1,30,90,0
1,28,90,320
1,27,90,80
1,27,90,0
1,26,90,80
1,26,90,0
1,25,90,80
1,25,90,0
1,33,90,80
1,33,90,0
1,32,90,80
1,32,90,0
1,31,90,80
1,31,90,0
1,30,90,80
1,30,90,0
1,21,90,320
1,21,90,0
1,21,90,245
1,21,90,5
1,21,90,245
1,21,90,5
1,21,90,245
1,21,90,365
1,21,90,10
1,21,90,0
1,21,90,850
1,21,90,0
1,21,90,245
1,21,90,5
1,21,90,245
1,21,90,5
1,21,90,65
1,21,90,185
1,21,90,5
1,21,90,10
1,21,90,0
1,21,90,490
1,21,90,0
1,21,90,245
1,21,90,5
1,21,90,245
1,21,90,5
1,21,90,65
1,21,90,185
1,21,90,5
1,21,90,10
1,21,90,0
1,21,90,490
1,21,90,0
1,21,90,245
1,21,90,5
1,21,90,245
1,21,90,5
1,21,90,65
1,21,90,185
1,21,90,5
1,21,90,10
1,21,90,0
1,21,90,490
1,21,90,0
1,21,90,245
1,21,90,5
1,21,90,245
1,21,90,5
1,21,90,65
1,21,90,185
1,21,90,5
1,21,90,10
1,21,90,0
1,21,90,490
1,21,90,0
1,21,90,245
1,21,90,5
1,21,90,245
1,21,90,5
1,21,90,65
1,21,90,185
1,21,90,5
1,21,90,10
1,21,90,0
1,21,90,490
1,21,90,0
1,21,90,245
1,21,90,5
1,21,90,245
1,21,90,5
1,21,90,65
1,21,90,185
1,21,90,5
1,21,90,10
1,21,90,0
1,21,90,490
1,21,90,0
1,21,90,245
1,21,90,5
1,21,90,245
1,21,90,5
1,21,90,65
1,21,90,185
1,21,90,5
1,21,90,10
1,21,90,0
1,21,90,490
1,21,90,0
1,21,90,245
1,21,90,5
1,21,90,245
1,21,90,5
1,21,90,725
1,21,90,10
1,21,90,0
1,21,90,490
1,21,90,0
1,21,90,245
1,21,90,5
1,21,90,245
1,21,90,5
1,21,90,65
1,21,90,185
1,21,90,5
1,21,90,10
1,21,90,0
2,33,127,15360
2,45,127,0
2,33,127,0
2,45,127,0
2,33,127,0
2,45,127,0
2,40,127,0
2,52,127,0
2,39,127,0
2,51,127,0
2,33,127,0
2,45,127,0
2,35,127,0
2,47,127,0
2,33,127,0
2,45,127,0
2,35,127,0
2,47,127,0
2,36,127,0
2,48,127,0
2,40,127,0
2,52,127,0
2,39,127,0
2,51,127,0
2,36,127,0
2,48,127,0
2,35,127,0
2,47,127,0
2,33,127,0
2,45,127,0
2,33,127,0
2,45,127,0
2,33,127,0
2,45,127,0
2,40,127,0
2,52,127,0
2,39,127,0
2,51,127,0
2,33,127,0
2,45,127,0
2,35,127,0
2,47,127,0
2,33,127,0
2,45,127,0
2,35,127,0
2,47,127,0
2,36,127,0
2,48,127,0
2,40,127,0
2,52,127,0
2,39,127,0
2,51,127,0
2,36,127,0
2,48,127,0
2,35,127,0
2,47,127,0
2,33,127,0
2,45,127,0
2,33,127,0
2,45,127,0
2,33,127,0
2,45,127,0
2,40,127,0
2,52,127,0
2,39,127,0
2,51,127,0
2,33,127,0
2,45,127,0
2,35,127,0
2,47,127,0
2,33,127,0
2,45,127,0
2,35,127,0
2,47,127,0
2,36,127,0
2,48,127,0
2,40,127,0
2,52,127,0
2,39,127,0
2,51,127,0
2,36,127,0
2,48,127,0
2,35,127,0
2,47,127,0
2,33,127,0
2,45,127,0
2,33,127,0
2,45,127,0
2,33,127,0
2,45,127,0
2,40,127,0
2,52,127,0
2,39,127,0
2,51,127,0
2,33,127,0
2,45,127,0
2,35,127,0
2,47,127,0
2,33,127,0
2,45,127,0
2,35,127,0
2,47,127,0
2,36,127,0
2,48,127,0
2,40,127,0
2,52,127,0
2,39,127,0
2,51,127,0
2,36,127,0
2,48,127,0
2,35,127,0
2,47,127,0
2,33,127,0
2,45,127,0
2,33,127,0
2,45,127,0
2,33,127,0
2,45,127,0
2,40,127,0
2,52,127,0
2,39,127,0
2,51,127,0
2,33,127,0
2,45,127,0
2,35,127,0
2,47,127,0
2,33,127,0
2,45,127,0
2,35,127,0
2,47,127,0
2,36,127,0
2,48,127,0
2,40,127,0
2,52,127,0
2,39,127,0
2,51,127,0
2,36,127,0
2,48,127,0
2,35,127,0
2,47,127,0
2,33,127,0
2,45,127,0
2,33,127,0
2,45,127,0
2,33,127,0
2,45,127,0
2,40,127,0
2,52,127,0
2,39,127,0
2,51,127,0
2,33,127,0
2,45,127,0
2,35,127,0
2,47,127,0
2,33,127,0
2,45,127,0
2,35,127,0
2,47,127,0
2,36,127,0
2,48,127,0
2,40,127,0
2,52,127,0
2,39,127,0
2,51,127,0
2,36,127,0
2,48,127,0
2,35,127,0
2,47,127,0
2,33,127,0
2,45,127,0
2,33,127,0
2,45,127,0
2,33,127,0
2,45,127,0
2,40,127,0
2,52,127,0
2,39,127,0
2,51,127,0
2,33,127,0
2,45,127,0
2,35,127,0
2,47,127,0
2,33,127,0
2,45,127,0
2,35,127,0
2,47,127,0
2,36,127,0
2,48,127,0
2,40,127,0
2,52,127,0
2,39,127,0
2,51,127,0
2,36,127,0
2,48,127,0
2,35,127,0
2,47,127,0
2,33,127,0
2,45,127,0
2,33,127,0
2,45,127,0
2,33,127,0
2,45,127,0
2,40,127,0
2,52,127,0
2,39,127,0
2,51,127,0
2,33,127,0
2,45,127,0
2,35,127,0
2,47,127,0
2,33,127,0
2,45,127,0
2,35,127,0
2,47,127,0
2,36,127,0
2,48,127,0
2,40,127,0
2,52,127,0
2,39,127,0
2,51,127,0
2,36,127,0
2,48,127,0
2,35,127,0
2,47,127,0
2,33,127,0
2,45,127,0
2,33,127,0
2,45,127,0
2,33,127,0
2,45,127,0
2,40,127,0
2,52,127,0
2,39,127,0
2,51,127,0
2,33,127,0
2,45,127,0
2,35,127,0
2,47,127,0
2,33,127,0
2,45,127,0
2,35,127,0
2,47,127,0
2,36,127,0
2,48,127,0
2,40,127,0
2,52,127,0
2,39,127,0
2,51,127,0
2,36,127,0
2,48,127,0
2,35,127,0
2,47,127,0
2,33,127,0
2,45,127,0
2,33,127,0
2,45,127,0
2,33,127,0
2,45,127,0
2,40,127,0
2,52,127,0
2,39,127,0
2,51,127,0
2,33,127,0
2,45,127,0
2,35,127,0
2,47,127,0
2,33,127,0
2,45,127,0
2,35,127,0
2,47,127,0
2,36,127,0
2,48,127,0
2,40,127,0
2,52,127,0
2,39,127,0
2,51,127,0
2,36,127,0
2,48,127,0
2,35,127,0
2,47,127,0
2,33,127,0
2,45,127,0
2,33,127,0
2,45,127,0
2,33,127,0
2,45,127,0
2,40,127,0
2,52,127,0
2,39,127,0
2,51,127,0
2,33,127,0
2,45,127,0
2,35,127,0
2,47,127,0
2,33,127,0
2,45,127,0
2,35,127,0
2,47,127,0
2,36,127,0
2,48,127,0
2,40,127,0
2,52,127,0
2,39,127,0
2,51,127,0
2,36,127,0
2,48,127,0
2,35,127,0
2,47,127,0
2,33,127,0
2,45,127,0
2,33,127,0
2,45,127,0
2,33,127,0
2,45,127,0
2,40,127,0
2,52,127,0
2,39,127,0
2,51,127,0
2,33,127,0
2,45,127,0
2,35,127,0
2,47,127,0
2,33,127,0
2,45,127,0
2,35,127,0
2,47,127,0
2,36,127,0
2,48,127,0
2,39,127,0
2,51,127,0
2,36,127,0
2,48,127,0
2,35,127,0
2,47,127,0
2,33,127,240
2,45,127,0
2,33,127,0
2,45,127,0
2,33,127,0
2,45,127,0
