track,note,velocity,time
1,33,127,5
1,37,127,7680
1,37,127,7675
1,33,127,30720
1,37,127,7680
2,33,127,61440
2,33,127,61440
2,45,127,107520
2,33,127,0
3,69,90,30720
3,70,90,0
3,69,90,0
3,70,90,0
3,69,90,0
3,74,90,0
3,69,90,0
3,70,90,0
3,69,90,0
3,70,90,0
3,69,90,0
3,74,90,0
3,69,90,0
3,70,90,0
3,69,90,0
3,70,90,0
3,69,90,0
3,74,90,0
3,69,90,0
3,70,90,0
3,69,90,0
3,70,90,0
3,69,90,0
3,74,90,0
3,69,90,27840
3,70,90,0
3,69,90,0
3,70,90,0
3,69,90,0
3,74,90,0
3,69,90,0
3,70,90,0
3,69,90,0
3,70,90,0
3,69,90,0
3,74,90,0
3,69,90,0
3,70,90,0
3,69,90,0
3,70,90,0
3,69,90,0
3,74,90,0
3,69,90,0
3,70,90,0
3,69,90,0
3,70,90,0
3,69,90,0
3,74,90,0
3,69,90,0
3,70,90,0
3,69,90,0
3,70,90,0
3,69,90,0
3,74,90,0
3,69,90,0
3,70,90,0
3,69,90,0
3,70,90,0
3,69,90,0
3,74,90,0
3,69,90,0
3,70,90,0
3,69,90,0
3,70,90,0
3,69,90,0
3,74,90,0
3,69,90,0
3,70,90,0
3,69,90,0
3,70,90,0
3,69,90,0
3,74,90,0
3,69,90,46080
3,70,90,0
3,69,90,0
3,70,90,0
3,69,90,0
3,74,90,0
3,69,90,0
3,70,90,0
3,69,90,0
3,70,90,0
3,69,90,0
3,74,90,0
3,69,90,0
3,70,90,0
3,69,90,0
3,70,90,0
3,69,90,0
3,74,90,0
3,69,90,0
3,70,90,0
3,69,90,0
3,70,90,0
3,69,90,0
3,74,90,0
3,69,90,0
3,70,90,0
3,69,90,0
3,70,90,0
3,69,90,0
3,74,90,0
3,69,90,0
3,70,90,0
3,69,90,0
3,70,90,0
3,69,90,0
3,74,90,0
3,69,90,0
3,70,90,0
3,69,90,0
3,70,90,0
3,69,90,0
3,74,90,0
3,69,90,0
3,70,90,0
3,69,90,0
3,70,90,0
3,69,90,0
3,74,90,0
3,93,90,16320
3,93,90,710
3,93,90,1670
3,93,90,710
3,93,90,1670
3,93,90,710
3,93,90,1670
3,93,90,710
3,93,90,1670
3,93,90,710
3,93,90,1670
3,93,90,710
3,93,90,1670
3,93,90,710
3,93,90,1670
3,93,90,710
3,93,90,1670
3,93,90,710
3,93,90,1670
3,93,90,710
3,93,90,1670
3,93,90,710
3,93,90,1670
3,93,90,710
3,93,90,1670
3,93,90,710
3,93,90,1670
3,93,90,710
3,93,90,1670
3,93,90,710
3,93,90,1670
3,93,90,710
3,93,90,1670
3,93,90,710
3,93,90,1670
3,93,90,710
3,93,90,1670
3,93,90,710
3,93,90,1670
3,93,90,710
4,21,125,15360
4,21,125,0
4,21,125,0
4,21,125,0
4,21,125,960
4,21,125,0
4,21,125,0
4,21,125,0
4,21,125,960
4,21,125,0
4,21,125,0
4,21,125,0
4,21,125,960
4,21,125,0
4,21,125,0
4,21,125,0
4,21,125,960
4,21,125,0
4,21,125,0
4,21,125,0
4,21,125,960
4,21,125,0
4,21,125,0
4,21,125,0
4,21,125,960
4,21,125,0
4,21,125,0
4,21,125,0
4,21,125,960
4,21,125,0
4,21,125,0
4,21,125,0
4,21,125,16320
4,21,125,0
4,21,125,0
4,21,125,0
4,21,125,480
4,21,125,0
4,21,125,0
4,21,125,0
4,21,125,0
4,21,125,1200
4,21,125,0
4,21,125,0
4,21,125,0
4,21,125,480
4,21,125,0
4,21,125,0
4,21,125,0
4,21,125,0
4,21,125,1200
4,21,125,0
4,21,125,0
4,21,125,0
4,21,125,480
4,21,125,0
4,21,125,0
4,21,125,0
4,21,125,0
4,21,125,1200
4,21,125,0
4,21,125,0
4,21,125,0
4,21,125,480
4,21,125,0
4,21,125,0
4,21,125,0
4,21,125,0
4,21,125,1200
4,21,125,0
4,21,125,0
4,21,125,0
4,21,125,480
4,21,125,0
4,21,125,0
4,21,125,0
4,21,125,0
4,21,125,1200
4,21,125,0
4,21,125,0
4,21,125,0
4,21,125,480
4,21,125,0
4,21,125,0
4,21,125,0
4,21,125,0
4,21,125,1200
4,21,125,0
4,21,125,0
4,21,125,0
4,21,125,480
4,21,125,0
4,21,125,0
4,21,125,0
4,21,125,0
4,21,125,1200
4,21,125,0
4,21,125,0
4,21,125,0
4,21,125,480
4,21,125,0
4,21,125,0
4,21,125,0
4,21,125,0
4,33,125,17520
4,33,125,1440
4,33,125,1440
4,33,125,1440
4,33,125,1440
4,33,125,1440
4,33,125,1440
4,33,125,1440
4,21,125,480
4,21,125,0
4,21,125,0
4,21,125,0
4,21,125,960
4,21,125,0
4,21,125,0
4,21,125,0
4,21,125,960
4,21,125,0
4,21,125,0
4,21,125,0
4,21,125,960
4,21,125,0
4,21,125,0
4,21,125,0
4,21,125,960
4,21,125,0
4,21,125,0
4,21,125,0
4,21,125,960
4,21,125,0
4,21,125,0
4,21,125,0
4,21,125,960
4,21,125,0
4,21,125,0
4,21,125,0
4,21,125,960
4,21,125,0
4,21,125,0
4,21,125,0
4,21,125,960
4,21,125,0
4,21,125,0
4,21,125,0
4,21,125,480
4,21,125,0
4,21,125,0
4,21,125,0
4,21,125,0
4,21,125,1200
4,21,125,0
4,21,125,0
4,21,125,0
4,21,125,480
4,21,125,0
4,21,125,0
4,21,125,0
4,21,125,0
4,21,125,1200
4,21,125,0
4,21,125,0
4,21,125,0
4,21,125,480
4,21,125,0
4,21,125,0
4,21,125,0
4,21,125,0
4,21,125,1200
4,21,125,0
4,21,125,0
4,21,125,0
4,21,125,480
4,21,125,0
4,21,125,0
4,21,125,0
4,21,125,0
4,21,125,1200
4,21,125,0
4,21,125,0
4,21,125,0
4,21,125,480
4,21,125,0
4,21,125,0
4,21,125,0
4,21,125,0
4,21,125,1200
4,21,125,0
4,21,125,0
4,21,125,0
4,21,125,480
4,21,125,0
4,21,125,0
4,21,125,0
4,21,125,0
4,21,125,1200
4,21,125,0
4,21,125,0
4,21,125,0
4,21,125,480
4,21,125,0
4,21,125,0
4,21,125,0
4,21,125,0
4,21,125,1200
4,21,125,0
4,21,125,0
4,21,125,0
4,21,125,480
4,21,125,0
4,21,125,0
4,21,125,0
4,21,125,0
4,33,125,17520
4,33,125,1440
4,33,125,1440
4,33,125,1440
4,33,125,1440
4,33,125,1440
4,33,125,1440
4,33,125,1440
4,21,125,480
4,21,125,0
4,21,125,0
4,21,125,0
4,21,125,960
4,21,125,0
4,21,125,0
4,21,125,0
4,21,125,960
4,21,125,0
4,21,125,0
4,21,125,0
4,21,125,960
4,21,125,0
4,21,125,0
4,21,125,0
4,21,125,960
4,21,125,0
4,21,125,0
4,21,125,0
4,21,125,960
4,21,125,0
4,21,125,0
4,21,125,0
4,21,125,960
4,21,125,0
4,21,125,0
4,21,125,0
4,21,125,960
4,21,125,0
4,21,125,0
4,21,125,0
4,21,125,31200
4,21,125,80
4,21,125,80
4,21,125,80
4,21,125,80
4,21,125,0
4,21,125,80
4,21,125,80
4,21,125,0
4,21,125,80
4,21,125,80
4,21,125,80
4,21,125,80
4,21,125,0
4,21,125,80
4,21,125,80
4,21,125,0
4,21,125,80
4,21,125,80
4,21,125,80
4,21,125,80
4,21,125,0
4,21,125,80
4,21,125,80
4,21,125,0
4,21,125,80
4,21,125,80
4,21,125,80
4,21,125,80
4,21,125,0
4,21,125,80
4,21,125,80
4,21,125,0
4,21,125,80
4,21,125,80
4,21,125,80
4,21,125,80
4,21,125,0
4,21,125,80
4,21,125,80
4,21,125,0
4,21,125,80
4,21,125,80
4,21,125,80
4,21,125,80
4,21,125,0
4,21,125,80
4,21,125,80
4,21,125,0
4,21,125,80
4,21,125,80
4,21,125,80
4,21,125,80
4,21,125,0
4,21,125,80
4,21,125,80
4,21,125,0
4,21,125,80
4,21,125,80
4,21,125,80
4,21,125,80
4,21,125,0
4,21,125,80
4,21,125,80
4,21,125,480
4,21,125,80
4,21,125,80
4,21,125,0
4,21,125,80
4,21,125,80
4,21,125,0
4,21,125,80
4,21,125,80
4,21,125,80
4,21,125,80
4,21,125,0
4,21,125,80
4,21,125,80
4,21,125,0
4,21,125,80
4,21,125,80
4,21,125,80
4,21,125,80
4,21,125,0
4,21,125,80
4,21,125,80
4,21,125,0
4,21,125,80
4,21,125,80
4,21,125,80
4,21,125,80
4,21,125,0
4,21,125,80
4,21,125,80
4,21,125,480
4,21,125,0
4,21,125,0
4,21,125,0
4,21,125,960
4,21,125,0
4,21,125,0
4,21,125,0
4,21,125,960
4,21,125,0
4,21,125,0
4,21,125,0
4,21,125,960
4,21,125,0
4,21,125,0
4,21,125,0
4,21,125,960
4,21,125,0
4,21,125,0
4,21,125,0
4,21,125,960
4,21,125,0
4,21,125,0
4,21,125,0
4,21,125,960
4,21,125,0
4,21,125,0
4,21,125,0
4,21,125,960
4,21,125,0
4,21,125,0
4,21,125,0
4,21,125,960
4,21,125,0
4,21,125,0
4,21,125,240
4,21,125,0
4,21,125,0
4,21,125,240
4,21,125,0
4,21,125,0
4,21,125,240
4,21,125,0
4,21,125,0
4,21,125,240
4,21,125,0
4,21,125,0
4,21,125,240
4,21,125,0
4,21,125,0
4,21,125,240
4,21,125,0
4,21,125,0
4,21,125,240
4,21,125,0
4,21,125,0
5,45,127,15360
5,33,127,0
5,21,127,0
5,45,127,0
5,33,127,0
5,21,127,0
5,45,127,0
5,33,127,0
5,21,127,0
5,45,127,0
5,33,127,0
5,21,127,0
5,48,127,0
5,36,127,0
5,45,127,0
5,33,127,0
5,21,127,0
5,45,127,0
5,33,127,0
5,21,127,0
5,45,127,0
5,33,127,0
5,21,127,0
5,45,127,0
5,33,127,0
5,21,127,0
5,47,127,0
5,35,127,0
5,45,127,0
5,33,127,0
5,21,127,0
5,45,127,0
5,33,127,0
5,21,127,0
5,45,127,0
5,33,127,0
5,21,127,0
5,45,127,0
5,33,127,0
5,21,127,0
5,48,127,0
5,36,127,0
5,45,127,0
5,33,127,0
5,21,127,0
5,45,127,0
5,33,127,0
5,21,127,0
5,45,127,0
5,33,127,0
5,21,127,0
5,45,127,0
5,33,127,0
5,21,127,0
5,47,127,0
5,35,127,0
5,45,127,0
5,33,127,0
5,21,127,0
5,45,127,0
5,33,127,0
5,21,127,0
5,45,127,0
5,33,127,0
5,21,127,0
5,45,127,0
5,33,127,0
5,21,127,0
5,48,127,0
5,36,127,0
5,45,127,0
5,33,127,0
5,21,127,0
5,45,127,0
5,33,127,0
5,21,127,0
5,45,127,0
5,33,127,0
5,21,127,0
5,45,127,0
5,33,127,0
5,21,127,0
5,47,127,0
5,35,127,0
5,45,127,0
5,33,127,0
5,21,127,0
5,45,127,0
5,33,127,0
5,21,127,0
5,45,127,0
5,33,127,0
5,21,127,0
5,45,127,0
5,33,127,0
5,21,127,0
5,48,127,0
5,36,127,0
5,45,127,0
5,33,127,0
5,21,127,0
5,45,127,0
5,33,127,0
5,21,127,0
5,45,127,0
5,33,127,0
5,21,127,0
5,45,127,0
5,33,127,0
5,21,127,0
5,47,127,0
5,35,127,0
5,45,127,0
5,33,127,0
5,45,127,0
5,33,127,0
5,45,127,0
5,33,127,0
5,45,127,0
5,33,127,0
5,45,127,0
5,33,127,0
5,48,127,0
5,36,127,0
5,45,127,0
5,33,127,0
5,45,127,0
5,33,127,0
5,45,127,0
5,33,127,0
5,45,127,0
5,33,127,0
5,45,127,0
5,33,127,0
5,45,127,1200
5,33,127,0
5,45,127,0
5,33,127,0
5,45,127,0
5,33,127,0
5,45,127,0
5,33,127,0
5,48,127,0
5,36,127,0
5,45,127,0
5,33,127,0
5,45,127,0
5,33,127,0
5,45,127,0
5,33,127,0
5,45,127,0
5,33,127,0
5,45,127,0
5,33,127,0
5,45,127,1200
5,33,127,0
5,45,127,0
5,33,127,0
5,45,127,0
5,33,127,0
5,45,127,0
5,33,127,0
5,48,127,0
5,36,127,0
5,45,127,0
5,33,127,0
5,45,127,0
5,33,127,0
5,45,127,0
5,33,127,0
5,45,127,0
5,33,127,0
5,45,127,0
5,33,127,0
5,45,127,1200
5,33,127,0
5,45,127,0
5,33,127,0
5,45,127,0
5,33,127,0
5,45,127,0
5,33,127,0
5,48,127,0
5,36,127,0
5,45,127,0
5,33,127,0
5,45,127,0
5,33,127,0
5,45,127,0
5,33,127,0
5,45,127,0
5,33,127,0
5,45,127,0
5,33,127,0
5,45,127,1200
5,33,127,0
5,45,127,0
5,33,127,0
5,45,127,0
5,33,127,0
5,45,127,0
5,33,127,0
5,48,127,0
5,36,127,0
5,45,127,0
5,33,127,0
5,45,127,0
5,33,127,0
5,45,127,0
5,33,127,0
5,45,127,0
5,33,127,0
5,45,127,0
5,33,127,0
5,45,127,1200
5,33,127,0
5,45,127,0
5,33,127,0
5,45,127,0
5,33,127,0
5,45,127,0
5,33,127,0
5,48,127,0
5,36,127,0
5,45,127,0
5,33,127,0
5,45,127,0
5,33,127,0
5,45,127,0
5,33,127,0
5,45,127,0
5,33,127,0
5,45,127,0
5,33,127,0
5,45,127,1200
5,33,127,0
5,45,127,0
5,33,127,0
5,45,127,0
5,33,127,0
5,45,127,0
5,33,127,0
5,48,127,0
5,36,127,0
5,45,127,0
5,33,127,0
5,45,127,0
5,33,127,0
5,45,127,0
5,33,127,0
5,45,127,0
5,33,127,0
5,45,127,0
5,33,127,0
5,45,127,1200
5,33,127,0
5,45,127,0
5,33,127,0
5,45,127,0
5,33,127,0
5,45,127,0
5,33,127,0
5,48,127,0
5,36,127,0
5,45,127,0
5,33,127,0
5,45,127,0
5,33,127,0
5,45,127,0
5,33,127,0
5,45,127,0
5,33,127,0
5,45,127,0
5,33,127,0
5,45,127,1200
5,33,127,0
5,45,127,0
5,33,127,0
5,21,127,0
5,45,127,0
5,33,127,0
5,21,127,0
5,45,127,0
5,33,127,0
5,21,127,0
5,45,127,0
5,33,127,0
5,21,127,0
5,48,127,0
5,36,127,0
5,45,127,0
5,33,127,0
5,21,127,0
5,45,127,0
5,33,127,0
5,21,127,0
5,45,127,0
5,33,127,0
5,21,127,0
5,45,127,0
5,33,127,0
5,21,127,0
5,47,127,0
5,35,127,0
5,45,127,0
5,33,127,0
5,21,127,0
5,45,127,0
5,33,127,0
5,21,127,0
5,45,127,0
5,33,127,0
5,21,127,0
5,45,127,0
5,33,127,0
5,21,127,0
5,48,127,0
5,36,127,0
5,45,127,0
5,33,127,0
5,21,127,0
5,45,127,0
5,33,127,0
5,21,127,0
5,45,127,0
5,33,127,0
5,21,127,0
5,45,127,0
5,33,127,0
5,21,127,0
5,47,127,0
5,35,127,0
5,45,127,0
5,33,127,0
5,21,127,0
5,45,127,0
5,33,127,0
5,21,127,0
5,45,127,0
5,33,127,0
5,21,127,0
5,45,127,0
5,33,127,0
5,21,127,0
5,48,127,0
5,36,127,0
5,45,127,0
5,33,127,0
5,21,127,0
5,45,127,0
5,33,127,0
5,21,127,0
5,45,127,0
5,33,127,0
5,21,127,0
5,45,127,0
5,33,127,0
5,21,127,0
5,47,127,0
5,35,127,0
5,45,127,0
5,33,127,0
5,21,127,0
5,45,127,0
5,33,127,0
5,21,127,0
5,45,127,0
5,33,127,0
5,21,127,0
5,45,127,0
5,33,127,0
5,21,127,0
5,48,127,0
5,36,127,0
5,45,127,0
5,33,127,0
5,21,127,0
5,45,127,0
5,33,127,0
5,21,127,0
5,45,127,0
5,33,127,0
5,21,127,0
5,45,127,0
5,33,127,0
5,21,127,0
5,47,127,0
5,35,127,0
5,45,127,0
5,33,127,0
5,45,127,0
5,33,127,0
5,45,127,0
5,33,127,0
5,45,127,0
5,33,127,0
5,48,127,0
5,36,127,0
5,45,127,0
5,33,127,0
5,45,127,0
5,33,127,0
5,45,127,0
5,33,127,0
5,45,127,0
5,33,127,0
5,45,127,0
5,33,127,0
5,45,127,1200
5,33,127,0
5,45,127,0
5,33,127,0
5,45,127,0
5,33,127,0
5,45,127,0
5,33,127,0
5,48,127,0
5,36,127,0
5,45,127,0
5,33,127,0
5,45,127,0
5,33,127,0
5,45,127,0
5,33,127,0
5,45,127,0
