track,note,velocity,time
1,59,78,480
1,59,0,29
1,59,67,1
1,59,0,29
1,59,72,1
1,59,0,29
1,59,76,1
1,59,0,29
1,59,78,1
1,59,0,29
1,59,73,1
1,59,0,29
1,59,70,1
1,59,0,29
1,59,67,1
1,59,0,29
1,59,74,1
1,59,0,29
1,59,71,1
1,59,0,29
1,59,71,1
1,59,0,29
1,59,67,1
1,59,0,29
1,51,82,1
1,51,0,29
1,51,73,1
1,51,0,29
1,51,69,1
1,51,0,29
1,51,76,1
1,51,0,29
1,59,72,1
1,59,0,29
1,59,69,1
1,59,0,29
1,59,64,1
1,59,0,29
1,59,61,1
1,59,0,29
1,59,78,1
1,59,0,29
1,59,70,1
1,59,0,29
1,59,70,1
1,59,0,29
1,59,74,1
1,59,0,29
1,59,80,1
1,59,0,29
1,59,74,1
1,59,0,29
1,59,75,1
1,59,0,29
1,59,73,1
1,59,0,29
1,51,74,1
1,51,0,29
1,51,69,1
1,51,0,29
1,51,69,1
1,51,0,29
1,51,73,1
1,51,0,29
1,59,75,1
1,59,0,29
1,59,70,1
1,59,0,29
1,59,69,1
1,59,0,29
1,59,71,1
1,59,0,29
1,59,74,1
1,59,0,29
1,59,69,1
1,59,0,29
1,59,72,1
1,59,0,29
1,59,63,1
1,59,0,29
1,59,78,1
1,59,0,29
1,59,73,1
1,59,0,29
1,59,73,1
1,59,0,29
1,59,64,1
1,59,0,29
1,51,70,1
1,51,0,29
1,51,70,1
1,51,0,29
1,51,71,1
1,51,0,29
1,51,71,1
1,51,0,29
1,59,71,1
1,59,0,29
1,59,67,1
1,59,0,29
1,59,70,1
1,59,0,29
1,59,67,1
1,59,0,29
1,59,78,1
1,59,0,29
1,59,72,1
1,59,0,29
1,59,73,1
1,59,0,29
1,59,72,1
1,59,0,29
1,59,83,1
1,59,0,29
1,59,77,1
1,59,0,29
1,59,81,1
1,59,0,29
1,59,77,1
1,59,0,29
1,51,77,1
1,51,0,29
1,51,77,1
1,51,0,29
1,51,71,1
1,51,0,29
1,51,76,1
1,51,0,29
1,59,78,1
1,59,0,29
1,59,75,1
1,59,0,29
1,59,69,1
1,59,0,29
1,59,78,1
1,59,0,29
1,59,78,1
1,59,0,29
1,59,77,1
1,59,0,29
1,59,75,1
1,59,0,29
1,59,72,1
1,59,0,29
1,59,79,1
1,59,0,29
1,59,81,1
1,59,0,29
1,59,81,1
1,59,0,29
1,59,73,1
1,59,0,29
1,51,74,1
1,51,0,29
1,51,73,1
1,51,0,29
1,51,76,1
1,51,77,0
1,51,0,29
1,51,0,0
1,51,81,1
1,51,0,29
1,59,79,1
1,59,0,29
1,59,77,1
1,59,0,29
1,59,76,1
1,59,0,29
1,59,64,1
1,59,0,29
1,59,74,1
1,59,0,29
1,59,70,1
1,59,0,29
1,59,71,1
1,59,0,29
1,59,73,1
1,59,0,29
1,59,80,1
1,59,0,29
1,59,75,1
1,59,0,29
1,59,70,1
1,59,0,29
1,59,75,1
1,59,0,29
1,51,77,1
1,51,0,29
1,51,72,1
1,51,0,29
1,51,71,1
1,51,0,29
1,51,75,1
1,51,0,29
1,59,82,1
1,59,0,29
1,59,79,1
1,59,0,29
1,59,72,1
1,59,0,29
1,59,72,1
1,59,0,29
1,59,81,1
1,59,0,29
1,59,75,1
1,59,0,29
1,59,73,1
1,59,0,29
1,59,72,1
1,59,0,29
1,59,81,1
1,59,0,29
1,59,75,1
1,59,0,29
1,59,75,1
1,59,0,29
1,59,75,1
1,59,0,29
1,51,71,1
1,51,0,29
1,51,70,1
1,51,0,29
1,51,71,1
1,51,0,29
1,51,68,1
1,51,0,29
1,59,78,1
1,59,0,29
1,59,76,1
1,59,0,29
1,59,69,1
1,59,0,29
1,59,74,1
1,59,0,29
1,59,73,1
1,59,0,29
1,59,71,1
1,59,0,29
1,59,71,1
1,59,0,29
1,59,70,1
1,59,0,29
1,59,78,1
1,59,0,29
1,59,70,1
1,59,0,29
1,59,71,1
1,59,0,29
1,59,71,1
1,59,0,29
1,51,78,1
1,51,0,29
1,51,76,1
1,51,0,29
1,51,74,1
1,51,0,29
1,51,75,1
1,51,0,29
1,59,78,1
1,59,0,29
1,59,73,1
1,59,0,29
1,59,70,1
1,59,0,29
1,59,72,1
1,59,0,29
1,59,78,1
1,59,0,29
1,59,71,1
1,59,0,29
1,59,71,1
1,59,0,29
1,59,74,1
1,59,0,29
1,59,83,1
1,59,0,29
1,59,80,1
1,59,0,29
1,59,77,1
1,59,0,29
1,59,78,1
1,59,0,29
1,51,77,1
1,51,0,29
1,51,72,1
1,51,0,29
1,51,70,1
1,51,0,29
1,51,72,1
1,51,0,29
1,59,70,1
1,59,0,29
1,59,72,1
1,59,0,29
1,59,69,1
1,59,0,29
1,59,74,1
1,59,0,29
1,59,80,1
1,59,0,29
1,59,77,1
1,59,0,29
1,59,75,1
1,59,0,29
1,59,72,1
1,59,0,29
1,59,76,1
1,59,0,29
1,59,80,1
1,59,0,29
1,59,74,1
1,59,0,29
1,59,70,1
1,59,0,29
1,51,74,1
1,51,0,29
1,51,71,1
1,51,0,29
1,51,69,1
1,51,72,0
1,51,0,29
1,51,0,0
1,51,64,1
1,51,0,29
1,59,79,1
1,59,0,29
1,59,73,1
1,59,0,29
1,59,77,1
1,59,0,29
1,59,75,1
1,59,0,29
1,59,83,1
1,59,0,29
1,59,77,1
1,59,0,29
1,59,72,1
1,59,0,29
1,59,75,1
1,59,0,29
1,59,84,1
1,59,0,29
1,59,77,1
1,59,0,29
1,59,79,1
1,59,0,29
1,59,83,1
1,59,0,29
1,51,73,1
1,51,0,29
1,51,69,1
1,51,0,29
1,51,68,1
1,51,0,29
1,51,72,1
1,51,0,29
1,59,78,1
1,59,0,29
1,59,69,1
1,59,0,29
1,59,65,1
1,59,0,29
1,59,67,1
1,59,0,29
1,59,83,1
1,59,0,29
1,59,72,1
1,59,0,29
1,59,71,1
1,59,0,29
1,59,72,1
1,59,0,29
1,59,81,1
1,59,0,29
1,59,75,1
1,59,0,29
1,59,76,1
1,59,0,29
1,59,77,1
1,59,0,29
1,51,75,1
1,51,0,29
1,51,68,1
1,51,0,29
1,51,69,1
1,51,0,29
1,51,74,1
1,51,0,29
1,59,83,1
1,59,0,29
1,59,81,1
1,59,0,29
1,59,73,1
1,59,0,29
1,59,74,1
1,59,0,29
1,59,80,1
1,59,0,29
1,59,78,1
1,59,0,29
1,59,85,1
1,59,0,29
1,59,82,1
1,59,0,29
1,59,86,1
1,59,0,29
1,59,81,1
1,59,0,29
1,59,83,1
1,59,0,29
1,59,84,1
1,59,0,29
1,51,71,1
1,51,0,29
1,51,79,1
1,51,0,29
1,51,71,1
1,51,0,29
1,51,80,1
1,51,0,29
1,59,84,1
1,59,0,29
1,59,83,1
1,59,0,29
1,59,78,1
1,59,0,29
1,59,81,1
1,59,0,29
1,59,86,1
1,59,0,29
1,59,83,1
1,59,0,29
1,59,83,1
1,59,0,29
1,59,83,1
1,59,0,29
1,59,86,1
1,59,0,29
1,59,80,1
1,59,0,29
1,59,75,1
1,59,0,29
1,59,82,1
1,59,0,29
1,51,73,1
1,51,0,29
1,51,70,1
1,51,0,29
1,51,69,1
1,51,0,29
1,51,76,1
1,51,0,29
1,59,82,1
1,59,0,29
1,59,75,1
1,59,0,29
1,59,75,1
1,59,0,29
1,59,76,1
1,59,0,29
1,59,86,1
1,59,0,29
1,59,84,1
1,59,0,29
1,59,85,1
1,59,0,29
1,59,83,1
1,59,0,29
1,59,86,1
1,59,0,29
1,59,83,1
1,59,0,29
1,59,82,1
1,59,0,29
1,59,80,1
1,59,0,29
1,51,88,1
1,51,0,29
1,51,71,1
1,51,0,29
1,51,75,1
1,51,0,29
1,51,72,1
1,51,0,29
1,59,87,1
1,59,0,29
1,59,80,1
1,59,0,29
1,59,79,1
1,59,0,29
1,59,77,1
1,59,0,29
1,59,79,1
1,59,0,29
1,59,78,1
1,59,0,29
1,59,85,1
1,59,0,29
1,59,85,1
1,59,0,29
1,59,98,1
1,59,0,29
1,59,84,1
1,59,0,29
1,59,81,1
1,59,0,29
1,59,71,1
1,59,0,29
1,51,81,1
1,51,0,29
1,51,76,1
1,51,0,29
1,51,67,1
1,51,0,29
1,51,71,1
1,51,0,29
1,59,84,1
1,59,0,29
1,59,75,1
1,59,0,29
1,59,80,1
1,59,0,29
1,59,81,1
1,59,0,29
1,59,86,1
1,59,0,29
1,59,82,1
1,59,0,29
1,59,86,1
1,59,0,29
1,59,88,1
1,59,0,29
1,59,89,1
1,59,0,29
1,59,92,1
1,59,0,29
1,59,87,1
1,59,0,29
1,59,84,1
1,59,0,29
1,51,75,1
1,51,0,29
1,51,76,1
1,51,0,29
1,51,75,1
1,51,0,29
1,51,76,1
1,51,0,29
1,59,83,1
1,59,0,29
1,59,84,1
1,59,0,29
1,59,80,1
1,59,0,29
1,59,82,1
1,59,0,29
1,59,85,1
1,59,0,29
1,59,86,1
1,59,0,29
1,59,81,1
1,59,0,29
1,59,85,1
1,59,0,29
1,59,87,1
1,59,0,29
1,59,83,1
1,59,0,29
1,59,84,1
1,59,0,29
1,59,83,1
1,59,0,29
1,51,70,1
1,51,0,29
1,51,75,1
1,51,0,29
1,51,79,1
1,51,0,29
1,51,81,1
1,51,0,29
1,59,95,1
1,59,0,29
1,59,82,1
1,59,0,29
1,59,76,1
1,59,0,29
1,59,74,1
1,59,0,29
1,59,72,1
1,59,0,29
1,59,73,1
1,59,0,29
1,59,72,1
1,59,0,29
1,59,69,1
1,59,0,29
1,59,74,1
1,59,0,29
1,59,73,1
1,59,0,29
1,59,74,1
1,59,0,29
1,59,73,1
1,59,0,29
1,53,87,1
1,53,0,29
1,53,78,1
1,53,0,29
1,53,87,1
1,53,0,29
1,53,87,1
1,53,0,29
1,59,86,1
1,59,0,29
1,59,78,1
1,59,0,29
1,59,78,1
1,59,0,29
1,59,78,1
1,59,0,29
1,59,80,1
1,59,0,29
1,59,76,1
1,59,0,29
1,59,74,1
1,59,68,0
1,59,0,29
1,59,0,0
1,59,64,1
1,59,0,29
1,52,84,1
1,52,0,29
1,52,96,31
1,52,0,29
1,49,93,151
1,55,107,0
1,59,79,0
1,59,0,29
1,59,57,31
1,55,0,29
1,59,0,0
1,49,0,30
1,59,69,1
1,59,0,29
1,59,82,31
1,59,0,29
1,59,83,31
1,59,0,29
1,59,86,31
1,59,0,29
1,59,86,31
1,59,0,29
1,59,88,31
1,59,0,29
1,59,93,31
1,59,0,29
1,59,90,31
1,59,0,29
1,59,89,31
1,59,0,29
1,59,93,31
1,59,0,29
1,59,86,31
1,59,0,29
1,59,95,31
1,59,0,29
1,46,80,1
1,46,0,29
1,59,98,121
1,59,0,29
1,59,78,31
1,59,0,29
1,59,79,31
1,59,0,29
1,59,81,31
1,59,0,29
1,59,79,31
1,59,0,29
1,59,82,31
1,59,0,29
1,59,80,31
1,59,0,29
1,46,83,1
1,46,0,29
1,59,80,1
1,59,0,29
1,46,97,1
1,46,0,29
1,59,82,1
1,59,0,29
1,59,77,31
1,59,0,29
1,59,79,31
1,59,0,29
1,59,82,31
1,59,0,29
1,59,78,31
1,59,0,29
1,59,78,31
1,59,0,29
1,59,48,391
1,59,0,29
1,59,50,61
1,59,0,29
1,59,54,31
1,59,0,29
1,59,67,31
1,59,0,29
1,59,56,31
1,59,0,29
1,59,64,31
1,59,0,29
1,59,65,31
1,59,0,29
1,59,71,31
1,59,0,29
1,59,72,31
1,59,0,29
1,59,68,31
1,59,0,29
1,59,73,31
1,59,0,29
1,59,76,31
1,59,0,29
1,59,81,91
1,59,0,29
1,59,78,31
1,59,0,29
1,59,86,31
1,59,0,29
1,59,85,31
1,59,0,29
1,59,93,31
1,59,0,29
1,59,87,31
1,59,0,29
1,59,95,31
1,59,0,29
1,59,85,31
1,59,0,29
1,59,89,31
1,59,0,29
1,59,72,31
1,59,0,29
1,59,101,31
1,59,0,29
1,59,86,31
1,59,0,29
1,59,92,31
1,59,0,29
1,42,71,1
1,42,0,29
1,59,87,1
1,59,0,29
1,46,71,31
1,59,92,0
1,59,0,29
1,46,0,30
1,59,92,1
1,59,0,29
1,42,83,1
1,42,0,29
1,59,82,1
1,59,0,29
1,46,73,1
1,46,0,59
1,59,88,31
1,59,0,29
1,59,80,31
1,59,0,29
1,59,84,31
1,59,0,29
1,59,85,31
1,59,0,29
1,59,85,31
1,59,0,29
1,59,80,31
1,59,0,29
1,49,85,1
1,49,0,29
1,57,101,1
1,57,0,29
1,59,69,31
1,59,0,29
1,59,85,31
1,59,0,29
1,59,82,31
1,59,0,29
1,59,82,31
1,59,0,29
1,59,81,31
1,59,0,29
1,59,83,31
1,59,0,29
1,59,84,31
1,59,0,29
1,57,111,31
1,57,0,29
1,59,78,31
1,59,0,29
1,59,81,31
1,59,0,29
1,59,81,31
1,59,0,29
1,59,78,31
1,59,0,29
1,59,79,31
1,59,0,29
1,59,83,31
1,59,0,29
1,49,95,91
1,49,0,29
1,59,72,31
1,59,0,29
1,59,74,31
1,59,0,29
1,59,78,31
1,59,0,29
1,59,75,31
1,59,0,29
1,59,79,31
1,59,0,29
1,59,83,31
1,59,0,29
1,59,80,31
1,59,0,29
1,59,93,31
1,59,0,29
1,59,58,61
1,59,0,29
1,42,61,91
1,42,0,29
1,42,71,31
1,42,0,29
1,42,63,31
1,42,0,29
1,42,71,31
1,42,0,29
1,42,61,31
1,42,0,29
1,42,73,31
1,42,0,29
1,42,64,31
1,42,0,29
1,42,69,31
1,42,0,29
1,42,65,31
1,42,0,29
1,42,65,31
1,42,0,29
1,42,60,61
1,42,0,29
1,42,76,31
1,42,0,29
1,42,67,31
1,42,0,29
1,42,71,1
1,42,0,29
1,42,64,31
1,42,0,29
1,42,70,31
1,42,0,29
1,42,62,31
1,42,0,29
1,42,66,31
1,42,0,29
1,42,63,31
1,42,0,29
1,42,62,1
1,42,0,29
1,42,62,31
1,42,0,29
1,42,69,31
1,42,0,29
1,42,63,31
1,42,0,29
1,42,65,31
1,42,0,29
1,42,62,31
1,42,0,29
1,42,69,31
1,42,0,29
1,42,68,31
1,42,0,29
1,42,63,31
1,42,0,29
1,42,63,31
1,42,0,29
1,42,64,31
1,42,0,29
1,42,62,31
1,42,0,29
1,42,59,31
1,42,0,29
1,42,59,61
1,42,0,29
1,42,62,31
1,42,0,29
1,42,62,31
1,42,0,29
1,42,62,31
1,42,0,29
1,42,63,31
1,42,0,29
1,42,66,31
1,42,0,29
1,42,63,31
1,42,0,29
1,42,62,1
1,42,0,29
1,42,62,31
1,42,0,29
1,42,60,31
1,42,0,29
1,42,62,31
1,42,0,29
1,42,61,31
1,42,0,29
1,42,62,31
1,42,0,29
1,42,67,31
1,42,0,29
1,42,61,31
1,42,0,29
1,42,62,31
1,42,0,29
1,42,62,31
1,42,0,29
1,42,63,31
1,42,0,29
1,42,63,31
1,42,0,29
1,42,63,31
1,42,0,29
1,46,63,1
1,46,0,29
1,42,70,1
1,42,0,29
1,42,71,31
1,42,0,29
1,42,67,31
1,42,0,29
1,42,69,31
1,42,0,29
1,42,70,31
1,42,0,29
1,42,69,31
1,42,0,29
1,42,67,1
1,42,0,29
1,46,71,31
1,46,0,29
1,46,72,31
1,46,0,29
1,42,71,61
1,42,0,29
1,42,68,31
1,42,0,29
1,42,67,31
1,42,0,29
1,42,64,31
1,42,0,29
1,42,70,31
1,42,0,29
1,42,70,31
1,42,0,29
1,42,78,31
1,42,0,29
1,46,114,1
1,42,81,30
1,46,0,29
1,42,0,0
1,42,68,31
1,42,0,29
1,42,68,31
1,42,0,29
1,42,66,31
1,42,0,29
1,42,64,31
1,42,0,29
1,42,62,31
1,42,0,29
1,42,61,31
1,42,0,29
1,42,75,31
1,42,0,29
1,46,83,1
1,46,0,29
1,42,76,1
1,42,0,29
1,46,83,1
1,46,0,29
1,42,75,1
1,42,0,29
1,42,63,31
1,42,0,29
1,42,70,31
1,42,0,29
1,42,65,31
1,42,0,29
