track,note,velocity,time
1,45,100,0
1,45,100,0
1,57,100,480
1,57,100,0
1,57,100,0
1,57,100,0
1,57,100,0
1,57,100,0
1,56,100,0
1,56,100,0
1,56,100,0
1,45,100,0
1,45,100,0
1,57,100,480
1,57,100,0
1,57,100,0
1,57,100,0
1,57,100,0
1,57,100,0
1,56,100,0
1,56,100,0
1,56,100,0
1,45,100,0
1,45,100,0
1,57,100,480
1,57,100,0
1,57,100,0
1,57,100,0
1,57,100,0
1,57,100,0
1,56,100,0
1,56,100,0
1,56,100,0
1,45,100,0
1,45,100,0
1,57,100,480
1,57,100,0
1,57,100,0
1,57,100,0
1,57,100,0
1,57,100,0
1,56,100,0
1,56,100,0
1,56,100,0
1,45,100,0
1,45,100,0
1,57,100,480
1,57,100,0
1,57,100,0
1,57,100,0
1,57,100,0
1,57,100,0
1,56,100,0
1,56,100,0
1,56,100,0
1,45,100,0
1,45,100,0
1,57,100,480
1,57,100,0
1,57,100,0
1,57,100,0
1,57,100,0
1,57,100,0
1,56,100,0
1,56,100,0
1,56,100,0
1,45,100,0
1,45,100,0
1,57,100,480
1,57,100,0
1,57,100,0
1,57,100,0
1,57,100,0
1,57,100,0
1,56,100,0
1,56,100,0
1,56,100,0
1,45,100,0
1,45,100,0
1,57,100,480
1,57,100,0
1,57,100,0
1,57,100,0
1,57,100,0
1,57,100,0
1,56,100,0
1,56,100,0
1,56,100,0
1,45,100,0
1,45,100,0
1,57,100,480
1,57,100,0
1,57,100,0
1,57,100,0
1,57,100,0
1,57,100,0
1,56,100,0
1,56,100,0
1,56,100,0
1,45,100,0
1,45,100,0
1,57,100,480
1,57,100,0
1,57,100,0
1,57,100,0
1,57,100,0
1,57,100,0
1,56,100,0
1,56,100,0
1,56,100,0
1,45,100,1440
1,46,100,0
1,47,100,0
1,45,100,1440
1,46,100,0
1,47,100,0
1,45,100,1440
1,46,100,0
1,47,100,0
1,45,100,1440
1,46,100,0
1,47,100,0
1,45,100,0
1,45,100,0
1,57,100,480
1,57,100,0
1,57,100,0
1,57,100,0
1,57,100,0
1,57,100,0
1,56,100,0
1,56,100,0
1,56,100,0
1,45,100,0
1,45,100,0
1,57,100,480
1,57,100,0
1,57,100,0
1,57,100,0
1,57,100,0
1,57,100,0
1,56,100,0
1,56,100,0
1,56,100,0
1,45,100,0
1,45,100,0
1,57,100,480
1,57,100,0
1,57,100,0
1,57,100,0
1,57,100,0
1,57,100,0
1,56,100,0
1,56,100,0
1,56,100,0
1,45,100,0
1,45,100,0
1,57,100,480
1,57,100,0
1,57,100,0
1,57,100,0
1,57,100,0
1,57,100,0
1,56,100,0
1,56,100,0
1,56,100,0
1,45,100,0
1,45,100,0
1,57,100,480
1,57,100,0
1,57,100,0
1,57,100,0
1,57,100,0
1,57,100,0
1,56,100,0
1,56,100,0
1,56,100,0
1,45,100,0
1,45,100,0
1,57,100,480
1,57,100,0
1,57,100,0
1,57,100,0
1,57,100,0
1,57,100,0
1,56,100,0
1,56,100,0
1,56,100,0
1,45,100,0
1,45,100,0
1,57,100,480
1,57,100,0
1,57,100,0
1,57,100,0
1,57,100,0
1,57,100,0
1,56,100,0
1,56,100,0
1,56,100,0
1,45,100,0
1,45,100,0
1,57,100,480
1,57,100,0
1,57,100,0
1,57,100,0
1,57,100,0
1,57,100,0
1,56,100,0
1,56,100,0
1,56,100,0
1,45,100,1440
1,46,100,0
1,47,100,0
1,45,100,1440
1,46,100,0
1,47,100,0
1,45,100,1440
1,46,100,0
1,47,100,0
1,45,100,1440
1,46,100,0
1,47,100,0
1,45,100,0
1,45,100,0
1,57,100,480
1,45,100,0
1,45,100,0
1,57,100,480
1,45,100,0
1,45,100,0
1,57,100,480
1,45,100,0
1,45,100,0
1,57,100,480
1,45,100,0
1,45,100,0
1,57,100,480
1,45,100,0
1,45,100,0
1,57,100,480
1,45,100,0
1,45,100,0
1,57,100,480
1,45,100,0
1,45,100,0
1,57,100,480
1,45,100,0
1,45,100,0
1,57,100,480
1,57,100,0
1,57,100,0
1,57,100,0
1,57,100,0
1,57,100,0
1,56,100,0
1,56,100,0
1,56,100,0
1,45,100,0
1,45,100,0
1,57,100,480
1,57,100,0
1,57,100,0
1,57,100,0
1,57,100,0
1,57,100,0
1,56,100,0
1,56,100,0
1,56,100,0
1,45,100,0
1,45,100,0
1,57,100,480
1,57,100,0
1,57,100,0
1,57,100,0
1,57,100,0
1,57,100,0
1,56,100,0
1,56,100,0
1,56,100,0
1,45,100,0
1,45,100,0
1,57,100,480
1,57,100,0
1,57,100,0
1,57,100,0
1,57,100,0
1,57,100,0
1,56,100,0
1,45,100,720
1,45,100,0
1,57,100,480
1,57,100,0
1,57,100,0
1,57,100,0
1,57,100,0
1,57,100,0
1,56,100,0
1,56,100,0
1,56,100,0
1,45,100,0
1,45,100,0
1,57,100,480
1,57,100,0
1,57,100,0
1,57,100,0
1,57,100,0
1,57,100,0
1,56,100,0
1,56,100,0
1,56,100,0
1,45,100,0
1,45,100,0
1,57,100,480
1,57,100,0
1,57,100,0
1,57,100,0
1,57,100,0
1,57,100,0
1,56,100,0
1,56,100,0
1,56,100,0
1,45,100,0
1,45,100,0
1,57,100,480
1,57,100,0
1,57,100,0
1,57,100,0
1,57,100,0
1,57,100,0
1,56,100,0
1,56,100,0
1,56,100,0
1,45,100,0
1,45,100,0
1,57,100,480
1,57,100,0
1,57,100,0
1,57,100,0
1,57,100,0
1,57,100,0
1,56,100,0
1,56,100,0
1,56,100,0
1,45,100,0
1,45,100,0
1,57,100,480
1,57,100,0
1,57,100,0
1,57,100,0
1,57,100,0
1,57,100,0
1,56,100,0
1,56,100,0
1,56,100,0
1,45,100,0
1,45,100,0
1,57,100,480
1,57,100,0
1,57,100,0
1,57,100,0
1,57,100,0
1,57,100,0
1,56,100,0
1,56,100,0
1,56,100,0
1,45,100,0
1,45,100,0
1,57,100,480
1,57,100,0
1,57,100,0
1,57,100,0
1,57,100,0
1,57,100,0
1,56,100,0
1,56,100,0
1,56,100,0
1,45,100,1440
1,46,100,0
1,47,100,0
1,45,100,1440
1,46,100,0
1,47,100,0
1,45,100,1440
1,46,100,0
1,47,100,0
1,45,100,1440
1,46,100,0
1,47,100,0
1,45,100,0
1,45,100,0
1,57,100,480
1,45,100,0
1,45,100,0
1,57,100,480
1,45,100,0
1,45,100,0
1,57,100,480
1,45,100,0
1,45,100,0
1,57,100,480
1,45,100,0
1,45,100,0
1,57,100,480
1,45,100,0
1,45,100,0
1,57,100,480
1,45,100,0
1,45,100,0
1,57,100,480
1,45,100,0
1,45,100,0
1,57,100,480
1,45,100,0
1,57,100,0
1,52,100,0
1,51,100,0
1,45,100,0
1,57,100,0
1,52,100,0
1,51,100,0
1,45,100,0
1,57,100,0
1,52,100,0
1,51,100,0
1,45,100,0
1,57,100,0
1,52,100,0
1,51,100,0
1,47,100,960
1,46,100,0
1,46,100,0
1,46,100,0
1,46,100,0
1,46,100,0
1,47,100,0
1,46,100,0
1,46,100,0
1,46,100,0
1,46,100,0
1,46,100,0
1,47,100,0
1,46,100,0
1,47,100,0
1,46,100,0
1,47,100,0
1,46,100,0
1,46,100,0
1,46,100,0
1,46,100,0
1,46,100,0
1,47,100,0
1,46,100,0
1,46,100,0
1,46,100,0
1,46,100,0
1,46,100,0
1,47,100,0
1,46,100,0
1,47,100,0
1,46,100,0
1,47,100,0
1,46,100,0
1,46,100,0
1,46,100,0
1,46,100,0
1,46,100,0
1,47,100,0
1,46,100,0
1,46,100,0
1,46,100,0
1,46,100,0
1,46,100,0
1,47,100,0
1,46,100,0
1,47,100,0
1,46,100,0
1,47,100,0
1,46,100,0
1,46,100,0
1,46,100,0
1,46,100,0
1,46,100,0
1,47,100,0
1,46,100,0
1,46,100,0
1,46,100,0
1,46,100,0
1,46,100,0
1,47,100,0
1,46,100,0
1,47,100,0
1,46,100,0
1,47,100,0
1,46,100,0
1,46,100,0
1,46,100,0
1,46,100,0
1,46,100,0
1,47,100,0
1,46,100,0
1,46,100,0
1,46,100,0
1,46,100,0
1,46,100,0
1,47,100,0
1,46,100,0
1,47,100,0
1,46,100,0
1,47,100,0
1,46,100,0
1,46,100,0
1,46,100,0
1,46,100,0
1,46,100,0
1,47,100,0
1,46,100,0
1,46,100,0
1,46,100,0
1,46,100,0
1,46,100,0
1,47,100,0
1,46,100,0
1,47,100,0
1,46,100,0
1,47,100,0
1,45,100,0
1,46,100,0
1,46,100,0
1,46,100,0
1,46,100,0
1,46,100,0
1,47,100,0
1,57,100,0
1,46,100,0
1,46,100,0
1,46,100,0
1,46,100,0
1,46,100,0
1,47,100,0
1,46,100,0
1,47,100,0
1,46,100,0
1,47,100,0
1,52,100,0
1,46,100,0
1,46,100,0
1,46,100,0
1,46,100,0
1,46,100,0
1,47,100,0
1,51,100,0
1,46,100,0
1,46,100,0
1,46,100,0
1,46,100,0
1,46,100,0
1,47,100,0
1,46,100,0
1,47,100,0
1,46,100,0
1,45,100,0
1,45,100,0
1,57,100,480
1,57,100,0
1,57,100,0
1,57,100,0
1,57,100,0
1,57,100,0
1,56,100,0
1,56,100,0
1,56,100,0
1,45,100,0
1,45,100,0
1,57,100,480
1,57,100,0
1,57,100,0
1,57,100,0
1,57,100,0
1,57,100,0
1,56,100,0
1,56,100,0
1,56,100,0
1,45,100,0
1,45,100,0
1,57,100,480
1,57,100,0
1,57,100,0
1,57,100,0
1,57,100,0
1,57,100,0
1,56,100,0
1,56,100,0
1,56,100,0
1,45,100,0
1,45,100,0
1,57,100,480
1,57,100,0
1,57,100,0
1,57,100,0
1,57,100,0
1,57,100,0
1,56,100,0
1,45,100,720
1,45,100,0
1,57,100,480
1,45,100,0
1,45,100,0
1,57,100,480
1,45,100,0
1,45,100,0
1,57,100,480
1,45,100,0
1,45,100,0
1,57,100,480
1,45,100,0
1,45,100,0
1,57,100,480
1,45,100,0
1,45,100,0
1,57,100,480
1,45,100,0
1,45,100,0
1,57,100,480
1,45,100,0
1,45,100,0
1,57,100,480
1,47,100,0
1,46,100,0
1,46,100,0
1,46,100,0
1,46,100,0
1,46,100,0
1,47,100,0
1,46,100,0
1,46,100,0
1,46,100,0
1,46,100,0
1,46,100,0
1,47,100,0
1,46,100,0
1,47,100,0
1,46,100,0
1,47,100,0
1,46,100,0
1,46,100,0
1,46,100,0
1,46,100,0
1,46,100,0
1,47,100,0
1,46,100,0
1,46,100,0
1,46,100,0
1,46,100,0
1,46,100,0
1,47,100,0
1,46,100,0
1,47,100,0
1,46,100,0
1,47,100,0
1,46,100,0
1,46,100,0
1,46,100,0
1,46,100,0
1,46,100,0
1,47,100,0
1,46,100,0
1,46,100,0
1,46,100,0
1,46,100,0
1,46,100,0
1,47,100,0
1,46,100,0
1,47,100,0
1,46,100,0
1,47,100,0
1,46,100,0
1,46,100,0
1,46,100,0
1,46,100,0
1,46,100,0
1,47,100,0
1,46,100,0
1,46,100,0
1,46,100,0
1,46,100,0
1,46,100,0
1,47,100,0
1,46,100,0
1,47,100,0
1,46,100,0
1,47,100,0
1,46,100,0
1,46,100,0
1,46,100,0
1,46,100,0
1,46,100,0
1,47,100,0
1,46,100,0
1,46,100,0
1,46,100,0
1,46,100,0
1,46,100,0
1,47,100,0
1,46,100,0
1,47,100,0
1,46,100,0
1,47,100,0
1,46,100,0
1,46,100,0
1,46,100,0
1,46,100,0
1,46,100,0
1,47,100,0
1,46,100,0
1,46,100,0
1,46,100,0
1,46,100,0
1,46,100,0
1,47,100,0
1,46,100,0
1,47,100,0
1,46,100,0
1,47,100,0
1,46,100,0
1,46,100,0
1,46,100,0
1,46,100,0
1,46,100,0
1,47,100,0
1,46,100,0
1,46,100,0
1,46,100,0
1,46,100,0
1,46,100,0
1,47,100,0
1,46,100,0
1,47,100,0
1,46,100,0
1,47,100,0
1,46,100,0
1,46,100,0
1,46,100,0
1,46,100,0
1,46,100,0
1,47,100,0
1,46,100,0
1,46,100,0
1,46,100,0
1,46,100,0
1,46,100,0
1,47,100,0
1,46,100,0
1,47,100,0
1,46,100,0
2,69,100,0
2,69,100,0
2,69,100,0
2,69,100,0
2,68,100,0
2,68,100,0
2,68,100,0
2,68,100,0
2,68,100,0
2,64,100,0
2,64,100,0
2,64,100,0
2,62,100,0
2,64,100,0
2,64,100,0
2,69,100,0
2,69,100,0
2,69,100,0
2,69,100,0
2,68,100,0
2,68,100,0
2,68,100,0
2,68,100,0
2,68,100,0
2,64,100,0
2,64,100,0
2,64,100,0
2,62,100,0
2,64,100,0
2,64,100,0
2,69,100,0
2,57,100,0
2,69,100,0
2,57,100,0
2,69,100,0
2,69,100,0
2,69,100,0
2,69,100,0
2,68,100,0
2,68,100,0
2,68,100,0
2,68,100,0
2,68,100,0
2,64,100,0
2,64,100,0
2,64,100,0
2,62,100,0
2,64,100,0
2,64,100,0
2,69,100,0
2,69,100,0
2,69,100,0
2,69,100,0
2,68,100,0
2,68,100,0
2,68,100,0
2,68,100,0
2,68,100,0
2,64,100,0
2,64,100,0
2,64,100,0
2,62,100,0
2,64,100,0
2,64,100,0
2,69,100,0
2,57,100,0
2,69,100,0
2,57,100,0
2,61,100,0
2,57,100,0
2,62,100,0
2,57,100,0
2,62,100,0
2,64,100,0
2,62,100,0
2,61,100,0
2,57,100,0
2,62,100,0
2,57,100,0
2,62,100,0
2,64,100,0
2,62,100,0
2,69,100,0
2,69,100,0
2,69,100,0
2,69,100,0
2,68,100,0
2,68,100,0
2,68,100,0
2,68,100,0
2,68,100,0
2,64,100,0
2,64,100,0
2,64,100,0
2,62,100,0
2,64,100,0
2,64,100,0
2,69,100,0
2,69,100,0
2,69,100,0
2,69,100,0
2,68,100,0
2,68,100,0
2,68,100,0
2,68,100,0
2,68,100,0
2,64,100,0
2,64,100,0
2,64,100,0
2,62,100,0
2,64,100,0
2,64,100,0
2,69,100,0
2,57,100,0
2,69,100,0
2,57,100,0
2,61,100,0
2,57,100,0
2,62,100,0
2,57,100,0
2,62,100,0
2,64,100,0
2,62,100,0
2,61,100,0
2,57,100,0
2,62,100,0
2,57,100,0
2,62,100,0
2,64,100,0
2,62,100,0
2,69,100,0
2,69,100,0
2,69,100,0
2,69,100,0
2,70,100,0
2,69,100,0
2,69,100,0
2,64,100,0
2,64,100,0
2,64,100,0
2,63,100,0
2,64,100,0
2,66,100,0
2,64,100,0
2,64,100,0
2,64,100,0
2,64,100,0
2,64,100,0
2,64,100,0
2,64,100,0
2,64,100,0
2,64,100,0
2,60,100,0
2,60,100,0
2,60,100,0
2,60,100,0
2,60,100,0
2,60,100,0
2,57,100,0
2,61,100,0
2,61,100,0
2,61,100,0
2,61,100,0
2,61,100,0
2,61,100,0
2,61,100,0
2,61,100,0
2,61,100,0
2,61,100,0
2,61,100,0
2,61,100,0
2,61,100,0
2,61,100,0
2,61,100,0
2,61,100,0
2,61,100,0
2,61,100,0
2,61,100,0
2,61,100,0
2,61,100,0
2,57,100,0
2,62,100,0
2,57,100,0
2,62,100,0
2,64,100,0
2,62,100,0
2,61,100,0
2,57,100,0
2,62,100,0
2,57,100,0
2,62,100,0
2,64,100,0
2,62,100,0
2,63,100,0
2,63,100,0
2,63,100,0
2,63,100,0
2,63,100,0
2,63,100,0
2,63,100,0
2,63,100,0
3,46,100,0
3,36,100,0
3,36,100,0
3,46,100,0
3,40,100,0
3,46,100,0
3,46,100,0
3,46,100,0
3,36,100,0
3,46,100,0
3,36,100,0
3,40,100,0
3,46,100,0
3,36,100,0
3,46,100,0
3,36,100,0
3,46,100,0
3,36,100,0
3,46,100,0
3,40,100,0
3,46,100,0
3,46,100,0
3,46,100,0
3,36,100,0
3,46,100,0
3,36,100,0
3,40,100,0
3,46,100,0
3,36,100,0
3,46,100,0
3,36,100,0
3,46,100,0
3,36,100,0
3,46,100,0
3,40,100,0
3,46,100,0
3,46,100,0
3,46,100,0
3,36,100,0
3,46,100,0
3,36,100,0
3,40,100,0
3,46,100,0
3,36,100,0
3,46,100,0
