track,note,velocity,time
1,21,124,1536
1,21,124,0
1,22,123,0
1,23,123,0
1,23,122,0
1,22,122,0
1,26,96,0
1,25,96,96
1,23,96,0
1,26,96,192
1,25,96,96
1,23,96,0
1,26,96,576
1,25,96,96
1,23,96,0
1,26,96,192
1,25,96,96
1,23,96,0
1,23,96,0
1,24,96,0
1,26,96,0
1,25,96,96
1,23,96,0
1,26,96,192
1,25,96,96
1,23,96,0
1,26,96,576
1,25,96,96
1,23,96,0
1,26,96,192
1,25,96,96
1,23,96,0
1,23,96,0
1,24,96,0
1,26,96,0
1,25,96,96
1,23,96,0
1,26,96,192
1,25,96,96
1,23,96,0
1,26,96,576
1,25,96,96
1,23,96,0
1,26,96,192
1,25,96,96
1,23,96,0
1,23,96,0
1,24,96,0
1,26,96,0
1,25,96,96
1,23,96,0
1,26,96,192
1,25,96,96
1,23,96,0
1,26,96,576
1,25,96,96
1,23,96,0
1,26,96,192
1,25,96,96
1,23,96,0
1,23,96,0
1,24,96,0
1,26,96,0
1,25,96,96
1,23,96,0
1,26,96,192
1,25,96,96
1,23,96,0
1,26,96,576
1,25,96,96
1,23,96,0
1,26,96,192
1,25,96,96
1,23,96,0
1,23,96,0
1,24,96,0
1,26,96,0
1,25,96,96
1,23,96,0
1,26,96,192
1,25,96,96
1,23,96,0
1,26,96,576
1,25,96,96
1,23,96,0
1,26,96,192
1,25,96,96
1,23,96,0
1,23,96,0
1,24,96,0
1,23,96,0
1,21,96,0
1,23,96,0
1,23,96,0
1,23,96,0
1,21,96,0
1,23,96,0
1,21,96,0
1,23,96,0
1,24,96,288
1,23,96,0
1,21,96,0
1,23,96,0
1,23,96,0
1,23,96,0
1,21,96,0
1,23,96,0
1,21,96,0
1,23,96,0
1,24,96,0
1,23,96,0
1,21,96,0
1,23,96,0
1,23,96,0
1,23,96,0
1,21,96,0
1,23,96,0
1,21,96,0
1,23,96,0
1,24,96,288
1,23,96,0
1,21,96,0
1,23,96,0
1,23,96,0
1,23,96,0
1,21,96,0
1,23,96,0
1,21,96,0
1,23,96,0
1,24,96,0
1,21,124,0
1,21,124,0
1,22,123,0
1,23,123,0
1,23,122,0
1,22,122,0
1,21,124,0
1,21,124,0
1,22,123,0
1,23,123,0
1,23,122,0
1,22,122,0
1,26,96,0
1,25,96,96
1,23,96,0
1,26,96,192
1,25,96,96
1,23,96,0
1,26,96,576
1,25,96,96
1,23,96,0
1,26,96,192
1,25,96,96
1,23,96,0
1,23,96,0
1,24,96,0
1,26,96,0
1,25,96,96
1,23,96,0
1,26,96,192
1,25,96,96
1,23,96,0
1,26,96,576
1,25,96,96
1,23,96,0
1,26,96,192
1,25,96,96
1,23,96,0
1,23,96,0
1,24,96,0
1,26,96,0
1,25,96,96
1,23,96,0
1,26,96,192
1,25,96,96
1,23,96,0
1,26,96,576
1,25,96,96
1,23,96,0
1,26,96,192
1,25,96,96
1,23,96,0
1,23,96,0
1,24,96,0
1,26,96,0
1,25,96,96
1,23,96,0
1,26,96,192
1,25,96,96
1,23,96,0
1,26,96,576
1,25,96,96
1,23,96,0
1,26,96,192
1,25,96,96
1,23,96,0
1,23,96,0
1,24,96,0
1,26,96,0
1,25,96,96
1,23,96,0
1,26,96,192
1,25,96,96
1,23,96,0
1,26,96,576
1,25,96,96
1,23,96,0
1,26,96,192
1,25,96,96
1,23,96,0
1,23,96,0
1,24,96,0
1,26,96,0
1,25,96,96
1,23,96,0
1,26,96,192
1,25,96,96
1,23,96,0
1,26,96,576
1,25,96,96
1,23,96,0
1,26,96,192
1,25,96,96
1,23,96,0
1,23,96,0
1,24,96,0
1,23,96,0
1,21,96,0
1,23,96,0
1,23,96,0
1,23,96,0
1,21,96,0
1,23,96,0
1,21,96,0
1,23,96,0
1,24,96,288
1,23,96,0
1,21,96,0
1,23,96,0
1,23,96,0
1,23,96,0
1,21,96,0
1,23,96,0
1,21,96,0
1,23,96,0
1,24,96,0
1,23,96,0
1,21,96,0
1,23,96,0
1,23,96,0
1,23,96,0
1,21,96,0
1,23,96,0
1,21,96,0
1,23,96,0
1,24,96,288
1,23,96,0
1,21,96,0
1,23,96,0
1,23,96,0
1,23,96,0
1,21,96,0
1,23,96,0
1,21,96,0
1,23,96,0
1,24,96,0
1,21,124,0
1,21,124,0
1,22,123,0
1,23,123,0
1,23,122,0
1,22,122,0
1,21,124,0
1,21,124,0
1,22,123,0
1,23,123,0
1,23,122,0
1,22,122,0
1,23,96,0
1,21,96,0
1,23,96,0
1,23,96,0
1,23,96,0
1,21,96,0
1,23,96,0
1,21,96,0
1,23,96,0
1,22,96,0
1,23,96,0
1,21,96,0
1,23,96,0
1,23,96,0
1,23,96,0
1,21,96,0
1,23,96,0
1,21,96,0
1,23,96,0
1,22,96,0
1,23,96,0
1,21,96,0
1,23,96,0
1,23,96,0
1,23,96,0
1,21,96,0
1,23,96,0
1,21,96,0
1,23,96,0
1,22,96,0
1,23,96,0
1,21,96,0
1,23,96,0
1,23,96,0
1,23,96,0
1,21,96,0
1,23,96,0
1,21,96,0
1,23,96,0
1,22,96,0
1,23,96,0
1,21,96,0
1,23,96,0
1,23,96,0
1,23,96,0
1,21,96,0
1,23,96,0
1,21,96,0
1,23,96,0
1,22,96,0
1,23,96,0
1,21,96,0
1,23,96,0
1,23,96,0
1,23,96,0
1,21,96,0
1,23,96,0
1,21,96,0
1,23,96,0
1,22,96,0
1,23,96,0
1,21,96,0
1,23,96,0
1,23,96,0
1,23,96,0
1,21,96,0
1,23,96,0
1,21,96,0
1,23,96,0
1,22,96,0
1,23,96,0
1,21,96,0
1,23,96,0
1,23,96,0
1,23,96,0
1,21,96,0
1,23,96,0
1,21,96,0
1,23,96,0
1,22,96,0
1,21,124,0
1,21,124,0
1,22,123,0
1,23,123,0
1,23,122,0
1,22,122,0
1,21,124,0
1,21,124,0
1,22,123,0
1,23,123,0
1,23,122,0
1,22,122,0
1,21,124,0
1,21,124,0
1,22,123,0
1,23,123,0
1,23,122,0
1,22,122,0
1,21,124,0
1,21,124,0
1,22,123,0
1,23,123,0
1,23,122,0
1,22,122,0
1,21,124,0
1,21,124,0
1,22,123,0
1,23,123,0
1,23,122,0
1,22,122,0
2,40,66,1536
2,33,75,0
2,45,75,192
2,52,75,192
2,57,75,0
2,52,76,0
2,57,76,192
2,41,76,0
2,34,76,0
2,45,76,192
2,52,76,192
2,57,77,0
2,52,77,0
2,57,77,192
2,35,77,0
2,42,77,0
2,45,77,192
2,52,78,192
2,57,78,0
2,52,78,0
2,57,78,192
2,41,78,0
2,34,78,0
2,45,79,192
2,52,79,192
2,57,79,0
2,52,79,0
2,57,79,192
2,42,96,18432
2,35,119,0
2,40,120,0
2,33,120,0
2,42,120,0
2,35,120,0
2,42,120,0
2,35,120,0
2,42,120,0
2,35,120,0
2,40,120,0
2,33,120,0
2,42,120,0
2,35,120,0
2,40,120,0
2,33,120,0
2,42,120,0
2,35,120,0
2,43,121,288
2,36,121,0
2,42,121,0
2,35,121,0
2,40,121,0
2,33,121,0
2,42,121,0
2,35,121,0
2,42,121,0
2,35,121,0
2,42,121,0
2,35,121,0
2,40,122,0
2,33,122,0
2,42,122,0
2,35,122,0
2,40,122,0
2,33,122,0
2,42,122,0
2,35,122,0
2,43,122,0
2,36,122,0
2,42,122,0
2,35,122,0
2,40,123,0
2,33,123,0
2,42,123,0
2,35,123,0
2,42,123,0
2,35,123,0
2,42,123,0
2,35,123,0
2,40,123,0
2,33,123,0
2,42,123,0
2,35,123,0
2,40,123,0
2,33,123,0
2,42,123,0
2,35,123,0
2,43,124,288
2,36,124,0
2,42,124,0
2,35,124,0
2,40,124,0
2,33,124,0
2,42,124,0
2,35,124,0
2,42,124,0
2,35,124,0
2,42,124,0
2,35,124,0
2,40,125,0
2,33,125,0
2,42,125,0
2,35,125,0
2,40,125,0
2,33,125,0
2,42,125,0
2,35,125,0
2,43,125,0
2,36,125,0
2,40,101,0
2,33,101,0
2,45,103,192
2,52,103,192
2,57,103,0
2,52,103,0
2,57,103,192
2,41,103,0
2,34,103,0
2,45,103,192
2,52,103,192
2,57,103,0
2,52,103,0
2,57,103,192
2,35,103,0
2,42,103,0
2,45,103,192
2,52,103,192
2,57,103,0
2,52,103,0
2,57,103,192
2,41,103,0
2,34,103,0
2,45,103,192
2,52,103,192
2,57,103,0
2,52,103,0
2,57,103,192
2,40,114,0
2,33,114,0
2,45,114,192
2,52,115,192
2,57,116,0
2,52,115,0
2,57,115,192
2,41,115,0
2,34,115,0
2,45,115,192
2,52,115,192
2,57,115,0
2,52,115,0
2,57,115,192
2,35,116,0
2,42,116,0
2,45,116,192
2,52,116,192
2,57,116,0
2,52,116,0
2,57,116,192
2,41,116,0
2,34,116,0
2,45,116,192
2,52,116,192
2,57,116,0
2,52,116,0
2,57,116,192
2,42,96,18432
2,35,119,0
2,40,120,0
2,33,120,0
2,42,120,0
2,35,120,0
2,42,120,0
2,35,120,0
2,42,120,0
2,35,120,0
2,40,120,0
2,33,120,0
2,42,120,0
2,35,120,0
2,40,120,0
2,33,120,0
2,42,120,0
2,35,120,0
2,43,121,288
2,36,121,0
2,42,121,0
2,35,121,0
2,40,121,0
2,33,121,0
2,42,121,0
2,35,121,0
2,42,121,0
2,35,121,0
2,42,121,0
2,35,121,0
2,40,122,0
2,33,122,0
2,42,122,0
2,35,122,0
2,40,122,0
2,33,122,0
2,42,122,0
2,35,122,0
2,43,122,0
2,36,122,0
2,42,122,0
2,35,122,0
2,40,123,0
2,33,123,0
2,42,123,0
2,35,123,0
2,42,123,0
2,35,123,0
2,42,123,0
2,35,123,0
2,40,123,0
2,33,123,0
2,42,123,0
2,35,123,0
2,40,123,0
2,33,123,0
2,42,123,0
2,35,123,0
2,43,124,288
2,36,124,0
2,42,124,0
2,35,124,0
2,40,124,0
2,33,124,0
2,42,124,0
2,35,124,0
2,42,124,0
2,35,124,0
2,42,124,0
2,35,124,0
2,40,125,0
2,33,125,0
2,42,125,0
2,35,125,0
2,40,125,0
2,33,125,0
2,42,125,0
2,35,125,0
2,43,125,0
2,36,125,0
2,40,104,0
2,33,110,0
2,45,108,192
2,52,107,192
2,57,112,0
2,52,108,0
2,57,108,192
2,41,107,0
2,34,107,0
2,45,107,192
2,52,107,192
2,57,107,0
2,52,107,0
2,57,107,192
2,35,107,0
2,42,107,0
2,45,107,192
2,52,107,192
2,57,107,0
2,52,106,0
2,57,106,192
2,41,106,0
2,34,106,0
2,45,106,192
2,52,106,192
2,57,106,0
2,52,106,0
2,57,106,192
2,40,114,0
2,33,114,0
2,45,114,192
2,52,115,192
2,57,116,0
2,52,115,0
2,57,115,192
2,41,115,0
2,34,115,0
2,45,115,192
2,52,115,192
2,57,115,0
2,52,115,0
2,57,115,192
2,35,116,0
2,42,116,0
2,45,116,192
2,52,116,192
2,57,116,0
2,52,116,0
2,57,116,192
2,41,116,0
2,34,116,0
2,45,116,192
2,52,116,192
2,57,116,0
2,52,116,0
2,57,116,192
2,42,96,0
2,35,119,0
2,40,120,0
2,33,120,0
2,42,120,0
2,35,120,0
2,42,120,0
2,35,120,0
2,42,120,0
2,35,120,0
2,40,120,0
2,33,120,0
2,42,120,0
2,35,120,0
2,40,120,0
2,33,120,0
2,42,120,0
2,35,120,0
2,41,121,0
2,34,121,0
2,35,119,0
2,42,96,0
2,33,120,0
2,40,120,0
2,35,120,0
2,42,120,0
2,35,120,0
2,42,120,0
2,35,120,0
2,42,120,0
2,33,120,0
2,40,120,0
2,35,120,0
2,42,120,0
2,33,120,0
2,40,120,0
2,35,120,0
2,42,120,0
2,34,121,0
2,41,121,0
2,35,119,0
2,42,96,0
2,33,120,0
2,40,120,0
2,35,120,0
2,42,120,0
2,35,120,0
2,42,120,0
2,35,120,0
2,42,120,0
2,33,120,0
2,40,120,0
2,35,120,0
2,42,120,0
2,33,120,0
2,40,120,0
2,35,120,0
2,42,120,0
2,34,121,0
2,41,121,0
2,42,96,0
2,35,119,0
2,40,120,0
2,33,120,0
2,42,120,0
2,35,120,0
2,42,120,0
2,35,120,0
2,42,120,0
2,35,120,0
2,40,120,0
2,33,120,0
2,42,120,0
2,35,120,0
2,40,120,0
2,33,120,0
2,42,120,0
2,35,120,0
2,41,121,0
2,34,121,0
2,42,96,0
2,35,127,0
2,40,127,0
2,33,127,0
2,42,127,0
2,35,127,0
2,42,127,0
2,35,127,0
2,42,127,0
2,35,127,0
2,40,127,0
2,33,127,0
2,42,127,0
2,35,127,0
2,40,127,0
2,33,127,0
2,42,127,0
2,35,127,0
2,41,127,0
2,34,127,0
2,35,126,0
2,42,126,0
2,33,126,0
2,40,126,0
2,35,126,0
2,42,126,0
2,35,126,0
2,42,126,0
2,35,126,0
2,42,126,0
2,33,126,0
2,40,126,0
2,35,126,0
2,42,126,0
2,33,125,0
2,40,125,0
2,35,125,0
2,42,125,0
2,34,125,0
2,41,125,0
2,35,125,0
2,42,125,0
2,33,125,0
2,40,125,0
2,35,125,0
2,42,125,0
2,35,125,0
2,42,125,0
2,35,124,0
2,42,124,0
2,33,124,0
2,40,124,0
2,35,124,0
2,42,124,0
2,33,124,0
2,40,124,0
2,35,124,0
2,42,124,0
2,34,124,0
2,41,124,0
2,42,124,0
2,35,124,0
2,40,123,0
2,33,123,0
2,42,123,0
2,35,123,0
2,42,123,0
2,35,123,0
2,42,123,0
2,35,123,0
2,40,123,0
2,33,123,0
2,42,123,0
2,35,123,0
2,40,123,0
2,33,123,0
2,42,123,0
2,35,123,0
2,41,123,0
2,34,123,0
2,40,104,0
2,33,110,0
2,45,108,192
2,52,107,192
2,57,112,0
2,52,108,0
2,57,108,192
2,41,107,0
2,34,107,0
2,45,107,192
2,52,107,192
2,57,107,0
2,52,107,0
2,57,107,192
2,35,107,0
2,42,107,0
2,45,107,192
2,52,107,192
2,57,107,0
2,52,106,0
2,57,106,192
2,41,106,0
2,34,106,0
2,45,106,192
2,52,106,192
2,57,106,0
2,52,106,0
2,57,106,192
2,40,114,0
2,33,114,0
2,45,114,192
2,52,115,192
2,57,116,0
2,52,115,0
2,57,115,192
2,41,115,0
2,34,115,0
2,45,115,192
2,52,115,192
2,57,115,0
2,52,115,0
2,57,115,192
2,35,116,0
2,42,116,0
2,45,116,192
2,52,116,192
2,57,116,0
2,52,116,0
2,57,116,192
2,41,116,0
2,34,116,0
2,45,116,192
2,52,116,192
2,57,116,0
2,52,116,0
2,57,116,192
2,40,104,0
2,33,110,0
2,45,108,192
2,52,107,192
2,57,112,0
2,52,108,0
2,57,108,192
2,41,107,0
2,34,107,0
2,45,107,192
2,52,107,192
2,57,107,0
2,52,107,0
2,57,107,192
2,35,107,0
2,42,107,0
2,45,107,192
2,52,107,192
2,57,107,0
2,52,106,0
2,57,106,192
2,41,106,0
2,34,106,0
2,45,106,192
2,52,106,192
2,57,106,0
2,52,106,0
2,57,106,192
2,40,114,0
2,33,114,0
2,45,114,192
2,52,115,192
2,57,116,0
2,52,115,0
2,57,115,192
2,41,115,0
2,34,115,0
2,45,115,192
2,52,115,192
2,57,115,0
2,52,115,0
2,57,115,192
2,35,116,0
2,42,116,0
2,45,116,192
2,52,116,192
2,57,116,0
2,52,116,0
2,57,116,192
2,41,116,0
2,34,116,0
2,45,116,192
2,52,116,192
2,57,116,0
2,52,116,0
2,57,116,192
2,40,114,0
2,33,114,0
2,45,114,0
2,52,115,0
2,57,116,0
2,52,115,0
2,57,115,0
2,41,115,0
2,34,115,0
2,45,115,0
2,52,115,0
2,57,115,0
2,52,115,0
2,57,115,0
2,35,116,0
2,42,116,0
2,45,116,0
2,52,116,0
2,57,116,0
2,52,116,0
2,57,116,0
2,41,116,0
2,34,116,0
2,45,116,0
2,52,116,0
2,57,116,0
2,52,116,0
2,57,116,0
3,64,124,1536
3,62,124,0
3,67,124,0
3,65,124,0
3,64,124,0
3,62,123,0
3,64,123,0
3,62,123,0
3,67,123,0
3,69,123,0
3,65,123,0
3,64,123,0
