track,note,velocity,time
2,74,127,0
2,77,127,96
2,76,127,0
2,72,127,0
2,69,127,192
2,76,127,0
2,74,127,0
2,77,127,0
2,76,127,0
2,72,127,0
2,69,127,0
2,76,127,0
2,71,127,0
2,74,127,0
2,77,127,0
2,76,127,0
2,72,127,0
2,69,127,0
2,76,127,0
2,74,127,0
2,77,127,0
2,76,127,0
2,72,127,0
2,69,127,0
2,76,127,0
2,71,127,0
2,39,127,0
2,51,127,0
2,62,127,0
2,33,127,0
2,45,127,0
2,33,127,0
2,45,127,0
2,39,127,0
2,51,127,0
2,62,127,0
2,39,127,0
2,51,127,0
2,62,127,0
2,33,127,0
2,45,127,0
2,33,127,0
2,45,127,0
2,33,127,0
2,45,127,0
2,39,127,0
2,51,127,0
2,62,127,0
2,33,127,0
2,45,127,0
2,33,127,0
2,45,127,0
2,39,127,0
2,51,127,0
2,62,127,0
2,39,127,0
2,51,127,0
2,62,127,0
2,33,127,0
2,45,127,0
2,33,127,0
2,45,127,0
2,33,127,0
2,45,127,0
2,39,127,0
2,51,127,0
2,62,127,0
2,33,127,0
2,45,127,0
2,33,127,0
2,45,127,0
2,39,127,0
2,51,127,0
2,62,127,0
2,39,127,0
2,51,127,0
2,62,127,0
2,33,127,0
2,45,127,0
2,33,127,0
2,45,127,0
2,33,127,0
2,45,127,0
2,39,127,0
2,51,127,0
2,62,127,0
2,33,127,0
2,45,127,0
2,33,127,0
2,45,127,0
2,39,127,0
2,51,127,0
2,62,127,0
2,39,127,0
2,51,127,0
2,62,127,0
2,33,127,0
2,45,127,0
2,33,127,0
2,45,127,0
2,33,127,0
2,45,127,0
2,39,127,0
2,51,127,0
2,62,127,0
2,33,127,0
2,45,127,0
2,33,127,0
2,45,127,0
2,39,127,0
2,51,127,0
2,62,127,0
2,39,127,0
2,51,127,0
2,62,127,0
2,33,127,0
2,45,127,0
2,33,127,0
2,45,127,0
2,33,127,0
2,45,127,0
2,39,127,0
2,51,127,0
2,62,127,0
2,33,127,0
2,45,127,0
2,33,127,0
2,45,127,0
2,39,127,0
2,51,127,0
2,62,127,0
2,39,127,0
2,51,127,0
2,62,127,0
2,33,127,0
2,45,127,0
2,33,127,0
2,45,127,0
2,33,127,0
2,45,127,0
2,39,127,0
2,51,127,0
2,62,127,0
2,33,127,0
2,45,127,0
2,33,127,0
2,45,127,0
2,39,127,0
2,51,127,0
2,62,127,0
2,39,127,0
2,51,127,0
2,62,127,0
2,33,127,0
2,45,127,0
2,33,127,0
2,45,127,0
2,33,127,0
2,45,127,0
2,39,127,0
2,51,127,0
2,62,127,0
2,33,127,0
2,45,127,0
2,33,127,0
2,45,127,0
2,39,127,0
2,51,127,0
2,62,127,0
2,39,127,0
2,51,127,0
2,62,127,0
2,33,127,0
2,45,127,0
2,33,127,0
2,45,127,0
2,74,127,0
2,77,127,96
2,76,127,0
2,72,127,0
2,69,127,192
2,76,127,0
2,74,127,0
2,77,127,0
2,76,127,0
2,72,127,0
2,69,127,0
2,76,127,0
2,71,127,0
2,74,127,0
2,77,127,0
2,76,127,0
2,72,127,0
2,69,127,0
2,76,127,0
2,74,127,0
2,77,127,0
2,76,127,0
2,72,127,0
2,69,127,0
2,76,127,0
2,71,127,0
2,39,127,0
2,51,127,0
2,62,127,0
2,33,127,0
2,45,127,0
2,33,127,0
2,45,127,0
2,39,127,0
2,51,127,0
2,62,127,0
2,39,127,0
2,51,127,0
2,62,127,0
2,33,127,0
2,45,127,0
2,33,127,0
2,45,127,0
2,33,127,0
2,45,127,0
2,39,127,0
2,51,127,0
2,62,127,0
2,33,127,0
2,45,127,0
2,33,127,0
2,45,127,0
2,39,127,0
2,51,127,0
2,62,127,0
2,39,127,0
2,51,127,0
2,62,127,0
2,33,127,0
2,45,127,0
2,33,127,0
2,45,127,0
2,33,127,0
2,45,127,0
2,39,127,0
2,51,127,0
2,62,127,0
2,33,127,0
2,45,127,0
2,33,127,0
2,45,127,0
2,39,127,0
2,51,127,0
2,62,127,0
2,39,127,0
2,51,127,0
2,62,127,0
2,33,127,0
2,45,127,0
2,33,127,0
2,45,127,0
2,33,127,0
2,45,127,0
2,39,127,0
2,51,127,0
2,62,127,0
2,33,127,0
2,45,127,0
2,33,127,0
2,45,127,0
2,39,127,0
2,51,127,0
2,62,127,0
2,39,127,48
2,51,127,0
2,62,127,0
2,33,127,0
2,45,127,0
2,33,127,0
2,45,127,0
2,33,127,0
2,45,127,0
2,74,127,0
2,77,127,96
2,76,127,0
2,72,127,0
2,69,127,192
2,76,127,0
2,74,127,0
2,77,127,0
2,76,127,0
2,72,127,0
2,69,127,0
2,76,127,0
2,71,127,0
2,74,127,0
2,77,127,0
2,76,127,0
2,72,127,0
2,69,127,0
2,76,127,0
2,74,127,0
2,77,127,0
2,76,127,0
2,72,127,0
2,69,127,0
2,76,127,0
2,71,127,0
2,33,127,0
2,40,127,0
2,45,127,0
2,40,127,0
2,47,127,0
2,52,127,0
2,36,127,0
2,43,127,0
2,48,127,0
2,34,127,0
2,41,127,0
2,46,127,0
2,34,127,0
2,41,127,0
2,46,127,0
2,33,127,0
2,40,127,0
2,45,127,0
2,40,127,0
2,47,127,0
2,52,127,0
2,36,127,0
2,43,127,0
2,48,127,0
2,39,127,96
2,46,127,0
2,51,127,0
2,39,127,0
2,46,127,0
2,51,127,0
2,33,127,0
2,40,127,0
2,45,127,0
2,40,127,0
2,47,127,0
2,52,127,0
2,36,127,0
2,43,127,0
2,48,127,0
2,34,127,0
2,41,127,0
2,46,127,0
2,34,127,0
2,41,127,0
2,46,127,0
2,33,127,0
2,40,127,0
2,45,127,0
2,40,127,0
2,47,127,0
2,52,127,0
2,36,127,0
2,43,127,0
2,48,127,0
2,39,127,96
2,46,127,0
2,51,127,0
2,39,127,0
2,46,127,0
2,51,127,0
2,39,127,0
2,46,127,0
2,51,127,0
2,39,127,0
2,46,127,0
2,51,127,0
2,74,127,0
2,77,127,96
2,76,127,0
2,72,127,0
2,69,127,192
2,76,127,0
2,74,127,0
2,77,127,0
2,76,127,0
2,72,127,0
2,69,127,0
2,76,127,0
2,71,127,0
2,74,127,0
2,77,127,0
2,76,127,0
2,72,127,0
2,69,127,0
2,76,127,0
2,74,127,0
2,77,127,0
2,76,127,0
2,72,127,0
2,69,127,0
2,76,127,0
2,71,127,0
2,74,127,0
2,77,127,0
2,76,127,0
2,72,127,0
2,69,127,0
2,76,127,0
2,74,127,0
2,77,127,0
2,76,127,0
2,72,127,0
2,69,127,0
2,76,127,0
2,71,127,0
2,33,127,0
2,40,127,0
2,45,127,0
2,40,127,0
2,47,127,0
2,52,127,0
2,36,127,0
2,43,127,0
2,48,127,0
2,34,127,0
2,41,127,0
2,46,127,0
2,34,127,0
2,41,127,0
2,46,127,0
2,33,127,0
2,40,127,0
2,45,127,0
2,40,127,0
2,47,127,0
2,52,127,0
2,36,127,0
2,43,127,0
2,48,127,0
2,39,127,96
2,46,127,0
2,51,127,0
2,39,127,0
2,46,127,0
2,51,127,0
2,33,127,0
2,40,127,0
2,45,127,0
2,40,127,0
2,47,127,0
2,52,127,0
2,36,127,0
2,43,127,0
2,48,127,0
2,34,127,0
2,41,127,0
2,46,127,0
2,34,127,0
2,41,127,0
2,46,127,0
2,33,127,0
2,40,127,0
2,45,127,0
2,40,127,0
2,47,127,0
2,52,127,0
2,36,127,0
2,43,127,0
2,48,127,0
2,39,127,96
2,46,127,0
2,51,127,0
2,39,127,0
2,46,127,0
2,51,127,0
2,33,127,0
2,40,127,0
2,45,127,0
2,33,127,0
2,40,127,0
2,45,127,0
2,33,127,0
2,40,127,0
2,45,127,0
2,33,127,0
2,40,127,0
2,45,127,0
2,57,127,0
2,57,127,0
2,64,127,0
2,57,127,0
2,59,127,0
2,64,127,0
2,55,127,0
2,60,127,0
2,64,127,0
2,54,127,192
2,62,127,0
2,64,127,0
2,55,127,0
2,60,127,0
2,64,127,0
2,55,127,0
2,59,127,0
2,64,127,0
2,53,127,0
2,60,127,0
2,64,127,0
2,57,127,192
2,57,127,0
2,64,127,0
2,56,127,0
2,59,127,0
2,62,127,0
2,55,127,0
2,57,127,0
2,62,127,0
2,53,127,192
2,57,127,0
2,62,127,0
2,53,127,0
2,57,127,0
2,62,127,0
2,52,127,0
2,57,127,0
2,61,127,0
2,74,127,0
2,77,127,96
2,76,127,0
2,72,127,0
2,69,127,0
2,76,127,0
2,74,127,0
2,77,127,0
2,76,127,0
2,72,127,0
2,69,127,0
2,76,127,0
2,71,127,0
2,74,127,0
2,77,127,0
2,76,127,0
2,72,127,0
2,69,127,0
2,76,127,0
2,74,127,0
2,77,127,0
2,76,127,0
2,72,127,0
2,69,127,0
2,76,127,0
2,71,127,0
2,39,127,0
2,51,127,0
2,62,127,0
2,33,127,0
2,45,127,0
2,33,127,0
2,45,127,0
2,39,127,0
2,51,127,0
2,62,127,0
2,39,127,0
2,51,127,0
2,62,127,0
2,33,127,0
2,45,127,0
2,33,127,0
2,45,127,0
2,33,127,0
2,45,127,0
2,39,127,0
2,51,127,0
2,62,127,0
2,33,127,0
2,45,127,0
2,33,127,0
2,45,127,0
2,39,127,0
2,51,127,0
2,62,127,0
2,39,127,0
2,51,127,0
2,62,127,0
2,33,127,0
2,45,127,0
2,33,127,0
2,45,127,0
2,33,127,0
2,45,127,0
2,39,127,0
2,51,127,0
2,62,127,0
2,33,127,0
2,45,127,0
2,33,127,0
2,45,127,0
2,39,127,0
2,51,127,0
2,62,127,0
2,39,127,0
2,51,127,0
2,62,127,0
2,33,127,0
2,45,127,0
2,33,127,0
2,45,127,0
2,33,127,0
2,45,127,0
2,39,127,0
2,51,127,0
2,62,127,0
2,33,127,0
2,45,127,0
2,33,127,0
2,45,127,0
2,39,127,0
2,51,127,0
2,62,127,0
2,39,127,0
2,51,127,0
2,62,127,0
2,33,127,0
2,45,127,0
2,33,127,0
2,45,127,0
2,33,127,0
2,45,127,0
2,39,127,0
2,51,127,0
2,62,127,0
2,33,127,0
2,45,127,0
2,33,127,0
2,45,127,0
2,39,127,0
2,51,127,0
2,62,127,0
2,39,127,0
2,51,127,0
2,62,127,0
2,33,127,0
2,45,127,0
2,33,127,0
2,45,127,0
2,33,127,0
2,45,127,0
2,39,127,0
2,51,127,0
2,62,127,0
2,33,127,0
2,45,127,0
2,33,127,0
2,45,127,0
2,39,127,0
2,51,127,0
2,62,127,0
2,39,127,0
2,51,127,0
2,62,127,0
2,33,127,0
2,45,127,0
2,33,127,0
2,45,127,0
2,33,127,0
2,45,127,0
2,39,127,0
2,51,127,0
2,62,127,0
2,33,127,0
2,45,127,0
2,33,127,0
2,45,127,0
2,39,127,0
2,51,127,0
2,62,127,0
2,39,127,0
2,51,127,0
2,62,127,0
2,33,127,0
2,45,127,0
2,33,127,0
2,45,127,0
2,33,127,0
2,45,127,0
2,33,127,0
2,40,127,0
2,45,127,0
2,40,127,0
2,47,127,0
2,52,127,0
2,36,127,0
2,43,127,0
2,48,127,0
2,34,127,0
2,41,127,0
2,46,127,0
2,34,127,0
2,41,127,0
2,46,127,0
2,33,127,0
2,40,127,0
2,45,127,0
2,40,127,0
2,47,127,0
2,52,127,0
2,36,127,0
2,43,127,0
2,48,127,0
2,39,127,0
2,46,127,0
2,51,127,0
2,39,127,0
2,46,127,0
2,51,127,0
2,33,127,0
2,40,127,0
2,45,127,0
2,40,127,0
2,47,127,0
2,52,127,0
2,36,127,0
2,43,127,0
2,48,127,0
2,34,127,0
2,41,127,0
2,46,127,0
2,34,127,0
2,41,127,0
2,46,127,0
2,33,127,0
2,40,127,0
2,45,127,0
2,40,127,0
2,47,127,0
2,52,127,0
2,36,127,0
2,43,127,0
2,48,127,0
2,39,127,0
2,46,127,0
2,51,127,0
2,39,127,0
2,46,127,0
2,51,127,0
2,33,127,0
2,40,127,0
2,45,127,0
3,33,127,5376
3,45,127,0
3,33,127,0
3,45,127,0
3,33,127,0
3,45,127,0
3,39,127,0
3,51,127,0
3,62,127,0
3,33,127,0
3,45,127,0
3,33,127,0
3,45,127,0
3,39,127,0
3,51,127,0
3,62,127,0
3,39,127,0
3,51,127,0
3,62,127,0
3,33,127,0
3,45,127,0
3,33,127,0
3,45,127,0
3,33,127,0
3,45,127,0
3,39,127,0
3,51,127,0
3,62,127,0
3,33,127,0
3,45,127,0
3,33,127,0
3,45,127,0
3,39,127,0
3,51,127,0
3,62,127,0
3,39,127,0
3,51,127,0
3,62,127,0
3,33,127,0
3,45,127,0
3,33,127,0
3,45,127,0
3,33,127,0
3,45,127,0
3,39,127,0
3,51,127,0
3,62,127,0
3,33,127,0
3,45,127,0
3,33,127,0
3,45,127,0
3,39,127,0
3,51,127,0
3,62,127,0
3,39,127,0
3,51,127,0
3,62,127,0
3,33,127,0
3,45,127,0
3,33,127,0
3,45,127,0
3,33,127,0
3,45,127,0
3,39,127,0
3,51,127,0
3,62,127,0
3,33,127,0
3,45,127,0
3,33,127,0
3,45,127,0
3,39,127,0
3,51,127,0
3,62,127,0
3,39,127,0
3,51,127,0
3,62,127,0
3,33,127,0
3,45,127,0
3,33,127,0
3,45,127,0
3,33,127,0
3,45,127,0
3,39,127,0
3,51,127,0
3,62,127,0
3,33,127,0
3,45,127,0
3,33,127,0
3,45,127,0
3,39,127,0
3,51,127,0
3,62,127,0
3,39,127,0
3,51,127,0
3,62,127,0
3,33,127,0
3,45,127,0
3,33,127,0
3,45,127,0
3,33,127,0
3,45,127,0
3,39,127,0
3,51,127,0
3,62,127,0
3,33,127,0
3,45,127,0
3,33,127,0
3,45,127,0
3,39,127,0
3,51,127,0
3,62,127,0
3,39,127,0
3,51,127,0
3,62,127,0
3,33,127,0
3,45,127,0
3,33,127,0
3,45,127,0
3,33,127,0
3,45,127,0
3,39,127,0
3,51,127,0
3,62,127,0
3,33,127,0
3,45,127,0
3,33,127,0
3,45,127,0
3,39,127,0
3,51,127,0
3,62,127,0
3,39,127,0
3,51,127,0
3,62,127,0
3,33,127,0
3,45,127,0
3,33,127,0
3,45,127,0
3,33,127,0
3,45,127,0
3,39,127,0
3,51,127,0
3,62,127,0
3,33,127,0
3,45,127,0
3,33,127,0
3,45,127,0
3,39,127,0
3,51,127,0
3,62,127,0
3,39,127,0
3,51,127,0
3,62,127,0
3,33,127,0
3,45,127,0
3,33,127,0
3,45,127,0
3,68,127,864
3,68,127,0
3,68,127,0
3,68,127,0
3,68,127,0
3,68,127,0
3,68,127,0
3,68,127,0
3,68,127,0
3,68,127,0
3,68,127,0
3,68,127,0
3,68,127,0
3,68,127,0
3,68,127,0
3,68,127,0
3,68,127,0
3,68,127,0
3,68,127,480
3,68,127,0
3,68,127,0
3,68,127,0
3,68,127,0
3,68,127,0
3,68,127,0
3,68,127,0
3,68,127,0
3,68,127,0
3,68,127,0
3,68,127,0
3,68,127,0
3,68,127,0
3,68,127,0
3,68,127,0
3,68,127,0
3,68,127,0
3,68,127,480
3,68,127,0
3,68,127,0
3,68,127,0
3,68,127,0
3,68,127,0
3,68,127,0
3,68,127,0
3,68,127,0
3,68,127,0
3,68,127,0
3,68,127,0
3,68,127,0
3,68,127,0
3,68,127,0
3,68,127,0
3,68,127,0
3,68,127,0
3,33,127,1104
3,45,127,0
3,39,127,0
3,51,127,0
3,62,127,0
3,33,127,0
3,45,127,0
3,33,127,0
3,45,127,0
3,39,127,0
3,51,127,0
3,62,127,0
3,39,127,0
3,51,127,0
3,62,127,0
3,33,127,0
3,45,127,0
3,33,127,0
3,45,127,0
3,33,127,0
3,45,127,0
3,39,127,0
3,51,127,0
3,62,127,0
3,33,127,0
3,45,127,0
3,33,127,0
3,45,127,0
3,39,127,0
3,51,127,0
3,62,127,0
3,39,127,0
3,51,127,0
3,62,127,0
3,33,127,0
3,45,127,0
3,33,127,0
3,45,127,0
3,33,127,0
3,45,127,0
3,39,127,0
3,51,127,0
3,62,127,0
3,33,127,0
3,45,127,0
3,33,127,0
3,45,127,0
3,39,127,0
