track,note,velocity,time
1,43,127,5760
1,48,127,0
1,48,0,60
1,43,0,0
1,44,127,0
1,49,127,0
1,49,0,60
1,44,0,0
1,44,127,60
1,49,127,0
1,49,0,60
1,44,0,0
1,50,127,0
1,45,127,0
1,45,0,60
1,50,0,0
1,50,127,60
1,45,127,0
1,45,0,60
1,50,0,0
1,46,127,0
1,51,127,0
1,51,0,60
1,46,0,0
1,46,127,60
1,51,127,0
1,51,0,60
1,46,0,0
1,47,127,0
1,52,127,0
1,52,0,60
1,47,0,0
1,46,127,60
1,51,127,0
1,51,0,60
1,46,0,0
1,47,127,0
1,52,127,0
1,52,0,60
1,47,0,0
1,47,127,0
1,52,127,0
1,52,0,60
1,47,0,0
1,48,127,0
1,53,127,0
1,53,0,60
1,48,0,0
1,43,127,0
1,48,127,0
1,48,0,60
1,43,0,0
1,44,127,0
1,49,127,0
1,49,0,60
1,44,0,0
1,44,127,60
1,49,127,0
1,49,0,60
1,44,0,0
1,50,127,0
1,45,127,0
1,45,0,60
1,50,0,0
1,50,127,60
1,45,127,0
1,45,0,60
1,50,0,0
1,46,127,0
1,51,127,0
1,51,0,60
1,46,0,0
1,46,127,60
1,51,127,0
1,51,0,60
1,46,0,0
1,47,127,0
1,52,127,0
1,52,0,60
1,47,0,0
1,46,127,60
1,51,127,0
1,51,0,60
1,46,0,0
1,47,127,0
1,52,127,0
1,52,0,60
1,47,0,0
1,47,127,0
1,52,127,0
1,52,0,60
1,47,0,0
1,48,127,0
1,53,127,0
1,53,0,60
1,48,0,0
1,43,127,0
1,48,127,0
1,48,0,60
1,43,0,0
1,44,127,0
1,49,127,0
1,49,0,60
1,44,0,0
1,44,127,60
1,49,127,0
1,49,0,60
1,44,0,0
1,50,127,0
1,45,127,0
1,45,0,60
1,50,0,0
1,50,127,60
1,45,127,0
1,45,0,60
1,50,0,0
1,46,127,0
1,51,127,0
1,51,0,60
1,46,0,0
1,46,127,60
1,51,127,0
1,51,0,60
1,46,0,0
1,47,127,0
1,52,127,0
1,52,0,60
1,47,0,0
1,46,127,60
1,51,127,0
1,51,0,60
1,46,0,0
1,47,127,0
1,52,127,0
1,52,0,60
1,47,0,0
1,47,127,0
1,52,127,0
1,52,0,60
1,47,0,0
1,48,127,0
1,53,127,0
1,53,0,60
1,48,0,0
1,43,127,0
1,48,127,0
1,48,0,60
1,43,0,0
1,44,127,0
1,49,127,0
1,49,0,60
1,44,0,0
1,44,127,60
1,49,127,0
1,49,0,60
1,44,0,0
1,50,127,0
1,45,127,0
1,45,0,60
1,50,0,0
1,50,127,60
1,45,127,0
1,45,0,60
1,50,0,0
1,46,127,0
1,51,127,0
1,51,0,60
1,46,0,0
1,46,127,60
1,51,127,0
1,51,0,60
1,46,0,0
1,47,127,0
1,52,127,0
1,52,0,60
1,47,0,0
1,46,127,60
1,51,127,0
1,51,0,60
1,46,0,0
1,47,127,0
1,52,127,0
1,52,0,60
1,47,0,0
1,47,127,0
1,52,127,0
1,52,0,60
1,47,0,0
1,48,127,0
1,53,127,0
1,53,0,60
1,48,0,0
1,48,127,0
1,43,127,0
1,43,0,60
1,48,0,0
1,44,127,0
1,49,127,0
1,49,0,60
1,44,0,0
1,44,127,60
1,49,127,0
1,49,0,60
1,44,0,0
1,50,127,0
1,45,127,0
1,45,0,60
1,50,0,0
1,50,127,60
1,45,127,0
1,45,0,60
1,50,0,0
1,46,127,0
1,51,127,0
1,51,0,60
1,46,0,0
1,46,127,60
1,51,127,0
1,51,0,60
1,46,0,0
1,47,127,0
1,52,127,0
1,52,0,60
1,47,0,0
1,46,127,60
1,51,127,0
1,51,0,60
1,46,0,0
1,47,127,0
1,52,127,0
1,52,0,60
1,47,0,0
1,47,127,0
1,52,127,0
1,52,0,60
1,47,0,0
1,48,127,0
1,53,127,0
1,53,0,60
1,48,0,0
1,48,127,0
1,43,127,0
1,43,0,60
1,48,0,0
1,44,127,0
1,49,127,0
1,49,0,60
1,44,0,0
1,44,127,60
1,49,127,0
1,49,0,60
1,44,0,0
1,50,127,0
1,45,127,0
1,45,0,60
1,50,0,0
1,50,127,60
1,45,127,0
1,45,0,60
1,50,0,0
1,46,127,0
1,51,127,0
1,51,0,60
1,46,0,0
1,46,127,60
1,51,127,0
1,51,0,60
1,46,0,0
1,47,127,0
1,52,127,0
1,52,0,60
1,47,0,0
1,46,127,60
1,51,127,0
1,51,0,60
1,46,0,0
1,47,127,0
1,52,127,0
1,52,0,60
1,47,0,0
1,47,127,0
1,52,127,0
1,52,0,60
1,47,0,0
1,48,127,0
1,53,127,0
1,53,0,60
1,48,0,0
1,48,127,0
1,43,127,0
1,43,0,60
1,48,0,0
1,44,127,0
1,49,127,0
1,49,0,60
1,44,0,0
1,44,127,60
1,49,127,0
1,49,0,60
1,44,0,0
1,50,127,0
1,45,127,0
1,45,0,60
1,50,0,0
1,50,127,60
1,45,127,0
1,45,0,60
1,50,0,0
1,46,127,0
1,51,127,0
1,51,0,60
1,46,0,0
1,46,127,60
1,51,127,0
1,51,0,60
1,46,0,0
1,47,127,0
1,52,127,0
1,52,0,60
1,47,0,0
1,46,127,60
1,51,127,0
1,51,0,60
1,46,0,0
1,47,127,0
1,52,127,0
1,52,0,60
1,47,0,0
1,47,127,0
1,52,127,0
1,52,0,60
1,47,0,0
1,48,127,0
1,53,127,0
1,53,0,60
1,48,0,0
1,48,127,0
1,43,127,0
1,43,0,60
1,48,0,0
1,44,127,0
1,49,127,0
1,49,0,60
1,44,0,0
1,44,127,60
1,49,127,0
1,49,0,60
1,44,0,0
1,50,127,0
1,45,127,0
1,45,0,60
1,50,0,0
1,50,127,60
1,45,127,0
1,45,0,60
1,50,0,0
1,46,127,0
1,51,127,0
1,51,0,60
1,46,0,0
1,46,127,60
1,51,127,0
1,51,0,60
1,46,0,0
1,47,127,0
1,52,127,0
1,52,0,60
1,47,0,0
1,46,127,60
1,51,127,0
1,51,0,60
1,46,0,0
1,47,127,0
1,52,127,0
1,52,0,60
1,47,0,0
1,47,127,0
1,52,127,0
1,52,0,60
1,47,0,0
1,48,127,0
1,53,127,0
1,53,0,60
1,48,0,0
1,64,127,7680
1,63,127,0
1,63,0,240
1,64,0,0
1,47,127,0
1,47,0,60
1,47,127,0
1,47,0,60
1,64,127,0
1,63,127,0
1,63,0,240
1,64,0,0
1,47,127,0
1,47,0,60
1,47,127,0
1,47,0,60
1,63,127,0
1,64,127,0
1,64,0,120
1,63,0,0
1,64,127,0
1,64,0,120
1,64,127,0
1,63,127,0
1,63,0,240
1,64,0,0
1,47,127,0
1,47,0,60
1,47,127,0
1,47,0,60
1,64,127,0
1,63,127,0
1,63,0,240
1,64,0,0
1,59,127,0
1,59,0,120
1,60,127,0
1,60,0,120
1,59,127,0
1,59,0,120
1,64,127,0
1,63,127,0
1,63,0,240
1,64,0,0
1,47,127,0
1,47,0,60
1,47,127,0
1,47,0,60
1,63,127,0
1,64,127,0
1,64,0,240
1,63,0,0
1,47,127,0
1,47,0,60
1,47,127,0
1,47,0,60
1,63,127,0
1,64,127,0
1,64,0,120
1,63,0,0
1,64,127,0
1,64,0,120
1,64,127,0
1,63,127,0
1,63,0,240
1,64,0,0
1,47,127,0
1,47,0,60
1,47,127,0
1,47,0,60
1,63,127,0
1,64,127,0
1,64,0,240
1,63,0,0
1,57,127,0
1,57,0,60
1,57,127,0
1,57,0,60
1,59,127,0
1,59,0,120
1,57,127,0
1,57,0,120
1,64,127,0
1,63,127,0
1,63,0,240
1,64,0,0
1,47,127,0
1,47,0,60
1,47,127,0
1,47,0,60
1,63,127,0
1,64,127,0
1,64,0,240
1,63,0,0
1,47,127,0
1,47,0,60
1,47,127,0
1,47,0,60
1,63,127,0
1,64,127,0
1,64,0,120
1,63,0,0
1,64,127,0
1,64,0,120
1,63,127,0
1,64,127,0
1,64,0,240
1,63,0,0
1,47,127,0
1,47,0,60
1,47,127,0
1,47,0,60
1,63,127,0
1,64,127,0
1,64,0,240
1,63,0,0
1,59,127,0
1,59,0,120
1,60,127,0
1,60,0,120
1,59,127,0
1,59,0,120
1,63,127,0
1,64,127,0
1,64,0,240
1,63,0,0
1,47,127,0
1,47,0,60
1,47,127,0
1,47,0,60
1,64,127,0
1,63,127,0
1,63,0,240
1,64,0,0
1,47,127,0
1,47,0,60
1,47,127,0
1,47,0,60
1,63,127,0
1,64,127,0
1,64,0,120
1,63,0,0
1,64,127,0
1,64,0,120
1,63,127,0
1,64,127,0
1,64,0,240
1,63,0,0
1,47,127,0
1,47,0,60
1,47,127,0
1,47,0,60
1,63,127,0
1,64,127,0
1,64,0,240
1,63,0,0
1,57,127,0
1,57,0,60
1,57,127,0
1,57,0,60
1,59,127,0
1,59,0,120
1,57,127,0
1,57,0,120
1,64,127,8640
1,63,127,0
1,63,0,240
1,64,0,0
1,47,127,0
1,47,0,60
1,47,127,0
1,47,0,60
1,64,127,0
1,63,127,0
1,63,0,240
1,64,0,0
1,47,127,0
1,47,0,60
1,47,127,0
1,47,0,60
1,63,127,0
1,64,127,0
1,64,0,120
1,63,0,0
1,64,127,0
1,64,0,120
1,64,127,0
1,63,127,0
1,63,0,240
1,64,0,0
1,47,127,0
1,47,0,60
1,47,127,0
1,47,0,60
1,64,127,0
1,63,127,0
1,63,0,240
1,64,0,0
1,59,127,0
1,59,0,120
1,60,127,0
1,60,0,120
1,59,127,0
1,59,0,120
1,64,127,0
1,63,127,0
1,63,0,240
1,64,0,0
1,47,127,0
1,47,0,60
1,47,127,0
1,47,0,60
1,63,127,0
1,64,127,0
1,64,0,240
1,63,0,0
1,47,127,0
1,47,0,60
1,47,127,0
1,47,0,60
1,63,127,0
1,64,127,0
1,64,0,120
1,63,0,0
1,64,127,0
1,64,0,120
1,64,127,0
1,63,127,0
1,63,0,240
1,64,0,0
1,47,127,0
1,47,0,60
1,47,127,0
1,47,0,60
1,63,127,0
1,64,127,0
1,64,0,240
1,63,0,0
1,57,127,0
1,57,0,60
1,57,127,0
1,57,0,60
1,59,127,0
1,59,0,120
1,57,127,0
1,57,0,120
1,64,127,0
1,63,127,0
1,63,0,240
1,64,0,0
1,47,127,0
1,47,0,60
1,47,127,0
1,47,0,60
1,63,127,0
1,64,127,0
1,64,0,240
1,63,0,0
1,47,127,0
1,47,0,60
1,47,127,0
1,47,0,60
1,63,127,0
1,64,127,0
1,64,0,120
1,63,0,0
1,64,127,0
1,64,0,120
1,63,127,0
1,64,127,0
1,64,0,240
1,63,0,0
1,47,127,0
1,47,0,60
1,47,127,0
1,47,0,60
1,63,127,0
1,64,127,0
1,64,0,240
1,63,0,0
1,59,127,0
1,59,0,120
1,60,127,0
1,60,0,120
1,59,127,0
1,59,0,120
1,63,127,0
1,64,127,0
1,64,0,240
1,63,0,0
1,47,127,0
1,47,0,60
1,47,127,0
1,47,0,60
1,64,127,0
1,63,127,0
1,63,0,240
1,64,0,0
1,47,127,0
1,47,0,60
1,47,127,0
1,47,0,60
1,63,127,0
1,64,127,0
1,64,0,120
1,63,0,0
1,64,127,0
1,64,0,120
1,63,127,0
1,64,127,0
1,64,0,240
1,63,0,0
1,47,127,0
1,47,0,60
1,47,127,0
1,47,0,60
1,63,127,0
1,64,127,0
1,64,0,240
1,63,0,0
1,57,127,0
1,57,0,60
1,57,127,0
1,57,0,60
1,59,127,0
1,59,0,120
1,57,127,0
1,57,0,120
1,48,127,0
1,43,127,0
1,43,0,60
1,48,0,0
1,44,127,0
1,49,127,0
1,49,0,60
1,44,0,0
1,44,127,60
1,49,127,0
1,49,0,60
1,44,0,0
1,50,127,0
1,45,127,0
1,45,0,60
1,50,0,0
1,50,127,60
1,45,127,0
1,45,0,60
1,50,0,0
1,46,127,0
1,51,127,0
1,51,0,60
1,46,0,0
1,46,127,60
1,51,127,0
1,51,0,60
1,46,0,0
1,47,127,0
1,52,127,0
1,52,0,60
1,47,0,0
1,46,127,60
1,51,127,0
1,51,0,60
1,46,0,0
1,47,127,0
1,52,127,0
1,52,0,60
1,47,0,0
1,47,127,0
1,52,127,0
1,52,0,60
1,47,0,0
1,48,127,0
1,53,127,0
1,53,0,60
1,48,0,0
1,48,127,0
1,43,127,0
1,43,0,60
1,48,0,0
1,44,127,0
1,49,127,0
1,49,0,60
1,44,0,0
1,44,127,60
1,49,127,0
1,49,0,60
1,44,0,0
1,50,127,0
1,45,127,0
1,45,0,60
1,50,0,0
1,50,127,60
1,45,127,0
1,45,0,60
1,50,0,0
1,46,127,0
1,51,127,0
1,51,0,60
1,46,0,0
1,46,127,60
1,51,127,0
1,51,0,60
1,46,0,0
1,47,127,0
1,52,127,0
1,52,0,60
1,47,0,0
1,46,127,60
1,51,127,0
1,51,0,60
1,46,0,0
1,47,127,0
1,52,127,0
1,52,0,60
1,47,0,0
1,47,127,0
1,52,127,0
1,52,0,60
1,47,0,0
1,48,127,0
1,53,127,0
1,53,0,60
1,48,0,0
1,48,127,0
1,43,127,0
1,43,0,60
1,48,0,0
1,44,127,0
1,49,127,0
1,49,0,60
1,44,0,0
1,44,127,60
1,49,127,0
1,49,0,60
1,44,0,0
1,50,127,0
1,45,127,0
1,45,0,60
1,50,0,0
1,50,127,60
1,45,127,0
1,45,0,60
1,50,0,0
1,46,127,0
1,51,127,0
1,51,0,60
1,46,0,0
1,46,127,60
1,51,127,0
1,51,0,60
1,46,0,0
1,47,127,0
1,52,127,0
1,52,0,60
1,47,0,0
1,46,127,60
1,51,127,0
1,51,0,60
1,46,0,0
1,47,127,0
1,52,127,0
1,52,0,60
1,47,0,0
1,47,127,0
1,52,127,0
1,52,0,60
1,47,0,0
1,48,127,0
1,53,127,0
1,53,0,60
1,48,0,0
1,48,127,0
1,43,127,0
1,43,0,60
1,48,0,0
1,44,127,0
1,49,127,0
1,49,0,60
1,44,0,0
1,44,127,60
1,49,127,0
1,49,0,60
1,44,0,0
1,50,127,0
1,45,127,0
1,45,0,60
1,50,0,0
1,50,127,60
1,45,127,0
1,45,0,60
1,50,0,0
1,46,127,0
1,51,127,0
1,51,0,60
1,46,0,0
1,46,127,60
1,51,127,0
1,51,0,60
1,46,0,0
1,47,127,0
1,52,127,0
1,52,0,60
1,47,0,0
1,46,127,60
1,51,127,0
1,51,0,60
1,46,0,0
1,47,127,0
1,52,127,0
1,52,0,60
1,47,0,0
1,47,127,0
1,52,127,0
1,52,0,60
1,47,0,0
1,48,127,0
1,53,127,0
1,53,0,60
1,48,0,0
1,48,127,0
1,43,127,0
1,43,0,60
1,48,0,0
1,44,127,0
1,49,127,0
1,49,0,60
1,44,0,0
1,44,127,60
1,49,127,0
1,49,0,60
1,44,0,0
1,50,127,0
1,45,127,0
1,45,0,60
1,50,0,0
1,50,127,60
1,45,127,0
1,45,0,60
1,50,0,0
1,46,127,0
1,51,127,0
1,51,0,60
1,46,0,0
1,46,127,60
1,51,127,0
1,51,0,60
1,46,0,0
1,47,127,0
1,52,127,0
1,52,0,60
1,47,0,0
1,46,127,60
1,51,127,0
1,51,0,60
1,46,0,0
1,47,127,0
1,52,127,0
1,52,0,60
1,47,0,0
1,47,127,0
1,52,127,0
1,52,0,60
1,47,0,0
1,48,127,0
1,53,127,0
1,53,0,60
1,48,0,0
1,48,127,0
1,43,127,0
1,43,0,60
1,48,0,0
1,44,127,0
1,49,127,0
1,49,0,60
1,44,0,0
1,44,127,60
1,49,127,0
1,49,0,60
1,44,0,0
1,50,127,0
1,45,127,0
1,45,0,60
1,50,0,0
1,50,127,60
1,45,127,0
1,45,0,60
1,50,0,0
1,46,127,0
1,51,127,0
1,51,0,60
1,46,0,0
1,46,127,60
1,51,127,0
1,51,0,60
1,46,0,0
1,47,127,0
1,52,127,0
1,52,0,60
1,47,0,0
1,46,127,60
1,51,127,0
1,51,0,60
1,46,0,0
1,47,127,0
1,52,127,0
1,52,0,60
1,47,0,0
1,47,127,0
1,52,127,0
1,52,0,60
1,47,0,0
1,48,127,0
1,53,127,0
1,53,0,60
1,48,0,0
