track,note,velocity,time
1.0,62.0,100.0,3072.0
1.0,62.0,100.0,96.0
1.0,62.0,100.0,2.0
1.0,62.0,100.0,2.0
1.0,62.0,100.0,2.0
1.0,62.0,100.0,2.0
1.0,63.0,100.0,2.0
1.0,63.0,100.0,2.0
1.0,61.0,100.0,2.0
1.0,61.0,100.0,2.0
1.0,61.0,100.0,2.0
1.0,61.0,100.0,2.0
1.0,61.0,100.0,2.0
1.0,61.0,100.0,2.0
1.0,57.0,100.0,2.0
1.0,57.0,100.0,2.0
1.0,62.0,100.0,2.0
1.0,62.0,100.0,2.0
1.0,62.0,100.0,2.0
1.0,62.0,100.0,2.0
1.0,62.0,100.0,2.0
1.0,62.0,100.0,2.0
1.0,63.0,100.0,2.0
1.0,63.0,100.0,2.0
1.0,61.0,100.0,2.0
1.0,61.0,100.0,2.0
1.0,61.0,100.0,2.0
1.0,61.0,100.0,2.0
1.0,61.0,100.0,2.0
1.0,61.0,100.0,2.0
1.0,57.0,100.0,2.0
1.0,57.0,100.0,2.0
1.0,62.0,100.0,2.0
1.0,62.0,100.0,2.0
1.0,62.0,100.0,2.0
1.0,62.0,100.0,2.0
1.0,62.0,100.0,2.0
1.0,62.0,100.0,2.0
1.0,63.0,100.0,2.0
1.0,63.0,100.0,2.0
1.0,61.0,100.0,2.0
1.0,61.0,100.0,2.0
1.0,61.0,100.0,2.0
1.0,61.0,100.0,2.0
1.0,61.0,100.0,2.0
1.0,61.0,100.0,2.0
1.0,57.0,100.0,2.0
1.0,57.0,100.0,2.0
1.0,62.0,100.0,2.0
1.0,62.0,100.0,2.0
1.0,62.0,100.0,2.0
1.0,62.0,100.0,2.0
1.0,62.0,100.0,2.0
1.0,62.0,100.0,2.0
1.0,63.0,100.0,2.0
1.0,63.0,100.0,2.0
1.0,61.0,100.0,2.0
1.0,61.0,100.0,2.0
1.0,61.0,100.0,2.0
1.0,61.0,100.0,2.0
1.0,61.0,100.0,2.0
1.0,61.0,100.0,2.0
1.0,57.0,100.0,2.0
1.0,57.0,100.0,2.0
2.0,33.0,100.0,3072.0
2.0,33.0,100.0,32.0
2.0,40.0,100.0,32.0
2.0,33.0,100.0,16.0
2.0,33.0,100.0,16.0
2.0,40.0,100.0,16.0
2.0,33.0,100.0,64.0
2.0,33.0,100.0,16.0
2.0,40.0,100.0,64.0
2.0,33.0,100.0,16.0
2.0,33.0,100.0,16.0
2.0,40.0,100.0,16.0
2.0,33.0,100.0,16.0
2.0,33.0,100.0,32.0
2.0,40.0,100.0,32.0
2.0,33.0,100.0,16.0
2.0,33.0,100.0,16.0
2.0,40.0,100.0,16.0
2.0,33.0,100.0,64.0
2.0,33.0,100.0,16.0
2.0,40.0,100.0,64.0
2.0,33.0,100.0,16.0
2.0,34.0,100.0,16.0
2.0,33.0,100.0,2.0
2.0,33.0,100.0,32.0
2.0,40.0,100.0,32.0
2.0,33.0,100.0,16.0
2.0,33.0,100.0,16.0
2.0,40.0,100.0,16.0
2.0,33.0,100.0,64.0
2.0,33.0,100.0,16.0
2.0,40.0,100.0,64.0
2.0,33.0,100.0,16.0
2.0,33.0,100.0,16.0
2.0,40.0,100.0,16.0
2.0,33.0,100.0,16.0
2.0,33.0,100.0,32.0
2.0,40.0,100.0,32.0
2.0,33.0,100.0,16.0
2.0,33.0,100.0,16.0
2.0,40.0,100.0,16.0
2.0,33.0,100.0,64.0
2.0,33.0,100.0,16.0
2.0,40.0,100.0,64.0
2.0,33.0,100.0,16.0
2.0,34.0,100.0,16.0
2.0,33.0,100.0,2.0
2.0,33.0,100.0,32.0
2.0,40.0,100.0,32.0
2.0,33.0,100.0,16.0
2.0,33.0,100.0,16.0
2.0,40.0,100.0,16.0
2.0,33.0,100.0,64.0
2.0,33.0,100.0,16.0
2.0,40.0,100.0,64.0
2.0,33.0,100.0,16.0
2.0,33.0,100.0,16.0
2.0,40.0,100.0,16.0
2.0,33.0,100.0,16.0
2.0,33.0,100.0,32.0
2.0,40.0,100.0,32.0
2.0,33.0,100.0,16.0
2.0,33.0,100.0,16.0
2.0,40.0,100.0,16.0
2.0,33.0,100.0,64.0
2.0,33.0,100.0,16.0
2.0,40.0,100.0,64.0
2.0,33.0,100.0,16.0
2.0,34.0,100.0,16.0
2.0,33.0,100.0,2.0
2.0,33.0,100.0,32.0
2.0,40.0,100.0,32.0
2.0,33.0,100.0,16.0
2.0,33.0,100.0,16.0
2.0,40.0,100.0,16.0
2.0,33.0,100.0,64.0
2.0,33.0,100.0,16.0
2.0,40.0,100.0,64.0
2.0,33.0,100.0,16.0
2.0,33.0,100.0,16.0
2.0,40.0,100.0,16.0
2.0,33.0,100.0,16.0
2.0,33.0,100.0,32.0
2.0,40.0,100.0,32.0
2.0,33.0,100.0,16.0
2.0,33.0,100.0,16.0
2.0,40.0,100.0,16.0
2.0,33.0,100.0,64.0
2.0,33.0,100.0,16.0
2.0,40.0,100.0,64.0
2.0,33.0,100.0,16.0
2.0,34.0,100.0,16.0
2.0,33.0,100.0,2.0
2.0,33.0,100.0,32.0
2.0,40.0,100.0,32.0
2.0,33.0,100.0,16.0
2.0,33.0,100.0,16.0
2.0,40.0,100.0,16.0
2.0,33.0,100.0,64.0
2.0,33.0,100.0,16.0
2.0,40.0,100.0,64.0
2.0,33.0,100.0,16.0
2.0,33.0,100.0,16.0
2.0,40.0,100.0,16.0
2.0,33.0,100.0,16.0
2.0,33.0,100.0,32.0
2.0,40.0,100.0,32.0
2.0,33.0,100.0,16.0
2.0,33.0,100.0,16.0
2.0,40.0,100.0,16.0
2.0,33.0,100.0,64.0
2.0,33.0,100.0,16.0
2.0,40.0,100.0,64.0
2.0,33.0,100.0,16.0
2.0,34.0,100.0,16.0
2.0,33.0,100.0,2.0
2.0,33.0,100.0,32.0
2.0,40.0,100.0,32.0
2.0,33.0,100.0,16.0
2.0,33.0,100.0,16.0
2.0,40.0,100.0,16.0
2.0,33.0,100.0,64.0
2.0,33.0,100.0,16.0
2.0,40.0,100.0,64.0
2.0,33.0,100.0,16.0
2.0,33.0,100.0,16.0
2.0,40.0,100.0,16.0
2.0,33.0,100.0,16.0
2.0,33.0,100.0,32.0
2.0,40.0,100.0,32.0
2.0,33.0,100.0,16.0
2.0,33.0,100.0,16.0
2.0,40.0,100.0,16.0
2.0,33.0,100.0,64.0
2.0,33.0,100.0,16.0
2.0,40.0,100.0,64.0
2.0,33.0,100.0,16.0
2.0,34.0,100.0,16.0
2.0,33.0,100.0,2.0
2.0,33.0,100.0,32.0
2.0,40.0,100.0,32.0
2.0,33.0,100.0,16.0
2.0,33.0,100.0,16.0
2.0,40.0,100.0,16.0
2.0,33.0,100.0,64.0
2.0,33.0,100.0,16.0
2.0,40.0,100.0,64.0
2.0,33.0,100.0,16.0
2.0,33.0,100.0,16.0
2.0,40.0,100.0,16.0
2.0,33.0,100.0,16.0
2.0,33.0,100.0,32.0
2.0,40.0,100.0,32.0
2.0,33.0,100.0,16.0
2.0,33.0,100.0,16.0
2.0,40.0,100.0,16.0
2.0,33.0,100.0,64.0
2.0,33.0,100.0,16.0
2.0,40.0,100.0,64.0
2.0,33.0,100.0,16.0
2.0,34.0,100.0,16.0
2.0,33.0,100.0,2.0
2.0,33.0,100.0,32.0
2.0,40.0,100.0,32.0
2.0,33.0,100.0,16.0
2.0,33.0,100.0,16.0
2.0,40.0,100.0,16.0
2.0,33.0,100.0,64.0
2.0,33.0,100.0,16.0
2.0,40.0,100.0,64.0
2.0,33.0,100.0,16.0
2.0,33.0,100.0,16.0
2.0,40.0,100.0,16.0
2.0,33.0,100.0,16.0
2.0,33.0,100.0,32.0
2.0,40.0,100.0,32.0
2.0,33.0,100.0,16.0
2.0,33.0,100.0,16.0
2.0,40.0,100.0,16.0
2.0,33.0,100.0,64.0
2.0,33.0,100.0,16.0
2.0,40.0,100.0,64.0
2.0,33.0,100.0,16.0
2.0,34.0,100.0,16.0
3.0,21.0,127.0,3072.0
3.0,21.0,127.0,32.0
3.0,28.0,127.0,32.0
3.0,21.0,127.0,16.0
3.0,21.0,127.0,16.0
3.0,28.0,127.0,16.0
3.0,21.0,127.0,64.0
3.0,21.0,127.0,16.0
3.0,28.0,127.0,64.0
3.0,21.0,127.0,16.0
3.0,21.0,127.0,16.0
3.0,28.0,127.0,16.0
3.0,21.0,127.0,16.0
3.0,21.0,127.0,32.0
3.0,28.0,127.0,32.0
3.0,21.0,127.0,16.0
3.0,21.0,127.0,16.0
3.0,28.0,127.0,16.0
3.0,21.0,127.0,64.0
3.0,21.0,127.0,16.0
3.0,28.0,127.0,64.0
3.0,21.0,127.0,16.0
3.0,22.0,127.0,16.0
3.0,21.0,127.0,2.0
3.0,21.0,127.0,32.0
3.0,28.0,127.0,32.0
3.0,21.0,127.0,16.0
3.0,21.0,127.0,16.0
3.0,28.0,127.0,16.0
3.0,21.0,127.0,64.0
3.0,21.0,127.0,16.0
3.0,28.0,127.0,64.0
3.0,21.0,127.0,16.0
3.0,21.0,127.0,16.0
3.0,28.0,127.0,16.0
3.0,21.0,127.0,16.0
3.0,21.0,127.0,32.0
3.0,28.0,127.0,32.0
3.0,21.0,127.0,16.0
3.0,21.0,127.0,16.0
3.0,28.0,127.0,16.0
3.0,21.0,127.0,64.0
3.0,21.0,127.0,16.0
3.0,28.0,127.0,64.0
3.0,21.0,127.0,16.0
3.0,22.0,127.0,16.0
3.0,21.0,127.0,2.0
3.0,21.0,127.0,32.0
3.0,28.0,127.0,32.0
3.0,21.0,127.0,16.0
3.0,21.0,127.0,16.0
3.0,28.0,127.0,16.0
3.0,21.0,127.0,64.0
3.0,21.0,127.0,16.0
3.0,28.0,127.0,64.0
3.0,21.0,127.0,16.0
3.0,21.0,127.0,16.0
3.0,28.0,127.0,16.0
3.0,21.0,127.0,16.0
3.0,21.0,127.0,32.0
3.0,28.0,127.0,32.0
3.0,21.0,127.0,16.0
3.0,21.0,127.0,16.0
3.0,28.0,127.0,16.0
3.0,21.0,127.0,64.0
3.0,21.0,127.0,16.0
3.0,28.0,127.0,64.0
3.0,21.0,127.0,16.0
3.0,22.0,127.0,16.0
3.0,21.0,127.0,2.0
3.0,21.0,127.0,32.0
3.0,28.0,127.0,32.0
3.0,21.0,127.0,16.0
3.0,21.0,127.0,16.0
3.0,28.0,127.0,16.0
3.0,21.0,127.0,64.0
3.0,21.0,127.0,16.0
3.0,28.0,127.0,64.0
3.0,21.0,127.0,16.0
3.0,21.0,127.0,16.0
3.0,28.0,127.0,16.0
3.0,21.0,127.0,16.0
3.0,21.0,127.0,32.0
3.0,28.0,127.0,32.0
3.0,21.0,127.0,16.0
3.0,21.0,127.0,16.0
3.0,28.0,127.0,16.0
3.0,21.0,127.0,64.0
3.0,21.0,127.0,16.0
3.0,28.0,127.0,64.0
3.0,21.0,127.0,16.0
3.0,22.0,127.0,16.0
3.0,21.0,127.0,2.0
3.0,21.0,127.0,32.0
3.0,28.0,127.0,32.0
3.0,21.0,127.0,16.0
3.0,21.0,127.0,16.0
3.0,28.0,127.0,16.0
3.0,21.0,127.0,64.0
3.0,21.0,127.0,16.0
3.0,28.0,127.0,64.0
3.0,21.0,127.0,16.0
3.0,21.0,127.0,16.0
3.0,28.0,127.0,16.0
3.0,21.0,127.0,16.0
3.0,21.0,127.0,32.0
3.0,28.0,127.0,32.0
3.0,21.0,127.0,16.0
3.0,21.0,127.0,16.0
3.0,28.0,127.0,16.0
3.0,21.0,127.0,64.0
3.0,21.0,127.0,16.0
3.0,28.0,127.0,64.0
3.0,21.0,127.0,16.0
3.0,22.0,127.0,16.0
3.0,21.0,127.0,2.0
3.0,21.0,127.0,32.0
3.0,28.0,127.0,32.0
3.0,21.0,127.0,16.0
3.0,21.0,127.0,16.0
3.0,28.0,127.0,16.0
3.0,21.0,127.0,64.0
3.0,21.0,127.0,16.0
3.0,28.0,127.0,64.0
3.0,21.0,127.0,16.0
3.0,21.0,127.0,16.0
3.0,28.0,127.0,16.0
3.0,21.0,127.0,16.0
3.0,21.0,127.0,32.0
3.0,28.0,127.0,32.0
3.0,21.0,127.0,16.0
3.0,21.0,127.0,16.0
3.0,28.0,127.0,16.0
3.0,21.0,127.0,64.0
3.0,21.0,127.0,16.0
3.0,28.0,127.0,64.0
3.0,21.0,127.0,16.0
3.0,22.0,127.0,16.0
3.0,21.0,127.0,2.0
3.0,21.0,127.0,32.0
3.0,28.0,127.0,32.0
3.0,21.0,127.0,16.0
3.0,21.0,127.0,16.0
3.0,28.0,127.0,16.0
3.0,21.0,127.0,64.0
3.0,21.0,127.0,16.0
3.0,28.0,127.0,64.0
3.0,21.0,127.0,16.0
3.0,21.0,127.0,16.0
3.0,28.0,127.0,16.0
3.0,33.0,127.0,16.0
3.0,33.0,127.0,32.0
3.0,40.0,127.0,32.0
3.0,33.0,127.0,16.0
3.0,33.0,127.0,16.0
3.0,40.0,127.0,16.0
3.0,33.0,127.0,64.0
3.0,33.0,127.0,16.0
3.0,40.0,127.0,64.0
3.0,33.0,127.0,16.0
3.0,34.0,127.0,16.0
3.0,33.0,127.0,2.0
3.0,33.0,127.0,32.0
3.0,40.0,127.0,32.0
3.0,33.0,127.0,16.0
3.0,33.0,127.0,16.0
3.0,40.0,127.0,16.0
3.0,33.0,127.0,64.0
3.0,33.0,127.0,16.0
3.0,40.0,127.0,64.0
3.0,33.0,127.0,16.0
3.0,33.0,127.0,16.0
3.0,40.0,127.0,16.0
3.0,33.0,127.0,16.0
3.0,33.0,127.0,32.0
3.0,40.0,127.0,32.0
3.0,33.0,127.0,16.0
3.0,33.0,127.0,16.0
3.0,40.0,127.0,16.0
3.0,33.0,127.0,64.0
3.0,33.0,127.0,16.0
3.0,40.0,127.0,64.0
3.0,33.0,127.0,16.0
3.0,34.0,127.0,16.0
4.0,33.0,100.0,9216.0
4.0,33.0,100.0,32.0
4.0,40.0,100.0,32.0
4.0,33.0,100.0,16.0
4.0,33.0,100.0,16.0
4.0,40.0,100.0,16.0
4.0,33.0,100.0,64.0
4.0,33.0,100.0,16.0
4.0,40.0,100.0,64.0
4.0,33.0,100.0,16.0
4.0,33.0,100.0,16.0
4.0,40.0,100.0,16.0
4.0,33.0,100.0,16.0
4.0,33.0,100.0,32.0
4.0,40.0,100.0,32.0
4.0,33.0,100.0,16.0
4.0,33.0,100.0,16.0
4.0,40.0,100.0,16.0
4.0,33.0,100.0,64.0
4.0,33.0,100.0,16.0
4.0,40.0,100.0,64.0
4.0,33.0,100.0,16.0
4.0,34.0,100.0,16.0
4.0,33.0,100.0,2.0
4.0,33.0,100.0,32.0
4.0,40.0,100.0,32.0
4.0,33.0,100.0,16.0
4.0,33.0,100.0,16.0
4.0,40.0,100.0,16.0
4.0,33.0,100.0,64.0
4.0,33.0,100.0,16.0
4.0,40.0,100.0,64.0
4.0,33.0,100.0,16.0
4.0,33.0,100.0,16.0
4.0,40.0,100.0,16.0
4.0,33.0,100.0,16.0
4.0,33.0,100.0,32.0
4.0,40.0,100.0,32.0
4.0,33.0,100.0,16.0
4.0,33.0,100.0,16.0
4.0,40.0,100.0,16.0
4.0,33.0,100.0,64.0
4.0,33.0,100.0,16.0
4.0,40.0,100.0,64.0
4.0,33.0,100.0,16.0
4.0,34.0,100.0,16.0
4.0,33.0,100.0,2.0
4.0,33.0,100.0,32.0
4.0,40.0,100.0,32.0
4.0,33.0,100.0,16.0
4.0,33.0,100.0,16.0
4.0,40.0,100.0,16.0
4.0,33.0,100.0,64.0
4.0,33.0,100.0,16.0
4.0,40.0,100.0,64.0
4.0,33.0,100.0,16.0
4.0,33.0,100.0,16.0
4.0,40.0,100.0,16.0
4.0,33.0,100.0,16.0
4.0,33.0,100.0,32.0
4.0,40.0,100.0,32.0
4.0,33.0,100.0,16.0
4.0,33.0,100.0,16.0
4.0,40.0,100.0,16.0
4.0,33.0,100.0,64.0
4.0,33.0,100.0,16.0
4.0,40.0,100.0,64.0
4.0,33.0,100.0,16.0
4.0,34.0,100.0,16.0
4.0,33.0,100.0,2.0
4.0,33.0,100.0,32.0
4.0,40.0,100.0,32.0
4.0,33.0,100.0,16.0
4.0,33.0,100.0,16.0
4.0,40.0,100.0,16.0
4.0,33.0,100.0,64.0
4.0,33.0,100.0,16.0
4.0,40.0,100.0,64.0
4.0,33.0,100.0,16.0
4.0,33.0,100.0,16.0
4.0,40.0,100.0,16.0
4.0,33.0,100.0,16.0
4.0,33.0,100.0,32.0
4.0,40.0,100.0,32.0
4.0,33.0,100.0,16.0
4.0,33.0,100.0,16.0
4.0,40.0,100.0,16.0
4.0,33.0,100.0,64.0
4.0,33.0,100.0,16.0
4.0,40.0,100.0,64.0
4.0,33.0,100.0,16.0
4.0,34.0,100.0,16.0
6.0,46.0,127.0,0.0
6.0,36.0,127.0,0.0
6.0,46.0,127.0,32.0
6.0,36.0,127.0,0.0
6.0,46.0,127.0,32.0
6.0,40.0,127.0,0.0
6.0,36.0,127.0,16.0
6.0,46.0,127.0,16.0
6.0,36.0,127.0,0.0
6.0,40.0,127.0,16.0
6.0,46.0,127.0,16.0
6.0,36.0,127.0,48.0
6.0,46.0,127.0,16.0
6.0,36.0,127.0,0.0
6.0,46.0,127.0,32.0
6.0,40.0,127.0,0.0
6.0,36.0,127.0,16.0
6.0,46.0,127.0,16.0
6.0,36.0,127.0,0.0
6.0,40.0,127.0,16.0
6.0,46.0,127.0,16.0
6.0,36.0,127.0,0.0
6.0,46.0,127.0,32.0
6.0,36.0,127.0,0.0
6.0,46.0,127.0,32.0
6.0,40.0,127.0,0.0
6.0,36.0,127.0,16.0
6.0,46.0,127.0,16.0
6.0,36.0,127.0,0.0
6.0,40.0,127.0,16.0
6.0,46.0,127.0,16.0
6.0,36.0,127.0,48.0
6.0,46.0,127.0,16.0
6.0,36.0,127.0,0.0
6.0,46.0,127.0,32.0
6.0,40.0,127.0,0.0
6.0,36.0,127.0,16.0
6.0,46.0,127.0,16.0
6.0,36.0,127.0,0.0
6.0,40.0,127.0,16.0
6.0,46.0,127.0,16.0
6.0,36.0,127.0,0.0
6.0,46.0,127.0,32.0
6.0,36.0,127.0,0.0
6.0,46.0,127.0,32.0
6.0,40.0,127.0,0.0
6.0,36.0,127.0,16.0
6.0,46.0,127.0,16.0
6.0,36.0,127.0,0.0
6.0,40.0,127.0,16.0
6.0,46.0,127.0,16.0
6.0,36.0,127.0,48.0
6.0,46.0,127.0,16.0
6.0,36.0,127.0,0.0
6.0,46.0,127.0,32.0
6.0,40.0,127.0,0.0
6.0,36.0,127.0,16.0
6.0,46.0,127.0,16.0
6.0,36.0,127.0,0.0
6.0,40.0,127.0,16.0
6.0,46.0,127.0,16.0
6.0,36.0,127.0,0.0
6.0,46.0,127.0,32.0
6.0,36.0,127.0,0.0
6.0,46.0,127.0,32.0
6.0,40.0,127.0,0.0
6.0,36.0,127.0,16.0
6.0,46.0,127.0,16.0
6.0,36.0,127.0,0.0
6.0,40.0,127.0,16.0
6.0,46.0,127.0,400.0
6.0,36.0,127.0,0.0
6.0,46.0,127.0,32.0
6.0,36.0,127.0,0.0
6.0,46.0,127.0,32.0
6.0,40.0,127.0,0.0
6.0,36.0,127.0,16.0
6.0,46.0,127.0,16.0
6.0,36.0,127.0,0.0
6.0,40.0,127.0,16.0
6.0,46.0,127.0,16.0
6.0,36.0,127.0,48.0
6.0,46.0,127.0,16.0
6.0,36.0,127.0,0.0
6.0,46.0,127.0,32.0
6.0,40.0,127.0,0.0
6.0,36.0,127.0,16.0
6.0,46.0,127.0,16.0
6.0,36.0,127.0,0.0
6.0,40.0,127.0,16.0
6.0,46.0,127.0,16.0
6.0,36.0,127.0,0.0
6.0,46.0,127.0,32.0
6.0,36.0,127.0,0.0
6.0,46.0,127.0,32.0
6.0,40.0,127.0,0.0
6.0,36.0,127.0,16.0
6.0,46.0,127.0,16.0
6.0,36.0,127.0,0.0
6.0,40.0,127.0,16.0
6.0,46.0,127.0,16.0
6.0,36.0,127.0,48.0
6.0,46.0,127.0,16.0
6.0,36.0,127.0,0.0
6.0,46.0,127.0,32.0
6.0,40.0,127.0,0.0
6.0,36.0,127.0,16.0
6.0,46.0,127.0,16.0
6.0,36.0,127.0,0.0
6.0,40.0,127.0,16.0
6.0,46.0,127.0,16.0
6.0,36.0,127.0,0.0
6.0,46.0,127.0,32.0
6.0,36.0,127.0,0.0
6.0,46.0,127.0,32.0
6.0,40.0,127.0,0.0
6.0,36.0,127.0,16.0
6.0,46.0,127.0,16.0
6.0,36.0,127.0,0.0
6.0,40.0,127.0,16.0
6.0,46.0,127.0,16.0
6.0,36.0,127.0,48.0
6.0,46.0,127.0,16.0
6.0,36.0,127.0,0.0
6.0,46.0,127.0,32.0
6.0,40.0,127.0,0.0
6.0,36.0,127.0,16.0
6.0,46.0,127.0,16.0
6.0,36.0,127.0,0.0
6.0,40.0,127.0,16.0
6.0,46.0,127.0,16.0
6.0,36.0,127.0,0.0
6.0,46.0,127.0,32.0
6.0,36.0,127.0,0.0
6.0,46.0,127.0,32.0
6.0,40.0,127.0,0.0
6.0,36.0,127.0,16.0
6.0,46.0,127.0,16.0
6.0,36.0,127.0,0.0
6.0,40.0,127.0,16.0
6.0,46.0,127.0,16.0
6.0,36.0,127.0,48.0
6.0,46.0,127.0,16.0
6.0,36.0,127.0,0.0
6.0,46.0,127.0,32.0
6.0,40.0,127.0,0.0
6.0,36.0,127.0,16.0
6.0,46.0,127.0,16.0
6.0,36.0,127.0,0.0
6.0,40.0,127.0,16.0
6.0,46.0,127.0,16.0
6.0,36.0,127.0,0.0
6.0,46.0,127.0,32.0
6.0,36.0,127.0,0.0
6.0,46.0,127.0,32.0
6.0,40.0,127.0,0.0
6.0,36.0,127.0,16.0
6.0,46.0,127.0,16.0
6.0,36.0,127.0,0.0
6.0,40.0,127.0,16.0
6.0,46.0,127.0,16.0
6.0,36.0,127.0,48.0
6.0,46.0,127.0,16.0
6.0,36.0,127.0,0.0
6.0,46.0,127.0,32.0
6.0,40.0,127.0,0.0
6.0,36.0,127.0,16.0
6.0,46.0,127.0,16.0
6.0,36.0,127.0,0.0
6.0,40.0,127.0,16.0
6.0,46.0,127.0,16.0
6.0,36.0,127.0,0.0
6.0,46.0,127.0,32.0
6.0,36.0,127.0,0.0
6.0,46.0,127.0,32.0
6.0,40.0,127.0,0.0
6.0,36.0,127.0,16.0
6.0,46.0,127.0,16.0
6.0,36.0,127.0,0.0
6.0,40.0,127.0,16.0
6.0,46.0,127.0,16.0
6.0,36.0,127.0,48.0
6.0,46.0,127.0,16.0
6.0,36.0,127.0,0.0
6.0,46.0,127.0,32.0
6.0,40.0,127.0,0.0
6.0,36.0,127.0,16.0
6.0,46.0,127.0,16.0
6.0,36.0,127.0,0.0
6.0,40.0,127.0,16.0
6.0,46.0,127.0,16.0
6.0,36.0,127.0,0.0
6.0,46.0,127.0,32.0
6.0,36.0,127.0,0.0
6.0,46.0,127.0,32.0
6.0,40.0,127.0,0.0
6.0,36.0,127.0,16.0
6.0,46.0,127.0,16.0
6.0,36.0,127.0,0.0
6.0,40.0,127.0,16.0
6.0,46.0,127.0,16.0
6.0,36.0,127.0,48.0
6.0,46.0,127.0,16.0
6.0,36.0,127.0,0.0
6.0,46.0,127.0,32.0
6.0,40.0,127.0,0.0
6.0,36.0,127.0,16.0
6.0,46.0,127.0,16.0
6.0,36.0,127.0,0.0
6.0,40.0,127.0,16.0
6.0,46.0,127.0,16.0
6.0,36.0,127.0,0.0
6.0,46.0,127.0,32.0
6.0,36.0,127.0,0.0
6.0,46.0,127.0,32.0
6.0,40.0,127.0,0.0
6.0,36.0,127.0,16.0
6.0,46.0,127.0,16.0
6.0,36.0,127.0,0.0
6.0,40.0,127.0,16.0
6.0,46.0,127.0,16.0
6.0,36.0,127.0,48.0
6.0,46.0,127.0,16.0
6.0,36.0,127.0,0.0
6.0,46.0,127.0,32.0
6.0,40.0,127.0,0.0
6.0,36.0,127.0,16.0
6.0,46.0,127.0,16.0
6.0,36.0,127.0,0.0
6.0,40.0,127.0,16.0
6.0,46.0,127.0,16.0
6.0,36.0,127.0,0.0
6.0,46.0,127.0,32.0
6.0,36.0,127.0,0.0
6.0,46.0,127.0,32.0
6.0,40.0,127.0,0.0
6.0,36.0,127.0,16.0
6.0,46.0,127.0,16.0
6.0,36.0,127.0,0.0
6.0,40.0,127.0,16.0
6.0,46.0,127.0,16.0
6.0,36.0,127.0,48.0
6.0,46.0,127.0,16.0
6.0,36.0,127.0,0.0
6.0,46.0,127.0,32.0
6.0,40.0,127.0,0.0
6.0,36.0,127.0,16.0
6.0,46.0,127.0,16.0
6.0,36.0,127.0,0.0
6.0,40.0,127.0,16.0
6.0,46.0,127.0,16.0
6.0,36.0,127.0,0.0
6.0,46.0,127.0,32.0
6.0,36.0,127.0,0.0
6.0,46.0,127.0,32.0
6.0,40.0,127.0,0.0
6.0,36.0,127.0,16.0
6.0,46.0,127.0,16.0
6.0,36.0,127.0,0.0
6.0,40.0,127.0,16.0
6.0,46.0,127.0,16.0
6.0,36.0,127.0,48.0
6.0,46.0,127.0,16.0
6.0,36.0,127.0,0.0
6.0,46.0,127.0,32.0
6.0,40.0,127.0,0.0
6.0,36.0,127.0,16.0
6.0,46.0,127.0,16.0
6.0,36.0,127.0,0.0
6.0,40.0,127.0,16.0
6.0,46.0,127.0,16.0
6.0,36.0,127.0,0.0
6.0,46.0,127.0,32.0
6.0,36.0,127.0,0.0
6.0,46.0,127.0,32.0
6.0,40.0,127.0,0.0
6.0,36.0,127.0,16.0
6.0,46.0,127.0,16.0
6.0,36.0,127.0,0.0
6.0,40.0,127.0,16.0
6.0,46.0,127.0,16.0
6.0,36.0,127.0,48.0
6.0,46.0,127.0,16.0
6.0,36.0,127.0,0.0
6.0,46.0,127.0,32.0
6.0,40.0,127.0,0.0
6.0,36.0,127.0,16.0
6.0,46.0,127.0,16.0
6.0,36.0,127.0,0.0
6.0,40.0,127.0,16.0
6.0,46.0,127.0,16.0
6.0,36.0,127.0,0.0
6.0,46.0,127.0,32.0
6.0,36.0,127.0,0.0
6.0,46.0,127.0,32.0
6.0,40.0,127.0,0.0
6.0,36.0,127.0,16.0
6.0,46.0,127.0,16.0
6.0,36.0,127.0,0.0
6.0,40.0,127.0,16.0
6.0,46.0,127.0,16.0
6.0,36.0,127.0,48.0
6.0,46.0,127.0,16.0
6.0,36.0,127.0,0.0
6.0,46.0,127.0,32.0
6.0,40.0,127.0,0.0
6.0,36.0,127.0,16.0
6.0,46.0,127.0,16.0
6.0,36.0,127.0,0.0
6.0,40.0,127.0,16.0
6.0,46.0,127.0,16.0
6.0,36.0,127.0,0.0
6.0,46.0,127.0,32.0
6.0,36.0,127.0,0.0
6.0,46.0,127.0,32.0
6.0,40.0,127.0,0.0
6.0,36.0,127.0,16.0
6.0,46.0,127.0,16.0
6.0,36.0,127.0,0.0
6.0,40.0,127.0,16.0
6.0,46.0,127.0,16.0
6.0,36.0,127.0,48.0
6.0,46.0,127.0,16.0
6.0,36.0,127.0,0.0
6.0,46.0,127.0,32.0
6.0,40.0,127.0,0.0
6.0,36.0,127.0,16.0
6.0,46.0,127.0,16.0
6.0,36.0,127.0,0.0
6.0,40.0,127.0,16.0
6.0,46.0,127.0,16.0
6.0,36.0,127.0,0.0
6.0,46.0,127.0,32.0
6.0,36.0,127.0,0.0
6.0,46.0,127.0,32.0
6.0,40.0,127.0,0.0
6.0,36.0,127.0,16.0
6.0,46.0,127.0,16.0
6.0,36.0,127.0,0.0
6.0,40.0,127.0,16.0
6.0,46.0,127.0,16.0
6.0,36.0,127.0,48.0
6.0,46.0,127.0,16.0
6.0,36.0,127.0,0.0
6.0,46.0,127.0,32.0
6.0,40.0,127.0,0.0
6.0,36.0,127.0,16.0
6.0,46.0,127.0,16.0
6.0,36.0,127.0,0.0
6.0,40.0,127.0,16.0
6.0,46.0,127.0,16.0
6.0,36.0,127.0,0.0
6.0,46.0,127.0,32.0
6.0,36.0,127.0,0.0
6.0,46.0,127.0,32.0
6.0,40.0,127.0,0.0
6.0,36.0,127.0,16.0
6.0,46.0,127.0,16.0
6.0,36.0,127.0,0.0
6.0,40.0,127.0,16.0
6.0,46.0,127.0,16.0
6.0,36.0,127.0,48.0
6.0,46.0,127.0,16.0
6.0,36.0,127.0,0.0
6.0,46.0,127.0,32.0
6.0,40.0,127.0,0.0
6.0,36.0,127.0,16.0
6.0,46.0,127.0,16.0
6.0,36.0,127.0,0.0
6.0,40.0,127.0,16.0
6.0,46.0,127.0,16.0
6.0,36.0,127.0,0.0
6.0,46.0,127.0,32.0
6.0,36.0,127.0,0.0
6.0,46.0,127.0,32.0
6.0,40.0,127.0,0.0
6.0,36.0,127.0,16.0
6.0,46.0,127.0,16.0
6.0,36.0,127.0,0.0
6.0,40.0,127.0,16.0
6.0,46.0,127.0,16.0
6.0,36.0,127.0,48.0
6.0,46.0,127.0,16.0
6.0,36.0,127.0,0.0
6.0,46.0,127.0,32.0
6.0,40.0,127.0,0.0
6.0,36.0,127.0,16.0
6.0,46.0,127.0,16.0
6.0,36.0,127.0,0.0
6.0,40.0,127.0,16.0
0.0,0.0,0.0,0.0
0.0,0.0,0.0,0.0
0.0,0.0,0.0,0.0
0.0,0.0,0.0,0.0
0.0,0.0,0.0,0.0
0.0,0.0,0.0,0.0
0.0,0.0,0.0,0.0
0.0,0.0,0.0,0.0
0.0,0.0,0.0,0.0
0.0,0.0,0.0,0.0
0.0,0.0,0.0,0.0
0.0,0.0,0.0,0.0
0.0,0.0,0.0,0.0
0.0,0.0,0.0,0.0
0.0,0.0,0.0,0.0
0.0,0.0,0.0,0.0
0.0,0.0,0.0,0.0
0.0,0.0,0.0,0.0
0.0,0.0,0.0,0.0
0.0,0.0,0.0,0.0
0.0,0.0,0.0,0.0
0.0,0.0,0.0,0.0
0.0,0.0,0.0,0.0
0.0,0.0,0.0,0.0
0.0,0.0,0.0,0.0
0.0,0.0,0.0,0.0
0.0,0.0,0.0,0.0
0.0,0.0,0.0,0.0
0.0,0.0,0.0,0.0
0.0,0.0,0.0,0.0
0.0,0.0,0.0,0.0
0.0,0.0,0.0,0.0
0.0,0.0,0.0,0.0
0.0,0.0,0.0,0.0
0.0,0.0,0.0,0.0
0.0,0.0,0.0,0.0
0.0,0.0,0.0,0.0
0.0,0.0,0.0,0.0
0.0,0.0,0.0,0.0
0.0,0.0,0.0,0.0
0.0,0.0,0.0,0.0
0.0,0.0,0.0,0.0
0.0,0.0,0.0,0.0
0.0,0.0,0.0,0.0
0.0,0.0,0.0,0.0
0.0,0.0,0.0,0.0
0.0,0.0,0.0,0.0
0.0,0.0,0.0,0.0
0.0,0.0,0.0,0.0
0.0,0.0,0.0,0.0
0.0,0.0,0.0,0.0
0.0,0.0,0.0,0.0
0.0,0.0,0.0,0.0
0.0,0.0,0.0,0.0
0.0,0.0,0.0,0.0
0.0,0.0,0.0,0.0
0.0,0.0,0.0,0.0
0.0,0.0,0.0,0.0
0.0,0.0,0.0,0.0
0.0,0.0,0.0,0.0
0.0,0.0,0.0,0.0
0.0,0.0,0.0,0.0
0.0,0.0,0.0,0.0
0.0,0.0,0.0,0.0
0.0,0.0,0.0,0.0
0.0,0.0,0.0,0.0
0.0,0.0,0.0,0.0
0.0,0.0,0.0,0.0
0.0,0.0,0.0,0.0
0.0,0.0,0.0,0.0
0.0,0.0,0.0,0.0
0.0,0.0,0.0,0.0
0.0,0.0,0.0,0.0
0.0,0.0,0.0,0.0
0.0,0.0,0.0,0.0
0.0,0.0,0.0,0.0
0.0,0.0,0.0,0.0
0.0,0.0,0.0,0.0
0.0,0.0,0.0,0.0
0.0,0.0,0.0,0.0
0.0,0.0,0.0,0.0
0.0,0.0,0.0,0.0
0.0,0.0,0.0,0.0
0.0,0.0,0.0,0.0
0.0,0.0,0.0,0.0
0.0,0.0,0.0,0.0
