track,note,velocity,time
0,67,67,170
0,67,0,16
0,69,70,0
0,69,0,16
0,71,66,0
0,47,75,0
0,48,7,0
0,71,0,16
0,72,71,0
0,48,0,6
0,47,0,4
0,72,0,6
0,31,75,0
0,74,68,0
0,47,75,0
0,74,0,16
0,76,69,0
0,47,0,10
0,31,0,5
0,76,0,1
0,33,75,0
0,77,71,0
0,45,75,0
0,77,0,16
0,79,71,0
0,45,0,8
0,79,0,8
0,81,71,0
0,45,75,0
0,81,0,16
0,83,66,0
0,45,0,10
0,83,0,6
0,84,64,0
0,43,75,0
0,84,0,16
0,86,64,0
0,43,0,11
0,48,53,1
0,33,0,2
0,64,57,1
0,60,61,0
0,86,0,1
0,36,79,0
0,76,57,0
0,64,28,0
0,64,79,0
0,48,61,0
0,55,70,0
0,36,61,0
0,60,88,0
0,49,57,0
0,57,70,0
0,36,75,0
0,64,0,2
0,64,53,0
0,64,75,0
0,60,0,1
0,60,61,0
0,55,53,0
0,88,62,13
0,60,0,11
0,55,0,5
0,64,0,0
0,64,61,64
0,55,61,0
0,60,61,0
0,42,70,0
0,36,0,1
0,60,0,19
0,55,0,5
0,64,0,0
0,42,0,2
0,64,61,69
0,55,57,0
0,60,61,0
0,42,70,0
0,60,0,14
0,42,0,1
0,55,0,4
0,64,0,0
0,48,0,6
0,64,0,30
0,36,0,9
0,31,61,0
0,43,61,0
0,36,79,0
0,48,0,1
0,36,0,13
0,24,70,18
0,64,88,0
0,55,88,0
0,60,88,0
0,48,61,0
0,36,88,0
0,42,79,0
0,38,105,0
0,64,61,3
0,31,0,3
0,43,0,2
0,57,0,7
0,49,0,6
0,42,0,1
0,60,0,21
0,64,0,1
0,55,0,0
0,79,57,36
0,67,49,2
0,67,85,2
0,26,61,3
0,91,73,0
0,64,79,0
0,67,88,0
0,55,70,0
0,60,88,0
0,42,61,0
0,64,0,2
0,24,0,0
0,64,0,1
0,76,0,2
0,48,0,7
0,42,0,6
0,88,0,3
0,36,0,7
0,55,0,0
0,60,0,7
0,64,0,1
0,67,0,3
0,48,53,25
0,36,0,15
0,81,56,7
0,69,57,5
0,26,0,3
0,79,0,0
0,67,0,1
0,67,0,0
0,27,70,1
0,93,68,0
0,69,79,0
0,69,85,0
0,42,61,0
0,50,53,0
0,36,79,0
0,91,0,3
0,48,0,5
0,69,0,3
0,42,0,1
0,36,0,15
0,48,70,5
0,50,0,10
0,69,0,9
0,47,61,13
0,47,70,0
0,49,37,0
0,46,97,0
0,48,0,4
0,47,0,12
0,38,0,8
0,67,49,2
0,79,61,1
0,27,0,1
0,59,70,3
0,62,70,0
0,69,0,1
0,28,61,0
0,91,70,0
0,64,70,0
0,59,70,0
0,67,70,0
0,62,70,0
0,55,61,0
0,40,61,0
0,42,61,0
0,57,79,0
0,45,88,0
0,36,79,0
0,47,0,1
0,81,0,2
0,49,0,1
0,69,85,0
0,93,0,1
0,64,0,1
0,60,0,0
0,46,0,1
0,42,0,8
0,71,65,2
0,69,0,2
0,69,56,11
0,71,0,8
0,67,56,3
0,69,0,2
0,55,0,0
0,59,0,1
0,55,53,50
0,59,53,0
0,42,61,0
0,59,0,19
0,55,0,0
0,42,0,1
0,62,0,3
0,64,0,0
0,67,0,9
0,47,45,32
0,67,37,32
0,71,53,0
0,62,45,0
0,52,29,0
0,42,70,0
0,36,0,3
0,47,0,4
0,62,0,2
0,71,0,2
0,28,0,1
0,67,0,0
0,42,0,7
0,67,0,0
0,35,79,45
0,72,88,0
0,64,88,0
0,69,97,0
0,36,70,0
0,71,75,12
0,36,0,2
0,64,0,2
0,45,0,4
0,71,0,4
0,72,75,2
0,69,0,3
0,28,88,3
0,62,53,0
0,71,70,0
0,67,57,0
0,71,85,0
0,36,88,0
0,42,61,0
0,38,114,0
0,35,0,3
0,72,0,1
0,72,0,3
0,52,0,1
0,42,0,2
0,67,0,2
0,71,0,2
0,62,0,0
0,47,49,0
0,71,0,2
0,67,75,1
0,67,0,5
0,69,75,1
0,74,79,2
0,62,70,0
0,71,61,0
0,67,70,0
0,52,13,0
0,42,57,0
0,52,0,1
0,67,65,1
0,36,0,1
0,71,0,1
0,69,0,2
0,47,0,2
0,42,0,4
0,57,0,2
0,67,0,2
0,62,0,2
0,52,49,1
0,67,0,2
0,64,65,1
0,65,61,0
0,64,0,2
0,74,0,4
0,64,75,0
0,71,79,3
0,62,70,0
0,67,70,0
0,42,61,0
0,48,53,0
0,36,88,0
0,65,0,1
0,79,0,3
0,40,0,1
0,67,0,1
0,67,0,2
0,52,0,1
0,71,0,1
0,62,0,0
0,42,0,2
0,47,57,1
0,48,0,4
0,36,0,2
0,40,70,3
0,45,70,0
0,57,53,0
0,46,88,0
0,91,0,2
0,47,0,2
0,40,0,3
0,57,57,4
0,28,0,1
0,29,79,0
0,60,61,0
0,53,57,0
0,71,79,0
0,62,79,0
0,67,88,0
0,41,61,0
0,42,61,0
0,49,70,0
0,43,61,0
0,36,88,0
0,67,65,1
0,57,0,2
0,38,0,1
0,45,0,0
0,59,0,2
0,64,0,0
0,62,0,2
0,55,0,0
0,46,0,3
0,42,0,11
0,62,0,19
0,67,0,14
0,65,65,7
0,71,0,2
0,69,45,0
0,65,57,0
0,60,57,0
0,67,0,4
0,65,0,7
0,65,0,1
0,60,0,0
0,69,0,1
0,77,41,13
0,65,41,0
0,65,76,0
0,69,80,3
0,65,67,0
0,60,63,0
0,42,70,0
0,65,0,7
0,60,0,1
0,69,0,0
0,42,0,12
0,69,80,44
0,60,67,0
0,65,80,0
0,65,0,7
0,60,0,3
0,69,0,0
0,60,80,22
0,69,80,0
0,65,89,0
0,53,51,0
0,42,70,0
0,29,0,1
0,36,0,7
0,42,0,11
0,60,0,24
0,69,0,12
0,65,0,3
0,65,0,3
0,67,86,0
0,36,80,3
0,62,67,0
0,71,67,0
0,67,71,0
0,36,79,0
0,67,0,7
0,71,0,1
0,62,0,2
0,36,0,4
0,67,0,1
0,36,0,16
0,67,86,0
0,41,71,1
0,71,98,0
0,62,89,0
0,67,107,0
0,36,79,0
0,42,70,0
0,38,105,0
0,49,0,12
0,42,0,7
0,43,0,0
0,62,0,27
0,67,0,14
0,65,76,2
0,71,0,1
0,69,67,1
0,65,59,0
0,60,47,0
0,67,0,2
0,65,0,6
0,60,0,1
0,69,0,1
0,65,0,6
0,69,89,16
0,60,80,0
0,65,98,0
0,65,86,0
0,42,70,0
0,42,0,20
0,36,0,14
0,53,0,29
0,48,71,1
0,64,51,23
0,76,48,1
0,65,0,4
0,77,0,3
0,53,71,0
0,42,70,0
0,47,49,0
0,36,79,0
0,41,0,2
0,48,0,7
0,60,0,1
0,42,0,7
0,53,0,3
0,65,0,8
0,69,0,1
0,60,71,3
0,45,57,0
0,60,0,11
0,47,0,5
0,36,0,2
0,64,54,5
0,65,0,6
0,65,63,1
0,64,0,2
0,36,80,0
0,53,71,0
0,43,61,0
0,41,0,5
0,45,0,2
0,53,0,3
0,64,76,2
0,65,0,8
0,62,59,2
0,56,59,2
0,59,67,2
0,62,76,0
0,62,53,2
0,74,49,0
0,64,0,2
0,60,0,0
0,57,0,1
0,29,89,0
0,62,98,0
0,65,89,0
0,41,80,0
0,56,98,0
0,59,98,0
0,41,70,0
0,42,61,0
0,36,79,0
0,64,0,1
0,43,0,0
0,36,0,3
0,76,0,1
0,38,0,2
0,42,0,14
0,56,0,12
0,56,43,23
0,42,70,0
0,41,0,4
0,42,0,7
0,59,0,0
0,62,0,7
0,56,0,1
0,65,0,2
0,29,0,25
0,41,71,0
0,41,0,14
0,29,80,8
0,67,80,0
0,41,67,0
0,42,79,0
0,36,0,4
0,41,0,6
0,42,0,3
0,67,0,15
0,29,0,0
0,31,80,0
0,65,89,0
0,65,0,8
0,31,0,5
0,33,71,0
0,64,71,0
0,46,88,0
0,36,61,0
0,64,0,5
0,36,0,8
0,41,0,3
0,62,0,1
0,35,89,0
0,35,80,0
0,62,98,0
0,56,89,0
0,59,89,0
0,65,98,0
0,60,71,0
0,36,88,0
0,42,61,0
0,38,105,0
0,33,0,2
0,74,81,0
0,71,81,0
0,60,0,3
0,46,0,4
0,42,0,8
0,59,0,9
0,62,0,2
0,56,0,5
0,71,0,2
0,62,63,1
0,56,80,0
0,59,80,0
0,53,80,0
0,42,61,0
0,65,0,2
0,68,76,0
0,71,76,1
0,74,0,2
0,42,0,1
0,53,0,1
0,59,0,1
0,56,0,3
0,62,0,1
0,36,0,4
0,68,0,1
0,47,80,2
0,56,80,0
0,62,89,0
0,65,98,0
0,59,98,0
0,53,80,0
0,42,70,0
0,36,79,0
0,74,0,2
0,65,67,0
0,68,86,0
0,62,0,1
0,35,0,2
0,71,0,1
0,47,0,3
0,42,0,1
0,33,71,2
0,36,0,3
0,35,0,3
0,59,0,3
0,62,0,1
0,53,0,1
0,56,0,1
0,33,0,1
0,35,80,0
0,35,89,0
0,46,88,0
0,35,0,3
0,64,67,1
0,52,63,1
0,60,71,1
0,64,56,0
0,55,55,3
0,59,0,1
0,68,0,0
0,52,59,0
0,64,82,1
0,60,62,0
0,55,53,0
0,36,70,0
0,64,79,0
0,55,61,0
0,36,79,0
0,60,70,0
0,64,64,0
0,42,61,0
0,36,88,0
0,53,0,1
0,67,78,0
0,62,0,1
0,35,0,1
0,56,0,2
0,65,0,1
0,46,0,1
0,65,0,0
0,38,0,3
0,60,0,11
0,42,0,1
0,64,0,1
0,55,0,0
0,64,0,25
0,55,0,11
0,60,0,3
0,55,57,34
0,64,79,0
0,60,72,0
0,64,57,0
0,55,49,0
0,60,57,0
0,42,70,0
0,60,0,11
0,55,0,4
0,64,0,0
0,42,0,4
0,64,0,25
0,55,0,7
0,64,88,45
0,55,57,0
0,55,53,0
0,64,57,0
0,60,57,0
0,42,70,0
0,36,0,3
0,36,0,3
0,60,0,5
0,64,0,3
0,55,0,1
0,42,0,6
0,64,0,9
0,64,0,19
0,55,0,4
0,31,61,11
0,43,61,0
0,36,61,0
0,36,0,15
0,64,70,17
0,55,53,0
0,36,70,0
0,64,88,0
0,55,79,0
0,60,88,0
0,48,70,0
0,36,88,0
0,42,70,0
0,38,105,0
0,64,78,4
0,43,0,1
0,31,0,3
0,67,0,0
0,42,0,14
0,64,0,29
0,60,0,1
0,55,0,2
0,67,61,23
0,55,49,2
0,67,78,5
0,64,0,2
0,67,79,0
0,55,70,0
0,64,79,0
0,67,79,0
0,60,70,0
0,42,70,0
0,52,0,1
0,64,0,0
0,48,0,5
0,42,0,19
0,64,0,4
0,60,0,0
0,36,0,0
0,55,0,1
0,67,0,6
0,36,0,24
0,48,61,4
0,36,0,16
0,57,41,6
0,69,61,1
0,55,0,4
0,69,88,4
0,67,0,1
0,67,0,0
0,69,79,0
0,36,57,0
0,69,97,0
0,42,70,0
0,36,79,0
0,67,0,2
0,64,0,2
0,69,0,7
0,48,0,4
0,42,0,4
0,36,0,10
0,38,61,3
0,36,0,3
0,69,0,12
0,39,79,17
0,39,70,0
0,38,0,6
0,39,0,13
0,55,45,1
0,67,61,1
0,59,49,6
0,62,61,1
0,69,0,2
0,57,0,0
0,64,0,1
0,60,0,1
0,67,70,0
0,59,61,0
0,62,70,0
0,40,70,0
0,64,70,0
0,59,70,0
0,55,61,0
0,67,70,0
0,40,70,0
0,36,79,0
0,42,70,0
0,55,0,1
0,52,0,1
0,39,0,1
0,69,78,2
0,38,0,1
0,60,0,0
0,69,0,3
0,69,0,7
0,71,68,0
0,42,0,5
0,69,68,7
0,71,0,6
0,67,64,9
0,69,0,4
0,59,0,3
0,55,0,6
0,55,49,27
0,59,49,0
0,42,57,0
0,55,0,20
0,59,0,1
0,42,0,4
0,64,0,0
0,67,0,4
0,47,49,35
0,36,0,28
0,67,45,4
0,62,49,0
0,71,57,0
0,52,37,0
0,42,61,0
0,71,0,8
0,62,0,1
0,47,0,0
0,67,0,1
0,42,0,4
0,52,0,3
0,67,0,6
0,40,0,38
0,35,70,3
0,72,88,0
0,64,88,0
0,69,88,0
0,46,79,0
0,36,70,0
0,71,78,6
0,36,0,2
0,64,0,1
0,71,0,3
0,72,50,4
0,71,88,4
0,69,0,2
0,72,0,3
0,28,70,1
0,62,53,0
0,71,61,0
0,67,53,0
0,52,37,0
0,36,79,0
0,42,70,0
0,38,105,0
0,72,0,7
0,46,0,0
0,35,0,1
0,42,0,14
0,67,0,2
0,59,0,3
0,62,0,3
0,52,0,15
0,71,0,6
0,67,0,1
0,47,45,0
0,62,0,2
0,71,0,8
0,67,64,2
0,69,68,12
0,67,0,1
0,67,79,0
0,62,61,0
0,59,57,0
0,71,70,0
0,62,61,0
0,74,97,0
0,67,79,0
0,52,41,0
0,42,61,0
0,67,68,1
0,47,0,5
0,69,0,1
0,42,0,15
0,36,0,1
0,71,0,0
0,52,0,3
0,67,0,6
0,62,0,1
0,67,0,17
0,59,0,4
0,52,45,10
0,67,0,11
0,64,68,1
0,65,68,10
0,40,0,1
0,64,0,1
0,74,0,3
0,52,0,1
0,28,0,2
0,67,79,2
0,59,53,0
0,40,61,0
0,71,79,0
0,62,79,0
0,67,88,0
0,42,70,0
0,36,79,0
0,64,68,2
0,65,0,4
0,67,0,5
0,62,0,0
0,71,0,1
0,42,0,11
0,36,0,16
0,67,0,19
0,59,0,5
0,40,70,1
0,40,0,14
0,65,59,5
0,60,70,6
0,53,57,0
0,57,49,1
0,64,0,3
0,55,0,1
0,59,0,0
0,67,88,0
0,59,57,0
0,41,79,0
0,71,88,0
0,67,88,0
0,62,97,0
0,41,70,0
0,66,68,0
0,36,88,0
0,42,70,0
0,65,0,1
0,40,0,1
0,38,0,0
0,62,0,1
0,67,88,5
0,66,0,1
0,42,0,20
0,62,0,12
0,67,0,21
0,65,79,2
0,60,61,0
0,57,57,0
0,69,57,0
0,65,49,0
0,60,25,0
0,65,68,1
0,67,0,2
0,59,0,1
0,71,0,2
0,62,0,1
0,67,0,1
0,60,0,2
0,65,0,2
0,69,0,3
0,65,0,5
0,65,53,0
0,65,0,1
0,53,45,3
0,57,0,2
0,65,59,5
0,65,79,1
0,57,53,0
0,69,57,0
0,65,57,0
0,60,41,0
0,42,61,0
0,67,0,1
0,55,0,2
0,65,0,4
0,60,0,1
0,69,0,0
0,42,0,16
0,57,0,16
0,65,0,2
0,65,79,22
0,57,57,0
0,60,45,0
0,69,49,0
0,65,53,0
0,69,0,9
0,65,0,1
0,57,0,2
0,60,0,0
0,65,0,4
0,65,79,16
0,57,61,0
0,60,70,0
0,69,70,0
0,65,70,0
0,42,70,0
0,36,0,8
0,42,0,12
0,60,0,28
0,69,0,7
0,65,0,1
0,57,0,3
0,65,0,1
0,41,0,1
0,65,0,1
0,60,0,0
0,67,68,1
0,67,81,1
0,62,70,0
0,59,61,0
0,36,61,0
0,71,57,0
0,67,61,0
0,62,49,0
0,36,70,0
0,62,0,8
0,67,0,0
0,71,0,2
0,59,0,1
0,67,0,1
0,36,0,2
0,67,0,18
0,67,88,0
0,59,70,0
0,29,70,0
0,53,49,0
0,62,79,0
0,71,97,0
0,67,97,0
0,36,79,0
0,42,61,0
0,38,105,0
0,67,88,4
0,36,0,2
0,42,0,12
0,62,0,32
0,59,0,11
0,67,0,1
0,65,64,0
0,67,0,1
0,57,57,1
0,60,57,0
0,65,70,0
0,65,70,0
0,69,61,0
0,60,29,0
0,62,0,1
0,67,0,1
0,71,0,1
0,60,0,5
0,57,0,2
0,65,0,1
0,69,0,3
0,65,0,1
0,65,0,1
0,65,64,14
0,65,88,2
0,57,61,0
0,69,79,0
0,60,70,0
0,65,79,0
0,42,70,0
0,42,0,18
0,36,0,11
0,53,0,34
0,48,53,1
0,52,49,29
0,64,61,1
0,41,0,1
0,53,57,1
0,42,79,0
0,36,70,0
0,38,0,1
0,48,0,4
0,60,0,1
0,53,0,2
0,65,0,2
0,42,0,7
0,53,0,1
0,65,0,10
0,69,0,0
0,60,53,4
0,36,0,3
0,60,0,9
0,65,0,10
0,64,46,1
