track,note,velocity,time
1,81,127,3884
1,69,127,1
1,69,0,115
1,81,0,1
1,76,127,1325
1,76,0,14
1,74,127,37
1,74,0,63
1,76,127,15
1,76,0,13
1,74,127,13
1,74,0,12
1,74,127,15
1,74,0,11
1,76,127,1513
1,76,0,15
1,74,127,38
1,74,0,61
1,76,127,15
1,76,0,14
1,74,127,12
1,74,0,12
1,74,127,14
1,74,0,12
1,76,127,1512
1,76,0,16
1,74,127,40
1,74,0,62
1,76,127,16
1,76,0,13
1,74,127,13
1,74,0,12
1,74,127,13
1,74,0,11
1,67,127,820
1,67,0,17
1,69,127,9
1,69,0,21
1,69,127,36
1,69,0,63
1,69,127,14
1,69,0,12
1,67,127,629
1,67,0,15
1,72,127,38
1,72,0,21
1,69,127,3
1,69,0,51
1,72,127,670
1,72,0,24
1,69,127,2
1,69,0,20
1,69,127,38
1,69,0,48
1,81,127,564
1,69,127,1
1,81,0,10
1,69,0,2
1,81,127,62
1,69,127,1
1,69,0,13
1,81,0,1
1,81,127,67
1,69,127,1
1,67,127,3
1,67,0,4
1,81,0,4
1,69,0,2
1,67,127,100
1,55,127,0
1,69,127,6
1,57,127,3
1,55,0,10
1,67,0,6
1,57,0,17
1,69,0,29
1,81,127,35
1,69,127,0
1,69,0,115
1,81,0,1
1,76,127,1325
1,76,0,14
1,74,127,37
1,74,0,63
1,76,127,15
1,76,0,13
1,74,127,14
1,74,0,11
1,74,127,15
1,74,0,11
1,76,127,1513
1,76,0,15
1,74,127,38
1,74,0,61
1,76,127,15
1,76,0,14
1,74,127,12
1,74,0,13
1,74,127,13
1,74,0,12
1,76,127,1512
1,76,0,16
1,74,127,40
1,74,0,62
1,76,127,16
1,76,0,13
1,74,127,14
1,74,0,11
1,74,127,13
1,74,0,11
1,67,127,820
1,67,0,17
1,69,127,9
1,69,0,21
1,69,127,36
1,69,0,63
1,69,127,14
1,69,0,12
1,67,127,629
1,67,0,15
1,72,127,38
1,72,0,21
1,69,127,3
1,69,0,51
1,72,127,670
1,72,0,24
1,69,127,2
1,69,0,20
1,69,127,38
1,69,0,48
1,81,127,564
1,69,127,1
1,81,0,10
1,69,0,2
1,81,127,62
1,69,127,1
1,69,0,13
1,81,0,1
1,81,127,67
1,69,127,1
1,67,127,3
1,67,0,5
1,81,0,3
1,69,0,2
1,67,127,100
1,55,127,1
1,69,127,5
1,57,127,3
1,55,0,10
1,67,0,6
1,57,0,17
1,69,0,29
1,81,127,35
1,69,127,0
1,69,0,115
1,81,0,2
1,76,127,1324
1,76,0,14
1,74,127,37
1,74,0,63
1,76,127,15
1,76,0,13
1,74,127,14
1,74,0,11
1,74,127,15
1,74,0,11
1,76,127,1511
1,76,0,15
1,74,127,40
1,74,0,62
1,76,127,16
1,76,0,13
1,74,127,14
1,74,0,11
1,74,127,13
1,74,0,12
1,69,127,75
1,67,127,0
1,55,127,0
1,57,127,0
1,62,127,0
1,45,127,0
1,62,0,61
1,57,0,0
1,55,0,1
1,69,0,0
1,45,0,2
1,67,0,1
1,57,127,10
1,55,127,1
1,62,127,1
1,45,127,2
1,67,127,1
1,69,127,0
1,62,0,5
1,57,0,1
1,55,0,0
1,69,0,6
1,67,0,1
1,45,0,6
1,45,127,321
1,69,127,4
1,67,127,1
1,55,127,0
1,57,127,1
1,62,127,1
1,45,0,58
1,57,0,1
1,55,0,1
1,62,0,0
1,69,0,4
1,67,0,1
1,45,127,5
1,57,127,7
1,55,127,1
1,67,127,1
1,69,127,0
1,62,127,0
1,55,0,9
1,57,0,0
1,62,0,1
1,45,0,1
1,69,0,2
1,67,0,0
1,45,127,329
1,67,127,6
1,69,127,1
1,57,127,1
1,62,127,1
1,55,127,0
1,55,0,57
1,45,0,0
1,57,0,1
1,62,0,0
1,69,0,7
1,67,0,0
1,45,127,4
1,57,127,6
1,55,127,0
1,62,127,1
1,67,127,3
1,69,127,1
1,55,0,5
1,57,0,0
1,62,0,1
1,45,0,1
1,69,0,7
1,67,0,1
1,45,127,321
1,67,127,3
1,69,127,1
1,57,127,3
1,55,127,1
1,62,127,1
1,45,0,58
1,57,0,3
1,55,0,1
1,69,0,0
1,62,0,0
1,67,0,1
1,45,127,9
1,57,127,2
1,55,127,2
1,62,127,1
1,67,127,2
1,69,127,0
1,62,0,7
1,57,0,0
1,55,0,1
1,45,0,2
1,69,0,1
1,67,0,1
1,45,127,332
1,62,127,1
1,69,127,2
1,67,127,0
1,57,127,0
1,55,127,0
1,57,0,59
1,62,0,1
1,55,0,0
1,45,0,3
1,69,0,3
1,67,0,1
1,57,127,7
1,62,127,1
1,55,127,2
1,45,127,0
1,69,127,2
1,67,127,1
1,55,0,5
1,57,0,1
1,62,0,1
1,45,0,4
1,69,0,1
1,67,0,1
1,45,127,327
1,57,127,5
1,62,127,1
1,55,127,1
1,67,127,2
1,69,127,0
1,62,0,57
1,57,0,0
1,55,0,1
1,45,0,1
1,69,0,2
1,67,0,3
1,45,127,8
1,57,127,3
1,62,127,0
1,55,127,0
1,67,127,4
1,69,127,1
1,62,0,5
1,57,0,0
1,55,0,1
1,45,0,1
1,69,0,3
1,67,0,1
1,45,127,326
1,57,127,8
1,69,127,0
1,67,127,0
1,55,127,0
1,62,127,1
1,55,0,60
1,57,0,1
1,45,0,0
1,69,0,0
1,62,0,0
1,67,0,1
1,45,127,10
1,57,127,5
1,69,127,1
1,67,127,0
1,62,127,0
1,55,127,1
1,57,0,8
1,55,0,1
1,62,0,1
1,67,0,1
1,69,0,0
1,45,0,1
1,45,127,328
1,69,127,5
1,67,127,1
1,62,127,1
1,55,127,0
1,57,127,0
1,45,0,58
1,67,0,2
1,69,0,0
1,57,0,0
1,62,0,1
1,55,0,0
1,45,127,10
1,69,127,8
1,57,127,0
1,62,127,0
1,67,127,1
1,55,127,0
1,45,0,9
1,57,0,2
1,55,0,0
1,67,0,1
1,69,0,0
1,62,0,2
1,67,127,15
1,55,127,1
1,67,0,14
1,55,0,2
1,69,127,8
1,57,127,3
1,69,0,16
1,57,0,4
1,57,127,31
1,69,127,1
1,69,0,15
1,57,0,4
1,57,127,33
1,69,127,2
1,69,0,15
1,57,0,2
1,57,127,33
1,69,127,2
1,57,0,13
1,69,0,2
1,55,127,6
1,67,127,4
1,65,127,0
1,65,0,15
1,67,0,2
1,55,0,20
1,57,127,10
1,69,127,1
1,69,0,29
1,57,0,2
1,81,127,28
1,69,127,0
1,69,0,116
1,81,0,1
1,76,127,1324
1,76,0,14
1,74,127,37
1,74,0,64
1,76,127,14
1,76,0,13
1,74,127,14
1,74,0,11
1,74,127,15
1,74,0,11
1,76,127,1513
1,76,0,15
1,74,127,38
1,74,0,61
1,76,127,15
1,76,0,14
1,74,127,12
1,74,0,13
1,74,127,13
1,74,0,12
1,81,127,76
1,69,127,0
1,69,0,116
1,81,0,1
1,76,127,1324
1,76,0,15
1,74,127,36
1,74,0,64
1,76,127,14
1,76,0,13
1,74,127,14
1,74,0,11
1,74,127,15
1,74,0,12
1,76,127,1512
1,76,0,15
1,74,127,38
1,74,0,61
1,76,127,15
1,76,0,14
1,74,127,13
1,74,0,12
1,74,127,13
1,74,0,12
1,69,127,76
1,67,127,0
1,55,127,0
1,57,127,0
1,62,127,0
1,45,127,1
1,62,0,60
1,57,0,1
1,55,0,0
1,69,0,1
1,45,0,1
1,67,0,1
1,57,127,11
1,55,127,0
1,62,127,1
1,45,127,2
1,67,127,1
1,69,127,0
1,62,0,6
1,57,0,0
1,55,0,0
1,69,0,6
1,67,0,1
1,45,0,6
1,45,127,321
1,69,127,4
1,67,127,1
1,55,127,0
1,57,127,2
1,62,127,0
1,45,0,58
1,57,0,1
1,55,0,1
1,62,0,0
1,69,0,4
1,67,0,2
1,45,127,4
1,57,127,7
1,55,127,1
1,67,127,1
1,69,127,0
1,62,127,0
1,55,0,9
1,57,0,0
1,62,0,1
1,45,0,1
1,69,0,2
1,67,0,0
1,45,127,329
1,67,127,6
1,69,127,1
1,57,127,1
1,62,127,1
1,55,127,0
1,55,0,57
1,45,0,0
1,62,0,1
1,57,0,1
1,69,0,6
1,67,0,0
1,45,127,4
1,57,127,6
1,55,127,0
1,62,127,1
1,67,127,3
1,69,127,1
1,55,0,5
1,57,0,0
1,62,0,1
1,45,0,1
1,69,0,7
1,67,0,1
1,45,127,321
1,67,127,4
1,69,127,0
1,57,127,4
1,55,127,0
1,62,127,1
1,45,0,58
1,69,0,4
1,57,0,0
1,62,0,0
1,67,0,1
1,55,0,0
1,45,127,9
1,57,127,3
1,55,127,1
1,62,127,1
1,67,127,2
1,69,127,0
1,62,0,7
1,57,0,0
1,55,0,1
1,45,0,2
1,69,0,1
1,67,0,1
1,45,127,332
1,62,127,1
1,69,127,2
1,67,127,0
1,57,127,0
1,55,127,0
1,57,0,59
1,62,0,1
1,55,0,0
1,45,0,3
1,69,0,3
1,67,0,1
1,57,127,7
1,62,127,2
1,55,127,1
1,45,127,0
1,69,127,2
1,67,127,1
1,55,0,6
1,57,0,0
1,62,0,1
1,45,0,4
1,69,0,1
1,67,0,1
1,45,127,327
1,57,127,5
1,62,127,2
1,55,127,0
1,67,127,2
1,69,127,0
1,62,0,57
1,57,0,0
1,55,0,1
1,45,0,1
1,69,0,2
1,67,0,3
1,45,127,8
1,57,127,3
1,62,127,0
1,55,127,0
1,67,127,4
1,69,127,1
1,62,0,5
1,57,0,0
1,55,0,1
1,45,0,1
1,69,0,3
1,67,0,1
1,45,127,326
1,57,127,8
1,69,127,0
1,67,127,0
1,55,127,0
1,62,127,1
1,55,0,60
1,57,0,1
1,45,0,0
1,69,0,0
1,62,0,0
1,67,0,1
1,45,127,10
1,57,127,5
1,69,127,1
1,67,127,0
1,62,127,0
1,55,127,1
1,57,0,8
1,55,0,1
1,62,0,1
1,67,0,1
1,69,0,0
1,45,0,1
1,45,127,328
1,69,127,5
1,67,127,2
1,62,127,0
1,55,127,0
1,57,127,0
1,45,0,58
1,67,0,2
1,69,0,0
1,57,0,0
1,62,0,1
1,55,0,0
1,45,127,10
1,69,127,8
1,57,127,0
1,62,127,1
1,67,127,0
1,55,127,0
1,45,0,9
1,57,0,2
1,55,0,0
1,67,0,1
1,69,0,0
1,62,0,3
1,67,127,14
1,55,127,1
1,67,0,15
1,55,0,1
1,69,127,9
1,57,127,2
1,69,0,16
1,57,0,4
1,57,127,31
1,69,127,1
1,69,0,16
1,57,0,3
1,57,127,33
1,69,127,3
1,69,0,14
1,57,0,2
1,57,127,33
1,69,127,2
1,57,0,13
1,69,0,2
1,55,127,6
1,67,127,4
1,65,127,0
1,65,0,15
1,67,0,2
1,55,0,20
1,57,127,10
1,69,127,1
1,69,0,29
1,57,0,2
1,81,127,28
1,69,127,0
1,69,0,116
1,81,0,1
1,76,127,1324
1,76,0,15
1,74,127,36
1,74,0,64
1,76,127,14
1,76,0,13
1,74,127,14
1,74,0,11
1,74,127,15
1,74,0,12
1,76,127,1512
1,76,0,15
1,74,127,38
1,74,0,61
1,76,127,15
1,76,0,14
1,74,127,13
1,74,0,12
1,74,127,13
1,74,0,12
1,76,127,1513
1,76,0,16
1,74,127,39
1,74,0,63
1,76,127,15
1,76,0,13
1,74,127,14
1,74,0,11
1,74,127,13
1,74,0,12
1,81,127,75
1,69,127,0
1,69,0,116
1,81,0,1
1,76,127,1324
1,76,0,15
1,74,127,36
1,74,0,64
1,76,127,14
1,76,0,13
1,74,127,14
1,74,0,11
1,74,127,16
1,74,0,11
1,76,127,1512
1,76,0,16
1,74,127,37
1,74,0,62
1,76,127,14
1,76,0,14
1,74,127,13
1,74,0,12
1,74,127,13
1,74,0,12
1,76,127,1513
1,76,0,16
1,74,127,39
1,74,0,63
1,76,127,15
1,76,0,14
1,74,127,13
1,74,0,11
1,74,127,13
1,74,0,12
1,81,127,75
1,69,127,0
1,69,0,116
1,81,0,1
1,76,127,1324
1,76,0,15
1,74,127,36
1,74,0,64
1,76,127,14
1,76,0,14
1,74,127,13
1,74,0,11
1,74,127,16
1,74,0,11
1,76,127,1512
1,76,0,16
1,74,127,37
1,74,0,62
1,76,127,14
1,76,0,14
1,74,127,13
1,74,0,12
1,74,127,13
1,74,0,13
1,76,127,1512
1,76,0,16
1,74,127,39
1,74,0,63
1,76,127,15
1,76,0,14
1,74,127,13
1,74,0,11
1,74,127,13
1,74,0,12
1,81,127,75
1,69,127,0
1,69,0,116
1,81,0,1
1,76,127,1324
1,76,0,15
1,74,127,36
1,74,0,64
1,76,127,14
1,76,0,14
1,74,127,13
1,74,0,11
1,74,127,16
1,74,0,11
1,76,127,1512
1,76,0,16
1,74,127,37
1,74,0,62
1,76,127,14
1,76,0,15
1,74,127,12
1,74,0,12
1,74,127,13
1,74,0,13
1,76,127,1512
1,76,0,16
1,74,127,39
1,74,0,63
1,76,127,15
1,76,0,14
1,74,127,13
1,74,0,11
1,74,127,13
1,74,0,12
1,57,127,75
1,69,127,0
1,69,127,0
1,81,127,1
1,57,127,0
1,57,0,36
1,69,0,1
1,57,0,7
1,69,0,40
1,81,0,2
2,69,127,2558
2,69,0,14
2,72,127,93
2,72,0,13
2,74,127,40
2,74,0,13
2,67,127,41
2,67,0,12
2,68,127,67
2,68,0,11
2,69,127,70
2,69,0,12
2,67,127,521
2,69,127,27
2,67,0,6
2,72,127,21
2,69,0,6
2,69,127,20
2,72,0,9
2,69,0,73
2,69,127,52
2,72,127,26
2,69,0,3
2,74,127,24
2,72,0,4
2,72,127,22
2,74,0,10
2,72,0,42
2,79,127,82
2,81,127,0
2,81,0,8
2,79,0,2
2,81,127,70
2,79,127,0
2,79,0,10
2,81,0,1
2,79,127,70
2,81,127,0
2,81,0,9
2,79,0,0
2,79,127,97
2,81,127,27
2,79,0,6
2,81,0,53
2,81,127,22
2,57,127,0
2,69,127,0
2,78,127,1
2,78,0,23
2,57,0,5
2,69,0,3
2,81,0,3
2,67,127,124
2,69,127,27
2,67,0,5
2,71,127,20
2,69,0,8
2,71,0,66
2,69,127,3
2,69,0,11
2,76,127,287
2,76,0,17
2,71,127,37
2,71,0,65
2,69,127,14
2,69,0,21
2,67,127,273
2,69,127,24
2,67,0,6
2,71,127,22
2,69,0,7
2,69,127,73
2,71,0,2
2,69,0,12
2,76,127,280
2,76,0,17
2,78,127,38
2,78,0,59
2,76,127,18
2,76,0,13
2,78,127,14
2,78,0,14
2,78,127,9
2,78,0,15
2,67,127,231
2,69,127,23
2,67,0,9
2,71,127,14
2,69,0,9
2,69,127,73
2,71,0,1
2,69,0,11
2,76,127,287
2,76,0,16
2,71,127,38
2,71,0,71
2,69,127,8
2,69,0,18
2,67,127,276
2,69,127,21
2,67,0,8
2,71,127,17
2,69,0,9
2,69,127,70
2,71,0,1
2,69,0,14
2,76,127,288
2,76,0,14
2,78,127,36
2,78,0,61
2,76,127,22
2,76,0,10
2,78,127,14
2,78,0,13
2,78,127,10
2,78,0,14
2,67,127,232
2,69,127,23
2,67,0,9
2,71,127,14
2,69,0,9
2,69,127,73
2,71,0,1
2,69,0,11
2,76,127,287
2,76,0,16
2,71,127,38
2,71,0,75
2,69,127,5
2,69,0,15
2,67,127,278
2,69,127,21
2,67,0,8
2,71,127,17
2,69,0,9
2,69,127,70
2,71,0,1
2,69,0,14
2,76,127,288
2,76,0,11
2,78,127,42
2,78,0,52
2,76,127,22
2,76,0,11
2,78,127,15
2,78,0,12
2,78,127,15
2,79,127,3
2,79,0,7
2,78,0,1
2,67,127,825
2,67,0,16
2,69,127,6
2,69,0,26
2,69,127,23
2,69,0,71
2,69,127,12
2,69,0,11
2,67,127,630
2,67,0,15
2,72,127,40
2,72,0,22
2,69,127,1
2,69,0,40
2,72,127,683
2,72,0,20
2,69,127,3
2,69,0,17
2,69,127,38
2,69,0,56
2,81,127,563
2,69,127,1
2,81,0,9
2,69,0,1
2,81,127,67
2,69,127,1
2,69,0,10
2,81,0,0
2,81,127,71
2,69,127,1
2,81,0,8
2,69,0,1
2,67,127,98
2,79,127,1
2,81,127,6
2,79,0,9
