track,note,velocity,time
1,56,52,0
1,63,60,2732
1,60,60,1526
1,53,52,28
1,58,64,1498
1,51,52,4
1,58,52,10
1,63,64,6
1,56,52,0
1,58,52,5386
1,56,52,706
1,53,52,14
1,60,60,0
1,58,60,1520
1,51,52,2
1,56,60,3040
1,49,52,4
1,51,52,3060
1,58,60,2
1,56,52,3028
1,63,60,2
1,53,52,1524
1,60,60,2
1,58,60,1498
1,51,52,2
1,56,60,3040
1,49,52,4
1,51,52,3060
1,58,60,2
1,68,60,40
1,63,52,6
1,60,52,4
1,61,52,1484
1,65,60,4
1,56,52,2
1,63,60,1506
1,58,52,4
1,63,52,14
1,68,52,0
1,72,60,8
1,73,60,0
1,65,52,4
1,72,60,14
1,61,46,2
1,65,52,2
1,68,52,2
1,63,60,2
1,56,52,0
1,60,60,1522
1,53,52,8
1,58,60,1516
1,51,52,8
1,56,52,3040
1,63,60,10
1,49,52,0
1,51,52,3046
1,65,60,4
1,63,60,22
1,56,52,2
1,68,60,2
1,60,60,1524
1,53,52,8
1,58,60,1516
1,70,60,2
1,51,52,4
1,56,52,3040
1,68,60,2
1,63,60,8
1,49,52,0
1,58,52,1502
1,51,52,2
1,70,60,0
1,68,60,1522
1,56,52,2
1,65,60,10
1,53,52,0
1,60,60,4
1,56,52,1522
1,68,60,2
1,63,60,4
1,49,52,0
1,58,52,1518
1,51,52,2
1,70,60,0
1,56,52,24
1,63,60,0
1,60,60,1494
1,53,52,8
1,58,64,1522
1,51,52,4
1,68,64,4
1,56,52,0
1,63,64,4
1,53,52,1530
1,51,52,6
1,49,52,14
1,56,48,4
1,58,48,3070
1,51,52,4
1,55,63,0
1,68,64,38
1,56,52,4
1,63,60,2
1,65,64,4
1,53,52,0
1,60,60,2
1,58,60,8
1,51,52,2
1,63,64,8
1,56,60,3040
1,49,52,4
1,51,52,3060
1,58,60,2
1,68,60,28
1,63,52,6
1,60,52,4
1,61,52,1484
1,65,60,4
1,56,52,2
1,63,60,1506
1,58,52,4
1,70,64,1516
1,63,52,14
1,68,52,0
1,72,60,8
1,73,60,0
1,65,52,4
1,77,60,14
1,61,46,2
1,68,52,2
1,72,52,2
1,56,46,1516
1,75,60,0
1,53,46,8
1,68,52,4
1,65,62,2
1,73,64,0
1,63,60,6
1,68,64,0
1,56,52,0
1,60,60,1520
1,53,52,8
1,65,64,754
1,58,60,18
1,63,64,6
1,51,52,2
1,56,52,20
1,63,60,10
1,49,52,0
1,51,52,3046
1,61,62,2276
1,65,60,4
1,63,60,0
1,56,52,2
1,68,60,2
1,60,60,1524
1,65,55,2
1,72,63,2
1,53,52,0
1,58,60,6
1,75,60,2
1,70,60,0
1,51,52,0
1,56,52,3040
1,68,60,2
1,63,60,8
1,49,52,0
1,58,52,1502
1,51,52,2
1,70,60,0
1,60,59,2
1,77,60,2
1,53,62,0
1,72,52,0
1,63,60,36
1,56,52,6
1,68,60,2
1,60,60,136
1,53,52,8
1,58,60,34
1,51,52,8
1,70,60,54
1,56,52,14
1,68,60,2
1,63,60,8
1,49,52,0
1,58,52,92
1,51,52,2
1,70,60,0
1,68,60,26
1,56,52,2
1,65,60,10
1,53,52,0
1,60,60,4
2,44,100,8796
2,41,100,76
2,37,100,24
2,41,100,24
2,39,100,26
2,51,100,48
2,37,100,50
2,49,100,10
2,37,100,16
2,32,100,22
2,44,91,60
2,46,91,28
2,51,91,0
2,32,100,60
2,44,100,22
2,41,100,26
2,37,100,24
2,41,100,24
2,39,100,26
2,39,100,48
2,46,100,32
2,37,100,56
2,49,100,26
2,37,100,26
2,37,100,52
2,39,100,22
2,39,100,60
2,36,100,28
2,37,100,32
2,39,100,32
2,32,100,40
2,44,100,22
2,41,100,26
2,37,100,24
2,41,100,24
2,39,100,26
2,46,73,16
2,51,100,0
2,46,100,48
2,39,100,38
2,37,100,26
2,49,100,40
2,37,100,38
2,39,100,22
2,39,100,60
2,46,100,28
2,39,100,32
2,29,101,44
2,41,100,4
2,41,96,48
2,29,100,22
2,36,100,0
2,41,100,16
2,34,101,6
2,41,100,4
2,46,96,16
2,34,100,22
2,46,100,0
2,34,100,16
2,39,101,6
2,46,100,4
2,51,96,16
2,39,100,22
2,39,100,36
2,46,100,76
2,39,101,26
2,46,100,4
2,51,96,14
2,39,100,22
2,39,100,22
2,51,100,0
2,39,86,192
2,39,92,52
2,29,101,16
2,36,100,4
2,41,96,16
2,29,100,22
2,29,100,40
2,41,100,76
2,29,100,20
2,34,101,6
2,41,100,6
2,46,96,16
2,34,100,22
2,46,100,0
2,34,100,16
2,37,100,6
2,53,91,32
2,32,101,378
2,32,100,66
2,39,96,48
2,32,100,46
2,41,101,58
2,41,100,68
2,41,96,68
2,37,100,30
2,41,100,40
2,39,101,52
2,39,100,66
2,46,96,48
2,39,100,46
2,39,101,58
2,39,100,66
2,46,96,48
2,39,100,46
2,37,101,58
2,37,100,66
2,49,96,48
2,37,101,70
2,37,100,66
2,49,96,48
2,37,100,46
2,32,101,58
2,32,100,66
2,44,96,48
2,32,101,70
2,32,100,66
2,44,100,8
2,39,100,28
2,39,100,34
2,39,97,58
2,51,82,192
2,32,101,12
2,32,100,66
2,44,96,48
2,39,100,46
2,41,101,58
2,41,100,68
2,41,96,68
2,37,100,30
2,41,100,40
2,39,101,52
2,39,100,66
2,51,96,48
2,39,100,46
2,39,101,58
2,39,100,66
2,46,96,48
2,39,100,46
2,37,101,58
2,37,100,66
2,49,96,48
2,39,101,70
2,39,100,66
2,51,96,48
2,39,100,46
2,32,101,58
2,32,100,66
2,44,96,48
2,41,101,70
2,41,100,66
2,53,96,48
2,48,91,14
2,41,93,42
2,36,100,48
2,37,101,16
2,37,100,66
2,37,96,48
2,37,100,46
2,39,101,58
2,39,100,66
2,51,70,48
2,55,96,0
2,44,100,30
2,41,100,76
2,37,100,24
2,41,100,24
2,39,100,26
2,63,100,164
2,58,91,0
2,51,105,106
2,32,109,240
2,32,109,66
2,32,109,154
2,39,100,60
2,44,100,40
2,32,100,192
2,36,90,828
2,41,100,70
2,36,100,36
2,41,100,32
2,37,100,28
2,41,100,26
2,39,100,16
2,39,100,30
2,51,100,32
2,39,73,12
2,39,100,62
2,39,100,146
2,46,100,62
2,51,100,50
2,39,100,26
2,39,100,104
2,37,101,24
2,37,100,42
2,49,100,48
2,37,102,44
2,37,100,242
2,49,100,36
2,37,100,32
2,39,100,62
2,39,100,44
2,51,100,40
2,39,100,44
2,39,109,54
2,56,100,346
2,63,100,56
2,65,104,0
2,63,94,44
2,56,100,36
2,32,109,352
2,39,100,32
2,44,100,28
2,32,100,16
2,32,91,46
2,32,109,66
2,29,100,68
2,36,91,22
2,41,91,28
2,37,100,0
2,41,101,24
2,39,101,26
2,39,100,52
2,51,100,50
2,39,84,384
2,51,96,24
2,39,100,26
2,39,100,22
2,39,109,74
2,46,100,48
2,46,100,40
2,37,100,24
2,37,100,52
2,49,100,50
2,37,100,36
2,37,100,66
2,49,100,62
2,37,100,24
2,39,100,22
2,39,100,66
2,51,100,72
2,39,100,24
2,39,100,50
2,39,91,70
2,36,100,56
2,36,52,80
2,36,100,66
2,29,101,10
2,29,91,58
2,36,100,4
2,41,96,24
2,29,100,22
2,41,100,40
2,34,101,48
2,34,91,58
2,41,100,4
2,46,96,24
2,34,100,22
2,41,100,0
2,34,100,16
2,39,101,6
2,39,91,58
2,46,100,4
2,51,96,24
2,39,100,22
2,51,100,16
2,46,100,16
2,51,100,54
2,39,100,24
2,39,91,70
2,39,100,64
2,39,100,68
2,46,100,20
2,39,100,10
2,29,101,32
2,29,91,58
2,36,100,4
2,41,96,24
2,29,100,22
2,29,100,40
2,41,100,76
2,29,100,20
2,34,101,6
2,34,91,58
2,41,100,4
2,46,96,24
2,34,100,22
2,46,100,0
2,34,100,16
2,37,86,6
2,41,76,0
2,49,96,0
2,56,73,0
2,32,109,32
2,44,100,48
2,32,109,10
2,32,109,66
2,39,91,62
2,41,104,38
2,41,100,54
2,44,109,44
2,46,91,8
2,48,104,40
2,51,91,22
2,53,104,36
2,44,93,16
2,32,101,2
2,32,100,66
2,41,100,48
2,44,100,28
2,32,100,384
2,41,101,58
2,41,100,68
2,41,96,68
2,37,100,30
2,41,100,40
2,39,101,52
2,39,100,66
2,46,96,48
2,39,91,40
2,39,109,50
2,51,101,46
2,39,101,18
2,39,100,66
2,51,96,48
2,39,100,28
2,51,100,22
2,39,72,0
2,39,90,66
2,37,101,20
2,37,100,66
2,49,96,48
2,37,100,42
2,37,101,32
2,37,100,66
2,49,96,48
2,37,100,46
2,49,92,12
2,32,101,6
2,32,100,66
2,44,96,48
2,32,100,14
2,44,100,14
2,32,101,28
2,32,100,66
2,44,100,8
2,39,100,28
2,63,101,34
2,65,107,44
2,63,109,56
2,58,93,192
2,56,100,34
2,51,93,42
2,32,101,10
2,32,100,66
2,44,100,12
2,39,100,46
2,44,96,30
2,39,100,34
2,44,100,28
2,29,101,44
2,29,109,68
2,41,82,138
2,29,95,46
2,41,100,60
2,37,100,28
2,41,100,40
2,39,101,52
2,39,100,66
2,51,96,48
2,39,101,46
2,41,98,20
2,39,90,58
2,39,101,64
2,39,100,66
2,51,96,48
2,39,100,14
2,39,100,44
2,39,91,82
2,37,101,2
2,37,100,66
2,49,96,48
2,39,101,70
2,39,100,66
2,51,96,48
2,39,100,46
2,53,86,58
2,48,82,0
2,29,91,0
2,58,82,18
2,63,99,4
2,58,104,24
2,56,100,40
2,53,82,40
2,51,82,32
2,48,73,28
2,51,91,40
2,46,82,28
2,44,91,40
2,32,101,40
2,32,100,42
2,44,96,6
2,39,100,46
2,41,101,58
2,41,100,38
2,41,96,48
2,37,100,30
2,41,100,40
2,39,101,52
2,39,100,32
2,51,96,48
2,39,100,46
2,39,101,14
2,39,100,14
2,46,96,14
2,39,100,46
2,37,101,58
2,37,100,66
2,49,96,24
2,39,101,16
2,39,100,66
2,51,96,48
2,39,100,42
2,32,101,58
2,32,100,66
2,44,96,48
2,41,101,70
2,41,100,22
2,53,96,26
2,48,91,14
2,41,93,42
2,36,100,48
3,51,44,22014
3,53,66,68
3,56,100,58
3,56,82,48
3,51,44,2736
3,53,66,68
3,56,100,58
3,56,82,48
3,51,44,2736
3,53,66,68
3,56,100,58
3,56,82,48
3,51,44,2736
3,53,66,68
3,56,100,58
3,56,82,48
3,56,57,934
3,60,100,12
3,63,100,30
3,51,44,1466
3,53,66,68
3,56,100,58
3,56,82,48
3,51,44,2736
3,53,66,68
3,56,100,58
3,56,82,48
3,51,44,2736
3,53,66,68
3,56,100,58
3,56,82,48
3,51,44,2736
3,53,66,68
3,56,100,58
3,56,82,48
3,56,57,934
3,60,100,12
3,63,100,30
3,51,44,47546
3,53,66,68
3,56,100,58
3,56,82,48
3,51,44,2736
3,53,66,68
3,56,100,58
3,56,82,48
3,51,44,2736
3,53,66,68
3,56,100,58
3,56,82,48
3,51,44,2736
3,53,66,68
3,56,100,58
3,56,82,48
3,56,57,934
3,60,100,12
3,63,100,30
3,51,44,1466
3,53,66,68
3,56,100,58
3,56,82,48
3,51,44,2736
3,53,66,68
3,56,100,58
3,56,82,48
3,51,44,2736
3,53,66,68
3,56,100,58
3,56,82,48
3,51,44,2736
3,53,66,68
3,56,100,58
3,56,82,48
3,56,57,934
3,60,100,12
3,63,100,30
4,60,100,21032
4,63,100,70
4,53,91,1704
4,56,100,36
4,53,82,16
4,60,91,6
4,58,81,10
4,58,100,40
4,60,100,1300
4,58,91,24
4,56,72,20
4,58,98,36
4,53,73,6
4,56,100,30
4,53,82,994
4,56,100,38
4,53,82,14
4,60,100,16
4,58,91,34
4,58,91,34
4,60,100,1528
4,63,91,52
4,53,91,1780
4,56,91,96
4,53,71,60
4,60,100,28
4,58,91,44
4,58,91,40
4,60,100,990
4,58,100,38
4,56,91,34
4,58,100,42
4,53,87,72
4,56,91,70
4,53,73,860
4,60,100,32
4,58,82,50
4,56,91,48
4,60,100,46
4,58,100,56
4,58,100,42
4,56,109,1500
4,56,81,46
4,53,100,24
4,60,100,950
4,58,96,50
4,56,100,60
4,53,100,58
4,60,93,508
4,60,104,52
4,58,75,36
4,58,100,30
4,56,109,1904
4,56,100,36
4,53,100,18
4,58,100,1184
4,58,100,68
4,56,100,64
4,53,91,180
4,56,100,0
4,56,87,44
4,53,100,10
4,58,82,1378
4,60,91,38
4,63,100,48
4,63,91,62
4,65,100,46
4,63,100,54
4,60,100,142
4,58,100,66
4,56,100,62
4,53,91,24
4,56,100,48
4,60,91,44
4,58,100,46
4,60,100,942
4,58,91,42
4,56,100,42
4,58,91,44
4,53,82,36
4,56,100,46
4,60,100,932
4,58,91,32
4,56,100,32
4,58,91,34
4,53,91,28
4,56,100,42
4,58,82,954
4,60,64,42
4,63,91,40
4,63,100,48
4,65,91,40
4,63,91,52
4,53,82,146
4,56,100,46
4,53,82,32
4,56,100,40
4,60,100,30
4,58,73,44
4,56,100,38
4,53,82,158
4,56,100,38
4,60,91,42
4,58,91,48
4,60,82,1360
4,58,91,38
4,56,100,32
4,58,91,44
4,53,73,24
4,56,100,40
4,60,82,54
4,63,90,56
4,63,100,58
4,65,91,40
4,65,82,42
4,63,100,30
4,53,73,182
4,56,100,42
4,58,100,26
4,56,100,48
4,60,100,1706
4,58,100,42
4,56,100,34
4,58,100,38
4,53,73,28
4,56,100,34
4,60,91,120
4,63,100,26
4,63,91,34
4,65,100,26
4,65,91,40
4,63,91,24
4,53,73,164
4,56,100,38
4,58,91,34
4,56,82,60
4,60,100,4598
4,63,100,88
4,60,82,1724
4,58,91,42
4,56,91,52
4,60,91,26
4,58,82,44
4,58,91,50
4,60,91,1330
4,58,91,46
4,56,91,40
4,58,91,48
4,53,73,40
4,56,100,48
4,60,91,896
4,58,82,48
4,56,91,38
4,60,100,42
4,60,100,64
4,58,91,48
4,60,100,1508
4,63,91,80
4,60,91,1706
4,58,100,40
4,56,82,30
4,60,91,34
4,58,100,44
4,58,100,42
4,60,82,942
4,58,91,40
4,56,91,32
4,58,100,32
4,53,73,60
4,56,82,54
4,60,82,926
4,58,82,42
4,56,91,40
4,60,91,50
4,60,82,54
4,58,100,46
4,60,100,2
4,61,109,58
4,60,95,50
4,63,107,42
4,65,104,78
4,56,109,24
4,56,81,46
4,53,100,24
4,60,100,950
4,58,96,50
4,56,100,60
4,53,100,58
4,60,93,508
4,60,104,52
4,58,75,36
4,58,100,30
4,56,109,1904
4,56,100,36
4,53,100,18
4,58,100,1184
4,58,100,68
4,56,100,64
4,53,91,180
4,56,100,0
4,56,87,44
4,53,100,10
4,58,82,1378
4,60,91,38
4,63,100,48
4,63,91,62
4,56,56,34
4,61,64,2
4,70,63,6
4,65,100,4
4,56,60,40
4,60,64,4
4,68,63,2
4,63,100,4
4,63,60,58
4,60,100,2
4,68,60,4
4,56,56,2
4,63,56,50
4,58,100,0
4,68,56,4
4,56,56,8
4,61,73,2
4,60,69,8
4,70,60,24
4,56,100,4
4,61,64,6
4,65,56,12
4,53,91,18
4,56,100,48
4,60,91,44
4,58,100,46
4,63,56,944
4,60,100,2
4,58,91,38
4,63,60,10
4,63,64,42
4,56,100,0
4,63,64,40
4,58,91,4
4,53,82,2
4,61,64,6
4,61,64,42
4,56,100,4
4,63,50,930
4,60,100,2
4,58,91,32
4,63,61,2
4,61,64,30
4,56,100,2
4,61,64,32
4,58,91,2
4,53,91,22
4,60,56,4
4,60,60,20
4,56,100,22
4,58,82,954
4,60,64,42
4,63,91,40
4,63,100,48
4,65,91,40
4,63,91,52
4,53,82,146
4,56,100,46
4,53,82,32
4,56,100,40
4,60,100,30
4,58,73,44
4,56,100,38
4,53,82,158
4,56,100,38
4,60,91,42
4,58,91,48
4,60,82,1360
4,58,91,38
4,56,100,32
4,58,91,44
4,53,73,24
4,56,100,40
4,60,82,54
4,63,90,56
4,63,100,58
4,65,91,40
4,65,82,42
4,63,100,30
4,53,73,182
4,56,100,42
4,58,100,26
4,56,100,48
4,58,82,152
4,60,91,38
4,63,100,48
4,63,91,62
4,65,100,46
4,63,100,50
4,60,100,142
4,58,100,66
4,56,100,66
