track,note,velocity,time
4,28,93,8810
4,28,0,196
4,28,92,44
4,28,0,196
4,28,95,44
4,28,0,196
4,28,93,44
4,28,0,196
4,28,94,44
4,28,0,196
4,28,91,44
4,28,0,196
4,28,92,44
4,28,0,196
4,28,90,44
4,28,0,196
4,32,93,44
4,32,0,196
4,32,91,44
4,32,0,196
4,32,90,44
4,32,0,196
4,32,90,44
4,32,0,196
4,28,95,44
4,28,0,196
4,32,95,44
4,32,0,196
4,28,94,44
4,28,0,196
4,32,92,44
4,32,0,196
4,33,93,44
4,33,0,196
4,33,94,44
4,33,0,196
4,33,95,44
4,33,0,196
4,33,95,44
4,33,0,196
4,33,92,44
4,33,0,196
4,33,91,44
4,33,0,196
4,33,94,44
4,33,0,196
4,33,94,44
4,33,0,196
4,33,93,44
4,33,0,196
4,33,95,44
4,33,0,196
4,33,92,44
4,33,0,196
4,28,90,44
4,28,0,196
4,32,93,44
4,32,0,196
4,33,91,44
4,33,0,196
4,32,94,44
4,32,0,196
4,33,92,44
4,33,0,240
4,28,91,0
4,28,0,196
4,28,94,44
4,28,0,196
4,28,93,44
4,28,0,196
4,28,95,44
4,28,0,196
4,28,92,44
4,28,0,196
4,28,93,44
4,28,0,196
4,28,92,44
4,28,0,196
4,28,92,44
4,28,0,196
4,32,95,44
4,32,0,196
4,32,93,44
4,32,0,196
4,32,92,44
4,32,0,196
4,32,92,44
4,32,0,196
4,32,91,44
4,32,0,196
4,32,93,44
4,32,0,196
4,32,92,44
4,32,0,196
4,32,94,44
4,32,0,196
4,33,91,44
4,33,0,196
4,33,90,44
4,33,0,196
4,33,95,44
4,33,0,196
4,33,91,44
4,33,0,196
4,33,90,44
4,33,0,196
4,33,91,44
4,33,0,196
4,33,90,44
4,33,0,196
4,33,94,44
4,33,0,196
4,33,93,44
4,33,0,196
4,33,95,44
4,33,0,196
4,33,94,44
4,33,0,196
4,28,92,44
4,28,0,196
4,32,93,44
4,32,0,196
4,33,95,44
4,33,0,196
4,32,94,44
4,32,0,196
4,33,94,44
4,33,0,240
4,28,95,0
4,28,0,196
4,28,90,44
4,28,0,196
4,28,93,44
4,28,0,196
4,28,93,44
4,28,0,196
4,28,90,44
4,28,0,196
4,28,95,44
4,28,0,196
4,28,94,44
4,28,0,196
4,28,94,44
4,28,0,196
4,32,95,44
4,32,0,196
4,32,93,44
4,32,0,196
4,32,90,44
4,32,0,196
4,32,94,44
4,32,0,196
4,32,93,44
4,32,0,196
4,32,95,44
4,32,0,196
4,32,94,44
4,32,0,196
4,28,90,44
4,28,0,196
4,33,93,44
4,33,0,196
4,33,90,44
4,33,0,196
4,33,91,44
4,33,0,196
4,33,91,44
4,33,0,196
4,33,92,44
4,33,0,196
4,33,93,44
4,33,0,196
4,33,94,44
4,33,0,196
4,33,94,44
4,33,0,196
4,33,95,44
4,33,0,196
4,33,93,44
4,33,0,196
4,33,90,44
4,33,0,196
4,28,92,44
4,28,0,196
4,32,91,44
4,32,0,196
4,33,93,44
4,33,0,196
4,32,94,44
4,32,0,196
4,33,94,44
4,33,0,240
4,28,95,0
4,28,0,196
4,28,94,44
4,28,0,196
4,28,93,44
4,28,0,196
4,28,95,44
4,28,0,196
4,28,92,44
4,28,0,196
4,28,95,44
4,28,0,196
4,28,90,44
4,28,0,196
4,28,92,44
4,28,0,196
4,32,93,44
4,32,0,196
4,32,91,44
4,32,0,196
4,32,90,44
4,32,0,196
4,32,94,44
4,32,0,196
4,32,91,44
4,32,0,196
4,32,93,44
4,32,0,196
4,32,90,44
4,32,0,196
4,28,92,44
4,28,0,196
4,33,91,44
4,33,0,196
4,33,92,44
4,33,0,196
4,33,91,44
4,33,0,196
4,33,95,44
4,33,0,196
4,33,92,44
4,33,0,196
4,33,91,44
4,33,0,196
4,33,92,44
4,33,0,196
4,33,92,44
4,33,0,196
4,33,93,44
4,33,0,196
4,33,95,44
4,33,0,196
4,33,90,44
4,33,0,196
4,28,94,44
4,28,0,196
4,32,93,44
4,32,0,196
4,33,95,44
4,33,0,196
4,32,94,44
4,32,0,196
4,33,94,44
4,33,0,240
4,28,91,0
4,28,0,196
4,28,90,44
4,28,0,196
4,28,95,44
4,28,0,196
4,28,95,44
4,28,0,196
4,28,94,44
4,28,0,196
4,28,93,44
4,28,0,196
4,30,90,44
4,30,0,196
4,31,92,44
4,31,0,196
4,32,91,44
4,32,0,196
4,32,95,44
4,32,0,196
4,32,92,44
4,32,0,196
4,32,94,44
4,32,0,196
4,32,93,44
4,32,0,196
4,32,91,44
4,32,0,196
4,32,94,44
4,32,0,196
4,28,90,44
4,28,0,196
4,33,93,44
4,33,0,196
4,33,90,44
4,33,0,196
4,33,93,44
4,33,0,196
4,33,91,44
4,33,0,196
4,33,92,44
4,33,0,196
4,33,93,44
4,33,0,196
4,33,90,44
4,33,0,196
4,33,90,44
4,33,0,196
4,33,93,44
4,33,0,196
4,33,91,44
4,33,0,196
4,37,94,44
4,37,0,196
4,40,94,44
4,40,0,196
4,45,93,44
4,45,0,196
4,45,91,44
4,45,0,196
4,45,92,44
4,45,0,196
4,45,92,44
4,45,0,240
4,28,93,0
4,28,0,196
4,28,94,44
4,28,0,196
4,28,93,44
4,28,0,196
4,28,91,44
4,28,0,196
4,28,90,44
4,28,0,196
4,28,91,44
4,28,0,196
4,28,94,44
4,28,0,196
4,28,94,44
4,28,0,196
4,32,95,44
4,32,0,196
4,32,95,44
4,32,0,196
4,32,94,44
4,32,0,196
4,32,94,44
4,32,0,196
4,32,95,44
4,32,0,196
4,32,93,44
4,32,0,196
4,32,92,44
4,32,0,196
4,28,94,44
4,28,0,196
4,33,95,44
4,33,0,196
4,33,90,44
4,33,0,196
4,33,91,44
4,33,0,196
4,33,91,44
4,33,0,196
4,33,90,44
4,33,0,196
4,33,91,44
4,33,0,196
4,33,92,44
4,33,0,196
4,33,94,44
4,33,0,196
4,33,95,44
4,33,0,196
4,33,95,44
4,33,0,196
4,33,92,44
4,33,0,196
4,28,94,44
4,28,0,196
4,32,95,44
4,32,0,196
4,33,95,44
4,33,0,196
4,32,92,44
4,32,0,196
4,33,90,44
4,33,0,240
4,28,95,0
4,28,0,196
4,28,92,44
4,28,0,196
4,28,93,44
4,28,0,196
4,28,95,44
4,28,0,196
4,28,94,44
4,28,0,196
4,28,93,44
4,28,0,196
4,28,94,44
4,28,0,196
4,28,90,44
4,28,0,196
4,32,91,44
4,32,0,196
4,32,91,44
4,32,0,196
4,32,92,44
4,32,0,196
4,32,94,44
4,32,0,196
4,32,97,44
4,32,0,196
4,32,93,44
4,32,0,196
4,32,94,44
4,32,0,196
4,28,90,44
4,28,0,196
4,33,91,44
4,33,0,196
4,33,94,44
4,33,0,196
4,33,91,44
4,33,0,196
4,33,93,44
4,33,0,196
4,33,92,44
4,33,0,196
4,33,95,44
4,33,0,196
4,33,94,44
4,33,0,196
4,33,90,44
4,33,0,196
4,33,91,44
4,33,0,196
4,33,95,44
4,33,0,196
4,33,94,44
4,33,0,196
4,33,90,44
4,33,0,196
4,33,95,44
4,33,0,196
4,33,93,44
4,33,0,196
4,33,92,44
4,33,0,196
4,33,92,44
4,33,0,240
4,35,91,0
4,35,0,651
4,35,94,69
4,35,0,651
4,35,95,69
4,35,0,411
4,35,95,69
4,35,0,651
4,35,94,69
4,35,0,651
4,35,91,69
4,35,0,411
4,33,90,69
4,33,0,651
4,33,94,69
4,33,0,651
4,36,91,69
4,36,0,196
4,40,91,44
4,40,0,196
4,45,92,44
4,45,0,676
4,45,92,44
4,45,0,196
4,45,95,44
4,45,0,196
4,45,91,44
4,45,0,196
4,45,92,44
4,45,0,196
4,45,92,44
4,45,0,240
4,35,91,0
4,35,0,651
4,35,94,69
4,35,0,651
4,35,95,69
4,35,0,411
4,35,95,69
4,35,0,651
4,35,94,69
4,35,0,651
4,35,91,69
4,35,0,411
4,33,90,69
4,33,0,651
4,33,94,69
4,33,0,651
4,36,91,69
4,36,0,196
4,40,91,44
4,40,0,196
4,45,94,44
4,45,0,196
4,45,90,44
4,45,0,196
4,45,93,44
4,45,0,196
4,45,93,44
4,45,0,196
4,45,94,44
4,45,0,196
4,45,90,44
4,45,0,196
4,45,93,44
4,45,0,196
4,45,92,44
4,45,0,240
4,28,95,0
4,28,0,196
4,28,95,44
4,28,0,196
4,28,92,44
4,28,0,196
4,28,95,44
4,28,0,196
4,28,92,44
4,28,0,196
4,28,94,44
4,28,0,196
4,30,91,44
4,30,0,196
4,31,93,44
4,31,0,196
4,32,92,44
4,32,0,196
4,32,90,44
4,32,0,196
4,32,91,44
4,32,0,196
4,32,95,44
4,32,0,196
4,32,90,44
4,32,0,196
4,32,92,44
4,32,0,196
4,32,91,44
4,32,0,196
4,28,92,44
4,28,0,196
4,33,91,44
4,33,0,196
4,33,93,44
4,33,0,196
4,33,90,44
4,33,0,196
4,33,95,44
4,33,0,196
4,33,92,44
4,33,0,196
4,33,90,44
4,33,0,196
4,33,93,44
4,33,0,196
4,33,93,44
4,33,0,196
4,33,92,44
4,33,0,196
4,33,94,44
4,33,0,196
4,33,91,44
4,33,0,196
4,28,95,44
4,28,0,196
4,32,92,44
4,32,0,196
4,33,94,44
4,33,0,196
4,32,95,44
4,32,0,196
4,33,94,44
4,33,0,240
4,28,95,0
4,28,0,196
4,28,95,44
4,28,0,196
4,28,92,44
4,28,0,196
4,28,95,44
4,28,0,196
4,28,92,44
4,28,0,196
4,28,94,44
4,28,0,196
4,28,91,44
4,28,0,196
4,28,93,44
4,28,0,196
4,32,92,44
4,32,0,196
4,32,90,44
4,32,0,196
4,32,91,44
4,32,0,196
4,32,95,44
4,32,0,196
4,32,90,44
4,32,0,196
4,32,92,44
4,32,0,196
4,32,91,44
4,32,0,196
4,28,92,44
4,28,0,196
4,33,91,44
4,33,0,196
4,33,93,44
4,33,0,196
4,33,90,44
4,33,0,196
4,33,95,44
4,33,0,196
4,33,92,44
4,33,0,196
4,33,90,44
4,33,0,196
4,33,93,44
4,33,0,196
4,33,93,44
4,33,0,196
4,33,92,44
4,33,0,196
4,33,94,44
4,33,0,196
4,33,91,44
4,33,0,196
4,28,95,44
4,28,0,196
4,32,92,44
4,32,0,196
4,33,94,44
4,33,0,196
4,32,95,44
4,32,0,196
4,33,94,44
4,33,0,240
4,28,95,0
4,28,0,196
4,28,95,44
4,28,0,196
4,28,92,44
4,28,0,196
4,28,95,44
4,28,0,196
4,28,92,44
4,28,0,196
4,28,94,44
4,28,0,196
4,30,91,44
4,30,0,196
4,31,93,44
4,31,0,196
4,32,92,44
4,32,0,196
4,32,90,44
4,32,0,196
4,32,91,44
4,32,0,196
4,32,95,44
4,32,0,196
4,30,90,44
4,30,0,196
4,32,92,44
4,32,0,196
4,30,91,44
4,30,0,196
4,32,92,44
4,32,0,196
4,33,91,44
4,33,0,196
4,33,93,44
4,33,0,196
4,33,90,44
4,33,0,196
4,33,95,44
4,33,0,196
4,33,92,44
4,33,0,196
4,33,90,44
4,33,0,196
4,33,93,44
4,33,0,196
4,33,93,44
4,33,0,196
4,33,92,44
4,33,0,196
4,33,94,44
4,33,0,196
4,37,91,44
4,37,0,196
4,40,95,44
4,40,0,196
4,45,92,44
4,45,0,196
4,45,94,44
4,45,0,196
4,45,95,44
4,45,0,196
4,45,94,44
4,45,0,240
4,28,95,0
4,28,0,196
4,28,95,44
4,28,0,196
4,28,92,44
4,28,0,196
4,28,95,44
4,28,0,196
4,28,92,44
4,28,0,196
4,28,94,44
4,28,0,196
4,28,91,44
4,28,0,196
4,28,93,44
4,28,0,196
4,32,92,44
4,32,0,196
4,32,90,44
4,32,0,196
4,32,91,44
4,32,0,196
4,32,95,44
4,32,0,196
4,32,90,44
4,32,0,196
4,32,92,44
4,32,0,196
4,32,91,44
4,32,0,196
4,28,92,44
4,28,0,196
4,33,91,44
4,33,0,196
4,33,93,44
4,33,0,196
4,33,90,44
4,33,0,196
4,33,95,44
4,33,0,196
4,33,92,44
4,33,0,196
4,33,90,44
4,33,0,196
4,33,93,44
4,33,0,196
4,33,93,44
4,33,0,196
4,33,92,44
4,33,0,196
4,33,94,44
4,33,0,196
4,33,91,44
4,33,0,196
4,28,95,44
4,28,0,196
4,32,92,44
4,32,0,196
4,33,94,44
4,33,0,196
4,32,95,44
4,32,0,196
4,33,94,44
4,33,0,240
4,28,95,0
4,28,0,196
4,28,95,44
4,28,0,196
4,28,92,44
4,28,0,196
4,28,95,44
4,28,0,196
4,28,92,44
4,28,0,196
4,28,94,44
4,28,0,196
4,28,91,44
4,28,0,196
4,28,93,44
4,28,0,196
4,32,92,44
4,32,0,196
4,32,90,44
4,32,0,196
4,32,91,44
4,32,0,196
4,32,95,44
4,32,0,196
4,32,90,44
4,32,0,196
4,32,92,44
4,32,0,196
4,32,91,44
4,32,0,196
4,28,92,44
4,28,0,196
4,33,91,44
4,33,0,196
4,33,93,44
4,33,0,196
4,33,90,44
4,33,0,196
4,33,95,44
4,33,0,196
4,33,92,44
4,33,0,196
4,33,90,44
4,33,0,196
4,33,93,44
4,33,0,196
4,33,93,44
4,33,0,196
4,33,90,44
4,33,0,196
4,33,92,44
4,33,0,196
4,33,91,44
4,33,0,196
4,33,95,44
4,33,0,196
4,33,92,44
4,33,0,196
4,33,90,44
4,33,0,196
4,33,93,44
4,33,0,196
4,33,92,44
4,33,0,196
4,35,91,44
4,35,0,676
4,35,95,44
4,35,0,676
4,35,94,44
4,35,0,436
4,35,95,44
4,35,0,676
4,35,94,44
4,35,0,676
4,35,90,44
4,35,0,436
4,33,91,44
4,33,0,676
4,33,95,44
4,33,0,676
4,36,90,44
4,36,0,196
4,40,90,44
4,40,0,196
4,45,93,44
4,45,0,676
4,45,93,44
4,45,0,196
4,45,94,44
4,45,0,436
4,45,92,44
4,45,0,11
4,35,91,15
4,35,0,676
4,35,94,44
4,35,0,676
4,35,95,44
4,35,0,436
4,35,95,44
4,35,0,676
4,35,94,44
4,35,0,676
4,35,91,44
4,35,0,436
4,33,90,44
4,33,0,676
4,33,94,44
4,33,0,676
4,36,91,44
4,36,0,196
4,40,91,44
4,40,0,196
4,45,94,44
4,45,0,196
4,45,90,44
4,45,0,196
4,45,93,44
4,45,0,196
4,45,93,44
4,45,0,196
4,45,94,44
4,45,0,196
4,45,90,44
4,45,0,196
4,45,93,44
4,45,0,196
4,45,92,44
4,45,0,240
4,28,95,0
4,28,0,196
4,28,95,44
4,28,0,196
4,28,92,44
4,28,0,196
4,28,95,44
4,28,0,196
4,28,92,44
4,28,0,196
4,28,94,44
4,28,0,196
4,30,91,44
4,30,0,196
4,31,93,44
4,31,0,196
4,32,92,44
4,32,0,196
4,32,90,44
4,32,0,196
4,32,91,44
4,32,0,196
4,32,95,44
4,32,0,196
4,32,90,44
4,32,0,196
4,32,92,44
4,32,0,196
4,32,91,44
4,32,0,196
4,28,92,44
4,28,0,196
4,33,91,44
4,33,0,196
4,33,93,44
4,33,0,196
4,33,90,44
4,33,0,196
4,33,95,44
4,33,0,196
4,33,92,44
4,33,0,196
4,33,90,44
4,33,0,196
4,33,93,44
4,33,0,196
4,33,93,44
4,33,0,196
4,33,92,44
4,33,0,196
4,33,94,44
4,33,0,196
4,33,91,44
4,33,0,196
4,28,95,44
4,28,0,196
4,32,92,44
4,32,0,196
4,33,94,44
4,33,0,196
4,32,95,44
4,32,0,196
4,33,94,44
4,33,0,240
4,28,95,0
4,28,0,196
4,28,95,44
4,28,0,196
4,28,92,44
4,28,0,196
4,28,95,44
4,28,0,196
4,28,92,44
4,28,0,196
4,28,94,44
4,28,0,196
4,28,91,44
4,28,0,196
4,28,93,44
4,28,0,196
4,32,92,44
4,32,0,196
4,32,90,44
4,32,0,196
4,32,91,44
4,32,0,196
4,32,95,44
4,32,0,196
4,32,90,44
4,32,0,196
4,32,92,44
4,32,0,196
4,32,91,44
4,32,0,196
4,28,92,44
4,28,0,196
4,33,91,44
4,33,0,196
4,33,93,44
4,33,0,196
