track,note,velocity,time
2,39,97,25014
2,44,97,18
2,43,97,16
2,42,97,16
2,42,97,16
2,41,97,18
2,41,97,16
2,46,97,16
2,44,97,16
2,39,97,16
2,39,97,16
2,37,97,18
2,37,97,16
2,44,97,16
2,43,97,18
2,42,97,18
2,42,97,16
2,41,97,16
2,41,97,16
2,46,97,16
2,44,97,16
2,39,97,18
2,39,97,16
2,37,97,16
2,37,97,16
2,36,97,16
2,36,97,16
2,34,97,16
2,32,97,16
2,32,97,16
2,39,97,2130
2,32,97,16
2,39,97,16
2,32,97,16
2,39,97,16
2,32,97,16
2,32,97,16
2,32,97,18
2,39,97,16
2,32,97,16
2,32,97,16
2,39,97,18
2,39,97,16
2,32,97,16
2,32,97,16
2,32,97,18
2,39,97,16
2,32,97,16
2,32,97,16
2,39,97,18
2,39,97,16
2,32,97,16
2,32,97,16
2,32,97,18
2,39,97,16
2,44,97,16
2,44,97,16
2,51,97,18
2,39,97,16
2,44,97,16
2,44,97,16
2,44,97,18
2,39,97,16
2,44,97,18
2,44,97,16
2,51,97,18
2,39,97,16
2,44,97,18
2,44,97,16
2,44,97,18
2,39,97,16
2,44,97,18
2,56,97,18
2,36,97,16
2,37,97,16
2,39,97,16
2,32,97,18
2,32,97,18
2,39,97,18
2,32,97,18
2,32,97,18
2,39,97,18
2,32,97,18
2,32,97,18
2,39,97,18
2,32,97,16
2,39,97,976
2,32,97,16
2,31,97,16
2,30,97,18
2,30,97,16
2,29,97,18
2,29,97,16
2,34,97,16
2,32,97,18
2,32,97,16
2,39,97,18
2,39,97,16
2,37,97,18
2,37,97,16
2,36,97,18
2,36,97,16
2,34,97,16
2,32,97,16
3,63,127,41242
3,63,127,16
3,61,127,18
3,61,127,16
3,60,127,18
3,60,127,16
3,58,127,18
3,87,127,382
3,56,127,16
3,68,127,3472
3,68,127,18
3,68,127,18
3,68,127,596
3,63,127,18
3,68,127,18
3,68,127,18
3,68,127,18
3,68,127,596
3,63,127,16
3,68,127,18
3,68,127,18
3,68,127,18
3,68,127,596
3,63,127,18
3,68,127,18
3,68,127,18
3,68,127,18
3,68,127,596
3,63,127,18
3,80,127,592
3,87,127,2
3,77,127,3406
3,73,127,18
3,75,127,18
3,63,127,20754
3,63,127,16
3,61,127,18
3,61,127,16
3,60,127,20
3,60,127,18
3,58,127,16
3,56,127,16
4,56,127,76858
4,60,127,18
4,61,127,18
4,63,127,20
4,58,104,1532
4,67,104,0
4,70,104,0
4,56,104,14
4,68,104,0
4,72,104,0
4,53,104,12
4,65,104,2
4,68,104,0
4,63,127,0
4,61,127,18
4,60,127,18
4,58,127,12
4,58,104,384
4,70,104,0
4,56,104,16
4,68,104,0
4,51,104,16
4,63,104,2
4,60,127,0
4,58,127,18
4,56,127,18
4,55,127,14
4,58,104,384
4,63,104,0
4,70,104,0
4,56,104,14
4,65,104,0
4,72,104,0
4,53,104,12
4,61,104,2
4,68,104,0
4,53,127,0
5,94,72,12054
5,92,72,96
5,75,72,6816
5,84,72,288
5,85,72,672
5,84,72,288
5,82,72,480
5,80,72,96
6,44,80,8
6,68,100,0
6,63,100,16
6,70,100,16
6,63,100,16
6,75,100,16
6,63,100,16
6,44,80,8
6,68,100,2
6,63,100,16
6,70,100,16
6,63,100,16
6,75,100,16
6,63,100,16
6,44,80,8
6,72,100,0
6,63,100,16
6,68,100,16
6,70,100,16
6,72,100,16
6,72,100,16
6,42,80,8
6,72,100,0
6,63,100,16
6,66,100,16
6,63,100,16
6,73,100,16
6,75,100,16
6,41,80,8
6,68,100,0
6,60,100,16
6,65,100,16
6,60,100,16
6,68,100,16
6,41,80,16
6,40,80,8
6,70,100,0
6,60,100,16
6,64,100,16
6,68,100,16
6,70,100,16
6,63,100,16
6,44,80,8
6,72,100,0
6,63,100,16
6,72,100,16
6,63,100,16
6,68,100,16
6,44,80,14
6,70,100,0
6,42,80,8
6,73,100,0
6,63,100,16
6,72,100,16
6,63,100,16
6,66,100,16
6,70,100,16
6,41,80,8
6,68,100,0
6,60,100,16
6,65,100,16
6,68,100,16
6,70,100,16
6,41,80,16
6,40,80,8
6,70,100,0
6,60,100,16
6,64,100,16
6,68,100,16
6,70,100,16
6,63,100,16
6,44,80,8
6,72,100,0
6,63,100,16
6,68,100,16
6,70,100,16
6,72,100,16
6,72,100,16
6,42,80,8
6,72,100,0
6,63,100,16
6,66,100,16
6,63,100,16
6,73,100,16
6,75,100,16
6,41,80,8
6,75,100,0
6,63,100,16
6,73,100,16
6,63,100,16
6,72,100,16
6,41,80,14
6,63,100,0
6,40,80,8
6,70,100,0
6,68,100,16
6,63,100,16
6,44,80,8
6,72,100,2
6,63,100,16
6,72,100,16
6,63,100,16
6,68,100,16
6,63,100,16
6,42,80,8
6,73,100,0
6,63,100,16
6,72,100,16
6,63,100,16
6,66,100,16
6,70,100,16
6,41,80,8
6,68,100,0
6,60,100,16
6,65,100,16
6,68,100,16
6,70,100,16
6,41,80,16
6,40,80,8
6,70,100,0
6,60,100,16
6,64,100,16
6,68,100,16
6,70,100,16
6,70,100,8
6,39,100,16
6,63,100,0
6,72,100,10
6,60,100,16
6,63,100,16
6,68,100,2
6,60,100,14
6,63,100,16
6,68,100,0
6,60,100,14
6,72,100,10
6,58,100,16
6,63,100,16
6,67,100,2
6,58,100,14
6,63,100,16
6,67,100,0
6,58,100,16
6,66,100,10
6,70,100,0
6,61,100,14
6,66,100,16
6,70,100,2
6,61,100,14
6,66,100,16
6,70,100,2
6,61,100,16
6,65,100,10
6,70,100,0
6,61,100,14
6,65,100,16
6,68,100,0
6,61,100,14
6,65,100,16
6,68,100,0
6,61,100,16
6,65,100,10
6,68,100,0
6,61,100,14
6,65,100,18
6,68,100,0
6,61,100,14
6,65,100,16
6,68,100,2
6,61,100,14
6,63,100,10
6,68,100,0
6,60,100,14
6,63,100,16
6,68,100,2
6,60,100,14
6,63,100,16
6,68,100,0
6,60,100,14
6,63,100,10
6,67,100,0
6,58,100,14
6,63,100,18
6,67,100,0
6,58,100,14
6,63,100,16
6,67,100,2
6,58,100,14
6,63,100,10
6,67,100,0
6,58,100,14
6,63,100,16
6,67,100,2
6,58,100,14
6,63,100,16
6,67,100,2
6,58,100,16
6,63,100,10
6,68,100,0
6,60,100,14
6,63,100,16
6,68,100,2
6,60,100,14
6,63,100,16
6,68,100,2
6,60,100,14
6,63,100,10
6,67,100,0
6,58,100,14
6,63,100,16
6,67,100,0
6,58,100,14
6,63,100,16
6,67,100,0
6,58,100,14
6,66,100,10
6,70,100,0
6,61,100,14
6,66,100,18
6,70,100,0
6,61,100,14
6,66,100,16
6,70,100,0
6,61,100,16
6,65,100,10
6,68,100,0
6,61,100,14
6,65,100,16
6,68,100,2
6,61,100,14
6,65,100,16
6,68,100,2
6,61,100,16
6,65,100,10
6,68,100,0
6,61,100,14
6,65,100,18
6,68,100,0
6,61,100,14
6,65,100,16
6,68,100,2
6,61,100,14
6,72,100,10
6,75,100,0
6,68,100,14
6,72,100,16
6,75,100,2
6,68,100,14
6,72,100,16
6,75,100,2
6,68,100,14
6,63,100,10
6,67,100,0
6,70,100,0
6,58,100,12
6,63,100,16
6,67,100,0
6,70,100,2
6,58,100,12
6,63,100,16
6,67,100,2
6,70,100,0
6,58,100,14
6,63,100,10
6,67,100,0
6,70,100,0
6,58,100,12
6,63,100,16
6,67,100,2
6,70,100,0
6,58,100,12
6,63,100,16
6,67,100,0
6,70,100,2
6,58,100,14
6,63,100,10
6,67,100,0
6,70,100,0
6,58,100,12
6,63,100,16
6,67,100,0
6,70,100,2
6,58,100,12
6,67,100,16
6,70,100,2
6,58,100,16
6,67,100,10
6,70,100,0
6,58,100,14
6,67,100,16
6,70,100,2
6,58,100,14
6,67,100,16
6,70,100,2
6,58,100,14
6,60,100,10
6,63,100,0
6,68,100,0
6,51,100,190
6,56,100,16
6,58,100,16
6,60,100,2
6,55,100,8
6,58,100,2
6,63,100,0
6,55,100,12
6,58,100,16
6,55,100,16
6,55,100,16
6,58,100,2
6,63,100,0
6,55,100,12
6,53,100,8
6,56,100,0
6,61,100,0
6,53,100,12
6,56,100,16
6,53,100,16
6,56,100,16
6,61,100,0
6,53,100,14
6,53,100,8
6,56,100,0
6,61,100,2
6,68,100,10
6,72,100,0
6,63,100,14
6,68,100,18
6,72,100,0
6,63,100,14
6,68,100,16
6,72,100,0
6,63,100,14
6,67,100,8
6,72,100,2
6,63,100,14
6,67,100,16
6,72,100,0
6,63,100,14
6,67,100,16
6,72,100,2
6,63,100,16
6,65,100,10
6,70,100,0
6,61,100,14
6,65,100,18
6,70,100,0
6,61,100,14
6,65,100,16
6,70,100,0
6,61,100,14
6,65,100,10
6,70,100,0
6,63,100,14
6,65,100,16
6,70,100,0
6,63,100,14
6,65,100,16
6,70,100,2
6,63,100,16
6,68,100,10
6,72,100,0
6,63,100,14
6,68,100,18
6,72,100,0
6,63,100,14
6,68,100,16
6,72,100,0
6,63,100,16
6,67,100,10
6,72,100,0
6,63,100,14
6,67,100,16
6,72,100,0
6,63,100,14
6,67,100,16
6,72,100,2
6,63,100,16
6,65,100,10
6,70,100,0
6,61,100,14
6,65,100,18
6,70,100,0
6,61,100,14
6,61,100,16
6,65,100,0
6,56,100,16
6,56,100,10
6,61,100,0
6,53,100,14
6,56,100,16
6,61,100,0
6,53,100,14
6,61,100,16
6,65,100,2
6,56,100,16
6,68,100,10
6,72,100,0
6,63,100,14
6,68,100,18
6,72,100,0
6,63,100,14
6,68,100,16
6,72,100,0
6,63,100,16
6,67,100,10
6,72,100,0
6,63,100,14
6,67,100,16
6,72,100,2
6,63,100,14
6,67,100,16
6,72,100,2
6,63,100,16
6,65,100,10
6,70,100,0
6,61,100,14
6,65,100,18
6,70,100,0
6,61,100,14
6,65,100,16
6,70,100,0
6,61,100,16
6,65,100,10
6,70,100,0
6,63,100,14
6,65,100,16
6,70,100,0
6,63,100,14
6,65,100,16
6,70,100,2
6,63,100,16
6,68,100,10
6,72,100,0
6,63,100,14
6,68,100,18
6,72,100,0
6,63,100,14
6,68,100,16
6,72,100,0
6,63,100,16
6,67,100,10
6,72,100,0
6,63,100,14
6,67,100,16
6,72,100,2
6,63,100,14
6,67,100,16
6,72,100,2
6,63,100,16
6,65,100,10
6,70,100,0
6,61,100,14
6,65,100,18
6,70,100,0
6,61,100,14
6,65,100,16
6,70,100,2
6,61,100,16
6,65,100,10
6,70,100,0
6,63,100,14
6,65,100,16
6,70,100,2
6,63,100,14
6,65,100,16
6,70,100,2
6,63,100,16
6,68,100,10
6,72,100,2
6,72,100,0
6,63,100,14
6,68,100,18
6,72,100,0
6,63,100,14
6,68,100,16
6,72,100,2
6,63,100,16
6,67,100,10
6,72,100,0
6,63,100,14
6,67,100,18
6,72,100,0
6,63,100,14
6,67,100,16
6,72,100,2
6,63,100,16
6,65,100,10
6,70,100,0
6,61,100,14
6,65,100,18
6,70,100,0
6,61,100,14
6,65,100,16
6,70,100,2
6,61,100,16
6,65,100,10
6,70,100,0
6,63,100,14
6,65,100,18
6,70,100,0
6,63,100,14
6,65,100,16
6,70,100,2
6,63,100,16
6,68,100,10
6,72,100,0
6,63,100,14
6,68,100,18
6,72,100,0
6,63,100,14
6,68,100,16
6,72,100,2
6,63,100,16
6,67,100,10
6,72,100,0
6,63,100,14
6,67,100,18
6,72,100,0
6,63,100,14
6,67,100,18
6,72,100,0
6,63,100,14
6,65,100,10
6,70,100,0
6,61,100,14
6,65,100,18
6,70,100,0
6,61,100,14
6,65,100,16
6,70,100,0
6,61,100,14
6,63,100,10
6,65,100,0
6,70,100,0
6,63,100,10
6,68,100,0
6,72,100,2
6,63,100,14
6,68,100,0
6,72,100,2
6,68,100,12
6,72,100,2
6,63,100,16
6,67,100,10
6,72,100,0
6,63,100,14
6,67,100,16
6,70,100,2
6,63,100,14
6,67,100,16
6,72,100,2
6,63,100,18
6,61,100,10
6,65,100,0
6,68,100,2
6,65,100,14
6,68,100,0
6,61,100,14
6,65,100,16
6,68,100,2
6,61,100,14
6,65,100,10
6,68,100,0
6,61,100,14
6,65,100,16
6,70,100,2
6,61,100,16
6,68,100,16
6,61,100,16
6,63,100,10
6,68,100,0
6,72,100,2
6,63,100,14
6,68,100,0
6,72,100,0
6,63,100,12
6,68,100,16
6,72,100,2
6,63,100,16
6,67,100,10
6,72,100,0
6,63,100,14
6,67,100,16
6,70,100,2
6,63,100,14
6,67,100,16
6,72,100,2
6,63,100,18
6,61,100,10
6,65,100,0
6,68,100,0
6,61,100,12
6,65,100,2
6,68,100,0
6,61,100,12
6,65,100,2
6,68,100,0
6,61,100,6
6,65,100,2
6,68,100,0
6,68,100,10
6,72,100,0
6,75,100,0
6,63,100,12
6,68,100,18
6,72,100,0
6,75,100,0
6,63,100,12
6,68,100,16
6,72,100,2
6,75,100,0
6,63,100,12
6,67,100,10
6,70,100,0
6,75,100,0
6,63,100,12
6,67,100,16
6,70,100,2
6,63,100,14
6,67,100,16
6,70,100,2
6,63,100,14
6,66,100,10
6,70,100,0
6,77,100,14
6,70,100,18
6,78,100,0
6,66,100,14
6,70,100,16
6,78,100,0
6,77,100,14
6,65,100,10
6,68,100,0
6,75,100,0
6,73,100,12
6,65,100,16
6,68,100,2
6,73,100,0
6,61,100,12
6,65,100,16
6,68,100,2
6,73,100,0
6,61,100,14
6,65,100,10
6,68,100,0
6,73,100,0
6,61,100,12
6,68,100,18
6,73,100,0
6,77,100,0
6,65,100,12
6,68,100,16
6,73,100,2
6,77,100,0
6,65,100,12
6,68,100,10
6,72,100,0
6,75,100,0
6,63,100,12
6,68,100,16
6,72,100,2
6,75,100,0
6,63,100,12
6,68,100,16
6,72,100,0
6,75,100,2
6,63,100,12
6,67,100,10
6,70,100,0
6,75,100,0
6,63,100,12
6,67,100,18
6,70,100,0
6,75,100,0
6,63,100,12
6,67,100,16
6,70,100,2
6,75,100,0
6,63,100,14
6,67,100,10
6,70,100,0
6,75,100,0
6,63,100,12
6,67,100,16
6,70,100,0
6,75,100,2
6,63,100,12
6,67,100,16
6,70,100,2
6,75,100,0
6,63,100,14
6,67,100,10
6,70,100,0
6,75,100,0
6,63,100,12
6,67,100,18
6,70,100,0
6,75,100,0
6,63,100,12
6,73,100,16
6,63,100,16
6,67,100,2
6,72,100,0
6,56,100,392
6,58,100,16
6,60,100,16
6,63,100,16
6,68,100,8
6,70,100,16
6,72,100,16
6,75,100,16
6,80,100,16
6,82,100,16
6,84,100,8
6,87,100,16
6,92,100,16
6,94,100,16
6,96,100,16
7,68,110,24728
7,60,110,190
7,63,110,16
7,60,110,190
7,68,110,16
7,60,110,190
7,67,110,16
7,58,110,190
7,63,110,16
7,58,110,190
7,67,110,16
7,58,110,190
7,66,110,14
7,56,110,190
7,63,110,16
7,56,110,190
7,66,110,16
7,56,110,192
7,65,110,16
7,56,110,190
7,61,110,16
7,56,110,190
7,65,110,16
7,56,110,192
7,65,110,14
7,58,110,190
7,61,110,16
7,58,110,190
7,65,110,16
7,58,110,190
7,68,110,16
7,56,110,190
7,63,110,16
7,56,110,190
7,68,110,16
7,56,110,190
7,67,110,16
7,58,110,190
7,63,110,16
7,58,110,190
7,67,110,16
7,58,110,192
7,67,110,16
7,58,110,190
7,61,110,16
7,58,110,190
7,67,110,16
7,58,110,192
7,68,110,14
7,60,110,190
7,63,110,16
7,60,110,190
7,68,110,16
7,60,110,190
7,67,110,14
7,58,110,190
7,63,110,16
7,58,110,190
7,67,110,16
7,58,110,190
7,58,110,204
7,66,110,18
7,66,110,18
7,65,110,10
7,61,110,210
7,65,110,0
7,61,110,16
7,65,110,0
7,61,110,16
7,65,110,0
7,61,110,16
7,65,110,0
7,60,110,14
7,63,110,2
7,68,110,208
7,63,110,18
7,67,110,18
7,70,110,18
7,63,110,16
7,67,110,18
7,70,110,18
7,63,110,16
7,67,110,18
7,70,110,18
7,63,110,16
7,67,110,18
7,70,110,18
7,60,110,208
7,63,110,2
7,68,110,0
