track,note,velocity,time
1,33,122,1536
1,36,126,262
1,38,113,98
1,31,113,118
1,32,118,182
1,33,116,208
1,43,127,280
1,45,97,24
1,43,119,96
1,38,113,72
1,40,113,98
1,36,122,136
1,45,122,168
1,33,122,66
1,36,126,262
1,38,113,98
1,31,113,118
1,32,118,182
1,33,116,208
1,43,127,280
1,45,97,12
1,43,110,96
1,36,110,50
1,38,116,120
1,40,122,40
1,38,103,16
1,40,116,36
1,36,122,8
1,33,122,16
1,36,126,262
1,38,113,98
1,31,113,118
1,32,118,182
1,33,116,208
1,36,91,184
1,45,97,48
1,38,113,46
1,43,95,96
1,38,99,102
1,40,101,66
1,36,110,56
1,33,122,74
1,36,126,262
1,38,113,98
1,31,113,118
1,32,118,182
1,33,116,208
1,43,127,280
1,45,97,12
1,43,110,96
1,36,110,50
1,38,116,120
1,40,122,40
1,38,103,16
1,40,116,36
1,36,122,8
1,33,122,16
1,36,126,262
1,38,113,98
1,31,113,118
1,32,118,182
1,33,116,208
1,43,127,280
1,45,97,24
1,43,119,96
1,38,113,72
1,40,113,98
1,36,122,136
1,45,122,168
1,33,122,66
1,36,126,262
1,38,113,98
1,31,113,118
1,32,118,182
1,33,116,208
1,43,127,280
1,45,97,12
1,43,110,96
1,36,110,50
1,38,116,120
1,40,122,40
1,38,103,16
1,40,116,36
1,36,122,8
1,33,122,16
1,36,126,262
1,38,113,98
1,31,113,118
1,32,118,182
1,33,116,208
1,43,127,280
1,45,97,24
1,43,119,96
1,38,113,72
1,40,113,98
1,36,122,136
1,45,122,168
1,33,122,66
1,36,126,262
1,38,113,98
1,31,113,118
1,32,118,182
1,33,116,208
1,43,127,280
1,45,97,12
1,43,110,96
1,36,110,50
1,38,116,120
1,40,122,40
1,38,103,16
1,40,116,36
1,36,122,8
1,33,122,16
1,36,126,262
1,38,113,98
1,31,113,118
1,32,118,182
1,33,116,208
1,43,127,280
1,45,97,24
1,43,119,96
1,38,113,72
1,40,113,98
1,36,122,136
1,45,122,168
1,33,122,66
1,36,126,262
1,38,113,98
1,31,113,118
1,32,118,182
1,33,116,208
1,43,127,280
1,45,97,12
1,43,110,96
1,36,110,50
1,38,116,120
1,40,122,40
1,38,103,16
1,40,116,36
1,36,122,8
1,33,113,16
1,33,106,200
1,33,116,154
1,33,110,248
1,33,108,150
1,33,113,204
1,33,113,160
1,33,116,72
1,31,119,38
1,33,113,80
1,33,108,194
1,33,116,164
1,33,101,168
1,33,119,166
1,33,113,208
1,33,116,160
1,33,116,154
1,33,126,160
1,31,119,48
1,31,127,152
1,33,127,60
1,33,113,202
1,33,116,154
1,33,116,204
1,33,113,152
1,33,116,214
1,33,116,152
1,33,126,158
1,31,113,30
1,33,116,66
1,33,108,228
1,33,116,148
1,33,113,144
1,33,119,144
1,45,113,32
1,33,116,288
1,45,110,56
1,45,116,46
1,45,119,104
1,45,116,112
1,43,126,96
1,40,106,16
1,33,122,88
1,36,126,262
1,38,113,98
1,31,113,118
1,32,118,182
1,33,116,208
1,43,127,280
1,45,97,24
1,43,119,96
1,38,113,72
1,40,113,98
1,36,122,136
1,45,122,168
1,33,122,66
1,36,126,262
1,38,113,98
1,31,113,118
1,32,118,182
1,33,116,208
1,43,127,280
1,45,97,12
1,43,110,96
1,36,110,50
1,38,116,120
1,40,122,40
1,38,103,16
1,40,116,36
1,36,122,8
1,33,122,16
1,36,126,262
1,38,113,98
1,31,113,118
1,32,118,182
1,33,116,208
1,43,127,280
1,45,97,24
1,43,119,96
1,38,113,72
1,40,113,98
1,36,122,136
1,45,122,168
1,33,122,66
1,36,126,262
1,38,113,98
1,31,113,118
1,32,118,182
1,33,116,208
1,43,127,280
1,45,97,12
1,43,110,96
1,36,110,50
1,38,116,120
1,40,122,40
1,38,103,16
1,40,116,36
1,36,122,8
1,33,122,16
1,36,126,262
1,38,113,98
1,31,113,118
1,32,118,182
1,33,116,208
1,43,127,280
1,45,97,24
1,43,119,96
1,38,113,72
1,40,113,98
1,36,122,136
1,45,122,168
1,33,122,66
1,36,126,262
1,38,113,98
1,31,113,118
1,32,118,182
1,33,116,208
1,43,127,280
1,45,97,12
1,43,110,96
1,36,110,50
1,38,116,120
1,40,122,40
1,38,103,16
1,40,116,36
1,36,122,8
1,33,113,16
1,33,106,200
1,33,116,154
1,33,110,248
1,33,108,150
1,33,113,204
1,33,113,160
1,33,116,72
1,31,119,38
1,33,113,80
1,33,108,194
1,33,116,164
1,33,101,168
1,33,119,166
1,33,113,208
1,33,116,160
1,33,116,154
1,33,126,160
1,31,119,48
1,31,127,152
1,33,127,60
1,33,113,202
1,33,116,154
1,33,116,204
1,33,113,152
1,33,116,214
1,33,116,152
1,33,126,158
1,31,113,30
1,33,116,66
1,33,108,228
1,33,116,148
1,33,113,144
1,33,119,144
1,45,113,32
1,33,116,288
1,45,110,56
1,45,116,46
1,45,119,104
1,45,116,112
1,43,126,96
1,40,106,16
1,33,122,88
1,36,126,262
1,38,113,98
1,31,113,118
1,32,118,182
1,33,116,208
1,43,127,280
1,45,97,24
1,43,119,96
1,38,113,72
1,40,113,98
1,36,122,136
1,45,122,168
1,33,122,66
1,36,126,262
1,38,113,98
1,31,113,118
1,32,118,182
1,33,116,208
1,43,127,280
1,45,97,12
1,43,110,96
1,36,110,50
1,38,116,120
1,40,122,40
1,38,103,16
1,40,116,36
1,36,122,8
1,33,122,16
1,36,126,262
1,38,113,98
1,31,113,118
1,32,118,182
1,33,116,208
1,43,127,280
1,45,97,24
1,43,119,96
1,38,113,72
1,40,113,98
1,36,122,136
1,45,122,168
1,33,122,66
1,36,126,262
1,38,113,98
1,31,113,118
1,32,118,182
1,33,116,208
1,43,127,280
1,45,97,12
1,43,110,96
1,36,110,50
1,38,116,120
1,40,122,40
1,38,103,16
1,40,116,36
1,36,122,8
1,33,127,16
1,33,122,50
1,43,108,214
1,43,95,58
1,43,84,52
1,43,113,148
1,48,110,128
1,43,113,6
1,33,127,128
1,33,127,64
1,43,95,214
1,43,94,56
1,43,94,48
1,43,116,138
1,48,113,138
1,47,113,96
1,45,95,80
1,33,122,120
1,33,126,72
1,43,89,186
1,43,97,54
1,43,99,50
1,43,113,140
1,48,119,128
1,45,113,8
1,33,127,124
1,33,127,70
1,43,99,216
1,43,116,56
1,43,103,46
1,43,119,140
1,48,113,142
1,47,108,96
1,45,99,2
1,33,127,120
1,33,119,64
1,43,99,210
1,43,106,52
1,43,103,50
1,43,113,142
1,48,119,140
1,43,108,40
1,33,127,128
1,33,127,74
1,43,99,184
1,43,106,56
1,43,97,50
1,43,101,144
1,48,119,132
1,45,116,96
1,33,127,214
1,33,127,74
1,43,99,192
1,43,89,48
1,43,92,48
1,43,113,136
1,48,116,130
1,47,110,96
1,45,122,90
1,33,127,132
1,33,127,82
1,43,103,198
1,43,113,50
1,43,116,50
1,43,116,132
1,48,110,124
1,47,103,96
1,45,116,88
1,43,113,66
1,33,122,50
1,36,126,262
1,38,113,98
1,31,113,118
1,32,118,182
1,33,116,208
1,43,127,280
1,45,97,24
1,43,119,96
1,38,113,72
1,40,113,98
1,36,122,136
1,45,122,168
1,33,122,66
1,36,126,262
1,38,113,98
1,31,113,118
1,32,118,182
1,33,116,208
1,43,127,280
1,45,97,12
1,43,110,96
1,36,110,50
1,38,116,120
1,40,122,40
1,38,103,16
1,40,116,36
1,36,122,8
1,33,122,16
1,36,126,262
1,38,113,98
1,31,113,118
1,32,118,182
1,33,116,208
1,43,127,280
1,45,97,24
1,43,119,96
1,38,113,72
1,40,113,98
1,36,122,136
1,45,122,168
1,33,122,66
1,36,126,262
1,38,113,98
1,31,113,118
1,32,118,182
1,33,116,208
1,43,127,280
1,45,97,12
1,43,110,96
1,36,110,50
1,38,116,120
1,40,122,40
1,38,103,16
1,40,116,36
1,36,122,8
1,33,122,16
1,36,126,262
1,38,113,98
1,31,113,118
1,32,118,182
1,33,116,208
1,43,127,280
1,45,97,24
1,43,119,96
1,38,113,72
1,40,113,98
1,36,122,136
1,45,122,168
1,33,122,66
1,36,126,262
1,38,113,98
1,31,113,118
1,32,118,182
1,33,116,208
1,43,127,280
1,45,97,12
1,43,110,96
1,36,110,50
1,38,116,120
1,40,122,40
1,38,103,16
1,40,116,36
1,36,122,8
1,33,122,16
1,36,126,262
1,38,113,98
1,31,113,118
1,32,118,182
1,33,116,208
1,43,127,280
1,45,97,24
1,43,119,96
1,38,113,72
1,40,113,98
1,36,122,136
1,45,122,168
1,33,122,66
1,36,126,262
1,38,113,98
1,31,113,118
1,32,118,182
1,33,116,208
1,43,127,280
1,45,97,12
1,43,110,96
1,36,110,50
1,38,116,120
1,40,122,40
1,38,103,16
1,40,116,36
1,36,122,8
1,33,127,16
1,33,122,6010
1,36,126,262
1,38,113,98
1,31,113,118
1,32,118,182
1,33,116,208
1,43,127,280
1,45,97,24
1,43,119,96
1,38,113,72
1,40,113,98
1,36,122,136
1,45,122,168
1,33,122,66
1,36,126,262
1,38,113,98
1,31,113,118
1,32,118,182
1,33,116,208
1,43,127,280
1,45,97,12
1,43,110,96
1,36,110,50
1,38,116,120
1,40,122,40
1,38,103,16
1,40,116,36
1,36,122,8
1,33,122,16
1,36,126,262
1,38,113,98
1,31,113,118
1,32,118,182
1,33,116,208
1,43,127,280
1,45,97,24
1,43,119,96
1,38,113,72
1,40,113,98
1,36,122,136
1,45,122,168
1,33,122,66
1,36,126,262
1,38,113,98
1,31,113,118
1,32,118,182
1,33,116,208
1,43,127,280
1,45,97,12
1,43,110,96
1,36,110,50
1,38,116,120
1,40,122,40
1,38,103,16
1,40,116,36
1,36,122,8
1,33,122,16
1,36,126,262
1,38,113,98
1,31,113,118
1,32,118,182
1,33,116,208
1,43,127,280
1,45,97,24
1,43,119,96
1,38,113,72
1,40,113,98
1,36,122,136
1,45,122,168
1,33,122,66
1,36,126,262
1,38,113,98
1,31,113,118
1,32,118,182
1,33,116,208
1,43,127,280
1,45,97,12
1,43,110,96
1,36,110,50
1,38,116,120
1,40,122,40
1,38,103,16
1,40,116,36
1,36,122,8
1,33,127,16
2,64,84,13824
2,57,80,0
2,45,106,0
2,60,90,0
2,60,103,512
2,45,103,0
2,64,88,0
2,57,90,0
2,69,106,138
2,66,94,0
2,62,90,0
2,59,82,0
2,69,90,66
2,57,87,0
2,64,84,0
2,60,92,0
2,57,99,202
2,60,109,0
2,64,92,0
2,57,92,336
2,60,103,0
2,64,88,0
2,45,94,242
2,60,76,58
2,57,73,0
2,64,74,0
2,69,109,144
2,66,94,0
2,62,90,0
2,59,87,0
2,67,90,80
2,57,85,0
2,64,87,0
2,60,90,0
2,57,92,228
2,60,103,0
2,64,94,0
2,57,81,334
2,60,94,0
2,64,87,0
2,57,88,336
2,60,96,0
2,64,87,0
2,69,106,142
2,66,98,0
2,62,90,0
2,59,84,0
2,67,87,72
2,57,88,0
2,64,87,0
2,60,90,0
2,60,99,232
2,57,90,0
2,64,88,0
2,57,78,328
2,60,88,0
2,64,85,0
2,60,96,330
2,57,85,0
2,64,90,0
2,69,90,132
2,66,91,0
2,59,78,0
2,62,87,0
2,57,84,104
2,60,87,0
2,64,81,0
2,57,84,232
2,60,94,0
2,64,88,0
2,67,109,140
2,45,122,0
2,57,77,0
2,60,78,0
2,64,76,0
2,60,101,520
2,57,90,0
2,64,94,0
2,69,90,136
2,62,96,0
2,59,88,0
2,66,106,0
2,67,112,120
2,57,87,0
2,60,90,0
2,64,87,0
2,67,112,236
2,60,101,0
2,57,92,0
2,64,90,0
2,57,87,330
2,60,99,0
2,64,90,0
2,64,82,332
2,57,84,0
2,60,94,0
2,62,87,146
2,59,84,0
2,66,94,0
2,57,85,96
2,60,92,0
2,64,85,0
2,60,99,236
2,57,92,0
2,64,88,0
2,57,88,328
2,60,99,0
2,64,87,0
2,67,101,336
2,60,96,0
2,57,90,0
2,64,82,0
2,69,94,142
2,66,94,0
2,62,87,0
2,59,85,0
2,67,112,120
2,64,85,0
2,57,87,0
2,60,92,0
2,60,101,240
2,57,92,0
2,64,85,0
2,64,90,338
2,60,99,0
2,57,90,0
2,60,87,338
2,64,80,0
2,57,87,0
2,62,88,144
2,66,102,0
2,59,85,0
2,57,90,110
2,60,99,0
2,64,90,0
2,57,99,234
2,60,106,0
2,64,94,0
2,64,84,150
2,57,80,0
2,45,106,0
2,60,90,0
2,60,103,512
2,45,103,0
2,64,88,0
2,57,90,0
2,69,106,138
2,66,94,0
2,62,90,0
2,59,82,0
2,69,90,66
2,57,87,0
2,64,84,0
2,60,92,0
2,57,99,202
2,60,109,0
2,64,92,0
2,57,92,336
2,60,103,0
2,64,88,0
2,45,94,242
2,60,76,58
2,57,73,0
2,64,74,0
2,69,109,144
2,66,94,0
2,62,90,0
2,59,87,0
2,67,90,80
2,57,85,0
2,64,87,0
2,60,90,0
2,57,92,228
2,60,103,0
2,64,94,0
2,57,81,334
2,60,94,0
2,64,87,0
2,57,88,336
2,60,96,0
2,64,87,0
2,69,106,142
2,66,98,0
2,62,90,0
2,59,84,0
2,67,87,72
2,57,88,0
2,64,87,0
2,60,90,0
2,60,99,232
2,57,90,0
2,64,88,0
2,57,78,328
2,60,88,0
2,64,85,0
2,60,96,330
2,57,85,0
2,64,90,0
2,69,90,132
2,66,91,0
2,59,78,0
2,62,87,0
2,57,84,104
2,60,87,0
2,64,81,0
2,57,84,232
2,60,94,0
2,64,88,0
2,52,88,140
2,45,96,0
2,60,92,0
2,55,87,0
2,64,84,0
2,64,81,48
2,60,101,0
2,55,90,0
2,57,122,618
2,45,109,62
2,45,115,160
2,57,112,56
2,60,96,154
2,57,90,0
2,64,82,0
2,60,106,70
2,64,90,0
2,57,92,0
2,45,92,434
2,52,85,0
2,45,103,154
2,52,106,0
2,45,103,152
2,52,101,0
2,45,109,58
2,52,112,0
2,55,87,242
2,52,112,0
2,64,73,0
2,45,112,0
2,60,87,0
2,64,88,20
2,60,103,0
2,55,92,0
2,57,119,432
2,45,109,56
2,45,119,156
2,45,112,148
2,57,115,50
2,55,82,154
2,60,85,0
2,45,92,0
2,64,77,0
2,52,96,0
2,60,103,78
2,55,88,0
2,64,88,0
2,45,101,0
2,52,96,0
2,55,84,616
2,45,99,0
2,60,101,0
2,52,96,0
2,64,90,0
2,55,92,240
2,60,109,0
2,64,88,0
2,45,106,0
2,52,112,0
2,52,109,246
2,55,96,0
2,60,103,0
2,64,84,0
2,45,106,0
2,60,109,0
2,55,96,0
2,64,94,0
2,57,109,236
2,45,119,50
2,64,84,632
2,60,96,0
2,55,84,0
2,45,87,0
2,52,88,0
2,64,52,336
2,60,67,0
2,55,64,0
2,52,85,552
2,45,94,0
2,55,88,0
2,60,99,0
2,64,84,0
2,55,90,144
2,64,85,0
2,60,103,0
2,45,103,252
2,52,99,0
2,55,78,48
2,60,92,0
2,64,78,0
2,52,101,140
2,55,94,0
2,60,103,0
2,64,92,0
2,45,106,0
2,60,109,2
2,64,94,0
2,55,96,0
2,45,109,144
2,57,109,60
2,45,109,60
2,52,92,1018
2,45,96,0
2,55,92,0
2,60,103,0
2,64,90,0
2,60,106,240
2,55,94,0
2,52,103,0
2,64,94,0
2,45,109,0
2,60,94,236
2,55,88,0
2,45,92,0
2,52,92,0
2,64,87,0
2,52,96,236
2,60,103,0
2,45,99,0
2,55,92,0
2,64,90,0
2,64,84,422
2,57,80,0
2,45,106,0
2,60,90,0
2,60,103,512
2,45,103,0
2,64,88,0
2,57,90,0
2,69,106,138
2,66,94,0
2,62,90,0
2,59,82,0
2,69,90,66
2,57,87,0
2,64,84,0
2,60,92,0
2,57,99,202
2,60,109,0
2,64,92,0
2,57,92,336
2,60,103,0
2,64,88,0
2,45,94,242
2,60,76,58
2,57,73,0
2,64,74,0
2,69,109,144
2,66,94,0
2,62,90,0
2,59,87,0
2,67,90,80
2,57,85,0
2,64,87,0
2,60,90,0
2,57,92,228
2,60,103,0
2,64,94,0
2,57,81,334
2,60,94,0
2,64,87,0
