track,note,velocity,time
2,36,73,3072
2,36,73,1488
2,36,73,1488
2,36,73,720
2,36,73,720
2,36,73,336
2,36,73,336
2,36,73,336
2,36,73,336
2,36,73,336
2,36,73,336
2,36,73,336
2,36,73,336
2,36,73,336
2,36,73,336
2,36,73,336
2,36,73,336
2,36,73,336
2,36,73,336
2,36,73,336
2,36,73,336
2,36,73,336
2,36,73,336
2,36,73,336
2,36,73,336
2,36,73,336
2,36,73,336
2,36,73,336
2,36,73,336
2,36,73,336
2,36,73,336
2,36,73,336
2,36,73,336
2,36,73,336
2,36,73,336
2,36,73,336
2,36,73,336
2,36,73,336
2,36,73,336
2,36,73,336
2,36,73,336
2,36,73,336
2,36,73,336
2,36,73,336
2,36,73,336
2,36,73,336
2,36,73,336
2,36,73,336
2,36,73,336
2,36,73,336
2,36,73,336
2,36,73,336
2,36,73,336
2,36,73,336
2,36,73,336
2,36,73,336
2,36,73,336
2,36,73,336
2,36,73,336
2,36,73,336
2,36,73,336
2,36,73,336
2,36,73,336
2,36,73,336
2,36,73,336
2,36,73,336
2,36,73,336
2,36,73,336
2,36,73,336
2,36,73,336
2,36,73,336
2,36,73,336
2,36,73,336
2,36,73,336
2,36,73,336
2,36,73,336
2,36,73,336
2,36,73,336
2,36,73,336
2,36,73,336
2,36,73,336
2,36,73,336
2,36,73,336
2,36,73,336
2,36,73,336
2,36,73,336
2,36,73,336
2,36,73,336
2,36,73,336
2,36,73,336
2,36,73,336
2,36,73,336
2,36,73,336
2,36,73,336
2,36,73,336
2,36,73,336
2,36,73,336
2,36,73,336
2,36,73,336
2,36,73,336
2,36,73,336
2,36,73,336
2,36,73,336
2,36,73,336
2,36,73,336
2,36,73,336
2,36,73,336
2,36,73,336
2,36,73,336
2,36,73,336
2,36,73,336
2,36,73,336
2,36,73,336
2,36,73,336
2,36,73,336
2,36,73,336
2,36,73,336
2,36,73,336
2,36,73,336
2,36,73,336
2,36,73,336
2,36,73,336
2,36,73,336
2,36,73,336
2,36,73,336
2,36,73,336
2,36,73,336
2,36,73,336
2,36,73,336
2,36,73,336
2,36,73,336
2,36,73,336
2,36,73,336
2,36,73,336
2,36,73,336
2,36,73,336
2,36,73,336
2,36,73,336
2,36,73,336
2,36,73,336
2,36,73,336
2,36,73,336
2,36,73,336
2,36,73,336
2,36,73,336
2,36,73,336
2,36,73,336
2,36,73,336
2,36,73,336
2,36,73,336
2,36,73,336
2,36,73,336
2,36,73,336
2,36,73,336
2,36,73,336
2,36,73,336
2,36,73,336
2,36,73,336
2,36,73,336
2,36,73,336
2,36,73,336
2,36,73,336
2,36,73,336
2,36,73,336
2,36,73,336
2,36,73,336
2,36,73,336
2,36,73,336
2,36,73,336
2,36,73,336
2,36,73,336
2,36,73,336
2,36,73,336
2,36,73,336
2,36,73,336
2,36,73,336
2,36,73,336
2,36,73,336
2,36,73,336
2,36,73,336
2,36,73,336
2,36,73,336
2,36,73,336
2,36,73,336
2,36,73,336
2,36,73,336
2,36,73,336
2,36,73,336
2,36,73,336
2,36,73,336
2,36,73,336
2,36,73,336
2,36,73,336
2,36,73,336
2,36,73,336
2,36,73,336
2,36,73,336
2,36,73,336
2,36,73,336
2,36,73,336
2,36,73,336
2,36,73,336
2,36,73,336
2,36,73,336
2,36,73,336
2,36,73,336
2,36,73,336
2,36,73,336
2,36,73,336
2,36,73,336
2,36,73,336
2,36,73,336
2,36,73,336
2,36,73,336
2,36,73,336
2,36,73,336
2,36,73,336
2,36,73,336
2,36,73,336
2,36,73,336
2,36,73,336
2,36,73,336
2,36,73,336
2,36,73,336
2,36,73,336
2,36,73,336
2,36,73,336
2,36,73,336
2,36,73,336
2,36,73,336
2,36,73,336
2,36,73,336
2,36,73,336
2,36,73,336
2,36,73,336
2,36,73,336
2,36,73,336
2,36,73,336
2,36,73,336
2,36,73,336
2,36,73,336
2,36,73,336
2,36,73,336
2,36,73,336
2,36,73,336
2,36,73,336
2,36,73,336
2,36,73,336
2,36,73,336
2,36,73,336
2,36,73,336
2,36,73,336
2,36,73,336
2,36,73,336
2,36,73,336
2,36,73,336
2,36,73,336
2,36,73,336
2,36,73,336
2,36,73,336
2,36,73,336
2,36,73,336
2,36,73,336
2,36,73,336
2,36,73,336
2,36,73,336
2,36,73,336
2,36,73,336
2,36,73,336
2,36,73,336
2,36,73,336
2,36,73,336
2,36,73,336
2,36,73,336
2,36,73,336
2,36,73,336
2,36,73,336
2,36,73,336
2,36,73,336
2,36,73,336
2,36,73,336
2,36,73,336
2,36,73,336
2,36,73,336
2,36,73,336
2,36,73,336
2,36,73,336
2,36,73,336
2,36,73,336
2,36,73,336
2,36,73,336
2,36,73,336
2,36,73,336
2,36,73,336
2,36,73,336
2,36,73,336
2,36,73,336
2,36,73,336
2,36,73,336
2,36,73,336
2,36,73,336
2,36,73,336
2,36,73,336
2,36,73,336
2,36,73,336
2,36,73,336
2,36,73,336
2,36,73,336
2,36,73,336
2,36,73,336
2,36,73,336
2,36,73,336
2,36,73,336
2,36,73,336
2,36,73,336
2,36,73,336
2,36,73,336
2,36,73,336
2,36,73,336
2,36,73,336
2,36,73,336
2,36,73,336
2,36,73,336
2,36,73,336
2,36,73,336
2,36,73,336
2,36,73,336
2,36,73,336
2,36,73,336
2,36,73,336
2,36,73,336
2,36,73,336
2,36,73,336
2,36,73,336
2,36,73,336
2,36,73,336
2,36,73,336
2,36,73,336
2,36,73,336
2,36,73,336
2,36,73,336
2,36,73,336
2,36,73,336
2,36,73,336
2,36,73,336
2,36,73,336
2,36,73,336
2,36,73,336
2,36,73,336
2,36,73,336
2,36,73,336
2,36,73,336
2,36,73,336
2,36,73,336
2,36,73,336
2,36,73,336
2,36,73,336
2,36,73,336
2,36,73,336
2,36,73,336
3,38,78,3072
3,38,78,1488
3,38,78,1488
3,38,78,720
3,38,78,1104
3,38,78,720
3,38,78,720
3,38,78,720
3,38,78,720
3,38,78,720
3,38,78,720
3,38,78,720
3,38,78,720
3,38,78,720
3,38,78,720
3,38,78,720
3,38,78,720
3,38,78,720
3,38,78,720
3,38,78,720
3,38,78,720
3,38,78,720
3,38,78,720
3,38,78,720
3,38,78,720
3,38,78,720
3,38,78,720
3,38,78,720
3,38,78,720
3,38,78,720
3,38,78,720
3,38,78,720
3,38,78,720
3,38,78,720
3,38,78,720
3,38,78,720
3,38,78,720
3,38,78,720
3,38,78,720
3,38,78,336
3,38,78,336
3,38,78,720
3,38,78,720
3,38,78,720
3,38,78,720
3,38,78,720
3,38,78,720
3,38,78,720
3,38,78,720
3,38,78,720
3,38,78,720
3,38,78,720
3,38,78,720
3,38,78,720
3,38,78,720
3,38,78,720
3,38,78,720
3,38,78,720
3,38,78,720
3,38,78,720
3,38,78,720
3,38,78,720
3,38,78,720
3,38,78,720
3,38,78,720
3,38,78,720
3,38,78,720
3,38,78,720
3,38,78,720
3,38,78,720
3,38,78,720
3,38,78,720
3,38,78,720
3,38,78,720
3,38,78,720
3,38,78,720
3,38,78,720
3,38,78,720
3,38,78,720
3,38,78,720
3,38,78,720
3,38,78,720
3,38,78,720
3,38,78,720
3,38,78,720
3,38,78,720
3,38,78,720
3,38,78,720
3,38,78,720
3,38,78,720
3,38,78,720
3,38,78,720
3,38,78,336
3,38,78,336
3,38,78,720
3,38,78,720
3,38,78,720
3,38,78,720
3,38,78,720
3,38,78,720
3,38,78,720
3,38,78,720
3,38,78,720
3,38,78,720
3,38,78,720
3,38,78,720
3,38,78,720
3,38,78,720
3,38,78,720
3,38,78,720
3,38,78,720
3,38,78,720
3,38,78,720
3,38,78,720
3,38,78,720
3,38,78,720
3,38,78,720
3,38,78,720
3,38,78,720
3,38,78,720
3,38,78,720
3,38,78,720
3,38,78,720
3,38,78,720
3,38,78,720
3,38,78,720
3,38,78,720
3,38,78,720
3,38,78,720
3,38,78,720
3,38,78,720
3,38,78,720
3,38,78,720
3,38,78,720
3,38,78,720
3,38,78,720
3,38,78,720
3,38,78,720
3,38,78,720
3,38,78,720
3,38,78,720
3,38,78,720
3,38,78,720
3,38,78,720
3,38,78,720
3,38,78,720
3,38,78,720
3,38,78,336
3,38,78,336
3,38,78,720
3,38,78,720
3,38,78,720
3,38,78,720
3,38,78,720
3,38,78,720
3,38,78,720
3,38,78,720
3,38,78,720
3,38,78,720
3,38,78,720
3,38,78,720
3,38,78,720
3,38,78,720
3,38,78,720
3,38,78,720
3,38,78,720
3,38,78,720
3,38,78,720
3,38,78,720
3,38,78,720
3,38,78,720
3,38,78,720
3,38,78,720
3,38,78,720
3,38,78,720
3,38,78,720
3,38,78,720
3,38,78,720
3,38,78,720
3,38,78,720
3,38,78,720
3,38,78,720
3,38,78,720
3,38,78,720
3,38,78,720
4,42,76,7872
4,42,85,152
4,42,76,152
4,42,85,152
4,42,67,152
4,42,85,152
4,42,76,152
4,42,85,152
4,42,76,152
4,42,85,152
4,42,76,152
4,42,85,152
4,42,67,152
4,42,85,152
4,42,76,152
4,42,85,152
4,42,76,152
4,42,85,152
4,42,76,152
4,42,85,152
4,42,67,152
4,42,85,152
4,42,76,152
4,42,85,152
4,42,76,152
4,42,85,152
4,42,76,152
4,42,85,152
4,42,67,152
4,42,85,152
4,42,76,152
4,42,85,152
4,42,76,152
4,42,85,152
4,42,76,152
4,42,85,152
4,42,67,152
4,42,85,152
4,42,76,152
4,42,85,152
4,42,76,152
4,42,85,152
4,42,76,152
4,42,85,152
4,42,67,152
4,42,85,152
4,42,76,152
4,42,85,152
4,42,76,152
4,42,85,152
4,42,76,152
4,42,85,152
4,42,67,152
4,42,85,152
4,42,76,152
4,42,85,152
4,42,76,152
4,42,85,152
4,42,76,152
4,42,85,152
4,42,67,152
4,42,85,152
4,42,76,152
4,42,85,152
4,42,76,152
4,42,85,152
4,42,76,152
4,42,85,152
4,42,67,152
4,42,85,152
4,42,76,152
4,42,85,152
4,42,76,152
4,42,85,152
4,42,76,152
4,42,85,152
4,42,67,152
4,42,85,152
4,42,76,152
4,42,85,152
4,42,76,152
4,42,85,152
4,42,76,152
4,42,85,152
4,42,67,152
4,42,85,152
4,42,76,152
4,42,85,152
4,42,76,152
4,42,85,152
4,42,76,152
4,42,85,152
4,42,67,152
4,42,85,152
4,42,76,152
4,42,85,152
4,42,76,152
4,42,85,152
4,42,76,152
4,42,85,152
4,42,67,152
4,42,85,152
4,42,76,152
4,42,85,152
4,42,76,152
4,42,85,152
4,42,76,152
4,42,85,152
4,42,67,152
4,42,85,152
4,42,76,152
4,42,85,152
4,42,76,152
4,42,85,152
4,42,76,152
4,42,85,152
4,42,67,152
4,42,85,152
4,42,76,152
4,42,85,152
4,42,76,152
4,42,85,152
4,42,76,152
4,42,85,152
4,42,67,152
4,42,85,152
4,42,76,152
4,42,85,152
4,42,76,152
4,42,85,152
4,42,76,152
4,42,85,152
4,42,67,152
4,42,85,152
4,42,76,152
4,42,85,152
4,42,76,152
4,42,85,152
4,42,76,152
4,42,85,152
4,42,76,920
4,42,85,152
4,42,76,152
4,42,85,152
4,42,67,152
4,42,85,152
4,42,76,152
4,42,85,152
4,42,76,152
4,42,85,152
4,42,76,152
4,42,85,152
4,42,67,152
4,42,85,152
4,42,76,152
4,42,85,152
4,42,76,152
4,42,85,152
4,42,76,152
4,42,85,152
4,42,67,152
4,42,85,152
4,42,76,152
4,42,85,152
4,42,76,152
4,42,85,152
4,42,76,152
4,42,85,152
4,42,67,152
4,42,85,152
4,42,76,152
4,42,85,152
4,42,76,152
4,42,85,152
4,42,76,152
4,42,85,152
4,42,67,152
4,42,85,152
4,42,76,152
4,42,85,152
4,42,76,152
4,42,85,152
4,42,76,152
4,42,85,152
4,42,67,152
4,42,85,152
4,42,76,152
4,42,85,152
4,42,76,152
4,42,85,152
4,42,76,152
4,42,85,152
4,42,67,152
4,42,85,152
4,42,76,152
4,42,85,152
4,42,76,152
4,42,85,152
4,42,76,152
4,42,85,152
4,42,67,152
4,42,85,152
4,42,76,152
4,42,85,152
4,42,76,152
4,42,85,152
4,42,76,152
4,42,85,152
4,42,67,152
4,42,85,152
4,42,76,152
4,42,85,152
4,42,76,152
4,42,85,152
4,42,76,152
4,42,85,152
4,42,67,152
4,42,85,152
4,42,76,152
4,42,85,152
4,42,76,152
4,42,85,152
4,42,76,152
4,42,85,152
4,42,67,152
4,42,85,152
4,42,76,152
4,42,85,152
4,42,76,152
4,42,85,152
4,42,76,152
4,42,85,152
4,42,67,152
4,42,85,152
4,42,76,152
4,42,85,152
4,42,76,152
4,42,85,152
4,42,76,152
4,42,85,152
4,42,67,152
4,42,85,152
4,42,76,152
4,42,85,152
4,42,76,152
4,42,85,152
4,42,76,152
4,42,85,152
4,42,67,152
4,42,85,152
4,42,76,152
4,42,85,152
4,42,76,152
4,42,85,152
4,42,76,152
4,42,85,152
4,42,67,152
4,42,85,152
4,42,76,152
4,42,85,152
4,42,76,152
4,42,85,152
4,42,76,152
4,42,85,152
4,42,67,152
4,42,85,152
4,42,76,152
4,42,85,152
4,42,76,152
4,42,85,152
4,42,76,152
4,42,85,152
4,42,67,152
4,42,85,152
4,42,76,152
4,42,85,152
4,42,76,152
4,42,85,152
4,42,76,152
4,42,85,152
4,42,67,152
4,42,85,152
4,42,76,152
4,42,85,152
4,42,76,152
4,42,85,152
4,42,76,152
4,42,85,152
4,42,67,152
4,42,85,152
4,42,76,152
4,42,85,152
4,42,76,152
4,42,85,152
4,42,76,152
4,42,85,152
4,42,67,152
4,42,85,152
4,42,76,152
4,42,85,152
4,42,76,152
4,42,85,152
4,42,76,152
4,42,85,152
4,42,67,152
4,42,85,152
4,42,76,152
4,42,85,152
4,42,76,152
4,42,85,152
4,42,76,152
4,42,85,152
4,42,67,152
4,42,85,152
4,42,76,152
4,42,85,152
4,42,76,152
4,42,85,152
4,42,76,152
4,42,85,152
4,42,67,152
4,42,85,152
4,42,76,152
4,42,85,152
4,42,76,152
4,42,85,152
4,42,76,152
4,42,85,152
4,42,67,152
4,42,85,152
4,42,76,152
4,42,85,152
4,42,76,152
4,42,85,152
4,42,76,152
4,42,85,152
4,42,67,152
4,42,85,152
4,42,76,152
4,42,85,152
4,42,76,152
4,42,85,152
4,42,76,152
4,42,85,152
4,42,76,920
4,42,85,152
4,42,76,152
4,42,85,152
4,42,67,152
4,42,85,152
4,42,76,152
4,42,85,152
4,42,76,152
4,42,85,152
4,42,76,152
4,42,85,152
4,42,67,152
4,42,85,152
4,42,76,152
4,42,85,152
4,42,76,152
4,42,85,152
4,42,76,152
4,42,85,152
4,42,67,152
4,42,85,152
4,42,76,152
4,42,85,152
4,42,76,152
4,42,85,152
4,42,76,152
4,42,85,152
4,42,67,152
4,42,85,152
4,42,76,152
4,42,85,152
4,42,76,152
4,42,85,152
4,42,76,152
4,42,85,152
4,42,67,152
4,42,85,152
4,42,76,152
4,42,85,152
4,42,76,152
4,42,85,152
4,42,76,152
4,42,85,152
4,42,67,152
4,42,85,152
4,42,76,152
4,42,85,152
4,42,76,152
4,42,85,152
4,42,76,152
4,42,85,152
4,42,67,152
4,42,85,152
4,42,76,152
4,42,85,152
4,42,76,152
4,42,85,152
4,42,76,152
4,42,85,152
4,42,67,152
4,42,85,152
4,42,76,152
4,42,85,152
4,42,76,152
4,42,85,152
4,42,76,152
4,42,85,152
4,42,67,152
4,42,85,152
4,42,76,152
4,42,85,152
4,42,76,152
4,42,85,152
4,42,76,152
4,42,85,152
4,42,67,152
4,42,85,152
4,42,76,152
4,42,85,152
4,42,76,152
4,42,85,152
4,42,76,152
4,42,85,152
4,42,67,152
4,42,85,152
4,42,76,152
4,42,85,152
4,42,76,152
4,42,85,152
4,42,76,152
4,42,85,152
4,42,67,152
4,42,85,152
4,42,76,152
4,42,85,152
4,42,76,152
4,42,85,152
4,42,76,152
4,42,85,152
4,42,67,152
4,42,85,152
4,42,76,152
4,42,85,152
4,42,76,152
4,42,85,152
4,42,76,152
4,42,85,152
4,42,67,152
4,42,85,152
4,42,76,152
