track,note,velocity,time
1,59,100,4224
1,64,93,0
1,56,100,0
1,63,89,4
1,58,99,104
1,64,81,0
1,56,96,0
1,61,95,84
1,64,95,4
1,57,100,8
1,56,99,116
1,64,89,4
1,59,83,0
1,64,93,168
1,59,100,0
1,56,99,0
1,63,82,8
1,58,100,132
1,56,86,4
1,64,87,4
1,64,97,52
1,61,97,4
1,57,96,4
1,59,87,48
1,64,87,0
1,56,87,4
1,63,94,328
1,56,94,4
1,59,100,12
1,64,94,0
1,64,89,116
1,58,99,0
1,56,89,0
1,61,86,80
1,64,95,0
1,57,100,4
1,64,84,116
1,56,84,4
1,59,85,8
1,63,86,172
1,59,86,4
1,56,86,0
1,64,86,4
1,58,84,44
1,56,62,4
1,64,75,4
1,64,78,52
1,61,78,4
1,57,78,8
1,64,78,48
1,59,78,0
1,56,80,4
1,63,82,336
1,56,82,0
1,64,82,8
1,59,92,0
1,58,87,116
1,56,77,0
1,64,77,0
1,61,76,76
1,57,81,4
1,64,76,0
1,64,70,116
1,56,70,4
1,59,70,4
1,57,83,156
1,59,83,12
1,61,83,0
1,64,83,12
1,68,83,0
1,54,84,80
1,56,84,4
1,60,84,4
1,64,85,4
1,52,75,176
1,56,75,8
1,59,76,4
1,52,82,52
1,56,65,4
1,58,82,4
1,52,79,92
1,49,79,4
1,57,79,4
1,57,89,28
1,61,89,0
1,52,89,8
1,61,96,80
1,57,96,0
1,64,96,4
1,59,104,124
1,64,104,0
1,56,104,0
1,47,52,440
1,49,72,88
1,52,80,64
1,54,71,68
1,56,70,64
1,59,68,92
1,61,74,68
1,64,73,60
1,64,103,68
1,59,103,4
1,52,103,4
1,64,101,320
1,59,101,8
1,52,101,0
1,63,95,576
1,56,97,0
1,60,100,4
1,56,95,68
1,63,95,0
1,60,100,0
1,63,95,252
1,56,95,4
1,59,95,0
1,64,95,0
1,58,93,40
1,56,71,4
1,64,84,0
1,64,87,52
1,61,87,4
1,57,87,4
1,64,87,52
1,59,87,0
1,56,89,4
1,63,91,328
1,56,91,4
1,64,91,12
1,59,100,0
1,64,86,116
1,58,96,0
1,56,86,0
1,61,85,72
1,64,85,4
1,57,90,4
1,64,71,120
1,56,71,4
1,59,71,12
1,61,74,168
1,59,74,4
1,68,96,8
1,64,96,0
1,54,93,84
1,56,93,4
1,60,93,4
1,64,93,0
1,56,83,188
1,64,87,4
1,59,85,4
1,64,82,60
1,58,82,4
1,56,65,0
1,57,79,96
1,52,79,0
1,61,79,4
1,52,88,24
1,61,88,8
1,57,88,0
1,57,93,80
1,61,93,12
1,64,93,8
1,64,99,124
1,59,99,0
1,56,99,0
1,47,52,444
1,49,59,84
1,52,63,68
1,54,68,64
1,56,73,64
1,59,78,92
1,61,83,64
1,64,88,64
1,64,105,56
1,59,105,12
1,52,105,8
1,64,104,320
1,52,104,4
1,59,104,0
1,56,97,584
1,63,95,0
1,60,100,4
1,60,100,72
1,63,95,0
1,56,95,0
1,63,98,252
1,56,98,4
1,59,98,0
1,64,98,4
1,58,96,44
1,64,87,4
1,56,74,0
1,61,90,48
1,64,90,0
1,57,90,8
1,52,90,48
1,59,90,4
1,56,92,4
1,63,94,332
1,56,94,0
1,59,100,4
1,64,94,4
1,58,99,120
1,64,89,0
1,56,89,0
1,64,88,76
1,61,88,0
1,57,93,4
1,64,74,120
1,56,74,4
1,59,74,8
1,61,91,180
1,68,91,0
1,57,91,0
1,59,91,4
1,64,91,0
1,56,88,92
1,60,88,4
1,54,88,0
1,64,88,0
1,56,86,188
1,59,86,4
1,52,86,0
1,52,71,60
1,56,71,4
1,58,71,0
1,52,79,96
1,49,79,0
1,57,79,0
1,61,89,36
1,52,89,0
1,57,89,0
1,64,93,88
1,61,93,4
1,57,93,0
1,56,97,112
1,64,97,0
1,59,97,0
1,47,52,436
1,49,61,88
1,52,65,76
1,54,69,64
1,56,73,64
1,59,77,96
1,61,80,64
1,64,85,60
1,64,104,64
1,59,104,8
1,52,104,8
1,64,102,316
1,59,102,4
1,52,102,4
1,56,97,584
1,63,95,0
1,60,100,4
1,56,95,64
1,63,95,0
1,60,100,4
1,63,86,252
1,59,86,4
1,56,86,0
1,64,86,4
1,58,84,36
1,56,62,8
1,64,75,4
1,61,78,52
1,64,78,0
1,57,78,8
1,59,78,48
1,64,78,0
1,56,80,4
1,63,82,336
1,56,82,4
1,59,92,8
1,64,82,0
1,58,87,120
1,56,77,0
1,64,77,0
1,61,76,76
1,57,81,4
1,64,76,0
1,64,73,124
1,56,73,4
1,59,73,4
1,59,90,184
1,61,90,0
1,57,90,0
1,64,90,0
1,68,90,0
1,56,88,92
1,54,88,4
1,64,88,0
1,60,88,0
1,56,86,196
1,52,86,4
1,59,86,0
1,52,87,56
1,58,87,4
1,56,70,0
1,49,84,100
1,57,84,0
1,52,84,0
1,52,86,32
1,61,86,0
1,57,86,0
1,64,95,88
1,61,95,0
1,57,95,0
1,56,100,112
1,64,100,4
1,59,99,0
1,47,65,436
1,49,69,88
1,52,73,68
1,54,76,68
1,56,80,60
1,59,84,92
1,61,88,72
1,64,92,56
1,64,103,60
1,59,106,12
1,52,106,8
1,64,105,316
1,52,105,4
1,59,105,0
1,56,106,584
1,60,106,0
1,63,106,0
1,63,106,68
1,56,106,0
1,60,106,4
1,59,96,260
1,64,96,0
1,56,96,0
1,63,96,0
1,58,94,36
1,64,85,8
1,56,72,0
1,64,88,48
1,61,88,4
1,57,88,8
1,52,88,40
1,59,88,4
1,56,90,4
1,56,92,336
1,63,92,0
1,64,92,8
1,59,100,0
1,58,97,116
1,56,87,4
1,64,87,0
1,64,86,84
1,61,86,0
1,57,91,0
1,64,76,120
1,56,76,4
1,59,76,8
1,68,100,176
1,61,100,0
1,57,100,0
1,59,100,4
1,64,100,0
1,64,100,92
1,56,100,0
1,54,100,0
1,60,100,4
1,56,95,192
1,59,97,4
1,64,99,0
1,64,94,60
1,58,94,0
1,56,77,0
1,52,91,104
1,61,91,0
1,57,91,0
1,61,93,36
1,52,93,0
1,57,93,0
1,57,100,92
1,61,100,0
1,64,100,0
1,59,100,116
1,56,100,0
1,64,100,0
1,47,68,440
1,49,74,88
1,52,79,68
1,54,84,72
1,56,90,56
1,59,95,92
1,61,100,72
1,64,100,60
1,64,100,60
1,59,100,16
1,52,100,8
1,64,100,316
1,59,100,8
1,52,100,4
1,60,100,580
1,63,100,0
1,56,100,0
1,56,100,72
1,63,100,0
1,60,100,4
1,59,98,256
1,56,98,0
1,63,98,0
1,64,98,4
1,58,96,36
1,56,74,4
1,64,87,4
1,64,90,52
1,61,90,0
1,57,90,16
1,59,90,48
1,52,90,0
1,56,92,4
1,56,94,336
1,63,94,0
1,59,100,8
1,64,94,0
1,58,99,112
1,64,89,0
1,56,89,0
1,57,93,84
1,64,88,0
1,61,88,0
1,64,74,120
1,56,74,4
1,59,74,4
1,61,100,176
1,57,100,0
1,68,100,0
1,64,100,4
1,59,100,0
1,56,100,96
1,54,100,4
1,64,100,0
1,60,100,0
1,64,95,196
1,56,91,0
1,59,93,0
1,64,90,60
1,58,90,0
1,56,73,0
1,52,87,104
1,61,87,0
1,57,87,0
1,61,89,36
1,57,89,4
1,52,89,0
1,64,99,88
1,57,99,0
1,61,99,0
1,56,110,112
1,64,110,4
1,59,110,0
1,47,82,440
1,49,85,92
1,52,87,64
1,54,90,68
1,56,92,52
1,59,95,92
1,61,97,72
1,64,100,64
1,64,102,60
1,59,102,12
1,56,103,4
1,64,110,320
1,56,110,4
1,59,110,0
2,37,98,3824
2,32,61,228
2,37,95,40
2,32,77,80
2,31,76,92
2,30,84,96
2,37,96,216
2,42,95,68
2,42,91,68
2,37,72,164
2,36,73,64
2,35,87,76
2,42,80,100
2,35,87,84
2,35,70,460
2,37,78,68
2,40,84,68
2,40,90,188
2,40,96,176
2,40,102,32
2,34,84,32
2,35,59,68
2,37,98,64
2,32,61,204
2,37,95,40
2,32,77,92
2,31,76,88
2,30,84,96
2,37,96,208
2,42,95,76
2,42,91,64
2,37,72,160
2,36,73,64
2,35,87,80
2,42,93,228
2,47,96,56
2,35,92,44
2,35,70,148
2,37,78,68
2,40,84,72
2,40,90,192
2,40,96,164
2,40,102,32
2,34,84,36
2,35,59,68
2,37,98,60
2,44,61,220
2,37,95,40
2,32,77,112
2,31,76,88
2,30,84,96
2,35,79,116
2,38,79,72
2,42,95,76
2,42,91,64
2,37,72,160
2,36,73,64
2,35,87,76
2,42,93,220
2,35,96,52
2,35,92,168
2,37,70,16
2,40,78,72
2,40,84,72
2,40,90,172
2,40,96,160
2,40,102,144
2,34,84,32
2,35,59,68
2,37,98,64
2,32,61,232
2,37,95,40
2,32,77,92
2,31,76,80
2,30,84,96
2,37,96,220
2,42,95,80
2,37,72,100
2,36,73,64
2,35,87,80
2,42,93,240
2,47,96,52
2,35,70,88
2,37,78,72
2,40,84,68
2,35,69,208
2,40,96,32
2,40,102,144
2,34,84,72
2,35,59,68
2,37,98,64
2,44,61,208
2,37,95,36
2,32,77,100
2,31,76,88
2,30,84,96
2,35,79,100
2,38,79,72
2,42,95,72
2,29,91,32
2,37,72,160
2,36,73,64
2,35,87,72
2,42,93,228
2,47,96,56
2,35,92,148
2,37,70,16
2,40,78,68
2,40,84,72
2,35,90,216
2,40,96,24
2,32,102,48
2,33,84,120
2,35,59,64
2,33,97,64
2,40,79,232
2,45,98,80
2,45,95,68
2,40,66,100
2,36,75,104
2,32,80,100
2,36,80,48
2,39,85,104
2,36,42,60
2,44,84,96
2,39,89,96
2,35,65,96
2,36,58,104
2,37,93,104
2,44,66,228
2,49,88,100
2,40,73,88
2,41,90,100
2,42,97,76
2,37,92,80
2,33,76,92
2,32,88,92
2,30,83,100
2,37,78,100
2,36,96,84
2,35,92,76
2,42,87,56
2,47,90,56
2,35,69,64
2,35,82,80
2,42,89,96
2,47,100,172
2,35,69,64
2,35,87,80
2,42,63,144
2,47,97,84
2,35,69,44
2,35,76,76
2,42,50,116
2,42,89,100
2,35,97,12
2,37,80,44
2,40,98,12
2,35,73,376
2,37,81,60
2,40,82,56
2,42,82,52
2,44,80,56
2,47,79,64
2,49,88,52
2,52,95,44
2,52,92,64
2,40,94,40
2,40,111,184
2,32,93,508
2,32,93,60
2,32,95,76
2,37,98,60
2,44,81,196
2,37,95,60
2,32,77,76
2,31,76,92
2,30,84,92
2,37,96,224
2,42,95,80
2,37,72,100
2,36,73,64
2,35,87,76
2,42,93,232
2,47,96,52
2,35,70,100
2,37,78,72
2,40,94,72
2,32,85,44
2,35,94,108
2,40,87,28
2,32,89,28
2,34,71,96
2,35,82,72
2,37,92,64
2,44,90,220
2,49,90,12
2,32,84,104
2,31,81,72
2,30,88,84
2,33,72,88
2,37,89,76
2,42,82,88
2,42,89,72
2,42,83,84
2,37,90,124
2,36,87,72
2,35,95,80
2,42,93,236
2,47,96,52
2,35,92,144
2,37,70,16
2,40,78,72
2,40,84,68
2,40,88,168
2,35,89,160
2,37,90,28
2,40,94,24
2,35,84,96
2,34,59,68
2,33,97,64
2,40,79,220
2,45,98,84
2,45,95,68
2,40,66,100
2,36,75,104
2,32,80,100
2,36,80,108
2,39,85,108
2,36,42,60
2,44,84,100
2,44,101,24
2,39,89,84
2,34,101,16
2,35,65,80
2,36,58,68
2,37,93,64
2,44,66,220
2,49,88,104
2,32,73,108
2,31,90,104
2,30,97,72
2,34,92,80
2,37,76,236
2,42,83,92
2,37,88,40
2,30,101,144
2,36,96,48
2,35,92,80
2,42,69,232
2,35,90,80
2,42,67,96
2,42,79,80
2,35,92,80
2,42,69,220
2,35,90,84
2,35,79,212
2,40,101,80
2,35,73,368
2,37,81,60
2,40,82,60
2,42,82,52
2,44,80,44
2,47,79,68
2,49,88,48
2,52,95,44
2,52,92,64
2,40,53,168
2,52,111,108
2,32,93,508
2,32,93,64
2,32,69,16
2,36,95,80
2,37,98,80
2,44,81,220
2,37,95,60
2,40,77,96
2,41,76,88
2,42,84,96
2,37,87,92
2,32,82,80
2,30,82,76
2,32,86,128
2,30,78,84
2,36,73,4
2,35,87,76
2,35,93,228
2,35,96,56
2,35,81,168
2,37,78,60
2,39,97,76
2,40,94,64
2,32,85,44
2,33,94,32
2,35,94,80
2,40,87,56
2,35,89,32
2,44,98,4
2,35,82,76
2,37,92,64
2,44,90,232
2,49,90,16
2,28,84,92
2,29,81,76
2,30,88,88
2,34,72,148
2,37,89,176
2,34,89,100
2,42,83,96
2,33,87,48
2,35,95,84
2,42,93,220
2,47,96,56
2,42,70,96
2,41,78,72
2,40,84,68
2,40,88,168
2,35,89,172
2,37,90,24
2,40,94,20
2,35,84,104
2,34,59,68
2,33,97,64
2,37,97,188
2,40,98,188
2,45,95,92
2,40,66,96
2,36,75,108
2,32,80,100
2,36,80,108
2,42,85,152
2,43,66,48
2,44,84,60
2,36,89,152
2,39,101,20
2,39,65,80
2,36,58,72
2,37,93,60
2,40,66,88
2,42,66,84
2,44,88,64
2,49,88,40
2,49,101,72
2,37,93,0
2,40,90,120
2,42,97,72
2,30,92,64
2,34,92,40
2,34,81,52
2,34,81,68
2,37,83,72
2,42,88,76
2,34,81,64
2,37,96,60
2,37,76,48
2,36,76,68
2,35,92,80
2,47,69,220
2,35,90,76
2,47,73,92
2,42,80,80
2,35,92,80
2,47,69,228
2,42,69,84
2,35,90,0
2,42,100,68
2,42,79,64
2,40,79,84
2,35,79,80
2,40,101,80
2,35,73,380
2,37,81,64
2,40,82,64
2,42,82,56
2,44,80,52
2,47,79,68
2,49,88,48
2,52,95,44
2,52,92,64
2,54,39,40
2,56,29,24
2,52,111,24
2,32,93,504
2,32,93,64
2,32,69,16
2,36,95,84
2,37,98,80
2,44,69,92
2,44,81,64
2,37,95,60
2,40,77,100
2,41,76,84
2,42,84,96
2,37,96,208
2,42,95,80
2,37,96,128
2,42,95,80
2,36,73,160
2,35,87,80
2,47,101,232
2,35,96,60
2,35,101,40
2,35,70,192
2,37,78,72
2,40,94,72
2,32,85,44
2,35,94,108
2,40,87,32
2,32,89,36
2,34,71,100
2,35,82,64
2,37,92,64
2,44,90,220
2,49,90,12
2,32,84,92
2,31,81,72
2,30,88,80
2,44,89,84
2,45,82,24
2,46,89,72
2,42,83,80
2,37,90,120
2,35,87,76
2,35,95,80
2,42,93,232
2,35,96,52
2,35,92,92
2,37,70,16
2,40,84,72
2,54,101,0
2,55,101,24
2,56,101,32
2,35,101,12
2,37,101,16
2,40,101,28
2,37,90,16
2,40,94,24
2,35,91,120
2,34,91,68
2,33,104,64
2,37,103,188
2,45,104,188
2,40,85,64
2,45,101,36
2,29,72,48
2,30,81,52
2,32,86,60
2,36,86,108
2,42,91,148
2,43,88,48
2,44,90,60
2,36,107,20
2,39,95,80
2,34,107,16
2,48,71,80
2,36,64,72
2,37,99,60
2,44,72,220
2,49,94,100
2,28,79,112
2,29,96,100
2,30,103,76
2,32,98,100
2,31,82,64
2,29,89,92
2,44,104,60
2,43,94,56
2,42,107,56
2,36,102,132
2,35,98,80
2,35,75,220
2,35,96,80
2,47,73,92
2,42,85,80
2,35,98,80
2,47,107,232
2,35,96,64
2,42,75,0
2,35,85,112
2,37,85,80
2,40,113,80
2,35,79,408
2,37,87,60
2,40,88,60
2,42,88,56
2,44,86,52
2,47,85,64
2,49,94,56
2,52,101,40
2,52,98,60
2,52,117,300
2,32,99,508
2,32,99,64
2,32,75,16
2,36,101,80
2,37,98,80
2,44,81,224
2,37,95,60
2,40,77,92
2,41,76,88
2,42,84,96
2,37,87,92
2,32,82,84
2,30,82,80
2,32,86,128
2,30,78,80
2,36,73,24
2,35,87,76
2,35,93,220
2,35,96,52
2,35,81,168
2,37,78,60
2,39,97,72
2,40,94,64
2,32,85,44
2,33,94,32
2,35,94,80
2,40,87,56
2,35,89,32
2,44,98,0
2,35,82,76
2,37,92,68
2,44,90,228
2,49,90,16
2,28,84,100
2,29,81,68
2,30,88,84
2,34,72,172
2,37,89,192
2,34,89,108
