track,note,velocity,time
2,35,58,6144
2,35,27,624
2,35,58,48
2,35,43,144
2,35,58,528
2,35,43,144
2,35,58,528
2,35,43,144
2,35,58,528
2,35,43,144
2,35,58,528
2,35,43,144
2,35,58,528
2,35,43,144
2,35,58,528
2,35,43,144
2,35,58,528
2,35,43,528
2,35,58,144
2,35,58,720
2,35,43,528
2,35,58,144
2,35,58,720
2,35,43,528
2,35,58,144
2,35,58,720
2,35,43,528
2,35,58,144
2,35,58,720
2,35,43,528
2,35,58,144
2,35,58,720
2,35,43,528
2,35,58,144
2,35,58,720
2,35,43,528
2,35,58,144
2,35,58,720
2,35,43,528
2,35,58,144
2,35,58,720
2,35,43,528
2,35,58,144
2,35,58,720
2,35,43,528
2,35,58,144
2,35,58,720
2,35,43,528
2,35,58,144
2,35,58,720
2,35,43,528
2,35,58,144
2,35,58,720
2,35,43,528
2,35,58,144
2,35,58,720
2,35,43,528
2,35,58,144
2,35,58,720
2,35,43,528
2,35,58,144
2,35,58,720
2,35,43,528
2,35,58,144
2,35,58,720
2,35,43,528
2,35,58,144
2,35,58,720
2,35,43,528
2,35,58,144
2,35,58,720
2,35,43,528
2,35,58,144
2,35,58,720
2,35,43,528
2,35,58,144
2,35,58,720
2,35,43,528
2,35,58,144
2,35,58,720
2,35,43,528
2,35,58,144
2,35,58,720
2,35,43,528
2,35,58,144
2,35,58,720
2,35,43,528
2,35,58,144
2,35,58,720
2,35,43,528
2,35,58,144
2,35,58,720
2,35,43,528
2,35,58,144
2,35,58,720
2,35,43,528
2,35,58,144
2,35,58,720
2,35,43,528
2,35,58,144
2,35,58,720
2,35,43,528
2,35,58,144
2,35,58,720
2,35,43,528
2,35,58,144
2,35,58,720
2,35,43,528
2,35,58,144
2,35,58,720
2,35,43,528
2,35,58,144
2,35,58,720
2,35,43,528
2,35,58,144
2,35,58,720
2,35,43,528
2,35,58,144
2,35,58,720
2,35,43,528
2,35,58,144
2,35,58,720
2,35,43,528
2,35,58,144
2,35,58,720
2,35,43,528
2,35,58,144
2,35,58,720
2,35,43,528
2,35,58,144
2,35,58,720
2,35,43,528
2,35,58,144
2,35,58,720
2,35,43,528
2,35,58,144
2,35,58,720
2,35,43,528
2,35,58,144
2,35,58,720
2,35,43,528
2,35,58,144
2,35,58,720
2,35,43,528
2,35,58,144
2,35,58,720
2,35,43,528
2,35,58,144
2,35,58,720
2,35,43,528
2,35,58,144
2,35,58,720
2,35,43,528
2,35,58,144
2,35,58,720
2,35,43,528
2,35,58,144
2,35,58,720
2,35,43,528
2,35,58,144
2,35,58,720
2,35,43,528
2,35,58,144
2,35,58,720
2,35,43,528
2,35,58,144
2,35,58,720
2,35,43,528
2,35,58,144
2,35,58,720
2,35,43,528
2,35,58,144
2,35,58,720
2,35,43,528
2,35,58,144
2,35,58,720
2,35,43,528
2,35,58,144
2,35,58,720
2,35,43,528
2,35,58,144
2,35,58,720
2,35,43,528
2,35,58,144
2,35,58,720
2,35,43,528
2,35,58,144
2,35,58,720
2,35,43,528
2,35,58,144
2,35,58,720
2,35,43,528
2,35,58,144
2,35,58,720
2,35,43,528
2,35,58,144
2,35,58,720
2,35,43,528
2,35,58,144
2,35,58,720
2,35,43,528
2,35,58,144
2,35,58,720
2,35,43,528
2,35,58,144
2,35,58,720
2,35,43,528
2,35,58,144
2,35,58,720
2,35,43,528
2,35,58,144
2,35,58,720
2,35,43,528
2,35,58,144
2,35,58,720
2,35,43,528
2,35,58,144
2,35,58,720
2,35,43,528
2,35,58,144
2,35,58,720
2,35,43,528
2,35,58,144
2,35,58,720
2,35,43,528
2,35,58,144
2,35,58,720
2,35,43,528
2,35,58,144
2,35,58,720
2,35,43,528
2,35,58,144
2,35,58,720
2,35,43,528
2,35,58,144
2,35,58,720
2,35,43,528
2,35,58,144
3,38,63,6528
3,38,63,720
3,38,63,720
3,38,63,720
3,38,63,720
3,38,63,720
3,38,63,720
3,38,63,720
3,38,63,720
3,38,63,720
3,38,63,720
3,38,63,720
3,38,63,720
3,38,63,720
3,38,63,720
3,38,63,720
3,38,63,720
3,38,63,720
3,38,63,720
3,38,63,720
3,38,63,720
3,38,63,720
3,38,63,720
3,38,63,720
3,38,63,720
3,38,22,432
3,38,31,48
3,38,43,48
3,38,37,48
3,38,49,48
3,38,57,48
3,38,63,528
3,38,63,720
3,38,63,720
3,38,63,720
3,38,63,720
3,38,63,720
3,38,63,720
3,38,63,720
3,38,63,720
3,38,63,720
3,38,63,720
3,38,63,720
3,38,63,720
3,38,63,720
3,38,63,720
3,38,63,720
3,38,63,720
3,38,63,720
3,38,63,720
3,38,63,720
3,38,63,720
3,38,63,720
3,38,63,720
3,38,63,720
3,38,63,720
3,38,63,720
3,38,63,720
3,38,63,720
3,38,63,720
3,38,63,720
3,38,63,720
3,38,63,720
3,38,63,720
3,38,22,432
3,38,31,48
3,38,43,48
3,38,37,48
3,38,49,48
3,38,57,48
3,38,63,528
3,38,63,720
3,38,63,720
3,38,63,720
3,38,63,720
3,38,63,720
3,38,63,720
3,38,63,720
3,38,63,720
3,38,63,720
3,38,63,720
3,38,63,720
3,38,63,720
3,38,63,720
3,38,63,720
3,38,63,720
3,38,63,720
3,38,63,720
3,38,63,720
3,38,63,720
3,38,63,720
3,38,63,720
3,38,63,720
3,38,22,432
3,38,31,48
3,38,43,48
3,38,37,48
3,38,49,48
3,38,57,48
3,38,63,528
3,38,63,720
3,38,63,720
3,38,63,720
3,38,63,720
3,38,63,720
3,38,63,720
3,38,63,720
3,38,63,720
3,38,63,720
3,38,63,720
3,38,63,720
3,38,63,720
3,38,63,720
3,38,63,720
3,38,63,720
3,38,63,720
3,38,63,720
3,38,63,720
3,38,63,720
3,38,63,720
3,38,63,720
3,38,63,720
3,38,63,336
3,38,46,16
3,38,31,16
3,38,63,16
3,38,63,144
3,38,46,16
3,38,31,16
3,38,43,16
3,38,34,16
3,38,40,16
3,38,63,400
3,38,63,720
3,38,63,720
3,38,63,720
3,38,63,720
3,38,63,720
3,38,63,720
3,38,63,720
3,38,63,720
3,38,63,720
3,38,63,720
3,38,63,720
3,38,63,720
3,38,63,720
3,38,63,720
3,38,63,720
3,38,63,720
3,38,63,720
3,38,63,720
3,38,63,720
3,38,63,720
3,38,63,720
3,38,63,720
3,38,63,720
3,38,63,720
3,38,63,720
3,38,63,720
3,38,63,720
3,38,63,720
3,38,63,720
3,38,63,720
3,38,63,720
3,38,63,720
3,38,63,720
3,38,63,720
3,38,63,720
3,38,63,720
3,38,63,720
3,38,63,720
3,38,63,720
3,38,63,720
3,38,63,720
3,38,63,720
3,38,63,720
3,38,63,720
3,38,63,720
3,38,63,720
3,38,63,720
4,42,78,6144
4,42,38,162
4,42,26,56
4,42,78,42
4,42,42,152
4,42,30,60
4,42,78,44
4,42,42,152
4,42,78,156
4,42,26,62
4,42,44,34
4,42,22,66
4,42,78,58
4,42,34,66
4,42,38,42
4,42,26,56
4,42,78,42
4,42,14,56
4,42,42,32
4,42,30,60
4,42,78,44
4,42,26,56
4,42,42,32
4,42,22,60
4,42,78,50
4,42,26,62
4,42,44,34
4,42,22,66
4,42,78,58
4,42,34,66
4,42,38,42
4,42,26,56
4,42,78,42
4,42,14,56
4,42,42,32
4,42,30,60
4,42,78,44
4,42,26,56
4,42,42,32
4,42,22,60
4,42,78,50
4,42,26,62
4,42,44,34
4,42,22,66
4,42,78,58
4,42,34,66
4,42,38,42
4,42,26,56
4,42,78,42
4,42,14,56
4,42,42,32
4,42,30,60
4,42,78,44
4,42,26,56
4,42,42,32
4,42,22,60
4,42,78,50
4,42,26,62
4,42,44,34
4,42,22,66
4,42,78,58
4,42,34,66
4,42,38,42
4,42,26,56
4,42,78,42
4,42,14,56
4,42,42,32
4,42,30,60
4,42,78,44
4,42,26,56
4,42,42,32
4,42,22,60
4,42,78,50
4,42,26,62
4,42,44,34
4,42,22,66
4,42,78,58
4,42,34,66
4,42,38,42
4,42,26,56
4,42,78,42
4,42,14,56
4,42,42,32
4,42,30,60
4,42,78,44
4,42,26,56
4,42,42,32
4,42,22,60
4,42,78,50
4,42,26,62
4,42,44,34
4,42,22,66
4,42,78,58
4,42,34,66
4,42,38,42
4,42,26,56
4,42,78,42
4,42,14,56
4,42,42,32
4,42,30,60
4,42,78,44
4,42,26,56
4,42,42,32
4,42,22,60
4,42,78,50
4,42,26,62
4,42,44,34
4,42,22,66
4,42,78,58
4,42,34,66
4,42,38,42
4,42,26,56
4,42,78,42
4,42,14,56
4,42,42,32
4,42,30,60
4,42,78,44
4,42,26,56
4,42,42,32
4,42,22,60
4,42,78,50
4,42,26,62
4,42,44,34
4,42,22,66
4,42,78,58
4,42,34,66
4,42,38,42
4,42,26,56
4,42,78,42
4,42,14,56
4,42,42,32
4,42,30,60
4,42,78,44
4,42,26,56
4,42,42,32
4,42,22,60
4,42,78,50
4,42,26,62
4,42,44,34
4,42,22,66
4,42,78,58
4,42,34,66
4,42,38,42
4,42,26,56
4,42,78,42
4,42,14,56
4,42,42,32
4,42,30,60
4,42,78,44
4,42,26,56
4,42,42,32
4,42,22,60
4,42,78,50
4,42,26,62
4,42,44,34
4,42,22,66
4,42,78,58
4,42,34,66
4,42,38,42
4,42,26,56
4,42,78,42
4,42,14,56
4,42,42,32
4,42,30,60
4,42,78,44
4,42,26,56
4,42,42,32
4,42,22,60
4,42,78,50
4,42,26,62
4,42,44,34
4,42,22,66
4,42,78,58
4,42,34,66
4,42,38,42
4,42,26,56
4,42,78,42
4,42,14,56
4,42,42,32
4,42,30,60
4,42,78,44
4,42,26,56
4,42,42,32
4,42,22,60
4,42,78,50
4,42,26,62
4,42,44,34
4,42,22,66
4,42,78,58
4,42,34,66
4,42,38,42
4,42,26,56
4,42,78,42
4,42,14,56
4,42,42,32
4,42,30,60
4,42,78,44
4,42,26,56
4,42,42,32
4,42,22,60
4,42,78,50
4,42,26,62
4,42,44,34
4,42,22,66
4,42,78,58
4,42,34,66
4,42,38,42
4,42,26,56
4,42,78,42
4,42,14,56
4,42,42,32
4,42,30,60
4,42,78,44
4,42,26,56
4,42,42,32
4,42,22,60
4,42,78,50
4,42,26,62
4,42,44,34
4,42,22,66
4,42,78,58
4,42,34,66
4,42,38,42
4,42,26,56
4,42,78,42
4,42,14,56
4,42,42,32
4,42,30,60
4,42,78,44
4,42,26,56
4,42,42,32
4,42,22,60
4,42,78,50
4,42,26,62
4,42,44,34
4,42,22,66
4,42,78,58
4,42,34,66
4,42,38,42
4,42,26,56
4,42,78,42
4,42,14,56
4,42,42,32
4,42,30,60
4,42,78,44
4,42,26,56
4,42,42,32
4,42,22,60
4,42,78,50
4,42,26,62
4,42,44,34
4,42,22,66
4,42,78,58
4,42,34,66
4,42,38,42
4,42,26,56
4,42,78,42
4,42,14,56
4,42,42,32
4,42,30,60
4,42,78,44
4,42,26,56
4,42,42,32
4,42,22,60
4,42,78,50
4,42,26,62
4,42,44,34
4,42,22,66
4,42,78,58
4,42,34,66
4,42,38,42
4,42,26,56
4,42,78,42
4,42,14,56
4,42,42,32
4,42,30,60
4,42,78,44
4,42,26,56
4,42,42,32
4,42,22,60
4,42,78,50
4,42,26,62
4,42,44,34
4,42,22,66
4,42,78,58
4,42,34,66
4,42,38,42
4,42,26,56
4,42,78,42
4,42,14,56
4,42,42,32
4,42,30,60
4,42,78,44
4,42,26,56
4,42,42,32
4,42,22,60
4,42,78,50
4,42,26,62
4,42,44,34
4,42,22,66
4,42,78,58
4,42,34,66
4,42,38,42
4,42,26,56
4,42,78,42
4,42,14,56
4,42,42,32
4,42,30,60
4,42,78,44
4,42,26,56
4,42,42,32
4,42,22,60
4,42,78,50
4,42,26,62
4,42,44,34
4,42,22,66
4,42,78,58
4,42,34,66
4,42,38,42
4,42,26,56
4,42,78,42
4,42,14,56
4,42,42,32
4,42,30,60
4,42,78,44
4,42,26,56
4,42,42,32
4,42,22,60
4,42,78,50
4,42,26,62
4,42,44,34
4,42,22,66
4,42,78,58
4,42,34,66
4,42,38,42
4,42,26,56
4,42,78,42
4,42,14,56
4,42,42,32
4,42,30,60
4,42,78,44
4,42,26,56
4,42,42,32
4,42,22,60
4,42,78,50
4,42,26,62
4,42,44,34
4,42,22,66
4,42,78,58
4,42,34,66
4,42,38,42
4,42,26,56
4,42,78,42
4,42,14,56
4,42,42,32
4,42,30,60
4,42,78,44
4,42,26,56
4,42,42,32
4,42,22,60
4,42,78,50
4,42,26,62
4,42,44,34
4,42,22,66
4,42,78,58
4,42,34,66
4,42,38,42
4,42,26,56
4,42,78,42
4,42,14,56
4,42,42,32
4,42,30,60
4,42,78,44
4,42,26,56
4,42,42,32
4,42,22,60
4,42,78,50
4,42,26,62
4,42,44,34
4,42,22,66
4,42,78,58
4,42,34,66
4,42,38,42
4,42,26,56
4,42,78,42
4,42,14,56
4,42,42,32
4,42,30,60
4,42,78,44
4,42,26,56
4,42,42,32
4,42,22,60
4,42,78,50
4,42,26,62
4,42,44,34
4,42,22,66
4,42,78,58
4,42,34,66
4,42,38,42
4,42,26,56
4,42,78,42
4,42,14,56
4,42,42,32
4,42,30,60
4,42,78,44
4,42,26,56
4,42,42,32
4,42,22,60
4,42,78,50
4,42,26,62
4,42,44,34
4,42,22,66
4,42,78,58
4,42,34,66
4,42,38,42
4,42,26,56
4,42,78,42
4,42,14,56
4,42,42,32
4,42,30,60
4,42,78,44
4,42,26,56
4,42,42,32
4,42,22,60
4,42,78,50
4,42,26,62
4,42,44,34
4,42,22,66
4,42,78,58
4,42,34,66
4,42,38,42
4,42,26,56
4,42,78,42
4,42,14,56
4,42,42,32
4,42,30,60
4,42,78,44
4,42,26,56
4,42,42,32
4,42,22,60
4,42,78,50
4,42,26,62
4,42,44,34
4,42,22,66
4,42,78,58
4,42,34,66
4,42,38,42
4,42,26,56
4,42,78,42
4,42,14,56
4,42,42,32
4,42,30,60
4,42,78,44
4,42,26,56
4,42,42,32
4,42,22,60
4,42,78,50
4,42,26,62
4,42,44,34
4,42,22,66
4,42,78,58
4,42,34,66
4,42,38,42
4,42,26,56
4,42,78,42
4,42,14,56
4,42,42,32
4,42,30,60
4,42,78,44
4,42,26,56
4,42,42,32
4,42,22,60
4,42,78,50
4,42,26,62
4,42,44,34
4,42,22,66
4,42,78,58
4,42,34,66
4,42,38,42
4,42,26,56
4,42,78,42
4,42,14,56
4,42,42,32
4,42,30,60
4,42,78,44
4,42,26,56
4,42,42,32
4,42,22,60
4,42,78,50
4,42,26,62
4,42,44,34
4,42,22,66
4,42,78,58
4,42,34,66
4,42,38,42
4,42,26,56
4,42,78,42
4,42,14,56
4,42,42,32
4,42,30,60
4,42,78,44
4,42,26,56
4,42,42,32
4,42,22,60
4,42,78,50
4,42,26,62
4,42,44,34
4,42,22,66
4,42,78,58
4,42,34,66
4,42,38,42
4,42,26,56
4,42,78,42
4,42,14,56
4,42,42,32
4,42,30,60
4,42,78,44
4,42,26,56
4,42,42,32
4,42,22,60
4,42,78,50
4,42,26,62
4,42,44,34
4,42,22,66
4,42,78,58
4,42,34,66
4,42,38,42
4,42,26,56
4,42,78,42
4,42,14,56
4,42,42,32
4,42,30,60
4,42,78,44
4,42,26,56
4,42,42,32
4,42,22,60
4,42,78,50
4,42,26,62
4,42,44,34
4,42,22,66
4,42,78,58
4,42,34,66
4,42,38,42
4,42,26,56
4,42,78,42
4,42,14,56
4,42,42,32
4,42,30,60
4,42,78,44
4,42,26,56
4,42,42,32
4,42,22,60
4,42,78,50
4,42,26,62
4,42,44,34
4,42,22,66
4,42,78,58
4,42,34,66
4,42,38,42
4,42,26,56
4,42,78,42
4,42,14,56
4,42,42,32
4,42,30,60
4,42,78,44
4,42,26,56
4,42,42,32
4,42,22,60
4,42,78,50
4,42,26,62
4,42,44,34
4,42,22,66
4,42,78,58
4,42,34,66
4,42,38,42
4,42,26,56
4,42,78,42
4,42,14,56
4,42,42,32
4,42,30,60
4,42,78,44
4,42,26,56
