track,note,velocity,time
1,42,127,139
1,42,0,5
1,42,100,115
1,42,0,5
1,42,100,115
1,42,0,5
1,42,100,115
1,42,0,5
1,36,90,4915
1,36,0,5
1,36,68,175
1,36,0,5
1,36,91,55
1,36,0,5
1,36,73,175
1,36,0,5
1,36,95,55
1,36,0,5
1,36,68,175
1,36,0,5
1,36,92,55
1,47,127,1
1,36,0,4
1,47,0,1
1,40,93,105
1,40,0,5
1,40,127,4
1,47,127,1
1,40,0,4
1,47,0,1
1,36,74,54
1,43,125,1
1,36,0,4
1,43,0,1
1,35,127,54
1,36,91,0
1,42,127,1
1,36,0,4
1,35,0,0
1,42,0,1
1,40,127,114
1,42,127,1
1,40,0,4
1,42,0,1
1,35,100,54
1,36,72,0
1,36,0,5
1,35,0,0
1,35,127,55
1,36,97,0
1,42,127,1
1,36,0,4
1,35,0,0
1,42,0,1
1,40,127,114
1,42,127,1
1,40,0,4
1,42,0,1
1,36,74,54
1,36,0,5
1,35,122,55
1,36,90,0
1,42,127,1
1,36,0,4
1,35,0,0
1,42,0,1
1,40,127,114
1,42,125,1
1,40,0,4
1,42,0,1
1,35,103,54
1,36,71,0
1,36,0,5
1,35,0,0
1,35,127,55
1,36,89,0
1,46,125,1
1,36,0,4
1,35,0,0
1,46,0,1
1,42,126,55
1,42,0,5
1,40,127,54
1,46,127,1
1,40,0,4
1,46,0,1
1,36,71,54
1,42,127,1
1,36,0,4
1,42,0,1
1,35,126,54
1,36,96,0
1,42,127,1
1,36,0,4
1,35,0,0
1,42,0,1
1,40,127,114
1,42,126,1
1,40,0,4
1,42,0,1
1,35,100,54
1,36,67,0
1,36,0,5
1,35,0,0
1,35,127,55
1,36,93,0
1,42,127,1
1,36,0,4
1,35,0,0
1,42,0,1
1,40,127,114
1,42,125,1
1,40,0,4
1,42,0,1
1,36,74,54
1,36,0,5
1,35,124,55
1,36,89,0
1,42,127,1
1,36,0,4
1,35,0,0
1,42,0,1
1,40,127,114
1,42,127,1
1,40,0,4
1,42,0,1
1,35,98,54
1,36,73,0
1,36,0,5
1,35,0,0
1,35,126,55
1,36,94,0
1,46,127,1
1,36,0,4
1,35,0,0
1,46,0,1
1,42,127,55
1,42,0,5
1,40,127,54
1,46,127,1
1,40,0,4
1,46,0,1
1,40,63,9
1,40,0,5
1,40,67,11
1,40,0,5
1,40,72,11
1,40,0,5
1,36,75,8
1,42,127,1
1,40,76,1
1,36,0,3
1,42,0,1
1,40,0,1
1,40,80,9
1,40,0,5
1,40,85,10
1,40,0,5
1,40,89,10
1,40,0,5
1,35,122,9
1,36,96,0
1,40,93,0
1,42,127,1
1,40,0,4
1,35,0,0
1,36,0,0
1,42,0,1
1,40,127,114
1,42,127,1
1,40,0,4
1,42,0,1
1,35,100,54
1,36,71,0
1,36,0,5
1,35,0,0
1,35,127,55
1,36,96,0
1,42,127,1
1,36,0,4
1,35,0,0
1,42,0,1
1,40,127,114
1,42,127,1
1,40,0,4
1,42,0,1
1,36,67,54
1,36,0,5
1,35,127,55
1,36,89,0
1,42,127,1
1,36,0,4
1,35,0,0
1,42,0,1
1,40,127,114
1,42,125,1
1,40,0,4
1,42,0,1
1,35,106,54
1,36,68,0
1,36,0,5
1,35,0,0
1,35,123,55
1,36,91,0
1,46,127,1
1,36,0,4
1,35,0,0
1,46,0,1
1,42,125,55
1,42,0,5
1,40,127,54
1,46,126,1
1,40,0,4
1,46,0,1
1,36,73,54
1,42,127,1
1,36,0,4
1,42,0,1
1,35,126,54
1,36,98,0
1,36,0,5
1,35,0,0
1,40,127,115
1,40,0,5
1,35,106,55
1,36,74,0
1,36,0,5
1,35,0,0
1,35,120,55
1,36,97,0
1,36,0,5
1,35,0,0
1,40,127,115
1,40,0,5
1,36,72,55
1,36,0,5
1,35,123,55
1,36,89,0
1,36,0,5
1,35,0,0
1,40,127,115
1,40,0,5
1,35,99,55
1,36,70,0
1,36,0,5
1,35,0,0
1,35,121,55
1,36,98,0
1,40,127,0
1,40,0,5
1,36,0,0
1,35,0,0
1,40,127,25
1,40,0,5
1,40,127,25
1,40,0,5
1,40,127,55
1,40,0,5
1,36,67,55
1,36,0,5
1,35,127,55
1,36,94,0
1,42,126,1
1,36,0,4
1,35,0,0
1,42,0,1
1,40,127,114
1,42,127,1
1,40,0,4
1,42,0,1
1,35,99,54
1,36,71,0
1,36,0,5
1,35,0,0
1,35,124,55
1,36,97,0
1,42,127,1
1,36,0,4
1,35,0,0
1,42,0,1
1,40,127,114
1,42,127,1
1,40,0,4
1,42,0,1
1,36,71,54
1,36,0,5
1,35,127,55
1,36,91,0
1,42,127,1
1,36,0,4
1,35,0,0
1,42,0,1
1,40,127,114
1,42,127,1
1,40,0,4
1,42,0,1
1,35,98,54
1,36,75,0
1,36,0,5
1,35,0,0
1,35,122,55
1,36,95,0
1,46,127,1
1,36,0,4
1,35,0,0
1,46,0,1
1,42,127,55
1,42,0,5
1,40,127,54
1,46,127,1
1,40,0,4
1,46,0,1
1,36,74,54
1,42,127,1
1,36,0,4
1,42,0,1
1,35,126,54
1,36,91,0
1,42,125,1
1,36,0,4
1,35,0,0
1,42,0,1
1,40,127,114
1,42,127,1
1,40,0,4
1,42,0,1
1,35,98,54
1,36,72,0
1,36,0,5
1,35,0,0
1,35,124,55
1,36,92,0
1,42,127,1
1,36,0,4
1,35,0,0
1,42,0,1
1,40,127,114
1,42,126,1
1,40,0,4
1,42,0,1
1,36,69,54
1,36,0,5
1,35,127,55
1,36,93,0
1,42,126,1
1,36,0,4
1,35,0,0
1,42,0,1
1,40,127,114
1,42,127,1
1,40,0,4
1,42,0,1
1,35,101,54
1,36,70,0
1,36,0,5
1,35,0,0
1,35,126,55
1,36,89,0
1,46,127,1
1,36,0,4
1,35,0,0
1,46,0,1
1,42,127,55
1,42,0,5
1,40,127,54
1,46,127,1
1,40,0,4
1,46,0,1
1,40,61,9
1,40,0,5
1,40,65,11
1,40,0,5
1,40,69,11
1,40,0,5
1,36,75,8
1,42,127,1
1,40,73,1
1,36,0,3
1,42,0,1
1,40,0,1
1,40,77,9
1,40,0,5
1,40,81,10
1,40,0,5
1,40,85,10
1,40,0,5
1,35,124,9
1,36,95,0
1,40,89,0
1,42,125,1
1,40,0,4
1,35,0,0
1,36,0,0
1,42,0,1
1,40,127,114
1,42,127,1
1,40,0,4
1,42,0,1
1,35,101,54
1,36,72,0
1,36,0,5
1,35,0,0
1,35,127,55
1,36,98,0
1,42,127,1
1,36,0,4
1,35,0,0
1,42,0,1
1,40,127,114
1,42,127,1
1,40,0,4
1,42,0,1
1,36,75,54
1,36,0,5
1,35,120,55
1,36,89,0
1,42,127,1
1,36,0,4
1,35,0,0
1,42,0,1
1,40,127,114
1,42,126,1
1,40,0,4
1,42,0,1
1,35,102,54
1,36,71,0
1,36,0,5
1,35,0,0
1,35,125,55
1,36,98,0
1,38,103,0
1,46,127,1
1,38,0,4
1,35,0,0
1,36,0,0
1,46,0,1
1,38,100,23
1,38,0,5
1,38,102,25
1,42,127,2
1,38,0,3
1,42,0,2
1,40,127,54
1,38,96,0
1,46,127,1
1,38,0,4
1,40,0,0
1,46,0,1
1,38,102,23
1,38,0,5
1,38,101,25
1,36,68,1
1,42,127,1
1,38,0,3
1,36,0,1
1,42,0,1
1,35,124,54
1,36,97,0
1,36,0,5
1,35,0,0
1,40,127,115
1,40,0,5
1,35,102,55
1,36,74,0
1,36,0,5
1,35,0,0
1,35,124,55
1,36,95,0
1,38,100,0
1,38,0,5
1,36,0,0
1,35,0,0
1,38,97,24
1,38,0,5
1,38,95,25
1,38,0,5
1,40,127,56
1,40,0,5
1,36,70,55
1,36,0,5
1,35,123,55
1,36,89,0
1,36,0,5
1,35,0,0
1,40,127,115
1,40,0,5
1,35,105,55
1,36,66,0
1,36,0,5
1,35,0,0
1,35,121,55
1,36,90,0
1,38,95,0
1,38,0,5
1,36,0,0
1,35,0,0
1,38,102,24
1,38,0,5
1,38,99,25
1,38,0,5
1,40,127,56
1,38,103,0
1,38,0,5
1,40,0,0
1,38,96,24
1,38,0,5
1,38,96,25
1,36,75,1
1,38,0,4
1,36,0,1
1,35,127,55
1,36,93,0
1,42,126,1
1,36,0,4
1,35,0,0
1,42,0,1
1,40,127,114
1,42,127,1
1,40,0,4
1,42,0,1
1,35,104,54
1,36,69,0
1,36,0,5
1,35,0,0
1,35,120,55
1,36,94,0
1,40,59,0
1,42,127,1
1,40,0,4
1,35,0,0
1,36,0,0
1,42,0,1
1,40,62,8
1,40,0,5
1,40,66,11
1,40,0,5
1,40,70,10
1,40,0,5
1,40,73,11
1,40,0,5
1,40,76,8
1,40,0,5
1,40,80,10
1,40,0,5
1,40,127,26
1,42,127,1
1,40,0,4
1,42,0,1
1,36,75,54
1,36,0,5
1,35,127,55
1,36,97,0
1,42,127,1
1,36,0,4
1,35,0,0
1,42,0,1
1,40,127,114
1,42,127,1
1,40,0,4
1,42,0,1
1,35,104,54
1,36,70,0
1,36,0,5
1,35,0,0
1,35,127,55
1,36,94,0
1,38,102,0
1,46,125,1
1,38,0,4
1,35,0,0
1,36,0,0
1,46,0,1
1,38,103,23
1,38,0,5
1,38,102,25
1,42,127,2
1,38,0,3
1,42,0,2
1,40,127,54
1,38,99,0
1,46,127,1
1,38,0,4
1,40,0,0
1,46,0,1
1,38,97,23
1,38,0,5
1,38,101,25
1,36,75,1
1,42,127,1
1,38,0,3
1,36,0,1
1,42,0,1
1,35,127,54
1,36,94,0
1,42,127,1
1,36,0,4
1,35,0,0
1,42,0,1
1,40,127,114
1,42,125,1
1,40,0,4
1,42,0,1
1,35,99,54
1,36,68,0
1,36,0,5
1,35,0,0
1,35,125,55
1,36,93,0
1,42,125,1
1,36,0,4
1,35,0,0
1,42,0,1
1,40,127,114
1,42,127,1
1,40,0,4
1,42,0,1
1,36,73,54
1,36,0,5
1,35,123,55
1,36,96,0
1,42,127,1
1,36,0,4
1,35,0,0
1,42,0,1
1,40,127,114
1,42,126,1
1,40,0,4
1,42,0,1
1,35,106,54
1,36,70,0
1,36,0,5
1,35,0,0
1,35,121,55
1,36,92,0
1,46,127,1
1,36,0,4
1,35,0,0
1,46,0,1
1,42,127,55
1,42,0,5
1,40,127,54
1,46,127,1
1,40,0,4
1,46,0,1
1,40,61,8
1,40,0,5
1,40,64,11
1,40,0,5
1,40,68,10
1,40,0,5
1,36,74,10
1,40,71,1
1,42,127,0
1,36,0,4
1,42,0,1
1,40,0,0
1,40,74,8
1,40,0,5
1,40,77,10
1,40,0,5
1,40,80,10
1,40,0,5
1,40,83,10
1,35,125,1
1,36,95,0
1,40,0,4
1,36,0,1
1,35,0,0
1,40,127,115
1,40,0,5
1,35,100,55
1,36,69,0
1,36,0,5
1,35,0,0
1,35,123,55
1,36,97,0
1,36,0,5
1,35,0,0
1,40,127,115
1,40,0,5
1,36,66,55
1,36,0,5
1,35,127,55
1,36,92,0
1,36,0,5
1,35,0,0
1,40,127,115
1,40,0,5
1,35,98,55
1,36,67,0
1,36,0,5
1,35,0,0
1,35,122,55
1,36,93,0
1,38,98,0
1,38,0,5
1,36,0,0
1,35,0,0
1,38,103,24
1,38,0,5
1,38,104,25
1,38,0,5
1,40,127,56
1,38,103,0
1,38,0,5
1,40,0,0
1,38,100,24
1,38,0,5
1,38,96,25
1,36,72,1
1,38,0,4
1,36,0,1
1,35,127,55
1,36,91,0
1,36,0,5
1,35,0,0
1,40,127,115
1,40,0,5
1,35,104,55
1,36,73,0
1,36,0,5
1,35,0,0
1,35,122,55
1,36,93,0
1,38,98,0
1,38,0,5
1,36,0,0
1,35,0,0
1,38,98,24
1,38,0,5
1,38,96,25
1,38,0,5
1,40,127,56
1,40,0,5
1,36,74,55
1,36,0,5
1,35,122,55
1,36,97,0
1,36,0,5
1,35,0,0
1,40,127,115
1,40,0,5
1,35,105,55
1,36,66,0
1,36,0,5
1,35,0,0
1,35,127,55
1,36,90,0
1,38,99,0
1,38,0,5
1,36,0,0
1,35,0,0
1,38,99,24
1,38,0,5
1,38,96,25
1,38,0,5
1,40,127,56
1,38,97,0
1,38,0,5
1,40,0,0
1,38,98,24
1,38,0,5
1,38,97,25
1,36,69,1
1,38,0,4
1,36,0,1
1,35,126,55
1,36,92,0
1,42,127,1
1,36,0,4
1,35,0,0
1,42,0,1
1,40,127,114
1,42,127,1
1,40,0,4
1,42,0,1
1,35,104,54
1,36,66,0
1,36,0,5
1,35,0,0
1,35,127,55
1,36,97,0
1,42,127,1
1,36,0,4
1,35,0,0
1,42,0,1
1,40,127,114
1,42,127,1
1,40,0,4
1,42,0,1
1,36,75,54
1,36,0,5
1,35,122,55
1,36,94,0
1,42,127,1
1,36,0,4
1,35,0,0
1,42,0,1
1,40,127,114
1,42,127,1
1,40,0,4
1,42,0,1
1,35,106,54
1,36,68,0
1,36,0,5
1,35,0,0
1,35,122,55
1,36,90,0
1,46,127,1
1,36,0,4
1,35,0,0
1,46,0,1
1,42,127,55
1,42,0,5
1,40,127,54
1,46,127,1
1,40,0,4
1,46,0,1
1,36,73,54
1,42,127,1
1,36,0,4
1,42,0,1
1,35,126,54
1,36,94,0
1,36,0,5
1,35,0,0
1,40,127,115
1,40,0,5
1,35,99,55
1,36,75,0
1,36,0,5
1,35,0,0
1,35,122,55
1,36,97,0
1,36,0,5
1,35,0,0
1,40,127,115
1,40,0,5
1,35,127,55
1,36,70,0
1,36,0,5
1,35,0,0
1,36,92,55
1,36,0,5
1,41,127,236
1,41,0,5
1,40,127,84
1,40,0,5
1,40,127,25
1,47,127,1
1,40,0,4
1,47,0,1
1,36,70,54
1,43,127,1
1,36,0,4
1,43,0,1
1,35,127,54
1,36,97,0
1,42,127,1
1,36,0,4
1,35,0,0
1,42,0,1
1,40,127,114
1,42,127,1
1,40,0,4
1,42,0,1
1,35,102,54
1,36,69,0
1,36,0,5
1,35,0,0
1,35,127,55
1,36,95,0
1,42,127,1
1,36,0,4
1,35,0,0
1,42,0,1
1,40,127,114
1,42,127,1
1,40,0,4
1,42,0,1
1,36,66,54
1,36,0,5
1,35,126,55
1,36,98,0
1,42,125,1
1,36,0,4
1,35,0,0
1,42,0,1
1,40,127,114
1,42,127,1
1,40,0,4
1,42,0,1
1,35,100,54
1,36,66,0
1,36,0,5
1,35,0,0
1,35,126,55
1,36,94,0
1,46,127,1
1,36,0,4
1,35,0,0
1,46,0,1
1,42,127,55
1,42,0,5
1,40,127,54
1,46,127,1
1,40,0,4
1,46,0,1
1,36,71,54
1,42,126,1
1,36,0,4
1,42,0,1
1,35,126,54
1,36,98,0
1,42,125,1
1,36,0,4
1,35,0,0
1,42,0,1
1,40,127,114
1,42,127,1
1,40,0,4
1,42,0,1
1,35,106,54
1,36,75,0
1,36,0,5
1,35,0,0
1,35,121,55
1,36,90,0
1,42,127,1
1,36,0,4
1,35,0,0
1,42,0,1
1,40,127,114
1,42,127,1
1,40,0,4
1,42,0,1
1,36,72,54
1,36,0,5
1,35,123,55
1,36,96,0
1,42,127,1
1,36,0,4
1,35,0,0
1,42,0,1
1,40,127,114
1,42,127,1
1,40,0,4
1,42,0,1
1,35,102,54
1,36,75,0
1,36,0,5
1,35,0,0
1,35,121,55
1,36,95,0
1,46,127,1
1,36,0,4
1,35,0,0
1,46,0,1
1,42,126,55
1,42,0,5
1,40,127,54
1,46,125,1
1,40,0,4
1,46,0,1
1,40,68,8
1,40,0,5
1,40,71,11
1,40,0,5
1,40,74,10
1,40,0,5
1,36,71,10
1,40,77,1
1,42,127,0
1,36,0,4
1,42,0,1
1,40,0,0
1,40,79,8
1,40,0,5
1,40,82,10
1,40,0,5
1,40,85,10
1,40,0,5
1,40,88,10
1,35,120,1
1,36,94,0
1,42,127,1
1,40,0,3
1,35,0,1
1,36,0,0
1,42,0,1
1,40,127,114
1,42,127,1
1,40,0,4
1,42,0,1
1,35,100,54
1,36,74,0
1,36,0,5
1,35,0,0
1,35,126,55
1,36,93,0
