track,note,velocity,time
1,76,113,1508
1,73,113,20
1,76,113,248
1,73,107,52
1,71,113,164
1,73,113,140
1,76,113,156
1,71,113,1508
1,66,113,16
1,71,113,244
1,73,102,96
1,76,113,140
1,78,113,140
1,76,113,10944
1,75,107,28
1,68,113,96
1,73,113,128
1,71,113,108
1,59,113,116
1,69,113,104
1,68,113,12
1,59,113,48
1,59,113,692
1,71,113,0
1,60,113,32
1,72,113,0
1,73,113,116
1,61,92,0
1,64,113,112
1,76,113,0
1,73,107,984
1,69,113,0
1,73,107,40
1,69,113,0
1,73,113,24
1,69,81,0
1,73,113,40
1,69,81,0
1,73,113,228
1,69,113,0
1,73,113,36
1,69,102,0
1,73,113,28
1,69,87,0
1,69,113,36
1,73,113,0
1,73,113,124
1,69,113,0
1,73,113,32
1,69,92,0
1,73,113,36
1,69,107,0
1,69,113,24
1,71,107,4540
1,73,107,0
1,64,113,0
1,64,113,128
1,71,107,0
1,73,113,0
1,73,113,232
1,64,113,0
1,71,113,0
1,73,113,124
1,64,113,0
1,71,113,0
1,73,113,992
1,71,113,164
1,68,107,20
1,64,113,132
1,73,107,1004
1,71,113,148
1,69,113,0
1,66,113,148
1,73,107,984
1,71,113,144
1,69,113,4
1,66,113,136
1,73,107,988
1,71,113,148
1,68,113,96
1,64,113,136
1,73,102,1000
1,59,127,0
1,64,127,0
1,71,113,148
1,64,127,0
1,59,127,0
1,68,102,4
1,59,127,0
1,64,127,0
1,64,113,132
1,64,127,0
1,59,127,0
1,73,107,992
1,61,127,0
1,66,127,0
1,71,113,140
1,61,127,0
1,66,127,0
1,69,113,36
1,66,127,0
1,61,127,0
1,66,113,120
1,63,127,0
1,66,127,0
1,73,102,988
1,66,127,0
1,61,127,0
1,71,113,132
1,66,127,0
1,61,127,0
1,69,113,40
1,66,127,0
1,66,113,128
1,59,127,0
1,63,127,0
1,71,113,968
1,76,113,0
1,64,127,0
1,59,127,0
1,71,113,40
1,76,113,0
1,59,127,0
1,64,127,0
1,76,113,24
1,71,81,0
1,64,127,0
1,59,127,0
1,76,113,24
1,64,127,0
1,59,113,5584
1,71,113,0
1,83,127,0
1,59,127,0
1,71,127,0
1,73,113,32
1,61,92,0
1,71,127,0
1,83,127,0
1,59,127,0
1,74,113,12
1,62,113,0
1,71,127,0
1,59,127,0
1,83,127,0
1,63,107,44
1,75,113,0
1,59,127,0
1,71,127,0
1,83,127,0
1,76,113,4
1,64,113,0
1,71,127,84
1,83,127,0
1,59,127,0
1,78,113,0
1,66,113,0
1,71,127,0
1,59,127,0
1,76,113,11040
1,75,107,28
1,68,113,96
1,73,113,128
1,71,113,108
1,59,113,116
1,69,113,104
1,68,113,12
1,59,113,48
1,59,113,692
1,71,113,0
1,60,113,32
1,72,113,0
1,73,113,116
1,61,92,0
1,64,113,112
1,76,113,0
1,73,107,984
1,69,113,0
1,73,107,40
1,69,113,0
1,73,113,24
1,69,81,0
1,73,113,40
1,69,81,0
1,73,113,228
1,69,113,0
1,73,113,36
1,69,102,0
1,73,113,28
1,69,87,0
1,69,113,36
1,73,113,0
1,73,113,124
1,69,113,0
1,73,113,32
1,69,92,0
1,73,113,36
1,69,107,0
1,69,113,24
1,71,107,4540
1,73,107,0
1,64,113,0
1,64,113,128
1,71,107,0
1,73,113,0
1,73,113,232
1,64,113,0
1,71,113,0
1,73,113,124
1,64,113,0
1,71,113,0
1,73,113,992
1,71,113,164
1,68,107,20
1,64,113,132
1,73,107,1004
1,71,113,148
1,69,113,0
1,66,113,148
1,73,107,984
1,71,113,144
1,69,113,4
1,66,113,136
1,73,107,988
1,71,113,148
1,68,113,96
1,64,113,136
1,73,102,1000
1,59,127,0
1,64,127,0
1,71,113,148
1,64,127,0
1,59,127,0
1,68,102,4
1,59,127,0
1,64,127,0
1,64,113,132
1,64,127,0
1,59,127,0
1,73,107,992
1,61,127,0
1,66,127,0
1,71,113,140
1,61,127,0
1,66,127,0
1,69,113,36
1,66,127,0
1,61,127,0
1,66,113,120
1,63,127,0
1,66,127,0
1,73,102,988
1,66,127,0
1,61,127,0
1,71,113,132
1,66,127,0
1,61,127,0
1,69,113,40
1,66,127,0
1,66,113,128
1,59,127,0
1,63,127,0
1,71,113,968
1,76,113,0
1,64,127,0
1,59,127,0
1,71,113,40
1,76,113,0
1,59,127,0
1,64,127,0
1,76,113,24
1,71,81,0
1,64,127,0
1,59,127,0
1,76,113,24
1,64,127,0
1,59,113,5584
1,71,113,0
1,83,127,0
1,59,127,0
1,71,127,0
1,73,113,32
1,61,92,0
1,71,127,0
1,83,127,0
1,59,127,0
1,74,113,12
1,62,113,0
1,71,127,0
1,59,127,0
1,83,127,0
1,63,107,44
1,75,113,0
1,59,127,0
1,71,127,0
1,83,127,0
1,76,113,4
1,64,113,0
1,71,127,84
1,83,127,0
1,59,127,0
1,78,113,0
1,66,113,0
1,71,127,0
1,59,127,0
1,76,113,11040
1,75,107,28
1,68,113,96
1,73,113,128
1,71,113,108
1,59,113,116
1,69,113,104
1,68,113,12
1,59,113,48
1,59,113,692
1,71,113,0
1,60,113,32
1,72,113,0
1,73,113,116
1,61,92,0
1,64,113,112
1,76,113,0
1,73,107,984
1,69,113,0
1,73,107,40
1,69,113,0
1,73,113,24
1,69,81,0
1,73,113,40
1,69,81,0
1,73,113,228
1,69,113,0
1,73,113,36
1,69,102,0
1,73,113,28
1,69,87,0
1,69,113,36
1,73,113,0
1,73,113,124
1,69,113,0
1,73,113,32
1,69,92,0
1,73,113,36
1,69,107,0
1,69,113,24
1,64,113,4540
1,68,113,0
1,76,113,0
1,80,113,0
1,69,113,20
1,64,113,0
1,81,113,0
1,76,113,0
1,70,113,64
1,64,113,0
1,82,113,0
1,76,113,0
1,64,113,44
1,71,113,0
1,76,113,0
1,83,113,0
1,64,113,128
1,72,113,0
1,76,113,0
1,84,113,0
1,73,113,36
1,85,113,0
1,68,113,2120
1,80,113,0
1,71,113,52
1,83,113,0
1,75,113,124
1,87,113,0
1,73,113,116
1,85,113,0
1,76,113,1808
1,71,113,0
1,76,113,16
1,71,102,0
1,71,113,156
1,76,113,0
1,76,102,20
1,71,97,0
1,71,113,160
1,76,113,0
1,71,102,16
1,76,113,0
1,76,113,156
1,71,113,0
1,76,107,12
1,71,113,0
1,76,113,124
1,71,113,0
1,76,113,136
1,71,113,0
1,69,113,164
1,76,113,0
1,74,113,0
1,69,97,8
1,74,102,0
1,76,113,0
1,69,113,156
1,74,113,0
1,76,113,0
1,69,97,20
1,74,113,0
1,76,113,0
1,76,113,156
1,74,113,0
1,69,113,0
1,74,102,16
1,69,102,0
1,76,113,0
1,74,113,156
1,76,113,0
1,69,113,0
1,74,97,16
1,76,113,0
1,69,107,0
1,76,113,124
1,74,113,0
1,69,113,0
1,74,113,132
1,76,113,0
1,69,113,0
1,67,113,156
1,74,113,0
1,76,113,0
1,72,113,0
1,72,87,0
1,67,92,0
1,74,107,0
1,67,113,160
1,74,113,0
1,72,113,0
1,76,113,0
1,76,87,0
1,72,113,0
1,74,97,0
1,76,97,156
1,72,113,0
1,74,113,0
1,67,113,0
1,67,107,20
1,72,113,0
1,76,81,0
1,74,107,0
1,74,113,160
1,76,107,0
1,72,113,0
1,67,113,0
1,76,81,20
1,72,102,0
1,74,113,0
1,76,107,128
1,74,113,0
1,72,113,0
1,67,113,0
1,72,113,124
1,74,113,0
1,76,113,0
1,67,113,0
1,71,113,156
1,68,113,0
1,76,113,0
2,64,127,1472
2,61,127,20
2,64,127,248
2,61,127,52
2,59,127,164
2,61,127,140
2,64,127,156
2,59,127,1508
2,54,127,16
2,59,127,244
2,61,127,96
2,64,127,140
2,66,127,140
2,76,98,10944
2,75,93,28
2,68,98,96
2,73,98,128
2,71,98,108
2,59,98,116
2,69,98,104
2,68,98,12
2,59,98,48
2,59,98,692
2,71,98,0
2,60,98,32
2,72,98,0
2,73,98,116
2,64,98,112
2,76,98,0
2,73,93,984
2,69,98,0
2,73,93,40
2,69,98,0
2,73,98,24
2,69,127,0
2,73,98,40
2,69,127,0
2,73,98,228
2,69,98,0
2,73,98,36
2,69,88,0
2,73,98,28
2,69,127,0
2,69,98,36
2,73,98,0
2,73,98,124
2,69,98,0
2,73,98,32
2,73,98,36
2,69,93,0
2,69,98,24
2,71,93,4540
2,73,93,0
2,64,98,0
2,64,98,128
2,71,93,0
2,73,98,0
2,73,98,232
2,64,98,0
2,71,98,0
2,73,98,124
2,64,98,0
2,71,98,0
2,73,98,992
2,71,98,164
2,68,93,20
2,64,98,132
2,73,93,1004
2,71,98,148
2,69,98,0
2,66,98,148
2,73,93,984
2,71,98,144
2,69,98,4
2,66,98,136
2,73,93,988
2,71,98,148
2,68,98,96
2,64,98,136
2,73,88,1000
2,71,98,156
2,68,88,4
2,64,98,160
2,73,93,992
2,71,98,144
2,69,98,96
2,66,98,136
2,73,88,1008
2,71,98,152
2,69,98,96
2,66,98,132
2,71,98,976
2,76,98,0
2,71,98,44
2,76,98,0
2,76,98,24
2,71,127,0
2,76,98,28
2,59,98,5584
2,71,98,0
2,73,98,32
2,74,98,32
2,62,98,0
2,63,93,44
2,75,98,0
2,76,98,4
2,64,98,0
2,78,98,0
2,66,98,0
2,76,98,11084
2,75,93,28
2,68,98,96
2,73,98,128
2,71,98,108
2,59,98,116
2,69,98,104
2,68,98,12
2,59,98,48
2,59,98,692
2,71,98,0
2,60,98,32
2,72,98,0
2,73,98,116
2,64,98,112
2,76,98,0
2,73,93,984
2,69,98,0
2,73,93,40
2,69,98,0
2,73,98,24
2,69,127,0
2,73,98,40
2,69,127,0
2,73,98,228
2,69,98,0
2,73,98,36
2,69,88,0
2,73,98,28
2,69,127,0
2,69,98,36
2,73,98,0
2,73,98,124
2,69,98,0
2,73,98,32
2,73,98,36
2,69,93,0
2,69,98,24
2,71,93,4540
2,73,93,0
2,64,98,0
2,64,98,128
2,71,93,0
2,73,98,0
2,73,98,232
2,64,98,0
2,71,98,0
2,73,98,124
2,64,98,0
2,71,98,0
2,73,98,992
2,71,98,164
2,68,93,20
2,64,98,132
2,73,93,1004
2,71,98,148
2,69,98,0
2,66,98,148
2,73,93,984
2,71,98,144
2,69,98,4
2,66,98,136
2,73,93,988
2,71,98,148
2,68,98,96
2,64,98,136
2,73,88,1000
2,71,98,156
2,68,88,4
2,64,98,160
2,73,93,992
2,71,98,144
2,69,98,96
2,66,98,136
2,73,88,1008
2,71,98,152
2,69,98,96
2,66,98,132
2,71,98,976
2,76,98,0
2,71,98,44
2,76,98,0
2,76,98,24
2,71,127,0
2,76,98,28
2,59,98,5584
2,71,98,0
2,73,98,32
2,74,98,32
2,62,98,0
2,63,93,44
2,75,98,0
2,76,98,4
2,64,98,0
2,78,98,0
2,66,98,0
2,76,98,11084
2,75,93,28
2,68,98,96
2,73,98,128
2,71,98,108
2,59,98,116
2,69,98,104
2,68,98,12
2,59,98,48
2,59,98,692
2,71,98,0
2,60,98,32
2,72,98,0
2,73,98,116
2,64,98,112
2,76,98,0
2,73,93,984
2,69,98,0
2,73,93,40
2,69,98,0
2,73,98,24
2,69,127,0
2,73,98,40
2,69,127,0
2,73,98,228
2,69,98,0
2,73,98,36
2,69,88,0
2,73,98,28
2,69,127,0
2,69,98,36
2,73,98,0
2,73,98,124
2,69,98,0
2,73,98,32
2,73,98,36
2,69,93,0
2,69,98,24
2,64,113,4540
2,68,113,0
2,69,113,20
2,64,113,0
2,70,113,64
2,64,113,0
2,64,113,44
2,71,113,0
2,64,113,128
2,72,113,0
2,73,113,36
2,68,113,2120
2,71,113,52
2,75,113,124
2,73,113,116
2,76,113,1808
2,71,113,0
2,76,113,16
2,71,102,0
2,71,113,156
2,76,113,0
2,76,102,20
2,71,97,0
2,71,113,160
2,76,113,0
2,71,102,16
2,76,113,0
2,76,113,156
2,71,113,0
2,76,107,12
2,71,113,0
2,76,113,124
2,71,113,0
2,76,113,136
2,71,113,0
2,69,113,164
2,76,113,0
2,74,113,0
2,69,97,8
2,74,102,0
2,76,113,0
2,69,113,156
2,74,113,0
2,76,113,0
2,69,97,20
2,74,113,0
2,76,113,0
2,76,113,156
2,74,113,0
2,69,113,0
2,74,102,16
2,69,102,0
2,76,113,0
2,74,113,156
2,76,113,0
2,69,113,0
2,74,97,16
2,76,113,0
2,69,107,0
2,76,113,124
2,74,113,0
2,69,113,0
2,74,113,132
2,76,113,0
2,69,113,0
2,67,113,156
2,74,113,0
2,76,113,0
2,72,113,0
2,72,87,0
2,67,92,0
2,74,107,0
2,67,113,160
2,74,113,0
2,72,113,0
2,76,113,0
2,76,87,0
2,72,113,0
2,74,97,0
2,76,97,156
2,72,113,0
2,74,113,0
2,67,113,0
2,67,107,20
2,72,113,0
2,76,81,0
2,74,107,0
2,74,113,160
2,76,107,0
2,72,113,0
2,67,113,0
2,76,81,20
2,72,102,0
2,74,113,0
2,76,107,128
2,74,113,0
2,72,113,0
2,67,113,0
2,72,113,124
2,74,113,0
2,76,113,0
2,67,113,0
2,71,113,156
2,68,113,0
2,76,113,0
3,40,104,6048
3,35,104,20
3,40,104,48
3,35,104,32
3,40,104,12
3,35,104,36
3,40,104,20
3,35,104,60
3,40,104,32
3,35,104,24
3,40,104,36
3,37,104,324
3,42,104,24
3,37,100,32
3,35,104,8
3,42,104,32
3,42,96,28
3,37,96,384
3,35,104,8
3,42,104,32
3,42,96,20
3,37,100,16
3,35,96,48
3,42,104,32
3,42,100,28
3,42,104,40
3,42,92,40
3,35,104,260
3,40,104,32
3,35,104,36
3,40,104,44
3,35,104,40
3,40,104,32
3,35,104,28
3,40,104,64
3,35,104,36
3,40,104,48
3,35,104,40
3,40,104,20
3,35,104,52
3,40,104,44
3,40,104,40
3,38,104,64
3,38,104,244
3,45,104,36
3,40,104,32
3,45,104,40
3,40,104,16
3,39,104,72
3,39,104,76
3,39,104,60
3,39,104,64
3,44,104,60
3,39,104,0
3,37,100,32
3,44,104,28
3,42,104,20
3,37,92,20
3,35,104,32
3,42,100,24
3,40,104,12
3,35,104,12
3,40,104,24
3,40,104,648
3,35,100,36
3,40,104,84
3,35,104,56
3,40,100,88
3,42,104,108
3,37,88,56
3,35,104,48
3,35,100,68
3,39,96,72
3,42,104,128
3,37,92,28
3,35,104,32
3,35,92,60
3,42,100,116
3,40,104,112
3,35,104,56
3,40,104,36
3,35,104,48
3,40,104,56
3,35,104,40
3,40,104,60
3,35,104,52
3,40,104,108
3,42,96,104
3,37,92,36
3,35,104,40
3,35,92,72
3,39,100,112
3,42,96,108
3,37,100,36
3,35,104,48
3,35,96,52
3,42,100,100
3,40,104,96
3,35,104,36
3,40,100,52
3,35,104,28
3,40,96,20
3,45,100,52
3,40,104,44
3,45,96,36
3,40,96,40
3,40,68,28
3,35,104,36
3,40,104,44
3,35,104,28
3,40,88,4
3,45,96,52
3,40,92,44
3,45,100,36
3,40,100,24
3,35,104,56
3,35,104,84
3,35,104,100
3,35,104,108
3,35,104,80
3,35,104,64
3,40,104,16
3,35,104,20
3,40,104,48
3,35,104,32
3,40,104,12
3,35,104,36
3,40,104,20
3,35,104,60
3,40,104,32
3,35,104,24
3,40,104,36
3,37,104,324
3,42,104,24
3,37,100,32
3,35,104,8
3,42,104,32
3,42,96,28
3,37,96,384
3,35,104,8
3,42,104,32
3,42,96,20
3,37,100,16
3,35,96,48
3,42,104,32
3,42,100,28
3,42,104,40
3,42,92,40
3,35,104,260
3,40,104,32
3,35,104,36
3,40,104,44
3,35,104,40
3,40,104,32
3,35,104,28
3,40,104,64
3,35,104,36
3,40,104,48
3,35,104,40
3,40,104,20
3,35,104,52
3,40,104,44
3,40,104,40
3,38,104,64
3,38,104,244
3,45,104,36
3,40,104,32
3,45,104,40
3,40,104,16
3,39,104,72
3,39,104,76
3,39,104,60
3,39,104,64
3,44,104,60
3,39,104,0
3,37,100,32
3,44,104,28
3,42,104,20
3,37,92,20
3,35,104,32
3,42,100,24
3,40,104,12
3,35,104,12
3,40,104,24
3,40,104,648
3,35,100,36
3,40,104,84
