track,note,velocity,time
3,46,67,188
3,46,0,148
3,62,76,40
3,58,74,1
3,65,82,2
3,62,0,97
3,65,0,8
3,58,0,1
3,41,63,90
3,41,0,170
3,58,82,17
3,62,73,2
3,65,79,4
3,62,0,114
3,58,0,5
3,65,0,8
3,36,76,61
3,48,73,0
3,36,0,179
3,48,0,3
3,64,78,6
3,55,81,2
3,60,78,2
3,58,82,1
3,64,0,93
3,55,0,4
3,60,0,7
3,58,0,3
3,43,61,80
3,43,0,181
3,55,74,15
3,58,81,0
3,60,73,1
3,64,74,1
3,64,0,93
3,58,0,1
3,60,0,7
3,55,0,1
3,53,75,85
3,41,75,3
3,41,0,171
3,53,0,13
3,60,74,6
3,57,82,2
3,65,76,1
3,60,0,107
3,65,0,3
3,57,0,5
3,36,63,76
3,36,0,165
3,60,72,23
3,65,76,0
3,57,79,4
3,60,0,106
3,57,0,7
3,65,0,3
3,50,52,77
3,38,51,2
3,38,0,119
3,50,0,11
3,62,77,58
3,69,71,1
3,60,81,3
3,66,82,1
3,62,0,85
3,69,0,1
3,66,0,1
3,60,0,13
3,45,91,87
3,45,0,154
3,60,82,19
3,69,88,4
3,62,92,0
3,66,92,0
3,69,0,152
3,66,0,2
3,62,0,10
3,60,0,0
3,55,59,39
3,43,68,1
3,43,0,139
3,55,0,8
3,65,82,44
3,62,72,1
3,59,74,3
3,67,72,5
3,65,0,112
3,59,0,1
3,62,0,3
3,67,0,17
3,50,60,54
3,50,0,122
3,59,82,68
3,67,72,4
3,62,77,3
3,65,79,0
3,65,0,110
3,67,0,4
3,59,0,0
3,62,0,2
3,48,69,67
3,36,74,3
3,48,0,154
3,36,0,10
3,58,72,26
3,64,78,2
3,67,73,1
3,60,71,4
3,67,0,98
3,64,0,5
3,58,0,2
3,60,0,3
3,43,68,78
3,43,0,123
3,67,71,68
3,64,73,2
3,60,71,2
3,58,78,2
3,67,0,115
3,60,0,4
3,64,0,5
3,58,0,5
3,41,77,59
3,53,66,1
3,41,0,172
3,53,0,13
3,65,78,6
3,57,79,0
3,60,74,5
3,65,0,96
3,57,0,13
3,60,0,6
3,48,74,74
3,48,0,132
3,57,79,62
3,65,76,1
3,60,80,0
3,60,0,111
3,57,0,0
3,65,0,2
3,53,57,74
3,41,54,3
3,41,0,184
3,53,0,6
3,65,82,2
3,57,71,2
3,60,81,1
3,65,0,94
3,60,0,5
3,57,0,1
3,48,98,88
3,48,0,186
3,65,82,4
3,60,75,2
3,57,77,2
3,57,0,96
3,65,0,1
3,60,0,5
3,48,68,87
3,36,62,1
3,36,0,141
3,48,0,13
3,60,76,39
3,64,80,3
3,55,76,0
3,64,0,115
3,55,0,5
3,60,0,8
3,43,67,56
3,43,0,156
3,60,72,35
3,55,82,1
3,64,77,3
3,55,0,109
3,60,0,11
3,64,0,5
3,36,61,64
3,48,52,1
3,48,0,183
3,36,0,0
3,60,81,8
3,64,75,0
3,55,78,5
3,60,0,103
3,64,0,6
3,55,0,9
3,43,64,74
3,43,0,138
3,64,78,52
3,55,76,1
3,60,82,1
3,64,0,98
3,60,0,1
3,55,0,7
3,36,63,83
3,48,61,3
3,48,0,168
3,36,0,8
3,60,81,12
3,64,75,3
3,55,74,4
3,64,0,84
3,60,0,4
3,55,0,8
3,43,68,88
3,43,0,170
3,60,75,24
3,64,78,5
3,55,79,0
3,60,0,84
3,55,0,4
3,64,0,10
3,55,55,86
3,43,62,2
3,43,0,152
3,55,0,4
3,67,80,35
3,59,72,1
3,62,77,3
3,65,80,0
3,67,0,92
3,65,0,5
3,59,0,3
3,62,0,4
3,50,62,88
3,50,0,161
3,62,71,27
3,67,82,0
3,59,79,2
3,65,78,6
3,62,0,89
3,67,0,3
3,59,0,13
3,65,0,1
3,55,60,78
3,43,56,6
3,55,0,174
3,62,76,14
3,67,73,1
3,43,0,3
3,59,72,0
3,65,78,2
3,65,0,95
3,62,0,10
3,67,0,1
3,59,0,1
3,50,61,85
3,50,0,183
3,65,74,1
3,67,81,4
3,62,81,0
3,59,73,0
3,67,0,102
3,59,0,2
3,62,0,1
3,65,0,2
3,43,68,80
3,55,77,5
3,43,0,138
3,55,0,7
3,67,73,46
3,62,78,0
3,59,74,4
3,65,73,1
3,62,0,104
3,67,0,0
3,59,0,6
3,65,0,10
3,50,66,69
3,50,0,171
3,62,73,15
3,67,73,5
3,65,79,2
3,59,71,2
3,59,0,116
3,65,0,2
3,62,0,1
3,67,0,1
3,55,75,69
3,43,68,2
3,43,0,121
3,55,0,0
3,65,80,64
3,62,82,1
3,67,78,3
3,59,71,2
3,65,0,94
3,62,0,16
3,59,0,3
3,67,0,1
3,50,57,78
3,50,0,181
3,59,78,4
3,67,77,3
3,62,71,3
3,65,71,0
3,59,0,111
3,65,0,3
3,67,0,5
3,62,0,5
3,36,65,68
3,48,66,2
3,36,0,177
3,48,0,4
3,64,79,8
3,55,75,3
3,60,76,1
3,60,0,115
3,64,0,2
3,55,0,1
3,31,71,73
3,31,0,131
3,55,75,54
3,64,79,4
3,60,81,1
3,64,0,99
3,55,0,8
3,60,0,7
3,48,63,72
3,36,73,2
3,48,0,159
3,36,0,8
3,64,76,23
3,55,74,2
3,60,82,6
3,64,0,104
3,55,0,10
3,60,0,5
3,43,70,66
3,43,0,175
3,60,82,17
3,55,72,7
3,64,71,1
3,64,0,120
3,60,0,4
3,55,0,8
3,36,56,52
3,48,62,4
3,48,0,172
3,36,0,2
3,60,81,14
3,55,79,7
3,64,78,0
3,60,0,113
3,55,0,0
3,64,0,15
3,40,67,61
3,40,0,128
3,60,75,60
3,55,77,0
3,64,75,7
3,55,0,86
3,60,0,3
3,64,0,8
3,36,72,87
3,48,73,0
3,36,0,154
3,48,0,7
3,64,75,32
3,60,82,4
3,55,77,1
3,64,0,99
3,60,0,2
3,55,0,12
3,43,65,82
3,43,0,133
3,60,76,51
3,64,72,5
3,55,71,2
3,60,0,102
3,55,0,15
3,64,0,2
3,55,70,65
3,43,79,3
3,55,0,138
3,43,0,6
3,65,77,45
3,62,73,1
3,59,79,1
3,67,72,1
3,62,0,115
3,65,0,1
3,59,0,4
3,67,0,1
3,50,69,73
3,50,0,152
3,65,75,35
3,59,71,3
3,67,78,2
3,62,75,4
3,65,0,83
3,62,0,7
3,59,0,0
3,67,0,12
3,43,60,82
3,55,62,1
3,55,0,161
3,43,0,4
3,59,71,25
3,67,74,2
3,62,80,1
3,65,81,1
3,67,0,101
3,59,0,8
3,62,0,1
3,65,0,7
3,50,62,79
3,50,0,141
3,65,75,43
3,67,80,1
3,62,82,3
3,59,79,1
3,67,0,110
3,59,0,6
3,65,0,3
3,62,0,4
3,55,65,69
3,43,67,4
3,55,0,148
3,43,0,12
3,62,78,24
3,59,77,3
3,67,73,4
3,65,82,1
3,62,0,104
3,59,0,7
3,67,0,5
3,65,0,2
3,50,59,68
3,50,0,166
3,62,73,23
3,65,74,1
3,59,78,3
3,67,73,4
3,65,0,101
3,62,0,5
3,59,0,7
3,67,0,4
3,43,60,68
3,55,58,6
3,55,0,122
3,43,0,12
3,62,78,54
3,67,76,2
3,59,80,0
3,65,77,3
3,62,0,95
3,65,0,2
3,67,0,4
3,59,0,1
3,50,69,89
3,50,0,144
3,65,80,41
3,62,79,3
3,67,75,2
3,59,76,0
3,65,0,96
3,62,0,2
3,59,0,6
3,67,0,6
3,36,74,79
3,48,80,2
3,48,0,164
3,36,0,10
3,64,81,14
3,55,79,1
3,60,80,0
3,64,0,91
3,60,0,1
3,55,0,1
3,64,86,98
3,67,92,0
3,60,90,0
3,36,88,5
3,55,86,0
3,48,84,0
3,67,0,147
3,48,0,4
3,55,0,4
3,36,0,1
3,60,0,0
3,64,0,2
3,43,77,228
3,31,74,0
3,31,0,168
3,43,0,4
3,65,77,13
3,62,74,1
3,59,74,7
3,65,0,96
3,59,0,8
3,62,0,2
3,38,64,87
3,38,0,174
3,62,74,10
3,59,81,7
3,65,75,1
3,62,0,99
3,65,0,17
3,59,0,4
3,31,68,64
3,43,71,4
3,31,0,159
3,43,0,5
3,65,77,24
3,59,71,0
3,62,76,8
3,59,0,89
3,65,0,5
3,62,0,8
3,38,65,85
3,38,0,159
3,62,75,29
3,65,77,6
3,59,78,2
3,59,0,90
3,62,0,4
3,65,0,7
3,43,58,89
3,31,63,2
3,43,0,137
3,31,0,12
3,65,80,36
3,62,71,4
3,59,81,1
3,65,0,118
3,62,0,2
3,59,0,8
3,38,73,59
3,38,0,156
3,65,72,35
3,62,72,1
3,59,71,8
3,65,0,85
3,62,0,3
3,59,0,19
3,43,69,76
3,31,69,9
3,43,0,144
3,31,0,5
3,65,82,34
3,62,74,1
3,59,73,3
3,62,0,111
3,65,0,0
3,59,0,8
3,35,82,45
3,35,0,169
3,59,86,48
3,62,84,5
3,65,85,1
3,38,84,2
3,59,0,108
3,62,0,4
3,38,0,6
3,65,0,6
3,36,61,59
3,48,64,1
3,36,0,165
3,48,0,0
3,64,75,30
3,60,78,3
3,55,82,2
3,55,0,97
3,64,0,7
3,60,0,6
3,43,65,78
3,43,0,150
3,60,79,39
3,64,78,3
3,55,82,4
3,64,0,104
3,55,0,6
3,60,0,2
3,36,74,76
3,48,68,4
3,36,0,125
3,48,0,11
3,64,76,52
3,55,78,1
3,60,73,1
3,55,0,112
3,60,0,1
3,64,0,7
3,40,70,73
3,40,0,131
3,64,76,53
3,55,72,5
3,60,79,2
3,64,0,102
3,60,0,11
3,55,0,7
3,36,78,65
3,48,76,5
3,48,0,153
3,36,0,3
3,64,77,31
3,55,74,1
3,60,74,0
3,60,0,95
3,64,0,0
3,55,0,9
3,43,66,93
3,43,0,163
3,64,77,24
3,55,74,2
3,60,79,0
3,64,0,98
3,60,0,1
3,55,0,17
3,36,63,80
3,48,71,0
3,48,0,149
3,36,0,11
3,64,80,26
3,60,76,4
3,55,81,1
3,60,0,92
3,64,0,7
3,55,0,4
3,39,96,88
3,39,0,129
3,63,79,52
3,60,72,4
3,54,79,2
3,51,99,5
3,63,0,84
3,54,0,3
3,60,0,5
3,51,0,7
3,43,64,90
3,31,59,3
3,31,0,185
3,43,0,1
3,62,73,1
3,59,71,5
3,67,82,0
3,65,71,4
3,67,0,96
3,59,0,5
3,62,0,4
3,65,0,9
3,38,73,73
3,38,0,169
3,65,74,23
3,67,73,2
3,59,81,2
3,62,79,1
3,59,0,89
3,62,0,8
3,65,0,2
3,67,0,3
3,43,51,84
3,31,56,2
3,43,0,133
3,31,0,2
3,65,76,56
3,59,71,1
3,67,73,0
3,62,80,2
3,67,0,85
3,59,0,5
3,65,0,2
3,62,0,11
3,38,69,90
3,67,71,185
3,62,80,1
3,38,0,1
3,59,82,0
3,65,80,6
3,67,0,108
3,62,0,4
3,65,0,4
3,59,0,10
3,31,61,58
3,43,63,6
3,31,0,150
3,43,0,9
3,67,78,27
3,62,72,0
3,59,81,2
3,65,74,4
3,59,0,94
3,65,0,3
3,67,0,6
3,62,0,4
3,35,61,93
3,35,0,147
3,67,71,31
3,62,72,4
3,59,81,3
3,65,79,1
3,67,0,94
3,62,0,6
3,65,0,11
3,59,0,1
3,50,59,79
3,38,70,5
3,50,0,139
3,38,0,12
3,69,71,25
3,62,77,8
3,65,71,1
3,57,82,3
3,62,0,111
3,69,0,4
3,65,0,6
3,57,0,3
3,41,90,58
3,41,0,168
3,69,74,10
3,62,74,14
3,57,81,2
3,65,75,0
3,69,0,101
3,62,0,6
3,65,0,11
3,57,0,9
3,43,70,67
3,55,67,6
3,43,0,133
3,55,0,14
3,67,79,38
3,65,72,2
3,62,78,3
3,59,77,2
3,65,0,96
3,62,0,7
3,67,0,2
3,59,0,7
3,50,72,71
3,50,0,138
3,67,76,54
3,59,81,1
3,62,77,4
3,65,74,4
3,67,0,104
3,59,0,7
3,62,0,5
3,65,0,7
3,55,71,60
3,43,62,5
3,55,0,160
3,43,0,4
3,62,71,25
3,69,81,0
3,65,80,3
3,59,81,2
3,69,0,116
3,59,0,1
3,62,0,1
3,65,0,12
3,47,61,60
3,47,0,132
3,69,78,50
3,59,77,6
3,62,72,4
3,65,71,4
3,62,0,110
3,69,0,5
3,59,0,1
3,65,0,4
3,48,55,68
3,36,61,3
3,48,0,189
3,55,82,0
3,64,71,1
3,60,79,0
3,36,0,3
3,64,0,92
3,60,0,12
3,55,0,0
3,43,65,80
3,43,0,168
3,60,78,24
3,64,76,2
3,55,79,5
3,64,0,99
3,60,0,4
3,55,0,6
3,36,61,76
3,48,66,0
3,48,0,183
3,36,0,1
3,64,82,5
3,55,81,3
3,60,76,0
3,55,0,110
3,64,0,2
3,60,0,3
3,44,63,89
3,44,0,176
3,60,74,8
3,54,82,3
3,51,81,3
3,54,0,122
3,60,0,1
3,51,0,3
3,43,68,59
3,31,72,3
3,43,0,163
3,31,0,9
3,59,73,16
3,62,77,0
3,65,77,2
3,59,0,104
3,62,0,9
3,65,0,7
3,38,66,69
3,38,0,166
3,62,76,31
3,59,76,0
3,65,76,1
3,62,0,109
3,59,0,5
3,65,0,7
3,43,73,64
3,31,69,3
3,43,0,149
3,31,0,15
3,59,76,24
3,62,75,1
3,65,74,5
3,62,0,103
3,59,0,1
3,65,0,5
3,38,68,81
3,38,0,167
3,59,78,23
3,62,82,3
3,65,77,1
3,65,0,94
3,62,0,1
3,59,0,0
3,43,59,95
3,31,61,1
3,31,0,140
3,43,0,1
3,65,81,46
3,62,79,2
3,59,74,2
3,59,0,112
3,65,0,5
3,62,0,3
3,38,63,76
3,38,0,162
3,65,74,24
3,59,81,0
3,62,71,3
3,59,0,88
3,65,0,3
3,62,0,12
3,43,66,86
3,31,75,6
3,43,0,138
3,31,0,11
3,65,71,39
3,59,77,3
3,62,78,1
3,65,0,114
3,62,0,5
3,59,0,2
3,35,82,36
3,35,0,155
3,65,83,68
3,62,88,0
3,59,82,3
3,38,85,1
3,65,0,109
3,62,0,10
3,59,0,1
3,38,0,1
3,48,66,68
3,36,70,4
3,48,0,160
3,36,0,13
3,55,78,12
3,64,81,3
3,60,81,0
3,60,0,96
3,64,0,9
3,55,0,3
3,43,63,83
3,43,0,141
3,64,72,51
3,55,79,0
3,60,79,4
3,60,0,112
3,55,0,1
3,64,0,3
3,36,76,69
3,48,78,7
3,36,0,115
3,48,0,16
3,55,74,56
3,60,75,2
3,64,76,2
3,55,0,108
3,60,0,2
3,64,0,9
3,40,71,70
3,40,0,136
3,60,82,53
3,64,81,3
3,55,79,2
3,55,0,115
3,60,0,5
3,64,0,5
3,36,69,61
3,48,71,1
3,36,0,148
3,48,0,8
3,64,73,36
3,60,74,3
3,55,75,4
3,64,0,95
3,60,0,7
3,55,0,3
3,43,67,84
3,43,0,168
3,55,71,19
3,60,73,6
3,64,71,3
3,55,0,96
3,64,0,4
3,60,0,6
3,48,72,77
3,36,71,5
3,48,0,141
3,36,0,15
3,60,82,31
3,64,79,2
3,55,80,3
3,64,0,88
3,60,0,2
3,55,0,2
3,39,99,96
3,39,0,126
3,54,73,57
3,63,80,1
3,60,79,6
3,51,94,7
3,60,0,80
3,54,0,2
3,63,0,2
3,51,0,3
3,43,67,100
3,31,66,6
3,31,0,180
3,43,0,1
3,65,73,4
3,67,78,1
3,62,72,4
3,59,80,3
3,67,0,101
3,65,0,4
3,59,0,2
3,62,0,0
3,38,73,81
3,38,0,169
3,62,76,19
3,59,82,4
3,65,75,3
3,67,76,1
3,62,0,89
3,59,0,6
3,65,0,2
3,67,0,1
3,31,51,86
3,43,51,2
3,31,0,131
3,43,0,4
3,67,80,56
3,65,72,0
3,59,78,7
3,62,79,1
3,67,0,88
3,62,0,4
3,65,0,5
3,59,0,2
3,38,69,89
3,38,0,187
3,67,72,2
3,65,71,3
3,59,74,0
3,62,74,0
3,62,0,130
3,67,0,1
3,65,0,2
3,59,0,0
3,31,65,60
3,43,64,3
3,31,0,156
3,43,0,8
3,59,72,19
3,67,76,1
3,65,78,2
3,62,76,3
3,62,0,96
3,59,0,9
