track,note,velocity,time
1,33,125,26112
1,33,125,96
1,36,125,4
1,37,125,4
1,40,125,4
1,33,125,4
1,42,125,4
1,40,125,4
1,33,125,4
1,33,125,96
1,36,125,4
1,37,125,4
1,40,125,4
1,33,125,4
1,42,125,4
1,45,125,4
1,33,125,4
1,33,125,96
1,36,125,4
1,37,125,4
1,40,125,4
1,33,125,4
1,42,125,4
1,40,125,4
1,33,125,4
1,33,125,96
1,36,125,4
1,37,125,4
1,40,125,4
1,33,125,4
1,42,125,4
1,45,125,4
1,33,125,4
1,33,125,96
1,36,125,4
1,37,125,4
1,40,125,4
1,33,125,4
1,42,125,4
1,40,125,4
1,33,125,4
1,33,125,96
1,36,125,4
1,37,125,4
1,40,125,4
1,33,125,4
1,42,125,4
1,45,125,4
1,33,125,4
1,33,125,96
1,36,125,4
1,37,125,4
1,40,125,4
1,33,125,4
1,42,125,4
1,40,125,4
1,33,125,4
1,45,125,4
1,35,125,4
1,47,125,4
1,36,125,4
1,48,125,4
1,37,125,4
1,49,125,4
1,38,125,4
1,38,125,96
1,41,125,4
1,42,125,4
1,45,125,4
1,38,125,4
1,47,125,4
1,45,125,4
1,38,125,4
1,38,125,96
1,41,125,4
1,42,125,4
1,45,125,4
1,38,125,4
1,47,125,4
1,50,125,4
1,33,125,4
1,33,125,96
1,36,125,4
1,37,125,4
1,40,125,4
1,33,125,4
1,42,125,4
1,40,125,4
1,33,125,4
1,33,125,96
1,36,125,4
1,37,125,4
1,40,125,4
1,33,125,4
1,42,125,4
1,40,125,4
1,28,125,4
1,28,125,96
1,31,125,4
1,32,125,4
1,35,125,4
1,28,125,4
1,37,125,4
1,35,125,4
1,28,125,4
1,28,125,96
1,31,125,4
1,32,125,4
1,35,125,4
1,28,125,4
1,37,125,4
1,40,125,4
1,33,125,4
1,38,125,2884
1,38,125,96
1,41,125,4
1,42,125,4
1,45,125,4
1,38,125,4
1,47,125,4
1,45,125,4
1,38,125,4
1,38,125,96
1,41,125,4
1,42,125,4
1,45,125,4
1,38,125,4
1,47,125,4
1,50,125,4
1,33,125,4
1,33,125,96
1,36,125,4
1,37,125,4
1,40,125,4
1,33,125,4
1,42,125,4
1,40,125,4
1,33,125,4
1,33,125,96
1,36,125,4
1,37,125,4
1,40,125,4
1,33,125,4
1,42,125,4
1,45,125,4
1,28,125,4
1,28,125,96
1,31,125,4
1,32,125,4
1,35,125,4
1,28,125,4
1,37,125,4
1,35,125,4
1,28,125,4
1,28,125,96
1,31,125,4
1,32,125,4
1,35,125,4
1,28,125,4
1,37,125,4
1,40,125,4
1,33,125,4
1,33,125,2884
1,33,125,96
1,36,125,4
1,37,125,4
1,40,125,4
1,33,125,4
1,42,125,4
1,40,125,4
1,33,125,4
1,33,125,96
1,36,125,4
1,37,125,4
1,40,125,4
1,33,125,4
1,42,125,4
1,45,125,4
1,33,125,4
1,33,125,96
1,36,125,4
1,37,125,4
1,40,125,4
1,33,125,4
1,42,125,4
1,40,125,4
1,33,125,4
1,45,125,4
1,35,125,4
1,47,125,4
1,36,125,4
1,48,125,4
1,37,125,4
1,49,125,4
1,38,125,4
1,38,125,96
1,41,125,4
1,42,125,4
1,45,125,4
1,38,125,4
1,47,125,4
1,45,125,4
1,38,125,4
1,38,125,96
1,41,125,4
1,42,125,4
1,45,125,4
1,38,125,4
1,47,125,4
1,50,125,4
1,33,125,4
1,33,125,96
1,36,125,4
1,37,125,4
1,40,125,4
1,33,125,4
1,42,125,4
1,40,125,4
1,33,125,4
1,33,125,96
1,36,125,4
1,37,125,4
1,40,125,4
1,33,125,4
1,42,125,4
1,40,125,4
1,28,126,4
1,28,126,96
1,31,126,4
1,32,126,4
1,35,126,4
1,28,126,4
1,37,126,4
1,35,126,4
1,28,126,4
1,28,126,96
1,31,126,4
1,32,126,4
1,35,126,4
1,28,126,4
1,37,126,4
1,40,126,4
1,33,126,4
1,33,126,96
1,36,126,4
1,37,126,4
1,40,126,4
1,33,126,4
1,42,126,4
1,40,126,4
1,33,126,4
1,33,126,96
1,36,126,4
1,37,126,4
1,40,126,4
1,33,126,4
1,42,126,4
1,45,126,4
1,33,126,4
1,33,126,96
1,36,126,4
1,37,126,4
1,40,126,4
1,33,126,4
1,42,126,4
1,40,126,4
1,33,126,4
1,33,126,96
1,36,126,4
1,37,126,4
1,40,126,4
1,33,126,4
1,42,126,4
1,45,126,4
1,33,126,4
1,33,126,96
1,36,126,4
1,37,126,4
1,40,126,4
1,33,126,4
1,42,126,4
1,40,126,4
1,33,126,4
1,45,126,4
1,35,126,4
1,47,126,4
1,36,126,4
1,48,126,4
1,37,126,4
1,49,126,4
1,38,126,4
1,38,126,96
1,41,126,4
1,42,126,4
1,45,126,4
1,38,126,4
1,47,126,4
1,45,126,4
1,38,126,4
1,38,126,96
1,41,126,4
1,42,126,4
1,45,126,4
1,38,126,4
1,47,126,4
1,50,126,4
1,33,126,4
1,33,126,96
1,36,126,4
1,37,126,4
1,40,126,4
1,33,126,4
1,42,126,4
1,40,126,4
1,33,126,4
1,33,126,96
1,36,126,4
1,37,126,4
1,40,126,4
1,33,126,4
1,42,126,4
1,40,126,4
1,28,126,4
1,28,126,96
1,31,126,4
1,32,126,4
1,35,126,4
1,28,126,4
1,37,126,4
1,35,126,4
1,28,126,4
1,28,126,96
1,31,126,4
1,32,126,4
1,35,126,4
1,28,126,4
1,37,126,4
1,40,126,4
1,33,126,4
1,38,126,2884
1,38,126,96
1,41,126,4
1,42,126,4
1,45,126,4
1,38,126,4
1,47,126,4
1,45,126,4
1,38,126,4
1,38,126,96
1,41,126,4
1,42,126,4
1,45,126,4
1,38,126,4
1,47,126,4
1,50,126,4
1,33,126,4
1,33,126,96
1,36,126,4
1,37,126,4
1,40,126,4
1,33,126,4
1,42,126,4
1,40,126,4
1,33,126,4
1,33,126,96
1,36,126,4
1,37,126,4
1,40,126,4
1,33,126,4
1,42,126,4
1,45,126,4
1,28,126,4
1,28,126,96
1,31,126,4
1,32,126,4
1,35,126,4
1,28,126,4
1,37,126,4
1,35,126,4
1,28,126,4
1,28,126,96
1,31,126,4
1,32,126,4
1,35,126,4
1,28,126,4
1,37,126,4
1,40,126,4
1,33,126,4
1,33,126,96
1,36,126,4
1,37,126,4
1,40,126,4
1,33,126,4
1,42,126,4
1,40,126,4
1,33,126,4
1,45,126,4
1,35,126,4
1,47,126,4
1,36,126,4
1,48,126,4
1,37,126,4
1,49,126,4
1,38,126,4
1,38,126,96
1,41,126,4
1,42,126,4
1,45,126,4
1,38,126,4
1,47,126,4
1,45,126,4
1,38,126,4
1,38,126,96
1,41,126,4
1,42,126,4
1,45,126,4
1,38,126,4
1,47,126,4
1,50,126,4
1,33,126,4
1,33,126,96
1,36,126,4
1,37,126,4
1,40,126,4
1,33,126,4
1,42,126,4
1,40,126,4
1,33,126,4
1,33,126,96
1,36,126,4
1,37,126,4
1,40,126,4
1,33,126,4
1,42,126,4
1,45,126,4
1,28,126,4
1,28,126,96
1,31,126,4
1,32,126,4
1,35,126,4
1,28,126,4
1,37,126,4
1,35,126,4
1,28,126,4
1,28,126,96
1,31,126,4
1,32,126,4
1,35,126,4
1,28,126,4
1,37,126,4
1,40,126,4
1,33,126,4
1,33,126,96
1,36,126,4
1,37,126,4
1,40,126,4
1,33,126,4
1,42,126,4
1,40,126,4
1,33,126,4
1,33,126,96
1,36,126,4
1,37,126,4
1,40,126,4
1,33,126,4
1,42,126,4
1,45,126,4
1,28,126,4
1,28,126,96
1,31,126,4
1,32,126,4
1,35,126,4
1,28,126,4
1,37,126,4
1,35,126,4
1,28,126,4
1,28,126,96
1,31,126,4
1,32,126,4
1,35,126,4
1,28,126,4
1,37,126,4
1,40,126,4
1,33,126,4
1,31,125,1440
1,32,125,4
1,33,125,4
1,33,119,260
2,45,125,1536
2,52,125,0
2,45,125,0
2,54,125,0
2,45,125,240
2,52,125,0
2,54,125,0
2,45,125,0
2,45,125,48
2,52,125,0
2,52,125,240
2,45,125,0
2,54,125,4
2,45,125,0
2,45,125,240
2,52,125,0
2,54,125,0
2,45,125,0
2,52,125,240
2,57,125,0
2,45,125,0
2,54,125,0
2,45,125,0
2,45,125,240
2,52,125,0
2,54,125,0
2,45,125,0
2,45,125,48
2,52,125,0
2,59,125,240
2,59,125,80
2,59,125,94
2,57,125,32
2,52,125,192
2,45,125,78
2,57,115,0
2,52,125,0
2,54,125,0
2,45,125,0
2,45,125,240
2,52,125,0
2,45,125,0
2,54,125,0
2,45,125,48
2,52,125,0
2,45,125,240
2,52,125,0
2,54,125,4
2,45,125,0
2,52,125,240
2,45,125,0
2,54,125,0
2,45,125,0
2,57,125,240
2,45,125,0
2,52,125,0
2,45,125,0
2,54,125,0
2,52,125,240
2,45,125,0
2,54,125,0
2,45,125,0
2,45,125,48
2,52,125,0
2,45,125,240
2,52,125,0
2,45,125,4
2,54,125,0
2,52,125,240
2,45,125,0
2,45,125,0
2,54,125,0
2,57,125,240
2,50,125,0
2,59,125,0
2,50,125,0
2,57,125,240
2,50,125,0
2,59,125,0
2,50,125,0
2,50,125,48
2,57,125,0
2,50,125,240
2,57,125,0
2,59,125,4
2,50,125,0
2,57,125,240
2,50,125,0
2,59,125,0
2,50,125,0
2,52,125,240
2,45,125,0
2,45,125,0
2,54,125,0
2,45,125,240
2,52,125,0
2,54,125,0
2,45,125,0
2,45,125,48
2,52,125,0
2,45,125,240
2,52,125,0
2,45,125,4
2,54,125,0
2,45,125,240
2,52,125,0
2,45,125,0
2,54,125,0
2,40,125,240
2,47,125,0
2,40,125,0
2,49,125,0
2,47,125,240
2,40,125,0
2,49,125,0
2,40,125,0
2,47,125,48
2,40,125,0
2,40,125,240
2,47,125,0
2,40,125,4
2,49,125,0
2,47,125,240
2,40,125,0
2,49,125,0
2,40,125,0
2,45,125,240
2,52,125,0
2,52,125,9028
2,45,125,0
2,54,125,0
2,45,125,0
2,52,125,240
2,45,125,0
2,54,125,0
2,45,125,0
2,45,125,48
2,52,125,0
2,52,125,240
2,45,125,0
2,45,125,4
2,54,125,0
2,45,125,240
2,52,125,0
2,54,125,0
2,45,125,0
2,52,125,240
2,57,125,0
2,45,125,0
2,54,125,0
2,45,125,0
2,52,125,240
2,45,125,0
2,54,125,0
2,45,125,0
2,45,125,48
2,52,125,0
2,52,125,240
2,45,125,0
2,45,125,4
2,54,125,0
2,45,125,240
2,52,125,0
2,45,125,0
2,54,125,0
2,50,125,240
2,57,125,0
2,59,125,0
2,50,125,0
2,57,125,240
2,50,125,0
2,50,125,0
2,59,125,0
2,57,125,48
2,50,125,0
2,50,125,240
2,57,125,0
2,59,125,4
2,50,125,0
2,50,125,240
2,57,125,0
2,50,125,0
2,59,125,0
2,45,125,240
2,52,125,0
2,54,125,0
2,45,125,0
2,45,125,240
2,52,125,0
2,54,125,0
2,45,125,0
2,45,125,48
2,52,125,0
2,52,125,240
2,45,125,0
2,54,125,4
2,45,125,0
2,45,125,240
2,52,125,0
2,45,125,0
2,54,125,0
2,40,125,240
2,47,125,0
2,49,125,0
2,40,125,0
2,47,125,240
2,40,125,0
2,49,125,0
2,40,125,0
2,40,125,48
2,47,125,0
2,40,125,240
2,47,125,0
2,40,125,4
2,49,125,0
2,47,125,240
2,40,125,0
2,49,125,0
2,40,125,0
2,45,125,240
2,52,125,0
2,57,125,2884
2,50,125,0
2,50,125,0
2,59,125,0
2,50,125,240
2,57,125,0
2,50,125,0
2,59,125,0
2,50,125,48
2,57,125,0
2,50,125,240
2,57,125,0
2,50,125,4
2,59,125,0
2,50,125,240
2,57,125,0
2,50,125,0
2,59,125,0
2,45,125,240
2,52,125,0
2,45,125,0
2,54,125,0
2,52,125,240
2,45,125,0
2,54,125,0
2,45,125,0
2,45,125,48
2,52,125,0
2,45,125,240
2,52,125,0
2,45,125,4
2,54,125,0
2,52,125,240
2,45,125,0
2,54,125,0
2,45,125,0
2,40,125,240
2,47,125,0
2,49,125,0
2,40,125,0
2,47,125,240
2,40,125,0
2,40,125,0
2,49,125,0
2,40,125,48
2,47,125,0
2,47,125,240
2,40,125,0
2,49,125,4
2,40,125,0
2,47,125,240
2,40,125,0
2,49,125,0
2,40,125,0
2,45,125,240
2,52,125,0
2,52,125,2884
2,45,125,0
2,54,125,0
2,45,125,0
2,45,125,240
2,52,125,0
2,54,125,0
2,45,125,0
2,45,125,48
2,52,125,0
2,52,125,240
2,45,125,0
2,45,125,4
2,54,125,0
2,45,125,240
2,52,125,0
2,54,125,0
2,45,125,0
2,57,125,240
2,45,125,0
2,52,125,0
2,45,125,0
2,54,125,0
2,45,125,240
2,52,125,0
2,54,125,0
2,45,125,0
2,52,125,48
2,45,125,0
2,52,125,240
2,45,125,0
2,45,125,4
2,54,125,0
2,45,125,240
2,52,125,0
2,45,125,0
2,54,125,0
2,50,125,240
2,57,125,0
2,59,125,0
2,50,125,0
2,57,125,240
2,50,125,0
2,59,125,0
2,50,125,0
2,57,125,48
2,50,125,0
2,57,125,240
2,50,125,0
2,50,125,4
2,59,125,0
2,57,125,240
2,50,125,0
2,59,125,0
2,50,125,0
2,45,125,240
2,52,125,0
2,45,125,0
2,54,125,0
2,52,125,240
2,45,125,0
2,54,125,0
2,45,125,0
2,52,125,48
2,45,125,0
2,45,125,240
2,52,125,0
2,54,125,4
2,45,125,0
2,45,125,240
2,52,125,0
2,45,125,0
2,54,125,0
2,47,125,240
2,40,125,0
2,40,125,0
2,49,125,0
2,47,125,240
2,40,125,0
2,40,125,0
2,49,125,0
2,40,125,48
2,47,125,0
2,40,125,240
2,47,125,0
2,49,125,4
2,40,125,0
2,40,125,240
2,47,125,0
2,49,125,0
2,40,125,0
2,52,126,240
2,45,126,0
2,54,126,0
2,45,126,0
2,45,126,240
2,52,126,0
2,54,126,0
2,45,126,0
2,45,126,48
2,52,126,0
2,45,126,240
2,52,126,0
2,45,126,4
2,54,126,0
2,52,126,240
2,45,126,0
2,45,126,0
2,54,126,0
2,52,125,240
2,45,125,0
2,45,125,0
2,54,125,0
2,52,125,240
2,45,125,0
2,54,125,0
2,45,125,0
2,52,125,48
2,45,125,0
2,52,125,240
2,45,125,0
2,45,125,4
2,54,125,0
2,52,125,240
2,45,125,0
2,54,125,0
2,45,125,0
2,57,125,240
2,52,125,0
2,45,125,0
2,45,125,0
2,54,125,0
2,45,125,240
2,52,125,0
2,45,125,0
2,54,125,0
2,52,125,48
2,45,125,0
2,52,125,240
2,45,125,0
2,45,125,4
2,54,125,0
2,52,125,240
2,45,125,0
2,45,125,0
2,54,125,0
2,57,125,240
2,50,125,0
2,50,125,0
2,59,125,0
2,57,125,240
2,50,125,0
2,59,125,0
2,50,125,0
2,50,125,48
2,57,125,0
2,50,125,240
2,57,125,0
2,59,125,4
2,50,125,0
2,57,125,240
2,50,125,0
2,59,125,0
2,50,125,0
2,45,125,240
2,52,125,0
2,54,125,0
2,45,125,0
2,52,125,240
2,45,125,0
2,45,125,0
2,54,125,0
2,45,125,48
2,52,125,0
2,52,125,240
2,45,125,0
2,45,125,4
2,54,125,0
2,52,125,240
2,45,125,0
2,54,125,0
2,45,125,0
2,40,125,240
2,47,125,0
2,49,125,0
2,40,125,0
2,40,125,240
2,47,125,0
2,40,125,0
2,49,125,0
2,40,125,48
2,47,125,0
2,40,125,240
2,47,125,0
2,49,125,4
2,40,125,0
2,47,125,240
2,40,125,0
2,49,125,0
2,40,125,0
2,52,125,240
2,45,125,0
2,57,125,2884
2,50,125,0
2,59,125,0
2,50,125,0
2,50,125,240
2,57,125,0
2,59,125,0
2,50,125,0
2,50,125,48
2,57,125,0
2,57,125,240
2,50,125,0
2,50,125,4
2,59,125,0
2,57,125,240
2,50,125,0
2,59,125,0
2,50,125,0
2,45,125,240
2,52,125,0
2,45,125,0
2,54,125,0
2,52,125,240
2,45,125,0
2,54,125,0
2,45,125,0
2,45,125,48
2,52,125,0
2,45,125,240
2,52,125,0
2,54,125,4
2,45,125,0
2,52,125,240
