track,note,velocity,time
0,50,59,509
0,55,66,30
0,59,83,5
0,35,75,0
0,38,81,0
0,44,65,0
0,62,65,12
0,38,24,70
0,60,88,8
0,62,55,5
0,50,31,5
0,38,57,0
0,38,33,2
0,39,75,2
0,44,88,0
0,38,36,2
0,59,86,25
0,38,53,0
0,62,54,13
0,39,72,32
0,38,40,90
0,44,61,0
0,38,22,12
0,38,57,37
0,55,79,1
0,62,45,2
0,38,35,90
0,39,75,0
0,44,87,0
0,38,44,90
0,38,28,90
0,38,21,20
0,38,65,17
0,50,40,7
0,54,54,20
0,38,48,3
0,59,69,22
0,35,74,30
0,38,56,0
0,38,69,0
0,44,62,0
0,62,93,16
0,38,42,90
0,38,61,90
0,38,35,15
0,39,75,90
0,44,87,0
0,38,58,90
0,38,47,90
0,39,74,90
0,38,26,90
0,44,66,0
0,38,66,25
0,38,31,90
0,38,51,0
0,39,77,5
0,44,90,0
0,38,64,5
0,38,48,90
0,38,27,17
0,38,37,30
0,50,52,10
0,55,50,1
0,62,69,3
0,35,75,20
0,38,80,0
0,44,65,0
0,59,82,10
0,38,24,90
0,50,47,25
0,60,93,0
0,38,57,0
0,38,32,90
0,62,58,0
0,39,74,20
0,44,89,0
0,59,79,10
0,38,37,90
0,50,36,15
0,38,53,10
0,55,76,0
0,39,72,90
0,62,85,30
0,38,40,0
0,44,60,0
0,38,23,50
0,50,77,30
0,38,56,0
0,55,44,3
0,38,34,50
0,39,75,42
0,44,86,0
0,38,45,90
0,38,29,90
0,38,20,27
0,38,64,2
0,38,49,5
0,35,75,14
0,38,57,0
0,38,68,0
0,44,63,0
0,45,76,2
0,38,42,90
0,38,61,90
0,60,75,11
0,38,34,5
0,47,75,8
0,39,75,0
0,44,87,0
0,38,59,4
0,38,47,4
0,60,70,2
0,39,74,4
0,38,26,4
0,44,66,0
0,48,72,4
0,38,67,4
0,60,69,23
0,38,30,14
0,38,61,90
0,38,50,0
0,38,94,10
0,69,111,0
0,39,76,0
0,44,90,0
0,50,76,7
0,38,65,90
0,62,73,26
0,69,110,28
0,38,49,0
0,38,26,34
0,38,36,15
0,50,59,3
0,59,90,0
0,31,87,0
0,69,111,0
0,35,74,0
0,38,81,0
0,44,65,0
0,62,65,2
0,38,25,90
0,60,88,8
0,62,54,5
0,50,31,5
0,69,111,0
0,38,56,0
0,69,110,30
0,38,32,0
0,39,75,90
0,44,88,0
0,69,111,69
0,38,37,0
0,59,87,25
0,69,110,0
0,38,52,0
0,62,55,3
0,39,73,90
0,67,110,4
0,38,41,0
0,44,61,0
0,38,23,44
0,38,56,37
0,55,78,1
0,62,44,2
0,38,35,90
0,39,74,90
0,44,87,0
0,64,111,30
0,38,44,0
0,38,28,90
0,38,21,20
0,67,111,17
0,38,65,0
0,50,37,7
0,54,55,20
0,38,48,3
0,59,68,15
0,30,85,0
0,69,110,0
0,35,75,0
0,38,56,0
0,38,69,0
0,44,62,0
0,62,92,6
0,38,43,90
0,69,110,47
0,38,60,0
0,69,111,23
0,38,34,0
0,39,74,90
0,44,87,0
0,66,111,13
0,38,59,0
0,38,46,90
0,62,110,13
0,39,75,0
0,38,27,23
0,44,66,0
0,38,67,34
0,38,30,90
0,38,51,90
0,39,76,82
0,44,90,0
0,64,110,90
0,38,64,0
0,38,48,90
0,67,111,17
0,38,27,0
0,48,53,30
0,38,37,0
0,55,52,18
0,62,75,14
0,36,82,10
0,67,110,0
0,35,74,0
0,38,80,0
0,44,65,0
0,59,83,10
0,38,24,90
0,48,46,25
0,60,93,5
0,62,111,0
0,38,57,0
0,38,33,90
0,62,64,10
0,62,111,10
0,39,75,0
0,44,89,0
0,59,78,10
0,38,36,90
0,48,37,10
0,67,110,20
0,38,52,0
0,55,77,0
0,67,111,32
0,39,73,0
0,62,84,20
0,38,41,0
0,44,60,0
0,62,110,22
0,38,22,0
0,50,68,40
0,38,57,0
0,38,35,90
0,39,74,90
0,44,86,0
0,72,110,30
0,38,44,0
0,38,29,90
0,38,20,27
0,71,111,2
0,38,64,0
0,38,49,0
0,33,83,0
0,69,111,0
0,35,74,0
0,38,57,0
0,38,68,0
0,44,63,0
0,45,71,2
0,38,42,90
0,67,110,0
0,38,61,0
0,60,75,1
0,69,110,0
0,38,35,0
0,47,70,0
0,71,111,0
0,39,75,0
0,44,87,0
0,38,58,90
0,69,111,0
0,38,46,0
0,60,70,3
0,39,74,3
0,38,27,3
0,44,66,0
0,48,73,3
0,38,66,3
0,60,68,4
0,38,31,3
0,69,110,3
0,38,51,0
0,39,76,10
0,44,90,0
0,50,77,7
0,38,64,8
0,62,73,26
0,69,110,28
0,35,65,0
0,38,49,0
0,38,26,90
0,38,36,30
0,50,58,5
0,55,49,0
0,59,90,10
0,31,86,18
0,69,111,0
0,35,75,0
0,38,81,0
0,44,65,0
0,62,64,2
0,69,110,30
0,38,25,0
0,60,89,8
0,62,55,5
0,50,31,5
0,38,56,0
0,69,111,60
0,38,32,0
0,39,75,90
0,44,88,0
0,69,111,60
0,38,37,0
0,59,86,25
0,69,110,0
0,38,53,0
0,62,54,3
0,39,73,90
0,67,111,4
0,38,40,0
0,44,61,0
0,38,22,34
0,38,57,37
0,55,79,1
0,62,45,2
0,38,34,30
0,39,74,90
0,44,87,0
0,72,110,90
0,38,45,0
0,38,29,90
0,38,20,0
0,30,66,17
0,71,110,0
0,38,65,0
0,50,36,7
0,54,54,20
0,38,48,3
0,59,69,22
0,30,85,0
0,69,111,0
0,35,74,0
0,38,56,0
0,38,69,0
0,44,62,0
0,62,92,6
0,69,111,30
0,38,43,0
0,38,60,90
0,69,110,30
0,38,34,0
0,39,74,90
0,44,87,0
0,66,110,13
0,38,59,0
0,38,47,90
0,62,111,13
0,39,75,0
0,38,26,33
0,44,66,0
0,38,66,70
0,38,31,90
0,38,50,90
0,39,77,82
0,44,90,0
0,64,111,90
0,38,65,0
0,66,110,30
0,38,49,0
0,31,53,17
0,38,26,0
0,48,53,30
0,38,37,0
0,55,45,28
0,62,74,20
0,36,82,0
0,67,110,0
0,35,74,0
0,38,80,0
0,44,65,0
0,59,83,10
0,62,111,20
0,38,24,0
0,48,46,25
0,60,92,10
0,38,57,0
0,38,33,10
0,62,65,10
0,62,110,7
0,39,74,0
0,44,89,0
0,59,79,10
0,67,111,0
0,38,36,0
0,48,36,30
0,38,52,20
0,55,76,0
0,67,111,60
0,39,72,0
0,62,85,20
0,38,41,0
0,44,60,0
0,62,110,22
0,38,23,0
0,50,69,40
0,38,56,0
0,38,34,90
0,39,75,90
0,44,86,0
0,72,111,70
0,38,45,0
0,38,28,90
0,38,21,27
0,71,110,2
0,38,65,0
0,38,48,0
0,33,82,0
0,69,110,0
0,35,75,0
0,38,57,0
0,38,68,0
0,44,63,0
0,45,70,2
0,38,42,90
0,67,111,0
0,38,61,0
0,60,74,1
0,38,35,90
0,47,69,8
0,69,111,0
0,39,74,0
0,44,87,0
0,38,58,90
0,71,110,19
0,38,46,0
0,60,70,3
0,69,110,30
0,39,75,0
0,38,27,5
0,44,66,0
0,48,73,5
0,38,67,5
0,60,69,1
0,38,30,5
0,38,50,5
0,39,77,5
0,44,90,0
0,50,76,2
0,69,111,60
0,38,65,0
0,62,73,26
0,38,48,28
0,33,71,25
0,67,111,0
0,35,65,0
0,38,27,0
0,74,87,0
0,50,72,7
0,69,82,5
0,38,37,3
0,57,78,5
0,66,85,6
0,38,95,0
0,69,110,0
0,35,78,0
0,38,80,0
0,44,65,0
0,69,47,0
0,74,40,0
0,78,45,0
0,62,81,1
0,69,110,25
0,38,25,0
0,38,56,90
0,38,32,90
0,69,111,55
0,39,74,0
0,44,88,0
0,38,37,90
0,69,110,44
0,38,53,0
0,26,90,5
0,74,111,0
0,35,58,0
0,38,64,0
0,38,40,0
0,44,61,0
0,81,39,0
0,74,111,25
0,38,23,0
0,26,88,60
0,35,83,0
0,38,57,0
0,38,34,90
0,72,110,30
0,39,75,0
0,44,87,0
0,71,111,0
0,38,44,0
0,38,29,90
0,38,20,14
0,38,65,9
0,57,77,21
0,62,57,2
0,38,49,23
0,62,70,0
0,67,82,4
0,36,97,0
0,67,110,0
0,35,74,0
0,38,56,0
0,38,69,0
0,44,62,0
0,72,28,0
0,76,24,0
0,67,89,3
0,38,42,90
0,66,76,12
0,67,110,5
0,38,60,0
0,66,90,0
0,38,35,90
0,69,111,7
0,39,74,0
0,44,87,0
0,38,59,90
0,67,111,7
0,38,46,0
0,62,80,0
0,62,75,8
0,36,90,57
0,35,59,0
0,38,56,0
0,38,35,0
0,44,66,0
0,79,32,0
0,38,55,58
0,36,93,29
0,35,81,0
0,38,30,0
0,57,73,0
0,38,50,90
0,39,76,90
0,44,90,0
0,74,110,90
0,38,65,0
0,74,110,57
0,38,48,0
0,36,69,28
0,74,111,0
0,38,27,0
0,43,59,0
0,38,37,17
0,55,64,7
0,50,51,0
0,55,68,7
0,31,90,9
0,35,74,0
0,38,80,0
0,44,65,0
0,59,80,0
0,67,28,0
0,74,37,0
0,62,58,13
0,74,111,53
0,38,25,0
0,60,87,5
0,55,57,4
0,38,56,8
0,62,57,16
0,74,110,25
0,38,32,0
0,74,110,17
0,39,75,0
0,44,89,0
0,38,37,90
0,55,54,15
0,59,80,6
0,74,111,3
0,38,53,0
0,62,64,3
0,31,83,3
0,76,110,0
0,35,55,0
0,38,56,0
0,38,26,18
0,44,60,0
0,74,111,25
0,38,45,0
0,31,96,59
0,35,70,0
0,38,37,0
0,38,38,90
0,72,111,5
0,39,71,0
0,44,86,0
0,38,44,90
0,71,110,5
0,38,29,0
0,38,20,30
0,43,53,4
0,69,111,0
0,38,65,0
0,38,49,30
0,50,51,15
0,55,48,0
0,30,90,10
0,42,57,0
0,35,74,0
0,38,56,0
0,38,69,0
0,44,63,0
0,71,21,0
0,59,87,10
0,69,110,27
0,38,42,0
0,60,85,36
0,69,110,2
0,38,60,0
0,62,64,10
0,55,48,2
0,38,35,90
0,43,55,30
0,39,74,0
0,44,87,0
0,67,111,0
0,38,59,0
0,62,66,9
0,38,46,9
0,59,87,7
0,55,48,4
0,30,83,38
0,35,55,0
0,38,54,0
0,45,56,18
0,62,111,0
0,38,27,0
0,44,66,0
0,30,61,5
0,38,71,0
0,30,96,5
0,62,69,0
0,35,71,0
0,38,30,0
0,55,62,0
0,38,50,0
0,47,57,5
0,39,76,0
0,44,90,0
0,67,110,60
0,38,65,0
0,38,48,30
0,62,70,2
0,31,58,25
0,48,40,0
0,67,110,0
0,38,27,0
0,48,69,10
0,38,37,10
0,55,79,6
0,48,53,11
0,36,95,0
0,67,111,0
0,35,78,0
0,38,80,0
0,44,65,0
0,67,32,0
0,72,46,0
0,62,88,5
0,55,71,1
0,60,82,25
0,38,25,64
0,67,111,57
0,38,56,0
0,67,110,22
0,38,32,0
0,39,75,90
0,44,88,0
0,67,110,69
0,38,37,0
0,38,53,19
0,36,99,60
0,67,111,0
0,35,58,0
0,38,64,0
0,38,40,28
0,44,61,0
0,36,52,3
0,64,110,0
0,38,23,0
0,36,98,44
0,35,83,0
0,38,57,0
0,38,34,90
0,39,75,0
0,44,87,0
0,38,44,90
0,67,111,30
0,38,29,0
0,67,36,0
0,72,35,0
0,38,20,0
0,67,75,17
0,36,59,2
0,67,111,0
0,38,65,0
0,72,52,0
0,60,52,10
0,48,59,5
0,55,58,13
0,38,49,9
0,67,90,13
0,36,96,0
0,67,110,0
0,35,75,0
0,38,56,0
0,38,69,0
0,44,62,0
0,72,81,0
0,55,71,1
0,48,77,6
0,60,83,3
0,67,84,13
0,38,42,90
0,64,111,0
0,38,60,0
0,38,35,90
0,39,74,90
0,44,87,0
0,38,59,0
0,38,49,18
0,67,110,0
0,38,46,0
0,69,46,0
0,74,41,0
0,50,44,3
0,69,67,2
0,38,81,2
0,69,110,0
0,35,58,0
0,38,56,0
0,74,70,0
0,62,51,10
0,50,73,1
0,69,55,2
0,57,68,9
0,69,77,10
0,50,74,0
0,38,94,2
0,69,111,0
0,35,78,0
0,38,81,0
0,44,64,0
0,74,80,0
0,69,29,0
0,74,33,0
0,81,20,0
0,62,80,10
0,57,71,1
0,69,85,5
0,38,25,90
0,38,56,90
0,38,32,90
0,39,74,90
0,44,88,0
0,38,37,0
0,38,52,90
0,26,99,90
0,35,71,0
0,38,65,0
0,38,41,0
0,44,61,0
0,26,48,90
0,38,22,0
0,26,98,62
0,35,82,0
0,38,57,0
0,38,34,90
0,39,75,90
0,44,87,0
0,38,44,23
0,38,29,90
0,38,21,30
0,38,64,30
0,38,48,0
0,35,79,0
0,38,81,0
0,44,64,0
0,81,18,0
0,86,18,0
0,90,20,0
0,38,55,90
0,38,28,90
0,38,38,90
0,39,74,90
0,44,88,0
0,38,37,90
0,38,30,90
0,35,65,90
0,38,65,0
0,38,49,0
0,44,61,0
0,35,48,90
0,38,18,0
0,35,77,90
0,38,53,0
0,38,46,90
0,39,75,20
0,44,87,0
0,71,111,2
0,69,110,8
0,38,44,0
0,38,29,90
0,38,21,30
0,38,64,30
0,48,72,7
0,64,74,0
0,55,78,17
0,38,48,13
0,55,69,0
0,67,95,5
0,62,91,18
0,36,67,0
0,35,82,0
0,43,45,0
0,44,64,0
0,72,49,0
0,76,50,0
0,79,52,0
0,67,110,1
0,72,91,5
0,45,39,4
0,60,66,2
0,36,85,19
0,67,111,0
0,43,24,0
0,45,32,10
0,67,111,30
0,36,94,13
0,35,78,0
0,43,49,0
0,44,88,0
0,45,41,10
0,67,110,30
0,36,88,30
0,67,110,0
0,43,43,0
0,45,41,10
0,66,111,10
0,66,78,7
0,50,75,2
0,69,78,27
0,57,82,11
0,57,64,8
0,38,85,17
0,35,83,0
0,43,54,0
0,44,61,0
0,74,89,0
0,74,51,0
0,78,49,0
0,81,50,0
0,62,88,9
0,45,56,0
0,62,65,0
0,38,87,44
0,43,51,0
0,45,51,10
0,64,110,60
0,38,98,30
0,64,111,0
0,35,79,0
0,43,58,0
0,44,86,0
0,45,56,10
0,66,111,10
0,38,102,45
0,43,58,0
0,45,56,10
0,31,87,0
0,67,110,0
0,35,78,0
0,38,81,0
0,49,69,0
0,55,61,0
0,74,40,0
0,79,41,0
0,83,40,0
0,43,57,0
0,38,25,5
0,31,72,0
0,55,111,0
0,38,56,0
0,55,52,0
0,43,46,0
0,38,32,0
0,62,56,38
0,31,93,0
0,57,110,0
0,39,75,0
0,44,89,0
0,55,66,0
0,43,59,0
0,62,63,1
0,55,69,2
0,38,37,90
0,31,71,27
0,59,110,0
0,38,52,0
0,55,41,0
0,43,52,0
0,67,65,0
0,35,58,54
0,38,65,0
0,55,62,0
0,62,58,1
0,55,66,1
0,31,86,2
0,38,41,0
0,44,61,0
0,43,55,0
0,38,22,43
0,55,31,0
0,62,52,0
0,62,61,7
0,55,66,1
0,31,67,7
0,55,111,0
0,35,83,0
0,38,57,0
0,55,55,0
0,43,59,0
0,38,34,90
0,62,63,57
0,55,73,5
0,31,86,0
0,57,111,0
0,39,74,0
0,44,86,0
0,55,73,0
0,43,58,0
0,62,64,1
0,38,44,5
0,31,82,0
0,59,110,0
0,38,29,0
0,55,54,0
0,43,63,0
0,38,21,30
0,38,64,15
0,55,55,0
0,62,53,0
0,62,52,3
0,55,57,7
0,38,48,0
0,30,85,0
0,54,58,0
0,35,75,0
0,38,57,0
0,38,69,0
0,44,63,0
0,54,52,0
0,78,43,0
0,81,41,0
0,42,52,0
0,38,42,82
0,30,83,90
0,54,54,0
0,55,110,0
0,38,60,0
0,54,44,0
0,42,54,0
0,62,59,8
0,38,35,0
0,62,69,46
0,62,61,2
0,30,86,0
0,54,66,0
0,57,111,0
0,39,75,0
0,44,86,0
0,54,53,0
0,42,57,0
0,38,58,7
0,30,78,0
0,59,111,0
0,38,47,0
0,54,27,0
0,42,54,0
0,62,58,76
0,62,52,0
0,54,61,3
0,35,58,0
0,38,57,0
0,54,63,0
0,30,89,15
0,38,34,0
0,44,66,0
0,42,51,0
