track,note,velocity,time
0,42,79,2052
0,77,61,2
0,46,61,170
0,76,64,2
0,42,69,170
0,77,61,2
0,39,92,2
0,46,60,168
0,76,64,2
0,42,80,170
0,77,61,2
0,46,62,170
0,76,64,2
0,42,71,170
0,77,61,2
0,39,93,2
0,46,60,168
0,76,64,2
0,42,79,170
0,77,61,2
0,46,61,170
0,76,64,2
0,42,69,170
0,77,61,2
0,39,90,2
0,46,60,168
0,76,64,2
0,42,80,170
0,77,61,2
0,46,62,170
0,76,64,2
0,42,71,170
0,77,61,2
0,39,93,2
0,46,60,168
0,76,64,2
0,42,79,170
0,77,61,2
0,46,61,170
0,76,64,2
0,42,69,170
0,77,61,2
0,39,91,2
0,46,60,168
0,76,64,2
0,42,80,170
0,77,61,2
0,46,62,170
0,76,64,2
0,42,71,170
0,77,61,2
0,39,93,2
0,46,60,168
0,76,64,2
0,42,79,170
0,77,61,2
0,46,61,170
0,76,64,2
0,42,69,170
0,77,61,2
0,39,91,2
0,46,60,168
0,76,64,2
0,42,80,170
0,77,61,2
0,46,62,170
0,76,64,2
0,42,71,170
0,77,61,2
0,39,93,2
0,41,82,0
0,41,97,0
0,41,56,40
0,46,60,12
0,76,64,2
0,43,82,2
0,43,97,0
0,43,56,40
0,42,79,12
0,77,61,2
0,46,82,2
0,46,97,0
0,46,56,40
0,46,61,12
0,76,64,2
0,46,82,24
0,46,97,0
0,42,69,4
0,77,61,2
0,39,92,2
0,46,56,40
0,46,60,20
0,76,64,2
0,46,82,2
0,46,97,0
0,46,56,22
0,42,80,12
0,77,61,2
0,46,62,98
0,76,64,2
0,46,82,2
0,46,97,0
0,46,56,40
0,42,71,12
0,77,61,2
0,39,93,2
0,43,82,0
0,43,97,0
0,43,56,40
0,46,60,12
0,76,64,2
0,41,82,2
0,41,97,0
0,41,56,40
0,42,79,12
0,77,61,2
0,43,82,2
0,43,97,0
0,43,56,40
0,46,61,12
0,76,64,2
0,43,82,24
0,43,97,0
0,42,69,4
0,77,61,2
0,39,90,2
0,43,56,40
0,46,60,20
0,76,64,2
0,43,82,2
0,43,97,0
0,43,56,22
0,42,80,12
0,77,61,2
0,46,62,98
0,76,64,2
0,41,82,2
0,41,97,0
0,41,56,40
0,42,71,12
0,77,61,2
0,39,93,2
0,41,82,0
0,41,97,0
0,41,56,40
0,46,60,12
0,76,64,2
0,43,82,2
0,43,97,0
0,43,56,40
0,42,79,12
0,77,61,2
0,36,82,2
0,36,97,0
0,36,56,40
0,46,61,12
0,76,64,2
0,36,82,24
0,36,97,0
0,42,69,4
0,77,61,2
0,39,91,2
0,36,56,40
0,46,60,20
0,76,64,2
0,36,82,2
0,36,97,0
0,36,56,22
0,42,80,12
0,77,61,2
0,46,62,98
0,76,64,2
0,34,82,2
0,34,97,0
0,34,56,40
0,42,71,12
0,77,61,2
0,36,82,2
0,36,97,0
0,39,93,0
0,36,56,40
0,46,60,12
0,76,64,2
0,38,82,2
0,38,97,0
0,38,56,40
0,42,79,12
0,77,61,2
0,39,82,2
0,39,97,0
0,39,56,22
0,46,61,12
0,76,64,2
0,39,82,6
0,39,97,0
0,42,69,92
0,77,61,2
0,39,91,2
0,39,56,22
0,46,60,2
0,76,64,2
0,39,82,2
0,39,97,0
0,39,56,40
0,42,80,12
0,77,61,2
0,41,82,2
0,41,97,0
0,41,56,40
0,46,62,12
0,76,64,2
0,41,82,2
0,41,97,0
0,41,56,40
0,42,71,12
0,77,61,2
0,39,93,2
0,41,82,0
0,41,97,0
0,41,56,40
0,46,60,12
0,76,64,2
0,43,82,2
0,43,97,0
0,43,56,40
0,42,79,12
0,77,61,2
0,46,82,2
0,46,97,0
0,46,56,40
0,46,61,12
0,76,64,2
0,46,82,24
0,46,97,0
0,42,69,4
0,77,61,2
0,39,92,2
0,46,56,40
0,46,60,20
0,76,64,2
0,46,82,2
0,46,97,0
0,46,56,22
0,42,80,12
0,77,61,2
0,46,62,98
0,76,64,2
0,46,82,2
0,46,97,0
0,46,56,40
0,42,71,12
0,77,61,2
0,39,93,2
0,43,82,0
0,43,97,0
0,43,56,40
0,46,60,12
0,76,64,2
0,41,82,2
0,41,97,0
0,41,56,40
0,42,79,12
0,77,61,2
0,43,82,2
0,43,97,0
0,43,56,40
0,46,61,12
0,76,64,2
0,43,82,24
0,43,97,0
0,42,69,4
0,77,61,2
0,39,90,2
0,43,56,40
0,46,60,20
0,76,64,2
0,43,82,2
0,43,97,0
0,43,56,22
0,42,80,12
0,77,61,2
0,46,62,98
0,76,64,2
0,41,82,2
0,41,97,0
0,41,56,40
0,42,71,12
0,77,61,2
0,39,93,2
0,41,82,0
0,41,97,0
0,41,56,40
0,46,60,12
0,76,64,2
0,43,82,2
0,43,97,0
0,43,56,40
0,42,79,12
0,77,61,2
0,36,82,2
0,36,97,0
0,36,56,40
0,46,61,12
0,76,64,2
0,36,82,24
0,36,97,0
0,42,69,4
0,77,61,2
0,39,91,2
0,36,56,40
0,46,60,20
0,76,64,2
0,36,82,2
0,36,97,0
0,36,56,22
0,42,80,12
0,77,61,2
0,46,62,98
0,76,64,2
0,34,82,2
0,34,97,0
0,34,56,40
0,42,71,12
0,77,61,2
0,36,82,2
0,36,97,0
0,39,93,0
0,36,56,40
0,46,60,12
0,76,64,2
0,38,82,2
0,38,97,0
0,38,56,40
0,42,79,12
0,77,61,2
0,39,82,2
0,39,97,0
0,39,56,22
0,46,61,12
0,76,64,2
0,39,82,6
0,39,97,0
0,42,69,92
0,77,61,2
0,39,91,2
0,39,56,22
0,46,60,2
0,76,64,2
0,39,82,2
0,39,97,0
0,39,56,40
0,42,80,12
0,77,61,2
0,41,82,2
0,41,97,0
0,41,56,40
0,46,62,12
0,76,64,2
0,41,82,2
0,41,97,0
0,41,56,40
0,42,71,12
0,65,108,2
0,77,61,0
0,39,93,2
0,41,82,0
0,41,97,0
0,41,56,18
0,46,60,12
0,67,103,2
0,76,64,0
0,43,82,2
0,43,97,0
0,43,56,40
0,42,79,0
0,70,107,2
0,77,61,0
0,46,82,2
0,46,97,0
0,46,56,40
0,46,61,12
0,70,108,2
0,76,64,0
0,46,82,24
0,46,97,0
0,42,69,4
0,77,61,2
0,39,92,2
0,46,56,40
0,46,60,20
0,70,106,2
0,76,64,0
0,46,82,2
0,46,97,0
0,46,56,22
0,42,80,12
0,77,61,2
0,46,62,98
0,76,64,2
0,46,82,2
0,46,97,0
0,46,56,24
0,42,71,12
0,67,103,2
0,77,61,0
0,39,93,2
0,43,82,0
0,43,97,0
0,43,56,40
0,46,60,0
0,65,102,2
0,76,64,0
0,41,82,2
0,41,97,0
0,41,56,40
0,42,79,0
0,67,106,2
0,77,61,0
0,43,82,2
0,43,97,0
0,43,56,34
0,46,61,12
0,65,105,2
0,76,64,0
0,43,82,24
0,43,97,0
0,42,69,0
0,62,104,2
0,77,61,0
0,39,90,2
0,43,56,40
0,46,60,0
0,65,105,2
0,76,64,0
0,43,82,2
0,43,97,0
0,43,56,22
0,42,80,12
0,77,61,2
0,46,62,98
0,76,64,2
0,41,82,2
0,41,97,0
0,41,56,40
0,42,71,12
0,65,109,2
0,77,61,0
0,39,93,2
0,41,82,0
0,41,97,0
0,41,56,40
0,46,60,0
0,67,106,2
0,76,64,0
0,43,82,2
0,43,97,0
0,43,56,18
0,42,79,12
0,62,105,2
0,77,61,0
0,36,82,2
0,36,97,0
0,36,56,36
0,46,61,12
0,58,102,2
0,76,64,0
0,36,82,24
0,36,97,0
0,42,69,4
0,77,61,2
0,39,91,2
0,36,56,40
0,46,60,0
0,60,102,2
0,76,64,0
0,36,82,2
0,36,97,0
0,36,56,22
0,42,80,12
0,77,61,2
0,46,62,98
0,76,64,2
0,34,82,2
0,34,97,0
0,34,56,40
0,42,71,12
0,60,106,2
0,77,61,0
0,36,82,2
0,36,97,0
0,39,93,0
0,36,56,40
0,46,60,12
0,62,102,2
0,76,64,0
0,38,82,2
0,38,97,0
0,38,56,40
0,42,79,12
0,60,104,2
0,77,61,0
0,39,82,2
0,39,97,0
0,39,56,22
0,46,61,2
0,58,104,2
0,76,64,0
0,39,82,6
0,39,97,0
0,42,69,92
0,77,61,2
0,39,91,2
0,39,56,22
0,46,60,2
0,58,103,2
0,76,64,0
0,39,82,2
0,39,97,0
0,39,56,40
0,42,80,12
0,77,61,2
0,41,82,2
0,41,97,0
0,41,56,40
0,46,62,12
0,76,64,2
0,41,82,2
0,41,97,0
0,41,56,40
0,42,71,12
0,65,109,2
0,77,61,0
0,39,93,2
0,41,82,0
0,41,97,0
0,41,56,40
0,46,60,12
0,67,102,2
0,76,64,0
0,43,82,2
0,43,97,0
0,43,56,40
0,42,79,0
0,70,107,2
0,77,61,0
0,46,82,2
0,46,97,0
0,46,56,40
0,46,61,12
0,70,108,2
0,76,64,0
0,46,82,24
0,46,97,0
0,42,69,4
0,77,61,2
0,39,92,2
0,46,56,40
0,46,60,20
0,70,106,2
0,76,64,0
0,46,82,2
0,46,97,0
0,46,56,22
0,42,80,12
0,77,61,2
0,46,62,98
0,76,64,2
0,46,82,2
0,46,97,0
0,46,56,24
0,42,71,12
0,67,103,2
0,77,61,0
0,39,93,2
0,43,82,0
0,43,97,0
0,43,56,40
0,46,60,0
0,65,102,2
0,76,64,0
0,41,82,2
0,41,97,0
0,41,56,40
0,42,79,0
0,67,106,2
0,77,61,0
0,43,82,2
0,43,97,0
0,43,56,40
0,46,61,0
0,65,101,2
0,76,64,0
0,43,82,24
0,43,97,0
0,42,69,0
0,62,105,2
0,77,61,0
0,39,90,2
0,43,56,40
0,46,60,0
0,63,106,2
0,76,64,0
0,43,82,2
0,43,97,0
0,43,56,22
0,42,80,0
0,65,103,2
0,77,61,0
0,46,62,98
0,76,64,2
0,41,82,2
0,41,97,0
0,41,56,40
0,42,71,12
0,65,109,2
0,77,61,0
0,39,93,2
0,41,82,0
0,41,97,0
0,41,56,40
0,46,60,0
0,67,106,2
0,76,64,0
0,43,82,2
0,43,97,0
0,43,56,18
0,42,79,12
0,62,105,2
0,77,61,0
0,36,82,2
0,36,97,0
0,36,56,36
0,46,61,12
0,58,102,2
0,76,64,0
0,36,82,24
0,36,97,0
0,42,69,4
0,77,61,2
0,39,91,2
0,36,56,40
0,46,60,0
0,60,102,2
0,76,64,0
0,36,82,2
0,36,97,0
0,36,56,22
0,42,80,12
0,77,61,2
0,46,62,98
0,76,64,2
0,34,82,2
0,34,97,0
0,34,56,40
0,42,71,12
0,77,61,2
0,36,82,2
0,36,97,0
0,39,93,0
0,36,56,40
0,46,60,12
0,76,64,2
0,38,82,2
0,38,97,0
0,38,56,40
0,42,79,12
0,77,61,2
0,39,82,2
0,39,97,0
0,39,56,22
0,46,61,12
0,76,64,2
0,39,82,6
0,39,97,0
0,42,69,92
0,77,61,2
0,39,91,2
0,39,56,22
0,46,60,2
0,76,64,2
0,39,82,2
0,39,97,0
0,39,56,40
0,42,80,12
0,77,61,2
0,41,82,2
0,41,97,0
0,41,56,40
0,46,62,12
0,76,64,2
0,41,82,2
0,41,97,0
0,41,56,40
0,42,71,12
0,65,108,2
0,77,61,0
0,39,93,2
0,41,82,0
0,41,97,0
0,41,56,40
0,46,60,0
0,67,102,2
0,76,64,0
0,43,82,2
0,43,97,0
0,43,56,40
0,42,79,0
0,70,64,0
0,70,107,2
0,77,61,0
0,46,82,2
0,46,97,0
0,70,52,12
0,46,56,26
0,46,61,12
0,70,42,0
0,70,108,2
0,76,64,0
0,46,82,24
0,46,97,0
0,42,69,4
0,70,47,0
0,77,61,2
0,39,92,2
0,46,56,40
0,46,60,20
0,70,45,0
0,70,106,2
0,76,64,0
0,46,82,2
0,46,97,0
0,46,56,22
0,42,80,12
0,70,64,0
0,77,61,2
0,70,52,10
0,46,62,68
0,70,42,0
0,76,64,2
0,46,82,2
0,46,97,0
0,46,56,24
0,42,71,12
0,70,47,0
0,67,103,2
0,77,61,0
0,39,93,2
0,43,82,0
0,43,97,0
0,43,56,40
0,46,60,0
0,70,45,0
0,65,102,2
0,76,64,0
0,41,82,2
0,41,97,0
0,41,56,40
0,42,79,0
0,70,64,0
0,67,106,2
0,77,61,0
0,43,82,2
0,43,97,0
0,70,52,12
0,43,56,12
0,46,61,12
0,70,42,0
0,65,105,2
0,76,64,0
0,43,82,24
0,43,97,0
0,42,69,0
0,70,47,0
0,62,104,2
0,77,61,0
0,39,90,2
0,43,56,40
0,46,60,0
0,70,45,0
0,65,105,2
0,76,64,0
0,43,82,2
0,43,97,0
0,43,56,22
0,42,80,12
0,70,64,0
0,77,61,2
0,70,52,10
0,46,62,68
0,70,42,0
0,76,64,2
0,41,82,2
0,41,97,0
0,41,56,40
0,42,71,12
0,70,47,0
0,65,109,2
0,77,61,0
0,39,93,2
0,41,82,0
0,41,97,0
0,41,56,10
0,46,60,12
0,70,45,0
0,67,106,2
0,76,64,0
0,43,82,2
0,43,97,0
0,43,56,18
0,42,79,12
0,70,64,0
0,62,105,2
0,77,61,0
0,36,82,2
0,36,97,0
0,70,52,12
0,36,56,40
0,46,61,8
0,70,42,0
0,58,102,2
0,76,64,0
0,36,82,24
0,36,97,0
0,42,69,4
0,70,47,0
0,77,61,2
0,39,91,2
0,36,56,40
0,46,60,0
0,70,45,0
0,60,102,2
0,76,64,0
0,36,82,2
0,36,97,0
0,36,56,22
0,42,80,12
0,70,64,0
0,77,61,2
0,70,52,10
0,46,62,68
0,70,42,0
0,76,64,2
0,34,82,2
0,34,97,0
0,34,56,40
0,42,71,12
0,70,47,0
0,60,106,2
0,77,61,0
0,36,82,2
0,36,97,0
0,39,93,0
0,36,56,10
0,46,60,12
0,70,45,0
0,62,102,2
0,76,64,0
0,38,82,2
0,38,97,0
0,38,56,20
0,42,79,12
0,70,64,0
0,60,106,2
0,77,61,0
0,39,82,2
0,39,97,0
0,70,52,28
0,39,56,22
0,46,61,0
0,70,42,0
0,58,102,2
0,76,64,0
0,39,82,6
0,39,97,0
0,42,69,0
0,70,47,0
0,55,105,2
0,77,61,0
0,39,91,2
0,39,56,22
0,46,60,0
0,70,45,0
0,58,102,2
0,76,64,0
0,39,82,2
0,39,97,0
0,39,56,40
0,42,80,12
0,70,64,0
0,77,61,2
0,41,82,2
0,41,97,0
0,70,52,12
0,41,56,40
0,46,62,12
0,70,42,0
0,76,64,2
0,41,82,2
0,41,97,0
0,41,56,40
0,42,71,12
0,70,47,0
0,65,109,2
0,77,61,0
0,39,93,2
0,41,82,0
0,41,97,0
0,41,56,10
0,46,60,12
0,70,45,0
0,67,102,2
0,76,64,0
0,43,82,2
0,43,97,0
0,43,56,40
0,42,79,0
0,70,64,0
0,70,107,2
0,77,61,0
0,46,82,2
0,46,97,0
0,70,52,12
0,46,56,8
0,46,61,12
0,70,42,0
0,72,108,2
0,76,64,0
0,46,82,24
0,46,97,0
0,42,69,4
0,70,47,0
0,77,61,2
0,39,92,2
0,46,56,40
0,46,60,20
0,70,45,0
0,70,106,2
0,76,64,0
0,46,82,2
0,46,97,0
0,46,56,22
0,42,80,12
0,70,64,0
0,77,61,2
0,70,52,10
0,46,62,22
0,70,42,0
0,70,112,2
0,76,64,0
0,46,82,2
0,46,97,0
0,46,56,2
0,42,71,12
0,70,47,0
0,67,103,2
0,77,61,0
0,39,93,2
0,43,82,0
0,43,97,0
0,43,56,40
0,46,60,0
0,70,45,0
0,65,102,2
0,76,64,0
0,41,82,2
0,41,97,0
0,41,56,40
0,42,79,0
0,70,64,0
0,67,106,2
0,77,61,0
0,43,82,2
0,43,97,0
0,70,52,12
0,43,56,40
0,46,61,0
0,70,42,0
0,65,101,2
0,76,64,0
0,43,82,24
0,43,97,0
0,42,69,0
0,70,47,0
0,62,105,2
0,77,61,0
0,39,90,2
0,43,56,40
0,46,60,0
0,70,45,0
0,63,106,2
0,76,64,0
0,43,82,2
0,43,97,0
0,43,56,22
0,42,80,0
0,70,64,0
0,65,103,2
0,77,61,0
0,70,52,10
0,46,62,68
