track,note,velocity,time
1,77,85,10
1,79,67,13
1,82,70,14
1,82,80,79
1,82,77,132
1,79,72,43
1,77,84,192
1,79,62,37
1,77,71,192
1,74,66,143
1,77,73,0
1,77,71,129
1,79,66,192
1,72,86,6
1,70,73,9
1,72,83,54
1,72,85,101
1,74,67,192
1,72,79,167
1,70,75,6
1,70,75,188
1,77,80,406
1,79,73,192
1,82,79,181
1,82,82,84
1,82,74,151
1,79,72,77
1,77,66,192
1,79,65,39
1,77,73,192
1,74,65,139
1,75,64,186
1,77,85,181
1,77,77,128
1,79,75,192
1,72,83,166
1,70,74,186
1,72,91,64
1,77,85,1538
1,79,67,13
1,82,70,14
1,82,80,79
1,82,77,132
1,79,72,43
1,77,84,192
1,79,62,37
1,77,71,192
1,74,66,143
1,77,73,0
1,77,71,129
1,79,66,192
1,72,86,6
1,70,73,9
1,72,83,54
1,72,85,101
1,74,67,192
1,72,79,167
1,70,75,6
1,70,75,188
1,77,79,406
1,79,76,192
1,82,71,19
1,84,84,192
1,82,79,24
1,79,75,55
1,77,71,192
1,79,68,41
1,77,65,192
1,74,63,115
1,75,66,185
1,77,80,152
1,77,74,111
1,79,80,192
1,72,75,15
1,70,76,192
1,72,80,339
1,75,80,109
1,74,66,384
1,72,83,161
1,70,61,160
1,75,71,178
1,74,62,184
1,70,71,11
1,72,85,192
1,70,79,178
1,70,81,3961
1,75,67,192
1,74,70,175
1,70,80,1
1,72,84,192
1,70,84,175
1,77,85,16646
1,79,67,13
1,82,70,14
1,82,80,79
1,82,77,132
1,79,72,43
1,77,84,192
1,79,62,37
1,77,71,192
1,74,66,143
1,77,73,0
1,77,71,129
1,79,66,192
1,72,86,6
1,70,73,9
1,72,83,54
1,72,85,101
1,74,67,192
1,72,79,167
1,70,75,6
1,70,75,188
1,77,80,406
1,79,73,192
1,82,79,181
1,82,82,84
1,82,74,151
1,79,72,77
1,77,66,192
1,79,65,39
1,77,73,192
1,74,65,139
1,75,64,186
1,77,85,181
1,77,77,128
1,79,75,192
1,72,83,166
1,70,74,186
1,72,91,64
1,77,85,1538
1,79,67,13
1,82,70,14
1,82,80,79
1,82,77,132
1,79,72,43
1,77,84,192
1,79,62,37
1,77,71,192
1,74,66,143
1,77,73,0
1,77,71,129
1,79,66,192
1,72,86,6
1,70,73,9
1,72,83,54
1,72,85,101
1,74,67,192
1,72,79,167
1,70,75,6
1,70,75,188
1,77,79,406
1,79,76,192
1,82,71,19
1,84,84,192
1,82,79,24
1,79,75,55
1,77,71,192
1,79,68,41
1,77,65,192
1,74,63,115
1,75,66,185
1,77,80,152
1,77,74,111
1,79,80,192
1,72,75,15
1,70,76,192
1,72,80,339
1,75,80,109
1,74,66,384
1,72,83,161
1,70,61,160
1,75,71,178
1,74,62,184
1,70,71,11
1,72,85,192
1,70,79,178
1,70,81,3961
1,75,67,192
1,74,70,175
1,70,80,1
1,72,84,192
1,70,84,175
1,65,91,1478
1,67,90,192
1,70,77,156
1,65,79,265
1,67,93,192
1,70,75,187
1,65,93,270
1,67,78,12
1,70,81,192
1,70,76,281
1,75,80,192
1,74,67,172
1,77,83,127
1,70,89,0
1,70,95,99
1,82,71,1985
1,79,83,192
1,77,70,362
1,79,84,190
1,70,81,819
1,75,67,192
1,74,70,175
1,70,80,1
1,72,84,192
1,70,84,175
1,85,74,383
1,84,77,192
1,85,76,197
1,84,75,192
1,82,63,185
1,79,58,15
1,77,80,192
1,82,71,819
1,79,83,192
1,77,70,362
1,79,84,190
1,77,86,12531
1,79,68,192
1,82,46,140
1,84,71,144
1,85,71,173
1,86,75,154
1,84,70,187
1,86,73,165
1,84,75,77
1,82,84,77
1,85,73,5642
1,82,78,192
1,79,65,24
1,77,79,192
1,82,80,1225
1,82,86,131
1,84,79,192
1,86,68,186
1,87,85,181
1,86,72,360
1,84,78,182
1,82,75,177
1,77,85,1520
1,79,67,13
1,82,70,14
1,82,80,79
1,82,77,132
1,79,72,43
1,77,84,192
1,79,62,37
1,77,71,192
1,74,66,143
1,77,73,0
1,77,71,129
1,79,66,192
1,72,86,6
1,70,73,9
1,72,83,54
1,72,85,101
1,74,67,192
1,72,79,167
1,70,75,6
1,70,75,188
1,77,79,406
1,79,76,192
1,82,71,19
1,84,84,192
1,82,79,24
1,79,75,55
1,77,71,192
1,79,68,41
1,77,65,192
1,74,63,115
1,75,66,185
1,77,80,152
1,77,74,111
1,79,80,192
1,72,75,15
1,70,76,192
1,72,80,339
1,75,80,109
1,74,66,384
1,72,83,161
1,70,61,160
1,75,71,178
1,74,62,184
1,70,71,11
1,72,85,192
1,70,79,178
1,82,71,1657
1,79,83,192
1,77,70,362
1,79,84,190
1,70,81,819
1,75,67,192
1,74,70,175
1,70,80,1
1,72,84,192
1,70,84,175
1,82,71,1478
1,79,83,192
1,77,70,362
1,79,84,190
1,70,81,819
1,75,67,192
1,74,70,175
1,77,80,1
1,70,84,192
1,70,84,175
1,77,90,240
1,77,103,106
1,70,75,20
1,70,84,102
1,77,87,781
1,77,93,95
1,70,72,20
1,70,87,97
1,84,94,1172
1,82,76,192
1,79,79,152
1,70,81,566
1,75,67,192
1,74,70,175
1,77,80,1
1,70,84,192
1,70,84,175
1,77,90,240
1,77,103,106
1,70,75,20
1,70,84,102
1,77,87,781
1,77,93,95
1,70,72,20
1,70,87,97
1,82,85,404
1,82,88,304
1,82,90,292
1,82,84,295
1,82,90,278
1,82,88,276
1,85,88,264
1,82,88,283
1,70,81,5280
1,75,67,192
1,74,70,175
1,70,80,1
1,72,84,192
1,70,84,175
1,75,87,3014
1,74,71,384
1,72,84,164
1,70,75,162
1,75,69,170
1,74,67,171
1,70,84,138
1,72,85,186
1,70,87,164
1,82,71,2519
1,79,83,192
1,77,70,362
1,79,84,190
1,70,81,819
1,75,67,192
1,74,70,175
1,70,80,1
1,72,84,192
1,70,84,175
1,82,71,1478
1,79,83,192
1,77,70,362
1,79,84,190
1,70,81,819
1,75,67,192
1,74,70,175
1,70,80,1
1,72,84,192
1,70,84,175
2,74,77,10
2,70,82,0
2,65,79,0
2,74,78,199
2,70,83,0
2,65,84,0
2,74,78,187
2,70,77,0
2,65,86,0
2,74,83,253
2,70,78,0
2,65,86,0
2,74,86,109
2,70,85,0
2,65,78,0
2,75,82,111
2,70,86,0
2,65,80,0
2,74,77,113
2,70,78,0
2,65,82,0
2,74,81,191
2,70,79,0
2,65,78,0
2,74,79,208
2,70,78,0
2,65,82,0
2,74,84,170
2,70,79,0
2,65,81,0
2,74,86,119
2,70,82,0
2,65,78,0
2,75,83,103
2,70,81,0
2,65,77,0
2,72,81,102
2,70,79,0
2,65,78,0
2,72,85,203
2,70,81,0
2,65,85,0
2,72,86,187
2,70,78,0
2,65,86,0
2,72,80,165
2,70,77,0
2,65,86,0
2,72,83,103
2,70,81,0
2,65,84,0
2,74,79,93
2,70,77,0
2,65,85,0
2,70,80,129
2,65,83,0
2,62,77,0
2,70,86,198
2,65,80,0
2,62,78,0
2,70,80,181
2,65,81,0
2,62,85,0
2,70,84,246
2,65,82,0
2,62,83,0
2,70,80,92
2,65,83,0
2,62,84,0
2,75,77,90
2,70,79,0
2,67,80,0
2,74,77,132
2,70,82,0
2,65,79,0
2,74,78,199
2,70,83,0
2,65,84,0
2,74,78,187
2,70,77,0
2,65,86,0
2,74,83,253
2,70,78,0
2,65,86,0
2,74,86,109
2,70,85,0
2,65,78,0
2,75,82,111
2,70,86,0
2,65,80,0
2,74,77,113
2,70,78,0
2,65,82,0
2,74,81,191
2,70,79,0
2,65,78,0
2,74,79,208
2,70,78,0
2,65,82,0
2,74,84,170
2,70,79,0
2,65,81,0
2,74,86,119
2,70,82,0
2,65,78,0
2,75,83,103
2,70,81,0
2,65,77,0
2,72,81,102
2,70,79,0
2,65,78,0
2,72,85,203
2,70,81,0
2,65,85,0
2,72,86,187
2,70,78,0
2,65,86,0
2,72,80,165
2,70,77,0
2,65,86,0
2,72,83,103
2,70,81,0
2,65,84,0
2,74,79,93
2,70,77,0
2,65,85,0
2,70,80,129
2,65,83,0
2,62,77,0
2,70,86,198
2,65,80,0
2,62,78,0
2,70,80,181
2,65,81,0
2,62,85,0
2,70,84,246
2,65,82,0
2,62,83,0
2,70,80,92
2,65,83,0
2,62,84,0
2,75,77,90
2,70,79,0
2,67,80,0
2,74,77,132
2,70,82,0
2,65,79,0
2,74,78,199
2,70,83,0
2,65,84,0
2,74,78,187
2,70,77,0
2,65,86,0
2,74,83,253
2,70,78,0
2,65,86,0
2,74,86,109
2,70,85,0
2,65,78,0
2,75,82,111
2,70,86,0
2,65,80,0
2,74,77,113
2,70,78,0
2,65,82,0
2,74,81,191
2,70,79,0
2,65,78,0
2,74,79,208
2,70,78,0
2,65,82,0
2,74,84,170
2,70,79,0
2,65,81,0
2,74,86,119
2,70,82,0
2,65,78,0
2,75,83,103
2,70,81,0
2,65,77,0
2,72,81,102
2,70,79,0
2,65,78,0
2,72,85,203
2,70,81,0
2,65,85,0
2,72,86,187
2,70,78,0
2,65,86,0
2,72,80,165
2,70,77,0
2,65,86,0
2,72,83,103
2,70,81,0
2,65,84,0
2,74,79,93
2,70,77,0
2,65,85,0
2,70,80,129
2,65,83,0
2,62,77,0
2,70,86,198
2,65,80,0
2,62,78,0
2,70,80,181
2,65,81,0
2,62,85,0
2,70,84,246
2,65,82,0
2,62,83,0
2,70,80,92
2,65,83,0
2,62,84,0
2,75,77,90
2,70,79,0
2,67,80,0
2,74,77,132
2,70,82,0
2,65,79,0
2,74,78,199
2,70,83,0
2,65,84,0
2,74,78,187
2,70,77,0
2,65,86,0
2,74,83,253
2,70,78,0
2,65,86,0
2,74,86,109
2,70,85,0
2,65,78,0
2,75,82,111
2,70,86,0
2,65,80,0
2,74,77,113
2,70,78,0
2,65,82,0
2,74,81,191
2,70,79,0
2,65,78,0
2,74,79,208
2,70,78,0
2,65,82,0
2,74,84,170
2,70,79,0
2,65,81,0
2,74,86,119
2,70,82,0
2,65,78,0
2,75,83,103
2,70,81,0
2,65,77,0
2,72,81,102
2,70,79,0
2,65,78,0
2,72,85,203
2,70,81,0
2,65,85,0
2,72,86,187
2,70,78,0
2,65,86,0
2,72,80,165
2,70,77,0
2,65,86,0
2,72,83,103
2,70,81,0
2,65,84,0
2,74,79,93
2,70,77,0
2,65,85,0
2,70,80,129
2,65,83,0
2,62,77,0
2,70,86,198
2,65,80,0
2,62,78,0
2,70,80,181
2,65,81,0
2,62,85,0
2,70,84,246
2,65,82,0
2,62,83,0
2,70,80,92
2,65,83,0
2,62,84,0
2,75,77,90
2,70,79,0
2,67,80,0
2,74,77,132
2,70,82,0
2,65,79,0
2,74,78,199
2,70,83,0
2,65,84,0
2,74,78,187
2,70,77,0
2,65,86,0
2,74,83,253
2,70,78,0
2,65,86,0
2,74,86,109
2,70,85,0
2,65,78,0
2,75,82,111
2,70,86,0
2,65,80,0
2,74,77,113
2,70,78,0
2,65,82,0
2,74,81,191
2,70,79,0
2,65,78,0
2,74,79,208
2,70,78,0
2,65,82,0
2,74,84,170
2,70,79,0
2,65,81,0
2,74,86,119
2,70,82,0
2,65,78,0
2,75,83,103
2,70,81,0
2,65,77,0
2,72,81,102
2,70,79,0
2,65,78,0
2,72,85,203
2,70,81,0
2,65,85,0
2,72,86,187
2,70,78,0
2,65,86,0
2,72,80,165
2,70,77,0
2,65,86,0
2,72,83,103
2,70,81,0
2,65,84,0
2,74,79,93
2,70,77,0
2,65,85,0
2,70,80,129
2,65,83,0
2,62,77,0
2,70,86,198
2,65,80,0
2,62,78,0
2,70,80,181
2,65,81,0
2,62,85,0
2,70,84,246
2,65,82,0
2,62,83,0
2,70,80,92
2,65,83,0
2,62,84,0
2,75,77,90
2,70,79,0
2,67,80,0
2,74,77,132
2,70,82,0
2,65,79,0
2,74,78,199
2,70,83,0
2,65,84,0
2,74,78,187
2,70,77,0
2,65,86,0
2,74,83,253
2,70,78,0
2,65,86,0
2,74,86,109
2,70,85,0
2,65,78,0
2,75,82,111
2,70,86,0
2,65,80,0
2,74,77,113
2,70,78,0
2,65,82,0
2,74,81,191
2,70,79,0
2,65,78,0
2,74,79,208
2,70,78,0
2,65,82,0
2,74,84,170
2,70,79,0
2,65,81,0
2,74,86,119
2,70,82,0
2,65,78,0
2,75,83,103
2,70,81,0
2,65,77,0
2,72,81,102
2,70,79,0
2,65,78,0
2,72,85,203
2,70,81,0
2,65,85,0
2,72,86,187
2,70,78,0
2,65,86,0
2,72,80,165
2,70,77,0
2,65,86,0
2,72,83,103
2,70,81,0
2,65,84,0
2,74,79,93
2,70,77,0
2,65,85,0
2,70,80,129
2,65,83,0
2,62,77,0
2,70,86,198
2,65,80,0
2,62,78,0
2,70,80,181
2,65,81,0
2,62,85,0
2,70,84,246
2,65,82,0
2,62,83,0
2,70,80,92
2,65,83,0
2,62,84,0
2,75,77,90
2,70,79,0
2,67,80,0
2,74,77,132
2,70,82,0
2,65,79,0
2,74,78,199
2,70,83,0
2,65,84,0
2,74,78,187
2,70,77,0
2,65,86,0
2,74,83,253
2,70,78,0
2,65,86,0
2,74,86,109
2,70,85,0
2,65,78,0
2,75,82,111
2,70,86,0
2,65,80,0
2,74,77,113
2,70,78,0
2,65,82,0
2,74,81,191
2,70,79,0
2,65,78,0
2,74,79,208
2,70,78,0
2,65,82,0
2,74,84,170
2,70,79,0
2,65,81,0
2,74,86,119
2,70,82,0
2,65,78,0
2,75,83,103
2,70,81,0
2,65,77,0
2,72,81,102
2,70,79,0
2,65,78,0
2,72,85,203
2,70,81,0
2,65,85,0
2,72,86,187
2,70,78,0
2,65,86,0
2,72,80,165
2,70,77,0
2,65,86,0
2,72,83,103
2,70,81,0
2,65,84,0
2,74,79,93
2,70,77,0
2,65,85,0
2,70,80,129
2,65,83,0
2,62,77,0
2,70,86,198
2,65,80,0
2,62,78,0
2,70,80,181
2,65,81,0
2,62,85,0
2,70,84,246
2,65,82,0
2,62,83,0
2,70,80,92
2,65,83,0
2,62,84,0
2,75,77,90
2,70,79,0
2,67,80,0
2,74,77,132
2,70,82,0
2,65,79,0
2,74,78,199
2,70,83,0
2,65,84,0
2,74,78,187
2,70,77,0
2,65,86,0
2,74,83,253
2,70,78,0
2,65,86,0
2,74,86,109
2,70,85,0
2,65,78,0
2,75,82,111
2,70,86,0
2,65,80,0
2,74,77,113
2,70,78,0
2,65,82,0
2,74,81,191
2,70,79,0
2,65,78,0
2,74,79,208
2,70,78,0
2,65,82,0
2,74,84,170
2,70,79,0
2,65,81,0
2,74,86,119
2,70,82,0
2,65,78,0
2,75,83,103
2,70,81,0
2,65,77,0
2,72,81,102
2,70,79,0
2,65,78,0
2,72,85,203
2,70,81,0
2,65,85,0
2,72,86,187
2,70,78,0
2,65,86,0
2,72,80,165
2,70,77,0
2,65,86,0
2,72,83,103
2,70,81,0
2,65,84,0
2,74,79,93
2,70,77,0
2,65,85,0
2,70,80,129
2,65,83,0
2,62,77,0
2,70,86,198
2,65,80,0
2,62,78,0
2,70,80,181
2,65,81,0
2,62,85,0
2,70,84,246
2,65,82,0
2,62,83,0
2,70,80,92
2,65,83,0
2,62,84,0
2,75,77,90
2,70,79,0
2,67,80,0
2,74,77,132
2,70,82,0
2,65,79,0
2,74,78,199
2,70,83,0
2,65,84,0
2,74,78,187
2,70,77,0
2,65,86,0
2,74,83,253
2,70,78,0
2,65,86,0
2,74,86,109
2,70,85,0
2,65,78,0
2,75,82,111
2,70,86,0
2,65,80,0
2,74,77,113
2,70,78,0
2,65,82,0
2,74,81,191
2,70,79,0
2,65,78,0
2,74,79,208
2,70,78,0
2,65,82,0
2,74,84,170
2,70,79,0
2,65,81,0
2,74,86,119
2,70,82,0
2,65,78,0
2,75,83,103
2,70,81,0
2,65,77,0
2,72,81,102
2,70,79,0
2,65,78,0
2,72,85,203
2,70,81,0
2,65,85,0
2,72,86,187
2,70,78,0
2,65,86,0
2,72,80,165
2,70,77,0
2,65,86,0
2,72,83,103
