track,note,velocity,time
0,124,127,30
0,32,96,25
0,84,70,0
0,36,100,0
0,57,81,0
0,36,0,4
0,57,0,0
0,84,0,150
0,44,78,38
0,56,110,0
0,60,110,0
0,63,113,0
0,75,113,0
0,57,69,0
0,57,0,1
0,124,0,1
0,60,0,11
0,46,77,2
0,56,0,1
0,44,0,2
0,63,0,0
0,75,0,0
0,46,0,1
0,44,78,21
0,56,110,0
0,60,110,0
0,63,113,0
0,75,113,0
0,39,89,0
0,42,32,0
0,39,0,4
0,42,0,0
0,32,0,10
0,44,0,80
0,56,0,0
0,60,0,0
0,63,0,0
0,75,0,0
0,46,74,2
0,46,0,4
0,46,77,44
0,58,110,0
0,61,110,0
0,65,112,0
0,77,112,0
0,42,32,48
0,42,0,4
0,46,0,42
0,65,0,0
0,77,0,0
0,58,0,12
0,61,0,0
0,46,77,38
0,58,110,0
0,61,110,0
0,65,112,0
0,77,112,0
0,46,77,0
0,46,0,4
0,58,0,42
0,61,0,0
0,46,0,8
0,65,0,0
0,77,0,0
0,39,94,42
0,42,87,0
0,39,0,4
0,42,0,0
0,42,77,44
0,42,0,3
0,46,77,44
0,58,110,0
0,61,110,0
0,65,112,0
0,77,112,0
0,46,74,0
0,46,0,4
0,46,0,78
0,58,0,0
0,61,0,0
0,65,0,0
0,77,0,0
0,49,77,14
0,61,116,0
0,65,116,0
0,68,112,0
0,80,112,0
0,42,32,0
0,42,0,4
0,49,0,90
0,61,0,0
0,65,0,0
0,68,0,0
0,80,0,0
0,46,77,2
0,46,0,4
0,49,77,92
0,61,114,0
0,65,114,0
0,68,112,0
0,80,112,0
0,39,89,0
0,42,32,0
0,39,0,4
0,42,0,0
0,49,0,90
0,61,0,0
0,65,0,0
0,68,0,0
0,80,0,0
0,46,74,2
0,46,0,4
0,51,77,44
0,63,118,0
0,68,122,0
0,70,112,0
0,82,112,0
0,42,32,48
0,42,0,4
0,51,0,42
0,63,0,0
0,68,0,0
0,70,0,0
0,82,0,0
0,51,77,50
0,63,118,0
0,68,122,0
0,70,112,0
0,82,112,0
0,46,77,0
0,46,0,4
0,51,0,42
0,82,0,36
0,63,0,12
0,68,0,0
0,70,0,0
0,39,94,2
0,42,87,0
0,39,0,4
0,42,0,0
0,42,77,44
0,42,0,4
0,53,77,44
0,65,100,0
0,72,112,0
0,84,112,0
0,46,74,0
0,46,0,4
0,65,0,66
0,53,0,12
0,72,0,0
0,84,0,0
0,44,78,14
0,56,110,0
0,60,110,0
0,63,113,0
0,75,113,0
0,42,32,0
0,42,0,4
0,56,0,90
0,60,0,0
0,46,77,2
0,44,0,3
0,63,0,0
0,75,0,0
0,46,0,1
0,44,78,92
0,56,110,0
0,60,110,0
0,63,113,0
0,75,113,0
0,39,89,0
0,42,32,0
0,39,0,4
0,42,0,0
0,44,0,90
0,56,0,0
0,60,0,0
0,63,0,0
0,75,0,0
0,46,74,2
0,46,0,4
0,46,77,44
0,58,110,0
0,61,110,0
0,65,112,0
0,77,112,0
0,42,32,48
0,42,0,4
0,46,0,42
0,58,0,0
0,61,0,0
0,65,0,0
0,77,0,0
0,46,77,50
0,58,110,0
0,61,110,0
0,65,112,0
0,77,112,0
0,46,77,0
0,46,0,4
0,58,0,44
0,61,0,1
0,46,0,5
0,65,0,0
0,77,0,0
0,39,94,42
0,42,87,0
0,39,0,4
0,42,0,0
0,42,77,44
0,42,0,4
0,46,77,44
0,58,110,0
0,61,110,0
0,65,112,0
0,77,112,0
0,46,74,0
0,46,0,4
0,46,0,78
0,58,0,0
0,61,0,0
0,65,0,0
0,77,0,0
0,49,77,14
0,61,116,0
0,65,116,0
0,68,112,0
0,80,112,0
0,42,32,0
0,42,0,4
0,49,0,90
0,61,0,0
0,65,0,0
0,68,0,0
0,80,0,0
0,46,77,2
0,46,0,4
0,49,77,92
0,61,114,0
0,65,114,0
0,68,112,0
0,80,112,0
0,39,89,0
0,42,32,0
0,39,0,4
0,42,0,0
0,49,0,90
0,61,0,0
0,65,0,0
0,68,0,0
0,80,0,0
0,46,74,2
0,46,0,4
0,51,77,44
0,63,116,0
0,68,116,0
0,70,112,0
0,82,112,0
0,42,32,48
0,42,0,4
0,51,0,42
0,70,0,0
0,82,0,0
0,63,0,12
0,68,0,0
0,51,70,38
0,63,116,0
0,68,116,0
0,70,112,0
0,82,102,0
0,46,77,0
0,46,0,4
0,51,0,42
0,63,0,0
0,68,0,0
0,70,0,0
0,82,0,0
0,51,68,50
0,63,116,0
0,68,116,0
0,70,110,0
0,82,100,0
0,39,94,0
0,42,87,0
0,39,0,4
0,42,0,0
0,51,0,28
0,70,0,14
0,82,0,0
0,63,0,2
0,68,0,0
0,42,77,0
0,42,0,4
0,53,75,44
0,65,100,0
0,72,110,0
0,84,110,0
0,46,74,0
0,46,0,4
0,53,0,78
0,65,0,0
0,72,0,0
0,84,0,0
0,44,78,14
0,56,110,0
0,60,110,0
0,63,113,0
0,75,113,0
0,42,32,0
0,42,0,4
0,60,0,90
0,46,77,2
0,56,0,1
0,44,0,2
0,63,0,0
0,75,0,0
0,46,0,1
0,44,78,92
0,56,110,0
0,60,110,0
0,63,113,0
0,75,113,0
0,39,89,0
0,42,32,0
0,39,0,4
0,42,0,0
0,44,0,90
0,56,0,0
0,60,0,0
0,63,0,0
0,75,0,0
0,46,74,2
0,46,0,4
0,46,77,44
0,58,110,0
0,61,110,0
0,65,112,0
0,77,112,0
0,42,32,48
0,42,0,4
0,46,0,42
0,65,0,0
0,77,0,0
0,58,0,12
0,61,0,0
0,46,77,38
0,58,110,0
0,61,110,0
0,65,112,0
0,77,112,0
0,46,77,0
0,46,0,4
0,58,0,42
0,61,0,0
0,46,0,8
0,65,0,0
0,77,0,0
0,39,94,42
0,42,87,0
0,39,0,4
0,42,0,0
0,42,77,44
0,42,0,4
0,46,77,44
0,58,110,0
0,61,110,0
0,65,112,0
0,77,112,0
0,46,74,0
0,46,0,4
0,46,0,78
0,58,0,0
0,61,0,0
0,65,0,0
0,77,0,0
0,49,77,14
0,61,116,0
0,65,116,0
0,68,112,0
0,80,112,0
0,42,32,0
0,42,0,4
0,49,0,90
0,61,0,0
0,65,0,0
0,68,0,0
0,80,0,0
0,46,77,2
0,46,0,4
0,49,77,92
0,61,114,0
0,65,114,0
0,68,112,0
0,80,112,0
0,39,89,0
0,42,32,0
0,39,0,4
0,42,0,0
0,49,0,90
0,61,0,0
0,65,0,0
0,68,0,0
0,80,0,0
0,46,74,2
0,46,0,4
0,51,77,44
0,63,118,0
0,68,122,0
0,70,112,0
0,82,112,0
0,42,32,48
0,42,0,4
0,51,0,42
0,63,0,0
0,68,0,0
0,70,0,0
0,82,0,0
0,51,77,50
0,63,118,0
0,68,122,0
0,70,112,0
0,82,112,0
0,46,77,0
0,46,0,4
0,51,0,42
0,82,0,36
0,63,0,12
0,68,0,0
0,70,0,0
0,39,94,2
0,42,87,0
0,39,0,4
0,42,0,0
0,42,77,44
0,42,0,4
0,53,77,44
0,65,100,0
0,72,112,0
0,84,112,0
0,46,74,0
0,46,0,4
0,65,0,66
0,53,0,12
0,72,0,0
0,84,0,0
0,44,78,14
0,56,110,0
0,60,110,0
0,63,113,0
0,75,113,0
0,42,32,0
0,42,0,4
0,56,0,90
0,60,0,0
0,46,77,2
0,44,0,3
0,63,0,0
0,75,0,0
0,46,0,1
0,44,78,92
0,56,110,0
0,60,110,0
0,63,113,0
0,75,113,0
0,39,89,0
0,42,32,0
0,39,0,4
0,42,0,0
0,44,0,90
0,56,0,0
0,60,0,0
0,63,0,0
0,75,0,0
0,46,74,2
0,46,0,4
0,46,77,44
0,58,110,0
0,61,110,0
0,65,112,0
0,77,112,0
0,42,32,48
0,42,0,4
0,46,0,42
0,58,0,0
0,61,0,0
0,65,0,0
0,77,0,0
0,46,77,50
0,58,110,0
0,61,110,0
0,65,112,0
0,77,112,0
0,46,77,0
0,46,0,4
0,58,0,44
0,61,0,1
0,46,0,5
0,65,0,0
0,77,0,0
0,39,94,42
0,42,87,0
0,39,0,4
0,42,0,0
0,42,77,44
0,42,0,4
0,46,77,44
0,58,110,0
0,61,110,0
0,65,112,0
0,77,112,0
0,46,74,0
0,46,0,4
0,46,0,78
0,58,0,0
0,61,0,0
0,65,0,0
0,77,0,0
0,49,77,14
0,61,116,0
0,65,116,0
0,68,112,0
0,80,112,0
0,42,32,0
0,42,0,4
0,49,0,90
0,61,0,0
0,65,0,0
0,68,0,0
0,80,0,0
0,46,77,2
0,46,0,4
0,49,77,92
0,61,114,0
0,65,114,0
0,68,112,0
0,80,112,0
0,39,89,0
0,42,32,0
0,39,0,4
0,42,0,0
0,49,0,90
0,61,0,0
0,65,0,0
0,68,0,0
0,80,0,0
0,46,74,2
0,46,0,4
0,51,77,44
0,63,116,0
0,68,116,0
0,70,112,0
0,82,112,0
0,102,123,48
0,42,32,0
0,42,0,4
0,102,0,13
0,51,0,29
0,70,0,0
0,82,0,0
0,102,119,2
0,63,0,10
0,68,0,0
0,102,0,10
0,51,70,28
0,63,116,0
0,68,116,0
0,70,112,0
0,82,102,0
0,92,127,0
0,46,77,0
0,46,0,4
0,51,0,42
0,63,0,0
0,68,0,0
0,70,0,0
0,82,0,0
0,92,0,48
0,51,68,2
0,63,116,0
0,68,116,0
0,70,110,0
0,82,100,0
0,102,123,0
0,39,94,0
0,42,87,0
0,39,0,4
0,42,0,0
0,102,0,11
0,51,0,17
0,70,0,14
0,82,0,0
0,63,0,2
0,68,0,0
0,102,119,0
0,42,77,0
0,42,0,4
0,102,0,15
0,53,75,29
0,65,100,0
0,72,110,0
0,84,110,0
0,92,127,0
0,46,74,0
0,46,0,4
0,53,0,78
0,65,0,0
0,72,0,0
0,84,0,0
0,92,0,12
0,63,107,1
0,32,78,1
0,56,78,0
0,75,113,0
0,42,32,0
0,57,76,0
0,42,0,4
0,57,0,0
0,63,0,29
0,63,103,61
0,46,77,2
0,32,0,3
0,56,0,0
0,75,0,0
0,46,0,1
0,63,0,25
0,63,109,63
0,32,78,4
0,56,78,0
0,75,113,0
0,39,89,0
0,42,32,0
0,39,0,4
0,42,0,0
0,63,0,27
0,32,0,63
0,56,0,0
0,75,0,0
0,65,99,1
0,46,74,1
0,46,0,4
0,34,77,44
0,58,77,0
0,77,112,0
0,42,32,48
0,42,0,4
0,34,0,42
0,58,0,0
0,77,0,0
0,65,0,6
0,65,111,40
0,34,77,4
0,58,77,0
0,77,112,0
0,46,77,0
0,46,0,4
0,34,0,50
0,58,0,0
0,77,0,0
0,65,0,7
0,39,94,35
0,42,87,0
0,39,0,4
0,42,0,0
0,42,77,44
0,42,0,4
0,65,99,36
0,34,77,8
0,58,77,0
0,77,112,0
0,46,74,0
0,46,0,4
0,65,0,36
0,34,0,42
0,58,0,0
0,77,0,0
0,68,114,11
0,37,77,3
0,61,77,0
0,80,112,0
0,42,32,0
0,42,0,4
0,68,0,37
0,68,117,50
0,37,0,3
0,61,0,0
0,80,0,0
0,46,77,2
0,46,0,4
0,68,0,30
0,68,114,54
0,37,77,8
0,61,77,0
0,80,112,0
0,39,89,0
0,42,32,0
0,39,0,4
0,42,0,0
0,68,0,35
0,67,105,53
0,37,0,2
0,61,0,0
0,80,0,0
0,46,74,2
0,46,0,4
0,39,77,44
0,63,77,0
0,82,112,0
0,42,32,48
0,42,0,4
0,39,0,42
0,63,0,0
0,82,0,0
0,67,0,42
0,65,106,3
0,39,77,5
0,63,77,0
0,82,112,0
0,46,77,0
0,46,0,4
0,65,0,35
0,39,0,7
0,63,0,0
0,82,0,36
0,63,103,10
0,39,94,4
0,42,87,0
0,39,0,4
0,42,0,0
0,63,0,30
0,42,77,14
0,42,0,4
0,63,107,43
0,41,77,1
0,65,77,0
0,84,112,0
0,46,74,0
0,46,0,4
0,41,0,78
0,65,0,0
0,84,0,0
0,32,78,14
0,56,78,0
0,75,113,0
0,42,32,0
0,42,0,4
0,63,0,54
0,63,105,38
0,46,77,0
0,32,0,3
0,56,0,0
0,75,0,0
0,46,0,1
0,63,0,31
0,63,101,53
0,32,78,8
0,56,78,0
0,75,113,0
0,39,89,0
0,42,32,0
0,39,0,4
0,42,0,0
0,63,0,30
0,65,95,59
0,32,0,1
0,56,0,0
0,75,0,0
0,46,74,2
0,46,0,4
0,34,77,44
0,58,77,0
0,77,112,0
0,42,32,48
0,42,0,4
0,34,0,42
0,58,0,0
0,77,0,0
0,65,0,3
0,34,77,47
0,58,77,0
0,65,111,0
0,77,112,0
0,46,77,0
0,46,0,4
0,34,0,50
0,58,0,0
0,77,0,0
0,65,0,13
0,39,94,29
0,42,87,0
0,39,0,4
0,42,0,0
0,42,77,44
0,42,0,4
0,34,77,44
0,58,77,0
0,77,112,0
0,46,74,0
0,65,102,3
0,46,0,1
0,65,0,43
0,34,0,35
0,58,0,0
0,77,0,0
0,37,77,14
0,61,77,0
0,80,112,0
0,42,32,0
0,68,114,2
0,42,0,2
0,68,0,38
0,37,0,52
0,61,0,0
0,68,114,0
0,80,0,0
0,46,77,2
0,46,0,4
0,68,0,25
0,68,109,55
0,37,77,12
0,61,77,0
0,80,112,0
0,39,89,0
0,42,32,0
0,39,0,4
0,42,0,0
0,68,0,32
0,67,108,54
0,37,0,4
0,61,0,0
0,80,0,0
0,46,74,2
0,46,0,4
0,39,77,44
0,63,77,0
0,82,112,0
0,42,32,48
0,42,0,4
0,39,0,42
0,63,0,0
0,82,0,0
0,67,0,35
0,65,108,3
0,39,70,12
0,63,70,0
0,82,102,0
0,46,77,0
0,46,0,4
0,65,0,35
0,39,0,7
0,63,0,0
0,82,0,0
0,39,68,50
0,63,68,0
0,82,100,0
0,39,94,0
0,42,87,0
0,63,103,1
0,39,0,3
0,42,0,0
0,39,0,28
0,63,0,0
0,63,0,3
0,82,0,11
0,42,77,2
0,42,0,4
0,63,99,34
0,41,75,10
0,65,75,0
0,84,110,0
0,46,74,0
0,46,0,4
0,41,0,78
0,65,0,0
0,84,0,0
0,32,78,14
0,56,78,0
0,75,113,0
0,42,32,0
0,42,0,4
0,63,0,54
0,63,103,38
0,46,77,0
0,32,0,3
0,56,0,0
0,75,0,0
0,46,0,1
0,63,0,30
0,63,98,52
0,32,78,10
0,56,78,0
0,75,113,0
0,39,89,0
0,42,32,0
0,39,0,4
0,42,0,0
0,63,0,25
0,65,108,64
0,32,0,1
0,56,0,0
0,75,0,0
0,46,74,2
0,46,0,4
0,34,77,44
0,58,77,0
0,77,112,0
0,42,32,48
0,42,0,4
0,34,0,42
0,58,0,0
0,77,0,0
0,65,0,3
0,34,77,47
0,58,77,0
0,65,108,0
0,77,112,0
0,46,77,0
0,46,0,4
0,34,0,50
0,58,0,0
0,77,0,0
0,65,0,5
0,39,94,37
0,42,87,0
0,39,0,4
0,42,0,0
0,42,77,44
0,42,0,4
0,34,77,44
0,58,77,0
0,77,112,0
0,46,74,0
0,65,95,3
0,46,0,1
0,65,0,43
0,34,0,35
0,58,0,0
0,77,0,0
0,37,77,14
0,61,77,0
0,68,114,0
0,80,112,0
0,42,32,0
0,42,0,4
0,68,0,36
0,68,109,49
0,37,0,5
0,61,0,0
0,80,0,0
0,46,77,2
0,46,0,4
0,68,0,24
0,68,109,61
0,37,77,7
0,61,77,0
0,80,112,0
0,39,89,0
0,42,32,0
0,39,0,4
0,42,0,0
0,68,0,40
0,37,0,50
0,61,0,0
0,80,0,0
0,46,74,2
0,67,101,1
0,46,0,3
0,39,77,44
0,63,77,0
0,82,112,0
0,42,32,48
0,42,0,4
0,39,0,42
0,63,0,0
0,82,0,0
0,67,0,34
0,68,108,3
0,39,77,13
0,63,77,0
0,82,112,0
0,46,77,0
0,46,0,4
0,39,0,42
0,63,0,0
0,82,0,36
0,68,0,9
0,67,108,3
0,39,94,2
0,42,87,0
0,39,0,4
0,42,0,0
0,42,77,44
0,42,0,4
0,67,0,31
0,68,107,4
0,41,77,9
0,65,77,0
0,84,112,0
0,46,74,0
0,46,0,4
