track,note,velocity,time
0,31,59,209
0,43,51,0
0,43,60,0
0,55,50,0
0,59,50,0
0,62,52,0
0,67,85,0
0,67,83,1
0,71,51,9
0,74,72,2
0,55,55,133
0,59,55,0
0,62,51,0
0,31,56,2
0,43,57,0
0,43,53,3
0,74,72,5
0,71,69,1
0,66,83,4
0,66,90,3
0,33,59,1
0,45,60,0
0,62,53,0
0,50,50,2
0,60,50,0
0,50,56,2
0,72,70,4
0,74,67,1
0,67,85,3
0,67,80,0
0,62,53,94
0,50,53,1
0,33,57,1
0,45,58,0
0,50,43,1
0,60,43,0
0,69,80,1
0,69,83,2
0,74,69,1
0,72,67,2
0,55,54,131
0,59,54,0
0,64,56,0
0,43,53,1
0,64,87,2
0,35,57,2
0,47,58,0
0,64,95,1
0,71,67,7
0,76,65,5
0,55,57,129
0,59,57,0
0,64,57,0
0,35,57,1
0,47,58,0
0,43,48,1
0,71,63,6
0,76,67,0
0,55,54,14
0,59,54,0
0,62,90,0
0,62,54,0
0,35,59,5
0,47,60,0
0,43,51,1
0,62,83,2
0,71,70,4
0,74,69,1
0,35,58,139
0,47,59,0
0,55,52,1
0,62,53,0
0,43,55,1
0,74,67,12
0,67,53,1
0,55,54,1
0,60,54,0
0,64,59,0
0,36,55,1
0,48,56,0
0,60,80,1
0,43,53,1
0,60,87,2
0,76,63,5
0,72,67,1
0,36,56,133
0,48,57,0
0,64,61,0
0,55,55,1
0,60,55,0
0,43,55,2
0,72,67,3
0,76,69,2
0,59,83,6
0,38,57,3
0,50,58,0
0,62,53,2
0,59,87,1
0,43,53,1
0,55,48,0
0,59,48,0
0,71,65,0
0,74,70,3
0,60,85,2
0,60,71,1
0,55,54,2
0,59,54,0
0,62,56,0
0,43,55,1
0,62,90,0
0,38,48,1
0,50,49,0
0,62,80,0
0,71,70,4
0,74,70,4
0,40,59,1
0,52,60,0
0,55,58,0
0,57,81,0
0,57,58,0
0,61,58,0
0,45,56,1
0,57,87,0
0,69,44,9
0,73,76,1
0,55,58,133
0,57,58,0
0,61,58,0
0,45,56,2
0,40,58,1
0,52,59,0
0,73,70,7
0,69,46,2
0,54,56,135
0,57,56,0
0,62,56,0
0,38,56,2
0,50,57,0
0,50,60,1
0,74,69,6
0,69,58,1
0,54,54,132
0,57,54,0
0,62,55,0
0,38,56,1
0,50,56,0
0,50,57,0
0,69,63,7
0,74,69,1
0,59,88,51
0,43,55,11
0,55,58,0
0,59,58,0
0,62,54,0
0,59,88,1
0,31,57,2
0,43,58,0
0,71,69,8
0,74,70,1
0,31,56,131
0,43,57,0
0,55,56,1
0,59,56,0
0,62,49,0
0,43,55,1
0,71,70,0
0,74,65,3
0,61,91,3
0,61,87,6
0,31,57,1
0,43,58,0
0,61,58,0
0,52,50,3
0,57,50,0
0,45,55,1
0,69,56,1
0,73,72,0
0,62,94,1
0,62,94,2
0,52,53,87
0,57,53,0
0,61,57,0
0,45,56,4
0,31,60,1
0,43,61,0
0,73,72,6
0,69,48,1
0,64,97,0
0,64,95,3
0,62,54,91
0,50,52,1
0,57,52,0
0,30,62,1
0,42,63,0
0,45,53,1
0,69,58,2
0,69,83,0
0,74,69,2
0,69,88,1
0,45,53,133
0,50,53,1
0,57,53,0
0,62,54,0
0,30,62,2
0,42,63,0
0,69,58,5
0,74,70,2
0,54,56,4
0,59,56,0
0,62,54,0
0,62,87,2
0,62,74,3
0,35,59,1
0,47,60,0
0,50,58,0
0,71,72,3
0,74,67,1
0,54,55,128
0,59,55,0
0,62,54,0
0,50,58,3
0,35,58,2
0,47,59,0
0,71,72,6
0,74,63,4
0,67,87,3
0,55,54,4
0,59,54,0
0,62,53,0
0,28,56,1
0,40,57,0
0,67,88,0
0,43,51,1
0,74,69,3
0,71,69,3
0,55,54,129
0,59,54,0
0,62,54,0
0,43,55,3
0,28,59,2
0,40,60,0
0,74,70,5
0,71,72,2
0,67,88,15
0,33,60,3
0,45,61,0
0,55,58,0
0,57,58,0
0,61,58,0
0,45,55,4
0,69,63,1
0,73,76,1
0,66,90,2
0,66,87,1
0,55,57,93
0,57,57,0
0,61,57,0
0,33,60,1
0,45,61,0
0,45,56,1
0,73,74,4
0,69,49,2
0,64,81,2
0,64,87,1
0,50,60,2
0,54,53,0
0,57,53,0
0,62,54,0
0,62,80,1
0,38,55,1
0,50,56,0
0,62,83,1
0,69,51,4
0,74,70,2
0,50,58,131
0,62,54,0
0,54,53,1
0,57,53,0
0,38,54,2
0,50,55,0
0,69,63,4
0,74,72,1
0,54,55,130
0,60,48,0
0,50,56,1
0,38,55,1
0,50,41,0
0,50,56,0
0,54,53,1
0,60,53,0
0,62,52,0
0,72,70,3
0,74,69,0
0,50,60,133
0,38,55,2
0,50,56,0
0,54,54,0
0,60,54,0
0,62,52,0
0,72,70,9
0,74,67,1
0,67,88,81
0,31,57,6
0,43,58,0
0,55,46,0
0,59,46,0
0,62,56,0
0,43,49,1
0,55,55,1
0,67,85,0
0,59,55,1
0,67,55,0
0,71,74,8
0,74,70,1
0,55,55,37
0,59,55,0
0,62,55,0
0,31,57,3
0,43,55,0
0,43,58,0
0,74,69,3
0,71,72,1
0,66,87,1
0,50,50,4
0,60,50,0
0,62,52,0
0,66,48,0
0,66,88,0
0,33,60,2
0,45,56,0
0,45,61,0
0,72,74,6
0,74,60,2
0,67,78,3
0,67,50,1
0,67,85,2
0,50,53,86
0,60,53,0
0,62,53,0
0,45,56,2
0,33,62,3
0,45,63,0
0,69,85,0
0,69,83,0
0,69,39,1
0,72,67,3
0,74,69,0
0,55,50,2
0,59,50,0
0,64,54,0
0,64,55,1
0,35,59,1
0,47,60,0
0,43,53,1
0,64,88,0
0,64,87,0
0,76,67,3
0,71,72,1
0,55,57,129
0,59,57,0
0,64,61,0
0,35,60,4
0,43,55,0
0,47,61,0
0,71,69,5
0,76,67,0
0,62,83,3
0,35,59,3
0,47,60,0
0,55,54,0
0,59,54,0
0,62,48,0
0,62,55,0
0,43,53,1
0,62,78,0
0,71,67,6
0,74,72,0
0,43,51,132
0,62,54,0
0,55,53,1
0,59,53,0
0,35,62,3
0,47,63,0
0,71,65,8
0,74,69,1
0,60,81,3
0,55,54,2
0,60,54,0
0,67,56,0
0,40,59,2
0,52,60,0
0,43,53,1
0,60,87,1
0,72,67,3
0,79,72,2
0,55,54,131
0,60,54,0
0,67,55,0
0,43,55,1
0,40,59,1
0,52,60,0
0,72,65,6
0,79,70,1
0,59,85,3
0,67,55,5
0,55,54,1
0,59,54,0
0,38,61,1
0,50,58,0
0,50,62,0
0,59,88,2
0,71,77,7
0,79,74,1
0,60,83,3
0,60,85,3
0,50,56,1
0,55,56,0
0,59,56,0
0,62,53,0
0,62,88,2
0,38,57,1
0,50,58,0
0,62,78,3
0,74,70,6
0,71,67,2
0,57,88,7
0,64,59,0
0,37,61,1
0,49,62,0
0,55,46,0
0,57,90,0
0,57,46,0
0,45,56,1
0,69,74,8
0,76,63,5
0,55,51,133
0,57,51,0
0,64,59,0
0,37,60,1
0,49,61,0
0,45,53,1
0,69,70,9
0,76,69,1
0,38,59,132
0,50,60,0
0,45,56,1
0,54,54,1
0,57,54,0
0,62,56,0
0,69,65,8
0,74,70,0
0,38,55,134
0,50,56,0
0,45,56,2
0,54,49,3
0,57,49,0
0,62,56,0
0,69,55,9
0,74,74,0
0,59,90,45
0,31,58,2
0,43,53,0
0,43,59,0
0,55,55,3
0,59,55,0
0,62,57,0
0,59,88,0
0,71,74,8
0,74,72,0
0,43,53,133
0,31,59,1
0,43,60,0
0,55,56,0
0,59,56,0
0,62,54,0
0,71,76,5
0,74,70,2
0,61,93,6
0,31,57,2
0,43,58,0
0,52,58,1
0,57,58,0
0,61,58,0
0,43,49,1
0,61,83,0
0,73,79,8
0,69,55,1
0,62,90,3
0,62,88,3
0,52,58,90
0,57,58,0
0,61,58,0
0,31,60,1
0,43,53,0
0,43,61,0
0,73,77,2
0,69,65,1
0,64,99,3
0,64,88,3
0,30,61,95
0,42,62,0
0,50,56,0
0,50,54,0
0,57,54,0
0,62,54,0
0,69,48,0
0,69,94,0
0,69,83,3
0,74,72,4
0,69,63,3
0,50,55,132
0,62,54,1
0,50,53,1
0,57,53,0
0,30,62,1
0,42,63,0
0,69,67,7
0,74,72,1
0,62,53,1
0,30,61,2
0,42,62,0
0,50,58,0
0,50,58,0
0,57,58,0
0,62,80,0
0,62,89,0
0,62,55,0
0,69,56,3
0,74,69,3
0,30,62,133
0,42,63,0
0,50,62,0
0,57,62,0
0,62,63,0
0,50,58,2
0,69,65,4
0,74,72,0
0,72,90,6
0,43,55,3
0,52,56,0
0,60,63,0
0,72,92,0
0,72,57,1
0,55,87,1
0,67,87,0
0,40,62,1
0,52,63,0
0,55,53,0
0,62,53,0
0,67,54,0
0,79,77,4
0,72,67,1
0,43,67,3
0,55,56,0
0,62,56,0
0,67,57,0
0,40,62,2
0,52,63,0
0,55,83,0
0,67,83,0
0,72,69,5
0,79,77,1
0,72,96,37
0,50,56,2
0,50,72,0
0,54,73,0
0,38,61,1
0,50,62,0
0,62,56,0
0,66,56,0
0,57,75,1
0,57,52,0
0,66,75,0
0,72,50,0
0,72,83,1
0,78,74,0
0,74,72,3
0,71,95,2
0,71,48,1
0,71,85,0
0,60,57,83
0,62,57,0
0,66,57,0
0,38,59,2
0,50,60,0
0,50,58,1
0,60,78,2
0,62,78,0
0,78,76,5
0,74,74,3
0,69,46,2
0,69,83,0
0,69,93,1
0,43,68,25
0,43,59,0
0,55,60,0
0,59,77,0
0,55,84,1
0,62,84,0
0,71,51,2
0,43,51,1
0,67,55,0
0,71,88,0
0,59,54,0
0,62,54,0
0,71,98,0
0,79,74,2
0,74,74,1
0,59,58,121
0,62,58,0
0,67,58,0
0,55,87,4
0,67,87,0
0,43,56,1
0,43,56,0
0,55,57,0
0,74,74,3
0,79,70,2
0,59,58,8
0,62,58,0
0,66,58,0
0,43,58,4
0,43,58,0
0,55,59,0
0,54,87,1
0,66,87,0
0,78,77,4
0,74,70,2
0,59,58,8
0,62,58,0
0,65,58,0
0,53,87,1
0,65,87,0
0,43,48,4
0,43,55,0
0,55,56,0
0,74,74,0
0,77,74,1
0,52,85,2
0,64,85,0
0,55,58,1
0,60,60,0
0,64,55,0
0,64,60,0
0,43,55,4
0,64,90,0
0,64,88,2
0,36,55,1
0,48,56,0
0,76,74,2
0,72,65,3
0,60,62,25
0,64,62,0
0,55,59,1
0,36,58,3
0,48,59,0
0,43,53,4
0,76,70,2
0,72,58,0
0,66,94,8
0,36,58,3
0,48,59,0
0,66,51,1
0,66,90,0
0,54,55,1
0,57,55,0
0,62,61,0
0,43,51,1
0,74,72,3
0,69,62,2
0,67,83,3
0,67,50,1
0,67,87,2
0,54,56,72
0,57,56,0
0,62,60,0
0,36,58,2
0,48,59,0
0,43,55,3
0,69,65,2
0,74,72,1
0,69,90,3
0,69,48,1
0,69,78,3
0,50,54,91
0,55,54,0
0,62,60,1
0,35,60,3
0,47,61,0
0,43,53,1
0,62,48,1
0,62,90,0
0,62,80,1
0,67,70,1
0,74,74,1
0,50,57,129
0,55,57,0
0,62,60,0
0,35,59,9
0,43,55,0
0,47,60,0
0,67,70,4
0,74,74,1
0,64,55,8
0,55,58,1
0,59,58,0
0,67,83,0
0,67,87,1
0,67,46,1
0,28,58,1
0,40,59,0
0,43,51,4
0,76,69,3
0,71,62,3
0,55,60,126
0,59,60,0
0,64,59,0
0,28,58,7
0,40,59,0
0,43,55,1
0,71,65,7
0,76,69,0
0,52,55,3
0,55,90,0
0,55,55,0
0,60,55,0
0,33,60,3
0,45,61,0
0,45,51,1
0,55,88,2
0,72,79,4
0,67,72,3
0,52,56,119
0,55,56,0
0,60,56,0
0,33,60,7
0,45,55,0
0,45,61,0
0,67,70,9
0,72,81,1
0,60,90,5
0,54,54,4
0,60,54,0
0,38,57,1
0,50,56,0
0,50,58,0
0,60,88,2
0,72,70,7
0,66,63,3
0,59,88,3
0,59,85,3
0,54,57,84
0,60,57,0
0,50,55,8
0,38,55,1
0,50,56,0
0,66,70,5
0,72,79,3
0,57,87,3
0,57,92,3
0,55,55,90
0,59,55,0
0,31,58,2
0,38,20,0
0,43,59,0
0,43,60,2
0,38,0,2
0,55,88,1
0,55,94,3
0,71,72,5
0,40,17,1
0,67,69,1
0,40,0,3
0,38,20,7
0,38,0,4
0,40,16,12
0,40,0,1
0,38,21,6
0,38,0,4
0,40,19,12
0,40,0,4
0,38,22,12
0,38,0,4
0,40,19,12
0,40,0,4
0,38,23,12
0,38,0,4
0,40,20,12
0,40,0,4
0,38,24,12
0,38,0,4
0,40,21,12
0,40,0,4
0,31,61,12
0,38,24,0
0,43,62,0
0,55,58,0
0,59,58,0
0,38,0,4
0,43,60,0
0,40,16,8
0,71,70,3
0,40,0,1
0,67,74,0
0,38,22,5
0,38,0,4
0,40,21,6
0,40,0,4
0,38,24,6
0,38,0,4
0,40,23,12
0,40,0,4
0,38,23,12
0,38,0,4
0,40,24,12
0,40,0,4
0,38,24,12
0,38,0,4
0,40,24,12
0,40,0,4
0,38,24,12
0,38,0,4
0,40,20,12
0,40,0,4
0,55,65,10
0,59,65,0
0,31,66,1
0,43,67,0
0,38,28,1
0,43,69,2
0,38,0,2
0,71,63,4
0,67,63,1
0,40,23,5
0,40,0,4
0,38,25,3
0,38,0,2
0,40,20,12
0,40,0,4
0,38,30,7
0,38,0,4
0,40,23,12
0,40,0,4
0,38,33,12
0,38,0,4
0,40,25,12
0,40,0,4
0,38,35,12
0,38,0,4
0,40,27,12
0,40,0,4
0,38,37,12
0,38,0,4
0,40,29,12
0,40,0,4
0,31,68,11
0,43,69,0
0,38,41,1
0,55,73,0
0,59,73,0
0,43,74,2
0,38,0,2
0,71,69,7
0,67,76,2
0,40,31,1
0,40,0,4
0,38,41,5
0,38,0,3
0,40,33,12
0,40,0,4
0,38,42,8
0,38,0,4
0,40,36,12
0,40,0,4
0,38,43,12
0,38,0,4
0,40,41,12
0,40,0,4
0,38,50,12
0,38,0,4
0,40,49,12
0,40,0,4
0,38,63,12
0,38,0,1
0,67,102,11
0,40,57,1
0,40,0,4
0,36,96,10
0,38,75,0
0,43,92,0
0,43,115,0
0,50,95,0
0,55,75,0
0,55,75,0
0,59,100,0
0,59,75,0
0,62,75,0
0,62,75,0
0,67,85,0
0,71,75,0
0,74,75,0
0,79,107,0
0,38,0,0
0,67,114,0
0,79,90,0
0,67,104,2
0,74,65,5
0,79,68,1
0,67,0,3
0,62,76,80
0,67,76,0
0,71,76,0
0,74,76,0
0,43,113,4
0,55,82,1
0,59,82,0
0,62,82,0
0,43,87,1
0,67,89,0
0,83,66,0
0,86,66,1
0,57,75,2
0,62,75,0
0,72,75,0
0,74,75,0
0,45,113,2
0,78,103,1
0,45,92,1
0,54,85,1
0,66,103,0
0,66,85,0
0,78,88,1
0,57,64,1
0,60,64,0
0,86,69,0
0,84,63,0
0,66,100,1
0,79,101,0
0,67,114,1
0,67,98,0
0,79,87,1
0,62,76,84
0,72,76,0
0,74,76,0
0,33,108,2
0,81,98,1
0,45,94,1
0,54,85,1
0,66,85,0
0,86,68,0
0,57,82,1
0,60,82,0
0,84,64,0
0,69,95,1
0,81,85,0
0,69,110,2
0,76,98,3
0,64,95,1
0,76,85,1
0,52,73,3
0,59,73,0
0,67,73,0
0,76,73,0
0,35,118,5
0,64,103,1
0,83,67,1
0,88,66,0
0,55,85,2
0,59,85,0
0,64,78,1
0,67,78,0
0,43,88,9
0,64,69,79
0,67,69,0
0,71,69,0
0,38,113,3
0,55,85,2
0,59,85,0
0,64,85,2
0,67,85,0
0,83,66,3
0,88,68,0
0,43,92,3
0,74,96,1
0,62,93,2
0,74,84,0
0,55,68,15
0,62,68,0
0,71,68,0
0,79,68,0
0,43,111,1
0,62,103,3
0,83,66,1
0,86,66,0
0,43,90,3
0,59,82,1
0,55,85,1
0,62,85,0
0,67,85,0
0,62,80,87
