track,note,velocity,time
1,62,100,1056
1,57,100,0
1,65,100,0
1,38,100,0
1,50,100,0
1,46,100,104
1,57,100,0
1,53,100,0
1,62,100,0
1,55,100,44
1,64,100,0
1,57,100,0
1,45,100,0
1,60,100,0
1,43,100,20
1,53,100,0
1,62,100,0
1,55,100,0
1,58,100,0
1,62,100,34
1,65,100,0
1,57,100,0
1,50,100,0
1,53,100,61
1,57,100,0
1,46,100,0
1,62,100,0
1,45,100,78
1,55,100,0
1,64,100,0
1,57,100,0
1,60,100,0
1,62,100,142
1,43,100,0
1,53,100,0
1,55,100,0
1,58,100,0
1,57,100,431
1,62,100,0
1,65,100,321
1,62,100,0
1,62,100,117
1,65,100,0
1,60,100,12
1,64,100,0
1,60,100,29
1,64,100,0
1,55,100,25
1,57,100,78
1,52,100,0
1,62,100,82
1,65,100,0
1,57,100,7
1,62,100,425
1,65,100,0
1,62,100,107
1,65,100,0
1,64,100,3
1,60,100,0
1,67,100,3
1,64,100,0
1,62,100,66
1,65,100,0
1,57,100,18
1,62,100,0
1,62,100,289
1,65,100,0
1,62,100,115
1,65,100,0
1,60,100,24
1,64,100,0
1,64,100,33
1,60,100,0
1,60,100,6
1,57,100,0
1,52,100,85
1,57,100,0
1,62,100,70
1,65,100,0
1,57,100,13
1,62,100,317
1,65,100,0
1,62,100,123
1,65,100,0
1,60,100,12
1,64,100,0
1,67,100,19
1,64,100,0
1,62,100,33
1,57,100,0
1,65,100,0
1,38,100,0
1,50,100,0
1,46,100,104
1,57,100,0
1,53,100,0
1,62,100,0
1,55,100,44
1,64,100,0
1,57,100,0
1,45,100,0
1,60,100,0
1,43,100,20
1,53,100,0
1,62,100,0
1,55,100,0
1,58,100,0
1,62,100,34
1,65,100,0
1,57,100,0
1,50,100,0
1,53,100,61
1,57,100,0
1,46,100,0
1,62,100,0
1,45,100,78
1,55,100,0
1,64,100,0
1,57,100,0
1,60,100,0
1,62,100,142
1,43,100,0
1,53,100,0
1,55,100,0
1,58,100,0
1,57,100,431
1,62,100,0
1,65,100,321
1,62,100,0
1,62,100,117
1,65,100,0
1,60,100,12
1,64,100,0
1,60,100,29
1,64,100,0
1,55,100,25
1,57,100,78
1,52,100,0
1,62,100,82
1,65,100,0
1,57,100,7
1,62,100,425
1,65,100,0
1,62,100,107
1,65,100,0
1,64,100,3
1,60,100,0
1,67,100,3
1,64,100,0
1,62,100,66
1,65,100,0
1,57,100,18
1,62,100,0
1,62,100,289
1,65,100,0
1,62,100,115
1,65,100,0
1,60,100,24
1,64,100,0
1,64,100,33
1,60,100,0
1,60,100,6
1,57,100,0
1,52,100,85
1,57,100,0
1,62,100,70
1,65,100,0
1,57,100,13
1,62,100,317
1,65,100,0
1,62,100,123
1,65,100,0
1,60,100,12
1,64,100,0
1,67,100,19
1,64,100,0
1,62,100,33
1,57,100,0
1,65,100,0
1,38,100,0
1,50,100,0
1,46,100,104
1,57,100,0
1,53,100,0
1,62,100,0
1,55,100,44
1,64,100,0
1,57,100,0
1,45,100,0
1,60,100,0
1,43,100,20
1,53,100,0
1,62,100,0
1,55,100,0
1,58,100,0
1,62,100,34
1,65,100,0
1,57,100,0
1,50,100,0
1,53,100,61
1,57,100,0
1,46,100,0
1,62,100,0
1,45,100,78
1,55,100,0
1,64,100,0
1,57,100,0
1,60,100,0
1,62,100,142
1,43,100,0
1,53,100,0
1,55,100,0
1,58,100,0
1,57,100,431
1,62,100,0
1,65,100,321
1,62,100,0
1,62,100,117
1,65,100,0
1,60,100,12
1,64,100,0
1,60,100,29
1,64,100,0
1,55,100,25
1,57,100,78
1,52,100,0
1,62,100,82
1,65,100,0
1,57,100,7
1,62,100,425
1,65,100,0
1,62,100,107
1,65,100,0
1,64,100,3
1,60,100,0
1,67,100,3
1,64,100,0
1,62,100,66
1,65,100,0
1,57,100,18
1,62,100,0
1,62,100,289
1,65,100,0
1,62,100,115
1,65,100,0
1,60,100,24
1,64,100,0
1,64,100,33
1,60,100,0
1,60,100,6
1,57,100,0
1,52,100,85
1,57,100,0
1,62,100,70
1,65,100,0
1,57,100,13
1,62,100,317
1,65,100,0
1,62,100,123
1,65,100,0
1,60,100,12
1,64,100,0
1,67,100,19
1,64,100,0
1,41,95,3105
1,60,95,0
1,53,91,0
1,62,82,84
1,53,87,0
1,60,107,0
1,46,99,0
1,48,84,44
1,64,84,0
1,55,99,0
1,62,99,0
1,45,91,85
1,60,95,0
1,64,79,0
1,57,95,0
1,53,99,57
1,60,87,0
1,41,84,0
1,53,103,54
1,62,91,0
1,60,99,0
1,46,91,0
1,55,99,49
1,48,84,0
1,64,82,0
1,62,95,0
1,60,87,53
1,57,91,0
1,45,103,0
1,64,82,0
1,53,99,46
1,60,95,0
1,41,95,0
1,60,95,47
1,62,84,0
1,53,91,0
1,46,91,0
1,55,107,62
1,48,95,0
1,64,82,0
1,45,99,74
1,60,103,0
1,57,95,0
1,64,87,0
1,57,100,80
1,62,100,0
1,65,100,321
1,62,100,0
1,62,100,117
1,65,100,0
1,60,100,12
1,64,100,0
1,60,100,29
1,64,100,0
1,55,100,25
1,57,100,78
1,52,100,0
1,62,100,82
1,65,100,0
1,57,100,7
1,62,100,425
1,65,100,0
1,62,100,107
1,65,100,0
1,64,100,3
1,60,100,0
1,67,100,3
1,64,100,0
1,62,100,66
1,65,100,0
1,57,100,18
1,62,100,0
1,62,100,289
1,65,100,0
1,62,100,115
1,65,100,0
1,60,100,24
1,64,100,0
1,64,100,33
1,60,100,0
1,60,100,6
1,57,100,0
1,52,100,85
1,57,100,0
1,62,100,70
1,65,100,0
1,57,100,13
1,62,100,317
1,65,100,0
1,62,100,123
1,65,100,0
1,60,100,12
1,64,100,0
1,67,100,19
1,64,100,0
1,46,100,1569
1,57,100,0
1,53,100,0
1,62,100,0
1,55,100,44
1,64,100,0
1,57,100,0
1,45,100,0
1,60,100,0
1,43,100,20
1,53,100,0
1,62,100,0
1,55,100,0
1,58,100,0
1,62,100,34
1,57,100,0
1,65,100,0
1,38,100,0
1,50,100,0
1,46,100,104
1,57,100,0
1,53,100,0
1,62,100,0
1,55,100,44
1,64,100,0
1,57,100,0
1,45,100,0
1,60,100,0
1,43,100,20
1,53,100,0
1,62,100,0
1,55,100,0
1,58,100,0
1,62,100,34
1,65,100,0
1,57,100,0
1,50,100,0
1,53,100,61
1,57,100,0
1,46,100,0
1,62,100,0
1,45,100,78
1,55,100,0
1,64,100,0
1,57,100,0
1,60,100,0
1,62,100,142
1,43,100,0
1,53,100,0
1,55,100,0
1,58,100,0
1,57,100,431
1,62,100,0
1,65,100,321
1,62,100,0
1,62,100,117
1,65,100,0
1,60,100,12
1,64,100,0
1,60,100,29
1,64,100,0
1,55,100,25
1,57,100,78
1,52,100,0
1,62,100,82
1,65,100,0
1,57,100,7
1,62,100,425
1,65,100,0
1,62,100,107
1,65,100,0
1,64,100,3
1,60,100,0
1,67,100,3
1,64,100,0
1,62,100,66
1,65,100,0
1,57,100,18
1,62,100,0
1,62,100,289
1,65,100,0
1,62,100,115
1,65,100,0
1,60,100,24
1,64,100,0
1,64,100,33
1,60,100,0
1,60,100,6
1,57,100,0
1,52,100,85
1,57,100,0
1,62,100,70
1,65,100,0
1,57,100,13
1,62,100,317
1,65,100,0
1,62,100,123
1,65,100,0
1,60,100,12
1,64,100,0
1,67,100,19
1,64,100,0
1,41,95,3105
1,60,95,0
1,53,91,0
1,62,82,84
1,53,87,0
1,60,107,0
1,46,99,0
1,48,84,44
1,64,84,0
1,55,99,0
1,62,99,0
1,45,91,85
1,60,95,0
1,64,79,0
1,57,95,0
1,53,99,57
1,60,87,0
1,41,84,0
1,53,103,54
1,62,91,0
1,60,99,0
1,46,91,0
1,55,99,49
1,48,84,0
1,64,82,0
1,62,95,0
1,60,87,53
1,57,91,0
1,45,103,0
1,64,82,0
1,53,99,46
1,60,95,0
1,41,95,0
1,60,95,47
1,62,84,0
1,53,91,0
1,46,91,0
1,55,107,62
1,48,95,0
1,64,82,0
1,45,99,74
1,60,103,0
1,57,95,0
1,64,87,0
1,41,95,80
1,60,95,0
1,53,91,0
1,62,82,84
1,53,87,0
1,60,107,0
1,46,99,0
1,48,84,44
1,64,84,0
1,55,99,0
1,62,99,0
1,45,91,85
1,60,95,0
1,64,79,0
1,57,95,0
1,53,99,57
1,60,87,0
1,41,84,0
1,53,103,54
1,62,91,0
1,60,99,0
1,46,91,0
1,55,99,49
1,48,84,0
1,64,82,0
1,62,95,0
1,60,87,53
1,57,91,0
1,45,103,0
1,64,82,0
1,53,99,46
1,60,95,0
1,41,95,0
1,60,95,47
1,62,84,0
1,53,91,0
1,46,91,0
1,55,107,62
1,48,95,0
1,64,82,0
1,45,99,74
1,60,103,0
1,57,95,0
1,64,87,0
1,41,95,80
1,60,95,0
1,53,91,0
1,62,82,84
1,53,87,0
1,60,107,0
1,46,99,0
1,48,84,44
1,64,84,0
1,55,99,0
1,62,99,0
1,45,91,85
1,60,95,0
1,64,79,0
1,57,95,0
1,53,99,57
1,60,87,0
1,41,84,0
1,53,103,54
1,62,91,0
1,60,99,0
1,46,91,0
1,55,99,49
1,48,84,0
1,64,82,0
1,62,95,0
1,60,87,53
1,57,91,0
1,45,103,0
1,64,82,0
1,53,99,46
1,60,95,0
1,41,95,0
1,60,95,47
1,62,84,0
1,53,91,0
1,46,91,0
1,55,107,62
1,48,95,0
1,64,82,0
1,45,99,74
1,60,103,0
1,57,95,0
1,64,87,0
1,65,87,88
1,60,84,4
1,72,91,2
1,62,58,67
1,72,53,3
1,65,107,134
1,72,95,1
1,60,87,8
1,62,64,43
1,60,91,58
1,65,107,3
1,72,87,2
2,38,84,864
2,38,84,401
2,38,95,205
2,34,95,361
2,34,87,295
2,34,91,186
2,34,87,154
2,33,82,1
2,33,84,275
2,33,82,215
2,33,87,171
2,31,84,22
2,31,87,423
2,31,84,169
2,36,87,177
2,38,87,18
2,38,91,450
2,38,91,191
2,38,82,224
2,34,95,0
2,34,99,341
2,34,95,151
2,34,87,194
2,33,91,9
2,33,87,268
2,33,95,164
2,33,87,201
2,31,87,4
2,31,87,280
2,31,91,158
2,36,107,192
2,38,99,70
2,36,95,527
2,36,99,150
2,38,95,380
2,40,87,510
2,40,103,170
2,38,103,356
2,36,95,502
2,36,99,150
2,38,99,394
2,40,99,475
2,40,99,141
2,40,99,190
2,38,84,27
2,38,84,401
2,38,95,205
2,34,95,361
2,34,87,295
2,34,91,186
2,34,87,154
2,33,82,1
2,33,84,275
2,33,82,215
2,33,87,171
2,31,84,22
2,31,87,423
2,31,84,169
2,36,87,177
2,38,87,18
2,38,91,450
2,38,91,191
2,38,82,224
2,34,95,0
2,34,99,341
2,34,95,151
2,34,87,194
2,33,91,9
2,33,87,268
2,33,95,164
2,33,87,201
2,31,87,4
2,31,87,280
2,31,91,158
2,36,107,192
2,38,99,70
2,36,95,527
2,36,99,150
2,38,95,380
2,40,87,510
2,40,103,170
2,38,103,356
2,36,95,502
2,36,99,150
2,38,99,394
2,40,99,475
2,40,99,141
2,40,99,190
2,38,84,27
2,38,84,401
2,38,95,205
2,34,95,361
2,34,87,295
2,34,91,186
2,34,87,154
2,33,82,1
2,33,84,275
2,33,82,215
2,33,87,171
2,31,84,22
2,31,87,423
2,31,84,169
2,36,87,177
2,38,87,18
2,38,91,450
2,38,91,191
2,38,82,224
2,34,95,0
2,34,99,341
2,34,95,151
2,34,87,194
2,33,91,9
2,33,87,268
2,33,95,164
2,33,87,201
2,31,87,4
2,31,87,280
2,31,91,158
2,36,107,192
2,38,99,70
2,36,95,527
2,36,99,150
2,38,95,380
2,40,87,510
2,40,103,170
2,38,103,356
2,36,95,502
2,36,99,150
2,38,99,394
2,40,99,475
2,40,99,141
2,40,99,190
2,40,84,27
2,40,87,81
2,40,95,61
2,40,87,52
2,40,87,69
2,40,87,48
2,40,82,55
2,40,73,71
2,40,87,106
2,29,69,124
2,31,64,57
2,33,66,52
2,36,79,51
2,33,68,31
2,31,63,40
2,30,64,47
2,29,67,16
2,29,107,1
2,36,62,542
2,29,115,67
2,36,58,52
2,29,103,78
2,29,107,60
2,36,73,238
2,29,107,64
2,29,107,54
2,34,87,14
2,34,103,95
2,34,87,135
2,34,107,59
2,34,84,268
2,34,95,60
2,36,107,96
2,36,107,81
2,36,99,152
2,36,115,63
2,36,95,322
2,36,111,67
2,33,111,42
2,33,107,75
2,33,69,134
2,33,111,67
2,33,79,53
2,33,84,60
2,33,115,61
2,29,107,63
2,36,64,9
2,29,107,67
2,36,33,44
2,29,95,74
2,29,107,63
2,36,71,296
2,29,103,58
2,34,87,8
2,34,107,67
2,34,99,121
2,34,107,59
2,34,95,261
2,34,99,61
2,36,103,22
2,36,103,238
2,36,107,141
2,36,115,63
2,33,52,257
2,36,111,41
2,33,107,22
2,33,95,74
2,33,84,120
2,33,111,61
2,33,107,216
2,36,84,14
2,29,111,35
2,29,107,140
2,29,84,121
2,29,99,61
2,29,95,271
2,29,82,57
2,34,99,30
2,34,103,95
2,34,84,112
2,34,103,60
2,34,79,267
2,34,76,49
2,36,95,42
2,36,107,72
2,36,84,121
2,36,115,71
2,36,95,292
2,36,79,43
2,33,99,35
2,33,79,56
2,33,73,141
2,33,99,64
2,33,95,135
2,33,107,144
2,36,84,45
2,38,99,44
2,36,95,527
2,36,99,150
2,38,95,380
2,40,87,510
2,40,103,170
2,38,103,356
2,36,95,502
2,36,99,150
2,38,99,394
2,40,99,475
2,40,99,141
2,40,99,190
2,26,73,27
2,34,95,303
2,34,87,295
2,34,91,186
2,34,87,154
2,33,82,1
2,33,84,275
2,33,82,215
2,33,87,171
2,31,84,22
2,31,87,423
2,31,84,169
2,36,87,177
2,38,84,18
2,38,84,401
2,38,95,205
2,34,95,361
2,34,87,295
2,34,91,186
2,34,87,154
2,33,82,1
2,33,84,275
2,33,82,215
2,33,87,171
2,31,84,22
2,31,87,423
2,31,84,169
2,36,87,177
2,38,87,18
2,38,91,450
2,38,91,191
2,38,82,224
2,34,95,0
2,34,99,341
2,34,95,151
2,34,87,194
2,33,91,9
2,33,87,268
2,33,95,164
2,33,87,201
2,31,87,4
2,31,87,280
2,31,91,158
2,36,107,192
2,38,99,70
2,36,95,527
2,36,99,150
2,38,95,380
2,40,87,510
2,40,103,170
2,38,103,356
2,36,95,502
2,36,99,150
2,38,99,394
2,40,99,475
2,40,99,141
2,40,99,190
2,40,84,27
2,40,87,81
2,40,95,61
2,40,87,52
2,40,87,69
2,40,87,48
2,40,82,55
2,40,73,71
2,40,87,106
2,29,69,124
2,31,64,57
2,33,66,52
2,36,79,51
2,33,68,31
2,31,63,40
2,30,64,47
2,29,67,16
2,29,107,1
2,36,62,542
2,29,115,67
2,36,58,52
2,29,103,78
2,29,107,60
2,36,73,238
2,29,107,64
2,29,107,54
2,34,87,14
2,34,103,95
2,34,87,135
2,34,107,59
2,34,84,268
2,34,95,60
2,36,107,96
2,36,107,81
2,36,99,152
2,36,115,63
2,36,95,322
2,36,111,67
2,33,111,42
2,33,107,75
2,33,69,134
2,33,111,67
2,33,79,53
2,33,84,60
2,33,115,61
2,29,107,63
2,36,64,9
2,29,107,67
2,36,33,44
2,29,95,74
2,29,107,63
2,36,71,296
2,29,103,58
2,34,87,8
2,34,107,67
2,34,99,121
2,34,107,59
2,34,95,261
2,34,99,61
2,36,103,22
2,36,103,238
2,36,107,141
2,36,115,63
2,33,52,257
2,36,111,41
2,33,107,22
2,33,95,74
2,33,84,120
2,33,111,61
2,33,107,216
2,36,84,14
2,29,111,35
2,29,107,140
2,29,84,121
2,29,99,61
2,29,95,271
2,29,82,57
2,34,99,30
2,34,103,95
2,34,84,112
2,34,103,60
2,34,79,267
2,34,76,49
2,36,95,42
2,36,107,72
2,36,84,121
2,36,115,71
2,36,95,292
2,36,79,43
2,33,99,35
2,33,79,56
2,33,73,141
2,33,99,64
2,33,95,135
2,33,107,144
2,36,84,45
2,29,107,44
