track,note,velocity,time
4,40,100,2454
4,40,0,575
4,33,95,1
4,33,0,566
4,35,105,7
4,35,0,289
4,33,85,1
4,33,0,288
4,40,84,1
4,40,0,545
4,37,98,31
4,37,0,563
4,33,95,12
4,33,0,576
4,35,98,1
4,35,0,526
4,35,98,49
4,35,0,538
4,32,98,38
4,32,0,569
4,33,90,8
4,33,0,575
4,37,101,1
4,37,0,561
4,33,94,12
4,33,0,521
4,40,104,58
4,40,0,574
4,33,104,1
4,33,0,572
4,35,95,5
4,35,0,261
4,33,88,26
4,33,0,287
4,40,96,1
4,40,0,569
4,38,121,8
4,38,0,287
4,45,115,1
4,45,0,287
4,43,115,1
4,43,0,287
4,42,122,1
4,42,0,286
4,50,118,1
4,50,0,288
4,48,109,1
4,48,0,287
4,47,122,1
4,47,0,287
4,45,127,1
4,45,0,94
4,43,88,1
4,43,0,93
4,42,116,1
4,42,0,94
4,40,106,4
4,40,0,576
4,33,107,1
4,33,0,575
4,35,102,1
4,35,0,284
4,33,105,1
4,33,0,290
4,40,107,1
4,40,0,575
4,37,107,1
4,37,0,574
4,33,104,2
4,33,0,571
4,35,107,2
4,35,0,540
4,35,107,39
4,35,0,575
4,32,109,1
4,32,0,566
4,33,100,9
4,33,0,576
4,37,109,1
4,37,0,571
4,33,110,2
4,33,0,578
4,40,107,1
4,40,0,321
4,33,109,1
4,33,0,573
4,35,110,3
4,35,0,20
4,33,104,1
4,33,0,113
4,40,105,1
4,40,0,72
4,40,72,23
4,40,0,76
4,40,89,18
4,40,0,76
4,40,110,20
4,40,0,67
4,40,110,29
4,40,0,72
4,40,113,24
4,40,0,84
4,37,107,14
4,37,0,573
4,35,110,1
4,35,0,268
4,35,109,22
4,35,0,288
4,33,107,1
4,33,0,264
4,33,106,24
4,33,0,287
4,40,113,1
4,40,0,287
4,32,116,1
4,32,0,287
4,33,107,1
4,33,0,261
4,33,110,27
4,33,0,286
4,35,111,1
4,35,0,258
4,35,110,31
4,35,0,237
4,33,107,51
4,33,0,262
4,33,104,26
4,33,0,284
4,40,109,1
4,40,0,290
4,32,111,1
4,32,0,277
4,33,109,11
4,33,0,267
4,33,107,21
4,33,0,272
4,35,94,16
4,35,0,264
4,35,107,24
4,35,0,233
4,30,107,55
4,30,0,73
4,30,73,23
4,30,0,72
4,30,83,24
4,30,0,72
4,32,83,21
4,32,0,78
4,32,61,18
4,32,0,72
4,32,95,24
4,32,0,76
4,33,110,23
4,33,0,70
4,33,90,23
4,33,0,65
4,33,88,31
4,33,0,73
4,33,107,23
4,33,0,70
4,33,90,26
4,33,0,76
4,33,97,20
4,33,0,70
4,33,109,29
4,33,0,446
4,33,100,31
4,33,0,81
4,35,107,18
4,35,0,254
4,35,110,31
4,35,0,280
4,38,118,11
4,38,0,287
4,45,114,1
4,45,0,287
4,43,115,1
4,43,0,287
4,42,122,1
4,42,0,286
4,50,118,1
4,50,0,288
4,48,109,1
4,48,0,287
4,47,127,1
4,47,0,287
4,45,127,1
4,45,0,94
4,43,107,1
4,43,0,93
4,42,116,1
4,42,0,94
4,40,109,4
4,40,0,576
4,33,105,1
4,33,0,575
4,35,102,1
4,35,0,284
4,33,105,1
4,33,0,290
4,40,109,1
4,40,0,575
4,37,105,1
4,37,0,574
4,33,104,2
4,33,0,571
4,35,107,2
4,35,0,540
4,35,110,39
4,35,0,575
4,32,105,1
4,32,0,566
4,33,100,9
4,33,0,576
4,37,105,1
4,37,0,571
4,33,105,2
4,33,0,578
4,40,111,1
4,40,0,575
4,33,110,1
4,33,0,573
4,35,111,3
4,35,0,287
4,33,104,1
4,33,0,287
4,40,105,1
4,40,0,72
4,40,75,23
4,40,0,76
4,40,89,18
4,40,0,76
4,40,107,20
4,40,0,67
4,40,110,29
4,40,0,72
4,40,113,24
4,40,0,84
4,37,111,15
4,37,0,173
4,37,104,19
4,37,0,69
4,37,107,27
4,37,0,277
4,35,111,8
4,35,0,169
4,35,91,23
4,35,0,83
4,35,107,13
4,35,0,174
4,35,81,18
4,35,0,94
4,33,112,2
4,33,0,171
4,33,82,21
4,33,0,81
4,33,110,17
4,33,0,191
4,33,87,2
4,33,0,14
4,40,126,82
4,40,0,181
4,40,83,11
4,40,0,86
4,32,111,10
4,32,0,286
4,33,105,2
4,33,0,161
4,33,80,28
4,33,0,88
4,33,109,11
4,33,0,273
4,35,110,15
4,35,0,181
4,35,95,11
4,35,0,81
4,35,105,15
4,35,0,277
4,33,111,11
4,33,0,171
4,33,83,21
4,33,0,72
4,33,111,24
4,33,0,169
4,33,81,23
4,33,0,81
4,40,109,12
4,40,0,80
4,40,94,19
4,40,0,75
4,40,97,21
4,40,0,83
4,32,111,12
4,32,0,172
4,32,95,18
4,32,0,84
4,33,105,12
4,33,0,187
4,33,84,8
4,33,0,64
4,33,107,32
4,33,0,174
4,33,70,18
4,33,0,85
4,35,113,11
4,35,0,169
4,35,95,23
4,35,0,78
4,35,109,18
4,35,0,168
4,35,97,24
4,35,0,53
4,30,110,40
4,30,0,97
4,30,87,2
4,30,0,64
4,30,98,32
4,30,0,57
4,32,109,36
4,32,0,78
4,32,98,20
4,32,0,73
4,32,104,24
4,32,0,62
4,33,111,34
4,33,0,61
4,33,95,32
4,33,0,67
4,33,98,29
4,33,0,62
4,33,113,34
4,33,0,62
4,33,95,34
4,33,0,67
4,33,102,29
4,33,0,70
4,33,103,26
4,33,0,286
4,37,107,2
4,37,0,287
4,35,111,1
4,35,0,568
4,38,120,11
4,38,0,287
4,45,116,1
4,45,0,287
4,43,117,1
4,43,0,287
4,42,125,1
4,42,0,286
4,50,119,1
4,50,0,288
4,48,110,1
4,48,0,287
4,47,123,1
4,47,0,287
4,45,127,1
4,45,0,94
4,43,88,1
4,43,0,93
4,42,116,1
4,42,0,94
4,40,115,4
4,40,0,576
4,33,107,1
4,33,0,575
4,35,102,1
4,35,0,284
4,33,105,1
4,33,0,290
4,40,113,1
4,40,0,575
4,37,107,1
4,37,0,574
4,33,104,2
4,33,0,571
4,35,107,2
4,35,0,540
4,35,114,39
4,35,0,575
4,32,107,1
4,32,0,566
4,33,96,9
4,33,0,576
4,37,106,1
4,37,0,571
4,33,105,2
4,33,0,578
4,40,110,1
4,40,0,575
4,33,110,1
4,33,0,573
4,35,110,3
4,35,0,287
4,33,100,1
4,33,0,287
4,40,112,1
4,40,0,72
4,40,92,23
4,40,0,76
4,40,85,18
4,40,0,76
4,40,109,20
4,40,0,67
4,40,109,29
4,40,0,72
4,40,105,24
4,40,0,84
4,37,111,14
4,37,0,94
4,37,84,2
4,37,0,94
4,37,113,2
4,37,0,94
4,37,110,2
4,37,0,94
4,37,99,2
4,37,0,94
4,37,104,2
4,37,0,94
4,35,107,2
4,35,0,94
4,35,92,2
4,35,0,94
4,35,77,2
4,35,0,94
4,35,104,2
4,35,0,94
4,35,85,2
4,35,0,94
4,35,76,2
4,35,0,94
4,33,105,2
4,33,0,94
4,33,82,2
4,33,0,94
4,33,92,2
4,33,0,94
4,33,103,2
4,33,0,94
4,33,84,2
4,33,0,94
4,33,90,2
4,33,0,94
4,28,101,2
4,28,0,94
4,28,86,2
4,28,0,94
4,28,87,2
4,28,0,94
4,32,97,2
4,32,0,94
4,32,79,2
4,32,0,94
4,32,87,2
4,32,0,94
4,33,102,2
4,33,0,94
4,33,84,2
4,33,0,94
4,33,85,2
4,33,0,94
4,33,99,2
4,33,0,94
4,33,79,2
4,33,0,94
4,33,79,2
4,33,0,94
4,35,102,2
4,35,0,94
4,35,88,2
4,35,0,94
4,35,89,2
4,35,0,94
4,35,106,2
4,35,0,94
4,35,76,2
4,35,0,94
4,35,84,2
4,35,0,94
4,33,104,2
4,33,0,94
4,33,85,2
4,33,0,94
4,33,95,2
4,33,0,94
4,33,100,2
4,33,0,94
4,33,91,2
4,33,0,94
4,33,86,2
4,33,0,94
4,28,100,2
4,28,0,94
4,28,99,2
4,28,0,94
4,28,101,2
4,28,0,94
4,32,101,2
4,32,0,94
4,32,74,2
4,32,0,94
4,32,96,2
4,32,0,94
4,33,112,2
4,33,0,94
4,33,91,2
4,33,0,94
4,33,77,2
4,33,0,94
4,33,110,2
4,33,0,94
4,33,80,2
4,33,0,94
4,33,99,2
4,33,0,94
4,35,106,2
4,35,0,94
4,35,87,2
4,35,0,94
4,35,104,2
4,35,0,94
4,35,113,2
4,35,0,94
4,35,107,2
4,35,0,94
4,35,95,2
4,35,0,94
4,30,101,2
4,30,0,94
4,30,86,2
4,30,0,94
4,30,99,2
4,30,0,94
4,32,83,2
4,32,0,94
4,32,115,2
4,32,0,94
4,32,101,2
4,32,0,94
4,33,92,2
4,33,0,94
4,33,92,2
4,33,0,94
4,33,90,2
4,33,0,94
4,33,90,2
4,33,0,94
4,33,90,2
4,33,0,94
4,33,70,2
4,33,0,94
4,33,104,2
4,33,0,94
4,33,75,2
4,33,0,94
4,33,88,2
4,33,0,94
4,37,104,2
4,37,0,94
4,37,94,2
4,37,0,94
4,37,96,2
4,37,0,94
4,35,104,2
4,35,0,94
4,35,91,2
4,35,0,94
4,35,87,2
4,35,0,94
4,35,104,2
4,35,0,94
4,35,100,2
4,35,0,94
4,35,102,2
4,35,0,94
4,38,127,2
4,38,0,286
4,45,127,2
4,45,0,286
4,43,127,2
4,43,0,286
4,42,120,2
4,42,0,286
4,38,113,2
4,38,0,286
4,48,115,2
4,48,0,286
4,47,111,2
4,47,0,286
4,45,111,2
4,45,0,94
4,43,110,2
4,43,0,94
4,42,110,2
4,42,0,94
4,40,111,2
4,40,0,1383
5,71,71,9411
5,71,0,561
5,76,79,17
5,76,0,556
5,66,74,18
5,66,0,262
5,64,64,23
5,64,0,230
5,64,73,61
5,64,0,433
6,52,95,2189
6,52,0,190
6,54,82,4
6,54,0,98
6,56,103,1
6,56,0,94
6,54,87,2
6,54,0,139
6,52,71,3
6,52,0,33
6,52,90,10
6,52,0,97
6,54,73,1
6,54,0,97
6,56,80,1
6,56,0,30
6,56,90,18
6,56,0,140
6,54,70,5
6,54,0,101
6,52,75,45
6,52,0,15
6,52,91,28
6,52,0,95
6,54,102,1
6,54,0,95
6,56,70,1
6,56,0,50
6,54,97,1
6,54,0,128
6,54,101,18
6,54,0,89
6,54,102,4
6,54,0,39
6,54,103,12
6,54,0,91
6,52,102,51
6,52,0,70
6,52,101,26
6,52,0,45
6,56,103,2
6,56,0,274
6,56,103,58
6,56,0,243
6,54,103,1
6,54,0,46
6,52,87,2
6,52,0,76
6,52,91,21
6,52,0,85
6,52,81,10
6,52,0,78
6,52,87,16
6,52,0,88
6,54,84,5
6,54,0,76
6,56,78,25
6,56,0,44
6,56,81,4
6,56,0,90
6,54,71,10
6,54,0,118
6,52,88,65
6,52,0,19
6,52,88,30
6,52,0,97
6,54,94,1
6,54,0,93
6,56,86,1
6,56,0,54
6,54,97,1
6,54,0,126
6,54,90,13
6,54,0,96
6,54,81,2
6,54,0,39
6,54,90,60
6,54,0,28
6,54,87,20
6,54,0,135
6,52,97,55
6,52,0,46
6,47,103,1
6,47,0,199
6,59,103,185
6,59,0,121
6,59,103,26
6,59,0,23
6,59,103,23
6,59,0,61
6,59,95,35
6,59,0,91
6,59,96,4
6,59,0,39
6,59,103,13
6,59,0,115
6,63,96,26
6,63,0,95
6,64,95,1
6,64,0,78
6,64,103,20
6,64,0,95
6,63,103,1
6,63,0,44
6,61,96,2
6,61,0,123
6,61,103,23
6,61,0,94
6,59,103,3
6,59,0,90
6,59,84,5
6,59,0,57
6,59,103,37
6,59,0,38
6,57,81,7
6,57,0,126
6,56,103,20
6,56,0,36
6,56,92,15
6,56,0,140
6,57,103,2
6,57,0,45
6,59,90,3
6,59,0,126
6,52,88,15
6,52,0,276
6,52,96,161
6,52,0,88
6,54,79,1
6,54,0,54
6,56,103,1
6,56,0,86
6,54,73,7
6,54,0,95
6,52,79,1
6,52,0,22
6,52,85,29
6,52,0,92
6,54,57,49
6,54,0,51
6,56,90,1
6,56,0,123
6,56,88,17
6,56,0,84
6,54,82,10
6,54,0,144
6,52,90,5
6,52,0,28
6,52,88,17
6,52,0,42
6,54,103,4
6,54,0,30
6,56,85,20
6,56,0,90
6,56,103,100
6,56,0,46
6,54,100,5
6,54,0,33
6,54,90,12
6,54,0,156
6,54,103,39
6,54,0,32
6,52,100,16
6,52,0,17
6,52,92,28
6,52,0,148
6,52,103,44
6,52,0,446
6,52,103,2146
6,52,0,191
6,54,103,1
6,54,0,92
6,56,103,7
6,56,0,89
6,54,88,9
6,54,0,89
6,52,91,4
6,52,0,73
6,52,88,26
6,52,0,92
6,54,103,1
6,54,0,93
6,56,85,1
6,56,0,30
6,56,85,21
6,56,0,128
6,54,96,11
6,54,0,122
6,52,100,26
6,52,0,20
6,52,81,26
6,52,0,98
6,54,97,1
6,54,0,91
6,56,92,2
6,56,0,43
6,54,103,5
6,54,0,126
6,54,92,116
6,54,0,78
6,54,103,19
6,54,0,33
6,52,87,15
6,52,0,37
6,52,103,10
6,52,0,132
6,56,103,56
6,56,0,259
6,56,103,33
6,56,0,170
6,54,102,20
6,54,0,53
6,52,94,1
6,52,0,134
6,52,96,9
6,52,0,86
6,52,103,8
6,52,0,86
6,52,103,7
6,52,0,52
6,54,103,46
6,54,0,93
6,56,92,1
6,56,0,86
6,56,103,10
6,56,0,86
6,54,70,12
6,54,0,142
6,52,75,5
6,52,0,44
6,52,101,2
6,52,0,92
6,54,100,1
6,54,0,95
6,56,57,1
6,56,0,49
6,54,103,1
6,54,0,126
6,54,103,14
6,54,0,67
6,54,103,76
6,54,0,38
6,54,103,13
6,54,0,98
6,56,92,1
6,56,0,85
6,54,102,8
6,54,0,72
6,54,92,24
6,54,0,252
6,59,96,134
6,59,0,108
6,59,98,34
6,59,0,33
6,59,90,20
6,59,0,59
6,59,87,35
6,59,0,86
6,59,90,10
6,59,0,85
6,59,96,11
6,59,0,78
6,63,97,21
6,63,0,86
6,64,98,9
6,64,0,36
6,64,98,7
6,64,0,139
6,63,103,5
6,63,0,81
6,61,75,15
6,61,0,43
6,61,103,8
6,61,0,107
6,59,98,39
6,59,0,95
6,57,80,1
6,57,0,33
6,59,103,16
6,59,0,143
6,57,81,1
6,57,0,88
6,56,103,7
6,56,0,59
6,56,103,32
6,56,0,97
6,57,94,1
6,57,0,48
6,59,89,1
6,59,0,129
6,52,102,12
6,52,0,300
6,52,100,89
6,52,0,93
6,54,102,1
6,54,0,47
6,56,103,1
6,56,0,143
6,54,103,1
6,54,0,78
6,52,92,15
6,52,0,67
6,52,94,29
6,52,0,97
6,54,96,1
6,54,0,93
6,56,92,1
6,56,0,65
6,56,103,31
6,56,0,50
6,54,100,1
6,54,0,107
6,52,92,32
6,52,0,62
6,52,91,33
6,52,0,96
6,54,71,1
6,54,0,45
6,56,90,3
6,56,0,124
6,54,100,1
6,54,0,77
6,54,79,24
6,54,0,16
6,54,82,79
6,54,0,86
6,54,103,6
6,54,0,78
6,52,103,18
6,52,0,34
6,52,98,16
6,52,0,94
6,52,103,28
6,52,0,295
6,61,102,294
6,61,0,29
6,61,90,26
6,61,0,27
6,61,100,18
6,61,0,31
6,61,97,20
6,61,0,14
6,61,103,32
6,61,0,45
6,59,84,5
6,59,0,14
6,59,103,32
6,59,0,277
6,56,103,6
6,56,0,97
6,54,103,1
6,54,0,92
6,52,102,4
6,52,0,166
6,52,22,128
6,52,0,21
6,57,103,69
6,57,0,25
6,57,103,23
6,57,0,20
6,57,103,28
6,57,0,97
6,59,103,1
6,59,0,96
6,56,92,1
6,56,0,289
6,54,103,1
6,54,0,93
6,56,85,1
6,56,0,42
6,54,60,1
6,54,0,54
6,52,96,1
6,52,0,220
6,61,103,161
6,61,0,20
6,61,103,28
6,61,0,18
6,61,103,30
6,61,0,68
6,61,103,24
6,61,0,100
6,64,103,1
6,64,0,188
6,63,100,1
6,63,0,52
6,61,103,49
6,61,0,30
6,59,103,16
6,59,0,249
6,52,103,185
6,52,0,67
