track,note,velocity,time
1,67,66,1199
1,62,73,0
1,59,71,0
1,64,73,0
1,66,41,0
1,62,53,0
1,57,68,0
1,64,67,0
1,60,73,0
1,55,71,0
1,59,68,0
1,54,69,0
1,63,64,0
1,55,64,0
1,50,63,0
1,62,79,0
1,67,64,0
1,59,73,0
1,64,69,0
1,57,79,0
1,62,61,0
1,66,24,0
1,64,79,0
1,60,73,0
1,55,71,0
1,59,68,0
1,54,69,0
1,59,56,0
1,63,36,0
1,50,67,0
1,55,71,0
1,59,73,0
1,67,64,0
1,62,79,0
1,64,69,0
1,57,79,0
1,62,61,0
1,66,24,0
1,64,79,0
1,60,73,0
1,55,71,0
1,59,68,0
1,54,69,0
1,59,56,0
1,63,36,0
1,50,67,0
1,55,71,0
1,62,79,0
1,67,64,0
1,59,73,0
1,64,69,0
1,57,79,0
1,62,61,0
1,66,24,0
1,64,79,0
1,60,73,0
1,55,71,0
1,59,68,0
1,54,69,0
1,59,56,0
1,63,36,0
1,50,67,0
1,55,71,0
1,66,55,0
1,57,63,0
1,62,68,0
1,61,68,0
1,59,71,0
1,62,43,0
1,57,79,0
1,61,71,0
1,64,73,0
1,66,69,0
1,62,76,0
1,61,64,0
1,59,71,0
1,62,55,0
1,61,46,0
1,64,53,0
1,64,45,0
1,55,66,0
1,62,63,0
1,59,66,0
1,57,63,0
1,64,63,0
1,61,56,0
1,67,66,0
1,62,73,0
1,59,71,0
1,64,73,0
1,66,41,0
1,62,53,0
1,57,68,0
1,64,67,0
1,60,73,0
1,55,71,0
1,59,68,0
1,54,69,0
1,63,64,0
1,55,64,0
1,50,63,0
1,62,79,0
1,67,64,0
1,59,73,0
1,64,69,0
1,57,79,0
1,62,61,0
1,66,24,0
1,64,79,0
1,60,73,0
1,55,71,0
1,59,68,0
1,54,69,0
1,59,56,0
1,63,36,0
1,50,67,0
1,55,71,0
1,62,79,0
1,67,64,0
1,59,73,0
1,64,69,0
1,57,79,0
1,62,61,0
1,66,24,0
1,64,79,0
1,60,73,0
1,55,71,0
1,59,68,0
1,54,69,0
1,59,56,0
1,63,36,0
1,50,67,0
1,55,71,0
1,62,79,0
1,67,64,0
1,59,73,0
1,64,69,0
1,57,79,0
1,62,61,0
1,66,24,0
1,64,79,0
1,60,73,0
1,55,71,0
1,59,68,0
1,54,69,0
1,59,56,0
1,63,36,0
1,50,67,0
1,55,71,0
1,66,55,0
1,57,63,0
1,62,68,0
1,61,68,0
1,59,71,0
1,55,33,0
1,62,43,0
1,57,79,0
1,61,71,0
1,64,73,0
1,66,69,0
1,62,76,0
1,61,64,0
1,55,27,0
1,59,71,0
1,62,55,0
1,61,46,0
1,64,53,0
1,64,27,0
1,55,66,0
1,62,63,0
1,59,66,0
1,57,63,0
1,64,63,0
1,61,56,0
1,66,56,0
1,59,55,0
1,62,63,0
1,57,64,0
1,61,57,0
1,55,62,0
1,59,55,0
1,64,56,0
1,54,57,0
1,57,55,0
1,62,63,0
1,59,55,0
1,55,45,0
1,64,47,0
1,57,64,0
1,61,56,0
1,59,60,0
1,55,56,0
1,62,62,0
1,57,67,0
1,64,66,0
1,61,58,0
1,66,53,0
1,55,58,0
1,59,66,0
1,62,37,0
1,57,63,0
1,64,64,0
1,61,56,0
1,62,79,3072
1,67,64,0
1,59,73,0
1,64,69,0
1,57,79,0
1,62,61,0
1,66,24,0
1,64,79,0
1,60,73,0
1,55,71,0
1,59,68,0
1,54,69,0
1,59,56,0
1,63,36,0
1,50,67,0
1,55,71,0
1,62,79,0
1,67,64,0
1,59,73,0
1,64,69,0
1,57,79,96
1,62,61,0
1,66,24,0
1,64,79,0
1,60,73,0
1,55,71,0
1,59,68,0
1,54,69,0
1,59,56,0
1,63,36,0
1,50,67,0
1,55,71,0
1,62,79,0
1,67,64,0
1,59,73,0
1,64,69,0
1,57,79,0
1,62,61,0
1,66,24,0
1,64,79,0
1,60,73,0
1,55,71,0
1,59,68,0
1,54,69,0
1,59,56,0
1,63,36,0
1,50,67,0
1,55,71,0
1,66,55,0
1,57,63,0
1,62,68,0
1,61,68,0
1,59,71,0
1,55,24,0
1,62,43,0
1,57,79,0
1,61,71,0
1,64,73,0
1,66,69,0
1,62,76,0
1,61,64,0
1,55,35,0
1,59,71,0
1,62,55,0
1,61,46,0
1,64,53,0
1,64,32,0
1,55,66,0
1,62,63,0
1,59,66,0
1,57,63,0
1,64,63,0
1,61,56,0
1,66,56,0
1,59,55,0
1,62,63,0
1,57,64,0
1,61,57,0
1,55,43,0
1,55,62,0
1,59,55,0
1,64,56,0
1,54,57,0
1,57,55,0
1,62,63,0
1,59,55,0
1,55,45,0
1,64,47,0
1,57,64,0
1,61,56,0
1,59,60,0
1,55,56,0
1,62,62,0
1,57,67,0
1,64,66,0
1,61,58,0
1,66,53,0
1,55,58,0
1,59,66,0
1,62,37,0
1,57,63,0
1,64,64,0
1,61,56,0
1,59,60,0
1,55,56,0
1,62,62,0
1,57,67,0
1,64,66,0
1,61,58,0
1,66,53,0
1,66,64,192
1,69,68,0
1,74,79,0
2,31,74,1199
2,40,107,274
2,38,107,21
2,35,107,417
2,31,103,470
2,33,103,54
2,35,99,192
2,28,111,409
2,28,107,477
2,31,119,96
2,31,115,45
2,35,119,408
2,31,99,564
2,33,107,23
2,35,111,410
2,31,91,490
2,40,111,31
2,38,107,27
2,35,115,414
2,31,82,492
2,33,99,36
2,35,99,23
2,33,115,400
2,29,87,384
2,31,99,52
2,33,99,0
2,35,115,381
2,62,45,305
2,67,45,0
2,31,99,57
2,62,58,0
2,67,48,0
2,33,107,46
2,31,99,9
2,31,103,378
2,33,103,26
2,31,91,302
2,40,111,31
2,38,107,27
2,35,115,414
2,31,82,492
2,33,99,36
2,35,99,23
2,33,115,400
2,29,87,384
2,31,99,52
2,33,99,192
2,35,115,381
2,62,45,305
2,67,45,0
2,31,99,57
2,62,58,0
2,67,48,0
2,33,107,46
2,31,99,9
2,31,103,378
2,33,103,26
2,31,91,302
2,40,111,31
2,38,107,27
2,35,115,414
2,31,82,492
2,33,99,36
2,35,99,23
2,33,115,400
2,29,87,384
2,31,99,52
2,33,99,0
2,35,115,381
2,31,99,401
2,33,107,46
2,31,99,9
2,31,103,378
2,33,103,26
2,33,82,302
2,40,107,25
2,38,107,7
2,33,107,384
2,54,51,334
2,54,17,0
2,59,45,0
2,59,28,0
2,30,91,77
2,54,66,0
2,59,60,0
2,33,99,60
2,35,99,0
2,35,95,405
2,31,87,9
2,33,71,292
2,40,84,35
2,38,87,20
2,35,95,394
2,33,91,192
2,30,91,273
2,33,91,11
2,35,91,0
2,33,91,419
2,28,79,481
2,31,95,43
2,31,107,45
2,31,95,425
2,28,95,9
2,28,87,294
2,31,107,35
2,33,87,27
2,30,95,382
2,31,95,474
2,40,107,96
2,38,107,29
2,35,107,417
2,31,103,470
2,33,103,54
2,35,99,0
2,28,111,409
2,28,107,477
2,31,119,96
2,31,115,45
2,35,119,408
2,67,55,381
2,62,62,2
2,67,56,51
2,62,63,2
2,31,99,66
2,33,107,23
2,35,111,410
2,31,91,490
2,40,111,31
2,38,107,27
2,35,115,414
2,31,82,492
2,33,99,36
2,35,99,23
2,33,115,400
2,29,87,384
2,31,99,52
2,33,99,0
2,35,115,381
2,62,45,305
2,67,45,0
2,31,99,57
2,62,58,0
2,67,48,0
2,33,107,46
2,31,99,9
2,31,103,378
2,33,103,26
2,31,91,302
2,40,111,31
2,38,107,27
2,35,115,414
2,57,63,390
2,62,47,5
2,57,63,67
2,62,61,2
2,31,82,2
2,33,99,36
2,35,99,23
2,57,71,15
2,62,61,2
2,33,115,400
2,29,87,384
2,31,99,52
2,33,99,0
2,35,115,381
2,62,64,302
2,62,45,0
2,67,45,0
2,67,37,0
2,67,56,68
2,62,61,2
2,31,99,0
2,62,58,0
2,67,48,0
2,33,107,46
2,31,99,9
2,62,63,190
2,67,51,2
2,62,68,58
2,67,58,2
2,31,103,76
2,33,103,26
2,31,91,302
2,40,111,31
2,38,107,27
2,35,115,414
2,31,82,492
2,33,99,36
2,35,99,23
2,33,115,400
2,29,87,384
2,31,99,52
2,33,99,0
2,35,115,381
2,62,52,303
2,67,53,2
2,62,63,56
2,31,99,6
2,67,55,0
2,33,107,46
2,31,99,9
2,31,103,378
2,33,103,26
2,33,82,302
2,40,107,25
2,38,107,7
2,33,107,384
2,54,51,334
2,54,17,0
2,59,45,0
2,59,28,0
2,30,91,77
2,54,66,0
2,59,60,0
2,33,99,60
2,35,99,0
2,35,95,405
2,31,87,9
2,33,71,292
2,40,84,35
2,38,87,20
2,35,95,394
2,33,91,192
2,30,91,273
2,33,91,11
2,35,91,0
2,33,91,419
2,28,79,481
2,31,95,43
2,31,107,45
2,31,95,425
2,28,95,9
2,28,87,294
2,31,107,35
2,33,87,27
2,30,95,382
2,33,95,195
2,33,76,296
2,35,107,52
2,33,103,41
2,33,91,407
2,35,99,75
2,30,76,316
2,33,91,42
2,35,91,59
2,33,99,408
2,30,91,40
2,28,68,326
2,30,87,47
2,31,91,61
2,30,87,385
2,31,73,42
2,33,87,407
2,35,95,53
2,33,79,318
2,35,99,49
2,31,103,622
2,33,95,68
2,31,87,311
2,35,107,27
2,30,79,499
2,33,95,38
2,35,95,57
2,30,45,319
2,35,95,69
2,33,99,23
2,31,66,307
2,33,95,50
2,31,99,76
2,35,111,429
2,30,87,493
2,33,91,12
2,35,103,70
2,35,87,431
2,33,99,47
2,31,91,3378
2,40,111,31
2,38,107,27
2,35,115,414
2,31,82,492
2,33,99,36
2,35,99,23
2,33,115,400
2,29,87,384
2,31,99,52
2,33,99,0
2,35,115,381
2,62,45,305
2,67,45,0
2,31,99,57
2,62,58,0
2,67,48,0
2,33,107,46
2,31,99,9
2,31,103,378
2,33,103,26
2,31,91,302
2,40,111,31
2,38,107,27
2,35,115,414
2,57,63,390
2,62,47,5
2,57,63,67
2,62,61,2
2,31,82,2
2,33,99,36
2,35,99,23
2,57,71,15
2,62,61,2
2,33,115,400
2,29,87,384
2,31,99,52
2,33,99,0
2,35,115,381
2,62,64,302
2,62,45,0
2,67,45,0
2,67,37,0
2,67,56,68
2,62,61,2
2,31,99,0
2,62,58,0
2,67,48,0
2,33,107,46
2,31,99,9
2,62,63,190
2,67,51,2
2,62,68,58
2,67,58,2
2,31,103,76
2,33,103,26
2,31,91,302
2,40,111,31
2,38,107,27
2,35,115,414
2,31,82,492
2,33,99,36
2,35,99,23
2,33,115,400
2,29,87,384
2,31,99,52
2,33,99,0
2,35,115,381
2,62,52,303
2,67,53,2
2,62,63,56
2,31,99,6
2,67,55,0
2,33,107,46
2,31,99,9
2,31,103,378
2,33,103,26
2,33,82,302
2,40,107,25
2,38,107,7
2,33,107,384
2,54,51,334
2,54,17,0
2,59,45,0
2,59,28,0
2,30,91,77
2,54,66,0
2,59,60,0
2,33,99,60
2,35,99,0
2,35,95,405
2,31,87,9
2,33,71,292
2,40,84,35
2,38,87,20
2,35,95,394
2,33,91,0
2,30,91,273
2,33,91,11
2,35,91,0
2,33,91,419
2,28,79,481
2,31,95,43
2,31,107,45
2,31,95,425
2,28,95,9
2,28,87,294
2,31,107,35
2,33,87,27
2,30,95,382
2,33,95,195
2,33,76,296
2,35,107,52
2,33,103,41
2,33,91,407
2,35,99,75
2,30,76,316
2,33,91,42
2,35,91,59
2,33,99,408
2,30,91,40
2,28,68,326
2,30,87,47
2,31,91,61
2,30,87,385
2,31,73,42
2,33,87,407
2,35,95,53
2,33,79,318
2,35,99,49
2,31,103,622
2,33,95,68
2,31,87,311
2,35,107,27
2,30,79,499
2,33,95,38
2,35,95,57
2,30,45,319
2,35,95,69
2,33,99,23
2,31,66,307
2,33,95,50
2,31,99,76
2,35,111,429
2,30,87,493
2,33,91,12
2,35,103,70
2,35,87,431
2,33,99,47
2,31,103,406
2,33,95,68
2,31,87,311
2,35,107,27
2,30,79,499
2,33,95,38
2,35,95,57
2,30,45,319
2,35,95,69
2,33,99,27
2,38,99,211
3,59,105,29
3,59,106,33
3,55,106,15
3,59,112,384
3,55,100,83
3,57,112,177
3,50,101,127
3,60,101,192
3,59,96,379
3,57,104,4
3,55,99,114
3,54,96,170
3,52,84,184
3,52,96,103
3,51,104,192
3,51,101,47
3,47,102,3
3,59,100,193
3,57,100,96
3,55,89,68
3,54,89,0
3,55,100,47
3,59,104,217
3,59,112,51
3,55,106,5
3,59,104,10
3,55,102,12
3,57,110,180
3,50,93,2
3,60,101,76
3,59,99,18
3,57,98,96
3,55,90,175
3,54,96,179
3,52,90,189
3,52,101,118
3,51,99,192
3,51,99,21
3,47,104,7
3,59,104,264
3,57,98,96
3,55,98,2
3,54,98,96
3,55,104,66
3,59,104,192
3,59,101,53
3,55,104,22
3,59,101,384
3,55,104,81
3,57,104,11
3,59,104,3572
3,61,102,96
3,62,106,2
3,61,104,46
3,59,96,96
3,57,100,11
3,54,96,192
3,59,104,2
3,59,102,289
3,61,96,96
3,62,110,156
3,61,108,39
3,59,101,96
3,57,100,185
3,54,93,186
3,59,106,3
3,57,96,36
3,55,95,80
3,54,85,177
3,50,93,178
3,55,100,183
3,55,93,1
3,54,95,33
3,52,100,172
3,54,91,176
3,52,93,160
3,59,106,83
3,62,106,0
3,61,104,96
3,64,101,0
3,62,106,165
3,66,106,0
3,62,93,12
3,66,101,0
3,64,99,177
3,61,96,0
3,62,84,73
3,59,96,0
3,57,84,170
3,61,93,0
3,54,96,0
3,57,85,0
3,62,96,0
3,59,99,0
3,57,90,152
3,61,108,0
3,59,86,41
3,55,83,0
3,57,81,1
3,54,85,0
3,54,90,0
3,50,80,0
3,59,90,0
3,55,86,0
3,59,93,60
3,55,93,0
3,57,84,96
3,54,88,0
3,52,85,16
3,55,84,0
3,57,83,188
3,54,81,0
3,52,85,61
3,57,83,0
4,71,84,13094
4,69,79,111
4,67,73,71
4,66,82,96
4,67,82,1
4,71,82,236
4,71,91,67
4,67,82,283
4,71,79,382
4,67,68,2
4,69,87,28
4,62,53,543
4,62,62,57
4,72,76,33
4,71,64,384
4,69,69,84
4,67,64,0
4,66,55,14
4,64,68,177
4,64,68,151
4,63,67,210
4,61,66,356
4,63,58,99
4,59,68,178
4,71,82,784
4,69,67,95
4,67,62,75
4,66,71,80
4,67,66,102
4,71,79,277
4,71,82,74
4,67,68,3
4,71,66,379
4,67,68,3
4,69,84,42
4,62,79,589
4,72,73,190
4,71,66,360
4,69,69,83
4,67,52,127
4,66,73,202
4,64,64,4
4,64,66,109
4,63,64,201
4,61,63,339
4,63,60,98
4,59,62,3
4,71,82,820
4,73,69,96
4,74,76,21
4,74,50,28
4,66,57,419
4,73,61,36
4,71,63,95
4,69,61,180
4,66,61,193
4,71,61,23
4,71,84,715
4,73,68,110
4,74,66,19
4,74,51,86
4,74,55,408
4,73,62,12
4,71,58,102
4,69,55,188
4,66,62,190
4,71,66,11
4,69,64,267
4,67,67,103
4,66,66,155
4,62,61,6
4,67,62,178
4,67,42,387
4,67,79,61
4,66,56,95
4,64,55,207
4,66,58,181
4,64,64,180
4,64,57,40
4,59,68,1554
4,71,79,34
4,71,84,34
4,67,73,16
4,71,66,381
4,67,58,91
4,69,68,7
4,62,76,441
4,72,82,0
4,71,64,373
4,69,73,77
4,67,64,171
4,66,64,176
4,64,63,3
4,64,62,136
4,63,68,195
4,61,63,344
4,63,62,109
4,59,69,1
4,71,84,1096
4,69,73,85
4,67,66,84
4,66,79,89
4,67,69,84
4,71,76,241
4,71,84,70
4,67,69,4
4,71,82,1
4,67,64,98
4,69,82,5
4,62,62,539
4,62,71,63
4,72,82,54
4,71,68,360
4,69,76,87
4,67,68,196
4,66,79,181
4,64,68,277
4,64,71,139
4,63,64,204
4,61,63,359
4,63,56,1
4,59,48,200
4,71,84,1134
4,69,79,111
4,67,73,71
4,66,82,96
4,67,82,1
4,71,82,236
4,71,91,67
4,67,82,283
4,71,79,382
4,67,68,2
4,69,87,28
4,62,53,543
4,62,62,57
