track,note,velocity,time
0,57,70,1
0,47,70,0
0,62,70,1
0,54,70,0
0,37,102,23
0,37,102,197
0,62,70,4
0,59,70,0
0,40,70,0
0,55,70,1
0,71,95,22
0,74,95,22
0,37,102,0
0,78,95,40
0,57,70,1
0,52,70,0
0,61,70,0
0,45,70,0
0,76,87,4
0,73,111,9
0,69,67,13
0,37,102,1
0,57,70,88
0,62,70,1
0,47,70,0
0,54,70,0
0,74,99,3
0,66,71,0
0,59,71,1
0,74,71,0
0,69,71,0
0,71,98,36
0,74,91,43
0,37,102,0
0,37,102,194
0,37,102,197
0,37,102,196
0,62,70,0
0,57,70,0
0,54,70,0
0,47,70,1
0,59,71,0
0,37,102,104
0,37,102,99
0,59,70,5
0,55,70,1
0,52,70,0
0,52,71,3
0,71,83,53
0,74,95,26
0,37,102,0
0,78,79,40
0,74,83,36
0,78,95,36
0,74,55,31
0,37,102,0
0,76,75,30
0,45,70,1
0,64,70,0
0,57,70,0
0,61,70,1
0,57,71,3
0,37,102,100
0,37,102,34
0,54,70,5
0,62,70,1
0,50,70,0
0,57,70,0
0,62,71,3
0,37,102,93
0,37,102,13
0,47,70,88
0,59,71,1
0,37,102,100
0,37,102,197
0,59,70,0
0,55,70,1
0,52,70,0
0,52,71,3
0,37,102,96
0,37,102,197
0,45,70,88
0,57,70,1
0,64,70,0
0,61,70,0
0,57,71,0
0,37,102,88
0,37,102,9
0,50,70,2
0,57,70,0
0,54,70,0
0,62,70,0
0,62,71,4
0,37,102,104
0,37,102,197
0,47,70,1
0,59,71,0
0,37,102,104
0,37,102,197
0,55,70,36
0,59,70,1
0,52,70,0
0,52,71,1
0,37,102,91
0,37,102,197
0,45,70,2
0,57,70,0
0,64,70,0
0,61,70,1
0,57,71,3
0,37,102,97
0,37,102,1
0,57,70,4
0,50,70,0
0,62,70,1
0,54,70,0
0,64,70,0
0,62,71,3
0,37,102,105
0,37,102,197
0,47,70,11
0,59,71,4
0,37,102,93
0,37,102,196
0,59,70,1
0,55,70,1
0,52,70,0
0,52,71,3
0,37,102,87
0,37,102,197
0,45,70,1
0,57,70,0
0,64,70,1
0,61,70,0
0,57,71,0
0,37,102,105
0,37,102,5
0,57,70,89
0,64,70,0
0,62,70,0
0,50,70,1
0,54,70,0
0,62,71,1
0,37,102,105
0,37,102,22
0,59,70,9
0,54,70,0
0,42,70,1
0,61,70,0
0,54,71,1
0,78,73,44
0,78,77,41
0,37,102,0
0,78,69,89
0,78,81,35
0,37,102,40
0,58,70,2
0,37,102,108
0,37,102,197
0,59,70,14
0,56,70,0
0,78,81,56
0,78,73,35
0,37,102,0
0,78,77,89
0,78,77,40
0,37,102,39
0,58,70,1
0,108,50,0
0,37,102,53
0,107,50,0
0,108,50,54
0,37,102,54
0,105,50,0
0,62,70,0
0,54,70,0
0,47,70,1
0,57,70,0
0,59,71,1
0,108,50,0
0,107,50,1
0,37,99,1
0,105,50,1
0,107,50,1
0,108,50,1
0,37,95,53
0,103,50,0
0,59,70,6
0,55,70,0
0,52,70,0
0,52,71,3
0,108,50,0
0,71,88,1
0,74,95,27
0,37,91,0
0,107,50,0
0,78,79,1
0,74,83,36
0,108,50,1
0,78,95,1
0,74,83,31
0,37,91,1
0,105,50,0
0,76,75,1
0,45,70,1
0,64,70,1
0,57,70,0
0,61,70,0
0,57,71,2
0,101,50,1
0,103,50,1
0,37,91,1
0,105,50,1
0,107,50,1
0,108,50,1
0,37,91,35
0,96,50,0
0,57,70,5
0,54,70,0
0,62,70,0
0,50,70,1
0,62,71,3
0,37,91,93
0,37,87,13
0,47,70,88
0,59,71,0
0,37,95,102
0,37,95,197
0,55,70,0
0,59,70,1
0,52,70,0
0,52,71,4
0,71,63,44
0,74,99,22
0,37,91,1
0,78,95,40
0,74,83,40
0,78,111,40
0,74,95,30
0,37,95,1
0,76,99,36
0,45,70,33
0,57,70,1
0,64,70,0
0,61,70,1
0,57,71,1
0,37,91,88
0,37,87,9
0,50,70,1
0,57,70,1
0,54,70,0
0,62,70,1
0,62,71,2
0,37,91,105
0,37,91,197
0,47,70,1
0,59,71,1
0,37,87,105
0,37,87,197
0,59,70,36
0,55,70,0
0,52,70,1
0,52,71,2
0,71,55,40
0,74,91,27
0,37,95,0
0,78,91,39
0,74,83,36
0,78,99,37
0,74,91,36
0,37,87,0
0,76,107,40
0,45,70,2
0,57,70,0
0,64,70,0
0,61,70,0
0,57,71,3
0,37,87,96
0,37,91,0
0,57,70,5
0,50,70,0
0,54,70,1
0,62,70,0
0,64,70,0
0,62,71,3
0,37,87,105
0,37,91,197
0,47,70,10
0,59,71,4
0,37,87,92
0,37,87,197
0,59,70,1
0,52,70,0
0,55,70,0
0,52,71,4
0,71,67,35
0,74,91,31
0,37,95,0
0,78,99,36
0,74,91,35
0,78,95,40
0,74,71,36
0,37,87,0
0,76,91,36
0,45,70,0
0,57,70,0
0,64,70,0
0,61,70,1
0,57,71,1
0,37,95,105
0,37,87,4
0,64,70,89
0,62,70,1
0,50,70,0
0,57,70,0
0,54,70,0
0,62,71,1
0,37,91,105
0,37,91,22
0,59,70,9
0,54,70,0
0,42,70,1
0,61,70,0
0,54,71,1
0,78,81,44
0,78,85,40
0,37,91,0
0,78,81,88
0,78,77,36
0,37,87,39
0,78,89,40
0,58,70,1
0,78,81,4
0,78,77,92
0,37,83,0
0,78,73,36
0,37,91,145
0,56,70,0
0,59,70,0
0,78,73,56
0,78,73,40
0,37,87,1
0,78,73,92
0,78,73,36
0,37,91,36
0,78,73,39
0,58,70,1
0,78,69,1
0,78,69,93
0,37,91,1
0,78,73,36
0,37,102,149
0,35,127,1
0,54,69,0
0,57,69,0
0,62,69,0
0,47,69,0
0,71,107,0
0,36,127,0
0,49,63,0
0,59,127,1
0,35,127,40
0,73,107,1
0,61,127,0
0,55,69,1
0,59,69,0
0,43,69,0
0,62,69,1
0,74,95,0
0,62,127,0
0,44,75,5
0,36,107,1
0,73,107,9
0,61,127,0
0,38,115,0
0,40,110,1
0,74,71,5
0,62,127,0
0,33,122,0
0,57,69,0
0,52,69,1
0,45,69,0
0,61,69,0
0,76,107,0
0,64,127,0
0,30,127,0
0,61,69,0
0,54,69,0
0,42,69,1
0,57,69,0
0,73,107,0
0,61,127,0
0,37,102,26
0,28,118,0
0,59,69,0
0,55,69,0
0,62,69,1
0,40,69,0
0,71,100,0
0,36,127,0
0,28,127,26
0,83,101,1
0,36,127,0
0,83,77,27
0,37,102,0
0,90,127,26
0,83,105,27
0,83,77,27
0,90,127,27
0,37,102,0
0,83,109,27
0,83,77,26
0,90,127,26
0,83,105,26
0,37,102,1
0,83,85,27
0,90,127,27
0,83,109,27
0,83,89,27
0,37,102,1
0,90,127,26
0,35,127,0
0,57,69,0
0,62,69,0
0,54,69,1
0,47,69,0
0,71,107,0
0,36,127,0
0,49,63,1
0,59,127,0
0,35,127,39
0,73,107,0
0,61,127,1
0,55,69,1
0,62,69,0
0,43,69,1
0,59,69,0
0,74,95,0
0,62,127,0
0,44,75,4
0,36,107,2
0,61,127,10
0,73,107,0
0,38,115,1
0,40,110,0
0,74,71,5
0,62,127,0
0,33,122,18
0,61,69,0
0,57,69,1
0,52,69,0
0,45,69,0
0,76,107,1
0,64,127,0
0,30,127,1
0,57,69,0
0,42,69,0
0,61,69,1
0,54,69,0
0,73,107,0
0,61,127,0
0,37,102,28
0,28,118,0
0,40,69,1
0,59,69,0
0,55,69,0
0,62,69,0
0,71,100,1
0,36,127,0
0,28,127,27
0,83,101,0
0,36,127,1
0,83,77,26
0,37,102,1
0,90,127,27
0,83,105,26
0,83,77,27
0,90,127,27
0,37,102,0
0,83,109,27
0,83,77,27
0,90,127,26
0,83,105,27
0,37,102,0
0,83,85,26
0,90,127,26
0,83,109,27
0,83,89,27
0,37,102,1
0,90,127,27
0,30,127,0
0,30,69,0
0,54,69,0
0,61,69,0
0,59,69,1
0,42,69,0
0,30,69,0
0,54,97,0
0,54,57,27
0,54,89,26
0,37,102,1
0,54,77,27
0,54,89,27
0,54,89,26
0,54,89,27
0,37,102,0
0,54,77,26
0,54,69,27
0,54,61,27
0,54,53,27
0,37,102,0
0,54,61,27
0,54,53,26
0,54,45,27
0,54,49,27
0,37,95,1
0,54,45,27
0,57,70,0
0,47,70,0
0,62,70,1
0,54,70,0
0,37,102,24
0,37,102,197
0,59,70,4
0,40,70,0
0,55,70,0
0,62,70,1
0,71,74,22
0,74,74,22
0,37,102,1
0,78,74,40
0,52,70,36
0,57,70,0
0,61,70,0
0,45,70,0
0,76,66,4
0,73,90,10
0,69,46,14
0,37,102,0
0,57,70,87
0,62,70,1
0,47,70,0
0,54,70,0
0,59,75,0
0,66,75,0
0,74,75,1
0,69,75,0
0,74,78,2
0,71,46,36
0,74,70,39
0,37,102,1
0,37,102,194
0,37,102,197
0,37,102,197
0,62,70,1
0,47,70,0
0,57,70,0
0,54,70,0
0,59,75,0
0,37,99,108
0,37,95,98
0,55,70,10
0,59,70,0
0,52,70,0
0,52,75,0
0,71,34,57
0,74,74,27
0,37,91,0
0,78,58,39
0,74,62,36
0,78,74,36
0,74,34,31
0,37,91,0
0,76,54,32
0,45,70,4
0,64,70,0
0,57,70,0
0,61,70,0
0,57,75,1
0,37,91,99
0,37,91,35
0,50,70,5
0,62,70,1
0,57,70,1
0,54,70,0
0,62,75,0
0,37,91,97
0,37,87,13
0,47,70,88
0,59,75,0
0,37,95,106
0,37,95,197
0,55,70,0
0,59,70,1
0,52,70,0
0,52,75,0
0,71,42,44
0,74,78,22
0,37,91,1
0,78,74,40
0,74,62,40
0,78,90,40
0,74,74,30
0,37,95,0
0,76,78,40
0,45,70,1
0,57,70,0
0,64,70,0
0,61,70,0
0,57,75,0
0,37,91,89
0,37,87,9
0,50,70,5
0,54,70,1
0,62,70,0
0,57,70,0
0,62,75,0
0,37,91,108
0,37,91,197
0,47,70,1
0,59,75,0
0,37,87,109
0,37,87,197
0,55,70,2
0,59,70,0
0,52,70,0
0,52,75,0
0,71,34,38
0,74,70,27
0,37,95,0
0,78,70,39
0,74,62,36
0,78,78,37
0,74,70,36
0,37,87,0
0,76,86,39
0,45,70,1
0,57,70,0
0,61,70,1
0,64,70,0
0,57,75,0
0,37,87,100
0,37,91,0
0,57,70,7
0,62,70,1
0,54,70,0
0,50,70,0
0,64,70,0
0,62,75,0
0,37,87,105
0,37,91,198
0,47,70,9
0,59,75,0
0,37,87,96
0,37,87,197
0,59,70,5
0,52,70,0
0,55,70,1
0,52,75,0
0,71,46,35
0,74,70,30
0,37,95,1
0,78,78,37
0,74,70,35
0,78,74,40
0,74,50,35
0,37,87,0
0,76,70,35
0,45,70,1
0,57,70,0
0,64,70,0
0,61,70,0
0,57,75,1
0,37,95,108
0,37,87,6
0,64,70,1
0,62,70,0
0,50,70,0
0,57,70,1
0,54,70,0
0,62,75,0
0,37,91,107
0,37,91,22
0,54,70,0
0,59,70,0
0,61,70,1
0,42,70,0
0,54,75,0
0,90,86,55
0,90,86,27
0,37,91,0
0,90,86,79
0,90,86,27
0,37,87,26
0,90,86,40
0,58,70,1
0,90,86,4
0,90,86,79
0,37,83,0
0,90,86,26
0,37,91,132
0,59,70,0
0,56,70,1
0,90,86,56
0,90,86,27
0,37,87,0
0,90,86,79
0,90,86,27
0,37,91,27
0,90,86,40
0,58,70,1
0,90,86,4
0,90,86,79
0,37,91,0
0,90,86,26
0,37,102,130
0,62,70,1
0,47,70,0
0,57,70,0
0,54,70,0
0,59,75,0
0,59,112,1
0,59,100,36
0,59,96,35
0,37,102,1
0,59,100,36
0,59,100,14
0,59,96,35
0,59,104,36
0,37,102,0
0,59,84,35
0,59,70,9
0,55,70,1
0,52,70,0
0,52,75,1
0,59,104,3
0,71,34,35
0,59,88,0
0,74,74,27
0,59,100,0
0,37,102,1
0,78,58,35
0,59,92,0
0,74,62,35
0,59,100,1
0,78,74,36
0,59,96,0
0,74,34,31
0,59,96,1
0,37,102,0
0,76,54,31
0,59,100,0
0,45,70,5
0,64,70,0
0,57,70,0
0,61,70,1
0,57,75,0
0,57,112,3
0,57,88,36
0,57,116,36
0,37,102,0
0,57,108,36
0,57,104,18
0,57,96,5
0,57,104,36
0,37,102,0
0,57,100,35
0,50,70,5
0,62,70,0
0,57,70,0
0,54,70,1
0,62,75,0
0,76,38,4
0,62,104,0
0,62,96,36
0,62,100,35
0,37,102,1
0,74,38,1
0,62,100,0
0,62,104,35
0,62,92,36
0,73,42,0
0,62,104,0
0,37,102,0
0,62,96,35
0,47,70,1
0,59,75,0
0,71,42,1
0,59,104,1
0,59,96,35
0,59,104,36
0,37,102,1
0,59,92,35
0,59,100,27
0,59,100,35
0,59,104,35
0,37,102,1
0,59,84,36
0,55,70,0
0,59,70,1
0,52,70,0
0,52,75,0
0,59,108,3
0,71,78,36
0,59,80,0
0,74,90,31
0,59,104,0
0,37,102,1
0,78,78,35
0,59,96,0
0,74,62,35
0,59,104,0
0,78,82,35
0,59,104,1
0,74,62,31
0,59,108,0
0,37,102,0
0,76,82,35
0,59,104,0
0,45,70,31
0,57,70,1
0,61,70,0
0,64,70,0
0,57,75,0
0,57,104,0
0,57,104,36
0,57,108,36
0,37,102,0
0,57,76,36
0,57,100,35
0,57,108,36
0,57,104,9
0,37,102,0
0,57,108,36
0,50,70,6
0,57,70,0
0,54,70,0
0,62,70,0
0,62,75,1
0,50,22,3
0,62,108,0
0,62,92,35
0,62,100,36
0,37,102,0
0,62,100,35
0,62,92,36
0,62,96,35
0,62,108,36
0,37,102,0
0,62,88,31
0,47,70,1
0,59,75,0
0,59,104,4
0,59,92,36
0,59,100,35
0,37,102,1
0,59,96,36
0,59,96,36
0,59,96,36
0,59,108,35
0,37,102,1
0,59,84,35
0,59,70,0
0,55,70,0
0,52,70,1
0,52,75,0
0,59,100,3
0,71,82,35
0,59,88,1
0,74,86,31
0,59,104,0
0,37,102,1
0,78,86,35
0,59,100,0
0,74,82,36
0,59,96,0
0,78,90,35
0,59,100,0
0,74,74,35
0,59,108,0
0,37,102,1
0,76,74,36
0,59,100,0
0,45,70,0
0,57,70,0
0,61,70,1
0,64,70,0
0,57,75,0
0,57,112,3
0,57,100,36
0,57,112,35
0,37,102,0
0,57,92,35
0,57,88,13
0,57,92,35
0,57,108,1
0,37,102,0
0,57,100,35
0,57,70,5
0,50,70,0
0,54,70,1
0,64,70,0
0,62,70,0
0,62,75,0
0,62,100,4
0,62,88,35
0,62,108,35
0,37,102,1
0,62,92,36
0,62,96,35
0,62,96,36
0,62,108,35
0,37,102,0
0,62,96,36
0,47,70,10
0,59,75,0
0,59,108,4
0,59,80,35
0,59,100,36
0,37,102,0
0,59,88,35
0,59,88,36
0,59,100,35
0,59,104,35
0,37,102,1
0,59,88,36
0,59,70,1
0,52,70,1
0,55,70,0
0,52,75,0
0,59,100,3
0,71,58,36
0,59,96,1
0,74,50,27
0,59,104,1
0,37,102,0
0,78,74,36
0,59,96,1
0,74,70,34
0,59,88,1
0,78,78,35
0,59,92,1
0,74,70,35
0,59,104,0
0,37,102,1
0,76,66,30
0,59,96,0
0,45,70,1
0,57,70,0
0,64,70,0
0,61,70,1
0,57,75,0
0,57,100,3
0,57,104,35
0,57,108,36
0,37,102,0
0,57,60,35
0,57,96,35
0,57,100,1
0,57,108,5
0,37,102,1
0,57,84,36
0,64,70,1
0,62,70,0
0,50,70,0
0,57,70,1
0,54,70,0
0,62,75,0
0,62,104,3
0,62,84,36
0,62,104,35
0,37,102,0
0,62,96,35
0,62,96,36
0,62,96,5
0,62,104,23
0,37,102,0
0,62,96,14
0,54,70,10
0,59,70,0
0,61,70,0
0,42,70,1
0,54,75,0
0,54,92,44
0,66,52,0
0,66,112,35
0,37,102,1
0,66,64,36
0,66,88,35
0,66,116,36
0,66,52,35
0,37,102,0
0,66,72,36
0,58,70,3
0,66,116,1
0,66,52,35
0,66,80,37
0,37,102,0
0,66,116,35
0,66,60,36
