track,note,velocity,time
4,38,114,324
4,38,107,59
4,38,117,193
4,38,119,99
4,38,104,141
4,34,109,44
4,34,109,47
4,34,109,195
4,34,109,105
4,34,110,150
4,33,114,55
4,33,115,60
4,33,113,201
4,33,117,103
4,33,117,156
4,31,110,59
4,31,112,54
4,31,111,201
4,31,112,103
4,33,113,143
4,38,108,59
4,38,110,54
4,38,107,195
4,38,110,110
4,38,110,149
4,34,102,60
4,34,108,58
4,34,110,202
4,34,110,105
4,34,110,155
4,33,104,61
4,33,109,58
4,33,112,199
4,33,117,107
4,33,116,155
4,31,105,61
4,31,105,55
4,31,110,197
4,31,110,105
4,33,117,152
4,38,117,58
4,38,119,54
4,36,120,194
4,36,121,94
4,36,118,142
4,38,117,57
4,38,119,58
4,40,123,200
4,40,119,99
4,40,122,148
4,38,115,60
4,38,117,52
4,36,99,199
4,36,115,109
4,36,119,145
4,38,113,60
4,38,116,58
4,40,115,202
4,40,115,98
4,40,118,156
4,38,114,68
4,38,107,60
4,38,117,193
4,38,119,98
4,38,104,142
4,34,109,44
4,34,109,49
4,34,109,195
4,34,109,105
4,34,110,151
4,33,114,55
4,33,115,60
4,33,113,201
4,33,117,104
4,33,117,156
4,31,110,60
4,31,112,55
4,31,111,201
4,31,112,103
4,33,113,143
4,38,108,60
4,38,110,55
4,38,107,195
4,38,110,110
4,38,110,150
4,34,102,60
4,34,108,58
4,34,110,203
4,34,110,105
4,34,110,156
4,33,104,63
4,33,109,60
4,33,112,199
4,33,117,107
4,33,116,155
4,31,105,61
4,31,105,56
4,31,110,204
4,31,110,105
4,33,117,153
4,38,117,58
4,38,119,55
4,36,120,194
4,36,121,94
4,36,118,142
4,38,117,58
4,38,119,59
4,40,123,201
4,40,119,100
4,40,122,149
4,38,115,61
4,38,117,53
4,36,99,200
4,36,115,109
4,36,119,146
4,38,113,60
4,38,116,58
4,40,115,203
4,40,115,97
4,40,118,157
4,38,114,68
4,38,107,60
4,38,117,199
4,38,119,99
4,38,104,142
4,34,109,45
4,34,109,49
4,34,109,196
4,34,109,105
4,34,110,152
4,33,114,56
4,33,115,61
4,33,113,202
4,33,117,103
4,33,117,157
4,31,110,60
4,31,112,55
4,31,111,202
4,31,112,102
4,33,113,144
4,38,108,60
4,38,110,55
4,38,107,196
4,38,110,111
4,38,110,151
4,34,102,60
4,34,108,58
4,34,110,203
4,34,110,106
4,34,110,157
4,33,104,62
4,33,109,58
4,33,112,199
4,33,117,108
4,33,116,156
4,31,105,62
4,31,105,55
4,31,110,198
4,31,110,106
4,33,117,153
4,38,117,59
4,38,119,55
4,36,120,194
4,36,121,96
4,36,118,143
4,38,117,57
4,38,119,58
4,40,123,200
4,40,119,100
4,40,122,149
4,38,115,60
4,38,117,52
4,36,99,199
4,36,115,110
4,36,119,146
4,38,113,59
4,38,116,57
4,40,115,203
4,40,115,99
4,40,118,157
4,33,92,76
4,29,119,1146
4,29,119,48
4,29,118,176
4,29,119,91
4,34,111,237
4,34,110,47
4,34,111,178
4,34,111,94
4,36,117,241
4,36,121,48
4,36,115,183
4,36,117,100
4,33,119,244
4,33,119,46
4,33,119,190
4,33,121,96
4,29,112,242
4,29,112,48
4,29,113,191
4,29,113,97
4,34,109,245
4,34,103,52
4,34,108,195
4,34,110,99
4,36,117,248
4,36,116,48
4,36,113,192
4,36,115,99
4,33,115,245
4,33,115,54
4,33,118,197
4,33,118,104
4,29,106,250
4,29,110,47
4,29,113,191
4,29,112,96
4,34,103,246
4,34,104,48
4,34,105,192
4,34,109,101
4,36,115,241
4,36,115,54
4,36,119,198
4,36,115,99
4,33,117,252
4,33,119,53
4,33,118,195
4,33,119,106
4,38,106,243
4,38,103,54
4,36,120,198
4,36,121,95
4,36,118,143
4,38,117,57
4,38,119,58
4,40,123,200
4,40,119,100
4,40,122,149
4,38,115,60
4,38,117,52
4,36,99,199
4,36,115,110
4,36,119,146
4,38,113,60
4,38,116,58
4,40,115,203
4,40,115,99
4,40,118,157
4,38,119,68
4,34,109,23
4,34,109,48
4,34,109,195
4,34,109,107
4,34,110,152
4,33,114,56
4,33,115,60
4,33,113,202
4,33,117,103
4,33,117,156
4,31,110,60
4,31,112,54
4,31,111,202
4,31,112,103
4,33,113,143
4,38,108,60
4,38,110,54
4,38,107,196
4,38,110,111
4,38,110,150
4,34,109,60
4,34,109,48
4,34,109,196
4,34,109,107
4,34,110,152
4,33,114,56
4,33,115,61
4,33,113,201
4,33,117,104
4,33,117,156
4,31,110,60
4,31,112,55
4,31,111,201
4,31,112,104
4,33,113,144
4,38,108,60
4,38,110,55
4,38,107,196
4,38,110,111
4,38,110,149
4,34,109,60
4,34,109,49
4,34,109,196
4,34,109,105
4,34,110,151
4,33,114,56
4,33,115,61
4,33,113,202
4,33,117,103
4,33,117,156
4,31,110,61
4,31,112,55
4,31,111,203
4,31,112,105
4,33,113,143
4,38,117,61
4,38,119,55
4,36,120,196
4,36,121,94
4,36,118,143
4,38,117,58
4,38,119,59
4,40,123,201
4,40,119,101
4,40,122,149
4,38,115,61
4,38,117,53
4,36,99,200
4,36,115,109
4,36,119,146
4,38,113,60
4,38,116,58
4,40,115,202
4,40,115,99
4,40,118,158
4,33,92,69
4,29,119,6
4,29,119,49
4,29,118,175
4,29,119,92
4,34,111,237
4,34,110,47
4,34,111,178
4,34,111,94
4,36,117,241
4,36,121,48
4,36,115,182
4,36,117,100
4,33,119,243
4,33,119,46
4,33,119,189
4,33,121,96
4,29,119,242
4,29,119,49
4,29,118,175
4,29,119,92
4,34,111,237
4,34,110,47
4,34,111,178
4,34,111,94
4,36,117,241
4,36,121,48
4,36,115,182
4,36,117,100
4,33,119,243
4,33,119,46
4,33,119,190
4,33,121,96
4,29,119,242
4,29,119,49
4,29,118,176
4,29,119,92
4,34,111,237
4,34,110,47
4,34,111,178
4,34,111,94
4,36,117,242
4,36,121,48
4,36,115,184
4,36,117,100
4,33,119,244
4,33,119,46
4,33,119,190
4,33,121,96
4,29,119,242
4,29,119,50
4,29,118,176
4,29,119,92
4,34,111,237
4,34,110,48
4,34,111,178
4,34,111,94
4,36,117,241
4,36,121,48
4,36,115,184
4,36,117,100
4,33,119,243
4,33,119,46
4,33,119,190
4,33,121,96
4,29,119,242
4,29,119,50
4,29,118,176
4,29,119,93
4,34,111,237
4,34,110,48
4,34,111,178
4,34,111,94
4,36,117,242
4,36,121,48
4,36,115,184
4,36,117,100
4,33,119,244
4,33,119,46
4,33,119,190
4,33,121,96
4,29,119,242
4,29,119,48
4,29,118,175
4,29,119,92
4,34,111,236
4,34,110,47
4,34,111,177
4,34,111,94
4,36,117,240
4,36,121,47
4,36,115,182
4,36,117,99
4,33,119,242
4,33,119,45
4,33,119,189
4,33,121,94
4,29,126,238
5,65,55,116
5,62,60,0
5,57,61,15
5,62,57,14
5,65,60,30
5,62,63,0
5,57,57,22
5,57,55,160
5,62,67,28
5,65,61,0
5,62,68,118
5,65,59,1
5,65,59,167
5,62,66,0
5,53,53,11
5,57,63,13
5,62,60,22
5,65,61,0
5,57,58,22
5,58,54,115
5,57,57,25
5,62,63,23
5,65,57,0
5,62,66,122
5,65,59,0
5,64,57,166
5,60,60,0
5,55,58,15
5,57,62,9
5,60,63,21
5,64,50,0
5,57,58,22
5,57,64,115
5,55,56,28
5,60,65,26
5,64,52,0
5,64,61,122
5,60,66,0
5,62,63,166
5,58,53,0
5,53,59,15
5,55,63,13
5,58,60,21
5,62,60,0
5,55,56,18
5,55,52,117
5,53,51,23
5,58,64,29
5,62,64,0
5,64,60,113
5,60,66,0
5,55,54,0
5,65,58,166
5,62,60,0
5,57,52,22
5,62,62,13
5,65,61,23
5,62,70,0
5,57,63,20
5,57,59,162
5,62,66,24
5,65,59,0
5,65,61,116
5,62,67,0
5,65,59,167
5,62,63,0
5,53,61,14
5,57,66,19
5,62,64,19
5,65,58,0
5,57,60,22
5,58,62,117
5,57,60,25
5,62,66,22
5,65,59,0
5,62,66,120
5,65,60,0
5,64,59,167
5,60,54,0
5,55,54,15
5,57,60,10
5,60,68,21
5,64,56,0
5,55,62,22
5,57,58,114
5,55,61,22
5,60,66,26
5,64,56,0
5,64,60,118
5,60,68,0
5,62,63,164
5,58,64,0
5,53,56,12
5,55,60,11
5,58,65,28
5,62,59,0
5,55,55,164
5,53,55,27
5,58,63,31
5,62,63,0
5,64,59,114
5,60,64,0
5,55,50,0
5,62,66,71
5,57,60,0
5,53,56,1
5,65,66,112
5,62,64,0
5,57,60,9
5,57,49,65
5,55,63,21
5,64,57,69
5,60,59,0
5,55,56,19
5,60,58,63
5,64,53,0
5,55,56,22
5,62,63,206
5,65,52,0
5,57,55,14
5,62,59,60
5,65,56,0
5,57,55,23
5,57,42,22
5,60,56,70
5,64,58,0
5,55,56,20
5,64,56,49
5,60,63,0
5,55,57,21
5,55,40,61
5,62,64,120
5,65,57,0
5,57,56,17
5,62,61,68
5,65,55,0
5,57,58,16
5,57,44,21
5,60,60,70
5,64,57,0
5,55,57,18
5,64,57,46
5,60,60,0
5,55,57,22
5,55,42,63
5,65,58,116
5,62,63,0
5,57,55,19
5,62,63,64
5,65,60,0
5,57,59,20
5,57,42,18
5,60,58,65
5,64,58,0
5,55,50,17
5,64,56,70
5,60,60,0
5,65,55,260
5,62,60,1
5,57,61,16
5,62,57,15
5,65,60,30
5,62,63,0
5,57,57,22
5,57,55,161
5,62,67,28
5,65,61,0
5,62,68,119
5,65,59,0
5,65,59,168
5,62,66,0
5,53,53,11
5,57,63,14
5,62,60,22
5,65,61,0
5,57,58,23
5,58,54,117
5,57,57,26
5,62,63,23
5,65,57,1
5,62,66,123
5,65,59,0
5,64,57,166
5,60,60,1
5,55,58,15
5,57,62,10
5,60,63,21
5,64,50,6
5,57,58,23
5,57,64,116
5,55,56,28
5,60,65,27
5,64,52,0
5,64,61,124
5,60,66,0
5,62,63,167
5,58,53,1
5,53,59,15
5,55,63,15
5,58,60,21
5,62,60,0
5,55,56,18
5,55,52,118
5,53,51,24
5,58,64,28
5,62,64,1
5,64,60,114
5,60,66,0
5,55,54,0
5,65,58,168
5,62,60,0
5,57,52,23
5,62,62,14
5,65,61,23
5,62,70,0
5,57,63,21
5,57,59,163
5,62,66,25
5,65,59,0
5,65,61,117
5,62,67,0
5,65,59,167
5,62,63,1
5,53,61,18
5,57,66,20
5,62,64,19
5,65,58,0
5,57,60,23
5,58,62,118
5,57,60,26
5,62,66,22
5,65,59,1
5,62,66,120
5,65,60,0
5,64,59,167
5,60,54,1
5,55,54,14
5,57,60,11
5,60,68,21
5,64,56,0
5,55,62,23
5,57,58,114
5,55,61,24
5,60,66,27
5,64,56,0
5,64,60,119
5,60,68,0
5,62,63,164
5,58,64,1
5,53,56,12
5,55,60,13
5,58,65,28
5,62,59,0
5,55,55,165
5,53,55,28
5,58,63,31
5,62,63,1
5,64,59,115
5,60,64,1
5,55,50,0
5,62,66,73
5,57,60,0
5,53,56,1
5,65,66,111
5,62,64,0
5,57,60,11
5,57,49,67
5,55,63,23
5,64,57,69
5,60,59,1
5,55,56,18
5,60,58,63
5,64,53,0
5,55,56,21
5,62,63,207
5,65,52,0
5,57,55,13
5,62,59,61
5,65,56,0
5,57,55,23
5,57,42,23
5,60,56,70
5,64,58,0
5,55,56,21
5,64,56,50
5,60,63,1
5,55,57,20
5,55,40,62
5,62,64,121
5,65,57,0
5,57,56,18
5,62,61,68
5,65,55,0
5,57,58,17
5,57,44,23
5,60,60,70
5,64,57,1
5,55,57,19
5,64,57,47
5,60,60,1
5,55,57,21
5,55,42,63
5,65,58,117
5,62,63,0
5,57,55,18
5,62,63,65
5,65,60,0
5,57,59,21
5,57,42,19
5,60,58,66
5,64,58,0
5,55,50,18
5,64,56,69
5,60,60,1
5,65,55,261
5,62,60,1
5,57,61,15
5,62,57,14
5,65,60,31
5,62,63,0
5,57,57,22
5,57,55,161
5,62,67,27
5,65,61,1
5,62,68,120
5,65,59,0
5,65,59,168
5,62,66,0
5,53,53,12
5,57,63,13
5,62,60,22
5,65,61,1
5,57,58,23
5,58,54,117
5,57,57,27
5,62,63,23
5,65,57,0
5,62,66,124
5,65,59,0
5,64,57,167
5,60,60,0
5,55,58,16
5,57,62,9
5,60,63,22
5,64,50,1
5,57,58,23
5,57,64,115
5,55,56,28
5,60,65,27
5,64,52,0
5,64,61,124
5,60,66,1
5,62,63,167
5,58,53,0
5,53,59,16
5,55,63,14
5,58,60,21
5,62,60,1
5,55,56,19
5,55,52,118
5,53,51,23
5,58,64,29
5,62,64,0
5,64,60,115
5,60,66,1
5,55,54,0
5,65,58,167
5,62,60,0
5,57,52,24
5,62,62,13
5,65,61,23
5,62,70,1
5,57,63,21
5,57,59,163
5,62,66,24
5,65,59,1
5,65,61,117
5,62,67,1
5,65,59,168
5,62,63,0
5,53,61,13
5,57,66,20
5,62,64,19
5,65,58,1
5,57,60,22
5,58,62,118
5,57,60,26
5,62,66,22
5,65,59,1
5,62,66,121
5,65,60,1
5,64,59,168
5,60,54,0
5,55,54,15
5,57,60,10
5,60,68,21
5,64,56,0
5,55,62,22
5,57,58,114
5,55,61,24
5,60,66,26
5,64,56,1
5,64,60,119
5,60,68,1
5,62,63,165
5,58,64,0
5,53,56,12
5,55,60,11
5,58,65,28
5,62,59,1
5,55,55,164
5,53,55,28
5,58,63,31
5,62,63,0
5,64,59,115
5,60,64,0
5,55,50,1
5,62,66,72
5,57,60,0
5,53,56,0
5,65,66,111
5,62,64,1
5,57,60,10
5,57,49,67
5,55,63,22
5,64,57,70
5,60,59,0
5,55,56,19
5,60,58,64
5,64,53,0
5,55,56,22
5,62,63,207
5,65,52,0
5,57,55,14
5,62,59,60
5,65,56,1
5,57,55,23
5,57,42,23
5,60,56,70
5,64,58,1
5,55,56,21
5,64,56,50
5,60,63,0
5,55,57,21
5,55,40,61
5,62,64,121
5,65,57,0
5,57,56,18
5,62,61,68
5,65,55,0
5,57,58,17
5,57,44,22
5,60,60,70
5,64,57,0
5,55,57,20
5,64,57,48
5,60,60,0
5,55,57,22
5,55,42,63
5,65,58,117
5,62,63,0
5,57,55,17
5,62,63,64
5,65,60,0
5,57,59,20
5,57,42,19
5,60,58,66
5,64,58,0
5,55,50,20
5,64,56,70
5,60,60,0
5,55,55,20
5,67,66,265
5,64,64,0
5,60,47,68
5,67,60,24
5,64,61,2
5,69,66,207
5,65,63,2
5,62,43,66
5,69,61,23
5,65,65,2
5,69,64,207
5,65,64,2
5,62,59,59
5,69,67,19
5,65,66,1
5,65,56,154
5,69,47,0
5,60,50,6
5,69,49,61
5,65,53,0
5,60,48,7
5,69,55,247
5,65,61,1
5,60,58,5
5,65,56,189
5,62,57,0
5,58,52,7
5,65,52,58
5,62,58,0
5,58,56,10
5,58,56,158
5,65,55,63
5,62,61,0
5,58,54,2
5,64,60,201
5,67,56,0
5,60,50,7
5,64,55,57
5,67,51,0
5,60,53,18
5,60,50,157
5,64,57,68
5,67,54,0
5,60,56,7
5,64,51,207
5,60,54,0
5,57,54,13
5,64,54,59
5,60,56,0
5,57,55,3
5,57,52,152
5,64,55,62
5,60,54,0
5,57,54,3
5,69,58,198
5,65,57,0
5,60,48,12
5,69,53,63
5,65,53,0
5,60,53,7
5,60,51,156
5,65,59,62
5,69,54,1
5,60,56,5
5,65,57,204
5,62,58,0
5,58,49,12
5,65,57,59
5,62,57,1
5,58,56,10
5,58,55,158
5,65,53,65
5,62,60,0
5,58,56,4
5,64,60,199
5,67,58,0
5,60,52,8
5,67,57,56
5,64,59,1
5,60,55,8
5,60,55,157
5,67,54,63
5,64,55,0
5,60,55,11
5,64,55,207
5,60,52,0
5,57,50,14
5,64,54,55
5,60,50,1
5,57,60,9
5,57,57,157
5,64,53,63
5,60,49,0
5,57,56,8
5,65,46,203
5,69,45,0
5,60,51,9
5,69,50,57
5,65,54,1
5,60,53,3
5,60,53,149
5,69,55,58
5,65,57,0
5,60,43,4
5,65,56,203
