track,note,velocity,time
0,57,66,24
0,62,60,0
0,69,50,0
0,36,126,0
0,49,98,0
0,38,77,0
0,38,0,22
0,69,0,2
0,57,0,2
0,62,0,2
0,57,52,20
0,62,48,0
0,69,22,0
0,38,59,0
0,38,0,18
0,36,0,0
0,69,0,0
0,57,0,14
0,62,0,0
0,38,57,16
0,63,90,2
0,38,0,18
0,63,0,8
0,71,76,18
0,66,78,2
0,38,41,0
0,62,56,4
0,38,0,18
0,71,0,2
0,62,0,0
0,66,0,2
0,57,68,22
0,62,62,0
0,38,127,0
0,40,117,0
0,38,63,0
0,60,66,2
0,62,84,0
0,60,0,16
0,62,0,2
0,38,0,2
0,62,0,10
0,57,0,2
0,71,80,10
0,71,76,2
0,66,76,2
0,66,78,0
0,69,26,0
0,38,59,0
0,62,50,2
0,62,56,2
0,38,0,2
0,40,0,2
0,38,0,10
0,69,0,0
0,71,0,4
0,62,0,0
0,66,0,0
0,71,0,2
0,62,0,0
0,66,0,2
0,69,52,22
0,64,66,0
0,38,77,0
0,64,0,22
0,69,0,0
0,38,0,2
0,71,80,20
0,55,26,2
0,62,68,2
0,66,76,0
0,69,38,0
0,36,116,0
0,64,78,0
0,38,41,0
0,62,50,2
0,66,62,2
0,71,53,2
0,36,0,6
0,62,0,10
0,71,0,0
0,38,0,0
0,69,0,0
0,66,0,0
0,64,0,12
0,69,38,14
0,36,126,0
0,38,77,0
0,69,0,24
0,38,0,2
0,55,26,20
0,63,44,0
0,55,49,2
0,57,49,0
0,62,65,0
0,62,68,0
0,69,24,0
0,38,59,0
0,66,62,4
0,71,53,2
0,63,0,12
0,69,0,2
0,57,0,4
0,36,0,0
0,55,0,0
0,38,0,0
0,62,0,2
0,63,78,20
0,38,61,2
0,62,92,2
0,63,0,16
0,62,0,2
0,38,0,2
0,61,72,26
0,38,54,0
0,61,0,18
0,49,0,2
0,38,0,2
0,38,127,26
0,40,117,0
0,38,77,0
0,38,0,24
0,47,72,24
0,54,62,0
0,69,22,0
0,38,41,0
0,69,0,16
0,38,0,6
0,69,52,26
0,38,77,0
0,40,0,10
0,38,0,2
0,69,0,10
0,38,0,4
0,71,0,2
0,61,56,2
0,52,50,2
0,54,42,0
0,59,69,0
0,69,30,0
0,38,55,0
0,61,0,4
0,69,0,2
0,59,0,2
0,38,0,0
0,52,0,2
0,54,0,0
0,62,0,4
0,54,0,0
0,47,0,2
0,66,0,2
0,55,0,2
0,40,61,6
0,47,61,0
0,69,58,0
0,36,126,0
0,38,77,0
0,69,0,20
0,38,0,4
0,40,0,2
0,47,0,4
0,71,0,6
0,40,64,10
0,47,64,0
0,69,16,0
0,38,43,0
0,69,0,8
0,36,0,8
0,38,0,6
0,40,0,6
0,62,0,4
0,66,0,4
0,47,0,4
0,55,0,2
0,52,52,6
0,54,48,0
0,59,66,0
0,38,55,0
0,63,90,2
0,38,0,22
0,54,0,2
0,63,0,0
0,52,0,2
0,59,0,2
0,40,58,18
0,47,52,0
0,66,97,0
0,38,59,0
0,64,97,2
0,59,97,2
0,59,0,8
0,66,0,6
0,64,0,0
0,38,0,4
0,40,0,2
0,47,0,10
0,38,126,12
0,40,116,0
0,60,84,0
0,62,92,0
0,38,63,0
0,38,0,24
0,60,0,0
0,62,0,0
0,52,8,26
0,54,16,0
0,59,12,0
0,66,97,0
0,66,80,0
0,69,34,0
0,38,55,0
0,64,97,2
0,64,80,0
0,59,97,2
0,59,80,0
0,59,0,6
0,59,0,2
0,66,0,4
0,69,0,2
0,64,0,0
0,64,0,0
0,66,0,0
0,38,0,2
0,54,0,4
0,59,0,4
0,52,0,2
0,40,0,10
0,38,0,0
0,40,48,8
0,47,32,0
0,69,58,0
0,38,77,0
0,62,58,2
0,64,66,0
0,64,0,18
0,69,0,0
0,62,0,0
0,38,0,2
0,52,16,22
0,52,6,4
0,54,22,0
0,59,24,0
0,66,85,0
0,69,24,0
0,36,113,0
0,38,39,0
0,40,0,2
0,59,91,0
0,64,85,0
0,64,84,0
0,59,85,2
0,62,70,0
0,64,81,4
0,59,0,2
0,66,40,4
0,66,0,2
0,64,0,2
0,69,0,0
0,36,0,2
0,38,0,0
0,47,0,4
0,64,0,2
0,62,0,0
0,54,0,4
0,52,0,6
0,59,0,0
0,69,56,12
0,36,126,0
0,38,77,0
0,69,0,22
0,38,0,2
0,52,16,20
0,69,16,4
0,38,55,0
0,59,91,2
0,64,81,6
0,66,40,6
0,36,0,2
0,69,0,2
0,38,0,4
0,52,32,26
0,54,26,0
0,59,40,0
0,38,61,0
0,59,0,20
0,54,0,0
0,52,0,4
0,38,0,0
0,63,78,24
0,62,66,0
0,38,39,0
0,60,88,6
0,38,0,16
0,60,0,2
0,63,0,2
0,62,0,2
0,38,126,20
0,40,116,0
0,38,63,0
0,38,0,20
0,52,34,28
0,54,36,0
0,59,58,0
0,38,86,0
0,45,86,0
0,69,34,0
0,62,62,0
0,63,66,0
0,38,55,0
0,60,68,2
0,69,0,14
0,38,0,4
0,54,0,2
0,52,0,2
0,59,0,0
0,52,0,0
0,62,0,10
0,60,0,0
0,63,0,2
0,69,60,12
0,38,77,0
0,69,0,20
0,38,0,4
0,52,40,4
0,54,42,0
0,59,62,0
0,69,24,0
0,38,41,0
0,40,0,4
0,66,0,0
0,38,0,2
0,69,0,6
0,38,0,2
0,52,0,2
0,54,0,2
0,52,0,0
0,38,0,0
0,59,0,2
0,78,77,0
0,45,0,4
0,57,66,2
0,62,60,0
0,43,70,0
0,50,60,0
0,69,42,0
0,36,122,0
0,38,77,0
0,59,0,4
0,64,0,2
0,69,0,4
0,38,0,4
0,57,0,0
0,62,0,2
0,43,0,4
0,50,0,4
0,57,52,12
0,62,48,0
0,43,72,0
0,50,52,0
0,38,61,0
0,66,0,2
0,36,0,2
0,38,0,2
0,43,0,4
0,57,0,2
0,62,0,0
0,50,0,4
0,78,0,2
0,38,59,4
0,63,90,2
0,71,81,0
0,59,0,2
0,64,0,2
0,38,0,4
0,63,0,4
0,71,0,2
0,71,76,8
0,43,64,2
0,50,68,0
0,66,78,0
0,62,58,0
0,38,59,0
0,62,56,4
0,38,0,18
0,50,0,0
0,71,0,2
0,62,0,0
0,66,0,2
0,43,0,4
0,62,0,10
0,57,68,8
0,62,62,0
0,38,126,0
0,40,116,0
0,38,71,0
0,74,91,4
0,60,66,0
0,62,84,0
0,60,0,14
0,62,0,2
0,38,0,2
0,62,0,10
0,57,0,2
0,71,80,10
0,76,91,2
0,71,76,0
0,50,90,2
0,66,76,0
0,66,78,0
0,69,34,0
0,38,35,0
0,62,50,2
0,74,0,2
0,62,56,0
0,69,0,10
0,38,0,6
0,71,0,2
0,66,0,0
0,62,0,0
0,71,0,2
0,62,0,0
0,66,0,2
0,76,0,16
0,43,76,6
0,71,91,0
0,69,68,0
0,64,66,0
0,38,77,0
0,50,0,16
0,69,0,4
0,38,0,2
0,64,0,0
0,38,0,2
0,40,0,0
0,43,0,8
0,71,80,12
0,55,26,2
0,43,40,2
0,50,58,0
0,62,68,0
0,66,76,0
0,69,30,0
0,36,116,0
0,64,78,0
0,38,43,0
0,62,50,2
0,71,0,2
0,66,62,0
0,71,53,2
0,69,0,10
0,36,0,4
0,38,0,0
0,71,0,2
0,62,0,0
0,66,0,0
0,64,0,12
0,69,58,14
0,36,126,0
0,38,77,0
0,69,0,20
0,38,0,4
0,36,0,8
0,55,26,14
0,55,49,2
0,57,49,0
0,62,65,0
0,62,68,0
0,69,26,0
0,38,43,0
0,64,80,2
0,66,62,2
0,71,53,2
0,69,0,4
0,38,0,12
0,55,0,2
0,57,0,0
0,62,0,2
0,64,0,6
0,38,55,16
0,38,0,20
0,63,36,26
0,38,55,2
0,63,0,18
0,38,0,2
0,50,0,10
0,43,0,0
0,73,85,10
0,63,98,6
0,74,107,2
0,38,126,0
0,40,112,0
0,38,55,0
0,73,0,2
0,63,0,18
0,38,0,2
0,63,48,22
0,76,31,2
0,74,0,2
0,47,92,0
0,69,38,0
0,62,46,0
0,38,55,0
0,62,0,12
0,69,0,4
0,63,0,0
0,38,0,4
0,76,0,4
0,62,88,0
0,71,89,2
0,69,60,0
0,63,98,0
0,38,77,0
0,38,0,2
0,40,0,2
0,63,0,4
0,62,0,2
0,69,0,2
0,38,0,2
0,71,0,4
0,71,0,6
0,52,50,4
0,54,42,0
0,59,69,0
0,69,32,0
0,38,43,0
0,69,0,4
0,47,0,2
0,59,0,2
0,38,0,0
0,54,0,2
0,52,0,0
0,62,0,4
0,66,0,4
0,55,0,6
0,40,82,6
0,47,74,0
0,69,42,0
0,36,126,0
0,38,77,0
0,69,0,20
0,38,0,4
0,40,0,2
0,71,0,12
0,40,78,10
0,38,41,0
0,36,0,6
0,38,0,16
0,40,0,4
0,47,0,4
0,62,0,2
0,66,0,4
0,55,0,4
0,62,80,6
0,52,52,2
0,54,48,0
0,59,66,0
0,63,98,0
0,38,55,0
0,62,0,14
0,63,0,2
0,38,0,8
0,54,0,2
0,52,0,2
0,59,0,2
0,40,64,18
0,47,56,0
0,66,98,0
0,60,58,0
0,38,55,0
0,64,98,2
0,59,98,2
0,59,0,8
0,66,0,6
0,64,0,0
0,60,0,4
0,38,0,2
0,40,0,2
0,47,0,4
0,38,126,18
0,40,116,0
0,60,53,0
0,62,84,0
0,38,63,0
0,60,0,14
0,62,0,4
0,38,0,4
0,52,8,26
0,54,16,0
0,59,12,0
0,40,44,0
0,66,100,0
0,64,100,0
0,66,84,0
0,69,30,0
0,38,33,0
0,64,85,2
0,59,100,2
0,59,85,0
0,59,0,6
0,59,0,0
0,69,0,4
0,66,0,2
0,64,0,2
0,66,0,0
0,64,0,0
0,38,0,2
0,54,0,4
0,59,0,4
0,52,0,2
0,40,0,6
0,40,0,4
0,38,0,2
0,62,34,4
0,40,32,2
0,47,70,0
0,69,62,0
0,64,32,0
0,38,77,0
0,64,0,12
0,62,0,0
0,69,0,8
0,40,0,0
0,38,0,4
0,52,16,16
0,59,91,4
0,52,6,4
0,54,22,0
0,59,24,0
0,40,82,0
0,69,32,0
0,38,55,0
0,64,88,2
0,66,88,0
0,36,116,0
0,62,84,0
0,64,88,0
0,64,81,2
0,59,89,0
0,66,40,4
0,59,0,2
0,66,0,6
0,69,0,0
0,64,0,2
0,36,0,0
0,38,0,4
0,62,0,0
0,64,0,2
0,54,0,6
0,52,0,6
0,59,0,0
0,69,50,12
0,36,126,0
0,38,77,0
0,69,0,22
0,38,0,2
0,52,16,20
0,38,43,4
0,59,91,2
0,64,70,0
0,64,81,6
0,66,40,6
0,64,0,6
0,38,0,0
0,36,0,0
0,52,32,28
0,54,26,0
0,59,40,0
0,38,43,0
0,38,0,20
0,59,0,0
0,54,0,0
0,52,0,4
0,38,84,2
0,38,0,18
0,46,116,4
0,63,72,0
0,63,0,16
0,40,0,22
0,47,0,4
0,46,0,6
0,38,127,0
0,40,117,0
0,42,98,0
0,42,0,18
0,52,34,30
0,54,36,0
0,59,58,0
0,38,86,0
0,45,86,0
0,63,61,0
0,46,98,0
0,63,0,14
0,52,0,6
0,54,0,2
0,52,0,2
0,59,0,0
0,46,0,20
0,42,90,4
0,63,106,0
0,42,0,14
0,38,0,0
0,40,0,4
0,63,0,0
0,62,52,0
0,52,40,2
0,54,42,0
0,59,62,0
0,64,68,0
0,66,0,2
0,62,0,2
0,52,0,2
0,52,0,2
0,64,0,0
0,54,0,2
0,59,0,0
0,38,0,2
0,45,0,2
0,78,101,0
0,43,78,2
0,50,82,0
0,36,126,0
0,49,98,0
0,64,58,0
0,38,77,0
0,59,0,2
0,64,0,2
0,64,0,4
0,38,0,0
0,43,0,4
0,50,0,4
0,43,72,12
0,50,58,0
0,38,59,0
0,66,0,2
0,38,0,4
0,36,0,0
0,50,0,8
0,78,0,0
0,43,0,2
0,71,109,0
0,57,80,2
0,62,92,0
0,63,98,0
0,38,57,0
0,62,78,2
0,59,0,4
0,64,0,2
0,62,0,4
0,63,0,0
0,62,0,2
0,38,0,0
0,57,0,0
0,71,0,4
0,69,91,16
0,43,64,2
0,50,74,0
0,38,41,0
0,66,91,2
0,62,91,2
0,62,0,14
0,69,0,2
0,38,0,2
0,66,0,0
0,43,0,8
0,50,0,2
0,38,127,16
0,40,117,0
0,38,63,0
0,74,97,6
0,38,0,16
0,74,0,16
0,76,91,0
0,69,98,8
0,69,89,0
0,43,42,2
0,50,32,0
0,69,28,0
0,38,59,0
0,66,98,2
0,66,89,0
0,62,99,2
0,62,89,0
0,38,0,2
0,40,0,2
0,69,0,6
0,62,0,2
0,38,0,2
0,62,0,0
0,69,0,2
0,66,0,2
0,69,0,0
0,43,0,0
0,66,0,0
0,50,0,2
0,76,0,16
0,71,79,4
0,57,78,4
0,62,88,0
0,43,66,0
0,50,70,0
0,69,48,0
0,64,34,0
0,38,77,0
0,62,12,2
0,62,0,12
0,64,0,0
0,69,0,6
0,38,0,4
0,57,0,0
0,62,0,2
0,43,0,2
0,47,45,8
0,71,0,4
0,57,51,0
0,62,85,4
0,66,86,2
0,69,87,0
0,43,72,2
0,36,116,0
0,38,41,0
0,69,81,2
0,66,87,0
0,62,78,0
0,64,88,0
0,62,87,2
0,36,0,8
0,62,0,4
0,38,0,6
0,69,0,0
0,66,0,0
0,64,0,0
0,62,0,2
0,69,60,24
0,36,126,0
0,38,77,0
0,69,0,18
0,38,0,8
0,47,45,16
0,57,51,4
0,57,74,2
0,62,74,0
0,62,66,0
0,64,74,0
0,38,59,0
0,62,85,2
0,66,86,4
0,69,81,2
0,64,0,10
0,62,0,2
0,57,0,0
0,62,0,2
0,38,0,2
0,36,0,0
0,38,61,24
0,38,0,22
0,63,56,24
0,62,60,2
0,38,54,0
0,62,0,14
0,63,0,0
0,49,0,6
0,38,0,2
0,73,95,18
0,43,0,6
0,50,0,0
0,73,0,2
0,57,38,0
0,62,20,0
0,74,99,0
0,38,127,0
0,40,117,0
0,62,88,0
0,38,77,0
0,60,78,2
0,66,0,12
0,57,0,2
0,62,0,2
0,60,0,2
0,62,0,0
0,38,0,4
0,74,0,24
0,57,68,0
0,62,58,0
0,47,80,0
0,54,74,0
0,76,97,0
0,69,34,0
0,61,24,0
0,63,42,0
0,38,41,0
0,69,0,16
0,63,0,2
0,61,0,0
0,57,0,2
0,38,0,2
0,62,0,0
0,62,0,0
0,69,0,6
0,57,0,4
0,47,0,2
0,57,84,14
0,62,88,0
0,69,58,0
0,61,72,0
0,63,84,0
0,38,77,0
0,76,0,2
0,71,95,0
0,40,0,8
0,38,0,2
0,61,0,8
0,57,0,0
0,69,0,0
0,62,0,0
0,63,0,0
0,66,0,2
0,38,0,4
0,71,0,2
0,69,30,0
0,38,55,0
0,69,0,4
0,38,0,4
0,62,0,2
0,69,0,4
0,57,0,4
0,47,0,4
0,54,0,0
0,47,0,0
0,40,72,2
0,47,54,0
0,36,126,0
0,46,108,0
0,40,0,28
0,52,66,16
0,54,56,0
0,59,84,0
0,40,32,0
0,54,0,12
0,52,0,4
0,36,0,0
0,59,0,2
0,40,0,10
0,47,0,2
0,38,55,16
0,63,84,2
0,46,0,10
0,63,0,12
0,38,0,2
0,52,70,24
0,40,88,0
0,47,68,0
0,38,59,0
0,38,0,22
0,47,0,8
0,40,0,0
0,54,78,18
0,59,92,0
0,38,126,0
0,40,116,0
0,60,70,0
0,38,63,0
0,38,0,20
0,60,0,0
0,54,0,10
0,59,0,0
0,52,0,12
0,47,78,6
0,69,32,0
0,38,55,0
0,69,0,16
0,38,0,4
0,38,0,20
0,40,0,0
0,40,102,8
0,69,60,0
0,64,55,0
0,38,77,0
0,64,0,16
0,69,0,4
0,38,0,2
0,69,29,26
0,64,87,0
0,38,39,0
0,69,0,14
0,38,0,6
0,64,0,12
0,52,93,16
0,57,80,0
0,62,66,0
0,64,80,0
0,52,101,0
0,52,48,0
0,62,48,0
0,66,36,0
0,57,54,0
0,36,126,0
0,49,98,0
0,36,0,64
0,62,0,2
0,62,71,28
