track,note,velocity,time
1,26,112,12826
1,28,107,55
1,29,102,8
1,33,98,8
1,31,107,6
1,26,106,14
1,26,104,92
1,31,102,30
1,24,104,106
1,34,95,5
1,33,95,2
1,34,100,77
1,31,105,60
1,29,107,59
1,31,107,12
1,33,89,6
1,33,93,94
1,34,93,1
1,33,91,72
1,33,102,54
1,33,102,48
1,26,102,384
1,26,93,120
1,27,106,96
1,34,100,12
1,39,97,7
1,39,92,35
1,34,93,12
1,27,102,23
1,26,102,7
1,24,114,40
1,26,103,0
1,31,102,1
1,31,95,0
1,36,99,48
1,33,99,55
1,34,87,9
1,29,103,64
1,28,93,48
1,26,99,10
1,26,99,22
1,31,103,96
1,31,103,31
1,36,95,0
1,36,107,47
1,33,103,13
1,34,111,8
1,34,104,10
1,34,91,13
1,34,99,24
1,34,91,27
1,29,103,96
1,29,99,19
1,28,95,192
1,26,93,18
1,26,93,45
1,26,102,23
1,33,89,288
1,34,85,95
1,34,89,42
1,34,91,26
1,36,89,38
1,38,87,1
1,26,102,12
1,26,97,33
1,33,102,47
1,31,89,1
1,31,97,25
1,31,102,21
1,24,108,49
1,24,97,28
1,36,102,0
1,34,97,11
1,33,97,192
1,33,97,43
1,33,89,37
1,33,73,34
1,34,93,96
1,34,93,5
1,33,93,144
1,31,89,34
1,31,93,22
1,31,97,42
1,29,97,192
1,28,85,95
1,26,112,3
1,28,107,55
1,29,102,8
1,33,98,8
1,31,107,6
1,29,97,480
1,31,95,0
1,33,102,0
1,26,98,96
1,26,100,92
1,31,100,30
1,31,97,0
1,31,97,0
1,24,104,192
1,34,90,5
1,33,95,2
1,33,88,0
1,34,95,0
1,31,97,60
1,29,92,59
1,31,107,12
1,26,112,6
1,28,107,55
1,29,102,8
1,33,98,8
1,31,107,6
1,33,102,48
1,26,98,96
1,26,100,92
1,31,100,30
1,24,108,768
1,33,95,48
1,33,88,0
1,34,100,0
1,31,97,60
1,33,95,48
1,33,92,4
1,31,92,96
1,33,93,0
1,34,93,1
1,34,97,0
1,33,89,96
1,33,90,4
1,26,113,192
1,26,93,0
1,27,108,96
1,34,100,12
1,39,97,7
1,39,92,35
1,34,93,12
1,27,102,23
1,26,109,7
1,33,102,0
1,26,119,96
1,24,121,96
1,26,103,96
1,31,102,1
1,31,95,0
1,36,99,48
1,33,99,55
1,34,87,9
1,29,103,64
1,28,85,48
1,26,99,10
1,26,99,22
1,31,103,96
1,31,103,31
1,36,95,0
1,36,107,47
1,33,103,13
1,34,111,8
1,34,104,10
1,34,74,13
1,34,99,24
1,34,91,27
1,29,103,96
1,29,99,19
1,28,95,192
1,26,103,18
1,31,102,1
1,31,95,0
1,36,99,48
1,33,99,55
1,34,87,9
1,29,103,64
1,28,85,48
1,26,99,10
1,26,99,22
1,31,103,96
1,31,103,31
1,36,95,0
1,36,107,47
1,33,103,13
1,34,111,8
1,34,104,10
1,34,74,13
1,34,99,24
1,34,91,27
1,29,103,96
1,29,99,19
1,28,95,192
1,26,103,18
1,31,102,1
1,31,95,0
1,36,99,48
1,33,99,55
1,34,87,9
1,29,103,64
1,28,85,48
1,26,99,10
1,26,99,22
1,31,103,96
1,31,103,31
1,36,95,0
1,36,107,47
1,33,103,13
1,34,111,8
1,34,104,10
1,34,74,13
1,34,99,24
1,34,91,27
1,29,103,96
1,29,99,19
1,28,95,192
1,26,103,18
1,31,102,1
1,31,95,0
1,36,99,48
1,33,99,55
1,34,87,9
1,29,103,64
1,28,85,48
1,26,99,10
1,26,99,22
1,31,103,96
1,31,103,31
1,36,95,0
1,36,107,47
1,33,103,13
1,34,111,8
1,34,104,10
1,34,74,13
1,34,99,24
1,34,91,27
1,29,103,96
1,29,99,19
1,28,95,192
1,26,103,18
1,31,102,1
1,31,95,0
1,36,99,48
1,33,99,55
1,34,87,9
1,29,103,64
1,28,85,48
1,26,99,10
1,26,99,22
1,31,103,96
1,31,103,31
1,36,95,0
1,36,76,47
1,33,72,13
1,34,68,8
1,34,60,10
1,34,56,13
1,34,48,24
1,34,37,27
1,29,33,96
1,29,17,19
1,28,9,192
2,46,58,12237
2,53,58,0
2,58,58,0
2,48,56,0
2,55,54,0
2,60,52,0
2,59,27,312
2,54,27,24
2,58,27,0
2,47,25,12
2,53,25,0
2,57,25,0
2,46,20,12
2,52,20,0
2,56,20,0
2,45,18,12
2,51,18,0
2,55,18,0
2,50,13,12
2,48,8,12
2,48,80,0
2,55,67,0
2,60,67,0
2,47,44,254
2,54,44,8
2,45,44,1
2,59,44,0
2,43,44,8
2,53,40,8
2,58,37,0
2,41,33,7
2,52,30,1
2,57,30,1
2,51,28,4
2,56,25,12
2,50,25,6
2,55,25,6
2,50,58,0
2,57,56,0
2,48,80,0
2,55,67,0
2,60,67,0
2,47,44,254
2,54,36,8
2,45,44,1
2,59,36,0
2,43,44,8
2,53,40,8
2,58,29,0
2,41,33,7
2,52,30,1
2,57,22,1
2,51,28,4
2,56,17,12
2,50,25,6
2,55,17,6
2,62,87,0
2,67,82,94
2,67,87,0
2,65,87,49
2,65,85,0
2,65,83,47
2,67,85,3
2,67,87,0
2,65,75,16
2,67,84,7
2,66,57,79
2,65,55,12
2,64,51,13
2,62,49,16
2,65,87,120
2,65,87,0
2,65,87,0
2,65,91,0
2,67,92,0
2,67,92,0
2,70,89,0
2,69,77,32
2,67,72,22
2,69,83,22
2,67,76,22
2,65,72,20
2,67,80,20
2,65,69,21
2,62,65,21
2,65,75,22
2,62,69,22
2,60,64,21
2,62,80,21
2,60,70,23
2,58,67,23
2,57,76,23
2,58,69,21
2,60,67,21
2,62,86,22
2,65,88,0
2,65,89,0
2,67,89,0
2,65,82,48
2,64,89,48
2,63,57,48
2,62,55,16
2,61,51,2
2,60,49,3
2,59,32,3
2,65,69,96
2,65,89,0
2,65,87,0
2,65,88,0
2,67,87,0
2,77,74,0
2,48,87,14
2,50,85,49
2,52,87,46
2,53,82,42
2,52,92,42
2,53,75,27
2,52,75,27
2,50,95,27
2,52,89,43
2,53,90,43
2,55,80,43
2,57,90,43
2,58,84,27
2,57,85,27
2,55,92,27
2,57,84,27
2,58,79,27
2,57,90,27
2,55,84,27
2,58,79,27
2,60,95,27
2,58,85,27
2,57,82,27
2,55,90,27
2,57,80,27
2,58,80,27
2,57,94,27
2,55,83,27
2,54,83,27
2,55,87,27
2,54,80,27
2,53,82,27
2,52,92,27
2,51,65,16
2,50,57,8
2,49,50,16
2,48,45,16
2,47,45,16
2,65,92,6
2,69,92,126
2,69,92,0
2,65,89,200
2,77,77,71
2,74,66,24
2,72,67,4
2,69,62,13
2,77,75,13
2,74,72,13
2,72,69,6
2,69,64,13
2,77,75,13
2,74,63,13
2,72,63,6
2,69,58,12
2,77,75,13
2,74,68,14
2,72,63,6
2,69,62,12
2,77,77,13
2,74,66,13
2,72,67,4
2,69,62,13
2,77,75,13
2,74,72,13
2,72,69,6
2,69,64,13
2,77,75,13
2,74,63,13
2,72,63,6
2,69,58,12
2,77,75,13
2,74,68,14
2,72,63,6
2,69,62,12
2,79,92,2
3,57,57,700
3,65,63,96
3,65,35,23
3,57,45,327
3,65,63,93
3,65,67,25
3,65,60,28
3,62,33,101
3,57,6,299
3,65,57,7
3,65,67,29
3,65,63,42
3,65,67,30
3,69,79,89
3,67,57,268
3,67,35,494
3,67,64,38
3,67,50,26
3,67,40,477
3,69,60,4
3,69,71,29
3,65,29,524
3,65,60,28
3,65,67,29
3,65,63,20
3,65,63,27
3,65,57,26
3,65,48,199
3,65,63,26
3,65,63,27
3,57,57,489
3,65,63,96
3,65,35,19
3,57,45,324
3,65,63,97
3,65,67,27
3,65,60,31
3,62,33,99
3,57,6,315
3,65,57,10
3,65,67,28
3,65,63,42
3,65,67,32
3,69,79,92
3,67,57,86
3,67,35,666
3,67,64,41
3,67,50,21
3,67,40,494
3,69,60,6
3,69,71,27
3,65,29,518
3,65,60,31
3,65,67,32
3,69,63,22
3,65,57,2
3,65,54,954
3,65,71,29
3,65,79,26
3,65,17,44
3,69,71,250
3,65,60,92
3,65,50,23
3,65,50,24
3,65,33,31
3,65,33,450
3,65,60,29
3,65,60,27
3,65,71,34
3,69,79,94
3,67,63,12
3,69,45,85
3,67,63,96
3,67,57,458
3,67,67,19
3,67,67,23
3,67,29,405
3,67,31,23
3,67,60,48
3,65,60,516
3,65,45,14
3,65,50,29
3,65,48,28
3,65,52,8
3,65,45,22
3,69,48,958
3,69,79,39
3,69,67,30
3,69,71,40
3,67,67,16
3,65,54,100
3,69,37,795
3,69,71,48
3,69,63,37
3,67,63,7
3,65,57,96
3,67,50,427
3,67,57,38
3,67,75,34
3,67,75,28
3,67,79,29
3,65,54,2
3,65,67,25
3,67,22,103
3,67,64,32
3,67,50,25
3,67,64,19
3,67,75,22
3,65,57,90
3,65,71,27
3,65,50,1298
3,65,67,39
3,65,75,34
3,67,75,96
3,69,79,90
3,67,63,191
3,65,33,698
3,69,71,3
3,69,71,26
3,65,57,206
3,69,75,611
3,69,75,47
3,72,67,99
3,70,48,82
3,69,54,90
3,69,63,46
3,67,60,95
3,65,21,419
3,65,57,41
3,65,67,34
3,69,71,96
3,69,75,27
3,65,63,4
3,65,54,6648
3,65,71,29
3,65,79,26
3,65,60,408
3,65,50,23
3,65,50,24
3,69,44,0
3,65,33,4
3,65,33,420
3,65,60,29
3,65,60,27
3,65,71,34
3,69,79,94
3,67,63,12
3,67,57,837
3,67,67,19
3,67,67,23
3,67,64,21
3,67,64,96
3,67,64,10
3,67,31,34
3,69,60,18
3,62,45,614
3,65,50,29
3,65,48,28
3,62,52,8
3,62,45,220
3,65,50,29
3,65,48,28
3,62,52,8
3,65,54,501
3,65,61,29
3,65,68,26
3,65,64,35
3,65,64,168
3,69,64,0
3,65,61,13
3,65,56,23
3,65,56,24
3,65,40,10
3,65,45,420
3,65,60,29
3,65,60,27
3,65,71,34
3,69,79,94
3,67,63,12
3,67,57,837
3,67,67,19
3,67,67,23
3,67,64,309
3,67,64,10
3,67,64,10
3,69,61,30
3,69,45,48
3,62,54,222
3,65,68,29
3,65,64,28
3,65,61,8
3,65,59,32
3,65,56,35
3,65,48,28
3,69,48,964
3,69,79,39
3,69,67,30
3,69,71,40
3,67,67,16
3,65,54,100
3,69,37,795
3,69,71,48
3,69,63,37
3,67,63,7
3,65,57,96
3,67,50,427
3,67,57,38
3,67,75,34
3,67,75,28
3,67,79,29
3,65,54,2
3,65,67,25
3,67,22,103
3,67,64,32
3,67,50,25
3,67,64,19
3,67,75,22
3,65,57,90
3,65,71,27
3,65,50,1298
3,65,67,39
3,65,75,34
3,67,75,96
3,69,79,90
3,67,63,191
3,65,33,698
3,69,71,3
3,69,71,26
3,65,57,206
3,69,75,611
3,69,75,47
3,72,67,99
3,70,48,82
3,69,54,90
3,69,63,46
3,67,60,95
3,65,21,419
3,65,57,41
3,65,67,34
3,69,71,96
3,69,75,27
3,65,63,4
3,65,50,509
3,65,67,39
3,65,75,34
3,67,75,96
3,69,79,90
3,67,63,191
3,65,33,698
3,69,71,3
3,69,71,26
3,65,57,206
3,69,75,611
3,69,75,47
3,72,67,99
3,70,48,82
3,69,54,90
3,69,63,46
3,67,60,95
3,65,21,419
3,65,57,41
3,65,67,34
3,69,71,96
3,69,75,27
3,65,63,4
3,65,50,509
3,65,67,39
3,65,75,34
3,67,75,96
3,69,79,90
3,67,63,191
3,65,33,698
3,69,71,3
3,69,71,26
3,65,57,206
3,69,75,611
3,69,75,47
3,72,67,99
3,70,48,82
3,69,54,90
3,69,63,46
3,67,60,95
3,65,21,419
3,65,57,41
3,65,67,34
3,69,71,96
3,69,75,27
3,65,63,4
4,53,71,521
4,62,75,2
4,57,79,1
4,58,75,746
4,57,83,40
4,53,75,1
4,62,83,0
4,62,75,21
4,55,75,2
4,58,79,0
4,60,83,6
4,55,75,1
4,64,75,0
4,60,83,18
4,64,75,0
4,57,79,2
4,53,67,5
4,58,75,0
4,62,79,0
4,62,42,13
4,58,75,1
4,55,75,1
4,53,71,43
4,62,75,2
4,57,79,1
4,58,75,746
4,57,83,40
4,53,75,1
4,62,83,0
4,62,75,21
4,55,75,2
4,58,79,0
4,60,83,6
4,55,75,1
4,64,75,0
4,60,83,18
4,64,75,0
4,57,79,2
4,53,67,5
4,58,75,0
4,62,79,0
4,62,42,13
4,58,75,1
4,55,75,1
4,53,71,43
4,62,75,2
4,57,79,1
4,58,75,746
4,57,83,40
4,53,75,1
4,62,83,0
4,62,75,21
4,55,75,2
4,58,79,0
4,60,83,6
4,55,75,1
4,64,75,0
4,60,83,18
4,64,75,0
4,57,79,2
4,53,67,5
4,58,75,0
4,62,79,0
4,62,42,13
4,58,75,1
4,55,75,1
4,52,71,24
4,57,75,0
4,60,79,0
4,53,60,9
4,62,75,2
4,58,63,1
4,52,75,19
4,57,79,0
4,60,83,3
4,52,79,44
4,57,92,1
4,60,92,0
4,53,79,12
4,57,83,0
4,62,92,2
4,55,75,48
4,58,92,1
4,63,75,4
4,53,71,55
4,57,83,1
4,62,75,1
4,52,87,41
4,55,92,0
4,60,87,0
4,53,55,180
4,57,62,0
4,62,68,0
4,58,64,38
4,60,80,15
4,55,72,2
4,64,76,1
4,60,76,24
4,65,84,1
4,58,65,2
4,60,68,27
4,57,76,2
4,65,68,1
4,53,72,30
4,57,76,0
4,62,80,0
4,55,88,24
4,62,92,0
4,59,92,2
4,55,72,7
4,64,84,0
4,60,80,2
4,60,84,69
4,58,68,3
4,66,65,0
4,65,88,2
4,57,68,8
4,60,80,0
4,65,76,0
4,53,64,25
4,57,77,0
4,62,74,0
4,58,77,734
4,57,85,782
4,58,74,64
4,55,77,1
4,60,74,32
4,64,74,1
4,55,74,2
4,57,77,771
4,53,74,25
4,58,74,0
4,62,89,0
4,55,71,17
4,53,71,78
4,62,75,2
4,57,79,1
4,58,75,746
4,57,83,40
4,53,75,1
4,62,83,0
4,62,75,21
4,55,75,2
4,58,79,0
4,60,83,6
4,55,75,1
4,64,75,0
4,60,83,18
4,64,75,0
4,57,79,2
4,53,67,5
4,58,75,0
4,62,79,0
4,62,42,13
4,58,75,1
4,55,75,1
4,53,71,30
4,62,75,2
4,57,79,1
4,58,75,746
4,57,83,40
4,53,75,1
4,62,83,0
4,62,75,21
4,55,75,2
4,58,79,0
4,60,83,6
4,55,75,1
4,64,75,0
4,60,83,18
4,64,75,0
4,57,79,2
4,53,67,5
4,58,75,0
4,62,79,0
4,62,42,13
4,58,75,1
4,55,75,1
4,52,71,24
4,57,75,0
4,60,79,0
4,53,60,9
4,62,75,2
4,58,63,1
4,52,75,19
4,57,79,0
4,60,83,3
4,52,79,44
4,57,92,1
4,60,92,0
4,53,79,12
4,57,83,0
4,62,92,2
4,55,75,48
4,58,92,1
4,63,75,4
4,53,71,55
4,57,83,1
4,62,75,1
4,52,87,41
4,55,92,0
4,60,87,0
4,53,55,180
4,57,62,0
4,62,68,0
4,58,64,38
4,60,80,15
4,55,72,2
4,64,76,1
4,60,76,24
4,65,84,1
4,58,65,2
4,60,68,27
4,57,76,2
4,65,68,1
4,53,72,30
4,57,76,0
4,62,80,0
4,55,88,24
4,62,92,0
4,59,92,2
4,55,72,7
4,64,84,0
4,60,80,2
4,60,84,69
4,58,68,3
4,66,65,0
4,65,88,2
4,57,68,8
4,60,80,0
4,65,76,0
4,53,55,25
4,57,62,0
4,62,68,0
4,58,64,38
4,60,80,15
4,55,72,2
4,64,76,1
4,60,76,24
4,65,84,1
4,58,65,2
4,60,68,27
4,57,76,2
4,65,68,1
4,53,72,30
4,57,76,0
4,62,80,0
4,55,88,24
4,62,92,0
4,59,92,2
4,55,72,7
4,64,84,0
4,60,80,2
4,60,84,69
4,58,68,3
4,66,65,0
4,65,88,2
4,57,68,8
4,60,80,0
4,65,76,0
4,53,55,25
4,57,62,0
4,62,68,0
4,58,64,38
4,60,80,15
4,55,72,2
4,64,76,1
4,60,76,24
4,65,84,1
4,58,65,2
4,60,68,27
