track,note,velocity,time
1,81,43,4
1,81,0,60
1,82,38,0
1,82,0,60
1,81,43,0
1,81,0,60
1,82,39,0
1,82,0,60
1,81,49,0
1,81,0,120
1,86,44,1080
1,86,0,60
1,88,40,0
1,88,0,60
1,86,44,0
1,86,0,60
1,88,42,0
1,88,0,60
1,86,50,0
1,86,0,120
1,81,49,1080
1,81,0,60
1,82,44,0
1,82,0,60
1,81,49,0
1,81,0,60
1,82,44,0
1,82,0,60
1,81,52,0
1,81,0,120
1,77,48,360
1,77,0,60
1,79,45,0
1,79,0,60
1,77,48,0
1,77,0,60
1,79,45,0
1,79,0,60
1,77,56,0
1,77,0,120
1,81,49,360
1,81,0,60
1,82,44,0
1,82,0,60
1,81,49,0
1,81,0,60
1,82,44,0
1,82,0,60
1,81,54,0
1,81,0,120
1,84,48,1080
1,84,0,60
1,86,45,0
1,86,0,60
1,84,48,0
1,84,0,60
1,86,45,0
1,86,0,60
1,84,68,0
1,84,0,120
1,88,48,1080
1,88,0,60
1,89,44,0
1,89,0,60
1,88,48,0
1,88,0,60
1,89,45,0
1,89,0,60
1,88,67,0
1,88,0,120
1,80,54,960
1,80,0,120
1,76,54,0
1,76,0,120
1,72,49,120
1,68,49,0
1,68,0,240
1,72,0,0
1,80,54,120
1,80,0,120
1,76,54,0
1,76,0,120
1,68,50,120
1,72,50,0
1,72,0,240
1,68,0,0
1,81,54,120
1,81,0,120
1,76,54,0
1,76,0,120
1,69,56,120
1,69,0,240
1,60,55,240
1,69,55,0
1,69,0,240
1,60,0,0
1,69,55,0
1,60,55,0
1,60,0,240
1,69,0,0
1,81,43,240
1,81,0,60
1,82,38,0
1,82,0,60
1,81,43,0
1,81,0,60
1,82,39,0
1,82,0,60
1,81,49,0
1,81,0,120
1,86,44,1080
1,86,0,60
1,88,40,0
1,88,0,60
1,86,44,0
1,86,0,60
1,88,42,0
1,88,0,60
1,86,50,0
1,86,0,120
1,81,49,1080
1,81,0,60
1,82,44,0
1,82,0,60
1,81,49,0
1,81,0,60
1,82,44,0
1,82,0,60
1,81,52,0
1,81,0,120
1,77,48,360
1,77,0,60
1,79,45,0
1,79,0,60
1,77,48,0
1,77,0,60
1,79,45,0
1,79,0,60
1,77,56,0
1,77,0,120
1,81,49,360
1,81,0,60
1,82,44,0
1,82,0,60
1,81,49,0
1,81,0,60
1,82,44,0
1,82,0,60
1,81,54,0
1,81,0,120
1,84,48,1080
1,84,0,60
1,86,45,0
1,86,0,60
1,84,48,0
1,84,0,60
1,86,45,0
1,86,0,60
1,84,68,0
1,84,0,120
1,88,48,1080
1,88,0,60
1,89,44,0
1,89,0,60
1,88,48,0
1,88,0,60
1,89,45,0
1,89,0,60
1,88,67,0
1,88,0,120
1,80,54,960
1,80,0,120
1,76,54,0
1,76,0,120
1,68,49,120
1,72,49,0
1,72,0,240
1,68,0,0
1,80,54,120
1,80,0,120
1,76,54,0
1,76,0,120
1,68,50,120
1,72,50,0
1,72,0,240
1,68,0,0
1,81,54,120
1,81,0,120
1,76,54,0
1,76,0,120
1,69,56,120
1,69,0,240
1,60,57,240
1,69,57,0
1,69,0,240
1,60,0,0
1,60,57,0
1,69,57,0
1,69,0,240
1,60,0,0
1,52,40,840
1,62,40,0
1,62,0,120
1,52,0,0
1,64,43,0
1,64,0,120
1,64,49,120
1,62,49,0
1,52,49,0
1,52,0,720
1,62,0,0
1,64,0,0
1,62,40,360
1,52,40,0
1,52,0,120
1,62,0,0
1,64,45,0
1,64,0,120
1,62,48,120
1,64,48,0
1,52,48,0
1,52,0,720
1,64,0,0
1,62,0,0
1,64,40,480
1,62,40,0
1,52,40,0
1,52,0,120
1,62,0,0
1,64,0,0
1,64,40,600
1,62,40,0
1,52,40,0
1,52,0,120
1,62,0,0
1,64,0,0
1,61,48,480
1,52,48,0
1,52,0,120
1,61,0,0
1,64,48,0
1,64,0,120
1,52,48,120
1,61,48,0
1,64,48,0
1,64,0,720
1,61,0,0
1,52,0,0
1,69,76,480
1,69,0,60
1,71,69,0
1,71,0,60
1,69,69,0
1,69,0,60
1,71,69,0
1,71,0,60
1,68,68,0
1,68,0,120
1,67,73,360
1,67,0,60
1,69,67,0
1,69,0,60
1,67,67,0
1,67,0,60
1,69,67,0
1,69,0,60
1,66,67,0
1,66,0,120
1,65,70,360
1,65,0,60
1,67,62,0
1,67,0,60
1,65,62,0
1,65,0,60
1,67,62,0
1,67,0,60
1,64,62,0
1,64,0,120
1,62,68,360
1,62,0,60
1,64,60,0
1,64,0,60
1,62,60,0
1,62,0,60
1,64,60,0
1,64,0,60
1,61,60,0
1,61,0,120
1,60,64,360
1,60,0,60
1,64,57,0
1,64,0,60
1,60,58,0
1,60,0,60
1,64,58,0
1,64,0,60
1,59,58,0
1,59,0,120
1,58,62,360
1,58,0,60
1,64,55,0
1,64,0,60
1,58,54,0
1,58,0,60
1,64,54,0
1,64,0,60
1,57,68,0
1,57,0,120
1,70,74,1080
1,70,0,60
1,76,64,0
1,76,0,60
1,70,64,0
1,70,0,60
1,76,64,0
1,76,0,60
1,69,64,0
1,69,0,120
1,82,81,1080
1,82,0,60
1,88,74,0
1,88,0,60
1,82,74,0
1,82,0,60
1,88,74,0
1,88,0,60
1,81,74,0
1,81,0,120
1,94,86,1080
1,94,0,60
1,100,78,0
1,100,0,60
1,94,78,0
1,94,0,60
1,100,78,0
1,100,0,60
1,93,78,0
1,93,0,120
1,82,81,360
1,82,0,60
1,88,68,0
1,88,0,60
1,82,68,0
1,82,0,60
1,88,68,0
1,88,0,60
1,81,68,0
1,81,0,120
1,70,69,360
1,70,0,60
1,76,55,0
1,76,0,60
1,70,55,0
1,70,0,60
1,76,55,0
1,76,0,60
1,69,55,0
1,69,0,120
1,58,56,360
1,58,0,60
1,64,44,0
1,64,0,60
1,58,44,0
1,58,0,60
1,64,46,0
1,64,0,60
1,57,46,0
1,57,0,120
1,81,49,360
1,81,0,60
1,82,43,0
1,82,0,60
1,81,49,0
1,81,0,60
1,82,44,0
1,82,0,60
1,81,57,0
1,81,0,120
1,82,60,360
1,82,0,48
1,81,58,0
1,81,0,48
1,77,55,0
1,77,0,48
1,74,52,0
1,74,0,48
1,69,50,0
1,69,0,48
1,86,50,480
1,86,0,60
1,88,46,0
1,88,0,60
1,86,50,0
1,86,0,60
1,88,48,0
1,88,0,60
1,86,57,0
1,86,0,120
1,88,56,360
1,88,0,48
1,86,55,0
1,86,0,48
1,83,52,0
1,83,0,48
1,79,51,0
1,79,0,48
1,74,49,0
1,74,0,48
1,81,56,480
1,81,0,60
1,82,50,0
1,82,0,60
1,81,56,0
1,81,0,60
1,82,50,0
1,82,0,60
1,81,60,0
1,81,0,120
1,77,55,360
1,77,0,60
1,79,51,0
1,79,0,60
1,77,55,0
1,77,0,60
1,79,51,0
1,79,0,60
1,77,64,0
1,77,0,120
1,81,56,360
1,81,0,60
1,82,50,0
1,82,0,60
1,81,56,0
1,81,0,60
1,82,50,0
1,82,0,60
1,81,61,0
1,81,0,120
1,82,56,360
1,82,0,48
1,81,51,0
1,81,0,48
1,77,49,0
1,77,0,48
1,74,44,0
1,74,0,48
1,69,42,0
1,69,0,48
1,81,55,480
1,81,0,60
1,82,51,0
1,82,0,60
1,81,55,0
1,81,0,60
1,82,51,0
1,82,0,60
1,81,72,0
1,81,0,120
1,82,64,360
1,82,0,48
1,81,61,0
1,81,0,48
1,77,57,0
1,77,0,48
1,73,54,0
1,73,0,48
1,69,51,0
1,69,0,48
1,84,55,480
1,84,0,60
1,86,50,0
1,86,0,60
1,84,55,0
1,84,0,60
1,86,51,0
1,86,0,60
1,84,87,0
1,84,0,120
1,86,70,360
1,86,0,40
1,84,66,0
1,84,0,40
1,81,64,0
1,81,0,40
1,77,62,0
1,77,0,40
1,72,58,0
1,72,0,40
1,69,56,0
1,69,0,40
1,85,61,360
1,85,0,120
1,81,61,0
1,81,0,120
1,73,58,120
1,77,58,0
1,77,0,240
1,73,0,0
1,85,62,120
1,85,0,120
1,81,62,0
1,81,0,120
1,73,58,120
1,77,58,0
1,77,0,240
1,73,0,0
1,86,62,120
1,86,0,120
1,81,62,0
1,81,0,120
1,74,61,120
1,74,0,240
1,65,52,240
1,74,52,0
1,74,0,240
1,65,0,0
1,65,52,0
1,74,52,0
1,74,0,240
1,65,0,0
1,52,40,600
1,62,40,0
1,62,0,120
1,52,0,0
1,64,43,0
1,64,0,120
1,64,49,120
1,62,49,0
1,52,49,0
1,52,0,720
1,62,0,0
1,64,0,0
1,62,40,360
1,52,40,0
1,52,0,120
1,62,0,0
1,64,45,0
1,64,0,120
1,62,48,120
1,64,48,0
1,52,48,0
1,52,0,720
1,64,0,0
1,62,0,0
1,64,40,480
1,62,40,0
1,52,40,0
1,52,0,120
1,62,0,0
1,64,0,0
1,64,40,600
1,62,40,0
1,52,40,0
1,52,0,120
1,62,0,0
1,64,0,0
1,61,48,480
1,52,48,0
1,52,0,120
1,61,0,0
1,64,48,0
1,64,0,120
1,52,48,120
1,61,48,0
1,64,48,0
1,64,0,720
1,61,0,0
1,52,0,0
1,69,76,480
1,69,0,60
1,71,69,0
1,71,0,60
1,69,69,0
1,69,0,60
1,71,69,0
1,71,0,60
1,68,68,0
1,68,0,120
1,67,73,360
1,67,0,60
1,69,67,0
1,69,0,60
1,67,67,0
1,67,0,60
1,69,67,0
1,69,0,60
1,66,67,0
1,66,0,120
1,65,70,360
1,65,0,60
1,67,62,0
1,67,0,60
1,65,62,0
1,65,0,60
1,67,62,0
1,67,0,60
1,64,62,0
1,64,0,120
1,62,68,360
1,62,0,60
1,64,60,0
1,64,0,60
1,62,60,0
1,62,0,60
1,64,60,0
1,64,0,60
1,61,60,0
1,61,0,120
1,60,64,360
1,60,0,60
1,64,57,0
1,64,0,60
1,60,58,0
1,60,0,60
1,64,58,0
1,64,0,60
1,59,58,0
1,59,0,120
1,58,62,360
1,58,0,60
1,64,55,0
1,64,0,60
1,58,54,0
1,58,0,60
1,64,54,0
1,64,0,60
1,57,68,0
1,57,0,120
1,70,74,1080
1,70,0,60
1,76,64,0
1,76,0,60
1,70,64,0
1,70,0,60
1,76,64,0
1,76,0,60
1,69,64,0
1,69,0,120
1,82,81,1080
1,82,0,60
1,88,74,0
1,88,0,60
1,82,74,0
1,82,0,60
1,88,74,0
1,88,0,60
1,81,74,0
1,81,0,120
1,94,86,1080
1,94,0,60
1,100,78,0
1,100,0,60
1,94,78,0
1,94,0,60
1,100,78,0
1,100,0,60
1,93,78,0
1,93,0,120
1,82,81,360
1,82,0,60
1,88,68,0
1,88,0,60
1,82,68,0
1,82,0,60
1,88,68,0
1,88,0,60
1,81,68,0
1,81,0,120
1,70,69,360
1,70,0,60
1,76,55,0
1,76,0,60
1,70,55,0
1,70,0,60
1,76,55,0
1,76,0,60
1,69,55,0
1,69,0,120
1,58,56,360
1,58,0,60
1,64,44,0
1,64,0,60
1,58,44,0
1,58,0,60
1,64,46,0
1,64,0,60
1,57,46,0
1,57,0,120
1,81,49,360
1,81,0,60
1,82,43,0
1,82,0,60
1,81,49,0
1,81,0,60
1,82,44,0
1,82,0,60
1,81,57,0
1,81,0,120
1,82,60,360
1,82,0,48
1,81,58,0
1,81,0,48
1,77,55,0
1,77,0,48
1,74,52,0
1,74,0,48
1,69,50,0
1,69,0,48
1,86,50,480
1,86,0,60
1,88,46,0
1,88,0,60
1,86,50,0
1,86,0,60
1,88,48,0
1,88,0,60
1,86,57,0
1,86,0,120
1,88,56,360
1,88,0,48
1,86,55,0
1,86,0,48
1,83,52,0
1,83,0,48
1,79,51,0
1,79,0,48
1,74,49,0
1,74,0,48
1,81,56,480
1,81,0,60
1,82,50,0
1,82,0,60
1,81,56,0
1,81,0,60
1,82,50,0
1,82,0,60
1,81,60,0
1,81,0,120
1,77,55,360
1,77,0,60
1,79,51,0
1,79,0,60
1,77,55,0
1,77,0,60
1,79,51,0
1,79,0,60
1,77,64,0
1,77,0,120
1,81,56,360
1,81,0,60
1,82,50,0
1,82,0,60
1,81,56,0
1,81,0,60
1,82,50,0
1,82,0,60
1,81,61,0
1,81,0,120
1,82,56,360
1,82,0,48
1,81,51,0
1,81,0,48
1,77,49,0
1,77,0,48
1,74,44,0
1,74,0,48
1,69,42,0
1,69,0,48
1,81,55,480
1,81,0,60
1,82,51,0
1,82,0,60
1,81,55,0
1,81,0,60
1,82,51,0
1,82,0,60
1,81,72,0
1,81,0,120
1,82,64,360
1,82,0,48
1,81,61,0
1,81,0,48
1,77,57,0
1,77,0,48
1,73,54,0
1,73,0,48
1,69,51,0
1,69,0,48
1,84,55,480
1,84,0,60
1,86,50,0
1,86,0,60
1,84,55,0
1,84,0,60
1,86,51,0
1,86,0,60
1,84,87,0
1,84,0,120
1,86,70,360
1,86,0,40
1,84,66,0
1,84,0,40
1,81,64,0
1,81,0,40
1,77,62,0
1,77,0,40
1,72,58,0
1,72,0,40
1,69,56,0
1,69,0,40
1,85,61,360
1,85,0,120
1,81,61,0
1,81,0,120
1,73,58,120
1,77,58,0
1,77,0,240
1,73,0,0
1,85,62,120
1,85,0,120
1,81,62,0
1,81,0,120
1,73,58,120
1,77,58,0
1,77,0,240
1,73,0,0
1,86,62,120
1,86,0,120
1,81,62,0
1,81,0,120
1,74,61,120
1,74,0,240
1,65,52,240
1,74,52,0
1,74,0,240
1,65,0,0
1,65,52,0
1,74,52,0
1,74,0,240
1,65,0,0
1,45,38,840
1,55,38,0
1,55,0,120
1,45,0,0
1,57,42,0
1,57,0,120
1,57,45,120
1,55,45,0
1,45,45,0
1,45,0,720
1,55,0,0
1,57,0,0
1,55,37,360
1,45,37,0
1,45,0,120
1,55,0,0
1,57,39,0
1,57,0,120
1,57,44,120
1,55,44,0
1,45,44,0
1,45,0,720
1,55,0,0
1,57,0,0
1,57,40,480
1,55,40,0
1,45,40,0
1,45,0,120
1,55,0,0
1,57,0,0
1,57,38,600
1,55,38,0
1,45,38,0
1,45,0,120
1,55,0,0
1,57,0,0
1,57,33,600
1,55,33,0
1,45,33,0
1,45,0,120
1,55,0,0
1,57,0,0
1,55,33,600
1,45,33,0
1,57,33,0
1,57,0,120
1,45,0,0
1,55,0,0
1,54,36,480
1,54,0,120
1,57,36,0
1,57,0,120
1,62,43,120
1,62,0,120
1,66,40,240
1,66,0,120
1,69,40,0
1,69,0,120
1,74,44,120
1,74,0,120
1,66,42,240
1,66,0,120
1,69,42,0
1,69,0,120
1,74,45,120
1,74,0,120
1,78,42,240
1,78,0,120
1,81,42,0
1,81,0,120
1,86,44,120
1,86,0,120
1,55,39,600
1,52,39,0
1,62,39,0
1,58,39,0
1,58,0,120
1,55,0,0
1,52,0,0
1,62,0,0
1,62,39,600
1,54,39,0
1,57,39,0
1,57,0,120
1,54,0,0
1,62,0,0
2,74,42,4
2,74,0,60
2,77,38,0
2,77,0,60
2,74,42,0
2,74,0,60
2,77,38,0
2,77,0,60
2,74,50,0
2,74,0,86
2,69,30,360
2,62,30,0
2,62,0,240
2,69,0,0
2,69,30,0
2,62,30,0
2,62,0,72
2,69,0,0
2,79,44,360
2,79,0,60
2,83,40,0
2,83,0,60
2,79,44,0
2,79,0,60
2,83,40,0
2,83,0,60
2,79,50,0
2,79,0,81
2,74,30,360
2,67,30,0
2,67,0,240
2,74,0,0
2,74,30,0
2,67,30,0
2,67,0,68
2,74,0,0
2,74,48,360
2,74,0,60
2,77,43,0
2,77,0,60
2,74,48,0
2,74,0,60
2,77,44,0
2,77,0,60
2,74,51,0
2,74,0,120
2,70,48,360
2,70,0,60
2,74,45,0
2,74,0,60
2,70,48,0
2,70,0,60
2,74,44,0
2,74,0,60
2,70,55,0
2,70,0,120
2,74,49,360
2,74,0,60
2,77,44,0
2,77,0,60
2,74,49,0
2,74,0,60
2,77,45,0
2,77,0,60
2,74,56,0
2,74,0,74
2,69,32,360
2,62,32,0
2,62,0,240
2,69,0,0
2,62,32,0
2,69,32,0
2,69,0,48
2,62,0,0
