track,note,velocity,time
2,26,95,728
2,34,70,44
2,36,90,52
2,29,72,192
2,34,73,32
2,29,74,64
2,29,81,72
2,26,95,100
2,34,70,44
2,36,90,52
2,29,72,192
2,34,73,32
2,29,74,64
2,29,81,72
2,26,85,100
2,34,85,72
2,29,85,100
2,24,85,80
2,26,85,120
2,34,85,80
2,29,85,40
2,24,85,48
2,33,85,88
2,34,85,72
2,33,85,36
2,34,85,32
2,33,85,60
2,34,85,56
2,33,85,68
2,36,85,36
2,26,85,0
2,34,85,72
2,29,85,100
2,24,85,80
2,26,85,120
2,34,85,80
2,29,85,40
2,24,85,48
2,33,85,88
2,34,85,72
2,33,85,36
2,34,85,32
2,33,85,60
2,34,85,56
2,33,85,68
2,36,85,36
2,38,105,0
2,50,85,192
2,38,105,172
2,50,85,188
2,34,105,0
2,46,85,192
2,34,105,0
2,46,85,192
2,36,105,28
2,48,85,20
2,36,105,192
2,48,85,168
2,29,105,36
2,41,85,192
2,29,105,0
2,41,85,192
2,34,105,40
2,46,85,12
2,34,105,20
2,46,85,32
2,34,105,0
2,46,85,8
2,34,105,28
2,46,85,192
2,29,105,48
2,41,85,192
2,29,105,8
2,41,85,192
2,29,105,180
2,41,85,176
2,29,105,188
2,41,85,4
2,38,105,12
2,50,85,192
2,38,105,172
2,50,85,188
2,34,105,0
2,46,85,192
2,34,105,0
2,46,85,192
2,36,105,28
2,48,85,20
2,36,105,192
2,48,85,168
2,29,105,36
2,41,85,192
2,29,105,0
2,41,85,192
2,34,105,40
2,46,85,12
2,34,105,20
2,46,85,32
2,34,105,0
2,46,85,8
2,34,105,28
2,46,85,192
2,29,105,48
2,41,85,192
2,29,105,8
2,41,85,192
2,29,105,180
2,41,85,176
2,29,105,188
2,41,85,4
2,38,105,1548
2,50,85,192
2,38,105,172
2,50,85,188
2,38,105,0
2,50,85,192
2,38,105,172
2,50,85,188
2,34,105,0
2,46,85,192
2,34,105,0
2,46,85,192
2,34,105,28
2,46,85,20
2,34,105,192
2,46,85,168
2,29,105,36
2,41,85,192
2,29,105,0
2,41,85,192
2,29,105,40
2,41,85,192
2,29,105,0
2,41,85,192
2,36,105,40
2,48,85,192
2,36,105,0
2,48,85,192
2,36,105,40
2,48,85,192
2,36,105,0
2,48,85,192
2,38,105,40
2,50,85,192
2,38,105,172
2,50,85,188
2,38,105,0
2,50,85,192
2,38,105,172
2,50,85,188
2,34,105,0
2,46,85,192
2,34,105,0
2,46,85,192
2,34,105,28
2,46,85,20
2,34,105,192
2,46,85,168
2,29,105,36
2,41,85,192
2,29,105,0
2,41,85,192
2,29,105,40
2,41,85,192
2,29,105,0
2,41,85,192
2,36,105,40
2,48,85,192
2,36,105,0
2,48,85,192
2,36,105,40
2,48,85,192
2,36,105,0
2,48,85,192
2,38,105,40
2,50,85,192
2,38,105,172
2,50,85,188
2,38,105,0
2,50,85,192
2,38,105,172
2,50,85,188
2,34,105,0
2,46,85,192
2,34,105,0
2,46,85,192
2,34,105,28
2,46,85,20
2,34,105,192
2,46,85,168
2,29,105,36
2,41,85,192
2,29,105,0
2,41,85,192
2,29,105,40
2,41,85,192
2,29,105,0
2,41,85,192
2,36,105,40
2,48,85,192
2,36,105,0
2,48,85,192
2,36,105,40
2,48,85,192
2,36,105,0
2,48,85,192
2,38,105,40
2,50,85,192
2,38,105,172
2,50,85,188
2,38,105,0
2,50,85,192
2,38,105,172
2,50,85,188
2,34,105,0
2,46,85,192
2,34,105,0
2,46,85,192
2,34,105,28
2,46,85,20
2,34,105,192
2,46,85,168
2,29,105,36
2,41,85,192
2,29,105,0
2,41,85,192
2,29,105,40
2,41,85,192
2,29,105,0
2,41,85,192
2,36,105,40
2,48,85,192
2,36,105,0
2,48,85,192
2,36,105,40
2,48,85,192
2,36,105,0
2,48,85,192
2,33,105,40
2,45,85,192
2,33,105,172
2,45,85,188
2,33,105,0
2,45,85,192
2,33,105,172
2,45,85,188
2,34,105,0
2,46,85,192
2,34,105,0
2,46,85,192
2,34,105,28
2,46,85,20
2,34,105,192
2,46,85,168
2,33,105,36
2,45,85,192
2,33,105,0
2,45,85,192
2,33,105,40
2,45,85,192
2,33,105,0
2,45,85,192
2,34,105,40
2,46,85,192
2,34,105,0
2,46,85,192
2,34,105,40
2,46,85,192
2,34,105,0
2,46,85,192
2,33,105,40
2,45,85,192
2,33,105,172
2,45,85,188
2,33,105,0
2,45,85,192
2,33,105,172
2,45,85,188
2,34,105,0
2,46,85,192
2,34,105,0
2,46,85,192
2,34,105,28
2,46,85,20
2,34,105,192
2,46,85,168
2,33,105,36
2,45,85,192
2,33,105,0
2,45,85,192
2,33,105,40
2,45,85,192
2,33,105,0
2,45,85,192
2,36,105,40
2,48,85,192
2,36,105,0
2,48,85,192
2,36,105,40
2,48,85,192
2,36,105,0
2,48,85,192
2,36,105,40
2,48,85,192
2,36,105,0
2,48,85,192
2,36,105,40
2,48,85,192
2,36,105,0
2,48,85,192
2,38,105,40
2,50,85,192
2,38,105,172
2,50,85,188
2,34,105,0
2,46,85,192
2,34,105,0
2,46,85,192
2,36,105,28
2,48,85,20
2,36,105,192
2,48,85,168
2,29,105,36
2,41,85,192
2,29,105,0
2,41,85,192
2,34,105,40
2,46,85,12
2,34,105,20
2,46,85,32
2,34,105,0
2,46,85,8
2,34,105,28
2,46,85,192
2,29,105,48
2,41,85,192
2,29,105,8
2,41,85,192
2,29,105,180
2,41,85,176
2,29,105,188
2,41,85,4
2,38,105,12
2,50,85,192
2,38,105,172
2,50,85,188
2,34,105,0
2,46,85,192
2,34,105,0
2,46,85,192
2,36,105,28
2,48,85,20
2,36,105,192
2,48,85,168
2,29,105,36
2,41,85,192
2,29,105,0
2,41,85,192
2,34,105,40
2,46,85,12
2,34,105,20
2,46,85,32
2,34,105,0
2,46,85,8
2,34,105,28
2,46,85,192
2,29,105,48
2,41,85,192
2,29,105,8
2,41,85,192
2,29,105,180
2,41,85,176
2,29,105,188
2,41,85,4
2,38,105,12
2,50,85,192
2,38,105,172
2,50,85,188
2,34,105,0
2,46,85,192
2,34,105,0
2,46,85,192
2,36,105,28
2,48,85,20
2,36,105,192
2,48,85,168
2,29,105,36
2,41,85,192
2,29,105,0
2,41,85,192
2,34,105,40
2,46,85,12
2,34,105,20
2,46,85,32
2,34,105,0
2,46,85,8
2,34,105,28
2,46,85,192
2,29,105,48
2,41,85,192
2,29,105,8
2,41,85,192
2,29,105,180
2,41,85,176
2,29,105,188
2,41,85,4
2,38,105,12
2,50,85,192
2,38,105,172
2,50,85,188
2,34,105,0
2,46,85,192
2,34,105,0
2,46,85,192
2,36,105,28
2,48,85,20
2,36,105,192
2,48,85,168
2,29,105,36
2,41,85,192
2,29,105,0
2,41,85,192
2,34,105,40
2,46,85,12
2,34,105,20
2,46,85,32
2,34,105,0
2,46,85,8
2,34,105,28
2,46,85,192
2,29,105,48
2,41,85,192
2,29,105,8
2,41,85,192
2,29,105,180
2,41,85,176
2,29,105,188
2,41,85,4
2,38,105,12
2,50,85,192
2,38,105,172
2,50,85,188
2,34,105,0
2,46,85,192
2,34,105,0
2,46,85,192
2,36,105,28
2,48,85,20
2,36,105,192
2,48,85,168
2,29,105,36
2,41,85,192
2,29,105,0
2,41,85,192
2,34,105,40
2,46,85,12
2,34,105,20
2,46,85,32
2,34,105,0
2,46,85,8
2,34,105,28
2,46,85,192
2,29,105,48
2,41,85,192
2,29,105,8
2,41,85,192
2,29,105,180
2,41,85,176
2,29,105,188
2,41,85,4
3,62,123,684
3,38,123,0
3,60,118,0
3,62,114,4
3,46,120,4
3,60,118,28
3,62,114,384
3,48,105,32
3,55,114,32
3,60,108,4
3,41,112,0
3,41,112,40
3,56,100,32
3,57,120,40
3,53,114,340
3,46,95,12
3,50,114,32
3,55,120,384
3,48,105,4
3,52,114,28
3,57,114,28
3,41,114,4
3,41,114,28
3,62,114,104
3,38,123,0
3,60,118,0
3,62,114,4
3,46,120,4
3,60,118,28
3,62,114,384
3,48,105,32
3,55,114,32
3,60,108,4
3,41,112,0
3,41,112,40
3,56,100,32
3,57,120,40
3,53,114,340
3,46,95,12
3,50,114,32
3,55,120,384
3,48,105,4
3,52,114,28
3,53,114,28
3,41,114,4
3,41,114,28
3,43,105,96
3,41,105,24
3,40,105,32
3,38,81,40
3,65,113,3908
3,64,102,192
3,62,85,32
3,65,77,1220
3,60,95,192
3,53,67,192
3,60,86,1872
3,57,86,0
3,64,86,0
3,57,80,88
3,60,83,168
3,57,86,144
3,60,86,176
3,62,86,0
3,53,86,164
3,58,86,0
3,60,83,868
3,64,83,0
3,57,83,0
3,58,89,148
3,53,89,0
3,62,89,0
3,53,86,60
3,58,86,24
3,62,89,192
3,46,89,192
3,60,77,16
3,57,77,0
3,64,77,0
3,60,77,88
3,57,77,148
3,58,86,152
3,53,86,0
3,62,86,0
3,60,64,88
3,57,59,0
3,64,60,0
3,60,77,112
3,55,65,0
3,64,60,0
3,48,67,1344
3,58,74,172
3,64,62,0
3,55,69,0
3,48,65,336
3,58,65,20
3,64,62,0
3,55,69,0
3,55,60,0
3,60,69,0
3,38,95,0
3,62,67,0
3,65,85,0
3,57,80,192
3,65,80,156
3,62,80,0
3,57,83,172
3,62,89,308
3,65,89,0
3,58,89,340
3,46,95,148
3,65,95,0
3,62,95,0
3,58,80,0
3,62,67,0
3,65,81,0
3,58,81,100
3,46,91,0
3,57,80,20
3,41,105,0
3,60,80,192
3,65,80,0
3,57,80,68
3,57,77,56
3,60,80,0
3,65,80,0
3,57,80,4
3,48,95,60
3,60,95,0
3,64,95,0
3,55,95,0
3,48,102,96
3,64,108,0
3,65,77,24
3,64,90,32
3,48,117,120
3,38,95,4
3,62,67,0
3,65,85,0
3,57,80,192
3,65,80,156
3,62,80,0
3,57,83,172
3,62,89,308
3,65,89,0
3,58,89,340
3,46,95,148
3,65,95,0
3,62,95,0
3,58,80,0
3,62,67,0
3,65,81,0
3,58,81,100
3,46,91,0
3,57,80,20
3,41,105,0
3,60,80,192
3,65,80,0
3,57,80,68
3,57,77,56
3,60,80,0
3,65,80,0
3,57,80,4
3,48,95,60
3,60,95,0
3,64,95,0
3,55,95,0
3,48,98,96
3,48,96,20
3,60,108,200
3,46,98,20
3,62,95,8
3,45,95,4
3,57,95,0
3,60,95,0
3,62,95,0
3,64,98,96
3,62,65,96
3,65,85,0
3,46,77,0
3,58,85,0
3,65,85,60
3,62,95,192
3,58,73,120
3,62,85,64
3,45,85,0
3,60,101,0
3,64,98,360
3,57,98,192
3,58,80,92
3,46,77,0
3,62,80,0
3,53,80,0
3,46,81,132
3,53,83,8
3,58,81,188
3,62,83,192
3,53,83,164
3,45,85,28
3,64,101,0
3,60,98,384
3,57,98,192
3,58,80,92
3,46,77,0
3,62,80,0
3,53,80,0
3,46,81,132
3,53,83,8
3,58,81,188
3,62,83,192
3,53,83,164
3,45,85,28
3,60,101,0
3,64,98,384
3,57,98,192
3,45,96,192
3,48,95,0
3,60,60,0
3,64,60,0
3,55,62,0
3,48,95,96
3,55,92,4
3,60,97,4
3,48,90,72
3,48,89,56
3,64,72,192
3,55,65,0
3,60,69,0
3,48,86,68
3,55,77,120
3,65,81,68
3,48,86,0
3,55,74,16
3,48,85,0
3,64,85,192
3,48,89,48
3,62,123,24
3,38,123,0
3,60,118,0
3,62,114,4
3,46,120,4
3,60,118,28
3,62,114,384
3,48,105,32
3,55,114,32
3,60,108,4
3,41,112,0
3,41,112,40
3,56,100,32
3,57,120,40
3,53,114,340
3,46,95,12
3,50,114,32
3,55,120,384
3,48,105,4
3,52,114,28
3,57,114,28
3,41,114,4
3,41,114,28
3,62,114,104
3,38,123,0
3,60,118,0
3,62,114,4
3,46,120,4
3,60,118,28
3,62,114,384
3,48,105,32
3,55,114,32
3,60,108,4
3,41,112,0
3,41,112,40
3,56,100,32
3,57,120,40
3,53,114,340
3,46,95,12
3,50,114,32
3,55,120,384
3,48,105,4
3,52,114,28
3,53,114,28
3,41,114,4
3,41,114,28
3,65,101,4896
3,60,101,192
3,64,102,988
3,65,95,0
3,64,95,0
3,60,98,0
3,62,98,0
3,65,117,1696
3,57,104,8
3,64,110,1284
3,65,104,16
3,64,102,16
3,60,98,24
3,62,101,216
3,60,101,4
3,62,101,12
3,60,98,60
3,62,101,20
3,60,86,52
3,58,83,12
3,60,74,44
3,56,70,4
3,57,85,0
3,64,107,1148
3,65,107,32
3,64,107,24
3,60,107,32
3,62,68,4
3,62,101,96
3,60,101,4
3,62,101,12
3,60,98,60
3,62,101,20
3,60,86,52
3,58,83,12
3,60,74,44
3,56,70,4
3,57,85,0
3,41,95,340
3,48,95,192
3,53,95,0
3,57,98,36
3,55,98,32
3,64,104,1136
3,60,95,384
3,57,86,192
3,60,95,64
3,64,95,0
3,53,92,0
3,62,92,0
3,58,92,0
3,53,98,116
3,62,98,0
3,58,98,0
3,57,102,8
3,64,107,384
3,60,104,192
3,57,92,96
3,65,98,92
3,62,98,0
3,58,98,0
3,65,98,92
3,62,98,8
3,58,98,192
3,62,92,120
3,57,101,0
3,64,98,376
3,57,101,96
3,60,98,384
3,53,98,0
3,58,98,0
3,62,98,0
3,64,74,96
3,57,85,0
3,60,95,0
3,64,90,96
3,48,81,0
3,55,86,192
3,60,86,192
3,64,85,112
3,48,77,28
3,55,77,68
3,60,77,172
3,64,81,188
3,48,89,164
3,55,92,28
3,60,92,4
3,65,92,192
3,48,92,120
3,64,92,160
3,48,98,108
3,62,123,100
3,38,123,0
3,60,118,0
3,62,114,4
3,46,120,4
3,60,118,28
3,62,114,384
3,48,105,32
3,55,114,32
3,60,108,4
3,41,112,0
3,41,112,40
3,56,100,32
3,57,120,40
3,53,114,340
3,46,95,12
3,50,114,32
3,55,120,384
3,48,105,4
3,52,114,28
3,57,114,28
3,41,114,4
3,41,114,28
3,62,114,104
3,38,123,0
3,60,118,0
3,62,114,4
3,46,120,4
3,60,118,28
3,62,114,384
3,48,105,32
3,55,114,32
3,60,108,4
3,41,112,0
3,41,112,40
3,56,100,32
3,57,120,40
3,53,114,340
3,46,95,12
3,50,114,32
3,55,120,384
3,48,105,4
3,52,114,28
3,53,114,28
3,41,114,4
3,41,114,28
3,62,123,672
3,38,123,0
3,60,118,0
3,62,114,4
3,46,120,4
3,60,118,28
3,62,114,384
3,48,105,32
3,55,114,32
3,60,108,4
3,41,112,0
3,41,112,40
3,56,100,32
3,57,120,40
3,53,114,340
3,46,95,12
3,50,114,32
3,55,120,384
3,48,105,4
3,52,114,28
3,57,114,28
3,41,114,4
3,41,114,28
3,62,114,104
3,38,123,0
3,60,118,0
3,62,114,4
3,46,120,4
3,60,118,28
3,62,114,384
3,48,105,32
3,55,114,32
3,60,108,4
3,41,112,0
3,41,112,40
3,56,100,32
3,57,120,40
3,53,114,340
3,46,95,12
3,50,114,32
3,55,120,384
3,48,105,4
3,52,114,28
3,53,114,28
3,41,114,4
3,41,114,28
3,62,123,672
3,38,123,0
3,60,118,0
3,62,114,4
3,46,120,4
3,60,118,28
3,62,114,384
3,48,105,32
3,55,114,32
3,60,108,4
3,41,112,0
3,41,112,40
3,56,100,32
3,57,120,40
3,53,114,340
3,46,95,12
3,50,114,32
3,55,120,384
3,48,105,4
3,52,114,28
3,57,114,28
3,41,114,4
3,41,114,28
3,62,114,104
3,38,123,0
3,60,118,0
3,62,114,4
3,46,120,4
3,60,118,28
3,62,114,384
3,48,105,32
3,55,114,32
3,60,108,4
3,41,112,0
3,41,112,40
3,56,100,32
3,57,120,40
3,53,114,340
3,46,95,12
3,50,114,32
3,55,120,384
3,48,105,4
3,52,114,28
3,53,114,28
3,41,114,4
3,41,114,28
4,65,89,13312
4,65,89,92
4,65,89,112
4,65,89,92
4,69,89,120
4,65,89,80
4,62,89,16
4,65,89,44
4,65,89,388
4,65,89,120
4,65,89,120
4,64,89,52
4,64,89,92
4,65,89,1160
4,65,89,92
4,65,89,92
4,65,89,112
4,65,89,92
4,69,89,120
