track,note,velocity,time
1,69,57,15758
1,66,57,0
1,61,56,0
1,54,53,0
1,42,73,0
1,47,73,863
1,62,68,0
1,66,56,0
1,69,58,0
1,40,76,66
1,52,63,0
1,59,61,0
1,64,67,0
1,68,64,0
1,33,77,765
1,45,66,0
1,57,56,0
1,59,63,0
1,61,64,0
1,64,64,0
1,42,74,665
1,54,53,0
1,61,63,0
1,66,66,0
1,69,61,0
1,35,74,609
1,47,71,0
1,62,66,0
1,66,71,0
1,69,66,0
1,40,79,574
1,52,60,0
1,59,64,0
1,64,68,0
1,68,64,0
1,33,81,623
1,45,72,0
1,57,67,0
1,59,67,0
1,61,69,0
1,64,68,0
1,42,74,780
1,54,53,0
1,61,63,0
1,66,66,0
1,69,61,0
1,35,74,609
1,47,71,0
1,62,66,0
1,66,71,0
1,69,66,0
1,40,79,574
1,52,60,0
1,59,64,0
1,64,68,0
1,68,64,0
1,33,81,623
1,45,72,0
1,57,67,0
1,59,67,0
1,61,69,0
1,64,68,0
1,42,74,780
1,54,53,0
1,61,63,0
1,66,66,0
1,69,61,0
1,35,74,609
1,47,71,0
1,62,66,0
1,66,71,0
1,69,66,0
1,40,79,574
1,52,60,0
1,59,64,0
1,64,68,0
1,68,64,0
1,33,81,623
1,45,72,0
1,57,67,0
1,59,67,0
1,61,69,0
1,64,68,0
1,49,67,44
1,37,68,0
1,59,68,0
1,61,82,0
1,66,68,0
1,65,79,1494
1,66,84,1524
1,68,68,8
1,42,83,64
1,54,63,0
1,61,66,0
1,66,67,0
1,69,67,0
1,47,83,831
1,62,78,0
1,66,66,0
1,69,68,0
1,40,76,66
1,52,63,0
1,59,61,0
1,64,67,0
1,68,64,0
1,33,77,765
1,45,66,0
1,57,56,0
1,59,63,0
1,61,64,0
1,64,64,0
1,42,74,665
1,54,53,0
1,61,63,0
1,66,66,0
1,69,61,0
1,35,74,609
1,47,71,0
1,62,66,0
1,66,71,0
1,69,66,0
1,40,79,574
1,52,60,0
1,59,64,0
1,64,68,0
1,68,64,0
1,71,68,621
1,33,81,2
1,45,72,0
1,57,67,0
1,59,67,0
1,61,69,0
1,64,68,0
1,69,79,566
1,68,76,545
1,42,74,0
1,54,53,0
1,61,63,0
1,66,66,0
1,69,61,0
1,35,74,0
1,47,71,0
1,62,66,0
1,66,71,0
1,69,66,0
1,40,79,574
1,52,60,0
1,59,64,0
1,64,68,0
1,68,64,0
1,33,81,623
1,45,72,0
1,57,67,0
1,59,67,0
1,61,69,0
1,64,68,0
1,42,74,780
1,54,53,0
1,61,63,0
1,66,66,0
1,69,61,0
1,35,74,609
1,47,71,0
1,62,66,0
1,66,71,0
1,69,66,0
1,40,79,574
1,52,60,0
1,59,64,0
1,64,68,0
1,68,64,0
1,33,81,623
1,45,72,0
1,57,67,0
1,59,67,0
1,61,69,0
1,64,68,0
1,49,67,44
1,37,68,0
1,59,68,0
1,61,82,0
1,66,68,0
1,65,79,1494
1,66,84,1524
1,68,68,8
1,54,91,16
1,69,73,0
1,61,82,0
1,66,84,0
1,50,99,25
1,66,82,0
1,62,84,0
1,57,84,0
1,52,87,768
1,59,84,0
1,64,84,0
1,68,84,0
1,61,87,7
1,64,79,0
1,56,79,0
1,49,95,0
1,57,71,7
1,69,69,0
1,59,76,0
1,66,82,0
1,62,82,0
1,47,95,0
1,66,84,22
1,61,82,0
1,69,73,0
1,54,91,0
1,57,84,25
1,62,84,0
1,66,82,0
1,50,99,0
1,68,84,768
1,64,84,0
1,59,84,0
1,52,87,0
1,49,95,7
1,56,79,0
1,64,79,0
1,61,87,0
1,47,95,7
1,62,82,0
1,66,82,0
1,59,76,0
1,69,69,0
1,57,71,0
1,49,87,22
1,59,84,0
1,61,84,0
1,66,84,0
1,65,68,1131
1,68,67,363
1,65,61,1153
1,61,69,0
1,64,69,0
1,66,69,0
1,69,67,0
1,54,68,0
1,47,69,4
1,62,73,0
1,66,66,0
1,57,63,0
1,59,60,0
1,64,66,29
1,68,63,0
1,52,76,0
1,59,63,0
1,64,43,5
1,61,64,0
1,69,63,0
1,54,79,0
1,66,64,0
1,42,83,142
1,54,63,0
1,61,66,0
1,66,67,0
1,69,67,0
1,47,83,831
1,62,78,0
1,66,66,0
1,69,68,0
1,40,76,66
1,52,63,0
1,59,61,0
1,64,67,0
1,68,64,0
1,33,77,765
1,45,66,0
1,57,56,0
1,59,63,0
1,61,64,0
1,64,64,0
1,42,74,665
1,54,53,0
1,61,63,0
1,66,66,0
1,69,61,0
1,35,74,609
1,47,71,0
1,62,66,0
1,66,71,0
1,69,66,0
1,40,79,574
1,52,60,0
1,59,64,0
1,64,68,0
1,68,64,0
1,71,68,621
1,33,81,2
1,45,72,0
1,57,67,0
1,59,67,0
1,61,69,0
1,64,68,0
1,69,79,566
1,68,76,545
1,42,74,0
1,54,53,0
1,61,63,0
1,66,66,0
1,69,61,0
1,35,74,0
1,47,71,0
1,62,66,0
1,66,71,0
1,69,66,0
1,40,79,574
1,52,60,0
1,59,64,0
1,64,68,0
1,68,64,0
1,33,81,623
1,45,72,0
1,57,67,0
1,59,67,0
1,61,69,0
1,64,68,0
1,42,74,780
1,54,53,0
1,61,63,0
1,66,66,0
1,69,61,0
1,35,74,609
1,47,71,0
1,62,66,0
1,66,71,0
1,69,66,0
1,40,79,574
1,52,60,0
1,59,64,0
1,64,68,0
1,68,64,0
1,33,81,623
1,45,72,0
1,57,67,0
1,59,67,0
1,61,69,0
1,64,68,0
1,37,68,12
1,66,68,0
1,61,82,0
1,59,68,0
1,49,67,0
1,65,79,1526
1,66,84,1556
1,68,68,8
1,42,83,81
1,54,63,0
1,61,66,0
1,66,67,0
1,69,67,0
1,47,83,831
1,62,78,0
1,66,66,0
1,69,68,0
1,40,76,66
1,52,63,0
1,59,61,0
1,64,67,0
1,68,64,0
1,33,77,765
1,45,66,0
1,57,56,0
1,59,63,0
1,61,64,0
1,64,64,0
1,42,74,665
1,54,53,0
1,61,63,0
1,66,66,0
1,69,61,0
1,35,74,609
1,47,71,0
1,62,66,0
1,66,71,0
1,69,66,0
1,40,79,574
1,52,60,0
1,59,64,0
1,64,68,0
1,68,64,0
1,71,68,621
1,33,81,2
1,45,72,0
1,57,67,0
1,59,67,0
1,61,69,0
1,64,68,0
1,69,79,566
1,68,76,545
1,42,74,0
1,54,53,0
1,61,63,0
1,66,66,0
1,69,61,0
1,35,74,0
1,47,71,0
1,62,66,0
1,66,71,0
1,69,66,0
1,40,79,574
1,52,60,0
1,59,64,0
1,64,68,0
1,68,64,0
1,33,81,623
1,45,72,0
1,57,67,0
1,59,67,0
1,61,69,0
1,64,68,0
1,42,74,780
1,54,53,0
1,61,63,0
1,66,66,0
1,69,61,0
1,35,74,609
1,47,71,0
1,62,66,0
1,66,71,0
1,69,66,0
1,40,79,574
1,52,60,0
1,59,64,0
1,64,68,0
1,68,64,0
1,33,81,623
1,45,72,0
1,57,67,0
1,59,67,0
1,61,69,0
1,64,68,0
1,49,67,44
1,37,68,0
1,59,68,0
1,61,82,0
1,66,68,0
1,65,79,1494
1,66,84,1524
1,68,68,8
1,54,91,16
1,69,73,0
1,61,82,0
1,66,84,0
1,50,99,25
1,66,82,0
1,62,84,0
1,57,84,0
1,52,87,768
1,59,84,0
1,64,84,0
1,68,84,0
1,61,87,7
1,64,79,0
1,56,79,0
1,49,95,0
1,57,71,7
1,69,69,0
1,59,76,0
1,66,82,0
1,62,82,0
1,47,95,0
1,54,91,22
1,69,73,0
1,61,82,0
1,66,84,0
1,50,99,25
1,66,82,0
1,62,84,0
1,57,84,0
1,52,87,768
1,59,84,0
1,64,84,0
1,68,84,0
1,61,87,7
1,64,79,0
1,56,79,0
1,49,95,0
1,57,71,7
1,69,69,0
1,59,76,0
1,66,82,0
1,62,82,0
1,47,95,0
1,66,84,22
1,61,82,0
1,69,73,0
1,54,91,0
1,57,84,25
1,62,84,0
1,66,82,0
1,50,99,0
1,68,84,768
1,64,84,0
1,59,84,0
1,52,87,0
1,49,95,7
1,56,79,0
1,64,79,0
1,61,87,0
1,47,95,7
1,62,82,0
1,66,82,0
1,59,76,0
1,69,69,0
1,57,71,0
1,49,87,22
1,59,84,0
1,61,84,0
1,66,84,0
1,65,84,0
1,54,91,0
1,69,73,0
1,61,82,0
1,66,84,0
1,50,99,25
1,66,82,0
1,62,84,0
1,57,84,0
1,52,87,768
1,59,84,0
1,64,84,0
1,68,84,0
1,61,87,7
1,64,79,0
1,56,79,0
1,49,95,0
1,57,71,7
1,69,69,0
1,59,76,0
1,66,82,0
1,62,82,0
1,47,95,0
1,54,91,22
1,69,73,0
1,61,82,0
1,66,84,0
1,50,99,25
1,66,82,0
1,62,84,0
1,57,84,0
1,52,87,768
1,59,84,0
1,64,84,0
1,68,84,0
1,61,87,7
1,64,79,0
1,56,79,0
1,49,95,0
1,57,71,7
1,69,69,0
1,59,76,0
1,66,82,0
1,62,82,0
1,47,95,0
1,66,84,22
1,61,82,0
1,69,73,0
1,54,91,0
1,57,84,25
1,62,84,0
1,66,82,0
1,50,99,0
1,68,84,768
1,64,84,0
1,59,84,0
1,52,87,0
1,49,95,7
1,56,79,0
1,64,79,0
1,61,87,0
1,47,95,7
1,62,82,0
1,66,82,0
1,59,76,0
1,69,69,0
1,57,71,0
1,49,87,22
1,59,84,0
1,61,84,0
1,66,84,0
1,65,84,0
1,66,84,0
1,61,82,0
1,69,73,0
1,54,91,0
1,57,84,25
1,62,84,0
1,66,82,0
1,50,99,0
1,68,84,768
1,64,84,0
1,59,84,0
1,52,87,0
1,49,95,7
1,56,79,0
1,64,79,0
1,61,87,0
1,47,95,7
1,62,82,0
1,66,82,0
1,59,76,0
1,69,69,0
1,57,71,0
1,66,58,5
1,59,61,2
1,57,52,1
1,61,56,1
1,71,56,16
1,69,7,7
2,81,61,3453
2,78,46,194
2,81,45,161
2,85,48,177
2,81,40,169
2,85,35,145
2,81,21,171
2,85,24,178
2,81,64,204
2,78,55,161
2,81,61,188
2,85,46,151
2,83,55,182
2,76,30,175
2,83,26,170
2,76,23,127
2,83,24,184
2,76,11,11
2,83,11,17
2,76,6,16
2,78,36,2532
2,85,45,192
2,78,46,158
2,85,32,161
2,78,15,1
2,85,21,192
2,78,11,17
2,81,62,191
2,78,53,18
2,81,60,168
2,85,62,146
2,83,60,185
2,76,45,163
2,83,45,167
2,76,22,166
2,83,28,159
2,76,24,173
2,83,26,171
2,76,19,177
2,83,16,180
2,76,14,180
2,83,8,126
2,76,6,22
2,78,52,9441
2,81,56,190
2,85,57,163
2,81,45,172
2,85,45,161
2,81,45,174
2,83,47,160
2,69,48,21671
2,66,43,194
2,69,46,171
2,66,27,187
2,69,22,5
2,66,6,47
2,69,48,34
2,66,50,194
2,78,55,1
2,81,43,177
2,69,43,0
2,85,45,179
2,66,27,1
2,81,46,177
2,69,20,4
2,66,14,161
2,85,40,4
2,81,33,31
2,69,5,14
2,83,31,5
2,66,5,5
2,69,62,3357
2,66,46,200
2,69,45,177
2,66,26,177
2,69,27,181
2,66,20,182
2,69,17,17
2,73,54,25
2,66,12,144
2,78,43,13
2,69,17,128
2,81,39,19
2,66,11,91
2,85,48,22
2,69,6,8
2,81,37,15
2,66,5,162
2,85,38,24
2,69,6,145
2,81,44,52
2,66,6,57
2,83,24,1
2,83,63,2057
2,81,48,194
2,80,55,127
2,73,45,0
2,69,61,208
2,69,48,160
2,66,45,184
2,73,56,367
2,69,62,192
2,73,58,32
2,78,55,171
2,81,55,159
2,85,44,43
2,81,50,197
2,85,42,164
2,81,37,172
2,83,37,145
2,71,64,1158
2,69,41,201
2,71,53,51
2,69,50,187
2,69,50,191
2,68,58,189
2,78,48,1922
2,81,45,188
2,85,44,150
2,81,43,164
2,85,47,163
2,81,38,167
2,83,45,136
2,83,47,2000
2,83,59,95
2,81,47,204
2,80,47,121
2,73,48,139
2,73,69,15254
2,66,57,185
2,66,64,96
2,73,66,22
2,66,69,1
2,66,64,96
2,71,68,0
2,73,52,1
2,71,68,184
2,66,62,183
2,81,61,4207
2,78,55,206
2,81,46,157
2,78,22,167
2,81,35,179
2,78,26,148
2,81,40,173
2,73,64,24
2,78,37,3
2,74,55,178
2,78,64,176
2,81,55,183
2,85,56,161
2,76,38,25
2,83,52,0
2,80,46,23
2,76,45,17
2,81,55,55
2,78,38,181
2,81,47,183
2,78,47,179
2,81,46,170
2,78,28,166
2,81,28,186
2,78,27,166
2,81,27,188
2,78,21,174
2,81,16,12
2,78,7,25
2,78,50,1369
2,81,55,209
2,73,51,236
2,71,50,0
2,78,50,4779
2,81,55,209
2,73,69,236
2,71,72,0
2,80,55,1707
2,83,59,208
2,71,62,224
2,69,62,204
2,81,50,1502
2,78,41,204
2,81,52,10
2,78,48,2
2,73,52,188
2,71,44,5
2,80,49,1585
2,83,49,213
2,69,61,141
2,69,52,72
2,78,54,1243
2,81,54,194
2,85,57,294
2,83,51,198
2,80,54,1778
2,83,59,212
2,71,49,251
2,69,51,221
2,77,54,3195
2,80,57,188
2,77,49,291
2,73,51,195
2,78,51,15688
2,81,59,192
2,73,64,297
2,71,73,192
2,80,57,1863
2,83,59,203
2,69,64,204
2,69,54,48
2,77,64,8618
2,80,59,201
2,77,57,199
2,73,46,3
3,66,79,40328
3,65,87,11
3,63,84,10
3,66,71,6
3,68,66,15
3,65,79,4
3,66,79,24612
3,65,87,11
3,63,84,10
3,66,71,6
3,68,66,15
3,65,79,4
3,61,87,73
3,66,91,2
3,69,82,2
3,62,84,86
3,66,91,2
3,57,91,3
3,59,82,54
3,68,76,3
3,64,87,2
3,56,87,96
3,61,87,2
3,64,73,2
3,62,84,754
3,59,82,3
3,66,76,2
3,69,71,2
3,61,87,29
3,66,91,2
3,69,82,2
3,62,84,86
3,66,91,2
3,57,91,3
3,59,82,54
3,68,76,3
3,64,87,2
3,56,87,96
3,61,87,2
3,64,73,2
3,62,84,11
3,59,82,1
3,66,76,2
3,69,71,2
3,66,100,50
3,65,108,1149
3,68,100,43
3,65,87,1141
3,64,71,343
3,85,76,12319
3,83,78,69
3,81,73,194
3,78,73,65
3,81,81,40
3,83,87,91
3,85,81,4427
3,83,76,113
3,81,76,55
3,78,76,66
3,81,78,51
3,83,87,110
3,83,87,1398
3,81,81,98
3,80,81,35
3,78,84,64
3,80,87,53
3,73,87,105
3,66,79,6007
3,65,87,11
3,63,84,10
3,66,71,6
3,68,66,15
3,65,79,4
3,85,87,13866
3,83,81,44
3,81,84,31
3,78,81,17
3,81,84,3
3,83,84,31
3,83,89,1338
3,81,84,49
3,80,84,36
3,78,87,42
3,80,84,26
3,85,65,68
3,66,79,5430
3,65,87,11
3,73,71,10
3,63,84,0
3,71,66,3
3,78,62,2
3,66,71,1
3,77,64,1472
3,68,66,15
3,65,79,4
3,61,87,73
3,66,91,2
3,69,82,2
3,62,84,86
3,66,91,2
3,57,91,3
3,59,82,54
3,68,76,3
3,64,87,2
3,56,87,96
3,61,87,2
3,64,73,2
3,62,84,754
3,59,82,3
3,66,76,2
3,69,71,2
3,61,87,76
3,66,91,2
3,69,82,2
3,62,84,86
3,66,91,2
3,57,91,3
3,59,82,54
3,68,76,3
3,64,87,2
3,56,87,96
3,61,87,2
3,64,73,2
3,62,84,754
3,59,82,3
3,66,76,2
3,69,71,2
3,61,87,29
3,66,91,2
3,69,82,2
3,62,84,86
3,66,91,2
3,57,91,3
3,59,82,54
3,68,76,3
3,64,87,2
3,56,87,96
3,61,87,2
3,64,73,2
3,62,84,11
3,59,82,1
3,66,76,2
3,69,71,2
3,61,76,48
3,66,100,2
3,68,82,1
3,65,100,1540
3,61,87,47
3,66,91,2
3,69,82,2
3,62,84,86
3,66,91,2
3,57,91,3
3,59,82,54
3,68,76,3
3,64,87,2
3,56,87,96
3,61,87,2
3,64,73,2
3,62,84,754
3,59,82,3
3,66,76,2
3,69,71,2
3,61,87,76
3,66,91,2
3,69,82,2
3,62,84,86
3,66,91,2
3,57,91,3
3,59,82,54
3,68,76,3
3,64,87,2
3,56,87,96
3,61,87,2
