track,note,velocity,time
1,69,73,50983
1,65,73,73
1,62,72,80
1,62,48,202
1,65,45,144
1,58,79,129
1,62,79,0
1,65,70,0
1,58,49,123
1,58,36,125
1,62,39,0
1,60,72,125
1,64,68,0
1,67,77,0
1,60,57,116
1,60,55,128
1,64,40,0
1,60,82,150
1,64,82,0
1,67,71,0
1,60,67,120
1,60,72,141
1,64,48,0
1,67,24,0
1,58,62,39
1,62,79,0
1,65,70,0
1,58,47,124
1,58,23,118
1,65,58,0
1,58,70,112
1,62,76,0
1,65,65,0
1,58,51,100
1,62,37,0
1,58,58,114
1,62,63,0
1,65,56,0
1,57,75,300
1,60,78,0
1,65,72,0
1,57,60,152
1,60,58,108
1,57,68,127
1,60,71,0
1,65,61,0
1,69,66,542
1,65,79,58
1,62,83,62
1,62,63,76
1,59,75,326
1,62,78,0
1,67,77,0
1,59,50,0
1,59,52,140
1,59,46,121
1,62,40,0
1,67,53,0
1,60,81,19
1,64,77,0
1,67,70,0
1,60,61,171
1,64,60,122
1,60,79,150
1,67,68,0
1,60,39,109
1,64,76,0
1,60,58,123
1,58,86,27
1,62,83,0
1,65,79,0
1,62,63,299
1,58,45,121
1,58,79,127
1,62,77,0
1,65,68,0
1,58,52,73
1,58,42,109
1,62,68,0
1,65,41,0
1,57,63,8
1,60,66,0
1,65,73,0
1,57,39,159
1,60,40,0
1,65,56,0
1,57,70,104
1,60,73,121
1,65,49,0
1,57,45,93
1,65,62,0
1,60,67,97
1,57,57,63
1,65,70,0
1,69,73,49051
1,65,73,73
1,62,72,80
1,62,48,202
1,65,45,144
1,58,79,129
1,62,79,0
1,65,70,0
1,58,49,123
1,58,36,125
1,62,39,0
1,60,72,125
1,64,68,0
1,67,77,0
1,60,57,116
1,60,55,128
1,64,40,0
1,60,82,150
1,64,82,0
1,67,71,0
1,60,67,120
1,60,72,141
1,64,48,0
1,67,24,0
1,58,62,39
1,62,79,0
1,65,70,0
1,58,47,124
1,58,23,118
1,65,58,0
1,58,70,112
1,62,76,0
1,65,65,0
1,58,51,100
1,62,37,0
1,58,58,114
1,62,63,0
1,65,56,0
1,57,75,300
1,60,78,0
1,65,72,0
1,57,60,152
1,60,58,108
1,57,68,127
1,60,71,0
1,65,61,0
1,69,66,542
1,65,79,58
1,62,83,62
1,62,63,76
1,59,75,326
1,62,78,0
1,67,77,0
1,59,50,0
1,59,52,140
1,59,46,121
1,62,40,0
1,67,53,0
1,60,81,19
1,64,77,0
1,67,70,0
1,60,61,171
1,64,60,122
1,60,79,150
1,67,68,0
1,60,39,109
1,64,76,0
1,60,58,123
1,58,86,27
1,62,83,0
1,65,79,0
1,62,63,299
1,58,45,121
1,58,79,127
1,62,77,0
1,65,68,0
1,58,52,73
1,58,42,109
1,62,68,0
1,65,41,0
1,57,63,8
1,60,66,0
1,65,73,0
1,57,39,159
1,60,40,0
1,65,56,0
1,57,70,104
1,60,73,121
1,65,49,0
1,57,45,93
1,65,62,0
1,60,67,97
1,57,57,63
1,65,70,0
1,69,73,22
1,65,73,46
1,62,72,80
1,62,48,202
1,65,45,144
1,58,79,129
1,62,79,0
1,65,70,0
1,58,49,123
1,58,36,125
1,62,39,0
1,60,72,125
1,64,68,0
1,67,77,0
1,60,57,116
1,60,55,128
1,64,40,0
1,60,82,150
1,64,82,0
1,67,71,0
1,60,67,120
1,60,72,141
1,64,48,0
1,67,24,0
1,58,62,39
1,62,79,0
1,65,70,0
1,58,47,124
1,58,23,118
1,65,58,0
1,58,70,112
1,62,76,0
1,65,65,0
1,58,51,100
1,62,37,0
1,58,58,114
1,62,63,0
1,65,56,0
1,57,75,300
1,60,78,0
1,65,72,0
1,57,60,152
1,60,58,108
1,57,68,127
1,60,71,0
1,65,61,0
1,69,66,542
1,65,79,58
1,62,83,62
1,62,63,76
1,59,75,326
1,62,78,0
1,67,77,0
1,59,50,0
1,59,52,140
1,59,46,121
1,62,40,0
1,67,53,0
1,60,81,19
1,64,77,0
1,67,70,0
1,60,61,171
1,64,60,122
1,60,79,150
1,67,68,0
1,60,39,109
1,64,76,0
1,60,58,123
1,58,86,27
1,62,83,0
1,65,79,0
1,62,63,299
1,58,45,121
1,58,79,127
1,62,77,0
1,65,68,0
1,58,52,73
1,58,42,109
1,62,68,0
1,65,41,0
1,57,63,8
1,60,66,0
1,65,73,0
1,57,39,159
1,60,40,0
1,65,56,0
1,57,70,104
1,60,73,121
1,65,49,0
1,57,45,93
1,65,62,0
1,60,67,97
1,57,57,63
1,65,70,0
1,69,73,26
1,65,73,46
1,62,72,80
1,62,48,202
1,65,45,144
1,58,79,129
1,62,79,0
1,65,70,0
1,58,49,123
1,58,36,125
1,62,39,0
1,60,72,125
1,64,68,0
1,67,77,0
1,60,57,116
1,60,55,128
1,64,40,0
1,60,82,150
1,64,82,0
1,67,71,0
1,60,67,120
1,60,72,141
1,64,48,0
1,67,24,0
1,58,62,39
1,62,79,0
1,65,70,0
1,58,47,124
1,58,23,118
1,65,58,0
1,58,70,112
1,62,76,0
1,65,65,0
1,58,51,100
1,62,37,0
1,58,58,114
1,62,63,0
1,65,56,0
1,57,75,300
1,60,78,0
1,65,72,0
1,57,60,152
1,60,58,108
1,57,68,127
1,60,71,0
1,65,61,0
1,69,66,542
1,65,79,58
1,62,83,62
1,62,63,76
1,59,75,326
1,62,78,0
1,67,77,0
1,59,50,0
1,59,52,140
1,59,46,121
1,62,40,0
1,67,53,0
1,60,81,19
1,64,77,0
1,67,70,0
1,60,61,171
1,64,60,122
1,60,79,150
1,67,68,0
1,60,39,109
1,64,76,0
1,60,58,123
1,58,86,27
1,62,83,0
1,65,79,0
1,62,63,299
1,58,45,121
1,58,79,127
1,62,77,0
1,65,68,0
1,58,52,73
1,58,42,109
1,62,68,0
1,65,41,0
1,57,63,8
1,60,66,0
1,65,73,0
1,57,39,159
1,60,40,0
1,65,56,0
1,57,70,104
1,60,73,121
1,65,49,0
1,57,45,93
1,65,62,0
1,60,67,97
1,57,57,63
1,65,70,0
1,69,73,30
1,65,73,46
1,62,72,59
1,62,48,202
1,65,45,144
1,58,79,129
1,62,79,0
1,65,70,0
1,58,49,123
1,58,36,125
1,62,39,0
1,60,72,125
1,64,68,0
1,67,77,0
1,60,57,116
1,60,55,128
1,64,40,0
1,60,82,150
1,64,82,0
1,67,71,0
1,60,67,120
1,60,72,141
1,64,48,0
1,67,24,0
1,58,62,39
1,62,79,0
1,65,70,0
1,58,47,124
1,58,23,118
1,65,58,0
1,58,70,112
1,62,76,0
1,65,65,0
1,58,51,100
1,62,37,0
1,58,58,114
1,62,63,0
1,65,56,0
1,57,75,300
1,60,78,0
1,65,72,0
1,57,60,152
1,60,58,108
1,57,68,127
1,60,71,0
1,65,61,0
1,69,66,542
1,65,79,58
1,62,83,62
1,62,63,76
1,59,75,326
1,62,78,0
1,67,77,0
1,59,50,0
1,59,52,140
1,59,46,121
1,62,40,0
1,67,53,0
1,60,81,19
1,64,77,0
1,67,70,0
1,60,61,171
1,64,60,122
1,60,79,150
1,67,68,0
1,60,39,109
1,64,76,0
1,60,58,123
1,58,86,27
1,62,83,0
1,65,79,0
1,62,63,299
1,58,45,121
1,58,79,127
1,62,77,0
1,65,68,0
1,58,52,73
1,58,42,109
1,62,68,0
1,65,41,0
1,57,63,8
1,60,66,0
1,65,73,0
1,57,39,159
1,60,40,0
1,65,56,0
1,57,70,104
1,60,73,121
1,65,49,0
1,57,45,93
1,65,62,0
1,60,67,97
1,57,57,63
1,65,70,0
1,69,73,87
1,65,73,46
1,62,72,80
1,62,48,112
1,65,45,144
1,58,79,28
1,62,79,0
1,65,70,0
1,58,49,123
1,58,36,125
1,62,39,0
1,60,72,125
1,64,68,0
1,67,77,0
1,60,57,116
1,60,55,128
1,64,40,0
1,60,82,150
1,64,82,0
1,67,71,0
1,60,67,120
1,60,72,141
1,64,48,0
1,67,24,0
1,58,62,39
1,62,79,0
1,65,70,0
1,58,47,124
1,58,23,118
1,65,58,0
1,58,70,112
1,62,76,0
1,65,65,0
1,58,51,100
1,62,37,0
1,58,58,114
1,62,63,0
1,65,56,0
1,57,75,300
1,60,78,0
1,65,72,0
1,57,60,152
1,60,58,108
1,57,68,127
1,60,71,0
1,65,61,0
1,69,66,542
1,65,79,58
1,62,83,62
1,62,63,76
1,59,75,326
1,62,78,0
1,67,77,0
1,59,50,0
1,59,52,140
1,59,46,121
1,62,40,0
1,67,53,0
1,60,81,19
1,64,77,0
1,67,70,0
1,60,61,171
1,64,60,122
1,60,79,150
1,67,68,0
1,60,39,109
1,64,76,0
1,60,58,123
1,58,86,27
1,62,83,0
1,65,79,0
1,62,63,299
1,58,45,121
1,58,79,127
1,62,77,0
1,65,68,0
1,58,52,73
1,58,42,109
1,62,68,0
1,65,41,0
1,57,63,8
1,60,66,0
1,65,73,0
1,57,39,112
1,60,40,0
1,65,56,0
1,57,70,104
1,60,73,121
1,65,49,0
1,57,45,93
1,65,62,0
1,60,67,97
1,57,57,63
1,65,70,0
2,26,88,26496
2,28,93,0
2,29,77,0
2,33,67,0
2,31,77,0
2,26,80,96
2,31,97,0
2,31,74,96
2,36,82,0
2,34,93,0
2,33,93,0
2,34,85,384
2,31,105,0
2,29,93,0
2,31,77,0
2,33,85,0
2,34,97,96
2,34,85,96
2,33,89,0
2,33,67,96
2,38,85,0
2,26,85,0
2,27,93,0
2,27,82,96
2,39,74,0
2,27,82,0
2,39,74,0
2,26,105,96
2,24,97,0
2,26,85,288
2,31,93,0
2,36,93,0
2,29,82,96
2,34,93,0
2,29,89,0
2,29,97,96
2,26,97,0
2,31,105,0
2,36,101,0
2,34,97,192
2,29,93,0
2,26,80,0
2,33,77,0
2,34,74,0
2,34,80,96
2,34,85,96
2,36,74,96
2,38,74,0
2,26,71,0
2,33,82,0
2,31,82,0
2,31,62,96
2,31,80,96
2,31,64,96
2,24,67,0
2,36,67,0
2,34,89,0
2,33,85,0
2,33,56,96
2,33,71,96
2,33,66,96
2,34,64,0
2,34,85,96
2,33,77,0
2,31,89,0
2,26,90,288
2,28,93,0
2,29,77,0
2,33,67,0
2,31,77,0
2,26,93,96
2,31,97,0
2,31,74,96
2,36,82,0
2,34,93,0
2,33,93,0
2,34,85,384
2,31,105,0
2,29,93,0
2,31,90,0
2,26,83,0
2,28,93,0
2,29,77,0
2,33,67,0
2,31,77,0
2,26,93,96
2,31,97,0
2,31,74,96
2,36,82,0
2,33,93,0
2,34,85,384
2,31,105,0
2,29,93,0
2,31,77,0
2,33,85,0
2,34,97,96
2,34,85,96
2,33,89,0
2,33,67,96
2,38,85,0
2,26,85,0
2,27,93,0
2,27,82,96
2,39,74,0
2,27,82,0
2,39,74,0
2,26,105,96
2,24,97,0
2,26,85,288
2,31,93,0
2,36,93,0
2,29,82,96
2,34,93,0
2,29,89,0
2,29,97,96
2,26,97,0
2,31,105,0
2,36,101,0
2,34,97,192
2,29,93,0
2,26,85,0
2,31,93,0
2,36,93,0
2,29,82,96
2,34,93,0
2,29,89,0
2,29,97,96
2,26,97,0
2,31,105,0
2,36,101,0
2,34,97,192
2,29,93,0
2,26,85,0
2,31,93,0
2,36,93,0
2,29,82,96
2,34,93,0
2,29,89,0
2,29,97,96
2,26,97,0
2,31,105,0
2,36,101,0
2,34,97,192
2,29,93,0
2,26,85,0
2,31,93,0
2,36,93,0
2,29,82,96
2,34,93,0
2,29,89,0
2,29,97,96
2,26,97,0
2,31,105,0
2,36,101,0
2,34,97,192
2,29,93,0
2,26,85,0
2,31,93,0
2,36,93,0
2,29,82,96
2,34,93,0
2,29,89,0
2,29,97,96
2,26,97,0
2,31,105,0
2,36,101,0
2,34,97,192
2,29,93,0
2,29,93,96
3,57,56,38752
3,64,62,0
3,60,64,0
3,62,60,234
3,58,48,2
3,65,58,2
3,57,47,995
3,64,55,4
3,67,55,1
3,60,53,3
3,64,56,123
3,60,57,3
3,57,52,1
3,57,47,125
3,62,60,1
3,65,58,3
3,63,57,12
3,67,57,1
3,58,50,3
3,69,66,480
3,58,55,1
3,65,62,2
3,58,40,283
3,70,45,3
3,63,52,2
3,67,57,2
3,69,60,6
3,62,63,3
3,65,67,1
3,60,52,395
3,67,57,2
3,64,62,1
3,65,67,226
3,57,79,0
3,62,79,0
3,58,79,19
3,64,63,28
3,67,67,0
3,60,84,0
3,58,67,42
3,65,69,0
3,62,60,0
3,60,71,85
3,57,67,0
3,62,76,4
3,57,67,0
3,65,53,0
3,55,79,81
3,59,64,0
3,64,68,27
3,60,71,0
3,72,66,104
3,70,76,0
3,65,71,0
3,69,53,48
3,62,53,3
3,57,45,0
3,65,55,0
3,58,50,36
3,57,43,15
3,64,56,0
3,60,63,0
3,65,61,512
3,62,56,0
3,55,57,27
3,58,64,0
3,64,55,13
3,60,47,0
3,57,45,1536
3,58,58,38
3,62,56,0
3,65,52,0
3,55,52,33
3,60,64,24508
3,64,62,0
3,57,56,0
3,62,60,282
3,58,48,2
3,65,58,2
3,57,47,995
3,64,55,4
3,67,55,1
3,60,53,3
3,64,56,123
3,60,57,3
3,57,52,1
3,57,47,125
3,62,60,1
3,65,58,3
3,63,57,12
3,67,57,1
3,58,50,3
3,69,66,480
3,58,55,1
3,65,62,2
3,58,40,283
3,70,45,3
3,63,52,2
3,67,57,2
3,69,60,6
3,62,63,3
3,65,67,1
3,60,52,395
3,67,57,2
3,64,62,1
3,65,67,194
3,57,79,0
3,62,79,0
3,58,79,51
3,64,63,60
3,67,67,0
3,60,84,0
3,58,67,42
3,65,69,0
3,62,60,0
3,60,71,85
3,57,67,0
3,62,76,34
3,57,67,0
3,65,53,0
3,55,79,81
3,59,64,0
3,64,68,27
3,60,71,0
3,65,71,120
3,70,76,0
3,72,66,0
3,69,53,1632
3,65,67,33
3,57,79,0
3,62,79,0
3,58,79,19
3,64,63,12
3,67,67,0
3,60,84,0
3,58,67,58
3,65,69,0
3,62,60,0
3,60,71,85
3,57,67,0
3,62,76,34
3,57,67,0
3,65,53,0
3,55,79,81
3,59,64,0
3,64,68,27
3,60,71,0
3,65,71,120
3,70,76,0
3,72,66,0
3,69,53,32
3,65,67,33
3,57,79,0
3,62,79,0
3,58,79,19
3,64,63,12
3,67,67,0
3,60,84,0
3,58,67,58
3,65,69,0
3,62,60,0
3,60,71,101
3,57,67,0
3,62,76,34
3,57,67,0
3,65,53,0
3,55,79,81
3,59,64,0
3,64,68,43
3,60,71,0
3,65,71,120
3,70,76,0
3,72,66,0
3,69,53,16
3,65,67,33
3,57,79,0
3,62,79,0
3,58,79,19
3,60,84,12
3,67,67,0
3,64,63,0
3,58,67,58
3,65,69,0
3,62,60,0
3,60,71,85
3,57,67,0
3,62,76,34
3,57,67,0
3,65,53,0
3,55,79,81
3,59,64,0
3,64,68,27
3,60,71,0
3,65,71,120
3,70,76,0
3,72,66,0
3,69,53,64
3,65,67,17
3,57,79,0
3,62,79,0
3,58,79,35
3,64,63,44
3,67,67,0
3,60,84,0
3,58,67,42
3,65,69,0
3,62,60,0
3,60,71,85
3,57,67,0
3,62,76,34
3,57,67,0
3,65,53,0
3,55,79,81
3,59,64,0
3,64,68,27
3,60,71,0
3,72,66,72
3,70,76,0
3,65,71,0
3,69,53,128
3,77,63,98
3,60,68,2
3,69,66,3
4,65,76,2304
4,65,86,54
4,65,88,33
4,65,51,748
4,65,79,51
4,65,77,73
4,65,82,90
4,65,66,55
4,65,79,823
4,65,75,83
4,65,82,86
4,65,77,109
4,69,72,15
4,67,83,192
4,67,61,908
4,67,81,83
4,67,79,76
4,67,60,64
4,67,77,451
4,67,66,57
4,69,70,6
4,69,63,109
4,65,48,816
4,65,68,71
4,65,73,81
4,65,70,84
4,65,65,98
4,65,62,81
4,57,62,297
4,65,70,192
4,65,67,68
4,62,70,33
4,65,67,896
4,65,64,116
4,65,64,109
4,65,64,84
4,65,70,801
4,65,60,104
4,65,65,108
4,65,61,86
4,65,70,801
4,65,72,116
4,65,73,112
4,65,75,109
