track,note,velocity,time
0,36,127,312
0,44,125,0
0,36,0,4
0,44,0,0
0,42,79,92
0,42,0,4
0,40,127,92
0,44,123,0
0,40,0,4
0,44,0,0
0,36,124,92
0,42,86,0
0,36,0,4
0,42,0,0
0,44,123,92
0,44,0,4
0,36,127,92
0,42,87,0
0,36,0,4
0,42,0,0
0,40,126,92
0,44,123,0
0,40,0,4
0,44,0,0
0,44,127,92
0,44,0,4
0,42,92,44
0,42,0,4
0,36,121,44
0,44,124,0
0,36,0,4
0,44,0,0
0,42,89,92
0,42,0,4
0,40,123,92
0,44,127,0
0,40,0,4
0,44,0,0
0,36,126,53
0,42,88,0
0,36,0,4
0,42,0,0
0,44,122,92
0,44,0,4
0,42,93,44
0,42,0,4
0,46,126,44
0,46,0,4
0,40,124,92
0,42,88,0
0,40,0,4
0,42,0,0
0,46,124,92
0,46,0,4
0,43,99,92
0,55,104,0
0,67,104,0
0,50,103,0
0,55,103,0
0,36,124,0
0,44,127,0
0,36,0,4
0,44,0,0
0,50,0,75
0,55,0,0
0,43,0,15
0,55,0,0
0,67,0,0
0,43,101,2
0,50,100,0
0,55,101,0
0,62,101,0
0,50,105,0
0,55,103,0
0,42,84,0
0,42,0,4
0,43,0,90
0,50,0,0
0,55,0,0
0,62,0,0
0,50,0,0
0,55,0,0
0,43,103,2
0,55,103,0
0,67,104,0
0,50,101,0
0,55,98,0
0,40,126,0
0,44,127,0
0,40,0,4
0,44,0,0
0,43,0,90
0,55,0,0
0,67,0,0
0,50,0,0
0,55,0,0
0,36,124,2
0,42,82,0
0,36,0,4
0,42,0,0
0,44,121,92
0,44,0,4
0,36,125,92
0,42,84,0
0,36,0,4
0,42,0,0
0,40,127,92
0,44,125,0
0,40,0,4
0,44,0,0
0,44,125,92
0,44,0,4
0,42,92,44
0,42,0,4
0,45,98,44
0,50,98,0
0,57,97,0
0,62,99,0
0,50,104,0
0,57,101,0
0,36,123,0
0,44,125,0
0,36,0,4
0,44,0,0
0,50,0,75
0,57,0,0
0,45,0,15
0,50,0,0
0,57,0,0
0,62,0,0
0,45,100,2
0,50,103,0
0,57,98,0
0,62,100,0
0,50,104,0
0,57,102,0
0,42,84,0
0,42,0,4
0,45,0,90
0,50,0,0
0,57,0,0
0,62,0,0
0,50,0,0
0,57,0,0
0,45,98,2
0,50,99,0
0,57,101,0
0,62,103,0
0,50,100,0
0,57,104,0
0,40,124,0
0,44,125,0
0,40,0,4
0,44,0,0
0,45,0,90
0,50,0,0
0,57,0,0
0,62,0,0
0,50,0,0
0,57,0,0
0,36,107,2
0,48,107,0
0,36,122,0
0,42,84,0
0,36,0,4
0,42,0,0
0,44,127,60
0,44,0,4
0,42,86,92
0,42,0,4
0,40,127,2
0,44,126,0
0,40,0,4
0,44,0,0
0,42,82,7
0,42,0,4
0,43,104,23
0,55,101,0
0,67,103,0
0,50,103,0
0,55,103,0
0,36,123,0
0,44,123,0
0,36,0,4
0,44,0,0
0,36,0,15
0,48,0,0
0,50,0,60
0,55,0,0
0,43,0,15
0,55,0,0
0,67,0,0
0,43,98,2
0,50,102,0
0,55,100,0
0,62,103,0
0,50,105,0
0,55,105,0
0,42,79,0
0,42,0,4
0,43,0,90
0,50,0,0
0,55,0,0
0,62,0,0
0,50,0,0
0,55,0,0
0,43,104,2
0,55,103,0
0,67,104,0
0,50,99,0
0,55,98,0
0,40,126,0
0,44,122,0
0,59,125,2
0,71,127,0
0,40,0,2
0,44,0,0
0,59,0,46
0,71,0,0
0,59,121,42
0,71,126,0
0,43,0,2
0,55,0,0
0,67,0,0
0,50,0,0
0,55,0,0
0,36,123,2
0,42,79,0
0,36,0,4
0,42,0,0
0,59,0,47
0,71,0,0
0,44,127,45
0,44,0,4
0,60,125,2
0,72,127,0
0,42,80,65
0,42,0,4
0,60,0,13
0,72,0,0
0,31,106,51
0,43,112,0
0,40,126,0
0,44,123,0
0,40,0,4
0,44,0,0
0,57,125,9
0,69,127,0
0,42,86,4
0,42,0,4
0,45,103,0
0,50,103,0
0,57,100,0
0,62,101,0
0,50,102,0
0,57,100,0
0,36,126,0
0,44,127,0
0,36,0,4
0,44,0,0
0,42,89,2
0,42,0,4
0,44,127,92
0,44,0,4
0,57,121,3
0,57,0,47
0,42,92,42
0,42,0,4
0,57,127,5
0,57,0,47
0,44,121,40
0,44,0,4
0,57,124,1
0,42,88,43
0,42,0,4
0,57,0,24
0,46,124,20
0,46,0,4
0,55,125,3
0,55,0,54
0,55,124,35
0,42,86,0
0,42,0,4
0,55,0,83
0,46,124,9
0,46,0,4
0,31,106,92
0,43,113,0
0,55,104,0
0,59,115,0
0,43,100,0
0,55,99,0
0,67,104,0
0,50,105,0
0,55,98,0
0,36,125,0
0,44,127,0
0,49,105,0
0,57,101,0
0,67,127,3
0,71,121,0
0,74,123,0
0,36,0,1
0,44,0,0
0,49,0,0
0,57,0,0
0,50,0,75
0,55,0,0
0,43,0,15
0,55,0,0
0,67,0,0
0,43,101,2
0,50,97,0
0,55,98,0
0,62,98,0
0,50,103,0
0,55,98,0
0,36,62,0
0,42,85,0
0,36,0,4
0,42,0,0
0,69,94,42
0,72,86,4
0,67,0,2
0,74,0,0
0,67,98,10
0,72,0,15
0,65,112,10
0,71,0,5
0,43,0,2
0,50,0,0
0,55,0,0
0,62,0,0
0,50,0,0
0,55,0,0
0,43,99,2
0,55,99,0
0,67,103,0
0,50,99,0
0,55,103,0
0,40,127,0
0,44,125,0
0,40,0,4
0,44,0,0
0,64,94,2
0,69,0,15
0,62,87,6
0,60,76,6
0,59,91,7
0,36,121,2
0,42,83,0
0,60,0,0
0,36,0,4
0,42,0,0
0,40,93,3
0,40,0,4
0,44,126,1
0,44,0,4
0,40,53,41
0,40,0,4
0,36,127,44
0,42,90,0
0,36,0,4
0,42,0,0
0,55,105,92
0,60,107,0
0,40,121,0
0,44,121,0
0,40,0,4
0,44,0,0
0,44,127,92
0,44,0,4
0,42,95,44
0,42,0,4
0,26,113,44
0,38,106,0
0,57,100,0
0,62,100,0
0,45,103,0
0,50,97,0
0,57,99,0
0,62,97,0
0,50,99,0
0,57,105,0
0,36,125,0
0,44,122,0
0,36,0,4
0,44,0,0
0,55,0,14
0,60,0,0
0,26,0,20
0,38,0,0
0,50,0,41
0,57,0,0
0,45,0,15
0,50,0,0
0,57,0,0
0,62,0,0
0,26,113,2
0,38,107,0
0,45,102,0
0,50,100,0
0,57,95,0
0,62,98,0
0,50,104,0
0,57,99,0
0,36,61,0
0,42,85,0
0,36,0,4
0,42,0,0
0,26,0,36
0,38,0,0
0,45,0,54
0,50,0,0
0,57,0,0
0,62,0,0
0,50,0,0
0,57,0,0
0,26,106,2
0,38,113,0
0,45,99,0
0,50,100,0
0,57,100,0
0,62,98,0
0,50,103,0
0,57,104,0
0,40,126,0
0,44,123,0
0,40,0,4
0,44,0,0
0,57,0,22
0,62,0,8
0,26,0,56
0,38,0,0
0,45,0,4
0,50,0,0
0,57,0,0
0,62,0,0
0,50,0,0
0,57,0,0
0,36,124,2
0,42,93,0
0,36,0,4
0,42,0,0
0,40,90,44
0,40,0,4
0,44,122,44
0,44,0,4
0,40,55,44
0,42,93,0
0,40,0,4
0,42,0,0
0,36,122,44
0,46,126,0
0,36,0,4
0,46,0,0
0,55,108,92
0,60,109,0
0,40,122,0
0,42,84,0
0,40,0,4
0,42,0,0
0,46,127,92
0,46,0,4
0,55,0,91
0,31,113,1
0,43,106,0
0,55,106,0
0,59,112,0
0,43,102,0
0,55,103,0
0,67,100,0
0,50,105,0
0,55,100,0
0,36,125,0
0,44,125,0
0,36,0,4
0,44,0,0
0,55,0,10
0,60,0,6
0,31,0,58
0,43,0,0
0,50,0,1
0,55,0,0
0,59,124,14
0,71,124,0
0,43,0,1
0,55,0,0
0,67,0,0
0,31,108,2
0,43,109,0
0,43,98,0
0,50,98,0
0,55,100,0
0,62,98,0
0,50,99,0
0,55,101,0
0,36,60,0
0,42,81,0
0,36,0,4
0,42,0,0
0,59,0,32
0,71,0,0
0,31,0,42
0,43,0,0
0,59,122,11
0,71,123,0
0,43,0,5
0,50,0,0
0,55,0,0
0,62,0,0
0,50,0,0
0,55,0,0
0,31,109,2
0,43,108,0
0,43,98,0
0,55,103,0
0,67,104,0
0,50,99,0
0,55,102,0
0,40,127,0
0,44,125,0
0,40,0,4
0,44,0,0
0,59,0,37
0,71,0,0
0,59,0,5
0,31,0,32
0,43,0,0
0,59,121,6
0,71,122,0
0,43,0,10
0,55,0,0
0,67,0,0
0,50,0,0
0,55,0,0
0,36,126,2
0,42,79,0
0,36,0,4
0,42,0,0
0,59,0,39
0,71,0,0
0,40,87,5
0,40,0,4
0,60,127,43
0,72,126,0
0,44,127,1
0,44,0,4
0,40,47,8
0,40,0,4
0,60,0,43
0,72,0,0
0,36,126,1
0,42,86,0
0,36,0,4
0,42,0,0
0,55,108,61
0,60,107,0
0,40,125,0
0,44,122,0
0,55,127,4
0,67,121,0
0,40,0,0
0,44,0,0
0,44,123,92
0,44,0,4
0,55,0,18
0,67,0,0
0,42,90,26
0,42,0,4
0,50,112,37
0,54,109,2
0,57,110,3
0,26,106,2
0,38,113,0
0,57,101,0
0,62,100,0
0,36,112,0
0,44,123,0
0,62,111,0
0,36,0,4
0,44,0,0
0,55,0,14
0,60,0,0
0,26,0,21
0,38,0,0
0,50,0,48
0,50,108,2
0,54,0,0
0,54,112,2
0,57,0,1
0,57,111,2
0,62,0,0
0,26,111,2
0,38,107,0
0,42,81,0
0,62,112,0
0,42,0,4
0,26,0,50
0,38,0,0
0,57,124,31
0,50,0,2
0,50,109,2
0,54,0,0
0,54,108,3
0,57,0,0
0,57,109,2
0,62,0,0
0,26,106,2
0,38,109,0
0,40,123,0
0,44,127,0
0,62,111,0
0,40,0,4
0,44,0,0
0,57,0,22
0,62,0,8
0,57,0,1
0,26,0,13
0,38,0,0
0,50,0,39
0,54,0,3
0,57,0,2
0,57,126,1
0,62,0,1
0,26,108,2
0,38,109,0
0,36,113,0
0,42,84,0
0,36,0,4
0,42,0,0
0,57,0,41
0,40,87,3
0,40,0,4
0,26,0,20
0,38,0,0
0,57,127,24
0,44,124,0
0,44,0,4
0,40,60,44
0,40,0,4
0,57,0,4
0,55,127,35
0,24,112,5
0,36,110,0
0,36,105,0
0,42,84,0
0,36,0,4
0,42,0,0
0,55,0,38
0,40,85,6
0,40,0,4
0,55,126,42
0,55,110,2
0,60,108,0
0,40,121,0
0,44,126,0
0,40,0,4
0,44,0,0
0,44,127,0
0,44,0,4
0,42,89,11
0,42,0,4
0,24,0,9
0,36,0,0
0,31,123,1
0,43,122,0
0,55,112,0
0,59,114,0
0,43,99,0
0,55,100,0
0,67,98,0
0,50,105,0
0,55,105,0
0,36,127,0
0,44,127,0
0,55,107,0
0,36,0,4
0,44,0,0
0,55,0,0
0,55,0,10
0,60,0,6
0,50,0,59
0,55,0,0
0,43,0,15
0,55,0,0
0,67,0,0
0,43,101,2
0,50,98,0
0,55,104,0
0,62,97,0
0,50,104,0
0,55,103,0
0,36,62,0
0,42,86,0
0,36,0,4
0,42,0,0
0,43,0,90
0,50,0,0
0,55,0,0
0,62,0,0
0,50,0,0
0,55,0,0
0,43,103,2
0,55,99,0
0,67,103,0
0,50,98,0
0,55,103,0
0,40,122,0
0,44,125,0
0,40,0,4
0,44,0,0
0,36,127,0
0,42,84,0
0,36,0,4
0,42,0,0
0,40,89,7
0,40,0,4
0,31,62,16
0,43,61,0
0,44,121,0
0,44,0,4
0,31,0,1
0,43,0,0
0,40,48,6
0,40,0,4
0,36,127,44
0,42,91,0
0,36,0,4
0,42,0,0
0,55,103,92
0,60,101,0
0,40,121,0
0,44,126,0
0,40,0,4
0,44,0,0
0,44,126,92
0,44,0,4
0,42,93,44
0,42,0,4
0,57,101,44
0,62,96,0
0,45,97,0
0,50,103,0
0,57,98,0
0,62,97,0
0,50,103,0
0,57,98,0
0,36,125,0
0,44,123,0
0,36,0,4
0,44,0,0
0,55,0,14
0,60,0,0
0,50,0,61
0,57,0,0
0,45,0,15
0,50,0,0
0,57,0,0
0,62,0,0
0,45,105,2
0,50,97,0
0,57,97,0
0,62,97,0
0,50,98,0
0,57,105,0
0,36,61,0
0,42,85,0
0,36,0,4
0,42,0,0
0,45,0,90
0,50,0,0
0,57,0,0
0,62,0,0
0,50,0,0
0,57,0,0
0,45,100,2
0,50,102,0
0,57,97,0
0,62,101,0
0,50,104,0
0,57,101,0
0,40,122,0
0,44,127,0
0,40,0,4
0,44,0,0
0,57,0,22
0,62,0,8
0,45,0,60
0,50,0,0
0,57,0,0
0,62,0,0
0,50,0,0
0,57,0,0
0,36,127,2
0,42,81,0
0,36,0,4
0,42,0,0
0,40,87,44
0,40,0,4
0,44,124,44
0,44,0,4
0,40,49,44
0,40,0,4
0,36,123,44
0,42,89,0
0,36,0,4
0,42,0,0
0,55,107,92
0,60,109,0
0,40,127,0
0,44,127,0
0,40,0,4
0,44,0,0
0,46,123,92
0,46,0,4
0,55,0,91
0,31,108,1
0,43,107,0
0,55,111,0
0,59,118,0
0,43,100,0
0,55,100,0
0,67,104,0
0,50,103,0
0,55,99,0
0,36,124,0
0,44,123,0
0,36,0,4
0,44,0,0
0,55,0,10
0,60,0,6
0,31,0,58
0,43,0,0
0,50,0,1
0,55,0,0
0,43,0,15
0,55,0,0
0,67,0,0
0,31,108,2
0,43,109,0
0,43,103,0
0,50,99,0
0,55,98,0
0,62,100,0
0,50,98,0
0,55,100,0
0,36,63,0
0,42,81,0
0,36,0,4
0,42,0,0
0,67,111,4
0,79,90,0
0,31,0,70
0,43,0,0
0,43,0,16
0,50,0,0
0,55,0,0
0,62,0,0
0,50,0,0
0,55,0,0
0,31,109,2
0,43,111,0
0,43,104,0
0,55,97,0
0,67,102,0
0,50,103,0
0,55,103,0
0,40,124,0
0,44,125,0
0,40,0,4
0,44,0,0
0,59,0,42
0,66,105,20
0,78,85,0
0,31,0,12
0,43,0,0
0,67,0,1
0,79,0,0
0,43,0,15
0,55,0,0
0,67,0,0
0,50,0,0
0,55,0,0
0,36,125,2
0,42,84,0
0,36,0,4
0,42,0,0
0,40,88,44
0,40,0,4
0,44,126,44
0,44,0,4
0,67,101,9
0,79,85,0
0,66,0,7
0,78,0,0
0,40,52,28
0,40,0,4
0,36,125,44
0,42,83,0
0,36,0,4
0,42,0,0
0,67,0,43
0,79,0,0
0,64,118,2
0,76,98,0
0,55,103,47
0,60,103,0
0,40,126,0
0,44,124,0
0,40,0,4
0,44,0,0
0,64,0,36
0,76,0,0
0,64,107,36
0,76,89,0
0,44,122,20
0,44,0,4
0,42,89,44
0,42,0,4
0,50,113,37
0,54,108,2
0,57,107,3
0,26,106,2
0,38,112,0
0,57,106,0
0,62,100,0
0,36,111,0
0,44,126,0
0,62,107,0
0,36,0,4
0,44,0,0
0,66,122,13
0,78,113,0
0,55,0,1
0,60,0,0
0,64,0,14
0,76,0,0
0,26,0,7
0,38,0,0
0,50,0,48
0,50,107,2
0,54,0,0
0,54,111,2
0,57,0,1
0,57,113,2
0,62,0,0
0,26,107,2
0,38,109,0
0,42,85,0
0,62,114,0
0,42,0,4
0,66,0,38
0,78,0,0
0,62,127,2
0,74,106,0
0,26,0,10
0,38,0,0
0,50,0,33
0,50,110,2
0,54,0,0
0,54,111,3
0,57,0,0
0,57,108,2
0,62,0,0
0,26,106,2
0,38,110,0
0,40,123,0
0,44,127,0
0,62,108,0
0,40,0,4
0,44,0,0
0,62,0,8
0,74,0,0
0,57,0,14
0,62,0,8
0,26,0,14
0,38,0,0
0,62,116,7
0,74,89,0
0,50,0,32
0,54,0,3
0,57,0,2
0,62,0,2
0,26,112,2
0,38,110,0
0,36,114,0
0,42,83,0
0,36,0,4
0,42,0,0
0,40,86,44
0,40,0,4
0,26,0,20
0,38,0,0
0,64,116,16
0,76,94,0
0,62,0,6
0,74,0,0
0,44,123,2
0,44,0,4
