track,note,velocity,time
1,43,52,810
1,55,46,2
1,50,37,3
1,59,43,3
1,42,29,410
1,54,32,3
1,57,45,4
1,50,32,2
1,55,43,308
1,40,46,2
1,52,46,5
1,59,51,2
1,43,43,377
1,55,40,3
1,50,34,2
1,59,46,3
1,42,30,355
1,57,47,6
1,54,42,2
1,50,34,3
1,36,48,360
1,52,45,5
1,55,46,3
1,48,33,11
1,43,55,299
1,50,40,2
1,59,51,3
1,55,43,4
1,42,42,290
1,57,53,4
1,54,43,4
1,50,45,2
1,40,56,276
1,59,55,4
1,55,48,4
1,52,40,2
1,59,56,268
1,50,47,4
1,55,52,3
1,43,48,3
1,57,48,293
1,42,37,3
1,54,48,4
1,50,41,2
1,36,51,416
1,55,55,3
1,48,43,4
1,52,53,2
1,45,56,489
1,57,36,2
1,60,51,4
1,52,45,3
1,43,48,1023
1,59,38,5
1,50,36,7
1,55,51,2
1,57,43,438
1,54,45,7
1,38,57,2
1,50,38,4
1,60,43,438
1,52,28,4
1,57,43,7
1,45,60,18
1,59,43,445
1,43,53,3
1,55,43,4
1,50,37,2
1,54,35,544
1,57,41,2
1,50,36,3
1,38,50,3
1,55,61,2934
1,62,66,4
1,59,60,2
1,57,58,301
1,54,53,4
1,62,64,5
1,67,63,462
1,59,61,3
1,64,61,3
1,64,63,364
1,60,66,4
1,55,62,3
1,55,64,335
1,59,66,4
1,62,66,3
1,54,45,324
1,57,58,4
1,62,66,4
1,64,62,548
1,67,62,2
1,60,58,4
1,55,66,743
1,59,69,3
1,62,66,3
1,57,63,308
1,62,67,3
1,54,58,4
1,59,57,523
1,67,64,4
1,64,62,2
1,64,68,246
1,55,64,4
1,60,66,2
1,55,57,384
1,59,58,3
1,62,64,3
1,62,63,394
1,57,61,4
1,54,52,3
1,55,53,651
1,60,61,3
1,64,64,4
1,60,63,172
1,69,67,3
1,64,62,5
1,67,63,930
1,59,58,3
1,62,62,4
1,57,56,563
1,62,63,3
1,66,56,3
1,60,56,444
1,64,63,4
1,69,67,2
1,62,63,842
1,59,52,3
1,67,60,2
1,62,62,506
1,57,56,4
1,66,56,3
1,62,63,150
1,67,66,4
1,71,66,3
1,69,56,881
1,66,53,4
1,71,66,1
1,67,62,4
1,64,64,12
1,60,66,968
1,71,56,33
1,62,64,4
1,67,63,2
1,66,60,250
1,62,58,7
1,69,63,4
1,64,64,337
1,60,63,3
1,67,57,4
1,62,63,409
1,71,63,4
1,67,64,2
1,66,53,18
1,69,58,4
1,64,62,320
1,67,61,4
1,71,62,3
1,60,64,24
1,62,64,265
1,67,62,4
1,71,60,3
1,66,57,192
1,62,57,4
1,69,64,3
1,60,64,398
1,67,58,2
1,64,67,4
1,60,52,55
1,64,61,4
1,69,56,4
1,59,62,252
1,62,66,4
1,67,62,3
1,57,52,406
1,66,55,4
1,62,63,3
1,60,53,451
1,69,64,3
1,64,57,4
1,59,58,10
1,62,63,4
1,67,62,4
1,62,64,3
1,57,62,4
1,66,56,4
1,62,67,70
1,59,67,4
1,55,68,4
1,57,66,80
1,54,68,13
1,59,66,285
1,55,60,4
1,64,64,3
1,60,60,901
1,59,68,260
1,62,64,4
1,55,62,3
1,57,66,164
1,54,67,3
1,60,63,402
1,55,58,4
1,52,57,4
1,59,62,804
1,55,61,4
1,62,64,3
1,62,66,345
1,57,66,3
1,54,56,3
1,55,61,455
1,59,67,4
1,64,64,4
1,60,62,552
1,62,64,133
1,59,67,4
1,55,67,3
1,57,66,134
1,54,68,3
1,55,66,496
1,60,64,4
1,52,61,3
1,64,67,1882
1,60,64,4
1,69,69,3
1,59,66,420
1,62,64,3
1,67,60,4
1,57,55,469
1,62,61,2
1,66,52,4
1,60,60,397
1,64,61,3
1,69,62,3
1,59,66,1163
1,62,66,3
1,67,58,4
1,62,64,559
1,66,58,3
1,57,63,2
1,60,76,19238
1,69,66,4
1,64,73,2
1,67,63,106
1,62,64,3
1,59,66,5
1,66,56,94
1,57,87,16
1,69,71,53
1,60,84,4
1,64,79,4
1,62,69,23
1,67,67,4
1,59,84,2
1,66,63,31
1,57,79,6
1,73,55,13
1,64,62,0
1,69,68,0
1,71,48,901
1,68,60,1
1,66,55,108
1,73,55,3
1,69,64,3
1,62,71,389
1,69,66,312
1,64,64,4
1,73,56,5
1,68,63,354
1,71,63,4
1,64,57,4
1,69,63,299
1,66,53,2
1,62,60,4
1,69,68,366
1,64,71,4
1,73,63,4
1,68,66,463
1,71,67,2
1,64,66,3
1,66,53,306
1,73,61,4
1,69,64,3
1,62,66,634
1,69,66,302
1,64,64,2
1,73,61,4
1,68,63,359
1,64,62,3
1,71,66,4
1,66,56,321
1,69,66,3
1,62,61,5
1,62,79,115
1,66,66,0
1,71,66,0
1,69,69,602
1,64,68,8
1,61,63,2
1,68,63,474
1,59,64,2
1,64,67,4
1,66,62,455
1,62,64,6
1,71,64,4
1,69,66,733
1,64,68,3
1,61,63,3
1,68,64,564
1,59,64,4
1,64,66,2
1,69,64,3
1,73,58,3
1,64,66,4
1,68,62,258
1,71,64,4
1,64,61,4
1,66,62,440
1,69,64,4
1,73,61,4
1,62,68,560
1,69,66,147
1,64,66,3
1,73,60,3
1,71,64,353
1,68,64,4
1,64,62,3
1,66,61,465
1,69,67,3
1,62,63,3
1,69,68,540
1,73,62,7
1,64,67,2
1,68,67,422
1,64,66,3
1,71,64,4
1,66,52,454
1,69,67,4
1,73,61,4
1,62,67,623
1,69,68,349
1,64,68,5
1,73,61,2
1,68,66,469
1,71,67,2
1,64,66,4
1,66,63,483
1,69,64,4
1,62,71,3
1,71,68,230
1,66,66,2
1,62,66,3
1,69,66,392
1,61,64,2
1,64,66,4
1,68,66,543
1,59,61,3
1,64,63,4
1,66,66,402
1,62,68,3
1,71,66,4
1,69,66,594
1,64,67,3
1,61,68,5
1,68,63,595
1,59,62,4
1,64,69,3
1,73,63,6
1,69,67,4
1,64,66,4
1,71,40,33
1,68,58,8
1,69,6,18
1,66,52,10
1,62,76,16
1,57,56,117
1,52,63,4
1,61,60,4
1,59,55,42
1,56,58,9
1,57,17,55
1,54,52,24
1,50,71,15
1,73,55,6607
1,64,62,0
1,69,68,0
1,71,48,901
1,68,60,1
1,66,55,108
1,73,55,3
1,69,64,3
1,62,71,389
1,69,66,312
1,64,64,4
1,73,56,5
1,68,63,354
1,71,63,4
1,64,57,4
1,69,63,299
1,66,53,2
1,62,60,4
1,69,68,366
1,64,71,4
1,73,63,4
1,68,66,463
1,71,67,2
1,64,66,3
1,66,53,306
1,73,61,4
1,69,64,3
1,62,66,634
1,69,66,302
1,64,64,2
1,73,61,4
1,68,63,359
1,64,62,3
1,71,66,4
1,66,56,321
1,69,66,3
1,62,61,5
1,73,55,115
1,64,62,0
1,69,68,0
1,71,48,901
1,68,60,1
1,66,55,108
1,73,55,3
1,69,64,3
1,62,71,389
1,69,66,312
1,64,64,4
1,73,56,5
1,68,63,354
1,71,63,4
1,64,57,4
1,69,63,299
1,66,53,2
1,62,60,4
1,69,68,366
1,64,71,4
1,73,63,4
1,68,66,81
1,71,67,2
1,64,66,3
1,66,53,73
1,73,61,4
1,69,64,3
1,62,66,71
1,69,66,80
1,64,64,2
1,73,61,4
1,68,63,90
1,64,62,3
1,71,66,4
1,66,56,63
1,69,66,3
1,62,61,5
2,69,47,16815
2,57,52,8
2,67,52,1383
2,55,56,4
2,76,53,3
2,64,46,8
2,74,55,376
2,62,52,9
2,69,42,470
2,57,28,2
2,57,41,372
2,69,45,3
2,55,48,1400
2,67,46,4
2,76,52,490
2,64,38,18
2,62,51,318
2,74,55,4
2,69,40,429
2,57,45,3
2,69,48,15519
2,57,56,8
2,55,62,1422
2,67,63,3
2,64,53,469
2,76,63,4
2,74,64,402
2,62,57,5
2,69,52,433
2,57,31,1
2,55,60,2330
2,67,56,14
2,76,62,463
2,64,55,10
2,74,62,404
2,62,64,3
2,57,53,1
2,69,57,4
2,69,84,15846
2,57,79,5
2,55,62,2
2,67,69,3
2,64,66,477
2,76,64,5
2,74,68,405
2,62,64,3
2,57,64,433
2,69,67,2
2,69,71,458
2,57,66,3
2,55,61,4
2,67,71,10
2,64,63,462
2,76,68,1
2,74,66,410
2,62,63,5
2,57,71,456
2,69,79,6
2,55,66,26912
2,52,69,3
2,60,66,3
2,58,46,58
2,53,63,22
2,50,63,11
2,55,53,48
2,50,69,25
2,50,68,1200
2,53,64,3
2,58,60,3
2,55,27,20
2,60,66,28
2,52,67,4
2,55,56,34
2,50,69,20
2,55,66,950
2,52,76,4
2,60,66,5
2,58,47,60
2,53,67,20
2,50,68,10
2,55,68,36
2,50,68,8
2,58,63,911
2,53,67,2
2,50,69,4
2,60,55,41
2,55,66,5
2,52,62,4
2,67,73,3852
2,55,66,4
2,76,64,471
2,64,61,12
2,62,62,408
2,74,64,12
2,69,66,416
2,57,56,3
2,67,64,1894
2,55,63,7
2,64,61,450
2,76,66,4
2,74,71,438
2,62,68,3
2,57,62,22
2,69,67,3
2,69,79,17320
2,57,63,5
2,78,62,488
2,66,55,4
2,76,66,11
2,64,66,6
2,59,62,423
2,71,63,4
2,69,76,1868
2,57,63,4
2,78,62,457
2,66,55,3
2,76,62,13
2,64,67,15
2,59,64,462
2,71,64,9
2,69,79,17224
2,57,62,6
2,66,61,468
2,78,63,2
2,76,63,20
2,64,64,3
2,59,63,481
2,71,64,9
2,57,58,1789
2,69,79,7
2,78,57,22
2,66,61,1
2,76,63,444
2,64,64,13
2,59,57,449
2,71,63,10
2,78,66,17785
2,66,79,8
2,76,66,453
2,64,69,4
2,68,73,446
2,56,63,1
2,69,87,313
2,57,95,4
2,78,84,5755
2,66,79,11
2,76,69,472
2,64,71,12
2,68,66,434
2,56,64,8
2,57,84,323
2,69,87,11
2,78,84,5711
2,66,73,10
2,76,68,457
2,64,68,3
2,68,68,436
2,56,63,5
2,57,84,305
2,69,82,13
2,78,82,111
2,66,68,0
2,76,68,111
2,64,67,4
2,68,68,112
2,56,66,4
2,57,62,80
2,69,66,12
3,31,87,25800
3,31,87,113
3,31,87,129
3,31,73,120
3,38,99,54
3,38,87,134
3,38,91,50
3,38,107,134
3,38,95,124
3,40,95,47
3,40,115,127
3,40,87,467
3,36,87,24
3,36,91,129
3,36,79,40
3,38,95,120
3,36,95,108
3,31,107,63
3,31,95,109
3,31,107,138
3,31,82,120
3,38,95,22
3,38,99,134
3,38,99,67
3,38,107,140
3,36,87,68
3,36,107,103
3,31,66,462
3,36,82,48
3,36,99,128
3,36,68,37
3,38,103,30
3,36,111,4
3,31,87,73
3,31,87,113
3,31,87,129
3,31,73,120
3,38,99,54
3,38,87,134
3,38,91,50
3,38,107,134
3,38,95,124
3,40,95,47
3,40,115,127
3,40,87,467
3,36,87,24
3,36,91,129
3,36,79,40
3,38,95,120
3,36,95,108
3,31,107,63
3,31,95,109
3,31,107,138
3,31,82,120
3,38,95,22
3,38,99,134
3,38,99,67
3,38,107,140
3,36,87,68
3,36,107,103
3,31,66,462
3,36,82,48
3,36,99,128
3,36,68,37
3,38,103,30
3,36,111,4
3,33,84,73
3,33,87,158
3,33,103,167
3,36,69,840
3,40,95,47
3,31,87,55
3,31,91,155
3,31,69,85
3,38,87,68
3,38,87,62
3,38,95,185
3,38,107,190
3,33,87,49
3,33,99,160
3,33,91,160
3,33,68,99
3,33,82,192
3,31,84,7
3,31,84,157
3,31,82,183
3,31,55,50
3,26,99,82
3,26,87,94
3,26,95,179
3,31,87,45
3,31,87,113
3,31,87,129
3,31,73,120
3,38,99,54
3,38,87,134
3,38,91,50
3,38,107,134
3,38,95,124
3,40,95,47
3,40,115,127
3,40,87,467
3,36,87,24
3,36,91,129
3,36,79,40
3,38,95,120
3,36,95,108
3,31,107,63
3,31,95,109
3,31,107,138
3,31,82,120
3,38,95,22
3,38,99,134
3,38,99,67
3,38,107,140
3,36,87,68
3,36,107,103
3,31,66,462
3,36,82,48
3,36,99,128
3,36,68,37
3,38,103,30
3,36,111,4
3,31,87,73
3,31,87,113
3,31,87,129
3,31,73,120
3,38,99,54
3,38,87,134
3,38,91,50
3,38,107,134
3,38,95,124
3,40,95,47
3,40,115,127
3,40,87,467
3,36,87,24
3,36,91,129
3,36,79,40
3,38,95,120
3,36,95,108
3,31,107,63
3,31,95,109
3,31,107,138
3,31,82,120
3,38,95,22
3,38,99,134
3,38,99,67
3,38,107,140
3,36,87,68
3,36,107,103
3,31,66,462
3,36,82,48
3,36,99,128
3,36,68,37
3,38,103,30
3,36,111,4
3,33,84,73
3,33,87,158
3,33,103,167
3,36,69,840
3,40,95,47
3,31,87,55
3,31,91,155
3,31,69,85
3,38,87,68
3,38,87,62
3,38,95,185
3,38,107,190
3,33,87,49
3,33,99,160
3,33,91,160
3,33,68,99
3,33,82,192
3,31,84,7
3,31,84,157
3,31,82,183
3,31,55,50
3,26,99,82
3,26,87,94
3,26,95,179
3,31,87,45
3,31,87,113
3,31,87,129
3,31,73,120
3,38,99,54
3,38,87,134
3,38,91,50
3,38,107,134
3,38,95,124
3,40,95,47
3,40,115,127
3,40,87,467
3,36,87,24
3,36,91,129
3,36,79,40
3,38,95,120
3,36,95,108
3,31,107,63
3,31,95,109
3,31,107,138
3,31,82,120
3,38,95,22
3,38,99,134
3,38,99,67
3,38,107,140
3,36,87,68
3,36,107,103
3,31,66,462
3,36,82,48
3,36,99,128
3,36,68,37
3,38,103,30
3,36,111,4
3,31,87,73
3,31,87,113
3,31,87,129
3,31,73,120
3,38,99,54
3,38,87,134
3,38,91,50
3,38,107,134
3,38,95,124
3,40,95,47
3,40,115,127
3,40,87,467
3,36,87,24
3,36,91,129
3,36,79,40
3,38,95,120
3,36,95,108
3,31,107,63
3,31,95,109
3,31,107,138
3,31,82,120
3,38,95,22
3,38,99,134
3,38,99,67
3,38,107,140
3,36,87,68
3,36,107,103
3,31,66,462
3,36,82,48
3,36,99,128
3,36,68,37
3,38,103,30
3,36,111,4
3,33,84,73
3,33,87,158
3,33,103,167
3,36,69,840
3,40,95,47
3,31,87,55
3,31,91,155
3,31,69,85
3,38,87,68
3,38,87,62
3,38,95,185
3,38,107,190
3,33,87,49
3,33,99,160
3,33,91,160
3,33,68,99
3,33,82,192
3,31,84,7
3,31,84,157
3,31,82,183
3,31,55,50
3,26,99,82
3,26,87,94
3,26,95,179
3,31,91,45
3,31,91,228
3,31,95,235
3,31,95,98
3,31,91,188
3,31,103,133
3,31,95,234
3,31,87,212
3,31,99,103
3,31,103,175
3,31,103,133
3,31,91,187
3,31,91,215
3,31,91,84
3,31,103,174
3,31,91,78
3,31,95,218
3,31,87,214
3,31,95,93
3,31,95,180
3,31,95,139
3,31,95,188
3,31,91,207
3,31,91,99
3,31,95,175
3,31,84,110
3,31,91,213
3,31,87,239
3,31,84,104
3,31,87,178
3,31,91,57
3,31,87,218
3,31,91,237
3,31,91,104
3,31,87,178
3,31,84,90
3,31,87,229
3,31,95,233
3,31,87,109
3,31,99,184
3,31,95,108
3,31,87,217
3,31,95,239
3,31,91,89
3,31,95,174
3,33,84,1900
3,33,87,158
3,33,103,167
3,36,69,840
3,40,95,47
3,31,87,55
3,31,91,155
3,31,69,85
3,38,87,68
3,38,87,62
3,38,95,185
3,38,107,190
3,33,87,49
3,33,99,160
3,33,91,160
3,33,68,99
3,33,82,192
3,31,84,7
3,31,84,157
3,31,82,183
3,31,55,50
3,26,99,82
3,26,87,94
3,26,95,179
3,33,87,45
3,33,87,113
3,33,87,129
3,33,73,120
3,40,99,54
3,40,87,134
3,40,91,50
3,40,107,134
3,40,95,124
3,42,95,47
3,42,115,127
3,42,87,467
3,38,87,24
3,38,91,129
3,38,79,40
3,40,95,120
3,38,95,108
3,33,107,63
3,33,95,109
3,33,107,138
3,33,82,120
3,40,95,22
3,40,99,134
3,40,99,67
3,40,107,140
3,38,87,68
3,38,107,103
3,33,66,462
3,38,82,48
3,38,99,128
3,38,68,37
3,40,103,30
3,38,111,4
3,33,87,73
3,33,87,113
3,33,87,129
3,33,73,120
