track,note,velocity,time
1,43,52,648
1,55,46,2
1,50,37,2
1,59,43,3
1,42,29,328
1,54,32,2
1,57,45,3
1,50,32,2
1,55,43,247
1,40,46,1
1,52,46,4
1,59,51,2
1,43,43,302
1,55,40,2
1,50,34,2
1,59,46,2
1,42,30,284
1,57,47,5
1,54,42,2
1,50,34,2
1,36,48,288
1,52,45,4
1,55,46,2
1,48,33,9
1,43,55,239
1,50,40,2
1,59,51,2
1,55,43,3
1,42,42,232
1,57,53,3
1,54,43,3
1,50,45,2
1,40,56,221
1,59,55,3
1,55,48,3
1,52,40,2
1,59,56,215
1,50,47,3
1,55,52,2
1,43,48,3
1,57,48,235
1,42,37,2
1,54,48,3
1,50,41,2
1,36,51,333
1,55,55,2
1,48,43,3
1,52,53,2
1,45,56,391
1,57,36,2
1,60,51,3
1,52,45,2
1,43,48,819
1,59,38,4
1,50,36,5
1,55,51,2
1,57,43,351
1,54,45,5
1,38,57,2
1,50,38,3
1,60,43,350
1,52,28,3
1,57,43,6
1,45,60,14
1,59,43,356
1,43,53,2
1,55,43,3
1,50,37,2
1,54,35,435
1,57,41,2
1,50,36,2
1,38,50,3
1,55,61,2347
1,62,66,3
1,59,60,2
1,57,58,241
1,54,53,3
1,62,64,4
1,67,63,370
1,59,61,2
1,64,61,3
1,64,63,291
1,60,66,3
1,55,62,3
1,55,64,268
1,59,66,3
1,62,66,2
1,54,45,259
1,57,58,3
1,62,66,3
1,64,62,438
1,67,62,2
1,60,58,3
1,55,66,594
1,59,69,3
1,62,66,2
1,57,63,246
1,62,67,3
1,54,58,3
1,59,57,418
1,67,64,3
1,64,62,2
1,64,68,197
1,55,64,3
1,60,66,2
1,55,57,307
1,59,58,3
1,62,64,2
1,62,63,315
1,57,61,3
1,54,52,3
1,55,53,521
1,60,61,2
1,64,64,3
1,60,63,138
1,69,67,2
1,64,62,4
1,67,63,744
1,59,58,3
1,62,62,3
1,57,56,450
1,62,63,3
1,66,56,2
1,60,56,355
1,64,63,3
1,69,67,2
1,62,63,674
1,59,52,2
1,67,60,2
1,62,62,405
1,57,56,3
1,66,56,3
1,62,63,120
1,67,66,3
1,71,66,2
1,69,56,705
1,66,53,3
1,71,66,1
1,67,62,3
1,64,64,10
1,60,66,774
1,71,56,26
1,62,64,3
1,67,63,2
1,66,60,200
1,62,58,6
1,69,63,3
1,64,64,270
1,60,63,2
1,67,57,3
1,62,63,327
1,71,63,3
1,67,64,2
1,66,53,14
1,69,58,3
1,64,62,256
1,67,61,3
1,71,62,3
1,60,64,19
1,62,64,212
1,67,62,3
1,71,60,2
1,66,57,154
1,62,57,3
1,69,64,2
1,60,64,318
1,67,58,2
1,64,67,3
1,60,52,44
1,64,61,3
1,69,56,3
1,59,62,202
1,62,66,3
1,67,62,2
1,57,52,325
1,66,55,3
1,62,63,2
1,60,53,361
1,69,64,2
1,64,57,3
1,59,58,8
1,62,63,3
1,67,62,3
1,62,64,3
1,57,62,3
1,66,56,3
1,62,67,56
1,59,67,3
1,55,68,3
1,57,66,64
1,54,68,11
1,59,66,228
1,55,60,3
1,64,64,3
1,60,60,721
1,59,68,208
1,62,64,3
1,55,62,3
1,57,66,131
1,54,67,3
1,60,63,322
1,55,58,3
1,52,57,3
1,59,62,643
1,55,61,3
1,62,64,3
1,62,66,276
1,57,66,2
1,54,56,3
1,55,61,364
1,59,67,3
1,64,64,3
1,60,62,442
1,62,64,107
1,59,67,3
1,55,67,2
1,57,66,107
1,54,68,2
1,55,66,397
1,60,64,3
1,52,61,2
1,64,67,1506
1,60,64,3
1,69,69,2
1,59,66,336
1,62,64,3
1,67,60,3
1,57,55,375
1,62,61,2
1,66,52,3
1,60,60,318
1,64,61,2
1,69,62,3
1,59,66,930
1,62,66,3
1,67,58,3
1,62,64,447
1,66,58,2
1,57,63,2
1,60,76,15390
1,69,66,3
1,64,73,2
1,67,63,85
1,62,64,2
1,59,66,4
1,66,56,75
1,57,87,13
1,69,71,43
1,60,84,3
1,64,79,3
1,62,69,18
1,67,67,3
1,59,84,2
1,66,63,25
1,57,79,5
1,73,55,10
1,64,62,0
1,69,68,0
1,71,48,721
1,68,60,1
1,66,55,86
1,73,55,3
1,69,64,2
1,62,71,311
1,69,66,250
1,64,64,3
1,73,56,4
1,68,63,283
1,71,63,3
1,64,57,3
1,69,63,239
1,66,53,2
1,62,60,3
1,69,68,293
1,64,71,3
1,73,63,3
1,68,66,370
1,71,67,2
1,64,66,2
1,66,53,245
1,73,61,3
1,69,64,2
1,62,66,507
1,69,66,241
1,64,64,2
1,73,61,3
1,68,63,287
1,64,62,3
1,71,66,3
1,66,56,257
1,69,66,2
1,62,61,4
1,62,79,92
1,66,66,0
1,71,66,0
1,69,69,482
1,64,68,6
1,61,63,2
1,68,63,379
1,59,64,2
1,64,67,3
1,66,62,364
1,62,64,5
1,71,64,3
1,69,66,586
1,64,68,3
1,61,63,2
1,68,64,451
1,59,64,3
1,64,66,2
1,69,64,2
1,73,58,3
1,64,66,3
1,68,62,207
1,71,64,3
1,64,61,3
1,66,62,352
1,69,64,3
1,73,61,3
1,62,68,448
1,69,66,117
1,64,66,3
1,73,60,2
1,71,64,282
1,68,64,3
1,64,62,3
1,66,61,372
1,69,67,3
1,62,63,2
1,69,68,432
1,73,62,5
1,64,67,2
1,68,67,337
1,64,66,3
1,71,64,3
1,66,52,363
1,69,67,3
1,73,61,3
1,62,67,499
1,69,68,279
1,64,68,4
1,73,61,2
1,68,66,375
1,71,67,2
1,64,66,3
1,66,63,387
1,69,64,3
1,62,71,2
1,71,68,184
1,66,66,2
1,62,66,2
1,69,66,313
1,61,64,2
1,64,66,3
1,68,66,435
1,59,61,2
1,64,63,3
1,66,66,321
1,62,68,3
1,71,66,3
1,69,66,475
1,64,67,2
1,61,68,4
1,68,63,476
1,59,62,3
1,64,69,3
1,73,63,5
1,69,67,3
1,64,66,3
1,71,40,27
1,68,58,6
1,69,6,14
1,66,52,8
1,62,76,13
1,57,56,94
1,52,63,3
1,61,60,3
1,59,55,34
1,56,58,7
1,57,17,44
1,54,52,19
1,50,71,12
1,73,55,5285
1,64,62,0
1,69,68,0
1,71,48,721
1,68,60,1
1,66,55,86
1,73,55,3
1,69,64,2
1,62,71,311
1,69,66,250
1,64,64,3
1,73,56,4
1,68,63,283
1,71,63,3
1,64,57,3
1,69,63,239
1,66,53,2
1,62,60,3
1,69,68,293
1,64,71,3
1,73,63,3
1,68,66,370
1,71,67,2
1,64,66,2
1,66,53,245
1,73,61,3
1,69,64,2
1,62,66,507
1,69,66,241
1,64,64,2
1,73,61,3
1,68,63,287
1,64,62,3
1,71,66,3
1,66,56,257
1,69,66,2
1,62,61,4
1,73,55,92
1,64,62,0
1,69,68,0
1,71,48,721
1,68,60,1
1,66,55,86
1,73,55,3
1,69,64,2
1,62,71,311
1,69,66,250
1,64,64,3
1,73,56,4
1,68,63,283
1,71,63,3
1,64,57,3
1,69,63,239
1,66,53,2
1,62,60,3
1,69,68,293
1,64,71,3
1,73,63,3
1,68,66,65
1,71,67,2
1,64,66,2
1,66,53,59
1,73,61,3
1,69,64,2
1,62,66,57
1,69,66,64
1,64,64,2
1,73,61,3
1,68,63,72
1,64,62,3
1,71,66,3
1,66,56,51
1,69,66,2
1,62,61,4
2,69,47,13452
2,57,52,7
2,67,52,1106
2,55,56,3
2,76,53,2
2,64,46,7
2,74,55,301
2,62,52,7
2,69,42,376
2,57,28,2
2,57,41,297
2,69,45,3
2,55,48,1120
2,67,46,3
2,76,52,392
2,64,38,15
2,62,51,254
2,74,55,3
2,69,40,343
2,57,45,3
2,69,48,12415
2,57,56,6
2,55,62,1138
2,67,63,2
2,64,53,375
2,76,63,3
2,74,64,322
2,62,57,4
2,69,52,346
2,57,31,1
2,55,60,1864
2,67,56,11
2,76,62,371
2,64,55,8
2,74,62,323
2,62,64,2
2,57,53,1
2,69,57,3
2,69,84,12677
2,57,79,4
2,55,62,1
2,67,69,3
2,64,66,382
2,76,64,4
2,74,68,324
2,62,64,2
2,57,64,346
2,69,67,2
2,69,71,367
2,57,66,2
2,55,61,3
2,67,71,8
2,64,63,370
2,76,68,1
2,74,66,328
2,62,63,4
2,57,71,365
2,69,79,5
2,55,66,21529
2,52,69,3
2,60,66,2
2,58,46,47
2,53,63,17
2,50,63,9
2,55,53,39
2,50,69,20
2,50,68,960
2,53,64,3
2,58,60,2
2,55,27,16
2,60,66,23
2,52,67,3
2,55,56,27
2,50,69,16
2,55,66,760
2,52,76,3
2,60,66,4
2,58,47,48
2,53,67,16
2,50,68,8
2,55,68,29
2,50,68,6
2,58,63,729
2,53,67,2
2,50,69,3
2,60,55,33
2,55,66,4
2,52,62,3
2,67,73,3082
2,55,66,3
2,76,64,377
2,64,61,9
2,62,62,327
2,74,64,9
2,69,66,333
2,57,56,2
2,67,64,1515
2,55,63,6
2,64,61,360
2,76,66,3
2,74,71,351
2,62,68,2
2,57,62,18
2,69,67,2
2,69,79,13856
2,57,63,4
2,78,62,391
2,66,55,3
2,76,66,9
2,64,66,5
2,59,62,338
2,71,63,3
2,69,76,1494
2,57,63,3
2,78,62,366
2,66,55,2
2,76,62,10
2,64,67,12
2,59,64,370
2,71,64,7
2,69,79,13779
2,57,62,5
2,66,61,374
2,78,63,2
2,76,63,16
2,64,64,2
2,59,63,385
2,71,64,7
2,57,58,1431
2,69,79,6
2,78,57,17
2,66,61,1
2,76,63,355
2,64,64,10
2,59,57,359
2,71,63,8
2,78,66,14228
2,66,79,7
2,76,66,362
2,64,69,3
2,68,73,357
2,56,63,1
2,69,87,250
2,57,95,3
2,78,84,4604
2,66,79,9
2,76,69,378
2,64,71,9
2,68,66,347
2,56,64,6
2,57,84,258
2,69,87,9
2,78,84,4569
2,66,73,8
2,76,68,366
2,64,68,2
2,68,68,349
2,56,63,4
2,57,84,244
2,69,82,10
2,78,82,89
2,66,68,0
2,76,68,89
2,64,67,3
2,68,68,90
2,56,66,3
2,57,62,64
2,69,66,10
3,31,87,20640
3,31,87,90
3,31,87,103
3,31,73,96
3,38,99,43
3,38,87,107
3,38,91,40
3,38,107,107
3,38,95,99
3,40,95,37
3,40,115,101
3,40,87,373
3,36,87,19
3,36,91,103
3,36,79,32
3,38,95,96
3,36,95,86
3,31,107,50
3,31,95,87
3,31,107,110
3,31,82,96
3,38,95,17
3,38,99,107
3,38,99,53
3,38,107,112
3,36,87,54
3,36,107,82
3,31,66,369
3,36,82,38
3,36,99,102
3,36,68,29
3,38,103,24
3,36,111,3
3,31,87,58
3,31,87,90
3,31,87,103
3,31,73,96
3,38,99,43
3,38,87,107
3,38,91,40
3,38,107,107
3,38,95,99
3,40,95,37
3,40,115,101
3,40,87,373
3,36,87,19
3,36,91,103
3,36,79,32
3,38,95,96
3,36,95,86
3,31,107,50
3,31,95,87
3,31,107,110
3,31,82,96
3,38,95,17
3,38,99,107
3,38,99,53
3,38,107,112
3,36,87,54
3,36,107,82
3,31,66,369
3,36,82,38
3,36,99,102
3,36,68,29
3,38,103,24
3,36,111,3
3,33,84,58
3,33,87,126
3,33,103,133
3,36,69,672
3,40,95,37
3,31,87,44
3,31,91,124
3,31,69,68
3,38,87,54
3,38,87,49
3,38,95,148
3,38,107,152
3,33,87,39
3,33,99,128
3,33,91,128
3,33,68,79
3,33,82,153
3,31,84,5
3,31,84,125
3,31,82,146
3,31,55,40
3,26,99,65
3,26,87,75
3,26,95,143
3,31,87,36
3,31,87,90
3,31,87,103
3,31,73,96
3,38,99,43
3,38,87,107
3,38,91,40
3,38,107,107
3,38,95,99
3,40,95,37
3,40,115,101
3,40,87,373
3,36,87,19
3,36,91,103
3,36,79,32
3,38,95,96
3,36,95,86
3,31,107,50
3,31,95,87
3,31,107,110
3,31,82,96
3,38,95,17
3,38,99,107
3,38,99,53
3,38,107,112
3,36,87,54
3,36,107,82
3,31,66,369
3,36,82,38
3,36,99,102
3,36,68,29
3,38,103,24
3,36,111,3
3,31,87,58
3,31,87,90
3,31,87,103
3,31,73,96
3,38,99,43
3,38,87,107
3,38,91,40
3,38,107,107
3,38,95,99
3,40,95,37
3,40,115,101
3,40,87,373
3,36,87,19
3,36,91,103
3,36,79,32
3,38,95,96
3,36,95,86
3,31,107,50
3,31,95,87
3,31,107,110
3,31,82,96
3,38,95,17
3,38,99,107
3,38,99,53
3,38,107,112
3,36,87,54
3,36,107,82
3,31,66,369
3,36,82,38
3,36,99,102
3,36,68,29
3,38,103,24
3,36,111,3
3,33,84,58
3,33,87,126
3,33,103,133
3,36,69,672
3,40,95,37
3,31,87,44
3,31,91,124
3,31,69,68
3,38,87,54
3,38,87,49
3,38,95,148
3,38,107,152
3,33,87,39
3,33,99,128
3,33,91,128
3,33,68,79
3,33,82,153
3,31,84,5
3,31,84,125
3,31,82,146
3,31,55,40
3,26,99,65
3,26,87,75
3,26,95,143
3,31,87,36
3,31,87,90
3,31,87,103
3,31,73,96
3,38,99,43
3,38,87,107
3,38,91,40
3,38,107,107
3,38,95,99
3,40,95,37
3,40,115,101
3,40,87,373
3,36,87,19
3,36,91,103
3,36,79,32
3,38,95,96
3,36,95,86
3,31,107,50
3,31,95,87
3,31,107,110
3,31,82,96
3,38,95,17
3,38,99,107
3,38,99,53
3,38,107,112
3,36,87,54
3,36,107,82
3,31,66,369
3,36,82,38
3,36,99,102
3,36,68,29
3,38,103,24
3,36,111,3
3,31,87,58
3,31,87,90
3,31,87,103
3,31,73,96
3,38,99,43
3,38,87,107
3,38,91,40
3,38,107,107
3,38,95,99
3,40,95,37
3,40,115,101
3,40,87,373
3,36,87,19
3,36,91,103
3,36,79,32
3,38,95,96
3,36,95,86
3,31,107,50
3,31,95,87
3,31,107,110
3,31,82,96
3,38,95,17
3,38,99,107
3,38,99,53
3,38,107,112
3,36,87,54
3,36,107,82
3,31,66,369
3,36,82,38
3,36,99,102
3,36,68,29
3,38,103,24
3,36,111,3
3,33,84,58
3,33,87,126
3,33,103,133
3,36,69,672
3,40,95,37
3,31,87,44
3,31,91,124
3,31,69,68
3,38,87,54
3,38,87,49
3,38,95,148
3,38,107,152
3,33,87,39
3,33,99,128
3,33,91,128
3,33,68,79
3,33,82,153
3,31,84,5
3,31,84,125
3,31,82,146
3,31,55,40
3,26,99,65
3,26,87,75
3,26,95,143
3,31,91,36
3,31,91,182
3,31,95,188
3,31,95,78
3,31,91,150
3,31,103,106
3,31,95,187
3,31,87,169
3,31,99,82
3,31,103,140
3,31,103,106
3,31,91,149
3,31,91,172
3,31,91,67
3,31,103,139
3,31,91,62
3,31,95,174
3,31,87,171
3,31,95,74
3,31,95,144
3,31,95,111
3,31,95,150
3,31,91,165
3,31,91,79
3,31,95,140
3,31,84,88
3,31,91,170
3,31,87,191
3,31,84,83
3,31,87,142
3,31,91,45
3,31,87,174
3,31,91,189
3,31,91,83
3,31,87,142
3,31,84,72
3,31,87,183
3,31,95,186
3,31,87,87
3,31,99,147
3,31,95,86
3,31,87,173
3,31,95,191
3,31,91,71
3,31,95,139
3,33,84,1520
3,33,87,126
3,33,103,133
3,36,69,672
3,40,95,37
3,31,87,44
3,31,91,124
3,31,69,68
3,38,87,54
3,38,87,49
3,38,95,148
3,38,107,152
3,33,87,39
3,33,99,128
3,33,91,128
3,33,68,79
3,33,82,153
3,31,84,5
3,31,84,125
3,31,82,146
3,31,55,40
3,26,99,65
3,26,87,75
3,26,95,143
3,33,87,36
3,33,87,90
3,33,87,103
3,33,73,96
3,40,99,43
3,40,87,107
3,40,91,40
3,40,107,107
3,40,95,99
3,42,95,37
3,42,115,101
3,42,87,373
3,38,87,19
3,38,91,103
3,38,79,32
3,40,95,96
3,38,95,86
3,33,107,50
3,33,95,87
3,33,107,110
3,33,82,96
3,40,95,17
3,40,99,107
3,40,99,53
3,40,107,112
3,38,87,54
3,38,107,82
3,33,66,369
3,38,82,38
3,38,99,102
3,38,68,29
3,40,103,24
3,38,111,3
3,33,87,58
3,33,87,90
3,33,87,103
3,33,73,96
