track,note,velocity,time
0,31,45,744
0,31,45,380
0,31,45,380
0,31,45,380
0,69,58,28
0,69,58,4
0,69,37,8
0,71,74,36
0,71,74,4
0,71,53,8
0,73,80,0
0,73,80,4
0,73,59,8
0,74,82,16
0,74,82,4
0,74,61,4
0,76,85,24
0,76,85,4
0,76,64,8
0,78,87,24
0,78,87,4
0,78,66,8
0,79,91,24
0,79,91,4
0,79,70,8
0,81,118,0
0,69,118,0
0,62,95,4
0,57,95,0
0,66,95,0
0,81,111,0
0,81,118,0
0,57,116,4
0,38,114,4
0,54,116,0
0,62,116,4
0,66,116,0
0,81,121,0
0,42,86,4
0,35,112,0
0,49,70,0
0,42,43,56
0,57,92,88
0,54,92,0
0,62,92,4
0,66,92,0
0,42,81,0
0,42,44,0
0,79,112,44
0,67,112,0
0,57,116,4
0,54,116,0
0,79,112,0
0,79,112,0
0,33,114,4
0,62,116,0
0,66,116,4
0,79,118,0
0,42,91,4
0,83,70,0
0,54,120,0
0,35,112,0
0,42,38,56
0,57,112,60
0,54,112,0
0,62,112,4
0,66,112,4
0,42,90,4
0,42,41,0
0,66,105,8
0,78,105,0
0,78,107,4
0,78,105,0
0,38,107,8
0,78,109,0
0,42,83,4
0,35,112,0
0,42,47,88
0,67,109,40
0,79,109,0
0,79,104,0
0,79,109,0
0,57,123,4
0,54,123,0
0,62,123,4
0,66,123,0
0,79,112,4
0,42,91,0
0,42,45,24
0,81,102,12
0,69,102,0
0,81,102,4
0,81,102,0
0,33,111,8
0,81,100,0
0,42,84,4
0,54,120,0
0,83,70,0
0,35,112,0
0,42,42,8
0,81,114,76
0,69,114,0
0,81,111,4
0,81,114,0
0,57,111,4
0,54,111,0
0,62,111,4
0,66,111,0
0,81,111,0
0,42,92,4
0,42,48,44
0,61,95,28
0,57,112,4
0,54,112,0
0,61,112,4
0,42,109,4
0,66,112,4
0,42,85,4
0,35,112,0
0,42,48,8
0,73,118,80
0,85,118,0
0,85,109,4
0,85,118,0
0,57,70,4
0,54,70,0
0,61,70,4
0,66,70,4
0,85,105,4
0,42,100,0
0,42,40,28
0,57,110,4
0,54,110,0
0,37,112,4
0,61,110,0
0,66,110,4
0,42,93,0
0,54,120,4
0,83,70,0
0,35,112,0
0,42,45,8
0,81,112,64
0,69,112,0
0,81,109,4
0,81,112,0
0,57,112,4
0,54,112,0
0,61,112,4
0,66,112,0
0,81,116,0
0,42,88,4
0,42,38,48
0,42,111,92
0,42,87,4
0,35,112,0
0,42,47,84
0,78,105,20
0,66,105,0
0,57,112,4
0,54,112,0
0,78,105,0
0,78,105,0
0,61,112,4
0,66,112,0
0,78,111,0
0,42,89,4
0,42,43,20
0,78,105,12
0,66,105,0
0,78,105,4
0,78,105,0
0,37,114,8
0,78,111,4
0,42,90,4
0,35,112,0
0,83,70,0
0,54,120,0
0,42,44,80
0,57,112,32
0,54,112,0
0,61,112,4
0,66,112,0
0,42,87,0
0,42,49,0
0,78,104,4
0,66,104,0
0,59,95,4
0,78,104,0
0,67,95,4
0,62,95,0
0,78,111,0
0,55,112,4
0,59,112,4
0,43,107,4
0,62,112,0
0,67,112,4
0,78,105,0
0,42,86,0
0,35,112,4
0,42,43,48
0,55,85,88
0,59,85,0
0,62,85,4
0,67,85,0
0,42,81,4
0,42,44,36
0,76,107,28
0,64,107,0
0,76,100,4
0,76,107,0
0,55,114,4
0,59,114,0
0,38,116,4
0,62,114,0
0,67,114,4
0,76,104,0
0,42,91,4
0,83,70,0
0,54,120,0
0,35,112,0
0,42,38,52
0,55,114,32
0,59,114,0
0,62,114,4
0,67,114,0
0,42,90,0
0,42,41,40
0,74,111,0
0,62,111,0
0,74,105,4
0,74,111,0
0,43,112,8
0,74,105,4
0,42,83,4
0,35,112,0
0,42,47,84
0,76,107,24
0,64,107,0
0,55,121,4
0,59,121,0
0,76,90,0
0,76,107,0
0,62,121,4
0,67,121,0
0,76,102,4
0,42,91,0
0,42,45,16
0,78,105,20
0,66,105,0
0,78,98,4
0,78,105,0
0,55,79,4
0,59,79,0
0,38,118,4
0,62,79,0
0,67,79,4
0,78,114,0
0,42,84,4
0,54,120,0
0,83,70,0
0,35,112,0
0,42,42,4
0,78,109,60
0,66,109,0
0,55,118,4
0,59,118,0
0,78,101,0
0,78,109,0
0,62,118,4
0,67,118,0
0,78,112,0
0,42,92,4
0,42,48,28
0,61,95,28
0,64,95,0
0,57,95,0
0,45,112,4
0,42,85,4
0,35,112,0
0,42,48,88
0,57,121,64
0,61,121,0
0,64,121,4
0,69,121,4
0,42,100,4
0,42,40,24
0,76,114,84
0,64,114,0
0,57,67,4
0,61,67,0
0,76,101,0
0,76,114,0
0,40,118,4
0,64,67,0
0,69,67,4
0,76,109,0
0,42,93,4
0,54,120,0
0,83,70,0
0,35,112,0
0,42,45,72
0,57,118,36
0,61,118,0
0,64,118,4
0,69,118,0
0,42,88,0
0,42,38,44
0,74,114,8
0,62,114,0
0,74,100,4
0,74,114,0
0,45,105,8
0,74,107,4
0,42,87,4
0,35,112,0
0,42,47,68
0,76,118,12
0,64,118,0
0,76,100,4
0,76,118,0
0,57,111,4
0,61,111,0
0,64,111,4
0,69,111,0
0,76,109,4
0,42,89,0
0,42,43,48
0,40,116,92
0,42,90,0
0,35,112,4
0,83,70,0
0,54,120,0
0,42,44,32
0,57,114,20
0,61,114,0
0,64,114,4
0,69,114,0
0,42,87,0
0,42,49,0
0,81,114,72
0,69,114,0
0,57,95,4
0,66,95,0
0,62,95,0
0,81,109,0
0,81,114,0
0,57,114,4
0,38,121,4
0,54,114,0
0,62,114,4
0,66,114,0
0,81,114,0
0,42,86,4
0,35,112,0
0,42,43,60
0,57,78,88
0,54,78,0
0,62,78,4
0,66,78,4
0,42,81,4
0,42,44,32
0,79,114,32
0,67,114,0
0,57,116,4
0,54,116,0
0,79,111,0
0,79,114,0
0,33,118,4
0,62,116,4
0,66,116,0
0,79,109,4
0,42,91,0
0,83,70,0
0,54,120,0
0,35,112,0
0,42,38,68
0,57,112,52
0,54,112,0
0,62,112,4
0,66,112,4
0,42,90,4
0,42,41,32
0,78,111,20
0,66,111,0
0,78,107,4
0,78,111,0
0,38,109,8
0,78,109,4
0,42,83,4
0,35,112,0
0,42,47,84
0,79,114,12
0,67,114,0
0,79,107,4
0,79,114,0
0,57,116,4
0,54,116,0
0,62,116,4
0,66,116,0
0,79,112,0
0,42,91,4
0,42,45,36
0,81,107,24
0,69,107,0
0,81,107,4
0,81,107,0
0,33,112,8
0,81,104,4
0,42,84,4
0,54,120,0
0,83,70,0
0,35,112,0
0,42,42,4
0,81,102,68
0,69,102,0
0,81,111,0
0,81,102,0
0,57,114,4
0,54,114,0
0,62,114,4
0,66,114,0
0,81,109,4
0,42,92,0
0,42,48,24
0,57,95,8
0,66,95,0
0,61,95,0
0,57,112,0
0,54,112,0
0,61,112,4
0,42,109,4
0,66,112,0
0,42,85,0
0,35,112,4
0,42,48,60
0,73,111,44
0,85,111,0
0,85,105,4
0,85,111,0
0,85,105,8
0,42,100,0
0,42,40,28
0,57,114,28
0,54,114,0
0,61,114,0
0,37,118,4
0,66,114,4
0,42,93,0
0,54,120,0
0,83,70,4
0,35,112,0
0,42,45,48
0,81,114,32
0,69,114,0
0,81,105,4
0,81,114,0
0,57,110,4
0,54,110,0
0,61,110,4
0,66,110,0
0,81,118,0
0,42,88,4
0,42,38,40
0,42,104,92
0,42,87,0
0,35,112,0
0,42,47,92
0,78,111,28
0,66,111,0
0,78,111,4
0,78,111,0
0,57,112,4
0,54,112,0
0,61,112,4
0,66,112,4
0,78,109,4
0,42,89,0
0,42,43,48
0,78,111,8
0,66,111,0
0,78,111,4
0,78,111,0
0,37,114,8
0,78,109,4
0,42,90,4
0,35,112,0
0,83,70,0
0,54,120,0
0,42,44,80
0,57,110,20
0,54,110,0
0,61,110,4
0,66,110,0
0,42,87,0
0,42,49,8
0,78,114,0
0,66,114,0
0,67,95,4
0,78,114,0
0,62,95,4
0,59,95,0
0,78,111,4
0,55,114,4
0,59,114,0
0,43,109,4
0,62,114,0
0,67,114,0
0,78,110,4
0,42,86,0
0,35,112,0
0,42,43,52
0,55,65,88
0,59,65,0
0,62,65,4
0,67,65,0
0,42,81,0
0,42,44,24
0,76,109,12
0,64,109,0
0,55,112,4
0,59,112,0
0,76,107,0
0,76,109,0
0,38,111,4
0,62,112,0
0,67,112,4
0,76,105,0
0,42,91,4
0,83,70,0
0,54,120,0
0,35,112,0
0,42,38,60
0,55,114,40
0,59,114,0
0,62,114,4
0,67,114,0
0,42,90,0
0,42,41,4
0,74,104,28
0,62,104,0
0,74,109,4
0,74,104,0
0,43,111,8
0,74,105,0
0,42,83,4
0,35,112,0
0,42,47,88
0,76,107,16
0,64,107,0
0,55,114,4
0,59,114,0
0,76,100,0
0,76,107,0
0,62,114,4
0,67,114,0
0,76,104,0
0,42,91,4
0,42,45,4
0,78,105,36
0,66,105,0
0,78,102,4
0,78,105,0
0,38,112,4
0,78,105,4
0,42,84,4
0,54,120,0
0,83,70,0
0,35,112,0
0,42,42,8
0,78,111,80
0,66,111,0
0,78,107,4
0,78,111,0
0,55,111,4
0,59,111,0
0,62,111,4
0,67,111,0
0,78,107,0
0,42,92,4
0,42,48,12
0,61,95,36
0,57,95,0
0,64,95,0
0,57,107,4
0,61,107,0
0,45,111,4
0,64,107,4
0,69,107,0
0,42,85,4
0,35,112,0
0,42,48,56
0,57,59,88
0,61,59,0
0,64,59,4
0,69,59,0
0,42,100,0
0,42,40,8
0,76,109,44
0,64,109,0
0,76,109,4
0,76,109,0
0,57,112,4
0,61,112,0
0,43,102,4
0,64,112,4
0,69,112,4
0,76,111,4
0,42,93,0
0,54,120,0
0,83,70,0
0,35,112,0
0,42,45,60
0,57,111,60
0,61,111,0
0,64,111,4
0,69,111,4
0,42,88,4
0,42,38,4
0,78,111,64
0,66,111,0
0,78,107,4
0,78,111,0
0,57,79,4
0,61,79,0
0,42,111,4
0,64,79,0
0,69,79,4
0,78,109,0
0,42,87,0
0,35,112,0
0,42,47,24
0,79,111,28
0,67,111,0
0,79,118,4
0,79,111,0
0,57,118,4
0,61,118,0
0,64,118,4
0,69,118,0
0,79,109,0
0,42,89,4
0,42,43,44
0,40,114,88
0,42,90,0
0,35,112,4
0,83,70,0
0,54,120,0
0,42,44,68
0,57,105,32
0,61,105,0
0,64,105,4
0,69,105,0
0,42,87,0
0,42,49,4
0,62,95,84
0,57,95,0
0,66,95,0
0,57,114,0
0,54,114,4
0,38,112,4
0,62,114,0
0,66,114,4
0,62,107,0
0,42,86,0
0,35,112,4
0,42,43,60
0,57,90,88
0,54,90,0
0,62,90,4
0,66,90,4
0,42,81,4
0,42,44,16
0,69,127,76
0,57,112,12
0,54,112,0
0,33,109,4
0,62,112,0
0,66,112,4
0,42,91,0
0,83,70,4
0,54,120,0
0,35,112,0
0,42,38,44
0,69,127,12
0,57,107,12
0,54,107,0
0,62,107,4
0,66,107,0
0,42,90,0
0,42,41,28
0,38,109,92
0,42,83,0
0,35,112,0
0,42,47,88
0,69,127,76
0,57,114,12
0,54,114,0
0,62,114,4
0,66,114,0
0,42,91,0
0,42,45,40
0,33,114,40
0,42,84,0
0,54,120,4
0,83,70,0
0,35,112,0
0,42,42,84
0,69,127,72
0,57,114,12
0,54,114,0
0,62,114,4
0,66,114,0
0,42,92,0
0,42,48,20
0,66,85,8
0,57,95,4
0,61,95,0
0,57,106,0
0,54,106,0
0,61,106,4
0,42,112,4
0,66,106,0
0,61,86,0
0,42,85,4
0,35,112,0
0,42,48,52
0,69,127,76
0,42,100,16
0,42,40,40
0,69,127,76
0,57,110,12
0,54,110,0
0,37,112,4
0,61,110,0
0,66,110,4
0,42,93,0
0,54,120,0
0,83,70,4
0,35,112,0
0,42,45,72
0,57,108,44
0,54,108,0
0,61,108,4
0,66,108,4
0,42,88,4
0,42,38,24
0,42,112,20
0,42,87,0
0,35,112,0
0,42,47,8
0,57,108,8
0,54,108,0
0,61,108,4
0,66,108,4
0,42,89,0
0,42,43,4
0,66,127,28
0,37,116,16
0,42,90,0
0,35,112,4
0,83,70,0
0,54,120,0
0,42,44,8
0,69,127,76
0,57,103,12
0,54,103,0
0,61,103,0
0,66,103,4
0,42,87,0
0,42,49,8
0,71,127,72
0,62,95,4
0,59,95,0
0,67,95,0
0,55,112,4
0,59,112,0
0,43,112,4
0,62,112,4
0,67,112,4
0,59,91,4
0,42,86,0
0,35,112,0
0,42,43,56
0,42,81,92
0,42,44,4
0,71,127,76
0,55,102,12
0,59,102,0
0,38,111,4
0,62,102,0
0,67,102,4
0,42,91,0
0,83,70,4
0,54,120,0
0,35,112,0
0,42,38,68
0,55,104,48
0,59,104,0
0,62,104,4
0,67,104,0
0,42,90,0
0,42,41,0
0,71,127,76
0,43,107,4
0,42,83,4
0,35,112,4
0,42,47,40
0,71,127,72
0,55,112,12
0,59,112,0
0,62,112,4
0,67,112,0
0,42,91,0
0,42,45,24
0,38,109,8
0,42,84,4
0,54,120,4
0,83,70,0
0,35,112,0
0,42,42,80
0,69,127,76
0,55,101,12
0,59,101,0
0,62,101,4
0,67,101,4
0,42,92,4
0,42,48,8
0,61,95,28
0,64,95,0
0,57,95,0
0,57,111,0
0,61,111,0
0,45,105,4
0,64,111,4
0,69,111,0
0,61,86,4
0,42,85,0
0,35,112,0
0,42,48,60
0,57,73,88
0,61,73,0
0,64,73,4
0,69,73,4
0,42,100,4
0,42,40,16
0,57,105,16
0,61,105,0
0,40,111,4
0,64,105,0
0,69,105,4
0,42,93,0
0,54,120,4
0,83,70,0
0,35,112,0
0,42,45,16
0,57,114,20
0,61,114,0
0,64,114,4
0,69,114,0
0,42,88,4
0,42,38,4
0,57,84,4
0,61,84,0
0,45,109,4
0,64,84,4
0,69,84,4
0,42,87,0
0,35,112,0
0,42,47,36
0,57,118,76
0,61,118,0
0,64,118,4
0,69,118,0
0,42,89,0
0,42,43,12
0,40,116,92
0,42,90,4
0,35,112,4
0,83,70,0
0,54,120,0
0,42,44,40
0,57,107,32
0,61,107,0
0,64,107,4
0,69,107,0
0,42,87,0
0,42,49,12
0,62,95,76
0,57,95,0
0,66,95,0
0,57,105,4
0,54,105,4
0,38,107,4
0,62,105,0
0,66,105,4
0,62,92,0
0,42,86,0
0,35,112,4
0,42,43,60
0,42,81,92
0,42,44,88
0,69,127,72
0,57,114,12
0,54,114,0
0,33,112,4
0,62,114,0
0,66,114,4
0,42,91,0
0,83,70,4
0,54,120,0
0,35,112,0
0,42,38,40
0,69,127,36
0,57,112,12
0,54,112,0
0,62,112,4
0,66,112,0
0,42,90,0
0,42,41,24
0,69,127,76
0,38,111,16
0,42,83,0
0,35,112,0
0,42,47,0
0,66,127,76
0,57,111,12
0,54,111,0
0,62,111,4
0,66,111,0
0,42,91,0
0,42,45,24
0,33,107,32
0,42,84,0
0,54,120,4
0,83,70,0
0,35,112,0
0,42,42,84
0,69,127,76
0,57,109,12
0,54,109,0
0,62,109,4
0,66,109,0
0,42,92,0
0,42,48,28
0,66,51,24
0,57,95,0
0,61,95,0
0,57,108,0
0,54,108,0
0,61,108,4
0,42,109,4
0,66,108,0
0,61,81,4
0,42,85,0
0,35,112,0
0,42,48,64
0,69,127,76
0,57,56,12
0,54,56,0
0,61,56,4
0,66,56,4
0,42,100,4
0,42,40,36
0,69,127,72
0,57,110,12
0,54,110,0
0,37,109,4
0,61,110,0
0,66,110,4
0,42,93,0
0,54,120,4
0,83,70,0
0,35,112,0
0,42,45,60
0,57,104,60
0,54,104,0
0,61,104,4
0,66,104,0
0,42,88,0
0,42,38,8
0,69,127,72
0,57,61,12
0,54,61,0
0,61,61,4
0,42,109,4
0,66,61,4
0,42,87,0
0,35,112,0
0,42,47,76
0,57,110,44
0,54,110,0
0,61,110,0
0,66,110,4
0,42,89,4
0,42,43,64
0,66,127,72
0,37,105,16
0,42,90,4
0,35,112,4
0,83,70,0
