track,note,velocity,time
1,62,56,412
1,66,56,0
1,57,56,0
1,61,56,72
1,62,56,8
1,67,56,0
1,59,56,24
1,64,56,168
1,69,56,0
1,61,56,0
1,66,56,80
1,62,56,0
1,57,56,0
1,61,56,120
1,67,56,12
1,59,56,0
1,62,56,0
1,69,56,64
1,61,56,16
1,64,56,0
1,66,56,144
1,62,56,0
1,57,56,0
1,61,56,64
1,62,56,0
1,59,56,0
1,67,56,4
1,69,56,48
1,64,56,0
1,61,56,16
1,66,56,32
1,62,56,0
1,57,56,16
1,61,56,100
1,67,56,32
1,59,56,0
1,62,56,0
1,69,56,68
1,64,56,0
1,61,56,0
1,57,56,104
1,66,56,0
1,62,56,8
1,61,56,112
1,62,56,16
1,59,56,0
1,67,56,0
1,64,56,52
1,69,56,0
1,61,56,8
1,66,56,64
1,62,56,16
1,57,56,0
1,61,56,112
1,62,56,16
1,67,56,0
1,59,56,0
1,69,56,96
1,64,56,0
1,61,56,16
1,66,56,104
1,62,56,16
1,57,56,0
1,61,56,176
1,59,56,28
1,67,56,0
1,62,56,4
1,64,56,84
1,61,56,20
1,69,56,0
1,66,56,104
1,57,56,0
1,62,56,0
1,61,56,120
1,62,56,40
1,59,56,4
1,67,56,0
1,64,56,116
1,69,56,0
1,61,56,16
1,66,56,112
1,62,56,0
1,57,56,0
1,61,56,188
1,59,56,16
1,67,56,32
1,62,56,0
1,69,56,80
1,64,56,0
1,61,56,0
1,66,56,60
1,57,56,12
1,62,56,0
1,61,56,128
1,59,56,16
1,67,56,0
1,62,56,0
1,61,56,64
1,69,56,12
1,64,56,0
1,62,56,176
1,70,56,0
1,65,56,28
1,67,56,32
1,63,56,16
1,58,56,0
1,62,56,32
1,68,56,20
1,60,56,8
1,63,56,0
1,70,56,28
1,62,56,4
1,65,56,0
1,67,56,64
1,58,56,0
1,63,56,0
1,62,56,16
1,63,56,48
1,68,56,0
1,60,56,0
1,70,56,32
1,65,56,0
1,62,56,0
1,67,56,32
1,58,56,0
1,63,56,20
1,62,56,0
1,68,56,16
1,63,56,0
1,60,56,0
1,70,56,8
1,65,56,0
1,62,56,4
1,67,56,32
1,63,56,0
1,58,56,0
1,62,56,16
1,68,56,28
1,60,56,0
1,63,56,20
1,70,56,16
1,62,56,0
1,65,56,0
1,67,56,32
1,58,56,16
1,63,56,0
1,62,56,0
1,60,56,60
1,68,56,0
1,63,56,0
1,62,56,48
1,70,56,0
1,65,56,0
1,67,56,36
1,58,56,16
1,63,56,0
1,62,56,16
1,68,56,40
1,60,56,16
1,63,56,0
1,70,56,28
1,62,56,12
1,65,56,4
1,67,56,8
1,63,56,12
1,58,56,8
1,62,56,16
1,68,56,16
1,63,56,0
1,60,56,0
1,70,56,32
1,62,56,0
1,65,56,8
1,63,56,144
1,66,56,0
1,71,56,0
1,68,56,48
1,64,56,0
1,59,56,28
1,63,56,128
1,64,56,44
1,61,56,4
1,69,56,16
1,71,56,32
1,63,56,0
1,66,56,0
1,68,56,128
1,59,56,0
1,64,56,0
1,63,56,136
1,64,56,52
1,61,56,0
1,69,56,0
1,71,56,112
1,66,56,0
1,63,56,0
1,68,56,68
1,64,56,8
1,59,56,0
1,63,56,112
1,61,56,80
1,64,56,16
1,69,56,4
1,66,56,16
1,71,56,4
1,63,56,28
1,64,56,52
1,68,56,0
1,59,56,28
1,63,56,96
1,61,56,92
1,64,56,0
1,69,56,0
1,71,56,32
1,66,56,16
1,63,56,0
1,59,56,92
1,68,56,0
1,64,56,0
1,63,56,140
1,61,56,92
1,69,56,0
1,64,56,0
1,71,56,36
1,63,56,0
1,66,56,20
1,68,56,48
1,64,56,0
1,59,56,0
1,63,56,120
1,69,56,60
1,64,56,0
1,61,56,0
1,71,56,20
1,63,56,16
1,66,56,0
1,68,56,88
1,64,56,4
1,59,56,0
1,63,56,112
1,64,56,76
1,61,56,0
1,69,56,0
1,71,56,56
1,66,56,0
1,63,56,0
1,68,56,80
1,59,56,0
1,64,56,0
1,63,56,112
1,61,56,48
1,64,56,0
1,69,56,0
1,71,56,4
1,63,56,0
1,66,56,0
1,68,56,80
1,59,56,0
1,64,56,0
2,74,74,96
2,76,59,96
2,78,55,64
2,79,50,84
2,81,52,64
2,79,67,36
2,78,73,4
2,79,45,0
2,81,55,0
2,81,57,64
2,85,57,8
2,81,51,64
2,78,60,384
2,78,68,96
2,76,74,24
2,74,74,20
2,76,62,16
2,78,64,92
2,78,68,128
2,76,69,4
2,74,69,20
2,76,72,48
2,81,72,104
2,79,69,32
2,78,70,0
2,79,60,36
2,81,54,32
2,81,69,88
2,85,70,8
2,81,55,24
2,78,73,0
2,78,66,116
2,76,67,24
2,74,64,0
2,76,59,192
2,78,66,40
2,78,70,112
2,76,55,0
2,81,60,24
2,79,55,96
2,78,64,32
2,76,72,68
2,74,60,64
2,73,91,72
2,71,62,64
2,69,81,64
2,78,68,27060
2,81,58,8
2,79,55,16
2,66,66,5408
2,78,70,0
2,81,46,8
2,69,65,0
2,79,51,16
2,67,43,0
2,81,64,2888
2,79,60,32
2,78,63,4
2,79,67,0
2,81,64,16
2,81,67,100
2,85,73,16
2,81,67,8
2,78,66,384
2,78,70,112
2,76,67,16
2,74,62,4
2,76,57,188
2,78,61,68
2,78,70,112
2,76,62,0
2,74,67,20
2,76,60,32
2,81,54,20
2,79,49,16
2,78,68,48
2,79,55,16
2,81,54,36
2,81,64,96
2,85,85,16
2,81,69,32
2,78,68,8
2,78,77,124
2,76,65,32
2,74,65,384
2,76,59,188
2,78,64,64
2,78,64,208
2,76,64,480
2,75,98,224
2,74,60,0
2,75,64,96
2,77,50,64
2,79,57,64
2,77,59,80
2,79,37,0
2,80,61,0
2,82,70,96
2,82,32,12148
2,79,69,112
2,77,77,384
2,75,64,68
2,74,56,16
2,77,55,0
2,79,55,772
2,75,63,0
2,77,62,96
2,80,64,0
2,79,57,88
2,82,61,0
2,79,81,116
2,77,77,368
2,75,81,0
2,68,53,0
2,77,49,0
2,70,53,24
2,79,74,2544
2,67,58,0
2,70,77,0
2,82,73,0
2,80,66,0
2,68,63,0
2,67,64,5460
2,79,77,0
2,70,81,0
2,82,77,0
2,80,70,0
2,68,58,0
2,82,70,2916
2,80,70,0
2,79,64,44
2,80,63,188
2,82,66,48
2,82,70,100
2,86,65,0
2,82,64,16
2,79,65,16
2,79,62,100
2,77,67,16
2,75,68,4
2,77,55,16
2,79,58,0
2,79,69,112
2,77,69,576
2,76,58,144
2,75,61,96
2,76,54,0
2,78,66,96
2,80,66,72
2,78,73,72
2,80,70,92
2,81,56,68
2,83,48,84
2,80,91,576
2,71,62,0
2,83,48,0
2,68,81,616
2,80,70,0
2,78,38,36
2,66,37,0
2,68,63,9824
2,80,68,0
2,83,43,4
2,71,49,0
2,81,37,0
2,69,42,0
2,80,63,5560
2,68,64,0
2,83,42,0
2,71,41,0
2,81,35,0
2,69,46,0
2,68,62,5584
2,80,68,0
2,83,48,0
2,71,49,0
2,81,41,0
2,69,55,0
2,83,51,3044
2,81,49,380
2,80,60,20
2,81,44,0
2,83,48,0
2,83,56,80
2,87,64,16
2,83,57,0
2,80,63,8
2,80,68,116
2,78,66,16
2,76,57,0
2,78,62,192
2,80,61,56
2,80,62,112
2,78,68,16
2,76,55,8
2,78,63,192
2,83,51,32
2,81,52,32
2,80,62,84
2,81,58,20
2,83,54,16
2,83,56,96
2,87,70,32
2,83,55,96
2,80,68,16
2,80,63,208
2,78,61,20
2,76,53,36
2,78,60,188
2,80,57,80
2,80,68,128
2,78,63,0
2,76,55,8
2,78,63,188
2,83,49,144
2,81,49,32
2,80,62,0
2,81,48,0
2,83,48,16
2,83,60,80
2,87,63,4
2,83,59,0
2,80,61,16
2,80,62,168
2,78,61,8
2,76,49,16
2,78,58,192
2,80,62,68
2,80,61,112
2,78,70,32
2,76,58,16
2,78,63,192
2,71,41,228
2,80,43,0
2,76,41,0
3,38,103,864
3,33,103,116
3,38,100,108
3,33,111,64
3,42,107,112
3,37,107,116
3,42,83,116
3,37,111,96
3,43,103,136
3,38,95,96
3,43,100,140
3,38,100,104
3,45,107,112
3,40,91,136
3,45,103,148
3,40,95,168
3,38,98,116
3,33,98,112
3,38,100,128
3,33,111,112
3,42,107,152
3,37,107,128
3,42,107,144
3,37,111,96
3,43,107,136
3,38,93,128
3,43,98,112
3,38,95,112
3,45,107,116
3,43,107,64
3,42,103,8
3,40,103,96
3,38,103,132
3,33,98,0
3,38,98,132
3,33,100,80
3,42,99,116
3,37,99,132
3,42,96,128
3,37,94,132
3,43,103,144
3,38,95,100
3,43,107,124
3,38,95,112
3,45,100,96
3,40,95,128
3,45,100,124
3,40,95,144
3,38,95,116
3,33,98,112
3,38,95,132
3,33,100,96
3,42,90,112
3,37,107,136
3,42,99,148
3,37,107,96
3,43,100,176
3,38,93,160
3,43,107,112
3,38,98,112
3,45,107,116
3,43,103,64
3,42,107,64
3,40,95,84
3,38,100,124
3,33,98,112
3,38,100,128
3,33,107,80
3,42,99,124
3,37,111,128
3,42,96,128
3,37,107,96
3,43,107,116
3,38,95,128
3,43,103,100
3,38,98,112
3,45,95,92
3,40,98,32
3,45,93,112
3,40,93,0
3,38,98,112
3,33,98,36
3,38,100,148
3,33,107,80
3,42,103,96
3,37,111,104
3,42,103,132
3,37,111,64
3,43,107,112
3,38,103,64
3,43,98,132
3,38,98,88
3,45,111,112
3,43,111,48
3,42,117,28
3,40,93,16
3,38,103,116
3,33,98,96
3,38,98,112
3,33,95,80
3,42,107,132
3,37,117,128
3,42,103,112
3,37,111,100
3,43,91,116
3,38,98,116
3,43,107,128
3,38,93,96
3,45,103,116
3,40,98,72
3,45,103,112
3,40,95,384
3,38,100,132
3,33,107,96
3,38,88,116
3,33,100,88
3,42,103,132
3,37,96,96
3,42,103,112
3,37,107,80
3,43,107,128
3,38,98,56
3,43,111,128
3,38,103,112
3,45,107,112
3,43,100,68
3,42,111,68
3,40,111,64
3,38,100,56
3,33,98,56
3,38,100,124
3,33,95,380
3,42,103,144
3,37,107,112
3,42,107,148
3,37,107,112
3,43,107,128
3,38,98,72
3,43,111,116
3,38,98,80
3,45,103,84
3,40,111,36
3,45,103,112
3,40,98,80
3,38,100,124
3,33,95,80
3,38,100,128
3,33,98,4
3,42,99,108
3,37,103,64
3,42,103,104
3,37,107,96
3,43,91,116
3,38,93,104
3,43,107,96
3,38,95,80
3,45,100,84
3,40,91,68
3,46,103,112
3,41,98,48
3,39,103,112
3,34,107,48
3,39,92,112
3,34,99,96
3,43,103,136
3,38,103,64
3,43,98,96
3,38,103,80
3,44,103,112
3,39,107,100
3,44,107,116
3,39,107,64
3,46,103,128
3,41,100,88
3,46,117,100
3,41,98,24
3,39,107,144
3,34,103,96
3,39,99,132
3,34,103,96
3,43,98,116
3,38,103,64
3,43,100,100
3,38,103,64
3,44,107,132
3,39,103,100
3,44,99,144
3,39,107,80
3,46,111,136
3,44,107,80
3,43,116,32
3,41,100,48
3,39,96,92
3,34,99,80
3,39,94,128
3,34,99,80
3,43,100,132
3,38,107,88
3,43,95,112
3,38,116,88
3,44,107,124
3,39,107,96
3,44,103,160
3,39,103,96
3,46,107,128
3,41,103,84
3,46,107,124
3,41,103,80
3,39,111,116
3,34,117,100
3,39,103,148
3,34,111,96
3,43,100,112
3,38,103,136
3,43,98,116
3,38,100,80
3,44,107,112
3,39,107,116
3,44,99,148
3,39,111,80
3,46,117,116
3,44,111,36
3,43,111,64
3,41,100,8
3,39,107,132
3,34,103,96
3,39,94,128
3,34,107,68
3,43,103,136
3,38,95,112
3,43,95,112
3,38,100,96
3,44,99,116
3,39,103,128
3,44,103,144
3,39,111,48
3,46,103,132
3,41,98,96
3,46,103,112
3,41,95,0
3,39,90,108
3,34,96,120
3,39,94,128
3,34,103,80
3,43,98,128
3,38,103,96
3,43,100,112
3,38,103,32
3,44,103,112
3,39,103,100
3,44,107,116
3,39,111,48
3,46,117,112
3,41,103,40
3,46,107,108
3,41,107,0
3,39,111,80
3,34,107,64
3,39,96,124
3,34,111,88
3,43,103,132
3,38,107,96
3,43,107,116
3,38,107,80
3,44,111,132
3,39,107,128
3,44,90,144
3,39,111,68
3,46,117,132
3,41,95,32
3,47,103,112
3,42,103,52
3,40,107,116
3,35,93,96
3,40,100,88
3,35,95,0
3,44,103,92
3,39,107,96
3,44,103,96
3,39,107,48
3,45,83,132
3,40,100,40
3,45,98,112
3,40,93,32
3,47,103,96
3,42,103,64
3,47,100,112
3,42,111,36
3,40,100,112
3,35,95,100
3,40,100,132
3,35,95,0
3,44,103,116
3,39,99,88
3,44,111,148
3,39,96,48
3,45,100,112
3,40,98,48
3,45,95,116
3,40,95,16
3,47,100,112
3,45,98,64
3,44,117,36
3,42,107,16
3,40,111,64
3,35,107,64
3,40,107,80
3,35,95,24
3,44,103,52
3,39,111,96
3,44,107,112
3,39,99,60
3,45,98,100
3,40,98,64
3,45,98,96
3,40,100,16
3,47,98,108
3,42,111,80
3,47,93,88
3,42,111,32
3,40,107,100
3,35,98,48
3,40,103,112
3,35,98,56
3,44,107,84
3,39,99,48
3,44,107,116
3,39,107,72
3,45,103,128
3,40,100,80
3,45,103,124
3,40,98,32
3,47,107,80
3,45,98,32
3,44,103,388
3,42,111,16
3,40,100,32
3,35,100,48
3,40,100,108
3,35,100,0
3,44,107,88
3,39,107,48
3,44,111,140
3,39,111,32
3,45,107,112
3,40,107,8
3,45,107,92
3,40,100,16
3,47,98,80
3,45,103,32
3,44,124,48
3,42,111,64
3,40,107,116
3,35,111,16
3,40,111,100
3,35,100,80
3,44,107,72
3,39,103,88
3,44,103,112
3,39,96,88
3,45,103,148
3,40,100,64
3,45,103,80
3,40,111,0
3,47,93,72
3,45,83,16
3,44,107,24
3,42,107,0
3,40,107,88
3,35,100,96
3,40,100,96
3,35,98,48
3,44,103,64
3,39,96,80
3,44,111,100
3,39,103,116
3,45,86,112
3,40,95,64
3,45,98,108
3,40,93,16
3,47,85,96
3,42,111,72
3,47,98,4
3,42,111,40
3,40,116,88
3,35,98,56
3,40,103,100
3,35,98,0
3,44,111,116
3,39,111,24
3,44,117,128
3,39,107,112
3,45,103,140
3,40,98,104
3,45,100,96
3,40,103,92
3,47,103,108
3,45,95,32
3,44,111,16
3,42,111,0
3,40,111,52
4,69,55,12388
4,66,54,0
4,66,61,52
4,69,59,0
4,69,56,112
4,66,61,0
4,69,44,32
4,66,50,0
4,69,52,80
4,66,57,0
4,66,52,68
4,69,48,0
4,69,57,80
4,66,64,0
4,69,58,112
4,66,62,0
4,66,58,68
4,69,55,0
4,69,62,80
4,66,64,0
4,69,69,84
4,66,70,0
4,64,60,16
4,67,69,0
4,66,61,20
4,62,53,0
4,67,60,32
4,64,53,0
4,61,63,256
4,69,57,0
4,66,55,400
4,69,48,0
4,66,53,56
4,69,54,0
4,69,53,112
4,66,61,0
4,66,56,64
4,69,49,0
4,69,55,96
4,66,58,0
4,66,55,64
4,69,52,0
4,69,53,72
4,66,60,0
4,69,54,96
4,66,56,0
4,69,48,96
4,66,50,0
4,69,58,112
4,66,61,0
4,69,60,88
4,66,68,0
4,67,60,32
4,64,56,0
4,66,56,8
4,62,52,0
4,67,67,32
4,64,59,0
4,64,56,84
4,69,59,0
4,61,55,0
4,69,51,444
4,66,58,0
4,66,53,64
4,69,55,0
4,69,56,128
4,66,58,0
4,66,47,68
4,69,48,0
4,69,53,96
4,66,55,0
4,66,51,100
4,69,49,0
4,69,53,64
4,66,52,0
4,69,55,96
4,66,58,0
4,69,51,136
4,66,55,0
4,69,56,88
4,66,58,0
4,69,55,116
4,66,58,0
4,64,55,32
4,67,60,0
4,66,57,8
4,62,52,0
4,67,57,56
4,64,55,0
4,61,44,232
4,64,53,0
4,69,55,0
4,66,61,456
4,69,55,0
4,66,55,72
4,69,56,0
4,66,61,128
4,69,55,0
4,66,55,96
4,69,55,0
4,66,60,96
4,69,56,0
4,66,54,112
4,69,53,0
4,66,56,80
