track,note,velocity,time
2,62,54,0
2,62,0,287
2,62,54,97
2,62,0,383
2,69,54,1
2,69,0,287
2,69,54,97
2,69,0,383
2,64,54,1
2,64,0,383
2,61,54,1
2,61,0,383
2,69,74,385
2,69,0,383
2,69,74,97
2,69,0,287
2,78,74,1
2,81,74,0
2,78,0,287
2,76,74,1
2,79,74,0
2,76,0,95
2,79,0,0
2,81,0,0
2,74,74,97
2,74,0,287
2,74,102,1
2,78,102,0
2,81,102,0
2,86,102,0
2,74,0,383
2,78,0,0
2,81,0,0
2,86,0,0
2,76,102,1
2,85,102,0
2,76,0,287
2,85,0,0
2,79,102,1
2,79,0,95
2,86,102,121
2,86,0,23
2,85,102,1
2,85,0,23
2,83,102,1
2,83,0,47
2,86,102,73
2,86,0,47
2,83,102,1
2,83,0,47
2,86,102,121
2,86,0,23
2,85,102,1
2,85,0,23
2,83,102,1
2,83,0,47
2,86,102,73
2,86,0,47
2,83,102,1
2,83,0,47
2,74,102,769
2,74,0,383
2,78,74,1
2,86,74,0
2,78,0,383
2,86,0,1152
2,79,74,1
2,88,74,0
2,79,0,191
2,76,74,1
2,79,74,0
2,76,0,191
2,79,0,0
2,88,0,0
2,69,74,385
2,69,0,383
2,69,74,97
2,69,0,287
2,78,74,1
2,81,74,0
2,78,0,287
2,76,74,1
2,79,74,0
2,76,0,95
2,79,0,0
2,81,0,0
2,74,74,97
2,74,0,287
2,74,102,1
2,78,102,0
2,81,102,0
2,86,102,0
2,74,0,383
2,78,0,0
2,81,0,0
2,86,0,0
2,76,102,1
2,85,102,0
2,76,0,287
2,85,0,0
2,79,102,1
2,79,0,95
2,86,102,121
2,86,0,23
2,85,102,1
2,85,0,23
2,83,102,1
2,83,0,47
2,86,102,73
2,86,0,47
2,83,102,1
2,83,0,47
2,86,102,121
2,86,0,23
2,85,102,1
2,85,0,23
2,83,102,1
2,83,0,47
2,86,102,73
2,86,0,47
2,83,102,1
2,83,0,47
2,88,94,23041
2,88,0,191
2,86,94,1
2,86,0,191
2,85,94,1
2,85,0,191
2,83,94,1
2,83,0,191
2,69,64,289
2,69,0,671
2,69,64,97
2,69,0,671
2,57,64,97
2,57,0,479
2,77,64,1
2,74,64,1536
2,74,0,191
2,77,0,192
2,76,64,1921
2,76,0,287
2,88,64,2785
2,88,0,287
2,71,94,2017
2,71,0,191
2,71,64,97
2,71,0,47
2,73,64,1
2,73,0,47
2,74,64,1
2,74,0,47
2,73,64,1
2,73,0,47
2,71,64,1
2,71,0,47
2,73,64,1
2,73,0,47
2,74,64,1
2,74,0,47
2,73,64,1
2,73,0,47
2,74,64,1
2,74,0,47
2,71,64,1
2,71,0,47
2,69,94,1
2,73,94,0
2,69,0,191
2,73,0,0
2,71,64,97
2,71,0,47
2,73,64,1
2,73,0,47
2,76,64,1
2,76,0,47
2,74,64,1
2,74,0,47
2,73,64,1
2,73,0,47
2,74,64,1
2,74,0,47
2,76,64,1
2,76,0,47
2,74,64,1
2,74,0,47
2,76,64,1
2,76,0,47
2,73,64,1
2,73,0,47
2,69,94,1
2,74,94,0
2,69,0,191
2,74,0,0
2,74,64,97
2,74,0,47
2,76,64,1
2,76,0,47
2,78,64,1
2,78,0,47
2,76,64,1
2,76,0,47
2,74,64,1
2,74,0,47
2,76,64,1
2,76,0,47
2,78,64,1
2,78,0,47
2,76,64,1
2,76,0,47
2,78,64,1
2,78,0,47
2,74,64,1
2,74,0,47
2,76,94,1
2,76,0,239
2,78,64,1
2,78,0,47
2,79,64,1
2,79,0,47
2,76,64,1
2,76,0,47
2,78,94,1
2,78,0,239
2,79,64,1
2,79,0,47
2,81,64,1
2,81,0,47
2,78,64,1
2,78,0,47
2,79,64,913
2,79,0,47
2,79,64,1
2,79,0,47
2,78,64,1
2,78,0,47
2,79,64,1
2,79,0,47
2,78,64,1
2,78,0,47
2,79,64,1
2,79,0,47
2,78,64,1
2,78,0,47
2,79,64,1
2,79,0,47
2,78,64,1
2,78,0,47
2,79,64,1
2,79,0,47
2,78,64,1
2,78,0,47
2,79,64,1
2,79,0,47
2,78,64,1
2,78,0,47
2,79,64,1
2,79,0,47
2,78,64,1
2,78,0,47
2,76,64,1
2,76,0,47
2,78,64,1
2,78,0,47
2,76,64,1
2,76,0,47
2,74,64,1
2,74,0,47
2,73,64,1
2,73,0,47
2,74,64,1
2,74,0,47
2,73,64,1
2,73,0,47
2,71,64,1
2,71,0,47
2,69,64,1
2,69,0,47
2,71,64,1
2,71,0,47
2,69,64,1
2,69,0,47
2,67,64,1
2,67,0,47
2,66,64,1
2,66,0,47
2,64,64,1
2,64,0,47
2,62,52,385
2,62,0,383
2,68,52,49
2,68,0,47
2,69,52,1
2,69,0,47
2,68,52,1
2,68,0,47
2,69,52,1
2,69,0,95
2,69,54,97
2,69,0,383
2,64,54,1
2,64,0,383
2,61,54,1
2,61,0,383
2,69,74,385
2,69,0,383
2,69,74,97
2,69,0,287
2,78,74,1
2,81,74,0
2,78,0,287
2,76,74,1
2,79,74,0
2,76,0,95
2,79,0,0
2,81,0,0
2,74,74,97
2,74,0,287
2,74,102,1
2,78,102,0
2,81,102,0
2,86,102,0
2,74,0,383
2,78,0,0
2,81,0,0
2,86,0,0
2,76,102,1
2,85,102,0
2,76,0,287
2,85,0,0
2,79,102,1
2,79,0,95
2,86,102,121
2,86,0,23
2,85,102,1
2,85,0,23
2,83,102,1
2,83,0,47
2,86,102,73
2,86,0,47
2,83,102,1
2,83,0,47
2,86,102,121
2,86,0,23
2,85,102,1
2,85,0,23
2,83,102,1
2,83,0,47
2,86,102,73
2,86,0,47
2,83,102,1
2,83,0,47
2,74,64,769
2,74,0,383
2,81,64,961
2,81,0,383
2,79,64,1
2,79,0,383
2,78,64,1
2,79,64,192
2,78,0,191
2,76,64,1
2,79,0,191
2,76,0,192
2,74,64,1
2,74,0,191
2,83,64,9697
2,83,0,479
2,81,64,289
2,81,0,479
2,74,64,6241
2,74,0,671
2,74,64,97
2,74,0,671
2,74,64,97
2,74,0,479
2,82,64,1
2,79,64,576
2,72,64,192
2,79,0,95
2,76,64,1
2,72,0,95
2,76,0,0
2,82,0,0
2,77,64,1
2,77,0,47
2,69,64,49
2,69,0,47
2,74,64,49
2,74,0,47
2,70,64,49
2,70,0,47
2,75,64,49
2,75,0,47
2,67,64,49
2,67,0,47
2,73,64,49
2,76,64,96
2,73,0,95
2,76,0,0
2,74,64,1
2,74,0,47
2,70,64,49
2,70,0,47
2,77,64,49
2,76,64,16
2,77,0,7
2,77,64,9
2,76,0,7
2,76,64,9
2,77,0,7
2,77,64,9
2,76,0,7
2,76,64,9
2,77,0,7
2,77,64,9
2,76,0,7
2,76,64,9
2,77,0,7
2,77,64,9
2,76,0,7
2,76,64,9
2,77,0,7
2,77,64,9
2,76,0,7
2,76,64,9
2,77,0,7
2,77,64,9
2,76,0,7
2,77,0,4
2,76,64,1
2,76,0,11
2,77,64,1
2,77,0,11
2,76,64,1
2,76,0,11
2,77,64,1
2,77,0,11
2,76,64,1
2,76,0,11
2,77,64,1
2,77,0,11
2,76,64,1
2,76,0,11
2,77,64,1
2,77,0,11
2,76,64,1
2,76,0,11
2,77,64,1
2,77,0,11
2,76,64,1
2,76,0,11
2,74,64,1
2,74,0,23
2,76,64,1
2,76,0,23
2,74,64,1
2,74,0,95
2,74,64,289
2,78,64,288
2,74,0,95
2,78,0,0
2,76,64,1
2,73,64,96
2,73,0,95
2,71,64,1
2,71,0,95
2,69,64,1
2,69,0,95
2,76,0,0
2,81,64,1
2,81,0,95
2,81,64,1
2,81,0,95
2,81,64,1
2,81,0,95
2,81,64,1
2,81,0,95
2,83,64,145
2,81,64,16
2,83,0,7
2,79,64,9
2,81,0,7
2,79,0,16
2,83,64,3017
2,81,64,16
2,83,0,7
2,79,64,9
2,81,0,7
2,79,0,16
3,61,54,48
3,61,0,47
3,62,54,1
3,62,0,47
3,61,54,1
3,61,0,47
3,62,54,1
3,62,0,95
3,61,54,145
3,61,0,47
3,62,54,1
3,62,0,47
3,64,54,1
3,64,0,47
3,66,54,1
3,66,0,47
3,64,54,1
3,64,0,47
3,66,54,1
3,66,0,47
3,67,54,1
3,67,0,47
3,68,54,49
3,68,0,47
3,69,54,1
3,69,0,47
3,68,54,1
3,68,0,47
3,69,54,1
3,69,0,95
3,68,54,145
3,68,0,47
3,69,54,1
3,69,0,47
3,70,54,1
3,70,0,47
3,71,54,1
3,71,0,47
3,69,54,1
3,69,0,47
3,67,54,1
3,67,0,47
3,66,54,1
3,66,0,47
3,63,54,49
3,63,0,47
3,64,54,1
3,64,0,47
3,66,54,1
3,66,0,47
3,67,54,1
3,67,0,47
3,66,54,1
3,66,0,47
3,64,54,1
3,64,0,47
3,62,54,1
3,62,0,47
3,62,54,49
3,62,0,47
3,64,54,1
3,64,0,47
3,62,54,1
3,62,0,47
3,61,54,1
3,61,0,47
3,57,54,1
3,57,0,47
3,59,54,1
3,59,0,47
3,61,54,1
3,61,0,47
3,62,54,1
3,62,0,95
3,74,74,289
3,78,74,0
3,74,0,287
3,73,74,1
3,76,74,0
3,73,0,95
3,76,0,0
3,78,0,0
3,66,74,1
3,74,74,0
3,66,0,95
3,74,0,0
3,66,74,1
3,66,0,95
3,69,74,1
3,74,74,0
3,69,0,95
3,74,0,0
3,74,74,1
3,78,74,0
3,74,0,95
3,78,0,0
3,74,74,385
3,78,74,0
3,74,0,95
3,78,0,0
3,69,74,1
3,69,0,95
3,74,74,1
3,78,74,0
3,74,0,95
3,78,0,0
3,78,74,1
3,81,74,0
3,78,0,95
3,81,0,0
3,86,102,673
3,86,0,47
3,83,102,1
3,83,0,47
3,78,102,1
3,81,102,0
3,78,0,95
3,81,0,0
3,78,102,1
3,86,102,0
3,78,0,95
3,86,0,0
3,76,102,1
3,85,102,0
3,76,0,95
3,85,0,0
3,79,102,1
3,79,0,95
3,78,102,1
3,81,102,0
3,78,0,95
3,81,0,0
3,78,102,1
3,86,102,0
3,78,0,95
3,86,0,0
3,76,102,1
3,85,102,0
3,76,0,95
3,85,0,0
3,79,102,1
3,79,0,95
3,78,102,1
3,81,102,0
3,78,0,95
3,81,0,0
3,78,102,1
3,81,102,0
3,78,0,47
3,81,0,0
3,78,102,1
3,81,102,0
3,78,0,47
3,81,0,0
3,71,102,1
3,76,102,0
3,79,102,0
3,71,0,95
3,76,0,0
3,79,0,0
3,71,102,1
3,76,102,0
3,79,102,0
3,71,0,47
3,76,0,0
3,79,0,0
3,71,102,1
3,76,102,0
3,79,102,0
3,71,0,47
3,76,0,0
3,79,0,0
3,69,102,1
3,74,102,0
3,78,102,0
3,69,0,95
3,74,0,0
3,78,0,0
3,69,102,1
3,74,102,0
3,78,102,0
3,69,0,47
3,74,0,0
3,78,0,0
3,69,102,1
3,74,102,0
3,78,102,0
3,69,0,47
3,74,0,0
3,78,0,0
3,67,102,1
3,73,102,0
3,76,102,0
3,67,0,95
3,73,0,0
3,76,0,0
3,67,102,1
3,73,102,0
3,76,102,0
3,67,0,47
3,73,0,0
3,76,0,0
3,67,102,1
3,73,102,0
3,76,102,0
3,67,0,47
3,73,0,0
3,76,0,0
3,66,74,1
3,66,0,95
3,76,74,673
3,76,0,335
3,78,74,1
3,78,0,47
3,79,74,1
3,79,0,191
3,78,74,1
3,78,0,191
3,79,74,1
3,78,74,144
3,78,0,47
3,79,0,0
3,76,74,1
3,85,74,0
3,76,0,143
3,78,74,1
3,86,74,0
3,78,0,47
3,85,0,0
3,86,0,0
3,74,74,385
3,78,74,0
3,74,0,95
3,78,0,0
3,74,74,289
3,78,74,0
3,74,0,287
3,73,74,1
3,76,74,0
3,73,0,95
3,76,0,0
3,78,0,0
3,66,74,1
3,74,74,0
3,66,0,95
3,74,0,0
3,66,74,1
3,66,0,95
3,69,74,1
3,74,74,0
3,69,0,95
3,74,0,0
3,74,74,1
3,78,74,0
3,74,0,95
3,78,0,0
3,74,74,385
3,78,74,0
3,74,0,95
3,78,0,0
3,69,74,1
3,69,0,95
3,74,74,1
3,78,74,0
3,74,0,95
3,78,0,0
3,78,74,1
3,81,74,0
3,78,0,95
3,81,0,0
3,86,102,673
3,86,0,47
3,83,102,1
3,83,0,47
3,78,102,1
3,81,102,0
3,78,0,95
3,81,0,0
3,78,102,1
3,86,102,0
3,78,0,95
3,86,0,0
3,76,102,1
3,85,102,0
3,76,0,95
3,85,0,0
3,79,102,1
3,79,0,95
3,78,102,1
3,81,102,0
3,78,0,95
3,81,0,0
3,78,102,1
3,86,102,0
3,78,0,95
3,86,0,0
3,76,102,1
3,85,102,0
3,76,0,95
3,85,0,0
3,79,102,1
3,79,0,95
3,78,102,1
3,81,102,0
3,78,0,95
3,81,0,0
3,78,102,1
3,81,102,0
3,78,0,47
3,81,0,0
3,78,102,1
3,81,102,0
3,78,0,47
3,81,0,0
3,71,102,1
3,76,102,0
3,79,102,0
3,71,0,95
3,76,0,0
3,79,0,0
3,71,102,1
3,76,102,0
3,79,102,0
3,71,0,47
3,76,0,0
3,79,0,0
3,71,102,1
3,76,102,0
3,79,102,0
3,71,0,47
3,76,0,0
3,79,0,0
3,69,102,1
3,74,102,0
3,78,102,0
3,69,0,95
3,74,0,0
3,78,0,0
3,69,102,1
3,74,102,0
3,78,102,0
3,69,0,47
3,74,0,0
3,78,0,0
3,69,102,1
3,74,102,0
3,78,102,0
3,69,0,47
3,74,0,0
3,78,0,0
3,67,102,1
3,73,102,0
3,76,102,0
3,67,0,95
3,73,0,0
3,76,0,0
3,67,102,1
3,73,102,0
3,76,102,0
3,67,0,47
3,73,0,0
3,76,0,0
3,67,102,1
3,73,102,0
3,76,102,0
3,67,0,47
3,73,0,0
3,76,0,0
3,66,94,1
3,74,94,0
3,66,0,287
3,74,0,0
3,78,74,1
3,78,0,47
3,76,74,1
3,76,0,47
3,74,74,1
3,74,0,47
3,73,74,1
3,73,0,47
3,71,74,1
3,71,0,47
3,69,74,1
3,69,0,47
3,67,74,1
3,67,0,47
3,66,74,1
3,66,0,47
3,64,74,1
3,64,0,47
3,62,74,1
3,62,0,47
3,67,94,1
3,73,94,0
3,76,94,0
3,67,0,287
3,73,0,0
3,76,0,0
3,79,74,1
3,79,0,47
3,78,74,1
3,78,0,47
3,76,74,1
3,76,0,47
3,74,74,1
3,74,0,47
3,73,74,1
3,73,0,47
3,71,74,1
3,71,0,47
3,69,74,1
3,69,0,47
3,67,74,1
3,67,0,47
3,66,74,1
3,66,0,47
3,64,74,1
3,64,0,47
3,69,94,1
3,74,94,0
3,78,94,0
3,69,0,287
3,74,0,0
3,78,0,0
3,81,74,1
3,81,0,47
3,79,74,1
3,79,0,47
3,78,74,1
3,78,0,47
3,76,74,1
3,76,0,47
3,74,74,1
3,74,0,47
3,73,74,1
3,73,0,47
3,71,74,1
3,71,0,47
3,69,74,1
3,69,0,47
3,67,74,1
3,67,0,47
3,66,74,1
3,66,0,47
3,71,94,1
3,71,0,47
3,72,94,1
3,72,0,47
3,74,94,1
3,74,0,47
3,76,94,1
3,76,0,47
3,78,94,1
3,78,0,47
3,79,94,1
3,79,0,47
3,81,94,1
3,81,0,47
3,83,94,1
3,83,0,47
3,74,94,1
3,78,94,0
3,81,94,0
3,84,94,0
3,74,0,383
3,78,0,0
3,81,0,0
3,84,0,0
3,76,94,6529
3,76,0,383
3,75,104,1
3,76,74,288
3,75,0,95
3,76,0,0
3,75,94,1
3,76,64,288
3,75,0,95
3,76,0,0
3,78,64,1
3,80,64,12
3,80,0,11
3,81,64,1
3,78,0,71
3,81,0,0
3,81,64,1
3,81,0,47
3,81,64,1
3,81,0,47
3,81,64,1
3,81,0,95
3,78,64,97
3,80,64,12
3,80,0,11
3,81,64,1
3,78,0,71
3,81,0,0
3,81,64,1
3,81,0,47
3,81,64,1
3,81,0,47
3,81,64,1
3,81,0,95
3,74,64,97
3,74,0,47
3,76,64,1
3,76,0,47
3,78,64,1
3,78,0,47
3,76,64,1
3,76,0,47
