track,note,velocity,time
1,40,87,2395
1,40,0,376
1,40,79,46
1,40,0,14
1,40,90,49
1,40,0,427
1,38,70,51
1,38,0,370
1,38,73,57
1,38,0,12
1,38,85,53
1,38,0,360
1,45,85,102
1,45,0,383
1,45,71,45
1,45,0,15
1,45,76,44
1,45,0,432
1,40,74,45
1,40,0,344
1,40,55,77
1,40,0,16
1,40,80,46
1,40,0,425
1,40,82,52
1,40,0,375
1,40,67,45
1,40,0,15
1,40,85,43
1,40,0,409
1,38,78,71
1,38,0,368
1,38,75,50
1,38,0,15
1,38,83,45
1,38,0,370
1,45,84,106
1,45,0,385
1,45,66,36
1,45,0,15
1,45,94,46
1,45,0,395
1,40,78,87
1,40,0,378
1,40,64,50
1,40,0,12
1,40,86,47
1,40,0,409
1,38,70,75
1,38,0,135
1,38,60,41
1,38,0,14
1,38,72,43
1,38,0,145
1,38,64,37
1,38,0,56
1,40,68,1
1,40,0,147
1,40,64,39
1,40,0,17
1,40,83,39
1,40,0,149
1,40,77,34
1,40,0,56
1,38,61,0
1,38,0,129
1,38,67,48
1,38,0,19
1,38,73,42
1,38,0,146
1,38,69,33
1,38,0,57
1,40,87,6
1,40,0,138
1,40,72,44
1,40,0,18
1,40,83,40
1,40,0,204
1,38,72,34
1,38,0,143
1,38,70,42
1,38,0,17
1,38,73,40
1,38,0,196
1,45,78,43
1,45,0,153
1,45,70,33
1,45,0,18
1,45,83,39
1,45,0,155
1,45,73,21
1,45,0,57
1,36,97,3
1,36,0,139
1,36,67,44
1,36,0,55
1,38,78,3
1,38,0,147
1,38,63,36
1,38,0,58
1,40,86,0
1,40,0,142
1,40,59,46
1,40,0,15
1,40,77,40
1,40,0,185
1,47,60,1
1,40,78,54
1,47,0,5
1,40,0,127
1,40,64,49
1,40,0,15
1,40,64,48
1,40,0,182
1,40,69,58
1,40,0,136
1,40,66,41
1,40,0,17
1,40,64,42
1,40,0,174
1,47,58,1
1,40,69,59
1,47,0,3
1,40,0,201
1,40,78,39
1,40,0,176
1,47,59,0
1,52,83,69
1,47,0,5
1,52,0,142
1,52,59,32
1,52,0,15
1,52,82,38
1,47,72,181
1,52,0,5
1,52,70,59
1,47,0,3
1,52,0,188
1,52,70,49
1,52,0,148
1,52,68,27
1,52,0,18
1,50,72,44
1,45,57,181
1,50,0,6
1,50,63,50
1,45,0,4
1,50,0,195
1,50,69,47
1,45,69,172
1,50,0,6
1,50,58,59
1,45,0,3
1,50,0,146
1,50,59,28
1,45,83,60
1,50,0,2
1,40,53,184
1,45,0,1
1,45,83,58
1,40,0,2
1,45,0,142
1,45,78,35
1,45,0,20
1,45,94,37
1,40,72,181
1,45,0,5
1,45,77,59
1,40,0,2
1,45,0,144
1,45,70,35
1,40,79,57
1,45,0,5
1,40,0,133
1,40,72,40
1,40,0,22
1,40,73,38
1,47,68,187
1,40,0,2
1,40,79,55
1,47,0,7
1,40,0,160
1,40,78,13
1,40,0,22
1,40,74,41
1,40,0,179
1,47,60,0
1,52,83,62
1,47,0,1
1,52,0,148
1,52,67,28
1,52,0,18
1,52,82,40
1,47,64,177
1,52,0,8
1,52,78,57
1,47,0,1
1,52,0,137
1,52,61,37
1,52,0,17
1,52,73,38
1,52,0,152
1,52,73,34
1,50,75,57
1,52,0,2
1,50,0,153
1,50,67,31
1,50,0,17
1,50,76,41
1,45,72,179
1,50,0,5
1,50,70,56
1,45,0,5
1,50,0,136
1,50,58,36
1,50,0,16
1,50,77,43
1,50,0,155
1,50,60,24
1,45,82,58
1,50,0,7
1,45,0,120
1,45,70,58
1,45,0,20
1,45,71,42
1,40,61,177
1,45,0,6
1,45,72,59
1,40,0,2
1,45,0,130
1,45,65,45
1,45,0,18
1,45,90,43
1,45,0,154
1,45,55,26
1,40,72,59
1,45,0,3
1,40,0,147
1,40,67,29
1,40,0,22
1,40,69,39
1,40,0,183
1,47,64,1
1,40,75,58
1,47,0,5
1,40,0,137
1,40,80,42
1,40,0,18
1,40,79,40
1,40,0,158
1,40,79,23
1,40,0,22
1,38,79,35
1,38,0,137
1,38,70,45
1,38,0,17
1,38,83,41
1,38,0,144
1,38,79,39
1,40,103,56
1,38,0,2
1,40,0,136
1,40,86,42
1,40,0,17
1,40,100,42
1,40,0,96
1,40,79,26
1,38,70,117
1,40,0,6
1,38,0,126
1,38,78,51
1,38,0,15
1,38,86,44
1,38,0,103
1,38,75,19
1,38,0,96
1,40,90,22
1,40,0,142
1,40,82,39
1,40,0,16
1,40,95,44
1,40,0,105
1,40,90,19
1,40,0,117
1,38,82,0
1,38,0,142
1,38,74,42
1,38,0,21
1,38,84,33
1,38,0,95
1,38,78,25
1,45,89,121
1,38,0,1
1,45,0,141
1,45,86,46
1,45,0,17
1,45,96,34
1,45,0,140
1,45,75,35
1,45,0,62
1,36,99,2
1,36,0,141
1,36,69,39
1,36,0,48
1,38,78,13
1,38,0,141
1,38,70,39
1,38,0,20
1,40,100,39
1,40,0,134
1,40,73,52
1,40,0,18
1,40,83,36
1,40,0,180
1,47,53,4
1,40,70,59
1,47,0,4
1,40,0,137
1,40,76,42
1,40,0,16
1,40,90,38
1,40,0,198
1,40,79,48
1,40,0,134
1,40,73,44
1,40,0,17
1,40,79,38
1,40,0,178
1,47,66,2
1,52,59,62
1,47,0,8
1,52,0,147
1,52,68,28
1,52,0,21
1,52,52,38
1,47,75,116
1,52,0,3
1,40,71,120
1,47,0,3
1,40,0,136
1,40,62,39
1,40,0,20
1,40,85,41
1,40,0,198
1,40,83,41
1,40,0,157
1,40,63,26
1,40,0,18
1,40,77,43
1,40,0,140
1,40,78,39
1,40,0,59
1,38,73,2
1,38,0,139
1,38,63,40
1,38,0,27
1,38,80,32
1,38,0,138
1,38,78,42
1,38,0,17
1,38,90,43
1,38,0,140
1,38,70,38
1,38,0,17
1,38,83,43
1,38,0,143
1,38,70,35
1,45,87,61
1,38,0,2
1,45,0,136
1,45,70,41
1,45,0,19
1,45,86,42
1,40,71,180
1,45,0,6
1,45,78,59
1,40,0,6
1,45,0,131
1,45,64,41
1,45,0,20
1,45,87,40
1,45,0,86
1,45,87,31
1,40,77,119
1,45,0,8
1,40,0,139
1,40,80,38
1,40,0,22
1,40,79,35
1,47,67,184
1,40,0,1
1,52,75,61
1,47,0,4
1,52,0,196
1,52,70,31
1,47,67,128
1,52,0,6
1,40,84,111
1,47,0,6
1,38,86,949
1,40,0,6
1,45,92,952
1,38,0,2
1,40,80,964
1,45,0,6
1,47,70,413
1,40,0,6
1,40,76,51
1,47,0,7
1,40,0,394
1,40,64,26
1,38,74,58
1,40,0,5
1,38,0,137
1,38,78,37
1,38,0,23
1,38,87,37
1,38,0,99
1,38,91,21
1,40,91,117
1,38,0,1
1,40,0,156
1,40,72,29
1,40,0,19
1,40,97,38
1,40,0,96
1,40,83,24
1,40,0,112
1,38,79,9
1,38,0,138
1,38,72,53
1,38,0,14
1,38,71,15
1,38,0,11
1,38,83,14
1,38,0,82
1,38,87,31
1,40,95,120
1,38,0,7
1,40,0,182
1,40,81,29
1,40,0,14
1,40,78,12
1,40,0,94
1,40,86,21
1,38,70,121
1,40,0,6
1,38,0,127
1,38,76,91
1,38,0,15
1,38,73,10
1,38,0,85
1,38,75,23
1,38,0,119
1,45,57,8
1,40,72,215
1,45,0,3
1,45,76,21
1,40,0,6
1,45,0,16
1,45,90,34
1,45,0,99
1,45,78,20
1,45,0,62
1,36,91,1
1,36,0,137
1,36,79,41
1,36,0,25
1,37,83,8
1,37,0,13
1,38,84,20
1,38,0,143
1,38,68,35
1,38,0,53
1,40,89,3
1,40,0,146
1,40,86,37
1,40,0,17
1,40,100,41
1,40,0,86
1,40,103,33
1,40,0,116
1,38,83,4
1,38,0,137
1,38,95,42
1,38,0,17
1,38,105,44
1,38,0,99
1,38,80,19
1,38,0,119
1,40,86,2
1,40,0,186
1,40,80,52
1,40,0,156
1,40,77,22
1,40,0,53
1,38,74,5
1,38,0,156
1,38,73,30
1,38,0,24
1,38,99,36
1,38,0,82
1,38,96,36
1,38,0,114
1,40,89,4
1,40,0,166
1,40,71,24
1,40,0,31
1,40,82,27
1,40,0,91
1,40,87,25
1,38,79,114
1,40,0,6
1,38,0,131
1,38,86,53
1,38,0,16
1,38,90,42
1,38,0,98
1,38,95,20
1,38,0,118
1,45,106,5
1,45,0,144
1,45,92,39
1,45,0,17
1,45,103,39
1,45,0,160
1,45,75,17
1,36,103,63
1,45,0,2
1,36,0,137
1,36,96,43
1,36,0,13
1,36,90,16
1,36,0,12
1,36,97,15
1,36,0,73
1,36,102,19
1,36,0,16
1,36,99,15
1,36,0,42
1,36,96,17
1,36,0,18
1,37,112,15
1,37,0,11
1,38,91,17
1,38,0,78
1,38,81,15
1,38,0,14
1,38,95,19
1,38,0,54
1,38,80,24
1,38,0,15
1,38,87,16
1,38,0,82
1,38,74,13
1,38,0,15
1,38,89,16
1,40,96,118
1,38,0,3
1,40,0,823
1,40,84,90
1,47,50,618
1,40,0,7
1,52,51,128
1,47,0,37
1,47,79,42
1,52,0,11
1,40,80,102
1,47,0,4
1,40,0,572
2,40,81,467
2,64,49,4
2,67,58,1
2,52,26,60
2,67,0,42
2,64,0,6
2,67,70,9
2,52,0,29
2,64,19,18
2,52,55,7
2,40,0,20
2,52,0,37
2,47,52,2
2,47,0,66
2,40,45,3
2,67,0,43
2,59,49,13
2,64,0,5
2,64,52,42
2,59,0,59
2,64,0,6
2,64,49,6
2,52,44,0
2,59,48,2
2,67,55,2
2,40,0,17
2,47,57,36
2,67,0,44
2,59,0,8
2,64,0,8
2,67,41,2
2,67,0,54
2,64,47,1
2,52,0,37
2,47,0,6
2,64,0,12
2,59,30,4
2,59,0,11
2,40,50,54
2,71,61,6
2,71,0,53
2,76,50,10
2,76,0,19
2,40,0,72
2,59,27,20
2,64,61,1
2,40,58,12
2,67,58,3
2,52,58,49
2,40,0,59
2,47,60,5
2,52,0,8
2,40,53,48
2,47,0,7
2,40,0,29
2,40,58,37
2,59,0,23
2,67,0,4
2,64,0,6
2,52,56,24
2,71,30,65
2,64,36,0
2,67,39,1
2,67,0,8
2,64,0,1
2,71,0,2
2,47,37,40
2,52,0,14
2,40,0,8
2,67,50,18
2,52,62,1
2,71,65,3
2,76,58,12
2,52,0,8
2,47,0,6
2,67,0,0
2,40,45,5
2,71,0,10
2,76,0,26
2,47,60,6
2,52,38,60
2,47,0,11
2,40,0,30
2,47,54,23
2,52,0,37
2,40,64,20
2,47,0,7
2,47,39,58
2,52,37,64
2,47,0,12
2,40,0,17
2,52,0,9
2,52,46,24
2,52,0,31
2,64,71,21
2,67,70,2
2,59,57,0
2,59,0,437
2,67,0,0
2,64,0,5
2,64,76,28
2,59,63,1
2,67,71,1
2,64,0,383
2,67,0,1
2,59,0,2
2,66,70,86
2,62,71,1
2,57,58,0
2,66,0,321
2,62,0,3
2,57,0,4
2,66,78,31
2,57,70,0
2,62,80,0
2,62,0,344
2,66,0,2
2,57,0,10
2,61,78,59
2,64,78,1
2,57,67,0
2,57,0,355
2,61,0,6
2,64,0,1
2,57,37,35
2,61,83,5
2,64,75,11
2,57,0,51
2,61,0,5
2,64,0,6
2,69,51,140
2,73,39,7
2,76,46,10
2,69,0,7
2,73,0,6
2,76,0,6
2,59,62,223
2,64,69,0
2,67,57,1
2,64,0,210
2,67,0,2
2,59,0,3
2,57,64,145
2,62,74,0
2,66,75,0
2,62,0,12
2,57,0,1
2,66,0,1
2,64,99,4
2,59,73,0
2,67,81,3
2,59,0,264
2,64,0,6
2,67,0,3
2,67,72,104
2,64,70,1
2,71,65,1
2,71,0,156
2,64,0,0
2,67,0,4
2,67,53,30
2,64,60,1
2,71,57,0
2,64,0,153
2,71,0,1
2,67,0,3
2,67,49,25
2,71,54,1
2,64,54,1
2,64,0,11
2,71,0,1
2,67,0,0
2,67,77,46
2,64,69,2
2,71,78,0
2,71,0,190
2,64,0,0
2,67,0,4
2,67,57,38
2,64,65,2
2,71,65,0
2,71,0,154
2,64,0,2
2,67,0,1
2,67,67,25
2,64,64,1
2,71,69,0
2,71,0,13
2,64,0,1
2,67,0,0
2,66,96,47
2,62,71,1
2,69,76,1
2,62,0,150
2,69,0,4
2,66,0,0
2,66,76,28
2,69,66,1
2,62,55,0
2,69,0,209
2,66,0,1
2,62,0,1
2,66,91,32
2,62,66,0
2,69,75,0
2,62,0,164
2,69,0,1
2,66,0,0
2,66,75,33
2,62,58,1
2,69,64,0
2,69,0,151
2,62,0,7
2,66,0,0
2,66,72,27
2,62,62,0
2,69,69,1
2,69,0,14
2,66,0,0
2,62,0,1
2,69,70,40
2,61,71,1
2,64,99,1
2,64,0,133
2,69,0,1
2,61,0,3
2,69,86,43
2,61,73,1
2,64,77,0
2,64,0,144
2,61,0,5
2,69,0,2
2,61,71,48
2,69,87,0
2,64,79,1
2,64,0,164
2,69,0,2
2,61,0,4
2,69,70,34
2,61,56,0
2,64,79,1
2,69,0,93
2,64,0,3
2,61,0,6
2,64,73,109
2,67,67,1
2,59,67,1
2,59,0,112
2,67,0,0
2,64,0,0
2,64,59,28
2,59,48,0
2,67,45,1
2,67,0,14
2,64,0,1
2,59,0,2
2,59,53,39
2,67,57,0
2,64,59,1
2,59,0,58
2,64,0,5
2,67,0,3
2,64,35,46
2,67,66,2
2,71,67,4
2,64,0,9
2,67,0,1
2,71,0,6
2,67,43,88
2,71,58,3
2,76,73,6
2,67,0,16
2,71,0,2
2,76,0,7
2,59,50,164
2,64,46,1
2,67,31,4
2,67,0,8
2,64,0,0
2,59,0,2
2,64,72,43
2,59,52,1
2,67,58,1
2,67,0,142
2,64,0,2
2,59,0,7
2,62,66,65
2,66,74,0
2,69,64,1
2,66,0,44
2,69,0,1
2,62,0,0
2,66,75,24
2,62,56,1
2,69,59,1
2,66,0,11
2,62,0,1
2,69,0,1
2,69,70,44
2,66,72,0
2,62,58,1
2,69,0,78
2,62,0,1
2,66,0,1
2,66,82,37
2,62,62,1
2,69,72,1
2,69,0,56
2,66,0,1
2,62,0,4
2,64,72,58
2,67,72,0
2,71,73,2
2,71,0,105
2,64,0,1
2,67,0,2
2,67,73,23
2,64,70,1
2,71,73,0
2,67,0,11
2,71,0,1
2,64,0,0
2,67,82,47
2,64,73,0
2,71,75,1
2,71,0,73
2,64,0,0
2,67,0,2
2,67,78,44
2,64,73,1
2,71,82,0
2,64,0,29
2,67,0,0
2,71,0,1
2,74,65,91
2,66,59,0
2,69,79,0
2,69,0,52
2,74,0,6
2,66,0,5
2,66,54,64
2,74,55,1
2,69,71,1
2,66,0,16
2,69,0,1
2,74,0,2
2,66,63,36
2,69,67,0
2,74,60,1
2,69,0,44
2,74,0,10
2,66,0,20
2,74,70,44
2,66,54,2
2,69,58,0
2,74,0,20
2,69,0,2
2,66,0,4
2,67,65,97
2,71,72,0
2,76,69,0
2,76,0,108
2,71,0,1
2,67,0,0
2,71,57,32
2,67,49,1
2,76,55,1
2,76,0,11
2,67,0,2
2,71,0,0
2,71,84,48
2,67,69,1
2,76,70,1
2,76,0,16
2,67,0,0
2,71,0,2
2,67,70,102
2,71,79,0
2,76,67,2
2,76,0,10
2,71,0,3
2,67,0,6
2,66,78,100
2,62,64,0
2,69,70,2
2,69,0,23
2,62,0,0
2,66,0,1
2,66,59,32
2,62,53,1
2,69,60,0
2,62,0,14
2,69,0,1
2,66,0,0
2,66,86,8
2,62,63,1
2,69,73,0
2,69,0,4
2,62,0,2
2,66,0,2
2,66,87,28
2,69,77,0
2,62,74,0
2,69,0,16
2,66,0,3
2,62,0,1
2,61,75,97
2,64,86,0
2,69,99,0
2,69,0,74
2,64,0,2
2,61,0,3
2,61,58,27
2,64,75,1
2,69,60,0
2,61,0,19
2,69,0,1
2,64,0,1
2,64,82,42
2,61,64,1
2,69,72,0
2,61,0,77
2,64,0,0
2,69,0,2
2,69,96,37
2,61,74,0
2,64,87,0
2,69,0,17
2,64,0,7
2,61,0,2
