track,note,velocity,time
2,62,95,24
2,62,0,16
2,67,95,8
2,67,0,16
2,67,95,8
2,67,0,16
2,67,95,8
2,67,0,16
2,69,95,8
2,69,0,8
2,71,95,4
2,71,0,44
2,66,95,232
2,66,0,16
2,71,95,8
2,71,0,16
2,71,95,8
2,71,0,16
2,71,95,8
2,71,0,16
2,73,95,8
2,73,0,8
2,74,95,4
2,74,0,16
2,73,95,8
2,73,0,8
2,71,95,4
2,71,0,16
2,76,79,176
2,76,0,32
2,76,79,4
2,76,0,4
2,76,79,8
2,76,0,16
2,74,79,8
2,74,0,16
2,74,79,8
2,74,0,16
2,74,79,8
2,74,0,8
2,74,79,4
2,74,0,8
2,74,79,4
2,74,0,16
2,74,79,8
2,74,0,8
2,74,79,4
2,74,0,8
2,74,79,4
2,74,0,16
2,71,79,8
2,71,0,32
2,72,79,136
2,72,0,16
2,72,79,8
2,72,0,8
2,72,79,4
2,72,0,8
2,71,79,4
2,71,0,32
2,71,79,16
2,71,0,16
2,71,79,8
2,71,0,16
2,69,79,8
2,69,0,8
2,67,79,4
2,67,0,16
2,67,79,8
2,67,0,8
2,67,79,4
2,67,0,16
2,67,79,32
2,67,0,8
2,64,79,4
2,64,0,8
2,64,79,4
2,64,0,16
2,62,79,8
2,62,0,16
2,62,79,8
2,62,0,32
2,62,79,88
2,62,0,16
2,67,79,8
2,67,0,16
2,67,79,8
2,67,0,16
2,67,79,8
2,67,0,8
2,69,79,4
2,69,0,8
2,71,79,4
2,71,0,48
2,66,79,240
2,66,0,8
2,71,79,4
2,71,0,16
2,71,79,8
2,71,0,8
2,71,79,4
2,71,0,8
2,73,79,4
2,73,0,8
2,74,79,4
2,74,0,8
2,73,79,4
2,73,0,8
2,71,79,4
2,71,0,16
2,71,79,128
2,71,0,16
2,74,79,8
2,74,0,32
2,76,79,40
2,76,0,32
2,76,79,16
2,76,0,8
2,76,79,4
2,76,0,8
2,76,79,4
2,76,0,16
2,74,79,8
2,74,0,16
2,74,79,8
2,74,0,16
2,74,79,8
2,74,0,8
2,74,79,4
2,74,0,8
2,71,79,4
2,71,0,8
2,69,79,4
2,69,0,8
2,67,79,4
2,67,0,16
2,71,79,80
2,71,0,16
2,71,79,8
2,71,0,16
2,71,79,8
2,71,0,16
2,72,79,8
2,72,0,8
2,72,79,4
2,72,0,16
2,72,79,8
2,72,0,16
2,72,79,8
2,72,0,8
2,72,79,4
2,72,0,32
2,71,79,16
2,71,0,16
2,71,79,8
2,71,0,8
2,69,79,4
2,69,0,8
2,69,79,4
2,69,0,8
2,69,79,4
2,69,0,8
2,71,79,4
2,71,0,16
2,69,79,8
2,69,0,48
2,71,79,240
2,71,0,16
2,74,79,8
2,74,0,16
2,74,79,8
2,74,0,16
2,76,79,8
2,76,0,16
2,76,79,8
2,76,0,48
2,74,79,24
2,74,0,16
2,74,79,8
2,74,0,32
2,74,79,4
2,74,0,16
2,74,79,8
2,74,0,8
2,71,79,4
2,71,0,8
2,69,79,4
2,69,0,8
2,67,79,4
2,67,0,16
2,71,79,80
2,71,0,16
2,74,79,8
2,74,0,16
2,76,79,8
2,76,0,32
2,76,79,16
2,76,0,16
2,76,79,8
2,76,0,16
2,76,79,8
2,76,0,32
2,76,79,16
2,76,0,16
2,74,79,8
2,74,0,16
2,74,79,8
2,74,0,40
2,71,79,152
2,71,0,8
2,74,79,4
2,74,0,8
2,76,79,4
2,76,0,8
2,76,79,4
2,76,0,8
2,76,79,4
2,76,0,16
2,76,79,8
2,76,0,16
2,74,79,8
2,74,0,32
2,74,79,16
2,74,0,16
2,76,79,8
2,76,0,16
2,74,79,8
2,74,0,16
2,71,79,8
2,71,0,8
2,69,79,4
2,69,0,8
2,67,79,4
2,67,0,135
2,72,79,57
2,72,0,8
2,72,79,4
2,72,0,8
2,72,79,4
2,72,0,8
2,72,79,4
2,72,0,8
2,72,79,4
2,72,0,16
2,72,79,8
2,72,0,16
2,71,79,8
2,71,0,8
2,71,79,4
2,71,0,8
2,71,79,4
2,71,0,8
2,69,79,4
2,69,0,8
2,69,79,4
2,69,0,16
2,69,79,8
2,69,0,32
2,62,79,232
2,62,0,16
2,67,79,8
2,67,0,32
2,69,79,16
2,69,0,16
2,71,79,8
2,71,0,56
2,72,79,232
2,72,0,8
2,74,79,4
2,74,0,8
2,76,79,4
2,76,0,8
2,74,79,4
2,74,0,8
2,74,79,4
2,74,0,8
2,74,79,4
2,74,0,28
2,71,79,8
2,71,0,16
2,69,79,8
2,69,0,16
2,67,79,8
2,67,0,112
2,71,79,32
2,71,0,8
2,74,79,4
2,74,0,8
2,76,79,4
2,76,0,32
2,74,79,16
2,74,0,16
2,74,79,8
2,74,0,32
2,71,79,16
2,71,0,16
2,71,79,8
2,71,0,32
2,71,79,16
2,71,0,16
2,67,79,8
2,67,0,16
2,67,79,8
2,67,0,16
2,69,79,8
2,69,0,63
2,67,79,33
2,67,0,16
2,67,79,8
2,67,0,48
2,62,95,24
2,62,0,8
2,62,95,4
2,62,0,8
2,67,95,4
2,67,0,16
2,67,95,8
2,67,0,16
2,67,95,8
2,67,0,16
2,69,95,8
2,69,0,8
2,71,95,4
2,71,0,44
2,66,95,232
2,66,0,8
2,66,95,4
2,66,0,8
2,71,95,4
2,71,0,16
2,71,95,8
2,71,0,16
2,71,95,8
2,71,0,16
2,73,95,8
2,73,0,8
2,74,95,4
2,74,0,16
2,73,95,8
2,73,0,8
2,71,95,4
2,71,0,16
2,76,79,176
2,76,0,32
2,76,79,4
2,76,0,4
2,76,79,8
2,76,0,16
2,74,79,8
2,74,0,16
2,74,79,8
2,74,0,16
2,74,79,8
2,74,0,8
2,74,79,4
2,74,0,8
2,74,79,4
2,74,0,16
2,74,79,8
2,74,0,8
2,74,79,4
2,74,0,8
2,74,79,4
2,74,0,16
2,71,79,8
2,71,0,32
2,72,79,136
2,72,0,16
2,72,79,8
2,72,0,8
2,72,79,4
2,72,0,8
2,71,79,4
2,71,0,32
2,71,79,16
2,71,0,16
2,71,79,8
2,71,0,16
2,69,79,8
2,69,0,8
2,67,79,4
2,67,0,16
2,67,79,8
2,67,0,8
2,67,79,4
2,67,0,16
2,67,79,32
2,67,0,8
2,64,79,4
2,64,0,8
2,64,79,4
2,64,0,16
2,62,79,8
2,62,0,16
2,62,79,8
2,62,0,32
2,62,79,88
2,62,0,16
2,67,79,8
2,67,0,16
2,67,79,8
2,67,0,16
2,67,79,8
2,67,0,8
2,69,79,4
2,69,0,8
2,71,79,4
2,71,0,48
2,66,79,240
2,66,0,8
2,71,79,4
2,71,0,16
2,71,79,8
2,71,0,8
2,71,79,4
2,71,0,8
2,73,79,4
2,73,0,8
2,74,79,4
2,74,0,8
2,73,79,4
2,73,0,8
2,71,79,4
2,71,0,16
2,71,79,128
2,71,0,16
2,74,79,8
2,74,0,32
2,76,79,40
2,76,0,32
2,76,79,16
2,76,0,8
2,76,79,4
2,76,0,8
2,76,79,4
2,76,0,16
2,74,79,8
2,74,0,16
2,74,79,8
2,74,0,16
2,74,79,8
2,74,0,8
2,74,79,4
2,74,0,8
2,71,79,4
2,71,0,8
2,69,79,4
2,69,0,8
2,67,79,4
2,67,0,16
2,71,79,104
2,71,0,16
2,71,79,8
2,71,0,16
2,72,79,8
2,72,0,8
2,72,79,4
2,72,0,16
2,72,79,8
2,72,0,16
2,72,79,8
2,72,0,8
2,72,79,4
2,72,0,32
2,71,79,16
2,71,0,16
2,71,79,8
2,71,0,8
2,69,79,4
2,69,0,8
2,69,79,4
2,69,0,8
2,69,79,4
2,69,0,8
2,71,79,4
2,71,0,16
2,69,79,8
2,69,0,48
2,74,79,264
2,74,0,16
2,74,79,8
2,74,0,16
2,76,79,8
2,76,0,16
2,76,79,8
2,76,0,32
2,76,79,16
2,76,0,16
2,74,79,8
2,74,0,8
2,74,79,4
2,74,0,8
2,74,79,4
2,74,0,16
2,74,79,8
2,74,0,8
2,74,79,4
2,74,0,16
2,74,79,8
2,74,0,8
2,71,79,4
2,71,0,8
2,69,79,4
2,69,0,8
2,67,79,4
2,67,0,16
2,71,79,80
2,71,0,16
2,74,79,8
2,74,0,16
2,76,79,8
2,76,0,32
2,76,79,16
2,76,0,16
2,76,79,8
2,76,0,16
2,76,79,8
2,76,0,32
2,76,79,16
2,76,0,16
2,74,79,8
2,74,0,16
2,74,79,8
2,74,0,40
2,71,79,152
2,71,0,8
2,74,79,4
2,74,0,8
2,76,79,4
2,76,0,8
2,76,79,4
2,76,0,8
2,76,79,4
2,76,0,16
2,76,79,8
2,76,0,16
2,74,79,8
2,74,0,32
2,74,79,16
2,74,0,16
2,76,79,8
2,76,0,16
2,74,79,8
2,74,0,16
2,71,79,8
2,71,0,8
2,69,79,4
2,69,0,8
2,67,79,4
2,67,0,135
2,72,79,57
2,72,0,8
2,72,79,4
2,72,0,8
2,72,79,4
2,72,0,8
2,72,79,4
2,72,0,8
2,72,79,4
2,72,0,16
2,72,79,8
2,72,0,16
2,71,79,8
2,71,0,8
2,71,79,4
2,71,0,8
2,71,79,4
2,71,0,8
2,69,79,4
2,69,0,8
2,69,79,4
2,69,0,16
2,69,79,8
2,69,0,32
2,62,79,232
2,62,0,16
2,67,79,8
2,67,0,32
2,69,79,16
2,69,0,16
2,71,79,8
2,71,0,56
2,72,79,232
2,72,0,8
2,74,79,4
2,74,0,8
2,76,79,4
2,76,0,8
2,74,79,4
2,74,0,8
2,74,79,4
2,74,0,8
2,74,79,4
2,74,0,28
2,71,79,8
2,71,0,16
2,69,79,8
2,69,0,16
2,67,79,8
2,67,0,112
2,71,79,32
2,71,0,8
2,74,79,4
2,74,0,8
2,76,79,4
2,76,0,32
2,74,79,16
2,74,0,16
2,74,79,8
2,74,0,32
2,71,79,16
2,71,0,16
2,71,79,8
2,71,0,32
2,71,79,16
2,71,0,16
2,67,79,8
2,67,0,16
2,67,79,8
2,67,0,16
2,69,79,8
2,69,0,63
2,67,79,33
2,67,0,16
2,67,79,8
2,67,0,48
2,74,79,48
2,74,0,16
2,74,79,8
2,74,0,16
2,76,79,8
2,76,0,16
2,76,79,8
2,76,0,48
2,74,79,24
2,74,0,16
2,74,79,8
2,74,0,32
2,74,79,4
2,74,0,16
2,74,79,8
2,74,0,8
2,71,79,4
2,71,0,8
2,69,79,4
2,69,0,8
2,67,79,4
2,67,0,16
2,71,79,80
2,71,0,16
2,74,79,8
2,74,0,16
2,76,79,8
2,76,0,32
2,76,79,16
2,76,0,16
2,76,79,8
2,76,0,16
2,76,79,8
2,76,0,32
2,76,79,16
2,76,0,16
2,74,79,8
2,74,0,16
2,74,79,8
2,74,0,40
2,76,79,224
2,76,0,16
2,74,79,8
2,74,0,32
2,74,79,16
2,74,0,16
2,76,79,8
2,76,0,16
2,74,79,8
2,74,0,16
2,71,79,8
2,71,0,8
2,69,79,4
2,69,0,8
2,67,79,4
2,67,0,135
2,72,79,81
2,72,0,8
2,72,79,4
2,72,0,8
2,72,79,4
2,72,0,16
2,72,79,8
2,72,0,32
2,71,79,16
2,71,0,8
2,69,79,4
2,69,0,8
2,69,79,4
2,69,0,16
2,69,79,8
2,69,0,32
2,62,79,232
2,62,0,16
2,67,79,8
2,67,0,32
2,69,79,16
2,69,0,16
2,71,79,8
2,71,0,56
2,72,79,232
2,72,0,8
2,74,79,4
2,74,0,8
2,76,79,4
2,76,0,8
2,74,79,4
2,74,0,8
2,74,79,4
2,74,0,8
2,74,79,4
2,74,0,28
2,71,79,8
2,71,0,16
2,69,79,8
2,69,0,16
2,67,79,8
2,67,0,112
2,74,79,44
2,74,0,8
2,76,79,4
2,76,0,32
2,74,79,16
2,74,0,16
2,74,79,8
2,74,0,32
2,71,79,16
2,71,0,16
2,71,79,8
2,71,0,32
2,71,79,16
2,71,0,16
2,67,79,8
2,67,0,16
2,67,79,8
2,67,0,16
2,69,79,8
2,69,0,63
2,67,79,33
2,67,0,16
2,67,79,8
2,67,0,48
2,71,79,648
2,71,0,16
2,74,79,8
2,74,0,16
2,76,79,8
2,76,0,32
2,79,79,16
2,79,0,32
2,74,79,16
2,74,0,32
2,74,79,16
2,74,0,16
2,74,79,8
2,74,0,32
2,71,79,16
2,71,0,16
2,69,79,8
2,69,0,135
2,67,79,105
2,67,0,24
2,69,79,0
2,69,0,72
2,67,79,0
2,67,0,16
2,67,79,8
2,67,0,48
2,67,79,216
2,67,0,16
2,69,79,8
2,69,0,48
2,67,79,24
2,67,0,16
2,67,79,8
2,67,0,48
2,67,79,216
2,67,0,16
2,69,79,8
2,69,0,48
2,67,79,24
2,67,0,16
2,67,79,8
2,67,0,48
2,67,79,216
2,67,0,16
2,69,79,8
2,69,0,48
2,67,79,24
2,67,0,16
2,67,79,8
2,67,0,48
2,67,79,216
2,67,0,16
2,69,79,8
2,69,0,48
2,67,79,24
2,67,0,16
2,67,79,8
2,67,0,48
3,59,95,0
3,62,95,0
3,59,0,68
3,62,0,0
3,59,95,4
3,59,0,20
3,69,95,4
3,69,0,10
3,62,95,2
3,62,0,10
3,69,95,2
3,69,0,20
3,62,95,4
3,59,95,0
3,67,95,0
3,59,0,80
3,62,0,0
3,67,0,0
3,64,95,16
3,64,0,10
3,62,95,2
3,62,0,10
3,59,95,2
3,59,0,20
3,57,95,4
3,57,0,20
3,55,95,4
3,55,0,20
3,55,95,4
3,59,95,0
3,55,0,80
3,59,0,0
3,55,95,16
3,55,0,20
3,59,95,4
3,59,0,10
3,62,95,2
3,62,0,10
3,69,95,2
3,69,0,10
3,62,95,2
3,62,0,10
3,69,95,2
3,69,0,20
3,62,95,4
3,59,95,0
3,67,95,0
3,59,0,60
3,62,0,0
3,67,0,0
3,59,95,12
3,59,0,10
3,62,95,2
3,62,0,10
3,64,95,2
3,64,0,10
3,62,95,2
3,62,0,10
3,59,95,2
3,59,0,20
3,57,95,4
3,57,0,20
3,55,95,4
3,55,0,20
3,59,95,4
3,62,95,0
3,59,0,40
3,62,0,0
3,62,95,24
3,62,0,20
3,59,95,0
3,62,95,0
3,67,95,0
3,59,0,20
3,62,0,0
3,67,0,0
3,67,95,4
3,67,0,20
3,67,95,4
3,67,0,20
3,69,95,4
3,69,0,10
3,67,95,2
3,62,95,0
3,71,95,0
3,62,0,52
3,67,0,0
3,71,0,0
3,50,95,32
3,50,0,20
3,55,95,4
3,55,0,10
3,57,95,2
3,57,0,10
3,59,95,2
3,59,0,20
3,62,95,4
3,62,0,20
3,67,95,4
3,67,0,20
3,62,95,4
3,59,95,0
3,66,95,0
3,59,0,40
3,62,0,0
3,66,0,0
3,66,95,32
3,66,0,20
3,62,95,4
3,66,95,0
3,71,95,0
3,62,0,20
3,66,0,0
3,71,0,0
3,71,95,4
3,71,0,20
3,71,95,4
3,71,0,20
3,73,95,4
3,73,0,10
3,71,95,2
3,66,95,0
3,74,95,0
3,66,0,22
3,71,0,0
3,74,0,0
3,73,95,2
3,73,0,10
3,71,95,2
3,71,0,20
3,52,95,4
3,52,0,20
3,54,95,4
3,54,0,20
3,57,95,4
3,57,0,20
3,59,95,4
3,59,0,20
3,62,95,4
3,62,0,20
3,72,79,52
3,67,79,0
3,76,79,0
3,67,0,34
3,72,0,0
3,76,0,0
3,76,79,2
3,76,0,10
3,76,79,2
3,76,0,20
3,72,79,4
3,67,79,0
3,74,79,0
3,67,0,20
3,72,0,0
3,74,0,0
3,74,79,4
3,74,0,20
3,74,79,4
3,74,0,20
3,74,79,4
3,74,0,20
3,71,79,4
3,67,79,0
3,74,79,0
3,67,0,20
3,71,0,0
3,74,0,0
3,74,79,4
3,74,0,20
3,71,79,4
3,71,0,40
3,59,79,32
3,59,0,20
3,62,79,4
3,62,0,20
3,59,79,4
3,59,0,20
3,66,79,28
3,62,79,0
3,72,79,0
3,62,0,30
3,66,0,0
3,72,0,0
3,72,79,6
3,72,0,10
3,66,79,2
3,62,79,0
3,71,79,0
3,62,0,40
3,66,0,0
3,71,0,0
3,71,79,8
3,71,0,20
