track,note,velocity,time
1,56,66,15924
1,56,0,81
1,56,51,38
1,56,0,81
1,56,49,37
1,56,0,100
1,65,78,21
1,65,0,101
1,65,84,20
1,65,0,91
1,65,87,29
1,65,0,109
1,65,94,133
1,65,0,240
1,65,94,237
1,65,0,85
1,65,87,35
1,65,0,91
1,65,65,29
1,65,0,86
1,65,84,37
1,65,0,85
1,65,67,33
1,65,0,116
1,65,107,126
1,65,0,234
1,60,117,1264
1,60,0,300
1,60,107,60
1,60,0,265
1,60,107,100
1,60,0,395
1,56,94,580
1,56,0,60
1,56,61,41
1,56,0,60
1,56,77,46
1,56,0,60
1,58,117,51
1,58,0,470
1,68,90,723
1,68,0,80
1,68,43,10
1,68,53,88
1,68,0,2
1,68,0,88
1,68,81,18
1,68,0,90
1,68,77,76
1,68,0,128
1,68,66,70
1,68,0,90
1,68,66,8
1,68,0,90
1,68,81,12
1,68,0,90
1,68,90,49
1,68,0,94
1,65,81,92
1,65,0,94
1,60,91,112
1,58,66,85
1,60,0,21
1,58,0,81
1,56,61,2
1,56,0,341
1,53,84,1854
1,53,0,241
1,56,73,4
1,56,0,163
1,56,70,72
1,56,0,38
1,56,55,56
1,56,0,69
1,58,100,72
1,58,0,22
1,53,78,237
1,53,0,27
1,53,73,70
1,53,0,58
1,56,100,43
1,56,0,71
1,56,81,52
1,56,0,141
1,56,100,85
1,56,0,867
1,63,25,5056
1,65,107,22
1,63,0,11
1,63,81,167
1,65,0,63
1,63,0,110
1,60,103,151
1,60,0,350
1,58,63,10
1,58,0,90
1,58,66,30
1,56,85,120
1,58,0,33
1,56,0,826
1,68,100,1168
1,68,0,164
1,68,94,84
1,68,0,120
1,68,81,83
1,68,0,55
1,68,94,79
1,68,0,184
1,68,90,72
1,68,0,259
1,68,77,81
1,68,0,52
1,68,66,57
1,68,0,53
1,68,85,68
1,68,0,197
1,68,77,85
1,68,0,149
1,68,90,88
1,68,0,61
1,68,70,55
1,68,0,143
1,60,107,1688
1,60,0,141
1,60,87,74
1,60,0,73
1,60,87,61
1,60,0,74
1,60,84,37
1,60,0,90
1,60,117,152
1,60,0,242
1,53,78,472
1,53,0,53
1,53,76,67
1,53,0,110
1,56,90,10
1,56,0,77
1,56,66,43
1,56,0,86
1,58,100,35
1,58,0,213
1,56,90,2
1,56,0,469
1,68,45,1211
1,68,0,130
1,68,77,105
1,68,0,23
1,68,90,81
1,68,0,292
1,68,85,107
1,68,0,126
1,63,94,130
1,63,0,182
1,63,90,64
1,63,0,114
1,65,107,117
1,65,0,434
1,63,85,42
1,63,0,214
1,65,98,22
1,65,0,94
1,58,73,178
1,58,0,89
1,60,87,15
1,58,61,66
1,60,0,23
1,56,49,72
1,58,0,27
1,56,0,302
1,56,94,3439
1,56,0,194
1,56,81,66
1,56,0,227
1,58,81,2
1,56,90,250
1,58,0,32
1,60,84,189
1,56,0,5
1,60,0,394
1,60,107,117
1,58,70,104
1,60,0,39
1,56,63,93
1,58,0,13
1,56,0,255
1,60,112,1877
1,60,0,235
1,63,73,7
1,63,0,71
1,63,61,53
1,63,0,164
1,60,94,97
1,60,0,218
1,65,98,313
1,65,0,120
1,65,103,142
1,65,0,325
1,65,107,181
1,65,0,131
1,65,112,108
1,63,112,234
1,65,0,117
1,65,112,91
1,63,0,102
1,65,0,256
1,56,94,829
1,56,0,169
1,56,70,71
1,58,73,241
1,56,0,10
1,56,77,217
1,58,0,28
1,60,98,217
1,56,0,18
1,60,0,370
1,60,103,86
1,58,63,103
1,60,0,57
1,56,63,81
1,58,0,22
1,56,0,266
1,51,81,4060
1,51,0,35
1,51,77,66
1,51,0,83
1,60,78,40
1,60,0,55
1,58,76,44
1,58,0,79
1,60,52,26
1,58,81,145
1,60,0,23
1,56,73,108
1,58,0,13
1,56,0,297
1,63,94,7
1,63,0,445
1,60,87,2430
1,60,0,41
1,60,87,71
1,60,0,78
1,63,117,33
1,63,0,8
1,60,112,2
1,60,0,24
1,60,78,63
1,60,0,138
1,60,103,0
1,60,0,1250
1,68,100,4113
1,68,0,163
1,68,94,67
1,68,0,163
1,68,63,39
1,68,0,57
1,68,85,70
1,68,0,300
1,68,100,322
1,68,0,147
1,68,94,111
1,68,0,184
1,68,81,70
1,68,0,125
1,68,100,110
1,68,0,59
1,68,94,72
1,68,0,136
1,60,103,1641
1,60,0,167
1,60,87,80
1,60,0,154
1,60,112,101
1,60,0,116
1,53,94,52
1,53,0,81
1,53,71,77
1,53,0,79
1,56,81,77
1,56,0,188
1,56,100,186
1,56,0,318
1,56,53,72
1,56,0,63
1,56,66,60
1,56,0,72
1,56,85,88
1,56,0,306
1,58,117,114
1,58,0,469
1,56,85,0
1,56,0,145
1,68,94,808
1,68,0,123
1,68,77,56
1,68,0,79
1,68,81,64
1,68,0,179
1,68,100,141
1,68,0,295
1,65,112,62
1,65,0,271
1,68,117,106
1,68,0,194
1,65,107,97
1,65,0,133
1,65,117,132
1,65,0,147
1,60,117,170
1,58,90,116
1,60,0,5
1,59,94,26
1,58,0,44
1,59,0,44
1,56,70,9
1,56,0,536
1,56,100,743
1,58,63,13
1,58,0,11
1,56,0,22
1,56,73,70
1,56,0,61
1,56,77,66
1,56,0,64
1,56,63,61
1,56,0,53
1,56,85,70
1,56,0,576
1,63,81,1953
1,65,76,140
1,63,0,20
1,65,0,159
1,70,117,77
1,68,94,315
1,70,0,3
1,68,0,100
1,68,81,46
1,68,0,552
1,68,90,579
1,68,0,42
1,68,63,81
1,68,0,50
1,68,77,68
1,68,0,175
1,68,90,79
1,68,0,186
1,65,117,7
1,65,0,263
1,51,66,1270
1,51,0,53
1,51,58,70
1,51,0,83
1,60,94,46
1,60,0,173
1,60,103,64
1,60,0,144
1,51,70,184
1,51,0,94
1,60,98,25
1,60,0,89
1,60,84,33
1,60,0,129
1,51,77,243
1,51,0,55
1,51,58,51
1,51,0,101
1,56,100,2
1,56,0,87
1,56,73,73
1,58,117,113
1,56,0,35
1,58,0,205
1,68,117,715
1,68,0,199
1,68,90,57
1,68,0,169
1,68,94,61
1,68,0,219
1,68,81,61
1,68,0,154
1,68,94,50
1,68,0,198
1,68,100,58
1,68,0,174
1,65,112,37
1,65,0,149
1,68,100,83
1,68,0,63
1,68,55,49
1,65,117,122
1,68,0,44
1,65,0,79
1,60,112,127
1,58,81,110
1,60,0,43
1,56,90,70
1,58,0,25
1,56,0,652
1,53,112,777
1,53,0,52
1,53,76,69
1,56,100,116
1,53,0,28
1,56,0,29
1,56,85,57
1,56,0,69
1,56,70,49
1,56,0,157
1,56,117,68
1,56,0,601
1,56,117,1046
1,56,0,134
1,56,100,120
1,56,0,165
1,58,117,81
1,58,0,216
1,56,100,20
1,56,0,151
1,58,117,86
1,58,0,7
1,58,100,42
1,58,0,593
1,60,117,1225
1,60,0,138
1,60,98,68
1,60,0,83
1,63,100,49
1,63,0,299
1,60,117,60
1,60,0,228
1,65,112,245
1,65,0,138
1,65,112,96
1,65,0,348
1,65,117,141
1,65,0,114
1,65,117,127
1,65,0,2
1,65,117,5
1,63,94,135
1,65,0,38
1,61,100,61
1,63,0,29
1,61,0,495
1,56,100,449
1,56,0,188
1,56,81,55
1,56,0,197
1,58,100,26
1,56,100,250
1,58,0,2
1,56,0,180
1,60,117,50
1,60,0,370
1,60,117,9
1,60,0,977
1,63,100,615
1,63,0,403
1,51,70,1109
1,51,0,58
1,51,47,64
1,51,47,120
1,51,0,66
1,60,103,68
1,51,0,52
1,60,0,184
1,58,61,27
1,58,0,61
1,58,117,31
1,58,0,651
1,63,94,1887
1,63,0,384
1,63,117,1603
1,63,0,644
1,60,117,206
1,60,0,138
1,60,94,66
1,60,0,137
1,60,117,117
1,60,0,370
1,58,103,136
1,58,0,206
1,53,94,32
1,56,100,224
1,53,0,43
1,56,0,454
1,49,77,11258
1,49,0,99
1,58,90,140
1,58,0,1146
1,51,85,2229
1,51,0,103
1,56,85,29
1,53,107,263
1,56,0,26
1,53,0,931
1,56,70,2629
1,56,0,138
1,60,117,96
1,60,0,241
1,56,94,62
1,56,0,90
1,58,94,41
1,58,0,175
1,60,98,33
1,60,0,791
1,58,104,510
1,58,0,536
1,61,81,1073
1,61,0,171
1,68,70,86
1,68,0,54
1,68,61,70
1,65,112,169
1,68,0,38
1,65,0,148
1,65,91,81
1,65,0,75
1,65,91,59
1,65,0,142
1,63,90,92
1,63,0,134
1,61,66,2
1,61,0,318
1,63,77,2267
1,63,0,135
1,72,98,73
1,72,0,109
1,72,87,48
1,72,0,101
1,72,91,40
1,72,0,221
1,72,98,68
1,72,0,122
1,72,117,105
1,72,0,219
1,70,100,86
1,70,0,926
1,56,58,3346
1,56,0,56
1,63,66,31
1,63,0,60
1,63,58,28
1,63,0,74
1,63,55,38
1,63,0,4
1,63,51,4
1,63,0,27
1,63,47,26
1,63,0,27
1,63,55,35
1,63,0,38
1,63,41,26
1,63,0,33
1,63,51,35
1,63,0,2
1,63,37,34
1,63,0,448
1,60,47,285
1,60,0,65
1,60,65,33
1,60,0,48
1,60,63,37
1,60,0,92
1,53,50,111
1,56,35,106
1,53,0,27
1,56,0,21
1,56,43,28
1,56,0,45
1,56,41,37
1,56,0,8
1,56,29,42
1,56,0,356
1,63,77,347
1,65,94,58
1,63,0,8
1,65,0,31
1,68,90,12
1,68,0,24
1,68,70,29
1,68,0,28
1,68,66,27
1,68,0,30
1,68,77,32
1,68,0,65
1,65,98,29
1,65,0,43
1,68,81,30
1,68,0,75
1,65,91,31
1,65,0,69
1,68,81,43
1,68,0,50
1,65,103,32
1,65,0,34
1,60,76,57
1,58,41,33
1,60,0,22
1,56,53,31
1,58,0,9
1,56,0,552
1,53,73,332
1,53,0,35
1,53,60,30
1,56,81,68
1,53,0,22
1,56,0,17
1,56,61,28
1,56,0,42
1,58,66,26
1,58,0,49
1,56,77,23
1,56,0,44
1,58,90,43
1,58,0,100
1,58,47,4
1,58,0,433
1,53,76,1358
1,53,0,25
1,53,58,32
1,53,0,52
1,60,87,10
1,60,0,60
1,63,90,32
1,63,0,64
1,63,100,48
1,63,0,85
1,60,107,33
1,60,0,72
1,65,117,40
1,63,85,211
1,65,0,16
1,63,0,61
1,65,94,18
1,65,0,91
1,63,70,9
1,63,0,70
1,65,103,34
1,63,63,47
1,65,0,6
1,63,0,62
1,60,45,2
1,60,0,286
1,56,81,413
1,56,0,193
1,58,77,17
1,58,0,65
1,56,73,15
1,56,0,65
1,58,81,43
1,58,0,167
1,58,55,1
1,58,0,738
1,51,40,378
1,51,0,90
1,60,56,47
1,58,53,122
1,60,0,10
1,58,0,142
1,60,63,6
1,58,51,88
1,60,0,14
1,58,0,38
1,58,51,29
1,58,0,1979
3,44,61,15786
3,44,0,506
3,44,57,214
3,44,0,234
3,44,55,0
3,44,0,518
3,44,63,209
3,44,0,234
3,44,73,12
3,44,0,530
3,44,68,183
3,44,0,272
3,42,90,200
3,42,0,284
3,37,80,194
3,37,0,234
3,37,87,10
3,37,0,503
3,37,68,209
3,37,0,234
3,37,73,20
3,37,0,504
3,37,80,206
3,37,0,234
3,37,80,8
3,37,0,537
3,37,85,194
3,37,0,277
3,42,73,190
3,42,0,276
3,44,65,214
3,44,0,229
3,44,76,3
3,44,0,505
3,44,61,223
3,44,0,232
3,44,76,2
3,44,0,510
3,44,63,221
3,44,0,237
3,44,76,2
3,44,0,530
3,44,80,189
3,44,0,281
3,42,80,188
3,42,0,280
3,37,75,194
3,37,0,232
3,37,86,12
3,37,0,509
3,37,75,224
3,37,0,232
3,37,86,5
3,37,0,503
3,37,75,213
3,37,0,232
3,37,86,10
3,37,0,512
3,37,90,210
3,37,0,268
3,42,90,213
3,42,0,256
3,44,65,223
3,44,0,232
3,44,76,8
3,44,0,505
3,44,61,215
3,44,0,232
3,44,76,2
3,44,0,510
3,44,63,221
3,44,0,237
3,44,76,2
3,44,0,530
3,44,80,189
3,44,0,281
3,42,80,188
3,42,0,280
3,37,75,194
3,37,0,232
3,37,86,12
3,37,0,509
3,37,75,224
3,37,0,232
3,37,86,5
3,37,0,503
3,37,75,213
3,37,0,232
3,37,86,10
3,37,0,512
3,37,90,210
3,37,0,268
3,42,90,213
3,42,0,256
3,44,65,223
3,44,0,232
3,44,76,1
3,44,0,505
3,44,61,223
3,44,0,232
3,44,76,2
3,44,0,510
3,44,63,221
3,44,0,237
3,44,76,2
3,44,0,530
3,44,80,189
3,44,0,281
3,42,80,188
3,42,0,280
3,37,75,194
3,37,0,232
3,37,86,12
3,37,0,509
3,37,75,224
3,37,0,232
3,37,86,5
3,37,0,503
3,37,75,213
3,37,0,232
3,37,86,10
3,37,0,512
3,37,90,210
3,37,0,268
3,42,90,213
3,42,0,256
3,44,65,223
3,44,0,232
3,44,76,1
3,44,0,505
3,44,61,223
3,44,0,232
3,44,76,2
3,44,0,510
3,44,63,221
3,44,0,237
3,44,76,2
3,44,0,530
3,44,80,189
3,44,0,281
3,42,80,188
3,42,0,280
3,37,75,194
3,37,0,232
3,37,86,12
3,37,0,509
3,37,75,224
3,37,0,232
3,37,86,5
3,37,0,503
3,37,75,213
3,37,0,232
3,37,85,12
3,37,0,683
3,37,70,39
3,37,0,213
3,37,81,28
3,37,0,209
3,37,90,31
3,37,0,230
3,39,94,7
3,37,77,237
3,39,0,6
3,37,0,234
3,41,98,3
3,41,0,599
3,41,69,121
3,41,0,212
3,41,97,30
3,39,81,242
3,41,0,22
3,39,0,226
3,37,77,228
3,37,0,219
3,37,85,20
3,37,0,686
3,37,70,36
3,37,0,213
3,37,81,25
3,37,0,211
3,37,85,26
3,37,0,234
3,39,94,4
3,37,73,237
3,39,0,7
3,41,94,238
3,37,0,1
3,41,0,524
3,41,81,195
3,41,0,218
3,41,88,20
3,39,81,241
3,41,0,13
3,39,0,213
3,39,77,17
3,39,0,237
3,37,81,6
3,37,0,220
3,37,90,20
3,37,0,680
3,37,70,33
3,37,0,222
3,37,85,18
3,37,0,221
3,37,90,21
3,37,0,238
3,39,94,1
3,39,0,241
3,37,81,0
3,41,93,240
3,37,0,1
3,41,0,598
3,41,78,121
3,41,0,218
3,41,91,22
3,39,81,242
3,41,0,16
3,39,0,251
3,37,85,210
3,37,0,227
3,37,81,15
3,37,0,680
3,37,90,40
3,37,0,218
3,37,94,23
3,39,71,723
3,37,0,9
3,44,76,225
3,39,0,4
3,44,0,501
3,44,61,223
3,44,0,232
3,44,76,2
3,44,0,510
3,44,63,221
3,44,0,237
3,44,76,2
3,44,0,530
3,44,80,189
3,44,0,281
3,42,80,188
3,42,0,280
3,37,75,194
3,37,0,232
3,37,86,12
3,37,0,509
3,37,75,224
3,37,0,232
3,37,86,5
3,37,0,503
3,37,75,213
3,37,0,232
3,37,86,10
3,37,0,512
3,37,90,210
3,37,0,268
3,42,90,213
3,42,0,256
3,44,65,223
3,44,0,232
3,44,76,1
3,44,0,505
3,44,61,223
3,44,0,232
3,44,76,2
3,44,0,510
3,44,63,221
3,44,0,237
3,44,76,2
3,44,0,530
3,44,80,189
3,44,0,281
3,42,80,188
3,42,0,280
3,37,75,194
3,37,0,232
3,37,86,12
3,37,0,509
3,37,75,224
3,37,0,232
3,37,86,5
3,37,0,503
3,37,75,213
3,37,0,232
3,37,86,10
3,37,0,512
3,37,90,210
3,37,0,268
3,42,90,213
3,42,0,256
3,44,65,223
3,44,0,232
3,44,76,1
3,44,0,505
3,44,61,223
3,44,0,232
3,44,76,2
3,44,0,510
3,44,63,221
3,44,0,237
3,44,76,2
3,44,0,530
3,44,80,189
3,44,0,281
3,42,80,188
3,42,0,280
3,37,75,194
3,37,0,232
3,37,86,12
3,37,0,509
3,37,75,224
3,37,0,232
3,37,86,5
3,37,0,503
3,37,75,213
3,37,0,232
3,37,86,10
3,37,0,512
3,37,90,210
3,37,0,268
3,42,90,213
3,42,0,256
3,44,65,223
3,44,0,232
3,44,76,1
3,44,0,505
3,44,61,223
3,44,0,232
3,44,76,2
3,44,0,510
3,44,63,221
3,44,0,237
3,44,76,2
3,44,0,530
