track,note,velocity,time
7,67,101,480
7,67,0,51
7,71,109,5
7,71,0,116
7,72,112,3
7,72,0,34
7,72,114,25
7,72,0,80
7,72,116,218
7,72,0,42
7,72,104,20
7,72,0,27
7,72,112,32
7,72,0,45
7,72,113,15
7,72,0,30
7,72,113,25
7,72,0,123
7,74,115,1
7,71,108,59
7,74,0,2
7,71,0,99
7,67,105,873
7,67,0,48
7,71,109,7
7,71,0,57
7,72,111,0
7,72,0,87
7,72,103,31
7,72,0,109
7,72,112,189
7,72,0,51
7,72,104,8
7,72,0,29
7,72,110,31
7,72,0,39
7,72,109,21
7,72,0,30
7,72,110,30
7,74,112,63
7,72,0,5
7,71,106,116
7,74,0,5
7,71,0,122
7,76,104,892
7,76,0,110
7,77,108,11
7,77,0,32
7,77,109,26
7,77,0,113
7,77,110,188
7,77,0,43
7,77,100,17
7,77,0,31
7,77,114,28
7,77,0,33
7,77,110,28
7,77,0,40
7,77,110,22
7,79,108,56
7,77,0,1
7,76,107,119
7,79,0,6
7,76,0,153
7,74,108,382
7,72,100,58
7,74,0,1
7,74,111,59
7,72,0,2
7,72,109,59
7,74,0,5
7,74,105,54
7,72,0,1
7,76,111,60
7,74,0,9
7,69,106,110
7,76,0,16
7,69,0,133
7,74,105,394
7,74,0,58
7,72,100,2
7,72,0,51
7,74,106,7
7,74,0,60
7,72,103,0
7,74,106,62
7,72,0,4
7,76,104,54
7,74,0,3
7,76,0,237
7,67,101,0
7,67,0,264
7,67,101,583
7,67,0,51
7,71,109,5
7,71,0,116
7,72,112,3
7,72,0,34
7,72,110,25
7,72,0,105
7,72,94,136
7,72,0,40
7,72,110,17
7,72,0,42
7,72,104,20
7,72,0,27
7,72,112,32
7,72,0,45
7,72,113,15
7,72,0,30
7,72,113,25
7,74,111,67
7,72,0,2
7,71,108,114
7,74,0,10
7,71,0,123
7,67,98,831
7,67,0,48
7,71,109,14
7,72,111,117
7,71,0,1
7,72,0,44
7,72,103,16
7,72,0,109
7,67,95,132
7,67,0,49
7,72,112,8
7,72,0,51
7,72,104,8
7,72,0,29
7,72,110,31
7,72,0,39
7,72,109,21
7,72,0,30
7,72,110,30
7,74,112,63
7,72,0,5
7,71,106,116
7,74,0,5
7,71,0,122
7,72,102,830
7,72,0,49
7,76,104,13
7,76,0,110
7,77,108,11
7,77,0,32
7,77,104,26
7,77,0,113
7,67,96,133
7,67,0,45
7,77,110,10
7,77,0,43
7,77,100,17
7,77,0,31
7,77,114,28
7,77,0,33
7,77,110,28
7,77,0,44
7,77,110,13
7,79,108,61
7,77,0,5
7,76,107,115
7,79,0,6
7,76,0,116
7,67,100,365
7,67,0,49
7,74,108,5
7,72,100,58
7,74,0,1
7,74,111,59
7,72,0,2
7,72,109,59
7,74,0,5
7,74,105,54
7,72,0,1
7,76,111,60
7,74,0,9
7,69,106,110
7,76,0,16
7,69,0,133
7,72,94,332
7,72,0,43
7,74,105,19
7,74,0,58
7,72,100,2
7,72,0,51
7,74,106,7
7,74,0,60
7,72,103,0
7,74,106,62
7,72,0,4
7,76,104,54
7,74,0,3
7,67,101,123
7,76,0,5
7,67,0,181
7,67,107,467
7,67,0,38
7,67,106,23
7,67,0,44
7,76,111,16
7,74,116,120
7,76,0,6
7,74,0,54
7,76,109,0
7,76,0,147
7,72,99,333
7,72,0,54
7,74,109,5
7,74,0,57
7,72,100,3
7,72,0,60
7,74,109,0
7,72,102,61
7,74,0,2
7,72,0,57
7,74,106,0
7,76,107,120
7,74,0,11
7,69,105,50
7,76,0,2
7,69,0,126
7,69,109,532
7,69,0,33
7,69,109,27
7,69,0,45
7,77,103,15
7,77,0,116
7,76,98,4
7,77,108,60
7,76,0,2
7,77,0,127
7,74,107,410
7,72,96,61
7,74,0,4
7,72,0,50
7,74,107,5
7,74,0,60
7,72,100,1
7,72,0,58
7,74,103,1
7,76,109,60
7,74,0,7
7,67,106,114
7,76,0,7
7,67,0,133
7,67,104,520
7,67,0,33
7,67,108,28
7,67,0,40
7,76,113,19
7,74,111,121
7,76,0,6
7,76,111,55
7,74,0,3
7,76,0,150
7,74,109,388
7,72,110,57
7,74,0,2
7,74,110,58
7,72,0,2
7,74,0,56
7,72,104,2
7,74,112,59
7,72,0,1
7,76,106,59
7,74,0,8
7,69,111,113
7,76,0,5
7,69,0,130
7,69,100,585
7,69,0,52
7,77,111,7
7,76,102,121
7,77,0,5
7,77,108,55
7,76,0,4
7,77,0,174
7,69,105,543
7,69,0,53
7,77,110,6
7,76,103,62
7,77,0,3
7,76,0,121
7,77,108,119
7,77,0,817
7,76,104,3917
7,77,111,121
7,76,0,11
7,77,0,24
7,77,105,27
7,77,0,107
7,76,106,193
7,76,0,57
7,77,104,1
7,77,0,49
7,77,106,11
7,77,0,49
7,77,98,11
7,77,0,46
7,77,106,14
7,79,106,62
7,77,0,11
7,79,0,106
7,76,105,0
7,76,0,128
7,74,106,413
7,74,0,57
7,72,99,2
7,72,0,60
7,74,109,0
7,72,100,60
7,74,0,1
7,74,107,59
7,72,0,7
7,76,107,114
7,74,0,8
7,69,103,51
7,76,0,2
7,69,0,127
7,74,110,414
7,74,0,56
7,72,93,4
7,72,0,53
7,74,109,5
7,74,0,60
7,72,105,0
7,74,111,60
7,72,0,1
7,74,0,57
7,76,105,1
7,67,107,123
7,76,0,6
7,67,0,334
7,67,112,318
7,67,0,37
7,67,111,23
7,67,0,46
7,76,109,13
7,74,109,121
7,76,0,7
7,76,112,53
7,74,0,1
7,76,0,143
7,67,100,1536
7,67,0,61
7,76,112,0
7,74,107,121
7,76,0,2
7,76,108,56
7,74,0,2
7,76,0,137
7,67,112,1481
7,67,0,37
7,67,111,23
7,67,0,46
7,76,109,13
7,74,109,121
7,76,0,7
7,76,112,53
7,74,0,1
7,76,0,143
7,67,108,1422
7,67,0,84
7,67,111,30
7,76,109,59
7,67,0,9
7,74,109,112
7,76,0,7
7,76,112,53
7,74,0,1
7,76,0,143
7,79,110,1476
7,79,0,29
7,79,103,32
7,79,0,49
7,77,106,13
7,77,0,116
7,74,100,3
7,74,0,53
7,76,110,5
7,76,0,157
7,76,104,15
7,74,109,15
7,76,0,2
7,76,104,19
7,74,0,8
7,76,0,22
7,67,102,17
7,67,0,9
7,67,100,12
7,67,0,24
7,76,110,20
7,76,0,25
7,74,110,0
7,74,0,26
7,76,112,0
7,76,0,64
8,31,38,1040
8,31,0,57
8,36,52,3
8,36,0,453
8,28,52,27
8,28,0,432
8,31,53,48
8,31,0,443
8,36,62,37
8,43,49,420
8,36,0,1
8,48,65,59
8,43,0,3
8,48,0,440
8,28,64,37
8,28,0,449
8,31,69,31
8,31,0,83
8,31,64,37
8,31,0,71
8,31,68,49
8,31,0,56
8,31,52,34
8,35,74,30
8,31,0,4
8,35,0,53
8,38,65,3
8,38,0,57
8,31,71,3
8,31,0,28
8,31,54,32
8,31,0,36
8,29,69,24
8,29,0,25
8,29,70,35
8,29,0,34
8,28,63,26
8,28,0,26
8,28,60,34
8,28,0,34
8,26,72,26
8,26,0,30
8,26,61,30
8,26,0,33
8,36,73,27
8,36,0,69
8,36,68,51
8,36,0,65
8,36,69,55
8,36,0,75
8,36,68,45
8,36,0,76
8,36,71,44
8,36,0,73
8,36,71,47
8,36,0,71
8,36,72,49
8,36,0,62
8,36,72,58
8,31,59,60
8,36,0,6
8,31,0,23
8,28,73,31
8,28,0,74
8,28,68,46
8,28,0,70
8,28,71,50
8,28,0,64
8,28,68,56
8,28,0,58
8,31,73,62
8,31,0,73
8,31,61,47
8,31,0,71
8,31,71,49
8,31,0,76
8,31,65,44
8,31,0,42
8,31,64,18
8,31,0,25
8,36,72,35
8,36,0,61
8,36,68,59
8,36,0,77
8,36,69,43
8,36,0,65
8,43,60,55
8,48,68,60
8,43,0,1
8,36,71,59
8,48,0,1
8,36,0,60
8,36,67,59
8,36,0,71
8,36,69,49
8,36,0,69
8,36,69,51
8,36,0,58
8,28,57,2
8,28,0,53
8,28,70,7
8,28,0,79
8,28,66,41
8,28,0,43
8,28,46,17
8,28,0,31
8,28,71,29
8,28,0,84
8,28,69,36
8,28,0,83
8,31,69,37
8,31,0,82
8,31,63,38
8,31,0,93
8,31,73,27
8,31,0,87
8,31,65,33
8,31,0,43
8,31,57,17
8,31,0,49
8,29,70,11
8,29,0,73
8,29,62,47
8,29,0,75
8,29,70,45
8,29,0,81
8,29,60,39
8,29,0,77
8,31,71,43
8,31,0,80
8,31,66,40
8,31,0,76
8,31,70,44
8,31,0,74
8,31,63,46
8,35,60,60
8,31,0,1
8,35,0,51
8,36,72,8
8,36,0,66
8,36,67,54
8,36,0,65
8,36,65,55
8,36,0,80
8,26,68,40
8,26,0,59
8,27,68,1
8,27,0,48
8,28,68,12
8,28,0,87
8,28,68,33
8,28,0,39
8,28,48,21
8,28,0,35
8,28,73,25
8,28,0,45
8,28,64,15
8,28,0,57
8,35,71,3
8,35,0,52
8,28,58,8
8,28,0,49
8,33,71,11
8,33,0,78
8,33,71,42
8,33,0,83
8,33,69,37
8,33,0,82
8,28,60,38
8,27,71,60
8,28,0,1
8,27,0,47
8,26,65,12
8,26,0,79
8,26,69,41
8,26,0,83
8,26,71,37
8,26,0,82
8,26,68,38
8,26,0,31
8,26,49,29
8,26,0,45
8,31,63,15
8,31,0,83
8,31,72,37
8,31,0,91
8,29,70,29
8,29,0,85
8,29,65,35
8,29,0,80
8,28,72,40
8,28,0,74
8,28,70,46
8,28,0,84
8,26,65,36
8,26,0,83
8,26,64,37
8,26,0,69
8,36,73,51
8,36,0,69
8,36,68,51
8,36,0,65
8,36,69,55
8,36,0,75
8,36,68,45
8,36,0,54
8,31,56,6
8,31,0,37
8,36,71,23
8,36,0,73
8,36,71,47
8,36,0,71
8,36,72,49
8,36,0,62
8,36,72,58
8,31,59,60
8,36,0,6
8,31,0,23
8,28,73,31
8,28,0,74
8,28,68,46
8,28,0,70
8,28,71,50
8,28,0,64
8,28,68,56
8,28,0,58
8,31,57,2
8,31,0,38
8,31,73,22
8,31,0,73
8,31,61,47
8,31,0,71
8,31,71,49
8,31,0,76
8,31,65,44
8,31,0,42
8,31,64,18
8,31,0,25
8,36,72,35
8,36,0,61
8,36,68,59
8,36,0,77
8,36,69,43
8,36,0,65
8,36,60,55
8,36,0,45
8,31,68,15
8,31,0,32
8,36,71,28
8,36,0,61
8,36,67,59
8,36,0,71
8,36,69,49
8,36,0,69
8,36,69,51
8,36,0,58
8,28,57,2
8,28,0,32
8,28,70,28
8,28,0,79
8,28,66,41
8,28,0,76
8,28,71,44
8,28,0,84
8,28,69,36
8,28,0,57
8,31,55,3
8,31,0,37
8,31,69,23
8,31,0,82
8,31,63,38
8,31,0,93
8,31,68,27
8,31,0,87
8,31,68,33
8,31,0,78
8,29,70,42
8,29,0,73
8,29,62,47
8,29,0,75
8,29,70,45
8,29,0,81
8,36,70,39
8,36,0,54
8,29,62,6
8,29,0,50
8,31,71,10
8,31,0,80
8,31,66,40
8,31,0,76
8,31,70,44
8,31,0,74
8,31,63,46
8,35,60,60
8,31,0,1
8,35,0,51
8,36,72,8
8,36,0,66
8,36,67,54
8,36,0,65
8,36,65,55
8,36,0,80
8,26,68,40
8,26,0,59
8,27,68,1
8,27,0,48
8,28,68,12
8,28,0,87
8,28,68,33
8,28,0,39
8,28,48,21
8,28,0,35
8,28,73,25
8,28,0,45
8,28,64,15
8,28,0,57
8,35,71,3
8,35,0,52
8,28,58,8
8,28,0,49
8,33,71,11
8,33,0,78
8,33,71,42
8,33,0,83
8,33,69,37
8,33,0,82
8,33,69,38
8,33,0,79
8,26,65,41
8,26,0,79
8,26,69,41
8,26,0,83
8,26,71,37
8,26,0,82
8,33,68,38
8,33,0,56
8,26,68,4
8,26,0,45
8,31,63,15
8,31,0,83
8,31,72,37
8,31,0,63
8,31,57,27
8,31,0,23
8,29,70,7
8,29,0,85
8,29,65,35
8,29,0,80
8,29,63,10
8,29,0,23
8,28,72,7
8,28,0,72
8,28,70,48
8,28,0,50
8,28,66,10
8,28,0,21
8,28,53,9
8,28,0,20
8,26,65,10
8,26,0,83
8,26,70,37
8,26,0,69
8,36,67,51
8,36,0,71
8,36,69,49
8,36,0,77
8,36,64,43
8,36,0,70
8,36,72,50
8,31,55,60
8,36,0,4
8,31,0,52
8,28,71,4
8,28,0,79
8,28,70,41
8,28,0,85
8,28,69,35
8,28,0,75
8,28,67,45
8,28,0,35
8,28,45,25
8,28,0,42
8,33,69,18
8,33,0,73
8,33,61,47
8,33,0,77
8,33,67,43
8,33,0,84
8,33,68,36
8,33,0,87
8,33,71,33
8,33,0,90
8,33,71,30
8,33,0,65
8,33,69,55
8,33,0,88
8,28,70,32
8,28,0,60
8,27,55,0
8,27,0,60
8,26,60,0
8,26,0,84
8,26,70,36
8,26,0,70
8,26,69,50
8,26,0,111
8,33,68,9
8,26,51,60
8,33,0,2
8,26,0,39
8,26,67,19
8,26,0,70
8,26,66,50
8,26,0,82
8,26,59,38
8,26,0,85
8,26,70,35
8,26,0,80
8,31,69,40
8,31,0,96
8,31,69,24
8,31,0,32
8,31,60,28
8,31,0,43
8,29,64,17
8,29,0,85
8,29,68,35
8,29,0,32
8,29,61,28
8,29,0,34
8,28,69,26
8,28,0,89
8,28,65,31
8,28,0,36
8,24,61,24
8,24,0,56
8,26,72,4
8,26,0,101
8,26,68,19
8,26,0,90
8,36,70,30
8,36,0,91
8,36,72,29
8,36,0,84
8,36,66,36
8,36,0,33
8,36,56,27
8,36,0,34
8,36,70,26
8,36,0,50
8,31,57,10
8,31,0,56
8,28,73,4
8,28,0,74
8,28,70,46
8,28,0,73
8,28,72,47
8,28,0,38
8,31,51,22
8,31,0,53
8,28,72,7
8,28,0,32
8,28,55,28
8,28,0,49
8,33,69,11
8,33,0,76
8,33,65,44
8,33,0,85
8,33,70,35
8,33,0,82
8,33,71,38
8,33,0,60
8,28,57,0
8,28,0,59
8,33,71,1
8,33,0,87
8,33,74,33
8,33,0,80
8,33,68,40
8,33,0,87
8,28,67,33
8,28,0,58
8,27,65,2
8,27,0,48
8,26,74,12
8,26,0,83
8,26,70,37
8,26,0,80
8,26,72,40
8,26,0,77
8,26,69,43
8,33,61,60
8,26,0,8
8,33,0,39
8,26,69,13
8,26,0,87
8,26,68,33
8,26,0,80
8,26,72,40
8,26,0,46
8,26,63,14
8,26,0,46
8,29,75,14
8,29,0,53
8,26,65,7
8,26,0,55
8,31,71,5
8,31,0,107
8,38,70,13
8,31,62,60
8,38,0,4
8,29,72,56
8,31,0,1
8,29,0,95
8,29,70,24
8,29,0,33
8,29,59,27
8,29,0,51
8,28,69,9
8,28,0,80
8,28,71,40
8,28,0,43
8,28,47,17
8,28,0,36
8,26,68,24
8,26,0,37
8,26,53,23
8,26,0,30
8,26,68,30
8,26,0,96
8,36,72,24
8,36,0,81
8,36,66,39
8,36,0,83
8,36,69,37
8,36,0,85
8,36,72,35
8,36,0,76
8,36,65,44
8,36,0,82
8,36,66,38
8,36,0,70
8,36,70,50
8,36,0,68
8,36,69,52
8,31,64,60
8,36,0,3
8,31,0,51
8,28,73,6
8,28,0,82
8,28,69,38
8,28,0,83
8,28,68,37
8,28,0,86
8,28,72,34
8,28,0,88
8,31,70,32
8,31,0,84
8,31,69,36
8,31,0,66
8,31,68,54
8,31,0,52
8,33,49,8
8,35,74,60
8,33,0,2
8,35,0,55
8,31,59,3
8,31,0,41
8,36,75,19
8,36,0,71
8,36,71,49
8,36,0,78
8,36,71,42
8,36,0,72
8,36,72,48
8,31,56,60
8,36,0,6
8,31,0,49
8,36,74,5
8,36,0,87
8,36,70,33
8,36,0,86
8,36,74,34
8,36,0,69
8,36,56,51
8,36,0,58
8,31,63,2
8,31,0,51
8,28,68,9
8,28,0,84
8,28,70,36
8,28,0,94
8,28,69,26
8,28,0,33
8,28,46,27
8,28,0,30
8,28,67,30
8,28,0,103
8,31,68,17
8,31,0,99
8,31,69,21
8,31,0,82
