track,note,velocity,time
1,59,101,726
1,55,97,0
1,52,91,0
1,36,98,0
1,52,0,90
1,55,0,0
1,59,0,30
1,55,93,0
1,52,89,0
1,60,97,0
1,52,0,30
1,55,0,0
1,60,0,30
1,60,93,0
1,52,93,0
1,55,103,0
1,55,0,270
1,52,0,0
1,60,0,0
1,36,0,30
1,55,94,0
1,59,101,0
1,52,91,0
1,36,95,0
1,52,0,60
1,55,0,0
1,59,0,0
1,55,92,0
1,52,84,0
1,60,98,0
1,60,0,30
1,52,0,0
1,55,0,0
1,60,92,30
1,52,88,0
1,55,102,0
1,55,0,60
1,52,0,0
1,60,0,0
1,59,92,0
1,52,92,0
1,55,101,0
1,55,0,30
1,52,0,0
1,59,0,30
1,52,94,0
1,60,95,0
1,55,108,0
1,60,0,30
1,55,0,30
1,52,0,0
1,55,99,0
1,62,101,0
1,52,91,0
1,52,0,90
1,62,0,0
1,55,0,0
1,52,100,30
1,55,103,0
1,59,101,0
1,36,0,60
1,40,102,0
1,52,0,450
1,55,0,0
1,59,0,30
1,40,0,0
1,59,91,0
1,55,97,0
1,50,97,0
1,43,100,0
1,50,0,420
1,59,0,0
1,55,0,0
1,43,0,60
1,52,92,0
1,59,96,0
1,36,98,0
1,55,101,0
1,52,0,90
1,59,0,30
1,55,0,0
1,55,97,0
1,52,87,0
1,60,96,0
1,60,0,30
1,52,0,0
1,55,0,0
1,60,97,30
1,55,108,0
1,52,95,0
1,52,0,270
1,36,0,0
1,60,0,0
1,55,0,0
1,55,99,30
1,52,99,0
1,36,99,0
1,59,99,0
1,59,0,60
1,55,0,0
1,52,0,0
1,55,102,0
1,52,90,0
1,60,104,0
1,52,0,30
1,55,0,0
1,60,0,30
1,60,95,0
1,55,104,0
1,52,95,0
1,52,0,30
1,55,0,30
1,60,0,0
1,60,93,0
1,52,93,0
1,55,101,0
1,52,0,30
1,55,0,30
1,60,0,0
1,52,96,0
1,60,97,0
1,55,107,0
1,55,0,60
1,60,0,0
1,52,0,0
1,62,101,0
1,55,103,0
1,52,98,0
1,52,0,90
1,55,0,0
1,62,0,30
1,52,98,0
1,55,107,0
1,59,103,0
1,36,0,60
1,40,98,0
1,52,0,450
1,59,0,0
1,55,0,0
1,43,97,30
1,55,97,0
1,50,103,0
1,59,96,0
1,40,0,30
1,50,0,420
1,59,0,0
1,55,0,0
1,43,0,30
1,55,105,0
1,59,97,0
1,50,99,0
1,43,99,0
1,43,0,120
1,55,0,0
1,59,0,0
1,50,0,0
1,41,101,0
1,50,89,0
1,55,98,0
1,59,97,0
1,59,0,90
1,55,0,0
1,50,0,30
1,41,0,0
1,50,86,0
1,59,95,0
1,55,101,0
1,40,101,0
1,55,0,90
1,50,0,0
1,59,0,0
1,40,0,30
1,50,92,0
1,59,97,0
1,55,104,0
1,38,101,0
1,38,0,90
1,50,0,0
1,59,0,0
1,55,0,0
1,36,94,30
1,55,103,0
1,52,98,0
1,59,102,0
1,52,0,90
1,55,0,0
1,59,0,30
1,55,100,0
1,52,88,0
1,60,97,0
1,60,0,30
1,52,0,0
1,55,0,0
1,52,94,30
1,60,99,0
1,55,107,0
1,55,0,270
1,36,0,0
1,52,0,0
1,60,0,0
1,36,97,30
1,59,99,0
1,55,98,0
1,52,92,0
1,52,0,60
1,55,0,0
1,59,0,0
1,55,94,0
1,52,84,0
1,60,101,0
1,60,0,30
1,52,0,0
1,55,0,0
1,60,99,30
1,52,93,0
1,55,105,0
1,55,0,30
1,52,0,0
1,60,0,30
1,60,89,0
1,55,95,0
1,52,88,0
1,52,0,30
1,55,0,0
1,60,0,0
1,52,94,30
1,60,96,0
1,55,104,0
1,55,0,30
1,60,0,0
1,52,0,0
1,55,99,30
1,52,90,0
1,62,105,0
1,62,0,90
1,52,0,0
1,55,0,0
1,52,99,30
1,55,110,0
1,59,105,0
1,36,0,60
1,40,94,0
1,40,0,330
1,40,95,30
1,59,0,90
1,52,0,0
1,55,0,0
1,40,0,30
1,43,96,0
1,55,87,0
1,50,99,0
1,59,88,0
1,59,0,450
1,50,0,0
1,55,0,0
1,43,0,30
1,55,95,0
1,36,99,0
1,52,97,0
1,59,100,0
1,59,0,90
1,52,0,0
1,55,0,0
1,55,100,30
1,52,90,0
1,60,99,0
1,60,0,30
1,52,0,0
1,55,0,0
1,60,96,30
1,55,107,0
1,52,97,0
1,52,0,270
1,36,0,0
1,60,0,0
1,55,0,0
1,55,89,30
1,36,94,0
1,52,88,0
1,59,97,0
1,59,0,60
1,52,0,0
1,55,0,0
1,52,89,0
1,55,102,0
1,60,102,0
1,60,0,30
1,55,0,0
1,52,0,0
1,60,92,30
1,55,102,0
1,52,96,0
1,52,0,30
1,55,0,0
1,60,0,30
1,52,94,0
1,59,97,0
1,55,107,0
1,55,0,30
1,59,0,0
1,52,0,0
1,60,93,30
1,55,100,0
1,52,94,0
1,52,0,30
1,55,0,0
1,60,0,0
1,55,103,30
1,52,97,0
1,62,104,0
1,62,0,90
1,55,0,0
1,52,0,30
1,55,104,0
1,59,99,0
1,52,97,0
1,36,0,60
1,40,100,0
1,40,0,360
1,52,0,0
1,59,0,0
1,55,0,0
1,55,100,0
1,59,96,0
1,52,93,0
1,40,95,0
1,52,0,90
1,55,0,0
1,59,0,0
1,40,0,30
1,43,98,0
1,55,92,0
1,59,93,0
1,50,102,0
1,59,0,420
1,50,0,30
1,55,0,0
1,60,100,30
1,57,95,0
1,64,101,0
1,41,104,0
1,43,0,30
1,64,0,60
1,60,0,0
1,57,0,0
1,60,95,30
1,57,90,0
1,65,98,0
1,65,0,30
1,60,0,0
1,57,0,30
1,65,103,0
1,60,108,0
1,57,99,0
1,57,0,270
1,60,0,0
1,65,0,30
1,41,0,0
1,50,99,0
1,55,99,0
1,43,96,0
1,65,107,0
1,59,99,0
1,65,0,60
1,64,105,0
1,64,0,30
1,59,0,0
1,50,0,0
1,55,0,0
1,59,94,30
1,62,102,0
1,59,94,0
1,65,103,0
1,59,0,30
1,59,0,0
1,65,0,30
1,62,0,0
1,59,97,0
1,59,92,0
1,64,104,0
1,64,0,30
1,59,0,0
1,59,0,0
1,59,95,30
1,65,97,0
1,62,104,0
1,59,96,0
1,65,104,0
1,65,0,30
1,59,0,0
1,62,0,30
1,59,0,0
1,65,0,0
1,55,99,0
1,67,104,0
1,59,95,0
1,62,107,0
1,62,0,90
1,67,0,0
1,59,0,0
1,55,0,0
1,60,103,30
1,55,98,0
1,64,97,0
1,43,0,60
1,36,99,0
1,55,0,150
1,64,0,30
1,60,0,0
1,55,92,0
1,64,88,0
1,60,90,0
1,60,0,150
1,64,0,0
1,55,0,0
1,60,104,30
1,64,101,0
1,55,103,0
1,62,90,0
1,62,0,30
1,55,0,0
1,64,0,30
1,60,0,0
1,55,88,0
1,55,0,30
1,62,93,30
1,56,105,0
1,52,94,0
1,40,88,0
1,36,0,30
1,52,0,30
1,62,0,0
1,60,93,0
1,52,89,0
1,52,0,30
1,60,0,0
1,56,0,0
1,62,98,30
1,56,108,0
1,52,94,0
1,52,0,30
1,62,0,30
1,60,93,0
1,52,95,0
1,52,0,30
1,60,0,0
1,56,0,0
1,56,105,30
1,52,99,0
1,62,101,0
1,62,0,30
1,52,0,0
1,56,0,0
1,56,105,30
1,64,105,0
1,52,93,0
1,52,0,60
1,64,0,30
1,56,0,0
1,57,99,30
1,52,88,0
1,60,101,0
1,40,0,60
1,45,97,0
1,52,0,60
1,52,15,60
1,52,0,30
1,60,0,0
1,57,0,0
1,57,102,30
1,52,95,0
1,60,100,0
1,45,0,30
1,45,87,30
1,52,0,60
1,52,90,0
1,52,0,30
1,60,0,0
1,57,0,0
1,57,102,30
1,52,95,0
1,60,98,0
1,52,0,30
1,52,86,30
1,52,0,30
1,60,0,0
1,57,0,0
1,45,0,30
1,38,93,0
1,57,98,0
1,53,102,0
1,62,101,0
1,53,0,30
1,62,0,30
1,60,98,0
1,53,91,0
1,53,0,30
1,60,0,0
1,57,0,0
1,57,99,30
1,62,102,0
1,53,100,0
1,60,92,0
1,60,0,30
1,62,0,30
1,53,0,0
1,53,88,0
1,60,89,0
1,53,0,30
1,57,0,0
1,60,0,30
1,57,100,0
1,62,107,0
1,53,91,0
1,53,0,30
1,62,0,0
1,57,0,0
1,57,102,30
1,64,107,0
1,53,98,0
1,53,0,30
1,64,0,60
1,57,0,0
1,53,95,30
1,59,98,0
1,55,95,0
1,62,93,0
1,38,0,60
1,43,97,0
1,55,0,60
1,53,0,0
1,62,0,30
1,59,0,0
1,55,28,0
1,53,28,0
1,53,0,30
1,55,0,0
1,59,89,0
1,55,97,0
1,62,84,0
1,55,0,60
1,59,0,0
1,59,82,0
1,55,93,0
1,55,0,30
1,62,0,30
1,43,0,0
1,59,0,0
1,53,95,0
1,55,95,0
1,59,95,0
1,62,89,0
1,41,104,0
1,55,0,60
1,53,0,0
1,55,80,0
1,55,0,30
1,62,0,0
1,59,0,0
1,59,99,90
1,55,97,0
1,62,93,0
1,62,0,30
1,55,0,0
1,59,0,0
1,41,0,30
1,53,95,0
1,40,95,0
1,59,98,0
1,55,97,0
1,62,94,0
1,53,0,120
1,55,0,30
1,62,0,0
1,59,0,0
1,59,102,30
1,55,105,0
1,62,98,0
1,62,0,30
1,55,0,0
1,59,0,0
1,40,0,30
1,53,95,0
1,55,92,0
1,59,102,0
1,62,95,0
1,38,103,0
1,62,0,90
1,59,0,0
1,53,0,0
1,55,0,0
1,53,95,30
1,59,102,0
1,55,103,0
1,62,97,0
1,62,0,60
1,59,0,0
1,55,0,30
1,53,0,0
1,38,0,30
1,36,94,0
1,55,103,0
1,52,98,0
1,59,102,0
1,59,0,90
1,52,0,0
1,55,0,0
1,55,100,30
1,52,88,0
1,60,97,0
1,60,0,30
1,52,0,0
1,55,0,0
1,52,94,30
1,60,99,0
1,55,107,0
1,55,0,270
1,36,0,0
1,52,0,0
1,60,0,0
1,36,97,30
1,59,99,0
1,55,98,0
1,52,92,0
1,52,0,60
1,55,0,0
1,59,0,0
1,55,94,0
1,52,84,0
1,60,101,0
1,60,0,30
1,52,0,0
1,55,0,0
1,60,99,30
1,52,93,0
1,55,105,0
1,55,0,30
1,52,0,0
1,60,0,30
1,60,89,0
1,55,95,0
1,52,88,0
1,52,0,30
1,55,0,0
1,60,0,0
1,52,94,30
1,60,96,0
1,55,104,0
1,55,0,30
1,60,0,0
1,52,0,0
1,55,99,30
1,52,90,0
1,62,105,0
1,62,0,90
1,52,0,0
1,55,0,0
1,52,99,30
1,55,110,0
1,59,105,0
1,36,0,60
1,40,94,0
1,40,0,330
1,40,95,30
1,59,0,90
1,52,0,0
1,55,0,0
1,40,0,30
1,43,96,0
1,55,87,0
1,50,99,0
1,59,88,0
1,59,0,450
1,50,0,0
1,55,0,0
1,43,0,30
1,55,95,0
1,36,99,0
1,52,97,0
1,59,100,0
1,59,0,90
1,52,0,0
1,55,0,0
1,55,100,30
1,52,90,0
1,60,99,0
1,60,0,30
1,52,0,0
1,55,0,0
1,60,96,30
1,55,107,0
1,52,97,0
1,52,0,270
1,36,0,0
1,60,0,0
1,55,0,0
1,55,89,30
1,36,94,0
1,52,88,0
1,59,97,0
1,52,0,30
1,55,0,0
1,59,0,30
1,52,89,0
1,55,102,0
1,60,102,0
1,60,0,30
1,55,0,0
1,52,0,0
1,60,92,30
1,55,102,0
1,52,96,0
1,52,0,30
1,55,0,0
1,60,0,0
1,52,94,30
1,59,97,0
1,55,107,0
1,55,0,30
1,59,0,0
1,52,0,0
1,60,93,30
1,55,100,0
1,52,94,0
1,52,0,30
1,55,0,30
1,60,0,0
1,55,103,0
1,52,97,0
1,62,104,0
1,62,0,90
1,55,0,0
1,52,0,30
1,55,104,0
1,59,99,0
1,52,97,0
1,36,0,60
1,40,100,0
1,40,0,360
1,52,0,0
1,59,0,0
1,55,0,0
1,55,100,0
1,59,96,0
1,52,93,0
1,40,95,0
1,52,0,90
1,55,0,0
1,59,0,0
1,40,0,30
1,43,98,0
1,55,92,0
1,59,93,0
1,50,102,0
1,59,0,420
1,50,0,30
1,55,0,0
1,60,100,30
1,57,95,0
1,64,101,0
1,41,104,0
1,43,0,30
1,64,0,60
1,60,0,0
1,57,0,0
1,60,95,30
1,57,90,0
1,65,98,0
1,65,0,30
1,60,0,0
1,57,0,30
1,65,103,0
1,60,108,0
1,57,99,0
1,57,0,270
1,60,0,0
1,65,0,30
1,41,0,0
1,55,99,0
1,43,96,0
1,64,107,0
1,59,99,0
1,64,0,60
1,65,105,0
1,65,0,30
1,59,0,0
1,55,0,0
1,59,94,30
1,62,102,0
1,59,94,0
1,65,103,0
1,59,0,30
1,59,0,0
1,65,0,30
1,62,0,0
1,62,101,0
1,59,97,0
1,59,92,0
1,65,104,0
1,65,0,30
1,59,0,0
1,59,0,0
1,62,0,0
1,59,95,30
1,65,97,0
1,62,104,0
1,59,96,0
1,65,104,0
1,65,0,30
1,59,0,0
1,62,0,30
1,59,0,0
1,65,0,0
1,55,99,0
1,67,104,0
1,59,95,0
1,62,107,0
1,62,0,90
1,67,0,0
1,59,0,0
1,55,0,0
1,60,103,30
1,55,98,0
1,64,97,0
1,43,0,60
1,36,99,0
1,55,0,150
1,64,0,30
1,60,0,0
1,55,92,0
1,64,88,0
1,60,90,0
1,60,0,150
1,64,0,0
1,55,0,0
1,60,104,30
1,64,101,0
1,55,103,0
1,62,90,0
1,62,0,30
1,55,0,0
1,64,0,30
1,60,0,0
1,55,88,0
1,55,0,30
1,62,93,30
1,56,105,0
1,52,94,0
1,40,88,0
1,52,0,30
1,36,0,0
1,62,0,30
1,60,93,0
1,52,89,0
1,52,0,30
1,60,0,0
1,56,0,0
1,62,98,30
1,56,108,0
1,52,94,0
1,52,0,30
1,62,0,30
1,60,93,0
1,52,95,0
1,52,0,30
1,60,0,0
1,56,0,0
1,56,105,30
1,52,99,0
1,62,101,0
1,62,0,30
1,52,0,0
1,56,0,0
1,56,105,30
1,64,105,0
1,52,93,0
1,52,0,90
1,64,0,0
1,56,0,0
1,57,99,30
1,52,88,0
1,60,101,0
1,40,0,60
1,45,97,0
1,52,0,60
1,52,15,60
1,52,0,30
1,60,0,0
1,57,0,0
1,57,102,30
1,52,95,0
1,60,100,0
1,45,0,30
1,45,87,30
1,52,0,60
1,52,90,0
1,52,0,30
1,60,0,0
1,57,0,0
1,57,102,30
1,52,95,0
1,60,98,0
1,52,0,30
1,52,86,30
1,52,0,30
1,60,0,0
1,57,0,0
1,45,0,30
1,38,93,0
1,57,98,0
1,53,102,0
1,62,101,0
1,53,0,30
1,62,0,30
1,60,98,0
1,53,91,0
1,53,0,30
1,60,0,0
1,57,0,0
1,57,99,30
1,62,102,0
1,53,100,0
1,60,92,0
1,60,0,30
1,62,0,30
1,53,0,0
1,53,88,0
1,60,89,0
1,60,0,30
1,53,0,0
1,57,0,0
1,57,100,30
1,62,107,0
1,53,91,0
1,53,0,30
1,62,0,0
1,57,0,0
1,57,102,30
1,64,107,0
1,53,98,0
1,53,0,30
1,64,0,60
1,57,0,0
1,53,95,30
1,59,98,0
1,55,95,0
1,62,93,0
1,38,0,60
1,43,97,0
1,55,0,60
1,53,0,0
1,62,0,30
1,59,0,0
1,55,28,0
1,53,28,0
1,53,0,30
1,55,0,0
1,59,89,0
1,55,97,0
1,62,84,0
1,55,0,60
1,59,0,0
1,59,82,0
1,55,93,0
1,55,0,30
1,62,0,30
1,43,0,0
1,59,0,0
1,53,95,0
1,55,95,0
1,59,95,0
1,62,89,0
1,41,104,0
1,55,0,60
1,53,0,0
1,55,80,0
1,55,0,30
1,62,0,0
1,59,0,0
1,59,99,90
1,55,97,0
1,62,93,0
1,62,0,30
1,55,0,0
1,59,0,0
1,41,0,30
1,53,95,0
1,40,95,0
1,59,98,0
1,55,97,0
1,62,94,0
1,53,0,120
1,55,0,30
1,62,0,0
1,59,0,0
1,59,102,30
1,55,105,0
1,62,98,0
1,62,0,30
1,55,0,0
