track,note,velocity,time
1,62,125,30
1,62,0,16
1,67,125,8
1,67,0,16
1,67,125,8
1,67,0,16
1,67,125,8
1,67,0,16
1,69,125,8
1,69,0,8
1,71,125,4
1,71,0,44
1,66,125,232
1,66,0,16
1,71,125,8
1,71,0,16
1,71,125,8
1,71,0,16
1,71,125,8
1,71,0,16
1,73,125,8
1,73,0,8
1,74,125,4
1,74,0,16
1,73,125,8
1,73,0,8
1,71,125,4
1,71,0,16
1,76,109,176
1,76,0,32
1,76,109,4
1,76,0,4
1,76,109,8
1,76,0,16
1,74,109,8
1,74,0,16
1,74,109,8
1,74,0,16
1,74,109,8
1,74,0,8
1,74,109,4
1,74,0,8
1,74,109,4
1,74,0,16
1,74,109,8
1,74,0,8
1,74,109,4
1,74,0,8
1,74,109,4
1,74,0,16
1,71,109,8
1,71,0,32
1,72,109,136
1,72,0,16
1,72,109,8
1,72,0,8
1,72,109,4
1,72,0,8
1,71,109,4
1,71,0,32
1,71,109,16
1,71,0,16
1,71,109,8
1,71,0,16
1,69,109,8
1,69,0,8
1,67,109,4
1,67,0,16
1,67,109,8
1,67,0,8
1,67,109,4
1,67,0,16
1,67,109,32
1,67,0,8
1,64,109,4
1,64,0,8
1,64,109,4
1,64,0,16
1,62,109,8
1,62,0,16
1,62,109,8
1,62,0,32
1,62,109,88
1,62,0,16
1,67,109,8
1,67,0,16
1,67,109,8
1,67,0,16
1,67,109,8
1,67,0,8
1,69,109,4
1,69,0,8
1,71,109,4
1,71,0,48
1,66,109,240
1,66,0,8
1,71,109,4
1,71,0,16
1,71,109,8
1,71,0,8
1,71,109,4
1,71,0,8
1,73,109,4
1,73,0,8
1,74,109,4
1,74,0,8
1,73,109,4
1,73,0,8
1,71,109,4
1,71,0,16
1,71,109,128
1,71,0,16
1,74,109,8
1,74,0,32
1,76,109,40
1,76,0,32
1,76,109,16
1,76,0,8
1,76,109,4
1,76,0,8
1,76,109,4
1,76,0,16
1,74,109,8
1,74,0,16
1,74,109,8
1,74,0,16
1,74,109,8
1,74,0,8
1,74,109,4
1,74,0,8
1,71,109,4
1,71,0,8
1,69,109,4
1,69,0,8
1,67,109,4
1,67,0,16
1,71,109,80
1,71,0,16
1,71,109,8
1,71,0,16
1,71,109,8
1,71,0,16
1,72,109,8
1,72,0,8
1,72,109,4
1,72,0,16
1,72,109,8
1,72,0,16
1,72,109,8
1,72,0,8
1,72,109,4
1,72,0,32
1,71,109,16
1,71,0,16
1,71,109,8
1,71,0,8
1,69,109,4
1,69,0,8
1,69,109,4
1,69,0,8
1,69,109,4
1,69,0,8
1,71,109,4
1,71,0,16
1,69,109,8
1,69,0,48
1,71,109,240
1,71,0,16
1,74,109,8
1,74,0,16
1,74,109,8
1,74,0,16
1,76,109,8
1,76,0,16
1,76,109,8
1,76,0,48
1,74,109,24
1,74,0,16
1,74,109,8
1,74,0,32
1,74,109,4
1,74,0,16
1,74,109,8
1,74,0,8
1,71,109,4
1,71,0,8
1,69,109,4
1,69,0,8
1,67,109,4
1,67,0,16
1,71,109,80
1,71,0,16
1,74,109,8
1,74,0,16
1,76,109,8
1,76,0,32
1,76,109,16
1,76,0,16
1,76,109,8
1,76,0,16
1,76,109,8
1,76,0,32
1,76,109,16
1,76,0,16
1,74,109,8
1,74,0,16
1,74,109,8
1,74,0,40
1,71,109,152
1,71,0,8
1,74,109,4
1,74,0,8
1,76,109,4
1,76,0,8
1,76,109,4
1,76,0,8
1,76,109,4
1,76,0,16
1,76,109,8
1,76,0,16
1,74,109,8
1,74,0,32
1,74,109,16
1,74,0,16
1,76,109,8
1,76,0,16
1,74,109,8
1,74,0,16
1,71,109,8
1,71,0,8
1,69,109,4
1,69,0,8
1,67,109,4
1,67,0,135
1,72,109,57
1,72,0,8
1,72,109,4
1,72,0,8
1,72,109,4
1,72,0,8
1,72,109,4
1,72,0,8
1,72,109,4
1,72,0,16
1,72,109,8
1,72,0,16
1,71,109,8
1,71,0,8
1,71,109,4
1,71,0,8
1,71,109,4
1,71,0,8
1,69,109,4
1,69,0,8
1,69,109,4
1,69,0,16
1,69,109,8
1,69,0,32
1,62,109,232
1,62,0,16
1,67,109,8
1,67,0,32
1,69,109,16
1,69,0,16
1,71,109,8
1,71,0,56
1,72,109,232
1,72,0,8
1,74,109,4
1,74,0,8
1,76,109,4
1,76,0,8
1,74,109,4
1,74,0,8
1,74,109,4
1,74,0,8
1,74,109,4
1,74,0,28
1,71,109,8
1,71,0,16
1,69,109,8
1,69,0,16
1,67,109,8
1,67,0,112
1,71,109,32
1,71,0,8
1,74,109,4
1,74,0,8
1,76,109,4
1,76,0,32
1,74,109,16
1,74,0,16
1,74,109,8
1,74,0,32
1,71,109,16
1,71,0,16
1,71,109,8
1,71,0,32
1,71,109,16
1,71,0,16
1,67,109,8
1,67,0,16
1,67,109,8
1,67,0,16
1,69,109,8
1,69,0,63
1,67,109,33
1,67,0,16
1,67,109,8
1,67,0,48
1,62,125,792
1,62,0,8
1,62,125,4
1,62,0,8
1,67,125,4
1,67,0,16
1,67,125,8
1,67,0,16
1,67,125,8
1,67,0,16
1,69,125,8
1,69,0,8
1,71,125,4
1,71,0,44
1,66,125,232
1,66,0,8
1,66,125,4
1,66,0,8
1,71,125,4
1,71,0,16
1,71,125,8
1,71,0,16
1,71,125,8
1,71,0,16
1,73,125,8
1,73,0,8
1,74,125,4
1,74,0,16
1,73,125,8
1,73,0,8
1,71,125,4
1,71,0,16
1,76,109,176
1,76,0,32
1,76,109,4
1,76,0,4
1,76,109,8
1,76,0,16
1,74,109,8
1,74,0,16
1,74,109,8
1,74,0,16
1,74,109,8
1,74,0,8
1,74,109,4
1,74,0,8
1,74,109,4
1,74,0,16
1,74,109,8
1,74,0,8
1,74,109,4
1,74,0,8
1,74,109,4
1,74,0,16
1,71,109,8
1,71,0,32
1,72,109,136
1,72,0,16
1,72,109,8
1,72,0,8
1,72,109,4
1,72,0,8
1,71,109,4
1,71,0,32
1,71,109,16
1,71,0,16
1,71,109,8
1,71,0,16
1,69,109,8
1,69,0,8
1,67,109,4
1,67,0,16
1,67,109,8
1,67,0,8
1,67,109,4
1,67,0,16
1,67,109,32
1,67,0,8
1,64,109,4
1,64,0,8
1,64,109,4
1,64,0,16
1,62,109,8
1,62,0,16
1,62,109,8
1,62,0,32
1,62,109,88
1,62,0,16
1,67,109,8
1,67,0,16
1,67,109,8
1,67,0,16
1,67,109,8
1,67,0,8
1,69,109,4
1,69,0,8
1,71,109,4
1,71,0,48
1,66,109,240
1,66,0,8
1,71,109,4
1,71,0,16
1,71,109,8
1,71,0,8
1,71,109,4
1,71,0,8
1,73,109,4
1,73,0,8
1,74,109,4
1,74,0,8
1,73,109,4
1,73,0,8
1,71,109,4
1,71,0,16
1,71,109,128
1,71,0,16
1,74,109,8
1,74,0,32
1,76,109,40
1,76,0,32
1,76,109,16
1,76,0,8
1,76,109,4
1,76,0,8
1,76,109,4
1,76,0,16
1,74,109,8
1,74,0,16
1,74,109,8
1,74,0,16
1,74,109,8
1,74,0,8
1,74,109,4
1,74,0,8
1,71,109,4
1,71,0,8
1,69,109,4
1,69,0,8
1,67,109,4
1,67,0,16
1,71,109,104
1,71,0,16
1,71,109,8
1,71,0,16
1,72,109,8
1,72,0,8
1,72,109,4
1,72,0,16
1,72,109,8
1,72,0,16
1,72,109,8
1,72,0,8
1,72,109,4
1,72,0,32
1,71,109,16
1,71,0,16
1,71,109,8
1,71,0,8
1,69,109,4
1,69,0,8
1,69,109,4
1,69,0,8
1,69,109,4
1,69,0,8
1,71,109,4
1,71,0,16
1,69,109,8
1,69,0,48
1,74,109,264
1,74,0,16
1,74,109,8
1,74,0,16
1,76,109,8
1,76,0,16
1,76,109,8
1,76,0,32
1,76,109,16
1,76,0,16
1,74,109,8
1,74,0,8
1,74,109,4
1,74,0,8
1,74,109,4
1,74,0,16
1,74,109,8
1,74,0,8
1,74,109,4
1,74,0,16
1,74,109,8
1,74,0,8
1,71,109,4
1,71,0,8
1,69,109,4
1,69,0,8
1,67,109,4
1,67,0,16
1,71,109,80
1,71,0,16
1,74,109,8
1,74,0,16
1,76,109,8
1,76,0,32
1,76,109,16
1,76,0,16
1,76,109,8
1,76,0,16
1,76,109,8
1,76,0,32
1,76,109,16
1,76,0,16
1,74,109,8
1,74,0,16
1,74,109,8
1,74,0,40
1,71,109,152
1,71,0,8
1,74,109,4
1,74,0,8
1,76,109,4
1,76,0,8
1,76,109,4
1,76,0,8
1,76,109,4
1,76,0,16
1,76,109,8
1,76,0,16
1,74,109,8
1,74,0,32
1,74,109,16
1,74,0,16
1,76,109,8
1,76,0,16
1,74,109,8
1,74,0,16
1,71,109,8
1,71,0,8
1,69,109,4
1,69,0,8
1,67,109,4
1,67,0,135
1,72,109,57
1,72,0,8
1,72,109,4
1,72,0,8
1,72,109,4
1,72,0,8
1,72,109,4
1,72,0,8
1,72,109,4
1,72,0,16
1,72,109,8
1,72,0,16
1,71,109,8
1,71,0,8
1,71,109,4
1,71,0,8
1,71,109,4
1,71,0,8
1,69,109,4
1,69,0,8
1,69,109,4
1,69,0,16
1,69,109,8
1,69,0,32
1,62,109,232
1,62,0,16
1,67,109,8
1,67,0,32
1,69,109,16
1,69,0,16
1,71,109,8
1,71,0,56
1,72,109,232
1,72,0,8
1,74,109,4
1,74,0,8
1,76,109,4
1,76,0,8
1,74,109,4
1,74,0,8
1,74,109,4
1,74,0,8
1,74,109,4
1,74,0,28
1,71,109,8
1,71,0,16
1,69,109,8
1,69,0,16
1,67,109,8
1,67,0,112
1,71,109,32
1,71,0,8
1,74,109,4
1,74,0,8
1,76,109,4
1,76,0,32
1,74,109,16
1,74,0,16
1,74,109,8
1,74,0,32
1,71,109,16
1,71,0,16
1,71,109,8
1,71,0,32
1,71,109,16
1,71,0,16
1,67,109,8
1,67,0,16
1,67,109,8
1,67,0,16
1,69,109,8
1,69,0,63
1,67,109,33
1,67,0,16
1,67,109,8
1,67,0,48
1,74,109,3936
1,74,0,16
1,74,109,8
1,74,0,16
1,76,109,8
1,76,0,16
1,76,109,8
1,76,0,48
1,74,109,24
1,74,0,16
1,74,109,8
1,74,0,32
1,74,109,4
1,74,0,16
1,74,109,8
1,74,0,8
1,71,109,4
1,71,0,8
1,69,109,4
1,69,0,8
1,67,109,4
1,67,0,16
1,71,109,80
1,71,0,16
1,74,109,8
1,74,0,16
1,76,109,8
1,76,0,32
1,76,109,16
1,76,0,16
1,76,109,8
1,76,0,16
1,76,109,8
1,76,0,32
1,76,109,16
1,76,0,16
1,74,109,8
1,74,0,16
1,74,109,8
1,74,0,40
1,76,109,224
1,76,0,16
1,74,109,8
1,74,0,32
1,74,109,16
1,74,0,16
1,76,109,8
1,76,0,16
1,74,109,8
1,74,0,16
1,71,109,8
1,71,0,8
1,69,109,4
1,69,0,8
1,67,109,4
1,67,0,135
1,72,109,81
1,72,0,8
1,72,109,4
1,72,0,8
1,72,109,4
1,72,0,16
1,72,109,8
1,72,0,32
1,71,109,16
1,71,0,8
1,69,109,4
1,69,0,8
1,69,109,4
1,69,0,16
1,69,109,8
1,69,0,32
1,62,109,232
1,62,0,16
1,67,109,8
1,67,0,32
1,69,109,16
1,69,0,16
1,71,109,8
1,71,0,56
1,72,109,232
1,72,0,8
1,74,109,4
1,74,0,8
1,76,109,4
1,76,0,8
1,74,109,4
1,74,0,8
1,74,109,4
1,74,0,8
1,74,109,4
1,74,0,28
1,71,109,8
1,71,0,16
1,69,109,8
1,69,0,16
1,67,109,8
1,67,0,112
1,74,109,44
1,74,0,8
1,76,109,4
1,76,0,32
1,74,109,16
1,74,0,16
1,74,109,8
1,74,0,32
1,71,109,16
1,71,0,16
1,71,109,8
1,71,0,32
1,71,109,16
1,71,0,16
1,67,109,8
1,67,0,16
1,67,109,8
1,67,0,16
1,69,109,8
1,69,0,63
1,67,109,33
1,67,0,16
1,67,109,8
1,67,0,48
1,71,109,648
1,71,0,16
1,74,109,8
1,74,0,16
1,76,109,8
1,76,0,32
1,79,109,16
1,79,0,32
1,74,109,16
1,74,0,32
1,74,109,16
1,74,0,16
1,74,109,8
1,74,0,32
1,71,109,16
1,71,0,16
1,69,109,8
1,69,0,135
1,67,109,105
1,67,0,24
1,69,109,0
1,69,0,72
1,67,109,0
1,67,0,16
1,67,109,8
1,67,0,48
1,67,109,216
1,67,0,16
1,69,109,8
1,69,0,48
1,67,109,24
1,67,0,16
1,67,109,8
1,67,0,48
1,67,109,216
1,67,0,16
1,69,109,8
1,69,0,48
1,67,109,24
1,67,0,16
1,67,109,8
1,67,0,48
1,67,109,216
1,67,0,16
1,69,109,8
1,69,0,48
1,67,109,24
1,67,0,16
1,67,109,8
1,67,0,48
1,67,109,216
1,67,0,16
1,69,109,8
1,69,0,48
1,67,109,24
1,67,0,16
1,67,109,8
1,67,0,48
2,59,125,0
2,62,125,0
2,59,0,116
2,62,0,0
2,59,125,4
2,59,0,20
2,69,125,4
2,69,0,10
2,62,125,2
2,62,0,10
2,69,125,2
2,69,0,20
2,62,125,4
2,59,125,0
2,67,125,0
2,62,0,80
2,59,0,0
2,67,0,0
2,64,125,16
2,64,0,10
2,62,125,2
2,62,0,10
2,59,125,2
2,59,0,20
2,57,125,4
2,57,0,20
2,55,125,4
2,55,0,20
2,55,125,4
2,59,125,0
2,55,0,80
2,59,0,0
2,55,125,16
2,55,0,20
2,59,125,4
2,59,0,10
2,62,125,2
2,62,0,10
2,69,125,2
2,69,0,10
2,62,125,2
2,62,0,10
2,69,125,2
2,69,0,20
2,62,125,4
2,59,125,0
2,67,125,0
2,62,0,60
2,59,0,0
2,67,0,0
2,59,125,12
2,59,0,10
2,62,125,2
2,62,0,10
2,64,125,2
2,64,0,10
2,62,125,2
2,62,0,10
2,59,125,2
2,59,0,20
2,57,125,4
2,57,0,20
2,55,125,4
2,55,0,20
2,59,125,4
2,62,125,0
2,59,0,40
2,62,0,0
2,62,125,32
2,62,0,20
2,59,125,4
2,62,125,0
2,67,125,0
2,59,0,20
2,62,0,0
2,67,0,0
2,67,125,4
2,67,0,20
2,67,125,4
2,67,0,20
2,69,125,4
2,69,0,10
2,67,125,2
2,62,125,0
2,71,125,0
2,67,0,52
2,62,0,0
2,71,0,0
2,50,125,32
2,50,0,20
2,55,125,4
2,55,0,10
2,57,125,2
2,57,0,10
2,59,125,2
2,59,0,20
2,62,125,4
2,62,0,20
2,67,125,4
2,67,0,20
2,62,125,4
2,59,125,0
2,66,125,0
2,62,0,40
2,59,0,0
2,66,0,0
2,66,125,32
2,66,0,20
2,62,125,4
2,66,125,0
2,71,125,0
2,62,0,20
2,66,0,0
2,71,0,0
2,71,125,4
2,71,0,20
2,71,125,4
2,71,0,20
2,73,125,4
2,73,0,10
2,71,125,2
2,66,125,0
2,74,125,0
2,71,0,22
2,66,0,0
2,74,0,0
2,73,125,2
2,73,0,10
2,71,125,2
2,71,0,20
2,52,125,4
2,52,0,20
2,54,125,4
2,54,0,20
2,57,125,4
2,57,0,20
2,59,125,4
2,59,0,20
2,62,125,4
2,62,0,20
2,72,109,52
2,67,109,0
2,76,109,0
2,72,0,34
2,67,0,0
2,76,0,0
2,76,109,2
2,76,0,10
2,76,109,2
2,76,0,20
2,72,109,4
2,67,109,0
2,74,109,0
2,72,0,20
2,67,0,0
2,74,0,0
2,74,109,4
2,74,0,20
2,74,109,4
2,74,0,20
2,74,109,4
2,74,0,20
2,71,109,4
2,67,109,0
2,74,109,0
2,71,0,20
2,67,0,0
2,74,0,0
2,74,109,4
2,74,0,20
2,71,109,4
2,71,0,40
2,59,109,32
2,59,0,20
2,62,109,4
2,62,0,20
2,59,109,4
2,59,0,20
2,66,109,28
2,62,109,0
2,72,109,0
2,66,0,30
2,62,0,0
2,72,0,0
2,72,109,6
2,72,0,10
2,66,109,2
2,62,109,0
2,71,109,0
2,66,0,40
2,62,0,0
2,71,0,0
2,71,109,8
2,71,0,20
