track,note,velocity,time
2,38,83,935
2,38,86,65
2,38,88,65
2,38,91,65
2,38,94,65
2,38,97,65
2,38,99,65
2,38,102,65
2,40,105,65
2,40,108,65
2,40,110,65
2,40,113,65
2,40,116,65
2,40,118,65
2,40,121,65
2,40,124,65
2,33,118,65
2,33,103,60
2,33,109,68
2,33,93,75
2,33,103,73
2,33,72,58
2,33,109,70
2,33,96,60
2,33,103,60
2,33,96,65
2,33,96,58
2,33,109,65
2,35,127,33
2,37,109,240
2,38,109,43
2,38,100,58
2,38,87,60
2,38,85,63
2,38,93,58
2,38,103,63
2,38,81,53
2,42,100,0
2,40,109,5
2,40,93,33
2,40,96,55
2,40,100,45
2,40,100,53
2,40,100,55
2,40,103,63
2,40,109,68
2,33,103,40
2,33,103,58
2,33,100,58
2,33,93,60
2,33,100,53
2,33,96,53
2,33,87,50
2,33,96,58
2,33,96,53
2,33,90,55
2,33,85,43
2,33,109,45
2,35,125,45
2,35,119,65
2,37,114,120
2,38,109,15
2,38,109,38
2,38,83,15
2,38,93,55
2,38,100,55
2,38,100,50
2,42,96,20
2,40,109,20
2,40,119,3
2,42,109,100
2,40,100,120
2,37,96,100
2,33,125,113
2,33,119,125
2,33,125,63
2,33,114,245
2,33,119,140
2,35,119,23
2,37,114,10
2,38,109,240
2,38,114,125
2,38,114,55
2,42,109,240
2,40,103,5
2,40,109,125
2,40,114,55
2,37,96,8
2,35,79,120
2,33,109,13
2,33,109,163
2,33,103,53
2,33,114,245
2,33,114,163
2,35,125,43
2,37,100,35
2,38,109,240
2,38,114,158
2,38,119,58
2,42,100,18
2,40,109,30
2,40,109,203
2,40,125,58
2,33,114,125
2,33,114,75
2,33,114,83
2,33,119,83
2,33,114,78
2,33,114,75
2,33,114,80
2,33,119,78
2,33,119,78
2,33,119,75
2,33,119,75
2,33,119,73
2,35,103,120
2,37,119,30
2,38,109,55
2,42,119,5
2,40,119,240
2,40,125,65
2,42,114,120
2,45,109,13
2,42,114,5
2,40,109,3
2,33,125,5
2,33,119,125
2,33,125,63
2,33,114,245
2,33,119,140
2,35,119,23
2,37,114,10
2,38,109,240
2,38,114,125
2,38,114,55
2,42,109,240
2,40,103,5
2,40,109,125
2,40,114,55
2,37,96,8
2,35,79,120
2,33,109,13
2,33,109,65
2,33,103,53
2,33,114,245
2,33,114,163
2,35,125,43
2,37,100,35
2,38,109,240
2,38,114,125
2,38,119,58
2,42,100,18
2,40,109,30
2,40,109,65
2,40,125,58
2,42,127,323
2,37,114,5
2,37,119,58
2,40,127,38
2,35,114,5
2,35,125,58
2,38,119,15
2,38,119,108
2,38,125,65
2,40,125,23
2,40,114,115
2,40,125,68
2,42,127,65
2,37,119,68
2,37,127,70
2,40,103,40
2,35,119,55
2,35,119,58
2,38,127,25
2,35,119,965
2,35,103,70
2,35,100,68
2,35,100,73
2,35,96,75
2,35,96,70
2,35,96,68
2,35,103,68
2,35,109,68
2,35,109,70
2,35,114,70
2,35,114,65
2,35,114,65
2,35,119,68
2,35,127,68
2,35,119,65
2,38,119,60
2,38,119,63
2,38,119,60
2,38,119,60
2,38,119,63
2,38,119,65
2,38,119,65
2,38,119,65
2,40,125,60
2,40,119,68
2,40,119,70
2,40,119,68
2,40,125,68
2,40,125,65
2,40,127,65
2,40,127,50
2,33,109,50
2,33,103,60
2,33,109,68
2,33,93,75
2,33,103,73
2,33,72,58
2,33,109,70
2,33,96,60
2,33,103,60
2,33,96,65
2,33,96,58
2,33,109,65
2,35,127,33
2,37,109,240
2,38,109,43
2,38,100,58
2,38,87,60
2,38,85,63
2,38,93,58
2,38,103,63
2,42,100,53
2,40,90,5
2,40,109,5
2,40,93,33
2,40,96,55
2,40,100,45
2,40,100,53
2,40,100,55
2,40,103,63
2,40,109,68
2,33,103,40
2,33,103,58
2,33,100,58
2,33,93,60
2,33,100,53
2,33,96,53
2,33,87,50
2,33,96,58
2,33,96,53
2,33,90,55
2,33,85,43
2,33,109,45
2,35,125,45
2,35,119,65
2,37,114,120
2,38,109,15
2,38,109,38
2,38,83,15
2,38,93,55
2,38,100,55
2,38,100,50
2,42,96,20
2,40,109,20
2,40,119,3
2,42,109,100
2,40,100,120
2,37,96,100
2,33,125,113
2,33,119,125
2,33,125,63
2,33,114,125
2,33,119,140
2,35,119,23
2,37,114,10
2,38,109,240
2,38,114,125
2,38,114,55
2,42,109,240
2,40,103,5
2,40,109,178
2,40,114,55
2,37,96,8
2,35,79,120
2,33,109,13
2,33,109,125
2,33,103,53
2,33,114,125
2,33,114,163
2,35,125,43
2,37,100,35
2,38,109,240
2,38,114,125
2,38,119,58
2,42,100,18
2,40,109,30
2,40,109,125
2,40,125,58
2,42,127,323
2,37,114,5
2,37,119,58
2,40,127,38
2,35,114,5
2,35,125,58
2,38,119,15
2,38,119,108
2,38,125,65
2,40,125,23
2,40,114,115
2,40,125,68
2,42,127,75
2,37,119,68
2,37,127,70
2,40,103,40
2,35,119,55
2,35,119,58
2,38,127,25
2,35,119,845
2,35,103,70
2,35,100,68
2,35,100,73
2,35,96,75
2,35,96,70
2,35,96,68
2,35,103,68
2,35,109,68
2,35,109,70
2,35,114,70
2,35,114,65
2,35,114,65
2,35,119,68
2,35,127,68
2,35,119,65
2,38,119,60
2,38,119,63
2,38,119,60
2,38,119,60
2,38,119,63
2,38,119,65
2,38,119,65
2,38,119,65
2,40,125,60
2,40,119,68
2,40,119,70
2,40,119,68
2,40,125,68
2,40,125,65
2,40,127,65
2,40,127,50
2,33,126,50
2,33,120,60
2,33,126,68
2,33,110,75
2,33,120,73
2,33,89,58
2,33,126,70
2,33,113,60
2,33,120,60
2,33,113,65
2,33,113,58
2,33,126,65
2,35,127,33
2,37,109,240
2,38,109,43
2,38,100,58
2,38,87,60
2,38,85,63
2,38,93,58
2,38,103,63
2,42,100,53
2,40,109,45
2,40,93,33
2,40,96,55
2,40,100,45
2,40,100,53
2,40,100,55
2,40,103,63
2,40,109,68
2,33,103,40
2,33,103,58
2,33,100,58
2,33,93,60
2,33,100,53
2,33,96,53
2,33,87,50
2,33,96,58
2,33,96,53
2,33,90,55
2,33,85,43
2,33,109,45
2,35,125,45
2,35,119,65
2,37,114,120
2,38,109,15
2,38,109,38
2,38,83,15
2,38,93,55
2,38,100,55
2,38,100,50
2,42,96,20
2,40,109,20
2,40,119,3
2,42,109,100
2,40,100,120
2,37,96,100
2,33,127,113
2,33,103,60
2,33,109,68
2,33,93,75
2,33,103,73
2,33,72,58
2,33,109,70
2,33,96,60
2,33,103,60
2,33,96,65
2,33,96,58
2,33,109,65
2,35,127,33
2,37,109,240
2,38,115,43
2,38,100,58
2,38,87,60
2,38,85,63
2,38,93,58
2,38,103,63
2,38,81,53
2,42,100,0
2,40,109,45
2,40,93,33
2,40,96,55
2,40,100,45
2,40,100,53
2,40,100,55
2,40,103,63
2,40,109,68
2,33,109,40
2,33,103,60
2,33,109,68
2,33,93,75
2,33,103,73
2,33,72,58
2,33,109,70
2,33,96,60
2,33,103,60
2,33,96,65
2,33,96,58
2,33,109,65
2,35,127,33
2,37,109,240
2,38,109,43
2,38,100,58
2,38,87,60
2,38,85,63
2,38,93,58
2,38,103,63
2,42,100,53
2,40,109,45
2,40,93,33
2,40,96,55
2,40,100,45
2,40,100,53
2,40,100,55
2,40,103,63
2,40,103,68
2,36,119,68
2,36,100,78
2,36,103,95
2,36,109,88
2,36,119,83
2,36,109,240
2,36,103,83
2,36,90,85
2,36,93,93
2,36,119,88
2,36,85,68
2,38,109,38
2,38,93,63
2,38,93,75
2,38,100,78
2,38,103,70
2,38,90,125
2,38,90,80
2,38,93,73
2,38,103,80
2,38,119,73
2,36,114,70
2,36,96,65
2,36,96,78
2,36,114,80
2,36,114,73
2,36,109,125
2,36,90,80
2,36,103,83
2,36,103,80
2,36,114,85
2,38,109,55
2,38,90,63
2,38,85,75
2,38,109,73
2,38,109,65
2,38,103,63
2,38,103,73
2,38,87,70
2,38,109,65
2,38,103,70
2,38,96,70
2,38,100,70
2,38,103,70
2,38,96,70
2,38,109,68
2,38,100,73
2,40,103,70
2,40,114,73
2,40,114,75
2,40,109,70
2,40,119,63
2,40,109,60
2,40,109,65
2,40,109,68
2,40,114,70
2,40,114,68
2,40,119,68
2,40,119,68
2,40,119,73
2,40,119,65
2,40,119,73
2,40,119,80
2,42,127,68
2,37,109,5
2,37,114,63
2,40,103,40
2,35,114,5
2,35,114,60
2,38,119,5
2,40,109,5
2,40,109,68
2,40,109,68
2,40,109,65
2,40,114,65
2,40,114,70
2,42,114,53
2,37,83,65
2,37,114,65
2,40,114,45
2,35,114,5
2,35,119,65
2,38,115,25
2,45,115,0
2,35,103,5
2,43,106,1327
2,38,124,1625
2,38,119,63
2,38,119,60
2,38,119,60
2,38,119,63
2,38,119,65
2,38,119,65
2,38,119,65
2,40,125,60
2,40,119,68
2,40,119,70
2,40,119,68
2,40,125,68
2,40,125,65
2,40,127,65
2,40,127,50
2,33,109,50
2,33,103,60
2,33,109,68
2,33,93,75
2,33,103,73
2,33,72,58
2,33,109,70
2,33,96,60
2,33,103,60
2,33,96,65
2,33,96,58
2,33,109,65
2,35,127,33
2,37,109,240
2,38,109,43
2,38,100,58
2,38,87,60
2,38,85,63
2,38,93,58
2,38,103,63
2,42,100,53
2,40,109,45
2,40,93,33
2,40,96,55
2,40,100,45
2,40,100,53
2,40,100,55
2,40,103,63
2,40,109,68
2,33,103,40
2,33,103,58
2,33,100,58
2,33,93,60
2,33,100,53
2,33,96,53
2,33,87,50
2,33,96,58
2,33,96,53
2,33,90,55
2,33,85,43
2,33,109,45
2,35,125,45
2,35,119,65
2,37,114,120
2,38,109,15
2,38,109,38
2,38,83,15
2,38,93,55
2,38,100,55
2,38,100,50
2,42,96,20
2,40,109,20
2,40,119,3
2,42,109,100
2,40,100,120
2,37,96,100
2,33,109,115
2,33,103,60
2,33,109,67
2,33,93,75
2,33,103,72
2,33,72,57
2,33,109,70
2,33,96,60
2,33,103,60
2,33,96,65
2,33,96,57
2,33,109,65
2,35,127,32
2,37,109,240
2,38,109,42
2,38,100,57
2,38,87,60
2,38,85,62
2,38,93,57
2,38,103,62
2,42,100,52
2,40,109,45
2,40,93,32
2,40,96,55
2,40,100,45
2,40,100,52
2,40,100,55
2,40,103,62
2,40,109,67
2,33,103,40
2,33,103,57
2,33,100,57
2,33,93,60
2,33,100,52
2,33,96,52
2,33,87,50
2,33,96,57
2,33,96,52
2,33,90,55
2,33,85,42
2,33,109,45
2,35,125,45
2,35,119,65
2,37,114,120
2,38,109,20
2,38,109,37
2,38,83,15
2,38,93,55
2,38,100,55
2,38,100,50
2,42,96,20
2,40,109,20
2,40,119,2
2,42,109,100
2,40,100,120
2,37,96,100
2,33,109,5
3,50,49,120
3,50,52,70
3,50,56,80
3,50,59,83
3,50,62,75
3,50,66,70
3,50,69,75
3,50,73,78
3,52,76,75
3,52,80,70
3,52,83,78
3,52,87,58
3,52,90,63
3,52,94,58
3,52,97,68
3,52,101,40
3,57,125,60
3,57,103,3
3,59,100,365
3,59,103,5
3,57,94,23
3,57,103,5
3,64,94,23
3,64,89,5
3,57,115,240
3,57,100,20
3,57,84,5
3,59,94,5
3,59,100,5
3,57,84,360
3,61,89,8
3,62,84,5
3,61,89,180
3,57,100,155
3,61,75,50
3,62,100,5
3,61,94,133
3,57,103,205
3,57,103,3
3,59,100,408
3,59,103,5
3,57,94,23
3,57,103,5
3,64,94,23
3,64,100,5
3,57,112,240
3,57,100,20
3,57,84,5
3,59,94,5
3,59,100,3
3,57,84,345
3,61,89,60
3,62,84,5
3,61,89,180
3,57,100,155
3,61,75,50
3,62,100,5
3,49,84,133
3,61,94,0
3,57,100,145
3,45,89,5
3,45,62,90
3,45,89,88
3,45,84,80
3,45,75,85
3,45,84,333
3,45,78,73
3,45,89,103
3,45,89,83
3,45,84,80
3,45,65,95
3,45,84,340
3,45,60,73
3,45,89,98
3,45,75,75
3,45,78,88
3,45,62,80
3,45,89,333
3,45,53,73
3,45,78,100
3,45,89,83
3,45,75,80
3,45,78,98
3,45,84,328
3,45,68,68
3,45,84,80
3,45,78,75
3,45,89,88
3,45,71,80
3,45,84,338
3,45,51,63
3,45,84,100
3,45,89,83
3,45,94,83
3,45,78,73
3,45,89,338
3,45,78,73
3,45,89,93
3,45,84,83
3,45,75,83
3,45,78,100
3,45,84,323
3,45,71,65
3,45,89,85
3,45,75,83
3,45,89,92
3,45,65,80
3,50,100,320
3,49,94,273
3,45,100,173
3,45,100,3
3,47,89,278
3,49,89,225
3,50,103,35
3,54,94,720
3,52,94,10
3,45,89,160
3,45,62,90
3,45,89,88
3,45,84,80
3,45,75,85
3,45,78,83
3,45,84,323
3,45,78,73
3,45,89,103
3,45,89,83
3,45,84,80
3,45,65,95
3,45,84,340
3,45,60,73
3,45,89,98
3,45,75,75
3,45,78,88
3,45,62,80
3,45,89,333
3,45,53,73
3,45,78,100
3,45,89,83
3,45,75,80
3,45,78,98
3,45,84,328
3,45,68,68
3,45,84,80
3,45,78,75
3,45,89,88
3,45,71,80
3,45,84,338
3,45,51,63
3,45,84,100
3,45,89,83
3,45,94,83
3,45,78,73
3,45,89,338
3,45,78,73
3,45,89,93
3,45,84,83
3,45,75,83
3,45,78,100
3,45,84,323
3,45,71,65
3,45,89,93
3,45,75,70
3,45,89,100
3,45,65,75
3,42,103,335
3,37,103,45
3,37,103,5
3,40,103,60
3,35,103,33
3,35,100,33
3,38,103,63
3,40,103,18
3,42,103,43
3,37,103,8
3,37,103,25
3,40,103,53
3,35,103,360
3,35,103,63
3,38,103,118
3,49,89,943
3,50,78,57
3,52,94,50
3,49,89,25
3,50,100,53
3,52,94,45
3,49,89,35
3,50,100,42
3,52,103,52
3,49,89,38
3,50,94,57
3,52,103,55
3,49,103,90
3,50,89,38
3,52,100,45
3,49,89,28
3,50,100,50
3,52,94,43
3,49,89,38
3,50,89,40
3,52,100,53
3,49,75,30
3,50,100,62
3,52,94,40
3,49,89,38
3,50,78,42
3,52,103,45
3,57,116,0
3,57,103,3
3,59,100,365
3,59,103,5
3,57,94,23
3,57,103,5
3,64,94,23
3,64,89,5
3,57,78,240
3,57,100,20
3,57,84,5
3,59,94,5
3,59,100,23
3,57,84,360
3,61,89,8
3,62,84,5
3,61,89,180
3,57,100,155
3,61,75,50
3,62,100,5
3,61,94,133
3,57,103,205
3,57,103,3
3,59,100,408
3,59,103,5
3,57,94,23
3,57,103,5
3,64,94,23
3,64,89,5
3,57,78,240
3,57,100,20
3,57,84,5
3,59,94,5
3,59,100,3
3,57,84,345
3,61,89,60
3,62,84,5
3,61,89,180
3,57,100,155
3,61,75,50
3,62,100,5
3,61,94,133
3,45,100,102
3,45,89,3
3,45,62,90
3,45,89,88
3,45,84,80
3,45,75,85
3,45,84,443
3,45,78,73
3,45,89,103
3,45,89,83
3,45,84,80
3,45,65,95
3,45,84,340
3,45,60,73
3,45,89,98
3,45,75,75
3,45,78,88
3,45,62,80
3,45,89,333
3,45,53,73
3,45,78,100
3,45,89,83
3,45,75,80
3,45,78,98
3,45,84,328
3,45,68,68
3,45,84,80
3,45,78,75
3,45,89,88
3,45,71,80
3,45,84,338
3,45,51,63
3,45,84,100
3,45,89,83
3,45,94,83
3,45,78,73
3,45,89,338
3,45,78,73
3,45,89,93
3,45,84,83
3,45,75,83
3,45,78,100
3,45,84,323
3,45,71,65
3,45,89,93
3,45,75,70
3,45,89,100
3,45,65,75
3,42,103,335
3,37,103,45
3,37,103,5
3,40,103,60
3,35,103,33
3,35,100,33
3,38,103,63
3,40,103,18
3,42,103,43
3,37,103,8
3,37,103,25
3,40,103,53
3,35,103,360
3,35,103,63
3,38,103,118
3,49,89,943
3,50,78,57
3,52,94,50
3,49,89,25
3,50,100,53
3,52,94,45
3,49,89,35
3,50,100,42
3,52,103,52
3,49,89,38
3,50,94,57
3,52,103,55
3,49,103,90
3,50,89,38
3,52,100,45
