track,note,velocity,time
7,71,108,480
7,71,0,28
7,71,100,2
7,72,112,31
7,71,0,1
7,72,0,48
7,72,108,10
7,71,108,59
7,72,0,3
7,71,0,35
7,71,105,23
7,71,0,57
7,69,111,3
7,69,0,73
7,76,100,586
7,77,99,30
7,76,0,1
7,77,0,28
7,79,112,3
7,77,106,60
7,79,0,5
7,77,0,73
7,77,105,11
7,77,0,60
7,76,95,0
7,76,0,23
7,76,112,9
7,76,0,87
7,72,103,573
7,72,0,22
7,72,102,8
7,72,0,16
7,72,108,14
7,72,0,41
7,72,102,18
7,72,0,29
7,71,111,2
7,71,0,52
7,71,112,8
7,71,0,48
7,71,97,9
7,69,112,31
7,71,0,2
7,69,0,54
7,69,103,126
7,69,0,124
7,71,105,54
7,69,110,30
7,71,0,1
7,69,0,53
7,69,108,8
7,69,0,55
7,67,107,3
7,67,0,25
7,67,109,7
7,67,0,108
7,72,110,941
7,72,0,44
7,72,103,19
7,72,0,28
7,71,111,1
7,71,0,63
7,71,98,18
7,71,0,35
7,69,112,0
7,69,0,38
7,69,102,20
7,69,0,27
7,69,108,40
7,67,104,62
7,69,0,6
7,67,0,60
7,76,103,526
7,76,0,29
7,77,108,2
7,79,98,26
7,77,0,5
7,77,108,46
7,79,0,1
7,77,0,70
7,77,110,62
7,77,0,94
7,76,100,2
7,76,0,27
7,76,110,10
7,76,0,81
7,72,105,511
7,72,0,21
7,72,101,8
7,72,0,20
7,72,109,12
7,72,0,45
7,71,92,9
7,71,0,19
7,71,103,18
7,71,0,33
7,71,107,12
7,71,0,23
7,71,105,12
7,71,0,32
7,69,105,0
7,69,0,63
7,69,108,23
7,69,0,43
7,69,105,20
7,69,0,47
7,69,107,18
7,69,0,35
7,69,106,24
7,69,0,63
7,69,106,98
7,67,106,79
7,69,0,2
7,67,0,25
7,67,108,6
7,67,0,104
7,81,106,977
7,81,0,47
7,81,105,9
7,81,0,26
7,81,113,10
7,81,0,31
7,81,113,24
7,81,0,80
7,74,110,103
7,74,0,26
7,74,106,29
7,76,110,121
7,74,0,3
7,76,0,117
7,77,106,1
7,77,0,85
7,79,109,216
7,79,0,45
7,79,102,15
7,79,0,58
7,74,109,3
7,76,97,119
7,74,0,1
7,76,0,63
7,69,107,0
7,69,0,138
7,77,110,558
7,77,0,40
7,77,101,9
7,77,0,22
7,77,110,10
7,77,0,68
7,77,109,45
7,77,0,23
7,77,105,12
7,77,0,85
7,76,110,3
7,74,102,64
7,76,0,3
7,72,104,57
7,74,0,3
7,67,110,54
7,72,0,6
7,67,0,184
7,72,105,889
7,72,0,38
7,72,111,19
7,69,94,56
7,72,0,4
7,67,113,8
7,69,0,7
7,67,0,182
7,72,108,653
7,72,0,86
7,72,97,22
7,72,0,22
7,72,106,9
7,72,0,30
7,67,107,5
7,67,0,139
7,72,108,988
7,72,0,35
7,72,100,7
7,72,0,22
7,72,112,9
7,72,0,32
7,71,108,5
7,71,0,39
7,71,108,14
7,71,0,62
7,69,105,2
7,69,0,58
7,67,111,5
7,67,0,39
7,67,103,9
7,67,0,66
7,76,100,567
7,77,99,30
7,76,0,1
7,77,0,28
7,79,112,3
7,77,106,60
7,79,0,5
7,77,0,46
7,77,105,9
7,77,0,82
7,76,95,7
7,76,0,23
7,76,107,9
7,76,0,87
7,72,103,573
7,72,0,22
7,72,102,8
7,72,0,16
7,72,108,14
7,72,0,41
7,72,102,18
7,72,0,29
7,71,111,2
7,71,0,52
7,71,112,8
7,71,0,48
7,69,103,9
7,69,0,35
7,69,112,22
7,69,0,56
7,71,111,221
7,71,0,61
7,69,111,1
7,69,0,41
7,69,115,16
7,67,107,122
7,69,0,3
7,67,0,101
7,67,106,16
7,67,0,117
7,72,110,810
7,72,0,44
7,72,103,19
7,72,0,28
7,71,111,1
7,71,0,63
7,71,98,18
7,71,0,35
7,69,112,0
7,69,0,38
7,69,102,29
7,69,0,54
7,67,108,4
7,67,0,50
7,67,104,12
7,67,0,66
7,76,103,526
7,76,0,29
7,77,108,2
7,79,98,26
7,77,0,5
7,77,108,46
7,79,0,1
7,77,0,70
7,77,110,36
7,76,100,91
7,77,0,3
7,76,0,24
7,76,110,10
7,76,0,81
7,72,105,542
7,72,0,21
7,72,101,8
7,72,0,20
7,72,109,12
7,71,107,63
7,72,0,2
7,71,0,41
7,71,107,11
7,71,0,23
7,71,105,12
7,71,0,71
7,71,105,11
7,71,0,43
7,69,108,0
7,69,0,63
7,71,106,198
7,69,111,58
7,71,0,3
7,69,0,41
7,69,114,19
7,67,108,51
7,69,0,2
7,67,0,29
7,67,106,9
7,67,0,93
7,81,106,1012
7,81,0,28
7,81,105,3
7,81,0,26
7,81,113,10
7,81,0,94
7,74,113,24
7,74,0,45
7,74,110,15
7,74,0,108
7,74,106,67
7,76,110,71
7,74,0,4
7,77,106,104
7,76,0,1
7,77,0,84
7,79,102,279
7,79,0,22
7,79,102,6
7,79,0,22
7,74,109,11
7,76,106,119
7,74,0,1
7,76,0,63
7,69,107,0
7,69,0,138
7,77,110,558
7,77,0,40
7,77,101,9
7,77,0,22
7,77,110,10
7,77,0,68
7,77,109,45
7,77,0,23
7,77,105,12
7,77,0,85
7,76,110,3
7,74,102,64
7,76,0,3
7,72,104,57
7,74,0,3
7,67,110,29
7,72,0,5
7,67,0,107
7,72,105,992
7,72,0,38
7,72,111,19
7,67,113,65
7,72,0,3
7,67,0,138
7,72,108,704
7,72,0,86
7,72,97,22
7,72,0,22
7,72,106,9
7,72,0,30
7,67,107,5
7,67,0,139
7,81,106,4840
7,81,0,28
7,81,105,3
7,81,0,26
7,81,113,10
7,81,0,42
7,81,113,12
7,81,0,120
7,74,110,4
7,74,0,108
7,74,106,67
7,76,110,71
7,74,0,4
7,77,106,104
7,76,0,1
7,77,0,84
7,79,102,279
7,79,0,22
7,79,102,6
7,79,0,22
7,81,109,11
7,81,0,120
7,76,106,55
7,76,0,64
7,69,107,1
7,69,0,138
7,77,110,501
7,77,0,40
7,77,101,9
7,77,0,22
7,77,110,10
7,77,0,68
7,77,109,45
7,77,0,36
7,77,105,31
7,76,110,113
7,77,0,1
7,74,102,63
7,76,0,3
7,74,0,60
7,72,104,0
7,72,0,60
7,67,110,1
7,67,0,112
7,72,105,903
7,72,0,38
7,72,111,19
7,69,91,52
7,72,0,3
7,67,113,10
7,69,0,6
7,67,0,183
7,72,108,656
7,72,0,86
7,72,97,22
7,72,0,22
7,72,106,9
7,72,0,30
7,67,107,5
7,67,0,139
7,76,102,644
7,76,0,56
7,79,103,0
7,81,107,56
7,79,0,6
7,79,102,298
7,81,0,9
7,76,96,350
7,79,0,10
7,74,98,55
7,76,0,2
7,74,0,99
7,72,103,110
7,72,0,53
7,72,103,7
7,72,0,27
7,67,107,0
7,67,0,139
7,74,100,647
7,76,108,52
7,74,0,7
7,76,0,56
7,72,105,2
7,72,0,255
7,75,94,1422
7,74,104,58
7,75,0,7
7,72,97,176
7,74,0,4
7,72,0,259
8,45,78,2354
8,45,0,59
8,43,70,1
8,43,0,50
8,40,80,10
8,40,0,13
8,36,80,13
8,36,0,154
8,36,75,26
8,36,0,28
8,40,83,32
8,40,0,212
8,33,75,28
8,33,0,151
8,33,68,29
8,33,0,23
8,31,78,37
8,33,77,120
8,31,0,6
8,33,0,51
8,35,63,3
8,35,0,43
8,36,80,17
8,36,0,167
8,38,69,13
8,38,0,29
8,40,77,31
8,40,0,213
8,33,79,27
8,33,0,140
8,33,76,40
8,33,0,27
8,31,79,33
8,31,0,117
8,26,73,3
8,26,0,58
8,31,76,2
8,31,0,37
8,36,80,23
8,36,0,167
8,38,69,13
8,38,0,29
8,40,77,31
8,40,0,213
8,33,75,27
8,33,0,151
8,33,68,29
8,33,0,23
8,31,78,37
8,31,0,151
8,33,63,29
8,33,0,25
8,36,80,35
8,36,0,167
8,38,69,13
8,38,0,29
8,40,77,31
8,40,0,213
8,33,75,27
8,33,0,151
8,33,68,29
8,33,0,23
8,31,78,37
8,31,0,60
8,40,61,0
8,40,0,53
8,38,77,7
8,38,0,52
8,31,68,8
8,31,0,36
8,36,80,24
8,36,0,154
8,38,69,26
8,38,0,28
8,40,83,32
8,40,0,212
8,33,75,28
8,33,0,151
8,33,68,29
8,33,0,23
8,31,78,37
8,33,77,120
8,31,0,6
8,33,0,51
8,35,63,3
8,35,0,43
8,36,80,17
8,36,0,154
8,38,69,26
8,38,0,28
8,40,83,32
8,40,0,212
8,33,75,28
8,33,0,151
8,33,68,29
8,33,0,23
8,31,78,37
8,38,77,120
8,31,0,6
8,38,0,51
8,31,63,3
8,31,0,43
8,36,80,17
8,36,0,167
8,36,69,13
8,36,0,29
8,40,77,31
8,40,0,213
8,33,75,27
8,33,0,151
8,33,68,29
8,33,0,23
8,31,78,37
8,31,0,115
8,33,74,6
8,33,0,46
8,35,71,13
8,35,0,46
8,36,80,14
8,36,0,167
8,38,69,13
8,38,0,29
8,40,77,31
8,40,0,213
8,33,75,27
8,33,0,151
8,33,68,29
8,33,0,23
8,31,78,37
8,31,0,60
8,40,61,0
8,40,0,53
8,38,77,7
8,38,0,52
8,31,68,8
8,31,0,36
8,36,80,24
8,36,0,154
8,38,69,26
8,38,0,28
8,40,83,32
8,40,0,212
8,33,75,28
8,33,0,151
8,33,68,29
8,33,0,23
8,31,78,37
8,38,77,120
8,31,0,6
8,38,0,51
8,31,63,3
8,31,0,43
8,36,80,17
8,36,0,154
8,38,69,26
8,38,0,28
8,40,83,32
8,40,0,212
8,33,75,28
8,33,0,151
8,33,68,29
8,33,0,23
8,31,78,37
8,36,77,120
8,31,0,6
8,36,0,48
8,31,74,6
8,31,0,43
8,29,77,17
8,29,0,143
8,29,66,37
8,29,0,28
8,29,78,32
8,29,0,94
8,29,76,26
8,29,0,102
8,31,78,18
8,31,0,135
8,31,69,45
8,31,0,26
8,31,80,34
8,31,0,115
8,38,76,5
8,38,0,58
8,31,68,2
8,31,0,50
8,36,75,10
8,36,0,174
8,31,67,6
8,31,0,46
8,28,78,14
8,28,0,102
8,28,71,18
8,28,0,56
8,31,72,4
8,31,0,38
8,33,80,22
8,33,0,140
8,33,70,40
8,33,0,35
8,36,73,25
8,36,0,53
8,38,67,7
8,38,0,56
8,40,78,4
8,40,0,58
8,43,71,2
8,43,0,40
8,38,76,20
8,38,0,140
8,38,77,40
8,38,0,25
8,38,79,35
8,33,72,180
8,38,0,3
8,33,0,27
8,38,76,30
8,38,0,140
8,38,77,40
8,38,0,25
8,38,79,35
8,38,0,165
8,38,72,15
8,38,0,35
8,43,80,25
8,43,0,105
8,43,77,15
8,43,0,29
8,43,72,31
8,43,0,28
8,41,80,32
8,41,0,97
8,41,66,23
8,41,0,26
8,41,76,34
8,41,0,26
8,40,77,34
8,40,0,94
8,40,72,26
8,40,0,30
8,40,65,30
8,40,0,35
8,38,79,25
8,38,0,93
8,38,73,27
8,38,0,88
8,36,80,32
8,36,0,154
8,31,75,26
8,31,0,28
8,28,83,32
8,28,0,161
8,31,79,19
8,31,0,25
8,33,75,35
8,33,0,151
8,33,68,29
8,33,0,23
8,31,78,37
8,33,77,120
8,31,0,6
8,33,0,51
8,35,63,3
8,35,0,43
8,36,80,17
8,36,0,167
8,36,69,13
8,36,0,29
8,28,77,31
8,28,0,149
8,28,63,31
8,28,0,24
8,33,79,36
8,33,0,140
8,33,76,40
8,33,0,27
8,31,79,33
8,31,0,55
8,33,73,5
8,33,0,49
8,28,73,11
8,28,0,58
8,25,76,2
8,25,0,37
8,36,80,23
8,36,0,167
8,38,69,13
8,38,0,29
8,40,77,31
8,40,0,213
8,33,75,27
8,33,0,151
8,33,68,29
8,33,0,23
8,31,78,37
8,31,0,151
8,33,63,29
8,33,0,25
8,36,80,35
8,36,0,167
8,38,69,13
8,38,0,29
8,40,77,31
8,40,0,213
8,33,75,27
8,33,0,151
8,33,68,29
8,33,0,23
8,31,78,37
8,31,0,60
8,40,61,0
8,40,0,53
8,38,77,7
8,38,0,52
8,31,68,8
8,31,0,36
8,36,80,24
8,36,0,154
8,38,69,26
8,38,0,28
8,40,83,32
8,40,0,212
8,33,75,28
8,33,0,151
8,33,68,29
8,33,0,23
8,31,78,37
8,33,77,120
8,31,0,6
8,33,0,51
8,35,63,3
8,35,0,43
8,36,80,17
8,36,0,154
8,38,69,26
8,38,0,28
8,40,83,32
8,40,0,212
8,33,75,28
8,33,0,151
8,33,68,29
8,33,0,23
8,31,78,37
8,38,77,120
8,31,0,6
8,38,0,51
8,31,63,3
8,31,0,43
8,36,80,17
8,36,0,167
8,36,69,13
8,36,0,29
8,40,77,31
8,40,0,213
8,33,75,27
8,33,0,151
8,33,68,29
8,33,0,23
8,31,78,37
8,31,0,115
8,33,74,6
8,33,0,46
8,35,71,13
8,35,0,46
8,36,80,14
8,36,0,167
8,38,69,13
8,38,0,29
8,40,77,31
8,40,0,213
8,33,75,27
8,33,0,151
8,33,68,29
8,33,0,23
8,31,78,37
8,31,0,60
8,40,61,0
8,40,0,53
8,38,77,7
8,38,0,52
8,31,68,8
8,31,0,36
8,36,80,24
8,36,0,154
8,38,69,26
8,38,0,28
8,40,83,32
8,40,0,212
8,33,75,28
8,33,0,151
8,33,68,29
8,33,0,23
8,31,78,37
8,38,77,120
8,31,0,6
8,38,0,51
8,31,63,3
8,31,0,43
8,36,80,17
8,36,0,154
8,38,69,26
8,38,0,28
8,40,83,32
8,40,0,212
8,33,75,28
8,33,0,151
8,33,68,29
8,33,0,23
8,31,78,37
8,36,77,120
8,31,0,6
8,36,0,48
8,31,74,6
8,31,0,43
8,29,77,17
8,29,0,143
8,29,66,37
8,29,0,28
8,29,78,32
8,29,0,94
8,29,76,26
8,29,0,102
8,31,78,18
8,31,0,135
8,31,69,45
8,31,0,26
8,31,80,34
8,31,0,115
8,38,76,5
8,38,0,58
8,31,68,2
8,31,0,50
8,36,75,10
8,36,0,174
8,31,67,6
8,31,0,46
8,28,78,14
8,28,0,102
8,28,71,18
8,28,0,56
8,31,72,4
8,31,0,38
8,33,80,22
8,33,0,140
8,33,70,40
8,33,0,35
8,36,73,25
8,36,0,53
8,38,67,7
8,38,0,56
8,40,78,4
8,40,0,58
8,43,71,2
8,43,0,40
8,38,76,20
8,38,0,140
8,38,77,40
8,38,0,25
8,38,79,35
8,33,72,180
8,38,0,3
8,33,0,27
8,38,76,30
8,38,0,140
8,38,77,40
8,38,0,25
8,38,79,35
8,38,0,165
8,38,72,15
8,38,0,35
8,43,80,25
8,43,0,105
8,43,77,15
8,43,0,29
8,43,72,31
8,43,0,28
8,41,80,32
8,41,0,97
8,41,66,23
8,41,0,26
8,41,76,34
8,41,0,26
8,40,77,34
8,40,0,94
8,40,72,26
8,40,0,30
8,40,65,30
8,40,0,35
8,38,79,25
8,38,0,93
8,38,73,27
8,38,0,88
8,36,80,32
8,36,0,154
8,31,75,26
8,31,0,28
8,28,83,32
8,28,0,161
8,31,79,19
8,31,0,25
8,33,75,35
8,33,0,151
8,33,68,29
8,33,0,23
8,31,78,37
8,33,77,120
8,31,0,6
8,33,0,51
8,35,63,3
8,35,0,43
8,36,80,17
8,36,0,167
8,36,69,13
8,36,0,29
8,28,77,31
8,28,0,149
8,28,63,31
8,28,0,24
8,33,79,36
8,33,0,140
8,33,76,40
8,33,0,27
8,31,79,33
8,31,0,55
8,33,73,5
8,33,0,49
8,28,73,11
8,28,0,58
8,25,76,2
8,25,0,37
8,36,80,23
8,36,0,167
8,36,69,13
8,36,0,29
8,40,77,31
8,40,0,171
8,31,66,9
8,31,0,34
8,33,75,26
8,33,0,151
8,33,68,29
8,33,0,23
8,31,78,37
8,31,0,115
8,33,74,6
8,33,0,46
8,35,71,13
8,35,0,46
8,36,80,14
8,36,0,167
8,31,69,13
8,31,0,29
8,28,77,31
8,28,0,105
8,28,77,15
8,28,0,63
8,33,75,57
8,33,0,151
8,33,68,29
8,33,0,23
8,31,78,37
8,31,0,60
8,40,61,0
8,40,0,53
