track,note,velocity,time
1,43,96,1566
1,43,85,184
1,43,91,21
1,43,82,184
1,43,96,21
1,43,83,184
1,43,93,21
1,38,91,156
1,40,83,21
1,43,96,21
1,43,85,184
1,43,91,21
1,43,82,184
1,43,96,21
1,43,83,184
1,40,83,156
1,38,91,21
1,35,83,21
1,31,96,21
1,31,85,184
1,31,91,21
1,31,96,319
1,31,83,184
1,31,93,21
1,33,91,156
1,35,96,156
1,35,85,184
1,35,91,21
1,35,96,319
1,35,83,184
1,35,93,21
1,42,91,156
1,35,83,21
1,36,96,21
1,36,85,184
1,36,91,21
1,38,82,184
1,43,96,21
1,43,83,184
1,43,93,21
1,38,96,319
1,38,85,184
1,38,91,21
1,36,96,319
1,36,83,184
1,36,83,156
1,35,91,21
1,33,83,21
1,31,96,21
1,31,85,184
1,31,91,21
1,31,96,319
1,31,83,184
1,31,93,21
1,33,91,156
1,35,96,156
1,35,85,184
1,35,91,21
1,35,96,319
1,35,83,184
1,35,93,21
1,42,91,156
1,35,83,21
1,36,96,21
1,36,85,184
1,36,91,21
1,38,82,184
1,43,96,21
1,43,83,184
1,43,93,21
1,36,96,319
1,36,85,184
1,36,91,21
1,38,96,319
1,38,93,156
1,38,93,156
1,38,91,156
1,33,83,21
1,38,96,21
1,38,93,156
1,38,91,156
1,37,96,156
1,38,82,21
1,40,96,21
1,40,83,184
1,38,93,21
1,38,83,184
1,31,96,21
1,31,85,184
1,31,91,21
1,40,96,319
1,40,83,184
1,36,93,21
1,31,96,319
1,31,85,184
1,31,91,21
1,31,82,184
1,40,96,21
1,38,93,319
1,38,83,184
1,36,96,21
1,36,85,184
1,36,91,21
1,43,82,184
1,36,96,21
1,36,83,184
1,36,93,21
1,43,91,156
1,36,83,21
1,38,96,21
1,38,85,184
1,38,91,21
1,38,82,184
1,31,96,21
1,31,83,184
1,31,93,21
1,35,96,319
1,35,85,184
1,35,91,21
1,42,96,156
1,35,82,21
1,36,96,21
1,36,83,184
1,36,93,21
1,43,96,319
1,43,85,184
1,43,91,21
1,33,96,156
1,35,82,21
1,36,96,21
1,35,93,319
1,33,96,319
1,36,91,319
1,36,96,156
1,38,82,21
1,43,96,21
1,43,83,184
1,43,93,21
1,43,83,184
1,43,96,21
1,43,85,184
1,43,91,21
1,38,96,156
1,40,82,21
1,43,96,21
1,43,83,184
1,43,93,21
1,43,83,184
1,43,96,21
1,43,85,184
1,40,84,157
1,38,96,20
1,35,82,21
1,31,96,21
1,31,83,184
1,31,93,21
1,31,96,319
1,31,85,184
1,31,91,21
1,33,96,156
1,35,96,156
1,35,83,184
1,35,93,21
1,35,96,319
1,35,85,184
1,35,91,21
1,42,96,156
1,35,82,21
1,36,96,21
1,36,83,184
1,36,93,21
1,38,83,184
1,43,96,21
1,43,85,184
1,43,91,21
1,38,96,319
1,38,83,184
1,38,93,21
1,36,96,319
1,36,85,184
1,36,84,157
1,35,96,20
1,33,82,21
1,31,96,21
1,31,83,184
1,31,93,21
1,31,96,319
1,31,85,184
1,31,91,21
1,33,96,156
1,35,96,156
1,35,83,184
1,35,93,21
1,35,96,319
1,35,85,184
1,35,91,21
1,42,96,156
1,35,82,21
1,36,96,21
1,36,83,184
1,36,93,21
1,38,83,184
1,43,96,21
1,43,85,184
1,43,91,21
1,36,96,319
1,36,83,184
1,36,93,21
1,38,96,319
1,38,93,156
1,38,91,156
1,38,96,156
1,33,82,21
1,38,96,21
1,38,93,156
1,38,93,156
1,37,91,156
1,38,83,21
1,40,96,21
1,40,85,184
1,38,91,21
1,38,82,184
1,31,96,21
1,31,83,184
1,31,93,21
1,40,96,319
1,40,85,184
1,36,91,21
1,31,96,319
1,31,83,184
1,31,93,21
1,31,83,184
1,40,96,21
1,38,91,319
1,38,82,184
1,36,96,21
1,36,83,184
1,36,93,21
1,43,83,184
1,36,96,21
1,36,85,184
1,36,91,21
1,43,96,156
1,36,82,21
1,38,96,21
1,38,83,184
1,38,93,21
1,38,83,184
1,31,96,21
1,31,85,184
1,31,91,21
1,35,96,319
1,35,83,184
1,35,93,21
1,42,91,156
1,35,83,21
1,36,96,21
1,36,85,184
1,36,91,21
1,43,96,319
1,43,83,184
1,43,93,21
1,33,91,156
1,35,83,21
1,36,96,21
1,35,91,319
1,33,96,319
1,36,93,319
1,36,91,156
1,38,83,21
1,43,96,21
1,43,85,184
1,43,91,21
1,43,82,184
1,43,96,21
1,43,83,184
1,43,93,21
1,38,91,156
1,40,83,21
1,43,96,21
1,43,85,184
1,43,91,21
1,43,82,184
1,43,96,21
1,43,83,184
1,40,83,156
1,38,91,21
1,35,83,21
1,31,96,21
1,31,85,184
1,31,91,21
1,31,96,319
1,31,83,184
1,31,93,21
1,33,91,156
1,35,96,156
1,35,85,184
1,35,91,21
1,35,96,319
1,35,83,184
1,35,93,21
1,42,91,156
1,35,83,21
1,36,96,21
1,36,85,184
1,36,91,21
1,38,82,184
1,43,96,21
1,43,83,184
1,43,93,21
1,38,96,319
1,38,85,184
1,38,91,21
1,36,96,319
1,36,83,184
1,36,83,156
1,35,91,21
1,33,83,21
1,31,96,21
1,31,85,184
1,31,91,21
1,31,96,319
1,31,83,184
1,31,93,21
1,33,91,156
1,35,96,156
1,35,85,184
1,35,91,21
1,35,96,319
1,35,83,184
1,35,93,21
1,42,91,156
1,35,83,21
1,36,96,21
1,36,85,184
1,36,91,21
1,38,82,184
1,43,96,21
1,43,83,184
1,43,93,21
1,36,96,319
1,36,85,184
1,36,91,21
1,38,96,319
1,38,93,156
1,38,93,156
1,38,91,156
1,33,83,21
1,38,96,21
1,38,93,156
1,38,91,156
1,37,96,156
1,38,82,21
1,40,96,21
1,40,83,184
1,38,93,21
1,38,83,184
1,31,96,21
1,31,85,184
1,31,91,21
1,40,96,319
1,40,83,184
1,36,93,21
1,31,96,319
1,31,85,184
1,31,91,21
1,31,82,184
1,40,96,21
1,38,93,319
1,38,83,184
1,36,96,21
1,36,85,184
1,36,91,21
1,43,82,184
1,36,96,21
1,36,83,184
1,36,93,21
1,43,91,156
1,36,83,21
1,38,96,21
1,38,85,184
1,38,91,21
1,38,82,184
1,31,96,21
1,31,83,184
1,31,93,21
1,35,96,319
1,35,85,184
1,35,91,21
1,42,96,156
1,35,82,21
1,36,96,21
1,36,83,184
1,36,93,21
1,43,96,319
1,43,85,184
1,43,91,21
1,33,96,156
1,35,82,21
1,36,96,21
1,35,93,319
1,33,96,319
1,36,91,319
1,36,96,156
1,38,82,21
1,43,96,21
1,43,83,184
1,43,93,21
1,43,83,184
1,43,96,21
1,43,85,184
1,43,91,21
1,38,96,156
1,40,82,21
1,43,96,21
1,43,83,184
1,43,93,21
1,43,83,184
1,43,96,21
1,43,85,184
1,40,84,157
1,38,96,20
1,35,82,21
1,43,96,21
1,43,83,184
1,43,93,21
1,36,96,319
1,35,91,319
1,35,96,156
1,38,82,21
1,38,96,21
1,38,93,156
1,38,93,156
1,38,91,156
1,38,96,156
1,38,82,21
1,42,93,21
1,42,85,21
1,45,91,21
1,36,96,319
1,36,83,184
1,36,93,21
1,36,96,319
1,36,85,184
1,36,91,21
1,36,96,156
1,38,82,21
1,31,96,21
1,31,83,184
1,31,93,21
1,38,83,184
1,31,96,21
1,31,85,184
1,31,91,21
1,33,96,156
1,35,82,21
1,36,96,21
1,36,83,184
1,36,93,21
1,36,96,0
1,36,85,120
1,36,91,0
1,36,96,120
1,38,82,0
1,31,96,0
1,31,83,0
1,31,93,21
1,38,83,0
1,31,96,21
1,31,85,60
1,31,91,21
1,33,96,60
1,35,82,21
1,36,96,21
1,36,83,120
1,36,93,0
1,36,96,0
1,36,85,0
1,36,91,21
1,36,96,120
1,38,82,0
1,31,96,21
1,31,83,60
1,31,93,21
1,38,83,60
1,31,96,21
1,31,85,120
1,31,91,21
1,33,96,60
1,35,82,21
1,36,96,0
1,36,83,180
1,36,93,0
2,31,85,1566
2,31,74,184
2,31,80,21
2,31,71,184
2,31,85,21
2,31,72,184
2,31,82,21
2,26,80,156
2,28,72,21
2,31,85,21
2,31,74,184
2,31,80,21
2,31,71,184
2,31,85,21
2,31,72,184
2,28,72,156
2,26,80,21
2,23,72,21
2,19,85,21
2,19,74,184
2,19,80,21
2,19,85,319
2,19,72,184
2,19,82,21
2,21,80,156
2,23,85,156
2,23,74,184
2,23,80,21
2,23,85,319
2,23,72,184
2,23,82,21
2,30,80,156
2,23,72,21
2,24,85,21
2,24,74,184
2,24,80,21
2,26,71,184
2,31,85,21
2,31,72,184
2,31,82,21
2,26,85,319
2,26,74,184
2,26,80,21
2,24,85,319
2,24,72,184
2,24,72,156
2,23,80,21
2,21,72,21
2,19,85,21
2,19,74,184
2,19,80,21
2,19,85,319
2,19,72,184
2,19,82,21
2,21,80,156
2,23,85,156
2,23,74,184
2,23,80,21
2,23,85,319
2,23,72,184
2,23,82,21
2,30,80,156
2,23,72,21
2,24,85,21
2,24,74,184
2,24,80,21
2,26,71,184
2,31,85,21
2,31,72,184
2,31,82,21
2,24,85,319
2,24,74,184
2,24,80,21
2,26,85,319
2,26,82,156
2,26,82,156
2,26,80,156
2,21,72,21
2,26,85,21
2,26,82,156
2,26,80,156
2,25,85,156
2,26,71,21
2,28,85,21
2,28,72,184
2,26,82,21
2,26,72,184
2,19,85,21
2,19,74,184
2,19,80,21
2,28,85,319
2,28,72,184
2,24,82,21
2,19,85,319
2,19,74,184
2,19,80,21
2,19,71,184
2,28,85,21
2,26,82,319
2,26,72,184
2,24,85,21
2,24,74,184
2,24,80,21
2,31,71,184
2,24,85,21
2,24,72,184
2,24,82,21
2,31,80,156
2,24,72,21
2,26,85,21
2,26,74,184
2,26,80,21
2,26,71,184
2,19,85,21
2,19,72,184
2,19,82,21
2,23,85,319
2,23,74,184
2,23,80,21
2,30,85,156
2,23,71,21
2,24,85,21
2,24,72,184
2,24,82,21
2,31,85,319
2,31,74,184
2,31,80,21
2,21,85,156
2,23,71,21
2,24,85,21
2,23,82,319
2,21,85,319
2,24,80,319
2,24,85,156
2,26,71,21
2,31,85,21
2,31,72,184
2,31,82,21
2,31,72,184
2,31,85,21
2,31,74,184
2,31,80,21
2,26,85,156
2,28,71,21
2,31,85,21
2,31,72,184
2,31,82,21
2,31,72,184
2,31,85,21
2,31,74,184
2,28,73,157
2,26,85,20
2,23,71,21
2,19,85,21
2,19,72,184
2,19,82,21
2,19,85,319
2,19,74,184
2,19,80,21
2,21,85,156
2,23,85,156
2,23,72,184
2,23,82,21
2,23,85,319
2,23,74,184
2,23,80,21
2,30,85,156
2,23,71,21
2,24,85,21
2,24,72,184
2,24,82,21
2,26,72,184
2,31,85,21
2,31,74,184
2,31,80,21
2,26,85,319
2,26,72,184
2,26,82,21
2,24,85,319
2,24,74,184
2,24,73,157
2,23,85,20
2,21,71,21
2,19,85,21
2,19,72,184
2,19,82,21
2,19,85,319
2,19,74,184
2,19,80,21
2,21,85,156
2,23,85,156
2,23,72,184
2,23,82,21
2,23,85,319
2,23,74,184
2,23,80,21
2,30,85,156
2,23,71,21
2,24,85,21
2,24,72,184
2,24,82,21
2,26,72,184
2,31,85,21
2,31,74,184
2,31,80,21
2,24,85,319
2,24,72,184
2,24,82,21
2,26,85,319
2,26,82,156
2,26,80,156
2,26,85,156
2,21,71,21
2,26,85,21
2,26,82,156
2,26,82,156
2,25,80,156
2,26,72,21
2,28,85,21
2,28,74,184
2,26,80,21
2,26,71,184
2,19,85,21
2,19,72,184
2,19,82,21
2,28,85,319
2,28,74,184
2,24,80,21
2,19,85,319
2,19,72,184
2,19,82,21
2,19,72,184
2,28,85,21
2,26,80,319
2,26,71,184
2,24,85,21
2,24,72,184
2,24,82,21
2,31,72,184
2,24,85,21
2,24,74,184
2,24,80,21
2,31,85,156
2,24,71,21
2,26,85,21
2,26,72,184
2,26,82,21
2,26,72,184
2,19,85,21
2,19,74,184
2,19,80,21
2,23,85,319
2,23,72,184
2,23,82,21
2,30,80,156
2,23,72,21
2,24,85,21
2,24,74,184
2,24,80,21
2,31,85,319
2,31,72,184
2,31,82,21
2,21,80,156
2,23,72,21
2,24,85,21
2,23,80,319
2,21,85,319
2,24,82,319
2,24,80,156
2,26,72,21
2,31,85,21
2,31,74,184
2,31,80,21
2,31,71,184
2,31,85,21
2,31,72,184
2,31,82,21
2,26,80,156
2,28,72,21
2,31,85,21
2,31,74,184
2,31,80,21
2,31,71,184
2,31,85,21
2,31,72,184
2,28,72,156
2,26,80,21
2,23,72,21
2,19,85,21
2,19,74,184
2,19,80,21
2,19,85,319
2,19,72,184
2,19,82,21
2,21,80,156
2,23,85,156
2,23,74,184
2,23,80,21
2,23,85,319
2,23,72,184
2,23,82,21
2,30,80,156
2,23,72,21
2,24,85,21
2,24,74,184
2,24,80,21
2,26,71,184
2,31,85,21
2,31,72,184
2,31,82,21
2,26,85,319
2,26,74,184
2,26,80,21
2,24,85,319
2,24,72,184
2,24,72,156
2,23,80,21
2,21,72,21
2,19,85,21
2,19,74,184
2,19,80,21
2,19,85,319
2,19,72,184
2,19,82,21
2,21,80,156
2,23,85,156
2,23,74,184
2,23,80,21
2,23,85,319
2,23,72,184
2,23,82,21
2,30,80,156
2,23,72,21
2,24,85,21
2,24,74,184
2,24,80,21
2,26,71,184
2,31,85,21
2,31,72,184
2,31,82,21
2,24,85,319
2,24,74,184
2,24,80,21
2,26,85,319
2,26,82,156
2,26,82,156
2,26,80,156
2,21,72,21
2,26,85,21
2,26,82,156
2,26,80,156
2,25,85,156
2,26,71,21
2,28,85,21
2,28,72,184
2,26,82,21
2,26,72,184
2,19,85,21
2,19,74,184
2,19,80,21
2,28,85,319
2,28,72,184
2,24,82,21
2,19,85,319
2,19,74,184
2,19,80,21
2,19,71,184
2,28,85,21
2,26,82,319
2,26,72,184
2,24,85,21
2,24,74,184
2,24,80,21
2,31,71,184
2,24,85,21
2,24,72,184
2,24,82,21
2,31,80,156
2,24,72,21
2,26,85,21
2,26,74,184
2,26,80,21
2,26,71,184
2,19,85,21
2,19,72,184
2,19,82,21
2,23,85,319
2,23,74,184
2,23,80,21
2,30,85,156
2,23,71,21
2,24,85,21
2,24,72,184
2,24,82,21
2,31,85,319
2,31,74,184
2,31,80,21
2,21,85,156
2,23,71,21
2,24,85,21
2,23,82,319
2,21,85,319
2,24,80,319
2,24,85,156
2,26,71,21
2,31,85,21
2,31,72,184
2,31,82,21
2,31,72,184
2,31,85,21
2,31,74,184
2,31,80,21
2,26,85,156
2,28,71,21
2,31,85,21
2,31,72,184
2,31,82,21
2,31,72,184
2,31,85,21
2,31,74,184
2,28,73,157
2,26,85,20
2,23,71,21
2,31,85,21
2,31,72,184
2,31,82,21
2,24,85,319
2,23,80,319
2,23,85,156
2,26,71,21
2,26,85,21
2,26,82,156
2,26,82,156
2,26,80,156
2,26,85,156
2,26,71,21
2,30,82,21
2,30,74,21
2,33,80,21
2,24,85,319
2,24,72,184
2,24,82,21
2,24,85,319
2,24,74,184
2,24,80,21
2,24,85,156
2,26,71,21
2,19,85,21
2,19,72,184
2,19,82,21
2,26,72,184
2,19,85,21
2,19,74,184
2,19,80,21
2,21,85,156
2,23,71,21
2,24,85,21
2,24,72,184
2,24,82,21
2,24,85,0
2,24,74,120
2,24,80,0
2,24,85,120
2,26,71,0
2,19,85,0
2,19,72,0
2,19,82,21
2,26,72,0
2,19,85,21
2,19,74,60
2,19,80,21
2,21,85,60
2,23,71,21
2,24,85,21
2,24,72,120
2,24,82,0
2,24,85,0
2,24,74,0
2,24,80,21
2,24,85,120
2,26,71,0
2,19,85,21
2,19,72,60
2,19,82,21
2,26,72,60
2,19,85,21
2,19,74,120
2,19,80,21
2,21,85,60
2,23,71,21
2,24,85,0
2,24,72,180
2,24,82,0
3,59,106,0
3,67,106,0
3,62,106,0
3,59,100,180
3,62,92,120
3,67,100,120
3,55,106,0
3,55,93,2
3,67,103,120
3,62,103,0
3,55,94,36
3,67,101,50
3,62,89,121
3,59,93,21
