track,note,velocity,time
1,69,100,11328
1,69,100,64
1,70,100,192
1,69,100,64
1,69,100,128
1,70,100,256
1,69,100,64
1,69,100,64
1,69,100,64
1,69,100,1152
1,67,100,64
1,67,100,128
1,67,100,192
1,67,100,64
1,69,100,128
1,70,100,128
1,69,100,128
1,69,100,256
1,69,100,64
1,69,100,64
1,70,100,256
1,69,100,64
1,69,100,64
1,70,100,256
1,69,100,64
1,72,100,64
1,70,100,128
1,69,100,128
1,67,100,128
1,69,100,128
1,70,100,128
1,69,100,128
1,69,100,256
1,69,100,64
1,67,100,64
1,65,100,128
1,67,100,128
1,69,100,128
1,69,100,448
1,69,100,64
1,70,100,192
1,69,100,64
1,69,100,128
1,70,100,256
1,69,100,64
1,69,100,64
1,69,100,64
1,69,100,1152
1,67,100,64
1,67,100,128
1,67,100,192
1,67,100,64
1,69,100,128
1,70,100,128
1,69,100,128
1,69,100,448
1,69,100,64
1,70,100,256
1,69,100,64
1,69,100,64
1,70,100,256
1,69,100,64
1,72,100,64
1,70,100,128
1,69,100,128
1,67,100,128
1,70,100,256
1,69,100,128
1,69,100,256
1,69,100,64
1,67,100,64
1,65,100,128
1,67,100,128
1,69,100,128
1,69,100,256
1,64,100,64
1,66,100,0
1,69,100,64
1,69,100,64
1,69,100,192
1,71,100,64
1,69,100,64
1,69,100,64
1,64,100,64
1,62,100,128
1,66,100,64
1,69,100,64
1,69,100,64
1,69,100,192
1,71,100,64
1,69,100,64
1,69,100,64
1,64,100,128
1,62,100,64
1,59,100,64
1,62,100,64
1,57,100,3584
1,66,100,64
1,69,100,64
1,69,100,64
1,69,100,192
1,71,100,64
1,69,100,64
1,64,100,64
1,57,100,192
1,66,100,64
1,69,100,64
1,69,100,64
1,69,100,128
1,71,100,128
1,69,100,64
1,66,100,64
1,62,100,128
1,59,100,128
1,62,100,128
1,69,100,3520
1,69,100,0
1,70,100,256
1,69,100,64
1,69,100,64
1,70,100,256
1,69,100,64
1,69,100,64
1,69,100,128
1,69,100,448
1,67,100,64
1,67,100,256
1,67,100,64
1,67,100,64
1,69,100,128
1,70,100,128
1,69,100,128
1,69,100,448
1,69,100,64
1,69,100,512
1,69,100,64
1,69,100,64
1,69,100,128
1,69,100,192
1,72,100,64
1,70,100,128
1,69,100,128
1,67,100,128
1,69,100,128
1,70,100,128
1,69,100,128
1,70,100,256
1,69,100,64
1,67,100,64
1,65,100,128
1,67,100,128
1,69,100,128
1,69,100,256
1,64,100,64
1,66,100,64
1,69,100,64
1,69,100,64
1,69,100,192
1,71,100,64
1,69,100,64
1,69,100,64
1,64,100,64
1,62,100,128
1,66,100,64
1,69,100,64
1,69,100,64
1,69,100,192
1,71,100,64
1,69,100,64
1,69,100,64
1,64,100,128
1,62,100,64
1,59,100,64
1,62,100,64
1,57,100,3584
1,66,100,0
1,69,100,64
1,69,100,64
1,69,100,192
1,71,100,64
1,69,100,64
1,64,100,64
1,57,100,192
1,66,100,64
1,69,100,64
1,69,100,64
1,69,100,128
1,71,100,128
1,69,100,64
1,66,100,64
1,62,100,128
1,59,100,128
1,62,100,128
2,65,127,1152
2,65,127,384
2,65,127,384
2,62,127,384
2,62,127,384
2,62,127,384
2,61,127,256
2,57,127,128
2,62,127,3072
2,65,127,0
2,61,127,640
2,65,127,0
2,62,127,640
2,65,127,0
2,62,127,640
2,65,127,0
2,58,127,640
2,62,127,0
2,64,127,0
2,58,127,256
2,62,127,0
2,67,127,0
2,61,127,128
2,64,127,0
2,69,127,0
2,62,127,128
2,65,127,0
2,70,127,0
2,61,127,128
2,67,127,0
2,62,127,128
2,64,127,128
2,67,127,128
2,65,127,128
2,64,127,128
2,67,127,0
2,62,127,512
2,65,127,0
2,60,127,640
2,65,127,0
2,62,127,256
2,65,127,0
2,58,127,384
2,62,127,0
2,65,127,0
2,57,127,768
2,62,127,0
2,58,127,256
2,62,127,0
2,60,127,384
2,62,127,128
2,64,127,128
2,61,127,128
2,62,127,128
2,64,127,128
2,62,127,512
2,65,127,0
2,61,127,640
2,65,127,0
2,62,127,640
2,65,127,0
2,62,127,640
2,65,127,0
2,58,100,640
2,62,127,0
2,64,127,0
2,58,127,256
2,62,127,0
2,67,127,0
2,61,127,128
2,64,127,0
2,69,127,0
2,62,127,128
2,65,127,0
2,70,127,0
2,61,127,128
2,67,127,0
2,62,127,128
2,64,127,128
2,67,127,128
2,65,127,128
2,64,127,128
2,67,127,0
2,62,127,512
2,65,127,0
2,60,127,640
2,65,127,0
2,62,127,256
2,65,127,0
2,58,127,384
2,62,127,0
2,65,127,0
2,57,127,768
2,62,127,0
2,58,127,256
2,62,127,0
2,60,127,384
2,62,127,128
2,64,127,128
2,61,127,128
2,62,127,128
2,64,127,128
2,62,127,0
2,66,127,0
2,61,127,384
2,66,127,0
2,59,127,384
2,62,127,0
2,57,127,384
2,62,127,0
2,55,127,384
2,59,127,0
2,57,127,384
2,59,127,192
2,62,127,0
2,55,127,192
2,59,127,192
2,62,127,0
2,61,127,192
2,62,127,128
2,64,127,128
2,57,127,64
2,62,127,64
2,66,127,0
2,61,127,384
2,66,127,0
2,59,127,384
2,62,127,0
2,57,127,384
2,62,127,0
2,54,127,256
2,59,127,128
2,62,127,192
2,57,127,192
2,59,127,192
2,62,127,0
2,55,127,192
2,59,127,192
2,62,127,0
2,61,127,192
2,62,127,128
2,64,127,128
2,69,127,64
2,62,127,384
2,65,127,0
2,61,127,640
2,65,127,0
2,62,127,640
2,65,127,0
2,62,127,640
2,65,127,0
2,58,127,640
2,62,127,0
2,64,127,0
2,58,127,256
2,62,127,0
2,61,127,128
2,64,127,0
2,62,127,128
2,65,127,0
2,61,127,128
2,62,127,128
2,64,127,128
2,67,127,128
2,65,127,128
2,64,127,128
2,67,127,0
2,62,127,512
2,65,127,0
2,60,127,640
2,65,127,0
2,62,127,256
2,65,127,0
2,58,127,384
2,62,127,0
2,65,127,0
2,57,127,768
2,62,127,0
2,58,127,256
2,62,127,0
2,61,127,384
2,62,127,128
2,64,127,128
2,61,127,128
2,62,127,128
2,64,127,128
2,64,127,64
2,62,127,64
2,66,127,0
2,61,127,384
2,66,127,0
2,59,127,384
2,62,127,0
2,57,127,384
2,62,127,0
2,55,127,384
2,59,127,0
2,57,127,384
2,59,127,192
2,62,127,0
2,55,127,192
2,59,127,192
2,62,127,0
2,61,127,192
2,62,127,128
2,64,127,128
2,57,127,64
2,62,127,0
2,66,127,0
2,61,127,384
2,66,127,0
2,59,127,384
2,62,127,0
2,57,127,384
2,62,127,0
2,54,127,256
2,59,127,128
2,62,127,192
2,57,127,192
2,59,127,192
2,62,127,0
2,55,127,192
2,59,127,192
2,62,127,0
2,61,127,192
2,62,127,128
2,64,127,128
2,62,127,0
2,64,127,64
2,65,127,64
2,62,127,64
2,64,127,64
2,65,127,64
2,62,100,384
2,64,100,64
2,65,100,64
2,62,100,64
2,64,100,64
2,65,100,64
2,62,100,384
2,64,100,64
2,65,100,64
2,62,100,64
2,64,100,64
2,65,100,64
2,62,100,1344
2,69,100,0
2,74,100,0
3,62,127,1152
3,61,127,384
3,60,127,384
3,58,127,384
3,57,127,384
3,58,127,384
3,57,127,128
3,55,127,128
3,45,127,128
3,47,127,128
3,49,127,128
3,57,127,128
3,57,127,128
3,55,127,128
3,50,127,896
3,50,127,256
3,49,127,128
3,49,127,256
3,48,127,128
3,48,127,256
3,47,127,128
3,47,127,256
3,45,127,128
3,46,127,256
3,46,127,128
3,45,127,128
3,43,127,128
3,45,127,128
3,47,127,128
3,49,127,128
3,52,127,128
3,50,127,128
3,49,127,128
3,50,127,128
3,50,127,256
3,48,127,128
3,48,127,256
3,46,127,128
3,50,127,256
3,46,127,128
3,45,127,128
3,43,127,128
3,41,127,128
3,41,127,256
3,40,127,128
3,41,127,128
3,43,127,128
3,45,127,128
3,47,127,128
3,49,127,128
3,45,127,128
3,47,127,128
3,49,127,128
3,50,127,128
3,50,127,256
3,49,127,128
3,49,127,256
3,48,127,128
3,48,127,256
3,47,127,128
3,47,127,256
3,45,127,128
3,46,127,256
3,46,127,128
3,45,127,128
3,43,127,128
3,45,127,128
3,47,127,128
3,49,127,128
3,52,127,128
3,50,127,128
3,49,127,128
3,50,127,128
3,50,127,256
3,48,127,128
3,48,127,256
3,46,127,128
3,50,127,256
3,46,127,128
3,45,127,128
3,43,127,128
3,41,127,128
3,41,127,256
3,40,127,128
3,41,127,128
3,43,127,128
3,45,127,128
3,47,127,128
3,49,127,128
3,45,127,128
3,47,127,128
3,49,127,128
3,50,127,0
3,50,127,256
3,49,127,128
3,49,127,256
3,47,127,128
3,47,127,256
3,45,127,128
3,45,127,256
3,43,127,128
3,43,127,256
3,42,127,128
3,42,127,256
3,40,127,128
3,40,127,256
3,45,127,128
3,47,127,128
3,49,127,128
3,50,127,128
3,50,127,256
3,49,127,128
3,49,127,256
3,47,127,128
3,47,127,256
3,45,127,128
3,45,127,256
3,43,127,128
3,43,127,256
3,42,127,128
3,42,127,256
3,40,127,128
3,40,127,256
3,45,127,128
3,47,127,128
3,49,127,128
3,50,127,0
3,50,127,256
3,49,127,128
3,49,127,256
3,48,127,128
3,48,127,256
3,47,127,128
3,47,127,256
3,45,127,128
3,46,127,256
3,46,127,128
3,45,127,128
3,43,127,128
3,45,127,128
3,47,127,128
3,49,127,128
3,52,127,128
3,50,127,128
3,49,127,128
3,50,127,128
3,50,127,256
3,48,127,128
3,48,127,256
3,46,127,128
3,50,127,256
3,46,127,128
3,45,127,128
3,43,127,128
3,41,127,128
3,41,127,256
3,40,127,128
3,41,127,128
3,43,127,128
3,45,127,128
3,47,127,128
3,49,127,128
3,45,127,128
3,47,127,128
3,49,127,128
3,50,127,128
3,50,127,256
3,49,127,128
3,49,127,256
3,47,127,128
3,47,127,256
3,45,127,128
3,45,127,256
3,43,127,128
3,43,127,256
3,42,127,128
3,42,127,256
3,40,127,128
3,40,127,256
3,45,127,128
3,47,127,128
3,49,127,128
3,50,127,0
3,50,127,256
3,49,127,128
3,49,127,256
3,47,127,128
3,47,127,256
3,45,127,128
3,45,127,256
3,43,127,128
3,43,127,256
3,42,127,128
3,42,127,256
3,40,127,128
3,40,127,256
3,45,127,128
3,47,127,128
3,49,127,128
3,45,127,384
3,53,127,384
3,45,100,768
3,53,100,384
3,45,100,768
3,53,100,384
3,38,100,384
3,45,100,0
3,53,100,0
4,69,100,1152
4,74,100,64
4,69,100,64
4,74,100,64
4,69,100,64
4,74,100,64
4,69,100,64
4,73,100,64
4,69,100,64
4,73,100,64
4,69,100,64
4,73,100,64
4,69,100,64
4,72,100,64
4,69,100,64
4,72,100,64
4,69,100,64
4,72,100,64
4,67,100,64
4,70,100,64
4,67,100,64
4,70,100,64
4,67,100,64
4,70,100,64
4,67,100,64
4,64,100,128
4,65,100,128
4,67,100,128
4,65,100,128
4,64,100,128
4,61,100,128
4,62,100,128
4,64,100,128
4,67,100,128
4,76,100,0
4,65,100,128
4,74,100,0
4,73,100,128
4,64,100,0
4,69,100,704
4,69,100,64
4,70,100,192
4,69,100,64
4,69,100,128
4,70,100,256
4,69,100,64
4,69,100,64
4,69,100,64
4,69,100,1152
4,67,100,64
4,67,100,128
4,67,100,192
4,67,100,64
4,69,100,128
4,70,100,128
4,69,100,128
4,69,100,256
4,69,100,64
4,69,100,64
4,70,100,256
4,69,100,64
4,69,100,64
4,70,100,256
4,69,100,64
4,72,100,64
4,70,100,128
4,69,100,128
4,67,100,128
4,69,100,128
4,70,100,128
4,69,100,128
4,69,100,256
4,69,100,64
4,67,100,64
4,65,100,128
4,67,100,128
4,69,100,128
4,69,100,448
4,69,100,64
4,70,100,192
4,69,100,64
4,69,100,128
4,70,100,256
4,69,100,64
4,69,100,64
4,69,100,64
4,69,100,1152
4,67,100,64
4,67,100,128
4,67,100,192
4,67,100,64
4,69,100,128
4,70,100,128
4,69,100,128
4,69,100,448
4,69,100,64
4,70,100,256
4,69,100,64
4,69,100,64
4,70,100,256
4,69,100,64
4,72,100,64
4,70,100,128
4,69,100,128
4,67,100,128
4,70,100,256
4,69,100,128
4,69,100,256
4,69,100,64
4,67,100,64
4,65,100,128
4,67,100,128
4,69,100,128
4,69,100,256
4,64,100,64
4,66,100,64
4,69,100,64
4,69,100,64
4,69,100,192
4,71,100,64
4,69,100,64
4,69,100,64
4,64,100,64
4,62,100,128
4,66,100,64
4,69,100,64
4,69,100,64
4,69,100,192
4,71,100,64
4,69,100,64
4,69,100,64
4,64,100,128
4,62,100,64
4,59,100,64
4,62,100,64
4,57,100,3584
4,66,100,64
4,69,100,64
4,69,100,64
4,69,100,192
4,71,100,64
4,69,100,64
4,64,100,64
4,57,100,192
4,66,100,64
4,69,100,64
4,69,100,64
4,69,100,128
4,71,100,128
4,69,100,64
4,66,100,64
4,62,100,128
4,59,100,128
4,62,100,128
4,69,100,3520
4,69,100,64
4,70,100,256
4,69,100,64
4,69,100,64
4,70,100,256
4,69,100,64
4,69,100,64
4,69,100,128
4,69,100,448
4,67,100,64
4,67,100,256
4,67,100,64
4,67,100,64
4,69,100,128
4,70,100,128
4,69,100,128
4,69,100,448
4,69,100,64
4,69,100,512
4,69,100,64
4,69,100,64
4,69,100,128
4,69,100,192
4,72,100,64
4,70,100,128
4,69,100,128
4,67,100,128
4,69,100,128
4,70,100,128
4,69,100,128
4,70,100,256
4,69,100,64
4,67,100,64
4,65,100,128
4,67,100,128
4,69,100,128
4,69,100,256
4,64,100,64
4,66,100,64
4,69,100,64
4,69,100,64
4,69,100,192
4,71,100,64
4,69,100,64
4,69,100,64
4,64,100,64
4,62,100,128
4,66,100,64
4,69,100,64
4,69,100,64
4,69,100,192
4,71,100,64
4,69,100,64
4,69,100,64
4,64,100,128
4,62,100,64
4,59,100,64
4,62,100,64
4,57,100,3584
4,66,100,0
4,69,100,64
4,69,100,64
4,69,100,192
4,71,100,64
4,69,100,64
4,64,100,64
4,57,100,192
4,66,100,64
4,69,100,64
4,69,100,64
4,69,100,128
4,71,100,128
4,69,100,64
4,66,100,64
4,62,100,128
4,59,100,128
4,62,100,128
5,65,127,1152
5,65,127,384
5,65,127,384
5,62,127,384
5,62,127,384
5,62,127,384
5,61,127,256
5,57,127,128
5,62,127,3072
5,65,127,0
5,61,127,640
5,65,127,0
5,62,127,640
5,65,127,0
5,62,127,640
5,65,127,0
5,58,127,640
5,62,127,0
5,64,127,0
5,58,127,256
5,62,127,0
5,67,127,0
5,61,127,128
5,64,127,0
5,69,127,0
5,62,127,128
5,65,127,0
5,70,127,0
5,61,127,128
5,67,127,0
5,62,127,128
5,64,127,128
5,67,127,128
5,65,127,128
5,64,127,128
5,67,127,0
5,62,127,512
5,65,127,0
5,60,127,640
5,65,127,0
5,62,127,256
5,65,127,0
5,58,127,384
5,62,127,0
5,65,127,0
5,57,127,768
5,62,127,0
5,58,127,256
5,62,127,0
5,60,127,384
5,62,127,128
5,64,127,128
5,61,127,128
5,62,127,128
5,64,127,128
5,62,127,512
5,65,127,0
5,61,127,640
5,65,127,0
5,62,127,640
5,65,127,0
5,62,127,640
5,65,127,0
5,58,100,640
5,62,127,0
5,64,127,0
5,58,127,256
5,62,127,0
5,67,127,0
5,61,127,128
5,64,127,0
5,69,127,0
5,62,127,128
5,65,127,0
5,70,127,0
5,61,127,128
5,67,127,0
5,62,127,128
5,64,127,128
5,67,127,128
5,65,127,128
5,64,127,128
5,67,127,0
5,62,127,512
5,65,127,0
5,60,127,640
5,65,127,0
5,62,127,256
5,65,127,0
5,58,127,384
5,62,127,0
5,65,127,0
5,57,127,768
5,62,127,0
5,58,127,256
5,62,127,0
5,60,127,384
5,62,127,128
5,64,127,128
5,61,127,128
5,62,127,128
5,64,127,128
5,62,127,128
5,66,127,0
5,61,127,384
5,66,127,0
5,59,127,384
5,62,127,0
5,57,127,384
5,62,127,0
5,55,127,384
5,59,127,0
5,57,127,384
5,59,127,192
5,62,127,0
5,55,127,192
5,59,127,192
5,62,127,0
5,61,127,192
