track,note,velocity,time
2,40,113,1316
2,40,0,1508
2,40,113,28
2,40,0,1478
2,40,113,58
2,40,0,191
2,52,111,1
2,52,0,176
2,42,107,16
2,42,0,127
2,44,107,1
2,44,0,63
2,47,107,1
2,47,0,124
2,38,113,4
2,38,0,181
2,45,110,11
2,45,0,63
2,33,109,1
2,33,0,104
2,37,109,24
2,37,0,152
2,37,105,40
2,37,0,63
2,38,107,1
2,38,0,167
2,40,111,25
2,40,0,190
2,52,108,2
2,52,0,165
2,42,109,27
2,42,0,127
2,44,106,1
2,44,0,62
2,47,113,2
2,47,0,124
2,38,110,4
2,38,0,187
2,45,110,5
2,45,0,63
2,33,108,1
2,33,0,114
2,37,113,14
2,37,0,160
2,37,106,32
2,37,0,63
2,38,107,1
2,38,0,161
2,40,113,31
2,40,0,191
2,52,111,1
2,52,0,176
2,42,107,16
2,42,0,127
2,44,107,1
2,44,0,63
2,47,107,1
2,47,0,124
2,38,113,4
2,38,0,181
2,45,110,11
2,45,0,63
2,33,109,1
2,33,0,104
2,37,109,24
2,37,0,152
2,37,105,40
2,37,0,63
2,38,107,1
2,38,0,167
2,40,111,25
2,40,0,190
2,52,108,2
2,52,0,165
2,42,109,27
2,42,0,127
2,44,106,1
2,44,0,62
2,47,113,2
2,47,0,124
2,38,110,4
2,38,0,187
2,45,110,5
2,45,0,63
2,33,108,1
2,33,0,114
2,37,113,14
2,37,0,160
2,37,106,32
2,37,0,63
2,38,107,1
2,38,0,161
2,40,111,31
2,40,0,1523
2,38,108,13
2,38,0,703
2,45,109,1
2,45,0,805
2,45,110,27
2,45,0,1060
2,43,110,28
2,43,0,147
2,43,108,45
2,43,0,227
2,40,113,29
2,40,0,694
2,40,111,10
2,40,0,810
2,40,116,22
2,40,0,575
2,47,113,1
2,47,0,127
2,52,110,1
2,52,0,432
2,47,110,16
2,47,0,191
2,40,109,1
2,40,0,173
2,38,113,19
2,38,0,692
2,45,111,12
2,45,0,369
2,38,109,15
2,38,0,255
2,45,108,1
2,45,0,184
2,45,113,8
2,45,0,570
2,40,107,198
2,40,0,273
2,43,111,47
2,43,0,125
2,43,108,67
2,43,0,217
2,40,111,39
2,40,0,383
2,52,109,1
2,52,0,264
2,52,111,1
2,52,0,109
2,52,105,5
2,52,0,179
2,50,107,8
2,50,0,165
2,47,107,27
2,47,0,63
2,45,95,1
2,45,0,159
2,40,113,33
2,40,0,1513
2,40,113,23
2,40,0,188
2,52,111,4
2,52,0,178
2,42,109,14
2,42,0,127
2,44,107,1
2,44,0,47
2,47,113,17
2,47,0,102
2,38,109,26
2,38,0,185
2,45,113,7
2,45,0,58
2,33,109,6
2,33,0,93
2,37,110,35
2,37,0,152
2,37,105,40
2,37,0,63
2,38,107,1
2,38,0,161
2,40,110,31
2,40,0,191
2,52,111,1
2,52,0,161
2,42,109,31
2,42,0,127
2,44,107,1
2,44,0,49
2,47,110,15
2,47,0,123
2,38,111,5
2,38,0,174
2,45,108,18
2,45,0,56
2,33,108,8
2,33,0,105
2,37,110,23
2,37,0,154
2,37,108,38
2,37,0,63
2,38,105,1
2,38,0,152
2,40,113,40
2,40,0,188
2,52,111,4
2,52,0,178
2,42,109,14
2,42,0,127
2,44,107,1
2,44,0,47
2,47,113,17
2,47,0,102
2,38,109,26
2,38,0,185
2,45,113,7
2,45,0,58
2,33,109,6
2,33,0,93
2,37,110,35
2,37,0,152
2,37,105,40
2,37,0,63
2,38,107,1
2,38,0,161
2,40,110,31
2,40,0,191
2,52,111,1
2,52,0,161
2,42,109,31
2,42,0,127
2,44,107,1
2,44,0,49
2,47,110,15
2,47,0,123
2,38,111,5
2,38,0,174
2,45,108,18
2,45,0,56
2,33,108,8
2,33,0,105
2,37,110,23
2,37,0,154
2,37,108,38
2,37,0,63
2,38,105,1
2,38,0,152
2,40,113,40
2,40,0,188
2,52,111,4
2,52,0,178
2,42,109,14
2,42,0,127
2,44,107,1
2,44,0,47
2,47,113,17
2,47,0,102
2,38,109,26
2,38,0,185
2,45,113,7
2,45,0,58
2,33,109,6
2,33,0,93
2,37,110,35
2,37,0,152
2,37,105,40
2,37,0,63
2,38,107,1
2,38,0,161
2,40,110,31
2,40,0,191
2,52,111,1
2,52,0,161
2,42,109,31
2,42,0,127
2,44,107,1
2,44,0,49
2,47,110,15
2,47,0,123
2,38,111,5
2,38,0,174
2,45,108,18
2,45,0,56
2,33,108,8
2,33,0,105
2,37,110,23
2,37,0,154
2,37,108,38
2,37,0,63
2,38,105,1
2,38,0,152
2,40,113,40
2,40,0,188
2,52,111,4
2,52,0,178
2,42,109,14
2,42,0,127
2,44,107,1
2,44,0,47
2,47,113,17
2,47,0,102
2,38,109,26
2,38,0,185
2,45,113,7
2,45,0,58
2,33,109,6
2,33,0,93
2,37,110,35
2,37,0,152
2,37,105,40
2,37,0,63
2,38,107,1
2,38,0,161
2,40,110,31
2,40,0,191
2,52,111,1
2,52,0,161
2,42,109,31
2,42,0,127
2,44,107,1
2,44,0,49
2,47,110,15
2,47,0,123
2,38,111,5
2,38,0,174
2,45,108,18
2,45,0,56
2,33,108,8
2,33,0,105
2,37,110,23
2,37,0,154
2,37,108,38
2,37,0,63
2,38,105,1
2,38,0,152
2,40,111,40
2,40,0,1523
2,38,108,13
2,38,0,703
2,45,109,1
2,45,0,805
2,45,110,27
2,45,0,1060
2,43,110,28
2,43,0,147
2,43,108,45
2,43,0,227
2,40,113,29
2,40,0,694
2,40,111,10
2,40,0,810
2,40,116,22
2,40,0,575
2,47,113,1
2,47,0,127
2,52,110,1
2,52,0,432
2,47,110,16
2,47,0,191
2,40,109,1
2,40,0,173
2,38,113,19
2,38,0,692
2,45,111,12
2,45,0,369
2,38,109,15
2,38,0,255
2,45,108,1
2,45,0,183
2,45,113,9
2,45,0,568
2,40,107,200
2,40,0,273
2,43,111,47
2,43,0,125
2,43,108,67
2,43,0,217
2,40,111,39
2,40,0,1334
2,40,113,202
2,40,0,1513
2,40,111,23
2,40,0,1334
2,40,113,202
2,40,0,1513
2,40,113,23
2,40,0,188
2,52,111,4
2,52,0,178
2,42,109,14
2,42,0,127
2,44,107,1
2,44,0,47
2,47,113,17
2,47,0,102
2,38,109,26
2,38,0,185
2,45,113,7
2,45,0,58
2,33,109,6
2,33,0,93
2,37,110,35
2,37,0,152
2,37,105,40
2,37,0,63
2,38,107,1
2,38,0,161
2,40,110,31
2,40,0,191
2,52,111,1
2,52,0,161
2,42,109,31
2,42,0,127
2,44,107,1
2,44,0,49
2,47,110,15
2,47,0,123
2,38,111,5
2,38,0,174
2,45,108,18
2,45,0,56
2,33,108,8
2,33,0,105
2,37,110,23
2,37,0,154
2,37,108,38
2,37,0,63
2,38,105,1
2,38,0,152
2,40,113,40
2,40,0,188
2,52,111,4
2,52,0,178
2,42,109,14
2,42,0,127
2,44,107,1
2,44,0,47
2,47,113,17
2,47,0,102
2,38,109,26
2,38,0,185
2,45,113,7
2,45,0,58
2,33,109,6
2,33,0,93
2,37,110,35
2,37,0,152
2,37,105,40
2,37,0,63
2,38,107,1
2,38,0,161
2,40,110,31
2,40,0,191
2,52,111,1
2,52,0,161
2,42,109,31
2,42,0,127
2,44,107,1
2,44,0,49
2,47,110,15
2,47,0,123
2,38,111,5
2,38,0,174
2,45,108,18
2,45,0,56
2,33,108,8
2,33,0,105
2,37,110,23
2,37,0,154
2,37,108,38
2,37,0,63
2,38,105,1
2,38,0,152
2,40,113,40
2,40,0,188
2,52,111,4
2,52,0,178
2,42,109,14
2,42,0,127
2,44,107,1
2,44,0,47
2,47,113,17
2,47,0,102
2,38,109,26
2,38,0,185
2,45,113,7
2,45,0,58
2,33,109,6
2,33,0,93
2,37,110,35
2,37,0,152
2,37,105,40
2,37,0,63
2,38,107,1
2,38,0,161
2,40,110,31
2,40,0,191
2,52,111,1
2,52,0,161
2,42,109,31
2,42,0,127
2,44,107,1
2,44,0,49
2,47,110,15
2,47,0,123
2,38,111,5
2,38,0,174
2,45,108,18
2,45,0,56
2,33,108,8
2,33,0,105
2,37,110,23
2,37,0,154
2,37,108,38
2,37,0,63
2,38,105,1
2,38,0,152
2,40,113,40
2,40,0,188
2,52,111,4
2,52,0,178
2,42,109,14
2,42,0,127
2,44,107,1
2,44,0,47
2,47,113,17
2,47,0,102
2,38,109,26
2,38,0,185
2,45,113,7
2,45,0,58
2,33,109,6
2,33,0,93
2,37,110,35
2,37,0,152
2,37,105,40
2,37,0,63
2,38,107,1
2,38,0,161
2,40,110,31
2,40,0,191
2,52,111,1
2,52,0,161
2,42,109,31
2,42,0,127
2,44,107,1
2,44,0,49
2,47,110,15
2,47,0,123
2,38,111,5
2,38,0,174
2,45,108,18
2,45,0,56
2,33,108,8
2,33,0,105
2,37,110,23
2,37,0,154
2,37,108,38
2,37,0,63
2,38,105,1
2,38,0,152
2,40,111,40
2,40,0,383
2,28,113,1
2,28,0,1123
2,38,101,29
2,38,0,1465
2,45,111,71
2,45,0,1038
2,43,111,50
2,43,0,125
2,43,110,67
2,43,0,211
2,40,110,45
2,40,0,703
2,28,116,1
2,28,0,825
2,40,111,7
2,40,0,1483
2,40,111,53
2,40,0,1493
2,40,113,43
2,40,0,188
2,52,111,4
2,52,0,178
2,42,109,14
2,42,0,127
2,44,107,1
2,44,0,47
2,47,113,17
2,47,0,102
2,38,109,26
2,38,0,185
2,45,113,7
2,45,0,58
2,33,109,6
2,33,0,93
2,37,110,35
2,37,0,152
2,37,105,40
2,37,0,63
2,38,107,1
2,38,0,161
2,40,110,31
2,40,0,191
2,52,111,1
2,52,0,161
2,42,109,31
2,42,0,127
2,44,107,1
2,44,0,49
2,47,110,15
2,47,0,123
2,38,111,5
2,38,0,174
2,45,108,18
2,45,0,56
2,33,108,8
2,33,0,105
2,37,110,23
2,37,0,154
2,37,108,38
2,37,0,63
2,38,105,1
2,38,0,152
2,40,113,40
2,40,0,188
2,52,111,4
2,52,0,178
2,42,109,14
2,42,0,127
2,44,107,1
2,44,0,47
2,47,113,17
2,47,0,102
2,38,109,26
2,38,0,185
2,45,113,7
2,45,0,58
2,33,109,6
2,33,0,93
2,37,110,35
2,37,0,152
2,37,105,40
2,37,0,63
2,38,107,1
2,38,0,161
2,40,110,31
2,40,0,191
2,52,111,1
2,52,0,161
2,42,109,31
2,42,0,127
2,44,107,1
2,44,0,49
2,47,115,15
2,47,0,78
2,47,113,50
2,47,0,157
2,45,107,35
2,45,0,191
2,52,111,1
2,52,0,185
2,50,103,7
2,50,0,63
2,47,95,1
2,47,0,113
2,45,86,15
2,45,0,61
2,40,113,3
2,40,0,188
2,52,111,4
2,52,0,178
2,42,109,14
2,42,0,127
2,44,107,1
2,44,0,47
2,47,113,17
2,47,0,102
2,38,109,26
2,38,0,185
2,45,113,7
2,45,0,58
2,33,109,6
2,33,0,93
2,37,110,35
2,37,0,152
2,37,105,40
2,37,0,63
2,38,107,1
2,38,0,161
2,40,110,31
2,40,0,191
2,52,111,1
2,52,0,161
2,42,109,31
2,42,0,127
2,44,107,1
2,44,0,49
2,47,110,15
2,47,0,123
2,38,111,5
2,38,0,174
2,45,108,18
2,45,0,56
2,33,108,8
2,33,0,105
2,37,110,23
2,37,0,154
2,37,108,38
2,37,0,63
2,38,105,1
2,38,0,152
2,40,113,40
2,40,0,188
2,52,111,4
2,52,0,178
2,42,109,14
2,42,0,127
2,44,107,1
2,44,0,47
2,47,113,17
2,47,0,102
2,38,109,26
2,38,0,185
2,45,113,7
2,45,0,58
2,33,109,6
2,33,0,93
2,37,110,35
2,37,0,152
2,37,105,40
2,37,0,63
2,38,107,1
2,38,0,161
2,40,110,31
2,40,0,191
2,52,111,1
2,52,0,161
2,42,109,31
2,42,0,127
2,44,107,1
2,44,0,49
2,47,110,15
2,47,0,123
2,38,111,5
2,38,0,174
2,45,108,18
2,45,0,56
2,33,108,8
2,33,0,105
2,37,110,23
2,37,0,154
2,37,108,38
2,37,0,63
2,38,105,1
2,38,0,152
2,40,113,40
2,40,0,188
2,52,111,4
2,52,0,178
2,42,109,14
2,42,0,127
2,44,107,1
2,44,0,47
2,47,113,17
2,47,0,102
2,38,109,26
2,38,0,185
2,45,113,7
2,45,0,58
2,33,109,6
2,33,0,93
2,37,110,35
2,37,0,152
2,37,105,40
2,37,0,63
2,38,107,1
2,38,0,161
2,40,110,31
2,40,0,191
2,52,111,1
2,52,0,161
2,42,109,31
2,42,0,127
2,44,107,1
2,44,0,49
2,47,110,15
2,47,0,123
2,38,111,5
2,38,0,174
2,45,108,18
2,45,0,56
2,33,108,8
2,33,0,105
2,37,110,23
2,37,0,154
2,37,108,38
2,37,0,63
2,38,105,1
2,38,0,152
2,40,113,40
2,40,0,188
2,52,111,4
2,52,0,178
2,42,109,14
2,42,0,127
2,44,107,1
2,44,0,47
2,47,113,17
2,47,0,102
2,38,109,26
2,38,0,185
2,45,113,7
2,45,0,58
2,33,109,6
2,33,0,93
2,37,110,35
2,37,0,152
2,37,105,40
2,37,0,63
2,38,107,1
2,38,0,161
2,40,110,31
2,40,0,191
2,52,111,1
2,52,0,161
2,42,109,31
2,42,0,127
2,44,107,1
2,44,0,49
2,47,110,15
2,47,0,123
2,38,111,5
2,38,0,174
2,45,108,18
2,45,0,56
2,33,108,8
2,33,0,105
2,37,110,23
2,37,0,154
2,37,108,38
2,37,0,63
2,38,105,1
2,38,0,152
2,40,113,40
2,40,0,191
2,52,108,1
2,52,0,181
2,42,106,11
2,42,0,125
2,44,97,3
2,44,0,61
2,47,108,3
2,47,0,110
2,38,108,18
2,38,0,831
2,40,109,1
2,40,0,188
2,52,110,4
2,52,0,180
2,42,107,12
2,42,0,127
2,44,103,1
2,44,0,63
2,47,108,1
2,47,0,125
2,38,107,3
2,38,0,789
2,40,113,43
2,40,0,191
2,52,108,1
2,52,0,181
2,42,106,11
2,42,0,125
2,44,97,3
2,44,0,61
2,47,108,3
2,47,0,110
2,38,108,18
2,38,0,831
2,40,109,1
2,40,0,188
2,52,110,4
2,52,0,180
2,42,107,12
2,42,0,127
2,44,103,1
2,44,0,63
2,47,108,1
2,47,0,125
2,38,107,3
2,38,0,789
3,69,116,854
3,69,0,185
3,69,114,7
3,69,0,59
3,71,107,5
3,71,0,186
3,64,115,6
3,64,0,1041
3,69,118,47
3,69,0,173
3,69,114,19
3,69,0,63
3,71,114,1
3,71,0,186
3,64,114,6
3,64,0,1068
3,69,117,20
3,69,0,169
3,69,113,23
3,69,0,63
3,71,113,1
3,71,0,190
3,64,114,2
3,64,0,182
3,68,117,10
3,68,0,176
3,69,107,16
3,69,0,127
3,68,112,1
3,68,0,58
3,69,98,6
3,69,0,116
3,66,110,12
3,66,0,172
3,66,112,20
3,66,0,63
3,64,107,1
3,64,0,163
3,62,108,29
3,62,0,123
3,62,106,5
3,62,0,44
3,64,102,20
3,64,0,119
3,62,102,9
3,62,0,63
3,64,110,1
3,64,0,174
3,68,116,18
3,68,0,165
3,69,106,27
3,69,0,127
3,68,110,1
3,68,0,63
3,69,100,1
3,69,0,101
3,66,113,27
3,66,0,161
3,66,115,31
3,66,0,63
3,64,112,1
3,64,0,155
3,62,108,37
3,62,0,126
3,62,107,2
3,62,0,60
3,64,109,4
3,64,0,108
3,62,99,20
3,62,0,53
3,64,108,11
3,64,0,168
3,68,116,24
3,68,0,182
3,69,105,10
3,69,0,127
3,68,113,1
3,68,0,63
3,69,94,1
3,69,0,106
3,66,112,22
3,66,0,168
3,66,112,24
3,66,0,63
3,64,105,1
3,64,0,163
3,62,109,29
3,62,0,106
3,62,110,22
3,62,0,63
3,64,104,1
3,64,0,109
3,62,102,19
3,62,0,59
3,64,106,5
3,64,0,176
3,68,116,16
3,68,0,181
3,69,98,11
3,69,0,127
3,68,107,1
3,68,0,63
3,69,97,1
3,69,0,97
3,66,112,31
3,66,0,93
3,66,110,99
3,66,0,64
3,66,112,128
3,66,0,63
3,64,98,129
3,64,0,235
3,68,106,1109
3,68,0,58
3,69,100,6
3,69,0,191
