track,note,velocity,time
1,40,113,1316
1,40,0,1508
1,40,113,28
1,40,0,1478
1,40,113,58
1,40,0,191
1,52,111,1
1,52,0,176
1,42,107,16
1,42,0,127
1,44,107,1
1,44,0,63
1,47,107,1
1,47,0,124
1,38,113,4
1,38,0,181
1,45,110,11
1,45,0,63
1,33,109,1
1,33,0,104
1,37,109,24
1,37,0,152
1,37,105,40
1,37,0,63
1,38,107,1
1,38,0,167
1,40,111,25
1,40,0,190
1,52,108,2
1,52,0,165
1,42,109,27
1,42,0,127
1,44,106,1
1,44,0,62
1,47,113,2
1,47,0,124
1,38,110,4
1,38,0,187
1,45,110,5
1,45,0,63
1,33,108,1
1,33,0,114
1,37,113,14
1,37,0,160
1,37,106,32
1,37,0,63
1,38,107,1
1,38,0,161
1,40,113,31
1,40,0,191
1,52,111,1
1,52,0,176
1,42,107,16
1,42,0,127
1,44,107,1
1,44,0,63
1,47,107,1
1,47,0,124
1,38,113,4
1,38,0,181
1,45,110,11
1,45,0,63
1,33,109,1
1,33,0,104
1,37,109,24
1,37,0,152
1,37,105,40
1,37,0,63
1,38,107,1
1,38,0,167
1,40,111,25
1,40,0,190
1,52,108,2
1,52,0,165
1,42,109,27
1,42,0,127
1,44,106,1
1,44,0,62
1,47,113,2
1,47,0,124
1,38,110,4
1,38,0,187
1,45,110,5
1,45,0,63
1,33,108,1
1,33,0,114
1,37,113,14
1,37,0,160
1,37,106,32
1,37,0,63
1,38,107,1
1,38,0,161
1,40,111,31
1,40,0,1523
1,38,108,13
1,38,0,703
1,45,109,1
1,45,0,805
1,45,110,27
1,45,0,1060
1,43,110,28
1,43,0,147
1,43,108,45
1,43,0,227
1,40,113,29
1,40,0,694
1,40,111,10
1,40,0,810
1,40,116,22
1,40,0,575
1,47,113,1
1,47,0,127
1,52,110,1
1,52,0,432
1,47,110,16
1,47,0,191
1,40,109,1
1,40,0,173
1,38,113,19
1,38,0,692
1,45,111,12
1,45,0,369
1,38,109,15
1,38,0,255
1,45,108,1
1,45,0,184
1,45,113,8
1,45,0,570
1,40,107,198
1,40,0,273
1,43,111,47
1,43,0,125
1,43,108,67
1,43,0,217
1,40,111,39
1,40,0,383
1,52,109,1
1,52,0,264
1,52,111,1
1,52,0,109
1,52,105,5
1,52,0,179
1,50,107,8
1,50,0,165
1,47,107,27
1,47,0,63
1,45,95,1
1,45,0,159
1,40,113,33
1,40,0,1513
1,40,113,23
1,40,0,188
1,52,111,4
1,52,0,178
1,42,109,14
1,42,0,127
1,44,107,1
1,44,0,47
1,47,113,17
1,47,0,102
1,38,109,26
1,38,0,185
1,45,113,7
1,45,0,58
1,33,109,6
1,33,0,93
1,37,110,35
1,37,0,152
1,37,105,40
1,37,0,63
1,38,107,1
1,38,0,161
1,40,110,31
1,40,0,191
1,52,111,1
1,52,0,161
1,42,109,31
1,42,0,127
1,44,107,1
1,44,0,49
1,47,110,15
1,47,0,123
1,38,111,5
1,38,0,174
1,45,108,18
1,45,0,56
1,33,108,8
1,33,0,105
1,37,110,23
1,37,0,154
1,37,108,38
1,37,0,63
1,38,105,1
1,38,0,152
1,40,113,40
1,40,0,188
1,52,111,4
1,52,0,178
1,42,109,14
1,42,0,127
1,44,107,1
1,44,0,47
1,47,113,17
1,47,0,102
1,38,109,26
1,38,0,185
1,45,113,7
1,45,0,58
1,33,109,6
1,33,0,93
1,37,110,35
1,37,0,152
1,37,105,40
1,37,0,63
1,38,107,1
1,38,0,161
1,40,110,31
1,40,0,191
1,52,111,1
1,52,0,161
1,42,109,31
1,42,0,127
1,44,107,1
1,44,0,49
1,47,110,15
1,47,0,123
1,38,111,5
1,38,0,174
1,45,108,18
1,45,0,56
1,33,108,8
1,33,0,105
1,37,110,23
1,37,0,154
1,37,108,38
1,37,0,63
1,38,105,1
1,38,0,152
1,40,113,40
1,40,0,188
1,52,111,4
1,52,0,178
1,42,109,14
1,42,0,127
1,44,107,1
1,44,0,47
1,47,113,17
1,47,0,102
1,38,109,26
1,38,0,185
1,45,113,7
1,45,0,58
1,33,109,6
1,33,0,93
1,37,110,35
1,37,0,152
1,37,105,40
1,37,0,63
1,38,107,1
1,38,0,161
1,40,110,31
1,40,0,191
1,52,111,1
1,52,0,161
1,42,109,31
1,42,0,127
1,44,107,1
1,44,0,49
1,47,110,15
1,47,0,123
1,38,111,5
1,38,0,174
1,45,108,18
1,45,0,56
1,33,108,8
1,33,0,105
1,37,110,23
1,37,0,154
1,37,108,38
1,37,0,63
1,38,105,1
1,38,0,152
1,40,113,40
1,40,0,188
1,52,111,4
1,52,0,178
1,42,109,14
1,42,0,127
1,44,107,1
1,44,0,47
1,47,113,17
1,47,0,102
1,38,109,26
1,38,0,185
1,45,113,7
1,45,0,58
1,33,109,6
1,33,0,93
1,37,110,35
1,37,0,152
1,37,105,40
1,37,0,63
1,38,107,1
1,38,0,161
1,40,110,31
1,40,0,191
1,52,111,1
1,52,0,161
1,42,109,31
1,42,0,127
1,44,107,1
1,44,0,49
1,47,110,15
1,47,0,123
1,38,111,5
1,38,0,174
1,45,108,18
1,45,0,56
1,33,108,8
1,33,0,105
1,37,110,23
1,37,0,154
1,37,108,38
1,37,0,63
1,38,105,1
1,38,0,152
1,40,111,40
1,40,0,1523
1,38,108,13
1,38,0,703
1,45,109,1
1,45,0,805
1,45,110,27
1,45,0,1060
1,43,110,28
1,43,0,147
1,43,108,45
1,43,0,227
1,40,113,29
1,40,0,694
1,40,111,10
1,40,0,810
1,40,116,22
1,40,0,575
1,47,113,1
1,47,0,127
1,52,110,1
1,52,0,432
1,47,110,16
1,47,0,191
1,40,109,1
1,40,0,173
1,38,113,19
1,38,0,692
1,45,111,12
1,45,0,369
1,38,109,15
1,38,0,255
1,45,108,1
1,45,0,183
1,45,113,9
1,45,0,568
1,40,107,200
1,40,0,273
1,43,111,47
1,43,0,125
1,43,108,67
1,43,0,217
1,40,111,39
1,40,0,1334
1,40,113,202
1,40,0,1513
1,40,111,23
1,40,0,1334
1,40,113,202
1,40,0,1513
1,40,113,23
1,40,0,188
1,52,111,4
1,52,0,178
1,42,109,14
1,42,0,127
1,44,107,1
1,44,0,47
1,47,113,17
1,47,0,102
1,38,109,26
1,38,0,185
1,45,113,7
1,45,0,58
1,33,109,6
1,33,0,93
1,37,110,35
1,37,0,152
1,37,105,40
1,37,0,63
1,38,107,1
1,38,0,161
1,40,110,31
1,40,0,191
1,52,111,1
1,52,0,161
1,42,109,31
1,42,0,127
1,44,107,1
1,44,0,49
1,47,110,15
1,47,0,123
1,38,111,5
1,38,0,174
1,45,108,18
1,45,0,56
1,33,108,8
1,33,0,105
1,37,110,23
1,37,0,154
1,37,108,38
1,37,0,63
1,38,105,1
1,38,0,152
1,40,113,40
1,40,0,188
1,52,111,4
1,52,0,178
1,42,109,14
1,42,0,127
1,44,107,1
1,44,0,47
1,47,113,17
1,47,0,102
1,38,109,26
1,38,0,185
1,45,113,7
1,45,0,58
1,33,109,6
1,33,0,93
1,37,110,35
1,37,0,152
1,37,105,40
1,37,0,63
1,38,107,1
1,38,0,161
1,40,110,31
1,40,0,191
1,52,111,1
1,52,0,161
1,42,109,31
1,42,0,127
1,44,107,1
1,44,0,49
1,47,110,15
1,47,0,123
1,38,111,5
1,38,0,174
1,45,108,18
1,45,0,56
1,33,108,8
1,33,0,105
1,37,110,23
1,37,0,154
1,37,108,38
1,37,0,63
1,38,105,1
1,38,0,152
1,40,113,40
1,40,0,188
1,52,111,4
1,52,0,178
1,42,109,14
1,42,0,127
1,44,107,1
1,44,0,47
1,47,113,17
1,47,0,102
1,38,109,26
1,38,0,185
1,45,113,7
1,45,0,58
1,33,109,6
1,33,0,93
1,37,110,35
1,37,0,152
1,37,105,40
1,37,0,63
1,38,107,1
1,38,0,161
1,40,110,31
1,40,0,191
1,52,111,1
1,52,0,161
1,42,109,31
1,42,0,127
1,44,107,1
1,44,0,49
1,47,110,15
1,47,0,123
1,38,111,5
1,38,0,174
1,45,108,18
1,45,0,56
1,33,108,8
1,33,0,105
1,37,110,23
1,37,0,154
1,37,108,38
1,37,0,63
1,38,105,1
1,38,0,152
1,40,113,40
1,40,0,188
1,52,111,4
1,52,0,178
1,42,109,14
1,42,0,127
1,44,107,1
1,44,0,47
1,47,113,17
1,47,0,102
1,38,109,26
1,38,0,185
1,45,113,7
1,45,0,58
1,33,109,6
1,33,0,93
1,37,110,35
1,37,0,152
1,37,105,40
1,37,0,63
1,38,107,1
1,38,0,161
1,40,110,31
1,40,0,191
1,52,111,1
1,52,0,161
1,42,109,31
1,42,0,127
1,44,107,1
1,44,0,49
1,47,110,15
1,47,0,123
1,38,111,5
1,38,0,174
1,45,108,18
1,45,0,56
1,33,108,8
1,33,0,105
1,37,110,23
1,37,0,154
1,37,108,38
1,37,0,63
1,38,105,1
1,38,0,152
1,40,111,40
1,40,0,383
1,28,113,1
1,28,0,1123
1,38,101,29
1,38,0,1465
1,45,111,71
1,45,0,1038
1,43,111,50
1,43,0,125
1,43,110,67
1,43,0,211
1,40,110,45
1,40,0,703
1,28,116,1
1,28,0,825
1,40,111,7
1,40,0,1483
1,40,111,53
1,40,0,1493
1,40,113,43
1,40,0,188
1,52,111,4
1,52,0,178
1,42,109,14
1,42,0,127
1,44,107,1
1,44,0,47
1,47,113,17
1,47,0,102
1,38,109,26
1,38,0,185
1,45,113,7
1,45,0,58
1,33,109,6
1,33,0,93
1,37,110,35
1,37,0,152
1,37,105,40
1,37,0,63
1,38,107,1
1,38,0,161
1,40,110,31
1,40,0,191
1,52,111,1
1,52,0,161
1,42,109,31
1,42,0,127
1,44,107,1
1,44,0,49
1,47,110,15
1,47,0,123
1,38,111,5
1,38,0,174
1,45,108,18
1,45,0,56
1,33,108,8
1,33,0,105
1,37,110,23
1,37,0,154
1,37,108,38
1,37,0,63
1,38,105,1
1,38,0,152
1,40,113,40
1,40,0,188
1,52,111,4
1,52,0,178
1,42,109,14
1,42,0,127
1,44,107,1
1,44,0,47
1,47,113,17
1,47,0,102
1,38,109,26
1,38,0,185
1,45,113,7
1,45,0,58
1,33,109,6
1,33,0,93
1,37,110,35
1,37,0,152
1,37,105,40
1,37,0,63
1,38,107,1
1,38,0,161
1,40,110,31
1,40,0,191
1,52,111,1
1,52,0,161
1,42,109,31
1,42,0,127
1,44,107,1
1,44,0,49
1,47,115,15
1,47,0,78
1,47,113,50
1,47,0,157
1,45,107,35
1,45,0,191
1,52,111,1
1,52,0,185
1,50,103,7
1,50,0,63
1,47,95,1
1,47,0,113
1,45,86,15
1,45,0,61
1,40,113,3
1,40,0,188
1,52,111,4
1,52,0,178
1,42,109,14
1,42,0,127
1,44,107,1
1,44,0,47
1,47,113,17
1,47,0,102
1,38,109,26
1,38,0,185
1,45,113,7
1,45,0,58
1,33,109,6
1,33,0,93
1,37,110,35
1,37,0,152
1,37,105,40
1,37,0,63
1,38,107,1
1,38,0,161
1,40,110,31
1,40,0,191
1,52,111,1
1,52,0,161
1,42,109,31
1,42,0,127
1,44,107,1
1,44,0,49
1,47,110,15
1,47,0,123
1,38,111,5
1,38,0,174
1,45,108,18
1,45,0,56
1,33,108,8
1,33,0,105
1,37,110,23
1,37,0,154
1,37,108,38
1,37,0,63
1,38,105,1
1,38,0,152
1,40,113,40
1,40,0,188
1,52,111,4
1,52,0,178
1,42,109,14
1,42,0,127
1,44,107,1
1,44,0,47
1,47,113,17
1,47,0,102
1,38,109,26
1,38,0,185
1,45,113,7
1,45,0,58
1,33,109,6
1,33,0,93
1,37,110,35
1,37,0,152
1,37,105,40
1,37,0,63
1,38,107,1
1,38,0,161
1,40,110,31
1,40,0,191
1,52,111,1
1,52,0,161
1,42,109,31
1,42,0,127
1,44,107,1
1,44,0,49
1,47,110,15
1,47,0,123
1,38,111,5
1,38,0,174
1,45,108,18
1,45,0,56
1,33,108,8
1,33,0,105
1,37,110,23
1,37,0,154
1,37,108,38
1,37,0,63
1,38,105,1
1,38,0,152
1,40,113,40
1,40,0,188
1,52,111,4
1,52,0,178
1,42,109,14
1,42,0,127
1,44,107,1
1,44,0,47
1,47,113,17
1,47,0,102
1,38,109,26
1,38,0,185
1,45,113,7
1,45,0,58
1,33,109,6
1,33,0,93
1,37,110,35
1,37,0,152
1,37,105,40
1,37,0,63
1,38,107,1
1,38,0,161
1,40,110,31
1,40,0,191
1,52,111,1
1,52,0,161
1,42,109,31
1,42,0,127
1,44,107,1
1,44,0,49
1,47,110,15
1,47,0,123
1,38,111,5
1,38,0,174
1,45,108,18
1,45,0,56
1,33,108,8
1,33,0,105
1,37,110,23
1,37,0,154
1,37,108,38
1,37,0,63
1,38,105,1
1,38,0,152
1,40,113,40
1,40,0,188
1,52,111,4
1,52,0,178
1,42,109,14
1,42,0,127
1,44,107,1
1,44,0,47
1,47,113,17
1,47,0,102
1,38,109,26
1,38,0,185
1,45,113,7
1,45,0,58
1,33,109,6
1,33,0,93
1,37,110,35
1,37,0,152
1,37,105,40
1,37,0,63
1,38,107,1
1,38,0,161
1,40,110,31
1,40,0,191
1,52,111,1
1,52,0,161
1,42,109,31
1,42,0,127
1,44,107,1
1,44,0,49
1,47,110,15
1,47,0,123
1,38,111,5
1,38,0,174
1,45,108,18
1,45,0,56
1,33,108,8
1,33,0,105
1,37,110,23
1,37,0,154
1,37,108,38
1,37,0,63
1,38,105,1
1,38,0,152
1,40,113,40
1,40,0,191
1,52,108,1
1,52,0,181
1,42,106,11
1,42,0,125
1,44,97,3
1,44,0,61
1,47,108,3
1,47,0,110
1,38,108,18
1,38,0,831
1,40,109,1
1,40,0,188
1,52,110,4
1,52,0,180
1,42,107,12
1,42,0,127
1,44,103,1
1,44,0,63
1,47,108,1
1,47,0,125
1,38,107,3
1,38,0,789
1,40,113,43
1,40,0,191
1,52,108,1
1,52,0,181
1,42,106,11
1,42,0,125
1,44,97,3
1,44,0,61
1,47,108,3
1,47,0,110
1,38,108,18
1,38,0,831
1,40,109,1
1,40,0,188
1,52,110,4
1,52,0,180
1,42,107,12
1,42,0,127
1,44,103,1
1,44,0,63
1,47,108,1
1,47,0,125
1,38,107,3
1,38,0,789
2,69,116,854
2,69,0,185
2,69,114,7
2,69,0,59
2,71,107,5
2,71,0,186
2,64,115,6
2,64,0,1041
2,69,118,47
2,69,0,173
2,69,114,19
2,69,0,63
2,71,114,1
2,71,0,186
2,64,114,6
2,64,0,1068
2,69,117,20
2,69,0,169
2,69,113,23
2,69,0,63
2,71,113,1
2,71,0,190
2,64,114,2
2,64,0,182
2,68,117,10
2,68,0,176
2,69,107,16
2,69,0,127
2,68,112,1
2,68,0,58
2,69,98,6
2,69,0,116
2,66,110,12
2,66,0,172
2,66,112,20
2,66,0,63
2,64,107,1
2,64,0,163
2,62,108,29
2,62,0,123
2,62,106,5
2,62,0,44
2,64,102,20
2,64,0,119
2,62,102,9
2,62,0,63
2,64,110,1
2,64,0,174
2,68,116,18
2,68,0,165
2,69,106,27
2,69,0,127
2,68,110,1
2,68,0,63
2,69,100,1
2,69,0,101
2,66,113,27
2,66,0,161
2,66,115,31
2,66,0,63
2,64,112,1
2,64,0,155
2,62,108,37
2,62,0,126
2,62,107,2
2,62,0,60
2,64,109,4
2,64,0,108
2,62,99,20
2,62,0,53
2,64,108,11
2,64,0,168
2,68,116,24
2,68,0,182
2,69,105,10
2,69,0,127
2,68,113,1
2,68,0,63
2,69,94,1
2,69,0,106
2,66,112,22
2,66,0,168
2,66,112,24
2,66,0,63
2,64,105,1
2,64,0,163
2,62,109,29
2,62,0,106
2,62,110,22
2,62,0,63
2,64,104,1
2,64,0,109
2,62,102,19
2,62,0,59
2,64,106,5
2,64,0,176
2,68,116,16
2,68,0,181
2,69,98,11
2,69,0,127
2,68,107,1
2,68,0,63
2,69,97,1
2,69,0,97
2,66,112,31
2,66,0,93
2,66,110,99
2,66,0,64
2,66,112,128
2,66,0,63
2,64,98,129
2,64,0,235
2,68,106,1109
2,68,0,58
2,69,100,6
2,69,0,191
