track,note,velocity,time
2,35,127,29560
2,35,127,193
2,35,127,203
2,35,127,189
2,35,127,180
2,35,127,166
2,35,127,173
2,35,127,2687
2,35,127,170
2,35,127,2656
2,35,127,106
2,35,127,242
2,35,127,233
2,35,127,243
2,35,127,245
2,35,127,264
2,35,127,261
2,35,127,220
2,35,127,122
2,35,127,119
2,35,127,257
2,35,127,260
2,35,127,270
2,35,127,259
2,35,127,269
2,35,127,276
2,35,127,650
2,35,127,242
2,35,127,233
2,35,127,243
2,35,127,245
2,35,127,264
2,35,127,261
2,35,127,220
2,35,127,122
2,35,127,119
2,35,127,257
2,35,127,260
2,35,127,270
2,35,127,259
2,35,127,269
2,35,127,276
2,35,127,266
2,35,127,170
2,35,127,96
2,35,127,242
2,35,127,233
2,35,127,243
2,35,127,245
2,35,127,264
2,35,127,261
2,35,127,220
2,35,127,122
2,35,127,119
2,35,127,257
2,35,127,260
2,35,127,270
2,35,127,259
2,35,127,269
2,35,127,180
2,35,127,96
2,35,127,74
2,35,127,74
2,35,127,74
2,35,127,74
2,35,127,242
2,35,127,233
2,35,127,243
2,35,127,245
2,35,127,264
2,35,127,261
2,35,127,220
2,35,127,122
2,35,127,119
2,35,127,257
2,35,127,260
2,35,127,270
2,35,127,259
2,35,127,269
2,35,127,276
2,35,127,266
2,35,127,170
2,35,127,96
2,35,127,242
2,35,127,233
2,35,127,243
2,35,127,245
2,35,127,264
2,35,127,261
2,35,127,220
2,35,127,122
2,35,127,119
2,35,127,257
2,35,127,260
2,35,127,270
2,35,127,259
2,35,127,269
2,35,127,180
2,35,127,96
2,35,127,74
2,35,127,74
2,35,127,74
2,35,127,74
2,35,56,146
2,35,127,40
2,35,56,137
2,35,127,40
2,35,56,147
2,35,127,40
2,35,60,149
2,35,127,40
2,35,125,1416
2,35,127,14638
2,35,127,242
2,35,127,233
2,35,127,243
2,35,127,245
2,35,127,264
2,35,127,261
2,35,127,220
2,35,127,122
2,35,127,119
2,35,127,257
2,35,127,260
2,35,127,270
2,35,127,259
2,35,127,269
2,35,127,276
2,35,127,266
2,35,127,170
2,35,127,96
2,35,127,242
2,35,127,233
2,35,127,243
2,35,127,245
2,35,127,264
2,35,127,261
2,35,127,220
2,35,127,122
2,35,127,119
2,35,127,257
2,35,127,260
2,35,127,270
2,35,127,259
2,35,127,269
2,35,127,180
2,35,127,96
2,35,127,74
2,35,127,74
2,35,127,74
2,35,127,74
2,35,127,242
2,35,127,233
2,35,127,243
2,35,127,245
2,35,127,264
2,35,127,261
2,35,127,220
2,35,127,122
2,35,127,119
2,35,127,242
2,35,127,233
2,35,127,243
2,35,127,245
2,35,127,264
2,35,127,261
2,35,127,220
2,35,127,122
2,35,127,119
2,35,127,257
2,35,127,260
2,35,127,270
2,35,127,259
2,35,127,269
2,35,127,276
2,35,127,266
2,35,127,170
2,35,127,96
2,35,127,242
2,35,127,233
2,35,127,243
2,35,127,245
2,35,127,264
2,35,127,261
2,35,127,220
2,35,127,122
2,35,127,119
2,35,127,257
2,35,127,260
2,35,127,270
2,35,127,259
2,35,127,269
2,35,127,276
2,35,127,266
2,35,127,170
2,35,127,96
2,35,127,242
2,35,127,233
2,35,127,243
2,35,127,245
2,35,127,264
2,35,127,261
2,35,120,604
2,35,127,11610
2,35,127,242
2,35,127,233
2,35,127,243
2,35,127,245
2,35,127,264
2,35,127,261
2,35,127,220
2,35,127,122
2,35,127,119
2,35,127,257
2,35,127,260
2,35,127,270
2,35,127,259
2,35,127,269
2,35,127,276
2,35,127,266
2,35,127,170
2,35,127,96
2,35,127,242
2,35,127,233
2,35,127,243
2,35,127,245
2,35,127,264
2,35,127,261
2,35,127,220
2,35,127,122
2,35,127,119
2,35,127,257
2,35,127,260
2,35,127,270
2,35,127,259
2,35,127,269
2,35,127,276
2,35,127,170
2,35,127,96
2,35,127,74
2,35,127,74
2,35,127,242
2,35,127,233
2,35,127,243
2,35,127,245
2,35,127,264
2,35,127,261
2,35,127,220
2,35,127,122
2,35,127,119
2,35,127,257
2,35,127,260
2,35,127,270
2,35,127,259
2,35,127,269
2,35,127,276
2,35,127,266
2,35,127,170
2,35,127,96
2,35,127,242
2,35,127,233
2,35,127,243
2,35,127,245
2,35,127,264
2,35,127,261
2,35,127,220
2,35,127,122
2,35,127,119
2,35,127,257
2,35,127,260
2,35,127,270
2,35,127,259
2,35,127,269
2,35,127,180
2,35,127,96
2,35,127,74
2,35,127,74
2,35,127,74
2,35,127,74
2,35,56,146
2,35,127,40
2,35,56,137
2,35,127,40
2,35,56,147
2,35,127,40
2,35,60,149
2,35,127,40
2,35,127,13704
2,35,127,242
2,35,127,233
2,35,127,243
2,35,127,245
2,35,127,264
2,35,127,261
2,35,127,220
2,35,127,122
2,35,127,119
2,35,127,257
2,35,127,260
2,35,127,270
2,35,127,259
2,35,127,269
2,35,127,276
2,35,127,266
2,35,127,266
2,35,127,182
2,35,127,197
2,35,127,161
2,35,127,52
2,35,127,89
2,35,127,78
2,35,127,242
2,35,127,233
2,35,127,243
2,35,127,245
2,35,127,264
2,35,127,261
2,35,127,220
2,35,127,122
2,35,127,119
2,35,127,257
2,35,127,260
2,35,127,270
2,35,127,259
2,35,127,269
2,35,127,276
2,35,127,266
2,35,127,170
2,35,127,96
2,35,127,242
2,35,127,233
2,35,127,243
2,35,127,245
2,35,127,264
2,35,127,261
2,35,127,220
2,35,127,122
2,35,127,119
2,35,127,257
2,35,127,260
2,35,127,270
2,35,127,259
2,35,127,242
2,35,127,1001
2,35,127,242
2,35,127,233
2,35,127,243
2,35,127,245
2,35,127,264
2,35,127,261
2,35,127,220
2,35,127,122
2,35,127,119
2,35,127,257
2,35,127,260
2,35,127,270
2,35,127,259
2,35,127,269
2,35,127,276
2,35,127,266
2,35,127,170
2,35,127,96
2,35,127,242
2,35,127,233
2,35,127,243
2,35,127,245
2,35,127,264
2,35,127,261
2,35,127,220
2,35,127,122
2,35,127,119
2,35,127,257
2,35,127,260
2,35,127,270
2,35,127,259
2,35,127,269
2,35,127,180
2,35,127,96
2,35,127,74
2,35,127,74
2,35,127,74
2,35,127,74
2,35,127,242
2,35,127,233
2,35,127,243
2,35,127,245
2,35,127,264
2,35,127,261
3,36,104,29556
3,36,104,224
3,36,104,209
3,36,104,178
3,36,104,197
3,36,104,174
3,36,107,199
3,36,107,2503
3,36,107,168
3,36,107,2622
3,36,107,113
3,36,107,241
3,36,107,225
3,36,107,234
3,36,107,235
3,36,107,237
3,36,107,242
3,36,107,230
3,36,107,127
3,36,107,120
3,36,107,252
3,36,107,269
3,36,107,278
3,36,107,278
3,36,107,286
3,36,107,293
3,36,107,669
3,36,107,241
3,36,107,225
3,36,107,234
3,36,107,235
3,36,107,237
3,36,107,242
3,36,107,230
3,36,107,127
3,36,107,120
3,36,107,252
3,36,107,269
3,36,107,278
3,36,107,278
3,36,107,286
3,36,107,293
3,36,107,285
3,36,107,189
3,36,107,96
3,36,107,241
3,36,107,225
3,36,107,234
3,36,107,235
3,36,107,237
3,36,107,242
3,36,107,230
3,36,107,127
3,36,107,120
3,36,107,252
3,36,107,269
3,36,107,278
3,36,107,278
3,36,107,286
3,36,107,197
3,36,107,96
3,36,107,93
3,36,107,93
3,36,107,93
3,36,107,93
3,36,107,241
3,36,107,225
3,36,107,234
3,36,107,235
3,36,107,237
3,36,107,242
3,36,107,230
3,36,107,127
3,36,107,120
3,36,107,252
3,36,107,269
3,36,107,278
3,36,107,278
3,36,107,286
3,36,107,293
3,36,107,285
3,36,107,189
3,36,107,96
3,36,107,241
3,36,107,225
3,36,107,234
3,36,107,235
3,36,107,237
3,36,107,242
3,36,107,230
3,36,107,127
3,36,107,120
3,36,107,252
3,36,107,269
3,36,107,278
3,36,107,278
3,36,107,286
3,36,107,197
3,36,107,96
3,36,107,93
3,36,107,93
3,36,107,93
3,36,107,93
3,36,36,145
3,36,107,40
3,36,36,129
3,36,107,40
3,36,36,138
3,36,107,40
3,36,40,139
3,36,107,40
3,36,104,1389
3,36,107,14627
3,36,107,241
3,36,107,225
3,36,107,234
3,36,107,235
3,36,107,237
3,36,107,242
3,36,107,230
3,36,107,127
3,36,107,120
3,36,107,252
3,36,107,269
3,36,107,278
3,36,107,278
3,36,107,286
3,36,107,293
3,36,107,285
3,36,107,189
3,36,107,96
3,36,107,241
3,36,107,225
3,36,107,234
3,36,107,235
3,36,107,237
3,36,107,242
3,36,107,230
3,36,107,127
3,36,107,120
3,36,107,252
3,36,107,269
3,36,107,278
3,36,107,278
3,36,107,286
3,36,107,197
3,36,107,96
3,36,107,93
3,36,107,93
3,36,107,93
3,36,107,93
3,36,107,241
3,36,107,225
3,36,107,234
3,36,107,235
3,36,107,237
3,36,107,242
3,36,107,230
3,36,107,127
3,36,107,120
3,36,107,241
3,36,107,225
3,36,107,234
3,36,107,235
3,36,107,237
3,36,107,242
3,36,107,230
3,36,107,127
3,36,107,120
3,36,107,252
3,36,107,269
3,36,107,278
3,36,107,278
3,36,107,286
3,36,107,293
3,36,107,285
3,36,107,189
3,36,107,96
3,36,107,241
3,36,107,225
3,36,107,234
3,36,107,235
3,36,107,237
3,36,107,242
3,36,107,230
3,36,107,127
3,36,107,120
3,36,107,252
3,36,107,269
3,36,107,278
3,36,107,278
3,36,107,286
3,36,107,293
3,36,107,285
3,36,107,189
3,36,107,96
3,36,107,241
3,36,107,225
3,36,107,234
3,36,107,235
3,36,107,237
3,36,107,242
3,36,99,614
3,36,107,11661
3,36,107,241
3,36,107,225
3,36,107,234
3,36,107,235
3,36,107,237
3,36,107,242
3,36,107,230
3,36,107,127
3,36,107,120
3,36,107,252
3,36,107,269
3,36,107,278
3,36,107,278
3,36,107,286
3,36,107,293
3,36,107,285
3,36,107,189
3,36,107,96
3,36,107,241
3,36,107,225
3,36,107,234
3,36,107,235
3,36,107,237
3,36,107,242
3,36,107,230
3,36,107,127
3,36,107,120
3,36,107,252
3,36,107,269
3,36,107,278
3,36,107,278
3,36,107,286
3,36,107,293
3,36,107,189
3,36,107,96
3,36,107,93
3,36,107,93
3,36,107,241
3,36,107,225
3,36,107,234
3,36,107,235
3,36,107,237
3,36,107,242
3,36,107,230
3,36,107,127
3,36,107,120
3,36,107,252
3,36,107,269
3,36,107,278
3,36,107,278
3,36,107,286
3,36,107,293
3,36,107,285
3,36,107,189
3,36,107,96
3,36,107,241
3,36,107,225
3,36,107,234
3,36,107,235
3,36,107,237
3,36,107,242
3,36,107,230
3,36,107,127
3,36,107,120
3,36,107,252
3,36,107,269
3,36,107,278
3,36,107,278
3,36,107,286
3,36,107,197
3,36,107,96
3,36,107,93
3,36,107,93
3,36,107,93
3,36,107,93
3,36,36,145
3,36,107,40
3,36,36,129
3,36,107,40
3,36,36,138
3,36,107,40
3,36,40,139
3,36,107,40
3,36,107,13677
3,36,107,241
3,36,107,225
3,36,107,234
3,36,107,235
3,36,107,237
3,36,107,242
3,36,107,230
3,36,107,127
3,36,107,120
3,36,107,252
3,36,107,269
3,36,107,278
3,36,107,278
3,36,107,286
3,36,107,293
3,36,107,285
3,36,107,285
3,36,107,188
3,36,107,201
3,36,107,156
3,36,107,45
3,36,107,108
3,36,107,97
3,36,107,241
3,36,107,225
3,36,107,234
3,36,107,235
3,36,107,237
3,36,107,242
3,36,107,230
3,36,107,127
3,36,107,120
3,36,107,252
3,36,107,269
3,36,107,278
3,36,107,278
3,36,107,286
3,36,107,293
3,36,107,285
3,36,107,189
3,36,107,96
3,36,107,241
3,36,107,225
3,36,107,234
3,36,107,235
3,36,107,237
3,36,107,242
3,36,107,230
3,36,107,127
3,36,107,120
3,36,107,252
3,36,107,269
3,36,107,278
3,36,107,278
3,36,107,241
3,36,107,993
3,36,107,241
3,36,107,225
3,36,107,234
3,36,107,235
3,36,107,237
3,36,107,242
3,36,107,230
3,36,107,127
3,36,107,120
3,36,107,252
3,36,107,269
3,36,107,278
3,36,107,278
3,36,107,286
3,36,107,293
3,36,107,285
3,36,107,189
3,36,107,96
3,36,107,241
3,36,107,225
3,36,107,234
3,36,107,235
3,36,107,237
3,36,107,242
3,36,107,230
3,36,107,127
3,36,107,120
3,36,107,252
3,36,107,269
3,36,107,278
3,36,107,278
3,36,107,286
3,36,107,197
3,36,107,96
3,36,107,93
3,36,107,93
3,36,107,93
3,36,107,93
3,36,107,241
3,36,107,225
3,36,107,234
3,36,107,235
3,36,107,237
3,36,107,242
4,38,6,32624
4,38,45,50
4,38,8,53
4,38,4,45
4,38,76,42
4,38,14,27
4,38,35,43
4,38,14,35
4,38,19,71
4,38,25,40
4,38,78,32
4,38,23,15
4,38,10,39
4,38,1,28
4,38,41,49
4,38,17,27
4,38,6,0
4,38,45,50
4,38,8,53
4,38,4,45
4,38,76,42
4,38,14,27
4,38,35,43
4,38,14,35
4,38,19,71
4,38,25,40
4,38,78,32
4,38,23,15
4,38,10,39
4,38,1,28
4,38,41,49
4,38,17,27
4,38,6,0
4,38,45,50
4,38,8,53
4,38,4,45
4,38,76,42
4,38,14,27
4,38,35,43
4,38,14,35
4,38,19,71
4,38,25,40
4,38,78,32
4,38,23,15
4,38,10,39
4,38,1,28
4,38,41,49
4,38,17,27
4,38,6,0
4,38,45,50
4,38,8,53
4,38,4,45
4,38,76,42
4,38,14,27
4,38,35,43
4,38,14,35
4,38,19,71
4,38,25,40
4,38,78,32
4,38,23,15
4,38,10,39
4,38,1,28
4,38,41,49
4,38,17,27
4,38,6,0
4,38,45,50
4,38,8,53
4,38,4,45
4,38,76,42
4,38,14,27
4,38,35,43
4,38,14,35
4,38,19,71
4,38,25,40
4,38,78,32
4,38,23,15
4,38,10,39
4,38,1,28
4,38,41,49
4,38,17,27
4,38,6,0
4,38,45,50
4,38,8,53
4,38,4,45
4,38,76,42
4,38,14,27
4,38,35,43
4,38,14,35
4,38,19,71
4,38,25,40
4,38,78,32
4,38,23,15
4,38,10,39
4,38,1,28
4,38,41,49
4,38,17,27
4,38,6,0
4,38,45,50
4,38,8,53
4,38,4,45
4,38,76,42
4,38,14,27
4,38,35,43
4,38,14,35
4,38,19,71
4,38,25,40
4,38,78,32
4,38,23,15
4,38,10,39
4,38,1,28
4,38,41,49
4,38,17,27
4,38,6,0
4,38,45,50
4,38,8,53
4,38,4,45
4,38,76,42
4,38,14,27
4,38,35,43
4,38,14,35
4,38,19,71
4,38,25,40
4,38,78,32
4,38,23,15
4,38,10,39
4,38,1,28
4,38,41,49
4,38,17,27
4,38,6,0
4,38,45,50
4,38,8,53
4,38,4,45
4,38,76,42
4,38,14,27
4,38,35,43
4,38,14,35
4,38,19,71
4,38,25,40
4,38,78,32
4,38,23,15
4,38,10,39
4,38,1,28
4,38,41,49
4,38,17,27
4,38,6,0
4,38,45,50
4,38,8,53
4,38,4,45
4,38,76,42
4,38,14,27
4,38,35,43
4,38,14,35
4,38,19,71
4,38,25,40
4,38,78,32
4,38,23,15
4,38,10,39
4,38,1,28
4,38,41,49
4,38,17,27
4,38,6,0
4,38,45,50
4,38,8,53
4,38,4,45
4,38,76,42
4,38,14,27
4,38,35,43
4,38,14,35
4,38,19,71
4,38,25,40
4,38,78,32
4,38,23,15
4,38,10,39
4,38,1,28
4,38,41,49
4,38,17,27
4,38,6,0
4,38,45,50
4,38,8,53
4,38,4,45
4,38,76,42
4,38,14,27
4,38,35,43
4,38,14,35
4,38,19,71
4,38,25,40
4,38,78,32
4,38,23,15
4,38,10,39
4,38,1,28
4,38,41,49
4,38,17,27
4,38,6,0
4,38,45,50
4,38,8,53
4,38,4,45
4,38,76,42
4,38,14,27
4,38,35,43
4,38,14,35
4,38,19,71
4,38,25,40
4,38,78,32
4,38,23,15
4,38,10,39
4,38,1,28
4,38,41,49
4,38,17,27
4,38,6,0
4,38,45,50
4,38,8,53
4,38,4,45
4,38,76,42
4,38,14,27
4,38,35,43
4,38,14,35
4,38,19,71
4,38,25,40
4,38,78,32
4,38,23,15
4,38,10,39
4,38,1,28
4,38,41,49
4,38,17,27
