track,note,velocity,time
0,42,100,592
0,42,85,368
0,42,85,368
0,42,85,368
0,65,117,464
0,39,90,0
0,51,90,0
0,63,90,0
0,66,90,0
0,70,90,0
0,75,90,0
0,63,127,0
0,0,127,0
0,35,60,0
0,35,72,0
0,36,80,0
0,57,90,0
0,63,127,192
0,63,127,96
0,63,127,96
0,32,107,0
0,44,107,0
0,56,107,0
0,59,107,0
0,63,107,0
0,68,107,0
0,32,90,0
0,44,90,0
0,56,90,0
0,59,90,0
0,63,90,0
0,68,90,0
0,66,127,0
0,68,127,96
0,34,107,0
0,46,107,0
0,58,107,0
0,61,107,0
0,65,107,0
0,70,107,0
0,34,90,0
0,46,90,0
0,58,90,0
0,61,90,0
0,65,90,0
0,70,90,0
0,65,127,0
0,39,107,0
0,51,107,0
0,63,107,0
0,66,107,0
0,70,107,0
0,75,107,0
0,39,90,0
0,51,90,0
0,63,90,0
0,66,90,0
0,70,90,0
0,75,90,0
0,63,127,0
0,63,127,96
0,63,127,96
0,63,127,96
0,32,107,0
0,44,107,0
0,56,107,0
0,59,107,0
0,63,107,0
0,68,107,0
0,32,90,0
0,44,90,0
0,56,90,0
0,59,90,0
0,63,90,0
0,68,90,0
0,66,127,0
0,68,127,96
0,34,107,0
0,46,107,0
0,58,107,0
0,61,107,0
0,65,107,0
0,70,107,0
0,34,90,0
0,46,90,0
0,58,90,0
0,61,90,0
0,65,90,0
0,70,90,0
0,65,127,0
0,65,117,96
0,37,107,0
0,49,107,0
0,61,107,0
0,65,107,0
0,68,107,0
0,73,107,0
0,37,90,0
0,49,90,0
0,61,90,0
0,65,90,0
0,68,90,0
0,73,90,0
0,39,107,0
0,51,107,0
0,63,107,0
0,66,107,0
0,70,107,0
0,75,107,0
0,39,90,0
0,51,90,0
0,63,90,0
0,66,90,0
0,70,90,0
0,75,90,0
0,63,127,0
0,0,127,0
0,35,60,0
0,35,72,0
0,36,80,0
0,57,90,0
0,76,75,0
0,63,127,96
0,76,75,0
0,63,127,96
0,63,127,96
0,63,127,96
0,63,127,96
0,66,127,96
0,66,127,96
0,63,127,96
0,66,127,96
0,63,127,96
0,66,127,96
0,66,127,96
0,32,107,0
0,44,107,0
0,56,107,0
0,59,107,0
0,63,107,0
0,68,107,0
0,32,90,0
0,44,90,0
0,56,90,0
0,59,90,0
0,63,90,0
0,68,90,0
0,68,127,0
0,68,127,96
0,66,127,96
0,68,127,96
0,66,127,96
0,68,127,96
0,34,107,0
0,46,107,0
0,58,107,0
0,61,107,0
0,65,107,0
0,70,107,0
0,34,90,0
0,46,90,0
0,58,90,0
0,61,90,0
0,65,90,0
0,70,90,0
0,73,127,0
0,70,127,96
0,68,127,96
0,70,127,96
0,39,107,0
0,51,107,0
0,63,107,0
0,66,107,0
0,70,107,0
0,75,107,0
0,39,90,0
0,51,90,0
0,63,90,0
0,66,90,0
0,70,90,0
0,75,90,0
0,63,127,0
0,63,127,96
0,63,127,96
0,63,127,96
0,63,127,96
0,63,127,96
0,66,127,96
0,66,127,96
0,63,127,96
0,66,127,96
0,63,127,96
0,66,127,96
0,66,127,96
0,32,107,0
0,44,107,0
0,56,107,0
0,59,107,0
0,63,107,0
0,68,107,0
0,32,90,0
0,44,90,0
0,56,90,0
0,59,90,0
0,63,90,0
0,68,90,0
0,68,127,0
0,68,127,96
0,66,127,96
0,68,127,96
0,66,127,96
0,68,127,96
0,34,107,0
0,46,107,0
0,58,107,0
0,61,107,0
0,65,107,0
0,70,107,0
0,34,90,0
0,46,90,0
0,58,90,0
0,61,90,0
0,65,90,0
0,70,90,0
0,73,127,0
0,70,127,96
0,73,127,96
0,37,107,0
0,49,107,0
0,61,107,0
0,65,107,0
0,68,107,0
0,73,107,0
0,37,90,0
0,49,90,0
0,61,90,0
0,65,90,0
0,68,90,0
0,73,90,0
0,75,127,96
0,39,107,0
0,51,107,0
0,63,107,0
0,66,107,0
0,70,107,0
0,75,107,0
0,39,90,0
0,51,90,0
0,63,90,0
0,66,90,0
0,70,90,0
0,75,90,0
0,63,127,0
0,0,127,0
0,35,60,0
0,35,72,0
0,36,80,0
0,57,90,0
0,76,75,0
0,63,127,96
0,76,75,0
0,63,127,96
0,63,127,96
0,63,127,96
0,63,127,96
0,66,127,96
0,66,127,96
0,63,127,96
0,66,127,96
0,63,127,96
0,66,127,96
0,66,127,96
0,32,107,0
0,44,107,0
0,56,107,0
0,59,107,0
0,63,107,0
0,68,107,0
0,32,90,0
0,44,90,0
0,56,90,0
0,59,90,0
0,63,90,0
0,68,90,0
0,92,60,0
0,68,127,0
0,40,23,0
0,40,23,0
0,68,127,72
0,40,24,0
0,40,24,0
0,66,127,72
0,40,25,0
0,40,26,0
0,68,127,72
0,40,26,0
0,40,27,72
0,40,27,72
0,40,28,0
0,66,127,72
0,40,29,0
0,40,29,0
0,68,127,72
0,40,30,0
0,40,30,72
0,40,31,72
0,40,31,0
0,34,107,0
0,46,107,0
0,58,107,0
0,61,107,0
0,65,107,0
0,70,107,0
0,34,90,0
0,46,90,0
0,58,90,0
0,61,90,0
0,65,90,0
0,70,90,0
0,94,60,0
0,73,127,0
0,40,32,0
0,40,33,72
0,40,33,0
0,70,127,72
0,40,34,0
0,40,34,72
0,40,35,0
0,68,127,72
0,40,36,0
0,40,36,72
0,40,37,72
0,40,37,0
0,70,127,72
0,40,38,0
0,40,38,72
0,40,39,72
0,40,40,0
0,40,40,72
0,40,41,72
0,39,107,0
0,51,107,0
0,63,107,0
0,66,107,0
0,70,107,0
0,75,107,0
0,39,90,0
0,51,90,0
0,63,90,0
0,66,90,0
0,70,90,0
0,75,90,0
0,87,60,0
0,63,127,0
0,40,41,0
0,40,42,72
0,40,43,72
0,40,43,0
0,63,127,72
0,40,44,0
0,40,44,0
0,63,127,72
0,40,45,0
0,40,45,72
0,40,46,72
0,40,47,0
0,63,127,72
0,40,47,0
0,40,48,0
0,63,127,72
0,40,48,0
0,40,49,0
0,63,127,72
0,40,50,0
0,40,50,0
0,66,127,72
0,40,51,0
0,40,51,0
0,66,127,72
0,40,52,0
0,40,52,0
0,63,127,72
0,40,53,0
0,40,54,0
0,66,127,72
0,40,54,0
0,40,55,72
0,40,55,72
0,40,56,0
0,63,127,72
0,40,57,0
0,40,57,0
0,66,127,72
0,40,58,0
0,40,58,0
0,66,127,72
0,40,59,0
0,40,59,0
0,68,127,0
0,28,80,0
0,40,80,0
0,0,127,0
0,35,60,0
0,35,72,0
0,36,80,0
0,57,90,0
0,68,127,96
0,66,127,96
0,68,127,96
0,35,60,192
0,36,80,0
0,57,90,0
0,66,127,96
0,68,127,96
0,73,127,0
0,35,60,0
0,36,80,0
0,57,90,0
0,70,127,96
0,35,60,96
0,36,80,0
0,57,90,0
0,73,127,96
0,58,110,192
0,70,110,0
0,58,127,0
0,70,127,0
0,46,110,34
0,46,127,0
0,75,127,96
0,56,110,0
0,68,110,0
0,56,127,0
0,68,127,0
0,44,110,30
0,44,127,0
0,56,110,16
0,68,110,0
0,56,127,0
0,68,127,0
0,44,110,34
0,44,127,0
0,54,110,0
0,66,110,0
0,54,127,0
0,66,127,0
0,42,110,0
0,42,127,0
0,52,110,62
0,64,110,0
0,52,127,0
0,64,127,0
0,40,110,34
0,40,127,0
0,51,110,0
0,63,110,0
0,28,80,0
0,40,80,0
0,0,127,0
0,35,60,0
0,35,72,0
0,36,80,0
0,39,80,0
0,57,90,0
0,51,127,0
0,63,127,0
0,39,110,10
0,39,127,0
0,46,80,128
0,55,50,0
0,51,110,62
0,63,110,0
0,39,80,0
0,51,127,0
0,63,127,0
0,39,110,10
0,39,127,0
0,46,80,158
0,55,50,0
0,51,110,62
0,63,110,0
0,39,80,0
0,51,127,0
0,63,127,0
0,39,110,10
0,39,127,0
0,46,80,0
0,55,50,0
0,51,110,62
0,63,110,0
0,51,127,0
0,63,127,0
0,39,110,34
0,39,127,0
0,39,80,62
0,56,110,0
0,68,110,0
0,46,80,0
0,55,50,0
0,56,127,0
0,68,127,0
0,44,110,0
0,44,127,0
0,51,110,0
0,63,110,0
0,39,80,0
0,51,127,0
0,63,127,0
0,39,110,0
0,39,127,0
0,51,110,62
0,63,110,0
0,46,80,0
0,55,50,0
0,51,127,0
0,63,127,0
0,39,110,10
0,39,127,0
0,51,110,62
0,63,110,0
0,39,80,0
0,51,127,0
0,63,127,0
0,39,110,10
0,39,127,0
0,46,80,158
0,55,50,0
0,51,110,62
0,63,110,0
0,39,80,0
0,51,127,0
0,63,127,0
0,39,110,10
0,39,127,0
0,46,80,0
0,55,50,0
0,51,110,62
0,63,110,0
0,51,127,0
0,63,127,0
0,39,110,34
0,39,127,0
0,39,80,62
0,58,110,0
0,70,110,0
0,35,60,0
0,36,80,0
0,46,80,0
0,55,50,0
0,58,127,0
0,70,127,0
0,46,110,0
0,46,127,0
0,51,110,0
0,63,110,0
0,35,60,0
0,36,80,0
0,39,80,0
0,51,127,0
0,63,127,0
0,39,110,0
0,39,127,0
0,46,80,158
0,55,50,0
0,51,110,62
0,63,110,0
0,39,80,0
0,51,127,0
0,63,127,0
0,39,110,10
0,39,127,0
0,46,80,158
0,55,50,0
0,51,110,62
0,63,110,0
0,39,80,0
0,51,127,0
0,63,127,0
0,39,110,10
0,39,127,0
0,46,80,0
0,55,50,0
0,51,110,62
0,63,110,0
0,51,127,0
0,63,127,0
0,39,110,34
0,39,127,0
0,39,80,62
0,56,110,0
0,68,110,0
0,46,80,0
0,55,50,0
0,56,127,0
0,68,127,0
0,44,110,0
0,44,127,0
0,51,110,0
0,63,110,0
0,39,80,0
0,51,127,0
0,63,127,0
0,39,110,0
0,39,127,0
0,51,110,62
0,63,110,0
0,46,80,0
0,55,50,0
0,51,127,0
0,63,127,0
0,39,110,10
0,39,127,0
0,51,110,62
0,63,110,0
0,39,80,0
0,51,127,0
0,63,127,0
0,39,110,10
0,39,127,0
0,46,80,158
0,55,50,0
0,58,110,0
0,70,110,0
0,35,60,0
0,36,80,0
0,39,80,0
0,58,127,0
0,70,127,0
0,46,110,0
0,46,127,0
0,58,110,62
0,70,110,0
0,46,80,0
0,55,50,0
0,58,127,0
0,70,127,0
0,46,110,10
0,46,127,0
0,35,60,0
0,36,80,0
0,58,110,62
0,70,110,0
0,39,80,0
0,58,127,0
0,70,127,0
0,46,110,10
0,46,127,0
0,56,110,0
0,68,110,0
0,35,60,0
0,36,80,0
0,46,80,0
0,55,50,0
0,56,127,0
0,68,127,0
0,44,110,0
0,44,127,0
0,51,110,0
0,63,110,0
0,35,60,0
0,36,80,0
0,39,80,0
0,57,90,0
0,51,127,0
0,63,127,0
0,39,110,0
0,39,127,0
0,46,80,158
0,55,55,0
0,51,110,62
0,63,110,0
0,39,80,0
0,51,127,0
0,63,127,0
0,39,110,10
0,39,127,0
0,46,80,158
0,55,55,0
0,51,110,62
0,63,110,0
0,39,80,0
0,51,127,0
0,63,127,0
0,39,110,10
0,39,127,0
0,46,80,0
0,55,55,0
0,51,110,62
0,63,110,0
0,51,127,0
0,63,127,0
0,39,110,34
0,39,127,0
0,39,80,62
0,56,110,0
0,68,110,0
0,46,80,0
0,55,55,0
0,56,127,0
0,68,127,0
0,44,110,0
0,44,127,0
0,51,110,0
0,63,110,0
0,39,80,0
0,51,127,0
0,63,127,0
0,39,110,0
0,39,127,0
0,51,110,62
0,63,110,0
0,46,80,0
0,55,55,0
0,51,127,0
0,63,127,0
0,39,110,10
0,39,127,0
0,51,110,62
0,63,110,0
0,39,80,0
0,51,127,0
0,63,127,0
0,39,110,10
0,39,127,0
0,46,80,158
0,55,55,0
0,51,110,62
0,63,110,0
0,39,80,0
0,51,127,0
0,63,127,0
0,39,110,10
0,39,127,0
0,46,80,0
0,55,55,0
0,51,110,62
0,63,110,0
0,51,127,0
0,63,127,0
0,39,110,34
0,39,127,0
0,39,80,62
0,58,110,0
0,70,110,0
0,35,60,0
0,36,80,0
0,46,80,0
0,55,55,0
0,58,127,0
0,70,127,0
0,46,110,0
0,46,127,0
0,51,110,0
0,63,110,0
0,35,60,0
0,36,80,0
0,39,80,0
0,57,90,0
0,51,127,0
0,63,127,0
0,39,110,0
0,39,127,0
0,46,80,158
0,55,55,0
0,51,110,62
0,63,110,0
0,39,80,0
0,51,127,0
0,63,127,0
0,39,110,10
0,39,127,0
0,46,80,158
0,55,55,0
0,51,110,62
0,63,110,0
0,35,60,0
0,36,80,0
0,39,80,0
0,57,90,0
0,51,127,0
0,63,127,0
0,39,110,10
0,39,127,0
0,46,80,0
0,55,55,0
0,51,110,62
0,63,110,0
0,51,127,0
0,63,127,0
0,39,110,34
0,39,127,0
0,39,80,62
0,56,110,0
0,68,110,0
0,46,80,0
0,55,55,0
0,56,127,0
0,68,127,0
0,44,110,0
0,44,127,0
0,51,110,0
0,63,110,0
0,35,60,0
0,36,80,0
0,39,80,0
0,57,90,0
0,51,127,0
0,63,127,0
0,39,110,0
0,39,127,0
0,51,110,62
0,63,110,0
0,51,127,0
0,63,127,0
0,39,110,34
0,39,127,0
0,51,110,62
0,63,110,0
0,35,60,0
0,36,80,0
0,57,90,0
0,51,127,0
0,63,127,0
0,39,110,10
0,39,127,0
0,58,110,0
0,70,110,0
0,35,60,0
0,36,80,0
0,57,90,0
0,58,127,0
0,70,127,0
0,46,110,0
0,46,127,0
0,58,110,62
0,70,110,0
0,35,60,0
0,36,80,0
0,58,127,0
0,70,127,0
0,46,110,10
0,46,127,0
0,35,60,0
0,36,80,0
0,58,110,62
0,70,110,0
0,35,60,0
0,36,80,0
0,58,127,0
0,70,127,0
0,46,110,10
0,46,127,0
0,56,110,0
0,68,110,0
0,35,60,0
0,36,80,0
0,56,127,0
0,68,127,0
0,44,110,0
0,44,127,0
0,39,80,0
0,51,110,0
0,63,110,0
0,35,60,0
0,36,80,0
0,39,80,0
0,57,90,0
0,51,127,0
0,63,127,0
0,39,110,0
0,39,127,0
0,51,80,10
0,46,80,0
0,55,50,0
0,51,80,0
0,39,80,10
0,51,110,0
0,63,110,0
0,35,60,0
0,36,80,0
0,39,80,0
0,51,127,0
0,63,127,0
0,39,110,10
0,39,127,0
0,51,80,12
0,46,80,0
0,55,50,0
0,51,80,0
0,39,80,12
0,51,110,0
0,63,110,0
0,35,60,0
0,36,80,0
0,39,80,0
0,51,127,0
0,63,127,0
0,39,110,10
0,39,127,0
0,51,80,0
0,46,80,0
0,55,50,0
0,51,80,44
0,51,110,0
0,63,110,0
0,51,127,0
0,63,127,0
0,39,110,34
0,39,127,0
0,39,80,4
0,35,60,0
0,36,80,0
0,39,80,0
0,46,80,0
0,56,110,0
0,68,110,0
0,46,80,0
0,55,50,0
0,56,127,0
0,68,127,0
0,44,110,0
0,44,127,0
0,46,80,62
0,39,80,0
0,51,110,0
0,63,110,0
0,35,60,0
0,36,80,0
0,39,80,0
0,51,127,0
0,63,127,0
0,39,110,0
0,39,127,0
0,51,80,20
0,51,110,0
0,63,110,0
0,46,80,0
0,55,50,0
0,51,127,0
0,63,127,0
0,39,110,10
0,39,127,0
0,51,80,0
0,39,80,10
0,51,110,0
0,63,110,0
0,35,60,0
0,36,80,0
0,39,80,0
0,51,127,0
0,63,127,0
0,39,110,10
0,39,127,0
0,51,80,22
0,46,80,0
0,55,50,0
0,51,80,0
0,39,80,16
0,51,110,0
0,63,110,0
0,35,60,0
0,36,80,0
0,39,80,0
0,51,127,0
0,63,127,0
0,39,110,10
0,39,127,0
0,51,80,0
0,46,80,0
0,55,50,0
0,51,110,62
0,63,110,0
0,51,127,0
0,63,127,0
0,39,110,16
0,39,127,0
0,46,80,62
0,35,60,0
0,36,80,0
0,39,80,0
0,46,80,40
0,46,80,0
0,58,110,0
0,70,110,0
0,46,80,0
0,55,50,0
0,58,127,0
0,70,127,0
0,46,110,0
0,46,127,0
0,46,80,28
0,35,60,0
0,36,80,0
0,39,80,0
0,51,110,0
0,63,110,0
0,35,60,0
0,36,80,0
0,39,80,0
0,51,127,0
