track,note,velocity,time
1,67,95,1920
1,72,98,210
1,76,104,198
1,76,101,538
1,76,104,550
1,74,101,386
1,76,101,158
1,74,98,40
1,76,89,32
1,74,101,24
1,72,95,192
1,67,86,1942
1,72,98,78
1,76,89,220
1,72,92,738
1,76,95,84
1,79,89,238
1,81,89,546
1,79,83,4
1,77,86,14
1,76,86,192
1,74,95,144
1,79,89,2086
1,77,98,80
1,76,98,146
1,76,101,696
1,74,95,44
1,72,89,204
1,72,86,522
1,74,98,18
1,72,83,192
1,74,92,16
1,76,86,192
1,79,92,8
1,77,94,192
1,71,101,1920
1,69,95,110
1,67,89,192
1,72,95,666
1,76,95,86
1,74,95,166
1,67,89,318
1,67,80,70
1,76,89,34
1,74,98,98
1,72,98,24
1,72,89,68
1,72,92,70
1,72,92,64
1,72,89,60
1,72,98,54
1,72,101,56
1,72,95,60
1,72,98,58
1,72,101,62
1,72,95,62
1,72,98,60
1,72,98,60
1,72,89,58
1,67,98,60
1,67,92,56
1,67,86,54
1,67,98,48
1,67,89,36
1,72,107,50
1,76,104,172
1,76,101,538
1,76,104,550
1,74,101,386
1,76,101,158
1,74,98,40
1,76,89,32
1,74,101,24
1,72,95,192
1,67,86,1942
1,72,98,78
1,76,89,220
1,72,92,738
1,76,95,84
1,79,89,238
1,81,89,546
1,79,83,4
1,77,86,14
1,76,86,192
1,74,95,144
1,79,89,2086
1,77,98,80
1,76,98,146
1,76,101,696
1,74,95,44
1,72,89,204
1,72,86,522
1,74,98,18
1,72,83,192
1,74,92,16
1,76,86,192
1,79,92,8
1,77,94,192
1,71,101,2016
1,69,95,110
1,67,89,192
1,72,95,666
1,76,95,86
1,74,95,166
1,67,89,318
1,67,80,70
1,76,89,34
1,74,98,98
1,72,98,24
1,72,89,68
1,72,92,70
1,72,92,64
1,72,89,60
1,72,98,54
1,72,101,56
1,72,95,60
1,72,98,58
1,72,101,62
1,72,95,62
1,72,98,60
1,72,98,60
1,72,89,58
1,72,95,60
1,72,98,60
1,72,86,62
1,72,86,66
1,72,54,1206
1,79,54,0
1,82,54,0
1,72,76,468
1,79,82,0
1,82,79,0
1,72,76,506
1,79,82,0
1,82,79,0
1,72,73,496
1,79,82,0
1,82,76,0
1,72,76,530
1,79,85,0
1,82,82,0
1,72,73,524
1,79,85,0
1,82,85,0
1,72,76,526
1,79,88,0
1,82,88,0
1,105,73,506
1,103,82,12
1,101,73,28
1,100,76,14
1,98,73,10
1,96,76,12
1,95,79,14
1,93,79,10
1,91,79,4
1,89,76,4
1,88,79,6
1,86,82,0
1,84,82,20
1,83,76,24
1,81,70,14
1,79,55,26
1,77,40,2
1,72,82,408
1,77,88,0
1,81,85,0
1,72,79,512
1,77,88,0
1,81,82,0
1,72,79,524
1,77,88,0
1,81,85,0
1,72,79,534
1,77,88,0
1,81,85,0
1,72,85,528
1,79,88,0
1,84,88,0
1,72,82,528
1,79,82,0
1,84,85,0
1,72,82,522
1,79,82,0
1,84,85,0
1,72,85,520
1,79,88,0
1,84,85,0
1,74,76,528
1,79,82,0
1,83,82,0
1,74,76,560
1,79,76,0
1,83,79,0
1,72,79,528
1,77,76,0
1,81,79,0
1,72,79,516
1,77,76,0
1,81,76,0
1,72,76,536
1,76,79,0
1,79,73,0
1,72,82,544
1,76,85,0
1,79,82,0
1,67,110,352
1,67,110,36
1,67,104,66
1,67,107,22
1,67,101,76
1,72,110,128
1,76,113,96
1,76,110,538
1,76,113,550
1,74,110,386
1,76,110,158
1,74,107,40
1,76,98,32
1,74,110,24
1,72,104,192
1,67,95,1942
1,72,107,78
1,76,98,220
1,72,101,738
1,76,104,84
1,79,98,238
1,81,98,546
1,79,92,4
1,77,95,14
1,76,95,192
1,74,104,144
1,79,98,2086
1,77,107,80
1,76,107,146
1,76,110,696
1,74,104,44
1,72,98,204
1,72,95,522
1,74,107,18
1,72,92,192
1,74,101,16
1,76,95,192
1,79,101,8
1,77,103,192
1,71,110,2016
1,69,104,110
1,67,98,192
1,72,104,666
1,76,104,86
1,74,104,166
1,67,98,318
1,67,89,70
1,76,98,34
1,74,107,98
1,72,107,24
1,72,98,68
1,72,101,70
1,72,101,64
1,72,98,60
1,72,107,54
1,72,110,56
1,72,104,60
1,72,107,58
1,72,110,62
1,72,104,62
1,72,107,60
1,72,107,60
1,72,98,58
1,67,110,60
1,67,110,36
1,67,104,66
1,67,107,22
1,67,101,76
1,72,110,128
1,76,113,96
1,76,110,538
1,76,113,550
1,74,110,386
1,76,110,158
1,74,107,40
1,76,98,32
1,74,110,24
1,72,104,192
1,67,95,1942
1,72,107,78
1,76,98,220
1,72,101,738
1,76,104,84
1,79,98,238
1,81,98,546
1,79,92,4
1,77,95,14
1,76,95,192
1,74,104,144
1,79,98,2086
1,77,107,80
1,76,107,146
1,76,110,696
1,74,104,44
1,72,98,204
1,72,95,522
1,74,107,18
1,72,92,192
1,74,101,16
1,76,95,192
1,79,101,8
1,77,103,192
1,71,110,2016
1,69,104,110
1,67,98,192
1,72,104,666
1,76,104,86
1,74,104,166
1,67,98,318
1,67,89,70
1,76,98,34
1,74,107,98
1,72,107,24
1,72,98,68
1,72,101,70
1,72,101,64
1,72,98,60
1,72,107,54
1,72,110,56
1,72,104,60
1,72,107,58
1,72,110,62
1,72,104,62
1,72,107,60
1,76,113,60
1,79,113,0
1,84,116,0
2,48,95,2592
2,55,89,0
2,48,60,58
2,55,68,0
2,48,101,98
2,57,92,0
2,48,71,50
2,55,62,0
2,48,101,104
2,55,98,0
2,48,68,62
2,55,62,0
2,48,101,98
2,57,95,0
2,48,71,56
2,55,77,0
2,48,101,100
2,55,101,0
2,48,71,66
2,55,64,0
2,48,101,92
2,57,89,0
2,48,68,40
2,55,68,0
2,48,98,104
2,55,95,0
2,48,74,74
2,55,68,0
2,48,101,88
2,57,95,0
2,48,68,48
2,55,71,0
2,48,101,98
2,55,95,0
2,48,83,64
2,55,62,0
2,48,98,82
2,57,89,0
2,48,71,58
2,55,77,0
2,48,98,104
2,55,92,0
2,48,74,74
2,55,71,0
2,48,101,92
2,57,89,0
2,48,64,52
2,55,74,0
2,48,101,104
2,55,98,0
2,48,71,68
2,55,62,0
2,48,101,92
2,57,89,0
2,48,60,54
2,55,68,0
2,48,101,92
2,55,98,0
2,48,80,66
2,55,74,0
2,48,98,82
2,57,89,0
2,48,64,34
2,55,74,0
2,48,98,90
2,55,95,0
2,48,74,66
2,55,71,0
2,48,101,100
2,57,95,0
2,48,62,46
2,55,68,0
2,48,98,102
2,55,95,0
2,48,62,64
2,55,64,0
2,48,98,78
2,57,98,0
2,48,60,42
2,55,71,0
2,48,98,98
2,55,95,0
2,48,62,74
2,55,64,0
2,48,101,98
2,57,86,0
2,48,64,58
2,55,74,0
2,48,98,94
2,55,92,0
2,48,74,80
2,55,74,0
2,48,101,84
2,57,89,0
2,48,71,52
2,55,83,0
2,43,98,102
2,50,89,0
2,43,86,62
2,50,86,0
2,43,98,86
2,52,86,0
2,43,58,48
2,50,68,0
2,43,98,98
2,50,95,0
2,43,68,72
2,50,74,0
2,43,95,104
2,52,89,0
2,43,66,70
2,50,71,0
2,43,95,102
2,50,95,0
2,43,64,76
2,50,74,0
2,43,98,94
2,52,89,0
2,43,52,46
2,50,71,0
2,43,92,100
2,50,95,0
2,43,74,56
2,50,74,0
2,43,95,56
2,52,89,0
2,43,68,42
2,50,77,0
2,48,98,100
2,55,92,0
2,48,62,66
2,55,66,0
2,48,101,82
2,57,89,0
2,48,48,40
2,55,68,0
2,48,98,108
2,55,95,0
2,48,62,74
2,55,68,0
2,48,101,94
2,57,89,0
2,48,60,42
2,55,71,0
2,48,98,102
2,55,95,0
2,48,71,68
2,55,74,0
2,48,101,98
2,57,92,0
2,48,62,42
2,55,71,0
2,48,101,104
2,55,98,0
2,48,71,68
2,55,74,0
2,48,98,90
2,57,92,0
2,48,74,56
2,55,80,0
2,41,98,102
2,48,95,0
2,41,62,82
2,48,74,0
2,41,101,112
2,50,95,0
2,41,62,76
2,48,71,0
2,41,98,106
2,48,101,0
2,41,71,82
2,48,60,0
2,41,104,106
2,50,98,0
2,41,62,54
2,48,66,0
2,41,98,104
2,48,101,0
2,41,54,74
2,48,64,0
2,41,101,96
2,50,89,0
2,41,48,44
2,48,71,0
2,41,98,110
2,48,98,0
2,41,71,64
2,48,83,0
2,41,89,74
2,50,98,0
2,41,74,40
2,48,80,0
2,48,95,106
2,55,98,0
2,48,64,70
2,55,74,0
2,48,101,90
2,57,95,0
2,48,60,44
2,55,66,0
2,48,101,116
2,55,101,0
2,48,60,66
2,55,68,0
2,48,98,82
2,57,92,0
2,48,71,42
2,55,83,0
2,43,89,102
2,50,80,0
2,43,71,88
2,50,74,0
2,43,101,98
2,52,95,0
2,43,58,52
2,50,71,0
2,43,98,106
2,50,98,0
2,43,77,90
2,50,86,0
2,43,95,80
2,52,92,0
2,43,74,66
2,50,77,0
2,48,95,104
2,55,92,0
2,48,71,70
2,55,64,0
2,48,101,94
2,57,92,0
2,48,60,46
2,55,71,0
2,48,101,116
2,55,95,0
2,48,68,62
2,55,74,0
2,48,95,90
2,57,89,0
2,48,64,40
2,55,71,0
2,48,101,104
2,55,98,0
2,48,48,68
2,55,64,0
2,48,101,86
2,57,95,0
2,48,54,40
2,55,71,0
2,48,101,106
2,55,98,0
2,48,62,54
2,55,62,0
2,48,101,88
2,57,95,0
2,48,83,50
2,55,77,0
2,48,95,104
2,55,89,0
2,48,60,58
2,55,68,0
2,48,101,98
2,57,92,0
2,48,71,50
2,55,62,0
2,48,101,104
2,55,98,0
2,48,68,62
2,55,62,0
2,48,101,98
2,57,95,0
2,48,71,56
2,55,77,0
2,48,101,100
2,55,101,0
2,48,71,66
2,55,64,0
2,48,101,92
2,57,89,0
2,48,68,40
2,55,68,0
2,48,98,104
2,55,95,0
2,48,74,74
2,55,68,0
2,48,101,88
2,57,95,0
2,48,68,48
2,55,71,0
2,48,101,98
2,55,95,0
2,48,83,64
2,55,62,0
2,48,98,82
2,57,89,0
2,48,71,58
2,55,77,0
2,48,98,104
2,55,92,0
2,48,74,74
2,55,71,0
2,48,101,92
2,57,89,0
2,48,64,52
2,55,74,0
2,48,101,104
2,55,98,0
2,48,71,68
2,55,62,0
2,48,101,92
2,57,89,0
2,48,60,54
2,55,68,0
2,48,101,92
2,55,98,0
2,48,80,66
2,55,74,0
2,48,98,82
2,57,89,0
2,48,64,34
2,55,74,0
2,48,98,90
2,55,95,0
2,48,74,66
2,55,71,0
2,48,101,100
2,57,95,0
2,48,62,46
2,55,68,0
2,48,98,102
2,55,95,0
2,48,62,64
2,55,64,0
2,48,98,78
2,57,98,0
2,48,60,42
2,55,71,0
2,48,98,98
2,55,95,0
2,48,62,74
2,55,64,0
2,48,101,98
2,57,86,0
2,48,64,58
2,55,74,0
2,48,98,94
2,55,92,0
2,48,74,80
2,55,74,0
2,48,101,84
2,57,89,0
2,48,71,52
2,55,83,0
2,43,98,102
2,50,89,0
2,43,86,62
2,50,86,0
2,43,98,86
2,52,86,0
2,43,58,48
2,50,68,0
2,43,98,98
2,50,95,0
2,43,68,72
2,50,74,0
2,43,95,104
2,52,89,0
2,43,66,70
2,50,71,0
2,43,95,102
2,50,95,0
2,43,64,76
2,50,74,0
2,43,98,94
2,52,89,0
2,43,52,46
2,50,71,0
2,43,92,100
2,50,95,0
2,43,74,56
2,50,74,0
2,43,95,56
2,52,89,0
2,43,68,42
2,50,77,0
2,48,98,100
2,55,92,0
2,48,62,66
2,55,66,0
2,48,101,82
2,57,89,0
2,48,48,40
2,55,68,0
2,48,98,108
2,55,95,0
2,48,62,74
2,55,68,0
2,48,101,94
2,57,89,0
2,48,60,42
2,55,71,0
2,48,98,102
2,55,95,0
2,48,71,68
2,55,74,0
2,48,101,98
2,57,92,0
2,48,62,42
2,55,71,0
2,48,101,104
2,55,98,0
2,48,71,68
2,55,74,0
2,48,98,90
2,57,92,0
2,48,74,56
2,55,80,0
2,41,98,102
2,48,95,0
2,41,62,82
2,48,74,0
2,41,101,112
2,50,95,0
2,41,62,76
2,48,71,0
2,41,98,106
2,48,101,0
2,41,71,82
2,48,60,0
2,41,104,106
2,50,98,0
2,41,62,54
2,48,66,0
2,41,98,104
2,48,101,0
2,41,54,74
2,48,64,0
2,41,101,96
2,50,89,0
2,41,48,44
2,48,71,0
2,41,98,110
2,48,98,0
2,41,71,64
2,48,83,0
2,41,89,74
2,50,98,0
2,41,74,40
2,48,80,0
2,48,95,106
2,55,98,0
2,48,64,70
2,55,74,0
2,48,101,90
2,57,95,0
2,48,60,44
2,55,66,0
2,48,101,116
2,55,101,0
2,48,60,66
2,55,68,0
2,48,98,82
2,57,92,0
2,48,71,42
2,55,83,0
2,43,89,102
2,50,80,0
2,43,71,88
2,50,74,0
2,43,101,98
2,52,95,0
2,43,58,52
2,50,71,0
2,43,98,106
2,50,98,0
2,43,77,90
2,50,86,0
2,43,95,80
2,52,92,0
2,43,74,66
2,50,77,0
2,48,95,104
2,55,92,0
2,48,71,70
2,55,64,0
2,48,101,94
2,57,92,0
2,48,60,46
2,55,71,0
2,48,101,116
2,55,95,0
2,48,68,62
2,55,74,0
2,48,95,90
2,57,89,0
2,48,64,40
2,55,71,0
2,48,101,104
2,55,98,0
2,48,48,68
2,55,64,0
2,48,101,86
2,57,95,0
2,48,54,40
2,55,71,0
2,48,101,106
2,55,98,0
2,48,62,54
2,55,62,0
2,48,101,88
2,57,95,0
2,48,83,50
2,55,77,0
2,48,83,104
2,55,92,0
2,48,74,64
2,55,74,0
2,48,95,86
2,55,89,0
2,48,64,64
2,55,74,0
2,48,95,90
2,55,92,0
2,48,62,64
2,55,68,0
2,48,95,94
2,55,92,0
2,48,62,68
2,55,71,0
2,48,92,94
2,55,89,0
2,48,62,70
2,55,68,0
2,48,86,90
2,55,89,0
2,48,60,82
2,55,74,0
2,48,89,88
2,55,89,0
2,48,71,74
2,55,77,0
2,48,92,94
2,55,92,0
2,48,62,76
2,55,74,0
2,48,95,86
2,55,92,0
2,48,62,78
2,55,68,0
2,48,89,88
2,55,92,0
2,48,62,88
2,55,77,0
2,48,95,98
2,55,92,0
2,48,56,82
2,55,71,0
2,48,89,96
2,55,92,0
2,48,64,76
2,55,77,0
2,48,89,90
2,55,92,0
2,48,71,82
2,55,77,0
2,48,89,84
2,55,92,0
2,48,71,66
2,55,86,0
2,48,92,82
2,55,89,0
2,48,74,68
2,55,74,0
2,48,74,76
2,55,83,0
2,48,62,64
2,55,66,0
2,41,92,92
2,48,92,0
2,41,66,86
2,48,74,0
2,41,86,90
2,48,89,0
2,41,83,92
2,48,83,0
2,41,92,96
2,48,89,0
2,41,64,84
2,48,77,0
2,41,89,96
2,48,89,0
2,41,62,80
2,48,68,0
2,41,89,100
2,48,89,0
2,41,68,86
2,48,74,0
2,41,89,102
2,48,89,0
2,41,80,86
2,48,83,0
2,41,86,104
2,48,86,0
2,41,74,86
2,48,83,0
2,41,83,88
2,48,86,0
2,41,77,82
2,48,74,0
2,48,92,108
2,55,95,0
2,48,60,74
2,55,71,0
2,48,101,86
2,57,95,0
2,55,66,68
2,48,98,94
2,55,98,0
2,48,58,60
2,55,64,0
2,48,101,96
2,57,101,0
2,55,74,54
2,48,101,92
2,55,101,0
2,48,60,62
2,55,71,0
2,48,101,84
2,57,98,0
2,55,74,50
2,48,98,96
2,55,98,0
2,48,68,54
2,55,71,0
2,48,92,68
2,57,86,0
2,48,52,44
2,55,77,0
2,43,86,106
2,50,86,0
2,43,62,86
2,50,71,0
2,43,83,104
2,50,86,0
2,43,62,94
2,50,68,0
2,43,86,108
2,50,86,0
2,43,64,88
2,50,77,0
2,43,83,100
2,50,89,0
2,43,62,74
2,50,71,0
2,41,89,84
2,48,89,0
2,41,71,86
2,48,80,0
2,41,92,102
2,48,92,0
2,41,64,84
2,48,77,0
2,41,92,92
2,48,95,0
2,41,74,86
2,48,86,0
2,41,86,96
2,48,89,0
