track,note,velocity,time
1,64,120,3120
1,64,0,160
1,64,120,0
1,64,0,160
1,65,120,80
1,65,0,80
1,64,120,0
1,64,0,160
1,64,120,80
1,64,0,240
1,64,120,4080
1,64,0,240
1,62,120,0
1,62,0,160
1,62,120,0
1,62,0,720
1,60,120,0
1,60,0,40
1,62,120,0
1,62,0,200
1,60,120,0
1,60,0,240
1,64,120,80
1,64,0,720
1,57,120,0
1,57,0,80
1,55,120,0
1,55,0,800
1,62,120,560
1,62,0,240
1,60,120,0
1,60,0,160
1,62,120,0
1,62,0,80
1,60,120,0
1,60,0,480
1,57,120,0
1,57,0,240
1,60,120,0
1,60,0,240
1,64,120,480
1,64,0,240
1,57,120,0
1,57,0,160
1,57,120,0
1,57,0,80
1,55,120,0
1,55,0,720
1,62,120,480
1,62,0,160
1,60,120,0
1,60,0,80
1,62,120,0
1,62,0,160
1,60,120,0
1,60,0,80
1,62,120,0
1,62,0,160
1,62,120,80
1,62,0,240
1,62,120,0
1,62,0,40
1,64,120,0
1,64,0,200
1,62,120,0
1,62,0,240
1,60,120,0
1,60,0,480
1,62,120,0
1,62,0,40
1,64,120,0
1,64,0,200
1,62,120,0
1,62,0,240
1,62,120,0
1,62,0,40
1,60,120,0
1,60,0,680
1,57,120,0
1,57,0,240
1,60,120,0
1,60,0,240
1,62,120,240
1,62,0,160
1,62,120,0
1,62,0,160
1,62,120,80
1,62,0,160
1,60,120,80
1,60,0,80
1,62,120,0
1,62,0,240
1,64,120,0
1,64,0,240
1,60,120,0
1,60,0,240
1,62,120,0
1,62,0,40
1,60,120,0
1,60,0,920
1,64,120,1680
1,64,0,160
1,67,120,0
1,67,0,240
1,69,120,0
1,69,0,80
1,67,120,0
1,67,0,640
1,67,120,0
1,67,0,80
1,67,120,0
1,67,0,240
1,69,120,0
1,69,0,160
1,67,120,0
1,67,0,160
1,65,120,320
1,65,0,80
1,64,120,0
1,64,0,160
1,60,120,0
1,60,0,320
1,64,120,240
1,64,0,240
1,64,120,0
1,64,0,240
1,64,120,480
1,64,0,240
1,64,120,0
1,64,0,240
1,64,120,0
1,64,0,240
1,64,120,0
1,64,0,240
1,64,120,0
1,64,0,240
1,64,120,0
1,64,0,160
1,64,120,0
1,64,0,80
1,64,120,0
1,64,0,240
1,64,120,0
1,64,0,240
1,62,120,0
1,62,0,240
1,60,120,0
1,60,0,240
1,62,120,0
1,62,0,400
1,64,120,0
1,64,0,80
1,62,120,0
1,62,0,240
1,60,120,0
1,60,0,240
1,60,120,160
1,60,0,80
1,62,120,0
1,62,0,160
1,64,120,0
1,64,0,80
1,62,120,0
1,62,0,160
1,60,120,0
1,60,0,240
1,60,120,0
1,60,0,80
1,63,120,0
1,63,0,160
1,64,120,0
1,64,0,80
1,62,120,0
1,62,0,160
1,64,120,0
1,64,0,80
1,60,120,0
1,60,0,160
1,60,120,0
1,60,0,80
1,57,120,0
1,57,0,160
1,57,120,0
1,57,0,80
1,64,120,0
1,64,0,240
1,64,120,0
1,64,0,240
1,62,120,0
1,62,0,240
1,60,120,0
1,60,0,240
1,62,120,0
1,62,0,240
1,64,120,0
1,64,0,240
1,64,120,0
1,64,0,160
1,65,120,0
1,65,0,80
1,64,120,0
1,64,0,240
1,64,120,480
1,64,0,240
1,62,120,0
1,62,0,160
1,62,120,0
1,62,0,80
1,60,120,0
1,60,0,160
1,60,120,0
1,60,0,80
1,57,120,0
1,57,0,480
1,62,120,240
1,62,0,160
1,62,120,0
1,62,0,80
1,62,120,0
1,62,0,40
1,64,120,0
1,64,0,200
1,60,120,0
1,60,0,240
1,60,120,0
1,60,0,160
1,60,120,0
1,60,0,800
1,55,120,640
1,55,0,80
1,64,120,0
1,64,0,160
1,67,120,0
1,67,0,240
1,69,120,0
1,69,0,240
1,67,120,0
1,67,0,560
1,69,120,0
1,69,0,240
1,64,120,0
1,64,0,480
1,62,120,0
1,62,0,160
1,64,120,0
1,64,0,80
1,62,120,0
1,62,0,160
1,60,120,0
1,60,0,80
1,62,120,0
1,62,0,160
1,60,120,0
1,60,0,800
1,67,120,480
1,67,0,480
1,65,120,0
1,65,0,240
1,64,120,0
1,64,0,240
1,65,120,0
1,65,0,160
1,64,120,0
1,64,0,80
1,64,120,0
1,64,0,160
1,62,120,0
1,62,0,80
1,64,120,0
1,64,0,720
1,62,120,0
1,62,0,160
1,60,120,0
1,60,0,800
1,64,120,720
1,64,0,160
1,67,120,0
1,67,0,240
1,69,120,0
1,69,0,240
1,67,120,0
1,67,0,560
1,69,120,0
1,69,0,240
1,64,120,0
1,64,0,480
1,62,120,0
1,62,0,160
1,64,120,0
1,64,0,80
1,62,120,0
1,62,0,160
1,60,120,0
1,60,0,80
1,62,120,0
1,62,0,160
1,60,120,0
1,60,0,560
1,59,120,0
1,59,0,160
1,57,120,0
1,57,0,80
1,59,120,0
1,59,0,160
1,57,120,0
1,57,0,560
1,65,120,0
1,65,0,40
1,64,120,0
1,64,0,200
1,62,120,0
1,62,0,240
1,62,120,0
1,62,0,480
1,62,120,0
1,62,0,160
1,60,120,0
1,60,0,80
1,62,120,0
1,62,0,160
1,60,120,0
1,60,0,2000
1,57,120,5760
1,57,0,160
1,57,120,0
1,57,0,80
1,64,120,0
1,64,0,160
1,62,120,0
1,62,0,80
1,62,120,0
1,62,0,160
1,60,120,0
1,60,0,160
1,60,120,160
1,60,0,160
1,62,120,0
1,62,0,160
1,64,120,0
1,64,0,160
1,60,120,640
1,60,0,80
1,64,120,0
1,64,0,160
1,57,120,0
1,57,0,80
1,57,120,0
1,57,0,240
1,57,120,0
1,57,0,40
1,55,120,0
1,55,0,200
1,55,120,0
1,55,0,160
1,55,120,0
1,55,0,80
1,57,120,0
1,57,0,240
1,60,120,0
1,60,0,240
1,63,120,0
1,63,0,80
1,62,120,0
1,62,0,400
1,62,120,0
1,62,0,160
1,60,120,0
1,60,0,80
1,60,120,0
1,60,0,160
1,62,120,0
1,62,0,240
1,60,120,0
1,60,0,80
1,60,120,0
1,60,0,240
1,60,120,0
1,60,0,160
1,57,120,0
1,57,0,80
1,57,120,0
1,57,0,240
1,60,120,0
1,60,0,240
1,57,120,0
1,57,0,240
1,57,120,0
1,57,0,160
1,55,120,0
1,55,0,320
1,60,120,240
1,60,0,160
1,57,120,0
1,57,0,80
1,57,120,0
1,57,0,80
1,55,120,0
1,55,0,240
1,64,120,400
1,64,0,160
1,67,120,0
1,67,0,80
1,67,120,0
1,67,0,160
1,64,120,0
1,64,0,80
1,67,120,0
1,67,0,160
1,64,120,0
1,64,0,320
1,67,120,0
1,67,0,160
1,64,120,0
1,64,0,80
1,69,120,0
1,69,0,240
1,64,120,0
1,64,0,480
1,64,120,160
1,64,0,80
1,69,120,0
1,69,0,160
1,67,120,0
1,67,0,80
1,67,120,0
1,67,0,160
1,64,120,0
1,64,0,320
1,65,120,0
1,64,120,150
1,65,0,10
1,64,0,230
1,65,120,10
1,65,0,80
1,64,120,0
1,64,0,480
1,64,120,0
1,64,0,240
1,64,120,0
1,64,0,160
1,62,120,0
1,62,0,80
1,62,120,0
1,62,0,160
1,62,120,0
1,62,0,80
1,60,120,0
1,60,0,160
1,60,120,0
1,60,0,320
1,57,120,0
1,57,0,80
1,55,120,0
1,55,0,160
1,55,120,0
1,55,0,160
1,55,120,0
1,55,0,80
1,62,120,240
1,62,0,160
1,64,120,0
1,64,0,80
1,62,120,0
1,62,0,160
1,60,120,0
1,60,0,240
1,60,120,0
1,60,0,560
1,55,120,880
1,55,0,80
1,64,120,0
1,64,0,160
1,67,120,0
1,67,0,240
1,69,120,0
1,69,0,240
1,67,120,0
1,67,0,560
1,69,120,0
1,69,0,240
1,64,120,0
1,64,0,480
1,62,120,0
1,62,0,160
1,64,120,0
1,64,0,80
1,62,120,0
1,62,0,160
1,60,120,0
1,60,0,80
1,62,120,0
1,62,0,160
1,60,120,0
1,60,0,800
1,67,120,480
1,67,0,480
1,65,120,0
1,65,0,240
1,64,120,0
1,64,0,240
1,65,120,0
1,65,0,160
1,64,120,0
1,64,0,80
1,64,120,0
1,64,0,160
1,62,120,0
1,62,0,80
1,64,120,0
1,64,0,720
1,62,120,0
1,62,0,160
1,60,120,0
1,60,0,800
1,64,120,720
1,64,0,160
1,67,120,0
1,67,0,240
1,69,120,0
1,69,0,240
1,67,120,0
1,67,0,560
1,69,120,0
1,69,0,240
1,64,120,0
1,64,0,480
1,62,120,0
1,62,0,160
1,64,120,0
1,64,0,80
1,62,120,0
1,62,0,160
1,60,120,0
1,60,0,80
1,62,120,0
1,62,0,160
1,60,120,0
1,60,0,560
1,59,120,0
1,59,0,160
1,57,120,0
1,57,0,80
1,59,120,0
1,59,0,160
1,57,120,0
1,57,0,560
1,65,120,0
1,65,0,40
1,64,120,0
1,64,0,200
1,62,120,0
1,62,0,240
1,62,120,0
1,62,0,480
1,62,120,0
1,62,0,160
1,60,120,0
1,60,0,80
1,62,120,0
1,62,0,160
1,60,120,0
1,60,0,2000
1,57,120,5680
1,57,0,80
1,60,120,0
1,60,0,160
1,57,120,0
1,57,0,80
1,60,120,0
1,60,0,160
1,57,120,0
1,57,0,80
1,60,120,0
1,60,0,160
1,57,120,0
1,57,0,80
1,60,120,0
1,60,0,40
1,62,120,0
1,62,0,120
1,57,120,0
1,57,0,80
1,60,120,0
1,60,0,160
1,57,120,0
1,57,0,80
1,60,120,0
1,60,0,40
1,62,120,0
1,62,0,120
1,57,120,0
1,57,0,80
1,60,120,0
1,60,0,160
1,57,120,0
1,57,0,80
1,64,120,0
1,64,0,240
1,67,120,0
1,67,0,240
1,62,120,0
1,62,0,240
1,62,120,0
1,62,0,160
1,60,120,0
1,60,0,80
1,62,120,0
1,62,0,80
1,60,120,0
1,60,0,320
1,60,120,0
1,60,0,80
1,57,120,0
1,57,0,240
1,60,120,0
1,60,0,240
1,62,120,240
1,62,0,240
1,62,120,0
1,62,0,240
1,62,120,0
1,62,0,160
1,60,120,0
1,60,0,80
1,62,120,0
1,62,0,160
1,60,120,0
1,60,0,320
1,57,120,0
1,57,0,240
1,60,120,0
1,60,0,240
1,64,120,0
1,64,0,240
1,64,120,0
1,64,0,240
1,62,120,0
1,62,0,160
1,60,120,0
1,60,0,240
1,60,120,0
1,60,0,560
1,55,120,1360
1,55,0,80
1,64,120,0
1,64,0,160
1,67,120,0
1,67,0,240
1,69,120,0
1,69,0,240
1,67,120,0
1,67,0,480
1,67,120,0
1,67,0,80
1,64,120,0
1,64,0,240
1,69,120,0
1,69,0,880
1,67,120,0
1,67,0,320
1,69,120,0
1,69,0,240
1,72,120,720
1,72,0,80
1,67,120,0
1,67,0,80
1,69,120,0
1,69,0,80
1,67,120,0
1,67,0,400
1,67,120,0
1,67,0,80
1,72,120,0
1,72,0,240
1,69,120,0
1,69,0,240
1,67,120,0
1,67,0,240
1,67,120,0
1,67,0,160
1,64,120,0
1,64,0,480
1,62,120,0
1,62,0,80
1,64,120,0
1,64,0,400
1,62,120,0
1,62,0,80
1,64,120,0
1,64,0,480
1,62,120,0
1,62,0,160
1,60,120,0
1,60,0,320
1,64,120,480
1,64,0,160
1,67,120,0
1,67,0,240
1,69,120,0
1,69,0,240
1,67,120,0
1,67,120,480
1,67,0,80
1,67,0,0
1,64,120,0
1,64,0,160
1,69,120,0
1,69,0,960
1,67,120,0
1,67,0,320
1,69,120,0
1,69,0,240
1,62,120,0
1,62,0,400
1,60,120,0
1,60,0,80
1,62,120,0
1,62,0,160
1,60,120,0
1,60,0,560
1,65,120,0
1,65,0,40
1,64,120,0
1,64,0,200
1,62,120,0
1,62,0,160
1,62,120,0
1,62,0,80
1,62,120,0
1,62,0,240
1,62,120,0
1,62,0,400
1,60,120,0
1,60,0,80
1,62,120,0
1,62,0,160
1,60,120,0
1,60,0,560
1,65,120,0
1,65,0,40
1,64,120,0
1,64,0,200
1,62,120,0
1,62,0,160
1,62,120,0
1,62,0,80
1,62,120,0
1,62,0,240
1,62,120,0
1,62,0,400
1,60,120,0
1,60,0,80
1,62,120,0
1,62,0,160
1,60,120,0
1,60,0,560
1,65,120,0
1,65,0,40
1,64,120,0
1,64,0,200
1,62,120,0
1,62,0,240
1,62,120,0
1,62,0,480
1,62,120,0
1,62,0,160
1,60,120,0
1,60,0,80
1,62,120,0
1,62,0,160
1,60,120,0
1,60,0,2000
2,59,120,88320
2,59,0,640
2,60,120,0
2,60,0,80
2,59,120,0
2,59,0,160
2,57,120,0
2,57,0,80
2,55,120,0
2,55,0,240
2,59,120,720
2,59,0,640
2,60,120,0
2,60,0,80
2,59,120,0
2,59,0,160
2,57,120,0
2,57,0,80
2,55,120,0
2,55,0,240
2,59,120,720
2,59,0,640
2,60,120,0
2,60,0,80
2,59,120,0
2,59,0,160
2,57,120,0
2,57,0,80
2,55,120,0
2,55,0,240
2,57,120,480
2,57,0,80
2,59,120,0
2,59,0,160
2,57,120,0
2,57,0,240
2,59,120,1680
2,59,0,640
2,60,120,0
2,60,0,80
2,59,120,0
2,59,0,160
2,57,120,0
2,57,0,80
2,55,120,0
2,55,0,240
2,59,120,720
2,59,0,640
2,60,120,0
2,60,0,80
2,59,120,0
2,59,0,160
2,57,120,0
2,57,0,80
2,55,120,0
2,55,0,240
2,59,120,720
2,59,0,640
2,60,120,0
2,60,0,80
2,59,120,0
2,59,0,160
2,57,120,0
2,57,0,80
2,55,120,0
2,55,0,240
2,57,120,480
2,57,0,80
2,59,120,0
2,59,0,160
2,57,120,0
2,57,0,240
2,59,120,27120
2,59,0,640
2,60,120,0
2,60,0,80
2,59,120,0
2,59,0,160
2,57,120,0
2,57,0,80
2,55,120,0
2,55,0,240
2,59,120,720
2,59,0,640
2,60,120,0
2,60,0,80
2,59,120,0
2,59,0,160
2,57,120,0
2,57,0,80
2,55,120,0
2,55,0,240
2,59,120,720
2,59,0,640
2,60,120,0
2,60,0,80
2,59,120,0
2,59,0,160
2,57,120,0
2,57,0,80
2,55,120,0
2,55,0,240
2,57,120,480
2,57,0,80
2,59,120,0
2,59,0,160
2,57,120,0
2,57,0,240
2,59,120,1680
2,59,0,640
2,60,120,0
2,60,0,80
2,59,120,0
2,59,0,160
2,57,120,0
2,57,0,80
2,55,120,0
2,55,0,240
2,59,120,720
2,59,0,640
2,60,120,0
2,60,0,80
2,59,120,0
2,59,0,160
2,57,120,0
2,57,0,80
2,55,120,0
2,55,0,240
2,59,120,720
2,59,0,640
2,60,120,0
2,60,0,80
2,59,120,0
2,59,0,160
2,57,120,0
2,57,0,80
2,55,120,0
2,55,0,240
2,57,120,480
2,57,0,80
2,59,120,0
2,59,0,160
2,57,120,0
2,57,0,240
2,59,120,0
2,59,0,174
2,60,120,0
2,60,0,80
2,59,120,0
2,59,0,160
2,57,120,0
2,57,0,28
2,55,120,0
2,55,0,240
2,59,120,54
2,59,0,226
2,60,120,0
2,60,0,80
2,59,120,0
2,59,0,160
2,57,120,0
2,57,0,80
2,55,120,0
2,55,0,240
2,59,120,106
2,59,0,278
2,60,120,0
2,60,0,80
2,59,120,0
2,59,0,52
2,57,120,0
2,57,0,80
2,55,120,0
2,55,0,240
2,57,120,384
2,57,0,80
2,59,120,0
2,59,0,158
2,57,120,0
2,57,0,240
2,59,120,210
2,59,0,382
2,60,120,0
2,60,0,80
2,59,120,0
2,59,0,156
2,57,120,0
2,57,0,80
2,55,120,0
2,55,0,8
2,59,120,262
2,59,0,434
2,60,120,0
2,60,0,48
2,59,120,0
2,59,0,160
2,57,120,0
2,57,0,80
2,55,120,0
2,55,0,60
2,59,120,314
2,59,0,20
2,60,120,0
2,60,0,80
2,59,120,0
2,59,0,160
2,57,120,0
2,57,0,80
2,55,120,0
2,55,0,112
2,57,120,126
2,57,0,80
2,59,120,0
2,59,0,160
2,57,120,0
2,57,0,138
2,59,120,418
2,59,0,124
2,60,120,0
2,60,0,80
2,59,120,0
2,59,0,160
2,57,120,0
2,57,0,80
2,55,120,0
2,55,0,216
2,59,120,2
2,59,0,640
