track,note,velocity,time
0,35,107,0
0,46,57,0
0,40,77,430
0,46,56,0
0,35,106,190
0,46,57,190
0,83,41,70
0,83,74,70
0,40,76,2
0,46,57,0
0,83,41,2
0,83,75,2
0,35,107,127
0,46,56,0
0,40,77,430
0,46,57,0
0,35,107,143
0,46,56,190
0,83,40,70
0,83,75,70
0,40,77,47
0,46,56,0
0,35,106,430
0,46,57,0
0,40,76,149
0,46,57,0
0,35,107,190
0,46,56,190
0,83,40,70
0,83,74,70
0,40,77,2
0,46,56,0
0,83,41,2
0,83,75,2
0,35,106,190
0,46,57,0
0,40,76,423
0,46,57,0
0,35,106,190
0,46,56,117
0,83,40,70
0,83,74,70
0,40,76,190
0,46,56,0
0,60,59,13
0,35,107,0
0,46,57,0
0,60,63,0
0,64,58,15
0,64,64,0
0,67,57,53
0,40,77,0
0,46,56,0
0,67,63,0
0,64,59,190
0,35,107,0
0,64,63,0
0,59,58,5
0,46,57,0
0,59,64,0
0,83,41,9
0,55,59,70
0,83,75,0
0,55,63,0
0,67,58,48
0,40,77,0
0,46,57,0
0,67,62,0
0,83,40,70
0,59,58,70
0,83,74,0
0,59,64,0
0,57,59,0
0,35,106,0
0,46,56,0
0,57,63,0
0,55,59,185
0,55,65,0
0,64,58,60
0,40,76,0
0,46,57,0
0,64,64,0
0,62,58,10
0,35,106,0
0,62,64,0
0,46,56,190
0,83,41,70
0,55,59,70
0,83,74,0
0,55,65,0
0,60,63,65
0,40,76,0
0,46,56,0
0,60,67,0
0,60,58,13
0,35,107,0
0,46,57,0
0,60,62,0
0,64,58,15
0,64,64,0
0,67,57,68
0,40,77,0
0,46,57,0
0,67,63,0
0,64,58,190
0,35,107,0
0,64,62,0
0,59,59,20
0,46,56,0
0,59,65,0
0,83,41,70
0,55,59,70
0,83,75,0
0,55,63,0
0,67,58,45
0,40,77,0
0,46,56,0
0,67,62,0
0,83,40,70
0,59,59,70
0,83,75,0
0,59,65,0
0,57,58,0
0,35,106,0
0,46,57,0
0,57,62,0
0,55,58,3
0,55,64,0
0,64,59,213
0,40,76,0
0,46,57,0
0,64,65,0
0,62,59,10
0,35,106,0
0,62,65,0
0,46,56,190
0,83,40,70
0,55,58,70
0,83,74,0
0,55,64,0
0,60,62,73
0,40,76,0
0,46,56,0
0,60,66,0
0,60,59,13
0,35,107,0
0,46,57,0
0,60,63,0
0,64,59,15
0,64,65,0
0,67,56,75
0,40,77,0
0,46,56,0
0,67,62,0
0,64,58,190
0,35,106,0
0,64,62,0
0,59,59,20
0,46,57,0
0,59,65,0
0,83,41,70
0,55,58,70
0,83,75,0
0,55,62,0
0,67,59,53
0,40,76,0
0,46,57,0
0,67,63,0
0,83,40,70
0,59,59,70
0,83,74,0
0,59,65,0
0,45,50,17
0,45,54,0
0,52,45,65
0,52,49,0
0,62,64,84
0,62,68,0
0,33,89,0
0,69,105,0
0,35,127,0
0,46,82,0
0,57,75,0
0,72,104,185
0,40,103,209
0,46,83,0
0,60,58,1
0,60,62,0
0,35,86,5
0,72,105,0
0,35,127,0
0,46,82,190
0,54,51,70
0,57,55,55
0,57,59,0
0,69,105,4
0,54,84,0
0,36,87,45
0,40,103,0
0,46,82,0
0,67,104,65
0,43,43,90
0,43,47,0
0,50,44,50
0,50,48,0
0,55,36,5
0,55,40,0
0,31,87,40
0,35,126,0
0,46,83,0
0,60,57,25
0,60,61,0
0,72,105,30
0,40,102,240
0,46,83,0
0,59,55,6
0,59,59,0
0,40,86,29
0,71,104,0
0,35,127,0
0,46,82,190
0,54,51,70
0,54,85,70
0,40,103,73
0,46,82,0
0,54,50,70
0,64,104,70
0,54,85,0
0,53,42,48
0,53,46,0
0,57,50,65
0,57,54,0
0,62,49,22
0,62,53,0
0,29,89,7
0,64,105,0
0,35,126,0
0,46,83,0
0,72,105,3
0,40,102,240
0,46,83,0
0,60,44,121
0,60,48,0
0,72,104,2
0,35,126,0
0,46,82,190
0,54,50,13
0,57,51,53
0,57,55,0
0,64,104,12
0,54,84,0
0,40,102,17
0,46,82,0
0,53,49,1
0,53,7,0
0,64,105,170
0,48,62,67
0,48,67,0
0,36,88,7
0,35,127,0
0,46,83,0
0,55,55,65
0,55,58,0
0,72,105,22
0,60,64,31
0,60,69,0
0,40,103,24
0,46,82,0
0,36,86,88
0,72,104,0
0,35,127,0
0,47,54,88
0,47,58,0
0,35,89,5
0,46,83,0
0,54,51,2
0,55,59,52
0,55,56,0
0,71,104,18
0,54,85,0
0,60,63,5
0,60,67,0
0,40,103,4
0,46,83,0
0,54,50,4
0,35,87,54
0,69,105,0
0,35,108,0
0,54,84,0
0,45,50,17
0,45,55,0
0,52,44,65
0,52,48,0
0,62,65,84
0,62,68,0
0,33,88,10
0,35,126,0
0,46,82,0
0,72,104,65
0,40,102,240
0,46,83,0
0,60,59,1
0,60,63,0
0,35,86,5
0,72,105,0
0,35,127,0
0,46,82,190
0,54,51,28
0,57,54,66
0,57,59,0
0,69,105,4
0,54,85,0
0,36,87,32
0,40,102,0
0,46,82,0
0,67,104,128
0,43,42,90
0,43,46,0
0,50,45,50
0,50,48,0
0,55,36,5
0,55,41,0
0,31,87,40
0,35,127,0
0,46,83,0
0,60,57,25
0,60,60,0
0,72,105,140
0,40,103,0
0,46,83,0
0,59,55,6
0,59,59,0
0,40,86,29
0,71,104,0
0,35,126,0
0,46,82,190
0,54,50,70
0,54,84,70
0,40,103,40
0,46,82,0
0,54,51,70
0,64,104,70
0,54,84,0
0,53,42,48
0,53,47,0
0,57,51,65
0,57,54,0
0,62,48,22
0,62,53,0
0,29,88,7
0,64,105,0
0,35,126,0
0,46,83,0
0,72,105,18
0,40,102,240
0,46,83,0
0,60,44,147
0,60,48,0
0,72,104,2
0,35,127,0
0,46,82,190
0,54,51,13
0,57,51,16
0,57,54,0
0,64,104,12
0,54,85,0
0,40,102,54
0,46,82,0
0,53,49,1
0,53,7,0
0,64,105,147
0,48,62,67
0,48,67,0
0,36,89,0
0,35,126,0
0,46,83,0
0,55,54,168
0,55,59,0
0,60,65,29
0,60,68,0
0,72,105,24
0,40,103,0
0,46,82,0
0,36,86,88
0,72,104,0
0,35,127,0
0,47,55,88
0,47,58,0
0,35,89,5
0,46,83,0
0,54,50,59
0,55,58,52
0,55,57,0
0,71,104,18
0,54,85,0
0,60,62,1
0,60,67,0
0,40,102,5
0,46,83,0
0,54,50,45
0,35,87,70
0,69,105,0
0,35,109,0
0,54,84,0
0,33,90,10
0,35,126,0
0,46,82,0
0,60,51,7
0,60,54,0
0,52,48,10
0,52,52,0
0,45,47,4
0,45,63,0
0,72,104,53
0,40,103,0
0,46,83,0
0,59,49,82
0,59,62,0
0,33,93,15
0,69,105,0
0,35,127,0
0,46,82,190
0,54,51,70
0,54,85,70
0,67,105,38
0,40,103,0
0,46,82,0
0,64,104,70
0,31,94,60
0,35,126,0
0,46,83,0
0,50,50,1
0,50,55,0
0,43,57,2
0,43,61,0
0,57,58,26
0,57,60,0
0,40,102,244
0,46,83,0
0,60,56,7
0,60,61,0
0,62,55,107
0,62,60,0
0,31,92,12
0,35,126,0
0,46,82,190
0,54,50,70
0,60,57,51
0,60,60,0
0,54,84,19
0,57,54,66
0,57,61,0
0,69,105,14
0,40,103,0
0,46,82,0
0,54,51,70
0,69,104,70
0,54,85,0
0,41,38,76
0,41,55,0
0,48,51,56
0,48,54,0
0,29,93,58
0,35,127,0
0,46,83,0
0,72,104,17
0,40,102,0
0,46,83,0
0,57,47,2
0,57,48,0
0,29,93,98
0,69,105,0
0,35,127,0
0,55,54,157
0,55,45,0
0,46,82,33
0,54,50,70
0,67,105,70
0,54,84,0
0,40,102,43
0,46,82,0
0,64,104,132
0,48,52,85
0,48,61,0
0,36,88,30
0,35,126,0
0,46,83,0
0,55,53,133
0,55,54,0
0,60,54,18
0,60,62,0
0,40,103,24
0,46,82,0
0,36,86,88
0,62,104,0
0,35,126,0
0,35,89,93
0,46,83,0
0,47,53,4
0,47,63,0
0,54,51,4
0,55,55,1
0,55,60,0
0,54,84,4
0,60,54,39
0,60,61,0
0,40,103,10
0,46,83,0
0,54,51,70
0,35,87,70
0,35,109,0
0,54,85,0
0,45,51,17
0,45,55,0
0,52,44,65
0,52,48,0
0,62,64,84
0,62,69,0
0,33,88,10
0,69,105,0
0,35,127,0
0,46,82,0
0,72,105,27
0,40,102,240
0,46,83,0
0,60,59,1
0,60,62,0
0,35,86,5
0,72,104,0
0,35,126,0
0,46,82,190
0,54,50,70
0,57,55,66
0,57,58,0
0,69,104,4
0,54,85,0
0,36,87,40
0,40,102,0
0,46,82,0
0,67,105,120
0,43,42,90
0,43,47,0
0,50,44,50
0,50,49,0
0,55,37,5
0,55,40,0
0,31,86,40
0,35,126,0
0,46,83,0
0,60,57,25
0,60,60,0
0,72,104,317
0,40,103,0
0,46,83,0
0,59,54,6
0,59,59,0
0,40,87,29
0,71,105,0
0,35,127,0
0,46,82,27
0,54,50,70
0,54,84,70
0,40,103,80
0,46,82,0
0,54,51,70
0,54,85,70
0,53,42,48
0,53,47,0
0,57,51,65
0,57,54,0
0,62,48,22
0,62,52,0
0,29,89,7
0,65,105,0
0,35,126,0
0,46,83,0
0,72,104,15
0,40,102,235
0,46,83,0
0,60,45,110
0,60,49,0
0,72,105,2
0,35,127,0
0,46,82,190
0,54,50,13
0,57,51,58
0,57,54,0
0,65,104,12
0,54,84,0
0,40,102,54
0,46,82,0
0,53,48,1
0,53,57,0
0,76,104,102
0,48,63,67
0,48,67,0
0,36,88,7
0,35,127,0
0,46,83,0
0,55,54,18
0,55,58,0
0,74,105,22
0,60,64,35
0,60,69,0
0,40,103,24
0,46,82,0
0,36,87,79
0,72,105,0
0,35,126,0
0,47,55,88
0,47,58,0
0,35,88,5
0,46,83,0
0,54,51,59
0,55,59,4
0,55,66,0
0,71,104,18
0,54,85,0
0,60,62,15
0,60,61,0
0,40,102,19
0,46,83,0
0,54,50,70
0,35,86,18
0,69,104,0
0,54,84,0
0,45,127,3
0,50,126,9
0,50,66,3
0,50,71,0
0,55,65,20
0,55,64,0
0,40,81,28
0,57,59,46
0,57,66,0
0,62,66,3
0,62,63,0
0,45,127,8
0,38,93,2
0,35,127,0
0,46,82,0
0,57,74,0
0,50,45,0
0,57,44,0
0,62,45,0
0,67,45,0
0,50,127,6
0,57,126,4
0,40,103,430
0,46,83,0
0,38,97,54
0,35,126,0
0,46,82,190
0,54,51,70
0,54,84,70
0,40,102,190
0,46,82,0
0,33,92,190
0,76,105,0
0,45,127,12
0,50,126,6
0,38,92,87
0,35,126,0
0,46,83,0
0,74,105,52
0,45,126,3
0,50,127,10
0,57,127,7
0,62,126,8
0,40,103,195
0,46,83,0
0,38,93,5
0,72,104,0
0,35,127,0
0,45,126,4
0,50,127,3
0,57,127,8
0,62,126,8
0,46,82,190
0,54,51,70
0,45,126,1
0,45,97,2
0,71,104,0
0,54,85,0
0,50,127,1
0,57,126,3
0,62,127,7
0,50,88,49
0,69,105,0
0,40,102,0
0,46,82,0
0,49,75,0
0,54,50,70
0,67,104,2
0,40,102,0
0,54,85,0
0,40,103,4
0,36,96,0
0,60,64,0
0,35,127,0
0,46,83,0
0,57,75,0
0,48,54,0
0,60,55,0
0,64,54,0
0,67,54,0
0,60,59,0
0,48,117,1
0,52,100,5
0,55,117,2
0,60,116,5
0,64,116,2
0,67,105,84
0,67,67,16
0,67,58,0
0,36,97,44
0,72,105,0
0,40,103,0
0,46,83,0
0,60,64,35
0,60,60,0
0,36,98,12
0,71,104,0
0,35,126,0
0,67,67,79
0,67,59,0
0,72,105,13
0,46,82,0
0,54,50,70
0,36,99,62
0,71,104,0
0,35,100,0
0,54,84,0
0,60,65,41
0,60,60,0
0,36,97,4
0,72,104,0
0,40,102,0
0,46,82,0
0,36,96,30
0,71,105,0
0,35,101,0
0,67,66,5
0,67,63,0
0,41,117,4
0,48,117,5
0,53,112,8
0,55,116,1
0,29,97,3
0,60,65,0
0,69,105,0
0,35,127,0
0,46,83,0
0,41,55,0
0,57,55,0
0,60,54,0
0,67,54,0
0,60,59,0
0,60,117,5
0,65,117,7
0,67,66,206
0,67,58,0
0,29,96,57
0,40,102,0
0,46,82,0
0,60,64,1
0,60,61,0
0,29,96,12
0,67,104,0
0,35,126,0
0,67,67,79
0,67,58,0
0,46,83,3
0,54,51,70
0,29,97,50
0,35,100,0
0,54,85,0
0,60,65,15
0,60,60,0
0,29,97,7
0,40,103,0
0,46,83,0
0,54,50,70
0,29,96,67
0,54,84,0
0,67,66,5
0,67,63,0
0,40,80,0
0,45,116,0
0,52,117,7
0,57,116,0
0,33,98,4
0,60,64,0
0,35,127,0
0,46,82,0
0,45,55,0
0,57,55,0
0,60,54,0
0,67,54,0
0,60,59,0
0,60,117,3
0,64,117,9
0,67,104,190
0,55,1,0
0,67,67,16
0,67,58,0
0,33,95,3
0,72,105,0
0,64,1,0
0,40,103,0
0,46,83,0
0,40,112,6
0,45,111,1
0,52,98,9
0,57,116,6
0,60,65,1
0,60,60,0
0,60,117,5
0,33,97,7
0,35,126,0
0,64,117,1
0,67,66,79
0,67,59,0
0,72,105,3
0,62,1,0
0,46,82,0
0,54,51,70
0,33,94,70
0,35,101,0
0,54,85,0
0,60,64,42
0,60,61,0
0,33,94,3
0,72,104,0
0,60,1,0
0,40,102,0
0,46,82,0
0,33,95,83
0,67,67,5
0,67,62,0
0,43,80,0
0,47,116,8
0,50,117,6
0,55,117,1
0,31,96,4
0,60,64,0
0,35,127,0
0,46,83,0
0,59,116,0
0,43,55,0
0,60,54,0
0,62,55,0
0,67,55,0
0,60,58,0
0,67,104,3
0,64,1,0
0,67,67,16
0,67,59,0
0,31,95,3
0,72,105,0
0,64,1,0
0,40,102,0
0,46,83,0
0,43,76,2
0,47,117,7
0,50,116,8
0,55,117,7
0,60,65,5
0,60,60,0
0,59,117,3
0,31,95,3
0,72,104,0
0,64,1,0
0,35,126,0
0,67,66,79
0,67,59,0
0,72,105,3
0,64,1,0
0,46,82,0
0,54,50,70
0,31,94,47
0,35,101,0
0,54,84,0
0,60,65,32
0,60,61,0
0,31,97,3
0,71,105,0
0,62,1,0
0,40,103,0
0,46,82,0
0,54,51,70
0,28,96,2
0,35,100,0
0,54,84,0
0,67,66,2
0,67,62,0
0,40,76,0
0,47,117,7
0,52,116,8
0,67,54,0
0,67,59,0
0,55,116,2
0,40,84,2
0,35,126,0
0,46,83,0
0,40,54,0
0,59,55,0
0,62,54,0
0,67,54,0
0,59,117,0
0,64,115,6
0,74,61,187
0,74,60,0
0,72,104,3
0,40,89,64
0,72,105,0
0,40,102,0
0,46,83,0
0,67,65,14
0,67,60,0
0,40,89,0
0,72,104,0
0,35,127,0
0,74,64,90
0,74,61,0
0,72,104,29
0,46,82,0
0,54,51,70
0,40,88,38
0,74,105,0
0,35,101,0
0,54,85,0
0,38,88,33
0,72,105,0
0,40,103,0
0,46,82,0
0,67,60,1
0,67,61,0
0,74,65,6
0,74,60,0
0,40,89,14
0,71,104,0
0,41,114,3
0,48,116,5
0,53,117,8
0,55,117,3
0,41,87,7
0,72,104,0
0,35,126,0
0,46,83,0
0,41,55,0
0,57,55,0
0,60,54,0
0,67,54,0
0,60,116,2
0,67,67,4
0,67,60,0
0,65,108,5
0,72,66,186
0,72,63,0
0,41,86,4
0,67,105,0
0,40,103,0
0,46,82,0
0,67,60,4
0,67,63,0
0,41,111,3
0,41,86,2
0,72,105,0
0,35,126,0
0,48,116,0
0,53,111,9
0,55,117,8
0,60,116,7
0,65,117,8
0,72,65,168
0,72,62,0
0,46,83,22
0,54,50,32
0,67,64,54
0,67,62,0
0,41,87,14
0,67,104,0
0,35,101,0
0,54,85,0
0,67,65,22
0,67,61,0
0,41,86,18
0,40,102,0
0,46,83,0
0,54,50,44
0,72,67,6
0,72,62,0
0,31,87,3
0,72,104,0
0,54,84,0
0,45,64,46
0,45,63,0
0,55,65,73
0,55,63,0
