track,note,velocity,time
1,58,70,7832
1,59,70,15
1,61,70,17
1,61,70,0
1,61,80,20
1,58,70,24
1,61,70,17
1,61,80,25
1,58,70,472
1,59,70,17
1,58,70,15
1,59,70,17
1,58,70,18
1,56,70,18
1,56,70,25
1,58,70,17
1,58,70,25
1,54,70,177
1,58,70,17
1,61,70,20
1,61,70,17
1,58,70,20
1,61,70,17
1,61,70,17
1,58,70,25
1,61,70,20
1,61,70,28
1,63,60,0
1,58,70,168
1,59,70,25
1,58,70,0
1,59,80,23
1,58,80,16
1,59,80,16
1,58,80,16
1,59,80,256
1,58,80,16
1,56,80,16
1,58,80,16
1,58,80,24
1,54,80,24
1,54,70,171
1,58,70,25
1,61,70,18
1,61,70,25
1,58,70,2
1,61,70,25
1,61,70,13
1,58,70,30
1,61,70,18
1,61,70,13
1,58,70,352
1,59,94,25
1,58,61,18
1,59,94,15
1,58,61,18
1,59,94,25
1,58,61,18
1,59,70,20
1,58,70,18
1,58,80,23
1,54,70,107
1,54,70,18
1,59,70,20
1,61,70,18
1,61,70,15
1,58,70,18
1,61,70,15
1,58,70,18
1,61,70,15
1,61,70,18
1,63,70,20
1,61,70,18
1,58,70,20
1,61,70,18
1,58,70,148
1,59,80,18
1,58,80,32
1,59,80,16
1,58,80,32
1,59,80,16
1,63,80,32
1,63,80,96
1,66,80,16
1,68,70,16
1,66,70,18
1,66,70,20
1,70,70,18
1,66,70,18
1,66,80,263
1,70,80,0
1,63,80,48
1,66,80,0
1,65,80,0
1,68,80,0
1,70,70,355
1,66,70,0
1,68,70,80
1,65,70,0
1,66,70,13
1,63,70,0
1,66,80,23
1,70,80,0
1,70,70,18
1,66,70,0
1,68,70,18
1,65,70,5
1,66,70,13
1,70,70,0
1,65,70,0
1,68,70,2
1,63,70,18
1,66,70,0
1,66,70,395
1,63,70,0
1,63,70,18
1,59,70,0
1,63,70,13
1,65,70,23
1,68,70,7
1,66,70,18
1,70,70,0
1,65,70,16
1,68,70,0
1,63,70,27
1,66,70,0
1,65,70,13
1,68,70,0
1,63,70,0
1,66,70,2
1,70,70,0
1,66,70,0
1,66,70,32
1,70,70,0
1,65,70,16
1,68,70,2
1,66,70,13
1,70,70,0
1,68,70,77
1,65,70,0
1,63,70,13
1,66,70,0
1,66,70,120
1,63,70,0
1,66,70,0
1,63,70,0
1,59,70,20
1,61,70,0
1,63,70,10
1,59,70,0
1,59,70,35
1,63,70,0
1,61,70,0
1,68,70,2
1,61,70,18
1,66,70,0
1,70,70,13
1,61,70,0
1,61,70,18
1,68,70,0
1,66,70,80
1,63,70,0
1,58,70,0
1,54,70,1112
1,59,70,17
1,61,70,20
1,61,70,17
1,58,70,20
1,61,70,17
1,58,70,17
1,63,70,25
1,61,70,20
1,58,70,88
1,61,70,32
1,58,70,20
1,59,70,25
1,58,70,0
1,59,70,18
1,58,70,13
1,59,70,10
1,58,70,240
1,58,70,135
1,56,70,0
1,58,70,20
1,56,70,88
1,58,70,32
1,54,70,20
1,54,70,25
1,54,70,152
1,58,70,27
1,61,70,18
1,61,70,15
1,58,70,18
1,61,70,25
1,58,70,18
1,63,70,20
1,61,70,18
1,58,70,20
1,61,70,18
1,58,70,115
1,59,80,18
1,58,70,48
1,59,70,0
1,58,70,35
1,66,70,170
1,70,70,0
1,68,70,18
1,66,70,20
1,70,70,18
1,66,70,18
1,66,70,178
1,66,70,25
1,66,70,18
1,65,70,25
1,66,70,2
1,66,70,25
1,65,70,13
1,66,70,18
1,61,70,13
1,59,70,378
1,59,70,25
1,58,70,18
1,59,70,15
1,58,70,18
1,59,70,25
1,58,70,18
1,59,70,20
1,58,70,18
1,58,70,0
1,58,80,23
1,54,70,107
1,58,70,173
1,58,70,15
1,61,70,18
1,63,70,18
1,58,70,15
1,58,70,138
1,58,70,15
1,61,70,18
1,63,70,18
1,58,70,135
1,59,70,17
1,58,70,15
1,59,70,17
1,58,70,18
1,70,70,330
1,68,70,35
1,66,70,20
1,70,70,18
1,66,70,18
1,70,80,263
1,66,80,0
1,66,80,48
1,63,80,0
1,65,80,0
1,68,80,0
1,70,70,355
1,66,70,0
1,65,70,80
1,68,70,0
1,63,70,13
1,66,70,0
1,66,80,23
1,70,80,0
1,66,70,18
1,70,70,0
1,68,70,18
1,65,70,5
1,70,70,13
1,66,70,0
1,65,70,0
1,68,70,2
1,63,70,18
1,66,70,0
1,66,70,395
1,63,70,0
1,63,70,18
1,59,70,0
1,63,70,13
1,65,70,23
1,68,70,7
1,70,70,18
1,66,70,0
1,65,70,16
1,68,70,0
1,63,70,27
1,66,70,0
1,68,70,13
1,65,70,0
1,63,70,0
1,66,70,2
1,66,70,0
1,70,70,0
1,66,70,32
1,70,70,0
1,65,70,16
1,68,70,2
1,66,70,13
1,70,70,0
1,68,70,77
1,65,70,0
1,66,70,13
1,63,70,0
1,66,70,120
1,63,70,0
1,66,70,0
1,63,70,0
1,61,70,20
1,59,70,0
1,63,70,10
1,59,70,0
1,59,70,35
1,63,70,0
1,61,70,0
1,68,70,2
1,66,70,18
1,61,70,0
1,70,70,13
1,61,70,0
1,61,70,18
1,68,70,0
1,66,70,80
1,63,70,0
1,58,70,0
1,66,80,720
1,63,70,48
1,66,70,15
1,63,70,0
1,66,70,23
1,63,70,0
1,66,70,0
1,70,70,152
1,68,70,15
1,66,70,20
1,66,70,20
1,68,70,20
1,66,70,18
1,70,70,28
1,70,70,23
1,70,70,20
1,66,70,15
1,66,70,20
1,66,70,15
1,68,70,23
1,68,70,23
1,68,70,20
1,66,70,18
1,68,70,20
1,66,70,23
1,66,70,263
1,66,70,15
1,66,70,20
1,63,70,0
1,61,70,30
1,70,70,180
1,68,70,15
1,66,70,20
1,68,80,368
1,70,80,48
1,68,80,16
1,66,80,16
1,66,80,32
1,65,80,16
1,66,80,16
1,54,70,8072
1,58,70,17
1,61,70,20
1,61,70,17
1,58,70,20
1,61,70,17
1,58,70,17
1,58,70,25
1,61,70,20
1,61,70,32
1,58,80,268
1,59,80,16
1,58,80,32
1,59,80,16
1,58,80,32
1,58,80,96
1,56,80,16
1,56,70,16
1,58,70,20
1,56,70,88
1,58,70,32
1,54,70,260
1,58,80,25
1,58,80,32
1,58,80,16
1,61,80,32
1,63,80,48
1,58,80,192
1,58,80,32
1,58,80,16
1,61,80,32
1,63,80,48
1,59,80,192
1,58,80,32
1,59,80,16
1,59,80,32
1,63,80,256
1,66,80,32
1,70,70,16
1,68,70,18
1,66,70,20
1,70,70,18
1,66,70,18
1,66,70,178
1,66,70,25
1,66,70,18
1,65,70,25
1,66,70,2
1,63,70,13
1,66,80,0
1,66,70,32
1,65,70,0
1,61,80,18
1,59,70,518
1,59,70,25
1,58,70,18
1,59,70,15
1,58,70,18
1,59,70,25
1,58,70,18
1,59,70,20
1,58,70,18
1,58,80,23
1,54,70,107
1,58,70,258
1,59,70,15
1,61,70,18
1,58,70,18
1,61,80,13
1,58,80,32
1,63,70,23
1,61,70,18
1,58,70,20
1,61,80,20
1,63,80,51
1,59,70,360
1,58,70,15
1,59,70,17
1,63,80,180
1,66,80,16
1,70,70,24
1,68,70,35
1,66,70,20
1,70,70,18
1,66,70,18
1,66,80,263
1,70,80,0
1,63,80,48
1,66,80,0
1,65,80,0
1,68,80,0
1,70,70,355
1,66,70,0
1,68,70,80
1,65,70,0
1,66,70,13
1,63,70,0
1,66,80,23
1,70,80,0
1,70,70,18
1,66,70,0
1,68,70,18
1,65,70,5
1,66,70,13
1,70,70,0
1,65,70,0
1,68,70,2
1,66,70,18
1,63,70,0
1,66,70,395
1,63,70,0
1,59,70,18
1,63,70,0
1,63,70,13
1,65,70,23
1,68,70,7
1,70,70,18
1,66,70,0
1,65,70,16
1,68,70,0
1,63,70,27
1,66,70,0
1,65,70,13
1,68,70,0
1,63,70,0
1,66,70,2
1,66,70,0
1,70,70,0
1,66,70,32
1,70,70,0
1,71,70,16
1,66,70,2
1,66,70,13
1,70,70,0
1,68,70,77
1,65,70,0
1,63,70,13
1,66,70,0
1,66,70,120
1,63,70,0
1,66,70,0
1,63,70,0
1,61,70,20
1,59,70,0
1,63,70,10
1,59,70,0
1,59,70,35
1,63,70,0
1,61,70,0
1,68,70,2
1,66,70,18
1,61,70,0
1,70,70,13
1,61,70,0
1,61,70,18
1,68,70,0
1,66,70,80
1,58,70,0
1,63,70,0
1,66,70,840
1,63,70,0
1,66,70,0
1,63,70,0
1,61,70,20
1,59,70,0
1,63,70,10
1,59,70,0
1,63,70,35
1,59,70,0
1,61,70,0
1,68,70,2
1,61,70,18
1,66,70,0
1,70,70,13
1,61,70,0
1,61,70,18
1,68,70,0
1,66,70,80
1,68,80,0
1,66,80,0
1,58,80,960
2,59,120,61440
2,63,127,0
2,61,127,0
2,58,96,960
2,61,127,30
2,59,127,0
2,61,127,0
2,59,113,0
2,63,106,0
2,61,108,0
3,70,60,16800
3,73,52,0
3,75,46,0
3,78,60,0
3,73,39,0
3,70,60,160
3,73,60,0
3,75,54,0
3,78,57,0
3,80,49,0
3,78,57,0
3,75,60,0
3,73,60,0
3,75,48,0
3,77,60,0
3,75,39,0
3,71,48,0
3,78,42,0
3,77,48,0
3,73,54,0
3,78,54,0
3,80,54,0
3,77,48,0
3,78,54,0
3,73,54,0
3,77,54,0
3,75,54,0
3,77,42,0
3,78,54,0
3,71,54,0
3,75,54,0
3,77,39,0
3,73,60,0
3,78,45,0
3,80,48,0
3,73,60,0
3,70,60,0
3,75,48,0
3,78,48,0
3,80,48,0
3,78,39,0
3,71,48,0
3,73,54,4560
3,75,60,0
3,73,60,0
3,70,60,0
3,73,60,0
3,75,60,0
3,78,60,0
3,80,60,0
3,82,60,0
3,78,54,0
3,77,54,0
3,75,54,0
3,77,54,0
3,75,54,0
3,73,54,0
3,75,54,0
3,73,60,0
3,70,60,0
3,68,60,0
3,66,60,0
3,68,60,0
3,66,54,0
3,66,54,0
3,68,54,0
3,70,54,0
3,71,54,0
3,73,54,0
3,75,54,0
3,73,54,0
3,75,54,0
3,78,54,0
3,80,54,0
3,78,56,0
3,75,56,0
3,73,56,0
3,75,54,0
3,77,54,0
3,71,48,0
3,75,39,0
3,78,42,0
3,73,54,0
3,77,48,0
3,78,54,0
3,80,54,0
3,77,48,0
3,73,54,0
3,78,54,0
3,77,54,0
3,75,54,0
3,77,42,0
3,78,54,0
3,71,54,0
3,75,54,0
3,73,60,0
3,77,39,0
3,78,45,0
3,80,48,0
3,73,60,0
3,75,48,0
3,70,60,0
3,78,48,0
3,80,48,0
3,71,48,0
3,78,39,0
3,77,48,0
3,73,48,0
3,75,48,0
3,78,48,0
3,75,54,2560
3,77,54,0
3,73,54,0
3,77,63,960
3,71,40,0
3,75,57,0
3,73,42,0
3,70,49,0
3,66,47,0
3,71,59,0
3,70,49,0
3,73,50,0
3,71,59,0
3,75,36,0
3,77,58,0
3,73,58,0
3,78,52,0
3,80,50,0
3,73,58,0
3,70,58,0
3,66,49,0
3,75,49,0
3,78,43,16800
3,80,42,0
3,75,64,0
3,78,55,0
3,75,48,0
3,73,40,0
3,75,57,400
3,73,60,0
3,75,51,0
3,78,40,0
3,80,45,0
3,78,51,0
3,77,58,0
3,75,54,0
3,77,49,0
3,75,39,0
3,71,48,0
3,78,42,0
3,77,48,0
3,73,54,0
3,78,54,0
3,80,54,0
3,77,48,0
3,78,54,0
3,73,54,0
3,77,54,0
3,75,54,0
3,77,42,0
3,78,54,0
3,75,54,0
3,71,54,0
3,77,39,0
3,73,60,0
3,78,45,0
3,80,48,0
3,73,60,0
3,75,48,0
3,70,60,0
3,78,48,0
3,80,48,0
3,71,39,0
3,78,31,0
3,77,36,0
3,73,36,0
3,75,39,0
3,78,39,0
3,70,28,0
3,78,31,0
3,75,31,0
3,75,25,0
3,70,25,0
3,68,52,3120
3,66,52,0
3,73,52,0
3,61,60,0
3,75,64,0
3,63,64,0
3,65,56,0
3,77,56,0
3,66,48,0
3,78,48,0
3,68,40,0
3,80,40,0
3,82,18,0
3,70,18,0
4,47,45,0
4,54,46,160
4,49,46,80
4,61,47,0
4,63,48,0
4,54,49,0
4,61,49,0
4,46,50,0
4,54,51,160
4,49,51,80
4,61,52,0
4,63,53,0
4,54,53,0
4,58,54,0
4,47,55,0
4,54,55,160
4,51,56,80
4,59,56,0
4,63,58,0
4,54,58,0
4,58,59,0
4,39,59,0
4,54,60,160
4,51,60,80
4,58,61,0
4,63,62,0
4,51,63,0
4,58,64,0
4,47,64,0
4,54,64,160
4,49,64,80
4,61,64,0
4,63,64,0
4,54,64,0
4,61,64,0
4,46,64,0
4,54,64,160
4,49,64,80
4,61,64,0
4,63,64,0
4,54,64,0
4,58,64,0
4,47,64,0
4,54,64,160
4,51,64,80
4,59,64,0
4,63,64,0
4,54,64,0
4,58,64,0
4,39,64,0
4,54,64,160
4,51,64,80
4,58,64,0
4,63,64,0
4,51,64,0
4,58,64,0
4,47,80,0
4,54,80,160
4,49,80,80
4,61,80,0
4,63,80,0
4,54,80,0
4,61,80,0
4,46,80,0
4,54,80,160
4,49,80,80
4,61,80,0
4,63,80,0
4,54,80,0
4,58,80,0
4,47,80,0
4,54,80,160
4,51,80,80
4,59,80,0
4,63,80,0
4,54,80,0
4,58,80,0
4,39,80,0
4,54,80,160
4,51,80,80
4,58,80,0
4,63,80,0
4,51,80,0
4,49,80,0
4,47,80,0
4,54,80,160
4,49,80,80
4,61,80,0
4,63,80,0
4,54,80,0
4,61,80,0
4,46,80,0
4,54,80,160
4,49,80,80
4,61,80,0
4,63,80,0
4,54,80,0
4,58,80,0
4,47,80,0
4,54,80,160
4,51,80,80
4,59,80,0
4,63,80,0
4,54,80,0
4,58,80,0
4,49,80,0
4,61,80,160
4,56,80,80
4,65,80,0
4,61,80,0
4,56,80,0
4,49,80,0
4,47,80,0
4,54,80,160
4,49,80,80
4,61,80,0
4,63,80,0
4,54,80,0
4,61,80,0
4,46,80,0
4,54,80,160
4,49,80,80
4,61,80,0
4,63,80,0
4,54,80,0
4,58,80,0
4,47,80,0
4,54,80,160
4,51,80,80
4,59,80,0
4,63,80,0
4,54,80,0
4,58,80,0
4,39,80,0
4,54,80,160
4,51,80,80
4,58,80,0
4,63,80,0
4,51,80,0
4,49,80,0
4,47,80,0
4,54,80,160
4,49,80,80
4,61,80,0
4,63,80,0
4,54,80,0
4,61,80,0
4,46,80,0
4,54,80,160
4,49,80,80
4,61,80,0
4,63,80,0
4,54,80,0
4,58,80,0
4,47,80,0
4,54,80,160
4,51,80,80
4,59,80,0
4,63,80,0
4,54,80,0
4,58,80,0
4,49,80,0
4,61,80,160
4,56,80,80
4,65,80,0
4,61,80,0
4,56,80,0
4,49,80,0
4,47,80,0
4,54,80,240
4,63,80,160
4,54,80,0
4,49,80,0
4,51,80,12
4,54,80,24
4,56,80,12
4,49,80,0
4,56,80,0
4,49,80,0
4,65,80,0
4,56,80,0
4,49,80,0
4,42,80,0
4,54,80,160
4,61,80,80
4,66,80,0
4,41,80,0
4,61,80,0
4,54,80,0
4,54,80,0
4,49,80,160
4,39,80,0
4,54,80,160
4,58,80,0
4,51,80,0
4,63,80,0
4,54,80,0
4,58,80,0
4,51,80,0
4,49,80,0
4,47,80,0
4,54,80,160
4,51,80,80
4,63,80,0
4,59,80,0
4,54,80,0
4,54,80,0
4,51,80,0
4,54,80,0
4,49,80,0
4,61,80,160
4,56,80,80
4,65,80,0
4,59,80,0
4,44,80,80
4,58,80,0
4,49,80,0
4,54,80,0
4,42,80,0
4,66,80,240
4,61,80,0
4,54,80,0
4,41,80,80
4,58,80,160
4,54,80,0
4,39,80,80
4,46,80,160
4,49,80,80
4,54,80,0
4,49,80,0
4,58,80,0
4,54,80,0
4,47,80,0
4,54,80,160
4,51,80,80
4,59,80,0
4,63,80,0
4,54,80,0
4,59,80,80
4,58,80,0
4,49,80,0
4,61,80,160
4,56,80,80
4,65,80,0
4,61,80,0
4,56,80,80
4,39,64,48
4,54,60,160
