track,note,velocity,time
0,47,79,623
0,54,74,52
0,49,66,33
0,49,0,63
0,54,0,0
0,47,0,0
0,61,84,0
0,63,51,8
0,61,0,32
0,54,43,1
0,63,0,32
0,61,48,32
0,54,0,2
0,61,0,1
0,46,79,0
0,54,77,63
0,49,79,21
0,61,66,15
0,49,0,31
0,46,0,0
0,54,0,0
0,61,0,1
0,63,69,0
0,54,51,32
0,63,0,31
0,58,51,33
0,58,0,8
0,54,0,0
0,47,79,0
0,54,69,15
0,51,66,32
0,59,84,9
0,51,0,18
0,47,0,0
0,54,0,1
0,59,0,63
0,63,79,0
0,54,66,24
0,63,0,31
0,58,55,33
0,58,0,16
0,54,0,1
0,39,79,0
0,51,79,63
0,54,89,0
0,54,0,5
0,51,0,0
0,39,0,0
0,58,93,1
0,49,30,9
0,63,66,6
0,58,0,1
0,38,43,0
0,38,0,3
0,63,0,1
0,38,51,0
0,54,48,0
0,38,0,3
0,54,0,1
0,38,55,0
0,38,0,1
0,58,61,0
0,38,89,0
0,38,0,6
0,58,0,0
0,49,0,0
0,40,26,0
0,36,20,0
0,47,66,0
0,35,64,0
0,40,0,1
0,36,0,2
0,54,66,0
0,49,74,1
0,44,127,1
0,40,26,0
0,38,93,0
0,38,0,23
0,40,0,0
0,44,0,31
0,61,79,0
0,40,26,33
0,40,0,31
0,61,0,0
0,49,0,1
0,54,0,31
0,47,0,0
0,63,58,0
0,35,0,2
0,63,0,1
0,44,127,0
0,40,26,0
0,54,58,0
0,38,89,0
0,38,0,31
0,40,0,0
0,54,0,29
0,44,0,0
0,35,45,0
0,61,58,1
0,38,84,0
0,38,0,7
0,35,0,0
0,61,0,1
0,34,48,0
0,40,26,0
0,46,77,0
0,40,0,27
0,54,74,32
0,49,72,32
0,40,26,1
0,44,127,0
0,38,77,0
0,38,0,21
0,40,0,1
0,44,0,0
0,61,84,3
0,54,0,15
0,49,0,0
0,46,0,0
0,40,26,1
0,40,0,32
0,63,61,31
0,61,0,1
0,38,51,0
0,38,0,26
0,34,0,0
0,63,0,1
0,54,30,0
0,44,127,0
0,40,26,0
0,38,77,0
0,38,0,21
0,40,0,0
0,44,0,1
0,54,0,31
0,58,72,0
0,38,64,1
0,38,0,17
0,58,0,0
0,40,26,1
0,35,54,0
0,47,69,0
0,40,0,32
0,54,66,31
0,38,102,2
0,40,26,0
0,44,127,0
0,51,77,0
0,40,0,8
0,38,0,0
0,44,0,1
0,59,96,15
0,38,74,1
0,38,0,24
0,40,26,1
0,40,0,32
0,47,0,31
0,63,58,0
0,51,0,1
0,59,0,0
0,54,0,0
0,35,0,18
0,54,61,0
0,63,0,1
0,40,26,0
0,44,105,0
0,38,86,0
0,38,0,23
0,44,0,1
0,40,0,0
0,58,58,31
0,58,0,4
0,39,79,0
0,54,0,1
0,39,62,0
0,40,26,0
0,40,0,32
0,51,74,31
0,44,127,32
0,38,79,1
0,40,26,0
0,54,84,0
0,38,0,20
0,44,0,0
0,40,0,1
0,58,80,3
0,51,0,1
0,54,0,0
0,39,0,0
0,38,66,0
0,38,0,29
0,40,26,1
0,40,0,31
0,58,0,3
0,63,55,0
0,38,48,1
0,38,0,31
0,39,0,0
0,54,64,0
0,63,0,1
0,40,26,0
0,44,125,0
0,38,48,0
0,38,0,31
0,44,0,0
0,40,0,0
0,38,55,1
0,38,0,31
0,54,0,1
0,58,64,0
0,38,64,0
0,38,0,20
0,58,0,0
0,36,20,1
0,40,26,0
0,47,74,0
0,40,0,31
0,54,79,0
0,70,66,0
0,36,0,1
0,49,66,31
0,38,79,0
0,70,0,1
0,40,26,0
0,71,58,0
0,44,96,0
0,40,0,14
0,38,0,0
0,44,0,1
0,71,0,31
0,61,89,0
0,73,51,0
0,38,84,0
0,38,0,32
0,73,0,0
0,73,84,1
0,40,26,0
0,61,0,9
0,40,0,1
0,63,69,31
0,73,0,22
0,49,0,1
0,63,0,0
0,54,66,0
0,44,124,0
0,40,26,0
0,38,89,0
0,38,0,31
0,44,0,0
0,54,0,0
0,47,0,0
0,40,0,0
0,61,55,32
0,73,64,1
0,61,0,4
0,54,0,0
0,73,0,1
0,70,74,0
0,40,26,0
0,46,74,0
0,40,0,32
0,54,72,31
0,70,0,1
0,73,77,0
0,38,77,3
0,44,126,0
0,73,0,1
0,40,26,0
0,49,89,0
0,40,0,21
0,38,0,0
0,44,0,0
0,61,117,2
0,38,66,1
0,73,77,0
0,38,0,27
0,46,0,1
0,49,0,0
0,40,26,0
0,54,0,1
0,40,0,1
0,61,0,23
0,63,58,0
0,73,0,1
0,75,93,0
0,75,0,32
0,63,0,0
0,44,108,0
0,54,55,0
0,40,26,0
0,38,96,0
0,38,0,31
0,40,0,0
0,54,0,1
0,44,0,0
0,58,55,32
0,58,0,3
0,36,20,0
0,40,26,1
0,47,79,0
0,40,0,32
0,36,0,0
0,70,61,31
0,54,77,0
0,70,0,32
0,44,102,0
0,38,102,1
0,71,74,0
0,40,26,0
0,51,79,0
0,40,0,19
0,44,0,0
0,38,0,0
0,71,0,17
0,70,51,0
0,59,84,0
0,38,66,1
0,38,0,13
0,51,0,0
0,70,0,1
0,47,0,0
0,54,0,0
0,71,81,0
0,40,26,0
0,40,0,31
0,71,0,31
0,63,66,0
0,70,61,0
0,59,0,1
0,38,79,11
0,63,0,1
0,44,124,0
0,40,26,0
0,54,69,0
0,44,0,31
0,70,0,0
0,38,0,0
0,40,0,1
0,70,66,31
0,58,61,1
0,70,0,7
0,54,0,0
0,39,69,0
0,58,0,1
0,68,58,0
0,40,26,0
0,40,0,32
0,68,0,0
0,68,55,0
0,51,72,0
0,44,77,32
0,68,0,1
0,38,86,0
0,54,86,0
0,70,84,0
0,40,26,0
0,40,0,20
0,44,0,0
0,38,0,0
0,70,0,1
0,51,0,7
0,58,102,0
0,39,0,1
0,54,0,0
0,38,69,0
0,70,77,0
0,38,0,31
0,40,26,1
0,40,0,21
0,70,0,1
0,63,64,0
0,58,0,1
0,63,0,32
0,38,89,0
0,40,26,0
0,54,55,0
0,44,93,0
0,44,0,31
0,38,0,0
0,40,0,0
0,54,0,33
0,58,48,0
0,58,0,11
0,40,26,1
0,36,20,0
0,47,69,0
0,40,0,31
0,36,0,1
0,54,81,31
0,71,58,0
0,71,0,31
0,38,89,0
0,49,79,0
0,44,111,0
0,71,58,0
0,40,26,0
0,40,0,16
0,38,0,0
0,44,0,0
0,71,0,5
0,61,84,0
0,38,84,0
0,73,64,0
0,73,0,8
0,38,0,0
0,73,89,1
0,40,26,0
0,40,0,31
0,47,0,0
0,49,0,1
0,54,0,31
0,63,55,0
0,61,0,1
0,54,51,3
0,73,0,1
0,40,26,0
0,44,93,0
0,38,79,0
0,38,0,31
0,44,0,0
0,40,0,1
0,63,0,31
0,61,51,0
0,73,74,0
0,73,0,13
0,61,0,0
0,54,0,0
0,40,26,0
0,70,89,0
0,46,79,0
0,40,0,29
0,70,0,31
0,54,79,0
0,73,84,0
0,38,69,31
0,73,0,1
0,40,26,0
0,44,108,0
0,49,84,0
0,44,0,26
0,38,0,0
0,40,0,9
0,46,0,0
0,49,0,0
0,38,51,0
0,61,93,0
0,38,0,1
0,54,0,0
0,73,102,0
0,40,26,32
0,40,0,32
0,73,0,4
0,63,55,0
0,75,74,0
0,61,0,1
0,75,0,20
0,54,69,0
0,38,96,0
0,63,0,1
0,44,124,0
0,40,26,0
0,44,0,23
0,38,0,0
0,40,0,1
0,61,55,31
0,70,55,1
0,70,0,3
0,61,0,0
0,54,0,1
0,36,20,0
0,71,79,0
0,47,66,0
0,40,26,0
0,40,0,32
0,36,0,0
0,71,0,31
0,54,74,0
0,70,51,1
0,70,0,31
0,38,81,0
0,44,93,0
0,71,58,0
0,40,26,0
0,51,72,0
0,44,0,26
0,38,0,0
0,71,0,1
0,40,0,0
0,70,77,0
0,70,0,7
0,54,0,0
0,51,0,0
0,47,0,0
0,71,84,0
0,38,79,0
0,63,84,1
0,38,0,3
0,71,0,1
0,40,26,0
0,70,64,0
0,70,0,31
0,40,0,1
0,54,30,31
0,44,89,6
0,63,0,1
0,40,26,0
0,59,61,0
0,38,81,0
0,38,0,31
0,44,0,0
0,40,0,1
0,70,64,0
0,63,55,0
0,63,0,7
0,70,0,0
0,59,0,0
0,49,79,0
0,68,80,0
0,54,0,1
0,40,26,0
0,40,0,32
0,68,0,0
0,56,89,0
0,70,69,0
0,53,64,32
0,38,66,0
0,70,0,1
0,40,26,0
0,44,124,0
0,44,0,29
0,38,0,0
0,40,0,0
0,56,0,1
0,53,0,0
0,49,0,31
0,65,96,0
0,38,79,0
0,68,84,0
0,38,0,1
0,40,26,32
0,40,0,32
0,68,0,31
0,38,43,0
0,61,69,0
0,66,51,0
0,38,0,1
0,40,26,32
0,44,102,0
0,38,55,0
0,56,69,0
0,38,0,31
0,40,0,0
0,66,0,0
0,44,0,0
0,65,0,1
0,56,0,0
0,61,0,0
0,38,72,0
0,38,0,31
0,38,81,0
0,38,0,3
0,35,74,1
0,36,20,0
0,40,26,0
0,47,86,0
0,36,0,32
0,40,0,31
0,54,74,0
0,70,43,0
0,70,0,32
0,71,79,0
0,49,79,1
0,38,84,0
0,44,124,0
0,40,26,0
0,38,0,19
0,44,0,1
0,71,0,0
0,40,0,31
0,61,96,0
0,73,58,0
0,38,74,0
0,73,0,1
0,49,0,0
0,54,0,0
0,38,0,31
0,47,0,0
0,73,96,0
0,40,26,1
0,73,0,31
0,40,0,32
0,63,66,0
0,61,0,1
0,73,77,0
0,73,0,31
0,54,64,0
0,40,26,1
0,38,124,0
0,44,89,0
0,73,80,0
0,73,0,31
0,38,0,0
0,44,0,0
0,63,0,1
0,35,0,31
0,40,0,0
0,73,74,0
0,61,61,0
0,36,20,1
0,36,0,3
0,73,0,0
0,30,74,0
0,61,0,1
0,54,0,0
0,70,86,0
0,40,26,0
0,36,20,0
0,46,89,0
0,36,0,32
0,40,0,31
0,70,0,0
0,73,93,0
0,54,69,0
0,38,79,5
0,73,0,1
0,40,26,0
0,70,77,0
0,49,66,0
0,44,127,0
0,44,0,27
0,38,0,0
0,46,0,32
0,40,0,0
0,54,0,0
0,49,0,0
0,38,74,0
0,73,80,0
0,61,96,0
0,38,0,32
0,70,0,1
0,73,74,0
0,40,26,0
0,40,0,63
0,73,0,0
0,75,66,0
0,63,66,0
0,38,26,0
0,38,0,1
0,61,0,0
0,75,77,31
0,38,79,0
0,38,0,1
0,63,0,0
0,73,0,0
0,54,64,0
0,40,26,0
0,44,89,0
0,44,0,31
0,75,0,0
0,30,0,0
0,40,0,0
0,38,64,0
0,38,0,32
0,38,86,1
0,58,55,0
0,58,0,6
0,38,0,0
0,54,0,0
0,78,64,0
0,36,20,0
0,75,0,1
0,35,69,0
0,47,72,0
0,40,26,0
0,40,0,31
0,36,0,1
0,70,58,0
0,54,102,0
0,70,0,32
0,71,89,0
0,44,123,0
0,51,64,1
0,38,79,0
0,40,26,0
0,40,0,22
0,38,0,0
0,44,0,0
0,71,0,32
0,47,0,0
0,54,0,0
0,51,0,0
0,59,84,0
0,38,84,0
0,70,64,0
0,38,0,32
0,71,80,0
0,70,0,1
0,40,26,0
0,40,0,31
0,71,0,32
0,63,64,0
0,70,66,0
0,59,0,1
0,70,0,31
0,44,126,0
0,71,66,0
0,35,0,1
0,38,126,0
0,54,74,0
0,40,26,0
0,38,0,31
0,44,0,0
0,40,0,32
0,58,72,0
0,71,0,1
0,63,0,0
0,70,64,0
0,36,20,0
0,36,0,4
0,58,0,0
0,54,0,0
0,39,79,0
0,39,59,0
0,70,0,1
0,71,89,0
0,36,20,0
0,40,26,0
0,36,0,32
0,71,0,31
0,40,0,0
0,51,72,0
0,70,77,0
0,54,69,33
0,44,127,0
0,38,79,0
0,40,26,0
0,38,0,30
0,44,0,0
0,70,0,0
0,51,0,32
0,40,0,0
0,54,0,0
0,58,96,0
0,38,43,0
0,70,80,0
0,38,0,31
0,39,0,0
0,40,26,1
0,70,0,31
0,40,0,32
0,63,66,0
0,38,64,0
0,70,96,0
0,38,0,1
0,58,0,0
0,39,0,31
0,54,79,0
0,63,0,1
0,70,0,0
0,44,127,0
0,40,26,0
0,38,64,0
0,66,84,0
0,38,0,31
0,40,0,0
0,44,0,0
0,66,0,1
0,58,64,31
0,66,30,0
0,36,20,0
0,38,55,0
0,38,0,1
0,36,0,0
0,78,0,9
0,66,0,0
0,71,64,0
0,47,74,0
0,35,51,0
0,58,0,1
0,54,0,0
0,36,20,0
0,40,26,0
0,40,0,31
0,36,0,1
0,71,0,31
0,73,61,0
0,54,89,0
0,73,0,1
0,73,69,31
0,38,84,0
0,49,64,1
0,44,127,0
0,40,26,0
0,40,0,24
0,44,0,0
0,38,0,0
0,47,0,32
0,54,0,0
0,73,0,0
0,49,0,0
0,61,86,0
0,38,96,0
0,70,3,0
0,70,0,31
0,38,0,0
0,73,96,0
0,40,26,1
0,73,0,32
0,40,0,31
0,73,93,0
0,63,55,0
0,61,0,1
0,44,86,31
0,54,79,0
0,35,0,1
0,73,0,0
0,38,96,0
0,40,26,0
0,40,0,31
0,63,0,0
0,44,0,0
0,38,0,0
0,73,58,1
0,61,66,31
0,36,20,0
0,36,0,1
0,73,0,0
0,70,14,0
0,70,0,4
0,61,0,0
0,46,72,0
0,54,0,1
0,36,20,0
0,40,26,0
0,30,64,0
0,75,72,0
0,40,0,31
0,36,0,0
0,75,0,32
0,54,77,0
0,73,64,0
0,73,0,32
0,70,79,0
0,49,69,0
0,70,81,0
0,38,64,0
0,40,26,1
0,44,108,0
0,44,0,20
0,38,0,0
0,49,0,1
0,70,0,31
0,54,0,0
0,40,0,0
0,46,0,0
0,38,84,0
0,61,86,0
0,73,80,1
0,38,0,31
0,73,64,0
0,70,0,1
0,40,26,0
0,40,0,63
0,73,0,0
0,63,55,0
0,75,79,0
0,61,0,1
0,73,0,31
0,75,0,0
0,38,81,0
0,75,66,0
0,44,124,0
0,30,0,1
0,40,26,0
0,54,64,0
0,63,0,31
0,44,0,0
0,38,0,0
0,40,0,32
0,58,58,0
0,70,64,1
0,70,0,6
0,58,0,0
0,54,0,0
0,36,20,0
0,75,0,1
0,71,96,0
0,40,26,0
0,78,66,0
0,47,84,0
0,35,56,0
0,36,0,31
0,71,0,32
0,40,0,0
0,54,74,0
0,70,30,1
0,70,0,31
0,44,86,1
0,40,26,0
0,38,79,0
0,71,69,0
0,51,84,0
0,71,0,26
0,38,0,0
0,44,0,0
0,70,55,0
0,35,0,1
0,51,0,0
0,47,0,0
0,54,0,31
0,70,0,0
0,40,0,0
0,38,72,0
0,71,84,0
0,63,72,0
0,38,0,1
0,75,64,31
0,78,0,1
0,71,0,0
0,30,56,0
0,36,20,0
0,40,26,0
0,70,64,0
0,70,0,32
0,36,0,31
0,40,0,0
0,54,61,0
0,59,51,32
0,63,0,1
0,40,26,0
0,44,79,0
0,38,74,0
0,38,0,31
0,30,0,0
0,44,0,0
0,40,0,32
0,73,64,0
0,63,35,0
0,73,0,1
0,59,0,4
0,75,0,0
0,36,20,0
0,75,81,0
0,73,66,0
0,37,74,0
0,49,84,0
0,54,0,1
0,63,0,0
0,40,26,0
0,36,0,14
0,75,0,32
0,40,0,0
0,56,66,0
0,78,84,0
0,38,58,6
0,44,96,1
0,53,84,0
0,40,26,0
0,53,0,31
0,44,0,0
0,56,0,0
0,78,0,0
0,49,0,0
0,38,0,0
0,38,22,1
0,38,0,31
0,40,0,0
0,37,0,0
0,80,89,0
0,38,86,0
0,65,99,0
0,38,30,1
0,38,0,31
0,73,0,0
0,38,0,0
0,80,0,0
0,82,72,0
0,36,20,0
0,75,89,0
0,32,38,1
0,40,26,0
0,38,61,0
0,38,0,31
0,40,0,0
0,36,0,1
0,38,48,0
0,38,0,31
0,82,0,0
0,54,51,0
0,38,64,0
0,38,0,1
0,38,35,0
0,78,96,0
0,38,0,31
0,38,125,0
0,38,0,1
0,75,0,0
0,32,0,0
0,38,77,0
