track,note,velocity,time
1,60,100,1980
1,60,0,60
1,63,100,0
1,63,0,60
1,65,100,0
1,65,0,60
1,65,100,0
1,65,0,60
1,63,100,0
1,63,0,60
1,63,100,0
1,63,0,60
1,60,100,0
1,60,0,60
1,60,100,0
1,60,0,60
1,61,100,0
1,61,0,120
1,61,100,0
1,61,0,30
1,60,100,0
1,60,0,90
1,60,100,0
1,60,0,60
1,60,100,0
1,60,0,60
1,60,100,0
1,60,0,180
1,60,100,60
1,60,0,30
1,60,100,0
1,60,0,30
1,61,100,0
1,61,0,60
1,60,100,0
1,60,0,60
1,58,100,0
1,58,0,60
1,58,100,0
1,58,0,240
1,60,100,360
1,60,0,60
1,63,100,0
1,63,0,60
1,68,100,0
1,68,0,60
1,68,100,0
1,68,0,15
1,67,100,0
1,67,0,45
1,67,100,0
1,67,0,120
1,67,100,0
1,67,0,60
1,67,100,0
1,67,0,15
1,65,100,0
1,65,0,45
1,65,100,0
1,65,0,60
1,65,100,0
1,65,0,60
1,65,100,0
1,65,0,120
1,63,100,0
1,63,0,60
1,63,100,0
1,63,0,60
1,63,100,0
1,63,0,120
1,60,100,0
1,60,0,60
1,60,100,0
1,60,0,60
1,61,100,0
1,61,0,30
1,60,100,0
1,60,0,90
1,58,100,0
1,58,0,120
1,58,100,0
1,58,0,180
1,58,100,420
1,58,0,60
1,58,100,0
1,58,0,30
1,60,100,0
1,60,0,120
1,60,100,30
1,60,0,60
1,58,100,0
1,58,0,120
1,58,100,0
1,58,0,60
1,56,100,0
1,56,0,210
1,60,100,270
1,60,0,60
1,60,100,0
1,60,0,60
1,60,100,0
1,60,0,30
1,61,100,0
1,61,0,90
1,60,100,0
1,60,0,60
1,58,100,0
1,58,0,60
1,56,100,0
1,56,0,60
1,56,100,0
1,56,0,30
1,58,100,0
1,58,0,210
1,58,100,360
1,58,0,30
1,60,100,0
1,60,0,30
1,60,100,0
1,60,0,60
1,60,100,0
1,60,0,40
1,58,100,0
1,58,0,80
1,58,100,0
1,58,0,60
1,58,100,0
1,58,0,40
1,56,100,0
1,56,0,80
1,56,100,0
1,56,0,120
1,56,100,0
1,56,0,60
1,53,100,0
1,53,0,120
1,53,100,60
1,53,0,60
1,60,100,0
1,60,0,120
1,60,100,0
1,60,0,60
1,60,100,0
1,60,0,40
1,61,100,0
1,61,0,80
1,60,100,0
1,60,0,60
1,58,100,0
1,58,0,120
1,58,100,0
1,58,0,360
1,68,100,240
1,68,0,60
1,67,100,0
1,67,0,30
1,65,100,0
1,65,0,30
1,63,100,0
1,63,0,120
1,63,100,0
1,63,0,60
1,63,100,0
1,63,0,30
1,65,100,0
1,65,0,90
1,63,100,0
1,63,0,120
1,60,100,0
1,60,0,30
1,58,100,0
1,58,0,30
1,56,100,0
1,56,0,120
1,56,100,0
1,56,0,60
1,56,100,0
1,56,0,90
1,68,100,30
1,68,0,120
1,67,100,0
1,67,0,30
1,65,100,0
1,65,0,30
1,63,100,0
1,63,0,120
1,63,100,0
1,63,0,60
1,63,100,0
1,63,0,30
1,65,100,0
1,65,0,90
1,63,100,0
1,63,0,120
1,60,100,0
1,60,0,60
1,58,100,0
1,58,0,120
1,56,100,0
1,56,0,60
1,56,100,0
1,56,0,90
1,68,100,30
1,68,0,120
1,67,100,0
1,67,0,30
1,65,100,0
1,65,0,30
1,63,100,0
1,63,0,120
1,63,100,0
1,63,0,60
1,63,100,0
1,63,0,30
1,65,100,0
1,65,0,90
1,63,100,0
1,63,0,120
1,60,100,0
1,60,0,120
1,61,100,0
1,61,0,60
1,60,100,0
1,60,0,120
1,60,100,60
1,60,0,60
1,60,100,0
1,60,0,60
1,61,100,0
1,61,0,120
1,60,100,0
1,60,0,120
1,58,100,0
1,58,0,120
1,56,100,0
1,56,0,360
1,60,100,1350
1,60,0,90
1,58,100,0
1,58,0,30
1,56,40,0
1,56,0,30
1,58,100,0
1,58,0,40
1,60,100,0
1,60,0,90
1,60,100,170
1,60,0,60
1,58,100,0
1,58,0,60
1,58,100,0
1,58,0,60
1,58,100,0
1,58,0,60
1,56,100,0
1,56,0,120
1,56,100,0
1,56,0,30
1,53,100,0
1,53,0,90
1,60,100,240
1,60,0,60
1,60,100,0
1,60,0,60
1,60,100,0
1,60,0,60
1,61,100,0
1,61,0,60
1,60,100,0
1,60,0,60
1,60,100,0
1,60,0,60
1,60,100,0
1,60,0,15
1,58,100,0
1,58,0,105
1,58,100,0
1,58,0,120
1,60,100,0
1,60,0,150
1,58,100,210
1,58,0,60
1,58,100,0
1,58,0,60
1,60,100,0
1,60,0,60
1,60,100,0
1,60,0,60
1,58,100,0
1,58,0,60
1,58,100,0
1,58,0,60
1,58,100,0
1,58,0,30
1,56,100,0
1,56,0,90
1,56,100,0
1,56,0,120
1,56,100,0
1,56,0,30
1,53,100,0
1,53,0,90
1,56,100,120
1,56,0,30
1,56,100,0
1,56,0,30
1,60,100,0
1,60,0,60
1,60,100,0
1,60,0,60
1,60,100,0
1,60,0,60
1,60,100,0
1,60,0,60
1,61,100,0
1,61,0,60
1,60,100,0
1,60,0,60
1,60,100,0
1,60,0,60
1,60,100,0
1,60,0,15
1,58,100,0
1,58,0,105
1,58,100,0
1,58,0,120
1,60,100,0
1,60,0,150
1,67,60,210
1,67,0,15
1,68,100,0
1,68,0,105
1,67,100,0
1,67,0,60
1,65,100,0
1,65,0,30
1,63,100,0
1,63,0,120
1,68,100,90
1,68,0,60
1,67,100,0
1,67,0,60
1,65,100,0
1,65,0,60
1,63,100,0
1,63,0,60
1,65,100,0
1,65,0,120
1,60,100,60
1,60,0,60
1,65,100,0
1,65,0,60
1,63,100,0
1,63,0,60
1,63,100,0
1,63,0,60
1,63,100,0
1,63,0,120
1,61,100,0
1,61,0,60
1,60,100,0
1,60,0,60
1,58,100,0
1,58,0,120
1,58,100,0
1,58,0,120
1,58,100,0
1,58,0,30
1,60,100,0
1,60,0,120
1,60,100,90
1,60,0,60
1,65,100,0
1,65,0,60
1,68,100,0
1,68,0,120
1,68,100,0
1,68,0,60
1,67,100,0
1,67,0,120
1,67,100,0
1,67,0,60
1,65,100,0
1,65,0,120
1,65,100,0
1,65,0,30
1,63,100,0
1,63,0,90
1,63,100,0
1,63,0,120
1,63,100,180
1,63,0,120
1,63,100,0
1,63,0,60
1,61,100,0
1,61,0,60
1,61,100,0
1,61,0,60
1,60,100,0
1,60,0,60
1,58,100,0
1,58,0,60
1,58,100,0
1,58,0,240
1,60,60,0
1,60,0,60
1,68,100,360
1,68,0,60
1,67,100,0
1,67,0,30
1,65,100,0
1,65,0,30
1,63,100,0
1,63,0,120
1,63,100,0
1,63,0,60
1,63,100,0
1,63,0,30
1,65,100,0
1,65,0,90
1,63,100,0
1,63,0,120
1,60,100,0
1,60,0,30
1,58,100,0
1,58,0,30
1,56,100,0
1,56,0,120
1,56,100,0
1,56,0,60
1,56,100,0
1,56,0,90
1,68,100,30
1,68,0,120
1,67,100,0
1,67,0,30
1,65,100,0
1,65,0,30
1,63,100,0
1,63,0,120
1,63,100,0
1,63,0,60
1,63,100,0
1,63,0,30
1,65,100,0
1,65,0,90
1,63,100,0
1,63,0,120
1,60,100,0
1,60,0,60
1,58,100,0
1,58,0,120
1,56,100,0
1,56,0,60
1,56,100,0
1,56,0,90
1,68,100,90
1,68,0,60
1,67,100,0
1,67,0,30
1,65,100,0
1,65,0,30
1,63,100,0
1,63,0,120
1,63,100,0
1,63,0,60
1,63,100,0
1,63,0,30
1,65,100,0
1,65,0,90
1,63,100,0
1,63,0,120
1,60,100,0
1,60,0,120
1,61,100,0
1,61,0,60
1,60,100,0
1,60,0,120
1,60,100,60
1,60,0,60
1,56,100,0
1,56,0,60
1,61,100,0
1,61,0,120
1,60,100,0
1,60,0,120
1,58,100,0
1,58,0,120
1,56,100,0
1,56,0,360
1,60,100,300
1,60,0,120
1,63,100,0
1,63,0,60
1,63,100,0
1,63,0,420
1,68,100,120
1,68,0,120
1,68,100,0
1,68,0,120
1,68,100,0
1,68,0,120
1,67,100,0
1,67,0,60
1,67,100,0
1,67,0,120
1,65,100,0
1,65,0,210
1,67,100,0
1,67,0,30
1,65,100,0
1,65,0,30
1,63,100,0
1,63,0,90
1,61,100,0
1,61,0,30
1,60,100,0
1,60,0,90
1,60,100,180
1,60,0,120
1,63,100,0
1,63,0,60
1,63,100,0
1,63,0,420
1,68,100,120
1,68,0,120
1,68,100,0
1,68,0,120
1,68,100,0
1,68,0,120
1,67,100,0
1,67,0,60
1,67,100,0
1,67,0,120
1,65,100,0
1,65,0,810
1,60,100,210
1,60,0,60
1,60,100,0
1,60,0,60
1,60,100,0
1,60,0,60
1,60,100,0
1,60,0,120
1,60,100,0
1,60,0,120
1,58,100,0
1,58,0,120
1,56,100,0
1,56,0,180
1,56,100,300
1,56,0,60
1,56,100,0
1,56,0,60
1,56,100,0
1,56,0,60
1,58,100,0
1,58,0,60
1,58,100,0
1,58,0,240
1,60,100,420
1,60,0,60
1,60,100,0
1,60,0,60
1,60,100,0
1,60,0,60
1,60,100,0
1,60,0,120
1,60,100,0
1,60,0,120
1,58,100,0
1,58,0,120
1,56,100,0
1,56,0,180
1,56,100,300
1,56,0,60
1,61,100,0
1,61,0,60
1,60,100,0
1,60,0,60
1,58,100,0
1,58,0,60
1,58,100,0
1,58,0,240
1,60,100,0
1,60,0,30
1,58,100,0
1,58,0,30
1,56,100,0
1,56,0,240
1,60,100,120
1,60,0,60
1,60,100,0
1,60,0,60
1,60,100,0
1,60,0,60
1,60,100,0
1,60,0,120
1,60,100,0
1,60,0,120
1,58,100,0
1,58,0,120
1,56,100,0
1,56,0,180
1,56,100,300
1,56,0,60
1,56,100,0
1,56,0,60
1,56,100,0
1,56,0,60
1,58,100,0
1,58,0,60
1,58,100,0
1,58,0,240
1,68,100,420
1,68,0,60
1,67,100,0
1,67,0,30
1,65,100,0
1,65,0,30
1,63,100,0
1,63,0,120
1,63,100,0
1,63,0,60
1,63,100,0
1,63,0,30
1,65,100,0
1,65,0,90
1,63,100,0
1,63,0,120
1,60,100,0
1,60,0,30
1,58,100,0
1,58,0,30
1,56,100,0
1,56,0,120
1,56,100,0
1,56,0,60
1,56,100,0
1,56,0,90
1,68,100,30
1,68,0,120
1,67,100,0
1,67,0,30
1,65,100,0
1,65,0,30
1,63,100,0
1,63,0,120
1,63,100,0
1,63,0,60
1,63,100,0
1,63,0,30
1,65,100,0
1,65,0,90
1,63,100,0
1,63,0,120
1,60,100,0
1,60,0,60
1,58,100,0
1,58,0,120
1,56,100,0
1,56,0,60
1,56,100,0
1,56,0,90
1,68,100,90
1,68,0,60
1,67,100,0
1,67,0,30
1,65,100,0
1,65,0,30
1,63,100,0
1,63,0,120
1,63,100,0
1,63,0,60
1,63,100,0
1,63,0,30
1,65,100,0
1,65,0,90
1,63,100,0
1,63,0,120
1,60,100,0
1,60,0,120
1,61,100,0
1,61,0,60
1,60,100,0
1,60,0,120
1,60,100,60
1,60,0,60
1,56,100,0
1,56,0,60
1,61,100,0
1,61,0,120
1,60,100,0
1,60,0,120
1,58,100,0
1,58,0,120
1,56,100,0
1,56,0,360
1,68,100,180
1,68,0,60
1,67,100,0
1,67,0,30
1,65,100,0
1,65,0,30
1,63,100,0
1,63,0,120
1,63,100,0
1,63,0,60
1,63,100,0
1,63,0,30
1,65,100,0
1,65,0,90
1,63,100,0
1,63,0,120
1,60,100,0
1,60,0,30
1,58,100,0
1,58,0,30
1,56,100,0
1,56,0,120
1,56,100,0
1,56,0,60
1,56,100,0
1,56,0,90
1,68,100,30
1,68,0,120
1,67,100,0
1,67,0,30
1,65,100,0
1,65,0,30
1,63,100,0
1,63,0,120
1,63,100,0
1,63,0,60
1,63,100,0
1,63,0,30
1,65,100,0
1,65,0,90
1,63,100,0
1,63,0,120
1,60,100,0
1,60,0,60
1,58,100,0
1,58,0,120
1,56,100,0
1,56,0,60
1,56,100,0
1,56,0,90
1,68,100,90
1,68,0,60
1,67,100,0
1,67,0,30
1,65,100,0
1,65,0,30
1,63,100,0
1,63,0,120
1,63,100,0
1,63,0,60
1,63,100,0
1,63,0,30
1,65,100,0
1,65,0,90
1,63,100,0
1,63,0,120
1,60,100,0
1,60,0,120
1,61,100,0
1,61,0,60
1,60,100,0
1,60,0,120
1,60,100,60
1,60,0,60
1,56,100,0
1,56,0,120
1,61,100,0
1,61,0,60
1,60,100,0
1,60,0,120
1,58,100,0
1,58,0,120
1,56,100,0
1,56,0,360
1,60,100,120
1,60,0,60
1,60,100,0
1,60,0,180
1,63,100,0
1,63,0,60
1,58,100,0
1,58,0,30
1,60,100,0
1,60,0,150
1,58,100,0
1,58,0,360
1,56,100,0
1,56,0,480
1,55,100,3660
1,55,0,60
1,56,100,0
1,56,0,180
1,60,100,240
1,60,0,180
1,56,100,0
1,56,0,360
1,60,100,420
1,60,0,180
1,56,100,0
1,56,0,360
1,60,100,420
1,60,0,180
1,56,100,0
1,56,0,240
1,55,100,60
1,55,0,60
1,56,100,0
1,56,0,180
1,60,100,240
1,60,0,180
1,56,100,0
1,56,0,360
1,60,100,420
1,60,0,180
1,56,100,0
1,56,0,360
1,60,100,420
1,60,0,180
1,56,100,0
1,56,0,240
1,55,100,60
1,55,0,60
1,56,100,0
1,56,0,180
1,60,100,240
1,60,0,180
1,56,100,0
1,56,0,360
1,60,100,420
1,60,0,180
1,56,100,0
1,56,0,360
1,60,100,420
1,60,0,180
1,56,100,0
1,56,0,240
2,53,100,0
2,60,100,60
2,63,100,60
2,68,100,60
2,53,0,60
2,53,100,0
2,60,0,60
2,60,100,0
2,63,0,60
2,63,100,0
2,68,0,60
2,67,100,0
2,53,0,60
2,53,100,0
2,60,0,60
2,60,100,0
2,63,0,60
2,63,100,0
2,67,0,60
2,65,100,0
2,53,0,60
2,53,100,0
2,60,0,60
2,60,100,0
2,63,0,60
2,63,100,0
2,65,0,60
2,72,100,0
2,53,0,60
2,53,100,0
2,60,0,60
2,60,100,0
2,63,0,60
2,63,100,0
2,68,100,60
2,53,0,60
2,53,100,0
2,60,0,60
2,60,100,0
2,63,0,60
2,63,100,0
2,68,0,60
2,72,0,0
2,79,45,0
2,67,100,0
2,53,0,60
2,53,100,0
2,60,0,60
2,60,100,0
2,63,0,60
2,63,100,0
2,67,0,60
2,65,100,0
2,77,45,0
2,53,0,60
2,53,100,0
2,60,0,60
2,60,100,0
2,63,0,60
2,63,100,0
2,79,0,60
2,65,0,60
2,53,0,0
2,53,100,0
2,60,0,60
2,60,100,0
2,63,0,60
2,63,100,0
2,68,100,60
2,53,0,60
2,77,0,0
2,53,100,0
2,60,0,60
2,60,100,0
2,63,0,60
2,63,100,0
2,68,0,60
2,67,100,0
2,60,0,60
2,53,0,0
2,49,100,0
2,56,100,60
2,63,0,60
2,61,100,0
2,67,0,60
2,65,100,0
2,49,0,60
2,49,100,0
2,56,0,60
2,56,100,0
2,61,0,60
2,61,100,0
2,65,0,60
2,63,100,0
2,61,0,60
2,49,0,0
2,44,100,0
2,56,0,60
2,51,100,0
2,56,100,60
2,63,0,60
2,60,100,0
2,44,0,60
2,44,100,0
2,51,0,60
2,51,100,0
2,56,0,60
2,56,100,0
2,60,0,60
2,58,100,0
2,44,0,60
2,56,0,0
2,39,100,0
2,51,0,60
2,46,100,0
2,51,100,60
2,58,0,60
2,63,100,0
2,55,100,0
2,39,0,60
2,39,100,0
2,39,0,240
2,55,0,0
2,51,0,0
2,46,0,0
2,63,0,0
2,53,100,0
2,60,100,60
2,63,100,60
2,68,100,60
2,53,0,60
2,53,100,0
2,60,0,60
2,60,100,0
2,63,0,60
2,63,100,0
2,68,0,60
2,67,100,0
2,60,0,60
2,53,0,0
2,49,100,0
2,56,100,60
2,63,0,60
2,61,100,0
2,67,0,60
2,65,100,0
2,49,0,60
2,49,100,0
2,56,0,60
2,56,100,0
2,61,0,60
2,61,100,0
2,65,0,60
2,63,100,0
2,61,0,60
2,49,0,0
