track,note,velocity,time
0,50,48,746
0,59,50,11
0,62,35,7
0,67,54,5
0,71,62,8
0,62,57,25
0,67,65,6
0,71,84,6
0,59,48,21
0,69,67,2
0,67,53,1
0,50,54,0
0,62,55,0
0,71,53,13
0,62,51,5
0,67,53,10
0,69,55,0
0,62,57,0
0,71,65,11
0,67,72,5
0,50,48,35
0,57,40,8
0,60,49,2
0,62,50,5
0,67,58,11
0,60,59,7
0,67,54,7
0,71,71,8
0,60,56,8
0,67,54,0
0,69,84,1
0,67,54,1
0,71,62,0
0,60,52,7
0,67,54,2
0,69,62,1
0,71,67,2
0,67,54,5
0,55,106,7
0,57,42,41
0,67,42,16
0,60,76,28
0,45,49,88
0,57,50,2
0,60,58,10
0,57,38,18
0,45,81,2
0,64,67,2
0,67,67,6
0,71,58,6
0,69,89,5
0,60,67,1
0,71,73,1
0,69,70,46
0,71,72,45
0,45,79,46
0,47,76,2
0,48,46,18
0,55,56,1
0,60,71,8
0,55,45,2
0,60,67,7
0,64,55,3
0,67,53,9
0,60,70,8
0,67,54,2
0,52,63,28
0,52,58,34
0,55,57,22
0,60,68,3
0,64,59,6
0,67,64,6
0,50,78,85
0,50,63,18
0,55,52,5
0,62,42,5
0,71,62,91
0,71,50,0
0,62,55,14
0,67,58,8
0,71,72,1
0,71,71,4
0,71,62,14
0,62,59,0
0,67,62,1
0,71,71,24
0,50,62,6
0,50,49,41
0,71,60,5
0,67,64,10
0,69,68,4
0,71,68,5
0,67,59,5
0,67,62,14
0,62,64,1
0,50,55,6
0,57,55,1
0,71,79,94
0,71,72,29
0,57,54,13
0,62,51,4
0,71,78,2
0,67,60,8
0,71,63,0
0,50,64,27
0,71,67,3
0,50,63,64
0,71,68,32
0,57,73,2
0,69,66,3
0,62,64,4
0,67,62,10
0,55,68,15
0,60,67,3
0,45,79,2
0,52,73,6
0,71,64,0
0,71,57,0
0,57,66,23
0,60,72,3
0,71,73,0
0,67,68,8
0,71,56,46
0,71,69,31
0,52,62,1
0,64,46,8
0,52,72,2
0,67,50,8
0,45,62,45
0,52,71,2
0,69,47,46
0,45,50,18
0,50,68,4
0,71,55,4
0,48,74,12
0,55,57,6
0,64,46,7
0,67,46,5
0,55,73,3
0,60,71,1
0,67,64,4
0,69,55,0
0,71,50,0
0,55,44,1
0,60,62,2
0,67,55,3
0,48,63,46
0,64,50,0
0,48,78,34
0,67,42,28
0,55,51,41
0,60,55,2
0,52,51,3
0,67,61,3
0,69,58,14
0,50,63,7
0,50,71,3
0,55,56,4
0,62,60,4
0,55,55,0
0,59,46,13
0,71,74,83
0,71,64,28
0,62,55,8
0,55,44,1
0,50,73,1
0,71,74,0
0,55,71,4
0,59,67,6
0,71,56,27
0,71,62,11
0,50,73,1
0,62,40,0
0,55,31,2
0,55,63,5
0,59,75,0
0,71,66,24
0,62,32,17
0,69,50,0
0,55,81,2
0,57,76,0
0,50,68,1
0,55,32,1
0,67,56,44
0,55,73,0
0,50,68,2
0,60,81,0
0,62,60,8
0,55,55,0
0,55,68,5
0,57,64,3
0,50,70,0
0,71,59,0
0,71,58,0
0,50,75,11
0,62,55,2
0,71,65,0
0,55,44,1
0,55,62,3
0,57,50,5
0,71,55,47
0,71,64,27
0,62,40,54
0,55,31,2
0,71,59,26
0,69,52,0
0,50,74,3
0,62,32,10
0,57,75,3
0,55,32,1
0,67,51,17
0,50,71,17
0,55,74,2
0,45,58,6
0,57,55,0
0,62,60,0
0,52,52,3
0,55,64,4
0,59,56,15
0,71,68,74
0,71,62,27
0,52,48,15
0,62,55,0
0,71,72,0
0,57,44,1
0,55,68,7
0,59,65,3
0,71,65,28
0,71,68,28
0,62,40,54
0,57,31,1
0,64,55,18
0,67,57,36
0,55,61,11
0,62,62,2
0,62,32,2
0,57,32,4
0,67,50,0
0,69,59,4
0,55,59,6
0,60,60,1
0,67,55,5
0,48,74,12
0,71,62,1
0,62,60,0
0,55,55,0
0,55,74,8
0,64,52,9
0,67,59,12
0,55,44,9
0,62,55,2
0,55,44,1
0,60,65,2
0,67,55,10
0,69,64,28
0,71,62,0
0,60,49,6
0,67,49,1
0,55,50,11
0,48,40,3
0,62,40,1
0,55,31,2
0,64,48,24
0,67,48,8
0,60,69,16
0,67,67,7
0,62,32,5
0,55,32,4
0,69,55,11
0,55,51,42
0,43,41,53
0,50,53,12
0,31,94,2
0,55,62,6
0,62,60,0
0,55,55,0
0,62,55,83
0,62,67,1
0,55,44,0
0,50,92,3
0,67,59,1
0,71,59,1
0,47,71,23
0,43,74,17
0,69,44,3
0,67,49,6
0,62,56,2
0,62,40,35
0,45,75,1
0,55,31,1
0,67,74,2
0,71,61,10
0,69,59,10
0,62,42,1
0,67,36,5
0,43,52,28
0,67,60,0
0,71,74,0
0,62,32,48
0,74,72,0
0,45,71,1
0,55,32,3
0,71,60,0
0,47,69,1
0,50,69,1
0,57,50,1
0,60,62,4
0,38,89,1
0,69,63,7
0,62,60,1
0,55,55,0
0,67,61,3
0,62,51,41
0,67,58,0
0,71,75,2
0,62,55,4
0,50,92,0
0,55,44,0
0,47,71,23
0,43,74,17
0,62,47,8
0,69,66,3
0,67,63,10
0,62,52,4
0,71,55,2
0,45,75,1
0,62,40,2
0,55,31,2
0,67,50,4
0,62,45,3
0,69,57,2
0,71,59,15
0,62,57,1
0,67,59,0
0,43,52,4
0,74,67,48
0,45,71,1
0,62,32,3
0,55,32,4
0,71,47,9
0,47,69,0
0,69,57,3
0,45,50,8
0,33,92,7
0,52,63,1
0,57,55,1
0,62,60,0
0,55,62,18
0,67,50,11
0,62,55,41
0,50,92,0
0,57,44,0
0,71,64,7
0,60,56,1
0,67,56,1
0,47,71,23
0,43,74,17
0,60,51,1
0,69,61,5
0,67,50,2
0,45,75,13
0,67,57,1
0,71,50,2
0,62,40,1
0,60,56,0
0,57,31,1
0,69,50,10
0,60,59,1
0,67,50,2
0,43,52,16
0,60,59,1
0,71,59,0
0,67,67,0
0,64,63,48
0,45,71,1
0,62,32,3
0,57,32,3
0,67,66,0
0,69,64,0
0,47,69,0
0,71,65,0
0,48,59,13
0,55,50,1
0,60,57,5
0,36,100,1
0,62,60,1
0,55,55,0
0,62,46,8
0,64,62,0
0,55,50,10
0,62,55,6
0,50,92,0
0,55,44,0
0,62,59,5
0,60,55,2
0,47,71,23
0,43,74,17
0,67,62,2
0,72,46,2
0,55,55,4
0,52,61,2
0,45,75,1
0,62,40,4
0,48,64,0
0,62,64,0
0,55,31,0
0,74,36,3
0,72,47,41
0,43,52,38
0,74,52,1
0,60,64,1
0,50,55,1
0,72,43,2
0,62,61,8
0,74,59,1
0,45,71,1
0,55,42,0
0,48,63,2
0,62,32,0
0,52,67,4
0,55,32,0
0,72,50,20
0,74,65,1
0,60,79,2
0,47,69,1
0,50,78,1
0,72,67,34
0,50,75,2
0,55,75,2
0,36,120,0
0,42,120,0
0,57,100,0
0,62,60,0
0,55,55,0
0,31,110,0
0,62,82,0
0,55,77,0
0,71,73,72
0,42,87,0
0,71,62,20
0,62,40,23
0,62,55,0
0,55,44,1
0,50,92,3
0,71,72,0
0,40,115,1
0,67,65,0
0,42,120,0
0,71,76,4
0,47,71,22
0,43,74,17
0,42,79,2
0,67,48,13
0,71,63,1
0,71,71,0
0,62,56,0
0,40,90,0
0,50,76,3
0,71,72,5
0,36,120,0
0,42,124,0
0,62,40,0
0,45,75,1
0,55,31,1
0,55,43,6
0,50,67,27
0,42,97,1
0,43,52,0
0,36,120,0
0,55,75,3
0,71,74,0
0,62,40,14
0,62,32,1
0,69,66,0
0,67,62,0
0,40,115,0
0,45,71,0
0,42,126,1
0,71,71,2
0,55,32,0
0,67,74,15
0,46,107,4
0,47,69,0
0,69,66,3
0,38,96,12
0,50,67,1
0,36,120,1
0,42,120,0
0,62,60,0
0,55,55,0
0,57,63,0
0,71,76,0
0,42,87,0
0,71,58,21
0,62,59,28
0,71,78,1
0,40,115,1
0,62,55,0
0,50,92,0
0,42,120,0
0,55,44,0
0,67,72,2
0,47,71,22
0,43,74,17
0,71,68,1
0,42,79,1
0,62,59,5
0,71,74,1
0,40,90,0
0,67,79,1
0,36,120,14
0,42,124,0
0,45,75,1
0,62,40,4
0,50,56,1
0,55,31,1
0,57,59,0
0,71,70,0
0,42,97,30
0,43,52,0
0,50,68,0
0,36,120,0
0,57,74,1
0,69,71,0
0,67,73,42
0,62,56,1
0,40,115,5
0,42,126,1
0,45,71,0
0,62,32,3
0,55,32,4
0,67,55,7
0,46,107,13
0,47,69,0
0,60,81,1
0,33,98,2
0,45,67,1
0,36,120,3
0,42,120,0
0,57,55,0
0,62,60,0
0,52,81,4
0,55,50,4
0,71,64,5
0,42,87,0
0,71,56,20
0,71,69,29
0,40,115,1
0,62,55,0
0,50,92,0
0,57,44,0
0,42,120,0
0,60,63,5
0,55,53,1
0,67,69,2
0,47,71,22
0,43,74,17
0,71,61,1
0,42,79,1
0,71,74,5
0,40,90,0
0,55,55,2
0,60,59,2
0,36,120,15
0,42,124,0
0,45,75,1
0,45,56,3
0,62,40,1
0,52,46,1
0,57,31,0
0,64,59,21
0,42,97,28
0,43,52,0
0,36,120,0
0,45,57,5
0,52,65,1
0,67,63,0
0,40,115,14
0,42,126,1
0,45,71,0
0,62,32,3
0,60,62,0
0,55,65,1
0,67,58,1
0,57,32,1
0,69,67,6
0,62,55,2
0,46,107,2
0,47,69,0
0,71,64,0
0,36,91,3
0,36,120,0
0,42,120,0
0,62,60,0
0,55,55,0
0,55,72,2
0,48,65,2
0,64,50,25
0,42,87,0
0,67,59,13
0,60,61,44
0,40,115,4
0,62,55,0
0,50,92,0
0,42,120,0
0,55,44,0
0,67,58,1
0,47,71,19
0,69,73,1
0,43,74,17
0,42,79,2
0,71,70,15
0,40,90,0
0,55,65,4
0,60,68,0
0,67,63,0
0,36,120,12
0,42,124,0
0,45,75,1
0,62,40,4
0,55,31,2
0,48,61,3
0,64,58,9
0,40,90,1
0,48,79,0
0,42,97,0
0,43,52,0
0,67,64,0
0,36,120,0
0,55,50,1
0,40,115,10
0,42,126,1
0,45,71,0
0,60,74,1
0,67,66,0
0,55,71,0
0,62,32,2
0,55,32,4
0,69,62,15
0,62,52,3
0,46,107,2
0,47,69,0
0,35,96,2
0,43,59,1
0,50,59,0
0,62,55,0
0,36,120,0
0,42,120,0
0,49,100,0
0,67,49,0
0,71,82,0
0,71,82,0
0,62,82,0
0,55,77,0
0,31,100,1
0,55,59,2
0,59,58,13
0,67,55,2
0,42,87,0
0,55,46,1
0,67,62,0
0,76,70,0
0,40,115,1
0,42,120,0
0,62,53,0
0,67,63,3
0,50,68,0
0,59,79,1
0,55,72,0
0,42,79,2
0,55,49,0
0,74,59,15
0,40,90,0
0,43,72,4
0,62,49,8
0,50,70,2
0,67,49,0
0,71,68,2
0,36,120,0
0,42,124,0
0,55,70,1
0,55,41,2
0,50,58,2
0,42,97,2
0,36,120,0
0,55,58,4
0,74,63,23
0,43,74,6
0,55,68,2
0,59,72,1
0,50,68,0
0,71,67,0
0,40,115,0
0,42,126,0
0,62,49,0
0,67,54,2
0,69,65,7
0,50,62,5
0,55,46,0
0,46,107,3
0,60,91,3
0,55,45,4
0,50,60,11
0,57,37,0
0,36,120,6
0,42,120,0
0,71,78,0
0,71,78,0
0,38,98,1
0,67,46,0
0,62,62,1
0,62,44,1
0,67,59,11
0,67,52,0
0,42,87,0
0,57,48,2
0,67,54,0
0,62,46,1
0,76,67,0
0,40,115,1
0,42,120,0
0,57,75,2
0,62,63,0
0,67,74,2
0,67,49,1
0,74,60,2
0,42,79,1
0,57,46,2
0,50,84,0
0,71,63,0
0,40,90,0
0,62,41,0
0,57,71,2
0,36,120,0
0,42,124,0
0,67,40,2
0,57,49,0
0,57,64,0
0,74,64,3
0,42,97,0
0,36,120,0
0,62,64,1
0,67,70,1
0,71,69,16
0,62,51,0
0,57,76,2
0,67,74,0
0,62,73,0
0,67,55,0
0,40,115,0
0,42,126,1
0,50,76,1
0,69,57,1
0,38,84,46
0,57,56,1
0,46,107,0
0,60,91,2
0,40,70,16
0,45,61,6
0,55,50,1
0,36,120,2
0,42,120,0
0,67,89,0
0,67,89,0
0,52,53,0
0,60,55,3
0,57,67,0
0,60,63,2
0,67,64,1
0,71,69,2
0,42,87,1
0,52,55,3
0,71,61,0
0,67,71,1
0,55,68,1
0,60,74,0
0,71,76,0
0,40,115,1
0,42,120,1
0,57,52,0
0,60,57,1
0,72,68,0
0,42,79,1
0,52,44,0
0,71,70,0
0,40,90,1
0,45,64,3
0,52,60,1
0,57,47,1
0,60,50,3
0,36,120,2
0,42,124,0
0,55,64,5
0,60,60,1
0,60,38,0
0,72,64,0
0,52,46,1
0,67,41,0
0,42,97,0
0,36,120,1
0,55,69,1
0,71,64,17
0,55,74,20
0,60,75,0
0,67,63,3
0,40,115,3
0,42,126,0
0,52,57,1
0,45,74,0
0,57,46,0
0,60,54,3
0,72,66,1
0,62,59,0
0,67,53,0
0,46,107,1
0,55,68,1
0,35,104,0
0,52,46,0
0,71,57,0
0,52,72,0
0,48,37,13
0,55,44,2
0,67,74,0
0,67,74,0
0,55,60,0
0,36,98,1
0,36,120,0
0,46,120,0
0,60,55,0
0,60,59,2
0,67,66,10
0,72,64,2
0,46,87,0
0,52,45,0
0,71,68,0
0,36,120,1
0,55,67,1
0,60,74,0
0,67,67,0
0,55,45,0
0,60,56,0
0,40,115,1
0,46,120,1
0,36,100,1
0,52,42,0
0,72,67,0
0,36,120,4
0,46,79,0
0,48,73,5
0,52,65,0
0,55,55,0
0,71,62,0
0,40,115,1
0,55,43,1
0,60,41,0
0,60,50,1
0,46,124,2
0,67,70,2
0,36,100,1
0,36,120,1
0,72,64,0
0,52,46,1
0,40,115,0
0,55,97,0
0,52,73,1
0,48,67,1
0,71,60,0
0,55,54,1
0,67,64,4
0,55,64,0
0,60,67,1
0,36,120,0
0,43,90,0
0,46,126,1
0,55,44,0
0,28,85,3
0,60,51,0
0,69,58,12
0,40,115,1
0,52,76,0
0,48,82,1
0,55,64,9
0,30,100,2
0,52,48,3
0,40,115,0
0,46,107,0
0,62,60,9
0,62,57,2
0,43,55,1
0,55,46,0
0,50,55,0
0,67,74,0
0,36,120,0
0,57,100,0
0,67,49,0
0,62,82,0
0,55,77,0
0,31,100,2
0,71,71,1
0,67,63,4
0,55,79,0
0,51,87,2
0,55,46,2
0,40,115,10
0,51,120,0
0,62,53,1
0,71,74,0
0,67,63,0
0,57,67,0
0,67,67,2
0,62,72,1
0,51,79,3
0,43,49,0
0,55,49,1
0,55,40,2
0,50,59,1
0,40,90,19
0,69,69,4
0,62,57,0
0,62,49,0
0,67,49,3
0,31,100,0
0,51,124,1
0,36,120,0
0,67,69,1
0,62,56,0
0,71,73,0
0,55,63,3
0,69,64,25
0,67,64,0
0,55,41,0
0,62,47,1
0,60,71,0
0,71,74,2
0,51,97,0
0,36,120,2
0,31,96,2
0,62,50,9
0,62,60,1
0,51,126,2
0,74,71,0
0,40,115,1
0,62,66,0
0,67,55,0
0,62,49,0
0,50,51,0
0,43,62,0
0,55,53,2
0,67,54,0
0,71,69,4
0,62,58,9
0,51,107,0
0,71,64,0
0,55,45,8
0,57,42,1
0,62,55,2
0,51,120,2
0,64,54,1
0,50,58,0
0,36,120,0
0,69,68,0
0,38,94,2
0,67,46,1
0,69,64,0
0,62,44,0
0,55,79,70
0,51,87,0
0,57,48,1
0,62,73,0
0,69,76,1
0,62,46,1
0,40,115,0
0,51,120,0
0,57,67,2
0,67,49,2
0,51,79,16
0,57,46,2
0,50,67,5
0,38,84,14
0,40,90,2
0,57,73,2
0,62,54,3
0,69,70,2
0,62,64,12
0,57,58,1
0,62,41,1
0,51,124,0
0,36,120,0
0,71,62,1
0,40,100,1
0,67,40,0
0,55,63,3
0,69,66,16
0,57,67,0
0,57,74,3
0,62,73,0
0,57,49,0
0,50,39,0
0,71,71,0
0,60,71,0
