track,note,velocity,time
0,64,80,769
0,52,80,0
0,59,80,95
0,64,80,96
0,52,0,1
0,59,0,95
0,59,80,0
0,64,0,96
0,66,80,0
0,59,0,96
0,59,80,0
0,66,0,96
0,67,80,0
0,59,0,96
0,59,80,0
0,67,0,96
0,69,80,0
0,59,0,96
0,59,80,0
0,69,0,96
0,67,80,0
0,59,0,96
0,59,80,0
0,67,0,96
0,66,80,0
0,59,0,96
0,59,80,0
0,66,0,96
0,64,80,0
0,59,0,96
0,59,80,0
0,60,80,96
0,64,0,0
0,48,80,0
0,64,0,1
0,59,0,95
0,55,80,0
0,48,0,96
0,60,80,0
0,64,80,0
0,55,0,96
0,55,80,0
0,64,0,96
0,60,0,0
0,66,80,0
0,55,0,96
0,55,80,0
0,66,0,96
0,67,80,0
0,55,0,96
0,55,80,0
0,67,0,96
0,69,80,0
0,55,0,96
0,55,80,0
0,69,0,96
0,67,80,0
0,55,0,96
0,55,80,0
0,67,0,96
0,66,80,0
0,55,0,96
0,55,80,0
0,66,0,96
0,64,80,0
0,55,0,96
0,55,80,0
0,60,0,96
0,55,80,0
0,64,0,0
0,43,80,0
0,55,0,96
0,50,80,0
0,43,0,96
0,55,80,0
0,62,80,0
0,50,0,96
0,50,80,0
0,62,0,96
0,55,0,0
0,67,80,0
0,50,0,96
0,50,80,0
0,67,0,96
0,69,80,0
0,50,0,96
0,50,80,0
0,69,0,96
0,71,80,0
0,50,0,96
0,50,80,0
0,71,0,96
0,69,80,0
0,50,0,96
0,50,80,0
0,69,0,96
0,67,80,0
0,50,0,96
0,50,80,0
0,67,0,96
0,62,80,0
0,50,0,96
0,50,80,0
0,55,0,96
0,62,80,0
0,50,0,0
0,62,0,0
0,50,80,0
0,57,80,96
0,50,0,96
0,62,80,0
0,57,0,96
0,57,80,0
0,62,0,96
0,66,80,0
0,57,0,96
0,57,80,0
0,66,0,96
0,67,80,0
0,57,0,96
0,57,80,0
0,67,0,96
0,69,80,0
0,57,0,96
0,57,80,0
0,69,0,96
0,67,80,0
0,57,0,96
0,57,80,0
0,67,0,96
0,66,80,0
0,57,0,96
0,57,80,0
0,66,0,96
0,62,80,0
0,57,0,96
0,57,80,0
0,52,92,0
0,62,0,0
0,64,80,0
0,57,0,0
0,62,0,0
0,55,92,96
0,52,0,48
0,59,92,48
0,55,0,48
0,55,92,48
0,59,0,48
0,64,92,48
0,55,0,48
0,59,92,48
0,64,0,48
0,67,92,48
0,59,0,48
0,67,115,0
0,59,92,13
0,67,0,48
0,71,92,0
0,69,115,0
0,67,0,1
0,59,0,47
0,59,92,48
0,71,0,48
0,67,92,48
0,59,0,48
0,59,92,48
0,67,115,0
0,67,0,39
0,71,92,48
0,59,0,48
0,59,92,48
0,71,0,48
0,76,92,48
0,67,0,2
0,66,115,0
0,59,0,45
0,67,115,0
0,59,92,1
0,48,92,12
0,64,0,0
0,60,80,0
0,59,0,48
0,55,92,48
0,48,0,48
0,60,92,48
0,67,0,14
0,64,115,0
0,55,0,34
0,55,92,48
0,60,0,48
0,64,92,48
0,55,0,48
0,55,92,48
0,64,0,48
0,67,92,48
0,55,0,48
0,55,92,48
0,67,0,48
0,72,92,48
0,55,0,48
0,55,92,48
0,64,0,18
0,72,0,30
0,67,92,48
0,55,0,48
0,55,92,48
0,67,0,48
0,72,92,48
0,62,115,0
0,55,0,46
0,55,92,48
0,62,0,5
0,64,115,0
0,72,0,42
0,76,92,48
0,62,115,0
0,55,0,46
0,62,0,41
0,60,115,0
0,55,92,6
0,76,0,48
0,43,92,48
0,60,0,0
0,55,80,0
0,91,100,0
0,59,115,0
0,55,0,40
0,50,92,48
0,43,0,48
0,55,92,18
0,50,0,48
0,50,92,48
0,55,0,48
0,59,92,48
0,91,0,0
0,50,0,48
0,55,92,48
0,59,0,48
0,62,92,48
0,55,0,48
0,55,92,48
0,59,0,1
0,62,0,47
0,67,92,48
0,55,0,48
0,55,92,48
0,67,0,48
0,62,92,48
0,55,0,48
0,59,115,0
0,55,92,15
0,62,0,48
0,59,0,46
0,59,115,0
0,67,92,1
0,55,0,48
0,60,115,0
0,55,92,9
0,67,0,48
0,59,115,0
0,71,92,2
0,55,0,48
0,55,92,48
0,71,0,48
0,59,115,0
0,50,92,1
0,55,0,0
0,62,80,0
0,55,0,48
0,54,92,48
0,59,0,6
0,57,115,0
0,50,0,41
0,57,92,48
0,54,0,48
0,54,92,48
0,57,0,48
0,62,92,48
0,54,0,48
0,54,92,48
0,62,0,48
0,66,92,48
0,54,0,48
0,54,92,48
0,66,0,48
0,69,92,48
0,57,0,17
0,54,0,31
0,54,92,48
0,69,0,48
0,66,92,48
0,54,0,48
0,54,92,48
0,66,0,48
0,69,92,48
0,54,0,48
0,54,92,48
0,69,0,48
0,74,92,48
0,54,0,48
0,54,92,48
0,74,0,48
0,52,92,0
0,62,0,0
0,64,80,0
0,59,80,0
0,55,92,96
0,52,0,48
0,59,92,48
0,55,0,48
0,55,92,48
0,59,0,48
0,64,92,48
0,55,0,48
0,59,92,48
0,64,0,48
0,67,92,48
0,59,0,48
0,67,115,0
0,59,92,12
0,67,0,48
0,71,92,48
0,69,115,0
0,59,0,46
0,59,92,48
0,71,0,48
0,67,92,48
0,59,0,48
0,69,0,32
0,67,115,0
0,59,92,15
0,67,0,48
0,71,92,48
0,59,0,48
0,59,92,48
0,71,0,48
0,66,115,0
0,76,92,6
0,59,0,48
0,59,92,48
0,67,115,0
0,76,0,47
0,48,92,48
0,59,0,0
0,64,0,0
0,60,80,0
0,55,80,0
0,59,0,48
0,55,92,48
0,48,0,48
0,60,92,48
0,67,0,6
0,69,115,0
0,55,0,41
0,55,92,26
0,60,0,48
0,64,92,48
0,55,0,48
0,67,115,0
0,55,92,11
0,64,0,48
0,67,92,48
0,55,0,48
0,55,92,48
0,67,0,48
0,66,115,0
0,72,92,27
0,55,0,48
0,55,92,48
0,72,0,48
0,67,92,48
0,55,0,48
0,55,92,48
0,67,115,0
0,67,0,40
0,72,92,48
0,55,0,48
0,55,92,48
0,72,0,48
0,64,115,0
0,76,92,8
0,55,0,48
0,55,92,48
0,64,0,3
0,62,115,0
0,76,0,44
0,43,92,28
0,55,0,0
0,60,0,0
0,55,80,0
0,50,80,0
0,55,0,48
0,50,92,48
0,43,0,48
0,55,92,48
0,50,0,48
0,50,92,48
0,55,0,48
0,59,92,48
0,50,0,48
0,55,92,48
0,59,0,48
0,62,92,48
0,62,0,18
0,55,0,30
0,55,92,48
0,62,0,48
0,67,92,48
0,55,0,48
0,55,92,48
0,67,0,48
0,62,92,48
0,55,0,48
0,59,115,0
0,55,92,8
0,62,0,48
0,59,0,47
0,67,92,0
0,59,115,0
0,55,0,48
0,60,115,0
0,55,92,3
0,67,0,48
0,71,92,48
0,59,115,0
0,55,0,44
0,55,92,48
0,71,0,48
0,59,0,47
0,50,92,1
0,50,0,0
0,55,0,0
0,62,80,0
0,57,80,0
0,59,115,0
0,55,0,47
0,54,92,48
0,57,115,0
0,50,0,41
0,57,92,48
0,54,0,48
0,54,92,48
0,62,92,48
0,54,0,48
0,54,92,48
0,62,0,48
0,66,92,48
0,54,0,48
0,54,92,48
0,66,0,48
0,69,92,48
0,57,0,6
0,54,0,42
0,54,92,48
0,69,0,48
0,66,92,48
0,54,0,48
0,54,92,48
0,66,0,48
0,69,92,48
0,54,0,48
0,54,92,48
0,69,0,48
0,74,92,48
0,54,0,48
0,54,92,48
0,74,0,48
0,54,0,48
0,52,92,0
0,40,115,0
0,57,0,0
0,62,0,0
0,64,80,0
0,59,80,0
0,55,92,96
0,46,100,0
0,46,0,32
0,52,0,16
0,59,92,48
0,55,0,48
0,55,92,48
0,46,100,0
0,46,0,32
0,64,92,35
0,55,0,48
0,59,92,48
0,46,100,0
0,46,0,32
0,64,0,16
0,67,92,48
0,59,0,48
0,67,115,0
0,59,92,14
0,46,100,0
0,46,0,32
0,67,0,16
0,69,115,0
0,71,92,6
0,59,0,48
0,59,92,48
0,46,100,0
0,46,0,32
0,71,0,16
0,67,92,48
0,59,0,48
0,67,115,0
0,59,92,1
0,46,100,0
0,46,0,32
0,67,0,16
0,71,92,48
0,40,0,0
0,43,115,0
0,59,0,48
0,59,92,48
0,46,100,0
0,46,0,32
0,71,0,16
0,43,0,0
0,47,115,0
0,66,115,0
0,76,92,1
0,59,0,48
0,67,115,0
0,59,92,4
0,47,0,0
0,52,115,0
0,46,100,0
0,46,0,32
0,76,0,16
0,48,92,48
0,52,0,0
0,36,115,0
0,59,0,0
0,64,0,0
0,60,80,0
0,55,80,0
0,59,0,48
0,55,92,48
0,46,100,0
0,46,0,32
0,48,0,16
0,67,0,29
0,69,115,0
0,60,92,18
0,55,0,48
0,55,92,48
0,46,100,0
0,46,0,32
0,60,0,16
0,64,92,5
0,55,0,48
0,55,92,48
0,46,100,0
0,67,115,0
0,46,0,14
0,64,0,16
0,67,92,48
0,55,0,48
0,55,92,48
0,46,100,0
0,46,0,32
0,67,0,16
0,72,92,48
0,67,0,2
0,66,115,0
0,55,0,45
0,55,92,48
0,46,100,0
0,46,0,32
0,72,0,16
0,67,92,48
0,55,0,48
0,55,92,48
0,46,100,0
0,67,115,0
0,46,0,18
0,67,0,16
0,72,92,48
0,36,0,0
0,40,115,0
0,55,0,48
0,67,115,0
0,55,92,6
0,46,100,0
0,46,0,32
0,72,0,16
0,40,0,0
0,43,115,0
0,67,0,44
0,64,115,0
0,76,92,4
0,55,0,48
0,62,115,0
0,55,92,13
0,43,0,0
0,48,115,0
0,46,100,0
0,46,0,32
0,76,0,16
0,43,92,48
0,48,0,0
0,31,115,0
0,55,0,0
0,60,0,0
0,55,80,0
0,50,80,0
0,91,100,0
0,55,0,48
0,50,92,48
0,46,100,0
0,46,0,32
0,43,0,16
0,55,92,48
0,50,0,48
0,50,92,48
0,46,100,0
0,46,0,32
0,55,0,16
0,59,92,48
0,91,0,0
0,55,92,48
0,46,100,0
0,46,0,32
0,59,0,16
0,62,92,48
0,55,0,48
0,55,92,48
0,46,100,0
0,46,0,32
0,62,0,16
0,62,0,11
0,67,92,37
0,55,0,48
0,55,92,48
0,46,100,0
0,46,0,32
0,67,0,16
0,62,92,48
0,55,0,48
0,55,92,48
0,46,100,0
0,59,115,0
0,46,0,26
0,62,0,16
0,59,115,0
0,67,92,1
0,31,0,0
0,35,115,0
0,55,0,48
0,59,0,44
0,60,115,0
0,55,92,3
0,46,100,0
0,46,0,32
0,67,0,16
0,35,0,0
0,38,115,0
0,59,115,0
0,71,92,1
0,55,0,48
0,55,92,48
0,38,0,0
0,43,115,0
0,46,100,0
0,46,0,32
0,71,0,16
0,50,92,48
0,43,0,0
0,38,115,0
0,50,0,0
0,55,0,0
0,62,80,0
0,57,80,0
0,59,115,0
0,55,0,47
0,57,115,0
0,54,92,1
0,46,100,0
0,46,0,32
0,50,0,16
0,57,92,48
0,54,0,48
0,54,92,48
0,46,100,0
0,46,0,32
0,57,0,16
0,62,92,48
0,54,92,43
0,46,100,0
0,46,0,32
0,62,0,16
0,66,92,48
0,54,0,48
0,54,92,48
0,46,100,0
0,46,0,32
0,66,0,16
0,69,92,48
0,54,0,48
0,54,92,48
0,46,100,0
0,46,0,32
0,69,0,16
0,57,0,22
0,66,92,26
0,54,0,48
0,54,92,48
0,46,100,0
0,46,0,32
0,66,0,16
0,69,92,48
0,38,0,0
0,45,115,0
0,54,0,48
0,54,92,48
0,43,115,0
0,46,100,0
0,46,0,32
0,69,0,16
0,45,0,0
0,74,92,48
0,42,115,0
0,54,0,48
0,43,0,0
0,54,92,48
0,40,115,0
0,46,100,0
0,46,0,32
0,74,0,16
0,42,0,0
0,54,0,48
0,52,92,0
0,40,0,0
0,40,115,0
0,57,0,0
0,62,0,0
0,64,80,0
0,59,80,0
0,44,80,0
0,44,0,32
0,55,92,64
0,46,100,0
0,46,0,32
0,52,0,16
0,59,92,48
0,44,80,0
0,44,0,32
0,55,0,16
0,55,92,48
0,46,100,0
0,46,0,32
0,59,0,16
0,64,92,48
0,44,80,0
0,44,0,32
0,55,0,16
0,59,92,14
0,46,100,0
0,46,0,32
0,64,0,16
0,67,92,48
0,44,80,0
0,44,0,32
0,59,0,16
0,67,115,0
0,59,92,16
0,46,100,0
0,46,0,32
0,67,0,16
0,69,115,0
0,71,92,13
0,44,80,0
0,44,0,32
0,59,0,16
0,59,92,48
0,46,100,0
0,46,0,32
0,71,0,16
0,67,92,48
0,44,80,0
0,44,0,32
0,59,0,16
0,59,92,48
0,46,100,0
0,69,0,2
0,67,115,0
0,46,0,29
0,67,0,16
0,71,92,48
0,40,0,0
0,43,115,0
0,44,80,0
0,44,0,32
0,59,0,16
0,59,92,48
0,46,100,0
0,46,0,32
0,71,0,16
0,43,0,0
0,47,115,0
0,67,0,29
0,66,115,0
0,76,92,18
0,44,80,0
0,44,0,32
0,59,0,16
0,59,92,0
0,47,0,0
0,52,115,0
0,66,0,0
0,67,115,0
0,46,100,0
0,46,0,32
0,76,0,16
0,48,92,48
0,52,0,0
0,36,115,0
0,59,0,0
0,64,0,0
0,60,80,0
0,55,80,0
0,44,80,0
0,44,0,32
0,59,0,16
0,55,92,48
0,46,100,0
0,46,0,32
0,48,0,16
0,69,115,0
0,60,92,15
0,44,80,0
0,44,0,32
0,55,0,16
0,55,92,48
0,46,100,0
0,46,0,32
0,60,0,16
0,64,92,48
0,44,80,0
0,44,0,32
0,55,0,16
0,55,92,5
0,69,0,0
0,46,100,0
0,67,115,0
0,67,115,0
0,67,92,2
0,44,80,0
0,44,0,32
0,55,0,16
0,67,0,42
0,66,115,0
0,55,92,5
0,46,100,0
0,46,0,32
0,67,0,16
0,72,92,48
0,44,80,0
0,44,0,32
0,55,0,16
0,55,92,48
0,46,100,0
0,46,0,32
0,66,0,11
0,67,115,0
0,72,0,4
0,67,92,48
0,44,80,0
0,44,0,32
0,55,0,16
0,55,92,48
0,46,100,0
0,46,0,32
0,67,0,16
0,69,115,0
0,72,92,3
0,36,0,0
0,40,115,0
0,44,80,0
0,44,0,32
0,55,0,16
0,67,115,0
0,55,92,12
0,46,100,0
0,46,0,32
0,72,0,16
0,40,0,0
0,43,115,0
0,67,0,43
0,66,115,0
0,76,92,4
0,44,80,0
0,44,0,32
0,55,0,16
0,66,0,45
0,64,115,0
0,55,92,2
0,43,0,0
0,48,115,0
0,46,100,0
0,46,0,32
0,76,0,16
0,64,0,42
0,62,115,0
0,43,92,6
0,48,0,0
0,31,115,0
0,55,0,0
0,60,0,0
0,55,80,0
0,50,80,0
0,44,80,0
0,44,0,32
0,55,0,16
0,50,92,48
0,46,100,0
0,46,0,32
0,43,0,16
0,55,92,48
0,44,80,0
0,44,0,32
0,50,0,16
0,50,92,48
0,46,100,0
0,46,0,32
0,55,0,16
0,59,92,48
0,44,80,0
0,44,0,32
0,50,0,16
0,55,92,48
0,46,100,0
0,62,92,48
0,44,80,0
0,44,0,32
0,55,0,16
0,55,92,48
0,46,100,0
0,46,0,32
0,62,0,16
0,67,92,48
0,44,80,0
0,44,0,32
0,55,0,16
0,62,0,19
0,55,92,29
0,46,100,0
0,46,0,32
0,67,0,16
0,62,92,48
0,44,80,0
0,44,0,32
0,55,0,16
0,59,115,0
0,55,92,33
0,46,100,0
0,46,0,32
0,62,0,16
0,67,92,48
0,31,0,0
0,35,115,0
0,44,80,0
0,59,0,1
0,59,115,0
0,44,0,30
0,55,0,16
0,60,115,0
0,55,92,6
0,46,100,0
0,46,0,32
0,67,0,16
0,35,0,0
0,38,115,0
0,59,115,0
0,71,92,4
0,44,80,0
0,44,0,32
0,55,0,16
0,55,92,48
0,38,0,0
0,43,115,0
0,46,100,0
0,46,0,32
0,71,0,16
0,59,115,0
0,50,92,2
0,43,0,0
0,38,115,0
0,50,0,0
0,55,0,0
0,62,80,0
0,57,80,0
0,44,80,0
0,44,0,32
0,55,0,16
0,57,115,0
0,54,92,4
0,46,100,0
0,46,0,32
