track,note,velocity,time
1,62,110,11520
1,62,0,200
1,59,110,40
1,59,0,117
1,62,110,3
1,62,0,237
1,59,110,3
1,59,0,117
1,62,110,3
1,62,0,200
1,59,110,40
1,59,0,117
1,62,110,3
1,62,0,237
1,59,110,3
1,59,0,117
1,62,110,3
1,62,0,200
1,59,110,40
1,59,0,117
1,62,110,3
1,62,0,237
1,59,110,3
1,59,0,117
1,62,110,3
1,62,0,200
1,59,110,40
1,59,0,117
1,62,110,3
1,62,0,320
1,59,110,280
1,59,0,117
1,57,110,3
1,57,0,117
1,59,110,3
1,59,0,117
1,54,110,3
1,54,0,117
1,57,110,3
1,57,0,200
1,57,110,1720
1,57,0,117
1,57,110,3
1,57,0,117
1,62,110,3
1,62,0,117
1,59,110,3
1,59,0,117
1,62,110,3
1,62,0,200
1,62,110,40
1,62,0,117
1,59,110,3
1,59,0,117
1,62,110,3
1,62,0,200
1,62,110,40
1,62,0,200
1,59,110,40
1,59,0,117
1,62,110,3
1,62,0,320
1,62,110,40
1,62,0,117
1,59,110,3
1,59,0,117
1,62,110,3
1,62,0,117
1,59,110,3
1,59,0,117
1,62,110,3
1,62,0,117
1,59,110,3
1,59,0,117
1,62,110,3
1,62,0,200
1,59,110,520
1,59,0,117
1,54,110,3
1,54,0,117
1,57,110,3
1,57,0,200
1,57,110,2080
1,57,0,117
1,66,110,3
1,66,0,200
1,66,110,40
1,66,0,117
1,66,110,3
1,66,0,320
1,64,110,40
1,64,0,200
1,64,110,40
1,64,0,117
1,64,110,3
1,64,0,237
1,62,110,3
1,62,0,117
1,62,110,3
1,62,0,200
1,59,110,40
1,59,0,117
1,57,110,3
1,57,0,237
1,66,110,3
1,66,0,540
1,57,110,180
1,57,0,117
1,66,110,3
1,66,0,200
1,66,110,40
1,66,0,200
1,66,110,40
1,66,0,117
1,66,110,3
1,66,0,320
1,64,110,40
1,64,0,117
1,57,110,3
1,57,0,117
1,59,110,3
1,59,0,117
1,57,110,3
1,57,0,117
1,62,110,3
1,62,0,117
1,59,110,3
1,59,0,117
1,62,110,3
1,62,0,200
1,62,110,40
1,62,0,200
1,59,110,40
1,59,0,120
1,57,110,0
1,57,0,320
1,57,110,160
1,57,0,117
1,66,110,3
1,66,0,200
1,66,110,40
1,66,0,117
1,69,110,3
1,69,0,237
1,62,110,3
1,62,0,117
1,62,110,3
1,62,0,200
1,59,110,40
1,59,0,117
1,62,110,3
1,62,0,117
1,62,110,3
1,62,0,200
1,62,110,40
1,62,0,200
1,62,110,40
1,62,0,200
1,59,110,40
1,59,0,117
1,57,110,3
1,57,0,117
1,66,110,3
1,66,0,1380
1,62,110,60
1,62,0,200
1,57,110,1840
1,57,0,117
1,64,110,3
1,64,0,200
1,64,110,40
1,64,0,200
1,64,110,40
1,64,0,117
1,64,110,3
1,64,0,360
1,66,110,0
1,66,0,200
1,67,110,40
1,67,0,117
1,67,110,3
1,67,0,237
1,62,110,3
1,62,0,117
1,59,110,3
1,59,0,117
1,62,110,3
1,62,0,120
1,57,110,0
1,57,0,120
1,59,110,0
1,59,0,320
1,55,110,280
1,55,0,200
1,64,110,40
1,64,0,200
1,64,110,40
1,64,0,200
1,64,110,40
1,64,0,117
1,64,110,3
1,64,0,320
1,67,110,40
1,67,0,200
1,67,110,40
1,67,0,200
1,67,110,40
1,67,0,200
1,62,110,40
1,62,0,200
1,59,110,40
1,59,0,200
1,62,110,40
1,62,0,120
1,59,110,0
1,59,0,440
1,57,110,40
1,57,0,117
1,59,110,3
1,59,0,120
1,57,110,0
1,57,0,117
1,57,110,3
1,57,0,1140
1,59,110,1500
1,59,0,120
1,57,110,0
1,57,0,117
1,57,110,3
1,57,0,1140
1,62,110,1500
1,62,0,200
1,59,110,40
1,59,0,117
1,62,110,3
1,62,0,237
1,59,110,3
1,59,0,117
1,62,110,3
1,62,0,200
1,59,110,40
1,59,0,117
1,62,110,3
1,62,0,237
1,59,110,3
1,59,0,117
1,62,110,3
1,62,0,200
1,59,110,40
1,59,0,117
1,62,110,3
1,62,0,237
1,59,110,3
1,59,0,117
1,62,110,3
1,62,0,200
1,59,110,40
1,59,0,117
1,62,110,3
1,62,0,320
1,59,110,280
1,59,0,117
1,57,110,3
1,57,0,117
1,59,110,3
1,59,0,117
1,54,110,3
1,54,0,117
1,57,110,3
1,57,0,200
1,57,110,1720
1,57,0,117
1,57,110,3
1,57,0,117
1,62,110,3
1,62,0,117
1,59,110,3
1,59,0,117
1,62,110,3
1,62,0,200
1,62,110,40
1,62,0,117
1,59,110,3
1,59,0,117
1,62,110,3
1,62,0,200
1,62,110,40
1,62,0,200
1,59,110,40
1,59,0,117
1,62,110,3
1,62,0,320
1,62,110,40
1,62,0,117
1,59,110,3
1,59,0,117
1,62,110,3
1,62,0,117
1,59,110,3
1,59,0,117
1,62,110,3
1,62,0,117
1,59,110,3
1,59,0,117
1,62,110,3
1,62,0,200
1,59,110,520
1,59,0,117
1,54,110,3
1,54,0,117
1,57,110,3
1,57,0,200
1,57,110,2080
1,57,0,117
1,66,110,3
1,66,0,200
1,66,110,40
1,66,0,117
1,66,110,3
1,66,0,320
1,64,110,40
1,64,0,200
1,64,110,40
1,64,0,117
1,64,110,3
1,64,0,237
1,62,110,3
1,62,0,117
1,62,110,3
1,62,0,200
1,59,110,40
1,59,0,117
1,57,110,3
1,57,0,237
1,66,110,3
1,66,0,117
1,66,110,3
1,66,0,420
1,57,110,180
1,57,0,117
1,66,110,3
1,66,0,200
1,66,110,40
1,66,0,200
1,66,110,40
1,66,0,117
1,66,110,3
1,66,0,320
1,64,110,40
1,64,0,117
1,57,110,3
1,57,0,117
1,59,110,3
1,59,0,117
1,57,110,3
1,57,0,117
1,62,110,3
1,62,0,117
1,59,110,3
1,59,0,117
1,62,110,3
1,62,0,200
1,62,110,40
1,62,0,200
1,59,110,40
1,59,0,120
1,57,110,0
1,57,0,320
1,57,110,160
1,57,0,117
1,66,110,3
1,66,0,200
1,66,110,40
1,66,0,117
1,69,110,3
1,69,0,237
1,62,110,3
1,62,0,117
1,62,110,3
1,62,0,200
1,59,110,40
1,59,0,117
1,62,110,3
1,62,0,117
1,62,110,3
1,62,0,200
1,64,110,1480
1,64,0,200
1,64,110,40
1,64,0,200
1,64,110,40
1,64,0,117
1,64,110,3
1,64,0,360
1,66,110,0
1,66,0,200
1,67,110,40
1,67,0,117
1,67,110,3
1,67,0,237
1,62,110,3
1,62,0,117
1,59,110,3
1,59,0,117
1,62,110,3
1,62,0,120
1,57,110,0
1,57,0,120
1,59,110,0
1,59,0,320
1,55,110,280
1,55,0,200
1,64,110,40
1,64,0,200
1,64,110,40
1,64,0,200
1,64,110,40
1,64,0,117
1,64,110,3
1,64,0,320
1,67,110,40
1,67,0,200
1,67,110,40
1,67,0,200
1,67,110,40
1,67,0,200
1,62,110,40
1,62,0,200
1,59,110,40
1,59,0,200
1,62,110,40
1,62,0,120
1,59,110,0
1,59,0,440
1,57,110,40
1,57,0,117
1,59,110,3
1,59,0,120
1,57,110,0
1,57,0,117
1,57,110,3
1,57,0,1140
1,59,110,1500
1,59,0,120
1,57,110,0
1,57,0,117
1,57,110,3
1,57,0,1140
1,59,110,1380
1,59,0,117
1,64,110,3
1,64,0,200
1,64,110,40
1,64,0,200
1,64,110,40
1,64,0,200
1,64,110,40
1,64,0,200
1,66,110,40
1,66,0,117
1,67,110,3
1,67,0,320
1,66,110,40
1,66,0,117
1,64,110,3
1,64,0,117
1,64,110,3
1,64,0,200
1,64,110,40
1,64,0,660
1,62,110,300
1,62,0,200
1,64,110,40
1,64,0,117
1,64,110,3
1,64,0,117
1,64,110,3
1,64,0,440
1,66,110,40
1,66,0,200
1,67,110,40
1,67,0,117
1,67,110,3
1,67,0,117
1,66,110,3
1,66,0,200
1,67,110,40
1,67,0,200
1,66,110,40
1,66,0,200
1,64,110,40
1,64,0,120
1,62,110,0
1,62,0,120
1,61,110,0
1,61,0,200
1,61,110,40
1,61,0,200
1,66,110,40
1,66,0,660
1,64,110,60
1,64,0,660
1,62,110,60
1,62,0,200
1,64,110,40
1,64,0,117
1,62,110,3
1,62,0,320
1,59,110,40
1,59,0,1080
1,57,110,0
1,57,0,120
1,55,110,0
1,55,0,240
1,57,110,0
1,57,0,1380
1,62,110,4380
1,62,0,200
1,59,110,40
1,59,0,117
1,62,110,3
1,62,0,237
1,59,110,3
1,59,0,117
1,62,110,3
1,62,0,200
1,59,110,40
1,59,0,117
1,62,110,3
1,62,0,237
1,59,110,3
1,59,0,117
1,62,110,3
1,62,0,200
1,59,110,40
1,59,0,117
1,62,110,3
1,62,0,237
1,59,110,3
1,59,0,117
1,62,110,3
1,62,0,200
1,59,110,40
1,59,0,117
1,62,110,3
1,62,0,320
1,59,110,280
1,59,0,117
1,57,110,3
1,57,0,117
1,59,110,3
1,59,0,117
1,54,110,3
1,54,0,117
1,57,110,3
1,57,0,200
1,57,110,1720
1,57,0,117
1,57,110,3
1,57,0,117
1,62,110,3
1,62,0,117
1,59,110,3
1,59,0,117
1,62,110,3
1,62,0,200
1,62,110,40
1,62,0,117
1,59,110,3
1,59,0,117
1,62,110,3
1,62,0,200
1,62,110,40
1,62,0,200
1,59,110,40
1,59,0,117
1,62,110,3
1,62,0,320
1,62,110,40
1,62,0,117
1,59,110,3
1,59,0,117
1,62,110,3
1,62,0,117
1,59,110,3
1,59,0,117
1,62,110,3
1,62,0,117
1,59,110,3
1,59,0,117
1,62,110,3
1,62,0,200
1,59,110,520
1,59,0,117
1,54,110,3
1,54,0,117
1,57,110,3
1,57,0,200
1,57,110,2080
1,57,0,117
1,66,110,3
1,66,0,200
1,66,110,40
1,66,0,117
1,66,110,3
1,66,0,320
1,64,110,40
1,64,0,200
1,64,110,40
1,64,0,117
1,64,110,3
1,64,0,237
1,62,110,3
1,62,0,117
1,62,110,3
1,62,0,200
1,59,110,40
1,59,0,117
1,57,110,3
1,57,0,237
1,66,110,3
1,66,0,117
1,62,110,603
1,62,0,117
1,64,110,3
1,64,0,117
1,64,110,3
1,64,0,200
1,64,110,40
1,64,0,320
1,62,110,160
1,62,0,117
1,66,110,3
1,66,0,117
1,64,110,3
1,64,0,117
1,67,110,3
1,67,0,200
1,67,110,40
1,67,0,117
1,55,110,3
1,55,0,117
1,55,110,3
1,55,0,200
1,55,110,40
1,55,0,660
1,55,110,180
1,55,0,117
1,64,110,3
1,64,0,320
1,64,110,40
1,64,0,320
1,64,110,40
1,64,0,117
1,64,110,3
1,64,0,117
1,64,110,3
1,64,0,117
1,67,110,3
1,67,0,320
1,67,110,40
1,67,0,117
1,62,110,3
1,62,0,117
1,62,110,3
1,62,0,200
1,62,110,40
1,62,0,120
1,57,110,0
1,57,0,120
1,59,110,0
1,59,0,420
1,55,110,180
1,55,0,117
1,64,110,3
1,64,0,200
1,64,110,40
1,64,0,200
1,64,110,40
1,64,0,117
1,64,110,3
1,64,0,320
1,67,110,40
1,67,0,200
1,67,110,40
1,67,0,200
1,67,110,40
1,67,0,200
1,62,110,40
1,62,0,200
1,59,110,40
1,59,0,200
1,62,110,40
1,62,0,120
1,59,110,0
1,59,0,440
1,57,110,40
1,57,0,117
1,59,110,3
1,59,0,117
1,57,110,3
1,57,0,117
1,57,110,3
1,57,0,1140
1,59,110,1500
1,59,0,120
1,57,110,0
1,57,0,117
1,57,110,3
1,57,0,1140
1,59,110,1380
1,59,0,117
1,64,110,3
1,64,0,200
1,64,110,40
1,64,0,200
1,64,110,40
1,64,0,200
1,64,110,40
1,64,0,200
1,66,110,40
1,66,0,117
1,67,110,3
1,67,0,320
1,66,110,40
1,66,0,117
1,64,110,3
1,64,0,117
1,64,110,3
1,64,0,200
1,64,110,40
1,64,0,660
1,62,110,300
1,62,0,200
1,64,110,40
1,64,0,117
1,64,110,3
1,64,0,117
1,64,110,3
1,64,0,440
1,66,110,40
1,66,0,200
1,67,110,40
1,67,0,117
1,67,110,3
1,67,0,117
1,66,110,3
1,66,0,200
1,67,110,40
1,67,0,200
1,66,110,40
1,66,0,200
1,64,110,40
1,64,0,120
1,62,110,0
1,62,0,120
1,61,110,0
1,61,0,200
1,61,110,40
1,61,0,200
1,66,110,40
1,66,0,660
1,64,110,60
1,64,0,660
1,62,110,60
1,62,0,200
1,64,110,40
1,64,0,117
1,62,110,3
1,62,0,320
1,59,110,40
1,59,0,1080
1,57,110,0
1,57,0,120
1,55,110,0
1,55,0,240
1,57,110,0
1,57,0,1380
1,59,110,660
1,59,0,117
1,66,110,3
1,66,0,200
1,64,110,40
1,64,0,117
1,62,110,3
1,62,0,320
1,62,110,40
1,62,0,1380
1,66,110,6780
1,66,0,200
2,55,110,0
2,55,0,117
2,57,110,3
2,57,0,200
2,66,110,40
2,66,0,237
2,62,110,3
2,62,0,117
2,55,110,3
2,55,0,320
2,62,110,40
2,62,0,237
2,55,110,3
2,55,0,440
2,62,110,40
2,62,0,237
2,55,110,3
2,55,0,320
2,62,110,40
2,62,0,117
2,67,110,3
2,67,0,237
2,62,110,3
2,62,0,117
2,55,110,3
2,55,0,117
2,57,110,3
2,57,0,200
2,66,110,40
2,66,0,237
2,62,110,3
2,62,0,117
2,55,110,3
2,55,0,320
2,62,110,40
2,62,0,237
2,55,110,3
2,55,0,440
2,62,110,40
2,62,0,237
2,55,110,3
2,55,0,320
2,62,110,40
2,62,0,117
2,67,110,3
2,67,0,237
2,62,110,3
2,62,0,117
2,55,110,3
2,55,0,117
2,57,110,3
2,57,0,200
2,66,110,40
2,66,0,237
2,62,110,3
2,62,0,117
2,55,110,3
2,55,0,320
2,62,110,40
2,62,0,237
2,55,110,3
2,55,0,440
2,62,110,40
2,62,0,237
2,55,110,3
2,55,0,320
2,62,110,40
2,62,0,117
2,67,110,3
2,67,0,237
2,62,110,3
2,62,0,117
2,55,110,3
2,55,0,117
2,57,110,3
2,57,0,200
2,66,110,40
2,66,0,237
2,62,110,3
2,62,0,117
2,55,110,3
2,55,0,320
2,62,110,40
2,62,0,237
2,55,110,3
2,55,0,440
2,62,110,40
2,62,0,237
2,55,110,3
2,55,0,320
2,62,110,40
2,62,0,117
2,67,110,3
2,67,0,237
2,62,110,3
2,62,0,117
2,55,110,3
2,55,0,117
2,57,110,3
2,57,0,200
2,66,110,40
2,66,0,237
2,62,110,3
2,62,0,117
2,55,110,3
2,55,0,320
2,62,110,40
2,62,0,237
2,55,110,3
2,55,0,440
2,62,110,40
2,62,0,237
2,55,110,3
2,55,0,117
2,55,110,3
2,55,0,200
2,62,110,40
2,62,0,117
2,67,110,3
2,67,0,237
2,62,110,3
2,62,0,117
2,55,110,3
2,55,0,117
2,57,110,3
2,57,0,200
2,66,110,40
2,66,0,237
2,62,110,3
2,62,0,117
2,55,110,3
2,55,0,320
2,62,110,40
2,62,0,237
2,55,110,3
2,55,0,440
2,62,110,40
2,62,0,237
2,55,110,3
2,55,0,117
2,55,110,3
2,55,0,200
2,62,110,40
2,62,0,117
2,67,110,3
2,67,0,237
2,62,110,3
2,62,0,117
2,55,110,3
2,55,0,117
2,57,110,3
2,57,0,200
2,66,110,40
2,66,0,237
2,62,110,3
2,62,0,117
2,55,110,3
2,55,0,320
2,62,110,40
2,62,0,237
2,55,110,3
2,55,0,440
2,62,110,40
2,62,0,237
2,55,110,3
2,55,0,320
2,62,110,40
2,62,0,117
2,67,110,3
2,67,0,237
2,62,110,3
2,62,0,117
2,55,110,3
2,55,0,117
2,57,110,3
2,57,0,200
2,66,110,40
2,66,0,237
2,62,110,3
2,62,0,117
2,57,110,3
2,57,0,320
2,62,127,40
2,62,0,237
2,55,127,3
2,55,0,440
2,62,127,40
2,62,0,237
2,55,110,3
2,55,0,320
2,62,110,40
2,62,0,117
2,67,110,3
2,67,0,237
2,62,110,3
2,62,0,117
2,55,110,3
2,55,0,117
2,57,110,3
2,57,0,200
2,66,110,40
2,66,0,237
2,62,110,3
2,62,0,117
2,57,110,3
2,57,0,320
2,62,110,40
2,62,0,237
2,55,110,3
2,55,0,440
