track,note,velocity,time
1,52,80,0
1,59,80,96
1,64,80,0
1,59,80,0
1,66,80,0
1,59,80,0
1,67,80,0
1,59,80,0
1,69,80,0
1,59,80,0
1,67,80,0
1,59,80,0
1,66,80,0
1,59,80,0
1,64,80,0
1,59,80,0
1,48,80,0
1,55,80,0
1,60,80,0
1,64,80,0
1,55,80,0
1,66,80,0
1,55,80,0
1,67,80,0
1,55,80,0
1,69,80,0
1,55,80,0
1,67,80,0
1,55,80,0
1,66,80,0
1,55,80,0
1,64,80,0
1,55,80,0
1,43,80,0
1,50,80,0
1,55,80,0
1,62,80,0
1,50,80,0
1,67,80,0
1,50,80,0
1,69,80,0
1,50,80,0
1,71,80,0
1,50,80,0
1,69,80,0
1,50,80,0
1,67,80,0
1,50,80,0
1,62,80,0
1,50,80,0
1,50,80,0
1,57,80,96
1,62,80,0
1,57,80,0
1,66,80,0
1,57,80,0
1,67,80,0
1,57,80,0
1,69,80,0
1,57,80,0
1,67,80,0
1,57,80,0
1,66,80,0
1,57,80,0
1,62,80,0
1,57,80,0
1,48,100,36864
1,55,100,0
1,60,100,0
1,48,100,0
1,55,100,0
1,60,100,0
1,50,100,0
1,57,100,0
1,62,100,0
1,50,100,0
1,57,100,0
1,62,100,0
1,43,100,0
1,50,100,0
1,55,100,0
1,43,100,0
1,50,100,0
1,55,100,0
1,48,100,0
1,55,100,0
1,60,100,0
1,48,100,0
1,55,100,0
1,60,100,0
1,48,100,0
1,55,100,0
1,60,100,0
1,48,100,0
1,55,100,0
1,60,100,0
1,50,100,0
1,57,100,0
1,62,100,0
1,50,100,0
1,57,100,0
1,62,100,0
1,43,100,0
1,50,100,0
1,55,100,0
1,43,100,0
1,50,100,0
1,55,100,0
1,48,100,0
1,55,100,0
1,60,100,0
1,48,100,0
1,55,100,0
1,60,100,0
1,52,80,0
1,59,80,96
1,64,80,0
1,59,80,0
1,66,80,0
1,59,80,0
1,67,80,0
1,59,80,0
1,69,80,0
1,59,80,0
1,67,80,0
1,59,80,0
1,66,80,0
1,59,80,0
1,64,80,0
1,59,80,0
1,48,80,0
1,55,80,0
1,60,80,0
1,64,80,0
1,55,80,0
1,66,80,0
1,55,80,0
1,67,80,0
1,55,80,0
1,69,80,0
1,55,80,0
1,67,80,0
1,55,80,0
1,66,80,0
1,55,80,0
1,64,80,0
1,55,80,0
1,43,80,0
1,50,80,0
1,55,80,0
1,62,80,0
1,50,80,0
1,67,80,0
1,50,80,0
1,69,80,0
1,50,80,0
1,71,80,0
1,50,80,0
1,69,80,0
1,50,80,0
1,67,80,0
1,50,80,0
1,62,80,0
1,50,80,0
1,50,80,0
1,57,80,96
1,62,80,0
1,57,80,0
1,66,80,0
1,57,80,0
1,67,80,0
1,57,80,0
1,69,80,0
1,57,80,0
1,67,80,0
1,57,80,0
1,66,80,0
1,57,80,0
1,62,80,0
1,57,80,0
1,48,100,36864
1,55,100,0
1,60,100,0
1,48,100,0
1,55,100,0
1,60,100,0
1,50,100,0
1,57,100,0
1,62,100,0
1,50,100,0
1,57,100,0
1,62,100,0
1,43,100,0
1,50,100,0
1,55,100,0
1,43,100,0
1,50,100,0
1,55,100,0
1,48,100,0
1,55,100,0
1,60,100,0
1,48,100,0
1,55,100,0
1,60,100,0
1,48,100,0
1,55,100,0
1,60,100,0
1,48,100,0
1,55,100,0
1,60,100,0
1,50,100,0
1,57,100,0
1,62,100,0
1,50,100,0
1,57,100,0
1,62,100,0
1,43,100,0
1,50,100,0
1,55,100,0
1,43,100,0
1,50,100,0
1,55,100,0
1,48,100,0
1,55,100,384
1,60,100,0
1,52,80,768
1,59,80,96
1,64,80,0
1,59,80,0
1,66,80,0
1,59,80,0
1,67,80,0
1,59,80,0
1,69,80,0
1,59,80,0
1,67,80,0
1,59,80,0
1,66,80,0
1,59,80,0
1,64,80,0
1,59,80,0
1,48,80,0
1,55,80,0
1,60,80,0
1,64,80,0
1,55,80,0
1,66,80,0
1,55,80,0
1,67,80,0
1,55,80,0
1,69,80,0
1,55,80,0
1,67,80,0
1,55,80,0
1,66,80,0
1,55,80,0
1,64,80,0
1,55,80,0
1,43,80,0
1,50,80,0
1,55,80,0
1,62,80,0
1,50,80,0
1,67,80,0
1,50,80,0
1,69,80,0
1,50,80,0
1,71,80,0
1,50,80,0
1,69,80,0
1,50,80,0
1,67,80,0
1,50,80,0
1,62,80,0
1,50,80,0
1,50,80,0
1,57,80,96
1,62,80,0
1,57,80,0
1,66,80,0
1,57,80,0
1,67,80,0
1,57,80,0
1,69,80,0
1,57,80,0
1,67,80,0
1,57,80,0
1,66,80,0
1,57,80,0
1,62,80,0
1,57,80,0
2,64,80,0
2,60,80,0
2,55,80,0
2,62,80,0
2,64,80,0
2,60,80,0
2,55,80,0
2,62,80,0
2,64,80,0
2,59,80,0
2,60,80,0
2,55,80,0
2,55,80,0
2,50,80,0
2,62,80,0
2,57,80,0
2,64,80,0
2,59,80,0
2,60,80,0
2,55,80,0
2,55,80,0
2,50,80,0
2,62,80,0
2,57,80,0
2,64,80,0
2,59,80,0
2,60,80,0
2,55,80,0
2,55,80,0
2,50,80,0
2,62,80,0
2,57,80,0
2,64,80,6144
2,57,64,0
2,60,80,0
2,55,80,0
2,55,80,0
2,50,80,0
2,62,80,0
2,57,80,0
2,60,80,0
2,55,80,0
2,62,80,0
2,57,80,0
2,55,80,0
2,50,80,0
2,60,80,0
2,55,80,0
2,60,80,0
2,55,80,0
2,62,80,0
2,57,80,0
2,55,80,0
2,50,80,0
2,60,80,0
2,55,80,0
2,64,80,0
2,60,80,0
2,74,70,1152
2,76,70,96
2,74,70,48
2,72,70,48
2,55,80,0
2,71,70,0
2,71,70,288
2,71,70,0
2,72,70,0
2,71,70,0
2,62,80,0
2,71,70,0
2,69,70,0
2,64,80,0
2,60,80,0
2,55,80,0
2,62,80,0
2,64,80,0
2,59,80,0
2,60,80,0
2,55,80,0
2,55,80,0
2,50,80,0
2,62,80,0
2,57,80,0
2,64,80,0
2,59,80,0
2,60,80,0
2,55,80,0
2,55,80,0
2,50,80,0
2,62,80,0
2,57,80,0
2,64,80,0
2,59,80,0
2,60,80,0
2,55,80,0
2,55,80,0
2,50,80,0
2,62,80,0
2,57,80,0
2,60,80,12288
2,55,80,0
2,62,80,0
2,57,80,0
2,55,80,0
2,50,80,0
2,60,80,0
2,55,80,0
2,60,80,0
2,55,80,0
2,62,80,0
2,57,80,0
2,55,80,0
2,50,80,0
2,60,80,0
2,55,80,0
2,84,50,0
2,64,80,768
2,60,80,0
2,74,70,1152
2,76,70,96
2,74,70,48
2,72,70,48
2,55,80,0
2,71,70,0
2,71,70,288
2,71,70,0
2,72,70,0
2,71,70,0
2,62,80,0
2,71,70,0
2,69,70,0
2,64,80,0
2,60,80,0
2,55,80,0
2,50,80,0
2,62,80,0
2,57,80,0
3,52,80,6144
3,55,80,96
3,59,80,48
3,55,80,48
3,64,80,48
3,59,80,48
3,67,80,48
3,59,80,48
3,71,80,48
3,59,80,48
3,67,80,48
3,59,80,48
3,71,80,48
3,59,80,48
3,76,80,48
3,59,80,48
3,48,80,48
3,55,80,48
3,60,80,48
3,55,80,48
3,64,80,48
3,55,80,48
3,67,80,48
3,55,80,48
3,72,80,48
3,55,80,48
3,67,80,48
3,55,80,48
3,72,80,48
3,55,80,48
3,76,80,48
3,55,80,48
3,43,80,48
3,50,80,48
3,55,80,48
3,50,80,48
3,59,80,48
3,55,80,48
3,62,80,48
3,55,80,48
3,67,80,48
3,55,80,48
3,62,80,48
3,55,80,48
3,67,80,48
3,55,80,48
3,71,80,48
3,55,80,48
3,50,80,48
3,54,80,48
3,57,80,48
3,54,80,48
3,62,80,48
3,54,80,48
3,66,80,48
3,54,80,48
3,69,80,48
3,54,80,48
3,66,80,48
3,54,80,48
3,69,80,48
3,54,80,48
3,74,80,48
3,54,80,48
3,52,80,0
3,55,80,96
3,59,80,48
3,55,80,48
3,64,80,48
3,59,80,48
3,67,80,48
3,59,80,48
3,71,80,48
3,59,80,48
3,67,80,48
3,59,80,48
3,71,80,48
3,59,80,48
3,76,80,48
3,59,80,48
3,48,80,48
3,55,80,48
3,60,80,48
3,55,80,48
3,64,80,48
3,55,80,48
3,67,80,48
3,55,80,48
3,72,80,48
3,55,80,48
3,67,80,48
3,55,80,48
3,72,80,48
3,55,80,48
3,76,80,48
3,55,80,48
3,43,80,48
3,50,80,48
3,55,80,48
3,50,80,48
3,59,80,48
3,55,80,48
3,62,80,48
3,55,80,48
3,67,80,48
3,55,80,48
3,62,80,48
3,55,80,48
3,67,80,48
3,55,80,48
3,71,80,48
3,55,80,48
3,50,80,48
3,54,80,48
3,57,80,48
3,54,80,48
3,62,80,48
3,54,80,48
3,66,80,48
3,54,80,48
3,69,80,48
3,54,80,48
3,66,80,48
3,54,80,48
3,69,80,48
3,54,80,48
3,74,80,48
3,54,80,48
3,52,80,0
3,55,80,96
3,59,80,48
3,55,80,48
3,64,80,48
3,59,80,48
3,67,80,48
3,59,80,48
3,71,80,48
3,59,80,48
3,67,80,48
3,59,80,48
3,71,80,48
3,59,80,48
3,76,80,48
3,59,80,48
3,48,80,48
3,55,80,48
3,60,80,48
3,55,80,48
3,64,80,48
3,55,80,48
3,67,80,48
3,55,80,48
3,72,80,48
3,55,80,48
3,67,80,48
3,55,80,48
3,72,80,48
3,55,80,48
3,76,80,48
3,55,80,48
3,43,80,48
3,50,80,48
3,55,80,48
3,50,80,48
3,59,80,48
3,55,80,48
3,62,80,48
3,55,80,48
3,67,80,48
3,55,80,48
3,62,80,48
3,55,80,48
3,67,80,48
3,55,80,48
3,71,80,48
3,55,80,48
3,50,80,48
3,54,80,48
3,57,80,48
3,54,80,48
3,62,80,48
3,54,80,48
3,66,80,48
3,54,80,48
3,69,80,48
3,54,80,48
3,66,80,48
3,54,80,48
3,69,80,48
3,54,80,48
3,74,80,48
3,54,80,48
3,52,80,0
3,55,80,96
3,59,80,48
3,55,80,48
3,64,80,48
3,59,80,48
3,67,80,48
3,59,80,48
3,71,80,48
3,59,80,48
3,67,80,48
3,59,80,48
3,71,80,48
3,59,80,48
3,76,80,48
3,59,80,48
3,48,80,48
3,55,80,48
3,60,80,48
3,55,80,48
3,64,80,48
3,55,80,48
3,67,80,48
3,55,80,48
3,72,80,48
3,55,80,48
3,67,80,48
3,55,80,48
3,72,80,48
3,55,80,48
3,76,80,48
3,55,80,48
3,43,80,48
3,50,80,48
3,55,80,48
3,50,80,48
3,59,80,48
3,55,80,48
3,62,80,48
3,55,80,48
3,67,80,48
3,55,80,48
3,62,80,48
3,55,80,48
3,67,80,48
3,55,80,48
3,71,80,48
3,55,80,48
3,50,80,48
3,54,80,48
3,57,80,48
3,54,80,48
3,62,80,48
3,54,80,48
3,66,80,48
3,54,80,48
3,69,80,48
3,54,80,48
3,66,80,48
3,54,80,48
3,69,80,48
3,54,80,48
3,74,80,48
3,54,80,48
3,52,80,30720
3,55,80,96
3,59,80,48
3,55,80,48
3,64,80,48
3,59,80,48
3,67,80,48
3,59,80,48
3,71,80,48
3,59,80,48
3,67,80,48
3,59,80,48
3,71,80,48
3,59,80,48
3,76,80,48
3,59,80,48
3,48,80,48
3,55,80,48
3,60,80,48
3,55,80,48
3,64,80,48
3,55,80,48
3,67,80,48
3,55,80,48
3,72,80,48
3,55,80,48
3,67,80,48
3,55,80,48
3,72,80,48
3,55,80,48
3,76,80,48
3,55,80,48
3,43,80,48
3,50,80,48
3,55,80,48
3,50,80,48
3,59,80,48
3,55,80,48
3,62,80,48
3,55,80,48
3,67,80,48
3,55,80,48
3,62,80,48
3,55,80,48
3,67,80,48
3,55,80,48
3,71,80,48
3,55,80,48
3,50,80,48
3,54,80,48
3,57,80,48
3,54,80,48
3,62,80,48
3,54,80,48
3,66,80,48
3,54,80,48
3,69,80,48
3,54,80,48
3,66,80,48
3,54,80,48
3,69,80,48
3,54,80,48
3,74,80,48
3,54,80,48
3,52,80,0
3,55,80,96
3,59,80,48
3,55,80,48
3,64,80,48
3,59,80,48
3,67,80,48
3,59,80,48
3,71,80,48
3,59,80,48
3,67,80,48
3,59,80,48
3,71,80,48
3,59,80,48
3,76,80,48
3,59,80,48
3,48,80,48
3,55,80,48
3,60,80,48
3,55,80,48
3,64,80,48
3,55,80,48
3,67,80,48
3,55,80,48
3,72,80,48
3,55,80,48
3,67,80,48
3,55,80,48
3,72,80,48
3,55,80,48
3,76,80,48
3,55,80,48
3,43,80,48
3,50,80,48
3,55,80,48
3,50,80,48
3,59,80,48
3,55,80,48
3,62,80,48
3,55,80,48
3,67,80,48
3,55,80,48
3,62,80,48
3,55,80,48
3,67,80,48
3,55,80,48
3,71,80,48
3,55,80,48
3,50,80,48
3,54,80,48
3,57,80,48
3,54,80,48
3,62,80,48
3,54,80,48
3,66,80,48
3,54,80,48
3,69,80,48
3,54,80,48
3,66,80,48
3,54,80,48
3,69,80,48
3,54,80,48
3,74,80,48
3,54,80,48
3,52,80,0
3,55,80,96
3,59,80,48
3,55,80,48
3,64,80,48
3,59,80,48
3,67,80,48
3,59,80,48
3,71,80,48
3,59,80,48
3,67,80,48
3,59,80,48
3,71,80,48
3,59,80,48
3,76,80,48
3,59,80,48
3,48,80,48
3,55,80,48
3,60,80,48
3,55,80,48
3,64,80,48
3,55,80,48
3,67,80,48
3,55,80,48
3,72,80,48
3,55,80,48
3,67,80,48
3,55,80,48
3,72,80,48
3,55,80,48
3,76,80,48
3,55,80,48
3,43,80,48
3,50,80,48
3,55,80,48
3,50,80,48
3,59,80,48
3,55,80,48
3,62,80,48
3,55,80,48
3,67,80,48
3,55,80,48
3,62,80,48
3,55,80,48
3,67,80,48
3,55,80,48
3,71,80,48
3,55,80,48
3,50,80,48
3,54,80,48
3,57,80,48
3,54,80,48
3,62,80,48
3,54,80,48
3,66,80,48
3,54,80,48
3,69,80,48
3,54,80,48
3,66,80,48
3,54,80,48
3,69,80,48
3,54,80,48
3,74,80,48
3,54,80,48
3,52,80,0
3,55,80,96
3,59,80,48
3,55,80,48
3,64,80,48
3,59,80,48
3,67,80,48
3,59,80,48
3,71,80,48
3,59,80,48
3,67,80,48
3,59,80,48
3,71,80,48
3,59,80,48
3,76,80,48
3,59,80,48
3,48,80,48
3,55,80,48
3,60,80,48
3,55,80,48
3,64,80,48
3,55,80,48
3,67,80,48
3,55,80,48
3,72,80,48
3,55,80,48
3,67,80,48
3,55,80,48
3,72,80,48
3,55,80,48
3,76,80,48
3,55,80,48
3,43,80,48
3,50,80,48
3,55,80,48
3,50,80,48
3,59,80,48
3,55,80,48
3,62,80,48
3,55,80,48
3,67,80,48
3,55,80,48
3,62,80,48
3,55,80,48
3,67,80,48
3,55,80,48
3,71,80,48
3,55,80,48
3,50,80,48
3,54,80,48
3,57,80,48
3,54,80,48
3,62,80,48
3,54,80,48
3,66,80,48
3,54,80,48
3,69,80,48
3,54,80,48
3,66,80,48
3,54,80,48
3,69,80,48
3,54,80,48
3,74,80,48
3,54,80,48
3,52,80,31488
3,55,80,96
3,59,80,48
3,55,80,48
3,64,80,48
3,59,80,48
3,67,80,48
3,59,80,48
3,71,80,48
3,59,80,48
3,67,80,48
3,59,80,48
3,71,80,48
3,59,80,48
3,76,80,48
3,59,80,48
3,48,80,48
3,55,80,48
3,60,80,48
3,55,80,48
3,64,80,48
3,55,80,48
3,67,80,48
3,55,80,48
3,72,80,48
3,55,80,48
3,67,80,48
3,55,80,48
3,72,80,48
3,55,80,48
3,76,80,48
3,55,80,48
3,43,80,48
3,50,80,48
3,55,80,48
3,50,80,48
3,59,80,48
3,55,80,48
3,62,80,48
3,55,80,48
3,67,80,48
3,55,80,48
3,62,80,48
3,55,80,48
3,67,80,48
3,55,80,48
3,71,80,48
3,55,80,48
3,50,80,48
3,54,80,48
3,57,80,48
3,54,80,48
3,62,80,48
3,54,80,48
3,66,80,48
3,54,80,48
3,69,80,0
3,74,80,432
4,69,80,30720
4,64,80,0
