track,note,velocity,time
1,73,110,5760
1,73,0,200
1,73,110,40
1,73,0,200
1,75,110,40
1,75,0,200
1,73,110,40
1,73,0,357
1,77,110,3
1,77,0,237
1,75,110,3
1,75,0,117
1,73,110,3
1,73,0,200
1,73,110,520
1,73,0,200
1,68,110,40
1,68,0,320
1,73,110,40
1,73,0,117
1,75,110,3
1,75,0,320
1,73,110,40
1,73,0,117
1,77,110,3
1,77,0,117
1,75,110,3
1,75,0,237
1,73,110,3
1,73,0,117
1,75,110,3
1,75,0,117
1,73,110,3
1,73,0,117
1,75,110,243
1,75,0,117
1,73,110,3
1,73,0,117
1,73,110,243
1,73,0,117
1,77,110,3
1,77,0,320
1,75,110,40
1,75,0,117
1,73,110,3
1,73,0,117
1,73,110,3
1,73,0,200
1,70,110,160
1,70,0,117
1,70,110,3
1,70,0,117
1,73,110,3
1,73,0,117
1,73,110,3
1,73,0,117
1,68,110,3
1,68,0,237
1,68,110,3
1,68,0,57
1,68,110,3
1,68,0,57
1,75,110,3
1,75,0,200
1,73,110,160
1,73,0,117
1,77,110,3
1,77,0,117
1,75,110,3
1,75,0,237
1,73,110,3
1,73,0,117
1,73,110,3
1,73,0,57
1,73,110,3
1,73,0,57
1,73,110,3
1,73,0,237
1,73,110,3
1,73,0,117
1,77,110,3
1,77,0,117
1,80,110,3
1,80,0,320
1,82,110,40
1,82,0,57
1,80,110,3
1,80,0,57
1,80,110,3
1,80,0,237
1,80,110,3
1,80,0,117
1,77,110,3
1,77,0,117
1,75,110,3
1,75,0,237
1,73,110,3
1,73,0,117
1,70,110,123
1,70,0,117
1,73,110,3
1,73,0,117
1,70,110,3
1,70,0,117
1,73,110,3
1,73,0,200
1,75,110,40
1,75,0,57
1,73,110,3
1,73,0,57
1,75,110,3
1,75,0,117
1,77,110,123
1,77,0,237
1,78,110,3
1,78,0,117
1,77,110,3
1,77,0,117
1,75,110,3
1,75,0,117
1,75,110,3
1,75,0,117
1,73,110,3
1,73,0,117
1,75,110,243
1,75,0,320
1,73,110,40
1,73,0,117
1,72,110,3
1,72,0,117
1,73,110,3
1,73,0,117
1,73,110,3
1,73,0,660
1,73,110,300
1,73,0,200
1,73,110,40
1,73,0,200
1,75,110,40
1,75,0,200
1,73,110,40
1,73,0,357
1,77,110,3
1,77,0,237
1,75,110,3
1,75,0,117
1,73,110,3
1,73,0,200
1,73,110,520
1,73,0,200
1,68,110,40
1,68,0,320
1,73,110,40
1,73,0,117
1,75,110,3
1,75,0,320
1,73,110,40
1,73,0,117
1,77,110,3
1,77,0,117
1,75,110,3
1,75,0,237
1,73,110,3
1,73,0,117
1,75,110,3
1,75,0,117
1,73,110,3
1,73,0,117
1,75,110,243
1,75,0,117
1,73,110,3
1,73,0,117
1,73,110,243
1,73,0,117
1,77,110,3
1,77,0,320
1,75,110,40
1,75,0,117
1,73,110,3
1,73,0,117
1,73,110,3
1,73,0,200
1,70,110,160
1,70,0,117
1,70,110,3
1,70,0,117
1,73,110,3
1,73,0,117
1,73,110,3
1,73,0,117
1,68,110,3
1,68,0,237
1,68,110,3
1,68,0,57
1,68,110,3
1,68,0,57
1,75,110,3
1,75,0,200
1,73,110,160
1,73,0,117
1,77,110,3
1,77,0,117
1,75,110,3
1,75,0,237
1,73,110,3
1,73,0,117
1,73,110,3
1,73,0,57
1,73,110,3
1,73,0,57
1,73,110,3
1,73,0,237
1,73,110,3
1,73,0,117
1,77,110,3
1,77,0,117
1,80,110,3
1,80,0,320
1,82,110,40
1,82,0,57
1,80,110,3
1,80,0,57
1,80,110,3
1,80,0,237
1,80,110,3
1,80,0,117
1,77,110,3
1,77,0,117
1,75,110,3
1,75,0,237
1,73,110,3
1,73,0,117
1,70,110,123
1,70,0,117
1,73,110,3
1,73,0,117
1,70,110,3
1,70,0,117
1,73,110,3
1,73,0,200
1,75,110,40
1,75,0,57
1,73,110,3
1,73,0,57
1,75,110,3
1,75,0,117
1,77,110,123
1,77,0,237
1,78,110,3
1,78,0,117
1,77,110,3
1,77,0,117
1,75,110,3
1,75,0,117
1,75,110,3
1,75,0,117
1,73,110,3
1,73,0,117
1,75,110,243
1,75,0,320
1,73,110,40
1,73,0,117
1,72,110,3
1,72,0,117
1,73,110,3
1,73,0,117
1,73,110,3
1,73,0,900
1,68,110,900
1,68,0,117
1,80,110,3
1,80,0,360
1,78,110,0
1,78,0,117
1,78,110,3
1,78,0,360
1,77,110,0
1,77,0,117
1,77,110,3
1,77,0,200
1,77,110,40
1,77,0,120
1,72,110,0
1,72,0,117
1,72,110,3
1,72,0,200
1,73,110,40
1,73,0,200
1,78,110,160
1,78,0,117
1,78,110,3
1,78,0,117
1,78,110,3
1,78,0,117
1,77,110,3
1,77,0,117
1,77,110,3
1,77,0,200
1,77,110,40
1,77,0,117
1,75,110,3
1,75,0,200
1,75,110,40
1,75,0,120
1,72,110,0
1,72,0,117
1,72,110,3
1,72,0,200
1,73,110,40
1,73,0,117
1,73,110,3
1,73,0,117
1,80,110,123
1,80,0,120
1,78,110,0
1,78,0,200
1,78,110,40
1,78,0,320
1,77,110,40
1,77,0,117
1,77,110,3
1,77,0,200
1,77,110,40
1,77,0,200
1,72,110,40
1,72,0,200
1,73,110,40
1,73,0,200
1,78,110,160
1,78,0,120
1,77,110,0
1,77,0,200
1,77,110,40
1,77,0,320
1,77,110,40
1,77,0,117
1,77,110,3
1,77,0,117
1,77,110,3
1,77,0,117
1,77,110,3
1,77,0,420
1,72,110,180
1,72,0,117
1,72,110,3
1,72,0,597
1,73,110,3
1,73,0,57
1,73,110,3
1,73,0,57
1,73,110,3
1,73,0,1400
1,70,110,160
1,70,0,117
1,73,110,3
1,73,0,200
1,75,110,40
1,75,0,60
1,73,110,0
1,73,0,60
1,75,110,0
1,75,0,117
1,77,110,123
1,77,0,200
1,78,110,40
1,78,0,117
1,77,110,3
1,77,0,117
1,75,110,3
1,75,0,117
1,75,110,3
1,75,0,117
1,73,110,3
1,73,0,117
1,75,110,243
1,75,0,360
1,73,110,0
1,73,0,120
1,72,110,0
1,72,0,120
1,73,110,0
1,73,0,117
1,73,110,3
1,73,0,900
1,73,110,7980
1,73,0,200
1,73,110,40
1,73,0,200
1,75,110,40
1,75,0,200
1,73,110,40
1,73,0,357
1,77,110,3
1,77,0,237
1,75,110,3
1,75,0,117
1,73,110,3
1,73,0,200
1,73,110,520
1,73,0,200
1,68,110,40
1,68,0,320
1,73,110,40
1,73,0,117
1,75,110,3
1,75,0,320
1,73,110,40
1,73,0,117
1,77,110,3
1,77,0,117
1,75,110,3
1,75,0,237
1,73,110,3
1,73,0,117
1,75,110,3
1,75,0,117
1,73,110,3
1,73,0,117
1,75,110,243
1,75,0,117
1,73,110,3
1,73,0,117
1,73,110,243
1,73,0,117
1,77,110,3
1,77,0,320
1,75,110,40
1,75,0,117
1,73,110,3
1,73,0,320
1,70,110,160
1,70,0,117
1,70,110,3
1,70,0,117
1,73,110,3
1,73,0,117
1,73,110,3
1,73,0,117
1,68,110,3
1,68,0,237
1,68,110,3
1,68,0,57
1,68,110,3
1,68,0,57
1,75,110,3
1,75,0,200
1,73,110,160
1,73,0,117
1,77,110,3
1,77,0,117
1,75,110,3
1,75,0,237
1,73,110,3
1,73,0,117
1,73,110,3
1,73,0,57
1,73,110,3
1,73,0,57
1,73,110,3
1,73,0,237
1,73,110,3
1,73,0,117
1,77,110,3
1,77,0,117
1,80,110,3
1,80,0,320
1,82,110,40
1,82,0,57
1,80,110,3
1,80,0,57
1,80,110,3
1,80,0,237
1,80,110,3
1,80,0,117
1,77,110,3
1,77,0,117
1,75,110,3
1,75,0,237
1,73,110,3
1,73,0,117
1,68,110,3
1,68,0,117
1,70,110,3
1,70,0,117
1,73,110,3
1,73,0,117
1,73,110,3
1,73,0,117
1,70,110,3
1,70,0,117
1,73,110,3
1,73,0,117
1,73,110,3
1,73,0,117
1,73,110,123
1,73,0,117
1,75,110,3
1,75,0,117
1,75,110,3
1,75,0,57
1,73,110,3
1,73,0,177
1,75,110,3
1,75,0,117
1,77,110,3
1,77,0,177
1,73,110,3
1,73,0,117
1,70,110,123
1,70,0,117
1,73,110,3
1,73,0,117
1,70,110,3
1,70,0,117
1,73,110,3
1,73,0,200
1,75,110,40
1,75,0,57
1,73,110,3
1,73,0,57
1,75,110,3
1,75,0,117
1,77,110,123
1,77,0,237
1,78,110,3
1,78,0,117
1,77,110,3
1,77,0,117
1,75,110,3
1,75,0,117
1,75,110,3
1,75,0,117
1,73,110,3
1,73,0,117
1,75,110,243
1,75,0,320
1,73,110,40
1,73,0,117
1,72,110,3
1,72,0,117
1,73,110,3
1,73,0,117
1,73,110,3
1,73,0,660
1,68,110,180
1,68,0,117
1,70,110,3
1,70,0,117
1,73,110,3
1,73,0,117
1,73,110,3
1,73,0,117
1,70,110,3
1,70,0,117
1,73,110,3
1,73,0,117
1,73,110,3
1,73,0,117
1,73,110,123
1,73,0,117
1,76,110,3
1,76,0,117
1,75,110,3
1,75,0,57
1,73,110,3
1,73,0,177
1,75,110,3
1,75,0,117
1,77,110,3
1,77,0,177
1,73,110,3
1,73,0,117
1,73,110,3
1,73,0,57
1,73,110,3
1,73,0,117
1,77,110,123
1,77,0,200
1,75,110,40
1,75,0,117
1,75,110,3
1,75,0,117
1,73,110,3
1,73,0,117
1,75,110,3
1,75,0,117
1,73,110,3
1,73,0,117
1,82,110,3
1,82,0,120
1,80,110,0
1,80,0,117
1,80,110,3
1,80,0,357
1,80,110,3
1,80,0,960
1,78,110,0
1,78,0,120
1,77,110,0
1,77,0,120
1,75,110,0
1,75,0,117
1,75,110,3
1,75,0,120
1,73,110,0
1,73,0,1160
1,77,110,160
1,77,0,117
1,80,110,3
1,80,0,117
1,80,110,3
1,80,0,117
1,82,110,3
1,82,0,240
1,80,110,0
1,80,0,117
1,80,110,3
1,80,0,357
1,82,110,3
1,82,0,120
1,80,110,0
1,80,0,840
1,77,110,0
1,77,0,240
1,80,110,0
1,80,0,117
1,80,110,3
1,80,0,1160
1,77,110,280
1,77,0,117
1,80,110,3
1,80,0,117
1,80,110,3
1,80,0,117
1,82,110,3
1,82,0,240
1,80,110,0
1,80,0,117
1,80,110,3
1,80,0,357
1,82,110,3
1,82,0,120
1,80,110,0
1,80,0,840
1,77,110,0
1,77,0,240
1,80,110,0
1,80,0,117
1,80,110,3
1,80,0,900
1,77,110,540
1,77,0,117
1,80,110,3
1,80,0,117
1,80,110,3
1,80,0,117
1,82,110,3
1,82,0,240
1,80,110,0
1,80,0,117
1,80,110,3
1,80,0,360
1,78,110,0
1,78,0,120
1,77,110,0
1,77,0,200
1,77,110,40
1,77,0,120
1,75,110,0
1,75,0,480
1,73,110,0
1,73,0,120
1,72,110,0
1,72,0,120
1,73,110,0
1,73,0,117
1,73,110,3
1,73,0,420
2,73,60,0
2,73,0,200
2,68,60,40
2,68,0,117
2,73,60,3
2,73,0,117
2,73,60,3
2,73,0,200
2,68,60,40
2,68,0,117
2,73,60,3
2,73,0,117
2,73,60,3
2,73,0,200
2,70,60,40
2,70,0,117
2,73,60,3
2,73,0,117
2,73,60,3
2,73,0,200
2,68,60,40
2,68,0,117
2,73,60,3
2,73,0,117
2,61,60,3
2,70,60,0
2,61,0,117
2,70,0,0
2,73,60,3
2,73,0,117
2,70,60,3
2,70,0,200
2,61,60,40
2,69,60,0
2,61,0,117
2,69,0,0
2,73,60,3
2,73,0,117
2,69,60,3
2,69,0,200
2,61,60,40
2,68,60,0
2,61,0,117
2,68,0,0
2,73,60,3
2,73,0,117
2,68,60,3
2,68,0,200
2,61,60,40
2,67,60,0
2,61,0,117
2,67,0,0
2,73,60,3
2,73,0,117
2,67,60,3
2,67,0,200
2,61,60,40
2,66,60,0
2,61,0,117
2,66,0,0
2,73,60,3
2,73,0,117
2,66,60,3
2,66,0,200
2,61,60,40
2,66,60,0
2,61,0,117
2,66,0,0
2,73,60,3
2,73,0,117
2,66,60,3
2,66,0,200
2,61,60,40
2,65,60,0
2,61,0,117
2,65,0,0
2,73,60,3
2,73,0,117
2,68,60,3
2,68,0,117
2,65,60,3
2,65,0,117
2,68,60,3
2,73,60,0
2,77,60,0
2,68,0,420
2,73,0,0
2,77,0,0
2,68,60,60
2,73,60,0
2,68,0,200
2,73,0,0
2,73,60,40
2,73,0,200
2,68,60,40
2,75,60,0
2,68,0,200
2,75,0,0
2,73,60,40
2,73,0,357
2,68,60,3
2,77,60,0
2,68,0,237
2,77,0,0
2,75,60,3
2,75,0,117
2,68,60,3
2,73,60,0
2,68,0,420
2,73,0,0
2,66,60,300
2,73,60,0
2,66,0,200
2,73,0,0
2,68,60,40
2,68,0,320
2,73,60,40
2,73,0,117
2,72,60,3
2,75,60,0
2,72,0,320
2,75,0,0
2,73,60,40
2,73,0,117
2,73,60,3
2,77,60,0
2,73,0,117
2,77,0,0
2,75,60,3
2,75,0,237
2,73,60,3
2,73,0,117
2,68,60,3
2,75,60,0
2,68,0,117
2,75,0,0
2,73,60,3
2,73,0,320
2,68,60,40
2,75,60,0
2,68,0,117
2,75,0,0
2,73,60,3
2,73,0,320
2,68,60,40
2,73,60,0
2,68,0,117
2,73,0,0
2,77,60,3
2,77,0,320
2,68,60,40
2,75,60,0
2,68,0,117
2,75,0,0
2,73,60,3
2,73,0,117
2,73,60,3
2,73,0,200
2,70,60,160
2,70,0,117
2,66,60,3
2,70,60,0
2,66,0,117
2,70,0,0
2,73,60,3
2,73,0,117
2,66,60,3
2,73,60,0
2,66,0,117
2,73,0,0
2,68,60,3
2,68,0,237
2,68,60,3
2,68,0,57
2,68,60,3
2,68,0,57
2,72,60,3
2,75,60,0
2,72,0,320
2,75,0,0
2,73,60,40
2,73,0,117
2,73,60,3
2,77,60,0
2,73,0,117
2,77,0,0
2,75,60,3
2,75,0,237
2,73,60,3
2,73,0,117
2,68,60,3
2,70,60,0
2,73,60,0
2,68,0,57
2,70,0,0
2,73,0,0
2,73,60,3
2,73,0,57
2,73,60,3
2,73,0,237
2,73,60,3
2,73,0,117
2,73,60,3
2,77,60,0
2,73,0,117
2,77,0,0
2,80,60,3
2,80,0,320
2,73,60,40
2,82,60,0
2,73,0,57
2,82,0,0
2,80,60,3
2,80,0,57
2,80,60,3
2,80,0,237
2,80,60,3
2,80,0,117
2,68,60,3
2,77,60,0
2,68,0,117
2,77,0,0
2,75,60,3
2,75,0,237
2,73,60,3
2,73,0,117
2,70,60,123
2,70,0,117
2,73,60,3
2,73,0,117
2,70,60,3
2,70,0,117
2,68,60,3
2,73,60,0
2,68,0,200
2,73,0,0
2,75,60,40
2,75,0,57
2,73,60,3
2,73,0,57
2,75,60,3
2,75,0,117
2,68,60,3
2,73,60,0
2,68,0,117
2,73,0,0
2,77,60,3
2,77,0,237
2,67,60,3
2,78,60,0
2,67,0,117
2,78,0,0
2,77,60,3
2,77,0,117
2,75,60,3
2,75,0,117
2,75,60,3
2,75,0,117
2,73,60,3
2,73,0,117
2,61,60,3
2,66,60,0
2,61,0,200
2,66,0,0
2,75,60,40
2,75,0,320
2,73,60,40
2,73,0,117
2,72,60,3
2,72,0,117
2,73,60,3
2,73,0,117
2,65,60,3
2,68,60,0
2,73,60,0
2,65,0,900
2,68,0,0
2,73,0,0
2,68,60,60
2,73,60,0
2,68,0,200
2,73,0,0
2,73,60,40
2,73,0,200
2,68,60,40
2,75,60,0
2,68,0,200
2,75,0,0
2,73,60,40
2,73,0,357
2,68,60,3
2,77,60,0
2,68,0,237
2,77,0,0
2,75,60,3
2,75,0,117
2,68,60,3
2,73,60,0
2,68,0,420
2,73,0,0
2,66,60,300
2,73,60,0
2,66,0,200
2,73,0,0
2,68,60,40
2,68,0,320
2,73,60,40
2,73,0,117
2,72,60,3
2,75,60,0
2,72,0,320
2,75,0,0
2,73,60,40
2,73,0,117
2,73,60,3
2,77,60,0
2,73,0,117
2,77,0,0
2,75,60,3
2,75,0,237
2,73,60,3
2,73,0,117
