track,note,velocity,time
1,54,114,4332
1,54,0,104
1,54,114,1804
1,54,0,144
1,54,114,1784
1,54,0,124
1,54,114,1780
1,54,0,140
1,54,114,1796
1,54,0,120
1,54,114,1788
1,54,0,112
1,54,114,1808
1,54,0,96
1,54,114,1840
1,54,0,104
1,54,114,1816
1,54,0,104
1,54,114,1804
1,54,0,144
1,54,114,1784
1,54,0,124
1,54,114,1780
1,54,0,140
1,54,127,1784
1,54,0,268
1,54,127,716
1,54,0,184
1,54,127,760
1,54,0,108
1,54,127,860
1,54,0,164
1,54,127,792
1,54,0,124
1,54,127,840
1,54,0,100
1,54,127,852
1,54,0,96
1,54,127,856
1,54,0,236
1,54,127,724
1,54,0,112
1,54,127,856
1,54,0,160
1,54,127,808
1,54,0,108
1,54,127,836
1,54,0,256
1,54,127,712
1,54,0,308
1,54,127,640
1,54,0,396
1,54,127,580
1,54,0,344
1,54,127,600
1,54,0,460
1,54,127,500
1,54,0,444
1,54,127,520
1,54,0,384
1,54,120,4428
1,54,0,120
1,54,120,1788
1,54,0,112
1,54,120,1808
1,54,0,96
1,54,120,1840
1,54,0,104
1,54,120,1816
1,54,0,104
1,54,120,1804
1,54,0,144
1,54,120,1784
1,54,0,124
1,54,120,1780
1,54,0,140
1,54,127,1784
1,54,0,268
1,54,127,716
1,54,0,184
1,54,127,760
1,54,0,108
1,54,127,860
1,54,0,164
1,54,127,792
1,54,0,124
1,54,127,840
1,54,0,100
1,54,127,852
1,54,0,96
1,54,127,856
1,54,0,236
1,54,127,724
1,54,0,112
1,54,127,856
1,54,0,160
1,54,127,808
1,54,0,108
1,54,127,836
1,54,0,256
1,54,127,712
1,54,0,308
1,54,127,640
1,54,0,396
1,54,127,580
1,54,0,344
1,54,127,600
1,54,0,460
1,54,127,500
1,54,0,444
1,54,127,520
1,54,0,384
1,54,127,4416
1,54,0,268
1,54,127,716
1,54,0,184
1,54,127,760
1,54,0,108
1,54,127,860
1,54,0,164
1,54,127,792
1,54,0,124
1,54,127,840
1,54,0,100
1,54,127,852
1,54,0,96
1,54,127,856
1,54,0,236
1,54,127,724
1,54,0,112
1,54,127,856
1,54,0,160
1,54,127,808
1,54,0,108
1,54,127,836
1,54,0,256
1,54,127,712
1,54,0,308
1,54,127,640
1,54,0,396
1,54,127,580
1,54,0,344
1,54,127,600
1,54,0,460
1,54,127,500
1,54,0,444
1,54,127,520
1,54,0,384
1,54,120,4428
1,54,0,120
1,54,120,1788
1,54,0,112
1,54,120,1808
1,54,0,96
1,54,120,1840
1,54,0,104
1,54,120,1816
1,54,0,104
1,54,120,1804
1,54,0,144
1,54,120,1784
1,54,0,124
1,54,120,1780
1,54,0,140
1,54,127,1784
1,54,0,268
1,54,127,716
1,54,0,184
1,54,127,760
1,54,0,108
1,54,127,860
1,54,0,164
1,54,127,792
1,54,0,124
1,54,127,840
1,54,0,100
1,54,127,852
1,54,0,96
1,54,127,856
1,54,0,236
1,54,127,724
1,54,0,268
1,54,127,716
1,54,0,184
1,54,127,760
1,54,0,108
1,54,127,860
1,54,0,164
1,54,127,792
1,54,0,124
1,54,127,840
1,54,0,100
1,54,127,852
1,54,0,96
1,54,127,856
1,54,0,236
1,54,127,724
1,54,0,268
1,54,127,716
1,54,0,184
1,54,127,752
1,54,0,268
1,54,127,716
1,54,0,184
1,54,127,760
1,54,0,308
1,54,127,640
1,54,0,396
1,54,127,580
1,54,0,344
1,54,127,600
1,54,0,460
1,54,127,500
1,54,0,444
1,54,127,520
1,54,0,384
1,54,114,6352
1,54,0,104
1,54,114,1804
1,54,0,144
1,54,114,1784
1,54,0,124
1,54,114,1780
1,54,0,140
1,54,114,1796
1,54,0,120
1,54,114,1788
1,54,0,112
1,54,114,1808
1,54,0,268
1,54,114,716
1,54,0,184
1,54,114,760
1,54,0,108
1,54,114,860
1,54,0,164
1,54,114,792
1,54,0,124
1,54,114,840
1,54,0,100
1,54,114,4700
1,54,0,104
1,54,114,1804
1,54,0,144
1,54,114,320
1,54,0,100
1,54,114,164
1,54,0,140
1,54,114,48
1,54,0,104
1,54,114,244
1,54,0,44
1,54,114,116
1,54,0,68
1,54,114,304
1,54,0,100
1,54,114,188
1,54,0,104
1,54,114,40
1,54,0,144
1,54,114,252
1,54,0,36
1,54,114,100
1,54,0,140
2,38,88,3612
2,40,37,132
2,38,0,40
2,43,105,72
2,40,0,8
2,43,0,676
2,31,95,16
2,38,83,972
2,31,0,24
2,38,0,96
2,40,105,4
2,43,101,124
2,40,0,12
2,31,88,688
2,43,0,4
2,38,92,972
2,31,0,20
2,38,0,88
2,40,92,8
2,40,0,100
2,43,92,24
2,31,96,708
2,43,0,4
2,38,99,960
2,31,0,20
2,38,0,88
2,40,95,12
2,40,0,104
2,43,105,12
2,31,95,716
2,43,0,4
2,38,95,964
2,31,0,24
2,38,0,76
2,40,90,4
2,40,0,96
2,43,96,20
2,31,95,740
2,43,0,36
2,31,0,920
2,38,95,4
2,40,99,116
2,38,0,4
2,40,0,76
2,43,95,32
2,31,92,732
2,43,0,28
2,38,95,940
2,31,0,32
2,38,0,84
2,40,96,0
2,40,0,80
2,43,95,24
2,31,88,712
2,43,0,8
2,38,81,972
2,31,0,40
2,40,83,64
2,38,0,4
2,40,0,100
2,43,95,16
2,31,95,740
2,43,0,32
2,38,88,936
2,31,0,36
2,38,0,76
2,40,96,4
2,40,0,76
2,43,92,24
2,31,95,732
2,43,0,28
2,38,92,932
2,31,0,16
2,40,96,92
2,38,0,4
2,40,0,88
2,43,101,28
2,31,92,732
2,43,0,28
2,38,95,944
2,31,0,44
2,40,79,60
2,38,0,8
2,40,0,112
2,43,99,12
2,31,95,704
2,43,0,8
2,38,90,960
2,31,0,24
2,38,0,84
2,40,92,0
2,40,0,104
2,43,90,20
2,31,90,720
2,43,0,12
2,31,0,1100
2,31,127,68
2,31,0,608
2,36,126,148
2,36,0,824
2,43,126,332
2,43,0,268
2,40,117,24
2,40,0,72
2,38,120,152
2,38,0,64
2,40,126,200
2,31,127,1172
2,40,0,12
2,31,0,708
2,36,127,36
2,36,0,828
2,36,98,216
2,36,0,88
2,43,127,20
2,40,111,252
2,43,0,8
2,40,0,68
2,38,120,168
2,38,0,60
2,40,127,196
2,31,127,1172
2,40,0,4
2,31,0,564
2,36,127,148
2,36,0,1016
2,36,98,76
2,36,0,76
2,43,127,32
2,43,0,260
2,40,111,0
2,40,0,72
2,38,120,168
2,38,0,60
2,40,126,196
2,40,0,428
2,40,108,72
2,40,0,68
2,40,126,128
2,40,0,208
2,40,126,32
2,38,127,244
2,40,0,4
2,31,106,844
2,38,0,20
2,31,0,56
2,38,117,24
2,38,0,88
2,38,123,148
2,38,0,688
2,38,127,80
2,36,113,220
2,38,0,16
2,36,0,48
2,36,127,404
2,31,113,960
2,36,0,12
2,31,0,44
2,38,127,196
2,31,98,832
2,38,0,12
2,31,0,84
2,38,123,16
2,38,0,96
2,38,126,144
2,38,0,600
2,36,127,96
2,31,123,980
2,36,0,12
2,36,127,960
2,31,0,4
2,38,100,1672
2,36,0,32
2,38,0,68
2,40,95,4
2,40,0,96
2,43,102,20
2,31,100,740
2,43,0,36
2,31,0,920
2,38,100,4
2,40,105,116
2,38,0,4
2,40,0,76
2,43,100,32
2,31,97,732
2,43,0,28
2,38,100,940
2,31,0,32
2,38,0,84
2,40,102,0
2,40,0,80
2,43,100,24
2,31,93,712
2,43,0,8
2,38,86,972
2,31,0,40
2,40,88,64
2,38,0,4
2,40,0,100
2,43,100,16
2,31,100,740
2,43,0,32
2,38,93,936
2,31,0,36
2,38,0,76
2,40,102,4
2,40,0,76
2,43,97,24
2,31,100,732
2,43,0,28
2,38,97,932
2,31,0,16
2,40,102,92
2,38,0,4
2,40,0,88
2,43,107,28
2,31,97,732
2,43,0,28
2,38,100,944
2,31,0,44
2,40,84,60
2,38,0,8
2,40,0,112
2,43,105,12
2,31,100,704
2,43,0,8
2,38,95,960
2,31,0,24
2,38,0,84
2,40,97,0
2,40,0,104
2,43,95,20
2,31,95,720
2,43,0,12
2,31,0,1100
2,31,127,68
2,31,0,608
2,36,126,148
2,36,0,824
2,43,126,332
2,43,0,268
2,40,117,24
2,40,0,72
2,38,120,152
2,38,0,64
2,40,126,200
2,31,127,1172
2,40,0,12
2,31,0,708
2,36,127,36
2,36,0,828
2,36,98,216
2,36,0,88
2,43,127,20
2,40,111,252
2,43,0,8
2,40,0,68
2,38,120,168
2,38,0,60
2,40,127,196
2,31,127,1172
2,40,0,4
2,31,0,564
2,36,127,148
2,36,0,1016
2,36,98,76
2,36,0,76
2,43,127,32
2,43,0,260
2,40,111,0
2,40,0,72
2,38,120,168
2,38,0,60
2,40,126,196
2,40,0,428
2,40,108,72
2,40,0,68
2,40,126,128
2,40,0,208
2,40,126,32
2,38,127,244
2,40,0,4
2,31,106,844
2,38,0,20
2,31,0,56
2,38,117,24
2,38,0,88
2,38,123,148
2,38,0,688
2,38,127,80
2,36,113,220
2,38,0,16
2,36,0,48
2,36,127,404
2,31,113,960
2,36,0,12
2,31,0,44
2,38,127,196
2,31,98,832
2,38,0,12
2,31,0,84
2,38,123,16
2,38,0,96
2,38,126,144
2,38,0,600
2,36,127,96
2,31,123,980
2,36,0,12
2,36,127,960
2,31,0,4
2,36,0,1704
2,31,127,180
2,31,0,608
2,36,126,148
2,36,0,824
2,43,126,332
2,43,0,268
2,40,117,24
2,40,0,72
2,38,120,152
2,38,0,64
2,40,126,200
2,31,127,1172
2,40,0,12
2,31,0,708
2,36,127,36
2,36,0,828
2,36,98,216
2,36,0,88
2,40,127,32
2,31,120,480
2,40,0,20
2,31,0,40
2,33,127,180
2,33,0,1176
2,31,127,16
2,31,0,568
2,36,127,148
2,36,0,1016
2,36,98,76
2,36,0,76
2,43,127,32
2,43,0,260
2,40,111,0
2,40,0,72
2,38,120,168
2,38,0,60
2,40,126,196
2,40,0,428
2,40,108,72
2,40,0,68
2,40,126,128
2,40,0,208
2,40,126,32
2,38,127,244
2,40,0,4
2,31,106,844
2,38,0,20
2,31,0,56
2,38,117,24
2,38,0,88
2,38,123,148
2,38,0,688
2,38,127,80
2,36,113,220
2,38,0,16
2,36,0,48
2,36,127,404
2,31,113,960
2,36,0,12
2,31,0,44
2,38,127,196
2,31,98,832
2,38,0,12
2,31,0,84
2,38,123,16
2,38,0,96
2,38,126,144
2,38,0,600
2,36,127,96
2,31,123,980
2,36,0,12
2,36,127,960
2,31,0,4
2,38,100,1672
2,36,0,32
2,38,0,68
2,40,95,4
2,40,0,96
2,43,102,20
2,31,100,740
2,43,0,36
2,31,0,920
2,38,100,4
2,40,105,116
2,38,0,4
2,40,0,76
2,43,100,32
2,31,97,732
2,43,0,28
2,38,100,940
2,31,0,32
2,38,0,84
2,40,102,0
2,40,0,80
2,43,100,24
2,31,93,712
2,43,0,8
2,38,86,972
2,31,0,40
2,40,88,64
2,38,0,4
2,40,0,100
2,43,100,16
2,31,100,740
2,43,0,32
2,38,93,936
2,31,0,36
2,38,0,76
2,40,102,4
2,40,0,76
2,43,97,24
2,31,100,732
2,43,0,28
2,38,97,932
2,31,0,16
2,40,102,92
2,38,0,4
2,40,0,88
2,43,107,28
2,31,97,732
2,43,0,28
2,38,100,944
2,31,0,44
2,40,84,60
2,38,0,8
2,40,0,112
2,43,105,12
2,31,100,704
2,43,0,8
2,38,95,960
2,31,0,24
2,38,0,84
2,40,97,0
2,40,0,104
2,43,95,20
2,31,95,720
2,43,0,12
2,31,0,1100
2,31,127,68
2,31,0,608
2,36,126,148
2,36,0,824
2,43,126,332
2,43,0,268
2,40,117,24
2,40,0,72
2,38,120,152
2,38,0,64
2,40,126,200
2,31,127,1172
2,40,0,12
2,31,0,708
2,36,127,36
2,36,0,828
2,36,98,216
2,36,0,88
2,43,127,20
2,40,111,252
2,43,0,8
2,40,0,68
2,38,120,168
2,38,0,60
2,40,127,196
2,31,127,1172
2,40,0,4
2,31,0,564
2,36,126,172
2,36,0,824
2,43,126,332
2,43,0,268
2,40,117,24
2,40,0,72
2,38,120,152
2,38,0,64
2,40,126,200
2,31,127,1172
2,40,0,12
2,31,0,708
2,36,127,36
2,36,0,828
2,36,98,216
2,36,0,88
2,43,127,20
2,40,111,252
2,43,0,8
2,40,0,68
2,38,120,168
2,38,0,60
2,40,127,196
2,31,127,1172
2,40,0,4
2,31,0,564
2,36,126,172
2,36,0,824
2,43,126,348
2,36,126,948
2,43,0,40
2,36,0,920
2,38,127,32
2,31,106,848
2,38,0,20
2,31,0,56
2,38,117,24
2,38,0,88
2,38,123,148
2,38,0,688
2,38,127,80
2,36,113,220
2,38,0,16
2,36,0,48
2,36,127,404
2,31,113,960
2,36,0,12
2,31,0,44
2,38,127,196
2,31,98,832
2,38,0,12
2,31,0,84
2,38,123,16
2,38,0,96
2,38,126,144
2,38,0,600
2,36,127,96
2,31,123,980
2,36,0,12
2,36,127,960
2,31,0,4
2,31,89,3816
2,36,0,16
2,31,0,536
2,36,91,184
2,36,0,1164
2,31,96,28
2,31,0,496
2,28,96,228
2,28,0,1164
2,31,98,24
2,31,0,604
2,36,98,152
2,36,0,1068
2,40,103,124
2,40,0,500
2,33,113,216
2,31,108,1200
2,33,0,24
2,31,0,420
2,36,108,256
2,36,0,1192
2,31,100,36
2,31,0,668
2,28,113,44
2,28,0,744
2,28,100,204
2,28,0,64
2,38,111,184
2,38,0,800
2,31,86,12
2,31,0,76
2,38,111,44
2,38,0,108
2,38,103,148
2,38,0,664
2,38,106,76
2,38,0,476
2,36,117,224
2,36,0,456
2,36,107,32
2,36,0,120
2,36,106,356
2,36,0,80
2,38,108,156
2,38,0,840
2,31,82,8
2,31,0,104
2,38,93,20
2,38,0,76
2,38,100,160
2,38,0,684
2,36,123,32
2,31,123,956
2,36,0,12
2,31,0,888
2,36,123,40
2,36,0,1620
2,38,88,96
2,40,37,132
2,38,0,40
2,43,105,72
2,40,0,8
2,43,0,676
2,31,95,16
2,38,83,972
2,31,0,24
2,38,0,96
2,40,105,4
2,43,101,124
2,40,0,12
2,31,88,688
2,43,0,4
2,38,92,972
2,31,0,20
2,38,0,88
2,40,92,8
2,40,0,100
2,43,92,24
2,31,96,68
2,43,0,4
2,38,99,160
2,31,0,20
2,38,0,88
2,40,95,12
2,40,0,104
2,43,105,12
2,31,95,240
2,43,0,4
2,38,95,332
2,31,0,24
2,38,0,76
2,40,90,0
2,40,0,96
2,43,96,20
2,43,105,32
2,43,0,396
2,31,95,16
2,43,0,20
2,38,83,76
2,31,0,24
2,38,0,96
2,40,105,4
2,43,101,124
2,40,0,12
2,31,88,152
2,43,0,4
2,38,92,256
2,31,0,20
2,38,0,88
2,40,92,8
2,40,0,36
2,43,92,24
2,31,96,332
2,43,0,4
2,38,99,424
2,31,0,8
2,38,0,88
2,40,95,12
2,40,0,104
2,43,105,12
2,31,95,64
2,43,0,4
2,38,95,160
2,31,0,24
2,38,0,76
2,40,90,4
2,40,0,96
2,43,96,20
2,43,105,32
2,43,0,224
2,31,95,16
2,43,0,44
2,38,83,340
2,31,0,24
2,38,0,24
2,40,105,4
2,43,101,124
2,40,0,12
2,31,88,416
2,43,0,4
2,38,92,84
2,31,0,20
2,38,0,88
2,40,92,8
2,40,0,100
2,43,92,24
2,31,96,160
2,43,0,4
2,38,99,248
2,31,0,20
2,38,0,88
2,40,95,12
2,40,0,36
2,43,105,12
2,31,95,328
2,43,0,4
2,31,0,12
3,55,86,26856
3,62,95,0
3,67,120,0
3,59,95,0
3,59,0,448
3,55,0,8
3,62,0,8
3,67,0,16
3,60,102,92
3,67,107,0
3,64,114,0
3,55,77,0
3,64,0,792
3,67,0,0
3,60,0,8
3,55,0,36
3,59,78,84
3,55,93,0
3,67,107,4
3,62,102,0
3,55,0,504
3,59,0,0
3,62,0,24
3,67,0,12
3,52,93,100
3,59,69,4
3,67,111,4
3,64,107,8
3,67,0,420
3,64,0,8
3,59,0,4
3,52,0,4
3,55,86,84
3,62,95,0
3,67,120,0
3,59,95,0
3,59,0,476
3,55,0,8
3,62,0,8
3,67,0,16
