track,note,velocity,time
3,48,100,6180
3,48,0,29
3,48,100,1
3,48,0,59
3,57,100,31
3,57,0,89
3,55,100,1
3,55,0,59
3,55,100,1
3,55,0,29
3,55,100,1
3,55,0,59
3,53,100,1
3,53,0,89
3,48,100,1
3,48,0,29
3,48,100,1
3,48,0,89
3,57,100,31
3,57,0,89
3,55,100,1
3,55,0,59
3,55,100,1
3,55,0,59
3,53,100,1
3,53,0,89
3,48,100,1
3,48,0,59
3,48,100,1
3,48,0,59
3,57,100,61
3,57,0,59
3,55,100,1
3,55,0,29
3,55,100,1
3,55,0,59
3,53,100,1
3,53,0,59
3,53,100,1
3,53,0,59
3,57,100,31
3,57,0,59
3,55,100,1
3,55,0,59
3,53,100,1
3,53,0,209
3,48,100,91
3,48,0,59
3,48,100,1
3,48,0,59
3,57,100,121
3,57,0,59
3,55,100,1
3,55,0,29
3,55,100,1
3,55,0,59
3,53,100,1
3,53,0,29
3,53,100,1
3,53,0,59
3,48,100,1
3,48,0,119
3,57,100,121
3,57,0,29
3,55,100,1
3,55,0,59
3,53,100,1
3,53,0,59
3,53,100,1
3,53,0,89
3,48,100,1
3,48,0,59
3,48,100,1
3,48,0,29
3,48,100,1
3,48,0,89
3,57,100,61
3,57,0,29
3,55,100,1
3,55,0,29
3,53,100,1
3,53,0,89
3,53,100,1
3,53,0,29
3,57,100,61
3,57,0,59
3,55,100,1
3,55,0,59
3,53,100,1
3,53,0,59
3,53,100,61
3,53,0,89
3,53,100,1
3,53,0,29
3,53,100,1
3,53,0,119
3,53,100,1
3,53,0,59
3,55,100,1
3,55,0,59
3,55,100,1
3,55,0,59
3,55,100,1
3,55,0,59
3,53,100,1
3,53,0,29
3,53,100,1
3,53,0,149
3,48,100,3511
3,48,0,29
3,48,100,1
3,48,0,59
3,48,100,1
3,48,0,59
3,57,100,1
3,57,0,29
3,55,100,1
3,55,0,59
3,53,100,1
3,53,0,59
3,48,100,91
3,48,0,59
3,48,100,1
3,48,0,59
3,48,100,1
3,48,0,119
3,57,100,31
3,57,0,29
3,55,100,1
3,55,0,59
3,53,100,1
3,53,0,119
3,48,100,1
3,48,0,59
3,48,100,1
3,48,0,59
3,48,100,121
3,48,0,59
3,57,100,1
3,57,0,29
3,57,100,1
3,57,0,59
3,55,100,1
3,55,0,59
3,53,100,1
3,53,0,59
3,57,100,1
3,57,0,29
3,57,100,1
3,57,0,59
3,55,100,1
3,55,0,29
3,53,100,1
3,53,0,89
3,48,100,241
3,48,0,59
3,48,100,1
3,48,0,59
3,48,100,1
3,48,0,59
3,48,100,91
3,48,0,29
3,57,100,1
3,57,0,59
3,55,100,1
3,55,0,29
3,53,100,1
3,53,0,149
3,57,100,1
3,57,0,59
3,55,100,1
3,55,0,59
3,53,100,1
3,53,0,209
3,48,100,211
3,48,0,59
3,48,100,1
3,48,0,59
3,57,100,1
3,57,0,89
3,55,100,1
3,55,0,89
3,53,100,1
3,53,0,89
3,57,100,61
3,57,0,29
3,55,100,1
3,55,0,59
3,53,100,1
3,53,0,89
3,48,100,91
3,48,0,29
3,48,100,1
3,48,0,29
3,53,100,1
3,53,0,59
3,53,100,1
3,53,0,59
3,55,100,1
3,55,0,59
3,55,100,1
3,55,0,59
3,55,100,1
3,55,0,89
3,53,100,1
3,53,0,89
3,53,100,1
3,53,0,89
3,62,100,3751
3,62,0,29
3,62,100,1
3,62,0,59
3,62,100,1
3,62,0,89
3,62,100,1
3,62,0,59
3,60,100,1
3,60,0,29
3,58,100,1
3,58,0,59
3,60,100,1
3,60,0,59
3,62,100,1
3,62,0,269
3,62,100,241
3,62,0,59
3,62,100,1
3,62,0,59
3,62,100,1
3,62,0,29
3,53,100,1
3,53,0,119
3,53,100,1
3,53,0,29
3,55,100,1
3,55,0,59
3,57,100,1
3,57,0,119
3,53,100,541
3,53,0,29
3,53,100,1
3,53,0,29
3,60,100,1
3,60,0,119
3,57,100,1
3,57,0,59
3,55,100,1
3,55,0,59
3,53,100,1
3,53,0,119
3,53,100,1
3,53,0,59
3,53,100,1
3,53,0,179
3,57,100,181
3,57,0,29
3,57,100,1
3,57,0,29
3,55,100,1
3,55,0,179
3,53,100,1
3,53,0,59
3,57,100,1
3,57,0,89
3,55,100,1
3,55,0,59
3,55,100,1
3,55,0,149
3,48,100,991
3,48,0,29
3,57,100,1
3,57,0,59
3,55,100,1
3,55,0,59
3,53,100,1
3,53,0,59
3,48,100,1
3,48,0,59
3,48,100,1
3,48,0,89
3,57,100,31
3,57,0,29
3,57,100,1
3,57,0,59
3,55,100,1
3,55,0,29
3,53,100,1
3,53,0,179
3,48,100,91
3,48,0,29
3,48,100,1
3,48,0,59
3,57,100,1
3,57,0,119
3,57,100,121
3,57,0,59
3,55,100,1
3,55,0,59
3,53,100,1
3,53,0,119
3,57,100,1
3,57,0,59
3,57,100,1
3,57,0,59
3,55,100,1
3,55,0,29
3,53,100,1
3,53,0,179
3,48,100,61
3,48,0,59
3,48,100,1
3,48,0,89
3,57,100,1
3,57,0,59
3,55,100,1
3,55,0,59
3,53,100,1
3,53,0,29
3,53,100,1
3,53,0,89
3,48,100,31
3,48,0,29
3,48,100,1
3,48,0,119
3,57,100,1
3,57,0,59
3,55,100,1
3,55,0,59
3,53,100,1
3,53,0,59
3,48,100,31
3,48,0,29
3,48,100,1
3,48,0,59
3,48,100,1
3,48,0,59
3,57,100,151
3,57,0,59
3,55,100,1
3,55,0,59
3,53,100,1
3,53,0,29
3,53,100,1
3,53,0,59
3,57,100,1
3,57,0,59
3,55,100,1
3,55,0,59
3,53,100,1
3,53,0,119
3,48,100,31
3,48,0,29
3,48,100,1
3,48,0,29
3,53,100,1
3,53,0,89
3,53,100,1
3,53,0,59
3,53,100,1
3,53,0,59
3,55,100,1
3,55,0,59
3,55,100,1
3,55,0,149
3,53,100,1
3,53,0,59
3,53,100,1
3,53,0,149
4,53,100,2400
4,57,100,0
4,60,100,0
4,60,0,959
4,57,0,0
4,53,0,0
4,52,100,1
4,57,100,0
4,60,100,0
4,60,0,959
4,57,0,0
4,52,0,0
4,53,100,1
4,57,100,0
4,60,100,0
4,60,0,959
4,57,0,0
4,53,0,0
4,52,100,1
4,57,100,0
4,60,100,0
4,60,0,959
4,57,0,0
4,52,0,0
4,53,100,1
4,57,100,0
4,60,100,0
4,60,0,959
4,57,0,0
4,53,0,0
4,52,100,1
4,57,100,0
4,60,100,0
4,60,0,959
4,57,0,0
4,52,0,0
4,53,100,1
4,57,100,0
4,60,100,0
4,60,0,959
4,57,0,0
4,53,0,0
4,52,100,1
4,57,100,0
4,60,100,0
4,60,0,959
4,57,0,0
4,52,0,0
4,53,100,1
4,58,100,0
4,60,100,0
4,60,0,479
4,58,0,0
4,53,0,0
4,53,100,1
4,57,100,0
4,60,100,0
4,60,0,479
4,57,0,0
4,53,0,0
4,53,100,1
4,55,100,0
4,60,100,0
4,53,0,479
4,52,100,1
4,52,0,479
4,60,0,0
4,55,0,0
4,53,100,1
4,58,100,0
4,60,100,0
4,60,0,479
4,58,0,0
4,53,0,0
4,53,100,1
4,57,100,0
4,60,100,0
4,60,0,479
4,57,0,0
4,53,0,0
4,53,100,1
4,55,100,0
4,60,100,0
4,60,0,479
4,55,0,0
4,53,0,0
4,52,100,1
4,55,100,0
4,60,100,0
4,60,0,479
4,55,0,0
4,52,0,0
4,53,100,1
4,57,100,0
4,60,100,0
4,60,0,959
4,57,0,0
4,53,0,0
4,52,100,1
4,57,100,0
4,60,100,0
4,60,0,959
4,57,0,0
4,52,0,0
4,53,100,1
4,57,100,0
4,60,100,0
4,60,0,959
4,57,0,0
4,53,0,0
4,52,100,1
4,57,100,0
4,60,100,0
4,60,0,959
4,57,0,0
4,52,0,0
4,53,100,1
4,58,100,0
4,60,100,0
4,60,0,479
4,58,0,0
4,53,0,0
4,53,100,1
4,57,100,0
4,60,100,0
4,60,0,479
4,57,0,0
4,53,0,0
4,53,100,1
4,55,100,0
4,60,100,0
4,53,0,479
4,52,100,1
4,52,0,479
4,60,0,0
4,55,0,0
4,53,100,1
4,58,100,0
4,60,100,0
4,60,0,479
4,58,0,0
4,53,0,0
4,53,100,1
4,57,100,0
4,60,100,0
4,60,0,479
4,57,0,0
4,53,0,0
4,53,100,1
4,55,100,0
4,60,100,0
4,60,0,479
4,55,0,0
4,53,0,0
4,52,100,1
4,55,100,0
4,60,100,0
4,60,0,479
4,55,0,0
4,52,0,0
4,53,107,1
4,58,107,0
4,62,107,0
4,62,0,479
4,58,0,0
4,53,0,0
4,53,109,1
4,57,109,0
4,62,109,0
4,62,0,479
4,57,0,0
4,53,0,0
4,53,107,1
4,58,107,0
4,62,107,0
4,62,0,479
4,58,0,0
4,53,0,0
4,53,108,1
4,57,108,0
4,60,108,0
4,60,0,479
4,57,0,0
4,53,0,0
4,52,100,1
4,57,100,0
4,60,100,0
4,60,0,479
4,57,0,0
4,52,0,0
4,53,107,1
4,58,107,0
4,62,107,0
4,62,0,479
4,58,0,0
4,53,0,0
4,55,105,1
4,53,105,0
4,60,105,0
4,60,0,479
4,53,0,0
4,55,0,0
4,52,109,1
4,55,109,0
4,60,109,0
4,60,0,959
4,55,0,0
4,52,0,0
4,53,100,1
4,57,100,0
4,60,100,0
4,60,0,959
4,57,0,0
4,53,0,0
4,52,100,1
4,57,100,0
4,60,100,0
4,60,0,959
4,57,0,0
4,52,0,0
4,53,100,1
4,57,100,0
4,60,100,0
4,60,0,959
4,57,0,0
4,53,0,0
4,52,100,1
4,57,100,0
4,60,100,0
4,60,0,959
4,57,0,0
4,52,0,0
4,53,100,1
4,58,100,0
4,60,100,0
4,60,0,479
4,58,0,0
4,53,0,0
4,53,100,1
4,57,100,0
4,60,100,0
4,60,0,479
4,57,0,0
4,53,0,0
4,53,100,1
4,55,100,0
4,60,100,0
4,53,0,479
4,52,100,1
4,52,0,479
4,60,0,0
4,55,0,0
4,53,100,1
4,58,100,0
4,60,100,0
4,60,0,479
4,58,0,0
4,53,0,0
4,53,100,1
4,57,100,0
4,60,100,0
4,60,0,479
4,57,0,0
4,53,0,0
4,53,100,1
4,55,100,0
4,60,100,0
4,60,0,479
4,55,0,0
4,53,0,0
4,52,100,1
4,55,100,0
4,60,100,0
4,60,0,479
4,55,0,0
4,52,0,0
4,53,100,1
4,58,100,0
4,60,100,0
4,60,0,9
4,58,0,0
4,53,0,0
4,53,100,1
4,57,100,0
4,60,100,0
4,60,0,19
4,57,0,0
4,53,0,0
4,53,100,1
4,55,100,0
4,60,100,0
4,60,0,9
4,55,0,0
4,53,0,0
4,52,100,1
4,55,100,0
4,60,100,0
4,60,0,19
4,55,0,0
4,52,0,0
4,53,100,1
4,58,100,0
4,60,100,0
4,60,0,9
4,58,0,0
4,53,0,0
4,53,100,1
4,57,100,0
4,60,100,0
4,60,0,19
4,57,0,0
4,53,0,0
5,29,100,2400
5,29,0,959
5,33,100,1
5,33,0,959
5,29,100,1
5,29,0,959
5,33,100,1
5,33,0,959
5,29,100,1
5,29,0,959
5,33,100,1
5,33,0,959
5,29,100,1
5,29,0,959
5,33,100,1
5,33,0,959
5,34,100,1
5,34,0,479
5,33,100,1
5,33,0,479
5,36,100,1
5,36,0,479
5,36,100,1
5,36,0,479
5,34,100,1
5,34,0,479
5,33,100,1
5,33,0,479
5,36,100,1
5,36,0,479
5,36,100,1
5,36,0,479
5,29,100,1
5,29,0,959
5,33,100,1
5,33,0,959
5,29,100,1
5,29,0,959
5,33,100,1
5,33,0,959
5,34,100,1
5,34,0,479
5,33,100,1
5,33,0,419
5,29,100,1
5,29,0,59
5,36,100,1
5,36,0,419
5,31,100,1
5,31,0,59
5,36,100,1
5,36,0,419
5,35,100,1
5,35,0,59
5,34,100,1
5,34,0,359
5,41,100,1
5,41,0,119
5,33,100,1
5,33,0,359
5,29,100,1
5,29,0,59
5,33,100,1
5,33,0,59
5,36,100,1
5,36,0,419
5,31,100,1
5,31,0,59
5,36,100,1
5,36,0,419
5,38,100,1
5,38,0,59
5,34,100,1
5,34,0,479
5,38,100,1
5,38,0,419
5,36,100,1
5,36,0,59
5,34,100,1
5,34,0,479
5,41,100,1
5,41,0,479
5,33,107,1
5,33,0,479
5,34,108,1
5,34,0,479
5,36,100,1
5,36,0,419
5,31,100,1
5,31,0,59
5,36,100,1
5,36,0,479
5,36,100,1
5,36,0,479
5,29,100,1
5,29,0,419
5,29,100,1
5,29,0,59
5,29,100,1
5,29,0,359
5,29,100,1
5,29,0,59
5,31,100,1
5,31,0,59
5,33,100,1
5,33,0,479
5,33,100,1
5,33,0,359
5,36,100,1
5,36,0,59
5,33,100,1
5,33,0,59
5,29,100,1
5,29,0,479
5,29,100,1
5,29,0,299
5,29,100,1
5,29,0,59
5,31,100,1
5,31,0,59
5,33,100,1
5,33,0,59
5,33,100,1
5,33,0,479
5,33,100,1
5,33,0,419
5,45,100,1
5,45,0,59
5,34,100,1
5,34,0,419
5,41,100,1
5,41,0,59
5,33,100,1
5,33,0,419
5,31,100,1
5,31,0,59
5,36,100,1
5,36,0,419
5,31,100,1
5,31,0,59
5,36,100,1
5,36,0,359
5,31,100,1
5,31,0,59
5,33,100,1
5,33,0,59
5,34,100,1
5,34,0,419
5,41,100,1
5,41,0,59
5,33,100,1
5,33,0,419
5,31,100,1
5,31,0,59
5,36,100,1
5,36,0,419
5,31,100,1
5,31,0,59
5,36,100,1
5,36,0,359
5,31,100,1
5,31,0,59
5,33,100,1
5,33,0,59
5,34,100,1
5,34,0,9
5,41,100,1
5,41,0,9
5,33,100,1
5,33,0,19
5,31,100,1
5,31,0,19
5,36,100,1
5,36,0,9
5,31,100,1
5,31,0,9
5,36,100,1
5,36,0,19
5,31,100,1
5,31,0,19
5,33,100,1
5,33,0,19
5,34,100,1
5,34,0,9
5,41,100,1
5,41,0,9
5,33,100,1
5,33,0,19
5,31,100,1
5,31,0,19
6,53,59,10140
6,53,0,119
6,53,73,1
6,53,0,59
6,53,83,1
6,53,0,119
6,53,95,1
6,53,0,59
6,53,100,121
6,53,0,119
6,53,100,1
6,53,0,59
6,53,94,1
6,53,0,119
6,53,67,1
6,53,0,59
6,55,95,121
6,55,0,119
6,55,95,1
6,55,0,59
6,55,92,1
6,55,0,119
6,55,75,1
6,55,0,59
6,55,80,121
6,55,0,119
6,55,95,1
6,55,0,59
6,55,95,1
6,55,0,119
6,57,95,1
6,57,0,59
6,55,82,1
6,55,0,29
6,53,59,91
6,53,0,119
6,53,73,1
6,53,0,59
6,53,83,1
6,53,0,119
6,53,95,1
6,53,0,59
6,53,100,121
6,53,0,119
6,53,100,1
6,53,0,59
6,53,94,1
6,53,0,119
6,53,67,1
6,53,0,59
6,55,95,121
6,55,0,119
6,55,95,1
6,55,0,59
6,55,92,1
6,55,0,119
6,55,75,1
6,55,0,59
6,55,80,121
6,55,0,119
6,55,95,1
6,55,0,59
6,55,95,1
6,55,0,119
6,57,95,1
6,57,0,59
6,55,82,1
6,55,0,29
6,53,59,3931
6,53,0,119
6,53,73,1
6,53,0,59
6,53,83,1
6,53,0,119
6,53,95,1
6,53,0,59
6,53,100,121
6,53,0,119
6,53,100,1
6,53,0,59
6,53,94,1
6,53,0,119
6,53,67,1
6,53,0,59
6,55,95,121
6,55,0,119
6,55,95,1
6,55,0,59
6,55,92,1
6,55,0,119
6,55,75,1
6,55,0,59
6,55,80,121
6,55,0,119
6,55,95,1
6,55,0,59
6,55,95,1
6,55,0,119
6,57,95,1
6,57,0,59
6,55,82,1
6,55,0,29
6,53,59,91
6,53,0,119
6,53,73,1
6,53,0,59
6,53,83,1
6,53,0,119
6,53,95,1
6,53,0,59
6,53,100,121
6,53,0,119
6,53,100,1
6,53,0,59
6,53,94,1
6,53,0,119
6,53,67,1
6,53,0,59
6,55,95,121
6,55,0,119
6,55,95,1
6,55,0,59
6,55,92,1
6,55,0,119
6,55,75,1
6,55,0,59
6,55,80,121
6,55,0,119
6,55,95,1
6,55,0,59
