track,note,velocity,time
1,59,90,96
1,62,90,0
1,62,90,0
1,59,90,0
1,62,90,0
1,62,90,0
1,59,90,0
1,60,90,0
1,64,90,0
1,59,90,0
1,62,90,0
1,59,90,192
1,62,90,0
1,62,90,0
1,59,90,0
1,57,90,0
1,57,90,0
1,55,90,0
1,55,90,0
1,55,90,0
1,59,90,384
1,62,90,0
1,62,90,0
1,59,90,0
1,62,90,0
1,62,90,0
1,59,90,0
1,60,90,0
1,64,90,0
1,59,90,0
1,62,90,0
1,55,90,96
1,59,90,0
1,62,90,0
1,62,90,0
1,59,90,0
1,59,90,0
1,57,90,0
1,55,90,0
1,55,90,0
1,64,90,192
1,67,90,0
1,67,90,0
1,64,90,0
1,64,90,0
1,67,90,0
1,67,90,0
1,64,90,0
1,65,90,0
1,69,90,0
1,67,90,0
1,64,90,0
1,55,90,0
1,64,90,0
1,67,90,0
1,67,90,0
1,64,90,0
1,64,90,0
1,64,90,0
1,62,90,0
1,64,90,0
1,62,90,0
1,57,90,0
1,57,90,0
1,60,90,0
1,60,90,0
1,55,90,0
1,59,90,384
1,62,90,0
1,62,90,0
1,59,90,0
1,62,90,0
1,62,90,0
1,59,90,0
1,60,90,0
1,64,90,0
1,62,90,0
1,59,90,0
1,55,90,0
1,59,90,0
1,62,90,0
1,62,90,0
1,62,90,0
1,62,90,0
1,55,90,0
1,59,90,0
1,57,90,0
1,55,90,0
1,55,90,0
1,55,90,0
1,62,90,0
1,62,90,0
1,62,90,96
1,54,90,0
1,54,90,0
1,62,90,0
1,54,90,0
1,62,90,0
1,62,90,0
1,54,90,0
1,54,90,0
1,62,90,0
1,62,90,0
1,54,90,0
1,62,90,0
1,54,90,0
1,62,90,0
1,54,90,0
1,62,90,0
1,54,90,0
1,54,90,0
1,64,90,0
1,62,90,96
1,54,90,0
1,62,90,0
1,54,90,0
1,54,90,0
1,62,90,0
1,54,90,0
1,59,90,0
1,54,90,0
1,62,90,0
1,54,90,0
1,59,90,0
1,54,90,0
1,62,90,0
1,54,90,0
1,59,90,0
1,62,90,192
1,67,90,0
1,62,90,0
1,67,90,0
1,62,90,0
1,67,90,0
1,64,90,0
1,62,90,0
1,67,90,0
1,67,90,0
1,62,90,0
1,64,90,0
1,60,90,0
1,55,90,0
1,67,90,0
1,67,90,0
1,65,90,0
1,57,90,0
1,65,90,0
1,57,90,0
1,55,90,0
1,64,90,0
1,55,90,0
1,64,90,0
1,62,90,0
1,53,90,0
1,62,90,0
1,53,90,0
1,52,90,0
1,60,90,0
1,60,90,0
1,52,90,0
1,59,90,26
1,62,90,0
1,62,90,0
1,59,90,0
1,62,90,0
1,62,90,0
1,59,90,0
1,60,90,0
1,64,90,0
1,59,90,0
1,62,90,0
1,59,90,142
1,62,90,0
1,62,90,0
1,59,90,0
1,57,90,0
1,52,90,0
1,52,90,0
1,55,90,0
1,50,90,0
1,55,90,0
1,59,90,192
1,62,90,0
1,62,90,0
1,59,90,0
1,62,90,0
1,62,90,0
1,59,90,0
1,60,90,0
1,64,90,0
1,59,90,0
1,62,90,0
1,59,90,192
1,62,90,0
1,62,90,0
1,59,90,0
1,57,90,0
1,52,90,0
1,52,90,0
1,55,90,0
1,55,90,0
1,50,90,0
1,59,90,384
1,62,90,0
1,62,90,0
1,59,90,0
1,62,90,0
1,62,90,0
1,59,90,0
1,60,90,0
1,64,90,0
1,59,90,0
1,62,90,0
1,59,90,192
1,62,90,0
1,62,90,0
1,59,90,0
1,57,90,0
1,57,90,0
1,55,90,0
1,55,90,0
1,55,90,0
1,59,90,384
1,62,90,0
1,62,90,0
1,59,90,0
1,62,90,0
1,62,90,0
1,59,90,0
1,60,90,0
1,64,90,0
1,59,90,0
1,62,90,0
1,55,90,96
1,59,90,0
1,62,90,0
1,62,90,0
1,59,90,0
1,59,90,0
1,57,90,0
1,55,90,0
1,55,90,0
1,64,90,192
1,67,90,0
1,67,90,0
1,64,90,0
1,64,90,0
1,67,90,0
1,67,90,0
1,64,90,0
1,65,90,0
1,69,90,0
1,67,90,0
1,64,90,0
1,55,90,0
1,64,90,0
1,67,90,0
1,67,90,0
1,64,90,0
1,64,90,0
1,64,90,0
1,62,90,0
1,64,90,0
1,62,90,0
1,57,90,0
1,57,90,0
1,60,90,0
1,60,90,0
1,55,90,0
1,59,90,384
1,62,90,0
1,62,90,0
1,59,90,0
1,62,90,0
1,62,90,0
1,59,90,0
1,60,90,0
1,64,90,0
1,62,90,0
1,59,90,0
1,55,90,0
1,59,90,0
1,62,90,0
1,62,90,0
1,62,90,0
1,62,90,0
1,55,90,0
1,59,90,0
1,57,90,0
1,55,90,0
1,55,90,0
1,55,90,0
1,62,90,0
1,62,90,0
1,62,90,96
1,54,90,0
1,54,90,0
1,62,90,0
1,54,90,0
1,62,90,0
1,62,90,0
1,54,90,0
1,54,90,0
1,62,90,0
1,62,90,0
1,54,90,0
1,62,90,0
1,54,90,0
1,62,90,0
1,54,90,0
1,62,90,0
1,54,90,0
1,54,90,0
1,64,90,0
1,62,90,96
1,54,90,0
1,62,90,0
1,54,90,0
1,54,90,0
1,62,90,0
1,54,90,0
1,59,90,0
1,54,90,0
1,62,90,0
1,54,90,0
1,59,90,0
1,54,90,0
1,62,90,0
1,54,90,0
1,59,90,0
1,62,90,192
1,67,90,0
1,62,90,0
1,67,90,0
1,62,90,0
1,67,90,0
1,64,90,0
1,62,90,0
1,67,90,0
1,67,90,0
1,62,90,0
1,64,90,0
1,60,90,0
1,55,90,0
1,67,90,0
1,67,90,0
1,65,90,0
1,57,90,0
1,65,90,0
1,57,90,0
1,55,90,0
1,64,90,0
1,55,90,0
1,64,90,0
1,62,90,0
1,53,90,0
1,62,90,0
1,53,90,0
1,52,90,0
1,60,90,0
1,60,90,0
1,52,90,0
1,59,90,192
1,62,90,0
1,62,90,0
1,59,90,0
1,62,90,0
1,62,90,0
1,59,90,0
1,60,90,0
1,64,90,0
1,59,90,0
1,62,90,0
1,59,90,192
1,62,90,0
1,62,90,0
1,59,90,0
1,57,90,0
1,52,90,0
1,52,90,0
1,55,90,0
1,50,90,0
1,55,90,0
1,59,90,192
1,62,90,0
1,62,90,0
1,59,90,0
1,62,90,0
1,62,90,0
1,59,90,0
1,60,90,0
1,64,90,0
1,59,90,0
1,62,90,0
1,59,90,175
1,62,90,0
1,62,90,0
1,59,90,0
1,57,90,0
1,52,90,0
1,52,90,0
1,55,90,0
1,55,90,0
1,50,90,0
1,64,90,384
1,67,90,0
1,67,90,0
1,64,90,0
1,67,90,0
1,67,90,0
1,64,90,0
1,65,90,0
1,69,90,0
1,64,90,0
1,67,90,0
1,64,90,192
1,67,90,0
1,67,90,0
1,64,90,0
1,64,90,0
1,59,90,0
1,59,90,0
1,62,90,0
1,62,90,0
1,59,90,0
1,59,90,192
1,62,90,0
1,62,90,0
1,59,90,0
1,62,90,0
1,62,90,0
1,59,90,0
1,64,90,0
1,62,90,0
1,59,90,159
1,62,90,0
1,62,90,0
1,59,90,0
1,57,90,0
1,52,90,0
1,52,90,0
1,55,90,0
1,50,90,0
1,55,90,0
1,64,90,48
1,67,90,0
1,67,90,0
1,64,90,0
1,67,90,0
1,67,90,0
1,64,90,0
1,65,90,0
1,69,90,0
1,64,90,0
1,67,90,0
1,64,90,6
1,67,90,0
1,67,90,0
1,64,90,0
1,64,90,0
1,59,90,0
1,59,90,0
1,62,90,0
1,62,90,0
1,59,90,0
1,59,90,66
1,62,90,0
1,62,90,0
1,59,90,0
1,62,90,0
1,62,90,0
1,59,90,0
1,64,90,0
1,62,90,0
1,59,90,160
1,62,90,0
1,62,90,0
1,59,90,0
1,57,90,0
1,52,90,0
1,52,90,0
1,55,90,0
1,50,90,0
1,55,90,0
2,59,90,96
2,62,90,0
2,62,90,0
2,59,90,0
2,62,90,0
2,62,90,0
2,59,90,0
2,60,90,0
2,64,90,0
2,59,90,0
2,62,90,0
2,59,90,192
2,62,90,0
2,62,90,0
2,59,90,0
2,57,90,0
2,57,90,0
2,55,90,0
2,55,90,0
2,55,90,0
2,59,90,384
2,62,90,0
2,62,90,0
2,59,90,0
2,62,90,0
2,62,90,0
2,59,90,0
2,60,90,0
2,64,90,0
2,59,90,0
2,62,90,0
2,55,90,96
2,59,90,0
2,62,90,0
2,62,90,0
2,59,90,0
2,59,90,0
2,57,90,0
2,55,90,0
2,55,90,0
2,64,90,192
2,67,90,0
2,67,90,0
2,64,90,0
2,64,90,0
2,67,90,0
2,67,90,0
2,64,90,0
2,65,90,0
2,69,90,0
2,67,90,0
2,64,90,0
2,55,90,0
2,64,90,0
2,67,90,0
2,67,90,0
2,64,90,0
2,64,90,0
2,64,90,0
2,62,90,0
2,64,90,0
2,62,90,0
2,57,90,0
2,57,90,0
2,60,90,0
2,60,90,0
2,55,90,0
2,59,90,384
2,62,90,0
2,62,90,0
2,59,90,0
2,62,90,0
2,62,90,0
2,59,90,0
2,60,90,0
2,64,90,0
2,62,90,0
2,59,90,0
2,55,90,0
2,59,90,0
2,62,90,0
2,62,90,0
2,62,90,0
2,62,90,0
2,55,90,0
2,59,90,0
2,57,90,0
2,55,90,0
2,55,90,0
2,55,90,0
2,62,90,0
2,62,90,0
2,62,90,96
2,54,90,0
2,54,90,0
2,62,90,0
2,54,90,0
2,62,90,0
2,62,90,0
2,54,90,0
2,54,90,0
2,62,90,0
2,62,90,0
2,54,90,0
2,62,90,0
2,54,90,0
2,62,90,0
2,54,90,0
2,62,90,0
2,54,90,0
2,54,90,0
2,64,90,0
2,62,90,96
2,54,90,0
2,62,90,0
2,54,90,0
2,54,90,0
2,62,90,0
2,54,90,0
2,59,90,0
2,54,90,0
2,62,90,0
2,54,90,0
2,59,90,0
2,54,90,0
2,62,90,0
2,54,90,0
2,59,90,0
2,62,90,192
2,67,90,0
2,62,90,0
2,67,90,0
2,62,90,0
2,67,90,0
2,64,90,0
2,62,90,0
2,67,90,0
2,67,90,0
2,62,90,0
2,64,90,0
2,60,90,0
2,55,90,0
2,67,90,0
2,67,90,0
2,65,90,0
2,57,90,0
2,65,90,0
2,57,90,0
2,55,90,0
2,64,90,0
2,55,90,0
2,64,90,0
2,62,90,0
2,53,90,0
2,62,90,0
2,53,90,0
2,52,90,0
2,60,90,0
2,60,90,0
2,52,90,0
2,59,90,192
2,62,90,0
2,62,90,0
2,59,90,0
2,62,90,0
2,62,90,0
2,59,90,0
2,60,90,0
2,64,90,0
2,59,90,0
2,62,90,0
2,59,90,192
2,62,90,0
2,62,90,0
2,59,90,0
2,57,90,0
2,52,90,0
2,52,90,0
2,55,90,0
2,50,90,0
2,55,90,0
2,59,90,192
2,62,90,0
2,62,90,0
2,59,90,0
2,62,90,0
2,62,90,0
2,59,90,0
2,60,90,0
2,64,90,0
2,59,90,0
2,62,90,0
2,59,90,192
2,62,90,0
2,62,90,0
2,59,90,0
2,57,90,0
2,52,90,0
2,52,90,0
2,55,90,0
2,55,90,0
2,50,90,0
2,59,90,384
2,62,90,0
2,62,90,0
2,59,90,0
2,62,90,0
2,62,90,0
2,59,90,0
2,60,90,0
2,64,90,0
2,59,90,0
2,62,90,0
2,59,90,192
2,62,90,0
2,62,90,0
2,59,90,0
2,57,90,0
2,57,90,0
2,55,90,0
2,55,90,0
2,55,90,0
2,59,90,384
2,62,90,0
2,62,90,0
2,59,90,0
2,62,90,0
2,62,90,0
2,59,90,0
2,60,90,0
2,64,90,0
2,59,90,0
2,62,90,0
2,55,90,96
2,59,90,0
2,62,90,0
2,62,90,0
2,59,90,0
2,59,90,0
2,57,90,0
2,55,90,0
2,55,90,0
2,64,90,12
2,67,90,0
2,67,90,0
2,64,90,0
2,64,90,0
2,67,90,0
2,67,90,0
2,64,90,0
2,65,90,0
2,69,90,0
2,67,90,0
2,64,90,0
2,55,90,0
2,64,90,0
2,67,90,0
2,67,90,0
2,64,90,0
2,64,90,0
2,64,90,0
2,62,90,0
2,64,90,0
2,62,90,0
2,57,90,0
2,57,90,0
2,60,90,0
2,60,90,0
2,55,90,0
2,59,90,384
2,62,90,0
2,62,90,0
2,59,90,0
2,62,90,0
2,62,90,0
2,59,90,0
2,60,90,0
2,64,90,0
2,62,90,0
2,59,90,0
2,55,90,0
2,59,90,0
2,62,90,0
2,62,90,0
2,62,90,0
2,62,90,0
2,55,90,0
2,59,90,0
2,57,90,0
2,55,90,0
2,55,90,0
2,55,90,0
2,62,90,0
2,62,90,0
2,62,90,96
2,54,90,0
2,54,90,0
2,62,90,0
2,54,90,0
2,62,90,0
2,62,90,0
2,54,90,0
2,54,90,0
2,62,90,0
2,62,90,0
2,54,90,0
2,62,90,0
2,54,90,0
2,62,90,0
2,54,90,0
2,62,90,0
2,54,90,0
2,54,90,0
2,64,90,0
2,62,90,96
2,54,90,0
2,62,90,0
2,54,90,0
2,54,90,0
2,62,90,0
2,54,90,0
2,59,90,0
2,54,90,0
2,62,90,0
2,54,90,0
2,59,90,0
2,54,90,0
2,62,90,0
2,54,90,0
2,59,90,0
2,62,90,192
2,67,90,0
2,62,90,0
2,67,90,0
2,62,90,0
2,67,90,0
2,64,90,0
2,62,90,0
2,67,90,0
2,67,90,0
2,62,90,0
2,64,90,0
2,60,90,0
2,55,90,0
2,67,90,0
2,67,90,0
2,65,90,0
2,57,90,0
2,65,90,0
2,57,90,0
2,55,90,0
2,64,90,0
2,55,90,0
2,64,90,0
2,62,90,0
2,53,90,0
2,62,90,0
2,53,90,0
2,52,90,0
2,60,90,0
2,60,90,0
2,52,90,0
2,59,90,192
2,62,90,0
2,62,90,0
2,59,90,0
2,62,90,0
2,62,90,0
2,59,90,0
2,60,90,0
2,64,90,0
2,59,90,0
2,62,90,0
2,59,90,192
2,62,90,0
2,62,90,0
2,59,90,0
2,57,90,0
2,52,90,0
2,52,90,0
2,55,90,0
2,50,90,0
2,55,90,0
2,59,90,192
2,62,90,0
2,62,90,0
2,59,90,0
2,62,90,0
2,62,90,0
2,59,90,0
2,60,90,0
2,64,90,0
2,59,90,0
2,62,90,0
2,59,90,192
2,62,90,0
2,62,90,0
2,59,90,0
2,57,90,0
2,52,90,0
2,52,90,0
2,55,90,0
2,55,90,0
2,50,90,0
2,64,90,384
2,67,90,0
2,67,90,0
2,64,90,0
2,67,90,0
2,67,90,0
2,64,90,0
2,65,90,0
2,69,90,0
2,64,90,0
2,67,90,0
2,64,90,192
2,67,90,0
2,67,90,0
2,64,90,0
2,64,90,0
2,59,90,0
2,59,90,0
2,62,90,0
2,62,90,0
2,59,90,0
2,59,90,192
2,62,90,0
2,62,90,0
2,59,90,0
2,62,90,0
2,62,90,0
2,59,90,0
2,64,90,0
2,62,90,0
2,59,90,192
2,62,90,0
2,62,90,0
2,59,90,0
2,57,90,0
2,52,90,0
2,52,90,0
2,55,90,0
2,50,90,0
2,55,90,0
2,64,90,192
2,67,90,0
2,67,90,0
2,64,90,0
2,67,90,0
2,67,90,0
2,64,90,0
2,65,90,0
2,69,90,0
2,64,90,0
2,67,90,0
2,64,90,76
2,67,90,0
2,67,90,0
2,64,90,0
2,64,90,0
2,59,90,0
2,59,90,0
2,62,90,0
2,62,90,0
2,59,90,0
2,59,90,128
2,62,90,0
2,62,90,0
2,59,90,0
2,62,90,0
2,62,90,0
2,59,90,0
2,64,90,0
2,62,90,0
2,59,90,48
2,62,90,0
2,62,90,0
2,59,90,0
2,57,90,0
2,52,90,0
2,52,90,0
2,55,90,0
2,50,90,0
2,55,90,0
3,43,90,0
3,41,90,0
3,40,90,0
3,38,90,0
3,36,90,0
3,40,90,0
3,41,90,0
3,42,90,0
3,43,90,0
3,41,90,0
3,40,90,0
3,38,90,0
3,36,90,0
3,40,90,0
3,41,90,0
3,42,90,0
3,43,90,0
3,41,90,0
3,40,90,0
3,38,90,0
3,36,90,0
3,40,90,0
3,41,90,0
3,42,90,0
3,43,90,0
3,41,90,0
3,40,90,0
3,38,90,0
3,36,90,0
3,40,90,0
3,41,90,0
3,42,90,0
