track,note,velocity,time
0,38,108,30
0,50,113,0
0,54,126,2
0,36,107,8
0,67,123,0
0,72,127,0
0,76,126,0
0,49,117,2
0,54,0,26
0,36,0,2
0,49,0,2
0,44,28,30
0,44,0,58
0,44,71,62
0,44,0,58
0,46,120,0
0,54,122,0
0,54,0,38
0,46,0,20
0,44,61,0
0,76,0,12
0,67,0,6
0,72,0,6
0,44,0,34
0,46,84,2
0,69,103,10
0,74,117,0
0,77,111,2
0,69,0,40
0,74,0,2
0,77,0,0
0,46,0,4
0,44,74,4
0,44,0,2
0,46,120,4
0,69,117,8
0,77,113,0
0,74,126,0
0,54,121,4
0,54,0,8
0,46,0,14
0,44,64,4
0,46,77,54
0,44,0,4
0,46,0,54
0,44,71,4
0,44,0,58
0,46,120,0
0,54,121,16
0,54,0,34
0,46,0,8
0,44,36,2
0,44,0,58
0,46,84,4
0,50,0,52
0,77,0,0
0,46,0,6
0,38,0,0
0,74,0,0
0,44,64,4
0,69,0,2
0,44,0,38
0,46,120,0
0,54,120,0
0,48,113,0
0,36,111,0
0,36,108,2
0,67,123,6
0,71,127,0
0,74,113,0
0,54,0,22
0,46,0,24
0,44,77,2
0,36,0,4
0,44,0,54
0,44,62,60
0,44,0,58
0,54,122,0
0,46,120,2
0,54,0,28
0,74,0,10
0,46,0,20
0,71,0,0
0,44,67,6
0,67,0,22
0,46,89,34
0,44,0,2
0,67,103,2
0,72,123,0
0,76,108,4
0,67,0,34
0,72,0,0
0,76,0,4
0,46,0,2
0,44,88,2
0,44,0,8
0,46,119,2
0,54,122,10
0,67,123,0
0,72,126,0
0,76,113,0
0,54,0,34
0,46,0,14
0,44,29,6
0,46,81,56
0,44,0,2
0,46,0,56
0,44,83,4
0,44,0,58
0,46,119,2
0,54,118,8
0,54,0,32
0,46,0,18
0,44,74,8
0,48,0,48
0,46,86,4
0,36,0,2
0,44,0,4
0,76,0,38
0,72,0,10
0,67,0,2
0,46,0,2
0,44,81,6
0,44,0,58
0,46,119,2
0,36,117,0
0,54,120,2
0,46,119,12
0,34,100,0
0,65,120,2
0,72,120,0
0,69,123,0
0,54,0,18
0,36,0,10
0,46,0,12
0,44,28,2
0,44,0,34
0,44,70,62
0,44,0,58
0,46,119,0
0,54,125,6
0,54,0,32
0,72,0,6
0,44,61,8
0,69,0,4
0,46,0,2
0,65,0,4
0,44,0,48
0,46,83,8
0,65,106,4
0,70,122,0
0,74,106,0
0,65,0,36
0,70,0,2
0,74,0,2
0,46,0,14
0,44,73,4
0,44,0,40
0,70,122,2
0,65,111,0
0,74,108,0
0,46,119,2
0,54,120,6
0,54,0,34
0,46,0,18
0,46,77,58
0,46,0,58
0,44,70,4
0,41,98,54
0,44,0,4
0,46,119,0
0,46,0,6
0,34,0,6
0,54,126,4
0,54,0,32
0,46,0,10
0,44,35,2
0,44,0,14
0,46,82,4
0,36,80,2
0,79,113,10
0,82,122,0
0,36,0,18
0,82,0,12
0,79,0,2
0,46,0,2
0,44,63,4
0,65,0,36
0,74,0,0
0,70,0,4
0,41,0,0
0,34,96,2
0,46,122,2
0,44,0,14
0,46,118,0
0,36,117,2
0,79,117,2
0,54,127,2
0,82,125,0
0,54,0,32
0,36,0,6
0,46,0,14
0,44,76,2
0,82,0,18
0,79,0,6
0,44,0,34
0,77,98,4
0,81,103,2
0,81,0,48
0,44,61,6
0,77,0,2
0,77,103,54
0,81,106,0
0,44,0,2
0,46,118,2
0,54,126,8
0,54,0,32
0,81,0,16
0,46,0,2
0,77,0,2
0,44,66,4
0,46,87,16
0,44,0,2
0,79,103,0
0,36,75,2
0,82,122,2
0,34,0,6
0,82,0,0
0,79,0,4
0,46,0,2
0,36,0,6
0,46,0,12
0,44,87,2
0,48,113,52
0,36,108,2
0,44,0,4
0,79,108,0
0,82,122,0
0,46,118,2
0,36,117,4
0,54,124,0
0,79,0,30
0,82,0,2
0,54,0,2
0,36,0,12
0,46,0,8
0,44,28,6
0,77,100,54
0,46,80,2
0,44,0,2
0,81,98,0
0,81,0,30
0,77,0,2
0,46,0,24
0,44,56,4
0,76,103,56
0,79,100,0
0,44,0,2
0,54,120,0
0,46,118,2
0,76,0,28
0,79,0,0
0,54,0,4
0,46,0,26
0,44,47,0
0,44,0,58
0,46,85,2
0,74,100,0
0,77,108,0
0,36,108,4
0,74,0,26
0,77,0,0
0,48,0,4
0,36,0,0
0,36,0,10
0,46,0,14
0,44,80,4
0,62,58,46
0,67,72,0
0,50,70,0
0,72,83,4
0,54,127,4
0,76,70,0
0,44,0,4
0,36,107,0
0,50,123,0
0,38,108,0
0,67,117,0
0,49,117,2
0,72,127,2
0,76,117,0
0,54,0,26
0,36,0,0
0,49,0,2
0,44,27,30
0,44,0,14
0,44,69,62
0,67,0,30
0,72,0,6
0,76,0,2
0,54,118,18
0,44,0,2
0,46,116,0
0,54,0,32
0,46,0,26
0,44,59,0
0,67,0,6
0,76,0,0
0,72,0,10
0,44,0,42
0,46,81,2
0,69,103,0
0,74,117,0
0,77,106,0
0,69,93,6
0,74,103,0
0,77,78,4
0,69,0,28
0,74,0,2
0,77,0,0
0,74,0,4
0,77,0,0
0,69,0,2
0,46,0,2
0,44,71,4
0,44,0,14
0,46,116,4
0,69,98,0
0,54,117,2
0,74,106,2
0,77,100,2
0,69,117,8
0,74,126,2
0,77,111,0
0,54,0,24
0,46,0,18
0,44,62,4
0,50,0,8
0,62,0,4
0,46,75,26
0,44,0,4
0,46,0,46
0,44,69,4
0,44,0,58
0,46,116,0
0,54,125,8
0,62,72,20
0,77,0,2
0,50,64,2
0,74,0,4
0,54,0,8
0,69,0,0
0,46,0,14
0,44,34,2
0,62,0,6
0,50,0,0
0,44,0,52
0,36,65,4
0,46,81,0
0,36,0,34
0,77,0,0
0,50,0,8
0,38,0,0
0,74,0,0
0,69,0,6
0,46,0,10
0,44,62,4
0,36,123,10
0,44,0,2
0,46,116,0
0,48,113,0
0,54,122,4
0,71,111,0
0,67,103,0
0,74,96,0
0,60,96,0
0,48,93,0
0,36,108,0
0,67,113,10
0,71,126,0
0,74,113,0
0,54,0,20
0,36,0,12
0,46,0,6
0,44,75,2
0,44,0,14
0,44,60,60
0,74,0,52
0,44,0,6
0,46,116,2
0,54,123,0
0,71,0,0
0,54,0,34
0,74,0,8
0,46,0,16
0,71,0,4
0,44,65,2
0,67,0,20
0,46,86,36
0,44,0,2
0,72,103,0
0,76,103,0
0,76,103,6
0,72,117,0
0,67,106,0
0,72,0,34
0,67,0,0
0,76,0,2
0,76,0,4
0,46,0,4
0,44,86,2
0,72,0,4
0,44,0,4
0,46,116,2
0,54,127,0
0,72,108,4
0,76,103,2
0,67,111,6
0,72,123,0
0,76,108,0
0,54,0,12
0,46,0,28
0,44,28,6
0,36,108,56
0,46,79,0
0,44,0,2
0,60,0,2
0,48,0,0
0,36,0,36
0,46,0,18
0,44,80,4
0,44,0,58
0,46,115,2
0,54,117,4
0,76,0,14
0,72,0,10
0,54,0,8
0,67,0,14
0,46,0,8
0,44,71,8
0,48,0,42
0,36,0,4
0,46,83,6
0,36,62,4
0,44,0,2
0,76,0,16
0,72,0,8
0,36,0,10
0,67,0,2
0,46,0,16
0,44,79,6
0,54,126,14
0,58,100,0
0,65,100,0
0,46,119,0
0,69,106,2
0,46,89,0
0,72,96,0
0,44,0,2
0,36,127,0
0,34,107,0
0,65,111,0
0,69,117,0
0,72,113,0
0,46,115,2
0,54,0,30
0,36,0,2
0,46,0,10
0,44,27,2
0,44,0,32
0,44,68,62
0,69,0,50
0,44,0,8
0,46,115,0
0,54,124,2
0,72,0,6
0,54,0,26
0,72,0,14
0,44,59,4
0,46,0,6
0,65,0,6
0,69,0,4
0,44,0,42
0,46,80,8
0,70,115,0
0,74,96,0
0,65,103,0
0,70,119,0
0,74,98,4
0,65,0,32
0,74,0,2
0,70,0,0
0,74,0,2
0,70,0,4
0,46,0,6
0,44,70,4
0,44,0,28
0,70,115,0
0,74,111,0
0,46,115,4
0,65,113,0
0,74,108,0
0,70,122,0
0,54,120,2
0,54,0,26
0,46,0,22
0,46,74,58
0,46,0,58
0,44,68,4
0,44,0,58
0,46,115,0
0,54,118,6
0,41,83,2
0,46,0,10
0,34,0,0
0,54,0,18
0,46,0,22
0,44,34,2
0,46,0,4
0,58,0,12
0,44,0,42
0,46,80,4
0,36,71,2
0,65,0,6
0,58,84,4
0,74,0,0
0,70,0,0
0,46,82,2
0,82,119,2
0,79,106,0
0,36,0,20
0,58,0,18
0,46,0,0
0,46,0,4
0,44,61,4
0,79,0,10
0,82,0,6
0,41,0,28
0,34,92,4
0,46,119,2
0,44,0,8
0,46,114,0
0,36,123,2
0,46,92,0
0,58,100,2
0,79,111,0
0,82,122,0
0,54,122,10
0,36,0,32
0,54,0,2
0,46,0,8
0,44,73,2
0,82,0,38
0,79,0,8
0,44,0,12
0,77,98,2
0,81,106,4
0,79,71,4
0,79,0,10
0,44,59,40
0,81,0,8
0,77,0,8
0,77,100,40
0,81,100,0
0,44,0,2
0,46,114,2
0,54,119,16
0,54,0,32
0,46,0,10
0,44,63,6
0,81,0,4
0,46,0,12
0,77,0,6
0,58,0,8
0,74,0,8
0,70,0,4
0,65,0,4
0,79,100,6
0,46,84,4
0,82,115,0
0,44,0,2
0,36,60,2
0,34,0,28
0,36,0,6
0,46,0,0
0,82,0,6
0,79,0,8
0,46,0,6
0,44,84,2
0,82,122,4
0,44,0,4
0,79,106,0
0,54,120,2
0,46,114,0
0,48,111,2
0,36,120,0
0,36,126,2
0,54,0,26
0,36,0,18
0,46,0,10
0,44,27,6
0,82,0,0
0,79,0,4
0,81,98,50
0,77,100,0
0,46,78,2
0,44,0,2
0,46,0,56
0,81,0,0
0,77,0,2
0,44,54,2
0,54,127,2
0,67,103,2
0,72,111,0
0,76,96,0
0,60,86,0
0,48,91,4
0,44,0,6
0,46,114,2
0,79,100,2
0,76,108,0
0,36,116,6
0,54,0,18
0,46,0,32
0,44,45,0
0,79,0,0
0,76,0,4
0,48,0,50
0,44,0,4
0,46,82,2
0,74,106,0
0,60,0,2
0,77,111,0
0,36,100,2
0,36,0,4
0,48,0,12
0,36,0,4
0,36,0,10
0,46,0,24
0,44,78,6
0,72,0,18
0,76,0,0
0,67,0,4
0,77,0,0
0,74,0,2
0,67,117,10
0,72,126,2
0,76,113,0
0,62,103,2
0,50,100,0
0,44,0,2
0,36,107,0
0,72,123,0
0,76,127,0
0,49,117,2
0,38,123,2
0,54,123,2
0,67,100,0
0,72,113,0
0,76,100,0
0,38,108,0
0,50,113,0
0,36,0,24
0,49,0,2
0,54,0,6
0,44,27,24
0,44,0,38
0,44,67,62
0,44,0,58
0,46,114,0
0,36,91,2
0,54,124,2
0,54,0,30
0,67,0,12
0,36,0,4
0,76,0,2
0,72,0,2
0,76,0,0
0,46,0,4
0,44,58,0
0,67,0,0
0,72,0,2
0,76,0,6
0,72,0,6
0,38,0,6
0,69,91,36
0,74,100,0
0,44,0,2
0,77,91,0
0,46,80,2
0,77,120,6
0,38,89,2
0,74,113,4
0,69,108,0
0,74,117,2
0,77,106,0
0,38,0,28
0,69,0,4
0,74,0,0
0,77,0,6
0,77,0,0
0,69,0,0
0,74,0,0
0,77,0,0
0,74,0,4
0,46,0,2
0,44,69,4
0,44,0,58
0,69,98,0
0,74,113,0
0,77,103,0
0,36,120,4
0,46,113,0
0,38,113,0
0,69,117,2
0,74,123,0
0,54,118,2
0,74,120,0
0,77,126,0
0,77,108,4
0,36,0,14
0,54,0,0
0,46,0,24
0,44,60,4
0,46,72,54
0,44,0,4
0,50,0,6
0,62,0,6
0,46,0,20
0,44,66,4
0,69,0,16
0,44,0,32
0,46,113,0
0,69,106,0
0,62,82,2
0,50,89,0
0,36,126,2
0,77,0,4
0,54,122,8
0,77,0,2
0,74,0,8
0,74,0,2
0,69,0,10
0,36,0,4
0,54,0,0
0,62,0,14
0,46,0,2
0,50,0,0
0,44,33,2
0,77,0,34
0,74,0,14
0,44,0,10
0,74,93,2
0,77,100,0
0,46,79,2
0,38,0,26
0,50,0,0
0,77,0,6
0,74,0,6
0,69,0,6
0,46,0,14
0,44,60,4
0,71,108,22
0,67,100,0
0,74,91,0
0,67,111,2
0,48,85,2
0,60,82,0
0,71,120,0
0,74,106,0
0,44,0,4
0,46,113,0
0,38,0,0
0,36,123,0
0,71,126,0
0,36,126,2
0,54,121,2
0,74,120,0
0,36,117,0
0,48,113,0
0,54,0,30
0,36,0,10
0,46,0,10
0,44,72,2
0,44,0,12
0,44,58,60
0,67,0,2
0,67,73,54
0,44,0,2
0,46,113,2
0,36,89,4
0,54,122,4
0,74,0,10
0,54,0,16
0,71,0,0
0,74,0,4
0,74,0,0
0,36,0,2
0,71,0,6
0,46,0,12
0,71,0,4
0,44,63,2
0,36,0,12
0,76,127,12
0,72,120,0
0,72,108,0
0,46,83,2
0,76,108,0
0,44,0,2
0,36,89,0
0,72,100,4
0,76,91,0
0,36,0,30
0,76,0,6
0,72,0,4
0,76,0,0
0,67,0,4
0,72,0,0
0,76,0,6
0,46,0,2
0,44,83,2
0,72,0,4
0,67,113,2
0,72,123,0
0,44,0,2
0,72,120,0
0,76,127,0
0,76,111,0
0,46,113,2
0,72,108,0
0,76,103,0
0,36,113,2
0,36,96,2
0,54,125,2
0,54,0,30
0,36,0,8
0,48,0,10
0,46,0,4
0,60,0,0
0,44,27,6
0,46,77,56
0,44,0,2
0,46,0,40
0,44,79,4
0,67,0,18
0,48,98,14
0,60,93,2
0,76,0,6
0,72,0,10
0,44,0,2
0,46,113,2
0,36,108,0
0,67,91,0
0,54,122,8
0,67,0,0
0,60,0,16
0,54,0,12
0,48,0,0
0,76,0,2
0,36,0,10
0,72,0,0
0,46,0,10
0,44,69,8
0,76,0,16
0,48,0,4
0,36,0,6
0,72,0,0
0,67,0,18
0,46,80,8
0,67,73,2
0,72,100,2
0,76,86,0
0,44,0,2
0,76,0,46
0,72,0,4
0,46,0,2
0,44,76,6
0,67,0,2
0,34,100,30
0,46,119,2
0,36,0,2
0,44,0,2
0,69,126,0
0,69,98,0
0,65,96,0
0,36,106,2
0,46,111,0
0,72,96,0
0,34,122,2
0,72,127,0
0,46,89,2
0,58,104,0
0,65,113,2
0,69,120,0
0,72,113,0
0,54,121,6
0,54,0,22
0,36,0,6
0,46,0,14
0,44,26,2
0,44,0,6
0,72,0,40
0,65,0,20
0,44,66,2
0,69,0,36
0,36,100,20
0,44,0,2
0,46,111,0
0,54,124,4
0,65,103,4
0,54,0,20
0,72,0,2
0,69,0,2
0,72,0,4
0,36,0,4
0,69,0,4
0,44,57,8
0,46,0,6
0,34,0,30
0,44,0,6
0,70,115,0
0,74,103,0
0,46,78,8
0,70,115,2
0,74,123,4
0,74,106,0
0,70,119,4
0,34,96,12
0,74,0,24
0,70,0,2
0,65,0,0
0,70,0,0
0,74,0,4
0,70,0,0
0,74,0,0
0,34,0,4
0,46,0,2
0,44,68,4
0,65,0,8
0,65,77,20
0,70,119,6
0,74,103,0
0,74,126,6
0,70,127,0
0,44,0,2
0,36,108,0
0,46,111,4
0,54,122,2
0,65,117,0
0,70,125,0
0,74,113,0
0,34,122,2
0,54,0,26
0,36,0,8
0,46,0,20
0,46,72,58
0,46,0,58
0,44,66,4
0,65,0,26
0,65,82,28
0,44,0,4
0,46,111,0
0,36,91,4
0,54,123,4
0,54,0,28
0,74,0,0
0,70,0,10
0,46,0,2
0,58,0,0
0,36,0,4
0,46,0,6
0,44,33,2
0,65,0,14
0,46,73,34
0,58,76,4
0,44,0,6
0,46,78,4
0,29,122,0
0,34,0,4
0,65,106,4
0,69,108,0
0,72,103,2
0,46,0,6
0,58,0,6
0,65,0,24
0,69,0,4
0,72,0,0
0,46,0,8
0,44,59,4
0,34,0,2
0,46,0,0
0,46,68,44
0,58,104,0
0,36,106,10
0,29,0,0
0,69,123,0
0,72,113,0
0,65,123,0
0,44,0,2
0,46,111,0
