track,note,velocity,time
1,55,48,768
1,67,64,0
1,71,52,0
1,53,32,1
1,69,60,0
1,72,60,0
1,64,60,1
1,67,60,0
1,65,56,1
1,64,56,1
1,55,32,1
1,67,64,0
1,71,48,0
1,53,32,1
1,69,60,0
1,72,60,0
1,67,60,1
1,64,60,1
1,67,60,0
1,65,56,1
1,64,56,1
1,55,48,1
1,67,64,0
1,71,52,0
1,53,32,1
1,69,60,0
1,72,60,0
1,64,60,1
1,67,60,0
1,65,56,1
1,64,56,1
1,55,32,1
1,67,64,0
1,71,48,0
1,53,32,1
1,69,60,0
1,72,60,0
1,67,60,1
1,64,60,1
1,67,60,0
1,65,56,1
1,64,56,1
1,55,48,1
1,67,64,0
1,71,52,0
1,69,64,1
1,67,64,1
1,53,32,1
1,69,60,0
1,72,60,0
1,64,60,1
1,67,60,0
1,64,56,1
1,53,32,1
1,69,60,0
1,72,60,0
1,64,64,1
1,72,60,0
1,55,48,1
1,67,64,0
1,71,52,0
1,55,48,1
1,67,64,0
1,71,52,0
1,53,32,1
1,69,60,0
1,72,60,0
1,64,60,1
1,67,60,0
1,65,56,1
1,64,56,1
1,55,32,1
1,62,60,0
1,67,64,0
1,71,48,0
1,53,32,1
1,60,44,0
1,65,64,0
1,69,60,0
1,72,60,0
1,67,60,1
1,64,60,1
1,67,60,0
1,65,56,1
1,64,56,1
1,55,48,1
1,62,60,0
1,67,64,0
1,71,52,0
1,69,64,1
1,67,64,1
1,53,32,1
1,60,44,0
1,65,64,0
1,69,60,0
1,72,60,0
1,64,60,1
1,67,60,0
1,64,56,1
1,53,32,1
1,60,44,0
1,65,64,0
1,69,60,0
1,72,60,0
1,60,44,1
1,64,64,0
1,67,60,0
1,72,60,0
1,55,48,1
1,62,60,0
1,67,64,0
1,71,52,0
1,53,32,1
1,60,44,0
1,65,64,0
1,69,60,0
1,72,60,0
1,60,44,1
1,64,64,0
1,67,60,0
1,72,60,0
1,60,44,1
1,65,64,0
1,69,60,0
1,72,60,0
1,77,32,0
1,60,44,1
1,64,64,0
1,67,60,0
1,72,60,0
1,76,32,0
1,60,44,1
1,65,64,0
1,69,60,0
1,72,60,0
1,77,32,0
1,60,44,1
1,64,64,0
1,67,60,0
1,72,60,0
1,76,32,0
1,53,32,1
1,60,44,0
1,65,64,0
1,69,60,0
1,72,60,0
1,60,44,1
1,64,64,0
1,67,60,0
1,72,60,0
1,55,48,1
1,62,60,0
1,67,64,0
1,71,52,0
1,53,32,1
1,60,44,0
1,65,64,0
1,69,60,0
1,72,60,0
1,60,44,1
1,64,64,0
1,67,60,0
1,72,60,0
1,55,48,1
1,62,60,0
1,67,64,0
1,71,52,0
1,62,60,1
1,67,64,0
1,71,52,0
1,74,67,0
1,60,44,1
1,65,64,0
1,69,60,0
1,72,60,0
1,64,60,1
1,67,60,0
1,74,56,1
1,76,56,1
1,62,60,1
1,67,64,0
1,71,48,0
1,74,67,0
1,60,44,1
1,65,64,0
1,69,60,0
1,72,60,0
1,64,60,1
1,67,60,0
1,62,60,1
1,67,64,0
1,71,52,0
1,74,67,0
1,60,44,1
1,65,64,0
1,69,60,0
1,72,60,0
1,64,60,1
1,67,60,0
1,74,56,1
1,76,56,1
1,62,60,1
1,67,64,0
1,71,48,0
1,74,67,0
1,60,44,1
1,65,64,0
1,69,60,0
1,72,60,0
1,64,60,1
1,67,60,0
1,62,60,1
1,67,64,0
1,71,48,0
1,74,67,0
1,60,44,1
1,65,64,0
1,69,60,0
1,72,60,0
1,64,60,1
1,67,60,0
1,60,44,1
1,65,64,0
1,69,60,0
1,72,60,0
1,60,44,1
1,64,64,0
1,67,60,0
1,72,60,0
1,62,60,1
1,67,64,0
1,71,52,0
1,74,67,0
1,60,44,1
1,65,64,0
1,69,60,0
1,72,60,0
1,77,32,0
1,60,44,1
1,64,64,0
1,67,60,0
1,72,60,0
1,79,32,0
1,77,32,1
1,76,32,1
1,60,44,1
1,65,64,0
1,69,60,0
1,72,60,0
1,77,32,0
1,60,44,1
1,64,64,0
1,67,60,0
1,72,60,0
1,79,32,0
1,77,43,1
1,77,0,95
1,76,32,1
1,60,44,1
1,65,64,0
1,69,60,0
1,72,60,0
1,77,32,0
1,60,44,1
1,64,64,0
1,67,60,0
1,72,60,0
1,79,32,0
1,77,32,1
1,76,32,1
1,53,32,1
1,60,44,0
1,65,64,0
1,69,60,0
1,72,60,0
1,60,44,1
1,64,64,0
1,67,60,0
1,72,60,0
1,62,60,1
1,67,64,0
1,71,52,0
1,74,48,0
1,53,32,1
1,60,44,0
1,65,64,0
1,69,60,0
1,72,60,0
1,60,44,1
1,64,64,0
1,67,60,0
1,72,60,0
1,62,60,1
1,67,64,0
1,71,52,0
1,74,48,0
1,67,64,1
1,71,52,0
1,74,67,0
1,79,60,0
1,65,64,1
1,69,60,0
1,72,60,0
1,77,44,0
1,64,60,1
1,67,60,0
1,76,60,0
1,74,56,1
1,76,56,1
1,67,64,1
1,71,52,0
1,74,67,0
1,79,60,0
1,65,64,1
1,69,60,0
1,72,60,0
1,77,44,0
1,64,60,1
1,67,60,0
1,76,60,0
1,67,64,1
1,71,52,0
1,74,67,0
1,79,60,0
1,65,64,1
1,69,60,0
1,72,60,0
1,77,44,0
1,64,60,1
1,67,60,0
1,76,60,0
1,74,56,1
1,76,56,1
1,67,64,1
1,71,52,0
1,74,67,0
1,79,60,0
1,65,64,1
1,69,60,0
1,72,60,0
1,77,44,0
1,64,60,1
1,67,60,0
1,76,60,0
1,67,64,1
1,71,52,0
1,74,67,0
1,79,60,0
1,65,64,1
1,69,60,0
1,72,60,0
1,77,44,0
1,64,60,1
1,67,60,0
1,76,60,0
1,74,56,1
1,76,56,1
1,67,64,1
1,71,52,0
1,74,67,0
1,79,60,0
1,65,64,1
1,69,60,0
1,72,60,0
1,77,44,0
1,64,60,1
1,67,60,0
1,76,60,0
1,74,56,1
1,76,56,1
1,57,44,1
1,69,44,0
1,72,60,0
1,76,64,0
1,81,60,0
1,53,44,1
1,69,60,0
1,72,44,0
1,77,64,0
1,84,60,0
1,60,44,1
1,76,64,0
1,79,60,0
1,55,44,1
1,67,44,0
1,71,44,0
1,74,64,0
1,79,60,0
1,62,44,1
1,69,44,0
1,72,64,0
1,77,44,0
1,81,60,0
1,57,44,1
1,69,44,0
1,72,60,0
1,76,64,0
1,81,60,0
1,53,44,1
1,69,60,0
1,72,44,0
1,77,64,0
1,84,60,0
1,60,44,1
1,76,64,0
1,79,60,0
1,67,64,1
1,71,52,0
1,74,67,0
1,79,60,0
1,65,44,1
1,69,44,0
1,72,64,0
1,77,44,0
1,81,60,0
1,57,44,1
1,69,44,0
1,72,60,0
1,76,64,0
1,81,60,0
1,57,44,1
1,69,44,0
1,72,60,0
1,76,64,0
1,79,60,0
1,81,60,0
1,53,24,1
1,65,24,0
1,72,44,0
1,77,24,0
1,81,40,0
1,84,24,0
1,60,24,1
1,72,44,0
1,76,24,0
1,79,40,0
1,84,24,0
1,53,24,1
1,65,24,0
1,72,44,0
1,77,24,0
1,81,40,0
1,84,24,0
1,60,24,1
1,72,44,0
1,76,24,0
1,79,40,0
1,84,24,0
1,53,24,1
1,65,24,0
1,72,44,0
1,77,24,0
1,81,40,0
1,84,24,0
1,60,24,1
1,72,44,0
1,76,24,0
1,79,40,0
1,84,24,0
1,53,24,1
1,65,24,0
1,72,44,0
1,77,24,0
1,81,40,0
1,84,24,0
1,60,24,1
1,72,44,0
1,76,24,0
1,79,40,0
1,84,24,0
1,67,64,337
1,71,52,0
1,74,67,0
1,79,60,0
1,65,64,1
1,69,60,0
1,72,60,0
1,77,44,0
1,64,60,1
1,67,60,0
1,76,60,0
1,74,56,1
1,76,56,1
1,67,64,1
1,71,52,0
1,74,67,0
1,79,60,0
1,65,64,1
1,69,60,0
1,72,60,0
1,77,44,0
1,64,60,1
1,67,60,0
1,76,60,0
1,67,64,1
1,71,52,0
1,74,67,0
1,79,60,0
1,65,64,1
1,69,60,0
1,72,60,0
1,77,44,0
1,64,60,1
1,67,60,0
1,76,60,0
1,74,56,1
1,76,56,1
1,67,64,1
1,71,52,0
1,74,67,0
1,79,60,0
1,65,64,1
1,69,60,0
1,72,60,0
1,77,44,0
1,64,60,1
1,67,60,0
1,76,60,0
1,62,60,1
1,67,64,0
1,71,52,0
1,74,67,0
1,60,44,1
1,65,64,0
1,69,60,0
1,72,60,0
1,64,60,1
1,67,60,0
1,74,56,1
1,76,56,1
1,62,60,1
1,67,64,0
1,71,48,0
1,74,67,0
1,60,44,1
1,65,64,0
1,69,60,0
1,72,60,0
1,64,60,1
1,67,60,0
1,62,60,1
1,67,64,0
1,71,48,0
1,74,67,0
1,60,44,1
1,65,64,0
1,69,60,0
1,72,60,0
1,64,60,1
1,67,60,0
1,60,44,1
1,65,64,0
1,69,60,0
1,72,60,0
1,60,44,1
1,64,64,0
1,67,60,0
1,72,60,0
1,62,60,1
1,67,64,0
1,71,52,0
1,74,67,0
1,60,44,1
1,65,64,0
1,69,60,0
1,72,60,0
1,77,32,0
1,60,44,1
1,64,64,0
1,67,60,0
1,72,60,0
1,79,32,0
1,77,32,1
1,76,32,1
1,60,44,1
1,65,64,0
1,69,60,0
1,72,60,0
1,77,32,0
1,60,44,1
1,64,64,0
1,67,60,0
1,72,60,0
1,79,32,0
1,77,43,1
1,77,0,95
1,76,32,1
1,60,44,1
1,65,64,0
1,69,60,0
1,72,60,0
1,77,32,0
1,60,44,1
1,64,64,0
1,67,60,0
1,72,60,0
1,79,32,0
1,77,32,1
1,76,32,1
1,53,32,1
1,60,44,0
1,65,64,0
1,69,60,0
1,72,60,0
1,60,44,1
1,64,64,0
1,67,60,0
1,72,60,0
1,62,60,1
1,67,64,0
1,71,52,0
1,74,48,0
1,60,44,1
1,65,64,0
1,69,60,0
1,72,60,0
1,77,32,0
1,60,44,1
1,64,64,0
1,67,60,0
1,72,60,0
1,79,32,0
1,77,32,1
1,76,32,1
1,60,44,1
1,65,64,0
1,69,60,0
1,72,60,0
1,77,32,0
1,60,44,1
1,64,64,0
1,67,60,0
1,72,60,0
1,79,32,0
1,77,43,1
1,77,0,95
1,76,32,1
1,60,44,1
1,65,64,0
1,69,60,0
1,72,60,0
1,77,32,0
1,60,44,1
1,64,64,0
1,67,60,0
1,72,60,0
1,79,32,0
1,77,32,1
1,76,32,1
1,53,32,1
1,60,44,0
1,65,64,0
1,69,60,0
1,72,60,0
1,60,44,1
1,64,64,0
1,67,60,0
1,72,60,0
1,62,60,1
1,67,64,0
1,71,52,0
1,74,48,0
1,53,32,1
1,60,44,0
1,65,64,0
1,69,60,0
1,72,60,0
1,60,44,1
1,64,64,0
1,67,60,0
1,72,60,0
1,62,60,1
1,67,64,0
1,71,52,0
1,74,48,0
1,53,32,1
1,60,44,0
1,65,64,0
1,69,60,0
1,72,60,0
1,60,44,1
1,64,64,0
1,67,60,0
1,72,60,0
1,62,60,1
1,67,64,0
1,71,52,0
1,74,48,0
1,53,27,1
1,60,39,0
1,65,59,0
1,69,55,0
1,72,55,0
1,60,39,1
1,64,59,0
1,67,55,0
1,72,55,0
1,62,55,1
1,67,59,0
1,71,47,0
1,74,43,0
1,53,22,1
1,60,34,0
1,65,54,0
1,69,50,0
1,72,50,0
1,60,34,1
1,64,54,0
1,67,50,0
1,72,50,0
1,62,50,1
1,67,54,0
1,71,42,0
1,74,38,0
1,53,17,1
1,60,29,0
1,65,49,0
1,69,45,0
1,72,45,0
1,60,29,1
1,64,49,0
1,67,45,0
1,72,45,0
1,62,45,1
1,67,49,0
1,71,37,0
1,74,33,0
1,53,13,1
1,60,24,0
1,65,42,0
1,69,39,0
1,72,39,0
1,60,24,1
1,64,42,0
1,67,39,0
1,72,39,0
1,62,39,1
1,67,42,0
1,71,31,0
1,74,28,0
1,53,8,1
1,60,19,0
1,65,37,0
1,69,34,0
1,72,34,0
1,60,19,1
1,64,37,0
1,67,34,0
1,72,34,0
1,62,37,1
1,67,37,0
1,74,41,0
1,67,64,289
1,71,52,0
1,74,67,0
1,79,60,0
1,65,64,1
1,69,60,0
1,72,60,0
1,77,44,0
1,64,60,1
1,67,60,0
1,76,60,0
1,74,56,1
1,76,56,1
1,67,64,1
1,71,52,0
1,74,67,0
1,79,60,0
1,65,64,1
1,69,60,0
1,72,60,0
1,77,44,0
1,64,60,1
1,67,60,0
1,76,60,0
1,67,64,1
1,71,52,0
1,74,67,0
1,79,60,0
1,65,64,1
1,69,60,0
1,72,60,0
1,77,44,0
1,64,60,1
1,67,60,0
1,76,60,0
1,74,56,1
1,76,56,1
1,67,64,1
1,71,52,0
1,74,67,0
1,79,60,0
1,65,64,1
1,69,60,0
1,72,60,0
1,77,44,0
1,64,60,1
1,67,60,0
1,76,60,0
1,67,64,0
1,71,52,0
1,74,67,0
1,79,60,0
1,65,64,1
1,69,60,0
1,72,60,0
1,77,44,0
1,64,60,1
1,67,60,0
1,76,60,0
1,74,56,1
1,76,56,1
1,67,64,1
1,71,52,0
1,74,67,0
1,79,60,0
1,65,64,1
1,69,60,0
1,77,44,0
1,64,60,1
1,67,60,0
1,76,60,0
1,74,56,6
1,76,48,1
1,55,32,1
1,62,49,0
1,71,35,0
2,55,112,23808
2,53,112,289
2,48,112,1
2,48,100,1
2,55,112,1
2,53,112,289
2,48,112,1
2,48,100,1
2,43,79,1
2,40,127,670
2,40,127,28
2,41,127,13
2,48,113,289
2,41,95,289
2,48,82,289
2,50,78,4897
2,55,122,0
2,48,78,289
2,53,122,0
2,48,122,1
2,52,85,0
2,48,110,1
2,52,73,0
2,50,78,1
2,55,122,0
2,48,78,289
2,53,122,0
2,48,122,1
2,52,85,0
2,48,110,1
2,52,73,0
2,50,78,1
2,55,122,0
2,48,78,289
2,53,122,0
2,48,122,1
2,52,85,0
2,48,110,1
2,52,73,0
2,50,78,1
2,55,122,0
2,48,78,289
2,53,122,0
2,48,122,1
2,52,85,0
2,48,110,1
2,52,73,0
2,50,78,1
2,55,122,0
2,48,78,289
2,53,122,0
2,48,122,1
2,52,85,0
2,48,110,1
2,52,73,0
2,50,78,1
2,55,122,0
2,48,78,289
2,53,122,0
2,48,122,1
2,52,85,0
2,48,110,1
2,52,73,0
2,45,127,1
2,41,127,1
2,48,127,1
2,43,127,1
2,41,127,2
2,43,124,1
2,44,124,1
2,45,127,1
2,45,127,3
2,43,127,1
2,41,127,1
2,48,127,9
2,43,127,1
2,41,127,22
2,43,127,1
2,44,124,1
2,45,127,1
2,45,120,17
2,45,111,1
2,45,116,1
2,45,103,1
2,45,113,1
2,45,100,1
2,45,117,1
2,45,111,1
2,41,127,1
2,48,127,1
2,41,127,1
2,48,127,1
2,41,127,1
2,48,127,1
2,41,127,1
2,48,127,1
2,50,78,337
2,55,122,0
2,48,78,289
2,53,122,0
2,48,64,1
2,53,108,0
2,48,78,1
2,53,122,0
2,48,64,1
2,53,108,0
2,48,78,1
2,53,122,0
2,48,122,1
2,52,85,0
2,48,110,1
2,52,73,0
2,50,78,1
2,55,122,0
2,48,78,289
2,53,122,0
2,48,64,1
2,53,108,0
2,48,78,1
2,53,122,0
2,48,64,1
2,53,108,0
2,48,78,1
2,53,122,0
2,48,122,1
2,52,85,0
2,48,110,1
2,52,73,0
2,50,78,1
2,55,122,0
2,48,78,289
2,53,122,0
2,48,64,1
2,53,108,0
2,48,78,1
2,53,122,0
2,48,64,1
2,53,108,0
2,48,78,1
2,53,122,0
2,48,122,1
2,52,85,0
2,48,110,1
2,52,73,0
2,50,78,1
2,55,122,0
2,48,78,289
2,53,122,0
2,48,64,1
2,53,108,0
2,48,78,1
2,53,122,0
2,48,64,1
2,53,108,0
2,48,78,1
2,53,122,0
2,48,122,1
2,52,85,0
2,48,110,1
2,52,73,0
2,43,79,1
2,40,127,5569
2,40,127,28
2,41,127,13
2,48,113,289
2,41,95,289
2,48,82,289
2,41,127,3361
2,48,113,289
2,41,95,289
2,48,82,289
2,50,78,17185
