track,note,velocity,time
1,69,50,960
1,69,0,360
1,66,45,0
1,66,0,120
1,74,50,0
1,74,0,120
1,74,47,360
1,74,0,120
1,74,47,360
1,74,0,240
1,73,47,0
1,73,0,60
1,74,47,0
1,74,0,60
1,76,47,0
1,76,0,60
1,74,47,0
1,74,0,60
1,73,51,0
1,73,0,360
1,76,52,0
1,76,0,120
1,79,56,0
1,79,0,840
1,76,51,0
1,76,0,120
1,78,58,0
1,78,0,360
1,74,53,0
1,74,0,120
1,81,58,0
1,81,0,360
1,78,54,0
1,78,0,120
1,83,59,0
1,83,0,360
1,79,48,0
1,79,0,120
1,78,51,0
1,78,0,480
1,76,39,0
1,76,0,360
1,69,50,120
1,69,0,360
1,66,45,0
1,66,0,120
1,74,50,0
1,74,0,120
1,74,47,360
1,74,0,120
1,74,47,360
1,74,0,240
1,73,47,0
1,73,0,60
1,74,47,0
1,74,0,60
1,76,47,0
1,76,0,60
1,74,47,0
1,74,0,60
1,73,58,0
1,73,0,360
1,76,53,0
1,76,0,120
1,79,58,0
1,79,0,360
1,76,54,0
1,76,0,120
1,78,59,0
1,78,0,360
1,74,48,0
1,74,0,120
1,71,58,0
1,71,0,120
1,76,56,360
1,76,0,120
1,73,45,360
1,67,45,0
1,73,0,240
1,74,55,0
1,74,0,60
1,73,48,0
1,73,0,60
1,71,48,0
1,71,0,60
1,73,48,0
1,73,0,60
1,67,0,0
1,74,58,0
1,66,49,0
1,66,0,480
1,74,0,0
1,69,50,480
1,69,0,360
1,66,45,0
1,66,0,120
1,74,50,0
1,74,0,120
1,74,47,360
1,74,0,120
1,74,47,360
1,74,0,240
1,73,47,0
1,73,0,60
1,74,47,0
1,74,0,60
1,76,47,0
1,76,0,60
1,74,47,0
1,74,0,60
1,73,51,0
1,73,0,360
1,76,52,0
1,76,0,120
1,79,56,0
1,79,0,840
1,76,51,0
1,76,0,120
1,78,58,0
1,78,0,360
1,74,53,0
1,74,0,120
1,81,58,0
1,81,0,360
1,78,54,0
1,78,0,120
1,83,59,0
1,83,0,360
1,79,48,0
1,79,0,120
1,78,51,0
1,78,0,480
1,76,39,0
1,76,0,360
1,69,50,120
1,69,0,360
1,66,45,0
1,66,0,120
1,74,50,0
1,74,0,120
1,74,47,360
1,74,0,120
1,74,47,360
1,74,0,240
1,73,47,0
1,73,0,60
1,74,47,0
1,74,0,60
1,76,47,0
1,76,0,60
1,74,47,0
1,74,0,60
1,73,58,0
1,73,0,360
1,76,53,0
1,76,0,120
1,79,58,0
1,79,0,360
1,76,54,0
1,76,0,120
1,78,59,0
1,78,0,360
1,74,48,0
1,74,0,120
1,71,58,0
1,71,0,120
1,76,56,360
1,76,0,120
1,73,45,360
1,67,45,0
1,73,0,240
1,74,55,0
1,74,0,60
1,73,48,0
1,73,0,60
1,71,48,0
1,71,0,60
1,73,48,0
1,73,0,60
1,67,0,0
1,74,58,0
1,66,49,0
1,66,0,480
1,74,0,0
1,81,58,480
1,81,0,360
1,78,53,0
1,78,0,120
1,86,58,0
1,86,0,360
1,81,53,0
1,81,0,120
1,83,58,0
1,83,0,360
1,80,54,0
1,80,0,120
1,81,59,0
1,81,0,360
1,76,48,0
1,76,0,120
1,79,58,0
1,79,0,360
1,74,54,0
1,74,0,120
1,78,59,0
1,78,0,360
1,73,57,0
1,73,0,120
1,76,63,0
1,76,0,360
1,71,52,0
1,71,0,120
1,74,65,0
1,74,0,360
1,69,61,0
1,69,0,120
1,73,50,0
1,79,66,0
1,79,0,360
1,76,58,0
1,76,0,120
1,73,0,0
1,74,56,0
1,78,65,0
1,78,0,360
1,81,57,0
1,81,0,120
1,74,0,0
1,74,47,0
1,78,56,0
1,78,0,480
1,74,0,0
1,73,42,0
1,76,50,0
1,76,0,240
1,73,0,0
1,81,58,240
1,81,0,360
1,78,53,0
1,78,0,120
1,86,58,0
1,86,0,360
1,81,53,0
1,81,0,120
1,83,58,0
1,83,0,360
1,80,54,0
1,80,0,120
1,81,59,0
1,81,0,360
1,76,48,0
1,76,0,120
1,79,58,0
1,79,0,360
1,74,54,0
1,74,0,120
1,78,60,0
1,78,0,360
1,73,57,0
1,73,0,120
1,76,63,0
1,76,0,360
1,71,53,0
1,71,0,120
1,74,66,0
1,74,0,360
1,69,54,0
1,69,0,120
1,78,66,0
1,78,0,480
1,76,47,0
1,76,0,60
1,78,44,0
1,78,0,60
1,76,47,0
1,76,0,60
1,78,45,0
1,78,0,60
1,76,47,0
1,76,0,60
1,78,43,0
1,78,0,60
1,76,43,0
1,76,0,40
1,74,43,0
1,74,0,40
1,76,43,1
1,74,66,39
1,76,0,1
1,74,0,479
1,81,58,480
1,81,0,360
1,78,53,0
1,78,0,120
1,86,58,0
1,86,0,360
1,81,53,0
1,81,0,120
1,83,58,0
1,83,0,360
1,80,54,0
1,80,0,120
1,81,59,0
1,81,0,360
1,76,48,0
1,76,0,120
1,79,58,0
1,79,0,360
1,74,54,0
1,74,0,120
1,78,59,0
1,78,0,360
1,73,57,0
1,73,0,120
1,76,63,0
1,76,0,360
1,71,52,0
1,71,0,120
1,74,65,0
1,74,0,360
1,69,61,0
1,69,0,120
1,73,50,0
1,79,66,0
1,79,0,360
1,76,58,0
1,76,0,120
1,73,0,0
1,74,56,0
1,78,65,0
1,78,0,360
1,81,57,0
1,81,0,120
1,74,0,0
1,74,47,0
1,78,56,0
1,78,0,480
1,74,0,0
1,73,42,0
1,76,50,0
1,76,0,240
1,73,0,0
1,81,58,240
1,81,0,360
1,78,53,0
1,78,0,120
1,86,58,0
1,86,0,360
1,81,53,0
1,81,0,120
1,83,58,0
1,83,0,360
1,80,54,0
1,80,0,120
1,81,59,0
1,81,0,360
1,76,48,0
1,76,0,120
1,79,58,0
1,79,0,360
1,74,54,0
1,74,0,120
1,78,60,0
1,78,0,360
1,73,57,0
1,73,0,120
1,76,63,0
1,76,0,360
1,71,53,0
1,71,0,120
1,74,66,0
1,74,0,360
1,69,54,0
1,69,0,120
1,78,66,0
1,78,0,480
1,76,47,0
1,76,0,60
1,78,44,0
1,78,0,60
1,76,47,0
1,76,0,60
1,78,45,0
1,78,0,60
1,76,47,0
1,76,0,60
1,78,43,0
1,78,0,60
1,76,43,0
1,76,0,40
1,74,43,0
1,74,0,40
1,76,43,1
1,74,66,39
1,76,0,1
1,74,0,479
1,67,58,480
1,67,0,120
1,65,58,0
1,65,0,120
1,64,61,0
1,64,0,120
1,62,65,0
1,62,0,120
1,74,76,0
1,74,0,840
1,69,59,0
1,69,0,120
1,77,65,0
1,77,0,360
1,69,56,0
1,69,0,110
1,69,63,10
1,69,0,360
1,68,54,0
1,68,0,120
1,67,64,0
1,67,0,840
1,64,56,0
1,64,0,120
1,65,65,0
1,65,0,360
1,62,61,0
1,62,0,120
1,69,66,0
1,69,0,360
1,65,58,0
1,65,0,120
1,70,65,0
1,70,0,360
1,62,49,0
1,62,0,110
1,62,50,10
1,62,0,480
1,61,45,0
1,61,0,240
1,70,58,240
1,70,0,120
1,69,58,0
1,69,0,120
1,67,61,0
1,67,0,120
1,65,65,0
1,65,0,120
1,72,76,0
1,72,0,360
1,69,63,0
1,69,0,120
1,77,73,0
1,77,0,360
1,72,64,0
1,72,0,120
1,81,74,0
1,81,0,360
1,77,68,0
1,77,0,110
1,82,80,10
1,82,0,360
1,77,70,0
1,77,0,120
1,86,82,0
1,86,0,360
1,77,68,0
1,77,0,120
1,88,81,0
1,88,0,360
1,79,68,0
1,79,0,120
1,89,80,0
1,89,0,360
1,77,61,0
1,77,0,120
1,81,66,0
1,81,0,480
1,79,47,0
1,79,0,60
1,81,44,0
1,81,0,60
1,79,47,0
1,79,0,60
1,81,45,0
1,81,0,60
1,79,47,0
1,79,0,60
1,81,43,0
1,81,0,60
1,79,43,0
1,79,0,40
1,77,43,0
1,77,0,40
1,79,43,1
1,77,66,39
1,79,0,1
1,77,0,839
1,67,58,120
1,67,0,120
1,65,58,0
1,65,0,120
1,64,61,0
1,64,0,120
1,62,65,0
1,62,0,120
1,74,76,0
1,74,0,840
1,69,59,0
1,69,0,120
1,77,65,0
1,77,0,360
1,69,56,0
1,69,0,110
1,69,63,10
1,69,0,360
1,68,54,0
1,68,0,120
1,67,64,0
1,67,0,840
1,64,56,0
1,64,0,120
1,65,65,0
1,65,0,360
1,62,61,0
1,62,0,120
1,69,66,0
1,69,0,360
1,65,58,0
1,65,0,120
1,70,65,0
1,70,0,360
1,62,49,0
1,62,0,110
1,62,50,10
1,62,0,480
1,61,45,0
1,61,0,240
1,70,58,240
1,70,0,120
1,69,58,0
1,69,0,120
1,67,61,0
1,67,0,120
1,65,65,0
1,65,0,120
1,72,76,0
1,72,0,360
1,69,63,0
1,69,0,120
1,77,73,0
1,77,0,360
1,72,64,0
1,72,0,120
1,81,74,0
1,81,0,360
1,77,68,0
1,77,0,110
1,82,80,10
1,82,0,360
1,77,70,0
1,77,0,120
1,86,82,0
1,86,0,360
1,77,68,0
1,77,0,120
1,88,81,0
1,88,0,360
1,79,68,0
1,79,0,120
1,89,80,0
1,89,0,360
1,77,61,0
1,77,0,120
1,81,66,0
1,81,0,480
1,79,47,0
1,79,0,60
1,81,44,0
1,81,0,60
1,79,47,0
1,79,0,60
1,81,45,0
1,81,0,60
1,79,47,0
1,79,0,60
1,81,43,0
1,81,0,60
1,79,43,0
1,79,0,40
1,77,43,0
1,77,0,40
1,79,43,1
1,77,66,39
1,79,0,1
1,77,0,839
1,82,49,120
1,82,0,120
1,81,49,0
1,81,0,120
1,79,51,0
1,79,0,120
1,77,55,0
1,77,0,120
1,84,64,0
1,84,0,840
1,75,46,0
1,75,0,120
1,77,55,0
1,77,0,360
1,75,47,0
1,75,0,110
1,74,53,10
1,74,0,360
1,81,45,0
1,81,0,120
1,86,60,0
1,86,0,360
1,81,47,0
1,81,0,120
1,82,58,0
1,82,0,360
1,79,50,0
1,79,0,120
1,84,60,0
1,84,0,360
1,79,51,0
1,79,0,120
1,81,56,0
1,81,0,360
1,77,49,0
1,77,0,120
1,82,55,0
1,82,0,240
1,79,48,0
1,79,0,120
1,76,41,0
1,76,0,110
1,74,42,10
1,74,0,480
1,73,38,0
1,73,0,240
1,69,47,240
1,69,0,120
1,67,49,0
1,67,0,120
1,65,50,0
1,65,0,120
1,64,52,0
1,64,0,120
1,79,64,0
1,79,0,840
1,76,64,0
1,76,0,120
1,85,74,0
1,85,0,360
1,82,68,0
1,82,0,110
1,86,80,10
1,86,0,360
1,81,70,0
1,81,0,120
1,88,82,0
1,88,0,360
1,81,68,0
1,81,0,120
1,89,81,0
1,89,0,360
1,86,68,0
1,86,0,110
1,84,80,10
1,84,0,120
1,82,61,0
1,82,0,120
1,81,68,0
1,81,0,120
1,79,61,0
1,79,0,120
1,77,66,0
1,77,0,480
1,76,47,0
1,76,0,60
1,77,44,0
1,77,0,60
1,76,47,0
1,76,0,60
1,77,45,0
1,77,0,60
1,76,47,0
1,76,0,60
1,77,43,0
1,77,0,60
1,76,43,0
1,76,0,40
1,74,43,0
1,74,0,40
1,76,43,1
1,74,66,39
1,76,0,1
1,74,0,839
1,82,49,120
1,82,0,120
1,81,49,0
1,81,0,120
1,79,51,0
1,79,0,120
1,77,55,0
1,77,0,120
1,84,64,0
1,84,0,840
1,75,46,0
1,75,0,120
1,77,55,0
1,77,0,360
1,75,47,0
1,75,0,110
1,74,53,10
1,74,0,360
1,81,45,0
1,81,0,120
1,86,60,0
1,86,0,360
1,81,47,0
1,81,0,120
1,82,58,0
1,82,0,360
1,79,50,0
1,79,0,120
1,84,60,0
1,84,0,360
1,79,51,0
1,79,0,120
1,81,56,0
1,81,0,360
1,77,49,0
1,77,0,120
1,82,55,0
1,82,0,240
1,79,48,0
1,79,0,120
1,76,41,0
1,76,0,110
1,74,42,10
1,74,0,480
1,73,38,0
1,73,0,240
1,69,47,240
1,69,0,120
1,67,49,0
1,67,0,120
1,65,50,0
1,65,0,120
1,64,52,0
1,64,0,120
1,79,64,0
1,79,0,840
1,76,64,0
1,76,0,120
1,85,74,0
1,85,0,360
1,82,68,0
1,82,0,110
1,86,80,10
1,86,0,360
1,81,70,0
1,81,0,120
1,88,82,0
1,88,0,360
1,81,68,0
1,81,0,120
1,89,81,0
1,89,0,360
1,86,68,0
1,86,0,110
1,84,80,10
1,84,0,120
1,82,61,0
1,82,0,120
1,81,68,0
1,81,0,120
1,79,61,0
1,79,0,120
1,77,66,0
1,77,0,480
1,76,47,0
1,76,0,60
1,77,44,0
1,77,0,60
1,76,47,0
1,76,0,60
1,77,45,0
1,77,0,60
1,76,47,0
1,76,0,60
1,77,43,0
1,77,0,60
1,76,43,0
1,76,0,40
1,74,43,0
1,74,0,40
1,76,43,1
1,74,66,39
1,76,0,1
1,74,0,839
1,67,50,120
1,67,0,120
1,66,45,0
1,66,0,120
1,64,45,0
1,64,0,120
1,62,45,0
1,62,0,120
1,74,50,0
1,74,0,60
1,74,50,180
1,74,0,60
1,74,47,420
1,74,0,120
1,76,53,120
1,76,0,120
1,74,48,0
1,74,0,120
1,73,48,0
1,73,0,120
1,74,48,0
1,74,0,120
1,73,51,0
1,73,0,60
1,79,52,180
1,79,0,60
1,79,56,420
1,79,0,240
1,81,51,0
1,81,0,120
1,79,51,0
1,79,0,120
1,78,51,0
1,78,0,120
1,76,51,0
1,76,0,120
1,79,58,0
1,79,0,120
1,78,53,0
1,78,0,120
1,76,53,0
1,76,0,120
1,74,49,0
1,74,0,120
1,83,62,0
1,83,0,120
1,81,56,0
1,81,0,120
1,79,56,0
1,79,0,120
1,78,54,0
1,78,0,120
1,83,65,0
1,83,0,120
1,85,49,0
1,85,0,120
1,86,46,0
1,86,0,120
1,79,43,0
1,79,0,120
1,74,51,0
1,78,51,0
1,78,0,480
1,74,0,0
1,73,39,0
1,76,39,0
1,76,0,360
1,73,0,0
1,67,50,120
1,67,0,120
1,66,45,0
1,66,0,120
1,64,45,0
1,64,0,120
1,62,45,0
1,62,0,120
1,74,50,0
1,74,0,60
1,74,50,180
1,74,0,60
1,74,47,420
1,74,0,120
1,76,49,120
1,76,0,120
1,74,43,0
1,74,0,120
1,73,43,0
1,73,0,120
1,74,43,0
1,74,0,120
1,73,51,0
1,73,0,60
1,79,52,180
1,79,0,60
1,81,56,180
1,81,0,120
1,79,51,0
1,79,0,120
1,78,51,0
1,78,0,120
1,76,48,0
1,76,0,120
1,79,58,0
1,79,0,120
1,78,54,0
1,78,0,120
1,76,53,0
1,76,0,120
1,74,53,0
1,74,0,120
1,83,69,0
1,83,0,120
1,85,56,0
1,85,0,120
1,86,53,0
1,86,0,120
1,79,56,0
1,79,0,120
1,78,61,0
1,78,0,120
1,79,51,0
1,79,0,120
1,81,51,0
1,81,0,120
1,74,51,0
1,74,0,120
1,76,59,0
1,76,0,120
1,78,48,0
1,78,0,120
1,79,53,0
1,79,0,120
1,73,48,0
1,73,0,120
1,74,58,0
1,74,0,480
1,67,50,480
1,67,0,120
1,66,45,0
1,66,0,120
1,64,45,0
1,64,0,120
1,62,45,0
1,62,0,120
1,74,50,0
1,74,0,60
1,74,50,180
1,74,0,60
1,74,47,420
1,74,0,120
1,76,53,120
1,76,0,120
1,74,48,0
1,74,0,120
1,73,48,0
1,73,0,120
1,74,48,0
1,74,0,120
1,73,51,0
1,73,0,60
1,79,52,180
1,79,0,60
1,79,56,420
1,79,0,240
1,81,51,0
1,81,0,120
1,79,51,0
1,79,0,120
1,78,51,0
1,78,0,120
1,76,51,0
1,76,0,120
1,79,58,0
1,79,0,120
1,78,53,0
1,78,0,120
1,76,53,0
1,76,0,120
1,74,49,0
1,74,0,120
1,83,59,0
1,83,0,120
1,81,54,0
1,81,0,120
1,79,54,0
1,79,0,120
1,78,61,0
1,78,0,120
1,83,68,0
1,83,0,120
1,85,60,0
1,85,0,120
1,86,54,0
1,86,0,120
1,79,43,0
1,79,0,120
1,74,51,0
1,78,51,0
1,78,0,480
1,74,0,0
