track,note,velocity,time
1,47,75,1536
1,59,75,0
1,54,75,0
1,54,0,672
1,59,0,0
1,47,0,0
1,47,75,96
1,59,75,0
1,54,75,0
1,54,0,96
1,59,0,0
1,47,0,0
1,47,75,96
1,59,75,0
1,54,75,0
1,54,0,96
1,59,0,0
1,47,0,0
1,47,75,96
1,59,75,0
1,54,75,0
1,54,0,96
1,59,0,0
1,47,0,0
1,54,75,96
1,61,75,0
1,47,75,0
1,59,75,0
1,59,0,288
1,54,0,0
1,61,0,0
1,47,0,0
1,47,75,96
1,59,75,0
1,63,75,0
1,54,75,0
1,54,0,2016
1,47,0,0
1,59,0,0
1,63,0,0
1,47,75,96
1,59,75,0
1,54,75,0
1,54,0,96
1,59,0,0
1,47,0,0
1,47,75,96
1,59,75,0
1,54,75,0
1,54,0,96
1,59,0,0
1,47,0,0
1,47,75,96
1,59,75,0
1,54,75,0
1,54,0,96
1,59,0,0
1,47,0,0
1,61,75,96
1,54,75,0
1,47,75,0
1,47,0,480
1,54,0,0
1,61,0,0
1,63,75,96
1,54,75,0
1,47,75,0
1,47,0,96
1,54,0,0
1,63,0,0
1,61,75,96
1,54,75,0
1,47,75,0
1,47,0,480
1,54,0,0
1,61,0,0
1,59,75,96
1,54,75,0
1,47,75,0
1,47,0,96
1,54,0,0
1,59,0,0
1,47,75,96
1,59,75,0
1,54,75,0
1,54,0,672
1,59,0,0
1,47,0,0
1,59,75,288
1,54,75,0
1,47,75,0
1,47,0,96
1,54,0,0
1,59,0,0
1,47,75,96
1,59,75,0
1,54,75,0
1,54,0,96
1,59,0,0
1,47,0,0
1,47,75,96
1,59,75,0
1,54,75,0
1,54,0,96
1,59,0,0
1,47,0,0
1,54,75,96
1,61,75,0
1,47,75,0
1,59,75,0
1,59,0,288
1,54,0,0
1,61,0,0
1,47,0,0
1,47,75,96
1,59,75,0
1,63,75,0
1,54,75,0
1,54,0,2016
1,47,0,0
1,59,0,0
1,63,0,0
1,47,75,96
1,59,75,0
1,54,75,0
1,54,0,96
1,59,0,0
1,47,0,0
1,47,75,96
1,59,75,0
1,54,75,0
1,54,0,96
1,59,0,0
1,47,0,0
1,47,75,96
1,59,75,0
1,54,75,0
1,54,0,96
1,59,0,0
1,47,0,0
1,61,75,96
1,54,75,0
1,47,75,0
1,47,0,480
1,54,0,0
1,61,0,0
1,63,75,96
1,54,75,0
1,47,75,0
1,47,0,96
1,54,0,0
1,63,0,0
1,61,75,96
1,54,75,0
1,47,75,0
1,47,0,480
1,54,0,0
1,61,0,0
1,59,75,96
1,54,75,0
1,47,75,0
1,47,0,96
1,54,0,0
1,59,0,0
1,47,75,96
1,59,75,0
1,54,75,0
1,54,0,672
1,59,0,0
1,47,0,0
1,47,75,288
1,59,75,0
1,54,75,0
1,54,0,96
1,59,0,0
1,47,0,0
1,47,75,96
1,59,75,0
1,54,75,0
1,54,0,96
1,59,0,0
1,47,0,0
1,47,75,96
1,59,75,0
1,54,75,0
1,54,0,96
1,59,0,0
1,47,0,0
1,54,75,96
1,61,75,0
1,47,75,0
1,59,75,0
1,59,0,288
1,54,0,0
1,61,0,0
1,47,0,0
1,47,75,96
1,59,75,0
1,63,75,0
1,54,75,0
1,54,0,2016
1,47,0,0
1,59,0,0
1,63,0,0
1,47,75,96
1,59,75,0
1,54,75,0
1,54,0,96
1,59,0,0
1,47,0,0
1,47,75,96
1,59,75,0
1,54,75,0
1,54,0,96
1,59,0,0
1,47,0,0
1,47,75,96
1,59,75,0
1,54,75,0
1,54,0,96
1,59,0,0
1,47,0,0
1,61,75,96
1,54,75,0
1,47,75,0
1,47,0,480
1,54,0,0
1,61,0,0
1,63,75,96
1,54,75,0
1,47,75,0
1,47,0,96
1,54,0,0
1,63,0,0
1,61,75,96
1,54,75,0
1,47,75,0
1,47,0,480
1,54,0,0
1,61,0,0
1,59,75,96
1,54,75,0
1,47,75,0
1,47,0,96
1,54,0,0
1,59,0,0
1,47,75,96
1,59,75,0
1,54,75,0
1,54,0,672
1,59,0,0
1,47,0,0
1,59,75,288
1,54,75,0
1,47,75,0
1,47,0,96
1,54,0,0
1,59,0,0
1,47,75,96
1,59,75,0
1,54,75,0
1,54,0,96
1,59,0,0
1,47,0,0
1,47,75,96
1,59,75,0
1,54,75,0
1,54,0,96
1,59,0,0
1,47,0,0
1,54,75,96
1,61,75,0
1,47,75,0
1,59,75,0
1,59,0,288
1,54,0,0
1,61,0,0
1,47,0,0
1,47,75,96
1,59,75,0
1,63,75,0
1,54,75,0
1,54,0,2016
1,47,0,0
1,59,0,0
1,63,0,0
1,47,75,96
1,59,75,0
1,54,75,0
1,54,0,96
1,59,0,0
1,47,0,0
1,47,75,96
1,59,75,0
1,54,75,0
1,54,0,96
1,59,0,0
1,47,0,0
1,47,75,96
1,59,75,0
1,54,75,0
1,54,0,96
1,59,0,0
1,47,0,0
1,61,75,96
1,54,75,0
1,47,75,0
1,47,0,480
1,54,0,0
1,61,0,0
1,63,75,96
1,54,75,0
1,47,75,0
1,47,0,96
1,54,0,0
1,63,0,0
1,61,75,96
1,54,75,0
1,47,75,0
1,47,0,480
1,54,0,0
1,61,0,0
1,59,75,96
1,54,75,0
1,47,75,0
1,47,0,96
1,54,0,0
1,59,0,0
1,64,75,96
1,68,75,0
1,59,75,0
1,59,0,1440
1,68,0,0
1,64,0,0
1,66,75,96
1,59,75,0
1,63,75,0
1,63,0,288
1,59,0,0
1,66,0,0
1,68,75,96
1,61,75,0
1,64,75,0
1,64,0,1024
1,61,0,0
1,68,0,0
1,52,75,128
1,68,75,0
1,64,75,0
1,59,75,0
1,59,0,1440
1,52,0,0
1,68,0,0
1,64,0,0
1,66,75,96
1,63,75,0
1,59,75,0
1,59,0,288
1,63,0,0
1,66,0,0
1,68,75,96
1,64,75,0
1,61,75,0
1,61,0,896
1,64,0,0
1,68,0,0
1,59,75,256
1,54,75,0
1,47,75,0
1,47,0,96
1,54,0,0
1,59,0,0
1,47,75,96
1,59,75,0
1,54,75,0
1,54,0,672
1,59,0,0
1,47,0,0
1,47,75,96
1,59,75,0
1,54,75,0
1,54,0,96
1,59,0,0
1,47,0,0
1,47,75,96
1,59,75,0
1,54,75,0
1,54,0,96
1,59,0,0
1,47,0,0
1,47,75,96
1,59,75,0
1,54,75,0
1,54,0,96
1,59,0,0
1,47,0,0
1,59,75,96
1,61,75,0
1,56,75,0
1,56,0,288
1,61,0,0
1,59,0,0
1,56,75,96
1,59,75,0
1,63,75,0
1,63,0,2016
1,59,0,0
1,56,0,0
1,47,75,96
1,59,75,0
1,54,75,0
1,54,0,96
1,59,0,0
1,47,0,0
1,47,75,96
1,59,75,0
1,54,75,0
1,54,0,96
1,59,0,0
1,47,0,0
1,47,75,96
1,59,75,0
1,54,75,0
1,54,0,96
1,59,0,0
1,47,0,0
1,61,75,96
1,56,75,0
1,51,75,0
1,51,0,480
1,56,0,0
1,61,0,0
1,63,75,96
1,56,75,0
1,51,75,0
1,51,0,96
1,56,0,0
1,63,0,0
1,61,75,96
1,56,75,0
1,51,75,0
1,51,0,480
1,56,0,0
1,61,0,0
1,59,75,96
1,56,75,0
1,51,75,0
1,51,0,96
1,56,0,0
1,59,0,0
1,54,75,96
1,58,75,0
1,61,75,0
1,61,0,672
1,58,0,0
1,54,0,0
1,61,75,96
1,54,75,0
1,58,75,0
1,58,0,96
1,54,0,0
1,61,0,0
1,54,75,96
1,61,75,0
1,58,75,0
1,58,0,480
1,61,0,0
1,54,0,0
1,54,75,96
1,59,75,0
1,63,75,0
1,63,0,192
1,59,0,0
1,54,0,0
1,59,75,192
1,54,75,0
1,63,75,0
1,63,0,192
1,54,0,0
1,59,0,0
1,61,75,192
1,54,75,0
1,58,75,0
1,58,0,96
1,54,0,0
1,61,0,0
1,58,75,96
1,61,75,0
1,54,75,0
1,54,0,576
1,61,0,0
1,58,0,0
1,61,75,192
1,54,75,0
1,58,75,0
1,58,0,480
1,54,0,0
1,61,0,0
1,54,75,96
1,61,75,0
1,58,75,0
1,58,0,96
1,61,0,0
1,54,0,0
1,54,75,96
1,58,75,0
1,61,75,0
1,61,0,480
1,58,0,0
1,54,0,0
1,63,75,96
1,59,75,0
1,54,75,0
1,54,0,192
1,59,0,0
1,63,0,0
1,59,75,192
1,54,75,0
1,63,75,0
1,63,0,192
1,54,0,0
1,59,0,96
1,58,75,96
1,61,75,0
1,54,75,0
1,54,0,96
1,61,0,0
1,58,0,0
1,58,75,96
1,54,75,0
1,61,75,0
1,61,0,576
1,54,0,0
1,58,0,0
1,56,75,192
1,59,75,0
1,52,75,0
1,52,0,672
1,59,0,0
1,56,0,0
1,59,75,96
1,56,75,0
1,52,75,0
1,52,0,96
1,56,0,0
1,59,0,0
1,59,75,96
1,56,75,0
1,52,75,0
1,52,0,96
1,56,0,0
1,59,0,0
1,59,75,96
1,52,75,0
1,56,75,0
1,56,0,96
1,52,0,0
1,59,0,0
1,56,75,96
1,52,75,0
1,61,75,0
1,61,0,288
1,52,0,0
1,56,0,0
1,56,75,96
1,52,75,0
1,63,75,0
1,63,0,1728
1,52,0,0
1,56,0,0
1,56,75,384
1,59,75,0
1,52,75,0
1,52,0,96
1,59,0,0
1,56,0,0
1,59,75,96
1,56,75,0
1,52,75,0
1,52,0,96
1,56,0,0
1,59,0,0
1,59,75,96
1,56,75,0
1,52,75,0
1,52,0,96
1,56,0,0
1,59,0,0
1,52,75,96
1,56,75,0
1,61,75,0
1,61,0,480
1,56,0,0
1,52,0,0
1,56,75,96
1,63,75,0
1,63,0,96
1,56,0,0
1,56,75,96
1,61,75,0
1,52,75,0
1,52,0,480
1,61,0,0
1,56,0,0
1,56,75,96
1,59,75,0
1,52,75,0
1,52,0,96
1,59,0,0
1,56,0,0
1,47,75,96
1,59,75,0
1,54,75,0
1,54,0,672
1,59,0,0
1,47,0,0
1,47,75,288
1,59,75,0
1,54,75,0
1,54,0,96
1,59,0,0
1,47,0,0
1,47,75,96
1,59,75,0
1,54,75,0
1,54,0,96
1,59,0,0
1,47,0,0
1,47,75,96
1,59,75,0
1,54,75,0
1,54,0,96
1,59,0,0
1,47,0,0
1,54,75,96
1,61,75,0
1,47,75,0
1,59,75,0
1,59,0,288
1,54,0,0
1,61,0,0
1,47,0,0
1,47,75,96
1,59,75,0
1,63,75,0
1,54,75,0
1,54,0,2016
1,47,0,0
1,59,0,0
1,63,0,0
1,47,75,96
1,59,75,0
1,54,75,0
1,54,0,96
1,59,0,0
1,47,0,0
1,47,75,96
1,59,75,0
1,54,75,0
1,54,0,96
1,59,0,0
1,47,0,0
1,47,75,96
1,59,75,0
1,54,75,0
1,54,0,96
1,59,0,0
1,47,0,0
1,61,75,96
1,54,75,0
1,47,75,0
1,47,0,480
1,54,0,0
1,61,0,0
1,63,75,96
1,54,75,0
1,47,75,0
1,47,0,96
1,54,0,0
1,63,0,0
1,61,75,96
1,54,75,0
1,47,75,0
1,47,0,480
1,54,0,0
1,61,0,0
1,59,75,96
1,54,75,0
1,47,75,0
1,47,0,96
1,54,0,0
1,59,0,0
1,47,75,96
1,59,75,0
1,54,75,0
1,54,0,672
1,59,0,0
1,47,0,0
1,59,75,288
1,54,75,0
1,47,75,0
1,47,0,96
1,54,0,0
1,59,0,0
1,47,75,96
1,59,75,0
1,54,75,0
1,54,0,96
1,59,0,0
1,47,0,0
1,47,75,96
1,59,75,0
1,54,75,0
1,54,0,96
1,59,0,0
1,47,0,0
1,54,75,96
1,61,75,0
1,47,75,0
1,59,75,0
1,59,0,288
1,54,0,0
1,61,0,0
1,47,0,0
1,47,75,96
1,59,75,0
1,63,75,0
1,54,75,0
1,54,0,2016
1,47,0,0
1,59,0,0
1,63,0,0
1,47,75,96
1,59,75,0
1,54,75,0
1,54,0,96
1,59,0,0
1,47,0,0
1,47,75,96
1,59,75,0
1,54,75,0
1,54,0,96
1,59,0,0
1,47,0,0
1,47,75,96
1,59,75,0
1,54,75,0
1,54,0,96
1,59,0,0
1,47,0,0
1,61,75,96
1,54,75,0
1,47,75,0
1,47,0,480
1,54,0,0
1,61,0,0
1,63,75,96
1,54,75,0
1,47,75,0
1,47,0,96
1,54,0,0
1,63,0,0
1,61,75,96
1,54,75,0
1,47,75,0
1,47,0,480
1,54,0,0
1,61,0,0
1,59,75,96
1,54,75,0
1,47,75,0
1,47,0,96
1,54,0,0
1,59,0,0
1,47,75,96
1,59,75,0
1,54,75,0
1,54,0,672
1,59,0,0
1,47,0,0
1,47,75,288
1,59,75,0
1,54,75,0
1,54,0,96
1,59,0,0
1,47,0,0
1,47,75,96
1,59,75,0
1,54,75,0
1,54,0,96
1,59,0,0
1,47,0,0
1,47,75,96
1,59,75,0
1,54,75,0
1,54,0,96
1,59,0,0
1,47,0,0
1,54,75,96
1,61,75,0
1,47,75,0
1,59,75,0
1,59,0,288
1,54,0,0
1,61,0,0
1,47,0,0
1,47,75,96
1,59,75,0
1,63,75,0
1,54,75,0
1,54,0,2016
1,47,0,0
1,59,0,0
1,63,0,0
1,47,75,96
1,59,75,0
1,54,75,0
1,54,0,96
1,59,0,0
1,47,0,0
1,47,75,96
1,59,75,0
1,54,75,0
1,54,0,96
1,59,0,0
1,47,0,0
1,47,75,96
1,59,75,0
1,54,75,0
1,54,0,96
1,59,0,0
1,47,0,0
1,61,75,96
1,54,75,0
1,47,75,0
1,47,0,480
1,54,0,0
1,61,0,0
1,63,75,96
1,54,75,0
1,47,75,0
1,47,0,96
1,54,0,0
1,63,0,0
1,61,75,96
1,54,75,0
1,47,75,0
1,47,0,480
1,54,0,0
1,61,0,0
1,59,75,96
1,54,75,0
1,47,75,0
1,47,0,96
1,54,0,0
1,59,0,0
1,52,75,96
1,68,75,0
1,64,75,0
1,59,75,0
1,59,0,1248
1,52,0,0
1,68,0,0
1,64,0,0
1,66,75,288
1,59,75,0
1,63,75,0
1,63,0,288
1,59,0,0
1,66,0,0
1,68,75,96
1,61,75,0
1,64,75,0
1,64,0,1024
1,61,0,0
1,68,0,0
1,52,75,128
1,68,75,0
1,64,75,0
1,59,75,0
1,59,0,1440
1,52,0,0
1,68,0,0
1,64,0,0
1,66,75,96
1,63,75,0
1,59,75,0
1,59,0,288
1,63,0,0
1,66,0,0
1,68,75,96
1,64,75,0
1,61,75,0
1,61,0,896
1,64,0,0
1,68,0,0
1,59,75,256
1,54,75,0
1,47,75,0
1,47,0,96
1,54,0,0
1,59,0,0
1,47,75,96
1,59,75,0
1,54,75,0
1,54,0,672
1,59,0,0
1,47,0,0
1,47,75,96
1,59,75,0
1,54,75,0
1,54,0,96
1,59,0,0
1,47,0,0
1,47,75,96
1,59,75,0
1,54,75,0
1,54,0,96
1,59,0,0
1,47,0,0
1,47,75,96
1,59,75,0
1,54,75,0
1,54,0,96
1,59,0,0
1,47,0,0
1,59,75,96
1,61,75,0
1,56,75,0
1,56,0,288
1,61,0,0
1,59,0,0
1,56,75,96
1,59,75,0
1,63,75,0
1,56,0,1152
1,63,0,96
1,59,0,0
1,47,75,96
1,59,75,0
1,54,75,0
1,54,0,672
1,59,0,0
1,47,0,0
1,47,75,96
1,59,75,0
1,54,75,0
1,54,0,96
1,59,0,0
1,47,0,0
1,47,75,96
1,59,75,0
1,54,75,0
1,54,0,96
1,59,0,0
1,47,0,0
1,47,75,96
1,59,75,0
1,54,75,0
1,54,0,96
1,59,0,0
1,47,0,0
1,61,75,96
1,56,75,0
1,51,75,0
1,51,0,480
1,56,0,0
1,61,0,0
1,63,75,96
1,56,75,0
1,51,75,0
1,51,0,96
1,56,0,0
1,63,0,0
1,61,75,96
1,56,75,0
1,51,75,0
1,51,0,480
1,56,0,0
1,61,0,0
1,59,75,96
1,56,75,0
1,51,75,0
1,51,0,96
1,56,0,0
1,59,0,0
1,54,75,96
1,58,75,0
1,61,75,0
1,61,0,672
1,58,0,0
1,54,0,0
1,61,75,96
1,54,75,0
1,58,75,0
1,58,0,96
1,54,0,0
1,61,0,0
1,54,75,96
1,61,75,0
