track,note,velocity,time
1,68,120,4320
1,68,0,35
1,68,120,25
1,68,0,85
1,68,120,35
1,68,0,45
1,68,120,15
1,68,0,150
1,64,120,150
1,64,0,15
1,64,120,15
1,64,0,20
1,64,120,10
1,64,0,45
1,66,120,15
1,66,0,45
1,68,120,15
1,68,0,95
1,66,120,25
1,66,0,40
1,66,120,20
1,66,0,20
1,66,120,10
1,66,0,20
1,68,120,10
1,68,0,40
1,68,120,20
1,68,0,90
1,68,120,30
1,68,0,45
1,68,120,15
1,68,0,45
1,64,120,15
1,64,0,45
1,68,120,75
1,68,0,90
1,68,120,30
1,68,0,45
1,68,120,15
1,68,0,45
1,68,120,15
1,68,0,45
1,68,120,15
1,68,0,100
1,66,120,20
1,66,0,45
1,66,120,45
1,66,0,30
1,68,120,0
1,68,0,45
1,68,120,15
1,68,0,90
1,68,120,30
1,68,0,45
1,68,120,15
1,68,0,95
1,68,120,25
1,68,0,95
1,68,120,85
1,68,0,45
1,68,120,15
1,68,0,45
1,68,120,15
1,68,0,45
1,68,120,15
1,68,0,95
1,66,120,25
1,66,0,95
1,66,120,25
1,66,0,60
1,64,120,0
1,64,0,140
1,76,120,100
1,76,0,45
1,76,120,15
1,76,0,45
1,76,120,15
1,76,0,45
1,76,120,15
1,76,0,45
1,76,120,15
1,76,0,45
1,75,120,15
1,75,0,45
1,75,120,15
1,75,0,45
1,73,120,15
1,73,0,95
1,75,120,25
1,75,0,45
1,76,120,15
1,76,0,90
1,76,120,30
1,76,0,45
1,76,120,15
1,76,0,20
1,76,120,10
1,76,0,20
1,76,120,10
1,76,0,140
1,76,120,100
1,76,0,20
1,76,120,10
1,76,0,20
1,76,120,10
1,76,0,45
1,76,120,15
1,76,0,45
1,76,120,15
1,76,0,45
1,76,120,15
1,76,0,45
1,73,120,15
1,73,0,95
1,73,120,25
1,73,0,20
1,73,120,10
1,73,0,20
1,73,120,10
1,73,0,90
1,71,120,30
1,71,0,45
1,71,120,15
1,71,0,45
1,68,120,15
1,68,0,45
1,73,120,15
1,73,0,95
1,73,120,25
1,73,0,45
1,73,120,15
1,73,0,90
1,71,120,30
1,71,0,45
1,71,120,15
1,71,0,45
1,69,120,15
1,69,0,45
1,73,120,15
1,73,0,95
1,73,120,145
1,73,0,20
1,71,120,10
1,71,0,20
1,71,120,10
1,71,0,45
1,71,120,15
1,71,0,45
1,71,120,15
1,71,0,45
1,71,120,15
1,71,0,45
1,71,120,15
1,71,0,45
1,71,120,15
1,71,0,45
1,71,120,15
1,71,0,45
1,71,120,15
1,71,0,45
1,71,120,15
1,71,0,45
1,71,120,15
1,71,0,45
1,71,120,15
1,71,0,45
1,71,120,15
1,71,0,95
1,71,120,25
1,71,0,95
1,71,120,25
1,71,0,60
1,66,120,0
1,66,0,10
1,68,120,5
1,68,0,95
1,76,120,130
1,76,0,45
1,76,120,15
1,76,0,45
1,76,120,15
1,76,0,45
1,76,120,15
1,76,0,45
1,76,120,15
1,76,0,45
1,75,120,15
1,75,0,45
1,75,120,15
1,75,0,45
1,73,120,15
1,73,0,45
1,73,120,15
1,73,0,45
1,76,120,75
1,76,0,90
1,76,120,30
1,76,0,45
1,76,120,15
1,76,0,45
1,76,120,15
1,76,0,45
1,76,120,15
1,76,0,95
1,76,120,85
1,76,0,90
1,76,120,30
1,76,0,45
1,76,120,15
1,76,0,45
1,76,120,15
1,76,0,45
1,76,120,15
1,76,0,95
1,76,120,85
1,76,0,45
1,78,120,15
1,78,0,45
1,78,120,15
1,78,0,45
1,78,120,15
1,78,0,45
1,78,120,15
1,78,0,45
1,78,120,15
1,78,0,95
1,78,120,85
1,78,0,20
1,78,120,10
1,78,0,20
1,78,120,10
1,78,0,95
1,78,120,25
1,78,0,95
1,78,120,25
1,78,0,95
1,76,120,85
1,76,0,45
1,76,120,15
1,76,0,45
1,76,120,15
1,76,0,45
1,76,120,15
1,76,0,95
1,76,120,25
1,76,0,45
1,76,120,15
1,76,0,45
1,76,120,15
1,76,0,45
1,76,120,15
1,76,0,45
1,76,120,15
1,76,0,45
1,73,120,15
1,73,0,45
1,73,120,75
1,73,0,45
1,73,120,15
1,73,0,95
1,76,120,25
1,76,0,95
1,78,120,25
1,78,0,140
1,78,120,220
1,78,0,95
1,78,120,25
1,78,0,45
1,78,120,15
1,78,0,45
1,78,120,15
1,78,0,95
1,76,120,25
1,76,0,95
1,78,120,25
1,78,0,95
1,76,120,25
1,76,0,95
1,76,120,25
1,76,0,140
1,76,120,40
1,76,0,45
1,76,120,15
1,76,0,45
1,76,120,15
1,76,0,45
1,76,120,15
1,76,0,45
1,76,120,15
1,76,0,45
1,76,120,15
1,76,0,45
1,75,120,15
1,75,0,45
1,73,120,15
1,73,0,95
1,71,120,25
1,71,0,45
1,71,120,15
1,71,0,45
1,73,120,15
1,73,0,45
1,71,120,15
1,71,0,45
1,71,120,15
1,71,0,95
1,71,120,25
1,71,0,95
1,68,120,25
1,68,0,45
1,68,120,15
1,68,0,45
1,69,120,15
1,69,0,45
1,69,120,15
1,69,0,45
1,69,120,15
1,69,0,45
1,68,120,15
1,68,0,45
1,66,120,15
1,66,0,60
1,64,120,0
1,64,0,45
1,76,120,75
1,76,0,45
1,76,120,15
1,76,0,20
1,76,120,10
1,76,0,20
1,76,120,10
1,76,0,20
1,76,120,10
1,76,0,20
1,76,120,10
1,76,0,45
1,76,120,15
1,76,0,45
1,76,120,15
1,76,0,95
1,76,120,25
1,76,0,45
1,76,120,15
1,76,0,45
1,76,120,15
1,76,0,70
1,76,120,20
1,76,0,70
1,75,120,20
1,75,0,45
1,73,120,15
1,73,0,70
1,71,120,20
1,71,0,70
1,68,120,20
1,68,0,45
1,71,120,15
1,71,0,380
1,71,120,580
1,71,0,45
1,71,120,15
1,71,0,45
1,71,120,15
1,71,0,45
1,71,120,15
1,71,0,45
1,71,120,15
1,71,0,190
1,73,120,50
1,73,0,45
1,73,120,15
1,73,0,45
1,73,120,15
1,73,0,45
1,71,120,15
1,71,0,45
1,71,120,15
1,71,0,95
1,69,120,25
1,69,0,95
1,68,120,25
1,68,0,45
1,68,120,15
1,68,0,45
1,68,120,15
1,68,0,45
1,68,120,15
1,68,0,45
1,68,120,15
1,68,0,95
1,69,120,85
1,69,0,95
1,69,120,25
1,69,0,45
1,69,120,15
1,69,0,45
1,64,120,15
1,64,0,45
1,64,120,15
1,64,0,95
1,66,120,25
1,66,0,95
1,68,120,25
1,68,0,20
1,68,120,10
1,68,0,20
1,68,120,10
1,68,0,45
1,68,120,15
1,68,0,45
1,68,120,15
1,68,0,45
1,68,120,15
1,68,0,190
1,69,120,110
1,69,0,95
1,68,120,25
1,68,0,45
1,66,120,15
1,66,0,95
1,66,120,25
1,66,0,95
1,66,120,25
1,66,0,45
1,64,120,15
1,64,0,140
1,76,120,100
1,76,0,45
1,76,120,15
1,76,0,45
1,76,120,15
1,76,0,45
1,76,120,15
1,76,0,45
1,76,120,15
1,76,0,45
1,75,120,15
1,75,0,95
1,73,120,25
1,73,0,108
1,75,120,12
1,75,0,45
1,76,120,15
1,76,0,95
1,76,120,25
1,76,0,45
1,76,120,15
1,76,0,20
1,76,120,10
1,76,0,20
1,76,120,10
1,76,0,45
1,76,120,15
1,76,0,95
1,76,120,85
1,76,0,95
1,76,120,25
1,76,0,45
1,76,120,15
1,76,0,20
1,73,120,10
1,73,0,20
1,73,120,10
1,73,0,45
1,73,120,15
1,73,0,95
1,73,120,85
1,73,0,20
1,73,120,10
1,73,0,20
1,73,120,10
1,73,0,45
1,71,120,15
1,71,0,45
1,71,120,15
1,71,0,45
1,71,120,15
1,71,0,45
1,71,120,15
1,71,0,95
1,73,120,25
1,73,0,20
1,73,120,10
1,73,0,20
1,73,120,10
1,73,0,95
1,73,120,25
1,73,0,95
1,71,120,25
1,71,0,45
1,71,120,15
1,71,0,95
1,73,120,55
1,73,0,20
1,73,120,10
1,73,0,20
1,73,120,10
1,73,0,20
1,73,120,10
1,73,0,45
1,71,120,15
1,71,0,95
1,71,120,25
1,71,0,45
1,71,120,15
1,71,0,95
1,73,120,55
1,73,0,20
1,73,120,10
1,73,0,20
1,73,120,10
1,73,0,20
1,73,120,10
1,73,0,95
1,73,120,25
1,73,0,95
1,71,120,25
1,71,0,95
1,71,120,25
1,71,0,95
1,71,120,25
1,71,0,90
1,69,120,0
1,68,120,30
1,69,0,5
1,68,0,90
1,76,120,565
1,76,0,45
1,76,120,15
1,76,0,45
1,76,120,15
1,76,0,45
1,76,120,15
1,76,0,95
1,76,120,25
1,76,0,45
1,76,120,15
1,76,0,45
1,76,120,15
1,76,0,190
1,76,120,110
1,76,0,45
1,76,120,15
1,76,0,45
1,76,120,15
1,76,0,95
1,76,120,25
1,76,0,45
1,76,120,15
1,76,0,45
1,78,120,15
1,78,0,45
1,78,120,15
1,78,0,95
1,78,120,25
1,78,0,45
1,78,120,15
1,78,0,45
1,78,120,15
1,78,0,190
1,78,120,110
1,78,0,45
1,78,120,15
1,78,0,45
1,78,120,15
1,78,0,95
1,76,120,25
1,76,0,45
1,76,120,15
1,76,0,45
1,76,120,15
1,76,0,45
1,76,120,15
1,76,0,95
1,76,120,25
1,76,0,45
1,76,120,15
1,76,0,45
1,76,120,15
1,76,0,95
1,76,120,25
1,76,0,45
1,76,120,15
1,76,0,45
1,76,120,15
1,76,0,95
1,73,120,85
1,73,0,45
1,73,120,15
1,73,0,95
1,76,120,25
1,76,0,95
1,78,120,25
1,78,0,95
1,76,120,85
1,76,0,140
1,76,120,40
1,76,0,95
1,78,120,25
1,78,0,95
1,76,120,85
1,76,0,45
1,76,120,15
1,76,0,95
1,78,120,25
1,78,0,95
1,76,120,25
1,76,0,95
1,76,120,25
1,76,0,140
1,76,120,40
1,76,0,45
1,76,120,15
1,76,0,45
1,76,120,15
1,76,0,45
1,76,120,15
1,76,0,45
1,76,120,15
1,76,0,45
1,76,120,15
1,76,0,45
1,75,120,15
1,75,0,45
1,73,120,15
1,73,0,95
1,71,120,25
1,71,0,45
1,71,120,15
1,71,0,45
1,73,120,15
1,73,0,45
1,71,120,15
1,71,0,45
1,71,120,15
1,71,0,95
1,71,120,25
1,71,0,95
1,68,120,25
1,68,0,45
1,68,120,15
1,68,0,45
1,69,120,15
1,69,0,45
1,69,120,15
1,69,0,45
1,69,120,15
1,69,0,45
1,68,120,15
1,68,0,45
1,66,120,15
1,66,0,45
1,64,120,15
1,64,0,45
1,76,120,75
1,76,0,45
1,76,120,15
1,76,0,20
1,76,120,10
1,76,0,20
1,76,120,10
1,76,0,20
1,76,120,10
1,76,0,20
1,76,120,10
1,76,0,45
1,76,120,15
1,76,0,45
1,76,120,15
1,76,0,95
1,76,120,25
1,76,0,45
1,76,120,15
1,76,0,45
1,76,120,15
1,76,0,70
1,76,120,20
1,76,0,70
1,75,120,20
1,75,0,45
1,73,120,15
1,73,0,70
1,71,120,20
1,71,0,70
1,68,120,20
1,68,0,45
1,71,120,15
1,71,0,380
1,76,120,100
1,76,0,65
1,75,120,55
1,75,0,65
1,73,120,55
1,73,0,65
1,71,120,55
1,71,0,65
1,68,55,169
1,68,0,480
1,69,55,0
1,69,0,180
1,68,55,0
1,68,0,60
1,66,55,0
1,66,0,120
1,68,55,120
1,68,0,360
1,66,55,0
1,66,0,120
1,64,55,0
1,64,0,180
1,68,55,0
1,68,0,60
1,66,55,0
1,66,0,120
1,68,55,120
1,68,0,480
1,69,55,0
1,69,0,180
1,68,55,0
1,68,0,60
1,66,55,0
1,66,0,120
1,68,55,120
1,68,0,360
1,66,55,0
1,66,0,120
1,64,55,0
1,64,0,180
1,68,55,0
1,68,0,60
1,66,55,0
1,66,0,120
1,68,57,43
1,68,0,30
1,68,57,0
1,68,0,30
1,68,57,0
1,68,0,48
1,68,57,12
1,68,0,48
1,68,58,12
1,68,0,48
1,68,58,12
1,68,0,48
1,68,60,12
1,68,0,48
1,68,61,12
1,68,0,96
1,69,62,24
1,69,0,48
1,69,63,12
1,69,0,48
1,69,63,12
1,69,0,48
1,69,65,12
1,69,0,48
1,68,66,12
1,68,0,48
1,66,66,12
1,66,0,96
1,68,69,84
1,68,0,24
1,68,69,6
1,68,0,24
1,68,70,6
1,68,0,96
1,68,72,24
1,68,0,96
1,68,74,24
1,68,0,96
1,68,77,24
1,68,0,48
1,68,77,12
1,68,0,48
1,69,78,12
1,69,0,96
1,69,80,24
1,69,0,48
1,68,80,12
1,68,0,48
1,66,82,12
1,66,0,96
1,71,84,54
1,71,0,24
1,71,84,6
1,71,0,24
1,71,86,6
1,71,0,24
1,71,86,6
1,71,0,96
1,71,87,24
1,71,0,96
1,71,90,24
1,71,0,96
1,71,93,84
1,71,0,48
1,73,94,12
1,73,0,96
1,73,96,24
1,73,0,48
1,71,97,12
1,71,0,48
1,71,99,12
1,71,0,48
1,71,99,12
1,71,0,48
1,71,102,42
1,71,0,24
1,71,102,6
1,71,0,24
1,71,102,6
1,71,0,24
1,71,103,6
1,71,0,96
1,71,105,24
1,71,0,96
1,71,107,24
1,71,0,48
1,76,107,12
1,76,0,48
1,76,108,12
1,76,0,48
1,76,109,12
1,76,0,48
1,76,110,12
1,76,0,96
1,75,110,24
1,75,0,48
1,75,111,12
1,75,0,48
1,73,112,12
1,73,0,48
1,73,113,12
1,73,0,48
1,75,114,12
1,75,0,96
1,76,126,24
1,76,0,95
1,76,126,25
1,76,0,140
1,76,126,40
1,76,0,45
1,76,126,15
1,76,0,45
1,76,126,15
1,76,0,45
1,76,126,15
1,76,0,45
1,76,126,15
1,76,0,45
1,76,126,15
1,76,0,45
1,75,126,15
1,75,0,45
1,73,126,15
1,73,0,95
1,71,126,25
1,71,0,45
1,71,126,15
1,71,0,45
1,73,126,15
1,73,0,45
1,71,126,15
1,71,0,45
1,71,126,15
1,71,0,95
1,71,126,25
1,71,0,95
1,68,126,25
1,68,0,45
1,68,126,15
1,68,0,45
1,69,126,15
1,69,0,45
1,69,126,15
1,69,0,45
1,69,126,15
1,69,0,45
1,68,126,15
1,68,0,45
1,66,126,15
1,66,0,45
1,64,126,15
1,64,0,45
1,76,126,75
1,76,0,45
1,76,126,15
1,76,0,20
1,76,126,10
1,76,0,20
1,76,126,10
1,76,0,20
1,76,126,10
1,76,0,20
1,76,126,10
1,76,0,45
1,76,126,15
1,76,0,45
1,76,126,15
1,76,0,95
1,76,126,25
1,76,0,45
1,76,126,15
1,76,0,45
1,76,126,15
1,76,0,70
1,76,126,20
1,76,0,70
1,75,126,20
1,75,0,45
1,73,126,15
1,73,0,70
1,71,126,20
1,71,0,70
1,68,126,20
1,68,0,45
1,71,126,15
1,71,0,380
1,76,126,100
1,76,0,65
1,75,126,55
1,75,0,65
1,73,126,55
1,73,0,65
1,71,126,55
1,71,0,65
1,76,126,55
1,76,0,65
1,76,122,55
1,76,0,240
1,76,110,120
1,76,0,120
1,75,107,0
1,75,0,120
1,73,103,0
1,73,0,120
1,71,98,0
1,71,0,120
1,76,94,0
1,76,0,65
1,76,90,55
1,76,0,240
1,76,79,120
1,76,0,120
1,75,75,0
1,75,0,120
1,73,70,0
1,73,0,120
1,71,66,0
1,71,0,120
1,76,63,0
1,76,0,65
1,76,59,55
1,76,0,240
1,76,47,120
1,76,0,120
1,75,42,0
1,75,0,120
1,73,39,0
1,73,0,120
1,71,35,0
1,71,0,120
1,76,31,0
1,76,0,65
1,76,27,55
1,76,0,240
1,76,15,120
1,76,0,120
1,75,11,0
1,75,0,120
1,73,7,0
1,73,0,120
1,71,3,0
1,71,0,120
2,80,100,15840
2,80,0,95
2,80,100,25
2,80,0,140
2,80,100,40
2,80,0,45
2,80,100,15
2,80,0,45
2,80,100,15
2,80,0,45
2,81,100,15
2,81,0,45
2,81,100,15
2,81,0,45
2,81,100,15
2,81,0,45
2,80,100,15
2,80,0,45
2,78,100,15
2,78,0,95
2,75,100,25
2,75,0,45
2,75,100,15
2,75,0,45
2,76,100,15
2,76,0,45
