track,note,velocity,time
1,29,118,3060
1,41,118,0
1,53,118,0
1,60,118,0
1,57,118,0
1,57,0,521
1,60,0,1
1,53,0,3
1,41,0,9
1,29,0,6
1,33,118,190
1,60,118,0
1,57,118,0
1,52,118,0
1,45,111,0
1,57,0,120
1,60,0,0
1,45,0,3
1,52,0,1
1,33,0,0
1,60,118,576
1,53,118,4
1,57,118,0
1,29,118,0
1,41,118,3
1,29,0,216
1,41,0,24
1,60,0,84
1,57,0,3
1,53,0,5
1,60,118,364
1,52,118,0
1,33,118,4
1,45,118,0
1,57,118,0
1,45,0,603
1,33,0,0
1,52,0,94
1,60,0,7
1,29,118,19
1,53,118,1
1,41,118,0
1,60,118,3
1,29,0,645
1,41,0,1
1,60,0,32
1,53,0,0
1,57,0,3
1,57,118,35
1,45,118,0
1,52,118,0
1,33,118,3
1,60,118,0
1,33,0,473
1,45,0,0
1,60,0,126
1,52,0,4
1,57,0,2
1,53,118,91
1,29,118,0
1,60,118,0
1,57,118,0
1,41,111,0
1,29,0,647
1,57,0,2
1,60,0,0
1,41,0,2
1,53,0,5
1,33,118,62
1,45,118,2
1,60,118,0
1,52,118,0
1,57,118,0
1,52,0,442
1,60,0,1
1,57,0,0
1,45,0,13
1,33,0,0
1,34,118,261
1,46,116,0
1,53,118,0
1,62,118,0
1,58,118,0
1,34,0,232
1,46,0,6
1,53,0,37
1,36,118,51
1,62,0,2
1,53,118,0
1,60,118,0
1,48,111,0
1,57,118,0
1,58,0,7
1,48,0,92
1,36,0,7
1,53,0,189
1,60,0,24
1,24,118,8
1,36,118,2
1,55,118,2
1,52,118,0
1,60,118,4
1,57,0,24
1,24,0,586
1,36,0,2
1,52,0,27
1,60,0,93
1,55,0,0
1,58,118,1
1,53,118,0
1,34,118,0
1,62,118,0
1,46,118,0
1,34,0,230
1,46,0,5
1,53,0,15
1,57,118,42
1,58,0,2
1,62,0,0
1,36,118,0
1,48,118,0
1,53,118,0
1,60,118,0
1,48,0,124
1,36,0,8
1,53,0,147
1,60,0,31
1,24,118,10
1,36,118,4
1,52,118,0
1,55,118,0
1,60,118,3
1,57,0,1
1,24,0,575
1,36,0,1
1,52,0,19
1,60,0,16
1,55,0,99
1,29,118,0
1,57,118,0
1,41,118,0
1,53,118,0
1,60,118,0
1,29,0,646
1,41,0,3
1,60,0,10
1,57,0,2
1,53,0,1
1,33,118,55
1,45,118,0
1,57,118,0
1,52,118,0
1,60,118,0
1,33,0,614
1,45,0,3
1,60,0,50
1,52,0,7
1,57,0,22
1,53,118,4
1,57,117,1
1,29,118,0
1,60,118,0
1,41,118,2
1,29,0,667
1,41,0,12
1,53,0,8
1,57,0,1
1,60,0,0
1,33,118,45
1,60,118,0
1,57,118,0
1,52,118,0
1,45,118,0
1,33,0,645
1,52,0,5
1,57,0,2
1,60,0,3
1,45,0,1
1,53,118,76
1,46,102,0
1,58,118,0
1,62,118,2
1,34,118,0
1,34,0,258
1,46,0,7
1,53,0,6
1,36,118,61
1,57,118,0
1,53,118,2
1,48,118,0
1,60,118,0
1,62,0,1
1,58,0,2
1,48,0,199
1,36,0,12
1,53,0,37
1,60,0,8
1,57,0,26
1,24,118,46
1,52,118,2
1,60,118,0
1,55,118,0
1,36,114,0
1,60,0,283
1,55,0,2
1,52,0,1
1,24,0,1
1,36,0,0
1,34,118,424
1,58,118,0
1,46,118,0
1,53,118,1
1,62,118,0
1,46,0,148
1,34,0,6
1,53,0,7
1,62,0,5
1,58,0,2
1,36,118,146
1,53,118,2
1,60,118,0
1,57,118,0
1,48,114,0
1,36,0,170
1,48,0,4
1,53,0,17
1,60,0,3
1,57,0,3
1,24,118,111
1,60,118,0
1,52,118,1
1,36,118,0
1,55,118,0
1,24,0,81
1,36,0,5
1,60,0,186
1,52,0,0
1,55,0,0
1,29,118,3440
1,41,115,0
1,53,118,4
1,57,118,0
1,60,118,0
1,60,0,229
1,53,0,2
1,57,0,1
1,41,0,3
1,29,0,13
1,33,118,476
1,45,109,0
1,60,118,4
1,57,118,0
1,52,118,0
1,52,0,86
1,60,0,0
1,57,0,2
1,33,0,5
1,45,0,5
1,29,118,600
1,41,117,4
1,53,118,0
1,57,118,0
1,60,118,1
1,57,0,115
1,53,0,0
1,60,0,6
1,41,0,0
1,29,0,5
1,33,118,568
1,45,113,5
1,57,118,3
1,60,118,0
1,52,118,0
1,33,0,123
1,45,0,4
1,60,0,3
1,57,0,0
1,52,0,3
1,34,116,568
1,46,109,0
1,58,109,0
1,53,113,5
1,62,118,0
1,34,0,172
1,46,0,3
1,53,0,1
1,58,0,0
1,62,0,4
1,36,118,120
1,48,114,4
1,57,118,3
1,60,118,0
1,53,118,0
1,48,0,150
1,36,0,1
1,60,0,9
1,53,0,8
1,57,0,2
1,24,118,120
1,36,118,5
1,60,118,3
1,52,118,0
1,55,118,0
1,55,0,119
1,24,0,0
1,52,0,0
1,60,0,3
1,36,0,2
1,34,118,583
1,46,107,0
1,62,118,5
1,58,109,0
1,53,114,0
1,53,0,176
1,46,0,0
1,34,0,4
1,62,0,0
1,58,0,4
1,36,118,124
1,48,118,2
1,57,118,2
1,53,118,0
1,60,118,0
1,53,0,197
1,48,0,0
1,36,0,0
1,57,0,3
1,60,0,0
1,24,118,111
1,60,118,0
1,52,118,0
1,55,118,0
1,36,118,0
1,60,0,167
1,55,0,5
1,52,0,1
1,24,0,1
1,36,0,0
1,34,118,526
1,46,106,0
1,62,118,2
1,58,116,0
1,53,118,0
1,34,0,197
1,62,0,2
1,46,0,2
1,58,0,3
1,53,0,2
1,36,118,93
1,48,112,3
1,53,118,0
1,57,118,0
1,60,118,0
1,36,0,163
1,48,0,3
1,60,0,9
1,53,0,0
1,57,0,3
1,24,118,133
1,36,118,4
1,52,118,2
1,55,118,0
1,60,118,0
1,55,0,133
1,52,0,3
1,60,0,0
1,24,0,0
1,36,0,6
1,34,118,538
1,46,118,4
1,62,118,0
1,53,118,0
1,58,118,0
1,62,0,142
1,34,0,3
1,58,0,0
1,46,0,0
1,53,0,3
1,36,118,150
1,53,118,6
1,57,118,0
1,60,118,0
1,48,118,0
1,48,0,138
1,57,0,0
1,36,0,0
1,53,0,0
1,60,0,0
1,24,118,152
1,60,118,3
1,52,118,0
1,36,118,0
1,55,118,2
1,24,0,144
1,36,0,2
1,60,0,0
1,55,0,0
1,52,0,5
1,34,118,542
1,46,118,3
1,58,118,0
1,62,118,0
1,53,118,0
1,62,0,146
1,58,0,2
1,53,0,0
1,34,0,0
1,46,0,5
1,36,118,146
1,53,118,4
1,60,118,0
1,57,118,0
1,48,118,3
1,60,0,132
1,57,0,5
1,36,0,0
1,53,0,0
1,48,0,0
1,24,118,169
1,52,115,3
1,60,118,0
1,55,118,0
1,36,113,0
1,55,0,165
1,60,0,3
1,36,0,2
1,24,0,0
1,52,0,2
1,34,99,531
1,46,99,0
1,62,99,0
1,58,99,0
1,53,99,0
1,46,0,117
1,34,0,0
1,58,0,1
1,62,0,2
1,53,0,0
1,36,79,181
1,53,79,3
1,57,79,0
1,48,79,2
1,60,79,0
1,60,0,144
1,36,0,0
1,57,0,1
1,53,0,1
1,48,0,0
1,24,60,156
1,60,60,0
1,36,60,0
1,52,60,3
1,55,60,2
1,55,0,116
1,24,0,1
1,60,0,0
1,36,0,2
1,52,0,0
2,35,127,0
2,35,0,12
2,35,127,36
2,35,0,8
2,35,127,16
2,35,0,8
2,40,127,16
2,40,0,30
2,40,127,42
2,40,0,14
2,35,127,10
2,35,0,12
2,35,127,36
2,35,0,11
2,40,127,37
2,40,0,20
2,35,127,76
2,35,0,12
2,35,127,36
2,35,0,8
2,35,127,16
2,35,0,8
2,40,127,16
2,40,0,30
2,40,127,42
2,40,0,14
2,35,127,10
2,35,0,12
2,35,127,36
2,35,0,11
2,40,127,37
2,40,0,20
2,35,127,76
2,35,0,12
2,35,127,36
2,35,0,8
2,35,127,16
2,35,0,8
2,40,127,16
2,40,0,30
2,40,127,42
2,40,0,14
2,35,127,10
2,35,0,12
2,35,127,36
2,35,0,11
2,40,127,37
2,40,0,20
2,35,127,76
2,35,0,12
2,35,127,36
2,35,0,8
2,35,127,16
2,35,0,8
2,40,127,16
2,40,0,30
2,40,127,42
2,40,0,14
2,35,127,10
2,35,0,12
2,35,127,36
2,35,0,11
2,40,127,37
2,40,0,20
2,35,127,76
2,35,0,12
2,35,127,36
2,35,0,8
2,35,127,16
2,35,0,8
2,40,127,16
2,40,0,30
2,40,127,42
2,40,0,14
2,35,127,10
2,35,0,12
2,35,127,36
2,35,0,11
2,40,127,37
2,40,0,20
2,35,127,76
2,35,0,12
2,35,127,36
2,35,0,8
2,35,127,16
2,35,0,8
2,40,127,16
2,40,0,30
2,40,127,42
2,40,0,14
2,35,127,10
2,35,0,12
2,35,127,36
2,35,0,11
2,40,127,37
2,40,0,20
2,35,127,76
2,35,0,12
2,35,127,36
2,35,0,8
2,35,127,16
2,35,0,8
2,40,127,16
2,40,0,30
2,40,127,42
2,40,0,14
2,35,127,10
2,35,0,12
2,35,127,36
2,35,0,11
2,40,127,37
2,40,0,20
2,35,127,76
2,35,0,12
2,35,127,36
2,35,0,8
2,35,127,16
2,35,0,8
2,40,127,16
2,40,0,30
2,40,127,42
2,40,0,14
2,35,127,10
2,35,0,12
2,35,127,36
2,35,0,11
2,40,127,37
2,40,0,20
2,35,127,76
2,35,0,12
2,35,127,36
2,35,0,8
2,35,127,16
2,35,0,8
2,40,127,16
2,40,0,30
2,40,127,42
2,40,0,14
2,35,127,10
2,35,0,12
2,35,127,36
2,35,0,11
2,40,127,37
2,40,0,20
2,35,127,76
2,35,0,12
2,35,127,36
2,35,0,8
2,35,127,16
2,35,0,8
2,40,127,16
2,40,0,30
2,40,127,42
2,40,0,14
2,35,127,10
2,35,0,12
2,35,127,36
2,35,0,11
2,40,127,37
2,40,0,20
2,35,127,76
2,35,0,12
2,35,127,36
2,35,0,8
2,35,127,16
2,35,0,8
2,40,127,16
2,40,0,30
2,40,127,42
2,40,0,14
2,35,127,10
2,35,0,12
2,35,127,36
2,35,0,11
2,40,127,37
2,40,0,20
2,35,127,76
2,35,0,12
2,35,127,36
2,35,0,8
2,35,127,16
2,35,0,8
2,40,127,16
2,40,0,30
2,40,127,42
2,40,0,14
2,35,127,10
2,35,0,12
2,35,127,36
2,35,0,11
2,40,127,37
2,40,0,20
2,35,127,76
2,35,0,12
2,35,127,36
2,35,0,8
2,35,127,16
2,35,0,8
2,40,127,16
2,40,0,30
2,40,127,42
2,40,0,14
2,35,127,10
2,35,0,12
2,35,127,36
2,35,0,11
2,40,127,37
2,40,0,20
2,35,127,76
2,35,0,12
2,35,127,36
2,35,0,8
2,35,127,16
2,35,0,8
2,40,127,16
2,40,0,30
2,40,127,42
2,40,0,14
2,35,127,10
2,35,0,12
2,35,127,36
2,35,0,11
2,40,127,37
2,40,0,20
2,35,127,76
2,35,0,12
2,35,127,36
2,35,0,8
2,35,127,16
2,35,0,8
2,40,127,16
2,40,0,30
2,40,127,42
2,40,0,14
2,35,127,10
2,35,0,12
2,35,127,36
2,35,0,11
2,40,127,37
2,40,0,20
2,35,127,76
2,35,0,12
2,35,127,36
2,35,0,8
2,35,127,16
2,35,0,8
2,40,127,16
2,40,0,30
2,40,127,42
2,40,0,14
2,35,127,10
2,35,0,12
2,35,127,36
2,35,0,11
2,40,127,37
2,40,0,20
2,35,127,76
2,35,0,12
2,35,127,36
2,35,0,8
2,35,127,16
2,35,0,8
2,40,127,16
2,40,0,30
2,40,127,42
2,40,0,14
2,35,127,10
2,35,0,12
2,35,127,36
2,35,0,11
2,40,127,37
2,40,0,20
2,35,127,76
2,35,0,12
2,35,127,36
2,35,0,8
2,35,127,16
2,35,0,8
2,40,127,16
2,40,0,30
2,40,127,42
2,40,0,14
2,35,127,10
2,35,0,12
2,35,127,36
2,35,0,11
2,40,127,37
2,40,0,20
2,35,127,76
2,35,0,12
2,35,127,36
2,35,0,8
2,35,127,16
2,35,0,8
2,40,127,16
2,40,0,30
2,40,127,42
2,40,0,14
2,35,127,10
2,35,0,12
2,35,127,36
2,35,0,11
2,40,127,37
2,40,0,20
2,35,127,76
2,35,0,12
2,35,127,36
2,35,0,8
2,35,127,16
2,35,0,8
2,40,127,16
2,40,0,30
2,40,127,42
2,40,0,14
2,35,127,10
2,35,0,12
2,35,127,36
2,35,0,11
2,40,127,37
2,40,0,20
2,35,127,76
2,35,0,12
2,35,127,36
2,35,0,8
2,35,127,16
2,35,0,8
2,40,127,16
2,40,0,30
2,40,127,42
2,40,0,14
2,35,127,10
2,35,0,12
2,35,127,36
2,35,0,11
2,40,127,37
2,40,0,20
2,35,127,76
2,35,0,12
2,35,127,36
2,35,0,8
2,35,127,16
2,35,0,8
2,40,127,16
2,40,0,30
2,40,127,42
2,40,0,14
2,35,127,10
2,35,0,12
2,35,127,36
2,35,0,11
2,40,127,37
2,40,0,20
2,35,127,76
2,35,0,12
2,35,127,36
2,35,0,8
2,35,127,16
2,35,0,8
2,40,127,16
2,40,0,30
2,40,127,42
2,40,0,14
2,35,127,10
2,35,0,12
2,35,127,36
2,35,0,11
2,40,127,37
2,40,0,20
2,35,127,76
2,35,0,12
2,35,127,36
2,35,0,8
2,35,127,16
2,35,0,8
2,40,127,16
2,40,0,30
2,40,127,42
2,40,0,14
2,35,127,10
2,35,0,12
2,35,127,36
2,35,0,11
2,40,127,37
2,40,0,20
2,35,127,76
2,35,0,12
2,35,127,36
2,35,0,8
2,35,127,16
2,35,0,8
2,40,127,16
2,40,0,30
2,40,127,42
2,40,0,14
2,35,127,10
2,35,0,12
2,35,127,36
2,35,0,11
2,40,127,37
2,40,0,20
2,35,127,76
2,35,0,12
2,35,127,36
2,35,0,8
2,35,127,16
2,35,0,8
2,40,127,16
2,40,0,30
2,40,127,42
2,40,0,14
2,35,127,10
2,35,0,12
2,35,127,36
2,35,0,11
2,40,127,37
2,40,0,20
2,35,127,76
2,35,0,12
2,35,127,36
2,35,0,8
2,35,127,16
2,35,0,8
2,40,127,16
2,40,0,30
2,40,127,42
2,40,0,14
2,35,127,10
2,35,0,12
2,35,127,36
2,35,0,11
2,40,127,37
2,40,0,20
2,35,127,76
2,35,0,12
2,35,127,36
2,35,0,8
2,35,127,16
2,35,0,8
2,40,127,16
2,40,0,30
2,40,127,42
2,40,0,14
2,35,127,10
2,35,0,12
2,35,127,36
2,35,0,11
2,40,127,37
2,40,0,20
2,35,127,76
2,35,0,12
2,35,127,36
2,35,0,8
2,35,127,16
2,35,0,8
2,40,127,16
2,40,0,30
2,40,127,42
2,40,0,14
2,35,127,10
2,35,0,12
2,35,127,36
2,35,0,11
2,40,127,37
2,40,0,20
2,35,127,76
2,35,0,12
2,35,127,36
2,35,0,8
2,35,127,16
2,35,0,8
2,40,127,16
2,40,0,30
2,40,127,42
2,40,0,14
2,35,127,10
2,35,0,12
2,35,127,36
2,35,0,11
2,40,127,37
2,40,0,20
2,35,127,76
2,35,0,12
2,35,127,36
2,35,0,8
2,35,127,16
2,35,0,8
2,40,127,16
2,40,0,30
2,40,127,42
2,40,0,14
2,35,127,10
2,35,0,12
2,35,127,36
2,35,0,11
2,40,127,37
2,40,0,20
2,35,127,76
2,35,0,12
2,35,127,36
2,35,0,8
2,35,127,16
2,35,0,8
2,40,127,16
2,40,0,30
2,40,127,42
2,40,0,14
2,35,127,10
2,35,0,12
2,35,127,36
2,35,0,11
2,40,127,37
2,40,0,20
2,35,127,76
2,35,0,12
2,35,127,36
2,35,0,8
2,35,127,16
2,35,0,8
2,40,127,16
2,40,0,30
2,40,127,42
2,40,0,14
2,35,127,10
2,35,0,12
2,35,127,36
2,35,0,11
2,40,127,37
2,40,0,20
2,35,127,76
2,35,0,12
2,35,127,36
2,35,0,8
2,35,127,16
2,35,0,8
2,40,127,16
2,40,0,30
2,40,127,42
2,40,0,14
2,35,127,10
2,35,0,12
2,35,127,36
2,35,0,11
