track,note,velocity,time
3,47,75,1536
3,59,75,0
3,54,75,0
3,54,0,672
3,59,0,0
3,47,0,0
3,47,75,96
3,59,75,0
3,54,75,0
3,54,0,96
3,59,0,0
3,47,0,0
3,47,75,96
3,59,75,0
3,54,75,0
3,54,0,96
3,59,0,0
3,47,0,0
3,47,75,96
3,59,75,0
3,54,75,0
3,54,0,96
3,59,0,0
3,47,0,0
3,54,75,96
3,61,75,0
3,47,75,0
3,59,75,0
3,59,0,288
3,54,0,0
3,61,0,0
3,47,0,0
3,47,75,96
3,59,75,0
3,63,75,0
3,54,75,0
3,54,0,2016
3,47,0,0
3,59,0,0
3,63,0,0
3,47,75,96
3,59,75,0
3,54,75,0
3,54,0,96
3,59,0,0
3,47,0,0
3,47,75,96
3,59,75,0
3,54,75,0
3,54,0,96
3,59,0,0
3,47,0,0
3,47,75,96
3,59,75,0
3,54,75,0
3,54,0,96
3,59,0,0
3,47,0,0
3,61,75,96
3,54,75,0
3,47,75,0
3,47,0,480
3,54,0,0
3,61,0,0
3,63,75,96
3,54,75,0
3,47,75,0
3,47,0,96
3,54,0,0
3,63,0,0
3,61,75,96
3,54,75,0
3,47,75,0
3,47,0,480
3,54,0,0
3,61,0,0
3,59,75,96
3,54,75,0
3,47,75,0
3,47,0,96
3,54,0,0
3,59,0,0
3,47,75,96
3,59,75,0
3,54,75,0
3,54,0,672
3,59,0,0
3,47,0,0
3,59,75,288
3,54,75,0
3,47,75,0
3,47,0,96
3,54,0,0
3,59,0,0
3,47,75,96
3,59,75,0
3,54,75,0
3,54,0,96
3,59,0,0
3,47,0,0
3,47,75,96
3,59,75,0
3,54,75,0
3,54,0,96
3,59,0,0
3,47,0,0
3,54,75,96
3,61,75,0
3,47,75,0
3,59,75,0
3,59,0,288
3,54,0,0
3,61,0,0
3,47,0,0
3,47,75,96
3,59,75,0
3,63,75,0
3,54,75,0
3,54,0,2016
3,47,0,0
3,59,0,0
3,63,0,0
3,47,75,96
3,59,75,0
3,54,75,0
3,54,0,96
3,59,0,0
3,47,0,0
3,47,75,96
3,59,75,0
3,54,75,0
3,54,0,96
3,59,0,0
3,47,0,0
3,47,75,96
3,59,75,0
3,54,75,0
3,54,0,96
3,59,0,0
3,47,0,0
3,61,75,96
3,54,75,0
3,47,75,0
3,47,0,480
3,54,0,0
3,61,0,0
3,63,75,96
3,54,75,0
3,47,75,0
3,47,0,96
3,54,0,0
3,63,0,0
3,61,75,96
3,54,75,0
3,47,75,0
3,47,0,480
3,54,0,0
3,61,0,0
3,59,75,96
3,54,75,0
3,47,75,0
3,47,0,96
3,54,0,0
3,59,0,0
3,47,75,96
3,59,75,0
3,54,75,0
3,54,0,672
3,59,0,0
3,47,0,0
3,47,75,288
3,59,75,0
3,54,75,0
3,54,0,96
3,59,0,0
3,47,0,0
3,47,75,96
3,59,75,0
3,54,75,0
3,54,0,96
3,59,0,0
3,47,0,0
3,47,75,96
3,59,75,0
3,54,75,0
3,54,0,96
3,59,0,0
3,47,0,0
3,54,75,96
3,61,75,0
3,47,75,0
3,59,75,0
3,59,0,288
3,54,0,0
3,61,0,0
3,47,0,0
3,47,75,96
3,59,75,0
3,63,75,0
3,54,75,0
3,54,0,2016
3,47,0,0
3,59,0,0
3,63,0,0
3,47,75,96
3,59,75,0
3,54,75,0
3,54,0,96
3,59,0,0
3,47,0,0
3,47,75,96
3,59,75,0
3,54,75,0
3,54,0,96
3,59,0,0
3,47,0,0
3,47,75,96
3,59,75,0
3,54,75,0
3,54,0,96
3,59,0,0
3,47,0,0
3,61,75,96
3,54,75,0
3,47,75,0
3,47,0,480
3,54,0,0
3,61,0,0
3,63,75,96
3,54,75,0
3,47,75,0
3,47,0,96
3,54,0,0
3,63,0,0
3,61,75,96
3,54,75,0
3,47,75,0
3,47,0,480
3,54,0,0
3,61,0,0
3,59,75,96
3,54,75,0
3,47,75,0
3,47,0,96
3,54,0,0
3,59,0,0
3,47,75,96
3,59,75,0
3,54,75,0
3,54,0,672
3,59,0,0
3,47,0,0
3,59,75,288
3,54,75,0
3,47,75,0
3,47,0,96
3,54,0,0
3,59,0,0
3,47,75,96
3,59,75,0
3,54,75,0
3,54,0,96
3,59,0,0
3,47,0,0
3,47,75,96
3,59,75,0
3,54,75,0
3,54,0,96
3,59,0,0
3,47,0,0
3,54,75,96
3,61,75,0
3,47,75,0
3,59,75,0
3,59,0,288
3,54,0,0
3,61,0,0
3,47,0,0
3,47,75,96
3,59,75,0
3,63,75,0
3,54,75,0
3,54,0,2016
3,47,0,0
3,59,0,0
3,63,0,0
3,47,75,96
3,59,75,0
3,54,75,0
3,54,0,96
3,59,0,0
3,47,0,0
3,47,75,96
3,59,75,0
3,54,75,0
3,54,0,96
3,59,0,0
3,47,0,0
3,47,75,96
3,59,75,0
3,54,75,0
3,54,0,96
3,59,0,0
3,47,0,0
3,61,75,96
3,54,75,0
3,47,75,0
3,47,0,480
3,54,0,0
3,61,0,0
3,63,75,96
3,54,75,0
3,47,75,0
3,47,0,96
3,54,0,0
3,63,0,0
3,61,75,96
3,54,75,0
3,47,75,0
3,47,0,480
3,54,0,0
3,61,0,0
3,59,75,96
3,54,75,0
3,47,75,0
3,47,0,96
3,54,0,0
3,59,0,0
3,64,75,96
3,68,75,0
3,59,75,0
3,59,0,1440
3,68,0,0
3,64,0,0
3,66,75,96
3,59,75,0
3,63,75,0
3,63,0,288
3,59,0,0
3,66,0,0
3,68,75,96
3,61,75,0
3,64,75,0
3,64,0,1024
3,61,0,0
3,68,0,0
3,52,75,128
3,68,75,0
3,64,75,0
3,59,75,0
3,59,0,1440
3,52,0,0
3,68,0,0
3,64,0,0
3,66,75,96
3,63,75,0
3,59,75,0
3,59,0,288
3,63,0,0
3,66,0,0
3,68,75,96
3,64,75,0
3,61,75,0
3,61,0,896
3,64,0,0
3,68,0,0
3,59,75,256
3,54,75,0
3,47,75,0
3,47,0,96
3,54,0,0
3,59,0,0
3,47,75,96
3,59,75,0
3,54,75,0
3,54,0,672
3,59,0,0
3,47,0,0
3,47,75,96
3,59,75,0
3,54,75,0
3,54,0,96
3,59,0,0
3,47,0,0
3,47,75,96
3,59,75,0
3,54,75,0
3,54,0,96
3,59,0,0
3,47,0,0
3,47,75,96
3,59,75,0
3,54,75,0
3,54,0,96
3,59,0,0
3,47,0,0
3,59,75,96
3,61,75,0
3,56,75,0
3,56,0,288
3,61,0,0
3,59,0,0
3,56,75,96
3,59,75,0
3,63,75,0
3,63,0,2016
3,59,0,0
3,56,0,0
3,47,75,96
3,59,75,0
3,54,75,0
3,54,0,96
3,59,0,0
3,47,0,0
3,47,75,96
3,59,75,0
3,54,75,0
3,54,0,96
3,59,0,0
3,47,0,0
3,47,75,96
3,59,75,0
3,54,75,0
3,54,0,96
3,59,0,0
3,47,0,0
3,61,75,96
3,56,75,0
3,51,75,0
3,51,0,480
3,56,0,0
3,61,0,0
3,63,75,96
3,56,75,0
3,51,75,0
3,51,0,96
3,56,0,0
3,63,0,0
3,61,75,96
3,56,75,0
3,51,75,0
3,51,0,480
3,56,0,0
3,61,0,0
3,59,75,96
3,56,75,0
3,51,75,0
3,51,0,96
3,56,0,0
3,59,0,0
3,54,75,96
3,58,75,0
3,61,75,0
3,61,0,672
3,58,0,0
3,54,0,0
3,61,75,96
3,54,75,0
3,58,75,0
3,58,0,96
3,54,0,0
3,61,0,0
3,54,75,96
3,61,75,0
3,58,75,0
3,58,0,480
3,61,0,0
3,54,0,0
3,54,75,96
3,59,75,0
3,63,75,0
3,63,0,192
3,59,0,0
3,54,0,0
3,59,75,192
3,54,75,0
3,63,75,0
3,63,0,192
3,54,0,0
3,59,0,0
3,61,75,192
3,54,75,0
3,58,75,0
3,58,0,96
3,54,0,0
3,61,0,0
3,58,75,96
3,61,75,0
3,54,75,0
3,54,0,576
3,61,0,0
3,58,0,0
3,61,75,192
3,54,75,0
3,58,75,0
3,58,0,480
3,54,0,0
3,61,0,0
3,54,75,96
3,61,75,0
3,58,75,0
3,58,0,96
3,61,0,0
3,54,0,0
3,54,75,96
3,58,75,0
3,61,75,0
3,61,0,480
3,58,0,0
3,54,0,0
3,63,75,96
3,59,75,0
3,54,75,0
3,54,0,192
3,59,0,0
3,63,0,0
3,59,75,192
3,54,75,0
3,63,75,0
3,63,0,192
3,54,0,0
3,59,0,96
3,58,75,96
3,61,75,0
3,54,75,0
3,54,0,96
3,61,0,0
3,58,0,0
3,58,75,96
3,54,75,0
3,61,75,0
3,61,0,576
3,54,0,0
3,58,0,0
3,56,75,192
3,59,75,0
3,52,75,0
3,52,0,672
3,59,0,0
3,56,0,0
3,59,75,96
3,56,75,0
3,52,75,0
3,52,0,96
3,56,0,0
3,59,0,0
3,59,75,96
3,56,75,0
3,52,75,0
3,52,0,96
3,56,0,0
3,59,0,0
3,59,75,96
3,52,75,0
3,56,75,0
3,56,0,96
3,52,0,0
3,59,0,0
3,56,75,96
3,52,75,0
3,61,75,0
3,61,0,288
3,52,0,0
3,56,0,0
3,56,75,96
3,52,75,0
3,63,75,0
3,63,0,1728
3,52,0,0
3,56,0,0
3,56,75,384
3,59,75,0
3,52,75,0
3,52,0,96
3,59,0,0
3,56,0,0
3,59,75,96
3,56,75,0
3,52,75,0
3,52,0,96
3,56,0,0
3,59,0,0
3,59,75,96
3,56,75,0
3,52,75,0
3,52,0,96
3,56,0,0
3,59,0,0
3,52,75,96
3,56,75,0
3,61,75,0
3,61,0,480
3,56,0,0
3,52,0,0
3,56,75,96
3,63,75,0
3,63,0,96
3,56,0,0
3,56,75,96
3,61,75,0
3,52,75,0
3,52,0,480
3,61,0,0
3,56,0,0
3,56,75,96
3,59,75,0
3,52,75,0
3,52,0,96
3,59,0,0
3,56,0,0
3,47,75,96
3,59,75,0
3,54,75,0
3,54,0,672
3,59,0,0
3,47,0,0
3,47,75,288
3,59,75,0
3,54,75,0
3,54,0,96
3,59,0,0
3,47,0,0
3,47,75,96
3,59,75,0
3,54,75,0
3,54,0,96
3,59,0,0
3,47,0,0
3,47,75,96
3,59,75,0
3,54,75,0
3,54,0,96
3,59,0,0
3,47,0,0
3,54,75,96
3,61,75,0
3,47,75,0
3,59,75,0
3,59,0,288
3,54,0,0
3,61,0,0
3,47,0,0
3,47,75,96
3,59,75,0
3,63,75,0
3,54,75,0
3,54,0,2016
3,47,0,0
3,59,0,0
3,63,0,0
3,47,75,96
3,59,75,0
3,54,75,0
3,54,0,96
3,59,0,0
3,47,0,0
3,47,75,96
3,59,75,0
3,54,75,0
3,54,0,96
3,59,0,0
3,47,0,0
3,47,75,96
3,59,75,0
3,54,75,0
3,54,0,96
3,59,0,0
3,47,0,0
3,61,75,96
3,54,75,0
3,47,75,0
3,47,0,480
3,54,0,0
3,61,0,0
3,63,75,96
3,54,75,0
3,47,75,0
3,47,0,96
3,54,0,0
3,63,0,0
3,61,75,96
3,54,75,0
3,47,75,0
3,47,0,480
3,54,0,0
3,61,0,0
3,59,75,96
3,54,75,0
3,47,75,0
3,47,0,96
3,54,0,0
3,59,0,0
3,47,75,96
3,59,75,0
3,54,75,0
3,54,0,672
3,59,0,0
3,47,0,0
3,59,75,288
3,54,75,0
3,47,75,0
3,47,0,96
3,54,0,0
3,59,0,0
3,47,75,96
3,59,75,0
3,54,75,0
3,54,0,96
3,59,0,0
3,47,0,0
3,47,75,96
3,59,75,0
3,54,75,0
3,54,0,96
3,59,0,0
3,47,0,0
3,54,75,96
3,61,75,0
3,47,75,0
3,59,75,0
3,59,0,288
3,54,0,0
3,61,0,0
3,47,0,0
3,47,75,96
3,59,75,0
3,63,75,0
3,54,75,0
3,54,0,2016
3,47,0,0
3,59,0,0
3,63,0,0
3,47,75,96
3,59,75,0
3,54,75,0
3,54,0,96
3,59,0,0
3,47,0,0
3,47,75,96
3,59,75,0
3,54,75,0
3,54,0,96
3,59,0,0
3,47,0,0
3,47,75,96
3,59,75,0
3,54,75,0
3,54,0,96
3,59,0,0
3,47,0,0
3,61,75,96
3,54,75,0
3,47,75,0
3,47,0,480
3,54,0,0
3,61,0,0
3,63,75,96
3,54,75,0
3,47,75,0
3,47,0,96
3,54,0,0
3,63,0,0
3,61,75,96
3,54,75,0
3,47,75,0
3,47,0,480
3,54,0,0
3,61,0,0
3,59,75,96
3,54,75,0
3,47,75,0
3,47,0,96
3,54,0,0
3,59,0,0
3,47,75,96
3,59,75,0
3,54,75,0
3,54,0,672
3,59,0,0
3,47,0,0
3,47,75,288
3,59,75,0
3,54,75,0
3,54,0,96
3,59,0,0
3,47,0,0
3,47,75,96
3,59,75,0
3,54,75,0
3,54,0,96
3,59,0,0
3,47,0,0
3,47,75,96
3,59,75,0
3,54,75,0
3,54,0,96
3,59,0,0
3,47,0,0
3,54,75,96
3,61,75,0
3,47,75,0
3,59,75,0
3,59,0,288
3,54,0,0
3,61,0,0
3,47,0,0
3,47,75,96
3,59,75,0
3,63,75,0
3,54,75,0
3,54,0,2016
3,47,0,0
3,59,0,0
3,63,0,0
3,47,75,96
3,59,75,0
3,54,75,0
3,54,0,96
3,59,0,0
3,47,0,0
3,47,75,96
3,59,75,0
3,54,75,0
3,54,0,96
3,59,0,0
3,47,0,0
3,47,75,96
3,59,75,0
3,54,75,0
3,54,0,96
3,59,0,0
3,47,0,0
3,61,75,96
3,54,75,0
3,47,75,0
3,47,0,480
3,54,0,0
3,61,0,0
3,63,75,96
3,54,75,0
3,47,75,0
3,47,0,96
3,54,0,0
3,63,0,0
3,61,75,96
3,54,75,0
3,47,75,0
3,47,0,480
3,54,0,0
3,61,0,0
3,59,75,96
3,54,75,0
3,47,75,0
3,47,0,96
3,54,0,0
3,59,0,0
3,52,75,96
3,68,75,0
3,64,75,0
3,59,75,0
3,59,0,1248
3,52,0,0
3,68,0,0
3,64,0,0
3,66,75,288
3,59,75,0
3,63,75,0
3,63,0,288
3,59,0,0
3,66,0,0
3,68,75,96
3,61,75,0
3,64,75,0
3,64,0,1024
3,61,0,0
3,68,0,0
3,52,75,128
3,68,75,0
3,64,75,0
3,59,75,0
3,59,0,1440
3,52,0,0
3,68,0,0
3,64,0,0
3,66,75,96
3,63,75,0
3,59,75,0
3,59,0,288
3,63,0,0
3,66,0,0
3,68,75,96
3,64,75,0
3,61,75,0
3,61,0,896
3,64,0,0
3,68,0,0
3,59,75,256
3,54,75,0
3,47,75,0
3,47,0,96
3,54,0,0
3,59,0,0
3,47,75,96
3,59,75,0
3,54,75,0
3,54,0,672
3,59,0,0
3,47,0,0
3,47,75,96
3,59,75,0
3,54,75,0
3,54,0,96
3,59,0,0
3,47,0,0
3,47,75,96
3,59,75,0
3,54,75,0
3,54,0,96
3,59,0,0
3,47,0,0
3,47,75,96
3,59,75,0
3,54,75,0
3,54,0,96
3,59,0,0
3,47,0,0
3,59,75,96
3,61,75,0
3,56,75,0
3,56,0,288
3,61,0,0
3,59,0,0
3,56,75,96
3,59,75,0
3,63,75,0
3,56,0,1152
3,63,0,96
3,59,0,0
3,47,75,96
3,59,75,0
3,54,75,0
3,54,0,672
3,59,0,0
3,47,0,0
3,47,75,96
3,59,75,0
3,54,75,0
3,54,0,96
3,59,0,0
3,47,0,0
3,47,75,96
3,59,75,0
3,54,75,0
3,54,0,96
3,59,0,0
3,47,0,0
3,47,75,96
3,59,75,0
3,54,75,0
3,54,0,96
3,59,0,0
3,47,0,0
3,61,75,96
3,56,75,0
3,51,75,0
3,51,0,480
3,56,0,0
3,61,0,0
3,63,75,96
3,56,75,0
3,51,75,0
3,51,0,96
3,56,0,0
3,63,0,0
3,61,75,96
3,56,75,0
3,51,75,0
3,51,0,480
3,56,0,0
3,61,0,0
3,59,75,96
3,56,75,0
3,51,75,0
3,51,0,96
3,56,0,0
3,59,0,0
3,54,75,96
3,58,75,0
3,61,75,0
3,61,0,672
3,58,0,0
3,54,0,0
3,61,75,96
3,54,75,0
3,58,75,0
3,58,0,96
3,54,0,0
3,61,0,0
3,54,75,96
3,61,75,0
