track,note,velocity,time
3,48,93,2636
3,55,87,20
3,60,108,8
3,64,99,8
3,71,99,16
3,71,0,336
3,60,0,4
3,64,0,0
3,64,101,20
3,71,103,0
3,60,96,0
3,48,0,36
3,48,87,160
3,60,0,48
3,64,0,12
3,71,0,8
3,48,0,24
3,55,0,28
3,50,95,40
3,57,104,20
3,62,104,8
3,66,107,4
3,71,108,12
3,66,0,160
3,69,87,16
3,66,106,192
3,50,0,4
3,69,0,8
3,71,0,0
3,57,0,24
3,62,0,16
3,66,0,32
3,59,99,8
3,52,98,0
3,67,107,4
3,64,107,0
3,71,107,4
3,64,0,344
3,64,95,28
3,67,0,164
3,71,0,4
3,67,107,24
3,71,99,0
3,52,0,152
3,64,0,60
3,67,0,32
3,71,0,12
3,52,83,28
3,59,0,8
3,59,106,88
3,71,87,4
3,67,103,0
3,64,115,0
3,71,0,64
3,72,95,32
3,67,0,12
3,64,0,72
3,72,0,12
3,71,88,0
3,67,103,92
3,71,0,4
3,67,0,100
3,64,95,0
3,59,0,16
3,52,0,12
3,64,0,48
3,50,101,8
3,57,101,0
3,62,111,0
3,69,99,0
3,66,126,0
3,50,0,176
3,57,0,4
3,48,98,80
3,69,0,8
3,62,0,0
3,55,82,4
3,66,0,4
3,60,108,8
3,64,99,4
3,71,99,4
3,71,0,336
3,60,0,16
3,64,0,4
3,64,101,12
3,71,103,0
3,60,96,0
3,48,0,108
3,48,86,88
3,48,0,28
3,60,0,20
3,64,0,12
3,71,0,8
3,55,0,76
3,50,95,28
3,62,104,4
3,57,102,4
3,66,107,4
3,71,108,4
3,66,0,164
3,69,87,16
3,66,112,192
3,71,0,4
3,69,0,8
3,50,0,8
3,57,0,24
3,62,0,4
3,66,0,36
3,52,98,8
3,59,104,0
3,67,107,0
3,64,107,0
3,71,107,4
3,64,0,340
3,64,95,28
3,67,0,164
3,71,0,4
3,67,107,24
3,71,99,0
3,52,0,164
3,64,0,48
3,67,0,32
3,71,0,12
3,59,0,4
3,52,87,28
3,59,108,96
3,71,87,0
3,67,103,0
3,64,115,0
3,71,0,64
3,72,95,32
3,67,0,12
3,64,0,72
3,72,0,12
3,71,88,0
3,67,96,92
3,71,0,4
3,52,0,92
3,59,0,4
3,67,0,4
3,64,95,0
3,64,0,76
3,50,96,12
3,57,103,0
3,62,111,0
3,69,99,0
3,66,122,0
3,50,0,188
3,57,0,8
3,48,106,60
3,69,0,8
3,62,0,0
3,55,84,4
3,66,0,4
3,60,108,8
3,64,99,0
3,71,99,8
3,71,0,336
3,60,0,16
3,64,0,0
3,64,101,16
3,71,103,0
3,60,96,0
3,48,0,104
3,48,106,92
3,60,0,48
3,64,0,12
3,71,0,8
3,55,0,4
3,48,0,56
3,50,101,28
3,57,92,8
3,62,104,0
3,66,107,4
3,71,108,12
3,66,0,156
3,69,87,16
3,66,103,192
3,69,0,12
3,50,0,4
3,71,0,0
3,62,0,36
3,57,0,8
3,66,0,24
3,52,106,8
3,59,107,0
3,67,107,4
3,64,107,0
3,71,107,4
3,64,0,344
3,64,95,28
3,67,0,164
3,71,0,4
3,59,0,24
3,67,107,0
3,71,99,0
3,52,0,16
3,40,76,176
3,64,0,20
3,40,0,16
3,67,0,16
3,71,0,12
3,40,107,32
3,52,122,96
3,64,95,0
3,71,102,0
3,67,98,0
3,67,0,88
3,71,0,8
3,64,0,4
3,40,0,60
3,52,0,8
3,50,112,0
3,38,119,0
3,71,108,0
3,67,108,0
3,64,103,0
3,67,0,128
3,71,0,0
3,50,0,0
3,38,0,0
3,64,0,4
3,48,124,60
3,36,127,0
3,71,122,8
3,67,119,0
3,64,117,0
3,48,0,200
3,64,0,8
3,36,0,8
3,67,0,0
3,71,0,16
3,45,115,8
3,33,115,4
3,64,117,0
3,55,106,0
3,59,115,0
3,64,0,328
3,67,112,40
3,64,117,4
3,33,0,92
3,45,0,12
3,45,95,92
3,33,106,0
3,45,0,60
3,33,0,12
3,67,0,56
3,64,0,12
3,33,117,48
3,45,117,4
3,59,0,44
3,55,0,12
3,64,114,136
3,55,111,0
3,59,124,0
3,33,0,72
3,45,0,4
3,45,106,112
3,33,119,0
3,59,0,16
3,55,0,16
3,64,0,0
3,45,0,36
3,33,0,0
3,64,101,8
3,55,112,0
3,60,112,0
3,38,127,4
3,50,126,0
3,55,0,224
3,64,0,8
3,60,0,4
3,67,114,132
3,64,112,0
3,60,119,0
3,38,0,228
3,50,0,20
3,50,112,136
3,38,126,0
3,60,0,80
3,67,0,0
3,64,0,4
3,50,0,68
3,38,0,8
3,67,106,32
3,64,104,0
3,60,111,0
3,50,101,8
3,38,117,0
3,60,0,208
3,64,0,0
3,67,0,12
3,64,98,36
3,60,106,0
3,69,107,0
3,69,0,168
3,64,0,4
3,60,0,28
3,38,0,8
3,50,0,0
3,67,103,40
3,64,98,0
3,60,99,0
3,50,108,64
3,50,0,128
3,60,0,32
3,64,0,0
3,48,93,8
3,67,0,8
3,55,87,0
3,60,108,12
3,64,99,8
3,71,99,4
3,71,0,336
3,60,0,16
3,64,0,0
3,64,101,20
3,71,103,0
3,60,96,0
3,48,0,48
3,48,87,148
3,60,0,48
3,64,0,12
3,71,0,8
3,48,0,24
3,55,0,24
3,50,95,44
3,62,104,8
3,57,104,4
3,66,107,0
3,71,108,8
3,66,0,152
3,69,87,16
3,66,106,192
3,50,0,4
3,69,0,8
3,71,0,8
3,57,0,28
3,62,0,4
3,66,0,32
3,59,99,8
3,52,98,0
3,67,107,4
3,64,107,0
3,71,107,4
3,64,0,344
3,64,95,28
3,67,0,164
3,71,0,4
3,67,107,24
3,71,99,0
3,52,0,152
3,64,0,60
3,67,0,32
3,71,0,12
3,52,83,28
3,59,0,8
3,59,106,88
3,71,87,4
3,67,103,0
3,64,115,0
3,71,0,64
3,72,95,32
3,67,0,12
3,64,0,72
3,72,0,12
3,71,88,0
3,67,101,92
3,71,0,4
3,67,0,100
3,64,95,0
3,59,0,16
3,52,0,12
3,64,0,48
3,50,101,8
3,57,101,0
3,62,111,0
3,69,99,0
3,66,122,0
3,50,0,176
3,57,0,4
3,48,98,80
3,69,0,8
3,62,0,0
3,55,82,4
3,66,0,4
3,60,108,8
3,64,99,4
3,71,99,4
3,71,0,336
3,60,0,16
3,64,0,4
3,64,101,12
3,71,103,0
3,60,96,0
3,48,0,108
3,48,86,88
3,48,0,28
3,60,0,20
3,64,0,12
3,71,0,8
3,55,0,76
3,50,95,8
3,57,102,0
3,62,104,0
3,66,107,4
3,71,108,0
3,66,0,164
3,69,87,16
3,71,0,192
3,66,112,0
3,69,0,12
3,50,0,24
3,57,0,8
3,62,0,8
3,66,0,32
3,52,98,8
3,59,104,0
3,67,107,0
3,64,107,0
3,71,107,4
3,64,0,340
3,64,95,28
3,67,0,164
3,71,0,4
3,67,107,24
3,71,99,0
3,52,0,164
3,64,0,48
3,67,0,32
3,71,0,12
3,59,0,4
3,52,87,28
3,59,108,96
3,71,87,0
3,67,103,0
3,64,115,0
3,71,0,64
3,72,95,32
3,67,0,12
3,64,0,72
3,72,0,12
3,71,88,0
3,71,0,96
3,67,96,4
3,52,0,88
3,59,0,4
3,64,95,4
3,67,0,8
3,64,0,68
3,50,96,12
3,57,103,0
3,62,111,0
3,69,99,0
3,66,122,0
3,50,0,188
3,57,0,8
3,48,106,60
3,69,0,8
3,62,0,0
3,55,84,4
3,66,0,4
3,60,108,8
3,64,99,8
3,71,99,8
3,71,0,336
3,60,0,16
3,64,0,0
3,64,101,16
3,71,103,0
3,60,96,0
3,48,0,104
3,48,106,92
3,60,0,48
3,64,0,12
3,71,0,8
3,55,0,4
3,48,0,56
3,57,92,8
3,50,101,0
3,62,104,0
3,66,107,4
3,71,108,0
3,66,0,168
3,69,87,16
3,71,0,192
3,66,103,0
3,69,0,12
3,50,0,36
3,62,0,4
3,57,0,8
3,66,0,24
3,52,106,8
3,59,107,0
3,67,107,4
3,64,107,0
3,71,107,4
3,64,0,344
3,64,95,28
3,67,0,164
3,71,0,4
3,59,0,24
3,67,107,0
3,71,99,0
3,52,0,16
3,40,76,176
3,64,0,20
3,40,0,16
3,67,0,16
3,71,0,12
3,40,107,32
3,52,122,96
3,64,95,0
3,71,102,0
3,67,98,0
3,67,0,88
3,71,0,8
3,64,0,4
3,40,0,60
3,52,0,8
3,50,112,0
3,38,119,0
3,71,108,0
3,67,108,0
3,64,103,0
3,67,0,128
3,71,0,0
3,50,0,0
3,38,0,0
3,64,0,4
3,48,124,60
3,36,127,0
3,71,122,8
3,67,119,0
3,64,117,0
3,48,0,200
3,64,0,8
3,36,0,8
3,67,0,0
3,71,0,16
3,45,115,8
3,33,115,4
3,64,121,0
3,55,106,0
3,59,115,0
3,64,0,328
3,67,112,40
3,64,121,4
3,33,0,92
3,45,0,12
3,45,95,92
3,33,106,0
3,45,0,60
3,33,0,12
3,67,0,56
3,64,0,12
3,33,117,48
3,45,117,4
3,59,0,44
3,55,0,12
3,64,114,136
3,55,111,0
3,59,124,0
3,33,0,72
3,45,0,4
3,45,106,112
3,33,119,0
3,59,0,16
3,55,0,16
3,64,0,0
3,45,0,36
3,33,0,0
3,64,101,8
3,55,112,0
3,60,112,0
3,38,127,4
3,50,126,0
3,55,0,224
3,64,0,8
3,60,0,4
3,67,114,132
3,64,112,0
3,60,119,0
3,38,0,228
3,50,0,20
3,50,112,136
3,38,126,0
3,60,0,80
3,67,0,0
3,64,0,4
3,50,0,68
3,38,0,8
3,67,106,32
3,64,104,0
3,60,111,0
3,50,101,8
3,38,117,0
3,60,0,208
3,64,0,0
3,67,0,12
3,64,98,36
3,60,106,0
3,69,107,0
3,69,0,168
3,64,0,4
3,60,0,28
3,38,0,8
3,50,0,0
3,67,103,40
3,64,98,0
3,60,99,0
3,38,101,64
3,50,108,0
3,67,0,124
3,64,0,12
3,60,0,16
3,38,0,8
3,50,0,0
3,43,102,32
3,59,92,8
3,66,98,4
3,62,92,0
3,43,0,460
3,43,83,100
3,43,0,68
3,59,0,36
3,62,0,12
3,66,0,12
3,43,99,64
3,74,97,192
3,71,95,0
3,74,0,316
3,71,0,8
3,43,0,236
3,36,93,8
3,71,90,0
3,67,88,0
3,64,82,0
3,64,0,328
3,67,0,0
3,71,0,48
3,67,91,4
3,64,92,0
3,59,87,0
3,36,0,64
3,36,87,124
3,36,0,72
3,36,93,116
3,59,0,4
3,64,0,12
3,67,0,12
3,64,94,168
3,67,97,4
3,74,97,4
3,67,0,196
3,74,0,4
3,64,0,4
3,64,95,108
3,67,97,0
3,72,98,0
3,72,0,192
3,67,0,0
3,64,0,12
3,43,99,8
3,62,88,0
3,66,98,0
3,71,86,0
3,36,0,4
3,71,0,240
3,62,0,0
3,66,0,12
3,66,97,120
3,62,82,0
3,69,97,0
3,43,0,68
3,66,0,28
3,69,0,0
3,62,0,4
3,43,88,92
3,66,102,0
3,62,90,0
3,43,0,60
3,43,98,132
3,66,0,176
3,62,0,12
3,59,93,204
3,62,97,0
3,66,92,0
3,62,0,272
3,59,0,0
3,66,0,8
3,55,84,8
3,36,90,4
3,64,90,4
3,59,84,0
3,43,0,4
3,55,0,344
3,59,0,8
3,64,0,4
3,36,0,64
3,36,84,140
3,67,90,0
3,64,90,0
3,59,67,8
3,36,0,64
3,36,87,120
3,62,94,200
3,64,0,4
3,59,0,376
3,62,0,0
3,67,0,12
3,36,0,160
3,40,101,8
3,59,81,0
3,68,85,0
3,63,89,0
3,59,0,168
3,63,0,24
3,68,0,8
3,68,73,168
3,78,80,0
3,73,70,0
3,73,0,56
3,68,0,4
3,78,0,4
3,40,0,0
3,40,95,128
3,78,91,0
3,68,96,0
3,73,84,0
3,40,0,68
3,40,92,120
3,78,0,28
3,73,0,0
3,68,0,24
3,64,91,144
3,71,85,0
3,68,94,0
3,64,0,356
3,68,0,16
3,71,0,8
3,40,0,168
3,33,87,12
3,67,92,0
3,64,87,0
3,60,90,0
3,60,0,212
3,64,0,20
3,67,0,0
3,74,80,144
3,71,75,0
3,67,80,0
3,71,0,40
3,74,0,16
3,67,0,8
3,33,0,4
3,33,80,120
3,71,88,4
3,67,90,0
3,74,95,0
3,33,0,68
3,33,92,120
3,67,0,60
3,71,0,4
3,74,0,8
3,72,99,120
3,67,87,0
3,72,0,352
3,67,0,8
3,33,0,200
3,38,109,8
3,66,92,0
3,62,83,0
3,69,87,0
3,38,0,420
3,38,87,140
3,66,0,16
3,69,0,16
3,62,0,0
3,38,0,36
3,38,102,124
3,66,88,4
3,62,80,0
3,69,91,0
3,38,0,476
3,66,0,44
3,62,0,16
3,69,0,0
3,38,79,40
3,38,0,72
3,38,111,120
3,67,77,8
3,71,87,0
3,62,87,0
3,62,0,72
3,67,0,0
3,71,0,20
3,71,91,88
3,74,80,0
3,67,80,4
3,67,0,80
3,74,0,4
3,71,0,8
3,38,0,0
3,67,91,96
3,71,92,0
3,62,91,0
3,38,85,4
3,71,0,224
3,67,0,12
3,62,0,8
3,38,0,8
3,62,87,8
3,69,90,0
3,66,92,4
3,38,115,8
3,38,0,360
3,66,0,76
3,69,0,8
3,62,0,0
3,48,85,8
3,55,80,24
3,60,99,8
3,64,91,8
3,71,91,16
3,71,0,336
3,60,0,4
3,64,0,0
3,64,92,20
3,71,94,0
3,60,88,0
3,48,0,36
3,48,80,160
3,60,0,48
3,64,0,12
3,71,0,8
3,48,0,24
3,55,0,28
3,50,87,32
3,57,95,24
3,62,95,4
3,66,98,8
3,71,99,8
3,66,0,152
3,69,80,16
3,50,0,188
3,66,97,4
3,69,0,12
3,71,0,8
3,57,0,12
3,62,0,16
3,66,0,36
3,59,91,8
3,52,90,0
3,67,98,4
3,64,98,0
3,71,98,4
3,64,0,344
3,64,87,28
3,67,0,164
3,71,0,4
3,67,98,24
3,71,91,0
3,52,0,152
3,64,0,60
3,67,0,32
3,71,0,12
3,52,76,28
3,59,0,8
3,59,97,88
3,71,80,4
3,67,94,0
3,64,105,0
3,71,0,64
3,72,87,32
3,67,0,12
3,64,0,72
3,72,0,12
3,71,81,0
3,71,0,96
3,67,89,4
3,64,87,96
3,67,0,8
3,59,0,8
3,52,0,12
3,64,0,48
3,50,92,8
3,57,92,0
3,62,101,0
3,69,91,0
3,66,115,0
3,50,0,176
3,57,0,4
3,48,90,80
3,69,0,8
3,62,0,0
3,55,75,4
3,66,0,4
3,60,99,8
3,64,91,4
3,71,91,4
3,71,0,336
3,60,0,16
3,64,0,4
3,64,92,12
3,71,94,0
3,60,88,0
3,48,0,108
3,48,79,88
3,48,0,28
3,60,0,20
3,64,0,12
3,71,0,8
3,55,0,76
3,50,87,12
3,57,93,24
3,62,95,4
3,66,98,8
3,71,99,12
3,66,0,152
3,69,80,16
3,66,102,192
3,50,0,4
3,69,0,8
3,71,0,8
3,57,0,16
3,62,0,12
3,66,0,36
3,52,90,8
3,59,95,0
3,67,98,0
3,64,98,0
3,71,98,4
3,64,0,340
3,64,87,28
3,67,0,164
3,71,0,4
3,67,98,24
3,71,91,0
3,52,0,164
3,64,0,48
3,67,0,32
3,71,0,12
3,59,0,4
3,52,80,28
3,59,99,96
3,71,80,0
3,67,94,0
3,64,105,0
3,71,0,64
3,72,87,32
3,67,0,12
3,64,0,72
3,72,0,12
3,71,81,0
3,67,78,92
3,71,0,4
3,52,0,92
3,59,0,4
3,67,0,4
3,64,87,0
3,64,0,76
3,50,88,12
3,57,94,0
3,62,101,0
3,69,91,0
3,66,111,0
3,50,0,188
3,57,0,8
3,48,97,60
3,69,0,8
3,62,0,0
3,55,77,4
3,66,0,4
3,60,99,8
3,64,91,8
3,71,91,8
3,71,0,336
3,60,0,16
3,64,0,0
3,64,92,16
3,71,94,0
3,60,88,0
3,48,0,104
3,48,97,92
3,60,0,48
3,64,0,12
3,71,0,8
3,55,0,4
3,48,0,56
3,50,92,28
3,57,84,8
3,62,95,0
3,66,98,4
3,71,99,12
3,66,0,156
3,69,80,16
3,66,94,192
3,69,0,12
3,50,0,4
