track,note,velocity,time
1,35,84,2684
1,35,84,32
1,35,94,32
1,35,84,32
1,35,84,32
1,35,84,32
1,35,94,32
1,35,84,32
1,35,84,32
1,35,84,32
1,35,94,32
1,35,84,32
1,35,84,32
1,35,84,32
1,35,94,32
1,35,84,32
1,35,84,32
1,35,84,32
1,35,94,32
1,35,84,32
1,35,84,44
1,35,84,32
1,35,94,32
1,35,84,32
1,35,84,32
1,35,84,32
1,35,94,32
1,35,84,36
1,35,84,32
1,35,84,32
1,35,94,32
1,35,84,32
1,35,84,32
1,35,84,32
1,35,94,32
1,35,84,32
1,35,84,32
1,35,84,32
1,35,94,32
1,35,84,32
1,35,84,32
1,35,84,32
1,35,94,32
1,35,84,32
1,35,84,32
1,35,84,32
1,35,94,32
1,35,84,32
1,35,84,32
1,35,84,32
1,35,94,32
1,35,84,32
1,35,84,32
1,35,84,32
1,35,94,32
1,35,84,32
1,35,84,32
1,35,84,32
1,35,94,32
1,35,84,32
1,35,84,32
1,35,84,32
1,35,94,32
1,35,84,32
1,35,84,32
1,35,84,32
1,35,94,32
1,35,84,32
1,35,84,32
1,35,84,32
1,35,94,32
1,35,84,32
1,35,84,32
1,35,84,32
1,35,94,32
1,35,84,32
1,35,84,32
1,35,84,32
1,35,94,32
1,35,84,32
1,35,84,32
1,35,84,32
1,35,94,32
1,35,84,32
1,35,84,32
1,35,84,32
1,35,94,32
1,35,84,32
1,35,84,32
1,35,84,32
1,35,94,32
1,35,84,32
1,35,84,32
1,35,84,32
1,35,94,32
1,35,84,32
1,35,84,32
1,35,84,32
1,35,94,32
1,35,84,32
1,35,84,32
1,35,84,32
1,35,94,32
1,35,84,32
1,35,84,32
1,35,84,32
1,35,94,32
1,35,84,32
1,35,84,32
1,35,84,32
1,35,94,32
1,35,84,32
1,35,84,32
1,35,84,32
1,35,94,32
1,35,84,32
1,35,84,32
1,35,84,32
1,35,94,32
1,35,84,32
1,35,84,32
1,35,84,32
1,35,94,32
1,35,84,32
1,35,84,32
1,35,84,32
1,35,94,32
1,35,84,32
1,40,94,32
1,40,94,32
1,40,94,32
1,40,94,32
1,40,94,32
1,40,94,32
1,40,94,32
1,37,94,32
1,37,94,48
1,37,94,40
1,37,94,32
1,37,94,32
1,37,94,32
1,37,94,40
1,35,94,32
1,37,94,32
1,40,94,32
1,40,94,32
1,40,94,40
1,40,94,40
1,40,94,40
1,40,94,40
1,40,94,32
1,37,94,32
1,37,94,32
1,37,94,32
1,37,94,32
1,37,94,32
1,37,94,48
1,37,94,32
1,37,94,32
1,35,94,32
1,35,94,32
1,35,94,32
1,35,94,32
1,35,94,32
1,35,94,32
1,35,94,32
1,35,94,32
1,35,94,32
1,32,94,32
1,32,94,48
1,32,94,32
1,32,94,32
1,32,94,32
1,32,94,32
1,32,94,32
1,34,94,32
1,35,94,32
1,35,94,40
1,35,94,32
1,35,94,32
1,35,94,32
1,35,94,32
1,35,94,32
1,35,94,32
1,32,94,32
1,32,94,32
1,32,94,32
1,32,94,32
1,32,94,32
1,32,94,32
1,28,94,32
1,30,94,32
1,42,94,32
1,42,94,32
1,42,94,32
1,42,94,36
1,42,94,32
1,42,94,32
1,42,94,32
1,42,94,32
1,42,94,32
1,42,94,32
1,42,94,32
1,42,94,32
1,42,94,32
1,42,94,44
1,42,94,32
1,42,94,44
1,42,94,32
1,42,94,32
1,42,94,32
1,42,94,32
1,42,94,32
1,42,94,32
1,42,94,32
1,42,94,44
1,42,94,44
1,42,94,44
1,42,94,44
1,42,94,32
1,42,94,32
1,42,94,32
1,44,94,32
1,42,94,32
1,40,94,32
1,40,94,44
1,40,94,32
1,40,94,32
1,40,94,32
1,40,94,32
1,40,94,32
1,37,94,32
1,37,94,32
1,37,94,40
1,37,94,32
1,37,94,32
1,37,94,32
1,37,94,48
1,35,94,32
1,37,94,32
1,40,94,32
1,40,94,32
1,40,94,32
1,40,94,32
1,40,94,32
1,40,94,32
1,40,94,32
1,37,94,40
1,37,94,32
1,37,94,32
1,37,94,32
1,37,94,32
1,37,94,32
1,37,94,32
1,37,94,32
1,35,94,32
1,35,84,32
1,35,84,32
1,35,94,32
1,35,84,40
1,35,84,32
1,35,84,32
1,35,94,40
1,35,84,32
1,35,84,32
1,35,84,32
1,35,94,48
1,35,84,32
1,35,84,32
1,35,84,32
1,35,94,32
1,35,84,32
1,35,84,32
1,35,84,32
1,35,94,32
1,35,84,32
1,35,84,48
1,35,84,32
1,35,94,32
1,35,84,32
1,35,84,32
1,35,84,40
1,35,94,32
1,35,84,32
1,35,84,32
1,35,84,32
1,35,94,48
1,35,84,32
1,35,84,32
1,35,84,32
1,35,94,32
1,35,84,32
1,35,84,32
1,35,84,32
1,35,94,32
1,35,84,32
1,35,84,32
1,35,84,32
1,35,94,32
1,35,84,32
1,35,84,32
1,35,84,32
1,35,94,32
1,35,84,32
1,35,84,32
1,35,84,32
1,35,94,32
1,35,84,32
1,35,84,32
1,35,84,32
1,35,94,32
1,35,84,32
1,35,84,32
1,35,84,32
1,35,94,32
1,35,84,36
1,35,84,32
1,35,84,32
1,35,94,32
1,35,84,32
1,35,84,32
1,35,84,32
1,35,94,32
1,35,84,32
1,35,84,32
1,35,84,32
1,35,94,32
1,35,84,32
1,35,84,32
1,35,84,32
1,35,94,32
1,35,84,32
1,35,84,32
1,35,84,32
1,35,94,32
1,35,84,32
1,35,84,32
1,35,84,32
1,35,94,32
1,35,84,32
1,35,84,32
1,35,84,32
1,35,94,32
1,35,84,32
1,35,84,32
1,35,84,32
1,35,94,32
1,35,84,32
1,35,84,32
1,35,84,32
1,35,94,32
1,35,84,32
1,40,94,32
1,40,94,32
1,40,94,32
1,40,94,32
1,40,94,32
1,40,94,32
1,40,94,32
1,37,94,32
1,37,94,48
1,37,94,40
1,37,94,32
1,37,94,32
1,37,94,32
1,37,94,40
1,35,94,32
1,37,94,32
1,40,94,32
1,40,94,32
1,40,94,40
1,40,94,40
1,40,94,40
1,40,94,40
1,40,94,32
1,37,94,32
1,37,94,32
1,37,94,32
1,37,94,32
1,37,94,32
1,37,94,48
1,37,94,32
1,37,94,32
1,35,94,32
1,35,94,32
1,35,94,32
1,35,94,32
1,35,94,32
1,35,94,32
1,35,94,32
1,35,94,32
1,35,94,32
1,32,94,32
1,32,94,48
1,32,94,32
1,32,94,32
1,32,94,32
1,32,94,32
1,32,94,32
1,34,94,32
1,35,94,32
1,35,94,36
1,35,94,32
1,35,94,32
1,35,94,32
1,35,94,32
1,35,94,32
1,35,94,32
1,32,94,32
1,32,94,32
1,32,94,32
1,32,94,32
1,32,94,32
1,32,94,32
1,28,94,32
1,30,94,32
1,42,94,36
1,42,94,32
1,42,94,32
1,42,94,44
1,42,94,32
1,42,94,32
1,42,94,32
1,42,94,32
1,42,94,32
1,42,94,32
1,42,94,32
1,42,94,32
1,42,94,32
1,42,94,44
1,42,94,32
1,42,94,40
1,42,94,32
1,42,94,32
1,42,94,32
1,42,94,32
1,42,94,32
1,42,94,32
1,42,94,32
1,42,94,40
1,42,94,40
1,42,94,40
1,42,94,40
1,42,94,32
1,42,94,32
1,42,94,32
1,44,94,32
1,42,94,32
1,40,94,32
1,40,94,40
1,40,94,32
1,40,94,32
1,40,94,32
1,40,94,32
1,40,94,32
1,37,94,32
1,37,94,32
1,37,94,40
1,37,94,32
1,37,94,32
1,37,94,32
1,37,94,48
1,35,94,32
1,37,94,32
1,40,94,32
1,40,94,32
1,40,94,32
1,40,94,32
1,40,94,32
1,40,94,32
1,40,94,32
1,37,94,40
1,37,94,32
1,37,94,32
1,37,94,32
1,37,94,32
1,37,94,32
1,37,94,32
1,37,94,32
1,35,94,32
1,35,84,32
1,35,84,32
1,35,94,40
1,35,84,32
1,35,84,32
1,35,84,32
1,35,94,32
1,35,84,32
1,35,84,32
1,35,84,40
1,35,94,32
1,35,84,48
1,35,84,32
1,35,84,32
1,35,94,32
1,35,84,32
1,35,84,32
1,35,84,32
1,35,94,32
1,35,84,32
1,35,84,44
1,35,84,48
1,35,94,32
1,35,84,32
1,35,84,32
1,35,84,32
1,35,94,32
1,35,84,36
1,35,84,32
1,35,84,44
1,35,94,44
1,35,84,32
1,35,84,32
1,35,84,44
1,35,94,32
1,35,84,32
1,35,84,48
1,35,84,32
1,35,94,32
1,35,84,32
1,35,84,32
1,35,84,44
1,35,94,32
1,35,84,32
1,35,84,32
1,35,84,32
1,35,94,44
1,35,84,32
1,35,84,32
1,35,84,32
1,35,94,32
1,35,84,32
1,35,84,32
1,35,84,48
1,35,94,32
1,35,84,32
1,35,94,32
1,35,94,32
1,35,94,40
1,35,94,32
1,35,94,40
1,35,94,32
1,35,94,40
1,34,94,32
1,32,94,32
1,32,94,32
1,32,94,40
1,32,94,32
1,32,94,32
1,32,94,36
1,32,94,32
1,35,94,32
1,35,94,80
1,35,94,32
1,35,94,32
1,35,94,32
1,35,94,32
1,35,94,32
1,35,94,32
1,40,94,32
1,40,94,32
1,40,94,32
1,40,94,32
1,40,94,32
1,40,94,32
1,40,94,32
1,41,94,32
1,42,94,32
1,42,94,40
1,42,94,32
1,42,94,48
1,42,94,32
1,42,94,32
1,37,94,48
1,34,94,32
1,32,94,32
1,32,94,32
1,32,94,32
1,32,94,32
1,32,94,40
1,32,94,40
1,32,94,32
1,35,94,40
1,35,94,80
1,35,94,32
1,35,94,32
1,35,94,32
1,35,94,32
1,35,94,32
1,35,94,32
1,40,94,32
1,40,94,40
1,40,94,32
1,40,94,32
1,40,94,40
1,40,94,40
1,40,94,40
1,40,94,32
1,42,94,32
1,42,94,40
1,42,94,32
1,42,94,32
1,42,94,32
1,42,94,32
1,42,94,32
1,42,94,32
1,35,84,32
1,35,84,32
1,35,94,32
1,35,84,32
1,35,84,32
1,35,84,32
1,35,94,32
1,35,84,32
1,35,84,32
1,35,84,32
1,35,94,32
1,35,84,32
1,35,84,32
1,35,84,32
1,35,94,32
1,35,84,32
1,35,84,32
1,35,84,32
1,35,94,32
1,35,84,32
1,35,84,32
1,35,84,32
1,35,94,32
1,35,84,32
1,35,84,32
1,35,84,32
1,35,94,32
1,35,84,36
1,35,84,32
1,35,84,32
1,35,94,32
1,35,84,32
1,35,84,32
1,35,84,32
1,35,94,32
1,35,84,32
1,35,84,32
1,35,84,32
1,35,94,32
1,35,84,32
1,35,84,32
1,35,84,32
1,35,94,32
1,35,84,32
1,35,84,32
1,35,84,32
1,35,94,32
1,35,84,32
1,35,84,32
1,35,84,32
1,35,94,32
1,35,84,32
1,35,84,32
1,35,84,32
1,35,94,32
1,35,84,32
1,35,84,32
1,35,84,32
1,35,94,32
1,35,84,32
1,35,84,32
1,35,84,32
1,35,94,32
1,35,84,32
1,40,94,48
1,40,94,32
1,40,94,32
1,40,94,32
1,40,94,32
1,40,94,32
1,40,94,32
1,37,94,32
1,37,94,48
1,37,94,40
1,37,94,32
1,37,94,32
1,37,94,32
1,37,94,40
1,35,94,32
1,37,94,32
1,40,94,32
1,40,94,32
1,40,94,40
1,40,94,40
1,40,94,40
1,40,94,40
1,40,94,32
1,37,94,32
1,37,94,32
1,37,94,32
1,37,94,32
1,37,94,32
1,37,94,48
1,37,94,32
1,37,94,32
1,35,94,32
1,35,94,32
1,35,94,32
1,35,94,32
1,35,94,32
1,35,94,32
1,35,94,32
1,35,94,32
1,35,94,32
1,32,94,32
1,32,94,48
1,32,94,32
1,32,94,32
1,32,94,32
1,32,94,32
1,32,94,32
1,34,94,32
1,35,94,32
1,35,94,44
1,35,94,32
1,35,94,32
1,35,94,32
1,35,94,32
1,35,94,32
1,35,94,32
1,32,94,32
1,32,94,32
1,32,94,32
1,32,94,32
1,32,94,32
1,32,94,32
1,28,94,32
1,30,94,32
1,42,94,36
1,42,94,32
1,42,94,32
1,42,94,40
1,42,94,32
1,42,94,32
1,42,94,32
1,42,94,32
1,42,94,32
1,42,94,32
1,42,94,32
1,42,94,32
1,42,94,32
1,42,94,40
1,42,94,32
1,42,94,40
1,42,94,32
1,42,94,32
1,42,94,32
1,42,94,32
1,42,94,32
1,42,94,32
1,42,94,32
1,42,94,40
1,42,94,40
1,42,94,40
1,42,94,40
1,42,94,32
1,42,94,32
1,42,94,32
1,44,94,32
1,42,94,32
1,40,94,32
1,40,94,40
1,40,94,32
1,40,94,32
1,40,94,32
1,40,94,32
1,40,94,32
1,37,94,32
1,37,94,32
1,37,94,40
1,37,94,32
1,37,94,32
1,37,94,32
1,37,94,48
1,35,94,32
1,37,94,32
1,40,94,32
1,40,94,32
1,40,94,32
1,40,94,32
1,40,94,32
1,40,94,32
1,40,94,32
1,37,94,40
1,37,94,32
1,37,94,32
1,37,94,32
1,37,94,32
1,37,94,32
1,37,94,32
1,37,94,32
1,35,94,32
1,42,94,32
1,42,94,32
1,42,94,32
1,42,94,40
1,42,94,32
1,42,94,32
1,42,94,32
1,42,94,32
1,42,94,32
1,42,94,32
1,42,94,32
1,42,94,32
1,42,94,32
1,42,94,44
1,42,94,32
1,42,94,44
1,42,94,32
1,42,94,32
1,42,94,32
1,42,94,32
1,42,94,32
1,42,94,32
1,42,94,32
1,42,94,44
1,42,94,44
1,42,94,44
1,42,94,44
1,42,94,32
1,42,94,32
1,42,94,32
1,44,94,32
1,42,94,32
1,40,94,32
1,40,94,44
1,40,94,32
1,40,94,32
1,40,94,32
1,40,94,32
1,40,94,32
1,37,94,32
1,37,94,32
1,37,94,40
1,37,94,32
1,37,94,32
1,37,94,32
1,37,94,48
1,35,94,32
1,37,94,32
1,40,94,32
1,40,94,32
1,40,94,32
1,40,94,32
1,40,94,32
1,40,94,32
1,40,94,32
1,37,94,40
1,37,94,32
1,37,94,32
1,37,94,32
1,37,94,32
1,37,94,32
1,37,94,32
1,37,94,32
1,35,94,32
1,35,84,32
1,35,84,32
1,35,94,40
1,35,84,40
1,35,84,32
1,35,84,32
1,35,94,32
1,35,84,32
1,35,84,32
1,35,84,32
1,35,94,32
1,35,84,32
1,35,84,48
1,35,84,32
1,35,94,32
1,35,84,48
1,35,84,32
1,35,84,40
1,35,94,32
1,35,84,32
1,35,84,44
1,35,84,40
1,35,94,32
1,35,84,40
1,35,84,40
1,35,84,32
1,35,94,32
1,35,84,36
1,35,84,32
1,35,84,32
1,35,94,32
1,35,84,32
1,35,84,32
1,35,84,32
1,35,94,32
1,35,84,32
1,35,84,32
1,35,84,32
1,35,94,32
1,35,84,48
1,35,84,32
1,35,84,32
1,35,94,44
1,35,84,32
1,35,84,32
1,35,84,32
1,35,94,32
1,35,84,32
1,35,84,48
1,35,84,32
1,35,94,32
1,35,84,48
1,35,84,32
1,35,84,32
1,35,94,32
1,35,84,32
1,35,84,32
1,35,84,32
1,35,94,32
1,35,84,32
1,35,84,32
1,35,84,32
1,35,94,32
1,35,84,32
1,35,84,32
1,35,84,32
1,35,94,32
1,35,84,32
1,35,84,32
1,35,84,32
1,35,94,32
1,35,84,32
1,35,84,32
1,35,84,32
1,35,94,32
1,35,84,32
1,35,84,32
1,35,84,32
1,35,94,32
1,35,84,32
1,35,84,32
1,35,84,40
1,35,94,48
1,35,84,32
1,35,84,44
1,35,84,48
1,35,94,32
1,35,84,32
1,35,84,48
1,35,84,32
1,35,94,32
1,35,84,48
1,35,84,32
1,35,84,32
1,35,94,40
1,35,84,32
1,35,84,32
1,35,84,32
1,35,94,32
1,35,84,32
1,35,84,32
1,35,84,32
1,35,94,32
1,35,84,32
1,35,84,32
1,35,84,32
1,35,94,32
1,35,84,32
1,35,84,32
1,35,84,32
1,35,94,32
1,35,84,32
1,35,84,32
1,35,84,32
1,35,94,32
1,35,84,32
1,35,84,32
1,35,84,32
1,35,94,32
1,35,84,48
1,35,84,32
1,35,84,40
1,35,94,48
1,35,84,40
1,35,84,32
1,35,84,40
1,35,94,32
1,35,84,32
1,35,84,32
1,35,84,32
1,35,94,32
1,35,84,32
1,35,84,32
1,35,84,32
1,35,94,32
1,35,84,32
1,35,84,32
1,35,84,32
