track,note,velocity,time
1,43,55,0
1,36,98,4
1,36,92,72
1,36,96,80
1,36,92,80
1,45,55,80
1,36,98,4
1,36,92,72
1,36,96,80
1,36,92,80
1,43,55,80
1,36,98,4
1,36,92,72
1,36,96,80
1,36,92,80
1,45,55,80
1,36,98,4
1,36,92,72
1,36,96,80
1,36,92,80
1,43,55,80
1,36,98,4
1,36,92,72
1,36,96,80
1,36,92,80
1,45,55,80
1,36,98,4
1,36,92,72
1,36,96,80
1,36,92,80
1,43,55,80
1,36,98,4
1,36,92,72
1,36,96,80
1,36,92,80
1,45,55,80
1,36,98,4
1,36,92,72
1,36,96,80
1,36,92,80
1,43,55,80
1,36,98,4
1,40,55,8
1,36,92,72
1,36,96,80
1,36,92,80
1,45,55,80
1,36,98,4
1,36,92,72
1,36,96,80
1,36,92,80
1,43,55,80
1,36,98,4
1,36,92,72
1,36,96,80
1,36,92,80
1,45,55,80
1,36,98,4
1,36,92,72
1,36,96,80
1,36,92,80
1,43,55,80
1,36,98,4
1,40,55,8
1,36,92,72
1,36,96,80
1,36,92,80
1,45,55,80
1,36,98,4
1,36,92,72
1,36,96,80
1,36,92,80
1,43,55,80
1,36,98,4
1,40,55,8
1,36,92,72
1,36,96,80
1,36,92,80
1,45,55,80
1,36,98,4
1,36,92,72
1,36,96,80
1,36,92,80
1,41,105,80
1,41,102,80
1,41,106,80
1,41,102,80
1,38,108,80
1,38,102,80
1,38,106,80
1,38,102,80
1,41,108,80
1,41,102,80
1,41,106,80
1,41,102,80
1,38,108,80
1,38,102,80
1,38,106,80
1,38,102,80
1,43,55,80
1,36,98,4
1,36,92,72
1,36,96,80
1,36,92,80
1,43,55,80
1,33,98,4
1,33,92,72
1,33,96,80
1,33,92,80
1,43,55,80
1,36,98,4
1,36,92,72
1,36,96,80
1,36,92,80
1,43,55,80
1,33,98,4
1,33,92,72
1,33,96,80
1,33,92,80
1,38,55,80
1,31,98,4
1,31,92,72
1,31,96,80
1,31,92,80
1,38,55,80
1,31,98,4
1,31,92,72
1,31,96,80
1,31,92,80
1,38,55,80
1,31,98,4
1,31,92,72
1,31,96,80
1,31,92,80
1,38,55,80
1,31,98,4
1,31,92,72
1,31,96,80
1,31,92,80
1,36,55,80
1,29,98,4
1,29,92,72
1,29,96,80
1,29,92,80
1,38,55,80
1,26,98,4
1,26,92,72
1,26,96,80
1,26,92,80
1,36,55,80
1,29,98,4
1,29,92,72
1,29,96,80
1,29,92,80
1,38,55,80
1,26,98,4
1,26,92,72
1,26,96,80
1,26,92,80
1,40,55,80
1,43,55,0
1,36,98,4
1,36,92,72
1,36,96,80
1,36,92,80
1,45,55,80
1,36,98,4
1,36,92,72
1,36,96,80
1,36,92,80
1,40,55,80
1,43,55,0
1,36,98,4
1,36,92,72
1,36,96,80
1,36,92,80
1,45,55,80
1,36,98,4
1,36,92,72
1,36,96,80
1,36,92,80
1,43,55,80
1,36,98,4
1,40,55,8
1,36,92,72
1,36,96,80
1,36,92,80
1,45,55,80
1,36,98,4
1,36,92,72
1,36,96,80
1,36,92,80
1,43,55,80
1,36,98,4
1,36,92,72
1,36,96,80
1,36,92,80
1,45,55,80
1,36,98,4
1,36,92,72
1,36,96,80
1,36,92,80
1,43,55,80
1,36,98,4
1,40,55,8
1,36,92,72
1,36,96,80
1,36,92,80
1,45,55,80
1,36,98,4
1,36,92,72
1,36,96,80
1,36,92,80
1,43,55,80
1,36,98,4
1,40,55,8
1,36,92,72
1,36,96,80
1,36,92,80
1,45,55,80
1,36,98,4
1,36,92,72
1,36,96,80
1,36,92,80
1,41,118,80
1,41,110,80
1,41,115,80
1,41,110,80
1,38,118,80
1,38,110,80
1,38,115,80
1,38,110,80
1,41,118,80
1,41,110,80
1,41,115,80
1,41,110,80
1,38,118,80
1,38,110,80
1,38,115,80
1,38,110,80
1,43,55,80
1,36,98,4
1,36,92,72
1,36,96,80
1,36,92,80
1,43,55,80
1,33,98,4
1,33,92,72
1,33,96,80
1,33,92,80
1,43,55,80
1,36,98,4
1,36,92,72
1,36,96,80
1,36,92,80
1,43,55,80
1,33,98,4
1,33,92,72
1,33,96,80
1,33,92,80
1,38,55,80
1,31,98,4
1,31,92,72
1,31,96,80
1,31,92,80
1,38,55,80
1,31,98,4
1,31,92,72
1,31,96,80
1,31,92,80
1,38,55,80
1,31,98,4
1,31,92,72
1,31,96,80
1,31,92,80
1,38,55,80
1,31,98,4
1,31,92,72
1,31,96,80
1,31,92,80
1,36,55,80
1,29,98,4
1,29,92,72
1,29,96,80
1,29,92,80
1,38,55,80
1,26,98,4
1,26,92,72
1,26,96,80
1,26,92,80
1,36,55,80
1,29,98,4
1,29,92,72
1,29,96,80
1,29,92,80
1,38,55,80
1,26,98,4
1,26,92,72
1,26,96,80
1,26,92,80
1,40,55,80
1,43,55,0
1,36,98,4
1,36,92,72
1,36,96,80
1,36,92,80
1,45,55,80
1,36,98,4
1,36,92,72
1,36,96,80
1,36,92,80
1,40,55,80
1,43,55,0
1,36,98,4
1,36,92,72
1,36,96,80
1,36,92,80
1,45,55,80
1,36,98,4
1,36,92,72
1,36,96,80
1,36,92,80
1,43,55,80
1,36,98,4
1,40,55,8
1,36,92,72
1,36,96,80
1,36,92,80
1,45,55,80
1,36,98,4
1,36,92,72
1,36,96,80
1,36,92,80
1,43,55,80
1,36,103,4
1,40,55,8
1,36,102,72
1,36,109,80
1,36,112,80
1,45,55,80
1,36,118,4
1,36,122,72
1,36,126,80
1,36,122,80
1,33,98,80
1,45,55,0
1,33,92,80
1,33,96,80
1,33,92,80
1,43,55,80
1,36,98,4
1,36,92,72
1,36,96,80
1,36,92,80
1,41,55,80
1,29,98,4
1,29,92,72
1,29,96,80
1,29,92,80
1,43,55,80
1,31,98,4
1,31,92,72
1,31,96,80
1,31,92,80
1,33,98,80
1,45,55,0
1,33,92,80
1,33,96,80
1,33,92,80
1,43,55,80
1,36,98,4
1,36,92,72
1,36,96,80
1,36,92,80
1,41,55,80
1,29,98,4
1,29,92,72
1,29,96,80
1,29,92,80
1,43,55,80
1,31,98,4
1,31,92,72
1,31,96,80
1,31,92,80
1,43,55,80
1,36,98,4
1,40,55,8
1,36,92,72
1,36,96,80
1,36,92,80
1,45,55,80
1,36,98,4
1,36,92,72
1,36,96,80
1,36,92,80
1,43,55,80
1,36,98,4
1,36,92,72
1,36,96,80
1,36,92,80
1,45,55,80
1,36,98,4
1,36,92,72
1,36,96,80
1,36,92,80
1,43,55,80
1,36,98,4
1,40,55,8
1,36,92,72
1,36,96,80
1,36,92,80
1,45,55,80
1,36,98,4
1,36,92,72
1,36,96,80
1,36,92,80
1,43,55,80
1,36,98,4
1,40,55,8
1,36,92,72
1,36,96,80
1,36,92,80
1,45,55,80
1,36,98,4
1,36,92,72
1,36,96,80
1,36,92,80
1,41,118,80
1,41,110,80
1,41,115,80
1,41,110,80
1,38,118,80
1,38,110,80
1,38,115,80
1,38,110,80
1,41,118,80
1,41,110,80
1,41,115,80
1,41,110,80
1,38,118,80
1,38,110,80
1,38,115,80
1,38,110,80
1,43,55,80
1,36,98,4
1,36,92,72
1,36,96,80
1,36,92,80
1,43,55,80
1,33,98,4
1,33,92,72
1,33,96,80
1,33,92,80
1,43,55,80
1,36,98,4
1,36,92,72
1,36,96,80
1,36,92,80
1,43,55,80
1,33,98,4
1,33,92,72
1,33,96,80
1,33,92,80
1,38,55,80
1,31,98,4
1,31,92,72
1,31,96,80
1,31,92,80
1,38,55,80
1,31,98,4
1,31,92,72
1,31,96,80
1,31,92,80
1,38,55,80
1,31,98,4
1,31,92,72
1,31,96,80
1,31,92,80
1,38,55,80
1,31,98,4
1,31,92,72
1,31,96,80
1,31,92,80
1,36,55,80
1,29,98,4
1,29,92,72
1,29,96,80
1,29,92,80
1,38,55,80
1,26,98,4
1,26,92,72
1,26,96,80
1,26,92,80
1,36,55,80
1,29,98,4
1,29,92,72
1,29,96,80
1,29,92,80
1,38,55,80
1,26,98,4
1,26,92,72
1,26,96,80
1,26,92,80
1,38,55,80
1,31,98,4
1,31,92,72
1,31,96,80
1,31,92,80
1,38,55,80
1,31,98,4
1,31,92,72
1,31,96,80
1,31,92,80
1,38,55,80
1,31,98,4
1,31,92,72
1,31,96,80
1,31,92,80
1,38,55,80
1,31,98,4
1,31,92,72
1,31,96,80
1,31,92,80
1,36,55,80
1,29,98,4
1,29,92,72
1,29,96,80
1,29,92,80
1,38,55,80
1,26,98,4
1,26,92,72
1,26,96,80
1,26,92,80
1,36,55,80
1,29,98,4
1,29,92,72
1,29,96,80
1,29,92,80
1,38,55,80
1,26,98,4
1,26,92,72
1,26,96,80
1,26,92,80
1,43,55,80
1,36,98,4
1,40,55,8
1,36,92,72
1,36,96,80
1,36,92,80
1,45,55,80
1,36,98,4
1,36,92,72
1,36,96,80
1,36,92,80
1,43,55,80
1,36,98,4
1,36,92,72
1,36,96,80
1,36,92,80
1,45,55,80
1,36,98,4
1,36,92,72
1,36,96,80
1,36,92,80
1,43,55,80
1,36,98,4
1,40,55,8
1,36,92,72
1,36,96,80
1,36,92,80
1,45,55,80
1,36,98,4
1,36,92,72
1,36,96,80
1,36,92,80
1,43,55,80
1,36,98,4
1,36,92,72
1,36,96,80
1,36,92,80
1,45,55,80
1,36,98,4
1,36,92,72
1,36,96,80
1,36,92,80
1,43,55,80
1,36,98,4
1,36,92,72
1,36,96,80
1,36,92,80
1,45,92,80
2,48,62,192
2,55,64,192
2,67,49,192
2,60,70,0
2,57,62,0
2,64,54,0
2,55,57,60
2,64,59,192
2,57,71,0
2,60,62,216
2,67,54,0
2,55,57,80
2,67,59,192
2,60,71,0
2,64,60,216
2,60,60,0
2,57,60,0
2,67,60,0
2,64,60,0
2,60,60,0
2,55,60,0
2,57,62,32
2,64,54,0
2,55,57,16
2,64,59,192
2,57,71,0
2,48,56,24
2,64,61,384
2,67,60,0
2,55,66,0
2,48,56,32
2,64,61,384
2,67,60,0
2,57,66,0
2,60,62,32
2,67,54,0
2,55,57,84
2,67,59,192
2,60,71,0
2,48,56,16
2,64,61,192
2,67,60,0
2,57,66,0
2,48,62,208
2,55,64,192
2,67,49,192
2,60,70,0
2,57,62,0
2,64,54,0
2,55,57,16
2,64,59,192
2,57,71,0
2,48,62,208
2,55,64,192
2,67,49,192
2,60,70,0
2,48,56,0
2,64,61,192
2,67,60,0
2,57,66,0
2,64,60,16
2,60,60,0
2,55,60,0
2,48,62,16
2,55,64,192
2,67,49,192
2,57,70,0
2,64,55,0
2,41,62,16
2,57,64,192
2,69,49,192
2,60,70,0
2,64,65,32
2,60,65,0
2,55,65,0
2,50,55,0
2,65,60,32
2,62,60,0
2,60,60,0
2,69,60,0
2,50,57,16
2,65,63,192
2,62,63,0
2,60,63,0
2,69,63,0
2,41,62,16
2,57,64,192
2,69,49,192
2,60,70,0
2,50,62,208
2,57,64,192
2,69,49,192
2,62,70,0
2,48,56,0
2,64,61,192
2,67,60,0
2,55,66,0
2,67,60,16
2,64,60,0
2,60,60,0
2,69,60,0
2,60,62,0
2,67,54,0
2,55,57,80
2,67,59,192
2,60,71,0
2,45,56,16
2,67,61,192
2,69,60,0
2,60,66,0
2,43,62,208
2,59,64,192
2,71,49,192
2,62,70,0
2,64,65,32
2,60,65,0
2,55,65,0
2,55,55,0
2,62,60,32
2,59,60,0
2,55,60,0
2,67,60,80
2,62,60,0
2,59,60,0
2,62,62,16
2,71,54,0
2,59,57,40
2,71,59,192
2,62,71,0
2,64,60,16
2,60,60,0
2,55,60,0
2,62,60,32
2,59,60,0
2,55,60,0
2,65,60,16
2,60,60,0
2,57,60,0
2,62,62,32
2,69,54,0
2,57,57,64
2,69,59,192
2,62,71,0
2,41,56,16
2,65,61,192
2,69,60,0
2,57,66,0
2,62,62,16
2,69,54,0
2,57,57,16
2,69,59,192
2,62,71,0
2,60,62,16
2,67,54,0
2,55,57,40
2,67,59,192
2,60,71,0
2,57,62,24
2,64,54,0
2,55,57,16
2,64,59,192
2,57,71,0
2,64,60,16
2,60,60,0
2,55,60,0
2,48,56,32
2,64,61,384
2,67,60,0
2,57,66,0
2,64,60,16
2,60,60,0
2,55,60,0
2,48,62,208
2,55,64,192
2,67,49,192
2,57,70,0
2,64,55,0
2,64,60,32
2,60,60,0
2,55,60,0
2,48,62,208
2,55,64,192
2,67,49,192
2,57,70,0
2,64,55,0
2,60,62,32
2,67,54,0
2,55,57,16
2,67,59,192
2,60,71,0
2,57,62,24
2,64,54,0
2,55,57,16
2,64,59,192
2,57,71,0
2,64,60,216
2,60,60,0
2,55,60,0
2,48,56,0
2,64,61,192
2,67,60,0
2,57,66,0
2,60,62,32
2,69,54,0
2,57,57,64
2,69,59,192
2,60,71,0
2,64,65,16
2,60,65,0
2,55,65,0
2,50,55,0
2,65,60,32
2,62,60,0
2,60,60,0
2,69,60,0
2,65,65,16
2,62,65,0
2,60,65,0
2,69,65,0
2,50,55,0
2,65,60,32
2,60,60,0
2,57,60,0
2,65,60,8
2,62,60,0
2,57,60,0
2,48,56,0
2,64,61,192
2,67,60,0
2,55,66,0
2,67,60,16
2,64,60,0
2,60,60,0
2,69,60,0
2,64,60,32
2,60,60,0
2,55,60,0
2,67,60,8
2,64,60,0
2,60,60,0
2,69,60,0
2,62,62,32
2,71,54,0
2,59,57,64
2,71,59,192
2,62,71,0
2,64,65,24
2,60,65,0
2,55,65,0
2,55,55,0
2,67,60,32
2,62,60,0
2,59,60,0
2,62,65,80
2,59,65,0
2,55,65,0
2,43,55,0
2,62,62,32
2,71,54,0
2,59,57,64
2,71,59,192
2,62,71,0
2,55,57,16
2,64,63,192
2,60,63,0
2,55,63,0
2,62,65,0
2,59,65,0
2,55,65,0
2,43,55,0
2,41,56,0
2,65,61,192
2,69,60,0
2,57,66,0
2,50,62,16
2,57,64,192
2,69,49,192
2,62,70,0
2,60,62,0
2,69,54,0
2,57,57,16
2,69,59,192
2,60,71,0
2,50,62,16
2,57,64,192
2,69,49,192
2,62,70,0
2,48,56,0
2,64,61,192
2,67,60,0
2,55,66,0
2,48,62,16
2,55,64,192
2,67,49,192
2,57,70,0
2,64,55,0
2,60,62,32
2,67,54,0
2,55,57,16
2,67,59,192
2,60,71,0
2,48,56,16
2,64,61,192
2,67,60,0
2,57,66,0
2,48,56,16
2,64,61,192
2,67,60,0
2,55,66,0
2,57,62,16
2,64,54,0
2,55,57,40
2,64,59,192
2,57,71,0
2,48,62,208
2,55,64,192
2,67,49,192
2,60,70,0
2,48,56,0
2,64,61,192
2,67,60,0
2,57,66,0
2,64,60,32
2,60,60,0
2,57,60,0
2,48,62,200
2,55,64,192
2,67,49,192
2,60,70,0
2,41,62,16
2,57,64,192
2,69,49,192
2,60,70,0
2,62,62,0
2,71,54,0
2,59,57,16
2,71,59,192
2,62,71,0
2,45,57,16
2,64,63,192
2,60,63,0
2,57,63,0
2,62,60,0
2,59,60,0
2,55,60,0
2,48,56,32
2,64,61,384
2,67,60,0
2,55,66,0
2,41,56,32
2,65,61,208
2,69,60,0
2,57,66,0
2,62,62,16
2,71,54,0
2,59,57,40
2,71,59,192
2,62,71,0
2,64,60,24
2,60,60,0
2,55,60,0
2,48,56,16
2,64,61,384
2,67,60,0
2,57,66,0
2,64,60,16
2,60,60,0
2,55,60,0
2,48,56,16
2,64,61,384
2,67,60,0
2,57,66,0
2,48,56,16
2,64,61,192
2,67,60,0
2,55,66,0
2,48,62,16
2,55,64,192
2,67,49,192
2,57,70,0
2,64,55,0
2,48,56,32
2,64,61,384
2,67,60,0
2,55,66,0
2,64,60,16
2,60,60,0
2,57,60,0
2,67,60,0
2,60,62,32
2,69,54,0
2,57,57,64
2,69,59,192
2,60,71,0
2,64,65,16
2,60,65,0
2,55,65,0
2,50,55,0
2,65,60,32
2,62,60,0
2,60,60,0
2,69,60,0
2,50,57,16
2,65,63,384
2,62,63,0
2,60,63,0
2,69,63,0
2,60,62,0
2,69,54,0
