track,note,velocity,time
1,57,65,56685
1,57,0,14
1,49,84,9
1,49,0,16
1,57,66,10
1,57,0,13
1,49,84,8
1,49,0,14
1,57,68,9
1,57,0,14
1,49,78,3
1,49,0,15
1,57,63,6
1,57,0,12
1,49,87,3
1,49,0,11
1,57,72,8
1,57,0,10
1,49,40,5
1,49,0,9
1,57,70,9
1,57,0,12
1,49,111,8
1,49,0,10
1,57,78,11
1,57,0,8
1,49,100,23
1,49,0,3
1,57,71,19
1,57,0,9
1,49,82,14
1,49,0,4
1,57,62,17
1,57,0,10
1,49,96,6
1,49,0,9
1,57,68,12
1,57,0,9
1,49,84,7
1,49,0,9
1,57,63,9
1,57,0,9
1,49,76,6
1,49,0,3
1,49,96,11
1,49,0,5
1,57,69,6
1,57,0,6
1,49,84,6
1,49,0,4
1,57,65,6
1,57,0,7
1,49,63,4
1,49,0,4
1,57,66,7
1,57,0,7
1,49,92,3
1,49,0,7
1,57,69,4
1,57,0,7
1,49,94,2
1,49,0,7
1,57,72,5
1,57,0,6
1,49,78,2
1,49,0,6
1,57,77,4
1,57,0,6
1,49,92,3
1,49,0,5
1,57,75,3
1,57,0,7
1,49,104,3
1,49,0,6
1,57,85,2
1,57,0,6
1,49,100,4
1,49,0,5
1,57,86,2
1,57,0,6
2,54,126,476
2,54,0,18
2,54,122,106
2,54,0,19
2,54,121,108
2,54,0,16
2,54,121,104
2,54,0,17
2,54,120,96
2,54,0,15
2,54,122,103
2,54,0,15
2,54,122,111
2,54,0,17
2,54,118,103
2,54,0,16
2,54,120,103
2,54,0,16
2,54,125,104
2,54,0,16
2,54,120,105
2,54,0,17
2,54,126,106
2,54,0,16
2,54,127,100
2,54,0,16
2,54,126,104
2,54,0,16
2,54,124,102
2,54,0,17
2,54,120,101
2,54,0,17
2,54,127,102
2,54,0,17
2,54,118,104
2,54,0,17
2,54,117,106
2,54,0,19
2,54,125,102
2,54,0,18
2,54,122,101
2,54,0,18
2,54,123,99
2,54,0,17
2,54,127,103
2,54,0,15
2,54,117,108
2,54,0,16
2,54,126,100
2,54,0,18
2,54,124,105
2,54,0,16
2,54,120,105
2,54,0,17
2,54,118,103
2,54,0,15
2,54,122,111
2,54,0,17
2,54,119,102
2,54,0,16
2,54,120,96
2,54,0,15
2,54,127,99
2,54,0,20
2,54,123,110
2,54,0,16
2,54,124,103
2,54,0,15
2,54,118,106
2,54,0,15
2,54,122,109
2,54,0,13
2,54,121,102
2,54,0,15
2,54,122,106
2,54,0,13
2,54,125,106
2,54,0,15
2,54,122,107
2,54,0,14
2,54,121,109
2,54,0,13
2,54,124,102
2,54,0,12
2,54,122,108
2,54,0,14
2,54,123,107
2,54,0,14
2,54,121,107
2,54,0,15
2,54,117,101
2,54,0,17
2,54,124,108
2,54,0,14
2,54,118,105
2,54,0,15
2,54,123,100
2,54,0,16
2,54,126,108
2,54,0,14
2,54,122,109
2,54,0,14
2,54,125,107
2,54,0,16
2,54,122,103
2,54,0,18
2,54,121,101
2,54,0,16
2,54,125,100
2,54,0,16
2,54,123,107
2,54,0,15
2,54,120,102
2,54,0,14
2,54,127,1068
2,54,0,26
2,54,123,214
2,54,0,20
2,54,118,217
2,54,0,17
2,54,121,222
2,54,0,20
2,54,118,225
2,54,0,19
2,54,125,215
2,54,0,21
2,54,127,219
2,54,0,21
2,54,123,216
2,54,0,21
2,54,117,219
2,54,0,21
2,54,120,221
2,54,0,18
2,54,117,223
2,54,0,17
2,54,124,224
2,54,0,16
2,54,118,223
2,54,0,17
2,54,126,220
2,54,0,20
2,54,126,223
2,54,0,17
2,54,123,225
2,54,0,20
2,54,124,217
2,54,0,18
2,54,126,220
2,54,0,18
2,54,117,222
2,54,0,17
2,54,118,225
2,54,0,16
2,54,124,224
2,54,0,19
2,54,123,223
2,54,0,16
2,54,119,225
2,54,0,18
2,54,117,227
2,54,0,18
2,54,118,217
2,54,0,15
2,54,123,224
2,54,0,19
2,54,120,220
2,54,0,17
2,54,120,223
2,54,0,18
2,54,121,228
2,54,0,19
2,54,124,213
2,54,0,18
2,54,125,220
2,54,0,18
2,54,125,229
2,54,0,17
2,54,122,227
2,54,0,16
2,54,123,221
2,54,0,18
2,54,125,219
2,54,0,21
2,54,126,215
2,54,0,19
2,54,118,221
2,54,0,18
2,54,123,223
2,54,0,20
2,54,121,224
2,54,0,19
2,54,119,222
2,54,0,16
2,54,118,219
2,54,0,19
2,54,126,227
2,54,0,15
2,54,117,230
2,54,0,16
2,54,121,221
2,54,0,17
2,54,123,217
2,54,0,20
2,54,120,221
2,54,0,19
2,54,123,222
2,54,0,18
2,54,119,225
2,54,0,20
2,54,120,227
2,54,0,17
2,54,118,205
2,54,0,17
2,54,125,226
2,54,0,15
2,54,118,235
2,54,0,18
2,54,120,211
2,54,0,19
2,54,125,228
2,54,0,20
2,54,126,219
2,54,0,18
2,54,125,220
2,54,0,19
2,54,125,218
2,54,0,17
2,54,123,225
2,54,0,18
2,54,120,225
2,54,0,16
2,54,126,225
2,54,0,17
2,54,119,215
2,54,0,15
2,54,126,230
2,54,0,18
2,54,119,219
2,54,0,19
2,54,119,224
2,54,0,17
2,54,122,226
2,54,0,19
2,54,127,215
2,54,0,19
2,54,117,225
2,54,0,19
2,54,117,219
2,54,0,19
2,54,122,224
2,54,0,17
2,54,121,220
2,54,0,19
2,54,118,227
2,54,0,19
2,54,119,456
2,54,0,18
2,54,126,222
2,54,0,17
2,54,119,231
2,54,0,15
2,54,118,222
2,54,0,16
2,54,118,218
2,54,0,16
2,54,127,230
2,54,0,15
2,54,117,219
2,54,0,20
2,54,117,229
2,54,0,16
2,54,117,93
2,54,0,18
2,54,120,106
2,54,0,17
2,54,127,108
2,54,0,17
2,54,121,107
2,54,0,16
2,54,121,105
2,54,0,16
2,54,127,104
2,54,0,13
2,54,126,101
2,54,0,16
2,54,122,102
2,54,0,14
2,54,126,109
2,54,0,14
2,54,124,108
2,54,0,12
2,54,121,107
2,54,0,11
2,54,119,106
2,54,0,11
2,54,117,101
2,54,0,11
2,54,122,113
2,54,0,13
2,54,127,109
2,54,0,13
2,54,121,105
2,54,0,11
2,54,119,111
2,54,0,11
2,54,123,117
2,54,0,9
2,54,119,105
2,54,0,11
2,54,124,111
2,54,0,10
2,54,127,113
2,54,0,12
2,54,121,108
2,54,0,10
2,54,126,108
2,54,0,10
2,54,117,111
2,54,0,10
2,54,127,112
2,54,0,7
2,54,123,110
2,54,0,10
2,54,125,108
2,54,0,11
2,54,123,106
2,54,0,12
2,54,118,107
2,54,0,8
2,54,119,597
2,54,0,29
2,54,121,209
2,54,0,22
2,54,117,218
2,54,0,20
2,54,121,212
2,54,0,19
2,54,117,219
2,54,0,18
2,54,124,230
2,54,0,18
2,54,126,701
2,54,0,20
2,54,117,224
2,54,0,17
2,54,125,220
2,54,0,15
2,54,124,224
2,54,0,16
2,54,124,217
2,54,0,18
2,54,125,225
2,54,0,15
2,54,122,235
2,54,0,14
2,54,124,214
2,54,0,16
2,54,118,225
2,54,0,17
2,54,124,228
2,54,0,16
2,54,125,222
2,54,0,16
2,54,125,221
2,54,0,16
2,54,117,228
2,54,0,16
2,54,126,222
2,54,0,16
2,54,124,229
2,54,0,16
2,54,124,224
2,54,0,19
2,54,117,215
2,54,0,18
2,54,123,225
2,54,0,17
2,54,127,222
2,54,0,15
2,54,117,225
2,54,0,15
2,54,120,225
2,54,0,15
2,54,118,224
2,54,0,19
2,54,127,225
2,54,0,17
2,54,123,224
2,54,0,17
2,54,120,225
2,54,0,15
2,54,127,220
2,54,0,17
2,54,121,225
2,54,0,15
2,54,124,219
2,54,0,13
2,54,119,231
2,54,0,15
2,54,118,226
2,54,0,14
2,54,119,226
2,54,0,14
2,54,122,229
2,54,0,17
2,54,126,224
2,54,0,19
2,54,118,217
2,54,0,21
2,54,126,220
2,54,0,17
2,54,121,220
2,54,0,19
2,54,117,217
2,54,0,19
2,54,125,227
2,54,0,19
2,54,118,221
2,54,0,16
2,54,127,223
2,54,0,20
2,54,125,218
2,54,0,21
2,54,126,219
2,54,0,20
2,54,119,218
2,54,0,21
2,54,122,220
2,54,0,18
2,54,117,221
2,54,0,23
2,54,125,216
2,54,0,18
2,54,118,225
2,54,0,22
2,54,121,220
2,54,0,17
2,54,120,220
2,54,0,18
2,54,127,226
2,54,0,20
2,54,117,215
2,54,0,19
2,54,119,220
2,54,0,18
2,54,119,224
2,54,0,20
2,54,119,219
2,54,0,19
2,54,118,221
2,54,0,20
2,54,123,224
2,54,0,21
2,54,126,214
2,54,0,20
2,54,127,224
2,54,0,20
2,54,119,222
2,54,0,20
2,54,125,224
2,54,0,18
2,54,124,215
2,54,0,19
2,54,124,225
2,54,0,18
2,54,127,219
2,54,0,20
2,54,122,222
2,54,0,22
2,54,127,94
2,54,0,19
2,54,124,112
2,54,0,13
2,54,118,113
2,54,0,13
2,54,123,100
2,54,0,15
2,54,123,103
2,54,0,16
2,54,121,105
2,54,0,16
2,54,127,102
2,54,0,15
2,54,122,102
2,54,0,14
2,54,123,106
2,54,0,15
2,54,122,110
2,54,0,15
2,54,119,101
2,54,0,15
2,54,121,109
2,54,0,13
2,54,120,109
2,54,0,14
2,54,117,110
2,54,0,14
2,54,125,103
2,54,0,14
2,54,119,100
2,54,0,20
2,54,117,94
2,54,0,13
2,54,121,116
2,54,0,14
2,54,123,106
2,54,0,15
2,54,117,102
2,54,0,15
2,54,119,105
2,54,0,17
2,54,118,104
2,54,0,14
2,54,124,106
2,54,0,13
2,54,121,102
2,54,0,15
2,54,123,100
2,54,0,15
2,54,124,113
2,54,0,14
2,54,121,108
2,54,0,14
2,54,124,101
2,54,0,15
2,54,121,113
2,54,0,12
2,54,126,106
2,54,0,14
2,54,123,108
2,54,0,14
2,54,119,336
2,54,0,19
2,54,127,223
2,54,0,19
2,54,126,220
2,54,0,20
2,54,121,219
2,54,0,20
2,54,127,229
2,54,0,18
2,54,119,216
2,54,0,20
2,54,126,224
2,54,0,19
2,54,123,455
2,54,0,21
2,54,121,223
2,54,0,19
2,54,123,221
2,54,0,21
2,54,124,212
2,54,0,21
2,54,117,467
2,54,0,42
2,54,120,1753
2,54,0,13
3,44,28,511
3,44,0,29
3,44,71,31
3,44,0,29
3,46,120,0
3,46,0,29
3,44,61,0
3,44,0,29
3,46,84,1
3,46,0,29
3,44,74,2
3,44,0,29
3,46,120,2
3,46,0,29
3,44,64,2
3,46,77,27
3,44,0,2
3,46,0,27
3,44,71,2
3,44,0,29
3,46,120,0
3,46,0,29
3,44,36,1
3,44,0,29
3,46,84,2
3,46,0,29
3,44,64,2
3,44,0,29
3,46,120,0
3,46,0,29
3,44,77,1
3,44,0,29
3,44,62,30
3,44,0,29
3,46,120,1
3,46,0,29
3,44,67,3
3,46,89,28
3,44,0,1
3,46,0,28
3,44,88,1
3,44,0,29
3,46,119,1
3,46,0,29
3,44,29,3
3,46,81,28
3,44,0,1
3,46,0,28
3,44,83,2
3,44,0,29
3,46,119,1
3,46,0,29
3,44,74,4
3,46,86,26
3,44,0,3
3,46,0,26
3,44,81,3
3,44,0,29
3,46,119,1
3,46,0,29
3,44,28,1
3,44,0,29
3,44,70,31
3,44,0,29
3,46,119,0
3,44,61,26
3,46,0,3
3,44,0,26
3,46,83,4
3,46,0,29
3,44,73,2
3,44,0,29
3,46,119,2
3,46,0,29
3,46,77,29
3,46,0,29
3,44,70,2
3,44,0,29
3,46,119,0
3,46,0,29
3,44,35,1
3,44,0,29
3,46,82,2
3,46,0,29
3,44,63,2
3,44,0,29
3,46,118,0
3,46,0,29
3,44,76,1
3,44,0,29
3,44,61,30
3,44,0,29
3,46,118,1
3,46,0,29
3,44,66,3
3,46,87,28
3,44,0,1
3,46,0,28
3,44,87,1
3,44,0,29
3,46,118,1
3,46,0,29
3,44,28,3
3,46,80,28
3,44,0,1
3,46,0,28
3,44,56,2
3,44,0,29
3,46,118,1
3,46,0,29
3,44,47,0
3,44,0,29
3,46,85,1
3,46,0,29
3,44,80,3
3,44,0,29
3,44,27,31
3,44,0,29
3,44,69,31
3,44,0,29
3,46,116,0
3,46,0,29
3,44,59,0
3,44,0,29
3,46,81,1
3,46,0,29
3,44,71,2
3,44,0,29
3,46,116,2
3,46,0,29
3,44,62,2
3,46,75,27
3,44,0,2
3,46,0,27
3,44,69,2
3,44,0,29
3,46,116,0
3,46,0,29
3,44,34,1
3,44,0,29
3,46,81,2
3,46,0,29
3,44,62,2
3,44,0,29
3,46,116,0
3,46,0,29
3,44,75,1
3,44,0,29
3,44,60,30
3,44,0,29
3,46,116,1
3,46,0,29
3,44,65,3
3,46,86,28
3,44,0,1
3,46,0,28
3,44,86,1
3,44,0,29
3,46,116,1
3,46,0,29
3,44,28,3
3,46,79,28
3,44,0,1
3,46,0,28
3,44,80,2
3,44,0,29
3,46,115,1
3,46,0,29
3,44,71,4
3,46,83,26
3,44,0,3
3,46,0,26
3,44,79,3
3,44,0,29
3,46,115,1
3,46,0,29
3,44,27,1
3,44,0,29
3,44,68,31
3,44,0,29
3,46,115,0
3,44,59,26
3,46,0,3
3,44,0,26
3,46,80,4
3,46,0,29
3,44,70,2
3,44,0,29
3,46,115,2
3,46,0,29
3,46,74,29
3,46,0,29
3,44,68,2
3,44,0,29
3,46,115,0
3,46,0,29
3,44,34,1
3,44,0,29
3,46,80,2
3,46,0,29
3,44,61,2
3,44,0,29
3,46,114,0
3,46,0,29
3,44,73,1
3,44,0,29
3,44,59,30
3,44,0,29
3,46,114,1
3,46,0,29
3,44,63,3
3,46,84,28
3,44,0,1
3,46,0,28
3,44,84,1
3,44,0,29
3,46,114,1
3,46,0,29
3,44,27,3
3,46,78,28
3,44,0,1
3,46,0,28
3,44,54,2
3,44,0,29
3,46,114,1
3,46,0,29
3,44,45,0
3,44,0,29
3,46,82,1
3,46,0,29
3,44,78,3
3,44,0,29
3,44,27,31
3,44,0,29
3,44,67,31
3,44,0,29
3,46,114,0
3,46,0,29
3,44,58,0
3,44,0,29
3,46,80,1
3,46,0,29
3,44,69,2
3,44,0,29
3,46,113,2
3,46,0,29
3,44,60,2
3,46,72,27
3,44,0,2
3,46,0,27
3,44,66,2
3,44,0,29
3,46,113,0
3,46,0,29
3,44,33,1
3,44,0,29
3,46,79,2
3,46,0,29
3,44,60,2
3,44,0,29
3,46,113,0
3,46,0,29
3,44,72,1
3,44,0,29
3,44,58,30
3,44,0,29
3,46,113,1
3,46,0,29
3,44,63,3
3,46,83,28
3,44,0,1
3,46,0,28
3,44,83,1
3,44,0,29
3,46,113,1
3,46,0,29
3,44,27,3
3,46,77,28
3,44,0,1
3,46,0,28
3,44,79,2
3,44,0,29
3,46,113,1
3,46,0,29
3,44,69,4
3,46,80,26
3,44,0,3
3,46,0,26
3,44,76,3
3,44,0,29
3,46,111,1
3,46,0,29
3,44,26,1
3,44,0,29
3,44,66,31
3,44,0,29
3,46,111,0
3,44,57,26
3,46,0,3
3,44,0,26
3,46,78,4
3,46,0,29
3,44,68,2
3,44,0,29
3,46,111,2
3,46,0,29
3,46,72,29
3,46,0,29
3,44,66,2
3,44,0,29
3,46,111,0
3,46,0,29
3,44,33,1
3,44,0,29
3,46,78,2
3,46,0,29
3,44,59,2
3,44,0,29
3,46,111,0
3,46,0,29
3,44,72,1
3,44,0,29
3,44,58,30
3,44,0,29
3,46,110,1
3,46,0,29
3,44,61,3
3,46,81,28
3,44,0,1
3,46,0,28
3,44,81,1
3,44,0,29
3,46,110,1
3,46,0,29
3,44,26,3
3,46,75,28
3,44,0,1
3,46,0,28
3,44,53,2
3,44,0,29
3,46,110,1
3,46,0,29
3,44,44,0
3,44,0,29
3,46,80,1
3,46,0,29
3,44,75,3
3,44,0,29
3,44,26,31
3,44,0,29
3,44,65,31
3,44,0,29
3,46,110,0
3,46,0,29
3,44,56,0
3,44,0,29
3,46,77,1
3,46,0,29
3,44,67,2
3,44,0,29
3,46,110,2
3,46,0,29
