track,note,velocity,time
1,64,74,24
1,76,73,0
1,76,68,100
1,64,68,0
1,76,65,124
1,64,74,0
1,64,74,136
1,76,74,0
1,64,70,116
1,76,62,0
1,76,68,124
1,64,70,0
1,76,68,132
1,64,74,0
1,76,65,128
1,64,68,0
1,76,68,140
1,64,74,0
1,76,65,124
1,64,68,0
1,76,68,128
1,64,71,0
1,76,68,136
1,64,73,0
1,76,62,120
1,64,64,0
1,76,62,136
1,64,68,0
1,76,65,136
1,64,65,0
1,64,68,132
1,76,65,0
1,64,71,136
1,76,62,0
1,64,68,116
1,76,62,0
1,76,65,124
1,64,71,0
1,76,68,128
1,64,75,0
1,64,68,124
1,76,61,0
1,64,71,136
1,76,65,0
1,76,66,128
1,64,71,0
1,76,64,128
1,64,71,0
1,76,66,132
1,64,70,0
1,76,63,124
1,64,68,0
1,76,65,136
1,64,68,0
1,76,66,128
1,64,71,0
1,76,61,124
1,64,66,0
1,64,73,136
1,76,65,0
1,64,70,128
1,76,65,0
1,64,73,124
1,76,68,0
1,64,74,128
1,76,65,0
1,64,70,124
1,76,65,0
1,76,66,132
1,64,71,0
1,76,70,132
1,64,73,0
1,64,68,120
1,76,62,0
1,64,68,136
1,76,66,0
1,64,71,128
1,76,65,0
1,64,68,124
1,76,65,0
1,64,70,128
1,76,68,0
1,64,73,124
1,76,65,0
1,64,73,132
1,76,68,0
1,76,68,132
1,64,73,0
1,76,65,124
1,64,68,0
1,76,64,128
1,64,68,0
1,76,68,128
1,64,70,0
1,64,71,120
1,76,65,0
1,64,68,128
1,76,62,0
1,76,64,120
1,64,66,0
1,76,64,132
1,64,74,0
1,76,68,128
1,64,74,0
1,76,65,128
1,64,73,0
1,64,73,128
1,76,68,0
1,64,76,136
1,76,68,0
1,64,73,124
1,76,65,0
1,64,71,132
1,76,68,0
1,64,71,120
1,76,66,0
1,64,70,120
1,76,65,0
1,64,71,120
1,76,66,0
1,64,71,124
1,76,65,0
1,64,71,140
1,76,66,0
1,76,68,136
1,64,73,0
1,76,76,132
1,64,76,0
1,76,81,33928
1,64,81,0
1,64,81,100
1,76,81,0
1,64,81,124
1,76,81,0
1,76,81,136
1,64,81,0
1,76,81,116
1,64,81,0
1,64,81,124
1,76,81,0
1,64,81,132
1,76,81,0
1,64,81,128
1,76,81,0
1,64,81,140
1,76,81,0
1,64,81,124
1,76,81,0
1,64,81,128
1,76,81,0
1,64,81,136
1,76,81,0
1,64,81,120
1,76,81,0
1,64,81,136
1,76,81,0
1,64,81,136
1,76,81,0
1,76,81,132
1,64,81,0
1,76,81,136
1,64,81,0
1,76,81,116
1,64,81,0
1,64,81,124
1,76,81,0
1,64,81,128
1,76,81,0
1,76,81,124
1,64,81,0
1,76,81,136
1,64,81,0
1,64,81,128
1,76,81,0
1,64,81,128
1,76,81,0
1,64,81,132
1,76,81,0
1,64,81,124
1,76,81,0
1,64,81,136
1,76,81,0
1,64,81,128
1,76,81,0
1,64,81,124
1,76,81,0
1,76,81,136
1,64,81,0
1,76,81,128
1,64,81,0
1,76,81,124
1,64,81,0
1,76,81,128
1,64,81,0
1,76,81,124
1,64,81,0
1,64,81,132
1,76,81,0
1,64,81,132
1,76,81,0
1,76,81,120
1,64,81,0
1,76,81,136
1,64,81,0
1,76,81,128
1,64,81,0
1,76,81,124
1,64,81,0
1,76,81,128
1,64,81,0
1,76,81,124
1,64,81,0
1,76,81,132
1,64,81,0
1,64,81,132
1,76,81,0
1,64,81,124
1,76,81,0
1,64,81,128
1,76,81,0
1,64,81,128
1,76,81,0
1,64,81,120
1,76,81,0
1,64,81,128
1,76,81,0
1,76,81,120
1,64,81,0
1,76,81,132
1,64,81,0
1,76,81,128
1,64,81,0
1,76,81,128
1,64,81,0
1,64,81,128
1,76,81,0
1,64,81,136
1,76,81,0
1,64,81,124
1,76,81,0
1,64,81,132
1,76,81,0
1,64,81,120
1,76,81,0
1,64,81,120
1,76,81,0
1,64,81,120
1,76,81,0
1,64,81,124
1,76,81,0
1,64,81,140
1,76,81,0
1,76,81,136
1,64,81,0
1,76,81,132
1,64,81,0
1,76,81,33928
1,64,81,0
1,64,81,100
1,76,81,0
1,64,81,124
1,76,81,0
1,76,81,136
1,64,81,0
1,76,81,116
1,64,81,0
1,64,81,124
1,76,81,0
1,64,81,132
1,76,81,0
1,64,81,128
1,76,81,0
1,64,81,140
1,76,81,0
1,64,81,124
1,76,81,0
1,64,81,128
1,76,81,0
1,64,81,136
1,76,81,0
1,64,81,120
1,76,81,0
1,64,81,136
1,76,81,0
1,64,81,136
1,76,81,0
1,76,81,132
1,64,81,0
1,76,81,136
1,64,81,0
1,76,81,116
1,64,81,0
1,64,81,124
1,76,81,0
1,64,81,128
1,76,81,0
1,76,81,124
1,64,81,0
1,76,81,136
1,64,81,0
1,64,81,128
1,76,81,0
1,64,81,128
1,76,81,0
1,64,81,132
1,76,81,0
1,64,81,124
1,76,81,0
1,64,81,136
1,76,81,0
1,64,81,128
1,76,81,0
1,64,81,124
1,76,81,0
1,76,81,136
1,64,81,0
1,76,81,128
1,64,81,0
1,76,81,124
1,64,81,0
1,76,81,128
1,64,81,0
1,76,81,124
1,64,81,0
1,64,81,132
1,76,81,0
1,64,81,132
1,76,81,0
1,76,81,120
1,64,81,0
1,76,81,136
1,64,81,0
1,76,81,128
1,64,81,0
1,76,81,124
1,64,81,0
1,76,81,128
1,64,81,0
1,76,81,124
1,64,81,0
1,76,81,132
1,64,81,0
1,64,81,132
1,76,81,0
1,64,81,124
1,76,81,0
1,64,81,128
1,76,81,0
1,64,81,128
1,76,81,0
1,64,81,120
1,76,81,0
1,64,81,128
1,76,81,0
1,76,81,120
1,64,81,0
1,76,81,132
1,64,81,0
1,76,81,128
1,64,81,0
1,76,81,128
1,64,81,0
1,64,81,128
1,76,81,0
1,64,81,136
1,76,81,0
1,64,81,124
1,76,81,0
1,64,81,132
1,76,81,0
1,64,81,120
1,76,81,0
1,64,81,120
1,76,81,0
1,64,81,120
1,76,81,0
1,64,81,124
1,76,81,0
1,64,81,140
1,76,81,0
1,76,81,136
1,64,81,0
1,76,81,132
1,64,81,0
1,23,127,63152
1,28,82,680
1,30,76,60
1,32,92,56
1,34,41,128
1,36,80,16
1,35,81,48
1,31,48,68
1,33,39,56
1,38,39,8
1,28,50,0
1,32,81,0
1,33,45,0
1,35,96,0
1,40,56,40
1,41,83,68
1,28,39,12
1,40,79,64
1,35,104,0
1,34,62,4
1,40,90,0
1,38,82,0
1,37,64,0
1,32,115,96
1,29,82,72
1,31,71,8
1,34,115,32
1,36,90,0
1,33,127,40
1,28,99,0
1,31,78,0
1,26,63,8
1,31,96,0
1,29,88,0
1,28,92,0
1,29,52,0
1,31,43,0
1,31,39,0
1,30,48,12
1,33,74,56
1,35,74,8
1,38,76,52
1,34,50,0
1,36,45,0
1,33,77,0
1,40,39,0
1,35,78,0
1,41,42,28
1,38,72,24
1,36,57,0
1,35,78,0
1,33,88,0
1,31,74,36
1,35,39,0
1,36,39,0
1,38,49,64
1,40,45,8
1,43,78,28
1,41,39,28
1,45,94,24
1,45,40,0
1,41,79,0
1,40,78,0
1,38,63,0
1,43,76,0
1,36,67,0
1,41,100,0
1,37,39,12
1,40,100,0
1,35,127,0
1,38,127,0
1,33,100,0
1,36,115,24
1,31,114,36
1,29,115,0
1,28,94,68
1,26,99,48
1,38,127,0
1,29,39,0
1,31,48,0
1,33,48,0
1,36,110,0
1,38,127,0
1,35,46,0
1,36,48,0
1,38,50,88
1,40,54,68
1,38,127,0
1,41,54,8
1,43,55,24
1,45,84,60
1,47,83,16
1,76,81,46080
1,64,81,0
1,64,81,100
1,76,81,0
1,64,81,124
1,76,81,0
1,76,81,136
1,64,81,0
1,76,81,116
1,64,81,0
1,64,81,124
1,76,81,0
1,64,81,132
1,76,81,0
1,64,81,128
1,76,81,0
1,64,81,140
1,76,81,0
1,64,81,124
1,76,81,0
1,64,81,128
1,76,81,0
1,64,81,136
1,76,81,0
1,64,81,120
1,76,81,0
1,64,81,136
1,76,81,0
1,64,81,136
1,76,81,0
1,76,81,132
1,64,81,0
1,76,81,136
1,64,81,0
1,76,81,116
1,64,81,0
1,64,81,124
1,76,81,0
1,64,81,128
1,76,81,0
1,76,81,124
1,64,81,0
1,76,81,136
1,64,81,0
1,64,81,128
1,76,81,0
1,64,81,128
1,76,81,0
1,64,81,132
1,76,81,0
1,64,81,124
1,76,81,0
1,64,81,136
1,76,81,0
1,64,81,128
1,76,81,0
1,64,81,124
1,76,81,0
1,76,81,136
1,64,81,0
1,76,81,128
1,64,81,0
1,76,81,124
1,64,81,0
1,76,81,128
1,64,81,0
1,76,81,124
1,64,81,0
1,64,81,132
1,76,81,0
1,64,81,132
1,76,81,0
1,76,81,120
1,64,81,0
1,76,81,136
1,64,81,0
1,76,81,128
1,64,81,0
1,76,81,124
1,64,81,0
1,76,81,128
1,64,81,0
1,76,81,124
1,64,81,0
1,76,81,132
1,64,81,0
1,64,81,132
1,76,81,0
1,64,81,124
1,76,81,0
1,64,81,128
1,76,81,0
1,64,81,128
1,76,81,0
1,64,81,120
1,76,81,0
1,64,81,128
1,76,81,0
1,76,81,120
1,64,81,0
1,76,81,132
1,64,81,0
1,76,81,128
1,64,81,0
1,76,81,128
1,64,81,0
1,64,81,128
1,76,81,0
1,64,81,136
1,76,81,0
1,64,81,124
1,76,81,0
1,64,81,132
1,76,81,0
1,64,81,120
1,76,81,0
1,64,81,120
1,76,81,0
1,64,81,120
1,76,81,0
1,64,81,124
1,76,81,0
1,64,81,140
1,76,81,0
1,76,81,136
1,64,81,0
1,76,81,132
1,64,81,0
1,76,81,136
1,64,81,0
1,64,81,100
1,76,81,0
1,64,81,124
1,76,81,0
1,76,81,136
1,64,81,0
1,76,81,116
1,64,81,0
1,64,81,124
1,76,81,0
1,64,81,132
1,76,81,0
1,64,81,128
1,76,81,0
1,64,81,140
1,76,81,0
1,64,81,124
1,76,81,0
1,64,81,128
1,76,81,0
1,64,81,136
1,76,81,0
1,64,81,120
1,76,81,0
1,64,81,136
1,76,81,0
1,64,81,136
1,76,81,0
1,76,81,132
1,64,81,0
1,76,81,136
1,64,81,0
1,76,81,116
1,64,81,0
1,64,81,124
1,76,81,0
1,64,81,128
1,76,81,0
1,76,81,124
1,64,81,0
1,76,81,136
1,64,81,0
1,64,81,128
1,76,81,0
1,64,81,128
1,76,81,0
1,64,81,132
1,76,81,0
1,64,81,124
1,76,81,0
1,64,81,136
1,76,81,0
1,64,81,128
1,76,81,0
1,64,81,124
1,76,81,0
1,76,81,136
1,64,81,0
1,76,81,128
1,64,81,0
1,76,81,124
1,64,81,0
1,76,81,128
1,64,81,0
1,76,81,124
1,64,81,0
1,64,81,132
1,76,81,0
1,64,81,132
1,76,81,0
1,76,81,120
1,64,81,0
1,76,81,136
1,64,81,0
1,76,81,128
1,64,81,0
1,76,81,124
1,64,81,0
1,76,81,128
1,64,81,0
1,76,81,124
1,64,81,0
1,76,81,132
1,64,81,0
1,64,81,132
1,76,81,0
1,64,81,124
1,76,81,0
1,64,81,128
1,76,81,0
1,64,81,128
1,76,81,0
1,64,81,120
1,76,81,0
1,64,81,128
1,76,81,0
1,76,81,120
1,64,81,0
1,76,81,132
1,64,81,0
1,76,81,128
1,64,81,0
1,76,81,128
1,64,81,0
1,64,81,128
1,76,81,0
1,64,81,136
1,76,81,0
1,64,81,124
1,76,81,0
1,64,81,132
1,76,81,0
1,64,81,120
1,76,81,0
1,64,81,120
1,76,81,0
1,64,81,120
1,76,81,0
1,64,81,124
1,76,81,0
1,64,81,140
1,76,81,0
1,76,81,136
1,64,81,0
1,76,81,132
1,64,81,0
2,40,127,96
2,40,127,0
2,52,127,192
2,50,127,0
2,40,127,0
2,40,127,0
2,40,127,48
2,40,127,72
2,40,127,68
2,40,127,76
2,52,127,0
2,50,127,0
2,40,127,0
2,40,127,0
2,40,127,68
2,40,127,52
2,33,127,192
2,33,127,0
2,33,127,0
2,35,127,192
2,35,127,20
2,35,127,48
2,35,127,68
2,35,127,0
2,35,127,40
2,40,127,192
2,38,127,0
2,52,127,360
2,50,127,0
2,41,127,0
2,40,127,0
2,40,127,192
2,40,127,84
2,52,127,0
2,50,127,0
2,40,127,0
2,40,127,0
2,40,127,68
2,40,127,96
2,33,127,192
2,33,127,0
2,33,127,0
2,35,127,192
2,35,127,24
2,35,127,40
2,35,127,60
2,35,127,64
2,35,127,68
2,35,127,64
2,35,127,84
2,28,127,0
2,28,127,40
2,28,127,68
2,28,127,56
2,28,127,84
2,28,127,64
2,28,127,72
2,28,127,68
2,28,127,88
2,28,127,80
2,28,127,84
2,28,127,80
2,28,127,80
2,28,127,84
2,28,127,92
2,28,127,116
2,33,127,192
2,33,127,12
2,33,127,40
2,33,127,48
2,33,127,72
2,33,127,72
2,33,127,88
2,33,127,68
2,35,127,80
2,35,127,52
2,35,127,64
2,35,127,68
2,35,127,76
2,35,127,64
2,35,127,68
2,35,127,68
2,28,127,192
2,28,127,48
2,28,127,72
2,40,127,192
2,38,127,0
2,28,127,0
2,28,127,80
2,28,127,68
2,28,127,84
2,28,127,72
2,28,127,80
2,28,127,80
2,28,127,84
2,28,127,80
2,28,127,88
2,28,127,96
2,33,127,192
2,33,127,0
2,33,127,48
2,33,127,40
2,33,127,52
2,33,127,64
2,33,127,64
2,33,127,68
2,35,127,192
2,35,127,20
2,35,127,52
2,35,127,68
2,35,127,52
2,35,127,52
2,35,127,52
2,35,127,80
2,45,127,8
2,40,127,960
2,45,127,376
2,44,127,176
2,40,127,56
2,44,127,0
2,42,127,192
2,40,127,32
2,42,127,192
2,44,127,184
2,47,108,20
2,49,125,192
2,40,127,4
2,37,127,576
2,35,125,76
2,28,127,360
2,45,127,12
2,47,53,384
2,40,125,628
2,45,127,188
2,44,127,184
2,40,127,36
2,44,127,0
2,42,127,8
2,40,127,92
2,42,127,192
2,44,127,164
2,47,111,32
2,49,125,192
2,48,114,0
2,40,127,24
2,39,127,32
2,37,127,36
2,35,123,36
2,33,127,20
2,33,123,44
2,33,117,88
2,33,118,88
2,33,112,108
2,33,108,96
2,35,127,84
2,35,127,140
2,28,123,1152
2,28,112,52
2,28,98,72
2,28,117,68
2,28,111,68
2,28,102,80
2,28,112,80
2,28,107,100
2,28,107,92
2,28,108,84
2,28,102,88
2,28,112,92
2,28,112,96
2,28,108,96
2,29,98,104
2,28,102,0
2,28,118,84
2,33,127,8
2,33,123,92
2,33,127,120
2,33,123,128
2,33,117,104
2,33,118,104
2,33,123,112
2,33,127,128
2,35,125,4
2,35,118,76
2,35,108,88
2,35,107,76
2,35,108,112
2,35,111,112
2,35,102,112
2,35,108,112
2,28,108,56
2,28,117,80
2,28,97,88
2,28,106,92
2,28,106,100
2,28,107,80
2,28,99,96
2,28,111,92
2,28,112,88
2,28,112,84
2,28,112,80
2,28,107,84
2,28,107,96
2,28,97,104
2,28,108,92
2,28,112,108
2,33,103,192
2,33,112,60
2,33,117,92
2,33,114,100
2,33,112,100
2,33,107,100
2,33,112,112
2,33,118,116
2,35,112,44
2,35,118,76
2,35,114,88
2,35,108,80
2,35,107,72
2,35,114,80
2,35,107,88
2,35,107,68
2,28,127,40
2,28,127,40
2,28,127,68
2,28,127,56
2,28,127,84
2,28,127,64
2,28,127,72
2,28,127,68
2,28,127,88
2,28,127,80
2,28,127,84
2,28,127,80
2,28,127,80
2,28,127,84
2,28,127,92
2,28,127,116
2,33,127,192
2,33,127,12
2,33,127,40
2,33,127,48
2,33,127,72
2,33,127,72
2,33,127,88
2,33,127,68
2,35,127,80
2,35,127,52
2,35,127,64
2,35,127,68
2,35,127,76
2,35,127,64
2,35,127,68
2,35,127,68
2,28,127,192
2,28,127,48
2,28,127,72
2,40,127,192
2,38,127,0
2,28,127,0
2,28,127,80
2,28,127,68
2,28,127,84
2,28,127,72
2,28,127,80
2,28,127,80
2,28,127,84
2,28,127,80
2,28,127,88
