track,note,velocity,time
1,47,65,0
1,35,65,0
1,47,0,934
1,35,0,1
1,47,65,25
1,35,65,0
1,47,0,913
1,35,0,10
1,28,65,37
1,40,65,0
1,40,0,934
1,28,0,3
1,40,65,23
1,28,65,0
1,40,0,936
1,28,0,13
1,47,65,11
1,35,65,0
1,35,0,928
1,47,0,3
1,47,65,29
1,35,65,0
1,35,0,947
1,47,0,2
1,28,65,11
1,40,65,0
1,40,0,925
1,28,0,5
1,40,65,30
1,28,65,0
1,28,0,946
1,40,0,0
1,47,65,14
1,35,65,0
1,35,0,933
1,47,0,3
1,47,65,24
1,35,65,0
1,47,0,943
1,35,0,1
1,28,65,16
1,40,65,0
1,28,0,933
1,40,0,2
1,40,65,25
1,28,65,0
1,40,0,951
1,28,0,1
1,47,107,4
1,35,97,0
1,35,0,902
1,47,0,2
1,47,65,60
1,35,65,0
1,47,0,839
1,35,0,24
1,40,65,97
1,28,65,0
1,40,0,906
1,28,0,4
1,40,65,50
1,28,65,0
1,40,0,725
1,28,0,148
1,47,65,87
1,35,65,0
1,35,0,881
1,47,0,5
1,47,65,74
1,35,65,0
1,47,0,841
1,35,0,23
1,40,65,96
1,28,65,0
1,40,0,917
1,28,0,1
1,40,65,42
1,28,65,0
1,28,0,914
1,40,0,3
1,63,65,583
1,67,65,0
1,60,65,0
1,60,0,13
1,67,0,0
1,63,0,1
1,67,65,16
1,60,65,0
1,63,65,0
1,63,0,11
1,67,0,2
1,60,0,2
1,63,65,15
1,67,65,0
1,60,65,0
1,67,0,18
1,63,0,0
1,60,0,1
1,60,65,41
1,67,65,0
1,63,65,0
1,63,0,16
1,67,0,2
1,60,0,2
1,63,65,40
1,70,65,0
1,67,65,0
1,67,0,70
1,70,0,2
1,63,0,2
1,58,65,46
1,65,65,0
1,62,65,0
1,62,0,98
1,58,0,4
1,65,0,3
1,63,65,75
1,60,65,0
1,67,65,0
1,67,0,12
1,60,0,1
1,63,0,0
1,63,65,17
1,60,65,0
1,67,65,0
1,67,0,11
1,63,0,1
1,60,0,2
1,60,65,16
1,63,65,0
1,67,65,0
1,63,0,16
1,67,0,3
1,60,0,1
1,63,65,40
1,67,65,0
1,60,65,0
1,60,0,18
1,67,0,1
1,63,0,1
1,70,65,40
1,63,65,0
1,67,65,0
1,67,0,70
1,63,0,2
1,70,0,3
1,58,65,45
1,65,65,0
1,62,65,0
1,62,0,90
1,65,0,5
1,58,0,3
1,63,65,82
1,67,65,0
1,60,65,0
1,60,0,12
1,67,0,1
1,63,0,0
1,60,65,17
1,63,65,0
1,67,65,0
1,63,0,11
1,67,0,2
1,60,0,2
1,67,65,15
1,63,65,0
1,60,65,0
1,63,0,17
1,60,0,1
1,67,0,0
1,60,65,42
1,67,65,0
1,63,65,0
1,63,0,18
1,60,0,2
1,67,0,2
1,63,65,38
1,70,65,0
1,67,65,0
1,67,0,70
1,63,0,2
1,70,0,1
1,58,65,47
1,62,65,0
1,65,65,0
1,62,0,86
1,65,0,2
1,58,0,3
1,63,65,89
1,60,65,0
1,67,65,0
1,67,0,13
1,63,0,0
1,60,0,1
1,63,65,16
1,60,65,0
1,67,65,0
1,67,0,12
1,63,0,2
1,60,0,2
1,63,65,14
1,67,65,0
1,60,65,0
1,63,0,19
1,60,0,1
1,67,0,1
1,67,65,39
1,60,65,0
1,63,65,0
1,60,0,18
1,63,0,1
1,67,0,4
1,63,65,37
1,67,65,0
1,70,65,0
1,67,0,67
1,70,0,3
1,63,0,1
1,58,65,49
1,62,65,0
1,65,65,0
1,62,0,74
1,65,0,2
1,58,0,0
1,67,65,104
1,63,65,0
1,60,65,0
1,60,0,11
1,63,0,2
1,67,0,1
1,63,65,16
1,60,65,0
1,67,65,0
1,67,0,12
1,63,0,1
1,60,0,3
1,60,65,14
1,63,65,0
1,67,65,0
1,67,0,15
1,63,0,0
1,60,0,5
1,60,65,40
1,63,65,0
1,67,65,0
1,67,0,20
1,63,0,2
1,60,0,0
1,63,65,38
1,70,65,0
1,67,65,0
1,67,0,81
1,63,0,5
1,70,0,2
1,58,65,32
1,62,65,0
1,65,65,0
1,65,0,91
1,62,0,1
1,58,0,6
1,63,65,82
1,67,65,0
1,60,65,0
1,60,0,13
1,63,0,0
1,67,0,1
1,63,65,16
1,60,65,0
1,67,65,0
1,67,0,12
1,63,0,0
1,60,0,2
1,60,65,16
1,63,65,0
1,67,65,0
1,67,0,15
1,63,0,1
1,60,0,2
1,60,65,42
1,67,65,0
1,63,65,0
1,63,0,16
1,60,0,3
1,67,0,1
1,63,65,40
1,67,65,0
1,70,65,0
1,67,0,78
1,63,0,4
1,70,0,2
1,58,65,36
1,62,65,0
1,65,65,0
1,65,0,105
1,62,0,0
1,58,0,4
1,63,65,71
1,60,65,0
1,67,65,0
1,67,0,12
1,60,0,1
1,63,0,0
1,60,65,17
1,63,65,0
1,67,65,0
1,67,0,12
1,63,0,0
1,60,0,4
1,63,65,14
1,60,65,0
1,67,65,0
1,67,0,17
1,63,0,0
1,60,0,1
1,67,65,42
1,63,65,0
1,60,65,0
1,60,0,13
1,63,0,3
1,67,0,3
1,70,65,41
1,67,65,0
1,63,65,0
1,67,0,67
1,63,0,5
1,70,0,5
1,58,65,43
1,62,65,0
1,65,65,0
1,65,0,79
1,62,0,1
1,58,0,6
1,63,65,94
1,60,65,0
1,67,65,0
1,67,0,12
1,63,0,2
1,60,0,1
1,63,65,15
1,60,65,0
1,67,65,0
1,67,0,12
1,60,0,2
1,63,0,0
1,63,65,16
1,60,65,0
1,67,65,0
1,67,0,18
1,63,0,1
1,60,0,2
1,60,65,39
1,67,65,0
1,63,65,0
1,63,0,22
1,67,0,1
1,60,0,2
1,70,65,35
1,67,65,0
1,63,65,0
1,67,0,63
1,63,0,3
1,70,0,4
1,58,65,50
1,62,65,0
1,65,65,0
1,65,0,75
1,62,0,0
1,58,0,3
1,65,65,102
1,60,65,0
1,68,65,0
1,68,0,13
1,65,0,3
1,60,0,1
1,60,65,13
1,65,65,0
1,68,65,0
1,68,0,14
1,65,0,1
1,60,0,3
1,60,65,12
1,68,65,0
1,65,65,0
1,65,0,19
1,68,0,3
1,60,0,0
1,60,65,38
1,68,65,0
1,65,65,0
1,60,0,21
1,65,0,1
1,68,0,3
1,70,65,35
1,65,65,0
1,60,65,0
1,70,0,104
1,65,0,1
1,60,0,1
1,60,65,14
1,65,65,0
1,68,65,0
1,68,0,100
1,65,0,1
1,60,0,2
1,65,65,77
1,60,65,0
1,68,65,0
1,68,0,14
1,60,0,2
1,65,0,0
1,60,65,14
1,68,65,0
1,65,65,0
1,65,0,12
1,68,0,1
1,60,0,3
1,60,65,14
1,68,65,0
1,65,65,0
1,65,0,14
1,68,0,4
1,60,0,1
1,65,65,41
1,60,65,0
1,68,65,0
1,68,0,16
1,60,0,1
1,65,0,2
1,60,65,41
1,65,65,0
1,70,65,0
1,70,0,95
1,65,0,2
1,60,0,3
1,60,65,20
1,65,65,0
1,68,65,0
1,65,0,92
1,68,0,1
1,60,0,32
1,63,65,55
1,60,65,0
1,67,65,0
1,67,0,14
1,63,0,1
1,60,0,2
1,60,65,13
1,63,65,0
1,67,65,0
1,67,0,14
1,63,0,0
1,60,0,5
1,63,65,11
1,60,65,0
1,67,65,0
1,67,0,21
1,63,0,2
1,60,0,4
1,63,65,33
1,67,65,0
1,60,65,0
1,60,0,17
1,67,0,9
1,63,0,1
1,63,65,33
1,70,65,0
1,67,65,0
1,67,0,70
1,63,0,7
1,70,0,2
1,62,65,41
1,65,65,0
1,58,65,0
1,62,0,87
1,65,0,3
1,58,0,3
1,67,65,87
1,60,65,0
1,63,65,0
1,63,0,10
1,60,0,5
1,67,0,0
1,63,65,15
1,60,65,0
1,67,65,0
1,67,0,15
1,63,0,1
1,60,0,3
1,63,65,11
1,60,65,0
1,67,65,0
1,63,0,19
1,67,0,1
1,60,0,1
1,63,65,39
1,60,65,0
1,67,65,0
1,67,0,20
1,60,0,0
1,63,0,0
1,70,65,40
1,63,65,0
1,67,65,0
1,67,0,75
1,63,0,2
1,70,0,4
1,58,65,39
1,62,65,0
1,65,65,0
1,62,0,61
1,65,0,3
1,58,0,22
1,56,65,34
1,63,65,0
1,60,65,0
1,60,0,436
1,56,0,5
1,63,0,3
1,62,65,36
1,65,65,0
1,58,65,0
1,65,0,424
1,62,0,4
1,58,0,1
1,60,65,111
1,67,65,0
1,63,65,0
1,63,0,11
1,67,0,2
1,60,0,2
1,60,65,15
1,63,65,0
1,67,65,0
1,60,65,0
1,67,0,12
1,63,0,1
1,60,0,4
1,60,0,7
1,63,65,6
1,67,65,0
1,63,0,17
1,67,0,4
1,60,65,39
1,67,65,0
1,63,65,0
1,63,0,17
1,67,0,6
1,60,0,1
1,63,65,36
1,70,65,0
1,67,65,0
1,67,0,79
1,70,0,5
1,63,0,2
1,58,65,34
1,65,65,0
1,62,65,0
1,62,0,92
1,65,0,6
1,58,0,5
1,60,65,77
1,67,65,0
1,63,65,0
1,63,0,11
1,60,0,3
1,67,0,2
1,60,65,14
1,63,65,0
1,67,65,0
1,63,0,13
1,67,0,1
1,60,0,3
1,60,65,13
1,63,65,0
1,67,65,0
1,63,0,18
1,67,0,2
1,60,0,4
1,67,65,36
1,63,65,0
1,60,65,0
1,60,0,13
1,63,0,5
1,67,0,2
1,70,65,40
1,63,65,0
1,67,65,0
1,67,0,66
1,63,0,4
1,70,0,2
1,58,65,48
1,62,65,0
1,65,65,0
1,62,0,84
1,65,0,3
1,58,0,3
1,67,65,90
1,63,65,0
1,60,65,0
1,60,0,11
1,63,0,2
1,67,0,1
1,63,65,16
1,60,65,0
1,67,65,0
1,67,0,12
1,63,0,1
1,60,0,3
1,60,65,14
1,63,65,0
1,67,65,0
1,67,0,15
1,63,0,0
1,60,0,5
1,60,65,40
1,63,65,0
1,67,65,0
1,67,0,20
1,63,0,2
1,60,0,0
1,63,65,38
1,70,65,0
1,67,65,0
1,67,0,81
1,63,0,5
1,70,0,2
1,58,65,32
1,62,65,0
1,65,65,0
1,65,0,91
1,62,0,1
1,58,0,6
1,63,65,82
1,67,65,0
1,60,65,0
1,60,0,13
1,63,0,0
1,67,0,1
1,63,65,16
1,60,65,0
1,67,65,0
1,67,0,12
1,63,0,0
1,60,0,2
1,60,65,16
1,63,65,0
1,67,65,0
1,67,0,15
1,63,0,1
1,60,0,2
1,60,65,42
1,67,65,0
1,63,65,0
1,63,0,16
1,60,0,3
1,67,0,1
1,63,65,40
1,67,65,0
1,70,65,0
1,67,0,78
1,63,0,4
1,70,0,2
1,58,65,36
1,62,65,0
1,65,65,0
1,65,0,105
1,62,0,0
1,58,0,4
1,63,65,71
1,60,65,0
1,67,65,0
1,67,0,12
1,60,0,1
1,63,0,0
1,60,65,17
1,63,65,0
1,67,65,0
1,67,0,12
1,63,0,0
1,60,0,4
1,63,65,14
1,60,65,0
1,67,65,0
1,67,0,17
1,63,0,0
1,60,0,1
1,67,65,42
1,63,65,0
1,60,65,0
1,60,0,13
1,63,0,3
1,67,0,3
1,70,65,41
1,67,65,0
1,63,65,0
1,67,0,67
1,63,0,5
1,70,0,5
1,58,65,43
1,62,65,0
1,65,65,0
1,65,0,79
1,62,0,1
1,58,0,6
1,63,65,94
1,60,65,0
1,67,65,0
1,67,0,12
1,63,0,2
1,60,0,1
1,63,65,15
1,60,65,0
1,67,65,0
1,67,0,12
1,60,0,2
1,63,0,0
1,63,65,16
1,60,65,0
1,67,65,0
1,67,0,18
1,63,0,1
1,60,0,2
1,60,65,39
1,67,65,0
1,63,65,0
1,63,0,22
1,67,0,1
1,60,0,2
1,70,65,35
1,67,65,0
1,63,65,0
1,67,0,63
1,63,0,3
1,70,0,4
1,58,65,50
1,62,65,0
1,65,65,0
1,65,0,75
1,62,0,0
1,58,0,3
1,65,65,102
1,60,65,0
1,68,65,0
1,68,0,13
1,65,0,3
1,60,0,1
1,60,65,13
1,65,65,0
1,68,65,0
1,68,0,14
1,65,0,1
1,60,0,3
1,60,65,12
1,68,65,0
1,65,65,0
1,65,0,19
1,68,0,3
1,60,0,0
1,60,65,38
1,68,65,0
1,65,65,0
1,60,0,21
1,65,0,1
1,68,0,3
1,70,65,35
1,65,65,0
1,60,65,0
1,70,0,104
1,65,0,1
1,60,0,1
1,60,65,14
1,65,65,0
1,68,65,0
1,68,0,100
1,65,0,1
1,60,0,2
1,65,65,77
1,60,65,0
1,68,65,0
1,68,0,14
1,60,0,2
1,65,0,0
1,60,65,14
1,68,65,0
1,65,65,0
1,65,0,12
1,68,0,1
1,60,0,3
1,60,65,14
1,68,65,0
1,65,65,0
1,65,0,14
1,68,0,4
1,60,0,1
1,65,65,41
1,60,65,0
1,68,65,0
1,68,0,16
1,60,0,1
1,65,0,2
1,60,65,41
1,65,65,0
1,70,65,0
1,70,0,95
1,65,0,2
1,60,0,3
1,60,65,20
1,65,65,0
1,68,65,0
1,65,0,92
1,68,0,1
1,60,0,32
1,63,65,55
1,60,65,0
1,67,65,0
1,67,0,14
1,63,0,1
1,60,0,2
1,60,65,13
1,63,65,0
1,67,65,0
1,67,0,14
1,63,0,0
1,60,0,5
1,63,65,11
1,60,65,0
1,67,65,0
1,67,0,21
1,63,0,2
1,60,0,4
1,63,65,33
1,67,65,0
1,60,65,0
1,60,0,17
1,67,0,9
1,63,0,1
1,63,65,33
1,70,65,0
1,67,65,0
1,67,0,70
1,63,0,7
1,70,0,2
1,62,65,41
1,65,65,0
1,58,65,0
1,62,0,87
1,65,0,3
1,58,0,3
1,67,65,87
1,60,65,0
1,63,65,0
1,63,0,10
1,60,0,5
1,67,0,0
1,63,65,15
1,60,65,0
1,67,65,0
1,67,0,15
1,63,0,1
1,60,0,3
1,63,65,11
1,60,65,0
1,67,65,0
1,63,0,19
1,67,0,1
1,60,0,1
1,63,65,39
1,60,65,0
1,67,65,0
1,67,0,20
1,60,0,0
1,63,0,0
1,70,65,40
1,63,65,0
1,67,65,0
1,67,0,75
1,63,0,2
1,70,0,4
1,58,65,39
1,62,65,0
1,65,65,0
1,62,0,61
1,65,0,3
1,58,0,22
1,56,65,34
1,63,65,0
1,60,65,0
1,60,0,436
1,56,0,5
1,63,0,3
1,62,65,36
1,65,65,0
1,58,65,0
1,65,0,424
1,62,0,4
1,58,0,1
1,60,65,111
1,67,65,0
1,63,65,0
1,63,0,11
1,67,0,2
1,60,0,2
1,60,65,15
1,63,65,0
1,67,65,0
1,60,65,0
1,67,0,12
1,63,0,1
1,60,0,4
1,60,0,7
1,63,65,6
1,67,65,0
1,63,0,17
1,67,0,4
1,60,65,39
1,67,65,0
1,63,65,0
1,63,0,17
1,67,0,6
1,60,0,1
1,63,65,36
1,70,65,0
1,67,65,0
1,67,0,79
1,70,0,5
1,63,0,2
1,58,65,34
1,65,65,0
1,62,65,0
1,62,0,92
1,65,0,6
1,58,0,5
1,60,65,77
1,67,65,0
1,63,65,0
1,63,0,11
1,60,0,3
1,67,0,2
1,60,65,14
1,63,65,0
1,67,65,0
1,63,0,13
1,67,0,1
1,60,0,3
1,60,65,13
1,63,65,0
1,67,65,0
1,63,0,18
1,67,0,2
1,60,0,4
1,67,65,36
1,63,65,0
1,60,65,0
1,60,0,13
1,63,0,5
1,67,0,2
1,70,65,40
1,63,65,0
1,67,65,0
1,67,0,66
1,63,0,4
1,70,0,2
1,58,65,48
1,62,65,0
1,65,65,0
1,62,0,84
1,65,0,3
1,58,0,3
1,68,65,30
1,60,65,0
1,53,65,0
1,65,65,0
1,65,0,136
1,53,0,0
1,68,0,0
1,60,0,2
1,53,65,42
1,60,65,0
1,68,65,0
1,65,65,0
1,65,0,18
1,68,0,0
1,60,0,1
1,53,0,5
1,60,65,36
1,68,65,0
1,65,65,0
1,53,65,0
1,60,0,196
1,65,0,5
1,68,0,3
1,53,0,0
1,65,65,36
1,60,65,0
1,68,65,0
1,53,65,0
1,60,0,145
1,65,0,1
1,68,0,0
1,53,0,0
