track,note,velocity,time
0,35,98,1536
0,47,72,0
0,47,98,0
0,63,104,0
0,35,106,0
0,51,90,0
0,54,76,120
0,61,58,0
0,61,69,156
0,61,69,0
0,66,81,0
0,44,86,0
0,63,80,0
0,62,110,0
0,61,81,20
0,63,81,0
0,66,85,0
0,35,95,0
0,35,73,0
0,35,83,28
0,35,110,0
0,54,75,44
0,63,82,0
0,66,75,0
0,64,88,0
0,61,81,0
0,63,101,176
0,44,102,0
0,35,71,116
0,35,98,0
0,61,76,0
0,66,91,0
0,63,108,0
0,61,86,0
0,63,87,0
0,35,99,60
0,35,96,0
0,61,75,4
0,47,76,0
0,54,66,0
0,61,64,0
0,44,98,0
0,62,118,0
0,63,78,0
0,35,105,40
0,63,91,0
0,61,87,0
0,35,74,0
0,61,77,0
0,66,96,0
0,35,98,72
0,35,89,0
0,63,83,88
0,61,75,0
0,64,87,0
0,66,78,0
0,54,81,0
0,63,87,128
0,44,96,0
0,61,85,0
0,63,92,0
0,66,88,0
0,47,73,0
0,63,82,104
0,35,60,0
0,35,99,0
0,42,97,44
0,35,101,0
0,42,87,0
0,42,90,0
0,66,91,0
0,62,86,0
0,64,71,192
0,68,76,0
0,35,93,36
0,42,90,0
0,70,91,0
0,66,89,0
0,68,83,156
0,72,81,0
0,42,89,20
0,74,87,0
0,35,87,0
0,70,84,0
0,76,83,196
0,72,79,0
0,78,86,56
0,42,87,0
0,74,84,0
0,35,93,0
0,80,76,220
0,76,72,0
0,82,87,12
0,35,97,0
0,78,82,0
0,42,85,0
0,30,80,36
0,48,75,0
0,63,95,0
0,78,81,68
0,48,96,0
0,82,80,0
0,30,110,0
0,63,88,0
0,63,91,124
0,35,73,0
0,35,97,0
0,49,68,0
0,47,86,0
0,47,98,0
0,35,96,0
0,54,70,120
0,61,58,0
0,66,81,156
0,63,80,0
0,61,69,0
0,62,114,0
0,61,73,0
0,66,85,88
0,63,81,0
0,61,83,0
0,35,85,0
0,61,81,0
0,35,98,0
0,35,109,28
0,35,94,0
0,63,82,52
0,66,75,0
0,61,81,0
0,64,93,0
0,54,83,0
0,63,101,176
0,44,100,0
0,61,78,76
0,35,92,0
0,35,69,0
0,63,104,0
0,61,86,0
0,63,87,0
0,66,91,0
0,35,98,124
0,47,72,0
0,54,75,4
0,62,68,0
0,61,75,0
0,62,95,20
0,63,78,80
0,61,64,0
0,62,114,0
0,44,98,0
0,66,96,100
0,61,87,0
0,63,91,0
0,35,82,0
0,35,100,0
0,61,71,0
0,35,86,76
0,62,96,0
0,35,98,0
0,66,78,68
0,54,83,0
0,48,77,0
0,61,75,0
0,64,94,0
0,63,83,0
0,47,77,128
0,63,87,0
0,63,107,0
0,66,88,0
0,48,88,0
0,61,85,0
0,63,96,64
0,37,98,0
0,35,83,0
0,42,87,44
0,42,95,0
0,42,87,0
0,62,86,0
0,66,91,0
0,35,106,0
0,68,76,192
0,64,71,0
0,70,91,16
0,42,94,0
0,35,97,0
0,66,89,0
0,72,81,156
0,68,83,0
0,70,84,20
0,74,87,0
0,35,91,0
0,42,94,0
0,76,83,196
0,72,79,0
0,35,95,76
0,74,84,0
0,42,91,0
0,78,86,0
0,80,76,36
0,76,72,0
0,35,98,44
0,78,82,0
0,30,103,0
0,82,87,0
0,62,91,36
0,45,51,0
0,82,80,64
0,78,81,0
0,30,109,0
0,45,101,0
0,64,103,0
0,64,106,124
0,63,104,60
0,35,98,0
0,51,90,0
0,35,107,0
0,66,83,0
0,47,97,0
0,63,83,0
0,61,77,0
0,51,76,0
0,54,70,176
0,44,86,88
0,62,110,0
0,63,76,0
0,66,70,0
0,35,101,0
0,35,73,0
0,59,76,0
0,47,87,0
0,61,75,0
0,59,78,16
0,35,102,92
0,47,81,0
0,35,83,0
0,59,101,4
0,59,77,4
0,59,68,0
0,64,88,0
0,44,102,4
0,63,101,0
0,59,85,28
0,70,83,12
0,66,85,0
0,61,85,0
0,52,98,0
0,52,88,0
0,35,71,0
0,63,108,0
0,61,103,8
0,35,96,56
0,40,103,0
0,58,73,56
0,61,102,4
0,62,118,16
0,44,98,0
0,35,74,8
0,52,87,0
0,40,97,0
0,58,95,8
0,40,93,64
0,35,89,0
0,66,77,88
0,64,87,0
0,56,97,8
0,63,92,32
0,44,96,0
0,66,91,4
0,35,60,0
0,61,89,0
0,63,82,0
0,40,92,0
0,70,91,0
0,54,98,8
0,39,99,4
0,63,104,0
0,51,90,0
0,51,88,0
0,35,98,0
0,61,48,4
0,51,94,0
0,66,66,4
0,54,72,0
0,62,110,0
0,44,86,0
0,35,73,48
0,39,102,0
0,51,96,0
0,61,80,0
0,39,101,56
0,35,83,0
0,61,68,0
0,66,63,72
0,64,88,0
0,54,66,0
0,63,101,108
0,44,102,0
0,39,94,64
0,44,99,0
0,35,71,0
0,63,108,0
0,69,96,0
0,60,92,0
0,60,79,0
0,65,91,0
0,35,96,92
0,44,96,0
0,62,118,212
0,44,98,0
0,44,68,0
0,35,74,60
0,60,87,0
0,57,81,0
0,53,84,0
0,44,79,0
0,32,98,0
0,54,76,64
0,32,102,0
0,35,89,0
0,44,76,4
0,64,87,0
0,57,80,44
0,44,96,0
0,63,92,0
0,44,79,52
0,63,82,0
0,35,60,0
0,32,87,0
0,49,91,4
0,35,98,0
0,49,100,0
0,51,90,0
0,63,104,0
0,56,91,0
0,52,83,0
0,59,91,0
0,37,106,0
0,52,73,176
0,44,86,4
0,59,77,0
0,62,110,0
0,35,73,4
0,37,93,0
0,56,99,0
0,49,85,20
0,35,83,0
0,37,101,0
0,59,96,12
0,59,64,12
0,64,88,0
0,59,91,12
0,44,102,84
0,63,101,0
0,42,97,12
0,59,89,0
0,64,87,0
0,35,71,0
0,68,91,0
0,63,108,0
0,37,87,0
0,64,105,0
0,42,85,88
0,42,98,0
0,35,96,0
0,49,69,12
0,64,101,8
0,62,118,4
0,52,80,0
0,44,98,0
0,63,99,8
0,59,83,0
0,35,74,0
0,64,85,0
0,59,80,0
0,68,87,0
0,30,101,0
0,30,103,60
0,35,89,0
0,59,84,80
0,64,87,8
0,59,73,0
0,44,96,12
0,63,92,0
0,61,109,4
0,30,103,24
0,61,87,0
0,35,60,0
0,63,92,0
0,66,83,0
0,63,82,0
0,35,98,4
0,35,97,0
0,47,91,0
0,63,104,0
0,51,90,0
0,47,91,0
0,63,72,40
0,61,73,0
0,44,86,68
0,54,84,0
0,62,110,0
0,59,98,0
0,35,85,4
0,59,83,0
0,35,73,0
0,61,78,0
0,47,70,4
0,35,91,0
0,35,83,0
0,59,55,0
0,64,88,0
0,59,66,0
0,63,73,0
0,66,74,0
0,54,55,8
0,47,69,0
0,63,101,0
0,44,102,0
0,35,71,32
0,49,103,0
0,59,92,0
0,64,83,0
0,35,92,0
0,49,89,0
0,63,108,0
0,56,90,0
0,52,76,72
0,37,101,0
0,35,96,0
0,59,74,68
0,56,81,0
0,44,98,68
0,52,58,0
0,62,118,0
0,49,86,48
0,59,87,32
0,56,81,0
0,66,84,0
0,64,87,0
0,37,103,0
0,42,87,0
0,35,74,0
0,35,89,24
0,42,95,0
0,59,73,0
0,52,76,0
0,42,84,0
0,64,87,36
0,56,78,0
0,30,110,44
0,59,81,0
0,59,83,0
0,66,73,0
0,52,72,0
0,44,96,0
0,63,92,0
0,63,82,76
0,35,60,0
0,42,77,0
0,35,94,4
0,47,91,0
0,35,98,0
0,61,93,0
0,66,91,0
0,51,90,0
0,63,104,0
0,47,95,0
0,63,91,0
0,54,75,172
0,44,86,144
0,59,78,0
0,62,110,0
0,59,89,104
0,35,73,4
0,35,103,0
0,66,89,0
0,59,93,0
0,63,91,0
0,35,102,8
0,58,98,0
0,35,83,0
0,59,77,0
0,64,88,0
0,59,97,8
0,63,101,16
0,44,102,0
0,66,91,4
0,52,85,0
0,35,71,0
0,61,91,0
0,52,100,0
0,70,87,0
0,63,108,0
0,40,97,0
0,61,102,0
0,40,101,28
0,35,96,0
0,61,72,16
0,54,77,0
0,61,105,8
0,66,76,12
0,44,98,0
0,62,118,0
0,35,74,12
0,52,98,0
0,40,93,0
0,58,98,0
0,61,78,0
0,61,74,64
0,35,89,0
0,40,96,0
0,64,87,8
0,66,83,0
0,61,67,0
0,56,94,0
0,44,96,8
0,63,92,0
0,63,82,8
0,61,87,0
0,35,60,0
0,70,83,0
0,66,89,0
0,40,88,0
0,58,76,4
0,56,81,4
0,51,106,4
0,39,95,0
0,63,104,0
0,54,96,0
0,35,98,0
0,51,90,0
0,51,92,8
0,54,86,0
0,44,86,0
0,62,110,0
0,61,74,0
0,35,73,48
0,39,81,0
0,61,81,0
0,39,102,96
0,61,73,0
0,35,83,0
0,66,73,32
0,64,88,0
0,54,62,0
0,27,89,4
0,51,80,0
0,63,101,0
0,44,102,0
0,65,81,16
0,69,84,0
0,54,76,0
0,32,111,0
0,60,69,0
0,60,78,0
0,35,71,0
0,63,108,0
0,44,94,0
0,44,83,72
0,35,96,0
0,72,66,176
0,69,73,0
0,65,71,0
0,62,118,128
0,44,98,0
0,72,87,28
0,69,94,0
0,35,74,0
0,77,95,0
0,44,85,0
0,44,95,64
0,35,89,0
0,44,80,80
0,60,75,0
0,64,87,0
0,32,106,60
0,63,92,0
0,65,82,0
0,69,87,0
0,54,75,0
0,44,96,0
0,44,74,40
0,35,60,0
0,44,91,0
0,44,78,0
0,63,82,0
0,59,80,24
0,49,93,0
0,68,105,0
0,59,100,0
0,35,98,0
0,64,101,0
0,51,90,0
0,63,104,0
0,37,120,0
0,49,80,124
0,62,110,132
0,52,84,0
0,44,86,0
0,37,106,88
0,35,73,0
0,59,86,0
0,56,96,20
0,49,87,0
0,35,83,0
0,37,106,0
0,59,106,8
0,64,88,4
0,64,76,0
0,59,96,4
0,44,102,0
0,49,77,0
0,63,101,0
0,63,108,0
0,35,71,0
0,59,92,0
0,56,100,0
0,42,97,0
0,59,81,0
0,52,96,0
0,42,91,0
0,64,99,4
0,42,90,12
0,35,96,0
0,52,81,0
0,66,103,4
0,62,118,96
0,49,77,0
0,44,98,0
0,42,99,8
0,59,78,0
0,42,87,0
0,35,74,0
0,63,103,4
0,35,89,32
0,52,51,72
0,64,87,0
0,59,90,4
0,42,75,12
0,44,96,0
0,63,92,0
0,30,105,0
0,61,105,8
0,35,60,0
0,63,82,0
0,47,95,16
0,35,107,0
0,47,85,0
0,63,80,0
0,63,104,0
0,66,83,0
0,61,79,0
0,51,90,0
0,35,98,0
0,51,83,8
0,63,75,0
0,61,86,8
0,62,110,0
0,59,98,0
0,44,86,0
0,54,77,0
0,35,73,16
0,35,100,0
0,61,80,0
0,63,41,0
0,59,94,0
0,35,83,28
0,47,85,0
0,35,95,0
0,59,64,16
0,59,79,0
0,64,88,0
0,54,59,4
0,63,101,0
0,44,102,0
0,66,82,80
0,63,108,0
0,49,100,0
0,35,71,0
0,56,82,0
0,59,90,0
0,37,109,0
0,64,78,0
0,59,83,0
0,49,89,176
0,35,96,0
0,48,65,28
0,52,79,0
0,59,75,24
0,44,98,0
0,62,118,0
0,48,95,0
0,42,101,88
0,59,100,0
0,37,98,0
0,64,100,0
0,66,99,0
0,42,87,0
0,35,74,0
0,52,71,76
0,59,75,0
0,42,91,0
0,35,89,0
0,52,80,64
0,56,99,0
0,42,87,0
0,45,76,0
0,64,87,0
0,59,85,0
0,63,92,36
0,45,107,0
0,44,96,0
0,30,118,0
0,63,82,176
0,35,60,0
0,58,95,68
0,66,101,0
0,78,98,0
0,66,91,0
0,63,97,0
0,61,102,0
0,49,80,0
0,35,113,0
0,63,86,0
0,63,104,0
0,35,106,0
0,66,100,0
0,75,95,12
0,53,83,0
0,37,87,0
0,63,94,0
0,62,110,0
0,73,84,72
0,70,75,0
0,35,105,0
0,66,80,0
0,63,76,0
0,54,100,12
0,35,93,12
0,53,78,0
0,35,111,0
0,59,100,8
0,53,70,0
0,63,84,0
0,66,107,0
0,61,87,0
0,64,88,0
0,54,85,0
0,58,62,0
0,56,75,28
0,37,87,0
0,53,83,0
0,63,101,0
0,39,98,0
0,66,101,92
0,63,108,0
0,64,102,0
0,53,78,0
0,59,106,0
0,59,86,0
0,35,78,0
0,40,109,0
0,64,107,0
0,56,98,0
0,35,106,16
0,53,84,0
0,63,100,8
0,56,67,0
0,71,77,12
0,54,73,0
0,68,85,0
0,53,77,0
0,37,85,0
0,64,80,0
0,61,78,0
0,62,118,0
0,56,85,16
0,59,99,0
0,64,97,0
0,56,96,0
0,42,110,0
0,35,77,0
0,66,91,0
0,61,100,0
0,53,78,0
0,61,78,12
0,71,75,0
0,64,80,0
0,53,86,0
0,68,83,0
0,35,99,0
0,63,101,4
0,64,87,0
0,51,90,0
0,53,52,0
0,54,81,72
0,53,91,0
0,63,92,0
0,37,88,0
0,30,113,0
0,63,91,92
0,35,65,0
0,56,80,0
0,53,68,0
0,58,94,0
0,66,93,0
0,54,96,0
0,61,91,0
0,63,82,0
0,35,110,20
0,35,100,0
0,47,87,0
0,63,104,0
0,53,88,0
0,54,96,16
0,37,90,12
0,53,85,0
0,62,110,0
0,51,80,24
0,35,64,0
0,35,105,0
0,53,59,0
0,73,85,0
0,66,85,0
0,70,86,0
0,63,80,0
0,53,87,20
0,35,96,0
0,56,61,4
0,37,94,60
0,51,88,0
0,58,83,0
0,64,88,0
0,61,91,0
0,63,85,0
0,53,65,0
0,66,80,0
0,37,92,56
0,54,85,0
0,39,93,0
0,53,94,0
0,63,101,0
0,40,106,96
0,63,108,0
0,66,91,0
0,64,90,0
0,56,87,0
0,35,68,0
0,59,91,0
0,56,85,0
0,53,64,0
0,53,88,108
0,35,91,0
0,64,85,176
0,68,89,0
0,56,83,0
0,71,85,0
0,75,83,0
0,53,87,28
0,37,91,0
0,54,75,0
0,62,118,0
0,35,70,124
0,42,106,0
0,64,77,0
0,68,78,0
0,59,90,0
0,53,76,0
0,66,72,0
0,61,98,0
0,51,85,0
0,56,87,0
0,71,77,0
0,61,76,0
0,64,71,0
0,54,98,8
0,35,99,0
0,42,107,0
0,53,85,0
0,53,66,176
0,64,87,0
0,64,54,0
0,68,64,0
0,61,57,0
0,71,85,28
0,64,83,0
0,53,88,0
0,68,87,0
0,30,105,0
0,63,92,0
0,61,81,0
0,37,89,0
0,56,91,0
0,42,94,40
0,35,78,0
0,63,82,0
0,54,78,0
0,53,71,0
0,52,94,84
0,35,99,0
0,35,110,0
0,59,91,0
0,63,104,0
0,63,97,0
0,61,97,0
0,66,94,0
0,66,99,0
0,78,96,0
0,47,97,0
0,58,91,0
0,37,91,268
0,53,98,0
0,62,110,0
0,75,95,0
0,63,101,0
0,35,77,80
0,53,76,0
0,54,93,0
0,51,97,0
0,70,87,0
0,66,86,0
0,63,83,0
0,73,87,0
0,35,111,0
0,53,78,36
0,35,87,0
0,59,97,0
0,61,83,12
0,53,94,0
0,58,73,0
0,37,90,0
0,63,77,0
0,64,88,0
0,66,110,0
0,66,66,0
0,54,83,0
0,63,101,28
0,51,68,0
0,39,93,0
0,53,65,0
0,37,74,0
0,56,91,108
0,56,94,0
0,59,99,0
0,64,92,0
0,64,98,0
0,63,108,0
0,53,91,0
0,40,106,0
0,66,92,0
0,35,96,0
0,53,77,4
0,66,70,40
0,64,83,12
0,61,78,0
0,56,84,0
0,71,78,0
0,53,48,0
0,68,87,0
0,64,64,12
0,63,100,20
0,53,89,0
0,62,118,0
0,54,78,0
0,37,87,0
0,35,75,8
0,53,69,0
0,61,98,0
0,51,84,0
0,71,76,20
0,68,87,0
0,61,75,0
0,64,81,0
0,53,89,0
0,54,87,0
0,35,85,8
0,64,87,0
0,53,74,0
0,40,87,0
0,56,90,56
0,53,91,0
0,37,104,0
0,42,99,0
0,63,92,0
0,59,83,0
0,63,82,4
0,61,107,0
0,44,98,0
0,53,77,0
0,61,98,88
0,56,92,0
0,63,104,0
0,64,97,0
0,46,106,0
0,53,90,0
0,35,107,0
0,53,68,4
0,49,91,0
0,37,98,52
0,56,86,0
