track,note,velocity,time
1,28,84,1052
1,28,84,12
1,28,84,12
1,28,84,12
1,37,84,12
1,37,84,12
1,37,84,12
1,37,84,12
1,28,84,14
1,28,84,14
1,28,84,14
1,28,84,12
1,37,84,12
1,37,84,12
1,37,84,12
1,37,84,12
1,28,84,12
1,28,84,14
1,28,84,12
1,28,84,12
1,33,84,14
1,33,84,12
1,37,84,14
1,37,84,12
1,33,84,12
1,35,84,14
1,28,84,12
1,28,84,12
1,28,84,12
1,28,84,12
1,28,84,12
1,28,84,12
1,33,84,12
1,33,84,12
1,37,84,12
1,37,84,12
1,33,84,12
1,35,84,12
1,28,84,14
1,28,84,12
1,37,84,14
1,37,84,12
1,37,84,12
1,37,84,12
1,28,84,12
1,28,84,12
1,28,84,12
1,28,84,12
1,28,84,14
1,28,84,14
1,37,84,14
1,37,84,12
1,37,84,12
1,37,84,12
1,28,84,14
1,28,84,14
1,28,84,12
1,28,84,14
1,33,84,12
1,33,84,14
1,28,84,14
1,37,84,12
1,37,84,12
1,37,84,12
1,37,84,12
1,28,84,12
1,28,84,12
1,28,84,14
1,28,84,12
1,33,84,12
1,33,84,12
1,37,84,12
1,37,84,14
1,33,84,12
1,35,84,12
1,28,84,14
1,28,84,12
1,28,84,12
1,28,84,12
1,28,84,14
1,28,84,14
1,33,84,12
1,33,84,12
1,37,84,12
1,37,84,12
1,33,84,12
1,35,84,12
1,28,84,12
1,28,84,12
1,28,84,12
1,28,84,12
1,28,84,12
1,28,84,12
1,33,84,12
1,33,84,12
1,37,84,12
1,37,84,12
1,33,84,12
1,35,84,12
1,28,84,12
1,28,84,14
1,37,84,12
1,37,84,12
1,37,84,14
1,37,84,14
1,28,84,12
1,28,84,14
1,28,84,12
1,28,84,12
1,28,84,14
1,28,84,12
1,37,84,14
1,37,84,12
1,37,84,12
1,37,84,14
1,28,84,12
1,28,84,14
1,28,84,12
1,28,84,12
1,33,84,12
1,33,84,14
1,28,84,12
1,37,84,12
1,37,84,12
1,37,84,14
1,37,84,12
1,28,84,12
1,28,84,12
1,28,84,12
1,28,84,12
1,33,84,12
1,33,84,12
1,37,84,12
1,37,84,14
1,33,84,12
1,35,84,12
1,28,84,12
1,28,84,12
1,33,84,12
1,35,84,12
1,28,84,14
1,28,84,12
1,33,84,12
1,35,84,14
1,28,84,12
1,28,84,12
1,37,84,12
1,37,84,12
1,37,84,12
1,37,84,12
1,28,84,12
1,28,84,12
1,28,84,12
1,28,84,12
1,37,84,12
1,37,84,12
1,37,84,12
1,37,84,12
1,28,84,12
1,28,84,12
1,28,84,12
1,28,84,12
1,37,84,12
1,37,84,12
1,37,84,12
1,37,84,12
1,28,84,14
1,28,84,12
1,28,84,14
1,28,84,14
1,33,84,14
1,35,84,14
1,28,84,12
2,76,56,1412
2,80,52,0
2,64,64,4
2,83,56,0
2,73,53,2
2,80,48,2
2,61,62,2
2,76,64,0
2,80,61,2
2,83,57,0
2,64,58,2
2,76,64,0
2,73,56,0
2,80,48,2
2,61,61,2
2,76,62,0
2,64,55,2
2,76,58,2
2,80,57,0
2,83,50,0
2,69,58,2
2,73,52,0
2,76,57,0
2,81,50,2
2,61,53,4
2,76,64,0
2,80,51,0
2,73,55,2
2,69,57,2
2,73,47,0
2,76,56,0
2,81,48,2
2,71,51,0
2,78,62,0
2,75,63,2
2,83,66,2
2,64,58,4
2,76,47,2
2,80,53,0
2,76,58,4
2,64,55,2
2,80,57,0
2,83,60,0
2,76,57,2
2,81,50,2
2,69,58,2
2,73,52,0
2,73,55,2
2,80,51,0
2,61,53,2
2,76,64,0
2,57,64,4
2,81,48,0
2,69,57,0
2,73,47,0
2,76,56,0
2,59,51,2
2,75,63,0
2,83,66,0
2,78,62,2
2,76,47,4
2,64,58,2
2,80,53,2
2,76,64,6
2,80,48,0
2,61,62,2
2,73,53,0
2,80,52,0
2,64,64,2
2,76,56,0
2,83,56,0
2,73,53,2
2,61,62,0
2,76,64,2
2,80,48,0
2,64,64,4
2,83,56,0
2,76,56,2
2,80,52,0
2,57,63,2
2,81,47,0
2,73,50,0
2,76,58,0
2,76,63,4
2,80,58,2
2,64,45,2
2,83,49,0
2,61,52,2
2,76,64,2
2,73,64,2
2,80,64,0
2,64,55,2
2,76,58,0
2,83,50,0
2,80,57,2
2,76,57,2
2,81,50,0
2,69,58,2
2,73,52,0
2,61,53,4
2,73,55,2
2,76,64,0
2,80,51,0
2,69,57,0
2,76,56,2
2,73,47,2
2,81,48,0
2,78,62,2
2,83,66,0
2,71,51,2
2,75,63,0
2,64,64,2
2,76,64,2
2,80,64,0
2,80,57,6
2,83,50,0
2,64,55,2
2,76,58,0
2,69,58,4
2,73,52,2
2,81,50,0
2,76,57,2
2,76,64,0
2,73,55,2
2,80,51,0
2,61,53,2
2,69,57,4
2,76,56,0
2,81,48,0
2,73,47,2
2,71,51,0
2,75,63,2
2,83,66,0
2,78,62,2
2,64,58,2
2,76,47,0
2,80,53,4
2,64,55,2
2,76,58,0
2,80,57,0
2,83,60,0
2,73,52,2
2,76,57,0
2,69,58,2
2,81,50,0
2,76,64,0
2,80,51,0
2,61,53,4
2,73,55,0
2,69,57,0
2,76,56,0
2,73,47,2
2,57,64,2
2,81,48,0
2,78,62,0
2,83,66,0
2,59,51,2
2,75,63,0
2,64,58,2
2,76,47,2
2,80,53,0
2,73,53,2
2,76,64,0
2,80,48,0
2,61,62,2
2,76,56,2
2,80,52,0
2,64,64,0
2,83,56,2
2,76,64,2
2,61,62,2
2,73,53,0
2,80,48,2
2,76,56,0
2,80,52,0
2,83,56,0
2,64,64,2
2,73,50,4
2,76,58,2
2,81,47,0
2,57,63,2
2,64,45,2
2,76,63,2
2,83,49,0
2,80,58,2
2,61,52,0
2,73,64,2
2,76,64,0
2,80,64,0
2,64,55,0
2,76,58,0
2,83,50,2
2,80,57,2
2,69,58,2
2,73,52,0
2,81,50,2
2,76,57,2
2,61,53,2
2,73,55,2
2,76,64,0
2,80,51,0
2,69,57,2
2,73,47,0
2,76,56,0
2,81,48,2
2,78,62,0
2,83,66,0
2,71,51,2
2,75,63,0
2,76,64,2
2,64,64,2
2,80,64,2
2,69,57,2
2,73,47,0
2,76,56,0
2,81,48,0
2,78,62,2
2,83,66,0
2,71,51,2
2,75,63,0
2,76,64,0
2,80,64,2
2,64,64,2
2,69,57,2
2,73,47,0
2,76,56,2
2,81,48,2
2,78,62,4
2,83,66,0
2,71,51,2
2,75,63,0
2,64,64,2
2,80,64,0
2,76,64,4
2,61,62,6
2,80,48,0
2,73,53,2
2,76,64,0
2,80,52,0
2,83,56,0
2,64,64,2
2,76,56,0
2,61,62,4
2,76,64,0
2,73,53,2
2,80,48,0
2,76,56,2
2,83,56,0
2,64,64,2
2,80,52,0
2,73,53,2
2,80,48,0
2,61,62,2
2,76,64,2
2,64,64,4
2,76,56,2
2,83,56,0
2,80,52,0
2,71,47,0
2,76,56,0
2,64,57,2
2,81,48,2
2,71,51,2
2,83,66,0
2,75,63,2
2,78,62,0
2,64,64,0
2,76,64,4
2,80,64,0
3,64,56,1378
3,52,64,2
3,71,56,2
3,68,52,2
3,61,53,2
3,49,62,2
3,68,48,0
3,64,64,4
3,64,64,4
3,71,57,2
3,52,58,2
3,68,61,0
3,61,56,2
3,64,62,2
3,68,48,0
3,49,61,4
3,52,55,0
3,64,58,0
3,71,50,0
3,68,57,6
3,57,58,0
3,61,52,0
3,69,50,2
3,64,57,2
3,49,53,4
3,64,64,2
3,61,55,2
3,68,51,2
3,57,57,0
3,64,56,4
3,69,48,0
3,61,47,2
3,63,63,2
3,66,62,0
3,59,51,4
3,71,66,0
3,52,58,6
3,64,47,0
3,68,53,0
3,52,55,2
3,64,58,0
3,68,57,2
3,71,60,2
3,57,58,0
3,61,52,0
3,69,50,2
3,64,57,4
3,61,55,4
3,64,64,0
3,49,53,2
3,68,51,2
3,64,56,2
3,61,47,2
3,57,57,2
3,69,48,0
3,45,64,2
3,63,63,0
3,47,51,2
3,66,62,0
3,71,66,4
3,64,47,8
3,68,53,0
3,52,58,2
3,64,64,2
3,68,48,0
3,61,53,2
3,49,62,2
3,52,64,2
3,64,56,0
3,71,56,0
3,68,52,2
3,64,64,6
3,49,62,2
3,61,53,0
3,68,48,0
3,68,52,2
3,64,56,2
3,71,56,0
3,52,64,2
3,61,50,0
3,64,58,0
3,45,63,2
3,69,47,0
3,64,63,4
3,52,45,2
3,71,49,0
3,68,58,2
3,49,52,4
3,68,64,2
3,61,64,2
3,64,64,0
3,68,57,2
3,52,55,2
3,64,58,4
3,71,50,0
3,57,58,0
3,64,57,0
3,69,50,0
3,61,52,6
3,61,55,6
3,64,64,0
3,49,53,2
3,68,51,0
3,57,57,4
3,64,56,0
3,61,47,4
3,69,48,0
3,59,51,4
3,63,63,0
3,66,62,0
3,71,66,2
3,52,64,2
3,64,64,0
3,68,64,4
3,71,50,4
3,68,57,2
3,52,55,2
3,64,58,2
3,57,58,2
3,64,57,0
3,61,52,4
3,69,50,0
3,49,53,2
3,64,64,0
3,68,51,4
3,61,55,2
3,64,56,2
3,57,57,2
3,69,48,2
3,61,47,2
3,59,51,2
3,63,63,2
3,66,62,0
3,71,66,0
3,52,58,4
3,68,53,2
3,64,47,2
3,52,55,4
3,64,58,2
3,71,60,0
3,68,57,2
3,61,52,2
3,64,57,4
3,69,50,0
3,57,58,2
3,64,64,0
3,68,51,0
3,49,53,4
3,61,55,2
3,57,57,2
3,64,56,0
3,69,48,0
3,61,47,4
3,45,64,2
3,63,63,0
3,71,66,2
3,66,62,2
3,47,51,2
3,64,47,0
3,68,53,0
3,52,58,2
3,61,53,4
3,49,62,2
3,64,64,2
3,68,48,2
3,52,64,2
3,68,52,4
3,71,56,0
3,64,56,2
3,49,62,0
3,61,53,2
3,68,48,2
3,64,64,2
3,64,56,4
3,52,64,4
3,68,52,2
3,71,56,0
3,64,58,0
3,45,63,2
3,61,50,2
3,69,47,0
3,52,45,2
3,68,58,0
3,64,63,2
3,71,49,4
3,61,64,0
3,49,52,2
3,68,64,0
3,64,64,4
3,64,58,4
3,52,55,2
3,68,57,0
3,71,50,4
3,57,58,0
3,61,52,0
3,69,50,2
3,64,57,2
3,49,53,4
3,68,51,0
3,64,64,4
3,61,55,2
3,57,57,2
3,69,48,2
3,61,47,2
3,64,56,0
3,63,63,2
3,66,62,0
3,59,51,2
3,71,66,2
3,64,64,2
3,68,64,2
3,52,64,4
3,61,47,0
3,69,48,4
3,57,57,2
3,64,56,0
3,63,63,2
3,66,62,0
3,59,51,2
3,71,66,0
3,68,64,2
3,52,64,6
3,64,64,0
3,61,47,0
3,57,57,2
3,64,56,2
3,69,48,0
3,59,51,2
3,66,62,0
3,71,66,2
3,63,63,4
3,68,64,0
3,52,64,4
3,64,64,2
3,64,64,2
3,68,48,0
3,61,53,2
3,49,62,4
3,52,64,0
3,64,56,0
3,68,52,2
3,71,56,0
3,68,48,4
3,61,53,2
3,64,64,0
3,49,62,4
3,52,64,4
3,71,56,0
3,64,56,2
3,68,52,0
3,49,62,2
3,68,48,0
3,61,53,4
3,64,64,0
3,64,64,2
3,64,56,4
3,68,52,2
3,71,56,0
3,57,57,0
3,61,47,0
3,64,56,2
3,69,48,4
3,59,51,0
3,63,63,0
3,66,62,0
3,71,66,4
3,52,64,2
3,64,64,0
3,68,64,0
4,78,69,1346
4,76,76,34
4,78,82,98
4,80,62,8
4,78,87,186
4,76,67,14
4,83,64,54
4,80,67,12
4,78,69,37444
4,76,76,34
4,78,82,98
4,80,62,8
4,78,87,186
4,76,67,14
4,83,64,54
4,80,67,12
4,78,69,66628
4,76,76,34
4,78,82,98
4,80,62,8
4,78,87,186
4,76,67,14
4,83,64,54
4,80,67,12
4,78,69,42052
4,76,76,34
4,78,82,98
4,80,62,8
4,78,87,186
4,76,67,14
4,83,64,54
4,80,67,12
4,78,69,580
4,76,76,34
4,78,82,98
4,80,62,8
5,36,95,1536
5,36,95,766
5,36,95,766
5,36,95,766
5,36,95,766
5,36,95,766
5,36,95,766
5,36,95,766
5,36,95,766
5,36,95,766
5,36,95,766
5,36,95,766
5,36,95,766
5,36,95,766
5,36,95,766
5,36,95,766
5,36,95,766
5,36,95,766
5,36,95,766
5,36,95,766
5,36,95,766
5,36,95,766
5,36,95,766
5,36,95,766
5,36,95,766
5,36,95,766
5,36,95,766
5,36,95,766
5,36,95,766
5,36,95,766
5,36,95,766
5,36,95,766
5,36,95,766
5,36,95,766
5,36,95,766
5,36,95,766
5,36,95,766
5,36,95,766
5,36,95,766
5,36,95,766
5,36,95,766
5,36,95,766
5,36,95,766
5,36,95,766
5,36,95,766
5,36,95,766
5,36,95,766
5,36,95,766
5,36,95,766
5,36,95,766
5,36,95,766
5,36,95,766
5,36,95,766
5,36,95,766
5,36,95,766
5,36,95,766
5,36,95,766
5,36,95,766
5,36,95,766
5,36,95,766
5,36,95,766
5,36,95,766
5,36,95,766
5,36,95,766
5,36,95,766
5,36,95,766
5,36,95,766
5,36,95,766
5,36,95,766
5,36,95,766
5,36,95,766
5,36,95,766
5,36,95,766
5,36,95,766
5,36,95,766
5,36,95,766
5,36,95,766
5,36,95,766
5,36,95,766
5,36,95,766
5,36,95,766
5,36,95,766
5,36,95,766
5,36,95,766
5,36,95,766
5,36,95,766
5,36,95,766
5,36,95,766
5,36,95,766
5,36,95,766
5,36,95,766
5,36,95,766
5,36,95,766
5,36,95,766
5,36,95,766
5,36,95,766
5,36,95,766
5,36,95,766
5,36,95,766
5,36,95,766
5,36,95,766
5,36,95,766
5,36,95,766
5,36,95,766
5,36,95,766
5,36,95,766
5,36,95,766
5,36,95,766
5,36,95,766
5,36,95,766
5,36,95,766
5,36,95,766
5,36,95,766
5,36,95,766
5,36,95,766
5,36,95,766
5,36,95,766
5,36,95,766
5,36,95,766
5,36,95,766
5,36,95,766
5,36,95,766
5,36,95,766
5,36,95,766
5,36,95,766
5,36,95,766
5,36,95,766
5,36,95,766
5,36,95,766
5,36,95,766
5,36,95,766
5,36,95,766
5,36,95,766
5,36,95,766
5,36,95,766
5,36,95,766
5,36,95,766
5,36,95,766
5,36,95,766
5,36,95,766
5,36,95,766
5,36,95,766
5,36,95,766
5,36,95,766
5,36,95,766
5,36,95,766
5,36,95,766
5,36,95,766
5,36,95,766
5,36,95,766
5,36,95,766
5,36,95,766
5,36,95,766
5,36,95,766
5,36,95,766
5,36,95,766
5,36,95,766
5,36,95,766
5,36,95,766
5,36,95,766
5,36,95,766
5,36,95,766
5,36,95,766
5,36,95,766
5,36,95,766
5,36,95,766
5,36,95,766
5,36,95,766
5,36,95,766
5,36,95,766
5,36,95,766
5,36,95,766
5,36,95,766
5,36,95,766
5,36,95,766
5,36,95,766
5,36,95,766
5,36,95,766
5,36,95,766
5,36,95,766
5,36,95,766
5,36,95,766
5,36,95,766
5,36,95,766
5,36,95,766
5,36,95,766
5,36,95,766
5,36,95,766
5,36,95,766
5,36,95,766
5,36,95,766
5,36,95,766
5,36,95,766
5,36,95,766
5,36,95,766
5,36,95,766
5,36,95,766
5,36,95,766
5,36,95,766
5,36,95,766
5,36,95,766
5,36,95,766
5,36,95,766
5,36,95,766
5,36,95,766
5,36,95,766
5,36,95,766
5,36,95,766
5,36,95,766
5,36,95,766
5,36,95,766
5,36,95,766
5,36,95,766
5,36,95,766
5,36,95,766
5,36,95,766
5,36,95,766
5,36,95,766
5,36,95,766
5,36,95,766
5,36,95,766
5,36,95,766
5,36,95,766
5,36,95,766
5,36,95,766
5,36,95,766
5,36,95,766
5,36,95,766
5,36,95,766
5,36,95,766
5,36,95,766
5,36,95,766
5,36,95,766
5,36,95,766
5,36,95,766
5,36,95,766
5,36,95,766
5,36,95,766
5,36,95,766
5,36,95,766
5,36,95,766
5,36,95,766
5,36,95,766
5,36,95,766
5,36,95,766
5,36,95,766
5,36,95,766
5,36,95,766
5,36,95,766
5,36,95,766
5,36,95,766
5,36,95,766
5,36,95,766
