track,note,velocity,time
1,47,65,0
1,35,65,0
1,47,65,80
1,35,65,0
1,28,65,119
1,40,65,0
1,40,65,74
1,28,65,0
1,47,65,36
1,35,65,0
1,47,65,93
1,35,65,0
1,28,65,36
1,40,65,0
1,40,65,96
1,28,65,0
1,47,65,45
1,35,65,0
1,47,65,77
1,35,65,0
1,28,65,52
1,40,65,0
1,40,65,80
1,28,65,0
1,47,107,13
1,35,97,0
1,47,65,192
1,35,65,0
1,40,65,311
1,28,65,0
1,40,65,160
1,28,65,0
1,47,65,279
1,35,65,0
1,47,65,237
1,35,65,0
1,40,65,308
1,28,65,0
1,40,65,135
1,28,65,0
1,63,65,1866
1,67,65,0
1,60,65,0
1,67,65,52
1,60,65,0
1,63,65,0
1,63,65,48
1,67,65,0
1,60,65,0
1,60,65,132
1,67,65,0
1,63,65,0
1,63,65,128
1,70,65,0
1,67,65,0
1,58,65,148
1,65,65,0
1,62,65,0
1,63,65,240
1,60,65,0
1,67,65,0
1,63,65,55
1,60,65,0
1,67,65,0
1,60,65,52
1,63,65,0
1,67,65,0
1,63,65,128
1,67,65,0
1,60,65,0
1,70,65,128
1,63,65,0
1,67,65,0
1,58,65,144
1,65,65,0
1,62,65,0
1,63,65,263
1,67,65,0
1,60,65,0
1,60,65,55
1,63,65,0
1,67,65,0
1,67,65,48
1,63,65,0
1,60,65,0
1,60,65,135
1,67,65,0
1,63,65,0
1,63,65,122
1,70,65,0
1,67,65,0
1,58,65,151
1,62,65,0
1,65,65,0
1,63,65,285
1,60,65,0
1,67,65,0
1,63,65,52
1,60,65,0
1,67,65,0
1,63,65,45
1,67,65,0
1,60,65,0
1,67,65,125
1,60,65,0
1,63,65,0
1,63,65,119
1,67,65,0
1,70,65,0
1,58,65,157
1,62,65,0
1,65,65,0
1,67,65,333
1,63,65,0
1,60,65,0
1,63,65,52
1,60,65,0
1,67,65,0
1,60,65,45
1,63,65,0
1,67,65,0
1,60,65,128
1,63,65,0
1,67,65,0
1,63,65,122
1,70,65,0
1,67,65,0
1,58,65,103
1,62,65,0
1,65,65,0
1,63,65,263
1,67,65,0
1,60,65,0
1,63,65,52
1,60,65,0
1,67,65,0
1,60,65,52
1,63,65,0
1,67,65,0
1,60,65,135
1,67,65,0
1,63,65,0
1,63,65,128
1,67,65,0
1,70,65,0
1,58,65,116
1,62,65,0
1,65,65,0
1,63,65,228
1,60,65,0
1,67,65,0
1,60,65,55
1,63,65,0
1,67,65,0
1,63,65,45
1,60,65,0
1,67,65,0
1,67,65,135
1,63,65,0
1,60,65,0
1,70,65,132
1,67,65,0
1,63,65,0
1,58,65,138
1,62,65,0
1,65,65,0
1,63,65,301
1,60,65,0
1,67,65,0
1,63,65,48
1,60,65,0
1,67,65,0
1,63,65,52
1,60,65,0
1,67,65,0
1,60,65,125
1,67,65,0
1,63,65,0
1,70,65,112
1,67,65,0
1,63,65,0
1,58,65,160
1,62,65,0
1,65,65,0
1,65,65,327
1,60,65,0
1,68,65,0
1,60,65,42
1,65,65,0
1,68,65,0
1,60,65,39
1,68,65,0
1,65,65,0
1,60,65,122
1,68,65,0
1,65,65,0
1,70,65,112
1,65,65,0
1,60,65,0
1,60,65,45
1,65,65,0
1,68,65,0
1,65,65,247
1,60,65,0
1,68,65,0
1,60,65,45
1,68,65,0
1,65,65,0
1,60,65,45
1,68,65,0
1,65,65,0
1,65,65,132
1,60,65,0
1,68,65,0
1,60,65,132
1,65,65,0
1,70,65,0
1,60,65,64
1,65,65,0
1,68,65,0
1,63,65,176
1,60,65,0
1,67,65,0
1,60,65,42
1,63,65,0
1,67,65,0
1,63,65,36
1,60,65,0
1,67,65,0
1,63,65,106
1,67,65,0
1,60,65,0
1,63,65,106
1,70,65,0
1,67,65,0
1,62,65,132
1,65,65,0
1,58,65,0
1,67,65,279
1,60,65,0
1,63,65,0
1,63,65,48
1,60,65,0
1,67,65,0
1,63,65,36
1,60,65,0
1,67,65,0
1,63,65,125
1,60,65,0
1,67,65,0
1,70,65,128
1,63,65,0
1,67,65,0
1,58,65,125
1,62,65,0
1,65,65,0
1,56,65,109
1,63,65,0
1,60,65,0
1,62,65,116
1,65,65,0
1,58,65,0
1,60,65,356
1,67,65,0
1,63,65,0
1,60,65,48
1,63,65,0
1,67,65,0
1,60,65,0
1,63,65,20
1,67,65,0
1,60,65,125
1,67,65,0
1,63,65,0
1,63,65,116
1,70,65,0
1,67,65,0
1,58,65,109
1,65,65,0
1,62,65,0
1,60,65,247
1,67,65,0
1,63,65,0
1,60,65,45
1,63,65,0
1,67,65,0
1,60,65,42
1,63,65,0
1,67,65,0
1,67,65,116
1,63,65,0
1,60,65,0
1,70,65,128
1,63,65,0
1,67,65,0
1,58,65,154
1,62,65,0
1,65,65,0
1,67,65,288
1,63,65,0
1,60,65,0
1,63,65,52
1,60,65,0
1,67,65,0
1,60,65,45
1,63,65,0
1,67,65,0
1,60,65,128
1,63,65,0
1,67,65,0
1,63,65,122
1,70,65,0
1,67,65,0
1,58,65,103
1,62,65,0
1,65,65,0
1,63,65,263
1,67,65,0
1,60,65,0
1,63,65,52
1,60,65,0
1,67,65,0
1,60,65,52
1,63,65,0
1,67,65,0
1,60,65,135
1,67,65,0
1,63,65,0
1,63,65,128
1,67,65,0
1,70,65,0
1,58,65,116
1,62,65,0
1,65,65,0
1,63,65,228
1,60,65,0
1,67,65,0
1,60,65,55
1,63,65,0
1,67,65,0
1,63,65,45
1,60,65,0
1,67,65,0
1,67,65,135
1,63,65,0
1,60,65,0
1,70,65,132
1,67,65,0
1,63,65,0
1,58,65,138
1,62,65,0
1,65,65,0
1,63,65,301
1,60,65,0
1,67,65,0
1,63,65,48
1,60,65,0
1,67,65,0
1,63,65,52
1,60,65,0
1,67,65,0
1,60,65,125
1,67,65,0
1,63,65,0
1,70,65,112
1,67,65,0
1,63,65,0
1,58,65,160
1,62,65,0
1,65,65,0
1,65,65,327
1,60,65,0
1,68,65,0
1,60,65,42
1,65,65,0
1,68,65,0
1,60,65,39
1,68,65,0
1,65,65,0
1,60,65,122
1,68,65,0
1,65,65,0
1,70,65,112
1,65,65,0
1,60,65,0
1,60,65,45
1,65,65,0
1,68,65,0
1,65,65,247
1,60,65,0
1,68,65,0
1,60,65,45
1,68,65,0
1,65,65,0
1,60,65,45
1,68,65,0
1,65,65,0
1,65,65,132
1,60,65,0
1,68,65,0
1,60,65,132
1,65,65,0
1,70,65,0
1,60,65,64
1,65,65,0
1,68,65,0
1,63,65,176
1,60,65,0
1,67,65,0
1,60,65,42
1,63,65,0
1,67,65,0
1,63,65,36
1,60,65,0
1,67,65,0
1,63,65,106
1,67,65,0
1,60,65,0
1,63,65,106
1,70,65,0
1,67,65,0
1,62,65,132
1,65,65,0
1,58,65,0
1,67,65,279
1,60,65,0
1,63,65,0
1,63,65,48
1,60,65,0
1,67,65,0
1,63,65,36
1,60,65,0
1,67,65,0
1,63,65,125
1,60,65,0
1,67,65,0
1,70,65,128
1,63,65,0
1,67,65,0
1,58,65,125
1,62,65,0
1,65,65,0
1,56,65,109
1,63,65,0
1,60,65,0
1,62,65,116
1,65,65,0
1,58,65,0
1,60,65,356
1,67,65,0
1,63,65,0
1,60,65,48
1,63,65,0
1,67,65,0
1,60,65,0
1,63,65,20
1,67,65,0
1,60,65,125
1,67,65,0
1,63,65,0
1,63,65,116
1,70,65,0
1,67,65,0
1,58,65,109
1,65,65,0
1,62,65,0
1,60,65,247
1,67,65,0
1,63,65,0
1,60,65,45
1,63,65,0
1,67,65,0
1,60,65,42
1,63,65,0
1,67,65,0
1,67,65,116
1,63,65,0
1,60,65,0
1,70,65,128
1,63,65,0
1,67,65,0
1,58,65,154
1,62,65,0
1,65,65,0
1,68,65,96
1,60,65,0
1,53,65,0
1,65,65,0
1,53,65,135
1,60,65,0
1,68,65,0
1,65,65,0
1,60,65,116
1,68,65,0
1,65,65,0
1,53,65,0
1,65,65,116
1,60,65,0
1,68,65,0
1,53,65,0
1,68,65,109
1,65,65,0
1,53,65,0
1,60,65,0
1,60,65,103
1,68,65,0
1,65,65,0
1,53,65,0
1,60,65,80
1,67,65,0
1,63,65,0
1,48,65,0
1,60,65,154
1,48,65,0
1,67,65,0
1,63,65,0
1,60,65,87
1,67,65,0
1,63,65,0
1,48,65,0
1,63,65,77
1,60,65,0
1,67,65,0
1,48,65,0
1,62,65,23
1,58,65,0
1,65,65,0
1,46,65,0
1,46,65,48
1,58,65,0
1,62,65,0
1,65,65,0
1,63,65,29
1,60,65,0
1,67,65,0
1,48,65,0
1,60,65,68
1,65,65,0
1,68,65,0
1,53,65,0
1,60,65,119
1,65,65,0
1,68,65,0
1,53,65,0
1,60,65,100
1,65,65,0
1,68,65,0
1,53,65,0
1,60,65,64
1,65,65,0
1,68,65,0
1,53,65,0
1,60,65,100
1,68,65,0
1,65,65,0
1,53,65,0
1,60,65,96
1,68,65,0
1,65,65,0
1,53,65,0
1,50,65,84
1,55,65,0
1,59,65,0
1,55,65,71
1,50,65,0
1,59,65,0
1,50,65,106
1,55,65,0
1,59,65,0
1,55,65,84
1,50,65,0
1,59,65,0
1,50,65,96
1,55,65,0
1,59,65,0
1,59,65,74
1,50,65,0
1,55,65,0
1,46,65,52
1,50,65,0
1,55,65,0
1,59,65,0
1,64,65,6381
1,61,65,0
1,57,65,0
1,61,65,231
1,64,65,0
1,57,65,0
1,57,65,48
1,66,65,0
1,62,65,0
1,57,65,29
1,64,65,0
1,61,65,0
1,66,65,301
1,62,65,0
1,57,65,0
1,57,65,215
1,62,65,0
1,66,65,0
1,62,65,48
1,67,65,0
1,59,65,0
1,62,65,64
1,66,65,0
1,57,65,0
1,64,65,295
1,61,65,0
1,57,65,0
1,61,65,208
1,64,65,0
1,57,65,0
1,57,65,64
1,66,65,0
1,62,65,0
1,57,65,55
1,64,65,0
1,61,65,0
1,62,65,343
1,66,65,0
1,57,65,0
1,62,65,221
1,66,65,0
1,57,65,0
1,62,65,39
1,67,65,0
1,59,65,0
1,62,65,48
1,66,65,0
1,57,65,0
1,61,65,122
1,64,65,0
1,57,65,0
1,64,65,135
1,61,65,0
1,57,65,0
1,61,65,138
1,64,65,0
1,57,65,0
1,57,65,132
1,61,65,0
1,64,65,0
1,61,65,122
1,57,65,0
1,64,65,0
1,61,65,128
1,64,65,0
1,57,65,0
1,61,65,135
1,64,65,0
1,57,65,0
1,61,65,128
1,64,65,0
1,57,65,0
1,66,65,125
1,57,65,0
1,62,65,0
1,57,65,128
1,66,65,0
1,62,65,0
1,57,65,138
1,62,65,0
1,66,65,0
1,57,65,132
1,66,65,0
1,62,65,0
1,66,65,125
1,57,65,0
1,62,65,0
1,66,65,128
1,57,65,0
1,62,65,0
1,66,65,135
1,57,65,0
1,62,65,0
1,57,65,128
1,66,65,0
1,62,65,0
1,64,65,116
1,57,65,0
1,61,65,0
1,61,65,128
1,64,65,0
1,57,65,0
1,57,65,125
1,61,65,0
1,64,65,0
1,61,65,125
1,64,65,0
1,57,65,0
1,64,65,119
1,61,65,0
1,57,65,0
1,61,65,128
1,64,65,0
1,57,65,0
1,61,65,128
1,64,65,0
1,57,65,0
1,61,65,128
1,57,65,0
1,64,65,0
1,66,65,116
1,57,65,0
1,62,65,0
1,57,65,128
1,66,65,0
1,62,65,0
1,57,65,141
1,66,65,0
1,62,65,0
1,66,65,128
1,62,65,0
1,57,65,0
1,57,65,125
1,66,65,0
1,62,65,0
1,66,65,132
1,62,65,0
1,57,65,0
1,66,65,138
1,62,65,0
1,57,65,0
1,66,65,122
1,57,65,0
1,62,65,0
1,61,65,128
1,64,65,0
1,64,65,135
1,57,65,0
1,61,65,0
1,61,65,132
1,64,65,0
1,57,65,0
1,61,65,128
1,64,65,0
1,57,65,0
1,61,65,125
1,64,65,0
1,57,65,0
1,61,65,135
1,64,65,0
1,57,65,0
1,61,65,132
1,57,65,0
1,64,65,0
1,61,65,119
1,64,65,0
1,57,65,0
1,66,65,119
1,62,65,0
1,57,65,0
1,57,65,119
1,62,65,0
1,66,65,0
1,62,65,138
1,66,65,0
1,57,65,0
1,66,65,135
1,62,65,0
1,57,65,0
1,66,65,132
1,57,65,0
1,62,65,0
1,66,65,135
1,62,65,0
1,57,65,0
1,57,65,122
1,66,65,0
1,62,65,0
1,66,65,128
1,62,65,0
1,57,65,0
1,57,65,119
1,64,65,0
1,61,65,0
1,61,65,132
1,57,65,0
1,64,65,0
1,61,65,132
1,64,65,0
1,57,65,0
1,57,65,125
1,61,65,0
1,64,65,0
1,61,65,125
1,64,65,0
1,57,65,0
1,61,65,128
1,64,65,0
1,57,65,0
1,61,65,119
1,64,65,0
1,57,65,0
1,61,65,122
1,57,65,0
1,64,65,0
1,57,65,112
1,66,65,0
1,62,65,0
1,57,65,119
1,66,65,0
1,62,65,0
1,66,65,125
1,57,65,0
1,62,65,0
1,62,65,128
1,66,65,0
1,57,65,0
1,62,65,128
1,57,65,0
1,66,65,0
1,62,65,132
1,66,65,0
1,57,65,0
1,57,65,132
1,62,65,0
1,66,65,0
1,57,65,125
1,62,65,0
1,66,65,0
1,64,65,128
1,68,65,0
1,59,65,0
1,68,65,125
1,59,65,0
1,64,65,0
1,68,65,128
1,59,65,0
1,64,65,0
1,68,65,128
1,59,65,0
1,64,65,0
1,68,65,128
1,59,65,0
1,64,65,0
1,68,65,116
1,64,65,0
1,59,65,0
1,68,65,128
1,64,65,0
1,59,65,0
1,68,65,122
1,64,65,0
1,59,65,0
1,59,65,132
1,68,65,0
1,64,65,0
1,68,65,119
1,64,65,0
1,59,65,0
1,68,65,128
1,59,65,0
1,64,65,0
1,68,65,125
1,59,65,0
1,64,65,0
1,68,65,122
1,59,65,0
1,64,65,0
1,68,65,135
1,59,65,0
1,64,65,0
1,68,65,125
1,64,65,0
1,59,65,0
1,68,65,128
1,64,65,0
1,59,65,0
1,66,65,122
1,62,65,0
1,57,65,0
1,57,65,122
1,62,65,0
1,66,65,0
1,66,65,132
1,57,65,0
1,62,65,0
1,66,65,132
1,62,65,0
1,57,65,0
1,62,65,122
1,66,65,0
1,57,65,0
1,66,65,125
1,62,65,0
1,57,65,0
1,66,65,119
1,62,65,0
1,57,65,0
1,66,65,119
1,62,65,0
1,57,65,0
1,57,65,132
1,66,65,0
1,62,65,0
1,66,65,122
1,57,65,0
1,62,65,0
1,66,65,119
1,57,65,0
1,62,65,0
1,66,65,122
1,62,65,0
1,57,65,0
1,57,65,128
1,66,65,0
1,62,65,0
1,66,65,132
1,62,65,0
1,57,65,0
1,62,65,122
1,57,65,0
1,66,65,0
1,57,65,128
1,66,65,0
1,62,65,0
1,64,65,119
1,68,65,0
1,59,65,0
1,68,65,119
1,64,65,0
1,59,65,0
1,68,65,132
1,59,65,0
1,64,65,0
1,64,65,128
1,68,65,0
1,59,65,0
1,68,65,119
1,64,65,0
1,59,65,0
1,64,65,119
1,68,65,0
1,59,65,0
1,64,65,135
1,68,65,0
1,59,65,0
1,68,65,128
1,64,65,0
1,59,65,0
1,68,65,135
1,64,65,0
1,59,65,0
1,68,65,128
1,64,65,0
1,59,65,0
1,68,65,128
1,64,65,0
1,59,65,0
1,68,65,132
1,59,65,0
1,64,65,0
1,68,65,122
1,59,65,0
1,64,65,0
1,68,65,128
1,64,65,0
1,59,65,0
1,68,65,119
1,64,65,0
1,59,65,0
1,68,65,122
1,64,65,0
1,59,65,0
1,66,65,119
1,57,65,0
1,62,65,0
1,57,65,116
1,66,65,0
1,62,65,0
1,66,65,128
1,57,65,0
1,62,65,0
1,66,65,128
1,62,65,0
1,57,65,0
1,66,65,128
1,62,65,0
1,57,65,0
1,66,65,119
1,62,65,0
1,57,65,0
1,66,65,125
1,62,65,0
1,57,65,0
1,57,65,125
1,66,65,0
1,62,65,0
1,59,65,109
1,64,65,0
1,68,65,0
1,68,65,128
1,59,65,0
1,64,65,0
1,68,65,128
1,59,65,0
1,64,65,0
1,68,65,119
1,59,65,0
