track,note,velocity,time
1,35,104,2
1,35,103,56
1,35,97,20
1,35,102,42
1,35,96,8
1,35,95,38
1,35,97,22
1,35,89,36
1,35,98,86
1,35,56,76
1,35,102,8
1,35,104,42
1,35,105,16
1,35,100,46
1,35,103,16
1,35,92,44
1,35,104,22
1,35,101,30
1,28,102,30
1,28,100,58
1,28,94,22
1,28,97,38
1,28,92,4
1,28,89,40
1,28,98,22
1,28,89,40
1,28,101,80
1,28,52,74
1,28,100,12
1,28,105,38
1,28,104,20
1,28,103,44
1,28,102,16
1,28,92,42
1,28,105,22
1,28,99,28
1,35,104,30
1,35,106,56
1,35,95,20
1,35,97,42
1,35,97,4
1,35,94,40
1,35,96,22
1,35,88,38
1,35,103,80
1,35,54,80
1,35,104,8
1,35,102,46
1,35,106,16
1,35,104,46
1,35,97,12
1,35,95,50
1,35,103,18
1,42,97,36
1,47,101,28
1,28,102,12
1,28,105,58
1,28,93,24
1,28,101,36
1,28,92,6
1,28,91,40
1,28,95,26
1,28,91,34
1,28,102,84
1,28,53,76
1,28,102,10
1,28,100,40
1,28,105,20
1,28,100,42
1,28,102,94
1,32,96,44
1,33,93,22
1,34,98,14
1,35,98,20
1,34,102,18
1,35,87,0
1,35,96,32
1,35,86,58
1,34,101,36
1,35,88,14
1,35,102,34
1,35,97,90
1,34,82,6
1,35,92,10
1,35,98,66
1,35,99,56
1,35,83,78
1,35,86,70
1,34,94,6
1,35,87,8
1,35,90,28
1,35,87,92
1,34,98,6
1,35,88,188
1,35,81,46
1,35,92,70
1,34,94,14
1,35,88,14
1,35,103,34
1,42,86,44
1,47,87,28
1,27,101,4
1,28,85,40
1,28,96,46
1,28,91,62
1,27,95,8
1,28,96,188
1,28,99,6
1,28,85,2
1,27,88,14
1,28,104,4
1,28,105,50
1,32,102,18
1,33,84,10
1,35,83,38
1,27,82,4
1,28,94,14
1,28,94,30
1,28,85,64
1,27,82,6
1,28,86,4
1,28,90,36
1,28,90,74
1,27,97,16
1,28,89,0
1,32,88,38
1,33,102,16
1,34,101,62
1,35,101,8
1,35,105,58
1,35,98,20
1,35,98,42
1,35,98,8
1,35,90,34
1,35,92,22
1,35,87,36
1,35,97,84
1,35,57,76
1,35,105,8
1,35,105,42
1,35,103,20
1,35,100,42
1,35,101,12
1,35,97,48
1,35,100,88
1,42,86,2
1,47,87,18
1,28,101,22
1,28,102,54
1,28,92,24
1,28,97,36
1,28,96,4
1,28,93,42
1,28,95,26
1,28,90,32
1,28,97,86
1,28,55,72
1,28,104,12
1,28,107,38
1,28,106,18
1,28,106,44
1,28,104,94
1,28,99,24
1,32,100,26
1,32,100,24
1,33,103,24
1,33,99,20
1,34,101,28
1,34,99,22
1,35,105,2
1,35,106,52
1,35,95,24
1,35,99,36
1,35,99,6
1,35,96,40
1,35,98,22
1,35,92,40
1,35,99,82
1,35,90,74
1,35,102,10
1,35,102,40
1,35,108,16
1,35,108,50
1,35,102,88
1,35,94,50
1,35,106,20
1,35,101,34
1,28,105,28
1,28,103,56
1,28,99,22
1,28,104,36
1,28,98,6
1,28,96,40
1,28,98,24
1,28,88,34
1,28,99,86
1,28,56,74
1,28,102,10
1,28,108,44
1,28,102,16
1,28,108,50
1,28,99,92
1,35,99,42
1,40,98,16
1,35,102,202
1,28,101,30
1,35,103,32
1,35,104,56
1,35,100,20
1,35,102,40
1,35,100,8
1,35,97,38
1,35,95,24
1,35,92,38
1,35,100,78
1,35,54,80
1,35,107,10
1,35,106,42
1,35,103,20
1,35,107,46
1,35,101,14
1,35,99,48
1,35,108,18
1,42,98,34
1,47,101,28
1,28,104,2
1,28,104,54
1,28,99,24
1,28,103,36
1,28,95,6
1,28,97,36
1,28,98,22
1,28,92,36
1,28,102,86
1,28,56,72
1,28,108,8
1,28,104,46
1,28,108,18
1,28,102,46
1,28,105,90
1,28,102,28
1,28,103,22
1,28,104,24
1,28,103,24
1,28,103,24
1,28,102,24
1,28,105,22
1,35,99,0
1,35,108,2
1,35,105,54
1,35,96,24
1,35,105,34
1,35,100,6
1,35,95,38
1,35,97,24
1,35,93,34
1,35,105,84
1,35,54,74
1,35,109,12
1,35,105,38
1,35,103,20
1,35,104,46
1,35,101,92
1,35,95,44
1,35,102,18
1,35,104,32
1,28,104,32
1,28,102,54
1,28,94,22
1,28,100,38
1,28,95,8
1,28,93,38
1,28,96,26
1,28,91,32
1,28,99,86
1,28,55,76
1,28,105,10
1,28,108,40
1,28,102,20
1,28,103,44
1,28,101,94
1,35,96,46
1,40,94,8
1,35,102,206
1,28,105,30
1,35,105,32
1,35,104,56
1,35,96,20
1,35,105,42
1,35,97,8
1,35,97,2
1,35,94,2
1,35,88,32
1,35,101,82
1,35,54,2
1,35,106,2
1,35,107,40
1,35,102,18
1,35,106,46
1,35,106,12
1,35,95,46
1,35,104,20
1,42,101,30
1,47,105,2
1,28,106,10
1,28,106,54
1,28,98,2
1,28,104,2
1,28,98,2
2,47,79,12618
2,54,80,4
2,47,80,12
2,52,78,2
2,47,83,16
2,54,77,2
2,52,78,12
2,47,83,2
2,54,102,2
2,59,106,0
2,52,106,2
2,59,105,0
2,59,103,12
2,54,108,2
2,52,104,12
2,59,106,2
2,54,103,14
2,59,103,2
2,52,107,2
2,59,108,2
2,54,102,14
2,59,103,2
2,52,108,14
2,59,107,0
2,54,107,14
2,59,109,2
2,52,110,2
2,59,106,0
2,54,107,12
2,59,109,2
2,52,104,12
2,59,105,2
2,47,81,12302
2,54,78,0
2,47,81,16
2,52,80,4
2,54,108,12
2,59,107,4
2,59,110,0
2,52,110,2
2,59,107,16
2,54,109,2
2,52,110,14
2,59,106,2
3,66,116,13368
3,66,121,86
3,66,117,56
3,63,95,42
3,68,119,40
3,66,117,52
3,63,110,48
3,61,96,0
3,59,99,16
3,66,117,118
3,66,119,82
3,63,99,36
3,66,112,28
3,66,105,102
3,66,104,116
3,63,87,20
3,68,101,42
3,66,115,40
3,63,116,88
3,61,100,24
3,59,107,10
3,66,118,178
3,66,114,118
3,66,109,104
3,63,101,32
3,66,113,58
3,66,112,92
3,63,105,34
3,68,110,44
3,64,99,44
3,66,114,78
3,66,116,82
3,66,105,102
3,66,109,118
3,66,109,136
3,63,102,36
3,66,112,16
3,64,103,48
3,63,96,24
3,68,95,4
3,66,103,4
3,63,109,72
3,61,105,38
3,59,104,192
3,66,121,598
3,64,115,6
3,66,109,64
3,68,114,16
3,64,108,34
3,66,115,76
3,63,97,22
3,61,107,84
3,59,103,2
3,66,120,436
3,66,113,58
3,63,99,28
3,68,98,32
3,66,116,28
3,63,115,82
3,63,106,48
3,59,96,16
3,66,125,540
3,66,118,80
3,63,95,34
3,68,105,38
3,66,104,20
3,63,110,54
3,61,99,36
3,59,101,4
3,66,120,514
3,66,119,52
3,64,105,6
3,68,105,40
3,64,104,12
3,66,114,98
3,66,115,636
3,63,107,18
3,66,115,46
3,66,119,70
3,63,98,38
3,68,109,34
3,66,113,42
3,66,111,72
3,63,100,154
3,66,109,54
3,66,121,68
3,63,102,20
3,66,116,14
3,66,106,104
3,66,113,124
3,63,99,6
3,68,97,28
3,66,106,36
3,63,112,112
3,61,107,30
3,59,109,34
3,66,110,142
3,66,111,130
3,66,109,128
3,63,97,36
3,66,111,76
3,66,118,74
3,63,99,28
3,68,109,52
3,64,110,28
3,66,109,72
3,63,99,76
3,64,97,2
3,66,112,44
3,66,118,90
3,63,105,60
3,66,117,40
3,66,111,74
3,63,100,42
3,68,102,44
3,66,110,28
3,66,113,64
3,66,122,546
3,66,105,54
3,66,91,44
3,68,115,4
3,64,100,42
3,66,114,54
3,66,114,646
3,64,111,54
3,66,104,56
3,68,102,44
3,64,103,192
3,66,115,76
3,63,98,82
3,61,102,4
3,59,96,2
3,66,119,386
3,64,112,72
3,66,98,64
3,68,102,50
3,64,104,26
3,66,114,74
3,66,122,448
3,66,120,72
3,66,111,104
3,68,106,38
3,64,110,30
3,66,110,58
3,63,99,40
3,61,104,8
3,59,107,4
3,66,119,442
3,66,115,78
3,66,115,68
3,64,106,38
3,68,106,30
3,66,115,32
3,66,118,84
3,61,103,28
3,63,104,10
3,66,117,440
3,63,94,16
3,66,113,42
3,63,95,14
3,66,102,34
3,63,101,14
3,68,114,44
3,66,109,16
3,63,118,90
3,61,109,16
3,59,106,32
3,66,113,136
3,66,109,120
3,66,110,120
3,63,94,10
3,66,112,78
3,66,115,76
3,63,96,22
3,68,101,52
3,64,101,26
3,66,113,76
3,63,108,96
3,64,98,22
3,66,102,42
3,66,119,100
3,63,95,58
3,66,105,46
3,66,115,80
3,63,91,36
3,68,99,14
3,64,103,18
3,66,118,88
3,66,115,12738
3,66,114,94
3,64,104,48
3,66,102,52
3,68,97,38
3,64,109,34
3,66,117,62
3,63,104,0
3,66,117,630
3,63,95,28
3,66,115,62
3,66,106,66
3,64,111,42
3,68,107,18
3,64,103,4
3,66,113,82
3,63,100,56
3,61,101,14
3,59,109,2
3,66,117,468
3,66,119,110
3,64,111,54
3,66,107,78
3,68,118,60
3,64,102,24
3,66,118,62
3,63,107,3052
3,66,106,42
3,66,120,58
3,63,99,14
3,66,107,36
3,66,95,80
3,63,113,62
3,68,107,30
3,64,106,4
3,66,113,68
3,63,101,64
3,61,104,2
3,59,99,4
3,66,116,416
3,63,102,188
3,66,104,40
3,63,101,0
3,66,114,74
3,63,115,40
3,68,110,26
3,66,117,12
3,66,113,84
3,66,119,6984
3,63,97,8
3,66,114,46
3,66,104,68
3,63,103,2
3,68,103,42
3,64,110,24
3,66,111,68
3,63,98,10
3,61,115,8
3,59,104,0
3,66,121,372
3,63,94,54
3,66,118,28
3,66,113,100
3,66,113,108
3,63,102,14
3,68,109,30
3,64,112,38
3,66,116,60
3,63,108,116
3,64,97,0
3,66,111,18
3,66,110,122
3,66,115,142
3,63,92,26
3,66,112,30
3,66,105,78
3,63,93,38
3,68,100,60
3,64,109,66
3,66,119,90
3,63,107,80
3,64,100,184
3,66,106,38
3,66,113,110
3,66,113,138
3,63,95,30
3,66,118,70
3,66,114,78
3,63,89,60
3,68,107,36
3,66,109,100
3,63,113,82
3,61,105,30
3,59,100,48
3,66,122,480
3,64,114,52
3,66,101,84
3,68,109,36
3,64,103,46
3,66,119,62
3,66,125,482
3,64,110,48
3,66,112,82
3,68,109,46
3,64,119,30
3,66,113,82
3,66,118,498
3,64,101,64
3,66,94,16
3,68,113,44
3,64,103,28
3,66,109,56
3,63,103,58
3,61,100,14
3,59,99,6
3,66,123,360
3,66,117,76
3,63,112,22
3,68,102,34
3,64,104,10
3,66,106,38
3,63,99,24
3,64,104,16
3,66,119,382
3,64,119,58
3,66,105,66
3,68,115,52
3,64,113,14
3,66,119,80
3,66,118,464
3,64,112,38
3,66,114,60
3,68,114,58
3,64,113,42
3,66,118,88
3,66,119,452
3,64,115,58
3,66,111,68
3,68,111,30
3,64,102,24
3,66,121,46
3,66,123,456
3,64,104,778
3,66,106,44
3,68,109,30
3,64,105,22
3,66,110,58
3,66,121,444
3,64,113,36
3,66,101,20
3,68,107,14
3,64,102,22
3,66,119,6
3,66,115,0
3,64,112,4
3,66,107,2
3,68,109,4
3,64,101,4
3,66,115,8
3,66,121,4
3,64,101,4
3,66,99,2
3,68,111,2
3,64,102,4
3,66,113,30
4,47,106,332
4,35,106,2
4,35,106,2
4,47,108,0
4,40,104,6
4,28,109,4
4,40,106,2
4,28,108,2
4,47,106,6
4,35,107,2
4,35,108,4
4,47,107,2
4,40,109,4
4,28,108,2
4,40,105,2
4,28,105,4
4,47,105,2
4,35,104,4
4,35,105,6
4,47,106,0
4,28,105,6
4,40,104,0
4,40,103,2
4,28,108,4
4,71,83,2498
4,78,81,0
4,71,78,40
4,78,78,0
4,71,83,34
4,78,86,0
4,71,85,34
4,78,83,2
4,71,87,32
4,78,84,0
4,71,90,32
4,78,91,0
4,71,94,28
4,78,93,0
4,78,84,2058
4,83,87,4
4,78,81,120
4,83,87,0
4,78,81,126
4,83,83,0
4,71,84,2686
4,78,83,0
4,78,85,32
4,71,87,2
4,71,83,36
4,78,83,0
4,78,86,28
4,71,90,2
4,71,88,34
4,78,93,0
4,78,84,2060
4,83,81,0
4,78,81,116
4,83,87,2
4,83,89,122
4,78,85,4
4,78,80,2494
4,71,77,4
4,71,80,40
4,78,78,4
4,71,82,30
4,78,85,4
4,71,83,32
4,78,81,0
4,71,85,36
4,78,85,0
4,71,85,28
4,78,87,4
4,71,88,30
4,78,94,2
4,78,84,2054
4,83,84,4
4,78,85,118
4,83,88,2
4,83,87,124
4,78,86,4
4,71,82,2686
4,78,84,0
4,71,85,32
4,78,86,4
4,78,84,30
4,71,83,2
4,78,90,30
4,71,87,4
4,71,93,32
4,78,94,2
4,83,85,2056
4,78,82,4
4,78,86,114
4,83,88,2
4,78,83,124
4,83,86,2
4,71,78,2498
4,78,79,0
4,71,80,42
4,78,78,2
4,71,80,32
4,78,84,2
4,78,84,30
4,71,86,2
4,71,85,32
4,78,89,0
4,78,89,34
4,71,91,2
4,78,90,30
4,71,90,4
4,83,85,2060
4,78,79,2
4,83,82,114
4,78,86,2
4,83,83,124
4,78,86,2
4,71,83,2686
4,78,84,2
4,71,82,32
4,78,84,2
4,71,88,30
4,78,88,2
4,71,91,34
4,78,87,0
4,71,89,32
4,78,89,0
4,78,85,2054
4,83,87,0
4,83,87,118
4,78,84,4
4,78,86,120
4,83,89,0
4,71,78,2498
4,78,83,4
4,78,82,38
4,71,83,2
4,78,85,30
4,71,80,4
4,71,83,28
4,78,86,0
4,78,86,34
4,71,85,2
4,78,87,30
4,71,90,4
4,78,90,32
4,71,88,2
4,83,84,2058
4,78,81,4
4,78,82,116
4,83,87,0
4,83,83,122
4,78,84,4
4,71,81,2688
4,78,84,2
4,78,86,30
4,71,84,4
4,71,89,30
4,78,85,2
4,78,85,32
4,71,89,2
4,71,89,30
4,78,88,4
4,83,85,2054
4,78,82,2
4,78,85,116
4,83,82,2
4,78,82,124
4,83,87,4
4,71,79,2502
4,78,82,0
4,71,81,36
4,78,84,0
4,78,86,34
4,71,87,4
4,71,88,32
4,78,83,0
4,78,89,28
4,71,87,4
4,71,89,32
4,78,91,2
4,71,93,32
4,78,96,2
4,78,81,2054
4,83,85,2
4,78,88,118
4,83,86,2
4,83,86,124
4,78,86,2
4,78,84,2688
4,71,88,2
4,78,84,30
4,71,89,2
4,78,86,32
4,71,87,4
4,71,91,34
4,78,88,0
4,78,90,30
4,71,94,2
4,78,81,2058
4,83,86,2
4,83,84,118
4,78,85,2
4,78,86,122
4,83,88,0
4,78,83,2498
4,71,82,2
4,78,84,40
4,71,81,2
4,71,83,32
4,78,87,0
4,71,87,32
4,78,87,0
4,71,85,36
4,78,90,0
4,78,91,30
4,71,87,2
4,71,90,30
4,78,95,4
4,83,86,2056
4,78,87,2
4,83,86,114
4,78,84,4
4,78,86,120
4,83,86,2
4,78,83,2692
4,71,87,2
4,71,84,30
4,78,88,2
4,78,91,30
4,71,91,2
4,71,88,32
4,78,88,2
4,71,92,32
4,78,94,0
4,78,81,2054
4,83,84,2
4,83,87,120
4,78,85,2
4,78,89,122
4,83,85,2
4,35,80,2
4,47,82,2
4,47,82,2
4,35,80,4
4,28,78,6
4,40,82,0
4,28,81,6
4,40,83,0
4,35,81,2
4,47,79,0
4,35,83,8
4,47,82,2
4,28,78,4
4,40,78,2
4,40,78,2
4,28,81,2
4,78,80,2500
4,71,84,2
4,78,81,42
4,71,81,2
4,71,86,30
4,78,88,0
4,78,89,34
4,71,89,2
4,71,89,30
4,78,92,0
4,78,93,32
4,71,88,2
4,71,91,32
4,78,92,0
4,78,82,2060
4,83,86,0
4,83,88,118
4,78,88,2
4,83,88,120
4,78,86,4
4,71,85,2688
4,78,85,0
4,71,85,34
4,78,90,0
4,71,88,28
4,78,90,4
4,78,92,28
4,71,94,4
4,71,92,34
4,78,96,2
4,78,87,2054
4,83,90,0
4,78,89,122
4,83,91,0
4,78,86,120
4,83,88,2
4,71,83,94
4,78,82,2
