track,note,velocity,time
1,69,95,5040
1,69,110,48
1,66,110,48
1,71,106,48
1,69,102,48
1,69,95,48
1,66,107,48
1,71,112,48
1,69,114,48
1,69,107,48
1,66,109,48
1,71,111,48
1,69,101,48
1,69,99,48
1,66,110,48
1,71,118,48
1,69,100,48
1,66,102,144
1,62,107,624
1,64,109,48
1,66,110,48
1,67,110,48
1,66,110,48
1,67,113,48
1,66,95,48
1,67,109,48
1,66,97,48
1,67,119,48
1,66,114,48
1,67,109,48
1,66,102,48
1,67,106,48
1,66,117,48
1,67,109,48
1,66,118,48
1,67,124,48
1,66,120,72
1,67,117,24
1,69,120,672
1,69,111,48
1,71,103,48
1,69,124,48
1,69,110,96
1,69,101,48
1,69,113,48
1,69,116,48
1,66,123,48
1,71,106,48
1,69,116,48
1,69,110,48
1,69,99,24
1,69,122,24
1,69,109,24
1,71,107,24
1,69,110,48
1,62,114,144
1,66,100,1460
1,66,119,48
1,67,115,48
1,66,123,24
1,67,109,48
1,66,117,72
1,67,107,48
1,66,108,48
1,67,104,48
1,68,109,48
1,69,112,48
1,69,107,48
1,69,124,48
1,71,109,48
1,65,110,48
1,64,113,48
1,62,108,96
1,69,99,288
1,69,110,48
1,66,110,48
1,71,123,48
1,69,114,48
1,69,102,48
1,66,102,48
1,71,112,48
1,69,109,48
1,69,103,48
1,66,111,48
1,71,110,48
1,69,95,48
1,69,109,48
1,66,110,48
1,71,114,48
1,69,97,48
1,66,110,144
1,62,110,624
1,64,106,48
1,66,96,48
1,67,108,48
1,66,125,48
1,67,110,48
1,66,108,48
1,67,115,48
1,66,110,48
1,67,108,48
1,66,122,48
1,67,99,48
1,66,111,48
1,67,112,48
1,66,104,48
1,67,110,48
1,66,113,48
1,67,112,48
1,66,110,72
1,67,107,24
1,69,105,672
1,69,118,48
1,71,111,48
1,69,109,48
1,69,117,96
1,69,108,48
1,69,102,48
1,69,106,48
1,66,103,48
1,71,111,48
1,69,104,48
1,69,110,48
1,69,120,24
1,69,98,24
1,69,121,24
1,71,116,24
1,69,109,48
1,62,110,144
1,66,110,1460
1,66,102,48
1,67,106,48
1,66,115,24
1,67,97,48
1,66,111,72
1,67,111,48
1,66,103,48
1,67,109,48
1,68,109,48
1,69,106,48
1,69,110,48
1,69,110,48
1,71,105,48
1,65,121,48
1,64,123,48
1,62,121,96
1,69,113,288
1,69,109,48
1,66,105,48
1,71,100,48
1,69,112,48
1,69,108,48
1,66,115,48
1,71,105,48
1,69,113,48
1,69,109,48
1,66,110,48
1,71,112,48
1,69,121,48
1,69,108,48
1,66,112,48
1,71,100,48
1,69,118,48
1,66,110,144
1,62,106,624
1,64,98,48
1,66,110,48
1,67,121,48
1,66,120,48
1,67,110,48
1,66,111,48
1,67,110,48
1,66,109,48
1,67,108,48
1,66,110,48
1,67,110,48
1,66,123,48
1,67,110,48
1,66,110,48
1,67,108,48
1,66,110,48
1,67,109,48
1,66,123,72
1,67,118,24
1,69,111,672
1,69,111,48
1,71,121,48
1,69,101,48
1,69,108,96
1,69,109,48
1,69,110,48
1,69,109,48
1,66,111,48
1,71,107,48
1,69,106,48
1,69,106,48
1,69,109,24
1,69,110,24
1,69,96,24
1,71,110,24
1,69,112,48
1,62,110,144
1,66,111,1460
1,66,111,48
1,67,110,48
1,66,111,24
1,67,106,48
1,66,125,72
1,67,105,48
1,66,102,48
1,67,118,48
1,68,122,48
1,69,103,48
1,69,109,48
1,69,100,48
1,71,112,48
1,65,101,48
1,64,108,48
1,62,101,96
1,69,111,288
1,69,118,48
1,66,100,48
1,71,123,48
1,69,97,48
1,69,110,48
1,66,103,48
1,71,111,48
1,69,103,48
1,69,113,48
1,66,118,48
1,71,114,48
1,69,97,48
1,69,110,48
1,66,107,48
1,71,120,48
1,69,110,48
1,66,111,144
1,62,101,624
1,64,108,48
1,66,103,48
1,67,110,48
1,66,123,48
1,67,110,48
1,66,120,48
1,67,109,48
1,66,115,48
1,67,111,48
1,66,109,48
1,67,110,48
1,66,116,48
1,67,110,48
1,66,112,48
1,67,111,48
1,66,96,48
1,67,110,48
1,66,110,72
1,67,112,24
1,69,104,672
1,69,112,48
1,71,121,48
1,69,119,48
1,69,113,96
1,69,106,48
1,69,99,48
1,69,115,48
1,66,98,48
1,71,105,48
1,69,119,48
1,69,122,48
1,69,109,24
1,69,105,24
1,69,111,24
1,71,102,24
1,69,115,48
1,62,121,144
1,66,99,1460
1,66,103,48
1,67,98,48
1,66,119,24
1,67,109,48
1,66,107,72
1,67,103,48
1,66,108,48
1,67,110,48
1,68,119,48
1,69,109,48
1,69,98,48
1,69,110,48
1,71,102,48
1,65,110,48
1,64,100,48
1,62,111,96
1,69,107,288
1,69,111,48
1,66,110,48
1,71,118,48
1,69,110,48
1,69,112,48
1,66,110,48
1,71,106,48
1,69,115,48
1,69,103,48
1,66,95,48
1,71,111,48
1,69,111,48
1,69,121,48
1,66,98,48
1,71,111,48
1,69,108,48
1,66,116,144
1,62,115,624
1,64,116,48
1,66,114,48
1,67,121,48
1,66,100,48
1,67,105,48
1,66,121,48
1,67,108,48
1,66,121,48
1,67,102,48
1,66,104,48
1,67,110,48
1,66,113,48
1,67,110,48
1,66,105,48
1,67,103,48
1,66,110,48
1,67,110,48
1,66,121,72
1,67,110,24
1,69,114,672
1,69,112,48
1,71,109,48
1,69,104,48
1,69,110,96
1,69,110,48
1,69,123,48
1,69,105,48
1,66,116,48
1,71,96,48
1,69,111,48
1,69,111,48
1,69,119,24
1,69,112,24
1,69,109,24
1,71,104,24
1,69,110,48
1,62,112,144
1,66,117,1460
1,66,104,48
1,67,107,48
1,66,112,24
1,67,110,48
1,66,110,72
1,67,112,48
1,66,102,48
1,67,121,48
1,68,96,48
1,69,109,48
1,69,116,48
1,69,114,48
1,71,103,48
1,65,106,48
1,64,110,48
1,62,112,96
2,57,106,5040
2,57,106,48
2,54,122,48
2,59,111,48
2,57,97,48
2,57,108,48
2,54,95,48
2,59,117,48
2,57,106,48
2,57,110,48
2,54,112,48
2,59,123,48
2,57,110,48
2,57,105,48
2,54,115,48
2,59,112,48
2,57,105,48
2,54,121,144
2,50,110,624
2,52,107,48
2,54,119,48
2,55,103,48
2,54,110,48
2,55,110,48
2,54,117,48
2,55,109,48
2,54,110,48
2,55,97,48
2,54,108,48
2,55,108,48
2,54,106,48
2,55,117,48
2,54,102,48
2,55,105,48
2,54,116,48
2,55,110,48
2,54,106,72
2,55,119,24
2,57,110,672
2,57,110,48
2,59,107,48
2,57,108,48
2,57,109,96
2,57,119,48
2,57,106,48
2,57,107,48
2,54,113,48
2,59,109,48
2,57,113,48
2,57,107,48
2,57,119,24
2,57,125,24
2,57,97,24
2,59,110,24
2,57,112,48
2,50,103,144
2,54,108,1460
2,54,102,48
2,55,117,48
2,54,108,24
2,55,114,48
2,54,110,72
2,55,115,48
2,54,111,48
2,55,112,48
2,56,106,48
2,57,110,48
2,57,111,48
2,57,108,48
2,59,121,48
2,53,98,48
2,52,100,48
2,50,110,96
2,57,102,288
2,57,98,48
2,54,116,48
2,59,120,48
2,57,114,48
2,57,124,48
2,54,117,48
2,59,98,48
2,57,109,48
2,57,110,48
2,54,111,48
2,59,110,48
2,57,104,48
2,57,103,48
2,54,112,48
2,59,105,48
2,57,99,48
2,54,103,144
2,50,110,624
2,52,123,48
2,54,109,48
2,55,107,48
2,54,123,48
2,55,113,48
2,54,113,48
2,55,110,48
2,54,115,48
2,55,104,48
2,54,96,48
2,55,96,48
2,54,99,48
2,55,110,48
2,54,97,48
2,55,115,48
2,54,119,48
2,55,113,48
2,54,121,72
2,55,109,24
2,57,114,672
2,57,111,48
2,59,98,48
2,57,121,48
2,57,110,96
2,57,113,48
2,57,121,48
2,57,111,48
2,54,95,48
2,59,106,48
2,57,105,48
2,57,109,48
2,57,120,24
2,57,121,24
2,57,123,24
2,59,100,24
2,57,110,48
2,50,104,144
2,54,114,1460
2,54,110,48
2,55,96,48
2,54,109,24
2,55,121,48
2,54,108,72
2,55,113,48
2,54,107,48
2,55,119,48
2,56,110,48
2,57,111,48
2,57,110,48
2,57,104,48
2,59,119,48
2,53,117,48
2,52,115,48
2,50,112,96
2,57,115,288
2,57,106,48
2,54,105,48
2,59,110,48
2,57,101,48
2,57,119,48
2,54,105,48
2,59,106,48
2,57,106,48
2,57,106,48
2,54,103,48
2,59,101,48
2,57,123,48
2,57,117,48
2,54,96,48
2,59,97,48
2,57,110,48
2,54,114,144
2,50,117,624
2,52,110,48
2,54,100,48
2,55,108,48
2,54,110,48
2,55,106,48
2,54,113,48
2,55,121,48
2,54,110,48
2,55,100,48
2,54,120,48
2,55,111,48
2,54,98,48
2,55,107,48
2,54,106,48
2,55,103,48
2,54,109,48
2,55,97,48
2,54,118,72
2,55,124,24
2,57,124,672
2,57,110,48
2,59,108,48
2,57,112,48
2,57,113,96
2,57,98,48
2,57,118,48
2,57,110,48
2,54,102,48
2,59,122,48
2,57,103,48
2,57,117,48
2,57,105,24
2,57,95,24
2,57,115,24
2,59,119,24
2,57,100,48
2,50,106,144
2,54,95,1460
2,54,103,48
2,55,110,48
2,54,110,24
2,55,99,48
2,54,112,72
2,55,117,48
2,54,111,48
2,55,107,48
2,56,115,48
2,57,98,48
2,57,110,48
2,57,110,48
2,59,119,48
2,53,109,48
2,52,97,48
2,50,119,96
2,57,113,288
2,57,103,48
2,54,97,48
2,59,99,48
2,57,96,48
2,57,110,48
2,54,110,48
2,59,116,48
2,57,110,48
2,57,110,48
2,54,110,48
2,59,100,48
2,57,110,48
2,57,117,48
2,54,114,48
2,59,110,48
2,57,98,48
2,54,95,144
2,50,124,624
2,52,106,48
2,54,107,48
2,55,112,48
2,54,95,48
2,55,111,48
2,54,99,48
2,55,110,48
2,54,108,48
2,55,115,48
2,54,100,48
2,55,108,48
2,54,110,48
2,55,100,48
2,54,108,48
2,55,111,48
2,54,110,48
2,55,100,48
2,54,111,72
2,55,106,24
2,57,110,672
2,57,111,48
2,59,110,48
2,57,110,48
2,57,106,96
2,57,96,48
2,57,105,48
2,57,113,48
2,54,106,48
2,59,104,48
2,57,114,48
2,57,112,48
2,57,119,24
2,57,111,24
2,57,113,24
2,59,100,24
2,57,110,48
2,50,123,144
2,54,109,1460
2,54,113,48
2,55,117,48
2,54,121,24
2,55,124,48
2,54,111,72
2,55,101,48
2,54,115,48
2,55,115,48
2,56,112,48
2,57,104,48
2,57,114,48
2,57,110,48
2,59,108,48
2,53,109,48
2,52,110,48
2,50,121,96
2,57,101,288
2,57,123,48
2,54,115,48
2,59,113,48
2,57,111,48
2,57,118,48
2,54,118,48
2,59,115,48
2,57,98,48
2,57,107,48
2,54,112,48
2,59,107,48
2,57,111,48
2,57,117,48
2,54,110,48
2,59,110,48
2,57,99,48
2,54,113,144
2,50,108,624
2,52,117,48
2,54,109,48
2,55,122,48
2,54,112,48
2,55,122,48
2,54,111,48
2,55,113,48
2,54,104,48
2,55,98,48
2,54,117,48
2,55,118,48
2,54,109,48
2,55,103,48
2,54,104,48
2,55,107,48
2,54,125,48
2,55,116,48
2,54,110,72
2,55,109,24
2,57,100,672
2,57,103,48
2,59,95,48
2,57,110,48
2,57,102,96
2,57,96,48
2,57,123,48
2,57,107,48
2,54,110,48
2,59,111,48
2,57,110,48
2,57,114,48
2,57,111,24
2,57,120,24
2,57,110,24
2,59,111,24
2,57,102,48
2,50,121,144
2,54,97,1460
2,54,101,48
2,55,114,48
2,54,101,24
2,55,120,48
2,54,115,72
2,55,110,48
2,54,101,48
2,55,118,48
2,56,98,48
2,57,110,48
2,57,104,48
2,57,109,48
2,59,108,48
2,53,104,48
2,52,105,48
2,50,97,96
3,57,103,2400
3,59,98,0
3,62,121,0
3,66,111,0
3,57,118,500
3,59,115,0
3,62,108,0
3,66,110,0
3,57,116,500
3,59,115,0
3,62,107,0
3,66,95,0
3,62,109,980
3,60,110,288
3,62,107,336
3,58,106,5500
3,59,110,40
3,62,102,48
3,64,112,152
3,65,112,40
3,62,110,96
3,62,109,336
3,61,101,192
3,59,121,192
3,61,107,192
3,60,106,1940
3,62,109,48
3,64,108,96
3,66,113,144
3,59,106,96
3,61,112,384
3,57,102,1940
3,59,116,48
3,62,112,740
3,60,122,288
3,62,109,336
3,58,105,5500
3,59,96,40
3,62,110,48
3,64,124,152
3,65,96,40
3,62,102,96
3,62,122,336
3,61,121,192
3,59,104,192
3,61,110,192
3,60,97,1940
3,62,122,48
3,64,121,96
3,66,107,144
3,59,112,96
3,61,109,384
3,57,120,1940
3,59,124,48
3,62,117,740
3,60,111,288
3,62,98,336
3,58,116,5500
3,59,117,40
3,62,108,48
3,64,109,152
3,65,105,40
3,62,116,96
3,62,117,336
3,61,108,192
3,59,112,192
3,61,120,192
3,60,117,1940
3,62,112,48
3,64,113,96
3,66,118,144
3,59,111,96
3,61,110,384
3,57,103,1940
3,59,119,48
3,62,109,740
3,60,111,288
3,62,108,336
3,58,110,5500
3,59,110,40
3,62,125,48
3,64,109,152
3,65,116,40
3,62,100,96
3,62,112,336
3,61,103,192
3,59,109,192
3,61,115,192
3,60,115,1940
3,62,117,48
3,64,123,96
3,66,110,144
3,59,114,96
3,61,113,384
3,57,103,1940
3,59,106,48
3,62,111,740
3,60,119,288
3,62,110,336
3,58,114,5500
3,59,104,40
3,62,101,48
3,64,120,152
3,65,110,40
3,62,118,96
3,62,112,336
3,61,118,192
3,59,109,192
3,61,95,192
3,60,107,1940
3,62,110,48
3,64,112,96
3,66,104,144
3,59,96,96
3,61,117,384
3,54,103,1940
4,74,63,2880
4,69,55,0
4,66,43,0
4,62,48,1920
4,57,66,520
4,66,58,240
4,74,50,240
4,69,62,0
4,61,83,0
4,66,72,0
4,50,61,0
4,62,49,0
4,60,66,240
4,66,58,240
4,74,50,240
4,69,42,2160
4,65,63,0
4,71,80,240
4,67,57,240
4,59,80,240
4,74,47,2160
4,59,66,244
4,65,58,240
4,74,50,240
4,67,42,2160
4,57,66,40
4,66,46,0
4,61,66,8
4,66,46,0
4,59,66,0
4,66,46,0
4,61,66,0
4,66,46,0
4,69,62,0
4,62,83,0
4,50,61,0
4,66,49,0
4,62,60,0
4,69,62,0
4,66,47,0
4,60,70,0
4,62,60,0
4,67,62,0
4,65,47,0
4,59,70,0
4,57,60,0
4,64,62,0
4,61,47,0
4,55,70,0
4,57,66,240
4,66,58,240
4,74,50,240
4,69,42,2160
4,62,60,40
4,69,62,0
4,66,47,0
4,57,70,0
4,61,66,240
4,66,58,240
4,76,50,240
4,66,63,0
4,72,80,240
4,69,57,240
4,60,80,240
4,74,47,2160
4,62,60,40
4,67,62,0
4,65,47,0
4,59,70,0
4,59,69,252
4,62,41,16
4,65,36,372
4,74,47,240
4,65,63,0
4,71,80,480
4,67,57,240
4,59,80,240
4,74,47,2160
4,57,65,40
4,66,54,480
4,61,66,40
4,66,46,0
4,59,66,8
4,66,46,0
4,61,59,240
4,66,56,0
4,57,66,520
4,66,58,240
4,74,50,240
4,60,66,240
4,66,58,240
4,74,50,240
4,67,62,0
4,59,83,0
4,65,72,0
4,43,61,0
4,62,49,0
4,67,57,40
4,64,57,0
4,61,57,0
4,69,57,0
4,66,63,40
4,69,80,480
4,57,80,480
4,74,47,2160
4,69,62,4
4,62,83,0
4,50,61,0
4,66,49,0
4,61,66,520
4,66,58,240
4,76,50,240
4,60,66,240
4,66,58,240
4,74,50,240
4,69,42,2160
4,59,66,240
4,65,58,240
4,74,50,240
4,67,42,2160
4,71,63,960
4,67,55,0
4,65,43,0
4,62,48,1920
4,57,65,4
4,66,54,240
4,61,66,40
4,66,46,0
4,59,65,8
4,66,54,240
4,61,65,0
4,66,54,240
4,62,60,0
4,69,62,0
4,66,47,0
4,57,70,0
4,60,66,240
4,66,58,240
4,74,50,240
4,62,60,0
4,67,62,0
4,65,47,0
4,59,70,0
4,57,60,0
4,64,62,0
4,61,47,0
4,55,70,0
4,69,62,0
4,62,83,0
4,50,61,0
4,66,49,0
4,57,64,4
4,62,72,68
4,66,55,360
