track,note,velocity,time
1,75,100,5268
1,79,100,0
1,79,0,720
1,74,100,0
1,77,100,0
1,75,0,240
1,77,0,360
1,74,0,0
1,75,100,2520
1,79,100,0
1,79,0,240
1,75,0,480
1,74,100,0
1,77,100,0
1,77,0,600
1,74,0,0
1,67,100,6360
1,75,100,0
1,75,0,480
1,67,0,0
1,65,100,0
1,74,100,0
1,74,0,480
1,65,0,0
1,63,100,0
1,72,100,0
1,72,0,960
1,63,0,0
1,74,100,6240
1,77,100,0
1,77,0,480
1,74,0,0
1,72,100,0
1,72,0,960
1,70,100,0
1,75,100,0
1,75,0,720
1,62,100,0
1,70,100,0
1,70,0,360
1,70,0,360
1,62,100,0
1,70,100,0
1,62,0,4
1,70,0,476
1,62,0,480
1,75,100,1440
1,75,0,960
1,74,100,0
1,77,100,0
1,74,0,1080
1,77,0,4
1,68,100,596
1,77,100,0
1,77,0,840
1,68,0,0
1,67,100,360
1,70,100,0
1,67,0,720
1,72,100,0
1,65,100,0
1,70,0,360
1,65,0,240
1,72,0,0
1,65,100,120
1,70,100,0
1,70,0,480
1,65,0,0
1,62,100,0
1,65,100,0
1,65,0,240
1,62,0,0
1,65,100,240
1,62,100,0
1,62,0,240
1,65,0,120
1,63,100,120
1,60,100,0
1,60,0,480
1,63,0,0
1,63,100,480
1,75,100,0
1,63,0,1920
1,62,100,0
1,70,100,0
1,75,0,4
1,70,0,596
1,62,0,0
1,62,100,360
1,65,100,0
1,65,0,480
1,62,0,120
1,72,100,12120
1,72,0,720
1,74,100,0
1,77,100,0
1,77,0,720
1,74,0,120
1,75,100,120
1,79,100,0
1,79,0,480
1,75,0,0
1,74,100,0
1,74,0,480
1,72,100,0
1,75,100,0
1,75,0,960
1,72,0,20
1,63,100,212
1,72,100,8
1,72,0,360
1,70,100,360
1,62,100,0
1,63,0,232
1,70,0,8
1,62,0,480
1,62,100,240
1,67,100,0
1,67,0,360
1,62,0,4
1,63,100,356
1,72,100,0
1,72,0,1084
1,63,0,0
1,63,100,3956
1,75,100,0
1,75,0,720
1,65,100,0
1,70,100,0
1,70,0,604
1,65,0,0
1,65,100,116
1,70,100,0
1,70,0,480
1,65,0,0
1,63,0,0
1,62,100,0
1,65,100,0
1,65,0,480
1,62,0,0
1,62,100,0
1,65,100,0
1,65,0,600
1,62,0,0
1,60,100,120
1,63,100,0
1,63,0,720
1,67,100,0
1,60,0,120
1,67,0,360
1,62,100,480
1,65,100,0
1,62,0,960
1,65,0,20
1,68,100,700
1,77,100,0
1,77,0,840
1,68,0,0
1,67,100,360
1,75,100,0
1,75,0,720
1,67,0,0
1,65,100,0
1,70,100,0
1,65,0,360
1,70,0,8
1,62,100,352
1,65,100,0
1,70,100,0
1,70,0,480
1,65,0,0
1,62,100,0
1,65,100,0
1,62,0,24
1,65,0,216
1,62,0,0
1,65,100,240
1,62,100,0
1,65,0,476
1,63,100,4
1,60,100,0
1,62,0,8
1,63,0,592
1,60,0,120
1,67,100,42480
1,75,100,0
1,79,100,0
1,79,0,480
1,75,0,0
1,67,0,0
1,65,100,0
1,74,100,0
1,77,100,0
1,77,0,480
1,65,0,0
1,63,100,0
1,72,100,0
1,75,100,0
1,74,0,20
1,63,0,940
1,75,0,0
1,72,0,20
1,63,100,212
1,67,100,8
1,67,0,600
1,63,0,0
1,62,100,120
1,65,100,0
1,70,100,480
1,65,0,240
1,62,0,0
1,62,100,240
1,67,100,0
1,70,0,16
1,67,0,344
1,62,0,0
1,63,100,360
1,68,100,0
1,72,100,0
1,68,0,972
1,72,0,8
1,63,0,12
1,75,100,1888
1,79,100,0
1,79,0,360
1,75,0,20
1,74,100,340
1,77,100,0
1,77,0,480
1,74,0,0
1,72,100,0
1,67,100,960
1,70,100,0
1,75,100,0
1,72,0,20
1,67,0,700
1,75,0,0
1,65,100,0
1,70,100,0
1,70,0,360
1,70,0,240
1,65,0,0
1,65,100,120
1,70,100,0
1,70,0,480
1,62,100,0
1,65,100,0
1,65,0,20
1,65,0,340
1,62,0,12
1,62,100,108
1,65,100,0
1,65,0,600
1,62,0,0
1,60,100,120
1,63,100,0
1,63,0,720
1,60,0,0
1,75,100,0
1,79,100,0
1,79,0,480
1,75,0,0
1,74,100,480
1,77,100,0
1,77,0,960
1,74,0,16
1,67,100,224
1,75,100,0
1,75,0,480
1,67,0,0
1,68,100,0
1,72,100,0
1,77,100,0
1,77,0,840
1,72,0,0
1,68,0,0
1,67,100,360
1,70,100,0
1,75,100,0
1,75,0,720
1,67,0,0
1,72,100,0
1,65,100,0
1,65,0,360
1,72,0,0
1,70,0,0
1,65,100,360
1,70,100,0
1,70,0,480
1,65,0,0
1,63,100,1920
1,75,100,0
1,75,0,1920
1,63,0,0
1,62,100,0
1,67,100,0
1,70,100,0
1,70,0,480
1,67,0,0
1,62,0,0
1,72,100,0
1,72,0,480
1,67,100,0
1,62,100,0
1,65,100,0
1,65,0,480
1,62,0,0
1,67,0,0
1,76,100,23520
1,75,100,720
1,76,0,340
1,73,100,380
1,75,0,4
1,73,0,236
1,75,100,0
1,75,0,480
1,75,100,240
1,73,100,480
1,75,0,4
1,73,0,952
1,76,100,3844
1,76,0,720
1,75,100,0
1,75,0,720
1,73,100,0
1,73,0,240
1,75,100,120
1,75,0,480
1,75,100,120
1,73,100,480
1,75,0,4
1,73,0,968
1,75,100,1908
1,75,0,460
1,75,100,20
1,75,0,720
1,73,100,0
1,73,0,600
1,64,100,120
1,64,0,720
2,75,127,5248
2,79,127,0
2,79,0,720
2,75,0,0
2,74,127,0
2,77,127,0
2,77,0,360
2,74,0,0
2,72,127,600
2,75,127,0
2,75,127,180
2,75,0,40
2,75,0,20
2,72,0,0
2,77,127,0
2,74,127,0
2,74,0,240
2,77,0,0
2,82,127,0
2,82,0,240
2,72,127,720
2,75,127,0
2,75,0,480
2,77,127,160
2,77,0,40
2,72,0,40
2,75,127,0
2,79,127,0
2,79,0,240
2,75,0,0
2,77,127,0
2,77,0,240
2,75,127,0
2,75,0,240
2,74,127,0
2,77,127,0
2,77,0,360
2,74,0,0
2,75,127,600
2,75,0,200
2,75,127,16
2,84,127,0
2,84,0,240
2,75,0,0
2,82,127,0
2,82,0,240
2,79,127,0
2,79,0,240
2,74,127,0
2,82,127,0
2,82,0,360
2,74,0,0
2,82,127,120
2,74,127,0
2,74,0,480
2,82,0,0
2,75,127,0
2,75,0,240
2,74,127,0
2,79,127,0
2,79,0,240
2,74,0,0
2,82,127,0
2,82,0,240
2,84,127,0
2,84,0,240
2,72,127,0
2,80,127,0
2,80,0,840
2,72,0,0
2,79,127,240
2,72,127,0
2,79,0,240
2,77,127,0
2,77,0,240
2,75,127,0
2,75,0,240
2,72,0,0
2,74,127,0
2,77,127,0
2,77,0,720
2,74,0,0
2,72,127,240
2,79,127,0
2,79,0,180
2,72,0,0
2,79,127,224
2,74,127,76
2,77,127,0
2,79,0,104
2,77,0,376
2,74,0,0
2,72,127,0
2,75,127,0
2,75,0,4
2,72,0,0
2,75,127,232
2,84,127,8
2,84,127,232
2,84,0,8
2,84,0,232
2,75,0,0
2,79,127,8
2,79,0,240
2,82,127,0
2,74,127,0
2,77,127,0
2,82,0,240
2,82,127,240
2,77,0,240
2,74,0,0
2,82,0,240
2,74,127,0
2,79,127,0
2,79,0,240
2,74,0,0
2,82,127,0
2,82,0,240
2,84,127,0
2,84,0,240
2,75,127,0
2,84,127,0
2,84,0,840
2,75,0,0
2,72,127,484
2,79,127,0
2,79,0,240
2,77,127,0
2,77,0,240
2,75,127,0
2,75,0,240
2,72,0,0
2,74,127,0
2,77,127,0
2,77,0,240
2,74,0,0
2,82,127,0
2,82,0,240
2,80,127,0
2,80,0,240
2,72,127,0
2,79,127,0
2,79,0,360
2,72,0,0
2,74,127,360
2,77,127,0
2,77,0,480
2,74,0,0
2,75,127,0
2,72,127,0
2,75,0,240
2,75,127,0
2,75,0,240
2,75,127,0
2,75,0,240
2,75,127,0
2,75,0,240
2,72,0,0
2,75,127,0
2,87,127,0
2,87,0,720
2,75,0,0
2,74,127,0
2,82,127,0
2,82,0,360
2,74,0,0
2,82,127,120
2,74,127,240
2,82,127,0
2,82,0,120
2,82,0,360
2,74,0,0
2,74,127,0
2,77,127,0
2,77,0,240
2,74,0,0
2,82,127,0
2,82,0,240
2,74,127,0
2,77,127,0
2,77,0,600
2,74,0,0
2,72,127,120
2,75,127,0
2,75,0,720
2,72,0,0
2,75,127,0
2,79,127,0
2,79,0,480
2,75,0,0
2,82,127,240
2,82,0,240
2,82,127,0
2,74,127,0
2,77,127,0
2,82,0,240
2,82,127,0
2,82,0,240
2,82,127,0
2,82,0,240
2,82,127,0
2,82,0,240
2,77,0,0
2,74,0,0
2,75,127,0
2,84,127,0
2,84,0,240
2,75,0,0
2,79,127,0
2,87,127,0
2,87,0,480
2,79,0,0
2,77,127,0
2,89,127,0
2,89,0,840
2,77,0,0
2,75,127,80
2,87,127,0
2,87,0,720
2,75,0,0
2,74,127,0
2,84,127,0
2,82,127,0
2,82,0,360
2,84,0,0
2,74,0,0
2,79,127,120
2,79,0,240
2,74,127,0
2,82,127,0
2,82,0,480
2,74,0,0
2,74,127,0
2,77,127,0
2,77,0,240
2,74,0,0
2,82,127,0
2,82,0,240
2,77,127,0
2,74,127,0
2,74,0,240
2,77,0,120
2,75,127,120
2,72,127,0
2,72,0,480
2,75,0,0
2,74,127,200
2,77,127,0
2,77,0,240
2,74,0,0
2,75,127,0
2,84,127,240
2,87,127,0
2,87,0,240
2,84,0,0
2,84,127,0
2,87,127,0
2,87,0,240
2,84,0,0
2,84,127,0
2,87,127,0
2,87,0,240
2,84,0,0
2,84,127,0
2,87,127,0
2,87,0,240
2,84,0,0
2,84,127,0
2,87,127,0
2,87,0,240
2,84,0,0
2,84,127,0
2,87,127,0
2,87,0,240
2,84,0,0
2,84,127,0
2,84,0,240
2,75,0,0
2,74,127,0
2,82,127,0
2,82,0,480
2,74,0,0
2,84,127,0
2,84,0,480
2,79,127,0
2,74,127,0
2,77,127,0
2,77,0,480
2,74,0,0
2,79,0,0
2,72,127,0
2,72,0,240
2,75,127,0
2,79,127,16
2,75,0,120
2,79,0,600
2,74,127,240
2,77,127,0
2,77,0,720
2,74,0,0
2,75,127,0
2,75,0,240
2,74,127,0
2,77,127,0
2,77,0,240
2,74,0,0
2,82,127,0
2,82,0,240
2,77,127,0
2,74,127,0
2,74,0,240
2,77,0,120
2,75,127,120
2,72,127,0
2,72,0,720
2,75,0,0
2,74,100,120
2,74,0,120
2,75,127,0
2,79,127,0
2,79,0,240
2,75,0,0
2,77,127,0
2,77,0,240
2,75,127,0
2,75,0,240
2,74,127,0
2,77,127,0
2,77,0,460
2,74,0,0
2,72,127,500
2,75,127,0
2,75,0,240
2,72,0,0
2,74,127,0
2,77,127,0
2,77,0,240
2,74,0,0
2,82,127,0
2,82,0,240
2,74,127,0
2,77,127,0
2,77,0,720
2,74,0,0
2,75,127,0
2,72,127,0
2,72,0,480
2,75,0,0
2,84,127,0
2,84,0,240
2,75,127,0
2,84,127,0
2,84,0,240
2,75,0,0
2,82,127,0
2,82,0,240
2,79,127,0
2,79,0,240
2,74,127,0
2,82,127,0
2,82,0,360
2,74,0,0
2,82,127,120
2,74,127,0
2,74,0,480
2,82,0,0
2,75,127,0
2,75,0,240
2,74,127,0
2,79,127,0
2,79,0,240
2,74,0,0
2,82,127,0
2,82,0,240
2,84,127,0
2,84,0,240
2,72,127,0
2,80,127,0
2,80,0,840
2,72,0,0
2,70,100,480
2,70,0,120
2,79,127,0
2,72,127,0
2,79,0,240
2,77,127,0
2,77,0,240
2,75,127,0
2,75,0,240
2,72,0,0
2,74,127,0
2,77,127,0
2,77,0,720
2,74,0,0
2,72,127,240
2,79,127,0
2,79,0,180
2,72,0,0
2,79,127,240
2,74,127,60
2,77,127,0
2,79,0,120
2,77,0,360
2,74,0,0
2,72,127,0
2,75,127,0
2,75,0,960
2,72,0,0
2,75,127,232
2,84,127,8
2,84,127,232
2,84,0,8
2,84,0,232
2,75,0,0
2,79,127,8
2,79,0,240
2,82,127,0
2,74,127,0
2,77,127,0
2,82,0,240
2,82,127,240
2,77,0,240
2,74,0,0
2,82,0,240
2,74,127,0
2,79,127,0
2,79,0,240
2,74,0,0
2,82,127,0
2,82,0,240
2,84,127,0
2,84,0,240
2,75,127,0
2,84,127,0
2,84,0,840
2,75,0,0
2,72,127,600
2,79,127,0
2,79,0,240
2,77,127,0
2,77,0,240
2,75,127,0
2,75,0,240
2,72,0,0
2,74,127,0
2,77,127,0
2,77,0,240
2,74,0,0
2,82,127,0
2,84,127,120
2,84,0,60
2,82,0,60
2,80,127,0
2,80,0,240
2,72,127,0
2,79,127,0
2,79,0,360
2,72,0,0
2,74,127,360
2,77,127,0
2,77,0,480
2,74,0,0
2,75,127,0
2,72,127,0
2,75,0,240
2,75,127,0
2,75,0,240
2,75,127,0
2,75,0,240
2,75,127,0
2,75,0,108
2,72,0,0
2,75,127,0
2,87,127,0
2,87,0,720
2,75,0,0
2,74,127,0
2,82,127,0
2,82,0,360
2,74,0,0
2,82,127,120
2,74,127,240
2,82,127,0
2,82,0,120
2,82,0,360
2,74,0,0
2,74,127,0
2,77,127,0
2,77,0,240
2,74,0,0
2,82,127,0
2,82,0,240
2,74,127,0
2,77,127,0
2,77,0,600
2,74,0,0
2,72,127,120
2,75,127,0
2,75,0,720
2,72,0,0
2,75,127,0
2,79,127,0
2,79,0,480
2,75,0,0
2,82,127,240
2,82,0,240
2,82,127,0
2,74,127,0
2,77,127,0
2,82,0,240
2,82,127,0
2,82,0,240
2,82,127,0
2,82,0,240
2,82,127,0
2,82,0,240
2,77,0,0
2,74,0,0
2,75,127,0
2,84,127,0
2,84,0,240
2,75,0,0
2,79,127,0
2,87,127,0
2,87,127,220
2,87,0,60
2,87,0,0
2,79,0,0
2,77,127,0
2,89,127,0
2,89,0,100
2,77,0,0
2,75,127,360
2,87,127,0
2,87,0,720
2,75,0,0
2,74,127,0
2,84,127,0
2,82,127,0
2,82,0,360
2,84,0,0
2,74,0,0
2,79,127,120
2,79,0,240
2,74,127,0
2,82,127,0
2,82,0,480
2,74,0,0
2,74,127,0
2,77,127,0
2,77,0,240
2,74,0,0
2,82,127,0
2,82,0,240
2,77,127,0
2,74,127,0
2,74,0,240
2,77,0,120
2,75,127,120
2,72,127,0
2,72,0,4
2,75,0,0
2,74,127,240
2,77,127,0
2,77,0,240
2,74,0,0
2,75,127,0
2,84,127,240
2,87,127,0
2,87,0,240
2,84,0,0
2,84,127,0
2,87,127,0
2,87,0,240
2,84,0,0
2,84,127,0
2,87,127,0
2,87,0,240
2,84,0,0
2,82,127,0
2,86,127,0
2,86,0,240
2,82,0,0
2,84,127,0
2,87,127,0
2,87,0,240
2,84,0,0
2,84,127,0
2,87,127,0
2,87,0,240
2,84,0,0
2,84,127,0
2,84,0,240
2,75,0,0
2,74,127,0
2,82,127,0
2,82,0,480
2,74,0,0
2,84,127,0
2,84,0,480
2,79,127,0
2,74,127,0
2,77,127,0
2,77,0,480
2,74,0,0
2,79,0,0
2,72,127,0
2,72,0,240
2,75,127,0
2,79,127,240
2,75,0,120
2,79,0,600
2,79,100,180
2,79,0,60
2,74,127,0
2,77,127,0
2,77,0,720
2,74,0,0
2,75,127,0
2,75,0,240
2,74,127,0
2,77,127,0
2,77,0,240
2,74,0,0
2,82,127,0
2,82,0,240
2,77,127,0
2,74,127,0
2,74,0,240
2,77,0,120
2,75,127,120
2,72,127,0
2,72,0,720
2,75,0,0
2,75,127,240
2,79,127,0
2,79,0,240
2,75,0,0
2,77,127,0
2,77,0,240
2,75,127,0
2,75,0,240
2,74,127,0
2,77,127,0
2,77,0,460
2,74,0,0
2,72,127,500
2,75,127,0
2,75,0,240
2,72,0,0
2,74,127,0
2,77,127,0
2,77,0,240
2,74,0,0
2,82,127,0
2,82,0,240
2,74,127,0
2,77,127,0
2,77,0,720
2,74,0,0
