track,note,velocity,time
1,75,79,0
1,63,69,0
1,73,82,70
1,61,80,8
1,56,78,94
1,68,79,2
1,73,83,174
1,61,74,2
1,71,80,80
1,59,77,0
1,61,83,178
1,73,82,0
1,58,99,102
1,70,89,4
1,56,84,90
1,68,83,4
1,75,87,176
1,63,70,2
1,73,78,36
1,61,100,6
1,65,77,160
1,77,93,0
1,63,71,132
1,75,82,6
1,73,99,176
1,61,71,4
1,58,78,54
1,70,84,4
1,56,84,64
1,68,84,0
1,70,82,98
1,58,79,8
1,66,93,6
1,54,76,0
1,65,91,52
1,53,83,4
1,59,92,186
1,71,97,2
1,61,85,48
1,73,127,0
1,61,97,240
1,73,105,0
1,74,125,18
1,73,62,0
1,62,75,4
1,59,93,1018
1,71,99,0
1,73,127,42
1,61,93,0
1,61,107,234
1,73,127,4
1,74,115,32
1,62,88,2
1,59,97,1024
1,71,95,0
1,61,79,42
1,73,127,4
1,73,127,226
1,61,102,0
1,62,85,22
1,74,115,6
1,73,64,4
1,71,87,1008
1,59,78,2
1,61,93,46
1,73,125,0
1,73,118,244
1,61,91,6
1,74,107,20
1,62,80,6
1,59,82,982
1,71,70,2
1,73,100,38
1,61,68,0
1,73,81,260
1,61,77,0
1,74,85,10
1,62,79,0
1,71,85,1032
1,59,78,0
1,73,127,40
1,61,78,0
1,73,99,254
1,61,81,0
1,62,83,40
1,74,88,0
1,59,77,1018
1,71,83,0
1,61,87,46
1,73,127,0
1,61,88,262
1,73,100,4
1,74,97,48
1,62,82,2
1,59,78,1024
1,71,88,0
1,73,118,58
1,61,77,2
1,73,109,256
1,61,87,4
1,62,87,58
1,74,81,0
1,57,82,1038
1,69,87,0
1,59,88,54
1,71,99,2
1,71,84,252
1,59,89,4
1,72,95,54
1,60,88,4
1,69,93,1020
1,57,93,4
1,71,97,62
1,59,89,2
1,71,85,264
1,59,93,4
1,60,80,58
1,72,100,0
1,59,89,1030
1,71,81,0
1,61,100,56
1,73,121,0
1,73,105,266
1,61,84,0
1,74,91,58
1,62,83,4
1,59,81,1038
1,71,80,0
1,73,118,58
1,61,97,0
1,61,78,268
1,73,91,0
1,74,91,52
1,62,78,0
1,63,64,1024
1,75,73,4
1,73,66,32
1,61,83,4
1,77,82,100
1,65,71,2
1,63,71,68
1,75,83,0
1,73,77,98
1,61,66,4
1,70,77,0
1,58,82,0
1,68,78,52
1,56,73,0
1,58,70,90
1,70,81,0
1,54,89,0
1,66,70,0
1,53,76,34
1,65,74,0
1,71,68,17676
1,72,78,582
1,74,72,360
1,70,73,364
1,69,75,932
1,70,69,372
1,75,77,346
1,67,76,748
1,74,82,562
1,75,76,750
1,74,80,166
1,72,80,376
1,71,83,360
1,70,78,1320
1,69,72,1694
1,67,71,1348
1,71,76,31084
1,72,84,794
1,74,79,182
1,70,77,326
1,69,82,944
1,70,81,326
1,75,82,348
1,67,84,790
1,74,79,528
1,75,79,716
1,74,88,160
1,72,88,336
1,71,87,368
1,70,79,1316
1,69,76,1688
1,67,82,1334
1,59,77,49914
1,71,88,0
1,73,109,58
1,61,77,4
1,61,85,282
1,73,109,4
1,74,92,38
1,62,81,0
1,71,93,1016
1,59,87,0
1,73,125,54
1,61,97,0
1,73,118,288
1,61,88,0
1,74,93,60
1,62,81,4
1,59,87,1030
1,71,81,0
1,73,109,58
1,61,91,0
1,61,83,272
1,73,107,0
1,74,85,62
1,62,84,0
1,59,74,1040
1,71,77,0
1,61,82,58
1,73,109,0
1,61,77,262
1,73,93,4
1,74,88,60
1,62,80,0
1,71,77,30986
1,72,82,548
1,74,78,382
1,70,79,316
1,69,77,940
1,70,77,344
1,75,84,338
1,67,74,730
1,74,85,540
1,75,87,758
1,74,87,148
1,72,83,346
1,71,84,364
1,70,79,1320
1,69,75,1664
1,67,77,1322
1,71,84,1712
1,72,88,534
1,74,87,362
1,70,78,338
1,69,79,932
1,70,78,350
1,75,83,362
1,67,77,740
1,74,83,554
1,75,79,716
1,74,83,148
1,72,82,374
1,71,82,356
1,70,76,1280
1,69,74,1696
1,67,75,1314
2,68,75,32264
2,69,82,576
2,68,76,540
2,66,82,358
2,65,83,556
2,66,73,538
2,68,80,364
2,69,77,340
2,68,71,748
2,66,79,356
2,65,80,572
2,61,67,526
2,59,81,374
2,63,75,546
2,64,74,554
2,66,79,376
2,69,75,560
2,68,73,538
2,66,76,162
2,65,76,150
2,68,82,360
2,69,76,368
2,68,67,374
2,66,76,168
2,68,72,156
2,69,78,544
2,66,76,570
2,64,90,348
2,64,77,0
2,59,74,76
2,68,70,80
2,66,75,82
2,59,76,184
2,68,79,90
2,59,75,80
2,68,75,82
2,66,81,84
2,64,78,166
2,59,82,186
2,61,80,90
2,59,82,82
2,64,93,96
2,59,81,80
2,68,80,82
2,66,83,62
2,56,71,180
2,58,79,96
2,56,67,74
2,67,79,96
2,68,74,182
2,71,81,56
2,73,75,88
2,71,81,90
2,68,75,80
2,66,78,78
2,59,78,188
2,68,79,86
2,59,79,76
2,61,84,190
2,64,83,162
2,59,73,174
2,64,80,98
2,59,76,84
2,61,75,92
2,59,78,72
2,56,79,92
2,64,80,84
2,61,79,78
2,59,79,86
2,67,84,96
2,65,85,80
2,61,83,80
2,59,85,80
2,55,82,88
2,53,82,84
2,75,75,19392
2,73,71,550
2,68,68,282
2,71,75,298
2,66,75,928
2,68,75,262
2,69,71,264
2,68,76,556
2,73,79,570
2,69,83,582
2,66,75,580
2,61,63,362
2,65,79,4
2,49,82,31152
2,50,82,90
2,51,80,80
2,52,75,86
2,55,82,86
2,54,76,74
2,52,79,86
2,51,75,86
2,50,78,86
2,49,79,88
2,57,79,86
2,56,83,84
2,55,82,80
2,54,76,84
2,52,82,88
2,51,74,76
2,55,79,1550
2,53,80,192
2,52,81,80
2,51,72,88
2,50,71,82
2,51,75,86
2,56,68,80
2,55,73,76
2,54,71,90
2,50,67,80
2,49,72,86
2,55,65,84
2,54,69,86
2,53,82,80
2,52,82,90
2,49,76,1546
2,50,74,92
2,51,62,76
2,52,79,76
2,55,77,86
2,54,72,86
2,52,80,88
2,51,80,80
2,50,76,80
2,49,71,84
2,57,69,84
2,56,74,76
2,55,72,80
2,54,69,96
2,52,68,80
2,51,72,86
2,55,77,86
2,55,79,16
2,53,75,94
2,52,76,82
2,51,69,90
2,50,69,80
2,51,76,82
2,56,69,86
2,55,76,80
2,54,72,80
2,50,70,86
2,49,74,96
2,55,76,78
2,54,71,80
2,53,75,86
2,47,79,76
2,48,83,90
2,49,71,80
2,50,72,84
2,52,72,86
2,51,82,86
2,55,68,82
2,54,75,82
2,57,76,80
2,56,73,80
2,50,76,92
2,49,75,96
2,58,80,76
2,57,79,86
2,51,80,88
2,60,85,82
2,52,78,74
2,61,78,90
2,60,79,82
2,58,79,80
2,57,79,70
2,56,74,78
2,63,68,84
2,62,75,78
2,60,78,90
2,52,76,86
2,64,84,82
2,63,72,276
2,62,79,64
2,60,73,74
2,59,73,86
2,58,73,80
2,65,76,82
2,64,82,82
2,62,86,86
2,54,72,86
2,66,70,86
2,56,67,260
2,57,70,86
2,58,72,80
2,59,75,74
2,61,72,74
2,62,65,90
2,63,72,90
2,64,70,80
2,67,75,82
2,66,74,80
2,64,71,88
2,63,72,84
2,62,68,74
2,61,69,86
2,69,70,86
2,68,68,80
2,67,71,70
2,66,73,80
2,64,71,70
2,63,74,74
2,66,73,82
2,67,76,50
2,66,73,48
2,65,78,52
2,64,68,78
2,63,69,86
2,62,67,76
2,63,68,92
2,68,71,84
2,67,79,76
2,66,75,88
2,62,71,84
2,61,75,86
2,67,78,76
2,66,73,84
2,65,76,76
2,59,67,78
2,60,76,78
2,61,71,76
2,62,71,84
2,64,75,102
2,63,75,70
2,67,72,84
2,66,89,70
2,69,72,84
2,68,90,84
2,62,76,92
2,61,72,90
2,70,77,84
2,69,82,80
2,63,70,92
2,72,80,86
2,64,75,70
2,73,72,100
2,72,62,80
2,71,77,58
2,69,75,0
2,68,72,96
2,75,83,90
2,74,77,74
2,72,74,84
2,64,82,86
2,76,82,92
2,75,73,266
2,74,80,80
2,72,71,62
2,71,77,86
2,70,73,84
2,77,79,78
2,76,73,74
2,74,76,86
2,66,73,84
2,78,73,86
2,67,75,100
2,66,72,106
2,63,66,70
2,61,67,76
2,64,76,80
2,70,61,88
2,68,78,74
2,66,73,88
2,64,71,80
2,60,58,100
2,67,81,86
2,66,78,84
2,63,71,86
2,61,65,84
2,64,73,84
2,70,72,82
2,68,75,80
2,66,71,84
2,64,72,76
2,60,67,82
2,71,77,86
2,70,75,80
2,68,70,86
2,66,77,90
2,64,76,84
2,73,76,92
2,71,68,74
2,70,89,82
2,68,82,80
2,66,75,84
2,71,73,86
2,70,75,68
2,68,73,74
2,66,75,84
2,64,70,86
2,73,68,92
2,71,79,70
2,70,73,82
2,68,70,84
2,66,66,80
2,71,77,86
2,70,79,80
2,68,70,82
2,66,76,90
2,74,73,92
2,73,79,76
2,71,82,70
2,69,76,80
2,67,76,84
2,76,70,86
2,74,74,70
2,73,73,90
2,71,76,72
2,69,71,74
2,74,77,86
2,73,65,70
2,71,77,64
2,69,69,86
2,67,66,82
2,76,72,82
2,74,79,76
2,73,73,70
2,71,72,80
2,69,74,86
2,76,72,90
2,77,73,52
2,76,79,48
2,74,69,44
2,72,75,48
2,70,70,48
2,76,77,50
2,77,76,40
2,76,81,46
2,74,73,48
2,72,79,24
2,70,79,48
2,79,77,64
2,74,76,42
2,79,81,60
2,74,80,54
2,67,76,0
2,65,71,60
2,79,75,32
2,74,72,68
2,79,82,56
2,74,78,56
2,67,75,52
2,65,79,60
2,76,79,22
2,77,87,74
2,76,88,44
2,74,80,42
2,72,77,48
2,70,77,54
2,76,82,52
2,77,79,52
2,76,87,52
2,74,79,46
2,72,75,42
2,70,66,52
2,79,81,58
2,74,80,52
2,79,76,56
2,74,73,56
2,67,65,0
2,65,64,62
2,79,76,36
2,74,81,64
2,79,85,56
2,74,79,54
2,67,71,48
2,65,68,60
2,81,86,48
2,82,83,62
2,81,86,48
2,79,86,44
2,77,82,52
2,74,76,52
2,81,77,48
2,82,79,42
2,81,78,52
2,79,76,56
2,77,78,52
2,74,82,56
2,84,76,64
2,79,79,48
2,84,79,62
2,79,77,56
2,72,73,54
2,70,69,54
2,84,81,36
2,79,76,60
2,84,75,54
2,79,79,50
2,72,75,56
2,70,68,58
2,81,58,42
2,79,72,2
2,82,85,22
2,81,83,50
2,79,77,52
2,77,75,52
2,74,74,52
2,81,76,52
2,82,79,38
2,81,86,48
2,79,72,48
2,77,73,52
2,74,70,52
2,84,75,64
2,79,77,52
2,84,75,62
2,79,75,54
2,72,79,54
2,70,67,56
2,84,72,38
2,79,76,52
2,84,75,48
2,79,77,50
2,72,78,52
2,70,73,62
2,83,82,48
2,85,79,64
2,83,86,48
2,81,80,48
2,78,74,54
2,76,76,48
2,71,62,32
2,73,71,70
2,71,84,56
2,69,84,50
2,66,74,46
2,64,75,48
2,59,79,38
2,61,84,62
2,59,81,52
2,57,76,48
2,54,76,48
2,52,78,0
2,47,72,62
2,49,72,58
2,47,77,60
2,45,86,48
2,42,73,58
2,40,81,52
2,66,80,15360
2,68,83,290
2,75,81,276
2,66,82,900
2,68,89,256
2,73,88,266
2,66,75,920
2,68,90,250
2,71,83,256
2,66,73,916
2,68,77,260
2,69,92,224
2,68,94,566
2,64,80,328
2,66,84,266
2,73,85,242
2,64,80,906
2,66,81,268
2,68,85,244
2,78,80,550
2,77,81,330
2,77,98,48
2,78,82,768
2,66,80,758
2,68,74,292
2,75,89,266
2,66,82,942
2,68,94,256
2,73,85,250
2,66,83,960
2,68,92,250
2,71,90,274
2,66,82,930
2,68,88,266
2,69,97,260
2,68,112,550
2,64,90,368
2,66,86,248
2,73,83,280
2,64,90,918
2,66,85,250
2,69,89,266
2,78,93,562
2,77,86,356
2,68,66,2
2,78,82,30
2,69,66,2
2,68,65,90
2,77,84,0
2,64,69,46
2,59,67,114
2,68,75,76
2,66,75,88
2,59,75,192
2,68,75,86
2,59,75,70
2,68,68,72
2,66,76,84
2,64,73,150
2,59,78,194
2,61,79,102
2,59,78,74
2,64,79,90
2,59,78,80
2,68,78,86
2,66,78,64
2,56,75,176
2,59,79,100
2,56,69,76
2,67,75,88
2,68,73,2
2,71,73,54
2,64,83,92
2,59,76,80
2,68,68,84
2,66,76,84
2,59,80,176
2,68,79,84
2,59,73,80
2,61,83,196
2,64,81,158
2,59,75,172
2,64,82,98
2,59,78,82
2,61,75,88
2,59,63,80
2,56,65,78
2,64,68,90
2,61,79,64
2,59,75,84
2,67,68,90
2,65,76,82
2,61,75,86
2,58,82,80
2,55,79,88
2,53,72,80
2,71,84,26554
2,74,88,1158
2,71,87,336
2,74,63,1060
2,71,82,354
2,74,78,1088
3,23,88,0
3,25,75,96
3,25,85,40
3,25,104,32
3,23,98,92
3,23,104,28
3,23,97,24
3,23,89,38
3,23,98,42
3,25,86,90
3,25,89,26
3,25,76,42
3,23,98,90
3,25,81,84
3,25,83,26
3,25,78,24
3,23,94,96
3,23,94,32
3,23,88,38
3,23,94,36
3,23,88,34
3,25,81,90
3,25,69,32
3,25,86,36
3,23,102,92
3,25,81,92
3,25,84,26
3,25,84,28
3,23,90,96
3,23,83,36
3,23,86,36
3,23,85,40
3,23,87,32
3,25,82,96
3,25,79,34
3,25,85,40
3,23,100,102
3,25,82,82
3,25,89,36
3,25,85,28
3,23,90,90
3,23,98,32
3,23,100,36
3,23,94,26
3,23,98,24
3,25,84,96
3,25,86,20
3,25,96,30
3,23,114,102
3,25,86,86
3,25,85,28
3,25,85,38
3,23,93,96
3,23,93,24
3,23,84,26
3,23,77,42
3,23,97,42
3,25,85,90
3,25,81,26
3,25,84,16
3,23,104,104
3,25,79,80
3,25,82,26
3,25,82,16
3,23,93,86
3,23,100,24
3,23,90,32
3,23,93,30
3,23,90,22
3,25,79,86
3,25,88,26
3,25,87,32
3,23,96,106
3,25,86,88
3,25,85,20
3,25,83,20
3,23,94,86
3,23,83,26
3,23,82,38
3,23,89,38
3,23,83,28
3,25,82,100
3,25,79,34
3,25,86,26
3,23,88,106
3,25,88,90
3,25,79,30
3,25,76,32
3,23,89,86
3,23,88,34
3,23,89,36
3,23,88,34
3,23,93,42
3,26,90,92
3,26,92,28
3,26,86,36
3,23,97,2
3,25,78,96
3,25,71,30
3,25,75,38
3,25,92,48
3,26,84,92
3,25,79,76
3,25,66,30
3,25,79,36
3,25,69,32
3,25,97,60
3,25,81,32
3,25,84,34
3,25,90,48
3,23,100,96
3,25,81,92
3,25,73,16
3,25,76,26
3,25,84,32
3,26,83,86
3,25,71,82
3,25,70,28
3,25,80,32
3,25,80,24
3,25,93,26
3,25,86,32
3,25,102,22
3,25,97,34
3,23,104,104
3,25,84,84
3,25,73,14
3,25,84,26
3,25,87,26
3,26,94,90
3,25,87,90
3,25,85,24
3,25,80,26
3,25,82,26
3,25,107,32
3,25,86,26
3,25,105,26
3,25,89,26
3,23,120,92
3,25,100,90
3,25,80,20
3,25,73,28
3,25,86,28
3,26,84,94
3,25,77,80
3,25,86,14
3,25,84,18
3,25,82,20
3,25,92,22
3,25,84,16
3,25,89,16
3,25,107,22
3,23,90,14
3,25,88,92
3,25,79,26
3,25,79,52
3,25,84,46
3,26,90,90
3,25,84,82
3,25,75,28
3,25,79,36
3,25,75,38
3,25,97,58
3,25,88,36
3,25,102,42
3,25,92,36
3,23,92,92
3,25,82,80
3,25,81,20
3,25,82,34
3,25,97,44
3,26,89,96
3,25,79,4
3,25,71,32
3,25,79,48
3,25,85,40
3,25,88,48
3,25,78,42
3,25,84,42
3,25,83,26
3,23,85,92
3,25,93,92
3,25,75,20
3,25,73,48
3,25,84,48
3,26,88,96
3,25,83,82
3,25,70,28
3,25,83,22
3,25,83,18
3,25,86,26
3,25,75,26
3,25,79,22
3,25,86,32
3,23,94,108
3,25,84,86
3,25,72,22
3,25,73,46
3,25,82,44
3,26,87,92
3,25,73,80
3,25,72,30
3,25,80,36
