track,note,velocity,time
0,36,46,222
0,37,94,0
0,37,113,0
0,49,69,0
0,53,69,0
0,56,69,0
0,36,0,4
0,37,0,11
0,44,113,33
0,44,0,15
0,49,113,33
0,49,0,15
0,49,85,33
0,49,0,15
0,49,65,5
0,49,0,15
0,49,65,5
0,49,0,15
0,36,33,5
0,44,113,0
0,36,0,4
0,44,0,11
0,36,46,33
0,37,113,0
0,36,0,4
0,37,0,11
0,44,113,33
0,44,0,15
0,49,113,33
0,49,0,15
0,49,85,33
0,49,0,15
0,49,64,5
0,49,0,15
0,49,64,5
0,49,0,15
0,37,113,5
0,37,0,15
0,44,113,33
0,44,0,15
0,49,113,33
0,49,0,15
0,49,85,33
0,49,0,15
0,49,64,5
0,49,0,15
0,49,64,5
0,49,0,15
0,44,113,5
0,44,0,15
0,37,113,33
0,37,0,15
0,44,113,33
0,44,0,15
0,49,113,33
0,49,0,15
0,49,85,33
0,49,0,15
0,49,64,5
0,85,66,0
0,49,0,15
0,85,0,0
0,49,64,5
0,49,0,15
0,85,58,45
0,87,59,12
0,85,0,3
0,89,61,9
0,87,0,3
0,36,90,9
0,90,63,0
0,89,0,3
0,36,0,1
0,92,65,8
0,90,0,3
0,94,66,9
0,92,0,3
0,96,68,9
0,94,0,3
0,37,0,3
0,49,0,0
0,53,0,0
0,56,0,0
0,36,91,2
0,37,94,0
0,37,113,0
0,53,69,0
0,56,69,0
0,61,69,0
0,65,65,0
0,68,65,0
0,68,100,0
0,73,65,0
0,97,70,0
0,96,0,3
0,36,0,1
0,37,0,11
0,97,0,0
0,44,113,33
0,44,0,15
0,49,113,33
0,61,87,2
0,68,0,11
0,49,0,2
0,49,85,33
0,49,0,15
0,65,85,2
0,49,64,3
0,61,0,0
0,49,0,15
0,49,64,5
0,49,0,15
0,68,91,29
0,65,0,6
0,80,114,30
0,80,0,1
0,44,113,4
0,80,114,5
0,44,0,10
0,80,0,2
0,80,114,7
0,80,0,12
0,80,114,8
0,37,113,4
0,37,0,15
0,44,113,33
0,44,0,15
0,49,113,33
0,80,0,9
0,49,0,6
0,78,114,12
0,49,85,21
0,49,0,15
0,49,64,5
0,49,0,15
0,78,0,11
0,77,114,1
0,49,64,4
0,49,0,15
0,77,0,32
0,78,114,22
0,68,0,31
0,78,0,27
0,37,113,5
0,80,114,1
0,68,114,1
0,37,0,13
0,44,113,33
0,44,0,15
0,49,113,33
0,61,94,4
0,68,0,3
0,49,0,8
0,49,85,33
0,49,0,15
0,65,85,4
0,49,64,1
0,61,0,3
0,49,0,12
0,80,0,2
0,49,64,5
0,49,0,15
0,68,91,34
0,65,0,6
0,80,114,25
0,80,0,1
0,44,113,4
0,80,114,5
0,44,0,10
0,80,0,2
0,80,114,7
0,80,0,12
0,37,113,12
0,80,114,3
0,37,0,12
0,44,113,33
0,44,0,15
0,49,113,33
0,49,0,15
0,80,0,10
0,80,114,15
0,49,85,8
0,49,0,15
0,49,64,5
0,49,0,15
0,49,64,5
0,49,0,15
0,80,0,0
0,85,114,19
0,36,61,62
0,36,0,4
0,68,0,16
0,85,0,2
0,70,104,19
0,37,0,3
0,53,0,0
0,56,0,0
0,61,0,0
0,65,0,0
0,68,0,0
0,73,0,0
0,36,91,2
0,37,94,0
0,37,113,0
0,54,69,0
0,58,69,0
0,61,69,0
0,66,65,0
0,70,65,0
0,73,65,0
0,82,114,0
0,36,0,4
0,37,0,11
0,46,113,33
0,46,0,15
0,70,0,25
0,61,104,5
0,49,113,3
0,49,0,15
0,49,85,33
0,49,0,15
0,49,65,5
0,66,89,1
0,61,0,6
0,49,0,8
0,49,65,5
0,49,0,15
0,70,94,38
0,66,0,3
0,46,113,5
0,46,0,15
0,37,113,33
0,37,0,15
0,46,113,29
0,46,0,15
0,49,113,33
0,49,0,15
0,49,85,33
0,49,0,15
0,82,0,3
0,49,64,2
0,49,0,15
0,49,64,5
0,49,0,15
0,82,114,65
0,82,0,12
0,82,114,9
0,70,0,5
0,82,0,7
0,82,114,7
0,82,0,12
0,37,113,5
0,70,97,0
0,82,114,0
0,37,0,15
0,46,113,33
0,46,0,15
0,70,0,27
0,82,0,5
0,49,113,1
0,61,94,1
0,49,0,14
0,82,114,1
0,49,85,32
0,49,0,15
0,61,0,25
0,66,100,2
0,49,64,3
0,49,0,15
0,82,0,0
0,82,114,17
0,49,64,5
0,49,0,15
0,70,109,34
0,66,0,3
0,82,0,19
0,82,114,9
0,82,0,1
0,46,113,4
0,82,114,5
0,46,0,10
0,82,0,2
0,82,114,7
0,82,0,12
0,37,113,12
0,82,114,0
0,37,0,15
0,46,113,33
0,46,0,15
0,82,0,32
0,49,113,1
0,49,0,15
0,82,114,1
0,49,85,32
0,49,0,15
0,49,64,5
0,49,0,15
0,82,0,0
0,82,114,17
0,49,64,5
0,49,0,15
0,82,0,31
0,80,114,2
0,70,0,9
0,36,61,39
0,36,0,4
0,80,0,11
0,80,114,19
0,68,109,1
0,37,0,2
0,54,0,0
0,58,0,0
0,61,0,0
0,66,0,0
0,70,0,0
0,73,0,0
0,36,94,2
0,36,91,0
0,37,113,0
0,56,69,0
0,60,69,0
0,63,69,0
0,68,65,0
0,72,65,0
0,75,65,0
0,36,0,4
0,37,0,11
0,44,113,33
0,44,0,15
0,68,0,32
0,49,113,1
0,60,94,1
0,49,0,14
0,49,85,33
0,49,0,15
0,63,100,4
0,49,64,1
0,60,0,5
0,49,0,10
0,49,64,5
0,49,0,15
0,68,114,33
0,63,0,4
0,44,113,5
0,44,0,1
0,37,113,33
0,37,0,15
0,44,113,33
0,44,0,15
0,49,113,33
0,49,0,15
0,49,85,33
0,49,0,1
0,80,0,3
0,49,64,2
0,49,0,15
0,49,64,5
0,49,0,15
0,75,114,78
0,68,0,9
0,75,0,7
0,77,114,2
0,78,114,24
0,77,0,3
0,56,0,3
0,60,0,0
0,63,0,0
0,68,0,0
0,72,0,0
0,75,0,0
0,37,113,2
0,56,69,0
0,60,77,0
0,66,56,0
0,68,65,0
0,68,104,0
0,72,73,0
0,78,52,0
0,37,0,15
0,44,113,33
0,44,0,15
0,49,113,33
0,68,0,2
0,60,85,2
0,49,0,11
0,78,0,5
0,60,0,26
0,72,0,0
0,78,114,1
0,49,85,1
0,60,77,0
0,72,73,0
0,49,0,15
0,63,100,4
0,49,64,1
0,60,0,6
0,49,0,9
0,49,64,5
0,78,0,14
0,49,0,1
0,78,114,25
0,60,0,6
0,72,0,0
0,60,77,2
0,72,73,0
0,68,104,6
0,63,0,6
0,44,113,5
0,78,0,14
0,44,0,1
0,60,0,31
0,72,0,0
0,78,114,1
0,37,113,1
0,61,77,0
0,73,73,0
0,37,0,15
0,44,113,33
0,44,0,15
0,49,113,33
0,49,0,15
0,78,0,12
0,49,85,21
0,80,114,0
0,49,0,15
0,61,0,3
0,73,0,0
0,49,64,2
0,63,77,0
0,75,73,0
0,49,0,15
0,49,64,5
0,49,0,15
0,80,0,20
0,75,114,15
0,36,61,46
0,36,0,4
0,68,0,2
0,75,0,35
0,36,0,3
0,56,0,0
0,63,0,0
0,66,0,0
0,68,0,0
0,75,0,0
0,78,0,0
0,36,91,2
0,37,94,0
0,37,113,0
0,56,69,0
0,61,69,0
0,66,69,0
0,68,65,0
0,73,65,0
0,78,65,0
0,78,114,0
0,36,0,4
0,68,114,6
0,37,0,5
0,44,113,33
0,44,0,15
0,49,113,33
0,61,87,6
0,68,0,3
0,49,0,6
0,49,85,33
0,49,0,15
0,49,65,5
0,65,94,4
0,61,0,4
0,49,0,7
0,49,65,5
0,77,114,6
0,78,0,3
0,49,0,6
0,78,114,11
0,77,0,2
0,77,114,13
0,78,0,4
0,68,104,5
0,65,0,4
0,77,0,37
0,44,113,5
0,75,114,0
0,44,0,15
0,66,0,31
0,78,0,0
0,37,113,2
0,65,69,0
0,77,65,0
0,37,0,15
0,75,0,9
0,77,114,1
0,44,113,23
0,44,0,15
0,49,113,33
0,49,0,15
0,49,85,33
0,49,0,15
0,49,64,5
0,49,0,15
0,49,64,5
0,49,0,15
0,68,0,1
0,37,113,5
0,68,109,0
0,37,0,15
0,44,113,33
0,44,0,15
0,68,0,32
0,49,113,1
0,56,114,0
0,49,0,15
0,49,85,33
0,49,0,15
0,49,64,5
0,61,100,0
0,56,0,4
0,49,0,11
0,49,64,5
0,49,0,15
0,61,0,32
0,63,64,1
0,44,113,5
0,44,0,15
0,63,0,12
0,77,0,2
0,77,114,2
0,37,113,5
0,56,114,0
0,61,97,0
0,65,98,0
0,37,0,0
0,44,113,12
0,44,0,15
0,49,113,33
0,49,0,10
0,49,85,33
0,61,0,5
0,65,0,9
0,49,0,1
0,56,0,12
0,37,0,2
0,61,0,0
0,73,0,0
0,36,94,2
0,49,64,0
0,56,91,0
0,60,69,0
0,60,104,0
0,65,98,0
0,72,65,0
0,77,0,6
0,80,114,0
0,49,0,9
0,49,64,5
0,49,0,15
0,36,61,59
0,36,0,4
0,56,0,25
0,65,0,6
0,80,0,2
0,36,0,1
0,56,0,0
0,60,0,0
0,65,0,0
0,68,0,0
0,72,0,0
0,77,0,0
0,82,114,1
0,34,94,1
0,34,113,0
0,36,91,0
0,58,69,0
0,58,91,0
0,61,69,0
0,61,104,0
0,65,69,0
0,65,98,0
0,70,69,0
0,70,91,0
0,73,65,0
0,77,65,0
0,82,65,0
0,60,0,1
0,36,0,3
0,34,0,11
0,41,113,33
0,41,0,15
0,46,113,3
0,46,0,15
0,46,85,33
0,46,0,15
0,58,0,14
0,65,0,6
0,46,64,5
0,61,0,1
0,46,0,14
0,46,64,5
0,46,0,0
0,82,0,16
0,77,114,5
0,70,0,8
0,65,0,2
0,70,0,0
0,77,0,0
0,82,0,0
0,65,69,2
0,65,96,0
0,77,65,0
0,41,113,5
0,41,0,15
0,77,0,6
0,77,114,24
0,34,113,3
0,34,0,15
0,41,113,33
0,41,0,15
0,46,113,33
0,46,0,15
0,46,85,5
0,46,0,15
0,46,64,5
0,46,0,15
0,46,64,5
0,46,0,15
0,77,0,53
0,77,108,19
0,77,0,12
0,77,95,4
0,77,0,13
0,77,105,1
0,77,0,1
0,34,113,5
0,70,51,0
0,77,116,0
0,82,47,0
0,70,81,1
0,65,0,4
0,34,0,10
0,41,113,33
0,41,0,15
0,77,0,29
0,46,113,4
0,58,83,1
0,46,0,14
0,70,0,5
0,77,123,13
0,46,85,15
0,46,0,15
0,61,97,4
0,46,64,1
0,58,0,5
0,46,0,10
0,77,0,25
0,46,64,5
0,46,0,15
0,77,116,6
0,65,111,27
0,61,0,4
0,77,0,32
0,41,113,5
0,77,108,0
0,77,0,12
0,41,0,3
0,77,95,1
0,77,0,13
0,77,105,1
0,77,0,1
0,65,0,16
0,34,113,1
0,77,116,1
0,70,109,3
0,34,0,11
0,41,113,33
0,41,0,15
0,77,0,14
0,46,113,19
0,77,116,13
0,46,0,2
0,46,85,33
0,46,0,15
0,70,0,3
0,82,0,0
0,46,64,2
0,68,69,0
0,80,65,0
0,77,0,1
0,70,0,1
0,68,97,5
0,46,0,8
0,77,116,21
0,46,64,5
0,46,0,15
0,77,0,33
0,80,116,12
0,36,61,36
0,36,0,4
0,80,0,8
0,68,0,10
0,34,0,3
0,58,0,0
0,61,0,0
0,65,0,0
0,68,0,0
0,73,0,0
0,77,0,0
0,80,0,0
0,80,116,0
0,34,113,2
0,36,91,0
0,39,94,0
0,58,69,0
0,58,85,0
0,63,69,0
0,63,89,0
0,68,69,0
0,68,100,0
0,70,65,0
0,75,65,0
0,80,65,0
0,36,0,4
0,34,0,11
0,39,113,33
0,39,0,15
0,46,113,33
0,46,0,11
0,46,85,33
0,46,0,15
0,46,64,5
0,46,0,15
0,46,64,5
0,63,0,1
0,46,0,14
0,80,0,5
0,79,116,13
0,68,0,6
0,80,0,0
0,68,0,1
0,63,97,1
0,67,69,0
0,67,100,0
0,79,65,0
0,79,0,33
0,77,115,8
0,39,113,5
0,65,103,0
0,67,0,1
0,63,0,1
0,39,0,13
0,77,0,18
0,65,0,6
0,79,115,7
0,34,113,2
0,63,97,0
0,67,109,0
0,34,0,15
0,39,113,33
0,39,0,15
0,46,113,23
0,46,0,15
0,46,85,33
0,46,0,15
0,58,0,3
0,58,97,1
0,46,64,1
0,65,100,1
0,46,0,14
0,58,0,7
0,63,0,0
0,67,0,0
0,46,64,5
0,79,0,10
0,46,0,5
0,79,115,24
0,79,0,47
0,65,0,9
0,77,115,3
0,63,91,32
0,58,97,3
0,39,0,3
0,63,0,0
0,75,0,0
0,37,94,2
0,37,113,0
0,61,69,0
0,73,65,0
0,77,0,4
0,37,0,11
0,77,115,29
0,46,113,4
0,46,0,15
0,49,113,33
0,49,0,15
0,77,0,4
0,75,115,10
0,49,85,19
0,49,0,15
0,49,64,1
0,49,0,15
0,49,64,5
0,49,0,15
0,75,0,22
0,75,115,23
0,46,113,5
0,75,0,0
0,58,0,2
0,63,0,11
0,46,0,2
0,75,115,6
0,75,0,21
0,37,113,6
0,37,0,15
0,75,115,12
0,46,113,21
0,46,0,15
0,49,113,6
0,49,0,15
0,75,0,11
0,49,85,22
0,75,114,7
0,49,0,5
0,49,64,5
0,49,0,15
0,49,64,5
0,49,0,15
0,75,0,34
0,77,114,20
0,36,61,23
0,36,0,4
0,77,0,25
0,75,114,9
0,37,0,3
0,58,0,0
0,61,0,0
0,67,0,0
0,70,0,0
0,73,0,0
0,79,0,0
0,36,94,2
0,36,113,0
0,36,91,0
0,56,69,0
0,60,69,0
0,63,69,0
0,68,65,0
0,72,65,0
0,75,65,0
0,36,0,4
0,36,0,11
0,75,0,28
0,44,113,5
0,44,0,15
0,75,114,6
0,48,113,27
0,48,0,15
0,48,85,33
0,48,0,15
0,48,64,5
0,48,0,15
0,48,64,5
0,48,0,15
0,44,113,5
0,44,0,15
0,36,113,14
0,36,0,5
0,44,113,8
0,44,0,7
0,48,113,15
0,48,0,15
0,48,85,33
0,48,0,15
0,48,64,5
0,48,0,15
0,48,64,5
0,48,0,15
0,36,0,3
0,56,0,0
0,60,0,0
0,63,0,0
0,68,0,0
0,72,0,0
0,75,0,0
0,75,0,0
0,34,94,2
0,34,113,0
0,55,69,0
0,58,69,0
0,61,69,0
0,67,65,0
0,70,65,0
0,73,65,0
0,34,0,15
0,75,114,15
0,75,0,8
0,41,113,10
0,75,114,1
0,75,0,8
0,41,0,6
0,75,114,8
0,46,113,25
0,46,0,15
0,46,85,33
0,46,0,15
0,75,0,1
0,46,64,4
0,46,0,15
0,75,114,5
0,46,64,5
0,46,0,15
0,75,0,57
0,75,114,2
0,41,113,3
0,41,0,15
0,34,0,31
0,70,0,1
0,39,94,1
0,39,113,0
0,70,69,0
0,82,65,0
0,39,0,15
0,75,0,24
0,46,113,9
0,82,114,4
0,46,0,11
0,51,113,33
0,51,0,15
0,70,0,15
0,82,0,0
0,68,69,2
0,80,65,0
0,82,0,13
0,51,85,3
0,80,114,1
0,51,0,14
0,80,0,4
0,82,114,5
0,82,0,17
0,80,114,2
0,51,64,5
0,51,0,15
0,51,64,5
0,51,0,15
0,68,0,31
0,80,0,0
0,67,0,1
0,67,69,1
0,79,65,0
0,80,0,15
0,79,114,2
0,36,61,31
0,36,0,4
0,39,0,3
0,55,0,0
0,58,0,0
0,61,0,0
0,67,0,0
0,73,0,0
0,79,0,0
0,32,113,2
0,36,91,0
0,44,94,0
0,56,63,0
0,60,63,0
0,63,63,0
0,68,63,0
0,72,56,0
0,75,56,0
0,80,56,0
0,36,0,4
0,32,0,11
0,79,0,7
0,80,114,5
0,39,113,21
0,39,0,15
0,44,113,33
0,44,0,15
0,44,85,33
0,44,0,15
0,44,64,5
0,44,0,15
0,44,64,5
0,44,0,15
0,39,113,5
0,39,0,15
0,32,113,33
0,32,0,15
0,39,113,33
0,39,0,15
0,44,113,33
0,44,0,15
0,44,85,33
0,44,0,15
0,44,64,5
0,44,0,15
0,44,64,5
0,80,0,8
0,44,0,3
0,72,0,31
0,75,0,0
