track,note,velocity,time
0,43,68,64
0,43,33,0
0,50,59,8
0,50,24,0
0,55,67,8
0,55,27,0
0,59,75,8
0,59,31,0
0,55,98,8
0,62,98,0
0,62,84,0
0,62,44,0
0,67,98,0
0,67,84,8
0,67,49,0
0,67,0,28
0,67,0,0
0,62,0,8
0,62,0,0
0,67,0,3
0,59,0,3
0,59,0,0
0,50,0,4
0,50,0,0
0,55,0,5
0,55,0,0
0,62,0,2
0,55,0,12
0,43,0,2
0,43,0,0
0,50,82,76
0,50,42,0
0,62,64,0
0,62,25,0
0,43,59,1
0,43,26,0
0,59,72,0
0,59,38,0
0,67,85,0
0,67,43,0
0,55,65,1
0,55,21,0
0,50,0,20
0,50,0,0
0,67,0,0
0,67,0,0
0,43,0,2
0,43,0,0
0,55,0,0
0,55,0,0
0,62,0,2
0,62,0,0
0,59,0,1
0,59,0,0
0,59,36,111
0,59,37,0
0,62,39,0
0,62,32,0
0,55,23,1
0,55,25,0
0,43,33,1
0,43,36,0
0,50,48,0
0,50,49,0
0,67,34,0
0,67,33,0
0,55,0,16
0,55,0,0
0,50,0,1
0,50,0,0
0,43,0,2
0,43,0,0
0,59,0,0
0,59,0,0
0,67,0,0
0,67,0,0
0,62,0,1
0,62,0,0
0,55,23,74
0,55,48,0
0,59,38,1
0,59,70,0
0,62,34,1
0,62,64,0
0,67,21,0
0,67,37,0
0,43,17,1
0,43,50,0
0,50,30,0
0,50,62,0
0,50,0,15
0,50,0,0
0,55,0,1
0,55,0,0
0,59,0,0
0,59,0,0
0,67,0,1
0,67,0,0
0,62,0,1
0,62,0,0
0,43,0,1
0,43,0,0
0,67,47,74
0,67,42,0
0,59,55,1
0,59,50,0
0,62,42,0
0,62,40,0
0,43,59,1
0,43,65,0
0,55,26,2
0,55,26,0
0,50,55,1
0,50,52,0
0,55,0,16
0,55,0,0
0,67,0,0
0,67,0,0
0,59,0,3
0,59,0,0
0,62,0,0
0,62,0,0
0,43,0,2
0,43,0,0
0,50,0,0
0,50,0,0
0,59,74,10
0,59,45,0
0,67,77,0
0,67,45,0
0,43,72,1
0,43,39,0
0,62,79,0
0,62,49,0
0,50,83,1
0,50,52,0
0,55,66,0
0,55,35,0
0,55,119,2
0,50,0,15
0,50,0,0
0,55,0,1
0,55,0,0
0,59,0,2
0,59,0,0
0,62,0,0
0,62,0,0
0,43,0,1
0,43,0,0
0,67,0,0
0,67,0,0
0,55,0,14
0,57,119,2
0,55,45,9
0,55,35,0
0,59,42,2
0,59,19,0
0,62,43,1
0,62,17,0
0,67,40,0
0,67,20,0
0,50,71,1
0,50,38,0
0,43,47,1
0,43,20,0
0,57,0,0
0,62,121,2
0,50,0,14
0,50,0,0
0,67,0,0
0,67,0,0
0,59,0,2
0,59,0,0
0,62,0,1
0,62,0,0
0,43,0,1
0,43,0,0
0,55,0,8
0,55,0,0
0,59,30,8
0,59,63,0
0,62,21,1
0,62,39,0
0,67,22,0
0,67,45,0
0,43,23,1
0,43,41,0
0,55,24,0
0,55,38,0
0,50,43,1
0,50,72,0
0,62,0,3
0,57,121,2
0,50,0,15
0,50,0,0
0,43,0,1
0,43,0,0
0,55,0,1
0,55,0,0
0,67,0,5
0,67,0,0
0,62,0,3
0,62,0,0
0,59,0,1
0,59,0,0
0,59,76,10
0,59,34,0
0,62,68,1
0,62,27,0
0,67,74,0
0,67,36,0
0,43,77,1
0,43,39,0
0,50,78,0
0,50,42,0
0,55,56,1
0,55,24,0
0,57,0,1
0,55,119,2
0,50,0,1
0,50,0,0
0,43,0,4
0,43,0,0
0,62,0,5
0,62,0,0
0,59,0,1
0,59,0,0
0,67,0,0
0,67,0,0
0,55,0,2
0,55,0,0
0,55,0,14
0,55,72,12
0,55,32,0
0,59,71,0
0,59,35,0
0,62,70,0
0,62,28,0
0,43,72,1
0,43,33,0
0,50,84,0
0,50,41,0
0,67,68,1
0,67,31,0
0,50,0,14
0,50,0,0
0,67,0,5
0,67,0,0
0,43,0,1
0,43,0,0
0,55,0,0
0,55,0,0
0,59,0,1
0,59,0,0
0,62,0,3
0,62,0,0
0,59,46,11
0,59,60,0
0,62,43,1
0,62,60,0
0,67,43,0
0,67,63,0
0,43,27,1
0,43,46,0
0,50,44,0
0,50,70,0
0,55,21,1
0,55,36,0
0,67,0,12
0,67,0,0
0,50,0,1
0,50,0,0
0,55,0,1
0,55,0,0
0,43,0,1
0,43,0,0
0,62,0,0
0,62,0,0
0,59,0,1
0,59,0,0
0,43,31,15
0,43,48,0
0,55,32,0
0,55,54,0
0,67,49,0
0,67,68,0
0,50,51,1
0,50,66,0
0,59,42,0
0,59,65,0
0,62,49,1
0,62,67,0
0,50,0,12
0,50,0,0
0,59,0,1
0,59,0,0
0,62,0,1
0,62,0,0
0,67,0,0
0,67,0,0
0,55,0,2
0,55,0,0
0,43,0,2
0,43,0,0
0,67,49,0
0,67,45,0
0,59,43,1
0,59,44,0
0,62,51,0
0,62,57,0
0,43,54,1
0,43,53,0
0,55,34,0
0,55,37,0
0,50,44,1
0,50,46,0
0,50,0,12
0,50,0,0
0,55,0,3
0,55,0,0
0,59,0,1
0,59,0,0
0,43,0,1
0,43,0,0
0,62,0,0
0,62,0,0
0,67,0,0
0,67,0,0
0,43,62,13
0,43,42,0
0,50,69,2
0,50,52,0
0,50,119,1
0,55,55,0
0,55,37,0
0,59,72,0
0,59,51,0
0,67,71,1
0,67,48,0
0,62,66,1
0,62,47,0
0,50,0,4
0,50,0,0
0,59,0,6
0,59,0,0
0,62,0,0
0,62,0,0
0,55,0,2
0,55,0,0
0,43,0,1
0,43,0,0
0,67,0,1
0,67,0,0
0,50,0,9
0,52,113,2
0,55,79,13
0,55,28,0
0,43,35,1
0,43,28,0
0,52,0,0
0,59,39,0
0,59,31,0
0,62,51,0
0,62,47,0
0,50,47,1
0,50,30,0
0,67,26,0
0,67,24,0
0,55,119,1
0,50,0,11
0,50,0,0
0,43,0,3
0,43,0,0
0,59,0,0
0,59,0,0
0,62,0,2
0,62,0,0
0,67,0,1
0,67,0,0
0,55,0,1
0,55,0,0
0,62,37,11
0,62,67,0
0,43,39,1
0,43,39,0
0,59,39,0
0,59,57,0
0,67,40,0
0,67,38,0
0,50,44,1
0,50,43,0
0,55,0,1
0,60,115,2
0,43,0,11
0,43,0,0
0,67,0,0
0,67,0,0
0,50,0,1
0,50,0,0
0,62,0,1
0,62,0,0
0,59,0,1
0,59,0,0
0,43,56,7
0,43,25,0
0,55,63,1
0,55,31,0
0,59,77,3
0,59,46,0
0,50,80,1
0,50,44,0
0,60,0,2
0,62,70,0
0,62,38,0
0,67,74,1
0,67,42,0
0,55,127,1
0,62,91,0
0,55,0,9
0,55,0,0
0,59,0,2
0,59,0,0
0,50,0,1
0,50,0,0
0,67,0,3
0,67,0,0
0,43,0,0
0,43,0,0
0,62,0,3
0,62,0,0
0,62,0,3
0,55,0,8
0,62,84,1
0,62,0,8
0,62,91,15
0,62,0,4
0,62,99,15
0,43,53,7
0,43,18,0
0,50,77,0
0,50,46,0
0,59,58,0
0,59,24,0
0,55,45,1
0,55,20,0
0,67,63,0
0,67,35,0
0,62,71,1
0,62,44,0
0,50,0,9
0,50,0,0
0,67,0,3
0,67,0,0
0,43,0,2
0,43,0,0
0,55,0,1
0,55,0,0
0,59,0,2
0,59,0,0
0,62,0,4
0,62,0,0
0,62,0,7
0,60,93,8
0,60,0,15
0,55,24,12
0,55,45,0
0,59,43,0
0,59,64,0
0,50,46,2
0,50,65,0
0,67,43,0
0,67,66,0
0,43,35,1
0,43,55,0
0,62,44,0
0,62,63,0
0,62,0,13
0,62,0,0
0,50,0,2
0,50,0,0
0,59,0,0
0,59,0,0
0,55,0,1
0,55,0,0
0,67,0,0
0,67,0,0
0,43,0,7
0,43,0,0
0,60,99,16
0,60,0,2
0,55,37,12
0,55,41,0
0,59,36,1
0,59,45,0
0,67,37,0
0,67,52,0
0,60,96,1
0,50,36,0
0,50,53,0
0,43,36,1
0,43,43,0
0,62,41,0
0,62,53,0
0,55,0,1
0,55,0,0
0,62,0,1
0,62,0,0
0,59,0,1
0,59,0,0
0,50,0,2
0,50,0,0
0,60,0,3
0,67,0,1
0,67,0,0
0,43,0,1
0,43,0,0
0,60,91,15
0,60,0,8
0,55,43,13
0,55,43,0
0,59,51,1
0,59,46,0
0,62,67,0
0,62,63,0
0,67,40,0
0,67,37,0
0,43,40,1
0,43,45,0
0,50,63,0
0,50,59,0
0,60,93,0
0,50,0,1
0,50,0,0
0,43,0,4
0,43,0,0
0,67,0,0
0,67,0,0
0,55,0,2
0,55,0,0
0,62,0,0
0,62,0,0
0,59,0,2
0,59,0,0
0,59,78,15
0,59,47,0
0,43,73,1
0,43,41,0
0,50,74,0
0,50,43,0
0,67,77,0
0,67,45,0
0,55,60,1
0,55,42,0
0,62,75,0
0,62,45,0
0,50,0,19
0,50,0,0
0,43,0,1
0,43,0,0
0,67,0,2
0,67,0,0
0,55,0,1
0,55,0,0
0,59,0,5
0,59,0,0
0,62,0,0
0,62,0,0
0,60,0,2
0,59,93,15
0,59,0,45
0,55,44,3
0,55,41,0
0,50,63,1
0,50,41,0
0,67,43,0
0,67,42,0
0,43,38,1
0,43,42,0
0,59,57,1
0,59,39,0
0,62,66,0
0,62,42,0
0,50,0,10
0,50,0,0
0,62,0,1
0,62,0,0
0,67,0,0
0,67,0,0
0,59,0,1
0,59,0,0
0,43,0,4
0,43,0,0
0,55,0,1
0,55,0,0
0,43,49,26
0,43,48,0
0,50,55,1
0,50,73,0
0,59,24,1
0,59,35,0
0,67,24,0
0,67,42,0
0,55,22,1
0,55,38,0
0,62,26,0
0,62,52,0
0,50,0,15
0,50,0,0
0,43,0,3
0,43,0,0
0,55,0,1
0,55,0,0
0,67,0,2
0,67,0,0
0,59,0,3
0,59,0,0
0,62,0,3
0,62,0,0
0,43,78,17
0,43,51,0
0,55,66,0
0,55,31,0
0,59,71,1
0,59,39,0
0,50,79,1
0,50,49,0
0,62,99,1
0,62,81,0
0,62,50,0
0,67,64,1
0,67,32,0
0,50,0,18
0,50,0,0
0,55,0,5
0,55,0,0
0,59,0,2
0,59,0,0
0,43,0,1
0,43,0,0
0,62,0,3
0,62,0,0
0,67,0,0
0,67,0,0
0,62,0,2
0,62,91,17
0,62,0,25
0,62,99,22
0,62,0,22
0,62,88,27
0,50,76,44
0,50,47,0
0,55,52,0
0,55,26,0
0,59,57,0
0,59,30,0
0,43,65,1
0,43,32,0
0,62,76,1
0,62,40,0
0,67,71,0
0,67,38,0
0,50,0,17
0,50,0,0
0,55,0,2
0,55,0,0
0,43,0,3
0,43,0,0
0,59,0,0
0,59,0,0
0,62,0,0
0,62,0,0
0,67,0,3
0,67,0,0
0,62,0,13
0,60,91,11
0,60,0,62
0,55,47,28
0,55,50,0
0,59,67,0
0,59,64,0
0,43,62,2
0,43,61,0
0,50,73,0
0,50,69,0
0,62,65,1
0,62,64,0
0,67,74,0
0,67,73,0
0,50,0,14
0,50,0,0
0,55,0,3
0,55,0,0
0,43,0,1
0,43,0,0
0,62,0,1
0,62,0,0
0,59,0,2
0,59,0,0
0,67,0,1
0,67,0,0
0,60,93,29
0,60,0,35
0,55,24,12
0,55,43,0
0,60,81,1
0,43,29,1
0,43,47,0
0,50,41,0
0,50,65,0
0,67,28,1
0,67,45,0
0,59,32,1
0,59,52,0
0,62,26,1
0,62,47,0
0,62,0,7
0,62,0,0
0,50,0,2
0,50,0,0
0,55,0,4
0,55,0,0
0,59,0,0
0,59,0,0
0,43,0,3
0,43,0,0
0,67,0,1
0,67,0,0
0,60,0,3
0,60,99,24
0,60,0,20
0,60,86,24
0,43,127,0
0,67,66,0
0,67,66,0
0,43,65,1
0,43,64,0
0,59,55,0
0,59,53,0
0,55,29,1
0,55,24,0
0,62,41,0
0,62,44,0
0,50,40,2
0,50,43,0
0,50,0,1
0,50,0,0
0,55,0,2
0,55,0,0
0,67,0,1
0,67,0,0
0,59,0,1
0,59,0,0
0,62,0,0
0,62,0,0
0,43,0,3
0,43,0,0
0,50,54,15
0,50,52,0
0,43,61,0
0,43,34,0
0,45,102,0
0,59,61,0
0,59,45,0
0,62,57,1
0,62,35,0
0,67,56,0
0,67,42,0
0,55,60,1
0,55,27,0
0,50,0,6
0,50,0,0
0,55,0,2
0,55,0,0
0,62,0,4
0,62,0,0
0,59,0,1
0,59,0,0
0,67,0,0
0,67,0,0
0,43,0,2
0,43,0,0
0,60,0,14
0,45,0,2
0,47,127,0
0,59,99,1
0,59,0,16
0,55,72,13
0,55,21,0
0,43,74,1
0,43,29,0
0,57,86,1
0,59,71,0
0,59,33,0
0,50,108,0
0,50,72,1
0,50,27,0
0,62,71,1
0,62,29,0
0,67,74,0
0,67,20,0
0,47,0,7
0,57,0,0
0,67,0,1
0,67,0,0
0,50,0,2
0,50,0,0
0,62,0,0
0,62,0,0
0,59,0,3
0,59,0,0
0,55,0,3
0,55,0,0
0,43,0,5
0,43,0,0
0,59,47,12
0,59,66,0
0,67,50,0
0,67,66,0
0,43,47,1
0,43,67,0
0,62,48,0
0,62,67,0
0,55,47,1
0,55,66,0
0,50,46,1
0,50,68,0
0,55,102,0
0,55,0,6
0,55,0,0
0,50,0,2
0,50,0,0
0,67,0,1
0,67,0,0
0,43,0,1
0,43,0,0
0,62,0,0
0,62,0,0
0,59,0,1
0,59,0,0
0,50,0,9
0,43,0,9
0,43,74,0
0,43,40,0
0,48,84,0
0,48,45,0
0,50,119,0
0,55,44,0
0,55,40,0
0,60,77,0
0,60,41,0
0,64,69,0
0,64,41,0
0,67,76,1
0,67,47,0
0,67,0,2
0,67,0,0
0,64,0,7
0,64,0,0
0,55,0,2
0,60,0,0
0,60,0,0
0,43,0,2
0,43,0,0
0,48,0,4
0,48,0,0
0,50,0,6
0,55,0,2
0,55,0,0
0,55,35,6
0,55,41,0
0,60,40,1
0,60,53,0
0,43,38,2
0,43,49,0
0,67,42,0
0,67,44,0
0,64,40,1
0,64,56,0
0,48,37,2
0,48,44,0
0,48,0,10
0,48,0,0
0,43,0,4
0,43,0,0
0,67,0,0
0,67,0,0
0,60,0,0
0,60,0,0
0,64,0,5
0,64,0,0
0,55,0,3
0,55,0,0
0,48,44,5
0,48,70,0
0,64,45,1
0,64,71,0
0,67,44,0
0,67,65,0
0,55,42,1
0,55,48,0
0,60,45,0
0,60,72,0
0,43,44,1
0,43,53,0
0,48,0,9
0,48,0,0
0,55,0,1
0,55,0,0
0,60,0,3
0,60,0,0
0,67,0,0
0,67,0,0
0,64,0,4
0,64,0,0
0,43,0,6
0,43,0,0
0,55,54,8
0,55,37,0
0,48,74,1
0,48,40,0
0,60,76,1
0,60,42,0
0,67,73,0
0,67,42,0
0,43,71,1
0,43,38,0
0,64,43,0
0,64,40,0
0,64,0,5
0,64,0,0
0,55,0,7
0,55,0,0
0,60,0,2
0,60,0,0
0,48,0,1
0,48,0,0
0,67,0,3
0,67,0,0
0,43,0,4
0,43,0,0
0,60,40,14
0,60,44,0
0,55,39,1
0,55,41,0
0,64,40,0
0,64,61,0
0,67,44,0
0,67,28,0
0,67,0,2
0,67,0,0
0,60,0,6
0,60,0,0
0,55,0,1
0,55,0,0
0,64,0,8
0,64,0,0
0,55,80,6
0,55,0,13
0,55,39,14
0,55,40,0
0,67,40,0
0,67,30,0
0,60,44,1
0,60,58,0
0,64,44,0
0,64,35,0
0,55,84,2
0,60,0,21
0,60,0,0
0,64,0,0
0,64,0,0
0,55,0,1
0,67,0,2
0,67,0,0
0,55,0,4
0,55,0,0
0,43,51,16
0,43,42,0
0,55,53,1
0,55,47,0
0,48,74,1
0,48,44,0
0,60,75,0
0,60,49,0
0,64,78,1
0,64,50,0
0,67,80,0
0,67,46,0
0,55,86,1
0,48,0,28
0,48,0,0
0,55,0,4
0,55,0,0
0,60,0,0
0,60,0,0
0,67,0,1
0,67,0,0
0,64,0,2
0,64,0,0
0,43,0,4
