track,note,velocity,time
1,71,100,0
1,71,100,4
1,69,100,4
1,66,100,4
1,71,100,4
1,71,100,1156
1,71,100,4
1,69,100,4
1,66,100,4
1,71,100,4
1,71,100,1156
1,71,100,4
1,69,100,4
1,66,100,4
1,71,100,4
1,71,100,4228
1,71,100,4
1,69,100,4
1,66,100,4
1,71,100,4
1,71,100,1156
1,71,100,4
1,69,100,4
1,66,100,4
1,71,100,4
1,71,100,1156
1,71,100,4
1,69,100,4
1,66,100,4
1,71,100,4
1,71,100,4228
1,72,100,4
1,71,100,4
1,72,100,4
1,71,100,4
1,69,100,4
1,69,100,4
1,67,100,4
1,67,100,580
1,69,100,4
1,71,100,4
1,72,100,4
1,71,100,4
1,72,100,4
1,71,100,4
1,69,100,4
1,67,100,4
1,67,100,964
1,69,100,4
1,71,100,4
1,72,100,4
1,71,100,4
1,72,100,4
1,71,100,4
1,71,100,4
1,76,100,388
1,71,100,4
1,69,100,4
1,64,100,0
1,67,100,4
1,64,100,4
1,67,100,4
1,71,100,4
1,69,100,4
1,67,100,4
1,69,100,4
1,71,100,1348
1,74,100,4
1,76,100,4
1,76,100,4
1,74,100,4
1,76,100,4
1,74,100,4
1,71,100,4
1,74,100,4
1,76,100,4
1,71,100,4
1,67,100,0
1,69,100,4
1,67,100,4
1,69,100,4
1,71,100,4
1,72,100,4
1,71,100,4
1,72,100,4
1,71,100,388
1,69,100,4
1,67,100,4
1,71,100,196
1,69,100,4
1,67,100,4
1,69,100,4
1,71,100,4
1,71,100,4
1,76,100,196
1,71,100,4
1,69,100,4
1,64,100,0
1,67,100,4
1,64,100,4
1,67,100,4
1,71,100,4
1,69,100,4
1,69,100,4
1,67,100,4
1,69,100,4
1,62,100,388
1,62,100,4
1,74,100,4
1,71,100,4
1,69,100,4
1,71,100,4
1,71,100,196
1,69,100,4
1,66,100,4
1,71,100,4
1,71,100,1156
1,71,100,768
1,69,100,4
1,66,100,4
1,71,100,4
1,71,100,1156
1,71,100,4
1,69,100,4
1,66,100,4
1,71,100,4
1,71,100,4228
1,72,100,4
1,71,100,4
1,72,100,4
1,71,100,4
1,69,100,4
1,69,100,4
1,67,100,4
1,67,100,580
1,69,100,4
1,71,100,4
1,72,100,4
1,71,100,4
1,72,100,4
1,71,100,4
1,69,100,4
1,67,100,4
1,67,100,964
1,69,100,4
1,71,100,4
1,72,100,4
1,71,100,4
1,72,100,4
1,71,100,4
1,71,100,4
1,76,100,388
1,71,100,4
1,69,100,4
1,64,100,0
1,67,100,4
1,64,100,4
1,67,100,4
1,71,100,4
1,69,100,4
1,67,100,4
1,69,100,4
1,71,100,1348
1,74,100,4
1,76,100,4
1,76,100,4
1,74,100,4
1,76,100,4
1,74,100,4
1,71,100,4
1,74,100,4
1,76,100,4
1,71,100,4
1,67,100,0
1,69,100,4
1,67,100,4
1,69,100,4
1,71,100,4
1,72,100,4
1,71,100,4
1,72,100,4
1,71,100,388
1,69,100,4
1,67,100,4
1,71,100,196
1,69,100,4
1,67,100,4
1,69,100,4
1,71,100,4
1,71,100,4
1,76,100,196
1,71,100,4
1,69,100,4
1,64,100,0
1,67,100,4
1,64,100,4
1,67,100,4
1,71,100,4
1,69,100,4
1,69,100,4
1,67,100,4
1,69,100,4
1,62,100,388
1,62,100,4
1,74,100,4
1,71,100,4
1,69,100,4
1,71,100,4
1,71,100,196
1,69,100,4
1,66,100,4
1,71,100,4
1,71,100,1156
1,71,100,768
1,69,100,4
1,66,100,4
1,71,100,4
1,71,100,1156
1,71,100,4
1,69,100,4
1,66,100,4
1,71,100,4
1,74,100,3844
1,74,100,4
1,75,100,4
1,72,100,4
1,71,100,4
1,71,100,4
1,69,100,4
1,67,100,4
1,64,100,196
1,67,100,4
1,76,100,4
1,74,100,4
1,67,100,388
1,69,100,4
1,71,100,4
1,72,100,4
1,71,100,4
1,69,100,4
1,71,100,4
1,72,100,4
1,71,100,4
1,71,100,4
1,72,100,4
1,71,100,196
1,69,100,4
1,69,100,4
1,67,100,4
1,64,100,388
1,67,100,4
1,76,100,4
1,74,100,4
1,76,100,580
1,77,100,4
1,77,100,4
1,76,100,4
1,72,100,0
1,74,100,4
1,72,100,4
1,74,100,4
1,74,100,1540
1,74,100,4
1,71,100,4
1,69,100,4
1,71,100,4
1,71,100,4
1,69,100,4
1,66,100,4
1,71,100,4
1,71,100,1156
1,71,100,768
1,69,100,4
1,66,100,4
1,71,100,4
1,71,100,1156
1,71,100,4
1,69,100,4
1,66,100,4
1,71,100,4
1,74,100,4036
1,71,100,4
1,72,100,4
1,71,100,4
1,72,100,4
1,71,100,4
1,69,100,4
1,69,100,4
1,67,100,4
1,67,100,580
1,69,100,4
1,71,100,4
1,72,100,4
1,71,100,4
1,72,100,4
1,71,100,4
1,69,100,4
1,67,100,4
1,67,100,964
1,69,100,4
1,71,100,4
1,72,100,4
1,71,100,4
1,72,100,4
1,71,100,4
1,71,100,4
1,76,100,388
1,71,100,4
1,69,100,4
1,64,100,0
1,67,100,4
1,64,100,4
1,67,100,4
1,71,100,4
1,69,100,4
1,67,100,4
1,69,100,4
1,71,100,1348
1,74,100,4
1,76,100,4
1,76,100,4
1,74,100,4
1,76,100,4
1,74,100,4
1,71,100,4
1,74,100,4
1,76,100,4
1,71,100,4
1,67,100,0
1,69,100,4
1,67,100,4
1,69,100,4
1,71,100,4
1,72,100,4
1,71,100,4
1,72,100,4
1,71,100,388
1,69,100,4
1,67,100,4
1,71,100,196
1,69,100,4
1,67,100,4
1,69,100,4
1,71,100,4
1,71,100,4
1,76,100,196
1,71,100,4
1,69,100,4
1,64,100,0
1,67,100,4
1,64,100,4
1,67,100,4
1,71,100,4
1,69,100,4
1,69,100,4
1,67,100,4
1,69,100,4
1,62,100,388
1,62,100,4
1,74,100,4
1,71,100,4
1,69,100,4
1,71,100,4
1,71,100,196
1,69,100,4
1,66,100,4
1,71,100,4
1,71,100,1156
1,71,100,4
1,69,100,4
1,66,100,4
1,71,100,4
1,71,100,1156
1,71,100,4
1,69,100,4
1,66,100,4
1,71,100,4
1,71,100,4228
1,71,95,4
1,69,94,4
1,66,92,4
1,71,91,4
1,71,78,1156
1,71,73,4
1,69,71,4
1,66,70,4
1,71,69,4
1,71,56,1156
1,71,50,4
1,69,49,4
1,66,48,4
1,71,46,4
2,64,100,0
2,60,100,0
2,64,100,4
2,60,100,0
2,66,100,4
2,62,100,0
2,67,100,196
2,64,100,0
2,67,100,4
2,64,100,0
2,71,100,0
2,71,100,4
2,72,100,4
2,71,100,4
2,67,100,4
2,64,100,4
2,71,100,4
2,69,100,0
2,66,100,0
2,62,100,0
2,64,100,4
2,60,100,0
2,64,100,4
2,60,100,0
2,66,100,4
2,62,100,0
2,67,100,196
2,64,100,0
2,67,100,4
2,64,100,0
2,71,100,0
2,71,100,4
2,72,100,4
2,71,100,4
2,67,100,4
2,64,100,4
2,71,100,4
2,69,100,0
2,66,100,0
2,62,100,0
2,64,100,4
2,60,100,0
2,64,100,4
2,60,100,0
2,66,100,4
2,62,100,0
2,67,100,196
2,64,100,0
2,71,100,4
2,67,100,0
2,64,100,0
2,71,100,4
2,67,100,0
2,64,100,0
2,71,100,4
2,67,100,0
2,64,100,0
2,71,100,4
2,67,100,0
2,64,100,0
2,67,100,4
2,64,100,0
2,60,100,0
2,57,100,0
2,67,100,4
2,64,100,0
2,60,100,0
2,57,100,0
2,67,100,4
2,64,100,0
2,60,100,0
2,57,100,0
2,67,100,4
2,64,100,0
2,60,100,0
2,57,100,0
2,66,100,4
2,62,100,0
2,57,100,0
2,66,100,4
2,62,100,0
2,57,100,0
2,67,100,4
2,62,100,0
2,57,100,0
2,66,100,4
2,62,100,0
2,57,100,0
2,64,100,196
2,60,100,0
2,64,100,4
2,60,100,0
2,66,100,4
2,62,100,0
2,67,100,196
2,64,100,0
2,67,100,4
2,64,100,0
2,71,100,0
2,71,100,4
2,72,100,4
2,71,100,4
2,67,100,4
2,64,100,4
2,71,100,4
2,69,100,0
2,66,100,0
2,62,100,0
2,64,100,4
2,60,100,0
2,64,100,4
2,60,100,0
2,66,100,4
2,62,100,0
2,67,100,196
2,64,100,0
2,67,100,4
2,64,100,0
2,71,100,0
2,71,100,4
2,72,100,4
2,71,100,4
2,67,100,4
2,64,100,4
2,71,100,4
2,69,100,0
2,66,100,0
2,62,100,0
2,64,100,4
2,60,100,0
2,64,100,4
2,60,100,0
2,66,100,4
2,62,100,0
2,67,100,196
2,64,100,0
2,71,100,4
2,67,100,0
2,64,100,0
2,71,100,4
2,67,100,0
2,64,100,0
2,71,100,4
2,67,100,0
2,64,100,0
2,71,100,4
2,67,100,0
2,64,100,0
2,67,100,4
2,64,100,0
2,60,100,0
2,57,100,0
2,67,100,4
2,64,100,0
2,60,100,0
2,57,100,0
2,67,100,4
2,64,100,0
2,60,100,0
2,57,100,0
2,67,100,4
2,64,100,0
2,60,100,0
2,57,100,0
2,66,100,4
2,62,100,0
2,57,100,0
2,66,100,4
2,62,100,0
2,57,100,0
2,67,100,4
2,62,100,0
2,57,100,0
2,66,100,4
2,62,100,0
2,57,100,0
2,67,100,4
2,69,100,4
2,64,100,4
2,60,100,0
2,66,100,4
2,62,100,0
2,64,100,4
2,59,100,0
2,64,100,196
2,60,100,0
2,66,100,4
2,62,100,0
2,64,100,4
2,59,100,0
2,64,100,196
2,60,100,0
2,66,100,4
2,62,100,0
2,67,100,4
2,64,100,0
2,59,100,196
2,67,100,4
2,64,100,0
2,60,100,0
2,67,100,196
2,64,100,0
2,60,100,0
2,66,100,196
2,62,100,0
2,57,100,0
2,66,100,4
2,62,100,0
2,57,100,0
2,66,100,4
2,62,100,0
2,57,100,0
2,66,100,4
2,62,100,0
2,71,100,4
2,67,100,0
2,71,100,4
2,66,100,0
2,71,100,196
2,67,100,0
2,64,100,4
2,66,100,196
2,63,100,0
2,64,100,4
2,60,100,0
2,64,100,4
2,60,100,0
2,64,100,4
2,60,100,0
2,64,100,4
2,60,100,0
2,64,100,4
2,60,100,0
2,66,100,4
2,63,100,0
2,67,100,196
2,59,100,4
2,67,100,4
2,64,100,0
2,60,100,0
2,67,100,196
2,64,100,0
2,60,100,0
2,66,100,4
2,62,100,0
2,57,100,0
2,66,100,388
2,62,100,0
2,64,100,4
2,60,100,0
2,64,100,4
2,60,100,0
2,66,100,4
2,62,100,0
2,67,100,196
2,64,100,0
2,67,100,4
2,64,100,0
2,71,100,0
2,71,100,4
2,72,100,4
2,71,100,4
2,67,100,4
2,64,100,4
2,71,100,4
2,69,100,0
2,66,100,0
2,62,100,0
2,64,100,4
2,60,100,0
2,64,100,4
2,60,100,0
2,66,100,4
2,62,100,0
2,67,100,196
2,64,100,0
2,67,100,4
2,64,100,0
2,71,100,0
2,71,100,4
2,72,100,4
2,71,100,4
2,67,100,4
2,64,100,4
2,71,100,4
2,69,100,0
2,66,100,0
2,62,100,0
2,64,100,4
2,60,100,0
2,64,100,4
2,60,100,0
2,66,100,4
2,62,100,0
2,67,100,196
2,64,100,0
2,71,100,4
2,67,100,0
2,64,100,0
2,71,100,4
2,67,100,0
2,64,100,0
2,71,100,4
2,67,100,0
2,64,100,0
2,71,100,4
2,67,100,0
2,64,100,0
2,67,100,4
2,64,100,0
2,60,100,0
2,57,100,0
2,67,100,4
2,64,100,0
2,60,100,0
2,57,100,0
2,67,100,4
2,64,100,0
2,60,100,0
2,57,100,0
2,67,100,4
2,64,100,0
2,60,100,0
2,57,100,0
2,66,100,4
2,62,100,0
2,57,100,0
2,66,100,4
2,62,100,0
2,57,100,0
2,67,100,4
2,62,100,0
2,57,100,0
2,66,100,4
2,62,100,0
2,57,100,0
2,74,100,4
2,64,100,4
2,60,100,0
2,66,100,4
2,62,100,0
2,64,100,4
2,59,100,0
2,64,100,196
2,60,100,0
2,66,100,4
2,62,100,0
2,64,100,4
2,59,100,0
2,64,100,196
2,60,100,0
2,66,100,4
2,62,100,0
2,67,100,4
2,64,100,0
2,59,100,196
2,67,100,4
2,64,100,0
2,60,100,0
2,67,100,196
2,64,100,0
2,60,100,0
2,66,100,196
2,62,100,0
2,57,100,0
2,66,100,4
2,62,100,0
2,57,100,0
2,66,100,4
2,62,100,0
2,57,100,0
2,66,100,4
2,62,100,0
2,71,100,4
2,67,100,0
2,71,100,4
2,66,100,0
2,71,100,196
2,67,100,0
2,64,100,4
2,66,100,196
2,63,100,0
2,64,100,4
2,60,100,0
2,64,100,4
2,60,100,0
2,64,100,4
2,60,100,0
2,64,100,4
2,60,100,0
2,64,100,4
2,60,100,0
2,66,100,4
2,63,100,0
2,67,100,196
2,59,100,4
2,67,100,4
2,64,100,0
2,60,100,0
2,67,100,196
2,64,100,0
2,60,100,0
2,66,100,4
2,62,100,0
2,57,100,0
2,66,100,388
2,62,100,0
2,64,100,4
2,60,100,0
2,64,100,4
2,60,100,0
2,66,100,4
2,62,100,0
2,67,100,196
2,64,100,0
2,67,100,4
2,64,100,0
2,71,100,0
2,71,100,4
2,72,100,4
2,71,100,4
2,67,100,4
2,64,100,4
2,71,100,4
2,69,100,0
2,66,100,0
2,62,100,0
2,64,100,4
2,60,100,0
2,64,100,4
2,60,100,0
2,66,100,4
2,62,100,0
2,67,100,196
2,64,100,0
2,67,100,4
2,64,100,0
2,71,100,0
2,71,100,4
2,72,100,4
2,71,100,4
2,67,100,4
2,64,100,4
2,71,100,4
2,69,100,0
2,66,100,0
2,62,100,0
2,64,100,4
2,60,100,0
2,64,100,4
2,60,100,0
2,66,100,4
2,62,100,0
2,67,100,196
2,64,100,0
2,71,100,4
2,67,100,0
2,64,100,0
2,71,100,4
2,67,100,0
2,64,100,0
2,71,100,4
2,67,100,0
2,64,100,0
2,71,100,4
2,67,100,0
2,64,100,0
2,67,100,4
2,64,100,0
2,60,100,0
2,57,100,0
2,67,100,4
2,64,100,0
2,60,100,0
2,57,100,0
2,67,100,4
2,64,100,0
2,60,100,0
2,57,100,0
2,67,100,4
2,64,100,0
2,60,100,0
2,57,100,0
2,66,100,4
2,62,100,0
2,57,100,0
2,66,100,4
2,62,100,0
2,57,100,0
2,66,100,4
2,62,100,0
2,57,100,0
2,69,100,4
2,66,100,0
2,71,100,4
2,66,100,0
2,66,100,4
2,63,100,0
2,64,100,4
2,60,100,0
2,64,100,4
2,60,100,0
2,71,100,580
2,67,100,0
2,66,100,388
2,62,100,0
2,69,100,4
2,66,100,0
2,66,100,196
2,63,100,0
2,64,100,4
2,60,100,0
2,71,100,772
2,67,100,0
2,74,100,4
2,69,100,0
2,67,100,4
2,69,100,4
2,67,100,0
2,65,100,4
2,62,100,0
2,57,100,0
2,64,100,4
2,62,100,0
2,57,100,0
2,65,100,4
2,62,100,0
2,57,100,0
2,64,100,4
2,62,100,0
2,57,100,0
2,66,100,4
2,62,100,0
2,57,100,0
2,66,100,196
2,62,100,0
2,64,100,4
2,60,100,0
2,64,100,4
2,60,100,0
2,66,100,4
2,62,100,0
2,67,100,196
2,64,100,0
2,67,100,4
2,64,100,0
2,71,100,0
2,71,100,4
2,72,100,4
2,71,100,4
2,67,100,4
2,64,100,4
2,71,100,4
2,69,100,0
2,66,100,0
2,62,100,0
2,64,100,4
2,60,100,0
2,64,100,4
2,60,100,0
2,66,100,4
2,62,100,0
2,67,100,196
2,64,100,0
2,67,100,4
2,64,100,0
2,71,100,0
2,71,100,4
2,72,100,4
2,71,100,4
2,67,100,4
2,64,100,4
2,71,100,4
2,69,100,0
2,66,100,0
2,62,100,0
2,64,100,4
2,60,100,0
2,64,100,4
2,60,100,0
2,66,100,4
2,62,100,0
2,67,100,196
2,64,100,0
2,71,100,4
2,67,100,0
2,64,100,0
2,71,100,4
2,67,100,0
2,64,100,0
2,71,100,4
2,67,100,0
2,64,100,0
2,71,100,4
2,67,100,0
2,64,100,0
2,67,100,4
2,64,100,0
2,60,100,0
2,57,100,0
2,67,100,4
2,64,100,0
2,60,100,0
2,57,100,0
2,67,100,4
2,64,100,0
2,60,100,0
2,57,100,0
