track,note,velocity,time
0,65,90,0
0,68,90,0
0,72,90,0
0,75,90,0
0,79,90,0
0,51,34,0
0,51,36,17
0,51,39,3
0,51,42,36
0,51,44,16
0,51,47,30
0,51,49,26
0,51,52,10
0,51,54,27
0,51,57,18
0,51,59,28
0,51,62,28
0,51,64,4
0,40,103,11
0,51,67,18
0,40,107,0
0,51,69,13
0,51,72,31
0,51,74,22
0,40,92,0
0,51,77,4
0,51,79,25
0,51,81,12
0,51,84,31
0,40,69,1
0,42,69,0
0,40,106,0
0,39,69,1
0,44,69,4
0,46,69,2
0,51,69,3
0,51,86,2
0,52,69,5
0,47,69,1
0,49,69,5
0,54,69,0
0,51,69,4
0,51,89,2
0,56,69,1
0,40,103,4
0,52,69,1
0,54,69,4
0,51,91,0
0,56,69,5
0,40,110,0
0,58,69,6
0,51,94,4
0,59,69,7
0,61,69,7
0,51,97,1
0,63,69,5
0,64,69,8
0,66,69,8
0,68,69,1
0,70,69,7
0,39,126,2
0,82,71,0
0,36,112,0
0,49,82,0
0,94,65,4
0,42,66,59
0,74,88,27
0,77,90,0
0,70,89,1
0,51,126,2
0,42,83,0
0,65,84,1
0,82,48,4
0,80,22,20
0,78,56,6
0,76,62,10
0,42,58,4
0,75,60,7
0,73,71,8
0,39,126,5
0,40,117,0
0,42,84,0
0,71,78,3
0,82,68,4
0,80,72,5
0,66,71,3
0,70,84,5
0,74,97,0
0,77,90,0
0,64,80,2
0,65,81,0
0,75,72,7
0,42,61,0
0,73,67,6
0,59,60,9
0,42,82,1
0,51,126,1
0,34,126,13
0,42,63,0
0,70,87,22
0,36,112,0
0,42,87,0
0,67,79,1
0,79,83,0
0,39,126,2
0,75,90,0
0,38,86,60
0,42,63,0
0,51,126,4
0,42,88,0
0,67,83,0
0,79,83,1
0,70,87,1
0,75,96,1
0,39,126,16
0,42,65,0
0,43,126,2
0,40,117,0
0,42,89,0
0,42,71,6
0,70,87,10
0,79,88,1
0,67,82,2
0,75,91,0
0,43,126,3
0,46,88,0
0,36,126,4
0,36,126,6
0,36,112,0
0,42,82,0
0,42,66,63
0,48,126,3
0,42,83,0
0,74,80,1
0,60,90,1
0,70,83,0
0,77,91,1
0,42,58,25
0,36,126,3
0,40,117,0
0,42,84,0
0,60,95,38
0,70,89,2
0,74,90,0
0,77,89,1
0,42,61,2
0,42,82,7
0,48,126,1
0,42,63,62
0,67,90,14
0,72,94,0
0,75,90,0
0,55,87,1
0,36,112,1
0,42,87,0
0,36,126,2
0,38,69,8
0,42,63,0
0,48,126,31
0,42,88,0
0,72,87,2
0,75,86,0
0,67,87,1
0,55,85,1
0,42,65,21
0,36,126,31
0,40,117,0
0,42,89,0
0,42,71,15
0,72,93,14
0,67,87,1
0,75,90,2
0,55,88,1
0,38,69,7
0,42,88,0
0,36,126,1
0,29,126,7
0,38,78,0
0,42,64,0
0,29,126,3
0,36,112,0
0,42,82,0
0,42,66,63
0,79,76,27
0,72,81,0
0,75,88,1
0,58,76,1
0,41,126,1
0,42,83,0
0,42,58,25
0,29,126,31
0,40,117,0
0,42,84,0
0,79,86,32
0,72,86,1
0,75,88,3
0,58,84,3
0,42,61,10
0,42,82,7
0,41,126,1
0,42,63,3
0,60,96,20
0,77,89,0
0,72,86,1
0,80,85,2
0,36,112,4
0,42,87,0
0,29,126,2
0,38,86,8
0,42,63,0
0,41,126,31
0,42,88,0
0,60,89,4
0,77,89,1
0,72,86,3
0,80,90,0
0,42,65,17
0,29,126,1
0,40,117,0
0,42,89,0
0,42,71,5
0,77,94,3
0,72,95,2
0,60,90,2
0,80,91,0
0,42,88,0
0,41,126,1
0,33,126,7
0,42,64,0
0,34,126,3
0,36,112,0
0,42,82,0
0,42,66,63
0,46,126,3
0,56,93,0
0,72,93,0
0,75,93,0
0,79,93,0
0,42,83,0
0,42,58,25
0,34,126,31
0,40,117,0
0,42,84,0
0,79,93,24
0,72,93,1
0,56,93,2
0,75,93,1
0,42,61,3
0,42,82,31
0,46,126,1
0,42,63,3
0,68,93,2
0,74,93,1
0,77,93,0
0,56,93,6
0,84,71,1
0,36,112,0
0,42,87,0
0,34,126,2
0,38,69,61
0,42,63,0
0,46,126,3
0,42,88,0
0,74,93,24
0,77,93,0
0,68,93,1
0,56,93,1
0,42,65,25
0,36,126,9
0,40,117,0
0,42,89,0
0,42,71,18
0,68,93,11
0,74,93,0
0,77,93,0
0,56,93,1
0,38,69,7
0,42,88,0
0,48,126,1
0,38,78,62
0,42,64,0
0,39,126,2
0,82,71,0
0,36,112,0
0,55,91,0
0,42,66,63
0,74,88,27
0,77,90,0
0,70,89,1
0,51,126,2
0,42,83,0
0,65,89,0
0,65,84,1
0,42,58,25
0,39,126,19
0,40,117,0
0,42,84,0
0,70,84,42
0,74,97,0
0,77,90,0
0,65,81,2
0,42,61,14
0,42,82,7
0,51,126,1
0,75,107,2
0,34,126,13
0,42,63,0
0,70,87,3
0,36,112,0
0,42,87,0
0,67,89,0
0,67,79,1
0,79,83,0
0,74,110,1
0,39,126,1
0,75,90,0
0,38,86,28
0,42,63,0
0,51,126,4
0,42,88,0
0,67,83,0
0,79,83,1
0,70,87,1
0,75,96,1
0,75,106,13
0,39,126,3
0,42,65,0
0,43,126,2
0,40,117,0
0,42,89,0
0,42,71,6
0,70,87,10
0,79,88,1
0,67,82,2
0,75,91,0
0,43,126,3
0,46,88,0
0,74,113,4
0,36,126,4
0,36,126,6
0,36,112,0
0,42,82,0
0,75,113,2
0,42,66,16
0,48,126,3
0,67,94,0
0,75,82,0
0,82,91,0
0,86,99,0
0,42,83,0
0,42,58,25
0,36,126,31
0,40,117,0
0,42,84,0
0,75,80,28
0,82,93,3
0,86,99,1
0,67,96,1
0,42,61,11
0,42,82,7
0,48,126,1
0,42,63,8
0,62,93,1
0,63,82,0
0,79,91,0
0,82,90,0
0,36,112,0
0,42,87,0
0,36,126,2
0,38,69,8
0,42,63,0
0,48,126,31
0,42,88,0
0,79,88,9
0,82,88,1
0,62,99,1
0,63,96,1
0,42,65,13
0,36,126,31
0,40,117,0
0,42,89,0
0,42,71,15
0,62,86,7
0,63,83,0
0,79,99,0
0,82,96,0
0,38,69,0
0,42,88,0
0,36,126,1
0,29,126,7
0,38,78,0
0,42,64,0
0,29,126,3
0,36,112,0
0,42,82,0
0,42,66,63
0,79,86,27
0,72,91,0
0,75,98,1
0,58,86,1
0,41,126,1
0,42,83,0
0,67,89,0
0,42,58,25
0,29,126,31
0,40,117,0
0,42,84,0
0,79,96,33
0,72,96,1
0,75,98,3
0,42,61,13
0,75,107,7
0,42,82,0
0,41,126,1
0,42,63,3
0,73,104,1
0,56,87,6
0,74,107,1
0,60,107,1
0,36,112,0
0,42,87,0
0,63,89,0
0,68,83,1
0,72,87,0
0,29,126,2
0,75,85,1
0,38,86,8
0,42,63,0
0,41,126,2
0,63,110,0
0,42,88,0
0,68,86,1
0,72,89,0
0,75,83,2
0,72,104,6
0,42,65,13
0,29,126,2
0,71,74,0
0,40,117,0
0,42,89,0
0,72,110,3
0,42,71,7
0,56,88,1
0,72,93,0
0,68,93,2
0,75,86,0
0,42,88,4
0,72,115,1
0,41,126,1
0,70,103,1
0,33,126,7
0,42,64,0
0,56,69,2
0,63,79,3
0,34,126,3
0,58,127,0
0,68,127,0
0,75,127,0
0,79,127,0
0,36,112,0
0,42,82,0
0,67,80,9
0,42,66,16
0,42,83,0
0,42,58,16
0,40,117,0
0,42,84,0
0,42,61,16
0,42,82,0
0,46,126,1
0,42,63,16
0,84,71,10
0,36,112,0
0,42,87,0
0,38,69,16
0,42,63,0
0,42,88,0
0,72,103,1
0,42,65,15
0,41,127,3
0,66,77,25
0,40,117,0
0,42,89,0
0,67,100,1
0,34,124,4
0,65,101,2
0,42,71,1
0,38,69,0
0,40,107,0
0,42,88,0
0,63,115,1
0,38,78,15
0,42,64,0
0,82,75,0
0,63,115,0
0,62,64,0
0,65,64,0
0,36,112,0
0,49,82,0
0,62,88,0
0,58,65,1
0,65,72,0
0,39,127,2
0,42,66,16
0,42,83,0
0,42,58,16
0,67,107,0
0,40,117,0
0,42,84,0
0,42,61,16
0,63,64,0
0,67,64,0
0,42,82,0
0,34,127,1
0,70,104,0
0,58,60,1
0,67,73,0
0,63,63,1
0,42,63,16
0,36,112,0
0,42,87,0
0,39,127,0
0,70,105,1
0,38,86,16
0,42,63,0
0,42,88,0
0,67,101,1
0,34,127,16
0,42,65,0
0,41,127,7
0,40,117,0
0,42,89,0
0,70,110,1
0,42,71,16
0,43,127,2
0,67,111,0
0,46,88,0
0,36,127,6
0,36,127,5
0,74,104,0
0,50,64,0
0,62,64,0
0,65,64,0
0,36,112,0
0,42,82,0
0,58,68,0
0,62,73,0
0,65,73,0
0,42,66,16
0,42,83,0
0,75,108,1
0,42,58,4
0,40,117,0
0,42,84,0
0,42,61,16
0,31,127,31
0,42,82,0
0,42,63,16
0,36,127,5
0,36,112,0
0,42,87,0
0,38,69,16
0,42,63,0
0,72,111,0
0,42,88,0
0,31,127,16
0,42,65,0
0,74,111,20
0,31,127,1
0,40,117,0
0,42,89,0
0,42,71,16
0,38,69,0
0,42,88,0
0,75,103,1
0,38,78,11
0,42,64,0
0,32,126,6
0,56,64,0
0,63,64,0
0,67,64,0
0,36,112,0
0,42,82,0
0,56,59,0
0,63,67,0
0,67,81,0
0,42,66,63
0,42,83,16
0,77,113,1
0,42,58,62
0,40,117,10
0,42,84,0
0,75,104,2
0,44,116,22
0,42,61,0
0,39,126,5
0,74,103,0
0,42,82,0
0,42,63,33
0,32,126,7
0,72,104,0
0,36,112,0
0,42,87,0
0,38,86,63
0,42,63,0
0,42,88,19
0,67,97,2
0,42,65,37
0,40,117,7
0,42,89,0
0,72,104,1
0,42,71,32
0,32,126,2
0,42,88,0
0,70,105,1
0,32,126,1
0,42,64,0
0,34,126,3
0,36,112,0
0,42,82,0
0,56,70,0
0,60,77,0
0,63,78,0
0,67,75,0
0,67,71,3
0,63,66,1
0,42,66,59
0,42,83,1
0,42,58,2
0,40,117,31
0,42,84,0
0,42,61,60
0,41,126,1
0,46,126,3
0,42,82,0
0,65,67,1
0,65,83,0
0,60,69,1
0,42,63,61
0,34,126,10
0,36,112,0
0,42,87,0
0,38,69,63
0,42,63,0
0,42,88,31
0,42,65,31
0,46,127,3
0,40,117,0
0,42,89,0
0,42,71,32
0,34,122,8
0,38,69,0
0,42,88,0
0,36,124,8
0,38,78,0
0,42,64,0
0,62,64,5
0,65,64,0
0,36,112,0
0,42,82,0
0,62,88,0
0,58,65,1
0,65,72,0
0,39,127,2
0,42,66,60
0,42,83,31
0,42,58,63
0,67,107,31
0,40,117,0
0,42,84,0
0,42,61,35
0,63,64,2
0,67,64,0
0,42,82,0
0,34,127,1
0,70,104,0
0,58,60,1
0,67,73,0
0,63,63,1
0,42,63,36
0,36,112,31
0,42,87,0
0,39,127,0
0,70,105,1
0,38,86,62
0,42,63,0
0,42,88,12
0,67,101,1
0,39,127,31
0,42,65,0
0,34,127,7
0,40,117,0
0,42,89,0
0,70,110,1
0,42,71,63
0,35,127,5
0,67,111,0
0,42,88,0
0,77,83,25
0,31,127,6
0,42,64,0
0,65,73,4
0,36,127,1
0,77,104,0
0,50,64,0
0,62,64,0
0,65,64,0
0,36,112,0
0,42,82,0
0,62,68,0
0,74,74,0
0,82,75,0
0,42,66,63
0,42,83,1
0,79,108,1
0,42,58,62
0,40,117,3
0,42,84,0
0,36,127,7
0,42,61,0
0,31,127,21
0,42,82,0
0,42,63,63
0,36,127,5
0,36,112,0
0,42,87,0
0,38,69,2
0,42,63,0
0,75,111,31
0,42,88,0
0,42,65,34
0,77,111,10
0,31,127,1
0,40,117,0
0,42,89,0
0,42,71,29
0,38,69,31
0,42,88,0
0,79,110,1
0,38,78,62
0,42,64,0
0,32,126,6
0,56,64,0
0,63,64,0
0,67,64,0
0,36,112,0
0,42,82,0
0,56,59,0
0,63,67,0
0,67,81,0
0,42,66,63
0,42,83,16
0,80,113,1
0,42,58,62
0,40,117,10
0,42,84,0
0,79,104,2
0,44,116,22
0,42,61,0
0,39,126,5
0,80,112,0
0,42,82,0
0,42,63,33
0,44,126,7
0,79,104,0
0,36,112,0
0,42,87,0
0,38,86,63
0,42,63,0
0,42,88,19
0,77,110,2
0,42,65,32
0,40,117,31
0,42,89,0
0,75,106,4
0,42,71,59
0,44,126,14
0,42,88,0
0,77,111,1
0,32,126,1
0,42,64,0
0,34,126,3
0,36,112,0
0,42,82,0
0,56,70,0
0,60,77,0
0,63,78,0
0,67,75,0
0,67,71,3
0,63,66,1
0,42,66,59
0,42,83,31
0,42,58,11
0,40,117,31
0,42,84,0
0,42,61,60
0,41,126,1
0,46,126,3
0,42,82,0
0,65,67,1
0,65,83,0
0,60,69,1
0,70,108,48
0,41,126,9
0,42,63,0
0,75,108,6
0,34,126,1
0,36,112,0
0,42,87,0
0,38,69,63
0,42,63,0
0,77,108,10
0,42,88,1
0,42,65,26
0,36,126,3
0,79,108,0
0,40,117,0
0,42,89,0
0,42,71,8
0,38,69,31
0,42,88,0
0,79,108,4
0,34,126,6
0,38,78,0
0,42,64,0
0,62,64,6
0,65,64,0
0,36,112,0
0,49,82,0
0,62,88,0
0,58,65,1
0,65,72,0
0,39,127,2
0,42,66,3
0,42,83,31
0,65,105,3
0,42,58,60
0,40,117,31
0,42,84,0
0,63,104,6
0,42,61,35
0,63,64,2
0,67,64,0
0,42,82,0
0,34,127,1
0,58,60,1
0,67,73,0
0,63,63,1
0,70,105,1
0,42,63,58
0,36,112,7
0,42,87,0
0,39,127,1
0,38,86,63
0,42,63,0
0,75,114,28
0,42,88,3
0,42,65,63
0,77,105,8
0,40,117,2
0,42,89,0
0,42,71,38
0,79,107,29
0,46,88,2
0,36,127,5
0,50,64,0
0,62,64,0
0,65,64,0
0,36,112,0
0,42,82,0
0,58,68,0
0,62,73,0
0,65,73,0
0,42,66,63
0,80,109,1
0,42,83,0
0,42,58,33
0,79,110,31
0,40,117,0
0,42,84,0
0,36,127,25
0,42,61,0
0,31,127,5
0,42,82,0
0,80,104,1
0,42,63,29
0,36,127,5
0,36,112,0
0,42,87,0
0,79,115,3
0,38,69,60
0,42,63,0
0,42,88,5
0,77,110,2
0,42,65,25
0,40,117,31
0,42,89,0
0,75,105,1
0,42,71,62
0,36,127,6
0,38,69,0
0,42,88,0
0,39,108,11
0,38,78,0
0,42,64,0
0,32,126,4
0,56,64,0
0,63,64,0
0,67,64,0
0,36,112,0
0,42,82,0
0,56,59,0
0,63,67,0
0,67,81,0
0,72,104,37
0,42,66,16
0,70,94,13
0,65,103,9
0,42,83,4
0,42,58,63
0,63,88,9
0,40,117,2
0,42,84,0
0,39,116,58
0,42,61,0
0,44,126,5
0,42,82,0
0,58,84,1
0,42,63,62
0,32,126,7
0,36,112,0
0,42,87,0
0,38,86,63
0,42,63,0
0,75,107,28
0,42,88,3
0,42,65,28
0,40,117,31
0,42,89,0
0,77,107,1
0,42,71,34
0,32,126,14
0,42,88,0
0,79,107,1
0,32,126,1
0,42,64,0
0,34,126,3
0,36,112,0
0,42,82,0
0,56,70,0
0,60,77,0
0,63,78,0
0,67,75,0
0,67,71,3
0,63,66,1
0,42,66,59
0,42,83,22
0,80,107,1
0,42,58,10
0,40,117,31
0,42,84,0
0,79,107,0
0,42,61,18
0,41,126,1
0,46,126,3
0,42,82,0
0,65,67,1
0,65,83,0
0,77,107,1
0,60,69,0
0,42,63,28
0,67,81,5
0,46,126,5
0,36,112,0
0,42,87,0
0,75,107,3
0,38,69,60
0,42,63,0
0,42,88,6
0,82,108,1
0,41,126,9
0,42,65,0
0,68,91,1
0,34,126,4
0,40,117,2
0,42,89,0
0,82,112,1
0,42,71,62
0,41,126,12
0,38,69,0
0,42,88,0
0,34,126,63
0,38,78,0
0,42,64,0
0,39,124,1
0,36,112,0
0,42,82,0
0,62,92,0
0,58,99,1
0,65,92,0
