track,note,velocity,time
3,38,80,8064
3,42,80,16
3,38,80,24
3,38,80,24
3,35,80,32
3,30,80,24
3,38,80,24
3,40,80,8
3,35,80,0
3,30,80,24
3,33,80,24
3,45,96,48
3,45,100,32
3,40,100,8
3,45,100,24
3,26,100,24
3,38,100,32
3,37,100,24
3,35,100,16
3,30,100,24
3,28,100,8
3,33,100,16
3,28,90,16
3,33,100,8
3,28,94,8
3,33,100,24
3,38,100,16
3,33,100,24
3,38,100,8
3,38,100,144
3,38,100,72
3,40,100,24
3,42,100,8
3,42,100,72
3,42,100,48
3,38,100,24
3,33,100,16
3,38,100,0
3,38,100,144
3,38,100,72
3,38,100,72
3,38,100,72
3,38,100,48
3,38,100,144
3,38,100,24
3,38,100,24
3,37,100,8
3,37,100,24
3,37,100,72
3,37,100,144
3,25,100,48
3,29,100,32
3,30,100,16
3,30,100,24
3,30,100,48
3,42,100,4
3,45,100,8
3,47,100,24
3,47,100,64
3,42,100,0
3,40,100,20
3,33,100,24
3,33,100,40
3,33,100,48
3,33,100,144
3,45,100,8
3,45,100,32
3,40,100,0
3,40,106,8
3,40,106,32
3,40,106,24
3,40,106,32
3,47,106,0
3,45,106,96
3,38,106,16
3,38,106,32
3,38,106,48
3,38,106,24
3,38,106,56
3,38,106,144
3,38,106,10
3,37,106,24
3,35,106,8
3,35,106,32
3,35,106,48
3,28,106,24
3,35,106,0
3,28,106,8
3,33,106,0
3,33,106,40
3,33,106,56
3,33,106,144
3,43,106,24
3,38,106,16
3,43,106,8
3,43,106,136
3,43,106,32
3,42,106,8
3,37,106,24
3,42,106,0
3,42,106,120
3,37,106,40
3,42,106,16
3,43,106,24
3,38,106,40
3,43,106,0
3,43,106,136
3,43,106,24
3,42,106,8
3,42,106,72
3,42,106,24
3,42,106,144
3,38,106,8
3,37,106,8
3,35,106,16
3,35,106,32
3,33,106,24
3,33,106,120
3,31,106,16
3,26,106,32
3,31,106,24
3,31,106,144
3,43,106,4
3,42,106,0
3,40,106,32
3,28,106,8
3,33,106,16
3,33,106,72
3,38,106,32
3,38,106,16
3,40,98,4
3,35,78,24
3,40,89,0
3,40,85,144
3,40,82,32
3,44,89,16
3,44,85,32
3,44,89,24
3,44,85,144
3,47,98,4
3,42,105,0
3,40,98,8
3,40,85,56
3,40,89,24
3,40,89,144
3,40,87,40
3,40,89,48
3,40,91,24
3,40,89,144
3,40,100,24
3,39,98,0
3,27,95,32
3,27,95,112
3,32,95,24
3,32,85,40
3,32,93,24
3,32,85,144
3,32,91,32
3,35,89,4
3,37,91,24
3,32,85,48
3,37,85,0
3,37,93,144
3,37,95,24
3,30,87,48
3,35,82,4
3,30,82,0
3,30,91,120
3,47,87,24
3,42,87,24
3,47,87,24
3,42,78,24
3,35,98,24
3,39,95,24
3,42,106,0
3,42,106,32
3,30,106,96
3,30,106,48
3,35,106,16
3,40,106,0
3,40,106,24
3,40,106,24
3,40,106,144
3,40,106,8
3,39,106,24
3,37,106,24
3,37,106,32
3,37,106,32
3,37,106,144
3,30,106,24
3,28,106,24
3,27,106,8
3,51,106,24
3,42,106,120
3,44,106,16
3,46,106,16
3,49,106,0
3,49,106,10
3,47,106,0
3,42,106,24
3,33,106,8
3,28,106,16
3,33,106,8
3,33,106,136
3,33,106,32
3,32,106,8
3,27,106,24
3,32,106,0
3,32,106,120
3,27,106,40
3,32,106,16
3,33,106,24
3,28,106,40
3,33,106,0
3,33,106,136
3,40,106,8
3,33,106,16
3,32,106,32
3,39,106,72
3,32,106,24
3,32,106,144
3,35,106,4
3,39,106,8
3,37,106,32
3,37,106,32
3,35,106,24
3,35,106,120
3,35,106,32
3,33,106,24
3,28,106,32
3,33,106,24
3,33,106,144
3,45,106,4
3,44,106,0
3,32,106,24
3,32,106,24
3,30,106,2
3,30,106,56
3,42,106,16
3,35,106,22
3,47,106,0
3,35,106,24
3,35,106,40
3,42,106,8
3,35,106,24
3,33,106,8
3,32,106,32
3,30,106,104
3,35,106,24
3,35,106,32
3,35,106,120
3,35,106,24
3,35,106,48
3,37,100,0
3,35,96,32
3,28,90,3120
3,32,90,16
3,35,90,24
3,42,90,4
3,40,90,8
3,40,90,48
4,62,82,1346
4,57,58,84
4,64,85,66
4,57,60,92
4,64,89,4
4,69,74,20
4,66,62,2
4,38,74,12
4,45,62,186
4,50,64,10
4,54,60,2
4,64,87,380
4,62,78,0
4,57,74,194
4,42,72,70
4,50,58,8
4,54,64,6
4,62,80,192
4,62,91,220
4,57,60,96
4,64,80,0
4,57,64,4
4,64,91,4
4,66,80,16
4,69,66,10
4,38,82,72
4,50,61,130
4,55,63,182
4,62,85,8
4,64,89,226
4,62,76,10
4,55,74,12
4,38,76,16
4,50,58,156
4,59,66,4
4,62,68,0
4,62,82,194
4,57,62,96
4,64,85,0
4,57,66,4
4,64,87,76
4,69,82,22
4,66,60,2
4,38,85,128
4,50,59,70
4,57,80,188
4,62,70,192
4,64,90,158
4,62,82,188
4,57,85,2
4,42,59,54
4,50,61,148
4,57,76,188
4,62,70,196
4,62,91,210
4,57,59,96
4,64,91,74
4,57,78,2
4,64,93,78
4,66,78,6
4,69,72,4
4,38,89,36
4,50,63,148
4,55,76,122
4,62,74,194
4,64,91,208
4,62,91,190
4,55,72,4
4,38,82,46
4,50,70,150
4,55,68,192
4,62,80,188
4,61,87,188
4,66,85,10
4,59,93,0
4,37,70,38
4,47,64,150
4,52,76,160
4,55,70,192
4,61,89,158
4,64,89,16
4,57,89,0
4,42,72,34
4,49,70,64
4,54,64,192
4,57,76,194
4,61,87,8
4,59,98,186
4,61,87,22
4,61,95,34
4,35,70,2
4,47,68,170
4,54,72,190
4,57,76,190
4,54,76,372
4,62,98,4
4,66,88,16
4,57,82,0
4,50,80,22
4,54,59,192
4,57,68,0
4,54,59,14
4,68,91,106
4,59,82,8
4,69,89,6
4,62,85,10
4,50,78,26
4,52,68,0
4,55,74,190
4,61,80,2
4,55,80,40
4,59,85,0
4,67,82,0
4,62,82,4
4,67,82,36
4,62,85,2
4,55,76,0
4,59,82,2
4,55,82,56
4,67,80,2
4,62,78,2
4,59,70,0
4,66,91,14
4,61,78,8
4,64,105,4
4,66,87,28
4,67,87,12
4,50,87,20
4,57,85,8
4,66,80,0
4,62,91,2
4,62,85,24
4,57,70,0
4,50,82,2
4,66,60,0
4,62,82,64
4,57,67,2
4,66,57,4
4,50,76,2
4,66,72,36
4,57,87,4
4,50,91,2
4,62,87,0
4,61,87,12
4,64,93,0
4,57,82,2
4,47,80,2
4,66,72,4
4,57,82,2
4,62,87,2
4,47,85,36
4,57,70,2
4,66,63,2
4,62,74,2
4,52,78,28
4,56,82,2
4,62,85,2
4,66,70,0
4,52,87,22
4,66,74,2
4,62,98,2
4,59,89,0
4,57,68,4
4,61,78,6
4,45,76,2
4,64,85,2
4,45,64,32
4,64,89,96
4,62,89,194
4,57,60,94
4,64,87,86
4,57,66,6
4,64,89,6
4,66,87,20
4,69,93,2
4,38,85,80
4,50,59,138
4,57,80,188
4,62,70,192
4,64,90,158
4,62,82,188
4,57,85,2
4,42,59,54
4,50,61,148
4,57,76,188
4,62,70,196
4,62,91,210
4,57,59,96
4,64,91,74
4,57,78,2
4,64,93,78
4,66,78,6
4,69,72,4
4,38,89,36
4,50,63,148
4,55,76,122
4,62,74,194
4,64,91,208
4,62,91,190
4,55,72,4
4,38,82,46
4,50,70,150
4,55,68,192
4,62,80,188
4,61,87,188
4,66,85,10
4,59,93,0
4,37,70,38
4,47,64,150
4,52,76,160
4,55,70,192
4,61,89,158
4,64,89,16
4,57,89,0
4,42,72,34
4,49,70,64
4,54,64,192
4,57,76,194
4,61,87,8
4,61,85,40
4,69,89,4
4,71,93,4
4,62,95,2
4,73,85,16
4,64,98,6
4,64,93,32
4,73,98,2
4,35,70,10
4,47,68,170
4,54,72,190
4,57,76,88
4,66,87,370
4,74,93,2
4,54,76,0
4,57,82,28
4,50,82,2
4,62,87,4
4,66,82,2
4,50,80,34
4,57,72,4
4,66,82,0
4,62,85,2
4,50,82,20
4,57,62,2
4,66,72,2
4,62,68,2
4,68,89,28
4,59,91,2
4,52,76,2
4,62,89,0
4,57,80,36
4,61,82,2
4,69,80,2
4,64,87,2
4,61,76,22
4,69,82,2
4,64,80,4
4,57,76,2
4,57,78,50
4,61,80,2
4,69,82,2
4,64,87,2
4,45,91,26
4,61,85,2
4,64,89,4
4,59,85,92
4,62,82,2
4,61,82,4
4,57,89,0
4,55,80,24
4,59,85,0
4,67,82,0
4,62,82,4
4,67,82,36
4,62,85,2
4,55,76,0
4,59,82,2
4,55,82,56
4,67,80,2
4,62,78,2
4,59,70,0
4,66,91,14
4,61,78,8
4,64,105,4
4,66,87,28
4,67,87,12
4,50,87,20
4,57,85,8
4,66,80,0
4,62,91,2
4,62,85,24
4,57,70,0
4,50,82,2
4,66,60,0
4,62,82,64
4,57,67,2
4,66,57,4
4,50,76,2
4,66,72,36
4,57,87,4
4,50,91,2
4,62,87,0
4,61,87,12
4,64,93,0
4,57,82,2
4,47,80,2
4,66,72,4
4,57,82,2
4,62,87,2
4,47,85,36
4,57,70,2
4,66,63,2
4,62,74,2
4,52,78,28
4,56,82,2
4,62,85,2
4,66,70,0
4,52,87,22
4,66,74,2
4,62,98,2
4,59,89,0
4,57,68,4
4,61,78,6
4,45,76,2
4,64,85,2
4,57,82,72
4,45,85,0
4,64,85,2
4,61,74,4
4,45,85,24
4,61,85,4
4,57,80,2
4,64,91,2
4,45,85,0
4,61,91,84
4,64,93,0
4,57,91,2
4,61,80,64
4,57,82,0
4,67,82,12
4,62,91,2
4,43,80,2
4,59,87,2
4,67,78,24
4,59,78,2
4,62,85,2
4,43,82,0
4,67,85,82
4,43,80,2
4,59,82,0
4,62,78,2
4,43,93,32
4,59,87,96
4,62,87,4
4,67,85,0
4,69,89,28
4,57,86,2
4,64,91,2
4,42,78,0
4,69,87,38
4,57,85,2
4,42,68,2
4,62,91,0
4,69,85,58
4,57,78,4
4,64,89,2
4,42,68,2
4,57,93,12
4,61,91,2
4,47,76,0
4,69,80,2
4,62,87,188
4,62,89,6
4,43,89,2
4,67,98,0
4,71,100,4
4,73,91,146
4,69,93,12
4,67,87,0
4,67,80,28
4,59,82,2
4,62,89,0
4,43,66,2
4,67,85,28
4,59,87,0
4,43,91,2
4,64,93,2
4,42,78,28
4,64,87,2
4,69,85,0
4,57,87,2
4,57,87,42
4,69,80,2
4,62,91,2
4,69,87,38
4,57,85,2
4,64,93,0
4,42,70,2
4,57,95,76
4,61,87,4
4,69,98,0
4,62,95,6
4,61,85,16
4,57,91,2
4,42,68,0
4,52,85,2
4,52,80,32
4,61,85,2
4,57,85,2
4,54,87,18
4,62,91,4
4,57,91,2
4,47,80,2
4,54,87,36
4,57,100,6
4,62,98,0
4,43,87,18
4,55,80,4
4,62,91,2
4,59,85,0
4,55,85,64
4,62,87,2
4,59,76,4
4,43,87,2
4,55,82,88
4,66,87,4
4,59,87,0
4,55,87,10
4,64,87,4
4,59,85,2
4,66,87,192
4,42,74,28
4,64,89,2
4,69,87,2
4,57,82,2
4,57,87,10
4,69,89,2
4,62,93,2
4,43,82,28
4,67,80,2
4,59,85,4
4,62,82,2
4,59,82,14
4,67,89,2
4,43,85,4
4,62,98,2
4,57,76,20
4,45,70,8
4,61,85,2
4,66,74,10
4,69,60,20
4,45,91,322
4,59,85,30
4,67,87,6
4,62,82,4
4,57,82,2
4,50,89,6
4,62,93,0
4,66,80,14
4,64,93,38
4,59,63,60
4,66,72,96
4,59,66,86
4,64,76,68
4,68,85,6
4,71,68,20
4,40,85,28
4,52,59,78
4,59,80,188
4,64,70,192
4,66,90,158
4,64,82,188
4,59,85,2
4,44,59,54
4,52,61,148
4,59,76,188
4,64,70,196
4,64,91,210
4,59,59,96
4,66,91,74
4,59,78,2
4,66,93,78
4,68,78,6
4,71,72,4
4,40,89,36
4,52,63,148
4,57,76,122
4,64,74,194
4,66,91,208
4,64,91,190
4,57,72,4
4,40,82,46
4,52,70,150
4,57,68,192
4,64,80,188
4,63,87,188
4,68,85,10
4,61,93,0
4,39,70,38
4,49,64,150
4,54,76,160
4,57,70,192
4,63,89,158
4,66,89,16
4,59,89,0
4,44,72,34
4,51,70,64
4,56,64,192
4,59,76,194
4,63,87,8
4,63,85,40
4,71,89,4
4,73,93,4
4,64,95,2
4,75,85,16
4,66,98,6
4,66,93,32
4,75,98,2
4,37,70,10
4,49,68,170
4,56,72,190
4,59,76,88
4,68,87,370
4,76,93,2
4,56,76,0
4,59,82,28
4,52,82,2
4,64,87,4
4,68,82,2
4,52,80,34
4,59,72,4
4,68,82,0
4,64,85,2
4,52,82,20
4,59,62,2
4,68,72,2
4,64,68,2
4,70,89,28
4,61,91,2
4,54,76,2
4,64,89,0
4,59,80,36
4,63,82,2
4,71,80,2
4,66,87,2
4,63,76,22
4,71,82,2
4,66,80,4
4,59,76,2
4,59,78,50
4,63,80,2
4,71,82,2
4,66,87,2
4,47,91,26
4,63,85,2
4,66,89,4
4,61,85,92
4,64,82,2
4,63,82,4
4,59,89,0
4,57,80,24
4,61,85,0
4,69,82,0
4,64,82,4
4,69,82,36
4,64,85,2
4,57,76,0
4,61,82,2
4,57,82,56
4,69,80,2
4,64,78,2
4,61,70,0
4,68,91,14
4,63,78,8
4,66,105,4
4,68,87,28
4,69,87,12
4,52,87,20
4,59,85,8
4,68,80,0
4,64,91,2
4,64,85,24
4,59,70,0
4,52,82,2
4,68,60,0
4,64,82,64
4,59,67,2
4,68,57,4
4,52,76,2
4,68,72,36
4,59,87,4
4,52,91,2
4,64,87,0
4,63,87,12
4,66,93,0
4,59,82,2
4,49,80,2
4,68,72,4
4,59,82,2
4,64,87,2
4,49,85,36
4,59,70,2
4,68,63,2
4,64,74,2
4,54,78,28
4,58,82,2
4,64,85,2
4,68,70,0
4,54,87,22
4,68,74,2
4,64,98,2
4,61,89,0
4,59,68,4
4,63,78,6
4,47,76,2
4,66,85,2
4,59,82,72
4,47,85,0
4,66,85,2
4,63,74,4
4,47,85,24
4,63,85,4
4,59,80,2
4,66,91,2
4,47,85,0
4,63,91,84
4,66,93,0
4,59,91,2
4,63,80,64
4,59,82,0
4,69,82,12
4,64,91,2
4,45,80,2
4,61,87,2
4,69,78,24
4,61,78,2
4,64,85,2
4,45,82,0
4,69,85,82
4,45,80,2
4,61,82,0
4,64,78,2
4,45,93,32
4,61,87,96
4,64,87,4
4,69,85,0
4,71,89,28
4,59,86,2
4,66,91,2
4,44,78,0
4,71,87,38
4,59,85,2
4,44,68,2
4,64,91,0
4,71,85,58
4,59,78,4
4,66,89,2
4,44,68,2
4,59,93,12
4,63,91,2
4,49,76,0
4,71,80,2
4,64,87,188
4,64,89,6
4,45,89,2
4,69,98,0
4,73,100,4
4,75,91,146
4,71,93,12
4,69,87,0
4,69,80,28
4,61,82,2
4,64,89,0
4,45,66,2
4,69,85,28
4,61,87,0
4,45,91,2
4,66,93,2
4,44,78,28
4,66,87,2
4,71,85,0
4,59,87,2
4,59,87,42
4,71,80,2
4,64,91,2
4,71,87,38
4,59,85,2
4,66,93,0
4,44,70,2
4,59,95,76
4,63,87,4
4,71,98,0
4,64,95,6
4,63,85,16
4,59,91,2
4,44,68,0
4,54,85,2
4,54,80,32
4,63,85,2
4,59,85,2
4,56,87,18
4,64,91,4
4,59,91,2
4,49,80,2
4,56,87,36
4,59,100,6
4,64,98,0
4,45,87,18
4,57,80,4
4,64,91,2
4,61,85,0
4,57,85,64
4,64,87,2
4,61,76,4
4,45,87,2
4,57,82,88
4,68,87,4
4,61,87,0
4,57,87,10
4,66,87,4
4,61,85,2
4,68,87,192
4,44,74,28
4,66,89,2
4,71,87,2
4,59,82,2
4,59,87,10
4,71,89,2
4,64,93,2
4,45,82,28
4,69,80,2
4,61,85,4
4,64,82,2
4,61,82,14
4,69,89,2
4,45,85,4
4,64,98,2
4,59,76,20
4,47,70,8
