track,note,velocity,time
0,42,30,0
0,42,30,0
0,42,30,360
0,42,30,45
0,58,121,292
0,66,116,140
0,42,30,0
0,42,30,0
0,58,127,15
0,42,30,133
0,65,118,17
0,42,30,110
0,58,127,30
0,63,117,137
0,42,30,0
0,63,125,32
0,63,124,25
0,63,121,28
0,63,127,30
0,42,30,30
0,65,125,0
0,61,124,2
0,63,127,0
0,61,127,145
0,42,30,95
0,42,30,110
0,54,124,35
0,42,30,140
0,61,121,8
0,61,127,37
0,61,123,40
0,42,30,220
0,78,87,87
0,71,107,50
0,56,81,20
0,70,127,5
0,63,121,15
0,58,125,13
0,56,127,132
0,54,127,0
0,42,81,0
0,54,87,0
0,77,95,0
0,68,93,0
0,73,99,0
0,63,117,2
0,75,57,0
0,61,116,3
0,73,113,0
0,65,95,0
0,61,125,22
0,68,93,240
0,61,55,235
0,56,67,0
0,58,127,75
0,61,66,8
0,39,100,0
0,51,82,0
0,70,100,0
0,66,70,0
0,39,106,0
0,66,124,0
0,46,101,67
0,53,87,107
0,54,93,113
0,61,93,130
0,58,116,50
0,46,121,0
0,46,66,8
0,34,88,0
0,65,102,0
0,68,66,0
0,61,54,0
0,65,127,0
0,53,95,10
0,56,93,107
0,61,67,120
0,68,88,110
0,58,124,40
0,47,95,0
0,63,124,2
0,47,80,3
0,35,80,0
0,66,88,0
0,73,100,0
0,61,82,0
0,63,116,35
0,54,85,47
0,63,115,20
0,63,127,0
0,63,120,2
0,61,93,0
0,65,122,0
0,61,121,5
0,63,116,3
0,61,127,10
0,56,101,118
0,46,61,5
0,66,82,5
0,34,88,0
0,46,70,0
0,73,100,0
0,61,70,0
0,49,85,0
0,61,85,75
0,46,65,18
0,49,79,63
0,61,54,20
0,54,79,70
0,54,108,8
0,49,51,60
0,56,127,70
0,54,121,0
0,39,93,12
0,53,98,0
0,39,108,0
0,53,120,7
0,46,85,100
0,54,106,32
0,54,127,5
0,46,93,75
0,61,109,0
0,58,127,0
0,61,84,13
0,66,78,0
0,70,90,0
0,54,99,57
0,53,82,73
0,61,121,2
0,68,120,12
0,41,96,13
0,68,98,0
0,59,96,0
0,63,84,0
0,41,111,0
0,47,75,107
0,51,79,118
0,56,55,122
0,59,75,115
0,68,118,60
0,56,73,2
0,41,91,102
0,47,69,100
0,56,31,3
0,51,37,85
0,68,88,98
0,63,58,0
0,59,78,0
0,59,51,0
0,66,116,55
0,51,39,3
0,66,122,60
0,47,53,5
0,68,120,17
0,40,69,50
0,73,93,0
0,73,106,0
0,52,68,5
0,70,124,2
0,61,98,28
0,70,123,12
0,61,79,0
0,66,93,40
0,66,78,15
0,70,127,3
0,52,65,225
0,61,61,50
0,68,118,112
0,54,44,0
0,66,127,10
0,66,115,20
0,68,127,0
0,73,101,0
0,66,101,2
0,51,85,0
0,61,76,5
0,51,46,0
0,39,42,0
0,73,71,2
0,66,76,0
0,54,71,0
0,66,127,10
0,66,117,25
0,61,105,0
0,54,75,5
0,51,73,0
0,54,27,8
0,61,37,15
0,59,122,37
0,40,98,20
0,40,57,15
0,61,127,30
0,47,100,0
0,52,100,2
0,54,72,15
0,59,78,0
0,63,115,25
0,47,79,0
0,75,65,0
0,59,91,7
0,66,126,8
0,71,116,45
0,56,74,22
0,64,124,155
0,61,116,5
0,63,127,23
0,61,120,233
0,59,127,3
0,58,122,72
0,51,66,10
0,39,100,0
0,70,100,0
0,61,108,0
0,66,94,0
0,27,102,0
0,66,123,0
0,39,84,0
0,36,100,0
0,42,82,0
0,66,66,30
0,61,70,0
0,70,74,0
0,39,69,5
0,51,69,0
0,46,90,75
0,42,32,0
0,53,92,75
0,42,62,0
0,54,66,75
0,42,26,0
0,42,76,5
0,61,72,0
0,54,78,33
0,42,32,0
0,53,74,40
0,42,76,0
0,58,121,47
0,46,38,8
0,27,79,0
0,36,75,0
0,42,40,0
0,68,82,5
0,46,82,0
0,65,102,0
0,34,100,0
0,61,70,0
0,34,99,0
0,46,98,0
0,36,100,0
0,42,82,0
0,46,69,0
0,65,66,0
0,61,70,0
0,68,72,0
0,34,80,7
0,65,127,3
0,53,78,75
0,42,28,0
0,56,90,25
0,42,66,0
0,61,52,75
0,42,34,0
0,63,108,15
0,65,104,15
0,68,104,0
0,63,60,0
0,61,56,0
0,54,102,0
0,42,76,0
0,61,105,75
0,61,56,0
0,42,34,0
0,56,98,75
0,42,58,0
0,58,122,7
0,53,78,13
0,42,40,0
0,35,73,0
0,47,75,0
0,66,73,0
0,61,78,0
0,59,66,0
0,61,100,0
0,63,108,0
0,35,102,0
0,47,78,0
0,59,94,0
0,66,100,0
0,35,102,0
0,47,92,0
0,36,100,0
0,42,76,0
0,63,117,0
0,54,78,75
0,42,30,0
0,63,118,5
0,59,96,23
0,42,58,0
0,63,127,15
0,63,120,38
0,61,116,5
0,42,42,0
0,54,38,33
0,42,88,0
0,65,127,17
0,63,106,20
0,42,24,0
0,61,127,18
0,63,123,0
0,59,62,0
0,42,58,0
0,54,44,13
0,61,127,0
0,36,75,0
0,42,40,0
0,42,82,13
0,30,80,0
0,61,78,0
0,58,76,0
0,68,74,0
0,36,100,10
0,42,76,0
0,42,98,0
0,42,54,0
0,30,88,0
0,61,54,0
0,56,42,0
0,66,52,0
0,30,97,0
0,49,84,70
0,42,42,0
0,54,84,58
0,42,76,0
0,56,106,0
0,42,48,0
0,61,108,35
0,56,100,0
0,49,66,0
0,54,102,0
0,42,88,0
0,56,127,23
0,61,127,0
0,30,99,0
0,61,90,0
0,36,100,0
0,42,48,0
0,56,84,15
0,42,76,0
0,54,127,30
0,54,32,30
0,42,48,0
0,32,70,0
0,59,88,0
0,44,58,0
0,63,58,0
0,54,46,0
0,32,99,0
0,44,98,0
0,36,100,0
0,42,88,0
0,61,115,2
0,44,79,0
0,32,90,0
0,61,79,0
0,58,88,0
0,54,80,0
0,51,98,10
0,42,46,0
0,61,118,35
0,58,76,28
0,42,62,0
0,61,116,10
0,54,73,3
0,42,30,0
0,61,108,53
0,42,70,0
0,73,70,75
0,82,70,0
0,54,68,0
0,42,46,0
0,82,100,75
0,73,94,0
0,58,87,0
0,42,76,0
0,73,116,15
0,82,126,0
0,32,88,0
0,51,84,0
0,54,2,0
0,36,75,0
0,42,42,0
0,32,99,0
0,44,90,0
0,36,100,0
0,42,76,0
0,78,100,0
0,70,108,0
0,58,78,0
0,42,48,0
0,61,72,70
0,42,48,0
0,73,127,38
0,66,108,0
0,58,84,0
0,42,36,0
0,63,98,0
0,54,102,0
0,42,70,0
0,54,90,58
0,42,38,0
0,58,116,2
0,58,66,3
0,42,88,0
0,56,118,7
0,54,127,10
0,54,65,0
0,42,38,0
0,42,87,52
0,30,87,0
0,54,75,0
0,56,79,0
0,58,83,0
0,61,75,0
0,61,88,0
0,58,82,0
0,42,94,0
0,54,70,0
0,56,66,0
0,30,102,0
0,42,84,0
0,36,100,0
0,42,82,0
0,63,124,0
0,49,90,75
0,42,38,0
0,54,78,15
0,42,62,0
0,61,116,2
0,61,127,52
0,56,78,8
0,42,36,0
0,49,66,75
0,42,82,0
0,54,78,75
0,42,38,0
0,58,72,55
0,42,58,0
0,49,30,75
0,42,42,0
0,36,100,5
0,42,70,0
0,30,99,0
0,42,78,0
0,49,12,0
0,66,127,65
0,49,98,0
0,42,40,0
0,54,84,55
0,42,62,0
0,58,60,75
0,42,42,0
0,29,80,20
0,41,78,0
0,61,79,0
0,56,79,0
0,41,110,0
0,53,94,0
0,61,100,0
0,68,108,0
0,29,102,0
0,41,92,0
0,56,90,0
0,54,102,0
0,42,76,0
0,49,98,75
0,42,40,0
0,61,72,75
0,42,82,0
0,58,117,57
0,49,84,13
0,42,58,0
0,58,108,0
0,66,100,0
0,61,108,0
0,51,100,0
0,39,100,0
0,27,99,0
0,39,90,0
0,39,74,0
0,51,74,0
0,36,100,0
0,42,82,0
0,61,90,0
0,58,79,0
0,54,83,0
0,66,127,0
0,46,98,75
0,42,32,0
0,53,78,75
0,42,62,0
0,54,106,75
0,42,26,0
0,42,76,0
0,61,90,38
0,42,32,0
0,53,92,53
0,42,76,0
0,58,121,20
0,54,76,43
0,27,81,0
0,36,75,0
0,42,40,0
0,34,90,0
0,53,92,0
0,56,83,0
0,36,100,13
0,42,82,0
0,46,79,0
0,46,90,0
0,34,94,0
0,46,100,0
0,65,110,0
0,68,88,0
0,61,76,0
0,34,94,0
0,65,123,0
0,53,80,20
0,42,28,0
0,56,84,75
0,42,66,0
0,61,98,65
0,42,34,0
0,61,98,18
0,54,102,15
0,42,76,0
0,63,78,27
0,61,74,8
0,42,34,40
0,53,78,12
0,42,58,13
0,54,78,13
0,53,88,32
0,58,116,20
0,42,40,20
0,54,85,10
0,47,88,0
0,35,86,2
0,58,83,8
0,35,106,0
0,47,98,0
0,66,88,0
0,59,106,0
0,61,116,0
0,35,94,0
0,47,88,0
0,36,100,0
0,42,76,0
0,63,127,10
0,54,72,75
0,42,30,0
0,63,127,10
0,59,78,8
0,42,58,0
0,63,123,22
0,63,124,32
0,61,98,3
0,42,42,0
0,66,54,68
0,61,94,0
0,42,88,0
0,65,127,30
0,54,90,13
0,42,24,0
0,61,127,20
0,63,124,35
0,59,60,0
0,42,58,0
0,35,81,3
0,61,122,0
0,36,75,0
0,42,40,0
0,56,83,27
0,54,88,8
0,36,100,5
0,42,76,0
0,46,108,0
0,61,100,0
0,66,100,0
0,34,100,0
0,56,108,0
0,34,97,0
0,46,106,0
0,46,75,0
0,34,92,0
0,49,60,75
0,42,42,0
0,54,78,75
0,42,76,0
0,61,90,10
0,42,48,0
0,54,108,75
0,54,102,0
0,42,88,0
0,54,98,75
0,42,48,0
0,56,73,75
0,42,76,0
0,56,122,37
0,42,48,38
0,54,127,20
0,53,117,23
0,58,75,20
0,73,88,0
0,66,88,0
0,65,94,0
0,70,88,0
0,39,108,0
0,51,100,0
0,27,97,0
0,39,90,0
0,36,100,0
0,42,88,0
0,61,74,2
0,66,87,0
0,51,74,0
0,39,87,0
0,46,66,10
0,42,46,0
0,54,123,5
0,54,90,18
0,42,62,0
0,61,90,75
0,42,30,0
0,58,124,0
0,70,108,23
0,65,102,0
0,61,108,0
0,66,94,0
0,42,70,0
0,42,46,35
0,61,127,63
0,42,76,0
0,27,79,73
0,36,75,0
0,42,42,0
0,63,81,13
0,59,79,0
0,68,81,0
0,53,82,0
0,41,76,0
0,68,127,5
0,41,106,0
0,53,84,0
0,41,102,0
0,63,116,0
0,68,100,0
0,71,110,0
0,29,94,0
0,36,100,0
0,42,88,0
0,51,68,75
0,42,46,0
0,56,57,0
0,42,62,0
0,51,65,23
0,42,30,0
0,59,100,3
0,42,70,0
0,51,78,30
0,42,46,0
0,68,121,12
0,56,73,75
0,42,76,0
0,41,88,63
0,42,42,0
0,71,113,53
0,59,113,0
0,29,88,0
0,36,100,0
0,42,76,0
0,75,113,30
0,63,113,0
0,47,58,0
0,42,48,0
0,71,110,30
0,59,110,0
0,56,84,0
0,42,48,0
0,68,116,55
0,80,116,0
0,51,49,0
0,42,36,0
0,59,60,63
0,54,102,0
0,42,70,0
0,66,115,13
0,29,102,8
0,51,84,0
0,36,100,0
0,42,38,0
0,66,127,63
0,56,65,10
0,42,88,0
0,68,117,60
0,42,38,0
0,58,78,18
0,70,124,0
0,70,87,0
0,61,75,0
0,36,100,3
0,42,82,0
0,78,101,0
0,40,111,0
0,47,95,0
0,52,101,0
0,73,101,0
0,85,73,0
0,28,102,0
0,52,78,0
0,40,78,0
0,66,71,0
0,61,98,2
0,61,126,43
0,42,38,0
0,70,127,2
0,66,127,53
0,42,62,0
0,70,127,5
0,58,60,53
0,42,36,10
0,42,82,75
0,68,121,8
0,42,38,0
0,42,58,75
0,66,118,38
0,28,75,13
0,36,75,0
0,42,42,0
0,68,127,17
0,39,106,23
0,85,87,0
0,73,113,0
0,39,93,0
0,51,99,0
0,78,93,0
0,27,99,0
0,36,100,0
0,42,70,0
0,39,85,3
0,51,74,0
0,73,85,0
0,66,127,2
0,54,84,18
0,61,118,0
0,42,40,0
0,66,127,50
0,61,90,13
0,66,118,0
0,42,62,0
0,54,56,58
0,42,42,0
0,66,98,75
0,54,102,0
0,42,76,0
0,42,40,70
0,61,57,0
0,54,84,5
0,42,82,0
0,59,120,52
0,36,75,23
0,42,58,0
0,40,68,20
0,61,122,3
0,47,68,5
0,54,44,12
0,56,78,5
0,59,101,5
0,40,101,0
0,52,101,0
0,63,101,0
0,66,101,0
0,28,99,0
0,36,100,0
0,63,90,3
0,63,123,2
0,40,67,0
0,52,67,0
0,66,69,0
0,71,70,0
0,59,72,0
0,63,66,0
0,56,78,2
0,64,125,195
0,61,116,13
0,63,127,27
0,61,127,220
0,59,123,3
0,44,61,0
0,40,90,182
0,40,127,13
0,44,64,20
0,40,90,65
0,40,127,10
0,40,105,185
0,48,119,10
0,45,115,0
0,48,127,0
0,47,127,0
0,45,121,0
0,47,125,120
0,43,125,0
0,45,125,75
0,43,125,0
0,66,124,65
0,49,68,2
0,54,63,0
0,42,83,3
0,54,110,0
0,61,92,0
0,66,110,0
0,42,100,0
0,73,111,0
0,30,97,0
0,57,65,0
0,36,125,0
0,66,102,0
0,58,110,0
0,61,99,0
0,42,105,0
0,66,127,7
0,42,81,5
0,54,82,0
0,49,80,0
0,54,98,75
0,61,84,120
0,51,67,0
0,70,117,0
0,54,90,40
0,51,78,0
0,70,115,10
0,66,100,0
0,73,110,0
0,61,100,0
0,66,98,0
0,51,104,0
0,40,127,0
0,68,124,5
0,61,52,0
0,51,72,0
0,68,115,23
0,54,90,5
0,51,84,0
0,24,84,35
0,36,100,0
0,51,72,0
0,37,95,0
0,52,83,0
0,56,81,0
0,36,125,8
0,51,104,0
0,64,106,0
0,59,96,0
0,37,105,0
0,68,96,0
0,59,104,0
0,64,111,0
0,71,110,0
0,49,84,0
0,37,100,0
0,25,102,0
0,66,127,52
0,52,88,0
0,51,70,0
0,64,127,57
0,59,96,0
0,51,84,0
0,52,84,20
0,51,78,0
0,59,104,0
0,64,111,0
0,71,111,0
0,64,110,0
0,51,104,0
0,40,127,0
0,52,84,75
0,51,70,0
0,59,92,28
0,51,84,0
0,68,121,2
0,70,115,22
0,25,88,8
0,51,78,0
0,71,122,3
0,54,84,0
0,44,100,0
0,32,84,0
0,59,90,0
0,66,100,0
0,64,110,0
0,32,97,0
0,44,89,0
0,36,125,0
0,51,104,0
0,44,110,0
0,66,102,0
0,54,108,0
0,51,70,0
0,70,124,15
0,59,78,3
0,51,84,0
0,71,118,33
0,54,90,3
0,51,66,0
0,59,100,0
0,64,104,0
0,66,110,0
0,64,106,0
0,51,122,0
0,40,127,0
0,70,117,5
0,54,90,8
0,51,70,0
0,59,74,0
0,51,93,0
0,71,117,25
0,32,88,3
0,36,100,0
0,51,75,0
0,56,89,60
0,46,89,2
0,36,125,13
0,51,104,0
0,68,110,0
0,46,110,0
0,61,114,0
0,54,112,0
0,46,100,0
0,34,92,0
0,73,100,0
0,61,84,0
0,66,92,0
0,34,99,0
0,73,123,3
0,54,106,5
0,51,75,0
0,61,98,8
0,51,84,0
0,68,120,30
0,69,117,7
0,70,125,10
0,54,90,3
0,51,78,0
0,78,78,3
0,73,78,0
0,68,78,0
0,66,98,0
0,49,65,0
0,40,127,0
0,68,118,40
0,78,93,0
0,73,93,0
0,68,93,0
0,54,98,0
0,61,72,20
0,51,96,0
0,66,124,13
0,34,86,0
0,54,78,0
0,51,70,0
0,54,100,0
0,42,100,0
0,61,92,0
0,66,110,0
0,73,110,0
0,30,99,0
0,66,127,0
0,57,65,0
0,36,125,0
0,42,114,0
0,58,112,0
0,66,106,0
0,42,81,0
0,49,75,0
0,54,75,0
0,54,90,60
0,61,90,0
0,70,116,0
0,51,84,0
0,54,98,45
0,51,72,0
0,70,127,2
0,73,100,75
0,66,110,0
0,61,111,0
0,66,90,0
0,51,112,0
0,40,127,0
0,51,70,23
0,54,48,0
0,68,123,0
