track,note,velocity,time
3,55,38,1791
3,48,38,5
3,48,0,13789
3,55,0,27
3,55,36,3
3,48,36,5
3,48,0,9181
3,55,0,27
3,55,35,3
3,48,36,5
3,48,0,7645
3,55,38,14
3,48,36,5
3,55,0,8
3,48,0,9173
3,55,0,27
3,55,54,3
3,48,49,5
3,48,0,6101
3,55,0,3
3,55,60,30
3,59,60,4
3,62,60,1
3,57,60,1
3,62,0,2985
3,55,0,11
3,57,0,9
3,59,0,1
3,65,60,41
3,57,60,8
3,60,60,2
3,45,60,14
3,45,0,3021
3,57,0,8
3,60,0,2
3,65,0,6
3,62,59,10
3,67,60,2
3,59,60,0
3,47,60,0
3,67,0,3037
3,62,0,14
3,59,0,2
3,47,0,8
3,57,60,26
3,60,60,1
3,65,60,0
3,62,60,0
3,57,0,3020
3,65,0,16
3,62,0,1
3,60,0,1
3,59,75,39
3,57,63,5
3,49,67,0
3,64,62,3
3,49,0,2973
3,64,0,7
3,57,0,7
3,59,0,2
3,59,61,49
3,57,67,3
3,64,62,10
3,47,71,8
3,57,0,755
3,56,58,41
3,56,0,648
3,47,0,33
3,64,0,8
3,59,0,11
3,56,65,17
3,66,65,4
3,42,65,0
3,61,65,8
3,56,0,689
3,57,58,16
3,42,0,748
3,57,0,7
3,66,0,19
3,61,0,3
3,66,58,28
3,47,58,8
3,59,58,4
3,57,57,1
3,62,57,0
3,62,0,1461
3,66,0,3
3,47,0,0
3,59,0,4
3,57,0,1
3,59,58,39
3,56,58,5
3,64,58,5
3,40,68,2
3,59,0,1509
3,56,0,1
3,64,0,5
3,40,0,2
3,54,68,18
3,61,66,9
3,64,66,5
3,42,66,5
3,57,64,3
3,42,0,3066
3,61,0,2
3,57,0,1
3,54,0,2
3,64,0,2
3,66,68,17
3,57,68,1
3,59,68,3
3,62,68,10
3,66,0,1491
3,59,0,8
3,57,0,1
3,56,69,5
3,64,71,3
3,62,0,1493
3,64,0,8
3,56,0,13
3,68,65,13
3,61,65,8
3,59,65,1
3,64,65,8
3,68,0,1344
3,69,64,19
3,59,0,1622
3,64,0,7
3,61,0,9
3,69,0,31
3,59,61,26
3,57,67,3
3,64,62,10
3,47,71,8
3,57,0,772
3,56,58,24
3,56,0,693
3,47,0,4
3,64,0,0
3,59,0,3
3,56,65,17
3,66,65,4
3,42,65,0
3,61,65,8
3,56,0,689
3,57,58,16
3,66,0,774
3,61,0,6
3,42,0,12
3,57,0,1
3,66,58,12
3,47,58,8
3,59,58,4
3,57,57,1
3,62,57,0
3,47,0,1464
3,59,0,4
3,62,0,5
3,66,0,3
3,57,0,1
3,59,58,31
3,56,58,5
3,64,58,5
3,40,68,2
3,40,0,1529
3,56,0,1
3,64,0,10
3,59,0,4
3,64,68,7
3,53,68,8
3,60,68,0
3,57,68,0
3,57,0,3045
3,64,0,4
3,60,0,8
3,53,0,0
3,60,68,20
3,55,68,6
3,62,68,1
3,64,66,6
3,64,0,3021
3,62,0,10
3,60,0,1
3,55,0,10
3,64,68,20
3,57,68,8
3,60,68,0
3,53,68,0
3,60,0,3030
3,64,0,4
3,57,0,3
3,53,0,4
3,60,68,20
3,55,68,6
3,62,68,1
3,64,66,6
3,60,0,3040
3,64,0,13
3,62,0,10
3,55,0,3
3,55,38,12
3,48,36,5
3,48,0,9181
3,55,0,3
3,55,54,27
3,48,49,5
3,55,0,6100
3,48,0,9
3,55,60,25
3,59,60,4
3,62,60,1
3,57,60,1
3,57,0,3017
3,55,0,2
3,59,0,4
3,62,0,1
3,65,60,23
3,57,60,8
3,60,60,2
3,45,60,14
3,65,0,3017
3,57,0,4
3,60,0,6
3,45,0,2
3,62,59,18
3,67,60,2
3,59,60,0
3,47,60,0
3,59,0,3045
3,47,0,4
3,67,0,4
3,62,0,6
3,57,60,28
3,60,60,1
3,65,60,0
3,62,60,0
3,65,0,3036
3,60,0,2
3,62,0,3
3,57,0,15
3,59,75,21
3,57,63,5
3,49,67,0
3,64,62,3
3,59,0,2997
3,49,0,5
3,64,0,7
3,57,0,1
3,59,61,28
3,57,67,3
3,64,62,10
3,47,71,8
3,57,0,772
3,56,58,24
3,56,0,648
3,47,0,49
3,59,0,11
3,64,0,1
3,56,65,8
3,66,65,4
3,42,65,0
3,61,65,8
3,56,0,689
3,57,58,16
3,42,0,748
3,57,0,7
3,66,0,19
3,61,0,3
3,66,58,28
3,47,58,8
3,59,58,4
3,57,57,1
3,62,57,0
3,59,0,1468
3,57,0,21
3,66,0,7
3,47,0,0
3,62,0,1
3,59,58,11
3,56,58,5
3,64,58,5
3,40,68,2
3,64,0,1519
3,59,0,2
3,56,0,5
3,40,0,3
3,54,68,6
3,61,66,9
3,64,66,5
3,42,66,5
3,57,64,3
3,57,0,3061
3,42,0,5
3,61,0,2
3,54,0,3
3,64,0,2
3,66,68,17
3,57,68,1
3,59,68,3
3,62,68,10
3,57,0,1488
3,59,0,7
3,66,0,7
3,56,69,3
3,64,71,3
3,62,0,1489
3,56,0,5
3,64,0,3
3,68,65,26
3,61,65,8
3,59,65,1
3,64,65,8
3,68,0,1290
3,69,64,77
3,59,0,1646
3,61,0,11
3,64,0,1
3,69,0,11
3,59,61,26
3,57,67,3
3,64,62,10
3,47,71,8
3,57,0,772
3,56,58,24
3,56,0,648
3,59,0,64
3,47,0,1
3,64,0,4
3,56,65,0
3,66,65,4
3,42,65,0
3,61,65,8
3,56,0,689
3,57,58,16
3,42,0,748
3,57,0,7
3,66,0,19
3,61,0,3
3,66,58,28
3,47,58,8
3,59,58,4
3,57,57,1
3,62,57,0
3,57,0,1511
3,66,0,1
3,62,0,1
3,47,0,1
3,59,0,10
3,49,79,29
3,61,69,11
3,64,82,4
3,57,75,2
3,59,82,0
3,64,0,1479
3,49,0,5
3,57,0,1
3,61,0,2
3,59,0,6
3,66,52,10
3,57,67,6
3,64,69,10
3,62,82,0
3,50,71,12
3,62,0,1471
3,64,0,11
3,66,0,17
3,57,0,0
3,50,0,11
3,40,73,12
3,66,45,9
3,57,51,6
3,62,73,7
3,64,63,1
3,57,0,781
3,56,49,16
3,56,0,693
3,64,0,7
3,40,0,5
3,66,0,1
3,62,0,1
3,64,68,9
3,57,68,8
3,60,68,0
3,53,68,0
3,53,0,3019
3,60,0,11
3,64,0,4
3,57,0,7
3,60,68,20
3,55,68,6
3,62,68,1
3,64,66,6
3,60,0,3028
3,55,0,2
3,64,0,7
3,62,0,6
3,64,68,19
3,57,68,8
3,60,68,0
3,53,68,0
3,60,0,3030
3,64,0,4
3,53,0,7
3,57,0,4
3,60,68,16
3,55,68,6
3,62,68,1
3,64,66,6
3,64,0,3025
3,55,0,5
3,62,0,1
3,60,0,1
3,57,68,14
3,60,68,0
3,53,68,0
3,64,68,0
3,53,0,3053
3,64,0,4
3,60,0,4
3,57,0,4
3,60,68,20
3,55,68,6
3,62,68,1
3,64,66,6
3,60,0,3020
3,55,0,10
3,62,0,5
3,64,0,2
3,64,68,25
3,57,68,8
3,60,68,0
3,53,68,0
3,53,0,3029
3,60,0,1
3,57,0,3
3,64,0,1
3,60,68,27
3,55,68,6
3,62,68,1
3,64,66,6
3,60,0,3024
3,55,0,6
3,62,0,1
3,64,0,6
3,64,68,25
3,57,68,8
3,60,68,0
3,53,68,0
3,60,0,3030
3,64,0,4
3,57,0,3
3,53,0,0
3,60,68,24
3,55,68,6
3,62,68,1
3,64,66,6
3,60,0,3004
3,55,0,14
3,62,0,9
3,64,0,2
3,64,68,33
3,57,68,8
3,60,68,0
3,53,68,0
3,60,0,3030
3,53,0,3
3,64,0,1
3,57,0,3
3,60,64,24
3,55,64,6
3,62,64,1
3,64,64,6
3,60,0,3016
3,55,0,18
3,62,0,1
3,64,0,6
3,64,52,21
3,57,52,8
3,60,52,0
3,53,52,0
3,53,0,130
3,57,0,5
3,60,0,6
3,64,0,4
3,60,41,27
3,55,41,6
3,62,41,1
3,64,41,6
3,60,0,68
3,62,0,32
3,55,0,7
3,64,0,7
3,64,30,61
3,57,30,8
3,60,30,0
3,53,30,0
3,53,0,130
3,57,0,5
3,60,0,6
3,64,0,4
3,60,19,27
3,55,19,6
3,62,19,1
3,64,19,6
3,55,0,67
3,60,0,1
3,62,0,1
3,64,0,6
4,31,113,47711
4,31,0,1116
4,31,112,36
4,31,0,313
4,31,111,71
4,31,0,1454
4,33,113,82
4,33,0,1112
4,33,115,40
4,33,0,332
4,33,115,52
4,33,0,1483
4,35,112,53
4,35,0,1113
4,35,111,39
4,35,0,325
4,35,110,59
4,35,0,757
4,43,110,11
4,43,0,749
4,38,110,19
4,38,0,1525
4,50,104,5
4,50,0,1118
4,37,114,58
4,37,0,1148
4,49,113,4
4,49,0,937
4,37,113,23
4,37,0,177
4,37,109,15
4,37,0,737
4,35,108,31
4,35,0,1077
4,35,110,75
4,35,0,280
4,30,111,104
4,30,0,741
4,37,110,27
4,37,0,375
4,42,110,9
4,42,0,364
4,35,108,20
4,35,0,1125
4,28,111,27
4,28,0,365
4,28,110,19
4,28,0,753
4,40,110,15
4,40,0,741
4,30,108,27
4,30,0,1509
4,42,105,22
4,42,0,1222
4,35,110,43
4,35,0,1493
4,40,110,27
4,40,0,11
4,50,79,31
4,50,0,539
4,37,114,23
4,37,0,1148
4,49,112,4
4,49,0,937
4,37,110,23
4,37,0,177
4,37,110,15
4,37,0,753
4,35,112,15
4,35,0,1077
4,35,112,75
4,35,0,280
4,30,110,104
4,30,0,741
4,37,112,27
4,37,0,375
4,42,110,9
4,42,0,364
4,35,110,20
4,35,0,1125
4,28,109,27
4,28,0,365
4,28,108,19
4,28,0,753
4,40,107,15
4,40,0,741
4,41,98,27
4,41,0,373
4,29,109,11
4,29,0,761
4,41,107,7
4,41,0,369
4,41,107,15
4,41,0,749
4,29,106,19
4,29,0,753
4,36,106,15
4,36,0,1074
4,36,106,78
4,36,0,349
4,48,98,16
4,48,0,1279
4,41,105,50
4,41,0,1151
4,29,102,1
4,29,0,361
4,29,97,23
4,29,0,763
4,41,95,5
4,41,0,373
4,29,94,11
4,29,0,367
4,36,93,17
4,36,0,1493
4,43,71,31
4,43,0,1265
4,36,62,113
4,36,0,2974
4,36,42,98
4,36,0,1058
4,36,49,94
4,36,0,278
4,36,51,106
4,36,0,1447
4,36,52,89
4,36,0,1094
4,36,50,58
4,36,0,263
4,36,55,121
4,36,0,1468
4,36,55,68
4,36,0,1089
4,36,54,63
4,36,0,259
4,36,60,125
4,36,0,1461
4,36,62,75
4,36,0,1081
4,36,55,71
4,36,0,264
4,36,56,120
4,36,0,1448
4,31,113,88
4,31,0,1116
4,31,112,36
4,31,0,313
4,31,112,71
4,31,0,1454
4,33,112,82
4,33,0,1112
4,33,113,40
4,33,0,332
4,33,113,52
4,33,0,1483
4,35,112,53
4,35,0,1113
4,35,110,39
4,35,0,325
4,35,110,59
4,35,0,753
4,43,110,15
4,43,0,753
4,38,112,15
4,38,0,1525
4,50,101,5
4,50,0,1118
4,37,112,58
4,37,0,1148
4,49,103,4
4,49,0,937
4,37,113,23
4,37,0,177
4,37,113,15
4,37,0,737
4,35,111,31
4,35,0,1077
4,35,109,75
4,35,0,365
4,30,109,19
4,30,0,741
4,37,112,27
4,37,0,375
4,42,105,9
4,42,0,364
4,35,112,20
4,35,0,1125
4,28,105,27
4,28,0,365
4,28,109,19
4,28,0,753
4,40,110,15
4,40,0,741
4,30,107,27
4,30,0,1485
4,42,107,22
4,42,0,1222
4,35,107,43
4,35,0,1493
4,40,105,27
4,40,0,11
4,50,95,31
4,50,0,519
4,37,111,43
4,37,0,1148
4,49,106,4
4,49,0,937
4,37,110,23
4,37,0,177
4,37,110,15
4,37,0,737
4,35,110,31
4,35,0,1129
4,35,109,23
4,35,0,365
4,30,109,19
4,30,0,741
4,37,107,27
4,37,0,375
4,42,100,9
4,42,0,364
4,35,108,20
4,35,0,1129
4,37,106,23
4,37,0,365
4,37,105,19
4,37,0,753
4,49,98,15
4,49,0,741
4,38,110,27
4,38,0,1121
4,38,111,31
4,38,0,365
4,28,109,19
4,28,0,1513
4,41,100,23
4,41,0,373
4,29,101,11
4,29,0,761
4,41,102,7
4,41,0,369
4,41,101,15
4,41,0,749
4,29,102,19
4,29,0,753
4,36,102,15
4,36,0,1074
4,36,102,78
4,36,0,349
4,48,91,16
4,48,0,1270
4,41,101,59
4,41,0,1137
4,29,96,15
4,29,0,353
4,29,96,31
4,29,0,763
4,41,95,5
4,41,0,373
4,29,95,11
4,29,0,367
4,36,93,17
4,36,0,1489
4,43,93,31
4,43,0,1359
4,41,100,19
4,41,0,373
4,29,100,11
4,29,0,761
4,41,97,7
4,41,0,369
4,41,96,15
4,41,0,749
4,29,95,19
4,29,0,753
4,36,98,15
4,36,0,1125
4,36,96,27
4,36,0,349
4,48,81,16
4,48,0,1279
4,41,99,50
4,41,0,1151
4,29,93,1
4,29,0,302
4,29,93,82
4,29,0,763
4,41,93,5
4,41,0,373
4,29,88,11
4,29,0,367
4,36,93,17
4,36,0,1
4,43,92,30
4,43,0,1323
4,41,93,55
4,41,0,373
4,29,95,11
4,29,0,761
4,41,97,7
4,41,0,369
4,41,96,15
4,41,0,749
4,29,95,19
4,29,0,753
4,36,93,15
4,36,0,1129
4,36,89,23
4,36,0,349
4,48,83,16
4,48,0,1279
4,41,93,50
4,41,0,1141
4,29,94,11
4,29,0,373
4,29,95,11
4,29,0,763
4,41,94,5
4,41,0,373
4,29,94,11
4,29,0,367
4,36,93,17
4,36,0,1493
4,43,90,31
4,43,0,1265
4,41,81,113
4,41,0,180
4,29,79,11
4,29,0,184
4,41,74,7
4,41,0,176
4,41,72,15
4,41,0,172
4,29,67,19
4,29,0,176
4,36,63,15
4,36,0,113
4,36,56,78
4,36,0,156
4,48,53,16
4,48,0,141
4,41,44,50
4,41,0,190
4,29,37,1
4,29,0,109
4,29,35,82
4,29,0,186
4,41,30,5
4,41,0,180
4,29,28,11
4,29,0,174
4,36,26,17
4,36,0,1
4,43,16,30
4,43,0,78
5,55,90,14447
5,60,90,384
5,67,69,384
5,60,0,355
5,55,0,2
5,67,0,3
5,36,62,24
5,60,75,0
5,57,69,0
5,57,0,1747
5,60,0,166
5,55,50,7
5,60,64,384
5,67,71,384
5,55,0,57
5,60,0,209
5,67,0,6
5,57,63,112
5,60,67,0
5,60,0,1837
5,57,0,47
5,55,37,36
5,60,54,384
5,36,0,372
5,67,67,12
5,55,0,13
5,60,0,28
5,67,0,324
5,36,62,19
5,57,69,0
5,60,73,0
5,60,0,1805
5,57,0,0
5,55,40,115
5,60,75,384
5,67,72,384
5,55,0,311
5,67,0,4
5,60,0,19
5,57,69,50
5,60,73,0
5,60,0,1805
5,57,0,0
5,55,55,115
5,60,75,384
5,67,64,384
5,55,0,311
5,67,0,4
5,60,0,19
5,60,73,49
5,57,69,0
5,36,0,1534
5,57,0,271
5,60,0,0
5,55,55,116
5,60,75,384
5,67,64,384
5,55,0,311
5,67,0,4
5,60,0,19
5,60,73,50
5,57,69,0
5,65,64,614
5,65,0,80
5,67,71,4
5,57,0,43
5,60,0,24
5,65,63,3
5,57,80,0
5,67,0,14
5,64,77,178
5,55,67,0
5,57,0,9
5,65,0,19
5,65,85,164
5,57,71,0
5,55,0,2
5,64,0,1
5,57,0,303
5,65,0,17
5,36,62,61
5,55,57,377
5,60,66,396
5,67,74,368
5,55,0,342
5,60,0,15
5,67,0,11
5,60,75,27
5,57,69,0
5,57,0,1747
5,60,0,166
5,55,50,7
5,60,64,384
5,67,71,384
5,55,0,57
5,60,0,209
5,67,0,6
5,57,63,112
5,60,67,0
5,60,0,1837
5,57,0,47
5,55,37,36
5,60,54,384
5,67,67,384
5,55,0,13
5,60,0,28
5,36,0,148
5,67,0,176
5,36,62,19
5,57,69,0
5,60,73,0
5,60,0,1805
5,57,0,0
5,55,40,115
5,60,75,384
5,67,72,384
5,55,0,311
5,67,0,4
5,60,0,19
5,57,82,42
5,60,93,0
5,57,0,691
5,60,0,27
5,56,71,63
5,65,64,0
5,62,90,0
5,56,0,731
5,65,0,11
5,62,0,10
5,55,69,6
5,60,80,1
5,60,0,2011
5,55,0,12
5,55,77,285
5,62,110,10
5,64,82,50
5,62,0,59
5,62,93,73
