track,note,velocity,time
2,75,70,650
2,71,73,192
2,68,87,192
2,76,83,0
2,75,69,0
2,71,76,192
2,68,90,192
2,61,64,0
2,64,65,96
2,66,73,38
2,68,73,0
2,64,76,192
2,61,78,0
2,60,31,768
2,59,21,768
2,40,29,568
2,37,36,960
2,52,36,0
2,56,57,1516
2,64,58,0
2,57,58,0
2,42,58,0
2,35,41,0
2,57,41,0
2,33,51,0
2,60,51,0
2,54,51,0
2,59,28,768
2,52,28,0
2,32,28,0
2,37,50,0
2,54,50,0
2,63,50,0
2,64,48,0
2,56,48,0
2,47,53,0
2,62,53,0
2,57,53,0
2,40,33,0
2,56,33,0
2,59,31,54
2,62,31,0
2,58,42,38
2,57,64,24
2,56,75,14
2,40,75,0
2,57,73,184
2,42,73,0
2,59,69,0
2,44,69,0
2,61,47,2
2,64,47,0
2,45,47,0
2,59,47,0
2,61,36,2
2,64,33,0
2,42,36,0
2,57,36,0
2,56,36,0
2,60,36,0
2,44,36,0
2,37,39,0
2,59,39,0
2,52,39,0
2,60,56,0
2,64,67,0
2,45,56,0
2,40,53,288
2,66,70,6
2,60,70,0
2,38,70,0
2,32,45,0
2,59,39,0
2,64,33,572
2,63,41,0
2,64,44,2
2,37,44,0
2,57,31,0
2,64,31,0
2,42,31,0
2,60,33,0
2,35,33,0
2,64,55,0
2,40,27,0
2,56,33,0
2,59,61,0
2,71,56,1134
2,76,59,190
2,66,62,2
2,75,62,0
2,68,60,6
2,76,60,0
2,42,64,952
2,69,64,0
2,47,30,1532
2,76,77,378
2,75,64,380
2,45,73,0
2,72,73,0
2,64,73,0
2,44,69,378
2,63,69,0
2,71,47,0
2,60,67,1146
2,48,67,0
2,66,67,0
2,37,58,0
2,59,58,0
2,64,58,0
2,38,47,12
2,39,54,96
2,54,65,94
2,57,65,0
2,40,65,0
2,56,53,64
2,40,53,0
2,62,53,0
2,42,61,0
2,57,61,0
2,44,68,26
2,59,68,0
2,61,65,8
2,64,65,0
2,45,65,0
2,59,65,0
2,61,62,8
2,39,62,0
2,63,62,0
2,57,62,0
2,44,69,0
2,54,69,0
2,60,67,0
2,37,58,0
2,52,58,0
2,64,58,0
2,59,58,0
2,45,73,0
2,60,73,0
2,64,73,0
2,66,77,38
2,50,77,0
2,44,64,8
2,59,64,0
2,49,68,22
2,64,68,0
2,42,55,760
2,57,55,0
2,47,51,6
2,60,51,0
2,64,51,0
2,57,51,0
2,40,25,4
2,59,54,0
2,56,44,0
2,66,74,74414
2,63,66,48
2,61,60,24
2,59,55,48
2,47,45,24
2,40,47,384
2,66,47,0
2,59,47,0
2,61,47,0
2,64,47,0
2,42,45,6
2,66,69,48
2,63,61,48
2,61,55,24
2,59,50,48
2,47,45,0
3,35,73,26186
3,35,60,90
3,35,96,84
3,28,63,0
3,27,63,0
3,25,60,0
3,30,74,0
3,35,91,0
3,23,44,864
3,42,91,0
3,47,101,72
3,45,78,90
3,44,86,358
3,39,78,1150
3,37,63,382
3,37,48,16
3,38,56,82
3,39,91,0
3,40,91,6
3,28,86,0
3,30,74,0
3,32,82,0
3,33,74,0
3,40,78,0
3,45,63,0
3,39,78,0
3,32,69,0
3,32,82,96
3,37,70,96
3,39,74,84
3,40,74,86
3,44,45,92
3,49,86,76
3,56,78,86
3,57,65,20
3,52,55,192
3,54,54,10
3,32,92,6
3,37,81,0
3,30,92,0
3,35,87,0
3,28,81,0
3,33,79,1536
3,33,83,78
3,35,87,96
3,37,89,10
3,37,76,10
3,39,75,0
3,40,78,0
3,35,78,0
3,42,84,0
3,28,87,0
3,40,98,0
3,33,106,362
3,33,88,12
3,33,92,8
3,33,77,2
3,30,106,0
3,30,88,2
3,30,84,2
3,37,73,0
3,30,70,0
3,35,84,96
3,35,76,20
3,35,84,10
3,42,71,0
3,40,88,0
3,35,80,0
3,28,80,96
3,28,82,14
3,28,82,26
3,40,91,0
3,33,92,0
3,33,80,168
3,33,73,114
3,33,80,112
3,30,84,108
3,30,76,96
3,30,76,124
3,42,84,384
3,28,105,96
3,31,83,12
3,28,49,96
3,38,105,94
3,33,100,78
3,35,87,86
3,43,47,12
3,40,85,96
3,33,100,76
3,35,95,20
3,33,92,24
3,33,77,26
3,35,82,192
3,37,82,0
3,38,91,10
3,38,79,114
3,38,82,116
3,38,65,50
3,33,70,0
3,32,84,0
3,32,70,102
3,37,92,94
3,37,73,10
3,37,72,96
3,42,77,0
3,45,77,0
3,49,85,0
3,54,85,96
3,57,82,0
3,59,70,0
3,60,69,0
3,59,59,384
3,49,70,6
3,42,88,768
3,35,76,0
3,40,73,2
3,40,71,2
3,33,81,0
3,33,84,10
3,33,81,6
3,38,67,1344
3,26,74,0
3,54,44,878
3,42,74,8
3,42,74,84
3,26,93,0
3,26,74,16
3,42,61,0
3,42,61,16
3,35,82,1536
3,35,78,128
3,35,63,118
3,35,63,62
3,32,78,22
3,32,63,94
3,32,66,124
3,39,70,82
3,32,53,0
3,37,82,2
3,25,85,576
3,25,85,96
3,30,78,0
3,42,86,0
3,40,78,0
3,39,66,10
3,39,56,126
3,39,63,112
3,32,60,74
3,32,60,74
3,32,66,104
3,39,60,0
3,32,64,0
3,30,54,0
3,37,65,96
3,42,65,16
3,35,60,18
3,37,66,6
3,39,56,192
3,40,79,16
3,40,78,122
3,40,78,106
3,40,78,52
3,34,78,18
3,34,63,70
3,39,74,192
3,39,74,86
3,32,78,18
3,39,78,288
3,44,82,8
3,42,91,192
3,40,86,6
3,33,78,384
3,39,56,378
3,39,70,88
3,32,74,108
3,39,78,126
3,32,64,26
3,37,70,2
3,44,63,14
3,49,71,96
3,44,63,166
3,42,76,0
3,30,73,0
3,35,78,0
3,35,66,94
3,35,78,100
3,35,74,66
3,32,84,86
3,32,78,48
3,32,74,92
3,32,66,68
3,37,63,108
3,44,91,288
3,49,82,94
3,44,74,30
3,37,82,12
3,44,78,8
3,37,78,192
3,30,78,2
3,35,86,56
3,37,78,0
3,39,82,0
3,35,74,192
3,40,112,0
3,40,74,174
3,40,91,114
3,35,55,94
3,40,82,0
3,34,74,192
3,40,66,128
3,39,82,2
3,34,70,116
3,32,78,192
3,35,91,0
3,37,78,10
3,39,63,96
3,40,91,4
3,33,101,384
3,39,101,26
3,39,91,116
3,32,91,92
3,39,74,92
3,32,66,10
3,37,74,0
3,44,63,0
3,49,91,8
3,42,86,768
3,30,82,750
3,35,88,766
3,35,84,96
3,35,84,42
3,35,84,92
3,35,80,52
3,35,73,266
3,35,73,218
3,32,73,92
3,32,84,144
3,32,76,158
3,32,80,118
3,30,73,20
3,27,36,96
3,32,76,94
3,30,76,14
3,28,84,54
3,28,73,150
3,28,80,160
3,28,83,76
3,28,73,58
3,30,88,132
3,30,80,122
3,30,84,154
3,23,84,54
4,66,103,650
4,40,103,0
4,63,102,192
4,59,101,192
4,68,100,0
4,66,93,0
4,37,93,0
4,63,90,174
4,59,95,192
4,59,87,0
4,42,87,0
4,56,95,186
4,52,102,192
4,61,68,0
4,64,54,0
4,35,68,0
4,57,48,148
4,64,40,6
4,61,49,0
4,57,34,12
4,60,45,2
4,64,45,0
4,57,23,16
4,52,19,0
4,56,16,0
4,59,25,0
4,57,88,38392
4,61,83,0
4,64,88,0
4,33,78,0
4,33,82,84
4,54,78,0
4,63,82,0
4,59,95,0
4,35,82,0
4,64,88,8
4,37,103,0
4,61,78,0
4,37,64,10
4,39,63,0
4,40,66,0
4,59,63,0
4,66,70,0
4,35,66,0
4,57,70,0
4,62,88,0
4,42,72,0
4,28,38,0
4,64,83,0
4,57,78,0
4,59,83,0
4,40,77,0
4,56,77,0
4,64,77,0
4,59,77,0
4,61,55,0
4,52,55,0
4,45,63,0
4,59,72,0
4,57,67,764
4,56,59,22
4,59,63,0
4,52,59,0
4,42,72,0
4,57,72,18
4,61,41,0
4,54,59,4
4,57,67,0
4,62,77,0
4,47,59,0
4,40,41,32
4,52,51,0
4,57,59,0
4,62,59,0
4,40,72,40
4,56,67,22
4,52,47,0
4,62,37,0
4,57,75,76
4,61,70,0
4,52,70,0
4,45,75,0
4,45,53,36
4,42,60,0
4,56,60,0
4,52,60,0
4,59,60,0
4,42,53,56
4,52,60,68
4,57,60,0
4,61,60,0
4,42,61,2
4,55,60,0
4,59,60,0
4,40,60,0
4,62,60,0
4,40,57,52
4,61,60,0
4,55,60,0
4,45,60,0
4,45,57,38
4,45,62,0
4,61,62,0
4,57,62,0
4,62,60,0
4,59,60,0
4,47,60,0
4,64,57,0
4,61,57,0
4,49,57,0
4,66,65,0
4,57,65,0
4,38,65,0
4,62,65,0
4,59,60,0
4,62,60,0
4,66,60,0
4,44,60,0
4,59,65,4
4,61,65,0
4,65,65,0
4,37,65,0
4,42,67,52
4,66,67,0
4,57,67,0
4,61,67,0
4,60,60,0
4,57,60,0
4,65,60,0
4,38,60,0
4,65,52,0
4,57,52,0
4,59,52,0
4,43,52,0
4,64,55,0
4,37,55,0
4,59,55,0
4,37,45,48
4,42,47,0
4,57,47,0
4,64,47,0
4,62,65,0
4,35,54,0
4,57,53,0
4,40,57,1536
4,33,35,0
4,30,75,8742
4,73,75,0
4,71,75,0
4,66,75,0
4,73,82,176
4,66,82,0
4,71,82,0
4,30,78,0
4,73,83,82
4,71,83,0
4,66,83,0
4,30,86,0
4,63,90,0
4,54,90,0
4,61,107,0
4,47,98,0
4,59,102,768
4,58,94,22
4,61,98,0
4,54,94,0
4,44,107,0
4,59,107,0
4,63,76,0
4,59,102,18
4,64,112,0
4,56,94,0
4,54,94,52
4,59,94,0
4,64,94,0
4,58,102,22
4,54,82,0
4,64,72,0
4,58,91,76
4,63,86,0
4,54,86,0
4,39,91,0
4,46,69,36
4,44,76,0
4,58,76,0
4,54,76,0
4,61,76,0
4,44,69,56
4,54,76,68
4,59,76,0
4,63,76,0
4,44,77,2
4,57,76,0
4,61,76,0
4,64,76,0
4,47,73,672
4,63,78,0
4,59,78,0
4,64,76,0
4,61,76,0
4,66,73,0
4,63,73,0
4,68,81,0
4,59,81,0
4,40,81,0
4,64,81,0
4,61,76,0
4,64,76,0
4,68,76,0
4,46,76,0
4,61,81,4
4,63,81,0
4,67,81,0
4,39,81,0
4,44,83,52
4,68,83,0
4,59,83,0
4,63,83,0
4,62,76,0
4,59,76,0
4,67,76,0
4,67,68,0
4,59,68,0
4,61,68,0
4,66,71,0
4,39,71,0
4,61,71,0
4,39,61,48
4,44,63,0
4,59,63,0
4,66,63,0
4,64,81,0
4,37,48,0
4,59,69,0
4,64,86,6
4,59,74,2
4,61,70,0
4,63,82,96
4,54,82,0
4,61,82,0
4,47,82,0
4,59,102,734
4,58,93,22
4,61,93,0
4,54,93,0
4,44,93,0
4,59,93,2
4,63,93,0
4,59,91,18
4,64,91,0
4,49,91,0
4,56,91,0
4,57,76,32
4,61,76,0
4,42,76,0
4,64,76,0
4,47,73,672
4,63,78,0
4,59,78,0
4,64,76,0
4,61,76,0
4,66,73,0
4,63,73,0
4,68,81,0
4,59,81,0
4,40,81,0
4,64,81,0
4,61,76,0
4,64,76,0
4,68,76,0
4,46,76,0
4,61,81,4
4,63,81,0
4,67,81,0
4,39,81,0
4,68,83,52
4,59,83,0
4,63,83,0
4,62,76,0
4,59,76,0
4,67,76,0
4,67,68,0
4,59,68,0
4,61,68,0
4,66,71,0
4,39,71,0
4,61,71,0
4,39,61,48
4,44,63,0
4,59,63,0
4,66,63,0
4,64,81,0
4,37,48,0
4,59,69,0
5,68,67,7562
5,69,78,0
5,71,74,288
5,69,74,8
5,71,74,52
5,68,67,264
5,69,78,2
5,71,74,96
5,69,58,66
5,71,78,16
5,69,78,0
5,68,55,4
5,69,67,92
5,71,74,40
5,69,67,188
5,69,69,948
5,68,73,2
5,66,65,128
5,68,64,122
5,69,64,374
5,68,68,2
5,66,65,128
5,68,64,122
5,68,60,568
5,69,68,4
5,71,78,2
5,69,68,0
5,71,82,0
5,73,70,24
5,73,78,22
5,78,71,278
5,80,82,26
5,78,76,2
5,78,76,56
5,76,76,186
5,76,81,42
5,73,61,136
5,75,71,88
5,76,81,6
5,81,79,366
5,80,73,0
5,78,68,4
5,76,82,0
5,74,66,226
5,76,79,0
5,74,79,12
5,74,76,42
5,72,87,8
5,71,85,92
5,69,52,96
5,71,86,20
5,69,82,114
5,68,82,0
5,69,86,126
5,76,82,214
5,76,76,132
5,76,75,46
5,76,73,58
5,76,82,38
5,75,78,0
5,71,82,108
5,68,78,106
5,68,86,70
5,69,86,12
5,71,90,108
5,69,82,30
5,71,82,32
5,69,82,56
5,68,82,12
5,70,62,94
5,71,86,12
5,69,90,198
5,75,100,318
5,72,100,0
5,72,90,36
5,71,95,60
5,71,88,358
5,73,90,4
5,66,69,18
5,64,90,44
5,68,77,82
5,69,86,2
5,71,91,2
5,71,96,30
5,73,95,596
5,73,93,34
5,81,96,82
5,80,94,4
5,78,92,0
5,76,91,126
5,73,86,94
5,75,82,96
5,76,105,92
5,81,105,376
5,80,100,16
5,78,99,8
5,76,99,6
5,74,69,214
5,76,95,2
5,74,100,2
5,74,91,48
5,72,100,4
5,71,105,188
5,69,95,78
5,71,95,0
5,69,95,2
5,68,95,4
5,69,95,0
5,76,100,172
5,76,96,60
5,76,96,26
5,76,96,58
5,76,97,450
5,76,85,24
5,76,92,32
5,76,102,20
5,76,102,86
5,78,91,94
5,80,96,8
5,78,91,172
5,78,86,18
5,76,102,16
5,76,102,8
5,76,109,258
5,78,92,96
5,80,82,2
5,81,97,10
5,80,87,0
5,78,103,96
5,76,100,180
5,78,103,80
5,81,112,98
5,80,110,384
5,76,101,86
5,73,119,62
5,81,119,78
5,80,99,10
5,76,109,110
5,73,114,116
5,73,119,100
5,74,114,0
5,76,125,20
5,74,125,4
5,76,114,20
5,74,114,82
5,73,99,0
5,74,119,96
5,76,119,26
5,74,119,260
5,81,125,822
5,80,99,6
5,76,109,106
5,73,109,110
5,81,109,4
5,80,95,0
5,76,109,0
5,73,119,148
5,73,114,184
5,74,109,4
5,76,109,10
5,78,107,2
5,76,114,18
5,78,112,24
5,78,108,14
5,76,113,24
5,78,113,12
5,76,117,4
5,83,110,208
5,85,105,12
5,83,116,154
5,83,116,40
5,81,105,206
5,81,105,32
5,78,105,1352
5,80,95,76
5,81,116,12
5,86,122,382
5,85,111,4
5,83,122,390
5,81,116,4
5,79,100,144
5,81,105,18
5,79,105,180
5,79,105,40
5,77,95,10
5,76,105,190
5,76,110,120
5,74,100,0
5,73,100,138
5,74,105,6
5,81,105,202
5,81,102,96
5,81,100,0
5,81,104,576
5,80,93,0
5,81,98,0
5,81,103,12
5,66,100,218
5,66,78,58
5,66,86,64
5,69,86,190
5,68,86,4
5,66,80,192
5,64,90,184
5,66,88,180
5,66,85,40
5,66,95,252
5,69,86,96
5,68,90,70
5,66,90,188
5,64,86,8
5,66,100,192
5,61,86,22
5,66,100,194
5,66,100,746
5,66,95,74
5,66,95,74
5,69,100,186
5,71,100,12
5,69,95,192
5,68,95,0
5,69,95,0
5,66,95,8
5,66,105,40
5,69,95,96
5,68,100,2
5,66,90,4
5,64,95,186
5,66,100,202
5,61,83,352
5,66,105,2
5,71,122,172
5,70,116,34
5,66,116,96
5,63,110,98
5,71,122,6
5,70,95,4
5,66,116,92
5,63,110,84
5,63,105,82
5,64,95,6
5,66,116,104
5,64,100,34
5,66,100,0
5,64,107,8
5,63,100,0
5,66,116,100
5,64,110,6
5,73,122,160
5,70,110,384
5,68,110,90
5,66,122,78
5,71,122,4
5,70,112,20
5,66,114,96
5,61,111,94
5,63,110,0
5,63,116,48
5,64,105,86
5,66,116,96
5,66,110,28
5,68,100,38
5,68,116,8
5,75,122,170
5,73,116,0
5,73,122,46
5,71,116,4
5,71,122,42
5,68,110,278
5,70,105,86
5,71,110,8
5,76,127,0
5,75,122,4
5,73,116,4
5,71,122,188
5,69,122,106
5,71,110,30
5,69,116,0
5,69,116,42
5,67,116,196
5,66,122,2
5,64,105,8
5,66,122,110
5,64,95,118
