track,note,velocity,time
0,52,97,135
0,52,101,0
0,88,96,0
0,40,83,0
0,55,82,0
0,59,83,0
0,64,83,0
0,59,103,8
0,86,103,1
0,55,90,2
0,67,92,124
0,84,101,0
0,64,115,1
0,59,95,1
0,83,100,14
0,64,102,120
0,59,95,1
0,48,98,2
0,48,102,0
0,81,105,1
0,48,86,0
0,60,87,0
0,55,94,160
0,55,99,0
0,79,104,2
0,64,82,1
0,78,101,1
0,60,99,1
0,64,95,0
0,79,107,118
0,78,106,99
0,76,106,108
0,50,108,5
0,50,95,3
0,88,98,0
0,50,80,0
0,57,80,0
0,57,92,28
0,86,93,0
0,57,105,1
0,66,104,7
0,84,93,0
0,62,93,1
0,66,91,0
0,83,114,58
0,62,90,12
0,66,90,0
0,45,92,3
0,81,97,1
0,45,85,0
0,55,85,0
0,60,84,0
0,45,97,4
0,52,101,235
0,79,106,0
0,55,78,2
0,60,97,1
0,60,78,0
0,78,93,0
0,60,107,4
0,67,108,3
0,69,97,25
0,79,97,10
0,78,80,120
0,67,102,0
0,59,96,3
0,76,90,80
0,52,101,0
0,88,96,0
0,40,84,0
0,59,85,0
0,64,85,0
0,52,97,4
0,59,103,8
0,86,103,1
0,59,77,3
0,67,92,50
0,84,101,0
0,67,94,2
0,64,98,1
0,83,100,14
0,64,107,120
0,67,105,1
0,48,86,2
0,48,102,0
0,81,105,0
0,36,84,0
0,60,84,0
0,55,99,160
0,55,70,2
0,79,104,0
0,67,71,6
0,60,66,1
0,64,82,1
0,78,101,1
0,60,99,4
0,67,107,0
0,79,107,115
0,78,106,99
0,76,106,108
0,50,95,66
0,88,98,0
0,50,87,0
0,57,86,0
0,62,87,0
0,66,87,0
0,50,96,0
0,86,93,28
0,57,105,1
0,57,87,1
0,66,104,7
0,84,93,0
0,66,90,1
0,62,96,2
0,83,114,237
0,62,97,6
0,66,95,0
0,55,94,0
0,60,98,2
0,45,92,1
0,81,97,1
0,45,84,0
0,55,85,0
0,60,84,0
0,64,84,0
0,52,101,1
0,79,106,0
0,45,73,150
0,60,78,4
0,78,93,0
0,60,79,1
0,55,70,1
0,79,97,10
0,78,80,120
0,76,90,115
0,40,72,0
0,40,75,0
0,55,69,0
0,59,69,3
0,64,68,2
0,52,77,181
0,59,78,3
0,67,96,236
0,59,89,1
0,67,91,3
0,52,65,118
0,76,105,2
0,64,78,18
0,59,75,1
0,76,104,0
0,48,94,0
0,76,105,0
0,48,75,0
0,60,70,3
0,76,105,19
0,55,92,0
0,55,86,4
0,76,104,19
0,64,93,120
0,60,71,3
0,64,95,0
0,76,105,19
0,76,104,19
0,50,70,3
0,50,76,2
0,57,69,1
0,62,73,0
0,66,60,0
0,74,104,19
0,57,92,45
0,62,64,3
0,66,49,1
0,57,77,8
0,66,93,0
0,66,76,3
0,62,78,1
0,74,105,236
0,74,105,7
0,66,89,7
0,62,82,1
0,74,104,19
0,45,77,0
0,60,74,0
0,64,75,0
0,45,87,4
0,72,104,19
0,52,82,0
0,52,83,7
0,71,105,19
0,60,98,0
0,60,94,2
0,55,89,1
0,72,105,19
0,71,104,2
0,52,91,0
0,55,68,0
0,52,68,2
0,59,69,0
0,59,83,60
0,59,80,7
0,67,100,167
0,64,99,5
0,67,97,0
0,76,104,235
0,76,105,19
0,76,104,0
0,48,76,0
0,60,71,3
0,48,86,1
0,76,105,5
0,76,105,19
0,55,97,0
0,55,78,3
0,76,104,19
0,64,104,111
0,59,83,3
0,64,93,0
0,76,105,19
0,76,104,19
0,50,81,1
0,50,78,1
0,57,68,0
0,62,73,0
0,66,60,0
0,74,104,19
0,57,91,119
0,57,72,4
0,66,94,104
0,62,93,1
0,66,90,0
0,64,1,11
0,74,105,1
0,62,99,2
0,66,91,0
0,45,72,9
0,67,1,4
0,45,85,0
0,74,105,1
0,60,74,0
0,64,75,0
0,52,83,5
0,66,1,0
0,52,78,0
0,72,104,1
0,60,78,4
0,60,98,0
0,64,74,1
0,71,104,0
0,64,1,0
0,72,105,5
0,66,1,0
0,71,105,5
0,64,1,0
0,52,63,2
0,52,77,0
0,55,69,0
0,59,68,2
0,59,71,209
0,59,91,3
0,64,82,236
0,67,86,0
0,67,98,4
0,69,104,2
0,62,1,3
0,71,104,7
0,64,1,0
0,69,105,0
0,62,1,0
0,67,104,0
0,59,1,0
0,69,105,0
0,62,1,0
0,64,99,5
0,59,77,1
0,71,105,0
0,64,1,0
0,48,84,0
0,48,92,0
0,60,70,1
0,69,104,0
0,62,1,0
0,55,87,120
0,55,72,2
0,64,103,238
0,64,79,4
0,67,88,0
0,50,80,1
0,57,69,0
0,62,73,0
0,66,60,0
0,50,83,5
0,57,92,228
0,57,83,1
0,66,90,235
0,62,87,1
0,66,95,3
0,74,105,241
0,62,94,7
0,66,88,0
0,74,104,2
0,45,69,1
0,45,80,0
0,74,104,1
0,60,74,0
0,64,75,0
0,52,75,4
0,55,99,5
0,72,105,1
0,71,105,10
0,55,74,117
0,60,88,0
0,60,95,2
0,72,104,10
0,71,104,10
0,52,73,1
0,52,90,1
0,55,68,0
0,59,73,0
0,59,69,0
0,59,87,194
0,55,86,3
0,67,110,21
0,64,78,7
0,67,83,0
0,76,105,202
0,45,82,6
0,76,105,19
0,47,91,7
0,76,104,0
0,48,80,0
0,60,71,0
0,48,97,0
0,48,92,1
0,76,104,19
0,55,97,0
0,55,71,5
0,60,96,123
0,64,94,0
0,76,105,1
0,64,99,0
0,76,104,132
0,74,105,0
0,50,76,0
0,50,57,0
0,57,68,0
0,62,73,0
0,66,60,0
0,57,90,60
0,57,75,1
0,66,76,167
0,62,78,1
0,66,95,0
0,67,87,116
0,66,79,119
0,74,105,3
0,57,100,12
0,62,96,0
0,74,104,0
0,45,77,1
0,45,83,1
0,74,105,0
0,60,74,0
0,64,75,0
0,57,98,18
0,72,104,1
0,52,72,2
0,71,104,19
0,60,96,0
0,60,79,2
0,67,71,1
0,72,105,19
0,40,101,1
0,52,96,0
0,64,99,0
0,71,105,1
0,52,91,0
0,55,75,0
0,59,70,0
0,64,76,0
0,64,100,111
0,67,99,29
0,59,66,1
0,64,95,101
0,28,96,31
0,71,96,0
0,59,70,0
0,71,99,0
0,64,102,11
0,67,104,43
0,59,71,1
0,64,101,88
0,71,104,1
0,63,89,17
0,39,97,1
0,51,65,0
0,63,73,0
0,76,104,0
0,63,94,13
0,59,82,17
0,67,100,1
0,78,105,1
0,63,85,18
0,79,105,1
0,71,70,84
0,59,79,1
0,71,110,0
0,63,92,0
0,27,97,1
0,78,104,0
0,63,81,102
0,67,105,0
0,63,98,18
0,76,104,1
0,50,87,5
0,26,102,0
0,62,78,0
0,50,99,0
0,71,105,0
0,62,67,0
0,62,78,99
0,67,101,119
0,59,90,1
0,62,80,48
0,38,107,17
0,71,93,0
0,59,90,0
0,71,109,0
0,62,95,16
0,59,66,120
0,67,96,0
0,62,90,23
0,71,105,1
0,49,83,0
0,61,89,1
0,37,100,0
0,49,93,0
0,71,111,0
0,61,76,0
0,76,104,1
0,61,78,17
0,78,105,19
0,59,68,1
0,67,100,1
0,61,87,18
0,79,105,1
0,71,93,113
0,71,110,0
0,59,101,1
0,61,87,18
0,25,100,1
0,78,104,0
0,67,88,102
0,67,108,1
0,76,105,3
0,61,103,0
0,48,88,24
0,55,93,37
0,59,95,34
0,24,105,0
0,48,94,0
0,48,78,0
0,59,67,0
0,64,64,0
0,64,94,4
0,67,94,64
0,76,87,24
0,55,78,1
0,59,79,0
0,64,79,0
0,72,91,42
0,60,90,12
0,79,108,0
0,55,90,1
0,59,78,0
0,64,95,0
0,67,97,8
0,76,104,41
0,76,99,12
0,55,70,1
0,59,67,0
0,64,87,0
0,76,104,19
0,72,94,8
0,59,66,1
0,64,95,0
0,26,99,5
0,50,60,0
0,50,98,1
0,78,83,0
0,50,79,0
0,57,79,0
0,66,78,0
0,76,105,1
0,57,90,69
0,69,86,0
0,74,105,6
0,62,97,78
0,74,95,1
0,74,104,19
0,54,71,39
0,69,93,0
0,57,92,8
0,62,78,1
0,78,93,0
0,74,104,1
0,54,68,42
0,69,90,1
0,72,105,11
0,50,87,46
0,74,98,0
0,72,105,19
0,62,99,16
0,69,105,1
0,43,56,5
0,43,97,0
0,74,100,0
0,71,104,0
0,43,87,0
0,59,64,0
0,62,64,0
0,31,98,1
0,55,96,20
0,62,74,1
0,74,104,19
0,59,69,58
0,72,111,1
0,62,82,75
0,62,83,1
0,67,101,48
0,55,98,0
0,71,108,0
0,55,79,73
0,62,83,2
0,71,102,74
0,69,106,0
0,72,105,1
0,62,95,18
0,71,104,1
0,43,93,4
0,62,92,0
0,43,103,0
0,66,92,0
0,76,105,0
0,50,60,85
0,59,73,0
0,60,91,19
0,74,105,0
0,64,102,0
0,59,78,50
0,55,59,1
0,60,91,7
0,59,94,2
0,33,98,17
0,72,104,2
0,59,97,0
0,50,64,2
0,35,105,18
0,71,105,1
0,57,98,0
0,55,83,0
0,38,109,0
0,55,100,1
0,52,81,0
0,40,102,1
0,52,91,0
0,55,75,0
0,59,71,0
0,64,76,0
0,64,101,82
0,59,82,119
0,64,96,0
0,67,98,0
0,64,94,101
0,59,71,120
0,71,98,0
0,71,101,0
0,64,103,6
0,64,1,42
0,64,88,1
0,67,105,0
0,71,104,1
0,64,1,12
0,64,100,1
0,71,104,1
0,67,1,7
0,51,65,0
0,63,72,0
0,39,102,0
0,51,81,0
0,76,105,0
0,71,110,0
0,63,94,13
0,78,105,14
0,69,1,8
0,59,71,1
0,67,101,0
0,63,82,1
0,63,85,5
0,79,104,0
0,71,1,1
0,59,78,118
0,71,110,0
0,71,97,1
0,63,93,7
0,69,1,1
0,78,104,14
0,67,105,0
0,63,82,1
0,76,105,14
0,63,98,7
0,67,1,1
0,50,98,0
0,71,105,0
0,62,67,0
0,38,103,0
0,50,88,0
0,74,105,8
0,62,78,39
0,71,104,25
0,76,111,72
0,59,75,7
0,67,101,0
0,62,81,48
0,62,79,104
0,59,90,0
0,71,109,0
0,71,102,1
0,62,94,16
0,64,1,120
0,67,96,0
0,67,70,1
0,71,104,0
0,64,1,10
0,62,91,0
0,71,105,1
0,49,93,2
0,71,110,0
0,61,77,0
0,37,100,1
0,49,101,0
0,76,104,0
0,67,1,0
0,61,78,14
0,69,1,9
0,59,77,2
0,78,105,0
0,67,101,0
0,61,87,18
0,79,105,1
0,71,1,9
0,64,82,8
0,71,102,0
0,71,110,0
0,71,84,0
0,59,100,1
0,69,1,9
0,61,87,5
0,78,104,1
0,28,79,34
0,67,103,0
0,67,108,0
0,69,99,0
0,26,97,1
0,67,1,0
0,76,105,1
0,61,103,0
0,24,106,0
0,48,70,0
0,48,95,0
0,48,78,0
0,59,66,0
0,64,65,0
0,79,102,1
0,76,107,0
0,67,95,38
0,55,79,24
0,76,86,0
0,74,110,0
0,72,90,115
0,62,97,9
0,60,91,1
0,79,109,0
0,72,109,5
0,67,96,8
0,60,98,26
0,76,98,0
0,76,104,1
0,71,104,3
0,72,95,3
0,76,104,1
0,50,69,0
0,50,99,0
0,78,82,0
0,50,78,0
0,57,79,0
0,66,79,0
0,26,107,1
0,76,105,0
0,69,86,69
0,69,102,3
0,57,88,25
0,74,95,0
0,74,105,1
0,69,92,2
0,74,104,1
0,62,92,7
0,66,103,0
0,62,79,0
0,78,93,0
0,69,90,3
0,57,89,88
0,74,99,0
0,72,104,1
0,69,104,11
0,72,105,1
0,52,86,0
0,28,108,0
0,52,82,0
0,76,105,0
0,52,86,0
0,59,65,0
0,64,64,0
0,71,105,17
0,67,101,4
0,59,78,115
0,71,108,2
0,67,100,83
0,64,95,58
0,67,97,0
0,76,115,0
0,67,91,66
0,71,110,120
0,59,82,1
0,76,104,1
0,67,100,15
0,79,104,4
0,76,105,18
0,52,86,4
0,67,92,16
0,78,105,3
0,71,105,18
0,59,75,1
0,76,104,0
0,67,99,16
0,78,105,3
0,76,94,16
0,55,96,3
0,64,97,0
0,64,97,0
0,76,105,0
0,55,85,0
0,64,85,0
0,57,100,0
0,66,99,0
0,57,88,0
0,66,88,0
0,59,102,2
0,67,102,0
0,64,95,0
0,67,90,0
0,52,93,0
0,59,86,0
0,52,101,0
0,88,96,0
0,59,95,0
0,67,95,0
0,40,82,0
0,55,83,0
0,59,83,0
0,64,82,0
0,59,102,8
0,86,103,1
0,55,71,2
0,71,107,5
0,67,93,1
0,84,100,0
0,64,87,1
0,59,64,1
0,83,100,14
0,64,102,16
0,59,95,1
0,48,99,2
0,60,79,0
0,64,78,0
0,48,77,0
0,55,87,0
0,48,103,0
0,81,105,0
0,48,86,0
0,60,87,0
0,55,94,160
0,55,98,0
0,79,104,2
0,64,83,1
0,78,100,1
0,60,98,1
0,64,95,0
0,79,107,59
0,78,107,59
0,64,110,10
0,69,112,0
0,76,106,60
0,50,108,5
0,50,95,3
0,88,98,0
0,62,77,1
0,66,88,0
0,50,104,0
0,57,83,0
0,50,81,0
0,57,80,0
0,68,97,3
0,57,93,28
0,86,92,0
0,57,105,1
0,66,105,7
0,84,92,0
0,62,93,1
0,66,90,0
0,69,94,0
0,83,114,238
0,62,91,12
0,66,90,0
0,45,93,3
0,60,93,1
0,64,93,0
0,45,86,0
0,52,88,0
0,81,97,0
0,45,58,0
0,45,84,0
0,55,85,0
0,60,84,0
0,45,96,4
0,52,100,59
0,79,106,0
0,52,73,0
0,55,79,1
0,60,97,1
0,76,104,0
0,60,79,0
0,78,92,0
0,59,71,2
0,60,106,2
0,67,108,3
0,69,97,25
0,79,97,9
0,78,105,1
0,78,81,9
0,79,104,1
0,60,86,1
0,67,103,0
0,59,96,3
0,76,90,9
0,78,104,1
0,79,105,0
0,78,105,18
0,76,104,0
0,64,78,0
0,67,86,0
0,52,87,0
0,59,83,0
0,52,101,0
0,88,96,0
0,52,77,0
0,40,85,0
0,59,85,0
0,64,84,0
0,52,96,4
0,59,102,8
0,86,103,1
0,59,72,2
0,59,77,1
0,71,105,27
0,71,104,0
0,67,93,1
0,84,100,0
0,76,104,1
0,67,78,0
0,67,94,0
0,64,99,1
0,78,105,15
0,83,100,14
0,79,105,1
0,64,107,8
0,67,104,1
0,78,104,0
0,79,104,0
0,78,105,0
0,48,67,7
0,48,87,2
0,64,95,0
0,48,94,0
0,55,95,0
0,48,103,0
0,76,104,0
0,67,72,0
0,81,105,0
0,36,85,0
0,60,84,0
0,55,98,2
0,55,83,1
0,55,70,1
0,79,104,0
0,67,70,6
0,60,67,1
0,64,83,1
0,78,100,1
0,60,99,4
0,67,106,0
0,62,70,1
0,79,107,59
0,60,74,52
0,78,107,7
0,76,105,60
0,76,106,0
0,50,95,0
0,88,98,0
0,62,86,1
0,66,79,0
0,50,93,0
0,57,82,0
0,50,55,0
0,74,105,0
0,50,86,0
0,57,87,0
0,62,87,0
0,66,86,0
0,50,96,0
0,86,92,28
0,57,105,1
0,57,77,0
0,57,87,1
0,69,96,6
0,66,105,1
0,84,92,0
0,66,86,0
0,66,91,1
0,62,96,2
0,83,114,59
0,74,104,0
0,45,96,28
0,52,99,3
0,45,103,5
0,55,100,1
0,55,107,0
0,60,83,0
0,64,79,0
0,45,82,0
0,52,77,0
0,72,105,0
0,45,84,0
0,55,85,0
0,60,85,0
0,64,84,0
0,60,108,2
0,60,103,0
0,64,106,21
0,64,101,10
0,45,109,40
0,27,61,59
0,37,97,0
0,35,121,1
0,40,113,0
0,28,97,39
0,37,108,0
0,39,107,0
0,41,93,1
0,36,110,0
0,55,86,0
0,60,97,0
0,63,86,0
0,60,100,0
0,63,101,0
0,48,100,0
0,55,101,0
0,35,122,0
0,49,87,0
0,63,79,0
0,55,78,13
0,60,79,0
0,63,79,0
0,69,27,0
0,48,94,0
0,55,94,70
0,60,94,0
0,63,95,0
0,42,91,0
0,82,47,0
0,55,107,60
0,60,106,0
0,63,106,0
0,27,60,0
0,69,30,0
0,40,112,5
0,42,102,0
0,82,46,0
0,55,99,3
0,60,104,0
0,63,89,0
