track,note,velocity,time
0,57,86,337
0,64,70,0
0,71,74,0
0,88,85,0
0,93,85,0
0,100,85,1
0,76,63,23
0,57,79,24
0,62,79,1
0,45,79,0
0,45,90,0
0,36,105,0
0,76,100,2
0,36,80,1
0,36,100,1
0,36,60,1
0,36,105,1
0,96,85,0
0,36,85,1
0,62,79,1
0,50,52,0
0,38,79,1
0,57,79,0
0,67,79,0
0,38,90,0
0,36,105,0
0,93,85,0
0,69,96,2
0,36,80,1
0,72,61,12
0,69,76,12
0,36,100,1
0,36,60,1
0,36,105,1
0,36,85,1
0,57,124,1
0,64,120,0
0,67,120,0
0,45,79,2
0,62,79,0
0,57,68,0
0,60,68,0
0,62,78,0
0,57,79,1
0,45,90,0
0,36,105,0
0,86,85,0
0,98,85,0
0,36,80,1
0,36,100,1
0,36,60,1
0,74,63,9
0,36,105,1
0,88,85,0
0,100,85,0
0,76,80,0
0,36,85,1
0,76,96,2
0,38,79,1
0,67,79,0
0,50,63,0
0,57,68,0
0,64,70,0
0,72,80,0
0,57,79,1
0,62,79,0
0,38,90,0
0,36,105,0
0,36,80,1
0,36,100,1
0,36,60,1
0,69,80,0
0,36,105,1
0,36,85,1
0,37,112,1
0,38,57,0
0,37,80,1
0,38,46,0
0,71,100,1
0,37,61,0
0,38,35,0
0,79,59,12
0,37,41,1
0,38,24,0
0,76,68,1
0,37,21,0
0,38,18,0
0,74,78,1
0,62,100,6
0,57,70,0
0,45,86,1
0,72,68,0
0,57,92,0
0,33,110,0
0,36,105,0
0,62,90,1
0,36,80,0
0,37,10,0
0,38,10,0
0,62,90,1
0,60,90,1
0,62,90,3
0,37,90,0
0,38,55,0
0,62,93,3
0,60,90,1
0,62,90,1
0,62,93,1
0,36,100,0
0,60,90,3
0,64,99,1
0,37,90,0
0,38,55,0
0,62,90,9
0,36,60,6
0,36,105,1
0,62,99,1
0,62,90,1
0,60,90,1
0,62,90,1
0,37,90,0
0,38,55,0
0,62,99,1
0,60,90,1
0,62,90,0
0,62,93,1
0,36,85,0
0,60,90,1
0,64,96,1
0,37,90,0
0,38,55,0
0,62,90,1
0,60,90,1
0,38,76,1
0,60,83,0
0,57,70,0
0,50,78,1
0,55,86,0
0,26,110,0
0,36,105,0
0,62,90,16
0,36,80,0
0,62,90,12
0,60,90,12
0,62,90,10
0,37,90,0
0,38,55,0
0,62,96,15
0,60,90,10
0,62,90,10
0,62,90,30
0,36,100,0
0,60,90,8
0,64,102,10
0,37,90,0
0,38,55,0
0,62,90,11
0,36,60,24
0,36,105,20
0,62,96,18
0,62,90,13
0,60,90,11
0,62,90,11
0,37,90,0
0,38,55,0
0,62,90,18
0,60,90,12
0,100,96,8
0,62,90,1
0,62,90,30
0,36,85,0
0,60,90,8
0,64,96,1
0,76,127,0
0,37,90,0
0,38,55,0
0,62,99,1
0,98,83,1
0,60,90,1
0,62,96,1
0,93,92,0
0,57,70,0
0,57,96,1
0,33,110,0
0,36,105,0
0,45,74,1
0,62,90,1
0,62,92,0
0,65,92,0
0,36,80,0
0,62,90,1
0,62,83,0
0,65,86,0
0,60,90,10
0,60,70,0
0,64,76,0
0,62,90,10
0,62,86,0
0,65,89,0
0,37,90,0
0,38,55,0
0,62,93,27
0,62,86,0
0,65,86,0
0,60,90,8
0,60,70,0
0,64,76,0
0,62,90,10
0,62,80,0
0,65,83,0
0,62,93,27
0,62,96,0
0,65,89,0
0,36,100,0
0,60,90,10
0,60,76,0
0,64,76,0
0,64,99,1
0,64,83,0
0,67,92,0
0,37,90,0
0,38,55,0
0,62,90,1
0,62,72,0
0,65,74,0
0,36,60,1
0,36,105,1
0,62,99,1
0,62,86,0
0,65,89,0
0,62,90,1
0,62,78,0
0,65,86,0
0,60,90,1
0,60,78,0
0,64,83,0
0,62,90,1
0,62,76,0
0,65,86,0
0,37,90,0
0,38,55,0
0,62,99,1
0,62,80,0
0,65,86,0
0,60,90,1
0,60,66,0
0,64,83,0
0,62,90,1
0,62,78,0
0,65,78,0
0,62,93,1
0,62,89,0
0,65,83,0
0,36,85,0
0,60,90,1
0,60,51,0
0,64,72,0
0,64,96,1
0,64,92,0
0,67,92,0
0,37,90,0
0,38,55,0
0,62,90,1
0,62,76,0
0,65,80,0
0,60,90,1
0,60,74,0
0,64,76,0
0,57,70,1
0,38,63,1
0,50,70,0
0,55,80,0
0,26,110,0
0,69,127,0
0,36,105,0
0,60,78,1
0,62,90,1
0,62,86,0
0,65,86,0
0,36,80,0
0,62,90,1
0,62,78,0
0,65,89,0
0,60,90,1
0,60,76,0
0,64,78,0
0,62,90,1
0,62,78,0
0,65,86,0
0,37,90,0
0,38,55,0
0,62,96,1
0,62,83,0
0,65,80,0
0,60,90,1
0,60,72,0
0,64,76,0
0,62,90,1
0,62,80,0
0,65,86,0
0,62,90,1
0,62,83,0
0,65,78,0
0,36,100,0
0,60,90,1
0,60,58,0
0,64,70,0
0,64,102,1
0,64,83,0
0,67,92,0
0,37,90,0
0,38,55,0
0,62,90,1
0,62,74,0
0,65,86,0
0,36,60,1
0,36,105,1
0,62,96,1
0,62,83,0
0,65,80,0
0,62,90,1
0,62,76,0
0,65,83,0
0,60,90,1
0,60,74,0
0,64,74,0
0,62,90,1
0,62,76,0
0,65,86,0
0,37,90,0
0,38,55,0
0,62,90,1
0,62,78,0
0,65,78,0
0,60,90,1
0,60,66,0
0,64,66,0
0,62,90,1
0,62,80,0
0,65,83,0
0,62,90,1
0,62,86,0
0,65,89,0
0,36,85,0
0,60,90,1
0,60,63,0
0,64,68,0
0,64,99,1
0,64,86,0
0,67,92,0
0,37,90,0
0,38,55,0
0,62,93,1
0,62,72,0
0,65,78,0
0,60,93,0
0,60,63,0
0,64,63,0
0,43,65,2
0,55,90,0
0,62,90,0
0,62,78,1
0,67,80,0
0,59,65,0
0,31,110,0
0,62,90,0
0,62,74,0
0,65,80,0
0,36,105,0
0,62,96,0
0,36,80,1
0,37,90,1
0,38,55,0
0,62,100,1
0,62,100,1
0,36,100,0
0,37,90,1
0,38,55,0
0,60,100,1
0,36,60,13
0,57,83,4
0,53,90,0
0,60,90,0
0,41,65,1
0,53,66,0
0,60,72,0
0,29,110,0
0,64,100,0
0,36,105,0
0,64,96,0
0,62,89,2
0,37,90,48
0,38,55,0
0,62,100,16
0,69,110,48
0,60,92,1
0,67,102,1
0,57,100,0
0,36,85,0
0,64,102,16
0,37,90,0
0,38,55,0
0,62,93,2
0,60,90,1
0,62,99,2
0,67,80,11
0,59,70,0
0,55,90,0
0,62,90,0
0,67,90,0
0,62,83,1
0,31,110,0
0,36,105,0
0,67,86,0
0,43,72,1
0,36,80,20
0,37,90,4
0,38,55,0
0,62,110,22
0,62,96,0
0,62,102,12
0,62,92,0
0,36,100,0
0,37,90,44
0,38,55,0
0,60,99,1
0,60,92,0
0,65,86,0
0,36,60,24
0,60,80,6
0,53,90,0
0,60,90,0
0,65,90,0
0,53,63,1
0,57,89,0
0,41,62,0
0,29,110,0
0,64,99,0
0,64,96,0
0,36,105,0
0,64,86,0
0,62,99,9
0,62,92,0
0,37,90,48
0,38,55,0
0,62,102,18
0,62,100,0
0,60,90,1
0,60,100,0
0,57,106,1
0,57,100,0
0,36,85,0
0,55,96,1
0,55,100,0
0,37,90,0
0,38,55,0
0,43,74,7
0,55,90,0
0,62,90,0
0,67,90,0
0,31,110,1
0,36,105,0
0,62,80,0
0,59,63,1
0,67,78,1
0,62,83,0
0,62,96,20
0,36,80,0
0,62,90,12
0,60,90,11
0,62,90,11
0,37,90,0
0,38,55,0
0,62,93,30
0,60,96,12
0,62,99,10
0,62,96,29
0,36,100,0
0,60,96,9
0,64,106,10
0,37,90,0
0,38,55,0
0,62,110,1
0,64,83,0
0,36,60,0
0,53,59,7
0,57,92,0
0,60,78,0
0,53,90,0
0,60,90,0
0,65,90,0
0,41,61,1
0,29,110,0
0,36,105,0
0,60,92,0
0,62,99,18
0,62,99,12
0,60,93,10
0,62,96,11
0,37,90,0
0,38,55,0
0,62,93,29
0,60,90,11
0,62,99,10
0,62,96,29
0,36,85,0
0,60,90,7
0,64,99,11
0,37,90,0
0,38,55,0
0,62,96,1
0,64,83,0
0,60,90,2
0,50,68,3
0,57,90,0
0,62,90,0
0,38,68,1
0,60,78,0
0,53,89,0
0,26,110,0
0,62,96,0
0,36,105,0
0,62,86,0
0,36,80,20
0,50,96,1
0,59,86,0
0,64,92,0
0,37,90,1
0,38,55,0
0,64,90,1
0,64,65,0
0,62,102,1
0,36,100,1
0,37,90,1
0,38,55,0
0,76,100,37
0,36,60,24
0,36,105,20
0,37,90,48
0,38,55,0
0,64,106,48
0,36,85,0
0,62,96,1
0,37,90,0
0,38,55,0
0,54,64,0
0,54,29,1
0,60,99,1
0,54,54,0
0,54,19,1
0,52,42,1
0,60,70,0
0,55,100,0
0,60,100,0
0,64,100,0
0,55,91,0
0,60,107,0
0,55,62,1
0,72,100,0
0,24,110,0
0,55,107,0
0,60,104,0
0,64,107,0
0,64,109,0
0,60,113,0
0,36,105,0
0,36,80,17
0,60,73,0
0,64,76,0
0,64,79,0
0,55,84,1
0,60,75,0
0,55,67,0
0,55,106,5
0,60,106,0
0,55,108,0
0,64,113,1
0,60,108,0
0,64,115,0
0,37,90,0
0,38,55,0
0,64,67,0
0,64,69,0
0,60,69,0
0,60,67,1
0,55,83,0
0,55,81,1
0,55,109,10
0,55,107,1
0,60,110,0
0,64,120,0
0,60,113,0
0,64,122,0
0,79,100,23
0,67,115,0
0,55,81,1
0,64,78,0
0,60,82,0
0,64,81,1
0,60,84,0
0,55,83,0
0,55,66,6
0,55,69,0
0,77,86,1
0,60,66,0
0,60,69,0
0,65,110,1
0,64,72,0
0,64,75,0
0,36,100,0
0,55,86,4
0,76,92,1
0,60,99,0
0,60,102,0
0,64,99,1
0,55,87,0
0,64,93,0
0,37,90,0
0,38,55,0
0,64,110,1
0,55,77,0
0,60,80,0
0,64,71,0
0,55,76,0
0,74,86,1
0,60,93,0
0,55,80,0
0,62,110,1
0,64,89,0
0,60,90,0
0,64,88,0
0,36,87,0
0,60,65,0
0,64,70,0
0,60,80,0
0,64,76,1
0,55,77,0
0,55,67,0
0,36,60,0
0,59,100,0
0,62,100,0
0,55,96,0
0,59,98,0
0,55,107,0
0,59,103,0
0,62,122,0
0,59,76,1
0,62,70,0
0,31,124,0
0,62,115,0
0,59,113,0
0,36,105,0
0,55,80,1
0,62,73,0
0,55,77,0
0,59,82,1
0,59,68,0
0,62,72,1
0,55,79,0
0,55,98,5
0,55,99,0
0,59,98,0
0,59,104,1
0,37,90,0
0,38,55,0
0,62,122,1
0,62,106,1
0,62,75,0
0,74,70,1
0,62,84,0
0,59,80,0
0,55,80,0
0,59,74,0
0,55,68,0
0,36,87,0
0,55,102,4
0,55,93,1
0,59,111,1
0,62,117,0
0,59,114,0
0,62,122,0
0,57,113,0
0,74,96,11
0,62,110,1
0,55,113,0
0,62,80,0
0,59,79,0
0,55,84,1
0,59,82,0
0,62,79,0
0,55,79,0
0,55,83,7
0,55,84,1
0,59,71,0
0,59,82,0
0,74,89,1
0,62,106,0
0,62,73,0
0,62,67,0
0,36,85,0
0,55,80,1
0,76,86,1
0,64,99,0
0,55,91,0
0,59,93,0
0,62,102,0
0,37,90,0
0,38,55,0
0,59,101,1
0,62,98,0
0,55,80,0
0,59,89,0
0,62,75,1
0,74,92,4
0,55,85,0
0,59,79,0
0,62,99,0
0,55,86,0
0,62,93,1
0,59,96,0
0,62,93,0
0,59,76,0
0,62,73,0
0,59,63,0
0,55,68,0
0,62,63,1
0,55,66,0
0,57,107,2
0,57,78,1
0,72,80,0
0,57,100,0
0,60,100,0
0,64,100,0
0,57,108,0
0,64,111,0
0,60,107,0
0,60,102,0
0,64,121,0
0,64,61,1
0,60,66,0
0,33,120,0
0,57,113,0
0,36,105,0
0,60,99,3
0,36,80,0
0,57,110,4
0,60,78,0
0,64,81,0
0,57,72,0
0,64,70,0
0,60,82,0
0,57,72,0
0,57,92,5
0,64,113,0
0,60,108,0
0,57,95,1
0,37,90,0
0,38,55,0
0,60,115,1
0,64,122,0
0,64,78,0
0,60,79,0
0,60,81,0
0,64,84,0
0,57,76,1
0,57,74,0
0,57,103,18
0,60,108,1
0,57,98,0
0,64,119,1
0,60,99,0
0,64,107,2
0,60,115,22
0,64,78,1
0,60,83,0
0,57,83,0
0,64,81,0
0,57,78,0
0,60,82,0
0,60,71,9
0,57,70,0
0,57,80,0
0,62,110,1
0,64,78,0
0,60,78,0
0,64,82,0
0,36,100,0
0,57,92,32
0,57,93,0
0,60,89,0
0,64,102,1
0,64,101,0
0,60,85,0
0,64,93,0
0,37,90,0
0,38,55,0
0,57,87,1
0,60,74,0
0,64,84,0
0,60,86,6
0,65,106,1
0,57,71,0
0,60,89,0
0,64,86,0
0,57,77,0
0,64,100,0
0,55,113,0
0,36,87,0
0,60,68,0
0,64,79,0
0,64,74,1
0,60,64,0
0,57,78,0
0,57,71,0
0,36,60,0
0,53,58,14
0,72,83,0
0,65,100,0
0,57,98,0
0,60,101,0
0,57,91,0
0,60,103,0
0,57,65,1
0,29,115,0
0,65,120,0
0,65,121,0
0,53,113,0
0,36,105,0
0,60,53,1
0,65,106,16
0,65,77,1
0,60,71,1
0,57,69,0
0,57,69,0
0,65,69,0
0,60,80,0
0,57,107,7
0,60,114,1
0,57,106,0
0,64,102,1
0,65,117,0
0,60,103,0
0,65,106,0
0,37,90,0
0,38,55,0
0,60,75,0
0,62,102,1
0,65,78,0
0,57,77,0
0,65,75,0
0,60,72,0
0,57,82,0
0,57,104,18
0,57,100,1
0,60,105,0
0,65,112,0
0,60,110,1
0,65,117,0
0,62,102,11
0,65,81,1
0,60,82,0
0,60,84,0
0,65,66,0
0,57,69,1
0,57,80,0
0,57,80,10
0,60,77,0
0,57,70,1
0,60,76,0
0,60,102,1
0,65,79,0
0,65,79,0
0,36,85,0
0,57,80,13
0,57,89,1
0,60,99,0
0,62,102,1
0,60,92,0
0,65,108,0
0,65,106,0
0,37,90,0
0,38,55,0
0,57,72,1
0,60,82,1
0,65,89,0
0,57,81,11
0,60,96,0
0,65,97,0
0,60,102,1
0,57,89,0
0,60,96,0
0,65,91,0
0,55,68,1
0,64,63,0
0,60,77,0
0,64,69,0
0,60,75,0
0,55,78,0
0,55,96,1
0,64,100,0
0,67,100,0
0,55,93,0
0,60,111,0
0,60,107,0
0,64,122,0
0,52,42,1
0,72,100,0
0,55,62,0
0,60,70,0
0,24,115,0
0,64,116,0
0,52,113,0
0,36,105,0
0,76,120,0
0,88,124,0
0,60,68,1
0,64,69,0
0,55,81,1
0,60,80,0
0,64,70,0
0,55,67,0
0,55,106,1
0,60,108,1
0,64,117,0
0,55,104,0
0,60,99,0
0,64,120,0
0,37,90,1
0,38,55,0
0,60,83,0
0,64,70,0
0,60,75,0
0,55,74,0
0,64,74,0
0,55,75,1
0,60,108,9
0,55,96,0
0,55,102,1
0,64,120,0
0,60,113,0
0,64,118,0
0,79,100,23
0,67,115,1
0,64,72,0
0,60,67,0
0,64,80,0
0,55,69,0
0,55,83,0
0,60,70,0
0,55,75,7
0,60,78,0
0,55,83,0
0,60,78,0
0,64,79,0
0,77,86,1
0,65,115,0
0,64,67,0
0,36,100,0
0,55,88,0
0,60,97,0
0,76,92,1
0,64,102,0
0,55,83,0
0,60,99,0
0,64,93,0
0,37,90,0
0,38,55,0
0,64,103,1
0,55,81,1
0,60,88,0
0,64,80,2
0,74,86,4
0,55,88,0
0,60,88,0
0,60,90,0
0,64,106,1
0,64,86,0
0,55,84,0
0,64,103,0
0,36,87,0
0,62,76,0
0,59,67,0
0,62,79,0
0,55,67,0
0,62,106,1
0,59,66,0
0,36,60,0
0,55,63,1
0,59,100,0
0,62,100,0
0,55,102,0
0,55,103,0
0,59,112,0
0,59,76,1
0,55,80,0
0,62,70,0
0,35,110,0
0,59,107,0
0,62,108,0
0,62,110,0
