track,note,velocity,time
0,64,104,24
0,57,96,4
0,61,73,2
0,59,81,4
0,57,111,4
0,59,111,1
0,52,109,2
0,61,0,93
0,64,0,2
0,52,71,2
0,61,93,6
0,52,0,61
0,57,0,1
0,52,0,8
0,59,0,5
0,61,0,1
0,57,0,2
0,35,122,2
0,59,0,0
0,35,0,4
0,59,82,40
0,52,68,1
0,57,81,1
0,42,91,50
0,42,0,4
0,52,0,12
0,59,0,10
0,57,0,2
0,52,64,65
0,57,58,1
0,59,58,1
0,40,106,1
0,42,101,0
0,40,0,4
0,42,0,0
0,57,0,30
0,59,0,4
0,52,0,5
0,35,106,62
0,42,47,0
0,52,48,3
0,35,0,1
0,42,0,0
0,57,56,0
0,59,57,0
0,35,103,44
0,42,67,0
0,35,0,4
0,42,0,0
0,57,0,19
0,59,0,14
0,52,0,1
0,35,105,58
0,42,54,0
0,35,0,4
0,42,0,0
0,52,37,4
0,59,40,1
0,57,46,1
0,57,0,77
0,52,0,8
0,40,106,1
0,42,65,0
0,59,0,1
0,40,0,3
0,42,0,0
0,57,46,55
0,59,43,1
0,52,35,2
0,35,105,34
0,42,45,0
0,35,0,4
0,42,0,0
0,52,0,29
0,59,0,4
0,19,95,11
0,31,119,0
0,44,44,0
0,57,0,1
0,44,0,3
0,19,0,42
0,31,0,0
0,21,102,2
0,33,110,0
0,35,117,0
0,42,71,0
0,35,0,4
0,42,0,0
0,52,22,8
0,59,32,1
0,57,30,2
0,59,0,74
0,52,0,2
0,21,0,3
0,33,0,0
0,24,113,2
0,36,120,0
0,42,53,0
0,57,0,1
0,42,0,3
0,52,7,60
0,57,24,2
0,59,25,1
0,24,0,15
0,36,0,0
0,40,108,14
0,42,75,0
0,40,0,4
0,42,0,0
0,52,0,46
0,59,0,3
0,57,0,3
0,44,54,40
0,44,0,4
0,52,8,11
0,57,16,2
0,59,14,2
0,35,111,29
0,35,0,4
0,35,102,44
0,42,70,0
0,57,0,3
0,35,0,1
0,42,0,0
0,52,0,1
0,59,0,4
0,59,10,65
0,57,10,2
0,52,5,1
0,35,108,19
0,42,45,0
0,35,0,4
0,42,0,0
0,57,0,46
0,52,0,9
0,59,0,13
0,40,111,24
0,42,72,0
0,40,0,4
0,42,0,0
0,57,3,38
0,59,2,1
0,44,54,5
0,52,1,0
0,44,0,4
0,35,98,44
0,35,0,4
0,52,0,22
0,59,0,3
0,57,0,3
0,44,47,16
0,44,0,4
0,33,97,44
0,35,121,0
0,42,93,0
0,35,0,4
0,42,0,0
0,57,4,3
0,52,1,12
0,29,36,25
0,29,0,4
0,44,45,0
0,44,0,4
0,52,0,13
0,57,0,1
0,30,39,26
0,30,0,4
0,42,87,0
0,42,0,4
0,29,50,40
0,29,0,4
0,44,51,0
0,44,0,4
0,33,0,36
0,33,78,8
0,40,107,0
0,42,101,0
0,40,0,4
0,42,0,0
0,35,100,140
0,35,0,4
0,33,0,36
0,33,57,8
0,35,105,0
0,42,69,0
0,35,0,4
0,42,0,0
0,35,102,92
0,46,78,0
0,35,0,4
0,46,0,0
0,33,0,40
0,33,47,8
0,40,102,0
0,42,64,0
0,40,0,4
0,42,0,0
0,50,82,57
0,35,107,35
0,42,55,0
0,35,0,4
0,42,0,0
0,19,91,44
0,31,122,0
0,44,44,0
0,44,0,4
0,33,0,36
0,19,0,6
0,31,0,0
0,50,0,0
0,21,107,2
0,33,115,0
0,33,37,0
0,35,117,0
0,42,71,0
0,35,0,4
0,42,0,0
0,50,66,51
0,21,0,27
0,33,0,0
0,24,116,2
0,36,124,0
0,42,51,0
0,42,0,4
0,24,0,78
0,36,0,0
0,33,0,6
0,33,18,8
0,40,110,0
0,42,75,0
0,50,0,1
0,40,0,3
0,42,0,0
0,50,81,54
0,44,49,26
0,44,0,4
0,35,112,44
0,35,0,4
0,33,0,36
0,50,0,5
0,35,102,3
0,42,66,0
0,33,11,2
0,35,0,2
0,42,0,0
0,50,60,28
0,35,105,28
0,46,74,0
0,35,0,4
0,46,0,0
0,33,0,86
0,50,0,4
0,40,114,2
0,42,78,0
0,40,0,4
0,42,0,0
0,44,52,24
0,44,0,4
0,50,69,11
0,35,97,33
0,42,70,0
0,35,0,4
0,42,0,0
0,44,48,44
0,44,0,4
0,50,0,38
0,33,96,6
0,35,123,0
0,42,90,0
0,35,0,4
0,42,0,0
0,29,33,12
0,29,0,4
0,44,42,0
0,44,0,4
0,50,40,15
0,30,40,25
0,30,0,4
0,42,94,0
0,57,87,0
0,42,0,4
0,29,50,40
0,29,0,4
0,44,53,0
0,44,0,4
0,57,0,2
0,33,0,34
0,50,0,3
0,33,73,5
0,40,111,0
0,42,98,0
0,57,78,2
0,40,0,2
0,42,0,0
0,57,0,20
0,57,75,12
0,50,60,19
0,57,0,15
0,45,83,15
0,45,0,46
0,35,102,1
0,57,87,0
0,35,0,4
0,50,0,26
0,33,0,10
0,57,0,6
0,33,56,2
0,35,109,0
0,42,67,0
0,45,45,0
0,35,0,4
0,42,0,0
0,45,0,22
0,81,68,2
0,50,66,20
0,81,0,26
0,35,101,2
0,46,81,0
0,57,84,0
0,35,0,4
0,46,0,0
0,57,0,42
0,45,33,2
0,50,0,25
0,33,0,15
0,45,0,6
0,33,47,2
0,40,103,0
0,42,68,0
0,81,66,0
0,40,0,4
0,42,0,0
0,81,0,22
0,57,82,2
0,50,56,19
0,57,0,27
0,35,107,2
0,42,62,0
0,35,0,4
0,42,0,0
0,19,90,44
0,31,119,0
0,44,43,0
0,44,0,4
0,50,0,26
0,33,0,10
0,19,0,6
0,31,0,0
0,21,107,2
0,33,114,0
0,33,32,0
0,35,121,0
0,42,67,0
0,35,0,4
0,42,0,0
0,50,64,52
0,21,0,26
0,33,0,0
0,24,116,2
0,36,121,0
0,42,47,0
0,42,0,4
0,50,0,69
0,24,0,9
0,36,0,0
0,33,0,6
0,33,16,8
0,40,111,0
0,42,78,0
0,40,0,4
0,42,0,0
0,50,56,43
0,44,51,37
0,74,87,3
0,44,0,1
0,35,108,44
0,35,0,4
0,50,0,18
0,33,0,0
0,35,107,8
0,42,70,0
0,33,13,2
0,35,0,2
0,42,0,0
0,50,55,56
0,35,105,36
0,46,74,0
0,35,0,4
0,46,0,0
0,50,0,61
0,33,0,25
0,40,114,6
0,42,77,0
0,40,0,4
0,42,0,0
0,44,51,32
0,44,0,4
0,50,50,4
0,35,99,16
0,42,68,0
0,35,0,4
0,42,0,0
0,44,47,8
0,44,0,4
0,50,0,9
0,74,0,10
0,35,123,10
0,42,96,0
0,45,97,0
0,73,93,3
0,85,109,0
0,35,0,1
0,42,0,0
0,73,0,47
0,85,0,0
0,45,0,37
0,73,77,6
0,85,87,0
0,42,81,2
0,42,0,4
0,73,0,32
0,85,0,0
0,71,78,10
0,83,93,0
0,44,1,2
0,44,0,4
0,40,106,44
0,42,98,0
0,40,0,4
0,42,0,0
0,71,0,0
0,83,0,0
0,69,81,44
0,81,95,0
0,69,0,47
0,81,0,0
0,45,94,1
0,69,81,39
0,81,92,0
0,45,0,3
0,35,103,6
0,35,0,4
0,35,109,44
0,42,100,0
0,45,90,0
0,35,0,4
0,42,0,0
0,45,0,36
0,35,106,56
0,42,97,0
0,45,96,0
0,57,83,1
0,35,0,3
0,42,0,0
0,69,0,21
0,81,0,0
0,57,0,5
0,45,0,39
0,40,102,27
0,40,0,4
0,35,106,92
0,42,104,0
0,45,101,0
0,69,91,0
0,81,99,0
0,35,0,4
0,42,0,0
0,69,0,30
0,81,0,0
0,45,0,12
0,44,44,2
0,69,84,0
0,81,98,0
0,44,0,4
0,69,0,37
0,81,0,0
0,71,85,6
0,83,100,0
0,35,122,1
0,42,103,0
0,43,99,0
0,35,0,4
0,42,0,0
0,71,0,69
0,83,0,0
0,43,0,9
0,71,80,14
0,83,90,0
0,71,0,46
0,83,0,0
0,69,83,2
0,81,94,0
0,40,112,48
0,40,0,4
0,69,0,19
0,81,0,0
0,42,104,25
0,67,95,1
0,79,112,0
0,42,0,3
0,42,87,44
0,43,95,0
0,67,0,3
0,79,0,0
0,42,0,1
0,43,0,35
0,67,81,7
0,79,94,0
0,35,111,2
0,42,102,0
0,35,0,4
0,42,0,0
0,35,107,44
0,42,102,0
0,43,93,0
0,35,0,4
0,42,0,0
0,43,0,36
0,35,105,56
0,43,90,0
0,46,109,0
0,35,0,4
0,46,0,0
0,67,0,36
0,79,0,0
0,43,0,6
0,31,68,2
0,31,0,46
0,40,110,2
0,42,113,0
0,40,0,4
0,42,0,0
0,35,98,92
0,42,87,0
0,43,103,0
0,35,0,4
0,42,0,0
0,43,0,36
0,44,40,8
0,44,0,4
0,71,101,0
0,83,112,0
0,71,0,39
0,83,0,0
0,35,125,5
0,41,101,0
0,42,94,0
0,35,0,4
0,42,0,0
0,72,84,0
0,84,93,0
0,41,0,68
0,72,0,12
0,84,0,0
0,71,77,11
0,83,95,0
0,42,90,1
0,42,0,4
0,71,0,41
0,83,0,0
0,69,98,6
0,81,108,0
0,40,112,45
0,42,99,0
0,40,0,4
0,42,0,0
0,69,0,6
0,81,0,0
0,71,82,38
0,83,90,0
0,41,101,48
0,42,92,0
0,42,0,4
0,71,0,29
0,83,0,0
0,41,0,7
0,35,103,8
0,72,77,1
0,84,89,0
0,35,0,3
0,35,109,44
0,42,99,0
0,43,101,0
0,57,78,0
0,35,0,4
0,42,0,0
0,57,0,18
0,43,0,14
0,72,0,5
0,84,0,0
0,31,66,7
0,44,35,0
0,45,57,0
0,44,0,4
0,71,78,0
0,83,92,0
0,45,0,18
0,31,0,14
0,35,104,12
0,43,97,0
0,46,98,0
0,57,98,0
0,35,0,4
0,46,0,0
0,57,0,18
0,71,0,22
0,83,0,0
0,69,84,6
0,81,94,0
0,43,0,9
0,40,102,37
0,42,100,0
0,40,0,4
0,42,0,0
0,67,77,44
0,79,91,0
0,69,0,1
0,81,0,0
0,35,104,47
0,42,106,0
0,43,101,0
0,35,0,4
0,42,0,0
0,67,0,22
0,79,0,0
0,43,0,12
0,69,82,4
0,81,91,0
0,35,117,54
0,42,88,0
0,45,101,0
0,35,0,4
0,42,0,0
0,67,75,44
0,79,91,0
0,69,0,4
0,81,0,0
0,45,0,15
0,67,0,22
0,79,0,0
0,42,81,7
0,64,80,0
0,76,89,0
0,42,0,4
0,44,47,44
0,44,0,4
0,64,0,23
0,76,0,0
0,40,113,21
0,42,91,0
0,40,0,4
0,42,0,0
0,45,86,92
0,45,0,42
0,35,112,6
0,42,89,0
0,57,62,0
0,57,59,0
0,35,0,4
0,42,0,0
0,57,0,18
0,57,0,20
0,35,109,6
0,42,89,0
0,45,92,0
0,35,0,4
0,42,0,0
0,45,0,34
0,57,65,10
0,57,42,0
0,57,0,22
0,57,0,20
0,35,109,6
0,42,94,0
0,45,85,0
0,35,0,4
0,42,0,0
0,45,0,42
0,69,81,2
0,81,54,0
0,81,0,10
0,69,0,32
0,40,110,6
0,42,90,0
0,40,0,4
0,42,0,0
0,44,46,44
0,44,0,4
0,35,99,44
0,46,99,0
0,73,79,1
0,85,87,0
0,35,0,3
0,46,0,0
0,73,0,64
0,85,0,0
0,73,98,27
0,85,101,0
0,35,122,1
0,42,92,0
0,45,99,0
0,35,0,4
0,42,0,0
0,73,0,29
0,85,0,0
0,73,54,15
0,85,67,0
0,45,0,40
0,33,77,8
0,42,83,0
0,42,0,4
0,73,0,27
0,85,0,0
0,71,83,15
0,83,97,0
0,44,1,2
0,44,0,4
0,33,0,18
0,40,111,26
0,42,97,0
0,74,66,1
0,40,0,3
0,42,0,0
0,74,0,1
0,71,0,23
0,83,0,0
0,69,83,20
0,81,95,0
0,44,66,48
0,45,92,0
0,44,0,4
0,69,0,14
0,81,0,0
0,45,0,24
0,69,80,4
0,81,96,0
0,33,58,2
0,35,100,0
0,35,0,4
0,33,0,38
0,35,107,6
0,42,100,0
0,45,89,0
0,35,0,4
0,42,0,0
0,45,0,36
0,33,60,8
0,33,0,42
0,35,104,6
0,45,96,0
0,46,93,0
0,35,0,4
0,46,0,0
0,69,0,56
0,81,0,0
0,45,0,9
0,73,80,22
0,81,89,0
0,40,99,5
0,42,97,0
0,40,0,4
0,42,0,0
0,73,0,46
0,81,0,0
0,73,74,40
0,81,84,0
0,35,104,6
0,42,101,0
0,45,105,0
0,35,0,4
0,42,0,0
0,73,0,38
0,81,0,0
0,83,89,2
0,45,0,2
0,44,41,2
0,74,77,0
0,44,0,4
0,35,121,44
0,42,103,0
0,43,105,0
0,35,0,4
0,42,0,0
0,83,0,21
0,74,0,4
0,83,97,23
0,67,88,4
0,43,0,26
0,44,64,14
0,44,0,4
0,83,0,19
0,67,0,4
0,69,94,20
0,81,103,4
0,40,115,45
0,42,101,0
0,40,0,4
0,42,0,0
0,69,0,8
0,81,0,4
0,67,81,34
0,79,98,0
0,42,80,46
0,43,96,0
0,42,0,4
0,67,0,10
0,79,0,0
0,43,0,25
0,67,96,8
0,79,108,0
0,35,108,1
0,44,48,0
0,69,62,0
0,35,0,4
0,44,0,0
0,69,0,42
0,35,108,2
0,42,104,0
0,43,90,0
0,35,0,4
0,42,0,0
0,43,0,36
0,69,37,8
0,69,0,46
0,35,107,2
0,42,102,0
0,43,97,0
0,57,65,0
0,35,0,4
0,42,0,0
0,67,0,9
0,79,0,0
0,43,0,33
0,57,0,0
0,31,70,2
0,69,76,0
0,31,0,46
0,69,0,0
0,40,114,2
0,42,112,0
0,40,0,4
0,42,0,0
0,35,101,92
0,42,86,0
0,43,99,0
0,35,0,4
0,42,0,0
0,43,0,36
0,44,41,8
0,69,65,0
0,71,97,2
0,83,103,0
0,44,0,2
0,71,0,39
0,83,0,0
0,69,0,3
0,35,126,2
0,41,98,0
0,42,97,0
0,72,90,1
0,84,105,0
0,89,83,0
0,35,0,3
0,42,0,0
0,41,0,68
0,72,0,13
0,84,0,0
0,42,92,11
0,42,0,4
0,71,73,0
0,83,90,0
0,71,0,42
0,83,0,0
0,69,83,8
0,81,92,0
0,40,108,42
0,42,97,0
0,40,0,4
0,42,0,0
0,69,0,29
0,81,0,0
0,71,86,19
0,83,93,0
0,41,102,44
0,42,99,0
0,42,0,4
0,71,0,4
0,83,0,0
0,41,0,32
0,35,100,8
0,69,64,0
0,72,79,0
0,84,86,0
0,35,0,4
0,89,0,15
0,69,0,27
0,35,102,2
0,42,102,0
0,43,98,0
0,91,84,1
0,35,0,3
0,42,0,0
0,72,0,26
0,84,0,0
0,43,0,6
0,31,70,12
0,44,38,0
0,69,68,0
0,71,89,1
0,83,100,0
0,44,0,3
0,31,0,32
0,69,0,10
0,35,100,2
0,43,97,0
0,46,101,0
0,35,0,4
0,46,0,0
0,71,0,4
0,83,0,0
0,69,64,40
0,69,97,2
0,81,105,0
0,43,0,9
0,69,0,35
0,40,103,2
0,42,102,0
0,40,0,4
0,42,0,0
0,69,0,17
0,81,0,0
0,67,92,23
0,79,103,0
0,35,102,52
0,42,105,0
0,43,101,0
0,35,0,4
0,42,0,0
0,67,0,8
0,79,0,0
0,43,0,26
0,69,93,4
0,81,107,0
0,91,0,16
0,35,117,38
0,42,90,0
0,45,99,0
0,35,0,4
0,42,0,0
0,93,78,4
0,69,0,38
0,81,0,0
0,67,68,2
0,79,82,0
0,45,0,19
0,67,0,28
0,79,0,0
0,42,84,1
0,42,0,4
0,64,92,4
0,76,103,0
0,44,47,40
0,44,0,4
0,40,113,44
0,42,95,0
0,64,0,3
0,76,0,0
0,40,0,1
0,42,0,0
0,93,0,8
0,57,99,38
0,57,0,22
0,42,96,24
0,57,62,0
0,45,95,1
0,42,0,3
0,57,0,18
0,45,0,23
0,35,115,3
0,35,0,4
0,35,107,44
0,42,88,0
0,45,106,0
0,57,100,3
0,35,0,1
0,42,0,0
0,57,0,21
0,57,49,23
0,45,0,13
0,57,0,9
0,27,86,26
0,35,103,0
0,46,99,0
0,69,83,0
0,27,0,4
0,35,0,0
0,46,0,0
0,32,87,44
0,57,81,0
0,69,0,0
