track,note,velocity,time
0,33,40,10
0,21,40,0
0,33,60,0
0,33,50,0
0,93,25,0
0,81,25,0
0,45,45,40
0,45,40,0
0,52,25,0
0,57,20,0
0,81,40,0
0,81,67,0
0,76,32,5
0,76,68,0
0,74,32,0
0,74,67,0
0,73,32,225
0,73,73,0
0,71,32,0
0,71,79,0
0,69,32,65
0,69,104,0
0,81,40,20
0,81,70,0
0,76,32,0
0,76,73,0
0,74,32,25
0,74,75,0
0,73,32,0
0,73,67,0
0,71,32,50
0,71,81,0
0,69,32,65
0,69,106,0
0,69,105,0
0,45,60,0
0,64,105,185
0,62,105,0
0,64,60,0
0,61,105,25
0,59,105,10
0,57,105,10
0,59,105,5
0,47,62,0
0,62,74,0
0,62,105,25
0,62,105,25
0,61,105,30
0,59,105,50
0,57,105,60
0,38,58,0
0,57,74,0
0,57,105,30
0,57,105,45
0,52,105,35
0,59,105,30
0,57,105,60
0,33,38,20
0,64,66,0
0,69,105,0
0,33,95,0
0,69,110,0
0,76,40,5
0,81,35,0
0,64,105,0
0,64,105,0
0,57,105,10
0,62,105,0
0,57,56,0
0,61,105,20
0,59,105,0
0,57,105,10
0,59,105,5
0,35,46,0
0,62,52,0
0,74,30,5
0,62,105,0
0,59,105,20
0,59,112,0
0,60,105,0
0,38,96,0
0,60,112,0
0,60,105,0
0,59,105,0
0,60,105,0
0,59,105,0
0,57,105,25
0,57,105,55
0,66,75,0
0,52,105,335
0,59,105,25
0,57,105,80
0,33,52,0
0,61,60,0
0,64,84,0
0,45,50,690
0,32,41,0
0,30,76,0
0,69,105,0
0,30,75,0
0,69,110,0
0,76,40,0
0,69,40,5
0,57,35,5
0,42,35,0
0,64,35,0
0,69,35,0
0,57,62,10
0,64,105,0
0,64,110,10
0,66,105,15
0,64,105,10
0,30,75,0
0,59,105,0
0,75,40,5
0,76,40,0
0,78,40,0
0,75,40,0
0,63,35,0
0,47,35,0
0,33,76,0
0,59,105,0
0,35,80,0
0,63,100,0
0,59,105,70
0,61,105,20
0,69,80,240
0,54,105,15
0,47,64,10
0,61,105,0
0,57,89,0
0,62,35,0
0,50,35,0
0,74,40,0
0,81,40,0
0,38,76,0
0,62,105,0
0,38,100,0
0,62,122,0
0,61,105,0
0,62,105,0
0,61,105,0
0,62,105,10
0,62,105,0
0,57,105,0
0,29,92,0
0,30,110,5
0,31,84,0
0,71,105,0
0,31,88,0
0,55,122,0
0,59,122,0
0,62,106,0
0,35,65,0
0,43,35,5
0,55,35,5
0,59,35,0
0,62,35,0
0,59,40,5
0,55,40,5
0,62,40,0
0,69,105,10
0,42,49,0
0,31,83,20
0,67,105,0
0,57,40,110
0,54,40,0
0,57,35,5
0,42,35,0
0,30,87,0
0,69,105,0
0,30,116,0
0,57,122,0
0,62,110,0
0,42,40,0
0,66,105,10
0,42,40,240
0,42,27,105
0,35,55,90
0,42,35,0
0,61,40,30
0,64,40,5
0,61,35,0
0,64,35,5
0,45,35,0
0,33,90,10
0,64,105,0
0,35,75,0
0,42,49,0
0,33,68,0
0,52,70,0
0,57,78,0
0,61,70,0
0,45,60,210
0,52,62,0
0,45,62,140
0,52,62,0
0,42,49,0
0,42,31,0
0,42,55,10
0,52,70,0
0,57,68,0
0,42,46,10
0,45,52,0
0,52,52,0
0,52,70,0
0,45,66,0
0,52,96,0
0,40,95,10
0,52,127,0
0,57,127,0
0,62,127,0
0,52,127,0
0,57,127,0
0,61,127,0
0,33,100,15
0,57,105,0
0,46,40,0
0,29,92,0
0,30,110,0
0,59,35,0
0,62,35,0
0,43,35,0
0,55,35,0
0,31,104,10
0,71,105,0
0,31,92,0
0,55,122,0
0,59,122,0
0,62,122,0
0,42,49,0
0,55,40,0
0,62,40,0
0,59,40,0
0,69,105,5
0,42,46,0
0,67,105,0
0,59,58,10
0,59,110,0
0,62,116,0
0,57,35,15
0,54,40,5
0,57,40,0
0,42,35,0
0,30,101,0
0,69,105,0
0,30,116,0
0,57,122,0
0,62,116,0
0,42,52,0
0,57,58,0
0,66,105,10
0,42,52,0
0,66,105,15
0,61,35,0
0,64,35,5
0,61,40,0
0,64,40,5
0,45,35,0
0,31,101,10
0,66,105,0
0,42,55,0
0,33,60,0
0,57,78,0
0,64,84,0
0,45,60,0
0,52,66,0
0,64,105,35
0,64,105,30
0,42,61,30
0,52,68,0
0,45,62,0
0,57,66,10
0,42,55,0
0,57,104,0
0,48,83,0
0,60,60,0
0,42,52,0
0,47,86,10
0,69,104,0
0,43,86,15
0,45,106,0
0,52,110,0
0,60,74,0
0,41,83,0
0,57,127,0
0,62,127,0
0,57,127,10
0,64,127,0
0,38,88,0
0,57,105,0
0,46,46,0
0,29,86,0
0,30,104,10
0,55,35,0
0,59,35,0
0,62,35,0
0,43,35,0
0,31,92,0
0,71,105,0
0,31,106,0
0,55,116,0
0,59,116,0
0,62,116,0
0,35,65,0
0,55,70,0
0,62,66,0
0,55,40,0
0,59,40,0
0,62,40,0
0,69,105,0
0,62,66,0
0,55,68,0
0,42,40,0
0,67,105,0
0,57,35,0
0,42,35,0
0,54,40,0
0,57,40,0
0,30,90,0
0,69,105,0
0,30,98,0
0,57,122,0
0,62,110,0
0,42,43,0
0,54,78,0
0,66,105,5
0,57,60,0
0,62,60,0
0,42,46,0
0,62,105,20
0,42,40,0
0,35,55,0
0,42,55,0
0,61,35,5
0,64,35,5
0,45,35,0
0,61,40,0
0,64,40,0
0,33,92,5
0,64,105,0
0,33,68,0
0,52,68,0
0,57,68,0
0,61,68,0
0,35,75,0
0,42,52,0
0,45,56,210
0,52,62,0
0,61,105,15
0,59,105,0
0,57,105,0
0,45,62,0
0,52,60,0
0,42,49,0
0,42,31,35
0,52,66,0
0,45,88,0
0,42,49,0
0,42,31,15
0,52,48,0
0,57,58,0
0,42,52,10
0,57,61,0
0,52,66,0
0,45,66,0
0,52,68,0
0,45,56,0
0,52,126,0
0,43,92,10
0,57,105,0
0,57,122,0
0,61,126,0
0,42,28,0
0,42,89,0
0,42,34,0
0,40,35,5
0,59,35,0
0,62,45,0
0,62,40,5
0,40,40,5
0,55,40,0
0,40,92,0
0,76,105,0
0,42,61,0
0,40,94,0
0,47,84,0
0,55,126,0
0,57,120,0
0,62,120,0
0,74,105,0
0,42,52,0
0,71,105,0
0,64,35,180
0,64,40,10
0,36,35,0
0,67,40,0
0,36,40,0
0,36,78,0
0,55,88,0
0,60,96,0
0,64,92,0
0,42,52,0
0,36,88,0
0,67,105,0
0,67,35,0
0,64,105,450
0,69,105,10
0,66,40,10
0,69,40,0
0,66,35,10
0,38,88,0
0,38,65,0
0,57,65,0
0,62,79,0
0,64,71,0
0,66,47,0
0,38,40,0
0,38,35,10
0,69,35,0
0,62,35,0
0,35,35,10
0,62,40,0
0,35,40,0
0,35,60,0
0,35,53,0
0,54,29,0
0,57,65,0
0,62,61,0
0,64,30,45
0,45,46,0
0,33,42,0
0,64,62,0
0,33,120,0
0,69,105,0
0,69,65,0
0,76,65,0
0,81,65,0
0,33,127,0
0,45,127,0
0,35,110,0
0,42,83,0
0,49,60,0
0,70,47,0
0,61,45,0
0,57,45,0
0,64,45,0
0,70,37,90
0,42,65,90
0,70,31,0
0,70,34,30
0,64,105,90
0,40,127,0
0,42,77,0
0,70,37,0
0,57,122,0
0,69,122,0
0,33,127,80
0,70,34,0
0,33,127,10
0,42,61,0
0,70,37,0
0,33,120,60
0,35,110,0
0,70,34,0
0,57,116,0
0,42,77,90
0,70,43,0
0,33,127,50
0,70,34,0
0,33,120,80
0,35,110,0
0,42,64,0
0,70,34,0
0,70,31,15
0,33,125,0
0,45,125,0
0,62,105,90
0,57,116,0
0,64,116,0
0,40,127,0
0,42,79,0
0,70,41,0
0,61,105,15
0,70,34,0
0,59,105,15
0,42,64,0
0,70,37,0
0,57,105,30
0,70,34,0
0,64,45,20
0,62,45,5
0,74,65,0
0,57,45,5
0,35,120,0
0,59,105,0
0,35,110,0
0,42,83,0
0,70,47,0
0,35,92,0
0,47,110,0
0,57,110,0
0,62,116,0
0,64,116,0
0,62,105,90
0,70,37,0
0,42,65,90
0,70,31,0
0,70,34,30
0,40,127,35
0,42,77,0
0,70,37,0
0,62,116,0
0,64,110,0
0,69,110,0
0,70,34,90
0,42,61,0
0,70,37,0
0,35,127,30
0,70,34,0
0,57,106,0
0,62,106,0
0,64,110,0
0,35,120,90
0,35,110,0
0,42,77,0
0,70,43,0
0,70,34,0
0,35,120,90
0,35,110,0
0,42,64,0
0,70,34,0
0,62,105,5
0,70,31,0
0,81,65,40
0,40,127,45
0,42,79,0
0,70,41,0
0,62,116,0
0,64,110,0
0,69,110,0
0,61,105,0
0,70,34,0
0,59,105,15
0,42,64,0
0,70,37,0
0,57,105,35
0,70,34,0
0,62,45,30
0,64,45,0
0,57,45,0
0,69,65,15
0,38,110,0
0,35,110,0
0,42,83,0
0,70,47,0
0,26,110,0
0,38,110,0
0,57,126,0
0,62,126,0
0,69,122,0
0,70,37,90
0,57,105,65
0,42,65,0
0,70,31,0
0,70,34,90
0,54,105,10
0,40,127,0
0,42,77,0
0,70,37,0
0,57,122,0
0,69,110,0
0,70,34,90
0,33,89,15
0,42,61,0
0,70,37,0
0,38,110,70
0,35,110,0
0,70,34,0
0,62,111,0
0,42,77,90
0,70,43,0
0,40,89,0
0,70,34,0
0,38,110,0
0,35,110,0
0,42,64,0
0,70,34,0
0,50,110,0
0,54,105,90
0,70,31,0
0,81,65,35
0,57,105,5
0,40,127,0
0,42,79,0
0,70,41,0
0,57,114,0
0,70,34,5
0,30,114,40
0,57,105,0
0,42,64,0
0,70,37,0
0,32,108,0
0,57,105,0
0,70,34,0
0,76,65,20
0,64,45,10
0,57,45,0
0,61,45,0
0,33,119,0
0,35,110,0
0,42,83,0
0,70,47,0
0,33,92,0
0,45,110,0
0,57,116,0
0,64,116,0
0,70,37,60
0,42,65,5
0,70,31,0
0,70,34,90
0,40,127,90
0,42,77,0
0,70,37,0
0,57,106,0
0,61,116,0
0,64,106,0
0,70,34,10
0,42,61,5
0,70,37,0
0,70,34,90
0,57,122,0
0,69,110,0
0,33,122,0
0,35,110,0
0,42,77,0
0,70,43,0
0,69,65,0
0,64,110,0
0,52,110,0
0,45,116,0
0,70,34,0
0,62,110,0
0,74,110,0
0,33,119,0
0,35,110,0
0,42,64,0
0,70,34,0
0,57,116,0
0,62,122,0
0,61,110,45
0,73,110,5
0,70,31,5
0,62,110,45
0,74,110,0
0,40,127,30
0,42,79,0
0,70,41,0
0,45,74,0
0,73,110,10
0,61,110,5
0,57,122,20
0,64,126,0
0,70,34,0
0,69,110,0
0,57,110,0
0,42,115,5
0,42,64,0
0,70,37,0
0,40,113,5
0,64,105,0
0,42,64,0
0,70,34,0
0,42,64,0
0,64,45,5
0,61,45,0
0,57,45,0
0,35,110,0
0,42,83,0
0,70,47,0
0,33,122,0
0,57,116,0
0,64,110,0
0,69,110,0
0,33,120,0
0,64,105,0
0,64,105,55
0,70,37,0
0,64,105,55
0,42,65,0
0,70,31,0
0,64,105,0
0,70,34,0
0,81,65,35
0,64,105,15
0,40,127,0
0,42,77,0
0,70,37,0
0,57,110,0
0,64,110,0
0,69,110,0
0,64,105,40
0,70,34,0
0,64,105,0
0,42,61,0
0,70,37,0
0,33,120,45
0,64,105,0
0,35,110,0
0,70,34,0
0,57,96,0
0,61,98,0
0,64,106,0
0,64,105,0
0,42,77,0
0,70,43,0
0,33,127,0
0,62,105,0
0,70,34,0
0,33,120,20
0,61,105,0
0,35,110,0
0,42,64,0
0,70,34,0
0,59,105,25
0,70,31,0
0,73,110,35
0,49,110,0
0,40,127,20
0,42,79,0
0,70,41,0
0,57,106,0
0,61,106,0
0,64,110,0
0,59,105,0
0,57,105,25
0,70,34,0
0,40,120,0
0,42,64,0
0,70,37,0
0,33,120,0
0,70,34,0
0,74,110,15
0,50,110,0
0,57,45,0
0,62,45,0
0,64,45,0
0,35,120,0
0,35,110,0
0,42,83,0
0,70,47,0
0,35,122,0
0,57,116,0
0,62,122,0
0,64,110,0
0,69,106,0
0,70,37,90
0,42,65,90
0,70,31,0
0,70,34,90
0,40,127,45
0,42,77,0
0,70,37,0
0,57,106,0
0,62,116,0
0,64,110,0
0,69,106,0
0,81,65,10
0,70,34,90
0,42,61,0
0,70,37,0
0,57,106,10
0,62,92,0
0,64,106,0
0,69,100,0
0,70,34,0
0,35,102,0
0,35,120,50
0,35,110,0
0,42,77,0
0,70,43,0
0,70,34,0
0,35,120,90
0,35,110,0
0,42,64,0
0,70,34,0
0,61,105,90
0,70,31,0
0,62,105,10
0,40,127,0
0,42,79,0
0,70,41,0
0,57,106,0
0,62,106,0
0,64,110,0
0,69,106,0
0,25,106,0
0,61,105,0
0,70,34,0
0,27,116,0
0,62,105,0
0,46,55,0
0,70,37,0
0,61,105,10
0,70,34,0
0,64,45,25
0,62,45,10
0,57,45,0
0,26,122,0
0,35,110,0
0,42,83,0
0,70,47,0
0,26,106,0
0,38,110,0
0,57,100,0
0,62,110,0
0,66,84,0
0,70,37,60
0,62,105,15
0,42,65,0
0,70,31,0
0,70,34,80
0,81,65,60
0,57,105,15
0,40,127,0
0,42,77,0
0,70,37,0
0,57,106,0
0,62,116,0
0,66,106,0
0,70,34,55
0,38,100,15
0,42,61,0
0,70,37,0
0,26,116,0
0,35,110,0
0,70,34,0
0,57,106,0
0,62,106,0
0,66,98,0
0,28,114,0
0,42,77,0
0,70,43,0
0,30,111,0
0,62,105,0
0,38,96,0
0,70,34,0
0,33,102,0
0,62,105,0
0,35,110,0
0,42,64,0
0,70,34,0
0,62,105,15
0,70,31,0
0,38,100,0
0,36,111,5
0,64,105,0
0,57,110,0
0,62,110,0
0,66,116,0
0,40,127,0
0,42,79,0
0,70,41,0
0,70,34,90
0,62,105,15
0,42,64,0
0,70,37,0
0,57,88,0
0,70,34,0
0,76,110,0
0,52,110,0
0,69,65,0
0,76,65,0
0,64,45,0
0,30,116,0
0,69,105,0
0,35,110,0
0,55,80,0
0,70,47,0
0,30,126,0
0,57,110,0
0,64,110,0
0,69,100,0
0,57,45,0
0,61,45,5
0,70,37,90
0,42,65,90
0,70,31,0
0,64,105,5
0,70,34,0
0,81,65,70
0,40,127,20
0,42,77,0
0,70,37,0
0,57,80,0
0,64,88,0
0,69,84,0
0,70,34,10
0,66,105,90
0,42,61,0
0,70,37,0
0,30,84,0
0,57,92,90
0,70,34,0
0,30,114,10
0,64,105,0
0,35,110,0
0,42,77,0
0,70,43,0
0,70,34,40
0,30,98,0
0,30,116,90
0,35,110,0
0,42,64,0
0,70,34,0
0,70,31,0
0,40,127,90
0,42,79,0
0,70,41,0
0,64,100,0
0,69,106,0
0,76,116,0
0,70,34,90
0,61,105,75
0,42,64,0
0,70,37,0
0,69,96,0
0,30,114,45
0,70,34,0
0,75,110,5
0,51,110,0
0,63,45,0
0,35,110,0
0,59,105,0
0,35,96,0
0,57,110,0
0,63,98,0
0,69,100,0
0,35,110,0
0,42,83,0
0,70,47,0
0,57,45,0
0,59,45,0
0,70,37,45
0,61,105,15
0,42,65,0
0,70,31,0
0,70,34,90
0,40,127,50
0,42,77,0
0,70,37,0
0,57,110,0
0,63,116,0
0,69,110,0
0,70,34,90
0,54,105,5
0,42,61,0
0,70,37,0
0,35,110,90
0,70,34,0
0,81,65,55
0,42,77,20
0,70,43,0
0,70,34,90
0,35,106,15
0,35,110,0
0,42,64,0
0,70,34,0
0,70,31,90
0,35,68,0
0,69,65,60
0,57,106,5
0,63,116,0
0,69,106,0
0,40,127,0
0,42,79,0
0,70,41,0
0,70,34,45
0,35,97,0
0,61,105,0
0,42,64,0
0,70,37,0
0,37,106,0
0,70,34,0
0,74,113,20
0,50,113,5
0,62,45,0
0,57,45,0
0,66,45,0
0,38,111,0
0,62,105,0
0,35,110,0
0,42,83,0
0,70,47,0
0,26,106,0
0,38,106,0
0,57,106,0
0,62,110,0
0,66,90,0
0,70,37,90
