track,note,velocity,time
0,60,50,1631
0,55,38,16
0,48,38,5
0,55,50,171
0,48,48,22
0,55,43,192
0,60,54,91
0,55,38,174
0,48,42,14
0,55,44,192
0,60,58,180
0,55,41,0
0,48,40,11
0,55,41,0
0,60,57,192
0,55,52,27
0,48,43,192
0,55,47,187
0,35,127,8
0,42,81,0
0,60,52,0
0,55,42,3
0,42,69,3
0,48,43,0
0,55,45,3
0,40,102,3
0,42,69,0
0,60,61,0
0,55,49,3
0,35,127,3
0,42,55,0
0,48,40,0
0,80,91,3
0,55,44,0
0,35,127,3
0,42,61,0
0,60,61,0
0,38,96,3
0,55,49,0
0,42,61,3
0,71,101,0
0,48,39,0
0,55,44,3
0,40,108,3
0,42,69,0
0,60,60,0
0,55,45,3
0,42,71,3
0,48,42,0
0,42,61,3
0,55,46,0
0,62,67,3
0,35,127,0
0,42,73,0
0,60,60,0
0,64,67,3
0,55,46,0
0,62,68,3
0,42,64,0
0,48,48,0
0,64,68,3
0,55,43,0
0,67,68,3
0,40,105,0
0,42,64,0
0,60,58,0
0,55,38,3
0,67,68,96
0,67,68,3
0,35,127,0
0,42,67,0
0,48,42,0
0,64,67,3
0,80,66,0
0,55,44,0
0,62,67,3
0,81,62,0
0,35,127,0
0,42,63,0
0,60,58,0
0,64,66,3
0,55,41,0
0,67,64,3
0,42,67,0
0,71,101,0
0,48,40,0
0,55,41,3
0,67,64,96
0,67,64,3
0,40,106,0
0,42,75,0
0,60,58,0
0,64,64,3
0,55,52,0
0,62,64,3
0,42,64,0
0,48,43,0
0,64,64,3
0,35,127,0
0,42,75,0
0,55,47,0
0,62,66,3
0,35,127,0
0,42,81,0
0,60,52,0
0,64,66,3
0,55,42,0
0,62,66,3
0,42,69,0
0,48,43,0
0,64,66,3
0,55,45,0
0,67,66,3
0,40,102,0
0,42,69,0
0,60,61,0
0,55,49,3
0,67,66,96
0,67,66,3
0,35,127,0
0,42,55,0
0,48,40,0
0,64,66,3
0,80,91,0
0,55,44,0
0,62,66,3
0,35,127,0
0,42,61,0
0,60,61,0
0,64,66,3
0,38,96,0
0,55,49,0
0,67,64,3
0,42,61,0
0,71,101,0
0,48,39,0
0,55,44,3
0,67,64,96
0,67,69,3
0,40,108,0
0,42,69,0
0,60,60,0
0,55,45,3
0,42,71,3
0,48,42,0
0,42,61,3
0,55,46,0
0,62,66,3
0,35,127,0
0,42,61,0
0,60,61,0
0,64,66,3
0,38,96,0
0,55,49,0
0,55,90,3
0,67,64,0
0,42,61,0
0,71,101,0
0,48,39,0
0,55,44,3
0,67,64,96
0,60,69,13
0,60,90,3
0,67,69,0
0,40,108,0
0,42,69,0
0,60,60,0
0,62,70,6
0,55,45,3
0,64,69,0
0,67,69,3
0,42,71,0
0,48,42,0
0,42,61,3
0,55,46,0
0,67,67,4
0,36,62,3
0,60,75,0
0,57,69,0
0,62,67,0
0,35,127,0
0,42,81,0
0,60,60,0
0,55,36,3
0,48,36,5
0,64,67,3
0,55,46,0
0,62,68,3
0,42,69,0
0,48,48,0
0,65,67,14
0,64,68,3
0,55,43,0
0,64,65,7
0,67,68,3
0,40,102,0
0,42,69,0
0,60,58,0
0,55,38,3
0,67,68,96
0,67,68,3
0,35,127,0
0,42,55,0
0,48,42,0
0,62,67,6
0,64,67,3
0,80,91,0
0,55,44,0
0,60,67,13
0,62,67,3
0,35,127,0
0,42,61,0
0,60,58,0
0,64,66,3
0,38,96,0
0,55,41,0
0,55,50,3
0,67,64,0
0,42,61,0
0,71,101,0
0,48,40,0
0,55,41,3
0,67,64,5
0,60,69,14
0,60,64,3
0,67,64,0
0,40,108,0
0,42,69,0
0,60,58,0
0,62,69,15
0,64,64,3
0,55,52,0
0,67,71,3
0,64,69,0
0,62,64,0
0,42,71,0
0,48,43,0
0,64,64,0
0,42,61,0
0,55,47,0
0,67,69,11
0,57,63,3
0,60,67,0
0,62,66,0
0,35,127,0
0,42,73,0
0,60,52,0
0,64,66,3
0,55,42,0
0,65,70,2
0,62,66,1
0,42,64,0
0,48,43,0
0,64,66,3
0,55,45,0
0,64,69,11
0,67,66,3
0,40,105,0
0,42,64,0
0,60,61,0
0,55,49,3
0,67,66,96
0,62,67,15
0,67,66,3
0,35,127,0
0,42,67,0
0,48,40,0
0,64,68,0
0,64,66,2
0,80,66,0
0,55,44,0
0,62,66,3
0,81,62,0
0,35,127,0
0,42,63,0
0,60,61,0
0,64,66,3
0,55,49,0
0,55,37,3
0,67,64,0
0,42,67,0
0,71,101,0
0,48,39,0
0,55,44,3
0,67,64,96
0,60,54,3
0,67,69,0
0,40,106,0
0,42,75,0
0,60,60,0
0,60,72,9
0,55,45,1
0,62,72,6
0,64,72,4
0,67,67,3
0,42,64,0
0,48,42,0
0,62,72,6
0,35,127,3
0,42,75,0
0,55,46,0
0,36,62,3
0,57,69,0
0,60,73,0
0,62,67,0
0,35,127,0
0,42,81,0
0,60,60,0
0,64,67,3
0,55,46,0
0,62,68,3
0,42,69,0
0,48,48,0
0,60,73,7
0,64,68,3
0,55,43,0
0,60,73,4
0,67,68,3
0,40,102,0
0,42,69,0
0,60,58,0
0,55,38,3
0,67,68,96
0,67,68,3
0,35,127,0
0,42,55,0
0,48,42,0
0,60,75,21
0,60,72,89
0,64,67,3
0,80,91,0
0,55,44,0
0,62,67,3
0,35,127,0
0,42,61,0
0,60,58,0
0,64,66,3
0,38,96,0
0,55,41,0
0,55,40,3
0,67,64,0
0,42,61,0
0,71,101,0
0,48,40,0
0,55,41,3
0,67,64,96
0,60,71,5
0,60,75,3
0,67,64,0
0,40,108,0
0,42,69,0
0,60,58,0
0,62,70,7
0,64,64,3
0,55,52,0
0,64,69,4
0,67,72,3
0,62,64,0
0,42,71,0
0,48,43,0
0,67,70,11
0,64,64,3
0,42,61,0
0,55,47,0
0,57,69,3
0,60,73,0
0,62,66,0
0,35,127,0
0,42,81,0
0,60,52,0
0,55,35,3
0,48,36,5
0,64,66,3
0,55,42,0
0,65,70,7
0,62,66,3
0,42,69,0
0,48,43,0
0,64,66,3
0,55,45,0
0,64,69,8
0,67,66,3
0,40,102,0
0,42,69,0
0,60,61,0
0,55,49,3
0,67,66,96
0,62,69,0
0,67,66,1
0,35,127,0
0,42,55,0
0,48,40,0
0,64,69,7
0,64,66,3
0,80,91,0
0,55,44,0
0,62,66,3
0,35,127,0
0,42,61,0
0,60,61,0
0,64,66,3
0,38,96,0
0,55,49,0
0,62,69,5
0,55,55,3
0,67,64,0
0,42,61,0
0,71,101,0
0,48,39,0
0,60,63,5
0,55,44,3
0,67,64,96
0,60,75,3
0,67,69,0
0,40,108,0
0,42,69,0
0,60,60,0
0,55,45,3
0,67,64,3
0,42,71,0
0,48,42,0
0,42,61,3
0,55,46,0
0,60,73,2
0,57,69,0
0,62,67,1
0,35,127,0
0,42,73,0
0,60,60,0
0,64,67,3
0,55,46,0
0,62,68,3
0,42,64,0
0,48,48,0
0,64,68,3
0,55,43,0
0,67,68,3
0,40,105,0
0,42,64,0
0,60,58,0
0,55,38,3
0,67,68,96
0,67,68,3
0,35,127,0
0,42,67,0
0,48,42,0
0,64,67,3
0,80,66,0
0,55,44,0
0,62,67,3
0,81,62,0
0,35,127,0
0,42,63,0
0,60,58,0
0,64,66,3
0,55,41,0
0,55,55,3
0,67,64,0
0,42,67,0
0,71,101,0
0,48,40,0
0,55,41,3
0,67,64,96
0,60,75,3
0,67,64,0
0,40,106,0
0,42,75,0
0,60,58,0
0,64,64,3
0,55,52,0
0,67,64,3
0,62,64,0
0,42,64,0
0,48,43,0
0,64,64,3
0,35,127,0
0,42,75,0
0,55,47,0
0,60,73,3
0,57,69,0
0,67,66,0
0,35,127,0
0,42,61,0
0,60,58,0
0,38,96,3
0,55,41,0
0,67,66,95
0,67,66,3
0,42,61,0
0,71,101,0
0,48,40,0
0,64,73,3
0,55,41,0
0,65,64,38
0,67,71,4
0,65,63,3
0,57,80,0
0,62,71,0
0,40,108,0
0,42,69,0
0,60,58,0
0,64,77,2
0,55,67,0
0,64,64,0
0,55,52,0
0,65,85,3
0,57,71,0
0,62,69,0
0,42,71,0
0,48,43,0
0,64,69,3
0,42,61,0
0,55,47,0
0,55,38,3
0,36,62,0
0,62,67,0
0,82,36,0
0,35,127,0
0,42,81,0
0,60,60,0
0,48,36,4
0,67,98,2
0,64,67,3
0,70,28,0
0,55,46,0
0,55,57,9
0,62,68,3
0,82,37,0
0,42,69,0
0,48,48,0
0,64,68,3
0,70,29,0
0,55,43,0
0,60,64,177
0,67,68,3
0,82,38,0
0,40,102,0
0,42,69,0
0,60,58,0
0,60,66,4
0,62,64,1
0,70,29,3
0,55,38,0
0,67,68,95
0,67,74,40
0,64,65,0
0,67,68,3
0,82,39,0
0,35,127,0
0,42,55,0
0,48,42,0
0,64,67,3
0,70,29,0
0,80,91,0
0,55,44,0
0,67,66,0
0,60,75,3
0,57,69,0
0,62,67,0
0,82,36,0
0,35,127,0
0,42,61,0
0,60,58,0
0,64,66,3
0,70,28,0
0,38,96,0
0,55,41,0
0,67,64,3
0,82,37,0
0,42,61,0
0,71,101,0
0,48,40,0
0,65,67,12
0,70,29,3
0,55,41,0
0,64,67,7
0,67,64,73
0,67,64,3
0,82,38,0
0,40,108,0
0,42,69,0
0,60,58,0
0,64,64,3
0,70,29,0
0,55,52,0
0,62,64,3
0,82,39,0
0,42,71,0
0,48,43,0
0,62,67,10
0,64,64,3
0,70,29,0
0,42,61,0
0,55,47,0
0,60,66,8
0,62,66,3
0,82,36,0
0,35,127,0
0,42,73,0
0,60,52,0
0,64,66,3
0,70,28,0
0,55,42,0
0,55,50,3
0,62,66,0
0,82,37,0
0,42,64,0
0,48,43,0
0,64,66,3
0,70,29,0
0,55,45,0
0,60,66,46
0,60,64,3
0,67,66,0
0,82,38,0
0,40,105,0
0,42,64,0
0,60,61,0
0,62,67,15
0,70,29,3
0,55,49,0
0,67,66,95
0,67,71,3
0,64,67,0
0,67,66,0
0,82,39,0
0,35,127,0
0,42,67,0
0,48,40,0
0,64,66,0
0,70,29,0
0,80,66,0
0,55,44,0
0,67,68,11
0,57,63,3
0,60,67,0
0,62,66,0
0,82,36,0
0,81,62,0
0,35,127,0
0,42,63,0
0,60,61,0
0,64,66,3
0,70,28,0
0,55,49,0
0,65,68,2
0,67,64,1
0,82,37,0
0,42,67,0
0,71,101,0
0,48,39,0
0,70,29,3
0,55,44,0
0,64,68,11
0,67,64,82
0,67,69,3
0,82,38,0
0,40,106,0
0,42,75,0
0,60,60,0
0,70,29,3
0,55,45,0
0,62,68,15
0,82,39,3
0,42,64,0
0,48,42,0
0,64,68,0
0,70,29,3
0,35,127,0
0,42,75,0
0,55,46,0
0,62,67,3
0,82,36,0
0,35,127,0
0,42,81,0
0,60,60,0
0,64,67,3
0,70,28,0
0,55,46,0
0,55,37,3
0,62,68,0
0,82,37,0
0,42,69,0
0,48,48,0
0,64,68,3
0,70,29,0
0,55,43,0
0,60,54,3
0,67,68,0
0,82,38,0
0,40,102,0
0,42,69,0
0,60,58,0
0,60,70,9
0,70,29,1
0,55,38,0
0,62,70,5
0,67,68,90
0,64,70,8
0,67,67,3
0,67,68,0
0,82,39,0
0,35,127,0
0,42,55,0
0,48,42,0
0,62,70,6
0,64,67,3
0,70,29,0
0,80,91,0
0,55,44,0
0,36,62,3
0,57,69,0
0,60,73,0
0,62,67,0
0,82,36,0
0,35,127,0
0,42,61,0
0,60,58,0
0,64,66,3
0,70,28,0
0,38,96,0
0,55,41,0
0,67,64,3
0,82,37,0
0,42,61,0
0,71,101,0
0,48,40,0
0,60,70,7
0,70,29,3
0,55,41,0
0,60,67,3
0,67,64,92
0,67,64,3
0,82,38,0
0,40,108,0
0,42,69,0
0,60,58,0
0,64,64,3
0,70,29,0
0,55,52,0
0,62,64,3
0,82,39,0
0,42,71,0
0,48,43,0
0,60,70,21
0,60,70,20
0,64,64,3
0,70,29,0
0,42,61,0
0,55,47,0
0,55,54,3
0,62,66,0
0,82,36,0
0,35,127,0
0,42,81,0
0,60,52,0
0,48,49,4
0,64,66,3
0,70,28,0
0,55,42,0
0,55,40,3
0,62,66,0
0,82,37,0
0,42,69,0
0,48,43,0
0,64,66,3
0,70,29,0
0,55,45,0
0,60,68,37
0,60,75,3
0,67,66,0
0,82,38,0
0,40,102,0
0,42,69,0
0,60,61,0
0,62,68,3
0,70,29,3
0,55,49,0
0,67,66,95
0,64,69,24
0,67,72,3
0,67,66,0
0,82,39,0
0,35,127,0
0,42,55,0
0,48,40,0
0,67,69,4
0,64,66,3
0,70,29,0
0,80,91,0
0,55,44,0
0,57,82,23
0,60,93,0
0,62,66,3
0,82,36,0
0,35,127,0
0,42,61,0
0,60,61,0
0,64,66,3
0,70,28,0
0,38,96,0
0,55,49,0
0,65,69,6
0,67,64,3
0,82,37,0
0,42,61,0
0,71,101,0
0,48,39,0
0,70,29,3
0,55,44,0
0,64,67,12
0,67,64,83
0,67,69,3
0,82,38,0
0,40,108,0
0,42,69,0
0,60,60,0
0,56,71,4
0,65,64,0
0,62,90,0
0,70,29,3
0,55,45,0
0,62,66,0
0,82,39,1
0,42,71,0
0,48,42,0
0,64,67,7
0,70,29,3
0,42,61,0
0,55,46,0
0,55,69,6
0,60,80,1
0,62,67,3
0,82,36,0
0,35,127,0
0,42,73,0
0,60,60,0
0,64,67,3
0,70,28,0
0,55,46,0
0,62,67,5
0,62,68,3
0,82,37,0
0,42,64,0
0,48,48,0
0,60,60,17
0,64,68,3
0,70,29,0
0,55,43,0
0,67,68,3
0,82,38,0
0,40,105,0
0,42,64,0
0,60,58,0
0,70,29,3
0,55,38,0
0,67,68,95
0,67,68,3
0,82,39,0
0,35,127,0
0,42,67,0
0,48,42,0
0,64,67,3
0,70,29,0
0,80,66,0
0,55,44,0
0,62,67,3
0,82,36,0
0,81,62,0
0,35,127,0
0,42,63,0
0,60,58,0
0,64,66,3
0,70,28,0
0,55,41,0
0,67,59,3
0,82,37,0
0,42,67,0
0,71,101,0
0,48,40,0
0,70,29,3
0,55,41,0
0,67,57,95
0,55,77,3
0,67,56,0
0,82,38,0
0,40,106,0
0,42,75,0
0,60,58,0
0,62,110,9
0,64,82,50
0,62,93,3
0,64,53,0
0,70,29,0
0,55,52,0
0,60,88,3
0,62,49,0
0,82,39,0
0,42,64,0
0,48,43,0
0,64,46,3
0,70,29,0
0,35,127,0
0,42,75,0
0,55,47,0
0,55,60,2
0,59,60,2
0,62,60,1
0,31,113,0
0,31,67,0
0,62,102,0
0,57,99,0
0,59,102,0
0,55,85,0
0,82,36,0
0,35,127,0
0,42,81,0
0,57,60,0
0,55,63,0
0,62,82,0
0,67,68,170
0,70,28,21
0,67,68,88
0,82,37,15
0,42,69,0
0,64,68,33
0,70,29,22
0,67,68,85
0,82,38,8
0,40,102,0
0,42,69,0
0,70,29,191
0,31,112,36
0,82,39,0
0,35,127,0
0,42,55,0
0,64,68,0
0,67,69,19
0,55,77,9
0,70,29,0
0,80,91,0
0,31,111,71
0,57,75,0
0,82,36,0
0,35,127,0
0,42,61,0
0,64,69,20
0,70,28,12
0,38,96,0
0,67,68,13
0,82,37,14
0,42,61,0
0,71,101,0
0,70,29,191
0,59,85,27
0,57,77,0
0,62,93,0
0,55,75,0
0,82,38,0
0,40,108,0
0,42,69,0
0,70,29,162
0,69,69,174
0,82,39,17
0,42,71,0
0,71,68,41
0,70,29,26
0,42,61,0
0,60,85,6
0,33,102,4
0,65,60,2
0,60,77,4
0,53,77,0
0,57,60,3
0,60,60,1
0,65,73,0
0,45,60,14
0,33,113,0
0,82,36,0
0,35,127,0
0,42,73,0
0,72,68,0
0,72,105,36
0,70,28,155
0,65,68,14
0,82,37,4
0,42,64,0
0,70,29,96
0,65,68,18
0,82,38,173
0,40,105,0
0,42,64,0
0,70,29,191
0,67,67,19
0,33,115,40
0,82,39,0
0,35,127,0
0,42,67,0
0,67,67,32
0,70,29,159
