track,note,velocity,time
0,31,100,224
0,31,100,190
0,31,100,190
0,31,100,94
0,31,100,94
0,60,82,46
0,62,84,45
0,31,100,3
0,55,67,20
0,62,82,0
0,64,76,2
0,67,76,0
0,36,67,43
0,48,43,5
0,55,45,1
0,60,52,46
0,62,73,48
0,60,84,51
0,55,82,41
0,28,95,1
0,40,52,1
0,48,43,0
0,55,55,46
0,60,46,1
0,60,84,48
0,62,73,47
0,55,67,18
0,62,84,0
0,64,73,3
0,67,73,0
0,36,61,46
0,48,47,1
0,53,48,45
0,60,42,0
0,62,79,51
0,60,76,49
0,53,71,41
0,41,64,42
0,48,55,1
0,57,45,4
0,60,84,96
0,72,61,0
0,62,79,44
0,74,62,5
0,55,69,16
0,62,79,0
0,76,62,2
0,67,76,1
0,64,73,1
0,36,67,39
0,82,48,3
0,55,79,2
0,48,43,2
0,55,65,10
0,55,70,1
0,55,45,0
0,82,27,2
0,53,61,13
0,60,52,4
0,53,63,10
0,82,32,0
0,52,58,2
0,62,71,0
0,74,63,4
0,72,64,18
0,60,76,2
0,82,23,1
0,55,73,2
0,82,22,2
0,67,62,1
0,82,48,2
0,40,52,1
0,48,43,0
0,60,76,0
0,60,76,11
0,82,27,2
0,55,55,1
0,60,71,0
0,59,68,10
0,60,46,0
0,55,63,5
0,82,32,14
0,72,64,0
0,60,82,1
0,62,71,35
0,74,61,0
0,82,23,0
0,55,64,18
0,62,79,0
0,82,22,3
0,76,55,0
0,64,79,1
0,67,66,0
0,36,61,45
0,82,48,1
0,48,47,15
0,55,63,0
0,55,60,0
0,53,48,0
0,55,73,1
0,82,27,0
0,53,74,4
0,60,42,1
0,53,70,5
0,82,32,4
0,53,73,6
0,62,76,2
0,74,58,1
0,72,57,9
0,82,23,1
0,60,84,1
0,65,64,41
0,82,22,1
0,53,76,0
0,82,48,1
0,36,61,0
0,48,48,17
0,62,70,0
0,62,74,6
0,53,43,1
0,82,27,3
0,62,74,0
0,60,76,5
0,57,43,2
0,53,75,2
0,82,32,3
0,71,55,14
0,59,79,1
0,76,62,29
0,82,23,0
0,64,79,1
0,57,79,43
0,82,22,0
0,69,58,0
0,47,47,43
0,47,26,2
0,82,48,0
0,53,40,1
0,57,38,0
0,57,73,0
0,50,48,2
0,57,73,8
0,82,27,11
0,53,55,0
0,57,70,1
0,55,74,7
0,57,46,2
0,55,73,2
0,82,32,13
0,53,76,3
0,71,62,0
0,59,71,1
0,82,23,6
0,74,56,0
0,62,68,0
0,82,22,22
0,55,79,1
0,67,61,0
0,52,51,44
0,40,52,0
0,82,48,1
0,55,43,0
0,55,85,22
0,47,42,3
0,55,73,3
0,55,74,7
0,82,27,2
0,52,42,1
0,57,81,0
0,55,42,4
0,55,82,4
0,82,32,1
0,81,66,40
0,57,82,1
0,82,23,0
0,57,61,1
0,57,82,1
0,59,55,2
0,59,89,0
0,59,66,1
0,82,22,0
0,83,64,1
0,52,52,1
0,55,45,1
0,83,66,0
0,55,73,0
0,82,48,0
0,59,86,1
0,45,68,0
0,59,84,0
0,82,27,29
0,82,32,18
0,57,84,1
0,84,64,0
0,82,23,1
0,60,55,0
0,60,84,1
0,82,22,2
0,55,82,0
0,38,68,2
0,52,95,1
0,76,67,1
0,82,48,0
0,57,42,0
0,52,81,0
0,82,27,18
0,52,76,0
0,82,32,7
0,54,84,4
0,82,23,1
0,78,58,1
0,54,91,0
0,82,22,22
0,50,58,4
0,43,64,2
0,55,42,3
0,55,64,1
0,79,61,0
0,82,48,0
0,50,53,0
0,59,48,1
0,55,80,0
0,59,68,1
0,82,27,54
0,82,32,19
0,82,23,88
0,43,48,15
0,82,22,20
0,43,78,0
0,55,84,19
0,65,38,0
0,38,74,1
0,57,45,0
0,60,42,0
0,65,86,0
0,38,53,1
0,42,77,0
0,41,76,0
0,57,76,0
0,60,82,0
0,65,82,1
0,65,81,7
0,65,79,0
0,42,42,1
0,65,82,1
0,65,73,0
0,65,89,2
0,65,76,0
0,42,76,1
0,42,42,46
0,42,47,2
0,62,79,2
0,42,44,4
0,64,91,15
0,60,48,0
0,59,87,0
0,62,84,0
0,43,82,0
0,31,78,0
0,43,55,0
0,42,82,1
0,55,45,0
0,59,46,0
0,62,86,0
0,60,76,0
0,64,68,0
0,64,86,1
0,42,42,15
0,65,81,5
0,65,68,0
0,62,76,0
0,64,81,0
0,36,81,0
0,36,64,2
0,48,63,0
0,55,79,0
0,60,79,0
0,64,71,0
0,42,65,0
0,48,53,0
0,64,55,0
0,42,36,4
0,42,81,3
0,42,48,2
0,42,47,8
0,42,43,18
0,42,53,5
0,55,31,0
0,59,64,2
0,48,85,4
0,36,67,0
0,48,76,0
0,55,87,0
0,60,103,0
0,42,79,0
0,47,76,5
0,47,64,1
0,42,46,0
0,35,76,1
0,47,63,0
0,55,82,0
0,62,95,0
0,55,70,9
0,45,52,4
0,60,55,0
0,42,77,0
0,45,75,0
0,60,99,1
0,64,82,0
0,57,95,0
0,33,79,1
0,45,71,0
0,64,85,1
0,64,87,8
0,64,71,0
0,42,50,6
0,64,82,7
0,64,73,0
0,64,82,10
0,42,79,0
0,64,79,0
0,42,60,28
0,42,46,1
0,48,56,0
0,64,82,7
0,60,73,1
0,42,42,4
0,62,81,5
0,38,64,0
0,57,40,3
0,59,50,7
0,60,82,5
0,57,55,0
0,38,67,1
0,54,50,0
0,50,71,0
0,57,84,0
0,60,95,0
0,38,80,1
0,42,78,0
0,50,56,1
0,62,79,2
0,59,76,0
0,62,71,1
0,42,66,2
0,64,75,1
0,64,73,1
0,60,76,0
0,62,32,0
0,62,80,0
0,31,85,0
0,62,79,0
0,42,79,0
0,55,34,1
0,59,41,0
0,43,56,0
0,55,71,0
0,43,69,0
0,59,82,0
0,42,52,1
0,42,81,43
0,43,85,8
0,42,52,2
0,45,69,16
0,43,73,21
0,42,48,2
0,60,95,7
0,42,46,0
0,75,64,0
0,81,64,0
0,84,68,1
0,60,82,0
0,62,95,0
0,42,47,1
0,86,66,1
0,55,68,1
0,88,64,8
0,42,50,0
0,62,95,0
0,67,82,1
0,64,89,6
0,46,50,3
0,55,47,0
0,60,50,0
0,52,47,0
0,36,101,1
0,42,78,0
0,24,85,0
0,36,59,1
0,48,61,0
0,36,64,0
0,42,35,9
0,55,85,20
0,42,56,0
0,55,85,0
0,42,32,2
0,55,86,0
0,40,75,2
0,42,78,0
0,42,35,10
0,53,82,3
0,42,56,4
0,53,82,1
0,24,75,1
0,36,86,1
0,42,32,0
0,42,78,1
0,24,47,0
0,52,76,1
0,42,35,0
0,62,82,3
0,24,79,0
0,42,56,0
0,86,68,1
0,42,32,5
0,84,64,7
0,40,79,0
0,42,78,0
0,60,79,0
0,42,35,9
0,55,73,0
0,79,64,0
0,36,79,0
0,42,56,0
0,24,82,0
0,42,32,0
0,40,73,5
0,28,76,0
0,40,61,1
0,36,92,0
0,42,78,0
0,42,35,20
0,60,86,4
0,42,56,1
0,42,32,1
0,60,89,1
0,40,75,2
0,42,78,0
0,60,86,0
0,42,35,22
0,59,86,5
0,28,78,0
0,42,56,2
0,55,84,2
0,42,32,1
0,28,76,21
0,36,86,1
0,42,78,0
0,42,35,2
0,84,64,1
0,60,82,0
0,42,56,1
0,42,32,4
0,86,64,0
0,62,76,1
0,40,83,0
0,42,78,0
0,42,35,9
0,55,67,0
0,29,74,2
0,42,56,0
0,62,79,0
0,67,66,0
0,88,66,0
0,64,64,6
0,31,58,1
0,42,32,1
0,48,64,1
0,57,46,0
0,24,69,1
0,53,43,0
0,36,101,0
0,42,78,0
0,36,61,1
0,48,64,0
0,42,35,0
0,55,82,5
0,42,56,0
0,55,86,2
0,42,32,0
0,55,84,2
0,40,79,0
0,42,78,0
0,53,64,0
0,42,35,4
0,53,91,1
0,42,56,3
0,53,82,2
0,36,84,0
0,42,32,0
0,24,74,0
0,42,78,8
0,53,86,0
0,24,69,1
0,42,35,0
0,86,67,5
0,42,56,2
0,24,82,0
0,62,84,1
0,42,32,7
0,84,62,0
0,40,77,0
0,42,78,0
0,60,79,3
0,42,35,2
0,24,82,0
0,42,56,0
0,53,82,0
0,60,66,0
0,77,64,0
0,36,79,21
0,42,32,0
0,36,90,22
0,42,78,0
0,24,82,1
0,36,68,0
0,62,86,22
0,42,35,0
0,42,56,0
0,62,86,3
0,42,32,3
0,40,77,5
0,42,78,0
0,62,75,0
0,42,35,22
0,60,82,3
0,42,56,7
0,24,69,1
0,42,32,1
0,53,82,1
0,36,79,19
0,42,78,0
0,24,80,1
0,53,82,6
0,42,35,13
0,83,61,4
0,59,87,0
0,42,56,2
0,42,32,3
0,88,62,2
0,40,81,2
0,42,78,0
0,64,79,0
0,42,35,5
0,81,66,2
0,36,84,2
0,46,50,0
0,57,82,1
0,36,86,5
0,47,55,0
0,65,50,0
0,35,75,1
0,36,101,0
0,42,78,0
0,62,42,0
0,35,57,0
0,53,66,0
0,47,55,0
0,50,57,1
0,42,35,4
0,57,85,1
0,42,56,3
0,57,76,3
0,42,32,1
0,40,79,6
0,42,78,0
0,57,80,1
0,42,35,3
0,55,86,5
0,42,56,1
0,42,32,6
0,55,82,1
0,36,86,19
0,42,78,0
0,42,35,22
0,53,97,0
0,83,61,20
0,59,82,2
0,36,79,0
0,42,56,0
0,42,32,1
0,86,60,1
0,40,77,1
0,42,78,0
0,62,79,2
0,42,35,2
0,36,79,2
0,42,56,0
0,55,84,0
0,23,75,1
0,79,64,0
0,42,32,12
0,55,45,19
0,67,48,0
0,28,81,1
0,59,57,0
0,52,52,1
0,36,92,0
0,42,78,0
0,47,56,0
0,52,55,0
0,40,61,0
0,55,86,4
0,42,40,2
0,55,97,8
0,42,56,1
0,55,84,0
0,42,39,0
0,40,77,0
0,42,78,0
0,55,94,0
0,42,40,5
0,57,80,1
0,42,56,3
0,55,97,6
0,42,32,1
0,28,73,0
0,36,86,12
0,42,78,0
0,28,49,0
0,42,35,0
0,36,79,13
0,42,56,0
0,28,70,0
0,42,32,7
0,69,55,2
0,40,82,1
0,81,68,0
0,40,81,1
0,42,78,0
0,69,95,0
0,57,97,1
0,42,35,3
0,71,63,0
0,83,64,0
0,71,84,0
0,36,79,0
0,46,50,0
0,43,85,0
0,59,87,0
0,60,56,2
0,64,28,0
0,52,42,0
0,45,63,0
0,45,82,0
0,83,68,0
0,36,101,0
0,42,78,0
0,60,58,0
0,71,61,0
0,45,68,0
0,59,97,0
0,60,82,0
0,67,87,0
0,71,87,0
0,64,87,0
0,42,35,5
0,42,56,22
0,42,32,22
0,40,79,0
0,42,78,0
0,59,80,3
0,42,35,19
0,42,56,1
0,42,32,1
0,36,84,2
0,42,78,0
0,42,35,13
0,36,79,9
0,42,56,0
0,42,32,20
0,45,78,0
0,57,89,0
0,72,51,0
0,72,79,1
0,40,77,1
0,42,78,0
0,84,73,0
0,42,35,22
0,55,86,3
0,42,56,1
0,36,79,12
0,42,32,0
0,57,52,1
0,38,69,0
0,60,62,1
0,38,55,1
0,50,48,0
0,76,68,1
0,54,38,0
0,36,90,0
0,42,78,0
0,38,76,0
0,50,62,0
0,57,25,0
0,62,52,0
0,64,64,0
0,57,69,0
0,60,82,0
0,64,82,0
0,52,87,0
0,42,35,7
0,42,56,22
0,42,32,22
0,40,77,1
0,42,78,0
0,52,94,3
0,42,35,19
0,42,56,0
0,38,53,1
0,42,32,1
0,38,83,5
0,36,86,2
0,42,78,0
0,42,35,22
0,36,79,22
0,42,56,0
0,42,32,22
0,66,79,0
0,54,99,0
0,78,63,1
0,40,81,0
0,42,78,0
0,38,86,0
0,42,35,22
0,42,56,22
0,59,53,0
0,36,79,0
0,42,32,0
0,62,68,1
0,43,61,0
0,55,47,2
0,62,57,0
0,79,55,0
0,36,90,0
0,42,78,0
0,55,90,0
0,31,75,0
0,59,53,0
0,43,62,0
0,59,82,0
0,67,87,0
0,55,108,0
0,62,95,0
0,42,56,42
0,42,32,22
0,40,94,22
0,42,78,0
0,42,35,22
0,42,56,1
0,42,32,2
0,36,86,7
0,42,78,0
0,31,71,0
0,42,35,15
0,31,73,13
0,36,79,2
0,42,56,0
0,45,83,0
0,42,32,22
0,43,91,5
0,40,97,1
0,40,88,22
0,36,88,6
0,48,86,0
0,55,97,2
0,45,83,1
0,38,80,0
0,53,57,0
0,65,69,0
0,50,66,0
0,57,52,0
0,36,101,0
0,42,78,0
0,62,64,1
0,50,68,0
0,65,82,0
0,65,109,0
0,38,68,0
0,57,73,0
0,62,84,0
0,42,40,0
0,65,82,5
0,65,73,0
0,42,56,1
0,65,97,8
0,65,69,0
0,42,39,8
0,65,113,1
0,65,68,0
0,40,77,2
0,42,78,0
0,42,40,0
0,42,56,1
0,36,86,0
0,42,32,0
0,26,75,0
0,36,79,6
0,42,78,0
0,26,68,0
0,42,35,15
0,26,60,1
0,62,95,0
0,64,71,0
0,36,79,0
0,42,56,0
0,26,81,1
0,64,97,7
0,55,50,5
0,42,32,1
0,55,53,3
0,62,100,0
0,31,84,0
0,55,48,0
0,40,81,0
0,42,78,0
0,59,50,0
0,55,76,0
0,62,69,0
0,59,84,0
0,62,82,0
0,43,73,0
0,42,35,2
0,64,82,3
0,64,102,1
0,64,79,7
0,46,50,2
0,65,97,0
0,65,62,6
0,65,68,2
0,64,100,0
0,48,55,1
0,64,56,0
0,60,58,0
0,24,85,1
0,36,101,0
0,42,78,0
0,64,67,1
0,55,73,0
0,48,73,0
0,60,82,0
0,64,79,0
0,42,35,0
0,42,56,5
0,42,32,5
0,40,79,15
0,42,78,0
0,42,35,22
0,42,56,22
0,36,86,2
0,42,32,0
0,24,73,0
0,24,74,1
0,36,79,1
0,42,78,0
0,42,35,22
0,36,79,22
0,42,56,0
0,24,84,1
0,42,32,22
0,36,89,2
0,67,48,0
0,48,76,0
0,40,77,0
0,42,78,0
0,55,82,1
0,60,99,0
0,42,35,14
0,35,76,20
0,36,79,0
0,42,56,0
0,62,82,0
0,47,57,1
0,71,64,0
0,59,87,0
0,47,79,1
0,42,32,0
0,55,86,0
0,45,79,1
0,72,60,0
0,64,94,0
0,36,101,0
0,42,78,0
0,64,73,1
0,33,82,0
0,57,84,0
0,45,57,0
0,60,91,0
0,62,42,0
0,42,35,3
0,64,86,3
0,64,76,0
0,42,56,0
0,64,85,2
0,64,66,0
0,42,32,5
0,64,86,6
0,64,67,0
0,40,77,1
0,42,78,0
0,42,35,22
0,42,56,1
0,33,71,2
0,36,86,2
0,42,32,0
0,24,74,2
0,48,61,0
0,36,79,2
0,42,78,0
0,42,35,9
0,64,97,1
0,60,91,0
0,36,79,0
0,42,56,0
0,24,74,0
0,62,91,8
0,57,55,1
0,42,32,1
0,60,100,2
0,50,61,3
0,26,81,0
0,62,64,0
0,38,68,1
0,57,53,0
0,57,87,0
0,40,81,0
0,42,78,0
0,54,53,0
0,60,95,0
0,42,35,1
0,62,102,2
0,59,79,10
0,62,71,0
0,42,56,5
0,64,100,1
0,64,73,2
0,60,79,0
0,36,79,3
0,42,32,0
0,62,100,1
0,59,63,0
0,74,63,0
0,36,101,1
0,42,78,0
0,55,56,0
0,31,76,0
0,43,66,0
0,62,82,0
0,55,84,0
0,59,84,0
0,43,79,1
0,42,56,1
0,42,32,6
0,40,94,5
0,42,78,0
0,42,35,8
0,42,56,22
0,31,70,0
0,36,86,0
0,42,32,0
0,31,73,1
0,36,79,0
0,42,78,0
0,42,35,0
0,74,76,1
0,67,84,1
0,74,65,1
0,36,79,0
0,42,56,0
0,45,83,0
0,31,81,1
0,42,32,17
0,72,66,0
0,40,97,0
0,72,64,0
0,43,86,1
0,62,73,0
0,40,88,22
0,59,87,0
0,71,79,1
0,48,86,0
0,31,82,0
0,71,67,0
0,45,83,22
0,29,97,19
0,57,56,0
0,65,60,0
0,41,68,0
0,69,71,0
0,36,101,0
0,49,75,0
0,60,64,0
0,41,82,0
0,53,87,0
0,57,107,0
0,60,95,0
0,42,40,15
0,42,56,22
0,42,39,22
0,65,94,0
