track,note,velocity,time
0,56,83,8
0,59,84,0
0,63,85,1
0,40,85,4
0,66,126,6
0,66,105,0
0,40,120,1
0,75,108,0
0,40,100,0
0,75,90,0
0,63,122,169
0,63,102,0
0,71,104,2
0,71,87,0
0,59,109,6
0,59,91,0
0,68,126,1
0,68,105,0
0,80,66,6
0,88,66,12
0,76,90,8
0,68,101,0
0,76,95,0
0,68,84,0
0,37,83,5
0,56,84,2
0,59,84,0
0,63,85,0
0,66,124,4
0,66,103,0
0,87,66,1
0,75,103,0
0,37,114,0
0,75,86,0
0,37,95,0
0,63,118,4
0,63,98,0
0,71,104,3
0,71,87,0
0,83,60,2
0,80,66,13
0,59,97,23
0,68,126,0
0,59,81,0
0,68,105,0
0,73,66,4
0,61,106,2
0,61,88,0
0,76,64,17
0,64,91,3
0,64,76,0
0,78,70,68
0,66,92,18
0,66,77,0
0,57,83,60
0,80,69,1
0,61,86,1
0,64,83,2
0,42,84,8
0,68,104,2
0,59,98,0
0,68,87,0
0,59,82,0
0,42,110,3
0,42,92,0
0,64,106,32
0,64,88,0
0,56,116,1
0,56,97,0
0,76,66,10
0,73,63,29
0,52,103,4
0,52,86,0
0,61,110,4
0,61,92,0
0,52,71,88
0,52,79,0
0,47,83,14
0,61,60,23
0,61,70,0
0,57,62,1
0,57,72,0
0,64,71,2
0,64,79,0
0,47,78,2
0,47,85,0
0,61,68,5
0,61,77,0
0,57,80,1
0,57,87,0
0,64,74,3
0,64,82,0
0,60,85,5
0,57,85,11
0,54,84,2
0,57,55,1
0,57,66,0
0,60,67,4
0,60,76,0
0,64,64,3
0,64,73,0
0,57,43,17
0,57,56,0
0,40,83,7
0,64,83,12
0,59,83,0
0,56,56,5
0,54,56,0
0,56,67,0
0,54,67,0
0,40,61,9
0,40,71,0
0,59,48,2
0,59,60,0
0,56,105,22
0,57,105,78
0,59,105,3
0,59,105,31
0,37,71,0
0,52,59,1
0,56,69,3
0,59,62,3
0,56,105,8
0,57,105,33
0,59,105,34
0,52,88,68
0,42,71,4
0,57,95,6
0,59,105,1
0,64,78,10
0,57,105,61
0,56,105,1
0,59,105,10
0,57,105,55
0,47,77,7
0,57,77,0
0,54,84,45
0,60,78,0
0,33,91,0
0,57,105,36
0,56,105,40
0,54,105,19
0,52,48,6
0,32,65,0
0,56,105,2
0,59,51,1
0,57,105,16
0,56,105,32
0,52,81,28
0,54,105,12
0,37,76,14
0,54,81,0
0,63,77,2
0,56,105,8
0,44,65,133
0,56,82,0
0,64,84,0
0,49,71,0
0,56,105,44
0,57,105,12
0,59,105,59
0,54,57,5
0,57,62,1
0,35,81,0
0,62,54,1
0,59,105,17
0,61,105,27
0,61,105,21
0,40,64,12
0,56,77,0
0,62,89,94
0,59,91,37
0,57,101,11
0,68,105,14
0,62,85,10
0,56,113,5
0,28,112,3
0,62,103,12
0,57,91,0
0,30,103,2
0,66,105,5
0,66,105,9
0,62,97,15
0,32,113,3
0,59,109,2
0,64,105,4
0,52,73,10
0,61,66,1
0,59,86,3
0,33,93,4
0,76,60,0
0,73,58,1
0,71,59,0
0,64,105,6
0,61,105,22
0,63,105,6
0,52,70,12
0,61,74,1
0,57,84,0
0,42,76,4
0,69,60,5
0,64,105,10
0,69,105,23
0,72,57,5
0,68,60,11
0,75,59,6
0,68,105,5
0,60,81,1
0,56,66,0
0,63,73,1
0,44,72,0
0,66,105,4
0,64,105,9
0,63,63,34
0,76,60,6
0,59,80,2
0,71,59,0
0,64,74,1
0,37,68,7
0,44,81,3
0,64,105,7
0,79,58,7
0,72,60,2
0,60,125,11
0,64,124,0
0,45,126,1
0,62,105,45
0,40,92,59
0,74,57,28
0,78,60,1
0,62,105,3
0,66,122,3
0,60,126,1
0,38,126,0
0,60,105,10
0,59,105,4
0,66,80,23
0,32,87,4
0,59,83,1
0,75,57,10
0,71,60,7
0,64,86,19
0,83,59,1
0,63,64,64
0,76,60,35
0,64,88,4
0,73,58,4
0,37,81,7
0,59,105,38
0,57,105,9
0,56,105,30
0,57,76,30
0,69,59,1
0,64,72,1
0,42,74,6
0,57,105,34
0,64,105,7
0,60,83,0
0,64,85,0
0,72,60,14
0,54,71,1
0,60,72,3
0,45,80,2
0,47,82,6
0,45,94,11
0,63,105,4
0,35,96,3
0,64,105,2
0,59,86,1
0,64,105,6
0,56,70,1
0,52,59,2
0,40,75,3
0,59,70,0
0,71,57,0
0,68,58,1
0,28,96,1
0,88,74,1
0,80,76,2
0,64,105,2
0,27,93,1
0,71,105,2
0,63,105,12
0,76,86,4
0,59,105,13
0,87,84,0
0,63,86,0
0,78,79,1
0,54,84,1
0,25,99,3
0,66,102,0
0,75,105,0
0,56,105,2
0,37,90,0
0,87,58,9
0,78,58,1
0,88,86,30
0,80,86,4
0,64,83,4
0,56,85,1
0,88,60,0
0,68,105,1
0,76,104,0
0,80,58,1
0,56,105,3
0,48,60,11
0,50,60,0
0,52,58,5
0,53,59,0
0,55,59,3
0,57,59,0
0,59,60,2
0,57,105,3
0,60,59,0
0,62,59,0
0,64,60,4
0,65,59,3
0,67,60,3
0,69,57,1
0,88,60,1
0,71,59,0
0,83,58,0
0,59,105,3
0,81,80,5
0,57,84,4
0,61,69,2
0,69,69,2
0,64,75,0
0,42,83,2
0,30,90,1
0,59,105,3
0,57,105,46
0,56,105,26
0,59,105,29
0,57,105,105
0,30,95,1
0,48,60,15
0,50,60,5
0,52,59,0
0,53,60,1
0,55,60,0
0,57,58,0
0,59,57,0
0,60,59,4
0,62,58,0
0,83,60,0
0,78,57,3
0,64,58,1
0,65,60,4
0,67,58,1
0,69,57,0
0,71,58,1
0,61,76,2
0,64,81,1
0,69,74,2
0,35,90,0
0,35,95,6
0,76,85,18
0,63,52,35
0,66,94,38
0,87,82,13
0,63,83,5
0,75,79,0
0,35,81,17
0,66,105,3
0,42,73,6
0,60,105,3
0,62,105,7
0,47,70,0
0,60,105,2
0,33,117,11
0,60,95,2
0,60,86,15
0,66,83,3
0,66,110,7
0,84,82,4
0,45,106,4
0,72,99,8
0,59,105,13
0,78,80,11
0,83,82,2
0,44,77,2
0,59,84,6
0,66,80,6
0,59,83,1
0,71,75,4
0,32,79,0
0,44,74,3
0,61,105,2
0,59,105,21
0,64,86,10
0,36,85,12
0,37,88,14
0,60,83,1
0,60,105,9
0,60,105,9
0,39,116,1
0,66,107,0
0,39,76,1
0,61,105,7
0,64,83,5
0,37,89,0
0,63,83,1
0,59,86,3
0,37,77,7
0,63,79,2
0,55,105,2
0,59,74,1
0,64,79,0
0,54,105,37
0,52,105,53
0,56,105,41
0,44,78,6
0,57,105,14
0,38,75,21
0,59,105,95
0,39,76,15
0,56,88,1
0,50,77,0
0,57,84,10
0,62,83,5
0,54,84,14
0,40,81,2
0,40,76,1
0,50,78,0
0,57,81,1
0,59,105,2
0,61,105,33
0,61,105,3
0,59,80,0
0,57,100,0
0,56,83,0
0,80,87,4
0,28,103,2
0,62,105,2
0,56,116,1
0,28,113,2
0,30,102,4
0,30,110,1
0,57,85,0
0,62,100,1
0,57,105,3
0,81,84,1
0,68,105,8
0,59,85,7
0,83,84,6
0,32,102,1
0,62,107,10
0,59,116,1
0,32,116,0
0,66,105,10
0,64,105,12
0,64,86,5
0,64,105,2
0,61,86,5
0,33,100,2
0,52,88,0
0,85,76,3
0,61,86,0
0,33,81,0
0,59,79,2
0,81,83,378
0,33,73,10
0,61,105,8
0,40,84,2
0,63,105,24
0,45,75,1
0,57,83,26
0,63,85,1
0,54,74,1
0,39,83,2
0,57,91,3
0,61,80,0
0,39,79,2
0,64,105,4
0,69,105,2
0,68,105,3
0,54,68,1
0,60,78,1
0,44,78,0
0,63,67,1
0,60,76,25
0,63,72,1
0,54,64,1
0,66,105,3
0,64,105,76
0,59,83,4
0,64,83,1
0,68,86,0
0,83,77,1
0,92,74,3
0,37,79,7
0,59,85,4
0,64,83,1
0,32,94,8
0,37,92,3
0,39,100,0
0,40,103,8
0,44,91,2
0,49,102,1
0,56,100,10
0,66,63,8
0,64,105,1
0,84,76,1
0,57,97,2
0,91,78,0
0,79,60,0
0,84,60,0
0,67,83,1
0,81,59,0
0,60,85,3
0,67,97,3
0,33,112,3
0,60,114,0
0,62,105,5
0,52,102,3
0,60,97,11
0,66,106,2
0,60,83,1
0,38,115,2
0,62,83,3
0,78,59,1
0,62,105,3
0,66,86,1
0,54,90,1
0,90,78,0
0,83,73,1
0,60,105,2
0,59,105,4
0,66,84,0
0,59,87,2
0,63,85,1
0,32,100,0
0,59,84,2
0,32,97,4
0,87,60,1
0,60,105,1
0,83,60,1
0,59,105,5
0,64,84,127
0,88,76,7
0,64,72,2
0,37,69,4
0,88,58,0
0,37,92,5
0,59,105,12
0,57,105,2
0,56,105,2
0,57,84,1
0,81,71,1
0,30,92,2
0,57,78,1
0,64,66,0
0,81,58,3
0,30,72,1
0,57,105,5
0,64,105,3
0,83,58,2
0,35,100,5
0,57,79,6
0,35,81,0
0,60,81,0
0,84,57,7
0,63,105,5
0,64,105,9
0,83,57,4
0,64,105,1
0,56,64,2
0,28,96,3
0,52,56,4
0,59,65,2
0,40,69,2
0,57,1,37
0,49,1,8
0,57,1,21
0,49,1,22
0,57,1,9
0,49,2,25
0,57,5,27
0,49,6,11
0,57,8,5
0,49,11,7
0,57,12,1
0,49,14,18
0,57,16,12
0,49,18,20
0,57,20,13
0,49,20,9
0,57,23,12
0,49,26,13
0,57,27,8
0,49,27,13
0,57,32,9
0,49,36,16
0,57,38,14
0,57,40,11
0,49,44,8
0,57,44,6
0,49,48,23
0,57,50,3
0,49,52,30
0,57,56,12
0,49,62,13
0,57,68,3
0,49,74,23
0,57,80,15
0,49,90,3
0,57,99,0
0,61,99,1
0,64,99,1
0,69,99,1
0,33,110,1
0,57,105,0
0,52,105,0
0,61,105,0
0,33,121,0
0,57,105,0
0,52,105,0
0,61,105,0
0,33,105,0
0,49,70,2
0,36,120,1
0,42,46,112
0,61,105,144
0,42,117,20
0,64,105,1
0,42,46,8
0,64,105,3
0,64,105,12
0,42,119,22
0,42,46,106
0,42,119,50
0,61,105,21
0,61,48,17
0,61,68,0
0,42,46,1
0,33,89,1
0,52,43,0
0,33,93,0
0,52,63,0
0,64,105,7
0,35,105,8
0,35,89,0
0,63,61,2
0,63,81,0
0,59,77,1
0,59,77,0
0,54,77,3
0,54,77,0
0,49,70,32
0,52,99,1
0,36,113,0
0,61,105,0
0,56,105,0
0,61,105,0
0,56,105,0
0,64,105,1
0,64,105,0
0,56,99,0
0,61,99,2
0,37,121,0
0,37,105,0
0,64,99,1
0,68,105,0
0,25,117,3
0,73,99,0
0,66,105,144
0,42,46,14
0,66,105,35
0,42,119,40
0,66,105,5
0,42,46,121
0,64,105,5
0,42,117,122
0,42,46,124
0,64,105,11
0,42,117,5
0,37,118,3
0,37,102,0
0,37,116,15
0,66,105,11
0,39,107,1
0,39,91,0
0,39,107,2
0,68,105,30
0,42,46,3
0,40,115,3
0,40,99,0
0,40,109,8
0,57,70,20
0,36,103,0
0,69,105,13
0,54,99,0
0,49,70,1
0,36,126,0
0,66,117,0
0,66,103,0
0,59,99,1
0,35,112,1
0,62,118,0
0,69,118,0
0,62,104,0
0,69,104,0
0,62,99,1
0,35,121,0
0,35,105,0
0,66,99,2
0,69,99,1
0,68,105,34
0,66,105,32
0,38,110,2
0,42,109,2
0,38,127,1
0,64,105,4
0,48,119,0
0,66,105,2
0,48,118,1
0,52,99,0
0,59,99,2
0,62,99,0
0,64,99,1
0,69,99,2
0,28,112,5
0,40,109,6
0,40,93,0
0,64,114,3
0,62,119,0
0,64,100,0
0,62,105,0
0,69,110,1
0,69,96,0
0,47,112,1
0,47,98,1
0,45,123,4
0,45,127,3
0,69,105,1
0,35,106,4
0,47,89,0
0,56,99,0
0,62,99,1
0,64,84,0
0,71,99,2
0,40,114,1
0,38,127,5
0,62,107,2
0,62,93,0
0,68,111,3
0,64,111,0
0,68,97,0
0,64,97,0
0,47,122,1
0,68,105,9
0,45,127,3
0,64,105,4
0,36,127,0
0,43,109,0
0,64,85,1
0,59,92,0
0,61,87,1
0,33,99,0
0,64,86,0
0,61,85,2
0,33,103,1
0,81,87,0
0,59,85,0
0,49,70,0
0,36,127,1
0,73,84,1
0,73,57,3
0,76,60,0
0,71,60,0
0,61,105,5
0,42,46,2
0,52,84,12
0,42,101,0
0,57,80,5
0,42,46,8
0,52,99,1
0,57,99,2
0,61,99,1
0,42,117,1
0,64,99,2
0,69,99,1
0,38,125,2
0,42,46,51
0,33,95,3
0,42,106,5
0,36,124,3
0,42,46,26
0,42,112,11
0,36,127,1
0,33,107,1
0,42,46,23
0,52,59,1
0,69,105,22
0,42,104,9
0,52,59,1
0,57,59,0
0,42,46,40
0,52,99,0
0,57,99,0
0,61,99,0
0,64,99,0
0,69,99,1
0,38,125,3
0,42,112,1
0,68,105,1
0,42,46,1
0,52,59,1
0,46,85,6
0,64,105,1
0,69,59,12
0,33,103,18
0,68,83,9
0,80,84,2
0,71,87,4
0,59,81,1
0,64,83,0
0,68,77,1
0,42,88,0
0,30,99,2
0,52,59,1
0,36,127,0
0,42,112,2
0,56,64,1
0,68,60,3
0,61,105,11
0,42,46,53
0,52,59,3
0,56,59,2
0,42,104,11
0,61,105,9
0,42,46,69
0,52,99,2
0,56,99,0
0,61,99,0
0,64,99,2
0,71,99,1
0,38,125,8
0,42,112,1
0,42,46,68
0,30,104,54
0,42,108,10
0,36,127,0
0,71,65,8
0,42,46,3
0,73,82,33
0,81,86,2
0,61,85,9
0,69,86,3
0,30,107,3
0,73,57,0
0,64,81,1
0,42,112,0
0,36,127,0
0,69,86,1
0,61,84,0
0,69,60,0
0,42,46,71
0,54,59,1
0,42,104,9
0,42,46,69
0,61,105,14
0,54,99,0
0,57,99,0
0,61,99,0
0,42,112,2
0,64,99,0
0,69,99,1
0,38,123,1
0,37,101,4
0,42,46,4
0,62,105,3
0,30,102,4
0,46,85,9
0,54,59,0
0,64,105,8
0,69,59,13
0,74,90,0
0,71,59,1
0,62,83,0
0,42,112,1
0,36,127,2
0,35,100,1
0,62,90,3
0,54,76,1
0,64,105,0
0,69,90,0
0,66,97,0
0,59,69,2
0,35,91,2
0,42,46,57
0,54,69,1
0,42,104,1
0,42,46,69
0,54,99,1
0,59,99,1
0,62,99,0
0,38,123,0
0,66,99,0
0,42,112,2
0,69,99,1
0,62,105,9
0,30,102,19
0,42,46,4
0,35,107,1
0,54,59,0
0,36,127,3
0,42,108,1
0,61,105,9
0,69,59,1
0,42,46,8
0,36,127,52
0,42,112,6
0,35,103,2
0,54,59,0
0,64,105,16
0,42,46,71
0,54,72,1
0,42,104,17
0,62,105,30
0,42,46,63
0,54,99,1
0,59,99,0
0,62,99,0
0,66,99,2
0,69,99,1
0,38,125,1
0,42,112,1
0,42,101,63
0,42,46,0
0,46,85,29
0,47,99,8
0,69,59,8
0,40,95,1
0,52,99,3
0,59,59,0
0,64,88,3
0,62,86,0
0,42,112,1
0,36,127,2
0,40,87,0
0,69,88,1
0,42,46,71
0,42,104,68
0,42,46,69
0,52,99,1
0,59,99,0
0,62,99,0
0,64,99,0
0,69,99,2
0,42,112,1
0,38,127,1
0,42,46,21
0,36,89,0
0,40,102,1
0,42,108,6
0,36,122,4
0,35,101,5
0,64,59,3
0,42,46,43
0,80,86,6
0,68,86,9
0,52,64,0
0,62,95,0
0,68,93,0
0,64,82,0
0,28,106,5
0,42,112,2
0,36,127,2
0,68,58,0
0,69,105,2
0,42,46,1
0,52,77,0
0,56,87,5
0,62,69,1
0,52,98,1
0,56,99,0
0,42,104,2
0,62,98,1
0,64,99,0
0,71,65,2
0,35,104,4
0,36,122,0
0,52,77,0
0,42,46,0
0,56,98,2
0,62,99,2
0,64,99,1
0,71,99,1
0,57,70,37
0,38,125,1
0,42,112,0
0,40,106,4
0,52,99,0
0,56,99,1
0,62,99,0
0,64,99,0
0,71,99,2
0,42,46,2
