track,note,velocity,time
1,64,69,13003
1,64,0,15
1,59,86,33
1,59,0,22
1,35,83,9
1,35,0,17
1,28,86,2
1,28,0,565
1,27,87,2
1,27,0,2
1,25,89,1
1,30,89,768
1,25,0,2
1,30,0,535
1,30,89,39
1,35,90,7
1,30,0,1
1,35,0,9
1,42,74,3
1,47,87,29
1,42,0,3
1,45,91,45
1,47,0,12
1,44,91,5
1,45,0,8
1,44,0,181
1,40,65,30
1,40,0,6
1,39,91,42
1,39,0,4
1,37,91,1
1,37,0,617
1,44,63,7
1,44,0,9
1,38,91,39
1,38,0,44
1,39,91,4
1,39,0,44
1,40,91,4
1,40,0,8
1,28,92,12
1,28,0,94
1,30,92,2
1,30,0,94
1,32,92,2
1,32,0,172
1,33,92,20
1,40,92,7
1,33,0,8
1,40,0,39
1,45,92,1
1,39,92,48
1,45,0,1
1,39,0,3
1,32,94,337
1,32,0,21
1,37,96,27
1,37,0,46
1,39,101,2
1,39,0,46
1,40,103,2
1,40,0,46
1,44,107,2
1,44,0,46
1,52,113,2
1,52,0,46
1,57,121,2
1,57,0,102
1,52,96,2
1,52,0,96
1,54,107,0
1,32,92,3
1,54,0,3
1,37,93,10
1,32,0,3
1,37,0,2
1,30,93,2
1,35,93,10
1,30,0,2
1,35,0,9
1,28,93,1
1,28,0,82
1,33,101,64
1,33,0,650
1,33,101,22
1,35,101,48
1,33,0,3
1,37,101,45
1,35,0,1
1,37,0,538
1,37,101,37
1,37,0,46
1,39,101,2
1,40,101,48
1,39,0,4
1,35,101,92
1,40,0,2
1,42,101,190
1,35,0,3
1,42,0,25
1,28,101,1
1,28,0,186
1,40,101,6
1,40,0,13
1,33,97,5
1,33,0,248
1,33,97,40
1,33,0,35
1,33,97,61
1,33,0,168
1,33,97,10
1,30,97,5
1,33,0,6
1,30,0,236
1,30,97,46
1,30,0,51
1,30,97,45
1,30,0,191
1,37,97,1
1,37,0,93
1,30,97,3
1,30,0,1
1,35,97,2
1,35,0,202
1,35,97,34
1,35,0,5
1,35,97,43
1,35,0,49
1,35,97,47
1,42,97,144
1,35,0,5
1,47,97,43
1,42,0,10
1,47,0,5
1,40,97,5
1,40,0,74
1,40,97,25
1,40,0,47
1,35,97,1
1,35,0,3
1,28,97,5
1,28,0,111
1,28,97,33
1,28,0,4
1,40,97,9
1,40,0,22
1,33,101,8
1,33,0,242
1,33,101,46
1,33,0,33
1,33,101,63
1,33,0,255
1,33,101,33
1,33,0,17
1,30,101,3
1,30,0,235
1,30,101,44
1,30,0,38
1,30,101,58
1,30,0,6
1,42,101,8
1,42,0,26
1,28,101,51
1,28,0,41
1,30,101,7
1,30,0,38
1,28,101,10
1,28,0,4
1,38,101,44
1,38,0,45
1,33,101,3
1,33,0,41
1,35,101,7
1,35,0,36
1,40,101,16
1,40,0,69
1,40,101,36
1,40,0,4
1,35,101,11
1,35,0,214
1,33,101,6
1,33,0,94
1,35,101,2
1,35,0,94
1,37,101,2
1,37,0,94
1,33,101,2
1,33,0,94
1,38,101,2
1,38,0,253
1,38,101,35
1,38,0,38
1,38,101,58
1,38,0,306
1,33,101,30
1,32,101,48
1,33,0,1
1,32,0,207
1,32,101,32
1,32,0,42
1,38,101,6
1,35,101,48
1,38,0,1
1,37,101,47
1,35,0,1
1,37,0,155
1,37,101,36
1,37,0,23
1,30,101,2
1,30,0,39
1,37,101,4
1,42,101,48
1,37,0,1
1,42,0,46
1,44,101,1
1,44,0,44
1,45,105,4
1,49,111,48
1,45,0,3
1,49,0,41
1,54,119,4
1,54,0,43
1,57,122,5
1,57,0,46
1,60,126,2
1,57,107,73
1,60,0,2
1,57,0,89
1,59,118,5
1,59,0,6
1,52,96,2
1,52,0,16
1,50,96,8
1,50,0,16
1,49,101,8
1,49,0,6
1,42,101,1
1,42,0,2
1,35,101,2
1,35,0,764
1,40,101,1
1,40,0,8
1,52,101,0
1,52,0,44
1,33,101,2
1,33,0,814
1,45,71,2
1,45,0,11
1,33,58,37
1,33,0,670
1,38,121,2
1,38,0,1534
1,54,121,2
1,54,0,7
1,42,121,13
1,42,0,757
1,26,78,3
1,38,9,396
1,38,0,16
1,40,11,2
1,40,0,16
1,38,14,2
1,38,0,16
1,40,16,2
1,40,0,16
1,38,18,2
1,38,0,16
1,40,20,2
1,40,0,16
1,38,22,2
1,38,0,16
1,40,24,2
1,40,0,16
1,38,26,2
1,38,0,16
1,40,29,2
1,40,0,16
1,38,31,2
1,38,0,16
1,40,33,2
1,40,0,16
1,38,35,2
1,38,0,16
1,40,37,2
1,40,0,16
1,38,39,2
1,38,0,16
1,40,42,2
1,40,0,16
1,38,44,2
1,38,0,16
1,40,46,2
1,40,0,16
1,38,48,2
1,38,0,16
1,40,50,2
1,40,0,16
1,38,52,2
1,38,0,16
1,40,54,2
1,40,0,16
1,38,52,2
1,38,0,16
1,40,51,2
1,26,0,4
1,40,0,12
1,38,50,2
1,38,0,16
1,40,48,2
1,40,0,16
1,38,47,2
1,38,0,16
1,40,45,2
1,40,0,16
1,38,44,2
1,38,0,16
1,40,43,2
1,40,0,16
1,38,41,2
1,38,0,16
1,40,40,2
1,40,0,16
1,38,38,2
1,38,0,16
1,40,37,2
1,40,0,16
1,38,36,2
1,38,0,16
1,40,34,2
1,40,0,16
1,38,33,2
1,38,0,16
1,40,32,2
1,40,0,16
1,38,34,2
1,38,0,16
1,40,35,2
1,40,0,16
1,38,36,2
1,38,0,16
1,40,37,2
1,40,0,16
1,38,38,2
1,38,0,16
1,40,39,2
1,40,0,16
1,38,40,2
1,38,0,16
1,40,41,2
1,40,0,16
1,38,43,2
1,38,0,16
1,40,44,2
1,40,0,16
1,38,45,2
1,38,0,16
1,40,46,2
1,40,0,16
1,38,47,2
1,38,0,16
1,40,48,2
1,40,0,16
1,38,49,2
1,38,0,16
1,40,51,2
1,40,0,16
1,38,52,2
1,38,0,16
1,40,53,2
1,40,0,16
1,38,54,2
1,38,0,16
1,40,55,2
1,40,0,16
1,40,95,2
1,40,0,6
1,42,102,6
1,30,105,172
1,42,0,5
1,42,63,27
1,42,0,46
1,42,63,2
1,42,0,46
1,42,66,2
1,42,0,46
1,42,70,2
1,42,0,46
1,42,73,2
1,42,0,46
1,42,78,2
1,42,0,46
1,42,84,2
1,42,0,46
1,42,90,2
1,42,0,46
1,42,96,2
1,42,0,46
1,42,98,2
1,42,0,46
1,42,100,2
1,42,0,46
1,42,102,2
1,42,0,46
1,42,104,2
1,42,0,46
1,42,105,2
1,42,0,46
1,42,107,2
1,42,0,46
1,42,114,2
1,30,0,46
1,42,0,0
1,35,101,2
1,35,0,248
1,35,101,40
1,35,0,35
1,35,101,61
1,35,0,168
1,35,101,13
1,32,101,7
1,35,0,6
1,44,101,233
1,32,0,3
1,44,0,6
1,32,101,40
1,32,0,51
1,32,101,45
1,32,0,191
1,39,101,1
1,39,0,93
1,32,101,3
1,32,0,10
1,37,101,2
1,37,0,1
1,25,101,5
1,25,0,52
1,25,101,44
1,25,0,378
1,30,101,6
1,30,0,11
1,37,101,2
1,37,0,34
1,42,101,12
1,42,0,46
1,40,101,2
1,40,0,271
1,40,88,17
1,40,0,94
1,39,101,2
1,39,0,242
1,39,101,46
1,39,0,33
1,39,101,63
1,39,0,255
1,39,101,33
1,39,0,17
1,32,101,3
1,32,0,235
1,32,101,44
1,32,0,38
1,32,101,58
1,32,0,6
1,44,101,8
1,44,0,26
1,30,101,3
1,30,0,46
1,37,101,2
1,37,0,46
1,42,101,2
1,42,0,190
1,37,101,2
1,37,0,46
1,30,101,2
1,30,0,46
1,35,101,2
1,35,0,94
1,25,101,2
1,25,0,94
1,27,101,2
1,27,0,190
1,28,101,2
1,28,0,253
1,28,101,35
1,28,0,38
1,28,101,58
1,28,0,2
1,40,101,2
1,40,0,7
1,34,101,1
1,34,0,238
1,34,101,50
1,34,0,33
1,39,101,2
1,39,0,155
1,39,101,36
1,39,0,23
1,32,101,6
1,32,0,144
1,39,101,0
1,44,101,3
1,39,0,3
1,44,0,53
1,42,101,4
1,42,0,7
1,40,101,4
1,40,0,6
1,33,101,10
1,39,101,192
1,33,0,4
1,39,0,97
1,39,101,30
1,39,0,47
1,32,100,49
1,32,0,3
1,39,100,6
1,39,0,43
1,32,101,5
1,37,101,9
1,32,0,5
1,37,0,136
1,25,101,3
1,25,0,35
1,44,101,2
1,44,0,53
1,42,101,4
1,42,0,51
1,30,101,2
1,30,0,148
1,35,101,14
1,35,0,250
1,35,101,38
1,35,0,48
1,35,101,48
1,35,0,263
1,35,101,25
1,35,0,15
1,32,101,11
1,39,101,238
1,32,0,3
1,44,101,45
1,39,0,4
1,44,0,38
1,32,101,6
1,32,0,11
1,32,101,37
1,32,0,164
1,32,101,28
1,32,0,6
1,37,101,9
1,44,101,144
1,37,0,2
1,49,101,46
1,44,0,5
1,44,101,91
1,49,0,1
1,44,0,89
1,37,101,6
1,44,101,18
1,37,0,4
1,44,0,90
1,37,101,2
1,30,101,8
1,37,0,0
1,30,0,78
1,35,101,31
1,35,0,94
1,37,101,2
1,37,0,46
1,35,101,2
1,35,0,11
1,39,101,37
1,39,0,93
1,35,101,3
1,28,101,6
1,35,0,1
1,28,0,257
1,28,101,30
1,28,0,40
1,28,101,56
1,35,101,240
1,28,0,1
1,40,101,47
1,35,0,1
1,34,101,4
1,40,0,8
1,34,0,5
1,40,101,11
1,39,101,87
1,40,0,3
1,39,0,82
1,39,101,30
1,39,0,4
1,31,101,44
1,31,0,85
1,32,101,11
1,32,0,15
1,34,101,4
1,34,0,38
1,35,101,10
1,35,0,41
1,37,101,7
1,37,0,42
1,40,101,6
1,33,101,4
1,40,0,2
1,33,0,7
1,39,101,0
1,39,0,240
1,39,101,35
1,39,0,33
1,32,101,50
1,32,0,136
1,39,101,20
1,39,0,43
1,32,101,5
1,32,0,38
1,37,101,10
1,44,101,7
1,37,0,7
1,49,101,73
1,44,0,3
1,49,0,15
1,42,101,10
1,42,0,756
1,35,89,12
1,35,0,46
1,35,89,98
1,35,0,46
1,35,89,98
1,35,0,46
1,35,89,146
1,35,0,94
1,35,89,98
1,35,0,46
1,32,89,50
1,32,0,46
1,32,89,98
1,32,0,46
1,32,89,98
1,32,0,46
1,32,89,11
1,32,0,28
1,30,89,2
1,30,0,46
1,28,89,2
1,28,0,46
1,32,89,2
1,32,0,73
1,30,89,2
1,30,0,94
1,28,89,2
1,28,0,46
1,28,89,98
1,28,0,46
1,28,89,98
1,28,0,46
1,28,89,98
1,28,0,46
1,28,89,98
1,28,0,94
1,30,89,98
1,30,0,46
1,30,89,98
1,30,0,46
1,30,89,98
1,30,0,26
1,23,89,1
1,23,0,5
2,87,65,249
2,87,0,94
2,83,66,2
2,83,0,94
2,80,67,2
2,80,0,478
2,88,72,2
2,88,0,94
2,87,73,2
2,87,0,94
2,83,74,2
2,83,0,94
2,80,75,2
2,80,0,478
2,76,80,2
2,76,0,46
2,78,80,2
2,78,0,46
2,80,81,2
2,80,0,94
2,76,82,2
2,76,0,94
2,73,83,2
2,73,0,2
2,64,71,2
2,69,71,0
2,73,78,0
2,73,0,2
2,72,78,2
2,69,0,11
2,72,0,0
2,68,76,2
2,71,76,0
2,64,0,18
2,68,0,0
2,71,0,0
2,83,70,9834
2,83,0,94
2,88,75,1
2,88,0,94
2,87,80,7
2,87,0,286
2,88,84,0
2,88,0,54
2,88,84,1
2,88,0,1
2,87,84,2
2,84,84,30
2,87,0,2
2,84,0,62
2,83,84,7
2,83,0,3
2,80,96,10
2,80,0,11
2,81,94,2
2,81,0,7
2,83,84,2
2,76,77,36
2,85,77,0
2,83,0,131
2,81,72,2
2,81,0,13
2,76,0,39
2,85,0,0
2,88,88,482
2,92,88,0
2,92,0,20
2,91,88,2
2,91,0,190
2,90,87,2
2,88,0,190
2,83,84,2
2,90,0,25
2,88,84,2
2,83,0,39
2,88,0,0
2,81,79,2
2,84,84,0
2,81,0,38
2,84,0,0
2,80,68,2
2,83,83,0
2,80,0,766
2,83,0,0
2,87,122,5
2,95,122,0
2,85,107,145
2,94,107,0
2,87,0,3
2,95,0,0
2,85,0,17
2,94,0,0
2,87,112,2
2,95,112,0
2,87,0,148
2,95,0,0
2,88,112,2
2,95,112,0
2,97,112,0
2,88,0,156
2,90,112,2
2,97,0,29
2,87,112,2
2,87,0,61
2,90,0,240
2,95,0,48
3,68,91,3
3,69,95,69
3,68,0,2
3,71,98,94
3,69,0,8
3,71,0,54
3,71,100,2
3,71,0,234
3,68,93,189
3,68,0,93
3,69,93,3
3,69,0,44
3,71,93,4
3,71,0,20
3,71,103,6
3,71,0,32
3,69,95,4
3,69,0,46
3,68,81,2
3,71,98,13
3,68,0,7
3,69,101,73
3,71,0,13
3,69,0,128
3,69,111,8
3,69,0,42
3,68,111,3
3,68,0,46
3,68,98,12
3,68,0,24
3,68,101,5
3,68,0,210
3,69,98,12
3,69,0,39
3,68,96,9
3,68,0,29
3,68,88,3
3,68,0,33
3,68,85,17
3,68,0,201
3,68,101,209
3,68,0,61
3,69,93,4
3,69,0,62
3,71,101,4
3,71,0,36
3,71,95,6
3,71,0,13
3,73,88,0
3,73,0,26
3,73,86,1
3,73,0,476
3,80,107,106
3,78,104,8
3,80,0,2
3,78,0,20
3,78,104,27
3,78,0,8
3,76,80,7
3,76,0,15
3,76,101,34
3,76,0,2
3,73,107,4
3,75,84,32
3,73,0,1
3,75,0,50
3,76,100,4
3,81,105,4
3,76,0,3
3,80,101,6
3,81,0,0
3,78,101,10
3,80,0,2
3,78,0,94
3,76,91,2
3,76,0,194
3,76,98,4
3,76,0,77
3,74,102,7
3,74,0,62
3,74,96,5
3,72,90,86
3,74,0,2
3,72,0,22
3,72,97,3
3,71,93,81
3,72,0,3
3,71,0,347
3,71,103,6
3,71,0,48
3,69,94,2
3,68,95,62
3,69,0,2
3,68,0,58
3,69,91,2
3,76,99,4
3,69,0,2
3,76,0,2
3,76,100,19
3,76,0,51
3,75,93,3
3,75,0,1
3,76,100,1
3,76,0,258
3,76,107,38
3,76,0,49
3,75,104,6
3,75,0,60
3,71,107,4
3,68,107,68
3,71,0,6
3,68,0,274
3,68,112,4
3,68,0,52
3,69,109,0
3,71,105,66
3,69,0,5
3,71,0,29
3,71,111,33
3,69,107,10
3,71,0,5
3,68,76,39
3,69,0,3
3,68,0,2
3,71,111,4
3,69,109,81
3,71,0,5
3,69,0,292
3,78,114,96
3,78,0,43
3,75,101,5
3,75,0,17
3,73,111,1
3,71,94,8
3,73,0,0
3,71,0,45
3,73,111,3
3,73,0,44
3,71,109,4
3,71,0,102
3,71,115,154
3,71,0,47
3,73,111,2
3,68,94,18
3,73,0,10
3,66,101,15
3,68,0,4
3,66,0,14
3,64,107,4
3,64,0,281
3,68,111,4
3,68,0,42
3,69,101,2
3,71,111,60
3,69,0,3
3,71,0,31
3,71,114,31
3,73,94,10
3,71,0,2
3,73,0,26
3,73,110,6
3,73,0,72
3,80,114,2
3,78,101,48
3,80,0,1
3,78,0,53
3,76,107,4
3,76,0,34
3,76,109,6
3,76,0,263
3,73,112,5
3,75,107,32
3,73,0,3
3,75,0,49
3,76,107,2
3,76,0,11
3,81,111,3
3,80,111,12
3,81,0,0
3,78,111,4
3,80,0,5
3,78,0,95
3,76,105,2
3,76,0,194
3,76,103,40
3,76,0,70
3,74,103,6
3,74,0,50
3,74,107,44
3,72,111,19
3,74,0,4
3,72,0,36
3,72,103,4
3,71,103,23
3,72,0,0
3,71,0,292
3,71,110,48
3,71,0,39
3,69,110,5
3,69,0,63
3,68,98,1
3,68,0,58
3,69,103,2
3,69,0,64
3,76,109,2
3,76,0,300
3,76,107,25
3,76,0,45
3,75,104,3
3,75,0,7
3,76,94,8
3,76,0,3
3,73,121,13
3,73,0,39
3,76,120,2
3,76,0,34
3,76,122,28
3,76,0,36
3,76,116,4
3,76,0,1
3,73,116,33
3,73,0,43
3,76,119,0
3,76,0,20
3,80,122,29
3,80,0,4
