track,note,velocity,time
1,59,87,5952
1,59,0,94
1,57,87,2
1,57,0,94
1,57,87,1058
1,57,0,46
1,57,87,2
1,57,0,46
1,61,87,0
1,61,0,70
1,59,87,0
1,59,0,70
1,57,87,866
1,57,0,46
1,57,87,2
1,57,0,46
1,61,87,0
1,61,0,70
1,57,87,2
1,57,0,46
1,57,87,2
1,57,0,94
1,57,87,2
1,57,0,46
1,59,87,0
1,59,0,136
1,59,87,0
1,59,0,70
1,57,87,2
1,57,0,94
1,57,87,674
1,57,0,46
1,57,87,2
1,57,0,46
1,61,87,0
1,61,0,70
1,59,87,0
1,59,0,70
1,57,87,482
1,57,0,46
1,57,87,2
1,57,0,46
1,61,87,0
1,61,0,70
1,57,87,2
1,57,0,46
1,57,87,2
1,57,0,94
1,57,87,2
1,57,0,46
1,57,87,2
1,57,0,160
1,57,87,224
1,57,0,46
1,57,87,2
1,57,0,46
1,61,87,0
1,61,0,70
1,57,87,2
1,57,0,46
1,57,87,2
1,57,0,94
1,57,87,2
1,57,0,46
1,59,87,0
1,59,0,136
1,61,87,128
1,61,0,94
1,59,87,0
1,59,0,70
1,61,87,386
1,61,0,94
1,59,87,2
1,59,0,94
1,61,87,98
1,61,0,94
1,57,87,2
1,57,0,94
1,57,87,2
1,57,0,94
1,52,87,290
1,52,0,94
1,61,87,0
1,61,0,70
1,59,87,2
1,59,0,94
1,61,87,290
1,61,0,94
1,59,87,0
1,59,0,70
1,57,87,2
1,57,0,160
1,61,87,0
1,61,0,70
1,57,87,2
1,57,0,94
1,57,87,2
1,57,0,94
1,52,87,290
1,52,0,94
1,61,87,0
1,61,0,70
1,59,87,2
1,59,0,94
1,52,87,98
1,52,0,94
1,61,87,0
1,61,0,70
1,59,87,2
1,59,0,94
1,52,87,98
1,52,0,94
1,61,87,0
1,61,0,70
1,59,87,2
1,59,0,94
1,52,87,98
1,52,0,94
1,61,87,0
1,61,0,70
1,59,87,2
1,59,0,94
1,69,97,0
1,69,0,94
1,71,97,2
1,71,0,94
1,69,97,2
1,69,0,94
1,64,97,290
1,64,0,94
1,64,97,2
1,64,0,94
1,61,97,2
1,61,0,94
1,57,97,2
1,57,0,94
1,66,97,0
1,66,0,168
1,64,97,0
1,64,0,190
1,69,97,194
1,69,0,94
1,71,97,2
1,71,0,94
1,69,97,2
1,69,0,94
1,64,97,290
1,64,0,94
1,64,97,0
1,64,0,70
1,62,97,2
1,62,0,94
1,61,97,2
1,61,0,94
1,59,97,2
1,59,0,190
1,57,97,2
1,57,0,94
1,61,97,0
1,61,0,70
1,59,97,2
1,59,0,96
1,69,97,96
1,69,0,94
1,71,97,2
1,71,0,94
1,69,97,2
1,69,0,94
1,64,97,290
1,64,0,94
1,64,97,2
1,64,0,94
1,61,97,2
1,61,0,94
1,57,97,2
1,57,0,94
1,66,97,2
1,66,0,190
1,64,97,0
1,64,0,136
1,69,97,224
1,69,0,94
1,71,97,2
1,71,0,94
1,69,97,2
1,69,0,94
1,64,97,290
1,64,0,94
1,64,97,0
1,64,0,70
1,62,97,2
1,62,0,94
1,61,97,2
1,61,0,94
1,59,97,2
1,59,0,190
1,69,97,386
1,69,0,94
1,71,97,2
1,71,0,94
1,69,97,2
1,69,0,94
1,64,97,290
1,64,0,94
1,64,97,0
1,64,0,70
1,61,97,2
1,61,0,94
1,57,97,2
1,57,0,94
1,66,97,0
1,66,0,166
1,64,97,2
1,64,0,190
1,69,97,194
1,69,0,94
1,71,97,2
1,71,0,94
1,69,97,2
1,69,0,94
1,64,97,290
1,64,0,94
1,64,97,0
1,64,0,70
1,62,97,2
1,62,0,94
1,61,97,2
1,61,0,94
1,59,97,2
1,59,0,190
1,59,97,2
1,59,0,94
1,57,97,2
1,57,0,94
1,61,97,2
1,61,0,94
1,59,97,0
1,59,0,22
1,69,97,0
1,69,0,94
1,69,97,2
1,69,0,94
1,69,97,2
1,69,0,94
1,64,97,290
1,64,0,94
1,64,97,2
1,64,0,94
1,61,97,2
1,61,0,94
1,57,97,2
1,57,0,94
1,66,97,2
1,66,0,190
1,68,97,0
1,68,0,70
1,64,97,2
1,64,0,94
1,64,97,2
1,64,0,96
1,69,97,96
1,69,0,94
1,71,97,2
1,71,0,94
1,69,97,2
1,69,0,94
1,69,97,482
1,69,0,94
1,71,97,2
1,71,0,94
1,69,97,2
1,69,0,94
1,69,97,482
1,69,0,94
1,71,97,2
1,71,0,94
1,69,97,2
1,69,0,94
1,59,90,2112
1,59,0,94
1,57,90,2
1,57,0,94
1,57,90,674
1,57,0,46
1,57,90,2
1,57,0,46
1,61,90,0
1,61,0,70
1,59,90,0
1,59,0,70
1,57,90,530
1,57,0,46
1,61,90,0
1,61,0,70
1,57,90,2
1,57,0,46
1,57,90,2
1,57,0,94
1,57,90,2
1,57,0,46
1,57,90,2
1,57,0,160
1,57,90,176
1,57,0,46
1,57,90,2
1,57,0,46
1,57,90,2
1,57,0,46
1,61,90,0
1,61,0,70
1,57,90,2
1,57,0,46
1,57,90,2
1,57,0,94
1,57,90,2
1,57,0,94
1,59,90,0
1,59,0,136
1,59,90,0
1,59,0,70
1,57,90,2
1,57,0,94
1,57,90,674
1,57,0,46
1,57,90,2
1,57,0,46
1,61,90,2
1,61,0,94
1,59,90,0
1,59,0,70
1,57,90,482
1,57,0,46
1,57,90,2
1,57,0,46
1,61,90,2
1,61,0,94
1,57,90,2
1,57,0,46
1,57,90,0
1,57,0,70
1,57,90,2
1,57,0,46
1,57,90,2
1,57,0,94
1,57,90,338
1,57,0,46
1,61,90,2
1,61,0,94
1,59,90,0
1,59,0,70
1,57,90,2
1,57,0,94
1,57,90,2
1,57,0,46
1,57,90,2
1,57,0,46
1,61,90,0
1,61,0,70
1,57,90,2
1,57,0,46
1,57,90,2
1,57,0,94
1,61,90,2
1,61,0,94
1,59,90,0
1,59,0,70
1,61,90,0
1,61,0,70
1,59,90,2
1,59,0,94
1,57,90,2
1,57,0,94
1,59,90,2
1,59,0,94
1,61,90,0
1,61,0,70
1,57,90,2
1,57,0,94
1,57,90,0
1,57,0,0
1,52,90,0
1,52,0,94
1,61,90,2
1,61,0,94
1,59,90,2
1,59,0,94
1,61,90,0
1,61,0,70
1,59,90,2
1,59,0,94
1,57,90,2
1,57,0,94
1,62,90,0
1,62,0,70
1,61,90,2
1,61,0,94
1,57,90,2
1,57,0,94
1,57,90,0
1,57,0,0
1,52,90,0
1,52,0,94
1,61,90,0
1,61,0,70
1,59,90,2
1,59,0,94
1,52,90,98
1,52,0,94
1,61,90,0
1,61,0,70
1,59,90,2
1,59,0,94
1,52,90,98
1,52,0,94
1,61,90,0
1,61,0,70
1,59,90,2
1,59,0,94
1,52,90,98
1,52,0,94
1,61,90,2
1,61,0,94
1,59,90,2
1,59,0,94
1,69,98,96
1,69,0,94
1,71,98,2
1,71,0,94
1,69,98,2
1,69,0,94
1,69,102,480
1,69,0,94
1,71,102,2
1,71,0,94
1,69,102,2
1,69,0,94
1,69,102,98
1,69,0,94
1,71,102,2
1,71,0,94
1,69,102,2
1,69,0,94
1,69,102,98
1,69,0,94
1,71,102,2
1,71,0,94
1,69,102,2
1,69,0,94
1,69,102,98
1,69,0,94
1,71,102,2
1,71,0,94
1,69,102,2
1,69,0,94
1,69,102,98
1,69,0,94
1,71,102,2
1,71,0,94
1,69,102,2
1,69,0,94
1,69,102,98
1,69,0,94
1,71,102,2
1,71,0,94
1,69,102,2
1,69,0,94
1,73,102,98
1,73,0,94
1,73,102,0
1,73,0,70
1,73,102,0
1,73,0,120
1,71,102,0
1,71,0,48
1,69,102,0
1,69,0,192
1,64,98,0
1,64,0,94
1,64,98,2
1,64,0,94
1,61,98,2
1,61,0,94
1,57,98,2
1,57,0,94
1,66,98,0
1,66,0,166
1,64,98,2
1,64,0,190
1,69,98,194
1,69,0,94
1,71,98,2
1,71,0,94
1,69,98,2
1,69,0,94
1,64,98,290
1,64,0,94
1,64,98,0
1,64,0,70
1,62,98,2
1,62,0,94
1,61,98,2
1,61,0,94
1,59,98,2
1,59,0,190
1,59,98,2
1,59,0,94
1,57,98,2
1,57,0,94
1,59,98,2
1,59,0,96
1,69,98,96
1,69,0,94
1,71,98,2
1,71,0,94
1,69,98,2
1,69,0,94
1,64,98,290
1,64,0,94
1,64,98,2
1,64,0,94
1,61,98,2
1,61,0,94
1,57,98,2
1,57,0,94
1,66,98,0
1,66,0,72
1,66,98,0
1,66,0,94
1,64,98,2
1,64,0,190
1,69,98,194
1,69,0,94
1,71,98,2
1,71,0,94
1,69,98,2
1,69,0,94
1,64,98,0
1,64,0,70
1,64,98,2
1,64,0,94
1,62,98,2
1,62,0,94
1,61,98,2
1,61,0,94
1,59,98,2
1,59,0,190
1,57,98,2
1,57,0,94
1,61,98,2
1,61,0,94
1,59,98,2
1,59,0,96
1,64,98,96
1,64,0,94
1,66,98,2
1,66,0,94
1,64,98,2
1,64,0,94
1,64,98,290
1,64,0,94
1,64,98,0
1,64,0,70
1,61,98,2
1,61,0,94
1,57,98,2
1,57,0,94
1,66,98,0
1,66,0,0
1,64,98,0
1,64,0,0
1,69,98,0
1,69,0,94
1,71,98,2
1,71,0,94
1,69,98,2
1,69,0,94
1,64,98,290
1,64,0,94
1,64,98,0
1,64,0,70
1,62,98,2
1,62,0,94
1,61,98,2
1,61,0,94
1,59,98,2
1,59,0,190
1,59,98,2
1,59,0,94
1,57,98,2
1,57,0,94
1,61,98,0
1,61,0,70
1,59,98,2
1,59,0,94
1,69,127,2
1,69,0,94
1,69,127,2
1,69,0,94
1,69,127,2
1,69,0,94
1,64,98,0
1,64,0,70
1,64,98,2
1,64,0,94
1,61,98,2
1,61,0,94
1,57,98,2
1,57,0,94
1,66,98,2
1,66,0,190
1,68,98,0
1,68,0,70
1,64,98,2
1,64,0,94
1,64,98,2
1,64,0,94
1,69,98,98
1,69,0,94
1,71,98,2
1,71,0,94
1,69,98,2
1,69,0,94
1,69,98,482
1,69,0,94
1,71,98,2
1,71,0,94
1,69,98,2
1,69,0,94
1,73,98,0
1,73,0,70
1,73,98,2
1,73,0,94
1,73,98,0
1,73,0,168
1,71,98,0
1,71,0,48
1,69,98,0
1,69,0,624
1,68,98,0
1,68,0,768
1,69,98,0
1,69,0,720
1,73,98,0
1,73,0,70
1,69,98,2
1,69,0,46
1,71,98,0
1,71,0,118
1,69,98,2
1,69,0,190
1,71,98,2
1,71,0,94
1,73,98,0
1,73,0,768
1,71,98,0
1,71,0,768
1,69,98,0
1,69,0,720
1,73,98,816
1,73,0,768
1,71,98,0
1,71,0,670
1,69,98,2
1,69,0,816
1,59,87,576
1,59,0,94
1,57,87,2
1,57,0,94
1,57,87,1058
1,57,0,46
1,57,87,2
1,57,0,46
1,61,87,0
1,61,0,70
1,59,87,2
1,59,0,94
1,57,87,866
1,57,0,46
1,57,87,2
1,57,0,46
1,61,87,0
1,61,0,70
1,59,87,2
1,59,0,94
2,59,60,6144
2,59,0,94
2,57,60,2
2,57,0,94
2,57,60,1058
2,57,0,46
2,57,60,2
2,57,0,46
2,61,60,2
2,61,0,94
2,59,60,2
2,59,0,94
2,57,60,866
2,57,0,46
2,57,60,2
2,57,0,46
2,61,60,2
2,61,0,94
2,57,60,2
2,57,0,46
2,57,60,2
2,57,0,94
2,57,60,2
2,57,0,46
2,59,60,2
2,59,0,160
2,59,60,128
2,59,0,94
2,57,60,2
2,57,0,94
2,57,60,674
2,57,0,46
2,57,60,2
2,57,0,46
2,61,60,2
2,61,0,94
2,59,60,2
2,59,0,94
2,57,60,482
2,57,0,46
2,57,60,2
2,57,0,46
2,61,60,2
2,61,0,94
2,57,60,2
2,57,0,46
2,57,60,2
2,57,0,94
2,57,60,2
2,57,0,46
2,57,60,2
2,57,0,160
2,57,60,224
2,57,0,46
2,57,60,2
2,57,0,46
2,61,60,2
2,61,0,94
2,57,60,2
2,57,0,46
2,57,60,2
2,57,0,94
2,57,60,2
2,57,0,46
2,59,60,2
2,59,0,160
2,59,60,128
2,59,0,94
2,57,60,2
2,57,0,94
2,61,60,386
2,61,0,94
2,59,60,2
2,59,0,94
2,61,60,98
2,61,0,94
2,57,60,2
2,57,0,94
2,57,60,2
2,57,0,94
2,52,60,290
2,52,0,94
2,59,60,2
2,59,0,94
2,57,60,2
2,57,0,94
2,61,60,290
2,61,0,94
2,59,60,2
2,59,0,94
2,57,60,2
2,57,0,190
2,61,60,2
2,61,0,94
2,57,60,2
2,57,0,94
2,57,60,2
2,57,0,94
2,52,60,290
2,52,0,94
2,61,60,2
2,61,0,94
2,59,60,2
2,59,0,94
2,52,60,98
2,52,0,94
2,61,60,2
2,61,0,94
2,59,60,2
2,59,0,94
2,52,60,98
2,52,0,94
2,61,60,2
2,61,0,94
2,59,60,2
2,59,0,94
2,52,60,98
2,52,0,94
2,61,60,2
2,61,0,94
2,59,60,2
2,59,0,94
2,71,60,194
2,71,0,94
2,69,60,2
2,69,0,94
2,71,60,1346
2,71,0,94
2,69,60,2
2,69,0,94
2,71,60,1346
2,71,0,94
2,69,60,2
2,69,0,94
2,71,60,1538
2,71,0,94
2,69,60,2
2,69,0,94
2,71,60,1154
2,71,0,94
2,69,60,2
2,69,0,94
2,71,60,1346
2,71,0,94
2,69,60,2
2,69,0,94
2,71,60,1346
2,71,0,94
2,69,60,2
2,69,0,94
2,71,60,1346
2,71,0,94
2,69,60,2
2,69,0,94
2,71,60,578
2,71,0,94
2,69,60,2
2,69,0,94
2,71,60,578
2,71,0,94
2,69,60,2
2,69,0,94
2,59,60,2882
2,59,0,94
2,57,60,2
2,57,0,94
2,57,60,674
2,57,0,46
2,57,60,2
2,57,0,46
2,61,60,2
2,61,0,94
2,59,60,2
2,59,0,94
2,57,60,530
2,57,0,46
2,61,60,2
2,61,0,94
2,57,60,2
2,57,0,46
2,57,60,2
2,57,0,94
2,57,60,2
2,57,0,46
2,57,60,2
2,57,0,160
2,57,60,176
2,57,0,46
2,57,60,2
2,57,0,46
2,57,60,2
2,57,0,46
2,61,60,2
2,61,0,94
2,57,60,2
2,57,0,46
2,57,60,2
2,57,0,94
2,57,60,2
2,57,0,94
2,59,60,2
2,59,0,160
2,59,60,80
2,59,0,94
2,57,60,2
2,57,0,94
2,57,60,674
2,57,0,46
2,57,60,2
2,57,0,46
2,61,60,2
2,61,0,94
2,59,60,2
2,59,0,94
2,57,60,482
2,57,0,46
2,57,60,2
2,57,0,46
2,61,60,2
2,61,0,94
2,57,60,2
2,57,0,46
2,57,60,2
2,57,0,94
2,57,60,2
2,57,0,46
2,57,60,2
2,57,0,94
2,57,60,338
2,57,0,46
2,61,60,2
2,61,0,94
2,59,60,2
2,59,0,94
2,57,60,2
2,57,0,94
2,57,60,2
2,57,0,46
2,57,60,2
2,57,0,46
2,61,60,2
2,61,0,94
2,57,60,2
2,57,0,46
2,57,60,2
2,57,0,94
2,61,60,2
2,61,0,94
2,59,60,2
2,59,0,94
2,61,60,242
2,61,0,94
2,59,60,2
2,59,0,94
2,57,60,2
2,57,0,94
2,59,60,2
2,59,0,94
2,61,60,2
2,61,0,94
2,57,60,2
2,57,0,94
2,57,60,2
2,57,0,94
2,52,60,290
2,52,0,94
2,61,60,2
2,61,0,94
2,59,60,2
2,59,0,94
2,61,60,290
2,61,0,94
2,59,60,2
2,59,0,94
2,57,60,2
2,57,0,94
2,62,60,2
2,62,0,94
2,61,60,2
2,61,0,94
2,57,60,2
2,57,0,94
2,57,60,2
2,57,0,94
2,52,60,290
2,52,0,94
2,61,60,2
2,61,0,94
2,59,60,2
2,59,0,94
2,52,60,98
2,52,0,94
2,61,60,2
2,61,0,94
2,59,60,2
2,59,0,94
2,52,60,98
2,52,0,94
2,61,60,2
2,61,0,94
2,59,60,2
2,59,0,94
2,52,60,98
2,52,0,94
2,61,60,2
2,61,0,94
2,59,60,2
2,59,0,94
2,71,60,194
2,71,0,94
2,69,60,2
2,69,0,94
2,71,60,6722
2,71,0,94
2,69,60,2
2,69,0,94
