track,note,velocity,time
3,35,104,8016
3,35,0,766
3,36,111,2
3,36,0,766
3,35,107,2
3,35,0,766
3,36,111,2
3,36,0,574
3,26,99,2
3,26,0,190
3,28,104,2
3,28,0,734
3,36,107,34
3,36,0,574
3,38,102,2
3,38,0,190
3,28,115,2
3,28,0,382
3,30,111,2
3,30,0,190
3,31,99,2
3,31,0,190
3,29,102,2
3,29,0,766
3,33,99,2
3,33,0,574
3,38,104,2
3,38,0,190
3,31,102,2
3,31,0,382
3,30,103,2
3,30,0,382
3,28,104,2
3,28,0,382
3,36,99,2
3,36,0,382
3,31,91,2
3,31,0,382
3,35,104,2
3,35,0,382
3,36,91,2
3,36,0,238
3,33,104,50
3,33,0,478
3,36,99,1538
3,36,0,763
3,31,99,5
3,31,0,727
3,35,104,41
3,35,0,766
3,36,111,2
3,36,0,766
3,35,107,2
3,35,0,766
3,36,111,2
3,36,0,574
3,26,99,2
3,26,0,190
3,28,104,2
3,28,0,734
3,36,107,34
3,36,0,574
3,38,102,2
3,38,0,190
3,28,115,2
3,28,0,382
3,30,111,2
3,30,0,190
3,31,99,2
3,31,0,190
3,29,102,2
3,29,0,766
3,33,99,2
3,33,0,574
3,38,104,2
3,38,0,190
3,31,102,2
3,31,0,382
3,30,103,2
3,30,0,382
3,28,104,2
3,28,0,382
3,36,99,2
3,36,0,382
3,31,91,2
3,31,0,382
3,35,104,2
3,35,0,382
3,36,91,2
3,36,0,238
3,33,104,50
3,33,0,478
3,31,102,2
3,31,0,382
3,30,103,2
3,30,0,382
3,28,104,2
3,28,0,382
3,36,99,2
3,36,0,382
3,31,91,2
3,31,0,382
3,35,104,2
3,35,0,382
3,36,91,2
3,36,0,382
3,31,78,50
3,31,0,46
3,36,83,2
3,36,0,46
3,38,96,2
3,38,0,46
3,43,102,2
3,43,0,46
3,38,107,2
3,38,0,46
3,36,104,2
3,36,0,94
3,33,102,2
3,33,0,382
3,32,103,2
3,32,0,382
3,30,104,2
3,30,0,382
3,38,99,2
3,38,0,382
3,33,91,2
3,33,0,382
3,37,104,2
3,37,0,382
3,38,91,2
3,38,0,238
3,35,104,50
3,35,0,478
3,33,102,2
3,33,0,382
3,32,103,2
3,32,0,382
3,30,104,2
3,30,0,382
3,38,99,2
3,38,0,382
3,33,91,2
3,33,0,382
3,37,104,2
3,37,0,382
3,38,91,2
3,38,0,238
3,35,104,50
3,35,0,478
3,33,102,2
3,33,0,382
3,32,103,2
3,32,0,382
3,30,104,2
3,30,0,382
3,38,99,2
3,38,0,382
3,33,91,2
3,33,0,382
3,37,104,2
3,37,0,382
3,38,91,2
3,38,0,238
3,35,104,50
3,35,0,478
3,33,107,3
3,33,0,429
4,62,50,7968
4,67,50,0
4,62,0,28
4,67,0,1
4,60,50,14
4,67,50,0
4,67,0,31
4,60,0,1
4,62,50,1
4,67,50,0
4,62,0,14
4,67,0,4
4,60,50,8
4,67,50,0
4,60,0,26
4,67,0,3
4,62,50,12
4,66,50,0
4,62,0,6
4,66,0,5
4,59,50,16
4,64,50,0
4,59,0,45
4,64,0,0
4,55,50,19
4,60,50,0
4,60,0,16
4,55,0,7
4,57,50,7
4,62,50,0
4,62,0,24
4,57,0,1
4,59,50,11
4,64,50,0
4,64,0,44
4,59,0,3
4,57,50,9
4,62,50,0
4,62,0,11
4,57,0,3
4,59,50,18
4,67,50,0
4,67,0,60
4,59,0,3
4,60,50,2
4,67,50,0
4,60,0,9
4,67,0,5
4,57,50,20
4,64,50,0
4,64,0,21
4,57,0,1
4,55,50,7
4,62,50,0
4,55,0,46
4,62,0,0
4,54,50,290
4,62,50,0
4,54,0,37
4,62,0,0
4,55,50,3
4,60,50,0
4,55,0,61
4,60,0,0
4,55,50,674
4,62,50,0
4,55,0,53
4,62,0,0
4,54,50,290
4,62,50,0
4,54,0,57
4,62,0,0
4,55,50,290
4,60,50,0
4,55,0,46
4,60,0,0
4,62,50,3072
4,67,50,0
4,62,0,28
4,67,0,1
4,60,50,14
4,67,50,0
4,67,0,31
4,60,0,1
4,62,50,1
4,67,50,0
4,62,0,14
4,67,0,4
4,60,50,8
4,67,50,0
4,60,0,26
4,67,0,3
4,62,50,12
4,66,50,0
4,62,0,6
4,66,0,5
4,59,50,16
4,64,50,0
4,59,0,45
4,64,0,0
4,55,50,19
4,60,50,0
4,60,0,16
4,55,0,7
4,57,50,7
4,62,50,0
4,62,0,24
4,57,0,1
4,59,50,11
4,64,50,0
4,64,0,44
4,59,0,3
4,57,50,9
4,62,50,0
4,62,0,11
4,57,0,3
4,59,50,18
4,67,50,0
4,67,0,60
4,59,0,3
4,60,50,2
4,67,50,0
4,60,0,9
4,67,0,5
4,57,50,20
4,64,50,0
4,64,0,21
4,57,0,1
4,55,50,7
4,62,50,0
4,55,0,46
4,62,0,0
4,54,50,290
4,62,50,0
4,54,0,37
4,62,0,0
4,55,50,3
4,60,50,0
4,55,0,61
4,60,0,0
4,55,50,674
4,62,50,0
4,55,0,53
4,62,0,0
4,54,50,290
4,62,50,0
4,54,0,57
4,62,0,0
4,55,50,290
4,60,50,0
4,55,0,46
4,60,0,0
4,55,50,674
4,62,50,0
4,55,0,46
4,62,0,0
4,54,50,290
4,62,50,0
4,54,0,37
4,62,0,0
4,55,50,3
4,60,50,0
4,55,0,61
4,60,0,0
4,55,50,674
4,62,50,0
4,55,0,53
4,62,0,0
4,54,50,290
4,62,50,0
4,54,0,57
4,62,0,0
4,55,50,290
4,60,50,0
4,55,0,46
4,60,0,0
4,57,50,674
4,64,50,0
4,57,0,46
4,64,0,0
4,56,50,290
4,64,50,0
4,56,0,37
4,64,0,0
4,57,50,3
4,62,50,0
4,57,0,61
4,62,0,0
4,57,50,674
4,64,50,0
4,57,0,53
4,64,0,0
4,56,50,290
4,64,50,0
4,56,0,57
4,64,0,0
4,57,50,290
4,62,50,0
4,57,0,46
4,62,0,0
4,57,50,674
4,64,50,0
4,57,0,46
4,64,0,0
4,56,50,290
4,64,50,0
4,56,0,37
4,64,0,0
4,57,50,3
4,62,50,0
4,57,0,61
4,62,0,0
4,57,50,674
4,64,50,0
4,57,0,53
4,64,0,0
4,56,50,290
4,64,50,0
4,56,0,57
4,64,0,0
4,57,50,290
4,62,50,0
4,57,0,46
4,62,0,0
4,57,50,674
4,64,50,0
4,57,0,46
4,64,0,0
4,56,50,290
4,64,50,0
4,56,0,37
4,64,0,0
4,57,50,3
4,62,50,0
4,57,0,61
4,62,0,0
4,57,50,674
4,64,50,0
4,57,0,53
4,64,0,0
4,56,50,290
4,64,50,0
4,56,0,57
4,64,0,0
4,57,50,290
4,62,50,0
4,57,0,46
4,62,0,0
5,62,91,2060
5,62,0,38
5,62,84,11
5,62,0,23
5,62,91,23
5,62,0,21
5,62,99,27
5,62,0,88
5,60,93,8
5,60,0,48
5,60,99,97
5,60,0,34
5,60,96,14
5,60,0,24
5,60,91,23
5,60,0,25
5,60,93,23
5,60,0,80
5,59,93,15
5,59,0,45
5,62,99,99
5,62,0,32
5,62,91,17
5,62,0,25
5,62,99,22
5,62,0,22
5,62,88,27
5,62,0,84
5,60,91,11
5,60,0,62
5,60,93,82
5,60,0,35
5,60,81,13
5,60,0,24
5,60,99,24
5,60,0,20
5,60,86,24
5,60,0,100
5,59,99,3
5,59,0,31
5,57,86,15
5,57,0,10
5,55,102,38
5,55,0,124
5,55,80,403
5,55,0,31
5,55,84,20
5,55,0,22
5,55,86,26
5,55,0,45
5,57,91,0
5,57,0,49
5,59,88,0
5,59,0,37
5,60,84,9
5,59,99,50
5,60,0,5
5,59,0,101
5,62,91,663
5,62,0,38
5,62,84,11
5,62,0,23
5,62,91,23
5,62,0,21
5,62,99,27
5,62,0,88
5,60,93,8
5,60,0,48
5,60,99,97
5,60,0,34
5,60,96,14
5,60,0,24
5,60,91,23
5,60,0,25
5,60,93,23
5,60,0,80
5,59,93,15
5,59,0,45
5,62,99,99
5,62,0,32
5,62,91,17
5,62,0,25
5,62,99,22
5,62,0,22
5,62,88,27
5,62,0,84
5,60,91,11
5,60,0,62
5,60,93,82
5,60,0,35
5,60,81,13
5,60,0,24
5,60,99,24
5,60,0,20
5,60,86,24
5,60,0,100
5,59,99,3
5,59,0,31
5,57,86,15
5,57,0,10
5,55,102,38
5,55,0,124
5,55,80,403
5,55,0,31
5,55,84,20
5,55,0,22
5,55,86,26
5,55,0,45
5,57,91,0
5,57,0,49
5,59,88,0
5,59,0,37
5,60,84,9
5,59,99,50
5,60,0,5
5,59,0,101
5,62,99,327
5,62,0,32
5,62,104,19
5,62,0,44
5,62,102,53
5,67,88,45
5,62,0,1
5,67,0,25
5,66,89,19
5,66,0,26
5,67,104,22
5,67,0,88
5,67,89,11
5,67,0,124
5,62,93,258
5,62,0,33
5,62,84,15
5,62,0,63
5,62,102,35
5,62,0,33
5,67,84,13
5,67,0,25
5,66,83,22
5,66,0,18
5,66,89,29
5,67,88,149
5,66,0,10
5,67,0,6
5,64,99,31
5,64,0,169
5,62,77,121
5,62,0,17
5,62,99,28
5,62,0,57
5,62,99,40
5,62,0,25
5,67,87,20
5,67,0,19
5,66,87,26
5,66,0,23
5,66,99,27
5,66,0,144
5,67,88,1
5,67,0,18
5,62,88,29
5,62,0,124
5,59,87,19
5,59,0,18
5,62,102,30
5,62,0,108
5,62,93,134
5,62,0,48
5,60,84,3
5,60,0,42
5,59,87,6
5,59,0,16
5,59,99,31
5,60,93,98
5,59,0,5
5,60,0,12
5,55,86,29
5,55,0,141
5,62,86,194
5,62,0,28
5,62,88,20
5,62,0,34
5,62,86,17
5,62,0,18
5,62,91,29
5,62,0,39
5,67,88,8
5,67,0,39
5,66,87,8
5,66,0,23
5,66,96,26
5,67,82,100
5,66,0,4
5,67,0,148
5,62,84,275
5,62,0,30
5,62,87,19
5,62,0,27
5,62,93,22
5,62,0,40
5,67,84,9
5,67,0,36
5,66,81,13
5,66,0,22
5,66,93,23
5,67,83,144
5,66,0,3
5,67,0,36
5,60,104,12
5,60,0,142
5,62,91,142
5,62,0,32
5,62,88,14
5,62,0,25
5,62,99,22
5,62,0,23
5,62,93,26
5,62,0,42
5,67,99,6
5,67,0,35
5,66,89,13
5,66,0,18
5,66,96,28
5,67,87,150
5,66,0,2
5,67,0,18
5,67,107,26
5,71,99,148
5,67,0,4
5,71,0,15
5,69,93,28
5,69,0,136
5,74,96,7
5,74,0,17
5,71,93,29
5,71,0,111
5,74,99,29
5,74,0,38
5,72,99,12
5,71,84,150
5,72,0,8
5,71,0,10
5,72,89,30
5,72,0,91
5,71,88,2
5,71,0,13
5,69,99,35
5,69,0,36
5,67,88,19
5,67,0,230
5,64,87,145
5,64,0,32
5,72,93,14
5,72,0,26
5,72,99,22
5,71,99,53
5,72,0,2
5,71,0,35
5,72,84,9
5,72,0,47
5,71,83,4
5,71,0,41
5,69,88,7
5,69,0,41
5,67,87,7
5,67,0,148
5,67,111,135
5,69,83,46
5,67,0,5
5,69,0,25
5,71,84,16
5,71,0,34
5,72,99,15
5,71,107,50
5,72,0,1
5,71,0,97
5,71,50,3
5,71,0,1
5,62,93,193
5,62,0,21
5,69,107,29
5,69,0,209
5,62,81,124
5,62,0,18
5,69,99,22
5,67,99,47
5,69,0,6
5,67,0,227
5,67,86,207
5,67,0,30
5,67,99,17
5,67,0,29
5,67,99,21
5,67,0,19
5,67,107,28
5,67,0,44
5,69,107,1
5,71,104,49
5,69,0,3
5,71,0,31
5,72,104,10
5,72,0,49
5,71,107,1
5,71,0,107
5,62,75,184
5,62,0,20
5,69,96,30
5,69,0,215
5,62,88,123
5,62,0,17
5,69,104,29
5,69,0,42
5,67,104,2
5,67,0,267
5,62,91,503
5,62,0,38
5,62,84,11
5,62,0,23
5,62,91,23
5,62,0,21
5,62,99,27
5,62,0,88
5,60,93,8
5,60,0,48
5,60,99,97
5,60,0,34
5,60,96,14
5,60,0,24
5,60,91,23
5,60,0,25
5,60,93,23
5,60,0,80
5,59,93,15
5,59,0,45
5,62,99,99
5,62,0,32
5,62,91,17
5,62,0,25
5,62,99,22
5,62,0,22
5,62,88,27
5,62,0,84
5,60,91,11
5,60,0,62
5,60,93,82
5,60,0,35
5,60,81,13
5,60,0,24
5,60,99,24
5,60,0,20
5,60,86,24
5,60,0,100
5,59,99,3
5,59,0,31
5,57,86,15
5,57,0,10
5,55,102,38
5,55,0,124
5,55,80,403
5,55,0,31
5,55,84,20
5,55,0,22
5,55,86,26
5,55,0,45
5,57,91,0
5,57,0,49
5,59,88,0
5,59,0,37
5,60,84,9
5,59,99,50
5,60,0,5
5,59,0,101
5,62,99,327
5,62,0,32
5,62,104,19
5,62,0,44
5,62,102,53
5,67,88,45
5,62,0,1
5,67,0,25
5,66,89,19
5,66,0,26
5,67,104,22
5,67,0,88
5,67,89,11
5,67,0,124
5,62,93,258
5,62,0,33
5,62,84,15
5,62,0,63
5,62,102,35
5,62,0,33
5,67,84,13
5,67,0,25
5,66,83,22
5,66,0,18
5,66,89,29
5,67,88,149
5,66,0,10
5,67,0,6
5,64,99,31
5,64,0,169
5,62,77,121
5,62,0,17
5,62,99,28
5,62,0,57
5,62,99,40
5,62,0,25
5,67,87,20
5,67,0,19
5,66,87,26
5,66,0,23
5,66,99,27
5,66,0,144
5,67,88,1
5,67,0,18
5,62,88,29
5,62,0,124
5,59,87,19
5,59,0,18
5,62,102,30
5,62,0,108
5,62,93,134
5,62,0,48
5,60,84,3
5,60,0,42
5,59,87,6
5,59,0,16
5,59,99,31
5,60,93,98
5,59,0,5
5,60,0,12
5,55,86,29
5,55,0,141
5,62,86,194
5,62,0,28
5,62,88,20
5,62,0,34
5,62,86,17
5,62,0,18
5,62,91,29
5,62,0,39
5,67,88,8
5,67,0,39
5,66,87,8
5,66,0,23
5,66,96,26
5,67,82,100
5,66,0,4
5,67,0,148
5,62,84,275
5,62,0,30
5,62,87,19
5,62,0,27
5,62,93,22
5,62,0,40
5,67,84,9
5,67,0,36
5,66,81,13
5,66,0,22
5,66,93,23
5,67,83,144
5,66,0,3
5,67,0,36
5,60,104,12
5,60,0,142
5,62,91,142
5,62,0,32
5,62,88,14
5,62,0,25
5,62,99,22
5,62,0,23
5,62,93,26
5,62,0,42
5,67,99,6
5,67,0,35
5,66,89,13
5,66,0,18
5,66,96,28
5,67,87,150
5,66,0,2
5,67,0,18
5,67,107,26
5,71,99,148
5,67,0,4
5,71,0,15
5,69,93,28
5,69,0,136
5,74,96,7
5,74,0,17
5,71,93,29
5,71,0,111
5,74,99,29
5,74,0,38
5,72,99,12
5,71,84,150
5,72,0,8
5,71,0,10
5,72,89,30
5,72,0,91
5,71,88,2
5,71,0,13
5,69,99,35
5,69,0,36
5,67,88,19
5,67,0,230
5,64,87,145
5,64,0,32
5,72,93,14
5,72,0,26
5,72,99,22
5,71,99,53
5,72,0,2
5,71,0,35
5,72,84,9
5,72,0,47
5,71,83,4
5,71,0,41
5,69,88,7
5,69,0,41
5,67,87,7
5,67,0,148
5,67,111,135
5,69,83,46
5,67,0,5
5,69,0,25
5,71,84,16
5,71,0,34
5,72,99,15
5,71,107,50
5,72,0,1
5,71,0,97
5,71,50,3
5,71,0,1
5,62,93,193
5,62,0,21
5,69,107,29
5,69,0,209
5,62,81,124
5,62,0,18
5,69,99,22
5,67,99,47
5,69,0,6
5,67,0,227
5,67,86,207
5,67,0,30
5,67,99,17
5,67,0,29
5,67,99,21
5,67,0,19
5,67,107,28
5,67,0,44
5,69,107,1
5,71,104,49
5,69,0,3
5,71,0,31
5,72,104,10
5,72,0,49
5,71,107,1
5,71,0,107
5,62,75,184
5,62,0,20
5,69,96,30
5,67,87,2
5,67,0,4
5,69,0,209
5,62,88,123
5,62,0,17
5,69,104,29
5,69,0,42
5,67,104,2
5,67,0,267
5,67,82,171
5,67,0,26
5,67,87,20
5,67,0,29
5,67,89,21
5,67,0,20
5,67,102,25
5,67,0,46
5,69,99,0
5,71,96,48
5,69,0,5
5,71,0,31
