track,note,velocity,time
2,31,63,2417
2,31,0,1510
2,30,56,26
2,31,76,1536
2,30,0,4
2,31,0,1508
2,30,76,24
2,30,0,1460
2,35,89,76
2,35,0,756
2,33,84,12
2,31,84,768
2,33,0,17
2,31,0,1258
2,31,80,69
2,31,0,94
2,33,84,2
2,35,84,96
2,33,0,6
2,35,0,534
2,35,66,36
2,33,80,192
2,35,0,21
2,33,0,530
2,33,69,25
2,33,0,191
2,31,78,1
2,31,0,1523
2,29,78,13
2,29,0,735
2,29,78,33
2,29,0,755
2,28,74,13
2,28,0,745
2,28,68,23
2,28,0,782
2,26,82,3058
2,26,0,1269
2,26,70,75
2,26,0,34
2,30,62,3
2,30,0,1323
2,31,69,200
2,31,0,474
2,31,74,102
2,31,0,1598
2,36,72,130
2,36,0,497
2,41,76,79
2,41,0,931
2,45,63,29
2,45,0,533
2,41,63,43
2,41,0,926
2,36,76,34
2,36,0,1484
2,32,66,52
2,32,0,1165
2,33,72,371
2,33,0,1481
2,41,66,55
2,41,0,1438
2,31,53,2
2,31,0,81
2,36,61,15
2,36,0,1458
2,32,64,78
2,32,0,1448
2,33,80,88
2,33,0,1457
2,41,64,79
2,41,0,1291
2,41,60,53
2,41,0,166
2,33,84,26
2,33,0,1452
2,34,80,84
2,34,0,1535
2,26,93,1
2,26,0,1509
2,31,89,27
2,43,66,288
2,31,0,6
2,31,76,474
2,43,0,4
2,43,63,284
2,31,0,4
2,31,72,284
2,43,0,5
2,31,0,180
2,29,97,7
2,29,0,655
2,29,80,17
2,29,0,28
2,29,89,68
2,29,0,676
2,28,97,92
2,28,0,628
2,28,84,44
2,28,0,26
2,28,84,166
2,28,0,32
2,28,97,64
2,28,0,332
2,26,93,52
2,26,0,59
2,28,84,37
2,28,0,75
2,29,97,21
2,29,0,617
2,29,80,55
2,29,0,28
2,29,93,68
2,29,0,678
2,28,97,90
2,28,0,648
2,28,80,24
2,28,0,46
2,28,84,146
2,28,0,37
2,28,97,59
2,28,0,158
2,26,93,34
2,26,0,157
2,28,93,35
2,28,0,166
2,29,102,26
2,29,0,625
2,29,93,47
2,29,0,67
2,29,93,29
2,29,0,736
2,28,106,32
2,28,0,652
2,31,93,20
2,31,0,92
2,33,93,4
2,33,0,688
2,32,84,80
2,32,0,615
2,32,93,57
2,32,0,55
2,32,93,41
2,32,0,724
2,31,97,44
2,31,0,621
2,31,89,51
2,31,0,55
2,31,93,41
2,31,0,767
2,30,106,1
2,30,0,615
2,30,63,57
2,30,0,51
2,30,97,45
2,30,0,756
2,29,97,12
2,29,0,758
2,29,96,10
2,29,0,142
2,29,93,50
2,29,0,557
2,28,102,19
2,28,0,437
2,28,93,43
2,28,0,96
2,31,76,0
2,28,93,96
2,31,0,15
2,28,0,74
2,33,89,7
2,33,0,631
2,33,80,41
2,33,0,28
2,28,93,164
2,28,0,94
2,31,76,2
2,31,0,166
2,33,80,26
2,33,0,162
2,33,76,30
2,33,0,153
2,32,84,39
2,32,0,159
2,31,76,33
2,31,0,175
2,30,80,17
2,30,0,170
2,31,89,22
2,31,0,188
2,29,72,4
2,29,0,1041
2,36,71,15
2,36,0,93
2,41,61,3
2,41,0,91
2,43,63,5
2,43,0,64
2,45,50,32
2,45,0,88
2,38,61,8
2,38,0,94
2,40,80,2
2,40,0,11
2,52,63,7
2,52,0,206
2,32,68,92
2,32,0,150
2,31,76,42
2,31,0,176
2,30,68,16
2,30,0,172
2,31,80,20
2,31,0,1726
2,26,93,2
2,26,0,154
2,28,93,38
2,28,0,161
2,30,84,31
2,30,0,165
2,31,82,27
2,31,0,2450
2,36,82,46
2,36,0,566
2,32,84,10
2,32,0,910
2,33,84,50
2,29,71,576
2,33,0,12
2,29,0,946
2,36,69,2
2,36,0,1230
3,47,83,359
3,62,92,0
3,66,79,0
3,57,75,3
3,66,0,190
3,66,92,1
3,67,67,38
3,69,83,43
3,74,88,48
3,78,71,54
3,78,0,35
3,79,65,17
3,79,0,37
3,81,65,19
3,81,0,48
3,86,83,6
3,86,0,34
3,88,67,22
3,88,0,28
3,90,92,30
3,90,0,25
3,66,0,55
3,91,79,1
3,67,0,2
3,69,0,0
3,74,0,2
3,91,0,29
3,90,79,56
3,90,0,24
3,86,92,58
3,86,0,23
3,81,75,79
3,81,0,33
3,81,40,51
3,87,67,8
3,81,0,7
3,87,0,14
3,88,96,1
3,88,0,93
3,86,67,4
3,57,0,108
3,76,62,0
3,47,0,9
3,62,0,0
3,81,51,4
3,83,56,0
3,85,75,4
3,69,67,3
3,86,0,36
3,88,51,81
3,81,0,43
3,81,65,72
3,88,0,24
3,85,0,15
3,83,0,30
3,76,0,247
3,81,0,67
3,83,67,320
3,69,0,103
3,57,65,25
3,61,65,2
3,59,52,1
3,81,83,207
3,83,0,54
3,81,0,153
3,57,0,144
3,61,0,0
3,59,0,1
3,81,92,153
3,81,0,37
3,80,92,69
3,57,83,13
3,62,67,1
3,80,0,14
3,76,92,65
3,76,0,24
3,71,88,74
3,71,0,25
3,73,101,23
3,73,0,35
3,71,92,13
3,71,0,27
3,69,96,51
3,69,0,29
3,68,101,55
3,68,0,33
3,69,79,44
3,69,0,28
3,76,96,59
3,62,0,32
3,76,0,2
3,57,0,2
3,71,105,3
3,57,75,9
3,61,75,3
3,73,75,36
3,71,0,1
3,73,0,71
3,69,71,12
3,69,0,32
3,64,75,71
3,64,0,25
3,61,0,27
3,57,0,1
3,61,56,44
3,61,0,16
3,54,75,2
3,62,65,1
3,57,75,2
3,57,0,44
3,57,38,34
3,62,0,27
3,57,0,30
3,62,59,24
3,62,0,34
3,64,96,52
3,64,0,43
3,62,83,54
3,62,0,34
3,61,83,54
3,61,0,38
3,54,0,28
3,62,92,11
3,62,0,64
3,49,79,28
3,64,96,1
3,57,67,95
3,64,0,8
3,57,0,5
3,64,71,84
3,59,79,1
3,52,59,5
3,49,0,493
3,59,0,132
3,52,0,1
3,64,0,2
3,57,92,15
3,59,75,50
3,57,0,13
3,61,63,44
3,59,0,16
3,57,67,38
3,61,0,5
3,54,53,2
3,62,88,3
3,61,59,78
3,62,0,7
3,52,49,2
3,54,0,8
3,57,0,83
3,59,54,63
3,61,0,47
3,61,47,57
3,57,50,7
3,59,0,22
3,59,44,136
3,61,0,31
3,57,0,63
3,50,39,73
3,61,47,6
3,57,44,6
3,52,0,39
3,59,0,15
3,61,0,1266
3,50,0,6
3,57,0,8
3,45,96,3
3,62,83,0
3,64,83,0
3,69,88,0
3,74,67,39
3,76,75,16
3,81,83,29
3,45,0,136
3,69,0,12
3,64,0,7
3,62,0,4
3,74,0,139
3,76,0,165
3,81,0,118
3,45,73,2
3,52,69,0
3,57,82,0
3,59,73,0
3,61,69,0
3,45,0,1528
3,52,0,0
3,59,0,1
3,57,0,2
3,61,0,0
3,45,83,11
3,64,88,3
3,57,79,1
3,62,79,0
3,45,0,1477
3,57,0,1
3,64,0,2
3,62,0,2
3,59,75,45
3,45,75,1
3,57,67,0
3,64,79,2
3,59,0,1507
3,64,0,0
3,45,0,3
3,57,0,0
3,57,92,22
3,62,88,0
3,64,92,0
3,45,75,1
3,57,0,79
3,62,0,0
3,64,0,1
3,64,88,158
3,62,88,1
3,57,88,1
3,62,0,38
3,64,0,0
3,57,0,4
3,62,75,336
3,64,83,0
3,57,71,1
3,57,0,34
3,62,0,1
3,64,0,1
3,57,92,356
3,64,88,0
3,62,88,1
3,62,0,21
3,64,0,4
3,57,0,1
3,57,83,158
3,57,0,27
3,45,0,119
3,57,79,8
3,59,83,0
3,64,79,1
3,45,79,3
3,57,0,85
3,64,0,6
3,59,0,1
3,64,83,177
3,57,83,1
3,59,92,0
3,59,0,36
3,57,0,5
3,64,0,2
3,64,88,344
3,59,88,1
3,57,83,1
3,59,0,30
3,57,0,1
3,64,0,4
3,57,92,343
3,64,96,0
3,59,92,1
3,59,0,25
3,57,0,6
3,64,0,1
3,57,92,160
3,57,0,21
3,45,0,13
3,45,81,13
3,64,77,0
3,69,87,2
3,62,87,1
3,62,0,89
3,69,0,0
3,64,0,10
3,69,83,156
3,64,79,2
3,62,82,2
3,62,0,41
3,64,0,5
3,69,0,0
3,69,79,340
3,64,83,1
3,62,80,1
3,62,0,34
3,64,0,2
3,69,0,4
3,64,84,41
3,69,83,1
3,62,82,2
3,62,0,25
3,64,0,5
3,69,0,0
3,45,0,32
3,57,89,122
3,64,88,91
3,57,0,71
3,64,0,0
3,57,79,8
3,62,92,0
3,66,83,0
3,45,63,1
3,66,0,117
3,62,0,2
3,57,0,2
3,45,0,7
3,57,83,207
3,62,92,0
3,64,82,0
3,66,75,0
3,64,0,30
3,62,0,1
3,66,0,1
3,57,0,5
3,64,82,116
3,57,88,1
3,62,92,0
3,66,79,0
3,57,0,41
3,62,0,4
3,66,0,7
3,64,0,7
3,64,82,305
3,66,83,0
3,57,92,1
3,62,89,0
3,62,0,59
3,57,0,5
3,66,0,1
3,64,0,10
3,64,82,305
3,57,79,1
3,62,79,1
3,66,75,0
3,62,0,68
3,66,0,3
3,64,0,1
3,57,0,3
3,62,89,1079
3,62,0,32
3,64,97,109
3,64,0,27
3,66,102,113
3,66,0,24
3,43,91,10
3,55,77,0
3,59,87,0
3,66,83,0
3,55,0,308
3,59,0,14
3,66,0,12
3,43,0,247
3,64,96,127
3,64,0,34
3,62,96,254
3,62,0,28
3,69,100,68
3,69,0,17
3,54,59,4
3,57,83,0
3,64,79,0
3,61,63,768
3,61,0,758
3,54,0,4
3,57,0,0
3,64,0,0
3,55,73,6
3,59,75,0
3,62,88,0
3,66,73,0
3,59,0,193
3,66,0,1
3,62,0,2
3,55,0,1
3,55,79,165
3,62,75,0
3,66,75,0
3,66,0,67
3,62,0,1
3,55,0,5
3,55,65,1
3,59,72,0
3,62,71,0
3,64,71,0
3,59,0,77
3,62,0,0
3,64,0,3
3,55,0,7
3,61,88,3
3,62,88,96
3,61,0,30
3,69,98,66
3,62,0,539
3,69,0,6
3,61,77,31
3,62,81,96
3,61,0,88
3,69,94,8
3,69,0,534
3,62,0,6
3,59,88,36
3,62,101,0
3,66,96,0
3,59,0,349
3,62,0,0
3,66,0,2
3,59,92,33
3,62,96,0
3,66,92,0
3,62,0,324
3,59,0,14
3,66,0,7
3,57,88,39
3,61,92,0
3,66,92,0
3,57,0,342
3,61,0,3
3,66,0,3
3,57,92,36
3,61,92,0
3,66,92,0
3,61,0,287
3,57,0,43
3,66,0,18
3,55,79,36
3,59,92,0
3,66,96,0
3,55,0,337
3,55,63,47
3,55,0,372
3,59,0,28
3,59,45,32
3,66,0,68
3,62,82,76
3,66,77,96
3,64,76,96
3,62,0,8
3,66,0,228
3,59,0,101
3,64,0,22
3,59,69,25
3,62,77,0
3,66,73,0
3,66,0,706
3,62,0,2
3,59,0,2
3,57,55,58
3,61,73,0
3,66,73,0
3,57,0,333
3,61,0,12
3,66,0,4
3,57,69,35
3,61,73,0
3,66,73,0
3,66,0,298
3,57,0,10
3,61,0,56
3,59,61,20
3,62,73,0
3,66,73,0
3,66,0,330
3,59,0,11
3,62,0,3
3,59,69,40
3,62,77,0
3,66,73,0
3,55,33,240
3,55,0,14
3,66,0,30
3,59,0,61
3,62,0,1
3,55,73,38
3,59,65,0
3,64,69,0
3,55,0,322
3,59,0,2
3,64,0,3
3,55,65,57
3,59,93,0
3,64,77,0
3,64,0,363
3,55,0,9
3,59,0,3
3,60,65,9
3,64,93,0
3,69,77,0
3,60,0,327
3,64,0,9
3,69,0,5
3,60,61,43
3,64,73,0
3,69,77,0
3,69,0,323
3,60,0,8
3,64,0,13
3,60,69,40
3,64,83,0
3,69,73,0
3,60,0,340
3,69,0,9
3,64,0,1
3,60,69,34
3,64,77,0
3,69,73,0
3,69,0,317
3,60,0,10
3,64,0,19
3,60,73,38
3,64,77,0
3,67,69,0
3,60,0,319
3,64,0,20
3,67,0,2
3,62,73,43
3,64,83,0
3,67,73,0
3,62,0,239
3,64,0,19
3,67,0,24
3,64,73,102
3,67,83,0
3,74,93,0
3,74,0,790
3,67,0,6
3,64,0,10
3,50,86,3034
3,57,86,0
3,62,90,0
3,66,90,0
3,62,0,7
3,66,0,2
3,62,86,49
3,66,86,0
3,57,0,306
3,62,0,9
3,66,0,68
3,57,65,1
3,57,0,114
3,50,0,89
3,57,56,85
3,57,0,45
3,66,110,51
3,66,0,73
3,57,82,23
3,57,0,70
3,50,69,26
3,50,0,35
3,69,99,61
3,69,0,51
3,54,73,9
3,57,86,0
3,61,95,0
3,69,99,0
3,61,0,1151
3,69,0,0
3,61,95,1
3,69,105,0
3,61,0,142
3,69,0,0
3,62,87,2
3,71,96,0
3,62,0,110
3,71,0,0
3,64,87,2
3,73,103,0
3,57,0,118
3,64,0,4
3,54,0,1
3,73,0,1
3,66,79,4
3,69,92,0
3,73,92,0
3,66,0,498
3,73,0,5
3,69,0,7
3,67,71,66
3,71,83,0
3,74,83,0
3,74,0,1699
3,71,0,3
3,67,0,2
3,62,96,24
3,55,88,1
3,36,92,2
3,55,0,58
3,62,0,12
3,60,96,107
3,60,0,25
3,55,92,169
3,36,0,2
3,55,0,30
3,56,79,8
3,60,96,1
3,67,92,1
3,41,88,2
3,53,101,0
3,56,0,171
3,60,0,26
3,67,0,0
3,53,0,73
3,41,0,1
3,60,105,143
3,60,0,34
3,62,101,55
3,62,0,40
3,55,83,6
3,60,96,3
3,45,88,4
3,64,79,3
3,64,0,22
3,60,0,8
3,62,103,24
3,55,0,27
3,62,0,7
3,60,103,161
3,60,0,28
3,45,0,10
3,53,72,2
3,56,94,3
3,60,79,2
3,41,83,3
3,53,0,9
3,56,0,68
3,55,87,2
3,55,0,79
3,53,88,118
3,41,0,4
3,53,0,0
3,60,0,0
3,48,75,34
3,55,65,96
3,60,71,96
3,55,0,32
3,48,0,11
3,55,62,53
3,67,79,96
3,60,0,26
3,62,65,70
3,60,75,96
3,55,0,48
3,55,59,48
3,62,0,87
3,48,53,9
3,67,0,229
3,55,0,246
3,48,0,51
3,60,0,34
3,56,62,208
3,60,79,0
3,67,67,0
3,56,0,686
3,60,0,56
3,67,0,49
3,60,88,553
3,62,92,96
3,60,0,31
3,57,79,65
3,60,75,0
3,64,88,0
3,62,0,22
3,67,79,551
3,67,0,769
3,57,0,176
3,60,0,0
3,64,0,0
3,53,65,564
3,56,71,12
3,60,67,8
3,64,92,13
3,60,0,73
3,62,67,14
3,64,0,72
3,60,83,24
3,62,0,15
3,53,0,735
3,56,0,3
3,60,0,7
3,60,79,14
3,67,79,0
3,60,0,124
3,67,0,17
3,67,83,208
3,67,0,29
3,74,88,67
3,74,0,23
3,67,62,169
3,67,0,16
3,72,96,80
3,72,0,21
3,60,88,171
3,60,0,24
3,67,92,72
3,67,0,62
3,56,92,5
3,60,86,64
3,60,0,164
3,67,96,124
3,56,0,24
3,67,0,25
3,74,96,239
3,74,0,28
3,75,79,68
3,75,0,35
3,74,79,61
3,74,0,26
3,72,92,70
3,72,0,23
3,67,78,169
3,67,0,19
3,52,92,1
3,52,0,62
3,59,92,34
3,59,0,62
3,60,92,34
3,60,0,63
3,67,96,33
3,67,0,25
3,64,88,263
3,71,96,0
3,64,0,78
3,71,0,16
3,79,96,371
3,79,0,25
3,60,77,96
3,62,87,0
3,68,75,0
3,56,96,288
3,62,0,77
3,60,0,18
3,60,92,1
3,60,0,93
3,64,77,3
3,68,0,0
3,56,0,24
3,62,92,72
3,64,0,14
3,62,0,736
3,64,94,18
3,64,0,86
3,65,91,10
3,65,0,86
3,67,101,10
3,67,0,458
3,71,92,22
3,72,79,96
3,71,0,94
3,79,96,2
3,72,0,37
3,74,92,59
3,79,0,57
3,76,79,39
3,74,0,30
3,72,65,66
3,71,75,96
3,76,0,27
3,72,0,2
3,69,71,163
3,71,0,38
3,69,0,223
3,57,96,27
3,57,0,360
3,60,92,24
3,67,75,288
3,60,0,9
3,69,83,183
3,67,0,9
3,72,79,87
3,79,101,96
3,72,0,76
3,74,96,20
3,72,83,96
3,74,0,25
3,79,0,204
