track,note,velocity,time
3,64,69,13003
3,64,0,15
3,59,86,33
3,59,0,22
3,35,83,9
3,35,0,17
3,28,86,2
3,28,0,565
3,27,87,2
3,27,0,2
3,25,89,1
3,30,89,768
3,25,0,2
3,30,0,535
3,30,89,39
3,35,90,7
3,30,0,1
3,35,0,9
3,42,74,3
3,47,87,29
3,42,0,3
3,45,91,45
3,47,0,12
3,44,91,5
3,45,0,8
3,44,0,181
3,40,65,30
3,40,0,6
3,39,91,42
3,39,0,4
3,37,91,1
3,37,0,617
3,44,63,7
3,44,0,9
3,38,91,39
3,38,0,44
3,39,91,4
3,39,0,44
3,40,91,4
3,40,0,8
3,28,92,12
3,28,0,94
3,30,92,2
3,30,0,94
3,32,92,2
3,32,0,172
3,33,92,20
3,40,92,7
3,33,0,8
3,40,0,39
3,45,92,1
3,39,92,48
3,45,0,1
3,39,0,3
3,32,94,337
3,32,0,21
3,37,96,27
3,37,0,46
3,39,101,2
3,39,0,46
3,40,103,2
3,40,0,46
3,44,107,2
3,44,0,46
3,52,113,2
3,52,0,46
3,57,121,2
3,57,0,102
3,52,96,2
3,52,0,96
3,54,107,0
3,32,92,3
3,54,0,3
3,37,93,10
3,32,0,3
3,37,0,2
3,30,93,2
3,35,93,10
3,30,0,2
3,35,0,9
3,28,93,1
3,28,0,82
3,33,101,64
3,33,0,650
3,33,101,22
3,35,101,48
3,33,0,3
3,37,101,45
3,35,0,1
3,37,0,538
3,37,101,37
3,37,0,46
3,39,101,2
3,40,101,48
3,39,0,4
3,35,101,92
3,40,0,2
3,42,101,190
3,35,0,3
3,42,0,25
3,28,101,1
3,28,0,186
3,40,101,6
3,40,0,13
3,33,97,5
3,33,0,248
3,33,97,40
3,33,0,35
3,33,97,61
3,33,0,168
3,33,97,10
3,30,97,5
3,33,0,6
3,30,0,236
3,30,97,46
3,30,0,51
3,30,97,45
3,30,0,191
3,37,97,1
3,37,0,93
3,30,97,3
3,30,0,1
3,35,97,2
3,35,0,202
3,35,97,34
3,35,0,5
3,35,97,43
3,35,0,49
3,35,97,47
3,42,97,144
3,35,0,5
3,47,97,43
3,42,0,10
3,47,0,5
3,40,97,5
3,40,0,74
3,40,97,25
3,40,0,47
3,35,97,1
3,35,0,3
3,28,97,5
3,28,0,111
3,28,97,33
3,28,0,4
3,40,97,9
3,40,0,22
3,33,101,8
3,33,0,242
3,33,101,46
3,33,0,33
3,33,101,63
3,33,0,255
3,33,101,33
3,33,0,17
3,30,101,3
3,30,0,235
3,30,101,44
3,30,0,38
3,30,101,58
3,30,0,6
3,42,101,8
3,42,0,26
3,28,101,51
3,28,0,41
3,30,101,7
3,30,0,38
3,28,101,10
3,28,0,4
3,38,101,44
3,38,0,45
3,33,101,3
3,33,0,41
3,35,101,7
3,35,0,36
3,40,101,16
3,40,0,69
3,40,101,36
3,40,0,4
3,35,101,11
3,35,0,214
3,33,101,6
3,33,0,94
3,35,101,2
3,35,0,94
3,37,101,2
3,37,0,94
3,33,101,2
3,33,0,94
3,38,101,2
3,38,0,253
3,38,101,35
3,38,0,38
3,38,101,58
3,38,0,306
3,33,101,30
3,32,101,48
3,33,0,1
3,32,0,207
3,32,101,32
3,32,0,42
3,38,101,6
3,35,101,48
3,38,0,1
3,37,101,47
3,35,0,1
3,37,0,155
3,37,101,36
3,37,0,23
3,30,101,2
3,30,0,39
3,37,101,4
3,42,101,48
3,37,0,1
3,42,0,46
3,44,101,1
3,44,0,44
3,45,105,4
3,49,111,48
3,45,0,3
3,49,0,41
3,54,119,4
3,54,0,43
3,57,122,5
3,57,0,46
3,60,126,2
3,57,107,73
3,60,0,2
3,57,0,89
3,59,118,5
3,59,0,6
3,52,96,2
3,52,0,16
3,50,96,8
3,50,0,16
3,49,101,8
3,49,0,6
3,42,101,1
3,42,0,2
3,35,101,2
3,35,0,764
3,40,101,1
3,40,0,8
3,52,101,0
3,52,0,44
3,33,101,2
3,33,0,814
3,45,71,2
3,45,0,11
3,33,58,37
3,33,0,670
3,38,121,2
3,38,0,1534
3,54,121,2
3,54,0,7
3,42,121,13
3,42,0,757
3,26,78,3
3,38,9,396
3,38,0,16
3,40,11,2
3,40,0,16
3,38,14,2
3,38,0,16
3,40,16,2
3,40,0,16
3,38,18,2
3,38,0,16
3,40,20,2
3,40,0,16
3,38,22,2
3,38,0,16
3,40,24,2
3,40,0,16
3,38,26,2
3,38,0,16
3,40,29,2
3,40,0,16
3,38,31,2
3,38,0,16
3,40,33,2
3,40,0,16
3,38,35,2
3,38,0,16
3,40,37,2
3,40,0,16
3,38,39,2
3,38,0,16
3,40,42,2
3,40,0,16
3,38,44,2
3,38,0,16
3,40,46,2
3,40,0,16
3,38,48,2
3,38,0,16
3,40,50,2
3,40,0,16
3,38,52,2
3,38,0,16
3,40,54,2
3,40,0,16
3,38,52,2
3,38,0,16
3,40,51,2
3,26,0,4
3,40,0,12
3,38,50,2
3,38,0,16
3,40,48,2
3,40,0,16
3,38,47,2
3,38,0,16
3,40,45,2
3,40,0,16
3,38,44,2
3,38,0,16
3,40,43,2
3,40,0,16
3,38,41,2
3,38,0,16
3,40,40,2
3,40,0,16
3,38,38,2
3,38,0,16
3,40,37,2
3,40,0,16
3,38,36,2
3,38,0,16
3,40,34,2
3,40,0,16
3,38,33,2
3,38,0,16
3,40,32,2
3,40,0,16
3,38,34,2
3,38,0,16
3,40,35,2
3,40,0,16
3,38,36,2
3,38,0,16
3,40,37,2
3,40,0,16
3,38,38,2
3,38,0,16
3,40,39,2
3,40,0,16
3,38,40,2
3,38,0,16
3,40,41,2
3,40,0,16
3,38,43,2
3,38,0,16
3,40,44,2
3,40,0,16
3,38,45,2
3,38,0,16
3,40,46,2
3,40,0,16
3,38,47,2
3,38,0,16
3,40,48,2
3,40,0,16
3,38,49,2
3,38,0,16
3,40,51,2
3,40,0,16
3,38,52,2
3,38,0,16
3,40,53,2
3,40,0,16
3,38,54,2
3,38,0,16
3,40,55,2
3,40,0,16
3,40,95,2
3,40,0,6
3,42,102,6
3,30,105,172
3,42,0,5
3,42,63,27
3,42,0,46
3,42,63,2
3,42,0,46
3,42,66,2
3,42,0,46
3,42,70,2
3,42,0,46
3,42,73,2
3,42,0,46
3,42,78,2
3,42,0,46
3,42,84,2
3,42,0,46
3,42,90,2
3,42,0,46
3,42,96,2
3,42,0,46
3,42,98,2
3,42,0,46
3,42,100,2
3,42,0,46
3,42,102,2
3,42,0,46
3,42,104,2
3,42,0,46
3,42,105,2
3,42,0,46
3,42,107,2
3,42,0,46
3,42,114,2
3,42,0,46
3,30,0,0
3,35,101,2
3,35,0,248
3,35,101,40
3,35,0,35
3,35,101,61
3,35,0,168
3,35,101,13
3,32,101,7
3,35,0,6
3,44,101,233
3,32,0,3
3,44,0,6
3,32,101,40
3,32,0,51
3,32,101,45
3,32,0,191
3,39,101,1
3,39,0,93
3,32,101,3
3,32,0,10
3,37,101,2
3,37,0,1
3,25,101,5
3,25,0,52
3,25,101,44
3,25,0,378
3,30,101,6
3,30,0,11
3,37,101,2
3,37,0,34
3,42,101,12
3,42,0,46
3,40,101,2
3,40,0,271
3,40,88,17
3,40,0,94
3,39,101,2
3,39,0,242
3,39,101,46
3,39,0,33
3,39,101,63
3,39,0,255
3,39,101,33
3,39,0,17
3,32,101,3
3,32,0,235
3,32,101,44
3,32,0,38
3,32,101,58
3,32,0,6
3,44,101,8
3,44,0,26
3,30,101,3
3,30,0,46
3,37,101,2
3,37,0,46
3,42,101,2
3,42,0,190
3,37,101,2
3,37,0,46
3,30,101,2
3,30,0,46
3,35,101,2
3,35,0,94
3,25,101,2
3,25,0,94
3,27,101,2
3,27,0,190
3,28,101,2
3,28,0,253
3,28,101,35
3,28,0,38
3,28,101,58
3,28,0,2
3,40,101,2
3,40,0,7
3,34,101,1
3,34,0,238
3,34,101,50
3,34,0,33
3,39,101,2
3,39,0,155
3,39,101,36
3,39,0,23
3,32,101,6
3,32,0,144
3,39,101,0
3,44,101,3
3,39,0,3
3,44,0,53
3,42,101,4
3,42,0,7
3,40,101,4
3,40,0,6
3,33,101,10
3,39,101,192
3,33,0,4
3,39,0,97
3,39,101,30
3,39,0,47
3,32,100,49
3,32,0,3
3,39,100,6
3,39,0,43
3,32,101,5
3,37,101,9
3,32,0,5
3,37,0,136
3,25,101,3
3,25,0,35
3,44,101,2
3,44,0,53
3,42,101,4
3,42,0,51
3,30,101,2
3,30,0,148
3,35,101,14
3,35,0,250
3,35,101,38
3,35,0,48
3,35,101,48
3,35,0,263
3,35,101,25
3,35,0,15
3,32,101,11
3,39,101,238
3,32,0,3
3,44,101,45
3,39,0,4
3,44,0,38
3,32,101,6
3,32,0,11
3,32,101,37
3,32,0,164
3,32,101,28
3,32,0,6
3,37,101,9
3,44,101,144
3,37,0,2
3,49,101,46
3,44,0,5
3,44,101,91
3,49,0,1
3,44,0,89
3,37,101,6
3,44,101,18
3,37,0,4
3,44,0,90
3,37,101,2
3,37,0,8
3,30,101,0
3,30,0,78
3,35,101,31
3,35,0,94
3,37,101,2
3,37,0,46
3,35,101,2
3,35,0,11
3,39,101,37
3,39,0,93
3,35,101,3
3,28,101,6
3,35,0,1
3,28,0,257
3,28,101,30
3,28,0,40
3,28,101,56
3,35,101,240
3,28,0,1
3,40,101,47
3,35,0,1
3,34,101,4
3,40,0,8
3,34,0,5
3,40,101,11
3,39,101,87
3,40,0,3
3,39,0,82
3,39,101,30
3,39,0,4
3,31,101,44
3,31,0,85
3,32,101,11
3,32,0,15
3,34,101,4
3,34,0,38
3,35,101,10
3,35,0,41
3,37,101,7
3,37,0,42
3,40,101,6
3,33,101,4
3,40,0,2
3,33,0,7
3,39,101,0
3,39,0,240
3,39,101,35
3,39,0,33
3,32,101,50
3,32,0,136
3,39,101,20
3,39,0,43
3,32,101,5
3,32,0,38
3,37,101,10
3,44,101,7
3,37,0,7
3,49,101,73
3,44,0,3
3,49,0,15
3,42,101,10
3,42,0,756
3,35,89,12
3,35,0,46
3,35,89,98
3,35,0,46
3,35,89,98
3,35,0,46
3,35,89,146
3,35,0,94
3,35,89,98
3,35,0,46
3,32,89,50
3,32,0,46
3,32,89,98
3,32,0,46
3,32,89,98
3,32,0,46
3,32,89,11
3,32,0,28
3,30,89,2
3,30,0,46
3,28,89,2
3,28,0,46
3,32,89,2
3,32,0,73
3,30,89,2
3,30,0,94
3,28,89,2
3,28,0,46
3,28,89,98
3,28,0,46
3,28,89,98
3,28,0,46
3,28,89,98
3,28,0,46
3,28,89,98
3,28,0,94
3,30,89,98
3,30,0,46
3,30,89,98
3,30,0,46
3,30,89,98
3,30,0,26
3,23,89,1
3,23,0,5
4,87,65,249
4,87,0,94
4,83,66,2
4,83,0,94
4,80,67,2
4,80,0,478
4,88,72,2
4,88,0,94
4,87,73,2
4,87,0,94
4,83,74,2
4,83,0,94
4,80,75,2
4,80,0,478
4,76,80,2
4,76,0,46
4,78,80,2
4,78,0,46
4,80,81,2
4,80,0,94
4,76,82,2
4,76,0,94
4,73,83,2
4,73,0,2
4,64,71,2
4,69,71,0
4,73,78,0
4,73,0,2
4,72,78,2
4,72,0,11
4,69,0,0
4,68,76,2
4,71,76,0
4,71,0,18
4,68,0,0
4,64,0,0
4,83,70,9834
4,83,0,94
4,88,75,1
4,88,0,94
4,87,80,7
4,87,0,286
4,88,84,0
4,88,0,54
4,88,84,1
4,88,0,1
4,87,84,2
4,84,84,30
4,87,0,2
4,84,0,62
4,83,84,7
4,83,0,3
4,80,96,10
4,80,0,11
4,81,94,2
4,81,0,7
4,83,84,2
4,76,77,36
4,85,77,0
4,83,0,131
4,81,72,2
4,81,0,13
4,85,0,39
4,76,0,0
4,88,88,482
4,92,88,0
4,92,0,20
4,91,88,2
4,91,0,190
4,90,87,2
4,88,0,190
4,83,84,2
4,90,0,25
4,88,84,2
4,88,0,39
4,83,0,0
4,81,79,2
4,84,84,0
4,84,0,38
4,81,0,0
4,80,68,2
4,83,83,0
4,83,0,766
4,80,0,0
4,87,122,5
4,95,122,0
4,85,107,145
4,94,107,0
4,95,0,3
4,87,0,0
4,85,0,17
4,94,0,0
4,87,112,2
4,95,112,0
4,95,0,148
4,87,0,0
4,88,112,2
4,95,112,0
4,97,112,0
4,88,0,156
4,90,112,2
4,97,0,29
4,87,112,2
4,87,0,61
4,90,0,240
4,95,0,48
5,68,91,3
5,69,95,69
5,68,0,2
5,71,98,94
5,69,0,8
5,71,0,54
5,71,100,2
5,71,0,234
5,68,93,189
5,68,0,93
5,69,93,3
5,69,0,44
5,71,93,4
5,71,0,20
5,71,103,6
5,71,0,32
5,69,95,4
5,69,0,46
5,68,81,2
5,71,98,13
5,68,0,7
5,69,101,73
5,71,0,13
5,69,0,128
5,69,111,8
5,69,0,42
5,68,111,3
5,68,0,46
5,68,98,12
5,68,0,24
5,68,101,5
5,68,0,210
5,69,98,12
5,69,0,39
5,68,96,9
5,68,0,29
5,68,88,3
5,68,0,33
5,68,85,17
5,68,0,201
5,68,101,209
5,68,0,61
5,69,93,4
5,69,0,62
5,71,101,4
5,71,0,36
5,71,95,6
5,71,0,13
5,73,88,0
5,73,0,26
5,73,86,1
5,73,0,476
5,80,107,106
5,78,104,8
5,80,0,2
5,78,0,20
5,78,104,27
5,78,0,8
5,76,80,7
5,76,0,15
5,76,101,34
5,76,0,2
5,73,107,4
5,75,84,32
5,73,0,1
5,75,0,50
5,76,100,4
5,81,105,4
5,76,0,3
5,81,0,6
5,80,101,0
5,78,101,10
5,80,0,2
5,78,0,94
5,76,91,2
5,76,0,194
5,76,98,4
5,76,0,77
5,74,102,7
5,74,0,62
5,74,96,5
5,72,90,86
5,74,0,2
5,72,0,22
5,72,97,3
5,71,93,81
5,72,0,3
5,71,0,347
5,71,103,6
5,71,0,48
5,69,94,2
5,68,95,62
5,69,0,2
5,68,0,58
5,69,91,2
5,76,99,4
5,69,0,2
5,76,0,2
5,76,100,19
5,76,0,51
5,75,93,3
5,75,0,1
5,76,100,1
5,76,0,258
5,76,107,38
5,76,0,49
5,75,104,6
5,75,0,60
5,71,107,4
5,68,107,68
5,71,0,6
5,68,0,274
5,68,112,4
5,68,0,52
5,69,109,0
5,71,105,66
5,69,0,5
5,71,0,29
5,71,111,33
5,69,107,10
5,71,0,5
5,68,76,39
5,69,0,3
5,68,0,2
5,71,111,4
5,69,109,81
5,71,0,5
5,69,0,292
5,78,114,96
5,78,0,43
5,75,101,5
5,75,0,17
5,73,111,1
5,73,0,8
5,71,94,0
5,71,0,45
5,73,111,3
5,73,0,44
5,71,109,4
5,71,0,102
5,71,115,154
5,71,0,47
5,73,111,2
5,68,94,18
5,73,0,10
5,66,101,15
5,68,0,4
5,66,0,14
5,64,107,4
5,64,0,281
5,68,111,4
5,68,0,42
5,69,101,2
5,71,111,60
5,69,0,3
5,71,0,31
5,71,114,31
5,73,94,10
5,71,0,2
5,73,0,26
5,73,110,6
5,73,0,72
5,80,114,2
5,78,101,48
5,80,0,1
5,78,0,53
5,76,107,4
5,76,0,34
5,76,109,6
5,76,0,263
5,73,112,5
5,75,107,32
5,73,0,3
5,75,0,49
5,76,107,2
5,76,0,11
5,81,111,3
5,81,0,12
5,80,111,0
5,78,111,4
5,80,0,5
5,78,0,95
5,76,105,2
5,76,0,194
5,76,103,40
5,76,0,70
5,74,103,6
5,74,0,50
5,74,107,44
5,72,111,19
5,74,0,4
5,72,0,36
5,72,103,4
5,72,0,23
5,71,103,0
5,71,0,292
5,71,110,48
5,71,0,39
5,69,110,5
5,69,0,63
5,68,98,1
5,68,0,58
5,69,103,2
5,69,0,64
5,76,109,2
5,76,0,300
5,76,107,25
5,76,0,45
5,75,104,3
5,75,0,7
5,76,94,8
5,76,0,3
5,73,121,13
5,73,0,39
5,76,120,2
5,76,0,34
5,76,122,28
5,76,0,36
5,76,116,4
5,76,0,1
5,73,116,33
5,73,0,43
5,76,119,0
5,76,0,20
5,80,122,29
5,80,0,4
