track,note,velocity,time
0,65,105,18
0,68,104,0
0,72,105,0
0,75,105,0
0,79,104,0
0,82,105,0
0,87,104,0
0,40,85,24
0,40,92,32
0,40,93,32
0,40,91,32
0,27,56,0
0,29,57,4
0,31,57,0
0,32,56,0
0,34,56,0
0,40,92,18
0,34,65,0
0,29,65,4
0,36,64,0
0,38,66,0
0,39,67,0
0,41,66,8
0,32,69,8
0,40,93,0
0,43,71,0
0,34,70,2
0,44,71,0
0,36,72,6
0,46,72,0
0,48,75,4
0,50,77,0
0,41,76,4
0,51,76,0
0,53,79,0
0,44,79,0
0,55,78,0
0,46,80,0
0,56,81,0
0,39,117,0
0,82,77,0
0,36,123,0
0,49,97,0
0,87,82,0
0,86,79,60
0,84,79,0
0,82,76,0
0,51,104,0
0,58,89,0
0,62,88,0
0,65,89,0
0,27,69,0
0,42,75,0
0,80,75,2
0,79,72,4
0,77,70,0
0,82,71,0
0,74,69,6
0,79,66,0
0,72,66,0
0,77,65,4
0,42,82,6
0,70,65,0
0,68,62,0
0,72,60,0
0,39,119,10
0,36,122,0
0,40,90,0
0,42,97,0
0,58,89,32
0,62,88,0
0,65,89,0
0,51,107,0
0,42,75,0
0,38,90,12
0,42,86,0
0,39,115,30
0,58,86,0
0,63,86,0
0,67,87,0
0,36,123,0
0,42,97,0
0,40,56,54
0,51,114,0
0,42,74,0
0,38,92,12
0,42,84,0
0,58,85,4
0,63,84,0
0,67,84,0
0,43,117,30
0,36,123,0
0,40,93,0
0,42,97,0
0,51,111,0
0,58,87,0
0,63,87,0
0,67,86,0
0,42,77,0
0,38,92,12
0,42,90,0
0,36,116,0
0,36,122,0
0,42,96,0
0,48,105,0
0,58,88,0
0,62,89,0
0,65,86,0
0,27,66,0
0,42,75,0
0,42,83,12
0,36,119,30
0,36,123,0
0,40,91,0
0,42,96,0
0,58,89,32
0,62,89,0
0,65,88,0
0,48,92,0
0,42,74,0
0,42,87,54
0,36,116,0
0,55,87,0
0,63,86,0
0,67,88,0
0,36,122,0
0,42,96,0
0,40,56,54
0,48,105,0
0,42,75,0
0,42,85,12
0,55,85,4
0,63,85,0
0,67,84,0
0,36,118,30
0,36,122,0
0,40,92,0
0,42,96,0
0,48,107,0
0,55,86,0
0,63,87,0
0,67,85,0
0,40,61,0
0,42,77,0
0,28,93,12
0,40,63,0
0,42,90,0
0,29,116,0
0,36,123,0
0,42,96,0
0,41,105,0
0,58,88,0
0,63,86,0
0,67,89,0
0,27,61,0
0,42,75,0
0,42,83,12
0,29,118,30
0,36,123,0
0,40,90,0
0,42,96,0
0,58,88,32
0,63,89,0
0,67,89,0
0,41,92,0
0,42,74,0
0,42,87,54
0,29,117,0
0,60,86,0
0,63,89,0
0,68,86,0
0,36,122,0
0,42,97,0
0,40,56,54
0,41,105,0
0,42,74,0
0,42,84,12
0,60,84,4
0,63,85,0
0,68,85,0
0,29,118,30
0,36,122,0
0,40,93,0
0,42,97,0
0,41,106,0
0,60,86,0
0,63,84,0
0,68,87,0
0,42,76,0
0,33,93,12
0,42,91,0
0,34,117,0
0,36,123,0
0,42,97,0
0,46,104,0
0,56,87,0
0,63,86,0
0,67,86,0
0,27,67,0
0,42,74,0
0,42,83,12
0,34,118,30
0,36,123,0
0,40,90,0
0,42,96,0
0,56,89,32
0,63,88,0
0,67,89,0
0,46,93,0
0,42,74,0
0,42,87,54
0,34,116,0
0,56,89,0
0,62,88,0
0,65,89,0
0,84,76,0
0,36,122,0
0,42,97,0
0,40,57,54
0,46,105,0
0,42,74,0
0,35,93,10
0,42,84,2
0,56,84,4
0,62,84,0
0,65,85,0
0,36,118,30
0,36,122,0
0,40,93,0
0,42,97,0
0,48,107,0
0,56,85,0
0,62,84,0
0,65,84,0
0,40,60,0
0,42,77,0
0,40,63,12
0,42,90,0
0,39,116,0
0,82,77,0
0,36,123,0
0,42,96,0
0,51,104,0
0,65,97,0
0,58,89,0
0,62,89,0
0,65,88,0
0,27,60,0
0,42,75,0
0,42,82,12
0,39,119,30
0,67,96,0
0,36,122,0
0,40,90,0
0,42,97,0
0,58,88,32
0,62,89,0
0,65,88,0
0,51,107,0
0,70,97,0
0,42,75,0
0,38,90,12
0,42,86,0
0,39,114,0
0,58,87,0
0,63,87,0
0,67,86,0
0,36,123,0
0,42,97,0
0,40,56,54
0,51,115,0
0,42,74,0
0,38,93,12
0,42,84,0
0,58,85,4
0,63,84,0
0,67,84,0
0,43,116,30
0,36,123,0
0,40,93,0
0,42,97,0
0,51,110,0
0,58,87,0
0,63,87,0
0,67,86,0
0,42,77,0
0,38,93,12
0,42,90,0
0,36,116,0
0,36,122,0
0,42,96,0
0,48,105,0
0,58,88,0
0,62,89,0
0,65,87,0
0,27,67,0
0,42,75,0
0,42,83,12
0,36,119,30
0,36,123,0
0,40,91,0
0,42,96,0
0,58,88,32
0,62,88,0
0,65,89,0
0,48,92,0
0,42,74,0
0,42,87,54
0,36,117,0
0,55,86,0
0,63,87,0
0,67,89,0
0,36,122,0
0,42,96,0
0,40,56,54
0,48,104,0
0,42,75,0
0,42,85,12
0,55,84,4
0,63,85,0
0,67,84,0
0,36,118,30
0,36,122,0
0,40,92,0
0,42,96,0
0,48,107,0
0,55,86,0
0,63,87,0
0,67,85,0
0,40,61,0
0,42,77,0
0,28,93,12
0,40,63,0
0,42,90,0
0,29,116,0
0,36,123,0
0,42,96,0
0,41,104,0
0,68,97,0
0,58,88,0
0,63,86,0
0,67,89,0
0,27,40,0
0,42,75,0
0,42,83,12
0,29,119,30
0,63,96,0
0,36,123,0
0,40,90,0
0,42,96,0
0,58,89,32
0,63,88,0
0,67,88,0
0,41,93,0
0,56,97,0
0,42,74,0
0,42,87,54
0,29,116,0
0,60,87,0
0,63,88,0
0,68,87,0
0,36,122,0
0,42,97,0
0,58,81,0
0,40,56,54
0,41,104,0
0,42,74,0
0,63,98,0
0,42,84,12
0,60,85,4
0,63,84,0
0,68,85,0
0,29,119,30
0,36,122,0
0,40,93,0
0,42,97,0
0,72,97,0
0,41,106,0
0,60,86,0
0,63,84,0
0,68,87,0
0,42,76,0
0,70,115,0
0,33,93,12
0,42,91,0
0,58,62,4
0,63,76,14
0,34,117,0
0,65,97,0
0,36,123,0
0,42,97,0
0,68,55,0
0,72,56,0
0,75,59,0
0,79,55,0
0,82,54,0
0,46,104,0
0,56,87,0
0,63,86,0
0,67,86,0
0,27,40,0
0,42,74,0
0,42,83,12
0,34,119,30
0,36,123,0
0,40,90,0
0,42,96,0
0,56,89,16
0,63,89,0
0,67,88,0
0,46,92,0
0,42,74,0
0,42,87,12
0,56,88,0
0,62,89,0
0,65,88,0
0,84,77,0
0,36,122,0
0,42,97,0
0,40,57,54
0,42,74,30
0,72,100,0
0,41,92,10
0,42,84,2
0,56,85,4
0,62,85,0
0,65,84,0
0,34,119,30
0,36,122,0
0,40,93,0
0,42,97,0
0,65,103,0
0,56,85,0
0,62,84,0
0,65,84,0
0,40,92,0
0,42,77,0
0,63,96,0
0,40,93,16
0,42,90,0
0,63,104,0
0,39,105,0
0,82,76,0
0,36,123,0
0,49,96,0
0,70,51,0
0,74,50,0
0,77,50,0
0,27,69,0
0,42,74,0
0,42,83,12
0,67,105,30
0,36,122,0
0,40,90,0
0,42,96,0
0,34,80,16
0,70,104,0
0,42,75,0
0,70,53,0
0,75,53,0
0,79,52,0
0,42,87,12
0,39,108,16
0,70,105,0
0,36,123,0
0,42,96,0
0,40,56,12
0,67,105,16
0,42,75,0
0,39,81,12
0,42,84,0
0,41,105,8
0,70,104,0
0,36,123,0
0,40,93,0
0,42,96,0
0,43,88,16
0,67,105,0
0,42,77,0
0,42,91,12
0,36,104,0
0,74,104,0
0,36,122,0
0,42,96,0
0,70,54,0
0,74,55,0
0,77,55,0
0,75,104,16
0,27,67,0
0,42,74,0
0,42,83,12
0,36,123,0
0,40,91,0
0,42,97,0
0,31,79,48
0,42,74,0
0,42,86,12
0,36,102,26
0,36,122,0
0,42,97,0
0,40,56,12
0,72,105,30
0,42,74,0
0,42,85,12
0,31,109,16
0,74,105,0
0,36,122,0
0,40,92,0
0,42,97,0
0,75,104,0
0,40,61,0
0,42,76,0
0,40,63,12
0,42,91,0
0,32,107,16
0,36,123,0
0,42,96,0
0,70,52,0
0,75,52,0
0,79,53,0
0,77,104,16
0,27,60,0
0,42,74,0
0,42,83,18
0,44,94,16
0,75,105,0
0,36,123,0
0,40,90,0
0,42,97,0
0,44,85,12
0,39,98,16
0,74,105,0
0,42,74,0
0,42,86,18
0,32,102,16
0,70,104,0
0,36,122,0
0,42,97,0
0,40,56,18
0,67,104,16
0,42,75,0
0,42,84,18
0,72,105,16
0,36,122,0
0,40,93,0
0,42,96,0
0,32,95,16
0,70,104,0
0,42,77,0
0,33,97,18
0,42,90,0
0,34,108,0
0,36,123,0
0,42,97,0
0,70,52,0
0,75,53,0
0,79,53,0
0,27,66,90
0,42,75,0
0,42,82,54
0,36,123,0
0,40,90,0
0,42,97,0
0,41,74,54
0,46,83,4
0,42,74,0
0,70,50,0
0,74,51,0
0,77,50,0
0,42,86,54
0,34,107,14
0,36,122,0
0,42,97,0
0,40,57,54
0,42,75,30
0,42,84,54
0,46,84,30
0,36,122,0
0,40,93,0
0,42,96,0
0,34,98,2
0,40,60,0
0,42,77,0
0,36,101,2
0,40,63,0
0,42,91,0
0,39,104,4
0,36,123,0
0,42,96,0
0,70,50,0
0,74,51,0
0,77,51,0
0,65,67,2
0,70,66,0
0,62,79,0
0,27,61,90
0,42,74,0
0,42,83,54
0,67,105,30
0,36,122,0
0,40,90,0
0,42,96,0
0,34,81,14
0,70,105,0
0,42,75,0
0,70,52,0
0,75,52,0
0,79,53,0
0,70,79,0
0,63,78,2
0,67,79,0
0,42,87,18
0,39,109,16
0,70,104,0
0,36,123,0
0,42,96,0
0,40,56,18
0,67,105,16
0,42,75,0
0,39,80,18
0,42,84,0
0,34,105,8
0,70,104,0
0,36,123,0
0,40,93,0
0,42,96,0
0,35,88,16
0,67,104,0
0,42,77,0
0,77,84,2
0,42,91,10
0,74,82,8
0,36,104,16
0,77,105,0
0,36,122,0
0,42,96,0
0,70,81,0
0,70,55,0
0,74,54,0
0,77,54,0
0,79,105,16
0,27,67,0
0,42,74,0
0,42,83,18
0,36,123,0
0,40,91,0
0,42,97,0
0,36,81,58
0,31,97,4
0,42,74,0
0,42,86,54
0,36,102,26
0,36,122,0
0,42,97,0
0,40,56,54
0,75,104,30
0,42,74,0
0,42,85,18
0,31,108,16
0,77,104,0
0,36,122,0
0,40,92,0
0,42,97,0
0,79,105,16
0,40,61,0
0,42,76,0
0,40,63,18
0,42,91,0
0,32,107,16
0,36,123,0
0,42,96,0
0,70,53,0
0,75,52,0
0,79,53,0
0,80,105,16
0,27,60,0
0,42,74,0
0,42,83,18
0,44,95,16
0,79,104,0
0,36,123,0
0,40,90,0
0,42,97,0
0,44,84,12
0,39,98,16
0,80,104,0
0,42,74,0
0,42,86,18
0,44,93,0
0,79,105,0
0,36,122,0
0,42,97,0
0,40,56,18
0,77,104,16
0,42,75,0
0,42,84,18
0,75,105,16
0,36,122,0
0,40,93,0
0,42,96,0
0,32,94,16
0,77,105,0
0,42,77,0
0,33,97,18
0,42,90,0
0,34,109,0
0,36,123,0
0,42,97,0
0,70,53,0
0,75,52,0
0,79,53,0
0,27,66,88
0,42,75,0
0,42,82,54
0,36,123,0
0,40,90,0
0,42,97,0
0,41,74,54
0,46,83,4
0,42,74,0
0,70,50,0
0,74,50,0
0,77,51,0
0,70,104,42
0,42,86,12
0,41,74,0
0,34,106,0
0,75,105,0
0,36,122,0
0,42,97,0
0,40,57,18
0,77,104,10
0,42,75,0
0,42,84,18
0,36,103,0
0,79,104,0
0,36,122,0
0,40,93,0
0,42,96,0
0,79,105,14
0,40,60,0
0,42,77,0
0,34,101,18
0,40,63,0
0,42,91,0
0,39,104,4
0,36,123,0
0,49,97,0
0,70,51,0
0,74,50,0
0,77,50,0
0,65,67,2
0,70,66,0
0,62,78,2
0,65,85,6
0,27,69,0
0,42,74,0
0,42,82,54
0,63,80,30
0,36,122,0
0,40,90,0
0,42,97,0
0,34,80,14
0,70,80,0
0,42,74,0
0,70,53,0
0,75,53,0
0,79,52,0
0,70,79,0
0,63,79,2
0,67,78,0
0,42,87,52
0,39,109,30
0,36,123,0
0,42,97,0
0,40,56,54
0,75,105,30
0,42,74,0
0,39,81,18
0,42,85,0
0,41,104,8
0,77,104,0
0,36,123,0
0,40,93,0
0,42,96,0
0,43,88,0
0,79,104,0
0,42,76,0
0,42,91,12
0,36,105,16
0,36,122,0
0,42,97,0
0,70,54,0
0,74,55,0
0,77,54,0
0,62,78,0
0,65,67,2
0,70,66,2
0,80,105,16
0,27,66,0
0,42,74,0
0,42,82,18
0,79,105,16
0,36,123,0
0,40,91,0
0,42,97,0
0,31,78,16
0,80,104,0
0,42,75,0
0,42,86,18
0,36,103,16
0,79,104,0
0,36,122,0
0,42,96,0
0,40,56,18
0,77,105,16
0,42,75,0
0,42,84,18
0,31,109,16
0,75,104,0
0,36,122,0
0,40,92,0
0,42,97,0
0,40,61,54
0,42,77,0
0,40,63,0
0,42,90,0
0,32,106,16
0,36,123,0
0,42,97,0
0,70,53,0
0,75,53,0
0,79,52,0
0,65,85,90
0,27,61,0
0,42,74,0
0,42,82,54
0,44,95,0
0,63,81,0
0,36,123,0
0,40,90,0
0,42,97,0
0,44,84,12
0,39,98,36
0,58,80,0
0,42,75,0
0,42,86,54
0,32,103,30
0,36,122,0
0,42,96,0
0,70,89,0
0,40,56,54
0,65,89,28
0,75,105,2
0,42,75,0
0,42,85,18
0,77,105,16
0,36,122,0
0,40,93,0
0,42,96,0
0,63,84,4
0,32,95,0
0,79,104,0
0,42,76,0
0,33,96,18
0,42,91,0
0,34,108,0
0,36,123,0
0,42,96,0
0,68,73,0
0,63,72,0
0,72,72,0
0,70,53,0
0,75,52,0
0,79,52,0
0,80,105,16
0,27,67,0
0,42,75,0
0,42,83,18
0,79,104,0
0,36,123,0
0,40,90,0
0,42,96,0
0,41,75,4
0,46,83,4
0,77,104,0
0,42,75,0
0,70,51,0
0,74,51,0
0,77,50,0
0,65,69,2
0,70,69,0
0,62,70,2
0,42,86,18
0,34,106,14
0,75,105,0
0,36,122,0
0,42,96,0
0,67,61,0
0,40,57,18
0,82,105,16
0,42,75,0
0,42,85,18
0,46,84,0
0,82,104,0
0,36,122,0
0,40,93,0
0,42,96,0
0,68,71,0
0,34,99,2
0,40,60,0
0,42,76,0
0,36,100,2
0,40,63,0
0,42,91,0
0,39,105,0
0,36,123,0
0,42,97,0
0,70,120,0
0,70,50,0
0,74,51,0
0,77,51,0
0,65,66,2
0,70,67,0
0,62,79,2
0,79,104,0
0,27,60,0
0,42,74,0
0,42,82,12
0,36,122,0
0,40,90,0
0,42,97,0
0,39,81,12
0,34,80,8
0,42,74,0
0,70,52,0
0,75,52,0
0,79,53,0
0,70,78,0
0,63,78,2
0,67,79,0
0,42,87,12
0,39,109,24
0,36,123,0
0,42,97,0
0,40,56,12
0,79,105,24
0,42,74,0
0,42,85,12
0,36,104,0
0,80,105,0
0,36,123,0
0,40,93,0
0,42,96,0
0,67,72,0
0,82,104,0
0,42,76,0
0,65,97,0
0,70,97,0
0,42,91,12
0,37,104,16
0,36,122,0
0,42,97,0
0,70,54,0
0,75,55,0
0,79,55,0
0,63,80,2
0,67,81,2
0,70,85,2
0,80,104,16
0,27,67,0
0,42,74,0
0,42,82,12
0,79,105,16
0,36,123,0
0,40,91,0
0,42,97,0
0,49,65,16
0,44,87,4
0,79,104,0
0,42,75,0
0,42,86,12
0,37,102,24
0,36,122,0
0,42,96,0
0,40,56,12
0,77,105,16
0,42,75,0
0,42,84,18
0,75,105,0
0,36,122,0
0,40,92,0
0,42,97,0
0,40,61,54
0,42,77,0
0,40,63,54
0,42,90,0
0,44,108,0
0,79,104,0
0,67,91,0
