track,note,velocity,time
1,35,100,6528
1,35,90,16
1,35,100,24
1,31,100,288
1,31,80,96
1,31,100,72
1,26,100,392
1,26,90,16
1,26,100,24
1,38,100,6
1,38,96,16
1,38,100,16
1,38,96,8
1,38,100,16
1,38,100,8
1,35,100,84
1,35,90,16
1,35,100,32
1,31,100,272
1,31,80,96
1,31,100,72
1,26,100,368
1,26,90,16
1,26,100,16
1,38,100,2
1,38,70,80
1,38,100,72
1,38,100,192
1,33,100,0
1,35,100,0
1,35,90,16
1,35,100,24
1,35,100,288
1,35,80,104
1,35,100,64
1,31,100,368
1,31,90,16
1,31,100,24
1,28,100,264
1,28,80,104
1,28,100,64
1,40,96,8
1,38,98,164
1,35,100,8
1,35,90,8
1,35,100,32
1,35,100,264
1,35,80,112
1,35,100,64
1,31,100,384
1,31,90,8
1,31,100,24
1,28,100,288
1,28,80,104
1,28,100,64
1,40,96,12
1,38,98,0
1,35,100,8
1,35,90,8
1,35,100,24
1,35,100,264
1,35,80,112
1,35,100,64
1,31,100,360
1,31,90,8
1,31,100,24
1,30,100,6
1,42,96,0
1,42,98,224
1,31,100,24
1,31,90,16
1,31,100,16
1,30,100,6
1,31,100,0
1,35,100,96
1,38,100,0
1,40,98,0
1,43,96,0
1,35,100,102
1,35,90,16
1,35,100,24
1,31,100,312
1,31,80,104
1,31,100,80
1,38,96,360
1,38,96,48
1,33,100,288
1,33,80,104
1,33,100,64
1,45,94,8
1,35,100,96
1,35,90,8
1,35,100,24
1,31,100,312
1,31,80,96
1,31,100,72
1,26,100,384
1,26,100,48
1,33,100,288
1,33,80,104
1,33,100,72
1,35,100,8
1,38,98,0
1,40,96,0
1,40,96,24
1,42,94,336
1,42,74,112
1,42,94,72
1,42,94,48
1,31,100,86
1,31,100,32
1,31,100,296
1,31,80,104
1,31,100,56
1,30,100,48
1,28,100,16
1,28,100,48
1,30,100,320
1,30,80,112
1,30,100,72
1,31,100,360
1,31,100,32
1,30,100,10
1,31,100,0
1,35,100,96
1,38,94,88
1,40,96,0
1,43,94,0
1,35,100,68
1,35,90,16
1,35,100,24
1,35,100,288
1,35,80,104
1,35,100,64
1,31,100,368
1,31,90,16
1,31,100,16
1,28,100,264
1,28,80,104
1,28,100,64
1,40,96,8
1,38,98,164
1,35,100,8
1,35,90,8
1,35,100,16
1,35,100,264
1,35,80,112
1,35,100,64
1,31,100,384
1,31,90,8
1,31,100,16
1,28,100,288
1,28,80,104
1,30,100,10
1,31,100,0
1,38,96,0
1,35,100,8
1,35,90,8
1,35,100,24
1,35,100,280
1,35,80,112
1,35,100,64
1,31,100,360
1,31,90,8
1,31,100,24
1,30,100,264
1,30,80,104
1,30,100,72
1,42,96,8
1,37,98,0
1,38,98,0
1,31,100,0
1,31,90,16
1,31,100,16
1,33,100,8
1,35,100,0
1,38,100,96
1,40,100,88
1,43,100,88
1,45,98,0
1,47,96,0
1,50,94,0
1,35,100,106
1,35,90,16
1,35,100,16
1,31,100,312
1,31,80,104
1,31,100,80
1,38,96,360
1,38,96,48
1,33,100,288
1,33,80,104
1,33,100,64
1,45,94,8
1,40,98,0
1,33,100,32
1,35,100,24
1,35,90,8
1,35,100,16
1,31,100,312
1,31,80,96
1,31,100,72
1,26,100,384
1,26,100,48
1,33,100,288
1,33,80,104
1,33,100,72
1,35,100,8
1,38,98,0
1,40,96,0
1,40,90,16
1,40,96,16
1,42,94,336
1,42,74,104
1,42,94,72
1,30,100,264
1,31,100,16
1,31,100,32
1,31,100,296
1,31,80,104
1,31,100,56
1,30,100,48
1,28,100,16
1,28,90,8
1,28,100,24
1,30,100,320
1,30,80,112
1,30,100,72
1,37,82,2
1,42,96,8
1,28,100,86
1,28,88,16
1,28,100,16
1,30,100,288
1,30,88,104
1,30,100,64
1,31,100,336
1,31,100,48
1,31,88,64
1,28,100,56
1,30,100,0
1,30,88,96
1,30,100,56
1,30,100,240
1,28,100,48
1,28,100,56
1,30,100,112
1,31,100,24
1,31,100,24
1,33,96,4
1,35,94,0
1,38,96,0
1,31,100,0
1,33,100,0
1,35,100,0
1,38,98,0
1,40,96,0
1,43,94,0
1,35,100,68
1,30,100,128
1,33,100,96
1,35,100,48
1,28,100,26
1,35,100,408
1,35,90,16
1,35,100,24
1,35,90,24
1,35,100,288
1,35,80,104
1,35,100,64
1,31,100,384
1,31,90,16
1,31,100,16
1,28,100,264
1,28,80,104
1,28,100,64
1,40,96,8
1,38,98,164
1,35,100,8
1,35,90,8
1,35,100,16
1,35,90,16
1,35,100,288
1,35,80,112
1,35,100,64
1,30,100,288
1,31,100,16
1,31,90,8
1,31,100,16
1,28,100,288
1,28,80,104
1,30,100,10
1,31,100,0
1,35,100,32
1,35,90,16
1,35,100,24
1,35,90,24
1,35,100,288
1,35,80,104
1,35,100,64
1,31,100,384
1,31,90,16
1,31,100,16
1,28,100,264
1,28,80,104
1,28,100,64
1,40,96,8
1,38,98,164
1,35,100,8
1,35,90,16
1,35,100,24
1,35,90,24
1,35,100,288
1,35,80,104
1,35,100,64
1,31,100,384
1,31,90,16
1,31,100,16
1,43,96,10
1,40,98,2
1,35,100,18
1,36,100,96
1,37,100,0
1,35,100,0
1,37,100,0
1,37,90,24
1,37,100,24
1,33,100,312
1,33,80,96
1,33,100,72
1,28,80,264
1,28,96,72
1,28,96,48
1,35,100,288
1,35,80,96
1,35,100,72
1,37,98,4
1,40,96,0
1,42,94,96
1,44,94,0
1,37,100,0
1,37,90,8
1,37,100,24
1,33,100,312
1,33,80,96
1,33,100,72
1,28,100,384
1,28,100,48
1,32,100,0
1,35,100,130
1,35,90,28
1,35,100,34
1,37,100,32
1,40,100,0
1,42,100,0
1,40,100,0
1,30,100,8
1,30,90,24
1,30,100,24
1,32,100,312
1,32,80,112
1,32,100,72
1,33,100,432
1,33,100,32
1,33,100,288
1,33,80,96
1,33,100,48
1,32,100,128
1,30,100,24
1,30,100,48
1,32,100,312
1,32,80,120
1,32,100,72
1,33,100,360
1,33,100,24
1,35,100,12
1,37,96,8
1,40,98,0
1,42,96,8
1,45,94,8
1,42,96,56
1,45,94,8
1,47,94,0
1,35,90,24
1,37,100,32
1,37,90,16
1,37,100,24
1,37,94,16
1,37,100,280
1,37,80,104
1,37,100,64
1,33,100,368
1,33,90,16
1,33,100,16
1,30,100,264
1,30,80,104
1,30,100,64
1,42,96,8
1,40,98,164
1,37,100,8
1,37,90,8
1,37,100,16
1,37,96,16
1,37,100,280
1,37,80,112
1,37,100,64
1,33,100,384
1,33,90,8
1,33,100,16
1,30,100,288
1,30,80,104
1,32,100,10
1,33,100,0
1,37,100,24
1,37,90,16
1,37,100,24
1,37,100,8
1,37,100,272
1,37,80,104
1,37,100,64
1,30,100,176
1,32,98,8
1,33,100,8
1,33,90,24
1,33,100,16
1,35,100,8
1,37,100,56
1,40,98,0
1,42,96,0
1,30,100,2
1,30,100,24
1,39,100,48
1,35,100,24
1,37,100,0
1,37,90,16
1,37,100,24
1,37,96,8
1,37,100,272
1,37,80,104
1,25,100,64
1,30,100,32
1,32,98,8
1,33,100,8
1,33,90,16
1,33,100,16
1,33,80,168
1,30,100,64
1,30,80,104
1,30,100,64
1,42,96,8
1,40,98,164
1,37,100,8
1,37,90,8
1,37,100,16
1,37,96,8
1,37,100,272
1,37,80,112
1,37,100,64
1,33,100,256
1,33,90,8
1,33,100,16
1,30,100,288
1,30,80,104
1,32,100,10
1,33,100,0
1,35,96,0
1,37,100,8
1,37,90,16
1,37,100,24
1,37,90,24
1,37,100,288
1,37,80,104
1,37,100,64
1,37,100,192
1,33,100,0
1,33,90,16
1,33,100,16
1,30,100,264
1,30,80,104
1,30,100,64
1,42,96,8
1,40,98,164
1,37,100,8
1,37,90,8
1,37,100,16
1,37,90,16
1,37,100,288
1,37,80,112
1,37,100,64
1,32,100,288
1,33,100,16
1,33,90,8
1,33,100,16
1,30,100,288
1,30,80,104
1,30,100,64
1,35,100,8
1,37,98,0
1,40,96,0
1,42,94,0
1,37,100,0
1,37,90,16
1,37,100,24
1,37,90,24
1,37,100,288
1,37,80,104
1,37,100,64
1,37,100,48
1,33,100,0
1,33,90,8
1,33,100,16
1,33,98,8
1,33,100,8
1,33,98,8
1,33,102,16
1,33,102,8
1,30,100,8
1,30,90,8
1,30,100,16
1,35,100,8
1,37,98,0
1,40,96,0
1,37,100,0
1,32,100,128
1,35,100,96
1,37,100,48
1,30,100,26
1,61,80,6
1,59,80,0
1,56,82,8
1,54,84,16
1,52,82,0
1,49,84,0
1,52,80,16
1,37,100,10
1,37,90,16
1,37,100,24
1,37,94,16
1,37,100,280
1,37,80,104
1,37,100,64
1,33,100,368
1,33,90,16
1,33,100,16
1,30,100,264
1,30,80,104
1,30,100,64
1,42,96,8
1,40,98,164
1,37,100,8
1,37,90,8
1,37,100,16
1,37,96,16
1,37,100,280
1,37,80,112
1,37,100,64
1,33,100,384
1,33,90,8
1,33,100,16
1,30,100,288
1,30,80,104
1,32,100,10
1,33,100,0
1,37,100,24
1,37,90,16
1,37,100,24
1,37,90,24
1,37,100,288
1,37,80,104
1,37,100,64
1,37,100,192
1,33,100,0
1,33,90,16
1,33,100,16
1,30,100,264
1,30,80,104
1,30,100,64
1,42,96,8
1,40,98,164
1,37,100,8
1,37,90,8
1,37,100,16
1,37,90,16
1,37,100,288
1,37,80,112
1,37,100,64
1,32,100,288
1,33,100,16
1,33,90,8
1,33,100,16
1,30,100,288
1,30,80,104
1,30,100,64
1,39,100,8
1,40,98,0
1,39,96,0
1,34,94,0
1,37,100,0
1,37,90,16
1,37,100,24
1,37,96,8
1,37,100,272
1,37,80,104
1,25,100,64
1,30,100,32
1,32,98,8
1,33,100,8
1,33,90,16
1,33,100,16
1,33,80,168
1,30,100,64
1,30,80,104
1,30,100,64
1,42,96,8
1,40,98,164
1,37,100,8
1,37,90,8
1,37,100,16
1,37,96,8
1,37,100,272
1,37,80,112
1,37,100,64
1,33,100,256
1,33,90,8
1,33,100,16
1,30,100,288
1,30,80,104
1,32,100,10
1,33,100,0
1,35,96,0
1,37,100,8
1,37,90,16
1,37,100,24
1,37,90,24
1,37,100,288
1,37,80,104
1,37,100,64
1,37,100,192
1,33,100,0
1,33,90,16
1,33,100,16
1,30,100,264
1,30,80,104
1,30,100,64
1,42,96,8
1,40,98,164
1,37,100,0
1,32,100,128
1,35,100,96
1,37,100,48
1,30,100,26
2,54,37,1896
2,59,50,30
2,62,52,32
2,52,24,208
2,55,54,10
2,59,48,18
2,62,47,20
2,47,82,1700
2,47,81,48
2,50,71,0
2,54,73,4
2,59,76,6
2,55,76,48
2,43,78,0
2,43,82,76
2,55,76,38
2,47,71,0
2,50,86,4
2,45,61,84
2,54,59,4
2,38,90,32
2,38,92,94
2,50,88,32
2,45,74,2
2,54,83,0
2,45,46,52
2,38,88,36
2,55,81,4
2,45,84,2
2,45,72,70
2,50,74,24
2,55,84,4
2,38,88,0
2,45,67,68
2,55,75,26
2,45,88,6
2,50,72,0
2,54,68,100
2,47,82,4
2,47,81,64
2,50,71,0
2,54,73,4
2,59,76,6
2,55,76,48
2,43,78,0
2,43,82,76
2,55,76,38
2,47,71,0
2,50,86,4
2,45,61,84
2,54,59,4
2,38,90,32
2,38,92,94
2,50,88,32
2,45,74,2
2,54,83,0
2,45,46,52
2,38,88,36
2,55,81,4
2,45,84,2
2,45,72,70
2,50,74,24
2,55,84,4
2,38,88,0
2,45,67,68
2,55,75,26
2,45,88,6
2,50,72,0
2,54,68,100
2,47,86,2
2,47,86,102
2,54,58,0
2,50,56,0
2,59,58,4
2,47,90,54
2,47,86,206
2,50,56,182
2,54,51,0
2,59,50,6
2,43,84,12
2,43,84,126
2,50,56,180
2,55,57,4
2,59,40,0
2,40,92,26
2,40,82,184
2,52,58,6
2,59,57,2
2,55,61,4
2,42,73,26
2,47,75,10
2,47,84,130
2,50,62,6
2,54,54,0
2,59,54,0
2,47,84,60
2,47,81,240
2,50,62,0
2,54,50,8
2,59,49,6
2,43,78,4
2,43,81,134
2,50,57,8
2,59,54,6
2,55,67,0
2,40,82,0
2,40,92,206
2,52,57,2
2,55,64,4
2,59,52,0
2,42,66,12
2,47,76,6
2,47,75,126
2,50,52,4
2,54,52,0
2,59,57,6
2,47,81,38
2,47,86,228
2,50,52,6
2,54,54,2
2,59,54,2
2,43,78,0
2,43,79,138
2,50,57,4
2,55,57,4
2,59,58,0
2,42,91,268
2,42,97,232
2,49,52,8
2,54,62,14
2,57,53,10
2,43,90,2
2,50,72,6
2,55,67,0
2,59,67,2
2,50,57,54
2,55,78,8
2,59,64,6
2,43,69,2
2,43,68,10
2,59,54,2
2,50,64,0
2,55,62,2
2,50,67,30
2,59,64,0
2,55,81,2
2,43,90,12
2,47,71,36
2,47,78,150
2,50,54,4
2,54,63,4
2,59,64,0
2,55,57,0
2,43,70,20
2,43,81,118
2,50,65,4
2,55,78,0
2,59,67,4
2,54,45,262
2,57,49,2
2,38,86,8
2,38,79,104
2,50,48,64
2,57,78,14
2,54,81,0
2,52,54,90
2,45,78,0
2,49,52,2
2,45,79,160
2,49,68,76
2,52,76,4
2,57,64,0
2,54,24,44
2,50,63,4
2,47,36,4
2,47,71,6
2,47,79,8
2,50,59,8
2,54,75,6
2,59,79,4
2,43,78,238
2,55,64,2
2,43,78,156
2,50,60,0
2,59,64,0
2,55,59,6
2,54,45,258
2,57,47,12
2,38,72,58
2,38,90,98
2,50,52,84
2,54,75,6
2,57,71,2
2,45,79,72
2,52,62,8
2,49,48,8
2,45,79,172
2,49,68,54
2,57,75,10
2,52,74,2
2,50,58,6
2,55,67,0
2,59,63,0
2,40,81,0
2,57,54,2
2,54,51,0
2,42,94,0
2,50,65,4
2,50,61,4
2,43,71,4
2,55,64,0
2,59,64,0
2,50,67,0
2,40,81,12
2,55,70,4
2,59,63,4
2,42,83,6
2,54,59,2
2,50,72,2
2,57,64,2
2,43,76,6
2,50,69,4
2,55,68,2
2,59,50,4
2,50,59,10
2,55,84,4
2,59,71,4
2,55,70,6
2,50,48,4
2,50,62,8
2,55,92,8
2,59,60,2
2,43,52,4
2,47,86,10
2,47,86,102
2,54,58,0
2,50,56,0
2,59,58,4
2,47,90,54
2,47,86,206
2,50,56,182
2,54,51,0
2,59,50,6
2,43,84,12
2,43,84,126
2,50,56,180
2,55,57,4
2,59,40,0
2,40,92,26
2,40,82,184
2,52,58,6
2,59,57,2
2,55,61,4
2,42,73,26
2,47,75,10
2,47,84,130
2,50,62,6
2,54,54,0
2,59,54,0
2,47,84,60
2,47,81,240
2,50,62,0
2,54,50,8
2,59,49,6
2,43,78,4
2,43,81,134
2,50,57,8
2,59,54,6
2,55,67,0
2,40,82,0
2,40,92,206
2,52,57,2
2,55,64,4
2,59,52,0
2,42,66,12
2,47,76,6
2,47,75,126
2,50,52,4
2,54,52,0
2,59,57,6
2,47,81,38
2,47,86,228
2,50,52,6
2,54,54,2
2,59,54,2
2,43,78,0
2,43,79,138
2,50,57,4
2,55,57,4
2,59,58,0
2,42,91,268
2,42,97,232
2,49,52,8
2,54,62,14
2,57,53,10
2,43,90,2
2,50,72,6
2,55,67,0
2,59,67,2
2,50,57,54
2,55,78,8
2,59,64,6
2,43,69,2
2,43,68,10
2,59,54,2
2,50,64,0
2,55,62,2
2,50,67,30
2,59,64,0
2,55,81,2
2,43,90,12
2,47,71,36
2,47,78,150
2,50,54,4
2,54,63,4
2,59,64,0
2,55,57,0
2,43,70,20
2,43,81,118
2,50,65,4
2,55,78,0
2,59,67,4
2,54,45,262
2,57,49,2
2,38,86,8
2,38,79,104
2,50,48,64
2,57,78,14
2,54,81,0
2,52,54,90
2,45,78,0
2,49,52,2
2,45,79,160
2,49,68,76
2,52,76,4
2,57,64,0
2,54,24,44
2,50,63,4
2,47,36,4
2,47,71,6
2,47,79,8
2,50,59,8
2,54,75,6
2,59,79,4
2,43,78,238
2,55,64,2
2,43,78,156
2,50,60,0
2,59,64,0
