track,note,velocity,time
0,35,95,2046
0,46,46,0
0,36,98,4
0,64,112,0
0,60,116,8
0,55,116,4
0,35,107,172
0,37,110,0
0,42,81,0
0,37,100,2
0,65,95,0
0,56,99,2
0,61,99,0
0,42,29,148
0,70,40,2
0,37,110,170
0,42,78,0
0,77,101,10
0,77,109,4
0,42,56,134
0,70,39,2
0,77,96,14
0,77,104,0
0,37,110,126
0,42,68,0
0,77,105,6
0,77,113,4
0,42,51,162
0,70,41,2
0,37,110,72
0,42,66,0
0,75,80,4
0,75,88,4
0,35,95,38
0,42,55,0
0,70,41,2
0,36,98,2
0,64,99,4
0,55,116,8
0,60,116,0
0,75,80,12
0,75,88,4
0,35,107,88
0,37,110,0
0,42,68,0
0,37,98,2
0,56,87,4
0,61,95,0
0,65,99,2
0,75,101,6
0,75,109,4
0,42,49,134
0,70,38,0
0,73,80,18
0,73,88,4
0,37,110,148
0,42,76,0
0,42,58,172
0,70,41,2
0,75,84,2
0,75,92,4
0,37,110,2
0,42,68,0
0,42,57,172
0,70,40,2
0,77,97,0
0,77,105,4
0,37,110,166
0,42,66,0
0,35,95,88
0,42,56,0
0,70,43,2
0,36,98,2
0,55,112,0
0,60,116,8
0,64,107,4
0,35,107,0
0,37,110,0
0,42,78,0
0,61,99,0
0,37,98,2
0,56,89,0
0,65,91,8
0,42,51,146
0,70,40,2
0,80,96,154
0,80,104,4
0,37,110,12
0,42,80,0
0,80,87,148
0,80,95,4
0,42,56,2
0,70,42,2
0,37,110,148
0,42,76,0
0,80,101,6
0,80,109,4
0,42,57,2
0,77,70,0
0,70,42,0
0,77,78,2
0,37,110,50
0,42,82,0
0,78,74,0
0,78,82,4
0,35,95,80
0,46,52,0
0,70,40,2
0,36,98,2
0,55,107,4
0,60,107,8
0,64,112,2
0,56,98,168
0,35,107,2
0,37,110,0
0,42,80,0
0,70,46,0
0,37,98,2
0,80,96,0
0,61,112,4
0,80,104,0
0,65,106,2
0,65,93,150
0,73,93,0
0,77,99,18
0,65,87,80
0,73,87,0
0,77,93,18
0,65,92,84
0,73,92,0
0,38,94,18
0,77,98,0
0,38,52,28
0,38,71,28
0,38,44,28
0,63,90,2
0,72,90,0
0,38,74,2
0,75,96,0
0,38,45,28
0,38,88,4
0,63,91,58
0,72,91,0
0,43,94,18
0,75,97,0
0,61,89,58
0,70,89,0
0,43,89,18
0,73,95,0
0,41,98,4
0,58,82,12
0,61,82,0
0,66,82,0
0,63,93,18
0,72,105,0
0,35,107,18
0,42,80,0
0,49,74,0
0,75,99,0
0,54,53,0
0,42,98,2
0,73,99,4
0,78,108,0
0,82,108,0
0,54,26,76
0,61,87,2
0,70,99,0
0,42,51,0
0,73,93,0
0,54,39,0
0,70,60,0
0,58,99,4
0,61,105,0
0,66,108,0
0,73,42,0
0,78,72,0
0,82,82,0
0,54,52,6
0,58,83,2
0,61,83,0
0,66,85,0
0,38,99,74
0,42,80,0
0,54,61,2
0,42,98,2
0,58,89,2
0,61,103,0
0,66,89,0
0,54,33,50
0,61,85,56
0,70,97,0
0,42,56,18
0,73,91,0
0,54,30,2
0,70,55,0
0,58,99,6
0,61,101,0
0,66,110,0
0,73,66,0
0,78,86,0
0,82,90,0
0,54,44,18
0,35,107,74
0,42,80,0
0,54,62,2
0,42,98,2
0,54,37,76
0,42,58,40
0,54,47,2
0,70,59,0
0,58,97,6
0,61,103,0
0,66,97,0
0,73,66,0
0,78,86,0
0,82,95,0
0,54,30,34
0,58,85,2
0,61,81,0
0,66,86,0
0,38,99,74
0,42,80,0
0,54,63,2
0,58,93,2
0,61,103,0
0,66,99,0
0,54,29,76
0,42,60,74
0,54,44,2
0,70,54,0
0,58,105,6
0,61,108,0
0,66,108,0
0,73,86,0
0,78,90,0
0,82,103,0
0,34,88,0
0,54,42,0
0,36,92,2
0,56,82,2
0,61,82,0
0,65,82,0
0,35,107,4
0,42,82,0
0,54,63,0
0,37,98,2
0,73,66,4
0,77,82,0
0,80,67,0
0,54,33,24
0,42,55,74
0,54,47,2
0,70,54,0
0,56,95,6
0,61,95,0
0,65,95,0
0,73,86,0
0,77,86,0
0,80,95,0
0,54,48,4
0,56,80,2
0,61,80,0
0,65,76,0
0,65,93,56
0,73,105,0
0,38,99,18
0,42,80,0
0,77,99,0
0,54,62,2
0,37,98,2
0,56,97,2
0,61,101,0
0,65,103,0
0,54,45,8
0,65,93,56
0,73,105,0
0,42,58,18
0,77,99,0
0,54,52,2
0,70,56,0
0,56,105,6
0,61,103,0
0,65,110,0
0,73,61,0
0,77,52,0
0,80,69,0
0,54,42,2
0,65,94,56
0,73,106,0
0,35,107,18
0,42,79,0
0,77,100,0
0,54,63,2
0,37,98,2
0,54,30,76
0,63,86,2
0,72,98,0
0,42,53,2
0,75,92,0
0,54,45,2
0,70,61,0
0,56,95,6
0,61,89,0
0,65,95,0
0,73,65,0
0,77,82,0
0,80,90,0
0,54,48,12
0,56,89,2
0,61,86,0
0,65,86,0
0,63,91,38
0,72,103,0
0,38,99,18
0,42,79,0
0,75,97,0
0,54,63,2
0,56,105,2
0,61,105,0
0,65,103,0
0,54,36,76
0,61,87,12
0,70,99,0
0,42,55,12
0,73,93,0
0,54,37,2
0,70,61,0
0,56,103,6
0,61,103,0
0,65,103,0
0,73,60,0
0,77,72,0
0,80,78,0
0,40,96,0
0,54,35,0
0,41,89,2
0,58,82,4
0,61,82,0
0,66,82,0
0,63,94,8
0,72,106,0
0,35,107,8
0,42,80,0
0,75,100,0
0,54,63,0
0,42,98,2
0,73,90,4
0,78,99,0
0,82,99,0
0,54,44,76
0,61,87,2
0,70,101,0
0,42,58,0
0,73,93,0
0,54,36,2
0,70,59,0
0,58,99,6
0,61,105,0
0,66,108,0
0,78,86,0
0,82,74,0
0,54,47,2
0,58,83,2
0,61,83,0
0,66,85,0
0,38,99,6
0,42,79,0
0,54,58,2
0,42,98,2
0,58,89,2
0,61,103,0
0,66,89,0
0,54,35,76
0,61,87,56
0,70,99,0
0,42,53,18
0,73,93,0
0,54,48,2
0,70,59,0
0,58,99,6
0,61,101,0
0,66,110,0
0,73,65,0
0,78,63,0
0,82,72,0
0,54,33,0
0,35,107,74
0,42,82,0
0,54,61,2
0,42,98,2
0,54,29,24
0,42,58,74
0,54,48,2
0,70,58,0
0,58,97,6
0,61,103,0
0,66,97,0
0,73,72,0
0,78,69,0
0,82,72,0
0,54,51,76
0,58,85,2
0,61,81,0
0,66,86,0
0,38,99,44
0,42,81,0
0,54,62,2
0,58,93,2
0,61,103,0
0,66,99,0
0,54,54,76
0,46,61,54
0,54,51,2
0,70,58,0
0,58,105,6
0,61,108,0
0,66,108,0
0,73,67,0
0,78,69,0
0,82,82,0
0,34,89,0
0,54,35,0
0,36,86,2
0,56,82,4
0,61,82,0
0,65,82,0
0,35,107,36
0,42,80,0
0,54,55,0
0,37,98,2
0,54,30,76
0,42,60,74
0,54,40,2
0,70,62,0
0,56,95,6
0,61,95,0
0,65,95,0
0,73,78,0
0,77,82,0
0,80,69,0
0,54,40,6
0,56,80,2
0,61,80,0
0,65,76,0
0,65,91,56
0,73,88,0
0,38,99,18
0,42,82,0
0,77,97,0
0,54,62,2
0,37,98,2
0,56,97,2
0,61,101,0
0,65,103,0
0,54,30,76
0,68,87,2
0,73,98,0
0,42,57,2
0,80,93,0
0,54,55,2
0,70,61,0
0,56,105,6
0,61,103,0
0,65,110,0
0,73,52,0
0,77,65,0
0,80,69,0
0,54,42,0
0,68,89,56
0,73,103,0
0,35,107,18
0,42,81,0
0,80,95,0
0,54,61,2
0,37,98,2
0,54,42,76
0,65,87,2
0,73,99,0
0,42,56,2
0,77,93,0
0,54,52,2
0,70,59,0
0,56,95,6
0,61,89,0
0,65,95,0
0,73,74,0
0,77,63,0
0,80,70,0
0,54,33,76
0,56,89,2
0,61,86,0
0,65,86,0
0,63,85,2
0,73,97,0
0,38,99,2
0,42,81,0
0,75,91,0
0,54,61,2
0,56,105,2
0,61,105,0
0,65,103,0
0,54,29,76
0,61,87,8
0,72,99,0
0,42,57,8
0,73,93,0
0,54,34,2
0,70,59,0
0,56,103,6
0,61,103,0
0,65,103,0
0,77,82,0
0,80,60,0
0,40,93,0
0,54,33,0
0,41,89,2
0,58,82,4
0,61,82,0
0,66,82,0
0,63,92,6
0,72,104,0
0,35,107,18
0,42,81,0
0,75,98,0
0,54,62,0
0,42,98,2
0,73,82,4
0,78,86,0
0,82,90,0
0,54,32,76
0,61,88,2
0,70,100,0
0,42,53,2
0,73,94,0
0,54,42,2
0,70,60,0
0,58,99,6
0,61,105,0
0,66,108,0
0,78,82,0
0,82,74,0
0,54,35,6
0,58,83,2
0,61,83,0
0,66,85,0
0,38,99,2
0,42,81,0
0,54,63,2
0,42,98,2
0,58,89,2
0,61,103,0
0,66,89,0
0,54,30,76
0,61,90,56
0,70,102,0
0,42,60,18
0,73,96,0
0,54,45,2
0,70,58,0
0,58,99,6
0,61,101,0
0,66,110,0
0,73,70,0
0,78,69,0
0,82,72,0
0,54,29,16
0,35,107,74
0,42,80,0
0,54,62,2
0,42,98,2
0,54,24,36
0,46,59,74
0,77,99,0
0,54,40,2
0,70,61,0
0,58,97,6
0,61,103,0
0,66,97,0
0,73,66,0
0,78,72,0
0,82,69,0
0,54,37,14
0,58,85,2
0,61,81,0
0,66,86,0
0,38,99,64
0,42,82,0
0,75,96,0
0,54,63,2
0,58,93,2
0,61,103,0
0,66,99,0
0,54,29,76
0,46,59,12
0,70,96,0
0,54,42,2
0,70,61,0
0,58,105,6
0,61,108,0
0,66,108,0
0,73,82,0
0,78,78,0
0,82,90,0
0,34,93,0
0,54,47,0
0,36,88,2
0,56,82,4
0,61,82,0
0,65,82,0
0,61,89,18
0,68,101,0
0,35,107,16
0,42,81,0
0,73,95,0
0,54,57,0
0,37,98,2
0,49,94,2
0,77,65,2
0,80,53,0
0,54,29,28
0,42,60,74
0,54,57,2
0,70,61,0
0,49,80,4
0,56,95,2
0,61,95,0
0,65,95,0
0,73,78,0
0,77,72,0
0,80,70,0
0,54,38,76
0,49,82,0
0,56,80,2
0,61,80,0
0,65,76,0
0,38,99,74
0,42,80,0
0,54,47,2
0,37,98,0
0,49,100,0
0,56,97,2
0,61,101,0
0,65,103,0
0,54,38,8
0,35,95,62
0,42,78,0
0,54,51,2
0,70,56,0
0,49,98,4
0,56,105,2
0,61,103,0
0,65,110,0
0,73,52,0
0,77,55,0
0,80,55,0
0,54,33,2
0,49,93,0
0,35,107,74
0,42,80,0
0,54,55,2
0,37,98,0
0,49,97,2
0,54,29,20
0,42,57,74
0,54,36,2
0,70,57,0
0,56,95,6
0,61,89,0
0,65,95,0
0,73,70,0
0,77,82,0
0,80,70,0
0,54,45,76
0,56,89,2
0,61,86,0
0,65,86,0
0,61,93,2
0,70,105,0
0,73,99,18
0,38,99,6
0,42,79,0
0,54,62,2
0,56,105,2
0,61,105,0
0,65,103,0
0,54,30,76
0,35,95,32
0,42,80,0
0,54,47,2
0,70,63,0
0,56,103,6
0,61,103,0
0,65,103,0
0,73,74,0
0,77,61,0
0,80,70,0
0,29,93,0
0,58,79,2
0,68,91,0
0,70,85,2
0,54,35,0
0,30,86,2
0,56,82,4
0,60,82,0
0,63,82,0
0,35,107,36
0,42,79,0
0,54,62,0
0,32,98,2
0,44,101,2
0,72,70,2
0,75,71,0
0,80,74,0
0,54,31,28
0,42,55,38
0,54,39,2
0,70,63,0
0,60,99,6
0,63,105,0
0,68,108,0
0,72,80,0
0,75,74,0
0,80,77,0
0,63,93,44
0,72,105,0
0,75,99,18
0,54,42,14
0,60,83,2
0,63,83,0
0,68,85,0
0,38,99,74
0,42,80,0
0,54,62,2
0,32,98,2
0,60,89,2
0,63,103,0
0,68,89,0
0,54,29,76
0,48,98,0
0,35,95,6
0,42,78,0
0,54,45,2
0,70,58,0
0,44,98,2
0,44,95,2
0,60,99,2
0,63,101,0
0,68,110,0
0,72,75,0
0,75,75,0
0,80,73,0
0,54,33,0
0,44,98,0
0,44,82,0
0,35,107,36
0,42,79,0
0,54,62,2
0,32,98,0
0,48,91,2
0,54,45,32
0,42,60,74
0,54,51,2
0,70,60,0
0,60,97,6
0,63,103,0
0,68,97,0
0,72,80,0
0,75,77,0
0,80,78,0
0,65,94,42
0,73,106,0
0,77,100,18
0,54,37,16
0,60,85,2
0,63,81,0
0,68,86,0
0,38,99,64
0,42,80,0
0,54,62,2
0,60,93,2
0,63,103,0
0,68,99,0
0,54,38,76
0,46,63,20
0,54,48,2
0,70,59,0
0,32,97,2
0,60,105,4
0,63,108,0
0,68,108,0
0,72,80,0
0,75,77,0
0,80,82,0
0,65,88,20
0,73,100,0
0,77,94,18
0,54,32,32
0,32,86,2
0,54,82,4
0,58,82,0
0,61,82,0
0,35,107,20
0,42,80,0
0,54,62,2
0,30,98,2
0,70,77,4
0,73,67,0
0,78,78,0
0,54,47,38
0,42,58,28
0,54,45,2
0,70,60,0
0,49,96,4
0,58,99,2
0,61,105,0
0,66,108,0
0,70,80,0
0,73,73,0
0,78,82,0
0,63,89,30
0,72,101,0
0,75,95,18
0,54,37,28
0,58,83,2
0,61,83,0
0,66,85,0
0,38,99,4
0,42,82,0
0,54,61,2
0,30,98,2
0,54,93,0
0,58,89,2
0,61,103,0
0,66,89,0
0,54,35,38
0,54,92,0
0,61,89,2
0,70,101,0
0,73,95,2
0,35,95,10
0,42,76,0
0,54,48,2
0,70,61,0
0,54,88,0
0,58,99,2
0,61,101,0
0,66,110,0
0,70,73,0
0,73,66,0
0,78,73,0
0,54,32,26
0,49,98,0
0,35,107,10
0,42,79,0
0,54,61,2
0,30,98,2
0,54,95,2
0,54,27,24
0,42,61,0
0,54,24,2
0,70,59,0
0,54,85,4
0,58,97,2
0,61,103,0
0,66,97,0
0,70,78,0
0,73,74,0
0,78,77,0
0,54,39,76
0,58,85,2
0,61,81,0
0,66,86,0
0,38,99,6
0,42,80,0
0,54,63,2
0,49,97,0
0,58,93,2
0,61,103,0
0,66,99,0
0,54,33,76
0,38,89,26
0,42,62,0
0,54,32,2
0,70,59,0
0,54,84,2
0,58,105,2
0,61,108,0
0,66,108,0
0,70,74,0
0,73,70,0
0,78,78,0
0,38,79,42
0,54,33,14
0,38,66,8
0,56,82,4
0,60,82,0
0,63,82,0
0,35,107,28
0,42,82,0
0,43,96,0
0,54,63,2
0,70,62,0
0,32,100,2
0,56,89,2
0,60,112,2
0,63,118,0
0,68,112,0
0,72,60,0
0,75,78,0
0,80,90,0
0,77,97,156
0,75,93,104
0,73,97,118
0,38,90,188
0,75,91,8
0,38,75,36
0,38,68,44
0,38,96,8
0,73,96,160
0,43,91,12
0,34,94,2
0,36,91,2
0,56,82,56
0,61,82,0
0,65,82,0
0,35,107,36
0,42,79,0
0,57,69,0
0,54,62,0
0,37,98,2
0,49,109,2
0,73,66,2
0,77,82,0
0,80,67,0
0,54,40,24
0,42,44,74
0,54,45,2
0,70,60,0
0,56,95,6
0,61,95,0
0,65,95,0
0,73,86,0
0,77,86,0
0,80,95,0
0,54,45,4
0,56,80,2
0,61,80,0
0,65,76,0
0,38,99,74
0,42,81,0
0,77,93,0
0,54,63,2
0,37,98,2
0,77,101,0
0,56,97,2
0,61,101,0
0,65,103,0
0,54,48,8
0,35,95,74
0,42,74,0
0,54,52,2
0,70,57,0
0,49,97,4
0,56,105,2
0,61,103,0
0,65,110,0
0,73,61,0
0,77,52,0
0,80,69,0
0,77,102,0
0,77,110,2
0,54,53,0
0,49,76,0
0,35,107,74
0,42,80,0
0,54,63,2
0,37,98,0
0,49,90,2
0,77,111,6
0,77,119,4
0,54,51,0
0,42,53,74
0,54,51,2
0,70,58,0
0,56,95,6
0,61,89,0
0,65,95,0
0,73,65,0
0,77,82,0
0,80,90,0
0,54,51,0
0,56,89,2
0,61,86,0
0,65,86,0
0,75,76,30
0,75,84,4
0,38,99,2
0,42,79,0
0,54,63,2
0,56,105,2
