track,note,velocity,time
1,48,101,1152
1,45,85,128
1,45,80,96
1,48,88,128
1,45,71,64
1,45,90,120
1,48,90,112
1,45,90,0
1,43,90,32
1,41,90,128
1,41,76,96
1,41,85,80
1,41,72,80
1,41,83,80
1,41,90,144
1,50,74,64
1,50,69,128
1,50,71,96
1,45,64,192
1,47,71,0
1,50,69,16
1,50,74,112
1,50,75,112
1,45,72,192
1,47,76,160
1,50,70,0
1,50,76,80
1,50,73,112
1,50,81,112
1,45,59,192
1,47,57,0
1,47,68,0
1,50,72,16
1,50,75,144
1,50,81,112
1,45,67,192
1,47,69,144
1,50,59,4
1,50,63,96
1,50,63,112
1,50,74,96
1,45,69,192
1,47,70,152
1,50,72,160
1,50,72,128
1,50,75,116
1,45,70,192
1,47,65,144
1,50,57,144
1,50,81,112
1,50,64,128
1,50,78,116
1,45,65,192
1,47,69,144
1,50,62,144
1,50,78,96
1,50,63,112
1,50,66,112
1,45,65,192
1,47,67,144
1,50,58,0
1,50,75,100
1,50,61,112
1,50,73,112
1,45,69,192
1,47,69,152
1,50,64,0
1,50,74,108
1,50,68,128
1,50,80,80
1,42,79,192
1,43,88,36
1,44,86,188
1,45,97,8
1,45,90,120
1,40,88,0
1,40,88,128
1,45,90,192
1,45,97,112
1,40,83,384
1,42,84,160
1,45,74,4
1,47,93,0
1,47,76,128
1,42,86,192
1,42,76,112
1,47,81,16
1,47,78,96
1,42,84,384
1,45,81,176
1,47,80,8
1,50,75,48
1,50,73,112
1,50,72,96
1,45,73,192
1,47,72,160
1,50,68,0
1,50,73,72
1,50,74,96
1,50,78,96
1,45,73,192
1,47,72,144
1,50,75,144
1,50,80,116
1,50,80,80
1,45,70,192
1,47,74,160
1,50,63,144
1,50,81,100
1,50,64,100
1,50,75,92
1,45,75,192
1,47,76,168
1,45,74,4
1,50,80,192
1,50,74,112
1,50,78,96
1,45,62,192
1,47,71,132
1,45,62,16
1,50,78,196
1,50,80,120
1,50,88,124
1,45,72,0
1,47,68,192
1,50,69,8
1,50,78,116
1,50,88,116
1,45,73,188
1,47,69,128
1,50,66,144
1,50,78,68
1,50,62,80
1,50,75,84
1,45,73,188
1,47,65,144
1,45,64,148
1,50,81,180
1,50,70,112
1,50,85,116
1,45,69,188
1,47,65,148
1,50,62,0
1,50,69,52
1,50,72,96
1,50,90,100
1,45,68,188
1,47,73,176
1,50,76,16
1,50,73,128
1,50,83,108
1,45,65,188
1,47,71,176
1,45,59,0
1,50,78,8
1,50,72,100
1,50,81,124
1,42,80,188
1,43,72,16
1,44,79,0
1,45,93,0
1,45,93,128
1,40,88,4
1,40,93,144
1,45,97,20
1,45,93,84
1,40,90,384
1,42,89,176
1,45,88,152
1,47,93,0
1,47,93,100
1,42,80,0
1,42,97,144
1,47,80,20
1,47,85,80
1,45,88,384
1,47,78,184
1,45,76,144
1,50,76,52
1,50,74,112
1,50,70,56
1,45,65,188
1,47,72,176
1,50,70,16
1,50,83,100
1,50,67,84
1,50,75,72
1,45,72,188
1,47,76,144
1,50,73,0
1,50,59,112
1,50,85,84
1,45,64,188
1,47,76,128
1,50,69,0
1,50,76,40
1,50,63,80
1,50,75,92
1,45,73,192
1,47,75,120
1,45,71,160
1,48,90,32
1,48,93,0
1,45,58,128
1,45,83,128
1,48,88,96
1,45,63,116
1,45,88,112
1,48,88,96
1,45,97,16
1,43,93,144
1,41,85,132
1,41,71,104
1,41,74,88
1,41,81,112
1,41,93,112
1,41,93,192
1,50,88,96
1,50,85,128
1,45,78,4
1,47,69,188
1,50,69,16
1,50,81,96
1,45,78,384
1,47,73,160
1,45,69,0
1,50,76,192
1,50,88,112
1,45,72,384
1,47,73,160
1,50,78,24
1,50,76,128
1,50,76,88
1,45,71,192
1,47,73,168
1,50,70,16
1,50,76,48
1,50,81,112
1,45,76,384
1,47,76,176
1,50,69,0
1,50,88,96
1,45,81,388
1,47,68,136
1,50,88,104
1,50,90,96
1,45,75,384
1,47,78,168
1,50,65,160
1,50,75,80
1,50,90,96
1,45,75,384
1,47,74,184
1,50,75,48
1,50,85,120
1,45,71,384
1,47,74,160
1,45,60,0
1,50,78,192
1,50,78,104
1,50,75,64
1,42,89,0
1,43,78,0
1,44,84,0
1,45,111,0
1,45,90,112
1,40,85,192
1,40,85,136
1,45,85,192
1,45,93,112
1,40,88,0
1,42,86,192
1,45,83,32
1,47,90,0
1,47,78,128
1,42,86,192
1,42,79,144
1,47,83,16
1,47,81,80
1,42,77,0
1,45,71,196
1,47,75,152
1,50,78,8
1,50,90,104
1,45,85,0
1,47,76,192
1,50,68,0
1,50,90,112
1,45,72,384
1,47,75,184
1,50,75,0
1,50,88,96
1,45,83,384
1,47,75,184
1,45,72,0
1,50,76,192
1,50,80,104
1,45,88,384
1,47,78,160
1,45,69,0
1,48,90,16
1,45,80,128
1,45,93,112
1,48,85,112
1,45,88,96
1,45,83,104
1,48,90,128
1,45,101,16
1,43,97,144
1,41,83,136
1,41,73,80
1,41,83,96
1,41,88,96
1,41,101,96
1,41,101,128
1,50,81,128
1,50,90,160
1,45,75,384
1,47,76,144
1,50,72,144
1,50,81,144
1,45,47,192
1,47,78,64
1,50,90,160
1,47,71,176
1,50,83,164
1,50,78,160
1,50,80,80
1,45,67,192
1,47,78,160
1,50,73,0
1,50,80,128
1,45,85,0
1,47,76,192
1,45,56,144
1,50,83,44
1,50,71,144
1,50,90,116
1,45,70,188
1,47,70,144
1,50,72,4
1,50,88,96
1,45,80,384
1,47,64,176
1,50,85,8
1,50,69,120
1,50,78,68
1,45,67,188
1,47,71,144
1,50,85,0
1,50,81,96
1,50,71,160
1,50,83,56
1,50,75,64
1,45,78,384
1,47,76,160
1,45,60,176
1,50,83,172
1,50,71,116
1,50,78,92
1,42,84,188
1,43,80,16
1,44,84,192
1,45,93,164
1,45,93,116
1,40,76,8
1,40,88,112
1,45,81,196
1,45,85,88
1,40,90,0
1,42,86,192
1,45,76,16
1,47,83,4
1,47,76,128
1,42,84,0
1,42,80,128
1,47,78,20
1,47,83,112
1,42,79,384
1,45,74,176
1,47,73,152
1,50,80,20
1,50,76,112
1,45,83,0
1,47,74,192
1,50,71,0
1,50,85,112
1,45,83,384
1,47,73,184
1,50,67,0
1,50,85,84
1,50,78,112
1,50,78,80
1,45,72,192
1,47,74,176
1,50,75,4
1,50,88,96
1,45,85,384
1,47,80,176
1,50,88,36
1,50,85,96
1,45,73,384
1,47,71,176
1,50,67,16
1,50,78,80
1,50,80,96
1,45,80,384
1,47,71,160
1,50,70,0
1,50,81,68
1,50,80,80
1,45,78,384
1,47,75,160
1,45,68,144
1,50,76,0
1,50,85,84
1,45,85,384
1,47,75,144
1,45,60,0
1,50,85,192
1,50,88,112
1,45,85,384
1,47,78,160
1,50,68,0
1,50,64,8
1,50,81,96
1,45,88,388
1,47,73,164
1,50,69,0
1,50,83,68
1,50,78,112
1,45,76,384
1,47,72,0
1,45,61,192
1,50,80,0
1,50,93,96
1,47,81,388
1,45,74,0
1,47,81,192
1,50,83,16
1,50,90,88
1,45,83,0
1,47,75,192
1,45,61,144
1,50,76,96
1,50,93,112
1,45,81,384
1,47,80,176
1,50,74,8
1,50,90,96
1,45,83,384
1,47,78,168
1,45,67,144
1,50,81,176
1,50,90,112
1,45,83,384
1,47,80,152
1,50,67,144
1,48,93,80
1,45,83,112
1,45,97,116
1,48,93,116
1,45,83,96
1,45,101,112
1,48,101,116
1,45,97,576
1,43,101,372
1,41,93,80
1,41,75,112
1,41,81,112
1,41,83,84
1,41,97,92
1,38,118,208
2,71,100,27472
2,74,95,48
2,76,82,96
2,76,74,88
2,78,78,4
2,76,87,32
2,74,91,80
2,76,91,16
2,78,68,44
2,78,95,3200
2,81,74,0
2,78,95,108
2,81,72,0
2,79,67,0
2,76,69,28
2,78,66,24
2,74,77,0
2,79,69,32
2,76,82,0
2,74,67,8
2,78,73,0
2,71,100,17104
2,74,79,80
2,76,74,92
2,76,77,80
2,78,72,16
2,76,87,48
2,74,84,0
2,76,91,0
2,78,87,0
2,78,91,3168
2,81,74,4
2,78,95,116
2,81,74,0
2,79,68,32
2,76,75,0
2,78,76,16
2,74,87,0
2,79,74,16
2,76,91,16
2,78,74,24
2,74,84,0
2,66,116,9508
2,74,77,16
2,66,101,28
2,74,79,16
2,67,70,96
2,76,72,0
2,66,80,116
2,74,75,0
2,67,95,112
2,76,79,0
2,77,74,124
2,68,83,0
2,78,83,64
2,69,91,0
2,66,91,260
2,74,72,80
2,66,91,16
2,74,77,92
2,66,46,0
2,67,91,32
2,76,77,12
2,66,83,16
2,74,75,0
2,67,91,12
2,76,82,4
2,66,87,0
2,74,74,16
2,66,116,544
2,74,79,0
2,66,101,80
2,74,79,104
2,67,91,40
2,76,74,16
2,66,83,12
2,74,95,0
2,67,95,16
2,76,84,4
2,68,95,56
2,77,74,0
2,69,95,8
2,78,83,16
2,66,108,448
2,74,75,16
2,66,108,16
2,74,82,80
2,67,91,96
2,76,79,4
2,66,95,80
2,74,79,0
2,67,91,96
2,76,75,0
2,74,74,92
2,66,91,16
2,69,100,280
2,69,118,176
2,69,95,24
2,71,100,100
2,73,95,112
2,73,95,32
2,73,101,140
2,73,108,36
2,74,91,112
2,73,108,112
2,73,101,16
2,73,116,144
2,73,101,48
2,71,112,112
2,69,105,112
2,71,100,40
2,71,87,36
2,71,84,128
2,71,105,36
2,73,95,128
2,74,95,132
2,74,95,48
2,74,105,128
2,74,105,44
2,76,91,112
2,74,100,112
2,74,100,32
2,74,87,112
2,74,100,36
2,73,108,48
2,71,87,32
2,78,83,4556
2,81,70,0
2,78,95,104
2,81,70,0
2,79,69,32
2,76,77,0
2,78,70,12
2,74,75,4
2,79,69,20
2,76,84,0
2,78,74,16
2,74,87,0
2,71,100,26352
2,74,87,32
2,76,87,64
2,77,95,0
2,76,87,0
2,74,84,96
2,71,79,0
2,76,82,12
2,78,83,32
2,78,95,3112
2,81,77,0
2,78,95,112
2,81,72,32
2,79,70,24
2,76,77,0
2,78,71,0
2,74,82,0
2,79,64,0
2,76,75,16
2,74,66,0
2,78,63,0
2,78,95,4380
2,81,69,4
2,78,95,144
2,81,70,0
2,79,72,16
2,76,75,0
2,78,72,0
2,74,77,0
2,79,65,20
2,76,82,16
2,74,67,0
2,78,70,24
2,78,95,4136
2,81,74,0
2,78,91,124
2,81,74,0
2,79,67,16
2,76,74,16
2,78,70,4
2,74,68,0
2,79,66,32
2,76,74,0
2,78,68,28
2,74,74,0
2,78,95,4480
2,81,69,0
2,78,91,136
2,81,66,16
2,79,63,48
2,76,72,0
2,78,71,0
2,74,75,0
2,79,67,32
2,76,77,0
2,78,73,0
2,74,77,0
2,64,75,272
2,72,70,0
2,67,74,0
2,69,77,56
2,64,70,0
2,61,108,0
2,64,87,116
2,67,91,0
2,72,91,0
2,64,69,76
2,69,75,0
2,61,87,0
2,64,72,244
2,67,77,0
2,72,77,0
2,64,74,72
2,69,82,0
2,61,87,0
2,59,64,256
2,62,70,0
2,67,79,0
2,57,69,204
2,60,68,4
2,65,75,0
2,57,70,148
2,60,68,0
2,65,77,0
2,57,69,96
2,60,65,0
2,65,74,0
2,57,69,64
2,65,68,16
2,60,59,0
2,65,75,76
2,60,67,0
2,57,70,0
2,57,74,280
2,50,67,0
2,62,75,12
3,79,95,1152
3,76,77,0
3,84,90,0
3,79,85,128
3,84,81,0
3,76,77,0
3,73,98,80
3,81,77,0
3,76,69,0
3,76,81,144
3,79,95,0
3,84,81,0
3,76,81,160
3,84,81,0
3,79,95,0
3,73,85,88
3,81,77,0
3,76,72,0
3,76,74,68
3,79,85,0
3,84,74,0
3,76,72,80
3,79,81,0
3,84,77,0
3,81,72,80
3,76,67,0
3,73,85,0
3,74,77,128
3,79,95,0
3,83,69,0
3,77,81,96
3,81,81,0
3,84,72,0
3,77,81,80
3,81,81,0
3,84,85,0
3,84,81,176
3,81,90,0
3,77,102,0
3,83,36,0
3,81,85,184
3,78,81,0
3,86,81,0
3,78,58,24288
3,69,85,0
3,69,102,192
3,78,98,0
3,67,77,16
3,76,81,0
3,66,77,16
3,74,85,0
3,76,85,12
3,67,108,0
3,66,85,8
3,74,90,0
3,78,91,22844
3,69,108,0
3,69,113,168
3,78,98,0
3,67,67,0
3,76,77,0
3,66,81,0
3,74,81,0
3,67,90,32
3,76,90,0
3,66,91,0
3,74,77,0
3,76,74,64
3,79,90,0
3,84,77,0
3,76,72,160
3,79,85,0
3,84,74,0
3,81,60,16
3,76,65,0
3,73,91,0
3,76,81,208
3,79,90,0
3,84,81,0
3,76,72,160
3,79,81,0
3,84,74,0
3,73,91,16
3,81,67,0
3,76,72,0
3,76,72,116
3,79,81,0
3,84,77,0
3,76,62,64
3,79,77,0
3,84,74,0
3,79,81,80
3,76,65,0
3,84,81,0
3,73,98,64
3,76,69,0
3,81,77,0
3,74,85,208
3,79,85,0
3,83,67,0
3,81,74,160
3,77,77,0
3,84,69,0
3,81,90,160
3,84,90,0
3,77,85,0
3,78,77,168
3,86,72,0
3,81,69,0
3,69,95,23664
3,78,85,0
3,78,85,144
3,69,81,0
3,67,74,4
3,76,60,0
3,66,85,32
3,74,74,0
3,67,90,0
3,76,64,0
3,66,81,0
3,74,67,0
3,79,81,112
3,76,72,0
3,84,72,0
3,73,91,80
3,81,65,0
3,76,65,0
3,76,72,160
3,79,81,0
3,84,72,0
3,76,69,176
3,79,81,0
3,84,74,0
3,81,58,0
3,76,60,0
3,73,98,0
3,76,69,112
3,79,81,0
3,84,74,0
3,76,62,88
3,79,77,0
3,84,72,0
3,84,69,80
3,79,69,0
3,76,60,0
3,73,85,80
3,76,69,0
3,81,77,0
3,74,77,144
3,79,81,0
3,83,64,0
3,77,74,128
3,84,67,0
3,81,69,0
3,81,77,144
3,84,77,0
3,77,77,0
3,78,68,80
3,81,60,0
3,86,56,0
3,69,85,23944
3,78,81,0
3,69,102,152
3,78,81,0
3,67,65,16
3,76,62,0
3,66,81,16
3,74,74,0
3,67,81,16
3,76,72,0
3,66,77,0
3,74,69,0
3,69,90,4360
3,78,77,0
3,69,85,160
3,78,77,0
3,67,65,0
3,76,60,0
3,66,66,0
3,74,65,0
3,76,62,16
3,67,85,0
3,66,85,4
3,74,59,0
3,69,81,4288
3,78,81,0
3,69,85,148
3,78,77,0
3,67,69,4
3,76,64,0
3,66,70,8
3,74,67,0
3,67,85,0
3,76,60,0
3,66,70,0
3,74,58,0
3,69,85,4408
3,78,77,0
3,78,81,160
3,69,90,0
3,67,72,0
3,76,60,0
3,66,68,8
3,74,67,0
3,67,81,0
3,76,67,0
3,66,85,0
3,74,67,0
3,79,69,192
3,76,65,0
3,84,69,0
3,76,62,120
3,84,74,0
3,79,69,0
3,73,91,40
3,76,62,0
3,81,62,0
3,76,67,144
3,79,81,0
3,84,74,0
3,76,65,160
3,79,72,0
3,84,65,0
3,73,98,0
3,81,57,0
3,76,62,0
3,76,69,104
3,79,81,0
3,84,69,0
3,76,55,52
3,79,64,0
3,84,65,0
3,79,72,80
3,84,69,0
3,76,62,0
3,76,65,96
3,81,74,0
3,73,85,0
3,71,74,168
3,79,74,0
3,74,72,0
3,81,67,160
3,77,74,0
3,84,67,0
3,84,85,64
3,81,90,0
3,77,81,0
3,74,85,224
3,86,69,0
3,78,85,0
4,72,60,1152
4,48,85,0
4,64,74,0
4,67,77,0
4,61,91,80
4,64,77,0
4,69,81,0
4,45,67,0
4,48,81,320
4,64,77,0
4,67,95,0
4,72,77,0
4,61,85,88
4,64,77,0
4,69,81,0
4,45,60,0
4,48,81,340
4,64,69,0
4,67,90,0
4,72,77,0
4,69,72,144
4,64,60,0
4,61,85,0
4,45,81,0
4,62,74,232
4,67,81,0
4,71,72,0
4,43,95,0
4,41,74,112
4,65,90,0
4,72,81,0
4,69,90,0
4,69,46,64
4,72,44,0
4,65,43,0
4,41,47,0
4,41,64,96
4,72,62,0
4,65,62,0
4,69,72,0
4,41,74,96
4,65,64,0
4,72,67,0
