track,note,velocity,time
0,50,86,2238
0,45,103,6
0,89,110,0
0,50,86,60
0,45,85,6
0,89,105,0
0,50,86,60
0,45,83,6
0,89,105,0
0,47,87,0
0,43,103,6
0,84,110,0
0,47,87,62
0,43,85,6
0,84,105,0
0,47,87,54
0,43,83,6
0,84,105,0
0,43,87,0
0,40,98,6
0,79,110,0
0,43,87,58
0,40,76,6
0,79,105,0
0,43,87,52
0,40,82,6
0,79,105,0
0,41,87,0
0,38,98,6
0,72,110,0
0,41,87,38
0,38,83,6
0,72,105,0
0,41,87,44
0,33,100,6
0,35,100,0
0,38,87,0
0,72,105,0
0,35,108,36
0,49,78,0
0,42,80,2
0,81,47,0
0,33,98,4
0,42,30,108
0,81,1,0
0,42,80,108
0,81,33,0
0,70,20,2
0,33,92,2
0,35,108,104
0,38,102,0
0,46,74,2
0,39,94,4
0,40,70,0
0,42,23,6
0,42,59,10
0,81,40,0
0,70,47,2
0,33,92,2
0,35,108,48
0,42,80,2
0,81,47,0
0,33,94,4
0,42,30,108
0,81,1,0
0,70,29,2
0,42,80,64
0,81,33,0
0,33,103,4
0,35,108,106
0,38,102,0
0,46,74,2
0,70,38,2
0,39,94,2
0,40,70,0
0,42,30,4
0,42,59,10
0,81,40,0
0,70,47,2
0,33,94,2
0,35,108,46
0,42,80,0
0,81,47,0
0,33,94,4
0,42,30,108
0,81,1,0
0,70,20,2
0,42,80,84
0,81,33,0
0,33,103,4
0,35,108,106
0,38,102,0
0,46,74,2
0,70,29,2
0,39,94,2
0,40,70,0
0,42,23,104
0,42,59,10
0,81,40,0
0,70,38,2
0,33,94,2
0,35,108,42
0,42,80,2
0,81,47,0
0,33,94,4
0,42,30,108
0,81,1,0
0,70,47,2
0,42,80,66
0,81,33,0
0,33,105,4
0,35,108,106
0,38,102,0
0,41,82,0
0,47,82,0
0,40,86,2
0,46,74,0
0,70,20,2
0,39,94,2
0,40,70,0
0,42,30,104
0,41,82,8
0,47,82,0
0,40,86,2
0,42,59,0
0,81,40,0
0,70,29,2
0,33,98,2
0,35,108,42
0,57,78,0
0,42,80,2
0,81,47,0
0,33,94,4
0,45,100,0
0,42,30,42
0,81,1,0
0,42,80,2
0,81,33,0
0,70,20,2
0,33,103,2
0,35,108,0
0,38,102,0
0,46,74,2
0,39,94,4
0,40,70,0
0,42,23,22
0,42,59,10
0,81,40,0
0,70,47,2
0,33,103,2
0,35,108,36
0,42,80,2
0,81,47,0
0,33,98,4
0,42,30,24
0,81,1,0
0,70,29,2
0,42,80,22
0,81,33,0
0,33,94,4
0,35,108,30
0,38,102,0
0,46,74,2
0,70,38,2
0,39,94,2
0,40,70,0
0,42,30,0
0,42,59,6
0,81,40,0
0,70,47,2
0,33,98,2
0,35,108,12
0,42,80,2
0,81,47,0
0,33,100,4
0,33,94,0
0,57,119,2
0,64,119,0
0,69,119,0
0,42,30,6
0,81,1,0
0,70,20,2
0,42,80,2
0,81,33,0
0,33,98,4
0,35,108,8
0,38,102,0
0,46,74,2
0,70,29,2
0,39,94,2
0,40,70,0
0,42,23,14
0,42,59,10
0,81,40,0
0,70,38,2
0,33,98,2
0,35,108,8
0,42,80,2
0,81,47,0
0,33,94,4
0,42,30,4
0,81,1,0
0,70,47,2
0,42,80,18
0,81,33,0
0,33,98,4
0,35,108,2
0,38,102,0
0,41,82,0
0,47,82,0
0,40,86,2
0,46,74,0
0,70,20,2
0,39,94,2
0,40,70,0
0,42,30,4
0,41,82,8
0,47,82,0
0,40,86,2
0,42,59,0
0,81,40,0
0,70,29,2
0,33,98,2
0,69,74,66
0,35,108,10
0,49,78,0
0,64,74,0
0,42,80,2
0,81,47,0
0,33,101,2
0,45,100,0
0,57,109,2
0,61,83,0
0,64,83,0
0,64,109,0
0,69,83,0
0,69,109,0
0,61,74,0
0,42,30,104
0,81,1,0
0,42,80,62
0,81,33,0
0,70,20,2
0,33,90,2
0,35,108,4
0,38,102,0
0,46,74,2
0,33,52,4
0,39,94,0
0,42,23,24
0,42,59,6
0,81,40,0
0,70,47,2
0,33,98,2
0,35,108,16
0,42,80,2
0,81,47,0
0,33,98,4
0,42,30,32
0,81,1,0
0,70,29,2
0,42,80,32
0,81,33,0
0,33,85,4
0,35,108,24
0,38,102,0
0,46,74,2
0,70,38,2
0,33,52,2
0,39,94,0
0,42,30,26
0,72,74,40
0,67,74,10
0,42,59,2
0,81,40,0
0,70,47,2
0,36,98,2
0,48,100,0
0,60,109,2
0,64,83,0
0,67,83,0
0,67,109,0
0,72,83,0
0,72,109,0
0,64,74,0
0,35,108,4
0,42,80,2
0,81,47,0
0,42,30,18
0,81,1,0
0,70,20,2
0,74,74,94
0,69,74,10
0,42,80,2
0,81,33,0
0,38,98,4
0,50,100,0
0,62,109,2
0,66,83,0
0,69,83,0
0,69,109,0
0,74,83,0
0,74,109,0
0,66,74,0
0,35,108,106
0,38,102,0
0,46,74,2
0,70,29,2
0,39,94,2
0,42,23,4
0,42,59,14
0,81,40,0
0,70,38,2
0,35,108,14
0,42,80,2
0,81,47,0
0,86,118,4
0,86,118,8
0,42,30,2
0,81,1,0
0,70,47,0
0,86,118,12
0,42,80,0
0,81,33,0
0,86,118,4
0,35,108,8
0,38,102,0
0,41,82,0
0,47,82,0
0,46,74,0
0,70,20,2
0,39,94,2
0,86,89,2
0,86,89,4
0,42,30,10
0,86,89,2
0,42,59,20
0,81,40,0
0,70,29,2
0,86,89,12
0,76,74,46
0,35,108,10
0,57,78,0
0,71,74,0
0,42,80,2
0,81,47,0
0,28,94,4
0,52,100,0
0,64,109,2
0,68,83,0
0,71,83,0
0,71,109,0
0,76,83,0
0,76,109,0
0,68,74,0
0,42,30,108
0,81,1,0
0,42,80,62
0,81,33,0
0,70,20,2
0,35,108,16
0,38,102,0
0,46,74,2
0,28,90,4
0,39,94,0
0,42,23,22
0,42,59,10
0,81,40,0
0,70,47,2
0,28,98,2
0,35,108,0
0,42,80,2
0,81,47,0
0,42,30,12
0,81,1,0
0,70,29,2
0,42,80,22
0,81,33,0
0,28,94,4
0,35,108,24
0,38,102,0
0,46,74,2
0,70,38,0
0,39,94,2
0,42,30,22
0,79,74,48
0,74,74,10
0,42,59,2
0,81,40,0
0,70,47,2
0,31,103,2
0,55,100,0
0,67,109,2
0,71,83,0
0,74,83,0
0,74,109,0
0,79,83,0
0,79,109,0
0,71,74,0
0,35,108,22
0,42,80,2
0,81,47,0
0,42,30,30
0,81,1,0
0,70,20,2
0,76,74,94
0,71,74,10
0,42,80,2
0,81,33,0
0,28,98,4
0,52,100,0
0,64,109,2
0,68,83,0
0,71,83,0
0,71,109,0
0,76,83,0
0,76,109,0
0,68,74,0
0,35,108,16
0,38,102,0
0,46,74,2
0,70,29,2
0,39,94,2
0,42,23,22
0,74,74,36
0,69,74,10
0,42,59,2
0,81,40,0
0,70,38,2
0,38,92,2
0,50,100,0
0,62,109,2
0,66,83,0
0,69,83,0
0,69,109,0
0,74,83,0
0,74,109,0
0,66,74,0
0,35,108,8
0,42,80,2
0,81,47,0
0,42,30,0
0,81,1,0
0,70,47,2
0,72,74,48
0,67,74,10
0,42,80,2
0,81,33,0
0,36,94,4
0,48,100,0
0,60,109,2
0,64,83,0
0,67,83,0
0,67,109,0
0,72,83,0
0,72,109,0
0,64,74,0
0,35,108,4
0,38,102,0
0,41,82,0
0,47,82,0
0,46,74,2
0,70,20,2
0,39,94,2
0,42,30,28
0,69,74,28
0,64,74,10
0,42,59,2
0,81,40,0
0,70,29,2
0,33,103,2
0,45,100,0
0,57,109,2
0,61,83,0
0,64,83,0
0,64,109,0
0,69,83,0
0,69,109,0
0,61,74,0
0,35,108,104
0,42,80,2
0,81,47,0
0,42,30,20
0,81,1,0
0,42,80,0
0,81,33,0
0,70,20,2
0,35,108,0
0,38,102,0
0,46,74,2
0,33,92,4
0,39,94,0
0,42,23,26
0,42,59,6
0,81,40,0
0,70,47,2
0,33,98,2
0,35,108,14
0,42,80,0
0,81,47,0
0,42,30,12
0,81,1,0
0,70,29,0
0,42,80,22
0,81,33,0
0,33,103,4
0,35,108,20
0,38,102,0
0,46,74,2
0,70,38,2
0,39,94,2
0,42,30,0
0,72,74,74
0,67,74,10
0,42,59,2
0,81,40,0
0,70,47,2
0,36,98,2
0,48,100,0
0,60,109,2
0,64,83,0
0,67,83,0
0,67,109,0
0,72,83,0
0,72,109,0
0,64,74,0
0,35,108,14
0,42,80,2
0,81,47,0
0,42,30,4
0,81,1,0
0,70,20,2
0,74,74,94
0,69,74,10
0,42,80,2
0,81,33,0
0,38,96,4
0,50,100,0
0,62,109,2
0,66,83,0
0,69,83,0
0,69,109,0
0,74,83,0
0,74,109,0
0,66,74,0
0,35,108,106
0,38,102,0
0,46,74,2
0,70,29,2
0,39,94,2
0,42,23,48
0,42,59,2
0,81,40,0
0,70,38,2
0,35,108,2
0,42,80,2
0,81,47,0
0,86,118,6
0,86,118,6
0,42,30,0
0,81,1,0
0,70,47,0
0,86,118,20
0,42,80,8
0,81,33,0
0,86,118,2
0,35,108,12
0,38,102,0
0,41,82,0
0,47,82,0
0,46,74,2
0,70,20,2
0,39,94,2
0,86,89,2
0,86,89,20
0,42,30,0
0,86,89,8
0,42,59,8
0,81,40,0
0,70,29,2
0,86,89,6
0,76,74,20
0,35,108,10
0,49,78,0
0,71,74,0
0,42,80,2
0,81,47,0
0,28,98,4
0,52,100,0
0,64,109,2
0,68,83,0
0,71,83,0
0,71,109,0
0,76,83,0
0,76,109,0
0,68,74,0
0,42,30,108
0,81,1,0
0,42,80,34
0,81,33,0
0,70,20,2
0,28,82,2
0,35,108,36
0,38,102,0
0,46,74,2
0,28,90,4
0,39,94,0
0,42,23,64
0,42,59,30
0,81,40,0
0,70,47,2
0,28,94,2
0,35,108,4
0,42,80,2
0,81,47,0
0,42,30,10
0,81,1,0
0,70,29,2
0,42,80,2
0,81,33,0
0,28,98,4
0,35,108,34
0,38,102,0
0,46,74,2
0,70,38,2
0,39,94,2
0,42,30,8
0,79,74,58
0,74,74,10
0,42,59,2
0,81,40,0
0,70,47,2
0,31,87,2
0,55,100,0
0,67,109,2
0,71,83,0
0,74,83,0
0,74,109,0
0,79,83,0
0,79,109,0
0,71,74,0
0,35,108,8
0,42,80,2
0,81,47,0
0,42,30,34
0,81,1,0
0,70,20,2
0,76,74,68
0,71,74,10
0,42,80,2
0,81,33,0
0,28,89,4
0,52,100,0
0,64,109,2
0,68,83,0
0,71,83,0
0,71,109,0
0,76,83,0
0,76,109,0
0,68,74,0
0,35,108,14
0,38,102,0
0,46,74,2
0,70,29,2
0,39,94,2
0,42,23,8
0,74,74,40
0,69,74,10
0,42,59,2
0,81,40,0
0,70,38,2
0,38,90,2
0,50,100,0
0,62,109,2
0,66,83,0
0,69,83,0
0,69,109,0
0,74,83,0
0,74,109,0
0,66,74,0
0,35,108,0
0,42,80,2
0,81,47,0
0,42,30,20
0,81,1,0
0,70,47,2
0,72,74,54
0,67,74,10
0,42,80,2
0,81,33,0
0,36,92,4
0,48,100,0
0,60,109,2
0,64,83,0
0,67,83,0
0,67,109,0
0,72,83,0
0,72,109,0
0,64,74,0
0,35,108,16
0,38,102,0
0,41,82,0
0,47,82,0
0,40,86,0
0,46,74,0
0,70,20,2
0,39,94,2
0,42,30,34
0,69,74,2
0,41,82,2
0,47,82,0
0,64,74,0
0,40,86,2
0,42,59,0
0,81,40,0
0,70,29,2
0,33,103,2
0,45,100,0
0,57,109,2
0,61,83,0
0,64,83,0
0,64,109,0
0,69,83,0
0,69,109,0
0,61,74,0
0,35,108,30
0,42,80,0
0,81,47,0
0,33,102,6
0,42,30,2
0,81,1,0
0,42,80,14
0,81,33,0
0,70,20,2
0,33,94,2
0,33,95,2
0,35,108,12
0,38,102,0
0,46,74,2
0,39,94,4
0,40,70,0
0,45,100,2
0,42,23,2
0,45,94,6
0,42,59,4
0,81,40,0
0,70,47,0
0,33,98,2
0,45,107,2
0,35,108,16
0,42,80,2
0,81,47,0
0,33,105,6
0,42,30,30
0,81,1,0
0,70,29,0
0,42,80,22
0,81,33,0
0,33,105,4
0,33,95,2
0,35,108,2
0,38,102,0
0,43,82,0
0,46,74,2
0,70,38,2
0,39,94,2
0,40,70,0
0,45,104,2
0,42,30,0
0,45,94,6
0,42,59,0
0,81,40,0
0,70,47,2
0,33,98,2
0,45,97,2
0,35,108,2
0,42,80,2
0,81,47,0
0,33,103,4
0,33,100,2
0,42,30,4
0,81,1,0
0,70,20,2
0,42,80,54
0,81,33,0
0,33,98,4
0,33,94,2
0,35,108,92
0,38,102,0
0,46,74,2
0,70,29,2
0,39,94,2
0,40,70,0
0,45,105,2
0,42,23,78
0,45,97,6
0,42,59,6
0,66,108,0
0,81,40,0
0,70,38,2
0,33,103,2
0,45,97,2
0,35,108,8
0,42,80,2
0,81,47,0
0,33,94,6
0,42,30,76
0,81,1,0
0,70,47,2
0,42,80,36
0,69,108,0
0,81,33,0
0,33,103,4
0,33,94,2
0,35,108,58
0,38,102,0
0,43,82,0
0,46,74,2
0,69,108,0
0,70,20,2
0,39,94,2
0,40,70,0
0,45,105,2
0,42,30,92
0,45,91,6
0,42,59,10
0,66,108,0
0,81,40,0
0,70,29,2
0,33,89,2
0,45,91,2
0,35,108,10
0,42,80,2
0,71,108,0
0,81,47,0
0,38,82,4
0,38,104,2
0,42,30,60
0,81,1,0
0,42,80,82
0,81,33,0
0,70,20,2
0,38,82,2
0,38,104,2
0,35,108,78
0,38,102,0
0,46,74,2
0,66,108,0
0,50,104,6
0,42,23,86
0,50,94,6
0,42,59,86
0,81,40,0
0,70,47,2
0,38,92,2
0,50,97,2
0,35,108,54
0,42,80,2
0,81,47,0
0,38,89,4
0,38,113,2
0,42,30,66
0,81,1,0
0,70,29,2
0,42,80,78
0,81,33,0
0,38,103,4
0,38,105,2
0,35,108,72
0,38,102,0
0,41,82,0
0,47,82,0
0,46,74,2
0,69,108,0
0,70,38,2
0,50,111,4
0,42,30,78
0,50,98,6
0,42,59,74
0,71,108,0
0,81,40,0
0,70,47,2
0,38,94,2
0,50,109,2
0,35,108,70
0,42,80,2
0,81,47,0
0,38,94,4
0,38,113,2
0,42,30,54
0,81,1,0
0,70,20,2
0,42,80,68
0,66,108,0
0,81,33,0
0,38,103,4
0,38,109,2
0,35,108,80
0,38,102,0
0,46,74,2
0,70,29,2
0,50,113,4
0,42,23,4
0,50,97,0
0,42,59,8
0,81,40,0
0,70,38,2
0,38,94,2
0,50,97,2
0,35,108,68
0,42,80,2
0,81,47,0
0,38,92,4
0,38,109,2
0,42,30,64
0,81,1,0
0,70,47,2
0,42,80,4
0,81,33,0
0,38,98,4
0,38,105,2
0,35,108,82
0,38,102,0
0,41,82,0
0,47,82,0
0,46,74,2
0,70,20,2
0,50,113,4
0,42,30,24
0,50,91,6
0,42,59,90
0,81,40,0
0,70,29,2
0,38,89,2
0,50,94,2
0,35,108,78
0,42,80,2
0,81,47,0
0,38,90,4
0,38,109,2
0,42,30,52
0,81,1,0
0,42,80,56
0,81,33,0
0,70,20,2
0,38,98,2
0,38,109,2
0,35,108,74
0,38,102,0
0,46,74,2
0,50,105,6
0,42,23,8
0,50,97,6
0,42,59,96
0,81,40,0
0,70,47,2
0,38,94,2
0,50,94,2
0,35,108,68
0,42,80,2
0,66,108,0
0,81,47,0
0,38,85,4
0,38,107,2
0,42,30,52
0,81,1,0
0,70,29,2
0,42,80,64
0,69,108,0
0,81,33,0
0,38,98,4
0,38,105,2
0,35,108,78
0,38,102,0
0,41,82,0
0,47,82,0
0,46,74,2
0,70,38,2
0,50,109,4
0,42,30,28
0,50,97,0
0,42,59,88
0,71,108,0
0,81,40,0
0,70,47,2
0,38,89,2
0,50,98,2
0,35,108,70
0,42,80,2
0,81,47,0
0,38,85,4
0,38,105,2
0,42,30,64
0,81,1,0
0,70,20,2
0,42,80,66
0,81,33,0
0,38,92,4
0,38,105,2
0,35,108,86
