track,note,velocity,time
3,37,84,0
3,37,0,120
3,69,55,0
3,42,115,0
3,42,0,25
3,69,0,49
3,69,47,6
3,69,0,34
3,69,55,6
3,37,80,0
3,42,80,0
3,42,0,25
3,37,0,0
3,69,0,49
3,69,55,6
3,42,60,3
3,42,0,25
3,69,0,6
3,69,49,6
3,42,115,0
3,42,0,25
3,69,0,49
3,69,55,6
3,69,0,34
3,69,47,6
3,37,80,0
3,42,80,0
3,42,0,25
3,37,0,0
3,69,0,49
3,69,55,6
3,42,50,3
3,35,50,0
3,35,0,25
3,42,0,0
3,69,0,6
3,69,55,6
3,42,115,0
3,35,60,0
3,35,0,25
3,42,0,0
3,69,0,49
3,69,47,6
3,69,0,34
3,69,55,6
3,37,80,0
3,42,80,0
3,42,0,25
3,37,0,0
3,69,0,49
3,69,55,6
3,46,72,3
3,46,0,25
3,69,0,6
3,69,49,6
3,42,115,0
3,42,0,25
3,69,0,49
3,69,55,6
3,69,0,34
3,69,47,6
3,37,80,0
3,42,80,0
3,42,0,25
3,37,0,0
3,69,0,49
3,69,55,6
3,42,50,3
3,35,50,0
3,35,0,25
3,42,0,0
3,69,0,6
3,69,55,6
3,42,115,0
3,42,0,25
3,69,0,49
3,69,47,6
3,69,0,34
3,69,55,6
3,37,80,0
3,42,80,0
3,42,0,25
3,37,0,0
3,69,0,49
3,69,55,6
3,42,60,2
3,42,0,25
3,69,0,7
3,69,49,6
3,42,115,0
3,42,0,25
3,69,0,49
3,69,55,6
3,42,50,2
3,42,0,25
3,69,0,7
3,69,47,6
3,37,80,0
3,42,80,0
3,42,0,25
3,37,0,0
3,69,0,49
3,69,55,6
3,42,70,2
3,42,0,25
3,69,0,7
3,69,55,6
3,42,115,0
3,42,0,25
3,69,0,49
3,69,47,6
3,69,0,34
3,69,55,6
3,37,80,0
3,42,80,0
3,42,0,25
3,37,0,0
3,69,0,49
3,69,55,6
3,42,60,2
3,42,0,25
3,69,0,7
3,69,49,6
3,42,115,0
3,42,0,25
3,69,0,49
3,69,55,6
3,42,50,2
3,42,0,25
3,69,0,7
3,69,47,6
3,37,80,0
3,42,80,0
3,42,0,25
3,37,0,0
3,69,0,49
3,69,55,6
3,42,70,2
3,35,50,0
3,35,0,25
3,42,0,0
3,69,0,7
3,69,55,6
3,42,115,0
3,42,0,25
3,69,0,49
3,69,47,6
3,42,70,2
3,42,0,25
3,69,0,7
3,69,55,6
3,37,80,0
3,42,80,0
3,42,0,25
3,37,0,0
3,69,0,49
3,69,55,6
3,42,60,2
3,42,0,25
3,69,0,7
3,69,49,6
3,42,115,0
3,42,0,25
3,69,0,49
3,69,55,6
3,42,70,2
3,42,0,25
3,69,0,7
3,69,47,6
3,37,80,0
3,42,100,0
3,42,0,25
3,37,0,0
3,69,0,49
3,69,55,6
3,42,80,2
3,42,0,25
3,69,0,7
3,69,55,6
3,42,115,0
3,35,60,0
3,35,0,25
3,42,0,0
3,69,0,49
3,69,47,6
3,69,0,34
3,69,55,6
3,37,80,0
3,42,80,0
3,42,0,25
3,37,0,0
3,69,0,49
3,69,55,6
3,42,60,2
3,42,0,25
3,69,0,7
3,69,49,6
3,42,115,0
3,42,0,25
3,69,0,49
3,69,55,6
3,42,50,2
3,42,0,25
3,69,0,7
3,69,47,6
3,37,80,0
3,42,80,0
3,42,0,25
3,37,0,0
3,69,0,49
3,69,55,6
3,42,70,2
3,42,0,25
3,69,0,7
3,69,55,6
3,42,115,0
3,35,60,0
3,35,0,25
3,42,0,0
3,69,0,49
3,69,47,6
3,42,70,2
3,42,0,25
3,69,0,7
3,69,55,6
3,37,80,0
3,42,80,0
3,42,0,25
3,37,0,0
3,69,0,49
3,69,55,6
3,42,60,2
3,42,0,25
3,69,0,7
3,69,49,6
3,42,115,0
3,42,0,25
3,69,0,49
3,69,55,6
3,69,0,34
3,69,47,6
3,37,80,0
3,42,80,0
3,42,0,25
3,37,0,0
3,69,0,49
3,69,55,6
3,42,70,2
3,42,0,25
3,69,0,7
3,69,55,6
3,42,100,0
3,35,80,0
3,35,0,25
3,42,0,0
3,69,0,49
3,69,47,6
3,42,60,2
3,38,90,0
3,38,0,25
3,42,0,0
3,69,0,7
3,69,55,6
3,44,90,0
3,44,0,25
3,69,0,49
3,69,55,6
3,42,100,2
3,35,40,0
3,35,0,25
3,42,0,0
3,69,0,7
3,69,49,6
3,42,90,0
3,35,60,0
3,35,0,25
3,42,0,0
3,69,0,49
3,69,55,6
3,38,80,2
3,38,0,25
3,69,0,7
3,69,47,6
3,44,80,0
3,44,0,25
3,69,0,49
3,69,55,6
3,51,60,2
3,51,0,25
3,69,0,7
3,69,55,6
3,49,90,0
3,51,115,0
3,35,80,0
3,35,0,25
3,51,0,0
3,49,0,0
3,69,0,49
3,69,47,6
3,38,70,2
3,38,0,25
3,69,0,7
3,69,55,6
3,51,90,0
3,37,70,0
3,42,100,0
3,42,0,25
3,37,0,0
3,51,0,0
3,69,0,49
3,69,55,6
3,51,55,2
3,51,0,25
3,69,0,7
3,69,49,6
3,51,115,0
3,38,40,0
3,38,0,25
3,51,0,0
3,69,0,49
3,69,55,6
3,51,80,2
3,51,0,25
3,69,0,7
3,69,47,6
3,51,90,0
3,37,70,0
3,42,100,0
3,42,0,25
3,37,0,0
3,51,0,0
3,69,0,49
3,69,55,6
3,51,50,2
3,51,0,25
3,69,0,7
3,69,55,6
3,51,115,0
3,35,80,0
3,35,0,25
3,51,0,0
3,69,0,49
3,69,47,6
3,51,70,4
3,51,0,25
3,69,0,5
3,69,55,6
3,51,100,0
3,37,70,0
3,42,100,0
3,42,0,25
3,37,0,0
3,51,0,0
3,69,0,49
3,69,55,6
3,38,30,4
3,38,0,25
3,69,0,5
3,69,49,6
3,51,115,0
3,38,40,0
3,38,0,25
3,51,0,0
3,69,0,49
3,69,55,6
3,69,0,34
3,69,47,6
3,51,90,0
3,37,70,0
3,42,100,0
3,42,0,25
3,37,0,0
3,51,0,0
3,69,0,49
3,69,55,6
3,51,50,4
3,51,0,25
3,69,0,5
3,69,55,6
3,51,115,0
3,35,80,0
3,35,0,25
3,51,0,0
3,69,0,49
3,69,47,6
3,69,0,34
3,69,55,6
3,51,90,0
3,37,70,0
3,42,100,0
3,42,0,25
3,37,0,0
3,51,0,0
3,69,0,49
3,69,55,6
3,51,55,4
3,38,40,0
3,38,0,25
3,51,0,0
3,69,0,5
3,69,49,6
3,51,115,0
3,51,0,25
3,69,0,49
3,69,55,6
3,46,70,4
3,46,0,25
3,69,0,5
3,69,47,6
3,51,80,0
3,37,70,0
3,42,100,0
3,42,0,25
3,37,0,0
3,51,0,0
3,69,0,49
3,69,55,6
3,51,60,4
3,51,0,25
3,69,0,5
3,69,55,6
3,49,90,0
3,35,80,0
3,35,0,25
3,49,0,0
3,69,0,49
3,69,47,6
3,38,90,0
3,38,0,25
3,69,0,9
3,69,55,6
3,46,90,0
3,46,0,25
3,69,0,49
3,69,55,6
3,48,50,0
3,48,0,25
3,69,0,9
3,69,49,6
3,48,90,0
3,48,0,25
3,69,0,49
3,69,55,6
3,45,80,0
3,45,0,25
3,69,0,9
3,69,47,6
3,46,70,0
3,46,0,25
3,41,60,15
3,41,0,25
3,69,0,9
3,69,55,6
3,41,90,0
3,41,0,25
3,69,0,9
3,69,55,6
3,42,115,0
3,42,0,25
3,69,0,49
3,69,47,6
3,69,0,34
3,69,55,6
3,37,80,0
3,42,80,0
3,42,0,25
3,37,0,0
3,69,0,49
3,69,55,6
3,42,60,2
3,42,0,25
3,69,0,7
3,69,49,6
3,42,115,0
3,42,0,25
3,69,0,49
3,69,55,6
3,42,70,2
3,42,0,25
3,69,0,7
3,69,47,6
3,37,80,0
3,42,100,0
3,42,0,25
3,37,0,0
3,69,0,49
3,69,55,6
3,42,80,2
3,42,0,25
3,69,0,7
3,69,55,6
3,42,115,0
3,35,60,0
3,35,0,25
3,42,0,0
3,69,0,49
3,69,47,6
3,38,70,3
3,38,0,25
3,69,0,6
3,69,55,6
3,37,80,0
3,42,80,0
3,42,0,25
3,37,0,0
3,69,0,49
3,69,55,6
3,42,60,3
3,42,0,25
3,69,0,6
3,69,49,6
3,42,115,0
3,42,0,25
3,69,0,49
3,69,55,6
3,69,0,34
3,69,47,6
3,37,80,0
3,42,80,0
3,42,0,25
3,37,0,0
3,69,0,49
3,69,55,6
3,42,50,3
3,42,0,25
3,69,0,6
3,69,55,6
3,42,115,0
3,42,0,25
3,69,0,49
3,69,47,6
3,69,0,34
3,69,55,6
3,37,80,0
3,42,80,0
3,42,0,25
3,37,0,0
3,69,0,49
3,69,55,6
3,42,60,2
3,42,0,25
3,69,0,7
3,69,49,6
3,42,115,0
3,42,0,25
3,69,0,49
3,69,55,6
3,69,0,34
3,69,47,6
3,37,80,0
3,42,80,0
3,42,0,25
3,37,0,0
3,69,0,49
3,69,55,6
3,42,70,2
3,42,0,25
3,69,0,7
3,69,55,6
3,42,90,0
3,35,90,0
3,35,0,25
3,42,0,0
3,69,0,49
3,69,47,6
3,38,70,2
3,38,0,25
3,69,0,7
3,69,55,6
3,42,115,0
3,42,0,25
3,69,0,49
3,69,55,6
3,42,55,2
3,38,60,0
3,38,0,25
3,42,0,0
3,69,0,7
3,69,49,6
3,42,100,0
3,38,80,0
3,38,0,25
3,42,0,0
3,69,0,49
3,69,55,6
3,35,80,2
3,35,0,25
3,69,0,7
3,69,47,6
3,45,90,0
3,42,100,0
3,42,0,25
3,45,0,0
3,69,0,49
3,69,55,6
3,45,80,2
3,45,0,25
3,69,0,7
3,69,55,6
3,35,75,0
3,49,90,0
3,51,115,0
3,51,0,25
3,49,0,0
3,35,0,0
3,69,0,49
3,69,47,6
3,38,70,2
3,38,0,25
3,69,0,7
3,69,55,6
3,51,90,0
3,37,70,0
3,42,100,0
3,42,0,25
3,37,0,0
3,51,0,0
3,69,0,49
3,69,55,6
3,51,55,2
3,38,30,0
3,38,0,25
3,51,0,0
3,69,0,7
3,69,49,6
3,51,115,0
3,38,40,0
3,38,0,25
3,51,0,0
3,69,0,49
3,69,55,6
3,51,80,2
3,51,0,25
3,69,0,7
3,69,47,6
3,51,90,0
3,37,70,0
3,42,100,0
3,42,0,25
3,37,0,0
3,51,0,0
3,69,0,49
3,69,55,6
3,51,50,2
3,51,0,25
3,69,0,7
3,69,55,6
3,51,115,0
3,35,54,0
3,35,0,25
3,51,0,0
3,69,0,49
3,69,47,6
3,69,0,34
3,69,55,6
3,51,80,0
3,37,70,0
3,42,100,0
3,42,0,25
3,37,0,0
3,51,0,0
3,69,0,49
3,69,55,6
3,51,50,2
3,46,90,0
3,38,90,0
3,38,0,25
3,46,0,0
3,51,0,0
3,69,0,7
3,69,49,6
3,51,115,0
3,51,0,25
3,69,0,49
3,69,55,6
3,69,0,34
3,69,47,6
3,51,90,0
3,37,70,0
3,42,100,0
3,42,0,25
3,37,0,0
3,51,0,0
3,69,0,49
3,69,55,6
3,51,60,2
3,35,60,0
3,35,0,25
3,51,0,0
3,69,0,7
3,69,55,6
3,51,115,0
3,35,80,0
3,35,0,25
3,51,0,0
3,69,0,49
3,69,47,6
3,51,70,4
3,51,0,25
3,69,0,5
3,69,55,6
3,51,100,0
3,37,70,0
3,42,100,0
3,42,0,25
3,37,0,0
3,51,0,0
3,69,0,49
3,69,55,6
3,38,30,4
3,38,0,25
3,69,0,5
3,69,49,6
3,51,115,0
3,38,40,0
3,38,0,25
3,51,0,0
3,69,0,49
3,69,55,6
3,69,0,34
3,69,47,6
3,51,90,0
3,37,70,0
3,42,100,0
3,42,0,25
3,37,0,0
3,51,0,0
3,69,0,49
3,69,55,6
3,51,50,4
3,51,0,25
3,69,0,5
3,69,55,6
3,51,115,0
3,35,70,0
3,35,0,25
3,51,0,0
3,69,0,49
3,69,47,6
3,38,90,4
3,38,0,25
3,69,0,5
3,69,55,6
3,51,100,0
3,37,70,0
3,42,100,0
3,42,0,25
3,37,0,0
3,51,0,0
3,69,0,49
3,69,55,6
3,51,50,4
3,51,0,25
3,69,0,5
3,69,49,6
3,51,115,0
3,51,0,25
3,69,0,49
3,69,55,6
3,35,50,4
3,35,0,25
3,69,0,5
3,69,47,6
3,51,90,0
3,37,70,0
3,42,100,0
3,42,0,25
3,37,0,0
3,51,0,0
3,69,0,49
3,69,55,6
3,51,60,4
3,35,60,0
3,35,0,25
3,51,0,0
3,69,0,5
3,69,55,6
3,49,69,0
3,35,80,0
3,35,0,25
3,69,0,49
3,69,47,6
3,69,0,34
3,69,55,6
3,51,90,0
3,37,70,0
3,42,100,0
3,42,0,25
3,51,0,0
3,37,0,0
3,69,0,49
3,69,55,6
3,51,55,4
3,38,40,0
3,38,0,25
3,51,0,0
3,69,0,5
3,69,49,6
3,51,115,0
3,51,0,25
3,69,0,49
3,69,55,6
3,69,0,34
3,69,47,6
3,35,69,0
3,38,69,0
3,51,80,0
3,37,70,0
3,42,100,0
3,42,0,25
3,51,0,0
3,37,0,0
3,35,0,1
3,38,0,0
3,69,0,48
3,69,55,6
3,35,69,0
3,38,69,0
3,51,60,4
3,49,0,19
3,51,0,6
3,69,0,5
3,35,0,0
3,38,0,0
3,69,55,6
3,51,115,0
3,51,0,25
3,69,0,49
3,69,47,6
3,69,0,34
3,69,55,6
3,51,100,0
3,37,70,0
3,42,100,0
3,42,0,25
3,37,0,0
3,51,0,0
3,69,0,49
3,69,55,6
3,51,60,2
3,38,40,0
3,38,0,25
3,51,0,0
3,69,0,7
3,69,49,6
3,51,115,0
3,51,0,25
3,69,0,49
3,69,55,6
3,38,40,2
3,38,0,25
3,69,0,7
3,69,47,6
3,51,90,0
3,37,70,0
3,42,100,0
3,42,0,25
3,37,0,0
3,51,0,0
3,69,0,49
3,69,55,6
3,51,50,2
3,38,50,0
3,38,0,25
3,51,0,0
3,69,0,7
3,69,55,6
3,57,69,0
3,35,75,0
3,35,0,25
3,69,0,49
3,69,47,6
3,38,70,2
3,38,0,25
3,69,0,7
3,69,55,6
3,51,90,0
3,37,70,0
3,42,100,0
3,42,0,25
3,51,0,0
3,37,0,0
3,69,0,49
3,69,55,6
3,51,55,2
3,38,40,0
3,38,0,25
3,51,0,0
3,69,0,7
3,69,49,6
3,51,115,0
3,51,0,25
3,69,0,49
3,69,55,6
3,69,0,34
3,69,47,6
3,35,69,0
3,38,69,0
3,51,90,0
3,37,70,0
3,42,100,0
3,42,0,25
3,51,0,0
3,37,0,0
3,35,0,1
3,38,0,0
3,69,0,48
3,69,55,6
3,35,69,0
3,38,69,0
3,51,60,2
3,57,0,21
3,51,0,4
3,69,0,7
3,35,0,0
3,38,0,0
3,69,55,6
3,51,115,0
3,51,0,25
3,69,0,49
3,69,47,6
3,69,0,34
3,69,55,6
3,51,80,0
3,37,70,0
3,42,100,0
3,42,0,25
3,37,0,0
3,51,0,0
3,69,0,49
3,69,55,6
3,51,50,2
3,46,90,0
3,46,0,25
3,51,0,0
3,69,0,7
3,69,49,6
3,51,115,0
3,51,0,25
3,69,0,49
3,69,55,6
3,51,90,2
3,51,0,25
3,69,0,7
3,69,47,6
3,51,90,0
3,37,70,0
3,42,100,0
3,42,0,25
3,37,0,0
3,51,0,0
3,69,0,49
3,69,55,6
3,51,60,2
3,51,0,25
3,69,0,7
3,69,55,6
3,49,69,0
3,35,75,0
3,35,0,25
3,69,0,49
3,69,47,6
3,51,70,4
3,51,0,25
3,69,0,5
3,69,55,6
3,51,100,0
3,37,70,0
3,42,100,0
3,42,0,25
3,51,0,0
3,37,0,0
3,69,0,49
3,69,55,6
3,69,0,34
3,69,49,6
3,51,115,0
3,38,40,0
3,38,0,25
3,51,0,0
3,69,0,49
3,69,55,6
3,69,0,34
3,69,47,6
3,35,69,0
3,38,69,0
3,51,90,0
3,37,70,0
3,42,100,0
3,42,0,25
3,51,0,0
3,37,0,0
3,35,0,1
3,38,0,0
3,69,0,48
3,69,55,6
3,35,69,0
3,38,69,0
3,51,50,4
3,49,0,19
