track,note,velocity,time
1,35,107,29182
1,35,107,322
1,35,107,32
1,35,102,272
1,35,107,79
1,35,107,364
1,35,107,273
1,35,107,80
1,35,107,274
1,35,107,82
1,35,107,369
1,35,107,321
1,35,107,33
1,35,107,367
1,35,107,275
1,35,107,83
1,35,107,370
1,35,107,273
1,35,107,79
1,35,107,273
1,35,107,79
1,35,107,275
1,35,107,80
1,35,107,366
1,35,107,272
1,35,107,79
1,35,107,369
1,35,107,558
1,35,107,34
1,35,107,130
1,35,107,274
1,35,107,78
1,35,107,272
1,35,107,3157
1,35,107,276
1,35,107,80
1,35,107,370
1,35,107,274
1,35,107,82
1,35,107,371
1,35,107,272
1,35,107,80
1,35,107,318
1,35,107,25
1,35,107,80
1,35,107,129
1,35,107,34
1,35,107,83
1,35,107,135
1,35,107,33
1,35,107,176
1,35,107,275
1,35,107,82
1,35,107,372
1,35,107,272
1,35,107,82
1,35,107,371
1,35,107,276
1,35,107,88
1,35,107,376
1,35,107,276
1,35,107,84
1,35,107,377
1,35,107,275
1,35,107,82
1,35,107,370
1,35,107,279
1,35,107,81
1,35,107,375
1,35,107,266
1,35,107,84
1,35,107,376
1,35,107,273
1,35,107,82
1,35,107,378
1,35,107,277
1,35,107,82
1,35,107,376
1,35,107,272
1,35,107,86
1,35,107,373
1,35,107,277
1,35,107,78
1,35,107,371
1,35,107,757
1,35,107,321
1,35,107,33
1,35,102,270
1,35,107,78
1,35,107,364
1,35,107,273
1,35,107,81
1,35,107,273
1,35,107,82
1,35,107,369
1,35,107,321
1,35,107,33
1,35,107,366
1,35,107,274
1,35,107,83
1,35,107,369
1,35,107,272
1,35,107,80
1,35,107,272
1,35,107,80
1,35,107,274
1,35,107,80
1,35,107,366
1,35,107,271
1,35,107,78
1,35,107,369
1,35,107,559
1,35,107,34
1,35,107,130
1,35,107,276
1,35,107,79
1,35,107,272
1,35,87,84
1,35,87,275
1,35,87,79
1,35,87,367
1,35,87,271
1,35,87,78
1,35,87,370
1,35,87,750
1,35,87,276
1,35,87,79
1,35,87,272
1,35,87,84
1,35,87,321
1,35,87,31
1,35,82,272
1,35,87,79
1,35,87,364
1,35,87,273
1,35,87,81
1,35,87,273
1,35,87,83
1,35,87,368
1,35,87,322
1,35,87,34
1,35,87,366
1,35,87,275
1,35,87,83
1,35,87,370
1,35,87,272
1,35,87,80
1,35,87,272
1,35,87,80
1,35,87,275
1,35,87,80
1,35,87,366
1,35,87,272
1,35,87,79
1,35,87,369
1,35,87,559
1,35,87,35
1,35,87,129
1,35,87,275
1,35,87,79
1,35,87,271
1,35,87,84
1,35,87,656
1,35,87,80
1,35,87,654
1,35,87,82
1,35,87,658
1,35,87,80
1,35,87,271
1,35,87,77
1,35,87,366
2,38,97,29375
2,38,97,371
2,38,97,367
2,38,97,368
2,38,97,372
2,38,97,371
2,38,96,373
2,38,97,371
2,38,97,371
2,38,97,371
2,38,97,370
2,38,97,274
2,38,92,130
2,38,97,320
2,38,97,380
2,38,97,370
2,38,87,369
2,38,97,1141
2,38,97,376
2,38,97,3828
2,38,97,755
2,38,97,757
2,38,97,761
2,38,97,760
2,38,97,755
2,38,97,759
2,38,97,1144
2,38,97,371
2,38,97,371
2,38,97,373
2,38,97,373
2,38,97,374
2,38,97,374
2,38,97,375
2,38,97,373
2,38,97,372
2,38,97,372
2,38,97,373
2,38,97,373
2,38,97,373
2,38,97,179
2,38,97,117
2,38,97,17
2,38,97,16
2,38,97,113
2,38,97,14
2,38,97,15
2,38,97,12
2,38,97,20
2,38,97,83
2,38,97,19
2,38,97,373
2,38,97,371
2,38,97,366
2,38,97,367
2,38,97,371
2,38,97,371
2,38,96,372
2,38,97,371
2,38,97,371
2,38,97,372
2,38,97,371
2,38,97,274
2,38,92,130
2,38,97,321
2,38,97,373
2,38,97,372
2,38,87,369
2,38,97,1140
2,38,97,375
2,38,97,373
2,38,97,374
2,38,97,373
2,38,87,369
2,38,97,853
2,38,97,241
2,38,97,183
2,38,97,563
2,38,97,370
2,38,97,367
2,38,97,368
2,38,97,371
2,38,97,372
2,38,49,228
2,38,62,28
2,38,73,28
2,38,79,31
2,38,92,33
2,38,92,34
2,38,92,34
2,38,97,33
2,38,97,30
2,38,97,32
2,38,97,33
2,38,97,32
2,38,97,30
2,38,97,34
2,38,97,30
2,38,97,224
2,38,97,371
2,38,97,371
2,38,97,273
2,38,92,130
2,38,97,320
2,38,97,374
2,38,97,372
2,38,87,367
2,38,97,1140
2,38,97,375
2,38,97,756
2,38,97,757
2,38,97,754
2,38,97,756
3,51,50,2207
3,51,50,34
3,51,50,36
3,51,50,175
3,51,50,176
3,51,50,177
3,51,50,181
3,51,50,179
3,51,50,178
3,51,50,180
3,51,50,180
3,51,50,182
3,51,50,179
3,51,50,174
3,51,50,133
3,51,50,36
3,51,50,174
3,51,50,175
3,51,50,177
3,51,50,181
3,51,50,178
3,51,50,178
3,51,50,179
3,51,50,180
3,51,50,173
3,51,50,175
3,51,50,177
3,51,50,180
3,51,50,178
3,51,50,178
3,51,50,179
3,51,51,84
3,51,50,48
3,51,50,175
3,51,50,175
3,51,50,175
3,51,50,180
3,51,50,179
3,51,50,176
3,51,50,179
3,51,50,180
3,51,50,174
3,51,50,174
3,51,50,177
3,51,54,85
3,51,50,48
3,51,50,179
3,51,50,177
3,51,50,179
3,51,50,179
3,51,50,174
3,51,50,174
3,51,50,178
3,51,50,182
3,51,50,179
3,51,50,178
3,51,50,179
3,51,50,181
3,51,50,173
3,51,50,174
3,51,50,176
3,51,50,182
3,51,50,178
3,51,50,178
3,51,50,180
3,51,51,84
3,51,50,48
3,51,50,175
3,51,50,174
3,51,50,177
3,51,50,181
3,51,50,180
3,51,50,177
3,51,50,180
3,51,50,179
3,51,50,174
3,51,50,175
3,51,50,177
3,51,54,86
3,51,50,49
3,51,50,179
3,51,50,177
3,51,50,179
3,51,50,180
3,51,50,175
3,51,50,176
3,51,50,176
3,51,50,180
3,51,50,178
3,51,50,177
3,51,50,179
3,51,50,179
3,51,50,174
3,51,50,176
3,51,50,177
3,51,50,182
3,51,50,178
3,51,50,178
3,51,50,179
3,51,51,83
3,51,50,49
3,51,50,174
3,51,50,175
3,51,50,177
3,51,50,181
3,51,50,179
3,51,50,177
3,51,50,180
3,51,50,179
3,51,50,174
3,51,50,175
3,51,50,178
3,51,54,86
3,51,50,48
3,51,50,178
3,51,50,178
3,51,50,179
3,51,60,179
3,51,60,174
3,51,60,175
3,51,60,177
3,51,60,182
3,51,60,178
3,51,60,177
3,51,60,179
3,51,60,178
3,51,60,174
3,51,60,176
3,51,60,176
3,51,60,180
3,51,60,180
3,51,60,177
3,51,60,180
3,51,61,84
3,51,78,48
3,51,72,179
3,51,66,176
3,51,72,180
3,51,55,80
3,51,78,80
3,51,72,174
3,51,72,127
3,51,66,32
3,51,24,79
3,51,72,81
3,51,11,80
3,51,78,89
3,51,24,80
3,51,78,85
3,51,55,81
3,51,66,81
3,51,72,84
3,51,87,84
3,51,43,80
3,51,86,84
3,51,60,81
3,51,87,79
3,51,60,32
3,51,72,32
3,51,87,82
3,51,66,84
3,51,40,85
3,51,86,94
3,49,67,83
3,51,66,93
3,51,86,85
3,51,55,80
3,51,46,36
3,51,86,32
3,51,55,82
3,51,78,84
3,51,72,82
3,51,72,81
3,51,66,83
3,51,86,84
3,51,66,83
3,51,60,33
3,51,78,33
3,51,66,83
3,51,86,81
3,51,78,84
3,49,58,79
3,51,66,78
3,51,86,81
3,51,60,84
3,51,72,80
3,51,66,83
3,51,78,83
3,51,72,85
3,51,55,36
3,51,87,36
3,51,60,84
3,51,78,79
3,51,66,85
3,51,78,80
3,51,72,82
3,51,87,83
3,51,72,84
3,49,67,84
3,51,66,84
3,51,86,85
3,51,86,85
3,51,43,35
3,51,87,33
3,51,50,86
3,51,86,82
3,51,43,34
3,51,66,37
3,51,78,88
3,51,46,82
3,51,86,82
3,51,60,85
3,51,78,83
3,51,37,85
3,51,86,78
3,51,86,86
3,49,67,80
3,51,55,83
3,51,87,85
3,51,50,83
3,51,87,80
3,51,46,84
3,51,86,83
3,49,40,81
3,51,87,80
3,51,55,83
3,51,86,82
3,51,72,80
3,51,86,82
3,51,55,82
3,51,43,35
3,51,86,34
3,51,66,81
3,51,86,84
3,51,60,179
3,51,72,179
3,51,78,179
3,49,67,182
3,49,52,179
3,51,87,0
3,51,87,84
3,49,67,85
3,51,72,85
3,51,87,84
3,51,29,84
3,49,66,88
3,51,55,180
3,51,60,178
3,51,72,178
3,51,78,178
3,51,66,180
3,51,60,178
3,51,66,179
3,51,72,178
3,51,60,180
3,51,60,179
3,51,66,178
3,51,60,180
3,51,46,178
3,51,78,177
3,51,60,370
3,51,60,174
3,51,60,175
3,51,60,176
3,51,60,181
3,51,60,180
3,51,60,178
3,51,60,179
3,51,60,180
3,51,60,174
3,51,60,176
3,51,60,177
3,51,60,181
3,51,60,180
3,51,60,177
3,51,60,179
3,51,61,84
3,51,60,49
3,51,60,174
3,51,60,176
3,51,60,176
3,51,60,181
3,51,60,178
3,51,60,177
3,51,60,180
3,51,60,180
3,51,60,176
3,51,60,176
3,51,60,177
3,51,64,85
3,51,60,49
3,51,60,180
3,51,60,178
3,51,60,181
3,49,57,180
3,51,68,87
3,51,77,89
3,51,68,88
3,51,77,87
3,51,62,83
3,51,77,85
3,51,62,82
3,51,50,32
3,51,77,35
3,51,68,81
3,51,76,84
3,51,50,84
3,51,76,84
3,51,68,84
3,51,76,85
3,51,33,84
3,51,77,83
3,51,68,84
3,51,68,84
3,51,33,84
3,51,68,79
3,51,62,84
3,51,77,79
3,46,68,82
3,51,77,0
3,51,56,84
3,51,77,86
3,51,76,84
3,51,77,80
3,51,68,83
3,51,76,34
3,51,76,35
3,51,77,82
3,49,56,78
3,51,68,83
3,51,77,86
3,51,76,84
3,51,76,80
3,51,62,85
3,51,77,84
3,51,45,34
3,51,76,34
3,51,76,80
3,51,76,81
3,51,25,34
3,51,76,29
3,51,62,76
3,51,76,81
3,51,68,83
3,51,50,35
3,51,77,32
3,51,68,82
3,51,56,33
3,51,68,35
3,51,68,75
3,51,77,80
3,51,76,83
3,51,76,35
3,51,77,32
3,51,76,82
3,51,30,35
3,51,76,32
3,51,76,78
3,51,62,37
3,51,77,36
3,51,10,129
3,51,68,39
3,51,77,180
3,49,67,373
3,51,66,94
3,51,86,84
3,51,55,81
3,51,46,34
3,51,86,33
3,51,55,83
3,51,78,85
3,51,72,82
3,51,72,82
3,51,66,82
3,51,86,84
3,51,66,84
3,51,60,33
3,51,78,32
3,51,66,84
3,51,86,81
3,51,78,84
3,49,58,80
3,51,66,81
3,51,86,80
3,51,60,85
3,51,72,82
3,51,66,84
3,51,78,83
3,51,72,86
3,51,55,36
3,51,87,37
3,51,60,84
3,51,78,80
3,51,66,85
3,51,78,81
3,51,72,84
3,51,87,84
3,51,72,85
3,49,67,85
3,51,66,82
3,51,86,86
3,51,86,85
3,51,43,34
3,51,87,34
3,51,50,85
3,51,86,83
3,51,43,35
3,51,66,37
3,51,78,86
3,51,46,82
3,51,86,83
3,51,60,85
3,51,78,83
3,51,37,85
3,51,86,78
3,51,86,86
3,49,67,80
3,51,55,83
3,51,87,84
3,51,50,84
3,51,87,80
3,51,46,85
3,51,86,83
3,49,40,81
3,51,87,80
3,51,55,83
3,51,86,81
3,51,72,79
3,51,86,81
3,51,55,81
3,51,43,34
3,51,86,33
3,51,66,80
3,51,86,84
3,51,60,179
3,51,72,179
3,51,78,180
3,49,67,181
3,51,87,179
3,49,52,0
3,51,87,86
3,49,67,85
3,51,72,84
3,51,87,84
3,51,29,84
3,49,67,87
3,51,55,83
3,51,87,83
3,51,50,84
3,51,87,80
3,51,46,84
3,51,86,83
3,49,40,81
3,51,87,79
3,51,55,84
3,51,86,81
3,51,72,80
3,51,86,79
3,51,55,81
3,51,43,35
3,51,86,32
3,51,66,80
3,51,86,84
3,51,60,179
3,51,72,179
3,51,78,179
3,49,67,181
3,49,52,180
3,51,87,0
3,51,87,85
3,49,67,84
3,51,72,85
3,51,87,83
3,51,29,84
3,49,67,86
3,51,66,92
3,51,86,84
3,51,55,79
3,51,46,36
3,51,86,33
3,51,55,81
3,51,78,85
3,51,72,82
3,51,72,82
3,51,66,82
3,51,86,83
3,51,66,83
3,51,60,33
3,51,78,33
3,51,66,84
3,51,86,83
3,51,78,83
3,49,58,80
3,51,66,79
3,51,86,81
3,51,60,84
3,51,72,83
3,51,66,83
3,51,78,84
3,51,72,84
3,51,55,36
3,51,87,36
3,51,60,84
3,51,78,80
3,51,66,84
3,51,78,83
3,51,72,84
3,51,87,84
3,51,72,84
3,49,67,84
3,51,66,82
3,51,86,86
3,51,86,83
3,51,43,36
3,51,87,34
3,51,50,83
3,51,86,82
3,51,43,36
3,51,66,37
3,51,78,87
3,51,46,82
3,51,86,83
3,51,60,85
3,51,78,84
3,51,37,84
3,51,86,78
3,51,86,86
3,49,67,79
3,51,55,84
3,51,87,84
3,51,50,84
3,51,87,80
3,51,46,84
3,51,86,83
3,49,40,81
3,51,87,79
3,51,55,84
3,51,86,80
3,51,72,79
3,51,86,80
3,51,55,81
3,51,43,35
3,51,86,32
3,51,66,80
3,51,86,84
3,51,60,180
3,51,72,180
3,51,78,180
3,49,67,182
3,49,52,180
3,51,87,0
3,51,87,85
3,49,67,84
3,51,72,85
3,51,87,84
3,51,29,85
3,49,66,87
3,51,55,182
3,51,60,179
3,51,72,180
3,51,78,179
3,51,66,180
3,51,60,179
3,51,66,179
3,51,72,177
3,51,60,181
3,51,60,179
3,51,66,179
3,49,67,180
3,51,66,83
3,51,87,80
3,51,66,84
3,51,87,76
3,51,78,88
3,51,87,80
3,51,78,77
3,51,87,78
4,47,113,28895
4,45,111,129
4,41,116,28
4,47,113,7465
4,47,110,124
4,45,108,28
4,41,109,13
4,47,113,8955
4,45,111,129
4,41,116,29
4,47,117,5513
4,47,117,180
4,47,117,212
4,47,117,16
4,45,117,19
4,45,117,20
4,45,117,19
4,45,117,21
4,41,117,17
4,41,116,19
4,41,117,19
4,47,104,7417
4,47,109,125
4,45,111,28
4,41,114,13
4,47,115,2618
4,47,115,145
4,47,115,48
4,47,115,0
4,45,115,0
4,43,115,0
4,41,112,0
4,41,112,0
4,41,43,2356
4,41,47,30
4,41,51,30
4,41,55,31
4,41,59,31
4,41,63,31
4,41,67,33
4,41,71,29
4,41,76,34
4,41,80,34
4,41,84,32
4,41,88,33
4,41,92,32
4,41,96,33
4,41,100,37
4,47,113,4351
4,47,117,124
4,45,117,28
4,41,117,13
4,47,110,2800
4,47,117,0
4,45,116,54
4,45,117,8
4,41,113,53
4,41,117,13
5,74,50,58365
5,74,48,0
5,74,45,0
5,74,43,0
5,74,40,0
5,74,38,0
5,74,35,0
5,74,32,0
5,74,30,0
5,74,27,0
5,74,25,0
5,74,22,0
5,74,20,0
5,74,17,0
5,74,15,0
5,74,12,0
6,54,108,26302
6,54,108,371
6,54,116,371
6,54,116,372
6,54,116,371
6,54,117,370
6,54,117,371
6,54,117,370
6,54,68,6338
6,54,68,0
6,54,65,0
6,54,65,0
6,54,65,0
6,54,65,0
6,54,62,0
6,54,59,0
6,54,59,0
6,54,56,0
6,54,53,0
6,54,50,0
6,54,44,0
6,54,41,0
6,54,36,0
6,54,33,0
6,54,33,0
6,54,33,0
6,54,30,0
6,54,30,0
6,54,27,0
6,54,27,0
6,54,25,0
6,54,21,0
6,54,108,7677
6,54,108,372
6,54,116,372
6,54,116,372
6,54,116,371
6,54,117,371
6,54,117,372
6,54,117,370
7,35,90,22849
7,31,90,7
7,31,90,19
7,31,90,41
7,31,90,23
7,31,85,1
7,35,90,0
7,38,90,1
7,36,90,0
7,36,90,20
7,36,90,15
7,36,90,39
7,36,90,20
7,36,90,19
7,29,90,39
7,29,90,25
7,29,90,25
7,29,90,37
7,29,90,23
7,33,90,14
7,38,90,193
7,31,90,4
7,31,90,51
7,31,90,18
7,31,90,35
