track,note,velocity,time
1,71,104,2889
1,66,116,0
1,63,112,0
1,59,101,0
1,59,0,108
1,71,0,0
1,66,0,0
1,63,0,0
1,59,112,70
1,63,112,0
1,66,127,0
1,71,104,0
1,71,0,73
1,66,0,0
1,63,0,4
1,59,0,0
1,59,92,103
1,71,116,0
1,66,98,0
1,63,98,0
1,66,0,65
1,71,0,5
1,63,0,5
1,59,0,8
1,63,125,39
1,59,127,0
1,71,127,0
1,66,127,0
1,66,0,66
1,71,0,5
1,59,0,7
1,63,0,0
1,59,65,408
1,63,65,0
1,54,65,0
1,54,0,597
1,56,65,0
1,56,0,121
1,54,65,0
1,56,65,837
1,54,0,7
1,56,0,88
1,54,65,27
1,54,0,193
1,63,0,0
1,64,65,47
1,56,65,0
1,59,0,578
1,61,65,22
1,59,65,120
1,61,0,5
1,56,0,190
1,64,0,45
1,54,65,0
1,63,65,1
1,56,65,599
1,54,0,18
1,56,0,82
1,54,65,20
1,54,0,835
1,56,65,5
1,56,0,120
1,54,65,0
1,63,0,190
1,54,0,30
1,63,65,20
1,66,65,0
1,66,0,905
1,64,80,56
1,56,65,0
1,63,0,44
1,56,0,850
1,64,0,58
1,63,65,7
1,54,65,0
1,54,0,693
1,66,65,25
1,59,0,110
1,66,0,12
1,63,0,10
1,64,68,113
1,59,65,0
1,68,68,0
1,59,0,435
1,71,65,40
1,68,0,90
1,68,65,32
1,73,104,122
1,64,0,191
1,71,0,10
1,73,0,7
1,68,0,8
1,75,89,25
1,71,83,0
1,66,86,0
1,66,0,815
1,75,0,0
1,71,0,5
1,59,65,140
1,68,74,2
1,64,71,0
1,59,0,430
1,64,0,3
1,68,0,22
1,68,71,20
1,71,65,0
1,64,86,1
1,71,0,214
1,68,0,8
1,68,65,17
1,71,68,0
1,73,77,0
1,64,0,173
1,73,0,7
1,71,0,18
1,68,0,5
1,75,89,37
1,71,83,0
1,66,83,0
1,75,0,840
1,66,0,5
1,71,0,0
1,68,65,117
1,59,65,0
1,64,71,0
1,64,0,431
1,59,0,0
1,68,0,17
1,64,92,30
1,71,80,0
1,68,98,0
1,68,0,195
1,64,0,5
1,71,0,5
1,71,71,38
1,73,86,0
1,68,80,0
1,64,65,0
1,68,0,165
1,71,0,7
1,73,0,0
1,64,0,5
1,71,89,62
1,66,89,1
1,75,116,0
1,66,0,95
1,71,0,0
1,75,0,17
1,70,83,66
1,78,110,0
1,73,112,0
1,73,0,69
1,78,0,5
1,70,0,5
1,71,80,102
1,75,92,0
1,80,71,0
1,80,0,476
1,75,0,0
1,71,0,5
1,73,65,118
1,76,68,0
1,68,65,0
1,76,0,914
1,68,0,10
1,70,98,40
1,66,65,0
1,78,92,0
1,78,0,68
1,70,0,5
1,66,0,10
1,73,0,0
1,78,65,93
1,70,65,0
1,66,65,0
1,73,68,0
1,70,0,62
1,78,0,7
1,73,0,0
1,66,0,3
1,66,65,108
1,78,65,0
1,73,83,0
1,70,65,0
1,78,0,69
1,73,0,8
1,70,0,5
1,66,0,10
1,59,71,510
1,59,0,92
1,59,77,87
1,59,0,83
1,59,74,95
1,59,0,190
1,59,83,48
1,59,0,77
1,59,83,45
1,59,0,123
1,66,89,119
1,59,74,0
1,59,0,98
1,66,0,5
1,66,80,77
1,59,68,0
1,59,0,103
1,66,0,0
1,59,77,76
1,66,74,0
1,66,0,154
1,59,0,0
1,66,80,85
1,59,83,0
1,66,0,90
1,59,0,3
1,66,77,27
1,59,68,0
1,59,0,98
1,66,0,0
1,59,65,144
1,66,80,0
1,71,80,0
1,71,0,86
1,66,0,10
1,59,0,0
1,66,77,82
1,59,65,0
1,71,65,0
1,71,0,98
1,59,0,7
1,66,0,0
1,59,65,75
1,66,83,0
1,71,65,0
1,71,0,140
1,66,0,0
1,59,0,3
1,59,71,97
1,71,71,0
1,66,65,0
1,59,0,78
1,66,0,5
1,71,0,0
1,66,68,37
1,59,65,1
1,71,65,0
1,59,0,47
1,71,0,17
1,66,0,0
1,71,65,180
1,83,65,0
1,78,89,0
1,75,80,0
1,75,0,85
1,78,0,0
1,83,0,0
1,71,0,3
1,75,68,89
1,83,89,0
1,71,65,0
1,78,80,0
1,78,0,71
1,71,0,0
1,83,0,5
1,75,0,0
1,83,98,104
1,75,112,0
1,71,68,0
1,78,98,0
1,71,0,80
1,75,0,0
1,83,0,6
1,78,0,0
1,59,65,520
1,63,65,0
1,54,65,0
1,54,0,597
1,56,65,0
1,56,0,120
1,54,65,0
1,56,65,841
1,54,0,4
1,56,0,90
1,54,65,26
1,54,0,192
1,63,0,0
1,64,65,48
1,56,65,0
1,59,0,579
1,61,65,20
1,59,65,120
1,61,0,3
1,56,0,192
1,64,0,45
1,63,65,0
1,54,65,0
1,56,65,600
1,54,0,20
1,56,0,78
1,54,65,22
1,54,0,833
1,56,65,7
1,56,0,120
1,54,65,0
1,63,0,190
1,54,0,30
1,63,65,20
1,66,65,0
1,66,0,905
1,64,80,56
1,56,65,0
1,63,0,42
1,56,0,850
1,64,0,60
1,63,65,7
1,54,65,0
1,54,0,695
1,66,65,23
1,59,0,110
1,66,0,12
1,63,0,10
1,64,68,115
1,59,65,0
1,68,68,0
1,59,0,433
1,71,65,42
1,68,0,90
1,68,65,30
1,73,104,123
1,64,0,192
1,71,0,10
1,73,0,3
1,68,0,10
1,71,80,24
1,66,81,0
1,75,89,0
1,75,0,816
1,66,0,0
1,71,0,4
1,59,65,141
1,68,74,0
1,64,71,0
1,59,0,432
1,64,0,5
1,68,0,18
1,68,71,22
1,71,65,0
1,64,86,1
1,71,0,212
1,68,0,12
1,68,65,15
1,71,68,0
1,73,77,0
1,64,0,173
1,73,0,5
1,71,0,22
1,68,0,3
1,71,80,35
1,75,89,2
1,66,81,0
1,75,0,840
1,66,0,3
1,71,0,0
1,68,65,119
1,59,65,0
1,64,71,0
1,64,0,431
1,59,0,0
1,68,0,17
1,64,92,31
1,71,80,0
1,68,98,0
1,68,0,194
1,64,0,5
1,71,0,5
1,71,71,37
1,73,86,1
1,68,80,0
1,64,65,0
1,68,0,165
1,71,0,7
1,73,0,0
1,64,0,5
1,71,89,62
1,66,89,0
1,75,116,0
1,66,0,96
1,71,0,0
1,75,0,17
1,70,83,66
1,78,110,0
1,73,112,0
1,73,0,69
1,78,0,5
1,70,0,5
1,71,80,100
1,75,92,0
1,80,71,0
1,80,0,480
1,75,0,0
1,71,0,3
1,73,65,118
1,76,68,0
1,68,65,0
1,76,0,914
1,68,0,10
1,70,98,38
1,66,65,0
1,78,92,0
1,78,0,70
1,70,0,5
1,66,0,12
1,73,0,0
1,78,65,92
1,70,65,0
1,66,65,0
1,73,68,0
1,70,0,63
1,78,0,5
1,73,0,0
1,66,0,3
1,66,65,109
1,78,65,0
1,73,83,0
1,70,65,0
1,78,0,68
1,73,0,8
1,70,0,5
1,66,0,10
1,59,71,509
1,59,0,93
1,59,77,87
1,59,0,81
1,59,74,98
1,59,0,187
1,59,83,52
1,59,0,75
1,59,83,45
1,59,0,123
1,66,89,119
1,59,74,0
1,59,0,98
1,66,0,5
1,66,80,75
1,59,68,0
1,59,0,103
1,66,0,0
1,59,77,79
1,66,74,0
1,66,0,153
1,59,0,0
1,66,80,83
1,59,83,0
1,66,0,92
1,59,0,5
1,66,77,26
1,59,68,0
1,59,0,97
1,66,0,0
1,59,65,144
1,66,80,0
1,71,80,0
1,71,0,86
1,66,0,12
1,59,0,0
1,66,77,80
1,59,65,0
1,71,65,0
1,71,0,100
1,59,0,5
1,66,0,0
1,59,65,75
1,66,83,0
1,71,65,0
1,71,0,138
1,66,0,0
1,59,0,7
1,59,71,95
1,71,71,0
1,66,65,0
1,59,0,80
1,66,0,3
1,71,0,0
1,66,68,37
1,59,65,0
1,71,65,0
1,59,0,50
1,71,0,13
1,66,0,0
1,71,65,182
1,83,65,0
1,78,89,0
1,75,80,0
1,75,0,83
1,78,0,0
1,83,0,0
1,71,0,4
1,75,68,89
1,83,89,0
1,71,65,0
1,78,80,0
1,78,0,71
1,71,0,0
1,83,0,6
1,75,0,0
1,83,98,103
1,75,112,0
1,71,68,0
1,78,98,0
1,71,0,84
1,75,0,0
1,83,0,3
1,78,0,0
1,59,65,520
1,63,65,0
1,54,65,0
1,54,0,595
1,56,65,0
1,56,0,122
1,54,65,0
1,56,65,840
1,54,0,5
1,56,0,88
1,54,65,27
1,54,0,195
1,63,0,0
1,64,65,45
1,56,65,0
1,59,0,578
1,61,65,20
1,59,65,122
1,61,0,5
1,56,0,188
1,64,0,47
1,63,65,0
1,54,65,0
1,56,65,600
1,54,0,20
1,56,0,78
1,54,65,23
1,54,0,832
1,56,65,8
1,56,0,119
1,54,65,0
1,63,0,188
1,54,0,30
1,63,65,22
1,66,65,0
1,66,0,903
1,64,80,59
1,56,65,0
1,63,0,41
1,56,0,850
1,64,0,60
1,63,65,7
1,54,65,1
1,54,0,692
1,66,65,27
1,59,0,108
1,66,0,12
1,63,0,8
1,64,68,117
1,59,65,0
1,68,68,0
1,59,0,435
1,71,65,40
1,68,0,90
1,68,65,30
1,73,104,122
1,64,0,193
1,71,0,10
1,73,0,5
1,68,0,10
1,75,89,22
1,71,83,0
1,66,82,0
1,66,0,815
1,75,0,0
1,71,0,6
1,59,65,140
1,68,74,0
1,64,71,0
1,59,0,430
1,64,0,5
1,68,0,20
1,68,71,22
1,71,65,0
1,64,86,1
1,71,0,212
1,68,0,10
1,68,65,17
1,71,68,0
1,73,77,0
1,64,0,173
1,73,0,5
1,71,0,22
1,68,0,3
1,75,89,35
1,71,83,0
1,66,82,0
1,75,0,842
1,66,0,5
1,71,0,0
1,68,65,117
1,59,65,0
1,64,71,0
1,64,0,433
1,59,0,0
1,68,0,15
1,64,92,30
1,71,80,0
1,68,98,0
1,68,0,195
1,64,0,3
1,71,0,5
1,71,71,39
1,73,86,1
1,68,80,0
1,64,65,0
1,68,0,167
1,71,0,5
1,73,0,0
1,64,0,3
1,71,89,63
1,66,89,0
1,75,116,0
1,66,0,97
1,71,0,0
1,75,0,17
1,70,83,66
1,78,110,0
1,73,112,0
1,73,0,69
1,78,0,5
1,70,0,5
1,71,80,100
1,75,92,0
1,80,71,0
1,80,0,478
1,75,0,0
1,71,0,5
1,73,65,120
1,76,68,0
1,68,65,0
1,76,0,910
1,68,0,10
1,70,98,40
1,66,65,0
1,78,92,0
1,78,0,70
1,70,0,5
1,66,0,12
1,73,0,0
1,78,65,91
1,70,65,0
1,66,65,0
1,73,68,0
1,70,0,62
1,78,0,5
1,73,0,0
1,66,0,5
1,66,65,109
1,78,65,0
1,73,83,0
1,70,65,0
1,78,0,66
1,73,0,12
1,70,0,5
1,66,0,8
1,59,71,510
1,59,0,90
1,59,77,87
1,59,0,83
1,59,74,97
1,59,0,188
1,59,83,52
1,59,0,73
1,59,83,47
1,59,0,123
1,66,89,120
1,59,74,0
1,59,0,97
1,66,0,5
1,66,80,77
1,59,68,0
1,59,0,103
1,66,0,0
1,59,77,78
1,66,74,0
1,66,0,150
1,59,0,0
1,66,80,87
1,59,83,0
1,66,0,88
1,59,0,5
1,66,77,27
1,59,68,0
1,59,0,100
1,66,0,0
1,59,65,141
1,66,80,0
1,71,80,0
1,71,0,86
1,66,0,11
1,59,0,0
1,66,77,82
1,59,65,0
1,71,65,0
1,71,0,100
1,59,0,5
1,66,0,0
1,59,65,75
1,66,83,0
1,71,65,0
1,71,0,138
1,66,0,0
1,59,0,5
1,59,71,97
1,71,71,0
1,66,65,0
1,59,0,78
1,66,0,5
1,71,0,0
1,66,68,37
1,59,65,0
1,71,65,0
1,59,0,50
1,71,0,13
1,66,0,0
1,71,65,182
1,83,65,0
1,78,89,0
1,75,80,0
1,75,0,83
1,78,0,0
1,83,0,0
1,71,0,4
1,75,68,89
1,83,89,0
1,71,65,0
1,78,80,0
1,78,0,74
1,71,0,0
1,83,0,3
1,75,0,0
1,83,98,104
1,75,112,0
1,71,68,0
1,78,98,0
1,71,0,81
1,75,0,0
1,83,0,7
1,78,0,0
1,71,104,3396
1,66,116,0
1,63,112,0
1,59,101,0
1,59,0,107
1,71,0,0
1,66,0,0
1,63,0,0
1,59,112,72
1,63,112,0
1,66,127,0
1,71,104,0
1,71,0,75
1,66,0,0
1,63,0,2
1,59,0,0
1,59,92,103
1,71,116,0
1,66,98,0
1,63,98,0
1,66,0,65
1,71,0,5
1,63,0,5
1,59,0,7
1,63,125,41
1,59,127,0
1,71,127,2
1,66,127,0
1,66,0,63
1,71,0,5
1,59,0,5
1,63,0,0
2,59,76,2863
2,59,0,470
2,71,110,25
2,59,89,5
2,71,0,455
2,59,0,22
2,71,98,6
2,78,113,1
2,83,89,0
2,78,0,66
2,83,0,12
2,71,0,0
2,78,95,88
2,71,98,0
2,83,113,0
2,78,0,100
2,83,0,7
2,71,0,0
2,71,86,70
2,83,104,5
2,78,112,0
2,83,0,80
2,78,0,5
2,71,0,5
2,71,104,40
2,83,114,0
2,78,101,0
2,83,0,73
2,78,0,7
2,71,0,3
2,59,89,8075
2,68,83,8
2,64,92,0
2,59,0,449
2,68,0,5
2,64,0,3
2,64,71,15
2,71,111,0
2,68,76,0
2,68,0,217
2,64,0,10
2,71,0,5
2,71,71,10
2,64,71,5
2,68,59,0
2,73,86,0
2,68,0,180
2,64,0,0
2,73,0,8
2,71,0,5
2,71,104,42
2,66,104,6
2,75,113,0
2,75,0,509
2,66,0,0
2,71,0,0
2,75,98,83
2,66,76,0
2,71,92,7
2,71,0,30
2,75,0,3
2,75,76,22
2,71,61,0
2,66,0,23
2,71,0,5
2,75,0,17
2,71,83,15
2,76,111,5
2,68,86,0
2,68,0,35
2,71,0,20
2,71,53,0
2,75,56,0
2,66,68,0
2,76,0,18
2,71,0,12
2,75,0,5
2,66,0,3
2,59,95,148
2,68,76,0
2,64,104,0
2,59,0,407
2,64,0,22
2,68,0,18
2,71,73,25
2,68,92,2
2,64,89,0
2,73,59,240
2,64,0,195
2,71,0,3
2,68,0,0
2,73,0,22
2,66,104,138
2,75,95,0
2,66,0,47
2,75,0,13
2,73,111,122
2,64,98,0
2,64,0,48
2,73,0,10
2,63,104,120
2,71,111,0
2,71,0,380
2,63,0,0
2,59,98,102
2,68,76,0
2,64,83,5
2,59,0,420
2,68,0,25
2,64,0,8
2,64,59,22
2,71,73,0
2,68,71,0
2,68,0,210
2,64,0,0
2,71,0,5
2,64,66,25
2,73,76,0
2,71,83,6
2,68,66,0
2,68,0,149
2,64,0,8
2,73,0,0
2,71,0,5
2,75,112,70
2,71,110,0
2,66,114,8
2,66,0,109
2,71,0,0
2,75,0,13
2,70,80,52
2,78,114,0
2,73,98,5
2,73,0,63
2,78,0,0
2,70,0,5
2,71,98,107
2,75,83,5
2,80,110,0
2,71,0,553
2,80,0,10
2,75,0,0
2,73,114,32
2,76,114,0
2,68,114,0
2,68,0,908
2,76,0,17
2,73,0,5
2,73,89,36
2,66,83,0
2,78,114,0
2,78,0,54
2,66,0,0
2,73,0,0
2,66,104,120
2,78,95,0
2,73,83,5
2,78,0,53
2,73,0,5
2,66,0,5
2,78,110,112
2,66,89,5
2,73,101,0
2,73,0,78
2,78,0,0
2,66,0,5
2,59,114,512
2,59,0,90
2,59,114,90
2,59,0,70
2,59,113,113
2,59,0,112
2,66,83,485
2,59,71,6
2,66,0,99
2,59,0,13
2,66,111,62
2,59,98,0
2,66,0,90
2,59,0,8
2,66,89,82
2,59,86,5
2,66,0,148
2,59,0,17
2,71,98,430
2,59,114,6
2,59,0,909
2,71,0,18
2,78,98,33
2,83,89,0
2,71,107,0
2,78,0,64
2,71,0,8
2,83,0,0
2,83,104,102
2,78,110,5
2,71,95,0
2,78,0,68
2,83,0,0
2,71,0,5
2,83,110,107
2,78,114,0
2,71,114,0
2,78,0,98
2,83,0,5
2,71,0,5
2,59,89,8172
2,68,83,7
2,64,92,0
2,59,0,448
2,68,0,5
2,64,0,3
2,64,71,17
2,71,111,0
2,68,76,0
2,68,0,215
