track,note,velocity,time
1,60,107,0
1,62,98,14
1,65,94,96
1,62,103,9
1,65,94,96
1,67,63,14
1,62,107,17
1,60,112,733
1,62,89,22
1,65,93,96
1,62,101,8
1,65,94,96
1,67,85,1
1,62,101,8
1,55,112,663
1,57,82,18
1,60,85,96
1,57,96,5
1,60,85,96
1,62,65,8
1,57,105,10
1,55,114,722
1,57,82,21
1,60,77,96
1,57,101,80
1,60,82,91
1,62,73,13
1,57,107,96
1,60,107,771
1,62,98,14
1,65,94,96
1,62,103,9
1,65,94,96
1,67,63,14
1,62,107,17
1,60,112,733
1,62,89,22
1,65,93,96
1,62,101,8
1,65,94,96
1,67,85,1
1,62,101,8
1,55,112,663
1,57,82,18
1,60,85,96
1,57,96,5
1,60,85,96
1,62,65,8
1,57,105,10
1,55,114,722
1,57,82,21
1,60,77,96
1,57,101,80
1,60,82,91
1,62,73,13
1,57,107,96
1,60,107,0
1,62,98,14
1,65,94,96
1,62,103,9
1,65,94,96
1,67,63,14
1,62,107,17
1,60,112,733
1,62,89,22
1,65,93,96
1,62,101,8
1,65,94,96
1,67,85,1
1,62,101,8
1,55,112,663
1,57,82,18
1,60,85,96
1,57,96,5
1,60,85,96
1,62,65,8
1,57,105,10
1,55,114,722
1,57,82,21
1,60,77,96
1,57,101,80
1,60,82,91
1,62,73,13
1,57,107,96
1,60,107,771
1,62,98,14
1,65,94,96
1,62,103,9
1,65,94,96
1,67,63,14
1,62,107,17
1,60,112,733
1,62,89,22
1,65,93,96
1,62,101,8
1,65,94,96
1,67,85,1
1,62,101,8
1,55,112,663
1,57,82,18
1,60,85,96
1,57,96,5
1,60,85,96
1,62,65,8
1,57,105,10
1,55,114,722
1,57,82,21
1,60,77,96
1,57,101,80
1,60,82,91
1,62,73,13
1,57,107,96
1,64,107,380
1,60,101,1
1,67,89,183
1,67,112,112
1,62,96,1
1,69,87,199
1,64,101,1044
1,72,109,0
1,69,105,0
1,67,109,115
1,64,98,0
1,71,101,0
1,62,103,102
1,65,114,0
1,69,103,0
1,62,89,78
1,67,107,0
1,64,107,0
1,69,105,123
1,62,103,0
1,65,114,0
1,64,105,51
1,65,114,51
1,65,107,129
1,64,105,96
1,60,107,60
1,57,94,192
1,60,114,191
1,60,101,153
1,62,91,27
1,64,81,26
1,64,105,115
1,65,84,11
1,67,93,13
1,62,105,114
1,67,114,0
1,69,105,192
1,64,105,1207
1,72,107,0
1,69,103,0
1,67,107,114
1,64,103,0
1,71,101,0
1,62,101,118
1,65,109,0
1,69,103,0
1,67,109,109
1,62,98,0
1,64,107,0
1,65,112,126
1,69,107,0
1,62,101,0
1,64,107,99
1,65,122,44
1,65,114,123
1,64,109,96
1,60,112,88
1,57,103,119
1,55,119,137
1,60,107,0
1,62,98,14
1,65,94,96
1,62,103,9
1,65,94,96
1,67,63,14
1,62,107,17
1,60,112,733
1,62,89,22
1,65,93,96
1,62,101,8
1,65,94,96
1,67,85,1
1,62,101,8
1,55,112,663
1,57,82,18
1,60,85,96
1,57,96,5
1,60,85,96
1,62,65,8
1,57,105,10
1,55,114,722
1,57,82,21
1,60,77,96
1,57,101,80
1,60,82,91
1,62,73,13
1,57,107,96
1,60,107,771
1,62,98,14
1,65,94,96
1,62,103,9
1,65,94,96
1,67,63,14
1,62,107,17
1,60,112,733
1,62,89,22
1,65,93,96
1,62,101,8
1,65,94,96
1,67,85,1
1,62,101,8
1,55,112,663
1,57,82,18
1,60,85,96
1,57,96,5
1,60,85,96
1,62,65,8
1,57,105,10
1,55,114,722
1,57,82,21
1,60,77,96
1,57,101,80
1,60,82,91
1,62,73,13
1,57,107,96
1,64,107,380
1,60,101,1
1,67,89,183
1,67,112,112
1,62,96,1
1,69,87,199
1,64,101,1044
1,72,109,0
1,69,105,0
1,67,109,115
1,64,98,0
1,71,101,0
1,62,103,102
1,65,114,0
1,69,103,0
1,62,89,78
1,67,107,0
1,64,107,0
1,69,105,123
1,62,103,0
1,65,114,0
1,64,105,51
1,65,114,51
1,65,107,129
1,64,105,96
1,60,107,60
1,57,94,192
1,60,114,191
1,60,101,153
1,62,91,27
1,64,81,26
1,64,105,115
1,65,84,11
1,67,93,13
1,62,105,114
1,67,114,0
1,69,105,192
1,64,105,1207
1,72,107,0
1,69,103,0
1,67,107,114
1,64,103,0
1,71,101,0
1,62,101,118
1,65,109,0
1,69,103,0
1,67,109,109
1,62,98,0
1,64,107,0
1,65,112,126
1,69,107,0
1,62,101,0
1,64,107,99
1,65,122,44
1,65,114,123
1,64,109,96
1,60,112,88
1,57,103,119
1,55,119,137
1,60,107,0
1,62,98,14
1,65,94,96
1,62,103,9
1,65,94,96
1,67,63,14
1,62,107,17
1,60,112,733
1,62,89,22
1,65,93,96
1,62,101,8
1,65,94,96
1,67,85,1
1,62,101,8
1,55,112,663
1,57,82,18
1,60,85,96
1,57,96,5
1,60,85,96
1,62,65,8
1,57,105,10
1,55,114,722
1,57,82,21
1,60,77,96
1,57,101,80
1,60,82,91
1,62,73,13
1,57,107,96
1,60,107,771
1,62,98,14
1,65,94,96
1,62,103,9
1,65,94,96
1,67,63,14
1,62,107,17
1,60,112,733
1,62,89,22
1,65,93,96
1,62,101,8
1,65,94,96
1,67,85,1
1,62,101,8
1,55,112,663
1,57,82,18
1,60,85,96
1,57,96,5
1,60,85,96
1,62,65,8
1,57,105,10
1,55,114,722
1,57,82,21
1,60,77,96
1,57,101,80
1,60,82,91
1,62,73,13
1,57,107,96
1,55,116,0
1,57,94,28
1,60,93,96
1,57,96,1
1,60,94,96
1,62,81,17
1,60,114,0
1,64,103,694
1,62,96,96
1,60,91,77
1,57,103,12
1,60,105,96
1,62,93,5
1,60,109,96
1,55,116,553
1,57,94,28
1,60,93,96
1,57,96,1
1,60,94,96
1,62,81,17
1,60,114,0
1,64,103,694
1,62,96,96
1,60,91,77
1,57,103,12
1,60,105,96
1,62,93,5
1,60,109,96
1,55,116,553
1,57,94,28
1,60,93,96
1,57,96,1
1,60,94,96
1,62,81,17
1,60,114,0
1,64,103,694
1,62,96,96
1,60,91,77
1,57,103,12
1,60,105,96
1,62,93,5
1,60,109,96
1,55,116,553
1,57,94,28
1,60,93,96
1,57,96,1
1,60,94,96
1,62,81,17
1,60,114,0
1,64,103,694
1,62,96,96
1,60,91,77
1,57,103,12
1,60,105,96
1,62,93,5
1,60,109,96
1,55,116,553
1,57,94,28
1,60,93,96
1,57,96,1
1,60,94,96
1,62,81,17
1,60,114,0
1,64,103,694
1,62,96,96
1,60,91,77
1,57,103,12
1,60,105,96
1,62,93,5
1,60,109,96
1,55,116,553
1,57,94,28
1,60,93,96
1,57,96,1
1,60,94,96
1,62,81,17
1,60,114,0
1,64,103,694
1,62,96,96
1,60,91,77
1,57,103,12
1,60,105,96
1,62,93,5
1,60,109,96
1,60,107,0
1,62,98,14
1,65,94,96
1,62,103,9
1,65,94,96
1,67,63,14
1,62,107,17
1,60,112,733
1,62,89,22
1,65,93,96
1,62,101,8
1,65,94,96
1,67,85,1
1,62,101,8
1,55,112,663
1,57,82,18
1,60,85,96
1,57,96,5
1,60,85,96
1,62,65,8
1,57,105,10
1,55,114,722
1,57,82,21
1,60,77,96
1,57,101,80
1,60,82,91
1,62,73,13
1,57,107,96
1,60,107,771
1,62,98,14
1,65,94,96
1,62,103,9
1,65,94,96
1,67,63,14
1,62,107,17
1,60,112,733
1,62,89,22
1,65,93,96
1,62,101,8
1,65,94,96
1,67,85,1
1,62,101,8
1,55,112,663
1,57,82,18
1,60,85,96
1,57,96,5
1,60,85,96
1,62,65,8
1,57,105,10
1,55,114,722
1,57,82,21
1,60,77,96
1,57,101,80
1,60,82,91
1,62,73,13
1,57,107,96
1,60,107,0
1,62,98,14
1,65,94,96
1,62,103,9
1,65,94,96
1,67,63,14
1,62,107,17
1,60,112,733
1,62,89,22
1,65,93,96
1,62,101,8
1,65,94,96
1,67,85,1
1,62,101,8
1,55,112,663
1,57,82,18
1,60,85,96
1,57,96,5
1,60,85,96
1,62,65,8
1,57,105,10
1,55,114,722
1,57,82,21
1,60,77,96
1,57,101,80
1,60,82,91
1,62,73,13
1,57,107,96
1,60,107,771
1,62,98,14
1,65,94,96
1,62,103,9
1,65,94,96
1,67,63,14
1,62,107,17
1,60,112,733
1,62,89,22
1,65,93,96
1,62,101,8
1,65,94,96
1,67,85,1
1,62,101,8
2,41,122,0
2,38,112,6
2,41,114,21
2,38,119,114
2,36,119,206
2,38,114,96
2,41,112,5
2,38,122,21
2,41,116,20
2,38,122,33
2,41,116,24
2,38,122,121
2,31,109,199
2,33,107,96
2,36,101,4
2,33,112,12
2,36,114,96
2,33,116,1
2,36,114,7
2,33,116,98
2,31,119,178
2,33,112,96
2,36,105,10
2,33,119,17
2,36,109,4
2,33,116,8
2,36,105,15
2,33,116,98
2,36,114,227
2,38,112,96
2,41,105,3
2,38,114,29
2,41,122,17
2,38,112,6
2,41,114,21
2,38,119,114
2,36,119,206
2,38,114,96
2,41,112,5
2,38,122,21
2,41,116,20
2,38,122,33
2,41,116,24
2,38,122,121
2,31,109,199
2,33,107,96
2,36,101,4
2,33,112,12
2,36,114,96
2,33,116,1
2,36,114,7
2,33,116,98
2,31,119,178
2,33,112,96
2,36,105,10
2,33,119,17
2,36,109,4
2,33,116,8
2,36,105,15
2,33,116,98
2,36,114,227
2,38,112,96
2,41,105,3
2,38,114,29
2,41,122,0
2,38,112,6
2,41,114,21
2,38,119,114
2,36,119,206
2,38,114,96
2,41,112,5
2,38,122,21
2,41,116,20
2,38,122,33
2,41,116,24
2,38,122,121
2,31,109,199
2,33,107,96
2,36,101,4
2,33,112,12
2,36,114,96
2,33,116,1
2,36,114,7
2,33,116,98
2,31,119,178
2,33,112,96
2,36,105,10
2,33,119,17
2,36,109,4
2,33,116,8
2,36,105,15
2,33,116,98
2,36,114,227
2,38,112,96
2,41,105,3
2,38,114,29
2,41,122,17
2,38,112,6
2,41,114,21
2,38,119,114
2,36,119,206
2,38,114,96
2,41,112,5
2,38,122,21
2,41,116,20
2,38,122,33
2,41,116,24
2,38,122,121
2,31,109,199
2,33,107,96
2,36,101,4
2,33,112,12
2,36,114,96
2,33,116,1
2,36,114,7
2,33,116,98
2,31,119,178
2,33,112,96
2,36,105,10
2,33,119,17
2,36,109,4
2,33,116,8
2,36,105,15
2,33,116,98
2,38,114,247
2,39,114,93
2,40,109,98
2,35,107,24
2,40,109,15
2,43,112,101
2,44,116,118
2,45,112,113
2,43,114,89
2,41,114,147
2,40,112,149
2,38,114,163
2,38,109,166
2,33,103,96
2,38,112,5
2,33,103,134
2,38,103,14
2,33,103,6
2,38,114,96
2,33,103,254
2,38,114,192
2,38,112,148
2,39,116,98
2,40,109,121
2,35,107,56
2,28,114,128
2,43,114,163
2,44,119,111
2,45,114,117
2,43,114,129
2,41,116,148
2,40,107,158
2,38,119,160
2,33,107,14
2,38,119,90
2,36,107,96
2,33,109,12
2,32,124,42
2,31,116,69
2,31,109,167
2,31,109,189
2,31,112,170
2,43,122,172
2,38,114,384
2,43,116,134
2,41,103,96
2,38,116,83
2,36,119,63
2,38,119,113
2,41,122,0
2,38,112,6
2,41,114,21
2,38,119,114
2,36,119,206
2,38,114,96
2,41,112,5
2,38,122,21
2,41,116,20
2,38,122,33
2,41,116,24
2,38,122,121
2,31,109,199
2,33,107,96
2,36,101,4
2,33,112,12
2,36,114,96
2,33,116,1
2,36,114,7
2,33,116,98
2,31,119,178
2,33,112,96
2,36,105,10
2,33,119,17
2,36,109,4
2,33,116,8
2,36,105,15
2,33,116,98
2,36,114,227
2,38,112,96
2,41,105,3
2,38,114,29
2,41,122,17
2,38,112,6
2,41,114,21
2,38,119,114
2,36,119,206
2,38,114,96
2,41,112,5
2,38,122,21
2,41,116,20
2,38,122,33
2,41,116,24
2,38,122,121
2,31,109,199
2,33,107,96
2,36,101,4
2,33,112,12
2,36,114,96
2,33,116,1
2,36,114,7
2,33,116,98
2,31,119,178
2,33,112,96
2,36,105,10
2,33,119,17
2,36,109,4
2,33,116,8
2,36,105,15
2,33,116,98
2,38,114,247
2,39,114,93
2,40,109,98
2,35,107,24
2,40,109,15
2,43,112,101
2,44,116,118
2,45,112,113
2,43,114,89
2,41,114,147
2,40,112,149
2,38,114,163
2,38,109,166
2,33,103,96
2,38,112,5
2,33,103,134
2,38,103,14
2,33,103,6
2,38,114,96
2,33,103,254
2,38,114,192
2,38,112,148
2,39,116,98
2,40,109,121
2,35,107,56
2,28,114,128
2,43,114,163
2,44,119,111
2,45,114,117
2,43,114,129
2,41,116,148
2,40,107,158
2,38,119,160
2,33,107,14
2,38,119,90
2,36,107,96
2,33,109,12
2,32,124,42
2,31,116,69
2,31,109,167
2,31,109,189
2,31,112,170
2,43,122,172
2,38,114,384
2,43,116,134
2,41,103,96
2,38,116,83
2,36,119,63
2,38,119,113
2,41,122,0
2,38,112,6
2,41,114,21
2,38,119,114
2,36,119,206
2,38,114,96
2,41,112,5
2,38,122,21
2,41,116,20
2,38,122,33
2,41,116,24
2,38,122,121
2,31,109,199
2,33,107,96
2,36,101,4
2,33,112,12
2,36,114,96
2,33,116,1
2,36,114,7
2,33,116,98
2,31,119,178
2,33,112,96
2,36,105,10
2,33,119,17
2,36,109,4
2,33,116,8
2,36,105,15
2,33,116,98
2,36,114,227
2,38,112,96
2,41,105,3
2,38,114,29
2,41,122,17
2,38,112,6
2,41,114,21
2,38,119,114
2,36,119,206
2,38,114,96
2,41,112,5
2,38,122,21
2,41,116,20
2,38,122,33
2,41,116,24
2,38,122,121
2,31,109,199
2,33,107,96
2,36,101,4
2,33,112,12
2,36,114,96
2,33,116,1
2,36,114,7
2,33,116,98
2,31,119,178
2,33,112,96
2,36,105,10
2,33,119,17
2,36,109,4
2,33,116,8
2,36,105,15
2,33,116,98
2,31,107,227
2,33,96,96
2,36,89,14
2,33,96,96
2,36,109,85
2,43,105,8720
2,45,101,96
2,48,98,1
2,45,101,96
2,50,114,84
2,50,109,185
2,48,103,155
2,45,103,12
2,48,119,94
2,45,116,730
2,43,109,58
2,40,101,83
2,38,98,90
2,36,101,72
2,43,109,411
2,45,101,96
2,48,98,4
2,45,105,96
2,50,116,0
2,50,96,138
2,48,107,157
2,45,103,9
2,48,116,96
2,45,109,221
2,43,94,96
2,40,103,87
2,38,103,83
2,36,96,63
2,36,103,355
2,38,103,96
2,41,101,4
2,38,109,2
2,41,122,0
2,38,112,6
2,41,114,21
2,38,119,114
2,36,119,206
2,38,114,96
2,41,112,5
2,38,122,21
2,41,116,20
2,38,122,33
2,41,116,24
2,38,122,121
2,31,109,199
2,33,107,96
2,36,101,4
2,33,112,12
2,36,114,96
2,33,116,1
2,36,114,7
2,33,116,98
2,31,119,178
2,33,112,96
2,36,105,10
2,33,119,17
2,36,109,4
2,33,116,8
2,36,105,15
2,33,116,98
2,36,114,227
2,38,112,96
2,41,105,3
2,38,114,29
2,41,122,17
2,38,112,6
2,41,114,21
2,38,119,114
2,36,119,206
2,38,114,96
2,41,112,5
2,38,122,21
2,41,116,20
2,38,122,33
2,41,116,24
2,38,122,121
2,31,109,199
2,33,107,96
2,36,101,4
2,33,112,12
2,36,114,96
2,33,116,1
2,36,114,7
2,33,116,98
2,31,119,178
2,33,112,96
2,36,105,10
2,33,119,17
2,36,109,4
2,33,116,8
2,36,105,15
2,33,116,98
2,36,114,227
2,38,112,96
2,41,105,3
2,38,114,29
2,41,122,0
2,38,112,6
2,41,114,21
2,38,119,114
2,36,119,206
2,38,114,96
2,41,112,5
2,38,122,21
2,41,116,20
2,38,122,33
2,41,116,24
2,38,122,121
2,31,109,199
2,33,107,96
2,36,101,4
2,33,112,12
2,36,114,96
2,33,116,1
2,36,114,7
2,33,116,98
2,31,119,178
2,33,112,96
2,36,105,10
2,33,119,17
2,36,109,4
2,33,116,8
2,36,105,15
2,33,116,98
2,36,114,227
2,38,112,96
2,41,105,3
2,38,114,29
2,41,122,17
