track,note,velocity,time
2,36,70,9216
2,36,70,336
2,36,70,336
2,36,70,336
2,36,70,336
2,36,70,336
2,36,70,336
2,36,70,336
2,36,70,336
2,36,70,336
2,36,70,336
2,36,70,336
2,36,70,336
2,36,70,336
2,36,70,336
2,36,70,336
2,36,70,336
2,36,70,336
2,36,70,336
2,36,70,336
2,36,70,336
2,36,70,336
2,36,70,336
2,36,70,336
2,36,70,336
2,36,70,336
2,36,70,336
2,36,70,336
2,36,70,336
2,36,70,336
2,36,70,336
2,36,70,336
2,36,70,336
2,36,70,336
2,36,70,336
2,36,70,336
2,36,70,336
2,36,70,336
2,36,70,336
2,36,70,336
2,36,70,336
2,36,70,336
2,36,70,336
2,36,70,336
2,36,70,336
2,36,70,336
2,36,70,336
2,36,70,336
2,36,70,336
2,36,70,336
2,36,70,336
2,36,70,336
2,36,70,336
2,36,70,336
2,36,70,336
2,36,70,336
2,36,70,336
2,36,70,336
2,36,70,336
2,36,70,336
2,36,70,336
2,36,70,336
2,36,70,336
2,36,70,336
2,36,70,336
2,36,70,336
2,36,70,336
2,36,70,336
2,36,70,336
2,36,70,336
2,36,70,336
2,36,70,336
2,36,70,336
2,36,70,336
2,36,70,336
2,36,70,336
2,36,70,336
2,36,70,336
2,36,70,336
2,36,70,336
2,36,70,336
2,36,70,336
2,36,70,336
2,36,70,336
2,36,70,336
2,36,70,336
2,36,70,336
2,36,70,336
2,36,70,336
2,36,70,336
2,36,70,336
2,36,70,336
2,36,70,336
2,36,70,336
2,36,70,336
2,36,70,336
2,36,70,336
2,36,70,336
2,36,70,336
2,36,70,336
2,36,70,336
2,36,70,336
2,36,70,336
2,36,70,336
2,36,70,336
2,36,70,336
2,36,70,336
2,36,70,336
2,36,70,336
2,36,70,336
2,36,70,336
2,36,70,336
2,36,70,336
2,36,70,336
2,36,70,336
2,36,70,336
2,36,70,336
2,36,70,336
2,36,70,336
2,36,70,336
2,36,70,336
2,36,70,336
2,36,70,336
2,36,70,336
2,36,70,336
2,36,70,336
2,36,70,336
2,36,70,336
2,36,70,336
2,36,70,336
2,36,70,336
2,36,70,336
2,36,70,336
2,36,70,336
2,36,70,336
2,36,70,336
2,36,70,336
2,36,70,336
2,36,70,336
2,36,70,336
2,36,70,336
2,36,70,336
2,36,70,336
2,36,70,336
2,36,70,336
2,36,70,336
2,36,70,336
2,36,70,336
2,36,70,336
2,36,70,336
2,36,70,336
2,36,70,336
2,36,70,336
2,36,70,336
2,36,70,336
2,36,70,336
2,36,70,336
2,36,70,336
2,36,70,336
2,36,70,336
2,36,70,336
2,36,70,336
2,36,70,336
2,36,70,336
2,36,70,336
2,36,70,336
2,36,70,336
2,36,70,336
2,36,70,336
2,36,70,336
2,36,70,336
2,36,70,336
2,36,70,336
2,36,70,336
2,36,70,336
2,36,70,336
2,36,70,336
2,36,70,336
2,36,70,336
2,36,70,336
2,36,70,336
2,36,70,336
2,36,70,336
2,36,70,336
2,36,70,336
2,36,70,336
2,36,70,336
2,36,70,336
2,36,70,336
2,36,70,336
2,36,70,336
2,36,70,336
2,36,70,336
2,36,70,336
2,36,70,336
2,36,70,336
2,36,70,336
2,36,70,336
2,36,70,336
2,36,70,336
2,36,70,336
2,36,70,336
2,36,70,336
2,36,70,336
2,36,70,336
2,36,70,336
2,36,70,336
2,36,70,336
2,36,70,336
2,36,70,336
2,36,70,336
2,36,70,336
2,36,70,336
2,36,70,336
2,36,70,336
2,36,70,336
2,36,70,336
2,36,70,336
2,36,70,336
2,36,70,336
2,36,70,336
2,36,70,336
2,36,70,336
2,36,70,336
2,36,70,336
2,36,70,336
2,36,70,336
2,36,70,336
2,36,70,336
2,36,70,336
2,36,70,336
2,36,70,336
2,36,70,336
2,36,70,336
2,36,70,336
2,36,70,336
2,36,70,336
2,36,70,336
2,36,70,336
2,36,70,336
2,36,70,336
2,36,70,336
2,36,70,336
2,36,70,336
2,36,70,336
2,36,70,336
2,36,70,336
2,36,70,336
2,36,70,336
2,36,70,336
2,36,70,336
2,36,70,336
2,36,70,336
2,36,70,336
2,36,70,336
2,36,70,336
2,36,70,336
2,36,70,336
2,36,70,336
2,36,70,336
2,36,70,336
2,36,70,336
2,36,70,336
2,36,70,336
2,36,70,336
2,36,70,336
2,36,70,336
2,36,70,336
2,36,70,336
2,36,70,336
2,36,70,336
2,36,70,336
2,36,70,336
2,36,70,336
2,36,70,336
2,36,70,336
2,36,70,336
2,36,70,336
2,36,70,336
2,36,70,336
2,36,70,336
2,36,70,336
2,36,70,336
2,36,70,336
2,36,70,336
2,36,70,336
2,36,70,336
2,36,70,336
2,36,70,336
2,36,70,336
2,36,70,336
2,36,70,336
2,36,70,336
2,36,70,336
2,36,70,336
2,36,70,336
2,36,70,336
2,36,70,336
2,36,70,336
2,36,70,336
2,36,70,336
2,36,70,336
2,36,70,336
2,36,70,336
2,36,70,336
2,36,70,336
2,36,70,336
2,36,70,336
2,36,70,336
2,36,70,336
2,36,70,336
2,36,70,336
2,36,70,336
2,36,70,336
2,36,70,336
2,36,70,336
2,36,70,336
2,36,70,336
2,36,70,336
2,36,70,336
2,36,70,336
2,36,70,336
2,36,70,336
2,36,70,336
2,36,70,336
2,36,70,336
2,36,70,336
2,36,70,336
2,36,70,336
2,36,70,336
2,36,70,336
2,36,70,336
2,36,70,336
2,36,70,336
2,36,70,336
2,36,70,336
2,36,70,336
2,36,70,336
2,36,70,336
2,36,70,336
2,36,70,336
2,36,70,336
2,36,70,336
2,36,70,336
2,36,70,336
2,36,70,336
2,36,70,336
2,36,70,336
2,36,70,336
2,36,70,336
2,36,70,336
2,36,70,336
2,36,70,336
2,36,70,336
2,36,70,336
2,36,70,336
2,36,70,336
2,36,70,336
2,36,70,336
2,36,70,336
2,36,70,336
2,36,70,336
2,36,70,336
2,36,70,336
2,36,70,336
2,36,70,336
2,36,70,336
2,36,70,336
2,36,70,336
2,36,70,336
2,36,70,336
2,36,70,336
2,36,70,336
2,36,70,336
2,36,70,336
2,36,70,336
2,36,70,336
2,36,70,336
2,36,70,336
2,36,70,336
2,36,70,336
2,36,70,336
2,36,70,336
2,36,70,336
2,36,70,336
2,36,70,336
2,36,70,336
2,36,70,336
2,36,70,336
2,36,70,336
2,36,70,336
2,36,70,336
2,36,70,336
2,36,70,336
2,36,70,336
2,36,70,336
2,36,70,336
2,36,70,336
2,36,70,336
2,36,70,336
2,36,70,336
2,36,70,336
2,36,70,336
2,36,70,336
2,36,70,336
2,36,70,336
2,36,70,336
2,36,70,336
2,36,70,336
2,36,70,336
2,36,70,336
2,36,70,336
2,36,70,336
2,36,70,336
2,36,70,336
2,36,70,336
2,36,70,336
2,36,70,336
2,36,70,336
2,36,70,336
2,36,70,336
2,36,70,336
2,36,70,336
2,36,70,336
2,36,70,336
2,36,70,336
2,36,70,336
2,36,70,336
2,36,70,336
2,36,70,336
2,36,70,336
2,36,70,336
2,36,70,336
2,36,70,336
2,36,70,336
2,36,70,336
2,36,70,336
2,36,70,336
2,36,70,336
2,36,70,336
2,36,70,336
2,36,70,336
2,36,70,336
2,36,70,336
2,36,70,336
2,36,70,336
2,36,70,336
2,36,70,336
2,36,70,336
2,36,70,336
2,36,70,336
2,36,70,336
2,36,70,336
2,36,70,336
2,36,70,336
2,36,70,336
2,36,70,336
2,36,70,336
2,36,70,336
2,36,70,336
2,36,70,336
2,36,70,336
2,36,70,336
2,36,70,336
2,36,70,336
2,36,70,336
2,36,70,336
2,36,70,336
2,36,70,336
2,36,70,336
2,36,70,336
2,36,70,336
2,36,70,336
2,36,70,336
2,36,70,336
2,36,70,336
2,36,70,336
2,36,70,336
2,36,70,336
2,36,70,336
2,36,70,336
2,36,70,336
2,36,70,336
2,36,70,336
2,36,70,336
2,36,70,336
2,36,70,336
2,36,70,336
2,36,70,336
2,36,70,336
2,36,70,336
2,36,70,336
2,36,70,336
2,36,70,336
2,36,70,336
2,36,70,336
2,36,70,336
2,36,70,336
2,36,70,336
2,36,70,336
2,36,70,336
2,36,70,336
2,36,70,336
2,36,70,336
2,36,70,336
2,36,70,336
2,36,70,336
2,36,70,336
2,36,70,336
2,36,70,336
2,36,70,336
2,36,70,336
2,36,70,336
2,36,70,336
2,36,70,336
2,36,70,336
2,36,70,336
2,36,70,336
2,36,70,336
2,36,70,336
3,37,85,9600
3,37,85,720
3,37,75,240
3,37,85,432
3,37,85,720
3,37,75,240
3,37,85,432
3,37,85,720
3,37,75,240
3,37,85,432
3,37,85,720
3,37,85,720
3,37,85,720
3,37,75,240
3,37,85,432
3,37,85,720
3,37,85,720
3,37,85,720
3,37,75,240
3,37,85,432
3,37,85,720
3,37,75,240
3,37,85,432
3,37,85,720
3,37,75,240
3,37,85,432
3,37,85,720
3,37,75,240
3,37,85,432
3,37,85,720
3,37,75,240
3,37,85,432
3,37,85,720
3,37,75,240
3,37,85,432
3,37,85,720
3,37,75,240
3,37,85,432
3,37,85,720
3,37,75,240
3,37,85,432
3,37,85,720
3,37,85,720
3,37,85,720
3,37,75,240
3,37,85,432
3,37,85,720
3,37,75,240
3,37,85,432
3,37,85,720
3,37,85,720
3,37,85,720
3,37,75,240
3,37,85,432
3,37,85,720
3,37,85,720
3,37,85,720
3,37,75,240
3,37,85,432
3,37,85,720
3,37,85,720
3,37,85,720
3,37,75,240
3,37,85,432
3,37,85,720
3,37,85,720
3,37,85,720
3,37,75,240
3,37,85,432
3,37,85,720
3,37,85,720
3,37,75,240
3,37,85,432
3,37,85,720
3,37,75,240
3,37,85,432
3,37,85,720
3,37,75,240
3,37,85,432
3,37,85,720
3,37,75,240
3,37,85,432
3,37,85,720
3,37,75,240
3,37,85,432
3,37,85,720
3,37,85,1488
3,37,85,720
3,37,75,240
3,37,85,432
3,37,85,720
3,37,75,240
3,37,85,432
3,37,85,720
3,37,75,240
3,37,85,432
3,37,85,720
3,37,85,720
3,37,85,720
3,37,75,240
3,37,85,432
3,37,85,720
3,37,85,720
3,37,85,720
3,37,75,240
3,37,85,432
3,37,85,720
3,37,75,240
3,37,85,432
3,37,85,720
3,37,75,240
3,37,85,432
3,37,85,720
3,37,75,240
3,37,85,432
3,37,85,720
3,37,85,720
3,37,85,720
3,37,75,240
3,37,85,432
3,37,85,720
3,37,75,240
3,37,85,432
3,37,85,720
3,37,75,240
3,37,85,432
3,37,85,720
3,37,85,720
3,37,85,720
3,37,75,240
3,37,85,432
3,37,85,720
3,37,75,240
3,37,85,432
3,37,85,720
3,37,85,720
3,37,85,720
3,37,75,240
3,37,85,432
3,37,85,720
3,37,85,720
3,37,85,720
3,37,75,240
3,37,85,432
3,37,85,720
3,37,85,720
3,37,85,720
3,37,75,240
3,37,85,432
3,37,85,720
3,37,85,720
3,37,85,720
3,37,75,240
3,37,85,432
3,37,85,720
3,37,85,720
3,37,75,240
3,37,85,432
3,37,85,720
3,37,75,240
3,37,85,432
3,37,85,720
3,37,85,720
3,37,75,240
3,37,85,432
3,37,85,720
3,37,75,240
3,37,85,432
3,37,85,720
3,37,75,240
3,37,85,1968
3,37,85,720
3,37,85,720
3,37,85,720
3,37,75,240
3,37,85,432
3,37,85,720
3,37,85,720
3,37,85,720
3,37,85,720
3,37,85,720
3,37,85,720
3,37,85,720
3,37,75,240
3,37,85,432
3,37,85,720
3,37,85,720
3,37,85,720
3,37,75,240
3,37,85,432
3,37,85,720
3,37,85,720
3,37,85,720
3,37,75,240
3,37,85,432
3,37,85,720
3,37,85,720
3,37,85,720
3,37,85,720
3,37,85,720
3,37,75,240
3,37,85,432
3,37,85,720
3,37,85,720
3,37,85,720
3,37,75,240
3,37,85,432
3,37,85,720
3,37,85,720
3,37,85,720
3,37,75,240
3,37,85,432
3,37,85,720
3,37,85,720
3,37,85,720
3,37,75,240
3,37,85,432
3,37,85,720
3,37,85,720
3,37,75,240
3,37,85,432
3,37,85,720
3,37,75,240
3,37,85,432
3,37,85,720
3,37,85,720
3,37,75,240
3,37,85,432
3,37,85,720
3,37,75,240
3,37,85,432
3,37,85,720
3,37,75,240
3,37,85,432
3,37,85,336
3,37,85,1104
3,37,85,720
3,37,75,240
3,37,85,432
3,37,85,720
3,37,85,720
3,37,85,720
3,37,75,240
3,37,85,432
3,37,85,720
3,37,85,720
3,37,85,720
3,37,75,240
3,37,85,432
3,37,85,720
3,37,85,720
3,37,85,720
3,37,75,240
3,37,85,432
3,37,85,720
3,37,85,720
3,37,85,720
3,37,75,240
3,37,85,432
3,37,85,720
3,37,85,720
3,37,85,720
3,37,85,720
3,37,85,720
3,37,75,240
3,37,85,432
3,37,85,720
3,37,75,240
3,37,85,432
3,37,85,720
3,37,85,720
3,37,85,720
3,37,75,240
3,37,85,432
3,37,85,1488
3,37,85,720
3,37,75,240
3,37,85,432
3,37,85,720
3,37,85,720
3,37,75,240
3,37,85,432
3,37,85,720
3,37,85,720
3,37,75,240
3,37,85,432
3,37,85,720
3,37,85,720
3,37,85,720
3,37,75,240
3,37,85,432
3,37,85,720
3,37,85,720
3,37,85,720
3,37,75,240
3,37,85,432
3,37,85,720
3,37,85,720
3,37,85,720
3,37,75,240
3,37,85,432
3,37,75,240
3,37,85,432
3,37,85,720
3,37,85,720
3,37,75,240
3,37,85,432
3,37,85,720
3,37,85,720
3,37,85,720
3,37,75,240
3,37,85,432
3,37,85,720
3,37,85,720
3,37,85,1488
3,37,85,720
3,37,85,720
3,37,85,720
3,37,75,240
3,37,85,432
3,37,75,240
3,37,85,432
3,37,85,720
3,37,85,720
3,37,75,240
3,37,85,432
3,37,85,720
3,37,85,720
3,37,85,720
3,37,75,240
3,37,85,432
3,37,85,720
3,37,85,720
4,40,29,9024
4,40,49,48
4,40,82,48
4,40,61,144
4,40,83,48528
4,40,75,47952
4,40,37,144
4,40,58,48
4,40,72,48
4,40,61,48
4,40,69,48
4,40,64,48
4,40,83,48
4,40,61,144
4,40,83,144
4,40,37,39888
4,40,58,48
4,40,72,48
5,42,68,9600
5,42,82,152
5,42,68,152
5,42,82,152
5,42,68,152
5,42,82,152
5,42,68,152
5,42,82,152
5,42,68,152
5,42,82,152
5,42,68,152
5,42,82,152
5,42,68,152
5,42,82,152
5,42,68,152
5,42,82,152
5,42,68,152
5,42,82,152
5,42,68,152
5,42,82,152
5,42,68,152
5,42,82,152
5,42,68,152
5,42,82,152
5,42,68,152
5,42,82,152
5,42,68,152
5,42,82,152
5,42,68,152
5,42,82,152
5,42,68,152
5,42,82,152
5,42,68,152
5,42,82,152
5,42,68,152
5,42,82,152
5,42,68,152
5,42,82,152
5,42,68,152
5,42,82,152
5,42,68,152
5,42,82,152
5,42,68,152
5,42,82,152
5,42,68,152
5,42,82,152
5,42,68,152
5,42,82,152
5,42,68,152
5,42,82,152
5,42,68,152
5,42,82,152
5,42,68,152
5,42,82,152
5,42,68,152
5,42,82,152
5,42,68,152
5,42,82,152
5,42,68,152
5,42,82,152
5,42,68,152
5,42,82,152
5,42,68,152
5,42,82,152
5,42,68,152
5,42,82,152
5,42,68,152
5,42,82,152
5,42,68,152
5,42,82,152
5,42,68,152
5,42,82,152
5,42,68,152
5,42,82,152
5,42,68,152
5,42,82,152
5,42,68,152
5,42,82,152
5,42,68,152
5,42,82,152
5,42,68,152
5,42,82,152
5,42,68,152
5,42,82,152
5,42,68,152
5,42,82,152
5,42,68,152
5,42,82,152
5,42,68,152
5,42,82,152
5,42,68,152
5,42,82,152
5,42,68,152
5,42,82,152
5,42,68,152
5,42,82,152
5,42,68,152
5,42,82,152
5,42,68,152
5,42,82,152
5,42,68,152
5,42,82,152
5,42,68,152
5,42,82,152
5,42,68,152
5,42,82,152
5,42,68,152
5,42,82,152
5,42,68,152
5,42,82,152
5,42,68,152
5,42,82,152
5,42,68,152
5,42,82,152
5,42,68,152
5,42,82,152
5,42,68,152
5,42,82,152
5,42,68,152
5,42,82,152
5,42,68,152
5,42,82,152
5,42,68,152
5,42,82,152
5,42,68,152
5,42,82,152
5,42,68,152
5,42,82,152
5,42,68,152
