track,note,velocity,time
1,64,86,1896
1,67,94,0
1,72,92,0
1,64,79,80
1,72,74,0
1,67,80,0
1,64,70,84
1,67,81,0
1,72,73,0
1,64,86,68
1,67,96,0
1,72,90,0
1,64,70,76
1,67,82,0
1,72,75,0
1,64,78,64
1,67,87,0
1,72,75,0
1,67,95,62
1,64,90,0
1,72,87,0
1,64,73,56
1,67,86,0
1,72,72,0
1,64,112,84
1,67,100,0
1,72,91,0
1,64,73,122
1,67,82,0
1,72,79,0
1,64,79,86
1,67,86,0
1,72,81,0
1,67,92,74
1,64,88,0
1,72,90,0
1,64,72,70
1,72,76,0
1,67,80,0
1,64,75,80
1,72,82,0
1,67,84,0
1,64,94,70
1,72,93,0
1,67,91,0
1,72,90,66
1,64,90,0
1,67,84,0
1,65,107,114
1,69,82,0
1,72,84,0
1,65,70,80
1,69,102,0
1,72,64,0
1,65,79,106
1,72,85,0
1,69,86,0
1,72,94,98
1,65,91,0
1,69,99,0
1,65,78,82
1,72,71,0
1,69,83,0
1,72,90,90
1,65,81,0
1,69,86,0
1,65,127,78
1,72,100,0
1,69,98,0
1,65,78,94
1,72,70,0
1,69,82,0
1,67,127,92
1,71,88,0
1,65,93,0
1,65,78,92
1,71,71,0
1,67,82,0
1,71,93,88
1,65,76,0
1,67,85,0
1,71,109,70
1,67,105,0
1,65,96,0
1,71,70,68
1,67,77,0
1,65,72,0
1,71,83,92
1,67,87,0
1,65,82,0
1,71,122,86
1,67,93,0
1,65,83,0
1,71,84,90
1,67,83,0
1,65,85,0
1,64,84,104
1,72,115,0
1,67,92,0
1,72,74,88
1,64,76,0
1,67,75,0
1,64,80,94
1,67,79,0
1,72,79,0
1,64,84,66
1,72,93,0
1,67,97,0
1,64,80,70
1,72,76,0
1,67,81,0
1,64,85,68
1,72,91,0
1,67,82,0
1,64,87,72
1,72,95,0
1,67,96,0
1,64,101,72
1,72,102,0
1,67,82,0
1,64,91,112
1,72,98,0
1,67,98,0
1,64,73,74
1,72,78,0
1,67,81,0
1,64,87,78
1,72,90,0
1,67,89,0
1,64,90,72
1,72,99,0
1,67,96,0
1,64,96,64
1,72,105,0
1,67,82,0
1,64,77,96
1,72,84,0
1,67,83,0
1,72,104,94
1,64,84,0
1,67,86,0
1,72,73,86
1,67,79,0
1,64,74,0
1,65,88,102
1,69,101,0
1,72,88,0
1,65,71,56
1,72,67,0
1,69,79,0
1,72,127,86
1,65,81,0
1,69,92,0
1,72,100,94
1,65,99,0
1,69,106,0
1,72,79,78
1,65,78,0
1,69,82,0
1,65,78,96
1,72,85,0
1,69,88,0
1,65,87,88
1,72,92,0
1,69,89,0
1,65,76,80
1,69,86,0
1,72,80,0
1,71,101,104
1,67,92,0
1,65,87,0
1,65,75,82
1,67,84,0
1,71,74,0
1,71,81,94
1,65,82,0
1,67,84,0
1,65,94,82
1,71,92,0
1,67,98,0
1,71,67,80
1,67,77,0
1,65,77,0
1,71,76,74
1,65,81,0
1,67,81,0
1,71,86,68
1,65,82,0
1,67,91,0
1,67,100,64
1,65,87,0
1,71,84,0
1,64,86,62
1,67,94,0
1,72,92,0
1,64,79,80
1,72,74,0
1,67,80,0
1,64,70,84
1,67,81,0
1,72,73,0
1,64,86,68
1,67,96,0
1,72,90,0
1,64,70,76
1,67,82,0
1,72,75,0
1,64,78,64
1,67,87,0
1,72,75,0
1,67,95,62
1,64,90,0
1,72,87,0
1,64,73,56
1,67,86,0
1,72,72,0
1,64,112,84
1,67,100,0
1,72,91,0
1,64,73,122
1,67,82,0
1,72,79,0
1,64,79,86
1,67,86,0
1,72,81,0
1,67,92,74
1,64,88,0
1,72,90,0
1,64,72,70
1,72,76,0
1,67,80,0
1,64,75,80
1,72,82,0
1,67,84,0
1,64,94,70
1,72,93,0
1,67,91,0
1,72,90,66
1,64,90,0
1,67,84,0
1,65,107,114
1,69,82,0
1,72,84,0
1,65,70,80
1,69,102,0
1,72,64,0
1,65,79,106
1,72,85,0
1,69,86,0
1,72,94,98
1,65,91,0
1,69,99,0
1,65,78,82
1,72,71,0
1,69,83,0
1,72,90,90
1,65,81,0
1,69,86,0
1,65,127,78
1,72,100,0
1,69,98,0
1,65,78,94
1,72,70,0
1,69,82,0
1,67,127,92
1,71,88,0
1,65,93,0
1,65,78,92
1,71,71,0
1,67,82,0
1,71,93,88
1,65,76,0
1,67,85,0
1,71,109,70
1,67,105,0
1,65,96,0
1,71,70,68
1,67,77,0
1,65,72,0
1,71,83,92
1,67,87,0
1,65,82,0
1,71,122,86
1,67,93,0
1,65,83,0
1,71,84,90
1,67,83,0
1,65,85,0
1,69,90,104
1,65,95,0
1,65,74,128
1,69,73,0
1,69,82,92
1,65,81,0
1,69,90,106
1,65,93,0
1,67,91,106
1,71,90,0
1,67,82,134
1,71,77,0
1,72,102,92
1,69,99,0
1,69,84,78
1,72,84,0
1,74,102,96
1,71,104,0
1,71,80,130
1,74,76,0
1,69,117,94
1,72,100,0
1,69,84,78
1,72,82,0
1,67,106,112
1,71,101,0
1,71,75,118
1,67,85,0
1,65,107,116
1,69,120,0
1,67,90,0
1,69,86,98
1,65,78,0
1,64,86,110
1,67,90,0
1,67,87,102
1,64,89,0
1,67,90,116
1,64,83,0
1,64,117,98
1,62,91,0
1,67,96,0
1,64,95,96
1,67,90,0
1,62,81,0
1,64,79,74
1,62,77,0
1,67,75,0
1,64,117,78
1,60,110,0
1,67,99,0
1,64,81,90
1,67,76,0
1,60,79,0
1,64,99,102
1,62,105,0
1,67,97,0
1,64,82,88
1,62,73,0
1,67,74,0
1,64,79,90
1,62,75,0
1,67,76,0
1,60,113,84
1,64,105,0
1,67,97,0
1,67,82,102
1,60,82,0
1,64,83,0
1,60,82,100
1,64,86,0
1,67,86,0
1,67,102,90
1,60,100,0
1,64,100,0
1,67,86,118
1,64,88,0
1,60,82,0
1,72,115,128
1,64,91,0
1,67,95,0
1,64,77,64
1,67,82,0
1,72,82,0
1,64,72,86
1,72,78,0
1,67,77,0
1,64,93,70
1,72,98,0
1,67,97,0
1,64,86,60
1,71,91,0
1,67,81,0
1,64,71,62
1,71,79,0
1,67,77,0
1,71,96,68
1,64,88,0
1,67,89,0
1,71,82,62
1,64,75,0
1,67,79,0
1,64,106,60
1,67,100,0
1,70,100,0
1,64,62,86
1,70,71,0
1,67,76,0
1,64,77,78
1,67,80,0
1,70,83,0
1,64,95,56
1,67,101,0
1,70,97,0
1,64,77,86
1,67,82,0
1,70,76,0
1,64,84,98
1,70,81,0
1,67,79,0
1,64,94,90
1,70,97,0
1,67,100,0
1,70,73,96
1,64,71,0
1,67,77,0
1,65,103,82
1,60,127,0
1,69,127,0
1,69,59,98
1,60,54,0
1,65,69,0
1,69,86,112
1,60,77,0
1,65,83,0
1,69,105,88
1,60,95,0
1,65,106,0
1,69,77,102
1,60,70,0
1,65,71,0
1,60,74,106
1,69,79,0
1,65,76,0
1,60,90,78
1,69,94,0
1,65,99,0
1,69,86,90
1,65,78,0
1,60,79,0
1,65,109,124
1,62,122,0
1,68,95,0
1,68,76,122
1,62,56,0
1,65,80,0
1,65,82,108
1,62,91,0
1,68,78,0
1,65,111,68
1,62,94,0
1,68,99,0
1,62,64,94
1,65,81,0
1,68,76,0
1,65,81,88
1,68,76,0
1,62,71,0
1,62,83,64
1,68,97,0
1,65,100,0
1,68,73,54
1,65,78,0
1,62,63,0
1,64,110,78
1,67,96,0
1,64,77,70
1,67,76,0
1,64,82,112
1,67,86,0
1,64,91,102
1,67,94,0
1,64,77,92
1,67,80,0
1,64,84,104
1,67,80,0
1,64,90,106
1,67,90,0
1,64,80,70
1,67,77,0
1,69,102,120
1,60,88,0
1,64,98,0
1,60,79,74
1,64,90,0
1,69,77,0
1,60,73,84
1,69,80,0
1,64,84,0
1,60,100,64
1,69,97,0
1,64,100,0
1,60,74,90
1,69,84,0
1,64,86,0
1,60,76,92
1,69,81,0
1,64,85,0
1,69,94,72
1,60,92,0
1,64,94,0
1,60,76,88
1,64,82,0
1,69,82,0
1,65,109,68
1,69,92,0
1,69,70,132
1,65,74,0
1,69,82,110
1,65,84,0
1,72,101,106
1,69,91,0
1,65,93,0
1,69,83,120
1,65,78,0
1,72,70,0
1,69,84,94
1,65,81,0
1,72,82,0
1,72,97,62
1,69,96,0
1,65,96,0
1,65,84,82
1,69,80,0
1,72,66,0
1,67,110,120
1,65,99,0
1,71,91,0
1,71,61,70
1,67,75,0
1,65,82,0
1,71,85,88
1,67,91,0
1,65,89,0
1,71,90,70
1,67,90,0
1,65,90,0
1,67,78,66
1,71,70,0
1,65,81,0
1,67,80,124
1,71,77,0
1,65,81,0
1,67,90,74
1,71,88,0
1,65,97,0
1,67,98,82
1,71,86,0
1,65,95,0
1,64,86,78
1,67,94,0
1,72,92,0
1,64,79,80
1,72,74,0
1,67,80,0
1,64,70,84
1,67,81,0
1,72,73,0
1,64,86,68
1,67,96,0
1,72,90,0
1,64,70,76
1,67,82,0
1,72,75,0
1,64,78,64
1,67,87,0
1,72,75,0
1,67,95,62
1,64,90,0
1,72,87,0
1,64,73,56
1,67,86,0
1,72,72,0
1,64,112,84
1,67,100,0
1,72,91,0
1,64,73,122
1,67,82,0
1,72,79,0
1,64,79,86
1,67,86,0
1,72,81,0
1,67,92,74
1,64,88,0
1,72,90,0
1,64,72,70
1,72,76,0
1,67,80,0
1,64,75,80
1,72,82,0
1,67,84,0
1,64,94,70
1,72,93,0
1,67,91,0
1,72,90,66
1,64,90,0
1,67,84,0
1,65,107,114
1,69,82,0
1,72,84,0
1,65,70,80
1,69,102,0
1,72,64,0
1,65,79,106
1,72,85,0
1,69,86,0
1,72,94,98
1,65,91,0
1,69,99,0
1,65,78,82
1,72,71,0
1,69,83,0
1,72,90,90
1,65,81,0
1,69,86,0
1,65,127,78
1,72,100,0
1,69,98,0
1,65,78,94
1,72,70,0
1,69,82,0
1,67,127,92
1,71,88,0
1,65,93,0
1,65,78,92
1,71,71,0
1,67,82,0
1,71,93,88
1,65,76,0
1,67,85,0
1,71,109,70
1,67,105,0
1,65,96,0
1,71,70,68
1,67,77,0
1,65,72,0
1,71,83,92
1,67,87,0
1,65,82,0
1,71,122,86
1,67,93,0
1,65,83,0
1,71,84,90
1,67,83,0
1,65,85,0
1,69,90,104
1,65,95,0
1,65,74,128
1,69,73,0
1,69,82,92
1,65,81,0
1,69,90,106
1,65,93,0
1,67,91,106
1,71,90,0
1,67,82,134
1,71,77,0
1,72,102,92
1,69,99,0
1,69,84,78
1,72,84,0
1,74,102,96
1,71,104,0
1,71,80,130
1,74,76,0
1,69,117,94
1,72,100,0
1,69,84,78
1,72,82,0
1,67,106,112
1,71,101,0
1,71,75,118
1,67,85,0
1,65,107,116
1,69,120,0
1,67,90,0
1,69,86,98
1,65,78,0
1,64,86,110
1,67,90,0
1,67,87,102
1,64,89,0
1,67,90,116
1,64,83,0
1,64,117,98
1,62,91,0
1,67,96,0
1,64,95,96
1,67,90,0
1,62,81,0
1,64,79,74
1,62,77,0
1,67,75,0
1,64,117,78
1,60,110,0
1,67,99,0
1,64,81,90
1,67,76,0
1,60,79,0
1,64,99,102
1,62,105,0
1,67,97,0
1,64,82,88
1,62,73,0
1,67,74,0
1,64,79,90
1,62,75,0
1,67,76,0
1,60,113,84
1,64,105,0
1,67,97,0
1,67,82,102
1,60,82,0
1,64,83,0
1,60,82,100
1,64,86,0
1,67,86,0
1,67,102,90
1,60,100,0
1,64,100,0
1,67,86,118
1,64,88,0
1,60,82,0
1,72,115,128
1,64,91,0
1,67,95,0
1,64,77,64
1,67,82,0
1,72,82,0
1,64,72,86
1,72,78,0
1,67,77,0
1,64,93,70
1,72,98,0
1,67,97,0
1,64,86,60
1,71,91,0
1,67,81,0
1,64,71,62
1,71,79,0
1,67,77,0
1,71,96,68
1,64,88,0
1,67,89,0
1,71,82,62
1,64,75,0
1,67,79,0
1,64,106,60
1,67,100,0
1,70,100,0
1,64,62,86
1,70,71,0
1,67,76,0
1,64,77,78
1,67,80,0
1,70,83,0
1,64,95,56
1,67,101,0
1,70,97,0
1,64,77,86
1,67,82,0
1,70,76,0
1,64,84,98
1,70,81,0
1,67,79,0
1,64,94,90
1,70,97,0
1,67,100,0
1,70,73,96
1,64,71,0
1,67,77,0
1,65,103,82
1,60,127,0
1,69,127,0
1,69,59,98
1,60,54,0
1,65,69,0
1,69,86,112
1,60,77,0
1,65,83,0
1,69,105,88
1,60,95,0
1,65,106,0
1,69,77,102
1,60,70,0
1,65,71,0
1,60,74,106
1,69,79,0
1,65,76,0
1,60,90,78
1,69,94,0
1,65,99,0
1,69,86,90
1,65,78,0
1,60,79,0
1,65,109,124
1,62,122,0
1,68,95,0
1,68,76,122
1,62,56,0
1,65,80,0
1,65,82,108
1,62,91,0
1,68,78,0
1,65,111,68
1,62,94,0
1,68,99,0
1,62,64,94
1,65,81,0
1,68,76,0
1,65,81,88
1,68,76,0
1,62,71,0
1,62,83,64
1,68,97,0
1,65,100,0
1,68,73,54
1,65,78,0
1,62,63,0
1,64,110,78
1,67,96,0
1,64,77,70
1,67,76,0
1,64,82,112
1,67,86,0
1,64,91,102
1,67,94,0
1,64,77,92
1,67,80,0
1,64,84,104
1,67,80,0
1,64,90,106
1,67,90,0
1,64,80,70
1,67,77,0
1,72,108,120
1,65,109,0
1,69,94,0
1,65,83,112
1,72,79,0
1,69,88,0
1,65,79,98
1,69,83,0
1,72,77,0
1,65,85,68
1,72,81,0
1,69,86,0
1,71,86,66
1,67,90,0
1,65,80,0
1,71,64,46
1,65,71,0
1,67,67,0
1,71,82,82
1,65,81,0
1,67,84,0
1,67,82,60
1,71,77,0
1,65,78,0
1,72,98,84
1,64,127,0
1,67,96,0
1,64,55,88
1,67,69,0
1,72,55,0
1,64,84,90
1,72,89,0
1,67,87,0
1,64,97,96
1,67,98,0
1,72,90,0
1,64,80,90
1,67,82,0
1,72,77,0
1,67,88,86
1,72,86,0
1,64,85,0
1,72,99,80
1,67,95,0
1,64,86,0
1,67,86,74
1,72,82,0
1,64,84,0
1,63,95,78
1,68,97,0
1,72,92,0
1,63,71,40
1,72,79,0
1,68,79,0
1,72,91,88
1,68,87,0
1,63,86,0
1,63,90,82
1,68,97,0
1,72,99,0
1,68,80,90
1,63,78,0
1,72,84,0
1,72,97,60
1,63,81,0
1,68,87,0
1,63,97,64
1,72,98,0
1,68,96,0
1,63,86,72
1,68,91,0
1,72,82,0
1,65,86,70
1,68,94,0
1,73,92,0
1,65,79,80
1,73,74,0
1,68,80,0
1,65,70,84
1,68,81,0
1,73,73,0
1,65,86,68
1,68,96,0
1,73,90,0
1,65,70,76
1,68,82,0
1,73,75,0
1,65,78,64
1,68,87,0
1,73,75,0
1,68,95,62
1,65,90,0
1,73,87,0
1,65,73,56
1,68,86,0
1,73,72,0
1,65,112,84
1,68,100,0
1,73,91,0
1,65,73,122
1,68,82,0
1,73,79,0
1,65,79,86
1,68,86,0
1,73,81,0
1,68,92,74
1,65,88,0
1,73,90,0
1,65,72,70
1,73,76,0
1,68,80,0
1,65,75,80
1,73,82,0
1,68,84,0
1,65,94,70
1,73,93,0
1,68,91,0
1,73,90,66
1,65,90,0
1,68,84,0
1,66,107,114
1,70,82,0
1,73,84,0
1,66,70,80
1,70,102,0
1,73,64,0
1,66,79,106
1,73,85,0
1,70,86,0
1,73,94,98
1,66,91,0
1,70,99,0
1,66,78,82
1,73,71,0
1,70,83,0
1,73,90,90
1,66,81,0
1,70,86,0
1,66,127,78
1,73,100,0
1,70,98,0
1,66,78,94
1,73,70,0
1,70,82,0
1,68,127,92
1,72,88,0
1,66,93,0
1,66,78,92
1,72,71,0
1,68,82,0
1,72,93,88
1,66,76,0
1,68,85,0
1,72,109,70
1,68,105,0
1,66,96,0
1,72,70,68
1,68,77,0
1,66,72,0
1,72,83,92
1,68,87,0
1,66,82,0
1,72,122,86
1,68,93,0
1,66,83,0
1,72,84,90
1,68,83,0
