track,note,velocity,time
0,52,104,84
0,78,62,310
0,83,63,34
0,88,62,40
0,71,109,0
0,76,88,0
0,88,108,0
0,69,78,334
0,76,70,32
0,81,68,0
0,66,108,0
0,69,104,0
0,81,100,0
0,76,62,210
0,78,61,34
0,81,75,30
0,85,77,0
0,61,114,0
0,66,104,0
0,78,108,0
0,75,65,202
0,81,80,36
0,84,64,0
0,60,111,0
0,68,99,0
0,80,108,0
0,51,99,226
0,52,109,0
0,76,74,230
0,78,66,34
0,83,69,40
0,59,111,0
0,76,103,0
0,88,103,0
0,76,65,14
0,81,66,0
0,57,109,0
0,66,102,0
0,81,110,0
0,40,79,112
0,72,73,16
0,75,70,34
0,80,71,0
0,80,103,16
0,84,75,22
0,69,79,156
0,74,71,34
0,78,74,30
0,76,111,16
0,81,79,22
0,71,64,144
0,76,70,34
0,80,64,30
0,76,111,32
0,83,76,6
0,33,112,0
0,52,86,0
0,61,117,0
0,61,103,384
0,66,105,0
0,64,116,0
0,71,111,0
0,59,97,64
0,61,110,32
0,59,116,32
0,40,125,16
0,76,103,0
0,69,112,0
0,57,105,16
0,61,111,0
0,64,109,0
0,59,100,64
0,57,98,32
0,59,106,32
0,33,113,16
0,66,103,0
0,54,74,0
0,62,119,0
0,61,121,16
0,61,107,16
0,64,102,0
0,71,113,0
0,52,62,0
0,59,104,64
0,61,108,32
0,59,107,32
0,33,108,16
0,63,108,0
0,69,116,0
0,53,70,0
0,61,103,16
0,66,104,0
0,64,112,0
0,52,95,0
0,60,121,32
0,61,123,48
0,35,112,16
0,66,110,0
0,62,123,0
0,86,74,340
0,90,70,22
0,57,114,16
0,69,109,0
0,93,67,4
0,35,116,16
0,76,102,0
0,86,67,340
0,90,62,22
0,62,107,16
0,66,103,0
0,74,113,0
0,95,74,4
0,57,105,0
0,69,111,0
0,40,121,16
0,67,99,0
0,70,105,0
0,63,118,0
0,64,127,16
0,80,75,148
0,83,76,22
0,68,110,16
0,71,97,0
0,88,68,4
0,40,115,20
0,73,112,112
0,78,62,10
0,66,80,2
0,80,64,2
0,76,73,2
0,70,99,0
0,71,110,16
0,35,113,0
0,78,103,0
0,71,113,0
0,47,127,0
0,57,127,0
0,35,124,16
0,83,108,0
0,78,112,0
0,47,127,0
0,62,127,0
0,66,125,0
0,68,127,256
0,81,116,16
0,69,122,16
0,38,116,16
0,69,109,0
0,38,127,0
0,57,127,0
0,71,120,0
0,78,106,336
0,40,113,16
0,76,107,0
0,71,111,0
0,40,127,0
0,62,127,0
0,69,117,0
0,71,126,48
0,69,127,48
0,68,118,16
0,66,127,80
0,45,118,0
0,69,122,0
0,45,127,0
0,57,127,0
0,64,119,0
0,66,96,12
0,88,63,322
0,92,64,24
0,97,77,22
0,100,72,14
0,40,114,16
0,68,95,16
0,56,108,0
0,90,61,2
0,88,72,2
0,83,68,2
0,86,73,2
0,81,74,174
0,84,67,28
0,87,76,24
0,33,121,16
0,71,87,0
0,60,103,0
0,63,109,0
0,60,108,0
0,69,113,0
0,57,127,0
0,95,64,4
0,81,73,224
0,85,74,28
0,88,61,24
0,69,94,16
0,61,105,0
0,64,114,0
0,61,108,0
0,93,77,4
0,35,119,16
0,66,89,0
0,62,109,0
0,40,117,16
0,64,87,0
0,61,106,0
0,57,127,0
0,59,123,80
0,33,116,16
0,54,61,0
0,61,119,0
0,73,107,192
0,80,102,16
0,52,85,0
0,81,110,16
0,45,116,8
0,90,100,8
0,54,67,0
0,61,116,0
0,66,104,8
0,33,112,18
0,83,72,0
0,95,88,0
0,61,127,0
0,54,86,36
0,54,94,8
0,54,79,18
0,78,90,2
0,54,83,16
0,54,91,14
0,73,84,4
0,66,117,0
0,54,93,12
0,54,87,12
0,54,81,12
0,71,99,24
0,71,73,0
0,83,76,0
0,54,89,10
0,54,92,12
0,54,89,12
0,54,82,14
0,54,78,20
0,54,94,10
0,54,94,20
0,54,96,8
0,54,82,12
0,45,112,2
0,70,96,0
0,82,87,0
0,94,79,0
0,54,88,8
0,54,82,16
0,54,96,8
0,78,85,2
0,54,92,0
0,54,95,12
0,73,78,4
0,54,86,12
0,54,80,4
0,54,84,18
0,70,78,26
0,82,82,0
0,52,92,12
0,52,85,20
0,52,78,10
0,52,93,14
0,52,90,8
0,52,77,16
0,64,127,10
0,52,81,8
0,52,96,20
0,38,106,14
0,54,72,0
0,57,127,0
0,80,105,16
0,52,76,0
0,57,127,0
0,81,106,16
0,38,117,16
0,88,102,0
0,54,78,0
0,86,101,16
0,38,114,20
0,53,78,0
0,57,127,0
0,64,90,4
0,52,80,0
0,52,89,8
0,57,72,16
0,52,85,10
0,59,73,14
0,52,77,22
0,64,83,0
0,65,79,8
0,52,93,4
0,69,82,16
0,64,118,0
0,52,83,2
0,71,87,22
0,52,94,6
0,76,91,0
0,52,91,18
0,65,74,8
0,69,105,6
0,52,80,2
0,69,89,6
0,52,84,12
0,71,77,6
0,52,84,12
0,76,87,20
0,52,88,12
0,77,89,16
0,52,89,8
0,81,74,4
0,52,81,12
0,83,86,16
0,52,84,6
0,88,75,18
0,52,89,14
0,93,80,0
0,52,95,2
0,38,122,16
0,73,102,0
0,85,74,0
0,97,85,0
0,52,78,10
0,52,94,8
0,52,86,8
0,52,94,10
0,52,88,14
0,52,94,14
0,52,90,12
0,52,96,12
0,50,81,12
0,71,105,4
0,62,95,0
0,83,81,0
0,95,77,0
0,50,86,16
0,50,81,16
0,50,96,10
0,50,87,8
0,62,127,8
0,50,82,12
0,50,86,16
0,40,123,12
0,52,90,0
0,61,117,0
0,75,107,384
0,76,98,16
0,40,125,16
0,83,98,0
0,80,111,16
0,81,102,16
0,85,109,16
0,40,109,16
0,62,116,0
0,86,99,0
0,78,105,0
0,54,95,0
0,62,127,0
0,64,126,48
0,62,120,48
0,61,106,16
0,88,106,0
0,85,109,0
0,76,102,0
0,52,58,0
0,61,127,0
0,35,118,16
0,92,98,0
0,80,98,0
0,56,76,0
0,59,127,80
0,90,101,16
0,78,115,0
0,54,78,0
0,57,127,48
0,57,86,8
0,62,79,40
0,66,88,32
0,40,109,16
0,40,87,0
0,59,116,0
0,69,88,16
0,81,71,276
0,86,67,20
0,90,71,20
0,81,97,4
0,81,98,0
0,93,73,8
0,83,68,186
0,86,80,20
0,90,66,12
0,83,105,4
0,83,101,0
0,95,70,8
0,74,73,204
0,78,65,20
0,83,76,12
0,74,89,4
0,74,101,0
0,86,77,8
0,76,61,210
0,80,74,20
0,83,73,12
0,76,100,4
0,76,101,0
0,88,76,8
0,68,64,208
0,71,69,20
0,74,65,12
0,68,89,4
0,78,80,0
0,78,65,8
0,68,73,224
0,71,66,20
0,74,72,12
0,71,99,4
0,78,80,0
0,78,69,8
0,76,65,204
0,88,63,40
0,100,70,6
0,76,88,0
0,88,99,0
0,52,74,104
0,57,83,40
0,61,83,0
0,33,110,16
0,52,82,0
0,61,127,0
0,64,83,16
0,71,99,320
0,69,108,16
0,40,111,16
0,63,104,0
0,64,98,16
0,33,115,16
0,66,101,0
0,59,110,0
0,54,57,0
0,62,120,0
0,61,120,16
0,61,111,16
0,64,114,0
0,57,110,0
0,52,72,0
0,33,109,16
0,63,111,0
0,68,109,0
0,60,107,0
0,56,86,0
0,64,100,16
0,66,105,0
0,61,113,0
0,54,84,0
0,60,127,128
0,61,122,48
0,54,78,34
0,57,80,0
0,35,111,16
0,62,106,0
0,62,76,0
0,62,120,0
0,73,101,336
0,71,104,16
0,35,112,16
0,65,97,0
0,66,106,16
0,40,120,16
0,61,106,0
0,40,96,0
0,63,127,0
0,64,127,16
0,78,114,192
0,76,114,16
0,40,120,16
0,62,102,0
0,70,106,0
0,35,112,16
0,66,91,0
0,71,107,0
0,47,127,0
0,57,127,0
0,66,117,640
0,35,120,16
0,78,109,0
0,47,126,0
0,62,124,0
0,68,127,0
0,69,127,16
0,38,116,16
0,69,116,0
0,38,127,0
0,57,122,0
0,71,117,0
0,69,124,80
0,68,127,112
0,40,109,16
0,68,100,0
0,71,116,0
0,40,127,0
0,62,127,0
0,66,127,48
0,68,122,16
0,66,127,16
0,45,109,16
0,64,89,0
0,69,123,0
0,45,127,0
0,57,127,0
0,64,122,0
0,40,118,16
0,60,100,0
0,80,107,0
0,76,98,0
0,60,86,0
0,78,99,80
0,74,97,0
0,72,109,80
0,68,108,0
0,33,116,16
0,61,112,0
0,73,115,0
0,69,100,0
0,61,77,0
0,69,110,0
0,57,127,0
0,69,115,16
0,66,106,0
0,64,103,16
0,66,90,16
0,57,109,0
0,57,127,0
0,65,90,16
0,56,98,0
0,59,126,16
0,33,124,16
0,64,96,0
0,52,81,0
0,61,127,0
0,56,98,384
0,57,115,16
0,45,115,8
0,66,97,8
0,64,104,16
0,61,127,0
0,33,115,16
0,55,79,0
0,61,123,0
0,61,98,8
0,79,73,318
0,85,74,18
0,90,74,2
0,66,122,14
0,95,80,8
0,45,117,20
0,73,63,284
0,76,63,34
0,79,80,22
0,85,62,2
0,64,127,14
0,88,70,8
0,94,74,8
0,38,125,0
0,54,94,0
0,69,123,0
0,81,80,300
0,90,73,40
0,93,62,6
0,57,98,0
0,61,97,16
0,62,107,0
0,57,110,0
0,66,109,16
0,62,113,0
0,69,112,0
0,66,99,0
0,78,106,16
0,74,114,0
0,81,115,0
0,77,115,0
0,53,91,0
0,74,109,10
0,86,62,270
0,89,69,50
0,93,69,26
0,69,97,6
0,65,99,0
0,41,80,0
0,57,116,0
0,59,118,16
0,61,127,80
0,52,87,8
0,57,74,40
0,61,90,32
0,64,100,16
0,40,93,0
0,64,89,0
0,55,82,24
0,57,85,40
0,61,89,32
0,57,112,16
0,67,99,0
0,63,112,0
0,39,95,0
0,67,75,0
0,61,119,0
0,54,84,70
0,59,80,44
0,62,86,2
0,66,80,40
0,38,94,16
0,66,127,0
0,71,89,6
0,74,87,24
0,78,78,14
0,56,123,112
0,65,110,112
0,56,107,0
0,40,85,0
0,56,127,0
0,56,118,112
0,52,73,40
0,57,75,40
0,61,77,32
0,33,92,0
0,57,127,0
0,64,73,16
0,78,104,320
0,76,107,16
0,68,97,0
0,64,111,0
0,37,95,0
0,57,108,384
0,69,100,16
0,71,115,0
0,42,95,0
0,69,103,16
0,63,100,16
0,61,97,0
0,63,97,0
0,35,57,0
0,50,97,16
0,60,105,0
0,64,113,0
0,34,85,0
0,33,123,112
0,64,122,0
0,69,112,0
0,73,109,0
0,57,126,0
0,45,127,6
0,57,98,378
0,61,82,0
0,64,97,0
0,40,107,20
0,85,115,0
0,57,96,384
0,61,91,0
0,64,97,0
0,83,108,16
0,33,106,16
0,66,117,0
0,69,110,0
0,74,109,0
0,45,123,0
0,59,127,0
0,57,97,16
0,61,91,0
0,64,84,0
0,64,116,0
0,69,125,0
0,73,107,0
0,45,127,0
0,57,127,0
0,33,125,16
0,66,123,0
0,69,113,0
0,72,111,0
0,54,127,0
0,57,127,0
0,57,92,16
0,61,94,0
0,64,85,0
0,69,110,0
0,73,117,0
0,52,124,0
0,57,127,0
0,35,119,16
0,69,118,0
0,74,114,0
0,47,127,0
0,57,122,0
0,54,87,384
0,57,94,0
0,62,88,0
0,86,103,0
0,78,102,0
0,35,125,16
0,93,107,0
0,90,112,0
0,54,98,16
0,57,97,0
0,62,87,0
0,81,102,0
0,78,113,0
0,40,123,16
0,79,97,0
0,75,111,0
0,67,123,0
0,70,120,0
0,75,111,0
0,46,127,0
0,58,127,0
0,56,92,16
0,59,84,0
0,64,97,0
0,80,110,0
0,76,105,0
0,68,121,0
0,71,125,0
0,76,119,0
0,47,127,0
0,59,125,0
0,40,110,16
0,73,113,192
0,73,104,0
0,73,116,0
0,56,92,0
0,59,86,0
0,64,82,0
0,70,113,0
0,70,102,0
0,70,110,0
0,71,110,0
0,71,100,0
0,71,113,0
0,35,108,0
0,78,115,0
0,78,97,0
0,78,112,0
0,71,124,0
0,74,111,0
0,78,108,0
0,54,96,384
0,57,87,0
0,62,87,0
0,54,127,0
0,35,106,0
0,56,127,0
0,54,97,16
0,57,86,0
0,62,89,0
0,59,108,0
0,66,124,0
0,71,119,0
0,57,127,0
0,59,127,80
0,38,120,16
0,62,122,0
0,71,125,0
0,74,118,0
0,54,81,16
0,57,83,0
0,62,91,0
0,57,127,0
0,40,114,16
0,76,125,0
0,56,127,0
0,56,88,384
0,59,92,0
0,64,87,0
0,54,127,176
0,45,125,20
0,52,127,0
0,57,84,384
0,61,79,0
0,64,94,0
0,69,111,0
0,73,122,0
0,76,117,0
0,40,107,16
0,80,101,0
0,72,107,0
0,60,113,0
0,64,118,0
0,68,113,0
0,83,113,80
0,76,110,0
0,56,95,16
0,60,94,0
0,64,90,0
0,69,107,0
0,73,111,0
0,76,109,0
0,81,108,16
0,73,107,0
0,45,110,16
0,75,98,0
0,72,111,0
0,68,114,0
0,51,84,0
0,60,107,0
0,63,115,0
0,68,107,0
0,57,90,16
0,61,93,0
0,64,80,0
0,76,107,0
0,73,102,0
0,69,104,0
0,52,93,0
0,61,107,0
0,64,108,0
0,69,119,0
0,57,123,16
0,49,126,0
0,57,126,0
0,59,123,16
0,52,127,0
0,59,127,0
0,33,123,16
0,73,62,0
0,85,60,0
0,61,121,0
0,52,126,0
0,61,127,0
0,73,62,144
0,85,70,0
0,57,88,144
0,61,83,0
0,64,96,0
0,73,72,0
0,85,69,0
0,40,109,8
0,73,68,8
0,85,69,0
0,59,124,0
0,61,121,0
0,52,127,0
0,59,127,0
0,73,60,144
0,85,66,0
0,56,81,144
0,61,89,0
0,64,96,0
0,73,63,0
0,85,62,0
0,33,107,16
0,73,59,0
0,85,60,0
0,59,114,0
0,61,119,0
0,45,127,0
0,52,126,0
0,59,127,0
0,76,77,144
0,88,75,0
0,55,83,16
0,61,87,0
0,64,88,0
0,69,70,0
0,81,70,0
0,59,107,0
0,66,115,0
0,45,127,0
0,54,127,0
0,59,127,0
0,71,68,112
0,83,59,0
0,33,114,20
0,73,66,0
0,85,62,0
0,55,97,16
0,61,80,0
0,64,94,0
0,64,107,0
0,38,122,16
0,74,70,0
0,86,74,0
0,64,116,0
0,69,120,0
0,54,127,0
0,64,127,0
0,74,75,144
0,86,67,0
0,54,86,144
0,57,97,0
0,64,90,0
0,74,71,0
0,86,72,0
0,38,123,16
0,74,69,0
0,86,65,0
0,62,108,0
0,69,108,0
0,54,127,0
0,62,127,0
0,74,72,144
0,86,77,0
0,54,87,144
0,57,91,0
0,62,83,0
0,74,71,0
0,86,66,0
0,38,113,16
0,74,75,0
0,86,75,0
0,62,121,0
0,69,123,0
0,53,127,0
0,62,127,0
0,77,73,144
0,89,71,0
0,53,89,16
0,57,91,0
0,64,95,0
0,76,69,0
0,88,62,0
0,64,111,0
0,69,111,0
0,76,110,0
0,53,126,0
0,64,127,0
0,69,64,112
0,81,73,0
0,38,107,20
0,71,76,0
0,83,62,0
0,64,73,16
0,76,69,0
0,53,79,16
0,57,80,0
0,62,92,0
0,65,66,0
0,77,67,0
0,65,117,0
0,69,118,0
0,74,107,0
0,53,122,0
0,59,126,0
0,40,113,16
0,64,118,0
0,69,115,0
0,73,121,0
0,52,127,0
0,61,127,0
0,57,85,384
0,61,83,0
0,64,93,0
0,40,119,20
0,57,84,384
0,61,97,0
0,64,81,0
0,33,112,16
0,66,121,0
0,71,118,0
0,74,119,0
0,54,125,0
0,62,127,0
0,57,96,16
0,61,89,0
0,64,91,0
0,64,106,0
0,69,106,0
0,73,120,0
0,52,127,0
0,61,125,0
0,35,113,16
0,63,118,0
0,68,113,0
0,71,116,0
0,51,127,0
0,59,127,0
0,54,95,16
0,57,79,0
0,63,79,0
0,63,109,0
0,66,112,0
0,69,122,0
0,49,123,0
0,57,127,0
0,40,107,16
0,62,106,0
0,66,109,0
0,71,123,0
0,47,127,0
0,59,124,0
0,56,87,384
0,59,97,0
0,62,98,0
0,90,102,0
0,85,111,0
0,88,115,16
0,83,97,0
0,35,124,16
0,82,97,0
0,79,116,0
0,56,97,384
