track,note,velocity,time
0,35,86,96
0,64,51,0
0,64,0,24
0,66,55,0
0,66,0,23
0,64,57,1
0,64,0,24
0,66,60,0
0,66,0,23
0,64,59,1
0,64,0,24
0,66,57,0
0,66,0,23
0,64,61,1
0,64,0,24
0,66,66,0
0,85,98,0
0,88,91,3
0,93,95,7
0,66,0,13
0,64,66,1
0,83,91,0
0,88,85,0
0,97,96,0
0,64,0,24
0,66,66,0
0,66,0,23
0,64,70,1
0,64,0,24
0,66,70,0
0,66,0,23
0,64,70,1
0,64,0,24
0,66,69,0
0,66,0,23
0,64,70,1
0,64,0,24
0,66,70,0
0,66,0,23
0,64,70,1
0,64,0,24
0,66,70,0
0,66,0,23
0,64,70,1
0,64,0,24
0,66,70,0
0,66,0,23
0,64,70,1
0,64,0,24
0,66,70,0
0,85,0,15
0,88,0,3
0,66,0,5
0,64,70,1
0,93,0,1
0,97,0,14
0,64,0,9
0,66,68,0
0,81,90,8
0,85,92,6
0,88,90,4
0,66,0,5
0,83,0,0
0,88,0,0
0,64,70,1
0,76,89,0
0,81,81,0
0,93,94,0
0,64,0,24
0,66,70,0
0,66,0,23
0,64,70,1
0,64,0,24
0,66,70,0
0,66,0,23
0,64,70,1
0,64,0,24
0,66,70,0
0,66,0,23
0,64,68,1
0,64,0,24
0,66,70,0
0,66,0,23
0,64,65,1
0,64,0,24
0,66,69,0
0,66,0,23
0,64,71,1
0,64,0,24
0,66,71,0
0,66,0,23
0,64,71,1
0,64,0,24
0,66,71,0
0,66,0,23
0,81,0,0
0,64,71,1
0,85,0,5
0,88,0,4
0,93,0,6
0,64,0,9
0,66,71,0
0,78,94,17
0,81,90,2
0,85,93,3
0,66,0,1
0,76,0,0
0,81,0,0
0,64,71,1
0,73,86,0
0,81,86,0
0,90,93,0
0,64,0,24
0,66,71,0
0,66,0,23
0,64,71,1
0,64,0,24
0,66,71,0
0,66,0,23
0,64,71,1
0,64,0,24
0,66,71,0
0,66,0,23
0,64,71,1
0,64,0,24
0,66,71,0
0,66,0,23
0,64,71,1
0,64,0,24
0,66,71,0
0,66,0,23
0,64,71,1
0,64,0,24
0,66,71,0
0,66,0,23
0,64,71,1
0,64,0,24
0,66,71,0
0,66,0,23
0,64,71,1
0,78,0,8
0,81,0,2
0,85,0,3
0,90,0,2
0,64,0,9
0,66,71,0
0,80,96,19
0,83,87,2
0,66,0,2
0,73,0,0
0,81,0,0
0,87,94,0
0,64,71,1
0,72,76,0
0,80,57,0
0,92,92,0
0,64,0,24
0,66,71,0
0,66,0,23
0,64,71,1
0,64,0,24
0,66,71,0
0,66,0,23
0,64,71,1
0,64,0,24
0,66,71,0
0,66,0,23
0,64,71,1
0,64,0,24
0,66,71,0
0,66,0,23
0,64,71,1
0,64,0,24
0,66,71,0
0,66,0,23
0,64,71,1
0,64,0,24
0,66,71,0
0,66,0,23
0,72,0,0
0,64,71,1
0,64,0,24
0,66,71,0
0,66,0,23
0,64,71,1
0,51,110,10
0,80,0,0
0,83,0,2
0,87,0,2
0,92,0,1
0,64,0,9
0,66,71,0
0,52,101,11
0,51,0,6
0,80,87,1
0,83,87,2
0,66,0,3
0,80,0,0
0,64,71,1
0,71,85,0
0,76,80,0
0,88,82,0
0,64,0,24
0,66,71,0
0,66,0,23
0,64,71,1
0,64,0,24
0,66,71,0
0,66,0,23
0,64,71,1
0,64,0,24
0,66,71,0
0,66,0,23
0,64,71,1
0,64,0,24
0,66,71,0
0,66,0,23
0,64,71,1
0,64,0,24
0,66,71,0
0,66,0,23
0,64,71,1
0,64,0,24
0,66,71,0
0,66,0,23
0,64,71,1
0,64,0,24
0,66,71,0
0,66,0,23
0,64,71,1
0,80,0,20
0,83,0,2
0,64,0,2
0,66,71,0
0,88,0,2
0,76,86,16
0,81,85,3
0,66,0,2
0,76,0,0
0,64,71,1
0,66,75,0
0,69,85,0
0,71,0,0
0,85,85,0
0,64,0,24
0,66,71,0
0,66,0,23
0,64,71,1
0,64,0,24
0,66,71,0
0,66,0,23
0,64,71,1
0,64,0,24
0,66,71,0
0,66,0,23
0,64,71,1
0,64,0,24
0,66,71,0
0,35,0,23
0,66,0,0
0,64,71,1
0,40,105,3
0,64,0,21
0,66,71,0
0,66,0,23
0,64,71,1
0,64,0,24
0,66,71,0
0,66,0,23
0,64,71,1
0,64,0,24
0,66,71,0
0,66,0,23
0,64,71,1
0,66,0,13
0,76,0,7
0,81,0,3
0,64,0,1
0,66,71,0
0,85,0,2
0,52,0,17
0,83,91,0
0,88,93,3
0,66,0,1
0,69,0,0
0,64,71,1
0,92,95,0
0,64,0,24
0,66,71,0
0,66,0,23
0,64,71,1
0,64,0,24
0,66,68,0
0,66,0,23
0,64,66,1
0,64,0,24
0,66,61,0
0,66,0,23
0,64,61,1
0,64,0,24
0,66,53,0
0,83,0,13
0,88,0,3
0,92,0,2
0,78,98,1
0,81,93,3
0,66,0,1
0,64,53,1
0,88,93,0
0,64,0,24
0,66,49,0
0,66,0,23
0,64,49,1
0,64,0,24
0,66,49,0
0,66,0,23
0,64,45,1
0,64,0,24
0,66,45,0
0,66,0,23
0,64,45,1
0,64,0,24
0,66,41,0
0,78,0,13
0,81,0,3
0,88,0,2
0,80,94,1
0,83,92,3
0,66,0,1
0,64,41,1
0,88,92,0
0,64,0,24
0,66,41,0
0,66,0,23
0,64,41,1
0,64,0,24
0,66,41,0
0,66,0,23
0,64,41,1
0,64,0,24
0,66,41,0
0,66,0,23
0,64,41,1
0,64,0,24
0,66,41,0
0,66,0,23
0,40,0,171
0,80,0,11
0,83,0,3
0,88,0,2
0,33,86,6
0,57,74,0
0,61,122,0
0,64,71,0
0,64,0,191
0,64,79,1
0,69,76,0
0,71,47,0
0,73,46,0
0,76,41,0
0,57,0,11
0,33,0,180
0,28,81,1
0,69,30,0
0,76,83,0
0,64,0,1
0,71,0,18
0,73,0,31
0,76,0,0
0,64,73,142
0,71,45,0
0,73,52,0
0,76,45,0
0,76,0,7
0,69,0,7
0,61,0,160
0,28,0,17
0,64,0,0
0,69,0,0
0,33,85,1
0,57,74,0
0,62,120,0
0,66,81,0
0,69,31,0
0,76,0,20
0,71,0,1
0,73,0,3
0,62,0,167
0,61,121,1
0,64,74,0
0,69,67,0
0,69,0,0
0,71,45,0
0,73,47,0
0,76,40,0
0,66,0,4
0,57,0,3
0,33,0,184
0,61,0,0
0,33,86,1
0,60,120,0
0,63,81,0
0,69,32,0
0,64,0,4
0,76,0,24
0,71,0,1
0,73,0,4
0,60,0,135
0,61,125,24
0,64,77,0
0,71,48,0
0,73,52,0
0,76,46,0
0,63,0,4
0,69,0,15
0,33,0,172
0,61,0,0
0,64,0,0
0,69,0,0
0,35,86,1
0,59,77,0
0,62,63,0
0,62,121,0
0,69,32,0
0,71,0,27
0,76,0,8
0,73,0,7
0,59,0,150
0,69,67,0
0,73,52,0
0,74,51,0
0,78,49,0
0,69,0,19
0,35,0,172
0,35,83,1
0,62,0,0
0,71,27,0
0,76,84,0
0,74,0,9
0,78,0,0
0,73,0,1
0,73,59,182
0,74,84,0
0,74,45,0
0,78,48,0
0,71,0,3
0,76,0,1
0,69,0,91
0,62,84,1
0,69,84,0
0,74,0,5
0,35,0,90
0,62,0,0
0,40,87,1
0,63,68,0
0,63,124,0
0,70,78,0
0,71,27,0
0,62,0,7
0,69,0,1
0,74,0,2
0,73,0,2
0,78,0,6
0,63,0,154
0,71,0,3
0,64,78,17
0,64,120,0
0,71,84,0
0,71,35,0
0,76,37,0
0,70,0,15
0,63,0,1
0,40,0,175
0,40,83,1
0,68,28,0
0,71,0,3
0,71,0,6
0,76,0,4
0,73,84,83
0,70,84,96
0,71,32,0
0,76,32,0
0,73,0,12
0,68,0,12
0,64,0,66
0,71,84,6
0,70,0,11
0,40,0,84
0,64,0,0
0,71,0,0
0,76,0,0
0,35,86,1
0,59,48,0
0,59,78,0
0,62,51,0
0,62,78,0
0,66,49,0
0,69,48,0
0,78,84,0
0,71,0,11
0,66,125,181
0,59,0,185
0,35,0,6
0,66,0,0
0,35,82,1
0,68,126,0
0,74,49,0
0,83,90,0
0,78,0,10
0,68,0,170
0,69,122,12
0,81,81,0
0,83,0,11
0,81,0,132
0,35,0,48
0,69,0,0
0,74,0,0
0,38,86,1
0,59,51,0
0,71,118,0
0,78,84,192
0,71,0,90
0,69,120,6
0,38,0,95
0,59,0,0
0,59,0,0
0,62,0,0
0,62,0,0
0,66,0,0
0,69,0,0
0,69,0,0
0,78,0,0
0,40,81,1
0,59,78,0
0,64,45,0
0,64,78,0
0,68,46,0
0,68,121,0
0,74,45,0
0,76,82,0
0,68,0,172
0,76,0,19
0,66,119,1
0,66,0,189
0,40,0,2
0,59,0,0
0,64,0,0
0,64,0,0
0,68,0,0
0,74,0,0
0,45,81,1
0,57,78,0
0,57,44,0
0,64,77,0
0,64,119,0
0,88,65,123
0,93,64,17
0,97,69,17
0,100,66,10
0,45,0,216
0,57,0,0
0,40,81,1
0,59,57,0
0,88,0,147
0,93,0,28
0,97,0,0
0,85,62,9
0,81,62,5
0,59,0,2
0,100,0,0
0,60,53,1
0,68,95,0
0,90,66,0
0,64,0,58
0,85,0,116
0,81,0,5
0,90,0,3
0,85,58,5
0,88,64,3
0,40,0,1
0,60,0,0
0,45,81,1
0,61,66,0
0,71,88,0
0,95,60,1
0,68,0,1
0,85,0,175
0,88,0,3
0,85,63,3
0,95,0,0
0,93,62,6
0,61,0,2
0,62,73,1
0,69,84,0
0,88,61,2
0,71,0,6
0,85,0,165
0,93,0,6
0,88,0,5
0,45,0,7
0,57,0,0
0,62,0,0
0,64,0,0
0,35,81,1
0,59,85,0
0,64,84,0
0,66,64,0
0,69,0,9
0,35,0,182
0,66,0,0
0,28,76,1
0,52,85,0
0,57,119,0
0,62,85,0
0,64,53,0
0,59,0,5
0,64,0,2
0,57,0,88
0,59,120,1
0,28,0,95
0,59,0,0
0,45,74,1
0,57,85,0
0,61,89,0
0,61,52,0
0,61,117,0
0,64,0,3
0,52,0,2
0,62,0,0
0,80,89,187
0,81,83,96
0,80,0,8
0,61,0,61
0,45,0,26
0,61,0,0
0,45,81,1
0,61,49,0
0,61,119,0
0,90,78,0
0,81,0,5
0,88,83,283
0,90,0,3
0,61,0,46
0,45,0,46
0,61,0,0
0,45,73,1
0,61,120,0
0,71,73,0
0,95,67,0
0,88,0,5
0,90,58,59
0,61,0,31
0,66,118,1
0,85,47,32
0,61,0,63
0,66,89,1
0,83,66,0
0,95,0,186
0,45,0,5
0,57,0,0
0,71,0,0
0,45,76,1
0,55,85,0
0,70,70,0
0,94,70,0
0,90,0,58
0,90,64,6
0,85,0,58
0,85,62,6
0,66,0,56
0,83,0,2
0,64,118,6
0,82,66,0
0,66,0,95
0,64,89,1
0,94,0,90
0,45,0,5
0,55,0,0
0,64,0,0
0,70,0,0
0,38,76,1
0,54,85,0
0,57,85,0
0,57,115,0
0,64,60,0
0,64,0,1
0,90,0,57
0,85,0,64
0,82,0,64
0,80,86,10
0,81,85,76
0,80,0,10
0,57,0,44
0,38,0,57
0,38,76,1
0,57,117,0
0,88,80,0
0,81,0,25
0,86,80,261
0,88,0,25
0,57,0,15
0,38,0,57
0,54,0,0
0,57,0,0
0,38,76,1
0,53,85,0
0,57,85,0
0,57,118,0
0,64,51,0
0,47,53,3
0,64,0,21
0,65,53,0
0,50,56,8
0,65,0,15
0,64,51,1
0,47,0,8
0,52,56,8
0,64,0,8
0,65,55,0
0,50,0,13
0,57,0,10
0,65,0,0
0,53,64,1
0,64,114,0
0,64,55,0
0,86,0,6
0,52,0,15
0,64,0,3
0,65,56,0
0,57,53,8
0,64,0,15
0,65,0,0
0,64,56,1
0,53,0,5
0,59,60,11
0,64,0,8
0,65,56,0
0,57,0,13
0,65,0,10
0,62,61,1
0,64,73,0
0,64,61,0
0,59,0,21
0,64,0,3
0,65,62,0
0,64,58,8
0,65,0,15
0,64,63,1
0,62,0,5
0,65,65,11
0,64,0,8
0,65,63,0
0,64,0,13
0,64,0,10
0,65,0,0
0,64,68,1
0,65,80,0
0,69,65,0
0,65,0,21
0,64,0,3
0,65,70,0
0,71,65,8
0,65,0,15
0,64,65,1
0,69,0,5
0,74,66,11
0,64,0,8
0,65,73,0
0,71,0,13
0,85,52,5
0,38,0,5
0,65,0,0
0,65,0,0
0,38,76,1
0,64,73,0
0,73,84,0
0,97,64,7
0,74,0,14
0,64,0,3
0,65,79,0
0,65,0,23
0,64,80,1
0,64,0,24
0,65,82,0
0,65,0,23
0,64,0,1
0,64,84,0
0,64,0,24
0,65,79,0
0,65,0,23
0,64,78,1
0,64,0,24
0,65,72,0
0,85,0,7
0,83,52,12
0,97,0,1
0,65,0,3
0,73,0,0
0,62,121,1
0,64,70,0
0,71,73,0
0,95,66,7
0,64,0,17
0,65,61,0
0,65,0,23
0,64,55,1
0,64,0,24
0,65,55,0
0,65,0,23
0,64,45,1
0,64,0,24
0,65,49,0
0,65,0,23
0,64,48,1
0,64,0,24
0,65,42,0
0,83,0,8
0,62,0,12
0,95,0,0
0,38,0,3
0,53,0,0
0,57,0,0
0,65,0,0
0,71,0,0
0,40,76,1
0,52,85,0
0,61,85,0
0,61,122,0
0,76,99,192
0,78,97,96
0,76,0,8
0,40,0,87
0,40,76,1
0,83,94,0
0,78,0,14
0,80,96,82
0,83,0,10
0,81,94,86
0,80,0,7
0,85,101,89
0,81,0,6
0,61,0,7
0,40,0,82
0,61,0,0
0,40,76,1
0,62,85,0
0,62,120,0
0,86,93,0
0,90,88,0
0,85,0,8
0,62,0,172
0,62,0,11
0,90,0,0
0,61,85,1
0,61,119,0
0,85,88,0
0,88,96,0
0,86,0,2
0,40,0,189
0,52,0,0
0,61,0,0
0,61,0,0
0,85,0,0
0,88,0,0
0,35,76,1
0,47,85,0
0,59,85,0
0,59,119,0
0,80,79,0
0,83,83,0
0,59,0,191
0,59,0,0
0,80,0,0
0,83,0,0
0,57,118,1
0,63,85,0
0,78,64,0
0,81,63,0
0,81,0,189
0,35,0,2
0,47,0,0
0,57,0,0
0,63,0,0
0,78,0,0
0,40,76,1
0,52,75,0
0,59,119,0
0,62,72,0
0,86,73,183
0,90,73,5
0,78,52,4
0,81,62,0
0,93,70,0
0,78,0,144
0,81,0,0
0,86,0,38
0,88,75,1
0,92,76,3
0,90,0,1
0,93,0,4
0,80,57,1
0,83,68,0
0,95,72,0
0,59,0,24
0,80,0,120
0,83,0,0
0,88,0,38
0,81,71,2
0,92,0,1
0,86,74,1
0,95,0,5
0,71,50,1
0,74,57,0
0,90,77,0
0,71,0,144
0,74,0,0
0,81,0,39
0,83,70,0
0,86,0,2
0,88,70,1
0,90,0,5
0,71,53,1
0,76,53,0
0,92,67,0
0,71,0,144
0,76,0,0
0,83,0,38
0,78,70,2
0,88,0,1
0,81,69,1
0,92,0,5
0,62,54,1
0,68,52,0
0,86,69,0
0,62,0,144
0,68,0,0
0,80,64,38
0,78,0,1
0,81,0,2
0,83,71,2
0,86,0,4
0,68,52,1
0,71,48,0
0,88,68,0
0,68,0,144
0,71,0,0
0,88,0,29
0,88,79,2
0,80,0,6
0,92,81,1
0,83,0,4
0,95,84,1
0,64,41,5
0,100,88,0
0,40,0,95
0,52,0,0
0,62,0,0
0,64,0,49
0,33,86,48
0,57,70,0
0,61,70,0
0,61,124,0
0,68,76,0
0,71,88,192
0,68,0,8
0,69,90,88
0,71,0,7
0,33,0,88
0,28,81,1
0,63,90,0
0,88,0,3
0,69,0,2
0,92,0,5
0,95,0,5
0,100,0,5
0,64,91,172
0,63,0,13
0,28,0,178
0,61,0,0
0,33,85,1
0,62,66,0
0,62,120,0
0,66,90,0
0,61,0,17
0,64,0,1
0,62,0,168
0,61,69,6
0,61,121,0
0,64,80,0
0,66,0,13
0,62,0,5
0,33,0,173
0,33,86,1
0,60,70,0
0,68,91,0
0,61,0,17
0,64,0,1
0,61,0,168
0,60,119,6
0,61,70,0
