track,note,velocity,time
0,44,65,32
0,44,0,4
0,44,73,188
0,44,0,4
0,44,86,188
0,44,0,4
0,31,98,92
0,38,76,0
0,38,0,4
0,38,87,44
0,38,0,4
0,31,0,22
0,34,98,22
0,35,90,0
0,38,94,0
0,35,0,4
0,38,0,0
0,38,94,44
0,38,0,4
0,34,0,34
0,35,98,10
0,35,80,0
0,38,112,0
0,35,0,4
0,38,0,0
0,35,0,86
0,35,101,6
0,36,98,0
0,48,63,0
0,48,63,0
0,49,56,0
0,35,0,4
0,49,0,0
0,42,39,92
0,42,0,4
0,38,103,92
0,42,59,0
0,54,63,0
0,63,63,0
0,72,79,0
0,67,79,1
0,67,79,1
0,63,63,1
0,38,0,1
0,42,0,0
0,54,0,0
0,72,79,0
0,36,0,32
0,35,84,60
0,36,87,0
0,42,58,0
0,48,0,0
0,48,0,0
0,87,79,0
0,35,0,4
0,42,0,0
0,36,0,26
0,87,0,46
0,35,103,20
0,36,87,0
0,42,59,0
0,48,75,0
0,48,75,0
0,89,93,0
0,35,0,4
0,42,0,0
0,63,0,18
0,63,0,3
0,72,0,5
0,72,0,4
0,67,0,9
0,67,0,1
0,42,42,52
0,63,75,0
0,72,83,0
0,67,83,1
0,67,83,1
0,63,75,1
0,42,0,1
0,72,83,0
0,48,0,46
0,48,0,0
0,89,0,12
0,38,102,34
0,42,59,0
0,48,79,0
0,48,79,0
0,54,51,0
0,90,105,0
0,38,0,4
0,42,0,0
0,54,0,0
0,91,93,12
0,90,0,2
0,36,0,28
0,35,72,50
0,36,80,0
0,42,39,0
0,35,0,4
0,42,0,0
0,48,0,6
0,48,0,0
0,63,0,2
0,67,0,1
0,67,0,1
0,72,0,0
0,63,0,1
0,72,0,3
0,36,0,12
0,91,0,48
0,35,97,18
0,36,80,0
0,42,59,0
0,48,61,0
0,72,89,0
0,94,93,0
0,68,75,1
0,63,59,1
0,63,59,1
0,35,0,1
0,42,0,0
0,48,61,0
0,68,75,0
0,72,89,2
0,94,0,66
0,42,39,24
0,90,93,0
0,42,0,4
0,90,0,12
0,91,83,0
0,91,0,70
0,63,0,6
0,63,0,1
0,38,103,3
0,42,59,0
0,54,51,0
0,38,0,4
0,42,0,0
0,54,0,0
0,48,0,8
0,48,0,4
0,36,0,18
0,72,0,6
0,72,0,6
0,68,0,3
0,68,0,3
0,35,84,44
0,36,83,0
0,42,48,0
0,67,75,0
0,74,83,0
0,70,61,1
0,70,61,1
0,67,75,1
0,35,0,1
0,42,0,0
0,74,83,0
0,36,0,24
0,35,105,68
0,36,87,0
0,42,59,0
0,35,0,4
0,42,0,0
0,74,0,54
0,70,0,3
0,70,0,1
0,74,0,0
0,67,0,2
0,67,0,3
0,36,0,27
0,31,98,2
0,42,56,0
0,67,75,0
0,74,89,0
0,87,89,0
0,70,75,1
0,70,75,1
0,67,75,1
0,42,0,1
0,74,89,0
0,87,0,76
0,31,0,4
0,34,98,12
0,38,103,0
0,42,59,0
0,48,63,0
0,48,63,0
0,54,51,0
0,86,71,0
0,38,0,4
0,42,0,0
0,54,0,0
0,86,0,62
0,34,0,20
0,35,93,10
0,42,60,0
0,84,71,0
0,42,0,4
0,74,0,36
0,67,0,2
0,74,0,2
0,67,0,1
0,70,0,0
0,70,0,1
0,48,0,6
0,48,0,0
0,35,0,30
0,35,95,14
0,36,93,0
0,42,63,0
0,48,79,0
0,48,79,0
0,35,0,4
0,42,0,0
0,42,41,92
0,42,0,4
0,38,97,92
0,42,62,0
0,54,67,0
0,63,63,0
0,72,89,0
0,67,79,1
0,67,79,1
0,63,63,1
0,38,0,1
0,42,0,0
0,54,0,0
0,72,89,0
0,36,0,14
0,84,0,68
0,35,79,10
0,36,87,0
0,42,60,0
0,87,97,0
0,35,0,4
0,42,0,0
0,48,0,22
0,48,0,0
0,36,0,8
0,87,0,48
0,35,98,14
0,36,83,0
0,42,63,0
0,48,79,0
0,48,79,0
0,89,93,0
0,35,0,4
0,42,0,0
0,63,0,24
0,63,0,3
0,72,0,1
0,72,0,4
0,67,0,3
0,67,0,1
0,42,45,56
0,63,67,0
0,72,93,0
0,67,83,1
0,67,83,1
0,63,67,1
0,42,0,1
0,72,93,0
0,48,0,58
0,48,0,0
0,89,0,4
0,38,97,30
0,42,61,0
0,54,55,0
0,90,101,0
0,38,0,4
0,42,0,0
0,54,0,0
0,90,0,6
0,91,89,6
0,36,0,20
0,35,67,60
0,36,80,0
0,42,43,0
0,48,61,0
0,48,61,0
0,35,0,4
0,42,0,0
0,63,0,16
0,63,0,3
0,72,0,1
0,72,0,4
0,36,0,4
0,67,0,21
0,67,0,1
0,48,0,10
0,48,0,0
0,91,0,10
0,35,92,22
0,36,87,0
0,42,63,0
0,48,71,0
0,72,71,0
0,94,79,0
0,68,75,1
0,63,67,1
0,63,67,1
0,35,0,1
0,42,0,0
0,48,71,0
0,68,75,0
0,72,71,2
0,94,0,80
0,42,41,10
0,90,101,0
0,42,0,4
0,90,0,8
0,91,94,4
0,91,0,48
0,38,97,32
0,42,62,0
0,54,55,0
0,38,0,4
0,42,0,0
0,54,0,0
0,36,0,12
0,68,0,27
0,48,0,3
0,68,0,0
0,48,0,4
0,72,0,2
0,72,0,6
0,63,0,4
0,63,0,1
0,35,79,33
0,36,93,0
0,42,50,0
0,48,63,0
0,72,93,0
0,87,97,0
0,67,79,1
0,63,79,1
0,63,79,1
0,35,0,1
0,42,0,0
0,48,63,0
0,67,79,0
0,72,93,2
0,36,0,26
0,35,100,64
0,36,93,0
0,42,63,0
0,35,0,4
0,42,0,0
0,48,0,22
0,48,0,4
0,36,0,50
0,31,98,16
0,42,60,0
0,48,65,0
0,48,65,0
0,42,0,4
0,63,0,16
0,63,0,1
0,72,0,11
0,72,0,6
0,67,0,3
0,67,0,3
0,31,0,40
0,34,98,12
0,38,98,0
0,42,62,0
0,54,55,0
0,63,63,0
0,72,83,0
0,67,75,1
0,67,75,1
0,63,63,1
0,38,0,1
0,42,0,0
0,54,0,0
0,72,83,0
0,87,0,12
0,48,0,34
0,48,0,0
0,34,0,36
0,35,83,10
0,42,55,0
0,48,75,0
0,48,75,0
0,42,0,4
0,67,0,29
0,63,0,1
0,67,0,0
0,72,0,2
0,63,0,1
0,48,0,3
0,48,0,0
0,72,0,0
0,35,0,42
0,35,99,14
0,36,83,0
0,42,58,0
0,48,63,0
0,48,63,0
0,35,0,4
0,42,0,0
0,42,45,92
0,42,0,4
0,38,100,92
0,42,56,0
0,54,70,0
0,63,63,0
0,72,79,0
0,67,79,1
0,67,79,1
0,63,63,1
0,38,0,1
0,42,0,0
0,54,0,0
0,72,79,0
0,36,0,8
0,35,83,84
0,36,87,0
0,42,55,0
0,48,0,0
0,48,0,0
0,87,79,0
0,35,0,4
0,42,0,0
0,36,0,28
0,87,0,44
0,35,100,20
0,36,80,0
0,42,57,0
0,48,75,0
0,48,75,0
0,89,93,0
0,35,0,4
0,42,0,0
0,63,0,18
0,63,0,3
0,72,0,5
0,72,0,4
0,67,0,9
0,67,0,1
0,42,49,52
0,63,75,0
0,72,83,0
0,67,83,1
0,67,83,1
0,63,75,1
0,42,0,1
0,72,83,0
0,48,0,46
0,48,0,0
0,89,0,12
0,38,100,34
0,42,56,0
0,48,79,0
0,48,79,0
0,54,57,0
0,90,105,0
0,38,0,4
0,42,0,0
0,54,0,0
0,90,0,14
0,91,93,6
0,36,0,22
0,35,70,50
0,36,87,0
0,42,37,0
0,35,0,4
0,42,0,0
0,48,0,6
0,48,0,0
0,63,0,2
0,67,0,1
0,67,0,1
0,72,0,0
0,63,0,1
0,72,0,3
0,36,0,12
0,91,0,56
0,35,94,10
0,36,87,0
0,42,57,0
0,48,61,0
0,72,89,0
0,94,93,0
0,68,75,1
0,63,59,1
0,63,59,1
0,35,0,1
0,42,0,0
0,48,61,0
0,68,75,0
0,72,89,2
0,94,0,66
0,42,44,24
0,90,93,0
0,42,0,4
0,90,0,12
0,91,83,8
0,63,0,68
0,63,0,1
0,91,0,1
0,38,100,2
0,42,55,0
0,54,57,0
0,38,0,4
0,42,0,0
0,54,0,0
0,48,0,8
0,48,0,4
0,36,0,8
0,72,0,16
0,72,0,6
0,68,0,3
0,68,0,3
0,35,82,44
0,36,93,0
0,42,53,0
0,67,75,0
0,74,83,0
0,70,61,1
0,70,61,1
0,67,75,1
0,35,0,1
0,42,0,0
0,74,83,0
0,36,0,24
0,35,101,68
0,36,87,0
0,42,56,0
0,35,0,4
0,42,0,0
0,74,0,54
0,70,0,3
0,70,0,1
0,74,0,0
0,67,0,2
0,67,0,3
0,36,0,19
0,31,98,10
0,42,62,0
0,67,75,0
0,74,89,0
0,87,89,0
0,70,75,1
0,70,75,1
0,67,75,1
0,42,0,1
0,74,89,0
0,87,0,76
0,31,0,10
0,34,98,6
0,38,100,0
0,42,55,0
0,48,63,0
0,48,63,0
0,54,56,0
0,86,71,0
0,38,0,4
0,42,0,0
0,54,0,0
0,86,0,62
0,34,0,18
0,35,76,12
0,42,57,0
0,84,71,0
0,42,0,4
0,74,0,36
0,67,0,2
0,74,0,2
0,67,0,1
0,70,0,0
0,70,0,1
0,48,0,6
0,48,0,0
0,35,0,30
0,35,101,14
0,36,93,0
0,42,59,0
0,48,79,0
0,48,79,0
0,35,0,4
0,42,0,0
0,42,38,92
0,42,0,4
0,38,102,92
0,42,59,0
0,54,63,0
0,63,63,0
0,72,89,0
0,67,79,1
0,67,79,1
0,63,63,1
0,38,0,1
0,42,0,0
0,54,0,0
0,72,89,0
0,36,0,32
0,84,0,50
0,35,84,10
0,36,83,0
0,42,58,0
0,87,97,0
0,35,0,4
0,42,0,0
0,48,0,22
0,48,0,0
0,36,0,8
0,87,0,48
0,35,102,14
0,36,80,0
0,42,59,0
0,48,79,0
0,48,79,0
0,89,93,0
0,35,0,4
0,42,0,0
0,63,0,24
0,63,0,3
0,72,0,1
0,72,0,4
0,67,0,3
0,67,0,1
0,42,42,56
0,63,67,0
0,72,93,0
0,67,83,1
0,67,83,1
0,63,67,1
0,42,0,1
0,72,93,0
0,48,0,58
0,48,0,0
0,89,0,4
0,38,102,30
0,42,58,0
0,54,51,0
0,90,101,0
0,38,0,4
0,42,0,0
0,54,0,0
0,90,0,6
0,36,0,4
0,91,89,10
0,35,72,72
0,36,87,0
0,42,39,0
0,48,61,0
0,48,61,0
0,35,0,4
0,42,0,0
0,63,0,16
0,63,0,3
0,72,0,1
0,36,0,4
0,72,0,0
0,67,0,25
0,67,0,1
0,48,0,10
0,48,0,0
0,91,0,18
0,35,96,14
0,36,83,0
0,42,59,0
0,48,71,0
0,72,71,0
0,94,79,0
0,68,75,1
0,63,67,1
0,63,67,1
0,35,0,1
0,42,0,0
0,48,71,0
0,68,75,0
0,72,71,2
0,94,0,80
0,42,38,10
0,90,101,0
0,42,0,4
0,90,0,8
0,91,63,12
0,91,0,48
0,38,102,24
0,42,58,0
0,54,59,0
0,38,0,4
0,42,0,0
0,54,0,0
0,36,0,26
0,68,0,13
0,48,0,3
0,68,0,0
0,48,0,4
0,72,0,2
0,72,0,6
0,63,0,4
0,63,0,1
0,35,83,33
0,36,93,0
0,42,47,0
0,48,63,0
0,72,93,0
0,87,97,0
0,67,79,1
0,63,79,1
0,63,79,1
0,35,0,1
0,42,0,0
0,48,63,0
0,67,79,0
0,72,93,2
0,36,0,20
0,35,104,70
0,36,98,0
0,42,59,0
0,35,0,4
0,42,0,0
0,48,0,22
0,48,0,4
0,36,0,56
0,31,98,10
0,38,72,0
0,42,60,0
0,48,65,0
0,48,65,0
0,38,0,4
0,42,0,0
0,63,0,16
0,63,0,1
0,72,0,11
0,72,0,6
0,67,0,3
0,67,0,3
0,38,93,4
0,38,0,4
0,31,0,32
0,34,104,12
0,38,90,0
0,42,59,0
0,54,52,0
0,63,63,0
0,72,83,0
0,67,75,1
0,67,75,1
0,63,63,1
0,38,0,1
0,42,0,0
0,54,0,0
0,72,83,0
0,87,0,12
0,38,100,32
0,48,0,2
0,48,0,0
0,38,0,2
0,34,0,36
0,35,93,8
0,38,113,0
0,42,55,0
0,48,75,0
0,48,75,0
0,38,0,4
0,42,0,0
0,67,0,29
0,63,0,1
0,67,0,0
0,72,0,2
0,63,0,1
0,48,0,3
0,48,0,0
0,72,0,0
0,60,109,8
0,35,0,36
0,60,0,4
0,35,98,8
0,36,98,0
0,48,63,0
0,48,63,0
0,49,55,0
0,72,112,0
0,35,0,4
0,49,0,0
0,72,0,56
0,42,44,36
0,72,102,0
0,42,0,4
0,72,0,70
0,38,100,22
0,42,56,0
0,54,69,0
0,63,63,0
0,70,112,0
0,72,79,0
0,67,79,1
0,67,79,1
0,63,63,1
0,38,0,1
0,42,0,0
0,54,0,0
0,72,79,0
0,36,0,32
0,70,0,32
0,35,82,28
0,36,87,0
0,42,63,0
0,48,0,0
0,48,0,0
0,70,98,0
0,35,0,4
0,42,0,0
0,36,0,26
0,70,0,42
0,35,100,24
0,36,87,0
0,42,57,0
0,48,75,0
0,48,75,0
0,68,106,0
0,35,0,4
0,42,0,0
0,63,0,18
0,63,0,3
0,72,0,5
0,72,0,4
0,67,0,9
0,67,0,1
0,68,0,22
0,42,48,30
0,63,75,0
0,68,100,0
0,72,83,0
0,67,83,1
0,67,83,1
0,63,75,1
0,42,0,1
0,72,83,0
0,48,0,46
0,48,0,0
0,68,0,36
0,38,100,10
0,42,56,0
0,48,79,0
0,48,79,0
0,54,57,0
0,67,106,0
0,38,0,4
0,42,0,0
0,54,0,0
0,36,0,42
0,67,0,12
0,35,70,38
0,36,80,0
0,42,45,0
0,67,104,0
0,35,0,4
0,42,0,0
0,48,0,6
0,48,0,0
0,63,0,2
0,67,0,1
0,67,0,1
0,72,0,0
0,63,0,1
0,72,0,3
0,36,0,12
0,67,0,50
0,35,94,16
0,36,80,0
0,42,57,0
0,48,61,0
0,65,112,0
0,72,89,0
0,68,75,1
0,63,59,1
0,63,59,1
0,35,0,1
0,42,0,0
0,48,61,0
0,68,75,0
0,72,89,2
0,42,44,90
0,42,0,4
0,65,0,84
0,63,0,4
0,63,0,1
0,38,100,3
0,42,55,0
0,54,57,0
0,70,109,0
0,38,0,4
0,42,0,0
0,54,0,0
0,48,0,8
0,48,0,4
0,36,0,18
0,72,0,6
0,72,0,6
0,68,0,3
0,68,0,3
0,70,0,40
0,35,82,4
0,36,83,0
0,42,53,0
0,67,75,0
0,67,112,0
0,74,83,0
0,70,61,1
0,70,61,1
0,67,75,1
0,35,0,1
0,42,0,0
0,74,83,0
0,36,0,24
0,35,101,68
0,36,87,0
0,42,56,0
0,35,0,4
0,42,0,0
0,74,0,54
0,70,0,3
0,70,0,1
0,74,0,0
0,67,0,2
0,67,0,3
0,36,0,27
0,31,98,2
0,42,62,0
0,67,75,0
0,74,89,0
0,70,75,1
0,70,75,1
0,67,75,1
0,42,0,1
0,67,0,0
0,74,89,0
0,31,0,80
0,34,98,12
0,38,100,0
0,42,55,0
0,48,63,0
0,48,63,0
0,54,56,0
0,38,0,4
0,42,0,0
0,54,0,0
0,34,0,82
0,35,93,10
0,42,57,0
0,42,0,4
0,74,0,36
0,67,0,2
0,74,0,2
0,67,0,1
0,70,0,0
0,70,0,1
0,48,0,6
0,48,0,0
0,35,0,30
0,35,101,14
0,36,93,0
0,42,59,0
0,48,117,0
0,48,79,0
0,48,79,0
0,35,0,4
0,42,0,0
0,42,39,92
0,42,0,4
0,48,0,24
0,38,103,68
0,42,59,0
0,48,111,0
0,54,63,0
0,63,63,0
0,72,89,0
0,67,79,1
0,67,79,1
0,63,63,1
0,38,0,1
0,42,0,0
0,54,0,0
0,72,89,0
0,36,0,14
0,35,84,78
0,36,87,0
0,42,58,0
0,35,0,4
0,42,0,0
0,48,0,0
0,48,0,22
0,48,0,0
0,36,0,8
0,35,103,62
0,36,83,0
0,42,59,0
0,48,123,0
0,48,79,0
0,48,79,0
0,35,0,4
0,42,0,0
0,63,0,24
0,63,0,3
