track,note,velocity,time
1,36,58,554
1,48,68,0
1,60,52,0
1,62,69,1
1,36,91,1
1,48,41,0
1,60,57,0
1,62,74,1
1,64,88,21
1,64,113,3
1,67,50,9
1,67,55,3
1,48,100,325
1,48,105,3
1,84,93,85
1,84,98,3
1,81,107,85
1,81,112,1
1,79,76,79
1,79,81,3
1,76,74,77
1,76,79,3
1,74,54,87
1,74,59,1
1,72,72,97
1,72,77,3
1,69,69,19
1,69,74,3
1,70,72,129
1,82,88,0
1,74,79,2
1,70,66,1
1,82,97,0
1,74,84,2
1,72,54,1
1,72,59,3
1,81,67,3
1,81,77,3
1,82,92,17
1,82,82,3
1,69,57,13
1,71,50,0
1,73,70,2
1,69,62,1
1,71,55,0
1,81,84,1
1,73,75,1
1,81,89,2
1,50,81,2
1,38,76,1
1,65,50,0
1,50,70,1
1,38,81,2
1,65,54,0
1,69,61,1
1,72,40,0
1,74,50,0
1,69,66,3
1,72,45,0
1,74,55,0
1,50,99,149
1,50,104,3
1,86,77,121
1,86,108,3
1,65,31,123
1,65,36,3
1,74,65,3
1,69,59,2
1,74,70,1
1,69,64,2
1,72,35,1
1,72,40,3
1,84,79,163
1,84,84,1
1,81,98,113
1,81,92,1
1,79,59,7
1,79,64,3
1,77,63,23
1,77,68,3
1,74,59,3
1,74,64,3
1,72,57,3
1,72,62,3
1,65,28,129
1,65,68,3
1,67,70,13
1,67,37,3
1,55,59,1
1,71,33,0
1,55,81,3
1,71,38,0
1,43,63,1
1,43,68,1
1,79,68,157
1,79,59,3
1,55,59,63
1,55,64,3
1,67,63,137
1,67,84,3
1,67,54,69
1,67,69,22
1,75,72,2
1,67,74,1
1,55,74,1
1,75,77,1
1,71,55,1
1,55,79,1
1,71,60,2
1,79,62,14
1,67,46,138
1,79,53,72
1,67,56,154
1,55,97,121
1,36,80,21
1,67,102,0
1,48,82,2
1,60,65,2
1,64,69,2
1,71,63,0
1,67,82,3
1,55,97,110
1,59,85,0
1,60,85,0
1,64,81,1
1,38,80,7
1,48,74,2
1,52,72,0
1,59,54,0
1,62,72,2
1,64,65,0
1,67,72,2
1,55,88,4
1,59,78,0
1,62,66,0
1,64,70,4
1,40,80,1
1,59,64,10
1,62,56,0
1,55,91,2
1,64,58,0
1,67,102,22
1,62,76,4
1,59,61,2
1,64,76,0
1,67,76,0
1,35,80,5
1,60,76,8
1,62,72,0
1,57,72,2
1,65,65,0
1,65,102,2
1,40,80,4
1,38,80,21
1,57,116,121
1,53,66,2
1,62,63,1
1,60,70,1
1,57,82,2
1,33,80,13
1,57,55,2
1,60,26,4
1,32,80,4
1,62,25,4
1,53,56,4
1,55,74,0
1,62,51,0
1,59,50,2
1,65,57,2
1,59,63,2
1,62,69,0
1,55,72,2
1,31,80,3
1,53,85,12
1,55,99,2
1,59,85,0
1,62,99,2
1,38,80,4
1,62,65,8
1,55,74,2
1,59,49,0
1,65,54,0
1,43,80,7
1,67,102,1
1,38,80,58
1,59,54,10
1,55,76,2
1,60,52,0
1,64,84,0
1,64,88,1
1,36,80,2
1,60,93,112
1,64,83,0
1,55,102,1
1,59,74,1
1,55,87,2
1,38,80,9
1,65,90,2
1,55,63,62
1,58,62,4
1,60,48,0
1,64,66,2
1,64,72,0
1,55,68,2
1,58,70,0
1,60,40,0
1,55,72,2
1,40,80,3
1,64,100,3
1,58,104,6
1,55,96,6
1,60,88,0
1,64,91,0
1,58,74,26
1,36,80,1
1,60,63,1
1,55,63,0
1,60,64,2
1,64,46,0
1,53,76,2
1,57,69,0
1,60,55,2
1,62,52,2
1,53,102,4
1,29,80,26
1,65,78,10
1,57,83,2
1,60,63,2
1,62,63,0
1,57,87,2
1,60,87,0
1,65,74,0
1,31,80,11
1,62,69,0
1,33,80,2
1,56,91,2
1,65,76,2
1,60,72,2
1,56,86,8
1,63,81,2
1,65,47,6
1,29,80,1
1,60,33,3
1,63,88,6
1,56,91,0
1,63,91,2
1,56,114,2
1,60,96,0
1,65,83,2
1,32,80,2
1,60,77,2
1,36,80,5
1,55,76,82
1,29,80,1
1,64,106,10
1,36,80,5
1,55,90,5
1,57,82,0
1,60,50,2
1,64,76,0
1,57,99,90
1,55,96,2
1,64,85,0
1,60,50,4
1,55,93,2
1,36,80,1
1,65,77,1
1,57,74,64
1,60,57,34
1,32,80,1
1,33,80,19
1,57,76,0
1,64,68,1
1,64,100,0
1,60,43,2
1,57,90,0
1,60,76,1
1,64,79,1
1,57,83,12
1,60,102,0
1,64,64,3
1,69,79,12
1,33,80,5
1,57,84,0
1,60,74,1
1,67,87,0
1,64,74,2
1,66,98,0
1,57,76,1
1,60,74,1
1,62,92,2
1,37,80,6
1,38,80,5
1,54,107,12
1,57,99,0
1,62,85,2
1,57,84,10
1,33,80,1
1,66,80,8
1,57,82,2
1,60,57,0
1,62,74,0
1,54,79,14
1,57,58,2
1,62,46,2
1,30,80,7
1,57,84,6
1,62,79,0
1,66,70,0
1,60,49,2
1,54,118,6
1,57,106,2
1,62,93,2
1,57,85,8
1,33,80,1
1,30,80,127
1,53,67,2
1,53,79,16
1,57,74,2
1,60,34,2
1,26,80,1
1,62,40,1
1,62,94,3
1,53,85,4
1,57,88,0
1,60,61,2
1,62,45,0
1,53,84,2
1,57,97,0
1,60,63,2
1,62,72,0
1,28,80,9
1,64,100,3
1,57,57,89
1,62,72,15
1,60,66,4
1,53,76,2
1,57,78,0
1,62,50,4
1,60,72,2
1,57,84,2
1,62,72,0
1,65,63,0
1,29,80,3
1,65,77,7
1,53,81,6
1,60,76,0
1,57,83,2
1,62,73,0
1,62,63,2
1,62,84,12
1,57,72,2
1,60,67,0
1,65,52,0
1,30,80,7
1,69,59,1
1,62,61,8
1,55,93,2
1,59,79,0
1,64,79,0
1,59,92,6
1,31,80,19
1,55,96,14
1,62,102,2
1,62,107,0
1,59,88,1
1,59,90,1
1,55,87,2
1,33,80,3
1,63,97,4
1,63,105,0
1,59,84,1
1,59,78,1
1,55,83,2
1,55,82,0
1,34,80,17
1,55,108,20
1,63,122,2
1,55,106,2
1,59,106,0
1,55,79,6
1,35,80,7
1,63,95,1
1,55,84,4
1,59,69,0
1,63,118,14
1,59,96,2
1,67,108,0
1,55,109,1
1,59,63,7
1,60,76,0
1,55,84,2
1,64,65,0
1,36,80,1
1,59,68,120
1,55,91,2
1,60,51,2
1,64,64,0
1,71,79,6
1,76,84,0
1,36,80,7
1,72,14,6
1,67,24,4
1,62,58,2
1,55,81,2
1,59,51,2
1,64,54,2
1,59,46,0
1,62,61,4
1,40,80,1
1,64,45,1
1,71,65,0
1,74,63,0
1,76,65,1
1,67,84,1
1,55,55,2
1,62,85,20
1,55,106,1
1,59,74,1
1,64,74,2
1,66,91,12
1,70,82,0
1,75,55,2
1,67,97,2
1,39,80,3
1,63,74,0
1,61,47,1
1,54,63,2
1,65,67,8
1,69,72,2
1,72,55,2
1,53,45,4
1,57,50,0
1,62,57,0
1,60,33,4
1,65,92,1
1,74,27,0
1,76,21,5
1,38,80,23
1,62,74,30
1,57,99,2
1,53,88,2
1,62,66,0
1,60,70,2
1,65,69,2
1,38,80,6
1,53,63,14
1,30,80,2
1,64,67,0
1,59,57,2
1,65,72,0
1,69,74,1
1,71,74,0
1,76,72,0
1,53,76,8
1,57,68,1
1,31,80,1
1,59,64,0
1,64,78,1
1,57,83,18
1,63,98,0
1,62,74,2
1,53,81,2
1,59,66,0
1,38,80,2
1,75,63,0
1,65,67,2
1,69,79,0
1,71,76,0
1,43,80,3
1,59,49,4
1,64,50,0
1,55,59,1
1,71,65,0
1,67,72,1
1,72,57,0
1,76,76,0
1,60,52,2
1,31,80,2
1,36,80,25
1,64,116,34
1,60,102,16
1,55,99,2
1,59,88,0
1,64,83,0
1,64,79,4
1,71,76,0
1,76,79,3
1,79,72,0
1,36,80,1
1,72,54,0
1,65,92,92
1,31,80,2
1,67,50,10
1,58,64,16
1,64,61,6
1,70,70,0
1,55,81,1
1,60,32,1
1,76,79,0
1,58,53,2
1,36,80,1
1,60,39,1
1,67,65,0
1,64,54,2
1,72,27,0
1,64,113,2
1,55,43,2
1,58,100,14
1,60,76,0
1,55,106,2
1,64,85,2
1,60,79,28
1,70,105,1
1,36,80,1
1,64,67,0
1,67,69,2
1,30,80,2
1,53,102,6
1,57,72,0
1,69,93,2
1,53,59,1
1,60,74,0
1,65,65,3
1,29,80,7
1,57,91,10
1,62,113,0
1,60,85,2
1,65,83,0
1,60,55,2
1,33,80,3
1,65,79,3
1,50,97,8
1,38,80,3
1,57,66,1
1,60,63,2
1,65,56,2
1,62,76,0
1,65,61,0
1,60,96,14
1,57,91,1
1,65,54,1
1,69,84,1
1,38,80,13
1,53,100,0
1,60,67,1
1,55,74,8
1,36,80,1
1,64,92,1
1,60,69,2
1,64,57,0
1,57,34,40
1,69,84,84
1,76,87,0
1,67,76,2
1,72,69,0
1,57,102,4
1,55,99,2
1,60,93,0
1,64,88,0
1,65,97,14
1,36,80,3
1,32,80,1
1,67,54,12
1,57,74,22
1,64,64,2
1,60,43,2
1,33,80,1
1,64,116,1
1,57,61,0
1,64,63,2
1,76,76,0
1,69,74,1
1,60,39,1
1,72,72,0
1,57,113,2
1,60,85,4
1,64,93,0
1,69,79,24
1,33,80,3
1,64,61,1
1,72,45,0
1,69,72,2
1,76,55,0
1,67,85,24
1,62,65,16
1,59,52,2
1,64,50,0
1,71,76,0
1,74,69,0
1,55,54,2
1,67,79,0
1,76,63,2
1,40,80,5
1,67,61,0
1,64,91,2
1,55,102,2
1,59,91,0
1,62,74,0
1,67,49,6
1,71,38,0
1,76,59,0
1,64,65,2
1,74,54,0
1,35,80,9
1,58,70,22
1,64,65,6
1,70,102,0
1,60,52,2
1,67,84,0
1,76,72,0
1,72,40,2
1,55,54,6
1,58,81,8
1,64,76,4
1,55,81,2
1,60,31,2
1,36,80,3
1,58,81,8
1,58,67,0
1,64,120,1
1,70,105,0
1,55,102,1
1,60,78,0
1,64,59,0
1,64,78,1
1,76,79,0
1,60,59,1
1,72,74,0
1,67,82,1
1,37,80,21
1,63,67,5
1,53,52,32
1,57,69,0
1,60,63,1
1,62,67,1
1,65,69,0
1,69,100,0
1,72,67,4
1,74,63,0
1,62,94,2
1,38,80,21
1,53,91,48
1,57,106,2
1,62,57,0
1,60,66,1
1,62,55,1
1,62,79,14
1,65,76,2
1,64,120,4
1,30,80,4
1,53,50,32
1,59,69,0
1,64,63,0
1,67,90,2
1,71,72,0
1,76,79,0
1,65,74,2
1,62,68,8
1,55,81,2
1,59,63,0
1,62,64,0
1,53,74,2
1,31,80,1
1,65,118,3
1,62,76,8
1,67,90,2
1,74,87,0
1,65,79,0
1,71,67,2
1,53,91,2
1,55,102,2
1,59,88,0
1,62,50,2
1,31,80,27
1,59,100,3
1,57,72,38
1,55,84,2
1,60,49,0
1,67,93,0
1,69,87,0
1,52,49,2
1,64,74,0
1,72,57,0
1,36,80,11
1,72,111,4
1,57,109,8
1,60,83,0
1,52,91,2
1,55,102,0
1,60,76,2
1,64,76,8
1,71,77,2
1,34,80,11
1,70,87,12
1,58,77,2
1,70,88,0
1,64,82,2
1,67,93,0
1,72,29,2
1,58,86,2
1,52,63,4
1,55,81,2
1,60,40,0
1,33,80,13
1,60,87,8
1,52,93,2
1,58,114,0
1,55,124,2
1,60,99,0
1,64,72,14
1,31,80,1
1,67,76,71
1,70,61,4
1,30,80,6
1,62,57,12
1,65,65,0
1,53,47,2
1,57,63,0
1,60,50,0
1,69,50,0
1,29,80,7
1,71,35,1
1,77,102,32
1,53,91,8
1,60,99,0
1,57,93,2
1,62,72,4
1,69,61,18
1,65,46,4
1,72,40,0
1,29,80,1
1,62,50,22
1,79,108,12
1,53,19,20
1,62,55,0
1,60,50,4
1,65,50,2
1,69,59,2
1,72,49,2
1,38,80,5
1,74,37,0
1,57,83,3
1,62,78,2
1,80,116,0
1,65,64,2
1,60,39,4
1,81,97,4
1,62,88,10
1,57,76,2
1,60,99,0
1,65,63,2
1,60,37,6
1,65,50,0
1,74,65,0
1,72,67,1
1,69,67,1
1,38,80,5
1,62,67,0
1,84,97,11
1,78,120,12
1,65,21,6
1,79,118,8
1,40,80,16
1,55,69,1
1,67,79,0
1,59,40,1
1,64,82,0
1,62,30,2
1,71,52,0
1,72,36,0
1,52,14,10
1,59,96,96
1,62,93,0
1,64,91,2
1,67,91,0
1,40,80,5
1,62,54,1
1,59,55,2
1,71,45,0
1,67,72,2
1,64,82,2
1,55,38,3
1,72,16,2
1,32,80,12
1,33,80,4
1,66,77,2
1,55,59,2
1,61,61,2
1,73,63,0
1,78,72,0
1,67,57,2
1,76,113,2
1,40,80,2
1,57,83,6
1,64,96,0
1,67,102,2
1,61,94,1
1,45,80,24
1,64,61,4
1,73,61,0
1,67,59,0
1,76,74,1
1,74,105,4
1,33,80,2
1,38,80,11
1,69,61,0
1,65,45,1
1,57,67,4
1,62,55,0
1,72,24,0
1,74,29,2
1,53,34,2
1,60,18,6
1,62,102,8
1,65,81,0
1,57,88,2
1,60,78,0
1,76,116,6
1,33,80,5
1,65,61,0
1,62,69,1
1,69,65,0
1,74,41,0
1,60,33,2
1,72,40,0
1,32,80,6
1,53,55,4
1,59,65,4
1,64,61,0
1,71,63,2
1,76,74,0
1,65,65,2
1,69,59,1
1,31,80,1
1,65,64,4
1,77,92,0
1,62,66,2
1,59,70,1
1,55,74,2
1,59,81,10
1,62,64,0
1,55,85,2
1,65,51,0
1,62,65,16
1,69,79,1
1,35,80,1
1,74,74,0
1,65,52,2
1,71,59,0
1,79,120,6
1,67,63,0
1,57,72,2
1,64,59,0
1,69,65,0
1,76,74,0
1,72,36,4
1,76,103,2
1,60,50,0
1,55,57,4
1,36,80,19
1,57,113,12
1,60,99,0
1,64,83,2
1,64,74,0
1,55,88,2
1,69,74,10
1,67,87,2
1,72,49,2
1,31,80,2
1,58,72,8
1,64,59,0
1,70,85,2
1,67,61,4
1,76,72,2
1,60,34,2
1,72,29,0
1,36,80,3
1,60,102,52
1,55,96,2
1,58,97,0
1,64,85,0
1,64,84,8
1,72,85,4
1,67,82,8
1,31,80,1
1,65,59,74
1,69,76,2
1,72,67,2
1,62,57,18
1,57,59,2
1,53,39,6
1,60,23,2
1,29,80,5
1,77,81,1
1,57,91,34
1,60,96,0
1,65,72,2
1,65,63,0
1,62,93,12
1,29,80,5
1,79,102,7
1,69,41,56
1,65,23,0
1,62,83,10
1,57,70,2
1,60,40,0
1,53,52,0
1,65,52,2
1,62,74,0
1,57,61,4
1,60,45,0
1,65,57,2
1,69,54,0
1,38,80,3
1,74,52,1
1,72,18,2
1,81,97,2
1,60,85,12
1,62,85,0
1,57,102,2
1,65,81,2
1,62,84,18
1,57,63,2
1,65,74,2
1,69,59,0
1,38,80,3
1,53,41,0
1,74,57,1
1,84,90,2
1,72,18,2
1,60,24,2
1,65,47,38
1,83,100,2
1,39,80,1
1,64,54,20
1,59,49,2
1,62,55,0
1,74,82,0
1,67,74,2
1,55,55,2
1,71,54,0
1,76,65,4
1,40,80,5
1,55,102,8
1,59,96,0
1,62,76,0
1,64,78,1
1,59,49,10
1,62,59,2
1,64,50,0
1,55,49,2
1,71,79,0
1,74,54,0
1,67,74,1
1,40,80,5
1,76,42,5
1,31,80,10
1,67,46,8
1,32,80,2
1,57,65,10
1,55,55,2
1,61,45,0
1,64,61,0
1,73,45,4
1,76,74,0
1,67,74,2
1,69,59,0
1,33,80,7
1,61,118,8
1,57,106,1
1,40,80,1
1,79,115,0
1,64,76,1
1,73,52,0
1,55,109,1
1,67,67,3
1,69,76,0
1,76,69,0
1,45,80,19
1,64,74,1
1,66,70,76
1,69,67,0
1,78,95,2
1,74,49,0
1,72,36,4
1,33,80,4
1,54,63,14
1,62,49,0
1,57,38,6
1,38,80,9
1,60,12,3
1,38,80,4
1,54,118,0
1,57,99,4
1,62,91,0
1,66,91,0
1,69,84,0
1,72,27,7
1,74,30,2
