track,note,velocity,time
1,43,103,380
1,50,98,64
1,59,103,192
1,55,98,28
1,57,98,16
1,62,93,28
1,41,98,8
1,48,98,32
1,55,98,192
1,60,93,12
1,59,93,92
1,55,93,40
1,50,98,8
1,43,93,24
1,50,98,48
1,59,98,192
1,55,93,12
1,57,98,12
1,62,89,28
1,41,93,52
1,48,93,88
1,55,93,192
1,60,93,56
1,59,93,64
1,55,93,36
1,50,103,96
1,43,98,16
1,50,93,68
1,59,98,192
1,55,93,32
1,57,98,32
1,62,89,40
1,41,98,28
1,48,93,60
1,55,93,192
1,60,93,4
1,59,93,80
1,55,93,36
1,50,93,24
1,43,93,36
1,50,93,76
1,59,103,192
1,55,93,16
1,57,98,24
1,62,93,32
1,41,93,40
1,48,93,80
1,55,98,192
1,60,93,4
1,59,89,68
1,55,89,20
1,48,93,36
1,44,103,119800
1,51,98,64
1,60,103,192
1,56,98,28
1,58,98,16
1,63,93,28
1,42,98,8
1,49,98,32
1,56,98,192
1,61,93,12
1,60,93,92
1,56,93,40
1,51,98,8
1,44,93,24
1,51,98,48
1,60,98,192
1,56,93,12
1,58,98,12
1,63,89,28
1,42,93,52
1,49,93,88
1,56,93,192
1,61,93,56
1,60,93,64
1,56,93,36
1,51,103,96
1,44,98,16
1,51,98,0
1,60,98,0
2,43,119,12668
2,43,119,112
2,43,110,132
2,43,110,120
2,40,103,120
2,40,103,80
2,40,103,136
2,40,110,100
2,33,110,112
2,33,98,108
2,33,110,116
2,33,110,108
2,38,110,104
2,38,103,112
2,38,110,124
2,38,110,112
2,43,110,100
2,43,110,104
2,43,103,132
2,43,119,116
2,40,110,116
2,40,110,124
2,40,110,140
2,40,119,92
2,33,110,124
2,33,110,112
2,33,110,140
2,33,103,108
2,38,110,140
2,38,103,124
2,38,110,120
2,38,110,116
2,43,110,128
2,43,103,116
2,43,110,124
2,43,110,120
2,40,103,116
2,40,110,88
2,40,110,136
2,40,110,136
2,33,110,112
2,33,103,104
2,33,119,140
2,33,103,120
2,38,110,124
2,38,110,112
2,38,110,128
2,38,103,140
2,43,103,132
2,43,110,80
2,43,110,132
2,43,110,128
2,40,110,116
2,40,110,108
2,40,103,140
2,40,103,116
2,33,119,112
2,33,103,124
2,33,110,120
2,33,110,148
2,30,98,96
2,30,103,124
2,35,104,76
2,35,96,84
2,40,110,104
2,40,98,112
2,40,110,120
2,40,103,104
2,39,98,100
2,39,103,92
2,39,98,112
2,39,110,92
2,38,103,96
2,38,110,120
2,38,110,132
2,38,110,120
2,37,98,96
2,37,110,100
2,37,103,116
2,37,103,100
2,33,110,88
2,40,98,576
2,40,110,136
2,33,103,52
2,33,110,136
2,40,110,576
2,45,110,96
2,40,110,24
2,33,110,92
2,40,98,576
2,40,110,128
2,33,110,36
2,38,110,76
2,38,103,112
2,38,110,140
2,38,103,124
2,43,103,120
2,43,103,92
2,43,110,132
2,43,110,104
2,40,103,116
2,40,110,116
2,40,103,136
2,40,110,120
2,33,110,112
2,33,98,96
2,33,110,120
2,33,103,104
2,38,110,112
2,38,103,132
2,38,110,132
2,38,110,128
2,43,110,108
2,43,110,124
2,43,110,132
2,43,119,100
2,40,110,124
2,40,110,96
2,40,110,140
2,40,93,96
2,33,110,100
2,33,98,108
2,33,110,128
2,33,110,112
2,30,98,92
2,30,93,80
2,35,103,96
2,35,98,124
2,40,103,104
2,40,103,124
2,40,110,132
2,40,103,128
2,39,103,100
2,39,103,92
2,39,103,104
2,39,103,132
2,38,110,92
2,38,119,100
2,38,110,136
2,38,110,148
2,37,98,100
2,37,103,96
2,37,103,104
2,37,103,108
2,33,103,68
2,40,103,24
2,45,110,80
2,40,110,48
2,33,110,84
2,40,110,68
2,38,110,76
2,42,103,116
2,43,119,104
2,43,98,120
2,43,103,120
2,43,103,120
2,43,103,112
2,43,103,88
2,43,98,132
2,43,98,120
2,44,119,124
2,44,119,112
2,44,110,132
2,44,110,120
2,41,103,120
2,41,103,80
2,41,103,136
2,41,110,100
2,34,110,112
2,34,98,108
2,34,110,116
2,34,110,108
2,39,110,104
2,39,103,112
2,39,110,124
2,39,110,112
2,44,110,100
2,44,110,104
2,44,103,132
2,44,119,116
2,41,110,116
2,41,110,124
2,41,110,140
2,41,119,92
2,34,110,124
2,34,110,112
2,34,110,140
2,34,103,108
2,39,110,140
2,39,103,124
2,39,110,120
2,39,110,116
2,44,110,128
2,44,103,116
2,44,110,124
2,44,110,120
2,41,103,116
2,41,110,88
2,41,110,136
2,41,110,136
2,34,110,112
2,34,103,104
2,34,119,140
2,34,103,120
2,39,110,124
2,39,110,112
2,39,110,128
2,39,103,140
2,44,103,132
2,44,110,80
2,44,110,132
2,44,110,128
2,41,110,116
2,41,110,108
2,41,103,140
2,41,103,116
2,34,119,112
2,34,103,124
2,34,110,120
2,34,110,148
2,31,98,96
2,31,103,124
2,36,104,76
2,36,96,84
2,41,110,104
2,41,98,112
2,41,110,120
2,41,103,104
2,40,98,100
2,40,103,92
2,40,98,112
2,40,110,92
2,39,103,96
2,39,110,120
2,39,110,132
2,39,110,120
2,38,98,96
2,38,110,100
2,38,103,116
2,38,103,100
2,34,110,88
2,41,98,576
2,41,110,136
2,34,103,52
2,34,110,136
2,41,110,576
2,46,110,96
2,41,110,24
2,34,110,92
2,41,98,576
2,41,110,128
2,34,110,36
2,39,110,76
2,39,103,112
2,39,110,140
2,39,103,124
2,44,103,120
2,44,103,92
2,44,110,132
2,44,110,104
2,41,103,116
2,41,110,116
2,41,103,136
2,41,110,120
2,34,110,112
2,34,98,96
2,34,110,120
2,34,103,104
2,39,110,112
2,39,103,132
2,39,110,132
2,39,110,128
2,44,110,108
2,44,110,124
2,44,110,132
2,44,119,100
2,41,110,124
2,41,110,96
2,41,110,140
2,41,93,96
2,34,110,100
2,34,98,108
2,34,110,128
2,34,110,112
2,31,98,92
2,31,93,80
2,36,103,96
2,36,98,124
2,41,103,104
2,41,103,124
2,41,110,132
2,41,103,128
2,40,103,100
2,40,103,92
2,40,103,104
2,40,103,132
2,39,110,92
2,39,119,100
2,39,110,136
2,39,110,148
2,38,98,100
2,38,103,96
2,38,103,104
2,38,103,108
2,34,103,68
2,41,103,24
2,46,110,80
2,41,110,48
2,34,110,84
2,41,110,68
2,39,110,76
2,43,103,116
2,44,119,104
2,42,119,120
2,44,119,120
2,42,119,120
2,44,119,120
3,67,98,16480
3,66,89,0
3,69,100,1508
3,67,93,1500
3,71,98,1528
3,69,82,1528
3,76,110,760
3,74,98,28
3,67,82,1504
3,71,89,1452
3,66,79,4
3,69,82,4
3,67,93,8
3,64,85,0
3,66,104,3020
3,71,98,64
3,78,97,2320
3,76,85,4
3,78,93,20
3,81,98,0
3,83,82,0
3,76,79,8
3,78,89,1496
3,76,85,1432
3,70,101,16
3,75,101,4
3,74,93,692
3,69,89,4
3,71,89,1468
3,67,88,1508
3,72,98,4
3,66,98,28
3,71,93,36
3,67,89,28
3,69,93,1480
3,66,89,1548
3,71,85,24
3,67,76,4
3,78,89,36
3,79,89,744
3,69,93,3036
3,64,103,0
3,62,93,2984
3,71,93,8
3,68,98,3784
3,67,89,0
3,70,100,1508
3,68,93,1500
3,72,98,1528
3,70,82,1528
3,77,110,760
3,75,98,28
3,68,82,1504
3,72,89,1452
3,67,79,4
3,70,82,4
3,68,93,8
3,65,85,0
3,67,104,3020
3,72,98,64
3,79,97,2320
3,77,85,4
3,79,93,20
3,82,98,0
3,84,82,0
3,77,79,8
3,79,89,1496
3,77,85,1432
3,71,101,16
3,76,101,4
3,75,93,692
3,70,89,4
3,72,89,1468
3,68,88,1508
3,73,98,4
3,67,98,28
3,72,93,36
3,68,89,28
3,70,93,1480
3,67,89,1548
3,72,85,24
3,68,76,4
3,79,89,36
3,80,89,744
3,70,93,3036
3,65,103,0
3,63,93,2984
3,72,93,8
4,62,103,12668
4,64,103,20
4,66,89,200
4,67,98,16
4,66,93,24
4,67,93,8
4,71,93,12
4,60,93,24
4,71,93,24
4,69,93,4
4,59,89,20
4,60,110,1120
4,62,98,0
4,64,93,4
4,63,103,12
4,64,93,4
4,67,93,8
4,57,93,16
4,67,98,40
4,66,93,4
4,62,103,12
4,64,103,28
4,66,89,200
4,67,93,4
4,66,93,28
4,67,98,4
4,71,93,8
4,60,98,20
4,71,93,32
4,69,93,24
4,59,93,32
4,60,103,1164
4,62,98,184
4,64,93,0
4,63,98,12
4,64,98,4
4,67,89,4
4,57,98,20
4,67,98,28
4,66,93,12
4,67,103,1544
4,66,98,12
4,67,98,200
4,69,85,4
4,67,93,388
4,67,89,84
4,66,98,8
4,67,93,0
4,66,93,12
4,67,103,196
4,69,89,0
4,67,89,376
4,67,93,80
4,66,93,12
4,67,98,380
4,66,93,8
4,67,98,188
4,76,87,8
4,71,89,48
4,69,93,348
4,67,89,352
4,69,89,4
4,67,93,388
4,67,85,76
4,66,93,4
4,66,85,72
4,64,93,0
4,64,98,80
4,63,103,12
4,62,103,8
4,64,103,20
4,66,93,192
4,67,93,192
4,66,89,28
4,67,98,372
4,71,98,0
4,60,93,20
4,71,98,20
4,69,93,16
4,59,98,16
4,60,110,4
4,62,98,0
4,64,93,8
4,63,98,20
4,64,98,8
4,67,93,12
4,57,98,20
4,67,103,32
4,66,93,12
4,67,103,80
4,66,93,76
4,67,103,204
4,69,89,0
4,67,89,4
4,67,93,92
4,66,93,28
4,67,93,4
4,66,93,56
4,67,103,192
4,69,89,4
4,67,93,396
4,67,93,84
4,66,93,28
4,67,93,12
4,66,98,64
4,67,98,192
4,69,89,12
4,67,89,400
4,67,98,92
4,66,98,16
4,67,98,32
4,68,103,24808
4,67,98,12
4,68,98,200
4,70,85,4
4,68,93,388
4,68,89,84
4,67,98,8
4,68,93,0
4,67,93,12
4,68,103,196
4,70,89,0
4,68,89,376
4,68,93,80
4,67,93,12
4,68,98,380
4,67,93,8
4,68,98,188
4,77,87,8
4,72,89,48
4,70,93,348
4,68,89,352
4,70,89,4
4,68,93,388
4,68,85,76
4,67,93,4
4,67,85,72
4,65,93,0
4,65,98,80
4,64,103,12
4,63,103,8
4,65,103,20
4,67,93,192
4,68,93,192
4,67,89,28
4,68,98,372
4,72,98,0
4,61,93,20
4,72,98,20
4,70,93,16
4,60,98,16
4,61,110,4
4,63,98,0
4,65,93,8
4,64,98,20
4,65,98,8
4,68,93,12
4,58,98,20
4,68,103,32
4,67,93,12
4,68,103,80
4,67,93,76
4,68,103,204
4,70,89,0
4,68,89,4
4,68,93,92
4,67,93,28
4,68,93,4
4,67,93,56
4,68,103,192
4,70,89,4
4,68,93,396
4,68,93,84
4,67,93,28
4,68,93,12
4,67,98,64
4,68,98,192
4,70,89,12
4,68,89,400
4,68,98,92
4,67,98,16
4,68,98,32
5,55,93,12668
5,59,93,0
5,60,98,3020
5,57,93,8
5,62,98,0
5,59,98,0
5,64,89,4
5,60,98,8
5,62,98,20
5,59,93,0
5,64,93,3064
5,60,103,4
5,62,98,0
5,59,98,0
5,57,98,0
5,60,98,0
5,61,114,1532
5,63,124,716
5,55,108,36
5,64,103,0
5,63,98,1488
5,62,98,1576
5,61,103,4
5,60,93,1504
5,61,103,1540
5,60,98,1524
5,54,114,1508
5,55,98,4
5,59,89,0
5,57,98,0
5,60,103,4
5,62,93,3044
5,59,98,4
5,57,98,3052
5,60,98,0
5,61,105,1528
5,63,123,764
5,64,98,768
5,55,98,4
5,63,103,1504
5,62,98,1512
5,61,110,1532
5,60,98,1532
5,50,112,2272
5,59,98,732
5,55,103,0
5,56,93,8
5,60,93,0
5,61,98,3020
5,58,93,8
5,63,98,0
5,60,98,0
5,65,89,4
5,61,98,8
5,63,98,20
5,60,93,0
5,65,93,3064
5,61,103,4
5,63,98,0
5,60,98,0
5,58,98,0
5,61,98,0
5,62,114,1532
5,64,124,716
5,56,108,36
5,65,103,0
5,64,98,1488
5,63,98,1576
5,62,103,4
5,61,93,1504
5,62,103,1540
5,61,98,1524
5,55,114,1508
5,56,98,4
5,60,89,0
5,58,98,0
5,61,103,4
5,63,93,3044
5,60,98,4
5,58,98,3052
5,61,98,0
5,62,105,1528
5,64,123,764
5,65,98,768
5,56,98,4
5,64,103,1504
5,63,98,1512
5,62,110,1532
5,61,98,1532
5,51,112,2272
5,60,98,732
5,56,103,0
6,71,98,37604
6,67,98,0
6,66,82,252
6,69,85,4
6,67,93,100
6,71,93,4
6,67,98,1448
6,71,93,0
6,69,89,80
6,66,93,0
6,67,93,84
6,63,89,0
6,66,89,72
6,69,85,4
6,66,76,84
6,69,89,4
6,67,93,92
6,71,85,0
6,67,91,88
6,62,90,8
6,66,96,7024
6,74,77,716
6,75,84,44
6,76,92,24
6,75,93,8
6,74,77,4
6,67,98,11096
6,71,93,0
6,66,89,284
6,69,85,4
6,67,98,84
6,71,93,4
6,67,98,1408
6,71,93,4
6,66,89,100
6,69,89,4
6,63,89,96
6,67,89,4
6,66,89,92
6,69,89,4
6,69,85,92
6,66,82,4
6,71,89,104
6,67,93,0
6,67,85,92
6,62,93,0
6,70,82,4600
6,71,89,64
6,72,97,48
6,71,82,0
6,72,98,25152
6,68,98,0
6,67,82,252
6,70,85,4
6,68,93,100
6,72,93,4
6,68,98,1448
6,72,93,0
6,70,89,80
6,67,93,0
6,68,93,84
6,64,89,0
6,67,89,72
6,70,85,4
6,67,76,84
6,70,89,4
6,68,93,92
6,72,85,0
6,68,91,88
6,63,90,8
6,67,96,7024
6,75,77,716
6,76,84,44
6,77,92,24
6,76,93,8
6,75,77,4
6,68,98,11096
6,72,93,0
6,67,89,284
6,70,85,4
6,68,98,84
6,72,93,4
6,68,98,1408
6,72,93,4
6,67,89,100
6,70,89,4
6,64,89,96
6,68,89,4
6,67,89,92
6,70,89,4
6,70,85,92
6,67,82,4
6,72,89,104
6,68,93,0
6,68,85,92
6,63,93,0
6,71,82,4600
6,72,89,64
6,73,97,48
6,72,82,0
7,55,119,12668
7,55,110,220
7,50,110,908
7,52,110,44
7,55,103,120
7,55,110,224
7,55,119,1188
7,55,119,232
7,50,119,908
7,52,110,48
7,54,103,116
7,54,98,216
7,55,119,1172
7,55,110,232
7,50,110,908
7,52,103,44
7,55,110,120
7,55,110,220
7,55,119,1184
7,55,110,228
7,50,103,904
7,52,110,40
7,54,110,120
7,54,103,216
7,55,119,1176
7,55,110,236
7,50,110,912
7,52,103,44
7,55,103,100
7,55,110,212
7,55,119,1176
7,55,119,220
7,50,110,900
7,52,103,44
7,54,103,108
7,54,110,208
7,55,127,1172
7,55,110,224
7,50,110,908
7,52,110,44
7,55,110,112
7,55,119,212
7,55,119,1176
7,55,110,208
7,50,103,884
7,52,103,44
7,54,103,108
7,54,103,204
7,55,110,13464
7,55,110,232
7,50,110,904
7,52,103,40
7,55,110,116
7,55,119,224
7,55,119,1176
7,55,110,220
7,50,110,904
7,52,110,48
7,54,119,112
7,54,119,224
7,55,119,1188
7,55,119,216
7,50,110,904
7,52,110,44
7,55,110,112
7,55,119,228
7,55,110,1176
7,55,110,212
7,50,110,896
7,52,110,40
7,54,103,104
7,54,103,208
7,56,119,13460
7,56,110,220
7,51,110,908
7,53,110,44
7,56,103,120
7,56,110,224
7,56,119,1188
7,56,119,232
7,51,119,908
7,53,110,48
7,55,103,116
7,55,98,216
7,56,119,1172
7,56,110,232
7,51,110,908
7,53,103,44
7,56,110,120
7,56,110,220
7,56,119,1184
7,56,110,228
7,51,103,904
7,53,110,40
7,55,110,120
7,55,103,216
7,56,119,1176
7,56,110,236
7,51,110,912
7,53,103,44
7,56,103,100
7,56,110,212
7,56,119,1176
7,56,119,220
7,51,110,900
7,53,103,44
7,55,103,108
7,55,110,208
7,56,127,1172
7,56,110,224
7,51,110,908
7,53,110,44
7,56,110,112
7,56,119,212
7,56,119,1176
7,56,110,208
7,51,103,884
7,53,103,44
7,55,103,108
7,55,103,204
7,56,110,13464
7,56,110,232
7,51,110,904
7,53,103,40
7,56,110,116
7,56,119,224
7,56,119,1176
7,56,110,220
7,51,110,904
7,53,110,48
7,55,119,112
7,55,119,224
7,56,119,1188
7,56,119,216
7,51,110,904
7,53,110,44
7,56,110,112
7,56,119,228
7,56,110,1176
7,56,110,212
