track,note,velocity,time
0,52,102,38
0,52,0,7
0,53,90,2
0,53,0,34
0,38,80,47
0,46,71,0
0,46,92,0
0,46,77,0
0,62,73,0
0,65,83,0
0,69,85,0
0,57,54,1
0,57,71,1
0,62,75,0
0,62,73,1
0,46,69,1
0,65,77,0
0,65,98,2
0,38,70,186
0,39,73,0
0,44,69,0
0,38,59,94
0,65,75,4
0,74,87,0
0,65,60,32
0,69,57,0
0,39,71,14
0,44,83,0
0,46,73,0
0,57,65,1
0,62,84,2
0,65,0,68
0,65,88,10
0,36,62,10
0,38,80,0
0,48,67,0
0,60,39,0
0,63,51,0
0,67,66,0
0,70,51,0
0,67,60,2
0,36,67,1
0,75,59,0
0,63,86,94
0,65,0,2
0,38,70,86
0,39,73,0
0,44,69,0
0,65,54,4
0,41,71,6
0,75,73,4
0,36,53,6
0,38,59,0
0,41,69,0
0,65,77,0
0,67,49,0
0,70,49,0
0,72,57,0
0,75,49,0
0,79,73,8
0,63,50,6
0,87,59,2
0,36,56,6
0,67,55,0
0,70,62,0
0,72,59,0
0,75,54,0
0,63,0,42
0,39,71,10
0,44,83,0
0,65,98,68
0,65,70,24
0,65,0,10
0,53,92,16
0,53,0,8
0,34,73,10
0,38,80,0
0,46,75,0
0,46,63,0
0,65,55,0
0,69,71,0
0,74,81,0
0,77,53,0
0,86,60,0
0,62,96,14
0,62,0,32
0,63,96,22
0,63,0,30
0,61,92,38
0,61,0,10
0,62,88,4
0,38,70,36
0,39,73,0
0,44,69,0
0,86,64,0
0,36,71,4
0,38,59,0
0,48,81,0
0,48,51,0
0,79,56,0
0,87,38,0
0,63,43,0
0,67,56,0
0,72,73,0
0,39,71,2
0,44,83,0
0,79,55,0
0,87,67,0
0,62,0,2
0,58,98,2
0,48,48,76
0,58,0,6
0,38,80,4
0,51,62,0
0,51,79,0
0,51,94,8
0,51,77,2
0,38,70,174
0,39,73,0
0,44,69,0
0,63,59,0
0,67,69,0
0,82,55,2
0,82,92,8
0,51,0,2
0,38,59,2
0,39,54,0
0,63,63,0
0,67,59,0
0,70,56,0
0,91,83,2
0,94,81,0
0,39,36,126
0,39,41,8
0,39,43,8
0,39,43,8
0,39,71,8
0,44,83,0
0,38,76,10
0,91,75,4
0,87,51,4
0,38,80,22
0,46,71,0
0,46,64,0
0,46,62,0
0,46,79,0
0,62,46,0
0,69,64,0
0,86,71,0
0,89,73,0
0,53,56,92
0,38,70,96
0,39,73,0
0,44,69,0
0,58,67,0
0,58,98,92
0,62,72,0
0,58,0,42
0,45,52,4
0,62,98,2
0,38,59,2
0,43,60,0
0,43,68,0
0,43,69,0
0,43,30,0
0,67,57,0
0,70,53,0
0,62,0,24
0,63,88,8
0,55,51,36
0,63,0,10
0,62,88,38
0,39,71,38
0,44,83,0
0,58,73,0
0,62,0,36
0,39,69,12
0,55,60,0
0,67,90,0
0,41,52,4
0,39,87,2
0,36,83,2
0,36,69,0
0,36,69,0
0,38,80,0
0,48,67,0
0,63,49,0
0,67,62,0
0,67,0,0
0,70,55,0
0,60,70,4
0,58,68,92
0,38,70,96
0,39,73,0
0,44,69,0
0,48,67,0
0,63,69,0
0,67,75,1
0,58,65,30
0,58,51,4
0,62,66,0
0,67,81,2
0,38,59,6
0,62,73,0
0,63,47,0
0,63,73,0
0,67,55,0
0,70,57,0
0,67,82,1
0,59,56,134
0,60,0,8
0,58,86,16
0,59,0,4
0,55,77,10
0,39,71,4
0,44,83,0
0,58,0,2
0,38,69,4
0,48,60,0
0,36,79,30
0,36,66,0
0,36,69,0
0,38,80,0
0,48,56,0
0,67,57,0
0,72,63,0
0,60,74,2
0,55,0,4
0,36,79,56
0,48,62,0
0,55,50,0
0,38,70,96
0,39,73,0
0,44,69,0
0,60,72,0
0,60,68,0
0,63,65,0
0,63,67,1
0,62,88,2
0,60,0,2
0,36,59,26
0,48,66,0
0,48,65,0
0,62,0,12
0,63,80,0
0,38,59,12
0,55,61,0
0,58,62,0
0,63,66,0
0,67,69,0
0,75,63,0
0,58,79,1
0,63,68,2
0,38,47,4
0,39,53,4
0,39,71,4
0,43,81,0
0,44,83,0
0,70,79,0
0,39,73,4
0,39,71,0
0,55,52,0
0,67,81,2
0,63,0,4
0,67,0,6
0,38,80,4
0,41,75,0
0,41,71,0
0,41,55,0
0,41,60,0
0,60,52,0
0,69,73,0
0,57,77,2
0,48,75,84
0,53,49,48
0,38,70,48
0,39,73,0
0,44,69,0
0,57,49,0
0,60,54,44
0,53,47,46
0,57,52,0
0,55,64,24
0,38,59,2
0,57,73,0
0,63,69,0
0,67,73,0
0,60,72,2
0,39,36,40
0,39,41,8
0,39,43,8
0,39,43,0
0,39,71,6
0,44,83,0
0,60,46,0
0,62,59,0
0,65,55,0
0,69,71,0
0,57,0,38
0,38,76,2
0,45,53,0
0,60,40,0
0,60,57,0
0,63,56,0
0,65,48,15
0,69,53,0
0,74,50,0
0,38,80,5
0,46,92,0
0,46,77,0
0,62,73,0
0,65,83,0
0,65,90,0
0,69,85,0
0,57,54,1
0,46,68,1
0,57,62,0
0,62,63,0
0,65,62,0
0,62,73,1
0,46,89,2
0,38,70,164
0,39,73,0
0,44,69,0
0,38,59,10
0,62,51,4
0,57,54,22
0,39,71,6
0,44,83,0
0,46,73,0
0,57,65,1
0,62,84,2
0,38,84,12
0,48,85,2
0,67,59,1
0,70,52,0
0,75,56,0
0,38,80,2
0,48,81,0
0,63,64,0
0,41,67,2
0,55,59,0
0,58,67,0
0,60,63,0
0,67,60,0
0,36,67,1
0,75,59,0
0,63,74,84
0,65,0,6
0,38,70,92
0,39,73,0
0,44,69,0
0,60,95,11
0,62,62,5
0,63,71,10
0,46,54,4
0,65,54,0
0,65,73,0
0,67,66,4
0,43,59,4
0,70,53,8
0,72,77,0
0,41,71,6
0,75,73,2
0,65,84,4
0,38,59,2
0,41,79,0
0,65,77,0
0,75,83,0
0,63,0,2
0,79,73,6
0,77,83,12
0,63,50,10
0,87,59,2
0,39,71,94
0,41,71,0
0,44,83,0
0,67,67,0
0,75,71,0
0,39,81,8
0,36,79,4
0,38,70,0
0,65,70,0
0,34,81,4
0,65,0,12
0,65,62,4
0,69,48,0
0,74,59,0
0,34,92,5
0,34,73,0
0,38,80,0
0,46,85,0
0,46,88,0
0,65,81,0
0,65,55,0
0,69,81,0
0,69,71,0
0,74,81,0
0,74,77,2
0,65,54,92
0,38,70,96
0,39,73,0
0,44,69,0
0,72,93,0
0,62,94,10
0,46,73,2
0,65,77,0
0,62,0,44
0,63,88,2
0,67,45,1
0,70,69,0
0,72,60,0
0,75,44,0
0,67,64,2
0,70,79,0
0,75,85,0
0,36,83,2
0,36,71,0
0,38,59,0
0,48,66,0
0,63,43,0
0,63,72,0
0,67,56,0
0,72,73,0
0,63,0,6
0,62,86,5
0,48,75,4
0,70,73,0
0,39,71,2
0,44,83,0
0,48,39,0
0,58,80,4
0,62,0,4
0,36,60,4
0,38,69,0
0,63,61,0
0,51,76,8
0,58,0,0
0,51,64,3
0,38,80,4
0,39,95,0
0,39,67,0
0,51,79,0
0,55,77,0
0,60,66,0
0,67,83,5
0,70,69,0
0,77,83,0
0,38,70,5
0,39,73,0
0,44,69,0
0,55,73,0
0,58,62,0
0,63,59,0
0,67,69,0
0,51,63,2
0,63,92,3
0,67,71,0
0,38,59,2
0,55,61,0
0,63,63,0
0,67,59,0
0,70,56,0
0,39,92,14
0,70,64,0
0,51,0,56
0,63,87,3
0,39,71,4
0,44,83,0
0,46,92,0
0,75,81,0
0,79,83,0
0,38,69,4
0,39,101,0
0,70,79,0
0,75,83,0
0,46,50,11
0,65,56,0
0,69,62,0
0,38,80,5
0,46,79,0
0,46,62,0
0,46,88,0
0,62,46,0
0,69,64,0
0,69,75,1
0,74,73,0
0,34,81,2
0,50,92,52
0,50,0,20
0,51,80,4
0,57,65,16
0,51,0,6
0,55,77,14
0,55,0,20
0,58,96,4
0,58,0,28
0,62,94,2
0,38,70,4
0,39,73,0
0,44,69,0
0,62,67,0
0,77,66,46
0,57,68,24
0,63,86,0
0,62,0,2
0,84,69,32
0,45,57,10
0,63,0,4
0,61,79,2
0,43,64,1
0,70,52,0
0,38,59,4
0,43,81,0
0,43,69,0
0,43,82,0
0,67,57,0
0,70,53,0
0,61,0,2
0,74,56,2
0,79,71,0
0,62,98,2
0,82,59,2
0,55,73,74
0,39,71,96
0,44,83,0
0,58,57,0
0,36,62,4
0,55,73,0
0,62,0,20
0,67,98,10
0,37,43,2
0,67,0,12
0,65,49,3
0,69,52,0
0,76,73,0
0,38,79,4
0,38,89,0
0,38,80,0
0,50,93,0
0,62,75,0
0,65,98,0
0,65,0,88
0,50,81,4
0,53,32,0
0,65,71,0
0,62,83,2
0,38,70,94
0,39,73,0
0,44,69,0
0,57,77,0
0,69,73,0
0,69,85,0
0,76,85,0
0,50,69,72
0,65,82,0
0,65,29,24
0,74,77,0
0,74,62,3
0,38,59,5
0,69,59,0
0,62,52,4
0,65,54,0
0,39,71,4
0,41,79,0
0,44,83,0
0,57,55,0
0,69,53,0
0,65,71,4
0,38,89,4
0,39,77,0
0,53,64,0
0,69,75,0
0,60,86,0
0,62,0,2
0,60,0,10
0,62,86,0
0,67,52,3
0,75,54,0
0,38,80,5
0,39,89,0
0,39,71,0
0,51,82,0
0,55,69,0
0,60,75,0
0,60,88,0
0,63,75,0
0,62,0,2
0,58,64,92
0,60,0,82
0,62,100,2
0,70,71,7
0,38,70,1
0,39,73,0
0,44,69,0
0,63,84,0
0,58,54,30
0,63,59,7
0,38,59,4
0,41,81,0
0,41,73,0
0,53,77,0
0,58,69,0
0,60,71,0
0,63,66,0
0,63,83,2
0,62,0,2
0,60,56,8
0,69,52,3
0,39,71,3
0,44,83,0
0,63,73,0
0,60,53,16
0,63,0,0
0,57,96,2
0,46,62,3
0,62,63,0
0,65,62,0
0,57,0,3
0,58,90,0
0,35,49,2
0,46,83,0
0,46,92,0
0,46,82,0
0,51,71,0
0,70,67,90
0,42,52,2
0,53,67,0
0,53,52,0
0,72,75,2
0,39,67,2
0,53,92,0
0,58,92,0
0,58,77,0
0,74,55,2
0,42,59,2
0,46,89,0
0,53,69,0
0,62,95,0
0,58,0,12
0,44,95,3
0,60,73,0
0,63,73,0
0,75,79,2
0,39,53,2
0,44,89,0
0,44,79,0
0,44,79,0
0,56,107,0
0,60,101,0
0,79,77,2
0,42,63,2
0,51,56,0
0,63,92,0
0,77,67,2
0,39,81,2
0,42,95,0
0,51,85,0
0,56,71,0
0,56,90,0
0,74,63,2
0,39,81,2
0,44,81,0
0,44,79,0
0,51,69,0
0,51,69,3
0,55,53,0
0,58,62,0
0,75,63,2
0,38,80,2
0,39,92,0
0,39,79,0
0,51,90,0
0,51,43,0
0,55,67,0
0,63,67,0
0,51,55,6
0,55,50,0
0,38,70,24
0,39,73,0
0,44,69,0
0,51,44,0
0,55,56,0
0,55,79,0
0,63,69,0
0,63,86,1
0,70,109,8
0,70,0,30
0,39,56,10
0,51,43,0
0,58,54,0
0,58,69,0
0,75,104,2
0,75,0,14
0,77,112,34
0,38,59,2
0,39,81,0
0,39,71,0
0,51,54,0
0,55,40,0
0,77,0,2
0,78,109,14
0,78,0,10
0,39,92,4
0,51,83,0
0,51,67,0
0,79,92,0
0,38,79,4
0,39,71,0
0,44,83,0
0,51,59,0
0,55,84,0
0,87,92,0
0,63,82,1
0,79,0,6
0,36,87,8
0,51,35,0
0,51,69,0
0,82,104,0
0,82,0,4
0,34,81,4
0,38,80,0
0,46,77,0
0,46,77,0
0,51,52,0
0,65,52,0
0,74,77,0
0,77,84,0
0,86,73,0
0,58,66,92
0,62,57,0
0,38,70,96
0,39,73,0
0,44,69,0
0,65,72,0
0,86,69,0
0,70,73,1
0,87,61,8
0,34,54,16
0,62,52,0
0,86,57,0
0,87,67,2
0,38,59,4
0,46,50,0
0,51,54,0
0,65,61,0
0,86,85,0
0,70,67,1
0,34,67,4
0,62,58,0
0,82,75,0
0,76,67,10
0,77,0,2
0,38,54,4
0,39,71,0
0,44,83,0
0,46,68,0
0,70,41,0
0,75,84,0
0,81,63,0
0,76,0,2
0,74,96,10
0,75,0,6
0,37,57,4
0,51,43,0
0,62,47,0
0,74,0,0
0,36,73,2
0,36,67,0
0,38,80,0
0,51,63,0
0,70,32,0
0,79,69,0
0,72,98,4
0,70,56,54
0,38,70,14
0,39,73,0
0,44,69,0
0,62,62,0
0,72,0,0
0,74,98,4
0,63,73,4
0,67,73,4
0,36,69,4
0,70,62,0
0,74,83,4
0,78,89,4
0,38,59,4
0,41,64,0
0,41,66,0
0,51,54,0
0,75,83,0
0,77,75,2
0,53,56,2
0,70,75,0
0,72,75,0
0,74,0,0
0,41,73,20
0,75,42,4
0,72,62,4
0,70,59,4
0,67,83,4
0,39,71,6
0,44,83,0
0,65,81,2
0,41,63,22
0,51,43,0
0,70,60,0
0,38,80,20
0,46,73,0
0,46,69,0
0,46,75,0
0,51,64,0
0,62,52,0
0,65,59,0
0,69,67,0
0,77,96,2
0,75,0,2
0,77,0,26
0,53,35,62
0,72,69,0
0,74,86,4
0,62,45,13
0,65,46,0
0,69,59,0
0,38,70,5
0,39,73,0
0,44,69,0
0,46,56,0
0,53,57,0
0,62,56,0
0,65,67,0
0,69,79,0
0,62,68,1
0,41,57,10
0,51,43,0
0,58,53,0
0,34,49,16
0,29,56,2
0,38,59,0
0,46,73,0
0,51,71,0
0,62,29,0
0,46,69,10
0,34,56,4
0,53,64,0
0,62,48,0
0,35,75,6
0,65,30,0
0,70,81,3
0,39,71,4
0,39,79,0
0,41,59,0
0,44,83,0
0,58,84,0
0,69,69,0
0,46,67,10
0,74,0,6
0,38,33,4
0,39,71,0
0,41,81,0
0,46,54,0
0,53,86,0
0,34,79,4
0,38,76,0
0,67,54,1
0,75,57,0
0,38,80,4
0,39,71,0
0,39,62,0
0,51,69,0
0,51,52,0
0,51,49,4
0,55,44,0
0,38,70,12
0,39,73,0
0,44,69,0
0,51,63,0
0,51,63,0
0,55,68,0
0,58,81,0
0,63,72,1
0,70,102,4
0,70,0,28
0,39,60,22
0,39,49,0
0,51,75,0
0,51,49,0
0,75,112,2
0,75,0,28
0,77,109,22
0,74,63,3
0,38,59,5
0,51,47,0
0,51,68,0
0,51,51,0
0,77,0,0
0,55,57,1
0,62,90,2
0,78,109,6
0,78,0,18
0,79,102,4
0,51,47,4
0,79,0,2
0,82,124,40
0,39,71,4
0,44,83,0
0,50,67,0
0,51,64,0
0,55,31,0
0,75,53,0
0,58,62,1
0,51,63,4
0,55,46,0
0,79,69,0
0,50,49,3
0,53,59,0
0,38,79,5
0,38,80,0
0,50,60,0
0,50,60,0
0,51,51,0
0,74,50,0
0,80,112,6
0,82,0,0
0,80,0,6
0,81,100,4
0,50,56,4
0,38,70,2
0,39,73,0
0,44,69,0
0,51,60,0
0,57,90,0
0,65,50,0
0,69,48,0
0,76,77,0
0,62,77,1
0,65,40,69
0,69,20,0
0,76,79,0
0,45,64,4
0,50,63,0
0,50,88,0
0,38,59,10
0,51,50,0
0,53,53,0
0,65,52,0
0,72,59,0
0,41,49,4
0,51,52,0
0,57,58,0
0,69,52,0
0,74,63,14
0,81,0,2
0,38,56,2
0,39,71,0
0,44,83,0
0,51,70,0
0,53,73,0
0,77,98,0
0,62,86,1
0,77,0,62
0,79,71,2
0,77,76,10
0,79,0,3
0,77,0,7
0,77,94,2
0,41,66,2
0,50,73,0
0,57,64,0
0,77,0,4
0,72,115,8
0,48,47,4
0,62,35,0
0,65,46,0
0,70,42,0
0,72,0,3
0,36,83,2
0,36,62,0
0,38,80,0
0,48,62,0
0,51,50,0
0,53,56,0
0,58,48,0
0,62,66,0
0,76,102,0
0,58,47,40
0,38,70,4
0,39,73,0
0,44,69,0
0,51,63,0
0,53,52,0
0,58,64,0
0,62,69,0
0,62,61,0
0,65,75,1
0,76,0,14
0,36,55,4
0,36,66,0
0,58,57,0
