track,note,velocity,time
0,46,35,0
0,46,73,0
0,72,35,0
0,74,35,0
0,74,112,0
0,77,35,0
0,65,53,35
0,70,69,96
0,72,61,96
0,65,47,44
0,70,65,38
0,72,119,17
0,58,69,10
0,46,69,9
0,77,116,0
0,65,49,4
0,70,47,96
0,74,49,96
0,65,57,82
0,70,53,53
0,72,55,11
0,53,87,0
0,62,93,9
0,46,93,1
0,58,60,0
0,62,54,0
0,53,57,31
0,58,47,0
0,62,61,5
0,62,92,20
0,46,0,8
0,72,0,0
0,74,0,0
0,77,0,0
0,46,73,11
0,53,61,11
0,62,49,73
0,53,49,18
0,62,89,1
0,62,113,5
0,63,90,9
0,63,106,17
0,65,87,10
0,65,93,11
0,39,73,1
0,46,73,6
0,55,57,1
0,65,91,4
0,58,73,5
0,65,77,4
0,51,61,1
0,39,65,48
0,46,67,9
0,63,56,26
0,51,71,8
0,63,87,24
0,46,0,8
0,62,89,6
0,63,0,2
0,39,0,11
0,63,65,1
0,55,55,5
0,51,0,13
0,63,86,8
0,63,0,8
0,55,0,6
0,58,56,3
0,58,0,23
0,63,56,0
0,62,91,1
0,63,0,84
0,60,89,16
0,41,64,12
0,58,72,6
0,60,48,3
0,65,60,8
0,48,60,79
0,53,57,50
0,58,69,102
0,60,91,4
0,57,91,4
0,60,91,7
0,60,89,3
0,58,72,9
0,62,54,0
0,46,60,1
0,50,50,91
0,62,90,4
0,53,40,2
0,62,89,23
0,58,54,3
0,62,50,90
0,46,64,66
0,53,42,46
0,58,54,96
0,60,54,13
0,58,62,16
0,58,0,169
0,41,75,14
0,53,47,0
0,58,59,0
0,63,56,0
0,65,56,0
0,77,92,6
0,46,86,1
0,46,41,0
0,60,56,0
0,62,72,0
0,75,91,2
0,46,0,82
0,53,60,1
0,53,41,0
0,53,0,11
0,58,50,1
0,62,41,0
0,74,91,16
0,62,0,69
0,58,41,1
0,62,64,0
0,58,0,26
0,65,41,1
0,65,0,24
0,62,41,1
0,62,0,95
0,58,41,1
0,58,0,63
0,41,70,1
0,53,41,0
0,41,0,4
0,53,0,0
0,34,77,1
0,46,76,0
0,46,41,0
0,46,0,85
0,53,64,1
0,58,41,0
0,62,89,7
0,34,0,1
0,58,0,0
0,62,52,1
0,62,41,0
0,60,89,6
0,62,0,17
0,53,52,1
0,53,41,0
0,58,89,1
0,74,91,1
0,53,0,1
0,62,105,1
0,65,41,0
0,65,0,27
0,62,41,1
0,75,90,16
0,63,100,1
0,62,0,40
0,58,41,1
0,77,91,1
0,65,90,1
0,58,0,2
0,53,41,1
0,39,76,1
0,53,0,3
0,51,41,1
0,46,76,2
0,55,60,1
0,77,91,3
0,58,76,2
0,65,90,0
0,51,64,10
0,51,0,44
0,58,41,1
0,39,68,2
0,58,0,2
0,67,41,1
0,46,70,6
0,67,0,20
0,63,59,1
0,63,41,0
0,75,89,7
0,51,74,1
0,46,0,32
0,74,91,21
0,63,0,14
0,39,0,11
0,58,41,1
0,63,68,0
0,55,58,5
0,51,0,1
0,75,90,0
0,63,0,8
0,55,0,6
0,58,0,0
0,55,41,1
0,58,59,2
0,55,0,23
0,58,0,0
0,63,59,0
0,67,41,1
0,74,91,5
0,67,0,83
0,63,41,1
0,63,0,7
0,72,89,0
0,41,69,11
0,58,76,1
0,60,68,2
0,63,0,1
0,53,41,1
0,65,76,9
0,48,63,76
0,53,0,9
0,58,41,1
0,53,60,48
0,58,0,6
0,65,41,1
0,58,72,95
0,65,0,0
0,60,41,1
0,60,96,4
0,60,0,0
0,69,41,1
0,72,91,7
0,53,68,82
0,69,0,6
0,65,41,1
0,60,87,18
0,65,0,0
0,60,41,1
0,72,91,3
0,53,62,86
0,60,0,6
0,57,41,1
0,57,0,4
0,46,41,1
0,57,75,0
0,60,57,0
0,34,70,1
0,72,91,4
0,46,0,18
0,53,41,1
0,46,53,1
0,53,43,1
0,53,0,0
0,58,62,1
0,62,62,0
0,62,41,0
0,77,89,1
0,62,0,14
0,58,41,1
0,58,57,5
0,74,90,2
0,58,0,1
0,62,53,0
0,65,41,1
0,65,0,95
0,62,41,1
0,62,0,95
0,58,41,1
0,58,0,8
0,53,41,1
0,53,0,4
0,46,103,1
0,46,63,0
0,46,77,0
0,46,41,0
0,60,103,0
0,62,103,0
0,62,63,0
0,65,103,0
0,46,0,47
0,58,65,1
0,58,43,0
0,58,0,30
0,62,0,0
0,58,63,0
0,60,59,0
0,60,69,0
0,62,45,0
0,65,69,0
0,62,0,1
0,53,47,1
0,62,73,0
0,60,37,0
0,53,0,7
0,60,0,0
0,46,65,1
0,62,56,0
0,65,49,0
0,70,45,0
0,74,45,0
0,77,45,0
0,47,51,64
0,47,0,4
0,65,0,3
0,41,79,0
0,47,71,0
0,58,92,0
0,62,51,0
0,47,0,4
0,41,0,14
0,62,0,9
0,41,77,1
0,45,78,0
0,58,53,0
0,62,92,0
0,45,0,4
0,41,0,41
0,58,0,3
0,34,79,1
0,43,97,0
0,53,55,0
0,70,85,0
0,70,93,2
0,43,0,2
0,46,0,26
0,60,0,0
0,62,0,0
0,65,0,0
0,34,0,7
0,46,0,3
0,53,0,0
0,58,0,0
0,60,0,0
0,62,0,0
0,70,0,0
0,74,0,0
0,77,0,0
0,35,93,1
0,39,97,0
0,39,53,0
0,39,81,0
0,51,65,0
0,55,75,0
0,58,53,0
0,58,77,0
0,63,53,0
0,63,75,0
0,67,53,0
0,67,62,0
0,67,71,0
0,79,95,5
0,35,0,37
0,51,0,3
0,55,0,0
0,58,65,1
0,60,88,9
0,58,0,6
0,67,65,1
0,58,88,1
0,67,0,94
0,58,65,1
0,82,35,0
0,82,0,9
0,58,0,6
0,44,93,1
0,63,65,0
0,82,39,0
0,44,0,16
0,82,0,0
0,63,0,79
0,51,81,1
0,58,65,0
0,58,0,5
0,58,69,1
0,67,65,0
0,67,0,11
0,35,71,1
0,39,97,0
0,58,65,0
0,63,68,0
0,35,0,25
0,58,0,4
0,35,93,1
0,41,94,0
0,41,53,0
0,41,71,0
0,45,65,0
0,60,53,0
0,60,79,0
0,65,53,0
0,65,79,0
0,69,53,0
0,69,73,0
0,72,62,0
0,35,0,5
0,45,0,57
0,53,65,1
0,82,27,0
0,82,0,16
0,53,0,79
0,60,65,1
0,82,31,0
0,82,0,16
0,60,0,79
0,44,61,1
0,53,93,0
0,53,65,0
0,82,35,0
0,44,0,16
0,82,0,0
0,60,100,15
0,81,91,1
0,53,0,18
0,44,93,1
0,60,77,0
0,63,65,0
0,82,39,0
0,44,0,5
0,82,0,0
0,63,0,75
0,60,65,1
0,65,71,0
0,82,91,48
0,62,96,12
0,60,0,30
0,57,65,1
0,69,79,0
0,84,93,8
0,57,0,3
0,53,64,1
0,53,65,0
0,63,96,1
0,53,0,3
0,77,91,0
0,34,94,1
0,35,93,0
0,46,53,0
0,46,89,0
0,46,65,0
0,62,53,0
0,62,53,0
0,62,77,0
0,65,77,0
0,70,53,0
0,70,79,0
0,35,0,6
0,62,98,12
0,46,0,67
0,53,65,1
0,60,91,2
0,58,96,15
0,53,0,36
0,62,65,1
0,62,0,95
0,58,65,1
0,82,35,0
0,82,0,16
0,58,0,52
0,44,93,1
0,65,65,0
0,82,39,0
0,44,0,16
0,82,0,0
0,45,71,2
0,74,93,2
0,53,73,2
0,65,0,0
0,33,106,1
0,35,95,0
0,45,53,0
0,45,89,0
0,51,61,0
0,60,53,0
0,60,89,0
0,65,49,0
0,65,81,0
0,69,53,0
0,69,84,0
0,58,100,3
0,60,75,0
0,65,73,6
0,35,0,7
0,51,0,31
0,84,95,4
0,65,93,4
0,45,0,10
0,53,0,4
0,65,0,1
0,60,0,3
0,65,0,2
0,31,102,2
0,35,93,0
0,43,53,0
0,43,77,0
0,43,67,0
0,51,67,0
0,62,53,0
0,62,53,0
0,62,79,0
0,67,53,0
0,67,79,0
0,70,53,0
0,70,81,0
0,35,0,6
0,82,91,3
0,62,98,6
0,51,0,17
0,43,0,48
0,55,67,1
0,55,0,95
0,58,67,1
0,58,0,21
0,55,67,1
0,55,0,77
0,44,93,1
0,62,67,0
0,44,0,16
0,41,71,2
0,53,73,3
0,81,93,0
0,62,0,1
0,29,97,1
0,35,91,0
0,41,53,0
0,41,81,0
0,51,57,0
0,60,53,0
0,60,81,0
0,65,53,0
0,65,49,0
0,65,84,0
0,69,53,0
0,69,81,0
0,57,75,3
0,65,71,8
0,35,0,5
0,51,0,31
0,82,90,120
0,81,87,12
0,41,0,16
0,65,0,0
0,53,0,0
0,57,0,0
0,65,0,1
0,27,102,1
0,35,93,0
0,39,53,0
0,39,79,0
0,51,65,0
0,51,53,0
0,58,53,0
0,63,53,0
0,67,53,0
0,67,54,0
0,67,84,0
0,79,90,5
0,35,0,37
0,51,0,0
0,51,0,48
0,58,65,1
0,58,0,95
0,63,65,1
0,63,0,2
0,51,81,1
0,58,65,0
0,82,35,0
0,82,0,16
0,58,0,5
0,44,93,1
0,58,84,0
0,67,65,0
0,82,39,0
0,44,0,11
0,82,0,0
0,67,0,79
0,63,70,1
0,63,65,0
0,63,0,95
0,58,65,1
0,67,77,0
0,58,0,55
0,27,106,1
0,35,71,0
0,55,65,0
0,69,52,0
0,35,0,18
0,70,52,1
0,55,0,4
0,29,94,1
0,35,93,0
0,41,53,0
0,41,84,0
0,53,65,0
0,60,53,0
0,60,81,0
0,65,53,0
0,65,81,0
0,69,53,0
0,69,79,0
0,72,53,0
0,35,0,6
0,53,0,79
0,60,65,1
0,82,27,0
0,82,0,16
0,60,0,79
0,65,65,1
0,82,31,0
0,82,0,16
0,65,0,79
0,44,61,1
0,60,65,0
0,82,35,0
0,69,93,2
0,44,0,14
0,82,0,0
0,70,90,41
0,60,0,28
0,44,93,1
0,69,65,0
0,82,39,0
0,44,0,16
0,82,0,0
0,72,92,24
0,69,0,53
0,53,79,1
0,65,65,0
0,65,0,2
0,60,77,1
0,60,65,0
0,69,92,5
0,60,0,4
0,57,65,1
0,65,58,0
0,65,69,0
0,67,52,13
0,67,92,1
0,57,0,4
0,34,97,1
0,35,93,0
0,46,53,0
0,46,79,0
0,46,65,0
0,62,53,0
0,65,58,0
0,65,81,0
0,70,53,0
0,70,81,0
0,65,90,5
0,35,0,4
0,46,0,48
0,53,65,1
0,82,27,0
0,82,0,16
0,53,0,79
0,62,65,1
0,82,31,0
0,82,0,16
0,62,0,27
0,58,65,1
0,82,35,0
0,82,0,7
0,58,0,32
0,44,93,1
0,65,65,0
0,82,39,0
0,44,0,16
0,82,0,0
0,65,0,79
0,62,65,1
0,84,89,8
0,62,0,13
0,58,65,1
0,58,0,2
0,34,97,1
0,35,71,0
0,53,65,0
0,58,66,0
0,82,89,7
0,35,0,32
0,53,0,4
0,34,94,1
0,35,93,0
0,46,75,0
0,46,65,0
0,60,53,0
0,63,53,0
0,63,64,0
0,63,77,0
0,68,53,0
0,68,77,0
0,72,49,0
0,72,79,0
0,35,0,6
0,46,0,30
0,51,65,1
0,82,27,0
0,82,0,2
0,51,0,79
0,60,65,1
0,82,31,0
0,82,0,16
0,68,48,1
0,60,0,47
0,44,61,1
0,56,65,0
0,70,48,0
0,82,35,0
0,44,0,16
0,82,0,0
0,65,91,2
0,60,41,1
0,72,49,0
0,56,0,4
0,34,106,1
0,44,93,0
0,46,69,0
0,46,65,0
0,62,51,0
0,62,53,0
0,65,53,0
0,65,62,0
0,65,70,0
0,70,53,0
0,70,77,0
0,74,47,0
0,74,79,0
0,82,39,0
0,67,92,1
0,44,0,3
0,82,0,0
0,62,0,4
0,63,52,4
0,63,0,20
0,65,52,4
0,65,0,20
0,67,53,4
0,67,0,20
0,46,0,2
0,36,92,1
0,53,65,0
0,68,54,0
0,70,93,1
0,65,88,7
0,68,0,5
0,70,55,4
0,70,0,20
0,72,55,4
0,72,0,20
0,74,56,4
0,74,0,20
0,53,0,0
0,38,92,1
0,75,57,0
0,62,65,0
0,82,93,1
0,75,0,7
0,77,58,1
0,77,0,13
0,79,58,4
0,79,0,1
0,80,59,4
0,80,0,20
0,62,0,3
0,34,84,1
0,58,65,0
0,82,60,0
0,79,92,15
0,82,0,3
0,84,60,4
0,84,0,20
0,86,61,4
0,86,0,11
0,87,61,4
0,87,0,1
0,58,0,0
0,35,93,1
0,39,102,0
0,39,57,0
0,39,79,0
0,51,77,0
0,51,65,0
0,57,29,0
0,63,57,0
0,63,89,0
0,67,57,0
0,67,52,0
0,67,84,0
0,79,47,0
0,89,62,0
0,89,0,10
0,91,62,4
0,35,0,18
0,51,0,48
0,57,0,0
0,60,0,0
0,58,65,1
0,91,0,27
0,58,0,3
0,67,65,1
0,67,0,26
0,51,89,1
0,58,65,0
0,81,47,0
0,82,35,0
0,82,0,16
0,82,45,1
0,58,0,8
0,44,93,1
0,58,71,0
0,63,65,0
0,82,39,0
0,91,51,0
0,44,0,8
0,82,0,0
0,63,0,47
0,58,65,1
0,63,75,0
0,58,0,95
0,67,81,1
0,67,65,0
0,67,0,29
0,35,71,1
0,39,86,0
0,51,75,0
0,58,65,0
0,35,0,19
0,58,0,4
0,35,93,1
0,41,90,0
0,41,57,0
0,41,79,0
0,45,65,0
0,60,77,0
0,65,57,0
0,65,79,0
0,69,57,0
0,69,75,0
0,72,57,0
0,35,0,6
0,45,0,39
0,53,79,1
0,53,65,0
0,82,27,0
0,82,0,16
0,53,0,1
0,60,77,1
0,60,65,0
0,82,31,0
0,87,55,0
0,82,0,12
0,60,0,79
0,44,61,1
0,53,65,0
0,65,77,0
0,82,35,0
0,81,93,2
0,44,0,1
0,82,0,0
0,53,0,34
0,44,93,1
0,53,84,0
0,63,65,0
0,67,54,0
0,82,39,0
0,84,46,0
0,44,0,15
0,82,0,0
0,81,94,4
0,60,88,1
0,63,0,3
0,60,65,1
0,69,77,0
0,82,93,1
0,62,90,7
0,60,0,7
0,53,68,1
0,57,65,0
0,65,73,0
0,77,48,0
0,84,96,6
0,57,0,1
0,53,65,1
0,60,73,0
0,63,89,4
0,53,0,4
0,34,102,1
0,35,93,0
0,46,57,0
0,46,89,0
0,46,65,0
0,62,89,0
0,65,56,0
0,65,84,0
0,70,57,0
0,70,84,0
0,74,57,0
0,89,39,0
0,35,0,6
0,65,90,6
0,84,92,5
0,46,0,68
0,53,65,1
0,53,0,95
0,62,65,1
0,62,0,37
0,58,65,1
0,82,35,0
0,82,0,16
0,58,0,79
0,44,93,1
0,58,81,0
0,65,65,0
0,82,39,0
0,44,0,16
0,82,0,0
0,45,71,0
0,53,73,4
0,65,0,0
0,33,102,1
0,35,95,0
0,45,57,0
0,45,84,0
0,51,61,0
0,57,93,0
0,60,89,0
0,65,84,0
0,69,57,0
0,69,62,0
0,69,79,0
0,72,57,0
0,60,75,3
0,86,93,1
0,65,73,5
0,65,92,1
0,35,0,3
0,51,0,6
0,45,0,0
0,53,0,4
0,60,0,3
0,65,0,4
0,31,97,2
0,35,93,0
0,43,57,0
0,43,79,0
0,43,67,0
0,51,67,0
0,55,89,0
0,62,57,0
0,62,77,0
0,67,57,0
0,67,84,0
0,70,57,0
0,70,60,0
0,70,79,0
0,35,0,5
0,65,90,1
0,86,93,2
0,51,0,4
0,43,0,43
0,55,67,1
0,63,86,3
0,84,93,4
0,82,93,54
0,55,0,8
0,58,67,1
0,62,90,1
0,58,0,89
0,55,67,1
0,55,0,22
0,44,93,1
0,62,67,0
0,44,0,16
0,41,71,2
0,53,73,3
0,62,0,3
0,29,102,1
0,35,91,0
0,41,57,0
0,41,77,0
0,51,57,0
0,53,81,0
0,60,57,0
0,60,81,0
0,65,57,0
0,65,81,0
0,69,57,0
0,69,60,0
0,69,77,0
0,57,75,3
0,65,71,1
0,35,0,5
0,81,93,5
0,51,0,23
0,89,46,1
0,86,45,1
0,82,90,1
0,81,91,1
0,41,0,1
0,53,0,0
0,57,0,3
0,65,0,1
0,27,94,1
0,35,93,0
0,39,57,0
0,39,79,0
0,51,65,0
0,51,51,0
0,58,57,0
0,63,57,0
