track,note,velocity,time
1,64,82,752
1,67,93,0
1,57,71,0
1,60,70,0
1,67,77,0
1,71,91,0
1,74,91,0
1,64,73,0
1,71,87,168
1,74,89,0
1,67,91,0
1,64,83,4
1,71,91,48
1,74,102,0
1,64,82,0
1,67,93,0
1,69,79,4
1,72,89,0
1,63,64,0
1,66,74,0
1,69,99,192
1,72,110,0
1,66,86,0
1,63,80,0
1,69,89,60
1,72,102,0
1,63,74,0
1,66,82,0
1,72,85,4
1,79,99,0
1,62,80,0
1,65,83,0
1,79,97,168
1,72,89,0
1,62,85,0
1,65,76,0
1,62,83,28
1,65,82,0
1,72,82,0
1,79,89,0
1,79,105,8
1,71,78,0
1,62,77,0
1,65,83,0
1,81,73,4
1,83,65,0
1,84,51,20
1,72,105,4
1,55,67,176
1,60,71,0
1,64,70,0
1,55,77,124
1,60,73,0
1,64,71,0
1,55,76,248
1,60,70,0
1,64,66,0
1,55,70,104
1,60,68,0
1,64,71,0
1,64,71,232
1,60,70,0
1,55,70,0
1,55,73,120
1,60,66,0
1,64,69,0
1,60,72,248
1,64,70,4
1,55,68,0
1,55,70,120
1,60,68,0
1,64,71,0
1,64,71,232
1,60,70,0
1,55,70,0
1,55,73,120
1,60,66,0
1,64,69,0
1,60,72,248
1,64,70,4
1,55,68,0
1,55,70,120
1,60,68,0
1,64,71,0
1,64,71,232
1,60,70,0
1,55,70,0
1,55,73,120
1,60,66,0
1,64,69,0
1,60,72,248
1,64,70,4
1,55,68,0
1,55,70,120
1,60,68,0
1,64,71,0
1,64,71,232
1,60,70,0
1,55,70,0
1,55,73,120
1,60,66,0
1,64,69,0
1,60,72,248
1,64,70,4
1,55,68,0
1,55,70,120
1,60,68,0
1,64,71,0
1,64,71,232
1,60,70,0
1,55,70,0
1,55,73,120
1,60,66,0
1,64,69,0
1,60,72,248
1,64,70,4
1,55,68,0
1,55,70,120
1,60,68,0
1,64,71,0
1,64,71,232
1,60,70,0
1,55,70,0
1,55,73,120
1,60,66,0
1,64,69,0
1,59,72,248
1,54,68,4
1,63,70,0
1,55,70,184
1,60,68,0
1,64,71,0
1,54,70,232
1,59,70,0
1,63,71,0
1,55,73,0
1,60,66,0
1,64,69,0
1,59,72,248
1,54,68,4
1,63,70,0
1,55,70,184
1,60,68,0
1,64,71,0
1,63,71,232
1,54,70,0
1,59,70,0
1,55,73,0
1,60,66,0
1,64,69,0
1,63,70,244
1,54,68,0
1,59,72,4
1,55,70,0
1,60,68,0
1,64,71,0
1,57,70,232
1,64,71,0
1,60,70,0
1,57,73,120
1,60,66,0
1,64,69,0
1,60,72,248
1,57,68,4
1,64,70,0
1,59,68,128
1,63,71,0
1,55,70,0
1,55,70,232
1,63,71,0
1,59,70,0
1,55,73,120
1,60,66,0
1,64,69,0
1,76,75,248
1,64,72,0
1,72,70,4
1,78,78,104
1,67,68,0
1,74,71,0
1,67,70,264
1,74,71,0
1,67,66,120
1,74,69,0
1,74,82,4
1,67,72,0
1,70,70,8
1,76,72,0
1,67,68,0
1,72,71,0
1,67,70,232
1,72,71,0
1,67,66,120
1,72,69,0
1,76,79,260
1,67,72,4
1,72,70,4
1,78,86,120
1,67,68,0
1,74,71,0
1,74,79,4
1,67,70,0
1,70,71,0
1,76,80,24
1,67,66,0
1,72,69,0
1,76,82,192
1,72,70,0
1,67,72,4
1,78,78,72
1,67,68,0
1,74,71,0
1,74,82,256
1,67,70,4
1,70,71,0
1,67,66,28
1,72,69,0
1,76,76,4
1,76,77,156
1,67,72,12
1,72,70,4
1,78,80,112
1,67,68,0
1,74,71,0
1,67,70,264
1,74,71,0
1,67,66,120
1,74,69,0
1,74,82,4
1,67,72,4
1,70,70,4
1,72,72,64
1,64,68,0
1,67,71,0
1,67,71,196
1,60,70,0
1,64,71,0
1,69,71,120
1,64,69,0
1,60,66,0
1,72,71,4
1,60,72,4
1,64,70,4
1,75,65,4
1,72,65,0
1,63,55,0
1,68,57,0
1,72,70,248
1,63,64,0
1,68,67,0
1,63,57,100
1,68,72,0
1,72,72,4
1,56,52,240
1,60,58,0
1,63,55,0
1,56,59,104
1,63,63,0
1,60,66,0
1,56,59,264
1,60,69,0
1,63,59,0
1,56,58,108
1,60,71,0
1,63,64,0
1,56,57,256
1,60,55,0
1,63,52,0
1,56,72,112
1,58,70,0
1,61,36,0
1,65,82,0
1,56,58,220
1,58,60,0
1,61,38,0
1,65,72,0
1,56,55,96
1,58,64,0
1,61,46,0
1,64,70,0
1,56,38,232
1,58,47,0
1,61,41,0
1,64,54,0
1,56,63,104
1,60,71,0
1,63,74,0
1,56,70,272
1,60,76,0
1,63,70,0
1,56,72,112
1,63,70,0
1,60,71,0
1,56,66,264
1,60,69,0
1,63,62,0
1,61,82,104
1,65,83,0
1,68,82,0
1,61,62,300
1,65,80,0
1,68,66,0
1,61,70,128
1,65,82,0
1,68,74,0
1,61,40,280
1,68,50,0
1,65,69,0
1,68,74,124
1,61,64,0
1,65,79,0
1,61,36,248
1,56,57,4
1,58,46,0
1,65,65,0
1,67,61,128
1,65,70,0
1,61,52,0
1,58,55,0
1,56,52,232
1,65,75,0
1,61,56,0
1,68,60,0
1,70,76,108
1,68,60,0
1,61,46,0
1,65,70,0
1,72,66,224
1,61,55,0
1,68,67,0
1,65,73,0
1,61,55,112
1,68,70,0
1,65,72,0
1,70,64,4
1,56,52,188
1,61,48,0
1,65,73,0
1,70,66,104
1,61,59,0
1,68,70,0
1,65,77,0
1,61,51,224
1,68,62,0
1,65,75,0
1,70,66,104
1,61,59,0
1,68,76,0
1,65,76,0
1,61,66,232
1,68,69,0
1,65,71,0
1,73,67,4
1,64,51,112
1,69,58,0
1,73,53,0
1,64,50,260
1,69,58,0
1,73,55,0
1,64,59,120
1,69,65,0
1,73,63,0
1,64,54,264
1,69,65,0
1,73,63,0
1,69,65,124
1,64,55,0
1,73,63,0
1,57,65,288
1,64,49,0
1,61,63,4
1,52,63,116
1,57,65,0
1,64,57,0
1,52,71,152
1,57,82,0
1,64,71,0
1,62,58,120
1,57,66,0
1,54,55,0
1,54,59,204
1,57,63,0
1,62,65,0
1,54,66,104
1,57,69,0
1,62,65,0
1,54,69,172
1,57,64,0
1,61,51,0
1,54,39,120
1,57,73,0
1,62,72,0
1,54,59,192
1,57,69,0
1,62,69,0
1,54,57,120
1,57,66,0
1,62,65,0
1,54,57,192
1,57,65,0
1,62,65,0
1,53,84,104
1,58,81,0
1,62,84,0
1,53,58,928
1,58,69,0
1,62,68,0
1,63,53,960
1,55,52,0
1,60,49,0
1,54,50,340
1,62,47,0
1,60,50,0
1,55,52,352
1,59,58,0
1,62,54,0
1,59,56,220
1,55,51,0
1,62,51,0
1,59,60,124
1,62,58,0
1,55,58,0
1,59,62,212
1,62,56,0
1,55,57,0
1,62,55,132
1,55,55,0
1,59,55,0
1,62,55,208
1,59,55,0
1,55,55,0
1,59,61,120
1,55,54,0
1,59,65,200
1,55,58,0
1,55,51,120
1,60,59,0
1,64,57,0
1,55,58,204
1,64,59,0
1,60,63,0
1,55,56,116
1,60,61,0
1,64,58,0
1,55,61,220
1,60,68,0
1,64,61,0
1,55,57,112
1,60,62,0
1,64,62,0
1,57,53,224
1,64,61,0
1,60,63,0
1,57,56,112
1,64,64,0
1,60,62,0
1,57,57,224
1,64,65,0
1,60,69,0
1,65,66,128
1,57,50,0
1,60,59,0
1,60,60,216
1,57,54,0
1,65,46,0
1,65,60,116
1,59,56,0
1,62,64,0
1,65,58,212
1,59,52,0
1,62,60,0
1,60,60,112
1,64,65,0
1,67,65,0
1,67,75,216
1,64,81,0
1,55,81,0
1,66,84,80
1,57,90,0
1,64,88,0
1,57,99,160
1,64,97,0
1,71,82,24
1,63,90,0
1,59,87,0
1,66,88,0
1,54,30,972
1,57,28,0
1,61,28,0
1,64,32,0
1,52,35,4
1,56,22,0
1,59,38,0
1,59,81,4
1,64,78,0
1,56,82,0
1,58,65,0
1,63,61,0
1,55,65,0
1,55,57,192
1,63,57,0
1,58,58,0
1,63,69,116
1,58,68,0
1,55,67,0
1,57,58,240
1,62,56,0
1,54,58,0
1,63,69,112
1,58,82,0
1,55,76,0
1,63,58,232
1,58,58,0
1,55,57,0
1,55,68,104
1,63,72,0
1,58,66,0
1,57,89,260
1,62,105,0
1,54,108,0
1,63,66,4
1,58,80,0
1,55,79,0
1,57,89,180
1,54,108,0
1,62,99,0
1,63,50,4
1,58,82,0
1,55,91,0
1,63,112,296
1,51,98,0
1,46,101,8
1,58,104,0
1,65,95,840
1,53,75,300
1,65,107,0
1,60,83,576
1,48,83,0
1,67,77,940
1,55,73,412
1,67,77,0
1,50,65,4
1,62,75,0
1,51,76,292
1,63,70,0
1,46,66,4
1,58,71,0
1,56,52,292
1,59,50,0
1,68,52,0
1,64,62,0
1,56,57,196
1,59,50,0
1,64,60,0
1,68,46,0
1,56,51,92
1,59,55,0
1,64,65,0
1,68,57,0
1,57,50,196
1,59,58,0
1,63,70,0
1,66,63,0
1,56,59,92
1,59,61,0
1,62,69,0
1,64,66,0
1,56,70,196
1,59,40,0
1,62,46,0
1,64,47,8
1,52,64,88
1,59,59,0
1,62,65,0
1,64,60,0
1,52,64,196
1,59,40,0
1,62,46,0
1,64,47,0
1,52,49,100
1,61,50,0
1,64,61,0
1,57,53,0
1,52,59,196
1,57,51,0
1,61,52,0
1,64,60,0
1,52,56,72
1,57,50,0
1,61,57,0
1,64,61,0
1,52,53,188
1,56,42,0
1,59,55,0
1,64,48,0
1,61,59,72
1,57,62,0
1,64,69,0
1,52,58,0
1,62,72,148
1,59,58,0
1,64,64,0
1,52,57,0
1,61,67,48
1,64,65,0
1,57,62,0
1,66,63,168
1,62,79,0
1,57,61,0
1,67,65,64
1,64,70,0
1,57,63,0
1,64,72,136
1,57,61,0
1,67,65,0
1,64,69,100
1,67,65,0
1,57,65,0
1,63,69,120
1,66,63,0
1,57,58,0
1,67,64,88
1,57,66,0
1,64,72,0
1,62,73,140
1,57,58,0
1,66,70,0
1,64,68,76
1,61,63,0
1,57,61,0
1,61,58,148
1,57,59,0
1,64,63,0
1,67,65,92
1,57,64,0
1,64,73,0
1,63,55,104
1,57,47,0
1,66,59,0
1,64,71,72
1,57,59,0
1,67,64,0
1,63,64,120
1,57,58,0
1,66,63,0
1,57,52,80
1,64,72,0
1,67,65,0
1,62,71,112
1,66,72,0
1,57,58,0
1,64,66,84
1,61,57,0
1,57,57,0
1,56,58,148
1,59,76,0
1,62,69,0
1,57,69,120
1,64,73,0
1,67,71,0
1,57,65,152
1,64,77,0
1,67,77,0
1,67,73,96
1,64,77,8
1,57,70,0
1,57,62,160
1,63,67,0
1,66,63,0
1,57,65,80
1,64,79,0
1,67,68,0
1,57,64,148
1,62,72,0
1,66,70,0
1,64,65,92
1,57,60,0
1,61,64,8
1,62,66,184
1,56,55,0
1,59,70,0
1,57,73,100
1,61,86,0
1,69,82,0
1,56,76,396
1,62,82,0
1,64,79,0
1,57,83,352
1,69,85,0
1,61,84,0
1,64,85,16
1,65,105,384
1,70,112,0
1,62,112,0
1,67,93,72
1,72,112,0
1,64,93,0
1,74,93,56
1,69,99,0
1,65,102,0
1,76,112,76
1,70,104,0
1,67,95,0
1,77,110,60
1,72,95,0
1,69,87,0
1,79,112,76
1,74,95,0
1,70,101,0
1,81,110,80
1,75,104,0
1,72,107,0
1,57,52,376
1,63,58,0
1,65,65,0
1,62,42,4
1,58,33,4
1,53,41,0
1,62,30,228
1,58,30,0
1,53,30,0
1,53,38,120
1,58,38,0
1,62,40,0
1,62,29,232
1,58,30,0
1,53,28,0
1,62,42,120
1,58,33,4
1,53,41,0
1,62,30,228
1,58,30,0
1,53,30,0
1,53,38,120
1,58,38,0
1,62,40,0
1,62,29,232
1,58,30,0
1,53,28,0
1,62,42,120
1,58,33,4
1,53,41,0
1,62,30,228
1,58,30,0
1,53,30,0
1,53,38,120
1,58,38,0
1,62,40,0
1,62,29,232
1,58,30,0
1,53,28,0
1,62,42,120
1,58,33,4
1,53,41,0
1,62,30,228
1,58,30,0
1,53,30,0
1,53,38,120
1,58,38,0
1,62,40,0
1,62,29,232
1,58,30,0
1,53,28,0
1,62,42,120
1,58,33,4
1,53,41,0
1,62,30,228
1,58,30,0
1,53,30,0
1,53,38,120
1,58,38,0
1,62,40,0
1,62,29,232
1,58,30,0
1,53,28,0
1,62,42,120
1,58,33,4
1,53,41,0
1,62,30,228
1,58,30,0
1,53,30,0
1,53,38,120
1,58,38,0
1,62,40,0
1,62,29,232
1,58,30,0
1,53,28,0
1,62,42,120
1,58,33,4
1,53,41,0
1,62,30,228
1,58,30,0
1,53,30,0
1,53,38,120
1,58,38,0
1,62,40,0
1,62,29,232
1,58,30,0
1,53,28,0
1,62,42,120
1,58,33,4
1,53,41,0
1,62,30,228
1,58,30,0
1,53,30,0
1,53,38,120
1,58,38,0
1,62,40,0
1,62,29,232
1,58,30,0
1,53,28,0
1,62,42,120
1,58,33,4
1,53,41,0
1,62,30,228
1,58,30,0
1,53,30,0
1,53,38,120
1,58,38,0
1,62,40,0
1,62,29,232
1,58,30,0
1,53,28,0
1,62,42,120
1,58,33,4
1,53,41,0
1,62,30,228
1,58,30,0
1,53,30,0
1,53,38,120
1,58,38,0
1,62,40,0
1,62,29,232
1,58,30,0
1,53,28,0
1,62,42,120
1,58,33,4
1,53,41,0
1,62,30,228
1,58,30,0
1,53,30,0
1,53,38,120
1,58,38,0
1,62,40,0
1,62,29,232
1,58,30,0
1,53,28,0
1,62,42,120
1,58,33,4
1,53,41,0
1,62,30,228
1,58,30,0
1,53,30,0
1,53,38,120
1,58,38,0
1,62,40,0
1,62,29,232
1,58,30,0
1,53,28,0
1,62,42,120
1,58,33,4
1,53,41,0
1,62,30,228
1,58,30,0
1,53,30,0
1,53,38,120
1,58,38,0
1,62,40,0
1,62,29,232
1,58,30,0
1,53,28,0
1,72,79,128
1,69,64,4
1,70,52,4
1,74,60,0
1,75,80,68
1,72,58,0
1,74,71,76
1,77,70,0
1,79,69,196
1,75,86,0
1,69,65,104
1,72,76,0
1,70,43,4
1,74,59,0
1,75,80,80
1,72,58,0
1,77,71,84
1,74,72,0
1,75,80,196
1,79,69,0
1,69,65,112
1,72,83,0
1,70,47,0
1,74,61,0
1,72,59,88
1,75,82,0
1,77,64,76
1,74,65,0
1,75,78,180
1,79,62,0
1,73,83,100
1,69,83,0
1,81,83,0
1,77,85,0
1,62,53,928
1,58,32,4
1,65,42,0
1,58,38,296
1,62,53,0
1,65,44,0
1,62,49,124
1,60,45,8
1,65,48,0
1,60,53,284
1,62,55,0
1,65,49,0
1,62,53,120
1,60,48,0
1,65,51,0
1,60,51,264
1,62,53,0
1,65,50,0
1,58,37,120
1,62,50,4
1,65,50,0
1,58,33,256
1,62,53,0
1,65,46,0
1,58,44,124
1,62,60,0
1,65,53,4
1,58,33,312
1,62,53,0
1,65,47,0
1,58,41,120
1,62,52,0
1,65,49,0
1,58,39,280
1,62,56,0
1,65,49,0
1,65,53,128
1,62,56,0
1,58,44,0
1,58,39,296
1,62,58,0
1,65,53,0
1,58,43,136
1,63,46,0
1,53,40,0
1,60,51,0
1,53,46,248
1,58,47,0
1,60,53,0
1,63,50,0
1,53,42,96
1,60,38,0
1,58,36,8
1,63,43,0
1,53,51,196
1,58,50,0
1,60,50,0
1,63,51,0
1,60,49,88
1,63,41,0
1,65,53,0
1,65,54,248
1,60,49,12
1,63,36,0
1,53,45,96
1,58,43,0
1,60,45,0
1,63,42,0
1,53,45,204
1,58,43,0
1,60,43,0
1,63,48,0
1,58,41,104
1,63,49,0
1,60,46,0
1,53,43,8
1,53,45,216
1,58,42,0
1,60,47,0
1,63,52,0
1,58,44,112
1,63,47,0
1,53,50,0
1,60,45,0
1,53,47,176
1,58,45,8
1,60,46,0
1,63,43,0
1,58,48,104
1,63,48,0
1,53,49,0
1,60,43,0
1,58,52,204
1,53,54,0
1,60,53,0
