track,note,velocity,time
1,72,63,0
1,72,63,58
1,71,63,42
1,72,63,32
1,67,63,52
1,64,63,38
1,69,63,34
1,68,63,56
1,69,63,34
1,65,63,42
1,62,63,54
1,60,63,34
1,59,63,42
1,67,63,50
1,67,63,46
1,66,63,36
1,67,63,38
1,64,63,58
1,60,63,36
1,65,63,46
1,64,63,34
1,62,63,58
1,60,63,40
1,59,63,38
1,57,63,56
1,55,63,40
1,57,63,38
1,60,63,42
1,65,63,48
1,59,63,40
1,62,63,38
1,67,63,50
1,64,63,46
1,67,63,46
1,72,63,40
1,66,63,52
1,69,63,36
1,74,63,42
1,71,63,60
1,69,63,44
1,67,63,52
1,66,63,44
1,67,63,48
1,72,63,46
1,69,63,52
1,66,63,46
1,62,63,42
1,59,63,52
1,66,63,34
1,64,63,54
1,63,63,42
1,64,63,40
1,57,63,36
1,60,63,52
1,62,63,40
1,54,63,36
1,60,63,42
1,57,63,58
1,62,63,36
1,60,63,44
1,59,63,56
1,67,63,34
1,66,63,44
1,64,63,52
1,69,63,40
1,71,63,54
1,69,63,36
1,67,63,46
1,66,63,52
1,69,63,50
1,66,63,44
1,62,63,44
1,67,63,48
1,70,63,40
1,67,63,44
1,65,63,48
1,64,47,44
1,67,47,58
1,64,47,36
1,60,47,44
1,65,47,54
1,69,47,36
1,65,47,44
1,64,47,56
1,62,47,44
1,65,47,48
1,62,47,44
1,58,47,40
1,63,47,48
1,67,47,44
1,63,47,44
1,60,47,48
1,65,47,46
1,68,47,46
1,65,47,42
1,62,47,44
1,67,47,52
1,71,47,44
1,67,47,42
1,65,47,50
1,64,63,44
1,62,63,46
1,60,63,56
1,59,63,36
1,60,63,44
1,65,63,34
1,62,63,60
1,59,63,40
1,55,63,34
1,52,63,44
1,59,63,36
1,57,63,54
1,56,63,36
1,57,63,46
1,62,63,34
1,65,63,56
1,67,63,44
1,59,63,34
1,65,63,54
1,62,63,44
1,67,63,46
1,65,63,42
1,64,63,50
1,69,63,38
1,65,63,40
1,71,63,50
1,69,63,46
1,67,63,44
1,72,63,52
1,69,63,50
1,74,63,40
1,71,63,44
1,76,63,50
1,77,63,42
1,76,58,40
1,74,52,50
1,72,47,50
1,71,42,40
1,69,37,52
1,68,34,38
1,66,34,48
1,64,34,50
1,66,34,44
1,68,34,58
1,69,34,36
1,69,34,60
1,68,34,44
1,69,34,36
1,64,34,58
1,60,34,38
1,65,34,44
1,64,34,52
1,65,34,40
1,62,34,44
1,59,34,52
1,57,33,46
1,56,33,46
1,64,33,46
1,64,33,58
1,63,33,44
1,64,33,44
1,60,33,58
1,57,33,34
1,62,33,42
1,60,33,34
1,59,33,56
1,57,33,44
1,56,33,34
1,54,33,52
1,52,33,44
1,53,33,44
1,57,33,44
1,62,33,48
1,55,32,34
1,59,32,42
1,64,32,60
1,57,32,36
1,60,32,58
1,65,32,44
1,59,32,56
1,62,32,36
1,67,32,44
1,60,32,56
1,64,32,44
1,69,32,48
1,62,32,44
1,65,32,48
1,70,32,38
1,64,31,48
1,67,39,38
1,70,68,38
1,74,98,48
1,76,127,42
1,72,127,38
1,77,63,52
1,77,63,54
1,77,63,42
1,76,63,52
1,77,63,36
1,72,63,54
1,69,63,40
1,74,63,34
1,73,63,58
1,74,63,34
1,70,63,44
1,67,63,44
1,65,63,36
1,64,63,54
1,72,63,44
1,72,63,54
1,72,63,46
1,71,63,52
1,72,63,36
1,69,63,54
1,65,63,44
1,70,63,38
1,69,63,48
1,67,63,60
1,65,63,36
1,64,63,42
1,62,63,60
1,60,63,36
1,62,63,58
1,65,63,44
1,70,63,50
1,64,63,40
1,67,63,44
1,72,63,52
1,69,63,42
1,72,63,48
1,77,63,44
1,71,63,48
1,74,63,44
1,79,63,40
1,72,81,42
1,74,81,42
1,72,81,52
1,71,81,48
1,72,81,40
1,74,81,50
1,72,81,44
1,71,81,46
1,72,81,50
1,74,81,46
1,72,81,42
1,71,81,50
1,72,81,48
1,74,81,44
1,72,81,52
1,71,81,40
1,72,81,40
1,74,81,36
1,72,81,52
1,71,81,44
1,72,81,34
1,74,81,54
1,72,81,44
1,71,81,32
1,72,81,54
1,74,81,44
1,72,81,44
1,71,81,52
1,72,81,36
1,74,81,42
1,72,81,56
1,71,81,36
1,69,81,42
1,71,81,42
1,69,81,50
1,67,81,42
1,69,81,46
1,71,81,54
1,69,81,38
1,67,81,44
1,69,81,50
1,71,81,44
1,69,81,40
1,67,81,52
1,69,81,38
1,71,81,50
1,69,81,44
1,67,81,44
1,69,81,46
1,71,81,44
1,69,81,48
1,67,81,48
1,69,81,44
1,71,81,48
1,69,81,44
1,67,81,44
1,69,81,48
1,71,81,44
1,69,81,44
1,67,81,46
1,69,81,44
1,71,81,32
1,69,81,54
1,67,81,42
1,65,81,36
1,77,81,46
1,76,81,58
1,74,81,34
1,72,81,46
1,71,81,56
1,73,81,36
1,75,81,46
1,71,81,60
1,73,81,34
1,75,81,44
1,76,81,58
1,78,81,36
1,79,81,56
1,78,81,50
1,79,81,50
1,78,81,48
1,76,81,42
1,74,81,52
1,73,81,44
1,71,81,46
1,69,81,52
1,71,81,44
1,73,81,44
1,69,81,50
1,71,81,40
1,73,81,44
1,74,81,56
1,76,81,46
1,77,81,40
1,76,81,36
1,77,81,58
1,76,81,42
1,74,81,36
1,72,81,56
1,71,81,42
1,69,81,34
1,67,81,56
1,69,81,42
1,71,81,36
1,67,81,60
1,69,81,42
1,71,81,34
1,72,81,58
1,74,81,42
1,76,81,36
1,74,81,34
1,72,81,40
1,71,81,52
1,74,81,34
1,72,81,40
1,71,81,38
1,69,63,52
1,68,46,44
1,66,28,40
1,64,10,50
1,62,10,44
1,60,31,34
1,62,31,44
1,60,31,52
1,59,31,46
1,60,31,44
1,62,31,50
1,60,31,48
1,59,31,44
1,60,31,52
1,62,31,42
1,60,31,44
1,59,31,50
1,60,31,54
1,62,31,46
1,60,31,52
1,59,31,48
1,60,31,46
1,62,31,34
1,60,31,58
1,59,31,46
1,60,31,36
1,62,31,56
1,60,31,46
1,59,31,36
1,60,31,58
1,62,31,42
1,60,31,36
1,59,31,54
1,60,31,44
1,62,31,44
1,60,31,54
1,59,31,38
1,57,31,44
1,59,31,44
1,57,31,52
1,55,31,50
1,57,31,40
1,59,31,52
1,57,31,44
1,55,31,50
1,57,31,50
1,59,31,44
1,57,31,48
1,55,31,50
1,57,31,44
1,59,31,48
1,57,31,46
1,55,31,40
1,57,31,42
1,59,31,42
1,57,31,50
1,55,31,46
1,57,31,42
1,59,31,48
1,57,31,50
1,55,31,44
1,57,31,46
1,59,31,40
1,57,31,44
1,55,31,48
1,57,31,42
1,59,31,44
1,57,31,46
1,55,31,42
1,53,37,36
1,55,43,44
1,57,49,54
1,59,55,36
1,60,61,44
1,62,67,48
1,63,73,34
1,60,79,44
1,65,85,60
1,67,91,36
1,69,97,40
1,71,103,54
1,72,109,34
1,74,115,46
1,75,121,52
1,72,127,34
1,76,127,42
1,77,127,52
1,76,127,38
1,77,127,22
1,76,127,30
1,77,127,28
1,76,127,20
1,77,127,32
1,76,127,28
1,77,127,30
1,76,127,28
1,77,127,34
1,76,127,30
1,77,127,30
1,76,127,24
1,77,127,28
1,76,127,30
1,77,127,32
1,76,127,30
1,77,127,36
1,76,127,26
1,77,127,30
1,76,127,34
1,77,127,28
1,76,127,32
1,76,63,242
1,74,63,46
1,72,63,60
1,71,63,40
1,69,63,38
1,71,63,60
1,72,63,44
1,69,63,36
1,74,63,56
1,72,63,44
1,70,63,36
1,69,63,60
1,67,63,38
1,69,63,34
1,70,63,60
1,67,63,44
1,72,63,36
1,70,63,44
1,68,63,60
1,67,63,36
1,65,63,40
1,67,63,58
1,68,63,36
1,65,63,46
1,71,63,56
1,71,63,42
1,67,63,52
1,76,81,36
1,75,81,42
1,76,81,54
1,79,81,38
1,76,81,46
1,75,81,40
1,76,81,50
1,79,81,44
1,76,81,48
1,75,81,42
1,76,81,46
1,79,81,44
1,74,81,44
1,73,81,36
1,74,81,56
1,79,81,42
1,74,81,38
1,73,81,36
1,74,81,52
1,79,81,46
1,74,81,44
1,73,81,36
1,74,81,52
1,76,81,44
1,72,81,42
1,71,81,44
1,72,81,50
1,76,81,42
1,72,81,42
1,71,81,42
1,72,81,52
1,76,81,38
1,72,81,44
1,71,81,44
1,72,81,48
1,76,81,40
1,71,81,48
1,70,81,42
1,71,81,44
1,76,81,42
1,71,81,46
1,70,81,42
1,71,81,44
1,76,81,48
1,71,81,40
1,70,81,46
1,71,81,50
1,76,81,44
1,69,46,44
1,64,47,3126
1,63,47,44
1,64,47,52
1,67,47,40
1,64,47,42
1,63,47,44
1,64,47,50
1,67,47,48
1,64,47,42
1,63,47,44
1,64,47,52
1,67,47,52
1,62,47,44
1,61,47,36
1,62,47,56
1,67,47,46
1,62,47,42
1,61,47,36
1,62,47,58
1,67,47,46
1,62,47,46
1,61,47,36
1,62,47,54
1,67,47,46
1,60,47,36
1,59,47,38
1,60,47,52
1,64,47,42
1,60,47,50
1,59,47,42
1,60,47,52
1,64,47,44
1,60,47,44
1,59,47,50
1,60,47,50
1,64,47,46
1,59,47,42
1,58,47,38
1,59,47,50
1,64,47,50
1,59,47,44
1,58,47,44
1,59,47,46
1,64,47,50
1,59,47,44
1,58,47,46
1,59,47,48
1,64,47,42
1,57,46,46
1,61,31,3132
1,69,31,44
1,67,31,52
1,64,31,44
1,65,31,40
1,69,31,58
1,76,31,36
1,74,31,34
1,69,31,44
1,65,31,54
1,65,31,36
1,64,31,60
1,70,31,46
1,69,31,42
1,67,31,52
1,65,31,42
1,64,31,40
1,61,31,50
1,62,31,40
1,64,31,50
1,61,31,44
1,62,31,46
1,65,31,50
1,64,31,52
1,63,31,44
1,71,31,36
1,69,31,56
1,66,31,34
1,67,31,52
1,71,31,50
1,78,31,46
1,76,31,42
1,71,31,44
1,67,31,50
1,67,31,46
1,66,31,50
1,72,31,44
1,71,31,40
1,69,31,52
1,67,31,44
1,66,31,44
1,63,31,56
1,64,31,36
1,66,31,52
1,63,31,46
1,64,31,36
1,67,31,60
1,67,63,38
1,69,63,46
1,65,63,50
1,64,63,46
1,62,63,44
1,60,63,46
1,62,63,52
1,59,63,42
1,57,63,46
1,59,63,24
1,57,63,44
1,55,63,52
1,69,63,36
1,71,63,40
1,67,63,60
1,66,63,36
1,67,63,46
1,64,63,34
1,62,63,52
1,64,63,50
1,61,63,42
1,59,63,52
1,61,63,46
1,57,63,50
1,72,63,44
1,72,63,52
1,72,63,36
1,71,63,56
1,69,63,46
1,67,63,46
1,66,63,54
1,67,63,44
1,69,63,34
1,62,63,54
1,60,63,44
1,57,63,54
1,55,63,42
1,63,63,40
1,62,63,42
1,63,63,52
1,65,63,46
1,67,63,42
1,70,63,50
1,74,63,46
1,70,63,58
1,72,63,46
1,70,63,46
1,67,63,46
1,65,63,62
1,63,63,44
1,61,63,44
1,60,63,58
1,53,63,38
1,61,63,36
1,60,63,46
1,61,63,50
1,63,63,42
1,65,63,48
1,68,63,48
1,72,63,42
1,68,63,58
1,70,63,54
1,68,63,36
1,65,63,46
1,63,63,66
1,61,63,46
1,60,63,40
1,58,63,52
1,51,63,46
1,60,63,1578
1,62,63,46
1,64,63,52
1,65,63,44
1,67,63,44
1,69,63,50
1,70,63,46
1,67,63,42
1,72,63,48
1,74,63,48
1,70,63,44
1,69,63,50
1,70,63,42
1,67,63,48
1,66,63,42
1,63,63,44
1,65,63,48
1,66,63,48
1,68,63,44
1,70,63,40
1,72,63,48
1,74,63,46
1,70,63,42
1,75,63,48
1,77,63,44
1,74,63,50
1,72,63,50
1,74,63,46
1,70,63,52
1,69,63,50
1,71,63,42
1,67,63,52
1,66,63,46
1,67,63,34
1,64,63,48
1,63,63,46
1,62,63,44
1,64,63,46
1,60,63,54
1,59,63,36
1,60,63,40
1,57,63,36
1,56,63,54
1,55,63,42
1,72,63,44
1,74,63,46
1,71,63,48
1,69,63,44
1,71,63,46
1,67,63,44
1,72,63,36
1,73,63,48
1,70,63,58
1,69,63,36
1,70,63,48
1,67,63,36
1,69,63,46
1,70,63,42
1,67,63,52
1,65,63,42
1,67,63,44
1,64,63,48
1,62,63,50
1,64,63,48
1,60,63,42
1,59,63,52
1,60,63,42
1,57,63,52
1,55,63,42
1,72,63,44
1,74,63,36
1,71,63,52
1,69,63,44
1,69,63,38
1,71,63,52
1,67,63,40
1,72,63,50
1,74,63,44
1,71,63,46
1,69,63,46
1,69,63,44
1,71,63,38
1,67,63,44
1,72,63,54
1,74,63,40
1,71,63,48
1,69,63,46
1,72,63,40
1,74,63,48
1,71,63,48
1,69,63,42
1,72,63,50
1,74,63,46
1,71,63,44
1,69,63,50
1,72,63,40
1,74,63,44
1,72,63,50
1,69,63,38
1,72,63,44
1,74,63,40
1,71,63,54
1,69,63,46
1,74,63,44
1,76,63,54
1,72,63,36
1,71,63,46
1,76,63,52
1,77,63,36
1,74,63,46
1,72,63,54
1,77,63,36
1,79,63,44
1,76,63,58
1,74,63,36
1,79,81,46
1,79,81,46
1,79,81,50
1,79,81,46
1,79,81,46
1,79,81,52
1,79,81,38
1,79,81,44
1,79,81,48
1,79,81,44
1,79,81,48
1,79,81,52
1,79,81,44
1,79,81,42
1,79,81,52
1,79,81,44
1,79,81,44
1,81,81,44
1,77,81,48
1,76,81,46
1,79,81,44
1,81,81,50
1,77,81,42
1,76,81,36
1,79,81,58
1,81,81,46
1,77,81,36
1,79,81,56
1,76,81,44
1,77,81,36
1,74,81,56
1,76,81,44
1,72,81,36
1,74,81,38
1,71,81,56
1,69,81,34
1,67,81,36
1,69,81,56
1,65,81,36
1,64,81,38
1,62,81,60
1,64,81,34
1,60,81,50
1,59,81,60
1,57,81,32
1,59,81,42
1,55,81,62
1,53,81,34
1,52,81,42
1,53,81,40
1,53,81,36
1,54,81,56
1,54,81,42
1,55,81,36
1,55,81,60
1,56,81,42
1,56,81,36
1,57,81,58
1,57,81,44
1,58,81,36
1,58,81,54
1,59,81,44
1,59,81,32
1,60,81,56
1,60,81,44
1,61,81,48
1,64,81,44
1,67,81,58
1,61,81,44
1,62,81,46
1,66,81,48
1,69,81,44
1,62,81,42
1,63,81,46
1,64,81,40
1,67,81,44
1,71,81,54
1,64,81,48
1,65,81,44
1,69,81,52
1,72,81,46
1,65,81,44
1,66,81,50
1,69,81,46
1,74,81,42
1,66,81,48
1,67,81,46
1,71,81,44
1,74,81,52
1,75,81,44
1,74,81,36
1,72,81,52
1,74,81,46
1,75,81,36
1,77,81,54
1,78,81,36
1,74,81,42
1,79,81,54
1,72,63,44
1,72,63,50
1,71,63,44
1,72,63,38
1,67,63,52
1,64,63,44
1,69,63,40
1,68,63,50
1,69,63,44
1,65,63,48
1,62,63,44
1,60,63,42
1,59,63,52
1,67,63,46
1,67,63,50
1,66,63,40
1,67,63,38
1,64,63,50
1,60,63,42
1,65,63,40
1,64,63,46
1,62,63,46
1,60,63,48
1,59,63,44
1,57,63,52
1,55,63,40
1,57,63,48
1,60,63,36
1,65,63,58
1,59,63,34
1,62,63,44
1,67,63,54
1,64,63,38
1,67,63,56
1,72,63,36
1,66,63,54
1,69,63,42
1,74,63,36
1,71,63,42
1,74,63,36
1,71,63,56
1,69,63,36
1,74,63,60
1,69,63,44
1,67,63,54
1,66,63,44
1,67,63,32
1,72,63,44
1,69,63,56
1,66,63,38
1,62,63,34
1,59,63,56
1,67,63,44
1,59,63,52
1,66,63,42
1,71,63,52
1,66,63,48
1,64,63,52
1,63,63,48
1,64,63,44
1,57,63,46
1,60,63,52
1,62,63,42
1,54,63,42
1,60,63,48
1,57,63,52
1,62,63,48
1,60,63,34
1,59,63,62
1,67,63,42
1,66,63,42
1,64,63,50
1,69,63,38
1,71,63,38
1,69,63,44
1,67,63,54
1,66,63,38
1,69,63,58
1,66,63,44
1,62,63,36
1,67,63,56
1,70,63,38
1,67,63,34
1,65,63,60
1,64,63,38
1,67,63,48
