track,note,velocity,time
0,42,127,955
0,42,127,375
0,42,127,375
0,42,127,375
0,36,127,375
0,49,84,0
0,42,77,183
0,39,126,183
0,40,127,0
0,42,122,0
0,36,127,0
0,42,112,119
0,42,62,55
0,42,117,183
0,36,127,0
0,42,63,183
0,39,122,183
0,40,127,0
0,42,126,0
0,36,127,0
0,42,64,183
0,42,112,119
0,36,127,55
0,42,109,0
0,42,67,183
0,39,126,183
0,40,127,0
0,42,124,0
0,36,127,0
0,42,105,119
0,42,73,55
0,36,127,183
0,42,107,0
0,42,78,183
0,42,110,119
0,39,127,55
0,40,127,0
0,42,127,0
0,36,127,0
0,42,71,183
0,36,127,183
0,42,115,0
0,42,57,183
0,39,124,183
0,40,127,0
0,42,126,0
0,36,127,0
0,42,102,119
0,42,66,55
0,36,127,183
0,42,110,0
0,42,76,183
0,46,91,119
0,42,109,0
0,39,127,55
0,40,127,0
0,42,105,0
0,36,127,0
0,42,87,183
0,42,84,183
0,36,127,0
0,42,78,183
0,39,127,183
0,42,120,0
0,40,126,0
0,36,127,0
0,42,107,119
0,42,70,55
0,42,113,183
0,36,127,0
0,44,103,119
0,44,114,0
0,46,120,39
0,46,127,0
0,42,75,0
0,44,96,65
0,42,110,0
0,49,127,49
0,49,125,0
0,39,124,0
0,42,127,0
0,40,127,0
0,36,127,0
0,51,126,125
0,51,127,0
0,42,82,0
0,27,125,129
0,27,105,0
0,36,127,0
0,49,84,0
0,39,102,119
0,51,121,23
0,39,98,0
0,51,115,0
0,49,127,0
0,42,77,0
0,39,116,63
0,27,61,0
0,49,118,27
0,37,92,0
0,49,106,0
0,51,127,0
0,39,126,0
0,40,127,0
0,42,122,0
0,36,127,0
0,51,104,15
0,39,90,0
0,51,88,0
0,42,112,0
0,27,116,15
0,27,97,0
0,39,111,0
0,42,62,0
0,54,127,53
0,49,117,0
0,30,104,0
0,54,112,0
0,49,107,0
0,51,127,0
0,42,117,0
0,36,127,0
0,32,74,45
0,39,95,64
0,34,93,0
0,39,88,0
0,42,63,0
0,54,127,67
0,49,107,0
0,37,98,0
0,51,115,0
0,51,127,29
0,39,122,0
0,40,127,0
0,42,126,0
0,36,127,0
0,39,106,17
0,34,88,0
0,39,94,0
0,49,112,15
0,39,100,0
0,49,108,0
0,49,104,0
0,42,64,0
0,39,97,17
0,51,96,0
0,51,127,0
0,42,112,0
0,27,121,31
0,27,104,0
0,39,127,0
0,36,127,0
0,42,109,0
0,51,127,23
0,39,104,0
0,51,127,0
0,49,127,0
0,42,67,0
0,39,98,69
0,27,79,0
0,49,126,29
0,37,96,0
0,49,115,0
0,51,126,0
0,39,126,0
0,40,127,0
0,42,124,0
0,36,127,0
0,51,122,7
0,39,98,0
0,51,94,0
0,42,105,0
0,39,107,23
0,39,108,0
0,49,123,0
0,42,73,0
0,37,77,89
0,44,105,27
0,46,117,0
0,45,120,0
0,54,127,0
0,36,127,0
0,42,107,0
0,54,124,27
0,49,106,0
0,42,107,0
0,49,87,0
0,56,127,0
0,42,78,0
0,45,109,37
0,46,92,0
0,42,110,0
0,56,121,17
0,51,118,0
0,42,100,0
0,44,85,0
0,54,127,0
0,39,127,0
0,40,127,0
0,42,127,0
0,36,127,0
0,42,95,23
0,54,114,19
0,49,110,0
0,39,93,0
0,44,95,0
0,49,127,0
0,42,71,0
0,54,127,19
0,49,112,0
0,37,89,0
0,42,88,0
0,27,110,15
0,27,88,0
0,29,97,0
0,39,127,0
0,51,127,0
0,36,127,0
0,42,115,0
0,39,96,21
0,51,125,33
0,39,107,0
0,51,117,0
0,49,127,0
0,42,57,0
0,39,84,55
0,27,69,0
0,39,75,0
0,49,126,45
0,37,101,0
0,49,112,0
0,51,127,0
0,39,124,0
0,40,127,0
0,42,126,0
0,36,127,0
0,51,127,25
0,39,90,0
0,51,92,0
0,42,102,0
0,27,98,19
0,39,127,0
0,49,122,0
0,42,66,0
0,51,121,59
0,54,123,0
0,30,118,0
0,54,108,0
0,49,108,0
0,51,127,0
0,36,127,0
0,42,110,0
0,32,79,41
0,34,93,5
0,49,114,0
0,42,76,0
0,54,125,55
0,49,118,0
0,37,102,0
0,54,108,0
0,49,110,0
0,46,91,0
0,42,109,0
0,51,127,17
0,39,127,0
0,40,127,0
0,42,105,0
0,36,127,0
0,39,103,27
0,34,87,0
0,54,121,13
0,49,119,0
0,39,101,0
0,54,112,0
0,49,112,0
0,42,87,0
0,39,87,43
0,56,127,0
0,27,116,13
0,27,107,0
0,39,111,0
0,42,84,0
0,36,127,0
0,54,109,11
0,56,87,0
0,66,125,17
0,61,118,0
0,39,107,0
0,51,114,0
0,56,127,0
0,42,78,0
0,27,72,59
0,39,99,27
0,37,102,0
0,49,121,0
0,54,127,0
0,39,127,0
0,42,120,0
0,40,126,0
0,36,127,0
0,39,101,19
0,42,107,0
0,27,113,7
0,51,110,0
0,51,127,0
0,42,70,0
0,39,91,59
0,66,127,9
0,61,118,0
0,44,102,0
0,44,110,0
0,51,127,0
0,42,113,0
0,36,127,0
0,61,127,6
0,39,108,5
0,42,100,0
0,45,105,0
0,42,75,0
0,63,118,2
0,63,127,13
0,66,106,6
0,46,98,0
0,42,110,0
0,42,109,11
0,51,127,0
0,39,124,0
0,42,127,0
0,40,127,0
0,36,127,0
0,63,127,45
0,39,98,10
0,49,110,0
0,56,118,5
0,39,97,0
0,49,103,0
0,42,82,0
0,66,127,23
0,58,116,7
0,37,90,0
0,51,117,0
0,27,103,13
0,27,105,0
0,36,127,0
0,49,84,0
0,54,106,15
0,39,98,0
0,51,115,0
0,51,126,0
0,42,77,0
0,27,61,31
0,63,127,11
0,37,92,8
0,49,106,0
0,39,126,0
0,40,127,0
0,42,122,0
0,36,127,0
0,39,90,5
0,51,88,0
0,54,121,5
0,49,118,0
0,27,97,0
0,39,111,0
0,51,118,0
0,42,62,0
0,30,104,7
0,54,112,0
0,49,107,0
0,51,127,0
0,42,117,0
0,36,127,0
0,32,74,19
0,34,93,11
0,39,88,0
0,42,63,0
0,61,94,1
0,58,89,15
0,51,127,17
0,37,98,0
0,51,115,0
0,51,127,27
0,39,122,0
0,40,127,0
0,42,126,0
0,36,127,0
0,39,108,17
0,34,88,0
0,39,94,0
0,49,120,15
0,39,100,0
0,49,108,0
0,42,64,0
0,51,118,17
0,39,97,0
0,51,96,0
0,54,127,0
0,27,118,17
0,27,104,0
0,39,127,0
0,36,127,0
0,42,109,0
0,54,123,27
0,49,114,0
0,39,104,0
0,51,127,0
0,51,126,0
0,42,67,0
0,27,79,69
0,54,127,29
0,49,120,0
0,37,96,0
0,49,115,0
0,51,127,0
0,39,126,0
0,40,127,0
0,42,124,0
0,36,127,0
0,39,98,5
0,51,94,0
0,39,104,23
0,39,108,0
0,49,113,0
0,42,73,0
0,37,77,87
0,61,122,25
0,44,105,2
0,46,117,0
0,45,120,0
0,51,125,0
0,36,127,0
0,42,107,0
0,58,127,9
0,39,81,7
0,42,107,11
0,49,87,0
0,49,112,0
0,42,78,0
0,36,127,0
0,39,110,29
0,45,109,0
0,46,92,0
0,42,100,17
0,44,85,0
0,51,112,0
0,39,127,0
0,40,127,0
0,42,127,0
0,36,127,0
0,56,127,2
0,39,89,13
0,42,95,0
0,49,108,0
0,56,121,3
0,51,107,0
0,39,93,0
0,44,95,0
0,56,127,0
0,42,71,0
0,36,127,0
0,54,108,4
0,56,127,5
0,54,102,7
0,37,89,0
0,42,88,0
0,54,127,0
0,27,115,15
0,27,88,0
0,29,97,0
0,39,127,0
0,36,127,0
0,42,115,0
0,39,93,17
0,54,121,1
0,49,112,0
0,39,107,0
0,51,117,0
0,54,118,0
0,49,118,0
0,42,57,0
0,27,69,3
0,39,75,0
0,49,96,5
0,37,101,0
0,49,112,0
0,51,118,0
0,39,124,0
0,40,127,0
0,42,126,0
0,36,127,0
0,39,90,25
0,51,92,0
0,54,127,21
0,49,120,0
0,27,98,0
0,39,127,0
0,49,113,0
0,42,66,0
0,30,118,59
0,54,108,0
0,49,108,0
0,51,127,0
0,36,127,0
0,42,110,0
0,39,93,41
0,32,79,0
0,34,93,5
0,49,123,0
0,42,76,0
0,51,124,55
0,37,102,0
0,54,108,0
0,49,110,0
0,46,91,0
0,54,127,17
0,39,127,0
0,40,127,0
0,42,105,0
0,36,127,0
0,39,99,27
0,34,87,0
0,51,111,0
0,49,119,13
0,39,101,0
0,54,112,0
0,49,112,0
0,56,117,0
0,42,87,0
0,51,110,43
0,39,87,0
0,54,127,0
0,27,118,13
0,27,107,0
0,39,111,0
0,42,84,0
0,36,127,0
0,49,117,17
0,54,123,0
0,39,107,0
0,51,114,0
0,51,127,0
0,42,78,0
0,27,72,59
0,54,127,27
0,49,121,0
0,37,102,0
0,49,121,0
0,49,127,0
0,39,127,0
0,42,120,0
0,40,126,0
0,36,127,0
0,39,101,19
0,51,110,7
0,51,127,0
0,42,70,0
0,36,127,0
0,54,123,3
0,49,114,0
0,44,102,0
0,44,110,0
0,56,127,0
0,42,113,0
0,36,127,0
0,61,127,4
0,63,120,5
0,42,100,9
0,45,105,0
0,56,127,0
0,42,75,0
0,63,127,11
0,49,89,8
0,46,98,0
0,54,97,0
0,42,109,3
0,56,124,0
0,39,124,0
0,42,127,0
0,40,127,0
0,36,127,0
0,63,126,23
0,49,110,5
0,54,122,0
0,54,121,11
0,49,93,0
0,39,97,0
0,51,116,0
0,42,82,0
0,66,127,29
0,49,107,1
0,37,90,0
0,51,117,0
0,54,127,0
0,27,117,13
0,27,105,0
0,39,127,0
0,36,127,0
0,49,84,0
0,54,118,3
0,49,113,0
0,39,98,0
0,51,115,0
0,49,127,0
0,42,77,0
0,27,61,43
0,63,127,11
0,54,127,4
0,49,124,0
0,37,92,0
0,49,106,0
0,51,127,0
0,39,126,0
0,40,127,0
0,42,122,0
0,36,127,0
0,39,90,15
0,51,88,0
0,39,107,15
0,27,97,0
0,39,111,0
0,49,113,0
0,42,62,0
0,30,104,5
0,54,112,0
0,49,107,0
0,51,127,0
0,42,117,0
0,36,127,0
0,32,74,5
0,34,93,13
0,39,88,0
0,49,118,0
0,42,63,0
0,61,102,1
0,58,100,11
0,49,115,15
0,37,98,0
0,51,115,0
0,54,127,15
0,39,122,0
0,40,127,0
0,42,126,0
0,36,127,0
0,63,127,1
0,39,97,17
0,34,88,0
0,39,94,0
0,51,113,0
0,51,124,13
0,39,100,0
0,49,108,0
0,56,125,0
0,42,64,0
0,49,120,3
0,39,97,0
0,51,96,0
0,54,127,0
0,27,110,17
0,27,104,0
0,39,127,0
0,36,127,0
0,42,109,0
0,39,98,45
0,54,127,17
0,49,108,0
0,39,104,0
0,51,127,0
0,49,127,0
0,42,67,0
0,27,79,69
0,54,127,29
0,49,123,0
0,37,96,0
0,49,115,0
0,51,127,0
0,39,126,0
0,40,127,0
0,42,124,0
0,36,127,0
0,39,98,7
0,51,94,0
0,49,111,0
0,39,105,23
0,39,108,0
0,51,127,0
0,42,73,0
0,58,122,21
0,37,77,10
0,54,118,27
0,49,114,0
0,44,105,0
0,46,117,0
0,45,120,0
0,54,127,0
0,36,127,0
0,42,107,0
0,61,127,8
0,56,127,1
0,42,107,27
0,49,87,0
0,51,108,0
0,42,78,0
0,36,127,0
0,56,123,7
0,51,118,0
0,45,109,0
0,46,92,0
0,56,127,15
0,42,100,2
0,44,85,0
0,56,127,0
0,39,127,0
0,40,127,0
0,42,127,0
0,36,127,0
0,39,102,19
0,42,95,0
0,54,114,0
0,54,123,7
0,49,112,0
0,39,93,0
0,44,95,0
0,51,112,0
0,42,71,0
0,36,127,0
0,54,90,5
0,56,127,9
0,37,89,3
0,42,88,0
0,54,127,0
0,27,117,15
0,27,88,0
0,29,97,0
0,39,127,0
0,36,127,0
0,42,115,0
0,51,127,1
0,49,117,1
0,54,111,0
0,39,107,0
0,51,117,0
0,42,57,0
0,54,113,1
0,27,69,55
0,39,75,0
0,54,127,0
0,37,101,19
0,49,112,0
0,39,124,0
0,40,127,0
0,42,126,0
0,36,127,0
0,54,116,25
0,49,107,0
0,39,90,0
0,51,92,0
0,56,127,0
0,27,112,15
0,27,98,0
0,39,127,0
0,42,66,0
0,54,127,59
0,30,118,19
0,54,108,0
0,49,108,0
0,36,127,0
0,42,110,0
0,39,93,41
0,32,79,0
0,51,124,0
0,49,96,5
0,34,93,0
0,42,76,0
0,37,102,55
0,54,108,0
0,49,110,0
0,49,123,0
0,46,91,0
0,51,127,17
0,39,127,0
0,40,127,0
0,42,105,0
0,36,127,0
0,39,103,27
0,34,87,0
0,49,110,0
0,49,127,5
0,39,101,0
0,54,112,0
0,49,112,0
0,51,127,0
0,42,87,0
0,51,125,19
0,39,87,0
0,49,98,0
0,27,118,13
0,27,107,0
0,39,111,0
0,42,84,0
0,36,127,0
0,51,118,11
0,54,122,17
0,49,88,0
0,39,107,0
0,51,114,0
0,42,78,0
0,27,72,59
0,54,121,0
0,39,95,27
0,37,102,0
0,49,121,0
0,39,127,0
0,42,120,0
0,40,126,0
0,36,127,0
0,54,121,19
0,49,110,0
0,39,101,0
0,51,110,0
0,27,105,7
0,51,110,0
0,56,123,0
0,42,70,0
0,36,127,0
0,58,127,3
0,57,127,0
0,56,125,0
0,61,118,0
0,44,102,0
0,44,110,0
0,54,127,0
0,42,113,0
0,36,127,0
0,61,127,1
0,56,111,15
0,42,100,0
0,45,105,0
0,51,114,0
0,42,75,0
0,63,81,1
0,63,127,9
0,46,98,3
0,54,127,5
0,42,109,0
0,49,112,0
0,39,124,0
0,42,127,0
0,40,127,0
0,36,127,0
0,63,124,35
0,49,110,7
0,56,125,3
0,39,97,0
0,51,127,0
0,42,82,0
0,66,127,1
0,54,115,13
0,37,90,0
0,51,117,0
0,27,114,25
0,27,105,0
0,36,127,0
0,49,84,0
0,39,98,9
0,51,115,0
0,63,116,0
0,75,116,0
0,51,127,0
0,42,77,0
0,27,61,35
0,37,92,15
0,49,106,0
0,63,127,0
0,49,108,0
0,39,126,0
0,40,127,0
0,42,122,0
0,36,127,0
0,39,90,15
0,51,88,0
0,63,116,0
0,75,116,0
0,51,127,0
0,54,124,15
0,49,107,0
0,27,97,0
0,39,111,0
0,42,62,0
0,54,127,29
0,49,122,0
0,30,104,0
0,54,112,0
0,49,107,0
0,54,116,0
0,66,116,0
0,51,127,0
0,42,117,0
0,36,127,0
0,32,74,7
0,56,116,0
0,68,116,0
0,61,108,31
0,39,104,8
0,34,93,0
0,39,88,0
0,58,116,0
0,70,116,0
0,42,63,0
0,58,98,5
0,54,118,35
0,49,109,0
0,37,98,0
0,51,115,0
0,61,116,0
0,73,116,0
0,54,127,0
0,39,122,21
0,40,127,0
0,42,126,0
0,36,127,0
0,39,108,3
0,34,88,0
0,39,94,0
0,58,116,0
0,70,116,0
0,51,105,0
0,56,120,15
0,51,112,0
0,39,100,0
0,49,108,0
0,63,116,0
0,75,116,0
0,56,127,0
0,42,64,0
0,54,113,17
0,51,99,0
0,39,97,0
0,51,96,0
0,63,116,0
0,75,116,0
0,54,109,0
0,27,112,13
0,27,104,0
0,39,127,0
0,36,127,0
0,42,109,0
0,54,102,29
0,49,104,0
0,39,104,0
0,51,127,0
0,63,116,0
0,75,116,0
0,51,127,0
0,42,67,0
0,27,79,69
0,39,101,29
0,37,96,0
0,49,115,0
0,61,115,0
0,73,115,0
0,49,108,0
0,39,126,0
0,40,127,0
0,42,124,0
0,36,127,0
0,54,109,7
0,49,90,0
0,39,98,0
0,51,94,0
0,63,115,0
0,75,115,0
0,27,108,17
0,39,108,0
0,51,124,0
0,42,73,0
0,39,93,61
0,37,77,0
0,54,127,27
0,49,115,0
0,44,105,0
0,46,117,0
0,45,120,0
0,61,127,0
0,70,115,0
0,82,115,0
0,54,127,0
0,36,127,0
0,42,107,0
0,56,127,23
0,39,95,27
0,42,107,0
0,49,87,0
0,68,115,0
0,80,115,0
0,56,127,0
0,42,78,0
0,36,127,0
0,45,109,13
0,46,92,0
0,51,127,5
