track,note,velocity,time
1,62,105,8
1,65,105,44
1,69,105,44
1,72,105,46
1,70,105,30
1,69,105,30
1,70,105,28
1,63,105,30
1,67,105,28
1,74,105,28
1,72,105,30
1,70,105,28
1,72,105,44
1,70,105,30
1,69,105,32
1,67,105,28
1,65,105,30
1,69,105,44
1,72,105,44
1,75,105,46
1,74,105,28
1,72,105,28
1,74,105,28
1,67,105,32
1,70,105,28
1,77,105,28
1,75,105,28
1,74,105,28
1,75,105,44
1,74,105,28
1,72,105,26
1,70,105,28
1,69,105,28
1,72,105,48
1,75,105,44
1,79,105,44
1,77,105,28
1,75,105,28
1,77,105,30
1,71,105,30
1,74,105,30
1,77,105,28
1,75,105,30
1,74,105,30
1,75,105,44
1,67,105,44
1,70,105,44
1,77,105,26
1,75,105,28
1,74,105,30
1,75,105,30
1,66,105,46
1,70,105,44
1,75,105,46
1,74,105,28
1,73,105,30
1,74,105,28
1,65,105,28
1,70,105,28
1,75,105,28
1,74,105,30
1,73,105,30
1,74,105,44
1,64,105,46
1,70,105,46
1,74,105,26
1,72,105,30
1,71,105,30
1,72,105,30
1,63,105,44
1,69,105,44
1,74,105,40
1,72,105,28
1,71,105,30
1,72,105,28
1,70,105,28
1,69,105,30
1,67,105,30
1,69,105,30
1,65,105,28
1,70,105,44
1,67,105,46
1,65,105,46
1,61,105,30
1,62,105,28
1,65,105,30
1,60,105,26
1,64,105,46
1,62,105,26
1,65,105,30
1,64,105,42
1,65,105,46
1,64,105,46
1,62,105,30
1,60,105,28
1,58,105,28
1,64,105,26
1,67,105,44
1,65,105,28
1,69,105,28
1,67,105,44
1,69,105,48
1,67,105,46
1,65,105,30
1,64,105,28
1,62,105,30
1,67,105,30
1,70,105,44
1,69,105,30
1,65,105,46
1,69,105,26
1,67,105,28
1,60,105,30
1,61,105,30
1,62,105,46
1,63,105,30
1,64,105,32
1,60,105,44
1,62,105,28
1,58,105,30
1,57,105,46
1,60,105,28
1,61,105,26
1,62,105,44
1,67,105,44
1,70,105,172
1,71,105,32
1,69,105,28
1,67,105,30
1,62,105,28
1,70,105,188
1,71,105,48
1,69,105,28
1,67,105,32
1,62,105,30
1,61,105,28
1,62,105,44
1,67,105,44
1,69,105,174
1,70,105,30
1,74,105,34
1,72,105,28
1,70,105,28
1,69,105,46
1,67,105,48
1,65,105,46
1,64,105,30
1,65,105,26
1,62,105,30
1,59,105,30
1,60,105,48
1,65,105,46
1,68,105,174
1,69,105,28
1,67,105,28
1,65,105,30
1,60,105,30
1,68,105,188
1,69,105,44
1,67,105,26
1,65,105,30
1,60,105,28
1,59,105,28
1,60,105,46
1,65,105,44
1,67,105,174
1,68,105,28
1,72,105,30
1,70,105,30
1,68,105,28
1,67,105,44
1,65,105,44
1,63,105,44
1,62,105,28
1,63,105,30
1,60,105,30
1,57,105,28
1,58,105,44
1,63,105,46
1,66,105,172
1,67,105,28
1,69,105,172
1,70,105,30
1,74,105,186
1,75,105,44
1,78,105,172
1,79,105,30
1,58,105,24
1,60,105,44
1,63,105,46
1,65,105,170
1,66,105,30
1,69,105,172
1,70,105,28
1,74,105,188
1,75,105,46
1,77,105,172
1,78,105,26
1,57,105,26
1,58,105,38
1,62,105,44
1,64,105,174
1,65,105,146
1,69,105,110
1,70,105,108
1,73,105,108
1,74,105,124
1,77,105,126
1,72,105,46
1,71,105,28
1,72,105,28
1,74,105,28
1,75,105,30
1,79,105,46
1,74,105,46
1,75,105,188
1,72,105,28
1,74,105,172
1,70,105,30
1,69,105,26
1,70,105,28
1,67,105,32
1,69,105,190
1,65,105,42
1,67,105,170
1,63,105,32
1,62,105,26
1,65,105,44
1,69,105,44
1,72,105,44
1,70,105,28
1,69,105,30
1,70,105,30
1,63,105,28
1,67,105,28
1,74,105,28
1,72,105,30
1,70,105,30
1,72,105,46
1,70,105,30
1,69,105,28
1,67,105,30
1,65,105,30
1,69,105,44
1,72,105,44
1,75,105,44
1,74,105,30
1,72,105,28
1,74,105,30
1,67,105,28
1,70,105,28
1,77,105,30
1,75,105,28
1,74,105,28
1,75,105,42
1,74,105,30
1,72,105,28
1,70,105,30
1,69,105,28
1,72,105,46
1,75,105,42
1,79,105,48
1,77,105,30
1,75,105,28
1,77,105,28
1,68,105,30
1,70,105,28
1,77,105,28
1,75,105,28
1,74,105,28
1,75,105,46
1,67,105,46
1,70,105,46
1,77,105,30
1,75,105,30
1,74,105,28
1,75,105,26
1,66,105,44
1,70,105,44
1,75,105,46
1,74,105,30
1,73,105,28
1,74,105,28
1,65,105,30
1,70,105,30
1,75,105,30
1,74,105,28
1,73,105,28
1,74,105,44
1,64,105,46
1,70,105,46
1,74,105,28
1,72,105,28
1,71,105,30
1,72,105,30
1,63,105,44
1,69,105,48
1,74,105,44
1,72,105,26
1,71,105,30
1,72,105,30
1,70,105,28
1,69,105,32
1,67,105,26
1,69,105,28
1,65,105,28
1,70,105,44
1,67,105,44
1,65,105,44
1,61,105,26
1,62,105,28
1,65,105,28
1,58,127,34
1,65,127,44
1,70,127,44
1,68,127,2
1,65,127,26
1,72,127,30
1,70,127,30
1,68,127,2
1,70,127,346
1,75,127,46
1,73,127,2
1,70,127,26
1,77,127,28
1,73,127,22
1,75,127,0
1,77,127,348
1,82,127,44
1,81,127,2
1,77,127,26
1,84,127,32
1,82,127,24
1,81,127,2
1,77,127,26
1,82,127,26
1,81,127,4
1,70,127,780
1,74,127,44
1,76,127,0
1,70,127,26
1,76,127,32
1,74,127,2
1,70,127,332
1,75,127,46
1,73,127,2
1,70,127,28
1,77,127,32
1,75,127,22
1,73,127,4
1,70,127,348
1,75,127,44
1,73,127,2
1,70,127,28
1,77,127,28
1,73,127,22
1,75,127,0
1,77,127,348
1,82,127,46
1,80,127,2
1,77,127,26
1,84,127,28
1,82,127,24
1,80,127,2
1,77,127,26
1,82,127,26
1,80,127,2
1,70,127,780
1,76,127,42
1,74,127,4
1,70,127,28
1,74,127,30
1,76,127,0
1,77,127,330
1,75,127,46
1,70,127,30
1,67,127,30
1,74,127,30
1,72,127,28
1,70,127,30
1,65,127,30
1,66,127,28
1,67,127,40
1,70,127,46
1,72,127,44
1,73,127,44
1,70,127,28
1,72,127,32
1,73,127,332
1,74,127,44
1,79,127,30
1,73,127,28
1,72,127,28
1,70,127,28
1,67,127,30
1,72,127,46
1,70,127,44
1,67,127,26
1,65,127,30
1,67,127,30
1,61,127,432
1,55,127,2
1,62,127,26
1,56,127,2
1,63,127,30
1,57,127,2
1,68,127,286
1,69,127,26
1,72,127,30
1,74,127,32
1,72,127,30
1,77,127,2
1,66,127,2
1,74,127,26
1,72,127,28
1,77,127,2
1,66,127,2
1,73,127,22
1,74,127,44
1,77,127,44
1,79,127,42
1,77,127,30
1,75,127,28
1,80,127,2
1,70,127,2
1,75,127,20
1,80,127,4
1,70,127,2
1,75,127,28
1,70,127,4
1,80,127,0
1,72,127,42
1,77,127,4
1,67,127,2
1,91,127,40
1,87,127,2
1,89,127,42
1,86,127,2
1,77,127,28
1,88,127,30
1,85,127,4
1,84,127,28
1,87,127,0
1,77,127,28
1,85,127,28
1,82,127,2
1,84,127,28
1,81,127,2
1,72,127,28
1,79,127,28
1,82,127,0
1,81,127,44
1,77,127,4
1,65,127,42
1,75,127,46
1,79,127,0
1,65,127,42
1,77,127,28
1,74,127,4
1,65,127,18
1,76,127,28
1,73,127,4
1,65,127,36
1,75,127,28
1,72,127,2
1,74,127,42
1,70,127,2
1,65,127,186
1,70,127,44
1,68,127,4
1,65,127,28
1,72,127,30
1,70,127,30
1,68,127,4
1,70,127,346
1,75,127,44
1,73,127,4
1,70,127,28
1,77,127,30
1,75,127,22
1,73,127,2
1,77,127,346
1,82,127,44
1,80,127,2
1,77,127,26
1,84,127,32
1,80,127,24
1,82,127,0
1,77,127,26
1,82,127,28
1,80,127,2
1,70,127,778
1,76,127,44
1,74,127,2
1,70,127,28
1,74,127,32
1,76,127,0
1,70,127,332
1,75,127,44
1,73,127,2
1,70,127,28
1,77,127,28
1,75,127,22
1,73,127,2
1,70,127,332
1,75,127,46
1,73,127,2
1,70,127,30
1,77,127,28
1,75,127,22
1,73,127,4
1,74,127,346
1,64,127,2
1,72,127,42
1,69,127,32
1,74,127,26
1,64,127,2
1,74,127,26
1,64,127,2
1,69,127,28
1,74,127,44
1,74,127,44
1,64,127,2
1,72,127,44
1,69,127,28
1,74,127,26
1,64,127,2
1,66,127,314
1,70,127,2
1,74,127,2
1,60,127,2
1,67,127,342
1,79,127,46
1,71,127,2
1,67,127,26
1,78,127,30
1,70,127,2
1,77,127,26
1,69,127,2
1,67,127,26
1,78,127,26
1,70,127,4
1,71,127,26
1,79,127,0
1,67,127,28
1,78,127,30
1,70,127,2
1,77,127,42
1,69,127,4
1,79,127,42
1,76,127,42
1,67,127,2
1,75,127,26
1,66,127,4
1,74,127,24
1,65,127,2
1,64,127,330
1,67,127,44
1,70,127,30
1,72,127,28
1,73,127,30
1,74,127,30
1,79,127,28
1,73,127,30
1,72,127,32
1,70,127,30
1,72,127,46
1,70,127,48
1,67,127,44
1,60,127,46
1,61,127,30
1,62,127,30
1,69,127,28
1,64,127,28
1,67,127,26
1,65,127,44
1,67,127,44
1,70,127,46
1,74,127,30
1,77,127,28
1,78,127,26
1,79,127,34
1,73,127,490
1,74,127,28
1,70,127,32
1,72,127,26
1,70,127,32
1,65,127,28
1,63,127,26
1,61,127,30
1,62,127,28
1,67,127,490
1,62,127,4
1,66,127,30
1,65,127,30
1,72,127,28
1,67,127,2
1,71,127,36
1,70,127,28
1,77,127,26
1,72,127,2
1,76,127,32
1,75,127,28
1,82,127,42
1,80,127,48
1,79,127,44
1,78,127,44
1,80,127,28
1,78,127,30
1,77,127,30
1,75,127,30
1,72,127,28
1,69,127,30
1,65,127,32
1,58,127,196
1,65,127,44
1,70,127,46
1,68,127,2
1,65,127,26
1,72,127,32
1,70,127,28
1,68,127,2
1,70,127,346
1,75,127,46
1,73,127,2
1,70,127,26
1,77,127,28
1,73,127,24
1,75,127,0
1,77,127,348
1,82,127,46
1,81,127,2
1,77,127,26
1,84,127,30
1,82,127,24
1,81,127,2
1,77,127,26
1,81,127,30
1,82,127,0
1,70,127,778
1,76,127,44
1,74,127,2
1,70,127,26
1,74,127,32
1,76,127,0
1,70,127,330
1,75,127,46
1,73,127,2
1,70,127,26
1,77,127,32
1,75,127,22
1,73,127,4
1,70,127,348
1,75,127,46
1,73,127,2
1,70,127,26
1,77,127,30
1,75,127,24
1,73,127,2
1,77,127,346
1,82,127,46
1,80,127,2
1,77,127,28
1,84,127,30
1,82,127,22
1,80,127,4
1,77,127,28
1,82,127,28
1,80,127,2
1,70,127,778
1,76,127,44
1,74,127,2
1,70,127,28
1,76,127,30
1,74,127,2
1,77,127,332
1,75,127,46
1,70,127,28
1,67,127,30
1,74,127,30
1,72,127,28
1,70,127,30
1,65,127,32
1,66,127,28
1,67,127,38
1,70,127,46
1,72,127,44
1,73,127,44
1,70,127,30
1,72,127,30
1,73,127,334
1,74,127,44
1,79,127,30
1,73,127,30
1,72,127,28
1,70,127,30
1,67,127,30
1,72,127,44
1,70,127,42
1,67,127,44
1,65,127,30
1,67,127,28
1,61,127,432
1,55,127,2
1,62,127,26
1,56,127,4
1,63,127,30
1,57,127,2
1,68,127,286
1,69,127,26
1,72,127,28
1,74,127,30
1,72,127,28
1,77,127,2
1,66,127,4
1,74,127,24
1,72,127,28
1,66,127,4
1,77,127,0
1,73,127,26
1,74,127,46
1,77,127,44
1,79,127,44
1,77,127,32
1,75,127,30
1,70,127,2
1,80,127,0
1,75,127,20
1,80,127,6
1,70,127,2
1,75,127,26
1,80,127,4
1,70,127,2
1,72,127,40
1,77,127,2
1,67,127,2
1,91,127,46
1,87,127,2
1,89,127,44
1,86,127,2
1,77,127,26
1,88,127,30
1,85,127,4
1,87,127,30
1,84,127,4
1,77,127,26
1,85,127,28
1,82,127,2
1,84,127,28
1,81,127,2
1,72,127,28
1,82,127,30
1,79,127,2
1,81,127,46
1,77,127,2
1,65,127,42
1,79,127,44
1,75,127,2
1,65,127,44
1,77,127,26
1,74,127,4
1,65,127,22
1,76,127,28
1,73,127,4
1,65,127,32
1,75,127,28
1,72,127,2
1,74,127,44
1,70,127,2
1,65,127,190
1,70,127,46
1,68,127,2
1,65,127,28
1,72,127,30
1,70,127,28
1,68,127,4
1,70,127,346
1,75,127,44
1,73,127,2
1,70,127,28
1,77,127,28
1,75,127,24
1,73,127,2
1,77,127,350
1,82,127,44
1,80,127,4
1,77,127,26
1,84,127,30
1,82,127,24
1,80,127,2
1,77,127,36
1,82,127,28
1,80,127,2
1,70,127,780
1,76,127,44
1,74,127,2
1,70,127,28
1,76,127,30
1,74,127,2
1,70,127,330
1,75,127,44
1,73,127,2
1,70,127,28
1,77,127,32
1,75,127,24
1,73,127,2
1,70,127,346
1,75,127,44
1,73,127,2
1,70,127,28
1,77,127,28
1,73,127,24
1,75,127,0
1,74,127,344
1,64,127,4
1,72,127,46
1,69,127,28
1,74,127,22
1,64,127,4
1,74,127,26
1,64,127,2
1,69,127,30
1,74,127,46
1,74,127,44
1,64,127,2
1,72,127,44
1,69,127,30
1,74,127,26
1,64,127,2
1,66,127,312
1,70,127,2
1,74,127,2
1,60,127,2
1,67,127,326
1,79,127,44
1,71,127,4
1,67,127,28
1,78,127,30
1,70,127,2
1,77,127,28
1,69,127,2
1,67,127,28
1,70,127,28
1,78,127,0
1,79,127,26
1,71,127,4
1,67,127,28
1,78,127,48
1,70,127,2
1,77,127,42
1,69,127,2
1,79,127,44
1,76,127,44
1,67,127,2
1,75,127,26
1,66,127,2
1,74,127,26
1,65,127,2
1,64,127,346
1,67,127,46
1,70,127,28
1,72,127,30
1,73,127,28
1,74,127,30
1,79,127,26
1,73,127,24
1,72,127,32
1,70,127,28
1,72,127,46
1,70,127,44
1,67,127,44
1,60,127,46
1,61,127,28
1,62,127,30
1,69,127,28
1,64,127,30
1,67,127,24
1,65,127,46
1,67,127,44
1,70,127,46
1,74,127,30
1,77,127,28
1,78,127,26
1,79,127,34
1,73,127,488
1,74,127,30
1,70,127,32
1,72,127,28
1,70,127,30
1,65,127,28
1,63,127,28
1,61,127,32
1,62,127,28
1,67,127,496
1,62,127,2
1,66,127,30
1,65,127,30
1,72,127,26
1,67,127,4
1,71,127,30
1,70,127,28
1,77,127,26
1,72,127,2
1,76,127,30
1,75,127,30
1,82,127,40
1,80,127,52
1,79,127,46
1,78,127,46
1,80,127,28
1,78,127,32
1,77,127,28
1,75,127,30
1,72,127,28
1,69,127,26
1,65,127,32
1,63,127,30
1,62,127,44
1,65,127,46
1,69,127,44
1,72,127,44
1,70,127,28
1,69,127,32
1,70,127,30
1,63,127,28
1,67,127,28
1,74,127,26
1,72,127,28
1,70,127,30
1,72,127,48
1,70,127,28
1,69,127,28
1,67,127,30
1,65,127,28
1,69,127,44
1,72,127,44
1,75,127,48
1,74,127,30
1,72,127,30
1,74,127,30
1,67,127,28
1,70,127,28
1,77,127,30
1,75,127,30
1,74,127,30
1,75,127,44
1,74,127,32
1,72,127,28
1,70,127,32
1,69,127,28
1,72,127,46
1,75,127,46
1,79,127,44
1,77,127,28
1,75,127,34
1,77,127,28
1,71,127,30
1,74,127,30
1,77,127,28
1,75,127,30
1,74,127,26
1,75,127,46
1,67,127,44
1,70,127,46
1,77,127,28
1,75,127,34
1,74,127,28
1,75,127,30
1,66,127,44
1,70,127,48
1,75,127,46
1,74,127,30
1,73,127,28
1,74,127,28
1,65,127,30
1,70,127,30
1,75,127,34
1,74,127,30
1,73,127,28
1,74,127,44
1,64,127,46
1,70,127,46
1,74,127,30
1,72,127,28
1,71,127,30
1,72,127,30
1,63,127,44
1,69,127,50
1,74,127,44
1,72,127,28
1,71,127,28
1,72,127,30
1,70,127,28
1,69,127,30
1,67,127,28
1,69,127,28
1,65,127,28
1,70,127,46
1,67,127,50
1,65,127,46
