track,note,velocity,time
1,61,127,6164
1,61,127,140
1,61,127,92
1,64,127,12
1,64,127,64
1,62,127,376
1,62,127,96
1,61,127,216
1,59,127,8
1,59,127,96
1,59,127,64
1,62,127,372
1,61,127,216
1,57,127,204
1,57,127,116
1,57,127,88
1,61,127,20
1,61,127,68
1,59,127,20
1,59,127,148
1,57,127,8
1,56,127,12
1,56,127,84
1,56,127,44
1,59,127,376
1,57,127,12
1,73,127,296
1,71,127,24
1,69,127,12
1,66,127,372
1,69,127,216
1,69,127,96
1,66,127,12
1,64,127,20
1,69,127,268
1,68,127,8
1,69,127,24
1,71,127,12
1,71,127,104
1,71,127,64
1,71,127,80
1,64,127,24
1,73,127,24
1,73,127,200
1,71,127,24
1,69,127,12
1,66,127,0
1,69,127,140
1,69,127,52
1,66,127,20
1,64,127,8
1,69,127,128
1,68,127,12
1,69,127,24
1,71,127,12
1,71,127,296
1,69,127,100
1,68,127,88
1,69,127,96
1,64,127,948
1,64,127,160
1,64,127,96
1,68,127,96
1,64,127,1120
1,64,127,136
1,64,127,108
1,69,127,120
1,64,127,1128
1,64,127,152
1,64,127,128
1,71,127,116
1,73,127,76
1,74,127,96
1,68,127,24
1,69,127,64
1,62,127,8288
1,62,127,104
1,62,127,84
1,65,127,8
1,65,127,76
1,63,127,376
1,63,127,120
1,62,127,20
1,60,127,24
1,60,127,116
1,60,127,96
1,63,127,364
1,62,127,12
1,58,127,284
1,58,127,128
1,58,127,84
1,62,127,364
1,62,127,40
1,60,127,8
1,60,127,104
1,58,127,0
1,57,127,12
1,57,127,32
1,60,127,364
1,58,127,344
1,74,127,356
1,72,127,384
1,70,127,360
1,67,127,8
1,70,127,188
1,70,127,116
1,67,127,20
1,65,127,24
1,70,127,148
1,69,127,20
1,70,127,44
1,72,127,36
1,72,127,148
1,72,127,96
1,72,127,108
1,65,127,32
1,74,127,64
1,74,127,276
1,72,127,36
1,70,127,0
1,67,127,20
1,70,127,140
1,70,127,104
1,67,127,12
1,65,127,24
1,70,127,168
1,69,127,20
1,70,127,96
1,72,127,96
1,72,127,288
1,70,127,64
1,69,127,108
1,70,127,128
1,65,127,308
1,65,127,128
1,65,127,96
1,69,127,116
1,65,127,1480
1,65,127,128
1,65,127,120
1,70,127,352
1,65,127,1524
1,65,127,120
1,65,127,76
1,72,127,372
1,74,127,1324
1,75,127,16
1,69,127,8
1,70,127,764
1,63,127,7568
1,63,127,124
1,63,127,96
1,66,127,8
1,66,127,84
1,64,127,32
1,64,127,92
1,63,127,8
1,61,127,20
1,61,127,84
1,61,127,72
1,64,127,364
1,63,127,180
1,59,127,212
1,59,127,128
1,59,127,104
1,63,127,44
1,63,127,76
1,61,127,20
1,61,127,116
1,59,127,8
1,58,127,12
1,58,127,96
1,58,127,76
1,61,127,376
1,59,127,24
1,75,127,372
1,73,127,24
1,71,127,24
1,68,127,384
1,71,127,180
1,71,127,108
1,68,127,72
1,66,127,76
1,71,127,128
1,70,127,192
1,71,127,32
1,73,127,364
1,73,127,128
1,73,127,108
1,73,127,116
1,66,127,32
1,75,127,64
1,75,127,120
1,73,127,20
1,71,127,32
1,68,127,64
1,71,127,140
1,71,127,108
1,68,127,8
1,66,127,8
1,71,127,148
1,70,127,72
1,71,127,56
1,73,127,32
1,73,127,276
1,71,127,24
1,70,127,8
1,71,127,48
1,66,127,308
1,66,127,124
1,66,127,128
1,70,127,116
1,66,127,1032
1,66,127,108
1,66,127,140
1,71,127,120
1,66,127,1052
1,66,127,140
1,66,127,116
1,73,127,96
1,75,127,4
1,76,127,8
1,70,127,20
1,71,127,0
1,66,127,1860
1,66,127,148
1,66,127,128
1,70,127,120
1,66,127,1236
1,66,127,116
1,66,127,120
1,71,127,96
1,66,127,924
1,66,127,144
1,66,127,116
1,73,127,0
1,75,127,1144
1,76,127,12
1,70,127,20
1,71,127,8
2,33,120,4
2,33,120,196
2,33,120,232
2,33,120,316
2,33,120,228
2,35,120,132
2,28,120,104
2,33,120,104
2,30,120,136
2,26,120,1536
2,28,120,116
2,33,120,140
2,33,120,300
2,35,120,384
2,37,120,372
2,38,120,8
2,33,120,144
2,38,120,192
2,38,120,96
2,38,120,84
2,33,120,196
2,28,120,84
2,33,120,12
2,33,120,92
2,33,120,120
2,28,120,0
2,28,120,136
2,35,120,4
2,35,120,88
2,28,120,116
2,33,120,24
2,33,120,88
2,35,120,4
2,37,120,72
2,38,120,56
2,33,120,148
2,38,120,192
2,38,120,108
2,38,120,96
2,33,120,16
2,28,120,80
2,33,120,12
2,33,120,76
2,33,120,136
2,28,120,0
2,35,120,96
2,35,120,160
2,35,120,168
2,28,120,4
2,28,120,152
2,30,120,388
2,32,120,0
2,33,120,0
2,33,120,4
2,37,120,568
2,37,120,140
2,40,120,4
2,33,120,24
2,28,120,1068
2,28,120,136
2,32,120,4
2,32,120,100
2,35,120,192
2,28,120,4
2,32,120,124
2,32,120,156
2,28,120,192
2,33,120,48
2,37,120,72
2,37,120,152
2,40,120,192
2,33,120,24
2,28,120,128
2,33,120,192
2,33,120,108
2,33,120,116
2,28,120,4
2,28,120,156
2,32,120,16
2,32,120,100
2,35,120,12
2,28,120,20
2,32,120,100
2,32,120,164
2,28,120,192
2,33,120,8
2,33,120,172
2,33,120,216
2,33,120,120
2,33,120,140
2,33,120,164
2,34,120,12
2,34,120,216
2,41,120,124
2,34,120,4
2,41,120,116
2,34,120,192
2,34,120,4
2,34,120,1328
2,36,120,4
2,36,120,120
2,29,120,4
2,29,120,116
2,34,120,192
2,29,120,96
2,31,120,192
2,31,120,128
2,27,120,196
2,27,120,128
2,29,120,0
2,29,120,128
2,34,120,12
2,34,120,172
2,36,120,384
2,38,120,8
2,39,120,60
2,34,120,136
2,39,120,192
2,39,120,108
2,39,120,128
2,34,120,4
2,29,120,48
2,34,120,4
2,34,120,132
2,34,120,140
2,29,120,4
2,29,120,136
2,36,120,20
2,36,120,76
2,29,120,384
2,34,120,188
2,34,120,88
2,36,120,16
2,36,120,112
2,38,120,0
2,39,120,40
2,34,120,116
2,39,120,4
2,39,120,120
2,39,120,120
2,34,120,4
2,29,120,116
2,34,120,0
2,34,120,116
2,34,120,148
2,29,120,192
2,29,120,112
2,29,120,116
2,29,120,132
2,29,120,80
2,29,120,576
2,31,120,144
2,33,120,0
2,34,120,0
2,38,120,48
2,38,120,140
2,41,120,192
2,34,120,380
2,29,120,1280
2,29,120,172
2,33,120,192
2,33,120,96
2,36,120,192
2,29,120,376
2,29,120,164
2,33,120,192
2,33,120,104
2,29,120,192
2,34,120,372
2,34,120,92
2,38,120,4
2,38,120,84
2,29,120,172
2,34,120,192
2,34,120,104
2,34,120,56
2,34,120,100
2,34,120,108
2,29,120,4
2,29,120,180
2,33,120,192
2,33,120,108
2,36,120,16
2,29,120,384
2,29,120,156
2,29,120,68
2,29,120,88
2,29,120,120
2,34,120,40
2,34,120,112
2,34,120,224
2,34,120,100
2,34,120,152
2,34,120,120
2,35,120,132
2,35,120,212
2,35,120,4
2,42,120,952
2,42,120,116
2,35,120,4
2,42,120,68
2,42,120,128
2,35,120,16
2,35,120,0
2,35,120,952
2,35,120,100
2,37,120,12
2,37,120,88
2,37,120,120
2,30,120,192
2,30,120,76
2,30,120,120
2,35,120,4
2,35,120,108
2,35,120,132
2,32,120,192
2,32,120,112
2,32,120,120
2,28,120,192
2,28,120,88
2,28,120,108
2,30,120,24
2,30,120,100
2,30,120,124
2,35,120,24
2,35,120,88
2,35,120,140
2,35,120,68
2,35,120,188
2,37,120,384
2,39,120,8
2,40,120,20
2,35,120,148
2,40,120,16
2,40,120,84
2,40,120,108
2,35,120,192
2,30,120,112
2,35,120,16
2,35,120,76
2,35,120,116
2,30,120,192
2,30,120,156
2,37,120,0
2,37,120,108
2,30,120,0
2,35,120,0
2,35,120,128
2,37,120,188
2,37,120,128
2,39,120,20
2,40,120,4
2,35,120,112
2,40,120,4
2,40,120,100
2,40,120,116
2,35,120,20
2,30,120,140
2,35,120,24
2,35,120,100
2,35,120,140
2,30,120,76
2,30,120,136
2,34,120,16
2,34,120,132
2,37,120,100
2,30,120,12
2,30,120,128
2,32,120,192
2,34,120,12
2,35,120,36
2,39,120,92
2,39,120,144
2,42,120,4
2,35,120,12
2,30,120,1016
2,30,120,144
2,34,120,196
2,34,120,116
2,37,120,12
2,30,120,32
2,30,120,156
2,34,120,4
2,34,120,112
2,30,120,88
2,35,120,192
2,39,120,104
2,39,120,160
2,42,120,192
2,35,120,376
2,35,120,100
2,35,120,44
2,35,120,76
2,35,120,100
2,30,120,4
2,34,120,124
2,34,120,140
2,37,120,4
2,30,120,20
2,30,120,104
2,30,120,76
2,30,120,64
2,30,120,108
2,35,120,12
2,35,120,216
2,35,120,256
2,35,120,128
2,35,120,124
2,35,120,124
2,35,120,124
2,30,120,1204
2,30,120,148
2,34,120,192
2,34,120,84
2,37,120,0
2,30,120,384
2,30,120,124
2,34,120,16
2,34,120,116
2,30,120,192
2,35,120,28
2,35,120,172
2,39,120,192
2,39,120,108
2,42,120,192
2,35,120,12
2,35,120,92
2,30,120,4
2,30,120,108
2,35,120,192
2,30,120,0
2,30,120,144
2,34,120,16
2,34,120,112
2,37,120,100
2,30,120,0
2,30,120,124
2,30,120,88
2,30,120,104
2,30,120,100
2,35,120,12
2,35,120,272
2,35,120,340
2,35,120,148
2,35,120,156
2,35,120,168
2,35,120,168
3,57,103,3076
3,71,103,4
3,76,95,0
3,73,113,184
3,69,110,160
3,57,84,236
3,64,110,128
3,71,110,188
3,73,109,196
3,81,105,172
3,69,67,1536
3,83,96,200
3,88,94,0
3,85,117,20
3,83,96,24
3,81,94,8
3,76,98,160
3,71,103,0
3,73,109,16
3,71,121,36
3,73,76,32
3,69,117,0
3,64,95,172
3,73,93,196
3,57,92,0
3,59,89,168
3,66,117,196
3,71,96,188
3,73,99,196
3,74,94,188
3,64,84,32
3,68,87,196
3,71,100,188
3,69,74,448
3,81,110,384
3,83,91,96
3,85,102,0
3,83,84,92
3,81,91,8
3,76,88,188
3,66,93,20
3,81,92,0
3,73,109,192
3,78,92,192
3,69,95,140
3,73,99,196
3,69,69,240
3,59,84,204
3,66,121,196
3,71,105,92
3,73,104,96
3,74,94,96
3,78,106,96
3,74,94,132
3,71,89,8
3,66,93,8
3,64,81,8
3,76,90,0
3,68,102,188
3,71,94,196
3,57,80,20
3,64,79,196
3,69,89,188
3,88,92,384
3,83,96,0
3,85,113,20
3,83,95,24
3,81,92,56
3,83,90,172
3,71,77,4
3,73,102,0
3,85,93,0
3,57,94,348
3,81,95,4
3,76,103,0
3,85,97,0
3,76,92,68
3,79,92,0
3,59,98,0
3,74,100,0
3,83,91,0
3,73,106,120
3,81,89,0
3,76,95,0
3,79,91,0
3,61,127,0
3,74,100,112
3,62,117,0
3,78,113,0
3,81,98,4
3,69,85,68
3,81,93,192
3,76,101,0
3,78,97,100
3,73,109,80
3,76,93,0
3,57,86,0
3,64,84,380
3,69,101,128
3,76,93,52
3,73,113,192
3,69,98,112
3,76,94,72
3,71,91,0
3,64,95,0
3,68,104,188
3,57,89,240
3,64,80,176
3,88,94,188
3,83,101,4
3,85,117,4
3,83,105,8
3,81,105,188
3,76,101,188
3,73,97,196
3,69,100,20
3,74,94,8
3,78,92,0
3,62,101,0
3,69,96,188
3,69,95,12
3,76,91,388
3,81,90,0
3,78,93,16
3,76,101,20
3,74,91,188
3,76,87,104
3,57,87,0
3,73,121,12
3,64,95,156
3,76,93,148
3,71,93,4
3,73,102,4
3,69,117,192
3,52,91,348
3,59,96,192
3,64,103,188
3,68,117,196
3,71,100,192
3,76,95,192
3,68,109,132
3,64,96,4
3,52,103,0
3,71,103,0
3,66,121,80
3,54,121,0
3,64,101,0
3,69,110,0
3,64,108,112
3,62,100,4
3,56,109,0
3,68,117,0
3,69,103,120
3,61,109,0
3,57,126,0
3,64,95,0
3,61,109,144
3,64,108,4
3,69,126,0
3,57,117,0
3,73,100,228
3,69,108,4
3,64,96,0
3,57,113,0
3,65,83,0
3,64,101,96
3,69,126,4
3,73,117,0
3,57,113,0
3,73,121,260
3,69,117,0
3,76,110,0
3,57,121,0
3,64,91,1572
3,68,113,196
3,71,127,192
3,83,91,192
3,80,100,0
3,80,109,92
3,83,100,0
3,76,98,384
3,64,90,68
3,68,117,192
3,71,121,120
3,76,117,192
3,83,100,192
3,57,91,304
3,64,117,132
3,69,110,196
3,57,94,292
3,64,117,192
3,73,127,192
3,81,100,192
3,76,95,192
3,73,121,180
3,64,89,172
3,68,113,196
3,71,127,192
3,76,101,384
3,88,108,380
3,81,94,548
3,73,106,0
3,64,101,0
3,76,98,0
3,57,101,0
3,64,101,292
3,81,94,0
3,57,98,0
3,73,106,0
3,76,96,0
3,64,101,308
3,76,96,0
3,81,91,0
3,73,104,0
3,57,101,0
3,64,113,156
3,57,108,0
3,81,91,0
3,73,106,0
3,76,94,0
3,64,105,180
3,81,87,0
3,73,104,0
3,76,96,0
3,57,108,0
3,81,87,180
3,76,95,0
3,64,95,0
3,73,106,0
3,57,95,0
3,77,110,244
3,74,113,0
3,82,99,0
3,58,104,0
3,65,117,0
3,84,100,104
3,89,91,0
3,86,89,16
3,84,94,40
3,72,117,192
3,74,110,12
3,70,113,188
3,58,85,1280
3,62,84,176
3,65,117,196
3,70,121,188
3,77,91,196
3,72,98,0
3,74,93,72
3,72,95,76
3,70,97,28
3,58,98,72
3,74,94,184
3,65,101,188
3,70,94,196
3,60,93,280
3,74,113,192
3,75,121,188
3,82,113,176
3,67,103,188
3,72,94,192
3,75,89,112
3,65,105,104
3,72,94,72
3,77,95,156
3,81,88,0
3,72,90,176
3,72,68,236
3,58,85,72
3,62,84,180
3,65,87,196
3,82,109,188
3,84,91,96
3,86,93,4
3,84,83,92
3,82,104,68
3,77,100,4
3,74,101,40
3,72,103,12
3,70,104,16
3,67,101,164
3,55,91,84
3,62,101,192
3,74,91,380
3,69,105,0
3,70,99,0
3,69,110,4
3,67,94,8
3,70,92,20
3,75,93,0
3,60,100,0
3,67,96,160
3,60,87,96
3,67,113,96
3,74,110,96
3,75,109,96
3,82,104,20
3,81,91,68
3,65,113,0
3,77,92,188
3,72,96,196
3,58,85,20
3,62,91,96
3,70,94,100
3,74,93,0
3,77,94,0
3,65,92,572
3,70,90,212
3,77,101,192
3,72,98,0
3,74,89,0
3,77,101,372
3,58,121,0
3,82,113,4
3,86,105,0
3,60,127,44
3,75,113,4
3,84,91,0
3,79,101,0
3,74,94,12
3,77,96,4
3,82,97,0
3,62,113,0
3,63,91,168
3,82,97,0
3,75,104,4
3,79,98,0
3,70,99,380
3,75,109,60
3,82,99,384
3,75,96,88
3,77,103,4
3,58,93,0
3,74,105,188
3,65,92,0
3,70,113,148
3,82,121,188
3,80,75,4
3,74,105,112
3,53,88,100
3,60,108,132
3,72,110,196
3,81,91,188
3,77,88,196
3,72,91,152
3,58,93,72
3,65,113,188
3,72,117,196
3,77,105,0
3,74,95,92
3,72,101,72
3,70,109,184
3,68,117,40
3,63,109,116
3,75,96,0
3,67,113,0
3,70,98,188
3,63,91,76
3,70,104,192
3,82,99,188
3,75,109,4
3,82,96,24
3,62,90,0
3,74,105,0
3,70,106,384
3,74,100,100
3,77,98,0
3,82,104,192
3,65,87,344
3,69,92,100
3,72,117,196
3,77,105,188
3,84,113,388
3,65,95,108
3,72,110,192
3,65,105,156
3,53,96,0
3,72,113,0
3,69,127,4
3,55,91,80
3,67,117,4
3,70,106,0
3,65,105,0
3,63,117,56
3,69,101,0
3,57,117,4
3,62,105,92
3,58,127,4
3,70,109,0
3,53,76,576
3,58,113,152
3,62,91,4
3,70,102,0
3,58,117,88
3,62,101,4
3,70,104,0
3,62,103,228
3,58,127,0
3,70,104,0
3,53,96,1372
3,60,126,192
3,69,127,192
3,77,108,192
3,72,108,192
3,69,117,76
3,53,94,80
3,60,126,164
3,65,121,192
3,72,94,64
3,58,91,124
3,70,100,0
3,62,88,356
3,65,103,188
