track,note,velocity,time
1,33,72,326
1,33,0,94
1,33,72,50
1,33,0,94
1,33,72,50
1,33,0,94
1,31,72,50
1,31,0,18
1,31,72,30
1,31,0,46
1,31,72,50
1,31,0,46
1,31,72,50
1,31,0,46
1,29,72,50
1,29,0,94
1,29,72,50
1,29,0,94
1,29,72,50
1,29,0,94
1,29,72,50
1,29,0,18
1,29,72,30
1,29,0,46
1,29,72,50
1,29,0,46
1,31,72,50
1,31,0,46
1,33,72,50
1,33,0,94
1,33,72,50
1,33,0,94
1,33,72,50
1,33,0,94
1,31,72,50
1,31,0,18
1,31,72,30
1,31,0,46
1,31,72,50
1,31,0,46
1,31,72,50
1,31,0,46
1,29,72,50
1,29,0,94
1,29,72,50
1,29,0,94
1,29,72,50
1,29,0,94
1,29,72,50
1,29,0,18
1,29,72,30
1,29,0,46
1,29,72,50
1,29,0,46
1,31,72,50
1,31,0,46
1,38,72,50
1,38,0,94
1,38,72,50
1,38,0,94
1,38,72,50
1,38,0,94
1,29,72,50
1,29,0,18
1,29,72,30
1,29,0,46
1,29,72,50
1,29,0,46
1,29,72,50
1,29,0,46
1,31,72,50
1,31,0,94
1,31,72,50
1,31,0,94
1,31,72,50
1,31,0,94
1,31,72,50
1,31,0,18
1,31,72,30
1,31,0,46
1,31,72,50
1,31,0,46
1,33,72,50
1,33,0,46
1,38,72,50
1,38,0,94
1,38,72,50
1,38,0,94
1,38,72,50
1,38,0,94
1,29,72,50
1,29,0,18
1,29,72,30
1,29,0,46
1,29,72,50
1,29,0,46
1,29,72,50
1,29,0,46
1,31,72,50
1,31,0,94
1,31,72,50
1,31,0,94
1,31,72,50
1,31,0,94
1,31,72,50
1,31,0,18
1,31,72,30
1,31,0,46
1,31,72,50
1,31,0,46
1,31,72,50
1,31,0,46
1,33,72,50
1,33,0,94
1,33,72,50
1,33,0,94
1,33,72,50
1,33,0,94
1,31,72,50
1,31,0,18
1,31,72,30
1,31,0,46
1,31,72,50
1,31,0,46
1,31,72,50
1,31,0,46
1,29,72,50
1,29,0,94
1,29,72,50
1,29,0,94
1,29,72,50
1,29,0,94
1,29,72,50
1,29,0,18
1,29,72,30
1,29,0,46
1,29,72,50
1,29,0,46
1,31,72,50
1,31,0,46
1,33,72,50
1,33,0,94
1,33,72,50
1,33,0,94
1,33,72,50
1,33,0,94
1,31,72,50
1,31,0,18
1,31,72,30
1,31,0,46
1,31,72,50
1,31,0,46
1,31,72,50
1,31,0,46
1,29,72,50
1,29,0,94
1,29,72,50
1,29,0,94
1,29,72,50
1,29,0,94
1,29,72,50
1,29,0,18
1,29,72,30
1,29,0,46
1,29,72,50
1,29,0,46
1,31,72,50
1,31,0,46
1,38,72,50
1,38,0,94
1,38,72,50
1,38,0,94
1,38,72,50
1,38,0,94
1,29,72,50
1,29,0,18
1,29,72,30
1,29,0,46
1,29,72,50
1,29,0,46
1,29,72,50
1,29,0,46
1,31,72,50
1,31,0,94
1,31,72,50
1,31,0,94
1,31,72,50
1,31,0,94
1,31,72,50
1,31,0,18
1,31,72,30
1,31,0,46
1,31,72,50
1,31,0,46
1,33,72,50
1,33,0,46
1,38,72,50
1,38,0,94
1,38,72,50
1,38,0,94
1,38,72,50
1,38,0,94
1,29,72,50
1,29,0,18
1,29,72,30
1,29,0,46
1,29,72,50
1,29,0,46
1,29,72,50
1,29,0,46
1,31,72,50
1,31,0,94
1,31,72,50
1,31,0,94
1,31,72,50
1,31,0,94
1,31,72,50
1,31,0,18
1,31,72,30
1,31,0,94
1,33,72,2
1,33,0,94
1,35,72,2
1,35,0,94
1,36,72,2
1,36,0,94
1,36,72,50
1,36,0,94
1,36,72,50
1,36,0,94
1,36,72,50
1,36,0,18
1,36,72,30
1,36,0,46
1,36,72,50
1,36,0,46
1,36,72,50
1,36,0,46
1,35,72,50
1,35,0,94
1,35,72,50
1,35,0,94
1,35,72,50
1,35,0,94
1,35,72,50
1,35,0,18
1,35,72,30
1,35,0,46
1,35,72,50
1,35,0,46
1,35,72,50
1,35,0,46
1,29,72,50
1,29,0,94
1,29,72,50
1,29,0,94
1,29,72,50
1,29,0,94
1,29,72,50
1,29,0,18
1,29,72,30
1,29,0,46
1,29,72,50
1,29,0,46
1,29,72,50
1,29,0,46
1,31,72,50
1,31,0,94
1,31,72,50
1,31,0,94
1,31,72,50
1,31,0,94
1,31,72,50
1,31,0,18
1,31,72,30
1,31,0,46
1,33,72,50
1,33,0,46
1,35,72,50
1,35,0,46
1,36,72,50
1,36,0,94
1,36,72,50
1,36,0,94
1,36,72,50
1,36,0,94
1,36,72,50
1,36,0,18
1,36,72,30
1,36,0,46
1,36,72,50
1,36,0,46
1,36,72,50
1,36,0,46
1,35,72,50
1,35,0,94
1,35,72,50
1,35,0,94
1,35,72,50
1,35,0,94
1,35,72,50
1,35,0,18
1,35,72,30
1,35,0,46
1,35,72,50
1,35,0,46
1,35,72,50
1,35,0,46
1,29,72,50
1,29,0,94
1,29,72,50
1,29,0,94
1,29,72,50
1,29,0,94
1,29,72,50
1,29,0,18
1,29,72,30
1,29,0,46
1,29,72,50
1,29,0,46
1,29,72,50
1,29,0,46
1,31,72,50
1,31,0,94
1,31,72,50
1,31,0,94
1,31,72,50
1,31,0,94
1,31,72,50
1,31,0,18
1,31,72,30
1,31,0,46
1,33,72,50
1,33,0,46
1,35,72,50
1,35,0,46
1,33,72,50
1,33,0,94
1,33,72,50
1,33,0,94
1,33,72,50
1,33,0,94
1,33,72,50
1,33,0,18
1,33,72,30
1,33,0,46
1,33,72,50
1,33,0,46
1,33,72,50
1,33,0,46
1,31,72,50
1,31,0,94
1,31,72,50
1,31,0,94
1,31,72,50
1,31,0,94
1,31,72,50
1,31,0,18
1,31,72,30
1,31,0,46
1,31,72,50
1,31,0,46
1,31,72,50
1,31,0,46
1,34,72,50
1,34,0,94
1,34,72,50
1,34,0,94
1,29,72,50
1,29,0,94
1,29,72,50
1,29,0,18
1,29,72,30
1,29,0,46
1,29,72,50
1,29,0,46
1,29,72,50
1,29,0,46
1,31,72,50
1,31,0,94
1,31,72,50
1,31,0,94
1,31,72,50
1,31,0,94
1,31,72,50
1,31,0,18
1,31,72,30
1,31,0,46
1,31,72,50
1,31,0,46
1,31,72,50
1,31,0,46
1,33,72,50
1,33,0,94
1,33,72,50
1,33,0,94
1,33,72,50
1,33,0,94
1,31,72,50
1,31,0,18
1,31,72,30
1,31,0,46
1,31,72,50
1,31,0,46
1,31,72,50
1,31,0,46
1,29,72,50
1,29,0,94
1,29,72,50
1,29,0,94
1,29,72,50
1,29,0,94
1,29,72,50
1,29,0,18
1,29,72,30
1,29,0,46
1,29,72,50
1,29,0,46
1,31,72,50
1,31,0,46
1,33,72,50
1,33,0,94
1,33,72,50
1,33,0,94
1,33,72,50
1,33,0,94
1,31,72,50
1,31,0,18
1,31,72,30
1,31,0,46
1,31,72,50
1,31,0,46
1,31,72,50
1,31,0,46
1,29,72,50
1,29,0,94
1,29,72,50
1,29,0,94
1,29,72,50
1,29,0,94
1,29,72,50
1,29,0,18
1,29,72,30
1,29,0,46
1,29,72,50
1,29,0,46
1,31,72,50
1,31,0,46
1,38,72,50
1,38,0,94
1,38,72,50
1,38,0,94
1,38,72,50
1,38,0,94
1,29,72,50
1,29,0,18
1,29,72,30
1,29,0,46
1,29,72,50
1,29,0,46
1,29,72,50
1,29,0,46
1,31,72,50
1,31,0,94
1,31,72,50
1,31,0,94
1,31,72,50
1,31,0,94
1,31,72,50
1,31,0,18
1,31,72,30
1,31,0,46
1,31,72,50
1,31,0,46
1,33,72,50
1,33,0,46
1,38,72,50
1,38,0,94
1,38,72,50
1,38,0,94
1,38,72,50
1,38,0,94
1,29,72,50
1,29,0,18
1,29,72,30
1,29,0,46
1,29,72,50
1,29,0,46
1,29,72,50
1,29,0,46
1,31,72,50
1,31,0,94
1,31,72,50
1,31,0,94
1,31,72,50
1,31,0,94
1,31,72,50
1,31,0,18
1,31,72,30
1,31,0,94
1,33,72,2
1,33,0,94
1,35,72,2
1,35,0,94
1,36,72,2
1,36,0,94
1,36,72,50
1,36,0,94
1,36,72,50
1,36,0,94
1,36,72,50
1,36,0,18
1,36,72,30
1,36,0,46
1,36,72,50
1,36,0,46
1,36,72,50
1,36,0,46
1,35,72,50
1,35,0,94
1,35,72,50
1,35,0,94
1,35,72,50
1,35,0,94
1,35,72,50
1,35,0,18
1,35,72,30
1,35,0,46
1,35,72,50
1,35,0,46
1,35,72,50
1,35,0,46
1,29,72,50
1,29,0,94
1,29,72,50
1,29,0,94
1,29,72,50
1,29,0,94
1,29,72,50
1,29,0,18
1,29,72,30
1,29,0,46
1,29,72,50
1,29,0,46
1,29,72,50
1,29,0,46
1,31,72,50
1,31,0,94
1,31,72,50
1,31,0,94
1,31,72,50
1,31,0,94
1,31,72,50
1,31,0,18
1,31,72,30
1,31,0,46
1,33,72,50
1,33,0,46
1,35,72,50
1,35,0,46
1,36,72,50
1,36,0,94
1,36,72,50
1,36,0,94
1,36,72,50
1,36,0,94
1,36,72,50
1,36,0,18
1,36,72,30
1,36,0,46
1,36,72,50
1,36,0,46
1,36,72,50
1,36,0,46
1,35,72,50
1,35,0,94
1,35,72,50
1,35,0,94
1,35,72,50
1,35,0,94
1,35,72,50
1,35,0,18
1,35,72,30
1,35,0,46
1,35,72,50
1,35,0,46
1,35,72,50
1,35,0,46
1,29,72,50
1,29,0,94
1,29,72,50
1,29,0,94
1,29,72,50
1,29,0,94
1,29,72,50
1,29,0,18
1,29,72,30
1,29,0,46
1,29,72,50
1,29,0,46
1,29,72,50
1,29,0,46
1,31,72,50
1,31,0,94
1,31,72,50
1,31,0,94
1,31,72,50
1,31,0,94
1,31,72,50
1,31,0,18
1,31,72,30
1,31,0,46
1,33,72,50
1,33,0,46
1,35,72,50
1,35,0,46
1,33,72,50
1,33,0,94
1,33,72,50
1,33,0,94
1,33,72,50
1,33,0,94
1,33,72,50
1,33,0,18
1,33,72,30
1,33,0,46
1,33,72,50
1,33,0,46
1,33,72,50
1,33,0,46
1,31,72,50
1,31,0,94
1,31,72,50
1,31,0,94
1,31,72,50
1,31,0,94
1,31,72,50
1,31,0,18
1,31,72,30
1,31,0,46
1,31,72,50
1,31,0,46
1,31,72,50
1,31,0,46
1,34,72,50
1,34,0,94
1,34,72,50
1,34,0,94
1,29,72,50
1,29,0,94
1,29,72,50
1,29,0,18
1,29,72,30
1,29,0,46
1,29,72,50
1,29,0,46
1,29,72,50
1,29,0,46
1,31,72,50
1,31,0,94
1,31,72,50
1,31,0,94
1,31,72,50
1,31,0,94
1,31,72,50
1,31,0,18
1,31,72,30
1,31,0,46
1,31,72,50
1,31,0,46
1,31,72,50
1,31,0,46
1,38,72,12
1,38,0,94
1,38,72,46
1,38,0,94
1,38,72,7
1,38,0,94
1,29,72,11
1,29,0,18
1,29,72,17
1,29,0,46
1,29,72,46
1,29,0,46
1,29,72,10
1,29,0,46
1,31,72,32
1,31,0,26
1,31,72,50
1,31,0,94
1,31,72,10
1,31,0,94
1,31,72,46
1,31,0,14
1,31,72,30
1,31,0,46
1,31,72,14
1,31,0,46
1,33,72,18
1,33,0,46
1,38,72,22
1,38,0,94
1,38,72,34
1,38,0,94
1,38,72,10
1,38,0,94
1,29,72,12
1,29,0,18
1,29,72,2
1,29,0,46
1,29,72,14
1,29,0,46
1,29,72,10
1,29,0,46
1,31,72,6
1,31,0,94
1,31,72,17
1,31,0,94
1,31,72,9
1,31,0,94
1,31,72,20
1,31,0,18
1,31,72,27
1,31,0,37
1,33,72,2
1,33,0,94
1,35,72,2
1,35,0,94
1,36,72,2
1,36,0,94
1,36,72,50
1,36,0,94
1,36,72,50
1,36,0,94
1,36,72,50
1,36,0,18
1,36,72,30
1,36,0,46
1,36,72,50
1,36,0,46
1,36,72,50
1,36,0,46
1,35,72,50
1,35,0,94
1,35,72,50
1,35,0,94
1,35,72,50
1,35,0,94
1,35,72,50
1,35,0,18
1,35,72,30
1,35,0,46
1,35,72,50
1,35,0,46
1,35,72,50
1,35,0,46
1,29,72,50
1,29,0,94
1,29,72,50
1,29,0,94
1,29,72,50
1,29,0,94
1,29,72,50
1,29,0,18
1,29,72,30
1,29,0,46
1,29,72,50
1,29,0,46
1,29,72,50
1,29,0,46
1,31,72,50
1,31,0,94
1,31,72,50
1,31,0,94
1,31,72,50
1,31,0,94
1,31,72,50
1,31,0,18
1,31,72,30
1,31,0,46
1,33,72,50
1,33,0,46
1,35,72,50
1,35,0,46
1,36,72,50
1,36,0,94
1,36,72,50
1,36,0,94
1,36,72,50
1,36,0,94
1,36,72,50
1,36,0,18
1,36,72,30
1,36,0,46
1,36,72,50
1,36,0,46
1,36,72,50
1,36,0,46
1,35,72,50
1,35,0,94
1,35,72,50
1,35,0,94
1,35,72,50
1,35,0,94
1,35,72,50
1,35,0,18
1,35,72,30
1,35,0,46
1,35,72,50
1,35,0,46
1,35,72,50
1,35,0,46
1,29,72,50
1,29,0,94
1,29,72,50
1,29,0,94
1,29,72,50
1,29,0,94
1,29,72,50
1,29,0,18
1,29,72,30
1,29,0,46
1,29,72,50
1,29,0,46
1,29,72,50
1,29,0,46
1,31,72,50
1,31,0,94
1,31,72,50
1,31,0,94
1,31,72,50
1,31,0,94
1,31,72,50
1,31,0,18
1,31,72,30
1,31,0,46
1,33,72,50
1,33,0,46
1,35,72,50
1,35,0,46
1,36,72,50
1,36,0,94
1,36,72,50
1,36,0,94
1,36,72,50
1,36,0,94
1,36,72,50
1,36,0,18
1,36,72,30
1,36,0,46
1,36,72,50
1,36,0,46
1,36,72,50
1,36,0,46
1,35,72,50
1,35,0,94
1,35,72,50
1,35,0,94
1,35,72,50
1,35,0,94
1,35,72,50
1,35,0,18
1,35,72,30
1,35,0,46
1,35,72,50
1,35,0,46
1,35,72,50
1,35,0,46
1,29,72,50
1,29,0,94
1,29,72,50
1,29,0,94
1,29,72,50
1,29,0,94
1,29,72,50
1,29,0,18
1,29,72,30
1,29,0,46
1,29,72,50
1,29,0,46
1,29,72,50
1,29,0,46
1,31,72,50
1,31,0,94
1,31,72,50
1,31,0,94
1,31,72,50
1,31,0,94
1,31,72,50
1,31,0,18
1,31,72,30
1,31,0,46
1,33,72,50
1,33,0,46
1,35,72,50
1,35,0,46
1,36,72,50
1,36,0,94
1,36,72,50
1,36,0,94
1,36,72,50
1,36,0,94
1,36,72,50
1,36,0,18
1,36,72,30
1,36,0,46
1,36,72,50
1,36,0,46
1,36,72,50
1,36,0,46
1,35,72,50
1,35,0,94
1,35,72,50
1,35,0,94
1,35,72,50
1,35,0,94
1,35,72,50
1,35,0,18
1,35,72,30
1,35,0,46
1,35,72,50
1,35,0,46
1,35,72,50
1,35,0,46
1,29,72,50
1,29,0,94
1,29,72,50
1,29,0,94
1,29,72,50
1,29,0,94
1,29,72,50
1,29,0,18
1,29,72,30
1,29,0,46
1,29,72,50
1,29,0,46
1,29,72,50
1,29,0,46
1,31,72,50
1,31,0,94
1,31,72,50
1,31,0,94
1,31,72,50
1,31,0,94
1,31,72,50
1,31,0,18
1,31,72,30
1,31,0,46
1,33,72,50
1,33,0,46
1,35,72,50
1,35,0,46
1,33,72,50
1,33,0,94
1,33,72,50
1,33,0,94
1,33,72,50
1,33,0,94
1,33,72,50
1,33,0,18
1,33,72,30
1,33,0,46
1,33,72,50
1,33,0,46
1,33,72,50
1,33,0,46
1,31,72,50
1,31,0,94
1,31,72,50
1,31,0,94
1,31,72,50
1,31,0,94
1,31,72,50
1,31,0,18
1,31,72,30
1,31,0,46
1,31,72,50
1,31,0,46
1,31,72,50
1,31,0,46
1,34,72,50
1,34,0,94
1,34,72,50
1,34,0,94
1,29,72,50
1,29,0,94
1,29,72,50
1,29,0,18
1,29,72,30
1,29,0,46
1,29,72,50
1,29,0,46
1,29,72,50
1,29,0,46
1,31,72,50
1,31,0,94
1,31,72,50
1,31,0,94
1,31,72,50
1,31,0,94
