track,note,velocity,time
1,31,107,948
1,43,87,0
1,31,107,21
1,43,87,0
1,31,107,188
1,43,87,0
1,31,107,21
1,43,87,0
1,26,107,1
1,38,87,0
1,31,107,1
1,43,87,0
1,29,107,32
1,41,87,0
1,29,107,17
1,41,87,0
1,29,107,188
1,41,87,0
1,29,107,30
1,41,87,0
1,26,107,320
1,38,87,0
1,29,107,60
1,41,87,0
1,31,107,6
1,43,87,0
1,31,107,21
1,43,87,0
1,31,107,188
1,43,87,0
1,31,107,21
1,43,87,0
1,26,107,1
1,38,87,0
1,31,107,1
1,43,87,0
1,29,107,32
1,41,87,0
1,29,107,17
1,41,87,0
1,29,107,188
1,41,87,0
1,29,107,30
1,41,87,0
1,26,107,320
1,38,87,0
1,29,107,60
1,41,87,0
1,31,107,6
1,43,87,0
1,31,107,24
1,43,87,0
1,31,107,192
1,43,87,0
1,31,107,31
1,43,87,0
1,27,107,36
1,39,87,0
1,29,107,32
1,41,87,0
1,31,107,31
1,43,87,0
1,29,107,31
1,41,87,0
1,29,107,18
1,41,87,0
1,29,107,194
1,41,87,0
1,29,107,30
1,41,87,0
1,24,107,320
1,36,87,0
1,26,107,28
1,38,87,0
1,29,107,28
1,41,87,0
1,31,107,31
1,43,87,0
1,31,107,20
1,43,87,0
1,31,107,190
1,43,87,0
1,31,107,25
1,43,87,0
1,27,107,320
1,39,87,0
1,29,107,23
1,41,87,0
1,31,107,28
1,43,87,0
1,29,107,31
1,41,87,0
1,29,107,15
1,41,87,0
1,29,107,191
1,41,87,0
1,29,107,30
1,41,87,0
1,24,107,320
1,36,87,0
1,26,107,2
1,38,87,0
1,29,107,0
1,41,87,0
1,31,107,32
1,43,87,0
1,31,107,27
1,43,87,0
1,31,107,53
1,43,87,0
1,31,107,12
1,43,87,0
1,31,107,40
1,43,87,0
1,31,107,41
1,43,87,0
1,31,107,43
1,43,87,0
1,27,107,1
1,39,87,0
1,29,107,3
1,41,87,0
1,31,107,96
1,43,87,0
1,29,107,12
1,41,87,0
1,29,107,30
1,41,87,0
1,29,107,54
1,41,87,0
1,29,107,10
1,41,87,0
1,29,107,47
1,41,87,0
1,29,107,38
1,41,87,0
1,29,107,42
1,41,87,0
1,24,107,9
1,36,87,0
1,26,107,96
1,38,87,0
1,29,107,3
1,41,87,0
1,31,107,19
1,43,87,0
1,31,107,24
1,43,87,0
1,31,107,192
1,43,87,0
1,31,107,31
1,43,87,0
1,27,107,36
1,39,87,0
1,29,107,32
1,41,87,0
1,31,107,31
1,43,87,0
1,29,107,31
1,41,87,0
1,29,107,18
1,41,87,0
1,29,107,194
1,41,87,0
1,29,107,30
1,41,87,0
1,24,107,320
1,36,87,0
1,26,107,28
1,38,87,0
1,29,107,28
1,41,87,0
1,31,107,31
1,43,87,0
1,31,107,20
1,43,87,0
1,31,107,190
1,43,87,0
1,31,107,25
1,43,87,0
1,27,107,320
1,39,87,0
1,29,107,23
1,41,87,0
1,31,107,28
1,43,87,0
1,29,107,31
1,41,87,0
1,29,107,15
1,41,87,0
1,29,107,191
1,41,87,0
1,29,107,30
1,41,87,0
1,24,107,320
1,36,87,0
1,26,107,2
1,38,87,0
1,29,107,0
1,41,87,0
1,34,112,2300
1,34,112,61
1,34,112,59
1,39,112,62
1,39,112,54
1,27,112,7
1,27,112,30
1,39,112,34
1,27,112,32
1,43,112,21
1,43,112,64
1,43,112,59
1,41,112,59
1,41,112,37
1,29,112,32
1,29,112,27
1,41,112,35
1,29,112,32
1,38,112,19
1,38,112,61
1,38,112,59
1,39,112,61
1,39,112,32
1,27,112,4
1,27,112,29
1,39,112,30
1,27,112,32
1,41,112,17
1,41,112,57
1,41,112,62
1,41,112,58
1,41,112,45
1,29,112,4
1,29,112,34
1,41,112,35
1,29,112,32
1,43,107,26
1,43,107,55
1,43,107,41
1,39,107,44
1,39,107,34
1,27,107,4
1,27,107,23
1,39,107,10
1,27,107,32
1,41,107,0
1,41,107,52
1,41,107,47
1,41,107,52
1,41,107,27
1,29,107,1
1,29,107,14
1,41,107,5
1,39,107,32
1,38,107,13
1,38,107,52
1,38,107,55
1,39,107,52
1,39,107,26
1,27,107,8
1,27,107,4
1,39,107,1
1,27,107,32
1,41,107,90
1,41,107,41
1,41,107,46
1,41,107,52
1,41,107,31
1,29,107,1
1,29,107,18
1,41,107,8
1,39,107,32
1,43,109,13
1,43,109,46
1,43,109,48
1,39,109,49
1,51,109,11
1,39,109,2
1,39,109,30
1,51,109,6
1,39,109,3
1,22,89,18
1,34,109,0
1,22,89,40
1,34,109,0
1,22,89,35
1,34,109,0
1,41,109,22
1,53,109,160
1,41,109,22
1,41,109,35
1,53,109,7
1,41,109,4
1,43,109,4
1,43,109,53
1,43,109,51
1,39,109,47
1,51,109,10
1,39,109,1
1,39,109,30
1,51,109,16
1,39,109,7
1,22,89,13
1,34,109,0
1,22,89,39
1,34,109,0
1,22,89,35
1,34,109,0
1,41,109,19
1,53,109,160
1,41,109,1
1,41,109,30
1,53,109,64
1,41,109,30
1,31,70,36
1,43,70,0
1,43,70,64
1,55,70,0
1,31,70,12
1,43,70,0
1,43,70,32
1,55,70,0
1,31,70,74
1,43,70,0
1,43,70,0
1,55,70,0
1,43,70,8
1,55,70,0
1,27,70,17
1,39,70,0
1,29,70,28
1,41,70,0
1,31,70,45
1,43,70,0
1,29,70,36
1,41,70,0
1,41,70,3
1,53,70,0
1,29,70,5
1,41,70,0
1,41,70,4
1,53,70,0
1,29,70,8
1,41,70,0
1,41,70,8
1,53,70,0
1,24,70,13
1,36,70,0
1,41,70,0
1,53,70,0
1,36,70,17
1,48,70,0
1,38,70,21
1,50,70,0
1,41,70,29
1,53,70,0
1,31,90,19
1,43,90,0
1,43,90,10
1,55,90,0
1,31,90,5
1,43,90,0
1,43,90,3
1,55,90,0
1,31,90,3
1,43,90,0
1,43,90,14
1,55,90,0
1,43,90,17
1,55,90,0
1,27,90,16
1,39,90,0
1,29,90,31
1,41,90,0
1,31,90,40
1,43,90,0
1,29,90,42
1,41,90,0
1,41,90,64
1,53,90,0
1,29,90,6
1,41,90,0
1,41,90,6
1,53,90,0
1,29,90,10
1,41,90,0
1,41,90,14
1,53,90,0
1,24,90,20
1,36,90,0
1,36,90,13
1,48,90,0
1,38,90,31
1,50,90,0
1,41,90,34
1,53,90,0
1,31,90,26
1,43,90,0
1,43,90,10
1,55,90,0
1,31,90,5
1,43,90,0
1,43,90,3
1,55,90,0
1,31,90,3
1,43,90,0
1,43,90,14
1,55,90,0
1,43,90,17
1,55,90,0
1,27,90,16
1,39,90,0
1,29,90,31
1,41,90,0
1,31,90,40
1,43,90,0
1,29,90,42
1,41,90,0
1,41,90,64
1,53,90,0
1,29,90,6
1,41,90,0
1,41,90,6
1,53,90,0
1,29,90,10
1,41,90,0
1,41,90,14
1,53,90,0
1,24,90,20
1,36,90,0
1,36,90,13
1,48,90,0
1,38,90,31
1,50,90,0
1,41,90,34
1,53,90,0
1,31,90,26
1,43,90,0
1,43,90,10
1,55,90,0
1,31,90,5
1,43,90,0
1,43,90,3
1,55,90,0
1,31,90,3
1,43,90,0
1,43,90,14
1,55,90,0
1,43,90,17
1,55,90,0
1,27,90,16
1,39,90,0
1,29,90,31
1,41,90,0
1,31,90,40
1,43,90,0
1,29,90,42
1,41,90,0
1,41,90,64
1,53,90,0
1,29,90,6
1,41,90,0
1,41,90,6
1,53,90,0
1,29,90,10
1,41,90,0
1,41,90,14
1,53,90,0
1,24,90,20
1,36,90,0
1,36,90,13
1,48,90,0
1,38,90,31
1,50,90,0
1,41,90,34
1,53,90,0
1,31,90,26
1,43,90,0
1,43,90,10
1,55,90,0
1,31,90,5
1,43,90,0
1,43,90,3
1,55,90,0
1,31,90,3
1,43,90,0
1,43,90,14
1,55,90,0
1,43,90,17
1,55,90,0
1,27,90,16
1,39,90,0
1,29,90,31
1,41,90,0
1,31,90,40
1,43,90,0
1,29,90,42
1,41,90,0
1,41,90,64
1,53,90,0
1,29,90,6
1,41,90,0
1,41,90,6
1,53,90,0
1,29,90,10
1,41,90,0
1,41,90,14
1,53,90,0
1,24,90,20
1,36,90,0
1,36,90,13
1,48,90,0
1,38,90,31
1,50,90,0
1,41,90,34
1,53,90,0
1,31,90,26
1,43,90,0
1,43,90,10
1,55,90,0
1,31,90,5
1,43,90,0
1,43,90,3
1,55,90,0
1,31,90,3
1,43,90,0
1,43,90,14
1,55,90,0
1,43,90,17
1,55,90,0
1,27,90,16
1,39,90,0
1,29,90,31
1,41,90,0
1,31,90,40
1,43,90,0
1,29,90,42
1,41,90,0
1,41,90,64
1,53,90,0
1,29,90,6
1,41,90,0
1,41,90,6
1,53,90,0
1,29,90,10
1,41,90,0
1,41,90,14
1,53,90,0
1,24,90,20
1,36,90,0
1,36,90,13
1,48,90,0
1,38,90,31
1,50,90,0
1,41,90,34
1,53,90,0
1,34,112,2330
1,34,112,61
1,34,112,59
1,39,112,62
1,39,112,54
1,27,112,7
1,27,112,30
1,39,112,34
1,27,112,32
1,43,112,21
1,43,112,64
1,43,112,59
1,41,112,59
1,41,112,37
1,29,112,32
1,29,112,27
1,41,112,35
1,29,112,32
1,38,112,19
1,38,112,61
1,38,112,59
1,39,112,61
1,39,112,32
1,27,112,4
1,27,112,29
1,39,112,30
1,27,112,32
1,41,112,17
1,41,112,57
1,41,112,62
1,41,112,58
1,41,112,45
1,29,112,4
1,29,112,34
1,41,112,35
1,29,112,32
1,43,107,26
1,43,107,55
1,43,107,41
1,39,107,44
1,39,107,34
1,27,107,4
1,27,107,23
1,39,107,10
1,27,107,32
1,41,107,0
1,41,107,52
1,41,107,47
1,41,107,52
1,41,107,27
1,29,107,1
1,29,107,14
1,41,107,5
1,39,107,32
1,38,107,13
1,38,107,52
1,38,107,55
1,39,107,52
1,39,107,26
1,27,107,8
1,27,107,4
1,39,107,1
1,27,107,32
1,41,107,90
1,41,107,41
1,41,107,46
1,41,107,52
1,41,107,31
1,29,107,1
1,29,107,18
1,41,107,8
1,39,107,32
1,43,109,13
1,43,109,46
1,43,109,48
1,39,109,49
1,51,109,11
1,39,109,2
1,39,109,30
1,51,109,6
1,39,109,3
1,22,89,18
1,34,109,0
1,22,89,40
1,34,109,0
1,22,89,35
1,34,109,0
1,41,109,22
1,53,109,160
1,41,109,22
1,41,109,35
1,53,109,7
1,41,109,4
1,43,109,4
1,43,109,53
1,43,109,51
1,39,109,47
1,51,109,10
1,39,109,1
1,39,109,30
1,51,109,16
1,39,109,7
1,22,89,13
1,34,109,0
1,22,89,39
1,34,109,0
1,22,89,35
1,34,109,0
1,41,109,19
1,53,109,160
1,41,109,1
1,41,109,30
1,53,109,64
1,41,109,30
1,34,122,3108
1,34,122,61
1,34,122,59
1,39,122,62
1,39,122,54
1,27,122,7
1,27,122,30
1,39,122,34
1,27,122,32
1,43,122,21
1,43,122,64
1,43,122,59
1,41,122,59
1,41,122,37
1,29,122,32
1,29,122,27
1,41,122,35
1,29,122,32
1,38,122,19
1,38,122,61
1,38,122,59
1,39,122,61
1,39,122,32
1,27,122,4
1,27,122,29
1,39,122,30
1,27,122,32
1,41,122,17
1,41,122,57
1,41,122,62
1,41,122,58
1,41,122,45
1,29,122,4
1,29,122,34
1,41,122,35
1,29,122,32
1,43,117,26
1,43,117,55
1,43,117,41
1,39,117,44
1,39,117,34
1,27,117,4
1,27,117,23
1,39,117,10
1,27,117,32
1,41,117,0
1,41,117,52
1,41,117,47
1,41,117,52
1,41,117,27
1,29,117,1
1,29,117,14
1,41,117,5
1,39,117,32
1,38,117,13
1,38,117,52
1,38,117,55
1,39,117,52
1,39,117,26
1,27,117,8
1,27,117,4
1,39,117,1
1,27,117,32
1,41,117,90
1,41,117,41
1,41,117,46
1,41,117,52
1,41,117,31
1,29,117,1
1,29,117,18
1,41,117,8
1,39,117,32
1,43,119,13
1,43,119,46
1,43,119,48
1,39,119,49
1,51,119,11
1,39,119,2
1,39,119,30
1,51,119,6
1,39,119,3
1,22,99,18
1,34,119,0
1,22,99,40
1,34,119,0
1,22,99,35
1,34,119,0
1,41,119,22
1,53,119,160
1,41,119,22
1,41,119,35
1,53,119,7
1,41,119,4
1,43,119,4
1,43,119,53
1,43,119,51
1,39,119,47
1,51,119,10
1,39,119,1
1,39,119,30
1,51,119,16
1,39,119,7
1,22,99,13
1,34,119,0
1,22,99,39
1,34,119,0
1,22,99,35
1,34,119,0
1,41,119,19
1,53,119,160
1,41,119,1
1,41,119,30
1,53,119,64
1,41,119,30
2,55,47,860
2,58,47,0
2,62,47,0
2,55,47,21
2,58,47,0
2,63,47,0
2,53,47,22
2,57,47,0
2,60,47,0
2,53,47,25
2,57,47,0
2,63,47,0
2,55,47,28
2,58,47,0
2,62,47,0
2,55,47,21
2,58,47,0
2,63,47,0
2,53,47,21
2,57,47,0
2,60,47,0
2,53,47,35
2,57,47,0
2,63,47,0
2,55,47,37
2,58,47,0
2,62,47,0
2,53,47,3
2,57,47,0
2,60,47,0
2,63,47,384
2,55,47,3
2,58,47,0
2,62,47,0
2,53,47,3
2,57,47,0
2,60,47,0
2,63,47,384
2,55,47,28
2,58,47,0
2,62,47,0
2,55,47,21
2,58,47,0
2,63,47,0
2,53,47,22
2,57,47,0
2,60,47,0
2,53,47,25
2,57,47,0
2,63,47,0
2,55,47,28
2,58,47,0
2,62,47,0
2,53,47,3
2,57,47,0
2,60,47,0
2,63,47,384
2,55,47,3
2,58,47,0
2,62,47,0
2,53,47,3
2,57,47,0
2,60,47,0
2,63,47,384
2,53,47,672
2,58,47,0
2,62,47,0
2,55,47,47
2,63,47,0
2,58,47,43
2,62,47,0
2,65,47,0
2,57,47,16
2,60,47,0
2,53,47,29
2,55,47,0
2,58,47,0
2,62,47,0
2,55,47,25
2,63,47,0
2,58,47,27
2,62,47,0
2,65,47,0
2,57,47,16
2,60,47,0
2,65,47,0
2,58,47,38
2,62,47,0
2,65,47,0
2,58,47,3
2,63,47,0
2,67,47,0
2,58,47,3
2,62,47,0
2,65,47,0
2,57,47,3
2,60,47,0
2,65,47,0
2,58,47,3
2,62,47,0
2,65,47,0
2,58,47,3
2,63,47,0
2,67,47,0
2,58,47,3
2,62,47,0
2,65,47,0
2,57,47,27
2,60,47,0
2,65,47,0
2,53,57,38
2,58,57,0
2,62,57,0
2,55,57,47
2,63,57,0
2,58,57,43
2,62,57,0
2,65,57,0
2,57,57,16
2,60,57,0
2,53,57,29
2,55,57,0
2,58,57,0
2,62,57,0
2,55,57,25
2,63,57,0
2,58,57,27
2,62,57,0
2,65,57,0
2,67,57,0
2,57,57,16
2,60,57,0
2,65,57,0
2,55,47,81
2,58,47,0
2,62,47,0
2,55,47,21
2,58,47,0
2,63,47,0
2,53,47,22
2,57,47,0
2,60,47,0
2,53,47,25
2,57,47,0
2,63,47,0
2,55,47,28
2,58,47,0
2,62,47,0
2,53,47,3
2,57,47,0
2,60,47,0
2,63,47,384
2,55,47,3
2,58,47,0
2,62,47,0
2,53,47,3
2,57,47,0
2,60,47,0
2,63,47,384
2,55,47,28
2,58,47,0
2,62,47,0
2,55,47,21
2,58,47,0
2,63,47,0
2,53,47,22
2,57,47,0
2,60,47,0
2,53,47,25
2,57,47,0
2,63,47,0
2,55,47,28
2,58,47,0
2,62,47,0
2,55,47,21
2,58,47,0
2,63,47,0
2,53,47,22
2,57,47,0
2,60,47,0
2,53,47,25
2,57,47,0
2,63,47,0
2,55,47,28
2,58,47,0
2,62,47,0
2,55,47,21
2,58,47,0
2,63,47,0
2,53,47,22
2,57,47,0
2,60,47,0
2,53,47,25
2,57,47,0
2,63,47,0
2,53,47,672
2,58,47,0
2,62,47,0
2,55,47,47
2,63,47,0
2,58,47,43
2,62,47,0
2,65,47,0
2,57,47,16
2,60,47,0
2,53,47,29
2,55,47,0
2,58,47,0
2,62,47,0
2,55,47,25
2,63,47,0
2,58,47,27
2,62,47,0
2,65,47,0
2,57,47,16
2,60,47,0
