track,note,velocity,time
1,42,90,2400
1,49,90,0
1,54,90,0
1,49,0,29
1,54,0,0
1,54,90,31
1,49,90,0
1,54,0,29
1,49,0,0
1,54,90,31
1,49,90,0
1,54,0,29
1,49,0,0
1,54,90,31
1,49,90,0
1,42,0,29
1,54,0,0
1,49,0,0
1,49,90,31
1,61,90,0
1,56,90,0
1,61,0,29
1,56,0,0
1,61,90,31
1,56,90,0
1,61,0,29
1,56,0,0
1,61,90,31
1,56,90,0
1,61,0,29
1,56,0,0
1,61,90,31
1,56,90,0
1,49,0,29
1,61,0,0
1,56,0,0
1,47,90,31
1,54,90,0
1,59,90,0
1,54,0,29
1,59,0,0
1,54,90,31
1,59,90,0
1,54,0,29
1,59,0,0
1,59,90,31
1,54,90,0
1,59,0,29
1,54,0,0
1,54,90,31
1,59,90,0
1,54,0,29
1,59,0,0
1,59,90,31
1,54,90,0
1,59,0,29
1,54,0,0
1,59,90,31
1,54,90,0
1,59,0,29
1,54,0,0
1,54,90,31
1,59,90,0
1,54,0,29
1,59,0,0
1,54,90,31
1,59,90,0
1,47,0,29
1,54,0,0
1,59,0,0
1,42,90,31
1,49,90,0
1,54,90,0
1,49,0,29
1,54,0,0
1,54,90,31
1,49,90,0
1,54,0,29
1,49,0,0
1,54,90,31
1,49,90,0
1,54,0,29
1,49,0,0
1,54,90,31
1,49,90,0
1,42,0,29
1,54,0,0
1,49,0,0
1,49,90,31
1,61,90,0
1,56,90,0
1,61,0,29
1,56,0,0
1,61,90,31
1,56,90,0
1,61,0,29
1,56,0,0
1,61,90,31
1,56,90,0
1,61,0,29
1,56,0,0
1,61,90,31
1,56,90,0
1,49,0,29
1,61,0,0
1,56,0,0
1,47,90,31
1,54,90,0
1,59,90,0
1,54,0,29
1,59,0,0
1,54,90,31
1,59,90,0
1,54,0,29
1,59,0,0
1,59,90,31
1,54,90,0
1,59,0,29
1,54,0,0
1,54,90,31
1,59,90,0
1,54,0,29
1,59,0,0
1,59,90,31
1,54,90,0
1,59,0,29
1,54,0,0
1,59,90,31
1,54,90,0
1,59,0,29
1,54,0,0
1,54,90,31
1,59,90,0
1,54,0,29
1,59,0,0
1,54,90,31
1,59,90,0
1,47,0,29
1,54,0,0
1,59,0,0
1,42,90,31
1,49,90,0
1,54,90,0
1,49,0,29
1,54,0,0
1,54,90,31
1,49,90,0
1,54,0,29
1,49,0,0
1,54,90,31
1,49,90,0
1,54,0,29
1,49,0,0
1,54,90,31
1,49,90,0
1,42,0,29
1,54,0,0
1,49,0,0
1,49,90,31
1,61,90,0
1,56,90,0
1,61,0,29
1,56,0,0
1,61,90,31
1,56,90,0
1,61,0,29
1,56,0,0
1,61,90,31
1,56,90,0
1,61,0,29
1,56,0,0
1,61,90,31
1,56,90,0
1,49,0,29
1,61,0,0
1,56,0,0
1,47,90,31
1,54,90,0
1,59,90,0
1,54,0,29
1,59,0,0
1,54,90,31
1,59,90,0
1,54,0,29
1,59,0,0
1,59,90,31
1,54,90,0
1,59,0,29
1,54,0,0
1,54,90,31
1,59,90,0
1,54,0,29
1,59,0,0
1,59,90,31
1,54,90,0
1,59,0,29
1,54,0,0
1,59,90,31
1,54,90,0
1,59,0,29
1,54,0,0
1,54,90,31
1,59,90,0
1,54,0,29
1,59,0,0
1,54,90,31
1,59,90,0
1,47,0,29
1,54,0,0
1,59,0,0
1,42,90,31
1,49,90,0
1,54,90,0
1,49,0,29
1,54,0,0
1,54,90,31
1,49,90,0
1,54,0,29
1,49,0,0
1,54,90,31
1,49,90,0
1,54,0,29
1,49,0,0
1,54,90,31
1,49,90,0
1,42,0,29
1,54,0,0
1,49,0,0
1,49,90,31
1,61,90,0
1,56,90,0
1,61,0,29
1,56,0,0
1,61,90,31
1,56,90,0
1,61,0,29
1,56,0,0
1,61,90,31
1,56,90,0
1,61,0,29
1,56,0,0
1,61,90,31
1,56,90,0
1,49,0,29
1,61,0,0
1,56,0,0
1,47,90,31
1,54,90,0
1,59,90,0
1,54,0,29
1,59,0,0
1,54,90,31
1,59,90,0
1,54,0,29
1,59,0,0
1,59,90,31
1,54,90,0
1,59,0,29
1,54,0,0
1,54,90,31
1,59,90,0
1,54,0,29
1,59,0,0
1,59,90,31
1,54,90,0
1,59,0,29
1,54,0,0
1,59,90,31
1,54,90,0
1,59,0,29
1,54,0,0
1,54,90,31
1,59,90,0
1,54,0,29
1,59,0,0
1,54,90,31
1,59,90,0
1,47,0,29
1,54,0,0
1,59,0,0
1,49,90,3871
1,61,90,0
1,56,90,0
1,49,0,59
1,61,0,0
1,56,0,0
1,49,90,1
1,61,90,0
1,56,90,0
1,49,0,59
1,61,0,0
1,56,0,0
1,49,90,1
1,61,90,0
1,56,90,0
1,49,0,59
1,61,0,0
1,56,0,0
1,49,90,1
1,61,90,0
1,56,90,0
1,49,0,59
1,61,0,0
1,56,0,0
1,49,90,1
1,61,90,0
1,56,90,0
1,56,0,59
1,56,90,1
1,49,0,59
1,61,0,0
1,56,0,0
1,49,90,1
1,61,90,0
1,56,90,0
1,61,0,59
1,56,0,0
1,61,90,1
1,56,90,0
1,49,0,59
1,61,0,0
1,56,0,0
1,54,90,1
1,47,90,0
1,59,90,0
1,54,0,59
1,54,90,1
1,59,0,59
1,54,0,0
1,54,90,1
1,59,90,0
1,54,0,59
1,59,0,0
1,59,90,1
1,54,90,0
1,59,0,59
1,54,0,0
1,54,90,1
1,59,90,0
1,54,0,59
1,59,0,0
1,59,90,1
1,54,90,0
1,59,0,59
1,54,0,0
1,59,90,1
1,54,90,0
1,47,0,59
1,59,0,0
1,54,0,0
1,54,90,1
1,59,90,0
1,54,0,59
1,59,0,0
1,42,90,1
1,54,90,0
1,49,90,0
1,42,0,59
1,54,0,0
1,49,0,0
1,42,90,1
1,54,90,0
1,49,90,0
1,54,0,59
1,49,0,0
1,54,90,1
1,49,90,0
1,54,0,59
1,49,0,0
1,54,90,1
1,49,90,0
1,54,0,59
1,49,0,0
1,54,90,1
1,49,90,0
1,54,0,59
1,49,0,0
1,54,90,1
1,49,90,0
1,54,0,59
1,49,0,0
1,54,90,1
1,49,90,0
1,54,0,59
1,49,0,0
1,54,90,1
1,49,90,0
1,42,0,59
1,54,0,0
1,49,0,0
1,40,90,1
1,52,90,0
1,47,90,0
1,40,0,419
1,52,0,0
1,47,0,0
1,40,90,61
1,52,90,0
1,47,90,0
1,40,0,419
1,52,0,0
1,47,0,0
1,40,90,61
1,52,90,0
1,47,90,0
1,40,0,359
1,47,0,0
1,52,0,60
1,42,90,61
1,54,90,0
1,49,90,0
1,54,0,119
1,49,0,0
1,54,90,1
1,49,90,0
1,54,0,59
1,49,0,0
1,54,90,1
1,49,90,0
1,54,0,59
1,49,0,0
1,54,90,1
1,49,90,0
1,54,0,59
1,49,0,0
1,54,90,1
1,49,90,0
1,54,0,59
1,49,0,0
1,54,90,1
1,49,90,0
1,54,0,59
1,49,0,0
1,54,90,1
1,49,90,0
1,42,0,59
1,54,0,0
1,49,0,0
1,54,90,1
1,47,90,0
1,59,90,0
1,54,0,59
1,59,0,0
1,54,90,1
1,54,0,59
1,54,90,1
1,59,90,0
1,54,0,59
1,59,0,0
1,59,90,1
1,54,90,0
1,59,0,59
1,54,0,0
1,59,90,1
1,54,90,0
1,59,0,59
1,54,0,0
1,59,90,1
1,54,90,0
1,59,0,59
1,54,0,0
1,59,90,1
1,54,90,0
1,47,0,59
1,59,0,0
1,54,0,0
1,54,90,1
1,54,0,59
1,42,90,1
1,54,90,0
1,49,90,0
1,49,0,59
1,49,90,1
1,54,0,59
1,49,0,0
1,54,90,1
1,49,90,0
1,54,0,59
1,49,0,0
1,54,90,1
1,49,90,0
1,54,0,59
1,49,0,0
1,54,90,1
1,49,90,0
1,49,0,59
1,49,90,1
1,54,0,59
1,49,0,0
1,54,90,1
1,49,90,0
1,42,0,59
1,54,0,0
1,49,0,0
1,54,90,1
1,49,90,0
1,54,0,59
1,49,0,0
1,54,90,1
1,47,90,0
1,59,90,0
1,54,0,59
1,59,0,0
1,59,90,1
1,54,90,0
1,59,0,59
1,54,0,0
1,54,90,1
1,59,90,0
1,54,0,59
1,59,0,0
1,59,90,1
1,54,90,0
1,59,0,59
1,54,0,0
1,59,90,1
1,54,90,0
1,59,0,59
1,54,0,0
1,54,90,1
1,59,90,0
1,54,0,59
1,59,0,0
1,59,90,1
1,54,90,0
1,47,0,59
1,59,0,0
1,54,0,0
1,54,90,1
1,54,0,59
1,44,90,1
1,56,90,0
1,51,90,0
1,56,0,59
1,51,0,0
1,56,90,1
1,51,90,0
1,56,0,59
1,51,0,0
1,56,90,1
1,51,90,0
1,56,0,59
1,51,0,0
1,51,90,1
1,56,90,0
1,51,0,59
1,56,0,0
1,51,90,1
1,56,90,0
1,51,0,59
1,56,0,0
1,56,90,1
1,51,90,0
1,56,0,59
1,51,0,0
1,56,90,1
1,51,90,0
1,44,0,59
1,56,0,0
1,51,0,0
1,56,90,1
1,51,90,0
1,56,0,59
1,51,0,0
1,54,90,1
1,47,90,0
1,59,90,0
1,54,0,59
1,59,0,0
1,54,90,1
1,59,90,0
1,54,0,59
1,59,0,0
1,59,90,1
1,54,90,0
1,59,0,59
1,54,0,0
1,59,90,1
1,54,90,0
1,59,0,59
1,54,0,0
1,54,90,1
1,59,90,0
1,54,0,59
1,59,0,0
1,54,90,1
1,59,90,0
1,54,0,59
1,59,0,0
1,59,90,1
1,54,90,0
1,47,0,59
1,59,0,0
1,54,0,0
1,54,90,1
1,59,90,0
1,54,0,59
1,59,0,0
1,44,90,1
1,56,90,0
1,51,90,0
1,56,0,59
1,51,0,0
1,56,90,1
1,51,90,0
1,56,0,59
1,51,0,0
1,56,90,1
1,51,90,0
1,56,0,59
1,51,0,0
1,56,90,1
1,51,90,0
1,56,0,59
1,51,0,0
1,56,90,1
1,51,90,0
1,56,0,59
1,51,0,0
1,56,90,1
1,51,90,0
1,56,0,59
1,51,0,0
1,56,90,1
1,51,90,0
1,56,0,59
1,51,0,0
1,56,90,1
1,51,90,0
1,44,0,59
1,56,0,0
1,51,0,0
1,54,90,1
1,47,90,0
1,59,90,0
1,54,0,239
1,47,0,0
1,59,0,0
1,47,90,1
1,54,90,0
1,59,90,0
1,47,0,59
1,54,0,0
1,59,0,0
1,42,90,181
1,49,90,0
1,54,90,0
1,49,0,29
1,54,0,0
1,54,90,31
1,49,90,0
1,54,0,29
1,49,0,0
1,54,90,31
1,49,90,0
1,54,0,29
1,49,0,0
1,54,90,31
1,49,90,0
1,42,0,29
1,54,0,0
1,49,0,0
1,49,90,31
1,61,90,0
1,56,90,0
1,61,0,29
1,56,0,0
1,61,90,31
1,56,90,0
1,61,0,29
1,56,0,0
1,61,90,31
1,56,90,0
1,61,0,29
1,56,0,0
1,61,90,31
1,56,90,0
1,49,0,29
1,61,0,0
1,56,0,0
1,47,90,31
1,54,90,0
1,59,90,0
1,54,0,29
1,59,0,0
1,54,90,31
1,59,90,0
1,54,0,29
1,59,0,0
1,59,90,31
1,54,90,0
1,59,0,29
1,54,0,0
1,54,90,31
1,59,90,0
1,54,0,29
1,59,0,0
1,59,90,31
1,54,90,0
1,59,0,29
1,54,0,0
1,59,90,31
1,54,90,0
1,59,0,29
1,54,0,0
1,54,90,31
1,59,90,0
1,54,0,29
1,59,0,0
1,54,90,31
1,59,90,0
1,47,0,29
1,54,0,0
1,59,0,0
1,42,90,31
1,49,90,0
1,54,90,0
1,49,0,29
1,54,0,0
1,54,90,31
1,49,90,0
1,54,0,29
1,49,0,0
1,54,90,31
1,49,90,0
1,54,0,29
1,49,0,0
1,54,90,31
1,49,90,0
1,42,0,29
1,54,0,0
1,49,0,0
1,49,90,31
1,61,90,0
1,56,90,0
1,61,0,29
1,56,0,0
1,61,90,31
1,56,90,0
1,61,0,29
1,56,0,0
1,61,90,31
1,56,90,0
1,61,0,29
1,56,0,0
1,61,90,31
1,56,90,0
1,49,0,29
1,61,0,0
1,56,0,0
1,47,90,31
1,54,90,0
1,59,90,0
1,54,0,29
1,59,0,0
1,54,90,31
1,59,90,0
1,54,0,29
1,59,0,0
1,59,90,31
1,54,90,0
1,59,0,29
1,54,0,0
1,54,90,31
1,59,90,0
1,54,0,29
1,59,0,0
1,59,90,31
1,54,90,0
1,59,0,29
1,54,0,0
1,59,90,31
1,54,90,0
1,59,0,29
1,54,0,0
1,54,90,31
1,59,90,0
1,54,0,29
1,59,0,0
1,54,90,31
1,59,90,0
1,47,0,29
1,54,0,0
1,59,0,0
1,49,90,3871
1,61,90,0
1,56,90,0
1,49,0,59
1,61,0,0
1,56,0,0
1,49,90,1
1,61,90,0
1,56,90,0
1,49,0,59
1,61,0,0
1,56,0,0
1,49,90,1
1,61,90,0
1,56,90,0
1,49,0,59
1,61,0,0
1,56,0,0
1,49,90,1
1,61,90,0
1,56,90,0
1,49,0,59
1,61,0,0
1,56,0,0
1,49,90,1
1,61,90,0
1,56,90,0
1,56,0,59
1,56,90,1
1,49,0,59
1,61,0,0
1,56,0,0
1,49,90,1
1,61,90,0
1,56,90,0
1,61,0,59
1,56,0,0
1,61,90,1
1,56,90,0
1,49,0,59
1,61,0,0
1,56,0,0
1,54,90,1
1,47,90,0
1,59,90,0
1,54,0,59
1,54,90,1
1,59,0,59
1,54,0,0
1,54,90,1
1,59,90,0
1,54,0,59
1,59,0,0
1,59,90,1
1,54,90,0
1,59,0,59
1,54,0,0
1,54,90,1
1,59,90,0
1,54,0,59
1,59,0,0
1,59,90,1
1,54,90,0
1,59,0,59
1,54,0,0
1,59,90,1
1,54,90,0
1,47,0,59
1,59,0,0
1,54,0,0
1,54,90,1
1,59,90,0
1,54,0,59
1,59,0,0
1,42,90,1
1,54,90,0
1,49,90,0
1,42,0,59
1,54,0,0
1,49,0,0
1,42,90,1
1,54,90,0
1,49,90,0
1,54,0,59
1,49,0,0
1,54,90,1
1,49,90,0
1,54,0,59
1,49,0,0
1,54,90,1
1,49,90,0
1,54,0,59
1,49,0,0
1,54,90,1
1,49,90,0
1,54,0,59
1,49,0,0
1,54,90,1
1,49,90,0
1,54,0,59
1,49,0,0
1,54,90,1
1,49,90,0
1,54,0,59
1,49,0,0
1,54,90,1
1,49,90,0
1,42,0,59
1,54,0,0
1,49,0,0
1,40,90,1
1,52,90,0
1,47,90,0
1,40,0,419
1,52,0,0
1,47,0,0
1,40,90,61
1,52,90,0
1,47,90,0
1,40,0,419
1,52,0,0
1,47,0,0
1,40,90,61
1,52,90,0
1,47,90,0
1,40,0,359
1,47,0,0
1,52,0,60
1,42,90,61
1,54,90,0
1,49,90,0
1,54,0,119
1,49,0,0
1,54,90,1
1,49,90,0
1,54,0,59
1,49,0,0
1,54,90,1
1,49,90,0
1,54,0,59
1,49,0,0
1,54,90,1
1,49,90,0
1,54,0,59
1,49,0,0
1,54,90,1
1,49,90,0
1,54,0,59
1,49,0,0
1,54,90,1
1,49,90,0
1,54,0,59
1,49,0,0
1,54,90,1
1,49,90,0
1,42,0,59
1,54,0,0
1,49,0,0
1,54,90,1
1,47,90,0
1,59,90,0
1,54,0,59
1,59,0,0
1,54,90,1
1,54,0,59
1,54,90,1
1,59,90,0
1,54,0,59
1,59,0,0
1,59,90,1
1,54,90,0
1,59,0,59
1,54,0,0
1,59,90,1
1,54,90,0
1,59,0,59
1,54,0,0
1,59,90,1
1,54,90,0
1,59,0,59
1,54,0,0
1,59,90,1
1,54,90,0
1,47,0,59
1,59,0,0
1,54,0,0
1,54,90,1
1,54,0,59
1,42,90,1
1,54,90,0
1,49,90,0
1,49,0,59
1,49,90,1
1,54,0,59
1,49,0,0
1,54,90,1
1,49,90,0
1,54,0,59
1,49,0,0
1,54,90,1
1,49,90,0
1,54,0,59
1,49,0,0
1,54,90,1
1,49,90,0
1,49,0,59
1,49,90,1
1,54,0,59
1,49,0,0
1,54,90,1
1,49,90,0
1,42,0,59
1,54,0,0
1,49,0,0
1,54,90,1
1,49,90,0
