track,note,velocity,time
1,60,56,0
1,57,56,32
1,53,56,32
1,58,56,12
1,60,56,20
1,60,48,40
1,65,48,0
1,67,48,20
1,65,48,24
1,69,48,764
1,62,48,24
1,65,48,0
1,64,48,16
1,67,48,4
1,60,48,20
1,65,48,0
1,60,48,792
1,65,48,0
1,67,48,24
1,60,48,20
1,65,48,0
1,69,48,20
1,62,48,20
1,65,48,0
1,64,48,16
1,67,48,0
1,65,48,20
1,69,48,0
1,67,48,228
1,62,48,568
1,70,48,196
1,67,48,28
1,64,48,568
1,72,48,192
1,67,48,20
1,62,48,576
1,70,48,192
1,67,48,28
1,64,48,568
1,72,48,192
1,41,68,20
1,69,68,4
1,72,68,0
1,77,68,0
1,41,68,32
1,53,68,32
1,53,68,36
1,41,68,32
1,53,68,32
1,41,68,36
1,53,68,32
1,53,68,32
1,41,68,36
1,53,68,32
1,41,68,4
1,53,68,32
1,69,68,4
1,72,68,0
1,77,68,0
1,43,68,36
1,70,68,4
1,74,68,0
1,79,68,0
1,55,68,36
1,55,68,32
1,43,68,32
1,55,68,36
1,43,68,28
1,70,68,0
1,74,68,0
1,79,68,4
1,55,68,32
1,43,68,32
1,55,68,36
1,43,68,28
1,70,68,4
1,74,68,0
1,79,68,0
1,55,68,32
1,55,68,28
1,43,68,36
1,55,68,32
1,43,68,28
1,70,68,0
1,74,68,4
1,79,68,0
1,55,68,32
1,55,68,32
1,43,68,32
1,55,68,36
1,55,68,32
1,43,68,32
1,70,68,0
1,74,68,0
1,79,68,4
1,55,68,36
1,55,68,32
1,43,68,32
1,55,68,32
1,41,68,28
1,69,68,4
1,72,68,0
1,77,68,0
1,53,68,36
1,53,68,28
1,41,68,36
1,53,68,32
1,53,68,32
1,41,68,36
1,53,68,32
1,53,68,28
1,41,68,32
1,53,68,32
1,41,68,32
1,69,68,4
1,72,68,0
1,75,68,0
1,77,68,4
1,53,68,36
1,53,68,32
1,41,68,32
1,53,68,36
1,53,68,32
1,41,68,32
1,53,68,32
1,41,68,32
1,53,68,36
1,53,68,24
1,46,68,32
1,65,68,4
1,70,68,0
1,74,68,0
1,58,68,32
1,46,68,32
1,46,68,36
1,58,68,32
1,46,68,32
1,46,68,32
1,58,68,32
1,58,68,32
1,46,68,36
1,58,68,36
1,46,68,32
1,43,68,32
1,67,68,4
1,71,68,0
1,77,68,0
1,55,68,36
1,55,68,32
1,43,68,36
1,55,68,36
1,55,68,36
1,43,68,32
1,55,68,36
1,43,68,32
1,55,68,4
1,43,68,32
1,55,68,0
1,48,68,40
1,64,68,0
1,67,68,0
1,70,68,4
1,72,68,0
1,60,68,8
1,48,68,32
1,64,68,0
1,67,68,0
1,70,68,4
1,72,68,0
1,41,68,8
1,69,68,0
1,72,68,0
1,77,68,4
1,41,68,32
1,53,68,36
1,53,68,36
1,41,68,36
1,53,68,32
1,41,68,36
1,53,68,32
1,53,68,32
1,41,68,32
1,53,68,32
1,41,68,4
1,53,68,36
1,69,68,4
1,72,68,0
1,77,68,0
1,43,68,32
1,70,68,4
1,74,68,0
1,79,68,0
1,55,68,36
1,55,68,32
1,43,68,32
1,55,68,32
1,43,68,28
1,70,68,0
1,74,68,0
1,79,68,4
1,55,68,32
1,43,68,36
1,55,68,32
1,43,68,28
1,70,68,4
1,74,68,0
1,79,68,0
1,55,68,32
1,55,68,28
1,43,68,32
1,55,68,32
1,43,68,32
1,70,68,0
1,74,68,0
1,79,68,4
1,55,68,36
1,55,68,32
1,43,68,32
1,55,68,36
1,55,68,32
1,43,68,28
1,70,68,0
1,74,68,0
1,79,68,4
1,55,68,32
1,55,68,36
1,43,68,32
1,55,68,36
1,41,68,28
1,69,68,4
1,72,68,0
1,77,68,0
1,53,68,32
1,53,68,28
1,41,68,36
1,53,68,32
1,53,68,32
1,41,68,32
1,53,68,32
1,53,68,32
1,41,68,36
1,53,68,36
1,41,68,32
1,69,68,4
1,72,68,0
1,75,68,0
1,77,68,4
1,53,68,36
1,53,68,32
1,41,68,32
1,53,68,32
1,53,68,36
1,41,68,32
1,53,68,36
1,41,68,36
1,53,68,32
1,53,68,28
1,46,68,36
1,65,68,4
1,70,68,0
1,74,68,0
1,58,68,32
1,46,68,28
1,46,68,32
1,58,68,32
1,46,68,32
1,46,68,36
1,58,68,36
1,58,68,32
1,46,68,32
1,58,68,36
1,46,68,32
1,43,68,36
1,67,68,0
1,71,68,0
1,77,68,0
1,55,68,32
1,55,68,36
1,43,68,36
1,55,68,40
1,55,68,36
1,43,68,36
1,55,68,32
1,43,68,28
1,55,68,4
1,43,68,32
1,55,68,4
1,48,68,36
1,64,68,0
1,67,68,0
1,70,68,4
1,72,68,0
1,60,68,12
1,48,68,32
1,64,68,0
1,67,68,0
1,70,68,0
1,72,68,4
1,60,48,8
1,65,48,0
1,67,48,20
1,65,48,24
1,69,48,768
1,62,48,24
1,65,48,0
1,64,48,16
1,67,48,4
1,60,48,20
1,65,48,0
1,60,48,792
1,65,48,0
1,67,48,24
1,60,48,20
1,65,48,0
1,69,48,20
1,62,48,20
1,65,48,0
1,64,48,16
1,67,48,0
1,65,48,20
1,69,48,0
1,67,48,228
1,62,48,572
1,70,48,192
1,67,48,24
1,64,48,572
1,72,48,192
1,67,48,24
1,62,48,572
1,70,48,192
1,67,48,28
1,64,48,568
1,72,48,188
1,41,68,20
1,69,68,4
1,72,68,0
1,77,68,0
1,41,68,32
1,53,68,36
1,53,68,36
1,41,68,32
1,53,68,32
1,41,68,36
1,53,68,32
1,53,68,32
1,41,68,32
1,53,68,32
1,41,68,4
1,53,68,32
1,69,68,4
1,72,68,0
1,77,68,0
1,43,68,32
1,70,68,4
1,74,68,0
1,79,68,0
1,55,68,36
1,55,68,32
1,43,68,32
1,55,68,32
1,43,68,28
1,70,68,0
1,74,68,0
1,79,68,4
1,55,68,32
1,43,68,32
1,55,68,32
1,43,68,28
1,70,68,4
1,74,68,0
1,79,68,0
1,55,68,32
1,55,68,28
1,43,68,32
1,55,68,32
1,43,68,32
1,70,68,0
1,74,68,0
1,79,68,4
1,55,68,32
1,55,68,32
1,43,68,32
1,55,68,36
1,55,68,32
1,43,68,28
1,70,68,0
1,74,68,0
1,79,68,4
1,55,68,36
1,55,68,36
1,43,68,32
1,55,68,36
1,41,68,28
1,69,68,4
1,72,68,0
1,77,68,0
1,53,68,32
1,53,68,32
1,41,68,36
1,53,68,32
1,53,68,28
1,41,68,36
1,53,68,32
1,53,68,32
1,41,68,36
1,53,68,32
1,41,68,28
1,69,68,4
1,72,68,0
1,75,68,0
1,77,68,4
1,53,68,36
1,53,68,32
1,41,68,32
1,53,68,36
1,53,68,36
1,41,68,32
1,53,68,36
1,41,68,32
1,53,68,32
1,53,68,24
1,46,68,36
1,65,68,4
1,70,68,0
1,74,68,0
1,58,68,32
1,46,68,28
1,46,68,36
1,58,68,32
1,46,68,32
1,46,68,36
1,58,68,32
1,58,68,32
1,46,68,32
1,58,68,36
1,46,68,28
1,43,68,36
1,67,68,0
1,71,68,0
1,77,68,0
1,55,68,36
1,55,68,36
1,43,68,36
1,55,68,40
1,55,68,36
1,43,68,32
1,55,68,36
1,43,68,32
1,55,68,4
1,43,68,32
1,55,68,4
1,48,68,40
1,64,68,0
1,67,68,0
1,70,68,4
1,72,68,0
1,60,68,12
1,48,68,32
1,64,68,0
1,67,68,0
1,70,68,0
1,72,68,4
1,41,68,8
1,69,68,0
1,72,68,0
1,77,68,4
1,41,68,32
1,53,68,32
1,53,68,36
1,41,68,36
1,53,68,32
1,41,68,36
1,53,68,32
1,53,68,32
1,41,68,36
1,53,68,32
1,41,68,4
1,53,68,36
1,69,68,4
1,72,68,0
1,77,68,0
1,43,68,32
1,70,68,0
1,74,68,4
1,79,68,0
1,55,68,36
1,55,68,36
1,43,68,32
1,55,68,36
1,43,68,28
1,70,68,0
1,74,68,0
1,79,68,4
1,55,68,32
1,43,68,36
1,55,68,32
1,43,68,28
1,70,68,4
1,74,68,0
1,79,68,0
1,55,68,32
1,55,68,32
1,43,68,36
1,55,68,32
1,43,68,28
1,70,68,0
1,74,68,0
1,79,68,4
1,55,68,36
1,55,68,32
1,43,68,32
1,55,68,36
1,55,68,36
1,43,68,28
1,70,68,0
1,74,68,0
1,79,68,4
1,55,68,36
1,55,68,36
1,43,68,32
1,55,68,32
1,41,68,28
1,69,68,4
1,72,68,0
1,77,68,0
1,53,68,32
1,53,68,32
1,41,68,36
1,53,68,32
1,53,68,28
1,41,68,36
1,53,68,32
1,53,68,32
1,41,68,32
1,53,68,36
1,41,68,28
1,69,68,0
1,72,68,4
1,75,68,0
1,77,68,0
1,53,68,36
1,53,68,36
1,41,68,32
1,53,68,36
1,53,68,36
1,41,68,32
1,53,68,32
1,41,68,36
1,53,68,32
1,53,68,24
1,46,68,36
1,65,68,4
1,70,68,0
1,74,68,0
1,58,68,32
1,46,68,32
1,46,68,36
1,58,68,32
1,46,68,32
1,46,68,32
1,58,68,36
1,58,68,32
1,46,68,32
1,58,68,36
1,46,68,32
1,43,68,36
1,67,68,0
1,71,68,0
1,77,68,4
1,55,68,36
1,55,68,36
1,43,68,36
1,55,68,36
1,55,68,36
1,43,68,36
1,55,68,36
1,43,68,28
1,55,68,4
1,43,68,32
1,55,68,4
1,48,68,36
1,64,68,4
1,67,68,0
1,70,68,0
1,72,68,4
1,60,68,8
1,48,68,32
1,64,68,0
1,67,68,0
1,70,68,0
1,72,68,4
1,41,68,8
1,69,68,0
1,72,68,0
1,77,68,4
1,41,68,36
1,53,68,32
1,53,68,32
1,41,68,36
1,53,68,32
1,41,68,36
1,53,68,32
1,53,68,32
1,41,68,32
1,53,68,36
1,41,68,0
1,53,68,36
1,69,68,4
1,72,68,0
1,77,68,0
1,43,68,32
1,70,68,4
1,74,68,0
1,79,68,0
1,55,68,36
1,55,68,36
1,43,68,32
1,55,68,32
1,43,68,28
1,70,68,0
1,74,68,4
1,79,68,0
1,55,68,32
1,43,68,36
1,55,68,32
1,43,68,32
1,70,68,4
1,74,68,0
1,79,68,0
1,55,68,32
1,55,68,32
1,43,68,32
1,55,68,36
1,43,68,28
1,70,68,0
1,74,68,0
1,79,68,4
1,55,68,36
1,55,68,32
1,43,68,32
1,55,68,36
1,55,68,36
1,43,68,28
1,70,68,0
1,74,68,0
1,79,68,4
1,55,68,32
1,55,68,32
1,43,68,36
1,55,68,32
1,41,68,28
1,69,68,4
1,72,68,0
1,77,68,0
1,53,68,32
1,53,68,32
1,41,68,36
1,53,68,32
1,53,68,28
1,41,68,32
1,53,68,36
1,53,68,32
1,41,68,32
1,53,68,36
1,41,68,28
1,69,68,4
1,72,68,0
1,75,68,0
1,77,68,0
1,53,68,36
1,53,68,36
1,41,68,32
1,53,68,32
1,53,68,36
1,41,68,36
1,53,68,32
1,41,68,36
1,53,68,32
1,53,68,28
1,46,68,36
1,65,68,0
1,70,68,4
1,74,68,0
1,58,68,32
1,46,68,32
1,46,68,32
1,58,68,36
1,46,68,32
1,46,68,32
1,58,68,36
1,58,68,32
1,46,68,32
1,58,68,36
1,46,68,36
1,43,68,36
1,67,68,0
1,71,68,0
1,77,68,4
1,55,68,32
1,55,68,36
1,43,68,36
1,55,68,32
1,55,68,32
1,43,68,36
1,55,68,36
1,43,68,32
1,55,68,0
1,43,68,32
1,55,68,4
1,48,68,32
1,64,68,4
1,67,68,0
1,70,68,0
1,72,68,4
1,60,68,8
1,48,68,32
1,64,68,0
1,67,68,0
1,70,68,4
1,72,68,0
2,53,81,0
2,52,81,16
2,50,81,20
2,48,81,16
2,46,81,20
2,48,81,24
2,41,81,20
2,41,81,104
2,41,81,96
2,41,81,8
2,53,76,16
2,52,76,16
2,50,76,20
2,48,76,24
2,46,76,20
2,48,76,20
2,41,76,20
2,41,76,104
2,41,76,96
2,53,76,24
2,52,76,20
2,50,76,24
2,48,76,16
2,46,76,20
2,48,76,20
2,41,76,24
2,41,76,100
2,41,76,100
2,41,76,100
2,41,76,100
2,41,76,100
2,41,76,104
2,41,76,100
2,43,76,12
2,43,76,104
2,43,76,100
2,43,76,100
2,43,76,100
2,43,76,100
2,43,76,100
2,43,76,112
2,48,76,16
2,48,76,104
2,48,76,100
2,48,76,100
2,48,76,100
2,48,76,100
2,48,76,100
2,48,76,104
2,43,76,12
2,43,76,100
2,43,76,100
2,43,76,100
2,43,76,100
2,43,76,100
2,43,76,100
2,43,76,104
2,48,76,108
2,48,76,100
2,43,76,100
2,43,76,100
2,48,76,100
2,46,76,8
2,45,76,100
2,43,76,100
2,41,86,112
2,41,86,152
2,41,86,152
2,41,86,152
2,41,86,148
2,41,86,148
2,41,86,152
2,41,86,152
2,41,86,152
2,41,86,148
2,41,86,148
2,41,86,156
2,43,86,156
2,43,86,152
2,43,86,148
2,43,86,152
2,43,86,160
2,43,86,156
2,43,86,152
2,43,86,152
2,43,86,156
2,43,86,148
2,43,86,152
2,43,86,152
2,43,86,152
2,43,86,148
2,43,86,152
2,43,86,152
2,43,86,152
2,43,86,148
2,43,86,148
2,43,86,152
2,41,86,156
2,41,86,152
2,41,86,148
2,41,86,152
2,41,86,152
2,41,86,152
2,41,86,156
2,41,86,152
2,41,86,164
2,41,86,148
2,41,86,152
2,41,86,152
2,41,86,148
2,41,86,152
2,48,86,148
2,52,86,4
2,53,86,8
2,46,86,112
2,46,86,152
2,46,86,152
2,46,86,152
2,46,86,148
2,46,86,152
2,50,86,148
2,52,86,4
2,53,86,8
2,43,86,112
2,43,86,156
2,43,86,152
2,43,86,152
2,43,86,152
2,43,86,152
2,50,86,152
2,52,86,4
2,53,86,8
2,48,86,112
2,48,86,156
2,48,86,152
2,48,86,152
2,48,86,156
2,48,86,152
2,48,86,148
2,48,86,152
2,41,86,164
2,41,86,152
2,41,86,152
2,41,86,152
2,41,86,148
2,41,86,148
2,41,86,152
2,41,86,152
2,41,86,148
2,41,86,148
2,41,86,148
2,41,86,156
2,43,86,156
2,43,86,156
2,43,86,148
2,43,86,152
2,43,86,156
2,43,86,156
2,43,86,152
2,43,86,152
2,43,86,160
2,43,86,148
2,43,86,152
2,43,86,152
2,43,86,152
2,43,86,148
2,43,86,152
2,43,86,152
2,43,86,152
2,43,86,148
2,43,86,148
2,43,86,152
2,41,86,156
2,41,86,152
2,41,86,148
2,41,86,156
2,41,86,156
2,41,86,152
2,41,86,156
2,41,86,152
2,41,86,164
2,41,86,152
2,41,86,152
2,41,86,152
2,41,86,148
2,41,86,152
2,48,86,148
2,52,86,4
2,53,86,8
2,46,86,112
2,46,86,152
2,46,86,152
2,46,86,152
2,46,86,148
2,46,86,152
2,50,86,148
2,52,86,4
2,53,86,8
2,43,86,112
2,43,86,156
2,43,86,152
2,43,86,152
2,43,86,152
2,43,86,152
2,50,86,152
2,52,86,4
2,53,86,8
2,48,86,112
2,48,86,152
2,48,86,152
2,48,86,152
2,48,86,156
2,48,86,156
2,48,86,152
2,48,86,152
2,53,76,160
2,52,76,16
2,50,76,24
2,48,76,24
2,46,76,20
2,48,76,20
2,41,76,24
2,41,76,104
2,41,76,96
2,53,76,24
2,52,76,24
2,50,76,20
2,48,76,16
2,46,76,20
2,48,76,20
2,41,76,20
2,41,76,96
2,41,76,100
2,41,76,100
2,41,76,100
2,41,76,100
2,41,76,104
2,41,76,100
2,43,76,16
2,43,76,100
2,43,76,96
2,43,76,100
2,43,76,100
2,43,76,100
2,43,76,100
2,43,76,112
2,48,76,16
2,48,76,104
2,48,76,100
2,48,76,100
2,48,76,100
2,48,76,100
2,48,76,100
2,48,76,104
2,43,76,12
2,43,76,100
2,43,76,100
2,43,76,100
2,43,76,100
2,43,76,100
2,43,76,100
2,43,76,104
2,48,76,108
2,48,76,100
2,43,76,104
2,43,76,100
2,48,76,100
2,46,76,4
2,45,76,96
2,43,76,104
2,41,86,112
2,41,86,152
2,41,86,152
2,41,86,152
2,41,86,148
2,41,86,148
2,41,86,152
2,41,86,152
2,41,86,148
2,41,86,148
