track,note,velocity,time
0,49,81,1893
0,35,127,0
0,33,110,0
0,67,100,0
0,45,100,0
0,71,100,0
0,62,100,0
0,83,83,3
0,37,107,137
0,35,93,102
0,42,71,102
0,35,101,102
0,42,109,102
0,81,87,102
0,35,73,0
0,67,100,9
0,58,100,0
0,63,100,0
0,42,89,0
0,41,100,0
0,29,110,0
0,35,115,0
0,79,75,6
0,82,83,63
0,37,123,96
0,79,83,6
0,35,99,96
0,42,80,102
0,35,111,102
0,75,79,11
0,42,103,0
0,35,63,33
0,77,88,0
0,65,100,3
0,43,100,0
0,31,110,0
0,60,100,0
0,42,83,0
0,35,125,0
0,69,100,0
0,79,72,6
0,74,90,73
0,37,107,96
0,35,100,102
0,81,93,61
0,42,79,0
0,35,112,102
0,49,59,64
0,42,97,38
0,49,63,38
0,35,87,64
0,35,111,102
0,42,84,0
0,49,64,0
0,49,74,166
0,37,119,38
0,49,58,38
0,35,96,64
0,49,66,102
0,42,60,0
0,35,115,102
0,49,59,64
0,42,123,38
0,49,75,38
0,35,89,49
0,74,96,0
0,62,100,9
0,74,95,0
0,67,100,0
0,71,100,0
0,33,110,0
0,35,116,0
0,45,100,0
0,42,74,0
0,37,117,294
0,35,92,75
0,83,87,0
0,42,75,102
0,35,123,102
0,42,114,102
0,31,110,33
0,35,83,0
0,63,100,9
0,70,100,0
0,29,110,0
0,42,97,0
0,41,100,0
0,35,127,0
0,75,91,0
0,37,109,294
0,42,80,0
0,35,113,67
0,82,103,0
0,42,74,102
0,35,116,102
0,42,117,102
0,35,79,102
0,35,127,7
0,31,110,0
0,60,100,0
0,42,58,0
0,65,100,0
0,69,100,0
0,43,100,0
0,72,93,0
0,37,115,294
0,79,91,91
0,35,101,0
0,42,67,102
0,35,116,102
0,49,67,64
0,42,115,38
0,49,70,38
0,35,87,64
0,35,116,102
0,42,66,0
0,49,59,0
0,49,64,166
0,37,117,38
0,49,55,38
0,35,104,64
0,49,69,102
0,42,54,0
0,35,115,102
0,49,56,64
0,42,121,38
0,49,72,38
0,35,80,43
0,62,100,9
0,67,100,0
0,45,100,0
0,83,101,0
0,71,100,0
0,33,110,0
0,49,81,0
0,35,127,0
0,37,107,15
0,35,93,5
0,42,71,102
0,35,101,102
0,42,109,102
0,35,73,102
0,81,89,0
0,35,115,9
0,67,100,0
0,63,100,0
0,41,100,0
0,29,110,0
0,58,100,0
0,42,89,0
0,79,91,0
0,82,89,61
0,37,123,96
0,35,99,71
0,79,82,0
0,42,80,102
0,75,79,31
0,35,111,0
0,42,103,102
0,35,63,93
0,77,87,0
0,43,100,3
0,79,85,0
0,49,94,0
0,35,127,0
0,60,100,0
0,69,100,0
0,65,100,0
0,31,110,0
0,74,85,87
0,51,79,96
0,35,98,39
0,74,83,0
0,51,68,102
0,35,67,102
0,48,69,102
0,35,64,0
0,35,79,67
0,62,52,0
0,48,78,0
0,63,50,102
0,48,92,0
0,35,96,0
0,63,55,0
0,63,59,6
0,63,59,6
0,45,104,1
0,35,94,0
0,63,72,0
0,63,81,6
0,63,77,6
0,63,81,6
0,63,71,6
0,35,109,0
0,45,123,0
0,63,83,6
0,63,76,6
0,63,91,6
0,65,120,40
0,63,92,6
0,35,123,0
0,41,120,0
0,63,112,6
0,63,119,6
0,63,122,6
0,63,125,1
0,35,122,0
0,77,120,0
0,41,127,0
0,63,119,6
0,63,117,1
0,63,125,6
0,38,118,6
0,41,127,0
0,35,122,0
0,63,113,0
0,63,122,6
0,76,120,2
0,63,122,4
0,63,124,6
0,38,127,6
0,41,122,0
0,63,122,0
0,35,127,0
0,63,124,6
0,63,125,6
0,74,120,12
0,63,112,6
0,38,127,6
0,63,116,0
0,41,127,0
0,35,127,0
0,72,120,15
0,63,109,6
0,63,97,6
0,49,115,7
0,62,127,0
0,38,127,0
0,26,110,0
0,50,127,0
0,38,120,0
0,35,127,0
0,57,127,0
0,74,120,37
0,42,121,21
0,38,127,0
0,38,110,0
0,62,110,0
0,54,124,0
0,50,125,0
0,38,127,1
0,26,110,15
0,42,87,0
0,35,87,0
0,50,127,0
0,26,110,7
0,35,84,0
0,57,127,0
0,50,127,0
0,62,127,0
0,54,127,1
0,63,122,0
0,42,125,0
0,38,127,0
0,38,110,0
0,38,127,0
0,62,127,23
0,26,110,0
0,50,127,0
0,57,127,0
0,63,117,0
0,35,88,0
0,42,109,3
0,38,122,0
0,35,116,0
0,50,127,102
0,38,127,17
0,54,127,0
0,50,127,0
0,42,125,0
0,62,123,0
0,38,110,0
0,57,127,0
0,65,120,37
0,26,110,2
0,38,127,0
0,53,127,9
0,60,127,0
0,31,110,0
0,35,100,0
0,43,127,0
0,42,109,0
0,57,127,0
0,31,120,0
0,77,120,21
0,35,74,51
0,76,120,28
0,53,127,29
0,54,127,0
0,63,127,0
0,38,125,0
0,31,110,0
0,42,107,0
0,74,120,5
0,43,127,5
0,63,127,0
0,35,87,0
0,46,84,0
0,72,120,7
0,38,127,7
0,50,127,0
0,35,125,0
0,42,84,0
0,57,127,0
0,62,127,0
0,38,120,0
0,26,110,0
0,69,120,15
0,38,127,9
0,42,119,0
0,54,124,0
0,62,119,0
0,38,110,0
0,50,123,0
0,26,110,21
0,38,127,0
0,26,110,9
0,35,99,0
0,42,115,0
0,50,127,0
0,35,87,3
0,57,127,0
0,50,127,0
0,62,127,0
0,54,124,29
0,63,127,0
0,38,110,0
0,38,127,0
0,38,127,0
0,42,125,0
0,26,110,41
0,35,85,0
0,50,127,0
0,62,127,0
0,63,127,0
0,57,127,0
0,35,123,102
0,42,107,0
0,38,127,99
0,50,127,5
0,54,127,0
0,62,118,0
0,38,127,0
0,42,121,0
0,38,110,0
0,26,110,33
0,38,127,0
0,69,120,14
0,53,127,7
0,35,93,0
0,42,117,0
0,57,127,0
0,31,110,0
0,31,120,0
0,60,127,0
0,43,127,0
0,77,120,38
0,55,100,5
0,62,100,0
0,35,93,27
0,64,104,0
0,76,120,6
0,54,127,59
0,31,110,0
0,63,124,0
0,42,121,0
0,53,117,0
0,38,127,0
0,74,120,22
0,46,88,15
0,35,107,0
0,63,125,0
0,43,127,0
0,72,120,3
0,49,115,7
0,55,127,0
0,24,110,0
0,67,127,0
0,35,127,0
0,36,120,0
0,60,127,0
0,36,127,0
0,55,100,0
0,48,100,0
0,60,100,0
0,72,120,35
0,38,127,113
0,36,110,0
0,55,114,0
0,62,110,0
0,54,127,0
0,42,121,0
0,36,127,21
0,24,110,0
0,42,87,9
0,35,87,0
0,24,110,0
0,55,119,0
0,55,116,33
0,35,84,0
0,60,127,0
0,55,124,5
0,54,127,0
0,36,110,0
0,63,122,0
0,38,127,0
0,42,125,0
0,72,120,1
0,45,100,3
0,62,100,0
0,45,127,0
0,62,127,0
0,57,100,0
0,35,88,0
0,33,120,0
0,33,110,0
0,63,117,0
0,57,127,0
0,69,120,23
0,35,116,21
0,42,109,0
0,57,114,75
0,54,125,61
0,62,123,0
0,38,127,0
0,45,127,0
0,42,125,0
0,28,110,35
0,69,120,10
0,61,127,1
0,61,100,0
0,57,127,0
0,33,110,0
0,42,109,0
0,35,100,0
0,77,120,26
0,45,127,25
0,35,74,0
0,76,120,57
0,57,109,43
0,38,125,0
0,42,107,0
0,33,110,0
0,54,127,0
0,63,127,0
0,74,120,22
0,63,127,13
0,35,87,0
0,46,84,0
0,45,127,0
0,28,110,0
0,72,120,3
0,43,100,9
0,55,100,0
0,35,127,0
0,55,127,0
0,60,100,0
0,43,127,0
0,62,127,0
0,31,110,0
0,49,107,0
0,31,120,0
0,74,120,19
0,76,120,18
0,74,120,45
0,54,127,55
0,62,119,0
0,60,118,0
0,38,118,0
0,42,107,0
0,62,100,19
0,35,61,0
0,43,127,0
0,55,120,0
0,31,110,0
0,55,125,9
0,42,103,0
0,35,92,0
0,67,109,0
0,67,127,15
0,62,127,0
0,55,127,0
0,38,83,0
0,54,125,19
0,63,127,0
0,43,127,0
0,35,74,0
0,68,120,0
0,65,120,43
0,43,127,4
0,31,110,0
0,62,127,0
0,63,127,0
0,67,100,0
0,35,90,0
0,48,77,0
0,55,127,0
0,67,127,0
0,43,127,102
0,35,83,0
0,48,74,0
0,67,127,45
0,35,101,0
0,48,83,0
0,31,110,0
0,55,127,0
0,62,127,0
0,54,125,39
0,43,127,0
0,31,110,0
0,62,118,0
0,35,113,0
0,48,94,0
0,65,120,45
0,55,127,12
0,45,94,0
0,31,110,0
0,35,111,0
0,45,125,29
0,35,127,0
0,62,127,0
0,31,110,0
0,67,127,0
0,55,127,0
0,77,120,1
0,62,100,61
0,43,127,0
0,64,104,0
0,31,110,0
0,41,118,0
0,35,127,0
0,76,120,6
0,41,127,27
0,35,127,0
0,63,124,0
0,55,127,0
0,31,110,0
0,54,127,0
0,74,120,22
0,35,127,51
0,63,125,0
0,41,127,0
0,33,110,0
0,43,127,0
0,72,120,3
0,62,100,9
0,49,115,0
0,62,127,0
0,38,120,0
0,69,100,0
0,38,127,0
0,50,100,0
0,57,127,0
0,26,110,0
0,57,100,0
0,50,127,0
0,35,127,0
0,74,120,6
0,50,125,21
0,42,121,0
0,38,110,0
0,38,127,0
0,54,124,0
0,62,110,0
0,38,127,27
0,42,87,19
0,50,127,0
0,26,110,0
0,35,87,0
0,57,127,11
0,26,110,0
0,62,127,0
0,35,84,0
0,50,127,0
0,42,125,7
0,63,122,0
0,38,127,0
0,54,127,0
0,38,110,0
0,38,127,0
0,63,117,23
0,26,110,0
0,57,127,0
0,35,88,0
0,50,127,0
0,62,127,0
0,35,116,3
0,42,109,0
0,38,122,0
0,50,127,102
0,57,127,17
0,50,127,0
0,54,127,0
0,38,110,0
0,62,123,0
0,38,127,0
0,42,125,0
0,69,120,17
0,38,127,22
0,26,110,0
0,77,120,5
0,53,127,4
0,60,127,0
0,31,120,0
0,43,127,0
0,43,100,0
0,42,109,0
0,31,110,0
0,57,127,0
0,35,100,0
0,35,74,51
0,76,120,55
0,42,107,29
0,53,127,0
0,38,125,0
0,63,127,0
0,54,127,0
0,31,110,0
0,74,120,9
0,63,127,5
0,35,87,0
0,43,127,0
0,46,84,0
0,72,120,9
0,50,127,9
0,35,125,0
0,38,127,0
0,38,120,0
0,69,100,0
0,57,127,0
0,42,84,0
0,26,110,0
0,62,127,0
0,50,100,0
0,69,120,21
0,38,110,9
0,54,124,0
0,50,123,0
0,62,119,0
0,38,127,0
0,42,119,0
0,38,127,21
0,26,110,0
0,26,110,11
0,42,115,0
0,50,127,0
0,35,99,0
0,62,127,15
0,50,127,0
0,57,127,0
0,35,87,0
0,63,127,19
0,38,110,0
0,42,125,0
0,54,124,0
0,38,127,0
0,38,127,0
0,35,85,41
0,63,127,0
0,50,127,0
0,62,127,0
0,57,127,0
0,26,110,0
0,42,107,102
0,35,123,0
0,38,127,99
0,50,127,5
0,38,110,0
0,62,118,0
0,38,127,0
0,42,121,0
0,54,127,0
0,38,127,33
0,69,120,0
0,26,110,0
0,42,117,9
0,31,120,0
0,57,127,0
0,35,93,0
0,60,127,0
0,43,127,0
0,53,127,0
0,31,110,0
0,77,120,33
0,43,100,6
0,64,104,27
0,35,93,0
0,76,120,16
0,54,127,59
0,63,124,0
0,53,117,0
0,31,110,0
0,38,127,0
0,42,121,0
0,74,120,12
0,46,88,15
0,43,127,0
0,35,107,0
0,63,125,0
0,72,120,11
0,55,127,7
0,60,127,0
0,24,110,0
0,49,115,0
0,67,127,0
0,67,100,0
0,36,127,0
0,55,100,0
0,48,100,0
0,36,120,0
0,35,127,0
0,60,100,0
0,72,120,41
0,55,114,113
0,36,110,0
0,42,121,0
0,38,127,0
0,62,110,0
0,54,127,0
0,36,127,21
0,24,110,0
0,72,120,10
0,55,119,5
0,42,87,0
0,35,87,0
0,24,110,0
0,72,120,1
0,35,84,49
0,60,127,0
0,55,116,0
0,38,127,31
0,42,125,0
0,54,127,0
0,63,122,0
0,36,110,0
0,55,124,0
0,55,100,7
0,45,127,0
0,62,100,0
0,72,120,0
0,57,127,0
0,45,100,0
0,33,120,0
0,62,127,0
0,33,110,0
0,35,88,0
0,63,117,0
0,42,109,21
0,35,116,0
0,69,120,0
0,57,114,75
0,62,123,17
0,45,127,0
0,54,125,0
0,42,125,0
0,38,127,0
0,28,110,23
0,61,100,0
0,69,120,26
0,61,127,1
0,35,100,0
0,42,109,0
0,33,110,0
0,57,127,0
0,77,120,17
0,35,74,25
0,45,127,0
0,76,120,12
0,63,127,43
0,57,109,0
0,33,110,0
0,54,127,0
0,42,107,0
0,38,125,0
0,74,120,9
0,55,100,5
0,46,84,0
0,45,127,0
0,35,87,0
0,28,110,0
0,63,127,0
0,72,120,34
0,43,127,9
0,55,127,0
0,35,125,0
0,31,120,0
0,54,32,0
0,42,84,0
0,43,100,0
0,62,127,0
0,60,100,0
0,31,110,0
0,74,120,0
0,54,66,0
0,54,54,6
0,55,100,0
0,76,120,5
0,54,61,6
0,54,62,6
0,74,120,14
0,54,67,6
0,54,73,6
0,54,78,6
0,38,127,6
0,54,97,0
0,42,119,0
0,62,119,0
0,60,118,0
0,54,86,6
0,54,66,6
0,54,61,6
0,55,120,6
0,31,110,0
0,54,62,0
0,43,127,0
0,54,57,6
0,54,60,6
0,54,49,5
0,54,55,6
0,67,109,0
0,35,99,0
0,55,125,0
0,53,100,0
0,42,115,0
0,68,120,1
0,54,41,6
0,54,46,6
0,54,68,6
0,55,127,6
0,62,127,0
0,67,127,0
0,35,87,0
0,54,75,0
0,65,120,22
0,54,83,6
0,54,100,6
0,54,113,6
0,43,127,6
0,54,117,0
0,63,127,0
0,42,125,0
0,38,127,0
0,67,120,26
0,54,113,6
0,54,115,6
0,54,96,6
0,54,104,6
0,67,127,0
0,43,127,0
0,62,127,0
0,31,110,0
0,63,127,0
0,35,85,0
0,55,127,0
0,55,100,0
0,67,120,40
0,54,97,6
0,54,92,6
0,54,75,6
0,42,94,6
0,54,77,0
0,43,127,0
0,54,78,1
0,54,68,6
0,54,55,5
0,54,61,6
0,67,127,0
0,31,110,0
0,55,127,0
0,62,127,0
0,35,109,0
0,65,120,30
0,54,55,6
0,54,65,6
0,54,62,6
0,62,120,2
0,62,100,4
0,42,121,0
0,54,83,0
0,43,127,0
0,62,118,0
0,38,127,0
0,31,110,0
0,54,97,6
0,54,86,6
0,54,106,6
0,31,110,6
0,55,127,0
0,54,106,0
0,35,77,0
0,60,120,18
0,54,109,6
0,54,108,6
0,54,108,5
0,62,120,4
0,38,118,2
0,31,110,0
0,54,111,0
0,62,127,0
0,55,127,0
0,67,127,0
0,54,92,6
0,54,84,6
0,54,77,6
0,54,77,6
0,64,104,0
0,31,110,0
0,43,127,0
0,38,127,0
0,60,120,22
0,54,66,6
0,54,54,6
0,54,66,6
0,55,127,6
0,54,60,0
0,41,123,0
0,63,124,0
0,31,110,0
0,54,66,6
0,54,44,6
0,54,38,3
0,60,120,2
0,33,110,4
0,35,111,0
0,43,127,0
0,63,125,0
0,54,49,0
0,54,45,6
0,69,120,51
0,52,127,4
0,49,103,0
0,35,127,0
0,60,97,0
0,57,127,0
0,61,127,0
0,33,110,0
0,45,127,0
0,73,127,102
0,71,118,0
0,62,101,73
0,42,94,6
0,60,83,0
0,71,103,0
0,64,115,39
0,33,110,0
0,35,98,0
0,69,110,0
0,45,127,0
0,69,126,93
0,42,67,0
0,60,92,0
0,69,111,25
0,62,122,0
0,35,98,0
0,33,110,0
0,54,124,0
0,57,127,0
0,62,82,6
0,60,88,6
0,37,117,0
0,66,116,0
0,42,106,0
0,45,121,13
0,35,80,0
0,64,119,0
0,69,127,0
0,33,110,0
0,55,122,61
0,57,127,0
0,60,100,0
0,33,110,0
0,35,120,0
0,64,125,0
0,42,82,0
0,69,89,61
0,62,97,96
0,66,102,6
0,60,89,0
0,42,77,0
0,35,113,15
0,33,110,0
0,64,118,0
0,81,100,0
0,69,114,0
0,81,100,6
0,42,88,13
0,60,100,0
0,45,127,0
0,76,100,0
0,76,100,6
