track,note,velocity,time
2,61,43,384
2,63,47,1
2,66,47,0
2,70,48,0
2,66,0,11
2,63,0,2
2,70,0,1
2,61,0,1
2,61,45,56
2,63,47,1
2,66,49,0
2,70,48,0
2,63,0,13
2,66,0,1
2,61,0,2
2,70,0,1
2,63,51,54
2,66,50,0
2,70,48,1
2,61,49,0
2,66,0,15
2,63,0,0
2,70,0,1
2,61,0,2
2,73,52,77
2,68,48,0
2,68,0,24
2,73,0,0
2,68,42,0
2,73,44,0
2,68,51,0
2,73,0,1
2,68,0,0
2,73,46,0
2,73,0,5
2,68,0,2
2,68,57,16
2,73,57,0
2,73,0,8
2,68,0,0
2,68,54,16
2,73,43,1
2,68,0,4
2,73,0,5
2,68,53,14
2,73,55,1
2,73,0,23
2,68,0,8
2,59,37,16
2,63,43,1
2,66,42,0
2,70,45,0
2,63,0,13
2,66,0,3
2,70,0,2
2,59,0,1
2,59,43,52
2,63,39,0
2,66,40,1
2,70,41,0
2,66,0,17
2,70,0,1
2,59,0,0
2,63,0,1
2,63,41,52
2,59,40,0
2,66,42,0
2,70,37,1
2,66,0,152
2,59,0,0
2,63,0,1
2,70,0,0
2,61,43,86
2,63,47,0
2,66,47,1
2,70,48,0
2,66,0,11
2,63,0,2
2,70,0,1
2,61,0,1
2,61,45,56
2,63,47,0
2,66,49,0
2,70,48,1
2,63,0,13
2,66,0,1
2,61,0,2
2,70,0,1
2,63,51,55
2,66,50,0
2,70,48,0
2,61,49,0
2,63,0,15
2,66,0,1
2,70,0,0
2,61,0,2
2,73,52,77
2,68,48,1
2,68,0,23
2,73,0,0
2,68,42,0
2,73,44,0
2,73,0,1
2,68,0,0
2,68,51,0
2,73,46,0
2,73,0,5
2,68,0,2
2,68,57,16
2,73,57,0
2,73,0,10
2,68,0,0
2,68,54,14
2,73,43,0
2,68,0,5
2,73,0,5
2,68,53,14
2,73,55,0
2,73,0,24
2,68,0,8
2,59,37,16
2,63,43,0
2,66,42,0
2,70,45,1
2,63,0,13
2,66,0,3
2,70,0,2
2,59,0,1
2,59,43,53
2,63,39,0
2,66,40,0
2,70,41,0
2,66,0,17
2,70,0,1
2,59,0,0
2,63,0,1
2,63,41,52
2,59,40,1
2,66,42,0
2,70,37,0
2,66,0,152
2,59,0,0
2,63,0,1
2,70,0,0
2,54,46,74
2,51,43,0
2,58,45,0
2,61,43,12
2,63,47,1
2,66,47,0
2,70,48,0
2,39,69,0
2,66,0,12
2,63,0,1
2,70,0,1
2,61,0,1
2,61,45,56
2,63,47,1
2,66,49,0
2,70,48,0
2,63,0,13
2,66,0,1
2,61,0,2
2,70,0,1
2,63,51,54
2,66,50,1
2,70,48,0
2,61,49,0
2,66,0,15
2,63,0,0
2,70,0,1
2,61,0,2
2,73,52,77
2,68,48,0
2,68,0,24
2,73,0,0
2,68,42,0
2,73,44,0
2,68,51,0
2,73,46,0
2,73,0,1
2,68,0,0
2,73,0,5
2,68,0,2
2,39,0,1
2,68,57,1
2,73,57,0
2,46,65,0
2,73,0,10
2,68,0,0
2,68,54,15
2,73,43,0
2,68,0,5
2,73,0,5
2,68,53,2
2,73,55,0
2,73,0,2
2,68,0,6
2,47,43,6
2,59,37,9
2,63,43,1
2,66,42,0
2,70,45,0
2,35,69,1
2,63,0,13
2,66,0,3
2,46,0,0
2,70,0,1
2,59,0,2
2,59,43,52
2,63,39,0
2,66,40,0
2,70,41,0
2,70,0,18
2,66,0,0
2,59,0,0
2,63,0,2
2,63,41,52
2,59,40,0
2,66,42,0
2,70,37,0
2,66,0,152
2,59,0,0
2,70,0,1
2,63,0,0
2,35,0,7
2,35,65,31
2,37,67,24
2,35,0,1
2,58,0,14
2,51,0,0
2,54,0,0
2,47,0,0
2,54,43,0
2,51,41,0
2,58,42,0
2,61,43,9
2,63,47,1
2,66,47,0
2,70,48,0
2,39,67,0
2,37,0,5
2,66,0,6
2,63,0,2
2,70,0,1
2,61,0,1
2,51,66,56
2,61,45,0
2,63,47,1
2,66,49,0
2,70,48,0
2,54,68,11
2,63,0,2
2,66,0,1
2,61,0,2
2,70,0,1
2,58,70,6
2,63,71,12
2,66,81,12
2,51,0,12
2,70,84,0
2,75,89,12
2,63,51,0
2,66,50,0
2,70,48,1
2,61,49,0
2,54,0,1
2,58,0,10
2,63,0,4
2,63,0,0
2,66,0,0
2,70,0,1
2,61,0,2
2,66,0,15
2,70,0,14
2,75,0,33
2,73,52,15
2,68,48,1
2,68,0,2
2,68,42,0
2,68,0,1
2,73,0,0
2,73,44,0
2,68,51,0
2,73,46,0
2,73,0,1
2,73,0,2
2,68,0,1
2,39,0,1
2,68,57,11
2,73,57,1
2,46,68,0
2,73,0,9
2,68,0,0
2,68,54,14
2,73,43,0
2,68,0,5
2,73,0,2
2,68,53,1
2,73,55,1
2,73,0,4
2,68,0,8
2,47,43,7
2,59,37,9
2,63,43,0
2,66,42,1
2,70,45,0
2,35,68,0
2,46,0,6
2,63,0,7
2,66,0,3
2,70,0,2
2,59,0,1
2,51,34,32
2,59,43,20
2,63,39,0
2,66,40,0
2,70,41,1
2,53,42,0
2,51,0,4
2,54,49,12
2,66,0,1
2,70,0,1
2,53,0,0
2,59,0,0
2,63,0,1
2,56,53,10
2,54,0,2
2,56,0,10
2,58,54,0
2,58,0,10
2,59,63,0
2,61,53,13
2,59,0,2
2,63,41,6
2,59,40,0
2,66,42,0
2,70,37,0
2,63,53,4
2,61,0,4
2,65,49,9
2,63,0,4
2,66,60,10
2,65,0,4
2,68,49,8
2,66,0,5
2,70,62,6
2,68,0,4
2,71,63,8
2,70,0,4
2,73,55,9
2,71,0,4
2,75,62,8
2,73,0,4
2,77,52,11
2,75,0,4
2,78,60,8
2,77,0,4
2,80,62,7
2,78,0,4
2,82,56,6
2,80,0,4
2,83,66,6
2,59,0,3
2,66,0,0
2,70,0,1
2,63,0,0
2,82,0,1
2,85,66,6
2,83,0,4
2,87,64,6
2,85,0,4
2,89,53,7
2,87,0,4
2,35,0,2
2,37,66,4
2,90,66,0
2,89,0,4
2,92,63,6
2,90,0,2
2,94,60,9
2,92,0,2
2,37,0,3
2,95,66,3
2,94,0,2
2,97,54,6
2,51,0,2
2,54,0,0
2,47,0,0
2,58,0,0
2,95,0,2
2,97,0,7
2,39,66,0
2,66,68,0
2,63,107,0
2,75,117,0
2,70,64,1
2,75,60,0
2,99,60,1
2,39,0,35
2,51,67,11
2,39,67,0
2,51,0,33
2,39,0,5
2,49,70,11
2,37,61,0
2,63,0,25
2,49,0,3
2,75,0,1
2,37,0,4
2,51,68,14
2,39,67,1
2,51,0,14
2,99,0,27
2,39,0,5
2,65,99,1
2,77,120,0
2,77,0,22
2,65,0,0
2,49,64,26
2,34,65,0
2,78,116,0
2,66,95,0
2,66,0,20
2,49,0,1
2,78,0,2
2,34,0,43
2,51,68,30
2,37,67,0
2,65,106,0
2,77,119,0
2,51,0,19
2,65,0,3
2,77,0,2
2,39,67,24
2,37,0,9
2,39,0,19
2,44,65,20
2,63,109,0
2,75,113,0
2,75,0,1
2,66,0,1
2,70,0,1
2,63,0,1
2,75,0,1
2,44,0,24
2,42,66,4
2,77,117,0
2,65,107,0
2,73,72,48
2,65,70,0
2,68,71,0
2,77,0,7
2,65,0,1
2,42,0,3
2,39,67,37
2,78,113,0
2,66,110,0
2,66,0,20
2,78,0,4
2,39,0,51
2,63,107,21
2,75,115,0
2,37,68,1
2,65,0,18
2,68,0,6
2,73,0,6
2,37,0,4
2,35,64,13
2,71,64,1
2,66,66,0
2,75,70,0
2,35,0,34
2,39,70,14
2,35,64,0
2,39,0,20
2,35,0,13
2,51,77,15
2,34,65,0
2,51,0,18
2,34,0,15
2,63,0,10
2,49,73,5
2,35,66,0
2,75,0,2
2,49,0,14
2,35,0,22
2,65,107,9
2,77,119,0
2,51,73,1
2,51,0,18
2,77,0,3
2,65,0,3
2,49,62,23
2,66,104,0
2,78,117,0
2,30,65,1
2,49,0,19
2,66,0,2
2,78,0,2
2,30,0,21
2,51,56,51
2,77,117,0
2,65,110,0
2,32,67,1
2,51,0,15
2,65,0,4
2,77,0,2
2,32,0,9
2,35,64,17
2,35,0,30
2,51,56,18
2,75,115,0
2,63,115,0
2,37,65,1
2,51,0,3
2,63,0,5
2,75,0,2
2,37,0,27
2,75,0,1
2,66,0,2
2,35,67,8
2,77,113,0
2,65,102,0
2,71,0,3
2,65,0,24
2,77,0,3
2,70,74,18
2,65,67,1
2,73,74,0
2,35,0,10
2,35,68,37
2,78,112,0
2,66,100,0
2,66,0,22
2,78,0,2
2,32,68,24
2,35,0,2
2,32,0,41
2,30,65,5
2,63,103,0
2,75,108,0
2,65,0,20
2,70,0,2
2,73,0,10
2,30,0,14
2,32,69,2
2,71,64,0
2,66,66,0
2,68,67,1
2,75,60,0
2,32,0,23
2,39,70,25
2,32,65,0
2,39,0,19
2,32,0,17
2,51,77,11
2,30,69,1
2,51,0,17
2,30,0,21
2,49,73,9
2,32,61,1
2,49,0,15
2,32,0,27
2,51,73,5
2,51,0,19
2,49,62,29
2,27,68,0
2,49,0,20
2,75,0,13
2,63,0,0
2,27,0,16
2,51,56,47
2,30,67,0
2,51,0,17
2,32,67,31
2,30,0,7
2,32,0,19
2,51,56,22
2,37,67,1
2,51,0,1
2,37,0,23
2,66,0,3
2,68,0,0
2,75,0,1
2,71,0,2
2,35,69,5
2,66,81,48
2,68,82,0
2,71,69,0
2,75,74,1
2,35,0,2
2,32,68,45
2,32,0,55
2,66,0,38
2,68,0,1
2,32,65,3
2,71,0,2
2,75,0,2
2,32,0,29
2,34,66,14
2,75,72,1
2,77,64,0
2,70,87,0
2,34,0,13
2,41,86,34
2,34,66,1
2,41,0,14
2,34,0,12
2,53,64,21
2,32,67,0
2,32,0,17
2,51,71,31
2,34,67,0
2,53,0,3
2,51,0,8
2,34,0,30
2,53,69,7
2,53,0,42
2,51,74,6
2,34,67,1
2,51,0,16
2,34,0,25
2,50,67,54
2,34,67,1
2,70,0,4
2,77,0,6
2,75,0,2
2,50,0,24
2,34,0,6
2,22,64,5
2,70,73,0
2,74,70,1
2,68,65,0
2,77,76,0
2,22,0,34
2,34,79,13
2,34,70,0
2,34,0,15
2,34,0,7
2,24,69,26
2,24,0,31
2,36,77,17
2,36,67,0
2,36,0,12
2,36,0,22
2,25,67,14
2,25,0,33
2,37,79,15
2,37,69,1
2,37,0,15
2,37,0,16
2,26,69,16
2,26,0,35
2,38,76,13
2,38,69,0
2,38,0,13
2,38,0,16
2,75,56,10
2,70,0,1
2,74,0,0
2,68,0,1
2,77,0,1
2,39,66,6
2,66,68,0
2,75,121,0
2,63,114,0
2,70,64,1
2,75,60,0
2,39,0,36
2,51,67,11
2,39,67,0
2,51,0,33
2,39,0,6
2,49,70,10
2,37,61,0
2,49,0,29
2,37,0,5
2,63,0,7
2,51,68,7
2,39,67,0
2,75,0,7
2,51,0,7
2,39,0,32
2,65,105,1
2,77,121,0
2,65,0,22
2,77,0,1
2,66,103,25
2,78,109,0
2,49,64,1
2,34,65,0
2,78,0,20
2,49,0,1
2,66,0,0
2,34,0,45
2,77,121,29
2,65,113,0
2,51,68,1
2,37,67,0
2,51,0,18
2,65,0,2
2,77,0,3
2,39,67,24
2,37,0,9
2,39,0,19
2,44,65,20
2,63,108,0
2,75,116,0
2,75,0,1
2,66,0,1
2,70,0,1
2,63,0,1
2,75,0,2
2,44,0,25
2,42,66,4
2,65,110,0
2,77,121,0
2,75,0,27
2,75,79,12
2,77,0,9
2,73,72,0
2,65,70,0
2,68,71,0
2,65,0,2
2,42,0,9
2,73,76,28
2,75,0,3
2,39,67,6
2,78,114,0
2,66,108,0
2,73,0,17
2,66,0,1
2,78,0,5
2,39,0,52
2,70,58,12
2,37,68,9
2,63,113,0
2,75,116,0
2,65,0,18
2,68,0,6
2,73,0,6
2,37,0,4
2,35,64,14
2,71,64,1
2,66,66,0
2,75,70,0
2,35,0,34
2,39,70,13
2,35,64,1
2,39,0,19
2,35,0,13
2,51,77,15
2,34,65,0
2,51,0,18
2,34,0,15
2,49,73,15
2,35,66,0
2,63,0,6
2,49,0,10
2,75,0,5
2,35,0,18
2,51,73,9
2,65,107,0
2,77,118,0
2,51,0,19
2,65,0,2
2,77,0,2
2,49,62,25
2,66,102,0
2,78,115,0
2,30,65,1
2,49,0,19
2,78,0,2
2,66,0,0
2,30,0,23
2,51,56,51
2,77,118,0
2,65,113,0
2,32,67,1
2,51,0,15
2,65,0,5
2,77,0,3
2,32,0,7
2,35,64,17
2,35,0,30
2,51,56,18
2,75,113,0
2,63,110,0
2,37,65,1
2,51,0,3
2,63,0,4
2,75,0,1
2,37,0,29
2,75,0,3
2,66,0,3
2,65,111,7
2,77,119,0
2,35,67,1
2,71,0,2
2,70,0,7
2,77,0,11
2,65,0,0
2,75,78,18
2,70,74,9
2,65,67,1
2,73,74,0
2,35,0,10
2,73,80,28
2,75,0,3
2,35,68,6
2,78,114,0
2,66,108,0
2,66,0,19
2,78,0,2
2,73,0,3
2,32,68,24
2,35,0,2
2,70,53,37
2,32,0,4
2,30,65,5
2,63,112,0
2,75,114,0
2,65,0,20
2,70,0,2
2,73,0,10
2,30,0,14
2,32,69,2
2,71,64,0
2,66,66,0
2,68,67,1
2,75,60,0
2,32,0,23
2,39,70,24
2,32,65,0
2,39,0,21
2,32,0,17
2,51,77,11
2,30,69,0
2,51,0,18
2,30,0,20
2,49,73,10
2,32,61,0
2,49,0,16
2,32,0,26
2,51,73,6
2,51,0,18
2,49,62,30
2,27,68,0
2,49,0,20
2,75,0,13
2,63,0,3
2,27,0,13
2,51,56,47
2,30,67,0
2,51,0,15
2,32,67,32
2,30,0,7
2,32,0,19
2,51,56,22
2,37,67,1
2,51,0,1
2,37,0,23
2,66,0,3
2,75,0,0
2,68,0,0
2,71,0,3
2,35,69,5
2,70,0,14
2,70,76,25
2,66,81,9
2,68,82,0
2,71,69,0
2,75,74,1
2,35,0,2
2,73,78,34
2,70,0,7
2,32,68,4
2,73,0,19
2,32,0,36
2,75,56,32
2,68,0,6
2,66,0,0
2,32,65,3
2,71,0,3
2,75,0,2
2,32,0,29
2,34,69,14
2,75,72,1
2,77,64,0
2,70,87,0
2,34,0,38
2,41,86,9
2,46,65,0
2,46,0,15
2,41,0,0
2,53,64,33
2,34,65,0
2,34,0,43
2,51,71,5
2,46,64,0
2,53,0,3
2,51,0,8
2,46,0,5
2,53,69,33
2,34,64,0
2,34,0,34
2,53,0,7
2,51,74,6
2,46,65,1
2,46,0,13
2,51,0,3
2,34,61,31
2,34,0,39
2,50,67,9
2,46,67,1
2,70,0,4
2,77,0,6
2,75,0,2
2,46,0,3
2,50,0,21
2,70,42,2
2,74,45,0
2,77,41,0
2,22,64,9
2,70,73,0
2,74,70,1
2,68,65,0
2,77,76,0
2,75,0,4
2,22,0,29
2,34,79,14
2,34,70,0
2,34,0,10
2,34,0,12
2,24,69,26
2,24,0,31
2,36,77,17
2,36,67,1
2,36,0,12
2,36,0,21
2,25,67,14
2,25,0,33
2,37,79,15
2,37,69,1
2,37,0,15
2,37,0,16
2,26,69,16
2,26,0,35
2,38,76,13
2,38,69,0
2,38,0,13
2,38,0,16
2,70,0,10
2,77,0,0
2,74,0,0
2,63,56,0
2,74,0,1
2,68,0,0
2,70,0,0
2,77,0,2
2,58,56,0
2,27,66,6
2,66,53,0
2,70,52,0
2,75,62,0
2,34,66,96
2,27,0,10
2,34,0,84
2,39,64,2
2,39,0,56
2,34,64,40
2,39,65,49
2,34,0,11
2,66,0,15
2,75,0,2
2,70,0,2
2,63,0,8
2,65,56,0
2,38,65,9
2,70,56,1
2,74,62,0
2,77,59,0
2,39,0,7
2,38,0,79
2,34,69,9
2,34,0,88
2,38,63,8
2,38,0,56
2,34,66,17
2,34,0,13
2,34,63,11
2,34,0,42
2,38,67,6
2,70,0,4
2,77,0,0
2,74,0,9
2,38,0,20
2,65,0,5
2,67,49,0
