track,note,velocity,time
1,66,73,668
1,62,73,0
1,69,64,0
1,66,56,1
1,69,56,0
1,62,56,0
1,71,64,23
1,64,60,0
1,67,73,0
1,67,64,46
1,60,73,0
1,64,82,0
1,66,91,46
1,62,82,0
1,69,91,0
1,71,82,25
1,67,73,0
1,64,82,0
1,74,82,62
1,69,91,0
1,66,91,0
1,71,91,36
1,64,82,0
1,67,82,0
1,62,82,30
1,66,91,0
1,69,82,0
1,71,82,34
1,64,82,0
1,67,82,0
1,60,91,39
1,64,82,0
1,67,82,0
2,40,108,2199
2,40,81,14
2,40,90,13
2,40,99,13
2,40,99,13
2,40,81,13
2,40,90,1
2,40,90,13
2,40,99,13
2,40,65,13
2,40,90,11
2,40,90,11
2,40,81,11
2,40,90,9
2,40,99,14
2,40,90,10
2,40,108,14
2,40,81,13
2,40,90,9
2,40,99,13
2,40,99,13
2,40,81,4
2,40,90,2
2,40,90,13
2,40,99,4
2,40,65,5
2,40,90,2
2,40,90,4
2,40,81,13
2,40,90,8
2,40,99,14
2,40,90,3
2,40,108,14
2,40,81,14
2,40,90,12
2,40,99,13
2,40,99,13
2,40,81,13
2,40,90,11
2,40,90,13
2,40,99,13
2,40,65,13
2,40,90,11
2,40,90,11
2,40,81,7
2,40,90,8
2,40,99,14
2,40,90,10
2,40,108,14
2,40,81,14
2,40,90,13
2,40,99,13
2,40,99,13
2,40,81,13
2,40,90,11
2,40,90,13
2,40,99,13
2,40,65,13
2,40,90,2
2,40,90,9
2,40,81,12
2,40,90,9
2,40,99,2
2,40,90,10
2,40,108,3
2,40,81,1
2,40,90,9
2,40,99,13
2,40,99,1
2,40,81,2
2,40,90,1
2,40,90,2
2,40,99,4
2,40,65,9
2,40,90,10
2,40,90,1
2,40,81,3
2,40,90,2
2,40,99,6
2,40,90,10
2,28,127,0
2,52,126,33
2,50,99,4
2,47,108,6
2,47,117,21
2,47,117,87
2,45,90,8
2,45,108,22
2,45,108,94
2,43,99,6
2,43,117,24
2,47,108,229
2,50,90,6
2,47,108,5
2,47,108,7
2,47,108,27
2,45,117,93
2,45,108,26
2,45,108,6
2,43,117,92
2,43,77,6
2,43,117,24
2,42,117,31
2,42,117,30
2,38,117,2
2,40,117,2
2,28,125,5
2,52,90,31
2,50,99,6
2,47,108,11
2,47,117,22
2,47,117,88
2,45,117,2
2,45,108,22
2,43,117,92
2,43,117,42
2,42,117,97
2,47,117,118
2,50,90,4
2,47,117,2
2,47,108,9
2,47,117,28
2,45,117,97
2,45,117,5
2,45,117,22
2,43,117,113
2,43,117,25
2,42,117,22
2,42,117,22
2,38,117,7
2,40,126,4
2,28,127,24
2,52,126,33
2,50,99,4
2,47,108,6
2,47,117,21
2,47,117,87
2,45,90,8
2,45,108,22
2,45,108,94
2,43,99,6
2,43,117,24
2,47,108,229
2,50,90,6
2,47,108,5
2,47,108,7
2,47,108,27
2,45,117,93
2,45,108,50
2,43,117,92
2,43,77,6
2,43,117,24
2,42,117,31
2,42,117,30
2,38,117,3
2,40,117,3
2,28,127,4
2,52,90,33
2,50,99,6
2,47,108,6
2,47,117,22
2,47,117,88
2,45,117,2
2,45,108,22
2,43,117,92
2,43,117,42
2,42,117,97
2,47,117,118
2,50,90,4
2,47,117,2
2,47,108,9
2,47,117,28
2,45,117,97
2,45,117,5
2,45,117,22
2,43,117,113
2,43,117,25
2,42,117,22
2,42,117,22
2,38,117,7
2,40,126,4
2,36,99,2
2,36,108,27
2,36,108,26
2,36,117,18
2,36,108,27
2,36,99,14
2,31,108,33
2,31,99,15
2,36,108,10
2,36,108,19
2,36,108,26
2,31,99,0
2,36,108,4
2,36,99,22
2,36,108,17
2,31,90,34
2,31,99,14
2,36,99,13
2,36,108,24
2,36,108,50
2,36,99,9
2,36,108,22
2,36,99,15
2,31,108,32
2,31,108,12
2,36,108,14
2,36,108,24
2,36,117,25
2,36,108,22
2,36,99,29
2,36,99,16
2,31,99,34
2,31,99,14
2,36,108,12
2,36,108,24
2,36,108,26
2,36,108,19
2,36,117,26
2,36,108,16
2,31,99,61
2,36,117,10
2,36,108,23
2,36,108,28
2,36,99,22
2,36,90,29
2,36,108,16
2,31,99,47
2,36,108,12
2,36,108,22
2,36,99,26
2,31,108,4
2,36,108,7
2,36,108,23
2,36,108,14
2,36,99,37
2,38,99,6
2,36,99,9
2,36,108,26
2,36,99,29
2,31,90,4
2,36,108,7
2,36,108,28
2,36,108,14
2,31,108,26
2,31,99,16
2,36,108,14
2,36,108,26
2,38,117,31
2,36,108,14
2,36,108,23
2,38,117,24
2,38,117,23
2,36,99,5
2,38,99,4
2,28,127,0
2,52,126,33
2,50,99,4
2,47,108,6
2,47,117,21
2,47,117,87
2,45,90,8
2,45,108,22
2,45,108,94
2,43,99,6
2,43,117,24
2,47,108,229
2,50,90,6
2,47,108,5
2,47,108,7
2,47,108,27
2,45,117,93
2,45,108,26
2,45,108,6
2,43,117,92
2,43,77,6
2,43,117,24
2,42,117,31
2,42,117,30
2,38,117,2
2,40,117,2
2,28,125,5
2,52,90,31
2,50,99,6
2,47,108,11
2,47,117,22
2,47,117,88
2,45,117,2
2,45,108,22
2,43,117,92
2,43,117,42
2,42,117,97
2,47,117,118
2,50,90,4
2,47,117,2
2,47,108,9
2,47,117,28
2,45,117,97
2,45,117,5
2,45,99,22
2,43,126,118
2,28,127,378
2,52,126,33
2,50,99,4
2,47,108,6
2,47,117,21
2,47,117,87
2,45,90,8
2,45,108,22
2,45,108,94
2,43,99,6
2,43,117,24
2,47,108,229
2,50,90,6
2,47,108,5
2,47,108,7
2,47,108,27
2,45,117,93
2,45,108,50
2,43,117,92
2,43,77,6
2,43,117,24
2,42,117,31
2,42,117,30
2,38,117,3
2,40,117,3
2,28,127,4
2,52,90,33
2,50,99,6
2,47,108,6
2,47,117,22
2,47,117,88
2,45,117,2
2,45,108,22
2,43,117,92
2,43,117,42
2,42,117,97
2,47,117,118
2,50,90,4
2,47,117,2
2,47,108,9
2,47,117,28
2,45,117,97
2,45,117,5
2,45,117,22
2,43,117,113
2,43,117,25
2,42,117,22
2,42,117,22
2,38,117,7
2,40,126,4
2,36,99,2
2,36,108,27
2,36,108,26
2,36,117,18
2,36,108,27
2,36,99,14
2,31,108,33
2,31,99,15
2,36,108,10
2,36,108,19
2,36,108,26
2,31,99,0
2,36,108,4
2,36,99,22
2,36,108,17
2,31,90,34
2,31,99,14
2,36,99,13
2,36,108,24
2,36,108,50
2,36,99,9
2,36,108,22
2,36,99,15
2,31,108,32
2,31,108,12
2,36,108,14
2,36,108,24
2,36,117,25
2,36,108,22
2,36,99,29
2,36,99,16
2,31,99,34
2,31,99,14
2,36,108,12
2,36,108,24
2,36,108,26
2,36,108,19
2,36,117,26
2,36,108,16
2,31,99,61
2,36,117,10
2,36,108,23
2,36,108,28
2,36,99,22
2,36,90,29
2,36,108,16
2,31,99,47
2,36,108,12
2,36,108,22
2,36,99,26
2,31,108,4
2,36,108,7
2,36,108,23
2,36,108,14
2,36,99,37
2,38,99,6
2,36,99,9
2,36,108,26
2,36,99,29
2,31,90,4
2,36,108,7
2,36,108,28
2,36,108,14
2,31,108,26
2,31,99,16
2,36,108,14
2,36,108,26
2,38,117,31
2,36,108,14
2,36,108,23
2,38,117,24
2,38,117,23
2,36,99,5
2,38,99,4
2,28,127,0
2,52,126,33
2,50,99,4
2,47,108,6
2,47,117,21
2,47,117,87
2,45,90,8
2,45,108,22
2,45,108,94
2,43,99,6
2,43,117,24
2,47,108,229
2,50,90,6
2,47,108,5
2,47,108,7
2,47,108,27
2,45,117,93
2,45,108,26
2,45,108,6
2,43,117,92
2,43,77,6
2,43,117,24
2,42,117,31
2,42,117,30
2,38,117,2
2,40,117,2
2,28,125,5
2,52,90,31
2,50,99,6
2,47,108,11
2,47,117,22
2,47,117,88
2,45,117,2
2,45,108,22
2,43,117,92
2,43,117,42
2,42,117,97
2,47,117,118
2,50,90,4
2,47,117,2
2,47,108,9
2,47,117,28
2,45,117,97
2,45,117,5
2,45,117,22
2,43,117,113
2,43,117,25
2,42,117,22
2,42,117,22
2,38,117,7
2,40,126,4
2,28,127,2
2,52,126,33
2,50,99,4
2,47,108,6
2,47,117,21
2,47,117,87
2,45,90,8
2,45,108,22
2,45,108,94
2,43,99,6
2,43,117,24
2,47,108,229
2,50,90,6
2,47,108,5
2,47,108,7
2,47,108,27
2,45,117,93
2,45,108,50
2,43,117,92
2,43,77,6
2,43,117,24
2,42,117,31
2,42,117,30
2,38,117,3
2,40,117,3
2,28,127,4
2,52,90,33
2,50,99,6
2,47,108,6
2,47,117,22
2,47,117,88
2,45,117,2
2,45,108,22
2,43,117,92
2,43,117,42
2,42,117,97
2,47,117,118
2,50,90,4
2,47,117,2
2,47,108,9
2,47,117,28
2,45,117,97
2,45,117,5
2,45,117,22
2,43,126,120
2,40,117,383
2,40,126,1465
2,36,108,2601
2,36,99,29
2,36,108,30
2,36,108,19
2,36,117,28
2,36,108,12
2,31,108,43
2,36,117,8
2,36,117,23
2,36,117,28
2,36,108,14
2,36,108,27
2,36,126,14
2,31,108,22
2,36,99,11
2,36,108,21
2,36,108,27
2,31,117,8
2,36,108,5
2,36,108,21
2,36,108,16
2,36,108,39
2,38,90,2
2,36,99,6
2,36,99,23
2,36,108,33
2,31,108,48
2,36,117,2
2,36,108,23
2,36,108,15
2,36,117,26
2,36,108,14
2,31,108,9
2,31,117,24
2,31,117,32
2,31,117,14
2,31,108,29
2,31,117,15
2,40,117,20
2,35,108,6
2,40,108,7
2,30,127,24
2,54,126,33
2,52,99,4
2,49,108,6
2,49,117,21
2,49,117,87
2,47,90,8
2,47,108,22
2,47,108,94
2,45,99,6
2,45,117,24
2,49,108,229
2,49,108,26
2,49,108,7
2,49,108,27
2,47,117,93
2,47,108,26
2,47,108,6
2,45,117,92
2,45,77,6
2,45,117,24
2,44,117,31
2,44,117,30
2,40,117,2
2,42,117,2
2,30,125,5
2,54,90,31
2,52,99,6
2,49,108,11
2,49,117,22
2,49,117,88
2,47,117,2
2,47,108,22
2,45,117,92
2,45,117,42
2,44,117,97
2,42,108,22
2,42,99,7
2,52,90,64
2,49,117,2
2,49,108,9
2,49,117,28
2,47,117,97
2,47,117,18
2,47,117,6
2,45,117,89
2,45,117,7
2,45,117,25
2,44,117,22
2,44,117,22
2,40,117,7
2,42,126,4
2,30,125,24
2,54,90,31
2,52,99,6
2,49,108,11
2,49,117,22
2,49,117,88
2,47,117,2
2,47,108,22
2,45,117,92
2,45,117,42
2,44,117,97
2,42,108,22
2,42,99,7
2,49,108,40
2,52,90,7
2,49,117,2
2,49,108,9
2,49,117,28
2,47,117,97
2,47,117,18
2,47,99,6
2,45,108,110
2,45,117,3242
2,30,108,381
2,54,108,26
2,52,108,3
2,49,108,2
2,49,117,24
2,49,117,82
2,47,99,5
2,47,108,24
2,47,117,85
2,45,108,2
2,45,108,18
2,49,117,223
2,49,117,19
2,49,99,6
2,49,117,24
2,47,117,82
2,47,108,5
2,47,108,23
2,45,117,120
2,45,108,20
2,44,117,31
2,44,117,22
2,40,108,2
2,42,117,4
2,30,123,12
2,54,117,38
2,52,99,2
2,49,108,6
2,49,117,20
2,49,108,83
2,47,99,4
2,47,108,22
2,47,117,91
2,45,90,6
2,45,117,22
2,49,117,235
2,52,99,1
2,49,108,1
2,49,108,7
2,49,117,25
2,47,108,11
2,47,117,5
2,45,108,10
2,45,117,3
2,44,117,10
2,44,117,8
2,40,99,6
2,42,117,3
2,30,108,2
2,54,108,18
2,52,108,3
2,49,108,2
2,49,117,18
2,49,117,2
2,47,99,5
2,47,108,3
2,47,117,10
2,45,108,2
2,45,108,8
2,49,117,32
2,49,117,19
2,49,99,6
2,49,117,24
2,47,117,82
2,47,108,5
2,47,108,23
2,45,117,120
2,45,108,20
2,44,117,31
2,44,117,22
2,40,108,2
2,42,117,4
3,64,77,3562
3,76,86,0
3,67,95,0
3,79,86,0
3,71,86,1
3,83,95,0
3,69,77,1
3,81,77,0
3,79,86,2
3,67,77,0
3,76,104,1
3,64,52,0
3,62,68,1
3,74,86,0
3,76,95,0
3,64,68,0
3,66,109,6270
3,69,109,6
3,66,109,25
3,67,113,33
3,66,109,486
3,69,109,6
3,66,109,25
3,67,113,32
3,69,109,7
3,71,109,24
3,72,104,7
3,66,109,99
3,69,109,5
3,66,109,26
3,67,113,34
3,66,113,488
3,69,109,5
3,66,110,24
3,67,113,33
3,69,109,36
3,65,109,0
3,71,108,1
3,67,107,0
3,65,109,6
3,69,109,2
3,72,108,0
3,66,109,6458
3,69,109,6
3,66,109,25
3,67,113,33
3,66,109,486
3,69,109,6
3,66,109,25
3,67,113,32
3,69,109,7
3,71,109,24
3,72,104,7
3,66,109,99
3,69,109,5
3,66,109,26
3,67,113,34
3,66,113,488
3,69,109,5
3,66,110,24
3,67,113,33
3,69,109,36
3,65,109,0
3,71,108,1
3,67,107,0
3,65,109,6
3,69,109,2
3,72,108,0
3,66,109,10682
3,69,109,5
3,66,109,26
3,67,113,34
3,66,113,488
3,69,109,5
3,66,110,24
3,67,113,33
3,69,109,36
3,65,109,0
3,71,108,1
3,67,107,0
3,65,103,7
3,69,104,1
3,72,103,0
3,67,100,2
3,71,104,1
3,74,102,0
3,69,90,2
3,78,93,1
3,73,84,0
3,66,85,4631
3,69,78,24
3,73,69,24
3,78,76,23
3,80,79,288
3,71,79,0
3,66,79,14
3,69,77,0
3,73,77,0
3,61,68,391
3,66,64,24
3,69,68,9
3,73,86,19
3,78,60,2
3,81,77,24
3,85,77,5
3,85,64,1
3,90,64,0
3,81,60,0
3,88,77,33
3,83,68,0
3,80,77,0
3,92,77,18
3,83,77,0
3,88,77,0
3,78,68,23
3,85,86,0
3,81,77,0
3,66,95,511
3,69,86,3
3,73,86,6
3,78,86,3
4,76,78,7131
4,76,78,3
4,76,57,3
4,76,87,10
4,79,87,43
4,78,87,31
4,74,87,3
4,76,87,112
4,76,87,21
4,79,78,10
4,78,78,29
4,74,87,10
4,71,60,64
4,76,78,8
4,76,78,7
4,76,69,23
4,79,78,13
4,81,87,19
4,79,78,21
4,78,78,28
4,79,78,9
4,78,78,19
4,71,87,65
4,76,96,18
4,71,78,4
4,76,78,18
4,79,78,19
4,78,87,51
4,74,87,3
4,76,87,66
4,76,78,6
4,71,60,23
4,76,78,10
4,79,69,21
4,81,78,9
4,79,87,12
4,76,87,77
4,76,69,5
4,76,87,21
4,79,78,22
4,81,87,19
4,79,78,21
4,78,87,24
4,78,87,25
4,76,87,50
4,69,60,72
4,74,78,6
4,71,87,7
4,69,78,0
4,67,78,3
4,69,78,4
4,69,69,12
4,69,69,12
4,69,78,15
4,74,69,46
4,76,78,22
4,71,78,2
4,67,60,20
4,69,87,10
4,69,69,14
4,69,78,9
4,74,69,11
4,76,78,25
4,74,69,126
4,77,78,35
4,67,80,40
4,69,87,9
4,74,78,9
4,71,78,6
4,67,69,5
4,69,78,22
4,69,60,12
4,69,69,29
4,74,78,16
4,76,87,24
4,71,87,5
4,67,60,61
4,69,78,11
4,69,78,15
4,69,69,3
4,74,87,11
4,76,78,20
4,74,78,2
4,65,78,16
4,67,78,14
4,69,87,14
4,72,69,9
4,69,96,22
4,67,60,0
4,69,87,12
4,79,78,36
4,79,78,48
4,78,78,13
4,79,69,3
4,76,78,168
4,76,87,22
4,76,78,26
4,78,78,12
4,78,78,1
4,78,78,30
4,74,87,2
4,76,78,69
4,76,78,24
4,76,69,24
4,76,78,14
4,79,69,14
4,79,78,34
4,78,78,1
4,79,78,42
4,79,69,207
4,79,78,46
4,78,78,16
4,79,60,3
4,76,78,156
4,76,78,20
4,76,69,26
4,76,78,16
4,78,69,15
4,78,78,30
4,74,78,2
4,76,78,72
4,76,78,26
4,76,69,26
4,76,69,18
4,79,69,7
4,79,78,33
4,78,78,10
4,79,87,21
4,83,78,464
4,81,78,5
4,76,70,7
4,78,78,22
4,74,87,3
4,76,69,65
4,76,78,19
