track,note,velocity,time
0,48,86,3072
0,60,72,0
0,44,113,1536
0,42,95,0
0,36,113,0
0,42,93,80
0,35,67,0
0,35,54,80
0,46,111,80
0,35,42,0
0,42,101,80
0,38,60,0
0,35,22,0
0,39,77,0
0,35,22,80
0,38,40,80
0,37,80,0
0,36,121,0
0,39,80,0
0,44,111,80
0,42,97,80
0,36,113,0
0,44,117,80
0,35,67,0
0,35,48,80
0,35,48,80
0,42,103,80
0,38,60,0
0,35,29,0
0,39,76,0
0,44,59,80
0,35,22,0
0,44,76,80
0,38,40,0
0,37,80,0
0,36,121,0
0,39,80,0
0,42,97,80
0,35,61,0
0,44,109,80
0,42,103,0
0,35,54,0
0,42,101,4
0,35,48,0
0,42,101,80
0,35,22,0
0,46,109,80
0,35,22,0
0,42,105,80
0,38,60,0
0,35,22,0
0,39,78,0
0,35,22,80
0,42,105,80
0,38,40,0
0,37,80,0
0,36,115,0
0,39,80,0
0,44,89,80
0,42,103,80
0,36,116,0
0,44,113,80
0,35,67,0
0,35,42,80
0,35,35,80
0,42,81,80
0,38,60,0
0,35,29,0
0,39,81,0
0,46,91,80
0,44,68,0
0,35,22,0
0,42,95,80
0,38,40,0
0,37,80,0
0,39,80,0
0,46,89,80
0,44,89,0
0,42,101,80
0,36,112,0
0,44,111,80
0,35,67,0
0,42,111,80
0,35,54,0
0,46,119,80
0,35,42,0
0,42,103,80
0,38,60,0
0,35,22,0
0,39,80,0
0,35,22,80
0,42,90,80
0,38,40,0
0,37,80,0
0,36,120,0
0,39,80,0
0,44,81,80
0,42,92,80
0,36,112,0
0,44,111,80
0,35,67,0
0,35,48,80
0,35,48,80
0,42,107,80
0,38,60,0
0,35,29,0
0,39,76,0
0,35,22,80
0,38,40,80
0,37,80,0
0,36,117,0
0,39,80,0
0,35,61,80
0,42,101,80
0,36,112,0
0,44,111,80
0,35,67,0
0,42,111,80
0,35,54,0
0,46,119,80
0,35,42,0
0,42,103,80
0,38,60,0
0,35,22,0
0,39,80,0
0,35,22,80
0,42,90,80
0,38,40,0
0,37,80,0
0,36,120,0
0,39,80,0
0,44,81,80
0,42,92,80
0,36,112,0
0,44,111,80
0,35,67,0
0,35,48,80
0,35,48,80
0,42,107,80
0,38,60,0
0,35,29,0
0,39,76,0
0,35,22,80
0,38,40,80
0,37,80,0
0,36,117,0
0,39,80,0
0,35,61,80
0,42,101,80
0,36,112,0
0,44,111,80
0,35,67,0
0,42,111,80
0,35,54,0
0,46,119,80
0,35,42,0
0,42,103,80
0,38,60,0
0,35,22,0
0,39,80,0
0,35,22,80
0,42,90,80
0,38,40,0
0,37,80,0
0,36,120,0
0,39,80,0
0,44,81,80
0,42,92,80
0,36,112,0
0,44,111,80
0,35,67,0
0,35,48,80
0,35,48,80
0,42,107,80
0,38,60,0
0,35,29,0
0,39,76,0
0,35,22,80
0,38,40,80
0,37,80,0
0,36,117,0
0,39,80,0
0,35,61,80
0,42,73,80
0,35,54,0
0,42,73,80
0,35,48,0
0,42,82,80
0,35,22,0
0,42,82,80
0,35,22,0
0,42,82,80
0,38,60,0
0,35,22,0
0,39,81,0
0,42,82,80
0,35,22,0
0,42,93,80
0,38,40,0
0,37,80,0
0,36,118,0
0,39,80,0
0,42,103,80
0,46,90,80
0,36,113,0
0,35,67,80
0,42,107,80
0,35,42,0
0,35,35,80
0,46,82,80
0,38,60,0
0,35,29,0
0,39,75,0
0,35,22,80
0,42,107,80
0,38,40,0
0,37,80,0
0,39,80,0
0,42,101,176
0,36,112,0
0,44,111,80
0,35,67,0
0,42,111,80
0,35,54,0
0,46,119,80
0,35,42,0
0,42,103,80
0,38,60,0
0,35,22,0
0,39,80,0
0,35,22,80
0,42,90,80
0,38,40,0
0,37,80,0
0,36,120,0
0,39,80,0
0,44,81,80
0,42,92,80
0,36,112,0
0,44,111,80
0,35,67,0
0,35,48,80
0,35,48,80
0,42,107,80
0,38,60,0
0,35,29,0
0,39,76,0
0,35,22,80
0,38,40,80
0,37,80,0
0,36,117,0
0,39,80,0
0,35,61,80
0,42,73,80
0,35,54,0
0,42,73,80
0,35,48,0
0,42,82,80
0,35,22,0
0,42,82,80
0,35,22,0
0,42,82,80
0,38,60,0
0,35,22,0
0,39,81,0
0,42,82,80
0,35,22,0
0,42,93,80
0,38,40,0
0,37,80,0
0,36,118,0
0,39,80,0
0,42,103,80
0,46,90,80
0,36,113,0
0,35,67,80
0,42,107,80
0,35,42,0
0,35,35,80
0,46,82,80
0,38,60,0
0,35,29,0
0,39,75,0
0,35,22,80
0,42,107,80
0,38,40,0
0,37,80,0
0,39,80,0
0,44,113,176
0,42,95,0
0,36,116,0
0,42,93,80
0,35,67,0
0,35,54,80
0,46,111,80
0,35,42,0
0,42,101,80
0,38,60,0
0,35,22,0
0,39,81,0
0,35,22,80
0,38,40,80
0,37,80,0
0,36,119,0
0,39,80,0
0,44,111,80
0,42,97,80
0,36,116,0
0,44,117,80
0,35,67,0
0,35,48,80
0,35,48,80
0,42,103,80
0,38,60,0
0,35,29,0
0,39,81,0
0,44,59,80
0,35,22,0
0,44,76,80
0,38,40,0
0,37,80,0
0,36,114,0
0,39,80,0
0,42,97,80
0,35,61,0
0,44,109,80
0,42,103,0
0,35,54,0
0,42,101,80
0,35,48,0
0,42,101,80
0,35,22,0
0,46,109,80
0,35,22,0
0,42,105,80
0,38,60,0
0,35,22,0
0,39,78,0
0,35,22,80
0,42,105,80
0,38,40,0
0,37,80,0
0,36,121,0
0,39,80,0
0,44,89,80
0,42,103,80
0,36,119,0
0,44,113,80
0,35,67,0
0,35,42,80
0,35,35,80
0,42,81,80
0,38,60,0
0,35,29,0
0,39,76,0
0,46,91,80
0,44,68,0
0,35,22,0
0,42,95,80
0,38,40,0
0,37,80,0
0,39,80,0
0,46,89,80
0,44,89,0
0,42,101,80
0,36,116,0
0,44,111,80
0,35,67,0
0,42,111,80
0,35,54,0
0,46,119,80
0,35,42,0
0,42,103,80
0,38,60,0
0,35,22,0
0,39,80,0
0,35,22,80
0,42,90,80
0,38,40,0
0,37,80,0
0,36,120,0
0,39,80,0
0,44,81,80
0,42,92,80
0,36,115,0
0,44,111,80
0,35,67,0
0,35,48,80
0,35,48,80
0,42,107,80
0,38,60,0
0,35,29,0
0,39,83,0
0,35,22,80
0,38,40,80
0,37,80,0
0,36,112,0
0,39,80,0
0,35,61,80
0,42,73,80
0,35,54,0
0,42,73,80
0,35,48,0
0,42,82,80
0,35,22,0
0,42,82,80
0,35,22,0
0,42,82,80
0,38,60,0
0,35,22,0
0,39,79,0
0,42,82,80
0,35,22,0
0,42,93,80
0,38,40,0
0,37,80,0
0,36,121,0
0,39,80,0
0,48,76,48
0,42,103,16
0,47,76,16
0,45,92,16
0,46,90,16
0,41,101,0
0,36,118,0
0,35,67,80
0,42,107,80
0,35,42,0
0,35,35,80
0,46,82,80
0,38,60,0
0,35,29,0
0,39,79,0
0,35,22,80
0,28,46,0
0,29,72,4
0,31,82,0
0,33,72,24
0,35,75,24
0,36,81,4
0,42,107,0
0,38,40,0
0,37,80,0
0,39,80,0
0,38,89,0
0,40,95,12
0,41,97,12
0,43,97,8
0,45,95,4
0,47,99,4
0,48,103,0
0,50,107,16
0,52,109,12
0,36,117,12
0,69,96,0
0,73,108,0
0,74,102,0
0,78,104,0
0,36,119,16
0,69,90,0
0,73,100,0
0,74,96,0
0,78,102,0
0,36,118,480
0,69,88,0
0,73,96,0
0,74,92,0
0,78,90,0
0,36,119,192
0,71,78,0
0,75,88,0
0,76,82,0
0,80,80,0
0,57,119,16
0,44,113,0
0,42,95,0
0,36,119,0
0,30,111,0
0,63,103,0
0,59,105,0
0,56,103,0
0,42,121,0
0,30,123,0
0,42,93,12
0,35,67,0
0,30,112,0
0,30,109,0
0,35,54,80
0,46,111,12
0,35,42,0
0,42,101,80
0,40,120,0
0,38,60,0
0,35,22,0
0,39,84,0
0,39,111,0
0,82,109,0
0,39,119,0
0,35,22,12
0,82,68,0
0,38,40,16
0,36,114,0
0,39,59,0
0,39,117,0
0,39,109,0
0,44,111,44
0,82,111,0
0,42,97,0
0,36,113,0
0,30,117,0
0,80,111,0
0,82,70,0
0,30,111,0
0,44,117,68
0,35,67,0
0,80,70,0
0,35,48,12
0,78,94,0
0,35,48,36
0,78,53,0
0,42,103,56
0,40,120,0
0,38,60,0
0,35,29,0
0,39,83,0
0,75,109,0
0,44,59,12
0,35,22,0
0,75,68,0
0,44,76,12
0,38,40,0
0,36,120,0
0,39,55,0
0,30,114,0
0,73,100,0
0,30,126,0
0,42,97,16
0,35,61,0
0,73,59,0
0,44,109,12
0,42,103,0
0,35,54,0
0,42,101,80
0,35,48,0
0,42,101,80
0,35,22,0
0,75,107,0
0,46,109,16
0,35,22,0
0,75,66,0
0,42,105,16
0,40,120,0
0,38,60,0
0,35,22,0
0,39,76,0
0,35,22,80
0,42,105,28
0,38,40,0
0,36,121,0
0,39,63,0
0,44,89,20
0,42,103,20
0,36,120,0
0,44,113,32
0,35,67,0
0,35,42,60
0,30,116,0
0,30,103,0
0,35,35,12
0,30,117,0
0,30,109,0
0,42,81,0
0,40,120,0
0,38,60,0
0,35,29,0
0,39,75,0
0,32,111,0
0,32,119,0
0,46,91,36
0,44,68,0
0,35,22,0
0,42,95,12
0,38,40,0
0,39,59,0
0,28,111,0
0,28,105,0
0,46,89,0
0,44,89,0
0,42,101,16
0,36,113,0
0,30,117,0
0,66,92,0
0,58,101,0
0,56,92,0
0,42,105,0
0,73,101,0
0,30,121,0
0,44,111,52
0,35,67,0
0,75,109,0
0,73,60,0
0,42,111,28
0,35,54,0
0,75,68,0
0,46,119,28
0,35,42,0
0,73,87,0
0,42,103,12
0,40,120,0
0,38,60,0
0,35,22,0
0,39,81,0
0,34,111,0
0,75,104,0
0,73,46,0
0,34,117,0
0,35,22,0
0,75,63,0
0,42,90,28
0,38,40,0
0,36,115,0
0,39,60,0
0,34,111,0
0,73,90,0
0,34,111,0
0,44,81,12
0,75,103,0
0,73,49,0
0,42,92,32
0,36,115,0
0,39,114,0
0,75,62,0
0,39,111,0
0,44,111,32
0,35,67,0
0,73,96,0
0,35,48,12
0,75,106,0
0,73,55,0
0,35,48,40
0,75,65,0
0,42,107,40
0,40,120,0
0,38,60,0
0,35,29,0
0,39,84,0
0,73,90,0
0,35,22,64
0,75,94,0
0,73,49,0
0,38,40,48
0,36,117,0
0,39,57,0
0,39,121,0
0,73,90,0
0,75,53,0
0,39,125,0
0,35,61,40
0,75,97,0
0,73,49,0
0,42,73,0
0,35,54,0
0,78,99,0
0,75,56,0
0,42,73,16
0,35,48,0
0,78,58,0
0,42,82,16
0,35,22,0
0,42,82,80
0,35,22,0
0,42,82,32
0,40,120,0
0,38,60,0
0,35,22,0
0,39,79,0
0,42,82,24
0,35,22,0
0,42,93,24
0,38,40,0
0,36,117,0
0,39,58,0
0,40,116,0
0,40,109,0
0,42,103,12
0,46,90,20
0,36,114,0
0,42,121,0
0,42,101,0
0,35,67,12
0,42,107,48
0,35,42,0
0,35,122,0
0,35,81,0
0,35,35,0
0,36,113,0
0,36,78,0
0,46,82,0
0,40,120,0
0,38,60,0
0,35,29,0
0,39,77,0
0,37,114,0
0,37,109,0
0,35,22,0
0,28,120,0
0,28,101,0
0,42,107,0
0,38,40,0
0,39,57,0
0,32,115,0
0,32,117,0
0,31,115,0
0,31,82,0
0,44,113,0
0,42,95,0
0,36,115,0
0,30,122,0
0,63,101,0
0,59,90,0
0,56,87,0
0,42,101,0
0,30,111,0
0,42,93,80
0,35,67,0
0,35,54,12
0,46,111,80
0,35,42,0
0,42,101,80
0,40,120,0
0,38,60,0
0,35,22,0
0,39,84,0
0,39,111,0
0,82,119,0
0,39,115,0
0,35,22,12
0,82,78,0
0,38,40,16
0,36,116,0
0,39,59,0
0,39,122,0
0,39,97,0
0,44,111,72
0,82,104,0
0,42,97,0
0,36,113,0
0,30,116,0
0,80,94,0
0,82,63,0
0,30,105,0
0,44,117,28
0,35,67,0
0,80,53,0
0,35,48,12
0,78,86,0
0,35,48,48
0,78,45,0
0,42,103,48
0,40,120,0
0,38,60,0
0,35,29,0
0,39,81,0
0,75,97,0
0,44,59,12
0,35,22,0
0,75,56,0
0,44,76,12
0,38,40,0
0,36,121,0
0,39,61,0
0,30,121,0
0,73,99,0
0,30,113,0
0,42,97,36
0,35,61,0
0,73,58,0
0,44,109,0
0,42,103,0
0,35,54,0
0,42,101,80
0,35,48,0
0,42,101,80
0,35,22,0
0,75,100,0
0,46,109,16
0,35,22,0
0,75,59,0
0,42,105,16
0,40,120,0
0,38,60,0
0,35,22,0
0,39,75,0
0,35,22,80
0,42,105,20
0,38,40,0
0,36,112,0
0,39,55,0
0,44,89,12
0,42,103,12
0,36,112,0
0,44,113,52
0,35,67,0
0,35,42,80
0,42,114,0
0,42,97,0
0,35,35,12
0,42,122,0
0,42,105,0
0,42,81,0
0,40,120,0
0,38,60,0
0,35,29,0
0,39,76,0
0,44,115,0
0,44,101,0
0,46,91,48
0,44,68,0
0,35,22,0
0,42,95,12
0,38,40,0
0,39,60,0
0,40,111,0
0,40,103,0
0,46,89,0
0,44,89,0
0,42,101,16
0,36,113,0
0,30,115,0
0,66,99,0
0,58,95,0
0,56,89,0
0,42,107,0
0,30,109,0
0,44,111,80
0,35,67,0
0,73,97,0
0,42,111,0
0,35,54,0
0,73,56,0
0,46,119,44
0,35,42,0
0,42,103,80
0,40,120,0
0,38,60,0
0,35,22,0
0,39,77,0
0,39,115,0
0,73,92,0
0,39,105,0
0,35,22,12
0,73,51,0
0,42,90,48
0,38,40,0
0,36,113,0
0,39,57,0
0,39,120,0
0,39,99,0
0,44,81,80
0,73,96,0
0,42,92,0
0,36,117,0
0,27,118,0
0,73,55,0
0,27,107,0
0,44,111,60
0,35,67,0
0,75,103,0
0,35,48,12
0,28,117,0
0,73,85,0
0,75,62,0
0,28,89,0
0,35,48,48
0,73,44,0
0,42,107,12
0,40,120,0
0,38,60,0
0,35,29,0
0,39,77,0
0,73,90,0
0,35,22,44
0,75,78,0
0,73,49,0
0,38,40,44
0,36,115,0
0,39,58,0
0,30,113,0
0,73,99,0
0,75,37,0
0,30,117,0
0,35,61,12
0,75,80,0
0,73,58,0
0,42,73,12
0,35,54,0
0,78,96,0
0,75,39,0
0,42,73,16
0,35,48,0
0,78,55,0
0,42,82,16
0,35,22,0
0,42,82,80
0,35,22,0
0,42,82,20
0,40,120,0
0,38,60,0
0,35,22,0
0,39,82,0
0,42,82,12
0,35,22,0
0,42,93,8
0,38,40,0
0,36,115,0
0,39,57,0
0,30,117,0
0,30,119,0
0,42,103,8
0,46,90,0
0,40,123,0
0,36,116,0
0,28,122,0
0,66,99,0
0,62,107,0
0,61,103,0
0,57,87,0
0,57,117,0
0,61,115,0
0,62,115,0
0,66,107,0
0,28,117,0
0,35,67,16
0,42,107,0
0,35,42,0
0,35,35,80
0,46,82,80
0,40,120,0
0,38,60,0
0,35,29,0
0,39,75,0
0,28,122,0
0,66,99,0
0,62,105,0
0,61,103,0
0,57,92,0
0,57,126,0
0,61,121,0
0,62,115,0
0,66,115,0
0,28,121,0
0,35,22,80
0,42,107,0
0,38,40,0
0,39,66,0
0,57,119,176
0,44,113,0
0,42,95,0
0,36,117,0
0,42,118,0
0,66,105,0
0,61,107,0
0,58,109,0
0,56,110,0
0,42,103,0
0,56,64,0
0,58,66,0
0,61,72,0
0,66,64,0
0,42,127,0
0,42,93,80
0,35,67,0
0,35,54,12
0,46,111,48
0,35,42,0
0,42,114,0
0,42,89,0
0,42,101,12
0,40,120,0
0,38,60,0
0,35,22,0
0,39,75,0
0,39,121,0
0,39,119,0
0,61,116,0
0,35,22,80
0,38,40,0
0,36,116,0
0,39,60,0
0,37,116,0
0,37,101,0
0,63,119,0
0,44,111,80
0,42,97,12
0,36,118,0
0,30,112,0
0,30,121,0
0,66,116,0
0,44,117,12
0,35,67,0
