track,note,velocity,time
1,47,102,372
1,43,102,8
1,40,102,30
1,47,102,4
1,43,102,16
1,40,102,14
1,40,111,96
1,43,102,4
1,47,102,8
1,45,93,0
1,43,102,8
1,40,111,8
1,38,102,10
1,40,111,4
1,40,111,100
1,43,102,4
1,47,111,4
1,45,111,4
1,43,111,4
1,40,102,4
1,38,120,4
2,40,91,0
2,40,64,58
2,40,73,54
2,40,82,54
2,40,82,54
2,40,64,54
2,40,73,4
2,40,73,54
2,40,82,52
2,40,48,52
2,40,73,44
2,40,73,44
2,40,64,42
2,40,73,36
2,40,82,56
2,40,73,42
2,40,91,56
2,40,64,54
2,40,73,36
2,40,82,54
2,40,82,54
2,40,64,16
2,40,73,10
2,40,73,54
2,40,82,16
2,40,48,22
2,40,73,10
2,40,73,16
2,40,64,50
2,40,73,32
2,40,82,56
2,40,73,14
2,40,91,56
2,40,64,58
2,40,73,48
2,40,82,54
2,40,82,54
2,40,64,54
2,40,73,44
2,40,73,54
2,40,82,52
2,40,48,52
2,40,73,44
2,40,73,44
2,40,64,28
2,40,73,32
2,40,82,56
2,40,73,42
2,40,91,56
2,40,64,58
2,40,73,54
2,40,82,54
2,40,82,54
2,40,64,54
2,40,73,44
2,40,73,54
2,40,82,52
2,40,48,52
2,40,73,10
2,40,73,36
2,40,64,48
2,40,73,36
2,40,82,8
2,40,73,42
2,40,91,14
2,40,64,4
2,40,73,36
2,40,82,54
2,40,82,4
2,40,64,10
2,40,73,4
2,40,73,10
2,40,82,16
2,40,48,36
2,40,73,42
2,40,73,4
2,40,64,10
2,40,73,8
2,40,82,26
2,40,73,40
2,28,110,0
2,52,109,132
2,50,82,16
2,47,91,24
2,47,100,84
2,47,100,350
2,45,73,32
2,45,91,90
2,45,91,378
2,43,82,24
2,43,100,96
2,47,91,916
2,50,73,24
2,47,91,20
2,47,91,30
2,47,91,110
2,45,100,372
2,45,91,106
2,45,91,24
2,43,100,368
2,43,60,26
2,43,100,96
2,42,100,126
2,42,100,120
2,38,100,10
2,40,100,10
2,28,108,20
2,52,73,126
2,50,82,26
2,47,91,46
2,47,100,90
2,47,100,352
2,45,100,10
2,45,91,90
2,43,100,368
2,43,100,168
2,42,100,388
2,47,100,474
2,50,73,16
2,47,100,10
2,47,91,36
2,47,100,112
2,45,100,388
2,45,100,20
2,45,100,90
2,43,100,452
2,43,100,100
2,42,100,88
2,42,100,90
2,38,100,30
2,40,109,16
2,28,110,96
2,52,109,132
2,50,82,16
2,47,91,24
2,47,100,84
2,47,100,350
2,45,73,32
2,45,91,90
2,45,91,378
2,43,82,24
2,43,100,96
2,47,91,916
2,50,73,24
2,47,91,20
2,47,91,30
2,47,91,110
2,45,100,372
2,45,91,202
2,43,100,368
2,43,60,26
2,43,100,96
2,42,100,126
2,42,100,120
2,38,100,14
2,40,100,14
2,28,110,16
2,52,73,132
2,50,82,26
2,47,91,24
2,47,100,90
2,47,100,352
2,45,100,10
2,45,91,90
2,43,100,368
2,43,100,168
2,42,100,388
2,47,100,474
2,50,73,16
2,47,100,10
2,47,91,36
2,47,100,112
2,45,100,388
2,45,100,20
2,45,100,90
2,43,100,452
2,43,100,100
2,42,100,88
2,42,100,90
2,38,100,30
2,40,109,16
2,36,82,10
2,36,91,110
2,36,91,106
2,36,100,72
2,36,91,110
2,36,82,58
2,31,91,132
2,31,82,62
2,36,91,42
2,36,91,78
2,36,91,104
2,31,82,0
2,36,91,16
2,36,82,88
2,36,91,68
2,31,73,136
2,31,82,58
2,36,82,52
2,36,91,96
2,36,91,200
2,36,82,36
2,36,91,88
2,36,82,62
2,31,91,128
2,31,91,48
2,36,91,58
2,36,91,96
2,36,100,100
2,36,91,88
2,36,82,116
2,36,82,64
2,31,82,138
2,31,82,58
2,36,91,48
2,36,91,96
2,36,91,106
2,36,91,78
2,36,100,106
2,36,91,64
2,31,82,244
2,36,100,40
2,36,91,94
2,36,91,112
2,36,82,88
2,36,73,116
2,36,91,64
2,31,82,190
2,36,91,48
2,36,91,90
2,36,82,106
2,31,91,16
2,36,91,30
2,36,91,94
2,36,91,58
2,36,82,148
2,38,82,26
2,36,82,36
2,36,91,104
2,36,82,116
2,31,73,16
2,36,91,30
2,36,91,112
2,36,91,58
2,31,91,104
2,31,82,64
2,36,91,56
2,36,91,106
2,38,100,126
2,36,91,58
2,36,91,94
2,38,100,96
2,38,100,94
2,36,82,20
2,38,82,16
2,28,110,0
2,52,109,132
2,50,82,16
2,47,91,24
2,47,100,84
2,47,100,350
2,45,73,32
2,45,91,90
2,45,91,378
2,43,82,24
2,43,100,96
2,47,91,916
2,50,73,24
2,47,91,20
2,47,91,30
2,47,91,110
2,45,100,372
2,45,91,106
2,45,91,24
2,43,100,368
2,43,60,26
2,43,100,96
2,42,100,126
2,42,100,120
2,38,100,10
2,40,100,10
2,28,108,20
2,52,73,126
2,50,82,26
2,47,91,46
2,47,100,90
2,47,100,352
2,45,100,10
2,45,91,90
2,43,100,368
2,43,100,168
2,42,100,388
2,47,100,474
2,50,73,16
2,47,100,10
2,47,91,36
2,47,100,112
2,45,100,388
2,45,100,20
2,45,82,90
2,43,109,472
2,28,110,1514
2,52,109,132
2,50,82,16
2,47,91,24
2,47,100,84
2,47,100,350
2,45,73,32
2,45,91,90
2,45,91,378
2,43,82,24
2,43,100,96
2,47,91,916
2,50,73,24
2,47,91,20
2,47,91,30
2,47,91,110
2,45,100,372
2,45,91,202
2,43,100,368
2,43,60,26
2,43,100,96
2,42,100,126
2,42,100,120
2,38,100,14
2,40,100,14
2,28,110,16
2,52,73,132
2,50,82,26
2,47,91,24
2,47,100,90
2,47,100,352
2,45,100,10
2,45,91,90
2,43,100,368
2,43,100,168
2,42,100,388
2,47,100,474
2,50,73,16
2,47,100,10
2,47,91,36
2,47,100,112
2,45,100,388
2,45,100,20
2,45,100,90
2,43,100,452
2,43,100,100
2,42,100,88
2,42,100,90
2,38,100,30
2,40,109,16
2,36,82,10
2,36,91,110
2,36,91,106
2,36,100,72
2,36,91,110
2,36,82,58
2,31,91,132
2,31,82,62
2,36,91,42
2,36,91,78
2,36,91,104
2,31,82,0
2,36,91,16
2,36,82,88
2,36,91,68
2,31,73,136
2,31,82,58
2,36,82,52
2,36,91,96
2,36,91,200
2,36,82,36
2,36,91,88
2,36,82,62
2,31,91,128
2,31,91,48
2,36,91,58
2,36,91,96
2,36,100,100
2,36,91,88
2,36,82,116
2,36,82,64
2,31,82,138
2,31,82,58
2,36,91,48
2,36,91,96
2,36,91,106
2,36,91,78
2,36,100,106
2,36,91,64
2,31,82,244
2,36,100,40
2,36,91,94
2,36,91,112
2,36,82,88
2,36,73,116
2,36,91,64
2,31,82,190
2,36,91,48
2,36,91,90
2,36,82,106
2,31,91,16
2,36,91,30
2,36,91,94
2,36,91,58
2,36,82,148
2,38,82,26
2,36,82,36
2,36,91,104
2,36,82,116
2,31,73,16
2,36,91,30
2,36,91,112
2,36,91,58
2,31,91,104
2,31,82,64
2,36,91,56
2,36,91,106
2,38,100,126
2,36,91,58
2,36,91,94
2,38,100,96
2,38,100,94
2,36,82,20
2,38,82,16
2,28,110,0
2,52,109,132
2,50,82,16
2,47,91,24
2,47,100,84
2,47,100,350
2,45,73,32
2,45,91,90
2,45,91,378
2,43,82,24
2,43,100,96
2,47,91,916
2,50,73,24
2,47,91,20
2,47,91,30
2,47,91,110
2,45,100,372
2,45,91,106
2,45,91,24
2,43,100,368
2,43,60,26
2,43,100,96
2,42,100,126
2,42,100,120
2,38,100,10
2,40,100,10
2,28,108,20
2,52,73,126
2,50,82,26
2,47,91,46
2,47,100,90
2,47,100,352
2,45,100,10
2,45,91,90
2,43,100,368
2,43,100,168
2,42,100,388
2,47,100,474
2,50,73,16
2,47,100,10
2,47,91,36
2,47,100,112
2,45,100,388
2,45,100,20
2,45,100,90
2,43,100,452
2,43,100,100
2,42,100,88
2,42,100,90
2,38,100,30
2,40,109,16
2,28,110,10
2,52,109,132
2,50,82,16
2,47,91,24
2,47,100,84
2,47,100,350
2,45,73,32
2,45,91,90
2,45,91,378
2,43,82,24
2,43,100,96
2,47,91,916
2,50,73,24
2,47,91,20
2,47,91,30
2,47,91,110
2,45,100,372
2,45,91,202
2,43,100,368
2,43,60,26
2,43,100,96
2,42,100,126
2,42,100,120
2,38,100,14
2,40,100,14
2,28,110,16
2,52,73,132
2,50,82,26
2,47,91,24
2,47,100,90
2,47,100,352
2,45,100,10
2,45,91,90
2,43,100,368
2,43,100,168
2,42,100,388
2,47,100,474
2,50,73,16
2,47,100,10
2,47,91,36
2,47,100,112
2,45,100,388
2,45,100,20
2,45,100,90
2,43,109,480
2,40,100,1534
2,40,109,5860
2,36,91,10404
2,36,82,116
2,36,91,122
2,36,91,78
2,36,100,112
2,36,91,48
2,31,91,174
2,36,100,32
2,36,100,94
2,36,100,112
2,36,91,56
2,36,91,110
2,36,109,56
2,31,91,90
2,36,82,46
2,36,91,84
2,36,91,110
2,31,100,32
2,36,91,20
2,36,91,84
2,36,91,64
2,36,91,158
2,38,73,10
2,36,82,24
2,36,82,94
2,36,91,132
2,31,91,192
2,36,100,8
2,36,91,94
2,36,91,62
2,36,100,104
2,36,91,56
2,31,91,36
2,31,100,96
2,31,100,128
2,31,100,58
2,31,91,116
2,31,100,62
2,40,100,80
2,35,91,24
2,40,91,30
2,30,110,96
2,54,109,132
2,52,82,16
2,49,91,24
2,49,100,84
2,49,100,350
2,47,73,32
2,47,91,90
2,47,91,378
2,45,82,24
2,45,100,96
2,49,91,916
2,49,91,106
2,49,91,30
2,49,91,110
2,47,100,372
2,47,91,106
2,47,91,24
2,45,100,368
2,45,60,26
2,45,100,96
2,44,100,126
2,44,100,120
2,40,100,10
2,42,100,10
2,30,108,20
2,54,73,126
2,52,82,26
2,49,91,46
2,49,100,90
2,49,100,352
2,47,100,10
2,47,91,90
2,45,100,368
2,45,100,168
2,44,100,388
2,42,91,90
2,42,82,30
2,52,73,256
2,49,100,10
2,49,91,36
2,49,100,112
2,47,100,388
2,47,100,72
2,47,100,26
2,45,100,356
2,45,100,30
2,45,100,100
2,44,100,88
2,44,100,90
2,40,100,30
2,42,109,16
2,30,108,96
2,54,73,126
2,52,82,26
2,49,91,46
2,49,100,90
2,49,100,352
2,47,100,10
2,47,91,90
2,45,100,368
2,45,100,168
2,44,100,388
2,42,91,90
2,42,82,30
2,49,91,160
2,52,73,30
2,49,100,10
2,49,91,36
2,49,100,112
2,47,100,388
2,47,100,72
2,47,82,26
2,45,91,442
2,45,100,12968
2,30,91,1524
2,54,91,104
2,52,91,14
2,49,91,10
2,49,100,96
2,49,100,328
2,47,82,20
2,47,91,96
2,47,100,340
2,45,91,10
2,45,91,72
2,49,100,894
2,49,100,78
2,49,82,26
2,49,100,96
2,47,100,328
2,47,91,20
2,47,91,94
2,45,100,480
2,45,91,80
2,44,100,126
2,44,100,90
2,40,91,10
2,42,100,16
2,30,106,48
2,54,100,152
2,52,82,10
2,49,91,26
2,49,100,80
2,49,91,334
2,47,82,16
2,47,91,88
2,47,100,366
2,45,73,26
2,45,100,88
2,49,100,942
2,52,82,4
2,49,91,4
2,49,91,30
2,49,100,100
2,47,91,46
2,47,100,20
2,45,91,40
2,45,100,14
2,44,100,40
2,44,100,32
2,40,82,24
2,42,100,14
2,30,91,10
2,54,91,72
2,52,91,14
2,49,91,10
2,49,100,72
2,49,100,8
2,47,82,20
2,47,91,14
2,47,100,40
2,45,91,10
2,45,91,32
2,49,100,122
2,49,100,78
2,49,82,26
2,49,100,96
2,47,100,328
2,47,91,20
2,47,91,94
2,45,100,480
2,45,91,80
2,44,100,126
2,44,100,90
2,40,91,10
2,42,100,16
3,38,111,17664
3,38,111,52
3,33,111,46
3,33,111,46
3,40,111,26
3,40,111,52
3,38,111,5582
3,38,111,52
3,33,111,46
3,33,111,46
3,40,111,26
3,40,111,52
3,38,111,31694
3,38,111,52
3,33,111,46
3,33,111,46
3,40,111,26
3,40,111,52
3,33,100,5294
3,38,100,24
3,33,82,52
3,38,100,26
3,38,60,52
3,33,100,20
3,33,73,40
3,40,100,14
3,40,91,58
3,38,111,32410
3,38,111,52
3,33,111,46
3,33,111,46
3,40,111,26
3,40,111,52
3,33,100,5390
3,33,82,52
3,38,100,26
3,38,60,52
3,33,100,20
3,33,73,40
3,40,100,14
3,40,91,58
3,38,111,5530
3,38,111,52
3,33,111,46
3,33,111,46
3,40,111,26
3,40,111,52
3,38,111,5582
3,38,111,52
3,33,111,46
3,33,111,46
3,40,111,26
3,40,111,52
3,40,111,3662
3,40,111,52
3,35,111,46
3,35,111,46
3,40,111,26
3,40,111,52
3,33,100,4910
3,38,100,24
3,33,82,52
3,38,100,26
3,38,60,52
3,33,100,20
3,33,73,40
3,40,100,14
3,40,91,58
4,76,91,27056
4,76,91,12
4,76,70,12
4,76,100,42
4,79,100,172
4,78,100,122
4,74,100,14
4,76,100,448
4,76,100,86
4,79,91,38
4,78,91,118
4,74,100,42
4,71,73,256
4,76,91,32
4,76,91,30
4,76,82,92
4,79,91,50
4,81,100,74
4,79,91,84
4,78,91,112
4,79,91,36
4,78,91,76
4,71,100,262
4,76,109,74
4,71,91,18
4,76,91,72
4,79,91,76
4,78,100,202
4,74,100,10
4,76,100,264
4,76,91,26
4,71,73,92
4,76,91,40
4,79,82,84
4,81,91,38
4,79,100,46
4,76,100,308
4,76,82,20
4,76,100,82
4,79,91,86
4,81,100,76
4,79,91,86
4,78,100,96
4,78,100,100
4,76,100,202
4,69,73,288
4,74,91,22
4,71,100,30
4,69,91,0
4,67,91,14
4,69,91,16
4,69,82,48
4,69,82,48
4,69,91,60
4,74,82,184
4,76,91,86
4,71,91,8
4,67,73,78
4,69,100,38
4,69,82,58
4,69,91,36
4,74,82,44
4,76,91,100
4,74,82,504
4,77,91,138
4,67,93,160
4,69,100,36
4,74,91,36
4,71,91,24
4,67,82,22
4,69,91,86
4,69,73,48
4,69,82,118
4,74,91,66
4,76,100,96
4,71,100,20
4,67,73,244
4,69,91,44
4,69,91,58
4,69,82,12
4,74,100,46
4,76,91,78
4,74,91,8
4,65,91,62
4,67,91,56
4,69,100,56
4,72,82,38
4,69,109,88
4,67,73,0
4,69,100,48
4,79,91,144
4,79,91,190
4,78,91,54
4,79,82,12
4,76,91,672
4,76,100,88
4,76,91,106
4,78,91,48
4,78,91,192
4,78,91,6
4,74,100,8
4,76,91,274
4,76,91,96
4,76,82,96
4,76,91,56
4,79,82,58
4,79,91,136
4,78,91,6
4,79,91,168
4,79,82,826
4,79,91,182
4,78,91,64
4,79,73,12
4,76,91,622
4,76,91,78
4,76,82,106
4,76,91,64
4,78,82,58
4,78,91,122
4,74,91,10
4,76,91,288
4,76,91,104
4,76,82,102
4,76,82,70
4,79,82,30
4,79,91,134
4,78,91,40
4,79,100,82
4,83,91,1856
4,81,91,18
4,76,83,26
4,78,91,90
4,74,100,10
4,76,82,260
4,76,91,76
4,76,91,88
4,79,100,146
4,79,91,6
4,78,73,0
4,76,91,214
4,76,91,28
4,76,100,8
4,79,91,80
4,79,100,94
4,78,82,28
4,79,73,0
4,76,91,78
4,76,100,448
4,76,100,114
4,76,100,108
4,76,100,58
4,79,91,86
4,78,91,116
4,74,91,8
4,76,91,248
4,76,91,90
4,76,82,114
4,79,91,68
4,79,91,54
4,78,64,8
4,76,91,398
4,76,73,24
4,76,91,114
4,79,100,70
4,81,100,88
4,79,91,54
4,78,91,136
4,78,73,160
4,78,64,10
4,71,100,98
4,69,73,88
4,74,91,22
4,71,100,30
4,69,91,0
4,67,91,14
4,69,91,16
4,69,82,48
4,69,82,48
4,69,91,60
4,74,82,184
4,76,91,86
4,71,91,8
4,67,73,78
4,69,100,38
4,69,82,58
4,69,91,36
4,74,82,44
4,76,91,100
4,77,91,22
4,77,91,86
4,67,110,156
4,69,100,32
4,74,91,36
4,71,91,24
4,67,82,22
4,69,91,86
4,69,73,48
4,69,82,118
4,74,91,66
4,76,100,96
