track,note,velocity,time
1,42,121,18032
1,56,103,0
1,59,105,0
1,63,103,0
1,42,105,304
1,56,92,0
1,58,101,0
1,66,92,0
1,42,101,328
1,56,87,0
1,59,90,0
1,63,101,0
1,42,107,28
1,56,89,0
1,58,95,0
1,66,99,0
1,57,87,16
1,61,103,0
1,62,107,0
1,66,99,0
1,57,92,224
1,61,103,0
1,62,105,0
1,66,99,0
1,42,103,144
1,56,110,0
1,58,109,0
1,61,107,0
1,66,105,0
1,35,74,212
1,47,80,0
1,59,83,0
1,61,107,0
1,63,99,0
1,66,97,0
1,52,86,368
1,56,99,0
1,59,95,0
1,64,95,0
1,66,99,0
1,54,109,16
1,58,99,0
1,61,103,0
1,66,109,0
1,52,87,52
1,57,95,0
1,61,103,0
1,62,97,0
1,66,99,0
1,52,85,180
1,57,92,0
1,61,99,0
1,62,95,0
1,66,93,0
1,54,105,244
1,56,105,0
1,58,107,0
1,61,105,0
1,66,99,0
1,35,78,16
1,59,85,0
1,61,105,0
1,63,101,0
1,66,103,0
1,52,73,412
1,56,83,0
1,59,92,0
1,64,89,0
1,66,92,0
1,54,97,72
1,58,95,0
1,61,101,0
1,66,107,0
1,52,87,380
1,57,87,0
1,61,99,0
1,62,92,0
1,66,97,0
1,52,92,160
1,57,93,0
1,61,105,0
1,62,99,0
1,66,99,0
1,54,103,144
1,59,95,0
1,64,103,0
1,68,105,0
1,54,107,344
1,58,107,0
1,63,107,0
1,66,103,0
1,47,89,20
1,59,92,0
1,61,107,0
1,66,103,0
1,70,99,0
1,46,101,308
1,58,103,0
1,61,101,0
1,66,97,0
1,68,95,0
1,44,107,140
1,59,103,0
1,63,109,0
1,66,107,0
1,49,109,44
1,59,103,0
1,63,113,0
1,66,111,0
1,54,117,28
1,59,86,0
1,64,105,0
1,68,109,0
1,54,117,288
1,58,107,0
1,63,107,0
1,66,107,0
1,47,86,20
1,59,90,0
1,61,105,0
1,66,105,0
1,70,99,0
1,46,101,40
1,58,103,0
1,61,107,0
1,66,99,0
1,68,99,0
1,44,105,188
1,59,95,0
1,63,111,0
1,66,105,0
1,49,125,408
1,59,103,0
1,63,123,0
1,66,121,0
1,54,126,52
1,59,103,0
1,64,115,0
1,68,119,0
1,54,127,1052
1,61,115,0
1,66,121,0
1,70,119,0
1,59,107,492
1,66,119,0
1,69,103,0
1,64,101,56
1,68,101,0
1,59,107,572
1,66,123,0
1,69,105,0
1,64,86,4
1,68,90,0
1,54,115,272
1,59,86,0
1,64,99,0
1,68,105,0
1,54,119,1084
1,61,109,0
1,66,117,0
1,70,113,0
1,59,107,540
1,66,125,0
1,69,103,0
1,64,97,4
1,68,99,0
1,59,105,460
1,66,123,0
1,69,101,0
1,64,83,28
1,68,89,0
1,42,121,248
1,56,103,0
1,59,105,0
1,63,103,0
1,42,105,304
1,56,92,0
1,58,101,0
1,66,92,0
1,42,101,328
1,56,87,0
1,59,90,0
1,63,101,0
1,42,107,28
1,56,89,0
1,58,95,0
1,66,99,0
1,57,87,16
1,61,103,0
1,62,107,0
1,66,99,0
1,57,92,224
1,61,103,0
1,62,105,0
1,66,99,0
1,42,103,144
1,56,110,0
1,58,109,0
1,61,107,0
1,66,105,0
1,35,74,212
1,47,80,0
1,59,83,0
1,61,107,0
1,63,99,0
1,66,97,0
1,52,86,368
1,56,99,0
1,59,95,0
1,64,95,0
1,66,99,0
1,54,109,16
1,58,99,0
1,61,103,0
1,66,109,0
1,52,87,52
1,57,95,0
1,61,103,0
1,62,97,0
1,66,99,0
1,52,85,180
1,57,92,0
1,61,99,0
1,62,95,0
1,66,93,0
1,54,105,244
1,56,105,0
1,58,107,0
1,61,105,0
1,66,99,0
1,35,78,16
1,59,85,0
1,61,105,0
1,63,101,0
1,66,103,0
1,52,73,412
1,56,83,0
1,59,92,0
1,64,89,0
1,66,92,0
1,54,97,72
1,58,95,0
1,61,101,0
1,66,107,0
1,52,87,380
1,57,87,0
1,61,99,0
1,62,92,0
1,66,97,0
1,52,92,160
1,57,93,0
1,61,105,0
1,62,99,0
1,66,99,0
1,54,103,144
1,59,95,0
1,64,103,0
1,68,105,0
1,54,107,344
1,58,107,0
1,63,107,0
1,66,103,0
1,47,89,20
1,59,92,0
1,61,107,0
1,66,103,0
1,70,99,0
1,46,101,308
1,58,103,0
1,61,101,0
1,66,97,0
1,68,95,0
1,44,107,140
1,59,103,0
1,63,109,0
1,66,107,0
1,49,109,44
1,59,103,0
1,63,113,0
1,66,111,0
1,54,117,28
1,59,86,0
1,64,105,0
1,68,109,0
1,54,117,288
1,58,107,0
1,63,107,0
1,66,107,0
1,47,86,20
1,59,90,0
1,61,105,0
1,66,105,0
1,70,99,0
1,46,101,40
1,58,103,0
1,61,107,0
1,66,99,0
1,68,99,0
1,44,105,188
1,59,95,0
1,63,111,0
1,66,105,0
1,49,125,408
1,59,103,0
1,63,123,0
1,66,121,0
1,54,126,52
1,59,103,0
1,64,115,0
1,68,119,0
1,54,127,1052
1,61,115,0
1,66,121,0
1,70,119,0
1,59,107,492
1,66,119,0
1,69,103,0
1,64,101,56
1,68,101,0
1,59,107,572
1,66,123,0
1,69,105,0
1,64,86,4
1,68,90,0
1,54,115,272
1,59,86,0
1,64,99,0
1,68,105,0
1,54,119,1084
1,61,109,0
1,66,117,0
1,70,113,0
1,59,107,540
1,66,125,0
1,69,103,0
1,64,97,4
1,68,99,0
1,59,105,460
1,66,123,0
1,69,101,0
1,64,83,28
1,68,89,0
1,54,126,248
1,59,109,0
1,64,119,0
1,68,121,0
1,54,127,420
1,61,115,0
1,66,117,0
1,70,121,0
1,47,89,4
1,59,99,0
1,63,117,0
1,66,113,0
1,46,123,52
1,58,115,0
1,61,119,0
1,66,115,0
1,44,115,32
1,59,103,0
1,63,123,0
1,66,119,0
1,49,125,456
1,59,113,0
1,63,125,0
1,66,119,0
1,70,117,0
1,54,126,28
1,59,103,0
1,64,115,0
1,68,119,0
1,54,127,1052
1,61,115,0
1,66,121,0
1,70,119,0
1,59,107,492
1,66,119,0
1,69,103,0
1,64,101,56
1,68,101,0
1,59,107,572
1,66,123,0
1,69,105,0
1,64,86,4
1,68,90,0
1,54,115,272
1,59,86,0
1,64,99,0
1,68,105,0
1,54,119,1084
1,61,109,0
1,66,117,0
1,70,113,0
1,59,107,540
1,66,125,0
1,69,103,0
1,64,97,4
1,68,99,0
1,59,105,460
1,66,123,0
1,69,101,0
1,64,83,28
1,68,89,0
1,54,126,248
1,59,103,0
1,64,115,0
1,68,119,0
1,54,127,1052
1,61,115,0
1,66,121,0
1,70,119,0
1,59,107,492
1,66,119,0
1,69,103,0
1,64,101,56
1,68,101,0
1,59,107,572
1,66,123,0
1,69,105,0
1,64,86,4
1,68,90,0
1,54,115,272
1,59,86,0
1,64,99,0
1,68,105,0
1,54,119,1084
1,61,109,0
1,66,117,0
1,70,113,0
1,59,107,540
1,66,125,0
1,69,103,0
1,64,97,4
1,68,99,0
1,59,105,460
1,66,123,0
1,69,101,0
1,64,83,28
1,68,89,0
1,52,99,18680
1,56,109,0
1,59,93,0
1,63,95,0
1,52,99,3796
1,56,105,0
1,59,93,0
1,63,97,0
1,52,99,3152
1,56,109,0
1,59,93,0
1,63,95,0
1,52,99,3796
1,56,105,0
1,59,93,0
1,63,97,0
1,52,95,3152
1,56,101,0
1,59,92,0
1,63,93,0
1,42,115,484
1,56,115,0
1,58,117,0
1,66,105,0
1,42,126,1824
1,52,113,0
1,56,125,0
1,59,115,0
1,63,113,0
1,42,123,328
1,54,119,0
1,58,123,0
1,61,115,0
1,55,107,188
1,59,115,0
1,62,117,0
1,57,103,84
1,61,119,0
1,64,113,0
1,59,105,76
1,63,117,0
1,66,117,0
1,59,97,48
1,63,111,0
1,66,117,0
1,42,126,16
1,52,107,0
1,56,123,0
1,59,111,0
1,63,111,0
1,42,123,336
1,54,123,0
1,58,119,0
1,61,117,0
1,55,107,264
1,59,113,0
1,62,113,0
1,57,95,412
1,61,117,0
1,64,107,0
1,59,105,308
1,63,123,0
1,66,123,0
1,59,97,48
1,63,113,0
1,66,115,0
1,42,123,592
1,52,111,0
1,56,123,0
1,59,111,0
1,63,111,0
1,42,115,40
1,54,125,0
1,58,115,0
1,61,115,0
1,55,109,272
1,59,119,0
1,62,115,0
1,57,97,4
1,61,119,0
1,64,105,0
1,59,107,332
1,63,125,0
1,66,125,0
1,59,111,40
1,63,123,0
1,66,117,0
2,30,122,18012
2,30,108,48
2,39,118,20
2,39,108,72
2,30,110,20
2,30,125,428
2,30,102,988
2,30,108,60
2,32,118,20
2,28,104,32
2,30,120,88
2,34,116,36
2,34,110,92
2,39,110,56
2,39,124,428
2,40,108,600
2,42,100,72
2,35,80,52
2,36,77,96
2,37,108,0
2,28,100,8
2,32,116,12
2,31,81,96
2,30,110,0
2,39,114,16
2,39,96,60
2,30,104,16
2,30,112,432
2,42,96,16
2,42,104,20
2,44,100,96
2,40,102,32
2,30,108,12
2,39,104,12
2,39,98,56
2,27,106,20
2,28,88,40
2,30,116,228
2,30,118,16
2,28,116,12
2,28,120,184
2,42,126,204
2,42,88,60
2,39,118,80
2,37,100,4
2,30,120,32
2,35,125,408
2,35,94,560
2,35,112,124
2,35,96,116
2,30,120,96
2,29,98,8
2,28,112,48
2,28,114,372
2,28,114,96
2,30,126,380
2,30,122,20
2,28,116,100
2,28,108,180
2,42,122,156
2,42,116,104
2,39,96,96
2,37,73,72
2,42,110,80
2,35,114,420
2,35,96,552
2,35,98,120
2,33,92,140
2,30,116,32
2,29,91,192
2,28,112,36
2,28,96,372
2,28,102,88
2,40,100,8
2,30,118,148
2,30,125,4
2,28,118,20
2,28,114,228
2,30,122,244
2,30,110,56
2,30,124,416
2,30,68,144
2,30,89,80
2,30,125,428
2,30,120,696
2,30,104,140
2,30,108,80
2,30,110,404
2,35,104,112
2,35,89,36
2,35,85,384
2,34,122,104
2,32,126,476
2,32,124,668
2,35,92,316
2,36,89,96
2,37,110,84
2,28,66,28
2,32,106,0
2,31,77,96
2,30,118,88
2,30,122,464
2,30,112,140
2,30,104,60
2,30,126,412
2,30,108,700
2,30,114,136
2,30,106,60
2,30,112,412
2,35,110,120
2,35,102,500
2,34,124,104
2,32,126,472
2,37,126,472
2,30,120,124
2,28,106,28
2,28,85,292
2,30,120,92
2,30,126,456
2,28,94,652
2,30,114,104
2,28,74,148
2,30,116,16
2,29,85,28
2,28,96,8
2,23,92,188
2,28,94,4
2,28,94,36
2,23,79,180
2,28,96,48
2,26,91,96
2,25,106,76
2,23,91,96
2,30,120,112
2,28,81,192
2,28,80,284
2,30,108,72
2,30,126,464
2,28,96,624
2,30,112,84
2,28,68,152
2,30,114,40
2,29,85,24
2,28,92,0
2,23,104,196
2,28,100,40
2,28,109,32
2,23,71,48
2,28,96,44
2,26,89,84
2,25,112,48
2,23,98,56
2,30,122,200
2,30,108,48
2,39,118,20
2,39,108,72
2,30,110,20
2,30,125,428
2,30,102,988
2,30,108,60
2,32,118,20
2,28,104,32
2,30,120,88
2,34,116,36
2,34,110,92
2,39,110,56
2,39,124,428
2,40,108,600
2,42,100,72
2,35,80,52
2,36,77,96
2,37,108,0
2,28,100,8
2,32,116,12
2,31,81,96
2,30,110,0
2,39,114,16
2,39,96,60
2,30,104,16
2,30,112,432
2,42,96,16
2,42,104,20
2,44,100,96
2,40,102,32
2,30,108,12
2,39,104,12
2,39,98,56
2,27,106,20
2,28,88,40
2,30,116,228
2,30,118,16
2,28,116,12
2,28,120,184
2,42,126,204
2,42,88,60
2,39,118,80
2,37,100,4
2,30,120,32
2,35,125,408
2,35,94,560
2,35,112,124
2,35,96,116
2,30,120,96
2,29,98,8
2,28,112,48
2,28,114,372
2,28,114,96
2,30,126,380
2,30,122,20
2,28,116,100
2,28,108,180
2,42,122,156
2,42,116,104
2,39,96,96
2,37,73,72
2,42,110,80
2,35,114,420
2,35,96,552
2,35,98,120
2,33,92,140
2,30,116,32
2,29,91,192
2,28,112,36
2,28,96,372
2,28,102,88
2,40,100,8
2,30,118,148
2,30,125,4
2,28,118,20
2,28,114,228
2,30,122,244
2,30,110,56
2,30,124,416
2,30,68,144
2,30,89,80
2,30,125,428
2,30,120,696
2,30,104,140
2,30,108,80
2,30,110,404
2,35,104,112
2,35,89,36
2,35,85,384
2,34,122,104
2,32,126,476
2,32,124,668
2,35,92,316
2,36,89,96
2,37,110,84
2,28,66,28
2,32,106,0
2,31,77,96
2,30,118,88
2,30,122,464
2,30,112,140
2,30,104,60
2,30,126,412
2,30,108,700
2,30,114,136
2,30,106,60
2,30,112,412
2,35,110,120
2,35,102,500
2,34,124,104
2,32,126,472
2,37,126,472
2,30,120,124
2,28,106,28
2,28,85,292
2,30,120,92
2,30,126,456
2,28,94,652
2,30,114,104
2,28,74,148
2,30,116,16
2,29,85,28
2,28,96,8
2,23,92,188
2,28,94,4
2,28,94,36
2,23,79,180
2,28,96,48
2,26,91,96
2,25,106,76
2,23,91,96
2,30,120,112
2,28,81,192
2,28,80,284
2,30,108,72
2,30,126,464
2,28,96,624
2,30,112,84
2,28,68,152
2,30,114,40
2,29,85,24
2,28,92,0
2,23,104,196
2,28,100,40
2,28,109,32
2,23,71,48
2,28,96,44
2,26,89,84
2,25,112,48
2,23,98,56
2,30,125,200
2,30,125,128
2,27,114,96
2,25,104,80
2,30,125,88
2,30,126,432
2,25,110,632
2,27,108,12
2,30,112,16
2,30,120,104
2,27,106,20
2,25,98,36
2,35,104,64
2,35,91,408
2,34,122,96
2,32,126,376
2,37,126,440
2,30,125,88
2,28,100,192
2,28,96,300
2,30,118,64
2,30,124,460
2,28,100,516
2,30,120,92
2,28,75,104
2,30,120,32
2,29,100,16
2,28,106,20
2,42,126,432
2,40,102,192
2,28,122,428
2,40,102,16
2,26,108,40
2,38,102,192
2,25,98,64
2,37,110,192
2,23,96,24
2,35,86,192
2,30,122,68
2,28,94,4
2,28,100,316
2,30,122,72
2,30,125,464
2,28,106,616
2,30,118,92
2,28,69,64
2,30,122,56
2,29,100,0
2,28,110,32
2,42,122,424
2,40,108,192
2,28,122,396
2,40,104,24
2,26,88,44
2,38,100,192
2,25,102,76
2,37,114,192
2,23,92,44
2,35,98,0
2,30,118,88
2,28,104,16
2,28,102,308
2,30,122,80
2,35,106,452
2,36,96,96
2,37,104,88
2,28,98,400
2,30,118,76
2,28,82,64
2,30,124,36
2,29,106,12
2,28,110,64
2,42,126,144
2,40,112,0
2,28,116,636
2,40,102,40
2,26,104,80
2,38,98,192
2,25,104,80
2,37,118,192
2,23,104,20
2,35,88,36
2,30,124,52
2,28,102,4
2,28,104,300
2,30,125,92
2,30,124,464
2,28,114,452
2,30,122,92
2,28,70,32
2,30,124,60
2,29,110,20
2,28,114,32
2,42,126,444
2,40,112,8
2,28,125,348
2,40,120,24
2,26,116,44
2,38,120,192
2,25,110,44
2,37,122,192
2,23,98,68
2,35,120,0
2,30,126,76
2,40,126,1808
2,40,126,1072
2,40,126,184
2,30,126,204
2,40,126,1864
2,40,126,1328
2,40,126,204
2,30,126,224
2,40,126,1808
2,40,126,1072
2,40,126,184
2,30,122,32556
2,25,96,172
2,28,85,68
2,30,116,84
2,30,124,436
2,30,84,360
2,25,98,96
2,28,88,60
2,30,124,80
2,30,124,628
2,25,110,172
2,28,88,72
2,30,116,76
2,30,125,440
2,30,91,348
2,25,96,96
2,28,88,44
2,30,114,72
2,28,96,440
2,30,120,44
2,25,114,208
2,28,88,60
2,30,116,84
2,30,125,440
2,30,89,340
2,25,94,96
2,28,100,56
2,30,116,72
2,28,80,448
2,30,102,64
2,25,98,232
2,28,102,68
2,30,110,84
2,30,125,452
2,30,91,368
2,25,89,96
2,28,96,44
2,30,91,52
2,42,122,24
2,40,81,92
2,37,104,0
2,35,76,4
2,30,118,104
2,25,92,216
2,28,94,68
2,30,112,68
2,30,120,452
2,30,88,340
2,25,80,0
2,28,96,72
2,30,118,76
2,28,98,468
2,30,112,68
2,25,100,252
2,28,92,92
