track,note,velocity,time
1,54,114,2206
1,54,116,26
1,49,116,108
1,49,116,21
1,46,127,72
1,42,105,6
2,32,119,3078
2,30,109,93
2,29,122,81
2,39,127,92
2,37,109,86
2,35,112,88
2,34,122,93
2,32,116,84
2,30,107,89
2,30,114,90
2,30,114,188
2,30,112,274
2,32,122,582
2,30,112,89
2,29,124,84
2,39,127,85
2,37,114,90
2,35,112,85
2,34,127,91
2,32,122,84
2,30,109,85
2,30,114,90
2,30,116,192
2,30,114,282
2,32,119,585
2,30,109,85
2,29,124,84
2,39,127,89
2,37,112,88
2,35,109,86
2,34,116,89
2,32,116,86
2,30,107,81
2,30,109,94
2,30,114,198
2,30,114,294
2,34,124,587
2,36,124,90
2,37,109,88
2,38,114,83
2,39,124,87
2,40,112,88
2,29,122,89
2,30,112,87
2,31,112,49
2,32,122,45
2,32,119,1444
2,32,119,52
2,34,127,46
2,39,124,15
2,41,127,67
2,34,127,287
2,34,127,88
2,36,122,46
2,37,82,0
2,38,84,2
2,39,119,3
2,34,122,45
2,39,119,7
2,32,119,223
2,32,116,57
2,34,122,45
2,39,116,7
2,41,127,61
2,34,124,279
2,34,127,87
2,36,114,42
2,37,89,5
2,38,89,1
2,39,119,2
2,34,122,0
2,39,122,8
2,32,119,216
2,32,122,59
2,34,122,49
2,39,119,27
2,41,127,58
2,34,124,277
2,34,124,87
2,36,116,48
2,37,87,5
2,38,93,45
2,39,112,6
2,34,122,0
2,39,119,4
2,32,119,213
2,32,114,58
2,34,122,45
2,39,116,8
2,41,127,57
2,34,124,281
2,34,127,94
2,36,124,46
2,37,93,9
2,38,84,1
2,39,114,7
2,34,119,2
2,39,122,6
2,32,122,104
2,30,109,88
2,29,122,80
2,39,124,93
2,37,112,91
2,35,112,87
2,34,122,88
2,32,122,86
2,30,112,84
2,30,114,86
2,30,119,187
2,30,116,277
2,32,122,574
2,30,109,85
2,29,122,80
2,39,127,91
2,37,109,81
2,35,109,85
2,34,119,82
2,32,119,82
2,30,109,87
2,30,112,82
2,30,114,191
2,30,114,277
2,32,124,573
2,30,112,83
2,29,124,78
2,39,127,90
2,37,109,87
2,35,107,88
2,34,122,87
2,32,119,81
2,30,109,81
2,30,112,89
2,30,114,199
2,30,114,267
2,34,122,575
2,36,116,88
2,37,107,91
2,38,109,85
2,39,122,83
2,40,107,84
2,29,122,91
2,30,109,88
2,31,112,52
2,32,119,47
2,32,116,1444
2,32,112,49
2,34,124,47
2,39,114,18
2,41,127,56
2,34,127,282
2,34,127,89
2,36,124,42
2,37,89,1
2,38,94,45
2,39,116,11
2,34,122,3
2,39,116,3
2,32,116,225
2,32,116,55
2,34,116,47
2,39,119,16
2,41,127,59
2,34,122,287
2,34,124,90
2,36,119,40
2,37,89,3
2,38,84,5
2,39,114,8
2,34,122,2
2,39,124,6
2,32,119,216
2,32,119,57
2,34,122,49
2,39,119,9
2,41,127,63
2,34,124,297
2,34,127,89
2,36,119,41
2,37,87,6
2,38,91,6
2,39,109,2
2,34,119,5
2,39,124,7
2,32,119,210
2,32,116,55
2,34,124,52
2,39,119,18
2,41,127,64
2,34,127,282
2,34,124,91
2,36,122,44
2,37,84,4
2,38,67,2
2,39,114,46
2,34,124,43
2,39,124,6
2,32,124,217
2,32,119,9
2,30,112,45
2,29,124,86
2,39,127,89
2,37,107,88
2,35,107,81
2,34,124,86
2,32,122,90
2,30,109,87
2,30,112,89
2,30,112,204
2,30,112,271
2,30,114,287
2,32,124,196
2,30,107,90
2,29,122,81
2,39,127,92
2,37,105,87
2,35,105,79
2,34,124,84
2,32,119,78
2,30,112,84
2,30,112,84
2,30,112,196
2,30,114,291
2,32,119,581
2,30,109,91
2,29,122,84
2,39,127,92
2,37,107,87
2,35,101,81
2,34,124,87
2,32,122,84
2,30,112,90
2,30,114,90
2,30,112,201
2,30,109,282
2,30,112,294
2,34,122,187
2,36,122,91
2,37,107,89
2,38,109,85
2,39,119,86
2,40,109,85
2,29,124,95
2,30,107,83
2,31,112,50
2,32,116,57
2,32,114,1450
2,32,114,62
2,34,124,49
2,39,112,22
2,41,127,51
2,34,119,283
2,34,122,89
2,36,116,39
2,37,82,4
2,38,85,1
2,39,109,4
2,34,122,1
2,39,122,5
2,32,119,212
2,32,112,60
2,34,119,54
2,39,116,30
2,41,127,65
2,34,124,265
2,34,122,95
2,36,119,42
2,37,87,7
2,38,84,46
2,39,112,9
2,34,119,4
2,39,122,7
2,32,119,221
2,32,114,59
2,34,124,45
2,39,119,34
2,41,127,61
2,34,124,284
2,34,122,92
2,36,119,38
2,37,81,4
2,38,81,2
2,39,112,5
2,34,122,46
2,39,119,8
2,32,116,220
2,32,116,63
2,34,122,54
2,39,116,37
2,41,127,56
2,34,124,294
2,34,124,92
2,36,122,46
2,37,87,6
2,38,84,3
2,39,119,5
2,34,124,3
2,39,122,7
2,32,116,230
2,32,114,64
2,34,122,49
2,39,114,25
2,41,127,62
2,34,122,299
2,34,124,92
2,36,119,46
2,37,82,3
2,38,84,47
2,39,107,2
2,34,122,5
2,39,116,8
2,32,119,224
2,32,119,67
2,34,124,48
2,39,116,21
2,41,127,55
2,34,124,292
2,34,127,98
2,36,116,41
2,37,89,9
2,38,82,0
2,39,109,4
2,34,119,1
2,39,119,13
2,32,119,221
2,32,107,49
2,34,124,55
2,39,112,11
2,41,124,67
2,34,124,296
2,34,124,98
2,36,119,43
2,37,85,7
2,38,75,0
2,39,103,5
2,34,122,1
2,39,122,9
2,32,116,220
2,32,116,74
2,34,122,50
2,39,114,20
2,41,127,51
2,34,119,288
2,34,127,97
2,36,119,43
2,37,85,8
2,38,81,45
2,39,112,3
2,34,122,5
2,39,122,9
2,32,119,221
2,32,116,66
2,34,122,48
2,39,114,29
2,41,127,62
2,34,124,289
2,34,124,90
2,36,122,47
2,37,82,7
2,38,77,46
2,39,107,7
2,34,116,6
2,39,122,12
2,32,114,225
2,32,114,67
2,34,122,49
2,39,116,23
2,41,127,57
2,34,124,298
2,34,124,95
2,36,119,39
2,37,84,0
2,38,73,2
2,39,112,0
2,34,122,1
2,39,124,11
2,32,119,231
2,32,119,59
2,34,122,44
2,39,119,33
2,41,124,58
3,32,122,1
3,30,109,87
3,29,127,89
3,39,127,97
3,37,109,110
3,35,114,87
3,34,124,92
3,32,122,95
3,30,109,89
3,30,109,89
3,41,124,8
3,42,85,45
3,30,109,40
3,30,112,91
3,41,124,5
3,42,89,39
3,30,109,47
3,30,112,89
3,41,127,11
3,42,87,42
3,30,109,43
3,30,112,91
3,44,119,82
3,42,112,86
3,41,124,91
3,39,124,86
3,37,114,85
3,35,109,85
3,34,122,87
3,32,119,82
3,30,112,84
3,30,112,86
3,41,127,8
3,42,81,43
3,30,105,1
3,30,112,94
3,41,124,6
3,42,77,41
3,30,109,46
3,30,114,87
3,41,127,5
3,42,79,35
3,30,109,47
3,41,127,2
3,42,76,44
3,30,112,40
3,44,116,87
3,42,112,89
3,41,116,87
3,39,124,92
3,37,109,88
3,35,107,90
3,34,119,86
3,32,119,85
3,30,112,89
3,30,109,85
3,41,124,4
3,42,85,41
3,30,109,45
3,30,112,87
3,41,127,7
3,42,76,40
3,30,109,49
3,30,109,89
3,41,122,4
3,42,77,39
3,30,109,52
3,30,112,92
3,44,116,90
3,42,112,91
3,41,119,89
3,39,122,87
3,37,109,89
3,35,107,87
3,34,116,88
3,32,116,87
3,30,112,89
3,30,109,86
3,41,122,5
3,42,85,40
3,30,109,47
3,30,112,94
3,41,124,9
3,42,93,38
3,30,112,51
3,30,114,92
3,41,122,9
3,42,94,42
3,30,109,43
3,41,127,3
3,42,89,39
3,30,112,45
3,34,127,89
3,36,124,93
3,37,112,91
3,38,114,91
3,39,127,94
3,40,114,95
3,41,127,93
3,42,107,91
3,43,109,58
3,44,122,68
3,32,119,1452
3,32,119,57
3,34,122,49
3,39,119,31
3,41,127,58
3,34,124,277
3,34,124,85
3,36,119,39
3,37,84,2
3,38,84,0
3,39,119,3
3,34,122,50
3,39,124,1
3,32,119,210
3,32,116,72
3,34,116,44
3,39,119,7
3,41,127,57
3,34,122,278
3,34,124,90
3,36,119,43
3,37,85,23
3,38,57,44
3,39,112,49
3,34,122,49
3,39,122,42
3,32,119,214
3,32,114,62
3,34,119,46
3,39,116,11
3,41,127,59
3,34,122,277
3,34,124,92
3,36,112,46
3,37,82,27
3,38,65,44
3,39,114,0
3,34,119,48
3,39,116,4
3,32,119,216
3,32,114,68
3,34,122,45
3,39,122,5
3,41,127,58
3,34,124,282
3,34,122,96
3,36,116,42
3,37,84,5
3,38,65,44
3,39,109,1
3,34,122,52
3,39,124,0
3,44,119,105
3,42,112,96
3,41,124,95
3,39,127,90
3,37,112,91
3,35,109,88
3,34,124,89
3,32,122,85
3,30,112,91
3,30,114,89
3,41,127,6
3,42,94,44
3,30,107,2
3,30,112,91
3,41,124,6
3,42,93,41
3,30,112,5
3,30,114,91
3,41,124,5
3,42,96,40
3,30,114,2
3,30,114,90
3,44,122,96
3,42,114,84
3,41,122,89
3,39,127,82
3,37,112,87
3,35,112,92
3,34,124,88
3,32,119,86
3,30,114,88
3,30,114,88
3,41,124,4
3,42,89,45
3,30,112,1
3,30,116,93
3,41,124,7
3,42,94,40
3,30,112,4
3,30,116,93
3,41,124,6
3,42,75,37
3,30,112,5
3,41,127,1
3,42,91,38
3,30,116,2
3,44,124,92
3,42,114,90
3,41,122,91
3,39,127,85
3,37,109,87
3,35,109,83
3,34,122,86
3,32,119,86
3,30,112,84
3,30,114,91
3,41,127,3
3,42,87,44
3,30,112,11
3,30,114,95
3,41,124,5
3,42,93,40
3,30,114,6
3,30,114,93
3,41,127,2
3,42,89,38
3,30,109,10
3,30,112,89
3,34,119,92
3,36,122,90
3,37,109,81
3,38,112,84
3,39,124,92
3,40,112,87
3,41,124,92
3,42,109,90
3,43,109,56
3,44,124,70
3,32,119,1451
3,32,116,59
3,34,127,46
3,39,116,13
3,41,127,63
3,34,124,285
3,34,127,83
3,36,119,40
3,37,89,9
3,38,91,2
3,39,114,15
3,34,116,8
3,39,124,1
3,32,119,218
3,32,119,61
3,34,124,45
3,39,119,11
3,41,127,63
3,34,119,286
3,34,124,87
3,36,119,46
3,37,89,9
3,38,82,6
3,39,114,12
3,34,119,5
3,39,116,5
3,32,122,219
3,32,114,66
3,34,122,45
3,39,119,7
3,41,127,63
3,34,124,295
3,34,124,91
3,36,116,45
3,37,87,5
3,38,87,52
3,39,116,3
3,34,124,54
3,39,124,6
3,32,116,208
3,32,116,57
3,34,122,46
3,39,116,23
3,41,127,64
3,34,122,286
3,34,124,89
3,36,116,40
3,37,77,2
3,38,82,2
3,39,114,2
3,34,124,55
3,39,127,4
3,44,119,7
3,42,112,101
3,41,124,97
3,39,127,91
3,37,114,92
3,35,109,91
3,34,119,85
3,32,122,85
3,30,109,89
3,30,114,92
3,41,127,3
3,42,77,47
3,30,112,1
3,30,119,94
3,41,127,3
3,42,91,41
3,30,112,5
3,30,114,85
3,41,127,8
3,42,93,39
3,30,114,6
3,30,114,94
3,44,122,90
3,42,112,94
3,41,124,95
3,39,127,92
3,37,112,90
3,35,112,88
3,34,122,90
3,32,122,88
3,30,112,83
3,30,112,89
3,41,124,4
3,42,84,44
3,30,109,6
3,30,112,91
3,41,124,5
3,42,82,43
3,30,107,4
3,30,114,95
3,41,124,7
3,42,79,41
3,30,107,5
3,41,127,99
3,42,82,42
3,30,112,4
3,44,119,91
3,42,114,90
3,41,122,88
3,39,127,87
3,37,114,85
3,35,109,93
3,34,124,90
3,32,122,89
3,30,109,90
3,30,109,91
3,41,127,3
3,42,82,49
3,30,107,8
3,30,114,90
3,41,124,3
3,42,70,46
3,30,109,6
3,30,112,95
3,41,124,11
3,42,87,43
3,30,112,3
3,30,112,86
3,34,124,88
3,36,124,85
3,37,109,86
3,38,112,86
3,39,124,91
3,40,112,87
3,41,124,93
3,42,109,88
3,43,109,55
3,44,122,64
3,32,119,1454
3,32,107,52
3,34,122,47
3,39,119,19
3,41,127,61
3,34,122,296
3,34,124,84
3,36,114,48
3,37,79,6
3,38,72,2
3,39,107,9
3,34,119,45
3,39,124,2
3,32,119,211
3,32,122,64
3,34,122,51
3,39,119,14
3,41,127,68
3,34,124,278
3,34,124,87
3,36,114,45
3,37,75,5
3,38,63,43
3,39,109,6
3,34,116,44
3,39,127,2
3,32,116,219
3,32,119,55
3,34,119,48
3,39,116,17
3,41,127,61
3,34,124,287
3,34,124,89
3,36,119,44
3,37,76,2
3,38,72,54
3,39,101,37
3,34,119,49
3,39,127,2
3,32,119,217
3,32,119,60
3,34,119,48
3,39,119,19
3,41,127,62
3,34,122,282
3,34,124,81
3,36,122,46
3,37,61,21
3,38,37,48
3,39,25,43
3,34,114,41
3,39,124,1
3,32,116,212
3,32,112,53
3,34,124,45
3,39,119,16
3,41,127,55
3,34,122,287
3,34,127,94
3,36,119,46
3,37,85,2
3,38,84,47
3,39,107,3
3,34,122,47
3,39,112,5
3,32,119,211
3,32,116,68
3,34,122,48
3,39,116,26
3,41,127,62
3,34,122,289
3,34,124,93
3,36,119,44
3,37,72,1
3,38,73,57
3,39,119,41
3,34,124,1
3,39,124,7
3,32,122,207
3,32,116,62
3,34,124,49
3,39,119,31
3,41,127,59
3,34,119,288
3,34,124,93
3,36,114,42
3,37,84,25
3,38,79,48
3,39,94,1
3,34,122,51
3,39,124,5
3,32,119,215
3,32,116,60
3,34,122,47
3,39,114,4
3,41,127,62
3,34,122,291
3,34,124,99
3,36,119,40
3,37,72,3
3,38,68,49
3,39,107,42
3,34,119,43
3,39,122,5
3,32,116,217
3,32,119,57
3,34,119,47
3,39,112,9
3,41,127,62
3,34,124,286
3,34,122,90
3,36,116,48
3,37,72,6
3,38,68,51
3,39,101,45
3,34,122,1
3,39,122,6
3,32,119,209
3,32,116,55
3,34,124,50
3,39,119,26
3,41,127,63
3,34,124,292
3,34,124,91
3,36,112,45
3,37,72,6
3,38,82,47
3,39,112,3
3,34,124,1
3,39,124,2
3,32,116,209
3,32,116,57
3,34,124,50
3,39,116,21
3,41,127,59
4,68,112,87
4,63,116,1
4,63,114,170
4,66,98,1
4,63,114,172
4,68,112,0
4,66,98,162
4,63,116,1
4,65,122,161
4,61,85,1
4,63,119,161
4,59,94,0
4,61,94,164
4,56,109,0
4,54,101,165
4,59,98,1
4,66,98,164
4,62,93,1
4,66,105,167
4,61,94,2
4,66,105,170
4,61,93,0
4,61,93,174
4,66,103,0
4,61,96,174
4,66,109,0
4,66,109,172
4,61,98,0
4,61,96,172
4,66,105,1
4,66,107,172
4,61,101,0
4,68,114,169
4,63,119,1
4,63,119,163
4,66,98,1
4,68,112,165
4,63,116,0
4,66,101,165
4,63,116,0
4,65,122,164
4,61,91,0
4,63,124,168
4,59,96,1
4,61,96,172
4,56,112,1
4,59,98,168
4,54,103,1
4,66,96,163
4,61,91,2
4,66,105,165
4,61,96,1
4,66,105,168
4,61,96,0
4,66,107,175
4,61,98,0
4,66,105,171
4,61,98,1
4,61,96,172
4,66,105,0
4,66,107,177
4,61,101,1
4,66,107,172
4,61,103,0
4,68,114,164
4,63,119,1
4,66,101,168
4,63,116,0
4,68,112,167
4,63,116,1
4,66,98,174
4,63,112,1
4,65,119,169
4,61,91,0
4,59,98,173
4,63,119,1
4,61,98,175
4,56,112,1
4,59,103,163
4,54,101,2
4,66,101,161
4,61,93,1
4,61,96,167
4,66,103,0
4,66,105,175
4,61,96,1
4,66,105,170
4,61,98,1
4,66,109,172
4,61,96,1
4,66,105,174
4,61,96,2
4,66,107,175
4,61,96,1
4,66,109,167
4,61,101,1
4,63,116,168
4,68,114,1
4,66,98,169
4,63,112,1
4,63,114,171
4,68,109,0
4,63,119,172
4,66,101,1
4,65,122,172
4,61,91,1
4,63,122,170
4,59,96,1
4,56,114,170
4,61,96,1
4,59,101,168
4,54,101,2
4,66,105,162
4,61,87,3
4,61,96,166
4,66,105,1
4,66,107,170
