track,note,velocity,time
1,77,66,0
1,72,55,0
1,69,55,0
1,65,55,0
1,65,0,960
1,77,0,0
1,72,0,0
1,69,0,0
1,69,50,0
1,69,0,360
1,72,45,0
1,72,0,120
1,70,50,0
1,70,0,360
1,74,45,0
1,74,0,120
1,72,50,0
1,72,0,480
1,65,46,0
1,65,0,240
1,65,46,240
1,65,0,240
1,65,46,240
1,65,0,240
1,67,45,240
1,67,0,80
1,69,41,0
1,69,0,80
1,67,45,0
1,67,0,80
1,69,39,0
1,69,0,60
1,67,45,0
1,67,0,60
1,69,40,0
1,69,0,60
1,67,40,0
1,67,0,60
1,65,50,0
1,65,0,480
1,72,53,0
1,72,0,240
1,69,46,0
1,69,0,240
1,67,50,0
1,67,0,240
1,65,47,0
1,65,0,240
1,67,45,0
1,67,0,80
1,69,41,0
1,69,0,80
1,67,45,0
1,67,0,80
1,69,39,0
1,69,0,60
1,67,45,0
1,67,0,60
1,69,40,0
1,69,0,60
1,67,40,0
1,67,0,60
1,65,50,0
1,65,0,480
1,72,50,480
1,72,0,480
1,74,50,0
1,74,0,360
1,77,46,0
1,77,0,120
1,76,50,0
1,76,0,360
1,74,45,0
1,74,0,120
1,72,50,0
1,72,0,480
1,77,46,0
1,77,0,480
1,70,50,0
1,70,0,80
1,72,45,0
1,72,0,80
1,70,50,0
1,70,0,80
1,72,45,0
1,72,0,80
1,70,50,0
1,70,0,80
1,72,45,0
1,72,0,80
1,70,50,0
1,70,0,80
1,72,45,0
1,72,0,80
1,70,50,0
1,70,0,80
1,72,45,0
1,72,0,60
1,70,50,0
1,70,0,60
1,72,43,0
1,72,0,60
1,70,45,0
1,70,0,60
1,69,50,0
1,69,0,480
1,72,46,0
1,72,0,480
1,74,50,0
1,74,0,360
1,77,46,0
1,77,0,120
1,76,50,0
1,76,0,360
1,74,45,0
1,74,0,120
1,72,50,0
1,72,0,480
1,81,50,0
1,81,0,480
1,79,46,0
1,79,0,480
1,72,48,0
1,72,0,60
1,74,50,0
1,74,0,60
1,76,50,0
1,76,0,350
1,76,49,10
1,76,0,60
1,77,52,0
1,77,0,60
1,79,54,0
1,79,0,360
1,77,52,0
1,77,0,60
1,79,53,0
1,79,0,60
1,81,55,0
1,81,0,360
1,79,46,0
1,79,0,480
1,72,48,0
1,72,0,60
1,74,50,0
1,74,0,60
1,76,50,0
1,76,0,350
1,76,49,10
1,76,0,60
1,77,52,0
1,77,0,60
1,79,54,0
1,79,0,360
1,84,52,0
1,84,0,60
1,83,53,0
1,83,0,60
1,81,55,0
1,81,0,360
1,79,55,0
1,79,0,480
1,77,56,0
1,77,0,120
1,76,48,0
1,76,0,120
1,74,55,0
1,74,0,120
1,72,51,0
1,72,0,120
1,74,50,0
1,74,0,80
1,76,45,0
1,76,0,80
1,74,50,0
1,74,0,80
1,76,45,0
1,76,0,80
1,74,50,0
1,74,0,80
1,76,45,0
1,76,0,80
1,74,50,0
1,74,0,80
1,76,45,0
1,76,0,80
1,74,50,0
1,74,0,80
1,76,45,0
1,76,0,60
1,74,50,0
1,74,0,60
1,76,43,0
1,76,0,60
1,74,45,0
1,74,0,60
1,72,59,0
1,72,0,960
1,79,56,240
1,79,0,240
1,67,50,0
1,67,0,240
1,79,56,0
1,79,0,240
1,69,59,0
1,69,0,240
1,79,53,0
1,79,0,240
1,77,51,0
1,77,0,240
1,76,54,0
1,76,0,240
1,77,59,0
1,77,0,240
1,74,54,0
1,74,0,240
1,72,54,0
1,72,0,240
1,71,46,0
1,71,0,240
1,72,54,0
1,72,0,240
1,71,46,0
1,71,0,240
1,72,55,0
1,72,0,240
1,76,49,0
1,76,0,240
1,72,51,0
1,72,0,240
1,79,59,0
1,79,0,240
1,67,54,0
1,67,0,240
1,79,54,0
1,79,0,240
1,69,56,0
1,69,0,240
1,79,53,0
1,79,0,240
1,77,59,0
1,77,0,240
1,76,53,0
1,76,0,240
1,77,57,0
1,77,0,240
1,74,54,0
1,74,0,240
1,72,54,0
1,72,0,80
1,74,48,0
1,74,0,80
1,72,48,0
1,72,0,80
1,71,57,0
1,71,0,240
1,72,63,0
1,72,0,960
1,77,66,960
1,72,55,0
1,69,55,0
1,65,55,0
1,65,0,960
1,77,0,0
1,72,0,0
1,69,0,0
1,69,50,0
1,69,0,360
1,72,45,0
1,72,0,120
1,70,50,0
1,70,0,360
1,74,45,0
1,74,0,120
1,72,50,0
1,72,0,480
1,65,46,0
1,65,0,240
1,65,46,240
1,65,0,240
1,65,46,240
1,65,0,240
1,67,45,240
1,67,0,80
1,69,41,0
1,69,0,80
1,67,45,0
1,67,0,80
1,69,39,0
1,69,0,60
1,67,45,0
1,67,0,60
1,69,40,0
1,69,0,60
1,67,40,0
1,67,0,60
1,65,50,0
1,65,0,480
1,72,53,0
1,72,0,240
1,69,46,0
1,69,0,240
1,67,50,0
1,67,0,240
1,65,47,0
1,65,0,240
1,67,45,0
1,67,0,80
1,69,41,0
1,69,0,80
1,67,45,0
1,67,0,80
1,69,39,0
1,69,0,60
1,67,45,0
1,67,0,60
1,69,40,0
1,69,0,60
1,67,40,0
1,67,0,60
1,65,50,0
1,65,0,480
1,72,50,480
1,72,0,480
1,74,50,0
1,74,0,360
1,77,46,0
1,77,0,120
1,76,50,0
1,76,0,360
1,74,45,0
1,74,0,120
1,72,50,0
1,72,0,480
1,77,46,0
1,77,0,480
1,70,50,0
1,70,0,80
1,72,45,0
1,72,0,80
1,70,50,0
1,70,0,80
1,72,45,0
1,72,0,80
1,70,50,0
1,70,0,80
1,72,45,0
1,72,0,80
1,70,50,0
1,70,0,80
1,72,45,0
1,72,0,80
1,70,50,0
1,70,0,80
1,72,45,0
1,72,0,60
1,70,50,0
1,70,0,60
1,72,43,0
1,72,0,60
1,70,45,0
1,70,0,60
1,69,50,0
1,69,0,480
1,72,46,0
1,72,0,480
1,74,50,0
1,74,0,360
1,77,46,0
1,77,0,120
1,76,50,0
1,76,0,360
1,74,45,0
1,74,0,120
1,72,50,0
1,72,0,480
1,81,50,0
1,81,0,480
1,79,46,0
1,79,0,480
1,72,48,0
1,72,0,60
1,74,50,0
1,74,0,60
1,76,50,0
1,76,0,350
1,76,49,10
1,76,0,60
1,77,52,0
1,77,0,60
1,79,54,0
1,79,0,360
1,77,52,0
1,77,0,60
1,79,53,0
1,79,0,60
1,81,55,0
1,81,0,360
1,79,46,0
1,79,0,480
1,72,48,0
1,72,0,60
1,74,50,0
1,74,0,60
1,76,50,0
1,76,0,350
1,76,49,10
1,76,0,60
1,77,52,0
1,77,0,60
1,79,54,0
1,79,0,360
1,84,52,0
1,84,0,60
1,83,53,0
1,83,0,60
1,81,55,0
1,81,0,360
1,79,55,0
1,79,0,480
1,77,56,0
1,77,0,120
1,76,48,0
1,76,0,120
1,74,55,0
1,74,0,120
1,72,51,0
1,72,0,120
1,74,50,0
1,74,0,80
1,76,45,0
1,76,0,80
1,74,50,0
1,74,0,80
1,76,45,0
1,76,0,80
1,74,50,0
1,74,0,80
1,76,45,0
1,76,0,80
1,74,50,0
1,74,0,80
1,76,45,0
1,76,0,80
1,74,50,0
1,74,0,80
1,76,45,0
1,76,0,60
1,74,50,0
1,74,0,60
1,76,43,0
1,76,0,60
1,74,45,0
1,74,0,60
1,72,59,0
1,72,0,960
1,79,56,240
1,79,0,240
1,67,50,0
1,67,0,240
1,79,56,0
1,79,0,240
1,69,59,0
1,69,0,240
1,79,53,0
1,79,0,240
1,77,51,0
1,77,0,240
1,76,54,0
1,76,0,240
1,77,59,0
1,77,0,240
1,74,54,0
1,74,0,240
1,72,54,0
1,72,0,240
1,71,46,0
1,71,0,240
1,72,54,0
1,72,0,240
1,71,46,0
1,71,0,240
1,72,55,0
1,72,0,240
1,76,49,0
1,76,0,240
1,72,51,0
1,72,0,240
1,79,59,0
1,79,0,240
1,67,54,0
1,67,0,240
1,79,54,0
1,79,0,240
1,69,56,0
1,69,0,240
1,79,53,0
1,79,0,240
1,77,59,0
1,77,0,240
1,76,53,0
1,76,0,240
1,77,57,0
1,77,0,240
1,74,54,0
1,74,0,240
1,72,54,0
1,72,0,80
1,74,48,0
1,74,0,80
1,72,48,0
1,72,0,80
1,71,57,0
1,71,0,240
1,72,63,0
1,72,0,960
1,72,66,960
1,67,55,0
1,64,55,0
1,64,0,960
1,67,0,0
1,72,0,0
1,64,50,0
1,64,0,360
1,67,45,0
1,67,0,120
1,65,50,0
1,65,0,360
1,69,45,0
1,69,0,120
1,67,50,0
1,67,0,480
1,70,40,0
1,79,48,0
1,79,0,240
1,70,0,0
1,70,40,240
1,79,48,0
1,79,0,240
1,70,0,0
1,67,39,240
1,70,46,0
1,70,0,240
1,67,0,0
1,69,53,240
1,65,44,0
1,65,0,960
1,69,0,0
1,65,50,0
1,65,0,360
1,69,45,0
1,69,0,120
1,67,50,0
1,67,0,360
1,70,45,0
1,70,0,120
1,69,50,0
1,69,0,480
1,69,40,0
1,77,48,0
1,77,0,240
1,69,0,0
1,69,40,240
1,77,48,0
1,77,0,240
1,69,0,0
1,69,39,240
1,72,46,0
1,72,0,240
1,69,0,0
1,70,59,240
1,67,49,0
1,67,0,960
1,70,0,0
1,67,50,0
1,67,0,360
1,70,45,0
1,70,0,120
1,69,50,0
1,69,0,360
1,72,45,0
1,72,0,120
1,70,50,0
1,70,0,480
1,79,40,0
1,82,48,0
1,82,0,240
1,79,0,0
1,79,40,240
1,82,48,0
1,82,0,240
1,79,0,0
1,67,39,240
1,70,46,0
1,70,0,240
1,67,0,0
1,65,46,240
1,69,56,0
1,69,0,960
1,65,0,0
1,84,53,0
1,84,0,240
1,81,46,0
1,81,0,240
1,79,51,0
1,79,0,240
1,77,47,0
1,77,0,240
1,79,45,0
1,79,0,80
1,81,41,0
1,81,0,80
1,79,45,0
1,79,0,80
1,81,39,0
1,81,0,60
1,79,45,0
1,79,0,60
1,81,40,0
1,81,0,60
1,79,40,0
1,79,0,60
1,77,50,0
1,77,0,480
1,84,53,0
1,84,0,240
1,81,46,0
1,81,0,240
1,79,50,0
1,79,0,240
1,77,47,0
1,77,0,240
1,79,45,0
1,79,0,80
1,81,41,0
1,81,0,80
1,79,45,0
1,79,0,80
1,81,39,0
1,81,0,60
1,79,45,0
1,79,0,60
1,81,40,0
1,81,0,60
1,79,40,0
1,79,0,60
1,77,50,0
1,77,0,480
1,72,50,0
1,72,0,240
1,84,42,0
1,84,0,240
1,72,50,0
1,72,0,240
1,84,46,0
1,84,0,240
1,74,59,0
1,74,0,240
1,84,53,0
1,84,0,240
1,82,51,0
1,82,0,240
1,81,54,0
1,81,0,240
1,82,59,0
1,82,0,240
1,74,54,0
1,74,0,240
1,82,54,0
1,82,0,240
1,74,46,0
1,74,0,240
1,82,59,0
1,82,0,240
1,72,53,0
1,72,0,240
1,79,51,0
1,79,0,240
1,82,54,0
1,82,0,240
1,81,59,0
1,81,0,240
1,77,54,0
1,77,0,240
1,76,54,0
1,76,0,240
1,77,46,0
1,77,0,240
1,74,56,0
1,74,0,480
1,82,59,0
1,82,0,160
1,81,50,0
1,81,0,160
1,79,52,0
1,79,0,160
1,82,59,0
1,82,0,160
1,81,53,0
1,81,0,160
1,79,53,0
1,79,0,160
1,81,59,0
1,81,0,160
1,79,51,0
1,79,0,160
1,77,51,0
1,77,0,160
1,76,59,0
1,76,0,160
1,77,51,0
1,77,0,160
1,79,51,0
1,79,0,160
1,72,56,0
1,72,0,480
1,77,66,960
1,72,55,0
1,69,55,0
1,65,55,0
1,65,0,960
1,77,0,0
1,72,0,0
1,69,0,0
1,69,50,0
1,69,0,360
1,72,45,0
1,72,0,120
1,70,50,0
1,70,0,360
1,74,45,0
1,74,0,120
1,72,50,0
1,72,0,480
1,65,46,0
1,65,0,240
1,65,46,240
1,65,0,240
1,65,46,240
1,65,0,240
1,67,45,240
1,67,0,80
1,69,41,0
1,69,0,80
1,67,45,0
1,67,0,80
1,69,39,0
1,69,0,60
1,67,45,0
1,67,0,60
1,69,40,0
1,69,0,60
1,67,40,0
1,67,0,60
1,65,50,0
1,65,0,480
1,72,53,0
1,72,0,240
1,69,46,0
1,69,0,240
1,67,50,0
1,67,0,240
1,65,47,0
1,65,0,240
1,67,45,0
1,67,0,80
1,69,41,0
1,69,0,80
1,67,45,0
1,67,0,80
1,69,39,0
1,69,0,60
1,67,45,0
1,67,0,60
1,69,40,0
1,69,0,60
1,67,40,0
1,67,0,60
1,65,50,0
1,65,0,480
1,72,50,480
1,72,0,480
1,74,50,0
1,74,0,360
1,77,46,0
1,77,0,120
1,76,50,0
1,76,0,360
1,74,45,0
1,74,0,120
1,72,50,0
1,72,0,480
1,77,46,0
1,77,0,480
1,70,50,0
1,70,0,80
1,72,45,0
1,72,0,80
1,70,50,0
1,70,0,80
1,72,45,0
1,72,0,80
1,70,50,0
1,70,0,80
1,72,45,0
1,72,0,80
1,70,50,0
1,70,0,80
1,72,45,0
1,72,0,80
1,70,50,0
1,70,0,80
1,72,45,0
1,72,0,60
1,70,50,0
1,70,0,60
1,72,43,0
1,72,0,60
1,70,45,0
1,70,0,60
1,69,50,0
1,69,0,480
1,77,55,0
1,77,0,160
1,76,50,0
1,76,0,160
1,74,49,0
1,74,0,160
1,72,46,0
1,72,0,480
1,65,48,0
1,65,0,60
1,67,50,0
1,67,0,60
1,69,50,0
1,69,0,350
1,69,49,10
1,69,0,60
1,70,52,0
1,70,0,60
1,72,54,0
1,72,0,360
1,70,52,0
1,70,0,60
1,72,53,0
1,72,0,60
1,74,55,0
1,74,0,360
1,72,46,0
1,72,0,480
1,72,49,0
1,72,0,60
1,74,53,0
1,74,0,60
1,76,54,0
1,76,0,360
1,77,55,0
1,77,0,60
1,79,57,0
1,79,0,60
1,81,58,0
1,81,0,360
1,82,60,0
1,82,0,60
1,84,62,0
1,84,0,60
1,86,64,0
1,86,0,360
1,84,65,0
1,84,0,480
1,82,56,0
1,82,0,120
1,81,48,0
1,81,0,120
1,79,55,0
1,79,0,120
1,77,51,0
1,77,0,120
1,79,50,0
1,79,0,80
1,81,45,0
1,81,0,80
1,79,50,0
1,79,0,80
1,81,45,0
1,81,0,80
1,79,50,0
1,79,0,80
1,81,45,0
1,81,0,80
1,79,50,0
1,79,0,80
1,81,45,0
1,81,0,80
1,79,50,0
1,79,0,80
1,81,45,0
1,81,0,60
1,79,50,0
1,79,0,60
1,81,43,0
1,81,0,60
1,79,45,0
1,79,0,60
1,77,59,0
1,77,0,960
1,84,56,240
1,84,0,240
1,72,50,0
1,72,0,240
1,84,56,0
1,84,0,240
1,74,59,0
1,74,0,240
1,84,53,0
1,84,0,240
1,82,51,0
1,82,0,240
1,81,54,0
1,81,0,240
1,82,59,0
1,82,0,240
1,79,54,0
1,79,0,240
1,77,54,0
1,77,0,80
1,79,48,0
1,79,0,80
1,77,48,0
1,77,0,80
1,76,46,0
1,76,0,240
1,77,54,0
1,77,0,80
1,79,48,0
1,79,0,80
1,77,48,0
1,77,0,80
1,76,46,0
1,76,0,240
1,77,55,0
1,77,0,240
1,81,49,0
1,81,0,240
1,77,51,0
1,77,0,240
1,84,59,0
1,84,0,240
1,72,54,0
1,72,0,240
1,84,54,0
1,84,0,240
1,74,56,0
1,74,0,240
1,84,53,0
1,84,0,240
1,82,59,0
1,82,0,240
1,81,53,0
1,81,0,240
1,82,57,0
1,82,0,240
1,79,54,0
1,79,0,240
1,77,54,0
1,77,0,80
1,79,48,0
1,79,0,80
1,77,48,0
1,77,0,80
1,76,57,0
1,76,0,240
1,77,63,0
1,77,0,960
1,72,66,960
1,67,55,0
1,64,55,0
1,64,0,960
1,67,0,0
1,72,0,0
1,64,50,0
1,64,0,360
1,67,45,0
1,67,0,120
1,65,50,0
1,65,0,360
1,69,45,0
1,69,0,120
1,67,50,0
1,67,0,480
1,70,40,0
1,79,48,0
1,79,0,240
1,70,0,0
1,70,40,240
1,79,48,0
1,79,0,240
1,70,0,0
1,67,39,240
1,70,46,0
