track,note,velocity,time
1,36,118,948
1,36,0,1
1,36,118,191
1,36,0,1
1,36,118,191
1,36,0,1
1,36,118,191
1,36,0,1
1,36,118,191
1,36,0,1
1,36,118,191
1,36,0,1
1,36,125,191
1,36,0,1
1,36,118,191
1,36,0,1
1,36,109,191
1,36,0,1
1,36,118,191
1,36,0,1
1,36,118,191
1,36,0,1
1,36,125,191
1,36,0,1
1,36,109,191
1,36,0,1
1,36,118,191
1,36,0,1
1,36,118,191
1,36,0,1
1,36,125,191
1,36,0,1
1,36,118,191
1,36,0,1
1,36,118,191
1,36,0,1
1,36,118,191
1,36,0,1
1,36,118,191
1,36,0,1
1,36,118,191
1,36,0,1
1,36,118,191
1,36,0,1
1,36,125,191
1,36,0,1
1,36,118,191
1,36,0,1
1,36,109,191
1,36,0,1
1,36,118,191
1,36,0,1
1,36,118,191
1,36,0,1
1,36,125,191
1,36,0,1
1,36,109,191
1,36,0,1
1,36,118,191
1,36,0,1
1,36,118,191
1,36,0,1
1,36,125,191
1,36,0,1
1,36,118,191
1,36,0,1
1,36,118,191
1,36,0,1
1,36,118,191
1,36,0,1
1,36,118,191
1,36,0,1
1,36,118,191
1,36,0,1
1,36,118,191
1,36,0,1
1,36,125,191
1,36,0,1
1,36,118,191
1,36,0,1
1,36,109,191
1,36,0,1
1,36,118,191
1,36,0,1
1,36,118,191
1,36,0,1
1,36,125,191
1,36,0,1
1,36,109,191
1,36,0,1
1,36,118,191
1,36,0,1
1,36,118,191
1,36,0,1
1,36,125,191
1,36,0,1
1,36,118,191
1,36,0,1
1,36,118,191
1,36,0,1
1,36,118,191
1,36,0,1
1,36,118,191
1,36,0,1
1,36,118,191
1,36,0,1
1,36,118,191
1,36,0,1
1,36,125,191
1,36,0,1
1,36,118,191
1,36,0,1
1,36,109,191
1,36,0,1
1,36,118,191
1,36,0,1
1,36,118,191
1,36,0,1
1,36,125,191
1,36,0,1
1,36,109,191
1,36,0,1
1,36,118,191
1,36,0,1
1,36,118,191
1,36,0,1
1,36,125,191
1,36,0,1
1,36,118,191
1,36,0,1
1,36,118,191
1,36,0,1
1,36,118,191
1,36,0,1
1,36,118,191
1,36,0,1
1,36,118,191
1,36,0,1
1,36,118,191
1,36,0,1
1,36,125,191
1,36,0,1
1,36,118,191
1,36,0,1
1,36,109,191
1,36,0,1
1,36,118,191
1,36,0,1
1,36,118,191
1,36,0,1
1,36,125,191
1,36,0,1
1,36,109,191
1,36,0,1
1,36,118,191
1,36,0,1
1,36,118,191
1,36,0,1
1,36,125,191
1,36,0,1
1,36,118,191
1,36,0,1
1,36,118,191
1,36,0,1
1,36,118,191
1,36,0,1
1,36,118,191
1,36,0,1
1,36,118,191
1,36,0,1
1,36,118,191
1,36,0,1
1,36,125,191
1,36,0,1
1,36,118,191
1,36,0,1
1,36,109,191
1,36,0,1
1,36,118,191
1,36,0,1
1,36,118,191
1,36,0,1
1,36,125,191
1,36,0,1
1,36,109,191
1,36,0,1
1,36,118,191
1,36,0,1
1,36,118,191
1,36,0,1
1,36,125,191
1,36,0,1
1,36,118,191
1,36,0,1
1,36,118,191
1,36,0,1
1,36,118,191
1,36,0,1
1,36,118,191
1,36,0,1
1,36,118,191
1,36,0,1
1,36,118,191
1,36,0,1
1,36,125,191
1,36,0,1
1,36,118,191
1,36,0,1
1,36,109,191
1,36,0,1
1,36,118,191
1,36,0,1
1,36,118,191
1,36,0,1
1,36,125,191
1,36,0,1
1,36,109,191
1,36,0,1
1,36,118,191
1,36,0,1
1,36,118,191
1,36,0,1
1,36,125,191
1,36,0,1
1,36,118,191
1,36,0,1
1,36,118,191
1,36,0,1
1,36,118,191
1,36,0,1
1,36,118,191
1,36,0,1
1,36,118,191
1,36,0,1
1,36,118,191
1,36,0,1
1,36,125,191
1,36,0,1
1,36,118,191
1,36,0,1
1,36,109,191
1,36,0,1
1,36,118,191
1,36,0,1
1,36,118,191
1,36,0,1
1,36,125,191
1,36,0,1
1,36,109,191
1,36,0,1
1,36,118,191
1,36,0,1
1,36,118,191
1,36,0,1
1,36,125,191
1,36,0,1
1,36,118,191
1,36,0,1
1,36,118,191
1,36,0,1
1,36,118,191
1,36,0,1
1,36,118,191
1,36,0,1
1,36,118,191
1,36,0,1
1,36,118,191
1,36,0,1
1,36,125,191
1,36,0,1
1,36,118,191
1,36,0,1
1,36,118,191
1,36,0,1
1,36,118,191
1,36,0,1
1,36,118,191
1,36,0,1
1,36,118,191
1,36,0,1
1,36,118,191
1,36,0,1
1,36,118,191
1,36,0,1
1,36,125,191
1,36,0,1
1,36,118,191
1,36,0,1
1,36,109,191
1,36,0,1
1,36,118,191
1,36,0,1
1,36,118,191
1,36,0,1
1,36,125,191
1,36,0,1
1,36,109,191
1,36,0,1
1,36,118,191
1,36,0,1
1,36,118,191
1,36,0,1
1,36,125,191
1,36,0,1
1,36,118,191
1,36,0,1
1,36,118,191
1,36,0,1
1,36,118,191
1,36,0,1
1,36,118,191
1,36,0,1
1,36,118,191
1,36,0,1
1,36,118,191
1,36,0,1
1,36,125,191
1,36,0,1
1,36,118,191
1,36,0,1
1,36,109,191
1,36,0,1
1,36,118,191
1,36,0,1
1,36,118,191
1,36,0,1
1,36,125,191
1,36,0,1
1,36,109,191
1,36,0,1
1,36,118,191
1,36,0,1
1,36,118,191
1,36,0,1
1,36,125,191
1,36,0,1
1,36,118,191
1,36,0,1
1,36,118,191
1,36,0,1
1,36,118,191
1,36,0,1
1,36,118,191
1,36,0,1
1,36,118,191
1,36,0,1
1,36,118,191
1,36,0,1
1,36,125,191
1,36,0,1
1,36,118,191
1,36,0,1
1,36,109,191
1,36,0,1
1,36,118,191
1,36,0,1
1,36,118,191
1,36,0,1
1,36,125,191
1,36,0,1
1,36,109,191
1,36,0,1
1,36,118,191
1,36,0,1
1,36,118,191
1,36,0,1
1,36,125,191
1,36,0,1
1,36,118,191
1,36,0,1
1,36,118,191
1,36,0,1
1,36,118,191
1,36,0,1
1,36,118,191
1,36,0,1
1,36,118,191
1,36,0,1
1,36,118,191
1,36,0,1
1,36,125,191
1,36,0,1
1,36,118,191
1,36,0,1
1,36,109,191
1,36,0,1
1,36,118,191
1,36,0,1
1,36,118,191
1,36,0,1
1,36,125,191
1,36,0,1
1,36,109,191
1,36,0,1
1,36,118,191
1,36,0,1
1,36,118,191
1,36,0,1
1,36,125,191
1,36,0,1
1,36,118,191
1,36,0,1
1,36,118,191
1,36,0,1
1,36,118,191
1,36,0,1
1,36,118,191
1,36,0,1
1,36,118,191
1,36,0,1
1,36,118,191
1,36,0,1
1,36,125,191
1,36,0,1
1,36,118,191
1,36,0,1
1,36,109,191
1,36,0,1
1,36,118,191
1,36,0,1
1,36,118,191
1,36,0,1
1,36,125,191
1,36,0,1
1,36,109,191
1,36,0,1
1,36,118,191
1,36,0,1
1,36,118,191
1,36,0,1
1,36,125,191
1,36,0,1
1,36,118,191
1,36,0,1
1,36,118,191
1,36,0,1
1,36,118,191
1,36,0,1
1,36,118,191
1,36,0,1
1,36,118,191
1,36,0,1
1,36,118,191
1,36,0,1
1,36,125,191
1,36,0,1
1,36,118,191
1,36,0,1
1,36,109,191
1,36,0,1
1,36,118,191
1,36,0,1
1,36,118,191
1,36,0,1
1,36,125,191
1,36,0,1
1,36,109,191
1,36,0,1
1,36,118,191
1,36,0,1
1,36,118,191
1,36,0,1
1,36,125,191
1,36,0,1
1,36,118,191
1,36,0,1
1,36,118,191
1,36,0,1
1,36,118,191
1,36,0,1
1,36,118,191
1,36,0,1
1,36,118,191
1,36,0,1
1,36,118,191
1,36,0,1
1,36,125,191
1,36,0,1
1,36,118,191
1,36,0,1
1,36,109,191
1,36,0,1
1,36,118,191
1,36,0,1
1,36,118,191
1,36,0,1
1,36,125,191
1,36,0,1
1,36,109,191
1,36,0,1
1,36,118,191
1,36,0,1
1,36,118,191
1,36,0,1
1,36,125,191
1,36,0,1
1,36,118,191
1,36,0,1
1,36,118,191
1,36,0,1
1,36,118,191
1,36,0,1
1,36,118,191
1,36,0,1
1,36,118,191
1,36,0,1
1,36,118,191
1,36,0,1
1,36,125,191
1,36,0,1
1,36,118,191
1,36,0,1
1,36,109,191
1,36,0,1
1,36,118,191
1,36,0,1
1,36,118,191
1,36,0,1
1,36,125,191
1,36,0,1
1,36,109,191
1,36,0,1
1,36,118,191
1,36,0,1
1,36,118,191
1,36,0,1
1,36,125,191
1,36,0,1
1,36,118,191
1,36,0,1
1,36,118,191
1,36,0,1
1,36,118,191
1,36,0,1
1,36,118,191
1,36,0,1
1,36,118,191
1,36,0,1
1,36,118,191
1,36,0,1
1,36,125,191
1,36,0,1
1,36,118,191
1,36,0,1
1,36,109,191
1,36,0,1
1,36,118,191
1,36,0,1
1,36,118,191
1,36,0,1
1,36,125,191
1,36,0,1
1,36,109,191
1,36,0,1
1,36,118,191
1,36,0,1
1,36,118,191
1,36,0,1
1,36,125,191
1,36,0,1
1,36,118,191
1,36,0,1
1,36,118,191
1,36,0,1
1,36,118,191
1,36,0,1
1,36,118,191
1,36,0,1
1,36,118,191
1,36,0,1
1,36,118,191
1,36,0,1
1,36,125,191
1,36,0,1
1,36,118,191
1,36,0,1
1,36,109,191
1,36,0,1
1,36,118,191
1,36,0,1
1,36,118,191
1,36,0,1
1,36,125,191
1,36,0,1
1,36,109,191
1,36,0,1
1,36,118,191
1,36,0,1
1,36,118,191
1,36,0,1
1,36,125,191
1,36,0,1
1,36,118,191
1,36,0,1
1,36,118,191
1,36,0,1
1,36,118,191
1,36,0,1
1,36,118,191
1,36,0,1
1,36,118,191
1,36,0,1
1,36,118,191
1,36,0,1
1,36,125,191
1,36,0,1
1,36,118,191
1,36,0,1
1,36,109,191
1,36,0,1
1,36,118,191
1,36,0,1
1,36,118,191
1,36,0,1
1,36,125,191
1,36,0,1
1,36,109,191
1,36,0,1
1,36,118,191
1,36,0,1
1,36,118,191
1,36,0,1
1,36,125,191
1,36,0,1
1,36,118,191
1,36,0,1
1,36,118,191
1,36,0,1
1,36,118,191
1,36,0,1
1,36,118,191
1,36,0,1
1,36,118,191
1,36,0,1
1,36,118,191
1,36,0,1
1,36,125,191
1,36,0,1
1,36,118,191
1,36,0,1
1,36,109,191
1,36,0,1
1,36,118,191
1,36,0,1
1,36,118,191
1,36,0,1
1,36,125,191
1,36,0,1
1,36,109,191
1,36,0,1
1,36,118,191
1,36,0,1
1,36,118,191
1,36,0,1
1,36,125,191
1,36,0,1
1,36,118,191
1,36,0,1
1,36,118,191
1,36,0,1
1,36,118,191
1,36,0,1
1,36,118,191
1,36,0,1
1,36,118,191
1,36,0,1
1,36,118,191
1,36,0,1
1,36,125,191
1,36,0,1
1,36,118,191
1,36,0,1
1,36,109,191
1,36,0,1
1,36,118,191
1,36,0,1
1,36,118,191
1,36,0,1
1,36,125,191
1,36,0,1
1,36,109,191
1,36,0,1
1,36,118,191
1,36,0,1
1,36,118,191
1,36,0,1
1,36,125,191
1,36,0,1
1,36,118,191
1,36,0,1
1,36,118,191
1,36,0,1
1,36,118,191
1,36,0,1
1,36,118,191
1,36,0,1
1,36,118,191
1,36,0,1
1,36,118,191
1,36,0,1
1,36,125,191
1,36,0,1
1,36,118,191
1,36,0,1
1,36,109,191
1,36,0,1
1,36,118,191
1,36,0,1
1,36,118,191
1,36,0,1
1,36,125,191
1,36,0,1
1,36,109,191
1,36,0,1
1,36,118,191
1,36,0,1
1,36,118,191
1,36,0,1
1,36,125,191
1,36,0,1
1,36,118,191
1,36,0,1
1,36,118,191
1,36,0,1
1,36,118,191
1,36,0,1
1,36,118,191
1,36,0,1
1,36,118,191
1,36,0,1
1,36,118,191
1,36,0,1
1,36,125,191
1,36,0,1
1,36,118,191
1,36,0,1
1,36,109,191
1,36,0,1
1,36,118,191
1,36,0,1
1,36,118,191
1,36,0,1
1,36,125,191
1,36,0,1
1,36,109,191
1,36,0,1
1,36,118,191
1,36,0,1
1,36,118,191
1,36,0,1
1,36,125,191
1,36,0,1
1,36,118,191
1,36,0,1
1,36,118,191
1,36,0,1
1,36,118,191
1,36,0,1
1,36,118,191
1,36,0,1
1,36,118,191
1,36,0,1
1,36,118,191
1,36,0,1
1,36,125,191
1,36,0,1
1,36,118,191
1,36,0,1
1,36,109,191
1,36,0,1
1,36,118,191
1,36,0,1
1,36,118,191
1,36,0,1
1,36,125,191
1,36,0,1
1,36,109,191
1,36,0,1
1,36,118,191
1,36,0,1
1,36,118,191
1,36,0,1
1,36,125,191
1,36,0,1
1,36,118,191
1,36,0,1
1,36,118,191
1,36,0,1
1,36,118,191
1,36,0,1
1,36,118,191
1,36,0,1
1,36,118,191
1,36,0,1
1,36,118,191
1,36,0,1
1,36,125,191
1,36,0,1
1,36,118,191
1,36,0,1
1,36,109,191
1,36,0,1
1,36,118,191
1,36,0,1
1,36,118,191
1,36,0,1
1,36,125,191
1,36,0,1
1,36,109,191
1,36,0,1
1,36,118,191
1,36,0,1
1,36,118,191
1,36,0,1
1,36,125,191
1,36,0,1
2,37,95,768
2,37,0,1
2,37,95,191
2,37,0,1
2,37,94,191
2,37,0,1
2,37,93,191
2,37,0,1
2,42,120,191
2,42,0,1
2,42,91,47
2,42,0,1
2,42,67,47
2,42,0,1
2,42,77,47
2,42,0,1
2,42,77,383
2,42,0,1
2,42,113,47
2,42,0,1
2,42,77,47
2,42,0,1
2,42,63,47
2,42,0,1
2,42,83,47
2,42,0,1
2,42,120,47
2,42,0,1
2,42,77,47
2,42,0,1
2,42,83,47
2,42,0,1
2,42,91,47
2,42,0,1
2,42,113,287
2,42,0,1
2,44,120,95
2,44,0,1
2,42,120,47
2,42,0,1
2,42,100,95
2,42,0,1
2,42,71,47
2,42,0,1
2,42,120,47
2,42,0,1
2,42,71,47
2,42,0,1
2,42,77,47
2,42,0,1
2,42,113,47
2,42,0,1
2,42,100,383
2,42,0,1
2,42,83,47
2,42,0,1
2,42,100,47
2,42,0,1
2,42,56,95
2,42,0,1
2,42,120,47
2,42,0,1
2,42,56,47
2,42,0,1
2,42,67,47
2,42,0,1
2,42,100,47
2,42,0,1
2,42,67,95
2,42,0,1
2,42,83,95
2,42,0,1
2,42,59,95
2,42,0,1
2,44,100,95
2,44,0,1
2,42,113,47
2,42,0,1
2,42,83,47
2,42,0,1
2,42,91,47
2,42,0,1
2,42,48,47
2,42,0,1
2,42,120,47
2,42,0,1
2,42,91,47
2,42,0,1
2,42,67,47
2,42,0,1
2,42,77,47
2,42,0,1
2,42,77,383
2,42,0,1
2,42,113,47
2,42,0,1
2,42,77,47
2,42,0,1
2,42,63,47
2,42,0,1
2,42,83,47
2,42,0,1
2,42,120,47
2,42,0,1
2,42,77,47
2,42,0,1
2,42,83,47
2,42,0,1
2,42,91,47
2,42,0,1
2,42,113,287
2,42,0,1
2,44,120,95
2,44,0,1
2,42,120,47
2,42,0,1
2,42,100,95
2,42,0,1
2,42,71,47
2,42,0,1
2,42,120,47
2,42,0,1
2,42,71,47
2,42,0,1
2,42,77,47
2,42,0,1
2,42,113,47
2,42,0,1
2,42,100,383
2,42,0,1
2,42,83,47
2,42,0,1
2,42,100,47
2,42,0,1
2,42,56,95
2,42,0,1
2,42,120,47
2,42,0,1
2,42,56,47
2,42,0,1
2,42,67,47
2,42,0,1
2,42,100,47
2,42,0,1
2,42,67,95
2,42,0,1
2,42,83,95
2,42,0,1
2,42,59,95
2,42,0,1
2,44,100,95
2,44,0,1
2,42,113,47
2,42,0,1
2,42,83,47
2,42,0,1
2,42,91,47
2,42,0,1
2,42,48,47
2,42,0,1
2,42,120,47
2,42,0,1
2,42,91,47
2,42,0,1
2,42,67,47
2,42,0,1
2,42,77,47
2,42,0,1
2,42,77,383
2,42,0,1
2,42,113,47
2,42,0,1
2,42,77,47
2,42,0,1
2,42,63,47
2,42,0,1
2,42,83,47
2,42,0,1
2,42,120,47
2,42,0,1
2,42,77,47
2,42,0,1
2,42,83,47
2,42,0,1
