track,note,velocity,time
1,45,80,0
1,60,80,120
1,64,80,0
1,64,0,31
1,60,0,0
1,55,80,30
1,55,0,15
1,60,80,45
1,64,80,0
1,64,0,15
1,60,0,0
1,66,80,47
1,62,80,0
1,62,0,41
1,66,0,1
1,67,80,76
1,63,80,0
1,63,0,12
1,64,80,4
1,45,0,96
1,55,80,69
1,55,0,47
1,52,80,72
1,54,80,63
1,52,0,5
1,54,0,52
1,45,80,62
1,45,0,15
1,45,80,42
1,67,0,4
1,64,0,9
1,63,80,107
1,67,80,0
1,64,80,0
1,63,0,9
1,64,0,65
1,67,0,8
1,66,80,39
1,62,80,0
1,66,0,65
1,62,0,4
1,62,80,53
1,59,80,0
1,59,0,14
1,62,0,0
1,62,80,44
1,59,80,0
1,59,0,63
1,62,0,2
1,64,80,55
1,61,80,0
1,61,0,13
1,64,0,0
1,64,80,48
1,61,80,0
1,45,0,29
1,52,80,90
1,54,80,63
1,52,0,1
1,54,0,64
1,45,80,54
1,45,0,14
1,45,80,0
1,64,0,12
1,61,0,2
1,60,80,106
1,64,80,0
1,64,0,31
1,60,0,0
1,55,80,30
1,55,0,15
1,60,80,45
1,64,80,0
1,64,0,15
1,60,0,0
1,66,80,47
1,62,80,0
1,62,0,41
1,66,0,1
1,67,80,76
1,63,80,0
1,63,0,12
1,64,80,4
1,45,0,96
1,55,80,69
1,55,0,56
1,52,80,63
1,54,80,63
1,52,0,1
1,54,0,52
1,45,80,66
1,45,0,13
1,45,80,44
1,67,0,4
1,64,0,9
1,63,80,107
1,67,80,0
1,64,80,0
1,63,0,9
1,64,0,56
1,67,0,4
1,62,80,52
1,66,80,0
1,66,0,72
1,62,0,5
1,62,80,45
1,59,80,0
1,62,0,13
1,59,0,1
1,62,80,44
1,59,80,0
1,59,0,63
1,62,0,1
1,64,80,56
1,61,80,0
1,61,0,15
1,64,0,0
1,64,80,46
1,61,80,0
1,45,0,27
1,52,80,92
1,54,80,63
1,52,0,8
1,54,0,56
1,64,0,6
1,61,0,1
1,45,80,48
1,45,0,50
1,45,80,7
1,60,80,120
1,64,80,0
1,64,0,31
1,60,0,0
1,55,80,30
1,55,0,15
1,60,80,45
1,64,80,0
1,64,0,15
1,60,0,0
1,66,80,47
1,62,80,0
1,62,0,41
1,66,0,1
1,67,80,76
1,63,80,0
1,63,0,12
1,64,80,4
1,45,0,96
1,55,80,69
1,55,0,47
1,52,80,72
1,54,80,63
1,52,0,5
1,54,0,52
1,45,80,62
1,45,0,15
1,45,80,42
1,67,0,4
1,64,0,9
1,63,80,107
1,67,80,0
1,64,80,0
1,63,0,9
1,64,0,65
1,67,0,8
1,66,80,39
1,62,80,0
1,66,0,65
1,62,0,4
1,62,80,53
1,59,80,0
1,59,0,14
1,62,0,0
1,62,80,44
1,59,80,0
1,59,0,63
1,62,0,2
1,64,80,55
1,61,80,0
1,61,0,13
1,64,0,0
1,64,80,48
1,61,80,0
1,45,0,29
1,52,80,90
1,54,80,63
1,52,0,1
1,54,0,64
1,45,80,54
1,45,0,14
1,45,80,43
1,64,0,12
1,61,0,2
1,60,80,106
1,64,80,0
1,64,0,54
1,60,0,4
1,55,80,3
1,55,0,11
1,60,80,49
1,64,80,0
1,64,0,15
1,60,0,1
1,66,80,46
1,62,80,0
1,62,0,50
1,66,0,0
1,63,80,68
1,67,80,0
1,64,80,0
1,63,0,9
1,45,0,78
1,55,80,94
1,55,0,56
1,52,80,63
1,54,80,63
1,52,0,1
1,54,0,52
1,45,80,66
1,45,0,13
1,45,80,44
1,64,0,8
1,67,0,6
1,63,80,106
1,67,80,0
1,64,80,0
1,63,0,9
1,64,0,56
1,67,0,4
1,62,80,52
1,66,80,0
1,66,0,72
1,62,0,5
1,62,80,45
1,59,80,0
1,62,0,13
1,59,0,1
1,62,80,44
1,59,80,0
1,59,0,63
1,62,0,1
1,64,80,56
1,61,80,0
1,61,0,15
1,64,0,0
1,64,80,46
1,61,80,0
1,45,0,27
1,52,80,92
1,54,80,63
1,52,0,8
1,54,0,56
1,64,0,6
1,61,0,1
1,45,80,48
1,45,0,50
1,45,80,7
1,60,80,120
1,64,80,0
1,64,0,31
1,60,0,0
1,55,80,30
1,55,0,15
1,60,80,45
1,64,80,0
1,64,0,15
1,60,0,0
1,66,80,47
1,62,80,0
1,62,0,41
1,66,0,1
1,67,80,76
1,63,80,0
1,63,0,12
1,64,80,4
1,45,0,96
1,55,80,69
1,55,0,47
1,52,80,72
1,54,80,63
1,52,0,5
1,54,0,52
1,45,80,62
1,45,0,15
1,45,80,42
1,67,0,4
1,64,0,9
1,63,80,107
1,67,80,0
1,64,80,0
1,63,0,9
1,64,0,65
1,67,0,8
1,66,80,39
1,62,80,0
1,66,0,65
1,62,0,4
1,62,80,53
1,59,80,0
1,59,0,14
1,62,0,0
1,62,80,44
1,59,80,0
1,59,0,63
1,62,0,2
1,64,80,55
1,61,80,0
1,61,0,13
1,64,0,0
1,64,80,48
1,61,80,0
1,45,0,29
1,52,80,90
1,54,80,63
1,52,0,1
1,54,0,64
1,45,80,54
1,45,0,14
1,45,80,43
1,64,0,12
1,61,0,2
1,60,80,106
1,64,80,0
1,64,0,54
1,60,0,4
1,55,80,3
1,55,0,11
1,60,80,49
1,64,80,0
1,64,0,15
1,60,0,1
1,66,80,46
1,62,80,0
1,62,0,50
1,66,0,0
1,63,80,68
1,67,80,0
1,64,80,0
1,63,0,9
1,45,0,78
1,55,80,94
1,55,0,56
1,52,80,63
1,54,80,63
1,52,0,1
1,54,0,52
1,45,80,66
1,45,0,13
1,64,0,52
1,45,80,5
1,67,0,1
1,67,80,110
1,64,80,1
1,62,80,0
1,62,0,11
1,67,0,62
1,64,0,4
1,66,80,36
1,62,80,1
1,66,0,78
1,62,0,10
1,62,80,36
1,59,80,0
1,59,0,11
1,62,0,1
1,59,80,43
1,62,80,0
1,62,0,76
1,59,0,1
1,61,80,46
1,64,80,0
1,64,0,60
1,61,0,0
1,61,80,1
1,64,80,0
1,45,0,8
1,64,0,52
1,61,0,0
1,52,80,59
1,52,0,60
1,54,80,3
1,54,0,60
1,45,80,59
1,45,0,60
1,52,80,330
1,57,80,30
1,61,80,0
1,52,0,30
1,52,80,4
1,57,80,24
1,61,80,0
1,61,0,2
1,57,0,0
1,52,80,33
1,52,0,1
1,61,0,24
1,57,0,0
1,59,80,0
1,55,80,0
1,52,0,35
1,55,0,25
1,59,0,0
1,52,80,0
1,52,0,60
1,52,80,692
1,57,80,30
1,61,80,0
1,52,0,30
1,52,80,4
1,61,80,24
1,57,80,0
1,57,0,2
1,61,0,0
1,52,80,33
1,52,0,1
1,61,0,24
1,57,0,0
1,59,80,0
1,55,80,0
1,52,0,35
1,55,0,25
1,59,0,0
1,52,80,0
1,52,0,60
1,81,77,3724
1,69,89,0
1,81,0,32
1,69,0,2
1,69,102,18
1,81,102,1
1,81,0,13
1,69,0,1
1,69,102,14
1,81,105,1
1,81,0,17
1,69,0,0
1,69,84,15
1,81,96,0
1,81,0,39
1,69,0,1
1,67,127,25
1,79,117,1
1,79,0,79
1,67,0,0
1,45,80,151
1,60,80,120
1,64,80,0
1,64,0,31
1,60,0,0
1,55,80,30
1,55,0,15
1,60,80,45
1,64,80,0
1,64,0,15
1,60,0,0
1,66,80,47
1,62,80,0
1,62,0,41
1,66,0,1
1,67,80,76
1,63,80,0
1,63,0,12
1,64,80,4
1,45,0,96
1,55,80,69
1,55,0,47
1,52,80,72
1,54,80,63
1,52,0,5
1,54,0,52
1,45,80,62
1,45,0,15
1,45,80,42
1,67,0,4
1,64,0,9
1,63,80,107
1,67,80,0
1,64,80,0
1,63,0,9
1,64,0,65
1,67,0,8
1,66,80,39
1,62,80,0
1,66,0,65
1,62,0,4
1,62,80,53
1,59,80,0
1,59,0,14
1,62,0,0
1,62,80,44
1,59,80,0
1,59,0,63
1,62,0,2
1,64,80,55
1,61,80,0
1,61,0,13
1,64,0,0
1,64,80,48
1,61,80,0
1,45,0,29
1,52,80,90
1,54,80,63
1,52,0,1
1,54,0,64
1,45,80,54
1,45,0,14
1,45,80,43
1,64,0,12
1,61,0,2
1,60,80,106
1,64,80,0
1,64,0,54
1,60,0,4
1,55,80,3
1,55,0,11
1,60,80,49
1,64,80,0
1,64,0,15
1,60,0,1
1,66,80,46
1,62,80,0
1,62,0,50
1,66,0,0
1,63,80,68
1,67,80,0
1,64,80,0
1,63,0,9
1,45,0,78
1,55,80,94
1,55,0,56
1,52,80,63
1,54,80,63
1,52,0,1
1,54,0,52
1,45,80,66
1,45,0,13
1,64,0,52
1,45,80,5
1,67,0,1
1,67,80,110
1,64,80,1
1,62,80,0
1,62,0,11
1,67,0,62
1,64,0,4
1,66,80,36
1,62,80,1
1,66,0,78
1,62,0,10
1,62,80,36
1,59,80,0
1,59,0,11
1,62,0,1
1,59,80,43
1,62,80,0
1,62,0,76
1,59,0,1
1,61,80,46
1,64,80,0
1,64,0,60
1,61,0,0
1,61,80,1
1,64,80,0
1,45,0,8
1,64,0,52
1,61,0,0
1,52,80,59
1,52,0,60
1,54,80,3
1,54,0,60
1,45,80,59
1,45,0,60
1,52,80,330
1,57,80,30
1,61,80,0
1,52,0,30
1,52,80,4
1,57,80,24
1,61,80,0
1,61,0,2
1,57,0,0
1,52,80,33
1,52,0,1
1,61,0,24
1,57,0,0
1,59,80,0
1,55,80,0
1,52,0,35
1,55,0,25
1,59,0,0
1,52,80,0
1,52,0,60
1,52,80,692
1,57,80,30
1,61,80,0
1,52,0,30
1,52,80,4
1,61,80,24
1,57,80,0
1,57,0,2
1,61,0,0
1,52,80,33
1,52,0,1
1,61,0,24
1,57,0,0
1,59,80,0
1,55,80,0
1,52,0,35
1,55,0,25
1,59,0,0
1,52,80,0
1,52,0,60
1,43,80,359
1,50,80,60
1,55,80,60
1,53,80,0
1,59,80,0
1,43,0,31
1,50,0,7
1,53,0,14
1,59,0,4
1,43,80,5
1,50,80,0
1,55,0,1
1,50,0,13
1,55,80,46
1,53,80,0
1,50,80,0
1,60,80,0
1,60,0,28
1,53,0,10
1,50,0,3
1,55,0,2
1,55,80,19
1,53,80,0
1,50,80,0
1,59,80,0
1,43,0,26
1,50,0,27
1,53,0,0
1,55,0,5
1,43,80,2
1,59,0,1
1,43,0,46
1,52,80,11
1,55,80,0
1,59,80,0
1,56,80,0
1,55,0,17
1,40,80,43
1,52,0,24
1,56,0,23
1,52,80,13
1,59,0,18
1,52,0,4
1,55,80,39
1,59,80,0
1,52,80,0
1,56,80,18
1,55,0,5
1,56,0,11
1,52,0,3
1,59,0,6
1,61,80,18
1,52,80,0
1,57,80,0
1,52,0,40
1,61,0,3
1,57,0,4
1,52,80,11
1,59,80,0
1,62,80,0
1,52,0,36
1,62,0,3
1,59,0,4
1,52,80,20
1,52,0,21
1,52,80,36
1,61,80,0
1,57,80,0
1,52,0,30
1,57,0,10
1,61,0,13
1,52,80,9
1,40,0,9
1,52,0,4
1,43,80,44
1,43,0,59
1,50,80,1
1,50,0,27
1,43,80,4
1,55,80,29
1,50,80,0
1,59,80,0
1,53,80,0
1,43,0,19
1,50,0,31
1,53,0,2
1,59,0,4
1,55,0,3
1,43,80,2
1,50,80,34
1,50,0,22
1,55,80,4
1,60,80,0
1,53,80,0
1,50,80,0
1,60,0,27
1,50,0,4
1,53,0,4
1,55,0,4
1,55,80,23
1,53,80,0
1,59,80,0
1,50,80,0
1,56,80,0
1,43,0,20
1,56,0,4
1,55,0,11
1,50,0,10
1,53,0,2
1,59,0,6
1,43,80,7
1,43,0,58
1,55,80,0
1,52,80,0
1,59,80,0
1,56,80,0
1,55,0,12
1,40,80,48
1,52,0,16
1,56,0,40
1,52,80,4
1,59,0,8
1,52,0,5
1,59,80,48
1,52,80,0
1,56,80,0
1,56,0,20
1,52,0,0
1,59,0,5
1,61,80,36
1,57,80,0
1,52,80,0
1,52,0,18
1,57,0,3
1,61,0,1
1,59,80,36
1,52,80,0
1,62,80,0
1,52,0,35
1,62,0,3
1,59,0,7
1,52,80,18
1,52,0,19
1,61,80,38
1,52,80,0
1,57,80,0
1,52,0,22
1,40,0,1
1,57,0,7
1,61,0,8
1,45,80,0
1,60,80,120
1,64,80,0
1,64,0,31
1,60,0,0
1,55,80,30
1,55,0,15
1,60,80,45
1,64,80,0
1,64,0,15
1,60,0,0
1,66,80,47
1,62,80,0
1,62,0,41
1,66,0,1
1,67,80,76
1,63,80,0
1,63,0,12
1,64,80,4
1,45,0,96
1,55,80,69
1,55,0,47
1,52,80,72
1,54,80,63
1,52,0,5
1,54,0,52
1,45,80,62
1,45,0,15
1,45,80,42
1,67,0,4
1,64,0,9
1,63,80,107
1,67,80,0
1,64,80,0
1,63,0,9
1,64,0,65
1,67,0,8
1,66,80,39
1,62,80,0
1,66,0,65
1,62,0,4
1,62,80,53
1,59,80,0
1,59,0,14
1,62,0,0
1,62,80,44
1,59,80,0
1,59,0,63
1,62,0,2
1,64,80,55
1,61,80,0
1,61,0,13
1,64,0,0
1,64,80,48
1,61,80,0
1,45,0,29
1,52,80,90
1,54,80,63
1,52,0,1
1,54,0,64
1,45,80,54
1,45,0,14
1,45,80,0
1,64,0,12
1,61,0,2
1,60,80,106
1,64,80,0
1,64,0,31
1,60,0,0
1,55,80,30
1,55,0,15
1,60,80,45
1,64,80,0
1,64,0,15
1,60,0,0
1,66,80,47
1,62,80,0
1,62,0,41
1,66,0,1
1,67,80,76
1,63,80,0
1,63,0,12
1,64,80,4
1,45,0,96
1,55,80,69
1,55,0,47
1,52,80,72
1,54,80,63
1,52,0,5
1,54,0,52
1,45,80,62
1,45,0,15
1,45,80,42
1,67,0,4
1,64,0,9
1,63,80,107
1,67,80,0
1,64,80,0
1,63,0,9
1,64,0,65
1,67,0,8
1,66,80,39
1,62,80,0
1,66,0,65
1,62,0,4
1,62,80,53
1,59,80,0
1,59,0,14
1,62,0,0
1,62,80,44
1,59,80,0
1,59,0,63
1,62,0,2
1,64,80,55
1,61,80,0
1,61,0,13
1,64,0,0
1,64,80,48
1,61,80,0
1,45,0,29
1,52,80,90
1,54,80,63
1,52,0,1
1,54,0,64
1,45,80,54
1,45,0,14
1,45,80,0
1,64,0,12
1,61,0,2
1,60,80,106
1,64,80,0
1,64,0,31
1,60,0,0
1,55,80,30
1,55,0,15
1,60,80,45
1,64,80,0
1,64,0,15
1,60,0,0
1,66,80,47
1,62,80,0
1,62,0,41
1,66,0,1
1,67,80,76
1,63,80,0
1,63,0,12
1,64,80,4
1,45,0,96
1,55,80,69
1,55,0,47
1,52,80,72
1,54,80,63
1,52,0,5
1,54,0,52
1,45,80,62
1,45,0,15
1,45,80,42
1,67,0,4
1,64,0,9
1,63,80,107
1,67,80,0
1,64,80,0
1,63,0,9
1,64,0,65
1,67,0,8
1,66,80,39
1,62,80,0
1,66,0,65
1,62,0,4
1,62,80,53
1,59,80,0
1,59,0,14
1,62,0,0
1,62,80,44
1,59,80,0
1,59,0,63
1,62,0,2
1,64,80,55
1,61,80,0
1,61,0,13
1,64,0,0
1,64,80,48
1,61,80,0
1,45,0,29
1,52,80,90
1,54,80,63
1,52,0,1
1,54,0,64
1,45,80,54
1,45,0,14
1,45,80,0
1,64,0,12
1,61,0,2
1,60,80,106
1,64,80,0
1,64,0,31
1,60,0,0
1,55,80,30
1,55,0,15
1,60,80,45
1,64,80,0
1,64,0,15
1,60,0,0
1,66,80,47
1,62,80,0
1,62,0,41
1,66,0,1
1,67,80,76
1,63,80,0
1,63,0,12
1,64,80,4
1,45,0,96
1,55,80,69
1,55,0,47
1,52,80,72
1,54,80,63
1,52,0,5
1,54,0,52
1,45,80,62
1,45,0,15
1,45,80,42
1,67,0,4
1,64,0,9
1,63,80,107
1,67,80,0
1,64,80,0
1,63,0,9
1,64,0,65
1,67,0,8
1,66,80,39
1,62,80,0
1,66,0,65
1,62,0,4
1,62,80,53
1,59,80,0
1,59,0,14
1,62,0,0
1,62,80,44
