track,note,velocity,time
1,65,120,0
1,68,120,12
1,65,120,12
1,61,120,12
1,59,120,720
1,58,120,7
1,57,120,720
1,56,120,0
1,65,120,0
1,68,120,12
1,65,120,12
1,61,120,12
1,59,120,720
1,58,120,7
1,57,120,720
1,56,120,0
1,65,120,0
1,68,120,12
1,65,120,12
1,61,120,12
1,59,120,720
1,58,120,7
1,57,120,720
1,56,120,0
1,65,120,0
1,68,120,12
1,65,120,12
1,61,120,12
1,59,120,720
1,58,120,7
1,57,120,720
1,56,120,0
1,65,120,19200
1,68,120,12
1,65,120,12
1,61,120,12
1,65,120,6713
1,68,120,12
1,65,120,12
1,61,120,12
1,65,120,2873
1,68,120,12
1,65,120,12
1,61,120,12
1,59,120,720
1,58,120,7
1,57,120,720
1,56,120,0
1,65,120,0
1,68,120,12
1,65,120,12
1,61,120,12
1,59,120,720
1,58,120,7
1,57,120,720
1,56,120,0
1,65,120,0
1,68,120,12
1,65,120,12
1,61,120,12
1,59,120,720
1,58,120,7
1,57,120,720
1,56,120,0
1,65,120,0
1,68,120,12
1,65,120,12
1,61,120,12
1,59,120,720
1,58,120,7
1,57,120,720
1,56,120,0
1,65,120,0
1,68,120,12
1,65,120,12
1,61,120,12
1,59,120,720
1,58,120,7
1,57,120,720
1,56,120,0
1,65,120,0
1,68,120,12
1,65,120,12
1,61,120,12
1,59,120,720
1,58,120,7
1,57,120,720
1,56,120,0
1,65,120,0
1,68,120,12
1,65,120,12
1,61,120,12
1,59,120,720
1,58,120,7
1,57,120,720
1,56,120,0
1,65,120,0
1,68,120,12
1,65,120,12
1,61,120,12
1,65,120,240
1,68,120,12
1,65,120,12
1,61,120,12
1,65,120,240
1,68,120,12
1,65,120,12
1,68,120,12
1,65,120,12
1,65,120,12
1,65,120,12
1,65,120,2
1,65,120,4
1,65,120,9
1,65,120,30717
1,68,120,12
1,65,120,12
1,61,120,12
1,65,120,2393
1,68,120,12
1,65,120,12
1,61,120,12
1,65,120,2393
1,68,120,12
1,65,120,12
1,61,120,12
1,65,120,2393
1,68,120,12
1,65,120,12
1,61,120,12
1,65,120,17753
1,68,120,12
1,65,120,12
1,61,120,12
1,59,120,720
1,58,120,7
1,57,120,720
1,56,120,0
1,65,120,0
1,68,120,12
1,65,120,12
1,61,120,12
1,59,120,720
1,58,120,7
1,57,120,720
1,56,120,0
1,65,120,0
1,68,120,12
1,65,120,12
1,61,120,12
1,59,120,720
1,58,120,7
1,57,120,720
1,56,120,0
1,65,120,0
1,68,120,12
1,65,120,12
1,61,120,12
1,59,120,720
1,58,120,7
1,57,120,720
1,56,120,0
1,65,120,0
1,68,120,12
1,65,120,12
1,61,120,12
1,59,120,720
1,58,120,7
1,57,120,720
1,56,120,0
1,65,120,0
1,68,120,12
1,65,120,12
1,61,120,12
1,59,120,720
1,58,120,7
1,57,120,720
1,56,120,0
1,65,120,0
1,68,120,12
1,65,120,12
1,61,120,12
1,59,120,720
1,58,120,7
1,57,120,720
1,56,120,0
1,65,120,0
1,68,120,12
1,65,120,12
1,61,120,12
1,59,120,720
1,58,120,7
1,57,120,720
1,56,120,0
2,37,120,0
2,44,120,7
2,47,120,720
2,42,120,7
2,45,120,720
2,37,120,0
2,44,120,7
2,47,120,720
2,42,120,7
2,45,120,720
2,37,120,0
2,44,120,7
2,47,120,720
2,42,120,7
2,45,120,720
2,37,120,0
2,44,120,7
2,47,120,720
2,42,120,7
2,45,120,720
2,37,120,0
2,44,120,7
2,47,120,720
2,42,120,7
2,45,120,720
2,37,120,0
2,44,120,7
2,47,120,720
2,42,120,7
2,45,120,720
2,37,120,0
2,44,120,7
2,47,120,720
2,42,120,7
2,45,120,720
2,37,120,0
2,44,120,7
2,47,120,720
2,42,120,7
2,45,120,720
2,37,120,0
2,37,120,7200
2,37,120,7200
2,44,120,7
2,47,120,720
2,42,120,7
2,45,120,720
2,37,120,0
2,44,120,7
2,47,120,720
2,42,120,7
2,45,120,720
2,37,120,0
2,44,120,7
2,47,120,720
2,42,120,7
2,45,120,720
2,37,120,0
2,44,120,7
2,47,120,720
2,42,120,7
2,45,120,720
2,37,120,0
2,44,120,7
2,47,120,720
2,42,120,7
2,45,120,720
2,37,120,0
2,44,120,7
2,47,120,720
2,42,120,7
2,45,120,720
2,37,120,0
2,44,120,7
2,47,120,720
2,42,120,7
2,45,120,720
2,37,120,0
2,37,120,0
2,37,120,0
2,37,120,0
2,37,120,0
2,37,120,0
2,37,120,0
2,37,120,2
2,37,120,4
2,37,120,9
2,37,120,3
2,44,120,7
2,47,120,720
2,42,120,7
2,45,120,720
2,37,120,0
2,44,120,7
2,47,120,720
2,42,120,7
2,45,120,720
2,37,120,0
2,44,120,7
2,47,120,720
2,42,120,7
2,45,120,720
2,37,120,0
2,44,120,7
2,47,120,720
2,42,120,7
2,45,120,720
2,37,120,0
2,44,120,7
2,47,120,720
2,42,120,7
2,45,120,720
2,37,120,0
2,44,120,7
2,47,120,720
2,42,120,7
2,45,120,720
2,37,120,0
2,44,120,7
2,47,120,720
2,42,120,7
2,45,120,720
2,37,120,0
2,44,120,7
2,47,120,720
2,42,120,7
2,45,120,720
2,37,120,0
2,44,120,7
2,47,120,720
2,42,120,7
2,45,120,720
2,37,120,0
2,44,120,7
2,47,120,720
2,42,120,7
2,45,120,720
2,37,120,0
2,44,120,7
2,47,120,720
2,42,120,7
2,45,120,720
2,37,120,0
2,44,120,7
2,47,120,720
2,42,120,7
2,45,120,720
2,37,120,15360
2,44,120,7
2,47,120,720
2,42,120,7
2,45,120,720
2,37,120,0
2,44,120,7
2,47,120,720
2,42,120,7
2,45,120,720
2,37,120,0
2,44,120,7
2,47,120,720
2,42,120,7
2,45,120,720
2,37,120,0
2,44,120,7
2,47,120,720
2,42,120,7
2,45,120,720
2,37,120,0
2,44,120,7
2,47,120,720
2,42,120,7
2,45,120,720
2,37,120,0
2,44,120,7
2,47,120,720
2,42,120,7
2,45,120,720
2,37,120,0
2,44,120,7
2,47,120,720
2,42,120,7
2,45,120,720
2,37,120,0
2,44,120,7
2,47,120,720
2,42,120,7
2,45,120,720
2,37,120,0
2,44,120,7
2,47,120,720
2,42,120,7
2,45,120,720
2,37,120,0
2,44,120,7
2,47,120,720
2,42,120,7
2,45,120,720
2,37,120,0
2,44,120,7
2,47,120,720
2,42,120,7
2,45,120,720
2,37,120,0
2,44,120,7
2,47,120,720
2,42,120,7
2,45,120,720
2,37,120,0
2,44,120,7
2,47,120,720
2,42,120,7
2,45,120,720
2,37,120,0
2,44,120,7
2,47,120,720
2,42,120,7
2,45,120,720
2,37,120,0
2,44,120,7
2,47,120,720
2,42,120,7
2,45,120,720
2,37,120,0
2,44,120,7
2,47,120,720
2,42,120,7
2,45,120,720
3,44,120,0
3,44,120,7
3,44,120,240
3,42,120,240
3,45,120,240
3,42,120,0
3,44,120,252
3,44,120,7
3,44,120,240
3,42,120,240
3,45,120,240
3,42,120,0
3,44,120,252
3,44,120,7
3,44,120,240
3,42,120,240
3,45,120,240
3,42,120,0
3,44,120,252
3,44,120,7
3,44,120,240
3,42,120,240
3,45,120,240
3,42,120,0
3,44,120,252
3,44,120,7
3,44,120,240
3,42,120,240
3,45,120,240
3,42,120,0
3,44,120,252
3,44,120,7
3,44,120,240
3,42,120,240
3,45,120,240
3,42,120,0
3,44,120,252
3,44,120,7
3,44,120,240
3,42,120,240
3,45,120,240
3,42,120,0
3,44,120,252
3,44,120,7
3,44,120,240
3,42,120,240
3,45,120,240
3,42,120,0
3,44,120,252
3,44,120,7200
3,44,120,7200
3,44,120,7
3,44,120,240
3,42,120,240
3,45,120,240
3,42,120,0
3,44,120,252
3,44,120,7
3,44,120,240
3,42,120,240
3,45,120,240
3,42,120,0
3,44,120,252
3,44,120,7
3,44,120,240
3,42,120,240
3,45,120,240
3,42,120,0
3,44,120,252
3,44,120,7
3,44,120,240
3,42,120,240
3,45,120,240
3,42,120,0
3,44,120,252
3,44,120,7
3,44,120,240
3,42,120,240
3,45,120,240
3,42,120,0
3,44,120,252
3,44,120,7
3,44,120,240
3,42,120,240
3,45,120,240
3,42,120,0
3,44,120,252
3,44,120,7
3,44,120,240
3,42,120,240
3,45,120,240
3,42,120,0
3,44,120,252
3,44,120,0
3,44,120,0
3,44,120,0
3,44,120,0
3,44,120,0
3,44,120,0
3,44,120,2
3,44,120,4
3,44,120,9
3,44,120,3
3,44,120,7
3,44,120,240
3,42,120,240
3,45,120,240
3,42,120,0
3,44,120,252
3,44,120,7
3,44,120,240
3,42,120,240
3,45,120,240
3,42,120,0
3,44,120,252
3,44,120,7
3,44,120,240
3,42,120,240
3,45,120,240
3,42,120,0
3,44,120,252
3,44,120,7
3,44,120,240
3,42,120,240
3,45,120,240
3,42,120,0
3,44,120,252
3,44,120,7
3,44,120,240
3,42,120,240
3,45,120,240
3,42,120,0
3,44,120,252
3,44,120,7
3,44,120,240
3,42,120,240
3,45,120,240
3,42,120,0
3,44,120,252
3,44,120,7
3,44,120,240
3,42,120,240
3,45,120,240
3,42,120,0
3,44,120,252
3,44,120,7
3,44,120,240
3,42,120,240
3,45,120,240
3,42,120,0
3,44,120,252
3,44,120,7
3,44,120,240
3,42,120,240
3,45,120,240
3,42,120,0
3,44,120,252
3,44,120,7
3,44,120,240
3,42,120,240
3,45,120,240
3,42,120,0
3,44,120,252
3,44,120,7
3,44,120,240
3,42,120,240
3,45,120,240
3,42,120,0
3,44,120,252
3,44,120,7
3,44,120,240
3,42,120,240
3,45,120,240
3,42,120,0
3,44,120,15612
3,44,120,7
3,44,120,240
3,42,120,240
3,45,120,240
3,42,120,0
3,44,120,252
3,44,120,7
3,44,120,240
3,42,120,240
3,45,120,240
3,42,120,0
3,44,120,252
3,44,120,7
3,44,120,240
3,42,120,240
3,45,120,240
3,42,120,0
3,44,120,252
3,44,120,7
3,44,120,240
3,42,120,240
3,45,120,240
3,42,120,0
3,44,120,252
3,44,120,7
3,44,120,240
3,42,120,240
3,45,120,240
3,42,120,0
3,44,120,252
3,44,120,7
3,44,120,240
3,42,120,240
3,45,120,240
3,42,120,0
3,44,120,252
3,44,120,7
3,44,120,240
3,42,120,240
3,45,120,240
3,42,120,0
3,44,120,252
3,44,120,7
3,44,120,240
3,42,120,240
3,45,120,240
3,42,120,0
3,44,120,252
3,44,120,7
3,44,120,240
3,42,120,240
3,45,120,240
3,42,120,0
3,44,120,252
3,44,120,7
3,44,120,240
3,42,120,240
3,45,120,240
3,42,120,0
3,44,120,252
3,44,120,7
3,44,120,240
3,42,120,240
3,45,120,240
3,42,120,0
3,44,120,252
3,44,120,7
3,44,120,240
3,42,120,240
3,45,120,240
3,42,120,0
3,44,120,252
3,44,120,7
3,44,120,240
3,42,120,240
3,45,120,240
3,42,120,0
3,44,120,252
3,44,120,7
3,44,120,240
3,42,120,240
3,45,120,240
3,42,120,0
3,44,120,252
3,44,120,7
3,44,120,240
3,42,120,240
3,45,120,240
3,42,120,0
3,44,120,252
3,44,120,7
3,44,120,240
3,42,120,240
3,45,120,240
3,42,120,0
4,65,120,0
4,68,120,12
4,65,120,12
4,61,120,12
4,59,120,720
4,58,120,7
4,57,120,720
4,56,120,0
4,65,120,0
4,68,120,12
4,65,120,12
4,61,120,12
4,59,120,720
4,58,120,7
4,57,120,720
4,56,120,0
4,65,120,0
4,68,120,12
4,65,120,12
4,61,120,12
4,59,120,720
4,58,120,7
4,57,120,720
4,56,120,0
4,65,120,0
4,68,120,12
4,65,120,12
4,61,120,12
4,59,120,720
4,58,120,7
4,57,120,720
4,56,120,0
4,65,120,0
4,68,120,12
4,65,120,12
4,61,120,12
4,59,120,720
4,58,120,7
4,57,120,720
4,56,120,0
4,65,120,0
4,68,120,12
4,65,120,12
4,61,120,12
4,59,120,720
4,58,120,7
4,57,120,720
4,56,120,0
4,65,120,0
4,68,120,12
4,65,120,12
4,61,120,12
4,59,120,720
4,58,120,7
4,57,120,720
4,56,120,0
4,65,120,0
4,68,120,12
4,65,120,12
4,61,120,12
4,59,120,720
4,58,120,7
4,57,120,720
4,56,120,0
4,65,120,3840
4,68,120,12
4,65,120,12
4,61,120,12
4,65,120,6713
4,68,120,12
4,65,120,12
4,61,120,12
4,65,120,2873
4,68,120,12
4,65,120,12
4,61,120,12
4,59,120,720
4,58,120,7
4,57,120,720
4,56,120,0
4,65,120,0
4,68,120,12
4,65,120,12
4,61,120,12
4,59,120,720
4,58,120,7
4,57,120,720
4,56,120,0
4,65,120,0
4,68,120,12
4,65,120,12
4,61,120,12
4,59,120,720
4,58,120,7
4,57,120,720
4,56,120,0
4,65,120,0
4,68,120,12
4,65,120,12
4,61,120,12
4,59,120,720
4,58,120,7
4,57,120,720
4,56,120,0
4,65,120,0
4,68,120,12
4,65,120,12
4,61,120,12
4,59,120,720
4,58,120,7
4,57,120,720
4,56,120,0
4,65,120,0
4,68,120,12
4,65,120,12
4,61,120,12
4,59,120,720
4,58,120,7
4,57,120,720
4,56,120,0
4,65,120,0
4,68,120,12
4,65,120,12
4,61,120,12
4,59,120,720
4,58,120,7
4,57,120,720
4,56,120,0
4,65,120,0
4,68,120,12
4,65,120,12
4,61,120,12
4,65,120,240
4,68,120,12
4,65,120,12
4,61,120,12
4,65,120,240
4,68,120,12
4,65,120,12
4,68,120,12
4,65,120,12
4,65,120,12
4,65,120,12
4,65,120,2
4,65,120,4
4,65,120,9
4,65,120,30717
4,68,120,12
4,65,120,12
4,61,120,12
4,59,120,720
4,58,120,7
4,57,120,720
4,56,120,0
4,65,120,0
4,68,120,12
4,65,120,12
4,61,120,12
4,59,120,720
4,58,120,7
4,57,120,720
4,56,120,0
4,65,120,0
4,68,120,12
4,65,120,12
4,61,120,12
4,59,120,720
4,58,120,7
4,57,120,720
4,56,120,0
4,65,120,0
4,68,120,12
4,65,120,12
4,61,120,12
4,59,120,720
4,58,120,7
4,57,120,720
4,56,120,0
4,65,120,15360
4,68,120,12
4,65,120,12
4,61,120,12
4,59,120,720
4,58,120,7
4,57,120,720
4,56,120,0
4,65,120,0
4,68,120,12
4,65,120,12
4,61,120,12
4,59,120,720
4,58,120,7
4,57,120,720
4,56,120,0
4,65,120,0
4,68,120,12
4,65,120,12
4,61,120,12
4,59,120,720
4,58,120,7
4,57,120,720
4,56,120,0
4,65,120,0
4,68,120,12
4,65,120,12
4,61,120,12
4,59,120,720
4,58,120,7
4,57,120,720
4,56,120,0
4,65,120,0
4,68,120,12
4,65,120,12
4,61,120,12
4,59,120,720
4,58,120,7
4,57,120,720
4,56,120,0
4,65,120,0
4,68,120,12
4,65,120,12
4,61,120,12
4,59,120,720
4,58,120,7
4,57,120,720
4,56,120,0
4,65,120,0
4,68,120,12
4,65,120,12
4,61,120,12
4,59,120,720
4,58,120,7
4,57,120,720
4,56,120,0
4,65,120,0
4,68,120,12
4,65,120,12
4,61,120,12
4,59,120,720
4,58,120,7
4,57,120,720
4,56,120,0
4,65,120,0
4,68,120,12
4,65,120,12
4,61,120,12
4,59,120,720
4,58,120,7
4,57,120,720
4,56,120,0
4,65,120,0
4,68,120,12
4,65,120,12
4,61,120,12
4,59,120,720
4,58,120,7
4,57,120,720
4,56,120,0
4,65,120,0
4,68,120,12
4,65,120,12
4,61,120,12
4,59,120,720
4,58,120,7
4,57,120,720
4,56,120,0
4,65,120,0
4,68,120,12
4,65,120,12
4,61,120,12
4,59,120,720
4,58,120,7
4,57,120,720
4,56,120,0
4,65,120,0
4,68,120,12
4,65,120,12
4,61,120,12
4,59,120,720
4,58,120,7
4,57,120,720
4,56,120,0
4,65,120,0
4,68,120,12
4,65,120,12
4,61,120,12
4,59,120,720
4,58,120,7
4,57,120,720
4,56,120,0
4,65,120,0
4,68,120,12
4,65,120,12
4,61,120,12
4,59,120,720
4,58,120,7
4,57,120,720
4,56,120,0
4,65,120,0
4,68,120,12
4,65,120,12
4,61,120,12
4,59,120,720
4,58,120,7
4,57,120,720
4,56,120,0
5,64,120,15840
5,61,120,0
5,64,120,12
