track,note,velocity,time
4,69,100,0
4,69,0,60
4,74,100,0
4,74,0,60
4,76,100,0
4,76,0,60
4,69,100,0
4,69,0,60
4,74,100,0
4,74,0,60
4,76,100,0
4,76,0,60
4,74,100,0
4,74,0,60
4,76,100,0
4,76,0,60
4,69,100,0
4,69,0,60
4,74,100,0
4,74,0,60
4,76,100,0
4,76,0,60
4,69,100,0
4,69,0,60
4,74,100,0
4,74,0,60
4,76,100,0
4,76,0,60
4,74,100,0
4,74,0,60
4,76,100,0
4,76,0,60
4,69,100,0
4,69,0,60
4,74,100,0
4,74,0,60
4,76,100,0
4,76,0,60
4,69,100,0
4,69,0,60
4,74,100,0
4,74,0,60
4,76,100,0
4,76,0,60
4,74,100,0
4,74,0,60
4,76,100,0
4,76,0,60
4,69,100,960
4,69,0,60
4,74,100,0
4,74,0,60
4,76,100,0
4,76,0,60
4,69,100,0
4,69,0,60
4,74,100,0
4,74,0,60
4,76,100,0
4,76,0,60
4,74,100,0
4,74,0,60
4,76,100,0
4,76,0,60
4,69,100,0
4,69,0,60
4,74,100,0
4,74,0,60
4,76,100,0
4,76,0,60
4,69,100,0
4,69,0,60
4,74,100,0
4,74,0,60
4,76,100,0
4,76,0,60
4,74,100,0
4,74,0,60
4,76,100,0
4,76,0,60
4,69,100,960
4,69,0,60
4,74,100,0
4,74,0,60
4,76,100,0
4,76,0,60
4,69,100,0
4,69,0,60
4,74,100,0
4,74,0,60
4,76,100,0
4,76,0,60
4,74,100,0
4,74,0,60
4,76,100,0
4,76,0,60
4,69,100,0
4,69,0,60
4,74,100,0
4,74,0,60
4,76,100,0
4,76,0,60
4,69,100,0
4,69,0,60
4,74,100,0
4,74,0,60
4,76,100,0
4,76,0,60
4,74,100,0
4,74,0,60
4,76,100,0
4,76,0,60
4,69,100,960
4,69,0,60
4,74,100,0
4,74,0,60
4,76,100,0
4,76,0,60
4,69,100,0
4,69,0,60
4,74,100,0
4,74,0,60
4,76,100,0
4,76,0,60
4,74,100,0
4,74,0,60
4,76,100,0
4,76,0,60
4,69,100,0
4,69,0,60
4,74,100,0
4,74,0,60
4,76,100,0
4,76,0,60
4,69,100,0
4,69,0,60
4,74,100,0
4,74,0,60
4,76,100,0
4,76,0,60
4,74,100,0
4,74,0,60
4,76,100,0
4,76,0,60
4,69,100,960
4,69,0,60
4,74,100,0
4,74,0,60
4,76,100,0
4,76,0,60
4,69,100,0
4,69,0,60
4,74,100,0
4,74,0,60
4,76,100,0
4,76,0,60
4,74,100,0
4,74,0,60
4,76,100,0
4,76,0,60
4,69,100,0
4,69,0,60
4,74,100,0
4,74,0,60
4,76,100,0
4,76,0,60
4,69,100,0
4,69,0,60
4,74,100,0
4,74,0,60
4,76,100,0
4,76,0,60
4,74,100,0
4,74,0,60
4,76,100,0
4,76,0,60
4,69,100,960
4,69,0,60
4,74,100,0
4,74,0,60
4,76,100,0
4,76,0,60
4,69,100,0
4,69,0,60
4,74,100,0
4,74,0,60
4,76,100,0
4,76,0,60
4,74,100,0
4,74,0,60
4,76,100,0
4,76,0,60
4,69,100,0
4,69,0,60
4,74,100,0
4,74,0,60
4,76,100,0
4,76,0,60
4,69,100,0
4,69,0,60
4,74,100,0
4,74,0,60
4,76,100,0
4,76,0,60
4,74,100,0
4,74,0,60
4,76,100,0
4,76,0,60
4,69,100,960
4,69,0,60
4,74,100,0
4,74,0,60
4,76,100,0
4,76,0,60
4,69,100,0
4,69,0,60
4,74,100,0
4,74,0,60
4,76,100,0
4,76,0,60
4,74,100,0
4,74,0,60
4,76,100,0
4,76,0,60
4,69,100,0
4,69,0,60
4,74,100,0
4,74,0,60
4,76,100,0
4,76,0,60
4,69,100,0
4,69,0,60
4,74,100,0
4,74,0,60
4,76,100,0
4,76,0,60
4,74,100,0
4,74,0,60
4,76,100,0
4,76,0,60
4,69,100,960
4,69,0,60
4,74,100,0
4,74,0,60
4,76,100,0
4,76,0,60
4,69,100,0
4,69,0,60
4,74,100,0
4,74,0,60
4,76,100,0
4,76,0,60
4,74,100,0
4,74,0,60
4,76,100,0
4,76,0,60
4,69,100,0
4,69,0,60
4,74,100,0
4,74,0,60
4,76,100,0
4,76,0,60
4,69,100,0
4,69,0,60
4,74,100,0
4,74,0,60
4,76,100,0
4,76,0,60
4,74,100,0
4,74,0,60
4,76,100,0
4,76,0,60
4,69,100,960
4,69,0,60
4,74,100,0
4,74,0,60
4,76,100,0
4,76,0,60
4,69,100,0
4,69,0,60
4,74,100,0
4,74,0,60
4,76,100,0
4,76,0,60
4,74,100,0
4,74,0,60
4,76,100,0
4,76,0,60
4,69,100,0
4,69,0,60
4,74,100,0
4,74,0,60
4,76,100,0
4,76,0,60
4,69,100,0
4,69,0,60
4,74,100,0
4,74,0,60
4,76,100,0
4,76,0,60
4,74,100,0
4,74,0,60
4,76,100,0
4,76,0,60
4,69,100,960
4,69,0,60
4,74,100,0
4,74,0,60
4,76,100,0
4,76,0,60
4,69,100,0
4,69,0,60
4,74,100,0
4,74,0,60
4,76,100,0
4,76,0,60
4,74,100,0
4,74,0,60
4,76,100,0
4,76,0,60
4,69,100,0
4,69,0,60
4,74,100,0
4,74,0,60
4,76,100,0
4,76,0,60
4,69,100,0
4,69,0,60
4,74,100,0
4,74,0,60
4,76,100,0
4,76,0,60
4,74,100,0
4,74,0,60
4,76,100,0
4,76,0,60
4,69,100,960
4,69,0,60
4,74,100,0
4,74,0,60
4,76,100,0
4,76,0,60
4,69,100,0
4,69,0,60
4,74,100,0
4,74,0,60
4,76,100,0
4,76,0,60
4,74,100,0
4,74,0,60
4,76,100,0
4,76,0,60
4,69,100,0
4,69,0,60
4,74,100,0
4,74,0,60
4,76,100,0
4,76,0,60
4,69,100,0
4,69,0,60
4,74,100,0
4,74,0,60
4,76,100,0
4,76,0,60
4,74,100,0
4,74,0,60
4,76,100,0
4,76,0,60
4,69,100,960
4,69,0,60
4,74,100,0
4,74,0,60
4,76,100,0
4,76,0,60
4,69,100,0
4,69,0,60
4,74,100,0
4,74,0,60
4,76,100,0
4,76,0,60
4,74,100,0
4,74,0,60
4,76,100,0
4,76,0,60
4,69,100,0
4,69,0,60
4,74,100,0
4,74,0,60
4,76,100,0
4,76,0,60
4,69,100,0
4,69,0,60
4,74,100,0
4,74,0,60
4,76,100,0
4,76,0,60
4,74,100,0
4,74,0,60
4,76,100,0
4,76,0,60
4,69,100,960
4,69,0,60
4,74,100,0
4,74,0,60
4,76,100,0
4,76,0,60
4,69,100,0
4,69,0,60
4,74,100,0
4,74,0,60
4,76,100,0
4,76,0,60
4,74,100,0
4,74,0,60
4,76,100,0
4,76,0,60
4,69,100,0
4,69,0,60
4,74,100,0
4,74,0,60
4,76,100,0
4,76,0,60
4,69,100,0
4,69,0,60
4,74,100,0
4,74,0,60
4,76,100,0
4,76,0,60
4,74,100,0
4,74,0,60
4,76,100,0
4,76,0,60
4,69,100,960
4,69,0,60
4,74,100,0
4,74,0,60
4,76,100,0
4,76,0,60
4,69,100,0
4,69,0,60
4,74,100,0
4,74,0,60
4,76,100,0
4,76,0,60
4,74,100,0
4,74,0,60
4,76,100,0
4,76,0,60
4,69,100,0
4,69,0,60
4,74,100,0
4,74,0,60
4,76,100,0
4,76,0,60
4,69,100,0
4,69,0,60
4,74,100,0
4,74,0,60
4,76,100,0
4,76,0,60
4,74,100,0
4,74,0,60
4,76,100,0
4,76,0,60
4,69,100,4800
4,69,0,60
4,74,100,0
4,74,0,60
4,76,100,0
4,76,0,60
4,69,100,0
4,69,0,60
4,74,100,0
4,74,0,60
4,76,100,0
4,76,0,60
4,74,100,0
4,74,0,60
4,76,100,0
4,76,0,60
4,69,100,0
4,69,0,60
4,74,100,0
4,74,0,60
4,76,100,0
4,76,0,60
4,69,100,0
4,69,0,60
4,74,100,0
4,74,0,60
4,76,100,0
4,76,0,60
4,74,100,0
4,74,0,60
4,76,100,0
4,76,0,60
4,69,100,960
4,69,0,60
4,74,100,0
4,74,0,60
4,76,100,0
4,76,0,60
4,69,100,0
4,69,0,60
4,74,100,0
4,74,0,60
4,76,100,0
4,76,0,60
4,74,100,0
4,74,0,60
4,76,100,0
4,76,0,60
4,69,100,0
4,69,0,60
4,74,100,0
4,74,0,60
4,76,100,0
4,76,0,60
4,69,100,0
4,69,0,60
4,74,100,0
4,74,0,60
4,76,100,0
4,76,0,60
4,74,100,0
4,74,0,60
4,76,100,0
4,76,0,60
5,57,100,0
5,57,0,180
5,57,100,0
5,57,0,180
5,52,100,0
5,52,0,30
5,55,100,30
5,55,0,30
5,57,100,30
5,57,0,180
5,57,100,0
5,57,0,180
5,52,100,0
5,52,0,30
5,55,100,30
5,55,0,30
5,57,100,30
5,57,0,180
5,57,100,0
5,57,0,180
5,52,100,0
5,52,0,30
5,55,100,30
5,55,0,30
5,50,100,30
5,50,0,180
5,50,100,0
5,50,0,180
5,52,100,0
5,52,0,30
5,50,100,30
5,50,0,30
5,50,100,30
5,50,100,0
5,50,0,180
5,50,0,0
5,50,100,0
5,50,0,180
5,52,100,0
5,52,0,30
5,50,100,30
5,50,0,30
5,57,100,30
5,57,0,180
5,57,100,0
5,57,0,180
5,52,100,0
5,52,0,30
5,55,100,30
5,55,0,30
5,57,100,30
5,57,0,180
5,57,100,0
5,57,0,180
5,52,100,0
5,52,0,30
5,55,100,30
5,55,0,30
5,50,100,30
5,50,0,180
5,50,100,0
5,50,0,180
5,52,100,0
5,52,0,30
5,50,100,30
5,50,0,30
5,50,100,30
5,50,0,180
5,50,100,0
5,50,0,180
5,52,100,0
5,52,0,30
5,50,100,30
5,50,0,30
5,57,100,30
5,57,0,180
5,57,100,0
5,57,0,180
5,52,100,0
5,52,0,30
5,55,100,30
5,55,0,30
5,57,100,30
5,57,0,180
5,57,100,0
5,57,0,180
5,52,100,0
5,52,0,30
5,55,100,30
5,55,0,30
5,50,100,30
5,50,0,180
5,50,100,0
5,50,0,180
5,52,100,0
5,52,0,30
5,50,100,30
5,50,0,30
5,50,100,30
5,50,0,180
5,50,100,0
5,50,0,180
5,52,100,0
5,52,0,30
5,50,100,30
5,50,0,30
5,57,100,30
5,57,0,180
5,57,100,0
5,57,0,180
5,52,100,0
5,52,0,30
5,55,100,30
5,55,0,30
5,57,100,30
5,57,0,180
5,57,100,0
5,57,0,180
5,52,100,0
5,52,0,30
5,55,100,30
5,55,0,30
5,50,100,30
5,50,0,180
5,50,100,0
5,50,0,180
5,52,100,0
5,52,0,30
5,50,100,30
5,50,0,30
5,50,100,30
5,50,0,180
5,50,100,0
5,50,0,180
5,52,100,0
5,52,0,30
5,50,100,30
5,50,0,30
5,57,100,30
5,57,0,180
5,57,100,0
5,57,0,180
5,52,100,0
5,52,0,30
5,55,100,30
5,55,0,30
5,57,100,30
5,57,0,180
5,57,100,0
5,57,0,180
5,52,100,0
5,52,0,30
5,55,100,30
5,55,0,30
5,50,100,30
5,50,0,180
5,50,100,0
5,50,0,180
5,52,100,0
5,52,0,30
5,50,100,30
5,50,0,30
5,50,100,30
5,50,0,180
5,50,100,0
5,50,0,180
5,52,100,0
5,52,0,30
5,50,100,30
5,50,0,30
5,57,100,30
5,57,0,180
5,57,100,0
5,57,0,180
5,52,100,0
5,52,0,30
5,55,100,30
5,55,0,30
5,57,100,30
5,57,0,180
5,57,100,0
5,57,0,180
5,52,100,0
5,52,0,30
5,55,100,30
5,55,0,30
5,50,100,30
5,50,0,180
5,50,100,0
5,50,0,180
5,52,100,0
5,52,0,30
5,50,100,30
5,50,0,30
5,50,100,30
5,50,0,180
5,50,100,0
5,50,0,180
5,52,100,0
5,52,0,30
5,50,100,30
5,50,0,30
5,57,100,30
5,57,0,180
5,57,100,0
5,57,0,180
5,52,100,0
5,52,0,30
5,55,100,30
5,55,0,30
5,57,100,30
5,57,0,180
5,57,100,0
5,57,0,180
5,52,100,0
5,52,0,30
5,55,100,30
5,55,0,30
5,50,100,30
5,50,0,180
5,50,100,0
5,50,0,180
5,52,100,0
5,52,0,30
5,50,100,30
5,50,0,30
5,50,100,30
5,50,0,180
5,50,100,0
5,50,0,180
5,52,100,0
5,52,0,30
5,50,100,30
5,50,0,30
5,57,100,30
5,57,0,180
5,57,100,0
5,57,0,180
5,52,100,0
5,52,0,30
5,55,100,30
5,55,0,30
5,57,100,30
5,57,0,180
5,57,100,0
5,57,0,180
5,52,100,0
5,52,0,30
5,55,100,30
5,55,0,30
5,50,100,30
5,50,0,180
5,50,100,0
5,50,0,180
5,52,100,0
5,52,0,30
5,50,100,30
5,50,0,30
5,50,100,30
5,50,0,180
5,50,100,0
5,50,0,180
5,52,100,0
5,52,0,30
5,50,100,30
5,50,0,30
5,57,100,30
5,57,0,180
5,57,100,0
5,57,0,180
5,52,100,0
5,52,0,30
5,55,100,30
5,55,0,30
5,57,100,30
5,57,0,180
5,57,100,0
5,57,0,180
5,52,100,0
5,52,0,30
5,55,100,30
5,55,0,30
5,50,100,30
5,50,0,180
5,50,100,0
5,50,0,180
5,52,100,0
5,52,0,30
5,50,100,30
5,50,0,30
5,50,100,30
5,50,0,180
5,50,100,0
5,50,0,180
5,52,100,0
5,52,0,30
5,50,100,30
5,50,0,30
5,57,100,30
5,57,0,180
5,57,100,0
5,57,0,180
5,52,100,0
5,52,0,30
5,55,100,30
5,55,0,30
5,57,100,30
5,57,0,180
5,57,100,0
5,57,0,180
5,52,100,0
5,52,0,30
5,55,100,30
5,55,0,30
5,50,100,30
5,50,0,180
5,50,100,0
5,50,0,180
5,52,100,0
5,52,0,30
5,50,100,30
5,50,0,30
5,50,100,30
5,50,0,180
5,50,100,0
5,50,0,180
5,52,100,0
5,52,0,30
5,50,100,30
5,50,0,30
5,57,100,30
5,57,0,180
5,57,100,0
5,57,0,180
5,52,100,0
5,52,0,30
5,55,100,30
5,55,0,30
5,57,100,30
5,57,0,180
5,57,100,0
5,57,0,180
5,52,100,0
5,52,0,30
5,55,100,30
5,55,0,30
5,50,100,30
5,50,0,180
5,50,100,0
5,50,0,180
5,52,100,0
5,52,0,30
5,50,100,30
5,50,0,30
5,50,100,30
5,50,0,180
5,50,100,0
5,50,0,180
5,52,100,0
5,52,0,30
5,50,100,30
5,50,0,30
5,57,100,30
5,57,0,180
5,57,100,0
5,57,0,180
5,52,100,0
5,52,0,30
5,55,100,30
5,55,0,30
5,57,100,30
5,57,0,180
5,57,100,0
5,57,0,180
5,52,100,0
5,52,0,30
5,55,100,30
5,55,0,30
5,50,100,30
5,50,0,180
5,50,100,0
5,50,0,180
5,52,100,0
5,52,0,30
5,50,100,30
5,50,0,30
5,50,100,30
5,50,0,180
5,50,100,0
5,50,0,180
5,52,100,0
5,52,0,30
5,50,100,30
5,50,0,30
5,57,100,30
5,57,0,180
5,57,100,0
5,57,0,180
5,52,100,0
5,52,0,30
5,55,100,30
5,55,0,30
5,57,100,30
5,57,0,180
5,57,100,0
5,57,0,180
5,52,100,0
5,52,0,30
5,55,100,30
5,55,0,30
5,50,100,30
5,50,0,180
5,50,100,0
5,50,0,180
5,52,100,0
5,52,0,30
5,50,100,30
5,50,0,30
5,50,100,30
5,50,0,180
5,50,100,0
5,50,0,180
5,52,100,0
5,52,0,30
5,50,100,30
5,50,0,30
5,57,100,30
5,57,0,180
5,57,100,0
5,57,0,180
5,52,100,0
5,52,0,30
5,55,100,30
5,55,0,30
5,57,100,30
5,57,0,180
5,57,100,0
5,57,0,180
5,52,100,0
5,52,0,30
5,55,100,30
5,55,0,30
5,50,100,30
5,50,0,180
5,50,100,0
5,50,0,180
5,52,100,0
5,52,0,30
5,50,100,30
5,50,0,30
5,50,100,30
5,50,0,180
5,50,100,0
5,50,0,180
5,52,100,0
5,52,0,30
5,50,100,30
5,50,0,30
5,57,100,3870
5,57,0,180
5,57,100,0
5,57,0,180
5,52,100,0
5,52,0,30
5,55,100,30
5,55,0,30
5,57,100,30
5,57,0,180
5,57,100,0
5,57,0,180
5,52,100,0
5,52,0,30
