track,note,velocity,time
1,59,100,480
1,62,100,0
1,67,100,0
1,43,100,0
1,43,0,60
1,43,100,0
1,43,0,120
1,67,0,0
1,62,0,0
1,59,0,0
1,59,100,0
1,62,100,0
1,67,100,0
1,43,100,0
1,43,0,60
1,59,0,0
1,62,0,0
1,67,0,0
1,59,100,0
1,62,100,0
1,67,100,0
1,43,100,0
1,43,0,60
1,59,0,0
1,62,0,0
1,67,0,0
1,59,100,0
1,62,100,0
1,67,100,0
1,43,100,0
1,43,0,120
1,43,100,0
1,43,0,60
1,67,0,0
1,62,0,0
1,59,0,0
1,59,100,0
1,62,100,0
1,67,100,0
1,43,100,0
1,43,0,60
1,43,100,0
1,43,0,120
1,67,0,0
1,62,0,0
1,59,0,0
1,59,100,0
1,62,100,0
1,67,100,0
1,43,100,0
1,43,0,60
1,59,0,0
1,62,0,0
1,67,0,0
1,59,100,0
1,62,100,0
1,67,100,0
1,43,100,0
1,43,0,60
1,43,100,0
1,59,0,60
1,67,0,0
1,62,0,0
1,59,100,0
1,62,100,0
1,67,100,0
1,43,0,60
1,43,100,0
1,43,0,60
1,67,0,0
1,62,0,0
1,59,0,0
1,62,100,0
1,60,100,0
1,64,100,0
1,67,100,0
1,48,100,0
1,48,0,60
1,48,100,0
1,48,0,120
1,67,0,0
1,62,0,0
1,60,0,0
1,64,0,0
1,64,100,0
1,62,100,0
1,60,100,0
1,67,100,0
1,48,100,0
1,48,0,60
1,60,0,0
1,64,0,0
1,62,0,0
1,67,0,0
1,64,100,0
1,62,100,0
1,60,100,0
1,67,100,0
1,48,100,0
1,48,0,60
1,60,0,0
1,64,0,0
1,62,0,0
1,67,0,0
1,64,100,0
1,62,100,0
1,60,100,0
1,67,100,0
1,48,100,0
1,48,0,120
1,48,100,0
1,48,0,60
1,67,0,0
1,64,0,0
1,62,0,0
1,60,0,0
1,64,100,0
1,62,100,0
1,60,100,0
1,67,100,0
1,48,100,0
1,48,0,60
1,48,100,0
1,48,0,120
1,67,0,0
1,64,0,0
1,62,0,0
1,60,0,0
1,64,100,0
1,62,100,0
1,60,100,0
1,67,100,0
1,48,100,0
1,48,0,60
1,60,0,0
1,64,0,0
1,62,0,0
1,67,0,0
1,64,100,0
1,62,100,0
1,60,100,0
1,67,100,0
1,48,100,0
1,48,0,60
1,48,100,0
1,60,0,60
1,67,0,0
1,64,0,0
1,62,0,0
1,59,100,0
1,59,0,30
1,62,100,0
1,48,0,30
1,48,100,0
1,48,0,60
1,62,0,0
1,55,100,0
1,59,100,0
1,64,100,0
1,43,100,0
1,64,0,120
1,55,0,0
1,59,0,0
1,62,100,0
1,62,0,30
1,59,100,0
1,59,0,30
1,43,0,0
1,55,100,0
1,59,100,0
1,62,100,0
1,43,100,0
1,43,0,60
1,43,100,0
1,55,0,180
1,62,0,0
1,59,0,0
1,55,100,0
1,59,100,0
1,62,100,0
1,62,0,60
1,43,0,0
1,55,0,0
1,59,0,0
1,55,100,0
1,59,100,0
1,62,100,0
1,43,100,0
1,62,0,120
1,55,0,0
1,59,0,0
1,59,100,0
1,59,0,60
1,43,0,0
1,62,100,0
1,43,100,0
1,43,0,60
1,62,0,0
1,55,100,0
1,59,100,0
1,64,100,0
1,43,100,0
1,64,0,90
1,55,0,0
1,59,0,0
1,54,100,0
1,57,100,0
1,62,100,0
1,43,0,30
1,42,100,0
1,54,0,60
1,62,0,0
1,57,0,0
1,59,100,0
1,59,0,60
1,42,0,0
1,55,100,0
1,59,100,0
1,40,100,0
1,59,0,30
1,55,0,0
1,57,100,0
1,57,0,30
1,55,100,0
1,55,0,120
1,40,0,0
1,55,100,0
1,59,100,0
1,62,100,0
1,40,100,0
1,40,0,60
1,55,0,0
1,59,0,0
1,62,0,0
1,55,100,0
1,59,100,0
1,62,100,0
1,40,100,0
1,62,0,180
1,55,0,0
1,59,0,0
1,55,100,0
1,59,100,0
1,62,100,0
1,62,0,60
1,40,0,0
1,55,0,0
1,59,0,0
1,55,100,0
1,59,100,0
1,62,100,0
1,40,100,0
1,40,0,180
1,55,0,0
1,59,0,0
1,62,0,0
1,59,100,0
1,40,100,0
1,40,0,60
1,59,0,0
1,55,100,0
1,59,100,0
1,40,100,0
1,59,0,90
1,55,0,0
1,60,100,0
1,40,0,30
1,38,100,0
1,60,0,60
1,62,100,0
1,62,0,60
1,38,0,0
1,62,100,0
1,52,100,0
1,55,100,0
1,36,100,0
1,62,0,90
1,60,100,0
1,60,0,90
1,36,0,0
1,60,100,0
1,36,100,0
1,36,0,60
1,52,0,0
1,55,0,0
1,60,0,0
1,60,100,0
1,52,100,0
1,55,100,0
1,36,100,0
1,60,0,90
1,59,100,0
1,59,0,90
1,60,100,0
1,60,0,60
1,52,0,0
1,55,0,0
1,36,0,0
1,57,100,0
1,55,100,0
1,38,100,0
1,57,0,60
1,57,100,0
1,57,0,120
1,38,0,0
1,57,100,0
1,38,100,0
1,38,0,60
1,57,0,0
1,55,0,0
1,55,100,0
1,57,100,0
1,60,100,0
1,38,100,0
1,60,0,90
1,55,0,0
1,57,0,0
1,59,100,0
1,59,0,90
1,59,100,0
1,59,0,60
1,38,0,0
1,55,100,0
1,59,100,0
1,43,100,0
1,59,0,30
1,55,0,0
1,57,100,0
1,57,0,30
1,55,100,0
1,55,0,120
1,43,0,0
1,59,100,0
1,62,100,0
1,67,100,0
1,43,100,0
1,43,0,60
1,59,0,0
1,62,0,0
1,67,0,0
1,59,100,0
1,62,100,0
1,67,100,0
1,43,100,0
1,67,0,60
1,59,0,0
1,62,0,0
1,59,100,0
1,62,100,0
1,67,100,0
1,67,0,120
1,62,0,0
1,59,0,0
1,59,100,0
1,62,100,0
1,67,100,0
1,67,0,60
1,43,0,0
1,59,0,0
1,62,0,0
1,59,100,0
1,62,100,0
1,67,100,0
1,43,100,0
1,43,0,180
1,59,0,0
1,62,0,0
1,67,0,0
1,59,100,0
1,62,100,0
1,67,100,0
1,43,100,0
1,43,0,60
1,59,0,0
1,62,0,0
1,67,0,0
1,59,100,0
1,62,100,0
1,67,100,0
1,43,100,0
1,67,0,120
1,59,0,0
1,62,0,0
1,59,100,0
1,59,0,30
1,62,100,0
1,62,0,90
1,43,0,0
1,55,100,0
1,59,100,0
1,64,100,0
1,43,100,0
1,64,0,60
1,55,0,0
1,59,0,0
1,62,100,0
1,62,0,30
1,59,100,0
1,59,0,30
1,62,100,0
1,62,0,60
1,43,0,0
1,55,100,0
1,59,100,0
1,62,100,0
1,43,100,0
1,43,0,60
1,43,100,0
1,55,0,180
1,62,0,0
1,59,0,0
1,55,100,0
1,59,100,0
1,62,100,0
1,62,0,60
1,43,0,0
1,55,0,0
1,59,0,0
1,55,100,0
1,59,100,0
1,62,100,0
1,43,100,0
1,62,0,120
1,55,0,0
1,59,0,0
1,59,100,0
1,59,0,60
1,43,0,0
1,62,100,0
1,43,100,0
1,43,0,60
1,62,0,0
1,55,100,0
1,59,100,0
1,64,100,0
1,43,100,0
1,43,0,120
1,55,0,0
1,59,0,0
1,64,0,0
1,54,100,0
1,57,100,0
1,62,100,0
1,42,100,0
1,62,0,60
1,54,0,0
1,57,0,0
1,62,100,0
1,62,0,60
1,42,0,0
1,55,100,0
1,59,100,0
1,62,100,0
1,66,100,0
1,40,100,0
1,62,0,120
1,55,0,0
1,59,0,0
1,67,100,0
1,66,0,30
1,67,0,30
1,40,0,0
1,59,100,0
1,62,100,0
1,67,100,0
1,40,100,0
1,40,0,60
1,40,100,0
1,59,0,180
1,67,0,0
1,62,0,0
1,59,100,0
1,62,100,0
1,67,100,0
1,67,0,60
1,40,0,0
1,59,0,0
1,62,0,0
1,59,100,0
1,62,100,0
1,67,100,0
1,40,100,0
1,40,0,180
1,59,0,0
1,62,0,0
1,67,0,0
1,59,100,0
1,40,100,0
1,40,0,60
1,59,0,0
1,55,100,0
1,59,100,0
1,40,100,0
1,59,0,90
1,55,0,0
1,60,100,0
1,40,0,30
1,38,100,0
1,60,0,60
1,62,100,0
1,62,0,60
1,38,0,0
1,62,100,0
1,52,100,0
1,55,100,0
1,36,100,0
1,62,0,90
1,60,100,0
1,60,0,90
1,36,0,0
1,60,100,0
1,36,100,0
1,36,0,60
1,52,0,0
1,55,0,0
1,60,0,0
1,60,100,0
1,52,100,0
1,55,100,0
1,36,100,0
1,60,0,90
1,59,100,0
1,59,0,90
1,59,100,0
1,59,0,60
1,52,0,0
1,55,0,0
1,36,0,0
1,57,100,0
1,55,100,0
1,38,100,0
1,57,0,90
1,57,100,0
1,57,0,90
1,38,0,0
1,57,100,0
1,38,100,0
1,38,0,60
1,57,0,0
1,55,0,0
1,55,100,0
1,57,100,0
1,60,100,0
1,38,100,0
1,60,0,90
1,55,0,0
1,57,0,0
1,59,100,0
1,59,0,90
1,59,100,0
1,59,0,60
1,38,0,0
1,55,100,0
1,59,100,0
1,43,100,0
1,59,0,30
1,55,0,0
1,57,100,0
1,57,0,30
1,55,100,0
1,55,0,120
1,43,0,0
1,59,100,0
1,62,100,0
1,67,100,0
1,43,100,0
1,43,0,60
1,59,0,0
1,62,0,0
1,67,0,0
1,59,100,0
1,62,100,0
1,67,100,0
1,43,100,0
1,67,0,120
1,59,0,0
1,62,0,0
1,62,100,0
1,60,100,0
1,67,100,0
1,67,0,120
1,43,0,0
1,62,0,0
1,60,0,0
1,59,100,0
1,62,100,0
1,67,100,0
1,43,100,0
1,43,0,180
1,43,100,0
1,43,0,60
1,43,100,0
1,43,0,120
1,59,0,0
1,62,0,0
1,67,0,0
1,59,100,0
1,62,100,0
1,67,100,0
1,38,100,0
1,38,0,60
1,40,100,0
1,40,0,60
1,67,0,0
1,62,0,0
1,59,0,0
1,59,100,0
1,62,100,0
1,67,100,0
1,43,100,0
1,43,0,60
1,43,100,0
1,43,0,60
1,43,100,0
1,43,0,60
1,59,0,0
1,62,0,0
1,67,0,0
1,59,100,0
1,62,100,0
1,67,100,0
1,43,100,0
1,43,0,60
1,43,100,0
1,43,0,60
1,43,100,0
1,43,0,60
1,43,100,0
1,43,0,60
1,67,0,0
1,62,0,0
1,59,0,0
1,57,100,0
1,60,100,0
1,64,100,0
1,67,100,0
1,38,100,0
1,38,0,60
1,64,0,0
1,57,0,0
1,60,0,0
1,67,0,0
1,59,100,0
1,62,100,0
1,67,100,0
1,43,100,0
1,43,0,60
1,43,100,0
1,43,0,60
1,67,0,0
1,62,0,0
1,59,0,0
1,71,100,0
1,43,100,0
1,43,0,60
1,71,0,0
1,71,100,0
1,43,100,0
1,43,0,60
1,71,0,0
1,71,100,0
1,62,100,0
1,43,100,0
1,43,0,60
1,71,0,0
1,69,100,0
1,45,100,0
1,45,0,60
1,69,0,0
1,69,100,0
1,48,100,0
1,48,0,60
1,69,0,0
1,67,100,0
1,45,100,0
1,45,0,60
1,67,0,0
1,62,0,0
1,64,100,0
1,62,100,0
1,67,100,0
1,48,100,0
1,48,0,60
1,48,100,0
1,48,0,60
1,48,100,0
1,48,0,60
1,64,0,0
1,62,0,0
1,67,0,0
1,64,100,0
1,62,100,0
1,67,100,0
1,48,100,0
1,48,0,60
1,48,100,0
1,48,0,60
1,48,100,0
1,48,0,60
1,48,100,0
1,48,0,60
1,48,100,0
1,48,0,60
1,48,100,0
1,48,0,60
1,67,0,0
1,62,0,0
1,64,0,0
1,71,100,0
1,48,100,0
1,48,0,60
1,71,0,0
1,71,100,0
1,48,100,0
1,48,0,60
1,71,0,0
1,71,100,0
1,48,100,0
1,48,0,60
1,71,0,0
1,64,100,0
1,62,100,0
1,71,100,0
1,48,100,0
1,48,0,60
1,45,100,0
1,64,0,30
1,71,0,0
1,62,0,0
1,69,100,0
1,45,0,30
1,43,100,0
1,43,0,60
1,69,0,0
1,67,100,0
1,40,100,0
1,40,0,60
1,67,0,0
1,62,100,0
1,67,100,0
1,71,100,0
1,38,100,0
1,38,0,60
1,62,0,0
1,67,0,0
1,71,0,0
1,69,100,0
1,38,100,0
1,38,0,60
1,38,100,0
1,38,0,60
1,69,0,0
1,62,100,0
1,67,100,0
1,69,100,0
1,38,100,0
1,38,0,60
1,38,100,0
1,38,0,60
1,69,0,0
1,67,0,0
1,62,0,0
1,67,100,0
1,38,100,0
1,38,0,60
1,38,100,0
1,38,0,60
1,67,0,0
1,67,100,0
1,38,100,0
1,67,0,30
1,67,100,0
1,67,0,30
1,38,0,0
1,66,100,0
1,57,100,0
1,62,100,0
1,38,100,0
1,38,0,60
1,38,100,0
1,66,0,30
1,66,100,0
1,38,0,30
1,38,100,0
1,38,0,60
1,66,0,0
1,66,100,0
1,38,100,0
1,38,0,60
1,57,0,0
1,62,0,0
1,66,0,0
1,57,100,0
1,62,100,0
1,66,100,0
1,38,100,0
1,38,0,60
1,38,100,0
1,57,0,30
1,66,0,0
1,62,0,0
1,64,100,0
1,38,0,30
1,38,100,0
1,38,0,60
1,64,0,0
1,62,100,0
1,40,100,0
1,40,0,60
1,62,0,0
1,55,100,0
1,59,100,0
1,62,100,0
1,43,100,0
1,43,0,60
1,43,100,0
1,43,0,60
1,43,100,0
1,43,0,60
1,43,100,0
1,43,0,60
1,43,100,0
1,43,0,60
1,43,100,0
1,43,0,60
1,43,100,0
1,43,0,60
1,55,0,0
1,59,0,0
1,62,0,0
1,59,100,0
1,62,100,0
1,67,100,0
1,43,100,0
1,43,0,60
1,59,0,0
1,62,0,0
1,67,0,0
1,59,100,0
1,62,100,0
1,67,100,0
1,43,100,0
1,43,0,60
1,43,100,0
1,43,0,60
1,43,100,0
1,43,0,60
1,43,100,0
1,43,0,60
1,43,100,0
1,43,0,60
1,40,100,0
1,40,0,60
1,67,0,0
1,62,0,0
1,59,0,0
1,59,100,0
1,62,100,0
1,67,100,0
1,38,100,0
1,38,0,60
1,40,100,0
1,40,0,60
1,67,0,0
1,62,0,0
1,59,0,0
1,59,100,0
1,62,100,0
1,67,100,0
1,43,100,0
1,43,0,60
1,43,100,0
1,43,0,60
1,43,100,0
1,43,0,60
1,59,0,0
1,62,0,0
1,67,0,0
1,67,100,0
1,43,100,0
1,67,0,30
1,64,100,0
1,64,0,30
1,43,0,0
1,59,100,0
1,62,100,0
1,43,100,0
1,43,0,60
1,43,100,0
1,43,0,60
1,43,100,0
1,43,0,60
1,62,0,0
1,59,0,0
1,57,100,0
1,60,100,0
1,64,100,0
1,67,100,0
1,38,100,0
1,38,0,60
1,64,0,0
1,57,0,0
1,60,0,0
1,67,0,0
1,59,100,0
1,62,100,0
1,67,100,0
1,43,100,0
1,43,0,60
1,59,0,0
1,62,0,0
1,67,0,0
1,62,100,0
1,43,100,0
1,43,0,60
1,62,0,0
1,71,100,0
1,43,100,0
1,43,0,60
1,71,0,0
1,71,100,0
1,43,100,0
1,43,0,60
1,71,0,0
1,62,100,0
1,67,100,0
1,71,100,0
1,43,100,0
1,43,0,60
1,45,100,0
1,62,0,30
1,71,0,0
1,67,0,0
1,69,100,0
1,45,0,30
1,48,100,0
1,48,0,60
1,69,0,0
1,67,100,0
1,45,100,0
1,45,0,60
1,67,0,0
1,62,100,0
1,64,100,0
1,67,100,0
1,48,100,0
1,48,0,60
1,48,100,0
1,48,0,60
1,48,100,0
1,48,0,60
1,62,0,0
1,64,0,0
1,67,0,0
1,67,100,0
1,48,100,0
1,48,0,60
1,67,0,0
1,64,100,0
1,48,100,0
1,64,0,30
1,62,100,0
1,62,0,30
1,48,0,0
1,60,100,0
1,48,100,0
1,48,0,60
1,48,100,0
1,48,0,60
1,60,0,0
1,62,100,0
1,64,100,0
1,67,100,0
1,48,100,0
1,48,0,60
1,62,0,0
1,64,0,0
1,67,0,0
1,62,100,0
1,64,100,0
1,67,100,0
1,48,100,0
1,48,0,60
1,62,0,0
1,64,0,0
1,67,0,0
1,71,100,0
1,48,100,0
1,48,0,60
1,48,100,0
1,48,0,60
1,71,0,0
1,71,100,0
1,48,100,0
1,48,0,60
1,71,0,0
1,64,100,0
1,62,100,0
1,71,100,0
1,48,100,0
