track,note,velocity,time
1,54,82,4322
1,58,95,243
1,61,71,27
1,61,0,8
1,59,60,0
1,58,0,6
1,59,0,6
1,61,82,0
1,59,56,1
1,56,68,0
1,61,0,2
1,54,0,7
1,59,0,4
1,61,78,5
1,59,62,0
1,52,46,0
1,61,0,2
1,56,0,4
1,52,0,1
1,59,0,2
1,54,71,0
1,58,74,0
1,63,90,119
1,61,74,0
1,63,0,2
1,54,0,2
1,58,0,0
1,63,62,0
1,61,0,3
1,59,68,0
1,54,74,127
1,63,0,6
1,61,82,0
1,54,0,4
1,56,64,0
1,61,0,1
1,63,64,103
1,63,0,23
1,61,64,13
1,58,82,0
1,56,0,3
1,59,0,31
1,66,66,445
1,70,68,240
1,66,0,1
1,58,0,221
1,71,60,18
1,63,66,0
1,61,0,1
1,70,0,3
1,66,74,233
1,71,0,224
1,63,0,0
1,61,52,16
1,70,62,2
1,73,86,363
1,66,0,104
1,71,62,14
1,63,82,0
1,68,68,0
1,73,0,2
1,61,0,10
1,70,0,17
1,71,0,437
1,68,0,0
1,70,56,11
1,66,58,3
1,70,0,393
1,63,0,59
1,66,0,24
1,68,68,4
1,64,68,0
1,71,62,361
1,68,0,109
1,64,0,3
1,70,58,7
1,66,58,0
1,61,46,2
1,71,0,3
1,70,0,418
1,71,68,16
1,61,0,24
1,63,82,16
1,66,0,678
1,59,68,42
1,63,0,231
1,68,46,5
1,64,60,0
1,78,112,0
1,59,0,11
1,78,0,8
1,80,100,1
1,80,0,19
1,78,100,1
1,78,0,19
1,80,95,1
1,80,0,19
1,78,95,1
1,78,0,19
1,80,95,1
1,80,0,19
1,78,95,1
1,78,0,19
1,80,90,1
1,80,0,19
1,78,86,1
1,78,0,19
1,80,86,1
1,80,0,19
1,78,86,1
1,78,0,19
1,80,95,1
1,80,0,19
1,70,44,1
1,66,46,0
1,80,68,0
1,80,0,19
1,71,0,0
1,64,0,1
1,68,0,0
1,82,106,0
1,82,0,19
1,80,95,1
1,80,0,19
1,82,86,1
1,82,0,19
1,80,86,1
1,80,0,19
1,82,86,1
1,82,0,19
1,80,78,1
1,80,0,19
1,82,86,1
1,82,0,19
1,80,82,1
1,80,0,19
1,82,78,1
1,82,0,19
1,80,86,1
1,80,0,19
1,82,90,1
1,82,0,19
1,70,0,1
1,66,0,0
1,78,86,0
1,68,82,0
1,64,58,0
1,78,0,19
1,80,86,1
1,80,0,19
1,78,86,1
1,78,0,19
1,80,86,1
1,80,0,19
1,78,95,1
1,78,0,19
1,80,86,1
1,80,0,19
1,78,86,1
1,78,0,19
1,80,82,1
1,80,0,19
1,78,86,1
1,78,0,19
1,80,78,1
1,80,0,19
1,78,86,1
1,78,0,19
1,80,86,1
1,80,0,19
1,64,0,1
1,68,0,0
1,62,78,0
1,76,86,0
1,66,68,0
1,76,0,19
1,78,86,1
1,78,0,19
1,76,86,1
1,76,0,19
1,78,82,1
1,78,0,19
1,76,86,1
1,76,0,19
1,78,82,1
1,78,0,19
1,76,86,1
1,76,0,19
1,78,86,1
1,78,0,19
1,76,82,1
1,76,0,19
1,78,82,1
1,78,0,19
1,76,86,1
1,76,0,19
1,78,90,1
1,78,0,19
1,62,0,1
1,64,58,0
1,68,68,0
1,78,74,0
1,64,78,0
1,68,86,0
1,78,0,19
1,68,0,0
1,64,0,0
1,66,0,1
1,80,100,0
1,80,0,19
1,78,90,1
1,78,0,19
1,80,95,1
1,80,0,19
1,78,95,1
1,78,0,19
1,80,86,1
1,80,0,19
1,78,90,1
1,78,0,19
1,80,90,1
1,80,0,19
1,78,86,1
1,78,0,19
1,80,86,1
1,80,0,19
1,78,95,1
1,78,0,19
1,80,95,1
1,80,0,19
1,64,0,1
1,68,0,0
1,80,82,0
1,70,74,0
1,66,68,0
1,80,0,19
1,82,90,1
1,82,0,19
1,80,86,1
1,80,0,19
1,82,86,1
1,82,0,19
1,80,90,1
1,80,0,19
1,82,86,1
1,82,0,19
1,80,78,1
1,80,0,19
1,82,74,1
1,82,0,19
1,80,82,1
1,80,0,19
1,82,78,1
1,82,0,19
1,80,86,1
1,80,0,19
1,82,82,1
1,82,0,19
1,70,0,1
1,78,90,0
1,87,90,0
1,75,71,0
1,66,0,480
1,64,74,0
1,76,95,0
1,68,82,0
1,76,0,19
1,78,0,1
1,75,0,0
1,87,0,0
1,78,86,0
1,78,0,19
1,76,86,1
1,76,0,19
1,78,78,1
1,78,0,19
1,76,86,1
1,76,0,19
1,78,86,1
1,76,82,20
1,76,0,19
1,78,0,1
1,78,86,0
1,78,0,19
1,76,86,1
1,76,0,19
1,78,86,1
1,78,0,19
1,76,90,1
1,76,0,19
1,78,95,1
1,78,0,19
1,80,100,1
1,70,71,0
1,66,82,0
1,80,0,19
1,68,0,1
1,64,0,0
1,82,62,0
1,82,0,19
1,80,74,1
1,80,0,19
1,82,90,1
1,82,0,19
1,80,86,1
1,80,0,19
1,82,86,1
1,82,0,19
1,80,82,1
1,80,0,19
1,82,90,1
1,82,0,19
1,80,86,1
1,80,0,19
1,82,90,1
1,82,0,19
1,80,86,1
1,80,0,19
1,82,95,1
1,82,0,19
1,70,0,1
1,66,0,0
1,78,100,0
1,68,86,0
1,64,82,0
1,78,0,19
1,80,95,1
1,80,0,19
1,78,86,1
1,78,0,19
1,80,90,1
1,80,0,19
1,78,90,1
1,78,0,19
1,80,86,1
1,80,0,19
1,78,86,1
1,78,0,19
1,80,86,1
1,80,0,19
1,78,78,1
1,78,0,19
1,80,78,1
1,80,0,19
1,78,86,1
1,78,0,19
1,80,82,1
1,80,0,19
1,66,64,1
1,62,71,0
1,76,86,0
1,76,0,19
1,68,0,1
1,64,0,0
1,78,86,0
1,78,0,19
1,76,82,1
1,76,0,19
1,78,86,1
1,78,0,19
1,76,86,1
1,76,0,19
1,78,86,1
1,78,0,19
1,76,86,1
1,76,0,19
1,78,86,1
1,78,0,19
1,76,78,1
1,76,0,19
1,78,86,1
1,78,0,19
1,76,86,1
1,76,0,19
1,78,90,1
1,78,0,19
1,66,0,1
1,62,0,0
1,68,71,0
1,64,62,0
1,78,86,0
1,78,0,19
1,80,86,1
1,80,0,19
1,78,86,1
1,78,0,19
1,80,86,1
1,80,0,19
1,78,82,1
1,78,0,19
1,80,82,1
1,80,0,19
1,78,86,1
1,78,0,19
1,80,86,1
1,80,0,19
1,78,86,1
1,78,0,19
1,80,71,1
1,80,0,19
1,78,86,1
1,78,0,19
1,80,86,1
1,80,0,19
1,64,0,1
1,68,0,0
1,70,66,0
1,66,68,0
1,80,78,0
1,80,0,19
1,82,86,1
1,82,0,19
1,80,95,1
1,80,0,19
1,82,95,1
1,82,0,19
1,80,86,1
1,80,0,19
1,82,86,1
1,82,0,19
1,80,86,1
1,80,0,19
1,82,90,1
1,82,0,19
1,80,86,1
1,80,0,19
1,82,86,1
1,82,0,19
1,80,90,1
1,80,0,19
1,82,86,1
1,82,0,19
1,70,0,1
1,87,82,0
1,78,86,0
1,75,52,0
1,87,0,9
1,71,22,0
1,78,0,5
1,54,46,0
1,59,52,0
1,75,0,20
1,71,0,0
1,54,0,220
1,63,78,0
1,66,71,5
1,66,0,10
1,66,0,1
1,63,0,0
1,56,74,0
1,63,74,225
1,68,82,1
1,63,0,5
1,59,0,0
1,52,56,0
1,68,0,6
1,52,0,44
1,59,56,0
1,64,95,120
1,56,0,8
1,68,78,0
1,68,0,12
1,64,0,4
1,59,0,0
1,54,82,0
1,58,74,0
1,61,78,75
1,61,0,7
1,63,95,0
1,61,74,120
1,63,0,20
1,58,0,0
1,61,0,100
1,59,78,0
1,63,71,120
1,54,0,22
1,66,90,0
1,71,86,8
1,66,0,14
1,71,0,6
1,56,82,0
1,68,74,30
1,63,0,120
1,71,74,0
1,68,0,114
1,68,64,0
1,71,0,20
1,59,0,60
1,56,0,40
1,68,0,0
1,54,64,2
1,58,90,5
1,61,68,112
1,66,74,120
1,61,0,12
1,61,56,107
1,58,0,8
1,58,74,120
1,61,0,7
1,66,0,96
1,61,66,13
1,70,82,124
1,58,0,7
1,66,64,109
1,70,0,5
1,66,0,121
1,59,86,0
1,54,0,7
1,61,0,3
1,63,68,99
1,66,86,9
1,71,86,5
1,59,0,18
1,63,0,2
1,56,82,4
1,66,0,1
1,71,0,5
1,59,71,6
1,63,82,7
1,68,86,0
1,63,0,3
1,52,64,5
1,68,0,1
1,64,74,36
1,68,86,7
1,52,0,7
1,71,74,1
1,68,0,15
1,54,62,0
1,58,74,0
1,64,0,8
1,56,0,0
1,71,0,1
1,59,0,3
1,61,66,27
1,63,78,118
1,61,0,5
1,66,68,115
1,61,68,0
1,63,0,5
1,58,0,72
1,61,0,46
1,59,82,3
1,54,0,9
1,63,86,112
1,71,82,6
1,66,0,4
1,75,82,0
1,75,0,9
1,63,0,4
1,56,95,0
1,68,58,3
1,63,64,2
1,71,0,23
1,59,0,14
1,71,68,10
1,56,0,8
1,68,0,119
1,78,74,2
1,70,86,0
1,71,0,4
1,63,0,11
1,70,0,455
1,82,82,6
1,66,90,0
1,78,0,11
1,85,86,226
1,78,95,0
1,82,0,13
1,66,0,71
1,87,86,13
1,71,95,0
1,85,0,3
1,71,0,469
1,87,0,0
1,85,82,11
1,66,86,0
1,66,0,225
1,82,66,8
1,70,86,0
1,85,0,234
1,83,86,13
1,75,64,0
1,68,90,16
1,70,0,2
1,82,0,0
1,78,0,15
1,68,0,431
1,83,0,1
1,82,74,10
1,63,82,0
1,78,82,243
1,75,0,171
1,80,71,71
1,71,68,0
1,64,86,0
1,82,0,9
1,63,0,0
1,78,0,2
1,83,82,224
1,76,71,0
1,80,0,12
1,71,0,190
1,64,0,37
1,73,68,2
1,66,86,0
1,82,78,0
1,83,0,23
1,76,0,0
1,73,0,215
1,85,74,1
1,78,68,0
1,82,0,16
1,66,0,219
1,78,0,1
1,87,78,5
1,78,74,2
1,75,82,0
1,85,0,10
1,87,0,174
1,75,0,0
1,85,82,11
1,73,86,0
1,71,78,45
1,83,86,0
1,73,0,1
1,85,0,0
1,78,0,99
1,85,66,16
1,83,0,2
1,71,0,0
1,73,78,0
1,66,74,3
1,85,0,113
1,82,82,0
1,70,95,0
1,73,0,4
1,63,71,1
1,75,60,0
1,66,0,7
1,80,78,97
1,68,71,0
1,82,0,7
1,70,0,2
1,80,0,113
1,68,0,0
1,79,86,10
1,67,74,1
1,63,0,102
1,79,0,13
1,67,0,1
1,80,78,4
1,68,78,1
1,75,0,87
1,92,78,32
1,71,78,0
1,68,0,1
1,85,74,111
1,73,74,2
1,73,0,123
1,85,0,0
1,79,68,0
1,71,86,0
1,88,74,0
1,80,0,3
1,92,0,0
1,91,78,0
1,76,60,115
1,91,68,0
1,71,0,5
1,95,78,0
1,76,0,100
1,79,0,16
1,87,68,2
1,90,44,0
1,78,64,0
1,91,0,2
1,91,0,11
1,88,0,8
1,95,0,221
1,90,0,135
1,78,0,0
1,87,0,0
1,71,0,73
2,35,72,32
2,30,40,200
2,35,0,7
2,30,0,32
2,35,64,1
2,35,0,118
2,34,58,2
2,32,76,120
2,34,0,1
2,32,0,187
2,39,52,12
2,39,0,40
2,32,68,0
2,32,0,187
2,32,64,13
2,32,0,39
2,28,64,1
2,28,0,173
2,28,64,27
2,28,0,20
2,28,64,20
2,35,64,120
2,28,0,3
2,30,61,117
2,35,0,3
2,30,0,179
2,30,64,18
2,30,0,38
2,32,64,2
2,32,0,118
2,34,58,2
2,35,64,120
2,34,0,2
2,30,44,198
2,35,0,2
2,30,0,37
2,35,64,1
2,34,58,120
2,35,0,3
2,34,0,115
2,32,64,2
2,32,0,198
2,39,50,2
2,39,0,39
2,32,68,1
2,32,0,184
2,32,68,16
2,30,61,40
2,32,0,1
2,30,0,180
2,30,54,19
2,30,0,19
2,30,52,21
2,37,56,200
2,30,0,4
2,37,0,35
2,30,52,1
2,30,0,182
2,30,58,18
2,32,58,40
2,30,0,2
2,34,58,118
2,32,0,1
2,34,0,114
2,35,58,5
2,30,46,200
2,35,0,3
2,35,61,37
2,30,0,3
2,34,64,117
2,35,0,2
2,34,0,113
2,32,64,5
2,32,0,193
2,39,54,7
2,32,68,40
2,39,0,1
2,32,0,179
2,32,64,20
2,32,0,39
2,28,68,1
2,28,0,218
2,28,64,22
2,28,0,119
2,32,58,1
2,30,58,120
2,32,0,2
2,30,0,175
2,30,46,23
2,30,0,39
2,32,61,1
2,34,58,120
2,32,0,2
2,34,0,115
2,35,64,3
2,30,37,200
2,35,0,6
2,35,72,34
2,30,0,1
2,35,0,114
2,34,50,5
2,32,68,120
2,34,0,3
2,32,0,191
2,39,52,6
2,32,72,40
2,39,0,1
2,32,0,174
2,32,58,25
2,32,0,40
2,30,61,0
2,30,0,216
2,30,54,24
2,30,0,196
2,37,58,4
2,30,64,40
2,37,0,1
2,30,0,179
2,30,50,20
2,32,64,40
2,30,0,2
2,34,64,118
2,32,0,2
2,34,0,116
2,35,58,2
2,35,0,191
2,30,46,9
2,35,54,40
2,30,0,2
2,35,0,175
2,35,58,23
2,35,0,40
2,30,58,0
2,37,56,12
2,30,0,3
2,30,52,5
2,37,0,2
2,30,0,54
2,30,58,1
2,32,64,19
2,30,0,1
2,32,0,193
2,39,54,6
2,39,0,40
2,32,64,0
2,32,0,162
2,32,76,38
2,32,0,39
2,27,80,1
2,27,0,199
2,34,48,1
2,34,0,40
2,27,72,0
2,27,0,174
2,27,76,26
2,28,64,40
2,27,0,1
2,28,0,193
2,35,54,6
2,28,61,40
2,35,0,2
2,28,0,179
2,28,64,19
2,30,58,40
2,28,0,2
2,30,0,168
2,30,64,30
2,32,64,40
2,30,0,3
2,34,64,117
2,32,0,1
2,34,0,118
2,35,68,1
2,35,0,218
2,35,54,22
2,35,0,198
2,30,52,2
2,35,76,40
2,30,0,4
2,35,0,173
2,35,68,23
2,35,0,39
2,37,72,1
2,27,76,120
2,37,0,4
2,27,0,115
2,28,72,1
2,28,0,181
2,28,72,19
2,28,0,40
2,30,64,0
2,30,0,176
2,30,72,24
2,28,76,40
2,30,0,5
2,28,0,167
2,28,76,28
2,38,68,40
2,28,0,3
2,38,0,170
2,38,76,27
2,28,64,40
2,38,0,1
2,28,0,178
2,28,64,21
2,30,61,40
2,28,0,2
2,30,0,176
2,30,58,22
2,35,72,40
2,30,0,2
2,35,0,179
2,35,68,19
2,35,0,38
2,37,68,2
2,37,0,120
2,27,72,0
2,28,76,120
2,27,0,5
2,28,0,177
2,28,68,18
2,28,0,39
2,30,52,1
2,30,0,173
2,30,61,27
2,28,76,40
2,30,0,2
2,28,0,184
2,28,68,14
2,38,80,40
2,28,0,2
2,38,0,170
2,38,64,28
2,28,76,40
2,38,0,3
2,28,0,174
2,28,64,23
2,30,58,40
2,28,0,2
2,30,0,175
2,30,54,23
2,30,0,38
2,35,76,2
2,35,64,240
2,35,0,1
2,35,0,116
2,30,58,3
2,30,0,120
2,35,68,1
2,35,64,239
2,35,0,6
2,34,68,20
2,35,0,1
2,34,0,61
2,32,64,0
2,32,0,216
2,32,64,24
2,32,0,118
2,30,58,2
2,28,64,120
2,30,0,4
2,28,0,177
2,28,64,19
2,28,0,20
2,28,58,20
2,28,0,186
2,28,64,14
2,30,52,40
2,28,0,1
2,30,0,178
2,30,61,21
2,32,64,40
2,30,0,2
2,32,0,118
2,34,58,0
2,34,0,113
2,35,54,7
2,30,48,200
2,35,0,2
2,30,0,38
2,35,64,0
2,34,64,120
2,35,0,1
2,34,0,119
2,32,64,0
2,32,0,200
2,39,56,0
2,39,0,40
2,32,76,0
2,32,0,180
2,32,64,20
2,32,0,39
2,30,61,1
2,30,0,219
2,30,58,21
2,37,61,200
2,30,0,8
2,37,0,30
2,30,52,2
2,30,0,187
2,30,64,13
2,32,64,40
2,30,0,1
2,32,0,115
2,34,64,4
2,35,68,120
2,34,0,1
2,35,0,204
2,35,56,35
2,35,0,120
2,34,64,0
2,32,64,120
2,34,0,1
2,32,0,230
2,32,64,9
2,32,0,175
