track,note,velocity,time
1,72,93,78220
1,67,89,5
1,57,89,10
1,62,82,0
1,52,85,5
1,72,85,40
1,67,82,0
1,62,82,10
1,57,85,5
1,52,76,0
1,70,64,525
1,73,67,5
1,64,67,5
1,67,73,5
1,61,79,0
1,72,76,30
1,76,76,5
1,69,73,0
1,64,85,5
1,65,70,0
1,71,82,65
1,76,82,10
1,53,73,10
1,64,70,0
1,59,70,5
1,76,82,280
1,71,76,0
1,53,82,10
1,64,70,0
1,59,70,5
1,74,70,20
1,69,67,5
1,53,76,10
1,59,70,0
1,62,76,5
1,53,79,15
1,60,70,5
1,72,62,0
1,69,57,5
1,65,40,5
1,67,70,115
1,71,73,5
1,76,76,5
1,53,76,0
1,64,70,5
1,59,70,0
1,53,82,145
1,71,76,5
1,59,73,5
1,64,70,0
1,67,73,5
1,76,82,0
1,74,73,40
1,69,70,5
1,65,67,5
1,53,79,0
1,59,70,5
1,62,73,5
1,72,85,25
1,67,79,5
1,62,70,10
1,52,64,5
1,57,76,5
1,84,85,10
1,57,85,5
1,62,82,0
1,79,82,0
1,72,67,10
1,52,73,0
1,84,93,685
1,72,70,15
1,79,79,5
1,62,82,0
1,57,85,5
1,52,82,0
1,67,76,15
1,64,76,5
1,74,73,5
1,71,79,0
1,59,85,5
1,62,79,0
1,72,89,330
1,64,89,0
1,67,82,5
1,69,79,5
1,66,73,890
1,63,79,0
1,71,85,5
1,60,82,0
1,59,93,5
1,60,82,40
1,68,67,5
1,63,76,0
1,66,70,5
1,56,73,5
1,66,59,30
1,60,70,15
1,63,73,0
1,69,76,5
1,57,79,5
1,60,73,15
1,72,70,10
1,62,64,0
1,69,67,5
1,65,76,5
1,76,79,5
1,72,79,5
1,65,70,10
1,69,73,0
1,64,82,5
1,67,64,0
1,69,54,0
1,79,62,5
1,76,64,5
1,72,64,5
1,67,79,160
1,79,85,5
1,76,79,5
1,72,82,5
1,69,76,0
1,76,73,95
1,65,73,5
1,69,70,0
1,72,76,5
1,64,79,5
1,62,55,85
1,76,79,50
1,65,76,5
1,72,79,5
1,69,73,0
1,64,85,0
1,64,64,10
1,72,73,5
1,69,76,0
1,60,79,5
1,65,82,0
1,71,89,75
1,76,89,0
1,67,89,5
1,59,79,5
1,64,76,5
1,53,73,0
1,66,79,340
1,75,79,5
1,70,67,5
1,69,89,30
1,65,93,5
1,74,79,5
1,62,76,315
1,53,76,0
1,59,76,5
1,53,82,20
1,62,79,5
1,59,76,5
1,67,70,0
1,72,76,5
1,52,73,5
1,57,82,0
1,62,73,5
1,79,85,400
1,84,82,0
1,57,85,5
1,62,79,5
1,72,76,0
1,52,79,0
1,79,98,1420
1,84,98,5
1,62,93,5
1,57,98,0
1,52,93,5
1,72,93,0
1,79,82,80
1,62,82,5
1,84,79,5
1,74,79,0
1,57,82,5
1,52,76,0
1,86,89,25
1,81,85,5
1,76,85,5
1,57,85,0
1,62,82,5
1,52,76,5
1,84,82,380
1,62,85,5
1,74,79,0
1,79,82,5
1,57,85,5
1,52,76,5
1,77,89,895
1,67,85,0
1,70,76,5
1,73,70,0
1,65,89,5
1,76,82,430
1,65,76,0
1,72,79,5
1,69,79,5
1,64,82,0
1,69,62,70
1,65,70,5
1,57,64,0
1,60,55,5
1,64,64,0
1,69,73,170
1,60,73,0
1,57,76,5
1,65,76,0
1,64,79,5
1,59,47,145
1,71,64,70
1,67,62,5
1,76,55,5
1,59,73,105
1,53,51,30
1,69,89,5
1,65,89,5
1,74,93,5
1,74,103,120
1,65,98,0
1,69,85,0
1,57,48,1030
1,65,48,65
1,60,37,5
1,57,70,135
1,60,82,35
1,69,79,5
1,64,82,5
1,65,82,0
1,69,89,10
1,60,89,5
1,64,82,5
1,65,79,5
1,71,89,0
1,67,89,5
1,76,98,5
1,59,82,0
1,53,85,5
1,65,93,10
1,69,89,0
1,74,103,5
1,62,82,365
1,72,82,5
1,67,79,5
1,57,76,0
1,52,76,5
1,79,93,25
1,84,89,5
1,57,93,5
1,52,85,0
1,72,85,5
1,62,89,0
1,82,57,860
1,84,62,15
1,52,89,35
1,58,79,5
1,62,89,5
1,87,103,0
1,75,93,5
1,87,89,10
1,58,76,5
1,62,89,0
1,52,89,5
1,75,82,0
1,87,93,95
1,58,85,5
1,75,93,5
1,62,85,0
1,52,82,0
1,64,89,360
1,86,98,5
1,60,89,5
1,55,89,0
1,74,89,0
1,86,93,535
1,74,89,10
1,55,89,0
1,64,82,5
1,60,82,0
1,55,93,105
1,64,82,0
1,84,93,5
1,60,79,5
1,72,93,0
1,83,89,75
1,71,82,5
1,68,89,720
1,60,110,5
1,66,85,0
1,63,89,0
1,56,93,5
1,66,62,55
1,60,73,5
1,69,73,10
1,63,73,5
1,57,76,5
1,72,76,15
1,62,70,0
1,69,73,5
1,65,76,10
1,60,76,0
1,62,54,610
1,65,70,55
1,64,82,5
1,76,73,0
1,69,70,5
1,72,73,0
1,76,89,95
1,65,85,10
1,69,79,5
1,72,76,0
1,64,93,5
1,79,79,55
1,69,64,10
1,76,73,0
1,67,70,5
1,72,70,5
1,76,82,85
1,78,82,5
1,69,79,0
1,72,82,5
1,66,82,0
1,77,89,60
1,69,82,5
1,65,85,5
1,74,76,5
1,72,73,0
1,72,70,40
1,65,70,5
1,64,62,0
1,69,67,5
1,57,70,5
1,62,54,245
1,76,85,40
1,64,79,5
1,65,82,5
1,72,82,0
1,69,73,5
1,75,89,40
1,69,85,5
1,65,98,0
1,63,89,5
1,72,76,155
1,65,73,5
1,74,79,5
1,69,64,5
1,62,85,0
1,60,82,130
1,69,98,165
1,65,89,0
1,71,76,190
1,65,76,5
1,53,76,5
1,59,59,0
1,71,93,240
1,59,98,0
1,65,98,5
1,53,93,5
1,72,89,50
1,67,85,0
1,57,85,10
1,62,85,5
1,52,89,0
1,62,85,55
1,57,93,5
1,84,93,5
1,52,93,0
1,79,89,0
1,84,93,930
1,57,93,5
1,79,93,5
1,52,93,0
1,62,93,0
2,36,119,1435
2,36,110,125
2,39,110,110
2,39,98,105
2,38,110,80
2,38,110,120
2,31,103,75
2,31,103,160
2,36,110,135
2,36,110,140
2,39,103,110
2,39,103,75
2,38,110,85
2,38,103,145
2,31,110,75
2,31,110,145
2,36,110,40
2,31,103,505
2,36,103,440
2,33,103,525
2,37,98,75
2,33,93,30
2,38,110,115
2,33,103,555
2,31,110,485
2,35,103,445
2,36,64,340
2,38,110,115
2,33,110,495
2,31,103,510
2,35,103,540
2,35,70,395
2,36,103,120
2,31,103,500
2,36,110,540
2,38,98,50
2,36,85,45
2,40,98,100
2,36,89,60
2,40,103,20
2,36,82,25
2,41,98,100
2,36,82,15
2,43,93,90
2,40,93,15
2,39,93,480
2,39,85,90
2,42,89,15
2,39,89,30
2,38,98,10
2,40,98,5
2,38,82,30
2,41,103,90
2,38,93,15
2,45,103,35
2,38,79,30
2,44,89,85
2,38,79,15
2,45,89,110
2,41,93,0
2,43,89,25
2,38,64,15
2,41,103,110
2,40,98,20
2,38,93,35
2,31,103,55
2,38,103,20
2,31,93,35
2,41,98,110
2,35,93,5
2,36,98,20
2,38,98,0
2,36,79,30
2,40,93,85
2,36,93,0
2,43,89,30
2,36,73,60
2,42,85,95
2,36,76,40
2,43,89,110
2,31,110,40
2,36,110,25
2,31,110,495
2,36,103,455
2,33,110,495
2,37,103,90
2,33,89,30
2,38,103,115
2,33,110,560
2,31,110,490
2,35,103,465
2,35,70,385
2,38,110,115
2,33,110,550
2,31,110,505
2,35,110,540
2,35,76,500
2,36,110,95
2,31,110,535
2,36,110,595
2,38,98,60
2,36,89,15
2,40,93,95
2,36,98,75
2,40,98,10
2,36,79,35
2,41,103,95
2,36,76,25
2,43,89,125
2,40,98,30
2,39,93,20
2,39,93,90
2,42,93,45
2,39,93,20
2,38,98,10
2,40,103,25
2,38,82,20
2,41,98,105
2,38,93,5
2,45,103,35
2,38,79,5
2,44,93,70
2,45,103,30
2,38,93,30
2,43,98,30
2,38,79,45
2,41,103,95
2,40,103,25
2,38,93,5
2,31,98,45
2,35,98,20
2,31,93,40
2,41,103,110
2,38,103,50
2,36,98,10
2,31,103,70
2,36,103,20
2,43,103,25
2,36,89,30
2,45,110,115
2,43,98,20
2,36,103,45
2,48,119,25
2,46,98,70
2,36,93,35
2,45,119,110
2,43,93,5
2,36,89,25
2,41,98,115
2,40,98,30
2,37,89,25
2,40,98,25
2,37,82,35
2,38,103,85
2,40,103,15
2,38,89,20
2,41,103,115
2,38,98,55
2,43,110,25
2,38,89,15
2,42,93,110
2,43,103,75
2,41,103,10
2,38,93,15
2,40,103,55
2,38,85,20
2,41,103,115
2,38,93,20
2,43,103,55
2,38,89,15
2,42,98,120
2,43,103,85
2,31,98,10
2,36,103,15
2,38,110,45
2,36,89,30
2,40,98,110
2,36,98,15
2,43,103,20
2,36,93,15
2,42,98,115
2,43,103,90
2,41,110,90
2,40,98,75
2,41,103,10
2,40,89,35
2,43,93,70
2,40,98,15
2,39,93,80
2,39,93,100
2,36,89,30
2,39,103,25
2,36,89,20
2,38,103,115
2,36,93,10
2,35,93,10
2,36,85,20
2,33,93,105
2,31,85,10
2,41,110,480
2,40,103,100
2,38,103,35
2,43,98,480
2,38,89,30
2,41,98,105
2,40,98,5
2,43,98,480
2,38,85,10
2,41,98,115
2,38,98,25
2,31,98,40
2,35,103,25
2,31,89,15
2,36,103,115
2,38,98,480
2,36,79,15
2,40,98,115
2,36,93,10
2,38,98,5
2,36,79,25
2,40,98,65
2,36,73,25
2,43,98,95
2,38,103,0
2,36,98,40
2,38,98,35
2,36,82,15
2,40,98,75
2,36,98,15
2,43,110,50
2,36,89,20
2,42,98,115
2,43,110,75
2,37,98,45
2,38,103,40
2,40,103,480
2,38,89,20
2,41,98,120
2,38,103,20
2,43,103,10
2,38,89,25
2,41,110,120
2,40,103,5
2,38,103,10
2,38,103,110
2,40,98,35
2,38,89,35
2,41,98,110
2,38,103,50
2,43,103,10
2,38,93,60
2,42,89,110
2,38,85,90
2,43,103,110
2,41,103,85
2,38,93,70
2,41,103,115
2,38,93,90
2,38,119,115
2,35,98,40
2,36,103,95
2,38,98,30
2,36,76,40
2,40,98,115
2,36,98,10
2,36,98,30
2,43,98,110
2,36,98,35
2,42,98,115
2,43,98,80
2,36,110,20
2,40,110,25
2,41,110,25
2,40,93,25
2,43,103,80
2,40,98,480
2,39,89,45
2,39,89,90
2,36,85,15
2,39,98,25
2,36,89,10
2,38,110,110
2,40,98,480
2,38,89,30
2,41,103,65
2,40,93,55
2,38,103,480
2,36,103,10
2,35,85,20
2,33,89,40
2,31,85,50
2,43,110,30
2,41,98,50
2,40,103,0
2,38,98,30
2,36,89,30
2,31,110,45
2,33,93,40
2,35,98,20
2,36,89,55
2,40,110,15
2,36,89,30
2,43,98,110
2,40,98,25
2,36,93,30
2,43,103,115
2,36,93,30
2,42,93,115
2,43,103,55
2,40,98,25
2,36,98,35
2,38,98,20
2,36,82,25
2,40,89,90
2,36,89,25
2,40,98,45
2,31,110,30
2,33,98,30
2,37,98,35
2,33,89,10
2,38,98,115
2,40,98,50
2,38,82,20
2,41,98,90
2,38,89,30
2,43,98,40
2,38,79,30
2,42,89,90
2,43,98,35
2,41,98,480
2,38,98,15
2,40,93,30
2,38,82,30
2,41,93,75
2,38,93,20
2,31,93,15
2,43,103,10
2,31,93,30
2,42,103,100
2,43,93,70
2,36,98,5
2,38,98,10
2,36,85,25
2,40,93,95
2,36,93,0
2,43,98,30
2,36,70,15
2,42,89,95
2,43,93,25
2,36,98,20
2,39,89,95
2,40,103,25
2,38,67,45
2,41,103,115
2,43,98,35
2,40,93,35
2,36,89,20
2,39,93,75
2,36,76,50
2,38,103,110
2,37,98,15
2,36,98,10
2,38,103,40
2,40,103,10
2,38,79,20
2,41,98,80
2,38,93,0
2,45,103,50
2,38,79,15
2,44,89,65
2,38,89,25
2,45,103,55
2,38,76,45
2,44,89,85
2,38,79,30
2,43,93,100
2,38,73,35
2,41,98,115
2,40,103,0
2,38,98,0
2,31,93,35
2,35,98,0
2,31,93,35
2,41,103,115
2,31,89,10
2,38,103,115
2,36,98,40
2,38,93,20
2,36,73,35
2,40,93,100
2,36,93,10
2,43,98,70
2,41,98,35
2,43,98,55
2,31,103,40
2,36,103,25
2,31,110,555
2,36,110,470
2,33,103,510
2,37,103,55
2,33,98,20
2,38,110,110
2,33,110,535
2,31,103,410
2,35,103,430
2,35,82,320
2,38,110,85
2,33,103,560
2,31,103,465
2,35,103,565
2,36,110,510
2,31,103,545
2,31,82,360
2,36,110,120
2,31,89,40
2,38,103,110
2,40,98,80
2,36,98,20
2,40,103,40
2,36,55,40
2,41,103,110
2,43,98,25
2,40,93,480
2,39,98,35
2,39,89,80
2,36,98,10
2,39,93,80
2,36,89,45
2,38,103,55
2,41,103,35
2,38,76,30
2,45,103,60
2,38,79,20
2,44,93,65
2,38,82,15
2,45,98,70
2,38,73,35
2,43,89,105
2,41,98,5
2,40,98,0
2,38,98,20
2,43,93,35
2,41,93,10
2,40,103,30
2,38,93,15
2,36,93,5
2,35,98,25
2,33,93,5
2,31,93,5
2,36,98,10
2,38,103,75
2,36,85,25
2,40,93,115
2,36,98,35
2,33,89,55
2,40,103,15
2,33,85,35
2,43,98,115
2,33,98,35
2,38,93,20
2,40,103,15
2,38,85,40
2,41,98,115
2,38,93,35
2,43,103,20
2,38,89,35
2,42,93,110
2,43,98,60
2,38,98,30
2,36,89,40
2,38,103,15
2,36,85,35
2,40,98,120
2,36,98,65
2,33,98,40
2,37,93,10
2,33,98,40
2,43,103,100
2,33,103,50
2,38,103,15
2,40,103,0
2,38,89,40
2,41,98,110
2,38,98,30
2,43,103,10
2,38,93,35
2,42,98,115
2,43,98,100
2,35,103,25
2,36,119,25
2,40,103,35
2,41,110,45
2,42,103,50
2,43,110,35
2,36,127,3370
3,90,93,1435
3,96,98,5
3,91,98,105
3,91,98,130
3,84,79,40
3,89,98,135
3,90,85,20
3,89,85,75
3,87,76,60
3,84,79,55
3,87,93,75
3,89,103,65
3,96,119,840
3,94,89,15
3,96,70,5
3,94,64,100
3,94,103,155
3,96,110,40
3,89,98,80
3,90,93,10
3,89,89,65
3,87,82,15
3,84,70,85
3,89,103,110
3,87,85,85
3,88,98,60
3,84,110,105
3,81,85,25
3,84,110,180
3,81,76,40
3,87,98,105
3,93,98,10
3,88,98,125
3,87,85,115
3,93,93,10
3,88,98,65
3,86,110,110
3,93,98,5
3,87,79,20
3,93,70,0
3,87,57,70
3,86,85,55
3,84,79,20
3,93,103,70
3,86,110,0
3,87,93,105
3,93,76,10
3,87,79,55
3,86,82,70
3,84,89,0
3,86,110,70
3,93,103,5
3,87,93,125
3,93,79,35
3,87,64,60
3,86,93,40
3,84,85,15
3,86,103,85
3,93,103,5
3,87,79,10
3,93,64,10
3,87,52,95
3,86,98,50
3,84,70,5
3,93,103,40
3,86,103,10
3,87,76,30
3,86,82,0
3,84,89,15
3,90,85,35
3,91,98,5
3,94,89,5
3,91,85,15
3,94,76,10
3,91,79,15
3,94,70,15
3,91,79,15
3,94,79,10
3,91,73,20
3,94,76,45
3,91,62,20
3,94,67,20
3,91,47,105
3,96,119,835
3,94,85,110
3,91,73,20
3,96,98,70
3,90,93,5
3,89,103,5
3,87,89,10
3,84,98,20
3,82,89,15
3,79,89,25
3,84,98,15
3,78,98,0
3,77,110,15
3,75,89,40
3,77,89,25
3,75,85,5
3,76,98,0
3,72,89,0
3,72,103,190
3,86,103,3835
3,93,110,0
3,87,82,35
3,88,98,35
3,93,98,90
3,88,93,10
3,93,119,105
3,86,110,5
3,87,79,0
3,93,93,10
3,87,79,65
3,86,85,0
3,84,89,0
3,86,89,40
3,84,82,10
3,87,103,635
3,93,103,0
3,88,93,120
3,89,89,5
3,90,89,5
3,91,93,0
3,86,82,15
3,89,85,35
3,87,85,110
3,88,93,5
3,84,89,95
3,84,110,330
3,84,110,65
3,96,103,1600
3,95,103,10
