track,note,velocity,time
1,70,113,1136
1,65,102,0
1,62,98,0
1,74,108,0
1,74,0,315
1,74,104,69
1,65,0,125
1,62,0,5
1,70,0,6
1,74,0,50
1,60,93,6
1,65,100,1
1,69,104,1
1,72,107,1
1,77,107,380
1,77,0,335
1,69,0,35
1,60,0,9
1,74,109,5
1,72,0,1
1,65,0,1
1,62,102,191
1,65,103,1
1,70,107,1
1,74,0,355
1,74,111,26
1,62,0,151
1,65,0,14
1,70,0,12
1,74,0,13
1,60,96,1
1,65,93,1
1,69,100,1
1,72,101,1
1,77,111,381
1,69,0,382
1,70,109,4
1,60,0,3
1,65,0,1
1,77,0,5
1,72,0,12
1,63,113,173
1,67,108,1
1,58,91,2
1,51,90,1
1,70,0,111
1,67,0,162
1,65,102,10
1,67,111,272
1,65,0,14
1,63,0,74
1,67,0,43
1,67,104,97
1,67,0,84
1,69,104,7
1,51,0,29
1,58,0,33
1,70,107,32
1,69,0,17
1,70,0,48
1,72,102,26
1,72,0,11
1,55,101,14
1,62,92,1
1,67,100,1
1,70,111,1
1,74,116,1
1,74,0,171
1,75,113,1
1,75,0,136
1,67,0,43
1,70,0,14
1,55,0,1
1,74,104,0
1,62,0,12
1,53,96,29
1,60,92,1
1,65,101,1
1,69,98,1
1,72,106,1
1,74,0,18
1,69,0,362
1,72,0,0
1,70,127,0
1,69,116,194
1,70,0,5
1,70,116,187
1,69,0,12
1,60,0,122
1,53,0,8
1,65,0,0
1,70,0,44
1,58,107,4
1,63,97,1
1,67,110,3
1,51,92,9
1,67,0,269
1,63,0,7
1,65,107,1
1,58,0,154
1,63,101,127
1,67,106,2
1,58,91,4
1,65,0,3
1,58,0,909
1,51,0,12
1,63,0,30
1,67,0,2
1,51,87,3
1,58,85,92
1,63,96,98
1,67,127,108
1,70,127,291
1,67,0,866
1,63,0,1
1,51,0,0
1,58,0,4
1,70,0,6
1,55,77,70
1,58,73,1
1,62,92,1
1,55,0,138
1,58,0,2
1,62,0,14
1,55,82,30
1,58,74,1
1,63,90,1
1,55,0,302
1,58,0,27
1,63,0,7
1,57,96,46
1,60,93,1
1,65,92,1
1,57,0,1487
1,65,0,46
1,60,0,2
1,55,90,1
1,58,82,1
1,62,73,1
1,55,0,1510
1,58,0,12
1,62,0,3
1,55,104,7
1,62,116,290
1,67,107,288
1,55,0,187
1,62,0,33
1,67,0,180
1,51,82,3
1,55,86,1
1,58,91,1
1,65,106,286
1,67,113,286
1,65,0,37
1,58,0,0
1,67,0,11
1,51,0,0
1,55,0,9
1,69,102,222
1,70,103,96
1,69,0,27
1,53,87,66
1,57,81,1
1,60,88,1
1,69,119,1
1,70,0,2
1,69,0,283
1,67,109,2
1,67,0,265
1,69,116,23
1,70,113,0
1,69,0,13
1,69,113,83
1,70,0,9
1,67,104,87
1,69,0,18
1,67,0,70
1,65,104,7
1,57,0,130
1,53,0,4
1,60,0,27
1,65,0,16
1,55,100,16
1,67,113,1
1,58,77,287
1,62,102,1
1,67,0,255
1,67,107,30
1,55,0,907
1,58,0,5
1,67,0,22
1,62,0,1
1,60,90,25
1,65,102,1
1,69,119,1
1,67,122,288
1,69,0,6
1,69,122,282
1,67,0,34
1,70,109,158
1,72,107,384
1,70,0,17
1,60,0,224
1,72,0,5
1,65,0,10
1,69,0,18
1,55,92,4
1,58,77,1
1,62,71,1
1,67,106,1
1,70,92,1
1,70,0,268
1,69,107,16
1,70,111,192
1,69,0,22
1,67,0,208
1,67,109,57
1,62,0,713
1,55,0,12
1,58,0,7
1,70,0,4
1,67,0,3
1,53,85,28
1,57,77,1
1,60,86,1
1,65,96,1
1,69,109,1
1,69,0,272
1,67,113,14
1,69,116,5
1,67,0,9
1,70,109,183
1,72,113,11
1,70,0,11
1,69,0,3
1,57,0,90
1,53,0,3
1,65,0,7
1,60,0,24
1,72,0,21
1,51,82,40
1,58,86,1
1,67,102,1
1,70,101,1
1,75,104,1
1,75,0,152
1,67,0,17
1,70,0,34
1,65,104,3
1,70,103,1
1,74,103,1
1,70,0,77
1,74,0,28
1,65,0,22
1,63,90,63
1,67,103,1
1,70,97,1
1,67,0,19
1,70,0,28
1,63,0,19
1,58,0,3
1,58,74,166
1,63,96,1
1,67,81,1
1,51,0,674
1,58,0,38
1,63,0,2
1,67,0,10
1,62,98,28
1,65,102,1
1,70,113,1
1,74,108,1
1,74,0,315
1,74,104,68
1,65,0,124
1,62,0,4
1,70,0,8
1,74,0,50
1,60,93,6
1,65,100,1
1,69,104,1
1,72,107,1
1,77,107,380
1,77,0,335
1,69,0,35
1,60,0,9
1,74,109,5
1,72,0,1
1,65,0,1
1,62,102,191
1,65,103,1
1,70,107,1
1,74,0,355
1,74,111,26
1,62,0,151
1,65,0,14
1,70,0,12
1,74,0,13
1,60,96,1
1,65,93,1
1,69,100,1
1,72,101,1
1,77,111,381
1,69,0,382
1,70,109,4
1,60,0,3
1,65,0,1
1,77,0,5
1,72,0,12
1,63,113,173
1,67,108,1
1,58,91,2
1,51,90,1
1,70,0,111
1,67,0,162
1,65,102,10
1,67,111,272
1,65,0,14
1,63,0,74
1,67,0,43
1,67,104,97
1,67,0,84
1,69,104,7
1,51,0,29
1,58,0,33
1,70,107,32
1,69,0,17
1,70,0,48
1,72,102,26
1,72,0,11
1,55,101,14
1,62,92,1
1,67,100,1
1,70,111,1
1,74,116,1
1,74,0,171
1,75,113,1
1,75,0,136
1,67,0,43
1,70,0,14
1,55,0,1
1,74,104,0
1,62,0,12
1,53,96,29
1,60,92,1
1,65,101,1
1,69,98,1
1,72,106,1
1,74,0,18
1,69,0,362
1,72,0,0
1,74,127,0
1,72,116,194
1,74,0,5
1,60,0,321
1,53,0,8
1,65,0,0
1,62,98,48
1,65,102,1
1,72,0,1
1,70,113,0
1,74,108,1
1,74,0,315
1,74,104,68
1,65,0,124
1,62,0,4
1,70,0,8
1,74,0,50
1,60,93,6
1,65,100,1
1,69,104,1
1,72,107,1
1,77,107,380
1,77,0,335
1,69,0,35
1,60,0,9
1,74,109,5
1,72,0,1
1,65,0,1
1,62,102,191
1,65,103,1
1,70,107,1
1,74,0,355
1,74,111,26
1,62,0,151
1,65,0,14
1,70,0,12
1,74,0,13
1,60,96,1
1,65,93,1
1,69,100,1
1,72,101,1
1,77,111,381
1,69,0,382
1,70,109,4
1,60,0,3
1,65,0,1
1,77,0,5
1,72,0,12
1,63,113,173
1,67,108,1
1,58,91,2
1,51,90,1
1,70,0,111
1,67,0,162
1,65,102,10
1,67,111,272
1,65,0,14
1,63,0,74
1,67,0,43
1,67,104,97
1,67,0,84
1,69,104,7
1,51,0,29
1,58,0,33
1,70,107,32
1,69,0,17
1,70,0,48
1,72,102,26
1,72,0,11
1,55,101,14
1,62,92,1
1,67,100,1
1,70,111,1
1,74,116,1
1,74,0,171
1,75,113,1
1,75,0,136
1,67,0,43
1,70,0,14
1,55,0,1
1,74,104,0
1,62,0,12
1,53,96,29
1,60,92,1
1,65,101,1
1,69,98,1
1,72,106,1
1,74,0,18
1,69,0,362
1,72,0,0
1,74,127,0
1,72,116,194
1,74,0,5
1,72,0,187
1,69,127,0
1,60,0,134
1,53,0,8
1,65,0,0
1,56,96,48
1,60,90,1
1,63,97,1
1,63,91,1
1,72,109,1
1,69,0,5
1,56,0,72
1,60,0,4
1,63,0,7
1,72,0,41
1,63,0,15
1,56,80,1
1,60,78,1
1,63,88,1
1,70,112,1
1,56,0,56
1,60,0,20
1,63,0,3
1,70,0,29
1,56,85,32
1,60,73,1
1,63,83,1
1,72,108,1
1,63,0,48
1,72,0,193
1,63,80,42
1,63,0,49
1,63,107,47
1,70,102,79
1,72,113,95
1,70,0,19
1,63,0,147
1,60,0,5
1,56,0,11
1,72,0,0
1,55,93,11
1,58,87,1
1,62,83,1
1,70,107,1
1,69,96,85
1,70,0,18
1,58,0,15
1,55,0,3
1,62,0,3
1,55,57,29
1,58,68,1
1,69,0,1
1,62,62,0
1,67,102,1
1,58,0,53
1,55,0,9
1,62,0,6
1,67,0,71
1,69,93,5
1,69,0,50
1,55,80,8
1,58,69,1
1,62,82,1
1,70,106,1
1,55,0,201
1,58,0,28
1,55,93,10
1,62,0,16
1,58,93,82
1,62,93,20
1,70,0,12
1,67,102,84
1,70,122,96
1,55,0,176
1,62,0,10
1,67,0,1
1,70,0,0
1,53,82,3
1,57,78,1
1,60,78,1
1,69,122,1
1,58,0,2
1,60,0,118
1,53,0,0
1,57,0,8
1,69,0,53
1,53,86,19
1,57,87,1
1,60,78,1
1,67,100,1
1,60,0,37
1,53,0,2
1,57,0,14
1,67,0,77
1,53,78,48
1,57,69,1
1,60,76,1
1,69,103,1
1,60,0,74
1,57,0,9
1,57,85,169
1,60,87,97
1,69,0,19
1,67,127,26
1,69,109,191
1,58,107,193
1,69,0,1
1,53,0,0
1,67,110,1
1,51,92,9
1,67,0,4
1,60,0,4
1,57,0,2
1,67,0,259
1,65,107,8
1,58,0,156
1,63,101,125
1,67,106,2
1,58,91,4
1,65,0,3
1,58,0,909
1,51,0,12
1,63,0,30
1,67,0,2
1,63,67,20
1,70,116,1
1,58,82,2
1,55,70,6
1,65,116,178
1,70,0,93
1,67,127,4
1,70,122,282
1,63,0,900
1,55,0,7
1,67,0,2
1,58,0,3
1,65,0,1
1,70,0,8
1,55,77,34
1,58,73,1
1,62,92,1
1,55,0,140
1,58,0,2
1,62,0,16
1,55,82,26
1,58,74,1
1,63,90,1
1,55,0,300
1,58,0,27
1,63,0,5
1,57,96,50
1,60,93,1
1,65,92,1
1,57,0,1487
1,55,90,45
1,65,0,1
1,58,82,0
1,62,73,1
1,60,0,1
1,55,0,1509
1,58,0,12
1,62,0,3
1,55,104,11
1,62,116,288
1,67,107,286
1,55,0,189
1,62,0,31
1,67,0,178
1,51,82,1
1,55,86,1
1,58,91,1
1,65,106,288
1,67,113,288
1,58,0,35
1,65,0,2
1,51,0,9
1,67,0,4
1,55,0,5
1,69,102,223
1,70,103,97
1,69,0,26
1,53,87,68
1,57,81,1
1,60,88,1
1,70,0,1
1,69,119,0
1,69,0,285
1,67,109,0
1,67,0,265
1,69,116,21
1,70,113,0
1,69,0,11
1,69,113,85
1,70,0,9
1,67,104,87
1,69,0,18
1,67,0,70
1,65,104,8
1,57,0,131
1,53,0,4
1,60,0,27
1,65,0,15
1,55,100,13
1,67,113,1
1,58,77,289
1,62,102,1
1,67,0,253
1,67,107,34
1,55,0,903
1,58,0,7
1,62,0,23
1,67,0,1
1,60,90,26
1,65,102,1
1,69,119,1
1,67,122,286
1,69,0,8
1,69,122,278
1,67,0,36
1,70,109,157
1,72,107,385
1,70,0,16
1,60,0,226
1,72,0,3
1,65,0,12
1,69,0,16
1,55,92,4
1,58,77,1
1,62,71,1
1,67,106,1
1,70,92,1
1,70,0,268
1,69,107,18
1,70,111,192
1,69,0,22
1,67,0,206
1,67,109,60
1,62,0,710
1,55,0,12
1,58,0,7
1,70,0,6
1,67,0,4
1,53,85,29
1,57,77,1
1,60,86,1
1,65,96,1
1,69,109,1
1,69,0,272
1,67,113,12
1,69,116,3
1,67,0,11
1,70,109,182
1,72,113,11
1,70,0,10
1,69,0,2
1,57,0,92
1,53,0,3
1,65,0,7
1,60,0,24
1,72,0,19
1,51,82,38
1,58,86,1
1,67,102,1
1,70,101,1
1,75,104,1
1,75,0,150
1,67,0,17
1,70,0,34
1,65,104,3
1,70,103,1
1,74,103,1
1,70,0,77
1,74,0,28
1,65,0,22
1,63,90,63
1,67,103,1
1,70,97,1
1,67,0,19
1,70,0,28
1,63,0,19
1,58,0,1
1,58,74,169
1,63,96,1
1,67,81,1
1,51,0,672
1,58,0,41
1,63,0,2
1,67,0,10
1,62,98,29
1,65,102,1
1,70,113,1
1,74,108,1
1,74,0,315
1,74,104,65
1,65,0,127
1,62,0,4
1,70,0,8
1,74,0,47
1,60,93,5
1,65,100,1
1,69,104,1
1,72,107,1
1,77,107,381
1,77,0,335
1,69,0,34
1,60,0,9
1,72,0,6
1,65,0,1
1,74,109,1
1,62,102,190
1,65,103,1
1,70,107,1
1,74,0,358
1,74,111,26
1,62,0,148
1,65,0,14
1,70,0,12
1,74,0,16
1,60,96,2
1,65,93,1
1,69,100,1
1,72,101,1
1,77,111,380
1,69,0,383
1,70,109,1
1,60,0,6
1,65,0,1
1,77,0,4
1,72,0,13
1,63,113,171
1,67,108,1
1,58,91,2
1,51,90,1
1,70,0,110
1,67,0,163
1,65,102,10
1,67,111,272
1,65,0,14
1,63,0,74
1,67,0,43
1,67,104,97
1,67,0,84
1,69,104,7
1,51,0,29
1,58,0,33
1,70,107,32
1,69,0,17
1,70,0,48
1,72,102,26
1,72,0,11
1,55,101,12
1,62,92,1
1,67,100,1
1,70,111,1
1,74,116,1
1,74,0,171
1,75,113,4
1,75,0,136
1,67,0,38
1,70,0,14
1,55,0,1
1,74,104,3
1,62,0,9
1,53,96,31
1,60,92,1
1,65,101,1
1,69,98,1
1,72,106,1
1,74,0,17
1,74,127,362
1,69,0,1
1,72,0,0
1,72,116,192
1,74,0,6
1,60,0,322
1,53,0,8
1,65,0,0
1,72,0,48
1,62,98,0
1,65,102,1
1,70,113,1
1,74,108,1
1,74,0,315
1,74,104,65
1,65,0,127
1,62,0,4
1,70,0,8
1,74,0,47
1,60,93,5
1,65,100,1
1,69,104,1
1,72,107,1
1,77,107,381
1,77,0,335
1,69,0,34
1,60,0,9
1,72,0,6
1,65,0,1
1,74,109,1
1,62,102,190
1,65,103,1
1,70,107,1
1,74,0,358
1,74,111,26
1,62,0,148
1,65,0,14
1,70,0,12
1,74,0,16
1,60,96,2
1,65,93,1
1,69,100,1
1,72,101,1
1,77,111,380
1,69,0,383
1,70,109,1
1,60,0,6
1,65,0,1
1,77,0,4
1,72,0,13
1,63,113,171
1,67,108,1
1,58,91,2
1,51,90,1
1,70,0,110
1,67,0,163
1,65,102,10
1,67,111,272
1,65,0,14
1,63,0,74
1,67,0,43
1,67,104,97
1,67,0,84
1,69,104,7
1,51,0,29
1,58,0,33
1,70,107,32
1,69,0,17
1,70,0,48
1,72,102,26
1,72,0,11
1,55,101,12
1,62,92,1
1,67,100,1
1,70,111,1
1,74,116,1
1,74,0,171
1,75,113,4
1,75,0,136
1,67,0,38
1,70,0,14
1,55,0,1
1,74,104,3
1,62,0,9
1,53,96,31
1,60,92,1
1,65,101,1
1,69,98,1
1,72,106,1
1,74,0,17
1,74,127,362
1,69,0,1
1,72,0,0
1,72,116,192
1,74,0,6
1,69,127,185
1,72,0,1
1,60,0,136
1,53,0,8
1,65,0,0
1,63,97,46
1,56,96,2
1,60,90,1
1,63,91,1
1,72,109,1
1,69,0,3
1,56,0,74
1,60,0,4
1,63,0,7
1,72,0,41
1,63,0,13
1,56,80,1
1,60,78,1
1,63,88,1
1,70,112,1
1,56,0,56
1,60,0,20
1,63,0,3
1,70,0,29
1,56,85,30
1,60,73,1
1,63,83,1
1,72,108,1
1,63,0,46
1,72,0,193
1,63,80,44
1,63,0,49
1,63,107,47
1,70,102,79
1,72,113,96
1,70,0,18
1,63,0,147
1,60,0,3
1,56,0,11
1,72,0,3
1,55,93,8
1,58,87,1
1,62,83,1
1,70,107,1
1,69,96,88
1,70,0,13
1,58,0,13
1,55,0,3
1,62,0,3
1,55,57,31
1,58,68,1
1,62,62,1
1,67,102,1
1,69,0,2
1,58,0,53
1,55,0,9
1,62,0,6
1,67,0,71
1,69,93,5
1,69,0,50
1,55,80,10
1,58,69,1
1,62,82,1
1,70,106,1
1,55,0,203
1,58,0,28
1,55,93,9
1,62,0,17
1,58,93,80
1,62,93,20
1,70,0,14
1,67,102,82
1,70,122,95
1,55,0,178
1,62,0,9
1,70,0,0
1,67,0,1
1,53,82,5
1,57,78,1
1,60,78,1
1,58,0,1
1,69,122,0
1,53,0,120
1,60,0,0
1,57,0,8
1,69,0,53
1,53,86,17
1,57,87,1
1,60,78,1
1,67,100,1
1,60,0,37
1,53,0,2
