track,note,velocity,time
3,31,91,1133
3,43,91,0
3,58,104,0
3,62,113,1
3,53,104,0
3,50,127,31
3,50,0,178
3,31,101,12
3,43,101,0
3,53,0,103
3,62,0,2
3,58,0,16
3,31,0,51
3,43,0,0
3,34,104,19
3,46,104,0
3,57,104,1
3,53,97,0
3,60,94,0
3,60,113,121
3,53,108,0
3,34,127,1
3,46,127,0
3,57,122,0
3,57,0,291
3,53,0,3
3,60,0,20
3,34,0,25
3,46,0,0
3,36,122,44
3,48,122,0
3,60,113,0
3,55,122,1
3,52,108,0
3,48,108,84
3,48,0,68
3,48,127,126
3,36,0,102
3,48,0,84
3,36,117,6
3,36,0,363
3,48,77,19
3,48,0,56
3,48,122,137
3,48,0,181
3,36,117,10
3,52,0,161
3,55,0,1
3,60,0,13
3,36,0,13
3,31,91,10
3,43,91,0
3,58,104,1
3,62,113,0
3,53,104,0
3,50,127,31
3,50,0,178
3,31,101,12
3,43,101,0
3,53,0,103
3,62,0,2
3,58,0,17
3,31,0,50
3,43,0,0
3,34,104,19
3,46,104,0
3,57,104,1
3,53,97,0
3,60,94,0
3,60,113,121
3,53,108,0
3,34,127,1
3,46,127,0
3,57,122,0
3,57,0,291
3,53,0,3
3,60,0,20
3,34,0,25
3,46,0,0
3,36,122,44
3,48,122,0
3,60,113,0
3,55,122,1
3,52,108,0
3,48,94,50
3,60,83,1
3,36,0,293
3,48,0,33
3,60,0,6
3,48,97,52
3,60,101,1
3,36,117,194
3,60,0,116
3,48,0,4
3,60,83,68
3,48,97,1
3,60,0,133
3,48,0,16
3,36,0,25
3,55,0,15
3,52,0,2
3,36,117,4
3,52,113,3
3,48,94,0
3,55,122,1
3,52,0,139
3,48,0,6
3,55,0,14
3,48,86,31
3,57,108,1
3,52,108,1
3,36,0,152
3,52,0,15
3,48,0,5
3,57,0,4
3,58,95,8
3,53,117,1
3,60,108,0
3,31,94,1
3,50,104,0
3,53,91,77
3,60,0,159
3,58,0,6
3,53,0,26
3,50,117,0
3,31,0,35
3,50,0,27
3,43,88,30
3,34,95,33
3,50,101,2
3,58,83,0
3,53,101,1
3,46,87,0
3,53,0,37
3,46,0,2
3,50,0,3
3,34,0,10
3,58,0,4
3,34,100,139
3,50,113,0
3,57,101,1
3,46,87,0
3,53,101,1
3,55,101,93
3,52,108,1
3,48,104,1
3,36,81,1
3,48,117,80
3,52,0,32
3,55,0,15
3,36,0,84
3,55,104,252
3,36,101,2
3,52,113,1
3,48,117,15
3,50,117,17
3,53,117,0
3,55,113,190
3,52,97,1
3,53,0,14
3,50,0,3
3,36,0,164
3,53,113,13
3,60,104,0
3,58,100,0
3,31,88,0
3,50,104,1
3,48,0,4
3,52,0,2
3,55,0,0
3,53,108,62
3,58,0,183
3,60,0,5
3,53,0,0
3,50,117,3
3,31,0,66
3,50,0,2
3,43,81,25
3,34,95,27
3,50,101,1
3,58,96,0
3,46,95,2
3,53,91,0
3,53,0,32
3,46,0,13
3,50,0,4
3,34,0,5
3,58,0,3
3,50,101,136
3,53,101,1
3,34,95,0
3,57,104,2
3,46,83,0
3,55,104,62
3,52,113,1
3,48,104,1
3,36,83,3
3,48,108,74
3,52,0,33
3,55,0,4
3,36,0,21
3,55,104,16
3,52,117,1
3,36,94,0
3,48,91,0
3,36,91,3
3,48,0,132
3,48,101,58
3,52,113,1
3,36,91,40
3,55,116,2
3,36,0,173
3,55,0,14
3,52,0,6
3,55,108,1
3,36,97,0
3,48,0,1
3,48,104,0
3,52,113,0
3,48,122,233
3,36,91,100
3,36,0,337
3,52,0,31
3,55,0,6
3,48,0,5
3,54,95,9
3,50,97,0
3,38,101,1
3,57,108,0
3,54,110,36
3,57,122,0
3,50,113,31
3,38,0,380
3,50,0,3
3,39,93,2
3,55,122,0
3,58,100,0
3,51,95,0
3,50,101,0
3,54,0,10
3,57,0,17
3,55,108,61
3,51,0,35
3,55,0,48
3,58,95,32
3,55,113,1
3,51,87,1
3,51,0,551
3,50,0,7
3,39,0,3
3,55,0,0
3,58,0,7
3,57,101,16
3,38,91,0
3,53,104,0
3,48,97,0
3,48,94,10
3,48,0,91
3,57,117,48
3,53,117,0
3,48,108,1
3,48,101,34
3,38,0,356
3,48,0,12
3,58,91,11
3,55,113,0
3,48,104,0
3,36,81,1
3,51,95,0
3,53,0,10
3,57,0,6
3,55,104,55
3,48,0,37
3,55,0,63
3,55,122,12
3,58,100,0
3,51,100,1
3,48,113,1
3,48,0,541
3,36,0,0
3,51,0,7
3,58,0,6
3,55,0,0
3,57,108,23
3,53,117,0
3,38,86,0
3,50,117,0
3,48,101,0
3,50,88,176
3,53,88,0
3,48,79,1
3,38,0,130
3,38,104,256
3,53,0,284
3,53,91,27
3,50,0,188
3,38,0,3
3,48,0,4
3,55,104,3
3,31,91,0
3,50,101,0
3,58,95,1
3,57,0,10
3,53,0,5
3,43,94,30
3,60,104,17
3,52,88,1
3,55,101,0
3,43,83,10
3,50,86,190
3,58,91,64
3,55,104,1
3,43,0,49
3,43,81,1
3,50,0,6
3,58,0,10
3,52,73,173
3,52,0,110
3,55,104,80
3,52,91,1
3,60,94,0
3,43,83,194
3,52,0,29
3,55,0,11
3,60,0,23
3,52,81,128
3,55,97,146
3,43,0,188
3,55,0,3
3,52,0,0
3,55,97,1
3,52,101,1
3,48,88,0
3,36,86,1
3,31,0,1
3,52,113,160
3,52,0,171
3,55,122,29
3,54,95,24
3,50,94,1
3,57,113,1
3,38,70,2
3,57,86,3
3,50,83,14
3,54,76,0
3,38,75,1
3,38,0,356
3,50,0,2
3,54,0,9
3,57,0,8
3,39,95,15
3,58,95,0
3,55,113,0
3,50,97,0
3,57,122,23
3,55,0,107
3,57,0,90
3,55,127,1
3,58,110,54
3,50,0,18
3,58,0,56
3,39,0,29
3,48,94,17
3,53,108,1
3,57,97,1
3,38,75,2
3,48,108,4
3,53,0,17
3,57,113,78
3,53,117,1
3,38,83,12
3,48,0,146
3,48,101,50
3,38,0,307
3,48,0,23
3,57,0,53
3,53,0,0
3,58,83,0
3,55,108,0
3,51,91,0
3,48,97,0
3,36,79,0
3,48,108,194
3,48,0,59
3,58,91,319
3,48,101,1
3,55,113,0
3,51,95,1
3,55,0,162
3,36,0,6
3,51,0,1
3,48,0,1
3,58,0,34
3,57,104,369
3,53,108,1
3,60,97,0
3,38,83,1
3,50,97,0
3,50,108,137
3,50,0,76
3,60,101,11
3,53,117,0
3,57,113,1
3,50,108,1
3,50,0,477
3,57,0,5
3,53,0,5
3,38,0,2
3,60,0,15
3,53,101,73
3,58,91,0
3,31,86,0
3,50,94,0
3,43,77,110
3,50,88,2
3,53,0,17
3,50,0,63
3,58,0,11
3,52,94,56
3,60,101,1
3,55,104,0
3,60,79,11
3,55,97,28
3,52,94,0
3,43,86,1
3,60,0,330
3,55,0,1
3,52,0,2
3,43,0,15
3,31,0,10
3,72,95,4637
3,67,108,0
3,55,95,0
3,60,108,0
3,63,81,0
3,60,0,85
3,67,0,0
3,63,0,5
3,55,0,6
3,72,0,0
3,55,98,193
3,60,104,1
3,63,83,1
3,67,104,1
3,72,98,1
3,63,0,81
3,67,0,1
3,60,0,0
3,55,0,14
3,72,0,0
3,55,98,189
3,60,108,1
3,63,83,1
3,67,108,1
3,72,98,1
3,63,0,90
3,67,0,9
3,60,0,0
3,55,0,22
3,72,0,0
3,55,90,258
3,60,101,1
3,63,83,1
3,67,101,1
3,72,90,1
3,63,0,97
3,67,0,1
3,60,0,0
3,55,0,17
3,72,0,0
3,55,93,265
3,60,108,1
3,63,87,1
3,67,108,1
3,72,93,1
3,63,0,61
3,72,0,2
3,55,0,0
3,60,0,2
3,67,0,0
3,56,72,124
3,60,104,1
3,63,58,1
3,68,104,1
3,72,72,1
3,63,0,79
3,72,0,20
3,56,0,0
3,60,0,2
3,68,0,0
3,56,83,181
3,60,111,1
3,63,87,1
3,68,111,1
3,72,83,1
3,63,0,74
3,68,0,1
3,60,0,0
3,56,0,7
3,72,0,0
3,56,81,202
3,60,104,1
3,63,78,1
3,68,104,1
3,72,81,1
3,63,0,83
3,68,0,10
3,60,0,0
3,56,0,6
3,72,0,0
3,56,87,281
3,60,119,1
3,63,92,1
3,68,119,1
3,72,87,1
3,63,0,98
3,72,0,3
3,56,0,0
3,60,0,1
3,68,0,0
3,56,78,280
3,60,108,1
3,63,47,1
3,68,108,1
3,72,78,1
3,63,0,28
3,68,0,40
3,60,0,0
3,56,0,4
3,72,0,0
3,55,98,114
3,59,111,1
3,62,104,1
3,67,98,1
3,71,104,1
3,71,0,60
3,62,0,0
3,59,0,14
3,55,0,1
3,67,0,0
3,55,90,210
3,59,101,1
3,62,101,1
3,67,90,1
3,71,101,1
3,59,0,77
3,71,0,7
3,62,0,0
3,55,0,15
3,67,0,0
3,55,88,186
3,59,98,1
3,62,95,1
3,67,88,1
3,71,95,1
3,59,0,102
3,71,0,15
3,62,0,0
3,55,0,6
3,67,0,0
3,55,95,256
3,59,104,1
3,62,101,1
3,67,95,1
3,71,101,1
3,59,0,114
3,71,0,4
3,62,0,0
3,55,0,9
3,67,0,0
3,55,101,253
3,59,104,1
3,62,104,1
3,67,101,1
3,71,104,1
3,67,0,64
3,55,0,0
3,59,0,1
3,62,0,9
3,71,0,0
3,55,95,115
3,58,87,1
3,62,93,1
3,67,95,1
3,70,104,1
3,70,0,60
3,58,0,26
3,62,0,12
3,55,0,29
3,67,0,0
3,55,95,155
3,58,87,1
3,62,104,1
3,67,95,1
3,70,101,1
3,58,0,78
3,70,0,6
3,62,0,7
3,55,0,11
3,67,0,0
3,55,98,182
3,58,87,1
3,62,108,1
3,67,98,1
3,70,95,1
3,58,0,79
3,62,0,16
3,55,0,6
3,67,0,0
3,70,0,16
3,55,101,263
3,58,95,1
3,62,111,1
3,67,101,1
3,70,101,1
3,58,0,82
3,62,0,19
3,55,0,8
3,67,0,0
3,70,0,9
3,55,104,264
3,58,100,1
3,62,104,1
3,67,104,1
3,70,104,1
3,62,0,38
3,70,0,36
3,67,0,4
3,55,0,0
3,58,0,5
3,52,108,103
3,55,108,1
3,57,111,1
3,60,104,1
3,64,108,1
3,69,111,1
3,55,0,61
3,64,0,42
3,52,0,0
3,57,0,2
3,69,0,0
3,60,0,11
3,52,88,168
3,55,93,1
3,57,93,1
3,60,93,1
3,64,88,1
3,69,93,1
3,55,0,68
3,57,0,5
3,69,0,0
3,60,0,8
3,64,0,2
3,52,0,0
3,52,86,201
3,55,90,1
3,57,88,1
3,60,90,1
3,64,86,1
3,69,88,1
3,55,0,90
3,57,0,9
3,69,0,0
3,60,0,11
3,64,0,8
3,52,0,0
3,52,88,260
3,55,98,1
3,57,98,1
3,60,95,1
3,64,88,1
3,69,98,1
3,55,0,88
3,57,0,13
3,69,0,0
3,64,0,3
3,52,0,0
3,60,0,11
3,52,95,264
3,55,93,1
3,57,93,1
3,60,90,1
3,64,95,1
3,69,93,1
3,55,0,58
3,60,0,5
3,64,0,8
3,52,0,0
3,69,0,0
3,57,0,0
3,51,83,117
3,56,92,1
3,60,108,1
3,63,108,1
3,68,92,1
3,68,0,72
3,56,0,0
3,51,0,27
3,60,0,19
3,63,0,0
3,51,83,164
3,56,100,1
3,60,104,1
3,63,104,1
3,68,100,1
3,68,0,60
3,56,0,0
3,51,0,24
3,60,0,7
3,63,0,0
3,51,92,193
3,58,100,1
3,60,111,1
3,63,111,1
3,70,100,1
3,70,0,74
3,58,0,0
3,51,0,29
3,60,0,14
3,63,0,0
3,51,83,263
3,56,92,1
3,60,111,1
3,63,111,1
3,68,92,1
3,68,0,87
3,56,0,0
3,51,0,25
3,60,0,14
3,63,0,0
3,51,83,256
3,56,100,1
3,60,111,1
3,63,111,1
3,68,100,1
3,51,0,66
3,56,0,4
3,68,0,0
3,60,0,6
3,63,0,0
3,50,111,110
3,55,111,1
3,59,108,1
3,62,101,1
3,67,111,1
3,71,101,1
3,67,0,76
3,55,0,0
3,50,0,0
3,59,0,24
3,62,0,13
3,71,0,0
3,50,108,171
3,55,108,1
3,59,98,1
3,62,93,1
3,67,108,1
3,71,93,1
3,67,0,80
3,55,0,0
3,50,0,0
3,59,0,9
3,62,0,13
3,71,0,0
3,50,104,182
3,55,104,1
3,59,104,1
3,62,93,1
3,67,104,1
3,71,93,1
3,67,0,89
3,55,0,0
3,50,0,0
3,59,0,8
3,62,0,11
3,71,0,0
3,50,101,270
3,55,101,1
3,59,101,1
3,62,93,1
3,67,101,1
3,71,93,1
3,67,0,76
3,55,0,0
3,50,0,0
3,59,0,6
3,62,0,19
3,71,0,0
3,50,104,278
3,55,104,1
3,59,101,1
3,62,93,1
3,67,104,1
3,71,93,1
3,67,0,61
3,55,0,0
3,50,0,0
3,59,0,5
3,62,0,10
3,71,0,0
3,50,101,112
3,53,101,1
3,59,101,1
3,62,95,1
3,65,101,1
3,71,95,1
3,65,0,60
3,53,0,0
3,50,0,0
3,59,0,16
3,62,0,3
3,71,0,0
3,50,108,202
3,53,108,1
3,59,104,1
3,62,101,1
3,65,108,1
3,71,101,1
3,65,0,65
3,53,0,0
3,50,0,0
3,59,0,9
3,62,0,8
3,71,0,0
3,50,104,201
3,53,104,1
3,59,101,1
3,62,98,1
3,65,104,1
3,71,98,1
3,65,0,82
3,53,0,0
3,50,0,0
3,59,0,16
3,62,0,6
3,71,0,0
3,50,104,275
3,53,104,1
3,59,101,1
3,62,98,1
3,65,104,1
3,71,98,1
3,65,0,91
3,53,0,0
3,50,0,0
3,59,0,6
3,62,0,10
3,71,0,0
3,50,108,274
3,53,108,1
3,59,104,1
3,62,108,1
3,65,108,1
3,71,108,1
3,59,0,84
3,65,0,7
3,50,0,0
3,53,0,0
3,62,0,12
3,71,0,0
3,55,95,82
3,60,108,1
3,63,81,1
3,67,108,1
3,72,95,1
3,67,0,81
3,60,0,0
3,63,0,5
3,55,0,6
3,72,0,0
3,55,98,193
3,60,104,1
3,63,83,1
3,67,104,1
3,72,98,1
3,63,0,81
3,67,0,1
3,60,0,0
3,55,0,14
3,72,0,0
3,55,98,189
3,60,108,1
3,63,83,1
3,67,108,1
3,72,98,1
3,63,0,90
3,67,0,9
3,60,0,0
3,55,0,22
3,72,0,0
3,55,90,258
3,60,101,1
3,63,83,1
3,67,101,1
3,72,90,1
3,63,0,97
3,67,0,1
3,60,0,0
3,55,0,17
3,72,0,0
3,55,93,265
3,60,108,1
3,63,87,1
3,67,108,1
3,72,93,1
3,63,0,61
3,72,0,2
3,55,0,0
3,60,0,2
3,67,0,0
3,56,72,124
3,60,104,1
3,63,58,1
3,68,104,1
3,72,72,1
3,63,0,79
3,72,0,20
3,56,0,0
3,60,0,2
3,68,0,0
3,56,83,181
3,60,111,1
3,63,87,1
3,68,111,1
3,72,83,1
3,63,0,74
3,68,0,1
3,60,0,0
3,56,0,7
3,72,0,0
3,56,81,202
3,60,104,1
3,63,78,1
3,68,104,1
3,72,81,1
3,63,0,83
3,68,0,10
3,60,0,0
3,56,0,6
3,72,0,0
3,56,87,281
3,60,119,1
3,63,92,1
3,68,119,1
3,72,87,1
3,63,0,98
3,72,0,3
3,56,0,0
3,60,0,1
3,68,0,0
3,56,78,280
3,60,108,1
3,63,47,1
3,68,108,1
3,72,78,1
3,63,0,28
3,68,0,40
3,60,0,0
3,56,0,4
3,72,0,0
3,55,98,114
3,59,111,1
3,62,104,1
3,67,98,1
3,71,104,1
3,71,0,60
3,62,0,0
3,59,0,14
3,55,0,1
3,67,0,0
3,55,90,210
3,59,101,1
3,62,101,1
3,67,90,1
3,71,101,1
3,59,0,77
3,71,0,7
3,62,0,0
3,55,0,15
3,67,0,0
3,55,88,186
3,59,98,1
3,62,95,1
3,67,88,1
3,71,95,1
3,59,0,102
3,71,0,15
3,62,0,0
3,55,0,6
3,67,0,0
3,55,95,256
3,59,104,1
3,62,101,1
3,67,95,1
3,71,101,1
3,59,0,114
3,71,0,4
3,62,0,0
3,55,0,9
3,67,0,0
