track,note,velocity,time
1,62,127,0
1,62,127,124
1,60,127,4
1,62,127,52
1,62,127,108
1,60,127,4
1,62,127,80
1,63,127,192
1,63,127,96
1,65,127,12
1,65,127,104
1,63,127,200
1,63,127,88
1,62,127,4
1,60,127,188
1,63,127,716
1,63,127,120
1,62,127,96
1,63,127,292
1,62,127,80
1,60,127,4
1,63,127,796
1,65,127,20
1,65,127,76
1,67,127,8
1,67,127,72
1,65,127,176
1,65,127,64
1,60,127,196
1,62,127,8
1,74,127,740
1,74,127,8
1,74,127,1152
1,72,127,92
1,74,127,292
1,72,127,88
1,70,127,8
1,74,127,140
1,72,127,84
1,74,127,4
1,75,127,184
1,75,127,80
1,77,127,20
1,77,127,16
1,75,127,280
1,75,127,60
1,74,127,192
1,75,127,196
1,74,127,480
1,72,127,92
1,70,127,40
1,67,127,36
1,79,127,276
1,79,127,80
1,79,127,60
1,79,127,76
1,77,127,96
1,75,127,152
1,72,127,188
1,70,127,128
1,77,127,192
1,77,127,92
1,75,127,56
1,75,127,80
1,74,127,12
1,74,127,44
1,70,127,172
1,65,127,60
1,67,127,4
1,67,127,68
1,69,127,184
1,69,127,68
1,75,127,4
1,75,127,68
1,69,127,12
1,70,127,0
1,74,127,856
1,72,127,588
1,74,127,184
1,72,127,84
1,70,127,4
1,67,127,92
1,67,127,92
1,71,127,32
1,71,127,76
1,74,127,48
1,74,127,76
1,79,127,4
1,79,127,64
1,74,127,12
1,77,127,40
1,75,127,48
1,75,127,100
1,75,127,1604
1,74,127,28
1,74,127,88
1,72,127,0
1,72,127,44
1,65,127,0
1,75,127,108
1,75,127,64
1,74,127,44
1,74,127,88
1,72,127,4
1,72,127,44
1,65,127,284
1,74,127,68
1,72,127,56
1,74,127,44
1,72,127,20
1,74,127,32
1,74,127,1696
1,74,127,96
1,72,127,104
1,70,127,72
1,74,127,88
1,74,127,96
1,74,127,48
1,74,127,76
1,74,127,68
1,79,127,76
1,79,127,52
1,79,127,80
1,77,127,64
1,77,127,56
1,75,127,552
1,75,127,72
1,77,127,2052
1,76,127,8
1,77,127,92
1,82,127,60
1,82,127,72
1,86,127,16
1,86,127,56
1,84,127,168
1,82,127,4
1,77,127,204
1,77,127,76
1,81,127,184
1,87,127,16
1,87,127,36
1,81,127,12
1,82,127,56
1,62,127,2228
1,62,127,124
1,60,127,96
1,62,127,284
1,62,127,336
1,60,127,12
1,62,127,40
1,63,127,52
1,63,127,84
1,65,127,60
1,65,127,80
1,63,127,8
1,63,127,84
1,62,127,20
1,63,127,16
1,62,127,576
1,60,127,8
1,63,127,228
1,63,127,296
1,62,127,16
1,63,127,12
1,62,127,100
1,60,127,4
1,63,127,168
1,62,127,8
1,63,127,32
1,65,127,12
1,65,127,80
1,67,127,8
1,67,127,68
1,65,127,192
1,60,127,220
1,62,127,20
1,74,127,416
1,74,127,120
1,72,127,92
1,74,127,68
1,72,127,616
1,70,127,4
1,74,127,304
1,75,127,60
1,75,127,80
1,77,127,20
1,77,127,72
1,75,127,204
1,75,127,60
1,74,127,8
1,75,127,52
1,74,127,484
1,72,127,4
1,70,127,192
1,67,127,112
1,79,127,392
1,79,127,48
1,77,127,32
1,77,127,80
1,75,127,8
1,75,127,48
1,72,127,176
1,70,127,108
1,77,127,164
1,77,127,88
1,75,127,4
1,75,127,48
1,74,127,60
1,70,127,296
1,65,127,156
1,67,127,16
1,67,127,92
1,69,127,24
1,69,127,100
1,75,127,180
1,75,127,80
1,69,127,16
1,70,127,32
2,34,127,13824
2,34,127,156
2,34,127,96
2,34,127,336
2,34,127,120
2,34,127,92
2,29,127,108
2,31,127,96
2,34,127,72
2,34,127,148
2,34,127,88
2,29,127,192
2,29,127,176
2,29,127,84
2,29,127,284
2,29,127,128
2,29,127,84
2,29,127,340
2,29,127,124
2,29,127,84
2,29,127,280
2,29,127,112
2,29,127,80
2,34,127,280
2,34,127,152
2,34,127,88
2,34,127,280
2,34,127,148
2,34,127,108
2,34,127,316
2,34,127,132
2,34,127,96
2,29,127,92
2,31,127,96
2,34,127,76
2,34,127,140
2,34,127,84
2,29,127,244
2,29,127,148
2,29,127,88
2,29,127,312
2,29,127,152
2,29,127,88
2,29,127,276
2,29,127,100
2,29,127,100
2,29,127,240
2,29,127,112
2,29,127,88
2,34,127,196
2,34,127,144
2,34,127,96
2,34,127,300
2,34,127,104
2,34,127,112
2,34,127,300
2,34,127,152
2,34,127,100
2,29,127,112
2,31,127,96
2,34,127,76
2,34,127,132
2,34,127,84
2,36,127,184
2,36,127,100
2,36,127,80
2,39,127,84
2,39,127,156
2,39,127,80
2,34,127,176
2,34,127,100
2,34,127,76
2,29,127,172
2,29,127,148
2,29,127,56
2,34,127,208
2,34,127,132
2,34,127,104
2,31,127,132
2,31,127,136
2,31,127,108
2,31,127,100
2,33,127,96
2,35,127,0
2,35,127,88
2,36,127,96
2,38,127,76
2,31,127,88
2,36,127,196
2,36,127,116
2,36,127,104
2,36,127,68
2,38,127,96
2,39,127,12
2,39,127,108
2,29,127,0
2,31,127,96
2,36,127,380
2,29,127,16
2,29,127,148
2,29,127,84
2,29,127,104
2,31,127,96
2,33,127,88
2,33,127,104
2,34,127,4
2,36,127,4
2,29,127,80
2,34,127,196
2,34,127,144
2,34,127,76
2,34,127,268
2,34,127,144
2,34,127,80
2,31,127,108
2,31,127,128
2,31,127,72
2,31,127,116
2,33,127,0
2,35,127,96
2,35,127,84
2,36,127,96
2,38,127,80
2,31,127,8
2,36,127,192
2,36,127,128
2,36,127,84
2,36,127,112
2,38,127,96
2,39,127,4
2,39,127,120
2,29,127,96
2,31,127,72
2,36,127,0
2,34,127,4
2,34,127,172
2,34,127,92
2,33,127,16
2,31,127,8
2,29,127,0
2,29,127,140
2,29,127,76
2,29,127,100
2,34,127,192
2,34,127,112
2,34,127,96
2,34,127,132
2,34,127,140
2,34,127,96
2,29,127,384
2,31,127,80
2,34,127,84
2,34,127,52
2,34,127,164
2,34,127,108
2,34,127,296
2,34,127,116
2,34,127,104
2,34,127,312
2,34,127,116
2,34,127,96
2,29,127,148
2,29,127,116
2,29,127,80
2,29,127,196
2,29,127,120
2,29,127,84
2,29,127,204
2,29,127,104
2,29,127,64
2,29,127,312
2,29,127,180
2,29,127,84
2,34,127,224
2,34,127,128
2,34,127,100
2,34,127,156
2,34,127,148
2,34,127,112
2,34,127,220
2,34,127,144
2,34,127,100
2,29,127,108
2,31,127,96
2,34,127,72
2,34,127,152
2,34,127,120
2,36,127,260
2,36,127,132
2,36,127,100
2,39,127,112
2,39,127,120
2,39,127,68
2,34,127,272
2,34,127,108
2,34,127,80
2,29,127,212
2,29,127,140
2,29,127,48
2,34,127,220
2,34,127,140
2,34,127,88
2,34,127,2988
2,34,127,192
2,34,127,100
2,34,127,368
2,34,127,184
2,34,127,108
2,34,127,352
2,34,127,172
2,34,127,116
2,29,127,244
2,29,127,160
2,29,127,72
2,29,127,348
2,29,127,172
2,29,127,100
2,29,127,312
2,29,127,148
2,29,127,92
2,29,127,384
2,29,127,168
2,29,127,68
2,34,127,332
2,34,127,144
2,34,127,96
2,34,127,368
2,34,127,152
2,34,127,88
2,34,127,324
2,34,127,112
2,34,127,96
2,34,127,356
2,34,127,140
2,34,127,96
2,29,127,224
2,29,127,164
2,29,127,108
2,29,127,252
2,29,127,128
2,29,127,100
2,29,127,304
2,29,127,180
2,29,127,104
2,29,127,292
2,29,127,140
2,29,127,60
2,34,127,236
2,34,127,124
2,34,127,92
2,30,127,196
2,30,127,116
2,30,127,84
2,39,127,132
2,39,127,128
2,39,127,76
2,35,127,160
2,32,127,764
2,27,127,764
3,46,68,13812
3,58,68,0
3,41,68,4604
3,53,68,0
3,46,68,8
3,58,68,0
3,62,68,232
3,65,68,8
3,70,68,0
3,70,68,204
3,62,68,0
3,65,68,0
3,65,68,308
3,70,68,0
3,62,68,0
3,63,68,272
3,65,68,0
3,69,68,0
3,65,68,56
3,62,68,0
3,70,68,16
3,67,68,4
3,60,68,0
3,63,68,0
3,58,68,92
3,58,68,84
3,62,68,12
3,65,68,0
3,65,68,124
3,60,68,0
3,57,68,0
3,58,68,116
3,62,68,0
3,58,68,200
3,62,68,8
3,67,68,0
3,67,68,104
3,59,68,0
3,65,68,16
3,62,68,0
3,65,68,124
3,67,68,0
3,60,68,12
3,63,68,372
3,60,68,104
3,65,68,0
3,69,68,0
3,65,68,72
3,62,68,0
3,70,68,12
3,70,68,48
3,62,68,12
3,67,68,0
3,67,68,100
3,65,68,0
3,62,68,0
3,60,68,124
3,65,68,0
3,67,68,0
3,63,68,380
3,62,68,44
3,65,68,0
3,65,68,68
3,63,68,8
3,69,68,0
3,58,68,144
3,62,68,0
3,65,68,4
3,62,68,152
3,65,68,0
3,70,68,0
3,65,68,88
3,63,68,0
3,69,68,0
3,70,68,128
3,62,68,0
3,65,68,0
3,63,68,32
3,60,68,0
3,67,68,0
3,63,68,136
3,67,68,0
3,70,68,12
3,70,68,128
3,62,68,12
3,65,68,0
3,69,68,156
3,65,68,0
3,63,68,0
3,70,68,208
3,65,68,0
3,62,68,4
3,58,68,3020
3,46,68,8
3,41,68,4
3,53,68,0
3,46,68,6112
3,58,68,8
3,53,68,4
3,41,68,12
3,46,68,6116
3,58,68,0
3,47,68,36
3,59,68,12
3,56,68,728
3,44,68,0
3,39,68,788
3,51,68,0
4,67,99,0
4,67,99,36
4,67,117,108
4,69,113,36
4,71,113,88
4,71,97,72
4,72,99,12
4,74,113,20
4,67,89,0
4,77,92,4
4,75,94,68
4,74,97,76
4,75,98,64
4,72,119,152
4,72,119,128
4,70,119,128
4,70,119,112
4,69,119,24
4,69,117,100
4,67,97,4
4,65,109,80
4,67,85,8
4,69,109,116
4,70,102,32
4,72,117,48
4,65,101,8
4,70,102,48
4,70,87,652
4,70,105,100
4,65,104,16
4,65,113,116
4,62,99,4
4,67,109,24
4,67,99,116
4,69,101,32
4,71,113,28
4,71,99,96
4,72,106,16
4,74,117,28
4,71,89,100
4,77,109,16
4,75,93,4
4,74,94,8
4,75,105,52
4,67,77,40
4,75,95,12
4,74,97,4
4,72,92,4
4,70,105,128
4,67,106,4
4,70,98,92
4,70,90,20
4,65,97,12
4,65,119,136
4,65,119,48
4,65,119,44
4,65,104,56
4,65,117,44
4,65,104,64
4,65,106,84
4,65,117,48
4,58,113,60
4,58,117,112
4,58,109,48
4,58,113,68
4,62,101,53124
4,62,99,40
4,65,119,32
4,62,113,16
4,65,119,36
4,70,109,40
4,70,119,88
4,72,99,16
4,73,117,48
4,72,106,124
4,70,119,52
4,75,117,16
4,70,119,12
4,70,119,60
4,75,113,40
4,78,113,40
4,77,117,44
4,75,109,68
4,75,117,52
4,77,109,12
4,79,96,4
5,74,98,0
5,70,98,0
5,70,98,320
5,74,98,0
5,72,98,44
5,69,98,4
5,70,98,44
5,74,98,0
5,70,98,144
5,74,98,0
5,72,98,16
5,69,98,4
5,74,98,8
5,70,98,0
5,75,98,28
5,72,98,0
5,75,98,40
5,72,98,0
5,74,98,36
5,77,98,0
5,77,98,32
5,74,98,0
5,75,98,8
5,72,98,0
5,75,98,48
5,72,98,0
5,74,98,12
5,70,98,0
5,69,98,16
5,72,98,0
5,75,98,344
5,72,98,0
5,75,98,124
5,72,98,0
5,74,98,4
5,70,98,0
5,72,98,8
5,75,98,0
5,75,98,176
5,72,98,0
5,74,98,12
5,70,98,4
5,72,98,12
5,75,98,0
5,74,98,12
5,77,98,0
5,74,98,76
5,77,98,0
5,79,98,60
5,75,98,0
5,79,98,32
5,75,98,0
5,74,98,8
5,77,98,0
5,77,98,48
5,74,98,0
5,72,98,4
5,75,98,0
5,74,98,16
5,70,98,0
5,74,98,77504
5,70,98,0
5,70,98,176
5,74,98,0
5,69,98,8
5,72,98,0
5,74,98,20
5,70,98,0
5,74,98,92
5,70,98,4
5,72,98,4
5,69,98,0
5,70,98,24
5,74,98,0
5,75,98,52
5,72,98,0
5,75,98,48
5,72,98,0
5,74,98,28
5,77,98,0
5,77,98,36
5,74,98,0
5,72,98,16
5,75,98,4
5,75,98,64
5,72,98,0
5,74,98,12
5,70,98,0
5,72,98,12
5,69,98,0
5,72,98,320
5,75,98,0
5,75,98,124
5,72,98,0
5,74,98,4
5,70,98,0
5,72,98,20
5,75,98,0
5,72,98,76
5,75,98,0
5,74,98,0
5,70,98,0
5,75,98,20
5,72,98,0
5,74,98,16
5,77,98,0
5,77,98,52
5,74,98,0
5,79,98,44
5,75,98,0
5,79,98,24
5,75,98,0
5,77,98,16
5,74,98,0
5,74,98,52
5,77,98,0
5,72,98,16
5,75,98,0
5,74,98,16
5,70,98,0
5,70,98,348
5,74,98,0
5,70,98,100
5,74,98,0
5,69,98,96
5,72,98,0
5,70,98,0
5,74,98,0
5,74,98,64
5,70,98,0
5,72,98,0
5,69,98,0
5,70,98,28
5,74,98,0
5,72,98,20
5,75,98,0
5,75,98,52
5,72,98,0
5,74,98,48
5,77,98,0
5,74,98,32
5,77,98,0
5,75,98,12
5,72,98,0
5,72,98,40
5,75,98,0
5,74,98,192
5,70,98,0
5,72,98,12
5,69,98,0
5,75,98,360
5,72,98,0
5,75,98,92
5,72,98,0
5,70,98,12
5,74,98,4
5,75,98,16
5,72,98,0
5,75,98,92
5,72,98,0
5,70,98,0
5,74,98,0
5,75,98,24
5,72,98,0
5,74,98,4
5,77,98,4
5,77,98,68
5,74,98,0
5,75,98,56
5,79,98,0
5,79,98,20
5,75,98,0
5,77,98,16
5,74,98,0
5,74,98,52
5,77,98,0
5,72,98,24
5,75,98,0
5,70,98,24
5,74,98,0
5,39,98,4764
6,74,75,0
6,74,78,124
6,72,65,8
6,74,58,288
6,74,73,196
6,72,70,12
6,74,63,288
6,75,70,180
6,75,76,56
6,77,63,12
6,77,71,44
6,75,74,288
6,75,76,60
6,74,65,8
6,75,67,188
6,75,60,724
6,75,83,124
6,74,70,0
6,75,74,32
6,75,83,176
6,74,66,96
6,75,76,16
6,77,63,188
6,77,70,60
6,79,63,196
6,79,73,44
6,77,70,8
6,77,75,56
6,75,70,16
6,74,70,196
6,62,62,25100
6,55,73,0
6,55,31,60
6,55,78,72
6,57,73,36
6,59,75,68
6,59,75,64
6,60,80,96
6,62,91,4
6,55,87,380
6,60,54,0
6,67,59,0
6,60,63,88
6,67,71,0
6,60,64,124
6,67,71,0
6,53,71,20
6,60,71,0
6,53,80,100
6,55,108,80
6,57,115,88
6,57,75,64
6,58,97,92
6,60,101,88
6,53,68,376
6,58,83,12
6,65,80,0
6,58,104,80
6,65,83,0
6,65,83,100
6,58,104,0
6,55,73,0
6,62,75,0
6,55,80,92
6,57,78,60
6,59,91,76
6,59,60,68
6,60,70,96
6,62,87,84
6,55,78,376
6,67,83,36
6,60,83,0
6,60,57,92
6,67,63,0
6,60,63,88
6,67,62,0
6,65,62,36
6,58,104,0
6,58,104,80
6,65,73,0
6,60,75,8
6,53,64,0
6,60,87,80
6,53,83,0
6,65,73,24
6,58,83,0
6,77,83,5028
6,79,87,96
6,81,83,284
6,82,104,360
6,84,75,0
6,70,83,3928
6,72,65,92
6,74,66,84
6,79,64,464
6,77,66,280
6,74,62,88
6,70,74,76
6,70,72,4528
6,72,63,96
6,75,63,88
6,72,58,92
6,75,70,72
6,72,60,1224
6,70,57,88
6,67,51,0
6,70,72,0
6,67,68,0
6,65,65,288
6,60,61,0
6,53,57,0
6,60,65,80
6,53,66,4
6,58,69,16
6,65,61,0
6,74,66,3176
6,74,80,152
6,72,71,4
6,74,61,288
6,74,61,4
6,74,73,1148
6,72,58,24
6,74,65,288
6,75,67,176
6,75,76,76
6,77,62,24
6,77,73,24
6,75,74,4
6,75,72,56
6,74,66,16
6,75,69,196
6,75,76,356
6,75,74,132
6,74,61,96
6,75,66,4
6,75,74,104
6,74,61,0
6,75,72,288
6,77,65,192
6,77,70,60
6,79,57,4
6,79,61,32
6,77,63,8
6,77,70,68
6,75,69,0
6,74,66,8
6,74,75,204
6,74,68,120
