track,note,velocity,time
1,36,99,0
1,43,73,224
1,36,60,80
1,41,92,16
1,41,67,176
1,42,60,80
1,43,84,0
1,38,80,0
1,31,90,0
1,36,99,16
1,31,64,416
1,36,91,96
1,29,99,1152
1,36,64,1056
1,36,99,96
1,36,99,2208
1,31,64,416
1,36,99,0
1,31,99,1152
1,38,64,1056
1,31,99,16
1,31,99,1056
1,36,99,0
1,31,64,1072
1,36,99,0
1,29,99,1168
1,24,91,1056
1,36,91,0
1,36,99,1152
1,36,99,416
1,31,99,0
1,36,99,1152
1,40,64,0
1,41,64,0
1,42,64,0
1,43,103,0
1,31,90,928
1,36,99,0
1,36,99,0
1,31,64,2206
1,36,99,0
1,36,99,1056
1,29,99,64
1,31,64,1072
1,36,99,16
1,30,99,768
1,36,99,0
1,31,64,416
1,36,99,0
1,31,99,1152
1,38,99,0
1,31,99,16
1,36,99,1152
1,31,64,1056
1,36,99,0
1,29,99,1152
1,29,64,1056
1,36,99,0
1,36,99,1152
1,36,64,416
1,31,99,0
1,29,99,1152
1,29,64,1056
1,36,99,0
1,36,103,0
1,36,90,928
1,31,69,400
1,33,52,0
1,36,99,16
1,31,65,768
1,29,99,32
1,36,69,736
1,38,52,0
1,36,99,0
1,31,65,768
1,36,90,32
1,31,69,400
1,33,52,0
1,36,99,16
1,31,65,768
1,31,99,32
1,38,69,768
1,35,99,0
1,31,99,32
1,38,65,784
1,36,99,32
1,36,90,0
1,31,69,1918
1,33,52,0
1,36,99,0
1,31,65,768
1,29,99,32
1,36,69,736
1,38,52,0
1,36,99,0
1,31,65,768
1,36,90,32
1,34,90,0
1,33,90,0
1,32,90,0
1,31,99,0
1,38,65,784
1,36,99,32
1,31,69,768
1,33,52,0
1,29,99,0
1,36,65,768
1,36,99,32
1,31,69,768
1,33,52,0
1,31,99,0
1,38,65,784
1,36,99,32
1,36,98,0
1,31,69,1054
1,36,95,96
1,43,73,16
1,36,60,80
1,41,92,16
1,41,67,176
1,42,60,80
1,43,84,0
1,38,80,384
1,31,90,16
1,36,91,16
2,64,74,0
2,67,74,0
2,60,74,0
2,63,74,2304
2,67,74,0
2,70,74,0
2,60,74,0
2,69,74,0
2,65,74,0
2,64,74,0
2,67,74,0
2,60,74,0
2,64,74,2304
2,67,74,0
2,58,74,0
2,65,74,0
2,69,74,0
2,60,74,0
2,65,74,0
2,69,74,0
2,60,74,0
2,64,74,2288
2,67,74,0
2,60,74,0
2,64,74,16
2,67,74,0
2,60,74,0
2,64,74,0
2,67,74,0
2,58,74,0
2,64,74,32
2,67,74,0
2,58,74,0
2,62,74,2208
2,67,74,0
2,59,74,0
2,62,74,0
2,66,74,0
2,59,74,0
2,62,74,48
2,65,74,0
2,59,74,0
2,62,74,2304
2,65,74,0
2,59,74,0
2,64,74,0
2,67,74,0
2,60,74,0
2,64,74,0
2,67,74,0
2,58,74,0
2,63,74,2304
2,69,74,0
2,60,74,0
2,64,74,2288
2,67,74,0
2,60,74,0
2,64,74,0
2,67,74,0
2,60,74,0
2,62,74,2304
2,67,74,0
2,59,74,0
2,65,74,48
2,64,74,0
2,67,74,0
2,60,74,0
2,62,74,32
2,65,74,0
2,59,74,0
2,59,74,0
2,65,74,0
2,62,74,0
2,65,74,1120
2,62,74,0
2,59,74,0
2,64,74,0
2,67,74,0
2,60,74,0
2,64,74,2304
2,67,74,0
2,58,74,0
2,64,74,0
2,67,74,0
2,58,74,0
2,63,74,0
2,69,74,0
2,60,74,0
2,64,74,80
2,67,74,0
2,60,74,0
2,64,74,2304
2,67,74,0
2,60,74,0
2,64,74,0
2,67,74,0
2,58,74,0
2,62,74,2208
2,67,74,0
2,59,74,0
2,62,74,48
2,67,74,0
2,59,74,0
2,66,74,1152
2,69,74,0
2,62,74,0
2,62,74,0
2,67,74,0
2,59,74,0
2,64,74,16
2,67,74,0
2,60,74,0
2,64,74,0
2,67,74,0
2,58,74,0
2,65,74,16
2,69,74,0
2,60,74,0
2,64,74,0
2,67,74,0
2,60,74,0
2,64,74,16
2,67,74,0
2,60,74,0
2,62,74,0
2,67,74,0
2,59,74,0
2,65,74,48
2,69,74,0
2,60,74,0
2,65,74,0
2,69,74,0
2,60,74,0
2,65,74,1120
2,68,74,0
2,60,74,0
2,64,74,0
2,67,74,0
2,60,74,0
2,60,74,16
2,67,74,0
2,64,74,0
2,67,74,1008
2,64,74,0
2,60,74,0
2,67,74,32
2,64,74,0
2,58,74,0
2,67,74,0
2,64,74,0
2,58,74,0
2,65,74,2272
2,65,74,0
2,60,74,0
2,69,74,0
2,65,74,0
2,60,74,0
2,67,74,16
2,64,74,0
2,60,74,0
2,67,74,0
2,64,74,0
2,60,74,0
2,67,74,48
2,64,74,0
2,58,74,0
2,67,74,0
2,64,74,0
2,58,74,0
2,67,74,2272
2,62,74,0
2,59,74,0
2,66,74,0
2,66,74,0
2,59,74,0
2,62,74,0
2,65,74,32
2,62,74,0
2,59,74,0
2,65,74,0
2,62,74,0
2,59,74,0
2,67,74,2288
2,64,74,0
2,60,74,0
2,67,74,16
2,64,74,0
2,58,74,0
2,65,74,16
2,65,74,0
2,60,74,0
2,69,74,0
2,65,74,0
2,60,74,0
2,67,74,16
2,64,74,0
2,60,74,0
2,67,74,0
2,64,74,0
2,60,74,0
2,67,74,0
2,64,74,0
2,60,74,0
2,65,74,0
2,62,74,0
2,59,74,0
2,67,74,48
2,64,74,0
2,60,74,0
2,69,74,16
2,65,74,0
2,60,74,0
2,67,74,0
2,64,74,0
2,60,74,0
2,65,74,32
2,62,74,0
2,59,74,0
2,65,74,0
2,62,74,0
2,59,74,0
2,60,74,2288
2,64,74,0
2,67,74,0
2,59,74,1136
2,64,74,0
2,67,74,0
2,63,74,0
2,67,74,0
2,70,74,0
2,69,74,0
2,60,74,0
2,65,74,0
2,60,74,0
2,67,74,0
2,64,74,0
3,60,59,1152
3,64,63,0
3,59,51,0
3,70,49,1760
3,67,49,0
3,63,49,0
3,60,56,304
3,65,56,0
3,69,56,0
3,60,52,464
3,65,58,0
3,69,57,0
3,60,59,1456
3,64,63,0
3,67,70,0
3,58,59,2144
3,64,63,0
3,67,70,0
3,60,59,2144
3,65,63,0
3,69,70,0
3,60,59,2144
3,64,63,0
3,67,70,0
3,60,59,2144
3,64,63,0
3,67,70,0
3,58,59,2144
3,64,63,0
3,67,70,0
3,59,59,2144
3,62,63,0
3,66,70,0
3,59,59,2144
3,62,63,0
3,65,70,0
3,60,59,2144
3,64,63,0
3,67,70,0
3,58,59,2144
3,64,63,0
3,67,70,0
3,60,59,2144
3,63,63,0
3,69,70,0
3,60,59,2144
3,64,63,0
3,67,70,0
3,60,59,2144
3,64,63,0
3,67,70,0
3,59,59,2144
3,62,63,0
3,65,70,0
3,60,59,2144
3,64,63,0
3,67,70,0
3,59,59,992
3,62,63,0
3,65,70,0
3,65,49,2064
3,62,49,0
3,59,49,0
3,60,59,1120
3,64,63,0
3,67,70,0
3,58,59,2144
3,64,63,0
3,67,70,0
3,60,59,2144
3,63,63,0
3,69,70,0
3,60,59,2144
3,64,63,0
3,67,70,0
3,60,59,2144
3,64,63,0
3,67,70,0
3,58,59,2144
3,64,63,0
3,67,70,0
3,59,59,2144
3,66,63,0
3,69,70,0
3,59,59,2272
3,62,63,0
3,67,70,0
3,60,59,2144
3,64,63,0
3,67,70,0
3,58,59,2144
3,64,63,0
3,67,70,0
3,60,59,2144
3,65,63,0
3,69,70,0
3,60,59,2144
3,64,63,0
3,67,70,0
3,60,59,2144
3,64,63,0
3,67,70,0
3,59,59,2144
3,62,63,0
3,67,70,0
3,60,59,2144
3,65,63,0
3,68,70,0
3,60,59,2144
3,64,63,0
3,67,70,0
3,67,49,2064
3,64,49,0
3,60,49,0
3,60,49,96
3,64,60,0
3,67,55,0
3,67,49,2112
3,64,49,0
3,58,49,0
3,58,49,96
3,64,60,0
3,67,55,0
3,69,49,2112
3,65,49,0
3,60,49,0
3,60,49,96
3,65,60,0
3,69,55,0
3,67,49,2112
3,64,49,0
3,60,49,0
3,60,49,96
3,64,60,0
3,67,55,0
3,67,49,2112
3,64,49,0
3,60,49,0
3,60,49,96
3,64,60,0
3,67,55,0
3,67,49,2112
3,64,49,0
3,58,49,0
3,58,49,96
3,64,60,0
3,67,55,0
3,67,49,2112
3,62,49,0
3,59,49,0
3,59,49,96
3,62,60,0
3,67,55,0
3,65,49,2112
3,62,49,0
3,59,49,0
3,59,49,96
3,62,60,0
3,65,55,0
3,67,49,2112
3,64,49,0
3,60,49,0
3,60,49,96
3,64,60,0
3,67,55,0
3,67,49,2112
3,64,49,0
3,58,49,0
3,58,49,96
3,64,60,0
3,67,55,0
3,69,49,2112
3,65,49,0
3,60,49,0
3,60,49,96
3,65,60,0
3,69,55,0
3,67,49,2112
3,64,49,0
3,60,49,0
3,60,49,96
3,64,60,0
3,67,55,0
3,67,49,2112
3,64,49,0
3,60,49,0
3,60,49,96
3,64,60,0
3,67,55,0
3,65,49,2112
3,62,49,0
3,59,49,0
3,59,49,96
3,62,60,0
3,65,55,0
3,67,49,2112
3,64,49,0
3,60,49,0
3,60,49,96
3,64,60,0
3,67,55,0
3,69,49,2112
3,65,49,0
3,60,49,0
3,60,49,96
3,65,60,0
3,69,55,0
3,67,49,2112
3,64,49,0
3,60,49,0
3,60,49,96
3,64,60,0
3,67,55,0
3,65,49,2112
3,62,49,0
3,59,49,0
3,59,49,96
3,62,60,0
3,65,55,0
3,60,49,2112
3,64,49,0
3,67,49,0
3,67,59,96
3,64,52,0
3,59,51,0
3,70,49,1824
3,67,49,0
3,63,49,0
3,60,56,304
3,65,56,0
3,69,56,0
4,72,47,0
4,64,50,0
4,55,29,0
4,58,29,0
4,63,29,0
4,53,29,0
4,60,29,0
4,57,29,0
4,72,47,0
4,64,50,0
4,70,47,0
4,64,50,0
4,65,47,48
4,69,50,0
4,64,50,16
4,72,47,0
4,72,47,16
4,64,50,0
4,64,50,16
4,70,47,0
4,67,47,80
4,71,50,0
4,66,47,0
4,71,50,0
4,65,47,1056
4,71,50,0
4,65,47,64
4,71,50,0
4,64,50,0
4,72,47,0
4,70,47,64
4,64,50,0
4,63,47,2304
4,69,50,0
4,72,47,0
4,64,50,0
4,72,47,32
4,64,50,0
4,67,47,0
4,71,50,0
4,65,47,48
4,72,47,32
4,64,50,0
4,65,47,32
4,71,50,0
4,62,80,0
4,67,88,0
4,65,29,16
4,71,29,0
4,62,29,0
4,64,50,0
4,72,47,0
4,64,47,0
4,67,50,0
4,70,47,48
4,64,50,0
4,70,47,2208
4,64,50,0
4,69,50,0
4,63,47,0
4,72,47,64
4,64,50,0
4,72,47,2304
4,64,50,0
4,70,47,0
4,64,50,0
4,67,47,2208
4,71,50,0
4,67,47,48
4,71,50,0
4,62,47,1152
4,66,50,0
4,67,47,32
4,71,50,0
4,72,47,16
4,64,50,0
4,64,47,16
4,67,50,0
4,70,47,32
4,64,50,0
4,65,47,2208
4,69,50,0
4,72,47,16
4,64,50,0
4,72,47,16
4,64,50,0
4,67,47,16
4,71,50,0
4,65,47,32
4,69,50,0
4,65,47,0
4,69,50,0
4,65,47,1136
4,68,50,0
4,72,47,0
4,64,50,0
4,67,80,0
4,72,88,0
4,72,29,16
4,64,29,0
4,67,29,0
4,70,29,2208
4,64,29,0
4,67,29,0
4,65,29,80
4,72,29,0
4,72,29,0
4,65,29,0
4,69,29,0
4,72,29,0
4,72,29,0
4,64,29,0
4,67,29,0
4,72,29,16
4,64,29,0
4,67,29,0
4,70,29,2208
4,64,29,0
4,67,29,0
4,67,29,48
4,71,29,0
4,62,29,0
4,71,29,16
4,66,29,0
4,66,29,0
4,62,29,0
4,65,29,64
4,71,29,0
4,62,29,0
4,72,29,2304
4,64,29,0
4,67,29,0
4,70,29,0
4,64,29,0
4,67,29,0
4,65,29,48
4,72,29,0
4,72,29,0
4,65,29,0
4,69,29,0
4,72,29,0
4,72,29,0
4,64,29,0
4,67,29,0
4,72,29,16
4,64,29,0
4,67,29,0
4,65,29,2304
4,71,29,0
4,62,29,0
4,72,29,32
4,64,29,0
4,67,29,0
4,65,29,0
4,69,29,0
4,72,29,0
4,72,29,16
4,64,29,0
4,67,29,0
4,65,29,48
4,71,29,0
4,62,29,0
4,60,29,2304
4,64,29,0
4,67,29,0
4,59,29,1120
4,64,29,0
4,67,29,0
4,55,29,0
4,58,29,0
4,63,29,0
4,53,29,0
4,60,29,0
4,57,29,0
4,55,29,0
4,64,29,0
4,60,29,0
5,48,42,384
5,48,49,48
5,48,86,416
5,48,86,48
5,48,84,1184
5,48,92,64
5,48,86,1088
5,48,42,800
5,48,49,48
5,48,43,1856
5,48,42,80
5,48,49,48
5,48,58,1168
5,48,53,48
5,53,42,416
5,53,49,48
5,48,43,1856
5,48,42,80
5,48,49,48
5,48,58,1168
5,48,53,48
5,48,42,416
5,48,49,48
5,48,43,1856
5,48,42,80
5,48,49,48
5,48,58,1168
5,48,53,48
5,55,42,416
5,55,49,48
5,55,43,1856
5,55,42,80
5,55,49,48
5,55,58,1168
5,55,53,48
5,48,42,416
5,48,49,48
5,48,43,1856
5,48,42,80
5,48,49,48
5,48,58,1168
5,48,53,48
5,53,42,416
5,53,49,48
5,48,43,1856
5,48,42,80
5,48,49,48
5,48,58,1168
5,48,53,48
5,48,42,416
5,48,49,48
5,55,43,1856
5,55,42,80
5,55,49,48
5,55,58,1168
5,55,53,48
5,48,42,416
5,48,49,48
5,55,51,3104
5,55,59,80
5,48,42,816
5,48,49,48
5,48,43,1856
5,48,42,80
5,48,49,48
5,48,58,1168
5,48,53,48
5,53,42,416
5,53,49,48
5,48,43,1856
5,48,42,80
5,48,49,48
5,48,58,1168
5,48,53,48
5,48,42,416
5,48,49,48
5,48,43,1856
5,48,42,80
5,48,49,48
5,48,58,1168
5,48,53,48
5,55,42,416
5,55,49,48
5,55,43,1856
5,55,42,80
5,55,49,48
5,55,58,1168
5,55,53,48
5,48,42,416
5,48,49,48
5,48,43,1856
5,48,42,80
5,48,49,48
5,48,58,1168
5,48,53,48
5,53,42,416
5,53,49,48
5,48,43,1856
5,48,42,80
5,48,49,48
5,48,58,1168
5,48,53,48
5,48,42,416
5,48,49,48
5,55,43,1856
5,55,42,80
5,55,49,48
5,55,58,1168
5,55,53,48
5,53,42,416
5,53,49,48
5,48,43,1856
5,48,42,80
5,48,49,48
5,48,51,1936
5,48,59,80
5,48,43,1200
5,48,53,96
5,48,35,416
5,48,58,64
5,48,48,1200
5,48,53,80
5,53,51,432
5,53,59,80
5,53,43,1200
5,53,53,96
5,48,35,416
5,48,58,64
5,48,48,1200
5,48,53,80
5,48,51,432
5,48,59,80
5,48,43,1200
5,48,53,96
5,48,35,416
5,48,58,64
5,48,48,1200
5,48,53,80
5,55,51,432
5,55,59,80
5,55,43,1200
5,47,53,96
5,55,35,416
5,55,58,64
5,55,48,1200
5,55,53,80
5,48,51,432
5,48,59,80
5,48,43,1200
5,48,53,96
5,48,35,416
5,48,58,64
5,48,48,1200
5,48,53,80
5,53,51,432
5,53,59,80
5,53,43,1200
5,53,53,96
5,48,35,416
5,48,58,64
5,48,48,1200
5,48,53,80
5,48,51,432
5,48,59,80
5,48,43,1200
5,48,53,96
5,55,35,416
5,55,58,64
5,55,48,1200
5,55,53,80
5,48,51,432
5,48,59,80
5,48,43,1200
5,48,53,96
5,53,35,416
5,53,58,64
5,53,48,1200
5,53,53,80
5,48,51,432
5,48,59,80
5,48,43,1200
5,48,53,96
5,55,35,416
5,55,58,64
5,55,48,1200
5,55,53,80
5,43,60,1008
5,45,61,96
5,48,86,16
5,48,86,48
5,48,84,1184
5,48,92,64
5,48,86,1088
6,79,52,1536
6,84,48,0
6,91,52,0
6,79,52,117200
6,84,48,16
6,91,57,32
6,86,46,1536
6,79,48,32
6,84,52,384
7,72,127,0
7,72,67,2560
7,72,127,128
7,72,35,64
7,76,110,48
7,74,30,96
7,72,47,16
7,76,110,48
7,76,85,80
7,74,100,0
7,76,54,0
7,74,64,96
7,72,100,80
7,64,14,1776
7,69,92,0
7,67,56,176
7,67,77,96
7,67,92,144
7,72,106,0
7,71,44,288
7,72,62,16
7,76,127,32
7,74,62,96
7,72,72,64
7,76,85,32
7,78,24,1824
7,79,60,96
7,78,42,0
7,79,82,16
