track,note,velocity,time
1,75,104,284
1,78,102,0
1,80,100,1
1,83,105,0
1,71,111,0
1,78,0,29
1,75,0,0
1,83,0,1
1,80,0,0
1,71,0,0
1,68,104,18
1,73,96,0
1,80,104,0
1,77,111,0
1,77,0,30
1,68,0,0
1,73,0,0
1,80,0,0
1,68,102,18
1,75,102,0
1,78,102,0
1,66,102,0
1,71,102,0
1,71,0,30
1,78,0,0
1,68,0,0
1,75,0,0
1,66,0,0
1,68,96,18
1,77,111,0
1,73,100,0
1,70,103,0
1,65,97,0
1,65,0,30
1,73,0,0
1,68,0,0
1,77,0,0
1,70,0,0
1,66,98,18
1,63,100,1
1,75,100,0
1,71,103,0
1,68,102,0
1,66,0,29
1,71,0,1
1,63,0,0
1,75,0,0
1,68,0,0
1,65,85,17
1,70,100,0
1,68,102,0
1,73,87,0
1,61,102,1
1,73,0,29
1,68,0,0
1,65,0,0
1,70,0,0
1,61,0,1
1,68,104,17
1,71,100,0
1,63,115,1
1,59,79,0
1,66,79,0
1,71,0,29
1,68,0,0
1,59,0,1
1,63,0,0
1,66,0,0
1,70,96,17
1,73,92,0
1,68,100,0
1,61,96,1
1,65,85,0
1,68,0,29
1,70,0,0
1,73,0,0
1,61,0,1
1,65,0,0
1,63,70,16
1,54,86,0
1,60,81,0
1,63,0,20
1,60,0,1
1,54,0,0
1,63,72,26
1,54,63,0
1,60,78,0
1,60,0,20
1,54,0,0
1,63,0,2
1,60,91,27
1,54,89,0
1,63,83,0
1,63,0,20
1,54,0,0
1,60,0,0
1,54,72,27
1,60,82,2
1,63,72,0
1,63,0,22
1,60,0,0
1,54,0,2
1,63,66,24
1,60,72,0
1,54,65,0
1,60,0,16
1,63,0,2
1,54,0,2
1,60,70,28
1,63,63,0
1,54,72,0
1,60,0,18
1,63,0,2
1,54,0,2
1,60,91,26
1,54,90,0
1,63,83,0
1,63,0,22
1,60,0,0
1,54,0,1
1,54,65,24
1,60,76,1
1,63,62,0
1,63,0,15
1,54,0,5
1,60,0,1
1,54,71,27
1,63,71,0
1,60,78,0
1,60,0,15
1,54,0,2
1,63,0,4
1,54,65,27
1,63,66,0
1,60,67,0
1,60,0,14
1,54,0,1
1,63,0,3
1,54,94,29
1,63,89,0
1,60,89,1
1,60,0,17
1,63,0,3
1,54,0,0
1,63,68,26
1,54,73,0
1,60,69,0
1,60,0,8
1,54,0,4
1,63,0,1
1,56,87,36
1,62,87,0
1,65,87,0
1,65,0,23
1,62,0,0
1,56,0,0
1,56,104,24
1,65,92,0
1,62,105,1
1,62,0,47
1,65,0,0
1,56,0,0
1,65,87,1
1,55,87,0
1,61,87,0
1,61,0,13
1,55,0,0
1,65,0,0
1,55,107,36
1,61,106,0
1,65,103,0
1,61,0,47
1,63,70,0
1,60,81,0
1,54,86,0
1,55,0,1
1,65,0,5
1,63,0,14
1,60,0,1
1,54,0,0
1,63,72,26
1,60,78,0
1,54,63,0
1,54,0,20
1,60,0,0
1,63,0,2
1,60,91,27
1,63,83,0
1,54,89,0
1,54,0,20
1,63,0,0
1,60,0,0
1,54,72,27
1,60,82,2
1,63,72,0
1,63,0,22
1,60,0,0
1,54,0,2
1,54,65,24
1,63,66,0
1,60,72,0
1,60,0,16
1,63,0,2
1,54,0,2
1,60,70,28
1,63,63,0
1,54,72,0
1,60,0,18
1,63,0,2
1,54,0,2
1,60,91,26
1,63,83,0
1,54,90,0
1,63,0,22
1,60,0,0
1,54,0,1
1,54,65,24
1,63,62,1
1,60,76,0
1,63,0,15
1,54,0,5
1,60,0,1
1,54,71,27
1,60,78,0
1,63,71,0
1,60,0,15
1,54,0,2
1,63,0,4
1,54,65,27
1,63,66,0
1,60,67,0
1,60,0,14
1,54,0,1
1,63,0,3
1,63,89,29
1,54,94,0
1,60,89,1
1,60,0,17
1,54,0,3
1,63,0,0
1,54,73,26
1,60,69,0
1,63,68,0
1,60,0,8
1,54,0,4
1,63,0,1
1,65,68,36
1,62,68,0
1,56,68,0
1,56,0,13
1,62,0,0
1,65,0,0
1,65,92,34
1,56,104,0
1,62,105,1
1,62,0,47
1,56,0,0
1,65,0,0
1,61,68,1
1,55,68,0
1,65,68,0
1,65,0,13
1,55,0,0
1,61,0,0
1,55,107,36
1,61,106,0
1,65,103,0
1,61,0,47
1,54,86,0
1,60,81,0
1,63,70,0
1,55,0,1
1,65,0,5
1,63,0,14
1,54,0,1
1,60,0,0
1,60,78,26
1,63,72,0
1,54,63,0
1,54,0,20
1,60,0,0
1,63,0,2
1,54,89,27
1,60,91,0
1,63,83,0
1,63,0,20
1,60,0,0
1,54,0,0
1,54,72,27
1,60,82,2
1,63,72,0
1,63,0,22
1,60,0,0
1,54,0,2
1,63,66,24
1,60,72,0
1,54,65,0
1,60,0,16
1,63,0,2
1,54,0,2
1,63,63,28
1,60,70,0
1,54,72,0
1,60,0,18
1,63,0,2
1,54,0,2
1,60,91,26
1,63,83,0
1,54,90,0
1,63,0,22
1,60,0,0
1,54,0,1
1,54,65,24
1,60,76,1
1,63,62,0
1,63,0,15
1,54,0,5
1,60,0,1
1,54,71,27
1,63,71,0
1,60,78,0
1,60,0,15
1,54,0,2
1,63,0,4
1,54,65,27
1,63,66,0
1,60,67,0
1,60,0,14
1,54,0,1
1,63,0,3
1,54,94,29
1,63,89,0
1,60,89,1
1,60,0,17
1,63,0,3
1,54,0,0
1,63,68,26
1,54,73,0
1,60,69,0
1,60,0,8
1,54,0,4
1,63,0,1
1,62,68,36
1,65,68,0
1,56,68,0
1,56,0,13
1,65,0,0
1,62,0,0
1,65,92,34
1,56,104,0
1,62,105,1
1,62,0,47
1,56,0,0
1,65,0,0
1,55,68,1
1,65,68,0
1,61,68,0
1,61,0,13
1,65,0,0
1,55,0,0
1,61,106,36
1,55,107,0
1,65,103,0
1,61,0,47
1,60,81,0
1,63,70,0
1,54,86,0
1,55,0,1
1,65,0,5
1,63,0,14
1,60,0,1
1,54,0,0
1,60,78,26
1,63,72,0
1,54,63,0
1,54,0,20
1,60,0,0
1,63,0,2
1,60,91,27
1,54,89,0
1,63,83,0
1,63,0,20
1,54,0,0
1,60,0,0
1,54,72,27
1,63,72,2
1,60,82,0
1,60,0,22
1,63,0,0
1,54,0,2
1,60,72,24
1,63,66,0
1,54,65,0
1,60,0,16
1,63,0,2
1,54,0,2
1,54,72,28
1,60,70,0
1,63,63,0
1,60,0,18
1,63,0,2
1,54,0,2
1,60,91,26
1,63,83,0
1,54,90,0
1,63,0,22
1,60,0,0
1,54,0,1
1,54,65,24
1,60,76,1
1,63,62,0
1,63,0,15
1,54,0,5
1,60,0,1
1,60,78,27
1,54,71,0
1,63,71,0
1,60,0,15
1,54,0,2
1,63,0,4
1,54,65,27
1,60,67,0
1,63,66,0
1,60,0,14
1,54,0,1
1,63,0,3
1,63,89,29
1,54,94,0
1,60,89,1
1,60,0,17
1,54,0,3
1,63,0,0
1,60,69,26
1,63,68,0
1,54,73,0
1,60,0,8
1,54,0,4
1,63,0,1
1,51,60,35
1,60,69,0
1,56,66,0
1,51,0,35
1,56,0,2
1,60,0,3
1,51,75,8
1,60,85,0
1,56,84,0
1,56,0,22
1,60,0,6
1,51,0,7
1,61,90,13
1,58,102,0
1,52,78,0
1,58,0,39
1,61,0,1
1,52,0,6
1,62,97,2
1,59,95,0
1,53,85,1
1,59,0,38
1,62,0,2
1,53,0,2
1,60,89,7
1,56,100,0
1,66,96,0
1,63,86,0
1,63,0,17
1,60,0,0
1,56,0,0
1,66,0,1
1,66,94,30
1,60,95,0
1,63,82,0
1,56,100,0
1,63,0,14
1,60,0,4
1,56,0,1
1,66,0,1
1,60,85,26
1,63,72,0
1,54,72,0
1,54,0,21
1,63,0,0
1,60,0,0
1,75,98,9
1,80,96,0
1,78,94,0
1,71,92,0
1,54,62,18
1,63,69,0
1,60,79,1
1,60,0,22
1,54,0,0
1,63,0,1
1,78,0,4
1,75,0,0
1,80,0,3
1,71,0,1
1,53,83,16
1,71,99,0
1,77,103,0
1,63,75,0
1,59,80,0
1,80,92,0
1,73,96,0
1,77,0,22
1,80,0,1
1,71,0,0
1,73,0,0
1,59,0,2
1,63,0,1
1,53,0,0
1,59,78,23
1,63,66,1
1,53,65,0
1,63,0,17
1,53,0,2
1,59,0,0
1,80,87,10
1,77,95,1
1,71,89,0
1,73,94,0
1,59,92,18
1,63,87,0
1,53,79,0
1,73,0,2
1,71,0,0
1,80,0,0
1,77,0,0
1,63,0,21
1,59,0,1
1,53,0,0
1,66,80,4
1,68,60,19
1,63,78,1
1,53,64,0
1,59,80,0
1,66,0,3
1,53,0,10
1,63,0,1
1,59,0,1
1,68,0,7
1,75,98,6
1,80,98,0
1,72,91,0
1,66,96,0
1,63,80,20
1,54,75,0
1,60,85,0
1,75,0,3
1,66,0,2
1,80,0,0
1,72,0,0
1,63,0,13
1,54,0,2
1,60,0,1
1,78,82,26
1,72,82,0
1,75,95,1
1,63,77,0
1,80,100,0
1,54,63,0
1,60,76,0
1,63,0,13
1,72,0,0
1,78,0,0
1,60,0,1
1,54,0,3
1,75,0,1
1,80,0,1
1,63,87,29
1,60,85,0
1,54,82,0
1,63,0,18
1,54,0,3
1,60,0,0
1,72,92,7
1,80,96,0
1,78,94,0
1,75,98,0
1,60,85,20
1,63,87,0
1,54,72,0
1,54,0,21
1,60,0,1
1,63,0,3
1,78,0,1
1,75,0,0
1,80,0,3
1,72,0,1
1,80,92,16
1,71,99,0
1,77,103,0
1,73,96,0
1,53,67,2
1,63,75,0
1,59,78,0
1,59,0,17
1,53,0,0
1,63,0,1
1,77,0,2
1,80,0,1
1,71,0,0
1,73,0,0
1,59,83,27
1,53,71,0
1,63,68,0
1,63,0,9
1,53,0,1
1,59,0,1
1,80,87,18
1,77,95,1
1,73,94,0
1,71,89,0
1,63,87,17
1,59,92,0
1,53,84,0
1,71,0,3
1,73,0,0
1,80,0,0
1,77,0,0
1,53,0,17
1,63,0,1
1,59,0,0
1,66,80,8
1,63,83,19
1,68,60,0
1,53,79,0
1,59,85,0
1,66,0,4
1,53,0,11
1,63,0,2
1,59,0,0
1,68,0,6
1,66,96,6
1,75,98,0
1,80,98,0
1,72,91,0
1,63,79,19
1,60,74,0
1,54,73,0
1,75,0,4
1,72,0,2
1,66,0,0
1,80,0,0
1,54,0,11
1,63,0,0
1,60,0,0
1,72,91,31
1,78,96,0
1,75,98,0
1,80,92,0
1,63,56,1
1,54,55,0
1,60,78,0
1,60,0,17
1,78,0,1
1,63,0,0
1,54,0,1
1,80,0,1
1,75,0,0
1,72,0,1
1,63,94,27
1,54,80,0
1,60,95,0
1,60,0,20
1,54,0,0
1,63,0,1
1,72,91,6
1,78,92,0
1,80,89,0
1,75,100,0
1,78,0,20
1,75,0,1
1,80,0,0
1,54,77,0
1,60,83,0
1,63,84,0
1,72,0,6
1,54,0,14
1,60,0,2
1,63,0,5
1,63,63,19
1,59,75,2
1,53,62,0
1,59,0,15
1,53,0,6
1,63,0,0
1,63,66,25
1,73,94,1
1,71,95,0
1,53,67,0
1,80,83,0
1,77,96,0
1,59,70,1
1,71,0,15
1,59,0,1
1,53,0,1
1,63,0,1
1,73,0,0
1,77,0,1
1,80,0,0
1,59,102,27
1,63,90,0
1,53,96,0
1,71,92,25
1,80,84,0
1,77,102,0
1,73,92,0
1,63,0,4
1,59,0,0
1,53,0,2
1,71,0,7
1,73,0,1
1,77,0,2
1,80,0,3
1,53,82,6
1,59,90,0
1,63,89,0
1,59,0,23
1,53,0,0
1,63,0,2
1,54,73,22
1,60,74,0
1,71,95,0
1,75,94,0
1,63,79,0
1,80,90,4
1,78,94,0
1,63,0,13
1,60,0,0
1,54,0,0
1,71,0,17
1,75,0,0
1,80,0,0
1,78,0,4
1,54,55,11
1,63,56,0
1,60,78,0
1,60,0,17
1,63,0,1
1,54,0,1
1,75,100,8
1,80,100,0
1,78,100,0
1,71,93,0
1,78,0,15
1,75,0,2
1,80,0,1
1,71,0,0
1,63,94,3
1,54,80,0
1,60,95,0
1,60,0,20
1,54,0,0
1,63,0,1
1,60,83,27
1,54,77,0
1,63,84,0
1,71,91,2
1,80,94,0
1,77,99,0
1,75,96,0
1,54,0,18
1,60,0,2
1,63,0,5
1,80,0,11
1,75,0,0
1,77,0,0
1,71,0,7
1,63,63,1
1,53,62,2
1,59,75,0
1,59,0,15
1,53,0,6
1,63,0,0
1,65,84,2
1,73,80,0
1,71,93,1
1,71,0,18
1,73,0,2
1,65,0,0
1,63,66,2
1,53,67,1
1,59,70,1
1,59,0,16
1,53,0,1
1,63,0,1
1,63,90,28
1,53,96,0
1,59,102,0
1,65,88,1
1,73,87,4
1,71,86,2
1,65,0,19
1,59,0,3
1,63,0,0
1,53,0,2
1,73,0,0
1,71,0,0
1,53,82,19
1,59,90,0
1,73,66,0
1,63,89,0
1,71,75,0
1,65,65,3
1,65,0,14
1,73,0,0
1,71,0,0
1,59,0,6
1,53,0,0
1,63,0,2
1,54,73,22
1,60,74,0
1,63,79,0
1,63,0,17
1,60,0,0
1,54,0,0
1,60,78,32
1,54,55,0
1,63,56,0
1,60,0,17
1,63,0,1
1,54,0,1
1,63,94,29
1,60,95,0
1,54,80,0
1,54,0,20
1,60,0,0
1,63,0,1
1,75,94,2
1,80,92,0
1,78,92,0
1,71,95,0
1,60,83,25
1,54,77,0
1,63,84,0
1,54,0,20
1,60,0,2
1,80,0,3
1,71,0,2
1,75,0,0
1,63,0,0
1,78,0,0
1,63,63,19
1,75,87,1
1,77,111,0
1,80,90,0
1,71,90,0
1,53,62,1
1,59,75,0
1,59,0,15
1,63,0,6
1,53,0,0
1,80,0,19
1,75,0,0
1,77,0,1
1,71,0,1
1,63,66,4
1,53,67,1
1,59,70,1
1,59,0,16
1,53,0,1
1,63,0,1
1,71,89,7
1,80,87,3
1,77,100,1
1,75,90,0
1,71,0,15
1,59,102,2
1,63,90,0
1,53,96,0
1,75,0,2
1,77,0,0
1,80,0,2
1,66,83,23
1,59,0,2
1,63,0,0
1,53,0,2
1,66,0,12
1,68,98,6
1,63,89,1
1,59,90,0
1,53,82,0
1,68,0,15
1,53,0,8
1,59,0,0
1,63,0,2
1,66,86,2
1,72,88,2
1,75,96,1
1,60,74,17
1,63,79,0
1,54,73,0
1,54,0,17
1,60,0,0
1,63,0,0
1,75,0,13
1,72,0,3
1,66,0,0
1,72,85,15
1,66,104,0
1,75,96,0
1,60,78,1
1,54,55,0
1,63,56,0
1,66,0,10
1,75,0,3
1,60,0,4
1,63,0,1
1,72,0,1
1,54,0,0
1,54,80,29
1,60,95,0
1,63,94,0
1,60,0,20
1,54,0,0
1,63,0,1
1,72,91,6
1,75,92,0
1,66,86,3
1,63,84,18
1,54,77,0
1,60,83,0
1,54,0,20
1,60,0,2
1,63,0,5
1,66,0,6
1,72,0,2
1,75,0,1
1,63,63,10
1,71,80,2
1,75,79,0
1,59,75,0
1,53,62,0
1,65,69,5
1,59,0,10
1,65,0,4
1,75,0,1
1,63,0,1
1,71,0,0
1,53,0,0
1,63,66,25
1,53,67,1
1,59,70,1
1,59,0,16
1,53,0,1
1,63,0,1
1,75,92,5
1,71,84,2
1,65,80,1
1,75,0,9
1,65,0,1
1,71,0,0
1,63,90,10
1,53,96,0
1,59,102,0
1,59,0,29
1,63,0,0
1,53,0,2
1,71,85,18
1,75,92,0
1,65,81,0
1,53,82,1
1,63,89,0
1,59,90,0
1,59,0,23
1,53,0,0
1,63,0,2
1,75,0,20
1,65,0,1
1,60,74,1
1,63,79,0
1,54,73,0
1,71,0,3
1,60,0,14
1,63,0,0
1,54,0,0
1,60,78,32
1,54,55,0
1,72,85,0
1,75,89,0
1,66,100,0
1,63,56,0
1,66,0,10
1,75,0,0
1,72,0,4
1,60,0,3
1,63,0,1
1,54,0,1
1,54,80,29
1,63,94,0
1,60,95,0
1,60,0,20
1,54,0,0
1,63,0,1
1,75,92,3
1,66,98,0
1,72,91,0
1,60,83,24
