track,note,velocity,time
1,80,108,52
1,77,50,0
1,77,103,262
1,73,92,0
1,75,86,26
1,72,61,0
1,77,75,20
1,73,68,0
1,72,54,12
1,75,80,0
1,70,62,26
1,73,71,0
1,75,83,22
1,72,84,0
1,70,84,12
1,73,97,0
1,77,93,6
1,73,65,120
1,72,91,22
1,68,59,0
1,73,85,32
1,70,33,0
1,72,90,20
1,68,54,0
1,66,61,76
1,70,73,30
1,72,79,14
1,70,91,0
1,75,92,28
1,70,90,16
1,68,90,0
1,66,61,0
1,70,103,0
1,68,90,74
1,63,85,130
1,66,77,14
1,68,80,112
1,66,66,12
1,65,74,4
1,63,39,0
1,61,69,14
1,65,53,104
1,66,61,24
1,65,98,102
1,70,96,42
1,65,97,20
1,63,92,12
1,65,92,42
1,63,86,110
1,58,66,138
1,61,77,102
1,63,80,4
1,61,74,18
1,60,82,20
1,56,37,0
1,56,102,58
1,53,104,0
1,80,110,250
1,77,81,0
1,77,99,196
1,73,82,0
1,75,94,54
1,70,49,0
1,66,41,0
1,77,97,108
1,75,79,12
1,73,93,108
1,61,71,0
1,75,110,66
1,63,105,0
1,73,85,124
1,80,112,0
1,68,95,0
1,65,50,226
1,73,74,0
1,77,96,0
1,70,33,34
1,75,85,0
1,66,52,0
1,77,74,108
1,75,75,8
1,73,63,46
1,73,107,104
1,61,85,0
1,75,109,80
1,63,102,0
1,82,112,142
1,70,79,0
1,77,71,0
1,80,107,124
1,68,85,0
1,77,83,200
1,65,49,0
1,75,66,24
1,65,31,0
1,70,33,6
1,77,73,114
1,75,83,8
1,73,71,12
1,70,47,214
1,89,101,196
1,82,92,0
1,77,54,0
1,87,76,186
1,75,55,0
1,82,59,0
1,82,59,74
1,87,89,2
1,75,81,0
1,87,112,72
1,75,90,0
1,82,61,0
1,85,109,92
1,73,98,0
1,82,66,4
1,85,114,88
1,73,107,0
1,82,66,0
1,85,122,104
1,73,122,0
1,82,112,0
1,84,127,98
1,72,110,0
1,82,81,0
1,78,80,0
1,84,127,104
1,72,103,0
1,78,81,0
1,82,66,0
1,84,127,102
1,72,114,0
1,78,81,0
1,82,66,0
1,85,110,136
1,73,94,0
1,82,98,0
1,82,95,2
1,70,73,0
1,78,94,0
1,89,103,200
1,82,98,0
1,77,80,0
1,90,101,166
1,82,79,0
1,78,62,0
1,89,110,96
1,82,88,0
1,77,80,0
1,87,113,76
1,75,88,0
1,82,88,6
1,89,127,94
1,82,95,0
1,77,83,0
1,87,127,70
1,75,101,0
1,82,88,2
1,73,119,70
1,85,119,0
1,82,97,0
1,87,117,82
1,75,99,0
1,82,80,0
1,82,80,74
1,73,105,0
1,85,88,0
1,84,111,18
1,72,106,0
1,82,96,0
1,87,102,50
1,85,107,0
1,73,83,4
1,82,79,8
1,82,62,4
1,82,86,10
1,70,76,0
1,78,77,0
1,66,100,164
1,78,97,0
1,80,114,144
1,68,111,0
1,84,122,162
1,72,90,0
1,82,118,166
1,70,96,0
1,78,100,0
1,78,118,142
1,66,90,0
1,78,88,148
1,72,64,0
1,66,69,0
1,75,48,0
1,66,95,90
1,78,88,0
1,75,94,0
1,72,64,0
1,78,107,74
1,75,102,0
1,66,97,0
1,72,98,0
1,72,98,78
1,78,127,2
1,66,121,0
1,75,105,0
1,80,125,86
1,75,110,0
1,68,94,0
1,72,47,0
1,66,121,110
1,78,127,0
1,75,121,0
1,72,113,0
1,78,121,172
1,66,109,0
1,80,127,126
1,68,114,0
1,85,127,144
1,73,127,0
1,82,127,174
1,70,125,0
1,78,117,0
1,78,118,138
1,66,101,0
1,66,95,148
1,78,88,0
1,75,90,0
1,70,65,2
1,66,97,94
1,75,97,0
1,78,88,0
1,70,65,0
1,66,118,66
1,78,112,0
1,75,105,0
1,70,102,0
1,66,122,82
1,75,112,0
1,78,110,0
1,70,102,2
1,80,127,100
1,68,127,0
1,77,127,0
1,72,64,0
1,75,127,118
1,78,127,0
1,66,127,0
1,70,125,0
1,78,127,162
1,66,127,0
1,70,113,0
1,73,91,0
1,80,127,118
1,68,127,0
1,87,127,144
1,75,127,0
1,85,127,176
1,82,127,0
1,73,127,0
1,78,127,0
1,82,127,142
1,70,98,0
1,82,95,142
1,70,74,0
1,78,69,6
1,70,103,90
1,82,96,0
1,78,69,2
1,82,112,80
1,70,116,0
1,78,69,0
1,70,127,92
1,82,118,0
1,78,69,0
1,84,127,102
1,80,127,0
1,72,125,0
1,70,127,116
1,82,127,0
1,78,84,0
1,82,84,68
1,85,127,0
1,73,127,0
1,87,127,24
1,75,127,0
1,82,127,0
1,80,108,16
1,85,127,16
1,92,127,22
1,80,103,104
1,85,127,24
1,92,127,10
1,80,83,106
1,85,109,20
1,92,114,18
1,68,64,122
1,75,62,60
1,80,77,82
1,68,119,360
1,65,88,0
1,71,127,24
1,68,121,0
1,73,127,84
1,68,124,14
1,65,72,0
1,71,127,36
1,68,101,0
1,73,113,20
1,65,59,0
1,68,108,30
1,75,127,0
1,65,112,74
1,77,127,0
1,73,127,0
1,73,127,74
1,65,120,0
1,77,127,198
1,73,101,0
1,79,127,26
1,75,127,0
1,77,127,40
1,73,127,20
1,70,125,0
1,73,127,100
1,70,109,0
1,65,127,10
1,61,116,84
1,61,127,110
1,72,127,28
1,77,127,168
1,70,127,14
1,72,127,16
1,77,127,146
1,78,127,10
1,66,127,100
1,70,124,0
1,77,127,32
1,66,127,84
1,73,76,0
1,70,127,0
1,74,127,0
1,66,124,64
1,70,116,32
1,75,127,44
1,66,127,54
1,70,125,0
1,82,127,16
1,70,117,60
1,80,123,8
1,80,124,8
1,77,106,0
1,83,127,38
1,80,127,0
1,85,127,26
1,80,127,12
1,77,89,0
1,83,127,28
1,80,127,0
1,80,127,44
1,85,127,24
1,73,127,140
1,80,127,38
1,76,127,16
1,88,127,6
1,73,107,16
1,76,127,0
1,85,127,20
1,80,127,24
1,92,127,14
1,80,127,186
1,88,127,18
1,83,127,50
1,92,127,4
1,80,127,72
1,85,125,0
1,81,127,54
1,90,127,8
1,78,122,138
1,85,112,64
1,81,127,46
1,78,127,102
1,85,112,46
1,81,127,26
1,90,127,24
1,78,127,172
1,85,113,4
1,81,125,52
1,78,127,66
1,85,127,8
1,81,127,26
1,93,127,6
1,97,127,202
1,85,127,72
1,78,127,40
1,66,114,158
1,73,113,64
1,69,106,68
1,66,127,88
1,73,118,40
1,69,127,6
1,81,127,14
1,85,127,198
1,76,124,0
1,81,125,16
1,88,127,8
1,85,127,0
1,83,127,34
1,87,127,0
1,85,127,24
1,81,127,0
1,83,127,92
1,80,127,0
1,81,127,42
1,78,127,0
1,80,127,282
1,76,117,0
1,78,127,92
1,75,107,0
1,76,127,14
1,73,123,0
1,75,127,38
1,71,127,0
1,73,127,12
1,69,127,0
1,71,127,102
1,68,127,0
1,69,127,26
1,66,124,0
1,68,127,106
1,64,123,0
1,66,124,4
1,64,127,24
1,61,85,0
1,54,102,12
1,63,108,0
1,61,66,0
1,56,99,48
1,58,114,66
1,61,122,12
1,66,118,28
1,60,100,0
1,63,89,0
1,70,119,152
1,66,68,0
1,63,120,16
1,54,106,0
1,61,69,0
1,56,109,20
1,58,109,78
1,61,122,8
1,66,120,26
1,60,112,0
1,63,114,0
1,70,119,164
1,66,74,0
1,66,59,42
1,61,114,4
1,77,127,100
1,68,102,0
1,75,127,22
1,68,94,0
1,66,68,0
1,70,127,90
1,66,122,0
1,61,51,0
1,58,101,114
1,61,95,48
1,68,116,16
1,58,101,0
1,66,69,0
1,66,46,36
1,60,120,22
1,66,52,0
1,63,127,54
1,70,127,2
1,61,114,0
1,77,127,104
1,68,57,0
1,75,127,18
1,66,81,0
1,68,62,0
1,70,127,96
1,66,122,0
1,66,64,0
1,58,88,100
1,61,87,122
1,68,113,100
1,58,61,0
1,56,46,20
1,66,53,2
1,60,114,46
1,63,95,22
1,75,100,100
1,63,83,104
1,66,83,6
1,70,89,20
1,66,101,50
1,63,109,32
1,63,119,68
1,66,113,60
1,70,107,24
1,66,127,40
1,70,53,0
1,63,127,22
1,78,127,32
1,82,127,182
1,75,127,24
1,63,108,24
1,66,94,0
1,70,106,8
1,66,113,62
1,63,121,8
1,63,127,72
1,66,119,4
1,70,102,16
1,66,121,62
1,63,122,10
1,78,127,24
1,82,127,154
1,87,127,82
1,75,92,110
1,78,88,60
1,82,85,4
1,75,100,54
1,78,107,64
1,84,112,8
1,75,99,80
1,78,88,66
1,82,84,32
1,75,99,112
1,78,100,56
1,81,86,12
1,85,108,16
1,75,95,114
1,78,90,62
1,83,76,8
1,87,96,12
1,75,57,86
1,78,70,56
1,81,64,30
1,92,85,170
1,89,72,0
1,89,91,10
1,87,91,54
1,84,58,0
1,89,97,14
1,85,83,0
1,87,95,96
1,84,61,0
1,85,77,90
1,82,46,0
1,87,96,34
1,84,91,0
1,85,104,64
1,82,76,0
1,89,92,156
1,85,85,0
1,85,75,260
1,82,37,4
1,84,83,26
1,80,33,0
1,85,81,58
1,82,58,0
1,84,102,98
1,80,42,0
1,82,70,98
1,78,46,0
1,84,102,40
1,80,33,0
1,82,105,10
1,78,75,0
1,87,105,28
1,82,97,18
1,80,91,12
1,77,85,0
1,82,96,8
1,80,96,18
1,78,80,28
1,75,39,0
1,80,103,8
1,77,76,0
1,78,93,64
1,75,59,0
1,77,79,348
1,69,58,4
1,77,94,68
1,73,64,6
1,78,99,66
1,75,68,0
1,77,102,64
1,73,69,0
1,82,102,0
1,77,90,16
1,75,92,0
1,73,59,0
1,77,86,4
1,75,80,14
1,73,79,16
1,75,80,32
1,73,86,96
1,70,71,0
1,72,85,10
1,68,79,0
1,56,96,64
1,53,91,0
1,80,112,260
1,77,79,0
1,77,104,128
1,73,72,0
1,75,92,32
1,70,38,2
1,66,33,2
1,77,60,120
1,75,82,128
1,73,86,104
1,61,60,0
1,75,95,84
1,63,79,0
1,80,104,142
1,68,63,4
1,73,51,4
1,77,79,186
1,65,46,0
1,73,58,0
1,75,84,2
1,65,31,0
1,70,52,2
1,77,90,112
1,75,76,8
1,73,73,28
1,61,77,46
1,56,53,0
1,63,95,2
1,70,105,144
1,65,79,2
1,61,46,6
1,65,88,216
1,56,31,0
1,61,33,8
1,61,84,88
1,66,95,0
1,58,79,0
1,68,104,38
1,73,97,124
1,70,87,0
1,66,72,0
1,66,53,0
1,70,83,46
1,66,44,0
1,70,102,60
1,66,91,0
1,60,79,0
1,72,112,76
1,72,41,140
1,77,107,0
1,68,54,0
1,68,82,260
1,66,58,0
1,60,39,0
1,56,76,240
1,61,75,48
1,56,77,128
1,60,76,68
1,65,79,18
1,56,85,172
1,61,73,68
1,56,90,118
1,60,104,46
1,65,81,4
1,71,109,2
1,68,54,0
1,73,90,284
1,64,35,0
1,68,82,212
1,73,71,2
1,68,92,132
1,72,85,60
1,77,84,16
1,68,93,168
1,73,82,2
1,68,88,94
1,72,93,36
1,77,87,70
1,83,109,8
1,80,58,4
1,85,87,58
1,83,95,332
1,80,66,0
1,85,80,122
1,88,77,340
1,92,66,0
1,89,59,0
1,80,52,60
1,85,59,16
1,89,67,2
1,92,65,0
2,65,60,40
2,68,50,0
2,66,45,8
2,69,50,0
2,65,34,0
2,68,40,0
2,63,48,2
2,66,34,0
2,61,43,0
2,63,29,0
2,60,48,8
2,63,53,0
2,61,51,56
2,58,46,0
2,57,31,4
2,60,30,0
2,56,41,14
2,58,29,0
2,54,56,12
2,53,45,126
2,56,40,0
2,51,39,20
2,54,26,0
2,44,50,48
2,37,66,6
2,65,77,32
2,68,86,0
2,42,54,22
2,49,51,0
2,49,19,62
2,54,22,0
2,58,30,0
2,61,29,0
2,41,39,32
2,49,42,0
2,53,57,54
2,56,51,0
2,61,45,256
2,65,46,0
2,56,33,0
2,61,32,0
2,42,48,30
2,49,46,0
2,49,30,58
2,54,38,0
2,58,33,0
2,61,26,0
2,44,57,26
2,59,59,26
2,53,46,0
2,65,50,148
2,61,44,0
2,59,33,0
2,46,38,22
2,53,22,0
2,58,45,0
2,63,42,0
2,61,26,348
2,27,108,8
2,39,100,8
2,65,50,148
2,66,35,0
2,70,31,0
2,63,57,64
2,66,49,0
2,70,43,0
2,66,49,82
2,63,60,2
2,70,43,0
2,63,78,60
2,70,43,0
2,66,49,2
2,61,59,76
2,66,54,0
2,70,35,0
2,61,64,86
2,66,55,0
2,70,63,0
2,61,65,94
2,66,55,0
2,70,72,0
2,60,78,84
2,66,54,0
2,70,57,0
2,60,78,100
2,66,58,0
2,70,76,0
2,60,91,98
2,66,53,0
2,70,70,0
2,61,53,116
2,66,44,0
2,70,53,0
2,58,50,2
2,61,65,0
2,66,38,0
2,27,122,14
2,39,96,0
2,46,127,0
2,65,67,132
2,66,50,0
2,70,44,0
2,66,59,80
2,70,47,0
2,75,48,0
2,65,64,88
2,66,64,0
2,70,36,0
2,63,74,54
2,66,56,0
2,70,41,0
2,65,80,72
2,66,37,0
2,70,70,0
2,63,94,74
2,66,56,0
2,70,60,0
2,61,88,66
2,66,63,0
2,70,65,8
2,63,92,66
2,66,63,2
2,70,50,6
2,61,64,64
2,66,53,0
2,70,36,8
2,60,76,14
2,66,61,0
2,70,50,8
2,61,66,8
2,66,58,2
2,70,33,2
2,58,42,10
2,63,71,0
2,66,38,0
2,32,57,22
2,44,63,0
2,54,46,120
2,56,56,174
2,60,68,0
2,63,42,0
2,60,77,54
2,58,72,28
2,63,75,0
2,66,67,0
2,54,58,28
2,33,89,18
2,45,81,0
2,54,68,100
2,60,46,0
2,63,44,0
2,54,66,52
2,60,36,0
2,63,75,0
2,54,32,68
2,60,80,0
2,63,71,0
2,54,77,72
2,60,85,0
2,63,80,0
2,56,80,84
2,63,82,0
2,54,89,94
2,60,102,0
2,63,89,0
2,34,99,22
2,46,72,0
2,54,90,122
2,61,85,0
2,58,77,0
2,56,98,172
2,61,97,142
2,61,85,96
2,58,86,0
2,66,87,0
2,54,89,68
2,36,102,20
2,48,101,0
2,54,65,94
2,63,48,0
2,58,78,2
2,54,32,84
2,58,78,0
2,63,80,0
2,54,76,54
2,58,92,0
2,63,93,0
2,54,92,70
2,58,99,0
2,63,107,0
2,56,98,90
2,60,101,0
2,65,87,0
2,54,105,110
2,58,107,0
2,63,107,0
2,37,107,24
2,49,107,0
2,61,105,94
2,54,72,0
2,58,90,0
2,56,107,176
2,63,107,90
2,61,99,164
2,66,98,0
2,70,107,0
2,58,93,80
2,39,97,16
2,51,100,0
2,58,56,90
2,61,50,0
2,66,44,0
2,61,72,86
2,66,68,0
2,58,56,0
2,58,46,74
2,61,78,0
2,66,74,0
2,58,91,70
2,61,100,0
2,66,101,0
2,60,99,76
2,63,93,0
2,68,98,0
2,58,102,100
2,61,103,0
2,66,107,0
2,61,98,26
2,66,92,0
2,70,78,0
2,63,107,24
2,66,92,0
2,70,102,0
2,65,81,70
2,68,104,0
2,73,104,32
2,77,100,6
2,64,80,6
2,68,97,34
2,70,100,2
2,73,101,20
2,76,101,24
2,63,85,4
2,66,81,26
2,68,86,16
2,73,79,10
2,75,82,20
2,56,46,510
2,63,65,12
2,66,63,30
2,72,57,26
2,37,67,288
2,44,61,90
2,49,74,14
2,53,93,46
2,56,66,14
2,61,71,6
2,41,88,4
2,48,90,8
2,53,97,36
2,56,100,56
2,60,103,30
2,65,98,64
2,44,87,16
2,52,105,18
2,56,74,42
2,59,93,54
2,64,98,18
2,37,82,14
2,44,72,18
2,49,77,32
2,53,86,26
2,56,87,22
2,61,85,48
2,41,98,16
2,48,103,26
2,53,93,4
2,56,107,52
2,60,107,36
2,65,101,66
2,44,90,12
2,52,104,18
2,56,70,62
2,59,87,48
2,68,86,8
2,64,66,2
2,37,86,18
2,44,81,18
2,49,78,12
2,53,89,4
2,56,66,76
2,61,100,52
2,68,85,54
2,65,81,18
2,61,96,56
2,56,90,56
2,53,45,18
2,56,105,30
2,53,88,62
2,49,77,36
2,44,89,44
2,49,102,50
2,44,91,48
2,39,102,22
2,46,89,10
