track,note,velocity,time
1,67,60,1
1,71,48,359
1,67,0,1
1,71,0,59
1,69,48,0
1,69,0,60
1,67,56,0
1,67,0,240
1,62,53,480
1,62,0,240
1,67,53,0
1,67,0,240
1,71,53,0
1,71,0,240
1,71,57,0
1,71,0,120
1,69,54,0
1,69,0,120
1,67,54,0
1,67,0,120
1,69,54,0
1,69,0,120
1,67,57,0
1,67,0,240
1,74,54,0
1,74,0,240
1,74,54,0
1,74,0,120
1,74,54,120
1,74,0,120
1,74,54,120
1,74,0,120
1,74,54,120
1,74,0,120
1,74,57,120
1,74,0,360
1,76,47,0
1,76,0,60
1,74,47,0
1,74,0,60
1,72,52,0
1,72,0,240
1,71,50,0
1,71,0,240
1,69,52,0
1,69,0,240
1,81,68,0
1,81,0,480
1,79,65,0
1,79,0,240
1,79,63,0
1,79,0,120
1,78,54,0
1,78,0,120
1,76,54,0
1,76,0,120
1,74,54,0
1,74,0,120
1,74,54,0
1,74,0,240
1,74,56,0
1,74,0,240
1,74,54,0
1,74,0,120
1,76,52,0
1,76,0,120
1,72,54,0
1,72,0,120
1,74,52,0
1,74,0,120
1,71,54,0
1,71,0,120
1,72,51,0
1,72,0,120
1,69,54,0
1,69,0,120
1,71,52,0
1,71,0,120
1,67,60,1
1,71,46,359
1,67,0,1
1,71,0,59
1,69,47,0
1,69,0,60
1,67,56,0
1,67,0,240
1,62,53,480
1,62,0,240
1,67,53,0
1,67,0,240
1,71,53,0
1,71,0,240
1,71,57,0
1,71,0,120
1,69,54,0
1,69,0,120
1,67,54,0
1,67,0,120
1,69,54,0
1,69,0,120
1,67,57,0
1,67,0,240
1,76,54,0
1,76,0,240
1,76,54,0
1,76,0,120
1,76,54,120
1,76,0,120
1,76,54,120
1,76,0,120
1,76,54,120
1,76,0,120
1,76,57,120
1,76,0,360
1,79,50,0
1,79,0,60
1,81,52,0
1,81,0,60
1,83,60,0
1,83,0,360
1,79,49,0
1,79,0,60
1,76,49,0
1,76,0,60
1,74,60,0
1,74,0,480
1,73,52,0
1,73,0,80
1,74,43,0
1,74,0,80
1,73,48,0
1,73,0,80
1,74,43,0
1,74,0,60
1,73,48,0
1,73,0,60
1,74,42,0
1,74,0,60
1,73,47,0
1,73,0,60
1,74,52,0
1,74,0,120
1,76,49,0
1,76,0,120
1,78,50,0
1,78,0,120
1,79,51,0
1,79,0,120
1,81,51,0
1,81,0,120
1,78,51,0
1,78,0,120
1,76,50,0
1,76,0,120
1,74,50,0
1,74,0,120
1,73,53,0
1,73,0,120
1,74,48,0
1,74,0,120
1,76,49,0
1,76,0,120
1,78,49,0
1,78,0,120
1,79,49,0
1,79,0,120
1,76,49,0
1,76,0,120
1,74,48,0
1,74,0,120
1,73,48,0
1,73,0,120
1,74,52,0
1,74,0,120
1,76,47,0
1,76,0,120
1,78,48,0
1,78,0,120
1,79,49,0
1,79,0,120
1,81,50,0
1,81,0,120
1,78,49,0
1,78,0,120
1,76,48,0
1,76,0,120
1,74,47,0
1,74,0,120
1,73,53,0
1,73,0,120
1,74,47,0
1,74,0,120
1,76,47,0
1,76,0,120
1,78,48,0
1,78,0,120
1,79,49,0
1,79,0,120
1,76,49,0
1,76,0,120
1,74,48,0
1,74,0,120
1,73,48,0
1,73,0,120
1,74,58,0
1,74,0,420
1,85,77,0
1,85,0,60
1,86,87,0
1,86,0,480
1,67,60,1
1,71,48,359
1,67,0,1
1,71,0,59
1,69,48,0
1,69,0,60
1,67,56,0
1,67,0,240
1,62,53,480
1,62,0,240
1,67,53,0
1,67,0,240
1,71,53,0
1,71,0,240
1,71,57,0
1,71,0,120
1,69,54,0
1,69,0,120
1,67,54,0
1,67,0,120
1,69,54,0
1,69,0,120
1,67,57,0
1,67,0,240
1,74,54,0
1,74,0,240
1,74,54,0
1,74,0,120
1,74,54,120
1,74,0,120
1,74,54,120
1,74,0,120
1,74,54,120
1,74,0,120
1,74,57,120
1,74,0,360
1,76,47,0
1,76,0,60
1,74,47,0
1,74,0,60
1,72,52,0
1,72,0,240
1,71,50,0
1,71,0,240
1,69,52,0
1,69,0,240
1,81,68,0
1,81,0,480
1,79,65,0
1,79,0,240
1,79,63,0
1,79,0,120
1,78,54,0
1,78,0,120
1,76,54,0
1,76,0,120
1,74,54,0
1,74,0,120
1,74,54,0
1,74,0,240
1,74,56,0
1,74,0,240
1,74,54,0
1,74,0,120
1,76,52,0
1,76,0,120
1,72,54,0
1,72,0,120
1,74,52,0
1,74,0,120
1,71,54,0
1,71,0,120
1,72,51,0
1,72,0,120
1,69,54,0
1,69,0,120
1,71,52,0
1,71,0,120
1,67,60,1
1,71,46,359
1,67,0,1
1,71,0,59
1,69,47,0
1,69,0,60
1,67,56,0
1,67,0,240
1,62,53,480
1,62,0,240
1,67,53,0
1,67,0,240
1,71,53,0
1,71,0,240
1,71,57,0
1,71,0,120
1,69,54,0
1,69,0,120
1,67,54,0
1,67,0,120
1,69,54,0
1,69,0,120
1,67,57,0
1,67,0,240
1,76,54,0
1,76,0,240
1,76,54,0
1,76,0,120
1,76,54,120
1,76,0,120
1,76,54,120
1,76,0,120
1,76,54,120
1,76,0,120
1,76,57,120
1,76,0,360
1,79,50,0
1,79,0,60
1,81,52,0
1,81,0,60
1,83,60,0
1,83,0,360
1,79,49,0
1,79,0,60
1,76,49,0
1,76,0,60
1,74,60,0
1,74,0,480
1,73,52,0
1,73,0,80
1,74,43,0
1,74,0,80
1,73,48,0
1,73,0,80
1,74,43,0
1,74,0,60
1,73,48,0
1,73,0,60
1,74,42,0
1,74,0,60
1,73,47,0
1,73,0,60
1,74,54,0
1,74,0,120
1,76,49,0
1,76,0,120
1,78,50,0
1,78,0,120
1,79,51,0
1,79,0,120
1,81,51,0
1,81,0,120
1,78,51,0
1,78,0,120
1,76,50,0
1,76,0,120
1,74,50,0
1,74,0,120
1,73,53,0
1,73,0,120
1,74,48,0
1,74,0,120
1,76,49,0
1,76,0,120
1,78,49,0
1,78,0,120
1,79,49,0
1,79,0,120
1,76,49,0
1,76,0,120
1,74,48,0
1,74,0,120
1,73,48,0
1,73,0,120
1,74,52,0
1,74,0,120
1,76,47,0
1,76,0,120
1,78,48,0
1,78,0,120
1,79,49,0
1,79,0,120
1,81,50,0
1,81,0,120
1,78,49,0
1,78,0,120
1,76,48,0
1,76,0,120
1,74,47,0
1,74,0,120
1,73,53,0
1,73,0,120
1,74,47,0
1,74,0,120
1,76,47,0
1,76,0,120
1,78,48,0
1,78,0,120
1,79,49,0
1,79,0,120
1,76,49,0
1,76,0,120
1,74,48,0
1,74,0,120
1,73,48,0
1,73,0,120
1,74,58,0
1,74,0,420
1,85,77,0
1,85,0,60
1,86,87,0
1,86,0,480
1,77,53,960
1,77,0,360
1,74,45,0
1,74,0,60
1,75,45,0
1,75,0,60
1,77,54,0
1,77,0,240
1,69,50,480
1,69,0,240
1,69,50,0
1,69,0,240
1,69,50,0
1,69,0,240
1,70,53,0
1,70,0,360
1,70,45,0
1,70,0,60
1,72,45,0
1,72,0,60
1,74,54,0
1,74,0,240
1,66,50,480
1,66,0,240
1,66,50,0
1,66,0,240
1,66,50,0
1,66,0,240
1,67,57,0
1,67,0,360
1,67,45,0
1,67,0,60
1,69,45,0
1,69,0,60
1,70,57,0
1,70,0,240
1,61,55,480
1,61,0,240
1,61,57,0
1,61,0,240
1,61,60,0
1,61,0,240
1,62,68,0
1,62,0,360
1,54,51,0
1,54,0,60
1,55,51,0
1,55,0,60
1,57,75,0
1,57,0,240
1,54,68,0
1,54,0,240
1,50,68,0
1,50,0,480
1,67,60,1
1,71,46,359
1,67,0,1
1,71,0,59
1,69,47,0
1,69,0,60
1,67,56,0
1,67,0,240
1,62,53,480
1,62,0,240
1,67,53,0
1,67,0,240
1,71,53,0
1,71,0,240
1,71,57,0
1,71,0,120
1,69,54,0
1,69,0,120
1,67,54,0
1,67,0,120
1,69,54,0
1,69,0,120
1,67,57,0
1,67,0,240
1,76,54,0
1,76,0,240
1,76,54,0
1,76,0,120
1,76,54,120
1,76,0,120
1,76,54,120
1,76,0,120
1,76,54,120
1,76,0,120
1,76,57,120
1,76,0,360
1,81,52,0
1,81,0,60
1,83,52,0
1,83,0,60
1,84,50,0
1,84,0,240
1,76,54,0
1,76,0,240
1,74,54,0
1,74,0,120
1,74,54,120
1,74,0,120
1,74,54,120
1,74,0,120
1,74,54,120
1,74,0,120
1,74,57,120
1,74,0,360
1,79,49,0
1,79,0,60
1,81,48,0
1,81,0,60
1,83,45,0
1,83,0,240
1,83,39,2040
1,83,0,60
1,81,39,0
1,81,0,60
1,79,47,0
1,79,0,120
1,79,39,240
1,79,0,60
1,78,39,0
1,78,0,60
1,76,50,0
1,76,0,120
1,76,38,240
1,76,0,60
1,74,38,0
1,74,0,60
1,72,50,0
1,72,0,240
1,75,51,600
1,75,0,60
1,74,51,0
1,74,0,60
1,72,59,0
1,72,0,240
1,72,55,0
1,72,0,240
1,72,55,0
1,72,0,240
1,72,55,0
1,72,0,240
1,72,58,0
1,72,0,360
1,74,46,0
1,74,0,60
1,72,46,0
1,72,0,60
1,71,56,0
1,71,0,240
1,71,57,0
1,71,0,240
1,69,60,0
1,69,0,240
1,76,56,0
1,76,0,240
1,74,56,0
1,74,0,240
1,66,56,0
1,66,0,240
1,67,54,0
1,67,0,120
1,69,49,0
1,69,0,120
1,71,50,0
1,71,0,120
1,72,51,0
1,72,0,120
1,74,51,0
1,74,0,120
1,71,51,0
1,71,0,120
1,69,50,0
1,69,0,120
1,67,50,0
1,67,0,120
1,66,53,0
1,66,0,120
1,67,48,0
1,67,0,120
1,69,49,0
1,69,0,120
1,71,49,0
1,71,0,120
1,72,49,0
1,72,0,120
1,69,49,0
1,69,0,120
1,67,48,0
1,67,0,120
1,66,48,0
1,66,0,120
1,67,52,0
1,67,0,120
1,69,47,0
1,69,0,120
1,71,48,0
1,71,0,120
1,72,49,0
1,72,0,120
1,74,50,0
1,74,0,120
1,71,49,0
1,71,0,120
1,69,48,0
1,69,0,120
1,67,47,0
1,67,0,120
1,66,53,0
1,66,0,120
1,67,47,0
1,67,0,120
1,69,47,0
1,69,0,120
1,71,48,0
1,71,0,120
1,72,49,0
1,72,0,120
1,69,49,0
1,69,0,120
1,67,48,0
1,67,0,120
1,66,48,0
1,66,0,120
1,67,58,0
1,67,0,420
1,78,65,0
1,78,0,60
1,79,76,0
1,79,0,480
1,77,53,960
1,77,0,360
1,74,45,0
1,74,0,60
1,75,45,0
1,75,0,60
1,77,54,0
1,77,0,240
1,69,50,480
1,69,0,240
1,69,50,0
1,69,0,240
1,69,50,0
1,69,0,240
1,70,53,0
1,70,0,360
1,70,45,0
1,70,0,60
1,72,45,0
1,72,0,60
1,74,54,0
1,74,0,240
1,66,50,480
1,66,0,240
1,66,50,0
1,66,0,240
1,66,50,0
1,66,0,240
1,67,57,0
1,67,0,360
1,67,45,0
1,67,0,60
1,69,45,0
1,69,0,60
1,70,57,0
1,70,0,240
1,61,54,480
1,61,0,240
1,61,57,0
1,61,0,240
1,61,60,0
1,61,0,240
1,62,68,0
1,62,0,360
1,54,51,0
1,54,0,60
1,55,51,0
1,55,0,60
1,57,75,0
1,57,0,240
1,54,68,0
1,54,0,240
1,50,68,0
1,50,0,480
1,67,60,1
1,71,46,359
1,67,0,1
1,71,0,59
1,69,47,0
1,69,0,60
1,67,56,0
1,67,0,240
1,62,53,480
1,62,0,240
1,67,53,0
1,67,0,240
1,71,53,0
1,71,0,240
1,71,57,0
1,71,0,120
1,69,54,0
1,69,0,120
1,67,54,0
1,67,0,120
1,69,54,0
1,69,0,120
1,67,57,0
1,67,0,240
1,76,54,0
1,76,0,240
1,76,54,0
1,76,0,120
1,76,54,120
1,76,0,120
1,76,54,120
1,76,0,120
1,76,54,120
1,76,0,120
1,76,57,120
1,76,0,360
1,81,52,0
1,81,0,60
1,83,52,0
1,83,0,60
1,84,50,0
1,84,0,240
1,76,54,0
1,76,0,240
1,74,54,0
1,74,0,120
1,74,54,120
1,74,0,120
1,74,54,120
1,74,0,120
1,74,54,120
1,74,0,120
1,74,57,120
1,74,0,360
1,79,49,0
1,79,0,60
1,81,48,0
1,81,0,60
1,83,45,0
1,83,0,240
1,83,39,2040
1,83,0,60
1,81,39,0
1,81,0,60
1,79,47,0
1,79,0,120
1,79,39,240
1,79,0,60
1,78,39,0
1,78,0,60
1,76,50,0
1,76,0,120
1,76,38,240
1,76,0,60
1,74,38,0
1,74,0,60
1,72,50,0
1,72,0,240
1,75,51,600
1,75,0,60
1,74,51,0
1,74,0,60
1,72,59,0
1,72,0,240
1,72,55,0
1,72,0,240
1,72,55,0
1,72,0,240
1,72,55,0
1,72,0,240
1,72,60,0
1,72,0,360
1,74,46,0
1,74,0,60
1,72,46,0
1,72,0,60
1,71,56,0
1,71,0,240
1,71,57,0
1,71,0,240
1,69,60,0
1,69,0,240
1,76,56,0
1,76,0,240
1,74,56,0
1,74,0,240
1,66,56,0
1,66,0,240
1,67,54,0
1,67,0,120
1,69,49,0
1,69,0,120
1,71,50,0
1,71,0,120
1,72,51,0
1,72,0,120
1,74,51,0
1,74,0,120
1,71,51,0
1,71,0,120
1,69,50,0
1,69,0,120
1,67,50,0
1,67,0,120
1,66,53,0
1,66,0,120
1,67,48,0
1,67,0,120
1,69,49,0
1,69,0,120
1,71,49,0
1,71,0,120
1,72,49,0
1,72,0,120
1,69,49,0
1,69,0,120
1,67,48,0
1,67,0,120
1,66,48,0
1,66,0,120
1,67,52,0
1,67,0,120
1,69,47,0
1,69,0,120
1,71,48,0
1,71,0,120
1,72,49,0
1,72,0,120
1,74,50,0
1,74,0,120
1,71,49,0
1,71,0,120
1,69,48,0
1,69,0,120
1,67,47,0
1,67,0,120
1,66,53,0
1,66,0,120
1,67,47,0
1,67,0,120
1,69,47,0
1,69,0,120
1,71,48,0
1,71,0,120
1,72,49,0
1,72,0,120
1,69,49,0
1,69,0,120
1,67,48,0
1,67,0,120
1,66,48,0
1,66,0,120
1,67,58,0
1,67,0,420
1,78,65,0
1,78,0,60
1,79,76,0
1,79,0,480
1,64,57,1200
1,64,0,240
1,76,65,0
1,76,0,720
1,75,56,0
1,75,0,240
1,78,70,0
1,78,0,720
1,76,55,0
1,76,0,240
1,79,72,0
1,79,0,720
1,78,63,0
1,78,0,240
1,83,78,0
1,83,0,720
1,82,66,0
1,82,0,240
1,88,72,0
1,85,72,0
1,85,0,720
1,88,0,0
1,83,60,0
1,86,60,0
1,86,0,480
1,83,0,0
1,85,56,0
1,76,56,0
1,76,0,480
1,85,0,0
1,74,57,0
1,83,57,0
1,83,0,480
1,74,0,0
1,73,57,0
1,82,57,0
1,82,0,240
1,73,0,0
1,71,56,240
1,71,0,240
1,83,66,0
1,83,0,240
1,64,57,480
1,64,0,240
1,76,65,0
1,76,0,720
1,75,56,0
1,75,0,240
1,78,70,0
1,78,0,720
1,76,55,0
1,76,0,240
1,79,72,0
1,79,0,720
1,78,63,0
1,78,0,240
1,83,76,0
1,83,0,720
1,82,66,0
1,82,0,240
1,88,72,0
1,85,72,0
1,85,0,720
1,88,0,0
1,83,60,0
1,86,60,0
1,86,0,480
1,83,0,0
1,85,56,0
1,76,56,0
1,76,0,480
1,85,0,0
1,74,57,0
1,83,57,0
1,83,0,480
1,74,0,0
1,73,57,0
1,82,57,0
1,82,0,240
1,73,0,0
1,71,56,240
1,71,0,240
1,83,66,0
1,83,0,240
1,69,57,480
1,69,0,240
1,81,68,0
1,81,0,720
1,80,56,0
1,80,0,240
1,86,70,0
1,86,0,720
1,84,61,0
1,84,0,480
1,83,59,0
1,83,0,480
1,81,57,0
1,81,0,240
1,78,43,240
1,78,0,240
1,79,49,0
1,79,0,720
1,78,45,0
1,78,0,240
1,84,49,0
1,81,49,0
1,81,0,720
1,84,0,0
1,79,45,0
1,83,45,0
1,83,0,480
1,79,0,0
1,78,43,0
1,81,43,0
1,81,0,480
1,78,0,0
