track,note,velocity,time
1.0,44.0,30.0,32.0
1.0,60.0,32.0,48.0
1.0,56.0,31.0,32.0
1.0,51.0,40.0,44.0
1.0,63.0,38.0,32.0
1.0,51.0,33.0,64.0
1.0,48.0,36.0,20.0
1.0,60.0,39.0,36.0
1.0,56.0,38.0,120.0
1.0,51.0,38.0,40.0
1.0,63.0,43.0,24.0
1.0,51.0,40.0,0.0
1.0,46.0,51.0,12.0
1.0,61.0,35.0,48.0
1.0,56.0,36.0,20.0
1.0,51.0,45.0,32.0
1.0,63.0,44.0,44.0
1.0,51.0,40.0,292.0
1.0,39.0,51.0,8.0
1.0,61.0,32.0,64.0
1.0,55.0,43.0,32.0
1.0,51.0,31.0,28.0
1.0,75.0,65.0,64.0
1.0,63.0,27.0,24.0
1.0,51.0,31.0,292.0
1.0,73.0,64.0,8.0
1.0,72.0,63.0,16.0
1.0,44.0,43.0,8.0
1.0,60.0,45.0,60.0
1.0,56.0,38.0,16.0
1.0,51.0,37.0,40.0
1.0,72.0,67.0,52.0
1.0,63.0,29.0,16.0
1.0,51.0,29.0,316.0
1.0,70.0,59.0,20.0
1.0,68.0,57.0,28.0
1.0,48.0,33.0,4.0
1.0,60.0,38.0,12.0
1.0,56.0,34.0,16.0
1.0,51.0,32.0,40.0
1.0,70.0,62.0,28.0
1.0,63.0,28.0,8.0
1.0,51.0,33.0,308.0
1.0,72.0,70.0,44.0
1.0,73.0,67.0,8.0
1.0,46.0,42.0,4.0
1.0,61.0,42.0,28.0
1.0,56.0,38.0,12.0
1.0,51.0,28.0,76.0
1.0,63.0,33.0,36.0
1.0,51.0,43.0,68.0
1.0,39.0,51.0,28.0
1.0,61.0,40.0,104.0
1.0,55.0,35.0,60.0
1.0,51.0,33.0,36.0
1.0,72.0,63.0,104.0
1.0,63.0,32.0,16.0
1.0,51.0,44.0,308.0
1.0,70.0,60.0,16.0
1.0,72.0,68.0,12.0
1.0,44.0,43.0,16.0
1.0,60.0,46.0,44.0
1.0,56.0,36.0,16.0
1.0,51.0,30.0,52.0
1.0,70.0,64.0,32.0
1.0,63.0,31.0,32.0
1.0,51.0,39.0,260.0
1.0,68.0,60.0,8.0
1.0,48.0,45.0,220.0
1.0,79.0,65.0,48.0
1.0,60.0,37.0,96.0
1.0,56.0,32.0,92.0
1.0,51.0,30.0,60.0
1.0,80.0,67.0,44.0
1.0,63.0,33.0,16.0
1.0,51.0,34.0,32.0
1.0,72.0,63.0,48.0
1.0,75.0,65.0,16.0
1.0,46.0,41.0,0.0
1.0,61.0,35.0,48.0
1.0,56.0,32.0,4.0
1.0,51.0,35.0,36.0
1.0,63.0,31.0,48.0
1.0,73.0,56.0,168.0
1.0,51.0,38.0,96.0
1.0,72.0,58.0,28.0
1.0,70.0,51.0,4.0
1.0,39.0,43.0,0.0
1.0,61.0,23.0,92.0
1.0,55.0,34.0,44.0
1.0,51.0,34.0,44.0
1.0,75.0,61.0,60.0
1.0,63.0,23.0,52.0
1.0,51.0,39.0,172.0
1.0,73.0,60.0,48.0
1.0,72.0,65.0,4.0
1.0,44.0,42.0,0.0
1.0,60.0,26.0,4.0
1.0,56.0,40.0,24.0
1.0,51.0,37.0,44.0
1.0,72.0,70.0,8.0
1.0,63.0,32.0,56.0
1.0,51.0,48.0,52.0
1.0,70.0,67.0,12.0
1.0,68.0,61.0,12.0
1.0,48.0,36.0,0.0
1.0,60.0,44.0,84.0
1.0,56.0,32.0,20.0
1.0,51.0,42.0,24.0
1.0,70.0,61.0,48.0
1.0,63.0,26.0,28.0
1.0,51.0,44.0,264.0
1.0,72.0,69.0,24.0
1.0,73.0,65.0,20.0
1.0,46.0,37.0,4.0
1.0,61.0,44.0,16.0
1.0,56.0,34.0,4.0
1.0,51.0,27.0,60.0
1.0,63.0,40.0,40.0
1.0,51.0,30.0,4.0
1.0,39.0,45.0,12.0
1.0,61.0,33.0,80.0
1.0,55.0,32.0,48.0
1.0,51.0,33.0,56.0
1.0,72.0,64.0,0.0
1.0,63.0,25.0,36.0
1.0,51.0,40.0,280.0
1.0,70.0,60.0,24.0
1.0,44.0,44.0,8.0
1.0,72.0,72.0,0.0
1.0,60.0,48.0,52.0
1.0,56.0,36.0,16.0
1.0,51.0,32.0,36.0
1.0,75.0,71.0,8.0
1.0,63.0,28.0,44.0
1.0,51.0,47.0,0.0
1.0,80.0,74.0,20.0
1.0,84.0,82.0,4.0
1.0,44.0,40.0,12.0
1.0,60.0,51.0,48.0
1.0,56.0,35.0,116.0
1.0,52.0,44.0,32.0
1.0,64.0,48.0,84.0
1.0,82.0,73.0,8.0
1.0,56.0,27.0,152.0
1.0,60.0,27.0,16.0
1.0,52.0,32.0,0.0
1.0,80.0,70.0,48.0
1.0,79.0,74.0,48.0
1.0,44.0,35.0,0.0
1.0,60.0,54.0,60.0
1.0,56.0,43.0,24.0
1.0,53.0,40.0,28.0
1.0,77.0,68.0,36.0
1.0,65.0,40.0,0.0
1.0,60.0,46.0,84.0
1.0,41.0,42.0,16.0
1.0,60.0,49.0,112.0
1.0,56.0,47.0,100.0
1.0,53.0,46.0,48.0
1.0,80.0,72.0,120.0
1.0,65.0,46.0,16.0
1.0,60.0,46.0,148.0
1.0,77.0,72.0,64.0
1.0,75.0,64.0,8.0
1.0,44.0,45.0,0.0
1.0,60.0,36.0,92.0
1.0,56.0,31.0,0.0
1.0,53.0,32.0,32.0
1.0,72.0,64.0,140.0
1.0,63.0,33.0,44.0
1.0,56.0,35.0,284.0
1.0,53.0,36.0,8.0
1.0,68.0,62.0,76.0
1.0,46.0,46.0,8.0
1.0,67.0,63.0,8.0
1.0,62.0,38.0,72.0
1.0,58.0,27.0,52.0
1.0,56.0,41.0,28.0
1.0,65.0,58.0,16.0
1.0,62.0,42.0,24.0
1.0,56.0,38.0,40.0
1.0,63.0,48.0,8.0
1.0,39.0,47.0,0.0
1.0,55.0,43.0,80.0
1.0,51.0,41.0,36.0
1.0,46.0,40.0,52.0
1.0,55.0,35.0,56.0
1.0,46.0,35.0,60.0
1.0,51.0,45.0,220.0
1.0,67.0,40.0,32.0
1.0,63.0,37.0,16.0
1.0,58.0,38.0,16.0
1.0,75.0,69.0,84.0
1.0,67.0,38.0,0.0
1.0,58.0,28.0,164.0
1.0,63.0,30.0,0.0
1.0,55.0,33.0,0.0
1.0,72.0,64.0,276.0
1.0,51.0,35.0,0.0
1.0,63.0,40.0,8.0
1.0,58.0,39.0,132.0
1.0,54.0,38.0,12.0
1.0,73.0,68.0,0.0
1.0,66.0,47.0,0.0
1.0,58.0,32.0,80.0
1.0,54.0,33.0,0.0
1.0,63.0,33.0,0.0
1.0,75.0,69.0,0.0
1.0,77.0,71.0,204.0
1.0,51.0,39.0,0.0
1.0,60.0,42.0,4.0
1.0,57.0,38.0,16.0
1.0,53.0,45.0,132.0
1.0,75.0,63.0,28.0
1.0,65.0,42.0,0.0
1.0,60.0,32.0,132.0
1.0,53.0,33.0,0.0
1.0,57.0,34.0,0.0
1.0,73.0,59.0,100.0
1.0,72.0,58.0,156.0
1.0,51.0,25.0,0.0
1.0,63.0,42.0,44.0
1.0,58.0,31.0,4.0
1.0,54.0,38.0,132.0
1.0,73.0,60.0,120.0
1.0,66.0,41.0,4.0
1.0,54.0,37.0,84.0
1.0,58.0,29.0,0.0
1.0,63.0,33.0,0.0
1.0,75.0,62.0,12.0
1.0,77.0,64.0,20.0
1.0,51.0,34.0,48.0
1.0,60.0,43.0,68.0
1.0,57.0,31.0,8.0
1.0,53.0,41.0,8.0
1.0,79.0,65.0,4.0
1.0,65.0,43.0,12.0
1.0,60.0,36.0,124.0
1.0,53.0,36.0,0.0
1.0,57.0,34.0,0.0
1.0,81.0,69.0,28.0
1.0,82.0,71.0,212.0
1.0,49.0,51.0,0.0
1.0,61.0,51.0,4.0
1.0,58.0,48.0,4.0
1.0,53.0,46.0,156.0
1.0,80.0,70.0,56.0
1.0,65.0,39.0,0.0
1.0,78.0,70.0,176.0
1.0,53.0,31.0,0.0
1.0,58.0,34.0,0.0
1.0,61.0,42.0,0.0
1.0,77.0,70.0,24.0
1.0,45.0,52.0,0.0
1.0,63.0,43.0,44.0
1.0,60.0,42.0,0.0
1.0,53.0,40.0,24.0
1.0,65.0,34.0,32.0
1.0,72.0,67.0,0.0
1.0,63.0,37.0,116.0
1.0,53.0,37.0,24.0
1.0,60.0,34.0,0.0
1.0,75.0,69.0,12.0
1.0,46.0,50.0,0.0
1.0,60.0,43.0,64.0
1.0,57.0,40.0,8.0
1.0,53.0,38.0,64.0
1.0,65.0,42.0,44.0
1.0,53.0,39.0,136.0
1.0,73.0,56.0,204.0
1.0,46.0,37.0,16.0
1.0,61.0,37.0,52.0
1.0,58.0,35.0,28.0
1.0,53.0,38.0,32.0
1.0,73.0,69.0,64.0
1.0,65.0,35.0,0.0
1.0,53.0,34.0,12.0
1.0,61.0,19.0,0.0
1.0,58.0,18.0,12.0
1.0,72.0,69.0,4.0
1.0,48.0,47.0,24.0
1.0,64.0,39.0,72.0
1.0,60.0,26.0,24.0
1.0,55.0,44.0,20.0
1.0,74.0,72.0,12.0
1.0,67.0,39.0,0.0
1.0,64.0,26.0,132.0
1.0,60.0,24.0,4.0
1.0,55.0,34.0,8.0
1.0,76.0,73.0,16.0
1.0,77.0,74.0,12.0
1.0,46.0,49.0,0.0
1.0,61.0,39.0,64.0
1.0,58.0,35.0,4.0
1.0,53.0,49.0,4.0
1.0,75.0,69.0,48.0
1.0,65.0,34.0,0.0
1.0,61.0,35.0,104.0
1.0,58.0,32.0,8.0
1.0,53.0,30.0,40.0
1.0,73.0,62.0,16.0
1.0,72.0,62.0,16.0
1.0,48.0,46.0,0.0
1.0,64.0,37.0,64.0
1.0,60.0,31.0,64.0
1.0,55.0,43.0,28.0
1.0,74.0,68.0,28.0
1.0,67.0,35.0,20.0
1.0,64.0,37.0,160.0
1.0,60.0,22.0,24.0
1.0,55.0,22.0,12.0
1.0,76.0,64.0,12.0
1.0,43.0,38.0,264.0
1.0,77.0,75.0,44.0
1.0,61.0,43.0,48.0
1.0,58.0,40.0,92.0
1.0,53.0,47.0,164.0
1.0,65.0,31.0,20.0
1.0,75.0,65.0,20.0
1.0,61.0,36.0,52.0
1.0,58.0,34.0,0.0
1.0,53.0,35.0,0.0
1.0,73.0,62.0,32.0
1.0,72.0,63.0,8.0
1.0,48.0,47.0,0.0
1.0,64.0,41.0,56.0
1.0,60.0,40.0,20.0
1.0,58.0,38.0,64.0
1.0,67.0,58.0,8.0
1.0,62.0,34.0,8.0
1.0,64.0,35.0,212.0
1.0,60.0,38.0,8.0
1.0,70.0,56.0,68.0
1.0,68.0,55.0,4.0
1.0,41.0,47.0,0.0
1.0,65.0,41.0,72.0
1.0,60.0,38.0,140.0
1.0,56.0,35.0,56.0
1.0,70.0,62.0,20.0
1.0,62.0,42.0,0.0
1.0,56.0,35.0,84.0
1.0,53.0,38.0,0.0
1.0,72.0,64.0,124.0
1.0,39.0,43.0,12.0
1.0,72.0,67.0,16.0
1.0,63.0,39.0,100.0
1.0,56.0,34.0,40.0
1.0,51.0,36.0,24.0
1.0,65.0,48.0,20.0
1.0,60.0,34.0,348.0
1.0,56.0,37.0,0.0
1.0,51.0,36.0,36.0
1.0,58.0,37.0,16.0
1.0,63.0,38.0,16.0
1.0,67.0,43.0,112.0
1.0,70.0,47.0,108.0
1.0,87.0,67.0,16.0
1.0,85.0,76.0,52.0
1.0,84.0,76.0,4.0
1.0,75.0,34.0,0.0
1.0,32.0,35.0,0.0
1.0,44.0,23.0,0.0
1.0,60.0,42.0,104.0
1.0,56.0,39.0,36.0
1.0,73.0,46.0,52.0
1.0,51.0,37.0,0.0
1.0,84.0,78.0,48.0
1.0,63.0,46.0,0.0
1.0,72.0,61.0,0.0
1.0,51.0,53.0,312.0
1.0,82.0,75.0,24.0
1.0,80.0,73.0,16.0
1.0,72.0,59.0,0.0
1.0,48.0,52.0,0.0
1.0,36.0,47.0,0.0
1.0,60.0,53.0,92.0
1.0,56.0,50.0,8.0
1.0,51.0,48.0,8.0
1.0,70.0,62.0,20.0
1.0,82.0,77.0,88.0
1.0,63.0,45.0,0.0
1.0,68.0,60.0,0.0
1.0,51.0,44.0,20.0
1.0,84.0,84.0,72.0
1.0,85.0,86.0,40.0
1.0,70.0,65.0,0.0
1.0,46.0,30.0,0.0
1.0,34.0,42.0,0.0
1.0,61.0,47.0,32.0
1.0,56.0,45.0,28.0
1.0,72.0,68.0,76.0
1.0,51.0,44.0,0.0
1.0,73.0,61.0,68.0
1.0,63.0,34.0,40.0
1.0,51.0,43.0,272.0
1.0,39.0,57.0,4.0
1.0,61.0,47.0,104.0
1.0,55.0,46.0,56.0
1.0,51.0,44.0,40.0
1.0,84.0,80.0,176.0
1.0,63.0,49.0,0.0
1.0,51.0,45.0,40.0
1.0,82.0,67.0,44.0
1.0,84.0,80.0,20.0
1.0,32.0,39.0,0.0
1.0,44.0,48.0,0.0
1.0,72.0,64.0,0.0
1.0,60.0,46.0,100.0
1.0,56.0,44.0,56.0
1.0,70.0,55.0,52.0
1.0,51.0,43.0,0.0
1.0,80.0,76.0,108.0
1.0,63.0,48.0,0.0
1.0,72.0,54.0,0.0
1.0,51.0,44.0,60.0
1.0,79.0,75.0,60.0
1.0,36.0,33.0,16.0
1.0,48.0,21.0,0.0
1.0,80.0,77.0,0.0
1.0,68.0,58.0,40.0
1.0,60.0,52.0,124.0
1.0,56.0,46.0,32.0
1.0,67.0,57.0,72.0
1.0,51.0,44.0,0.0
1.0,75.0,65.0,116.0
1.0,68.0,54.0,0.0
1.0,63.0,41.0,0.0
1.0,51.0,43.0,320.0
1.0,72.0,70.0,0.0
1.0,75.0,65.0,12.0
1.0,63.0,48.0,0.0
1.0,39.0,34.0,0.0
1.0,60.0,40.0,24.0
1.0,57.0,44.0,40.0
1.0,65.0,50.0,12.0
1.0,54.0,42.0,0.0
1.0,66.0,52.0,32.0
1.0,63.0,43.0,0.0
1.0,60.0,44.0,0.0
1.0,73.0,60.0,24.0
1.0,51.0,41.0,116.0
1.0,72.0,62.0,4.0
1.0,70.0,49.0,12.0
1.0,67.0,45.0,0.0
1.0,39.0,38.0,0.0
1.0,27.0,40.0,0.0
1.0,58.0,40.0,128.0
1.0,55.0,42.0,108.0
1.0,51.0,44.0,40.0
1.0,75.0,65.0,24.0
1.0,63.0,40.0,0.0
1.0,51.0,37.0,36.0
1.0,55.0,19.0,36.0
1.0,73.0,67.0,52.0
1.0,72.0,65.0,20.0
1.0,63.0,42.0,0.0
1.0,45.0,41.0,0.0
1.0,33.0,42.0,0.0
1.0,53.0,44.0,100.0
1.0,60.0,45.0,88.0
1.0,61.0,47.0,44.0
1.0,77.0,72.0,124.0
1.0,53.0,41.0,16.0
1.0,60.0,42.0,0.0
1.0,45.0,50.0,152.0
1.0,72.0,68.0,40.0
1.0,73.0,69.0,8.0
1.0,46.0,45.0,0.0
1.0,65.0,49.0,0.0
1.0,34.0,44.0,0.0
1.0,53.0,44.0,116.0
1.0,58.0,46.0,44.0
1.0,60.0,48.0,64.0
1.0,53.0,44.0,0.0
1.0,77.0,76.0,96.0
1.0,65.0,50.0,0.0
1.0,61.0,50.0,0.0
1.0,53.0,49.0,0.0
1.0,46.0,53.0,24.0
1.0,78.0,79.0,88.0
1.0,75.0,74.0,56.0
1.0,36.0,48.0,0.0
1.0,66.0,51.0,0.0
1.0,48.0,48.0,4.0
1.0,56.0,52.0,16.0
1.0,63.0,53.0,60.0
1.0,65.0,54.0,20.0
1.0,56.0,47.0,0.0
1.0,80.0,79.0,104.0
1.0,63.0,51.0,12.0
1.0,56.0,44.0,12.0
1.0,48.0,52.0,140.0
1.0,75.0,75.0,72.0
1.0,77.0,77.0,4.0
1.0,37.0,51.0,0.0
1.0,65.0,64.0,0.0
1.0,49.0,51.0,12.0
1.0,56.0,48.0,64.0
1.0,61.0,56.0,48.0
1.0,63.0,69.0,88.0
1.0,56.0,18.0,8.0
1.0,80.0,86.0,100.0
1.0,68.0,64.0,0.0
1.0,65.0,62.0,0.0
1.0,61.0,61.0,116.0
1.0,53.0,59.0,4.0
1.0,82.0,83.0,4.0
1.0,82.0,87.0,124.0
1.0,68.0,64.0,0.0
1.0,46.0,52.0,0.0
1.0,34.0,57.0,0.0
1.0,61.0,53.0,52.0
1.0,80.0,88.0,40.0
1.0,65.0,48.0,24.0
1.0,70.0,67.0,52.0
1.0,61.0,55.0,12.0
1.0,77.0,85.0,92.0
1.0,70.0,52.0,16.0
1.0,61.0,50.0,20.0
1.0,58.0,31.0,188.0
1.0,68.0,56.0,28.0
1.0,73.0,80.0,0.0
1.0,67.0,60.0,240.0
1.0,39.0,44.0,0.0
1.0,51.0,41.0,0.0
1.0,72.0,73.0,0.0
1.0,61.0,56.0,32.0
1.0,63.0,57.0,108.0
1.0,61.0,54.0,84.0
1.0,70.0,60.0,100.0
1.0,61.0,54.0,44.0
1.0,51.0,42.0,332.0
1.0,44.0,38.0,16.0
1.0,32.0,42.0,0.0
1.0,68.0,59.0,0.0
1.0,60.0,40.0,60.0
1.0,56.0,37.0,40.0
1.0,51.0,36.0,152.0
1.0,63.0,41.0,60.0
1.0,51.0,39.0,100.0
1.0,48.0,47.0,16.0
1.0,60.0,36.0,32.0
1.0,56.0,33.0,12.0
1.0,51.0,43.0,48.0
1.0,63.0,37.0,48.0
1.0,51.0,39.0,0.0
1.0,46.0,46.0,4.0
1.0,61.0,35.0,60.0
1.0,56.0,33.0,28.0
1.0,51.0,29.0,68.0
1.0,63.0,32.0,40.0
1.0,51.0,39.0,64.0
1.0,39.0,49.0,12.0
1.0,61.0,37.0,80.0
1.0,55.0,37.0,68.0
1.0,51.0,35.0,72.0
1.0,75.0,67.0,144.0
1.0,63.0,34.0,0.0
1.0,51.0,39.0,88.0
1.0,73.0,62.0,36.0
1.0,72.0,66.0,4.0
1.0,44.0,53.0,8.0
1.0,60.0,44.0,72.0
1.0,56.0,31.0,20.0
1.0,51.0,35.0,32.0
1.0,72.0,71.0,40.0
1.0,63.0,31.0,36.0
1.0,51.0,31.0,308.0
1.0,70.0,63.0,24.0
1.0,68.0,56.0,32.0
1.0,48.0,36.0,0.0
1.0,60.0,43.0,4.0
1.0,56.0,35.0,36.0
1.0,51.0,33.0,72.0
1.0,70.0,60.0,12.0
1.0,63.0,41.0,0.0
1.0,51.0,40.0,36.0
1.0,72.0,67.0,76.0
1.0,73.0,75.0,20.0
1.0,46.0,47.0,0.0
1.0,61.0,42.0,84.0
1.0,77.0,50.0,16.0
1.0,56.0,36.0,0.0
1.0,53.0,26.0,24.0
1.0,80.0,52.0,56.0
1.0,63.0,41.0,0.0
1.0,56.0,37.0,8.0
1.0,85.0,56.0,0.0
1.0,53.0,38.0,0.0
1.0,84.0,54.0,8.0
1.0,39.0,44.0,0.0
1.0,61.0,32.0,76.0
1.0,82.0,52.0,12.0
1.0,55.0,32.0,0.0
1.0,51.0,33.0,32.0
1.0,79.0,68.0,228.0
1.0,75.0,63.0,0.0
1.0,63.0,32.0,0.0
1.0,75.0,58.0,56.0
1.0,55.0,40.0,0.0
1.0,73.0,58.0,28.0
1.0,44.0,38.0,4.0
1.0,75.0,60.0,0.0
1.0,72.0,59.0,0.0
1.0,60.0,36.0,4.0
1.0,56.0,34.0,20.0
1.0,51.0,30.0,24.0
1.0,72.0,56.0,68.0
1.0,63.0,33.0,0.0
1.0,51.0,46.0,248.0
1.0,70.0,56.0,56.0
1.0,68.0,54.0,56.0
1.0,48.0,38.0,0.0
1.0,60.0,47.0,8.0
1.0,56.0,31.0,24.0
1.0,51.0,26.0,36.0
1.0,70.0,62.0,24.0
1.0,63.0,34.0,0.0
1.0,51.0,31.0,56.0
1.0,72.0,65.0,52.0
1.0,73.0,71.0,8.0
1.0,46.0,43.0,20.0
1.0,61.0,38.0,72.0
1.0,73.0,52.0,4.0
1.0,56.0,29.0,32.0
1.0,53.0,30.0,16.0
1.0,77.0,55.0,80.0
1.0,63.0,34.0,0.0
1.0,80.0,57.0,52.0
1.0,56.0,34.0,12.0
1.0,84.0,59.0,8.0
1.0,39.0,49.0,0.0
1.0,61.0,35.0,96.0
1.0,82.0,56.0,36.0
1.0,55.0,38.0,0.0
1.0,51.0,43.0,80.0
1.0,75.0,56.0,192.0
1.0,79.0,62.0,0.0
1.0,63.0,35.0,0.0
1.0,51.0,46.0,20.0
1.0,75.0,60.0,4.0
1.0,73.0,54.0,48.0
1.0,75.0,60.0,120.0
1.0,72.0,56.0,0.0
1.0,56.0,42.0,56.0
1.0,63.0,40.0,12.0
1.0,68.0,39.0,48.0
1.0,70.0,56.0,108.0
1.0,68.0,40.0,0.0
1.0,56.0,40.0,156.0
1.0,68.0,56.0,32.0
1.0,63.0,43.0,8.0
1.0,68.0,46.0,68.0
1.0,72.0,61.0,96.0
1.0,55.0,50.0,92.0
1.0,63.0,45.0,72.0
1.0,68.0,48.0,56.0
1.0,75.0,66.0,56.0
1.0,68.0,45.0,0.0
1.0,56.0,43.0,96.0
1.0,73.0,62.0,96.0
1.0,62.0,36.0,28.0
1.0,68.0,38.0,32.0
1.0,72.0,60.0,8.0
1.0,53.0,45.0,16.0
1.0,62.0,45.0,96.0
1.0,68.0,47.0,104.0
1.0,70.0,59.0,24.0
1.0,68.0,40.0,0.0
1.0,56.0,45.0,124.0
1.0,68.0,58.0,12.0
1.0,63.0,36.0,20.0
1.0,68.0,38.0,76.0
1.0,72.0,62.0,12.0
1.0,51.0,41.0,96.0
1.0,63.0,46.0,64.0
1.0,68.0,49.0,124.0
1.0,75.0,63.0,16.0
1.0,68.0,34.0,24.0
1.0,56.0,35.0,16.0
1.0,73.0,60.0,84.0
1.0,64.0,37.0,36.0
1.0,68.0,38.0,56.0
1.0,72.0,59.0,8.0
1.0,49.0,39.0,124.0
1.0,56.0,33.0,76.0
1.0,64.0,38.0,44.0
1.0,70.0,57.0,28.0
1.0,64.0,36.0,0.0
1.0,56.0,33.0,140.0
1.0,68.0,55.0,52.0
1.0,61.0,36.0,32.0
1.0,67.0,40.0,100.0
1.0,72.0,60.0,12.0
1.0,51.0,42.0,4.0
1.0,55.0,43.0,24.0
1.0,63.0,45.0,108.0
1.0,70.0,55.0,52.0
1.0,63.0,43.0,0.0
1.0,61.0,36.0,84.0
1.0,55.0,39.0,0.0
1.0,68.0,49.0,208.0
1.0,60.0,37.0,0.0
1.0,63.0,35.0,0.0
1.0,44.0,42.0,20.0
1.0,51.0,39.0,0.0
1.0,56.0,39.0,156.0
1.0,60.0,40.0,92.0
1.0,63.0,40.0,64.0
1.0,68.0,40.0,64.0
1.0,72.0,40.0,12.0
1.0,80.0,42.0,172.0
0.0,0.0,0.0,0.0
0.0,0.0,0.0,0.0
0.0,0.0,0.0,0.0
0.0,0.0,0.0,0.0
0.0,0.0,0.0,0.0
0.0,0.0,0.0,0.0
0.0,0.0,0.0,0.0
0.0,0.0,0.0,0.0
0.0,0.0,0.0,0.0
0.0,0.0,0.0,0.0
0.0,0.0,0.0,0.0
0.0,0.0,0.0,0.0
0.0,0.0,0.0,0.0
0.0,0.0,0.0,0.0
0.0,0.0,0.0,0.0
0.0,0.0,0.0,0.0
0.0,0.0,0.0,0.0
0.0,0.0,0.0,0.0
0.0,0.0,0.0,0.0
0.0,0.0,0.0,0.0
0.0,0.0,0.0,0.0
0.0,0.0,0.0,0.0
0.0,0.0,0.0,0.0
0.0,0.0,0.0,0.0
0.0,0.0,0.0,0.0
0.0,0.0,0.0,0.0
0.0,0.0,0.0,0.0
0.0,0.0,0.0,0.0
0.0,0.0,0.0,0.0
0.0,0.0,0.0,0.0
0.0,0.0,0.0,0.0
0.0,0.0,0.0,0.0
0.0,0.0,0.0,0.0
0.0,0.0,0.0,0.0
0.0,0.0,0.0,0.0
0.0,0.0,0.0,0.0
0.0,0.0,0.0,0.0
0.0,0.0,0.0,0.0
0.0,0.0,0.0,0.0
0.0,0.0,0.0,0.0
0.0,0.0,0.0,0.0
0.0,0.0,0.0,0.0
0.0,0.0,0.0,0.0
0.0,0.0,0.0,0.0
0.0,0.0,0.0,0.0
0.0,0.0,0.0,0.0
0.0,0.0,0.0,0.0
0.0,0.0,0.0,0.0
0.0,0.0,0.0,0.0
0.0,0.0,0.0,0.0
0.0,0.0,0.0,0.0
0.0,0.0,0.0,0.0
0.0,0.0,0.0,0.0
0.0,0.0,0.0,0.0
0.0,0.0,0.0,0.0
0.0,0.0,0.0,0.0
0.0,0.0,0.0,0.0
0.0,0.0,0.0,0.0
0.0,0.0,0.0,0.0
0.0,0.0,0.0,0.0
0.0,0.0,0.0,0.0
0.0,0.0,0.0,0.0
0.0,0.0,0.0,0.0
0.0,0.0,0.0,0.0
0.0,0.0,0.0,0.0
0.0,0.0,0.0,0.0
0.0,0.0,0.0,0.0
0.0,0.0,0.0,0.0
0.0,0.0,0.0,0.0
0.0,0.0,0.0,0.0
0.0,0.0,0.0,0.0
0.0,0.0,0.0,0.0
0.0,0.0,0.0,0.0
0.0,0.0,0.0,0.0
0.0,0.0,0.0,0.0
0.0,0.0,0.0,0.0
0.0,0.0,0.0,0.0
0.0,0.0,0.0,0.0
0.0,0.0,0.0,0.0
0.0,0.0,0.0,0.0
0.0,0.0,0.0,0.0
0.0,0.0,0.0,0.0
0.0,0.0,0.0,0.0
0.0,0.0,0.0,0.0
0.0,0.0,0.0,0.0
0.0,0.0,0.0,0.0
0.0,0.0,0.0,0.0
0.0,0.0,0.0,0.0
0.0,0.0,0.0,0.0
0.0,0.0,0.0,0.0
0.0,0.0,0.0,0.0
0.0,0.0,0.0,0.0
0.0,0.0,0.0,0.0
0.0,0.0,0.0,0.0
0.0,0.0,0.0,0.0
0.0,0.0,0.0,0.0
0.0,0.0,0.0,0.0
0.0,0.0,0.0,0.0
0.0,0.0,0.0,0.0
0.0,0.0,0.0,0.0
0.0,0.0,0.0,0.0
0.0,0.0,0.0,0.0
0.0,0.0,0.0,0.0
0.0,0.0,0.0,0.0
0.0,0.0,0.0,0.0
0.0,0.0,0.0,0.0
0.0,0.0,0.0,0.0
0.0,0.0,0.0,0.0
0.0,0.0,0.0,0.0
0.0,0.0,0.0,0.0
0.0,0.0,0.0,0.0
0.0,0.0,0.0,0.0
0.0,0.0,0.0,0.0
0.0,0.0,0.0,0.0
0.0,0.0,0.0,0.0
0.0,0.0,0.0,0.0
0.0,0.0,0.0,0.0
0.0,0.0,0.0,0.0
0.0,0.0,0.0,0.0
0.0,0.0,0.0,0.0
0.0,0.0,0.0,0.0
0.0,0.0,0.0,0.0
0.0,0.0,0.0,0.0
0.0,0.0,0.0,0.0
0.0,0.0,0.0,0.0
0.0,0.0,0.0,0.0
0.0,0.0,0.0,0.0
0.0,0.0,0.0,0.0
0.0,0.0,0.0,0.0
0.0,0.0,0.0,0.0
0.0,0.0,0.0,0.0
0.0,0.0,0.0,0.0
0.0,0.0,0.0,0.0
0.0,0.0,0.0,0.0
0.0,0.0,0.0,0.0
0.0,0.0,0.0,0.0
0.0,0.0,0.0,0.0
0.0,0.0,0.0,0.0
0.0,0.0,0.0,0.0
0.0,0.0,0.0,0.0
0.0,0.0,0.0,0.0
0.0,0.0,0.0,0.0
0.0,0.0,0.0,0.0
0.0,0.0,0.0,0.0
0.0,0.0,0.0,0.0
0.0,0.0,0.0,0.0
0.0,0.0,0.0,0.0
0.0,0.0,0.0,0.0
0.0,0.0,0.0,0.0
0.0,0.0,0.0,0.0
0.0,0.0,0.0,0.0
0.0,0.0,0.0,0.0
0.0,0.0,0.0,0.0
0.0,0.0,0.0,0.0
0.0,0.0,0.0,0.0
0.0,0.0,0.0,0.0
0.0,0.0,0.0,0.0
0.0,0.0,0.0,0.0
0.0,0.0,0.0,0.0
0.0,0.0,0.0,0.0
0.0,0.0,0.0,0.0
0.0,0.0,0.0,0.0
0.0,0.0,0.0,0.0
0.0,0.0,0.0,0.0
0.0,0.0,0.0,0.0
0.0,0.0,0.0,0.0
0.0,0.0,0.0,0.0
0.0,0.0,0.0,0.0
0.0,0.0,0.0,0.0
0.0,0.0,0.0,0.0
0.0,0.0,0.0,0.0
0.0,0.0,0.0,0.0
0.0,0.0,0.0,0.0
0.0,0.0,0.0,0.0
0.0,0.0,0.0,0.0
0.0,0.0,0.0,0.0
0.0,0.0,0.0,0.0
0.0,0.0,0.0,0.0
0.0,0.0,0.0,0.0
0.0,0.0,0.0,0.0
0.0,0.0,0.0,0.0
0.0,0.0,0.0,0.0
0.0,0.0,0.0,0.0
0.0,0.0,0.0,0.0
0.0,0.0,0.0,0.0
0.0,0.0,0.0,0.0
0.0,0.0,0.0,0.0
0.0,0.0,0.0,0.0
0.0,0.0,0.0,0.0
0.0,0.0,0.0,0.0
0.0,0.0,0.0,0.0
0.0,0.0,0.0,0.0
0.0,0.0,0.0,0.0
0.0,0.0,0.0,0.0
0.0,0.0,0.0,0.0
0.0,0.0,0.0,0.0
0.0,0.0,0.0,0.0
0.0,0.0,0.0,0.0
0.0,0.0,0.0,0.0
0.0,0.0,0.0,0.0
0.0,0.0,0.0,0.0
0.0,0.0,0.0,0.0
0.0,0.0,0.0,0.0
0.0,0.0,0.0,0.0
0.0,0.0,0.0,0.0
0.0,0.0,0.0,0.0
0.0,0.0,0.0,0.0
0.0,0.0,0.0,0.0
0.0,0.0,0.0,0.0
0.0,0.0,0.0,0.0
0.0,0.0,0.0,0.0
0.0,0.0,0.0,0.0
0.0,0.0,0.0,0.0
0.0,0.0,0.0,0.0
0.0,0.0,0.0,0.0
0.0,0.0,0.0,0.0
0.0,0.0,0.0,0.0
0.0,0.0,0.0,0.0
0.0,0.0,0.0,0.0
0.0,0.0,0.0,0.0
0.0,0.0,0.0,0.0
0.0,0.0,0.0,0.0
0.0,0.0,0.0,0.0
0.0,0.0,0.0,0.0
0.0,0.0,0.0,0.0
0.0,0.0,0.0,0.0
0.0,0.0,0.0,0.0
0.0,0.0,0.0,0.0
0.0,0.0,0.0,0.0
0.0,0.0,0.0,0.0
0.0,0.0,0.0,0.0
0.0,0.0,0.0,0.0
0.0,0.0,0.0,0.0
0.0,0.0,0.0,0.0
0.0,0.0,0.0,0.0
0.0,0.0,0.0,0.0
0.0,0.0,0.0,0.0
0.0,0.0,0.0,0.0
0.0,0.0,0.0,0.0
0.0,0.0,0.0,0.0
0.0,0.0,0.0,0.0
0.0,0.0,0.0,0.0
0.0,0.0,0.0,0.0
0.0,0.0,0.0,0.0
0.0,0.0,0.0,0.0
0.0,0.0,0.0,0.0
0.0,0.0,0.0,0.0
0.0,0.0,0.0,0.0
0.0,0.0,0.0,0.0
0.0,0.0,0.0,0.0
0.0,0.0,0.0,0.0
0.0,0.0,0.0,0.0
0.0,0.0,0.0,0.0
0.0,0.0,0.0,0.0
0.0,0.0,0.0,0.0
0.0,0.0,0.0,0.0
0.0,0.0,0.0,0.0
0.0,0.0,0.0,0.0
0.0,0.0,0.0,0.0
0.0,0.0,0.0,0.0
0.0,0.0,0.0,0.0
0.0,0.0,0.0,0.0
0.0,0.0,0.0,0.0
0.0,0.0,0.0,0.0
0.0,0.0,0.0,0.0
0.0,0.0,0.0,0.0
0.0,0.0,0.0,0.0
0.0,0.0,0.0,0.0
0.0,0.0,0.0,0.0
0.0,0.0,0.0,0.0
0.0,0.0,0.0,0.0
0.0,0.0,0.0,0.0
0.0,0.0,0.0,0.0
0.0,0.0,0.0,0.0
0.0,0.0,0.0,0.0
0.0,0.0,0.0,0.0
0.0,0.0,0.0,0.0
0.0,0.0,0.0,0.0
0.0,0.0,0.0,0.0
0.0,0.0,0.0,0.0
0.0,0.0,0.0,0.0
0.0,0.0,0.0,0.0
0.0,0.0,0.0,0.0
0.0,0.0,0.0,0.0
0.0,0.0,0.0,0.0
0.0,0.0,0.0,0.0
0.0,0.0,0.0,0.0
