track,note,velocity,time
1,62,69,237
1,67,80,3
1,62,0,1
1,67,0,235
1,70,71,4
1,74,80,115
1,70,0,1
1,74,0,231
1,79,75,6
1,82,79,0
1,79,0,2
1,82,0,174
1,81,73,8
1,79,79,54
1,70,78,6
1,81,0,1
1,79,0,113
1,70,0,1
1,81,79,0
1,69,78,239
1,81,0,1
1,74,71,0
1,69,0,1
1,74,0,3
1,74,81,0
1,65,74,121
1,74,0,54
1,72,72,2
1,72,0,58
1,65,0,1
1,76,69,3
1,64,69,3
1,64,0,115
1,76,0,1
1,74,75,0
1,65,71,123
1,74,0,52
1,72,71,8
1,65,0,56
1,72,0,4
1,76,79,0
1,64,74,0
1,66,74,0
1,74,75,2
1,64,0,2
1,76,0,0
1,66,0,353
1,66,72,3
1,66,0,117
1,74,0,1
1,62,73,123
1,67,79,117
1,62,0,3
1,70,75,234
1,67,0,2
1,70,0,114
1,74,78,2
1,74,0,236
1,77,75,3
1,77,0,115
1,80,75,1
1,68,80,2
1,80,0,173
1,79,74,6
1,79,0,57
1,77,73,6
1,68,0,113
1,79,72,2
1,67,78,0
1,77,0,3
1,67,0,231
1,79,0,1
1,67,78,5
1,65,78,1
1,65,0,116
1,67,0,0
1,67,79,1
1,64,77,1
1,67,0,174
1,66,78,5
1,66,0,55
1,64,0,1
1,69,77,0
1,63,79,1
1,63,0,117
1,69,0,0
1,67,81,1
1,62,77,0
1,66,71,177
1,67,0,3
1,70,74,55
1,62,0,1
1,66,0,1
1,66,72,1
1,70,0,112
1,66,0,1
1,67,82,0
1,67,0,115
1,67,75,4
1,70,78,239
1,67,0,1
1,70,0,115
1,74,80,1
1,79,79,234
1,67,79,0
1,74,0,3
1,79,0,114
1,67,0,1
1,70,78,2
1,82,80,2
1,69,72,175
1,82,0,1
1,70,0,0
1,81,72,2
1,69,0,58
1,79,78,0
1,81,0,3
1,67,69,0
1,79,0,112
1,67,0,4
1,81,75,0
1,69,72,1
1,81,0,233
1,74,77,2
1,69,0,3
1,74,0,117
1,74,74,1
1,74,0,120
1,65,69,2
1,72,79,60
1,64,72,59
1,72,0,1
1,76,72,0
1,65,0,1
1,76,0,1
1,64,0,0
1,74,78,1
1,65,77,116
1,72,78,61
1,74,0,2
1,72,0,54
1,65,0,1
1,76,77,3
1,64,74,0
1,64,0,2
1,76,0,0
1,66,81,0
1,74,75,3
1,66,0,355
1,74,0,1
1,62,74,117
1,62,0,116
1,67,79,3
1,67,0,234
1,70,79,4
1,70,0,116
1,74,79,1
1,74,0,239
1,77,69,0
1,77,0,118
1,80,80,3
1,68,78,1
1,80,0,176
1,79,77,1
1,79,0,58
1,68,0,1
1,77,75,3
1,79,78,116
1,77,0,3
1,67,75,0
1,77,72,235
1,79,0,1
1,67,0,3
1,67,71,0
1,77,0,112
1,67,0,4
1,67,78,0
1,76,82,0
1,66,74,176
1,67,0,3
1,76,0,56
1,66,0,2
1,75,79,3
1,69,77,2
1,75,0,1
1,74,75,0
1,69,0,1
1,67,73,2
1,66,75,175
1,67,0,3
1,66,0,54
1,74,0,3
1,70,69,4
1,66,74,2
1,70,0,114
1,66,0,2
1,67,81,1
1,67,0,120
1,71,91,0
1,67,87,1
1,71,0,175
1,67,91,3
1,67,0,60
1,69,82,1
1,70,93,0
1,69,0,2
1,67,0,120
1,72,88,54
1,70,0,1
1,72,0,58
1,73,84,5
1,73,0,116
1,65,86,1
1,74,90,4
1,74,0,180
1,75,91,1
1,65,0,50
1,77,88,7
1,75,0,3
1,79,85,114
1,77,0,2
1,79,0,232
1,74,90,8
1,74,0,115
1,70,94,0
1,67,92,2
1,70,0,176
1,67,82,0
1,67,0,60
1,69,82,6
1,69,0,4
1,70,92,0
1,70,0,178
1,72,86,0
1,72,0,59
1,73,82,0
1,67,0,117
1,73,0,1
1,66,93,1
1,74,91,3
1,66,0,174
1,67,84,0
1,74,0,4
1,76,85,1
1,67,0,55
1,69,88,0
1,78,87,2
1,76,0,1
1,69,0,112
1,79,91,2
1,67,91,1
1,78,0,1
1,79,0,25
1,71,67,2
1,67,0,1
1,67,63,0
1,71,0,174
1,67,0,6
1,67,61,2
1,67,0,55
1,69,66,2
1,69,0,118
1,70,60,1
1,70,0,176
1,72,62,5
1,72,0,55
1,73,63,4
1,73,0,116
1,65,62,0
1,74,66,1
1,75,67,178
1,74,0,3
1,75,0,56
1,65,0,0
1,77,67,0
1,77,0,115
1,79,65,1
1,79,0,234
1,74,61,4
1,74,0,4
1,67,66,0
1,70,67,1
1,67,66,177
1,70,0,4
1,67,0,52
1,69,60,5
1,69,0,117
1,70,65,0
1,70,0,173
1,72,60,7
1,73,67,59
1,72,0,2
1,73,0,114
1,67,0,1
1,66,69,1
1,74,65,1
1,74,0,175
1,66,0,0
1,67,59,2
1,76,63,2
1,76,0,57
1,67,0,1
1,69,66,2
1,78,65,1
1,69,0,114
1,67,65,1
1,78,0,1
1,79,63,2
1,67,0,232
1,79,0,4
1,79,98,0
1,75,90,1
1,67,98,1
1,79,0,53
1,67,0,2
1,74,93,0
1,70,88,0
1,75,0,1
1,62,92,0
1,70,0,58
1,62,0,4
1,74,0,0
1,73,75,2
1,82,71,2
1,79,77,1
1,73,0,112
1,79,0,5
1,78,67,0
1,82,0,2
1,81,71,1
1,81,0,1
1,78,0,0
1,82,73,0
1,79,67,2
1,79,0,118
1,82,0,1
1,81,68,0
1,69,70,1
1,75,74,1
1,75,0,114
1,79,74,2
1,69,0,2
1,81,0,0
1,76,68,0
1,76,0,59
1,79,0,0
1,74,67,1
1,78,69,3
1,74,0,1
1,67,96,0
1,79,96,0
1,78,0,1
1,75,97,0
1,70,94,1
1,74,93,0
1,75,0,1
1,79,0,1
1,62,90,0
1,67,0,1
1,70,0,55
1,74,0,1
1,62,0,2
1,72,71,27
1,69,70,1
1,60,70,1
1,72,0,116
1,69,0,2
1,66,73,1
1,60,0,3
1,69,73,1
1,69,0,1
1,66,0,1
1,70,67,0
1,61,70,0
1,67,67,1
1,61,0,115
1,70,0,0
1,57,72,1
1,66,69,3
1,67,0,1
1,69,68,1
1,57,0,3
1,69,0,3
1,62,72,1
1,66,0,1
1,62,0,6
1,66,72,4
1,66,0,20
1,69,70,4
1,74,66,2
1,69,0,4
1,74,0,52
1,75,91,0
1,67,96,3
1,79,93,2
1,75,0,47
1,74,90,5
1,67,0,2
1,62,90,0
1,79,0,2
1,70,91,0
1,62,0,58
1,74,0,1
1,70,0,1
1,82,75,1
1,79,74,2
1,73,75,2
1,82,0,116
1,78,70,1
1,79,0,2
1,73,0,1
1,81,67,1
1,78,0,51
1,81,0,5
1,79,72,2
1,82,74,1
1,82,0,115
1,81,76,0
1,79,0,3
1,69,71,0
1,78,69,1
1,81,0,120
1,79,67,0
1,75,74,2
1,78,0,1
1,69,0,0
1,79,0,52
1,75,0,5
1,78,70,4
1,74,74,0
1,75,75,1
1,67,70,0
1,78,0,4
1,74,0,1
1,79,70,0
1,75,0,353
1,67,0,1
1,62,71,2
1,74,76,0
1,79,0,1
1,70,68,0
1,74,0,238
1,62,0,0
1,70,0,2
1,72,78,3
1,68,72,3
1,72,0,175
1,68,68,4
1,68,0,1
1,70,72,0
1,68,0,1
1,67,69,0
1,70,0,115
1,66,73,2
1,67,0,1
1,72,69,0
1,66,0,174
1,64,71,6
1,72,0,57
1,74,70,0
1,66,70,2
1,64,0,1
1,62,71,0
1,74,0,111
1,62,0,4
1,66,0,0
1,67,75,1
1,70,73,236
1,67,0,3
1,70,0,113
1,74,75,1
1,74,0,235
1,79,71,6
1,79,0,116
1,82,76,1
1,82,0,175
1,81,71,1
1,81,0,61
1,79,69,3
1,81,69,117
1,79,0,2
1,81,0,231
1,74,72,8
1,74,0,118
1,74,74,3
1,65,74,119
1,74,0,56
1,65,0,1
1,72,68,0
1,72,0,55
1,64,71,0
1,76,67,3
1,76,0,53
1,64,0,0
1,74,74,63
1,65,71,57
1,65,0,57
1,74,0,3
1,72,69,0
1,72,0,57
1,76,70,0
1,64,66,1
1,76,0,51
1,64,0,1
1,66,75,67
1,74,76,1
1,74,0,357
1,66,0,0
1,74,73,3
1,74,0,121
1,62,72,116
1,62,0,115
1,67,77,1
1,67,0,235
1,70,67,5
1,70,0,1
1,74,73,2
1,74,0,235
1,77,73,3
1,77,0,119
1,80,78,4
1,68,75,0
1,80,0,175
1,79,72,0
1,79,0,59
1,77,66,6
1,77,0,1
1,68,0,1
1,67,76,1
1,79,74,1
1,67,0,236
1,79,0,1
1,65,71,0
1,67,68,3
1,67,0,1
1,65,0,0
1,67,72,0
1,64,71,2
1,66,66,175
1,67,0,3
1,66,0,54
1,64,0,3
1,69,73,0
1,63,73,1
1,69,0,113
1,63,0,2
1,62,69,2
1,67,74,1
1,66,68,176
1,67,0,4
1,66,0,53
1,66,66,2
1,62,0,3
1,70,66,0
1,66,0,114
1,70,0,2
1,67,75,0
1,67,0,354
1,67,77,362
1,55,70,61
1,58,70,17
1,63,69,18
1,63,0,617
1,58,0,1
1,67,0,1
1,67,72,1
1,55,0,1
1,55,70,56
1,58,70,26
1,63,67,20
1,55,0,613
1,87,72,0
1,67,0,3
1,63,0,0
1,58,0,2
1,87,0,170
1,86,72,8
1,84,68,55
1,86,0,6
1,84,0,112
1,82,75,7
1,82,0,177
1,80,74,4
1,79,73,54
1,80,0,5
1,79,0,1
1,77,76,3
1,67,72,0
1,77,0,175
1,79,74,5
1,79,0,56
1,76,67,0
1,76,0,115
1,77,68,1
1,77,0,177
1,73,73,4
1,73,0,3
1,74,70,2
1,67,0,114
1,75,75,3
1,74,0,2
1,67,78,0
1,75,0,175
1,77,66,3
1,74,73,58
1,77,0,1
1,74,0,114
1,67,0,4
1,65,70,2
1,75,73,0
1,75,0,174
1,71,66,1
1,71,0,58
1,73,70,5
1,65,0,2
1,75,72,0
1,73,0,1
1,67,72,0
1,67,0,355
1,75,0,0
1,67,76,6
1,63,72,0
1,63,0,236
1,67,0,2
1,68,71,0
1,68,0,115
1,62,73,0
1,65,74,0
1,70,71,3
1,62,0,111
1,65,0,5
1,82,77,2
1,89,74,1
1,70,0,1
1,77,74,0
1,82,0,174
1,87,69,1
1,89,0,4
1,77,0,2
1,87,0,52
1,86,72,7
1,84,72,115
1,86,0,1
1,84,0,172
1,82,71,4
1,82,0,58
1,80,69,5
1,80,0,117
1,79,70,1
1,79,0,174
1,74,72,1
1,74,0,60
1,76,66,1
1,76,0,1
1,78,73,3
1,78,0,177
1,79,73,0
1,79,0,57
1,82,70,4
1,65,73,0
1,77,76,2
1,82,0,1
1,70,74,1
1,70,0,355
1,77,0,2
1,70,75,1
1,65,0,349
1,70,0,2
1,89,74,0
1,77,78,0
1,82,73,1
1,77,0,176
1,82,0,3
1,89,0,0
1,87,71,1
1,87,0,58
1,86,67,1
1,86,0,115
1,84,71,4
1,84,0,177
1,82,67,3
1,82,0,56
1,80,72,3
1,80,0,117
1,79,78,1
1,76,71,178
1,79,0,3
1,76,0,53
1,78,66,1
1,79,70,115
1,78,0,1
1,79,0,171
1,80,66,9
1,82,71,56
1,80,0,1
1,82,0,111
1,87,71,0
1,87,0,356
1,75,75,2
1,75,0,356
1,75,77,1
1,67,75,4
1,75,0,171
1,86,72,4
1,86,0,55
1,84,73,7
1,84,0,118
1,82,68,2
1,80,67,179
1,82,0,2
1,80,0,58
1,79,72,3
1,79,0,2
1,77,75,0
1,67,0,2
1,67,71,0
1,77,0,179
1,79,66,0
1,79,0,2
1,76,67,1
1,76,0,118
1,77,73,0
1,77,0,177
1,73,69,3
1,73,0,1
1,74,68,3
1,75,73,116
1,74,0,1
1,67,0,0
1,67,75,0
1,75,0,172
1,77,73,3
1,77,0,60
1,74,73,0
1,74,0,114
1,65,73,0
1,67,0,3
1,75,72,0
1,71,73,177
1,75,0,2
1,71,0,53
1,75,74,4
1,75,0,111
1,65,0,3
1,67,73,1
1,79,71,1
1,72,75,1
1,79,0,356
1,66,69,1
1,67,0,2
1,72,0,2
1,69,70,0
1,71,73,179
1,71,0,56
1,73,66,4
1,66,0,4
1,73,0,1
1,75,73,1
1,69,0,1
1,75,0,177
1,73,71,3
1,73,0,55
1,75,68,2
1,67,70,117
1,70,70,0
1,75,0,1
1,77,72,2
1,77,0,18
1,75,66,5
1,77,73,1
1,75,0,1
1,67,0,113
1,70,0,1
1,77,0,3
1,79,81,0
1,67,87,0
1,72,82,1
1,72,0,355
1,79,0,1
1,67,0,3
1,66,85,1
1,69,86,3
1,71,82,174
1,71,0,61
1,73,81,5
1,66,0,112
1,69,0,3
1,75,82,0
1,69,87,1
1,66,83,0
1,73,0,1
1,75,0,173
1,73,83,9
1,73,0,57
1,75,78,4
1,69,0,112
1,66,0,4
1,67,86,1
1,75,0,2
1,77,80,0
1,70,82,1
1,77,0,21
1,75,76,2
1,77,76,23
1,75,0,1
1,77,0,112
1,67,0,5
1,67,90,0
1,75,93,0
1,79,94,0
1,70,0,2
1,75,0,53
1,74,90,1
1,62,90,1
1,67,0,2
1,79,0,1
1,70,96,0
1,62,0,58
1,74,0,2
1,70,0,2
1,82,71,31
1,73,78,2
1,79,71,2
1,82,0,116
1,73,0,2
1,79,0,2
1,81,66,4
1,78,66,0
1,73,74,1
1,81,0,1
1,82,66,3
1,79,69,0
1,78,0,2
1,73,0,111
1,69,76,5
1,82,0,1
1,79,0,1
1,78,71,2
1,81,71,0
1,75,70,115
1,69,0,3
1,81,0,2
1,79,73,0
1,78,0,1
1,75,0,54
1,74,72,3
1,78,73,1
1,79,0,2
1,74,0,112
1,78,0,2
1,75,92,0
1,67,90,2
1,79,93,2
1,67,0,50
1,79,0,1
1,75,0,1
1,74,92,1
1,70,96,1
1,62,91,1
1,70,0,61
1,74,0,2
1,62,0,4
1,60,72,0
1,69,75,1
1,72,72,2
1,69,0,120
1,72,0,2
1,69,72,1
1,66,74,0
1,66,0,57
1,60,0,1
1,61,66,0
1,67,74,0
1,69,0,2
1,70,69,1
1,61,0,111
1,67,0,4
1,69,76,0
1,66,73,1
1,70,0,1
1,57,75,2
1,69,0,4
1,62,71,0
1,66,0,1
1,57,0,5
1,62,0,28
1,66,67,1
1,66,0,18
1,69,68,0
1,69,0,3
1,74,69,6
1,75,93,31
1,67,90,0
1,79,90,1
1,74,0,1
1,75,0,46
1,67,0,1
1,79,0,2
1,62,88,0
1,74,93,2
1,70,95,2
1,74,0,62
1,62,0,3
1,70,0,5
1,82,77,31
1,73,76,0
1,79,75,1
1,73,0,115
1,79,0,1
1,82,0,0
1,81,73,2
1,78,70,4
1,81,0,53
1,82,72,1
1,78,0,1
1,73,72,0
1,79,67,2
1,73,0,113
1,79,0,3
1,82,0,0
1,81,74,0
1,78,74,3
1,69,68,0
1,81,0,112
1,69,0,6
1,76,71,1
1,78,0,1
1,79,73,1
1,76,0,54
1,79,0,6
1,78,72,0
1,74,66,0
1,75,78,114
1,79,74,0
1,78,0,4
1,74,0,1
1,67,70,0
1,79,0,352
1,75,0,1
1,62,76,2
1,70,69,0
1,74,70,2
1,67,0,1
1,70,0,234
1,74,0,1
1,62,0,3
1,68,72,117
1,72,75,1
1,68,74,176
1,72,0,3
1,68,0,52
1,68,0,3
1,70,69,1
1,67,72,0
1,70,0,1
1,72,69,0
1,66,69,0
1,67,0,5
1,66,0,12
1,64,68,5
1,64,0,18
1,72,0,0
1,62,66,2
1,66,74,0
1,74,70,2
1,66,0,1
1,62,0,0
1,74,0,3
1,67,68,0
1,67,0,235
1,70,59,5
1,70,0,115
1,74,58,1
1,74,0,237
1,79,63,1
1,79,0,115
1,82,61,5
1,82,0,172
1,81,64,7
1,81,0,55
1,70,63,1
1,79,62,4
1,79,0,1
1,70,0,0
1,81,59,3
1,81,0,238
1,69,56,0
1,74,60,1
1,74,0,116
1,69,0,4
1,74,66,0
1,65,57,119
1,65,0,51
1,72,59,7
1,74,0,4
1,72,0,52
1,76,58,2
1,64,64,1
1,64,0,54
1,76,0,0
