track,note,velocity,time
1,77,111,572
1,72,106,4
1,89,115,0
1,65,75,0
1,84,103,2
1,69,54,2
1,89,115,32
1,77,119,4
1,84,102,0
1,65,62,4
1,69,73,2
1,72,106,0
1,67,99,58
1,69,82,2
1,84,114,4
1,91,119,0
1,72,110,0
1,79,115,0
1,48,72,238
1,41,91,188
1,57,54,184
1,53,61,172
1,48,84,44
1,53,61,138
1,81,82,2
1,93,69,44
1,69,55,4
1,84,64,2
1,77,80,64
1,60,64,12
1,89,71,62
1,84,50,6
1,69,52,0
1,65,64,2
1,76,87,48
1,41,66,14
1,84,59,42
1,88,38,0
1,69,62,0
1,64,60,4
1,72,87,48
1,48,70,12
1,84,78,44
1,69,64,12
1,60,59,0
1,57,75,50
1,74,87,4
1,62,52,36
1,86,70,0
1,84,68,0
1,76,117,84
1,88,111,2
1,72,106,2
1,70,115,0
1,84,95,4
1,64,105,0
1,88,100,26
1,84,91,4
1,76,103,8
1,64,102,2
1,72,103,0
1,70,107,4
1,89,120,48
1,84,110,0
1,70,105,0
1,77,103,4
1,72,110,0
1,65,111,0
1,48,88,232
1,43,83,180
1,58,79,190
1,53,62,188
1,48,78,22
1,79,83,20
1,58,78,4
1,91,76,48
1,70,72,2
1,67,60,4
1,84,67,2
1,60,63,68
1,76,91,8
1,88,85,32
1,70,81,0
1,84,77,0
1,64,53,8
1,74,97,62
1,43,86,2
1,86,89,40
1,84,81,4
1,64,70,8
1,62,67,2
1,70,104,54
1,48,70,28
1,58,78,30
1,64,61,0
1,82,95,0
1,72,99,48
1,58,80,10
1,84,81,54
1,60,78,6
1,64,75,2
1,69,94,64
1,74,93,0
1,41,73,8
1,74,92,54
1,69,85,8
1,62,63,8
1,57,52,0
1,76,102,66
1,57,46,8
1,64,43,60
1,77,122,48
1,48,65,12
1,65,85,54
1,43,94,78
1,70,86,10
1,58,84,38
1,74,103,108
1,58,95,0
1,62,63,72
1,76,110,52
1,48,83,14
1,64,82,62
1,45,101,60
1,77,113,2
1,72,106,4
1,77,113,32
1,72,108,0
1,65,87,12
1,60,59,4
1,60,70,62
1,79,120,0
1,67,95,36
1,81,123,42
1,53,84,34
1,69,92,54
1,74,115,60
1,47,84,2
1,62,94,62
1,62,28,64
1,77,116,4
1,65,80,58
1,79,117,70
1,53,76,6
1,67,66,24
1,48,87,74
1,81,113,8
1,76,108,4
1,81,113,42
1,69,79,8
1,76,119,0
1,83,115,42
1,64,87,8
1,71,82,68
1,84,124,14
1,57,83,8
1,72,91,68
1,77,115,52
1,50,83,14
1,65,87,60
1,81,119,98
1,65,87,6
1,69,95,46
1,57,75,74
1,83,108,24
1,71,55,46
1,88,106,80
1,76,111,6
1,69,106,8
1,64,95,2
1,45,88,2
1,61,88,0
1,52,83,4
1,61,86,146
1,73,102,2
1,62,85,10
1,74,111,0
1,64,91,4
1,76,111,8
1,77,112,68
1,65,90,0
1,79,114,34
1,48,98,0
1,64,94,2
1,67,107,0
1,36,87,2
1,62,88,64
1,81,112,2
1,69,109,4
1,60,90,64
1,70,110,0
1,82,117,0
1,72,111,22
1,84,120,2
1,58,100,2
1,86,116,12
1,57,92,4
1,74,113,0
1,76,111,52
1,88,117,2
1,55,99,2
1,77,109,62
1,89,113,0
1,77,120,2
1,65,87,0
1,69,85,0
1,72,100,0
1,84,94,0
1,69,81,26
1,65,89,2
1,89,117,0
1,72,98,0
1,84,88,2
1,77,116,0
1,72,111,56
1,69,95,0
1,67,110,0
1,84,115,4
1,91,120,0
1,79,115,0
1,48,82,126
1,41,91,174
1,57,83,194
1,53,66,52
1,81,83,4
1,93,81,16
1,84,70,12
1,69,53,2
1,48,79,66
1,77,98,4
1,89,85,38
1,65,58,4
1,69,54,0
1,84,80,0
1,79,88,64
1,57,52,10
1,91,78,46
1,69,44,4
1,84,63,2
1,67,50,2
1,60,76,62
1,76,75,0
1,69,53,58
1,64,43,2
1,88,67,2
1,84,63,0
1,41,58,58
1,77,77,0
1,69,48,52
1,65,55,6
1,89,71,0
1,84,58,4
1,72,79,82
1,48,53,0
1,84,82,42
1,69,56,6
1,60,41,6
1,74,83,52
1,57,65,10
1,69,29,60
1,86,78,2
1,84,72,0
1,62,39,0
1,88,111,56
1,76,109,2
1,72,104,0
1,64,106,2
1,84,103,0
1,70,117,2
1,64,101,40
1,88,94,0
1,84,91,0
1,70,95,0
1,76,120,0
1,72,98,6
1,70,108,38
1,89,120,2
1,84,115,0
1,77,111,4
1,65,114,0
1,72,95,4
1,48,91,70
1,43,89,180
1,58,90,106
1,53,67,26
1,79,68,2
1,70,68,50
1,67,65,4
1,91,66,0
1,84,64,4
1,76,79,60
1,48,52,4
1,88,77,40
1,84,66,6
1,70,54,10
1,64,41,0
1,77,83,40
1,58,68,10
1,89,80,42
1,70,53,4
1,84,67,0
1,65,35,6
1,60,67,40
1,74,68,8
1,84,72,54
1,70,64,2
1,86,73,2
1,62,40,4
1,43,51,60
1,76,78,4
1,84,66,32
1,88,78,4
1,64,65,2
1,70,90,74
1,48,55,6
1,58,66,2
1,64,37,10
1,82,85,6
1,72,94,44
1,58,62,2
1,84,91,24
1,64,53,6
1,60,47,2
1,69,73,58
1,74,62,4
1,41,58,2
1,74,90,54
1,69,79,8
1,62,47,2
1,57,36,0
1,57,45,62
1,77,105,0
1,65,59,62
1,48,53,66
1,76,104,14
1,64,57,36
1,43,77,72
1,58,82,64
1,74,95,66
1,58,47,10
1,62,48,84
1,72,94,44
1,48,68,4
1,60,59,70
1,71,87,38
1,65,88,8
1,44,82,6
1,71,94,48
1,65,93,2
1,59,58,12
1,53,41,0
1,76,108,40
1,53,85,12
1,64,65,84
1,74,104,68
1,59,72,16
1,62,63,78
1,45,83,68
1,53,49,76
1,53,71,50
1,72,99,4
1,60,51,38
1,60,61,58
1,71,88,10
1,59,40,26
1,57,70,104
1,69,93,2
1,64,81,2
1,67,100,96
1,66,94,88
1,47,72,6
1,67,99,0
1,35,61,88
1,55,65,0
1,69,108,10
1,71,100,90
1,72,117,8
1,53,84,30
1,74,109,66
1,55,77,84
1,76,110,4
1,77,110,4
1,79,108,110
1,43,62,0
1,62,73,8
1,81,116,60
1,83,116,34
1,71,102,10
1,55,84,2
1,62,78,0
1,69,91,0
1,65,81,0
1,67,95,4
1,48,85,4
1,84,107,54
1,72,107,10
1,43,63,0
1,60,63,2
1,64,63,2
1,36,67,40
1,72,111,246
1,52,94,48
1,55,91,0
1,33,51,2
1,84,125,0
1,45,51,0
1,67,98,68
1,64,93,6
1,84,123,46
1,72,118,4
1,66,92,16
1,62,85,4
1,84,112,48
1,72,98,12
1,83,109,214
1,71,92,8
1,38,31,0
1,50,35,2
1,64,78,2
1,60,53,0
1,67,98,2
1,79,111,0
1,69,110,66
1,81,117,10
1,69,104,50
1,81,113,0
1,64,63,26
1,67,72,4
1,66,79,24
1,62,75,4
1,60,56,154
1,81,103,4
1,82,111,80
1,79,114,46
1,64,73,2
1,81,119,34
1,82,120,64
1,53,92,20
1,50,87,4
1,43,46,2
1,31,50,0
1,62,101,128
1,65,101,4
1,70,113,120
1,82,121,0
1,64,90,134
1,60,79,2
1,82,100,58
1,70,35,2
1,81,110,204
1,69,101,0
1,62,50,4
1,65,94,0
1,77,105,0
1,58,55,0
1,48,29,0
1,36,29,2
1,79,104,22
1,67,98,2
1,79,97,28
1,67,100,4
1,62,52,166
1,65,58,0
1,60,44,8
1,64,51,2
1,58,57,196
1,79,74,6
1,81,87,10
1,58,58,32
1,62,58,4
1,77,89,8
1,79,89,66
1,52,65,0
1,81,85,0
1,41,45,6
1,76,85,10
1,57,63,4
1,60,46,160
1,58,49,198
1,48,34,6
1,36,30,0
1,74,83,96
1,64,47,4
1,72,91,94
1,74,84,98
1,76,109,26
1,41,36,6
1,52,51,0
1,81,87,2
1,57,47,20
1,76,89,14
1,60,62,176
1,58,62,56
1,48,26,14
1,36,24,4
1,64,72,92
1,74,75,6
1,72,92,94
1,62,69,8
1,74,87,10
1,76,92,34
1,52,52,106
1,41,46,4
1,81,67,2
1,76,70,8
1,74,78,90
1,57,39,16
1,72,91,4
1,60,48,10
1,74,83,4
1,76,98,98
1,42,49,0
1,52,54,2
1,30,47,4
1,81,87,0
1,69,67,12
1,74,98,38
1,60,36,8
1,57,25,8
1,72,102,60
1,74,100,34
1,52,52,14
1,76,106,66
1,82,101,74
1,70,92,0
1,43,83,6
1,31,89,0
1,76,91,62
1,74,105,80
1,58,72,10
1,72,108,44
1,60,79,6
1,74,115,2
1,76,114,10
1,44,94,38
1,52,67,2
1,32,95,0
1,83,95,8
1,71,92,4
1,76,113,82
1,74,112,54
1,59,69,4
1,62,75,6
1,72,114,54
1,52,94,0
1,74,112,2
1,76,114,24
1,55,92,54
1,45,97,0
1,52,88,0
1,33,90,4
1,84,125,4
1,67,109,82
1,64,103,2
1,84,123,110
1,72,119,2
1,66,99,128
1,62,94,4
1,84,116,62
1,72,97,2
1,71,90,198
1,83,101,0
1,38,37,12
1,50,49,0
1,67,109,0
1,64,74,0
1,60,51,0
1,79,111,2
1,69,108,8
1,81,120,0
1,81,114,42
1,69,108,2
1,64,71,18
1,67,64,0
1,66,63,20
1,62,60,0
1,60,49,136
1,81,97,4
1,82,106,98
1,64,71,8
1,79,111,4
1,81,114,52
1,53,91,110
1,50,89,2
1,82,115,4
1,43,48,0
1,31,55,8
1,65,101,44
1,62,90,6
1,82,121,66
1,70,108,4
1,64,85,30
1,60,64,6
1,82,112,34
1,70,84,6
1,81,106,200
1,69,95,4
1,65,91,0
1,36,35,4
1,62,55,0
1,58,58,0
1,48,34,0
1,77,101,4
1,79,106,54
1,67,106,2
1,79,98,40
1,67,99,6
1,62,57,2
1,65,58,2
1,60,42,14
1,64,55,2
1,58,62,194
1,79,78,4
1,81,85,14
1,77,88,2
1,62,40,0
1,79,83,64
1,77,27,76
1,56,35,32
1,49,40,4
1,80,64,2
1,82,84,10
1,80,68,26
1,82,68,18
1,80,59,10
1,72,59,20
1,82,53,22
1,53,27,4
1,80,48,12
1,82,55,18
1,80,54,0
1,56,35,50
1,82,56,18
1,80,59,6
1,82,52,12
1,80,60,14
1,54,34,2
1,68,59,0
1,44,32,4
1,82,67,30
1,80,72,8
1,82,68,6
1,60,64,18
1,80,59,12
1,70,72,4
1,82,66,4
1,68,70,24
1,80,63,2
1,58,74,48
1,82,59,2
1,70,85,0
1,80,57,12
1,72,87,10
1,82,47,12
1,80,47,8
1,56,48,2
1,77,83,0
1,82,49,6
1,49,37,6
1,80,45,14
1,82,46,24
1,80,48,8
1,72,79,0
1,82,46,0
1,53,40,0
1,80,49,12
1,82,50,20
1,80,54,6
1,56,35,34
1,82,58,0
1,80,59,4
1,82,62,18
1,80,61,8
1,68,70,4
1,54,40,4
1,44,29,6
1,82,73,0
1,80,65,4
1,82,66,4
1,80,65,4
1,70,66,22
1,60,48,0
1,82,68,42
1,68,58,26
1,80,60,6
1,82,78,50
1,70,71,18
1,80,65,32
1,82,82,28
1,72,77,14
1,80,47,4
1,82,65,0
1,77,68,4
1,56,41,0
1,49,49,6
1,80,57,16
1,72,68,0
1,82,67,24
1,80,60,24
1,70,67,4
1,53,30,26
1,82,72,8
1,68,60,0
1,80,58,8
1,82,66,52
1,70,60,8
1,80,60,8
1,56,29,6
1,82,57,44
1,72,57,24
1,80,68,10
1,82,50,22
1,77,63,2
1,65,84,10
1,50,43,2
1,56,34,2
1,80,77,24
1,82,82,10
1,80,66,14
1,82,73,18
1,70,63,0
1,80,61,16
1,53,36,12
1,82,62,22
1,68,51,0
1,80,60,0
1,82,66,12
1,80,68,4
1,70,66,10
1,56,50,4
1,82,74,8
1,72,66,4
1,80,69,0
1,82,82,2
1,80,88,0
1,66,103,12
1,78,75,4
1,51,54,8
1,82,101,28
1,80,95,38
1,72,60,18
1,82,107,22
1,80,96,6
1,70,69,26
1,54,42,6
1,82,102,4
1,80,95,38
1,68,65,16
1,82,112,20
1,80,97,4
1,70,83,4
1,56,50,8
1,82,108,2
1,80,103,38
1,72,79,2
1,66,103,4
1,44,77,2
1,78,84,0
1,84,117,4
1,86,103,14
1,72,74,40
1,84,95,2
1,86,94,12
1,70,87,36
1,50,80,0
1,84,98,4
1,86,92,56
1,68,83,12
1,84,97,24
1,86,96,40
1,70,96,22
1,56,81,2
1,84,99,4
1,72,93,4
1,67,94,134
1,91,113,0
1,36,85,0
1,76,114,2
1,69,91,26
1,93,114,0
1,77,106,4
1,43,67,16
1,91,111,26
1,67,98,6
1,76,97,8
1,48,72,14
1,89,118,40
1,65,101,4
1,74,101,6
1,43,63,14
1,88,115,22
1,48,78,0
1,72,98,4
1,64,97,4
1,43,71,6
1,31,108,84
1,36,79,106
1,71,84,0
1,62,80,0
1,86,105,4
1,43,72,0
1,72,109,0
1,64,91,2
1,88,113,8
1,36,79,24
1,74,106,2
1,89,117,4
1,65,102,0
1,43,72,68
1,76,99,2
1,91,113,0
1,67,102,0
1,36,79,60
1,36,91,70
1,43,71,116
1,77,101,14
1,69,96,0
1,93,113,0
1,48,63,74
1,76,100,8
1,67,93,0
1,91,105,2
1,43,59,60
1,89,111,74
1,65,94,6
1,74,96,0
1,48,62,8
1,91,100,38
1,67,84,4
1,76,97,6
1,43,57,4
1,89,111,18
1,31,86,0
1,74,100,6
1,65,92,4
1,36,52,22
1,88,115,8
1,64,95,0
1,72,110,0
1,43,60,38
1,36,46,50
1,43,54,64
1,36,38,16
1,67,89,2
1,36,68,0
1,91,105,2
1,76,104,0
1,43,58,4
1,69,82,0
1,93,85,2
1,77,88,4
1,91,84,66
1,67,80,0
1,48,46,4
1,76,67,4
1,89,110,8
1,65,89,0
1,43,52,6
1,74,66,0
1,48,57,34
1,88,100,6
1,72,78,0
1,64,73,0
1,43,29,90
1,31,101,42
1,71,72,10
1,36,73,0
1,62,88,4
1,86,104,4
1,43,73,4
1,64,85,0
1,72,97,0
1,88,101,4
1,36,76,16
1,74,92,4
1,65,110,2
1,89,116,6
1,43,77,10
1,76,92,8
1,91,113,0
1,67,106,0
1,36,69,56
1,36,106,90
1,77,96,2
1,69,98,0
1,43,84,0
1,93,110,8
1,48,71,58
1,76,81,0
1,91,103,6
1,67,99,0
1,43,67,50
1,64,97,18
1,48,70,0
1,72,86,4
1,88,108,2
1,89,113,0
1,65,91,4
1,74,91,2
1,43,63,8
1,31,101,22
1,72,101,8
1,88,111,4
1,64,95,0
1,36,76,46
1,71,92,22
1,43,67,4
1,62,68,4
1,86,100,2
1,36,71,48
1,43,68,64
1,36,28,4
1,89,112,2
1,65,95,0
1,43,47,6
1,74,89,0
1,91,99,90
1,76,70,0
1,55,62,0
1,67,88,2
1,89,98,60
1,74,81,0
1,65,76,0
1,50,49,2
1,55,65,6
1,72,81,6
1,64,84,4
1,88,94,6
1,53,58,0
1,71,66,4
1,62,79,4
1,86,95,10
1,55,62,8
1,69,77,4
1,60,87,6
1,84,102,4
1,50,64,70
1,86,110,4
1,71,74,4
1,62,80,6
1,88,110,10
1,72,92,4
1,55,58,0
1,64,98,6
1,89,111,6
1,74,92,0
1,65,98,8
1,53,55,2
1,67,95,46
1,76,98,0
1,91,110,4
1,55,39,2
1,77,104,2
1,43,49,6
1,69,103,4
1,93,107,6
1,79,106,42
1,71,86,0
1,55,63,0
1,95,100,4
1,72,98,4
1,81,93,4
1,43,55,4
1,96,118,0
1,55,58,96
1,71,81,56
1,95,95,0
1,79,73,0
1,48,44,24
1,96,100,2
1,72,93,0
1,55,68,2
1,81,70,4
1,71,72,6
1,52,59,2
1,79,71,0
1,95,87,4
1,55,52,58
1,77,75,2
1,69,99,0
1,93,117,0
1,52,41,10
1,71,88,6
1,55,54,0
1,79,67,4
1,95,95,0
1,69,80,14
1,93,89,6
1,77,63,4
1,48,48,2
1,55,49,44
1,43,42,20
1,76,70,8
1,67,80,6
1,91,92,0
1,55,44,2
1,43,49,68
1,74,63,6
1,89,100,2
1,65,69,8
