track,note,velocity,time
0,53,62,72
0,58,82,24
0,60,61,9
0,62,106,8
0,58,48,12
0,63,113,6
0,62,104,11
0,60,69,4
0,62,114,30
0,58,73,14
0,60,54,7
0,62,96,6
0,58,44,14
0,63,108,3
0,62,102,16
0,62,84,10
0,58,70,26
0,60,99,7
0,53,64,10
0,58,71,24
0,60,65,13
0,62,95,7
0,58,41,11
0,63,117,6
0,65,109,13
0,61,64,9
0,62,58,0
0,60,85,15
0,61,49,0
0,58,99,11
0,60,53,3
0,62,83,8
0,58,53,11
0,63,107,4
0,65,127,21
0,67,127,6
0,65,120,7
0,62,63,5
0,61,56,8
0,60,82,7
0,58,72,4
0,55,97,8
0,55,106,3
0,46,61,0
0,44,22,11
0,46,53,0
0,81,55,2
0,44,32,0
0,82,85,2
0,44,21,0
0,52,72,24
0,53,71,0
0,89,96,0
0,44,32,0
0,58,91,21
0,44,43,0
0,46,46,0
0,60,69,1
0,44,45,0
0,62,68,9
0,44,18,0
0,58,61,3
0,44,53,0
0,63,116,5
0,44,55,0
0,46,45,0
0,44,23,7
0,62,102,10
0,44,44,0
0,60,80,4
0,44,49,0
0,44,44,2
0,46,40,0
0,62,121,8
0,44,45,0
0,58,82,10
0,44,47,0
0,44,51,24
0,44,65,14
0,46,41,0
0,60,53,8
0,44,55,0
0,62,112,6
0,44,36,0
0,58,57,10
0,44,25,0
0,63,123,9
0,44,49,0
0,46,33,0
0,44,39,10
0,44,36,17
0,62,114,16
0,44,49,0
0,62,102,8
0,44,57,0
0,46,31,0
0,44,45,6
0,58,76,15
0,44,33,0
0,60,89,6
0,44,36,0
0,44,43,16
0,46,41,0
0,44,45,9
0,44,43,12
0,46,47,9
0,44,41,3
0,46,33,0
0,44,61,13
0,44,37,14
0,53,66,9
0,44,51,0
0,58,75,8
0,44,55,0
0,46,58,0
0,60,68,10
0,44,49,0
0,62,84,7
0,44,37,0
0,58,59,13
0,44,51,0
0,63,110,6
0,44,43,0
0,46,42,0
0,44,45,12
0,44,36,15
0,65,127,15
0,44,37,0
0,61,102,6
0,62,88,0
0,44,31,0
0,46,48,0
0,60,87,12
0,61,64,0
0,44,37,0
0,53,25,5
0,58,118,0
0,44,37,0
0,44,69,23
0,44,39,24
0,46,41,0
0,60,48,4
0,44,45,0
0,62,107,9
0,44,37,0
0,58,53,13
0,44,47,0
0,63,108,5
0,44,35,0
0,46,43,0
0,44,47,11
0,44,32,16
0,65,127,12
0,44,28,0
0,66,86,5
0,67,79,0
0,44,37,0
0,46,42,0
0,65,120,7
0,44,43,0
0,62,52,5
0,44,41,0
0,61,97,9
0,44,40,0
0,60,69,8
0,44,39,0
0,46,53,0
0,58,79,9
0,44,51,0
0,55,101,8
0,44,35,0
0,55,84,0
0,46,69,0
0,31,103,13
0,36,59,0
0,44,44,0
0,46,58,0
0,44,55,13
0,44,32,6
0,53,69,24
0,44,59,0
0,58,77,24
0,44,49,0
0,46,56,0
0,60,79,9
0,44,35,0
0,62,96,6
0,44,33,0
0,58,61,7
0,44,65,0
0,29,90,4
0,63,119,0
0,36,45,0
0,44,51,0
0,46,35,0
0,44,61,18
0,62,115,10
0,44,26,0
0,60,90,6
0,44,35,0
0,44,36,5
0,46,43,0
0,62,93,13
0,44,44,0
0,58,88,12
0,44,37,0
0,44,63,16
0,27,82,6
0,36,57,0
0,44,44,0
0,46,54,0
0,60,58,5
0,44,45,0
0,62,105,8
0,44,36,0
0,58,39,9
0,44,41,0
0,36,100,3
0,63,92,0
0,44,31,0
0,46,58,0
0,44,51,11
0,44,39,13
0,62,113,4
0,44,59,0
0,33,89,8
0,62,93,0
0,36,58,0
0,44,35,0
0,46,54,0
0,44,51,2
0,58,71,13
0,44,35,0
0,60,104,4
0,44,63,0
0,30,86,9
0,36,49,0
0,44,36,0
0,46,47,0
0,44,59,12
0,44,35,9
0,46,69,7
0,31,82,4
0,36,47,0
0,44,41,0
0,46,46,0
0,44,65,12
0,44,37,14
0,53,69,11
0,44,53,0
0,58,76,24
0,44,44,0
0,46,40,0
0,60,74,11
0,44,53,0
0,62,96,11
0,44,36,0
0,58,47,11
0,44,63,0
0,29,89,4
0,63,120,0
0,36,48,0
0,44,47,0
0,46,43,0
0,44,53,11
0,44,36,13
0,65,127,9
0,44,44,0
0,60,89,7
0,61,68,0
0,62,62,0
0,44,37,0
0,46,41,0
0,60,94,11
0,61,49,0
0,44,55,0
0,58,102,5
0,44,49,0
0,46,67,9
0,39,82,7
0,36,44,0
0,44,39,0
0,46,32,0
0,60,63,4
0,44,49,0
0,62,95,9
0,44,44,0
0,58,58,15
0,44,59,0
0,36,90,2
0,63,110,0
0,36,47,0
0,44,47,0
0,46,50,0
0,44,51,9
0,44,40,15
0,44,55,3
0,34,80,12
0,36,36,0
0,44,43,0
0,46,41,0
0,44,51,12
0,65,127,14
0,44,44,0
0,44,53,3
0,62,104,24
0,44,39,0
0,46,37,0
0,44,57,10
0,60,79,5
0,44,44,0
0,46,67,5
0,32,106,13
0,55,20,0
0,56,19,0
0,60,31,0
0,63,19,0
0,36,47,0
0,44,47,0
0,46,46,0
0,44,57,11
0,44,39,15
0,44,61,17
0,63,123,24
0,44,59,0
0,46,42,0
0,62,127,7
0,44,67,0
0,60,62,7
0,44,49,0
0,65,95,1
0,36,42,0
0,44,69,0
0,31,90,1
0,53,14,0
0,58,5,0
0,62,24,0
0,62,127,0
0,36,45,0
0,44,51,0
0,46,45,0
0,44,59,12
0,44,43,15
0,63,95,6
0,44,69,0
0,62,97,7
0,44,43,0
0,46,50,0
0,60,70,5
0,44,65,0
0,58,83,9
0,44,45,0
0,44,73,1
0,32,85,12
0,51,38,0
0,55,38,0
0,60,31,0
0,63,31,0
0,36,50,0
0,44,61,0
0,46,45,0
0,44,67,9
0,44,40,16
0,44,63,24
0,63,127,18
0,44,44,0
0,46,47,0
0,62,127,5
0,44,57,0
0,60,83,7
0,44,43,0
0,65,127,1
0,44,61,0
0,33,92,5
0,55,38,0
0,64,3,0
0,67,22,0
0,62,126,0
0,36,59,0
0,44,59,0
0,46,43,0
0,44,65,8
0,44,41,15
0,44,67,11
0,38,99,6
0,50,53,0
0,57,44,0
0,62,60,0
0,66,37,0
0,36,50,0
0,44,53,0
0,46,44,0
0,44,55,10
0,44,43,12
0,46,76,5
0,28,96,13
0,52,34,0
0,59,41,0
0,67,34,0
0,36,52,0
0,44,55,0
0,46,46,0
0,44,59,7
0,44,47,16
0,44,63,24
0,35,109,4
0,62,84,0
0,44,55,0
0,46,42,0
0,64,93,6
0,44,55,0
0,66,127,2
0,44,47,0
0,62,63,2
0,36,47,0
0,44,63,0
0,36,92,7
0,48,52,0
0,55,50,0
0,60,54,0
0,64,29,0
0,67,127,0
0,36,58,0
0,44,57,0
0,46,47,0
0,44,67,11
0,44,51,16
0,69,127,15
0,44,55,0
0,43,109,7
0,66,127,0
0,44,55,0
0,46,36,0
0,44,49,10
0,44,53,16
0,69,127,6
0,44,73,0
0,40,92,5
0,52,32,0
0,59,32,0
0,62,8,0
0,67,48,0
0,62,89,0
0,36,49,0
0,44,61,0
0,46,41,0
0,44,57,9
0,44,44,14
0,44,67,24
0,38,81,8
0,44,55,0
0,46,45,0
0,44,61,8
0,44,47,15
0,44,63,24
0,36,84,1
0,48,58,0
0,55,50,0
0,64,37,0
0,36,30,0
0,44,45,0
0,46,44,0
0,44,63,8
0,44,41,14
0,44,67,23
0,35,86,6
0,60,38,0
0,62,85,0
0,44,47,0
0,46,49,0
0,64,82,6
0,44,69,0
0,66,116,1
0,44,47,0
0,62,62,13
0,36,55,0
0,44,79,0
0,33,86,5
0,55,66,0
0,66,30,0
0,67,127,0
0,36,57,0
0,44,59,0
0,46,49,0
0,44,49,11
0,44,45,15
0,69,127,7
0,44,67,0
0,38,99,12
0,65,104,0
0,44,45,0
0,46,48,0
0,44,69,9
0,44,53,14
0,69,127,3
0,44,65,0
0,28,121,2
0,52,39,0
0,59,55,0
0,62,42,0
0,67,37,0
0,62,105,0
0,36,60,0
0,44,57,0
0,46,44,0
0,44,55,11
0,44,49,15
0,82,52,0
0,44,57,15
0,44,53,15
0,46,52,0
0,82,45,0
0,44,57,11
0,44,47,14
0,82,58,0
0,36,37,13
0,44,67,0
0,36,43,11
0,44,49,0
0,46,56,0
0,82,55,0
0,44,63,10
0,44,53,24
0,82,52,0
0,44,73,14
0,44,51,6
0,46,65,0
0,82,58,0
0,30,127,9
0,54,90,0
0,62,67,0
0,36,82,0
0,44,65,0
0,44,55,9
0,82,68,0
0,46,76,8
0,31,126,3
0,50,58,0
0,55,21,0
0,58,48,0
0,62,23,0
0,36,52,0
0,44,59,0
0,82,80,0
0,44,69,13
0,44,57,15
0,82,56,0
0,44,73,15
0,38,74,24
0,44,61,0
0,82,65,0
0,58,107,7
0,44,65,0
0,60,78,4
0,44,51,2
0,82,64,0
0,62,127,5
0,31,99,7
0,36,44,0
0,44,61,0
0,58,57,3
0,29,99,5
0,53,41,0
0,58,45,0
0,62,39,0
0,36,53,0
0,44,51,0
0,82,63,0
0,63,119,8
0,44,61,13
0,44,51,6
0,82,60,0
0,62,110,1
0,44,67,1
0,60,70,4
0,38,86,1
0,44,55,0
0,82,77,0
0,44,65,13
0,62,116,1
0,44,44,0
0,82,66,0
0,58,87,2
0,29,105,6
0,44,73,0
0,39,100,11
0,51,40,0
0,55,54,0
0,67,60,0
0,36,58,0
0,44,57,0
0,82,65,0
0,44,61,5
0,60,67,2
0,44,49,6
0,82,63,0
0,62,90,1
0,44,63,13
0,58,72,2
0,36,99,2
0,48,50,0
0,55,55,0
0,58,67,0
0,36,57,0
0,38,77,0
0,44,55,0
0,82,61,0
0,63,122,2
0,44,69,11
0,44,47,15
0,82,52,0
0,44,67,0
0,62,127,5
0,33,109,5
0,55,61,0
0,60,70,0
0,64,62,0
0,36,52,0
0,44,61,0
0,82,49,0
0,62,122,5
0,44,69,14
0,44,47,16
0,82,52,0
0,58,96,2
0,44,73,11
0,60,112,7
0,30,110,6
0,50,40,0
0,54,56,0
0,60,56,0
0,62,73,0
0,36,59,0
0,38,72,0
0,44,55,0
0,82,56,0
0,44,61,3
0,44,47,15
0,82,55,0
0,44,69,0
0,31,93,13
0,55,63,0
0,58,58,0
0,62,69,0
0,36,60,0
0,44,69,0
0,82,60,0
0,44,67,13
0,44,43,14
0,82,52,0
0,44,40,9
0,38,78,14
0,44,40,0
0,82,67,0
0,58,85,2
0,44,47,4
0,60,74,1
0,44,47,5
0,82,64,0
0,62,108,2
0,31,96,10
0,36,59,0
0,44,55,0
0,58,56,1
0,29,96,6
0,53,60,0
0,58,63,0
0,36,60,0
0,44,61,0
0,82,68,0
0,63,127,3
0,44,61,5
0,29,99,14
0,44,49,0
0,82,64,0
0,44,39,13
0,65,127,1
0,38,72,11
0,44,45,0
0,82,72,0
0,62,102,3
0,44,61,0
0,60,82,4
0,44,43,4
0,82,59,0
0,58,113,5
0,44,63,13
0,39,108,8
0,51,40,0
0,55,35,0
0,58,45,0
0,62,26,0
0,67,51,0
0,36,62,0
0,44,61,0
0,82,59,0
0,44,57,10
0,60,43,7
0,44,55,3
0,82,46,0
0,62,107,4
0,44,57,4
0,58,57,3
0,36,113,8
0,48,68,0
0,36,52,0
0,38,86,0
0,44,49,0
0,82,56,0
0,63,125,3
0,44,61,0
0,44,51,12
0,82,58,0
0,44,69,11
0,34,108,6
0,62,64,0
0,65,69,0
0,36,62,0
0,44,51,0
0,82,60,0
0,44,65,13
0,65,127,12
0,44,47,0
0,82,63,0
0,46,65,3
0,38,75,11
0,44,57,0
0,82,55,0
0,62,127,3
0,44,69,1
0,44,57,1
0,82,51,0
0,60,89,7
0,36,46,0
0,44,67,0
0,32,114,15
0,55,44,0
0,56,4,0
0,60,23,0
0,63,38,0
0,36,54,0
0,44,65,0
0,82,63,0
0,44,63,11
0,51,1,14
0,44,55,0
0,82,66,0
0,44,63,13
0,38,82,22
0,44,49,0
0,82,59,0
0,63,127,5
0,44,73,3
0,62,123,3
0,44,47,0
0,82,52,0
0,60,87,1
0,32,106,3
0,44,76,0
0,65,114,2
0,31,113,1
0,53,59,0
0,58,36,0
0,62,49,0
0,36,60,0
0,44,59,0
0,82,54,0
0,62,127,5
0,44,67,12
0,44,43,15
0,82,60,0
0,44,67,10
0,63,113,7
0,38,71,13
0,44,55,0
0,82,58,0
0,62,117,5
0,44,61,2
0,60,80,4
0,44,49,3
0,82,54,0
0,58,90,4
0,44,69,0
0,32,125,11
0,55,51,0
0,56,35,0
0,60,57,0
0,63,62,0
0,36,65,0
0,44,51,0
0,82,60,0
0,44,69,12
0,44,51,15
0,82,65,0
0,44,65,11
0,38,82,14
0,44,47,0
0,82,63,0
0,63,127,4
0,44,59,3
0,62,127,1
0,44,51,1
0,82,62,0
0,60,84,0
0,32,80,4
0,65,101,0
0,44,76,0
0,33,109,8
0,55,45,0
0,60,56,0
0,64,57,0
0,36,66,0
0,44,45,0
0,82,58,0
0,62,127,3
0,44,69,12
0,44,57,11
0,82,63,0
0,44,76,4
0,38,109,7
0,50,34,0
0,54,62,0
0,60,56,0
0,62,61,0
0,36,65,0
0,38,84,0
0,44,55,0
0,82,61,0
0,44,59,13
0,44,57,11
0,82,60,0
0,46,76,5
0,53,86,12
0,62,87,0
0,64,82,0
0,67,92,0
0,71,87,0
0,28,116,0
0,52,26,0
0,55,12,0
0,59,58,0
0,67,62,0
0,36,69,0
0,44,61,0
0,82,60,0
0,44,69,14
0,44,53,15
0,82,66,0
0,44,73,13
0,35,116,8
0,38,84,0
0,44,57,0
0,82,72,0
0,61,31,2
0,62,87,2
0,44,67,4
0,64,108,0
0,44,51,6
0,82,62,0
0,66,118,2
0,36,48,5
0,44,69,0
0,62,45,2
0,48,70,1
0,55,81,0
0,60,87,0
0,64,86,0
0,67,95,0
0,36,111,0
0,55,56,0
0,60,62,0
0,64,51,0
0,67,18,0
0,36,62,0
0,44,57,0
0,82,66,0
0,67,127,3
0,44,69,11
0,44,55,16
0,82,61,0
0,69,127,7
0,44,61,1
0,43,100,6
0,38,77,0
0,44,57,0
0,82,72,0
0,66,127,4
0,44,69,12
0,44,55,12
0,82,66,0
0,44,67,11
0,69,127,0
0,52,87,4
0,62,93,0
0,67,90,0
0,71,89,0
0,40,103,0
0,52,29,0
0,55,53,0
0,59,54,0
0,62,45,0
0,67,55,0
0,36,62,0
0,44,57,0
0,82,60,0
0,62,96,4
0,44,67,12
0,44,55,16
0,82,65,0
0,44,69,13
0,38,100,11
0,38,71,0
0,44,59,0
0,82,68,0
0,44,69,2
0,44,57,7
0,82,74,0
0,36,55,11
0,44,76,0
0,48,82,3
0,55,87,0
0,60,89,0
0,62,93,0
0,64,99,0
0,67,96,0
0,36,100,0
0,48,54,0
0,55,50,0
0,60,61,0
0,64,55,0
0,67,39,0
0,36,59,0
0,44,57,0
0,82,77,0
0,44,69,13
0,44,61,15
0,82,55,0
0,44,76,7
0,35,103,3
0,38,88,0
0,44,65,0
0,82,56,0
0,62,104,3
0,64,53,0
0,44,73,1
0,64,85,4
0,44,55,2
0,82,60,0
0,66,116,0
0,44,76,11
0,62,67,1
0,45,87,2
0,57,76,0
0,60,81,0
0,64,92,0
0,67,82,0
0,33,109,0
0,55,75,0
0,60,70,0
0,64,76,0
0,36,72,0
0,44,61,0
0,82,65,0
0,67,127,3
0,44,73,13
0,44,59,14
0,82,61,0
0,44,65,9
0,69,127,4
0,38,79,8
0,44,61,0
0,82,77,0
0,65,119,3
0,44,73,12
0,44,57,1
0,82,66,0
0,33,95,8
0,44,73,0
0,69,127,1
0,47,92,5
0,54,86,0
0,57,116,0
0,62,118,0
0,66,117,0
0,35,93,0
0,57,57,0
0,62,75,0
0,66,78,0
0,36,72,0
0,46,55,0
0,82,67,0
0,62,109,4
0,46,25,21
0,82,68,0
0,38,68,27
0,46,43,0
0,82,65,0
0,46,23,10
0,82,65,0
0,36,57,5
