track,note,velocity,time
1,39,95,1152
1,51,95,0
1,46,95,0
1,39,95,12
1,46,95,0
1,51,95,0
1,46,70,0
1,39,70,0
1,51,70,0
1,39,70,96
1,51,70,0
1,46,70,0
1,39,95,96
1,51,95,0
1,46,95,0
1,39,70,0
1,51,70,0
1,46,70,0
1,39,70,96
1,51,70,0
1,46,70,0
1,39,95,96
1,51,95,0
1,46,95,0
1,39,70,0
1,51,70,0
1,46,70,0
1,39,95,96
1,46,95,0
1,51,95,0
1,46,70,0
1,39,70,0
1,51,70,0
1,39,70,96
1,51,70,0
1,46,70,0
1,39,95,96
1,51,95,0
1,46,95,0
1,39,70,0
1,51,70,0
1,46,70,0
1,39,70,96
1,51,70,0
1,46,70,0
1,39,95,96
1,51,95,0
1,46,95,0
1,39,70,0
1,51,70,0
1,46,70,0
1,39,95,96
1,46,95,0
1,51,95,0
1,46,70,0
1,39,70,0
1,51,70,0
1,39,70,96
1,51,70,0
1,46,70,0
1,39,95,96
1,51,95,0
1,46,95,0
1,39,70,0
1,51,70,0
1,46,70,0
1,39,70,96
1,51,70,0
1,46,70,0
1,39,95,96
1,51,95,0
1,46,95,0
1,39,70,0
1,51,70,0
1,46,70,0
1,39,95,96
1,46,95,0
1,51,95,0
1,46,70,0
1,39,70,0
1,51,70,0
1,39,70,96
1,51,70,0
1,46,70,0
1,39,95,96
1,51,95,0
1,46,95,0
1,39,70,0
1,51,70,0
1,46,70,0
1,39,70,96
1,51,70,0
1,46,70,0
1,39,95,96
1,51,95,0
1,44,95,0
1,46,95,0
1,39,70,0
1,51,70,0
1,49,95,0
1,39,95,96
1,46,95,0
1,51,95,0
1,46,70,0
1,39,70,0
1,51,70,0
1,39,70,96
1,51,70,0
1,46,70,0
1,39,95,96
1,51,95,0
1,46,95,0
1,39,70,0
1,51,70,0
1,46,70,0
1,39,70,96
1,51,70,0
1,46,70,0
1,39,95,96
1,51,95,0
1,46,95,0
1,39,70,0
1,51,70,0
1,46,70,0
1,39,95,96
1,46,95,0
1,51,95,0
1,46,70,0
1,39,70,0
1,51,70,0
1,39,70,96
1,51,70,0
1,46,70,0
1,39,95,96
1,51,95,0
1,46,95,0
1,39,70,0
1,51,70,0
1,46,70,0
1,39,70,96
1,51,70,0
1,46,70,0
1,39,95,96
1,51,95,0
1,46,95,0
1,39,70,0
1,51,70,0
1,46,70,0
1,39,95,96
1,46,95,0
1,51,95,0
1,46,70,0
1,39,70,0
1,51,70,0
1,39,70,96
1,51,70,0
1,46,70,0
1,39,95,96
1,51,95,0
1,46,95,0
1,39,70,0
1,51,70,0
1,46,70,0
1,39,70,96
1,51,70,0
1,46,70,0
1,39,95,96
1,51,95,0
1,46,95,0
1,39,70,0
1,51,70,0
1,46,70,0
1,39,95,96
1,46,95,0
1,51,95,0
1,46,70,0
1,39,70,0
1,51,70,0
1,39,70,96
1,51,70,0
1,46,70,0
1,39,95,96
1,51,95,0
1,46,95,0
1,39,70,0
1,51,70,0
1,46,70,0
1,39,70,96
1,51,70,0
1,46,70,0
1,39,95,96
1,51,95,0
1,44,95,0
1,46,95,0
1,39,70,0
1,51,70,0
1,49,95,0
1,39,95,96
1,46,95,0
1,51,95,0
1,46,70,0
1,39,70,0
1,51,70,0
1,39,70,96
1,51,70,0
1,46,70,0
1,39,95,96
1,51,95,0
1,46,95,0
1,39,70,0
1,51,70,0
1,46,70,0
1,39,70,96
1,51,70,0
1,46,70,0
1,39,95,96
1,51,95,0
1,46,95,0
1,39,70,0
1,51,70,0
1,46,70,0
1,39,95,96
1,46,95,0
1,51,95,0
1,46,70,0
1,39,70,0
1,51,70,0
1,39,70,96
1,51,70,0
1,46,70,0
1,39,95,96
1,51,95,0
1,46,95,0
1,39,70,0
1,51,70,0
1,46,70,0
1,39,70,96
1,51,70,0
1,46,70,0
1,39,95,96
1,51,95,0
1,46,95,0
1,39,70,0
1,51,70,0
1,46,70,0
1,39,95,96
1,46,95,0
1,51,95,0
1,46,70,0
1,39,70,0
1,51,70,0
1,39,70,96
1,51,70,0
1,46,70,0
1,39,95,96
1,51,95,0
1,46,95,0
1,39,70,0
1,51,70,0
1,46,70,0
1,39,70,96
1,51,70,0
1,46,70,0
1,39,95,96
1,51,95,0
1,46,95,0
1,39,70,0
1,51,70,0
1,46,70,0
1,39,95,96
1,46,95,0
1,51,95,0
1,46,70,0
1,39,70,0
1,51,70,0
1,39,70,96
1,51,70,0
1,46,70,0
1,39,95,96
1,51,95,0
1,46,95,0
1,39,70,0
1,51,70,0
1,46,70,0
1,39,70,96
1,51,70,0
1,46,70,0
1,39,95,96
1,51,95,0
1,44,95,0
1,46,95,0
1,39,70,0
1,51,70,0
1,49,95,0
1,39,95,96
1,46,95,0
1,51,95,0
1,46,70,0
1,39,70,0
1,51,70,0
1,39,70,96
1,51,70,0
1,46,70,0
1,39,95,96
1,51,95,0
1,46,95,0
1,39,70,0
1,51,70,0
1,46,70,0
1,39,70,96
1,51,70,0
1,46,70,0
1,39,95,96
1,51,95,0
1,46,95,0
1,39,70,0
1,51,70,0
1,46,70,0
1,39,95,96
1,46,95,0
1,51,95,0
1,46,70,0
1,39,70,0
1,51,70,0
1,39,70,96
1,51,70,0
1,46,70,0
1,39,95,96
1,51,95,0
1,46,95,0
1,39,70,0
1,51,70,0
1,46,70,0
1,39,70,96
1,51,70,0
1,46,70,0
1,39,95,96
1,51,95,0
1,46,95,0
1,39,70,0
1,51,70,0
1,46,70,0
1,39,95,96
1,46,95,0
1,51,95,0
1,46,70,0
1,39,70,0
1,51,70,0
1,39,70,96
1,51,70,0
1,46,70,0
1,39,95,96
1,51,95,0
1,46,95,0
1,39,70,0
1,51,70,0
1,46,70,0
1,39,70,96
1,51,70,0
1,46,70,0
1,39,95,96
1,51,95,0
1,46,95,0
1,39,70,0
1,51,70,0
1,46,70,0
1,39,95,96
1,46,95,0
1,51,95,0
1,46,70,0
1,39,70,0
1,51,70,0
1,39,70,96
1,51,70,0
1,46,70,0
1,39,95,96
1,51,95,0
1,46,95,0
1,39,70,0
1,51,70,0
1,46,70,0
1,39,70,96
1,51,70,0
1,46,70,0
1,39,95,96
1,51,95,0
1,44,95,0
1,46,95,0
1,39,70,0
1,51,70,0
1,49,95,0
1,39,95,96
1,46,95,0
1,51,95,0
1,46,70,0
1,39,70,0
1,51,70,0
1,39,70,96
1,51,70,0
1,46,70,0
1,39,95,96
1,51,95,0
1,46,95,0
1,39,70,0
1,51,70,0
1,46,70,0
1,39,70,96
1,51,70,0
1,46,70,0
1,39,95,96
1,51,95,0
1,46,95,0
1,39,70,0
1,51,70,0
1,46,70,0
1,39,95,96
1,46,95,0
1,51,95,0
1,46,70,0
1,39,70,0
1,51,70,0
1,39,70,96
1,51,70,0
1,46,70,0
1,39,95,96
1,51,95,0
1,46,95,0
1,39,70,0
1,51,70,0
1,46,70,0
1,39,70,96
1,51,70,0
1,46,70,0
1,39,95,96
1,51,95,0
1,46,95,0
1,39,70,0
1,51,70,0
1,46,70,0
1,39,95,96
1,46,95,0
1,51,95,0
1,46,70,0
1,39,70,0
1,51,70,0
1,39,70,96
1,51,70,0
1,46,70,0
1,39,95,96
1,51,95,0
1,46,95,0
1,39,70,0
1,51,70,0
1,46,70,0
1,39,70,96
1,51,70,0
1,46,70,0
1,39,95,96
1,51,95,0
1,46,95,0
1,39,70,0
1,51,70,0
1,46,70,0
1,39,95,96
1,46,95,0
1,51,95,0
1,46,70,0
1,39,70,0
1,51,70,0
1,39,70,96
1,51,70,0
1,46,70,0
1,39,95,96
1,51,95,0
1,46,95,0
1,39,70,0
1,51,70,0
1,46,70,0
1,39,70,96
1,51,70,0
1,46,70,0
1,39,95,96
1,51,95,0
1,44,95,0
1,46,95,0
1,39,70,0
1,51,70,0
1,49,95,0
1,39,95,96
1,46,95,0
1,51,95,0
1,46,70,0
1,39,70,0
1,51,70,0
1,39,70,96
1,51,70,0
1,46,70,0
1,39,95,96
1,51,95,0
1,46,95,0
1,39,70,0
1,51,70,0
1,46,70,0
1,39,70,96
1,51,70,0
1,46,70,0
1,39,95,96
1,51,95,0
1,46,95,0
1,39,70,0
1,51,70,0
1,46,70,0
1,39,95,96
1,46,95,0
1,51,95,0
1,46,70,0
1,39,70,0
1,51,70,0
1,39,70,96
1,51,70,0
1,46,70,0
1,39,95,96
1,51,95,0
1,46,95,0
1,39,70,0
1,51,70,0
1,46,70,0
1,39,70,96
1,51,70,0
1,46,70,0
1,39,95,96
1,51,95,0
1,46,95,0
1,39,70,0
1,51,70,0
1,46,70,0
1,39,95,96
1,46,95,0
1,51,95,0
1,46,70,0
1,39,70,0
1,51,70,0
1,39,70,96
1,51,70,0
1,46,70,0
1,39,95,96
1,51,95,0
1,46,95,0
1,39,70,0
1,51,70,0
1,46,70,0
1,39,70,96
1,51,70,0
1,46,70,0
1,39,95,96
1,51,95,0
1,46,95,0
1,39,70,0
1,51,70,0
1,46,70,0
1,39,95,96
1,46,95,0
1,51,95,0
1,46,70,0
1,39,70,0
1,51,70,0
1,39,70,96
1,51,70,0
1,46,70,0
1,39,95,96
1,51,95,0
1,46,95,0
1,39,70,0
1,51,70,0
1,46,70,0
1,39,70,96
1,51,70,0
1,46,70,0
1,39,95,96
1,51,95,0
1,44,95,0
1,46,95,0
1,39,70,0
1,51,70,0
1,49,95,0
1,54,95,96
1,58,95,0
1,49,95,0
1,54,95,96
1,58,95,0
1,61,95,0
1,49,95,96
1,58,95,0
1,54,95,0
1,49,94,96
1,46,95,0
1,54,95,0
1,39,95,96
1,46,95,0
1,51,95,0
1,46,70,0
1,39,70,0
1,51,70,0
1,39,70,96
1,51,70,0
1,46,70,0
1,39,95,96
1,51,95,0
1,46,95,0
1,39,70,0
1,51,70,0
1,46,70,0
1,39,70,96
1,51,70,0
1,46,70,0
1,39,95,96
1,51,95,0
1,46,95,0
1,39,70,0
1,51,70,0
1,46,70,0
1,39,95,96
1,46,95,0
1,51,95,0
1,46,70,0
1,39,70,0
1,51,70,0
1,39,70,96
1,51,70,0
1,46,70,0
1,39,95,96
1,51,95,0
1,46,95,0
1,39,70,0
1,51,70,0
1,46,70,0
1,39,70,96
1,51,70,0
1,46,70,0
1,39,95,96
1,51,95,0
1,46,95,0
1,39,70,0
1,51,70,0
1,46,70,0
1,39,95,96
1,46,95,0
1,51,95,0
1,46,70,0
1,39,70,0
1,51,70,0
1,39,70,96
1,51,70,0
1,46,70,0
1,39,95,96
1,51,95,0
1,46,95,0
1,39,70,0
1,51,70,0
1,46,70,0
1,39,70,96
1,51,70,0
1,46,70,0
1,39,95,96
1,51,95,0
1,46,95,0
1,39,70,0
1,51,70,0
1,46,70,0
1,51,100,96
1,49,100,0
1,49,100,0
1,46,100,0
1,45,100,0
1,44,100,0
1,42,100,0
1,39,100,0
1,51,100,0
1,46,100,0
1,54,100,96
1,49,100,0
1,42,100,0
1,37,100,96
1,44,100,0
1,49,100,0
1,44,100,96
1,51,100,0
1,56,100,0
1,39,100,96
1,51,100,0
1,46,100,0
1,54,100,96
1,49,100,0
1,42,100,0
1,37,100,96
1,44,100,0
1,49,100,0
1,44,100,96
1,51,100,0
1,56,100,0
1,39,100,96
1,51,100,0
1,46,100,0
1,54,100,96
1,49,100,0
1,42,100,0
1,37,100,96
1,44,100,0
1,49,100,0
1,44,100,96
1,51,100,0
1,56,100,0
1,39,100,96
1,51,100,0
1,46,100,0
1,54,100,96
1,49,100,0
1,42,100,0
1,37,100,96
1,44,100,0
1,49,100,0
1,44,100,96
1,51,100,0
1,56,100,0
1,39,100,96
1,51,100,0
1,46,100,0
1,39,95,0
1,46,95,0
1,51,95,0
1,46,70,0
1,39,70,0
1,51,70,0
1,39,70,96
1,51,70,0
1,46,70,0
1,39,95,96
1,51,95,0
1,46,95,0
1,39,70,0
1,51,70,0
1,46,70,0
1,39,70,96
1,51,70,0
1,46,70,0
1,39,95,96
1,51,95,0
1,46,95,0
1,39,70,0
1,51,70,0
1,46,70,0
1,39,95,96
1,46,95,0
1,51,95,0
1,46,70,0
1,39,70,0
1,51,70,0
1,39,70,96
1,51,70,0
1,46,70,0
1,39,95,96
1,51,95,0
1,46,95,0
1,39,70,0
1,51,70,0
1,46,70,0
1,39,70,96
1,51,70,0
1,46,70,0
1,39,95,96
1,51,95,0
1,46,95,0
1,39,70,0
1,51,70,0
1,46,70,0
1,39,95,96
1,46,95,0
1,51,95,0
1,46,70,0
1,39,70,0
1,51,70,0
1,39,70,96
1,51,70,0
1,46,70,0
1,39,95,96
1,51,95,0
1,46,95,0
1,39,70,0
1,51,70,0
1,46,70,0
1,39,70,96
1,51,70,0
1,46,70,0
1,39,95,96
1,51,95,0
1,46,95,0
1,39,70,0
1,51,70,0
1,46,70,0
1,39,95,96
1,46,95,0
1,51,95,0
1,46,70,0
1,39,70,0
1,51,70,0
1,39,70,96
1,51,70,0
1,46,70,0
1,39,95,96
1,51,95,0
1,46,95,0
1,39,70,0
1,51,70,0
1,46,70,0
1,39,70,96
1,51,70,0
1,46,70,0
1,39,95,96
1,51,95,0
1,44,95,0
1,46,95,0
1,39,70,0
1,51,70,0
1,49,95,0
1,39,95,96
1,46,95,0
1,51,95,0
1,46,70,0
1,39,70,0
1,51,70,0
1,39,70,96
1,51,70,0
1,46,70,0
1,39,95,96
1,51,95,0
1,46,95,0
1,39,70,0
1,51,70,0
1,46,70,0
1,39,70,96
1,51,70,0
1,46,70,0
1,39,95,96
1,51,95,0
1,46,95,0
1,39,70,0
1,51,70,0
1,46,70,0
1,39,95,96
1,46,95,0
1,51,95,0
1,46,70,0
1,39,70,0
1,51,70,0
1,39,70,96
1,51,70,0
1,46,70,0
1,39,95,96
1,51,95,0
1,46,95,0
1,39,70,0
1,51,70,0
1,46,70,0
1,39,70,96
1,51,70,0
1,46,70,0
1,39,95,96
1,51,95,0
1,46,95,0
1,39,70,0
1,51,70,0
1,46,70,0
1,39,95,96
1,46,95,0
1,51,95,0
1,46,70,0
1,39,70,0
1,51,70,0
1,39,70,96
1,51,70,0
1,46,70,0
1,39,95,96
1,51,95,0
1,46,95,0
1,39,70,0
1,51,70,0
1,46,70,0
1,39,70,96
1,51,70,0
1,46,70,0
1,39,95,96
1,51,95,0
1,46,95,0
1,39,70,0
1,51,70,0
1,46,70,0
1,39,95,96
1,46,95,0
1,51,95,0
1,46,70,0
1,39,70,0
1,51,70,0
1,39,70,96
1,51,70,0
1,46,70,0
1,39,95,96
1,51,95,0
1,46,95,0
1,39,70,0
1,51,70,0
1,46,70,0
1,39,70,96
1,51,70,0
1,46,70,0
1,39,95,96
1,51,95,0
1,44,95,0
1,46,95,0
1,39,70,0
1,51,70,0
1,49,95,0
1,39,95,96
1,46,95,0
1,51,95,0
1,46,70,0
1,39,70,0
1,51,70,0
1,39,70,96
1,51,70,0
1,46,70,0
1,39,95,96
1,51,95,0
1,46,95,0
1,39,70,0
1,51,70,0
1,46,70,0
1,39,70,96
1,51,70,0
1,46,70,0
1,39,95,96
1,51,95,0
1,46,95,0
1,39,70,0
1,51,70,0
1,46,70,0
1,39,95,96
1,46,95,0
1,51,95,0
1,46,70,0
1,39,70,0
1,51,70,0
1,39,70,96
1,51,70,0
1,46,70,0
1,39,95,96
1,51,95,0
1,46,95,0
1,39,70,0
1,51,70,0
1,46,70,0
1,39,70,96
1,51,70,0
1,46,70,0
1,39,95,96
1,51,95,0
1,46,95,0
1,39,70,0
1,51,70,0
1,46,70,0
1,39,95,96
1,46,95,0
1,51,95,0
1,46,70,0
1,39,70,0
1,51,70,0
1,39,70,96
1,51,70,0
1,46,70,0
1,39,95,96
1,51,95,0
1,46,95,0
1,39,70,0
1,51,70,0
1,46,70,0
1,39,70,96
1,51,70,0
1,46,70,0
1,39,95,96
1,51,95,0
1,46,95,0
1,39,70,0
1,51,70,0
1,46,70,0
1,39,95,96
1,46,95,0
1,51,95,0
1,46,70,0
1,39,70,0
1,51,70,0
1,39,70,96
