track,note,velocity,time
1,49,127,3840
1,37,127,0
1,49,0,147
1,49,127,27
1,37,0,146
1,49,0,16
1,37,127,14
1,49,127,13
1,37,0,559
1,49,0,13
1,47,101,17
1,47,0,178
1,46,127,0
1,46,0,176
1,42,127,14
1,42,0,249
1,41,101,5
1,42,127,112
1,41,0,2
1,41,127,53
1,42,0,2
1,41,0,55
1,37,127,7
1,37,0,95
1,49,127,20
1,37,127,0
1,49,0,147
1,49,127,27
1,37,0,146
1,49,0,16
1,37,127,14
1,49,127,13
1,37,0,559
1,49,0,13
1,47,101,17
1,47,0,178
1,46,127,0
1,46,0,176
1,42,127,14
1,42,0,249
1,41,101,5
1,42,127,112
1,41,0,2
1,41,127,53
1,42,0,2
1,41,0,55
1,37,127,7
1,37,0,95
1,49,127,20
1,37,127,0
1,49,0,147
1,49,127,27
1,37,0,146
1,49,0,16
1,37,127,14
1,49,127,13
1,37,0,559
1,49,0,13
1,47,101,17
1,47,0,178
1,46,127,0
1,46,0,176
1,42,127,14
1,42,0,249
1,41,101,5
1,42,127,112
1,41,0,2
1,41,127,53
1,42,0,2
1,41,0,55
1,37,127,7
1,37,0,95
1,49,127,20
1,37,127,0
1,49,0,147
1,49,127,27
1,37,0,146
1,49,0,16
1,37,127,14
1,49,127,13
1,37,0,559
1,49,0,13
1,47,101,17
1,47,0,178
1,46,127,0
1,46,0,176
1,42,127,14
1,42,0,249
1,41,101,5
1,42,127,112
1,41,0,2
1,41,127,53
1,42,0,2
1,41,0,55
1,37,127,7
1,37,0,95
1,37,127,31
1,37,0,104
1,37,102,10
1,37,0,38
1,37,77,12
1,37,0,48
1,37,89,14
1,37,0,116
1,37,79,10
1,37,0,45
1,37,91,10
1,37,0,44
1,39,127,16
1,37,117,0
1,39,0,3
1,37,0,82
1,37,127,12
1,37,0,50
1,37,81,9
1,37,0,46
1,37,127,11
1,37,0,121
1,37,89,10
1,37,0,45
1,37,66,10
1,37,0,44
1,39,127,15
1,39,0,14
1,37,127,5
1,37,0,104
1,37,102,10
1,37,0,38
1,37,77,12
1,37,0,48
1,37,89,14
1,37,0,116
1,37,79,10
1,37,0,45
1,37,91,10
1,37,0,44
1,39,127,16
1,37,117,0
1,39,0,3
1,37,0,82
1,37,127,12
1,37,0,50
1,37,81,9
1,37,0,46
1,37,127,11
1,37,0,121
1,37,89,10
1,37,0,45
1,37,66,10
1,37,0,44
1,39,127,15
1,39,0,14
1,37,127,5
1,37,0,104
1,37,102,10
1,37,0,38
1,37,77,12
1,37,0,48
1,37,89,14
1,37,0,116
1,37,79,10
1,37,0,45
1,37,91,10
1,37,0,44
1,39,127,16
1,37,117,0
1,39,0,3
1,37,0,82
1,37,127,12
1,37,0,50
1,37,81,9
1,37,0,46
1,37,127,11
1,37,0,121
1,37,89,10
1,37,0,45
1,37,66,10
1,37,0,44
1,39,127,15
1,39,0,14
1,37,127,5
1,37,0,104
1,37,102,10
1,37,0,38
1,37,77,12
1,37,0,48
1,37,89,14
1,37,0,116
1,37,79,10
1,37,0,45
1,37,91,10
1,37,0,44
1,39,127,16
1,37,117,0
1,39,0,3
1,37,0,82
1,37,127,12
1,37,0,50
1,37,81,9
1,37,0,46
1,37,127,11
1,37,0,121
1,37,89,10
1,37,0,45
1,37,66,10
1,37,0,44
1,39,127,15
1,49,127,8
1,37,127,0
1,39,0,6
1,49,0,144
1,49,127,30
1,49,0,150
1,37,0,0
1,37,127,30
1,49,127,0
1,49,0,570
1,37,0,0
1,47,101,22
1,47,0,178
1,46,127,0
1,46,0,176
1,42,127,14
1,42,0,249
1,41,101,5
1,42,127,112
1,41,0,2
1,41,127,53
1,42,0,2
1,41,0,55
1,37,127,7
1,37,0,95
1,49,127,20
1,37,127,0
1,49,0,147
1,49,127,27
1,37,0,146
1,49,0,16
1,37,127,14
1,49,127,13
1,37,0,559
1,49,0,13
1,47,101,17
1,47,0,178
1,46,127,0
1,46,0,176
1,42,127,14
1,42,0,249
1,41,101,5
1,42,127,112
1,41,0,2
1,41,127,53
1,42,0,2
1,41,0,55
1,37,127,7
1,37,0,95
1,49,127,20
1,37,127,0
1,49,0,147
1,49,127,27
1,37,0,146
1,49,0,16
1,37,127,14
1,49,127,13
1,37,0,559
1,49,0,13
1,47,101,17
1,47,0,178
1,46,127,0
1,46,0,176
1,42,127,14
1,42,0,249
1,41,101,5
1,42,127,112
1,41,0,2
1,41,127,53
1,42,0,2
1,41,0,55
1,37,127,7
1,37,0,95
1,49,127,20
1,37,127,0
1,49,0,147
1,49,127,27
1,37,0,146
1,49,0,16
1,37,127,14
1,49,127,13
1,37,0,559
1,49,0,13
1,47,101,17
1,47,0,178
1,46,127,0
1,46,0,176
1,42,127,14
1,42,0,249
1,41,101,5
1,42,127,112
1,41,0,2
1,41,127,53
1,42,0,2
1,41,0,55
1,37,127,7
1,37,0,95
1,49,127,20
1,37,127,0
1,49,0,147
1,49,127,27
1,37,0,146
1,49,0,16
1,37,127,14
1,49,127,13
1,37,0,559
1,49,0,13
1,47,101,17
1,47,0,178
1,46,127,0
1,46,0,176
1,42,127,14
1,42,0,249
1,41,101,5
1,42,127,112
1,41,0,2
1,41,127,53
1,42,0,2
1,41,0,55
1,37,127,7
1,37,0,95
1,49,127,20
1,37,127,0
1,49,0,147
1,49,127,27
1,37,0,146
1,49,0,16
1,37,127,14
1,49,127,13
1,37,0,559
1,49,0,13
1,47,101,17
1,47,0,178
1,46,127,0
1,46,0,176
1,42,127,14
1,42,0,249
1,41,101,5
1,42,127,112
1,41,0,2
1,41,127,53
1,42,0,2
1,41,0,55
1,37,127,7
1,37,0,95
1,37,127,31
1,37,0,104
1,37,102,10
1,37,0,38
1,37,77,12
1,37,0,48
1,37,89,14
1,37,0,116
1,37,79,10
1,37,0,45
1,37,91,10
1,37,0,44
1,39,127,16
1,37,117,0
1,39,0,3
1,37,0,82
1,37,127,12
1,37,0,50
1,37,81,9
1,37,0,46
1,37,127,11
1,37,0,121
1,37,89,10
1,37,0,45
1,37,66,10
1,37,0,44
1,39,127,15
1,39,0,14
1,37,127,5
1,37,0,104
1,37,102,10
1,37,0,38
1,37,77,12
1,37,0,48
1,37,89,14
1,37,0,116
1,37,79,10
1,37,0,45
1,37,91,10
1,37,0,44
1,39,127,16
1,37,117,0
1,39,0,3
1,37,0,82
1,37,127,12
1,37,0,50
1,37,81,9
1,37,0,46
1,37,127,11
1,37,0,121
1,37,89,10
1,37,0,45
1,37,66,10
1,37,0,44
1,39,127,15
1,39,0,14
1,37,127,5
1,37,0,104
1,37,102,10
1,37,0,38
1,37,77,12
1,37,0,48
1,37,89,14
1,37,0,116
1,37,79,10
1,37,0,45
1,37,91,10
1,37,0,44
1,39,127,16
1,37,117,0
1,39,0,3
1,37,0,82
1,37,127,12
1,37,0,50
1,37,81,9
1,37,0,46
1,37,127,11
1,37,0,121
1,37,89,10
1,37,0,45
1,37,66,10
1,37,0,44
1,39,127,15
1,39,0,14
1,37,127,5
1,37,0,104
1,37,102,10
1,37,0,38
1,37,77,12
1,37,0,48
1,37,89,14
1,37,0,116
1,37,79,10
1,37,0,45
1,37,91,10
1,37,0,44
1,39,127,16
1,37,117,0
1,39,0,3
1,37,0,82
1,37,127,12
1,37,0,50
1,37,81,9
1,37,0,46
1,37,127,11
1,37,0,121
1,37,89,10
1,37,0,45
1,37,66,10
1,37,0,44
1,39,127,15
1,49,127,10
1,39,0,4
1,49,0,335
1,49,127,24
1,49,0,209
1,49,127,24
1,49,0,168
1,49,127,22
1,49,0,147
1,49,127,21
1,49,0,340
1,49,127,23
1,49,0,215
1,49,127,23
1,49,0,153
1,49,127,34
1,49,0,135
1,45,127,41
1,45,0,448
1,45,127,31
1,45,0,427
1,45,127,28
1,45,0,164
1,47,127,21
1,47,0,173
1,49,127,20
1,49,0,555
1,49,127,55
1,49,0,339
1,49,127,24
1,49,0,209
1,49,127,24
1,49,0,168
1,49,127,22
1,49,0,147
1,49,127,21
1,49,0,340
1,49,127,23
1,49,0,215
1,49,127,23
1,49,0,153
1,49,127,34
1,49,0,135
1,45,127,41
1,45,0,448
1,45,127,31
1,45,0,427
1,45,127,28
1,45,0,164
1,47,127,21
1,47,0,173
1,49,127,20
1,49,0,555
1,49,127,53
1,37,127,0
1,49,0,147
1,49,127,27
1,37,0,146
1,49,0,16
1,37,127,14
1,49,127,13
1,37,0,559
1,49,0,13
1,47,101,17
1,47,0,178
1,46,127,0
1,46,0,176
1,42,127,14
1,42,0,249
1,41,101,5
1,42,127,112
1,41,0,2
1,41,127,53
1,42,0,2
1,41,0,55
1,37,127,7
1,37,0,95
1,49,127,20
1,37,127,0
1,49,0,147
1,49,127,27
1,37,0,146
1,49,0,16
1,37,127,14
1,49,127,13
1,37,0,559
1,49,0,13
1,47,101,17
1,47,0,178
1,46,127,0
1,46,0,176
1,42,127,14
1,42,0,249
1,41,101,5
1,42,127,112
1,41,0,2
1,41,127,53
1,42,0,2
1,41,0,55
1,37,127,7
1,37,0,95
1,49,127,20
1,37,127,0
1,49,0,147
1,49,127,27
1,37,0,146
1,49,0,16
1,37,127,14
1,49,127,13
1,37,0,559
1,49,0,13
1,47,101,17
1,47,0,178
1,46,127,0
1,46,0,176
1,42,127,14
1,42,0,249
1,41,101,5
1,42,127,112
1,41,0,2
1,41,127,53
1,42,0,2
1,41,0,55
1,37,127,7
1,37,0,95
1,49,127,20
1,37,127,0
1,49,0,147
1,49,127,27
1,37,0,146
1,49,0,16
1,37,127,14
1,49,127,13
1,37,0,559
1,49,0,13
1,47,101,17
1,47,0,178
1,46,127,0
1,46,0,176
1,42,127,14
1,42,0,249
1,41,101,5
1,42,127,112
1,41,0,2
1,41,127,53
1,42,0,2
1,41,0,55
1,37,127,7
1,37,0,95
1,37,127,31
1,37,0,104
1,37,102,10
1,37,0,38
1,37,77,12
1,37,0,48
1,37,89,14
1,37,0,116
1,37,79,10
1,37,0,45
1,37,91,10
1,37,0,44
1,39,127,16
1,37,117,0
1,39,0,3
1,37,0,82
1,37,127,12
1,37,0,50
1,37,81,9
1,37,0,46
1,37,127,11
1,37,0,121
1,37,89,10
1,37,0,45
1,37,66,10
1,37,0,44
1,39,127,15
1,39,0,14
1,37,127,5
1,37,0,104
1,37,102,10
1,37,0,38
1,37,77,12
1,37,0,48
1,37,89,14
1,37,0,116
1,37,79,10
1,37,0,45
1,37,91,10
1,37,0,44
1,39,127,16
1,37,117,0
1,39,0,3
1,37,0,82
1,37,127,12
1,37,0,50
1,37,81,9
1,37,0,46
1,37,127,11
1,37,0,121
1,37,89,10
1,37,0,45
1,37,66,10
1,37,0,44
1,39,127,15
1,39,0,14
1,37,127,5
1,37,0,104
1,37,102,10
1,37,0,38
1,37,77,12
1,37,0,48
1,37,89,14
1,37,0,116
1,37,79,10
1,37,0,45
1,37,91,10
1,37,0,44
1,39,127,16
1,37,117,0
1,39,0,3
1,37,0,82
1,37,127,12
1,37,0,50
1,37,81,9
1,37,0,46
1,37,127,11
1,37,0,121
1,37,89,10
1,37,0,45
1,37,66,10
1,37,0,44
1,39,127,15
1,39,0,14
1,37,127,5
1,37,0,104
1,37,102,10
1,37,0,38
1,37,77,12
1,37,0,48
1,37,89,14
1,37,0,116
1,37,79,10
1,37,0,45
1,37,91,10
1,37,0,44
1,39,127,16
1,37,117,0
1,39,0,3
1,37,0,82
1,37,127,12
1,37,0,50
1,37,81,9
1,37,0,46
1,37,127,11
1,37,0,121
1,37,89,10
1,37,0,45
1,37,66,10
1,37,0,44
1,39,127,15
1,49,127,10
1,39,0,4
1,49,0,335
1,49,127,24
1,49,0,209
1,49,127,24
1,49,0,168
1,49,127,22
1,49,0,147
1,49,127,21
1,49,0,340
1,49,127,23
1,49,0,215
1,49,127,23
1,49,0,153
1,49,127,34
1,49,0,135
1,45,127,41
1,45,0,448
1,45,127,31
1,45,0,427
1,45,127,28
1,45,0,164
1,47,127,21
1,47,0,173
1,49,127,20
1,49,0,555
1,49,127,55
1,49,0,339
1,49,127,24
1,49,0,209
1,49,127,24
1,49,0,168
1,49,127,22
1,49,0,147
1,49,127,21
1,49,0,340
1,49,127,23
1,49,0,215
1,49,127,23
1,49,0,153
1,49,127,34
1,49,0,135
1,45,127,41
1,45,0,448
1,45,127,31
1,45,0,427
1,45,127,28
1,45,0,59
1,47,127,21
1,47,0,173
1,49,127,20
1,49,0,555
1,49,127,55
1,49,0,339
1,49,127,24
1,49,0,209
1,49,127,24
1,49,0,21
1,49,127,22
1,49,0,147
1,49,127,21
1,49,0,329
1,49,127,23
1,49,0,215
1,49,127,23
1,49,0,153
1,49,127,34
1,49,0,135
1,45,101,41
1,57,85,0
1,57,0,71
1,45,0,2
2,77,101,0
2,68,101,0
2,73,127,0
2,61,127,0
2,68,0,27
2,73,0,6
2,77,0,5
2,68,101,137
2,73,127,0
2,77,101,2
2,68,0,17
2,73,0,7
2,77,0,8
2,61,0,72
2,61,85,14
2,61,0,28
2,71,85,5
2,73,101,1
2,61,101,1
2,78,127,0
2,71,0,23
2,73,0,7
2,78,0,13
2,61,0,285
2,59,85,266
2,71,85,1
2,73,85,54
2,78,127,51
2,71,0,6
2,73,0,52
2,70,85,2
2,59,0,1
2,78,0,1
2,58,101,0
2,73,61,60
2,78,101,58
2,70,0,19
2,73,0,34
2,54,101,9
2,66,127,0
2,58,0,1
2,78,0,0
2,66,0,132
2,54,0,37
2,53,101,4
2,65,101,1
2,65,0,190
2,66,127,1
2,54,101,2
2,53,0,1
2,53,85,58
2,65,85,0
2,66,0,1
2,54,0,1
2,49,101,56
2,61,127,4
2,53,0,4
2,65,0,2
2,61,0,104
2,49,0,3
2,77,101,13
2,68,101,0
2,73,127,0
2,61,127,0
2,68,0,27
2,73,0,6
2,77,0,5
2,68,101,137
2,73,127,0
2,77,101,2
2,68,0,17
2,73,0,7
2,77,0,8
2,61,0,72
2,61,85,14
2,61,0,28
2,71,85,5
2,73,101,1
2,61,101,1
2,78,127,0
2,71,0,23
2,73,0,7
2,78,0,13
2,61,0,285
2,59,85,266
2,71,85,1
2,73,85,54
2,78,127,51
2,71,0,6
2,73,0,52
2,70,85,2
2,59,0,1
2,78,0,1
2,58,101,0
2,73,61,60
2,78,101,58
2,70,0,19
2,73,0,34
2,54,101,9
2,66,127,0
2,58,0,1
2,78,0,0
2,66,0,132
2,54,0,37
2,53,101,4
2,65,101,1
2,65,0,190
2,66,127,1
2,54,101,2
2,53,0,1
2,53,85,58
2,65,85,0
2,66,0,1
2,54,0,1
2,49,101,56
2,61,127,4
2,53,0,4
2,65,0,2
2,61,0,104
2,49,0,3
2,77,101,13
2,68,101,0
2,73,127,0
2,61,127,0
2,68,0,27
2,73,0,6
2,77,0,5
2,68,101,137
2,73,127,0
2,77,101,2
2,68,0,17
2,73,0,7
2,77,0,8
2,61,0,72
2,61,85,14
2,61,0,28
2,71,85,5
2,73,101,1
2,61,101,1
2,78,127,0
2,71,0,23
2,73,0,7
2,78,0,13
2,61,0,285
2,59,85,266
2,71,85,1
2,73,85,54
2,78,127,51
2,71,0,6
2,73,0,52
2,70,85,2
2,59,0,1
2,78,0,1
2,58,101,0
2,73,61,60
2,78,101,58
2,70,0,19
2,73,0,34
2,54,101,9
2,66,127,0
2,58,0,1
2,78,0,0
2,66,0,132
2,54,0,37
2,53,101,4
2,65,101,1
2,65,0,190
2,66,127,1
2,54,101,2
2,53,0,1
2,53,85,58
2,65,85,0
2,66,0,1
2,54,0,1
2,49,101,56
2,61,127,4
2,53,0,4
2,65,0,2
2,61,0,104
2,49,0,3
2,77,101,13
2,68,101,0
2,73,127,0
2,61,127,0
2,68,0,27
2,73,0,6
2,77,0,5
2,68,101,137
2,73,127,0
2,77,101,2
2,68,0,17
2,73,0,7
2,77,0,8
2,61,0,72
2,61,85,14
2,61,0,28
2,71,85,5
2,73,101,1
2,61,101,1
2,78,127,0
2,71,0,23
2,73,0,7
2,78,0,13
2,61,0,285
