track,note,velocity,time
1,45,127,1178
1,38,127,4
1,47,127,75
1,40,127,3
1,44,127,167
1,37,127,1
1,38,127,219
1,45,127,3
1,47,127,83
1,40,127,3
1,37,127,218
1,44,127,4
1,38,127,103
1,45,127,6
1,47,127,77
1,40,127,6
1,44,127,210
1,37,127,4
1,38,127,95
1,45,127,5
1,40,127,69
1,47,127,5
1,37,127,198
1,44,127,3
1,45,127,133
1,38,127,4
1,40,127,74
1,47,127,4
1,44,127,183
1,37,127,6
1,45,127,79
1,38,127,4
1,40,127,65
1,47,127,4
1,37,127,156
1,44,127,7
1,38,127,92
1,45,127,4
1,47,127,67
1,40,127,8
1,44,127,170
1,37,127,6
1,38,127,81
1,45,127,7
1,47,127,67
1,40,127,3
1,37,127,194
1,44,127,2
1,38,127,127
1,45,127,5
1,47,127,56
1,40,127,2
1,44,127,161
1,37,127,4
1,38,127,102
1,45,127,5
1,40,127,57
1,47,127,4
1,44,127,91
1,37,127,4
1,45,127,103
1,38,127,4
1,40,127,58
1,47,127,2
1,37,127,121
1,44,127,176
1,38,127,111
1,45,127,6
1,40,127,59
1,47,127,3
1,37,127,124
1,44,127,5
1,38,127,122
1,45,127,5
1,40,127,91
1,47,127,7
1,37,127,206
1,44,127,2
1,45,127,69
1,38,127,3
1,47,127,65
1,40,127,3
1,37,127,139
1,44,127,4
1,38,127,68
1,45,127,8
1,40,127,47
1,47,127,3
1,44,127,150
1,37,127,2
1,38,127,86
1,45,127,4
1,40,127,60
1,47,127,3
1,37,127,155
1,44,127,5
1,38,127,139
1,45,127,1
1,40,127,67
1,47,127,7
1,44,127,132
1,51,127,3
1,44,127,39
1,51,127,8
1,44,127,80
1,51,127,3
1,44,127,34
1,51,127,5
1,44,127,15
1,51,127,7
1,44,127,44
1,51,127,2
1,43,127,46
1,49,127,5
1,42,127,69
1,49,127,1
1,40,127,84
1,47,127,6
1,51,127,124
1,44,127,4
1,44,127,43
1,51,127,3
1,44,127,12
1,51,127,4
1,44,127,35
1,51,127,5
1,44,127,66
1,51,127,2
1,44,127,40
1,51,127,2
1,44,127,40
1,51,127,12
1,43,127,56
1,50,127,3
1,49,127,65
1,42,127,4
1,40,127,85
1,47,127,5
1,40,127,27
1,40,127,16
1,47,127,30
1,40,127,10
1,40,127,23
1,47,127,16
1,47,127,53
1,47,127,84
1,47,127,9
1,40,127,40
1,47,127,8
1,40,127,39
1,47,127,8
1,44,127,80
1,51,127,3
1,44,127,35
1,51,127,8
1,44,127,41
1,51,127,7
1,44,127,22
1,51,127,8
1,44,127,27
1,51,127,7
1,50,127,95
1,43,127,3
1,49,127,80
1,42,127,3
1,40,127,67
1,47,127,5
1,40,127,9
1,47,127,9
1,47,127,54
1,47,127,102
1,40,127,29
1,47,127,7
1,47,127,9
1,40,127,7
1,40,127,32
1,47,127,10
1,40,127,59
1,47,127,5
1,44,127,69
1,51,127,7
1,44,127,46
1,51,127,6
1,44,127,20
1,51,127,6
1,44,127,19
1,51,127,8
1,44,127,25
1,51,127,5
1,50,127,81
1,43,127,2
1,42,127,64
1,49,127,2
1,40,127,62
1,47,127,4
1,40,127,31
1,47,127,8
1,40,127,72
1,47,127,6
1,40,127,18
1,47,127,7
1,38,127,80
1,45,127,6
1,40,127,75
1,47,127,7
1,37,127,179
1,44,127,7
1,38,127,97
1,45,127,3
1,40,127,37
1,47,127,6
1,37,127,151
1,44,127,7
1,45,127,136
1,38,127,4
1,40,127,189
1,47,127,3
1,37,127,118
1,44,127,7
1,45,127,138
1,38,127,2
1,40,127,24
1,47,127,7
1,37,127,159
1,44,127,8
1,38,127,118
1,45,127,8
1,40,127,123
1,47,127,5
1,37,127,251
1,44,127,4
1,38,127,106
1,45,127,5
1,47,127,84
1,40,127,5
1,44,127,162
1,37,127,3
1,38,127,82
1,45,127,8
1,40,127,53
1,47,127,7
1,37,127,144
1,44,127,4
1,38,127,103
1,45,127,5
1,47,127,64
1,40,127,3
1,44,127,154
1,37,127,3
1,38,127,72
1,45,127,5
1,40,127,93
1,47,127,3
1,37,127,258
1,44,127,8
1,38,127,80
1,45,127,5
1,40,127,53
1,47,127,4
1,37,127,201
1,44,127,6
1,38,127,86
1,45,127,7
1,40,127,49
1,47,127,6
1,37,127,139
1,44,127,69
1,38,127,84
1,45,127,5
1,47,127,64
1,40,127,4
1,37,127,173
1,44,127,4
1,38,127,110
1,45,127,4
1,40,127,55
1,47,127,9
1,44,127,160
1,51,127,3
1,44,127,49
1,51,127,7
1,44,127,22
1,51,127,9
1,51,127,74
1,44,127,5
1,44,127,24
1,51,127,8
1,51,127,7
1,44,127,31
1,44,127,26
1,51,127,3
1,43,127,53
1,50,127,3
1,49,127,65
1,42,127,5
1,40,127,84
1,48,127,8
1,47,127,4
1,40,127,14
1,47,127,13
1,51,127,196
1,44,127,2
1,44,127,107
1,51,127,5
1,44,127,36
1,51,127,7
1,44,127,25
1,51,127,9
1,44,127,21
1,51,127,6
1,43,127,65
1,50,127,3
1,49,127,88
1,42,127,5
1,40,127,85
1,47,127,6
1,47,127,27
1,40,127,20
1,40,127,10
1,40,127,44
1,47,127,6
1,47,127,16
1,40,127,6
1,47,127,24
1,40,127,12
1,47,127,13
1,40,127,10
1,47,127,49
1,40,127,7
1,44,127,91
1,51,127,6
1,44,127,34
1,51,127,10
1,44,127,24
1,51,127,10
1,44,127,9
1,51,127,4
1,44,127,23
1,51,127,8
1,43,127,80
1,50,127,4
1,42,127,109
1,49,127,3
1,40,127,79
1,47,127,6
1,47,127,13
1,40,127,3
1,47,127,14
1,40,127,7
1,40,127,37
1,47,127,18
1,40,127,9
1,40,127,37
1,44,127,85
1,51,127,4
1,44,127,55
1,51,127,8
1,44,127,28
1,51,127,7
1,44,127,18
1,51,127,10
1,44,127,9
1,51,127,2
1,43,127,71
1,50,127,6
1,42,127,62
1,49,127,4
1,40,127,81
1,47,127,6
1,40,127,96
1,47,127,11
1,40,127,53
1,47,127,33
1,40,127,91
1,47,127,6
1,44,127,104
1,51,127,2
1,44,127,135
1,51,127,2
1,44,127,27
1,51,127,7
1,44,127,8
1,51,127,7
1,44,127,20
1,51,127,9
1,43,127,70
1,50,127,4
1,49,127,79
1,42,127,5
1,40,127,118
1,47,127,7
1,44,127,106
1,51,127,6
1,44,127,17
1,51,127,2
1,44,127,19
1,51,127,9
1,44,127,27
1,51,127,5
1,44,127,19
1,51,127,7
1,51,127,15
1,44,127,6
1,43,127,78
1,50,127,3
1,49,127,93
1,42,127,3
1,47,127,82
1,40,127,5
1,44,127,124
1,51,127,5
1,44,127,21
1,51,127,7
1,44,127,23
1,51,127,8
1,44,127,20
1,51,127,5
1,44,127,7
1,51,127,4
1,43,127,76
1,50,127,2
1,49,127,78
1,42,127,4
1,47,127,85
1,40,127,2
1,44,127,93
1,51,127,7
1,44,127,56
1,51,127,3
1,44,127,45
1,51,127,2
1,44,127,22
1,51,127,9
1,44,127,21
1,51,127,10
1,43,127,90
1,49,127,68
1,42,127,6
1,40,127,96
1,47,127,3
1,40,127,34
1,47,127,8
1,47,127,35
1,40,127,57
1,47,127,7
1,40,127,15
1,47,127,8
1,47,127,19
1,45,127,82
1,38,127,4
1,40,127,80
1,47,127,3
1,37,127,248
1,44,127,3
1,38,127,96
1,45,127,7
1,40,127,64
1,47,127,6
1,37,127,134
1,44,127,6
1,38,127,85
1,45,127,7
1,40,127,82
1,47,127,3
1,37,127,185
1,44,127,7
1,45,127,94
1,38,127,3
1,40,127,65
1,47,127,7
1,37,127,199
1,44,127,5
1,45,127,143
1,38,127,4
1,40,127,82
1,47,127,3
1,37,127,227
1,44,127,6
2,38,127,1189
2,40,127,156
2,44,127,169
2,37,127,2
2,38,127,209
2,40,127,9
2,37,127,179
2,44,127,5
2,38,127,117
2,40,127,3
2,44,127,174
2,37,127,4
2,38,127,86
2,40,127,22
2,44,127,209
2,37,127,4
2,38,127,186
2,40,127,112
2,44,127,292
2,37,127,4
2,38,127,95
2,40,127,28
2,44,127,202
2,37,127,5
2,38,127,97
2,40,127,38
2,44,127,203
2,37,127,6
2,38,127,74
2,40,127,25
2,37,127,295
2,44,127,3
2,38,127,133
2,40,127,21
2,37,127,216
2,44,127,9
2,38,127,141
2,40,127,35
2,44,127,220
2,37,127,4
2,38,127,58
2,40,127,30
2,44,127,109
2,37,127,5
2,38,127,87
2,40,127,19
2,37,127,170
2,44,127,7
2,38,127,111
2,40,127,155
2,44,127,258
2,37,127,4
2,38,127,99
2,40,127,7
2,37,127,214
2,44,127,3
2,38,127,108
2,40,127,25
2,37,127,199
2,44,127,3
2,38,127,66
2,40,127,1
2,37,127,219
2,44,127,5
2,38,127,67
2,40,127,165
2,39,127,139
2,39,127,50
2,39,127,28
2,39,127,74
2,39,127,49
2,39,127,37
2,39,127,37
2,38,127,36
2,37,127,65
2,35,127,26
2,39,127,4
2,39,127,36
2,39,127,15
2,39,127,9
2,39,127,101
2,39,127,38
2,39,127,55
2,38,127,27
2,37,127,60
2,35,127,42
2,39,127,34
2,39,127,39
2,39,127,33
2,39,127,44
2,39,127,33
2,39,127,34
2,38,127,41
2,37,127,85
2,33,127,50
2,35,127,110
2,33,127,148
2,35,127,44
2,35,127,48
2,35,127,54
2,35,127,47
2,39,127,55
2,39,127,30
2,39,127,51
2,39,127,29
2,39,127,35
2,38,127,55
2,37,127,93
2,35,127,37
2,38,127,171
2,40,127,7
2,37,127,195
2,44,127,5
2,38,127,94
2,40,127,19
2,44,127,140
2,37,127,5
2,38,127,89
2,40,127,190
2,44,127,120
2,37,127,4
2,38,127,92
2,40,127,139
2,44,127,181
2,37,127,4
2,38,127,98
2,40,127,59
2,37,127,199
2,44,127,3
2,38,127,98
2,40,127,36
2,44,127,203
2,37,127,5
2,38,127,108
2,40,127,50
2,37,127,195
2,44,127,6
2,38,127,113
2,40,127,6
2,37,127,158
2,44,127,5
2,38,127,112
2,40,127,78
2,37,127,282
2,44,127,7
2,38,127,95
2,40,127,20
2,37,127,244
2,44,127,2
2,38,127,62
2,40,127,26
2,37,127,143
2,44,127,5
2,38,127,81
2,40,127,22
2,44,127,245
2,37,127,4
2,38,127,106
2,40,127,6
2,39,127,151
2,39,127,88
2,39,127,32
2,39,127,37
2,39,127,32
2,39,127,42
2,39,127,23
2,38,127,35
2,37,127,47
2,35,127,45
2,39,127,13
2,39,127,146
2,39,127,37
2,39,127,34
2,39,127,52
2,38,127,25
2,37,127,75
2,35,127,65
2,38,127,76
2,40,127,168
2,41,127,94
2,43,127,4
2,41,127,49
2,45,127,37
2,40,127,36
2,38,127,59
2,40,127,77
2,40,127,124
2,40,127,39
2,40,127,25
2,40,127,34
2,40,127,20
2,40,127,27
2,40,127,79
2,45,127,24
2,43,127,33
2,43,127,25
2,44,127,89
2,44,127,42
2,44,127,31
2,44,127,33
2,43,127,70
2,41,127,87
2,40,127,83
2,44,127,56
2,44,127,65
2,44,127,49
2,44,127,52
2,44,127,27
2,43,127,51
2,42,127,71
2,40,127,49
2,44,127,9
2,44,127,150
2,44,127,49
2,44,127,47
2,44,127,34
2,43,127,47
2,42,127,91
2,40,127,41
2,32,127,440
2,32,127,40
2,32,127,22
2,32,127,27
2,31,127,39
2,29,127,5
2,29,127,81
2,28,127,79
2,32,127,394
2,32,127,61
2,32,127,26
2,32,127,35
2,31,127,55
2,30,127,82
2,28,127,40
2,38,127,302
2,40,127,8
2,37,127,190
2,44,127,16
2,38,127,85
2,40,127,24
2,37,127,123
2,44,127,6
2,38,127,203
2,40,127,24
2,44,127,162
2,37,127,7
2,38,127,112
2,40,127,8
2,37,127,177
2,44,127,3
2,38,127,269
2,40,127,107
2,44,127,309
2,37,127,7
3,56,127,43718
3,56,127,61
3,56,127,38
3,59,127,40
3,68,127,42
3,63,127,27
3,62,127,28
3,61,127,52
3,59,127,15
3,56,127,99
3,56,127,50
3,56,127,23
3,59,127,16
3,68,127,93
3,63,127,37
3,62,127,46
3,61,127,61
3,59,127,54
3,56,127,50
3,56,127,37
3,56,127,16
3,59,127,35
3,68,127,78
3,63,127,49
3,62,127,46
3,61,127,53
3,59,127,32
3,56,127,45
3,56,127,67
3,56,127,57
3,59,127,43
3,68,127,83
3,63,127,46
3,62,127,20
3,61,127,65
3,59,127,31
3,61,127,21226
3,61,127,5
3,64,127,23
3,61,127,8
3,64,127,32
3,61,127,51
3,61,127,30
3,64,127,32
3,61,127,87
3,64,127,34
3,61,127,24
3,61,127,43
3,64,127,33
3,61,127,4
3,64,127,19
3,61,127,20
3,61,127,23
3,64,127,34
3,61,127,15
3,61,127,32
3,65,127,47
3,64,127,13
3,61,127,9
3,59,127,44
3,61,127,21
3,61,127,20
3,61,127,37
3,61,127,134
3,59,127,9
3,61,127,32
3,61,127,98
3,59,127,88
3,57,127,49
3,57,127,36
3,55,127,85
3,55,127,43
3,53,127,129
3,52,127,45
3,50,127,152
3,52,127,3
3,55,127,15
3,59,127,130
3,60,127,34
3,60,127,31
3,62,127,78
3,62,127,165
3,61,127,15
3,59,127,6
3,61,127,37
3,64,127,29
3,64,127,80
3,61,127,58
3,61,127,27
3,64,127,7
3,61,127,8
3,64,127,69
3,65,127,32
3,65,127,30
3,67,127,87
3,67,127,49
3,66,127,33
3,64,127,36
3,66,127,27
3,64,127,8
3,61,127,46
3,64,127,16
3,64,127,51
3,61,127,15
3,59,127,37
3,59,127,59
3,59,127,40
3,61,127,19
3,59,127,736
3,59,127,29
3,62,127,113
3,68,127,139
3,63,127,36
3,62,127,25
3,61,127,54
3,59,127,30
3,56,127,34
3,56,127,33
3,56,127,42
3,59,127,35
3,68,127,64
3,63,127,34
3,62,127,27
3,61,127,53
3,59,127,48
3,56,127,57
3,56,127,58
3,56,127,37
3,59,127,56
3,68,127,76
3,63,127,218
3,59,127,225
3,56,127,25
3,56,127,74
3,56,127,32
3,59,127,32
3,68,127,100
3,63,127,27
3,62,127,33
3,61,127,53
3,59,127,50
3,56,127,35
3,56,127,63
3,56,127,45
3,59,127,32
3,68,127,85
3,63,127,29
3,62,127,23
3,61,127,73
3,59,127,95
3,56,127,108
3,56,127,66
3,56,127,34
3,59,127,26
3,68,127,106
3,63,127,94
3,62,127,172
3,61,127,39
3,59,127,45
3,56,127,39
3,56,127,88
3,56,127,46
3,59,127,28
3,68,127,79
3,63,127,75
3,62,127,49
3,61,127,67
3,59,127,57
3,56,127,52
3,56,127,61
3,56,127,49
3,56,127,27
3,59,127,36
3,68,127,57
3,63,127,60
3,62,127,36
3,61,127,69
3,59,127,44
4,61,127,4855
4,64,127,167
4,61,127,4754
4,64,127,9
4,61,127,2036
4,61,127,50
4,64,127,21
4,67,127,26
4,66,127,102
4,67,127,169
4,66,127,38
4,64,127,58
4,61,127,37
4,64,127,8
4,61,127,6
4,71,127,51
4,68,127,24
4,61,127,130
4,61,127,55
4,64,127,18
4,66,127,15
4,64,127,26
4,67,127,35
4,66,127,27
4,64,127,42
4,61,127,39
4,64,127,35
4,61,127,30
4,75,127,272
4,61,127,156
4,61,127,70
4,64,127,33
4,66,127,24
4,64,127,25
4,67,127,35
4,66,127,343
4,64,127,51
4,61,127,50
4,64,127,31
4,61,127,34
4,71,127,51
4,68,127,1
4,61,127,224
4,61,127,47
4,64,127,35
4,66,127,6
4,64,127,8
4,67,127,19
4,66,127,46
4,64,127,49
4,61,127,36
4,64,127,26
4,61,127,56
4,76,127,64
4,75,127,55
4,73,127,24
4,70,127,1669
4,70,127,45
4,68,127,35
4,73,127,111
4,75,127,35
4,75,127,145
4,73,127,8
4,71,127,187
4,68,127,796
4,70,127,275
4,73,127,199
4,75,127,7
4,68,127,1358
4,80,127,227
4,78,127,29
4,61,127,1999
4,61,127,61
4,64,127,43
4,66,127,26
4,64,127,18
4,67,127,23
4,66,127,48
4,64,127,157
4,61,127,22
4,64,127,31
4,61,127,25
4,71,127,21
4,68,127,30
4,61,127,237
4,61,127,42
4,64,127,50
4,66,127,17
4,64,127,97
4,66,127,20
