track,note,velocity,time
1,80,90,0
1,63,90,1072
1,61,90,16
1,59,90,16
1,56,90,16
1,56,90,16
1,68,90,16
1,70,90,16
1,67,90,16
1,63,90,16
1,56,90,16
1,68,90,16
1,63,90,16
1,75,90,0
1,75,90,16
1,73,90,16
1,73,90,16
1,73,90,16
1,73,90,16
1,73,90,16
1,68,90,16
1,68,90,112
1,71,90,16
1,68,90,16
1,71,90,16
1,68,90,16
1,71,90,16
1,68,90,112
1,71,90,16
1,71,90,16
1,71,90,16
1,71,90,16
1,71,90,16
1,71,90,16
1,71,90,16
1,71,90,16
1,71,90,16
1,68,90,16
1,68,90,16
1,68,90,16
1,68,90,16
1,68,90,16
1,68,90,16
1,68,90,16
1,68,90,16
1,68,90,112
1,71,90,16
1,71,90,16
1,71,90,16
1,71,90,16
1,71,90,16
1,71,90,16
1,68,90,16
1,68,90,16
1,68,90,16
1,49,90,16
1,68,90,0
1,71,90,16
1,71,90,16
1,68,90,16
1,71,90,16
1,51,90,0
1,51,90,16
1,44,90,16
1,42,90,16
1,44,90,16
1,44,90,16
1,44,90,16
1,42,90,16
1,44,90,16
1,49,90,16
1,53,90,0
1,59,90,16
1,71,90,16
1,68,90,16
1,61,90,16
1,68,90,16
1,44,90,0
1,44,90,16
1,71,90,16
1,68,90,16
1,44,90,0
1,44,90,16
1,68,90,16
1,49,90,16
1,71,90,0
1,71,90,16
1,71,90,16
1,55,90,16
1,71,90,0
1,71,90,16
1,71,90,16
1,53,90,16
1,68,90,16
1,44,90,0
1,44,90,16
1,71,90,16
1,68,90,16
1,44,90,0
1,44,90,16
1,44,90,16
1,49,90,16
1,44,90,592
1,44,90,16
1,44,90,16
1,47,90,16
1,44,90,16
1,47,90,16
1,44,90,16
1,48,90,16
1,48,90,16
1,49,90,16
1,49,90,16
1,49,90,16
1,47,90,16
1,44,90,16
1,47,90,16
1,44,90,16
1,45,90,16
1,45,90,16
1,44,90,16
1,44,90,16
1,44,90,16
1,47,90,16
1,44,90,16
1,47,90,16
1,44,90,16
1,48,90,16
1,48,90,16
1,49,90,16
1,49,90,16
1,49,90,16
1,47,90,16
1,44,90,16
1,47,90,16
1,44,90,16
1,45,90,16
1,44,90,16
1,42,90,16
1,44,90,16
1,44,90,16
1,44,90,16
1,42,90,16
1,44,90,16
1,49,90,16
1,47,90,16
1,49,90,16
1,51,90,16
1,51,90,16
1,44,90,16
1,42,90,16
1,44,90,16
1,44,90,16
1,44,90,16
1,42,90,16
1,44,90,16
1,49,90,16
1,47,90,16
1,49,90,16
1,51,90,16
1,51,90,16
1,44,90,16
1,42,90,16
1,44,90,16
1,44,90,16
1,44,90,16
1,42,90,16
1,44,90,16
1,49,90,16
1,47,90,16
1,49,90,16
1,67,90,0
1,71,90,0
1,71,90,16
1,71,90,16
1,71,90,16
1,71,90,16
1,71,90,16
1,68,90,16
1,68,90,16
1,68,90,16
1,68,90,16
1,68,90,16
1,49,90,16
1,68,90,0
1,59,90,16
1,71,90,16
1,68,90,16
1,61,90,16
1,68,90,16
1,44,90,0
1,44,90,16
1,71,90,16
1,68,90,16
1,44,90,0
1,44,90,16
1,68,90,16
1,49,90,16
1,71,90,0
1,71,90,16
1,71,90,16
1,55,90,16
1,71,90,0
1,71,90,16
1,71,90,16
1,53,90,16
1,68,90,16
1,44,90,0
1,44,90,16
1,71,90,16
1,68,90,16
1,44,90,0
1,44,90,16
1,44,90,16
1,49,90,16
1,44,90,592
1,44,90,16
1,44,90,16
1,47,90,16
1,44,90,16
1,47,90,16
1,44,90,16
1,48,90,16
1,48,90,16
1,49,90,16
1,49,90,16
1,49,90,16
1,47,90,16
1,44,90,16
1,47,90,16
1,44,90,16
1,45,90,16
1,45,90,16
1,44,90,16
1,44,90,16
1,44,90,16
1,47,90,16
1,44,90,16
1,47,90,16
1,44,90,16
1,48,90,16
1,48,90,16
1,49,90,16
1,49,90,16
1,49,90,16
1,47,90,16
1,44,90,16
1,47,90,16
1,44,90,16
1,45,90,16
1,45,90,16
1,44,90,16
1,44,90,16
1,44,90,16
1,47,90,16
1,44,90,16
1,47,90,16
1,44,90,16
1,48,90,16
1,48,90,16
1,49,90,16
1,49,90,16
1,47,90,16
1,44,90,16
1,47,90,16
1,44,90,16
1,45,90,16
1,45,90,16
1,44,90,16
1,44,90,16
1,47,90,16
1,44,90,16
1,47,90,16
1,44,90,16
1,48,90,16
1,48,90,16
1,49,90,16
1,49,90,16
1,49,90,16
1,47,90,16
1,44,90,16
1,47,90,16
1,44,90,16
1,45,90,16
1,44,90,16
1,44,90,5968
1,42,90,16
1,44,90,16
1,44,90,16
1,44,90,16
1,42,90,16
1,44,90,16
1,49,90,16
1,47,90,16
1,49,90,16
1,51,90,16
1,51,90,16
1,44,90,16
1,42,90,16
1,44,90,16
1,44,90,16
1,44,90,16
1,42,90,16
1,44,90,16
1,49,90,16
1,47,90,16
1,49,90,16
1,51,90,16
1,51,90,16
1,44,90,16
1,42,90,16
1,44,90,16
1,44,90,16
1,44,90,16
1,42,90,16
1,44,90,16
1,49,90,16
1,47,90,16
1,49,90,16
1,67,90,0
1,71,90,0
1,71,90,16
1,71,90,16
1,71,90,16
1,71,90,16
1,71,90,16
1,68,90,16
1,68,90,16
1,68,90,16
1,68,90,16
1,68,90,16
1,49,90,16
1,68,90,0
1,59,90,16
1,71,90,16
1,68,90,16
1,61,90,16
1,68,90,16
1,44,90,0
1,44,90,16
1,71,90,16
1,68,90,16
1,44,90,0
1,44,90,16
1,68,90,16
1,49,90,16
1,68,90,0
1,71,90,16
1,68,90,16
1,55,90,16
1,70,90,0
1,68,90,16
1,68,90,16
1,53,90,16
1,68,90,16
1,44,90,0
1,44,90,16
1,71,90,16
1,68,90,16
1,44,90,0
1,44,90,16
1,68,90,16
1,49,90,16
1,71,90,0
1,68,90,16
1,65,90,16
1,63,90,16
1,51,90,0
1,51,90,16
1,61,90,0
1,68,90,16
1,44,90,0
1,44,90,16
1,71,90,16
1,68,90,16
1,44,90,0
1,44,90,16
1,68,90,16
1,49,90,16
1,68,90,0
1,71,90,16
1,71,90,16
1,63,90,16
1,68,90,0
1,68,90,16
1,68,90,16
1,65,90,16
1,68,90,16
1,44,90,0
1,44,90,16
1,71,90,16
1,68,90,16
1,44,90,0
1,44,90,16
1,44,90,16
1,49,90,16
1,44,90,592
1,44,90,16
1,44,90,16
1,47,90,16
1,44,90,16
1,47,90,16
1,44,90,16
1,48,90,16
1,48,90,16
1,49,90,16
1,49,90,16
1,49,90,16
1,47,90,16
1,44,90,16
1,47,90,16
1,44,90,16
1,45,90,16
1,45,90,16
1,44,90,16
1,44,90,16
1,44,90,16
1,47,90,16
1,44,90,16
1,47,90,16
1,44,90,16
1,48,90,16
1,49,90,16
1,44,90,592
1,44,90,16
1,44,90,16
1,47,90,16
1,44,90,16
1,47,90,16
1,44,90,16
1,48,90,16
1,48,90,16
1,49,90,16
1,49,90,16
1,49,90,16
1,47,90,16
1,44,90,16
1,47,90,16
1,44,90,16
1,45,90,16
1,45,90,16
1,44,90,16
1,44,90,16
1,44,90,16
1,47,90,16
1,44,90,16
1,47,90,16
1,44,90,16
1,48,90,16
1,49,90,16
1,44,90,592
1,44,90,16
1,44,90,16
1,44,90,16
1,47,90,16
1,44,90,16
1,47,90,16
1,44,90,16
1,48,90,16
1,48,90,16
1,49,90,16
1,49,90,16
1,49,90,16
1,47,90,16
1,44,90,16
1,47,90,16
1,44,90,16
1,45,90,16
1,45,90,16
1,44,90,16
1,44,90,16
1,44,90,16
1,47,90,16
1,44,90,16
1,47,90,16
1,44,90,16
1,48,90,16
1,48,90,16
1,49,90,16
1,49,90,16
1,49,90,16
1,47,90,16
1,44,90,16
1,47,90,16
1,44,90,16
1,45,90,16
1,45,90,16
1,44,90,16
1,44,90,16
1,44,90,16
1,47,90,16
1,44,90,16
1,47,90,16
1,44,90,16
1,48,90,16
1,48,90,16
1,49,90,16
1,49,90,16
1,49,90,16
1,47,90,16
1,44,90,16
1,47,90,16
1,44,90,16
1,45,90,16
1,45,90,16
1,44,90,16
1,44,90,16
1,44,90,16
1,47,90,16
1,44,90,16
1,47,90,16
1,44,90,16
1,48,90,16
1,49,90,16
2,44,90,0
2,44,90,16
2,44,90,16
2,44,90,16
2,44,90,16
2,44,90,16
2,44,90,16
2,44,90,16
2,44,90,16
2,44,90,16
2,44,90,16
2,44,90,16
2,44,90,16
2,44,90,16
2,44,90,16
2,44,90,16
2,44,90,16
2,44,90,16
2,44,90,16
2,44,90,16
2,44,90,16
2,44,90,16
2,63,90,16
2,65,90,16
2,63,90,16
2,63,90,16
2,60,90,16
2,63,90,16
2,61,90,16
2,70,90,16
2,56,90,3088
2,61,90,16
2,47,90,0
2,49,90,16
2,67,90,0
2,71,90,0
2,71,90,16
2,71,90,16
2,71,90,16
2,71,90,16
2,71,90,16
2,68,90,16
2,68,90,16
2,68,90,16
2,68,90,16
2,68,90,16
2,71,90,16
2,68,90,16
2,47,90,16
2,68,90,16
2,70,90,16
2,55,90,0
2,75,90,112
2,63,90,16
2,60,90,16
2,56,90,16
2,44,90,0
2,44,90,16
2,56,90,16
2,63,90,16
2,44,90,0
2,56,90,16
2,47,90,0
2,49,90,16
2,63,90,0
2,51,90,0
2,51,90,16
2,56,90,0
2,56,90,16
2,56,90,16
2,56,90,16
2,44,90,0
2,44,90,16
2,51,90,16
2,63,90,16
2,68,90,16
2,68,90,112
2,71,90,16
2,68,90,16
2,71,90,16
2,68,90,16
2,68,90,16
2,60,90,16
2,56,90,16
2,63,90,16
2,63,90,16
2,63,90,16
2,63,90,16
2,60,90,16
2,60,90,16
2,61,90,16
2,61,90,16
2,66,90,16
2,63,90,16
2,63,90,16
2,56,90,16
2,64,90,16
2,57,90,16
2,56,90,16
2,63,90,16
2,63,90,16
2,56,90,16
2,59,90,16
2,56,90,16
2,60,90,16
2,60,90,16
2,61,90,16
2,68,90,16
2,59,90,16
2,56,90,16
2,59,90,16
2,63,90,16
2,75,90,16
2,75,90,16
2,73,90,16
2,73,90,16
2,73,90,16
2,73,90,16
2,73,90,16
2,68,90,16
2,68,90,112
2,71,90,16
2,68,90,16
2,71,90,16
2,68,90,16
2,71,90,16
2,68,90,112
2,71,90,16
2,71,90,16
2,71,90,16
2,71,90,16
2,71,90,16
2,71,90,16
2,71,90,16
2,71,90,16
2,71,90,16
2,68,90,16
2,68,90,16
2,68,90,16
2,68,90,16
2,68,90,16
2,68,90,16
2,68,90,16
2,68,90,16
2,61,90,16
2,59,90,16
2,68,90,16
2,71,90,16
2,71,90,16
2,71,90,16
2,71,90,16
2,71,90,16
2,71,90,16
2,68,90,16
2,68,90,16
2,68,90,16
2,71,90,16
2,68,90,16
2,71,90,16
2,71,90,16
2,68,90,16
2,71,90,16
2,51,90,0
2,51,90,16
2,44,90,16
2,42,90,16
2,44,90,16
2,44,90,16
2,44,90,16
2,42,90,16
2,44,90,16
2,61,90,16
2,53,90,0
2,47,90,16
2,68,90,16
2,70,90,16
2,55,90,0
2,75,90,112
2,63,90,16
2,60,90,16
2,56,90,16
2,44,90,0
2,44,90,16
2,56,90,16
2,63,90,16
2,44,90,0
2,56,90,16
2,47,90,0
2,49,90,16
2,63,90,0
2,51,90,0
2,51,90,16
2,56,90,0
2,56,90,16
2,56,90,16
2,56,90,16
2,44,90,0
2,44,90,16
2,51,90,16
2,63,90,16
2,68,90,16
2,68,90,112
2,71,90,16
2,68,90,16
2,71,90,16
2,68,90,16
2,68,90,16
2,60,90,16
2,56,90,16
2,63,90,16
2,63,90,16
2,63,90,16
2,63,90,16
2,60,90,16
2,60,90,16
2,61,90,16
2,61,90,16
2,66,90,16
2,63,90,16
2,63,90,16
2,56,90,16
2,64,90,16
2,57,90,16
2,56,90,16
2,63,90,16
2,63,90,16
2,56,90,16
2,59,90,16
2,56,90,16
2,60,90,16
2,60,90,16
2,61,90,16
2,68,90,16
2,59,90,16
2,56,90,16
2,59,90,16
2,63,90,16
2,64,90,16
2,57,90,16
2,63,90,16
2,56,90,16
2,66,90,16
2,60,90,16
2,63,90,16
2,56,90,16
2,64,90,16
2,60,90,16
2,68,90,16
2,61,90,16
2,59,90,16
2,56,90,16
2,63,90,16
2,56,90,16
2,64,90,16
2,61,90,16
2,63,90,16
2,56,90,16
2,63,90,16
2,56,90,16
2,63,90,16
2,63,90,16
2,64,90,16
2,64,90,16
2,61,90,16
2,61,90,16
2,63,90,16
2,63,90,16
2,59,90,16
2,56,90,16
2,57,90,16
2,75,90,16
2,75,90,16
2,75,90,16
2,75,90,16
2,75,90,16
2,75,90,16
2,75,90,16
2,75,90,16
2,75,90,16
2,75,90,16
2,75,90,16
2,75,90,16
2,75,90,16
2,75,90,16
2,75,90,16
2,75,90,16
2,75,90,16
2,75,90,16
2,75,90,16
2,75,90,16
2,75,90,16
2,75,90,16
2,75,90,16
2,75,90,16
2,75,90,16
2,75,90,16
2,75,90,16
2,75,90,16
2,75,90,16
2,75,90,16
2,75,90,16
2,75,90,16
2,75,90,16
2,75,90,16
2,75,90,16
2,75,90,16
2,75,90,16
2,75,90,16
2,75,90,16
2,75,90,16
2,75,90,16
2,75,90,16
2,75,90,16
2,75,90,16
2,75,90,16
2,75,90,16
2,75,90,64
2,75,90,16
2,75,90,64
2,75,90,16
2,75,90,16
2,75,90,16
2,75,90,16
2,75,90,16
2,75,90,16
2,75,90,16
2,75,90,16
2,71,90,16
2,71,90,16
2,75,90,16
2,75,90,16
2,75,90,16
2,75,90,16
2,75,90,16
2,75,90,16
2,75,90,16
2,75,90,16
2,75,90,16
2,75,90,16
2,75,90,16
2,75,90,16
2,75,90,16
2,75,90,16
2,59,90,16
2,59,90,16
2,56,90,16
2,59,90,16
2,59,90,16
2,56,90,16
2,60,90,16
2,60,90,16
2,60,90,16
2,61,90,16
2,61,90,16
2,61,90,16
2,61,90,16
2,61,90,16
2,59,90,16
2,75,90,16
2,75,90,16
2,75,90,16
2,75,90,16
2,75,90,16
2,75,90,16
2,75,90,16
2,73,90,16
2,73,90,16
2,73,90,16
2,73,90,16
2,73,90,16
2,68,90,16
2,68,90,112
2,71,90,16
2,68,90,16
2,71,90,16
2,68,90,16
2,71,90,16
2,68,90,112
2,71,90,16
2,71,90,16
2,71,90,16
2,71,90,16
2,71,90,16
2,71,90,16
2,71,90,16
2,71,90,16
2,71,90,16
2,68,90,16
2,68,90,16
2,68,90,16
2,68,90,16
2,68,90,16
2,68,90,16
2,68,90,16
2,68,90,16
2,61,90,16
2,59,90,16
2,68,90,16
2,71,90,16
2,71,90,16
2,71,90,16
2,71,90,16
2,71,90,16
2,71,90,16
2,68,90,16
2,68,90,16
2,68,90,16
2,71,90,16
2,68,90,16
2,71,90,16
2,71,90,16
2,68,90,16
2,71,90,16
2,51,90,0
2,51,90,16
2,44,90,16
2,42,90,16
2,44,90,16
2,44,90,16
2,44,90,16
2,42,90,16
2,44,90,16
2,61,90,16
2,53,90,0
2,47,90,16
2,68,90,16
2,70,90,16
2,55,90,0
2,75,90,112
2,63,90,16
2,60,90,16
2,56,90,16
2,44,90,0
2,44,90,16
2,56,90,16
2,63,90,16
2,44,90,0
2,56,90,16
2,47,90,0
2,49,90,16
2,63,90,0
2,51,90,0
2,51,90,16
2,56,90,0
2,56,90,16
2,56,90,16
2,56,90,16
2,44,90,0
2,44,90,16
2,51,90,16
2,63,90,16
2,44,90,0
2,65,90,16
2,63,90,16
2,63,90,16
2,71,90,16
2,63,90,16
2,60,90,16
2,63,90,16
2,44,90,0
2,44,90,16
2,51,90,16
2,63,90,16
2,44,90,0
2,56,90,16
2,47,90,0
2,49,90,16
2,58,90,0
2,51,90,0
2,51,90,16
2,61,90,0
2,56,90,16
2,60,90,16
2,56,90,16
2,44,90,0
2,44,90,16
2,51,90,16
2,63,90,16
2,61,90,16
2,68,90,112
2,71,90,16
2,68,90,16
2,71,90,16
2,68,90,16
2,68,90,16
2,60,90,16
