track,note,velocity,time
1,49,83,0
1,44,83,0
1,49,53,16
1,44,53,0
1,49,65,30
1,44,65,0
1,49,71,31
1,44,71,0
1,50,71,28
1,45,71,0
1,50,59,26
1,45,59,0
1,50,59,28
1,45,59,0
1,50,59,28
1,45,59,0
1,51,68,28
1,46,68,0
1,51,53,30
1,46,53,0
1,51,68,30
1,46,68,0
1,52,68,30
1,47,68,0
1,49,120,70
1,44,120,0
1,49,53,15
1,44,53,0
1,49,74,32
1,44,74,0
1,49,56,30
1,44,56,0
1,50,68,28
1,45,68,0
1,50,42,29
1,45,42,0
1,50,68,28
1,45,68,0
1,50,74,29
1,45,74,0
1,51,74,30
1,46,74,0
1,51,68,30
1,46,68,0
1,51,65,30
1,46,65,0
1,52,71,29
1,47,71,0
1,49,98,69
1,44,98,0
1,49,56,12
1,44,56,0
1,49,71,31
1,44,71,0
1,49,56,32
1,44,56,0
1,50,59,28
1,45,59,0
1,50,59,29
1,45,59,0
1,50,77,28
1,45,77,0
1,50,68,27
1,45,68,0
1,51,68,28
1,46,68,0
1,51,65,28
1,46,65,0
1,51,77,31
1,46,77,0
1,52,74,30
1,47,74,0
1,49,104,68
1,44,104,0
1,49,59,22
1,44,59,0
1,49,68,33
1,44,68,0
1,49,62,32
1,44,62,0
1,50,65,24
1,45,65,0
1,50,74,27
1,45,74,0
1,50,77,27
1,45,77,0
1,50,59,28
1,45,59,0
1,51,95,27
1,46,95,0
1,51,62,30
1,46,62,0
1,51,77,30
1,46,77,0
1,52,71,30
1,47,71,0
1,49,95,70
1,44,95,0
1,49,74,21
1,44,74,0
1,49,68,34
1,44,68,0
1,49,53,28
1,44,53,0
1,50,59,30
1,45,59,0
1,50,46,26
1,45,46,0
1,50,68,27
1,45,68,0
1,50,74,28
1,45,74,0
1,51,46,29
1,46,46,0
1,51,65,28
1,46,65,0
1,51,83,32
1,46,83,0
1,52,71,28
1,47,71,0
1,49,89,68
1,44,89,0
1,49,53,18
1,44,53,0
1,49,68,30
1,44,68,0
1,49,77,28
1,44,77,0
1,50,59,28
1,45,59,0
1,50,68,28
1,45,68,0
1,50,65,27
1,45,65,0
1,50,74,30
1,45,74,0
1,51,77,27
1,46,77,0
1,51,89,30
1,46,89,0
1,51,95,32
1,46,95,0
1,52,83,29
1,47,83,0
1,49,95,70
1,44,95,0
1,49,53,22
1,44,53,0
1,49,68,32
1,44,68,0
1,49,50,32
1,44,50,0
1,50,65,27
1,45,65,0
1,50,65,29
1,45,65,0
1,50,59,28
1,45,59,0
1,50,59,29
1,45,59,0
1,51,83,28
1,46,83,0
1,51,59,30
1,46,59,0
1,51,62,30
1,46,62,0
1,52,77,29
1,47,77,0
1,49,101,72
1,44,101,0
1,49,77,25
1,44,77,0
1,49,77,31
1,44,77,0
1,49,65,30
1,44,65,0
1,50,68,26
1,45,68,0
1,50,65,27
1,45,65,0
1,50,71,26
1,45,71,0
1,50,46,28
1,45,46,0
1,51,74,28
1,46,74,0
1,51,62,28
1,46,62,0
1,51,71,31
1,46,71,0
1,52,68,30
1,47,68,0
1,45,98,112
1,52,98,0
1,45,80,24
1,52,80,0
1,45,92,17
1,52,92,0
1,45,74,23
1,52,74,0
1,45,83,25
1,52,83,0
1,45,77,27
1,52,77,0
1,44,101,24
1,51,101,0
1,44,89,25
1,51,89,0
1,44,110,25
1,51,110,0
1,44,116,23
1,51,116,0
1,47,98,92
1,54,98,0
1,47,101,47
1,54,101,0
1,47,80,24
1,54,80,0
1,47,71,23
1,54,71,0
1,47,77,25
1,54,77,0
1,47,74,26
1,54,74,0
1,46,104,23
1,53,104,0
1,46,71,25
1,53,71,0
1,46,83,25
1,53,83,0
1,46,89,26
1,53,89,0
1,46,101,25
1,53,101,0
1,45,122,21
1,52,122,0
1,49,83,90
1,44,83,0
1,49,53,17
1,44,53,0
1,49,65,32
1,44,65,0
1,49,71,32
1,44,71,0
1,50,71,30
1,45,71,0
1,50,59,27
1,45,59,0
1,50,59,30
1,45,59,0
1,50,59,29
1,45,59,0
1,51,68,30
1,46,68,0
1,51,53,29
1,46,53,0
1,51,68,32
1,46,68,0
1,52,68,30
1,47,68,0
1,49,120,70
1,44,120,0
1,49,53,15
1,44,53,0
1,49,74,30
1,44,74,0
1,49,56,32
1,44,56,0
1,50,68,28
1,45,68,0
1,50,42,29
1,45,42,0
1,50,68,28
1,45,68,0
1,50,74,30
1,45,74,0
1,51,74,28
1,46,74,0
1,51,68,30
1,46,68,0
1,51,65,30
1,46,65,0
1,52,71,28
1,47,71,0
1,49,98,67
1,44,98,0
1,49,56,10
1,44,56,0
1,49,71,33
1,44,71,0
1,49,56,30
1,44,56,0
1,50,59,30
1,45,59,0
1,50,59,28
1,45,59,0
1,50,77,27
1,45,77,0
1,50,68,28
1,45,68,0
1,51,68,29
1,46,68,0
1,51,65,30
1,46,65,0
1,51,77,32
1,46,77,0
1,52,74,30
1,47,74,0
1,49,104,70
1,44,104,0
1,49,59,22
1,44,59,0
1,49,68,34
1,44,68,0
1,49,62,30
1,44,62,0
1,50,65,25
1,45,65,0
1,50,74,26
1,45,74,0
1,50,77,27
1,45,77,0
1,50,59,26
1,45,59,0
1,51,95,29
1,46,95,0
1,51,62,28
1,46,62,0
1,51,77,30
1,46,77,0
1,52,71,28
1,47,71,0
1,49,83,110
1,44,83,0
1,49,64,20
1,44,64,0
1,50,71,20
1,45,71,0
1,50,64,22
1,45,64,0
1,51,53,22
1,46,53,0
1,52,68,20
1,47,68,0
1,49,120,70
1,44,120,0
1,49,64,22
1,44,64,0
1,50,68,22
1,45,68,0
1,50,64,22
1,45,64,0
1,51,74,20
1,46,74,0
1,52,71,22
1,47,71,0
1,49,98,69
1,44,98,0
1,49,64,21
1,44,64,0
1,50,59,21
1,45,59,0
1,50,64,21
1,45,64,0
1,51,68,21
1,46,68,0
1,52,74,22
1,47,74,0
1,49,104,68
1,44,104,0
1,49,64,20
1,44,64,0
1,50,65,20
1,45,65,0
1,50,64,20
1,45,64,0
1,51,95,22
1,46,95,0
1,52,71,22
1,47,71,0
1,49,95,68
1,44,95,0
1,49,64,22
1,44,64,0
1,50,59,22
1,45,59,0
1,50,64,22
1,45,64,0
1,51,46,22
1,46,46,0
1,52,71,21
1,47,71,0
1,49,89,70
1,44,89,0
1,49,64,22
1,44,64,0
1,50,59,22
1,45,59,0
1,50,64,22
1,45,64,0
1,51,77,22
1,46,77,0
1,52,83,20
1,47,83,0
1,49,95,70
1,44,95,0
1,49,64,22
1,44,64,0
1,50,65,20
1,45,65,0
1,50,64,20
1,45,64,0
1,51,83,20
1,46,83,0
1,52,77,22
1,47,77,0
1,49,101,72
1,44,101,0
1,49,64,21
1,44,64,0
1,50,68,21
1,45,68,0
1,50,64,21
1,45,64,0
1,51,74,21
1,46,74,0
1,52,68,22
1,47,68,0
1,45,98,112
1,52,98,0
1,45,80,24
1,52,80,0
1,45,92,17
1,52,92,0
1,45,74,23
1,52,74,0
1,45,83,25
1,52,83,0
1,45,77,27
1,52,77,0
1,44,101,24
1,51,101,0
1,44,89,23
1,51,89,0
1,44,110,25
1,51,110,0
1,44,116,25
1,51,116,0
1,47,98,92
1,54,98,0
1,47,101,47
1,54,101,0
1,47,80,22
1,54,80,0
1,47,71,23
1,54,71,0
1,47,77,25
1,54,77,0
1,47,74,26
1,54,74,0
1,46,104,23
1,53,104,0
1,46,71,25
1,53,71,0
1,46,83,25
1,53,83,0
1,46,89,28
1,53,89,0
1,46,101,25
1,53,101,0
1,45,122,21
1,52,122,0
1,49,83,90
1,44,83,0
1,49,53,17
1,44,53,0
1,49,65,32
1,44,65,0
1,49,71,32
1,44,71,0
1,50,71,30
1,45,71,0
1,50,59,27
1,45,59,0
1,50,59,30
1,45,59,0
1,50,59,29
1,45,59,0
1,51,68,30
1,46,68,0
1,51,53,29
1,46,53,0
1,51,68,30
1,46,68,0
1,52,68,30
1,47,68,0
1,49,120,70
1,44,120,0
1,49,53,15
1,44,53,0
1,49,74,30
1,44,74,0
1,49,56,32
1,44,56,0
1,50,68,28
1,45,68,0
1,50,42,29
1,45,42,0
1,50,68,28
1,45,68,0
1,50,74,28
1,45,74,0
1,51,74,28
1,46,74,0
1,51,68,30
1,46,68,0
1,51,65,30
1,46,65,0
1,52,71,28
1,47,71,0
1,49,98,67
1,44,98,0
1,49,56,12
1,44,56,0
1,49,71,33
1,44,71,0
1,49,56,30
1,44,56,0
1,50,59,29
1,45,59,0
1,50,59,28
1,45,59,0
1,50,77,27
1,45,77,0
1,50,68,28
1,45,68,0
1,51,68,29
1,46,68,0
1,51,65,30
1,46,65,0
1,51,77,32
1,46,77,0
1,52,74,30
1,47,74,0
1,49,104,70
1,44,104,0
1,49,59,20
1,44,59,0
1,49,68,34
1,44,68,0
1,49,62,31
1,44,62,0
1,50,65,25
1,45,65,0
1,50,74,26
1,45,74,0
1,50,77,27
1,45,77,0
1,50,59,26
1,45,59,0
1,51,95,29
1,46,95,0
1,51,62,28
1,46,62,0
1,51,77,32
1,46,77,0
1,52,71,28
1,47,71,0
1,49,83,110
1,44,83,0
1,49,53,18
1,44,53,0
1,49,65,30
1,44,65,0
1,49,71,31
1,44,71,0
1,50,71,28
1,45,71,0
1,50,59,26
1,45,59,0
1,50,59,28
1,45,59,0
1,50,59,28
1,45,59,0
1,51,68,28
1,46,68,0
1,51,53,29
1,46,53,0
1,51,68,30
1,46,68,0
1,52,68,29
1,47,68,0
1,49,120,70
1,44,120,0
1,49,53,15
1,44,53,0
1,49,74,32
1,44,74,0
1,49,56,30
1,44,56,0
1,50,68,28
1,45,68,0
1,50,42,29
1,45,42,0
1,50,68,26
1,45,68,0
1,50,74,29
1,45,74,0
1,51,74,28
1,46,74,0
1,51,68,30
1,46,68,0
1,51,65,30
1,46,65,0
1,52,71,29
1,47,71,0
1,49,98,69
1,44,98,0
1,49,56,12
1,44,56,0
1,49,71,31
1,44,71,0
1,49,56,30
1,44,56,0
1,50,59,30
1,45,59,0
1,50,59,28
1,45,59,0
1,50,77,28
1,45,77,0
1,50,68,27
1,45,68,0
1,51,68,30
1,46,68,0
1,51,65,28
1,46,65,0
1,51,77,31
1,46,77,0
1,52,74,30
1,47,74,0
1,49,104,68
1,44,104,0
1,49,59,22
1,44,59,0
1,49,68,32
1,44,68,0
1,49,62,32
1,44,62,0
1,50,65,24
1,45,65,0
1,50,74,27
1,45,74,0
1,50,77,27
1,45,77,0
1,50,59,28
1,45,59,0
1,51,95,29
1,46,95,0
1,51,62,30
1,46,62,0
1,51,77,30
1,46,77,0
1,52,71,28
1,47,71,0
1,49,95,68
1,44,95,0
1,49,74,21
1,44,74,0
1,49,68,34
1,44,68,0
1,49,53,30
1,44,53,0
1,50,59,30
1,45,59,0
1,50,46,26
1,45,46,0
1,50,68,27
1,45,68,0
1,50,74,28
1,45,74,0
1,51,46,27
1,46,46,0
1,51,65,28
1,46,65,0
1,51,83,30
1,46,83,0
1,52,71,28
1,47,71,0
1,49,89,70
1,44,89,0
1,49,53,18
1,44,53,0
1,49,68,30
1,44,68,0
1,49,77,28
1,44,77,0
1,50,59,28
1,45,59,0
1,50,68,27
1,45,68,0
1,50,65,28
1,45,65,0
1,50,74,29
1,45,74,0
1,51,77,28
1,46,77,0
1,51,89,32
1,46,89,0
1,51,95,32
1,46,95,0
1,52,83,30
1,47,83,0
1,49,95,70
1,44,95,0
1,49,53,22
1,44,53,0
1,49,68,30
1,44,68,0
1,49,50,32
1,44,50,0
1,50,65,25
1,45,65,0
1,50,65,29
1,45,65,0
1,50,59,28
1,45,59,0
1,50,59,29
1,45,59,0
1,51,83,28
1,46,83,0
1,51,59,30
1,46,59,0
1,51,62,30
1,46,62,0
1,52,77,29
1,47,77,0
1,49,101,70
1,44,101,0
1,49,77,23
1,44,77,0
1,49,77,31
1,44,77,0
1,49,65,30
1,44,65,0
1,50,68,26
1,45,68,0
1,50,65,27
1,45,65,0
1,50,71,28
1,45,71,0
1,50,46,28
1,45,46,0
1,51,74,28
1,46,74,0
1,51,62,28
1,46,62,0
1,51,71,30
1,46,71,0
1,52,68,30
1,47,68,0
1,45,98,112
1,52,98,0
1,45,80,24
1,52,80,0
1,45,92,17
1,52,92,0
1,45,74,23
1,52,74,0
1,45,83,25
1,52,83,0
1,45,77,25
1,52,77,0
1,44,101,24
1,51,101,0
1,44,89,23
1,51,89,0
1,44,110,25
1,51,110,0
1,44,116,25
1,51,116,0
1,47,98,92
1,54,98,0
1,47,101,45
1,54,101,0
1,47,80,22
1,54,80,0
1,47,71,25
1,54,71,0
1,47,77,25
1,54,77,0
1,47,74,26
1,54,74,0
1,46,104,23
1,53,104,0
1,46,71,26
1,53,71,0
1,46,83,25
1,53,83,0
1,46,89,28
1,53,89,0
1,46,101,25
1,53,101,0
1,45,122,20
1,52,122,0
2,37,122,0
2,38,92,13
2,39,116,3
2,40,62,15
2,37,120,88
2,38,98,0
2,39,118,12
2,40,80,0
2,35,110,50
2,37,104,8
2,38,89,0
2,39,83,6
2,40,80,12
2,37,127,90
2,38,83,0
2,39,95,9
2,40,89,8
2,35,120,50
2,37,89,5
2,38,89,22
2,39,104,4
2,40,71,5
2,37,126,92
2,38,110,0
2,39,112,170
2,40,71,9
2,35,104,48
2,37,74,10
2,38,89,2
2,39,114,6
2,40,92,0
2,37,127,52
2,38,80,13
2,39,104,10
2,40,80,0
2,33,104,102
2,40,98,0
2,33,104,5
2,33,83,24
2,40,86,2
2,33,65,14
2,32,114,17
2,39,89,0
2,44,65,0
2,44,83,20
2,39,120,20
2,35,104,7
2,42,103,0
2,47,71,0
2,47,65,25
2,42,83,18
2,35,77,13
2,34,127,15
2,34,77,18
2,34,89,23
2,34,104,25
2,33,104,15
2,37,104,67
2,38,89,12
2,39,83,10
2,40,89,10
2,37,116,83
2,38,83,1
2,39,83,5
2,40,74,10
2,35,104,57
2,37,104,11
2,38,80,16
2,39,98,4
2,40,83,7
2,35,80,52
2,37,56,14
2,38,86,10
2,39,110,2
2,40,86,8
2,37,110,97
2,37,77,25
2,37,89,25
2,37,83,25
2,38,92,23
2,38,77,23
2,38,77,22
2,38,65,21
2,39,98,22
2,39,77,23
2,39,89,25
2,40,80,22
2,35,80,65
2,37,125,13
2,37,101,12
2,37,89,25
2,37,95,25
2,38,80,23
2,38,92,22
2,38,71,20
2,38,68,20
2,39,112,18
2,39,83,27
2,39,89,25
2,40,104,24
2,37,101,54
2,37,89,25
2,37,89,24
2,37,101,25
2,37,98,25
2,38,92,23
2,38,74,22
2,38,83,23
2,38,74,22
2,39,116,20
2,39,95,23
2,39,110,23
2,40,104,22
2,35,98,58
2,37,101,6
2,37,77,12
2,37,89,24
2,37,114,27
2,38,80,22
2,38,80,22
2,38,65,20
2,38,71,22
2,39,104,20
2,39,89,25
2,39,104,24
2,40,86,23
2,35,112,58
2,37,114,7
2,37,89,15
2,37,71,22
2,37,89,25
2,38,83,24
2,38,83,18
2,38,74,22
2,38,83,20
2,39,110,20
2,39,89,23
2,39,89,23
2,40,92,23
2,37,125,53
2,37,114,12
2,37,127,21
2,37,110,25
2,37,112,26
2,38,83,22
2,38,83,20
2,38,74,20
2,38,74,20
2,39,112,22
2,39,89,24
2,39,114,27
2,40,104,22
2,37,122,57
2,37,110,27
2,37,104,25
2,37,112,27
2,37,114,25
2,38,89,23
2,38,77,22
2,38,74,20
2,38,80,22
2,39,114,20
2,39,110,24
2,39,104,25
2,40,101,25
2,37,120,59
2,37,116,26
2,37,114,25
2,37,112,25
2,37,114,25
2,38,80,23
2,38,104,20
2,38,83,23
2,38,77,20
2,39,116,20
2,39,114,25
2,39,110,25
2,40,92,25
2,33,92,93
2,33,83,24
2,33,65,22
2,32,104,20
2,32,110,18
2,32,104,22
2,32,118,24
2,35,112,31
2,35,74,21
2,35,68,22
2,35,89,25
2,35,77,18
2,35,74,20
2,35,80,20
2,34,125,18
2,34,110,22
2,34,120,24
2,34,112,29
