track,note,velocity,time
1,57,127,436
1,45,127,26
1,52,127,3
1,45,127,59
1,57,127,4
1,52,127,3
1,52,127,50
1,57,127,7
1,45,127,6
1,53,127,204
1,55,127,12
1,64,127,4
1,63,127,4
1,64,127,17
1,63,127,3
1,53,127,9
1,55,127,2
1,53,127,14
1,63,127,6
1,64,127,4
1,55,127,3
1,52,127,338
1,57,127,2
1,45,127,47
1,52,127,41
1,57,127,5
1,45,127,5
1,52,127,7
1,57,127,5
1,57,127,64
1,52,127,2
1,45,127,6
1,53,127,225
1,63,127,7
1,64,127,2
1,55,127,6
1,64,127,8
1,63,127,3
1,55,127,5
1,53,127,4
1,63,127,16
1,64,127,4
1,53,127,15
1,55,127,4
1,45,127,290
1,52,127,4
1,57,127,3
1,52,127,30
1,57,127,7
1,52,127,15
1,57,127,7
1,52,127,63
1,45,127,3
1,57,127,6
1,53,127,218
1,55,127,6
1,63,127,4
1,64,127,6
1,64,127,20
1,63,127,5
1,53,127,8
1,55,127,3
1,53,127,43
1,55,127,9
1,63,127,3
1,64,127,5
1,52,127,296
1,57,127,3
1,45,127,8
1,52,127,27
1,57,127,2
1,45,127,4
1,52,127,13
1,57,127,8
1,52,127,70
1,57,127,2
1,45,127,9
1,53,127,178
1,55,127,6
1,63,127,6
1,64,127,2
1,63,127,14
1,64,127,3
1,53,127,7
1,55,127,4
1,64,127,69
1,53,127,3
1,63,127,5
1,55,127,5
1,45,127,264
1,57,127,14
1,52,127,4
1,52,127,28
1,57,127,7
1,45,127,2
1,52,127,15
1,57,127,8
1,52,127,68
1,57,127,3
1,45,127,2
1,53,127,132
1,55,127,7
1,64,127,10
1,63,127,2
1,55,127,22
1,53,127,4
1,64,127,8
1,63,127,5
1,53,127,52
1,55,127,3
1,63,127,8
1,64,127,3
1,45,127,281
1,52,127,6
1,57,127,6
1,45,127,11
1,57,127,15
1,52,127,11
1,52,127,7
1,57,127,8
1,52,127,69
1,57,127,3
1,45,127,31
1,63,127,151
1,64,127,5
1,53,127,4
1,55,127,3
1,63,127,21
1,64,127,2
1,53,127,8
1,55,127,3
1,53,127,38
1,64,127,5
1,63,127,5
1,55,127,3
1,45,127,276
1,57,127,13
1,52,127,2
1,45,127,29
1,52,127,6
1,57,127,5
1,52,127,21
1,52,127,80
1,57,127,5
1,45,127,2
1,55,127,139
1,53,127,4
1,63,127,8
1,64,127,3
1,53,127,27
1,55,127,3
1,63,127,4
1,64,127,3
1,63,127,46
1,64,127,5
1,53,127,5
1,55,127,6
1,52,127,285
1,57,127,5
1,45,127,5
1,45,127,8
1,52,127,37
1,57,127,6
1,57,127,6
1,52,127,4
1,52,127,54
1,45,127,7
1,57,127,5
1,52,127,233
1,53,127,3
1,63,127,186
1,64,127,3
1,63,127,99
1,64,127,9
1,55,127,32
1,53,127,4
1,45,127,260
1,52,127,11
1,57,127,3
1,45,127,19
1,52,127,38
1,57,127,8
1,52,127,20
1,52,127,75
1,57,127,11
1,45,127,5
1,53,127,155
1,64,127,14
1,63,127,4
1,55,127,7
1,53,127,9
1,63,127,10
1,55,127,2
1,64,127,4
1,53,127,31
1,55,127,7
1,63,127,7
1,64,127,5
1,45,127,244
1,52,127,10
1,57,127,6
1,45,127,28
1,52,127,16
1,57,127,7
1,52,127,22
1,57,127,6
1,45,127,63
1,52,127,6
1,57,127,4
1,53,127,154
1,55,127,4
1,63,127,7
1,64,127,4
1,63,127,17
1,64,127,4
1,55,127,4
1,53,127,5
1,53,127,41
1,64,127,13
1,55,127,3
1,63,127,3
1,45,127,270
1,52,127,10
1,57,127,2
1,52,127,38
1,57,127,8
1,52,127,13
1,57,127,7
1,45,127,65
1,52,127,6
1,57,127,5
1,53,127,167
1,55,127,3
1,64,127,7
1,63,127,3
1,53,127,14
1,63,127,8
1,64,127,2
1,55,127,4
1,53,127,40
1,55,127,6
1,63,127,9
1,64,127,3
1,45,127,257
1,52,127,20
1,57,127,4
1,45,127,9
1,52,127,20
1,57,127,2
1,52,127,8
1,57,127,4
1,57,127,53
1,52,127,6
1,45,127,9
1,53,127,220
1,55,127,6
1,63,127,6
1,64,127,2
1,53,127,32
1,64,127,2
1,63,127,3
1,55,127,4
1,53,127,56
1,55,127,2
1,63,127,8
1,64,127,2
1,52,127,281
1,45,127,4
1,57,127,2
1,52,127,33
1,57,127,4
1,45,127,6
1,52,127,20
1,57,127,60
1,52,127,6
1,45,127,4
1,55,127,191
1,53,127,7
1,63,127,11
1,64,127,4
1,63,127,29
1,64,127,3
1,53,127,4
1,55,127,4
1,63,127,66
1,64,127,8
1,55,127,3
1,53,127,5
1,45,127,270
1,57,127,11
1,52,127,3
1,45,127,31
1,52,127,12
1,57,127,5
1,52,127,24
1,57,127,63
1,52,127,2
1,45,127,8
1,53,127,162
1,63,127,5
1,64,127,5
1,55,127,6
1,53,127,24
1,63,127,4
1,64,127,5
1,55,127,4
1,53,127,56
1,55,127,9
1,63,127,5
1,64,127,4
1,45,127,271
1,52,127,9
1,57,127,2
1,52,127,38
1,57,127,2
1,52,127,21
1,57,127,2
1,52,127,60
1,45,127,3
1,57,127,3
1,55,127,178
1,53,127,3
1,63,127,6
1,64,127,5
1,63,127,25
1,64,127,7
1,53,127,7
1,55,127,5
1,53,127,53
1,64,127,3
1,63,127,9
1,55,127,3
1,45,127,256
1,52,127,11
1,57,127,2
1,45,127,16
1,52,127,20
1,57,127,3
1,52,127,16
1,57,127,4
1,52,127,90
1,45,127,8
1,57,127,2
1,52,127,254
1,53,127,3
1,63,127,16
1,64,127,5
1,53,127,59
1,55,127,6
1,53,127,52
1,55,127,7
1,63,127,6
1,64,127,3
1,57,127,257
1,52,127,7
1,45,127,4
1,45,127,26
1,52,127,19
1,57,127,7
1,52,127,19
1,57,127,6
1,57,127,49
1,52,127,3
1,45,127,38
1,53,127,207
1,55,127,5
1,63,127,8
1,64,127,3
1,55,127,11
1,63,127,11
1,64,127,2
1,53,127,31
1,55,127,7
1,63,127,10
1,64,127,2
1,45,127,268
1,52,127,3
1,57,127,3
1,52,127,48
1,57,127,4
1,52,127,6
1,57,127,3
1,45,127,69
1,52,127,7
1,57,127,4
1,53,127,111
1,55,127,8
1,63,127,5
1,64,127,4
1,55,127,5
1,63,127,8
1,64,127,5
1,55,127,54
1,53,127,10
1,63,127,6
1,64,127,1
1,52,127,248
1,57,127,4
1,45,127,6
1,45,127,29
1,52,127,5
1,57,127,7
1,52,127,28
1,57,127,6
1,52,127,83
1,57,127,5
1,45,127,9
1,53,127,231
1,63,127,4
1,63,127,139
1,64,127,3
1,55,127,75
1,53,127,4
1,63,127,11
1,64,127,1
1,57,127,300
1,52,127,11
1,45,127,6
1,45,127,8
1,57,127,21
1,52,127,9
1,52,127,33
1,57,127,6
1,52,127,72
1,57,127,6
1,45,127,6
1,55,127,140
1,53,127,6
1,63,127,6
1,64,127,1
1,63,127,15
1,55,127,5
1,64,127,4
1,53,127,7
1,53,127,59
1,55,127,8
1,64,127,6
1,63,127,11
1,45,127,254
1,52,127,5
1,57,127,5
1,45,127,24
1,52,127,7
1,57,127,6
1,57,127,25
1,52,127,11
1,52,127,83
1,57,127,7
1,45,127,12
1,55,127,141
1,63,127,3
1,64,127,3
1,53,127,6
1,53,127,26
1,55,127,6
1,63,127,8
1,64,127,2
1,55,127,57
1,53,127,7
1,63,127,11
1,64,127,2
1,45,127,240
1,52,127,7
1,57,127,4
1,52,127,28
1,57,127,7
1,45,127,4
1,52,127,9
1,57,127,5
1,45,127,60
1,52,127,3
1,57,127,2
1,53,127,144
1,55,127,7
1,63,127,9
1,64,127,5
1,53,127,22
1,55,127,5
1,64,127,9
1,63,127,3
1,53,127,36
1,55,127,7
1,64,127,6
1,63,127,5
1,57,127,272
1,45,127,4
1,52,127,4
1,52,127,50
1,57,127,7
1,45,127,6
1,57,127,34
1,52,127,105
1,57,127,9
1,45,127,2
1,53,127,116
1,52,127,3
1,63,127,28
1,64,127,3
1,55,127,77
1,53,127,5
1,63,127,6
1,64,127,7
1,52,127,298
1,57,127,3
1,45,127,8
1,45,127,23
1,52,127,21
1,57,127,4
1,52,127,9
1,57,127,3
1,45,127,86
1,52,127,5
1,57,127,5
1,55,127,155
1,53,127,5
1,64,127,6
1,63,127,4
1,63,127,26
1,64,127,2
1,53,127,5
1,55,127,2
1,53,127,56
1,55,127,2
1,63,127,7
1,64,127,3
1,45,127,260
1,52,127,6
1,57,127,3
1,45,127,16
1,52,127,28
1,57,127,3
1,52,127,9
1,57,127,6
1,45,127,119
1,57,127,10
1,52,127,2
1,55,127,155
1,53,127,4
1,63,127,7
1,64,127,3
1,63,127,21
1,64,127,4
1,53,127,3
1,55,127,6
1,53,127,34
1,55,127,8
1,64,127,14
1,63,127,4
1,45,127,278
1,52,127,17
1,57,127,6
1,57,127,72
1,52,127,2
1,45,127,6
1,52,127,25
1,57,127,7
1,52,127,83
1,57,127,4
1,45,127,19
1,53,127,125
1,52,127,85
1,63,127,18
1,64,127,8
1,55,127,32
1,53,127,3
1,55,127,72
1,53,127,2
1,64,127,14
1,63,127,4
1,45,127,260
1,52,127,10
1,57,127,6
1,45,127,35
1,52,127,8
1,57,127,3
1,52,127,7
1,57,127,4
1,57,127,79
1,52,127,3
1,45,127,21
1,53,127,122
1,55,127,2
1,63,127,14
1,64,127,3
1,64,127,11
1,63,127,6
1,53,127,10
1,55,127,7
1,53,127,37
1,63,127,9
1,55,127,4
1,64,127,2
1,45,127,269
1,52,127,11
1,57,127,5
1,57,127,54
1,52,127,6
1,45,127,5
1,52,127,24
1,57,127,6
1,52,127,59
1,57,127,9
1,45,127,6
1,53,127,144
1,55,127,2
1,63,127,17
1,64,127,2
1,53,127,24
1,55,127,3
1,64,127,5
1,63,127,2
1,53,127,15
1,55,127,12
1,63,127,9
1,64,127,3
1,45,127,287
1,52,127,9
1,57,127,7
1,45,127,40
1,52,127,22
1,57,127,6
1,52,127,8
1,57,127,3
1,45,127,69
1,52,127,7
1,57,127,9
1,55,127,141
1,53,127,6
1,63,127,8
1,64,127,3
1,53,127,8
1,55,127,2
1,63,127,8
1,64,127,3
1,53,127,40
1,55,127,2
1,63,127,8
1,64,127,3
1,52,127,272
1,57,127,6
1,45,127,9
1,45,127,44
1,52,127,24
1,57,127,3
1,52,127,28
1,57,127,6
1,52,127,71
1,57,127,8
1,45,127,12
1,53,127,134
1,55,127,5
1,63,127,8
1,64,127,6
1,64,127,26
1,63,127,3
1,53,127,7
1,55,127,4
1,53,127,39
1,63,127,10
1,64,127,2
1,55,127,4
1,52,127,246
1,57,127,8
1,45,127,20
1,45,127,41
1,52,127,6
1,57,127,4
1,52,127,28
1,57,127,4
1,52,127,76
1,57,127,6
1,45,127,3
1,53,127,130
1,64,127,5
1,55,127,3
1,63,127,4
1,53,127,28
1,64,127,4
1,63,127,3
1,55,127,3
1,53,127,49
1,63,127,10
1,64,127,3
1,55,127,2
1,52,127,230
1,45,127,2
1,57,127,7
1,52,127,21
1,57,127,2
1,45,127,8
1,57,127,8
1,52,127,8
1,57,127,9
1,45,127,3
1,52,127,6
1,52,127,10
1,57,127,4
1,52,127,54
1,57,127,5
1,45,127,6
1,55,127,145
1,53,127,4
1,63,127,7
1,64,127,3
1,63,127,19
1,64,127,5
1,53,127,9
1,55,127,4
1,53,127,36
1,55,127,7
1,63,127,9
1,64,127,3
1,52,127,275
1,57,127,12
1,47,127,13
1,52,127,140
1,57,127,8
1,52,127,32
1,57,127,3
1,47,127,9
1,52,127,9
1,59,127,19
1,47,127,13
1,52,127,13
1,59,127,11
1,47,127,1
1,52,127,33
1,47,127,3
1,59,127,11
1,52,127,22
1,59,127,6
1,47,127,8
1,47,127,7
1,52,127,9
1,59,127,13
1,52,127,52
1,47,127,5
1,59,127,8
1,47,127,57
1,59,127,3
1,52,127,5
1,47,127,65
1,52,127,5
1,59,127,3
1,52,127,7
1,59,127,4
1,47,127,8
1,52,127,36
1,59,127,9
1,52,127,29
1,59,127,5
1,47,127,13
1,59,127,15
1,52,127,6
1,47,127,5
1,52,127,14
1,59,127,8
1,47,127,9
1,47,127,35
1,52,127,33
1,59,127,4
1,51,127,113
1,44,127,6
1,51,127,27
1,44,127,65
1,56,127,4
1,51,127,2
1,51,127,6
1,56,127,10
1,51,127,41
1,56,127,6
1,44,127,3
1,44,127,59
1,51,127,12
1,56,127,7
1,56,127,31
1,51,127,6
1,44,127,3
1,44,127,28
1,51,127,12
1,56,127,9
1,51,127,65
1,56,127,6
1,44,127,80
1,51,127,6
1,56,127,4
1,44,127,94
1,51,127,6
1,56,127,5
1,44,127,68
1,51,127,7
1,56,127,5
1,51,127,32
1,56,127,6
1,44,127,6
1,56,127,24
1,51,127,3
1,44,127,19
1,51,127,10
1,44,127,10
1,44,127,92
1,51,127,4
1,56,127,3
1,56,127,27
1,51,127,2
1,44,127,23
1,51,127,24
1,56,127,9
1,44,127,15
1,52,127,129
1,47,127,9
1,57,127,3
1,59,127,35
1,52,127,31
1,59,127,10
1,52,127,40
1,47,127,6
1,59,127,5
1,52,127,21
1,59,127,7
1,52,127,36
1,59,127,6
1,47,127,3
1,52,127,28
1,59,127,5
1,47,127,11
1,59,127,18
1,47,127,4
1,52,127,3
1,52,127,44
1,52,127,73
1,47,127,11
1,59,127,6
1,59,127,81
1,47,127,5
1,52,127,5
1,52,127,38
1,47,127,27
1,52,127,27
1,59,127,9
1,52,127,50
1,59,127,8
1,47,127,5
1,52,127,15
1,59,127,8
1,52,127,46
1,59,127,7
1,47,127,17
1,59,127,15
1,47,127,38
1,47,127,65
1,52,127,4
1,59,127,12
1,44,127,105
1,51,127,14
1,51,127,19
1,44,127,43
1,56,127,53
1,51,127,2
1,44,127,21
1,51,127,23
1,56,127,8
1,51,127,14
1,56,127,5
1,44,127,18
1,51,127,39
1,44,127,20
1,51,127,32
1,44,127,21
1,51,127,40
1,56,127,8
1,44,127,9
1,52,127,217
1,59,127,21
1,47,127,3
1,52,127,544
1,57,127,10
1,45,127,1
1,45,127,43
1,52,127,11
1,57,127,8
1,52,127,7
1,57,127,8
1,52,127,39
1,57,127,9
1,45,127,2
1,64,127,165
1,52,127,28
1,64,127,46
1,63,127,5
1,53,127,13
1,55,127,3
1,55,127,37
1,53,127,6
1,63,127,6
1,64,127,2
1,52,127,220
1,45,127,4
1,57,127,6
1,52,127,11
1,57,127,6
1,45,127,14
1,52,127,30
1,57,127,4
1,52,127,71
1,57,127,7
1,45,127,2
1,53,127,94
1,55,127,12
1,64,127,34
1,63,127,9
1,63,127,42
1,64,127,35
1,64,127,28
1,63,127,4
1,53,127,8
1,55,127,3
1,52,127,242
1,57,127,6
1,45,127,6
1,52,127,31
1,57,127,8
1,45,127,6
1,52,127,12
1,57,127,2
1,52,127,68
1,57,127,4
1,45,127,6
1,53,127,161
1,55,127,11
1,64,127,7
1,63,127,4
1,64,127,19
1,63,127,8
1,64,127,42
1,63,127,4
1,52,127,256
1,57,127,5
1,45,127,2
1,45,127,45
1,52,127,11
1,57,127,1
1,57,127,10
1,52,127,77
1,57,127,4
1,45,127,11
1,53,127,159
1,55,127,7
1,63,127,10
1,64,127,6
1,53,127,19
1,63,127,6
1,64,127,3
1,55,127,4
1,53,127,37
1,55,127,7
1,63,127,4
1,64,127,4
1,45,127,262
1,52,127,3
1,57,127,23
1,45,127,33
1,52,127,9
1,57,127,7
1,52,127,18
1,57,127,2
1,52,127,37
1,57,127,6
1,45,127,12
1,53,127,161
1,55,127,4
1,64,127,14
1,63,127,9
1,53,127,81
1,55,127,3
1,63,127,38
1,64,127,106
1,52,127,251
1,57,127,5
1,45,127,12
1,52,127,33
1,57,127,5
1,45,127,3
1,57,127,19
1,52,127,4
1,52,127,38
1,57,127,6
1,45,127,4
1,53,127,155
1,55,127,2
1,63,127,10
1,64,127,3
1,64,127,9
1,63,127,5
1,53,127,4
1,55,127,4
1,55,127,6
1,63,127,33
1,64,127,2
1,45,127,251
