track,note,velocity,time
1.0,39.0,70.0,0.0
1.0,46.0,67.0,7.0
1.0,39.0,66.0,12.0
1.0,47.0,69.0,15.0
1.0,39.0,67.0,7.0
1.0,46.0,66.0,9.0
1.0,39.0,68.0,3.0
1.0,47.0,68.0,9.0
1.0,39.0,68.0,10.0
1.0,46.0,66.0,140.0
1.0,39.0,66.0,5.0
1.0,47.0,69.0,15.0
1.0,39.0,68.0,13.0
1.0,46.0,67.0,5.0
1.0,39.0,66.0,5.0
1.0,47.0,67.0,12.0
1.0,39.0,70.0,5.0
1.0,46.0,67.0,7.0
1.0,39.0,66.0,12.0
1.0,47.0,69.0,15.0
1.0,39.0,67.0,7.0
1.0,46.0,66.0,9.0
1.0,39.0,68.0,3.0
1.0,47.0,68.0,7.0
1.0,39.0,68.0,8.0
1.0,46.0,66.0,142.0
1.0,39.0,66.0,5.0
1.0,47.0,69.0,15.0
1.0,39.0,68.0,15.0
1.0,46.0,67.0,5.0
1.0,39.0,66.0,5.0
1.0,47.0,67.0,12.0
1.0,39.0,68.0,5.0
1.0,46.0,65.0,17.0
1.0,39.0,66.0,5.0
1.0,47.0,68.0,12.0
1.0,39.0,69.0,9.0
1.0,46.0,69.0,7.0
1.0,39.0,68.0,0.0
1.0,47.0,70.0,7.0
1.0,39.0,69.0,17.0
1.0,46.0,69.0,9.0
1.0,39.0,68.0,5.0
1.0,47.0,70.0,12.0
1.0,39.0,70.0,8.0
1.0,46.0,69.0,5.0
1.0,39.0,69.0,5.0
1.0,46.0,68.0,12.0
1.0,39.0,70.0,7.0
1.0,35.0,69.0,48.0
1.0,42.0,65.0,5.0
1.0,35.0,68.0,9.0
1.0,43.0,67.0,7.0
1.0,35.0,68.0,14.0
1.0,42.0,65.0,15.0
1.0,35.0,68.0,5.0
1.0,43.0,67.0,15.0
1.0,35.0,69.0,9.0
1.0,42.0,70.0,12.0
1.0,35.0,72.0,5.0
1.0,43.0,67.0,5.0
1.0,35.0,71.0,9.0
1.0,42.0,69.0,12.0
1.0,35.0,68.0,4.0
1.0,43.0,66.0,17.0
1.0,35.0,69.0,7.0
1.0,39.0,67.0,40.0
1.0,46.0,68.0,7.0
1.0,39.0,68.0,12.0
1.0,47.0,69.0,7.0
1.0,39.0,70.0,7.0
1.0,46.0,67.0,12.0
1.0,39.0,67.0,4.0
1.0,47.0,67.0,24.0
1.0,39.0,68.0,12.0
1.0,46.0,68.0,5.0
1.0,39.0,69.0,2.0
1.0,47.0,68.0,12.0
1.0,39.0,68.0,14.0
1.0,46.0,65.0,9.0
1.0,39.0,67.0,0.0
1.0,47.0,68.0,17.0
1.0,39.0,69.0,4.0
1.0,42.0,68.0,65.0
1.0,41.0,68.0,5.0
1.0,42.0,68.0,325.0
1.0,41.0,68.0,12.0
1.0,37.0,70.0,177.0
1.0,39.0,68.0,5.0
1.0,46.0,69.0,12.0
1.0,39.0,68.0,0.0
1.0,47.0,70.0,7.0
1.0,39.0,71.0,15.0
1.0,46.0,68.0,7.0
1.0,39.0,68.0,0.0
1.0,47.0,68.0,17.0
1.0,39.0,68.0,12.0
1.0,46.0,67.0,7.0
1.0,39.0,68.0,5.0
1.0,47.0,68.0,9.0
1.0,46.0,68.0,49.0
1.0,39.0,70.0,4.0
1.0,39.0,70.0,530.0
1.0,46.0,67.0,7.0
1.0,39.0,66.0,12.0
1.0,47.0,69.0,15.0
1.0,39.0,67.0,7.0
1.0,46.0,66.0,9.0
1.0,39.0,68.0,5.0
1.0,47.0,68.0,9.0
1.0,39.0,68.0,10.0
1.0,46.0,66.0,140.0
1.0,39.0,66.0,5.0
1.0,47.0,69.0,15.0
1.0,39.0,68.0,15.0
1.0,46.0,67.0,5.0
1.0,39.0,66.0,5.0
1.0,47.0,67.0,12.0
1.0,39.0,68.0,5.0
1.0,46.0,65.0,17.0
1.0,39.0,66.0,5.0
1.0,47.0,68.0,12.0
1.0,39.0,69.0,9.0
1.0,46.0,69.0,7.0
1.0,39.0,68.0,0.0
1.0,47.0,70.0,7.0
1.0,39.0,69.0,17.0
1.0,46.0,69.0,9.0
1.0,39.0,68.0,5.0
1.0,47.0,70.0,12.0
1.0,39.0,70.0,10.0
1.0,46.0,69.0,7.0
1.0,39.0,69.0,7.0
1.0,46.0,68.0,12.0
1.0,39.0,70.0,9.0
1.0,35.0,69.0,50.0
1.0,42.0,65.0,5.0
1.0,35.0,68.0,9.0
1.0,43.0,67.0,7.0
1.0,35.0,68.0,14.0
1.0,42.0,65.0,15.0
1.0,35.0,68.0,5.0
1.0,43.0,67.0,15.0
1.0,35.0,69.0,9.0
1.0,42.0,70.0,12.0
1.0,35.0,72.0,5.0
1.0,43.0,67.0,5.0
1.0,35.0,71.0,9.0
1.0,42.0,69.0,12.0
1.0,35.0,68.0,4.0
1.0,43.0,66.0,17.0
1.0,35.0,69.0,7.0
1.0,39.0,67.0,40.0
1.0,46.0,68.0,7.0
1.0,39.0,68.0,12.0
1.0,47.0,69.0,7.0
1.0,39.0,70.0,7.0
1.0,46.0,67.0,12.0
1.0,39.0,67.0,4.0
1.0,47.0,67.0,24.0
1.0,39.0,68.0,12.0
1.0,46.0,68.0,5.0
1.0,39.0,69.0,2.0
1.0,47.0,68.0,12.0
1.0,39.0,68.0,14.0
1.0,46.0,65.0,9.0
1.0,39.0,67.0,0.0
1.0,47.0,68.0,17.0
1.0,39.0,69.0,4.0
1.0,42.0,68.0,65.0
1.0,41.0,68.0,5.0
1.0,42.0,68.0,323.0
1.0,41.0,68.0,12.0
1.0,37.0,70.0,177.0
1.0,39.0,68.0,5.0
1.0,46.0,69.0,12.0
1.0,39.0,68.0,0.0
1.0,47.0,70.0,7.0
1.0,39.0,71.0,15.0
1.0,46.0,68.0,7.0
1.0,39.0,68.0,0.0
1.0,47.0,68.0,17.0
1.0,39.0,68.0,12.0
1.0,46.0,67.0,7.0
1.0,39.0,68.0,5.0
1.0,47.0,68.0,7.0
1.0,46.0,68.0,47.0
1.0,39.0,70.0,2.0
2.0,99.0,24.0,3.0
2.0,99.0,24.0,1120.0
2.0,99.0,24.0,560.0
2.0,99.0,24.0,1118.0
3.0,75.0,48.0,2590.0
3.0,71.0,54.0,42.0
3.0,66.0,56.0,50.0
3.0,75.0,34.0,957.0
3.0,71.0,54.0,44.0
3.0,66.0,54.0,44.0
3.0,75.0,56.0,954.0
3.0,71.0,58.0,44.0
3.0,66.0,56.0,47.0
3.0,75.0,48.0,954.0
3.0,71.0,52.0,38.0
3.0,66.0,65.0,45.0
3.0,67.0,54.0,954.0
3.0,62.0,55.0,40.0
3.0,59.0,56.0,47.0
3.0,67.0,56.0,390.0
3.0,62.0,54.0,44.0
3.0,59.0,56.0,47.0
3.0,67.0,50.0,397.0
3.0,62.0,55.0,45.0
3.0,59.0,56.0,47.0
3.0,67.0,54.0,397.0
3.0,62.0,56.0,44.0
3.0,59.0,61.0,47.0
3.0,75.0,52.0,397.0
3.0,71.0,48.0,37.0
3.0,66.0,52.0,52.0
3.0,75.0,48.0,949.0
3.0,71.0,50.0,39.0
3.0,66.0,56.0,52.0
3.0,66.0,59.0,600.0
3.0,65.0,56.0,192.0
3.0,66.0,65.0,332.0
3.0,65.0,56.0,190.0
3.0,75.0,48.0,678.0
3.0,71.0,56.0,37.0
3.0,66.0,61.0,43.0
3.0,75.0,48.0,388.0
3.0,71.0,56.0,37.0
3.0,66.0,61.0,43.0
3.0,75.0,48.0,390.0
3.0,71.0,56.0,39.0
3.0,66.0,61.0,45.0
3.0,75.0,48.0,950.0
3.0,71.0,54.0,42.0
3.0,66.0,56.0,50.0
3.0,75.0,34.0,957.0
3.0,71.0,54.0,44.0
3.0,66.0,54.0,44.0
3.0,75.0,56.0,954.0
3.0,71.0,58.0,44.0
3.0,66.0,56.0,47.0
3.0,75.0,48.0,954.0
3.0,71.0,52.0,40.0
3.0,66.0,65.0,47.0
3.0,67.0,54.0,954.0
3.0,62.0,55.0,40.0
3.0,59.0,56.0,47.0
3.0,67.0,56.0,390.0
3.0,62.0,54.0,44.0
3.0,59.0,56.0,47.0
3.0,67.0,50.0,397.0
3.0,62.0,55.0,45.0
3.0,59.0,56.0,47.0
3.0,67.0,54.0,397.0
3.0,62.0,56.0,44.0
3.0,59.0,61.0,47.0
3.0,75.0,52.0,397.0
3.0,71.0,48.0,37.0
3.0,66.0,52.0,52.0
3.0,75.0,48.0,949.0
3.0,71.0,50.0,39.0
3.0,66.0,56.0,52.0
3.0,66.0,59.0,600.0
3.0,65.0,56.0,192.0
3.0,66.0,65.0,330.0
3.0,65.0,56.0,190.0
3.0,61.0,59.0,188.0
3.0,75.0,48.0,467.0
3.0,71.0,56.0,37.0
3.0,66.0,61.0,43.0
3.0,75.0,48.0,388.0
3.0,71.0,56.0,37.0
3.0,66.0,61.0,43.0
3.0,75.0,48.0,388.0
3.0,71.0,56.0,37.0
3.0,66.0,61.0,43.0
3.0,66.0,59.0,38.0
4.0,78.0,64.0,14910.0
4.0,77.0,64.0,42.0
4.0,75.0,64.0,50.0
4.0,78.0,64.0,957.0
4.0,77.0,64.0,44.0
4.0,75.0,64.0,44.0
4.0,78.0,64.0,954.0
4.0,77.0,64.0,44.0
4.0,75.0,64.0,47.0
4.0,78.0,64.0,954.0
4.0,77.0,64.0,40.0
4.0,75.0,64.0,47.0
4.0,74.0,64.0,954.0
4.0,71.0,64.0,40.0
4.0,67.0,64.0,47.0
4.0,74.0,64.0,390.0
4.0,71.0,64.0,44.0
4.0,67.0,64.0,47.0
4.0,74.0,64.0,397.0
4.0,71.0,64.0,45.0
4.0,67.0,64.0,47.0
4.0,74.0,64.0,397.0
4.0,71.0,64.0,44.0
4.0,67.0,64.0,47.0
4.0,78.0,64.0,397.0
4.0,77.0,64.0,37.0
4.0,75.0,64.0,52.0
4.0,78.0,64.0,949.0
4.0,77.0,64.0,39.0
4.0,75.0,64.0,52.0
4.0,66.0,64.0,600.0
4.0,65.0,64.0,192.0
4.0,66.0,64.0,330.0
4.0,65.0,64.0,190.0
4.0,61.0,64.0,188.0
4.0,78.0,64.0,467.0
4.0,77.0,64.0,37.0
4.0,75.0,64.0,43.0
4.0,78.0,64.0,388.0
4.0,77.0,64.0,37.0
4.0,75.0,64.0,43.0
4.0,78.0,64.0,388.0
4.0,77.0,64.0,37.0
4.0,75.0,64.0,43.0
4.0,75.0,64.0,38.0
5.0,36.0,84.0,0.0
5.0,42.0,72.0,0.0
5.0,51.0,77.0,102.0
5.0,40.0,82.0,5.0
5.0,36.0,81.0,45.0
5.0,51.0,70.0,31.0
5.0,40.0,81.0,52.0
5.0,51.0,79.0,44.0
5.0,40.0,82.0,52.0
5.0,51.0,81.0,42.0
5.0,36.0,82.0,5.0
5.0,51.0,89.0,100.0
5.0,40.0,81.0,9.0
5.0,36.0,82.0,45.0
5.0,51.0,73.0,35.0
5.0,40.0,88.0,57.0
5.0,51.0,79.0,40.0
5.0,40.0,85.0,55.0
5.0,36.0,85.0,47.0
5.0,51.0,74.0,0.0
5.0,51.0,77.0,110.0
5.0,40.0,82.0,4.0
5.0,36.0,81.0,49.0
5.0,51.0,76.0,36.0
5.0,40.0,79.0,57.0
5.0,51.0,74.0,45.0
5.0,40.0,82.0,53.0
5.0,36.0,88.0,48.0
5.0,51.0,77.0,0.0
5.0,51.0,84.0,114.0
5.0,40.0,88.0,5.0
5.0,36.0,81.0,49.0
5.0,51.0,73.0,43.0
5.0,40.0,82.0,52.0
5.0,51.0,81.0,50.0
5.0,40.0,81.0,54.0
5.0,36.0,84.0,52.0
5.0,46.0,72.0,0.0
5.0,36.0,79.0,47.0
5.0,51.0,79.0,35.0
5.0,40.0,81.0,9.0
5.0,36.0,85.0,50.0
5.0,51.0,74.0,38.0
5.0,36.0,85.0,55.0
5.0,51.0,79.0,42.0
5.0,40.0,88.0,5.0
5.0,36.0,79.0,50.0
5.0,51.0,74.0,49.0
5.0,36.0,92.0,5.0
5.0,36.0,78.0,47.0
5.0,51.0,70.0,42.0
5.0,40.0,82.0,5.0
5.0,36.0,88.0,48.0
5.0,51.0,79.0,35.0
5.0,36.0,87.0,58.0
5.0,51.0,77.0,40.0
5.0,40.0,85.0,2.0
5.0,36.0,78.0,50.0
5.0,51.0,92.0,48.0
5.0,36.0,89.0,2.0
5.0,36.0,85.0,49.0
5.0,51.0,74.0,41.0
5.0,40.0,79.0,4.0
5.0,36.0,88.0,50.0
5.0,51.0,76.0,39.0
5.0,40.0,87.0,57.0
5.0,51.0,81.0,42.0
5.0,36.0,78.0,57.0
5.0,51.0,81.0,48.0
5.0,36.0,88.0,4.0
5.0,36.0,89.0,47.0
5.0,51.0,83.0,40.0
5.0,40.0,79.0,7.0
5.0,36.0,87.0,50.0
5.0,51.0,79.0,39.0
5.0,40.0,87.0,57.0
5.0,51.0,79.0,40.0
5.0,36.0,79.0,60.0
5.0,51.0,84.0,50.0
5.0,36.0,87.0,4.0
5.0,51.0,81.0,110.0
5.0,40.0,81.0,5.0
5.0,36.0,85.0,52.0
5.0,51.0,76.0,45.0
5.0,36.0,82.0,5.0
5.0,36.0,82.0,47.0
5.0,40.0,88.0,47.0
5.0,51.0,77.0,0.0
5.0,36.0,82.0,52.0
5.0,36.0,95.0,50.0
5.0,51.0,77.0,0.0
5.0,51.0,81.0,110.0
5.0,40.0,84.0,4.0
5.0,36.0,85.0,52.0
5.0,51.0,81.0,39.0
5.0,36.0,87.0,57.0
5.0,51.0,84.0,43.0
5.0,40.0,85.0,4.0
5.0,36.0,82.0,52.0
5.0,51.0,83.0,46.0
5.0,36.0,87.0,4.0
5.0,51.0,81.0,109.0
5.0,40.0,85.0,5.0
5.0,36.0,89.0,52.0
5.0,51.0,74.0,43.0
5.0,36.0,88.0,4.0
5.0,36.0,85.0,47.0
5.0,51.0,81.0,43.0
5.0,40.0,82.0,2.0
5.0,36.0,82.0,48.0
5.0,51.0,79.0,48.0
5.0,36.0,95.0,2.0
5.0,51.0,81.0,109.0
5.0,40.0,89.0,3.0
5.0,36.0,87.0,50.0
5.0,51.0,73.0,42.0
5.0,40.0,89.0,53.0
5.0,36.0,92.0,50.0
5.0,51.0,81.0,0.0
5.0,40.0,89.0,47.0
5.0,36.0,98.0,52.0
5.0,59.0,89.0,0.0
5.0,59.0,79.0,103.0
5.0,40.0,81.0,12.0
5.0,36.0,89.0,52.0
5.0,59.0,89.0,41.0
5.0,36.0,85.0,9.0
5.0,40.0,84.0,47.0
5.0,59.0,86.0,48.0
5.0,36.0,87.0,4.0
5.0,36.0,87.0,54.0
5.0,36.0,89.0,54.0
5.0,59.0,81.0,0.0
5.0,59.0,84.0,115.0
5.0,40.0,89.0,2.0
5.0,36.0,88.0,52.0
5.0,36.0,92.0,47.0
5.0,59.0,84.0,0.0
5.0,59.0,68.0,45.0
5.0,40.0,89.0,2.0
5.0,36.0,84.0,52.0
5.0,59.0,86.0,0.0
5.0,36.0,85.0,52.0
5.0,59.0,81.0,45.0
5.0,36.0,89.0,7.0
5.0,59.0,84.0,113.0
5.0,40.0,87.0,4.0
5.0,36.0,78.0,52.0
5.0,59.0,83.0,50.0
5.0,36.0,88.0,2.0
5.0,40.0,82.0,45.0
5.0,36.0,84.0,52.0
5.0,59.0,81.0,0.0
5.0,36.0,92.0,50.0
5.0,36.0,98.0,50.0
5.0,59.0,79.0,0.0
5.0,59.0,76.0,113.0
5.0,40.0,89.0,4.0
5.0,36.0,87.0,52.0
5.0,36.0,82.0,52.0
5.0,59.0,70.0,0.0
5.0,40.0,89.0,47.0
5.0,59.0,80.0,0.0
5.0,59.0,79.0,47.0
5.0,36.0,85.0,5.0
5.0,40.0,87.0,50.0
5.0,36.0,92.0,52.0
5.0,51.0,96.0,0.0
5.0,51.0,95.0,112.0
5.0,40.0,88.0,5.0
5.0,36.0,92.0,52.0
5.0,36.0,95.0,52.0
5.0,51.0,92.0,0.0
5.0,40.0,88.0,47.0
5.0,51.0,92.0,55.0
5.0,51.0,83.0,48.0
5.0,36.0,82.0,2.0
5.0,36.0,89.0,52.0
5.0,51.0,92.0,0.0
5.0,36.0,84.0,47.0
5.0,51.0,98.0,42.0
5.0,40.0,87.0,7.0
5.0,36.0,88.0,52.0
5.0,51.0,92.0,46.0
5.0,36.0,89.0,4.0
5.0,40.0,94.0,47.0
5.0,51.0,92.0,52.0
5.0,36.0,78.0,54.0
5.0,51.0,98.0,53.0
5.0,36.0,92.0,2.0
5.0,36.0,87.0,50.0
5.0,40.0,88.0,47.0
5.0,51.0,96.0,0.0
5.0,36.0,84.0,52.0
5.0,36.0,95.0,54.0
5.0,51.0,92.0,0.0
5.0,40.0,92.0,47.0
5.0,51.0,79.0,53.0
5.0,51.0,81.0,50.0
5.0,36.0,81.0,5.0
5.0,36.0,88.0,52.0
5.0,51.0,92.0,0.0
5.0,36.0,81.0,52.0
5.0,51.0,95.0,38.0
5.0,40.0,89.0,9.0
5.0,36.0,87.0,49.0
5.0,36.0,87.0,50.0
5.0,51.0,89.0,0.0
5.0,40.0,88.0,47.0
5.0,36.0,92.0,52.0
5.0,51.0,95.0,0.0
5.0,40.0,84.0,47.0
5.0,36.0,98.0,54.0
5.0,46.0,73.0,0.0
5.0,36.0,76.0,50.0
5.0,46.0,79.0,42.0
5.0,40.0,92.0,5.0
5.0,36.0,95.0,32.0
5.0,42.0,90.0,3.0
5.0,36.0,92.0,327.0
5.0,46.0,79.0,0.0
5.0,36.0,89.0,49.0
5.0,46.0,73.0,43.0
5.0,40.0,88.0,4.0
5.0,36.0,95.0,50.0
5.0,42.0,84.0,2.0
5.0,36.0,87.0,115.0
5.0,46.0,71.0,45.0
5.0,36.0,98.0,5.0
5.0,46.0,74.0,111.0
5.0,36.0,95.0,7.0
5.0,36.0,82.0,48.0
5.0,46.0,70.0,42.0
5.0,40.0,95.0,5.0
5.0,36.0,98.0,50.0
5.0,46.0,67.0,40.0
5.0,40.0,92.0,58.0
5.0,46.0,74.0,43.0
5.0,36.0,87.0,58.0
5.0,36.0,92.0,50.0
5.0,46.0,77.0,0.0
5.0,36.0,85.0,48.0
5.0,46.0,68.0,43.0
5.0,40.0,87.0,2.0
5.0,36.0,88.0,50.0
5.0,46.0,77.0,40.0
5.0,36.0,92.0,7.0
5.0,40.0,95.0,45.0
5.0,46.0,71.0,47.0
5.0,36.0,82.0,57.0
5.0,46.0,67.0,48.0
5.0,36.0,92.0,2.0
5.0,36.0,85.0,48.0
5.0,46.0,71.0,44.0
5.0,40.0,89.0,3.0
5.0,36.0,94.0,50.0
5.0,46.0,71.0,42.0
5.0,36.0,92.0,7.0
5.0,40.0,88.0,47.0
5.0,46.0,67.0,54.0
5.0,36.0,89.0,57.0
5.0,46.0,67.0,0.0
5.0,42.0,84.0,23.0
5.0,40.0,99.0,9.0
5.0,42.0,89.0,124.0
5.0,42.0,81.0,121.0
5.0,40.0,92.0,50.0
5.0,42.0,92.0,46.0
5.0,40.0,103.0,9.0
5.0,36.0,89.0,122.0
5.0,53.0,68.0,0.0
5.0,36.0,85.0,50.0
5.0,40.0,87.0,50.0
5.0,53.0,76.0,0.0
5.0,62.0,92.0,0.0
5.0,36.0,95.0,52.0
5.0,53.0,77.0,47.0
5.0,40.0,84.0,49.0
5.0,62.0,89.0,0.0
5.0,53.0,73.0,52.0
5.0,63.0,89.0,0.0
5.0,36.0,88.0,52.0
5.0,53.0,70.0,0.0
5.0,64.0,92.0,0.0
5.0,36.0,87.0,52.0
5.0,53.0,79.0,0.0
5.0,36.0,81.0,47.0
5.0,40.0,84.0,49.0
5.0,53.0,86.0,0.0
5.0,62.0,89.0,0.0
5.0,36.0,88.0,52.0
5.0,53.0,83.0,45.0
5.0,40.0,92.0,49.0
5.0,62.0,70.0,0.0
5.0,53.0,79.0,50.0
5.0,63.0,76.0,0.0
5.0,36.0,88.0,50.0
5.0,53.0,70.0,0.0
5.0,64.0,84.0,0.0
5.0,36.0,89.0,50.0
5.0,53.0,84.0,0.0
5.0,36.0,89.0,47.0
5.0,40.0,95.0,47.0
5.0,53.0,77.0,0.0
5.0,62.0,86.0,0.0
5.0,36.0,87.0,50.0
5.0,36.0,89.0,52.0
5.0,53.0,74.0,0.0
5.0,36.0,88.0,47.0
5.0,53.0,61.0,0.0
5.0,62.0,80.0,0.0
5.0,40.0,81.0,47.0
5.0,53.0,83.0,0.0
5.0,63.0,70.0,0.0
5.0,36.0,87.0,52.0
5.0,64.0,86.0,0.0
5.0,36.0,87.0,52.0
5.0,53.0,76.0,0.0
5.0,36.0,88.0,47.0
5.0,40.0,84.0,47.0
5.0,53.0,81.0,0.0
5.0,62.0,80.0,0.0
5.0,36.0,89.0,52.0
5.0,53.0,74.0,47.0
5.0,40.0,92.0,52.0
5.0,53.0,70.0,0.0
5.0,62.0,73.0,0.0
5.0,53.0,79.0,52.0
5.0,63.0,77.0,0.0
5.0,36.0,89.0,50.0
5.0,64.0,74.0,0.0
5.0,36.0,85.0,52.0
5.0,53.0,84.0,0.0
5.0,36.0,85.0,49.0
5.0,40.0,81.0,50.0
5.0,53.0,77.0,0.0
5.0,62.0,89.0,0.0
5.0,36.0,87.0,52.0
5.0,53.0,73.0,49.0
5.0,40.0,95.0,52.0
5.0,53.0,73.0,0.0
5.0,62.0,74.0,0.0
5.0,53.0,81.0,52.0
5.0,63.0,79.0,0.0
5.0,36.0,82.0,50.0
5.0,64.0,80.0,0.0
5.0,36.0,85.0,52.0
5.0,53.0,79.0,0.0
5.0,36.0,85.0,47.0
5.0,40.0,84.0,47.0
5.0,53.0,77.0,0.0
5.0,62.0,80.0,0.0
5.0,36.0,84.0,52.0
5.0,36.0,89.0,50.0
5.0,53.0,77.0,0.0
5.0,40.0,92.0,47.0
5.0,53.0,70.0,0.0
5.0,62.0,74.0,0.0
5.0,36.0,85.0,52.0
5.0,53.0,80.0,0.0
5.0,63.0,79.0,0.0
5.0,64.0,81.0,50.0
5.0,36.0,87.0,52.0
5.0,53.0,86.0,0.0
5.0,36.0,82.0,49.0
5.0,40.0,79.0,50.0
5.0,53.0,81.0,0.0
5.0,62.0,83.0,0.0
5.0,36.0,88.0,50.0
5.0,36.0,89.0,50.0
5.0,53.0,81.0,0.0
5.0,40.0,99.0,47.0
5.0,62.0,70.0,0.0
5.0,53.0,74.0,52.0
5.0,63.0,81.0,0.0
5.0,36.0,85.0,52.0
5.0,53.0,68.0,0.0
5.0,64.0,81.0,0.0
5.0,36.0,88.0,52.0
5.0,53.0,86.0,0.0
5.0,36.0,85.0,49.0
5.0,40.0,88.0,50.0
5.0,53.0,86.0,0.0
5.0,62.0,84.0,0.0
5.0,36.0,92.0,52.0
5.0,36.0,92.0,50.0
5.0,53.0,74.0,0.0
5.0,40.0,95.0,47.0
5.0,62.0,86.0,0.0
5.0,36.0,88.0,52.0
5.0,53.0,79.0,0.0
5.0,63.0,79.0,0.0
5.0,40.0,84.0,49.0
5.0,64.0,73.0,0.0
5.0,36.0,92.0,54.0
5.0,53.0,81.0,0.0
5.0,36.0,85.0,47.0
5.0,40.0,92.0,47.0
5.0,53.0,76.0,0.0
5.0,62.0,89.0,0.0
5.0,36.0,87.0,52.0
5.0,53.0,79.0,47.0
5.0,40.0,92.0,52.0
5.0,53.0,77.0,52.0
5.0,64.0,83.0,0.0
5.0,36.0,81.0,52.0
5.0,64.0,81.0,0.0
5.0,36.0,84.0,52.0
5.0,53.0,77.0,0.0
5.0,36.0,79.0,50.0
5.0,40.0,89.0,50.0
5.0,53.0,80.0,0.0
5.0,63.0,92.0,0.0
5.0,36.0,88.0,52.0
5.0,53.0,73.0,47.0
5.0,40.0,95.0,52.0
5.0,53.0,73.0,0.0
5.0,53.0,79.0,52.0
5.0,64.0,83.0,0.0
5.0,36.0,88.0,54.0
5.0,64.0,83.0,0.0
5.0,36.0,88.0,50.0
5.0,53.0,79.0,0.0
5.0,36.0,89.0,47.0
5.0,40.0,88.0,47.0
5.0,53.0,74.0,0.0
5.0,62.0,84.0,0.0
5.0,36.0,99.0,50.0
5.0,53.0,79.0,47.0
5.0,40.0,95.0,52.0
5.0,53.0,77.0,50.0
5.0,64.0,79.0,0.0
5.0,36.0,81.0,52.0
5.0,53.0,68.0,0.0
5.0,64.0,77.0,0.0
5.0,36.0,82.0,50.0
5.0,53.0,79.0,0.0
5.0,36.0,81.0,50.0
5.0,40.0,88.0,47.0
5.0,53.0,79.0,0.0
5.0,63.0,89.0,0.0
5.0,36.0,82.0,50.0
5.0,36.0,95.0,52.0
5.0,53.0,76.0,0.0
5.0,40.0,89.0,47.0
5.0,64.0,74.0,0.0
5.0,36.0,85.0,52.0
5.0,53.0,79.0,0.0
5.0,64.0,81.0,0.0
5.0,40.0,92.0,50.0
5.0,64.0,81.0,0.0
5.0,36.0,87.0,52.0
5.0,51.0,71.0,0.0
5.0,36.0,89.0,49.0
5.0,40.0,87.0,47.0
5.0,51.0,84.0,0.0
5.0,62.0,80.0,0.0
5.0,36.0,92.0,52.0
5.0,36.0,92.0,52.0
5.0,51.0,79.0,0.0
5.0,40.0,92.0,49.0
5.0,62.0,79.0,0.0
5.0,51.0,90.0,54.0
5.0,63.0,83.0,0.0
5.0,36.0,81.0,52.0
5.0,64.0,84.0,0.0
5.0,36.0,84.0,52.0
5.0,51.0,76.0,0.0
5.0,36.0,92.0,50.0
5.0,40.0,88.0,49.0
5.0,51.0,84.0,0.0
5.0,62.0,86.0,0.0
5.0,36.0,95.0,52.0
5.0,51.0,84.0,49.0
5.0,40.0,92.0,49.0
5.0,62.0,73.0,0.0
5.0,51.0,81.0,54.0
5.0,63.0,65.0,0.0
5.0,36.0,88.0,54.0
5.0,51.0,73.0,0.0
5.0,64.0,79.0,0.0
5.0,36.0,88.0,52.0
5.0,51.0,87.0,0.0
5.0,36.0,89.0,50.0
5.0,40.0,85.0,52.0
5.0,51.0,92.0,0.0
5.0,62.0,81.0,0.0
5.0,36.0,92.0,52.0
5.0,51.0,97.0,50.0
5.0,40.0,95.0,52.0
5.0,62.0,73.0,0.0
5.0,51.0,90.0,54.0
5.0,63.0,74.0,0.0
5.0,36.0,81.0,54.0
5.0,51.0,79.0,0.0
5.0,64.0,73.0,0.0
5.0,36.0,88.0,54.0
5.0,51.0,96.0,0.0
5.0,36.0,82.0,50.0
5.0,40.0,95.0,49.0
5.0,51.0,87.0,0.0
5.0,62.0,84.0,0.0
5.0,36.0,88.0,52.0
5.0,36.0,89.0,54.0
5.0,51.0,84.0,0.0
5.0,40.0,85.0,50.0
5.0,62.0,74.0,0.0
5.0,36.0,84.0,54.0
5.0,51.0,84.0,0.0
5.0,63.0,79.0,0.0
5.0,40.0,85.0,52.0
5.0,64.0,80.0,0.0
5.0,36.0,99.0,55.0
5.0,42.0,87.0,0.0
5.0,36.0,85.0,47.0
5.0,40.0,89.0,47.0
5.0,42.0,93.0,0.0
5.0,62.0,84.0,0.0
5.0,36.0,92.0,52.0
5.0,42.0,92.0,50.0
5.0,46.0,87.0,54.0
5.0,62.0,81.0,0.0
5.0,42.0,87.0,52.0
5.0,62.0,84.0,0.0
5.0,36.0,92.0,120.0
5.0,42.0,81.0,0.0
5.0,36.0,92.0,48.0
5.0,40.0,88.0,45.0
5.0,42.0,89.0,0.0
5.0,62.0,81.0,0.0
5.0,36.0,98.0,47.0
5.0,42.0,84.0,45.0
5.0,40.0,98.0,45.0
5.0,46.0,81.0,0.0
5.0,62.0,84.0,0.0
5.0,40.0,104.0,50.0
5.0,42.0,87.0,0.0
5.0,64.0,86.0,0.0
5.0,64.0,86.0,47.0
5.0,36.0,95.0,50.0
5.0,51.0,77.0,0.0
5.0,36.0,84.0,47.0
5.0,40.0,89.0,47.0
5.0,51.0,81.0,0.0
5.0,62.0,80.0,0.0
5.0,36.0,99.0,50.0
5.0,51.0,81.0,45.0
5.0,40.0,87.0,50.0
5.0,62.0,70.0,0.0
5.0,51.0,84.0,50.0
5.0,63.0,77.0,0.0
5.0,36.0,85.0,52.0
5.0,64.0,79.0,0.0
5.0,36.0,89.0,50.0
5.0,51.0,92.0,0.0
5.0,36.0,92.0,45.0
5.0,40.0,92.0,47.0
5.0,51.0,81.0,0.0
5.0,62.0,83.0,0.0
5.0,36.0,99.0,45.0
5.0,51.0,84.0,43.0
5.0,40.0,98.0,43.0
5.0,62.0,79.0,0.0
5.0,51.0,84.0,50.0
5.0,63.0,77.0,0.0
5.0,36.0,82.0,42.0
5.0,64.0,79.0,0.0
5.0,36.0,89.0,50.0
5.0,59.0,74.0,0.0
5.0,36.0,89.0,50.0
5.0,40.0,87.0,47.0
5.0,59.0,84.0,0.0
5.0,62.0,80.0,0.0
5.0,36.0,95.0,48.0
5.0,36.0,92.0,50.0
5.0,59.0,83.0,0.0
5.0,40.0,99.0,47.0
5.0,62.0,80.0,0.0
5.0,59.0,80.0,50.0
5.0,63.0,84.0,0.0
5.0,36.0,88.0,50.0
5.0,64.0,83.0,0.0
5.0,36.0,99.0,50.0
5.0,40.0,95.0,0.0
5.0,59.0,79.0,0.0
5.0,40.0,82.0,122.0
5.0,36.0,78.0,0.0
5.0,46.0,95.0,0.0
5.0,62.0,86.0,0.0
5.0,40.0,65.0,50.0
5.0,36.0,65.0,0.0
5.0,36.0,73.0,50.0
5.0,40.0,65.0,0.0
5.0,64.0,61.0,0.0
5.0,40.0,73.0,47.0
5.0,36.0,76.0,0.0
5.0,64.0,68.0,0.0
5.0,40.0,88.0,50.0
5.0,36.0,85.0,0.0
5.0,64.0,74.0,0.0
5.0,36.0,95.0,50.0
5.0,40.0,87.0,0.0
5.0,46.0,84.0,0.0
5.0,64.0,80.0,0.0
0.0,0.0,0.0,0.0
0.0,0.0,0.0,0.0
0.0,0.0,0.0,0.0
0.0,0.0,0.0,0.0
0.0,0.0,0.0,0.0
0.0,0.0,0.0,0.0
0.0,0.0,0.0,0.0
0.0,0.0,0.0,0.0
0.0,0.0,0.0,0.0
0.0,0.0,0.0,0.0
0.0,0.0,0.0,0.0
0.0,0.0,0.0,0.0
0.0,0.0,0.0,0.0
0.0,0.0,0.0,0.0
0.0,0.0,0.0,0.0
0.0,0.0,0.0,0.0
0.0,0.0,0.0,0.0
0.0,0.0,0.0,0.0
0.0,0.0,0.0,0.0
0.0,0.0,0.0,0.0
0.0,0.0,0.0,0.0
0.0,0.0,0.0,0.0
0.0,0.0,0.0,0.0
0.0,0.0,0.0,0.0
0.0,0.0,0.0,0.0
0.0,0.0,0.0,0.0
0.0,0.0,0.0,0.0
0.0,0.0,0.0,0.0
0.0,0.0,0.0,0.0
0.0,0.0,0.0,0.0
0.0,0.0,0.0,0.0
0.0,0.0,0.0,0.0
0.0,0.0,0.0,0.0
0.0,0.0,0.0,0.0
0.0,0.0,0.0,0.0
0.0,0.0,0.0,0.0
0.0,0.0,0.0,0.0
0.0,0.0,0.0,0.0
0.0,0.0,0.0,0.0
0.0,0.0,0.0,0.0
0.0,0.0,0.0,0.0
0.0,0.0,0.0,0.0
0.0,0.0,0.0,0.0
0.0,0.0,0.0,0.0
0.0,0.0,0.0,0.0
0.0,0.0,0.0,0.0
0.0,0.0,0.0,0.0
0.0,0.0,0.0,0.0
0.0,0.0,0.0,0.0
0.0,0.0,0.0,0.0
0.0,0.0,0.0,0.0
0.0,0.0,0.0,0.0
0.0,0.0,0.0,0.0
0.0,0.0,0.0,0.0
0.0,0.0,0.0,0.0
0.0,0.0,0.0,0.0
0.0,0.0,0.0,0.0
0.0,0.0,0.0,0.0
0.0,0.0,0.0,0.0
0.0,0.0,0.0,0.0
0.0,0.0,0.0,0.0
0.0,0.0,0.0,0.0
0.0,0.0,0.0,0.0
0.0,0.0,0.0,0.0
0.0,0.0,0.0,0.0
0.0,0.0,0.0,0.0
0.0,0.0,0.0,0.0
0.0,0.0,0.0,0.0
0.0,0.0,0.0,0.0
0.0,0.0,0.0,0.0
0.0,0.0,0.0,0.0
