track,note,velocity,time
1,43,122,4608
1,43,102,88
1,48,105,66
1,48,102,72
1,50,105,84
1,50,105,120
1,48,102,72
1,50,102,84
1,43,113,32
1,43,107,74
1,48,105,42
1,48,102,80
1,50,107,90
1,50,113,112
1,48,105,80
1,50,113,86
1,43,110,140
1,55,113,0
1,43,105,10
1,48,105,192
1,48,107,104
1,50,113,136
1,50,113,122
1,48,119,16
1,50,107,26
1,43,113,196
1,55,105,32
1,55,110,122
1,43,100,192
1,55,98,14
1,43,102,22
1,48,95,26
1,48,105,164
1,50,113,118
1,50,113,134
1,43,102,22
1,55,113,384
1,43,85,190
1,48,105,52
1,48,105,116
1,50,107,168
1,50,100,138
1,48,100,68
1,50,113,88
1,43,113,198
1,55,105,32
1,55,110,122
1,43,100,192
1,55,98,14
1,43,102,22
1,48,95,26
1,48,105,164
1,50,113,118
1,50,113,134
1,43,102,22
1,55,113,384
1,43,85,190
1,48,105,52
1,48,105,116
1,50,107,168
1,50,100,138
1,48,100,68
1,50,113,88
1,48,113,198
1,48,102,164
1,48,110,132
1,48,100,148
1,50,113,66
1,50,113,124
1,50,102,112
1,45,113,192
1,50,113,14
1,45,116,192
1,48,116,20
1,48,107,158
1,48,116,112
1,43,105,2
1,48,113,32
1,43,110,192
1,50,105,24
1,50,113,92
1,48,119,56
1,48,105,106
1,50,113,74
1,50,102,82
1,50,107,72
1,50,107,84
1,50,107,92
1,50,110,96
1,50,113,92
1,50,113,92
1,43,122,96
1,43,102,88
1,48,105,66
1,48,102,72
1,50,105,84
1,50,105,120
1,48,102,72
1,50,102,84
1,43,113,32
1,43,107,74
1,48,105,42
1,48,102,80
1,50,107,90
1,50,113,112
1,48,105,80
1,50,113,86
1,43,110,140
1,55,113,0
1,43,105,10
1,48,105,192
1,48,107,104
1,50,113,136
1,50,113,122
1,48,119,16
1,50,107,26
1,43,110,196
1,55,113,0
1,43,105,10
1,48,105,192
1,48,107,104
1,50,113,136
1,50,113,122
1,48,119,16
1,50,107,26
1,43,113,196
1,55,105,32
1,55,110,122
1,43,100,192
1,55,98,14
1,43,102,22
1,48,95,26
1,48,105,164
1,50,113,118
1,50,113,134
1,43,102,22
1,55,113,384
1,43,85,190
1,48,105,52
1,48,105,116
1,50,107,168
1,50,100,138
1,48,100,68
1,50,113,88
1,43,113,198
1,55,105,32
1,55,110,122
1,43,100,192
1,55,98,14
1,43,102,22
1,48,95,26
1,48,105,164
1,50,113,118
1,50,113,134
1,43,102,22
1,55,113,384
1,43,85,190
1,48,105,52
1,48,105,116
1,50,107,168
1,50,100,138
1,48,100,68
1,50,113,88
1,48,113,198
1,48,102,164
1,48,110,132
1,48,100,148
1,50,113,66
1,50,113,124
1,50,102,112
1,45,113,192
1,50,113,14
1,45,116,192
1,48,116,20
1,48,107,158
1,48,116,112
1,43,105,2
1,48,113,32
1,43,110,192
1,50,105,24
1,50,113,92
1,48,119,56
1,48,105,106
1,50,113,74
1,50,102,82
1,50,107,72
1,50,107,84
1,50,107,92
1,50,110,96
1,50,113,92
1,50,113,92
1,43,122,96
1,43,102,88
1,48,105,66
1,48,102,72
1,50,105,84
1,50,105,120
1,48,102,72
1,50,102,84
1,43,113,32
1,43,107,74
1,48,105,42
1,48,102,80
1,50,107,90
1,50,113,112
1,48,105,80
1,50,113,86
1,43,110,140
1,55,113,0
1,43,105,10
1,48,105,192
1,48,107,104
1,50,113,136
1,50,113,122
1,48,119,16
1,50,107,26
1,43,110,196
1,55,113,0
1,43,105,10
1,48,105,192
1,48,107,104
1,50,113,136
1,50,113,122
1,48,119,16
1,50,107,26
1,43,127,196
1,43,122,2958
1,48,116,2106
1,47,116,86
1,43,122,76
1,48,122,2096
1,47,122,54
1,55,122,114
1,43,122,778
1,43,119,104
1,43,127,108
1,48,113,88
1,48,102,164
1,48,110,132
1,48,100,148
1,50,113,66
1,50,113,124
1,50,102,112
1,45,113,192
1,50,113,14
1,45,116,192
1,48,116,20
1,48,107,158
1,48,116,112
1,43,105,2
1,48,113,32
1,43,110,192
1,50,105,24
1,50,113,92
1,48,119,56
1,48,105,106
1,50,113,74
1,50,102,82
1,50,107,72
1,50,107,84
1,50,107,92
1,50,110,96
1,50,113,92
1,50,113,92
1,43,122,96
1,43,102,88
1,48,105,66
1,48,102,72
1,50,105,84
1,50,105,120
1,48,102,72
1,50,102,84
1,43,113,32
1,43,107,74
1,48,105,42
1,48,102,80
1,50,107,90
1,50,113,112
1,48,105,80
1,50,113,86
1,43,110,140
1,55,113,0
1,43,105,10
1,48,105,192
1,48,107,104
1,50,113,136
1,50,113,122
1,48,119,16
1,50,107,26
1,43,110,196
1,55,113,0
1,43,105,10
1,48,105,192
1,48,107,104
1,50,113,136
1,50,113,122
1,48,119,16
1,50,107,26
1,43,122,196
1,43,102,88
1,48,105,66
1,48,102,72
1,50,105,84
1,50,105,120
1,48,102,72
1,50,102,84
1,43,113,32
1,43,107,74
1,48,105,42
1,48,102,80
1,50,107,90
1,50,113,112
1,48,105,80
1,50,113,86
1,43,110,140
1,55,113,0
1,43,105,10
1,48,105,192
1,48,107,104
1,50,113,136
1,50,113,122
1,48,119,16
1,50,107,26
1,43,110,196
1,55,113,0
1,43,105,10
1,48,105,192
1,48,107,104
1,50,113,136
1,50,113,122
1,48,119,16
1,50,107,26
1,43,122,196
1,43,102,88
1,48,105,66
1,48,102,72
1,50,105,84
1,50,105,120
1,48,102,72
1,50,102,84
1,43,127,32
2,59,107,1536
2,60,127,152
2,60,116,144
2,62,107,96
2,62,110,164
2,69,116,114
2,64,113,0
2,60,113,0
2,60,105,104
2,64,110,0
2,69,102,0
2,60,105,108
2,64,110,0
2,69,116,0
2,60,122,112
2,64,107,0
2,69,119,0
2,55,100,108
2,59,102,0
2,62,102,0
2,43,102,0
2,62,107,58
2,59,110,0
2,55,102,0
2,55,102,34
2,48,105,0
2,60,91,0
2,64,102,0
2,64,102,32
2,60,95,0
2,69,102,58
2,57,89,0
2,50,100,0
2,62,102,0
2,66,98,0
2,69,105,108
2,62,100,0
2,66,100,0
2,62,89,114
2,66,98,0
2,69,105,0
2,64,100,58
2,60,95,0
2,67,100,0
2,48,102,0
2,57,98,76
2,62,102,0
2,66,100,0
2,50,102,0
2,69,102,0
2,59,105,154
2,55,102,0
2,62,105,0
2,43,52,192
2,59,116,120
2,55,105,0
2,62,107,0
2,48,107,16
2,64,105,88
2,67,102,0
2,60,102,0
2,64,105,42
2,60,98,0
2,67,105,0
2,62,102,256
2,66,105,0
2,69,102,0
2,57,85,0
2,50,102,0
2,66,107,112
2,62,110,0
2,69,113,0
2,66,93,138
2,69,102,0
2,62,100,0
2,64,105,102
2,60,102,0
2,67,102,0
2,48,102,0
2,50,105,68
2,69,105,0
2,66,105,0
2,62,107,0
2,57,91,0
2,59,105,240
2,62,102,0
2,55,98,0
2,59,110,90
2,55,102,0
2,62,107,0
2,43,100,16
2,67,100,74
2,64,102,0
2,60,91,0
2,64,107,114
2,67,102,0
2,60,102,0
2,50,105,24
2,57,91,0
2,69,105,0
2,66,100,0
2,62,102,0
2,66,98,102
2,62,100,0
2,69,102,0
2,50,105,78
2,57,98,0
2,62,102,60
2,66,98,0
2,69,105,0
2,64,113,64
2,60,107,0
2,67,113,0
2,62,110,120
2,69,107,0
2,66,105,0
2,79,100,268
2,86,89,62
2,83,87,96
2,79,100,70
2,81,98,136
2,86,100,0
2,79,85,192
2,76,85,244
2,72,78,0
2,79,82,0
2,76,89,104
2,72,85,0
2,79,85,0
2,78,66,214
2,81,82,0
2,74,76,0
2,86,105,570
2,81,100,0
2,79,98,192
2,72,85,198
2,79,89,0
2,76,95,0
2,76,93,116
2,72,82,0
2,79,93,0
2,81,87,160
2,78,82,0
2,74,80,0
2,81,82,56
2,74,70,0
2,78,72,0
2,81,82,112
2,74,85,0
2,78,82,0
2,76,95,64
2,81,100,0
2,79,87,202
2,83,89,0
2,86,87,0
2,83,89,144
2,86,91,0
2,79,102,50
2,72,100,296
2,74,105,96
2,76,87,192
2,74,82,20
2,78,82,104
2,74,70,0
2,74,80,134
2,78,95,0
2,74,64,120
2,78,82,0
2,83,87,112
2,79,85,0
2,83,102,266
2,79,95,0
2,84,82,264
2,88,102,0
2,88,100,114
2,84,91,0
2,86,82,300
2,90,89,0
2,90,58,54
2,93,89,0
2,86,72,0
2,93,93,102
2,86,87,0
2,90,91,0
2,93,100,116
2,86,95,0
2,90,102,0
2,90,89,112
2,86,100,0
2,93,100,0
2,86,110,114
2,90,105,0
2,93,105,0
2,90,105,118
2,86,107,0
2,93,105,0
2,90,105,114
2,86,107,0
2,93,107,0
2,55,105,116
2,64,107,0
2,60,110,0
2,60,98,128
2,55,87,0
2,64,100,0
2,55,100,112
2,60,105,0
2,64,110,0
2,55,91,112
2,60,98,0
2,64,100,0
2,60,102,112
2,55,98,0
2,64,102,0
2,55,93,112
2,60,95,0
2,64,98,0
2,55,87,110
2,60,95,0
2,64,100,0
2,60,98,114
2,55,93,0
2,64,107,0
2,66,80,104
2,62,102,0
2,57,85,0
2,62,100,118
2,66,85,0
2,57,85,0
2,62,91,114
2,57,91,0
2,66,100,0
2,57,89,112
2,66,100,0
2,62,107,0
2,62,100,118
2,57,91,0
2,66,102,0
2,62,102,110
2,57,91,0
2,66,102,0
2,62,98,112
2,57,89,0
2,66,100,0
2,62,98,108
2,66,91,0
2,57,82,0
2,64,100,104
2,60,98,0
2,67,100,0
2,64,98,108
2,60,89,0
2,67,87,0
2,60,93,114
2,64,100,0
2,67,98,0
2,60,93,104
2,64,100,0
2,67,100,0
2,64,102,112
2,60,98,0
2,67,102,0
2,60,87,116
2,64,100,0
2,67,100,0
2,64,100,118
2,60,98,0
2,67,98,0
2,64,98,112
2,60,91,0
2,67,98,0
2,62,89,116
2,69,100,0
2,66,95,0
2,62,87,112
2,66,87,0
2,69,102,0
2,62,93,102
2,66,93,0
2,69,100,0
2,64,105,120
2,60,100,0
2,67,102,0
2,60,93,96
2,64,100,0
2,67,98,0
2,60,89,108
2,64,95,0
2,67,95,0
2,71,110,102
2,64,100,0
2,60,95,0
2,60,82,96
2,64,91,0
2,71,87,0
2,62,110,92
2,69,107,0
2,66,105,0
2,69,105,126
2,62,102,0
2,66,105,0
2,62,105,124
2,69,105,0
2,66,105,0
2,62,110,120
2,74,113,0
2,66,105,0
2,86,122,0
2,69,105,0
2,62,102,76
2,88,113,0
2,66,105,0
2,76,116,0
2,69,105,0
2,66,105,16
2,62,105,0
2,69,102,0
2,62,107,108
2,79,119,0
2,66,105,0
2,91,127,0
2,69,110,0
2,62,110,14
2,66,107,0
2,69,110,0
2,55,100,118
2,59,102,0
2,62,102,0
2,43,102,0
2,62,107,58
2,59,110,0
2,55,102,0
2,55,102,34
2,48,105,0
2,60,91,0
2,64,102,0
2,64,102,32
2,60,95,0
2,69,102,58
2,57,89,0
2,50,100,0
2,62,102,0
2,66,98,0
2,69,105,108
2,62,100,0
2,66,100,0
2,62,89,114
2,66,98,0
2,69,105,0
2,64,100,58
2,60,95,0
2,67,100,0
2,48,102,0
2,57,98,76
2,62,102,0
2,66,100,0
2,50,102,0
2,69,102,0
2,59,105,154
2,55,102,0
2,62,105,0
2,43,52,192
2,59,116,120
2,55,105,0
2,62,107,0
2,48,107,16
2,64,105,88
2,67,102,0
2,60,102,0
2,64,105,42
2,60,98,0
2,67,105,0
2,62,102,256
2,66,105,0
2,69,102,0
2,57,85,0
2,50,102,0
2,66,107,112
2,62,110,0
2,69,113,0
2,66,93,138
2,69,102,0
2,62,100,0
2,64,105,102
2,60,102,0
2,67,102,0
2,48,102,0
2,50,105,68
2,69,105,0
2,66,105,0
2,62,107,0
2,57,91,0
2,59,105,240
2,62,102,0
2,55,98,0
2,59,110,90
2,55,102,0
2,62,107,0
2,43,100,16
2,67,100,74
2,64,102,0
2,60,91,0
2,64,107,114
2,67,102,0
2,60,102,0
2,50,105,24
2,57,91,0
2,69,105,0
2,66,100,0
2,62,102,0
2,66,98,102
2,62,100,0
2,69,102,0
2,50,105,78
2,57,98,0
2,62,102,60
2,66,98,0
2,69,105,0
2,64,113,64
2,60,107,0
2,67,113,0
2,62,110,120
2,69,107,0
2,66,105,0
2,59,105,268
2,62,102,0
2,55,98,0
2,59,110,90
2,55,102,0
2,62,107,0
2,43,100,16
2,67,100,74
2,64,102,0
2,60,91,0
2,64,107,114
2,67,102,0
2,60,102,0
2,50,105,24
2,57,91,0
2,69,105,0
2,66,100,0
2,62,102,0
2,66,98,102
2,62,100,0
2,69,102,0
2,50,105,78
2,57,98,0
2,62,102,60
2,66,98,0
2,69,105,0
2,64,113,64
2,60,107,0
2,67,113,0
2,62,110,120
2,69,107,0
2,66,105,0
2,79,100,268
2,86,89,62
2,83,87,96
2,79,100,70
2,81,98,136
2,86,100,0
2,79,85,192
2,76,85,244
2,72,78,0
2,79,82,0
2,76,89,104
2,72,85,0
2,79,85,0
2,78,66,214
2,81,82,0
2,74,76,0
2,86,105,570
2,81,100,0
2,79,98,192
2,72,85,198
2,79,89,0
2,76,95,0
2,76,93,116
2,72,82,0
2,79,93,0
2,81,87,160
2,78,82,0
2,74,80,0
2,81,82,56
2,74,70,0
2,78,72,0
2,81,82,112
2,74,85,0
2,78,82,0
2,76,95,64
2,81,100,0
2,79,87,202
2,83,89,0
2,86,87,0
2,83,89,144
2,86,91,0
2,79,102,50
2,72,100,296
2,74,105,96
2,76,87,192
2,74,82,20
2,78,82,104
2,74,70,0
2,74,80,134
2,78,95,0
2,74,64,120
2,78,82,0
2,83,87,112
2,79,85,0
2,83,102,266
2,79,95,0
2,84,82,264
2,88,102,0
2,88,100,114
2,84,91,0
2,86,82,300
2,90,89,0
2,90,58,54
2,93,89,0
2,86,72,0
2,93,93,102
2,86,87,0
2,90,91,0
2,93,100,116
2,86,95,0
2,90,102,0
2,90,89,112
2,86,100,0
2,93,100,0
2,86,110,114
2,90,105,0
2,93,105,0
2,90,105,118
2,86,107,0
2,93,105,0
2,90,105,114
2,86,107,0
2,93,107,0
2,55,105,116
2,64,107,0
2,60,110,0
2,60,98,128
2,55,87,0
2,64,100,0
2,55,100,112
2,60,105,0
2,64,110,0
2,55,91,112
2,60,98,0
2,64,100,0
2,60,102,112
2,55,98,0
2,64,102,0
2,55,93,112
2,60,95,0
2,64,98,0
2,55,87,110
2,60,95,0
2,64,100,0
2,60,98,114
2,55,93,0
2,64,107,0
2,66,80,104
2,62,102,0
2,57,85,0
2,62,100,118
2,66,85,0
2,57,85,0
2,62,91,114
2,57,91,0
2,66,100,0
2,57,89,112
2,66,100,0
2,62,107,0
2,62,100,118
2,57,91,0
2,66,102,0
2,62,102,110
2,57,91,0
2,66,102,0
2,62,98,112
2,57,89,0
2,66,100,0
2,62,98,108
2,66,91,0
2,57,82,0
2,64,100,104
2,60,98,0
2,67,100,0
2,64,98,108
2,60,89,0
2,67,87,0
2,60,93,114
2,64,100,0
2,67,98,0
2,60,93,104
2,64,100,0
2,67,100,0
2,64,102,112
2,60,98,0
2,67,102,0
2,60,87,116
2,64,100,0
2,67,100,0
2,64,100,118
2,60,98,0
2,67,98,0
2,64,98,112
2,60,91,0
2,67,98,0
2,62,89,116
2,69,100,0
2,66,95,0
2,62,87,112
2,66,87,0
2,69,102,0
2,62,93,102
2,66,93,0
2,69,100,0
2,64,105,120
2,60,100,0
2,67,102,0
2,60,93,96
2,64,100,0
2,67,98,0
2,60,89,108
2,64,95,0
2,67,95,0
2,71,110,102
2,64,100,0
2,60,95,0
2,60,82,96
2,64,91,0
2,71,87,0
2,62,110,92
2,69,107,0
2,66,105,0
2,69,105,126
2,62,102,0
2,66,105,0
2,62,105,124
2,69,105,0
2,66,105,0
2,62,110,120
2,74,113,0
2,66,105,0
2,86,122,0
2,69,105,0
2,62,102,76
2,88,113,0
2,66,105,0
2,76,116,0
2,69,105,0
2,66,105,16
2,62,105,0
2,69,102,0
2,62,107,108
2,79,119,0
