track,note,velocity,time
1,36,118,13824
1,31,107,76
1,36,98,24
1,36,109,122
1,31,109,10
1,36,107,12
1,31,105,576
1,36,105,26
1,36,115,112
1,35,93,86
1,33,100,20
1,28,91,10
1,33,96,2
1,33,96,104
1,28,102,22
1,33,109,0
1,28,105,576
1,33,100,30
1,33,115,120
1,31,102,46
1,29,94,82
1,36,98,36
1,41,98,64
1,41,100,118
1,36,98,0
1,29,107,32
1,29,109,98
1,36,90,32
1,41,93,14
1,36,96,192
1,29,102,140
1,31,102,36
1,31,109,100
1,31,125,206
1,31,125,172
1,31,118,88
1,36,125,1374
1,31,109,50
1,36,100,192
1,36,107,116
1,38,77,46
1,36,118,56
1,31,100,12
1,36,98,192
1,36,107,114
1,38,94,192
1,36,109,154
1,33,107,8
1,28,112,136
1,33,102,40
1,33,107,116
1,28,107,10
1,33,102,192
1,33,102,106
1,33,121,218
1,31,107,40
1,29,102,14
1,29,115,152
1,29,109,128
1,29,115,206
1,36,107,22
1,41,84,6
1,36,112,192
1,29,107,14
1,36,107,192
1,31,112,48
1,31,109,88
1,43,88,10
1,43,102,100
1,38,105,192
1,43,118,40
1,31,121,6
1,33,118,1348
1,33,105,108
1,36,93,12
1,36,76,80
1,38,79,26
1,38,74,82
1,40,68,42
1,38,79,192
1,33,98,16
1,33,88,88
1,36,94,8
1,36,82,96
1,38,73,76
1,38,82,96
1,40,84,78
1,38,87,192
1,29,96,36
1,29,84,84
1,33,81,20
1,33,78,96
1,36,83,66
1,36,81,94
1,38,86,74
1,36,90,20
1,29,91,42
1,29,80,64
1,33,90,24
1,33,81,90
1,36,84,72
1,36,81,88
1,38,90,64
1,36,94,24
1,36,96,106
1,36,56,102
1,36,94,96
1,40,105,4
1,43,82,62
1,43,94,106
1,45,88,40
1,43,100,192
1,36,87,18
1,36,91,74
1,40,93,20
1,40,90,92
1,36,102,10
1,43,93,24
1,36,94,192
1,45,81,12
1,31,115,192
1,31,105,96
1,35,93,30
1,35,87,80
1,38,84,54
1,38,83,86
1,38,86,80
1,40,94,74
1,31,107,26
1,36,125,1360
1,31,109,50
1,36,100,192
1,36,107,116
1,38,77,46
1,36,118,56
1,31,100,12
1,36,98,192
1,36,107,114
1,38,94,192
1,36,109,154
1,33,107,8
1,28,112,136
1,33,102,40
1,33,107,116
1,28,107,10
1,33,102,192
1,33,102,106
1,33,121,218
1,31,107,40
1,29,102,14
1,29,115,152
1,29,109,128
1,29,115,206
1,36,107,22
1,41,84,6
1,36,112,192
1,29,107,14
1,36,107,192
1,31,115,48
1,31,105,86
1,43,98,24
1,31,115,192
1,31,107,88
1,43,94,40
1,31,127,6
1,36,118,1364
1,31,107,76
1,36,98,24
1,36,109,122
1,31,109,10
1,36,107,12
1,31,105,576
1,36,105,26
1,36,115,112
1,35,93,86
1,33,100,20
1,28,91,10
1,33,96,2
1,33,96,104
1,28,102,22
1,33,109,0
1,28,105,576
1,33,100,30
1,33,115,120
1,31,102,46
1,29,94,82
1,36,98,36
1,41,98,64
1,41,100,118
1,36,98,0
1,29,107,32
1,29,109,98
1,36,90,32
1,41,93,14
1,36,96,192
1,29,102,140
1,31,102,36
1,31,109,100
1,31,125,206
1,31,125,172
1,31,118,88
1,31,118,5982
1,31,94,104
1,31,96,80
1,31,109,94
1,31,112,96
1,31,118,86
1,31,118,104
1,31,127,100
1,31,125,100
1,33,118,1388
1,33,105,108
1,36,93,12
1,36,76,80
1,38,79,26
1,38,74,82
1,40,68,42
1,38,79,192
1,33,98,16
1,33,88,88
1,36,94,8
1,36,82,96
1,38,73,76
1,38,82,96
1,40,84,78
1,38,87,192
1,29,96,36
1,29,84,84
1,33,81,20
1,33,78,96
1,36,83,66
1,36,81,94
1,38,86,74
1,36,90,20
1,29,91,42
1,29,80,64
1,33,90,24
1,33,81,90
1,36,84,72
1,36,81,88
1,38,90,64
1,36,94,24
1,36,96,106
1,36,56,102
1,36,94,96
1,40,105,4
1,43,82,62
1,43,94,106
1,45,88,40
1,43,100,192
1,36,87,18
1,36,91,74
1,40,93,20
1,40,90,92
1,36,102,10
1,43,93,24
1,36,94,192
1,45,81,12
1,31,115,192
1,31,105,96
1,35,93,30
1,35,87,80
1,38,84,54
1,38,83,86
1,38,86,80
1,40,94,74
1,31,107,26
1,36,125,1360
1,31,109,50
1,36,100,192
1,36,107,116
1,38,77,46
1,36,118,56
1,31,100,12
1,36,98,192
1,36,107,114
1,38,94,192
1,36,109,154
1,33,107,8
1,28,112,136
1,33,102,40
1,33,107,116
1,28,107,10
1,33,102,192
1,33,102,106
1,33,121,218
1,31,107,40
1,29,102,14
1,29,115,152
1,29,109,128
1,29,115,206
1,36,107,22
1,41,84,6
1,36,112,192
1,29,107,14
1,36,107,192
1,31,115,48
1,31,105,86
1,43,98,24
1,31,115,192
1,31,107,88
1,43,94,40
1,31,115,6
1,31,105,86
1,43,98,24
1,31,115,192
1,31,107,88
1,43,94,40
1,36,125,6
1,31,109,50
1,36,100,192
1,36,107,116
1,38,77,46
1,36,118,56
1,31,100,12
1,36,98,192
1,36,107,114
1,38,94,192
1,36,109,154
1,33,107,8
1,28,112,136
1,33,102,40
1,33,107,116
1,28,107,10
1,33,102,192
1,33,102,106
1,33,121,218
1,31,107,40
1,29,102,14
1,29,115,152
1,29,109,128
1,29,115,206
1,36,107,22
1,41,84,6
1,36,112,192
1,29,107,14
1,36,107,192
1,31,115,48
1,31,105,86
1,43,98,24
1,31,115,192
1,31,107,88
1,43,94,40
1,31,115,6
1,31,105,86
1,43,98,24
1,31,115,192
1,31,107,88
1,43,94,40
1,36,125,6
1,31,109,50
1,36,100,192
1,36,107,116
1,38,77,46
1,36,118,56
1,31,100,12
1,36,98,192
1,36,107,114
1,38,94,192
1,36,109,154
1,33,107,8
1,28,112,136
1,33,102,40
1,33,107,116
1,28,107,10
1,33,102,192
1,33,102,106
1,33,121,218
1,31,107,40
1,29,102,14
1,29,115,152
1,29,109,128
1,29,115,206
1,36,107,22
1,41,84,6
1,36,112,192
1,29,107,14
1,36,107,192
1,31,115,48
1,31,105,86
1,43,98,24
1,31,115,192
1,31,107,88
1,43,94,40
1,31,115,6
1,31,105,86
1,43,98,24
1,31,115,192
1,31,107,88
1,43,94,40
1,36,127,6
2,48,101,1536
2,64,94,192
2,48,66,64
2,62,86,64
2,60,97,128
2,48,67,68
2,55,80,192
2,48,60,440
2,55,60,176
2,48,57,24
2,60,78,192
2,57,83,92
2,45,76,0
2,45,62,28
2,59,82,104
2,60,94,94
2,45,67,48
2,62,97,192
2,45,65,102
2,64,92,0
2,45,60,124
2,64,85,110
2,45,63,100
2,62,101,90
2,65,82,54
2,53,83,0
2,57,82,0
2,62,85,0
2,57,64,110
2,60,66,0
2,53,57,0
2,57,72,92
2,60,76,0
2,53,66,0
2,53,55,132
2,53,60,30
2,57,69,16
2,57,75,124
2,58,92,12
2,57,97,96
2,53,71,266
2,55,92,182
2,64,92,0
2,59,85,0
2,67,85,0
2,67,66,34
2,59,66,0
2,62,65,0
2,55,70,0
2,59,71,54
2,67,66,0
2,62,72,0
2,55,74,0
2,48,90,684
2,52,80,0
2,55,92,0
2,60,80,0
2,48,55,0
2,60,64,40
2,52,61,0
2,55,70,0
2,52,66,118
2,55,80,0
2,60,71,0
2,60,78,104
2,52,76,0
2,55,88,0
2,48,90,24
2,52,78,192
2,60,76,0
2,55,88,0
2,48,86,116
2,60,80,88
2,52,75,0
2,55,86,0
2,48,83,12
2,52,75,104
2,55,86,0
2,60,76,0
2,52,72,118
2,55,83,0
2,60,75,0
2,48,78,8
2,52,76,124
2,55,88,0
2,60,79,0
2,52,73,102
2,55,83,0
2,60,74,0
2,45,76,86
2,57,79,0
2,52,74,0
2,60,73,0
2,52,70,54
2,57,80,0
2,60,69,0
2,45,66,174
2,52,62,56
2,57,76,0
2,60,66,0
2,52,65,100
2,57,76,0
2,60,68,0
2,45,69,0
2,57,82,64
2,52,71,0
2,60,72,0
2,52,71,110
2,57,82,0
2,60,73,0
2,45,69,192
2,52,66,38
2,57,76,0
2,60,68,0
2,45,75,192
2,52,75,126
2,57,82,0
2,60,74,0
2,45,66,192
2,52,78,114
2,57,86,0
2,60,76,0
2,60,75,14
2,53,74,0
2,57,82,0
2,41,66,0
2,60,74,20
2,57,82,0
2,53,70,0
2,41,60,40
2,53,55,128
2,57,66,0
2,60,62,0
2,53,71,118
2,57,82,0
2,60,75,0
2,41,73,192
2,53,62,98
2,57,76,0
2,60,71,0
2,57,82,108
2,53,68,0
2,60,74,0
2,41,75,192
2,53,74,30
2,59,88,0
2,62,80,0
2,41,78,32
2,53,75,102
2,60,76,0
2,57,86,0
2,41,82,160
2,59,86,66
2,53,72,0
2,62,80,0
2,59,66,154
2,55,75,0
2,43,75,0
2,62,9,46
2,55,74,56
2,59,83,0
2,62,76,0
2,43,82,142
2,55,74,42
2,59,83,0
2,62,79,0
2,43,88,192
2,55,79,144
2,60,86,0
2,64,82,0
2,43,82,176
2,43,101,98
2,55,90,0
2,59,101,0
2,62,90,0
2,48,90,1366
2,52,80,0
2,55,92,0
2,60,80,0
2,48,55,0
2,60,64,40
2,52,61,0
2,55,70,0
2,52,66,118
2,55,80,0
2,60,71,0
2,60,78,104
2,52,76,0
2,55,88,0
2,48,90,24
2,52,78,192
2,60,76,0
2,55,88,0
2,48,86,116
2,60,80,88
2,52,75,0
2,55,86,0
2,48,83,12
2,52,75,104
2,55,86,0
2,60,76,0
2,52,72,118
2,55,83,0
2,60,75,0
2,48,78,8
2,52,76,124
2,55,88,0
2,60,79,0
2,52,73,102
2,55,83,0
2,60,74,0
2,45,76,86
2,57,79,0
2,52,74,0
2,60,73,0
2,52,70,54
2,57,80,0
2,60,69,0
2,45,66,174
2,52,62,56
2,57,76,0
2,60,66,0
2,52,65,100
2,57,76,0
2,60,68,0
2,45,69,0
2,57,82,64
2,52,71,0
2,60,72,0
2,52,71,110
2,57,82,0
2,60,73,0
2,45,69,192
2,52,66,38
2,57,76,0
2,60,68,0
2,45,75,192
2,52,75,126
2,57,82,0
2,60,74,0
2,45,66,192
2,52,78,114
2,57,86,0
2,60,76,0
2,60,75,14
2,53,74,0
2,57,82,0
2,41,66,0
2,60,74,20
2,57,82,0
2,53,70,0
2,41,60,40
2,53,55,128
2,57,66,0
2,60,62,0
2,53,71,118
2,57,82,0
2,60,75,0
2,41,73,192
2,53,62,98
2,57,76,0
2,60,71,0
2,57,82,108
2,53,68,0
2,60,74,0
2,41,75,192
2,53,74,30
2,59,88,0
2,62,80,0
2,41,78,32
2,53,75,102
2,60,76,0
2,57,86,0
2,41,82,160
2,59,86,66
2,53,72,0
2,62,80,0
2,59,66,154
2,55,75,0
2,43,75,0
2,62,9,46
2,55,74,56
2,59,83,0
2,62,76,0
2,43,82,142
2,55,74,42
2,59,83,0
2,62,79,0
2,43,88,192
2,55,79,144
2,60,86,0
2,64,82,0
2,43,82,176
2,43,101,98
2,55,90,0
2,59,101,0
2,62,90,0
2,64,88,1366
2,45,101,0
2,60,104,0
2,57,88,0
2,60,97,268
2,64,86,0
2,57,88,0
2,64,80,304
2,60,97,0
2,57,86,0
2,45,79,124
2,60,99,0
2,64,85,0
2,57,86,0
2,60,88,90
2,57,82,0
2,64,80,0
2,45,80,192
2,60,90,94
2,57,82,0
2,64,83,0
2,45,94,192
2,57,72,94
2,60,75,0
2,64,70,0
2,60,79,124
2,57,88,0
2,53,76,0
2,41,94,0
2,60,69,2
2,57,74,0
2,53,62,0
2,57,94,302
2,53,86,0
2,60,83,0
2,41,82,32
2,57,85,120
2,53,78,0
2,60,80,0
2,57,97,118
2,53,86,0
2,60,86,0
2,41,88,0
2,57,90,160
2,53,83,0
2,60,86,0
2,41,82,86
2,57,85,130
2,53,76,0
2,60,79,0
2,53,76,106
2,57,88,0
2,60,80,0
2,55,72,290
2,48,101,0
2,64,75,0
2,60,85,0
2,55,83,98
2,60,90,0
2,64,83,0
2,48,69,76
2,55,68,104
2,60,79,0
2,64,72,0
2,60,83,32
2,55,67,0
2,64,70,0
2,60,82,30
2,55,48,0
2,64,64,0
2,55,85,114
2,60,86,0
2,64,82,0
2,55,92,114
2,64,88,0
2,60,101,0
2,48,82,0
2,55,83,120
2,60,86,0
2,64,80,0
2,48,90,104
2,60,85,98
2,55,83,0
2,64,82,0
2,55,86,120
2,60,92,0
2,64,88,0
2,48,107,14
2,55,74,100
2,60,82,0
2,64,78,0
2,62,80,114
2,59,86,0
2,55,80,0
2,43,90,0
2,55,90,132
2,60,99,0
2,64,86,0
2,43,107,14
2,59,97,20
2,55,85,0
2,62,86,0
2,43,101,192
2,55,92,96
2,60,101,0
2,64,92,0
2,43,113,188
2,43,113,32
2,62,97,0
2,55,101,0
2,59,107,0
2,48,90,1354
2,52,80,0
2,55,92,0
2,60,80,0
2,48,55,0
2,60,64,40
2,52,61,0
2,55,70,0
2,52,66,118
2,55,80,0
2,60,71,0
2,60,78,104
2,52,76,0
2,55,88,0
2,48,90,24
2,52,78,192
2,60,76,0
2,55,88,0
2,48,86,116
2,60,80,88
2,52,75,0
2,55,86,0
2,48,83,12
2,52,75,104
2,55,86,0
2,60,76,0
2,52,72,118
2,55,83,0
2,60,75,0
2,48,78,8
2,52,76,124
2,55,88,0
2,60,79,0
2,52,73,102
2,55,83,0
2,60,74,0
2,45,76,86
2,57,79,0
2,52,74,0
2,60,73,0
2,52,70,54
2,57,80,0
2,60,69,0
2,45,66,174
2,52,62,56
2,57,76,0
2,60,66,0
2,52,65,100
2,57,76,0
2,60,68,0
2,45,69,0
2,57,82,64
2,52,71,0
2,60,72,0
2,52,71,110
2,57,82,0
2,60,73,0
2,45,69,192
2,52,66,38
2,57,76,0
2,60,68,0
2,45,75,192
2,52,75,126
2,57,82,0
2,60,74,0
2,45,66,192
2,52,78,114
2,57,86,0
2,60,76,0
2,60,75,14
2,53,74,0
2,57,82,0
2,41,66,0
2,60,74,20
2,57,82,0
2,53,70,0
2,41,60,40
2,53,55,128
2,57,66,0
2,60,62,0
2,53,71,118
2,57,82,0
2,60,75,0
2,41,73,192
2,53,62,98
2,57,76,0
2,60,71,0
2,57,82,108
2,53,68,0
2,60,74,0
2,41,75,192
2,53,74,30
2,59,88,0
2,62,80,0
2,41,78,32
2,53,75,102
2,60,76,0
2,57,86,0
2,41,82,192
2,43,79,450
2,50,76,0
2,55,85,0
2,43,72,54
2,50,68,0
2,55,70,0
2,55,76,64
2,43,73,0
2,50,73,0
2,55,85,80
2,43,76,0
2,50,78,0
2,50,86,72
2,43,90,0
2,55,88,0
2,50,83,66
2,43,86,0
2,55,85,0
2,55,92,84
2,50,90,0
2,43,90,0
2,50,90,80
2,43,88,0
2,55,86,0
2,50,99,88
2,43,97,0
2,55,110,0
2,48,90,1396
2,52,80,0
2,55,92,0
2,60,80,0
2,48,55,0
2,60,64,40
2,52,61,0
2,55,70,0
2,52,66,118
2,55,80,0
2,60,71,0
2,60,78,104
2,52,76,0
2,55,88,0
2,48,90,24
2,52,78,192
2,60,76,0
2,55,88,0
2,48,86,116
2,60,80,88
2,52,75,0
2,55,86,0
2,48,83,12
2,52,75,104
2,55,86,0
2,60,76,0
2,52,72,118
2,55,83,0
2,60,75,0
2,48,78,8
2,52,76,124
2,55,88,0
2,60,79,0
2,52,73,102
2,55,83,0
2,60,74,0
2,45,76,86
2,57,79,0
2,52,74,0
2,60,73,0
2,52,70,54
2,57,80,0
2,60,69,0
2,45,66,174
2,52,62,56
2,57,76,0
2,60,66,0
2,52,65,100
2,57,76,0
2,60,68,0
2,45,69,0
2,57,82,64
2,52,71,0
2,60,72,0
2,52,71,110
2,57,82,0
2,60,73,0
2,45,69,192
2,52,66,38
2,57,76,0
2,60,68,0
2,45,75,192
2,52,75,126
2,57,82,0
2,60,74,0
2,45,66,192
2,52,78,114
2,57,86,0
2,60,76,0
2,60,75,14
2,53,74,0
2,57,82,0
2,41,66,0
2,60,74,20
2,57,82,0
