track,note,velocity,time
10,36,115,8640
10,43,115,32
10,43,115,72
10,36,115,32
10,40,115,60
10,47,115,32
10,47,115,60
10,40,115,32
10,41,115,60
10,48,115,32
10,48,115,72
10,41,115,32
10,36,115,60
10,43,115,40
10,43,115,80
10,36,115,32
10,41,115,60
10,41,115,72
10,41,115,80
10,36,115,40
10,43,115,72
10,43,115,72
10,45,115,72
10,36,115,32
10,41,115,60
10,41,115,72
10,41,115,72
10,36,115,32
10,43,115,72
10,43,115,72
10,43,115,80
10,43,115,60
10,36,115,60
10,43,115,60
10,43,115,80
10,36,115,32
10,45,115,60
10,45,115,92
10,45,115,72
10,36,115,32
10,41,115,72
10,48,115,40
10,48,115,60
10,41,115,32
10,43,115,72
10,43,115,132
10,43,115,40
10,43,115,160
10,43,115,60
10,36,115,160
10,43,115,32
10,43,115,72
10,36,115,32
10,40,115,60
10,47,115,32
10,47,115,60
10,40,115,32
10,41,115,60
10,48,115,32
10,48,115,72
10,41,115,32
10,36,115,60
10,43,115,40
10,43,115,80
10,36,115,32
10,41,115,60
10,48,115,72
10,48,115,60
10,41,115,40
10,36,115,60
10,45,115,60
10,45,115,80
10,40,115,32
10,41,115,72
10,48,115,32
10,48,115,60
10,41,115,32
10,43,115,72
10,50,115,72
10,50,115,72
10,50,115,32
10,43,115,40
10,36,115,20
10,43,115,32
10,43,115,72
10,36,115,32
10,40,115,60
10,47,115,32
10,47,115,60
10,40,115,32
10,41,115,60
10,48,115,32
10,48,115,72
10,41,115,32
10,36,115,60
10,43,115,40
10,43,115,80
10,36,115,32
10,41,115,60
10,41,115,72
10,41,115,80
10,36,115,40
10,43,115,72
10,43,115,72
10,45,115,72
10,36,115,32
10,41,115,60
10,41,115,72
10,41,115,72
10,36,115,32
10,43,115,72
10,43,115,72
10,43,115,80
10,43,115,60
10,36,115,60
10,43,115,60
10,43,115,80
10,36,115,32
10,45,115,60
10,45,115,92
10,45,115,72
10,36,115,32
10,41,115,72
10,48,115,40
10,48,115,60
10,41,115,32
10,38,115,72
10,43,115,72
10,43,115,72
10,43,115,80
10,36,115,40
10,43,115,32
10,43,115,72
10,36,115,32
10,40,115,60
10,47,115,32
10,47,115,60
10,40,115,32
10,41,115,60
10,48,115,32
10,48,115,72
10,41,115,32
10,36,115,60
10,43,115,40
10,43,115,80
10,36,115,32
10,41,115,60
10,48,115,72
10,48,115,60
10,41,115,40
10,36,115,60
10,45,115,60
10,45,115,80
10,40,115,32
10,41,115,72
10,48,115,32
10,48,115,60
10,41,115,32
10,43,115,72
10,50,115,40
10,50,115,72
10,43,115,60
10,43,115,52
10,50,115,40
10,50,115,72
10,43,115,60
10,43,115,52
10,50,115,40
10,50,115,72
10,43,115,60
10,43,115,52
10,50,115,40
10,50,115,72
10,43,115,60
10,43,115,52
10,43,115,32
10,41,115,20
10,41,115,32
10,40,115,20
10,40,115,32
10,38,115,32
10,38,115,32
10,36,115,20
10,43,115,32
10,43,115,72
10,36,115,32
10,40,115,60
10,47,115,32
10,47,115,60
10,40,115,32
10,41,115,60
10,48,115,32
10,48,115,72
10,41,115,32
10,36,115,60
10,43,115,40
10,43,115,80
10,36,115,32
10,41,115,60
10,41,115,72
10,41,115,80
10,36,115,40
10,43,115,72
10,43,115,72
10,45,115,72
10,36,115,32
10,41,115,60
10,41,115,72
10,41,115,72
10,36,115,32
10,43,115,72
10,43,115,72
10,43,115,80
10,43,115,60
10,36,115,60
10,43,115,60
10,43,115,80
10,36,115,32
10,45,115,60
10,45,115,92
10,45,115,72
10,36,115,32
10,41,115,72
10,48,115,40
10,48,115,60
10,41,115,32
10,43,115,72
10,50,115,20
10,50,115,72
10,43,115,60
10,36,115,60
10,43,115,60
10,43,115,80
10,36,115,32
10,45,115,60
10,45,115,92
10,45,115,72
10,36,115,32
10,41,115,72
10,48,115,40
10,48,115,60
10,41,115,32
10,43,115,72
10,50,115,20
10,50,115,72
10,43,115,60
10,36,115,60
10,43,115,0
10,43,115,52
10,36,115,12
10,43,115,20
10,43,115,52
10,36,115,20
10,43,115,12
10,43,115,52
10,36,115,32
10,43,115,12
10,43,115,52
10,36,115,120
10,43,115,12
10,43,115,52
10,36,115,20
10,43,115,12
10,43,115,52
10,36,115,12
11,76,82,8880
11,79,73,0
11,72,60,0
11,84,64,0
11,76,73,292
11,72,56,0
11,79,73,0
11,84,60,0
11,76,73,512
11,79,73,0
11,71,60,0
11,83,73,0
11,76,73,280
11,79,64,0
11,71,56,0
11,83,60,0
11,81,60,532
11,77,64,0
11,72,73,0
11,84,64,0
11,81,64,292
11,72,73,0
11,77,64,0
11,84,64,0
11,79,73,532
11,76,82,0
11,72,60,0
11,84,60,0
11,76,82,280
11,79,73,0
11,72,64,0
11,84,64,0
11,80,73,520
11,77,73,0
11,72,64,0
11,84,73,0
11,80,73,292
11,77,73,0
11,72,64,0
11,84,64,0
11,76,60,512
11,79,60,0
11,84,64,0
11,72,64,0
11,81,64,272
11,76,73,0
11,84,64,0
11,72,64,0
11,72,73,520
11,77,64,0
11,81,64,0
11,84,73,0
11,77,64,292
11,81,73,0
11,72,82,0
11,84,73,0
11,83,82,532
11,79,73,0
11,74,64,0
11,86,64,0
11,79,82,280
11,83,82,0
11,74,64,0
11,86,73,0
11,84,82,532
11,79,73,0
11,76,82,0
11,72,73,0
11,76,73,292
11,79,73,0
11,84,64,0
11,72,73,0
11,76,64,512
11,84,64,0
11,81,73,0
11,72,73,0
11,72,82,280
11,76,73,0
11,81,73,0
11,84,73,0
11,72,91,532
11,77,64,0
11,84,64,0
11,81,73,0
11,72,82,280
11,77,82,0
11,81,64,0
11,84,82,0
11,83,73,292
11,79,91,0
11,74,82,0
11,86,73,0
11,83,82,160
11,86,82,0
11,79,82,0
11,74,82,0
11,74,73,52
11,83,82,0
11,86,64,0
11,79,73,0
11,79,73,160
11,83,82,0
11,74,91,0
11,86,73,0
11,79,82,52
11,74,64,0
11,83,91,0
11,86,82,0
11,76,82,400
11,79,73,0
11,72,60,0
11,84,64,0
11,76,73,292
11,72,56,0
11,79,73,0
11,84,60,0
11,76,73,512
11,79,73,0
11,71,60,0
11,83,73,0
11,76,73,280
11,79,64,0
11,71,56,0
11,83,60,0
11,81,60,532
11,77,64,0
11,72,73,0
11,84,64,0
11,81,64,292
11,72,73,0
11,77,64,0
11,84,64,0
11,79,73,532
11,76,82,0
11,72,60,0
11,84,60,0
11,76,82,280
11,79,73,0
11,72,64,0
11,84,64,0
11,80,73,520
11,77,73,0
11,72,64,0
11,84,73,0
11,80,73,292
11,77,73,0
11,72,64,0
11,84,64,0
11,76,60,512
11,79,60,0
11,84,64,0
11,72,64,0
11,81,64,272
11,76,73,0
11,84,64,0
11,72,64,0
11,72,73,520
11,77,64,0
11,81,64,0
11,84,73,0
11,77,64,292
11,81,73,0
11,72,82,0
11,84,73,0
11,83,82,532
11,79,73,0
11,74,64,0
11,86,64,0
11,79,82,280
11,83,82,0
11,74,64,0
11,86,73,0
11,76,82,532
11,79,73,0
11,72,60,0
11,84,64,0
11,76,73,292
11,72,56,0
11,79,73,0
11,84,60,0
11,76,73,512
11,79,73,0
11,71,60,0
11,83,73,0
11,76,73,280
11,79,64,0
11,71,56,0
11,83,60,0
11,81,60,532
11,77,64,0
11,72,73,0
11,84,64,0
11,81,64,292
11,72,73,0
11,77,64,0
11,84,64,0
11,79,73,532
11,76,82,0
11,72,60,0
11,84,60,0
11,76,82,280
11,79,73,0
11,72,64,0
11,84,64,0
11,80,73,520
11,77,73,0
11,72,64,0
11,84,73,0
11,80,73,292
11,77,73,0
11,72,64,0
11,84,64,0
11,76,60,512
11,79,60,0
11,84,64,0
11,72,64,0
11,81,64,272
11,76,73,0
11,84,64,0
11,72,64,0
11,72,73,520
11,77,64,0
11,81,64,0
11,84,73,0
11,77,64,292
11,81,73,0
11,72,82,0
11,84,73,0
11,83,82,532
11,79,73,0
11,74,64,0
11,86,64,0
11,79,82,280
11,83,82,0
11,74,64,0
11,86,73,0
11,84,82,532
11,79,73,0
11,76,82,0
11,72,73,0
11,76,73,292
11,79,73,0
11,84,64,0
11,72,73,0
11,76,64,512
11,84,64,0
11,81,73,0
11,72,73,0
11,72,82,280
11,76,73,0
11,81,73,0
11,84,73,0
11,72,91,532
11,77,64,0
11,84,64,0
11,81,73,0
11,72,82,280
11,77,82,0
11,81,64,0
11,84,82,0
11,83,82,532
11,79,73,0
11,74,64,0
11,86,64,0
11,79,82,280
11,83,82,0
11,74,64,0
11,86,73,0
11,76,82,532
11,79,73,0
11,72,60,0
11,84,64,0
11,76,73,292
11,72,56,0
11,79,73,0
11,84,60,0
11,76,73,512
11,79,73,0
11,71,60,0
11,83,73,0
11,76,73,280
11,79,64,0
11,71,56,0
11,83,60,0
11,81,60,532
11,77,64,0
11,72,73,0
11,84,64,0
11,81,64,292
11,72,73,0
11,77,64,0
11,84,64,0
11,79,73,532
11,76,82,0
11,72,60,0
11,84,60,0
11,76,82,280
11,79,73,0
11,72,64,0
11,84,64,0
11,80,73,520
11,77,73,0
11,72,64,0
11,84,73,0
11,80,73,292
11,77,73,0
11,72,64,0
11,84,64,0
11,76,60,512
11,79,60,0
11,84,64,0
11,72,64,0
11,81,64,272
11,76,73,0
11,84,64,0
11,72,64,0
11,72,73,520
11,77,64,0
11,81,64,0
11,84,73,0
11,77,64,292
11,81,73,0
11,72,82,0
11,84,73,0
11,83,82,532
11,79,73,0
11,74,64,0
11,86,64,0
11,79,82,280
11,83,82,0
11,74,64,0
11,86,73,0
11,83,82,532
11,79,73,0
11,74,64,0
11,86,64,0
11,79,82,280
11,83,82,0
11,74,64,0
11,86,73,0
11,83,82,532
11,79,73,0
11,74,64,0
11,86,64,0
11,79,82,280
11,83,82,0
11,74,64,0
11,86,73,0
11,83,82,532
11,79,73,0
11,74,64,0
11,86,64,0
11,79,82,280
11,83,82,0
11,74,64,0
11,86,73,0
11,83,82,532
11,79,73,0
11,74,64,0
11,86,64,0
11,79,82,280
11,83,82,0
11,74,64,0
11,86,73,0
11,76,82,532
11,79,73,0
11,72,60,0
11,84,64,0
11,76,73,292
11,72,56,0
11,79,73,0
11,84,60,0
11,76,73,512
11,79,73,0
11,71,60,0
11,83,73,0
11,76,73,280
11,79,64,0
11,71,56,0
11,83,60,0
11,81,60,532
11,77,64,0
11,72,73,0
11,84,64,0
11,81,64,292
11,72,73,0
11,77,64,0
11,84,64,0
11,79,73,532
11,76,82,0
11,72,60,0
11,84,60,0
11,76,82,280
11,79,73,0
11,72,64,0
11,84,64,0
11,80,73,520
11,77,73,0
11,72,64,0
11,84,73,0
11,80,73,292
11,77,73,0
11,72,64,0
11,84,64,0
11,76,60,512
11,79,60,0
11,84,64,0
11,72,64,0
11,81,64,272
11,76,73,0
11,84,64,0
11,72,64,0
11,72,73,520
11,77,64,0
11,81,64,0
11,84,73,0
11,77,64,292
11,81,73,0
11,72,82,0
11,84,73,0
11,83,82,532
11,79,73,0
11,74,64,0
11,86,64,0
11,79,82,280
11,83,82,0
11,74,64,0
11,86,73,0
11,84,82,532
11,79,73,0
11,76,82,0
11,72,73,0
11,76,73,292
11,79,73,0
11,84,64,0
11,72,73,0
11,76,64,512
11,84,64,0
11,81,73,0
11,72,73,0
11,72,82,280
11,76,73,0
11,81,73,0
11,84,73,0
11,72,91,532
11,77,64,0
11,84,64,0
11,81,73,0
11,72,82,280
11,77,82,0
11,81,64,0
11,84,82,0
11,83,82,532
11,79,73,0
11,74,64,0
11,86,64,0
11,79,82,280
11,83,82,0
11,74,64,0
11,86,73,0
11,84,82,532
11,79,73,0
11,76,82,0
11,72,73,0
11,76,73,292
11,79,73,0
11,84,64,0
11,72,73,0
11,76,64,512
11,84,64,0
11,81,73,0
11,72,73,0
11,72,82,280
11,76,73,0
11,81,73,0
11,84,73,0
11,72,91,532
11,77,64,0
11,84,64,0
11,81,73,0
11,72,82,280
11,77,82,0
11,81,64,0
11,84,82,0
11,83,82,532
11,79,73,0
11,74,64,0
11,86,64,0
11,79,82,280
11,83,82,0
11,74,64,0
11,86,73,0
11,84,82,532
11,79,73,0
11,76,82,0
11,72,73,0
11,76,73,292
11,79,73,0
11,84,64,0
11,72,73,0
11,84,82,512
11,79,73,0
11,76,82,0
11,72,73,0
11,76,73,292
11,79,73,0
11,84,64,0
11,72,73,0
11,84,82,512
11,79,73,0
11,76,82,0
11,72,73,0
11,76,73,292
11,79,73,0
11,84,64,0
11,72,73,0
11,72,73,272
11,76,82,0
11,79,73,0
11,84,82,0
12,79,100,9840
12,67,100,0
12,76,100,0
12,64,100,0
12,67,100,0
12,79,100,0
12,69,100,0
12,65,100,0
12,72,100,0
12,64,100,12
12,67,100,0
12,68,100,12
12,65,100,0
12,72,100,0
12,64,100,20
12,67,100,0
12,69,100,472
12,69,100,212
12,65,100,0
12,72,100,0
12,65,100,12
12,72,100,0
12,69,100,0
12,69,100,12
12,65,100,0
12,72,100,0
12,65,100,112
12,72,100,0
12,69,100,0
12,67,100,300
12,71,100,0
12,74,100,0
12,74,100,12
12,67,100,0
12,71,100,0
12,71,100,12
12,67,100,0
12,74,100,0
12,71,100,112
12,67,100,0
12,74,100,0
12,76,100,372
12,72,100,0
12,67,100,0
12,72,100,32
12,76,100,0
12,67,100,0
12,76,100,32
12,67,100,0
12,72,100,0
12,69,100,12
12,74,100,0
12,77,100,0
12,72,100,32
12,67,100,0
12,76,100,0
12,69,100,280
12,76,100,0
12,72,100,0
12,69,100,32
12,76,100,0
12,72,100,0
12,69,100,32
12,72,100,0
12,76,100,0
12,74,100,12
12,69,100,0
12,77,100,0
12,69,100,32
12,72,100,0
12,76,100,0
12,77,100,280
12,69,100,0
12,72,100,0
12,69,100,32
12,77,100,0
12,72,100,0
12,72,100,32
12,77,100,0
12,69,100,0
12,79,100,12
12,74,100,0
12,71,100,0
12,69,100,32
12,72,100,0
12,77,100,0
12,71,100,272
12,74,100,0
12,79,100,0
12,71,100,32
12,79,100,0
12,74,100,0
12,71,100,32
12,79,100,0
12,74,100,0
12,72,100,12
12,76,100,0
12,81,100,0
12,71,100,32
12,79,100,0
12,74,100,0
12,79,100,1220
12,67,100,0
12,64,100,0
12,76,100,0
12,76,100,72
12,64,100,0
12,59,100,0
12,71,100,0
12,71,100,72
12,59,100,0
12,55,100,0
12,67,100,0
12,69,100,20
12,65,100,0
12,72,100,0
12,64,100,12
12,67,100,0
12,68,100,12
12,65,100,0
12,72,100,0
12,64,100,20
12,67,100,0
12,65,100,0
12,72,100,0
12,69,100,472
12,72,100,0
12,65,100,0
12,69,100,0
12,65,100,152
12,72,100,0
12,69,100,0
12,72,100,120
12,65,100,0
12,69,100,0
12,74,100,120
12,71,100,0
12,67,100,0
12,79,100,1212
12,67,100,0
12,64,100,0
12,76,100,0
12,76,100,72
12,64,100,0
12,59,100,0
12,71,100,0
12,71,100,72
12,59,100,0
12,55,100,0
12,67,100,0
12,69,100,20
12,65,100,0
12,72,100,0
12,64,100,12
12,67,100,0
12,68,100,12
12,65,100,0
12,72,100,0
12,64,100,20
12,67,100,0
12,69,100,472
12,69,100,212
12,65,100,0
12,72,100,0
12,65,100,12
12,72,100,0
12,69,100,0
12,69,100,12
12,65,100,0
12,72,100,0
12,65,100,112
12,72,100,0
12,69,100,0
12,67,100,300
12,71,100,0
12,74,100,0
12,74,100,12
12,67,100,0
12,71,100,0
12,71,100,12
12,67,100,0
12,74,100,0
12,71,100,112
12,67,100,0
12,74,100,0
12,76,100,372
12,72,100,0
12,67,100,0
12,72,100,32
12,76,100,0
12,67,100,0
12,76,100,32
12,67,100,0
12,72,100,0
12,69,100,12
12,74,100,0
12,77,100,0
12,72,100,32
12,67,100,0
12,76,100,0
12,69,100,280
12,76,100,0
12,72,100,0
12,69,100,32
12,76,100,0
12,72,100,0
12,69,100,32
12,72,100,0
12,76,100,0
12,74,100,12
12,69,100,0
12,77,100,0
12,69,100,32
12,72,100,0
12,76,100,0
