track,note,velocity,time
1,53,127,1447
1,53,0,3686
1,53,81,60
1,53,0,1904
1,53,100,60
1,53,0,484
1,53,91,44
1,53,0,464
1,53,58,28
1,53,0,892
1,53,98,60
1,53,0,1356
1,53,100,72
1,53,0,456
1,53,102,68
1,53,0,1788
1,53,100,80
1,53,0,1372
1,53,102,72
1,53,0,436
1,53,100,88
1,53,0,312
1,65,123,204
1,65,0,72
1,65,127,264
1,65,0,76
1,65,115,92
1,65,0,136
1,62,102,28
1,60,99,12
1,60,0,32
1,62,0,128
1,60,120,4
1,57,112,156
1,60,0,4
1,62,120,112
1,57,0,36
1,60,105,88
1,62,0,40
1,60,0,140
1,53,127,12
1,53,0,344
1,53,123,92
1,53,0,380
1,48,103,64
1,48,0,360
1,48,105,112
1,48,0,412
1,53,115,88
1,53,0,400
1,53,102,64
1,48,109,312
1,53,0,12
1,48,0,152
1,53,118,0
1,53,0,408
1,55,118,80
1,55,0,452
1,57,103,56
1,57,0,416
1,57,99,32
1,57,0,444
1,52,109,16
1,52,0,372
1,52,102,56
1,52,0,220
1,52,92,104
1,52,0,156
1,57,118,44
1,57,0,388
1,55,120,76
1,55,0,440
1,53,127,28
1,53,0,432
1,52,127,64
1,52,0,456
1,50,123,60
1,50,0,396
1,50,100,60
1,50,0,452
1,50,88,40
1,50,0,184
1,50,100,112
1,50,0,196
1,57,123,0
1,57,0,288
1,58,127,40
1,58,0,604
1,58,99,84
1,58,0,388
1,58,91,76
1,58,0,416
1,58,115,80
1,57,91,316
1,57,0,100
1,53,100,52
1,58,0,28
1,53,0,376
1,53,100,84
1,53,0,388
1,53,123,64
1,53,0,416
1,53,107,100
1,53,0,416
1,53,105,56
1,53,0,424
1,48,120,44
1,48,0,424
1,50,118,72
1,48,100,32
1,48,0,12
1,50,0,336
1,52,115,112
1,52,0,412
1,53,104,68
1,53,0,424
1,53,100,52
1,53,0,416
1,53,120,100
1,53,0,432
1,53,104,64
1,53,0,280
1,48,102,16
1,53,115,164
1,48,0,24
1,53,0,400
1,53,103,68
1,53,0,396
1,53,102,84
1,53,0,340
1,55,115,92
1,55,0,420
1,57,103,72
1,57,0,428
1,57,99,52
1,57,0,456
1,52,115,36
1,52,0,416
1,52,100,100
1,52,0,220
1,52,100,80
1,52,0,148
1,57,109,28
1,57,0,388
1,57,107,88
1,52,100,304
1,57,0,16
1,57,115,164
1,52,0,40
1,57,0,164
1,60,127,64
1,60,0,432
1,62,127,72
1,62,0,640
1,62,102,52
1,62,0,376
1,62,96,72
1,62,0,332
1,62,112,104
1,58,104,516
1,62,0,4
1,58,0,396
1,58,89,48
1,58,0,412
1,58,88,76
1,58,0,236
1,58,73,132
1,60,78,16
1,60,0,84
1,60,115,60
1,58,0,64
1,60,0,196
1,60,74,112
1,53,97,120
1,60,0,12
1,53,0,316
1,53,102,84
1,53,0,404
1,53,98,112
1,53,0,372
1,53,115,108
1,53,0,220
1,53,104,84
1,53,0,84
1,53,115,76
1,53,0,296
1,53,69,24
1,55,120,160
1,53,0,32
1,55,0,232
1,55,109,72
1,53,123,144
1,55,0,36
1,53,0,220
1,53,104,88
1,52,118,148
1,53,0,12
1,50,120,452
1,52,0,16
1,50,0,200
1,50,104,80
1,53,118,172
1,50,0,64
1,53,0,160
1,53,127,60
1,53,0,172
1,57,127,0
1,57,0,224
1,57,102,92
1,60,123,160
1,57,0,44
1,57,104,272
1,60,0,56
1,57,0,124
1,50,115,8
1,50,0,236
1,50,104,64
1,53,105,164
1,50,0,68
1,53,0,180
1,53,100,52
1,57,104,176
1,53,0,132
1,57,0,120
1,57,99,60
1,57,0,196
1,60,103,12
1,57,118,308
1,60,0,116
1,53,104,40
1,57,0,32
1,57,103,440
1,53,0,64
1,57,0,388
1,60,127,0
1,60,0,152
1,60,115,156
1,60,0,124
1,62,100,36
1,60,123,308
1,62,0,96
1,60,0,72
1,53,120,24
1,57,115,500
1,53,0,68
1,60,118,424
1,57,0,68
1,60,0,76
1,60,120,132
1,60,0,208
1,57,104,4
1,57,0,168
1,57,92,108
1,55,96,12
1,50,88,128
1,55,0,28
1,57,0,0
1,50,0,188
1,50,105,108
1,53,118,164
1,50,0,88
1,53,0,152
1,53,100,68
1,57,109,172
1,53,0,108
1,57,0,104
1,57,91,64
1,60,104,164
1,57,0,56
1,57,112,264
1,60,0,16
1,57,0,176
1,50,115,4
1,50,0,212
1,50,94,84
1,53,109,156
1,50,0,64
1,53,0,144
1,53,104,100
1,57,112,192
1,53,0,104
1,57,0,100
1,57,99,104
1,57,0,136
1,60,104,28
1,58,68,288
1,58,0,80
1,60,0,32
1,48,127,84
1,48,0,1764
1,48,88,32
1,53,120,120
1,48,0,56
1,53,0,632
1,53,93,48
1,53,0,124
1,53,97,76
1,53,0,756
1,53,91,64
1,53,0,132
1,53,100,56
1,53,0,692
1,53,91,72
1,53,0,108
1,53,100,72
1,53,0,684
1,53,98,92
1,53,0,104
1,53,100,56
1,53,0,696
1,53,97,72
1,53,0,132
1,53,98,60
1,53,0,716
1,53,97,64
1,53,0,156
1,53,83,40
1,53,0,652
1,53,91,76
1,53,0,136
1,53,84,68
1,53,0,216
1,53,100,76
1,53,0,424
1,53,98,88
1,53,0,104
1,53,88,52
1,53,0,648
1,53,99,132
1,53,0,84
1,53,99,100
1,53,0,700
1,53,91,124
1,53,0,124
1,53,103,80
1,53,0,124
1,53,120,172
1,65,127,160
1,53,0,32
1,65,0,44
1,65,104,72
1,65,0,76
1,65,104,56
1,65,0,72
1,65,127,84
1,65,0,152
1,62,115,24
1,60,123,156
1,62,0,16
1,60,0,144
1,57,123,24
1,62,127,116
1,57,0,60
1,60,127,100
1,62,0,4
1,60,0,140
1,53,127,92
1,53,0,336
1,53,120,80
1,53,0,464
1,48,123,28
1,48,0,416
1,48,107,60
1,52,78,328
1,48,0,60
1,52,0,8
1,53,115,84
1,53,0,388
1,53,112,80
1,48,107,300
1,53,0,24
1,48,0,124
1,53,123,40
1,53,0,208
1,55,127,68
1,55,0,436
1,56,99,48
1,55,59,68
1,53,58,20
1,57,40,44
1,53,0,8
1,56,0,20
1,55,0,12
1,57,0,412
1,57,109,72
1,57,0,404
1,52,104,20
1,52,0,416
1,52,118,76
1,52,0,280
1,52,98,48
1,57,103,172
1,57,102,0
1,52,0,4
1,57,0,180
1,57,0,276
1,55,120,48
1,55,0,412
1,53,127,72
1,53,0,396
1,52,115,56
1,52,0,464
1,50,127,40
1,50,0,424
1,50,109,84
1,50,0,364
1,50,118,100
1,50,0,360
1,50,120,104
1,50,0,280
1,48,115,44
1,48,0,136
1,46,123,28
1,46,0,392
1,46,120,92
1,46,0,388
1,46,123,112
1,46,0,252
1,50,107,20
1,50,0,432
1,55,112,56
1,55,0,148
1,53,115,12
1,53,0,396
1,53,123,108
1,53,0,448
1,53,102,80
1,53,0,880
1,53,97,60
1,53,0,404
1,48,107,48
1,48,0,384
1,50,127,104
1,50,0,384
1,52,118,108
1,52,0,436
1,53,99,4
1,53,0,444
1,53,103,64
1,53,0,460
1,48,115,20
1,48,0,396
1,48,104,48
1,48,0,468
1,53,123,60
1,53,0,404
1,53,104,68
1,48,96,284
1,53,0,20
1,53,120,144
1,48,0,64
1,53,0,408
1,55,123,8
1,55,0,440
1,57,120,64
1,57,0,372
1,57,102,72
1,57,0,452
1,52,109,40
1,52,0,432
1,52,107,76
1,52,0,260
1,52,92,48
1,57,104,148
1,52,0,56
1,57,0,340
1,60,123,76
1,60,0,484
1,57,120,64
1,55,109,276
1,57,0,12
1,53,109,172
1,55,0,52
1,53,0,208
1,52,118,68
1,50,104,168
1,52,0,24
1,50,0,400
1,50,104,64
1,50,0,400
1,50,120,92
1,50,0,244
1,45,103,16
1,50,127,172
1,45,0,28
1,50,0,248
1,46,127,28
1,46,0,480
1,46,99,48
1,48,120,160
1,46,0,44
1,48,0,364
1,50,120,92
1,48,57,44
1,48,0,44
1,52,118,208
1,50,0,20
1,52,0,160
1,53,109,4
1,53,0,240
1,55,69,60
1,57,62,16
1,57,0,156
1,53,123,12
1,55,0,4
1,53,0,356
1,53,98,88
1,53,0,376
1,53,115,88
1,53,0,428
1,53,104,68
1,53,0,284
1,48,118,12
1,53,127,160
1,48,0,48
1,53,0,356
1,55,127,84
1,55,0,436
1,53,120,72
1,53,0,396
1,52,123,64
1,52,0,420
1,50,123,52
1,50,0,448
1,53,118,8
1,53,0,468
1,57,102,40
1,53,91,12
1,53,0,84
1,57,0,92
1,57,104,116
1,60,115,172
1,57,0,32
1,60,0,252
1,57,115,48
1,57,0,136
1,50,103,24
1,50,0,448
1,53,115,32
1,57,94,480
1,53,0,100
1,57,0,84
1,57,105,116
1,60,103,180
1,57,0,40
1,60,0,284
1,57,115,8
1,57,0,172
1,53,118,12
1,57,107,448
1,53,0,72
1,57,0,180
1,57,100,48
1,60,103,184
1,57,0,48
1,60,0,124
1,60,120,140
1,62,100,164
1,60,0,20
1,62,0,244
1,60,118,28
1,53,112,164
1,60,0,4
1,53,0,212
1,53,92,80
1,52,93,0
1,57,99,160
1,58,94,0
1,52,0,16
1,53,0,60
1,58,0,160
1,57,0,12
1,57,100,68
1,60,107,192
1,57,0,88
1,60,0,88
1,60,103,156
1,62,115,152
1,60,0,32
1,62,0,220
1,60,118,72
1,60,0,124
1,50,112,28
1,50,0,224
1,56,59,32
1,50,98,36
1,56,0,16
1,53,118,160
1,50,0,84
1,53,0,168
1,53,100,60
1,57,86,148
1,53,0,128
1,57,0,80
1,57,103,108
1,60,107,192
1,57,0,12
1,57,109,304
1,60,0,36
1,50,118,124
1,57,0,16
1,50,0,224
1,50,94,60
1,50,0,156
1,53,115,12
1,53,0,220
1,53,100,60
1,57,100,200
1,53,0,108
1,57,0,92
1,57,100,84
1,60,102,200
1,57,0,4
1,60,0,232
1,60,83,36
1,60,0,164
1,48,123,48
1,48,0,908
1,48,107,96
1,48,0,724
1,48,98,80
1,53,103,152
1,48,0,48
1,53,0,400
1,53,102,52
1,53,0,420
1,53,98,64
1,53,0,876
1,53,89,84
1,53,0,376
1,53,88,88
1,53,0,404
1,53,73,76
1,53,0,412
1,53,88,76
1,53,0,332
1,53,91,116
1,53,0,468
1,53,81,52
1,53,0,392
1,53,64,56
1,53,0,372
1,53,83,92
1,53,0,380
1,53,82,108
1,53,0,340
1,53,73,128
1,53,0,356
1,53,93,156
1,53,0,360
1,53,82,100
1,53,0,300
1,53,120,136
1,53,0,436
1,53,94,92
1,53,0,404
1,53,94,80
1,53,0,828
1,53,94,128
1,53,0,452
1,53,91,60
1,53,0,356
1,53,93,76
1,53,0,360
1,53,88,76
1,53,0,400
1,53,100,104
1,53,0,444
1,53,83,72
1,53,0,428
1,53,82,60
1,53,0,412
1,53,93,68
1,53,0,412
1,53,98,72
1,53,0,464
1,53,73,44
1,53,0,412
1,53,89,72
1,53,0,336
1,53,97,96
1,53,0,400
1,53,102,100
1,53,0,416
1,53,92,76
1,53,0,396
1,53,94,96
1,53,0,388
1,53,98,88
1,53,0,376
1,53,94,88
1,53,0,404
1,53,93,88
1,53,0,376
1,53,94,96
1,53,0,368
1,53,92,76
1,53,0,352
1,53,103,92
1,53,0,452
1,53,98,76
1,53,0,424
1,53,92,72
1,53,0,368
1,53,91,88
1,53,0,400
1,53,94,84
1,53,0,424
1,53,99,100
1,53,0,412
1,53,89,60
1,53,0,396
1,53,93,112
1,53,0,356
1,53,100,100
1,53,0,396
1,53,92,120
1,53,0,292
1,53,86,152
1,53,0,492
1,53,81,44
1,53,0,308
1,53,98,84
1,53,0,444
1,53,94,84
1,53,0,332
1,53,94,120
1,53,0,372
1,53,100,104
1,53,0,384
1,53,91,56
1,53,0,404
1,53,98,88
1,53,0,400
1,53,97,104
1,53,0,368
1,53,103,92
1,53,0,296
1,53,100,80
1,53,0,420
1,53,98,124
1,53,0,468
1,53,96,96
1,53,0,300
1,53,99,72
1,53,0,284
1,53,103,168
1,53,0,420
1,53,100,128
1,53,0,360
1,53,98,76
1,53,0,420
1,53,105,92
1,53,0,344
1,53,104,80
1,53,0,372
1,55,123,92
1,55,0,432
1,53,123,68
1,53,0,420
1,52,123,48
1,52,0,356
1,50,115,112
1,53,115,452
1,50,0,64
1,57,115,452
1,53,0,112
1,57,0,84
1,57,98,84
1,60,115,172
1,57,0,56
1,60,0,244
1,57,104,16
1,57,0,192
1,50,115,4
1,50,0,476
1,53,115,16
1,57,100,560
1,53,0,112
1,57,0,92
1,57,100,76
1,60,104,172
1,57,0,60
1,57,112,292
1,60,0,72
1,57,0,76
1,53,115,4
1,57,100,452
1,53,0,52
1,57,0,224
1,57,99,24
1,60,120,208
1,57,0,4
1,60,0,196
1,60,107,116
1,62,123,164
1,60,0,44
1,60,115,284
1,62,0,144
1,60,0,24
1,53,112,16
1,53,0,232
1,53,88,44
1,57,109,176
1,53,0,60
1,60,104,424
1,57,0,76
1,60,0,136
1,60,104,136
1,60,0,144
1,62,118,16
1,60,120,284
1,62,0,116
1,60,0,32
1,50,118,8
1,50,0,268
1,50,92,76
1,53,118,152
1,50,0,68
1,53,0,180
1,53,103,52
1,57,107,160
1,53,0,88
1,57,0,132
1,57,100,88
1,57,0,172
1,60,118,0
1,60,0,284
1,57,89,44
1,58,89,20
1,58,0,120
1,57,0,20
1,50,112,8
1,53,115,440
1,50,0,12
1,53,0,240
1,53,100,60
1,57,102,180
1,53,0,116
1,57,0,92
1,57,97,84
1,57,0,184
1,60,100,0
1,60,0,276
1,58,120,12
1,58,0,160
1,48,118,20
1,50,115,0
1,50,0,80
1,48,0,908
1,48,115,80
1,48,0,480
1,48,107,60
1,53,107,424
1,48,0,40
1,53,0,460
1,53,92,36
1,53,0,804
1,53,82,76
1,53,0,392
1,53,86,76
1,53,0,412
1,53,61,60
1,53,0,400
1,53,48,48
1,53,0,416
1,53,67,64
1,53,0,392
1,53,78,68
1,53,0,960
1,53,57,40
1,53,0,400
1,53,76,56
1,53,0,404
1,53,77,76
1,53,0,404
1,53,84,64
1,53,0,400
1,53,97,84
1,53,0,360
1,53,103,92
1,53,0,292
1,48,103,20
1,48,0,92
1,53,100,56
1,53,0,468
1,53,86,44
1,53,0,896
1,53,100,60
1,53,0,308
1,48,102,8
1,48,0,120
1,53,103,48
1,53,0,384
1,53,104,76
1,53,0,340
1,53,102,132
1,53,0,112
1,53,120,172
1,53,0,120
1,53,99,36
1,53,0,324
1,48,109,12
1,53,115,180
1,48,0,8
1,53,0,400
1,53,98,76
1,53,0,416
1,53,70,44
1,53,0,440
1,53,104,80
1,53,0,320
1,48,89,8
1,48,0,88
1,53,100,32
1,53,0,424
1,50,83,108
1,53,120,12
1,50,0,116
1,53,0,280
1,53,109,92
1,52,100,16
1,52,0,36
1,53,0,200
1,50,96,60
1,50,0,172
1,48,107,0
1,48,0,156
1,53,127,124
1,53,0,620
1,53,100,72
1,53,0,400
1,53,112,92
1,53,0,216
1,53,103,88
1,53,0,532
1,48,89,0
1,50,98,4
1,50,0,92
1,48,0,52
1,53,118,4
1,53,0,372
1,53,115,124
1,53,0,324
1,53,115,120
1,53,0,380
1,53,100,88
1,48,103,328
1,53,0,52
1,48,0,44
1,53,102,80
1,53,0,408
1,53,99,32
1,53,0,404
1,53,98,96
1,53,0,404
1,53,99,88
1,53,0,384
1,53,103,84
1,60,89,284
1,60,0,52
1,53,0,80
1,65,118,32
1,65,0,96
1,65,100,68
1,65,0,84
1,65,107,60
1,65,0,84
1,65,115,80
1,62,100,172
1,65,0,44
1,62,0,104
1,60,115,20
1,57,118,176
1,60,0,4
1,60,107,108
1,57,0,60
1,62,109,92
1,60,0,76
1,62,0,72
1,53,118,32
1,53,0,376
1,53,98,84
1,53,0,420
1,53,102,76
1,53,0,396
1,53,94,68
1,53,0,368
1,53,115,128
1,53,0,392
1,53,98,88
1,53,0,384
1,53,100,84
1,53,0,216
1,50,112,60
1,48,115,192
1,50,0,64
1,48,0,188
1,53,120,52
1,53,0,536
