track,note,velocity,time
2,62,112,20
2,62,127,20
2,62,122,12
2,59,117,152
2,58,85,36
2,56,85,8
2,54,85,4
2,52,85,4
2,67,122,0
2,64,101,0
2,62,112,76
2,59,91,60
2,57,117,4
2,55,122,48
2,59,101,0
2,57,107,20
2,55,72,96
2,57,104,92
2,59,85,180
2,57,101,192
2,59,99,92
2,59,103,40
2,59,108,68
2,57,107,188
2,55,96,84
2,57,109,52
2,57,127,0
2,55,96,84
2,55,84,24
2,55,91,20
2,55,114,64
2,55,122,72
2,59,107,8
2,55,109,0
2,60,127,164
2,59,95,8
2,55,114,8
2,52,95,12
2,50,82,84
2,55,127,4
2,59,116,128
2,62,92,96
2,67,127,88
2,64,95,0
3,62,85,96
3,64,85,20
3,67,86,20
3,69,93,20
3,71,86,52
3,74,85,16
3,76,85,16
3,74,85,16
3,71,85,124
3,74,92,52
3,71,85,32
3,69,85,16
3,69,89,64
3,67,95,64
3,69,95,48
3,67,92,32
3,64,92,56
3,62,85,16
3,62,91,16
3,64,101,12
3,67,91,12
3,67,97,20
3,64,86,20
3,62,98,20
3,67,96,20
3,71,96,52
3,62,85,52
3,64,95,16
3,67,96,16
3,67,97,16
3,64,97,16
3,67,96,64
3,62,93,20
3,76,110,28
3,71,89,0
3,67,98,68
3,67,85,28
3,69,97,12
3,67,111,12
3,64,96,0
3,69,98,16
3,71,91,40
3,74,91,16
3,76,101,16
3,79,111,12
3,79,91,8
3,76,98,48
3,74,97,16
3,69,85,52
3,67,88,20
3,69,98,20
3,67,96,68
3,64,95,24
3,67,91,52
3,64,85,92
3,62,86,12
3,64,85,12
3,62,88,12
3,64,85,12
3,62,85,12
3,67,95,0
3,65,93,60
3,64,85,12
3,63,86,12
3,62,88,12
3,62,85,12
3,57,85,12
3,62,85,12
3,64,86,12
3,67,85,12
3,67,85,12
3,68,74,12
3,69,85,12
3,70,95,12
3,71,85,12
3,74,95,12
3,76,86,124
3,74,99,24
3,79,93,64
3,79,81,16
3,81,85,12
3,83,85,12
3,83,85,56
3,81,84,56
3,79,84,16
3,81,85,60
3,83,85,60
3,79,84,60
3,76,85,60
3,74,84,12
3,76,85,12
3,74,91,16
3,74,84,64
3,71,85,16
3,74,91,64
3,76,85,16
3,71,85,64
3,69,72,8
3,67,82,8
3,69,93,8
3,67,95,8
3,64,92,116
3,71,89,156
3,71,85,64
3,67,93,28
3,62,95,28
3,64,89,56
3,67,95,56
3,71,85,56
3,72,89,12
3,71,91,12
3,69,88,60
3,67,89,16
3,67,111,60
4,43,103,576
4,43,103,56
4,40,103,56
4,40,103,56
4,36,103,56
4,36,103,52
4,36,103,52
4,38,103,52
4,38,103,52
4,43,103,52
4,43,103,56
4,40,103,56
4,40,103,56
4,36,103,56
4,36,103,52
4,36,103,52
4,38,103,52
4,38,103,52
4,43,103,52
4,43,103,56
4,40,103,56
4,40,103,56
4,36,103,56
4,36,103,52
4,36,103,52
4,38,103,52
4,38,103,52
4,43,103,52
4,43,103,56
4,40,103,56
4,40,103,56
4,36,103,56
4,36,103,52
4,36,103,52
4,38,103,52
4,38,103,52
4,43,103,52
4,43,103,56
4,40,103,56
4,40,103,56
4,36,103,56
4,36,103,52
4,36,103,52
4,38,103,52
4,38,103,52
4,43,103,52
4,43,103,56
4,40,103,56
4,40,103,56
4,36,103,56
4,36,103,52
4,36,103,52
4,38,103,52
4,38,103,52
4,43,103,52
4,43,103,56
4,40,103,56
4,40,103,56
4,36,103,56
4,36,103,52
4,36,103,52
4,38,103,52
4,38,103,52
4,40,103,52
4,40,103,120
4,43,103,212
4,43,103,52
4,40,103,52
4,40,103,52
4,36,103,52
4,36,103,52
4,38,103,52
4,38,103,52
4,43,103,52
4,43,103,52
4,40,103,52
4,40,103,52
4,36,103,52
4,36,103,52
4,38,103,52
4,38,103,52
4,43,103,52
4,43,103,52
4,40,103,52
4,40,103,52
4,36,103,52
4,36,103,52
4,38,103,52
4,38,103,52
4,40,103,52
4,40,103,120
4,40,103,116
4,40,103,28
4,40,103,28
4,35,103,28
4,35,103,52
4,35,103,52
4,35,103,60
4,35,103,52
4,35,103,52
4,40,103,60
4,40,103,52
4,40,103,52
4,40,103,52
4,40,103,52
4,40,103,52
4,40,103,52
4,40,103,52
4,45,103,52
4,45,103,52
4,45,103,52
4,45,103,52
4,45,103,52
4,45,103,52
4,45,103,52
4,45,103,52
4,38,103,52
4,38,103,52
4,38,103,52
4,45,103,48
4,50,103,0
4,43,103,56
4,43,103,56
4,40,103,56
4,40,103,56
4,36,103,56
4,36,103,52
4,36,103,52
4,38,103,52
4,38,103,52
4,43,103,52
4,43,103,56
4,40,103,56
4,40,103,56
4,36,103,56
4,36,103,52
4,36,103,52
4,38,103,52
4,38,103,52
4,43,103,52
4,43,103,56
4,40,103,56
4,40,103,56
4,36,103,56
4,36,103,52
4,36,103,52
4,38,103,52
4,38,103,52
4,43,103,52
4,43,103,56
4,40,103,56
4,40,103,56
4,36,103,56
4,36,103,52
4,36,103,52
4,38,103,52
4,38,103,52
4,43,103,52
4,43,103,56
4,40,103,56
4,40,103,56
4,36,103,56
4,36,103,52
4,36,103,52
4,38,103,52
4,38,103,52
4,43,103,52
4,43,103,56
4,40,103,56
4,40,103,56
4,36,103,56
4,36,103,52
4,36,103,52
4,38,103,52
4,38,103,52
4,43,103,52
4,43,103,56
4,40,103,56
4,40,103,56
4,36,103,56
4,36,103,52
4,36,103,52
4,38,103,52
4,38,103,52
4,40,103,52
4,40,103,120
4,43,103,212
4,43,103,52
4,40,103,52
4,40,103,52
4,36,103,52
4,36,103,52
4,38,103,52
4,38,103,52
4,43,103,52
4,43,103,52
4,40,103,52
4,40,103,52
4,36,103,52
4,36,103,52
4,38,103,52
4,38,103,52
4,43,103,52
4,43,103,52
4,40,103,52
4,40,103,52
4,36,103,52
4,36,103,52
4,38,103,52
4,38,103,52
4,43,103,52
4,43,103,52
4,40,103,52
4,40,103,52
4,36,103,52
4,36,103,52
4,38,103,52
4,38,103,52
4,43,103,52
4,43,103,52
4,40,103,52
4,40,103,52
4,36,103,52
4,36,103,52
4,38,103,52
4,38,103,52
4,43,103,52
4,43,103,52
4,40,103,52
4,40,103,52
4,36,103,52
4,36,103,52
4,38,103,52
4,38,103,52
4,43,103,52
4,43,103,52
4,40,103,52
4,40,103,52
4,36,103,52
4,36,103,52
4,38,103,52
4,38,103,52
4,43,103,52
4,43,103,52
4,40,103,52
4,40,103,52
4,36,103,52
4,36,103,52
4,38,103,52
4,38,103,52
4,43,103,52
4,43,103,52
4,40,103,52
4,40,103,52
4,36,103,52
4,36,103,52
4,38,103,52
4,38,103,52
4,43,103,52
4,43,103,52
4,40,103,52
4,40,103,52
4,36,103,52
4,36,103,52
4,38,103,52
4,38,103,52
4,43,103,52
4,43,103,52
4,40,103,52
4,40,103,52
4,36,103,52
4,36,103,52
4,38,103,52
4,38,103,52
4,43,103,52
4,43,103,52
4,40,103,52
4,40,103,52
4,36,103,52
4,36,103,52
4,38,103,52
4,38,103,52
4,43,103,52
4,43,103,52
4,40,103,52
4,40,103,52
4,36,103,52
4,36,103,52
4,38,103,52
4,38,103,52
4,43,103,52
4,43,103,52
4,40,103,52
4,40,103,52
4,36,103,52
4,36,103,52
4,38,103,52
4,38,103,52
4,43,103,52
4,43,103,52
4,40,103,52
4,40,103,52
4,36,103,52
4,36,103,52
4,38,103,52
4,38,103,52
4,43,103,52
4,43,103,52
4,40,103,52
4,40,103,52
4,36,103,52
4,36,103,52
4,38,103,52
4,38,103,52
5,43,87,0
5,47,87,12
5,50,87,12
5,55,87,12
5,59,68,0
5,62,67,0
5,55,67,44
5,59,68,0
5,62,87,0
5,55,71,48
5,59,87,0
5,64,35,96
5,55,76,40
5,60,87,0
5,64,87,0
5,55,73,168
5,60,87,0
5,64,87,0
5,55,87,52
5,60,87,0
5,64,87,0
5,57,87,76
5,62,87,0
5,66,87,0
5,57,76,52
5,62,81,0
5,66,87,0
5,55,61,64
5,59,72,0
5,62,39,0
5,55,45,36
5,59,66,0
5,62,76,0
5,55,81,72
5,59,87,0
5,64,46,0
5,55,87,40
5,60,87,0
5,64,87,0
5,55,81,168
5,60,83,0
5,64,87,0
5,55,87,60
5,60,87,0
5,64,87,0
5,57,81,76
5,62,78,0
5,66,87,0
5,55,72,164
5,59,79,0
5,62,87,0
5,55,55,112
5,59,59,0
5,64,87,0
5,55,56,80
5,60,86,0
5,64,73,0
5,55,74,56
5,60,87,0
5,64,78,0
5,55,74,64
5,60,87,0
5,64,87,0
5,57,79,64
5,62,81,0
5,66,87,0
5,55,66,104
5,59,74,0
5,62,79,0
5,55,63,84
5,59,62,0
5,64,80,0
5,55,48,76
5,60,79,0
5,64,70,0
5,55,62,88
5,60,87,0
5,64,87,0
5,55,57,44
5,60,64,0
5,64,76,0
5,57,87,64
5,62,84,0
5,66,87,0
5,55,72,136
5,59,87,0
5,62,87,0
5,55,69,44
5,59,79,0
5,62,83,0
5,55,39,68
5,59,35,96
5,60,35,0
5,64,36,0
5,55,57,140
5,60,76,0
5,64,80,0
5,55,68,40
5,60,87,0
5,64,87,0
5,57,64,68
5,62,58,0
5,66,76,0
5,55,49,168
5,59,63,0
5,62,52,0
5,55,61,168
5,59,70,0
5,64,74,0
5,55,59,132
5,60,87,0
5,64,87,0
5,57,58,92
5,62,64,0
5,66,83,0
5,55,64,152
5,59,81,0
5,62,87,0
5,55,63,32
5,59,78,0
5,62,84,0
5,55,79,64
5,59,87,0
5,64,42,0
5,55,64,148
5,60,76,0
5,64,79,0
5,55,61,148
5,60,66,0
5,64,76,0
5,57,68,68
5,62,74,0
5,66,80,0
5,55,83,152
5,59,87,0
5,64,87,0
5,55,64,148
5,59,87,0
5,64,87,0
5,55,78,696
5,59,87,0
5,62,87,0
5,59,87,52
5,62,87,0
5,38,77,76
5,55,87,0
5,59,87,0
5,40,77,8
5,64,35,0
5,43,77,8
5,40,77,8
5,55,83,0
5,60,87,0
5,64,87,0
5,55,64,44
5,60,76,0
5,64,87,0
5,57,87,76
5,62,78,0
5,66,87,0
5,55,76,136
5,59,87,0
5,62,87,0
5,55,74,52
5,59,87,0
5,62,87,0
5,55,87,60
5,59,87,0
5,64,35,0
5,55,78,80
5,60,64,0
5,64,76,0
5,55,87,56
5,60,81,0
5,64,87,0
5,55,71,44
5,60,87,0
5,64,87,0
5,57,87,76
5,62,55,0
5,66,87,0
5,55,81,160
5,59,87,0
5,62,87,0
5,59,76,24
5,62,87,0
5,55,48,68
5,59,87,0
5,64,44,0
5,55,71,148
5,60,83,0
5,64,81,0
5,55,87,68
5,60,69,0
5,64,76,0
5,57,87,76
5,62,79,0
5,66,78,0
5,55,57,144
5,59,64,0
5,62,81,0
5,64,78,0
5,55,62,136
5,59,87,0
5,64,87,0
5,59,74,844
5,62,87,0
5,66,87,0
5,66,69,28
5,59,87,68
5,63,72,0
5,66,87,0
5,59,76,56
5,62,87,0
5,66,87,0
5,59,87,172
5,62,87,0
5,66,76,0
5,62,74,44
5,66,87,0
5,59,87,60
5,62,87,0
5,66,87,0
5,59,87,56
5,62,87,0
5,66,87,0
5,55,87,156
5,59,87,0
5,64,35,96
5,64,74,8
5,55,87,68
5,59,87,0
5,55,72,176
5,59,87,0
5,64,35,96
5,55,76,64
5,59,87,0
5,64,87,0
5,59,86,40
5,55,83,80
5,59,87,0
5,64,35,96
5,55,64,32
5,59,72,0
5,55,87,72
5,59,87,0
5,64,87,0
5,57,87,80
5,61,64,0
5,64,87,0
5,57,87,48
5,61,46,0
5,67,61,0
5,57,87,72
5,61,57,0
5,64,62,0
5,67,74,0
5,61,57,40
5,64,81,0
5,57,87,176
5,61,64,0
5,64,87,0
5,67,87,0
5,61,48,24
5,57,87,80
5,61,57,0
5,64,59,0
5,67,51,0
5,61,70,60
5,57,87,0
5,64,87,0
5,67,87,0
5,57,64,64
5,62,87,0
5,66,55,0
5,57,70,0
5,62,74,0
5,66,80,0
5,57,69,0
5,62,74,0
5,66,87,0
5,57,78,0
5,62,69,0
5,66,87,0
5,57,87,0
5,62,78,0
5,66,87,0
5,55,68,768
5,59,73,0
5,59,87,0
5,62,76,0
5,55,74,72
5,59,87,0
5,64,48,0
5,55,87,48
5,60,87,0
5,64,87,0
5,55,87,164
5,60,87,0
5,64,87,0
5,57,71,0
5,62,69,0
5,66,87,0
5,55,87,0
5,59,87,0
5,62,87,0
5,55,78,68
5,59,87,0
5,64,76,0
5,55,81,56
5,60,87,0
5,64,87,0
5,57,57,0
5,62,74,0
5,66,81,0
5,55,81,0
5,59,87,0
5,62,87,0
5,59,83,0
5,62,76,0
5,55,87,76
5,59,87,0
5,64,81,0
5,55,87,60
5,60,87,0
5,64,87,0
5,55,74,52
5,60,87,0
5,64,87,0
5,57,83,0
5,62,87,0
5,66,87,0
5,55,87,0
5,59,87,0
5,62,87,0
5,55,76,0
5,59,74,0
5,62,71,0
5,55,76,64
5,59,87,0
5,64,62,0
5,55,81,76
5,60,81,0
5,64,87,0
5,55,87,156
5,60,87,0
5,64,80,0
5,55,78,60
5,60,86,0
5,64,87,0
5,57,87,0
5,62,87,0
5,66,87,0
5,57,81,0
5,62,87,0
5,66,87,0
5,55,87,0
5,59,87,0
5,62,87,0
5,55,58,0
5,59,86,0
5,62,87,0
5,55,84,64
5,59,87,0
5,64,87,0
5,64,78,40
5,55,74,184
5,60,87,0
5,64,87,0
5,55,61,20
5,60,87,0
5,64,87,0
5,57,83,0
5,62,81,0
5,66,87,0
5,55,87,0
5,59,87,0
5,62,87,0
5,55,81,0
5,59,81,0
5,62,87,0
5,55,58,76
5,59,68,0
5,64,63,0
5,55,78,220
5,60,87,0
5,64,87,0
5,55,63,160
5,60,69,0
5,64,74,0
5,57,87,0
5,62,87,0
5,66,87,0
5,55,87,0
5,59,71,0
5,62,64,0
5,55,70,0
5,59,83,0
5,62,73,0
5,55,63,72
5,59,69,0
5,64,64,0
5,59,87,56
5,55,69,72
5,60,76,0
5,64,87,0
5,55,74,52
5,60,87,0
5,64,87,0
5,57,81,0
5,62,38,0
5,66,70,0
5,55,87,172
5,59,87,0
5,64,87,0
5,55,71,144
5,59,87,0
5,64,87,0
5,55,87,0
5,59,87,0
5,62,87,0
5,59,87,0
5,62,87,0
5,55,69,0
5,59,87,0
5,62,87,0
5,55,87,72
5,59,87,0
5,64,45,0
5,55,67,92
5,60,76,0
5,64,80,0
5,55,87,60
5,60,87,0
5,64,87,0
5,57,83,0
5,62,87,0
5,66,87,0
5,55,87,0
5,59,87,0
5,62,87,0
5,55,73,0
5,59,87,0
5,62,87,0
5,55,66,72
5,59,87,0
5,64,83,0
5,55,87,84
5,57,42,0
5,62,70,0
5,66,56,0
5,55,61,0
5,59,81,0
5,62,69,0
5,55,72,0
5,59,87,0
5,62,80,0
5,55,74,68
5,59,87,0
5,64,38,0
5,55,74,60
5,60,87,0
5,64,87,0
5,55,87,48
5,60,87,0
5,64,87,0
5,57,87,0
5,62,87,0
5,66,87,0
5,55,87,0
5,59,87,0
5,62,87,0
5,59,87,0
5,62,87,0
5,55,74,180
5,59,74,0
5,64,73,0
5,55,57,48
5,60,76,0
5,64,87,0
5,55,83,48
5,60,86,0
5,64,87,0
5,60,87,56
5,64,87,0
5,57,87,0
5,62,83,0
5,66,87,0
5,55,87,0
5,59,87,0
5,62,83,0
5,59,87,0
5,62,87,0
5,55,80,36
5,59,87,0
5,64,87,0
5,55,72,20
5,59,79,0
5,64,87,0
5,55,87,132
5,60,83,0
5,64,87,0
5,57,83,0
5,62,84,0
5,66,87,0
5,55,83,0
5,59,69,0
5,62,87,0
5,59,84,0
5,62,87,0
5,55,87,72
5,59,87,0
5,64,68,0
5,55,87,104
5,60,87,0
5,64,87,0
5,55,83,160
5,60,83,0
5,64,76,0
5,57,87,0
5,62,87,0
5,66,87,0
5,57,87,0
5,62,87,0
5,66,87,0
5,55,83,0
5,59,87,0
5,62,87,0
