track,note,velocity,time
1,78,64,20336
1,78,60,106
1,78,64,110
1,76,60,0
1,73,60,8
1,76,73,192
1,73,64,20
1,73,73,120
1,73,73,126
1,71,64,192
1,69,73,4
1,69,91,106
1,78,60,2874
1,78,64,128
1,78,64,126
1,76,64,192
1,73,52,30
1,76,73,4
1,73,60,0
1,71,64,10
1,69,73,192
1,71,82,190
1,69,73,24
1,69,73,96
1,69,64,72
1,78,73,900
1,78,73,112
1,78,64,116
1,76,73,384
1,73,56,4
1,76,64,384
1,76,56,110
1,73,73,62
1,71,64,20
1,69,56,24
1,71,73,8
1,73,60,16
1,71,56,768
1,69,73,40
1,69,73,80
1,71,82,522
1,73,82,192
1,73,73,100
1,71,60,192
1,69,73,10
1,71,91,192
1,69,60,8
1,69,73,64
1,64,91,112
1,66,82,384
1,66,64,112
1,64,73,16
1,64,82,96
1,78,64,1556
1,76,73,192
1,73,48,16
1,76,73,192
1,73,60,190
1,73,56,766
1,76,73,192
1,76,73,202
1,81,64,368
1,81,64,100
1,81,60,78
1,78,60,192
1,76,73,4
1,78,64,192
1,73,73,122
1,73,64,100
1,73,56,112
1,71,64,0
1,69,64,40
1,69,73,88
1,78,64,714
1,78,60,106
1,78,64,110
1,76,60,0
1,73,60,8
1,76,73,192
1,73,64,20
1,73,73,120
1,73,73,126
1,71,64,192
1,69,73,4
1,69,91,106
1,78,60,2874
1,78,64,128
1,78,64,126
1,76,64,192
1,73,52,30
1,76,73,4
1,73,60,0
1,71,64,10
1,69,73,192
1,71,82,190
1,69,73,24
1,69,73,96
1,69,64,72
1,78,73,900
1,78,73,112
1,78,64,116
1,76,73,384
1,73,56,4
1,76,64,384
1,76,56,110
1,73,73,62
1,71,64,20
1,69,56,24
1,71,73,8
1,73,60,16
1,71,56,768
1,69,73,40
1,69,73,80
1,71,82,522
1,73,82,192
1,73,73,100
1,71,60,192
1,69,73,10
1,71,91,192
1,69,60,8
1,69,73,64
1,64,91,112
1,66,82,384
1,66,64,144
1,64,73,16
1,64,82,96
1,78,64,1556
1,76,73,192
1,73,48,16
1,76,73,192
1,73,60,190
1,73,56,766
1,76,73,192
1,76,73,202
1,81,64,368
1,81,64,100
1,81,60,78
1,78,60,192
1,76,73,4
1,78,64,192
1,73,73,122
1,73,64,100
1,73,56,112
1,71,64,0
1,69,64,40
1,69,73,88
1,69,73,19146
1,69,73,88
1,73,73,24
1,76,73,192
1,78,73,14
1,71,82,1176
1,73,82,192
1,71,73,170
1,69,73,180
1,69,82,152
1,69,82,696
1,69,82,88
1,73,64,10
1,76,82,14
1,76,73,106
1,73,73,8
1,71,91,576
1,69,82,64
1,69,82,84
1,81,73,576
1,81,82,106
1,81,73,84
1,78,64,192
1,76,73,164
1,78,64,4
1,73,73,24
1,73,82,48
1,71,82,104
1,71,91,84
1,69,73,14
1,69,73,384
1,69,73,88
1,73,73,24
1,76,73,192
1,78,73,14
1,71,82,1176
1,73,82,192
1,71,73,170
1,69,73,180
1,69,82,152
1,81,82,504
1,81,82,88
1,81,82,90
1,81,73,96
1,78,60,192
1,76,64,154
1,78,64,20
1,76,64,192
1,73,52,356
1,73,73,136
1,71,64,192
1,69,64,4
1,71,91,4
1,69,64,40
1,78,64,1882
1,78,60,106
1,78,64,110
1,76,60,0
1,73,60,8
1,76,73,192
1,73,64,20
1,73,73,120
1,73,73,126
1,71,64,192
1,69,73,4
1,69,91,106
1,78,60,2874
1,78,64,128
1,78,64,126
1,76,64,192
1,73,52,30
1,76,73,4
1,73,60,0
1,71,64,10
1,69,73,192
1,71,82,190
1,69,73,24
1,69,73,96
1,69,64,72
1,78,73,900
1,78,73,112
1,78,64,116
1,76,73,384
1,73,56,4
1,76,64,384
1,76,56,110
1,73,73,62
1,71,64,20
1,69,56,24
1,71,73,8
1,73,60,16
1,71,56,768
1,69,73,40
1,69,73,80
1,71,82,522
1,73,82,192
1,73,73,100
1,71,60,192
1,69,73,10
1,71,91,192
1,69,60,8
1,69,73,64
1,64,91,112
1,66,82,384
1,66,64,144
1,64,73,16
1,64,82,96
1,78,64,1556
1,76,73,192
1,73,48,16
1,76,73,192
1,73,60,190
1,73,56,766
1,76,73,192
1,76,73,202
1,81,64,368
1,81,64,100
1,81,60,78
1,78,60,192
1,76,73,4
1,78,64,192
1,73,73,122
1,73,64,100
1,73,56,112
1,71,64,0
1,69,64,40
1,69,73,88
1,78,48,712
1,78,48,90
1,78,56,88
1,76,56,16
1,73,52,16
1,76,60,192
1,73,60,8
1,71,60,768
1,69,64,190
1,71,56,180
1,73,64,340
1,71,60,42
1,69,73,192
1,69,73,88
1,81,73,206
1,81,73,96
1,81,73,100
1,81,73,104
1,78,52,192
1,76,60,174
1,78,64,174
1,73,73,144
1,73,60,110
1,73,64,120
1,71,64,14
1,69,64,8
1,71,91,14
1,69,60,24
1,81,82,1648
1,81,73,90
1,81,82,96
1,81,82,100
1,78,64,192
1,76,73,164
1,78,82,164
1,73,73,142
1,73,64,110
1,73,64,106
1,73,82,122
1,71,60,32
1,69,73,26
1,81,73,1908
1,81,73,68
1,81,73,72
1,78,64,192
1,76,64,158
1,78,91,190
1,73,73,142
1,73,73,90
1,73,64,96
1,71,60,26
1,69,64,32
1,71,73,10
2,33,82,1520
2,33,82,88
2,33,82,90
2,33,82,58
2,33,73,90
2,33,73,84
2,30,82,96
2,38,82,36
2,37,82,30
2,28,73,8
2,28,73,84
2,28,73,64
2,28,73,96
2,33,73,74
2,33,64,64
2,33,64,90
2,33,64,90
2,33,60,96
2,33,73,90
2,33,64,100
2,33,60,74
2,33,64,78
2,33,73,106
2,33,60,96
2,33,64,90
2,33,64,106
2,33,64,120
2,33,64,84
2,33,73,116
2,33,64,106
2,33,73,88
2,33,82,90
2,33,64,116
2,33,64,88
2,33,73,80
2,33,73,126
2,30,82,10
2,31,73,26
2,32,64,10
2,33,73,32
2,33,60,138
2,33,64,88
2,33,73,104
2,33,73,90
2,33,60,84
2,33,73,94
2,33,60,116
2,33,73,96
2,33,73,100
2,33,73,104
2,33,64,90
2,35,64,10
2,37,73,16
2,38,73,4
2,38,73,74
2,38,73,80
2,37,82,26
2,37,73,46
2,28,64,14
2,28,73,62
2,28,82,100
2,28,73,78
2,28,64,80
2,30,82,10
2,32,82,10
2,33,82,16
2,33,64,100
2,33,73,94
2,33,73,106
2,33,64,84
2,33,73,100
2,33,73,104
2,33,73,74
2,33,73,100
2,33,73,158
2,33,64,42
2,33,73,96
2,33,73,112
2,33,73,74
2,33,73,96
2,33,73,112
2,33,73,104
2,33,73,90
2,30,82,116
2,30,73,110
2,30,73,90
2,30,64,110
2,30,64,94
2,30,82,100
2,33,73,14
2,33,64,64
2,33,64,90
2,33,64,90
2,33,60,96
2,33,73,90
2,33,64,100
2,33,60,74
2,33,64,78
2,33,73,106
2,33,60,96
2,33,64,90
2,33,64,106
2,33,64,120
2,33,64,84
2,33,73,116
2,33,64,106
2,33,73,88
2,33,82,90
2,33,64,116
2,33,64,88
2,33,73,80
2,33,73,126
2,30,82,10
2,31,73,26
2,32,64,10
2,33,73,32
2,33,60,138
2,33,64,88
2,33,73,104
2,33,73,90
2,33,60,84
2,33,73,94
2,33,60,116
2,33,73,96
2,33,73,100
2,33,73,104
2,33,64,90
2,35,64,10
2,37,73,16
2,38,73,4
2,38,73,74
2,38,73,80
2,37,82,26
2,37,73,46
2,28,64,14
2,28,73,62
2,28,82,100
2,28,73,78
2,28,64,80
2,30,82,10
2,32,82,10
2,33,82,16
2,33,64,100
2,33,73,94
2,33,73,106
2,33,64,84
2,33,73,100
2,33,73,104
2,33,73,74
2,33,73,100
2,33,73,158
2,33,64,42
2,33,73,96
2,33,73,112
2,33,73,74
2,33,73,96
2,33,73,112
2,33,73,104
2,33,73,90
2,30,82,116
2,30,73,110
2,30,73,90
2,30,64,110
2,30,64,94
2,30,82,100
2,33,82,14
2,33,64,100
2,33,73,94
2,33,73,106
2,33,64,84
2,33,73,100
2,33,73,104
2,33,73,74
2,33,73,100
2,33,73,158
2,33,64,42
2,33,73,96
2,33,73,112
2,33,73,74
2,33,73,96
2,33,73,112
2,33,73,104
2,33,73,90
2,30,82,116
2,30,73,110
2,30,73,90
2,30,64,110
2,30,64,94
2,30,82,100
2,38,82,14
2,37,82,0
2,28,73,8
2,28,73,32
2,42,73,48
2,40,64,48
2,38,73,16
2,40,73,58
2,42,60,24
2,40,73,32
2,28,60,64
2,30,60,10
2,33,73,24
2,33,64,72
2,37,64,10
2,40,64,10
2,42,82,10
2,42,64,80
2,42,64,74
2,40,73,104
2,40,73,80
2,40,64,94
2,38,82,96
2,38,73,80
2,38,64,84
2,33,73,144
2,33,64,120
2,33,73,90
2,37,73,0
2,40,82,16
2,42,73,8
2,40,64,48
2,38,73,16
2,40,73,58
2,42,60,24
2,40,73,32
2,28,60,64
2,30,60,10
2,33,73,24
2,33,64,72
2,37,64,10
2,40,64,10
2,38,64,10
2,38,73,132
2,38,73,94
2,40,82,116
2,40,64,144
2,40,73,94
2,38,82,80
2,37,91,24
2,35,73,24
2,33,73,8
2,30,82,32
2,28,73,32
2,33,73,62
2,33,64,64
2,33,64,90
2,33,64,90
2,33,60,96
2,33,73,90
2,33,64,100
2,33,60,74
2,33,64,78
2,33,73,106
2,33,60,96
2,33,64,90
2,33,64,106
2,33,64,120
2,33,64,84
2,33,73,116
2,33,64,106
2,33,73,88
2,33,82,90
2,33,64,116
2,33,64,88
2,33,73,80
2,33,73,126
2,30,82,10
2,31,73,26
2,32,64,10
2,33,73,32
2,33,60,138
2,33,64,88
2,33,73,104
2,33,73,90
2,33,60,84
2,33,73,94
2,33,60,116
2,33,73,96
2,33,73,100
2,33,73,104
2,33,64,90
2,35,64,10
2,37,73,16
2,38,73,4
2,38,73,74
2,38,73,80
2,37,82,26
2,37,73,46
2,28,64,14
2,28,73,62
2,28,82,100
2,28,73,78
2,28,64,80
2,30,82,10
2,32,82,10
2,33,82,16
2,33,64,100
2,33,73,94
2,33,73,106
2,33,64,84
2,33,73,100
2,33,73,104
2,33,73,74
2,33,73,100
2,33,73,158
2,33,64,42
2,33,73,96
2,33,73,112
2,33,73,74
2,33,73,96
2,33,73,112
2,33,73,104
2,33,73,90
2,30,82,116
2,30,73,110
2,30,73,90
2,30,64,110
2,30,64,94
2,30,82,100
2,33,73,14
2,33,64,64
2,33,64,90
2,33,64,90
2,33,60,96
2,33,73,90
2,33,64,100
2,33,60,74
2,33,64,78
2,33,73,106
2,33,73,88
2,33,73,104
2,35,73,16
2,37,73,16
2,40,73,16
2,38,73,14
2,38,73,62
2,40,73,72
2,40,64,84
2,38,83,32
2,37,73,10
2,35,73,26
2,33,73,16
2,30,64,32
2,28,73,32
2,38,82,36
2,38,73,80
2,40,82,84
2,40,73,78
2,40,73,110
2,38,83,40
2,37,73,10
2,35,73,26
2,33,73,16
2,30,64,32
2,28,73,32
2,38,73,36
2,38,64,104
2,38,64,106
2,38,64,74
2,40,91,90
2,40,82,120
2,40,73,96
2,38,82,68
2,37,82,16
2,35,82,16
2,33,82,32
2,33,73,190
2,33,60,104
2,33,73,112
2,33,64,88
2,33,64,74
2,33,64,78
2,33,60,112
2,33,60,74
2,33,64,96
2,33,64,94
2,33,64,106
2,33,73,96
2,33,64,72
2,33,64,74
2,33,73,46
2,33,56,96
2,33,73,112
2,33,64,80
2,33,64,100
2,33,64,106
2,33,64,48
2,33,64,74
2,33,64,104
2,33,64,112
2,33,73,84
2,33,60,122
2,33,73,88
2,33,64,88
2,33,73,192
2,33,73,384
2,42,64,36
2,40,73,40
2,33,64,8
2,33,64,96
2,33,64,90
2,33,64,94
2,33,64,96
2,33,60,90
2,33,64,74
2,33,60,90
2,33,60,88
2,33,60,128
2,33,64,62
2,33,64,94
2,30,64,16
2,31,60,10
2,32,56,16
2,33,73,24
2,33,56,106
2,33,73,84
2,33,73,160
2,33,64,68
2,33,60,90
2,33,73,116
2,33,64,112
2,33,64,90
2,33,73,106
2,33,64,80
2,37,73,10
2,40,73,0
2,37,64,10
2,35,73,26
2,33,64,14
2,33,73,80
2,33,64,84
2,33,60,120
2,33,64,72
2,33,64,100
2,33,64,104
2,33,64,106
2,33,73,78
2,33,64,84
2,33,73,84
2,40,60,72
2,42,82,10
2,40,82,16
2,33,60,0
2,33,82,72
2,33,73,74
2,33,64,90
2,33,73,90
2,33,64,78
2,33,64,120
2,33,60,154
2,33,64,68
2,33,73,148
2,33,64,112
2,33,64,42
2,33,73,48
2,35,73,10
2,37,91,16
2,38,91,16
2,28,82,32
2,38,82,64
2,37,82,24
2,35,73,40
2,33,73,0
3,78,82,1520
3,74,91,0
3,69,91,0
3,78,82,10
3,74,91,0
3,69,91,0
3,76,91,298
3,69,91,0
3,73,100,0
3,78,82,170
3,74,82,0
3,69,91,0
3,69,82,52
3,78,73,0
3,74,91,0
3,73,82,304
3,69,82,0
3,76,91,0
3,78,91,32
3,69,91,0
3,74,91,0
3,69,82,106
3,78,82,0
3,74,82,0
3,76,91,256
3,73,91,0
3,69,91,0
3,73,91,298
3,85,73,0
3,83,82,30
3,71,44,0
3,81,91,0
3,69,64,0
3,81,82,0
3,78,64,0
3,85,64,0
3,73,64,0
3,62,82,0
3,50,91,0
3,86,82,14
3,81,82,0
3,78,64,0
3,90,73,0
3,93,91,264
3,81,73,0
3,83,82,128
3,95,91,0
3,97,73,324
3,88,91,0
3,85,82,0
3,93,82,0
3,61,73,120
3,49,91,0
3,76,91,394
3,88,91,0
3,76,82,176
3,88,82,0
3,78,91,200
3,90,91,0
3,40,73,14
3,52,73,0
3,78,82,0
3,90,91,0
3,76,91,46
3,88,91,0
3,76,100,104
3,88,91,0
3,69,73,58
3,78,82,0
3,74,82,0
3,69,64,414
3,78,60,0
3,74,73,0
3,69,82,488
3,78,73,0
3,74,82,0
3,76,82,318
3,69,82,0
3,73,82,0
3,78,73,40
3,74,82,0
3,69,73,0
3,69,82,158
3,74,82,0
3,78,73,0
3,69,73,488
3,74,82,0
3,78,73,0
3,73,82,308
3,76,91,0
3,69,82,0
3,69,82,100
3,78,73,0
3,74,73,0
3,69,82,138
3,74,82,0
3,78,73,0
3,69,73,474
3,74,73,0
3,78,64,0
3,69,73,296
3,76,82,0
3,73,82,0
3,78,73,104
3,69,73,0
3,74,82,0
3,69,73,238
3,74,64,0
3,78,60,0
3,74,82,478
3,69,82,0
3,78,82,0
3,69,73,314
3,76,91,0
3,73,82,0
3,69,82,596
3,74,82,0
3,78,73,0
3,69,82,90
3,74,82,0
3,78,73,0
3,69,73,458
3,78,64,0
3,74,82,0
3,73,73,280
3,69,82,0
3,76,82,0
3,85,73,298
3,73,73,0
3,71,91,104
3,83,82,0
3,81,91,116
3,69,91,0
3,74,82,266
3,78,82,0
3,69,82,0
3,69,82,58
3,74,82,0
3,78,73,0
3,69,64,138
3,74,73,0
3,78,73,0
3,69,91,264
3,73,82,0
3,76,91,0
3,74,82,436
3,69,82,0
3,78,82,0
3,73,91,8
3,69,91,0
3,76,82,0
3,68,73,20
3,71,73,0
3,76,73,0
3,80,73,0
3,88,73,192
3,80,82,168
3,80,82,138
3,81,73,54
3,90,64,96
3,81,73,40
3,81,82,148
3,83,73,54
3,92,73,78
3,66,73,0
3,74,73,0
3,69,82,0
3,66,73,292
3,74,82,0
3,69,91,0
3,69,82,216
3,66,82,0
3,74,82,0
3,69,64,288
3,64,91,0
3,73,52,0
3,66,73,360
3,69,82,0
3,74,73,0
3,66,73,186
3,69,82,0
3,74,91,0
3,69,91,8
3,73,64,0
3,64,82,0
3,69,82,490
3,74,73,0
3,66,82,0
3,66,73,330
3,74,64,0
3,69,82,0
3,69,73,72
3,73,56,0
3,64,82,0
3,81,91,160
3,69,82,0
3,71,82,126
3,83,91,0
3,73,91,128
3,85,91,0
3,90,82,136
3,69,91,0
3,78,60,0
3,66,73,0
3,73,64,0
3,69,73,8
3,66,64,0
3,74,73,0
3,66,60,312
3,74,64,0
3,69,73,0
