track,note,velocity,time
0,43,100,430
0,43,100,0
0,43,0,40
0,43,0,0
0,42,100,0
0,42,100,0
0,42,0,240
0,42,0,0
0,40,100,0
0,40,100,0
0,40,0,720
0,79,100,0
0,76,100,0
0,71,100,0
0,79,100,0
0,76,100,0
0,71,100,0
0,40,100,0
0,47,100,0
0,52,100,0
0,36,90,0
0,43,90,0
0,55,100,120
0,59,100,0
0,64,100,0
0,43,0,96
0,79,0,216
0,76,0,0
0,71,0,0
0,36,0,0
0,40,0,48
0,79,0,0
0,76,0,0
0,71,0,0
0,64,0,108
0,59,0,0
0,55,0,0
0,52,0,0
0,47,0,0
0,40,0,0
0,43,100,132
0,43,100,0
0,43,0,240
0,43,0,0
0,42,100,0
0,42,100,0
0,43,90,0
0,43,0,216
0,42,0,24
0,42,0,0
0,40,100,0
0,40,100,0
0,43,90,0
0,43,0,216
0,40,0,504
0,79,100,0
0,76,100,0
0,71,100,0
0,79,100,0
0,76,100,0
0,71,100,0
0,40,100,0
0,47,100,0
0,52,100,0
0,36,90,0
0,43,90,0
0,55,100,120
0,59,100,0
0,64,100,0
0,43,0,96
0,79,0,216
0,76,0,0
0,71,0,0
0,36,0,0
0,40,0,48
0,79,0,0
0,76,0,0
0,71,0,0
0,64,0,108
0,59,0,0
0,55,0,0
0,52,0,0
0,47,0,0
0,40,0,0
0,48,100,132
0,48,100,0
0,48,0,240
0,48,0,0
0,47,100,0
0,47,100,0
0,43,90,0
0,43,0,216
0,47,0,24
0,47,0,0
0,45,100,0
0,45,100,0
0,43,90,0
0,43,0,216
0,45,0,504
0,79,100,0
0,76,100,0
0,72,100,0
0,79,100,0
0,76,100,0
0,72,100,0
0,45,100,0
0,52,100,0
0,57,100,0
0,36,90,0
0,43,90,0
0,64,100,120
0,60,100,0
0,43,0,96
0,79,0,216
0,76,0,0
0,72,0,0
0,36,0,0
0,45,0,48
0,79,0,0
0,76,0,0
0,72,0,0
0,64,0,240
0,60,0,0
0,52,0,0
0,45,0,0
0,57,0,0
0,43,100,0
0,43,100,0
0,43,0,240
0,43,0,0
0,42,100,0
0,42,100,0
0,43,90,0
0,43,0,216
0,42,0,24
0,42,0,0
0,40,100,0
0,40,100,0
0,43,90,0
0,43,0,216
0,40,0,504
0,79,100,0
0,76,100,0
0,71,100,0
0,79,100,0
0,76,100,0
0,71,100,0
0,40,100,0
0,47,100,0
0,52,100,0
0,36,90,0
0,43,90,0
0,55,100,120
0,59,100,0
0,64,100,0
0,43,0,96
0,79,0,216
0,76,0,0
0,71,0,0
0,36,0,0
0,40,0,48
0,79,0,0
0,76,0,0
0,71,0,0
0,40,0,240
0,47,0,0
0,52,0,0
0,55,0,0
0,59,0,0
0,64,0,0
0,43,100,0
0,43,100,0
0,43,0,240
0,43,0,0
0,42,100,0
0,42,100,0
0,43,90,0
0,43,0,216
0,42,0,24
0,42,0,0
0,40,100,0
0,40,100,0
0,43,90,0
0,43,0,216
0,40,0,504
0,79,100,0
0,76,100,0
0,71,100,0
0,79,100,0
0,76,100,0
0,71,100,0
0,40,100,0
0,47,100,0
0,52,100,0
0,36,90,0
0,43,90,0
0,55,100,120
0,59,100,0
0,64,100,0
0,43,0,96
0,79,0,216
0,76,0,0
0,71,0,0
0,36,0,0
0,40,0,48
0,79,0,0
0,76,0,0
0,71,0,0
0,40,0,240
0,47,0,0
0,52,0,0
0,55,0,0
0,59,0,0
0,64,0,0
0,43,100,0
0,43,100,0
0,43,0,240
0,43,0,0
0,42,100,0
0,42,100,0
0,43,90,0
0,43,0,216
0,42,0,24
0,42,0,0
0,40,100,0
0,40,100,0
0,43,90,0
0,43,0,216
0,40,0,504
0,79,100,0
0,76,100,0
0,71,100,0
0,79,100,0
0,76,100,0
0,71,100,0
0,40,100,0
0,47,100,0
0,52,100,0
0,36,90,0
0,43,90,0
0,55,100,120
0,59,100,0
0,64,100,0
0,43,0,96
0,79,0,216
0,76,0,0
0,71,0,0
0,36,0,0
0,40,0,48
0,79,0,0
0,76,0,0
0,71,0,0
0,40,0,240
0,47,0,0
0,52,0,0
0,55,0,0
0,59,0,0
0,64,0,0
0,48,100,0
0,48,100,0
0,48,0,240
0,48,0,0
0,47,100,0
0,47,100,0
0,43,90,0
0,43,0,216
0,47,0,24
0,47,0,0
0,45,100,0
0,45,100,0
0,43,90,0
0,43,0,216
0,45,0,504
0,79,100,0
0,76,100,0
0,72,100,0
0,79,100,0
0,76,100,0
0,72,100,0
0,45,100,0
0,52,100,0
0,36,90,0
0,43,90,0
0,57,100,120
0,60,100,0
0,64,100,0
0,43,0,96
0,79,0,216
0,76,0,0
0,72,0,0
0,36,0,0
0,45,0,48
0,79,0,0
0,76,0,0
0,72,0,0
0,45,0,240
0,52,0,0
0,57,0,0
0,60,0,0
0,64,0,0
0,43,100,0
0,43,100,0
0,43,0,240
0,43,0,0
0,42,100,0
0,42,100,0
0,43,90,0
0,43,0,216
0,42,0,24
0,42,0,0
0,40,100,0
0,40,100,0
0,43,90,0
0,43,0,216
0,40,0,504
0,79,100,0
0,71,100,0
0,79,100,0
0,76,100,0
0,71,100,0
0,45,100,0
0,52,100,0
0,57,100,0
0,43,90,0
0,36,90,0
0,60,100,120
0,64,100,0
0,43,0,312
0,36,0,0
0,79,0,48
0,71,0,0
0,71,100,240
0,47,90,0
0,47,0,216
0,71,0,24
0,69,100,0
0,47,90,0
0,47,0,108
0,47,90,12
0,47,0,108
0,69,0,12
0,67,100,0
0,43,90,0
0,79,0,96
0,76,0,0
0,71,0,0
0,43,0,12
0,43,90,12
0,43,0,108
0,40,0,12
0,45,0,0
0,52,0,0
0,57,0,0
0,60,0,0
0,64,0,0
0,67,0,0
0,67,100,0
0,36,100,0
0,48,100,0
0,52,100,0
0,55,100,0
0,42,90,0
0,36,90,0
0,60,100,120
0,64,100,0
0,42,0,96
0,42,90,24
0,36,0,192
0,42,0,24
0,67,0,24
0,48,0,0
0,52,0,0
0,55,0,0
0,60,0,0
0,64,0,0
0,67,100,0
0,64,100,0
0,60,100,0
0,55,100,0
0,48,100,0
0,52,100,0
0,55,100,0
0,60,100,0
0,64,100,0
0,42,90,0
0,38,90,0
0,64,0,216
0,60,0,0
0,55,0,0
0,42,0,0
0,38,0,0
0,36,0,24
0,48,0,0
0,52,0,0
0,55,0,0
0,60,0,0
0,64,0,0
0,36,100,0
0,42,90,0
0,36,90,0
0,42,0,216
0,36,0,0
0,67,0,24
0,36,0,0
0,67,100,0
0,36,100,0
0,42,90,0
0,36,90,0
0,42,0,216
0,67,0,24
0,69,100,0
0,64,100,0
0,60,100,0
0,55,100,0
0,48,100,0
0,52,100,0
0,55,100,0
0,60,100,0
0,64,100,0
0,42,90,0
0,36,0,192
0,42,0,24
0,69,0,24
0,48,0,0
0,52,0,0
0,55,0,0
0,60,0,0
0,64,0,0
0,71,100,0
0,42,90,0
0,38,90,0
0,42,0,176
0,38,0,0
0,71,0,24
0,71,100,0
0,42,90,0
0,64,0,192
0,60,0,0
0,55,0,0
0,42,0,24
0,36,0,24
0,43,100,0
0,43,100,0
0,50,100,0
0,55,100,0
0,42,90,0
0,36,90,0
0,71,0,120
0,69,100,0
0,59,100,0
0,62,100,0
0,67,100,0
0,42,0,96
0,69,0,24
0,67,100,0
0,42,90,0
0,36,0,2
0,42,0,24
0,67,0,20
0,43,0,0
0,50,0,0
0,55,0,0
0,59,0,0
0,62,0,0
0,67,0,0
0,62,100,0
0,59,100,0
0,55,100,0
0,43,100,0
0,50,100,0
0,55,100,0
0,59,100,0
0,62,100,0
0,67,100,0
0,42,90,0
0,38,90,0
0,42,0,216
0,38,0,0
0,43,0,24
0,62,0,0
0,59,0,0
0,55,0,0
0,43,0,0
0,50,0,0
0,55,0,0
0,59,0,0
0,62,0,0
0,67,0,0
0,43,100,0
0,42,90,0
0,36,90,0
0,42,0,216
0,36,0,0
0,43,0,24
0,43,100,0
0,42,90,0
0,36,90,0
0,42,0,216
0,62,100,24
0,59,100,0
0,55,100,0
0,43,100,0
0,50,100,0
0,55,100,0
0,59,100,0
0,62,100,0
0,67,100,0
0,42,90,0
0,36,0,192
0,42,0,24
0,43,0,24
0,50,0,0
0,55,0,0
0,59,0,0
0,62,0,0
0,67,0,0
0,71,100,0
0,42,90,0
0,38,90,0
0,42,0,216
0,38,0,0
0,71,0,24
0,74,100,0
0,42,90,0
0,42,0,216
0,43,0,24
0,62,0,0
0,59,0,0
0,55,0,0
0,74,0,0
0,76,100,0
0,38,100,0
0,50,100,0
0,57,100,0
0,42,90,0
0,36,90,0
0,62,100,120
0,66,100,0
0,42,0,96
0,42,90,24
0,36,0,192
0,42,0,24
0,50,0,24
0,57,0,0
0,62,0,0
0,66,0,0
0,62,100,0
0,57,100,0
0,54,100,0
0,50,100,0
0,55,100,0
0,62,100,0
0,66,100,0
0,42,90,0
0,38,90,0
0,42,0,216
0,38,0,0
0,76,0,24
0,38,0,0
0,62,0,0
0,57,0,0
0,54,0,0
0,50,0,0
0,55,0,0
0,62,0,0
0,66,0,0
0,74,100,0
0,38,100,0
0,42,90,0
0,36,90,0
0,42,0,216
0,36,0,0
0,74,0,24
0,38,0,0
0,74,100,0
0,38,100,0
0,42,90,0
0,36,90,0
0,42,0,216
0,62,100,24
0,57,100,0
0,54,100,0
0,50,100,0
0,55,100,0
0,62,100,0
0,66,100,0
0,42,90,0
0,36,0,192
0,42,0,24
0,74,0,24
0,50,0,0
0,55,0,0
0,62,0,0
0,66,0,0
0,71,100,0
0,42,90,0
0,38,90,0
0,42,0,216
0,38,0,0
0,71,0,24
0,74,100,0
0,42,90,0
0,42,0,206
0,38,0,24
0,62,0,0
0,57,0,0
0,54,0,0
0,74,0,0
0,71,100,0
0,47,100,0
0,47,100,0
0,54,100,0
0,42,90,0
0,36,90,0
0,59,100,110
0,62,100,0
0,66,100,0
0,42,0,96
0,42,90,20
0,36,0,2
0,42,0,24
0,54,0,20
0,59,0,0
0,62,0,0
0,66,0,0
0,47,0,0
0,62,100,0
0,59,100,0
0,54,100,0
0,54,100,0
0,59,100,0
0,62,100,0
0,66,100,0
0,47,100,0
0,42,90,0
0,38,90,0
0,42,0,26
0,38,0,0
0,47,0,20
0,62,0,0
0,59,0,0
0,54,0,0
0,54,0,0
0,59,0,0
0,62,0,0
0,66,0,0
0,47,0,0
0,47,100,0
0,42,90,0
0,36,90,0
0,42,0,166
0,36,0,0
0,71,0,24
0,47,0,0
0,47,100,0
0,42,90,0
0,36,90,0
0,42,0,216
0,72,100,24
0,62,100,0
0,59,100,0
0,54,100,0
0,54,100,0
0,59,100,0
0,62,100,0
0,66,100,0
0,45,100,0
0,42,90,0
0,36,0,192
0,42,0,24
0,72,0,24
0,54,0,0
0,59,0,0
0,62,0,0
0,66,0,0
0,45,0,0
0,71,100,0
0,42,90,0
0,38,90,0
0,42,0,216
0,38,0,0
0,71,0,24
0,69,100,0
0,42,90,0
0,42,0,216
0,47,0,24
0,62,0,0
0,59,0,0
0,54,0,0
0,69,0,0
0,71,100,0
0,45,100,0
0,45,100,0
0,54,100,0
0,57,100,0
0,42,90,0
0,36,90,0
0,60,100,120
0,64,100,0
0,42,0,96
0,71,0,24
0,69,100,0
0,42,90,0
0,36,0,192
0,42,0,24
0,45,0,24
0,54,0,0
0,57,0,0
0,60,0,0
0,64,0,0
0,64,100,0
0,60,100,0
0,57,100,0
0,45,100,0
0,54,100,0
0,57,100,0
0,60,100,0
0,64,100,0
0,42,90,0
0,38,90,0
0,42,0,216
0,38,0,0
0,45,0,24
0,69,0,0
0,64,0,0
0,60,0,0
0,57,0,0
0,45,0,0
0,54,0,0
0,57,0,0
0,60,0,0
0,64,0,0
0,45,100,0
0,42,90,0
0,36,90,0
0,42,0,216
0,36,0,0
0,45,0,24
0,67,100,0
0,45,100,0
0,42,90,0
0,36,90,0
0,42,0,216
0,67,0,24
0,69,100,0
0,64,100,0
0,60,100,0
0,57,100,0
0,45,100,0
0,54,100,0
0,57,100,0
0,60,100,0
0,64,100,0
0,42,90,0
0,36,0,192
0,42,0,24
0,69,0,24
0,45,0,0
0,54,0,0
0,57,0,0
0,60,0,0
0,64,0,0
0,71,100,0
0,42,90,0
0,38,90,0
0,42,0,216
0,38,0,0
0,71,0,24
0,71,100,0
0,42,90,0
0,42,0,216
0,45,0,24
0,64,0,0
0,60,0,0
0,57,0,0
0,40,100,0
0,40,100,0
0,47,100,0
0,52,100,0
0,42,90,0
0,36,90,0
0,55,100,120
0,59,100,0
0,64,100,0
0,42,0,96
0,42,90,24
0,36,0,192
0,42,0,24
0,40,0,24
0,47,0,0
0,52,0,0
0,55,0,0
0,59,0,0
0,64,0,0
0,64,100,0
0,59,100,0
0,55,100,0
0,40,100,0
0,47,100,0
0,52,100,0
0,55,100,0
0,59,100,0
0,64,100,0
0,42,90,0
0,38,90,0
0,42,0,216
0,38,0,0
0,40,0,24
0,64,0,0
0,59,0,0
0,55,0,0
0,40,0,0
0,47,0,0
0,52,0,0
0,55,0,0
0,59,0,0
0,64,0,0
0,40,100,0
0,42,90,0
0,36,90,0
0,42,0,216
0,36,0,0
0,71,0,24
0,40,0,0
0,40,100,0
0,42,90,0
0,36,90,0
0,42,0,216
0,64,100,24
0,64,100,0
0,59,100,0
0,55,100,0
0,40,100,0
0,47,100,0
0,52,100,0
0,55,100,0
0,59,100,0
0,64,100,0
0,42,90,0
0,36,0,192
0,42,0,24
0,64,0,24
0,40,0,0
0,47,0,0
0,52,0,0
0,55,0,0
0,59,0,0
0,64,0,0
0,64,100,0
0,42,90,0
0,38,90,0
0,42,0,216
0,38,0,0
0,64,0,24
0,67,100,0
0,42,90,0
0,42,0,216
0,40,0,24
0,64,0,0
0,59,0,0
0,55,0,0
0,67,0,0
0,69,100,0
0,38,100,0
0,50,100,0
0,57,100,0
0,42,90,0
0,36,90,0
0,62,100,120
0,66,100,0
0,42,0,96
0,42,90,24
0,36,0,192
0,42,0,24
0,50,0,24
0,57,0,0
0,62,0,0
0,66,0,0
0,66,100,0
0,62,100,0
0,57,100,0
0,50,100,0
0,57,100,0
0,62,100,0
0,66,100,0
0,42,90,0
0,38,90,0
0,42,0,216
0,38,0,0
0,69,0,24
0,38,0,0
0,66,0,0
0,62,0,0
0,57,0,0
0,50,0,0
0,57,0,0
0,62,0,0
0,66,0,0
0,71,100,0
0,38,100,0
0,42,90,0
0,36,90,0
0,42,0,216
0,36,0,0
0,71,0,24
0,38,0,0
0,69,100,0
0,38,100,0
0,42,90,0
0,36,90,0
0,42,0,216
0,69,0,24
0,67,100,0
0,66,100,0
0,62,100,0
0,57,100,0
0,50,100,0
0,57,100,0
0,62,100,0
0,66,100,0
0,42,90,0
0,36,0,192
0,42,0,24
0,50,0,24
0,57,0,0
0,62,0,0
0,66,0,0
0,42,90,0
0,38,90,0
0,42,0,216
0,38,0,0
0,67,0,24
0,67,100,0
0,42,90,0
0,42,0,196
0,38,0,24
0,66,0,0
0,62,0,0
0,57,0,0
0,67,0,0
0,64,100,0
0,40,100,0
0,71,100,0
0,42,90,0
0,36,90,0
0,42,0,216
0,71,0,24
0,72,100,0
0,42,90,0
0,36,0,172
0,42,0,24
0,72,0,24
0,64,100,0
0,59,100,0
0,55,100,0
0,71,100,0
0,42,90,0
0,38,90,0
0,71,0,80
0,72,100,0
0,72,0,80
0,71,100,0
0,42,0,56
0,38,0,0
0,40,0,24
0,64,0,0
0,59,0,0
0,55,0,0
0,71,0,0
0,40,100,0
0,69,100,0
0,42,90,0
0,36,90,0
0,42,0,166
0,36,0,0
0,64,0,24
0,40,0,0
0,69,0,0
0,40,100,0
0,71,100,0
0,42,90,0
0,36,90,0
0,42,0,216
0,71,100,24
0,64,100,0
0,59,100,0
0,55,100,0
0,42,90,0
0,36,0,192
0,42,0,24
0,71,0,24
0,69,100,0
0,42,90,0
0,38,90,0
0,42,0,216
0,38,0,0
0,40,0,24
0,69,0,0
0,67,100,0
0,38,100,0
