track,note,velocity,time
1,40,90,3072
1,47,80,0
1,47,62,58
1,40,57,0
1,40,64,78
1,47,61,0
1,40,61,90
1,47,60,0
1,40,62,72
1,47,64,0
1,40,62,88
1,47,58,0
1,40,64,72
1,47,64,0
1,47,61,78
1,40,62,0
1,47,79,62
1,40,91,0
1,47,61,48
1,40,61,0
1,47,64,62
1,40,62,0
1,40,71,78
1,47,69,0
1,47,63,58
1,40,60,0
1,40,62,72
1,47,62,0
1,40,61,64
1,47,57,0
1,47,64,58
1,40,62,0
1,49,92,78
1,56,80,0
1,49,62,46
1,56,60,0
1,56,62,64
1,49,59,0
1,49,63,72
1,56,59,0
1,56,61,56
1,49,62,0
1,49,60,48
1,56,63,0
1,56,62,58
1,49,61,0
1,56,60,58
1,49,62,0
1,56,78,78
1,49,91,0
1,56,64,58
1,49,61,0
1,49,60,72
1,56,64,0
1,49,62,64
1,56,59,0
1,56,61,72
1,49,61,0
1,49,58,64
1,56,63,0
1,49,62,72
1,56,58,0
1,49,62,72
1,56,60,0
1,52,81,62
1,45,91,0
1,52,62,46
1,52,62,72
1,45,67,0
1,52,62,58
1,45,71,0
1,52,62,48
1,45,61,0
1,52,60,58
1,45,62,0
1,52,65,58
1,45,63,0
1,52,59,58
1,45,62,0
1,45,92,48
1,54,79,0
1,45,62,72
1,54,59,0
1,45,62,64
1,54,62,0
1,45,58,48
1,54,61,0
1,45,64,40
1,54,60,0
1,54,61,62
1,45,59,0
1,45,61,42
1,54,58,0
1,54,60,56
1,45,62,0
1,45,93,48
1,52,80,0
1,45,63,56
1,52,65,0
1,52,60,58
1,45,61,0
1,52,61,72
1,45,62,0
1,45,63,42
1,52,61,0
1,45,62,58
1,52,60,0
1,45,59,48
1,52,62,0
1,52,61,46
1,45,62,0
1,45,93,58
1,54,81,0
1,45,62,58
1,54,58,0
1,45,61,64
1,54,62,0
1,54,58,56
1,45,62,0
1,45,62,56
1,54,58,0
1,45,60,58
1,54,61,0
1,45,62,58
1,54,62,0
1,45,59,62
1,54,62,0
1,40,100,58
1,47,90,0
1,47,72,58
1,40,67,0
1,40,74,78
1,47,71,0
1,40,71,90
1,47,70,0
1,40,72,72
1,47,74,0
1,40,72,88
1,47,68,0
1,40,74,72
1,47,74,0
1,47,71,78
1,40,72,0
1,47,89,62
1,40,101,0
1,47,71,48
1,40,71,0
1,47,74,62
1,40,72,0
1,40,81,78
1,47,79,0
1,47,73,58
1,40,70,0
1,40,72,72
1,47,72,0
1,40,71,64
1,47,67,0
1,47,74,58
1,40,72,0
1,49,102,78
1,56,90,0
1,49,72,46
1,56,70,0
1,56,72,64
1,49,69,0
1,49,73,72
1,56,69,0
1,56,71,56
1,49,72,0
1,49,70,48
1,56,73,0
1,56,72,58
1,49,71,0
1,56,70,58
1,49,72,0
1,56,88,78
1,49,101,0
1,56,74,58
1,49,71,0
1,49,70,72
1,56,74,0
1,49,72,64
1,56,69,0
1,56,71,72
1,49,71,0
1,49,68,64
1,56,73,0
1,49,72,72
1,56,68,0
1,49,72,72
1,56,70,0
1,52,91,62
1,45,101,0
1,52,72,46
1,52,72,72
1,45,77,0
1,52,72,58
1,45,81,0
1,52,72,48
1,45,71,0
1,52,70,58
1,45,72,0
1,52,75,58
1,45,73,0
1,52,69,58
1,45,72,0
1,45,102,48
1,54,89,0
1,45,72,72
1,54,69,0
1,45,72,64
1,54,72,0
1,45,68,48
1,54,71,0
1,45,74,40
1,54,70,0
1,54,71,62
1,45,69,0
1,45,71,42
1,54,68,0
1,54,70,56
1,45,72,0
1,45,103,48
1,52,90,0
1,45,73,56
1,52,75,0
1,52,70,58
1,45,71,0
1,52,71,72
1,45,72,0
1,45,73,42
1,52,71,0
1,45,72,58
1,52,70,0
1,45,69,48
1,52,72,0
1,52,71,46
1,45,72,0
1,45,103,58
1,54,91,0
1,45,72,58
1,54,68,0
1,45,71,64
1,54,72,0
1,54,68,56
1,45,72,0
1,45,72,56
1,54,68,0
1,45,70,58
1,54,71,0
1,45,72,58
1,54,72,0
1,45,69,62
1,54,72,0
1,40,100,58
1,47,90,0
1,47,72,58
1,40,67,0
1,40,74,78
1,47,71,0
1,40,71,90
1,47,70,0
1,40,72,72
1,47,74,0
1,40,72,88
1,47,68,0
1,40,74,72
1,47,74,0
1,47,71,78
1,40,72,0
1,47,89,62
1,40,101,0
1,47,71,48
1,40,71,0
1,47,74,62
1,40,72,0
1,40,81,78
1,47,79,0
1,47,73,58
1,40,70,0
1,40,72,72
1,47,72,0
1,40,71,64
1,47,67,0
1,47,74,58
1,40,72,0
1,49,102,78
1,56,90,0
1,49,72,46
1,56,70,0
1,56,72,64
1,49,69,0
1,49,73,72
1,56,69,0
1,56,71,56
1,49,72,0
1,49,70,48
1,56,73,0
1,56,72,58
1,49,71,0
1,56,70,58
1,49,72,0
1,56,88,78
1,49,101,0
1,56,74,58
1,49,71,0
1,49,70,72
1,56,74,0
1,49,72,64
1,56,69,0
1,56,71,72
1,49,71,0
1,49,68,64
1,56,73,0
1,49,72,72
1,56,68,0
1,49,72,72
1,56,70,0
1,52,91,62
1,45,101,0
1,52,72,46
1,52,72,72
1,45,77,0
1,52,72,58
1,45,81,0
1,52,72,48
1,45,71,0
1,52,70,58
1,45,72,0
1,52,75,58
1,45,73,0
1,52,69,58
1,45,72,0
1,45,102,48
1,54,89,0
1,45,72,72
1,54,69,0
1,45,72,64
1,54,72,0
1,45,68,48
1,54,71,0
1,45,74,40
1,54,70,0
1,54,71,62
1,45,69,0
1,45,71,42
1,54,68,0
1,54,70,56
1,45,72,0
1,45,103,48
1,52,90,0
1,45,73,56
1,52,75,0
1,52,70,58
1,45,71,0
1,52,71,72
1,45,72,0
1,45,73,42
1,52,71,0
1,45,72,58
1,52,70,0
1,45,69,48
1,52,72,0
1,52,71,46
1,45,72,0
1,45,103,58
1,54,91,0
1,45,72,58
1,54,68,0
1,45,71,64
1,54,72,0
1,54,68,56
1,45,72,0
1,45,72,56
1,54,68,0
1,45,70,58
1,54,71,0
1,45,72,58
1,54,72,0
1,45,69,62
1,54,72,0
1,40,100,58
1,47,90,0
1,47,72,58
1,40,67,0
1,40,74,78
1,47,71,0
1,40,71,90
1,47,70,0
1,40,72,72
1,47,74,0
1,40,72,88
1,47,68,0
1,40,74,72
1,47,74,0
1,47,71,78
1,40,72,0
1,47,89,62
1,40,101,0
1,47,71,48
1,40,71,0
1,47,74,62
1,40,72,0
1,40,81,78
1,47,79,0
1,47,73,58
1,40,70,0
1,40,72,72
1,47,72,0
1,40,71,64
1,47,67,0
1,47,74,58
1,40,72,0
1,49,102,78
1,56,90,0
1,49,72,46
1,56,70,0
1,56,72,64
1,49,69,0
1,49,73,72
1,56,69,0
1,56,71,56
1,49,72,0
1,49,70,48
1,56,73,0
1,56,72,58
1,49,71,0
1,56,70,58
1,49,72,0
1,56,88,78
1,49,101,0
1,56,74,58
1,49,71,0
1,49,70,72
1,56,74,0
1,49,72,64
1,56,69,0
1,56,71,72
1,49,71,0
1,49,68,64
1,56,73,0
1,49,72,72
1,56,68,0
1,49,72,72
1,56,70,0
1,52,91,62
1,45,101,0
1,52,72,46
1,52,72,72
1,45,77,0
1,52,72,58
1,45,81,0
1,52,72,48
1,45,71,0
1,52,70,58
1,45,72,0
1,52,75,58
1,45,73,0
1,52,69,58
1,45,72,0
1,45,102,48
1,54,89,0
1,45,72,72
1,54,69,0
1,45,72,64
1,54,72,0
1,45,68,48
1,54,71,0
1,45,74,40
1,54,70,0
1,54,71,62
1,45,69,0
1,45,71,42
1,54,68,0
1,54,70,56
1,45,72,0
1,45,103,48
1,52,90,0
1,45,73,56
1,52,75,0
1,52,70,58
1,45,71,0
1,52,71,72
1,45,72,0
1,45,73,42
1,52,71,0
1,45,72,58
1,52,70,0
1,45,69,48
1,52,72,0
1,52,71,46
1,45,72,0
1,45,103,58
1,54,91,0
1,45,72,58
1,54,68,0
1,45,71,64
1,54,72,0
1,54,68,56
1,45,72,0
1,45,72,56
1,54,68,0
1,45,70,58
1,54,71,0
1,45,72,58
1,54,72,0
1,45,69,62
1,54,72,0
1,52,91,58
1,45,101,0
1,52,72,46
1,52,72,72
1,45,77,0
1,52,72,58
1,45,81,0
1,52,72,48
1,45,71,0
1,52,70,58
1,45,72,0
1,52,75,58
1,45,73,0
1,52,69,58
1,45,72,0
1,45,102,48
1,54,89,0
1,45,72,72
1,54,69,0
1,45,72,64
1,54,72,0
1,45,68,48
1,54,71,0
1,45,74,40
1,54,70,0
1,54,71,62
1,45,69,0
1,45,71,42
1,54,68,0
1,54,70,56
1,45,72,0
1,45,103,48
1,52,90,0
1,45,73,56
1,52,75,0
1,52,70,58
1,45,71,0
1,52,71,72
1,45,72,0
1,45,73,42
1,52,71,0
1,45,72,58
1,52,70,0
1,45,69,48
1,52,72,0
1,52,71,46
1,45,72,0
1,47,58,58
1,54,58,0
1,47,63,58
1,54,63,0
1,47,68,64
1,54,68,0
1,54,74,56
1,47,74,0
1,47,79,56
1,54,79,0
1,47,84,58
1,54,84,0
1,47,90,58
1,54,90,0
1,47,95,62
1,54,95,0
1,40,100,58
1,47,90,0
1,47,72,58
1,40,67,0
1,40,74,78
1,47,71,0
1,40,71,90
1,47,70,0
1,40,72,72
1,47,74,0
1,40,72,88
1,47,68,0
1,40,74,72
1,47,74,0
1,47,71,78
1,40,72,0
1,47,89,62
1,40,101,0
1,47,71,48
1,40,71,0
1,47,74,62
1,40,72,0
1,40,81,78
1,47,79,0
1,47,73,58
1,40,70,0
1,40,72,72
1,47,72,0
1,40,71,64
1,47,67,0
1,47,74,58
1,40,72,0
1,49,102,78
1,56,90,0
1,49,72,46
1,56,70,0
1,56,72,64
1,49,69,0
1,49,73,72
1,56,69,0
1,56,71,56
1,49,72,0
1,49,70,48
1,56,73,0
1,56,72,58
1,49,71,0
1,56,70,58
1,49,72,0
1,56,88,78
1,49,101,0
1,56,74,58
1,49,71,0
1,49,70,72
1,56,74,0
1,49,72,64
1,56,69,0
1,56,71,72
1,49,71,0
1,49,68,64
1,56,73,0
1,49,72,72
1,56,68,0
1,49,72,72
1,56,70,0
1,52,91,62
1,45,101,0
1,52,72,46
1,52,72,72
1,45,77,0
1,52,72,58
1,45,81,0
1,52,72,48
1,45,71,0
1,52,70,58
1,45,72,0
1,52,75,58
1,45,73,0
1,52,69,58
1,45,72,0
1,45,102,48
1,54,89,0
1,45,72,72
1,54,69,0
1,45,72,64
1,54,72,0
1,45,68,48
1,54,71,0
1,45,74,40
1,54,70,0
1,54,71,62
1,45,69,0
1,45,71,42
1,54,68,0
1,54,70,56
1,45,72,0
1,45,103,48
1,52,90,0
1,45,73,56
1,52,75,0
1,52,70,58
1,45,71,0
1,52,71,72
1,45,72,0
1,45,73,42
1,52,71,0
1,45,72,58
1,52,70,0
1,45,69,48
1,52,72,0
1,52,71,46
1,45,72,0
1,47,97,58
1,54,92,0
1,47,72,58
1,54,75,0
1,47,72,64
1,54,74,0
1,54,70,56
1,47,75,0
1,47,72,56
1,54,71,0
1,47,72,58
1,54,74,0
1,47,74,58
1,54,78,0
1,47,79,62
1,54,77,0
1,40,100,58
1,47,90,0
1,47,72,58
1,40,67,0
1,40,74,78
1,47,71,0
1,40,71,90
1,47,70,0
1,40,72,72
1,47,74,0
1,40,72,88
1,47,68,0
1,40,74,72
1,47,74,0
1,47,71,78
1,40,72,0
1,47,89,62
1,40,101,0
1,47,71,48
1,40,71,0
1,47,74,62
1,40,72,0
1,40,81,78
1,47,79,0
1,47,73,58
1,40,70,0
1,40,72,72
1,47,72,0
1,40,71,64
1,47,67,0
1,47,74,58
1,40,72,0
1,49,102,78
1,56,90,0
1,49,72,46
1,56,70,0
1,56,72,64
1,49,69,0
1,49,73,72
1,56,69,0
1,56,71,56
1,49,72,0
1,49,70,48
1,56,73,0
1,56,72,58
1,49,71,0
1,56,70,58
1,49,72,0
1,56,88,78
1,49,101,0
1,56,74,58
1,49,71,0
1,49,70,72
1,56,74,0
1,49,72,64
1,56,69,0
1,56,71,72
1,49,71,0
1,49,68,64
1,56,73,0
1,49,72,72
1,56,68,0
1,49,72,72
1,56,70,0
1,52,91,62
1,45,101,0
1,52,72,46
1,52,72,72
1,45,77,0
1,52,72,58
1,45,81,0
1,52,72,48
1,45,71,0
1,52,70,58
1,45,72,0
1,52,75,58
1,45,73,0
1,52,69,58
1,45,72,0
1,45,102,48
1,54,89,0
1,45,72,72
1,54,69,0
1,45,72,64
1,54,72,0
1,45,68,48
1,54,71,0
1,45,74,40
1,54,70,0
1,54,71,62
1,45,69,0
1,45,71,42
1,54,68,0
1,54,70,56
1,45,72,0
1,45,103,48
1,52,90,0
1,45,73,56
1,52,75,0
1,52,70,58
1,45,71,0
1,52,71,72
1,45,72,0
1,45,73,42
1,52,71,0
1,45,72,58
1,52,70,0
1,45,69,48
1,52,72,0
1,52,71,46
1,45,72,0
1,47,97,58
1,54,92,0
1,47,72,58
1,54,75,0
1,47,72,64
1,54,74,0
1,54,70,56
1,47,75,0
1,47,72,56
1,54,71,0
1,47,72,58
1,54,74,0
1,47,74,58
1,54,78,0
1,47,79,62
1,54,77,0
1,40,100,58
1,47,90,0
1,47,72,58
1,40,67,0
1,40,74,78
1,47,71,0
1,40,71,90
1,47,70,0
1,40,72,72
1,47,74,0
1,40,72,88
1,47,68,0
1,40,74,72
1,47,74,0
1,47,71,78
1,40,72,0
1,47,89,62
1,40,101,0
1,47,71,48
1,40,71,0
1,47,74,62
1,40,72,0
1,40,81,78
1,47,79,0
1,47,73,58
1,40,70,0
1,40,72,72
1,47,72,0
1,40,71,64
1,47,67,0
1,47,74,58
1,40,72,0
1,49,102,78
1,56,90,0
1,49,72,46
1,56,70,0
1,56,72,64
1,49,69,0
1,49,73,72
1,56,69,0
1,56,71,56
1,49,72,0
1,49,70,48
1,56,73,0
1,56,72,58
1,49,71,0
1,56,70,58
1,49,72,0
1,56,88,78
1,49,101,0
1,56,74,58
1,49,71,0
1,49,70,72
1,56,74,0
1,49,72,64
1,56,69,0
1,56,71,72
1,49,71,0
1,49,68,64
1,56,73,0
1,49,72,72
1,56,68,0
1,49,72,72
1,56,70,0
1,52,91,62
1,45,101,0
1,52,72,46
1,52,72,72
1,45,77,0
1,52,72,58
1,45,81,0
1,52,72,48
1,45,71,0
1,52,70,58
1,45,72,0
1,52,75,58
1,45,73,0
1,52,69,58
1,45,72,0
1,45,102,48
1,54,89,0
1,45,72,72
1,54,69,0
1,45,72,64
1,54,72,0
1,45,68,48
1,54,71,0
1,45,74,40
1,54,70,0
1,54,71,62
1,45,69,0
1,45,71,42
1,54,68,0
1,54,70,56
1,45,72,0
1,45,103,48
1,52,90,0
1,45,73,56
1,52,75,0
1,52,70,58
1,45,71,0
1,52,71,72
1,45,72,0
1,45,73,42
1,52,71,0
1,45,72,58
1,52,70,0
1,45,69,48
1,52,72,0
1,52,71,46
1,45,72,0
1,45,103,58
1,54,91,0
1,45,72,58
1,54,68,0
1,45,71,64
1,54,72,0
1,54,68,56
1,45,72,0
1,45,72,56
1,54,68,0
1,45,70,58
1,54,71,0
1,45,72,58
1,54,72,0
1,45,69,62
1,54,72,0
1,40,100,58
1,47,90,0
1,47,72,58
1,40,67,0
1,40,74,78
1,47,71,0
1,40,71,90
1,47,70,0
1,40,72,72
1,47,74,0
1,40,72,88
1,47,68,0
1,40,74,72
1,47,74,0
1,47,71,78
1,40,72,0
1,47,89,62
1,40,101,0
1,47,71,48
1,40,71,0
1,47,74,62
1,40,72,0
1,40,81,78
1,47,79,0
1,47,73,58
1,40,70,0
1,40,72,72
1,47,72,0
1,40,71,64
1,47,67,0
1,47,74,58
1,40,72,0
1,49,102,78
1,56,90,0
1,49,72,46
1,56,70,0
1,56,72,64
1,49,69,0
1,49,73,72
1,56,69,0
1,56,71,56
1,49,72,0
1,49,70,48
1,56,73,0
1,56,72,58
1,49,71,0
1,56,70,58
1,49,72,0
