track,note,velocity,time
1,38,93,3322
1,38,93,72
1,38,93,180
1,38,93,70
1,38,93,150
1,38,93,64
1,38,93,156
1,31,93,64
1,26,93,220
1,31,93,44
1,31,93,162
1,36,93,128
1,36,94,172
1,38,94,8
1,38,94,164
1,36,94,128
1,36,94,252
1,38,94,52
1,31,95,198
1,36,93,74
1,36,93,72
1,35,93,160
1,33,93,72
1,31,93,70
1,26,93,200
1,31,93,56
1,31,93,262
1,36,93,18
1,36,93,220
1,38,93,14
1,38,93,228
1,36,93,44
1,36,93,184
1,38,93,60
1,31,93,72
1,36,93,60
1,36,94,72
1,35,94,72
1,33,94,108
1,31,94,94
1,31,94,156
1,31,94,144
1,31,94,142
1,36,94,128
1,36,94,166
1,36,94,148
1,38,94,152
1,31,94,144
1,31,94,190
1,31,94,152
1,31,94,164
1,36,94,188
1,36,94,184
1,36,94,174
1,36,95,156
1,36,53,72
1,38,95,30
1,31,95,72
1,31,95,144
1,31,95,38
1,28,95,80
1,28,95,92
1,33,95,12
1,35,95,68
1,36,95,32
1,37,95,104
1,38,95,42
1,40,95,46
1,41,95,54
1,42,95,110
1,43,95,30
1,38,95,200
1,37,95,92
1,36,95,82
1,35,95,108
1,26,95,48
1,26,95,68
1,26,95,162
1,26,95,74
1,26,95,146
1,26,95,62
1,26,95,158
1,31,93,70
1,26,93,220
1,31,93,44
1,31,93,162
1,36,93,128
1,36,94,172
1,38,94,8
1,38,94,164
1,36,94,128
1,36,94,252
1,38,94,52
1,31,95,198
1,36,93,74
1,36,93,72
1,35,93,160
1,33,93,72
1,31,93,70
1,26,93,200
1,31,93,56
1,31,93,262
1,36,93,18
1,36,93,220
1,38,93,14
1,38,93,228
1,36,93,44
1,36,93,184
1,38,93,60
1,31,93,72
1,36,93,60
1,36,94,72
1,35,94,72
1,33,94,108
1,31,94,94
1,31,94,156
1,31,94,144
1,31,94,142
1,36,94,128
1,36,94,166
1,36,94,148
1,38,94,152
1,31,94,144
1,31,94,190
1,31,94,152
1,31,94,164
1,36,94,188
1,36,94,184
1,36,94,174
1,36,95,156
1,36,53,72
1,38,95,30
1,31,95,72
1,31,95,144
1,31,95,38
1,28,95,80
1,28,95,92
1,33,95,12
1,35,95,68
1,36,95,32
1,37,95,104
1,38,95,42
1,40,95,46
1,41,95,54
1,42,95,110
1,43,95,30
1,38,95,200
1,37,95,92
1,36,95,82
1,35,95,108
1,26,95,48
1,26,95,68
1,26,95,162
1,26,95,74
1,26,95,146
1,26,95,62
1,26,95,158
1,31,93,70
1,26,93,220
1,31,93,44
1,31,93,162
1,36,93,128
1,36,94,172
1,38,94,8
1,38,94,164
1,36,94,128
1,36,94,252
1,38,94,52
1,31,95,198
1,36,93,74
1,36,93,72
1,35,93,160
1,33,93,72
1,31,93,70
1,26,93,200
1,31,93,56
1,31,93,262
1,36,93,18
1,36,93,220
1,38,93,14
1,38,93,228
1,36,93,44
1,36,93,184
1,38,93,60
1,31,93,72
1,36,93,60
1,36,94,72
1,35,94,72
1,33,94,108
1,31,94,94
1,31,94,156
1,31,94,144
1,31,94,142
1,36,94,128
1,36,94,166
1,36,94,148
1,38,94,152
1,31,94,144
1,31,94,190
1,31,94,152
1,31,94,164
1,36,94,188
1,36,94,184
1,36,94,174
1,36,95,156
1,36,53,72
1,38,95,30
1,31,95,72
1,31,95,144
1,31,95,38
1,28,95,80
1,28,95,92
1,33,95,12
1,35,95,68
1,36,95,32
1,37,95,104
1,38,95,42
1,40,95,46
1,41,95,54
1,42,95,110
1,43,95,30
1,38,95,200
1,37,95,92
1,36,95,82
1,35,95,108
1,26,95,48
1,26,95,68
1,26,95,162
1,26,95,74
1,26,95,146
1,26,95,62
1,26,95,158
1,31,93,70
1,36,93,530
1,34,93,518
1,33,93,82
1,31,93,78
1,26,93,80
1,28,93,50
1,29,93,112
1,31,93,46
1,36,93,510
1,34,93,494
1,33,93,74
1,31,93,100
1,31,93,72
1,30,93,2
1,29,93,88
1,28,93,48
1,28,93,102
1,28,93,150
1,28,94,146
1,33,94,146
1,33,94,150
1,33,94,132
1,33,94,150
1,38,94,136
1,38,94,172
1,38,94,152
1,38,94,146
1,31,94,142
1,31,94,154
1,31,94,154
1,31,94,90
1,30,94,36
1,29,94,74
1,28,94,52
1,28,94,152
1,28,94,150
1,28,94,156
1,33,94,154
1,33,94,174
1,33,94,148
1,33,94,140
1,38,95,160
1,38,95,152
1,38,95,150
1,38,95,150
1,31,95,198
1,36,95,512
1,38,95,444
1,34,95,90
1,31,95,46
1,31,95,280
1,36,95,512
1,38,95,444
1,34,95,90
1,31,95,46
1,28,95,72
1,29,95,26
1,30,95,126
1,31,93,40
1,31,93,136
1,31,93,136
1,31,93,136
1,36,93,136
1,36,93,136
1,38,93,136
1,38,93,136
1,36,93,136
1,36,93,136
1,38,93,136
1,38,93,136
1,31,93,8
1,36,93,74
1,36,93,72
1,35,93,160
1,33,93,72
1,31,93,70
1,31,93,136
1,31,93,136
1,31,93,136
1,36,93,136
1,36,93,136
1,38,93,136
1,38,93,136
1,36,93,136
1,36,93,136
1,38,93,136
1,38,93,136
1,38,93,136
1,34,93,106
1,31,93,200
1,31,61,8
1,31,60,8
1,31,60,8
1,31,59,8
1,31,58,8
1,31,58,8
1,31,57,8
1,31,57,8
1,31,56,8
1,31,56,8
1,31,55,8
1,31,55,8
1,31,54,8
1,31,54,8
1,31,53,8
1,31,53,8
1,31,52,8
1,31,51,8
1,31,51,8
1,31,50,8
1,31,50,8
1,31,49,8
1,31,49,8
1,31,48,8
1,31,48,8
1,31,47,8
1,31,47,8
1,31,46,8
1,31,46,8
1,31,45,8
1,31,44,8
1,31,44,8
1,31,43,8
1,31,43,8
1,31,42,8
1,31,42,8
1,31,41,8
1,31,41,8
1,31,40,8
1,31,40,8
1,31,39,8
1,31,39,8
1,31,38,8
1,31,37,8
1,31,37,8
1,31,36,8
1,31,36,8
1,31,35,8
1,31,35,8
1,31,34,8
1,31,34,8
1,31,33,8
1,31,33,8
1,31,32,8
1,31,32,8
1,31,31,8
1,31,31,8
1,31,30,8
1,31,29,8
1,31,29,8
1,25,93,1352
1,26,93,50
1,27,93,192
1,28,93,16
1,29,93,192
1,31,93,8
1,31,93,198
1,31,93,60
1,38,93,72
1,39,93,128
1,38,93,72
1,38,93,72
1,39,93,8
1,39,93,110
1,38,93,8
1,34,93,1238
1,33,93,8
1,32,93,30
1,31,93,4
1,31,34,2
1,31,34,14
1,31,34,8
1,31,34,8
1,31,34,8
1,31,33,8
1,31,33,8
1,31,33,8
1,31,33,8
1,31,32,8
1,31,32,8
1,31,32,8
1,31,32,8
1,43,36,0
1,31,32,8
1,31,31,8
1,31,31,8
1,43,45,4
1,31,31,2
1,31,31,8
1,43,40,2
1,31,30,8
1,43,58,6
1,31,30,2
1,31,30,8
1,43,34,0
1,31,30,8
1,43,67,0
1,31,30,8
1,31,29,8
1,43,28,2
1,31,29,6
1,31,29,8
1,43,76,0
1,31,29,6
1,43,53,2
1,31,28,2
1,31,28,8
1,43,76,6
1,31,28,2
1,43,58,6
1,31,28,2
1,31,28,8
1,43,82,2
1,31,27,6
1,31,27,8
1,43,63,4
1,31,27,6
1,43,82,6
1,31,27,2
1,31,26,8
1,43,62,4
1,31,26,4
1,31,26,8
1,43,87,0
1,31,26,6
1,43,67,2
1,31,26,6
1,31,25,8
1,43,87,4
1,31,25,0
1,31,25,8
1,43,62,0
1,31,25,8
1,43,82,0
1,31,25,8
1,31,24,8
1,43,64,0
1,31,24,8
1,43,82,6
1,31,24,2
1,31,24,6
1,43,61,0
1,31,23,0
1,31,23,8
1,43,63,2
1,31,23,6
1,31,23,8
1,31,23,8
1,31,22,8
1,43,67,2
1,31,22,6
1,43,58,0
1,31,22,8
1,31,22,8
1,31,21,8
1,43,82,4
1,31,21,2
1,31,21,8
1,31,21,8
1,43,73,4
1,31,21,8
1,31,20,6
1,43,67,2
1,31,20,6
1,31,20,4
1,31,20,8
1,43,82,6
1,31,19,2
1,31,19,2
1,31,19,8
1,43,67,6
1,31,19,8
1,31,19,4
1,43,67,2
1,31,18,6
1,31,18,8
1,31,18,8
1,43,62,0
1,31,18,8
1,31,17,8
1,43,47,4
1,31,17,8
1,31,17,8
1,43,58,6
1,31,17,8
1,31,17,8
1,31,16,8
1,31,16,8
1,31,16,8
1,43,63,6
1,31,16,2
1,31,15,8
1,31,15,2
1,43,17,6
1,31,15,2
1,31,15,8
1,31,15,8
1,31,14,8
1,43,56,0
1,31,14,8
1,31,14,0
1,31,14,8
1,31,14,8
1,43,50,2
1,31,13,8
1,31,13,2
1,31,13,8
1,31,13,8
1,43,45,0
1,31,12,8
1,31,12,8
1,31,12,8
1,31,12,8
1,43,64,6
1,31,12,8
1,31,11,8
1,31,11,8
1,31,11,8
1,31,11,8
1,31,10,8
1,31,10,0
1,31,10,8
1,43,45,2
1,31,10,6
1,31,10,8
1,31,9,8
1,31,9,8
1,31,9,8
1,31,9,8
1,31,8,8
1,31,8,4
1,31,58,8
2,57,69,1632
3,71,104,4476
3,74,104,54
3,71,104,128
3,62,104,104
3,62,104,384
3,64,104,8
3,67,104,66
3,69,104,28
3,67,104,114
3,70,104,46
3,69,104,84
3,62,104,138
3,64,104,46
3,67,104,104
3,69,104,48
3,67,104,112
3,70,104,40
3,69,104,70
3,67,104,8
3,64,104,36
3,67,104,46
3,67,104,100
3,64,104,98
3,62,104,8
3,71,104,378
3,74,104,108
3,71,104,8
3,62,104,126
3,62,104,444
3,64,104,10
3,67,104,66
3,69,104,32
3,67,104,114
3,70,104,30
3,69,104,74
3,62,104,158
3,64,104,30
3,67,104,100
3,69,104,30
3,67,104,104
3,70,104,38
3,69,104,82
3,67,104,16
3,64,104,42
3,67,104,48
3,67,104,106
3,67,104,148
3,62,104,72
3,64,104,2
3,62,104,6
3,71,104,22
3,71,104,86
3,70,104,140
3,72,104,638
3,72,104,168
3,72,104,156
3,67,104,76
3,69,104,52
3,71,104,76
3,67,104,1234
3,72,104,218
3,72,104,6
3,72,104,82
3,67,104,426
3,69,104,54
3,71,104,82
3,69,104,96
3,71,104,66
3,68,104,78
3,64,104,308
3,69,104,36
3,71,104,90
3,72,104,52
3,73,104,114
3,74,104,52
3,70,104,54
3,69,104,72
3,67,104,8
3,71,104,2922
3,74,104,58
3,71,104,8
3,62,104,82
3,62,104,404
3,64,104,48
3,67,104,58
3,69,104,50
3,67,104,88
3,70,104,28
3,69,104,64
3,62,104,114
3,64,104,48
3,67,104,82
3,69,104,44
3,67,104,108
3,70,104,42
3,69,104,80
3,67,104,8
3,64,104,10
3,67,104,54
3,67,104,82
3,64,104,64
3,62,104,90
3,71,104,282
3,74,104,96
3,71,104,8
3,62,104,70
3,62,104,322
3,64,104,10
3,67,104,48
3,69,104,28
3,67,104,94
3,70,104,44
3,69,104,52
3,62,104,120
3,64,104,44
3,67,104,98
3,69,104,48
3,67,104,98
3,70,104,74
3,69,104,84
3,67,104,26
3,64,104,32
3,67,104,56
3,67,104,98
3,67,104,112
3,62,104,342
3,71,104,60
3,71,104,64
3,71,104,192
3,67,104,470
3,72,104,62
3,72,104,132
3,72,104,140
3,67,104,100
3,69,104,64
3,67,104,32
3,71,104,52
3,67,104,1332
3,72,104,38
3,72,104,196
3,72,104,178
3,67,104,100
3,69,104,54
3,70,104,96
3,71,104,58
3,70,104,100
3,71,104,32
3,68,104,142
3,64,104,224
3,69,104,22
3,71,104,104
3,72,104,40
3,73,104,104
3,74,104,58
3,69,104,58
3,69,104,36
3,69,104,102
3,67,104,36
3,71,104,27442
3,74,104,2
3,71,104,128
3,62,104,26
3,62,104,44
3,64,104,58
3,67,104,46
3,64,104,46
3,67,104,26
3,64,104,70
3,67,104,22
3,69,104,36
3,70,104,48
3,69,104,140
3,67,104,144
3,71,104,378
3,74,104,2
3,71,104,128
3,62,104,26
3,62,104,44
3,64,104,58
3,67,104,46
3,64,104,46
3,67,104,26
3,64,104,70
3,67,104,22
3,69,104,36
3,70,104,48
3,69,104,72
3,67,104,144
3,71,104,634
3,71,104,68
3,69,104,88
3,71,104,14
3,72,104,66
3,71,104,20
3,71,104,110
3,69,104,36
3,67,104,1250
3,69,104,8
3,67,104,0
3,69,104,8
3,67,104,256
3,69,104,8
3,70,104,2
3,71,104,20
3,69,104,1538
3,71,104,52
3,69,104,94
3,71,104,62
3,72,104,56
3,71,104,10
3,70,104,80
3,71,104,20
3,69,104,22
3,69,104,1170
3,69,104,72
3,71,104,60
3,69,104,24
3,67,104,118
3,64,104,8
3,62,104,112
3,71,104,64
3,74,104,2
3,71,104,128
3,62,104,26
3,62,104,44
3,64,104,58
3,67,104,46
3,64,104,46
3,67,104,26
3,64,104,70
3,67,104,22
3,69,104,36
3,70,104,48
3,69,104,72
3,67,104,144
3,71,104,3450
3,74,104,110
3,71,104,128
3,62,104,100
3,62,104,496
3,64,104,46
3,67,104,74
3,69,104,36
3,67,104,108
3,70,104,34
3,69,104,54
3,62,104,154
3,64,104,54
3,67,104,86
3,69,104,54
3,67,104,86
3,70,104,54
3,69,104,78
3,67,104,26
3,64,104,2
3,67,104,46
3,67,104,92
3,64,104,122
3,62,104,124
3,71,104,246
3,74,104,108
3,71,104,8
3,62,104,126
3,62,104,528
3,64,104,54
3,67,104,60
3,69,104,40
3,67,104,100
3,70,104,42
3,69,104,74
3,62,104,164
3,64,104,62
3,67,104,100
3,69,104,66
3,67,104,100
3,70,104,56
3,69,104,98
3,67,104,38
3,64,104,56
3,79,104,68
3,69,104,78
3,67,104,148
3,71,104,10
3,71,104,2696
3,74,104,50
3,76,104,42
3,67,104,72
3,79,104,392
3,70,104,58
3,67,104,42
3,64,104,26
3,67,104,46
3,69,104,6
3,63,104,526
3,67,104,72
3,69,104,40
3,67,104,64
3,70,104,10
3,69,104,114
3,67,104,648
3,64,104,8
3,67,104,8
4,50,67,4012
4,53,64,10
4,59,69,10
4,50,64,254
4,53,58,10
4,59,63,10
4,50,61,284
4,55,56,10
4,59,69,10
4,50,71,260
4,53,79,10
4,59,69,10
4,52,67,270
4,58,73,10
4,60,63,10
4,52,56,276
4,58,62,10
4,60,62,10
4,54,50,276
4,60,63,10
4,62,63,10
4,54,73,224
4,60,73,10
4,62,66,10
4,52,67,266
4,58,73,10
4,60,63,10
4,52,56,276
4,58,62,10
4,60,62,10
4,54,50,276
4,60,63,10
4,62,63,10
4,54,73,224
4,60,73,10
4,62,66,10
4,52,87,122
4,55,50,128
4,60,64,16
4,55,79,124
4,50,73,34
4,53,64,10
4,59,76,0
4,50,67,382
4,53,64,10
4,59,69,10
4,50,64,254
4,53,58,10
4,59,63,10
4,50,61,284
4,55,56,10
4,59,69,10
4,50,71,260
4,53,79,10
4,59,69,10
4,52,67,270
4,58,73,10
4,60,63,10
4,52,56,276
4,58,62,10
4,60,62,10
4,54,50,276
4,60,63,10
4,62,63,10
4,54,73,224
4,60,73,10
4,62,66,10
4,52,67,266
4,58,73,10
4,60,63,10
4,52,56,276
4,58,62,10
4,60,62,10
4,54,50,276
4,60,63,10
4,62,63,10
4,54,73,224
4,60,73,10
4,62,66,10
4,52,87,122
4,55,50,128
4,60,64,16
4,55,79,124
4,50,73,34
4,53,64,10
4,59,76,0
4,50,67,382
4,53,64,10
4,59,69,10
4,50,64,244
4,53,58,10
4,59,63,10
4,50,61,244
4,55,56,10
4,59,69,10
4,50,71,244
4,53,79,10
4,59,69,10
4,52,67,244
4,58,73,10
4,60,63,10
4,52,56,244
4,58,62,10
4,60,62,10
4,52,67,244
4,58,73,10
4,60,63,10
4,52,56,244
4,58,62,10
4,60,62,10
4,50,67,244
4,53,64,10
4,59,69,10
4,50,64,244
4,53,58,10
4,59,63,10
4,50,61,244
4,55,56,10
4,59,69,10
4,50,71,244
4,53,79,10
4,59,69,10
4,58,89,244
4,64,89,20
4,67,89,10
4,52,56,112
4,58,62,10
4,60,62,10
4,52,67,244
4,58,73,10
4,60,63,10
4,52,56,244
