track,note,velocity,time
1,55,127,13248
1,58,100,16
1,59,103,32
1,60,115,16
1,60,108,58
1,60,98,64
1,58,107,42
1,55,117,20
1,55,103,71
1,58,102,16
1,59,94,45
1,60,115,32
1,60,102,71
1,60,105,80
1,58,109,71
1,55,117,45
1,55,103,87
1,58,112,32
1,59,106,58
1,60,127,45
1,60,109,87
1,60,109,80
1,58,109,68
1,55,117,45
1,55,106,87
1,58,107,16
1,59,99,32
1,60,120,32
1,60,105,71
1,60,108,80
1,58,112,55
1,55,117,58
1,60,117,96
1,63,109,52
1,64,115,45
1,65,124,42
1,65,108,80
1,65,111,80
1,63,119,64
1,60,124,61
1,60,113,74
1,63,119,39
1,64,115,48
1,65,122,58
1,65,105,84
1,65,106,80
1,63,115,71
1,60,120,87
1,55,113,87
1,58,112,23
1,59,99,61
1,60,117,42
1,60,109,84
1,60,109,64
1,58,115,64
1,55,122,45
1,55,113,71
1,58,112,109
1,59,109,58
1,60,117,58
1,60,113,84
1,60,105,77
1,58,115,71
1,55,122,87
1,62,122,96
1,65,113,13
1,66,109,58
1,67,124,58
1,67,115,84
1,67,113,80
1,65,117,80
1,62,115,87
1,62,106,87
1,65,120,29
1,67,111,61
1,65,127,71
1,65,117,93
1,65,115,93
1,63,119,71
1,60,122,74
1,55,109,87
1,58,112,55
1,59,108,71
1,60,124,71
1,60,117,96
1,60,111,96
1,58,115,64
1,55,117,71
1,55,115,71
1,58,112,0
1,59,117,58
1,60,127,80
1,55,127,39
1,60,127,96
1,64,127,0
1,67,127,0
1,60,127,2861
1,64,127,0
1,67,127,0
1,57,127,2871
1,60,127,0
1,65,127,0
1,60,127,2813
1,64,127,0
1,67,127,0
1,59,127,2852
1,62,127,0
1,67,127,0
1,57,127,1312
1,60,127,0
1,65,127,0
1,55,127,1277
1,60,127,0
1,64,127,0
1,55,127,1482
1,58,104,29
1,59,98,0
1,60,120,192
1,60,108,55
1,60,97,61
1,58,109,39
1,55,124,29
1,55,101,58
1,58,107,13
1,59,108,45
1,60,120,45
1,60,106,58
1,60,103,64
1,58,115,52
1,59,87,0
1,55,115,93
1,55,105,71
1,58,109,13
1,59,103,45
1,60,122,45
1,60,115,84
1,60,113,77
1,58,115,68
1,55,120,45
1,55,103,71
1,58,112,80
1,59,105,32
1,60,124,61
1,60,113,80
1,60,105,93
1,58,123,71
1,55,120,71
1,60,120,100
1,63,115,13
1,64,115,58
1,65,124,68
1,65,106,80
1,65,108,80
1,63,115,55
1,60,127,61
1,60,109,74
1,63,115,42
1,64,115,58
1,65,122,71
1,65,113,80
1,65,109,80
1,63,123,80
1,60,124,74
1,55,108,71
1,58,112,55
1,59,101,61
1,60,120,58
1,60,115,87
1,60,111,93
1,58,119,64
1,55,120,58
1,55,106,71
1,58,112,32
1,59,106,58
1,60,122,58
1,60,109,87
1,60,109,80
1,58,123,71
1,55,117,84
1,62,124,112
1,65,98,16
1,66,112,71
1,67,122,58
1,67,120,77
1,67,117,77
1,65,124,77
1,62,122,87
1,62,108,84
1,65,122,58
1,67,127,61
1,65,127,58
1,65,113,80
1,65,102,77
1,63,123,71
1,60,127,87
1,55,113,87
1,58,112,45
1,59,108,61
1,60,124,55
1,60,113,80
1,60,108,96
1,58,119,71
1,55,117,71
1,55,108,71
1,58,115,45
1,59,120,71
1,60,127,93
1,55,127,109
1,60,127,160
1,64,127,0
1,67,127,0
1,60,127,2861
1,64,127,0
1,67,127,0
1,57,127,2871
1,60,127,0
1,65,127,0
1,60,127,2813
1,64,127,0
1,67,127,0
1,59,127,2852
1,62,127,0
1,67,127,0
1,57,127,1312
1,60,127,0
1,65,127,0
1,55,127,1277
1,60,127,0
1,64,127,0
1,55,127,1482
1,60,127,18797
1,64,127,0
1,67,127,0
1,60,127,2861
1,64,127,0
1,67,127,0
1,57,127,2871
1,60,127,0
1,65,127,0
1,60,127,2813
1,64,127,0
1,67,127,0
1,59,127,2852
1,62,127,0
1,67,127,0
1,57,127,1312
1,60,127,0
1,65,127,0
1,55,127,1277
1,60,127,0
1,64,127,0
1,55,127,1482
1,55,127,560
1,58,104,4
1,59,98,0
1,60,120,32
1,60,108,55
1,60,97,61
1,58,109,39
1,55,124,29
1,55,101,58
1,58,107,13
1,59,108,45
1,60,120,45
1,60,106,58
1,60,103,64
1,58,115,52
1,59,87,0
1,55,115,93
1,55,105,71
1,58,109,13
1,59,103,45
1,60,122,45
1,60,115,84
1,60,113,77
1,58,115,68
1,55,120,45
1,55,103,71
1,58,112,80
1,59,105,32
1,60,124,61
1,60,113,80
1,60,105,93
1,58,123,71
1,55,120,71
1,60,120,100
1,63,115,13
1,64,115,58
1,65,124,68
1,65,106,80
1,65,108,80
1,63,115,55
1,60,127,61
1,60,109,74
1,63,115,42
1,64,115,58
1,65,122,71
1,65,113,80
1,65,109,80
1,63,123,80
1,60,124,74
1,55,108,71
1,58,112,55
1,59,101,61
1,60,120,58
1,60,115,87
1,60,111,93
1,58,119,64
1,55,120,58
1,55,106,71
1,58,112,32
1,59,106,58
1,60,122,58
1,60,109,87
1,60,109,80
1,58,123,71
1,55,117,84
1,62,124,112
1,65,98,16
1,66,112,71
1,67,122,58
1,67,120,77
1,67,117,77
1,65,124,77
1,62,122,87
1,62,108,84
1,65,122,58
1,67,127,61
1,65,127,58
1,65,113,80
1,65,102,77
1,63,123,71
1,60,127,87
1,55,113,87
1,58,112,45
1,59,108,61
1,60,124,55
1,60,113,80
1,60,108,96
1,58,119,71
1,55,117,71
1,55,108,71
1,58,115,45
1,59,120,71
1,60,127,93
1,55,127,109
1,60,127,160
1,64,127,0
1,67,127,0
1,60,127,2861
1,64,127,0
1,67,127,0
1,57,127,2871
1,60,127,0
1,65,127,0
1,60,127,2813
1,64,127,0
1,67,127,0
1,59,127,2852
1,62,127,0
1,67,127,0
1,57,127,1312
1,60,127,0
1,65,127,0
1,55,127,1277
1,60,127,0
1,64,127,0
1,55,127,1482
1,60,127,18797
1,64,127,0
1,67,127,0
1,60,127,2861
1,64,127,0
1,67,127,0
1,57,127,2871
1,60,127,0
1,65,127,0
1,60,127,2813
1,64,127,0
1,67,127,0
1,59,127,2852
1,62,127,0
1,67,127,0
1,57,127,1312
1,60,127,0
1,65,127,0
1,55,127,1277
1,60,127,0
1,64,127,0
1,55,127,1482
1,58,104,29
1,59,98,0
1,60,120,192
1,60,108,55
1,60,97,61
1,58,109,39
1,55,124,29
1,55,101,58
1,58,107,13
1,59,108,45
1,60,120,45
1,60,106,58
1,60,103,64
1,58,115,52
1,59,87,0
1,55,115,93
1,55,105,71
1,58,109,13
1,59,103,45
1,60,122,45
1,60,115,84
1,60,113,77
1,58,115,68
1,55,120,45
1,55,103,71
1,58,112,80
1,59,105,32
1,60,124,61
1,60,113,80
1,60,105,93
1,58,123,71
1,55,120,71
1,60,120,100
1,63,115,13
1,64,115,58
1,65,124,68
1,65,106,80
1,65,108,80
1,63,115,55
1,60,127,61
1,60,109,74
1,63,115,42
1,64,115,58
1,65,122,71
1,65,113,80
1,65,109,80
1,63,123,80
1,60,124,74
1,55,108,71
1,58,112,55
1,59,101,61
1,60,120,58
1,60,115,87
1,60,111,93
1,58,119,64
1,55,120,58
1,55,106,71
1,58,112,32
1,59,106,58
1,60,122,58
1,60,109,87
1,60,109,80
1,58,123,71
1,55,117,84
1,62,124,112
1,65,98,16
1,66,112,71
1,67,122,58
1,67,120,77
1,67,117,77
1,65,124,77
1,62,122,87
1,62,108,84
1,65,122,58
1,67,127,61
1,65,127,58
1,65,113,80
1,65,102,77
1,63,123,71
1,60,127,87
1,55,113,87
1,58,112,45
1,59,108,61
1,60,124,55
1,60,113,80
1,60,108,96
1,58,119,71
1,55,117,71
1,55,108,71
1,58,115,45
1,59,120,71
1,60,127,93
1,55,127,109
1,60,127,160
1,64,127,0
1,67,127,0
1,60,127,2861
1,64,127,0
1,67,127,0
1,57,127,2871
1,60,127,0
1,65,127,0
1,60,127,2813
1,64,127,0
1,67,127,0
1,59,127,2852
1,62,127,0
1,67,127,0
1,57,127,1312
1,60,127,0
1,65,127,0
1,55,127,1277
1,60,127,0
1,64,127,0
1,55,127,1482
1,60,127,18797
1,64,127,0
1,67,127,0
1,60,127,2861
1,64,127,0
1,67,127,0
1,57,127,2871
1,60,127,0
1,65,127,0
1,60,127,2813
1,64,127,0
1,67,127,0
1,59,127,2852
1,62,127,0
1,67,127,0
1,57,127,1312
1,60,127,0
1,65,127,0
1,55,127,1277
1,60,127,0
1,64,127,0
1,55,127,1482
1,55,127,560
1,58,104,4
1,59,98,0
1,60,120,32
1,60,108,55
1,60,97,61
1,58,109,39
1,55,124,29
1,55,101,58
1,58,107,13
1,59,108,45
1,60,120,45
1,60,106,58
1,60,103,64
1,58,115,52
1,59,87,0
1,55,115,93
1,55,105,71
1,58,109,13
1,59,103,45
1,60,122,45
1,60,115,84
1,60,113,77
1,58,115,68
1,55,120,45
1,55,103,71
1,58,112,80
1,59,105,32
1,60,124,61
1,60,113,80
1,60,105,93
1,58,123,71
1,55,120,71
1,60,120,100
1,63,115,13
1,64,115,58
1,65,124,68
1,65,106,80
1,65,108,80
1,63,115,55
1,60,127,61
1,60,109,74
1,63,115,42
1,64,115,58
1,65,122,71
1,65,113,80
1,65,109,80
1,63,123,80
1,60,124,74
1,55,108,71
1,58,112,55
1,59,101,61
1,60,120,58
1,60,115,87
1,60,111,93
1,58,119,64
1,55,120,58
1,55,106,71
1,58,112,32
1,59,106,58
1,60,122,58
1,60,109,87
1,60,109,80
1,58,123,71
1,55,117,84
1,62,124,112
1,65,98,16
1,66,112,71
1,67,122,58
1,67,120,77
1,67,117,77
1,65,124,77
1,62,122,87
1,62,108,84
1,65,122,58
1,67,127,61
1,65,127,58
1,65,113,80
1,65,102,77
1,63,123,71
1,60,127,87
1,55,113,87
1,58,112,45
1,59,108,61
1,60,124,55
1,60,113,80
1,60,108,96
1,58,119,71
1,55,117,71
1,55,108,71
1,58,115,45
1,59,120,71
1,60,127,93
1,55,127,109
1,60,127,160
1,64,127,0
1,67,127,0
2,36,127,10752
2,36,113,58
2,36,118,58
2,36,116,58
2,36,118,58
2,36,125,58
2,36,125,58
2,36,127,58
2,36,125,58
2,36,127,58
2,36,127,58
2,36,125,58
2,36,122,58
2,36,118,58
2,36,120,58
2,36,122,58
2,36,127,58
2,36,122,58
2,36,122,58
2,34,117,58
2,31,116,58
2,31,110,58
2,34,114,58
2,35,120,58
2,36,122,58
2,36,118,58
2,36,120,58
2,34,111,58
2,31,87,58
2,31,98,58
2,34,114,58
2,35,100,58
2,36,125,58
2,36,122,58
2,36,118,58
2,34,120,58
2,31,118,58
2,31,108,58
2,34,120,58
2,35,114,58
2,36,122,58
2,36,122,58
2,36,113,58
2,34,120,58
2,31,116,58
2,31,107,58
2,34,106,58
2,36,86,58
2,41,120,58
2,41,122,58
2,41,113,58
2,39,124,58
2,36,120,58
2,36,108,58
2,39,117,58
2,40,120,58
2,41,122,58
2,41,120,58
2,41,108,58
2,39,117,58
2,36,118,58
2,31,120,58
2,34,107,58
2,35,102,58
2,36,122,58
2,36,118,58
2,36,110,58
2,34,114,58
2,31,120,58
2,31,113,58
2,34,114,58
2,35,110,58
2,36,122,58
2,36,120,58
2,36,108,58
2,34,117,58
2,31,114,58
2,38,103,58
2,41,106,58
2,42,109,58
2,43,114,58
2,43,120,58
2,43,122,58
2,41,122,58
2,38,120,58
2,38,102,58
2,41,116,58
2,43,108,58
2,41,127,58
2,41,120,58
2,41,111,58
2,39,109,58
2,36,118,58
2,31,120,58
2,34,109,58
2,35,114,58
2,36,122,58
2,36,120,58
2,36,108,58
2,34,117,58
2,31,118,58
2,31,108,58
2,34,117,58
2,35,125,58
2,36,125,58
2,31,127,58
2,31,127,58
2,31,99,58
2,31,127,58
2,31,114,58
2,31,127,58
2,31,127,58
2,36,127,58
2,36,127,2935
2,41,127,2935
2,36,127,2938
2,43,127,2938
2,41,127,1264
2,36,127,1402
2,31,79,2224
2,34,105,58
2,35,93,58
2,36,127,58
2,36,122,23
2,36,122,58
2,34,117,58
2,31,116,58
2,31,110,58
2,34,114,58
2,35,120,58
2,36,122,58
2,36,118,58
2,36,120,58
2,34,111,58
2,31,87,58
2,31,98,58
2,34,114,58
2,35,100,58
2,36,125,58
2,36,122,58
2,36,118,58
2,34,120,58
2,31,118,58
2,31,108,58
2,34,120,58
2,35,114,58
2,36,122,58
2,36,122,58
2,36,113,58
2,34,120,58
2,31,116,58
2,31,107,58
2,34,106,58
2,36,86,58
2,41,120,58
2,41,122,58
2,41,113,58
2,39,124,58
2,36,120,58
2,36,108,58
2,39,117,58
2,40,120,58
2,41,122,58
2,41,120,58
2,41,108,58
2,39,117,58
2,36,118,58
2,31,120,58
2,34,107,58
2,35,102,58
2,36,122,58
2,36,118,58
2,36,110,58
2,34,114,58
2,31,120,58
2,31,113,58
2,34,114,58
2,35,110,58
2,36,122,58
2,36,120,58
2,36,108,58
2,34,117,58
2,31,114,58
2,38,103,58
2,41,106,58
2,42,109,58
2,43,114,58
2,43,120,58
2,43,122,58
2,41,122,58
2,38,120,58
2,38,102,58
2,41,116,58
2,43,108,58
2,41,127,58
2,41,120,58
2,41,111,58
2,39,109,58
2,36,118,58
2,31,120,58
2,34,109,58
2,35,114,58
2,36,122,58
2,36,120,58
2,36,108,58
2,34,117,58
2,31,118,58
2,31,108,58
2,34,117,58
2,35,125,58
2,36,125,58
2,31,127,58
2,31,127,58
2,31,99,58
2,31,127,58
2,31,114,58
2,31,127,58
2,31,127,58
2,36,127,58
2,36,127,2935
2,41,127,2935
2,36,127,2938
2,43,127,2938
2,41,127,1264
2,36,127,1402
2,31,79,2224
2,34,105,58
2,35,93,58
2,36,127,58
2,36,122,58
2,36,122,58
2,34,117,58
2,31,116,58
2,31,110,58
2,34,114,58
2,35,120,58
2,36,122,58
2,36,118,58
2,36,120,58
2,34,111,58
2,31,87,58
2,31,98,58
2,34,114,58
2,35,100,58
2,36,125,58
2,36,122,58
2,36,118,58
2,34,120,58
2,31,118,58
2,31,108,58
2,34,120,58
2,35,114,58
2,36,122,58
2,36,122,58
2,36,113,58
2,34,120,58
2,31,116,58
2,31,107,58
2,34,106,58
2,36,86,58
2,41,120,58
2,41,122,58
2,41,113,58
2,39,124,58
2,36,120,58
2,36,108,58
2,39,117,58
2,40,120,58
2,41,122,58
2,41,120,58
2,41,108,58
2,39,117,58
2,36,118,58
2,31,120,58
2,34,107,58
2,35,102,58
2,36,122,58
2,36,118,58
2,36,110,58
2,34,114,58
2,31,120,58
2,31,113,58
2,34,114,58
2,35,110,58
2,36,122,58
2,36,120,58
2,36,108,58
2,34,117,58
2,31,114,58
2,38,103,58
2,41,106,58
2,42,109,58
2,43,114,58
2,43,120,58
2,43,122,58
2,41,122,58
2,38,120,58
2,38,102,58
2,41,116,58
2,43,108,58
2,41,127,58
2,41,120,58
2,41,111,58
2,39,109,58
2,36,118,58
2,31,120,58
2,34,109,58
2,35,114,58
2,36,122,58
2,36,120,58
2,36,108,58
2,34,117,58
2,31,118,58
2,31,108,58
2,34,117,58
2,35,125,58
2,36,125,58
2,31,127,58
2,31,127,58
2,31,99,58
2,31,127,58
2,31,114,58
2,31,127,58
2,31,127,58
2,36,127,58
2,36,127,2935
2,41,127,2935
2,36,127,2938
2,43,127,2938
2,41,127,1264
2,36,127,1402
2,31,79,2224
2,34,105,58
2,35,93,58
2,36,127,58
2,36,122,23
2,36,122,58
2,34,117,58
2,31,116,58
2,31,110,58
2,34,114,58
2,35,120,58
2,36,122,58
2,36,118,58
2,36,120,58
2,34,111,58
2,31,87,58
2,31,98,58
2,34,114,58
2,35,100,58
2,36,125,58
2,36,122,58
2,36,118,58
2,34,120,58
2,31,118,58
2,31,108,58
2,34,120,58
2,35,114,58
2,36,122,58
2,36,122,58
2,36,113,58
2,34,120,58
2,31,116,58
2,31,107,58
2,34,106,58
2,36,86,58
2,41,120,58
2,41,122,58
2,41,113,58
2,39,124,58
2,36,120,58
2,36,108,58
2,39,117,58
2,40,120,58
2,41,122,58
2,41,120,58
