track,note,velocity,time
4,43,100,0
4,39,100,0
4,36,100,0
4,33,100,0
4,43,100,0
4,39,100,0
4,36,100,0
4,45,100,0
4,43,100,0
4,39,100,0
4,36,100,0
4,45,100,0
4,43,100,18432
4,39,100,0
4,36,100,0
4,33,100,0
4,43,100,0
4,39,100,0
4,36,100,0
4,33,100,0
4,43,100,0
4,39,100,0
4,36,100,0
4,33,100,0
4,43,100,0
4,39,100,0
4,36,100,0
4,33,100,0
4,43,100,18432
4,39,100,0
4,36,100,0
4,33,100,0
4,43,100,0
4,39,100,0
4,36,100,0
4,33,100,0
4,43,100,0
4,39,100,0
4,36,100,0
4,33,100,0
4,43,100,0
4,39,100,0
4,36,100,0
4,33,100,0
4,43,100,0
4,39,100,0
4,36,100,0
4,33,100,0
4,43,100,0
4,39,100,0
4,36,100,0
4,33,100,0
4,43,100,0
4,39,100,0
4,36,100,0
4,33,100,0
4,43,100,0
4,39,100,0
4,36,100,0
4,33,100,0
4,43,100,9216
4,39,100,0
4,36,100,0
4,33,100,0
4,43,100,0
4,43,100,0
4,39,100,0
4,36,100,0
4,33,100,0
4,43,100,0
4,43,100,0
4,39,100,0
4,36,100,0
4,33,100,0
4,43,100,0
4,43,100,0
4,39,100,0
4,36,100,0
4,33,100,0
4,43,100,0
4,39,100,0
4,36,100,0
4,33,100,0
4,43,100,0
4,43,100,0
4,39,100,0
4,36,100,0
4,33,100,0
4,43,100,0
4,43,100,0
4,39,100,0
4,36,100,0
4,33,100,0
4,43,100,0
4,43,100,0
4,39,100,0
4,36,100,0
4,33,100,0
4,43,100,0
4,39,100,40
4,36,100,44
4,33,100,38
5,79,100,0
5,67,100,0
5,74,100,0
5,62,100,0
5,70,100,166
5,82,100,0
5,79,100,24
5,67,100,0
5,74,100,0
5,62,100,0
5,82,100,166
5,70,100,0
5,79,100,24
5,67,100,0
5,74,100,0
5,62,100,0
5,70,100,166
5,82,100,0
5,79,100,24
5,67,100,0
5,74,100,0
5,62,100,0
5,79,100,24
5,67,100,0
5,74,100,0
5,62,100,0
5,70,100,166
5,82,100,0
5,79,100,24
5,67,100,0
5,74,100,0
5,62,100,0
5,82,100,166
5,70,100,0
5,79,100,24
5,67,100,0
5,74,100,0
5,62,100,0
5,70,100,166
5,82,100,0
5,79,100,24
5,67,100,0
5,74,100,0
5,62,100,0
5,79,100,24
5,67,100,0
5,74,100,0
5,62,100,0
5,70,100,166
5,82,100,0
5,79,100,24
5,67,100,0
5,74,100,0
5,62,100,0
5,82,100,166
5,70,100,0
5,79,100,24
5,67,100,0
5,74,100,0
5,62,100,0
5,70,100,166
5,82,100,0
5,79,100,24
5,67,100,0
5,74,100,0
5,62,100,0
5,79,100,18456
5,67,100,0
5,74,100,0
5,62,100,0
5,70,100,166
5,82,100,0
5,79,100,24
5,67,100,0
5,74,100,0
5,62,100,0
5,82,100,166
5,70,100,0
5,79,100,24
5,67,100,0
5,74,100,0
5,62,100,0
5,70,100,166
5,82,100,0
5,79,100,24
5,67,100,0
5,74,100,0
5,62,100,0
5,79,100,24
5,67,100,0
5,74,100,0
5,62,100,0
5,70,100,166
5,82,100,0
5,79,100,24
5,67,100,0
5,74,100,0
5,62,100,0
5,82,100,166
5,70,100,0
5,79,100,24
5,67,100,0
5,74,100,0
5,62,100,0
5,70,100,166
5,82,100,0
5,79,100,24
5,67,100,0
5,74,100,0
5,62,100,0
5,79,100,24
5,67,100,0
5,74,100,0
5,62,100,0
5,70,100,166
5,82,100,0
5,79,100,24
5,67,100,0
5,74,100,0
5,62,100,0
5,82,100,166
5,70,100,0
5,79,100,24
5,67,100,0
5,74,100,0
5,62,100,0
5,70,100,166
5,82,100,0
5,79,100,24
5,67,100,0
5,74,100,0
5,62,100,0
5,79,100,24
5,67,100,0
5,74,100,0
5,62,100,0
5,70,100,166
5,82,100,0
5,79,100,24
5,67,100,0
5,74,100,0
5,62,100,0
5,82,100,166
5,70,100,0
5,79,100,24
5,67,100,0
5,74,100,0
5,62,100,0
5,70,100,166
5,82,100,0
5,79,100,24
5,67,100,0
5,74,100,0
5,62,100,0
5,79,100,18456
5,67,100,0
5,74,100,0
5,62,100,0
5,70,100,166
5,82,100,0
5,79,100,24
5,67,100,0
5,74,100,0
5,62,100,0
5,82,100,166
5,70,100,0
5,79,100,24
5,67,100,0
5,74,100,0
5,62,100,0
5,70,100,166
5,82,100,0
5,79,100,24
5,67,100,0
5,74,100,0
5,62,100,0
5,79,100,24
5,67,100,0
5,74,100,0
5,62,100,0
5,70,100,166
5,82,100,0
5,79,100,24
5,67,100,0
5,74,100,0
5,62,100,0
5,82,100,166
5,70,100,0
5,79,100,24
5,67,100,0
5,74,100,0
5,62,100,0
5,70,100,166
5,82,100,0
5,79,100,24
5,67,100,0
5,74,100,0
5,62,100,0
5,79,100,24
5,67,100,0
5,74,100,0
5,62,100,0
5,70,100,166
5,82,100,0
5,79,100,24
5,67,100,0
5,74,100,0
5,62,100,0
5,82,100,166
5,70,100,0
5,79,100,24
5,67,100,0
5,74,100,0
5,62,100,0
5,70,100,166
5,82,100,0
5,79,100,24
5,67,100,0
5,74,100,0
5,62,100,0
5,79,100,24
5,67,100,0
5,74,100,0
5,62,100,0
5,70,100,166
5,82,100,0
5,79,100,24
5,67,100,0
5,74,100,0
5,62,100,0
5,82,100,166
5,70,100,0
5,79,100,24
5,67,100,0
5,74,100,0
5,62,100,0
5,70,100,166
5,82,100,0
5,79,100,24
5,67,100,0
5,74,100,0
5,62,100,0
5,79,100,24
5,67,100,0
5,74,100,0
5,62,100,0
5,70,100,166
5,82,100,0
5,79,100,24
5,67,100,0
5,74,100,0
5,62,100,0
5,82,100,166
5,70,100,0
5,79,100,24
5,67,100,0
5,74,100,0
5,62,100,0
5,70,100,166
5,82,100,0
5,79,100,24
5,67,100,0
5,74,100,0
5,62,100,0
5,79,100,24
5,67,100,0
5,74,100,0
5,62,100,0
5,70,100,166
5,82,100,0
5,79,100,24
5,67,100,0
5,74,100,0
5,62,100,0
5,82,100,166
5,70,100,0
5,79,100,24
5,67,100,0
5,74,100,0
5,62,100,0
5,70,100,166
5,82,100,0
5,79,100,24
5,67,100,0
5,74,100,0
5,62,100,0
5,79,100,24
5,67,100,0
5,74,100,0
5,62,100,0
5,70,100,166
5,82,100,0
5,79,100,24
5,67,100,0
5,74,100,0
5,62,100,0
5,82,100,166
5,70,100,0
5,79,100,24
5,67,100,0
5,74,100,0
5,62,100,0
5,70,100,166
5,82,100,0
5,79,100,24
5,67,100,0
5,74,100,0
5,62,100,0
5,79,100,24
5,67,100,0
5,74,100,0
5,62,100,0
5,70,100,166
5,82,100,0
5,79,100,24
5,67,100,0
5,74,100,0
5,62,100,0
5,82,100,166
5,70,100,0
5,79,100,24
5,67,100,0
5,74,100,0
5,62,100,0
5,70,100,166
5,82,100,0
5,79,100,24
5,67,100,0
5,74,100,0
5,62,100,0
5,79,100,9240
5,67,100,0
5,74,100,0
5,62,100,0
5,70,100,166
5,82,100,0
5,79,100,24
5,67,100,0
5,74,100,0
5,62,100,0
5,82,100,166
5,70,100,0
5,79,100,24
5,67,100,0
5,74,100,0
5,62,100,0
5,70,100,166
5,82,100,0
5,79,100,24
5,67,100,0
5,74,100,0
5,62,100,0
5,79,100,24
5,67,100,0
5,74,100,0
5,62,100,0
5,70,100,166
5,82,100,0
5,79,100,24
5,67,100,0
5,74,100,0
5,62,100,0
5,82,100,166
5,70,100,0
5,79,100,24
5,67,100,0
5,74,100,0
5,62,100,0
5,70,100,166
5,82,100,0
5,79,100,24
5,67,100,0
5,74,100,0
5,62,100,0
5,79,100,24
5,67,100,0
5,74,100,0
5,62,100,0
5,70,100,166
5,82,100,0
5,79,100,24
5,67,100,0
5,74,100,0
5,62,100,0
5,82,100,166
5,70,100,0
5,79,100,24
5,67,100,0
5,74,100,0
5,62,100,0
5,70,100,166
5,82,100,0
5,79,100,24
5,67,100,0
5,74,100,0
5,62,100,0
5,79,100,24
5,67,100,0
5,74,100,0
5,62,100,0
5,70,100,166
5,82,100,0
5,79,100,24
5,67,100,0
5,74,100,0
5,62,100,0
5,82,100,166
5,70,100,0
5,79,100,24
5,67,100,0
5,74,100,0
5,62,100,0
5,70,100,166
5,82,100,0
5,79,100,24
5,67,100,0
5,74,100,0
5,62,100,0
5,79,100,24
5,67,100,0
5,74,100,0
5,62,100,0
5,70,100,166
5,82,100,0
5,79,100,24
5,67,100,0
5,74,100,0
5,62,100,0
5,82,100,166
5,70,100,0
5,79,100,24
5,67,100,0
5,74,100,0
5,62,100,0
5,70,100,166
5,82,100,0
5,79,100,24
5,67,100,0
5,74,100,0
5,62,100,0
5,79,100,24
5,67,100,0
5,74,100,0
5,62,100,0
5,70,100,166
5,82,100,0
5,79,100,24
5,67,100,0
5,74,100,0
5,62,100,0
5,82,100,166
5,70,100,0
5,79,100,24
5,67,100,0
5,74,100,0
5,62,100,0
5,70,100,166
5,82,100,0
5,79,100,24
5,67,100,0
5,74,100,0
5,62,100,0
5,79,100,24
5,67,100,0
5,74,100,0
5,62,100,0
5,70,100,166
5,82,100,0
5,79,100,24
5,67,100,0
5,74,100,0
5,62,100,0
5,82,100,166
5,70,100,0
5,79,100,24
5,67,100,0
5,74,100,0
5,62,100,0
5,70,100,166
5,82,100,0
5,79,100,24
5,67,100,0
5,74,100,0
5,62,100,0
5,79,100,24
5,67,100,0
5,74,100,0
5,62,100,0
5,70,100,166
5,82,100,0
5,79,100,24
5,67,100,0
5,74,100,0
5,62,100,0
5,82,100,166
5,70,100,0
5,79,100,24
5,67,100,0
5,74,100,0
5,62,100,0
5,70,100,166
5,82,100,0
5,79,100,24
5,67,100,0
5,74,100,0
5,62,100,0
5,67,100,24
5,55,100,0
5,62,100,0
5,50,100,0
5,58,100,290
5,70,100,0
5,55,100,90
5,67,100,0
5,62,100,0
5,50,100,0
5,58,100,290
5,70,100,0
5,55,100,90
5,67,100,0
5,62,100,0
5,50,100,0
5,58,100,290
5,70,100,0
5,55,100,90
5,67,100,0
5,50,100,0
5,62,100,0
6,70,100,16896
6,70,100,6
6,69,100,6
6,69,100,2
6,67,100,42
6,67,100,6
6,69,100,6
6,70,100,90
6,70,100,6
6,70,100,6
6,70,100,2
6,70,100,42
6,70,100,6
6,72,100,6
6,72,100,2
6,72,100,234
6,72,100,0
6,72,100,6
6,72,100,0
6,65,100,96
6,65,100,6
6,65,100,6
6,65,100,2
6,66,100,42
6,66,100,6
6,66,100,6
6,66,100,2
6,70,100,42
6,67,100,0
6,70,100,6
6,69,100,6
6,69,100,2
6,67,100,42
6,67,100,6
6,69,100,6
6,70,100,90
6,70,100,6
6,70,100,6
6,70,100,2
6,70,100,42
6,70,100,6
6,72,100,6
6,72,100,2
6,72,100,234
6,72,100,6
6,73,100,96
6,72,100,0
6,70,100,0
6,70,100,21550
6,69,100,6
6,69,100,2
6,67,100,46
6,69,100,6
6,70,100,90
6,70,100,6
6,70,100,6
6,70,100,2
6,70,100,42
6,70,100,6
6,72,100,6
6,72,100,2
6,72,100,234
6,72,100,6
6,65,100,96
6,65,100,6
6,65,100,6
6,65,100,2
6,66,100,42
6,66,100,6
6,66,100,6
6,66,100,2
6,70,100,42
6,67,100,0
6,70,100,6
6,69,100,6
6,69,100,2
6,67,100,42
6,67,100,6
6,69,100,6
6,70,100,90
6,70,100,6
6,70,100,6
6,70,100,2
6,70,100,42
6,70,100,6
6,72,100,6
6,72,100,2
6,72,100,234
6,72,100,6
6,73,100,96
6,72,100,0
6,70,100,0
6,67,100,9314
6,67,100,54
6,70,100,44
6,70,100,6
6,70,100,6
6,70,100,2
6,70,100,46
6,72,100,6
6,72,100,2
6,72,100,98
6,72,100,190
6,70,100,6
6,72,100,6
6,70,100,2
6,72,100,42
6,74,100,54
6,67,100,106
6,67,100,54
6,70,100,44
6,70,100,62
6,70,100,12
6,70,100,96
6,72,100,106
6,72,100,96
6,70,100,4
6,70,100,8
6,72,100,4
6,70,100,6
6,72,100,6
6,69,100,100
6,69,100,48
6,70,100,2
6,67,100,48
6,67,100,54
6,67,100,58
6,69,100,100
6,69,100,48
6,70,100,2
6,72,100,48
6,70,100,6
6,72,100,6
6,70,100,2
6,72,100,42
6,74,100,54
6,69,100,106
6,69,100,48
6,70,100,2
6,67,100,48
6,67,100,54
6,67,100,58
6,65,100,90
6,65,100,54
6,65,100,58
6,66,100,90
6,66,100,54
6,66,100,58
6,67,100,15460
6,67,100,90
6,67,100,12
6,67,100,46
6,70,100,44
6,70,100,6
6,70,100,6
6,70,100,2
6,70,100,46
6,72,100,6
6,72,100,2
6,72,100,98
6,72,100,90
6,72,100,6
6,72,100,12
6,72,100,38
6,70,100,6
6,72,100,6
6,70,100,2
6,72,100,42
6,74,100,54
6,67,100,106
6,67,100,54
6,67,100,46
6,70,100,44
6,70,100,62
6,70,100,12
6,70,100,96
6,72,100,106
6,72,100,96
6,70,100,4
6,70,100,8
6,72,100,4
6,70,100,6
6,72,100,6
6,69,100,48
6,69,100,6
6,69,100,48
6,70,100,2
6,67,100,48
6,67,100,54
6,67,100,58
6,69,100,100
6,69,100,48
6,70,100,2
6,72,100,48
6,70,100,6
6,72,100,6
6,70,100,2
6,72,100,42
6,74,100,54
6,69,100,106
6,69,100,48
6,70,100,2
6,67,100,48
6,67,100,54
6,67,100,58
6,65,100,90
6,65,100,54
6,65,100,58
6,66,100,90
6,66,100,54
6,66,100,58
7,70,100,16896
7,70,100,6
7,69,100,6
7,69,100,2
7,67,100,42
7,67,100,6
7,69,100,6
7,70,100,90
7,70,100,6
7,70,100,6
7,70,100,2
7,70,100,42
7,70,100,6
7,72,100,6
7,72,100,2
7,72,100,234
7,72,100,6
7,65,100,96
7,65,100,6
7,65,100,6
7,65,100,2
7,66,100,42
7,66,100,6
7,66,100,6
7,66,100,2
7,70,100,42
7,67,100,0
7,70,100,6
7,69,100,6
7,69,100,2
7,67,100,42
7,67,100,6
7,69,100,6
7,70,100,90
7,70,100,6
7,70,100,6
7,70,100,2
7,70,100,42
7,70,100,6
7,72,100,6
7,72,100,2
7,72,100,234
7,72,100,6
7,73,100,96
7,72,100,0
7,70,100,0
7,70,100,21550
7,69,100,6
7,69,100,2
7,67,100,46
7,69,100,6
7,70,100,90
7,70,100,6
7,70,100,6
7,70,100,2
7,70,100,42
7,70,100,6
7,72,100,6
7,72,100,2
7,72,100,234
7,72,100,6
7,65,100,96
7,65,100,6
7,65,100,6
7,65,100,2
7,66,100,42
7,66,100,6
7,66,100,6
7,66,100,2
7,70,100,42
7,67,100,0
7,70,100,6
7,69,100,6
7,69,100,2
7,67,100,42
7,67,100,6
7,69,100,6
7,70,100,90
7,70,100,6
7,70,100,6
7,70,100,2
7,70,100,42
7,70,100,6
7,72,100,6
7,72,100,2
7,72,100,234
7,72,100,6
7,73,100,96
7,72,100,0
7,70,100,0
7,67,100,9314
7,67,100,54
7,70,100,44
7,70,100,6
7,70,100,6
7,70,100,2
7,70,100,46
7,72,100,6
7,72,100,2
7,72,100,98
7,72,100,190
7,70,100,6
7,72,100,6
7,70,100,2
7,72,100,42
7,74,100,54
7,67,100,106
7,67,100,54
7,70,100,44
7,70,100,62
7,70,100,12
7,70,100,96
7,72,100,106
7,72,100,96
7,70,100,4
7,70,100,8
7,72,100,4
7,70,100,6
7,72,100,6
7,69,100,100
7,69,100,48
7,70,100,2
7,67,100,48
7,67,100,54
7,67,100,58
7,69,100,100
7,69,100,48
7,70,100,2
7,72,100,48
7,70,100,6
7,72,100,6
7,70,100,2
7,72,100,42
7,74,100,54
7,69,100,106
7,69,100,48
7,70,100,2
7,67,100,48
7,67,100,54
7,67,100,58
7,65,100,90
7,65,100,54
7,65,100,58
7,66,100,90
7,66,100,54
7,66,100,58
7,67,100,15460
7,67,100,90
7,67,100,12
7,67,100,46
7,70,100,44
7,70,100,6
7,70,100,6
7,70,100,2
7,70,100,46
7,72,100,6
7,72,100,2
7,72,100,98
7,72,100,90
