track,note,velocity,time
1,79,50,0
1,74,50,0
1,82,50,0
1,79,50,0
1,74,50,0
1,82,50,0
1,79,50,0
1,74,50,0
1,82,50,0
1,79,50,0
1,74,50,0
1,79,50,0
1,74,50,0
1,82,50,0
1,79,50,0
1,74,50,0
1,82,50,0
1,79,50,0
1,74,50,0
1,82,50,0
1,79,50,0
1,74,50,0
1,79,50,0
1,74,50,0
1,82,50,0
1,79,50,0
1,74,50,0
1,82,50,0
1,79,50,0
1,74,50,0
1,82,50,0
1,79,50,0
1,74,50,0
1,79,50,46080
1,74,50,0
1,82,50,0
1,79,50,0
1,74,50,0
1,82,50,0
1,79,50,0
1,74,50,0
1,82,50,0
1,79,50,0
1,74,50,0
1,79,50,0
1,74,50,0
1,82,50,0
1,79,50,0
1,74,50,0
1,82,50,0
1,79,50,0
1,74,50,0
1,82,50,0
1,79,50,0
1,74,50,0
1,79,50,0
1,74,50,0
1,82,50,0
1,79,50,0
1,74,50,0
1,82,50,0
1,79,50,0
1,74,50,0
1,82,50,0
1,79,50,0
1,74,50,0
1,79,50,0
1,74,50,0
1,82,50,0
1,79,50,0
1,74,50,0
1,82,50,0
1,79,50,0
1,74,50,0
1,82,50,0
1,79,50,0
1,74,50,0
1,79,50,46080
1,74,50,0
1,82,50,0
1,79,50,0
1,74,50,0
1,82,50,0
1,79,50,0
1,74,50,0
1,82,50,0
1,79,50,0
1,74,50,0
1,79,50,0
1,74,50,0
1,82,50,0
1,79,50,0
1,74,50,0
1,82,50,0
1,79,50,0
1,74,50,0
1,82,50,0
1,79,50,0
1,74,50,0
1,79,50,0
1,74,50,0
1,82,50,0
1,79,50,0
1,74,50,0
1,82,50,0
1,79,50,0
1,74,50,0
1,82,50,0
1,79,50,0
1,74,50,0
1,79,50,0
1,74,50,0
1,82,50,0
1,79,50,0
1,74,50,0
1,82,50,0
1,79,50,0
1,74,50,0
1,82,50,0
1,79,50,0
1,74,50,0
1,79,50,0
1,74,50,0
1,82,50,0
1,79,50,0
1,74,50,0
1,82,50,0
1,79,50,0
1,74,50,0
1,82,50,0
1,79,50,0
1,74,50,0
1,79,50,0
1,74,50,0
1,82,50,0
1,79,50,0
1,74,50,0
1,82,50,0
1,79,50,0
1,74,50,0
1,82,50,0
1,79,50,0
1,74,50,0
1,79,50,0
1,74,50,0
1,82,50,0
1,79,50,0
1,74,50,0
1,82,50,0
1,79,50,0
1,74,50,0
1,82,50,0
1,79,50,0
1,74,50,0
1,79,50,0
1,74,50,0
1,82,50,0
1,79,50,0
1,74,50,0
1,82,50,0
1,79,50,0
1,74,50,0
1,82,50,0
1,79,50,0
1,74,50,0
1,79,50,23040
1,74,50,0
1,82,50,0
1,79,50,0
1,74,50,0
1,82,50,0
1,79,50,0
1,74,50,0
1,82,50,0
1,79,50,0
1,74,50,0
1,79,50,0
1,74,50,0
1,82,50,0
1,79,50,0
1,74,50,0
1,82,50,0
1,79,50,0
1,74,50,0
1,82,50,0
1,79,50,0
1,74,50,0
1,79,50,0
1,74,50,0
1,82,50,0
1,79,50,0
1,74,50,0
1,82,50,0
1,79,50,0
1,74,50,0
1,82,50,0
1,79,50,0
1,74,50,0
1,79,50,0
1,74,50,0
1,82,50,0
1,79,50,0
1,74,50,0
1,82,50,0
1,79,50,0
1,74,50,0
1,82,50,0
1,79,50,0
1,74,50,0
1,79,50,0
1,74,50,0
1,82,50,0
1,79,50,0
1,74,50,0
1,82,50,0
1,79,50,0
1,74,50,0
1,82,50,0
1,79,50,0
1,74,50,0
1,79,50,0
1,74,50,0
1,82,50,0
1,79,50,0
1,74,50,0
1,82,50,0
1,79,50,0
1,74,50,0
1,82,50,0
1,79,50,0
1,74,50,0
1,79,50,0
1,74,50,0
1,82,50,0
1,79,50,0
1,74,50,0
1,82,50,0
1,79,50,0
1,74,50,0
1,82,50,0
1,79,50,0
1,74,50,0
1,79,50,0
1,74,50,0
1,82,50,0
1,79,50,0
1,74,50,0
1,82,50,0
1,79,50,0
1,74,50,0
1,82,50,0
1,79,50,0
1,74,50,0
1,67,120,0
1,62,120,0
1,70,120,7
1,67,120,24
1,62,120,0
1,70,120,7
1,67,120,24
1,62,120,0
1,70,120,7
1,67,120,24
1,62,120,0
2,67,120,0
2,63,120,0
2,60,120,0
2,57,120,0
2,67,120,0
2,63,120,0
2,60,120,0
2,57,120,0
2,67,120,0
2,63,120,0
2,60,120,0
2,57,120,0
2,67,120,46080
2,63,120,0
2,60,120,0
2,57,120,0
2,67,120,0
2,63,120,0
2,60,120,0
2,57,120,0
2,67,120,0
2,63,120,0
2,60,120,0
2,57,120,0
2,67,120,0
2,63,120,0
2,60,120,0
2,57,120,0
2,67,120,46080
2,63,120,0
2,60,120,0
2,57,120,0
2,67,120,0
2,63,120,0
2,60,120,0
2,57,120,0
2,67,120,0
2,63,120,0
2,60,120,0
2,57,120,0
2,67,120,0
2,63,120,0
2,60,120,0
2,57,120,0
2,67,120,0
2,63,120,0
2,60,120,0
2,57,120,0
2,67,120,0
2,63,120,0
2,60,120,0
2,57,120,0
2,67,120,0
2,63,120,0
2,60,120,0
2,57,120,0
2,67,120,0
2,63,120,0
2,60,120,0
2,57,120,0
2,67,120,23040
2,63,120,0
2,60,120,0
2,57,120,0
2,67,120,0
2,63,120,0
2,60,120,0
2,57,120,0
2,67,120,0
2,63,120,0
2,60,120,0
2,57,120,0
2,67,120,0
2,63,120,0
2,60,120,0
2,57,120,0
2,67,120,0
2,63,120,0
2,60,120,0
2,57,120,0
2,67,120,0
2,63,120,0
2,60,120,0
2,57,120,0
2,67,120,0
2,63,120,0
2,60,120,0
2,57,120,0
2,67,120,0
2,63,120,0
2,60,120,0
2,57,120,0
2,55,120,0
2,50,120,0
2,43,120,0
2,51,120,0
2,46,120,0
2,39,120,0
2,36,120,0
2,43,120,0
2,48,120,0
2,45,120,0
2,42,120,0
2,38,120,0
3,67,50,0
3,62,50,0
3,70,50,0
3,67,50,0
3,62,50,0
3,70,50,0
3,67,50,0
3,62,50,0
3,70,50,0
3,67,50,0
3,62,50,0
3,67,50,0
3,62,50,0
3,70,50,0
3,67,50,0
3,62,50,0
3,70,50,0
3,67,50,0
3,62,50,0
3,70,50,0
3,67,50,0
3,62,50,0
3,67,50,0
3,62,50,0
3,70,50,0
3,67,50,0
3,62,50,0
3,70,50,0
3,67,50,0
3,62,50,0
3,70,50,0
3,67,50,0
3,62,50,0
3,67,50,46080
3,62,50,0
3,70,50,0
3,67,50,0
3,62,50,0
3,70,50,0
3,67,50,0
3,62,50,0
3,70,50,0
3,67,50,0
3,62,50,0
3,67,50,0
3,62,50,0
3,70,50,0
3,67,50,0
3,62,50,0
3,70,50,0
3,67,50,0
3,62,50,0
3,70,50,0
3,67,50,0
3,62,50,0
3,67,50,0
3,62,50,0
3,70,50,0
3,67,50,0
3,62,50,0
3,70,50,0
3,67,50,0
3,62,50,0
3,70,50,0
3,67,50,0
3,62,50,0
3,67,50,0
3,62,50,0
3,70,50,0
3,67,50,0
3,62,50,0
3,70,50,0
3,67,50,0
3,62,50,0
3,70,50,0
3,67,50,0
3,62,50,0
3,67,50,46080
3,62,50,0
3,70,50,0
3,67,50,0
3,62,50,0
3,70,50,0
3,67,50,0
3,62,50,0
3,70,50,0
3,67,50,0
3,62,50,0
3,67,50,0
3,62,50,0
3,70,50,0
3,67,50,0
3,62,50,0
3,70,50,0
3,67,50,0
3,62,50,0
3,70,50,0
3,67,50,0
3,62,50,0
3,67,50,0
3,62,50,0
3,70,50,0
3,67,50,0
3,62,50,0
3,70,50,0
3,67,50,0
3,62,50,0
3,70,50,0
3,67,50,0
3,62,50,0
3,67,50,0
3,62,50,0
3,70,50,0
3,67,50,0
3,62,50,0
3,70,50,0
3,67,50,0
3,62,50,0
3,70,50,0
3,67,50,0
3,62,50,0
3,67,50,0
3,62,50,0
3,70,50,0
3,67,50,0
3,62,50,0
3,70,50,0
3,67,50,0
3,62,50,0
3,70,50,0
3,67,50,0
3,62,50,0
3,67,50,0
3,62,50,0
3,70,50,0
3,67,50,0
3,62,50,0
3,70,50,0
3,67,50,0
3,62,50,0
3,70,50,0
3,67,50,0
3,62,50,0
3,67,50,0
3,62,50,0
3,70,50,0
3,67,50,0
3,62,50,0
3,70,50,0
3,67,50,0
3,62,50,0
3,70,50,0
3,67,50,0
3,62,50,0
3,67,50,0
3,62,50,0
3,70,50,0
3,67,50,0
3,62,50,0
3,70,50,0
3,67,50,0
3,62,50,0
3,70,50,0
3,67,50,0
3,62,50,0
3,67,50,23040
3,62,50,0
3,70,50,0
3,67,50,0
3,62,50,0
3,70,50,0
3,67,50,0
3,62,50,0
3,70,50,0
3,67,50,0
3,62,50,0
3,67,50,0
3,62,50,0
3,70,50,0
3,67,50,0
3,62,50,0
3,70,50,0
3,67,50,0
3,62,50,0
3,70,50,0
3,67,50,0
3,62,50,0
3,67,50,0
3,62,50,0
3,70,50,0
3,67,50,0
3,62,50,0
3,70,50,0
3,67,50,0
3,62,50,0
3,70,50,0
3,67,50,0
3,62,50,0
3,67,50,0
3,62,50,0
3,70,50,0
3,67,50,0
3,62,50,0
3,70,50,0
3,67,50,0
3,62,50,0
3,70,50,0
3,67,50,0
3,62,50,0
3,67,50,0
3,62,50,0
3,70,50,0
3,67,50,0
3,62,50,0
3,70,50,0
3,67,50,0
3,62,50,0
3,70,50,0
3,67,50,0
3,62,50,0
3,67,50,0
3,62,50,0
3,70,50,0
3,67,50,0
3,62,50,0
3,70,50,0
3,67,50,0
3,62,50,0
3,70,50,0
3,67,50,0
3,62,50,0
3,67,50,0
3,62,50,0
3,70,50,0
3,67,50,0
3,62,50,0
3,70,50,0
3,67,50,0
3,62,50,0
3,70,50,0
3,67,50,0
3,62,50,0
3,67,50,0
3,62,50,0
3,70,50,0
3,67,50,0
3,62,50,0
3,70,50,0
3,67,50,0
3,62,50,0
3,70,50,0
3,67,50,0
3,62,50,0
3,55,120,0
3,50,120,0
3,58,120,7
3,55,120,24
3,50,120,0
3,58,120,7
3,55,120,24
3,50,120,0
3,58,120,7
3,55,120,24
3,50,120,0
4,43,120,3600
4,43,120,4
4,43,120,11
4,43,120,11
4,43,120,10
4,43,120,12
4,43,120,264
4,43,120,4
4,43,120,11
4,43,120,11
4,39,120,52
4,39,120,24
4,39,120,264
4,39,120,4
4,39,120,11
4,39,120,11
4,36,120,52
4,36,120,24
4,36,120,264
4,36,120,4
4,36,120,11
4,36,120,11
4,41,120,52
4,36,120,24
4,42,120,24
4,36,120,24
4,43,120,24
4,43,120,24
4,43,120,264
4,43,120,4
4,43,120,11
4,43,120,11
4,39,120,52
4,39,120,24
4,39,120,264
4,39,120,4
4,39,120,11
4,39,120,11
4,36,120,52
4,36,120,24
4,36,120,264
4,36,120,4
4,36,120,11
4,36,120,11
4,41,120,52
4,36,120,24
4,42,120,24
4,36,120,24
4,43,120,24
4,43,120,24
4,43,120,264
4,43,120,4
4,43,120,11
4,43,120,11
4,39,120,52
4,39,120,24
4,39,120,264
4,39,120,4
4,39,120,11
4,39,120,11
4,36,120,52
4,36,120,24
4,36,120,264
4,36,120,4
4,36,120,11
4,36,120,11
4,41,120,52
4,36,120,24
4,42,120,24
4,36,120,24
4,43,120,24
4,43,120,24
4,43,120,264
4,43,120,4
4,43,120,11
4,43,120,11
4,39,120,52
4,39,120,24
4,39,120,264
4,39,120,4
4,39,120,11
4,39,120,11
4,36,120,52
4,36,120,24
4,36,120,264
4,36,120,4
4,36,120,11
4,36,120,11
4,41,120,52
4,36,120,24
4,42,120,24
4,36,120,24
4,43,120,24
4,43,120,24
4,43,120,264
4,43,120,4
4,43,120,11
4,43,120,11
4,39,120,52
4,39,120,24
4,39,120,264
4,39,120,4
4,39,120,11
4,39,120,11
4,36,120,52
4,36,120,24
4,36,120,264
4,36,120,4
4,36,120,11
4,36,120,11
4,41,120,52
4,36,120,24
4,42,120,24
4,36,120,24
4,43,120,24
4,43,120,24
4,43,120,264
4,43,120,4
4,43,120,11
4,43,120,11
4,39,120,52
4,39,120,24
4,39,120,264
4,39,120,4
4,39,120,11
4,39,120,11
4,36,120,52
4,36,120,24
4,36,120,264
4,36,120,4
4,36,120,11
4,36,120,11
4,41,120,52
4,36,120,24
4,42,120,24
4,36,120,24
4,43,120,24
4,43,120,24
4,43,120,264
4,43,120,4
4,43,120,11
4,43,120,11
4,39,120,52
4,39,120,24
4,39,120,264
4,39,120,4
4,39,120,11
4,39,120,11
4,36,120,52
4,36,120,24
4,36,120,264
4,36,120,4
4,36,120,11
4,36,120,11
4,41,120,52
4,36,120,24
4,42,120,24
4,36,120,24
4,43,120,24
4,43,120,24
4,43,120,264
4,43,120,4
4,43,120,11
4,43,120,11
4,39,120,52
4,39,120,24
4,39,120,264
4,39,120,4
4,39,120,11
4,39,120,11
4,36,120,52
4,36,120,24
4,36,120,264
4,36,120,4
4,36,120,11
4,36,120,11
4,41,120,52
4,36,120,24
4,42,120,24
4,36,120,24
4,43,120,24
4,43,120,24
4,43,120,264
4,43,120,4
4,43,120,11
4,43,120,11
4,39,120,52
4,39,120,24
4,39,120,264
4,39,120,4
4,39,120,11
4,39,120,11
4,36,120,52
4,36,120,24
4,36,120,264
4,36,120,4
4,36,120,11
4,36,120,11
4,41,120,52
4,36,120,24
4,42,120,24
4,36,120,24
4,43,120,24
4,43,120,24
4,43,120,264
4,43,120,4
4,43,120,11
4,43,120,11
4,39,120,52
4,39,120,24
4,39,120,264
4,39,120,4
4,39,120,11
4,39,120,11
4,36,120,52
4,36,120,24
4,36,120,264
4,36,120,4
4,36,120,11
4,36,120,11
4,41,120,52
4,36,120,24
4,42,120,24
4,36,120,24
4,43,120,24
4,43,120,24
4,43,120,264
4,43,120,4
4,43,120,11
4,43,120,11
4,39,120,52
4,39,120,24
4,39,120,264
4,39,120,4
4,39,120,11
4,39,120,11
4,36,120,52
4,36,120,24
4,36,120,264
4,36,120,4
4,36,120,11
4,36,120,11
4,41,120,52
4,36,120,24
4,42,120,24
4,36,120,24
4,43,120,24
4,43,120,24
4,43,120,264
4,43,120,4
4,43,120,11
4,43,120,11
4,39,120,52
4,39,120,24
4,39,120,264
4,39,120,4
4,39,120,11
4,39,120,11
4,36,120,52
4,36,120,24
4,36,120,264
4,36,120,4
4,36,120,11
4,36,120,11
4,41,120,52
4,36,120,24
4,42,120,24
4,36,120,24
4,42,120,24
4,42,120,24
4,42,120,264
4,42,120,4
4,42,120,11
4,42,120,11
4,41,120,52
4,41,120,24
4,41,120,264
4,41,120,4
4,41,120,11
4,41,120,11
4,39,120,52
4,39,120,24
4,39,120,264
4,39,120,4
4,39,120,11
4,39,120,11
4,41,120,52
4,39,120,24
4,43,120,24
4,46,120,24
4,42,120,24
4,42,120,24
4,42,120,264
4,42,120,4
4,42,120,11
4,42,120,11
4,41,120,52
4,41,120,24
4,41,120,264
4,41,120,4
4,41,120,11
4,41,120,11
4,39,120,52
4,39,120,24
4,39,120,264
4,39,120,4
4,39,120,11
4,39,120,11
4,41,120,52
4,39,120,24
4,43,120,24
4,46,120,24
4,43,120,24
4,43,120,24
4,43,120,264
4,43,120,4
4,43,120,11
4,43,120,11
4,39,120,52
4,39,120,24
4,39,120,264
4,39,120,4
4,39,120,11
4,39,120,11
4,36,120,52
4,36,120,24
4,36,120,264
4,36,120,4
4,36,120,11
4,36,120,11
4,41,120,52
4,36,120,24
4,42,120,24
4,36,120,24
4,43,120,24
4,43,120,24
4,43,120,264
4,43,120,4
4,43,120,11
4,43,120,11
4,39,120,52
4,39,120,24
4,39,120,264
4,39,120,4
4,39,120,11
4,39,120,11
4,36,120,52
4,36,120,24
4,36,120,264
4,36,120,4
4,36,120,11
4,36,120,11
4,41,120,52
4,36,120,24
4,42,120,24
4,36,120,24
4,43,120,24
4,43,120,24
4,43,120,264
4,43,120,4
4,43,120,11
4,43,120,11
4,39,120,52
4,39,120,24
4,39,120,264
4,39,120,4
4,39,120,11
4,39,120,11
