track,note,velocity,time
1,66,97,8
1,66,93,8
1,65,81,0
1,66,89,0
1,66,97,4
1,66,95,4
1,66,79,40
1,66,78,28
1,66,91,48
1,66,91,4
1,66,67,64
1,66,104,4
1,66,84,56
1,62,86,0
1,62,87,88
1,59,80,4
1,62,83,16
1,66,81,0
1,66,81,60
1,64,60,0
1,66,91,88
1,66,91,92
1,57,84,96
1,69,83,136
1,66,85,0
1,65,64,12
1,66,75,44
1,66,91,56
1,64,60,0
1,66,74,64
1,62,73,0
1,62,85,84
1,59,66,116
1,62,82,96
1,67,86,2152
1,67,86,48
1,70,104,8
1,67,79,24
1,69,92,104
1,62,70,88
1,62,87,1164
1,62,80,40
1,67,87,0
1,67,80,68
1,67,87,28
1,70,99,4
1,69,73,84
1,69,81,1648
1,71,81,8
1,71,88,92
1,71,91,52
1,69,83,36
1,72,97,0
1,69,86,80
1,69,80,8
1,71,86,120
1,72,98,76
1,69,70,4
1,71,79,64
1,69,65,4
1,67,80,24
1,64,63,0
1,66,74,4
1,64,66,0
1,69,95,0
1,66,73,12
1,65,76,0
1,66,95,80
1,66,81,0
1,66,99,4
1,70,84,4
1,66,81,212
1,65,73,0
1,66,85,104
1,66,82,12
1,66,84,4
1,66,82,72
1,66,82,72
1,66,74,0
1,66,91,64
1,64,73,12
1,68,87,4
1,66,77,8
1,68,60,40
1,68,70,12
1,68,82,32
1,68,85,16
1,68,77,20
1,68,68,4
1,68,67,36
1,68,81,44
1,65,74,16
1,68,79,4
1,68,77,8
1,70,107,16
1,73,107,0
1,70,84,0
1,70,74,60
1,70,84,4
1,70,97,72
1,68,70,4
1,66,78,632
1,71,90,8
1,71,94,8
1,71,73,24
1,71,94,32
1,71,85,36
1,71,87,40
1,71,94,4
1,59,80,100
1,59,83,0
1,71,81,92
1,67,73,224
1,68,64,12
1,71,81,44
1,67,64,0
1,68,68,120
1,71,90,0
1,59,76,92
1,59,68,0
1,66,81,72
1,66,99,36
1,67,81,48
1,68,84,40
1,71,92,44
1,73,99,16
1,73,110,44
1,71,83,12
1,73,110,4
1,71,84,4
1,68,97,68
1,71,100,4
1,71,108,12
1,71,104,8
1,71,112,68
1,71,104,8
1,71,91,36
1,71,97,48
1,74,100,4
1,71,92,4
1,71,90,620
1,76,117,0
1,74,117,84
1,71,92,248
1,71,108,0
1,67,80,0
1,68,101,12
1,71,104,0
1,71,108,60
1,66,104,0
1,66,84,52
1,67,73,0
1,68,89,80
1,71,97,36
1,73,119,0
1,73,113,68
1,71,80,80
1,73,127,4
1,71,104,128
1,73,116,4
1,74,127,0
1,71,104,24
2,51,45,19868
2,40,42,64
2,51,39,4
2,51,32,56
2,40,53,4
2,51,40,28
2,40,52,72
2,51,37,4
2,51,28,60
2,51,40,56
2,40,43,4
2,38,60,12
2,40,48,40
2,51,47,0
2,40,52,44
2,51,35,4
2,51,31,48
2,40,40,60
2,51,44,4
2,51,37,80
2,40,46,4
2,38,61,4
2,39,56,28
2,51,37,12
2,40,62,64
2,51,44,8
2,40,47,40
2,51,39,4
2,51,29,64
2,40,46,60
2,51,42,4
2,40,42,52
2,51,47,0
2,40,42,72
2,51,38,4
2,40,38,48
2,51,32,8
2,39,58,120
2,40,56,64
2,51,33,8
2,40,62,48
2,51,43,4
2,51,42,40
2,40,62,4
2,38,59,12
2,39,67,8
2,51,33,4
2,40,56,72
2,51,48,4
2,51,45,20
2,40,59,8
2,51,39,48
2,51,41,52
2,40,50,0
2,40,50,40
2,51,47,0
2,39,61,48
2,51,39,0
2,38,70,72
2,51,41,0
2,40,63,4
2,51,49,12
2,51,51,36
2,40,52,4
2,40,51,60
2,51,42,4
2,40,55,60
2,51,53,0
2,51,12,68
2,40,47,68
2,51,52,0
2,40,50,28
2,51,54,0
2,39,61,0
2,38,63,84
2,51,32,0
2,40,68,4
2,51,40,4
2,40,60,56
2,51,41,4
2,38,66,64
2,51,26,8
2,40,62,76
2,51,47,4
2,51,40,48
2,40,57,4
2,38,67,52
2,51,33,0
2,40,60,72
2,51,47,0
2,51,43,88
2,40,59,4
2,38,61,0
2,51,45,0
2,40,60,60
2,40,56,72
2,51,52,0
2,40,58,52
2,51,48,0
2,51,49,72
2,51,57,80
2,51,58,224
2,51,49,332
2,51,51,124
2,40,52,4
2,40,51,60
2,51,42,4
2,40,55,60
2,51,53,0
2,51,12,68
2,40,47,68
2,51,52,0
2,40,50,28
2,51,54,0
2,39,61,0
2,38,63,84
2,51,32,0
2,40,68,4
2,51,40,4
2,40,60,56
2,51,41,4
2,38,66,64
2,51,26,8
2,40,62,76
2,51,47,4
2,51,40,48
2,40,57,4
2,38,67,52
2,51,33,0
2,40,60,72
2,51,47,0
2,51,43,88
2,40,59,4
2,38,61,0
2,51,45,0
2,40,60,60
2,40,56,72
2,51,52,0
2,40,58,52
2,51,48,0
2,51,49,72
2,51,57,80
2,51,89,236
2,51,49,304
2,51,51,124
2,40,52,4
2,40,51,60
2,51,42,4
2,40,55,60
2,51,53,0
2,51,12,68
2,40,47,68
2,51,52,0
2,40,50,28
2,51,54,0
2,39,61,0
2,38,63,84
2,51,32,0
2,40,68,4
2,51,40,4
2,40,60,56
2,51,41,4
2,38,66,64
2,51,26,8
2,40,62,76
2,51,47,4
2,51,40,48
2,40,57,4
2,38,67,52
2,51,33,0
2,40,60,72
2,51,47,0
2,51,43,88
2,40,59,4
2,38,61,0
2,51,45,0
2,40,60,60
2,40,56,72
2,51,52,0
2,40,58,52
2,51,48,0
2,51,49,72
2,51,57,80
2,51,49,608
2,51,51,124
2,40,52,4
2,40,51,60
2,51,42,4
2,40,55,60
2,51,53,0
2,51,12,68
2,40,47,68
2,51,52,0
2,40,50,28
2,51,54,0
2,39,61,0
2,38,63,84
2,51,32,0
2,40,68,4
2,51,40,4
2,40,60,56
2,51,41,4
2,38,66,64
2,51,26,8
2,40,62,76
2,51,47,4
2,51,40,48
2,40,57,4
2,38,67,52
2,51,33,0
2,40,60,72
2,51,47,0
2,51,43,88
2,40,59,4
2,38,61,0
2,51,45,0
2,40,60,60
2,40,56,72
2,51,52,0
2,40,58,52
2,51,48,0
2,51,49,72
2,51,57,80
2,51,49,608
2,51,51,124
2,40,52,4
2,40,51,60
2,51,42,4
2,36,99,4
2,40,55,60
2,51,53,0
2,39,127,4
2,39,126,68
2,51,12,0
2,40,47,44
2,51,52,0
2,36,99,4
2,39,127,20
2,40,50,8
2,51,54,0
2,39,61,0
2,38,63,84
2,51,32,0
2,36,40,4
2,40,68,4
2,51,40,4
2,36,103,8
2,40,60,56
2,51,41,4
2,39,126,4
2,36,66,0
2,38,66,64
2,51,26,8
2,39,127,8
2,40,62,4
2,51,47,4
2,36,93,12
2,51,40,48
2,40,57,4
2,39,127,0
2,38,67,52
2,51,33,0
2,36,35,4
2,36,93,72
2,40,60,0
2,51,47,0
2,51,43,88
2,40,59,4
2,39,127,4
2,38,61,0
2,51,45,0
2,40,60,52
2,39,127,0
2,40,56,72
2,51,52,0
2,36,101,0
2,40,58,52
2,51,48,0
2,39,127,12
2,51,49,72
2,36,42,8
2,51,57,80
2,36,99,0
2,39,127,224
2,36,55,144
2,51,49,80
2,36,99,0
2,51,51,124
2,40,52,4
2,39,127,4
2,36,40,184
2,40,51,60
2,51,42,4
2,36,85,8
2,40,55,60
2,51,53,0
2,39,126,4
2,39,127,4
2,51,12,0
2,40,47,32
2,51,52,0
2,36,93,4
2,39,126,24
2,40,50,4
2,51,54,0
2,39,61,0
2,38,63,84
2,51,32,0
2,36,45,8
2,40,68,4
2,51,40,4
2,36,81,8
2,40,60,56
2,51,41,4
2,39,126,4
2,38,66,64
2,51,26,8
2,36,47,4
2,40,62,76
2,51,47,4
2,36,95,8
2,39,127,48
2,51,40,0
2,40,57,4
2,38,67,52
2,51,33,0
2,36,39,4
2,40,60,72
2,51,47,0
2,36,86,4
2,51,43,88
2,40,59,4
2,39,127,12
2,38,61,0
2,51,45,0
2,40,60,60
2,36,39,0
2,40,56,64
2,51,52,0
2,36,76,12
2,40,58,52
2,51,48,0
2,39,127,8
2,51,49,72
2,36,44,8
2,36,81,76
2,51,57,4
2,39,127,228
2,39,127,124
2,36,105,44
2,51,49,4
2,51,51,124
2,39,127,4
2,40,52,0
2,36,43,112
2,40,51,60
2,51,42,4
2,36,80,4
2,40,55,60
2,51,53,0
2,39,127,8
2,39,127,64
2,51,12,4
2,36,90,68
2,40,47,0
2,51,52,0
2,39,126,24
2,40,50,4
2,51,54,0
2,39,61,0
2,36,45,84
2,38,63,0
2,51,32,0
2,40,68,4
2,51,40,4
2,36,85,4
2,40,60,56
2,51,41,4
2,39,126,4
2,38,66,64
2,51,26,8
2,36,51,4
2,40,62,76
2,51,47,4
2,36,103,4
2,51,40,48
2,40,57,4
2,39,127,4
2,38,67,52
2,51,33,0
2,36,42,4
2,40,60,72
2,51,47,0
2,36,101,4
2,51,43,88
2,40,59,4
2,39,127,16
2,38,61,0
2,51,45,0
2,40,60,0
2,39,127,0
2,40,56,44
2,51,52,0
2,36,105,16
2,40,58,52
2,51,48,0
2,39,127,8
2,51,49,72
2,36,38,4
2,36,90,76
2,51,57,4
2,39,127,224
2,36,38,108
2,51,49,68
2,36,85,0
2,51,51,124
2,39,127,4
2,40,52,0
2,40,51,60
2,51,42,4
2,36,99,4
2,40,55,60
2,51,53,0
2,39,127,4
2,45,75,88
2,43,74,0
2,43,121,4
2,51,12,8
2,36,113,68
2,40,47,0
2,51,52,0
2,39,127,28
2,40,50,0
2,51,54,0
2,39,61,0
2,38,63,84
2,51,32,0
2,36,58,8
2,40,68,4
2,51,40,4
2,36,78,8
2,40,60,56
2,51,41,4
2,39,127,4
2,38,66,64
2,36,46,8
2,51,26,0
2,40,62,68
2,36,86,4
2,51,47,0
2,51,40,48
2,40,57,4
2,39,127,0
2,38,67,52
2,51,33,0
2,40,60,72
2,51,47,0
2,36,97,4
2,51,43,88
2,40,59,4
2,39,127,8
2,38,61,0
2,51,45,0
2,40,60,60
2,45,101,0
2,40,56,72
2,51,52,0
2,36,121,16
2,40,58,52
2,51,48,0
2,51,49,72
2,51,57,80
2,51,49,608
2,51,51,124
2,40,52,4
2,40,51,60
2,51,42,4
2,40,55,60
2,51,53,0
2,45,119,132
2,43,125,60
2,51,12,8
2,36,113,68
2,40,47,0
2,51,52,0
2,39,127,24
2,42,92,4
2,40,50,0
2,51,54,0
2,39,61,0
2,38,63,84
2,51,32,0
2,36,53,4
2,40,68,4
2,51,40,4
2,36,107,4
2,40,60,56
2,51,41,4
2,39,127,4
2,42,97,0
2,38,66,64
2,51,26,8
2,39,127,4
2,40,62,52
2,51,47,4
2,36,107,4
2,39,127,48
2,51,40,0
2,40,57,4
2,38,67,12
2,51,33,0
2,40,60,72
2,51,47,0
2,36,90,4
2,51,43,88
2,40,59,4
2,39,127,8
2,38,61,0
2,51,45,0
2,40,60,60
2,39,127,4
2,40,56,40
2,51,52,0
2,36,92,16
2,40,58,52
2,51,48,0
2,39,127,12
2,51,49,72
2,36,44,4
2,36,89,80
2,51,57,0
2,39,127,228
2,36,33,108
2,51,49,88
2,36,99,12
2,51,51,124
2,40,52,4
2,39,126,8
2,36,103,56
2,40,51,4
2,51,42,4
2,39,127,56
2,40,55,4
2,51,53,0
2,39,127,60
2,51,12,8
2,36,109,68
2,40,47,0
2,51,52,0
3,43,59,19968
3,41,64,24
3,40,65,396
3,38,51,356
3,36,58,768
3,38,53,604
3,34,49,136
3,40,63,748
3,33,58,752
3,39,47,728
3,38,51,760
3,38,51,48
3,39,42,4
3,39,51,60
3,41,67,28
3,33,68,2068
3,54,91,0
3,50,69,40
3,45,79,0
3,42,73,128
3,33,76,116
3,38,80,136
3,38,81,56
3,35,70,0
3,36,73,0
3,37,84,0
3,36,79,776
3,35,75,8
3,42,46,520
3,47,75,36
3,42,72,112
3,45,78,8
3,47,72,0
3,42,81,184
3,34,67,160
3,46,71,540
3,45,70,4
3,33,74,412
3,32,56,380
3,38,80,0
3,39,74,728
3,44,79,784
3,43,70,12
3,42,78,372
3,42,67,48
3,45,68,368
3,37,56,0
3,42,87,28
3,49,72,0
3,48,73,196
3,36,67,356
3,42,72,0
3,35,70,4
3,47,66,780
3,42,75,556
3,35,73,4
3,47,73,752
3,41,79,4
3,40,74,0
3,40,64,36
3,40,70,44
3,47,73,8
3,38,66,176
3,37,61,12
3,35,70,380
3,40,72,744
3,42,61,32
3,43,69,0
3,44,77,132
3,43,64,764
3,42,77,0
3,35,68,376
3,35,64,20
3,35,75,64
3,41,85,4
3,41,64,64
3,40,73,124
3,33,72,720
3,33,57,64
3,33,62,80
3,38,80,120
3,45,74,388
3,42,82,364
3,38,76,376
3,45,70,124
3,42,63,100
3,37,59,108
3,37,64,48
3,42,68,8
3,42,82,76
3,37,61,112
3,36,64,104
3,35,73,120
3,37,74,360
3,38,83,372
3,42,63,388
3,43,73,4
3,38,79,384
3,35,64,0
3,38,60,0
3,40,73,132
3,42,85,96
3,44,64,128
3,42,67,0
3,38,70,396
3,35,59,352
3,38,65,12
3,38,65,48
3,39,74,132
3,39,63,64
3,43,65,252
3,44,68,0
3,44,67,72
3,43,60,8
3,42,75,8
3,37,81,380
3,30,68,364
3,42,50,384
3,44,81,0
3,42,95,120
3,43,67,0
3,43,70,60
3,42,67,364
3,44,56,12
3,42,75,56
3,44,67,120
3,42,91,4
3,35,73,0
3,35,68,60
3,42,44,276
3,47,79,116
3,45,68,0
3,42,70,128
3,42,67,96
3,35,66,128
3,35,69,28
3,35,64,140
3,47,68,120
3,45,75,0
3,42,61,0
3,36,83,124
3,35,77,116
3,40,80,52
3,40,61,396
3,35,80,260
3,28,80,0
3,35,70,368
3,35,76,76
3,28,80,0
3,40,87,400
3,35,75,248
3,28,81,8
3,40,88,0
3,38,80,0
3,37,67,108
3,35,73,0
3,40,80,772
3,42,72,596
3,44,72,172
3,43,76,752
3,42,81,372
3,35,75,344
3,42,49,272
3,47,85,0
3,38,74,256
3,42,78,108
3,35,61,4
3,35,57,68
3,35,83,64
3,35,68,24
3,35,73,76
3,40,81,140
3,35,65,240
3,38,78,116
3,54,61,16
3,55,70,128
3,56,78,120
3,54,72,4
3,52,70,0
3,51,79,136
3,50,66,108
3,47,79,112
3,35,81,4
3,42,67,276
3,47,83,4
3,38,68,32
3,42,93,132
3,38,66,244
3,47,80,112
3,42,72,200
3,40,55,20
3,47,63,248
3,52,77,52
3,47,61,84
3,50,85,12
3,47,47,120
3,44,74,4
3,40,87,12
3,38,78,0
3,37,74,0
3,36,80,136
3,35,63,124
4,58,55,19968
4,67,65,4
4,62,62,0
4,62,43,56
4,67,56,0
4,58,45,0
4,62,58,8
4,58,51,68
4,62,56,4
4,65,62,8
4,58,55,68
4,64,61,8
4,62,60,0
4,64,41,68
4,57,41,0
4,53,59,8
4,57,54,80
4,64,64,0
4,53,66,4
4,57,60,16
4,57,60,84
4,53,69,0
4,62,63,8
4,57,50,56
4,62,57,0
4,53,70,0
4,52,57,40
4,62,61,4
4,58,51,0
4,52,51,0
4,55,52,4
4,62,69,0
4,58,53,68
4,62,70,4
4,52,66,0
4,55,56,116
4,58,52,12
4,67,67,4
4,62,65,0
4,58,45,68
4,67,60,8
4,62,64,0
4,70,62,12
4,61,46,4
4,55,38,0
4,65,50,0
4,70,55,44
4,65,50,4
4,61,53,0
4,55,53,0
4,65,45,76
4,69,60,0
4,61,42,4
4,55,58,8
4,61,42,36
4,69,64,0
4,65,56,0
4,55,56,8
4,53,68,48
4,64,60,8
4,59,56,0
4,59,63,56
4,64,68,4
4,53,61,60
4,59,59,88
4,64,66,0
4,59,60,56
4,64,62,0
4,51,55,72
4,60,52,4
4,55,52,0
4,63,49,0
4,60,60,80
4,63,55,4
4,55,43,24
4,51,61,52
4,60,60,16
4,63,54,0
4,60,56,56
4,63,51,0
4,51,56,0
4,55,59,0
4,51,62,40
4,62,59,8
4,57,57,0
4,67,62,0
5,64,68,21504
