track,note,velocity,time
1,73,96,0
1,83,96,0
1,80,96,0
1,78,96,0
1,76,96,192
1,75,96,0
1,76,96,0
1,73,96,192
1,83,96,0
1,80,96,0
1,78,96,0
1,76,96,192
1,75,96,0
1,76,96,0
1,73,96,192
1,83,96,0
1,80,96,0
1,78,96,0
1,76,96,192
1,75,96,0
1,76,96,0
1,73,96,192
1,83,96,0
1,80,96,0
1,78,96,0
1,76,96,192
1,75,96,0
1,76,96,0
1,83,34,6144
1,80,70,0
1,78,96,0
1,76,96,192
1,75,96,0
1,76,96,0
1,73,96,192
1,83,96,0
1,80,96,0
1,78,96,0
1,76,96,192
1,75,96,0
1,76,96,0
1,85,96,0
1,80,96,96
1,85,96,0
1,90,96,0
1,92,96,0
1,85,96,0
1,80,96,96
1,85,96,0
1,90,96,0
1,92,96,0
1,85,96,0
1,80,96,96
1,85,96,0
1,90,96,0
1,92,96,0
1,85,96,0
1,80,96,96
1,85,96,0
1,90,96,0
1,92,96,0
1,85,96,0
1,80,96,96
1,85,96,0
1,90,96,0
1,92,96,0
1,85,96,0
1,80,96,96
1,85,96,0
1,90,96,0
1,92,96,0
1,85,96,0
1,80,96,96
1,85,96,0
1,90,96,0
1,92,96,0
1,85,96,0
1,80,96,96
1,85,96,0
1,90,96,0
1,92,96,0
1,85,96,12192
1,80,96,96
1,85,96,0
1,90,96,0
1,92,96,0
1,85,96,0
1,80,96,96
1,85,96,0
1,90,96,0
1,92,96,0
1,85,96,0
1,80,96,96
1,85,96,0
1,90,96,0
1,92,96,0
1,85,96,0
1,80,96,96
1,85,96,0
1,90,96,0
1,92,96,0
1,85,96,0
1,80,96,96
1,85,96,0
1,90,96,0
1,92,96,0
1,85,96,0
1,80,96,96
1,85,96,0
1,90,96,0
1,92,96,0
1,85,96,0
1,80,96,96
1,85,96,0
1,90,96,0
1,92,96,0
1,85,96,0
1,80,96,96
1,85,96,0
1,90,96,0
1,92,96,0
1,85,96,0
1,80,96,96
1,85,96,0
1,90,96,0
1,92,96,0
2,80,80,3168
2,85,80,0
2,80,51,0
2,85,51,0
2,80,42,0
2,85,42,0
2,80,17,0
2,85,17,0
2,92,17,29184
2,93,17,0
2,97,17,0
2,93,17,0
2,103,17,0
2,102,17,0
3,68,40,96
3,68,40,0
3,68,40,0
3,68,40,0
3,68,40,0
3,68,40,0
3,68,40,0
3,68,40,0
3,68,40,0
3,68,40,0
3,68,40,0
3,68,40,0
3,68,40,0
3,68,40,0
3,68,40,0
3,68,40,0
3,68,40,0
3,68,40,0
3,68,40,0
3,68,40,0
3,68,40,0
3,68,40,0
3,68,40,0
3,68,40,0
3,68,40,0
3,68,40,0
3,68,40,0
3,68,40,0
3,68,40,0
3,68,40,0
3,68,40,0
3,68,40,0
3,68,40,0
3,68,40,0
3,68,40,0
3,68,40,0
3,68,40,0
3,68,40,0
3,68,40,0
3,68,40,0
3,68,40,0
3,68,40,0
3,68,40,0
3,68,40,0
3,68,40,0
3,68,40,0
3,68,40,0
3,68,40,0
3,68,40,0
3,68,40,0
3,68,40,0
3,68,40,0
3,68,40,0
3,68,40,0
3,68,40,0
3,68,40,0
3,68,40,0
3,68,40,0
3,68,40,0
3,68,40,0
3,68,40,0
3,68,40,0
3,68,40,0
3,68,40,0
3,68,40,0
3,68,40,0
3,68,40,0
3,68,40,0
3,68,40,0
3,68,40,0
3,68,40,0
3,68,40,0
3,68,40,0
3,68,40,0
3,68,40,0
3,68,40,0
3,68,40,0
3,68,40,0
3,68,40,0
3,68,40,0
3,68,40,0
3,68,40,0
3,68,40,0
3,68,40,0
3,68,40,0
3,68,40,0
3,68,40,0
3,68,40,0
3,68,40,0
3,68,40,0
3,68,40,0
3,68,40,0
3,68,40,0
3,68,40,0
3,68,40,0
3,68,40,0
3,68,40,0
3,68,40,0
3,68,40,0
3,68,40,0
3,68,40,0
3,68,40,0
3,68,40,0
3,68,40,0
3,68,40,0
3,68,40,0
3,68,40,0
3,68,40,0
3,68,40,0
3,68,40,0
3,68,40,0
3,68,40,0
3,68,40,0
3,68,40,0
3,68,40,0
3,68,40,0
3,68,40,0
3,68,40,0
3,68,40,0
3,68,40,0
3,68,40,0
3,68,40,0
3,68,40,0
3,68,40,0
3,68,40,0
3,68,40,0
3,68,40,0
3,68,40,0
3,68,40,9216
3,68,40,0
3,68,40,0
3,68,40,0
3,68,40,0
3,68,40,0
3,68,40,0
3,68,40,0
3,68,40,0
3,68,40,0
3,68,40,0
3,68,40,0
3,68,40,0
3,68,40,0
3,68,40,0
3,68,40,0
3,68,40,0
3,68,40,0
3,68,40,0
3,68,40,0
3,68,40,0
3,68,40,0
3,68,40,0
3,68,40,0
3,68,40,0
3,68,40,0
3,68,40,0
3,68,40,0
3,68,40,0
3,68,40,0
3,68,40,0
3,68,40,0
3,68,40,0
3,68,40,0
3,68,40,0
3,68,40,0
3,68,40,0
3,68,40,0
3,68,40,0
3,68,40,0
3,68,40,0
3,68,40,0
3,68,40,0
3,68,40,0
3,68,40,0
3,68,40,0
3,68,40,0
3,68,40,0
3,68,40,0
3,68,40,0
3,68,40,0
3,68,40,0
3,68,40,0
3,68,40,0
3,68,40,0
3,68,40,0
3,68,40,0
3,68,40,0
3,68,40,0
3,68,40,0
3,68,40,0
3,68,40,0
3,68,40,0
3,68,40,0
3,68,40,0
3,68,40,0
3,68,40,0
3,68,40,0
3,68,40,0
3,68,40,0
3,68,40,0
3,68,40,0
3,68,40,0
3,68,40,0
3,68,40,0
3,68,40,0
3,68,40,0
3,68,40,0
3,68,40,0
3,68,40,0
3,68,40,0
3,68,40,0
3,68,40,0
3,68,40,0
3,68,40,0
3,68,40,0
3,68,40,0
3,68,40,0
3,68,40,0
3,68,40,0
3,68,40,0
3,68,40,0
3,68,40,0
3,68,40,0
3,68,40,0
3,68,40,0
3,68,40,0
3,68,40,0
3,68,40,0
3,68,40,0
3,68,40,0
3,68,40,0
3,68,40,0
3,68,40,0
3,68,40,0
3,68,40,0
3,68,40,0
3,68,40,0
3,68,40,0
3,68,40,0
3,68,40,0
3,68,40,0
3,68,40,0
3,68,40,0
3,68,40,0
3,68,40,0
3,68,40,0
3,68,40,0
3,68,40,0
3,68,40,0
3,68,40,0
3,68,40,0
3,68,40,0
3,68,40,0
3,68,40,0
3,68,40,0
3,68,40,0
3,68,40,0
3,68,40,0
3,68,40,0
3,68,40,0
3,68,40,0
3,68,40,0
3,68,40,0
3,68,40,0
3,68,40,0
3,68,40,0
3,68,40,0
3,68,40,0
3,68,40,0
3,68,40,0
3,68,40,0
3,68,40,0
3,68,40,0
3,68,40,0
3,68,40,0
3,68,40,0
3,68,40,0
3,68,40,0
3,68,40,0
3,68,40,0
3,68,40,0
3,68,40,0
3,68,40,0
3,68,40,0
3,68,40,0
3,68,40,0
3,68,40,0
3,68,40,0
3,68,40,0
3,68,40,0
3,68,40,0
3,68,40,0
3,68,40,0
3,68,40,0
3,68,40,0
3,68,40,0
3,68,40,0
3,68,40,0
3,68,40,0
3,68,40,0
3,68,40,0
3,68,40,0
3,68,40,0
3,68,40,0
3,68,40,0
3,68,40,0
3,68,40,0
3,68,40,0
3,68,40,0
3,68,40,0
3,68,40,0
3,68,40,0
3,68,40,0
3,68,40,0
3,68,40,0
3,68,40,0
3,68,40,0
3,68,40,0
3,68,40,0
3,68,40,0
3,68,40,0
3,68,40,0
3,68,40,0
3,68,40,0
3,68,40,0
3,68,40,0
3,68,40,0
3,68,40,0
3,68,40,0
3,68,40,0
3,68,40,0
3,68,40,0
3,68,40,0
3,68,40,0
3,68,40,0
3,68,40,0
3,68,40,0
3,68,40,0
3,68,40,0
3,68,40,0
3,68,40,0
3,68,40,0
3,68,40,0
3,68,40,0
3,68,40,0
3,68,40,0
3,68,40,0
3,68,40,0
3,68,40,0
3,68,40,0
3,68,40,0
3,68,40,0
3,68,40,0
3,68,40,0
3,68,40,0
3,68,40,0
3,68,40,0
3,68,40,0
3,68,40,0
3,68,40,0
3,68,40,0
3,68,40,0
3,68,40,0
3,68,40,0
3,68,40,0
3,68,40,0
3,68,40,0
3,68,40,0
3,68,40,0
3,68,40,0
3,68,40,0
3,68,40,0
3,68,40,0
3,68,40,0
3,68,40,0
3,68,40,0
3,68,40,0
3,68,40,0
3,68,40,0
3,68,40,0
3,68,40,0
3,68,40,0
3,68,40,0
3,68,40,6240
3,68,40,0
3,68,40,0
3,68,40,0
3,68,40,0
3,68,40,0
3,68,40,0
3,68,40,0
3,68,40,0
3,68,40,0
3,68,40,0
3,68,40,0
3,68,40,0
3,68,40,0
3,68,40,0
3,68,40,0
3,68,40,0
3,68,40,0
3,68,40,0
3,68,40,0
3,68,40,0
3,68,40,0
3,68,40,0
3,68,40,0
3,68,40,0
3,68,40,0
3,68,40,0
3,68,40,0
3,68,40,0
3,68,40,0
3,68,40,0
3,68,40,0
3,68,40,0
3,68,40,0
3,68,40,0
3,68,40,0
3,68,40,0
3,68,40,0
3,68,40,0
3,68,40,0
3,68,40,0
3,68,40,0
3,68,40,0
3,68,40,0
3,68,40,0
3,68,40,0
3,68,40,0
3,68,40,0
3,68,40,0
3,68,40,0
3,68,40,0
3,68,40,0
3,68,40,0
3,68,40,0
3,68,40,0
3,68,40,0
3,68,40,0
3,68,40,0
3,68,40,0
3,68,40,0
3,68,40,0
3,68,40,0
3,68,40,0
3,68,40,0
3,68,40,0
3,68,40,0
3,68,40,0
3,68,40,0
3,68,40,0
3,68,40,0
3,68,40,0
3,68,40,0
3,68,40,0
3,68,40,0
3,68,40,0
3,68,40,0
3,68,40,0
3,68,40,0
3,68,40,0
3,68,40,0
3,68,40,0
3,68,40,0
3,68,40,0
3,68,40,0
3,68,40,0
3,68,40,0
3,68,40,0
3,68,40,0
3,68,40,0
3,68,40,0
3,68,40,0
3,68,40,0
3,68,40,0
3,68,40,0
3,68,40,0
3,68,40,0
3,68,40,0
3,68,40,0
3,68,40,0
3,68,40,0
3,68,40,0
3,68,40,0
3,68,40,0
3,68,40,0
3,68,40,0
3,68,40,0
3,68,40,0
3,68,40,0
3,68,40,0
3,68,40,0
3,68,40,0
3,68,40,0
3,68,40,0
3,68,40,0
3,68,40,0
3,68,40,0
3,68,40,0
3,68,40,0
3,68,40,0
3,68,40,0
3,68,40,0
3,68,40,0
3,68,40,0
3,68,40,0
3,68,40,0
3,68,40,0
3,68,40,0
3,68,40,0
3,68,40,0
3,68,40,0
3,68,40,0
3,68,40,0
3,68,40,0
3,68,40,0
3,68,40,0
3,68,40,0
3,68,40,0
3,68,40,0
3,68,40,0
3,68,40,0
3,68,40,0
3,68,40,0
3,68,40,0
3,68,40,0
3,68,40,0
3,68,40,0
3,68,40,0
3,68,40,0
3,68,40,0
3,68,40,0
3,68,40,0
3,68,40,0
3,68,40,0
3,68,40,0
3,68,40,0
3,68,40,0
3,68,40,0
3,68,40,0
3,68,40,0
3,68,40,0
3,68,40,0
3,68,40,0
3,68,40,0
3,68,40,0
3,68,40,0
3,68,40,0
3,68,40,0
3,68,40,0
3,68,40,0
3,68,40,0
3,68,40,0
3,68,40,0
3,68,40,0
3,68,40,0
3,68,40,0
3,68,40,0
3,68,40,0
3,68,40,0
3,68,40,0
3,68,40,0
3,68,40,0
3,68,40,0
3,68,40,0
3,68,40,0
3,68,40,0
3,68,40,0
3,68,40,0
3,68,40,0
3,68,40,0
3,68,40,0
3,68,40,0
3,68,40,0
3,68,40,0
3,68,40,0
3,68,40,0
3,68,40,0
3,68,40,0
3,68,40,0
3,68,40,0
3,68,40,0
3,68,40,0
3,68,40,0
3,68,40,0
3,68,40,0
3,68,40,0
3,68,40,0
3,68,40,0
3,68,40,0
3,68,40,0
3,68,40,0
3,68,40,0
3,68,40,0
3,68,40,0
3,68,40,0
3,68,40,0
3,68,40,0
3,68,40,0
3,68,40,0
3,68,40,0
3,68,40,0
3,68,40,0
3,68,40,0
3,68,40,0
3,68,40,0
3,68,40,0
3,68,40,0
3,68,40,0
3,68,40,0
3,68,40,0
3,68,40,0
3,68,40,0
3,68,40,0
3,68,40,0
3,68,40,0
3,68,40,0
3,68,40,0
3,68,40,0
3,68,40,0
3,68,40,0
3,68,40,0
3,68,40,0
3,68,40,0
3,68,40,0
3,68,40,0
3,68,40,0
3,68,40,0
3,68,40,0
3,68,40,0
3,68,40,0
3,68,40,0
3,68,40,0
3,68,40,0
3,68,40,0
3,68,40,0
3,68,40,0
3,68,40,0
3,68,40,0
3,68,40,0
3,68,40,0
3,68,40,0
3,68,40,0
3,68,40,0
3,68,40,0
3,68,40,0
3,68,40,0
3,68,40,0
3,68,40,0
3,68,40,0
3,68,40,0
3,68,40,0
4,37,96,5856
4,44,96,0
4,49,96,0
4,54,96,0
4,58,96,0
4,63,96,0
4,37,96,91
4,44,96,0
4,49,96,0
4,54,96,0
4,58,96,0
4,63,96,0
4,37,96,43
4,44,96,0
4,49,96,0
4,54,96,0
4,58,96,0
4,63,96,0
4,37,96,91
4,44,96,0
4,49,96,0
4,54,96,0
4,58,96,0
4,63,96,0
4,37,96,43
4,44,96,0
4,49,96,0
4,54,96,0
4,58,96,0
4,63,96,0
4,37,96,43
4,44,96,0
4,49,96,0
4,54,96,0
4,58,96,0
4,63,96,0
4,37,96,43
4,44,96,0
4,49,96,0
4,68,96,0
4,37,96,0
4,44,96,0
4,49,96,0
4,68,96,0
4,37,96,0
4,44,96,0
4,49,96,0
4,68,96,0
4,37,96,0
4,44,96,0
4,49,96,0
4,68,96,0
4,37,96,0
4,44,96,0
4,49,96,0
4,68,96,0
4,37,96,0
4,44,96,0
4,49,96,0
4,68,96,0
4,37,96,0
4,44,96,0
4,49,96,0
4,68,96,0
4,37,96,0
4,44,96,0
4,49,96,0
4,68,96,0
4,45,96,0
4,52,96,0
4,57,96,0
4,45,96,0
4,52,96,0
4,57,96,0
4,45,96,0
4,52,96,0
4,57,96,0
4,45,96,0
4,52,96,0
4,57,96,0
4,45,96,0
4,52,96,0
4,57,96,0
4,45,96,0
4,52,96,0
4,57,96,0
4,45,96,0
4,52,96,0
4,57,96,0
4,45,96,0
4,52,96,0
4,57,96,0
4,40,96,96
4,47,96,0
4,52,96,0
4,59,96,0
4,40,96,0
4,47,96,0
4,52,96,0
4,59,96,0
4,40,96,0
4,47,96,0
4,52,96,0
4,59,96,0
4,40,96,0
4,47,96,0
4,52,96,0
4,59,96,0
4,40,96,0
4,47,96,0
4,52,96,0
4,59,96,0
4,40,96,0
4,47,96,0
4,52,96,0
4,59,96,0
4,40,96,0
4,47,96,0
4,52,96,0
4,59,96,0
4,40,96,0
4,47,96,0
4,52,96,0
4,59,96,0
4,47,96,0
4,54,96,0
4,59,96,0
4,47,96,0
4,54,96,0
4,59,96,0
4,47,96,0
4,54,96,0
4,59,96,0
4,47,96,0
4,54,96,0
4,59,96,0
4,47,96,0
4,54,96,0
4,59,96,0
4,47,96,0
4,54,96,0
4,59,96,0
4,44,96,0
4,51,96,0
4,56,96,0
4,37,96,192
4,44,96,0
4,49,96,0
4,68,96,0
4,37,96,0
4,44,96,0
4,49,96,0
4,68,96,0
4,37,96,0
4,44,96,0
4,49,96,0
4,68,96,0
4,37,96,0
4,44,96,0
4,49,96,0
4,68,96,0
4,37,96,0
4,44,96,0
4,49,96,0
4,68,96,0
4,37,96,0
4,44,96,0
4,49,96,0
4,68,96,0
4,37,96,0
4,44,96,0
4,49,96,0
4,68,96,0
4,37,96,0
4,44,96,0
4,49,96,0
4,68,96,0
4,45,96,0
4,52,96,0
4,57,96,0
4,45,96,0
4,52,96,0
4,57,96,0
4,45,96,0
4,52,96,0
4,57,96,0
4,45,96,0
4,52,96,0
4,57,96,0
4,45,96,0
4,52,96,0
4,57,96,0
4,45,96,0
4,52,96,0
4,57,96,0
4,45,96,0
4,52,96,0
4,57,96,0
4,45,96,0
4,52,96,0
4,57,96,0
4,40,96,96
4,47,96,0
4,52,96,0
4,59,96,0
4,40,96,0
4,47,96,0
4,52,96,0
