track,note,velocity,time
2,71,110,1736
2,73,100,0
2,76,102,8
2,45,114,8
2,57,96,0
2,69,104,8
2,69,94,72
2,57,52,32
2,76,76,32
2,71,116,0
2,57,56,64
2,57,106,48
2,76,104,88
2,71,114,8
2,69,102,8
2,73,56,0
2,57,86,88
2,69,90,8
2,76,104,56
2,71,127,0
2,69,114,0
2,73,52,8
2,57,110,16
2,76,102,72
2,71,122,8
2,69,100,16
2,73,90,32
2,76,72,16
2,69,96,8
2,73,52,0
2,54,78,16
2,76,98,56
2,71,116,8
2,73,78,72
2,69,76,48
2,54,52,0
2,76,106,32
2,71,116,8
2,69,100,8
2,42,58,8
2,73,80,32
2,42,80,40
2,69,98,8
2,54,54,16
2,54,52,0
2,71,102,56
2,69,108,8
2,76,96,0
2,73,92,16
2,54,52,96
2,71,116,24
2,73,72,0
2,69,114,8
2,54,108,0
2,42,94,48
2,62,108,40
2,69,114,0
2,50,104,8
2,69,127,24
2,62,96,0
2,64,114,8
2,69,127,64
2,62,110,8
2,64,110,0
2,66,72,0
2,62,56,32
2,50,106,64
2,69,127,64
2,64,110,8
2,66,86,32
2,50,108,0
2,62,98,24
2,69,127,56
2,64,110,8
2,62,62,64
2,50,76,16
2,50,116,48
2,66,68,16
2,66,80,40
2,69,112,0
2,62,108,16
2,64,100,8
2,50,108,40
2,52,116,24
2,64,62,16
2,71,122,40
2,66,127,8
2,64,92,8
2,52,92,48
2,64,52,32
2,52,116,32
2,64,98,16
2,71,108,32
2,66,122,8
2,68,102,56
2,52,116,0
2,64,78,8
2,76,108,184
2,68,122,0
2,76,104,40
2,69,127,0
2,52,90,16
2,64,78,8
2,76,108,8
2,71,127,8
2,76,80,32
2,71,110,16
2,68,108,0
2,52,72,0
2,64,96,0
2,45,122,72
2,64,80,24
2,76,98,8
2,69,127,0
2,73,106,8
2,57,90,56
2,76,76,8
2,64,104,32
2,57,106,0
2,76,94,8
2,69,127,0
2,73,98,16
2,57,60,8
2,64,102,16
2,57,108,16
2,45,112,56
2,64,102,48
2,73,114,0
2,76,110,0
2,69,127,8
2,64,100,24
2,57,96,8
2,64,52,16
2,76,98,8
2,69,127,8
2,73,108,0
2,64,56,48
2,64,98,48
2,69,127,0
2,73,114,8
2,76,104,0
2,57,127,136
2,64,56,8
2,64,98,40
2,64,78,24
2,76,84,8
2,69,127,0
2,73,114,8
2,54,106,8
2,54,94,104
2,66,106,80
2,69,127,0
2,73,112,8
2,54,98,8
2,66,102,0
2,69,52,16
2,54,74,40
2,66,100,72
2,69,127,8
2,73,110,0
2,54,78,40
2,66,94,8
2,66,76,32
2,69,127,0
2,73,112,0
2,54,114,144
2,62,110,184
2,69,127,0
2,64,116,0
2,66,74,80
2,50,78,8
2,50,116,64
2,62,114,64
2,64,116,0
2,69,127,8
2,62,114,48
2,64,112,8
2,69,127,0
2,66,96,64
2,62,86,72
2,50,104,0
2,64,110,0
2,68,110,0
2,59,98,8
2,52,82,104
2,52,127,64
2,59,90,88
2,68,116,16
2,64,116,8
2,59,70,0
2,66,106,8
2,52,78,56
2,52,116,40
2,59,84,16
2,61,114,48
2,69,102,0
2,64,104,0
2,57,100,16
2,45,112,80
2,45,114,24
2,57,100,8
2,61,98,8
2,64,102,0
2,69,110,0
2,57,106,40
2,61,92,16
2,64,106,0
2,69,110,8
2,57,68,0
2,69,127,80
2,61,127,8
2,64,116,0
2,69,122,64
2,62,127,16
2,45,116,48
2,69,127,56
2,61,127,0
2,64,122,8
2,57,100,0
2,45,84,24
2,69,122,48
2,64,108,8
2,61,122,8
2,45,104,64
2,45,127,64
2,69,116,40
2,57,108,8
2,61,112,0
2,64,108,16
2,45,127,32
2,66,110,128
2,69,122,8
2,62,114,0
2,50,100,160
2,62,108,24
2,66,102,0
2,69,116,8
2,69,72,40
2,62,104,0
2,50,74,8
2,50,96,16
2,62,106,72
2,66,112,8
2,69,127,0
2,50,90,64
2,62,102,8
2,62,86,32
2,66,116,0
2,69,127,8
2,50,62,88
2,50,108,16
2,66,60,40
2,62,102,24
2,69,116,0
2,45,122,24
2,57,122,104
2,73,110,16
2,64,100,8
2,69,127,0
2,57,94,88
2,57,110,56
2,64,102,72
2,73,114,8
2,69,127,0
2,57,110,32
2,74,110,32
2,66,82,0
2,69,127,8
2,57,74,40
2,64,104,0
2,69,114,16
2,73,90,0
2,74,108,24
2,66,94,0
2,69,127,8
2,73,100,40
2,69,127,0
2,64,100,8
2,57,52,32
2,64,108,16
2,69,127,0
2,73,127,8
2,57,102,0
2,57,116,48
2,50,112,8
2,66,110,120
2,69,127,8
2,62,114,0
2,50,86,72
2,50,110,0
2,66,108,72
2,62,108,8
2,69,127,0
2,50,108,32
2,66,80,64
2,69,108,0
2,62,94,0
2,66,104,64
2,69,122,8
2,62,108,0
2,50,92,32
2,50,52,24
2,62,108,0
2,62,90,32
2,66,110,0
2,69,127,8
2,50,84,64
2,50,116,40
2,64,98,32
2,52,108,24
2,68,108,8
2,76,114,56
2,68,127,8
2,52,92,80
2,52,116,56
2,54,96,40
2,64,72,24
2,76,108,8
2,69,127,8
2,54,74,40
2,54,110,56
2,55,127,24
2,64,94,48
2,70,127,8
2,76,110,0
2,55,90,64
2,55,108,32
2,56,112,40
2,64,52,16
2,64,62,32
2,71,127,8
2,76,110,8
2,56,94,56
2,57,127,0
2,45,127,24
2,69,82,0
2,71,127,24
2,76,114,0
2,69,106,16
2,73,52,64
2,76,104,56
2,71,127,8
2,69,108,0
2,73,70,0
2,69,108,48
2,57,100,16
2,69,76,32
2,76,108,8
2,57,78,8
2,71,127,0
2,45,108,8
2,73,80,8
2,69,52,16
2,57,112,32
2,69,100,8
2,73,74,8
2,57,78,32
2,69,86,8
2,45,100,8
2,76,110,16
2,71,127,0
2,69,106,8
2,73,62,48
2,57,127,96
2,69,98,8
2,45,52,0
2,76,100,32
2,71,127,0
2,69,68,0
2,73,74,55
2,54,102,32
2,54,76,32
2,69,110,8
2,71,127,64
2,76,110,8
2,73,80,48
2,54,60,24
2,69,98,40
2,42,84,0
2,76,108,40
2,71,127,8
2,69,100,0
2,54,100,8
2,73,68,56
2,69,104,16
2,54,72,16
2,76,106,16
2,71,116,8
2,69,52,0
2,54,70,64
2,69,52,0
2,54,110,56
2,69,106,32
2,73,66,16
2,69,88,0
2,73,127,16
2,76,110,0
2,42,64,72
2,54,110,24
2,42,104,0
2,69,127,96
2,42,84,40
2,54,70,8
2,66,106,16
2,50,104,8
2,69,127,0
2,62,116,8
2,66,90,40
2,69,114,0
2,62,112,8
2,50,52,16
2,74,110,16
2,69,96,8
2,66,84,32
2,50,108,8
2,71,116,56
2,68,116,8
2,64,108,0
2,52,116,176
2,64,112,64
2,76,100,48
2,71,114,8
2,68,127,0
2,52,82,80
2,52,114,0
2,64,127,16
2,68,52,0
2,57,94,40
2,64,82,16
2,76,100,8
2,69,116,0
2,73,92,8
2,45,108,16
2,57,96,0
2,64,114,8
2,57,102,8
2,69,52,8
2,76,104,16
2,69,127,8
2,73,112,0
2,57,100,104
2,57,127,0
2,64,108,32
2,76,52,8
2,45,127,8
2,85,80,152
2,81,102,0
2,76,60,8
2,85,94,64
2,76,92,8
2,81,112,0
2,73,94,64
2,76,98,8
2,81,104,0
2,73,90,64
2,76,104,8
2,81,116,0
2,73,96,72
2,76,98,0
2,69,106,8
2,76,92,72
2,69,100,0
2,73,98,0
2,73,100,72
2,69,108,8
2,64,98,0
2,83,127,56
2,88,127,0
2,85,106,64
2,81,127,64
2,83,127,24
2,88,122,0
2,81,76,0
2,85,72,80
2,81,110,0
2,88,122,40
2,83,127,0
2,81,78,0
2,85,92,80
2,81,116,72
2,83,127,56
2,88,116,0
2,85,80,72
2,81,114,80
2,88,122,32
2,83,127,0
2,85,92,96
2,81,127,64
2,83,127,72
2,88,116,0
2,85,94,72
2,81,108,80
2,83,127,32
2,88,122,0
2,81,108,0
2,85,100,80
2,81,116,88
2,83,127,8
2,88,116,0
2,85,94,96
2,81,122,8
2,81,52,24
2,88,116,0
2,83,127,0
2,85,90,72
2,81,127,72
2,88,116,64
2,83,127,0
2,85,86,72
2,81,116,64
2,88,116,64
2,83,127,0
2,85,98,80
2,81,127,80
2,83,127,72
2,88,116,0
2,85,102,72
2,81,127,0
2,88,122,24
2,83,127,0
2,81,72,0
2,85,90,80
2,81,127,72
2,83,127,56
2,88,114,0
2,85,72,80
2,81,127,72
2,88,116,72
2,83,127,0
2,85,100,80
2,81,127,72
2,88,108,64
2,83,127,0
2,85,90,8
2,81,114,16
2,78,127,96
2,83,127,0
2,80,72,96
2,83,80,32
2,76,108,0
2,78,116,48
2,83,127,0
2,80,52,64
2,76,100,0
2,83,127,80
2,78,122,0
2,80,108,72
2,76,112,72
2,83,127,56
2,78,127,0
2,80,68,56
2,76,110,72
2,83,122,56
2,78,116,0
2,80,102,0
2,76,106,32
2,83,112,8
2,80,104,0
2,83,127,112
2,88,127,0
2,85,96,96
2,81,116,88
2,83,127,64
2,88,122,0
2,85,64,80
2,81,100,24
2,81,127,96
2,76,127,0
2,81,127,56
2,76,116,0
2,78,68,48
2,71,127,88
2,76,116,0
2,73,96,96
2,71,127,40
2,76,112,0
2,73,52,96
2,71,127,40
2,76,104,0
2,73,52,96
2,71,127,48
2,76,114,0
2,73,82,96
2,71,127,40
2,76,110,0
2,73,52,8
2,71,127,32
2,76,106,0
2,73,60,96
2,71,127,40
2,76,104,0
2,73,78,48
2,69,122,56
2,69,54,16
2,76,110,0
2,73,127,0
2,69,127,104
2,73,127,0
2,76,112,0
2,78,112,128
2,69,108,0
2,74,127,0
2,78,127,40
2,74,127,88
2,69,127,96
2,81,127,48
2,78,100,96
2,74,122,56
2,80,112,56
2,78,104,0
2,80,127,64
2,76,106,96
2,71,127,96
2,83,127,64
2,80,106,96
2,76,104,72
2,71,104,16
2,71,127,152
2,76,114,0
2,73,84,96
2,76,52,112
2,71,127,0
2,69,127,88
2,64,127,0
2,68,92,0
2,66,100,80
2,69,127,32
2,64,114,0
2,66,82,96
2,69,110,40
2,62,110,0
2,69,127,40
2,64,127,0
2,66,90,72
2,66,52,32
2,62,112,64
2,50,58,16
2,50,104,40
2,66,104,64
2,69,116,0
2,50,106,0
2,57,96,0
2,62,108,24
2,62,104,88
2,66,116,64
2,69,127,8
2,57,112,24
2,50,96,8
2,62,108,48
2,57,82,8
2,66,104,48
2,69,122,8
2,74,112,0
2,50,98,96
2,50,108,16
2,57,108,8
2,62,112,80
2,66,112,56
2,69,116,0
2,74,104,16
2,62,94,56
2,50,104,96
2,57,110,0
2,62,66,8
2,66,98,0
2,69,114,0
2,74,108,0
2,64,90,88
2,69,127,0
2,73,112,0
2,64,96,32
2,69,108,0
2,73,94,16
2,64,100,56
2,69,127,8
2,73,114,0
2,71,112,16
2,69,98,8
2,69,106,16
2,73,106,0
2,73,106,48
2,64,92,8
2,69,127,0
2,64,96,40
2,69,122,8
2,73,104,0
2,71,108,88
2,64,110,48
2,69,127,0
2,73,116,0
2,57,116,16
2,50,112,32
2,66,110,120
2,69,127,8
2,62,114,0
2,50,86,72
2,50,110,0
2,66,108,72
2,62,108,8
2,69,127,0
2,50,108,32
2,66,80,64
2,69,108,0
2,62,94,0
2,66,104,64
2,69,122,8
2,62,108,0
2,50,92,32
2,50,52,16
2,62,108,8
2,62,90,32
2,66,110,0
2,69,127,8
2,50,84,64
2,50,116,40
2,64,98,32
2,52,108,24
2,68,108,8
2,76,114,56
2,68,127,8
2,52,92,80
2,52,116,56
2,54,96,40
2,64,72,24
2,76,108,16
2,69,127,0
2,54,74,40
2,54,110,56
2,55,127,24
2,64,94,48
2,70,127,8
2,76,110,0
2,55,90,64
2,55,108,32
2,56,112,40
2,64,52,16
2,64,62,32
2,71,127,8
2,76,110,8
2,56,94,56
2,57,127,0
2,45,127,24
2,69,82,0
2,71,127,24
2,76,114,0
2,69,106,16
2,73,52,64
2,76,104,56
2,71,127,8
2,69,108,0
2,73,70,0
2,69,108,48
2,57,100,8
2,69,76,32
2,76,108,8
2,57,78,8
2,71,127,0
2,45,108,8
2,73,80,8
2,69,52,16
2,57,112,32
2,69,100,8
2,73,74,8
2,57,78,32
2,69,86,8
2,45,100,8
2,76,110,16
2,71,127,0
2,69,106,8
2,73,62,48
2,57,127,96
2,69,98,8
2,45,52,0
2,76,100,32
2,71,127,0
2,69,68,0
2,73,74,55
2,54,102,32
2,54,76,32
2,69,110,8
2,71,127,64
2,76,110,8
2,73,80,48
2,54,60,24
2,69,98,40
2,42,84,0
2,76,108,40
2,71,127,8
2,69,100,0
2,54,100,8
2,73,68,56
2,69,104,16
2,54,72,16
2,76,106,16
2,71,116,8
2,69,52,0
2,54,70,64
2,69,52,0
2,54,110,56
2,69,106,32
2,73,66,24
2,69,88,0
2,73,127,16
2,76,110,0
2,42,64,72
2,54,110,24
2,42,104,0
2,69,127,96
2,42,84,40
2,54,70,8
2,66,106,16
2,50,104,8
2,69,127,0
2,62,116,8
2,66,90,40
2,69,114,0
2,62,112,8
2,50,52,16
2,74,110,16
2,69,96,8
2,66,84,32
2,50,108,8
2,71,116,56
2,68,116,8
2,64,108,0
2,52,116,168
2,64,112,64
2,76,100,48
2,71,114,8
2,68,127,0
2,52,82,80
2,52,114,0
2,64,127,16
2,68,52,0
2,57,94,40
2,64,82,16
2,76,100,8
2,69,116,0
2,73,92,8
2,45,108,16
2,57,96,0
2,64,114,8
2,57,102,8
2,69,52,8
2,76,104,16
2,69,127,8
2,73,112,0
2,57,100,104
2,57,127,0
2,64,108,32
2,76,52,8
2,45,127,8
2,85,80,152
2,81,102,0
2,76,60,8
2,85,94,64
2,76,92,8
2,81,112,0
2,73,94,64
2,76,98,8
2,81,104,0
2,73,90,64
2,76,104,8
2,81,116,0
2,73,96,72
2,76,98,0
2,69,106,8
2,76,92,72
2,69,100,0
2,73,98,0
2,73,100,72
2,69,108,8
2,64,98,0
2,71,110,56
2,73,100,0
2,76,102,0
2,45,114,0
2,57,96,0
2,69,104,24
2,69,94,72
2,57,52,32
2,76,76,32
2,71,116,0
2,57,56,64
2,57,106,40
2,76,104,88
2,71,114,8
2,69,102,8
2,73,56,0
2,57,86,88
2,69,90,8
2,76,104,56
2,71,127,0
2,69,114,0
2,73,52,8
2,57,110,16
2,76,102,72
2,71,122,8
2,69,100,16
2,73,90,32
2,76,72,16
2,69,96,8
2,73,52,0
2,54,78,8
2,76,98,56
2,71,116,8
2,73,78,72
2,69,76,48
2,54,52,8
2,76,106,32
2,71,116,8
2,69,100,8
2,42,58,8
2,73,80,32
2,42,80,40
2,69,98,8
2,54,54,16
2,54,52,0
2,71,102,72
2,69,108,8
2,76,96,0
2,73,92,16
2,54,52,96
2,71,116,24
2,73,72,0
2,69,114,8
2,54,108,0
2,42,94,48
2,62,108,40
2,69,114,0
2,50,104,16
2,69,127,24
2,62,96,0
2,64,114,8
2,69,127,64
2,62,110,8
2,64,110,0
2,66,72,0
2,62,56,32
2,50,106,64
2,69,127,64
2,64,110,8
2,66,86,32
2,50,108,0
2,62,98,32
2,69,127,56
2,64,110,8
2,62,62,64
2,50,76,16
2,50,116,48
2,66,68,16
2,66,80,40
2,69,112,0
2,62,108,8
2,64,100,8
2,50,108,48
2,52,116,24
2,64,62,16
2,71,122,40
2,66,127,8
2,64,92,8
2,52,92,48
2,64,52,32
2,52,116,32
2,64,98,16
2,71,108,40
2,66,122,8
2,68,102,56
2,52,116,0
2,64,78,0
2,76,108,192
2,68,122,0
2,76,104,32
2,69,127,8
2,52,90,16
2,64,78,8
2,76,108,16
2,71,127,0
2,76,80,32
2,71,110,16
2,68,108,0
2,52,72,0
2,64,96,0
2,45,122,72
2,64,80,24
2,76,98,8
2,69,127,0
2,73,106,8
2,57,90,56
2,76,76,8
2,64,104,32
2,57,106,0
2,76,94,8
2,69,127,0
2,73,98,16
2,57,60,8
2,64,102,16
2,57,108,16
2,45,112,56
2,64,102,48
