track,note,velocity,time
1,1,1,0
1,72,127,17272
1,72,127,124
1,72,127,80
1,72,127,164
1,72,127,208
1,72,127,56
1,72,127,488
1,72,127,356
1,70,127,368
1,68,127,12
1,65,127,20
1,72,127,1032
1,70,127,1188
1,68,127,112
1,70,127,16
1,72,127,948
1,72,127,300
1,72,127,140
1,72,127,168
1,70,127,12
1,72,127,148
1,72,127,96
1,72,127,116
1,72,127,148
1,72,127,172
1,72,127,48
1,72,127,984
1,70,127,100
1,72,127,116
1,70,127,32
1,68,127,208
1,65,127,32
1,72,127,120
1,70,127,1332
1,68,127,180
1,70,127,32
1,72,127,900
1,70,127,140
1,72,127,128
1,72,127,152
1,68,127,64
1,75,127,1724
1,68,127,0
1,73,127,380
1,73,127,160
1,73,127,172
1,73,127,552
1,73,127,152
1,73,127,184
1,68,127,356
1,71,127,12
1,72,127,0
1,70,127,964
1,72,127,156
1,70,127,16
1,68,127,20
1,68,127,124
1,73,127,196
1,73,127,152
1,73,127,152
1,73,127,596
1,73,127,108
1,73,127,124
1,73,127,104
1,73,127,128
1,70,127,36
1,72,127,220
1,72,127,108
1,72,127,96
1,72,127,116
1,72,127,176
1,72,127,44
1,72,127,940
1,70,127,32
1,72,127,136
1,70,127,20
1,68,127,88
1,65,127,108
1,72,127,568
1,72,127,112
1,72,127,100
1,70,127,388
1,68,127,304
1,70,127,56
1,72,127,12
1,68,127,1372
1,72,127,25252
1,72,127,84
1,72,127,108
1,72,127,184
1,72,127,60
1,72,127,912
1,72,127,100
1,70,127,400
1,68,127,16
1,65,127,80
1,72,127,732
1,70,127,1192
1,68,127,156
1,70,127,44
1,72,127,916
1,72,127,56
1,72,127,76
1,72,127,100
1,70,127,16
1,72,127,76
1,72,127,60
1,72,127,80
1,72,127,156
1,72,127,48
1,72,127,876
1,72,127,140
1,70,127,0
1,68,127,12
1,65,127,196
1,72,127,992
1,70,127,1144
1,68,127,136
1,70,127,44
1,72,127,704
1,72,127,84
1,72,127,88
1,68,127,16
1,75,127,1336
1,68,127,32
1,73,127,384
1,73,127,140
1,73,127,144
1,68,127,712
1,68,127,140
1,68,127,60
1,68,127,292
1,72,127,84
1,72,127,176
1,70,127,764
1,68,127,180
1,68,127,176
1,73,127,208
1,73,127,128
1,73,127,136
1,73,127,548
1,73,127,72
1,73,127,140
1,73,127,76
1,73,127,128
1,70,127,44
1,72,127,240
1,72,127,124
1,72,127,140
1,72,127,152
1,72,127,196
1,72,127,44
1,72,127,956
1,72,127,224
1,70,127,364
1,68,127,200
1,65,127,36
1,72,127,644
1,72,127,128
1,72,127,164
1,70,127,100
1,68,127,164
1,70,127,28
1,72,127,500
1,72,127,108
1,72,127,100
1,68,127,16
1,70,127,1424
1,68,127,180
1,70,127,72
1,72,127,900
1,72,127,112
1,72,127,92
1,72,127,140
1,68,127,100
2,39,118,16892
2,27,118,380
2,29,118,12
2,31,118,380
2,32,120,372
2,36,120,348
2,39,120,368
2,36,120,368
2,32,120,16
2,32,120,180
2,36,120,384
2,39,120,344
2,29,120,368
2,32,120,352
2,36,120,340
2,32,120,372
2,29,120,16
2,32,120,384
2,36,120,4
2,32,120,384
2,37,120,364
2,34,120,312
2,32,120,20
2,34,120,16
2,37,120,16
2,32,120,384
2,34,120,28
2,37,120,384
2,39,120,376
2,36,120,368
2,34,120,380
2,36,120,368
2,39,120,356
2,37,120,380
2,36,120,16
2,34,120,384
2,32,120,380
2,32,120,116
2,36,120,384
2,39,120,368
2,32,120,356
2,36,120,352
2,39,120,368
2,36,120,380
2,29,120,16
2,32,120,384
2,36,120,352
2,32,120,376
2,29,120,340
2,32,120,340
2,36,120,16
2,32,120,384
2,37,120,4
2,37,120,196
2,34,120,384
2,32,120,28
2,39,120,384
2,27,120,332
2,29,120,12
2,31,120,4
2,32,120,12
2,36,120,384
2,39,120,364
2,36,120,20
2,32,120,20
2,32,120,168
2,34,120,12
2,36,120,384
2,37,120,376
2,34,120,4
2,32,120,384
2,34,120,4
2,37,120,28
2,32,120,384
2,34,120,4
2,37,120,28
2,32,120,384
2,36,120,4
2,39,120,384
2,36,120,368
2,32,120,28
2,32,120,220
2,36,120,384
2,39,120,320
2,37,120,12
2,34,120,384
2,32,120,20
2,34,120,16
2,37,120,384
2,32,120,376
2,34,120,16
2,37,120,16
2,39,120,384
2,39,120,132
2,39,120,92
2,39,120,132
2,39,120,108
2,27,120,384
2,29,120,364
2,31,120,336
2,32,120,368
2,32,120,140
2,36,120,36
2,39,120,384
2,32,120,380
2,36,120,372
2,39,120,4
2,36,120,20
2,29,120,20
2,32,120,384
2,36,120,372
2,32,120,376
2,29,120,376
2,32,120,372
2,36,120,4
2,32,120,384
2,37,120,16
2,37,120,152
2,34,120,384
2,32,120,16
2,39,120,384
2,27,120,4
2,29,120,384
2,31,120,16
2,32,120,4
2,32,120,176
2,36,120,384
2,39,120,16
2,32,120,384
2,32,120,1180
2,36,120,380
2,39,120,328
2,36,120,28
2,32,120,384
2,32,120,204
2,36,120,384
2,39,120,352
2,29,120,8
2,32,120,384
2,36,120,336
2,32,120,360
2,29,120,380
2,32,120,356
2,36,120,4
2,32,120,384
2,37,120,16
2,34,120,384
2,32,120,8
2,34,120,16
2,37,120,8
2,37,120,144
2,34,120,384
2,32,120,16
2,39,120,4
2,34,120,384
2,36,120,16
2,34,120,4
2,39,120,8
2,32,120,1380
2,32,120,172
2,36,120,384
2,39,120,380
2,32,120,380
2,36,120,4
2,39,120,384
2,36,120,4
2,29,120,156
2,32,120,384
2,36,120,16
2,32,120,384
2,29,120,28
2,32,120,384
2,36,120,348
2,32,120,372
2,37,120,28
2,34,120,384
2,32,120,340
2,34,120,4
2,39,120,384
2,27,120,20
2,29,120,384
2,31,120,368
2,32,120,24
2,36,120,384
2,39,120,316
2,36,120,368
2,39,120,36
2,37,120,384
2,36,120,340
2,34,120,4
2,32,120,384
2,36,120,368
2,39,120,28
2,36,120,384
2,32,120,4
2,32,120,244
2,36,120,384
2,39,120,352
2,29,120,372
2,32,120,368
2,36,120,16
2,32,120,384
2,29,120,4
2,32,120,384
2,36,120,352
2,32,120,376
2,37,120,20
2,34,120,4
2,32,120,384
2,34,120,372
2,37,120,380
2,32,120,360
2,34,120,20
2,37,120,44
2,39,120,140
2,39,120,120
2,36,120,384
2,34,120,32
2,39,120,384
2,37,120,360
2,36,120,32
2,34,120,20
2,32,120,384
2,36,120,360
2,39,120,4
2,36,120,384
2,32,120,32
2,32,120,240
2,36,120,384
2,39,120,352
2,29,120,376
2,32,120,368
2,36,120,340
2,32,120,372
2,29,120,380
2,29,120,140
2,32,120,384
2,36,120,356
2,37,120,32
2,34,120,12
2,32,120,384
2,34,120,40
2,39,120,4
2,37,120,384
2,36,120,28
2,34,120,20
2,32,120,384
2,29,120,4
2,27,120,144
2,29,120,28
2,32,120,4
2,32,120,52
2,34,120,384
2,36,120,380
2,37,120,372
2,34,120,16
2,32,120,8
2,34,120,20
2,37,120,4
2,37,120,144
2,34,120,384
2,32,120,8
2,32,120,140
2,32,120,180
2,36,120,4
2,39,120,384
2,32,120,376
2,36,120,372
2,39,120,356
2,36,120,356
2,37,120,12
2,37,120,132
2,34,120,20
2,32,120,384
2,37,120,380
2,34,120,376
2,32,120,4
2,34,120,32
2,39,120,56
2,39,120,160
2,36,120,384
2,34,120,32
2,39,120,16
2,37,120,384
2,36,120,16
2,34,120,384
2,32,120,12
2,32,120,216
2,36,120,384
2,39,120,344
2,32,120,4
2,36,120,384
2,39,120,44
2,36,120,8
2,29,120,56
2,29,120,156
2,32,120,4
2,36,120,384
2,29,120,16
2,32,120,384
2,36,120,16
2,32,120,384
2,37,120,4
2,34,120,384
2,32,120,4
2,34,120,28
2,39,120,20
2,37,120,384
2,36,120,4
2,34,120,384
2,32,120,16
2,32,120,192
2,36,120,384
2,39,120,4
2,32,120,384
2,36,120,376
2,39,120,20
2,36,120,384
2,37,120,372
2,37,120,132
2,34,120,8
2,32,120,20
2,39,120,16
2,27,120,384
2,29,120,372
2,31,120,4
2,32,120,384
2,36,120,364
2,39,120,376
2,36,120,16
2,32,120,384
2,32,120,392
3,1,1,0
3,63,16,18416
3,68,20,4
3,72,18,0
3,68,64,292
3,63,57,4
3,72,68,0
3,63,51,380
3,68,57,0
3,72,61,4
3,68,20,716
3,65,20,4
3,72,16,0
3,68,72,164
3,65,72,4
3,72,72,4
3,72,56,368
3,68,57,4
3,65,56,0
3,68,16,680
3,65,16,4
3,73,18,0
3,73,57,136
3,65,61,4
3,68,72,0
3,73,64,380
3,65,61,4
3,68,72,0
3,75,15,684
3,67,10,4
3,70,15,0
3,75,57,168
3,67,68,4
3,70,72,0
3,75,72,388
3,67,56,4
3,70,72,0
3,63,6,664
3,68,8,0
3,72,6,4
3,72,47,256
3,63,72,24
3,68,43,0
3,63,64,412
3,72,56,4
3,68,51,4
3,68,15,652
3,65,7,4
3,72,15,0
3,68,72,204
3,65,72,4
3,72,68,0
3,68,72,388
3,65,56,4
3,72,51,0
3,73,16,632
3,65,7,28
3,68,9,0
3,75,51,332
3,67,68,12
3,70,72,0
3,75,64,384
3,67,61,4
3,70,72,0
3,63,6,672
3,72,6,24
3,68,6,4
3,72,56,144
3,63,72,4
3,68,51,0
3,63,6,13628
3,72,6,4
3,68,11,0
3,63,64,192
3,68,72,4
3,72,68,0
3,63,72,384
3,72,68,0
3,68,72,8
3,68,23,708
3,65,15,4
3,72,15,0
3,65,61,148
3,68,72,12
3,72,68,0
3,65,61,372
3,68,72,0
3,72,68,0
3,65,6,696
3,68,6,0
3,73,9,4
3,67,61,324
3,75,57,0
3,70,72,4
3,75,57,368
3,67,68,4
3,70,72,0
3,68,11,676
3,63,6,0
3,72,7,0
3,72,26,124
3,63,29,4
3,68,28,0
3,63,7,25972
3,72,14,0
3,68,11,0
3,63,57,296
3,68,34,0
3,72,24,0
3,72,28,356
3,63,72,8
3,68,39,0
3,65,16,684
3,68,28,0
3,72,21,0
3,72,56,156
3,65,47,4
3,68,72,0
3,68,57,348
3,65,43,4
3,72,47,0
3,68,14,684
3,73,13,0
3,65,9,4
3,65,51,172
3,68,64,0
3,73,57,0
3,73,51,344
3,68,72,4
3,65,56,0
3,67,15,648
3,75,22,0
3,70,23,4
3,67,56,208
3,75,57,4
3,70,72,0
3,67,56,372
3,75,57,0
3,70,72,4
3,63,6,648
3,68,8,0
3,72,6,4
3,63,47,232
3,68,64,4
3,72,56,0
3,68,72,352
3,63,57,4
3,72,61,0
3,65,6,704
3,68,6,0
3,72,9,0
3,65,51,184
3,68,72,4
3,72,68,0
3,65,47,328
3,68,72,0
3,72,61,4
3,65,6,620
3,73,6,0
3,68,6,4
3,75,43,292
3,67,43,4
3,70,61,0
3,75,51,368
3,67,51,4
3,70,72,0
3,63,6,608
3,68,15,4
3,72,7,0
3,72,47,296
3,63,51,4
3,68,39,0
3,63,11,13600
3,68,11,0
3,72,14,0
3,72,31,288
3,63,47,4
3,68,28,0
3,63,64,376
3,72,51,0
3,68,39,4
3,72,8,696
3,65,6,4
3,68,6,0
3,65,56,196
3,68,72,4
3,72,56,0
3,68,64,372
3,65,43,4
3,72,56,0
3,65,12,680
3,68,11,4
3,73,13,0
3,67,51,332
3,70,68,4
3,75,57,0
3,67,51,372
3,70,72,4
3,75,64,0
3,68,8,672
3,63,6,24
3,72,6,0
3,72,31,216
3,63,64,4
3,68,43,0
3,72,35,376
3,63,51,20
3,68,47,4
3,65,6,672
3,68,6,0
3,73,6,0
3,67,61,376
3,75,64,0
3,70,72,4
3,75,57,336
3,67,61,4
3,70,68,0
3,68,6,628
3,72,6,0
3,63,6,4
3,68,43,324
3,72,47,0
3,63,57,4
3,68,27,384
3,72,33,4
4,51,54,16896
4,75,63,0
4,87,61,0
4,75,54,100
4,87,57,0
4,39,54,108
4,73,66,4
4,85,74,0
4,85,78,124
4,73,59,4
4,72,57,4
4,84,62,0
4,41,54,8
4,84,55,96
4,72,51,24
4,70,57,80
4,43,54,16
4,82,65,8
4,70,50,96
4,82,49,20
4,68,51,100
4,80,61,4
4,44,56,4
4,84,43,20
4,80,51,124
4,84,35,4
4,48,56,124
4,75,63,4
4,80,66,4
4,84,48,16
4,75,56,100
4,80,51,4
4,84,46,0
4,75,45,72
4,84,36,40
4,51,56,16
4,80,25,12
4,75,24,24
4,80,39,104
4,75,30,4
4,84,28,20
4,48,56,132
4,75,53,4
4,80,44,0
4,84,50,0
4,75,28,120
4,80,34,4
4,84,21,20
4,75,47,4
4,84,46,0
4,44,56,12
4,80,38,16
4,84,30,112
4,75,25,4
4,80,32,0
4,44,56,116
4,75,53,4
4,84,52,0
4,80,49,20
4,75,33,84
4,84,37,0
4,80,46,4
4,80,40,112
4,48,56,8
4,75,31,4
4,84,35,0
4,75,36,112
4,84,32,20
4,80,39,4
4,75,49,112
4,84,43,4
4,51,56,4
4,80,47,8
4,84,41,100
4,75,39,4
4,80,46,0
4,41,56,104
4,84,48,20
4,77,21,4
4,84,46,80
4,77,36,20
4,89,49,0
4,44,56,96
4,84,58,4
4,77,48,4
4,89,58,0
4,84,46,88
4,89,30,0
4,77,41,28
4,48,56,104
4,77,46,4
4,84,38,8
4,89,31,0
4,89,25,96
4,77,47,20
4,84,44,0
4,44,56,104
4,77,50,8
4,84,55,4
4,89,53,0
4,77,30,100
4,84,42,0
4,89,27,4
4,41,56,16
4,77,36,8
4,84,45,4
4,89,33,0
4,77,35,112
4,84,43,0
4,89,35,4
4,44,56,108
4,77,52,8
4,84,60,0
4,89,55,4
4,89,31,84
4,77,31,4
4,84,44,0
4,48,56,4
4,77,45,16
4,89,47,0
4,84,51,4
4,77,33,100
4,84,42,4
4,89,26,20
4,44,56,100
4,77,47,4
4,84,57,0
4,89,51,0
4,89,41,84
4,77,39,4
4,84,50,0
4,49,56,116
4,80,54,4
4,85,42,0
4,77,43,24
4,80,36,104
4,85,39,0
4,77,25,28
4,46,56,12
4,77,41,0
4,80,59,0
4,85,54,0
4,80,43,104
4,77,34,4
4,85,45,0
4,44,56,20
4,80,42,8
4,85,43,4
4,77,25,24
4,80,47,132
4,85,44,4
4,77,27,0
4,46,56,16
4,85,50,4
4,80,56,4
4,77,49,24
4,85,45,84
4,80,46,4
4,77,28,4
4,85,50,4
4,49,56,12
4,80,55,12
4,77,44,4
4,85,56,132
4,77,43,4
4,80,55,0
4,44,56,116
4,85,66,16
4,77,49,4
4,80,66,0
4,80,49,104
4,85,49,0
4,77,37,4
4,46,56,28
4,85,56,12
4,77,44,4
4,80,61,0
4,80,49,100
4,85,47,0
4,77,27,24
4,49,56,124
4,80,70,4
4,85,61,0
4,77,51,0
4,80,50,112
4,77,36,4
4,85,47,0
4,51,56,108
4,87,48,12
4,79,51,0
4,82,53,0
4,82,37,112
4,79,36,4
4,87,44,0
4,48,56,104
4,82,70,20
4,87,59,0
4,79,55,4
4,82,44,100
4,79,35,4
4,87,47,0
4,46,56,112
4,87,55,4
4,79,47,4
4,82,53,0
4,82,53,112
4,87,51,4
4,79,45,20
4,48,56,96
4,87,57,20
4,79,50,4
4,82,58,0
4,87,54,100
4,79,46,4
4,82,55,0
4,51,56,92
4,79,48,16
4,82,55,4
4,87,54,0
4,87,51,100
4,79,41,4
4,82,50,0
4,49,56,96
4,79,48,16
4,82,57,0
4,87,56,4
4,87,54,96
4,79,43,4
4,82,52,0
4,48,56,16
4,87,53,16
4,79,44,4
4,82,55,0
4,87,51,96
4,79,41,4
4,82,49,0
4,46,56,116
4,87,54,0
4,79,43,4
4,82,53,0
4,87,49,104
4,79,44,4
4,82,52,0
4,44,56,132
4,75,51,4
4,80,63,0
4,84,52,0
4,75,46,108
4,80,59,4
4,84,45,0
4,44,56,116
4,75,57,4
4,80,66,0
4,84,55,0
4,84,44,84
4,75,55,4
4,80,49,0
4,75,44,68
4,84,42,20
4,48,56,12
4,75,41,124
4,80,40,4
4,84,36,0
4,51,56,128
4,84,57,4
4,75,61,4
4,80,51,0
