track,note,velocity,time
1,37,105,0
1,44,105,0
1,37,105,0
1,49,105,10
1,58,105,10
1,61,105,10
1,65,105,10
1,73,105,10
1,37,0,189
1,37,0,0
1,44,0,0
1,44,105,1
1,49,0,9
1,49,105,1
1,58,0,6
1,56,105,4
1,61,105,10
1,68,125,5
1,65,0,4
1,73,125,1
1,73,0,9
1,61,0,217
1,65,127,214
1,58,105,0
1,56,0,259
1,53,105,221
1,58,0,236
1,44,0,3
1,56,105,1
1,49,105,0
1,49,0,9
1,61,0,20
1,68,0,5
1,56,0,205
1,49,0,0
1,53,0,0
1,49,105,1
1,56,105,0
1,65,0,119
1,73,0,40
1,49,0,80
1,56,0,0
1,44,105,1
1,49,105,10
1,58,105,10
1,61,105,10
1,65,105,10
1,73,105,10
1,44,0,189
1,44,105,1
1,49,0,9
1,49,105,1
1,58,0,6
1,56,105,4
1,61,105,10
1,68,125,5
1,65,0,4
1,73,125,1
1,73,0,9
1,61,0,217
1,65,127,214
1,58,105,0
1,68,0,31
1,53,105,449
1,61,0,149
1,58,0,87
1,44,0,3
1,56,105,1
1,49,0,9
1,56,0,10
1,53,0,220
1,56,105,1
1,49,105,0
1,65,0,119
1,73,0,40
1,56,0,77
1,56,0,3
1,49,0,0
1,44,105,1
1,49,105,10
1,58,105,10
1,61,105,10
1,65,105,10
1,73,105,10
1,44,0,189
1,44,105,1
1,49,0,9
1,49,105,1
1,58,0,6
1,56,105,4
1,61,105,10
1,68,125,5
1,65,0,4
1,73,125,1
1,73,0,9
1,61,0,217
1,58,105,214
1,56,0,259
1,53,105,221
1,58,0,236
1,56,105,4
1,49,0,9
1,61,0,20
1,68,0,5
1,53,0,205
1,56,0,0
1,49,105,1
1,56,105,0
1,44,0,119
1,73,0,40
1,49,0,80
1,56,0,0
1,44,105,1
1,49,105,10
1,58,105,10
1,61,105,10
1,65,105,10
1,73,105,10
1,44,0,189
1,44,105,1
1,49,0,9
1,49,105,1
1,58,0,6
1,56,105,4
1,61,105,10
1,68,125,5
1,65,0,4
1,73,125,1
1,73,0,9
1,61,0,217
1,65,127,214
1,58,105,0
1,53,105,480
1,58,0,236
1,56,105,4
1,49,0,9
1,56,0,10
1,61,0,10
1,68,0,5
1,56,0,205
1,53,0,0
1,49,105,1
1,56,105,0
1,65,0,119
1,73,0,40
1,49,0,80
1,44,0,0
1,56,0,0
1,44,105,1
1,49,105,10
1,58,105,10
1,61,105,10
1,65,105,10
1,73,105,10
1,44,0,189
1,44,105,1
1,49,0,9
1,49,105,1
1,58,0,6
1,56,105,4
1,61,105,10
1,68,125,5
1,65,0,4
1,73,125,1
1,73,0,9
1,61,0,217
1,65,127,214
1,58,105,0
1,56,0,16
1,53,105,464
1,58,0,236
1,56,105,4
1,49,0,9
1,61,0,20
1,68,0,5
1,56,0,205
1,53,0,0
1,61,105,1
1,56,105,0
1,53,105,0
1,49,105,0
1,44,0,119
1,73,0,40
1,65,0,80
1,49,0,0
1,44,105,1
1,49,105,10
1,58,105,10
1,61,105,10
1,65,105,10
1,73,105,10
1,44,0,189
1,44,105,1
1,49,0,9
1,49,105,1
1,58,0,6
1,56,105,4
1,61,105,10
1,68,125,5
1,65,0,4
1,73,125,1
1,73,0,9
1,61,0,217
1,65,127,214
1,58,105,0
1,56,0,16
1,61,0,10
1,53,0,453
1,49,0,130
1,56,0,107
1,58,0,0
1,61,0,0
1,53,105,4
1,68,0,34
1,53,0,205
1,53,105,1
1,49,105,0
1,44,0,119
1,73,0,40
1,53,0,80
1,65,0,0
1,49,0,0
1,44,105,1
1,49,105,10
1,58,105,10
1,61,105,10
1,65,105,10
1,73,105,10
1,44,0,189
1,44,105,1
1,49,0,9
1,49,105,1
1,58,0,6
1,56,105,4
1,61,105,10
1,68,125,5
1,65,0,4
1,73,125,1
1,73,0,9
1,61,0,217
1,65,127,214
1,58,105,0
1,56,0,16
1,61,0,10
1,53,105,454
1,68,0,154
1,73,0,125
1,44,0,200
1,58,0,0
1,53,0,0
1,61,105,1
1,56,105,0
1,53,105,0
1,65,0,119
1,49,0,10
1,44,105,111
1,49,105,10
1,58,105,10
1,61,105,10
1,65,105,10
1,73,105,10
1,56,0,186
1,53,0,0
1,61,0,0
1,44,0,3
1,44,105,1
1,49,0,9
1,49,115,1
1,58,0,6
1,56,95,4
1,61,105,10
1,68,125,5
1,65,0,4
1,73,125,1
1,73,0,9
1,61,0,217
1,44,0,213
1,65,127,1
1,58,105,0
1,49,0,9
1,56,0,7
1,61,0,10
1,68,0,5
1,73,0,8
1,58,105,441
1,54,85,0
1,46,125,0
1,61,120,19
1,49,120,0
1,70,120,26
1,58,0,191
1,65,0,0
1,46,0,374
1,54,0,13
1,49,0,6
1,58,0,7
1,70,0,6
1,61,0,26
1,46,110,52
1,49,104,11
1,54,120,8
1,58,120,11
1,61,120,5
1,70,120,4
1,46,0,200
1,49,0,11
1,54,0,8
1,58,0,11
1,61,0,5
1,70,0,4
1,46,120,202
1,49,120,10
1,54,120,10
1,57,108,10
1,61,120,5
1,70,120,5
1,46,0,199
1,46,120,1
1,49,0,9
1,49,120,0
1,54,0,10
1,54,120,1
1,57,0,9
1,57,120,1
1,61,0,4
1,61,105,2
1,70,0,3
1,70,120,2
1,46,0,198
1,46,120,1
1,49,0,8
1,49,120,1
1,54,0,10
1,54,90,2
1,57,0,8
1,57,120,1
1,61,0,2
1,61,105,4
1,70,0,4
1,70,120,5
1,46,0,194
1,58,105,1
1,49,0,8
1,54,0,12
1,57,0,9
1,61,0,3
1,70,0,12
1,58,0,192
1,70,90,4
1,65,90,0
1,46,90,0
1,60,105,0
1,56,105,0
1,51,105,0
1,51,0,236
1,60,0,0
1,56,0,0
1,70,0,3
1,46,0,0
1,65,0,0
1,70,90,1
1,65,90,0
1,46,90,0
1,60,105,0
1,56,105,0
1,51,105,0
1,51,0,476
1,60,0,0
1,56,0,0
1,70,0,3
1,46,0,0
1,65,0,0
1,70,110,1
1,65,110,6
1,61,125,4
1,56,106,7
1,51,125,2
1,46,110,9
1,70,0,451
1,70,90,1
1,65,0,5
1,61,0,1
1,65,90,0
1,56,0,7
1,51,0,2
1,60,125,0
1,46,0,12
1,56,125,0
1,46,110,8
1,70,0,444
1,58,105,1
1,54,105,0
1,65,0,5
1,60,0,6
1,56,0,12
1,46,0,11
1,54,0,685
1,58,0,0
1,46,125,1
1,51,115,18
1,54,105,3
1,58,105,8
1,65,115,10
1,70,125,8
1,46,0,429
1,51,125,4
1,70,125,0
1,46,125,0
1,54,105,0
1,65,125,8
1,51,0,6
1,58,105,5
1,54,0,1
1,58,0,8
1,65,0,10
1,70,0,5
1,70,0,196
1,46,0,0
1,54,0,0
1,51,0,0
1,70,125,1
1,65,125,0
1,61,105,0
1,58,105,0
1,54,105,0
1,51,125,0
1,46,125,0
1,65,0,7
1,58,0,11
1,51,0,701
1,58,0,0
1,65,0,0
1,61,0,0
1,54,0,0
1,65,105,1
1,61,105,0
1,58,105,0
1,54,105,0
1,70,0,119
1,65,0,117
1,61,0,0
1,58,0,0
1,54,0,0
1,46,0,3
1,63,105,1
1,63,0,236
1,63,105,4
1,61,105,0
1,58,105,0
1,54,105,0
1,51,105,0
1,51,0,476
1,46,125,4
1,70,125,0
1,66,125,0
1,66,0,479
1,46,0,0
1,61,0,0
1,54,0,0
1,63,0,0
1,70,0,0
1,58,0,0
1,48,105,1
1,51,113,6
1,58,105,12
1,61,115,9
1,63,115,7
1,53,105,9
1,68,105,5
1,61,0,698
1,48,0,93
1,58,0,18
1,63,0,16
1,68,0,14
1,68,127,73
1,51,0,5
1,61,125,4
1,58,125,13
1,56,105,4
1,53,123,6
1,53,0,10
1,51,115,0
1,68,0,197
1,61,0,9
1,58,0,13
1,56,0,4
1,53,0,6
1,51,0,10
1,61,105,199
1,58,105,0
1,56,105,0
1,56,0,476
1,58,0,0
1,61,0,0
1,53,105,4
1,61,105,0
1,56,105,0
1,68,125,0
1,51,105,0
1,58,105,0
1,68,105,240
1,65,123,12
1,61,127,4
1,58,105,15
1,56,125,2
1,53,125,8
1,51,123,8
1,58,0,70
1,53,0,0
1,51,0,0
1,61,0,120
1,68,0,0
1,56,0,0
1,68,0,0
1,53,0,41
1,51,0,8
1,53,105,432
1,56,105,0
1,68,105,0
1,61,105,0
1,51,105,0
1,58,105,0
1,65,0,8
1,61,0,4
1,58,0,15
1,56,0,2
1,58,0,207
1,56,0,3
1,61,0,0
1,51,0,0
1,53,0,0
1,68,0,0
1,61,105,1
1,58,105,0
1,56,105,0
1,56,0,476
1,58,0,0
1,61,0,0
1,58,105,4
1,58,0,236
1,65,105,4
1,61,105,0
1,58,105,0
1,56,105,0
1,56,0,476
1,65,0,0
1,61,0,0
1,58,0,0
1,58,105,4
1,58,0,236
1,61,105,4
1,61,0,236
1,58,105,4
1,58,0,236
1,65,105,4
1,61,105,0
1,58,105,0
1,56,105,0
1,56,0,1196
1,65,0,0
1,61,0,0
1,58,0,0
1,63,114,483
1,63,0,236
1,60,119,3
1,65,99,2
1,72,85,7
1,70,106,4
1,58,122,1
1,60,0,222
1,72,106,6
1,60,95,0
1,72,0,3
1,72,0,233
1,65,0,0
1,60,0,0
1,63,83,7
1,70,0,4
1,58,0,1
1,65,119,218
1,63,0,13
1,58,105,2
1,70,104,1
1,60,105,11
1,72,103,1
1,65,0,208
1,58,0,15
1,70,0,1
1,63,114,2
1,60,0,9
1,72,0,1
1,60,111,220
1,72,102,4
1,63,0,2
1,57,102,4
1,69,110,2
1,66,84,10
1,60,0,214
1,72,0,4
1,63,101,5
1,57,0,1
1,69,0,2
1,66,0,10
1,63,0,223
1,69,100,1
1,60,109,5
1,72,126,2
1,57,105,0
1,65,94,8
1,69,0,1421
1,60,0,5
1,57,0,2
1,72,0,0
1,65,0,8
1,65,100,476
1,70,105,231
1,58,117,2
1,73,102,1
1,65,0,2
1,68,106,1
1,65,120,5
1,61,105,9
1,70,0,696
1,58,0,2
1,73,0,1
1,68,0,3
1,65,0,5
1,61,0,9
1,65,109,8
1,72,92,226
1,65,105,0
1,60,105,1
1,70,123,2
1,65,0,7
1,72,0,466
1,65,0,0
1,60,0,1
1,68,107,1
1,70,0,1
1,68,0,475
1,73,110,1
1,70,82,1
1,58,86,5
1,65,106,1
1,61,105,4
1,73,0,465
1,70,0,1
1,73,86,4
1,58,0,1
1,65,0,1
1,58,91,0
1,68,127,2
1,61,105,0
1,70,105,1
1,56,108,0
1,61,0,1
1,73,0,710
1,58,0,2
1,61,0,2
1,68,0,0
1,70,0,1
1,56,0,0
1,70,127,4
1,63,105,7
1,65,127,2
1,58,120,2
1,65,0,474
1,65,119,19
1,70,0,212
1,58,89,3
1,63,0,4
1,58,0,4
1,70,104,5
1,63,117,1
1,65,0,7
1,65,94,1
1,58,0,214
1,70,127,11
1,70,0,2
1,58,127,5
1,63,115,6
1,65,104,235
1,65,0,3
1,63,0,0
1,68,109,212
1,70,0,13
1,58,0,7
1,65,0,1
1,56,108,1
1,63,0,4
1,68,0,1890
1,70,113,14
1,54,114,0
1,58,127,1
1,56,0,7
1,66,111,2
1,66,118,697
1,70,0,9
1,54,0,0
1,58,0,1
1,61,124,1
1,54,99,0
1,70,83,2
1,58,98,0
1,66,0,6
1,73,127,4
1,66,0,693
1,54,0,11
1,61,0,0
1,58,0,2
1,70,0,0
1,58,91,3
1,70,105,1
1,73,0,6
1,70,105,221
1,61,112,5
1,58,0,3
1,70,0,1
1,65,113,3
1,66,98,4
1,58,121,0
1,73,105,1
1,54,106,3
1,70,0,2136
1,61,0,5
1,65,0,7
1,58,0,4
1,66,0,0
1,73,0,1
1,54,0,3
1,58,105,230
1,70,95,7
1,54,105,0
1,66,84,13
1,58,0,456
1,70,0,7
1,54,0,0
1,58,108,4
1,61,126,2
1,54,126,1
1,66,121,3
1,66,0,3
1,73,86,1
1,70,88,0
1,58,102,456
1,58,0,10
1,61,0,2
1,54,0,1
1,66,0,3
1,70,93,0
1,73,0,4
1,70,0,0
1,58,0,456
1,70,97,4
1,66,87,5
1,70,0,7
1,65,108,1
1,58,105,2
1,54,123,0
1,73,107,7
1,61,103,6
1,70,0,2128
1,66,0,5
1,65,0,8
1,54,0,2
1,58,0,0
1,73,0,7
1,61,0,6
1,66,127,231
1,54,104,1
1,70,105,1
1,58,82,0
1,70,115,232
1,66,0,2
1,54,0,1
1,54,115,0
1,58,0,1
1,70,0,0
1,58,102,0
1,66,105,7
1,70,0,225
1,66,105,1
1,54,0,2
1,58,0,1
1,58,104,2
1,54,97,2
1,73,109,1
1,66,0,2
1,61,107,9
1,70,105,3
1,58,98,451
1,66,0,3
1,58,0,5
1,54,0,2
1,73,0,1
1,70,105,9
1,61,0,2
1,70,0,3
1,58,0,451
1,70,107,19
1,70,0,1
1,73,109,0
1,65,87,0
1,61,86,1
1,54,123,2
1,66,118,4
1,58,105,1
1,70,109,2140
1,61,107,1
1,70,0,6
1,73,0,1
1,65,0,0
1,73,91,0
1,61,0,1
1,54,0,2
1,54,105,0
1,66,0,4
1,58,113,0
1,58,0,1
1,66,90,9
1,61,0,212
1,73,0,7
1,61,104,11
1,73,96,3
1,61,105,220
1,61,0,13
1,73,106,1
1,73,0,2
1,61,0,220
1,70,0,2
1,66,101,6
1,54,0,5
1,73,0,1
1,70,103,1
1,61,126,0
1,58,0,2
1,58,99,4
1,54,120,1
1,66,0,5
1,73,104,0
1,66,0,217
1,66,102,8
1,54,0,6
1,54,84,12
1,66,0,218
1,61,0,3
1,73,95,1
1,65,91,0
1,53,105,2
1,61,105,3
1,56,114,2
1,73,0,4
1,68,127,2
1,54,0,1
1,73,0,222
1,65,0,0
1,53,0,2
1,70,0,1
1,61,0,2
1,58,0,4
1,65,103,0
1,53,100,7
1,61,90,6
1,73,112,1
1,68,127,451
1,65,0,11
1,56,0,2
1,53,0,5
1,68,0,1
1,56,107,1
1,61,0,4
1,73,0,1
1,68,0,451
1,65,102,16
1,70,105,1
1,58,105,1
1,56,0,2
1,65,0,232
1,70,0,1
1,58,0,1
1,61,106,4
1,73,121,1
1,58,101,469
1,61,0,6
1,73,0,1
1,65,89,2
1,70,97,6
1,58,0,701
1,65,0,9
1,56,127,5
1,70,0,1
1,68,114,3
1,56,0,472
1,68,0,4
1,71,109,1
1,66,104,0
1,59,106,10
1,56,103,223
1,66,0,3
1,71,0,0
1,63,81,6
1,59,0,4
1,68,95,5
1,56,0,458
1,63,0,9
1,66,93,3
1,71,103,2
1,68,0,4
1,59,127,1
1,61,117,706
1,66,0,3
1,71,0,2
1,73,104,2
1,59,0,3
1,61,0,466
1,73,105,6
1,73,0,1
1,65,105,3
1,61,110,4
1,68,92,7
1,73,0,221
1,70,105,3
1,65,0,1
1,61,0,4
1,68,0,7
1,70,0,464
1,65,122,9
1,61,99,3
1,73,112,6
1,68,108,2
1,65,0,705
1,61,0,3
1,71,106,1
1,73,0,5
1,68,0,2
1,59,95,0
1,63,110,468
1,71,0,1
1,59,126,4
1,71,91,1
1,59,0,2
1,66,120,5
1,63,0,223
1,59,0,5
1,71,0,1
1,68,105,1
1,66,0,6
1,68,0,230
1,68,121,11
1,71,96,223
1,66,106,12
1,68,0,1
1,63,94,4
1,59,116,4
1,71,0,695
1,58,105,8
1,66,0,4
1,54,122,3
1,66,118,1
1,63,0,1
1,59,0,4
1,61,98,1
1,70,87,4
1,73,94,4
1,58,0,694
1,58,104,2
1,61,110,2
1,54,0,3
1,66,0,1
1,70,105,4
1,66,114,1
1,61,0,1
1,70,0,4
1,54,105,0
1,73,84,1
1,73,0,3
1,58,0,456
1,61,0,2
1,52,107,5
1,73,90,2
1,68,106,0
1,70,0,1
1,66,0,1
1,64,100,3
1,61,103,0
1,54,0,2
1,73,0,1
1,56,102,2
1,52,0,704
1,68,0,2
1,73,0,0
1,64,0,5
1,61,0,0
1,68,100,4
1,56,0,1
1,73,100,473
1,68,113,0
1,65,116,1
1,61,105,3
1,56,102,0
