track,note,velocity,time
1,33,127,3072
1,28,127,528
1,33,127,528
1,28,127,528
1,28,127,528
1,33,127,528
1,33,127,528
1,28,127,528
1,33,127,528
1,28,127,528
1,33,127,528
1,28,127,528
1,28,127,528
1,33,127,528
1,33,127,528
1,28,127,528
1,33,127,144
1,33,127,146
1,28,127,528
1,33,127,528
1,28,127,528
1,28,127,528
1,33,127,528
1,33,127,528
1,28,127,528
1,33,127,528
1,28,127,528
1,33,127,528
1,28,127,528
1,28,127,528
1,33,127,528
1,33,127,528
1,28,127,528
1,33,127,144
1,26,127,144
1,33,127,528
1,33,127,336
1,33,127,96
1,26,127,528
1,33,127,384
1,33,127,96
1,33,127,528
1,33,127,336
1,28,127,96
1,28,127,528
1,28,127,528
1,35,127,528
1,35,127,336
1,28,127,96
1,28,127,528
1,33,127,528
1,33,127,144
1,28,127,48
1,28,127,144
1,33,127,48
1,33,127,13968
1,28,127,528
1,33,127,528
1,28,127,528
1,28,127,528
1,33,127,528
1,33,127,528
1,28,127,528
1,33,127,528
1,28,127,528
1,33,127,528
1,28,127,528
1,28,127,528
1,33,127,528
1,33,127,528
1,28,127,528
1,33,127,144
1,26,127,144
1,33,127,528
1,33,127,336
1,33,127,96
1,26,127,528
1,33,127,384
1,33,127,96
1,33,127,528
1,33,127,336
1,28,127,96
1,28,127,528
1,28,127,528
1,35,127,528
1,35,127,336
1,28,127,96
1,28,127,528
1,33,127,528
1,33,127,144
1,28,127,48
1,28,127,144
1,33,127,48
1,33,127,1680
1,28,127,528
1,33,127,528
1,28,127,528
1,28,127,528
1,33,127,528
1,33,127,528
1,28,127,528
1,33,127,528
1,28,127,528
1,33,127,528
1,28,127,528
1,28,127,528
1,33,127,528
1,33,127,528
1,28,127,528
1,33,127,144
1,26,127,144
1,33,127,528
1,33,127,336
1,33,127,96
1,26,127,528
1,33,127,384
1,33,127,96
1,33,127,528
1,33,127,336
1,28,127,96
1,28,127,528
1,28,127,528
1,35,127,528
1,35,127,336
1,28,127,96
1,28,127,528
1,33,127,528
1,33,127,144
1,28,127,48
1,28,127,144
1,33,127,48
1,33,127,1680
1,28,127,528
1,33,127,528
1,28,127,528
1,28,127,528
1,33,127,528
1,33,127,528
1,28,127,528
1,33,127,528
1,28,127,528
1,33,127,528
1,28,127,528
1,28,127,528
1,33,127,528
1,33,127,528
1,28,127,528
1,33,127,144
1,26,127,144
1,33,127,528
1,33,127,336
1,33,127,96
1,26,127,528
1,33,127,384
1,33,127,96
1,33,127,528
1,33,127,336
1,28,127,96
1,28,127,528
1,28,127,528
1,35,127,528
1,35,127,336
1,28,127,96
1,28,127,528
1,33,127,528
1,33,127,144
1,28,127,48
1,28,127,144
1,33,127,48
1,33,127,13968
1,28,127,528
1,33,127,528
1,28,127,528
1,28,127,528
1,33,127,528
1,33,127,528
1,28,127,528
1,33,127,528
1,28,127,528
1,33,127,528
1,28,127,528
1,28,127,528
1,33,127,528
1,33,127,528
1,28,127,528
1,33,127,144
1,26,127,144
1,33,127,528
1,33,127,336
1,33,127,96
1,26,127,528
1,33,127,384
1,33,127,96
1,33,127,528
1,33,127,336
1,28,127,96
1,28,127,528
1,28,127,528
1,35,127,528
1,35,127,336
1,28,127,96
1,28,127,528
1,33,127,528
1,33,127,144
1,28,127,48
1,28,127,144
1,33,127,48
2,61,100,3456
2,64,100,0
2,69,100,0
2,69,100,576
2,64,100,0
2,61,100,0
2,61,100,576
2,64,100,0
2,69,100,0
2,69,100,576
2,64,100,0
2,61,100,0
2,59,100,576
2,68,100,0
2,64,100,0
2,69,100,576
2,64,100,0
2,61,100,0
2,61,100,576
2,64,100,0
2,69,100,0
2,69,100,576
2,64,100,0
2,61,100,0
2,61,100,576
2,64,100,0
2,69,100,0
2,69,100,576
2,64,100,0
2,61,100,0
2,61,100,576
2,64,100,0
2,69,100,0
2,69,100,576
2,64,100,0
2,61,100,0
2,68,100,576
2,59,100,0
2,64,100,0
2,69,100,576
2,64,100,0
2,61,100,0
2,61,100,576
2,64,100,0
2,69,100,0
2,69,100,576
2,64,100,0
2,61,100,0
2,61,100,578
2,64,100,0
2,69,100,0
2,69,100,576
2,64,100,0
2,61,100,0
2,61,100,576
2,64,100,0
2,69,100,0
2,69,100,576
2,64,100,0
2,61,100,0
2,59,100,576
2,68,100,0
2,64,100,0
2,69,100,576
2,64,100,0
2,61,100,0
2,61,100,576
2,64,100,0
2,69,100,0
2,69,100,576
2,64,100,0
2,61,100,0
2,61,100,576
2,64,100,0
2,69,100,0
2,69,100,576
2,64,100,0
2,61,100,0
2,61,100,576
2,64,100,0
2,69,100,0
2,69,100,576
2,64,100,0
2,61,100,0
2,68,100,576
2,59,100,0
2,64,100,0
2,69,100,576
2,64,100,0
2,61,100,0
2,61,100,576
2,64,100,0
2,69,100,0
2,69,100,576
2,64,100,0
2,61,100,0
2,57,100,576
2,62,100,0
2,66,100,0
2,57,100,576
2,62,100,0
2,66,100,0
2,57,100,576
2,62,100,0
2,66,100,0
2,57,100,576
2,62,100,0
2,66,100,0
2,61,100,576
2,64,100,0
2,69,100,0
2,69,100,576
2,64,100,0
2,61,100,0
2,59,100,576
2,68,100,0
2,64,100,0
2,68,100,576
2,59,100,0
2,64,100,0
2,59,100,576
2,68,100,0
2,64,100,0
2,59,100,576
2,68,100,0
2,64,100,0
2,59,100,576
2,68,100,0
2,64,100,0
2,68,100,576
2,59,100,0
2,64,100,0
2,61,100,192
2,64,100,0
2,69,100,0
2,69,100,192
2,64,100,0
2,61,100,0
2,66,100,48
2,62,100,0
2,57,100,0
2,57,100,192
2,62,100,0
2,66,100,0
2,69,100,48
2,64,100,0
2,61,100,0
2,61,100,14400
2,64,100,0
2,69,100,0
2,69,100,576
2,64,100,0
2,61,100,0
2,61,100,576
2,64,100,0
2,69,100,0
2,69,100,576
2,64,100,0
2,61,100,0
2,59,100,576
2,68,100,0
2,64,100,0
2,69,100,576
2,64,100,0
2,61,100,0
2,61,100,576
2,64,100,0
2,69,100,0
2,69,100,576
2,64,100,0
2,61,100,0
2,61,100,576
2,64,100,0
2,69,100,0
2,69,100,576
2,64,100,0
2,61,100,0
2,61,100,576
2,64,100,0
2,69,100,0
2,69,100,576
2,64,100,0
2,61,100,0
2,68,100,576
2,59,100,0
2,64,100,0
2,69,100,576
2,64,100,0
2,61,100,0
2,61,100,576
2,64,100,0
2,69,100,0
2,69,100,576
2,64,100,0
2,61,100,0
2,57,100,576
2,62,100,0
2,66,100,0
2,57,100,576
2,62,100,0
2,66,100,0
2,57,100,576
2,62,100,0
2,66,100,0
2,57,100,576
2,62,100,0
2,66,100,0
2,61,100,576
2,64,100,0
2,69,100,0
2,69,100,576
2,64,100,0
2,61,100,0
2,59,100,576
2,68,100,0
2,64,100,0
2,68,100,576
2,59,100,0
2,64,100,0
2,59,100,576
2,68,100,0
2,64,100,0
2,59,100,576
2,68,100,0
2,64,100,0
2,59,100,576
2,68,100,0
2,64,100,0
2,68,100,576
2,59,100,0
2,64,100,0
2,61,100,192
2,64,100,0
2,69,100,0
2,69,100,192
2,64,100,0
2,61,100,0
2,66,100,48
2,62,100,0
2,57,100,0
2,57,100,192
2,62,100,0
2,66,100,0
2,69,100,48
2,64,100,0
2,61,100,0
2,61,100,2112
2,64,100,0
2,69,100,0
2,69,100,576
2,64,100,0
2,61,100,0
2,61,100,576
2,64,100,0
2,69,100,0
2,69,100,576
2,64,100,0
2,61,100,0
2,59,100,576
2,68,100,0
2,64,100,0
2,69,100,576
2,64,100,0
2,61,100,0
2,61,100,576
2,64,100,0
2,69,100,0
2,69,100,576
2,64,100,0
2,61,100,0
2,61,100,576
2,64,100,0
2,69,100,0
2,69,100,576
2,64,100,0
2,61,100,0
2,61,100,576
2,64,100,0
2,69,100,0
2,69,100,576
2,64,100,0
2,61,100,0
2,68,100,576
2,59,100,0
2,64,100,0
2,69,100,576
2,64,100,0
2,61,100,0
2,61,100,576
2,64,100,0
2,69,100,0
2,69,100,576
2,64,100,0
2,61,100,0
2,57,100,576
2,62,100,0
2,66,100,0
2,57,100,576
2,62,100,0
2,66,100,0
2,57,100,576
2,62,100,0
2,66,100,0
2,57,100,576
2,62,100,0
2,66,100,0
2,61,100,576
2,64,100,0
2,69,100,0
2,69,100,576
2,64,100,0
2,61,100,0
2,59,100,576
2,68,100,0
2,64,100,0
2,68,100,576
2,59,100,0
2,64,100,0
2,59,100,576
2,68,100,0
2,64,100,0
2,59,100,576
2,68,100,0
2,64,100,0
2,59,100,576
2,68,100,0
2,64,100,0
2,68,100,576
2,59,100,0
2,64,100,0
2,61,100,192
2,64,100,0
2,69,100,0
2,69,100,192
2,64,100,0
2,61,100,0
2,66,100,48
2,62,100,0
2,57,100,0
2,57,100,192
2,62,100,0
2,66,100,0
2,69,100,48
2,64,100,0
2,61,100,0
2,61,100,2112
2,64,100,0
2,69,100,0
2,69,100,576
2,64,100,0
2,61,100,0
2,61,100,576
2,64,100,0
2,69,100,0
2,69,100,576
2,64,100,0
2,61,100,0
2,59,100,576
2,68,100,0
2,64,100,0
2,69,100,576
2,64,100,0
2,61,100,0
2,61,100,576
2,64,100,0
2,69,100,0
2,69,100,576
2,64,100,0
2,61,100,0
2,61,100,576
2,64,100,0
2,69,100,0
2,69,100,576
2,64,100,0
2,61,100,0
2,61,100,576
2,64,100,0
2,69,100,0
2,69,100,576
2,64,100,0
2,61,100,0
2,68,100,576
2,59,100,0
2,64,100,0
2,69,100,576
2,64,100,0
2,61,100,0
2,61,100,576
2,64,100,0
2,69,100,0
2,69,100,576
2,64,100,0
2,61,100,0
2,57,100,576
2,62,100,0
2,66,100,0
2,57,100,576
2,62,100,0
2,66,100,0
2,57,100,576
2,62,100,0
2,66,100,0
2,57,100,576
2,62,100,0
2,66,100,0
2,61,100,576
2,64,100,0
2,69,100,0
2,69,100,576
2,64,100,0
2,61,100,0
2,59,100,576
2,68,100,0
2,64,100,0
2,68,100,576
2,59,100,0
2,64,100,0
2,59,100,576
2,68,100,0
2,64,100,0
2,59,100,576
2,68,100,0
2,64,100,0
2,59,100,576
2,68,100,0
2,64,100,0
2,68,100,576
2,59,100,0
2,64,100,0
2,61,100,192
2,64,100,0
2,69,100,0
2,69,100,192
2,64,100,0
2,61,100,0
2,66,100,48
2,62,100,0
2,57,100,0
2,57,100,192
2,62,100,0
2,66,100,0
2,69,100,48
2,64,100,0
2,61,100,0
2,61,100,14400
2,64,100,0
2,69,100,0
2,69,100,576
2,64,100,0
2,61,100,0
2,61,100,576
2,64,100,0
2,69,100,0
2,69,100,576
2,64,100,0
2,61,100,0
2,59,100,576
2,68,100,0
2,64,100,0
2,69,100,576
2,64,100,0
2,61,100,0
2,61,100,576
2,64,100,0
2,69,100,0
2,69,100,576
2,64,100,0
2,61,100,0
2,61,100,576
2,64,100,0
2,69,100,0
2,69,100,576
2,64,100,0
2,61,100,0
2,61,100,576
2,64,100,0
2,69,100,0
2,69,100,576
2,64,100,0
2,61,100,0
2,68,100,576
2,59,100,0
2,64,100,0
2,69,100,576
2,64,100,0
2,61,100,0
2,61,100,576
2,64,100,0
2,69,100,0
2,69,100,576
2,64,100,0
2,61,100,0
2,57,100,576
2,62,100,0
2,66,100,0
2,57,100,576
2,62,100,0
2,66,100,0
2,57,100,576
2,62,100,0
2,66,100,0
2,57,100,576
2,62,100,0
2,66,100,0
2,61,100,576
2,64,100,0
2,69,100,0
2,69,100,576
2,64,100,0
2,61,100,0
2,59,100,576
2,68,100,0
2,64,100,0
2,68,100,576
2,59,100,0
2,64,100,0
2,59,100,576
2,68,100,0
2,64,100,0
2,59,100,576
2,68,100,0
2,64,100,0
2,59,100,576
2,68,100,0
2,64,100,0
2,68,100,576
2,59,100,0
2,64,100,0
2,61,100,192
2,64,100,0
2,69,100,0
2,69,100,192
2,64,100,0
2,61,100,0
2,66,100,48
2,62,100,0
2,57,100,0
2,57,100,192
2,62,100,0
2,66,100,0
2,69,100,48
2,64,100,0
2,61,100,0
3,61,64,3456
3,64,64,0
3,69,64,0
3,69,64,576
3,64,64,0
3,61,64,0
3,61,64,576
3,64,64,0
3,69,64,0
3,69,64,576
3,64,64,0
3,61,64,0
3,59,64,576
3,68,64,0
3,64,64,0
3,69,64,576
3,64,64,0
3,61,64,0
3,61,64,576
3,64,64,0
3,69,64,0
3,69,64,576
3,64,64,0
3,61,64,0
3,61,64,576
3,64,64,0
3,69,64,0
3,69,64,576
3,64,64,0
3,61,64,0
3,61,64,576
3,64,64,0
3,69,64,0
3,69,64,576
3,64,64,0
3,61,64,0
3,68,64,576
3,59,64,0
3,64,64,0
3,69,64,576
3,64,64,0
3,61,64,0
3,61,64,576
3,64,64,0
3,69,64,0
3,69,64,576
3,64,64,0
3,61,64,0
3,61,64,578
3,64,64,0
3,69,64,0
3,69,64,576
3,64,64,0
3,61,64,0
3,61,64,576
3,64,64,0
3,69,64,0
3,69,64,576
3,64,64,0
3,61,64,0
3,59,64,576
3,68,64,0
3,64,64,0
3,69,64,576
3,64,64,0
3,61,64,0
3,61,64,576
3,64,64,0
3,69,64,0
3,69,64,576
3,64,64,0
3,61,64,0
3,61,64,576
3,64,64,0
3,69,64,0
3,69,64,576
3,64,64,0
3,61,64,0
3,61,64,576
3,64,64,0
3,69,64,0
3,69,64,576
3,64,64,0
3,61,64,0
3,68,64,576
3,59,64,0
3,64,64,0
3,69,64,576
3,64,64,0
3,61,64,0
3,61,64,576
3,64,64,0
3,69,64,0
3,69,64,576
3,64,64,0
3,61,64,0
3,57,64,576
3,62,64,0
3,66,64,0
3,57,64,576
3,62,64,0
3,66,64,0
3,57,64,576
3,62,64,0
3,66,64,0
3,57,64,576
3,62,64,0
3,66,64,0
3,61,64,576
3,64,64,0
3,69,64,0
3,69,64,576
3,64,64,0
3,61,64,0
3,59,64,576
3,68,64,0
3,64,64,0
3,68,64,576
3,59,64,0
3,64,64,0
3,59,64,576
3,68,64,0
3,64,64,0
3,59,64,576
3,68,64,0
3,64,64,0
3,59,64,576
3,68,64,0
3,64,64,0
3,68,64,576
3,59,64,0
3,64,64,0
3,61,64,192
3,64,64,0
3,69,64,0
3,69,64,192
3,64,64,0
3,61,64,0
3,66,64,48
3,62,64,0
3,57,64,0
3,57,64,192
3,62,64,0
3,66,64,0
3,69,64,48
3,64,64,0
3,61,64,0
3,61,64,14400
3,64,64,0
3,69,64,0
3,69,64,576
3,64,64,0
3,61,64,0
3,61,64,576
3,64,64,0
3,69,64,0
3,69,64,576
3,64,64,0
3,61,64,0
3,59,64,576
3,68,64,0
3,64,64,0
3,69,64,576
3,64,64,0
3,61,64,0
3,61,64,576
3,64,64,0
3,69,64,0
3,69,64,576
3,64,64,0
3,61,64,0
3,61,64,576
3,64,64,0
3,69,64,0
3,69,64,576
3,64,64,0
3,61,64,0
3,61,64,576
3,64,64,0
3,69,64,0
3,69,64,576
3,64,64,0
3,61,64,0
3,68,64,576
3,59,64,0
3,64,64,0
3,69,64,576
3,64,64,0
3,61,64,0
3,61,64,576
3,64,64,0
3,69,64,0
3,69,64,576
3,64,64,0
3,61,64,0
3,57,64,576
3,62,64,0
3,66,64,0
3,57,64,576
3,62,64,0
3,66,64,0
3,57,64,576
3,62,64,0
3,66,64,0
3,57,64,576
3,62,64,0
3,66,64,0
3,61,64,576
3,64,64,0
3,69,64,0
3,69,64,576
3,64,64,0
3,61,64,0
3,59,64,576
3,68,64,0
3,64,64,0
3,68,64,576
3,59,64,0
3,64,64,0
3,59,64,576
3,68,64,0
3,64,64,0
3,59,64,576
3,68,64,0
3,64,64,0
3,59,64,576
3,68,64,0
3,64,64,0
3,68,64,576
3,59,64,0
3,64,64,0
3,61,64,192
3,64,64,0
3,69,64,0
3,69,64,192
3,64,64,0
3,61,64,0
3,66,64,48
3,62,64,0
3,57,64,0
3,57,64,192
3,62,64,0
3,66,64,0
3,69,64,48
3,64,64,0
3,61,64,0
3,61,64,2112
3,64,64,0
3,69,64,0
3,69,64,576
