track,note,velocity,time
1,72,118,1920
1,76,126,0
1,84,123,4
1,72,116,76
1,86,114,16
1,77,123,0
1,79,108,24
1,72,127,100
1,79,127,0
1,88,124,4
1,85,103,20
1,84,113,88
1,72,126,4
1,76,119,0
1,77,127,168
1,86,123,0
1,72,124,4
1,72,124,108
1,86,127,0
1,77,127,20
1,82,123,108
1,74,127,0
1,72,121,4
1,72,123,168
1,84,124,0
1,77,124,4
1,79,123,0
1,72,127,120
1,77,127,16
1,84,127,0
1,79,126,4
1,72,127,104
1,81,119,16
1,77,127,0
1,72,121,416
1,84,117,0
1,76,119,4
1,72,118,84
1,77,121,0
1,86,116,4
1,72,124,96
1,79,127,0
1,88,124,0
1,84,114,92
1,76,116,0
1,72,121,0
1,77,114,168
1,86,114,0
1,72,109,4
1,72,123,108
1,77,126,16
1,86,124,0
1,72,116,108
1,82,122,0
1,74,117,4
1,72,112,160
1,84,110,0
1,79,110,4
1,77,112,0
1,72,127,112
1,77,127,16
1,79,127,0
1,84,124,4
1,72,124,100
1,81,123,0
1,77,126,4
1,82,127,684
1,87,127,0
1,77,127,4
1,82,127,128
1,87,127,0
1,77,127,4
1,77,124,120
1,82,127,4
1,86,123,0
1,82,123,180
1,77,121,0
1,84,104,4
1,84,119,152
1,77,126,0
1,82,127,0
1,82,127,112
1,77,123,0
1,86,126,4
1,82,127,184
1,84,124,4
1,77,127,0
1,82,127,140
1,77,127,0
1,84,127,4
1,84,127,144
1,77,127,0
1,81,127,0
1,53,127,160
1,65,127,0
1,70,127,4
1,72,124,0
1,65,127,68
1,74,124,0
1,70,127,4
1,75,122,60
1,70,127,0
1,67,127,4
1,51,127,0
1,50,127,112
1,70,127,8
1,74,127,0
1,65,127,0
1,48,127,88
1,72,127,0
1,67,127,0
1,65,127,0
1,72,118,484
1,84,118,0
1,76,123,0
1,86,116,56
1,77,123,0
1,74,121,0
1,76,127,76
1,88,126,0
1,79,127,0
1,84,119,72
1,76,126,4
1,72,127,0
1,77,127,120
1,86,127,12
1,74,124,0
1,74,127,108
1,77,127,16
1,86,127,0
1,72,119,84
1,82,119,0
1,74,118,20
1,84,117,108
1,77,108,4
1,72,119,0
1,76,106,24
1,72,127,104
1,84,127,16
1,77,127,0
1,79,127,0
1,72,127,112
1,77,127,0
1,81,127,0
1,84,113,368
1,76,124,12
1,72,119,0
1,77,127,68
1,86,126,0
1,72,119,0
1,79,127,84
1,88,127,0
1,72,127,0
1,84,116,76
1,76,126,0
1,72,126,0
1,72,118,132
1,77,117,0
1,86,117,0
1,72,127,128
1,77,127,0
1,86,127,0
1,74,123,84
1,82,123,0
1,72,118,20
1,77,118,180
1,84,119,12
1,79,114,4
1,72,124,0
1,72,127,124
1,77,127,0
1,79,127,0
1,84,127,0
1,77,127,88
1,72,127,0
1,81,126,0
1,82,127,580
1,77,127,4
1,87,127,16
1,87,127,120
1,77,127,0
1,82,127,0
1,82,127,96
1,77,127,12
1,86,126,0
1,82,125,152
1,84,118,0
1,77,126,0
1,82,127,128
1,84,126,0
1,77,127,0
1,77,127,104
1,82,127,0
1,86,127,4
1,77,127,160
1,82,127,0
1,84,127,0
1,82,127,116
1,77,127,0
1,84,127,0
1,77,127,132
1,84,127,0
1,81,127,0
1,53,127,44
1,65,127,0
1,69,127,0
1,72,127,0
1,70,127,84
1,65,126,0
1,74,127,0
1,67,127,84
1,75,127,4
1,70,125,0
1,51,127,24
1,50,127,120
1,70,127,0
1,65,127,0
1,74,127,4
1,67,127,92
1,65,127,0
1,72,127,0
1,48,127,4
1,36,127,396
1,77,126,1140
1,69,127,4
1,79,112,8
1,70,127,12
1,82,123,72
1,74,127,0
1,72,126,56
1,81,117,0
1,79,111,88
1,70,127,0
1,69,127,48
1,77,121,0
1,78,105,20
1,81,123,48
1,72,127,0
1,70,127,88
1,74,126,4
1,74,127,88
1,77,126,0
1,72,127,28
1,76,127,0
1,72,118,24
1,67,127,16
1,65,127,8
1,69,127,0
1,69,127,112
1,74,126,0
1,69,127,100
1,74,127,12
1,70,122,0
1,74,127,24
1,69,127,0
1,74,126,20
1,67,127,0
1,74,114,28
1,65,127,12
1,77,127,300
1,69,127,0
1,75,97,16
1,79,116,16
1,70,127,12
1,82,127,100
1,74,127,16
1,72,127,40
1,81,121,0
1,79,119,48
1,70,127,0
1,69,127,48
1,77,126,0
1,81,119,16
1,72,127,0
1,75,94,20
1,74,123,72
1,70,127,0
1,77,127,104
1,74,127,0
1,72,127,32
1,76,119,0
1,72,123,64
1,67,127,0
1,65,127,4
1,69,127,0
1,69,121,140
1,60,127,0
1,65,127,20
1,60,127,84
1,65,127,12
1,70,127,0
1,60,127,108
1,69,127,4
1,65,127,0
1,62,127,156
1,60,126,4
1,65,127,0
1,60,127,92
1,67,127,0
1,64,127,0
1,79,127,272
1,86,127,0
1,86,127,40
1,81,127,0
1,81,127,96
1,86,127,16
1,82,127,0
1,86,127,40
1,81,127,0
1,79,127,104
1,86,127,0
1,77,127,84
1,86,127,0
1,64,114,304
1,60,118,0
1,55,113,8
1,48,123,0
1,57,108,24
1,62,115,4
1,57,127,0
1,65,119,0
1,50,117,0
1,79,127,216
1,86,127,0
1,86,123,24
1,81,126,0
1,81,127,84
1,86,127,0
1,82,108,32
1,86,127,24
1,81,127,0
1,82,114,20
1,79,127,32
1,86,127,0
1,86,127,64
1,77,127,0
1,65,127,360
1,57,127,0
1,62,127,20
1,50,127,0
1,64,117,60
1,55,127,0
1,48,127,0
1,60,127,0
1,79,127,8
1,86,127,0
1,86,124,24
1,81,127,0
1,86,127,100
1,81,127,0
1,82,127,20
1,86,127,32
1,81,127,0
1,82,104,16
1,79,127,96
1,86,126,0
1,77,127,76
1,86,127,0
1,67,127,416
1,74,127,4
1,79,127,0
1,59,124,0
1,76,123,64
1,79,127,0
1,67,127,4
1,60,123,0
1,81,127,188
1,76,127,0
1,69,127,0
1,61,127,0
1,69,127,0
1,81,127,0
1,76,126,0
1,61,127,0
1,62,127,72
1,77,127,0
1,69,127,4
1,74,127,0
1,67,127,64
1,76,127,0
1,72,127,0
1,60,127,24
1,65,127,168
1,74,126,4
1,70,127,0
1,58,127,4
1,48,112,32
1,60,121,40
1,65,127,4
1,67,127,0
1,72,127,24
1,76,123,384
1,84,118,0
1,72,127,4
1,86,113,48
1,77,124,0
1,72,119,0
1,79,127,108
1,88,127,0
1,72,127,4
1,72,121,76
1,76,124,0
1,84,118,0
1,72,118,164
1,77,126,0
1,86,118,0
1,72,123,124
1,77,127,0
1,86,127,4
1,74,127,72
1,82,123,0
1,72,115,20
1,84,117,176
1,79,117,0
1,77,118,20
1,72,121,0
1,72,126,116
1,79,127,0
1,77,127,4
1,84,127,0
1,72,124,80
1,81,123,0
1,77,127,0
1,76,124,396
1,84,123,0
1,72,126,4
1,77,127,72
1,86,121,0
1,72,121,0
1,72,127,108
1,79,127,0
1,88,127,4
1,72,121,64
1,84,116,0
1,76,121,0
1,77,124,180
1,86,121,0
1,72,118,20
1,72,127,120
1,77,127,0
1,86,127,0
1,74,127,72
1,82,127,0
1,72,119,0
1,77,118,180
1,79,116,0
1,84,116,0
1,72,114,20
1,72,124,116
1,77,127,0
1,79,127,4
1,84,127,0
1,81,118,76
1,77,127,0
1,72,126,0
1,87,127,604
1,82,127,0
1,77,127,4
1,82,127,108
1,87,127,0
1,77,127,0
1,77,127,96
1,82,127,0
1,86,124,0
1,82,122,168
1,84,116,12
1,77,126,4
1,82,125,132
1,84,118,0
1,77,127,0
1,86,117,48
1,82,127,0
1,77,127,0
1,82,127,168
1,77,127,0
1,84,126,0
1,82,127,124
1,77,127,0
1,84,126,0
1,84,124,164
1,77,127,0
1,81,127,4
1,53,119,112
1,72,118,0
1,65,124,0
1,69,123,0
1,70,127,56
1,65,126,0
1,74,127,0
1,67,126,84
1,75,127,0
1,70,122,0
1,51,127,24
1,65,127,164
1,50,121,0
1,70,127,4
1,74,127,4
1,72,127,88
1,65,127,0
1,48,127,0
1,67,127,0
1,36,117,976
1,77,121,48
1,69,127,0
1,79,109,24
1,70,125,0
1,74,124,116
1,82,125,0
1,72,116,76
1,81,114,0
1,79,106,132
1,70,125,0
1,69,126,88
1,77,117,0
1,81,116,8
1,72,127,12
1,70,127,48
1,74,123,0
1,77,127,116
1,74,126,0
1,72,127,32
1,76,127,0
1,72,118,56
1,67,126,0
1,69,115,56
1,65,112,12
1,74,127,136
1,69,127,0
1,69,127,108
1,74,127,12
1,70,127,0
1,74,127,28
1,69,127,0
1,74,124,80
1,67,127,16
1,68,109,0
1,74,119,76
1,65,123,12
1,69,127,288
1,77,124,0
1,75,97,20
1,79,113,16
1,70,127,0
1,82,127,104
1,74,127,0
1,81,118,80
1,72,127,0
1,79,103,124
1,70,127,0
1,69,127,80
1,77,121,0
1,78,102,20
1,81,123,20
1,72,127,4
1,75,101,16
1,70,127,72
1,74,124,0
1,77,124,124
1,74,126,0
1,72,127,32
1,76,127,0
1,72,118,112
1,67,127,0
1,65,121,64
1,69,127,0
1,69,124,148
1,65,127,0
1,60,127,0
1,60,127,80
1,70,127,0
1,65,127,0
1,60,127,128
1,69,127,0
1,65,127,4
1,62,121,160
1,65,116,0
1,60,117,0
1,64,127,84
1,60,127,0
1,67,127,0
1,79,127,320
1,86,127,0
1,86,127,44
1,81,127,0
1,81,127,96
1,86,127,4
1,82,127,4
1,86,127,24
1,81,127,12
1,82,122,0
1,86,127,56
1,79,127,0
1,77,127,64
1,86,127,0
1,67,127,332
1,60,127,0
1,48,127,0
1,64,127,0
1,69,126,40
1,50,123,0
1,62,127,0
1,65,123,0
1,79,127,200
1,86,127,0
1,81,127,32
1,86,127,0
1,82,115,20
1,81,127,80
1,86,127,0
1,82,127,20
1,86,127,48
1,81,127,12
1,79,127,88
1,86,127,0
1,77,127,88
1,86,127,0
1,50,126,340
1,57,127,0
1,62,127,0
1,65,127,0
1,48,123,28
1,64,115,4
1,55,127,0
1,60,127,0
1,79,127,56
1,86,124,0
1,81,127,32
1,86,126,0
1,81,127,88
1,86,127,0
1,82,127,20
1,86,127,40
1,81,127,0
1,82,122,16
1,79,127,24
1,86,121,0
1,77,127,72
1,86,127,0
1,67,127,388
1,59,127,0
1,74,127,0
1,79,127,0
1,79,127,40
1,67,127,0
1,60,127,0
1,76,127,24
1,81,126,72
1,76,127,0
1,69,127,0
1,61,127,0
1,62,127,48
1,81,124,0
1,69,127,0
1,77,127,0
1,79,123,68
1,76,121,0
1,72,127,0
1,60,127,0
1,70,127,220
1,58,127,0
1,74,126,0
1,77,123,0
1,65,127,200
1,67,127,4
1,72,127,0
1,60,127,0
1,65,127,324
1,60,127,0
1,57,127,0
1,53,127,0
1,41,123,0
1,72,114,2736
1,81,118,0
1,72,117,40
1,81,116,0
1,84,124,16
1,76,127,0
1,86,114,12
1,77,126,0
1,79,119,264
1,88,110,0
1,76,126,12
1,84,126,12
1,77,119,368
1,86,114,0
1,82,127,384
1,74,127,0
1,76,121,256
1,84,114,8
1,86,110,244
1,77,126,0
1,72,123,12
1,81,127,4
1,74,119,364
1,82,127,0
1,79,119,136
1,70,127,0
1,81,117,4
1,72,126,0
1,84,117,148
1,76,121,0
1,77,127,248
1,86,112,0
1,88,107,248
1,79,117,0
1,76,117,4
1,84,115,12
1,77,127,372
1,86,116,8
1,74,127,92
1,82,127,0
1,74,123,0
1,76,117,268
1,84,112,0
1,86,112,8
1,77,119,0
1,72,117,12
1,81,112,12
1,82,127,356
1,74,121,0
1,70,127,144
1,79,127,0
1,77,119,116
1,72,114,92
1,69,124,100
1,65,116,76
1,64,114,16
1,67,119,100
1,72,116,100
1,76,114,72
1,75,127,12
1,70,122,100
1,67,119,4
1,63,123,88
1,62,115,20
1,65,126,88
1,70,127,96
1,74,126,68
1,72,123,12
1,67,116,88
1,64,112,20
1,60,114,100
1,59,108,4
1,62,113,84
1,67,115,96
1,71,115,56
1,72,126,40
1,67,116,96
1,64,115,0
1,60,114,96
1,58,127,48
1,61,127,80
1,66,127,100
1,70,125,60
1,71,124,16
1,66,127,88
1,63,127,0
1,59,114,0
1,64,113,100
1,68,120,72
1,71,114,8
1,76,111,100
1,69,124,92
1,64,111,84
1,61,123,64
1,57,114,0
1,62,119,96
1,66,127,72
1,69,124,4
1,74,115,88
1,67,117,40
1,62,110,100
1,59,114,48
1,55,102,80
1,60,118,72
1,64,113,92
1,67,111,64
1,72,108,84
1,48,114,32
1,58,127,0
1,53,117,0
1,60,127,20
1,48,123,144
1,55,127,4
1,58,122,0
1,60,123,0
1,51,122,0
1,67,127,0
1,72,127,400
1,76,127,12
1,84,118,0
1,72,123,48
1,77,124,0
1,86,114,0
1,72,124,88
1,79,114,12
1,88,112,0
1,76,118,72
1,84,115,0
1,72,126,20
1,72,121,188
1,77,118,12
1,86,119,0
1,86,124,144
1,77,123,0
1,72,118,4
1,82,119,80
1,74,119,0
1,72,124,0
1,72,123,196
1,77,113,16
1,84,110,0
1,79,111,0
1,72,127,108
1,84,123,0
1,79,126,20
1,77,126,0
1,72,126,84
1,81,116,0
1,77,119,0
1,72,127,400
1,84,117,0
1,76,124,0
1,77,127,68
1,86,118,0
1,72,127,0
1,72,126,104
1,79,127,16
1,88,127,0
1,76,119,52
1,72,118,0
1,84,115,0
1,72,109,188
1,77,117,12
1,86,121,0
1,72,111,136
1,77,127,0
1,86,127,0
1,82,117,60
1,74,121,0
1,72,114,16
1,72,118,220
1,77,110,0
1,79,107,0
1,84,103,24
1,72,123,128
1,77,126,0
1,79,126,0
1,84,124,4
1,72,123,76
1,81,108,12
1,77,119,0
1,77,127,560
1,82,127,0
1,87,127,0
1,87,125,84
1,77,127,0
1,82,127,20
1,82,127,72
1,77,127,0
1,86,124,0
1,84,118,140
1,82,127,0
1,77,127,0
1,80,103,24
1,77,127,120
1,82,127,0
1,84,124,0
1,82,127,96
1,77,121,0
1,86,123,0
1,82,127,196
1,77,127,0
1,84,123,4
1,82,127,108
1,77,127,0
1,84,124,0
1,77,127,132
1,81,127,0
1,84,126,0
1,53,127,84
1,65,127,12
1,69,127,0
1,72,124,0
1,74,116,36
1,70,123,0
1,65,127,0
1,70,127,88
1,67,127,0
1,75,121,4
1,51,127,0
1,50,118,160
1,65,126,0
1,70,127,0
1,74,127,0
1,72,127,84
1,65,127,12
1,67,127,0
1,48,123,0
1,36,99,1728
1,69,127,4
1,77,119,0
1,79,111,68
1,70,122,0
1,82,125,100
1,74,124,0
1,72,121,52
1,81,118,0
1,70,127,76
1,79,111,0
1,69,127,60
1,77,117,0
1,81,117,24
1,72,127,0
1,74,118,44
1,70,127,0
1,74,121,100
1,77,123,0
1,72,124,20
1,76,113,0
1,72,116,60
1,67,124,0
1,65,115,76
1,69,117,0
1,69,127,116
1,74,119,4
1,69,127,116
1,74,127,0
1,70,120,20
1,69,127,20
1,74,126,0
1,74,121,28
1,67,127,0
1,65,116,396
1,69,127,260
1,77,127,0
1,70,127,52
1,79,126,0
1,82,125,108
1,74,126,0
1,81,116,72
1,72,127,0
1,70,127,36
1,79,114,4
1,69,127,40
1,77,121,12
1,78,100,4
1,81,119,16
1,72,127,0
1,70,127,52
1,74,121,0
1,77,127,84
1,74,127,0
1,72,127,40
1,76,127,0
1,72,119,28
1,67,127,0
1,65,123,8
1,69,126,0
1,60,126,228
1,65,126,0
1,69,124,0
1,60,127,68
1,70,123,0
1,65,127,4
1,60,127,124
1,69,126,0
1,65,127,4
1,60,123,136
1,65,124,4
1,60,123,96
1,64,121,0
1,67,121,0
1,48,115,584
1,79,127,280
1,86,118,16
1,81,127,44
1,86,127,0
1,86,127,84
1,81,127,0
1,82,127,4
1,86,127,60
1,81,127,0
1,79,127,68
1,86,127,0
1,81,106,20
1,86,121,76
1,77,127,0
1,64,114,316
1,67,117,0
1,60,117,0
1,48,124,0
1,50,111,24
1,57,121,0
1,62,119,0
1,65,116,4
1,79,127,220
1,86,127,12
1,86,124,40
1,81,121,0
