track,note,velocity,time
0,38,73,956
0,45,93,188
0,36,127,188
0,42,75,0
0,49,107,0
0,44,114,0
0,68,91,0
0,70,105,0
0,63,105,0
0,61,109,0
0,65,103,0
0,58,94,0
0,61,108,0
0,42,82,112
0,44,120,0
0,36,127,112
0,38,109,0
0,42,91,0
0,39,87,0
0,42,116,0
0,42,83,16
0,68,105,0
0,61,106,0
0,63,94,0
0,70,97,0
0,61,106,0
0,65,109,0
0,58,98,0
0,42,107,92
0,36,123,16
0,42,87,0
0,41,110,0
0,78,100,16
0,78,108,0
0,42,75,16
0,41,113,0
0,77,105,0
0,77,119,0
0,75,103,16
0,75,106,0
0,36,119,16
0,38,112,0
0,42,73,0
0,39,92,0
0,37,117,0
0,73,116,0
0,73,102,0
0,75,119,16
0,75,113,0
0,42,88,16
0,34,103,0
0,73,109,0
0,73,114,0
0,75,108,16
0,75,105,0
0,36,127,16
0,42,76,0
0,32,116,0
0,63,104,0
0,61,91,0
0,68,99,0
0,70,91,0
0,70,100,0
0,70,117,0
0,65,104,0
0,58,105,0
0,61,95,0
0,42,83,112
0,36,127,12
0,38,107,0
0,42,82,0
0,39,96,0
0,32,119,0
0,68,113,0
0,68,111,0
0,42,78,32
0,63,104,0
0,61,109,0
0,70,103,0
0,68,92,0
0,65,109,0
0,61,103,0
0,58,93,0
0,36,116,84
0,42,79,0
0,32,107,0
0,42,81,112
0,36,116,188
0,38,109,0
0,42,80,0
0,39,92,0
0,32,121,0
0,36,104,16
0,46,91,16
0,39,106,0
0,36,124,12
0,42,87,0
0,44,119,0
0,63,91,0
0,68,97,0
0,61,104,0
0,70,108,0
0,61,102,0
0,58,92,0
0,65,101,0
0,42,86,112
0,44,114,0
0,36,127,112
0,38,122,0
0,42,82,0
0,39,79,0
0,42,109,0
0,42,73,16
0,63,95,0
0,68,94,0
0,61,103,0
0,70,97,0
0,70,115,0
0,70,115,0
0,65,100,0
0,61,94,0
0,58,92,0
0,42,117,92
0,36,121,8
0,42,75,0
0,41,113,0
0,78,101,0
0,78,101,0
0,42,83,112
0,41,117,0
0,77,103,12
0,77,105,0
0,36,127,112
0,38,117,0
0,42,76,0
0,39,93,0
0,37,105,0
0,75,119,12
0,75,118,0
0,42,82,16
0,37,117,28
0,36,124,12
0,42,82,0
0,32,115,0
0,61,104,0
0,68,107,0
0,70,103,0
0,63,99,0
0,82,104,0
0,82,111,0
0,65,94,0
0,61,101,0
0,58,102,0
0,42,91,112
0,36,127,12
0,38,121,0
0,42,82,0
0,39,91,0
0,32,110,0
0,80,117,0
0,80,116,0
0,42,80,32
0,61,90,0
0,68,99,0
0,70,103,0
0,63,93,0
0,65,96,0
0,61,103,0
0,58,96,0
0,32,115,92
0,36,127,16
0,42,91,0
0,32,120,0
0,42,82,112
0,36,127,188
0,38,121,0
0,42,77,0
0,39,78,0
0,32,103,0
0,46,95,32
0,36,116,12
0,42,75,0
0,44,122,0
0,63,92,0
0,61,101,0
0,68,106,0
0,70,93,0
0,65,107,0
0,61,108,0
0,58,108,0
0,42,77,112
0,44,108,0
0,36,127,112
0,38,123,0
0,42,85,0
0,39,78,0
0,42,108,0
0,42,79,16
0,61,93,0
0,68,91,0
0,63,109,0
0,70,104,0
0,65,99,0
0,61,106,0
0,58,102,0
0,42,118,92
0,36,116,16
0,42,73,0
0,41,105,0
0,78,100,16
0,78,118,0
0,42,87,16
0,41,112,0
0,77,111,0
0,77,111,0
0,75,113,16
0,75,116,0
0,36,121,16
0,38,113,0
0,42,84,0
0,39,82,0
0,37,104,0
0,73,105,0
0,73,111,0
0,75,101,16
0,75,110,0
0,42,72,16
0,73,104,0
0,73,113,0
0,37,121,16
0,75,109,0
0,75,116,0
0,36,127,16
0,42,82,0
0,32,115,0
0,61,91,0
0,68,99,0
0,70,97,0
0,63,100,0
0,70,108,0
0,70,116,0
0,61,101,0
0,65,108,0
0,58,94,0
0,42,86,112
0,36,119,12
0,38,120,0
0,42,91,0
0,39,81,0
0,32,122,0
0,68,105,0
0,68,100,0
0,42,80,32
0,68,109,0
0,63,94,0
0,70,100,0
0,61,91,0
0,58,103,0
0,65,93,0
0,61,90,0
0,44,106,92
0,36,127,16
0,42,74,0
0,32,113,0
0,42,88,112
0,36,127,12
0,38,109,0
0,42,76,0
0,39,96,0
0,32,107,0
0,68,115,0
0,68,107,0
0,70,104,16
0,70,108,0
0,46,82,32
0,36,123,8
0,42,87,0
0,29,106,0
0,65,94,0
0,70,97,0
0,62,103,0
0,60,99,0
0,77,104,0
0,77,107,0
0,58,98,0
0,62,96,0
0,65,99,0
0,79,108,0
0,77,103,0
0,79,104,0
0,42,87,0
0,77,119,0
0,79,110,0
0,77,112,0
0,79,102,0
0,36,121,0
0,38,112,0
0,42,78,0
0,39,94,0
0,29,105,0
0,77,112,0
0,79,113,0
0,77,107,0
0,79,110,0
0,42,85,0
0,65,96,0
0,62,101,0
0,70,91,0
0,60,104,0
0,77,105,0
0,65,100,0
0,58,104,0
0,62,93,0
0,79,117,0
0,29,120,0
0,77,105,0
0,79,115,0
0,36,124,0
0,42,75,0
0,29,107,0
0,77,115,0
0,79,110,0
0,77,118,0
0,79,101,0
0,42,79,0
0,77,112,0
0,79,110,0
0,77,102,0
0,79,100,0
0,36,127,0
0,38,109,0
0,42,81,0
0,39,89,0
0,29,120,0
0,77,103,0
0,79,109,0
0,77,100,0
0,79,115,0
0,42,90,0
0,36,113,0
0,77,101,0
0,79,102,0
0,77,108,0
0,79,110,0
0,36,127,0
0,42,76,0
0,29,104,0
0,65,101,0
0,62,94,0
0,70,108,0
0,60,94,0
0,77,119,0
0,65,90,0
0,62,90,0
0,58,104,0
0,79,104,0
0,77,106,0
0,79,100,0
0,42,72,0
0,77,104,0
0,79,106,0
0,77,113,0
0,79,107,0
0,36,127,0
0,38,107,0
0,42,75,0
0,39,77,0
0,29,103,0
0,77,109,0
0,79,102,0
0,77,111,0
0,79,107,0
0,46,80,0
0,29,104,92
0,36,117,16
0,42,72,0
0,29,109,0
0,72,112,0
0,72,112,0
0,73,103,16
0,73,100,0
0,42,81,16
0,74,104,0
0,74,102,0
0,29,105,16
0,75,109,0
0,75,110,0
0,36,127,16
0,38,108,0
0,42,80,0
0,39,91,0
0,29,104,0
0,77,115,0
0,77,106,0
0,79,119,16
0,79,117,0
0,38,111,16
0,42,90,0
0,32,107,0
0,80,100,0
0,80,103,0
0,38,106,16
0,82,117,0
0,82,107,0
0,36,126,16
0,42,74,0
0,34,115,0
0,60,95,0
0,65,105,0
0,56,90,0
0,84,101,0
0,84,108,0
0,72,91,0
0,68,91,0
0,65,102,0
0,42,84,112
0,34,110,0
0,65,96,12
0,72,94,0
0,68,104,0
0,36,122,4
0,38,123,0
0,42,74,0
0,39,85,0
0,44,116,92
0,42,73,12
0,41,118,0
0,80,115,0
0,80,114,0
0,44,120,16
0,77,114,0
0,77,106,0
0,36,127,16
0,42,73,0
0,48,111,0
0,80,101,0
0,80,106,0
0,72,90,0
0,68,98,0
0,65,97,0
0,42,83,188
0,44,119,12
0,36,126,32
0,38,112,0
0,42,86,0
0,39,79,0
0,72,109,0
0,65,97,0
0,68,97,0
0,42,90,12
0,34,113,0
0,77,100,0
0,77,116,0
0,73,102,16
0,73,112,0
0,36,127,16
0,42,90,0
0,36,115,0
0,55,104,0
0,63,109,0
0,60,101,0
0,75,101,0
0,75,109,0
0,67,96,0
0,70,108,0
0,63,91,0
0,42,72,112
0,36,106,0
0,36,108,12
0,63,95,0
0,67,108,0
0,70,90,0
0,36,119,4
0,38,118,0
0,42,79,0
0,39,91,0
0,42,87,188
0,40,121,0
0,36,127,28
0,42,91,0
0,41,113,0
0,60,99,0
0,63,96,0
0,56,97,0
0,72,91,0
0,65,107,0
0,68,108,0
0,42,75,12
0,77,118,0
0,77,103,0
0,39,105,92
0,36,127,8
0,38,119,0
0,42,79,0
0,39,80,0
0,41,122,0
0,80,110,0
0,80,112,0
0,72,101,0
0,65,92,0
0,68,98,0
0,39,120,16
0,46,97,8
0,36,116,0
0,87,114,0
0,87,112,0
0,35,122,16
0,86,111,0
0,86,115,0
0,85,105,48
0,85,101,0
0,36,127,16
0,42,79,0
0,34,116,0
0,56,104,0
0,60,103,0
0,65,102,0
0,84,100,0
0,84,100,0
0,72,96,0
0,68,108,0
0,65,103,0
0,42,76,112
0,34,113,0
0,65,92,12
0,72,109,0
0,68,93,0
0,36,121,4
0,38,113,0
0,42,76,0
0,39,92,0
0,44,122,92
0,42,88,16
0,41,104,0
0,44,113,16
0,36,127,16
0,42,72,0
0,48,115,0
0,72,100,0
0,68,93,0
0,65,96,0
0,42,85,188
0,44,121,12
0,36,127,32
0,38,109,0
0,42,75,0
0,39,94,0
0,84,102,0
0,84,118,0
0,72,106,0
0,65,96,0
0,68,91,0
0,85,110,4
0,85,119,0
0,42,89,12
0,34,105,0
0,84,106,0
0,84,119,0
0,36,120,28
0,42,77,0
0,36,115,0
0,60,104,0
0,63,95,0
0,55,99,0
0,82,101,0
0,82,116,0
0,67,101,0
0,70,95,0
0,63,102,0
0,42,85,112
0,36,115,0
0,36,112,12
0,63,92,0
0,67,103,0
0,70,104,0
0,36,117,4
0,38,110,0
0,42,87,0
0,39,94,0
0,42,87,188
0,40,119,0
0,36,116,16
0,42,73,0
0,41,105,0
0,63,99,0
0,60,98,0
0,56,98,0
0,72,107,0
0,65,109,0
0,68,95,0
0,38,109,112
0,42,87,0
0,36,127,12
0,38,112,0
0,42,81,0
0,39,94,0
0,48,117,0
0,80,112,0
0,80,111,0
0,72,92,0
0,65,92,0
0,68,108,0
0,46,83,8
0,36,126,4
0,42,83,0
0,34,114,0
0,60,106,0
0,65,103,0
0,56,107,0
0,72,94,0
0,68,108,0
0,65,96,0
0,72,91,0
0,68,127,0
0,72,125,0
0,42,72,112
0,34,117,0
0,65,106,12
0,72,105,0
0,68,91,0
0,36,127,4
0,38,105,0
0,42,80,0
0,39,78,0
0,68,127,0
0,72,127,0
0,44,118,92
0,42,86,16
0,41,113,0
0,68,109,0
0,44,107,16
0,65,101,0
0,36,127,16
0,42,73,0
0,48,104,0
0,72,102,0
0,68,105,0
0,65,105,0
0,68,94,0
0,65,127,0
0,68,119,0
0,42,78,88
0,65,127,0
0,68,127,0
0,44,120,12
0,36,127,32
0,38,122,0
0,42,72,0
0,39,85,0
0,72,101,0
0,65,96,0
0,68,104,0
0,65,127,0
0,68,127,0
0,42,81,12
0,34,109,0
0,65,106,0
0,67,122,0
0,70,127,0
0,61,95,16
0,36,116,16
0,42,83,0
0,36,115,0
0,55,103,0
0,63,96,0
0,60,107,0
0,67,95,0
0,70,109,0
0,63,95,0
0,63,95,0
0,42,72,112
0,36,119,0
0,36,114,12
0,63,104,0
0,67,95,0
0,70,95,0
0,36,127,4
0,38,111,0
0,42,91,0
0,39,94,0
0,42,73,188
0,40,113,0
0,36,125,28
0,42,79,0
0,41,120,0
0,60,103,0
0,63,93,0
0,56,95,0
0,72,103,0
0,65,104,0
0,68,108,0
0,42,83,112
0,65,123,0
0,39,115,92
0,36,127,8
0,38,110,0
0,42,90,0
0,39,81,0
0,41,119,0
0,72,109,0
0,65,109,0
0,68,99,0
0,68,118,0
0,39,107,16
0,46,83,8
0,36,109,0
0,68,127,0
0,35,121,16
0,65,121,0
0,36,119,8
0,42,77,0
0,34,109,0
0,56,97,0
0,60,108,0
0,65,99,0
0,72,101,0
0,68,97,0
0,65,108,0
0,61,100,0
0,42,90,8
0,34,109,0
0,58,96,0
0,65,108,12
0,72,102,0
0,68,101,0
0,36,120,4
0,38,113,0
0,42,85,0
0,39,82,0
0,44,104,92
0,42,75,16
0,41,109,0
0,44,107,16
0,36,127,16
0,42,84,0
0,48,112,0
0,72,93,0
0,68,101,0
0,65,107,0
0,42,77,188
0,44,115,12
0,36,125,32
0,38,117,0
0,42,80,0
0,39,78,0
0,72,104,0
0,65,105,0
0,68,94,0
0,42,81,12
0,34,119,0
0,36,116,16
0,42,89,0
0,36,110,0
0,60,90,0
0,63,107,0
0,55,103,0
0,67,92,0
0,70,103,0
0,63,94,0
0,42,81,112
0,36,115,0
0,36,122,12
0,63,91,0
0,67,109,0
0,70,107,0
0,36,127,4
0,38,122,0
0,42,87,0
0,39,77,0
0,42,86,188
0,40,121,0
0,36,121,16
0,42,75,0
0,41,109,0
0,63,96,0
0,60,95,0
0,56,91,0
0,72,100,0
0,65,106,0
0,68,106,0
0,42,84,112
0,36,116,32
0,38,109,0
0,42,86,0
0,39,78,0
0,48,117,0
0,72,100,0
0,65,106,0
0,68,92,0
0,46,99,8
0,36,125,8
0,42,90,0
0,34,117,0
0,60,92,0
0,65,108,0
0,56,108,0
0,72,93,0
0,68,107,0
0,65,104,0
0,72,105,0
0,68,127,0
0,72,127,0
0,42,87,112
0,34,114,0
0,65,100,12
0,72,93,0
0,68,103,0
0,36,118,4
0,38,108,0
0,42,77,0
0,39,85,0
0,68,127,0
0,72,119,0
0,44,114,92
0,42,81,16
0,41,112,0
0,68,92,0
0,44,116,16
0,65,101,0
0,36,125,16
0,42,79,0
0,48,112,0
0,72,103,0
0,68,93,0
0,65,99,0
0,68,104,0
0,65,120,0
0,68,127,0
0,42,73,88
0,65,127,0
0,68,127,0
0,44,116,12
0,36,127,32
0,38,108,0
0,42,77,0
0,39,81,0
0,72,99,0
0,65,101,0
0,68,98,0
0,65,127,0
0,68,127,0
0,42,85,12
0,34,118,0
0,65,104,0
0,67,127,0
0,70,119,0
0,61,104,16
0,36,124,16
0,42,74,0
0,36,114,0
0,55,94,0
0,63,97,0
0,60,98,0
0,67,92,0
0,70,94,0
0,63,106,0
0,63,93,0
0,42,73,112
0,36,112,0
0,36,122,12
0,63,106,0
0,67,93,0
0,70,109,0
0,36,127,4
0,38,114,0
0,42,89,0
0,39,84,0
0,42,76,188
0,40,119,0
0,36,127,28
0,42,90,0
0,41,120,0
0,60,91,0
0,63,100,0
0,56,93,0
0,72,99,0
0,65,98,0
0,68,104,0
0,42,80,112
0,65,127,0
0,39,117,92
0,36,127,8
0,38,110,0
0,42,76,0
0,39,91,0
0,41,114,0
0,72,95,0
0,65,97,0
0,68,92,0
0,68,127,0
0,39,105,16
0,46,95,8
0,36,108,0
0,68,126,0
0,35,109,16
0,65,127,0
0,36,120,8
0,42,81,0
0,34,107,0
0,56,99,0
0,60,91,0
0,65,105,0
0,72,97,0
0,68,96,0
0,65,98,0
0,61,94,0
0,42,87,8
0,34,105,0
0,58,97,0
0,65,100,12
0,72,100,0
0,68,104,0
0,36,127,4
0,38,112,0
0,42,76,0
0,39,92,0
0,44,104,92
0,42,78,16
0,41,120,0
0,44,121,16
0,36,127,16
0,42,75,0
0,48,113,0
0,72,105,0
0,68,109,0
0,65,99,0
0,42,79,188
0,44,119,12
0,36,118,32
0,38,113,0
0,42,89,0
0,39,82,0
0,72,91,0
0,65,102,0
0,68,102,0
0,42,73,12
0,34,121,0
0,36,122,16
0,42,77,0
0,36,106,0
0,60,90,0
0,63,94,0
0,55,97,0
0,67,93,0
0,70,98,0
0,63,95,0
0,42,77,112
0,36,116,0
0,36,111,12
0,63,109,0
0,67,103,0
0,70,98,0
0,36,124,4
0,38,116,0
0,42,83,0
0,39,81,0
0,42,84,188
0,40,119,0
0,36,117,16
0,42,91,0
0,41,107,0
0,63,92,0
0,60,101,0
0,56,96,0
0,72,109,0
0,65,103,0
0,68,105,0
0,42,73,112
0,65,127,0
0,36,125,8
0,38,114,0
0,42,91,0
0,39,88,0
0,48,108,0
0,72,109,0
0,65,104,0
0,68,100,0
0,68,118,0
0,46,83,8
0,68,125,0
0,65,125,0
0,36,127,8
0,42,74,0
0,42,89,184
0,65,125,0
0,36,126,8
0,38,120,0
0,42,72,0
0,39,89,0
0,68,125,0
0,42,83,88
0,68,127,0
0,65,123,92
0,36,116,88
0,42,76,0
0,42,81,184
0,65,124,0
0,36,116,8
0,38,105,0
0,42,77,0
