track,note,velocity,time
1,74,104,42620
1,74,0,4
1,74,113,76
1,74,0,2
1,71,123,4
1,71,0,38
1,76,103,0
1,78,104,80
1,76,0,8
1,79,101,56
1,78,0,24
1,79,0,30
1,71,120,206
1,71,0,50
1,76,110,62
1,76,0,46
1,78,117,62
1,78,0,58
1,79,113,32
1,79,0,4
1,74,113,694
1,74,0,6
1,76,113,588
1,76,0,2
1,76,105,22
1,76,0,4
1,76,105,16
1,76,0,2
1,76,102,8
1,74,104,44
1,76,0,12
1,69,102,672
1,74,0,12
1,69,0,38
1,67,105,0
1,69,103,42
1,67,0,8
1,71,105,1350
1,69,0,6
1,71,0,184
1,62,110,0
1,64,103,86
1,62,0,12
1,64,0,2
2,28,102,4962
2,28,0,84
2,28,109,204
2,28,0,24
2,28,109,24
2,28,0,22
2,28,103,26
2,28,0,32
2,28,103,64
2,28,0,28
2,28,101,68
2,28,0,32
2,28,101,64
2,28,0,24
2,28,101,24
2,28,0,28
2,28,107,20
2,28,0,42
2,28,105,102
2,28,0,30
2,28,102,114
2,28,0,20
2,28,109,28
2,28,0,24
2,28,101,24
2,28,0,32
2,28,109,64
2,28,0,38
2,28,107,58
2,28,0,36
2,28,101,60
2,28,0,24
2,28,102,24
2,28,0,28
2,28,102,20
2,28,0,84
2,28,109,204
2,28,0,24
2,28,109,24
2,28,0,22
2,28,103,26
2,28,0,32
2,28,103,64
2,28,0,28
2,28,101,68
2,28,0,32
2,28,101,64
2,28,0,24
2,28,101,24
2,28,0,28
2,28,107,20
2,28,0,42
2,28,105,102
2,28,0,30
2,28,102,114
2,28,0,20
2,28,109,28
2,28,0,24
2,28,101,24
2,28,0,32
2,28,109,64
2,28,0,38
2,28,107,58
2,28,0,36
2,28,101,60
2,28,0,24
2,28,102,24
2,28,0,28
2,28,102,20
2,28,0,84
2,28,109,204
2,28,0,24
2,28,109,24
2,28,0,22
2,28,103,26
2,28,0,32
2,28,103,64
2,28,0,28
2,28,101,68
2,28,0,32
2,28,101,64
2,28,0,24
2,28,101,24
2,28,0,28
2,28,107,20
2,28,0,42
2,28,105,102
2,28,0,30
2,28,102,114
2,28,0,20
2,28,109,28
2,28,0,24
2,28,101,24
2,28,0,32
2,28,109,64
2,28,0,38
2,28,107,58
2,28,0,36
2,28,101,60
2,28,0,24
2,28,102,24
2,28,0,28
2,28,102,20
2,28,0,84
2,28,109,204
2,28,0,24
2,28,109,24
2,28,0,22
2,28,103,26
2,28,0,32
2,28,103,64
2,28,0,28
2,28,101,68
2,28,0,32
2,28,101,64
2,28,0,24
2,28,101,24
2,28,0,28
2,28,107,20
2,28,0,42
2,28,105,102
2,28,0,30
2,28,102,114
2,28,0,20
2,28,109,28
2,28,0,24
2,28,101,24
2,28,0,32
2,28,109,64
2,28,0,38
2,28,107,58
2,28,0,36
2,28,101,60
2,28,0,24
2,28,102,24
2,28,0,28
2,28,102,20
2,28,0,84
2,28,109,204
2,28,0,24
2,28,109,24
2,28,0,22
2,28,103,26
2,28,0,32
2,28,103,64
2,28,0,28
2,28,101,68
2,28,0,32
2,28,101,64
2,28,0,24
2,28,101,24
2,28,0,28
2,28,107,20
2,28,0,42
2,28,105,102
2,28,0,30
2,28,102,114
2,28,0,20
2,28,109,28
2,28,0,24
2,28,101,24
2,28,0,32
2,28,109,64
2,28,0,38
2,28,107,58
2,28,0,36
2,28,101,60
2,28,0,24
2,28,102,24
2,28,0,28
2,28,102,20
2,28,0,84
2,28,109,204
2,28,0,24
2,28,109,24
2,28,0,22
2,28,103,26
2,28,0,32
2,28,103,64
2,28,0,28
2,28,101,68
2,28,0,32
2,28,101,64
2,28,0,24
2,28,101,24
2,28,0,28
2,28,107,20
2,28,0,42
2,28,105,102
2,28,0,30
2,28,102,114
2,28,0,20
2,28,109,28
2,28,0,24
2,28,101,24
2,28,0,32
2,28,109,64
2,28,0,38
2,28,107,58
2,28,0,36
2,28,101,60
2,28,0,24
2,28,102,24
2,28,0,28
2,28,102,20
2,28,0,84
2,28,109,204
2,28,0,24
2,28,109,24
2,28,0,22
2,28,103,26
2,28,0,32
2,28,103,64
2,28,0,28
2,28,101,68
2,28,0,32
2,28,101,64
2,28,0,24
2,28,101,24
2,28,0,28
2,28,107,20
2,28,0,42
2,28,105,102
2,28,0,30
2,28,102,114
2,28,0,20
2,28,109,28
2,28,0,24
2,28,101,24
2,28,0,32
2,28,109,64
2,28,0,38
2,28,107,58
2,28,0,36
2,28,101,60
2,28,0,24
2,28,102,24
2,28,0,28
2,28,102,20
2,28,0,84
2,28,109,204
2,28,0,24
2,28,109,24
2,28,0,22
2,28,103,26
2,28,0,32
2,28,103,64
2,28,0,28
2,28,101,68
2,28,0,32
2,28,101,64
2,28,0,24
2,28,101,24
2,28,0,28
2,28,107,20
2,28,0,42
2,28,105,102
2,28,0,30
2,28,102,114
2,28,0,20
2,28,109,28
2,28,0,24
2,28,101,24
2,28,0,32
2,28,109,64
2,28,0,38
2,28,107,58
2,28,0,36
2,28,101,60
2,28,0,24
2,28,102,24
2,28,0,28
2,28,102,20
2,28,0,84
2,28,109,204
2,28,0,24
2,28,109,24
2,28,0,22
2,28,103,26
2,28,0,32
2,28,103,64
2,28,0,28
2,28,101,68
2,28,0,32
2,28,101,64
2,28,0,24
2,28,101,24
2,28,0,28
2,28,107,20
2,28,0,42
2,28,105,102
2,28,0,30
2,28,102,114
2,28,0,20
2,28,109,28
2,28,0,24
2,28,101,24
2,28,0,32
2,28,109,64
2,28,0,38
2,28,107,58
2,28,0,36
2,28,101,60
2,28,0,24
2,28,102,24
2,28,0,28
2,28,102,20
2,28,0,84
2,28,109,204
2,28,0,24
2,28,109,24
2,28,0,22
2,28,103,26
2,28,0,32
2,28,103,64
2,28,0,28
2,28,101,68
2,28,0,32
2,28,101,64
2,28,0,24
2,28,101,24
2,28,0,28
2,28,107,20
2,28,0,42
2,28,105,102
2,28,0,30
2,28,102,114
2,28,0,20
2,28,109,28
2,28,0,24
2,28,101,24
2,28,0,32
2,28,109,64
2,28,0,38
2,28,107,58
2,28,0,36
2,28,101,60
2,28,0,24
2,28,102,24
2,28,0,28
2,28,102,20
2,28,0,84
2,28,109,204
2,28,0,24
2,28,109,24
2,28,0,22
2,28,103,26
2,28,0,32
2,28,103,64
2,28,0,28
2,28,101,68
2,28,0,32
2,28,101,64
2,28,0,24
2,28,101,24
2,28,0,28
2,28,107,20
2,28,0,42
2,28,105,102
2,28,0,30
2,28,102,114
2,28,0,20
2,28,109,28
2,28,0,24
2,28,101,24
2,28,0,32
2,28,109,64
2,28,0,38
2,28,107,58
2,28,0,36
2,28,101,60
2,28,0,24
2,28,102,24
2,28,0,28
2,28,102,20
2,28,0,84
2,28,109,204
2,28,0,24
2,28,109,24
2,28,0,22
2,28,103,26
2,28,0,32
2,28,103,64
2,28,0,28
2,28,101,68
2,28,0,32
2,28,101,64
2,28,0,24
2,28,101,24
2,28,0,28
2,28,107,20
2,28,0,42
2,28,105,102
2,28,0,30
2,28,102,114
2,28,0,20
2,28,109,28
2,28,0,24
2,28,101,24
2,28,0,32
2,28,109,64
2,28,0,38
2,28,107,58
2,28,0,36
2,28,101,60
2,28,0,24
2,28,102,24
2,28,0,28
2,33,102,20
2,33,0,84
2,33,109,204
2,33,0,24
2,33,109,24
2,33,0,22
2,33,103,26
2,33,0,32
2,33,103,64
2,33,0,28
2,33,101,68
2,33,0,32
2,33,101,64
2,33,0,24
2,33,101,24
2,33,0,28
2,33,107,20
2,33,0,42
2,33,105,102
2,33,0,30
2,33,102,114
2,33,0,20
2,33,109,28
2,33,0,24
2,33,101,24
2,33,0,32
2,33,109,64
2,33,0,38
2,33,107,58
2,33,0,36
2,33,101,60
2,33,0,24
2,33,102,24
2,33,0,28
2,31,102,20
2,31,0,84
2,31,109,204
2,31,0,24
2,31,109,24
2,31,0,22
2,31,103,26
2,31,0,32
2,31,103,64
2,31,0,28
2,31,101,68
2,31,0,32
2,31,101,64
2,31,0,24
2,31,101,24
2,31,0,28
2,31,107,20
2,31,0,42
2,31,105,102
2,31,0,30
2,31,102,114
2,31,0,20
2,31,109,28
2,31,0,24
2,31,101,24
2,31,0,32
2,31,109,64
2,31,0,38
2,31,107,58
2,31,0,36
2,31,101,60
2,31,0,24
2,31,102,24
2,31,0,28
2,30,102,20
2,30,0,84
2,30,109,204
2,30,0,24
2,30,109,24
2,30,0,22
2,30,103,26
2,30,0,32
2,30,103,64
2,30,0,28
2,30,101,68
2,30,0,32
2,30,101,64
2,30,0,24
2,30,101,24
2,30,0,28
2,35,107,20
2,35,0,92
2,28,102,676
2,28,0,116
2,28,103,172
2,33,105,96
2,28,0,16
2,31,101,80
2,33,0,16
2,31,0,74
2,28,103,6
2,28,0,38
2,28,105,58
2,28,0,24
2,28,102,24
2,28,0,28
2,28,103,20
2,28,0,100
2,28,110,188
2,33,102,96
2,28,0,12
2,31,106,84
2,33,0,16
2,31,0,78
2,28,105,2
2,28,0,34
2,28,108,62
2,28,0,20
2,28,101,28
2,28,0,24
2,28,102,24
2,28,0,104
2,28,106,184
2,33,103,96
2,28,0,8
2,31,105,88
2,33,0,16
2,31,0,72
2,28,105,8
2,28,0,38
2,28,99,58
2,28,0,20
2,28,106,28
2,28,0,16
2,28,107,32
2,28,0,96
2,28,109,192
2,28,0,96
2,33,103,0
2,31,100,96
2,33,0,22
2,31,0,66
2,28,107,8
2,28,0,40
2,26,108,56
2,26,0,16
2,26,104,32
2,26,0,8
2,26,109,40
2,26,0,106
2,26,109,182
2,33,107,96
2,26,0,18
2,31,108,78
2,33,0,18
2,31,0,78
2,26,109,0
2,26,0,34
2,26,99,62
2,26,0,14
2,26,102,34
2,26,0,28
2,28,112,20
2,28,0,100
2,28,109,188
2,28,0,90
2,33,99,6
2,31,99,96
2,33,0,20
2,31,0,68
2,28,107,8
2,28,0,42
2,28,105,54
2,28,0,18
2,28,99,30
2,28,0,16
2,28,109,32
2,28,0,88
2,28,107,200
2,33,102,96
2,28,0,8
2,31,102,88
2,33,0,20
2,31,0,72
2,28,108,4
2,28,0,48
2,28,106,48
2,28,0,12
2,28,104,36
2,28,0,8
2,28,106,40
2,28,0,112
2,28,103,176
2,33,107,96
2,28,0,12
2,31,102,84
2,33,0,22
2,31,0,70
2,28,106,4
2,28,0,38
2,28,104,58
2,28,0,8
2,28,108,40
2,28,0,8
2,28,107,40
2,28,0,120
2,28,105,168
2,33,102,96
2,28,0,12
2,31,106,84
2,33,0,24
2,31,0,58
2,28,103,14
2,28,0,38
2,28,108,58
2,28,0,14
2,28,99,34
2,28,0,12
2,26,109,36
2,26,0,96
2,26,110,192
2,26,0,88
2,33,106,8
2,31,106,96
2,33,0,16
2,31,0,74
2,26,100,6
2,26,0,46
2,26,106,50
2,26,0,12
2,26,108,36
2,26,0,16
2,26,109,32
2,26,0,96
2,26,110,192
2,26,0,96
2,33,103,0
2,31,103,96
2,33,0,20
2,31,0,68
2,26,109,8
2,26,0,50
2,26,108,46
2,26,0,20
2,26,103,28
2,26,0,16
2,28,109,32
2,28,0,94
2,28,107,194
2,33,108,96
2,28,0,12
2,31,108,84
2,33,0,20
2,31,0,76
2,28,109,0
2,28,0,48
2,28,102,48
2,28,0,14
2,28,106,34
2,28,0,20
2,28,106,28
2,28,0,126
2,28,106,162
2,33,107,96
2,28,0,4
2,31,102,92
2,33,0,24
2,31,0,68
2,28,107,4
2,28,0,46
2,28,107,50
2,28,0,8
2,28,103,40
2,28,0,18
2,33,102,30
2,33,0,84
2,33,109,204
2,33,0,24
2,33,109,24
2,33,0,22
2,33,103,26
2,33,0,32
2,33,103,64
2,33,0,28
2,33,101,68
2,33,0,32
2,33,101,64
2,33,0,24
2,33,101,24
2,33,0,28
2,33,107,20
2,33,0,42
2,33,105,102
2,33,0,30
2,33,102,114
2,33,0,20
2,33,109,28
2,33,0,24
2,33,101,24
2,33,0,32
2,33,109,64
2,33,0,38
2,33,107,58
2,33,0,36
2,33,101,60
2,33,0,24
2,33,102,24
2,33,0,28
2,31,102,20
2,31,0,84
2,31,109,204
2,31,0,24
2,31,109,24
2,31,0,22
2,31,103,26
2,31,0,32
2,31,103,64
2,31,0,28
2,31,101,68
2,31,0,32
2,31,101,64
2,31,0,24
2,31,101,24
2,31,0,28
2,31,107,20
2,31,0,42
2,31,105,102
2,31,0,30
2,31,102,114
2,31,0,20
2,31,109,28
2,31,0,24
2,31,101,24
2,31,0,32
2,31,109,64
2,31,0,38
2,31,107,58
2,31,0,36
2,31,101,60
2,31,0,24
2,31,102,24
2,31,0,28
2,30,102,20
2,30,0,84
2,30,109,204
2,30,0,24
2,30,109,24
2,30,0,22
2,30,103,26
2,30,0,32
2,30,103,64
2,30,0,28
2,30,101,68
2,30,0,32
2,30,101,64
2,30,0,24
2,30,101,24
2,30,0,28
2,35,107,20
2,35,0,92
2,28,100,676
2,28,0,78
2,28,100,210
2,28,0,48
2,26,100,0
2,28,108,48
2,26,0,12
2,31,102,82
2,28,0,6
2,31,0,36
2,31,104,56
2,28,103,98
2,31,0,2
2,28,0,40
2,26,104,6
2,26,0,44
2,28,110,2
2,28,0,106
2,28,106,182
2,28,0,48
2,26,105,0
2,28,110,48
2,26,0,10
2,31,106,88
2,28,0,12
2,31,0,32
2,31,109,52
2,31,0,90
2,28,109,4
2,28,0,48
2,26,102,0
2,26,0,44
2,28,105,4
2,28,0,114
2,28,107,174
2,28,0,48
2,26,109,2
2,28,106,46
2,26,0,6
2,31,102,90
2,28,0,14
2,31,0,30
2,31,104,52
2,31,0,94
2,28,100,2
2,28,0,42
2,26,110,6
2,28,108,48
2,26,0,6
2,28,0,110
2,28,106,172
2,28,0,94
2,33,110,2
2,31,105,94
2,33,0,10
2,31,0,84
2,28,108,4
2,31,105,96
2,28,0,18
2,31,0,76
2,26,107,4
2,26,0,84
2,26,109,202
2,33,110,96
2,26,0,6
2,31,102,90
2,33,0,12
2,31,0,82
2,26,109,2
2,25,101,96
2,26,0,14
2,25,0,76
2,26,106,6
2,26,0,104
2,26,107,180
2,33,108,100
2,26,0,4
2,31,100,92
2,33,0,24
2,31,0,66
2,26,106,6
2,28,102,196
2,26,0,18
2,28,0,58
2,28,109,210
2,28,0,42
2,26,106,6
2,28,105,46
2,26,0,16
2,31,109,80
2,28,0,10
2,31,0,38
2,31,106,48
2,31,0,90
2,28,106,6
2,28,0,38
2,26,109,12
2,28,106,46
2,26,0,2
2,28,0,112
2,28,104,174
2,33,110,96
2,28,0,4
2,31,110,92
2,33,0,22
2,28,106,74
2,31,0,6
2,26,110,90
2,28,0,10
2,28,102,86
2,26,0,14
2,28,0,96
2,28,107,178
2,28,0,48
2,26,108,2
2,28,103,48
2,26,0,8
2,31,106,88
2,28,0,14
2,31,0,38
2,31,104,44
2,31,0,90
2,28,108,6
2,28,0,32
2,26,110,16
2,26,0,44
2,28,110,2
2,28,0,86
2,28,109,202
2,28,0,42
2,26,110,6
2,28,100,48
2,26,0,16
2,31,103,80
2,28,0,6
2,31,0,52
2,31,104,38
2,31,0,90
2,28,105,8
2,28,0,32
2,26,109,16
2,28,105,46
2,26,0,6
2,28,0,104
2,28,107,180
2,28,0,38
2,26,106,8
2,28,108,48
2,26,0,10
2,31,108,86
2,28,0,10
2,31,0,48
2,31,102,38
2,31,0,90
2,28,100,6
2,28,0,38
2,26,101,10
2,26,0,38
2,28,102,10
2,28,0,120
2,28,102,168
2,33,104,96
2,28,0,2
2,31,106,94
2,33,0,14
2,31,0,80
2,28,110,2
2,31,107,96
2,28,0,10
2,31,0,80
2,26,109,6
2,26,0,98
2,26,104,190
2,33,107,96
2,26,0,10
2,31,106,88
2,33,0,26
2,31,0,60
2,26,108,8
2,25,104,96
2,26,0,8
2,25,0,72
2,26,108,14
2,26,0,110
2,26,109,176
2,33,109,100
2,26,0,10
2,31,102,86
2,33,0,14
2,31,0,82
2,26,109,0
2,28,107,192
2,26,0,6
2,28,0,102
