track,note,velocity,time
0,62,94,610
0,46,53,32
0,50,35,0
0,65,24,0
0,53,80,33
0,65,88,18
0,67,89,16
0,65,95,4
0,67,92,15
0,60,94,1
0,45,89,7
0,53,70,0
0,55,43,0
0,57,71,0
0,65,57,0
0,67,70,31
0,60,66,43
0,67,67,29
0,60,66,33
0,67,66,27
0,60,62,33
0,67,61,134
0,62,91,1
0,46,69,1
0,53,62,0
0,58,59,0
0,60,68,0
0,62,60,0
0,65,74,0
0,53,91,16
0,65,94,12
0,67,94,1
0,65,89,5
0,45,85,8
0,53,71,0
0,55,83,0
0,57,74,0
0,60,79,0
0,65,76,0
0,67,88,41
0,60,92,56
0,67,80,194
0,60,73,162
0,67,69,142
0,60,68,10
0,67,67,87
0,60,65,31
0,70,109,16
0,74,100,0
0,67,62,5
0,34,73,5
0,36,103,0
0,46,76,0
0,48,65,0
0,58,69,0
0,60,73,0
0,65,72,0
0,87,55,0
0,42,24,6
0,48,0,2
0,42,0,1
0,46,45,41
0,87,0,1
0,36,0,46
0,28,64,40
0,39,64,0
0,50,66,0
0,46,0,5
0,42,70,1
0,42,0,37
0,50,0,2
0,39,0,44
0,28,0,6
0,42,55,7
0,42,0,39
0,48,62,3
0,87,55,0
0,42,29,6
0,48,0,34
0,87,0,5
0,42,0,8
0,42,61,1
0,42,0,10
0,48,60,80
0,87,55,0
0,42,55,6
0,48,0,17
0,87,0,0
0,42,0,23
0,42,25,2
0,48,57,0
0,87,56,0
0,48,0,22
0,87,0,4
0,42,0,7
0,28,64,15
0,39,64,0
0,50,65,0
0,42,61,6
0,50,0,32
0,42,0,8
0,39,0,3
0,42,55,43
0,28,0,11
0,42,0,19
0,48,65,47
0,87,55,0
0,42,24,6
0,48,0,54
0,42,0,1
0,46,45,41
0,87,0,4
0,28,64,36
0,39,64,0
0,50,66,0
0,46,0,5
0,42,70,1
0,42,0,37
0,50,0,2
0,39,0,44
0,28,0,6
0,42,55,7
0,42,0,39
0,48,62,0
0,87,55,0
0,42,29,6
0,48,0,34
0,87,0,5
0,42,0,8
0,42,61,1
0,42,0,10
0,48,60,80
0,87,55,0
0,42,55,6
0,48,0,17
0,87,0,0
0,42,0,23
0,42,25,0
0,48,57,0
0,87,56,0
0,48,0,22
0,87,0,4
0,42,0,7
0,28,64,15
0,36,19,0
0,39,64,0
0,50,65,0
0,42,61,6
0,36,0,20
0,50,0,12
0,42,0,18
0,39,0,3
0,36,97,37
0,42,55,6
0,28,0,24
0,36,0,15
0,42,0,1
0,62,101,2
0,31,94,1
0,36,103,0
0,43,61,0
0,48,62,0
0,57,59,0
0,58,59,0
0,87,55,0
0,42,24,6
0,48,0,54
0,42,0,1
0,46,45,41
0,87,0,4
0,36,0,46
0,28,64,40
0,39,64,0
0,50,63,0
0,46,0,5
0,42,70,1
0,42,0,37
0,50,0,2
0,39,0,44
0,28,0,6
0,42,55,7
0,42,0,39
0,48,59,3
0,87,55,0
0,42,29,6
0,48,0,18
0,87,0,5
0,42,0,8
0,42,61,1
0,42,0,10
0,62,71,1
0,48,57,79
0,87,55,0
0,42,55,6
0,48,0,17
0,87,0,0
0,42,0,23
0,42,25,2
0,48,54,0
0,87,56,0
0,48,0,22
0,87,0,4
0,42,0,7
0,28,64,15
0,39,64,0
0,50,62,0
0,42,61,6
0,50,0,32
0,42,0,18
0,39,0,3
0,36,97,37
0,42,55,6
0,28,0,24
0,36,0,18
0,42,0,1
0,36,103,47
0,48,62,0
0,87,55,0
0,42,24,6
0,48,0,54
0,42,0,1
0,46,45,41
0,87,0,4
0,36,0,46
0,28,64,40
0,39,64,0
0,50,63,0
0,46,0,5
0,42,70,1
0,42,0,37
0,50,0,2
0,39,0,44
0,28,0,6
0,42,55,7
0,42,0,39
0,48,59,3
0,87,55,0
0,42,29,6
0,48,0,34
0,87,0,5
0,42,0,8
0,42,61,1
0,42,0,10
0,48,57,39
0,87,55,0
0,42,55,6
0,48,0,17
0,87,0,0
0,42,0,23
0,42,25,2
0,48,54,0
0,87,56,0
0,48,0,22
0,87,0,4
0,42,0,7
0,28,64,15
0,39,64,0
0,50,62,0
0,42,61,6
0,50,0,32
0,42,0,18
0,39,0,3
0,42,55,43
0,28,0,24
0,42,0,19
0,58,91,0
0,29,109,6
0,36,103,0
0,41,65,0
0,48,62,0
0,57,62,0
0,58,59,0
0,62,60,0
0,87,55,0
0,60,95,2
0,42,24,2
0,48,0,54
0,42,0,1
0,46,45,5
0,62,97,0
0,87,0,4
0,36,0,46
0,28,64,40
0,39,64,0
0,50,63,0
0,46,0,5
0,42,70,1
0,42,0,37
0,50,0,2
0,39,0,44
0,28,0,6
0,42,55,7
0,42,0,39
0,48,59,3
0,87,55,0
0,42,29,6
0,58,74,4
0,48,0,24
0,87,0,5
0,42,0,8
0,42,61,1
0,60,76,6
0,42,0,4
0,48,57,80
0,87,55,0
0,42,55,6
0,62,82,5
0,48,0,12
0,87,0,0
0,42,0,23
0,42,25,2
0,48,54,0
0,87,56,0
0,48,0,22
0,87,0,4
0,42,0,7
0,28,64,15
0,39,64,0
0,50,62,0
0,42,61,6
0,50,0,32
0,42,0,18
0,39,0,3
0,36,97,37
0,42,55,6
0,28,0,24
0,36,0,18
0,42,0,1
0,58,79,2
0,36,103,43
0,48,62,0
0,87,55,0
0,60,68,5
0,42,24,1
0,48,0,50
0,42,0,1
0,62,58,9
0,46,45,1
0,87,0,4
0,36,0,46
0,28,64,40
0,39,64,0
0,50,63,0
0,46,0,5
0,42,70,1
0,42,0,37
0,50,0,2
0,39,0,44
0,28,0,6
0,42,55,7
0,42,0,39
0,48,59,3
0,87,55,0
0,42,29,6
0,48,0,34
0,87,0,5
0,42,0,8
0,42,61,1
0,42,0,10
0,48,57,80
0,87,55,0
0,42,55,6
0,48,0,17
0,87,0,0
0,42,0,23
0,42,25,2
0,48,54,0
0,87,56,0
0,48,0,22
0,87,0,4
0,42,0,7
0,28,64,15
0,39,64,0
0,50,62,0
0,42,61,6
0,50,0,32
0,42,0,18
0,39,0,3
0,42,55,43
0,28,0,24
0,42,0,19
0,31,103,2
0,36,103,0
0,43,61,0
0,48,62,0
0,57,62,0
0,58,60,0
0,62,104,0
0,87,55,0
0,42,24,6
0,48,0,43
0,42,0,1
0,46,45,12
0,62,103,2
0,87,0,2
0,36,0,46
0,28,64,40
0,39,64,0
0,50,63,0
0,46,0,5
0,42,70,1
0,42,0,37
0,50,0,2
0,39,0,44
0,28,0,6
0,42,55,7
0,42,0,39
0,48,59,3
0,87,55,0
0,42,29,6
0,48,0,34
0,87,0,5
0,42,0,8
0,42,61,1
0,42,0,10
0,62,50,1
0,48,57,9
0,87,55,0
0,42,55,6
0,62,79,0
0,48,0,17
0,87,0,0
0,42,0,23
0,42,25,2
0,48,54,0
0,87,56,0
0,48,0,22
0,87,0,4
0,42,0,7
0,28,64,15
0,39,64,0
0,50,62,0
0,42,61,6
0,50,0,32
0,42,0,18
0,39,0,3
0,36,97,37
0,42,55,6
0,28,0,24
0,36,0,18
0,42,0,1
0,62,67,30
0,36,113,7
0,48,62,0
0,87,55,0
0,42,24,6
0,48,0,54
0,42,0,1
0,62,52,39
0,46,45,2
0,87,0,4
0,36,0,46
0,28,64,40
0,39,64,0
0,50,63,0
0,46,0,5
0,42,70,1
0,42,0,37
0,50,0,2
0,39,0,44
0,28,0,6
0,42,55,7
0,42,0,39
0,48,59,3
0,87,55,0
0,42,29,6
0,48,0,34
0,87,0,5
0,42,0,8
0,42,61,1
0,42,0,10
0,48,57,57
0,87,55,0
0,42,55,6
0,48,0,17
0,87,0,0
0,42,0,23
0,42,25,2
0,48,54,0
0,87,56,0
0,48,0,22
0,87,0,4
0,42,0,7
0,28,64,15
0,39,64,0
0,50,62,0
0,42,61,6
0,50,0,32
0,42,0,18
0,39,0,3
0,42,55,43
0,28,0,24
0,42,0,19
0,58,86,1
0,60,89,9
0,29,109,3
0,36,103,0
0,41,66,0
0,48,62,0
0,62,63,0
0,87,55,0
0,42,24,1
0,48,0,54
0,42,0,1
0,62,97,1
0,46,45,13
0,87,0,4
0,36,0,46
0,28,64,40
0,39,64,0
0,50,63,0
0,46,0,5
0,42,70,1
0,42,0,37
0,50,0,2
0,39,0,44
0,28,0,6
0,42,55,7
0,42,0,39
0,48,59,3
0,87,55,0
0,42,29,6
0,48,0,34
0,60,79,3
0,87,0,0
0,42,0,8
0,42,61,1
0,42,0,10
0,48,57,80
0,87,55,0
0,42,55,6
0,62,62,3
0,48,0,14
0,87,0,0
0,42,0,23
0,42,25,2
0,48,54,0
0,87,56,0
0,48,0,22
0,87,0,4
0,42,0,7
0,28,64,15
0,39,64,0
0,50,62,0
0,42,61,6
0,50,0,32
0,42,0,18
0,39,0,3
0,36,97,37
0,42,55,6
0,28,0,24
0,36,0,18
0,42,0,1
0,60,65,41
0,36,103,4
0,48,62,0
0,87,55,0
0,42,24,6
0,48,0,54
0,42,0,1
0,62,64,9
0,46,45,11
0,87,0,4
0,36,0,46
0,28,64,40
0,39,64,0
0,50,63,0
0,46,0,5
0,42,70,1
0,42,0,37
0,50,0,2
0,39,0,44
0,28,0,6
0,42,55,7
0,42,0,39
0,48,59,3
0,87,55,0
0,42,29,6
0,48,0,34
0,87,0,5
0,42,0,8
0,42,61,1
0,79,63,0
0,42,0,10
0,77,63,23
0,74,64,12
0,48,57,2
0,87,55,0
0,42,55,0
0,79,65,1
0,48,0,1
0,87,0,0
0,77,66,1
0,42,0,1
0,42,25,2
0,48,54,0
0,87,56,0
0,74,64,4
0,48,0,5
0,87,0,1
0,42,0,7
0,79,65,8
0,28,64,7
0,36,19,0
0,39,64,0
0,50,62,0
0,70,71,0
0,74,65,0
0,42,61,5
0,77,68,14
0,36,0,6
0,50,0,7
0,74,67,13
0,42,0,1
0,39,0,3
0,79,65,3
0,36,97,3
0,42,55,6
0,77,69,7
0,28,0,3
0,36,0,8
0,74,69,0
0,42,0,1
0,79,66,11
0,27,103,7
0,36,104,0
0,39,65,0
0,48,62,0
0,58,63,0
0,63,64,0
0,65,60,0
0,87,55,0
0,42,24,6
0,77,68,1
0,74,70,21
0,48,0,9
0,42,0,1
0,79,66,15
0,46,45,17
0,77,69,1
0,87,0,3
0,74,67,23
0,36,0,14
0,79,66,10
0,77,71,21
0,28,64,1
0,39,64,0
0,50,63,0
0,46,0,5
0,42,70,1
0,62,98,5
0,74,72,16
0,42,0,9
0,50,0,1
0,62,98,15
0,79,66,2
0,39,0,19
0,77,70,0
0,28,0,6
0,42,55,7
0,74,71,15
0,42,0,10
0,48,59,3
0,87,55,0
0,62,94,5
0,42,29,1
0,79,70,0
0,77,69,23
0,48,0,6
0,87,0,5
0,42,0,6
0,42,61,1
0,74,73,7
0,42,0,3
0,79,72,28
0,77,70,26
0,58,94,1
0,48,57,1
0,87,55,0
0,42,55,6
0,74,70,5
0,48,0,2
0,87,0,0
0,42,0,23
0,79,71,0
0,42,25,2
0,48,54,0
0,87,56,0
0,48,0,18
0,87,0,4
0,77,68,1
0,42,0,6
0,55,85,3
0,28,64,3
0,39,64,0
0,50,62,0
0,42,61,6
0,74,71,5
0,50,0,23
0,79,74,3
0,42,0,13
0,39,0,3
0,77,68,4
0,62,92,9
0,74,72,7
0,36,85,2
0,42,55,6
0,79,68,19
0,28,0,5
0,36,0,13
0,42,0,1
0,77,72,2
0,74,70,1
0,60,94,2
0,29,109,6
0,36,104,0
0,41,62,0
0,48,62,0
0,60,63,0
0,87,55,0
0,69,74,5
0,42,24,1
0,72,76,0
0,79,74,1
0,77,63,29
0,48,0,8
0,42,0,1
0,74,69,18
0,46,45,18
0,87,0,4
0,79,76,6
0,77,68,29
0,36,0,6
0,74,71,21
0,28,64,17
0,39,64,0
0,50,63,0
0,46,0,5
0,42,70,1
0,79,72,4
0,77,71,22
0,42,0,7
0,50,0,2
0,74,71,18
0,39,0,21
0,79,68,4
0,28,0,2
0,42,55,6
0,77,72,15
0,42,0,12
0,74,72,1
0,48,59,2
0,87,55,0
0,42,29,3
0,79,70,17
0,48,0,9
0,77,69,4
0,87,0,1
0,74,84,3
0,42,0,5
0,42,61,1
0,42,0,7
0,74,68,10
0,79,72,25
0,77,66,20
0,48,57,1
0,75,84,0
0,87,55,0
0,42,55,4
0,74,72,5
0,48,0,6
0,87,0,0
0,79,73,20
0,42,0,3
0,42,25,2
0,48,54,0
0,87,56,0
0,48,0,22
0,77,63,1
0,87,0,3
0,42,0,7
0,28,64,1
0,39,64,0
0,50,62,0
0,77,97,0
0,74,67,3
0,42,61,3
0,79,71,26
0,50,0,2
0,42,0,15
0,39,0,3
0,77,63,7
0,74,72,9
0,70,71,1
0,42,55,6
0,79,67,1
0,28,0,6
0,42,0,15
0,77,65,0
0,74,72,8
0,70,71,5
0,67,73,3
0,31,103,3
0,36,104,0
0,43,63,0
0,48,62,0
0,63,62,0
0,87,55,0
0,42,24,0
0,79,69,2
0,77,68,3
0,74,72,9
0,48,0,8
0,42,0,1
0,79,61,24
0,77,46,13
0,46,45,2
0,87,0,4
0,74,67,13
0,36,0,18
0,79,72,9
0,77,72,18
0,28,64,11
0,39,64,0
0,50,63,0
0,46,0,2
0,42,70,1
0,74,73,8
0,58,92,1
0,42,0,8
0,50,0,2
0,79,72,1
0,58,92,8
0,77,70,16
0,39,0,5
0,28,0,6
0,58,92,1
0,74,68,0
0,42,55,1
0,79,71,9
0,42,0,11
0,48,59,3
0,87,55,0
0,42,29,6
0,77,66,5
0,48,0,17
0,74,72,0
0,87,0,1
0,42,0,8
0,42,61,1
0,58,94,2
0,42,0,8
0,79,69,3
0,77,67,28
0,74,70,14
0,55,86,2
0,48,57,5
0,87,55,0
0,42,55,6
0,79,71,12
0,48,0,4
0,87,0,0
0,42,0,23
0,42,25,2
0,48,54,0
0,77,69,0
0,87,56,0
0,48,0,9
0,87,0,4
0,74,71,2
0,42,0,2
0,62,91,8
0,28,64,7
0,39,64,0
0,50,62,0
0,42,61,6
0,79,71,3
0,50,0,26
0,77,68,2
0,42,0,4
0,39,0,3
0,74,72,9
0,62,94,15
0,36,85,10
0,79,73,2
0,42,55,2
0,77,63,23
0,28,0,1
0,36,0,4
0,42,0,1
0,74,71,11
0,60,73,4
0,79,70,1
0,33,103,3
0,36,104,0
0,45,64,0
0,48,62,0
0,60,61,0
0,69,80,0
0,72,82,0
0,87,55,0
0,42,24,3
0,77,67,10
0,74,70,19
0,48,0,4
0,42,0,1
0,79,72,25
0,46,45,14
0,87,0,4
0,77,67,10
0,74,71,16
0,36,0,2
0,79,69,0
0,28,64,13
0,39,64,0
0,50,63,0
0,46,0,5
0,42,70,1
0,77,68,10
0,42,0,14
0,74,72,1
0,50,0,1
0,79,69,0
0,39,0,11
0,28,0,6
0,42,55,7
0,77,65,8
0,74,68,12
0,42,0,3
0,48,59,3
0,87,55,0
0,42,29,6
0,79,68,19
0,48,0,11
0,87,0,5
0,69,72,1
0,42,0,5
0,42,61,1
0,77,66,0
0,42,0,10
0,74,70,12
0,79,70,27
0,77,64,22
0,48,57,1
0,70,80,0
0,87,55,0
0,42,55,6
0,48,0,12
0,74,70,0
0,87,0,0
0,42,0,18
0,42,25,2
0,48,54,0
0,87,56,0
0,79,70,7
0,48,0,11
0,87,0,4
0,42,0,7
0,77,65,1
0,28,64,1
0,39,64,0
0,50,62,0
0,72,84,0
0,42,61,6
0,74,71,5
0,50,0,22
0,79,72,6
0,42,0,11
0,39,0,3
0,77,65,12
0,77,105,1
0,74,67,3
0,42,55,3
0,28,0,20
0,79,70,9
0,42,0,7
0,77,65,21
0,74,71,4
0,26,106,1
0,36,104,0
0,38,62,0
0,48,62,0
0,58,63,0
0,62,64,0
0,65,60,0
0,87,55,0
0,70,76,3
0,42,24,1
0,74,79,1
0,79,67,24
0,77,65,24
0,48,0,1
0,42,0,1
0,74,67,11
0,46,45,5
0,87,0,4
0,79,72,5
0,36,0,24
0,77,66,5
0,74,66,21
