track,note,velocity,time
1,36,100,2878
1,36,0,30
1,36,100,60
1,36,0,30
1,36,100,60
1,36,0,30
1,36,100,90
1,36,0,30
1,36,100,150
1,36,0,30
1,36,100,60
1,36,0,30
1,36,100,60
1,36,0,30
1,36,100,90
1,36,0,30
1,36,100,150
1,36,0,30
1,36,100,60
1,36,0,30
1,36,100,60
1,36,0,30
1,36,100,90
1,36,0,30
1,36,100,150
1,36,0,30
1,36,100,60
1,36,0,30
1,36,100,60
1,36,0,30
1,36,100,90
1,36,0,30
1,36,100,150
1,36,0,30
1,36,100,60
1,36,0,30
1,36,100,60
1,36,0,30
1,36,100,90
1,36,0,30
1,36,100,150
1,36,0,30
1,36,100,60
1,36,0,30
1,36,100,60
1,36,0,30
1,36,100,90
1,36,0,30
1,36,100,150
1,36,0,30
1,36,100,60
1,36,0,30
1,36,100,60
1,36,0,30
1,36,100,90
1,36,0,30
1,36,100,150
1,36,0,30
1,36,100,60
1,36,0,30
1,36,100,60
1,36,0,30
1,36,100,90
1,36,0,30
1,36,100,150
1,36,0,30
1,36,100,60
1,36,0,30
1,36,100,60
1,36,0,30
1,36,100,90
1,36,0,30
1,36,100,150
1,36,0,30
1,36,100,60
1,36,0,30
1,36,100,60
1,36,0,30
1,36,100,90
1,36,0,30
1,36,100,150
1,36,0,30
1,36,100,60
1,36,0,30
1,36,100,60
1,36,0,30
1,36,100,90
1,36,0,30
1,36,100,150
1,36,0,30
1,36,100,60
1,36,0,30
1,36,100,60
1,36,0,30
1,36,100,90
1,36,0,30
1,36,100,150
1,36,0,30
1,36,100,60
1,36,0,30
1,36,100,60
1,36,0,30
1,36,100,90
1,36,0,30
1,36,100,150
1,36,0,30
1,36,100,60
1,36,0,30
1,36,100,60
1,36,0,30
1,36,100,90
1,36,0,30
1,36,100,150
1,36,0,30
1,36,100,60
1,36,0,30
1,36,100,60
1,36,0,30
1,36,100,90
1,36,0,30
1,36,100,150
1,36,0,30
1,36,100,60
1,36,0,30
1,36,100,60
1,36,0,30
1,36,100,90
1,36,0,30
1,36,100,150
1,36,0,30
1,36,100,60
1,36,0,30
1,36,100,60
1,36,0,30
1,36,100,90
1,36,0,30
1,36,100,150
1,36,0,30
1,36,100,60
1,36,0,30
1,36,100,60
1,36,0,30
1,36,100,90
1,36,0,30
1,36,100,150
1,36,0,30
1,36,100,60
1,36,0,30
1,36,100,60
1,36,0,30
1,36,100,90
1,36,0,30
1,36,100,150
1,36,0,30
1,36,100,60
1,36,0,30
1,36,100,60
1,36,0,30
1,36,100,90
1,36,0,30
1,36,100,150
1,36,0,30
1,36,100,60
1,36,0,30
1,36,100,60
1,36,0,30
1,36,100,90
1,36,0,30
1,36,100,150
1,36,0,30
1,36,100,60
1,36,0,30
1,36,100,60
1,36,0,30
1,36,100,90
1,36,0,30
1,36,100,150
1,36,0,30
1,36,100,60
1,36,0,30
1,36,100,60
1,36,0,30
1,36,100,90
1,36,0,30
1,36,100,150
1,36,0,30
1,36,100,60
1,36,0,30
1,36,100,60
1,36,0,30
1,36,100,90
1,36,0,30
1,36,100,150
1,36,0,30
1,36,100,60
1,36,0,30
1,36,100,60
1,36,0,30
1,36,100,90
1,36,0,30
1,36,100,150
1,36,0,30
1,36,100,60
1,36,0,30
1,36,100,60
1,36,0,30
1,36,100,90
1,36,0,30
1,36,100,150
1,36,0,30
1,36,100,60
1,36,0,30
1,36,100,60
1,36,0,30
1,36,100,90
1,36,0,30
1,36,100,150
1,36,0,30
1,36,100,60
1,36,0,30
1,36,100,60
1,36,0,30
1,36,100,90
1,36,0,30
1,36,100,150
1,36,0,30
1,36,100,60
1,36,0,30
1,36,100,60
1,36,0,30
1,36,100,90
1,36,0,30
1,36,100,150
1,36,0,30
1,36,100,60
1,36,0,30
1,36,100,60
1,36,0,30
1,36,100,90
1,36,0,30
1,36,100,150
1,36,0,30
1,36,100,60
1,36,0,30
1,36,100,60
1,36,0,30
1,36,100,90
1,36,0,30
1,36,100,150
1,36,0,30
1,36,100,60
1,36,0,30
1,36,100,60
1,36,0,30
1,36,100,90
1,36,0,30
1,36,100,150
1,36,0,30
1,36,100,60
1,36,0,30
1,36,100,60
1,36,0,30
1,36,100,90
1,36,0,30
1,36,100,150
1,36,0,30
1,36,100,60
1,36,0,30
1,36,100,60
1,36,0,30
1,36,100,90
1,36,0,30
1,36,100,150
1,36,0,30
1,36,100,60
1,36,0,30
1,36,100,60
1,36,0,30
1,36,100,90
1,36,0,30
1,36,100,150
1,36,0,30
1,36,100,60
1,36,0,30
1,36,100,60
1,36,0,30
1,36,100,90
1,36,0,30
1,36,100,150
1,36,0,30
1,36,100,60
1,36,0,30
1,36,100,60
1,36,0,30
1,36,100,90
1,36,0,30
1,36,100,150
1,36,0,30
1,36,100,60
1,36,0,30
1,36,100,60
1,36,0,30
1,36,100,90
1,36,0,30
1,36,100,150
1,36,0,30
1,36,100,60
1,36,0,30
1,36,100,60
1,36,0,30
1,36,100,90
1,36,0,30
1,36,100,150
1,36,0,30
1,36,100,60
1,36,0,30
1,36,100,60
1,36,0,30
1,36,100,90
1,36,0,30
1,36,100,150
1,36,0,30
1,36,100,60
1,36,0,30
1,36,100,60
1,36,0,30
1,36,100,90
1,36,0,30
1,36,100,150
1,36,0,30
1,36,100,60
1,36,0,30
1,36,100,60
1,36,0,30
1,36,100,90
1,36,0,30
1,36,100,150
1,36,0,30
1,36,100,60
1,36,0,30
1,36,100,60
1,36,0,30
1,36,100,90
1,36,0,30
1,36,100,150
1,36,0,30
1,36,100,60
1,36,0,30
1,36,100,60
1,36,0,30
1,36,100,90
1,36,0,30
1,36,100,150
1,36,0,30
1,36,100,60
1,36,0,30
1,36,100,60
1,36,0,30
1,36,100,90
1,36,0,30
1,36,100,150
1,36,0,30
1,36,100,60
1,36,0,30
1,36,100,60
1,36,0,30
1,36,100,90
1,36,0,30
1,36,100,150
1,36,0,30
1,36,100,60
1,36,0,30
1,36,100,60
1,36,0,30
1,36,100,90
1,36,0,30
1,36,100,150
1,36,0,30
1,36,100,60
1,36,0,30
1,36,100,60
1,36,0,30
1,36,100,90
1,36,0,30
1,36,100,150
1,36,0,30
1,36,100,60
1,36,0,30
1,36,100,60
1,36,0,30
1,36,100,90
1,36,0,30
1,36,100,150
1,36,0,30
1,36,100,60
1,36,0,30
1,36,100,60
1,36,0,30
1,36,100,90
1,36,0,30
1,36,100,630
1,36,0,30
1,36,100,60
1,36,0,30
1,36,100,60
1,36,0,30
1,36,100,90
1,36,0,30
1,36,100,150
1,36,0,30
1,36,100,60
1,36,0,30
1,36,100,60
1,36,0,30
1,36,100,90
1,36,0,30
1,36,100,150
1,36,0,30
1,36,100,60
1,36,0,30
1,36,100,60
1,36,0,30
1,36,100,90
1,36,0,30
1,36,100,150
1,36,0,30
1,36,100,60
1,36,0,30
1,36,100,60
1,36,0,30
1,36,100,90
1,36,0,30
1,36,100,150
1,36,0,30
1,36,100,60
1,36,0,30
1,36,100,60
1,36,0,30
1,36,100,90
1,36,0,30
1,36,100,150
1,36,0,30
1,36,100,60
1,36,0,30
1,36,100,60
1,36,0,30
1,36,100,90
1,36,0,30
1,36,100,150
1,36,0,30
1,36,100,60
1,36,0,30
1,36,100,60
1,36,0,30
1,36,100,90
1,36,0,30
1,36,100,150
1,36,0,30
1,36,100,60
1,36,0,30
1,36,100,60
1,36,0,30
1,36,100,90
1,36,0,30
1,36,100,150
1,36,0,30
1,36,100,60
1,36,0,30
1,36,100,60
1,36,0,30
1,36,100,90
1,36,0,30
1,36,100,150
1,36,0,30
1,36,100,60
1,36,0,30
1,36,100,60
1,36,0,30
1,36,100,90
1,36,0,30
1,36,100,150
1,36,0,30
1,36,100,60
1,36,0,30
1,36,100,60
1,36,0,30
1,36,100,90
1,36,0,30
1,36,100,150
1,36,0,30
1,36,100,60
1,36,0,30
1,36,100,60
1,36,0,30
1,36,100,90
1,36,0,30
1,36,100,150
1,36,0,30
1,36,100,60
1,36,0,30
1,36,100,60
1,36,0,30
1,36,100,90
1,36,0,30
1,36,100,150
1,36,0,30
1,36,100,60
1,36,0,30
1,36,100,60
1,36,0,30
1,36,100,90
1,36,0,30
1,36,100,150
1,36,0,30
1,36,100,60
1,36,0,30
1,36,100,60
1,36,0,30
1,36,100,90
1,36,0,30
1,36,100,150
1,36,0,30
1,36,100,60
1,36,0,30
1,36,100,60
1,36,0,30
1,36,100,90
1,36,0,30
1,36,100,150
1,36,0,30
1,36,100,60
1,36,0,30
1,36,100,60
1,36,0,30
1,36,100,90
1,36,0,30
1,36,100,870
1,36,0,30
1,36,100,60
1,36,0,30
1,36,100,60
1,36,0,30
1,36,100,90
1,36,0,30
1,36,100,150
1,36,0,30
1,36,100,60
1,36,0,30
1,36,100,60
1,36,0,30
1,36,100,90
1,36,0,30
1,36,100,150
1,36,0,30
1,36,100,60
1,36,0,30
1,36,100,60
1,36,0,30
1,36,100,90
1,36,0,30
1,36,100,150
1,36,0,30
1,36,100,60
1,36,0,30
1,36,100,60
1,36,0,30
1,36,100,90
1,36,0,30
1,36,100,150
1,36,0,30
1,36,100,60
1,36,0,30
1,36,100,60
1,36,0,30
1,36,100,90
1,36,0,30
1,36,100,150
1,36,0,30
1,36,100,60
1,36,0,30
1,36,100,60
1,36,0,30
1,36,100,90
1,36,0,30
1,36,100,150
1,36,0,30
1,36,100,60
1,36,0,30
1,36,100,60
1,36,0,30
1,36,100,90
1,36,0,30
1,36,100,150
1,36,0,30
1,36,100,60
1,36,0,30
1,36,100,60
1,36,0,30
1,36,100,90
1,36,0,30
1,36,100,150
1,36,0,30
1,36,100,60
1,36,0,30
1,36,100,60
1,36,0,30
1,36,100,90
1,36,0,30
1,36,100,150
1,36,0,30
1,36,100,60
1,36,0,30
1,36,100,60
1,36,0,30
1,36,100,90
1,36,0,30
1,36,100,150
1,36,0,30
1,36,100,60
1,36,0,30
1,36,100,60
1,36,0,30
1,36,100,90
1,36,0,30
1,36,100,150
1,36,0,30
1,36,100,60
1,36,0,30
1,36,100,60
1,36,0,30
1,36,100,90
1,36,0,30
1,36,100,150
1,36,0,30
1,36,100,60
1,36,0,30
1,36,100,60
1,36,0,30
1,36,100,90
1,36,0,30
1,36,100,150
1,36,0,30
1,36,100,60
1,36,0,30
1,36,100,60
1,36,0,30
1,36,100,90
1,36,0,30
1,36,100,150
1,36,0,30
1,36,100,60
1,36,0,30
1,36,100,60
1,36,0,30
1,36,100,90
1,36,0,30
1,36,100,150
1,36,0,30
1,36,100,60
1,36,0,30
1,36,100,60
1,36,0,30
1,36,100,90
1,36,0,30
1,36,100,150
1,36,0,30
1,36,100,60
1,36,0,30
1,36,100,60
1,36,0,30
1,36,100,90
1,36,0,30
1,36,100,150
1,36,0,30
1,36,100,60
1,36,0,30
1,36,100,60
1,36,0,30
1,36,100,90
1,36,0,30
1,36,100,150
1,36,0,30
1,36,100,60
1,36,0,30
1,36,100,60
1,36,0,30
1,36,100,90
1,36,0,30
1,36,100,150
1,36,0,30
1,36,100,60
1,36,0,30
1,36,100,60
1,36,0,30
1,36,100,90
1,36,0,30
1,36,100,150
1,36,0,30
1,36,100,60
1,36,0,30
1,36,100,60
1,36,0,30
1,36,100,90
1,36,0,30
1,36,100,630
1,36,0,30
1,36,100,60
1,36,0,30
1,36,100,60
1,36,0,30
1,36,100,90
1,36,0,30
1,36,100,150
1,36,0,30
1,36,100,60
1,36,0,30
1,36,100,60
1,36,0,30
1,36,100,90
1,36,0,30
1,36,100,150
1,36,0,30
1,36,100,60
1,36,0,30
1,36,100,60
1,36,0,30
1,36,100,90
1,36,0,30
1,36,100,150
1,36,0,30
1,36,100,60
1,36,0,30
1,36,100,60
1,36,0,30
1,36,100,90
1,36,0,30
1,36,100,150
1,36,0,30
1,36,100,60
1,36,0,30
1,36,100,60
1,36,0,30
1,36,100,90
1,36,0,30
1,36,100,150
1,36,0,30
1,36,100,60
1,36,0,30
1,36,100,60
1,36,0,30
1,36,100,90
1,36,0,30
1,36,100,150
1,36,0,30
1,36,100,60
1,36,0,30
1,36,100,60
1,36,0,30
1,36,100,90
1,36,0,30
1,36,100,630
1,36,0,30
2,38,100,3000
2,38,0,60
2,38,100,180
2,38,0,60
2,38,100,180
2,38,0,60
2,38,100,180
2,38,0,60
2,38,100,180
2,38,0,60
2,38,100,180
2,38,0,60
2,38,100,180
2,38,0,60
2,38,100,180
2,38,0,60
2,38,100,180
2,38,0,60
2,38,100,180
2,38,0,60
2,38,100,180
2,38,0,60
2,38,100,180
2,38,0,60
2,38,100,180
2,38,0,60
2,38,100,180
2,38,0,60
2,38,100,180
2,38,0,60
2,38,100,180
2,38,0,60
2,38,50,30
2,38,0,30
2,38,100,120
2,38,0,60
2,38,100,180
2,38,0,60
2,38,100,180
2,38,0,60
2,38,100,180
2,38,0,60
2,38,100,180
2,38,0,60
2,38,100,180
2,38,0,60
2,38,100,180
2,38,0,60
2,38,100,180
2,38,0,30
2,38,50,0
2,38,0,30
2,38,50,30
2,38,0,30
2,38,100,120
2,38,0,60
2,38,100,180
2,38,0,60
2,38,100,180
2,38,0,60
2,38,100,180
2,38,0,60
2,38,100,180
2,38,0,60
2,38,100,180
2,38,0,60
2,38,100,180
2,38,0,60
2,38,100,90
2,38,0,30
2,38,100,60
2,38,0,30
2,38,100,60
2,38,0,30
2,38,100,120
2,38,0,60
2,38,100,180
2,38,0,60
2,38,100,180
2,38,0,60
2,38,100,180
2,38,0,60
2,38,100,180
2,38,0,60
2,38,100,180
2,38,0,60
2,38,100,180
2,38,0,60
2,38,100,180
2,38,0,60
2,38,100,180
2,38,0,60
2,38,100,180
2,38,0,60
2,38,100,180
2,38,0,60
2,38,100,180
2,38,0,60
2,38,100,180
2,38,0,60
2,38,100,180
2,38,0,60
2,38,100,180
2,38,0,60
2,38,100,180
2,38,0,60
2,38,100,180
2,38,0,60
2,38,100,180
2,38,0,60
2,38,100,180
2,38,0,60
2,38,100,180
2,38,0,60
2,38,100,180
2,38,0,60
2,38,100,180
2,38,0,60
2,38,100,30
2,38,0,30
2,38,100,120
2,38,0,60
2,38,100,180
2,38,0,60
2,38,100,180
2,38,0,60
2,38,100,180
2,38,0,60
2,38,100,30
2,38,0,30
2,38,100,120
2,38,0,60
2,38,100,180
2,38,0,60
2,38,100,180
2,38,0,60
2,38,100,180
2,38,0,60
2,38,100,180
2,38,0,60
2,38,100,180
2,38,0,60
2,38,100,180
2,38,0,60
2,38,100,180
2,38,0,60
2,38,100,180
2,38,0,60
2,38,100,180
2,38,0,60
2,38,100,180
2,38,0,60
2,38,100,180
2,38,0,60
2,38,100,180
2,38,0,60
2,38,100,180
2,38,0,60
2,38,100,180
2,38,0,60
2,38,100,180
2,38,0,60
2,38,100,180
2,38,0,60
2,38,100,180
2,38,0,60
2,38,100,180
2,38,0,60
2,38,100,180
2,38,0,60
2,38,100,180
2,38,0,60
2,38,100,180
2,38,0,60
2,38,100,180
2,38,0,60
2,38,100,180
2,38,0,60
2,38,100,180
2,38,0,60
2,38,100,180
2,38,0,60
2,38,100,180
2,38,0,60
2,38,100,180
2,38,0,60
2,38,100,180
2,38,0,60
2,38,100,180
2,38,0,60
2,38,100,180
2,38,0,60
2,38,50,90
2,38,0,30
2,38,100,60
2,38,0,30
2,38,50,30
2,38,0,30
2,38,100,0
2,38,0,30
2,38,100,120
2,38,0,60
2,38,100,180
2,38,0,60
2,38,100,180
2,38,0,60
2,38,100,180
2,38,0,60
2,38,100,180
2,38,0,60
2,38,100,180
2,38,0,60
2,38,100,180
2,38,0,60
2,38,50,90
2,38,0,30
2,38,100,60
2,38,0,30
2,38,50,30
2,38,0,30
2,38,50,0
2,38,0,30
2,38,100,120
2,38,0,60
2,38,100,180
2,38,0,60
2,38,50,360
2,38,0,30
2,38,50,30
2,38,0,30
2,38,50,30
2,38,0,30
2,38,50,0
2,38,0,30
2,38,100,120
2,38,0,60
2,38,100,180
2,38,0,60
