track,note,velocity,time
1,62,39,68
1,58,30,8
1,43,39,0
1,55,34,4
1,50,42,16
1,70,71,16
1,67,85,76
1,72,78,268
1,60,47,0
1,45,39,0
1,57,41,0
1,66,50,0
1,69,66,60
1,62,47,348
1,55,41,8
1,46,29,16
1,74,79,316
1,70,73,244
1,63,48,0
1,48,45,0
1,55,41,0
1,69,70,104
1,72,65,68
1,62,45,196
1,58,35,12
1,55,35,8
1,50,33,0
1,70,67,340
1,74,80,44
1,79,83,180
1,60,49,0
1,55,40,0
1,57,43,0
1,51,44,0
1,69,71,368
1,67,49,164
1,65,34,0
1,47,39,0
1,55,35,0
1,77,68,300
1,67,59,136
1,55,39,4
1,63,38,8
1,48,40,32
1,69,68,24
1,70,65,56
1,63,48,12
1,49,31,16
1,55,31,8
1,69,74,228
1,67,74,56
1,74,83,140
1,62,51,0
1,50,39,0
1,58,40,0
1,70,71,88
1,60,52,0
1,51,36,44
1,55,36,0
1,70,65,308
1,67,55,48
1,63,30,24
1,48,32,28
1,69,62,172
1,67,58,4
1,71,60,356
1,67,43,0
1,62,34,0
1,43,40,0
1,55,33,0
1,72,78,48
1,69,54,4
1,74,82,56
1,71,59,4
1,76,82,200
1,66,43,4
1,55,48,16
1,72,54,4
1,57,47,8
1,81,77,248
1,78,62,0
1,76,81,84
1,72,67,8
1,74,77,124
1,71,56,8
1,67,40,20
1,59,39,8
1,55,40,0
1,76,83,52
1,72,70,12
1,78,83,56
1,74,79,12
1,79,88,196
1,67,51,0
1,64,49,0
1,55,43,0
1,60,45,0
1,76,78,0
1,72,72,0
1,57,34,4
1,84,83,152
1,72,77,8
1,81,73,0
1,79,84,24
1,76,66,8
1,78,79,228
1,66,55,16
1,62,39,16
1,50,35,16
1,67,59,156
1,64,48,0
1,69,72,160
1,66,43,4
1,71,64,116
1,67,52,4
1,62,41,16
1,76,76,40
1,72,62,12
1,66,54,20
1,69,59,0
1,74,80,216
1,62,57,0
1,50,49,0
1,59,44,0
1,69,57,0
1,67,62,36
1,64,59,180
1,60,39,0
1,66,60,20
1,62,49,0
1,67,60,164
1,64,46,0
1,72,62,180
1,67,45,8
1,69,45,20
1,66,46,12
1,62,40,40
1,43,44,252
1,31,32,0
1,70,64,296
1,62,58,20
1,67,78,116
1,58,55,4
1,72,79,228
1,63,53,0
1,33,44,0
1,45,49,0
1,69,71,60
1,60,54,4
1,46,51,332
1,34,47,8
1,74,81,284
1,65,54,16
1,70,77,292
1,63,53,0
1,48,40,0
1,36,43,0
1,69,79,52
1,60,66,12
1,72,79,56
1,57,54,8
1,38,54,168
1,50,70,12
1,70,80,304
1,58,53,8
1,62,60,20
1,74,92,48
1,58,62,4
1,79,88,212
1,67,62,16
1,51,56,8
1,57,55,4
1,69,74,96
1,57,48,16
1,67,45,8
1,67,63,192
1,47,34,0
1,35,35,0
1,77,75,268
1,67,63,272
1,65,56,0
1,36,38,0
1,48,38,0
1,69,68,188
1,57,45,0
1,63,51,0
1,70,65,28
1,62,53,0
1,58,34,0
1,49,45,212
1,37,43,0
1,69,77,296
1,64,48,0
1,67,71,92
1,58,47,0
1,74,70,268
1,50,53,0
1,57,51,0
1,58,47,44
1,69,62,192
1,70,58,136
1,67,46,0
1,58,32,140
1,55,39,0
1,51,38,0
1,65,64,0
1,70,64,140
1,63,50,0
1,67,57,220
1,36,44,0
1,51,40,0
1,62,49,0
1,69,62,72
1,60,47,0
1,67,66,12
1,71,66,404
1,59,44,0
1,43,42,0
1,55,39,0
1,50,39,0
1,67,31,0
1,62,46,0
1,70,50,1776
1,70,64,192
1,71,71,104
1,71,68,156
1,66,64,92
1,66,62,124
1,67,67,52
1,67,73,148
1,61,67,140
1,57,54,20
1,61,71,76
1,57,52,24
1,62,74,52
1,58,53,12
1,62,79,104
1,58,60,12
1,57,73,160
1,54,55,12
1,54,61,176
1,57,63,12
1,58,67,168
1,55,55,24
1,70,46,208
1,79,63,84
1,74,33,12
1,82,84,60
1,43,47,16
1,31,51,12
1,58,43,88
1,50,46,32
1,67,55,96
1,70,49,4
1,74,65,28
1,62,52,40
1,79,85,16
1,70,55,64
1,58,58,52
1,50,35,20
1,74,71,4
1,72,68,12
1,33,51,28
1,45,59,4
1,50,49,92
1,72,49,124
1,75,49,36
1,78,53,16
1,81,46,24
1,84,85,28
1,57,42,12
1,60,44,8
1,54,32,4
1,81,82,184
1,69,68,0
1,78,62,8
1,75,56,4
1,50,54,4
1,46,22,136
1,74,61,12
1,79,72,4
1,46,47,28
1,86,86,8
1,34,53,12
1,50,56,124
1,70,53,104
1,74,67,52
1,79,41,16
1,82,77,48
1,55,53,8
1,62,47,4
1,67,63,36
1,50,36,24
1,74,72,56
1,75,69,184
1,36,55,16
1,48,51,8
1,55,56,60
1,81,81,44
1,69,61,4
1,75,63,4
1,63,38,20
1,67,27,4
1,60,40,12
1,84,92,28
1,75,55,8
1,55,50,4
1,72,58,0
1,79,29,16
1,70,53,144
1,74,57,20
1,79,60,12
1,50,47,24
1,82,85,8
1,38,52,12
1,55,58,92
1,74,51,116
1,79,58,48
1,82,61,0
1,62,52,60
1,67,42,0
1,86,90,4
1,58,28,20
1,67,57,88
1,55,54,0
1,70,68,36
1,79,68,0
1,39,56,20
1,51,58,0
1,55,66,160
1,79,74,148
1,81,64,4
1,63,43,24
1,91,97,16
1,60,43,0
1,67,49,12
1,55,58,40
1,81,87,0
1,69,76,4
1,79,54,20
1,77,44,184
1,79,81,8
1,35,53,32
1,47,47,0
1,89,86,8
1,55,64,132
1,67,65,48
1,74,65,20
1,77,67,28
1,79,81,24
1,62,49,20
1,65,65,0
1,74,75,4
1,55,54,0
1,77,74,8
1,75,68,8
1,36,55,0
1,48,54,20
1,55,63,32
1,60,55,16
1,63,50,52
1,81,86,44
1,69,74,8
1,75,61,0
1,67,40,12
1,63,10,56
1,55,50,4
1,82,89,20
1,70,80,4
1,69,66,100
1,76,66,60
1,81,92,20
1,49,48,4
1,37,53,12
1,55,55,4
1,79,77,84
1,67,54,12
1,58,40,8
1,76,60,4
1,64,42,0
1,70,43,4
1,67,63,12
1,55,56,44
1,76,68,68
1,50,52,16
1,38,54,0
1,74,65,0
1,50,65,0
1,55,43,24
1,58,37,56
1,86,90,88
1,74,73,8
1,82,65,0
1,79,70,4
1,62,46,0
1,82,85,84
1,70,79,0
1,79,60,0
1,50,29,40
1,70,47,28
1,75,34,64
1,79,53,8
1,82,85,28
1,39,54,0
1,51,53,0
1,51,54,124
1,67,60,92
1,70,39,60
1,75,65,44
1,63,37,56
1,58,37,0
1,79,87,20
1,67,67,4
1,51,53,16
1,70,68,16
1,69,63,12
1,36,55,8
1,48,53,16
1,55,37,64
1,69,58,112
1,72,52,44
1,75,60,16
1,60,31,60
1,63,47,16
1,81,74,8
1,55,42,16
1,67,65,16
1,79,78,4
1,70,36,144
1,75,62,68
1,31,53,32
1,43,48,8
1,82,70,12
1,58,50,112
1,67,51,168
1,70,49,36
1,75,60,44
1,63,38,0
1,55,46,24
1,79,82,0
1,51,44,8
1,67,59,112
1,58,46,120
1,70,66,8
1,63,42,68
1,51,46,12
1,75,65,24
1,58,45,24
1,80,73,256
1,68,49,12
1,75,62,8
1,41,51,12
1,46,47,40
1,77,53,12
1,74,41,8
1,79,74,168
1,67,49,12
1,75,46,12
1,51,45,16
1,55,49,8
1,56,52,132
1,53,52,16
1,77,81,68
1,58,62,12
1,65,54,4
1,55,64,8
1,75,71,160
1,63,43,20
1,60,63,4
1,56,42,12
1,74,74,196
1,68,56,8
1,65,69,0
1,72,68,16
1,62,69,8
1,56,39,20
1,65,26,0
1,82,78,224
1,70,60,16
1,58,34,0
1,51,34,16
1,55,44,8
1,60,62,128
1,56,37,8
1,80,88,100
1,68,64,12
1,58,46,8
1,62,53,4
1,79,82,140
1,63,47,20
1,67,60,4
1,60,48,8
1,72,78,32
1,67,47,12
1,63,56,4
1,57,51,16
1,81,74,172
1,66,52,8
1,62,34,12
1,57,32,4
1,50,42,20
1,67,64,72
1,64,39,16
1,79,86,156
1,69,71,8
1,66,54,0
1,78,76,156
1,67,48,0
1,62,54,0
1,71,51,0
1,76,82,208
1,72,67,12
1,66,40,40
1,69,62,0
1,76,77,132
1,67,56,16
1,71,45,16
1,50,54,8
1,55,42,8
1,59,50,0
1,74,81,68
1,66,58,4
1,57,44,16
1,60,47,8
1,67,60,136
1,59,57,4
1,62,58,4
1,64,54,92
1,60,53,16
1,50,48,4
1,72,83,4
1,71,82,0
1,62,73,16
1,60,72,0
1,69,87,8
1,66,63,12
1,39,57,188
1,81,96,8
1,69,78,8
1,75,74,4
1,51,77,16
1,79,94,72
1,67,64,20
1,75,68,0
1,58,62,8
1,55,74,236
1,45,80,12
1,60,87,0
1,91,99,292
1,79,79,20
1,84,80,4
1,89,97,128
1,77,85,8
1,84,80,4
1,57,79,4
1,87,96,16
1,75,89,0
1,84,65,0
1,34,62,24
1,82,76,56
1,79,62,16
1,46,84,8
1,86,90,48
1,82,65,0
1,79,65,0
1,74,76,8
1,84,86,52
1,79,65,0
1,74,65,0
1,72,75,4
1,62,82,12
1,82,84,40
1,70,80,0
1,74,65,0
1,79,65,0
1,81,82,64
1,58,55,12
1,69,63,0
1,75,62,8
1,48,56,12
1,79,88,32
1,70,65,0
1,67,75,4
1,77,85,16
1,65,65,12
1,72,77,0
1,57,66,20
1,75,82,56
1,63,51,16
1,69,59,4
1,60,59,4
1,75,73,116
1,63,48,4
1,38,59,12
1,70,45,12
1,67,48,4
1,50,53,16
1,74,82,40
1,62,70,4
1,72,63,140
1,58,74,4
1,67,46,20
1,70,70,52
1,62,74,20
1,67,77,96
1,70,60,20
1,51,53,24
1,69,61,120
1,57,69,16
1,79,77,60
1,67,63,12
1,79,77,164
1,74,65,4
1,67,47,12
1,65,46,0
1,47,55,4
1,35,53,16
1,67,54,108
1,74,56,4
1,65,82,172
1,77,53,16
1,67,43,4
1,74,29,24
1,67,56,72
1,77,70,224
1,55,68,8
1,65,41,4
1,67,46,4
1,48,49,32
1,65,43,0
1,67,38,8
1,75,69,8
1,57,69,12
1,63,45,4
1,69,48,20
1,74,74,84
1,58,65,4
1,62,33,16
1,70,43,8
1,73,72,156
1,61,37,16
1,55,46,8
1,51,32,4
1,67,49,0
1,81,82,284
1,69,54,12
1,73,54,4
1,79,75,344
1,67,56,8
1,86,80,188
1,74,60,16
1,79,61,8
1,58,35,4
1,50,51,8
1,55,40,4
1,82,73,80
1,74,63,0
1,70,54,16
1,82,79,76
1,70,60,12
1,75,61,4
1,36,54,8
1,48,47,16
1,55,45,208
1,79,79,4
1,67,54,20
1,75,53,4
1,63,37,0
1,60,46,12
1,55,43,256
1,72,54,16
1,39,49,24
1,51,44,16
1,51,52,56
1,81,77,76
1,72,60,0
1,69,56,24
1,60,40,24
1,55,43,12
1,67,59,120
1,79,68,4
1,51,46,28
1,50,51,160
1,71,57,24
1,55,42,32
1,74,52,24
1,79,68,16
1,59,60,16
1,83,85,108
1,60,60,28
1,57,37,12
1,81,77,148
1,69,63,8
1,62,55,12
1,59,51,8
1,74,48,4
1,79,80,88
1,60,62,8
1,50,49,8
1,67,60,4
1,64,40,0
1,78,73,256
1,72,62,24
1,69,55,4
1,66,58,4
1,62,49,0
1,76,74,184
1,64,57,0
1,67,51,0
1,50,45,0
1,52,47,68
1,55,50,0
1,57,54,16
1,54,45,4
1,74,79,140
1,59,43,0
1,62,48,0
1,55,57,0
1,64,58,268
1,60,42,16
1,57,34,0
1,67,69,72
1,64,46,0
1,72,68,132
1,67,44,28
1,64,26,24
1,60,1,152
1,66,46,24
1,62,53,0
1,71,59,216
1,59,43,0
1,62,46,0
1,43,45,0
1,55,37,0
1,50,48,0
1,67,68,44
1,64,40,344
1,52,36,0
1,55,44,0
1,60,42,0
1,72,66,272
1,62,34,20
1,57,31,16
1,54,38,0
1,69,72,84
1,74,69,276
1,59,32,8
1,62,41,12
1,43,24,4
1,67,43,8
1,50,42,4
1,43,36,164
1,31,39,0
1,67,60,132
1,74,64,76
1,68,54,56
1,73,58,60
1,69,64,56
1,72,63,80
1,69,66,76
1,70,65,76
1,67,59,68
1,63,57,80
1,60,53,72
1,61,56,64
1,62,62,72
1,69,63,64
1,63,53,68
1,68,56,68
1,64,65,60
1,67,54,72
1,64,67,80
1,66,55,64
1,62,52,72
1,63,42,92
1,60,56,80
1,58,57,84
1,69,59,76
1,67,50,96
1,58,48,48
1,57,56,64
1,65,62,68
1,63,62,100
1,72,71,128
1,79,74,72
1,69,63,0
1,73,62,56
1,78,64,56
1,62,59,0
1,74,69,44
1,77,69,76
1,68,59,0
1,74,68,64
1,75,58,72
1,67,54,0
1,72,63,56
1,69,55,96
1,66,50,0
1,74,60,68
1,72,65,96
1,63,50,0
1,67,57,68
1,79,58,76
1,73,50,0
1,57,50,0
1,69,55,52
1,78,62,68
1,74,50,0
1,62,55,0
1,69,60,52
1,77,68,72
1,71,55,0
1,56,50,0
1,74,67,72
1,75,59,64
1,55,50,0
1,72,62,56
1,66,46,72
1,57,45,0
1,50,45,0
1,74,47,60
1,55,49,32
1,70,46,56
1,79,75,16
1,86,70,80
1,76,50,0
1,80,66,68
1,85,73,72
1,69,50,0
1,81,62,52
1,84,72,56
1,75,50,0
1,81,66,56
1,82,67,64
1,74,50,0
1,79,64,52
1,76,64,64
1,73,46,0
1,81,53,48
1,79,63,72
1,70,46,0
1,74,54,64
1,86,70,72
1,64,48,0
1,80,48,0
1,76,61,48
1,85,64,52
1,81,50,0
1,57,50,0
1,76,62,40
1,84,67,76
1,63,55,0
1,78,55,0
1,81,64,72
1,82,56,56
1,62,52,0
1,79,59,60
1,73,54,76
1,64,47,0
1,57,45,0
1,81,50,64
1,65,45,0
1,74,67,124
1,81,63,64
1,71,48,0
1,75,61,52
1,80,68,64
1,64,48,0
1,76,69,52
1,79,68,72
1,70,53,0
1,76,68,68
1,77,64,68
1,69,51,0
1,74,54,60
1,70,48,80
1,67,45,0
1,75,60,52
1,69,66,76
1,66,45,0
1,75,71,48
1,68,58,64
1,65,45,0
1,69,67,56
1,72,66,80
1,63,45,0
1,67,60,72
1,70,58,64
1,62,45,0
1,67,65,60
1,69,48,8
1,61,43,0
1,64,45,56
1,66,58,80
1,60,40,0
1,69,52,40
1,66,58,80
1,46,42,0
1,34,40,0
1,67,62,76
1,74,69,76
1,68,58,64
1,73,60,72
1,69,57,52
1,72,64,68
1,31,40,0
1,43,40,0
1,69,54,72
1,70,56,64
1,67,42,72
1,63,48,68
1,48,44,0
1,36,44,0
1,60,49,48
1,45,40,0
1,33,40,0
1,73,63,60
1,50,45,0
1,38,42,0
1,74,71,76
1,81,68,72
1,75,53,60
1,80,60,80
1,76,65,52
1,79,66,72
1,46,40,0
1,34,42,0
1,76,70,68
1,77,68,64
1,74,65,56
1,75,59,92
1,33,42,0
1,45,42,0
1,66,54,48
1,36,42,0
1,48,42,0
1,46,42,72
1,34,42,0
1,79,68,128
1,86,70,64
1,74,53,0
1,80,54,52
1,85,71,68
1,73,56,8
1,81,71,56
1,84,79,56
1,50,44,0
1,38,40,0
1,72,63,12
1,81,68,60
1,82,81,72
1,79,68,48
1,75,62,68
1,43,42,0
1,72,56,48
1,33,42,0
1,73,60,52
1,41,42,0
1,74,58,68
1,81,68,68
1,69,51,0
1,74,66,48
1,77,61,28
1,68,58,56
1,69,46,84
1,43,41,0
1,31,41,0
1,70,64,56
1,74,67,60
1,64,61,64
1,66,58,24
1,33,41,0
1,45,43,0
1,67,59,60
1,46,45,0
1,34,45,0
1,71,72,60
1,51,48,0
1,39,48,0
1,72,68,64
1,79,69,72
1,67,55,0
1,72,60,56
1,75,64,64
1,66,51,56
1,68,61,56
1,42,48,0
1,30,48,0
1,69,57,52
1,72,71,40
1,62,56,64
1,63,57,32
1,31,48,0
1,43,48,0
1,65,62,40
1,69,62,68
1,50,50,0
1,38,48,0
1,70,60,60
1,77,61,68
