track,note,velocity,time
1,62,127,2
1,62,0,64
1,60,127,18
1,60,0,9
1,58,127,19
1,58,0,8
1,55,127,9
1,55,0,8
1,53,127,20
1,53,0,8
1,65,127,16
1,65,0,18
1,67,127,22
1,67,0,12
1,65,127,31
1,65,0,49
1,67,127,2
1,67,0,11
1,60,127,31
1,60,0,49
1,62,127,28
1,62,0,11
1,60,127,17
1,60,0,9
1,58,127,22
1,58,0,8
1,55,127,51
1,55,0,17
1,53,127,44
1,53,0,11
1,65,127,49
1,65,0,36
1,62,127,29
1,62,0,14
1,60,127,44
1,60,0,98
1,60,127,28
1,60,0,14
1,62,127,45
1,62,0,16
1,60,127,38
1,60,0,13
1,65,127,46
1,65,0,151
1,65,127,29
1,65,0,86
1,62,127,40
1,62,0,17
1,65,127,41
1,65,0,86
1,62,127,34
1,62,0,16
1,65,127,44
1,65,0,85
1,62,127,38
1,62,0,12
1,60,127,19
1,60,0,9
1,58,127,21
1,58,0,76
1,62,127,36
1,62,0,25
1,65,127,34
1,65,0,16
1,62,127,44
1,62,0,61
1,60,127,36
1,60,0,9
1,58,127,18
1,58,0,8
1,55,127,76
1,55,0,11
1,53,127,19
1,53,0,8
1,62,127,1
1,62,0,61
1,60,127,11
1,60,0,28
1,58,127,2
1,58,0,27
1,55,127,1
1,55,0,27
1,53,127,3
1,53,0,27
1,65,127,11
1,65,0,12
1,67,127,28
1,67,0,28
1,65,127,31
1,65,0,42
1,67,127,1
1,67,0,10
1,60,127,31
1,60,0,48
1,62,127,31
1,62,0,30
1,60,127,0
1,60,0,29
1,58,127,1
1,58,0,29
1,55,127,31
1,55,0,30
1,53,127,30
1,53,0,30
1,65,127,30
1,65,0,33
1,62,127,29
1,62,0,28
1,60,127,30
1,60,0,93
1,60,127,29
1,60,0,28
1,62,127,32
1,62,0,28
1,60,127,30
1,60,0,30
1,65,127,30
1,65,0,151
1,65,127,29
1,65,0,89
1,62,127,33
1,62,0,28
1,65,127,32
1,65,0,87
1,62,127,33
1,62,0,28
1,65,127,32
1,65,0,87
1,62,127,33
1,62,0,28
1,60,127,2
1,60,0,28
1,58,127,2
1,58,0,87
1,62,127,31
1,62,0,30
1,65,127,30
1,65,0,30
1,62,127,30
1,62,0,61
1,60,127,31
1,60,0,28
1,58,127,1
1,58,0,27
1,55,127,62
1,55,0,30
1,53,127,0
1,53,0,99
1,58,127,607
1,58,0,57
1,62,127,61
1,62,0,30
1,67,127,30
1,67,0,30
1,65,127,30
1,65,0,63
1,65,127,57
1,65,0,119
1,62,127,1
1,65,127,60
1,62,0,3
1,65,0,116
1,62,127,1
1,65,127,60
1,62,0,2
1,65,0,61
1,62,127,59
1,62,0,28
1,60,127,1
1,58,127,29
1,60,0,3
1,58,0,56
1,60,127,3
1,60,0,57
1,62,127,1
1,60,127,60
1,62,0,1
1,60,0,58
1,65,127,1
1,65,0,119
1,65,127,3
1,65,0,123
1,62,127,657
1,65,127,60
1,62,0,1
1,62,127,29
1,65,0,27
1,62,0,30
1,60,127,3
1,60,0,28
1,58,127,1
1,58,0,30
1,53,127,10
1,53,0,10
1,62,127,1
1,62,0,61
1,60,127,11
1,60,0,28
1,58,127,2
1,58,0,27
1,55,127,1
1,55,0,27
1,53,127,3
1,53,0,27
1,65,127,11
1,65,0,12
1,67,127,28
1,67,0,28
1,65,127,31
1,65,0,42
1,67,127,1
1,67,0,10
1,60,127,31
1,60,0,48
1,62,127,31
1,62,0,30
1,60,127,0
1,60,0,29
1,58,127,1
1,58,0,29
1,55,127,31
1,55,0,30
1,53,127,30
1,53,0,30
1,65,127,30
1,65,0,33
1,62,127,29
1,62,0,28
1,60,127,30
1,60,0,93
1,60,127,29
1,60,0,28
1,62,127,32
1,62,0,28
1,60,127,30
1,60,0,30
1,65,127,30
1,65,0,151
1,65,127,29
1,65,0,89
1,62,127,33
1,62,0,28
1,65,127,32
1,65,0,87
1,62,127,33
1,62,0,28
1,65,127,32
1,65,0,87
1,62,127,33
1,62,0,28
1,60,127,2
1,60,0,28
1,58,127,2
1,58,0,87
1,62,127,31
1,62,0,30
1,65,127,30
1,65,0,30
1,62,127,30
1,62,0,61
1,60,127,31
1,60,0,28
1,58,127,1
1,58,0,27
1,55,127,62
1,55,0,30
1,53,127,0
1,53,0,99
1,58,127,607
1,58,0,57
1,62,127,61
1,62,0,30
1,67,127,30
1,67,0,30
1,65,127,30
1,65,0,63
1,65,127,57
1,65,0,119
1,62,127,1
1,65,127,60
1,62,0,3
1,65,0,116
1,62,127,1
1,65,127,60
1,62,0,2
1,65,0,61
1,62,127,59
1,62,0,28
1,60,127,1
1,58,127,29
1,60,0,3
1,58,0,56
1,60,127,3
1,60,0,57
1,62,127,1
1,60,127,60
1,62,0,1
1,60,0,58
1,65,127,1
1,65,0,119
1,65,127,3
1,65,0,123
1,62,127,657
1,65,127,60
1,62,0,1
1,62,127,29
1,65,0,27
1,62,0,30
1,60,127,3
1,60,0,28
1,58,127,1
1,58,0,30
1,53,127,6
1,53,0,6
2,67,127,1
2,67,0,44
2,62,127,33
2,62,0,123
2,67,127,1
2,67,0,44
2,62,127,33
2,62,0,123
2,65,127,60
2,65,0,89
2,70,127,32
2,70,0,87
2,70,127,31
2,70,0,93
2,67,127,27
2,67,0,33
2,65,127,28
2,65,0,63
2,65,127,1437
2,65,0,89
2,70,127,32
2,70,0,87
2,70,127,31
2,70,0,93
2,67,127,27
2,67,0,33
2,65,127,28
2,65,0,63
2,65,127,60
2,65,0,89
2,70,127,32
2,70,0,87
2,70,127,31
2,70,0,93
2,67,127,27
2,67,0,33
2,65,127,28
2,65,0,63
2,65,127,1437
2,65,0,89
2,70,127,32
2,70,0,87
2,70,127,31
2,70,0,93
2,67,127,27
2,67,0,33
2,65,127,28
2,65,0,63
3,67,127,1
3,67,0,44
3,62,127,33
3,62,0,123
3,67,127,1
3,67,0,44
3,62,127,33
3,62,0,123
4,67,127,1
4,67,0,44
4,62,127,33
4,62,0,123
4,67,127,1
4,67,0,44
4,62,127,33
4,62,0,123
5,67,103,1
5,67,0,44
5,62,103,33
5,62,0,123
5,67,103,1
5,67,0,44
5,62,103,33
5,62,0,123
5,74,103,246
5,74,0,14
5,75,103,25
5,75,0,5
5,77,103,37
5,77,0,10
5,70,103,1
5,70,0,11
5,70,127,10
5,70,0,2
5,70,114,10
5,70,0,2
5,70,114,10
5,70,0,2
5,70,103,10
5,70,0,2
5,70,92,10
5,70,0,2
5,70,81,10
5,69,103,3
5,69,103,0
5,69,0,3
5,69,0,4
5,70,0,2
5,70,103,0
5,70,0,5
5,72,125,6
5,72,0,1
5,77,114,8
5,77,0,6
5,77,114,10
5,77,0,9
5,77,114,10
5,77,0,9
5,77,103,10
5,77,103,2
5,77,0,9
5,77,0,1
6,60,100,0
6,60,0,1920
6,60,100,0
6,60,0,2400
6,60,100,8160
6,60,0,990
6,60,100,6690
6,60,0,990
6,60,100,2850
6,60,0,990
6,60,100,6690
6,60,0,960
7,34,94,3840
7,34,0,120
7,34,101,0
7,34,0,59
7,34,85,61
7,34,0,59
7,34,89,1
7,34,0,59
7,34,91,1
7,34,0,120
7,34,89,0
7,34,0,59
7,34,86,1
7,34,0,59
7,34,92,1
7,34,0,360
7,31,105,0
7,31,0,180
7,31,95,0
7,31,0,59
7,31,101,1
7,31,0,240
7,31,110,0
7,31,0,180
7,31,99,60
7,31,0,240
7,29,95,0
7,29,0,180
7,29,89,0
7,29,0,59
7,29,93,1
7,29,0,180
7,29,105,60
7,29,0,240
7,29,103,0
7,29,0,240
7,31,110,0
7,31,0,180
7,31,89,0
7,31,0,59
7,31,99,1
7,31,0,240
7,31,113,0
7,31,0,240
7,31,99,0
7,31,0,240
7,29,107,0
7,29,0,240
7,29,94,0
7,29,0,240
7,29,101,0
7,29,0,240
7,29,110,0
7,29,0,120
7,29,110,0
7,29,0,59
7,34,116,61
7,34,0,180
7,34,103,0
7,34,0,59
7,34,113,1
7,34,0,240
7,29,113,0
7,29,0,180
7,29,99,0
7,29,0,59
7,29,105,1
7,29,0,180
7,29,97,0
7,29,0,59
7,31,119,1
7,31,0,240
7,31,119,0
7,31,0,180
7,31,107,0
7,31,0,59
7,33,103,1
7,33,0,180
7,33,103,0
7,33,0,59
7,33,105,1
7,33,0,180
7,33,97,0
7,33,0,59
7,34,97,1
7,34,0,120
7,34,95,60
7,34,0,59
7,34,93,1
7,34,0,240
7,31,126,0
7,31,0,120
7,31,93,60
7,31,0,59
7,31,97,1
7,31,0,240
7,31,107,0
7,31,0,120
7,31,93,60
7,31,0,59
7,31,99,1
7,31,0,180
7,33,105,60
7,33,0,120
7,33,93,60
7,33,0,59
7,33,99,1
7,33,0,120
7,33,89,0
7,33,0,59
7,33,93,1
7,33,0,59
7,34,122,1
7,34,0,120
7,34,86,0
7,34,0,59
7,34,101,1
7,34,0,59
7,34,113,1
7,34,0,180
7,34,103,0
7,34,0,59
7,29,103,1
7,29,0,120
7,29,94,0
7,29,0,120
7,29,99,0
7,29,0,180
7,29,103,0
7,29,0,59
7,31,113,1
7,31,0,120
7,31,105,60
7,31,0,59
7,31,113,1
7,31,0,180
7,31,97,0
7,31,0,59
7,33,116,1
7,33,0,180
7,33,101,0
7,33,0,59
7,33,110,1
7,33,0,120
7,33,99,0
7,33,0,59
7,33,99,1
7,33,0,59
7,34,122,1
7,34,0,120
7,34,127,60
7,34,0,300
7,29,119,0
7,29,0,120
7,29,107,60
7,29,0,59
7,29,103,1
7,29,0,180
7,29,101,0
7,29,0,59
7,31,119,1
7,31,0,120
7,31,113,60
7,31,0,59
7,31,119,1
7,31,0,240
7,33,116,0
7,29,90,1
7,29,0,79
7,33,0,40
7,33,107,60
7,33,0,59
7,33,107,1
7,33,0,180
7,33,101,0
7,33,0,59
7,34,97,3
7,34,0,105
7,34,97,21
7,34,0,11
7,34,127,36
7,34,0,171
7,34,103,17
7,34,0,101
7,29,107,21
7,29,0,136
7,29,110,28
7,29,0,16
7,29,110,47
7,29,0,170
7,29,113,23
7,29,0,29
7,31,122,28
7,31,0,124
7,31,103,48
7,31,0,21
7,31,110,40
7,31,0,148
7,31,119,36
7,31,0,21
7,33,116,39
7,33,0,131
7,33,107,43
7,33,0,14
7,33,119,50
7,33,0,166
7,33,119,22
7,33,0,12
7,34,127,45
7,34,0,123
7,34,105,46
7,34,0,10
7,34,127,55
7,34,0,165
7,34,113,22
7,34,0,11
7,29,107,45
7,29,0,138
7,29,103,34
7,29,0,14
7,29,113,50
7,29,0,180
7,29,93,7
7,29,0,17
7,31,127,44
7,31,0,137
7,31,110,40
7,31,0,14
7,31,122,51
7,31,0,171
7,31,95,10
7,31,0,15
7,33,122,39
7,33,0,129
7,33,116,37
7,33,0,14
7,33,126,54
7,33,0,175
7,33,107,17
7,33,0,12
7,34,122,42
7,34,0,107
7,34,95,66
7,34,0,11
7,34,122,56
7,34,0,159
7,34,103,25
7,34,0,10
7,29,107,43
7,29,0,120
7,29,89,22
7,29,0,4
7,29,116,39
7,29,0,13
7,29,116,45
7,29,0,158
7,29,107,20
7,29,0,14
7,31,122,44
7,31,0,112
7,31,107,21
7,31,0,9
7,31,116,43
7,31,0,105
7,31,105,21
7,31,0,11
7,31,122,42
7,31,0,99
7,33,119,23
7,33,0,126
7,33,119,46
7,33,0,11
7,33,119,53
7,33,0,152
7,33,101,31
7,33,0,12
7,34,122,47
7,34,0,134
7,34,113,41
7,34,0,9
7,34,127,50
7,34,0,157
7,34,113,29
7,34,0,9
7,29,113,49
7,29,0,10
7,29,126,49
7,29,0,11
7,29,119,49
7,29,0,118
7,29,101,12
7,29,0,12
7,29,122,40
7,29,0,102
7,29,110,22
7,29,0,17
7,31,126,38
7,31,0,133
7,31,107,44
7,31,0,13
7,31,122,49
7,31,0,152
7,31,116,32
7,31,0,13
7,33,116,44
7,33,0,107
7,33,113,25
7,33,0,9
7,33,110,44
7,33,0,97
7,33,107,26
7,33,0,11
7,33,119,40
7,33,0,100
7,34,107,26
7,34,0,132
7,34,107,42
7,34,0,9
7,34,127,50
7,34,0,167
7,34,94,16
7,34,0,13
7,29,116,44
7,29,0,139
7,29,107,40
7,29,0,12
7,29,122,53
7,29,0,161
7,29,113,22
7,29,0,15
7,31,122,38
7,31,0,131
7,31,119,49
7,31,0,13
7,31,119,51
7,31,0,154
7,31,103,27
7,31,0,17
7,29,110,39
7,29,0,137
7,29,103,38
7,29,0,14
7,29,113,51
7,29,0,152
7,29,103,29
7,29,0,14
7,34,122,48
7,34,0,360
7,33,99,120
7,33,0,445
7,31,99,35
7,31,0,476
7,33,105,4
7,34,127,7
7,33,0,6
7,34,0,67
7,34,127,38
7,34,0,148
7,34,107,28
7,34,0,9
7,34,127,57
7,29,122,131
7,34,0,1
7,29,0,126
7,29,116,41
7,29,0,95
7,29,119,23
7,29,0,45
7,29,122,21
7,29,0,109
7,31,127,6
7,31,0,124
7,31,127,51
7,31,0,102
7,31,127,19
7,31,0,27
7,31,119,36
7,31,0,25
7,31,127,34
7,31,0,49
7,33,127,8
7,33,0,135
7,33,127,45
7,33,0,155
7,33,127,34
7,33,0,102
7,34,127,20
7,34,0,129
7,34,127,43
7,34,0,11
7,34,127,55
7,34,0,105
7,34,127,24
7,34,0,101
7,33,127,0
7,33,0,122
7,33,122,43
7,33,0,26
7,33,127,52
7,33,0,159
7,33,127,25
7,31,127,61
7,33,0,4
7,31,0,123
7,31,126,55
7,31,0,34
7,31,127,31
7,31,0,129
7,29,127,36
7,29,0,159
7,29,126,19
7,29,0,97
7,29,127,22
7,29,0,30
7,29,127,29
7,29,0,114
7,34,122,5
7,34,0,107
7,34,95,66
7,34,0,11
7,34,122,56
7,34,0,159
7,34,103,25
7,34,0,10
7,29,107,43
7,29,0,120
7,29,89,22
7,29,0,4
7,29,116,39
7,29,0,13
7,29,116,45
7,29,0,158
7,29,107,20
7,29,0,14
7,31,122,44
7,31,0,112
7,31,107,21
7,31,0,9
7,31,116,43
7,31,0,105
7,31,105,21
7,31,0,11
7,31,122,42
7,31,0,99
7,33,119,23
7,33,0,126
7,33,119,46
7,33,0,11
7,33,119,53
7,33,0,152
7,33,101,31
7,33,0,12
7,34,122,47
7,34,0,134
7,34,113,41
7,34,0,9
7,34,127,50
7,34,0,157
7,34,113,29
7,34,0,9
7,29,113,49
7,29,0,10
7,29,126,49
7,29,0,11
7,29,119,49
7,29,0,118
7,29,101,12
7,29,0,12
7,29,122,40
7,29,0,102
7,29,110,22
7,29,0,17
7,31,126,38
7,31,0,133
7,31,107,44
7,31,0,13
7,31,122,49
7,31,0,152
7,31,116,32
7,31,0,13
7,33,116,44
7,33,0,107
7,33,113,25
7,33,0,9
7,33,110,44
7,33,0,97
7,33,107,26
7,33,0,11
7,33,119,40
7,33,0,100
7,34,107,26
7,34,0,132
7,34,107,42
7,34,0,9
7,34,127,50
7,34,0,167
7,34,94,16
7,34,0,13
7,29,116,44
7,29,0,139
7,29,107,40
7,29,0,12
7,29,122,53
7,29,0,161
7,29,113,22
7,29,0,15
7,31,122,38
7,31,0,131
7,31,119,49
7,31,0,13
7,31,119,51
7,31,0,154
7,31,103,27
7,31,0,17
7,29,110,39
7,29,0,137
7,29,103,38
7,29,0,14
7,29,113,51
7,29,0,152
7,29,103,29
7,29,0,14
7,34,122,48
7,34,0,135
8,48,99,840
8,45,99,0
8,53,99,0
8,53,0,960
8,45,0,0
8,48,0,0
8,50,66,0
8,53,66,0
8,46,66,0
8,46,0,210
8,53,0,0
8,50,0,0
8,45,77,0
8,48,77,0
8,53,77,0
8,58,56,1200
8,62,56,0
8,65,56,0
8,53,0,240
8,45,0,0
8,48,0,0
8,58,0,720
8,62,0,0
8,65,0,0
8,58,58,0
8,62,69,0
8,55,59,0
8,55,0,960
8,62,0,0
8,58,0,0
8,62,73,0
8,57,73,0
8,53,69,0
8,53,0,960
8,57,0,0
8,62,0,0
8,62,63,0
8,55,75,0
8,58,71,0
8,58,0,960
