track,note,velocity,time
1,34,73,12088
1,31,94,126
1,29,109,14
1,31,103,3072
1,29,109,24
1,27,103,3072
1,29,109,18
1,31,103,1536
1,33,103,1512
1,26,106,1510
1,27,106,1526
1,29,106,1526
1,34,97,3056
1,33,100,44
1,31,100,10
1,33,100,4
1,34,97,1536
1,33,100,0
1,31,100,4
1,33,106,36
1,34,97,1536
1,33,100,44
1,31,100,10
1,33,100,4
1,34,97,1536
1,33,100,0
1,31,100,4
1,33,106,36
1,34,97,1536
1,33,100,44
1,31,100,10
1,33,100,4
1,34,97,1536
1,33,100,0
1,31,100,4
1,33,106,36
1,34,97,1536
1,33,100,44
1,31,100,10
1,33,100,4
1,34,97,1536
1,33,100,0
1,31,100,4
1,33,106,36
1,34,97,1536
1,33,100,44
1,31,100,10
1,33,100,4
1,34,97,1536
1,33,100,0
1,31,100,4
1,33,106,36
1,34,97,1536
1,33,100,44
1,31,100,10
1,33,100,4
1,34,97,1536
1,33,100,0
1,31,100,4
1,33,106,36
1,34,97,1536
1,33,100,44
1,31,100,10
1,33,100,4
1,34,97,1536
1,33,100,0
1,31,100,4
1,33,106,36
1,34,97,1536
1,33,100,44
1,31,100,10
1,33,100,4
1,34,97,1536
2,65,24,1314
2,50,35,0
2,46,53,0
2,65,57,16
2,53,70,0
2,45,89,0
2,55,43,0
2,57,71,0
2,46,69,2
2,58,59,0
2,62,60,0
2,53,62,0
2,60,68,0
2,65,74,0
2,57,74,40
2,55,83,0
2,53,71,0
2,45,85,0
2,65,76,0
2,60,79,0
2,46,76,3104
2,60,73,0
2,58,69,0
2,65,72,0
2,58,59,16
2,57,59,0
2,43,61,0
2,62,60,12
2,58,59,0
2,57,62,0
2,41,65,0
2,57,62,4
2,58,60,0
2,43,61,0
2,41,66,0
2,62,63,0
2,63,64,3072
2,65,60,0
2,58,63,0
2,39,65,0
2,41,62,18
2,60,63,0
2,63,62,6
2,43,63,0
2,45,64,1524
2,60,61,0
2,38,62,0
2,65,60,0
2,62,64,0
2,58,63,0
2,55,59,0
2,63,64,0
2,39,66,0
2,41,59,4
2,60,60,0
2,57,58,0
2,65,61,0
2,58,61,0
2,62,61,0
2,60,61,0
2,46,61,0
2,45,61,8
2,57,61,0
2,43,61,0
2,63,61,0
2,58,61,0
2,45,61,26
2,57,61,0
2,58,61,92
2,46,61,0
2,62,61,0
2,57,61,6
2,45,61,0
2,43,61,88
2,58,61,0
2,63,61,0
2,57,61,16
2,45,61,0
2,46,61,4
2,60,61,0
2,62,61,0
2,58,61,0
2,65,61,0
2,57,61,8
2,45,61,0
2,58,61,8
2,43,61,0
2,63,61,0
2,57,61,26
2,45,61,0
2,46,61,92
2,62,61,0
2,58,61,0
2,45,61,6
2,57,61,0
2,63,61,88
2,43,61,0
2,58,61,0
2,45,61,16
2,57,61,0
2,58,61,0
2,46,61,0
2,65,61,0
2,60,61,0
2,62,61,0
2,45,61,8
2,57,61,0
2,43,61,8
2,63,61,0
2,58,61,0
2,45,61,26
2,57,61,0
2,62,61,92
2,58,61,0
2,46,61,0
2,45,61,6
2,57,61,0
2,63,61,88
2,58,61,0
2,43,61,0
2,45,61,16
2,57,61,0
2,46,61,4
2,58,61,0
2,65,61,0
2,60,61,0
2,62,61,0
2,57,61,8
2,45,61,0
2,43,61,8
2,63,61,0
2,58,61,0
2,45,61,26
2,57,61,0
2,62,61,92
2,58,61,0
2,46,61,0
2,57,61,6
2,45,61,0
2,63,61,88
2,58,61,0
2,43,61,0
2,57,61,16
2,45,61,0
2,58,61,4
2,60,61,0
2,65,61,0
2,46,61,0
2,62,61,0
2,45,61,8
2,57,61,0
2,58,61,8
2,43,61,0
2,63,61,0
2,57,61,26
2,45,61,0
2,46,61,92
2,58,61,0
2,62,61,0
2,57,61,6
2,45,61,0
2,58,61,88
2,43,61,0
2,63,61,0
2,45,61,16
2,57,61,0
2,65,61,4
2,58,61,0
2,46,61,0
2,60,61,0
2,62,61,0
2,57,61,8
2,45,61,0
2,43,61,8
2,58,61,0
2,63,61,0
2,57,61,26
2,45,61,0
2,46,61,92
2,58,61,0
2,62,61,0
2,57,61,6
2,45,61,0
2,63,61,88
2,58,61,0
2,43,61,0
2,57,61,16
2,45,61,0
2,46,61,4
2,58,61,0
2,60,61,0
2,65,61,0
2,62,61,0
2,45,61,8
2,57,61,0
2,58,61,8
2,43,61,0
2,63,61,0
2,57,61,26
2,45,61,0
2,58,61,92
2,46,61,0
2,62,61,0
2,57,61,6
2,45,61,0
2,43,61,88
2,63,61,0
2,58,61,0
2,57,61,16
2,45,61,0
2,46,61,4
2,62,61,0
2,65,61,0
2,58,61,0
2,60,61,0
2,45,61,8
2,57,61,0
2,63,61,8
2,43,61,0
2,58,61,0
2,57,61,26
2,45,61,0
2,62,61,92
2,58,61,0
2,46,61,0
3,62,94,1266
3,53,80,368
3,65,88,380
3,67,89,524
3,65,95,202
3,67,92,374
3,60,94,0
3,67,70,400
3,60,66,252
3,67,67,204
3,60,66,252
3,67,66,272
3,60,62,400
3,67,61,322
3,62,91,102
3,53,91,370
3,65,94,368
3,67,94,2
3,65,89,210
3,67,88,364
3,60,92,362
3,67,80,388
3,60,73,324
3,67,69,284
3,60,68,364
3,67,67,350
3,60,65,340
3,67,62,368
3,62,101,3074
3,62,71,86
3,58,91,560
3,60,95,98
3,62,97,10
3,58,74,8
3,60,76,88
3,62,82,0
3,58,79,4
3,60,68,96
3,62,58,18
3,62,104,60
3,62,103,28
3,62,50,22
3,62,79,30
3,62,67,60
3,62,52,80
3,58,86,598
3,60,89,86
3,62,97,2
3,60,79,6
3,62,62,18
3,60,65,546
3,62,64,18
3,62,98,590
3,62,98,32
3,62,94,36
3,58,94,276
3,55,85,184
3,62,92,172
3,60,94,4
3,58,92,538
3,58,92,40
3,58,92,36
3,58,94,166
3,55,86,6
3,62,91,26
3,62,94,30
3,60,73,32
3,65,92,1098
3,65,95,126
3,65,91,30
3,65,92,44
3,65,101,32
3,65,89,18
3,63,95,44
3,62,97,36
3,60,76,16
3,58,95,180
3,58,89,24
3,58,95,10
3,60,95,204
3,62,94,2
3,60,98,12
3,62,91,386
3,65,97,2
3,62,89,2
3,58,89,34
3,60,86,12
3,62,100,40
3,60,88,8
3,60,98,52
3,58,94,20
3,58,97,44
3,62,106,194
3,53,98,2
3,65,98,6
3,67,98,16
3,65,100,12
3,67,97,8
3,60,100,4
3,62,94,594
3,60,83,54
3,58,94,16
3,53,100,2
3,65,95,194
3,62,98,180
3,62,77,14
3,60,95,88
3,58,95,22
3,60,100,196
3,62,94,12
3,60,88,6
3,65,97,6
3,65,101,80
3,62,95,16
3,65,100,184
3,62,98,12
3,65,97,18
3,62,98,16
3,62,101,28
3,60,94,6
3,58,100,34
3,62,97,160
3,65,97,4
3,62,103,0
3,60,94,304
3,58,97,16
3,55,91,4
3,53,91,30
3,58,88,680
3,60,88,86
3,62,101,18
3,60,83,26
3,60,94,52
3,58,89,18
3,58,91,20
3,58,94,588
3,60,94,82
3,62,97,6
3,63,98,18
3,62,95,34
3,58,86,22
3,60,92,14
3,58,92,180
3,60,94,34
3,62,95,14
3,60,100,186
3,57,98,0
3,58,92,22
3,55,82,208
3,57,77,70
3,58,89,36
3,60,91,6
3,55,83,20
3,53,73,38
3,58,89,588
3,60,91,78
3,62,95,28
3,60,91,0
3,60,94,32
3,58,92,6
3,58,92,30
3,65,101,180
3,62,91,14
3,65,104,26
3,62,92,28
3,58,83,14
3,60,91,18
3,58,83,80
3,60,76,10
3,62,97,184
3,63,98,178
3,62,100,2
3,60,88,22
3,58,94,2
3,65,88,156
3,62,86,4
3,65,94,16
3,62,92,184
3,60,77,18
3,58,88,182
3,60,88,92
3,58,86,68
3,60,85,80
3,62,94,12
3,63,91,28
3,62,92,20
3,60,86,8
3,62,106,182
3,58,86,12
3,53,98,2
3,65,98,6
3,67,98,16
3,65,100,12
3,67,97,8
3,60,100,4
3,62,94,594
3,60,83,54
3,58,94,16
3,53,100,2
3,65,95,194
3,62,98,180
3,62,77,14
3,60,95,88
3,58,95,22
3,60,100,196
3,62,94,12
3,60,88,6
3,65,97,6
3,65,101,80
3,62,95,16
3,65,100,184
3,62,98,12
3,65,97,18
3,62,98,16
3,62,101,28
3,60,94,6
3,58,100,34
3,62,97,160
3,65,97,4
3,62,103,0
3,60,94,304
3,58,97,16
3,55,91,4
3,53,91,30
3,65,100,608
3,70,97,20
3,70,92,64
3,70,82,24
3,70,97,24
3,67,95,14
3,65,95,10
3,58,97,202
3,60,91,12
3,62,97,6
3,65,98,190
3,65,104,26
3,65,98,4
3,65,100,30
3,62,88,20
3,65,95,18
3,65,94,32
3,62,91,8
3,65,94,34
3,62,92,8
3,62,91,12
3,60,88,80
3,58,86,10
3,60,86,6
3,62,97,184
3,60,98,2
3,65,95,204
3,65,94,28
3,65,92,202
3,65,80,42
3,70,97,36
3,70,97,36
3,70,98,76
3,70,97,30
3,67,91,22
3,65,88,30
3,62,89,198
3,65,92,4
3,60,85,10
3,62,89,10
3,62,85,26
3,60,89,90
3,58,88,8
3,58,92,22
3,55,86,86
3,53,88,14
3,62,106,17098
3,58,86,20
3,53,98,2
3,65,98,6
3,67,98,16
3,65,100,12
3,67,97,8
3,60,100,4
3,62,94,594
3,60,83,54
3,58,94,16
3,53,100,2
3,65,95,194
3,62,98,180
3,62,77,14
3,60,95,88
3,58,95,22
3,60,100,196
3,62,94,12
3,60,88,6
3,65,97,6
3,65,101,80
3,62,95,16
3,65,100,184
3,65,101,200
3,65,100,32
3,70,97,72
3,70,95,38
3,70,94,18
3,70,101,32
3,70,94,30
3,67,94,26
3,65,97,20
3,62,97,204
3,60,94,162
3,58,89,160
3,53,91,4
3,65,95,6
3,62,97,188
3,62,86,12
3,60,85,82
3,58,89,4
3,60,91,8
3,62,77,18
3,60,83,14
3,65,95,2
3,65,95,38
3,65,98,32
3,65,94,66
3,65,100,32
3,70,97,2
3,70,91,34
3,70,86,24
3,70,97,34
3,70,95,48
3,67,95,16
3,65,91,14
3,62,95,214
3,65,92,6
3,62,92,6
3,62,92,34
3,65,97,2
3,62,86,32
3,60,85,0
3,58,86,14
3,60,83,16
3,62,92,4
3,60,86,6
3,65,95,12
3,65,92,44
3,65,86,352
3,65,92,32
3,70,95,30
3,70,94,32
3,70,94,58
3,70,97,38
3,70,101,26
3,67,94,26
3,65,95,24
3,62,97,26
3,65,91,12
3,60,97,4
3,62,97,4
3,62,97,38
3,60,89,12
3,58,95,28
3,65,98,406
3,65,101,26
3,70,98,30
3,70,94,34
3,70,83,20
3,70,100,30
3,70,95,34
3,67,94,28
3,65,95,20
3,62,95,26
3,60,91,86
3,58,92,32
3,53,88,180
3,65,97,22
3,62,94,10
3,62,95,18
3,60,86,70
3,58,77,10
3,60,92,228
3,62,89,8
3,60,95,4
3,65,97,10
3,65,98,28
3,65,97,424
3,65,94,34
3,70,97,30
3,70,88,32
3,70,91,36
3,70,95,50
3,70,89,18
3,67,88,12
3,65,91,182
3,65,95,2
3,62,95,34
3,65,92,6
3,62,92,6
3,62,92,34
3,65,97,2
3,62,86,32
3,60,85,0
3,58,86,14
3,60,83,16
3,62,92,4
3,60,86,6
3,65,95,12
3,65,92,44
3,65,86,352
3,65,92,32
3,70,95,30
3,70,94,32
3,70,94,58
3,70,97,38
3,70,101,26
3,67,94,26
3,65,95,24
3,62,97,26
3,65,91,12
3,60,97,4
3,62,97,4
3,62,97,38
3,60,89,12
3,58,95,28
3,58,106,6
3,55,98,112
3,53,101,2
4,74,100,94
4,70,109,0
4,74,65,30
4,70,71,0
4,69,74,1498
4,72,76,2
4,70,71,10
4,67,73,6
4,69,80,720
4,72,82,0
4,70,76,6
4,74,79,4
4,75,74,1156
4,72,76,1552
4,69,71,10
4,74,64,32
4,70,64,0
4,72,64,1498
4,69,64,0
4,67,64,16
4,70,64,0
4,72,64,4
4,69,64,0
4,70,64,1536
4,74,64,0
4,69,64,1492
4,72,64,0
4,67,64,4
4,70,64,0
4,72,64,1536
4,69,64,0
4,74,64,40
4,72,64,1536
4,70,64,1508
4,72,64,1510
4,74,64,1534
4,72,64,1518
4,70,64,1502
4,72,64,1510
4,70,70,102
4,74,73,0
4,69,71,6
4,72,73,0
4,67,72,0
4,70,68,0
4,69,72,1524
4,72,73,0
4,74,71,1508
4,70,71,0
4,72,73,1484
4,69,70,0
4,70,70,1528
4,67,72,0
4,72,72,12
4,69,71,0
4,70,70,4
4,74,70,0
4,69,70,44
4,72,73,0
4,70,70,1536
4,67,71,0
4,72,72,1490
4,69,70,0
4,70,70,1520
4,69,67,1500
4,67,64,1524
4,65,64,1512
4,71,76,14
4,74,79,10
4,70,77,2
4,69,76,1402
4,72,77,2
4,70,71,1488
4,67,76,12
4,69,79,1500
4,72,71,8
4,74,73,1508
4,70,77,0
4,69,80,2
4,72,76,24
4,67,76,1482
4,70,73,18
4,72,77,1514
4,69,70,14
4,70,76,22
4,74,76,6
4,72,80,4
4,69,79,0
4,70,74,1494
4,67,74,4
4,69,58,1528
4,72,70,6
4,70,73,1506
4,74,70,0
4,69,70,4
4,72,80,0
4,70,74,1512
4,67,68,2
4,69,74,4
4,72,73,4
4,70,70,1530
4,74,61,6
4,69,67,1512
4,72,74,2
4,70,74,1524
4,67,70,4
4,72,67,8
4,69,64,4
4,70,70,1532
4,74,71,6
4,72,67,1470
4,69,58,2
4,70,71,1516
4,67,59,8
4,72,64,1516
4,69,71,2
4,70,62,1486
4,74,61,0
4,69,70,0
4,72,73,6
4,70,71,1520
4,67,65,2
4,72,68,4
4,69,74,0
4,70,68,1530
4,65,61,10
5,74,84,29734
5,75,84,2
5,77,97,2
5,70,71,2
5,69,72,2
5,70,80,2
5,72,84,2
5,77,105,2
6,65,72,39684
6,65,71,12288
6,65,71,0
6,65,71,12288
6,62,76,6143
6,60,76,400
6,63,76,400
6,60,75,400
6,65,71,0
6,65,71,12288
6,65,71,0
6,65,71,12287
7,79,63,26682
7,77,63,66
7,74,64,24
7,79,65,64
7,77,66,38
7,74,64,46
7,79,65,48
7,77,68,38
7,74,67,40
7,79,65,56
7,77,69,40
7,74,69,42
7,79,66,62
7,77,68,42
7,74,70,42
7,79,66,50
7,77,69,36
7,74,67,46
7,79,66,48
7,77,71,42
7,74,72,42
7,79,66,56
7,77,70,38
7,74,71,30
7,79,70,54
7,77,69,46
7,74,73,28
7,79,72,56
7,77,70,52
7,74,70,26
7,79,71,50
7,77,68,46
7,74,71,36
7,79,74,52
7,77,68,40
7,74,72,32
7,79,68,50
7,77,72,32
7,74,70,44
7,79,74,2
7,77,63,58
7,74,69,36
7,79,76,12
7,77,68,58
7,74,71,42
7,79,72,54
7,77,71,44
7,74,71,36
7,79,68,50
7,77,72,42
7,74,72,26
7,79,70,40
7,77,69,26
7,74,68,34
7,79,72,50
7,77,66,40
7,74,72,18
7,79,73,52
7,77,63,46
7,74,67,36
7,79,71,52
7,77,63,50
7,74,72,18
7,79,67,2
7,77,65,50
7,74,72,16
7,79,69,4
7,77,68,44
7,74,72,18
7,79,61,50
7,77,46,26
7,74,67,26
7,79,72,54
7,77,72,36
7,74,73,22
7,79,72,50
7,77,70,48
7,74,68,24
7,79,71,50
7,77,66,50
7,74,72,34
7,79,69,62
7,77,67,56
7,74,70,28
7,79,71,50
7,77,69,58
7,74,71,30
7,79,71,52
7,77,68,56
7,74,72,32
7,79,73,4
7,77,63,50
7,74,71,32
7,79,70,2
7,77,67,52
7,74,70,0
7,79,72,60
7,77,67,56
7,74,71,32
7,79,69,0
7,77,68,58
7,74,72,30
7,79,69,0
7,77,65,64
7,74,68,24
7,79,68,62
7,77,66,50
7,74,70,24
7,79,70,54
7,77,64,44
7,74,70,24
7,79,70,54
7,77,65,46
7,74,71,22
7,79,72,56
7,77,65,52
7,74,67,26
7,79,70,58
7,77,65,56
7,74,71,28
7,79,67,52
7,77,65,48
7,74,67,22
7,79,72,10
7,77,66,58
7,74,66,42
7,79,77,54
7,77,68,56
7,74,66,36
7,79,78,46
7,77,70,56
7,74,72,32
7,79,70,54
7,77,68,54
7,74,68,26
