track,note,velocity,time
1,37,47,0
1,37,45,2
1,37,53,2
1,37,60,2
1,33,39,2
1,37,60,2
1,33,60,2
1,35,60,2
1,37,60,2
1,37,58,2
1,33,37,2
1,37,58,2
1,33,58,2
1,37,58,2
1,33,58,2
1,37,58,2
1,42,63,2
1,37,63,2
1,33,63,2
1,44,63,2
1,32,63,2
1,37,60,2
1,33,39,2
1,37,60,2
1,33,60,2
1,35,60,2
1,37,60,2
1,37,57,2
1,37,57,2
1,37,57,2
1,37,57,2
1,37,57,2
1,37,57,2
1,37,57,2
2,49,38,0
2,52,38,0
2,56,43,0
2,57,43,2
2,56,43,2
2,57,43,2
2,49,38,2
2,52,38,0
2,56,43,0
2,57,43,2
2,56,43,2
2,57,43,2
2,49,43,2
2,52,43,0
2,56,43,0
2,57,43,2
2,56,43,10
2,57,43,2
2,49,51,2
2,52,51,0
2,56,51,0
2,57,51,2
2,56,51,2
2,61,43,0
2,63,48,0
2,49,55,2
2,52,55,0
2,56,55,0
2,57,55,2
2,51,55,2
2,54,55,0
2,59,55,0
2,52,55,2
2,56,55,0
2,61,55,0
2,49,49,2
2,52,49,0
2,56,49,0
2,57,49,2
2,56,49,2
2,57,49,2
2,56,49,2
2,57,49,2
2,56,49,2
2,57,50,2
2,61,50,0
2,68,50,0
2,66,50,4
2,56,50,4
2,64,50,4
2,57,50,1536
2,56,50,4
2,63,50,0
2,60,50,4
2,49,51,4
2,52,51,0
2,56,51,0
2,57,51,2
2,56,51,2
2,61,43,0
2,63,48,0
2,49,55,2
2,52,55,0
2,56,55,0
2,57,55,2
2,51,55,2
2,54,55,0
2,59,55,0
2,52,55,2
2,56,55,0
2,61,55,0
2,52,48,2
2,56,48,0
2,61,48,0
2,52,48,2
2,56,48,0
2,61,48,0
2,52,48,2
2,56,48,0
2,61,48,0
2,52,48,2
2,56,48,0
2,61,48,0
2,52,48,0
2,56,48,0
2,61,48,0
2,52,48,2
2,56,48,0
2,61,48,0
2,52,48,2
2,56,48,0
2,61,48,0
3,68,80,88
3,73,98,4
3,70,68,2
3,73,93,2
3,71,107,474
3,73,98,26
3,76,93,2
3,78,85,4
3,76,76,2
3,64,80,24
3,66,89,2
3,68,94,192
3,71,96,2
3,73,101,26
3,64,71,2
3,66,86,6
3,68,86,4
3,66,81,48
3,68,84,2
3,66,94,6
3,73,96,16
3,71,83,2
3,59,90,2
3,63,73,96
3,61,73,68
3,63,83,1976
3,61,71,90
3,63,77,1922
3,61,73,106
3,63,73,1944
3,63,76,64
3,68,80,88
3,73,98,554
3,70,68,2
3,73,93,2
3,71,107,474
3,73,98,26
3,76,93,2
3,78,85,4
3,76,76,2
3,64,80,24
3,66,89,2
3,68,94,192
3,71,96,2
3,73,101,26
3,64,71,2
3,66,86,6
3,68,86,4
3,66,81,48
3,68,84,2
3,66,94,6
3,73,96,16
3,71,83,2
3,59,90,2
3,63,78,96
3,61,74,68
3,63,70,1976
3,61,66,90
3,63,62,1922
3,61,58,106
3,63,54,1944
3,61,50,64
3,63,46,1982
3,61,42,90
3,63,38,1922
3,61,34,106
3,63,30,1944
3,61,26,64
4,66,88,55922
4,68,99,54
4,73,84,972
4,68,93,130
4,68,77,988
4,71,99,60
4,68,95,14
4,66,83,10
4,66,95,44
4,68,91,50
4,64,80,14
4,66,87,0
4,61,87,16
4,71,72,336
4,73,107,42
4,78,93,756
4,73,91,102
4,75,60,562
4,76,99,2
4,75,87,336
4,71,59,406
4,73,66,20
4,71,87,124
4,66,60,326
4,68,77,36
4,66,74,60
4,69,53,164
4,71,79,28
4,66,74,148
4,68,84,38
4,68,76,212
4,73,99,40
4,75,94,18
4,80,100,768
4,75,102,110
4,73,90,186
4,76,59,158
4,78,97,2
4,74,81,328
4,76,84,48
4,73,85,304
4,75,72,28
4,73,92,164
4,71,92,18
4,71,79,190
4,73,90,26
4,66,67,6
4,68,67,26
4,66,76,186
4,68,88,158
4,61,95,272
4,63,71,8
4,64,107,4
4,66,76,1230
4,68,97,14
4,64,91,74
4,66,92,12
4,64,94,386
4,59,89,0
4,61,83,34
4,59,85,176
4,59,93,78
4,61,79,58
5,64,85,2
5,64,73,10
5,70,59,2
5,71,60,4
5,70,59,6
5,71,58,8
5,70,60,6
5,71,66,4
5,70,75,6
5,71,69,6
5,70,73,8
5,71,72,6
5,70,82,6
5,71,63,4
5,68,69,8
5,68,70,10
5,70,59,2
5,71,60,6
5,70,62,6
5,71,61,6
5,70,70,4
5,71,74,8
5,70,71,6
5,71,72,4
5,70,74,8
5,71,79,4
5,70,80,6
5,71,66,8
5,68,61,4
5,64,88,2
5,64,73,28
5,70,56,4
5,71,59,6
5,70,60,6
5,71,61,6
5,70,60,6
5,71,71,6
5,70,74,6
5,71,72,4
5,70,73,8
5,71,70,6
5,70,84,6
5,71,57,4
5,68,64,6
5,68,66,10
5,70,59,2
5,71,65,6
5,70,65,6
5,71,65,6
5,70,68,6
5,71,68,8
5,70,73,4
5,71,71,8
5,70,75,6
5,71,77,4
5,70,81,6
5,71,62,6
5,68,59,6
5,64,85,2
5,64,79,28
5,70,61,4
5,71,60,4
5,70,56,8
5,71,61,4
5,70,62,8
5,71,72,6
5,70,74,4
5,71,73,6
5,70,73,6
5,71,71,6
5,70,78,8
5,71,63,6
5,68,66,4
5,68,66,10
5,70,59,2
5,71,65,6
5,70,63,6
5,71,65,6
5,70,65,8
5,71,69,6
5,70,68,6
5,71,71,4
5,70,76,6
5,71,74,8
5,70,75,4
5,71,68,8
5,68,58,4
5,64,107,2
5,64,95,30
5,70,81,2
5,71,82,4
5,70,81,6
5,71,80,8
5,70,82,6
5,71,88,4
5,70,97,6
5,71,91,6
5,70,95,8
5,71,94,6
5,70,104,6
5,71,85,4
5,68,91,8
5,68,92,10
5,70,81,2
5,71,82,6
5,70,84,6
5,71,83,6
5,70,92,4
5,71,96,8
5,70,93,6
5,71,94,4
5,70,96,8
5,71,101,4
5,70,102,6
5,71,88,8
5,68,83,4
5,64,107,2
5,64,95,30
5,70,81,2
5,71,82,4
5,70,81,6
5,71,80,8
5,70,82,6
5,71,88,4
5,70,97,6
5,71,91,6
5,70,95,8
5,71,94,6
5,70,104,6
5,71,85,4
5,68,91,8
5,68,92,10
5,70,81,2
5,71,82,6
5,70,84,6
5,71,83,6
5,70,92,4
5,71,96,8
5,70,93,6
5,71,94,4
5,70,96,8
5,71,101,4
5,70,102,6
5,71,88,8
5,68,83,4
6,50,82,22066
6,50,66,1154
6,50,82,2
6,50,66,1154
6,50,82,2
6,50,66,1154
6,50,82,2
6,50,66,1154
6,50,82,2
6,50,66,1154
6,50,82,2
6,50,66,1154
6,50,82,2
6,50,66,1154
6,50,84,2
6,50,68,1154
6,50,84,2
6,50,68,1154
6,50,84,2
6,50,68,1154
6,50,84,2
6,50,68,1154
6,50,84,2
6,50,68,1154
6,50,84,2
6,50,68,1154
6,50,84,2
6,50,68,1154
6,50,84,2
6,50,68,1154
6,50,84,2
6,50,68,1154
6,50,84,2
6,50,68,1154
6,50,84,2
6,50,68,1154
6,50,84,2
6,50,68,1154
6,50,84,2
6,50,68,1154
6,50,84,2
6,50,68,1154
6,50,84,2
6,50,68,1154
6,50,82,2
6,50,66,1154
6,50,82,2
6,50,66,1154
6,50,82,2
6,50,66,1154
6,50,82,2
6,50,66,1154
6,50,82,2
6,50,66,1154
6,50,82,2
6,50,66,1154
6,50,82,2
6,50,66,1154
6,50,82,2
6,50,66,1154
6,50,82,2
6,50,66,1154
6,50,82,2
6,50,66,1154
6,50,82,2
6,50,66,1154
6,50,82,2
6,50,66,1154
6,50,82,2
6,50,66,1154
6,50,82,2
6,50,66,1154
6,50,82,2
6,50,66,1154
6,50,82,2
6,50,66,1154
6,50,80,2
6,50,64,1154
6,50,80,2
6,50,64,1154
6,50,80,2
6,50,64,1154
6,50,80,2
6,50,64,1154
6,50,80,2
6,50,64,1154
6,50,80,2
6,50,64,1154
6,50,80,2
6,50,64,1154
6,50,80,2
6,50,84,1346
6,50,68,1154
6,50,84,2
6,50,68,1154
6,50,84,2
6,50,68,1154
6,50,84,2
6,50,68,1154
6,50,84,2
6,50,68,1154
6,50,84,2
6,50,68,1154
6,50,84,2
6,50,68,1154
6,50,84,2
6,50,68,1154
6,50,84,2
6,50,68,1154
6,50,84,2
6,50,68,1154
6,50,84,2
6,50,68,1154
6,50,84,2
6,50,68,1154
6,50,84,2
6,50,68,1154
6,50,84,2
6,50,68,1154
6,50,84,2
6,50,68,1154
6,50,82,2
6,50,66,1154
6,50,82,2
6,50,66,1154
6,50,82,2
6,50,66,1154
6,50,82,2
6,50,66,1154
6,50,82,2
6,50,66,1154
6,50,82,2
6,50,66,1154
6,50,82,2
6,50,66,1154
6,50,82,2
6,50,66,1154
6,50,82,2
6,50,66,1154
6,50,82,2
6,50,66,1154
6,50,82,2
6,50,66,1154
6,50,82,2
6,50,66,1154
6,50,82,2
6,50,66,1154
6,50,82,2
7,102,82,80906
7,101,81,34
7,100,80,34
7,99,79,34
7,98,78,34
7,97,77,34
7,96,76,34
7,102,70,12
7,95,75,22
7,101,69,12
7,94,74,10
7,100,68,12
7,93,73,22
7,99,67,12
7,92,72,22
7,98,66,12
7,91,71,22
7,97,65,12
7,90,70,10
7,96,64,12
7,89,69,22
7,95,63,12
7,88,68,22
7,94,62,12
7,87,67,22
7,93,61,12
7,86,66,10
7,92,60,12
7,85,65,22
7,91,59,12
7,84,64,22
7,90,58,12
7,83,63,0
7,89,57,10
7,82,62,0
7,88,56,10
7,81,61,0
7,87,55,10
7,80,60,0
7,86,54,10
7,79,59,2
7,85,53,8
7,78,58,2
7,84,52,8
7,77,57,2
7,83,51,10
7,76,56,0
7,82,50,10
7,75,55,2
7,81,49,8
7,74,54,4
7,80,48,6
7,73,53,6
7,79,47,6
7,72,52,6
7,78,46,4
7,71,51,8
7,77,45,2
7,70,50,10
7,76,44,0
7,69,49,12
7,75,43,0
7,68,48,12
7,74,42,0
7,67,47,12
7,73,41,0
7,66,46,14
7,72,40,22
7,65,45,16
7,71,39,20
7,64,44,16
7,70,38,20
7,63,43,4
7,62,42,38
7,61,41,36
7,60,40,36
7,59,39,38
7,58,38,38
7,57,37,38
7,56,36,38
7,55,35,38
7,54,34,48
7,102,82,852
7,101,81,40
7,100,80,40
7,99,79,40
7,98,78,40
7,97,77,40
7,96,76,40
7,102,70,18
7,95,75,26
7,101,69,16
7,94,74,14
7,100,68,16
7,93,73,26
7,99,67,16
7,92,72,26
7,98,66,16
7,91,71,26
7,97,65,16
7,90,70,14
7,96,64,16
7,89,69,26
7,95,63,16
7,88,68,26
7,94,62,16
7,87,67,26
7,93,61,16
7,86,66,14
7,92,60,16
7,85,65,26
7,91,59,16
7,84,64,26
7,90,58,16
7,83,63,0
7,89,57,14
7,82,62,0
7,88,56,14
7,81,61,0
7,87,55,14
7,80,60,0
7,86,54,14
7,79,59,6
7,85,53,12
7,78,58,6
7,84,52,12
7,77,57,6
7,83,51,14
7,76,56,0
7,82,50,14
7,75,55,6
7,81,49,12
7,74,54,8
7,80,48,10
7,73,53,10
7,79,47,10
7,72,52,10
7,78,46,8
7,71,51,12
7,77,45,6
7,70,50,14
7,76,44,4
7,69,49,16
7,75,43,4
7,68,48,16
7,74,42,4
7,67,47,16
7,73,41,4
7,66,46,18
7,72,40,26
7,65,45,20
7,71,39,26
7,64,44,20
7,70,38,24
7,63,43,8
7,62,42,42
7,61,41,42
7,60,40,42
7,59,39,44
7,58,38,44
7,57,37,44
7,56,36,44
7,55,35,44
7,54,34,58
7,102,82,28966
7,101,81,34
7,100,80,34
7,99,79,34
7,98,78,34
7,97,77,34
7,96,76,34
7,102,70,12
7,95,75,22
7,101,69,12
7,94,74,10
7,100,68,12
7,93,73,22
7,99,67,12
7,92,72,22
7,98,66,12
7,91,71,22
7,97,65,12
7,90,70,10
7,96,64,12
7,89,69,22
7,95,63,12
7,88,68,22
7,94,62,12
7,87,67,22
7,93,61,12
7,86,66,10
7,92,60,12
7,85,65,22
7,91,59,12
7,84,64,22
7,90,58,12
7,83,63,0
7,89,57,10
7,82,62,0
7,88,56,10
7,81,61,0
7,87,55,10
7,80,60,0
7,86,54,10
7,79,59,2
7,85,53,8
7,78,58,2
7,84,52,8
7,77,57,2
7,83,51,10
7,76,56,0
7,82,50,10
7,75,55,2
7,81,49,8
7,74,54,4
7,80,48,6
7,73,53,6
7,79,47,6
7,72,52,6
7,78,46,4
7,71,51,8
7,77,45,2
7,70,50,10
7,76,44,0
7,69,49,12
7,75,43,0
7,68,48,12
7,74,42,0
7,67,47,12
7,73,41,0
7,66,46,14
7,72,40,22
7,65,45,16
7,71,39,20
7,64,44,16
7,70,38,20
7,63,43,4
7,62,42,38
7,61,41,36
7,60,40,36
7,59,39,38
7,58,38,38
7,57,37,38
7,56,36,38
7,55,35,38
7,54,34,48
7,102,82,8532
7,101,81,40
7,100,80,40
7,99,79,40
7,98,78,40
7,97,77,40
7,96,76,40
7,102,70,18
7,95,75,26
7,101,69,16
7,94,74,14
7,100,68,16
7,93,73,26
7,99,67,16
7,92,72,26
7,98,66,16
7,91,71,26
7,97,65,16
7,90,70,14
7,96,64,16
7,89,69,26
7,95,63,16
7,88,68,26
7,94,62,16
7,87,67,26
7,93,61,16
7,86,66,14
7,92,60,16
7,85,65,26
7,91,59,16
7,84,64,26
7,90,58,16
7,83,63,0
7,89,57,14
7,82,62,0
7,88,56,14
7,81,61,0
7,87,55,14
7,80,60,0
7,86,54,14
7,79,59,6
7,85,53,12
7,78,58,6
7,84,52,12
7,77,57,6
7,83,51,14
7,76,56,0
7,82,50,14
7,75,55,6
7,81,49,12
7,74,54,8
7,80,48,10
7,73,53,10
7,79,47,10
7,72,52,10
7,78,46,8
7,71,51,12
7,77,45,6
7,70,50,14
7,76,44,4
7,69,49,16
7,75,43,4
7,68,48,16
7,74,42,4
7,67,47,16
7,73,41,4
7,66,46,18
7,72,40,26
7,65,45,20
7,71,39,26
7,64,44,20
7,70,38,24
7,63,43,8
7,62,42,42
7,61,41,42
7,60,40,42
7,59,39,44
7,58,38,44
7,57,37,44
7,56,36,44
7,55,35,44
7,54,34,58
8,49,88,24
8,76,88,0
8,81,88,0
8,80,40,0
8,49,88,2
8,76,88,0
8,81,88,0
8,80,40,0
8,49,88,2
8,76,88,0
8,81,88,0
8,80,40,0
8,37,90,2
8,64,90,0
8,68,90,0
8,37,90,2
8,64,90,0
8,69,90,0
8,37,90,2
8,64,90,0
8,68,90,0
8,37,90,2
8,64,90,0
8,69,90,0
8,37,94,2
8,64,94,0
8,68,94,0
8,37,94,2
8,64,94,0
8,68,94,0
8,33,94,2
8,64,94,0
8,69,94,0
8,37,94,2
8,64,94,0
8,75,94,0
8,37,94,2
8,64,94,0
8,68,94,0
8,33,94,2
8,64,94,0
8,69,94,0
8,35,94,2
8,66,94,0
8,71,94,0
8,37,94,2
8,64,94,0
8,68,94,0
8,37,92,2
8,64,92,0
8,68,92,0
8,37,92,2
8,64,92,0
8,68,92,0
8,33,92,2
8,64,92,0
8,69,92,0
8,37,92,2
8,64,92,0
8,68,92,0
8,33,92,2
8,64,92,0
8,69,92,0
8,37,92,2
8,64,92,0
8,68,92,0
8,33,92,2
8,64,92,0
8,69,92,0
8,37,92,2
8,64,92,0
8,68,92,0
8,37,94,2
8,64,94,0
8,68,94,0
8,37,94,2
8,64,94,0
8,68,94,0
8,33,94,2
8,64,94,0
8,69,94,0
8,37,94,2
8,64,94,0
8,75,94,0
8,37,94,2
8,64,94,0
8,68,94,0
8,37,94,2
8,64,94,0
8,68,94,0
8,33,94,2
8,64,94,0
8,69,94,0
8,37,94,2
8,64,94,0
8,75,94,0
8,37,94,2
8,64,94,0
8,68,94,0
8,33,94,2
8,64,94,0
8,69,94,0
8,35,94,2
8,66,94,0
8,71,94,0
8,37,94,2
8,64,94,0
8,68,94,0
9,44,105,0
9,81,59,0
9,42,50,88
9,80,52,0
9,42,66,24
9,80,60,0
9,42,48,88
9,80,48,0
9,83,9,0
9,44,105,20
9,81,59,0
9,83,22,0
9,42,50,88
9,80,52,0
