track,note,velocity,time
1,105,107,0
1,76,107,0
1,72,107,0
1,93,107,0
1,81,107,0
1,69,107,0
1,100,107,0
1,96,107,0
1,69,107,0
1,81,107,0
1,93,107,0
1,105,107,0
1,104,107,0
1,92,107,0
1,80,107,0
1,68,107,0
1,100,107,0
1,95,107,0
1,92,107,0
1,88,107,0
1,76,107,0
1,71,107,0
1,68,107,0
1,64,107,0
1,100,107,0
1,88,107,0
1,64,107,0
1,76,107,0
1,96,107,0
1,84,107,0
1,72,107,0
1,60,107,0
1,93,107,0
1,88,107,0
1,84,107,0
1,81,107,0
1,69,107,0
1,64,107,0
1,60,107,0
1,57,107,0
1,93,107,16
1,81,107,0
1,69,107,0
1,57,107,0
1,92,107,0
1,80,107,0
1,68,107,0
1,56,107,0
1,88,107,0
1,83,107,0
1,80,107,0
1,76,107,0
1,64,107,0
1,59,107,0
1,56,107,0
1,52,107,0
1,76,107,16
1,88,107,0
1,64,107,0
1,52,107,0
1,84,107,0
1,72,107,0
1,60,107,0
1,48,107,0
1,81,107,0
1,76,107,0
1,69,107,0
1,72,107,0
1,57,107,0
1,48,107,0
1,45,107,0
1,52,107,0
1,81,107,0
1,69,107,0
1,57,107,0
1,45,107,0
1,80,107,0
1,68,107,0
1,56,107,0
1,44,107,0
1,47,107,16
1,76,107,0
1,71,107,0
1,64,107,0
1,68,107,0
1,52,107,0
1,40,107,0
1,44,107,0
1,76,110,0
1,64,110,0
1,40,107,0
1,52,107,0
1,72,110,0
1,60,110,0
1,48,107,0
1,36,107,0
1,69,111,16
1,57,111,0
1,45,107,0
1,33,107,0
1,21,108,0
1,33,107,0
1,40,105,32
1,45,105,0
1,48,104,0
1,52,103,0
1,57,102,0
1,60,101,32
1,45,100,48
1,48,100,16
1,52,100,16
1,57,100,48
1,60,100,64
1,64,100,16
1,69,100,0
1,72,100,48
1,57,100,64
1,60,100,16
1,64,100,0
1,69,100,32
1,72,100,48
1,76,100,32
1,81,100,64
1,84,100,16
1,69,100,0
1,72,101,0
1,76,102,0
1,81,103,0
1,84,104,0
1,88,105,32
1,93,107,0
1,96,108,32
1,53,111,176
1,41,107,0
1,29,107,0
1,69,111,0
1,62,111,0
1,57,111,0
1,53,107,0
1,50,107,0
1,45,107,0
1,41,107,0
1,81,111,0
1,74,111,0
1,69,111,0
1,65,107,0
1,62,107,0
1,57,107,0
1,53,107,0
1,56,115,0
1,44,107,0
1,32,107,0
1,71,111,0
1,64,111,0
1,59,111,0
1,56,107,0
1,52,107,0
1,47,107,0
1,44,107,0
1,83,115,16
1,76,115,0
1,71,114,0
1,68,107,0
1,64,107,0
1,59,107,0
1,56,107,0
1,52,81,18720
1,45,81,0
1,76,91,0
1,72,91,0
1,69,91,0
1,64,91,0
1,60,91,0
1,57,91,0
1,77,89,16
1,74,87,0
1,69,86,0
1,65,81,0
1,62,85,0
1,57,80,0
1,79,88,16
1,74,82,0
1,71,82,0
1,69,84,0
1,67,84,0
1,64,85,0
1,59,85,0
1,57,84,0
1,77,89,32
1,74,89,0
1,69,86,0
1,65,83,0
1,62,86,0
1,57,86,0
1,76,83,128
1,72,73,0
1,69,79,0
1,64,82,0
1,60,80,0
1,57,84,0
1,52,74,384
1,45,75,0
1,76,84,0
1,72,77,0
1,69,81,0
1,64,85,0
1,60,82,0
1,57,89,0
1,77,88,16
1,74,90,0
1,69,86,0
1,65,81,0
1,62,84,0
1,57,85,0
1,77,88,32
1,74,91,0
1,69,92,0
1,65,86,0
1,62,89,0
1,57,83,0
1,79,91,128
1,74,83,0
1,71,86,0
1,69,84,0
1,67,84,0
1,62,76,0
1,59,86,0
1,57,84,0
1,76,82,128
1,72,71,0
1,69,83,0
1,64,85,0
1,60,84,0
1,57,86,0
1,55,83,48
1,48,83,0
1,79,86,16
1,76,86,0
1,72,86,0
1,67,86,0
1,64,81,0
1,60,81,0
1,81,88,16
1,77,92,0
1,72,88,0
1,69,89,0
1,65,86,0
1,60,83,0
1,83,88,16
1,77,90,0
1,74,87,0
1,72,89,0
1,71,84,0
1,65,86,0
1,62,84,0
1,60,85,0
1,81,88,32
1,77,88,0
1,72,89,0
1,69,92,0
1,60,83,0
1,79,79,128
1,76,83,0
1,72,81,0
1,67,88,0
1,64,83,0
1,60,86,0
1,55,81,384
1,48,80,0
1,79,82,0
1,72,82,0
1,76,84,0
1,64,78,0
1,67,85,0
1,60,82,0
1,81,86,240
1,77,89,0
1,72,84,0
1,69,85,0
1,65,85,0
1,60,82,0
1,77,90,32
1,81,84,0
1,65,83,0
1,60,83,0
1,69,85,0
1,72,90,0
1,83,89,144
1,77,89,0
1,74,86,0
1,72,86,0
1,71,88,0
1,65,86,0
1,62,86,0
1,60,86,0
1,79,80,144
1,72,81,0
1,76,82,0
1,60,86,0
1,64,83,0
1,67,84,0
1,40,90,0
1,64,96,16
1,47,89,64
1,52,90,80
1,56,89,16
1,62,90,32
1,38,90,16
1,65,100,0
1,47,90,0
1,53,90,16
1,57,90,16
1,62,90,32
1,32,90,0
1,71,101,32
1,44,90,0
1,50,90,16
1,53,90,48
1,59,90,0
1,62,90,0
1,65,90,0
1,62,90,0
1,59,90,48
1,53,90,48
1,50,90,32
1,44,90,0
1,69,102,0
1,45,90,0
1,52,89,0
1,57,90,16
1,61,89,32
1,67,90,16
1,43,90,0
1,70,106,0
1,52,90,0
1,58,90,16
1,62,90,32
1,67,90,16
1,76,107,0
1,37,90,0
1,49,90,0
1,55,90,0
1,58,90,0
1,64,90,32
1,67,90,0
1,70,90,0
1,67,90,0
1,64,90,0
1,58,90,48
1,55,90,64
1,49,90,48
1,50,90,0
1,74,98,0
1,77,102,0
1,57,89,64
1,62,90,16
1,65,89,16
1,69,90,32
1,45,90,0
1,76,93,0
1,72,88,16
1,53,90,0
1,60,90,32
1,65,90,32
1,69,90,16
1,38,85,16
1,65,85,0
1,69,93,0
1,45,85,0
1,50,85,80
1,71,90,16
1,53,85,32
1,57,85,0
1,72,94,16
1,59,85,16
1,62,83,0
1,71,93,16
1,59,83,32
1,57,83,64
1,74,90,0
1,53,83,16
1,42,83,64
1,68,94,16
1,48,83,0
1,51,83,32
1,56,83,0
1,60,83,16
1,63,83,16
1,69,94,0
1,41,83,0
1,47,83,16
1,51,83,16
1,57,83,32
1,59,83,16
1,63,83,32
1,40,83,32
1,72,99,0
1,52,83,0
1,54,83,0
1,60,83,0
1,63,83,32
1,66,83,32
1,40,83,32
1,71,86,16
1,52,83,0
1,56,83,16
1,59,83,48
1,64,83,0
1,68,83,16
1,76,98,0
1,64,86,0
1,52,88,0
1,59,91,0
1,64,91,48
1,68,95,32
1,74,95,0
1,50,98,80
1,77,103,0
1,65,105,0
1,59,98,0
1,65,105,32
1,69,98,0
1,74,98,32
1,71,104,64
1,83,103,0
1,44,103,0
1,56,103,0
1,62,103,32
1,65,103,32
1,71,103,16
1,74,103,16
1,77,103,16
1,74,103,0
1,71,103,0
1,65,103,64
1,62,103,64
1,56,103,32
1,81,108,0
1,69,107,0
1,57,101,0
1,64,101,0
1,69,101,0
1,73,101,32
1,79,101,64
1,70,104,48
1,82,108,0
1,55,103,32
1,64,103,48
1,70,103,48
1,74,103,48
1,79,103,48
1,88,106,16
1,76,108,0
1,49,103,0
1,61,103,32
1,67,105,0
1,70,105,16
1,76,105,16
1,79,105,16
1,82,105,16
1,79,103,0
1,76,103,32
1,70,103,48
1,67,101,32
1,64,101,16
1,89,104,0
1,86,102,0
1,62,95,0
1,69,88,32
1,74,86,48
1,77,86,64
1,81,86,64
1,88,100,48
1,57,86,0
1,84,96,0
1,65,86,0
1,72,83,48
1,77,83,48
1,81,83,32
1,50,82,0
1,81,101,0
1,77,98,0
1,57,82,0
1,62,82,64
1,83,97,0
1,65,82,16
1,69,82,16
1,84,95,16
1,71,82,16
1,83,96,32
1,74,82,0
1,71,82,32
1,86,97,32
1,69,82,0
1,65,82,16
1,54,82,16
1,60,82,0
1,80,102,0
1,68,89,0
1,72,91,0
1,75,98,0
1,63,82,0
1,69,97,0
1,60,94,16
1,41,82,0
1,53,82,0
1,63,93,0
1,72,97,0
1,69,96,0
1,64,92,0
1,52,82,0
1,40,82,0
1,59,95,272
1,68,97,0
1,52,82,0
1,62,92,0
1,40,82,0
1,89,81,0
1,84,81,0
1,88,86,48
1,81,86,0
1,45,82,16
1,51,82,0
1,84,86,64
1,77,86,0
1,81,86,0
1,76,86,0
1,60,82,0
1,52,82,0
1,84,86,48
1,83,86,64
1,57,82,0
1,62,82,0
1,54,82,0
1,80,86,80
1,76,86,48
1,64,82,0
1,59,82,0
1,56,82,0
1,72,86,0
1,77,86,0
1,76,86,48
1,69,86,0
1,51,82,0
1,45,82,0
1,65,86,80
1,72,86,0
1,69,86,0
1,64,86,0
1,60,82,0
1,52,82,0
1,72,86,64
1,71,86,48
1,62,82,0
1,54,82,0
1,57,82,0
1,68,86,64
1,64,86,48
1,56,82,0
1,59,82,0
1,60,86,0
1,65,86,0
1,51,82,0
1,45,82,0
1,63,86,64
1,64,86,64
1,60,82,0
1,52,82,0
1,68,86,64
1,69,86,0
1,60,82,0
1,57,82,0
1,64,86,48
1,71,86,0
1,69,86,48
1,72,86,0
1,60,82,16
1,57,82,0
1,56,82,0
1,75,90,64
1,69,90,0
1,76,90,0
1,72,90,0
1,60,82,0
1,57,82,0
1,55,82,0
1,72,90,64
1,80,90,0
1,81,90,48
1,76,90,0
1,54,82,0
1,60,82,0
1,57,82,0
1,83,93,64
1,76,93,0
1,81,93,0
1,84,93,0
1,60,82,0
1,57,82,0
1,53,82,0
1,81,93,64
1,87,93,0
1,84,93,48
1,88,93,0
1,52,82,0
1,60,82,0
1,57,82,0
1,40,102,112
1,52,102,0
1,89,101,192
1,88,96,0
1,96,93,48
1,84,96,0
1,100,97,80
1,77,96,0
1,83,102,0
1,86,102,0
1,98,101,0
1,95,101,0
1,86,101,64
1,84,96,0
1,93,93,64
1,81,96,0
1,96,97,48
1,74,96,16
1,80,102,64
1,83,102,0
1,95,101,0
1,92,101,0
1,83,101,64
1,81,96,0
1,89,93,64
1,77,96,0
1,93,97,64
1,71,96,0
1,76,102,64
1,80,102,0
1,92,101,0
1,88,101,0
1,80,100,64
1,79,96,0
1,88,93,48
1,76,96,0
1,91,97,64
1,68,96,32
1,74,102,48
1,77,102,0
1,89,101,0
1,86,101,0
1,77,101,16
1,76,96,0
1,84,93,64
1,72,96,0
1,88,97,64
1,65,96,0
1,86,101,80
1,83,101,0
1,74,102,0
1,71,102,0
1,74,101,16
1,72,96,0
1,81,93,48
1,69,96,0
1,84,97,80
1,62,96,0
1,83,101,80
1,80,101,0
1,71,102,0
1,68,102,0
1,71,101,16
1,69,96,0
1,77,93,64
1,65,96,0
1,81,97,64
1,59,96,0
1,80,101,80
1,76,101,0
1,68,102,16
1,64,102,0
1,76,101,0
1,88,101,0
1,40,102,0
1,52,102,0
1,89,82,32
1,84,81,0
1,88,86,32
1,81,86,0
1,45,82,0
1,51,82,0
1,84,86,16
1,77,86,0
1,81,86,48
1,76,86,0
1,60,82,0
1,52,82,0
1,84,86,64
1,83,86,48
1,57,82,0
1,62,82,0
1,54,82,0
1,80,86,64
1,76,86,48
1,64,82,0
1,59,82,0
1,56,82,0
1,72,86,0
1,77,86,0
1,76,86,48
1,69,86,0
1,51,82,0
1,45,82,0
1,65,86,48
1,72,86,0
1,69,86,48
1,64,86,0
1,60,82,0
1,52,82,0
1,72,86,48
1,71,86,64
1,62,82,0
1,54,82,0
1,57,82,0
1,68,86,48
1,64,86,48
1,56,82,16
1,59,82,0
1,60,86,0
1,65,86,64
1,51,82,16
1,45,82,0
1,63,86,48
1,64,86,64
1,60,82,0
1,52,82,0
1,68,86,48
1,69,86,64
1,57,82,0
1,60,82,0
1,64,88,48
1,71,88,0
1,72,88,64
1,69,88,0
1,57,85,0
1,56,85,0
1,60,85,0
1,69,88,48
1,74,88,32
1,75,88,32
1,72,88,16
1,57,87,0
1,60,87,0
1,55,87,0
1,80,91,64
1,72,91,0
1,81,91,32
1,75,91,16
1,57,90,0
1,60,90,0
1,54,90,0
1,75,91,64
1,83,91,0
1,84,91,0
1,81,91,0
1,57,92,0
1,53,92,0
1,60,92,0
1,79,93,64
1,86,93,0
1,84,93,0
1,87,93,0
1,55,95,0
1,60,95,0
1,51,95,0
1,91,93,64
1,81,93,0
1,86,99,64
1,90,101,0
1,50,100,0
1,38,100,0
1,87,103,16
1,86,95,0
1,94,94,80
1,82,95,0
1,98,98,64
1,75,95,0
1,81,100,0
1,84,100,0
1,96,103,0
1,93,103,0
1,84,103,32
1,82,95,0
1,91,94,64
1,79,95,0
1,94,98,48
1,72,95,32
1,81,100,48
1,78,100,0
1,90,103,0
1,93,103,0
1,81,103,32
1,79,95,0
1,87,94,64
1,75,95,0
1,91,98,64
1,69,95,0
1,74,100,64
1,78,100,0
1,90,103,0
1,86,103,0
1,78,102,16
1,77,95,0
1,86,94,64
1,74,95,0
1,89,98,64
1,66,95,0
1,84,103,80
1,87,103,0
1,72,100,0
1,75,100,0
1,75,103,16
1,74,95,0
1,82,94,64
1,70,95,0
1,86,98,64
1,63,95,0
1,69,100,80
1,72,100,0
1,81,103,0
1,84,103,0
1,72,103,32
1,70,95,0
1,79,94,48
1,67,95,16
1,82,98,64
1,60,95,0
1,66,100,64
1,69,100,0
1,81,103,0
1,78,103,0
1,69,103,32
1,67,95,0
1,75,94,64
1,63,95,0
1,79,98,64
1,57,95,0
1,62,100,64
1,66,100,0
1,78,103,0
1,74,103,0
1,86,105,16
1,74,105,0
1,87,96,96
1,86,88,0
1,55,82,0
1,61,82,0
1,84,88,64
1,82,88,48
1,86,96,0
1,82,82,0
1,62,82,0
1,70,82,0
1,81,88,32
1,79,88,0
1,82,81,32
1,81,86,32
1,72,82,0
1,67,82,0
1,64,82,0
1,78,86,0
1,74,86,48
1,72,82,0
1,66,82,0
1,69,82,0
1,78,86,48
1,75,86,0
1,79,86,0
1,76,86,0
1,55,82,0
1,82,91,64
1,79,91,0
1,86,96,48
1,76,96,0
1,70,92,0
1,62,92,0
1,64,92,0
1,78,86,64
1,75,86,0
1,79,86,64
1,76,86,0
1,55,82,0
1,82,91,80
1,79,91,0
1,86,96,48
1,76,96,0
1,70,92,0
1,64,92,0
1,62,92,0
1,94,96,0
1,93,88,0
1,68,82,0
1,62,82,0
1,91,88,64
1,89,88,32
1,89,88,0
1,93,96,0
1,77,82,0
1,69,82,0
1,88,88,32
1,86,88,32
1,89,81,16
1,88,86,16
1,74,82,0
1,71,82,0
1,79,82,0
1,85,86,16
1,81,86,48
1,79,82,0
1,73,82,0
1,76,82,0
1,85,86,0
1,82,86,0
1,86,86,48
1,83,86,0
1,62,82,0
1,86,91,48
1,89,91,0
1,93,96,0
1,83,96,0
1,71,92,0
1,69,92,0
1,77,92,0
1,85,86,0
1,82,86,0
1,86,86,48
1,83,86,16
1,62,82,0
1,89,91,48
1,86,91,0
1,93,96,48
1,83,96,0
1,77,92,0
1,71,92,0
1,69,92,0
1,85,86,0
1,82,86,0
1,86,86,0
1,83,86,0
1,62,82,0
1,101,93,0
1,98,93,0
1,100,93,64
1,77,82,0
1,69,82,16
1,71,82,0
1,97,93,0
1,96,93,16
1,99,93,0
1,98,93,64
1,95,93,0
1,81,82,0
1,77,82,0
1,71,82,0
1,94,93,16
1,97,93,0
1,96,93,80
1,93,93,0
1,95,93,48
1,92,93,0
1,94,91,64
1,91,91,0
1,93,91,64
1,90,91,0
1,92,91,64
1,89,91,0
1,91,91,64
1,88,91,0
1,87,88,48
1,90,88,16
1,89,88,48
1,86,88,0
1,85,88,64
1,88,88,0
1,87,86,64
1,84,86,0
1,86,85,0
1,83,85,0
1,50,82,0
1,38,82,0
1,82,83,0
1,85,83,0
1,84,82,64
1,81,82,0
1,65,82,0
1,57,82,0
1,59,82,0
1,83,81,32
1,80,81,0
1,82,80,80
1,65,82,0
1,59,82,0
