track,note,velocity,time
0,64,40,0
0,67,40,0
0,71,40,0
0,63,40,0
0,67,42,0
0,69,42,0
0,67,42,0
0,71,42,0
0,71,42,0
0,62,42,0
0,74,44,0
0,60,44,0
0,66,44,0
0,50,44,0
0,69,44,0
0,67,46,0
0,50,46,0
0,62,46,0
0,71,46,0
0,59,46,0
0,43,46,0
0,67,46,0
0,71,46,0
0,58,48,0
0,61,48,0
0,76,48,0
0,74,48,0
0,62,48,0
0,64,48,0
0,73,48,0
0,66,50,0
0,74,50,0
0,57,50,0
0,62,50,0
0,69,50,0
0,71,50,0
0,72,50,0
0,55,50,0
0,64,50,0
0,66,50,0
0,57,50,0
0,74,50,0
0,71,50,0
0,67,50,0
0,59,50,0
0,62,50,0
0,52,52,0
0,64,52,0
0,55,52,0
0,67,52,0
0,69,54,0
0,62,60,0
0,71,60,0
0,71,60,0
0,47,60,0
0,54,60,0
0,66,60,0
0,74,58,0
0,57,58,0
0,50,58,0
0,65,58,0
0,69,58,0
0,73,56,0
0,61,56,0
0,60,54,0
0,72,54,0
0,45,54,0
0,69,54,0
0,52,54,0
0,64,54,0
0,69,54,0
0,72,54,0
0,63,52,0
0,77,52,0
0,76,52,0
0,64,52,0
0,65,50,0
0,75,50,0
0,68,50,0
0,59,50,0
0,76,50,0
0,64,50,0
0,71,50,0
0,72,50,0
0,74,52,0
0,57,52,0
0,66,52,0
0,68,52,0
0,59,52,0
0,76,54,0
0,60,60,0
0,69,60,0
0,72,60,0
0,64,60,0
0,50,56,0
0,54,56,0
0,66,56,0
0,62,56,0
0,71,54,0
0,69,54,0
0,55,54,0
0,60,54,0
0,64,54,0
0,71,54,0
0,43,54,0
0,52,54,0
0,67,52,0
0,59,50,0
0,62,50,0
0,50,50,0
0,64,46,0
0,67,46,0
0,64,46,0
0,71,46,0
0,71,46,0
0,73,44,0
0,75,44,0
0,76,44,0
0,75,42,0
0,73,40,0
0,59,40,0
0,66,40,0
0,71,40,0
0,76,40,0
0,75,40,0
0,75,40,0
0,73,40,10
0,64,42,0
0,71,42,0
0,71,42,0
0,66,42,0
0,63,42,0
0,63,42,0
0,75,42,0
0,59,42,0
0,71,44,0
0,64,44,0
0,76,44,0
0,67,44,0
0,59,46,0
0,66,46,0
0,63,46,0
0,78,46,0
0,66,46,0
0,75,46,0
0,73,48,0
0,54,48,0
0,69,48,0
0,61,48,0
0,66,48,0
0,59,50,0
0,71,50,0
0,63,50,0
0,59,52,0
0,71,52,0
0,71,52,0
0,68,52,0
0,64,52,0
0,52,52,0
0,51,52,0
0,73,52,0
0,75,52,0
0,68,54,0
0,58,54,0
0,76,54,0
0,49,54,0
0,64,54,0
0,70,54,0
0,75,54,0
0,63,54,0
0,67,54,0
0,51,54,0
0,73,54,0
0,62,56,0
0,56,56,0
0,59,56,0
0,68,56,0
0,76,56,0
0,71,56,0
0,63,56,0
0,75,56,0
0,51,56,0
0,78,56,0
0,57,56,0
0,66,56,0
0,71,56,0
0,63,56,0
0,58,56,0
0,75,56,0
0,70,56,0
0,71,58,0
0,59,58,0
0,56,58,0
0,59,58,0
0,63,58,0
0,71,58,0
0,61,58,0
0,55,58,0
0,64,58,0
0,61,58,0
0,63,60,0
0,63,60,0
0,54,60,0
0,66,60,0
0,71,60,0
0,78,60,0
0,70,56,0
0,64,56,0
0,64,56,0
0,75,54,0
0,74,54,0
0,63,54,0
0,75,54,0
0,59,54,0
0,66,54,0
0,63,54,0
0,71,54,0
0,71,52,0
0,62,50,0
0,62,50,0
0,74,40,0
0,67,40,0
0,55,40,0
0,47,40,0
0,67,40,0
0,71,40,0
0,69,40,0
0,67,40,0
0,60,40,0
0,64,40,0
0,69,40,0
0,71,40,0
0,45,40,0
0,66,40,0
0,54,40,0
0,72,40,0
0,76,40,0
0,76,40,0
0,75,40,0
0,59,40,0
0,63,40,0
0,71,40,0
0,63,40,0
0,51,40,0
0,67,40,0
0,59,40,0
0,52,40,0
0,64,40,0
0,43,40,0
0,64,40,0
0,59,40,0
0,66,44,0
0,58,44,0
0,64,44,0
0,42,44,0
0,54,44,0
0,55,46,0
0,40,46,0
0,67,46,0
0,67,46,0
0,71,48,0
0,54,50,0
0,66,50,0
0,59,50,0
0,75,50,0
0,71,50,0
0,63,50,0
0,47,50,0
0,78,52,0
0,50,54,0
0,60,54,0
0,66,54,0
0,45,54,0
0,72,54,0
0,62,54,0
0,79,80,0
0,43,80,0
0,67,80,0
0,71,80,0
0,50,80,0
0,62,80,0
0,59,80,0
0,79,80,0
0,78,80,0
0,55,80,0
0,62,80,0
0,74,80,0
0,67,80,0
0,74,80,0
0,47,80,0
0,66,80,0
0,76,80,0
0,78,80,0
0,48,80,0
0,60,80,0
0,67,80,0
0,55,80,0
0,78,80,0
0,64,80,0
0,72,80,0
0,76,80,0
0,79,80,0
0,76,80,0
0,67,80,0
0,71,80,0
0,52,80,0
0,55,80,0
0,67,80,0
0,59,80,0
0,64,80,0
0,62,60,0
0,50,60,0
0,74,60,0
0,67,60,0
0,59,60,0
0,50,60,0
0,64,60,0
0,60,60,0
0,55,60,0
0,57,60,0
0,62,60,0
0,59,60,0
0,59,60,0
0,62,60,0
0,66,60,0
0,60,60,0
0,50,60,0
0,71,60,0
0,69,60,0
0,43,50,0
0,59,50,0
0,71,50,0
0,50,50,0
0,65,50,0
0,55,50,0
0,67,50,0
0,64,50,0
0,49,50,0
0,71,50,0
0,69,50,0
0,55,50,0
0,65,50,0
0,59,50,0
0,50,50,0
0,43,50,0
0,71,50,0
0,69,50,0
0,67,50,0
0,64,50,0
0,49,50,0
0,71,50,0
0,69,50,0
0,65,50,0
0,50,50,0
0,59,50,0
0,43,50,0
0,55,50,0
0,71,50,0
0,69,50,0
0,67,50,0
0,71,50,0
0,69,50,0
0,67,50,0
0,49,50,0
0,71,50,0
0,69,50,0
0,64,50,0
0,60,50,0
0,43,50,0
0,55,50,0
0,67,50,0
0,48,50,0
0,71,50,0
0,69,50,0
0,67,50,0
0,51,48,0
0,71,48,0
0,63,48,0
0,69,48,0
0,67,48,0
0,71,48,0
0,74,48,0
0,43,48,0
0,59,48,0
0,62,48,0
0,50,48,0
0,55,48,0
0,54,46,96
0,78,46,0
0,47,46,0
0,66,46,0
0,59,46,0
0,62,46,0
0,55,44,96
0,59,44,0
0,52,50,0
0,51,50,0
0,55,42,0
0,57,42,0
0,50,50,0
0,59,42,0
0,55,42,0
0,59,50,0
0,62,42,0
0,57,40,0
0,50,50,0
0,60,50,0
0,54,40,0
0,67,46,0
0,83,48,0
0,74,40,0
0,79,42,0
0,71,44,0
0,79,46,0
0,83,44,0
0,82,42,0
0,73,48,0
0,88,48,0
0,86,46,0
0,74,46,0
0,76,42,0
0,85,42,0
0,81,46,0
0,86,44,0
0,81,44,0
0,79,46,0
0,74,46,0
0,78,42,0
0,81,40,0
0,83,40,0
0,84,42,0
0,69,44,0
0,76,46,0
0,74,40,0
0,78,44,0
0,86,44,0
0,76,48,0
0,79,40,0
0,73,40,0
0,83,48,0
0,75,46,0
0,72,42,0
0,71,44,0
0,74,44,0
0,76,40,0
0,79,48,0
0,73,40,0
0,81,48,0
0,83,40,0
0,83,46,0
0,79,40,0
0,74,40,0
0,82,40,0
0,76,40,0
0,86,44,0
0,81,40,0
0,78,42,0
0,85,40,0
0,84,40,0
0,76,46,0
0,81,40,0
0,69,42,0
0,72,46,0
0,81,42,0
0,84,44,0
0,84,42,0
0,89,40,0
0,75,44,0
0,76,48,0
0,88,40,0
0,77,48,0
0,87,42,0
0,83,44,0
0,83,40,0
0,81,40,0
0,88,46,0
0,76,48,0
0,80,42,0
0,83,44,0
0,84,48,0
0,86,48,0
0,78,46,0
0,71,46,0
0,80,42,0
0,76,42,0
0,88,48,0
0,77,44,0
0,84,48,0
0,81,42,0
0,81,46,0
0,80,44,0
0,76,48,0
0,79,48,0
0,75,48,0
0,74,44,0
0,78,48,0
0,74,46,0
0,83,48,0
0,81,46,0
0,83,42,0
0,73,50,0
0,76,48,0
0,67,42,0
0,75,48,0
0,72,48,0
0,79,46,0
0,74,46,0
0,71,48,0
0,71,46,0
0,64,44,0
0,71,42,0
0,83,40,0
0,67,48,0
0,79,48,0
0,59,48,0
0,73,46,0
0,85,42,0
0,66,46,0
0,78,48,0
0,75,42,0
0,87,46,0
0,88,44,0
0,76,46,0
0,55,46,0
0,76,46,0
0,64,42,0
0,59,42,0
0,78,44,0
0,75,42,0
0,87,40,0
0,66,44,0
0,85,42,0
0,73,44,0
0,64,46,0
0,71,44,0
0,79,40,0
0,67,40,0
0,88,44,0
0,76,40,0
0,87,40,0
0,75,40,0
0,59,44,0
0,78,42,0
0,66,42,0
0,87,42,0
0,75,42,0
0,73,44,0
0,85,44,0
0,76,44,0
0,71,48,0
0,55,40,0
0,64,44,0
0,83,40,0
0,66,40,0
0,59,40,0
0,78,40,0
0,87,40,0
0,75,46,0
0,72,40,0
0,76,48,0
0,88,42,0
0,76,44,0
0,69,40,0
0,84,42,0
0,71,40,0
0,83,46,0
0,64,42,0
0,81,44,0
0,69,42,0
0,60,44,0
0,78,48,0
0,59,40,0
0,75,48,0
0,78,48,0
0,66,44,0
0,90,46,0
0,87,42,0
0,75,48,0
0,73,46,0
0,69,40,0
0,81,48,0
0,85,44,0
0,73,48,0
0,66,42,0
0,71,40,0
0,78,48,0
0,75,48,0
0,83,46,0
0,59,44,0
0,66,42,0
0,73,48,0
0,81,44,0
0,66,48,0
0,69,42,0
0,83,48,0
0,59,46,0
0,71,46,0
0,75,46,0
0,80,50,0
0,64,50,0
0,76,50,0
0,71,50,0
0,71,50,0
0,68,50,0
0,83,50,0
0,73,50,0
0,85,50,0
0,63,50,0
0,75,50,0
0,87,50,0
0,70,50,0
0,82,50,0
0,73,50,0
0,88,50,0
0,76,50,0
0,80,50,0
0,61,50,0
0,87,52,0
0,63,52,0
0,75,52,0
0,79,52,0
0,75,52,0
0,85,52,0
0,73,52,0
0,68,52,0
0,80,52,0
0,83,52,0
0,76,52,0
0,88,52,0
0,71,52,0
0,73,52,0
0,75,52,0
0,75,52,0
0,87,52,0
0,83,54,0
0,78,54,0
0,63,54,0
0,75,54,0
0,69,54,0
0,90,54,0
0,78,54,0
0,75,54,0
0,87,54,0
0,82,54,0
0,70,54,0
0,56,54,0
0,63,54,0
0,83,54,0
0,75,54,0
0,68,54,0
0,59,54,0
0,71,54,0
0,71,54,0
0,76,54,0
0,67,54,0
0,55,54,0
0,64,54,0
0,73,54,0
0,61,54,0
0,66,60,0
0,78,60,0
0,71,60,0
0,75,60,0
0,63,60,0
0,90,60,0
0,83,60,0
0,54,60,0
0,74,60,0
0,62,60,0
0,61,60,0
0,73,60,0
0,87,62,0
0,75,62,0
0,82,62,0
0,76,62,0
0,70,62,0
0,64,62,0
0,74,62,0
0,86,62,0
0,75,62,0
0,87,62,0
0,68,62,0
0,76,62,0
0,80,62,0
0,59,62,0
0,64,62,0
0,71,64,0
0,67,64,0
0,79,64,0
0,83,64,0
0,78,64,0
0,66,64,0
0,75,64,0
0,63,64,0
0,59,66,0
0,86,66,0
0,62,66,0
0,74,66,0
0,67,66,0
0,79,66,0
0,47,66,0
0,74,66,0
0,62,66,0
0,71,66,0
0,83,66,0
0,81,66,0
0,69,66,0
0,72,68,0
0,67,68,0
0,64,68,0
0,60,68,0
0,79,68,0
0,81,68,0
0,69,68,0
0,83,68,0
0,71,68,0
0,84,70,0
0,45,70,0
0,64,70,0
0,60,70,0
0,78,70,0
0,57,70,0
0,72,70,0
0,72,70,0
0,66,70,0
0,76,70,0
0,88,70,0
0,88,70,0
0,76,70,0
0,75,70,0
0,87,70,0
0,83,70,0
0,71,70,0
0,59,70,0
0,63,70,0
0,71,70,0
0,75,72,0
0,63,72,0
0,79,72,0
0,67,72,0
0,64,72,0
0,64,72,0
0,76,72,0
0,59,72,0
0,55,72,0
0,59,72,0
0,71,72,0
0,71,72,0
0,43,72,0
0,73,74,0
0,54,74,0
0,54,74,0
0,61,74,0
0,64,74,0
0,42,74,0
0,70,74,0
0,52,74,0
0,79,74,0
0,67,74,0
0,55,74,0
0,40,74,0
0,83,76,0
0,71,76,0
0,66,76,0
0,63,76,0
0,75,76,0
0,71,76,0
0,87,76,0
0,75,76,0
0,47,76,0
0,59,76,0
0,54,76,0
0,78,76,0
0,90,76,0
0,66,78,0
0,62,78,0
0,60,78,0
0,50,78,0
0,74,78,0
0,57,78,0
0,72,78,0
0,45,78,0
0,74,80,0
0,43,80,0
0,67,80,0
0,50,80,0
0,59,80,0
0,91,80,0
0,62,80,0
0,71,80,0
0,55,80,0
0,43,80,0
0,79,80,0
0,79,80,0
0,91,80,0
0,90,80,0
0,78,80,0
0,86,80,0
0,67,80,0
0,35,80,0
0,47,80,0
0,66,80,0
0,74,80,0
0,74,80,0
0,78,80,0
0,55,80,0
0,64,82,0
0,76,82,0
0,76,82,0
0,88,82,0
0,90,82,0
0,78,82,0
0,62,82,0
0,74,82,0
0,90,82,0
0,74,82,0
0,78,82,0
0,62,82,0
0,64,82,0
0,67,82,0
0,55,82,0
0,48,82,0
0,36,82,0
0,76,82,0
0,88,82,0
0,91,84,0
0,60,84,0
0,79,84,0
0,72,84,0
0,88,84,0
0,76,84,0
0,55,84,0
0,40,84,0
0,71,84,0
0,67,84,0
0,52,84,0
0,83,84,0
0,64,84,0
0,71,84,0
0,59,84,0
0,38,90,0
0,62,90,0
0,50,90,0
0,67,90,0
0,59,90,0
0,38,90,0
0,74,90,0
0,86,90,0
0,71,90,0
0,79,84,0
0,64,84,0
0,72,84,0
0,43,80,0
0,52,80,0
0,54,78,0
0,45,78,0
0,47,76,0
0,55,76,0
0,62,76,0
0,71,76,0
0,50,74,0
0,59,74,0
0,60,70,0
0,78,70,0
0,72,70,0
0,66,70,0
0,83,66,0
0,71,66,0
0,81,64,0
0,69,64,0
0,50,40,0
0,71,40,0
0,59,40,0
0,71,40,0
0,43,40,0
0,31,40,0
0,77,40,0
0,65,40,0
0,83,40,0
0,67,40,0
0,79,40,0
0,76,40,0
0,49,40,0
0,64,40,0
0,71,42,0
0,83,42,0
0,69,42,0
0,81,42,0
0,50,42,0
0,71,42,0
0,71,42,0
0,43,42,0
0,83,42,0
0,59,42,0
0,77,42,0
0,65,42,0
0,31,42,0
0,69,42,0
0,81,42,0
0,79,44,0
0,67,44,0
0,64,44,0
0,76,44,0
0,49,44,0
0,83,44,0
0,71,44,0
0,69,46,0
0,81,46,0
0,83,46,0
0,65,46,0
0,71,46,0
0,59,46,0
0,50,46,0
0,43,46,0
0,31,46,0
0,77,46,0
0,71,46,0
0,69,46,0
0,81,46,0
0,79,46,0
0,67,46,0
0,71,46,0
0,83,46,0
0,81,48,0
0,60,48,0
0,72,48,0
0,69,48,0
0,48,48,0
0,79,48,0
0,67,48,0
0,71,48,0
0,83,48,0
0,47,48,0
0,62,48,0
0,74,48,0
0,69,48,0
0,81,48,0
0,65,50,0
0,60,50,0
0,43,50,0
0,31,50,0
0,67,50,0
0,77,50,0
0,48,50,0
0,72,50,0
0,79,50,0
0,71,50,0
0,83,50,0
0,64,48,0
0,69,48,0
0,81,48,0
0,76,48,0
0,79,48,0
0,67,48,0
0,83,48,0
0,71,48,0
0,81,46,0
0,69,46,0
0,67,46,0
0,79,46,0
0,63,46,0
0,51,46,0
0,75,46,0
0,71,46,0
0,83,46,0
0,71,40,0
0,50,40,0
0,31,40,0
0,59,40,0
0,43,40,0
0,74,40,0
0,74,40,0
0,62,40,0
0,86,40,0
0,71,60,144
0,78,60,0
0,86,60,0
0,74,60,0
0,90,60,0
0,83,60,0
0,55,50,144
0,59,50,0
0,52,50,0
0,71,50,0
0,59,50,0
0,71,50,0
0,64,50,0
0,67,50,0
0,51,46,0
0,63,46,0
0,67,44,0
0,55,44,0
0,67,44,0
0,55,44,0
0,69,44,0
0,69,44,0
0,57,44,0
0,57,44,0
0,55,44,0
0,67,44,0
