track,note,velocity,time
1,52,20,0
1,59,21,40
1,83,70,104
1,68,34,10
1,80,50,292
1,78,52,230
1,76,34,234
1,78,41,124
1,80,31,240
1,52,36,48
1,59,30,90
1,83,77,112
1,68,29,38
1,80,59,180
1,81,59,12
1,80,73,28
1,78,61,226
1,76,50,232
1,78,38,278
1,80,32,14
1,78,52,48
1,80,48,10
1,52,34,8
1,59,21,18
1,80,49,30
1,81,54,48
1,83,83,16
1,68,32,2
1,80,73,52
1,83,97,242
1,49,20,90
1,56,23,36
1,85,69,96
1,73,37,12
1,64,42,18
1,80,58,24
1,85,51,72
1,52,36,26
1,59,26,104
1,83,67,16
1,71,35,6
1,68,14,64
1,80,37,272
1,78,39,216
1,76,23,26
1,59,35,2
1,56,34,92
1,54,44,66
1,40,40,242
1,47,20,6
1,52,42,10
1,56,40,6
1,64,25,74
1,71,60,104
1,68,52,320
1,66,39,248
1,64,49,126
1,66,29,4
1,68,29,32
1,40,42,94
1,47,26,26
1,56,30,28
1,52,36,26
1,64,36,12
1,71,70,80
1,68,38,54
1,69,52,48
1,68,64,50
1,66,55,260
1,64,52,176
1,66,35,244
1,68,39,72
1,66,41,10
1,68,57,100
1,40,55,2
1,47,34,58
1,68,43,4
1,69,57,14
1,71,77,2
1,56,44,10
1,64,49,10
1,68,74,0
1,71,87,22
1,73,72,172
1,61,38,2
1,64,47,12
1,49,28,6
1,56,26,8
1,68,68,20
1,73,52,166
1,44,33,52
1,51,26,66
1,75,42,26
1,63,46,6
1,60,32,36
1,72,39,290
1,70,29,66
1,63,36,82
1,68,30,20
1,60,34,52
1,58,28,44
1,56,30,162
1,87,34,28
1,63,33,6
1,72,19,110
1,84,44,60
1,82,48,162
1,80,57,230
1,82,42,98
1,84,46,2
1,56,20,12
1,63,23,16
1,87,42,6
1,72,31,60
1,84,39,40
1,85,64,36
1,82,59,212
1,80,59,246
1,82,50,40
1,84,65,2
1,82,54,104
1,84,69,80
1,56,34,54
1,84,72,4
1,63,35,40
1,85,69,0
1,87,73,42
1,72,31,4
1,84,84,32
1,87,69,244
1,89,70,188
1,68,39,6
1,77,27,2
1,53,41,0
1,60,33,12
1,84,77,14
1,89,58,64
1,56,36,8
1,63,37,70
1,87,51,54
1,75,23,20
1,72,27,28
1,84,51,268
1,82,26,74
1,80,26,26
1,63,33,4
1,60,33,24
1,58,25,82
1,44,40,206
1,51,35,34
1,60,45,12
1,56,30,22
1,68,43,8
1,75,50,168
1,72,50,270
1,70,43,262
1,68,57,264
1,70,61,4
1,44,32,24
1,72,60,18
1,51,35,46
1,56,39,56
1,60,38,28
1,68,43,8
1,75,60,10
1,72,34,30
1,73,64,32
1,72,61,40
1,70,61,224
1,68,53,258
1,70,59,234
1,72,62,72
1,70,53,48
1,44,48,82
1,72,71,38
1,51,44,14
1,56,37,38
1,72,76,0
1,73,72,26
1,75,74,64
1,68,57,4
1,60,54,0
1,72,80,300
1,75,78,256
1,68,56,2
1,76,75,8
1,61,36,10
1,56,32,14
1,49,20,16
1,73,70,30
1,76,61,92
1,47,36,42
1,54,41,48
1,66,34,12
1,71,33,2
1,78,54,106
1,63,39,16
1,75,39,334
1,73,33,180
1,71,44,148
1,66,24,10
1,63,37,24
1,61,38,78
1,59,38,4
1,66,41,116
1,90,62,88
1,78,29,26
1,75,52,22
1,87,62,268
1,85,62,192
1,83,80,8
1,85,59,44
1,87,59,90
1,85,59,136
1,47,34,14
1,87,44,8
1,54,35,2
1,78,52,202
1,66,29,10
1,71,15,36
1,63,19,2
1,75,44,158
1,73,52,112
1,71,57,20
1,73,55,68
1,75,64,78
1,73,67,4
1,59,31,84
1,75,72,36
1,66,23,12
1,90,75,108
1,78,44,14
1,75,61,22
1,87,63,266
1,83,74,96
1,47,26,102
1,54,37,18
1,78,68,40
1,71,40,12
1,66,36,6
1,63,58,32
1,75,64,4
1,71,62,152
1,59,72,82
1,69,38,54
1,90,84,32
1,78,67,12
1,75,85,20
1,87,70,214
1,83,101,34
1,47,67,66
1,78,91,148
1,71,68,12
1,66,55,0
1,63,78,4
1,57,64,8
1,75,79,82
1,71,84,40
1,40,90,114
1,47,59,64
1,83,111,38
1,71,85,8
1,76,55,6
1,56,78,36
1,68,69,106
1,80,83,2
1,78,81,112
1,66,64,8
1,76,87,146
1,64,76,6
1,78,87,92
1,66,65,2
1,80,92,94
1,68,46,16
1,40,74,96
1,47,60,60
1,83,119,72
1,76,51,14
1,71,81,4
1,56,55,36
1,80,65,62
1,81,42,18
1,80,92,30
1,68,79,0
1,78,86,68
1,66,62,2
1,76,81,108
1,64,66,10
1,66,58,184
1,78,67,4
1,80,82,24
1,68,48,10
1,66,73,60
1,78,82,2
1,80,87,74
1,68,64,10
1,40,72,10
1,47,46,2
1,80,73,20
1,81,78,48
1,71,73,14
1,83,104,6
1,56,68,12
1,80,87,240
1,83,106,72
1,40,73,74
1,49,59,12
1,85,90,72
1,73,72,0
1,76,52,14
1,56,76,22
1,80,84,88
1,56,3,76
1,85,88,18
1,42,52,2
1,49,51,56
1,85,72,86
1,73,55,12
1,76,52,4
1,57,58,32
1,81,67,26
1,80,64,30
1,78,62,144
1,73,41,2
1,61,61,10
1,76,42,2
1,49,45,12
1,57,84,90
1,45,71,6
1,56,84,46
1,44,83,10
1,42,79,48
1,49,79,92
1,85,90,46
1,73,76,0
1,76,60,12
1,52,85,0
1,57,71,42
1,81,91,124
1,69,67,4
1,80,87,144
1,68,64,8
1,78,84,108
1,66,72,4
1,68,65,120
1,80,81,2
1,81,90,70
1,69,66,4
1,42,59,16
1,49,64,68
1,52,68,54
1,85,92,94
1,73,61,8
1,57,66,6
1,76,42,10
1,81,55,62
1,83,100,40
1,81,84,54
1,69,78,6
1,80,84,132
1,68,67,2
1,78,86,120
1,66,62,6
1,68,51,100
1,80,79,0
1,81,57,0
1,69,49,2
1,68,76,72
1,80,86,0
1,81,68,42
1,69,51,2
1,42,55,22
1,81,74,14
1,49,48,2
1,52,57,4
1,83,100,12
1,85,89,50
1,57,67,14
1,76,49,2
1,81,85,30
1,85,90,26
1,42,60,138
1,51,53,36
1,87,79,0
1,75,68,6
1,78,66,8
1,57,72,2
1,81,85,38
1,87,83,8
1,44,76,66
1,51,68,26
1,87,59,16
1,54,68,4
1,88,85,18
1,78,76,22
1,87,85,20
1,59,75,10
1,83,106,24
1,87,92,70
1,44,62,18
1,52,63,18
1,88,95,56
1,80,79,6
1,76,79,0
1,59,76,22
1,83,107,16
1,88,74,42
1,45,76,66
1,52,57,26
1,88,56,40
1,90,77,2
1,56,69,8
1,88,78,14
1,80,70,4
1,61,100,24
1,85,92,24
1,88,96,24
1,45,79,60
1,54,88,16
1,90,91,72
1,81,74,2
1,78,68,6
1,61,97,14
1,85,91,4
1,90,89,26
1,44,95,128
1,51,81,44
1,92,92,36
1,80,79,12
1,60,86,16
1,87,78,132
1,84,88,52
1,80,82,70
1,84,61,72
1,87,74,110
1,80,83,72
1,87,69,8
1,84,83,40
1,75,65,0
1,80,70,6
1,75,75,4
1,80,77,18
1,84,82,92
1,84,78,68
1,75,73,2
1,80,66,46
1,72,53,34
1,75,53,52
1,72,54,78
1,75,46,14
1,80,72,88
1,80,60,78
1,72,54,8
1,75,55,54
1,68,37,32
1,72,53,36
1,68,37,22
1,72,41,16
1,75,55,60
1,68,68,70
1,61,46,16
1,57,41,4
1,80,54,10
1,85,50,2
1,73,41,22
1,66,83,34
1,85,60,222
1,78,50,8
1,73,53,216
1,64,85,12
1,85,70,234
1,76,60,4
1,73,70,230
1,66,85,44
1,85,79,48
1,78,76,6
1,73,72,74
1,44,74,38
1,51,69,74
1,92,84,56
1,80,79,2
1,60,78,34
1,87,67,134
1,84,81,38
1,80,79,32
1,84,64,74
1,87,58,90
1,64,94,76
1,61,69,2
1,57,52,6
1,85,85,232
1,76,73,6
1,66,92,32
1,73,79,10
1,44,82,96
1,51,89,80
1,92,83,18
1,80,78,8
1,60,93,36
1,87,68,118
1,84,83,40
1,80,84,52
1,84,57,20
1,87,70,70
1,64,90,30
1,61,68,8
1,57,53,0
1,85,85,240
1,76,74,8
1,66,75,34
1,73,55,10
1,44,64,96
1,51,62,82
1,72,63,88
1,60,70,46
1,68,60,126
1,63,59,56
1,68,46,100
1,72,60,96
1,75,62,100
1,75,54,68
1,72,60,126
1,68,60,72
1,72,47,80
1,75,68,80
1,80,79,46
1,80,77,86
1,75,75,112
1,72,74,70
1,75,78,32
1,80,75,74
1,84,91,86
1,43,73,0
1,48,73,38
1,52,81,8
1,84,98,38
1,76,42,22
1,58,78,24
1,79,89,102
1,76,83,52
1,79,99,70
1,84,95,106
1,88,88,94
1,41,92,2
1,48,55,42
1,89,99,60
1,77,63,14
1,57,71,20
1,84,93,42
1,81,82,64
1,77,84,44
1,81,72,78
1,84,94,90
1,84,95,50
1,77,94,16
1,81,71,38
1,72,49,42
1,77,69,82
1,72,69,64
1,77,75,32
1,81,69,82
1,81,63,88
1,72,69,6
1,77,55,32
1,69,34,20
1,72,58,96
1,69,29,84
1,72,38,20
1,77,59,38
1,77,45,80
1,69,33,14
1,72,38,62
1,65,30,20
1,69,42,24
1,65,42,118
1,69,39,48
1,72,43,8
1,65,73,90
1,54,53,8
1,58,37,2
1,82,40,230
1,77,43,6
1,70,51,14
1,63,75,42
1,82,51,158
1,75,65,2
1,70,60,48
1,61,72,40
1,82,41,206
1,73,38,0
1,70,42,22
1,63,39,80
1,75,48,76
1,82,37,4
1,75,2,72
1,70,40,40
1,41,55,58
1,48,48,48
1,89,90,160
1,77,62,10
1,57,74,10
1,84,81,38
1,81,71,18
1,77,80,16
1,81,59,76
1,84,90,102
1,58,30,118
1,61,72,4
1,54,57,10
1,82,66,228
1,73,68,0
1,70,66,8
1,63,79,2
1,41,83,184
1,48,57,28
1,89,91,38
1,77,74,8
1,57,97,20
1,84,81,54
1,81,78,82
1,77,78,60
1,81,65,90
1,84,84,92
1,61,82,100
1,54,75,4
1,58,56,12
1,82,64,268
1,73,63,2
1,63,88,16
1,70,50,28
1,41,48,16
1,48,41,56
1,69,63,150
1,57,44,52
1,65,65,26
1,60,60,10
1,65,39,82
1,69,58,100
1,72,62,74
1,72,55,64
1,69,51,122
1,65,55,0
1,69,56,100
1,72,70,86
1,77,73,66
1,77,78,68
1,72,79,42
1,69,78,76
1,72,84,92
1,40,79,32
1,77,88,26
1,45,55,38
1,81,91,24
1,49,67,42
1,81,74,60
1,73,83,4
1,55,89,4
1,76,79,42
1,73,81,30
1,76,69,6
1,81,88,120
1,85,81,36
1,38,94,2
1,45,76,52
1,86,97,16
1,74,76,10
1,54,101,24
1,81,83,152
1,78,79,56
1,74,83,46
1,78,84,106
1,81,85,86
1,78,86,114
1,86,85,2
1,81,70,52
1,74,70,14
1,78,70,96
1,74,56,84
1,78,72,10
1,81,74,6
1,78,74,120
1,86,81,2
1,81,62,20
1,74,59,12
1,78,62,50
1,74,60,10
1,78,62,38
1,81,70,24
1,78,69,74
1,86,72,2
1,81,61,50
1,74,36,36
1,78,52,0
1,74,56,4
1,78,47,42
1,81,34,52
1,69,37,28
1,86,48,6
1,66,32,2
1,78,20,10
1,62,40,8
1,81,36,48
1,78,43,42
1,74,41,52
1,78,41,10
1,81,22,36
1,78,37,24
1,86,41,4
1,81,33,56
1,78,42,82
1,74,37,16
1,78,39,42
1,81,35,48
1,85,36,16
1,77,30,16
1,65,22,0
1,61,34,0
1,81,27,10
1,77,30,0
1,73,37,18
1,77,38,26
1,81,40,30
1,85,47,8
1,77,23,32
1,81,35,18
1,77,26,8
1,73,28,24
1,77,24,192
1,36,5,22
1,48,35,8
1,81,33,8
1,60,38,36
1,77,33,2
1,84,40,2
1,81,35,132
1,48,2,58
1,57,44,90
1,77,33,6
1,72,24,86
1,55,55,14
1,77,25,12
1,81,31,44
1,53,83,8
1,84,54,4
1,81,39,8
1,55,81,52
1,77,43,6
1,72,36,8
1,57,61,8
1,77,32,12
1,81,36,44
1,60,48,2
1,77,31,10
1,84,52,2
1,81,35,18
1,57,43,124
1,77,28,14
1,72,29,46
1,55,41,10
1,77,28,12
1,81,36,52
1,53,59,16
1,84,36,12
1,77,26,2
1,81,35,54
1,55,55,14
1,77,28,4
1,57,58,2
1,72,29,16
1,77,33,32
1,55,68,2
1,81,35,48
1,57,52,12
1,48,52,80
1,53,61,22
1,57,54,40
1,84,57,10
1,60,66,0
1,77,24,32
1,81,41,30
1,57,64,8
1,77,51,6
1,72,41,26
1,60,55,12
1,77,43,26
1,81,47,30
1,45,46,44
1,53,88,32
1,57,55,14
1,86,55,16
1,62,87,26
1,77,7,18
1,77,37,16
1,57,66,24
1,74,45,4
1,77,24,38
1,62,77,104
1,81,2,4
1,86,37,58
1,60,59,74
1,84,42,18
1,57,28,2
1,53,57,0
1,48,25,4
1,77,12,2
1,81,36,46
1,77,45,42
1,72,42,38
1,77,32,0
1,81,50,6
1,84,71,62
1,81,52,124
1,77,40,2
1,72,40,12
1,77,38,60
1,81,33,52
1,69,21,88
1,84,52,2
1,60,41,6
1,65,24,30
1,81,26,26
1,77,30,54
1,72,33,32
1,77,35,44
1,81,29,44
1,84,47,54
1,77,21,30
1,81,30,56
1,77,32,4
1,72,27,20
1,77,16,20
1,81,22,52
1,68,18,98
1,76,21,4
1,84,32,0
1,64,33,20
1,80,36,4
1,76,8,24
1,72,32,18
1,76,23,70
1,80,35,2
1,84,38,80
1,76,12,30
1,80,34,36
1,76,17,24
1,72,20,44
1,35,34,76
1,76,21,4
1,80,38,46
1,59,34,60
1,83,34,12
1,47,18,26
1,80,33,164
1,56,41,20
1,76,17,20
1,71,25,70
1,54,47,30
1,76,28,22
1,80,40,46
1,52,53,12
1,83,56,8
1,76,19,16
1,80,39,22
1,54,64,92
1,76,31,24
1,71,42,44
1,56,57,6
1,76,36,0
1,80,33,58
1,59,58,14
1,83,66,2
1,76,23,0
1,80,33,6
1,56,60,80
1,76,34,0
1,71,39,74
1,54,62,12
1,76,34,6
1,80,22,64
1,52,52,10
1,83,40,16
1,76,7,4
1,80,30,4
1,54,59,92
1,76,25,10
1,56,62,40
1,71,36,6
1,54,70,16
1,76,33,8
1,56,60,10
1,80,41,10
1,47,40,54
1,52,58,24
1,56,24,28
1,83,74,4
1,59,71,10
1,76,17,4
1,52,11,24
1,80,55,44
1,56,68,0
1,76,40,4
1,71,40,8
1,56,25,12
1,76,44,8
1,59,67,32
1,80,30,0
1,44,67,16
1,52,56,38
1,56,55,6
1,85,52,40
1,76,27,28
1,61,52,26
1,80,32,34
1,56,56,52
1,73,34,8
1,76,39,40
1,61,56,40
1,80,20,58
1,85,22,14
1,56,26,64
1,59,36,2
1,83,63,8
1,47,21,16
1,52,41,2
1,76,13,12
1,80,30,26
1,76,20,10
1,71,39,24
1,76,25,22
1,80,32,34
1,76,27,70
1,83,31,8
1,80,37,46
1,76,30,52
1,71,32,8
1,76,33,54
1,44,45,58
1,80,30,42
1,52,43,18
1,56,44,0
1,85,36,68
1,76,17,20
1,61,68,16
1,80,40,18
1,56,59,48
1,76,24,10
1,73,34,40
1,61,65,108
1,76,35,18
1,80,37,12
1,56,32,134
1,59,57,6
1,47,32,14
1,83,54,12
1,52,46,2
1,76,11,18
1,80,44,2
1,76,44,2
1,71,45,28
1,76,34,26
1,44,56,34
1,80,40,26
1,52,65,12
1,56,70,2
1,85,41,28
1,61,76,32
1,76,17,8
1,80,41,22
1,76,27,40
1,56,53,20
1,73,39,64
1,61,58,30
1,76,28,24
1,80,34,22
1,56,20,6
1,59,47,0
1,47,22,22
1,83,40,4
1,76,19,2
1,52,31,12
1,80,36,8
1,76,25,10
1,71,32,64
1,76,25,70
1,44,36,50
1,80,37,0
1,52,36,30
1,56,32,34
1,85,33,16
1,76,15,14
1,61,31,30
1,80,19,64
1,76,16,70
1,73,26,22
1,76,22,56
1,80,30,38
1,85,29,54
1,76,13,48
1,76,19,168
1,73,19,62
