track,note,velocity,time
1,57,88,3840
1,59,98,96
1,61,77,88
1,62,92,88
1,64,75,88
1,65,91,88
1,67,105,88
1,69,85,88
1,70,87,88
1,72,92,88
1,70,76,88
1,69,83,88
1,67,85,88
1,69,86,88
1,67,83,88
1,65,92,88
1,64,91,88
1,65,75,88
1,64,91,88
1,62,82,88
1,61,80,88
1,62,85,88
1,64,77,88
1,65,86,88
1,67,93,88
1,69,87,88
1,71,95,88
1,73,96,88
1,74,106,88
1,76,101,88
1,77,103,88
1,79,86,88
1,77,102,88
1,81,102,88
1,79,85,88
1,76,98,88
1,74,97,88
1,77,88,88
1,76,93,88
1,72,83,88
1,70,82,88
1,74,91,88
1,72,96,88
1,69,76,88
1,67,85,88
1,70,75,88
1,69,93,88
1,65,75,88
1,74,101,88
1,77,86,88
1,76,91,88
1,72,88,88
1,70,88,88
1,74,87,88
1,72,97,88
1,69,78,88
1,67,98,88
1,70,83,88
1,69,100,88
1,65,76,88
1,64,80,88
1,67,87,88
1,65,76,88
1,62,76,88
1,61,81,88
1,62,80,88
1,64,96,88
1,65,101,88
1,67,102,88
1,69,108,88
1,71,102,88
1,73,91,88
1,74,96,88
1,76,108,88
1,77,111,88
1,79,102,88
1,81,106,88
1,83,95,88
1,85,100,88
1,86,108,88
1,88,97,88
1,89,100,88
1,91,98,88
1,88,93,88
1,85,97,88
1,81,107,88
1,82,100,88
1,79,93,88
1,77,101,88
1,79,101,88
1,81,100,88
1,77,87,88
1,74,93,88
1,70,81,88
1,72,91,88
1,69,90,88
1,67,88,88
1,69,97,88
1,70,91,92
1,72,93,92
1,74,100,92
1,72,87,92
1,70,85,92
1,69,97,92
1,67,100,92
1,69,85,92
1,67,77,92
1,65,76,92
1,64,76,92
1,65,76,92
1,64,76,92
1,62,76,92
1,61,76,92
1,62,76,92
1,64,76,92
1,65,76,92
1,67,93,92
1,70,77,92
1,69,90,92
1,65,77,92
1,64,93,92
1,67,90,92
1,65,80,92
1,62,85,92
1,60,81,92
1,64,77,92
1,62,77,92
1,58,91,92
1,57,80,92
1,59,100,92
1,61,77,92
1,62,88,92
1,64,81,92
1,65,77,92
1,67,93,92
1,69,86,92
1,70,86,92
1,72,88,92
1,70,82,92
1,69,87,92
1,67,77,92
1,69,81,92
1,67,78,92
1,65,77,92
1,64,77,92
1,65,77,92
1,64,77,92
1,62,77,92
1,61,77,92
1,62,77,92
1,64,77,92
1,65,86,92
1,67,93,92
1,69,93,92
1,71,86,92
1,73,85,92
1,74,93,92
1,76,103,92
1,77,91,92
1,79,93,92
1,77,78,92
1,81,93,92
1,79,80,92
1,76,85,92
1,74,88,92
1,77,78,92
1,76,85,92
1,72,88,92
1,70,86,92
1,74,88,92
1,72,91,92
1,69,86,92
1,67,95,92
1,70,77,92
1,69,91,92
1,65,77,92
1,74,82,92
1,77,78,92
1,76,87,92
1,72,87,92
1,70,85,92
1,74,95,92
1,72,88,92
1,69,86,92
1,67,102,92
1,70,78,92
1,69,78,92
1,65,78,92
1,64,78,92
1,67,78,92
1,65,83,92
1,62,81,92
1,61,88,92
1,62,78,92
1,64,95,92
1,66,82,92
1,68,78,92
1,69,86,92
1,71,101,92
1,73,98,92
1,74,92,92
1,76,96,92
1,78,91,92
1,80,92,92
1,81,103,92
1,83,95,92
1,85,103,92
1,86,100,92
1,85,92,92
1,88,93,92
1,93,112,92
1,92,92,92
1,90,80,92
1,88,93,92
1,86,93,92
1,85,86,92
1,86,92,92
1,84,97,92
1,82,83,92
1,81,92,92
1,79,91,92
1,77,86,92
1,76,81,92
1,74,78,92
1,73,88,92
1,74,93,92
1,76,96,92
1,78,91,92
1,80,88,92
1,81,83,92
1,83,90,92
1,85,96,92
1,86,93,92
1,88,93,92
1,90,88,92
1,92,85,92
1,93,103,92
1,95,100,92
1,97,106,92
1,98,102,92
1,97,85,92
1,100,102,92
1,105,108,92
1,104,87,92
1,102,81,92
1,100,101,92
1,98,100,92
1,97,91,92
1,98,88,92
1,96,93,92
1,94,80,92
1,93,81,92
1,91,81,92
1,89,80,92
1,88,80,92
1,86,86,92
1,85,97,92
1,88,100,92
1,93,111,92
1,88,91,92
1,85,95,92
1,81,96,92
1,88,91,92
1,85,91,92
1,81,105,92
1,76,90,92
1,85,97,92
1,81,103,92
1,76,103,92
1,73,80,92
1,81,101,92
1,76,101,92
1,74,103,92
1,71,95,92
1,74,103,92
1,77,92,92
1,80,97,92
1,83,87,92
1,86,110,92
1,89,91,92
1,92,91,92
1,95,93,92
1,92,91,92
1,89,90,92
1,86,100,92
1,83,83,92
1,80,87,92
1,83,91,92
1,86,103,72
1,89,96,92
1,95,101,92
1,89,93,92
1,86,96,92
1,83,90,92
1,89,88,92
1,86,98,92
1,83,80,92
1,77,85,92
1,86,97,92
1,83,81,92
1,77,90,92
1,74,81,92
1,83,93,92
1,77,91,92
1,76,102,92
1,73,91,84
1,76,103,92
1,79,101,92
1,82,88,92
1,85,97,92
1,88,96,92
1,91,91,92
1,94,98,92
1,97,100,92
1,94,81,92
1,91,81,92
1,88,81,92
1,85,81,92
1,82,81,92
1,85,88,92
1,88,90,20
1,91,93,92
1,97,83,92
1,91,93,92
1,88,83,92
1,85,88,92
1,91,96,92
1,88,97,92
1,85,83,92
1,79,92,92
1,88,97,92
1,85,91,92
1,79,97,92
1,76,91,92
1,85,85,92
1,79,98,92
1,81,102,92
1,84,97,92
1,89,95,92
1,84,91,92
1,81,86,92
1,77,92,92
1,84,101,92
1,81,93,92
1,77,87,92
1,72,85,92
1,81,85,92
1,77,85,92
1,72,90,92
1,69,86,92
1,77,95,92
1,72,87,92
1,70,81,92
1,74,96,92
1,79,101,92
1,74,96,92
1,70,88,92
1,74,93,92
1,70,88,92
1,67,98,92
1,65,82,92
1,69,92,92
1,74,93,92
1,69,82,92
1,65,87,92
1,69,91,92
1,65,82,92
1,62,92,92
1,61,70,92
1,64,87,92
1,69,91,92
1,68,67,92
1,67,80,92
1,66,55,92
1,65,61,92
1,64,70,92
1,63,60,92
1,62,80,92
1,61,65,92
1,60,63,92
1,59,66,92
1,58,55,92
1,57,87,92
1,56,73,92
1,57,91,92
1,58,71,92
1,57,82,92
1,58,67,92
1,57,72,92
1,58,68,92
1,57,76,92
1,58,71,92
1,60,96,92
1,61,75,92
1,60,73,92
1,61,63,92
1,60,78,92
1,61,71,92
1,60,80,92
1,61,86,92
1,63,92,92
1,61,85,92
1,63,85,92
1,61,86,92
1,60,83,92
1,58,87,92
1,60,91,92
1,58,87,92
1,57,103,92
1,58,96,92
1,60,86,92
1,62,106,92
1,64,92,92
1,65,92,92
1,67,108,92
1,69,106,92
1,70,92,92
1,72,92,92
1,70,91,92
1,69,91,92
1,70,97,92
1,73,91,92
1,72,96,92
1,70,92,92
1,69,96,92
1,70,92,92
1,69,92,92
1,67,65,92
1,69,85,92
1,72,90,92
1,70,96,92
1,69,92,92
1,67,108,92
1,70,86,92
1,69,88,92
1,67,92,92
1,65,97,92
1,69,85,92
1,67,93,92
1,65,91,92
1,64,81,92
1,65,87,92
1,67,96,92
1,69,93,92
1,70,88,92
1,67,98,92
1,64,100,92
1,58,103,92
1,57,92,92
1,58,72,92
1,57,91,92
1,58,71,92
1,57,92,92
1,58,86,92
1,57,93,92
1,58,81,92
1,60,103,92
1,61,98,92
1,60,101,92
1,61,86,92
1,60,92,92
1,61,92,92
1,60,100,92
1,61,93,92
1,63,100,92
1,61,100,92
1,63,96,92
1,61,75,92
1,60,92,92
1,58,83,92
1,60,83,92
1,58,87,92
1,57,103,92
1,58,86,92
1,60,100,92
1,62,105,92
1,64,92,92
1,65,83,92
1,67,101,92
1,69,100,92
1,70,91,92
1,72,93,92
1,70,86,92
1,69,100,92
1,70,90,92
1,73,88,92
1,72,93,92
1,70,85,92
1,69,103,92
1,72,92,92
1,70,83,92
1,69,91,92
1,65,92,92
1,69,86,92
1,67,105,92
1,65,88,92
1,75,88,92
1,77,93,92
1,75,82,92
1,74,101,92
1,75,102,92
1,78,87,92
1,77,93,92
1,75,91,92
1,73,98,92
1,77,101,92
1,75,98,92
1,73,97,92
1,70,98,92
1,73,93,92
1,72,107,92
1,70,106,92
1,77,103,92
1,78,86,92
1,77,96,92
1,75,105,92
1,77,103,92
1,80,106,92
1,78,98,92
1,77,100,92
1,75,96,92
1,78,92,92
1,77,106,92
1,75,91,92
1,72,112,92
1,75,87,92
1,73,110,92
1,72,110,92
1,78,88,92
1,80,103,92
1,78,98,92
1,77,93,92
1,78,88,92
1,82,111,92
1,80,107,92
1,78,103,92
1,77,103,92
1,80,118,92
1,78,92,92
1,77,105,92
1,73,106,92
1,77,98,92
1,75,102,92
1,73,100,92
1,75,111,92
1,78,98,92
1,77,97,92
1,75,97,92
1,72,106,92
1,75,101,92
1,73,111,92
1,72,106,92
1,73,93,92
1,77,91,92
1,75,78,92
1,73,73,92
1,70,82,92
1,73,78,92
1,72,91,92
1,70,71,92
1,72,88,92
1,75,53,92
1,73,81,92
1,72,81,92
1,69,83,92
1,72,85,92
1,70,58,92
1,69,83,92
1,70,87,92
1,73,68,92
1,72,87,92
1,70,80,92
1,66,73,92
1,70,72,92
1,68,63,92
1,66,63,92
1,61,88,92
1,65,71,92
1,63,73,92
1,61,86,92
1,58,87,92
1,61,81,92
1,60,92,92
1,58,77,92
1,54,78,92
1,53,73,92
1,54,73,92
1,55,91,92
1,56,76,92
1,55,77,92
1,56,81,92
1,57,100,92
1,58,101,92
1,57,91,92
1,58,80,92
1,59,92,92
1,60,96,92
1,59,82,92
1,60,93,92
1,61,80,92
1,62,97,92
1,61,88,92
1,62,97,92
1,63,100,92
1,64,97,92
1,63,101,92
1,64,86,92
1,65,95,92
1,66,107,92
1,65,96,92
1,66,101,92
1,67,106,92
1,68,113,92
1,67,105,92
1,68,113,92
1,69,107,92
1,70,95,92
1,69,96,92
1,70,98,92
1,71,100,92
1,72,101,92
1,71,103,92
1,72,105,92
1,73,106,92
1,74,127,92
1,70,76,92
1,77,87,144
1,70,55,96
1,82,85,144
1,74,52,96
1,84,81,144
1,75,50,96
1,86,81,144
1,77,48,96
1,82,75,144
1,77,47,96
1,77,72,144
1,70,55,96
1,75,68,144
1,69,45,96
1,74,58,144
1,70,45,96
1,77,67,144
1,70,45,96
1,82,66,144
1,74,45,96
1,84,73,144
1,75,45,96
1,86,61,144
1,77,45,96
1,89,68,144
1,77,45,96
1,89,68,144
1,77,45,96
1,89,70,144
1,77,45,96
1,89,67,144
1,77,45,96
1,87,71,144
1,75,45,96
1,86,67,144
1,74,45,96
1,84,65,144
1,72,45,96
1,84,70,144
1,72,45,96
1,82,67,144
1,70,45,96
1,81,68,144
1,69,45,96
1,79,65,144
1,67,45,96
1,81,68,144
1,69,45,96
1,82,63,144
1,70,45,96
1,79,63,144
1,67,45,96
1,86,66,144
1,74,45,96
1,81,70,144
1,69,45,96
1,82,66,144
1,70,45,96
1,79,67,144
1,67,45,96
1,77,62,144
1,65,45,96
1,74,62,144
1,65,38,96
1,77,66,144
1,70,45,96
1,82,60,144
1,74,45,96
1,84,71,144
1,75,45,96
1,86,68,144
1,77,45,96
1,82,67,144
1,74,45,96
1,77,70,144
1,70,45,96
1,75,51,144
1,69,45,96
1,74,62,144
1,65,45,96
1,77,70,144
1,70,45,96
1,82,70,144
1,77,45,96
1,84,65,144
1,75,45,96
1,86,68,144
1,77,45,96
1,89,70,144
1,77,45,96
1,89,67,144
1,77,45,96
1,89,70,144
1,77,45,96
1,87,72,144
1,79,45,96
1,86,65,144
1,80,45,96
1,91,66,144
1,79,45,96
1,89,67,144
1,77,45,96
1,87,60,144
1,75,45,96
1,91,61,144
1,79,45,96
1,91,68,144
1,79,45,96
1,91,72,144
1,79,45,96
1,89,68,144
1,81,45,96
1,88,65,144
1,82,45,96
1,93,73,144
1,81,45,96
1,91,65,144
1,79,45,96
1,89,67,144
1,77,45,96
1,93,71,144
1,81,45,96
1,91,65,144
1,79,45,96
1,89,62,144
1,77,45,96
1,91,63,144
1,79,45,96
1,93,71,144
1,81,45,96
1,94,61,144
1,82,45,96
1,96,66,144
1,84,45,96
1,98,72,144
1,86,45,96
1,93,75,144
1,81,45,96
1,94,66,144
1,82,43,96
1,90,70,144
1,78,35,96
1,91,70,144
1,79,45,96
1,86,66,144
1,74,35,96
1,87,67,144
1,75,45,96
1,91,68,144
1,79,45,96
1,82,63,144
1,75,35,96
1,81,67,144
1,75,35,96
1,79,72,144
1,75,35,96
1,77,67,144
1,75,35,96
1,98,75,144
1,86,45,96
1,93,67,144
1,84,35,96
1,94,62,144
1,82,45,96
1,90,66,144
1,80,36,96
1,91,73,144
1,79,45,96
1,86,70,144
1,77,45,96
1,87,72,144
1,75,43,96
1,91,72,144
1,79,45,96
1,82,75,144
1,75,35,96
1,81,67,144
1,89,65,0
1,75,37,96
1,79,71,144
1,75,41,96
1,77,70,144
1,75,37,96
1,84,72,144
1,77,45,96
1,83,55,144
1,91,67,0
1,77,35,96
1,81,61,144
1,77,45,96
1,79,55,144
1,77,41,96
1,89,70,144
1,82,45,96
1,88,67,144
1,96,71,0
1,82,45,96
1,86,72,144
1,82,45,96
1,84,67,144
1,82,45,96
1,96,75,40
1,102,68,0
1,93,45,96
1,93,45,144
1,99,45,0
1,89,45,96
1,87,55,160
1,93,55,0
1,84,55,96
1,81,55,160
1,87,55,0
1,77,55,96
1,61,77,40
1,64,86,96
1,67,96,92
1,70,85,92
1,73,83,92
1,70,76,92
1,67,87,92
1,64,85,92
1,61,70,92
1,58,71,92
1,55,85,92
1,52,85,92
1,49,85,92
1,52,97,92
1,55,87,92
1,58,81,92
1,61,80,92
1,64,87,92
1,67,92,92
1,70,82,92
1,73,85,92
1,70,76,92
1,67,88,92
1,64,86,92
1,61,77,92
1,58,70,92
1,55,86,92
1,52,90,92
1,49,70,92
1,52,87,92
1,55,75,92
1,58,81,92
1,61,75,92
1,64,87,92
1,67,96,92
1,70,87,92
1,73,91,92
1,70,73,92
1,67,92,92
1,64,82,92
1,61,81,92
1,58,70,92
1,55,70,92
1,52,80,92
1,49,88,92
1,52,91,92
1,55,78,92
1,58,78,92
1,60,72,92
1,65,85,92
1,70,70,92
1,72,86,92
1,77,81,92
1,72,93,92
1,70,76,92
1,65,72,92
1,60,88,92
1,65,88,92
1,69,87,92
1,72,107,92
1,77,100,92
1,72,91,92
1,69,91,92
1,65,87,92
1,61,71,92
1,64,86,92
1,67,101,92
1,70,86,92
1,73,88,92
1,70,80,92
1,67,83,92
1,64,83,92
1,61,81,92
1,58,70,92
1,55,77,92
1,52,82,92
1,49,77,92
1,52,93,92
1,55,82,92
1,58,90,92
1,61,97,92
1,64,97,92
1,67,97,92
1,70,100,92
1,73,100,92
1,70,77,92
1,67,91,92
1,64,83,92
1,61,76,92
1,58,70,92
1,55,80,92
1,52,87,92
1,49,85,92
1,52,92,92
1,55,88,92
1,58,83,92
1,61,96,92
1,64,92,92
1,67,102,92
1,70,93,92
1,73,92,92
1,70,73,92
1,67,95,92
1,64,86,92
1,61,82,92
1,58,76,92
1,55,95,92
1,52,91,92
1,49,72,92
1,52,91,92
1,55,82,92
1,58,77,92
1,60,86,92
1,65,88,92
1,70,82,92
1,72,87,92
1,77,98,92
1,72,100,92
1,70,77,92
1,65,101,92
1,60,85,92
1,65,86,92
1,69,88,92
1,72,87,92
1,77,93,92
1,72,95,92
1,69,92,92
1,65,98,92
1,70,81,92
1,74,97,92
1,77,90,92
1,70,85,92
1,65,86,92
1,70,82,92
1,74,87,92
1,65,75,92
1,66,90,92
1,69,97,92
1,75,86,92
1,66,76,92
1,63,83,92
1,66,82,92
1,72,103,92
1,63,96,92
1,65,88,92
1,70,85,92
1,74,103,92
1,65,100,92
1,62,82,92
1,65,92,92
1,70,92,92
1,62,72,92
1,63,77,92
1,69,97,92
1,72,98,92
1,63,90,92
1,60,77,92
1,63,77,92
1,69,78,92
1,60,77,92
1,74,102,92
