track,note,velocity,time
1,71,98,478
1,73,110,3
1,76,114,0
1,73,0,417
1,76,0,30
1,71,0,0
1,76,112,30
1,69,108,3
1,71,112,0
1,71,0,417
1,76,0,0
1,69,0,1
1,76,110,62
1,73,114,0
1,71,104,0
1,71,0,447
1,73,0,0
1,76,0,0
1,69,108,33
1,71,110,0
1,76,114,0
1,71,0,417
1,69,0,1
1,76,0,29
1,76,110,33
1,71,104,0
1,73,112,0
1,73,0,417
1,71,0,30
1,76,0,0
1,71,104,33
1,76,118,0
1,69,100,0
1,69,0,447
1,76,0,0
1,71,0,0
1,76,106,33
1,73,110,0
1,71,100,0
1,71,0,447
1,73,0,0
1,76,0,0
1,76,112,33
1,69,100,0
1,71,110,0
1,71,0,357
1,69,0,0
1,76,0,30
1,71,118,93
1,73,124,0
1,76,127,0
1,73,0,447
1,71,0,0
1,76,0,3
1,76,120,30
1,69,114,0
1,71,120,1
1,71,0,416
1,69,0,0
1,76,0,3
1,71,110,60
1,76,116,0
1,73,120,0
1,73,0,447
1,76,0,0
1,71,0,0
1,71,114,30
1,76,120,3
1,69,114,0
1,69,0,417
1,71,0,0
1,76,0,30
1,76,116,33
1,71,106,0
1,73,120,1
1,73,0,447
1,76,0,0
1,71,0,2
1,69,110,27
1,71,118,3
1,76,120,0
1,71,0,417
1,69,0,0
1,76,0,31
1,76,114,29
1,71,102,3
1,73,116,0
1,76,0,449
1,73,0,1
1,71,0,0
1,76,120,30
1,69,108,0
1,71,112,1
1,71,0,386
1,76,0,0
1,69,0,1
1,71,112,92
1,76,120,1
1,73,120,0
1,76,0,180
1,71,0,0
1,73,0,26
1,71,116,273
1,76,122,0
1,69,110,1
1,71,0,206
1,69,0,1
1,76,0,32
1,71,112,240
1,73,124,0
1,76,120,0
1,66,124,1
1,76,0,270
1,66,0,31
1,73,0,0
1,71,0,1
1,61,122,59
1,61,0,118
1,69,110,1
1,71,120,0
1,76,122,1
1,62,112,0
1,62,0,117
1,66,124,2
1,66,0,118
1,64,124,2
1,71,0,56
1,69,0,30
1,76,0,32
1,64,0,0
1,62,124,3
1,62,0,120
1,71,116,0
1,76,122,2
1,73,122,0
1,64,126,0
1,76,0,293
1,64,0,64
1,73,0,0
1,71,0,1
1,69,110,118
1,71,118,1
1,76,120,0
1,71,0,360
1,69,0,0
1,76,0,28
1,71,114,91
1,73,122,1
1,76,122,0
1,66,126,0
1,66,0,330
1,62,122,30
1,71,0,60
1,73,0,1
1,76,0,27
1,62,0,32
1,69,114,0
1,71,118,0
1,76,120,0
1,64,127,1
1,69,0,385
1,71,0,1
1,76,0,1
1,64,0,0
1,76,114,7773
1,73,112,0
1,71,104,0
1,73,0,415
1,71,0,30
1,76,0,0
1,69,112,30
1,71,120,3
1,76,122,0
1,71,0,417
1,76,0,1
1,69,0,0
1,71,114,62
1,73,116,0
1,76,120,0
1,73,0,417
1,71,0,0
1,76,0,1
1,71,110,59
1,69,114,3
1,76,120,0
1,69,0,418
1,71,0,0
1,76,0,2
1,71,110,60
1,73,116,0
1,76,118,0
1,76,0,447
1,73,0,0
1,71,0,1
1,69,114,32
1,71,116,0
1,76,120,0
1,71,0,417
1,69,0,0
1,76,0,1
1,71,106,59
1,76,118,3
1,73,120,0
1,73,0,447
1,76,0,0
1,71,0,1
1,76,122,32
1,69,114,0
1,71,112,1
1,71,0,388
1,69,0,1
1,76,0,0
1,76,120,15451
1,71,112,0
1,73,120,1
1,71,0,180
1,76,0,0
1,73,0,25
1,69,110,273
1,71,116,1
1,76,122,0
1,71,0,206
1,69,0,0
1,76,0,34
1,71,112,239
1,76,120,0
1,73,124,1
1,66,124,0
1,76,0,269
1,71,0,32
1,73,0,0
1,66,0,0
1,61,122,59
1,61,0,120
1,76,122,0
1,71,120,1
1,69,110,0
1,62,112,0
1,62,0,115
1,66,124,3
1,66,0,120
1,64,124,1
1,71,0,56
1,69,0,30
1,76,0,34
1,64,0,0
1,62,124,0
1,76,122,120
1,62,0,1
1,71,116,0
1,73,122,0
1,64,126,0
1,76,0,295
1,71,0,63
1,73,0,0
1,64,0,0
1,69,110,120
1,71,118,0
1,76,120,0
1,71,0,358
1,69,0,2
1,76,0,27
1,76,122,93
1,71,114,0
1,73,122,1
1,66,126,0
1,66,0,328
1,62,122,32
1,71,0,59
1,73,0,1
1,76,0,26
1,62,0,32
1,76,120,2
1,69,114,0
1,71,118,0
1,64,127,0
1,69,0,386
1,76,0,0
1,71,0,1
1,64,0,0
1,73,112,7774
1,76,114,2
1,71,104,0
1,73,0,413
1,71,0,30
1,76,0,0
1,69,112,33
1,71,120,0
1,76,122,0
1,69,0,417
1,76,0,3
1,71,0,0
1,73,116,57
1,76,120,3
1,71,114,0
1,76,0,417
1,73,0,0
1,71,0,1
1,71,110,59
1,76,120,3
1,69,114,1
1,69,0,416
1,71,0,0
1,76,0,1
1,73,116,62
1,71,110,0
1,76,118,0
1,76,0,447
1,71,0,0
1,73,0,0
1,76,120,33
1,69,114,0
1,71,116,0
1,71,0,417
1,69,0,0
1,76,0,1
1,76,118,59
1,71,106,3
1,73,120,0
1,73,0,447
1,71,0,0
1,76,0,0
2,33,127,2401
2,33,0,56
2,33,127,64
2,33,0,26
2,33,127,3
2,33,0,28
2,33,127,32
2,33,0,31
2,33,127,29
2,33,0,30
2,33,127,30
2,33,0,30
2,32,127,1
2,32,0,57
2,30,127,2
2,30,0,58
2,28,127,3
2,28,0,56
2,28,127,63
2,28,0,28
2,28,127,2
2,28,0,28
2,28,127,32
2,28,0,31
2,28,127,29
2,28,0,30
2,28,127,30
2,28,0,2
2,30,127,29
2,30,0,57
2,32,127,2
2,32,0,58
2,33,127,3
2,33,0,85
2,33,127,34
2,33,0,30
2,33,127,1
2,33,0,28
2,33,127,31
2,33,0,30
2,33,127,30
2,33,0,30
2,33,127,30
2,33,0,30
2,32,127,1
2,32,0,57
2,30,127,2
2,30,0,58
2,28,127,3
2,28,0,55
2,40,127,4
2,40,0,60
2,28,127,1
2,28,0,88
2,33,127,272
2,33,0,56
2,33,127,64
2,33,0,56
2,33,127,33
2,33,0,27
2,33,127,33
2,33,0,30
2,33,127,30
2,33,0,31
2,32,127,0
2,32,0,56
2,30,127,3
2,30,0,58
2,28,127,3
2,28,0,85
2,28,127,35
2,28,0,57
2,28,127,32
2,28,0,30
2,28,127,30
2,28,0,30
2,28,127,30
2,28,0,31
2,30,127,0
2,30,0,58
2,32,127,2
2,32,0,57
2,33,127,3
2,33,0,85
2,33,127,35
2,33,0,58
2,33,127,31
2,33,0,30
2,33,127,30
2,33,0,30
2,33,127,30
2,33,0,30
2,32,127,1
2,32,0,57
2,30,127,2
2,30,0,58
2,28,127,3
2,28,0,86
2,28,127,34
2,28,0,57
2,28,127,32
2,28,0,31
2,28,127,30
2,28,0,27
2,28,127,32
2,28,0,31
2,30,127,0
2,30,0,56
2,32,127,3
2,32,0,58
2,33,127,3
2,33,0,86
2,33,127,34
2,33,0,56
2,33,127,33
2,33,0,32
2,33,127,29
2,33,0,26
2,33,127,33
2,33,0,31
2,32,127,1
2,32,0,56
2,30,127,2
2,30,0,58
2,28,127,3
2,28,0,87
2,28,127,33
2,28,0,60
2,28,127,29
2,28,0,32
2,28,127,29
2,28,0,26
2,28,127,33
2,28,0,30
2,30,127,2
2,30,0,55
2,32,127,3
2,32,0,58
2,33,127,3
2,33,0,87
2,33,127,33
2,33,0,56
2,33,127,33
2,33,0,32
2,33,127,28
2,33,0,27
2,33,127,33
2,33,0,31
2,32,127,1
2,32,0,56
2,30,127,3
2,30,0,57
2,28,127,3
2,28,0,87
2,28,127,33
2,28,0,58
2,28,127,31
2,28,0,32
2,28,127,28
2,28,0,28
2,28,127,32
2,28,0,28
2,30,127,3
2,30,0,57
2,32,127,2
2,32,0,58
2,33,127,3
2,33,0,57
2,33,127,63
2,33,0,60
2,33,127,29
2,33,0,30
2,33,127,31
2,33,0,26
2,33,127,33
2,32,127,31
2,33,0,31
2,32,0,26
2,30,127,2
2,30,0,58
2,28,127,3
2,28,0,85
2,28,127,35
2,28,0,61
2,28,127,28
2,28,0,60
2,40,127,1
2,40,0,26
2,28,127,33
2,28,0,28
2,28,127,4
2,28,0,55
2,40,127,3
2,40,0,58
2,33,127,3
2,33,0,56
2,33,127,64
2,33,0,58
2,33,127,32
2,33,0,33
2,33,127,27
2,33,0,28
2,33,127,31
2,33,0,30
2,32,127,1
2,32,0,57
2,30,127,2
2,30,0,58
2,28,127,3
2,28,0,56
2,40,127,3
2,40,0,60
2,28,127,2
2,28,0,85
2,28,127,34
2,28,0,1
2,28,127,29
2,28,0,26
2,28,127,33
2,28,0,31
2,30,127,1
2,30,0,58
2,32,127,0
2,32,0,58
2,33,127,3
2,33,0,56
2,33,127,64
2,33,0,60
2,33,127,29
2,33,0,32
2,33,127,28
2,33,0,27
2,33,127,33
2,32,127,31
2,33,0,1
2,32,0,57
2,30,127,1
2,30,0,57
2,28,127,4
2,28,0,57
2,28,127,63
2,28,0,60
2,28,127,29
2,40,127,60
2,28,0,2
2,40,0,24
2,28,127,34
2,28,0,31
2,28,127,1
2,28,0,57
2,40,127,1
2,40,0,58
2,33,127,3
2,33,0,57
2,33,127,63
2,33,0,57
2,33,127,32
2,33,0,33
2,33,127,28
2,33,0,25
2,33,127,34
2,33,0,28
2,32,127,4
2,32,0,58
2,30,127,0
2,30,0,58
2,28,127,3
2,28,0,57
2,40,127,2
2,40,0,56
2,28,127,5
2,28,0,57
2,28,127,32
2,28,0,31
2,28,127,30
2,28,0,26
2,28,127,33
2,28,0,31
2,30,127,0
2,30,0,58
2,32,127,1
2,32,0,58
2,33,127,3
2,33,0,27
2,33,127,93
2,33,0,56
2,33,127,33
2,33,0,30
2,33,127,30
2,33,0,28
2,33,127,32
2,33,0,30
2,32,127,1
2,32,0,57
2,30,127,2
2,30,0,58
2,28,127,3
2,28,0,86
2,28,127,34
2,28,0,56
2,28,127,33
2,28,0,27
2,28,127,33
2,28,0,28
2,28,127,32
2,28,0,31
2,30,127,0
2,30,0,57
2,32,127,2
2,32,0,58
2,33,127,3
2,33,0,86
2,33,127,34
2,33,0,57
2,33,127,32
2,33,0,31
2,33,127,29
2,33,0,28
2,33,127,32
2,33,0,31
2,32,127,0
2,32,0,56
2,30,127,3
2,30,0,58
2,28,127,3
2,28,0,55
2,40,127,4
2,40,0,58
2,28,127,3
2,28,0,60
2,28,127,60
2,28,0,1
2,28,127,28
2,28,0,27
2,28,127,33
2,28,0,27
2,30,127,4
2,30,0,56
2,32,127,4
2,32,0,60
2,33,127,0
2,33,0,85
2,33,127,35
2,33,0,58
2,33,127,31
2,33,0,28
2,33,127,32
2,33,0,30
2,33,127,30
2,33,0,30
2,32,127,1
2,32,0,57
2,30,127,2
2,30,0,58
2,28,127,3
2,28,0,57
2,28,127,63
2,28,0,57
2,28,127,32
2,28,0,30
2,28,127,30
2,28,0,30
2,28,127,30
2,30,127,31
2,28,0,1
2,30,0,55
2,32,127,3
2,32,0,58
2,33,127,3
2,33,0,86
2,33,127,34
2,33,0,53
2,33,127,36
2,33,0,31
2,33,127,29
2,33,0,27
2,33,127,33
2,33,0,28
2,32,127,3
2,32,0,57
2,30,127,2
2,30,0,58
2,28,127,3
2,28,0,55
2,40,127,4
2,40,0,58
2,28,127,3
2,28,0,56
2,28,127,64
2,28,0,1
2,28,127,58
2,28,0,1
2,28,127,60
2,30,127,0
2,28,0,1
2,32,127,58
2,30,0,1
2,32,0,57
2,33,127,3
2,33,0,87
2,33,127,33
2,33,0,60
2,33,127,29
2,33,0,31
2,33,127,29
2,33,0,27
2,33,127,33
2,33,0,28
2,32,127,4
2,32,0,56
2,30,127,2
2,30,0,58
2,28,127,3
2,28,0,58
2,28,127,62
2,28,0,57
2,28,127,32
2,28,0,58
2,40,127,2
2,40,0,27
2,28,127,33
2,28,0,27
2,28,127,4
2,28,0,57
2,40,127,2
2,40,0,57
2,33,127,4
2,33,0,91
2,33,127,29
2,33,0,61
2,33,127,28
2,33,0,33
2,33,127,28
2,33,0,26
2,33,127,33
2,33,0,28
2,32,127,3
2,32,0,57
2,30,127,2
2,30,0,58
2,28,127,3
2,28,0,58
2,40,127,2
2,40,0,55
2,28,127,5
2,28,0,60
2,28,127,29
2,28,0,35
2,28,127,26
2,28,0,27
2,28,127,32
2,28,0,28
2,30,127,3
2,30,0,57
2,32,127,2
2,32,0,58
2,33,127,3
2,33,0,86
2,33,127,34
2,33,0,58
2,33,127,31
2,33,0,32
2,33,127,29
2,33,0,27
2,33,127,32
2,33,0,28
2,32,127,3
2,32,0,57
2,30,127,2
2,30,0,61
2,28,127,0
2,28,0,57
2,40,127,2
2,40,0,26
2,28,127,35
2,28,0,28
2,28,127,61
2,28,0,32
2,28,127,28
2,28,0,27
2,28,127,33
2,28,0,1
2,30,127,30
2,30,0,57
2,32,127,2
2,32,0,57
2,33,127,4
2,33,0,88
2,33,127,32
2,33,0,58
2,33,127,31
2,33,0,33
2,33,127,27
2,33,0,28
2,33,127,32
2,33,0,28
2,32,127,4
2,32,0,56
2,30,127,2
2,30,0,57
2,28,127,4
2,28,0,57
2,40,127,2
2,40,0,58
2,28,127,3
2,28,0,60
2,28,127,29
2,28,0,33
2,28,127,27
2,28,0,30
2,28,127,30
2,28,0,27
2,30,127,4
2,30,0,57
2,32,127,2
2,32,0,58
2,33,127,3
2,33,0,56
2,33,127,3784
2,33,0,57
2,33,127,333
2,33,0,28
2,32,127,2
2,32,0,28
2,30,127,2
2,30,0,27
2,28,127,3
2,28,0,58
2,28,127,331
2,28,0,30
2,30,127,1
2,30,0,28
2,32,127,2
2,32,0,27
2,33,127,3
2,33,0,56
2,33,127,334
2,32,127,30
2,33,0,27
2,32,0,1
2,30,127,2
2,30,0,26
2,28,127,4
2,28,0,56
2,40,127,3
2,40,0,30
2,28,127,31
2,28,0,26
2,28,127,33
2,28,0,2
2,40,127,29
2,40,0,208
2,33,127,62
2,33,0,57
2,33,127,333
2,33,0,28
2,32,127,2
2,32,0,28
2,30,127,2
2,30,0,27
2,28,127,3
2,28,0,58
2,28,127,332
2,28,0,26
2,30,127,4
2,30,0,26
2,32,127,3
2,32,0,28
2,33,127,3
2,33,0,86
2,33,127,304
2,32,127,30
2,33,0,1
2,32,0,27
2,30,127,2
2,30,0,26
2,28,127,4
2,28,0,56
2,40,127,4
2,40,0,27
2,28,127,34
2,28,0,25
2,28,127,33
2,28,0,30
2,40,127,1
2,40,0,120
2,33,127,150
2,33,0,25
2,33,127,95
2,33,0,57
2,33,127,32
2,33,0,31
2,33,127,29
2,33,0,30
2,33,127,30
2,33,0,30
2,32,127,1
2,32,0,57
2,30,127,2
2,30,0,53
2,28,127,8
2,28,0,86
2,28,127,34
2,28,0,57
2,28,127,32
2,28,0,30
2,28,127,30
2,28,0,28
2,28,127,32
2,28,0,31
2,30,127,0
2,30,0,57
2,32,127,2
2,32,0,58
2,33,127,3
2,33,0,88
2,33,127,32
2,33,0,57
2,33,127,32
2,33,0,31
2,33,127,29
2,33,0,30
2,33,127,30
2,32,127,31
2,33,0,1
2,32,0,55
2,30,127,3
2,30,0,58
2,28,127,3
2,28,0,56
2,40,127,3
2,40,0,58
2,28,127,3
2,28,0,56
2,28,127,64
2,28,0,1
2,28,127,28
2,28,0,30
2,28,127,30
2,28,0,28
2,30,127,3
2,30,0,56
2,32,127,3
2,32,0,58
2,33,127,3
2,33,0,85
2,33,127,35
2,33,0,57
2,33,127,32
2,33,0,30
2,33,127,30
2,33,0,30
2,33,127,30
2,33,0,30
2,32,127,1
2,32,0,57
2,30,127,2
2,30,0,58
2,28,127,3
2,28,0,56
2,28,127,64
2,28,0,58
2,28,127,31
2,28,0,30
2,28,127,30
2,28,0,30
2,28,127,30
2,28,0,28
2,30,127,3
2,30,0,57
2,32,127,2
2,32,0,58
2,33,127,3
2,33,0,86
2,33,127,34
2,33,0,56
2,33,127,33
2,33,0,30
