track,note,velocity,time
1,61,104,26112
1,61,51,192
1,60,104,58
1,58,115,77
1,56,115,111
1,51,104,288
1,56,115,63
1,58,115,0
1,61,104,459
1,61,94,52
1,60,104,42
1,58,104,71
1,56,104,101
1,56,115,55
1,51,115,7
1,56,115,55
1,58,104,33
1,63,33,328
1,64,104,0
1,65,94,0
1,63,104,29
1,61,115,74
1,60,104,115
1,58,104,288
1,60,104,40
1,61,94,0
1,60,115,44
1,60,94,386
1,61,104,0
1,60,127,3
1,58,104,81
1,56,115,111
1,51,94,14
1,56,104,25
1,58,104,0
1,68,115,411
1,65,112,384
1,65,86,87
1,67,86,0
1,65,115,30
1,63,115,35
1,63,115,93
1,56,115,86
1,63,115,22
1,61,104,192
1,59,104,179
1,58,115,58
1,59,73,0
1,58,104,6
1,56,115,3
1,56,127,87
1,58,127,26
1,68,115,332
1,65,115,36
1,67,115,57
1,65,127,384
1,63,115,60
1,63,115,80
1,61,115,108
1,63,86,0
1,61,115,31
1,59,115,6
1,58,115,34
1,56,115,4
1,56,115,132
1,58,115,34
1,58,115,363
1,58,104,98
1,56,115,94
1,58,104,44
1,60,104,0
1,58,115,39
1,56,104,472
1,56,115,60
1,58,115,33
1,58,115,32
1,63,104,77
1,58,104,47
1,60,73,0
1,58,104,33
1,56,115,8
1,56,115,455
1,58,104,0
1,58,127,110
1,56,104,104
1,58,115,58
1,60,104,0
1,58,115,37
1,68,115,888
1,65,127,22
1,67,104,131
1,63,115,116
1,65,115,192
1,58,115,81
1,58,127,85
1,56,104,88
1,58,104,41
1,60,104,0
1,58,127,19
1,56,104,445
1,56,104,60
1,58,115,46
1,58,115,37
1,63,94,87
1,58,104,54
1,60,94,0
1,58,104,18
1,56,115,5
1,56,104,463
1,58,115,0
1,58,127,94
1,56,104,105
1,58,115,51
1,60,104,0
1,58,127,40
1,61,127,2056
1,60,127,13
1,58,115,65
1,56,127,87
1,51,115,12
1,56,115,60
1,58,104,0
1,61,115,592
1,60,127,48
1,58,127,68
1,56,115,89
1,51,115,8
1,56,94,40
1,58,104,0
1,65,127,438
1,63,115,43
1,61,115,6
1,60,115,26
1,58,115,10
1,60,115,52
1,61,115,0
1,60,127,34
1,60,104,379
1,61,104,0
1,60,127,28
1,58,104,70
1,56,127,104
1,60,127,64
1,56,104,18
1,58,104,0
1,68,127,462
1,65,115,15
1,65,94,85
1,67,73,0
1,65,127,30
1,63,104,81
1,63,115,25
1,63,51,0
1,61,104,202
1,63,104,0
1,61,115,24
1,59,115,192
1,58,104,47
1,59,73,0
1,58,115,9
1,56,115,480
1,56,104,100
1,58,104,40
1,68,127,218
1,70,115,384
1,65,104,53
1,67,94,0
1,65,127,16
1,65,104,133
1,63,104,116
1,65,115,0
1,65,115,103
1,58,115,106
1,60,104,0
1,63,104,209
1,61,115,39
1,59,115,5
1,58,94,70
1,59,104,0
1,58,104,26
1,58,115,1218
1,58,127,70
1,56,104,99
1,58,104,43
1,60,104,0
1,58,115,38
1,56,79,465
1,56,115,59
1,58,104,43
1,58,115,20
1,63,94,86
1,58,104,50
1,59,79,0
1,60,104,0
1,58,127,11
1,56,104,96
1,56,115,522
1,58,104,0
1,58,115,94
1,56,115,107
1,58,115,46
1,60,104,0
1,58,127,57
1,68,115,837
1,65,127,384
1,67,115,125
1,63,115,120
1,65,104,5
1,56,104,81
1,58,104,0
1,58,115,71
1,56,104,87
1,58,115,44
1,60,94,0
1,58,127,35
1,56,104,431
1,56,115,64
1,58,104,0
1,58,115,98
1,63,94,80
1,58,59,44
1,58,115,0
1,59,104,0
1,60,86,0
1,58,104,42
1,56,115,15
1,56,86,97
1,58,115,0
1,56,127,22
1,56,104,99
1,58,115,0
1,58,127,72
1,56,94,100
1,58,104,54
1,60,104,0
1,58,115,18
1,68,104,914
1,70,104,384
1,65,127,110
1,67,86,0
1,65,127,1
1,63,104,31
1,65,104,44
1,60,82,50
1,63,99,0
1,58,89,70
1,63,89,0
1,56,85,173
1,63,85,0
1,58,85,64
1,63,85,0
1,67,36,96
1,68,100,0
1,67,71,9
1,65,100,43
1,63,89,26
1,63,79,33
1,63,32,0
1,65,89,1
1,60,92,46
1,63,80,0
1,58,69,87
1,63,80,0
1,68,94,408
1,70,105,384
1,65,76,104
1,67,84,0
1,65,105,19
1,63,94,20
1,65,105,4
1,60,115,23
1,63,115,0
1,58,94,69
1,63,104,0
1,59,64,288
1,60,100,0
1,58,100,77
1,58,89,44
1,56,112,21
1,56,89,44
1,56,94,136
1,63,94,0
1,58,90,71
1,63,90,0
1,60,112,192
1,61,100,192
1,63,32,0
1,60,100,45
1,58,112,89
1,58,100,118
1,60,89,0
1,56,112,24
1,60,95,0
1,63,95,0
1,58,84,76
1,63,84,0
1,68,127,7898
1,65,127,25
1,65,104,80
1,67,104,0
1,65,115,23
1,63,104,127
1,63,115,71
1,56,104,162
1,63,115,30
1,61,115,192
1,59,104,183
1,58,104,70
1,59,63,0
1,60,73,0
1,58,115,13
1,56,127,480
1,56,104,92
1,58,115,0
1,68,127,419
1,70,104,384
1,65,94,39
1,67,104,0
1,65,115,23
1,63,104,116
1,65,115,0
1,63,115,103
1,61,115,185
1,63,94,0
1,61,115,21
1,59,115,0
1,58,115,24
1,56,115,18
1,56,115,95
1,58,115,38
1,63,115,1117
1,61,104,96
1,59,127,88
1,59,115,66
1,57,13,73
1,58,115,0
1,58,115,108
1,56,104,8
1,54,104,96
1,68,94,1352
1,70,94,0
1,68,94,16
1,66,104,0
1,68,115,26
1,63,104,17
1,66,104,6
1,68,104,11
1,70,104,132
1,71,104,100
1,68,94,41
1,70,104,0
1,68,115,31
1,66,86,1723
1,68,94,0
1,66,115,102
1,63,94,96
1,66,104,132
1,63,73,96
1,66,55,137
1,63,79,96
1,66,63,123
1,63,51,1
1,66,51,117
1,63,41,96
1,64,94,12100
1,63,104,96
1,59,115,12
1,56,104,12
1,61,104,1757
1,59,104,89
1,56,115,99
1,58,104,23
1,56,104,2
1,54,86,9
2,58,86,1536
2,65,104,0
2,68,86,0
2,61,104,0
2,56,104,30
2,65,104,0
2,60,104,0
2,67,94,2
2,59,104,0
2,55,86,0
2,63,104,0
2,65,94,22
2,54,94,4
2,58,94,0
2,63,104,0
2,60,104,3
2,63,86,0
2,53,86,0
2,57,79,0
2,56,94,23
2,63,94,0
2,59,104,0
2,52,86,0
2,61,104,192
2,59,104,184
2,58,86,40
2,58,51,73
2,56,104,0
2,51,104,22
2,56,94,0
2,63,86,0
2,58,94,0
2,55,86,196
2,63,73,0
2,51,79,0
2,58,86,0
2,61,94,60
2,65,94,0
2,68,94,0
2,58,73,0
2,56,104,20
2,65,94,0
2,60,104,0
2,59,104,1
2,67,86,0
2,63,104,0
2,55,79,0
2,65,94,43
2,58,104,64
2,63,104,0
2,54,94,0
2,63,94,2
2,57,79,0
2,60,104,0
2,53,94,0
2,59,104,15
2,63,79,0
2,56,86,0
2,52,79,0
2,61,94,61
2,59,104,3
2,58,86,12
2,56,73,0
2,58,86,24960
2,65,104,0
2,68,86,0
2,61,104,0
2,56,104,30
2,65,104,0
2,60,104,0
2,67,94,2
2,59,104,0
2,55,86,0
2,63,104,0
2,65,94,22
2,54,94,4
2,58,94,0
2,63,104,0
2,60,104,3
2,63,86,0
2,53,86,0
2,57,79,0
2,56,94,23
2,63,94,0
2,59,104,0
2,52,86,0
2,61,104,192
2,59,104,184
2,58,86,40
2,58,51,73
2,56,104,0
2,51,104,22
2,56,94,0
2,63,86,0
2,58,94,0
2,55,86,196
2,63,73,0
2,51,79,0
2,58,86,0
2,61,94,60
2,65,94,0
2,68,94,0
2,58,73,0
2,56,104,20
2,65,94,0
2,60,104,0
2,59,104,1
2,67,86,0
2,63,104,0
2,55,79,0
2,65,94,43
2,58,104,64
2,63,104,0
2,54,94,0
2,63,94,2
2,57,79,0
2,60,104,0
2,53,94,0
2,59,104,15
2,63,79,0
2,56,86,0
2,52,79,0
2,61,94,61
2,59,104,3
2,58,86,12
2,56,73,0
2,58,86,24960
2,65,104,0
2,68,86,0
2,61,104,0
2,56,104,30
2,65,104,0
2,60,104,0
2,67,94,2
2,59,104,0
2,55,86,0
2,63,104,0
2,65,94,22
2,54,94,4
2,58,94,0
2,63,104,0
2,60,104,3
2,63,86,0
2,53,86,0
2,57,79,0
2,56,94,23
2,63,94,0
2,59,104,0
2,52,86,0
2,61,104,192
2,59,104,184
2,58,86,40
2,58,51,73
2,56,104,0
2,51,104,22
2,56,94,0
2,63,86,0
2,58,94,0
2,55,86,196
2,63,73,0
2,51,79,0
2,58,86,0
2,61,94,60
2,65,94,0
2,68,94,0
2,58,73,0
2,56,104,20
2,65,94,0
2,60,104,0
2,59,104,1
2,67,86,0
2,63,104,0
2,55,79,0
2,65,94,43
2,58,104,64
2,63,104,0
2,54,94,0
2,63,94,2
2,57,79,0
2,60,104,0
2,53,94,0
2,59,104,15
2,63,79,0
2,56,86,0
2,52,79,0
2,61,94,61
2,59,104,3
2,58,86,12
2,56,73,0
2,60,82,12672
2,63,99,0
2,58,89,70
2,63,89,0
2,56,85,173
2,63,85,0
2,58,85,64
2,63,85,0
2,60,92,231
2,63,80,0
2,58,69,87
2,63,80,0
2,60,115,1560
2,63,115,0
2,58,94,69
2,63,104,0
2,56,94,196
2,63,94,0
2,58,90,71
2,63,90,0
2,60,95,242
2,63,95,0
2,58,84,76
2,63,84,0
2,58,86,7898
2,65,104,0
2,68,86,0
2,61,104,0
2,56,104,30
2,65,104,0
2,60,104,0
2,67,94,2
2,59,104,0
2,55,86,0
2,63,104,0
2,65,94,22
2,54,94,4
2,58,94,0
2,63,104,0
2,60,104,3
2,63,86,0
2,53,86,0
2,57,79,0
2,56,94,23
2,63,94,0
2,59,104,0
2,52,86,0
2,61,104,192
2,59,104,184
2,58,86,40
2,58,51,73
2,56,104,0
2,51,104,22
2,56,94,0
2,63,86,0
2,58,94,0
2,55,86,196
2,63,73,0
2,51,79,0
2,58,86,0
2,61,94,60
2,65,94,0
2,68,94,0
2,58,73,0
2,56,104,20
2,65,94,0
2,60,104,0
2,59,104,1
2,67,86,0
2,63,104,0
2,55,79,0
2,65,94,43
2,58,104,64
2,63,104,0
2,54,94,0
2,63,94,2
2,57,79,0
2,60,104,0
2,53,94,0
2,59,104,15
2,63,79,0
2,56,86,0
2,52,79,0
2,61,94,61
2,59,104,3
2,58,86,12
2,56,73,0
3,58,89,24000
3,58,68,120
3,56,74,81
3,53,104,76867
3,56,86,49
3,58,104,36
3,58,104,172
3,53,94,1662
3,55,69,192
3,56,94,43
3,58,94,147
3,58,69,165
3,59,58,0
3,60,84,0
3,58,94,74
3,63,86,116
3,61,104,107
3,60,86,2
3,56,104,26
3,58,94,97
3,53,104,78
3,51,104,87
3,53,104,48
3,51,104,61
3,53,94,58
3,51,86,43
3,53,104,34
3,51,94,38
3,53,94,52
3,70,94,26103
3,71,94,136
3,68,84,44
3,70,94,0
3,68,84,22
3,66,58,5
3,73,117,6390
3,75,105,35
3,76,84,42
3,73,84,3
3,75,94,3
3,75,34,11
4,75,86,13824
4,68,73,54
4,70,94,231
4,63,73,330
4,65,44,109
4,63,63,44
4,68,68,49
4,70,55,6
4,75,79,65
4,75,28,20
4,68,68,125
4,70,47,247
4,63,55,268
4,68,47,0
4,70,55,118
4,73,44,6
4,65,59,148
4,75,51,24
4,68,68,114
4,70,63,216
4,63,59,377
4,68,36,182
4,65,51,73
4,68,44,51
4,75,68,165
4,68,79,229
4,70,73,238
4,63,59,7
4,68,38,189
4,68,51,67
4,65,59,56
4,75,59,18
4,68,68,26
4,70,79,103
4,63,68,331
4,68,79,108
4,75,68,242
4,68,73,156
4,70,63,248
4,63,73,100
4,65,63,4
4,68,63,4
4,65,41,144
4,75,63,19
4,68,63,21
4,70,68,99
4,63,63,353
4,68,63,193
4,70,55,16
4,75,48,44
4,70,63,12932
4,68,47,10
4,65,63,33
4,68,63,28
4,70,55,96
4,70,63,55
4,75,68,44
4,68,55,2
4,65,63,56
4,70,63,49
4,65,38,92
4,70,55,71
4,68,51,96
4,70,31,31
4,75,79,70
4,68,51,22
4,71,63,171
4,70,47,179
4,68,63,192
4,75,55,54
4,68,68,101
4,65,63,28
4,70,68,41
4,65,51,88
4,70,44,45
4,65,44,18
4,68,63,61
4,75,73,47
4,68,47,93
4,65,17,70
4,70,63,71
4,65,55,96
4,65,55,142
4,70,55,48
4,65,34,96
4,68,63,20
4,75,68,52
4,65,34,178
4,68,73,43
4,70,73,21
4,65,31,116
4,68,63,50
4,65,47,34
4,75,51,47
4,77,59,18
4,75,33,13
4,70,55,25
4,68,79,4
4,70,68,16
4,68,36,480
4,70,38,35
4,70,51,60
4,75,55,68
4,68,55,672
4,65,38,54
4,71,59,58
4,68,32,10
4,70,63,96
4,75,55,43
4,75,86,289
4,68,73,54
4,70,94,231
4,63,73,330
4,65,44,109
4,63,63,44
4,68,68,49
4,70,55,6
4,75,79,65
4,75,28,20
4,68,68,125
4,70,47,247
4,63,55,268
4,68,47,0
4,70,55,118
4,73,44,6
4,65,59,148
4,75,51,24
4,68,68,114
4,70,63,216
4,63,59,377
4,68,36,182
4,65,51,73
4,68,44,51
4,75,68,165
4,68,79,229
4,70,73,238
4,63,59,7
4,68,38,189
4,68,51,67
4,65,59,56
4,75,59,18
4,68,68,26
4,70,79,103
4,63,68,331
4,68,79,108
4,75,68,242
4,68,73,156
4,70,63,248
4,63,73,100
4,65,63,4
4,68,63,4
4,65,41,144
4,75,63,19
4,68,63,21
4,70,68,99
4,63,63,353
4,68,63,193
4,70,55,16
4,75,48,44
4,70,63,12932
4,68,47,10
4,65,63,33
4,68,63,28
4,70,55,96
4,70,63,55
4,75,68,44
4,68,55,2
4,65,63,56
4,70,63,49
4,65,38,92
4,70,55,71
4,68,51,96
4,70,31,31
4,75,79,70
4,68,51,22
4,71,63,171
4,70,47,179
4,68,63,192
4,75,55,54
4,68,68,101
4,65,63,28
4,70,68,41
4,65,51,88
4,70,44,45
4,65,44,18
4,68,63,61
4,75,73,47
4,68,47,93
4,65,17,70
4,70,63,71
4,65,55,96
4,65,55,142
4,70,55,48
4,65,34,96
4,68,63,20
4,75,68,52
4,65,34,178
4,68,73,43
4,70,73,21
4,65,31,116
4,68,63,50
4,65,47,34
4,75,51,47
4,77,59,18
4,75,33,13
4,70,55,25
4,68,79,4
4,70,68,16
4,68,36,480
4,70,38,35
4,70,51,60
4,75,55,68
4,68,55,672
4,65,38,54
4,71,59,58
4,68,32,10
4,70,63,96
4,75,55,43
4,75,86,289
4,68,73,54
4,70,94,231
4,63,73,330
4,65,44,109
4,63,63,44
4,68,68,49
4,70,55,6
4,75,79,65
4,75,28,20
4,68,68,125
4,70,47,247
4,63,55,268
4,68,47,0
4,70,55,118
4,73,44,6
4,65,59,148
4,75,51,24
4,68,68,114
4,70,63,216
4,63,59,377
4,68,36,182
4,65,51,73
4,68,44,51
4,75,68,165
4,68,79,229
4,70,73,238
4,63,59,7
4,68,38,189
4,68,51,67
4,65,59,56
4,75,86,6
4,68,73,54
4,70,94,231
4,63,73,330
4,65,44,109
4,63,63,44
4,68,68,49
4,70,55,6
4,75,79,65
4,75,28,20
4,68,68,125
4,70,47,247
4,63,55,268
4,68,47,0
4,70,55,118
4,73,44,6
4,65,59,148
4,75,51,24
4,68,68,114
4,70,63,216
4,63,59,377
4,68,36,182
4,65,51,73
4,68,44,51
4,75,68,165
4,68,79,229
4,70,73,238
4,63,59,7
4,68,38,189
4,68,51,67
4,65,59,56
4,75,86,6
4,68,73,54
4,70,94,231
4,63,73,330
4,65,44,109
4,63,63,44
4,68,68,49
4,70,55,6
4,75,79,65
4,75,28,20
4,68,68,125
4,70,47,247
4,63,55,268
4,68,47,0
4,70,55,118
4,73,44,6
4,65,59,148
4,75,51,24
4,68,68,114
4,70,63,216
4,68,36,182
4,65,51,73
4,68,44,51
4,75,68,165
4,68,79,229
4,70,73,238
4,63,59,7
4,68,38,189
4,68,51,67
