track,note,velocity,time
1,61,104,26112
1,61,51,192
1,61,0,10
1,61,0,28
1,60,104,58
1,60,0,115
1,58,115,77
1,58,0,81
1,56,115,111
1,51,104,288
1,56,0,8
1,51,0,313
1,56,115,63
1,58,115,0
1,56,0,62
1,58,0,1207
1,61,104,459
1,61,0,140
1,61,94,52
1,61,0,54
1,60,104,42
1,60,0,121
1,58,104,71
1,58,0,91
1,56,104,101
1,56,0,137
1,56,115,55
1,56,0,89
1,51,115,7
1,51,0,329
1,56,115,55
1,56,0,63
1,58,104,33
1,58,0,1304
1,63,33,328
1,64,104,0
1,65,94,0
1,63,0,1
1,64,0,42
1,65,0,216
1,63,104,29
1,63,0,118
1,61,115,74
1,61,0,77
1,60,104,115
1,58,104,288
1,60,0,24
1,58,0,320
1,60,104,40
1,61,94,0
1,60,0,47
1,61,0,5
1,60,115,44
1,60,0,1246
1,60,94,386
1,61,104,0
1,60,0,37
1,61,0,248
1,60,127,3
1,60,0,111
1,58,104,81
1,58,0,81
1,56,115,111
1,56,0,274
1,51,94,14
1,51,0,359
1,56,104,25
1,58,104,0
1,56,0,58
1,58,0,1259
1,68,115,411
1,65,112,384
1,68,0,34
1,65,0,263
1,65,86,87
1,67,86,0
1,65,0,50
1,67,0,304
1,65,115,30
1,65,0,157
1,63,115,35
1,63,0,675
1,63,115,93
1,63,0,778
1,56,115,86
1,56,0,74
1,63,115,22
1,61,104,192
1,63,0,13
1,59,104,179
1,61,0,4
1,59,0,130
1,58,115,58
1,59,73,0
1,58,0,37
1,59,0,53
1,58,104,6
1,58,0,477
1,56,115,3
1,56,0,105
1,56,127,87
1,56,0,70
1,58,127,26
1,58,0,1300
1,68,115,332
1,68,0,348
1,65,115,36
1,65,0,327
1,67,115,57
1,65,127,384
1,67,0,1
1,65,0,131
1,63,115,60
1,63,0,688
1,63,115,80
1,63,0,852
1,61,115,108
1,63,86,0
1,61,0,52
1,63,0,109
1,61,115,31
1,61,0,186
1,59,115,6
1,59,0,158
1,58,115,34
1,58,0,572
1,56,115,4
1,56,0,60
1,56,115,132
1,56,0,62
1,58,115,34
1,58,0,1269
1,58,115,363
1,58,0,190
1,58,104,98
1,58,0,98
1,56,115,94
1,56,0,52
1,58,104,44
1,60,104,0
1,58,0,53
1,60,0,100
1,58,115,39
1,58,0,200
1,56,104,472
1,56,0,36
1,56,115,60
1,56,0,63
1,58,115,33
1,58,0,160
1,58,115,32
1,58,0,115
1,63,104,77
1,63,0,49
1,58,104,47
1,60,73,0
1,58,0,49
1,60,0,206
1,58,104,33
1,58,0,88
1,56,115,8
1,56,0,121
1,56,115,455
1,58,104,0
1,56,0,54
1,58,0,124
1,58,127,110
1,58,0,88
1,56,104,104
1,56,0,38
1,58,115,58
1,60,104,0
1,58,0,56
1,60,0,99
1,58,115,37
1,58,0,264
1,68,115,888
1,68,0,362
1,65,127,22
1,65,0,61
1,67,104,131
1,67,0,76
1,63,115,116
1,65,115,192
1,63,0,6
1,65,0,105
1,58,115,81
1,58,0,203
1,58,127,85
1,58,0,104
1,56,104,88
1,56,0,55
1,58,104,41
1,60,104,0
1,58,0,35
1,60,0,138
1,58,127,19
1,58,0,227
1,56,104,445
1,56,0,36
1,56,104,60
1,56,0,50
1,58,115,46
1,58,0,155
1,58,115,37
1,58,0,105
1,63,94,87
1,63,0,42
1,58,104,54
1,60,94,0
1,58,0,29
1,60,0,241
1,58,104,18
1,58,0,91
1,56,115,5
1,56,0,113
1,56,104,463
1,58,115,0
1,56,0,42
1,58,0,152
1,58,127,94
1,58,0,87
1,56,104,105
1,56,0,45
1,58,115,51
1,60,104,0
1,58,0,51
1,60,0,101
1,58,127,40
1,58,0,248
1,61,127,2056
1,61,0,275
1,60,127,13
1,60,0,127
1,58,115,65
1,58,0,105
1,56,127,87
1,56,0,276
1,51,115,12
1,51,0,324
1,56,115,60
1,58,104,0
1,56,0,50
1,58,0,1086
1,61,115,592
1,61,0,240
1,60,127,48
1,60,0,124
1,58,127,68
1,58,0,103
1,56,115,89
1,56,0,280
1,51,115,8
1,51,0,344
1,56,94,40
1,58,104,0
1,56,0,48
1,58,0,1242
1,65,127,438
1,65,0,245
1,63,115,43
1,63,0,186
1,61,115,6
1,61,0,166
1,60,115,26
1,60,0,278
1,58,115,10
1,58,0,332
1,60,115,52
1,61,115,0
1,60,0,53
1,61,0,9
1,60,127,34
1,60,0,1253
1,60,104,379
1,61,104,0
1,60,0,47
1,61,0,213
1,60,127,28
1,60,0,122
1,58,104,70
1,58,0,88
1,56,127,104
1,56,0,224
1,60,127,64
1,60,0,366
1,56,104,18
1,58,104,0
1,56,0,49
1,58,0,1217
1,68,127,462
1,68,0,369
1,65,115,15
1,65,0,299
1,65,94,85
1,67,73,0
1,65,0,47
1,67,0,307
1,65,127,30
1,65,0,111
1,63,104,81
1,63,0,743
1,63,115,25
1,63,51,0
1,63,0,9
1,63,0,749
1,61,104,202
1,63,104,0
1,61,0,28
1,63,0,140
1,61,115,24
1,59,115,192
1,61,0,12
1,59,0,133
1,58,104,47
1,59,73,0
1,58,0,48
1,59,0,39
1,58,115,9
1,56,115,480
1,58,0,4
1,56,0,88
1,56,104,100
1,56,0,56
1,58,104,40
1,58,0,1414
1,68,127,218
1,70,115,384
1,68,0,5
1,70,0,326
1,65,104,53
1,67,94,0
1,65,0,48
1,67,0,128
1,65,127,16
1,65,0,59
1,65,104,133
1,65,0,76
1,63,104,116
1,65,115,0
1,65,0,64
1,63,0,409
1,65,115,103
1,65,0,86
1,58,115,106
1,60,104,0
1,58,0,52
1,60,0,699
1,63,104,209
1,63,0,153
1,61,115,39
1,61,0,187
1,59,115,5
1,59,0,122
1,58,94,70
1,59,104,0
1,58,0,44
1,59,0,26
1,58,104,26
1,58,0,1182
1,58,115,1218
1,58,0,218
1,58,127,70
1,58,0,93
1,56,104,99
1,56,0,53
1,58,104,43
1,60,104,0
1,58,0,61
1,60,0,93
1,58,115,38
1,58,0,207
1,56,79,465
1,56,0,37
1,56,115,59
1,56,0,53
1,58,104,43
1,58,0,172
1,58,115,20
1,58,0,106
1,63,94,86
1,63,0,46
1,58,104,50
1,59,79,0
1,60,104,0
1,59,0,12
1,58,0,10
1,60,0,159
1,58,127,11
1,56,104,96
1,58,0,19
1,56,0,131
1,56,115,522
1,58,104,0
1,56,0,29
1,58,0,165
1,58,115,94
1,58,0,85
1,56,115,107
1,56,0,50
1,58,115,46
1,60,104,0
1,58,0,57
1,60,0,78
1,58,127,57
1,58,0,315
1,68,115,837
1,65,127,384
1,68,0,3
1,65,0,64
1,67,115,125
1,67,0,72
1,63,115,120
1,63,0,187
1,65,104,5
1,65,0,111
1,56,104,81
1,58,104,0
1,56,0,30
1,58,0,187
1,58,115,71
1,58,0,105
1,56,104,87
1,56,0,52
1,58,115,44
1,60,94,0
1,58,0,45
1,60,0,112
1,58,127,35
1,58,0,241
1,56,104,431
1,56,0,32
1,56,115,64
1,58,104,0
1,56,0,46
1,58,0,144
1,58,115,98
1,58,0,112
1,63,94,80
1,63,0,52
1,58,59,44
1,58,115,0
1,59,104,0
1,60,86,0
1,58,0,10
1,58,0,7
1,59,0,13
1,60,0,216
1,58,104,42
1,58,0,81
1,56,115,15
1,56,0,95
1,56,86,97
1,58,115,0
1,56,0,29
1,58,0,141
1,56,127,22
1,56,0,93
1,56,104,99
1,58,115,0
1,56,0,41
1,58,0,175
1,58,127,72
1,58,0,92
1,56,94,100
1,56,0,42
1,58,104,54
1,60,104,0
1,58,0,57
1,60,0,117
1,58,115,18
1,58,0,238
1,68,104,914
1,70,104,384
1,68,0,8
1,70,0,74
1,65,127,110
1,67,86,0
1,65,0,39
1,67,0,152
1,65,127,1
1,65,0,65
1,63,104,31
1,63,0,148
1,65,104,44
1,65,0,46
1,60,82,50
1,63,99,0
1,63,0,496
1,60,0,10
1,58,89,70
1,63,89,0
1,58,0,781
1,63,0,6
1,56,85,173
1,63,85,0
1,56,0,511
1,63,0,1
1,58,85,64
1,63,85,0
1,67,36,96
1,68,100,0
1,67,0,17
1,68,0,166
1,67,71,9
1,67,0,149
1,65,100,43
1,65,0,70
1,63,89,26
1,63,0,63
1,63,79,33
1,63,32,0
1,63,0,8
1,58,0,45
1,63,0,4
1,63,0,134
1,65,89,1
1,65,0,50
1,60,92,46
1,63,80,0
1,63,0,489
1,60,0,0
1,58,69,87
1,63,80,0
1,58,0,930
1,63,0,6
1,68,94,408
1,70,105,384
1,68,0,19
1,70,0,69
1,65,76,104
1,67,84,0
1,65,0,30
1,67,0,143
1,65,105,19
1,65,0,76
1,63,94,20
1,63,0,188
1,65,105,4
1,65,0,73
1,60,115,23
1,63,115,0
1,63,0,499
1,60,0,8
1,58,94,69
1,63,104,0
1,59,64,288
1,60,100,0
1,59,0,19
1,58,100,77
1,60,0,26
1,58,0,26
1,58,89,44
1,58,0,75
1,56,112,21
1,56,0,52
1,56,89,44
1,58,0,81
1,63,0,11
1,56,0,60
1,56,94,136
1,63,94,0
1,63,0,503
1,56,0,2
1,58,90,71
1,63,90,0
1,60,112,192
1,61,100,192
1,63,32,0
1,60,0,8
1,63,0,5
1,61,0,38
1,60,100,45
1,60,0,103
1,58,112,89
1,63,0,33
1,58,0,13
1,58,0,28
1,58,100,118
1,60,89,0
1,60,0,70
1,58,0,2
1,56,112,24
1,60,95,0
1,63,95,0
1,60,0,497
1,63,0,3
1,58,84,76
1,63,84,0
1,56,0,77
1,58,0,652
1,63,0,13
1,68,127,7898
1,68,0,359
1,65,127,25
1,65,0,304
1,65,104,80
1,67,104,0
1,65,0,44
1,67,0,317
1,65,115,23
1,65,0,65
1,63,104,127
1,63,0,697
1,63,115,71
1,63,0,702
1,56,104,162
1,56,0,66
1,63,115,30
1,61,115,192
1,63,0,9
1,59,104,183
1,61,0,6
1,59,0,116
1,58,104,70
1,59,63,0
1,60,73,0
1,60,0,37
1,58,0,0
1,59,0,46
1,58,115,13
1,56,127,480
1,58,0,19
1,56,0,81
1,56,104,92
1,58,115,0
1,56,0,55
1,58,0,1254
1,68,127,419
1,70,104,384
1,68,0,6
1,70,0,339
1,65,94,39
1,67,104,0
1,65,0,45
1,67,0,316
1,65,115,23
1,65,0,76
1,63,104,116
1,65,115,0
1,65,0,58
1,63,0,607
1,63,115,103
1,63,0,775
1,61,115,185
1,63,94,0
1,61,0,43
1,63,0,128
1,61,115,21
1,61,0,192
1,59,115,0
1,59,0,168
1,58,115,24
1,58,0,558
1,56,115,18
1,56,0,97
1,56,115,95
1,56,0,58
1,58,115,38
1,58,0,1475
1,63,115,1117
1,61,104,96
1,63,0,8
1,59,127,88
1,61,0,11
1,59,0,115
1,59,115,66
1,59,0,119
1,57,13,73
1,58,115,0
1,57,0,37
1,58,0,47
1,58,115,108
1,58,0,88
1,56,104,8
1,54,104,96
1,56,0,4
1,54,0,1044
1,68,94,1352
1,70,94,0
1,68,0,48
1,70,0,32
1,68,94,16
1,68,0,96
1,66,104,0
1,66,0,70
1,68,115,26
1,68,0,463
1,63,104,17
1,63,0,90
1,66,104,6
1,66,0,85
1,68,104,11
1,68,0,60
1,70,104,132
1,70,0,92
1,71,104,100
1,71,0,55
1,68,94,41
1,70,104,0
1,68,0,40
1,70,0,121
1,68,115,31
1,68,0,101
1,66,86,1723
1,68,94,0
1,66,0,44
1,68,0,46
1,66,115,102
1,63,94,96
1,66,0,1
1,63,0,59
1,66,104,132
1,63,73,96
1,66,0,5
1,63,0,50
1,66,55,137
1,63,79,96
1,66,0,18
1,63,0,51
1,66,63,123
1,66,0,95
1,63,51,1
1,63,0,75
1,66,51,117
1,63,41,96
1,66,0,1
1,63,0,91
1,64,94,12100
1,63,104,96
1,64,0,16
1,63,0,68
1,59,115,12
1,59,0,84
1,56,104,12
1,56,0,454
1,61,104,1757
1,61,0,55
1,59,104,89
1,59,0,57
1,56,115,99
1,58,104,23
1,56,0,19
1,58,0,142
1,56,104,2
1,56,0,82
1,54,86,9
1,54,0,1205
2,58,86,1536
2,65,104,0
2,68,86,0
2,61,104,0
2,61,0,12
2,58,0,0
2,65,0,8
2,68,0,2
2,56,104,30
2,65,104,0
2,60,104,0
2,56,0,80
2,60,0,20
2,65,0,2
2,67,94,2
2,59,104,0
2,55,86,0
2,63,104,0
2,67,0,362
2,65,94,22
2,63,0,55
2,55,0,114
2,65,0,3
2,59,0,16
2,54,94,4
2,58,94,0
2,63,104,0
2,54,0,194
2,58,0,33
2,63,0,9
2,60,104,3
2,63,86,0
2,53,86,0
2,57,79,0
2,53,0,408
2,57,0,15
2,60,0,7
2,63,0,7
2,56,94,23
2,63,94,0
2,59,104,0
2,52,86,0
2,61,104,192
2,59,0,8
2,59,104,184
2,61,0,28
2,59,0,124
2,58,86,40
2,56,0,503
2,58,51,73
2,56,104,0
2,58,0,7
2,58,0,2
2,52,0,68
2,56,0,22
2,63,0,24
2,51,104,22
2,56,94,0
2,63,86,0
2,58,94,0
2,56,0,298
2,63,0,29
2,51,0,8
2,58,0,7
2,55,86,196
2,63,73,0
2,51,79,0
2,58,86,0
2,55,0,351
2,51,0,3
2,58,0,28
2,63,0,3
2,61,94,60
2,65,94,0
2,68,94,0
2,58,73,0
2,58,0,89
2,65,0,8
2,61,0,6
2,68,0,10
2,56,104,20
2,65,94,0
2,60,104,0
2,56,0,96
2,60,0,31
2,65,0,0
2,59,104,1
2,67,86,0
2,63,104,0
2,55,79,0
2,67,0,190
2,59,0,9
2,63,0,21
2,55,0,1
2,65,94,43
2,65,0,128
2,58,104,64
2,63,104,0
2,54,94,0
2,54,0,226
2,58,0,11
2,63,0,10
2,63,94,2
2,57,79,0
2,60,104,0
2,53,94,0
2,57,0,479
2,53,0,7
2,60,0,3
2,63,0,4
2,59,104,15
2,63,79,0
2,56,86,0
2,52,79,0
2,61,94,61
2,59,0,17
2,59,104,3
2,61,0,30
2,59,0,117
2,56,0,26
2,58,86,12
2,56,73,0
2,56,0,2080
2,58,0,7
2,63,0,21
2,52,0,4
2,58,86,24960
2,65,104,0
2,68,86,0
2,61,104,0
2,61,0,12
2,58,0,0
2,65,0,8
2,68,0,2
2,56,104,30
2,65,104,0
2,60,104,0
2,56,0,80
2,60,0,20
2,65,0,2
2,67,94,2
2,59,104,0
2,55,86,0
2,63,104,0
2,67,0,362
2,65,94,22
2,63,0,55
2,55,0,114
2,65,0,3
2,59,0,16
2,54,94,4
2,58,94,0
2,63,104,0
2,54,0,194
2,58,0,33
2,63,0,9
2,60,104,3
2,63,86,0
2,53,86,0
2,57,79,0
2,53,0,408
2,57,0,15
2,60,0,7
2,63,0,7
2,56,94,23
2,63,94,0
2,59,104,0
2,52,86,0
2,61,104,192
2,59,0,8
2,59,104,184
2,61,0,28
2,59,0,124
2,58,86,40
2,56,0,503
2,58,51,73
2,56,104,0
2,58,0,7
2,58,0,2
2,52,0,68
2,56,0,22
2,63,0,24
2,51,104,22
2,56,94,0
2,63,86,0
2,58,94,0
2,56,0,298
2,63,0,29
2,51,0,8
2,58,0,7
2,55,86,196
2,63,73,0
2,51,79,0
2,58,86,0
2,55,0,351
2,51,0,3
2,58,0,28
2,63,0,3
2,61,94,60
2,65,94,0
2,68,94,0
2,58,73,0
2,58,0,89
2,65,0,8
2,61,0,6
2,68,0,10
2,56,104,20
2,65,94,0
2,60,104,0
2,56,0,96
2,60,0,31
2,65,0,0
2,59,104,1
2,67,86,0
2,63,104,0
2,55,79,0
2,67,0,190
2,59,0,9
2,63,0,21
2,55,0,1
2,65,94,43
2,65,0,128
2,58,104,64
2,63,104,0
2,54,94,0
2,54,0,226
2,58,0,11
2,63,0,10
2,63,94,2
2,57,79,0
2,60,104,0
2,53,94,0
2,57,0,479
2,53,0,7
2,60,0,3
2,63,0,4
2,59,104,15
2,63,79,0
2,56,86,0
2,52,79,0
2,61,94,61
2,59,0,17
2,59,104,3
2,61,0,30
2,59,0,117
2,56,0,26
2,58,86,12
2,56,73,0
2,56,0,2080
2,58,0,7
2,63,0,21
2,52,0,4
