track,note,velocity,time
0,37,70,0
0,37,0,85
0,37,70,0
0,37,0,84
0,37,70,0
0,37,0,86
0,37,70,10
0,37,0,86
0,54,96,0
0,35,127,0
0,57,127,0
0,64,84,1
0,71,71,0
0,60,80,0
0,45,76,0
0,55,80,0
0,76,91,0
0,67,83,0
0,72,87,1
0,33,124,0
0,57,0,6
0,54,0,0
0,35,0,0
0,42,80,8
0,42,0,8
0,72,0,9
0,42,66,6
0,76,0,3
0,42,0,5
0,71,0,0
0,67,0,6
0,54,67,18
0,67,79,0
0,71,75,0
0,38,112,0
0,57,108,1
0,72,83,0
0,76,83,0
0,38,0,7
0,54,0,0
0,71,0,18
0,67,0,0
0,72,0,1
0,76,0,0
0,42,86,5
0,33,0,7
0,42,0,1
0,57,0,16
0,42,60,8
0,54,85,0
0,28,120,0
0,52,61,1
0,54,0,7
0,42,0,0
0,52,0,5
0,28,0,7
0,42,97,12
0,35,127,0
0,33,124,0
0,54,97,0
0,54,0,8
0,35,0,0
0,42,0,0
0,76,83,24
0,42,80,0
0,71,79,1
0,67,83,0
0,72,83,0
0,42,0,7
0,72,0,3
0,76,0,1
0,71,0,1
0,67,0,3
0,42,60,16
0,42,0,8
0,33,0,5
0,38,112,19
0,76,91,0
0,54,72,0
0,72,87,1
0,33,124,0
0,67,83,0
0,71,75,0
0,57,104,0
0,54,0,7
0,38,0,0
0,71,0,7
0,76,0,0
0,72,0,2
0,67,0,1
0,33,0,5
0,42,60,9
0,28,124,0
0,42,0,8
0,28,0,14
0,57,0,6
0,33,112,4
0,42,70,0
0,50,64,1
0,42,0,7
0,50,0,8
0,33,0,11
0,54,67,5
0,42,97,0
0,26,124,0
0,66,83,0
0,35,127,0
0,76,91,0
0,64,0,1
0,60,0,0
0,55,0,0
0,45,0,0
0,54,76,0
0,64,72,0
0,57,72,0
0,60,68,0
0,38,76,0
0,72,83,1
0,71,67,0
0,35,0,6
0,54,0,0
0,42,0,0
0,42,80,24
0,42,0,8
0,42,66,24
0,42,0,8
0,76,0,6
0,66,0,0
0,71,0,4
0,72,0,0
0,54,67,14
0,38,112,0
0,62,108,1
0,38,0,7
0,54,0,0
0,26,0,24
0,42,86,0
0,66,83,0
0,76,83,0
0,72,83,0
0,71,75,0
0,42,0,8
0,62,0,2
0,71,0,9
0,76,0,0
0,72,0,1
0,66,0,3
0,42,60,9
0,33,116,0
0,54,85,0
0,60,0,1
0,60,64,0
0,54,0,7
0,42,0,0
0,33,0,11
0,38,98,8
0,42,97,5
0,54,97,0
0,40,124,0
0,35,127,0
0,64,0,1
0,64,92,0
0,38,0,5
0,35,0,2
0,54,0,0
0,42,0,0
0,66,83,24
0,76,75,0
0,42,80,0
0,72,75,1
0,71,71,0
0,42,0,7
0,72,0,3
0,76,0,4
0,71,0,0
0,66,0,3
0,62,80,14
0,42,60,0
0,40,0,6
0,42,0,2
0,38,104,19
0,38,112,5
0,54,72,0
0,40,124,1
0,62,0,4
0,38,0,1
0,54,0,2
0,38,0,0
0,60,0,24
0,57,0,0
0,72,83,0
0,76,79,0
0,42,60,0
0,66,83,0
0,57,68,0
0,71,75,0
0,42,0,8
0,71,0,8
0,66,0,3
0,72,0,0
0,76,0,5
0,42,70,8
0,40,0,6
0,42,0,2
0,64,0,24
0,38,0,0
0,69,75,0
0,65,83,0
0,72,79,0
0,31,124,0
0,74,91,0
0,54,96,0
0,35,127,0
0,42,97,0
0,57,0,1
0,54,0,0
0,57,72,0
0,53,68,0
0,62,76,0
0,43,80,0
0,55,61,1
0,35,0,6
0,54,0,0
0,42,0,0
0,42,80,24
0,42,0,8
0,55,0,1
0,42,66,23
0,42,0,8
0,65,0,8
0,72,0,0
0,74,0,0
0,69,0,0
0,69,79,16
0,38,112,0
0,74,91,0
0,54,67,0
0,65,83,1
0,72,83,0
0,54,0,7
0,38,0,0
0,72,0,15
0,65,0,3
0,69,0,0
0,74,0,3
0,42,86,3
0,42,0,8
0,31,0,8
0,42,60,16
0,54,85,0
0,26,112,0
0,54,0,8
0,42,0,0
0,26,0,8
0,35,127,16
0,54,97,0
0,42,97,0
0,31,120,0
0,42,0,8
0,54,0,0
0,35,0,0
0,42,80,24
0,69,87,0
0,74,95,0
0,65,91,1
0,72,87,0
0,42,0,7
0,69,0,8
0,72,0,1
0,74,0,1
0,65,0,1
0,57,0,12
0,42,60,1
0,42,0,8
0,31,0,9
0,54,72,15
0,74,95,0
0,38,112,0
0,69,75,1
0,65,91,0
0,72,83,0
0,38,0,7
0,54,0,0
0,72,0,13
0,74,0,0
0,69,0,1
0,65,0,3
0,31,124,7
0,42,60,0
0,55,76,1
0,42,0,7
0,55,0,9
0,31,0,2
0,33,124,13
0,42,70,0
0,57,68,1
0,42,0,7
0,57,0,9
0,33,0,4
0,62,0,11
0,43,0,0
0,35,127,0
0,54,96,0
0,36,124,0
0,38,112,0
0,53,0,1
0,36,80,0
0,60,76,0
0,72,91,0
0,55,61,0
0,52,64,0
0,60,0,1
0,60,88,0
0,64,87,0
0,67,87,0
0,60,0,1
0,38,0,5
0,35,0,0
0,54,0,0
0,48,61,24
0,42,80,0
0,42,0,8
0,48,0,13
0,60,68,11
0,42,66,0
0,36,0,6
0,42,0,2
0,64,0,3
0,67,0,3
0,72,0,1
0,60,0,8
0,38,112,9
0,54,67,0
0,72,83,0
0,36,124,1
0,67,78,0
0,48,72,0
0,64,76,0
0,54,0,7
0,38,0,0
0,72,0,12
0,48,0,1
0,67,0,1
0,64,0,0
0,42,86,10
0,60,80,0
0,42,0,8
0,60,0,16
0,42,60,8
0,48,61,0
0,42,0,8
0,48,0,10
0,68,116,10
0,35,127,4
0,60,112,0
0,38,112,0
0,69,120,0
0,60,104,1
0,38,0,7
0,35,0,0
0,36,0,2
0,68,0,1
0,60,0,11
0,72,83,10
0,67,79,0
0,42,80,0
0,64,75,1
0,48,61,0
0,42,0,7
0,67,0,7
0,64,0,2
0,72,0,0
0,48,0,2
0,60,0,12
0,54,68,1
0,60,84,0
0,38,112,0
0,38,0,8
0,69,0,0
0,54,0,0
0,60,0,16
0,68,116,4
0,54,72,4
0,38,112,0
0,60,112,1
0,69,124,0
0,48,88,0
0,38,0,7
0,54,0,0
0,68,0,3
0,48,0,10
0,67,83,11
0,64,91,0
0,47,127,0
0,54,68,0
0,31,124,0
0,72,83,0
0,60,84,1
0,54,0,7
0,47,0,0
0,64,0,6
0,67,0,1
0,60,0,4
0,31,0,1
0,72,0,0
0,32,124,12
0,47,127,0
0,54,64,0
0,60,0,1
0,48,72,0
0,54,0,7
0,47,0,0
0,69,0,5
0,48,0,1
0,32,0,13
0,52,0,5
0,36,0,0
0,33,124,0
0,54,96,0
0,49,127,0
0,35,127,0
0,55,0,1
0,64,84,0
0,55,80,0
0,60,80,0
0,45,76,0
0,71,71,0
0,67,83,0
0,76,91,0
0,72,87,1
0,49,0,6
0,35,0,0
0,54,0,0
0,42,80,24
0,42,0,8
0,72,0,18
0,42,66,6
0,76,0,3
0,42,0,5
0,71,0,0
0,67,0,6
0,54,67,18
0,67,79,0
0,38,112,0
0,71,75,0
0,72,83,1
0,76,83,0
0,57,108,0
0,38,0,7
0,54,0,0
0,71,0,18
0,67,0,0
0,72,0,1
0,76,0,0
0,42,86,5
0,33,0,5
0,42,0,3
0,57,0,16
0,28,120,8
0,54,85,0
0,42,60,0
0,52,61,1
0,42,0,7
0,54,0,0
0,52,0,5
0,28,0,7
0,54,97,12
0,33,124,0
0,35,127,0
0,42,97,0
0,42,0,8
0,35,0,0
0,54,0,0
0,76,83,24
0,42,80,0
0,67,83,1
0,72,83,0
0,71,79,0
0,42,0,7
0,72,0,3
0,76,0,1
0,71,0,1
0,67,0,3
0,42,60,16
0,42,0,8
0,33,0,5
0,76,91,19
0,54,72,0
0,38,112,0
0,57,104,1
0,67,83,0
0,33,124,0
0,72,87,0
0,71,75,0
0,38,0,7
0,54,0,0
0,71,0,7
0,76,0,0
0,72,0,2
0,67,0,1
0,33,0,5
0,28,124,9
0,42,60,0
0,42,0,8
0,28,0,14
0,57,0,6
0,42,70,4
0,33,112,0
0,50,64,1
0,42,0,7
0,50,0,8
0,33,0,11
0,45,0,5
0,64,0,0
0,71,67,0
0,35,127,0
0,72,83,0
0,42,97,0
0,54,96,0
0,60,0,1
0,55,0,0
0,54,76,0
0,64,72,0
0,38,76,0
0,60,68,0
0,57,72,0
0,26,124,1
0,66,83,0
0,76,91,0
0,42,0,6
0,35,0,0
0,54,0,0
0,42,80,24
0,42,0,8
0,72,0,20
0,42,66,4
0,71,0,5
0,76,0,0
0,66,0,2
0,42,0,1
0,54,67,24
0,38,112,0
0,62,108,1
0,38,0,7
0,54,0,0
0,71,75,24
0,42,86,0
0,66,83,0
0,72,83,0
0,76,83,0
0,26,0,2
0,42,0,6
0,62,0,2
0,71,0,9
0,76,0,0
0,72,0,1
0,66,0,3
0,54,85,9
0,42,60,0
0,33,116,0
0,60,0,1
0,60,64,0
0,42,0,7
0,54,0,0
0,33,0,11
0,38,107,8
0,40,124,5
0,54,97,0
0,42,97,0
0,35,127,0
0,64,0,1
0,64,92,0
0,38,0,5
0,35,0,2
0,54,0,0
0,42,0,0
0,76,75,24
0,42,80,0
0,66,83,0
0,71,71,1
0,72,75,0
0,42,0,7
0,72,0,3
0,76,0,4
0,71,0,0
0,66,0,3
0,42,60,14
0,62,80,0
0,40,0,6
0,42,0,2
0,38,110,19
0,54,72,5
0,38,112,0
0,40,124,1
0,62,0,4
0,38,0,1
0,38,0,2
0,54,0,0
0,60,0,24
0,57,0,0
0,72,83,0
0,71,75,0
0,66,83,0
0,42,60,0
0,57,68,0
0,76,79,0
0,42,0,8
0,71,0,8
0,66,0,3
0,72,0,0
0,76,0,5
0,42,70,8
0,40,0,6
0,42,0,2
0,64,0,24
0,38,0,0
0,54,96,0
0,42,97,0
0,65,83,0
0,69,75,0
0,35,127,0
0,74,91,0
0,72,79,0
0,57,0,1
0,54,0,0
0,57,72,0
0,62,76,0
0,53,68,0
0,43,80,0
0,31,124,1
0,55,61,0
0,42,0,6
0,35,0,0
0,54,0,0
0,42,80,24
0,42,0,8
0,55,0,1
0,42,66,23
0,42,0,8
0,74,0,8
0,65,0,0
0,72,0,0
0,69,0,0
0,38,112,16
0,69,79,0
0,74,91,0
0,54,67,0
0,65,83,1
0,72,83,0
0,54,0,7
0,38,0,0
0,72,0,15
0,65,0,3
0,69,0,0
0,74,0,3
0,42,86,3
0,42,0,8
0,31,0,10
0,26,112,14
0,42,60,0
0,54,85,0
0,54,0,8
0,42,0,0
0,26,0,8
0,31,120,16
0,54,97,0
0,35,127,0
0,42,97,0
0,42,0,8
0,35,0,0
0,54,0,0
0,74,95,24
0,42,80,0
0,69,87,0
0,65,91,1
0,72,87,0
0,42,0,7
0,69,0,8
0,72,0,1
0,74,0,1
0,65,0,1
0,57,0,12
0,42,60,1
0,42,0,8
0,31,0,9
0,38,112,15
0,74,95,0
0,54,72,0
0,69,75,1
0,72,83,0
0,65,91,0
0,54,0,7
0,38,0,0
0,72,0,13
0,74,0,0
0,69,0,1
0,65,0,3
0,31,124,7
0,42,60,0
0,55,76,1
0,42,0,7
0,55,0,9
0,31,0,2
0,33,124,13
0,42,70,0
0,57,68,1
0,42,0,7
0,57,0,9
0,33,0,4
0,62,0,11
0,43,0,0
0,35,127,0
0,54,96,0
0,42,97,0
0,36,124,0
0,53,0,1
0,52,64,0
0,72,91,0
0,55,61,0
0,60,76,0
0,36,80,0
0,55,108,1
0,52,104,0
0,67,87,0
0,60,116,0
0,64,87,0
0,60,0,1
0,60,88,0
0,60,0,1
0,35,0,4
0,42,0,0
0,54,0,0
0,48,61,24
0,38,44,0
0,38,0,8
0,48,0,13
0,38,53,11
0,64,120,0
0,60,68,1
0,55,0,2
0,60,0,2
0,52,0,1
0,36,0,0
0,38,0,2
0,64,0,3
0,67,0,3
0,72,0,1
0,60,0,8
0,64,0,2
0,54,67,7
0,38,60,0
0,72,83,0
0,48,72,1
0,36,124,0
0,67,124,0
0,64,76,0
0,67,78,0
0,38,0,7
0,54,0,0
0,72,0,12
0,48,0,1
0,64,0,1
0,67,0,0
0,38,63,10
0,60,80,0
0,38,0,8
0,67,0,15
0,60,0,1
0,64,104,8
0,38,76,0
0,48,61,1
0,38,0,7
0,48,0,10
0,64,0,6
0,68,120,4
0,54,89,4
0,60,120,0
0,38,83,0
0,35,127,0
0,60,104,1
0,69,104,1
0,35,0,6
0,38,0,0
0,54,0,0
0,36,0,2
0,60,0,12
0,68,0,7
0,38,93,3
0,72,83,0
0,67,79,0
0,48,61,1
0,64,75,0
0,38,0,7
0,67,0,7
0,64,0,2
0,72,0,0
0,48,0,2
0,60,0,4
0,69,0,7
0,60,84,2
0,54,68,0
0,38,93,0
0,38,0,8
0,54,0,0
0,60,0,16
0,68,100,4
0,38,96,4
0,54,72,0
0,60,112,1
0,69,124,0
0,48,88,0
0,54,0,7
0,38,0,0
0,68,0,9
0,48,0,4
0,31,124,11
0,72,83,0
0,38,112,0
0,67,83,0
0,54,96,0
0,64,91,0
0,60,84,1
0,54,0,7
0,38,0,0
0,64,0,6
0,67,0,1
0,60,0,4
0,72,0,1
0,31,0,0
0,60,0,8
0,69,0,3
0,38,112,1
0,54,96,0
0,32,124,0
0,48,72,1
0,54,0,7
0,38,0,0
0,48,0,6
0,32,0,13
0,36,0,5
0,52,0,0
0,35,127,0
0,54,96,0
0,49,127,0
0,33,124,0
0,55,0,1
0,67,83,0
0,60,80,0
0,71,71,0
0,76,91,0
0,45,76,0
0,55,80,0
0,64,84,0
0,64,101,1
0,72,87,0
0,49,0,6
0,35,0,0
0,54,0,0
0,42,80,24
0,42,0,8
0,72,0,18
0,42,66,6
0,76,0,3
0,42,0,5
0,71,0,0
0,67,0,6
0,67,79,18
0,38,112,0
0,54,67,0
0,71,75,0
0,72,83,1
0,57,108,0
0,76,83,0
0,54,0,7
0,38,0,0
0,67,0,18
0,71,0,0
0,72,0,1
0,76,0,0
0,42,86,5
0,33,0,5
0,42,0,3
0,57,0,16
0,28,120,8
0,54,85,0
0,42,60,0
0,52,61,1
0,42,0,7
0,54,0,0
0,52,0,5
0,28,0,7
0,35,127,12
0,54,97,0
0,42,97,0
0,33,124,0
0,42,0,8
0,54,0,0
0,35,0,0
0,76,83,24
0,42,80,0
0,71,79,1
0,67,83,0
0,72,83,0
0,42,0,7
0,72,0,3
0,76,0,1
0,71,0,1
0,67,0,3
0,42,60,16
0,42,0,8
0,33,0,5
0,76,91,19
0,38,112,0
0,54,72,0
0,33,124,1
0,67,83,0
0,71,75,0
0,57,104,0
0,72,87,0
0,54,0,7
0,38,0,0
0,71,0,7
0,76,0,0
0,72,0,2
0,67,0,1
0,33,0,5
0,42,60,9
0,28,124,0
0,42,0,8
0,28,0,14
0,57,0,6
0,54,84,4
0,33,112,0
0,42,70,0
0,50,64,1
0,42,0,7
0,54,0,0
0,50,0,8
0,33,0,11
0,64,0,5
0,45,0,0
0,26,124,0
0,72,83,0
0,71,67,0
0,54,89,0
0,42,97,0
0,35,127,0
0,55,0,1
0,60,0,0
0,38,76,0
0,57,72,0
0,60,68,0
0,64,72,0
0,54,76,0
0,76,91,1
0,66,83,0
0,42,0,6
0,35,0,0
0,54,0,0
0,42,80,24
0,42,0,8
0,72,0,20
0,42,66,4
0,76,0,5
0,71,0,0
0,66,0,2
0,42,0,1
0,38,112,24
0,62,108,1
0,38,0,7
0,26,0,24
0,42,86,0
0,72,83,0
0,71,75,0
0,76,83,0
0,54,84,0
0,66,83,0
0,54,0,8
0,42,0,0
0,62,0,2
0,76,0,9
0,71,0,0
0,72,0,1
0,66,0,3
0,33,116,9
0,54,52,0
0,42,60,0
0,60,0,1
0,60,64,0
0,42,0,7
0,54,0,0
0,33,0,11
0,38,116,8
0,54,97,5
0,40,124,0
0,42,97,0
0,35,127,0
0,64,0,1
0,64,92,0
0,54,0,7
