track,note,velocity,time
1,87,127,770
1,99,127,0
1,99,0,15
1,87,0,0
1,87,121,33
1,99,121,0
1,87,0,7
1,99,0,1
1,85,127,40
1,97,127,0
1,87,110,0
1,99,110,0
1,87,0,7
1,99,0,1
1,85,0,7
1,97,0,1
1,85,121,32
1,97,121,0
1,87,95,0
1,99,95,0
1,87,0,7
1,85,0,1
1,97,0,0
1,99,0,0
1,84,127,39
1,96,127,0
1,85,110,0
1,97,110,0
1,85,0,8
1,97,0,1
1,84,0,7
1,96,0,1
1,84,121,31
1,96,121,1
1,85,95,0
1,97,95,0
1,85,0,7
1,84,0,1
1,96,0,0
1,97,0,0
1,80,127,39
1,92,127,1
1,84,110,0
1,96,110,0
1,84,0,7
1,96,0,1
1,80,0,7
1,92,0,1
1,80,121,31
1,92,121,1
1,84,95,0
1,96,95,0
1,84,0,7
1,80,0,1
1,92,0,0
1,96,0,0
1,82,127,40
1,94,127,0
1,80,110,0
1,92,110,0
1,80,0,7
1,92,0,1
1,82,0,7
1,94,0,1
1,82,121,31
1,94,121,0
1,80,95,0
1,92,95,0
1,80,0,8
1,82,0,1
1,94,0,0
1,92,0,0
1,82,110,40
1,94,110,0
1,82,0,7
1,94,0,1
1,87,127,40
1,99,127,0
1,82,95,0
1,94,95,0
1,82,0,7
1,94,0,1
1,87,0,7
1,99,0,1
1,84,127,32
1,96,127,0
1,87,121,0
1,99,121,0
1,87,0,7
1,99,0,1
1,84,0,7
1,96,0,1
1,84,121,31
1,96,121,1
1,87,110,0
1,99,110,0
1,87,0,7
1,84,0,1
1,96,0,0
1,99,0,0
1,80,127,40
1,92,127,0
1,87,95,0
1,99,95,0
1,84,110,0
1,96,110,0
1,84,0,7
1,99,0,1
1,87,0,0
1,96,0,0
1,80,0,7
1,92,0,1
1,80,121,31
1,92,121,1
1,84,95,0
1,96,95,0
1,84,0,7
1,80,0,1
1,92,0,0
1,96,0,0
1,80,110,40
1,92,110,0
1,80,0,7
1,92,0,1
1,80,95,40
1,92,95,0
1,80,0,7
1,92,0,1
1,87,127,712
1,99,127,0
1,99,0,15
1,87,0,0
1,87,121,33
1,99,121,0
1,87,0,7
1,99,0,1
1,85,127,40
1,97,127,0
1,87,110,0
1,99,110,0
1,87,0,7
1,99,0,1
1,97,0,7
1,85,0,0
1,85,121,33
1,97,121,0
1,87,95,0
1,99,95,0
1,87,0,7
1,85,0,1
1,97,0,0
1,99,0,0
1,84,127,39
1,96,127,1
1,85,110,0
1,97,110,0
1,85,0,7
1,97,0,1
1,84,0,7
1,96,0,1
1,84,121,31
1,96,121,1
1,85,95,0
1,97,95,0
1,85,0,7
1,84,0,1
1,96,0,0
1,97,0,0
1,80,127,39
1,92,127,0
1,84,110,0
1,96,110,0
1,84,0,8
1,96,0,1
1,80,0,7
1,92,0,1
1,80,121,31
1,92,121,1
1,84,95,0
1,96,95,0
1,84,0,7
1,80,0,1
1,92,0,0
1,96,0,0
1,82,127,40
1,94,127,0
1,80,110,0
1,92,110,0
1,80,0,7
1,92,0,1
1,82,0,7
1,94,0,1
1,82,121,31
1,94,121,0
1,80,95,0
1,92,95,0
1,80,0,8
1,82,0,1
1,94,0,0
1,92,0,0
1,82,110,40
1,94,110,0
1,82,0,7
1,94,0,1
1,87,127,40
1,99,127,0
1,82,95,0
1,94,95,0
1,94,0,7
1,82,0,0
1,87,0,8
1,99,0,1
1,84,127,32
1,96,127,0
1,87,121,0
1,99,121,0
1,87,0,7
1,99,0,1
1,84,0,7
1,96,0,1
1,84,121,31
1,96,121,1
1,87,110,0
1,99,110,0
1,87,0,7
1,84,0,1
1,96,0,0
1,99,0,0
1,80,127,40
1,92,127,0
1,87,95,0
1,99,95,0
1,84,110,0
1,96,110,0
1,84,0,7
1,99,0,1
1,87,0,0
1,96,0,0
1,80,0,7
1,92,0,1
1,80,121,31
1,92,121,1
1,84,95,0
1,96,95,0
1,84,0,7
1,80,0,1
1,92,0,0
1,96,0,0
1,80,110,40
1,92,110,0
1,80,0,7
1,92,0,1
1,80,95,40
1,92,95,0
1,80,0,7
1,92,0,1
1,92,126,711
1,80,124,3
1,92,0,9
1,80,0,2
1,80,117,3059
1,92,124,2
1,92,0,13
1,80,0,3
1,92,124,2285
1,80,122,3
1,92,0,13
1,80,0,3
1,87,127,6893
1,99,127,1
1,99,0,20
1,87,0,0
1,85,127,75
1,97,127,1
1,97,0,20
1,85,0,0
1,84,127,75
1,96,127,1
1,96,0,20
1,84,0,0
1,80,127,75
1,92,127,1
1,92,0,20
1,80,0,0
1,82,127,75
1,94,127,1
1,94,0,20
1,82,0,0
1,87,127,123
1,99,127,1
1,99,0,20
1,87,0,0
1,84,127,27
1,96,127,0
1,96,0,21
1,84,0,0
1,80,127,75
1,92,127,1
1,92,0,20
1,80,0,0
1,87,127,844
1,99,127,0
1,99,0,20
1,87,0,0
1,85,127,75
1,97,127,1
1,97,0,20
1,85,0,0
1,84,127,75
1,96,127,1
1,96,0,20
1,84,0,0
1,80,127,75
1,92,127,1
1,92,0,20
1,80,0,0
1,82,127,75
1,94,127,1
1,94,0,20
1,82,0,0
1,87,127,123
1,99,127,0
1,99,0,21
1,87,0,0
1,84,127,27
1,96,127,1
1,96,0,20
1,84,0,0
1,80,127,76
1,92,127,0
1,92,0,20
1,80,0,0
1,92,127,843
1,80,124,3
1,92,0,13
1,80,0,3
1,92,127,2285
1,80,124,3
1,92,0,13
1,80,0,3
1,87,127,3821
1,99,127,1
1,99,0,20
1,87,0,0
1,85,127,75
1,97,127,1
1,97,0,20
1,85,0,0
1,84,127,75
1,96,127,1
1,96,0,20
1,84,0,0
1,80,127,75
1,92,127,1
1,92,0,20
1,80,0,0
1,82,127,75
1,94,127,1
1,94,0,20
1,82,0,0
1,87,127,123
1,99,127,0
1,99,0,21
1,87,0,0
1,84,127,27
1,96,127,1
1,96,0,20
1,84,0,0
1,80,127,75
1,92,127,0
1,92,0,21
1,80,0,0
1,87,127,844
1,99,127,0
1,99,0,20
1,87,0,0
1,85,127,75
1,97,127,0
1,97,0,21
1,85,0,0
1,84,127,75
1,96,127,1
1,96,0,20
1,84,0,0
1,80,127,75
1,92,127,1
1,92,0,20
1,80,0,0
1,82,127,75
1,94,127,1
1,94,0,20
1,82,0,0
1,87,127,123
1,99,127,1
1,99,0,20
1,87,0,0
1,84,127,27
1,96,127,1
1,96,0,20
1,84,0,0
1,80,127,75
1,92,127,1
1,92,0,20
1,80,0,0
1,89,126,76
1,89,0,21
1,87,126,75
1,87,0,13
1,85,126,83
1,85,0,12
1,84,126,84
1,84,0,12
1,82,126,83
1,82,0,16
1,80,126,81
1,80,0,18
1,84,126,78
1,84,0,18
1,80,126,78
1,80,0,14
1,92,127,81
1,80,124,3
1,92,0,13
1,80,0,3
1,92,127,1518
1,80,124,2
1,92,0,13
1,80,0,3
1,92,127,749
1,80,124,3
1,92,0,13
1,80,0,3
1,92,127,750
1,80,124,2
1,92,0,13
1,80,0,2
1,92,127,750
1,80,124,3
1,92,0,13
1,80,0,3
1,92,127,750
1,80,124,2
1,92,0,13
1,80,0,2
1,92,127,750
1,80,124,3
1,92,0,13
1,80,0,3
1,92,127,3821
1,80,124,3
1,92,0,13
1,80,0,3
1,92,127,1517
1,80,124,3
1,92,0,13
1,80,0,2
1,92,127,750
1,80,124,3
1,92,0,13
1,80,0,3
1,89,125,749
1,101,125,1
1,101,0,20
1,89,0,0
1,87,125,75
1,99,125,1
1,99,0,20
1,87,0,0
1,84,125,75
1,96,125,1
1,96,0,20
1,84,0,0
1,77,119,28
1,77,0,20
1,80,125,27
1,92,125,1
1,92,0,20
1,80,0,0
1,82,125,76
1,94,125,0
1,94,0,20
1,82,0,0
1,87,125,123
1,99,125,1
1,99,0,20
1,87,0,0
1,84,125,27
1,96,125,1
1,96,0,20
1,84,0,0
1,77,119,27
1,77,0,21
1,80,125,27
1,92,125,1
1,92,0,20
1,80,0,0
1,80,119,267
1,92,119,1
1,92,0,20
1,80,0,0
1,77,119,28
1,89,119,0
1,89,0,20
1,77,0,0
1,80,122,27
1,92,122,1
1,92,0,20
1,80,0,0
1,82,122,76
1,94,122,0
1,94,0,17
1,82,0,0
1,82,125,79
1,94,124,0
1,94,0,12
1,82,0,5
1,80,119,79
1,92,119,0
1,80,0,13
1,92,0,2
1,77,122,33
1,89,122,0
1,77,0,11
1,89,0,1
1,75,124,36
1,87,118,0
1,87,0,11
1,75,0,0
1,80,125,85
1,92,124,0
1,92,0,20
1,80,0,0
1,80,125,76
1,92,124,0
1,92,0,20
1,80,0,0
1,80,124,28
1,80,0,20
1,80,124,3
1,80,0,21
1,80,124,3
1,92,124,0
1,92,0,21
1,80,0,0
1,80,124,3
1,92,122,1
1,92,0,20
1,80,0,0
1,80,125,27
1,92,122,1
1,92,0,20
1,80,0,0
1,82,125,51
1,94,125,1
1,94,0,20
1,82,0,0
1,87,127,171
1,99,127,1
1,99,0,20
1,87,0,0
1,84,127,27
1,96,127,1
1,96,0,20
1,84,0,0
1,80,127,75
1,92,127,1
1,92,0,20
1,80,0,0
1,77,117,76
1,89,119,0
1,89,0,14
1,77,0,3
1,75,117,79
1,87,117,0
1,75,0,14
1,87,0,1
1,72,117,81
1,84,115,0
1,72,0,15
1,84,0,2
1,68,117,78
1,80,117,0
1,68,0,13
1,80,0,1
1,70,117,83
1,82,123,0
1,70,0,12
1,82,0,1
1,68,121,83
1,80,121,0
1,68,0,13
1,80,0,1
1,72,121,82
1,84,121,0
1,72,0,15
1,84,0,1
1,68,123,80
1,80,121,0
1,80,0,11
1,68,0,1
1,92,127,83
1,80,124,3
1,92,0,13
1,80,0,3
1,92,127,749
1,80,124,3
1,92,0,13
1,80,0,3
1,92,127,750
1,80,124,2
1,92,0,13
1,80,0,3
1,92,127,749
1,80,124,3
1,92,0,13
1,80,0,3
1,92,117,4350
1,80,121,0
1,80,0,20
1,92,0,0
2,49,120,766
2,68,124,2
2,75,124,3
2,49,0,13
2,68,0,12
2,75,0,2
2,53,119,16
2,65,121,2
2,53,0,16
2,65,0,13
2,56,119,17
2,68,124,2
2,73,124,3
2,56,0,13
2,68,0,13
2,73,0,2
2,61,120,15
2,65,121,2
2,61,0,16
2,65,0,12
2,56,122,18
2,68,124,2
2,72,124,2
2,56,0,14
2,72,0,11
2,68,0,1
2,53,120,18
2,61,112,2
2,53,0,16
2,61,0,10
2,49,119,20
2,65,124,2
2,68,124,3
2,49,0,13
2,65,0,8
2,68,0,7
2,61,121,15
2,61,0,26
2,51,120,22
2,67,123,2
2,70,123,3
2,51,0,17
2,58,117,26
2,58,0,23
2,63,117,25
2,63,0,23
2,70,123,25
2,70,0,1
2,67,0,0
2,75,123,1
2,70,0,36
2,75,0,3
2,53,120,7
2,68,123,2
2,72,123,3
2,53,0,17
2,68,0,8
2,72,0,2
2,60,117,16
2,60,0,23
2,65,123,25
2,65,123,2
2,65,0,1
2,68,123,2
2,68,0,90
2,65,0,0
2,49,120,1
2,49,0,29
2,53,119,19
2,53,0,18
2,56,119,30
2,56,0,18
2,63,120,30
2,63,0,32
2,61,120,16
2,61,0,22
2,56,118,26
2,56,0,18
2,49,118,30
2,49,0,24
2,51,120,72
2,67,123,2
2,70,122,3
2,51,0,17
2,58,117,26
2,58,0,23
2,63,117,25
2,63,0,23
2,70,123,25
2,70,0,1
2,67,0,0
2,75,123,1
2,70,0,35
2,75,0,1
2,53,120,10
2,68,123,2
2,72,123,3
2,53,0,17
2,68,0,8
2,72,0,2
2,65,119,112
2,65,0,29
2,49,120,19
2,68,124,2
2,75,124,3
2,49,0,13
2,68,0,12
2,75,0,2
2,53,119,16
2,65,121,2
2,53,0,16
2,65,0,13
2,56,119,17
2,68,124,2
2,73,124,3
2,56,0,13
2,68,0,13
2,73,0,2
2,63,120,15
2,65,121,2
2,63,0,16
2,65,0,12
2,61,122,18
2,68,124,2
2,72,124,3
2,61,0,13
2,72,0,11
2,68,0,1
2,56,120,18
2,61,112,2
2,56,0,16
2,61,0,11
2,49,119,19
2,65,123,2
2,68,123,2
2,49,0,14
2,65,0,8
2,68,0,7
2,51,120,63
2,67,123,2
2,70,123,3
2,51,0,17
2,58,117,26
2,58,0,23
2,63,117,25
2,63,0,23
2,70,123,25
2,70,0,1
2,67,0,0
2,75,123,1
2,70,0,36
2,75,0,3
2,53,120,7
2,68,123,2
2,72,123,3
2,53,0,17
2,68,0,8
2,72,0,2
2,60,117,16
2,60,0,23
2,65,117,25
2,68,123,2
2,65,0,21
2,68,0,41
2,54,120,32
2,68,120,2
2,70,120,3
2,77,119,1
2,54,0,15
2,66,121,27
2,68,0,1
2,70,0,3
2,77,0,2
2,66,0,41
2,70,121,1
2,73,119,2
2,75,119,3
2,70,0,16
2,73,0,5
2,75,0,11
2,66,121,11
2,66,0,16
2,70,121,32
2,73,122,2
2,70,0,19
2,73,0,13
2,54,117,14
2,54,0,22
2,70,121,26
2,72,123,2
2,70,0,14
2,72,0,18
2,66,121,14
2,66,0,22
2,51,117,26
2,63,116,2
2,68,124,3
2,70,123,1
2,63,0,12
2,51,0,6
2,68,0,5
2,70,0,9
2,63,118,10
2,63,0,21
2,68,123,27
2,68,0,32
2,51,117,16
2,51,0,16
2,63,117,32
2,68,122,2
2,72,122,3
2,63,0,24
2,68,0,1
2,72,0,7
2,63,119,11
2,63,0,32
2,68,122,16
2,68,0,72
2,49,120,12312
2,68,124,2
2,75,124,3
2,49,0,13
2,68,0,12
2,75,0,2
2,53,119,16
2,65,121,2
2,53,0,16
2,65,0,13
2,56,119,17
2,68,124,2
2,73,124,3
2,56,0,13
2,68,0,13
2,73,0,2
2,61,120,15
2,65,121,2
2,61,0,16
2,65,0,12
2,56,122,18
2,68,124,2
2,72,124,3
2,56,0,13
2,72,0,10
2,68,0,1
2,53,120,19
2,61,112,2
2,53,0,16
2,61,0,11
2,49,119,19
2,65,124,2
2,68,124,3
2,49,0,13
2,65,0,8
2,68,0,7
2,61,121,15
2,61,0,26
2,51,120,22
2,67,123,2
2,70,123,3
2,51,0,17
2,58,117,26
2,58,0,23
2,63,117,25
2,63,0,23
2,70,123,25
2,70,0,1
2,67,0,0
2,75,123,1
2,70,0,36
2,75,0,3
2,53,120,7
2,68,123,2
2,72,123,2
2,53,0,18
2,68,0,8
2,72,0,2
2,60,117,16
2,60,0,23
2,65,123,25
2,65,123,2
2,65,0,1
2,68,123,2
2,68,0,90
2,65,0,0
2,49,122,1
2,49,0,22
2,53,122,26
2,53,0,18
2,56,122,30
2,56,0,32
2,63,126,16
2,63,0,47
2,61,122,1
2,61,0,22
2,56,121,26
2,56,0,18
2,49,121,30
2,49,0,24
2,51,120,72
2,51,0,24
2,58,117,24
2,58,0,18
2,67,124,30
2,70,124,2
2,75,126,3
2,67,0,81
2,75,0,2
2,70,0,0
2,65,124,8
2,68,124,2
2,72,126,3
2,68,0,19
2,65,0,1
2,72,0,8
2,60,119,15
2,60,0,19
2,65,121,29
2,65,0,24
2,49,120,72
2,68,124,2
2,75,124,3
2,49,0,13
2,68,0,12
2,75,0,2
2,53,119,16
2,65,121,2
2,53,0,16
2,65,0,13
2,56,119,17
2,68,124,2
2,73,124,3
2,56,0,13
2,68,0,13
2,73,0,2
2,63,120,15
2,65,121,2
2,63,0,16
2,65,0,12
2,61,122,18
2,68,124,2
2,72,124,3
2,61,0,13
2,72,0,11
2,68,0,1
2,56,120,18
2,61,112,2
2,56,0,16
2,61,0,11
2,49,119,19
2,65,123,2
2,68,123,3
2,49,0,13
2,65,0,8
2,68,0,7
2,51,120,63
2,67,123,2
2,70,123,3
2,51,0,17
2,58,117,26
2,58,0,23
2,63,117,25
2,63,0,23
2,70,123,25
2,70,0,1
2,67,0,0
2,75,123,1
2,70,0,36
2,75,0,3
2,53,120,7
2,68,123,2
2,72,123,3
2,53,0,17
2,68,0,8
2,72,0,2
2,60,117,16
2,60,0,23
2,65,117,25
2,68,123,2
2,65,0,21
2,68,0,41
