track,note,velocity,time
0,75,31,245
0,79,39,4
0,41,73,1
0,63,55,6
0,41,77,36
0,74,62,172
0,74,0,20
0,41,0,90
0,82,33,9
0,41,81,8
0,79,66,2
0,79,0,22
0,41,0,128
0,41,73,25
0,63,0,105
0,63,47,81
0,63,0,14
0,79,0,6
0,82,0,21
0,75,0,5
0,74,46,45
0,74,33,12
0,41,0,0
0,77,33,1
0,70,90,4
0,39,54,3
0,74,0,5
0,67,52,1
0,65,57,7
0,67,0,8
0,39,69,20
0,74,0,55
0,65,0,34
0,74,43,80
0,39,0,112
0,79,70,16
0,39,49,7
0,79,0,19
0,72,61,3
0,72,0,20
0,75,40,10
0,75,0,27
0,72,39,4
0,72,0,21
0,74,55,8
0,70,58,6
0,74,0,14
0,74,0,22
0,39,0,4
0,72,40,9
0,39,75,8
0,70,0,2
0,72,57,2
0,72,0,10
0,70,23,40
0,72,0,5
0,70,54,1
0,70,0,11
0,65,50,15
0,65,0,29
0,67,30,9
0,70,0,0
0,67,66,1
0,67,0,18
0,65,46,5
0,65,0,22
0,34,57,7
0,63,46,1
0,39,0,3
0,67,0,0
0,65,53,1
0,63,0,12
0,77,0,7
0,63,61,33
0,65,0,6
0,63,47,3
0,36,72,2
0,63,0,7
0,34,0,7
0,60,53,4
0,60,0,23
0,63,54,3
0,75,35,10
0,79,34,0
0,63,0,3
0,65,72,0
0,41,61,2
0,60,37,79
0,62,43,12
0,60,0,6
0,41,0,3
0,63,44,6
0,62,0,5
0,41,66,5
0,63,0,38
0,82,33,134
0,41,0,98
0,41,57,22
0,74,1,79
0,70,1,17
0,82,0,22
0,79,0,0
0,65,0,21
0,41,0,11
0,41,64,26
0,80,40,56
0,65,43,130
0,82,39,1
0,75,0,1
0,74,0,7
0,80,0,2
0,70,0,5
0,82,0,24
0,74,35,41
0,70,92,16
0,74,0,7
0,65,0,3
0,67,75,3
0,77,34,1
0,79,36,0
0,74,35,1
0,41,0,1
0,63,44,0
0,39,61,2
0,65,53,8
0,67,0,8
0,39,55,7
0,63,44,1
0,60,44,3
0,60,0,50
0,63,55,6
0,82,36,2
0,63,0,16
0,79,49,1
0,79,0,29
0,74,75,9
0,63,0,28
0,72,50,6
0,74,0,4
0,72,0,11
0,70,79,24
0,70,0,21
0,70,37,49
0,67,39,14
0,70,0,5
0,39,0,4
0,67,0,7
0,58,70,7
0,63,97,2
0,77,0,3
0,39,45,0
0,82,0,4
0,74,0,0
0,79,0,1
0,63,0,2
0,70,102,27
0,72,90,67
0,70,0,6
0,70,99,57
0,72,0,1
0,70,0,57
0,67,77,0
0,67,0,56
0,65,86,1
0,65,0,53
0,63,79,8
0,36,112,58
0,42,124,0
0,63,0,2
0,60,54,0
0,38,84,0
0,65,92,1
0,60,61,0
0,32,100,0
0,38,0,22
0,32,0,8
0,32,100,0
0,42,100,0
0,42,0,30
0,32,0,0
0,32,100,0
0,36,0,5
0,42,0,2
0,60,0,9
0,60,0,3
0,65,0,9
0,36,99,0
0,42,108,0
0,67,99,2
0,32,0,0
0,32,100,0
0,42,100,0
0,60,59,2
0,60,55,4
0,42,0,24
0,32,0,0
0,42,0,30
0,36,0,1
0,60,0,9
0,60,0,0
0,60,62,16
0,42,127,0
0,60,69,3
0,36,112,0
0,65,97,2
0,67,0,1
0,42,0,34
0,36,0,3
0,65,0,7
0,60,0,5
0,60,0,7
0,42,100,32
0,42,127,28
0,42,0,2
0,65,97,1
0,65,0,28
0,67,90,0
0,42,100,1
0,67,0,28
0,65,78,0
0,42,0,2
0,38,127,2
0,63,97,22
0,65,0,4
0,38,0,22
0,42,0,4
0,63,0,4
0,60,99,2
0,42,127,58
0,36,127,0
0,48,62,1
0,60,63,1
0,32,100,0
0,65,97,4
0,60,0,7
0,32,0,19
0,32,100,0
0,42,100,0
0,42,0,29
0,36,0,1
0,42,0,0
0,32,0,0
0,32,100,0
0,48,0,8
0,60,0,5
0,32,0,17
0,32,100,0
0,42,100,0
0,48,61,3
0,42,127,0
0,65,0,1
0,67,97,0
0,36,115,0
0,60,67,1
0,42,0,25
0,32,0,0
0,42,0,20
0,36,0,3
0,48,0,18
0,60,0,3
0,65,108,17
0,60,73,1
0,36,119,1
0,42,127,0
0,48,65,2
0,67,0,1
0,60,0,38
0,65,0,2
0,48,0,1
0,36,0,2
0,42,0,1
0,42,100,40
0,42,127,25
0,65,88,5
0,42,0,0
0,65,0,27
0,67,83,2
0,42,100,1
0,65,86,26
0,42,0,4
0,38,127,1
0,67,0,1
0,63,112,23
0,65,0,6
0,38,0,17
0,63,0,11
0,60,102,2
0,42,0,9
0,50,59,47
0,62,65,1
0,42,127,0
0,36,124,1
0,32,100,0
0,60,0,1
0,67,119,1
0,32,0,28
0,32,100,0
0,42,100,0
0,36,0,25
0,42,0,2
0,50,0,1
0,42,0,2
0,32,0,0
0,32,100,0
0,62,0,11
0,67,0,19
0,32,0,0
0,32,100,0
0,42,100,0
0,36,127,1
0,42,127,0
0,62,61,1
0,50,57,0
0,65,108,2
0,42,0,26
0,32,0,0
0,36,0,22
0,42,0,1
0,50,0,3
0,46,44,4
0,62,0,2
0,65,0,24
0,63,72,4
0,63,108,0
0,46,0,1
0,51,49,0
0,36,115,2
0,42,127,1
0,63,0,36
0,42,0,9
0,36,0,3
0,63,0,5
0,42,100,33
0,65,105,30
0,42,0,0
0,65,0,30
0,42,119,0
0,42,100,0
0,67,105,1
0,67,0,25
0,65,86,1
0,42,0,3
0,42,0,4
0,38,127,0
0,65,0,20
0,63,90,4
0,63,0,30
0,60,78,4
0,38,0,0
0,62,70,54
0,42,127,1
0,36,124,2
0,32,100,1
0,67,119,1
0,50,60,1
0,60,0,1
0,51,0,7
0,32,0,20
0,32,100,0
0,42,100,0
0,67,0,17
0,42,0,6
0,36,0,3
0,67,72,2
0,42,0,2
0,32,0,0
0,32,100,0
0,50,0,11
0,62,0,1
0,67,0,12
0,65,86,5
0,36,124,0
0,42,127,1
0,32,0,0
0,32,100,0
0,42,100,0
0,50,47,1
0,62,63,1
0,42,0,28
0,32,0,0
0,65,0,12
0,42,0,6
0,36,0,0
0,62,0,8
0,65,97,1
0,58,66,7
0,65,0,20
0,51,44,0
0,63,119,2
0,42,127,1
0,36,119,1
0,50,0,2
0,58,0,7
0,63,64,0
0,63,0,22
0,36,0,4
0,42,0,5
0,63,0,30
0,42,100,22
0,42,127,27
0,70,127,3
0,42,0,0
0,70,0,25
0,72,86,3
0,42,100,2
0,70,77,23
0,72,0,3
0,42,0,4
0,38,127,1
0,70,0,20
0,67,102,3
0,38,0,21
0,67,0,8
0,65,74,3
0,42,0,5
0,51,0,5
0,63,94,21
0,65,0,3
0,63,0,24
0,53,40,2
0,42,127,0
0,36,127,0
0,65,73,2
0,60,69,0
0,32,100,0
0,32,0,30
0,32,100,0
0,42,100,0
0,42,0,16
0,36,0,1
0,60,0,12
0,42,0,1
0,32,0,0
0,32,100,0
0,53,0,2
0,65,0,16
0,67,127,9
0,42,127,0
0,36,127,0
0,53,50,3
0,32,0,0
0,32,100,0
0,42,100,0
0,60,70,1
0,42,0,29
0,32,0,0
0,42,0,6
0,36,0,7
0,60,0,3
0,53,0,10
0,67,0,24
0,42,127,4
0,60,65,1
0,36,124,0
0,53,50,1
0,65,108,1
0,65,0,33
0,53,0,4
0,60,0,2
0,36,0,5
0,42,0,6
0,42,100,43
0,42,127,25
0,70,127,3
0,42,0,2
0,70,0,26
0,72,83,1
0,42,100,3
0,38,127,26
0,70,92,1
0,72,0,1
0,42,0,2
0,70,0,25
0,67,112,3
0,38,0,12
0,65,79,17
0,67,0,1
0,42,0,2
0,63,94,28
0,65,0,6
0,42,127,18
0,36,115,2
0,60,77,2
0,60,64,3
0,65,86,1
0,32,100,0
0,63,0,2
0,32,0,28
0,32,100,0
0,42,100,0
0,36,0,20
0,42,0,1
0,60,0,5
0,60,0,0
0,42,0,4
0,32,0,0
0,32,100,0
0,65,0,22
0,36,127,3
0,42,127,1
0,67,81,2
0,60,67,2
0,32,0,0
0,32,100,0
0,42,100,0
0,60,46,1
0,42,0,29
0,32,0,0
0,42,0,11
0,36,0,3
0,60,0,6
0,60,0,10
0,60,70,21
0,67,0,3
0,42,127,0
0,60,69,2
0,36,127,0
0,65,92,4
0,65,0,31
0,60,0,8
0,60,0,0
0,36,0,3
0,42,0,5
0,42,100,43
0,42,127,28
0,42,0,2
0,65,115,2
0,65,0,24
0,67,74,4
0,42,100,0
0,67,0,23
0,65,75,1
0,38,127,5
0,42,0,1
0,65,0,22
0,63,92,1
0,38,0,18
0,63,0,12
0,60,86,3
0,42,0,9
0,62,72,47
0,62,65,3
0,42,127,0
0,36,127,1
0,67,127,1
0,60,0,2
0,32,100,0
0,32,0,30
0,32,100,0
0,42,100,0
0,67,0,16
0,36,0,0
0,42,0,2
0,62,0,5
0,67,108,7
0,42,0,0
0,32,0,0
0,32,100,0
0,62,0,3
0,62,53,20
0,62,58,1
0,42,127,1
0,36,127,1
0,32,0,4
0,32,100,0
0,42,100,0
0,67,0,14
0,42,0,16
0,32,0,0
0,67,105,1
0,36,0,5
0,42,0,2
0,62,0,13
0,58,49,5
0,58,53,1
0,62,0,7
0,67,0,7
0,42,127,15
0,36,127,0
0,58,0,2
0,58,0,1
0,63,59,2
0,63,77,1
0,67,124,1
0,67,0,38
0,36,0,3
0,42,0,9
0,63,0,7
0,42,100,30
0,42,127,27
0,42,0,3
0,65,90,6
0,65,0,23
0,67,79,0
0,42,100,1
0,38,127,28
0,42,0,2
0,65,97,4
0,67,0,1
0,63,83,27
0,65,0,2
0,38,0,7
0,63,0,20
0,60,99,3
0,42,0,3
0,63,0,9
0,42,127,42
0,62,67,1
0,62,66,1
0,36,127,0
0,32,100,0
0,60,0,2
0,67,119,2
0,32,0,26
0,32,100,0
0,42,100,0
0,67,0,10
0,42,0,11
0,36,0,1
0,67,102,8
0,42,0,0
0,32,0,0
0,32,100,0
0,62,0,8
0,62,0,1
0,67,0,21
0,32,0,0
0,32,100,0
0,42,100,0
0,36,127,1
0,42,127,0
0,62,57,1
0,62,57,0
0,67,108,26
0,42,0,2
0,32,0,0
0,42,0,12
0,36,0,1
0,62,0,12
0,62,0,0
0,58,43,2
0,58,41,5
0,36,92,24
0,58,0,3
0,42,127,0
0,63,61,1
0,58,0,3
0,63,51,0
0,36,0,32
0,42,0,9
0,67,0,6
0,65,97,8
0,65,0,21
0,63,88,2
0,42,100,9
0,63,0,21
0,60,90,5
0,42,127,0
0,42,0,4
0,60,0,24
0,58,97,0
0,42,100,6
0,38,127,28
0,58,0,1
0,42,0,1
0,38,0,29
0,42,0,7
0,39,83,27
0,63,0,13
0,63,0,14
0,38,83,0
0,39,0,2
0,37,100,0
0,36,83,2
0,63,92,1
0,67,81,0
0,38,0,0
0,60,57,1
0,36,127,1
0,37,100,0
0,60,0,24
0,37,0,6
0,37,100,0
0,70,100,0
0,72,75,5
0,36,0,3
0,63,0,13
0,67,0,1
0,36,127,6
0,70,0,2
0,37,0,0
0,37,100,0
0,70,100,0
0,67,83,5
0,63,90,0
0,72,0,5
0,70,0,20
0,37,0,0
0,37,100,0
0,72,119,2
0,36,0,27
0,37,0,1
0,37,100,0
0,38,127,28
0,37,0,2
0,37,100,0
0,42,100,0
0,42,0,30
0,37,0,0
0,37,100,0
0,72,0,12
0,63,0,10
0,36,0,2
0,35,83,0
0,67,0,3
0,38,0,1
0,62,86,1
0,65,92,0
0,37,0,1
0,37,100,0
0,36,127,1
0,37,0,29
0,37,100,0
0,37,0,30
0,37,100,0
0,70,100,0
0,74,94,2
0,36,0,4
0,62,0,7
0,65,0,2
0,35,0,0
0,36,127,10
0,65,74,1
0,62,68,0
0,35,83,2
0,70,0,2
0,37,0,0
0,37,100,0
0,70,100,0
0,74,0,25
0,70,0,5
0,37,0,0
0,37,100,0
0,67,108,3
0,37,0,27
0,37,100,0
0,36,0,5
0,62,0,8
0,65,0,1
0,65,67,12
0,38,127,0
0,62,74,2
0,37,0,2
0,37,100,0
0,42,100,0
0,67,0,20
0,42,0,10
0,37,0,0
0,37,100,0
0,38,0,15
0,62,0,1
0,65,0,4
0,34,83,7
0,36,127,1
0,65,50,1
0,37,0,1
0,37,100,0
0,65,83,2
0,62,92,1
0,35,0,3
0,37,0,24
0,37,100,0
0,65,0,15
0,63,72,11
0,37,0,4
0,37,100,0
0,70,100,0
0,36,0,5
0,63,0,6
0,62,0,2
0,34,0,1
0,65,0,3
0,36,127,9
0,65,70,1
0,65,92,2
0,62,90,1
0,70,0,0
0,37,0,0
0,37,100,0
0,70,100,0
0,34,83,4
0,70,0,26
0,37,0,0
0,37,100,0
0,65,0,6
0,63,63,17
0,36,0,7
0,37,0,0
0,37,100,0
0,63,0,6
0,62,0,6
0,65,0,5
0,65,88,9
0,65,81,1
0,38,127,0
0,62,94,1
0,37,0,2
0,37,100,0
0,42,100,0
0,42,0,30
0,37,0,0
0,37,100,0
0,38,0,17
0,62,0,1
0,33,83,8
0,63,108,2
0,60,94,0
0,34,0,0
0,37,0,2
0,37,100,0
0,65,0,1
0,36,127,0
0,65,0,5
0,67,102,22
0,37,0,2
0,37,100,0
0,37,0,30
0,37,100,0
0,70,100,0
0,36,0,2
0,60,0,9
0,63,0,0
0,33,0,3
0,36,127,10
0,33,83,1
0,60,92,4
0,63,124,1
0,70,0,0
0,37,0,0
0,37,100,0
0,70,100,0
0,67,0,11
0,65,94,17
0,70,0,2
0,37,0,0
0,37,100,0
0,37,0,30
0,37,100,0
0,36,0,2
0,65,0,13
0,38,127,10
0,63,90,3
0,37,0,2
0,37,100,0
0,42,100,0
0,63,0,16
0,42,0,14
0,37,0,0
0,37,100,0
0,60,0,2
0,63,0,3
0,38,0,8
0,32,83,13
0,36,127,0
0,37,100,0
0,68,112,3
0,33,0,0
0,68,0,20
0,67,83,7
0,37,0,0
0,37,100,0
0,63,112,2
0,67,0,19
0,36,0,5
0,63,0,4
0,37,0,0
0,37,100,0
0,70,100,0
0,60,83,1
0,36,127,21
0,60,0,3
0,68,112,5
0,70,0,0
0,37,0,0
0,37,100,0
0,70,100,0
0,68,0,20
0,70,0,10
0,37,0,0
0,37,100,0
0,67,86,1
0,63,115,2
0,36,0,15
0,67,0,11
0,60,84,1
0,37,0,0
0,37,100,0
0,63,0,9
0,60,0,13
0,38,127,6
0,37,0,2
0,37,100,0
0,42,100,0
0,68,99,4
0,68,0,20
0,42,0,6
0,37,0,0
0,37,100,0
0,67,97,4
0,63,108,1
0,38,0,6
0,67,0,15
0,36,127,0
0,37,0,4
0,37,100,0
0,60,74,2
0,63,0,1
0,60,0,24
0,37,0,3
0,37,100,0
0,68,112,6
0,68,0,22
0,37,0,2
0,37,100,0
0,70,100,0
0,36,0,1
0,67,97,4
0,63,119,3
0,67,0,19
0,36,127,0
0,70,0,3
0,37,0,0
0,37,100,0
0,70,100,0
0,60,62,4
0,63,0,2
0,60,0,19
0,70,0,5
0,37,0,0
0,37,100,0
0,68,124,8
0,68,0,19
0,37,0,3
0,37,100,0
0,36,0,2
0,67,90,3
0,63,124,5
0,67,0,14
0,38,127,6
0,37,0,0
0,37,100,0
0,42,100,0
0,65,88,3
0,63,0,5
0,60,92,2
0,65,0,14
0,42,0,6
0,37,0,0
0,37,100,0
0,38,0,3
0,60,0,2
0,32,0,21
0,29,83,2
0,37,0,2
0,37,100,0
0,30,100,0
0,36,127,2
0,41,70,1
0,63,115,3
0,60,43,18
0,30,0,6
0,37,0,0
0,37,100,0
0,30,100,0
0,63,0,8
0,36,0,8
0,38,124,14
0,30,0,0
0,37,0,0
0,37,100,0
0,70,100,0
0,30,100,0
0,30,0,30
0,70,0,0
0,37,0,0
0,37,100,0
0,70,100,0
0,30,100,0
0,38,0,15
0,65,108,14
0,43,92,1
0,31,83,0
0,30,0,0
0,70,0,0
0,37,0,0
0,37,100,0
0,30,100,0
0,35,94,1
0,36,97,0
0,29,0,1
