track,note,velocity,time
1,55,118,6144
1,52,100,48
1,52,100,60
1,62,109,1
1,52,100,32
1,64,100,0
1,52,73,6
1,55,109,9
1,52,91,48
1,52,91,67
1,62,109,6
1,52,91,32
1,64,100,1
1,52,73,3
1,55,109,2
1,52,73,48
1,52,82,71
1,62,100,3
1,52,82,30
1,64,109,48
1,58,73,47
1,57,100,1
1,55,64,48
1,64,109,3
1,52,82,4
1,64,109,3
1,52,82,8
1,55,109,1
1,52,91,48
1,52,91,70
1,62,100,5
1,52,91,30
1,64,109,2
1,52,82,48
1,55,109,2
1,52,91,48
1,52,91,68
1,62,109,0
1,52,82,29
1,64,109,48
1,52,64,0
1,55,109,48
1,52,91,46
1,52,82,70
1,62,100,1
1,52,91,27
1,64,109,1
1,58,64,48
1,57,91,36
1,55,73,0
1,64,109,4
1,52,91,6
1,64,109,1
1,52,82,48
1,52,109,9
1,52,82,10
1,52,109,109
1,52,100,108
1,52,100,7
1,52,91,256
1,52,100,6
1,52,109,110
1,52,109,107
1,52,109,6
1,52,100,247
1,52,109,8
1,52,109,107
1,52,100,107
1,52,109,8
1,52,109,249
1,52,100,7
1,52,109,105
1,52,109,105
1,52,100,8
1,52,109,245
1,52,82,9
1,52,109,109
1,52,100,107
1,52,100,6
1,52,91,256
1,52,100,6
1,52,109,110
1,52,109,107
1,52,109,6
1,52,100,247
1,52,109,8
1,52,109,108
1,52,100,107
1,52,109,8
1,52,109,249
1,52,100,7
1,52,109,105
1,52,109,106
1,52,100,8
1,59,100,245
1,59,100,11
1,59,109,102
1,59,100,104
1,59,109,14
1,59,109,101
1,57,109,104
1,57,109,13
1,57,109,97
1,57,109,108
1,57,109,26
1,57,109,59
1,57,82,7
1,55,100,48
1,57,109,43
1,59,100,5
1,59,100,10
1,59,109,108
1,59,109,96
1,59,109,14
1,59,109,99
1,57,109,102
1,57,109,17
1,57,91,100
1,55,109,101
1,55,91,10
1,57,100,4
1,58,91,48
1,59,91,3
1,52,91,1
1,64,109,1
1,55,118,2
1,52,100,48
1,52,100,60
1,62,109,2
1,52,100,32
1,64,100,1
1,52,73,6
1,55,109,9
1,52,91,48
1,52,91,67
1,62,109,6
1,52,91,32
1,64,100,1
1,52,73,3
1,55,109,2
1,52,73,48
1,52,82,71
1,62,100,3
1,52,82,30
1,64,109,48
1,58,73,47
1,57,100,1
1,55,64,48
1,64,109,3
1,52,82,4
1,64,109,3
1,52,82,8
1,55,109,1
1,52,91,48
1,52,91,70
1,62,100,5
1,52,91,29
1,64,109,2
1,52,82,48
1,55,109,2
1,52,91,48
1,52,91,68
1,62,109,1
1,52,82,29
1,64,109,48
1,52,64,0
1,55,109,48
1,52,91,46
1,52,82,71
1,62,100,1
1,52,91,27
1,64,109,1
1,58,64,48
1,57,91,36
1,55,73,0
1,64,109,5
1,52,91,6
1,64,109,1
1,52,82,48
1,52,109,9
1,52,82,10
1,52,109,110
1,52,100,107
1,52,100,7
1,52,91,256
1,52,100,6
1,52,109,110
1,52,109,107
1,52,109,6
1,52,100,247
1,52,109,8
1,52,109,107
1,52,100,107
1,52,109,8
1,52,109,249
1,52,100,7
1,52,109,105
1,52,109,105
1,52,100,8
1,52,109,246
1,52,82,9
1,52,109,109
1,52,100,107
1,52,100,6
1,52,91,256
1,52,100,7
1,52,109,110
1,52,109,108
1,52,109,7
1,52,100,248
1,52,109,8
1,52,109,107
1,52,100,107
1,52,109,9
1,52,109,249
1,52,100,7
1,52,109,105
1,52,109,106
1,52,100,8
1,59,100,245
1,59,100,11
1,59,109,101
1,59,100,104
1,59,109,14
1,59,109,101
1,57,109,104
1,57,109,13
1,57,109,97
1,57,109,108
1,57,109,25
1,57,109,59
1,57,82,7
1,55,100,48
1,57,109,43
1,59,100,5
1,59,100,10
1,59,109,108
1,59,109,96
1,59,109,13
1,59,109,99
1,57,109,102
1,57,109,17
1,57,91,100
1,55,109,101
1,55,91,10
1,57,100,4
1,58,91,48
1,59,91,3
1,52,91,1
1,64,109,1
1,52,109,2
1,55,109,0
1,52,91,2
1,52,91,10
1,62,109,3
1,52,91,7
1,64,109,48
1,52,82,6
1,55,100,3
1,52,82,48
1,52,91,14
1,62,109,48
1,52,82,2
1,64,109,48
1,52,82,1
1,55,100,0
1,52,91,48
1,52,91,12
1,62,100,48
1,52,91,4
1,64,100,48
1,52,82,0
1,55,100,48
1,52,91,44
1,52,82,11
1,62,109,48
1,52,82,46
1,64,109,1
1,52,91,48
1,55,100,0
1,52,82,48
1,52,91,10
1,62,109,3
1,52,82,3
1,64,100,48
1,52,82,2
1,55,100,1
1,52,82,48
1,52,73,11
1,62,100,48
1,52,73,4
1,64,109,48
1,52,73,0
1,55,100,48
1,52,91,44
1,52,73,11
1,62,109,48
1,52,73,45
1,64,109,3
1,52,73,1
1,55,100,48
1,52,82,47
1,52,82,11
1,62,109,48
1,52,73,3
1,64,109,48
1,52,73,0
1,55,109,4
1,52,91,2
1,52,91,10
1,62,109,3
1,52,91,7
1,64,109,48
1,52,82,6
1,55,100,3
1,52,82,48
1,52,91,14
1,62,109,48
1,52,82,2
1,64,109,48
1,52,82,1
1,55,100,0
1,52,91,48
1,52,91,12
1,62,100,48
1,52,91,4
1,64,100,48
1,52,82,0
1,55,100,48
1,52,91,44
1,52,82,11
1,62,109,48
1,52,82,46
1,64,109,1
1,52,91,48
1,55,100,0
1,52,82,48
1,52,91,10
1,62,109,3
1,52,82,3
1,64,100,48
1,52,82,2
1,55,100,1
1,52,82,48
1,52,73,11
1,62,100,48
1,52,73,4
1,64,109,48
1,52,73,0
1,55,100,48
1,52,91,44
1,52,73,11
1,62,109,48
1,52,73,45
1,64,109,3
1,52,73,1
1,55,100,48
1,52,82,47
1,52,82,11
1,62,109,48
1,52,73,3
1,64,109,48
1,52,73,0
1,52,118,3
1,52,118,0
1,59,100,0
1,59,100,11
1,59,109,102
1,59,100,104
1,59,109,14
1,59,109,101
1,57,109,104
1,57,109,14
1,57,109,97
1,57,109,108
1,57,109,25
1,57,109,59
1,57,82,8
1,55,100,48
1,57,109,43
1,59,100,5
1,59,100,10
1,59,109,108
1,59,109,96
1,59,109,13
1,59,109,99
1,57,109,102
1,57,109,18
1,57,91,100
1,55,109,102
1,55,91,9
1,57,100,4
1,58,91,48
1,59,91,4
1,52,91,1
1,64,109,1
1,55,118,2
1,52,100,48
1,52,100,60
1,62,109,1
1,52,100,31
1,64,100,0
1,52,73,6
1,55,109,10
1,52,91,47
1,52,91,67
1,62,109,6
1,52,91,32
1,64,100,1
1,52,73,4
1,55,109,1
1,52,73,48
1,52,82,71
1,62,100,3
1,52,82,30
1,64,109,49
1,58,73,46
1,57,100,1
1,55,64,48
1,64,109,3
1,52,82,4
1,64,109,3
1,52,82,8
1,55,109,1
1,52,91,48
1,52,91,70
1,62,100,5
1,52,91,29
1,64,109,2
1,52,82,48
1,55,109,3
1,52,91,47
1,52,91,68
1,62,109,0
1,52,82,29
1,64,109,48
1,52,64,0
1,55,109,48
1,52,91,46
1,52,82,70
1,62,100,1
1,52,91,28
1,64,109,1
1,58,64,48
1,57,91,36
1,55,73,0
1,64,109,4
1,52,91,6
1,64,109,1
1,52,82,48
1,55,118,9
1,52,100,48
1,52,100,60
1,62,109,1
1,52,100,31
1,64,100,0
1,52,73,6
1,55,109,9
1,52,91,48
1,52,91,67
1,62,109,6
1,52,91,32
1,64,100,1
1,52,73,4
1,55,109,1
1,52,73,48
1,52,82,71
1,62,100,3
1,52,82,30
1,64,109,49
1,58,73,46
1,57,100,1
1,55,64,48
1,64,109,3
1,52,82,4
1,64,109,3
1,52,82,8
1,55,109,1
1,52,91,48
1,52,91,70
1,62,100,6
1,52,91,29
1,64,109,2
1,52,82,48
1,55,109,2
1,52,91,48
1,52,91,68
1,62,109,0
1,52,82,29
1,64,109,48
1,52,64,0
1,55,109,48
1,52,91,45
1,52,82,70
1,62,100,1
1,52,91,27
1,64,109,1
1,58,64,48
1,57,91,36
1,55,73,0
1,64,109,4
1,52,91,7
1,64,109,1
1,52,82,48
1,64,109,9
1,62,73,48
1,57,91,35
1,58,91,49
1,52,91,6
1,64,109,3
2,55,106,6143
2,52,88,48
2,52,88,59
2,62,97,1
2,52,88,31
2,64,88,0
2,52,61,6
2,55,97,8
2,52,79,49
2,52,79,67
2,62,97,6
2,52,79,31
2,64,88,1
2,52,61,3
2,55,97,2
2,52,61,47
2,52,70,71
2,62,88,3
2,52,70,30
2,64,97,47
2,58,61,47
2,57,88,1
2,55,52,48
2,64,97,3
2,52,70,4
2,64,97,3
2,52,70,7
2,55,97,1
2,52,79,48
2,52,79,70
2,62,88,4
2,52,79,30
2,64,97,2
2,52,70,48
2,55,97,2
2,52,79,47
2,52,79,68
2,62,97,0
2,52,70,28
2,64,97,49
2,52,52,0
2,55,97,48
2,52,79,46
2,52,70,71
2,62,88,1
2,52,79,27
2,64,97,1
2,58,52,47
2,57,79,36
2,55,61,0
2,64,97,4
2,52,79,6
2,64,97,1
2,52,70,48
2,52,97,8
2,52,70,10
2,52,97,108
2,52,88,107
2,52,88,7
2,52,79,256
2,52,88,6
2,52,97,110
2,52,97,107
2,52,97,6
2,52,88,247
2,52,97,9
2,52,97,106
2,52,88,107
2,52,97,7
2,52,97,249
2,52,88,7
2,52,97,105
2,52,97,104
2,52,88,8
2,52,97,245
2,52,70,9
2,52,97,109
2,52,88,107
2,52,88,5
2,52,79,256
2,52,88,6
2,52,97,110
2,52,97,106
2,52,97,6
2,52,88,247
2,52,97,7
2,52,97,107
2,52,88,107
2,52,97,8
2,52,97,248
2,52,88,7
2,52,97,105
2,52,97,106
2,52,88,8
2,59,88,245
2,59,88,10
2,59,97,102
2,59,88,104
2,59,97,14
2,59,97,101
2,57,97,103
2,57,97,13
2,57,97,96
2,57,97,108
2,57,97,25
2,57,97,59
2,57,70,7
2,55,88,47
2,57,97,43
2,59,88,5
2,59,88,10
2,59,97,108
2,59,97,95
2,59,97,14
2,59,97,99
2,57,97,102
2,57,97,17
2,57,79,100
2,55,97,101
2,55,79,10
2,57,88,3
2,58,79,49
2,59,79,3
2,52,79,1
2,64,97,1
2,55,106,2
2,52,88,48
2,52,88,60
2,62,97,1
2,52,88,31
2,64,88,0
2,52,61,6
2,55,97,8
2,52,79,49
2,52,79,67
2,62,97,6
2,52,79,31
2,64,88,1
2,52,61,3
2,55,97,2
2,52,61,48
2,52,70,71
2,62,88,3
2,52,70,30
2,64,97,47
2,58,61,47
2,57,88,1
2,55,52,48
2,64,97,3
2,52,70,4
2,64,97,3
2,52,70,8
2,55,97,1
2,52,79,48
2,52,79,70
2,62,88,4
2,52,79,29
2,64,97,2
2,52,70,48
2,55,97,2
2,52,79,47
2,52,79,68
2,62,97,0
2,52,70,29
2,64,97,48
2,52,52,0
2,55,97,48
2,52,79,45
2,52,70,71
2,62,88,1
2,52,79,27
2,64,97,1
2,58,52,47
2,57,79,36
2,55,61,0
2,64,97,4
2,52,79,6
2,64,97,1
2,52,70,48
2,52,97,8
2,52,70,10
2,52,97,109
2,52,88,107
2,52,88,7
2,52,79,256
2,52,88,6
2,52,97,110
2,52,97,107
2,52,97,6
2,52,88,247
2,52,97,8
2,52,97,106
2,52,88,107
2,52,97,7
2,52,97,249
2,52,88,7
2,52,97,105
2,52,97,104
2,52,88,9
2,52,97,245
2,52,70,9
2,52,97,109
2,52,88,107
2,52,88,6
2,52,79,256
2,52,88,6
2,52,97,110
2,52,97,107
2,52,97,7
2,52,88,247
2,52,97,8
2,52,97,107
2,52,88,107
2,52,97,8
2,52,97,248
2,52,88,7
2,52,97,104
2,52,97,106
2,52,88,8
2,59,88,245
2,59,88,11
2,59,97,101
2,59,88,104
2,59,97,14
2,59,97,101
2,57,97,105
2,57,97,13
2,57,97,96
2,57,97,108
2,57,97,24
2,57,97,59
2,57,70,7
2,55,88,48
2,57,97,42
2,59,88,5
2,59,88,10
2,59,97,108
2,59,97,95
2,59,97,13
2,59,97,98
2,57,97,102
2,57,97,17
2,57,79,100
2,55,97,101
2,55,79,10
2,57,88,4
2,58,79,48
2,59,79,3
2,52,79,1
2,64,97,1
2,52,97,2
2,55,97,1
2,52,79,2
2,52,79,9
2,62,97,3
2,52,79,7
2,64,97,47
2,52,70,5
2,55,88,3
2,52,70,48
2,52,79,13
2,62,97,47
2,52,70,2
2,64,97,48
2,52,70,2
2,55,88,0
2,52,79,48
2,52,79,11
2,62,88,48
2,52,79,5
2,64,88,48
2,52,70,0
2,55,88,48
2,52,79,42
2,52,70,11
2,62,97,48
2,52,70,46
2,64,97,1
2,52,79,47
2,55,88,1
2,52,70,47
2,52,79,11
2,62,97,3
2,52,70,3
2,64,88,47
2,52,70,2
2,55,88,0
2,52,70,48
2,52,61,11
2,62,88,47
2,52,61,3
2,64,97,48
2,52,61,0
2,55,88,48
2,52,79,44
2,52,61,10
2,62,97,48
2,52,61,46
2,64,97,3
2,52,61,1
2,55,88,48
2,52,70,46
2,52,70,10
2,62,97,49
2,52,61,3
2,64,97,48
2,52,61,0
2,55,97,2
2,52,79,2
2,52,79,9
2,62,97,3
2,52,79,7
2,64,97,47
2,52,70,5
2,55,88,3
2,52,70,48
2,52,79,13
2,62,97,48
2,52,70,2
2,64,97,48
2,52,70,2
2,55,88,0
2,52,79,48
2,52,79,11
2,62,88,48
2,52,79,5
2,64,88,48
2,52,70,0
2,55,88,48
2,52,79,42
2,52,70,10
2,62,97,49
2,52,70,46
2,64,97,1
2,52,79,48
2,55,88,1
2,52,70,47
2,52,79,11
2,62,97,3
2,52,70,3
2,64,88,47
2,52,70,2
2,55,88,0
2,52,70,49
2,52,61,11
2,62,88,48
2,52,61,3
2,64,97,48
2,52,61,0
2,55,88,48
2,52,79,44
2,52,61,10
2,62,97,48
2,52,61,45
2,64,97,3
2,52,61,1
2,55,88,48
2,52,70,47
2,52,70,10
2,62,97,49
2,52,61,3
2,64,97,48
2,52,61,0
2,52,106,2
2,52,106,1
2,59,88,1
2,59,88,10
2,59,97,101
2,59,88,103
2,59,97,13
2,59,97,99
2,57,97,104
2,57,97,13
2,57,97,96
2,57,97,108
2,57,97,24
2,57,97,59
2,57,70,7
2,55,88,48
2,57,97,43
2,59,88,5
2,59,88,9
2,59,97,108
2,59,97,95
2,59,97,13
2,59,97,98
2,57,97,102
2,57,97,17
2,57,79,99
2,55,97,101
2,55,79,10
2,57,88,3
2,58,79,48
2,59,79,2
2,52,79,1
2,64,97,1
2,55,106,2
2,52,88,47
2,52,88,60
2,62,97,1
2,52,88,31
2,64,88,0
2,52,61,5
2,55,97,8
2,52,79,48
2,52,79,67
2,62,97,6
2,52,79,32
2,64,88,0
2,52,61,2
2,55,97,2
2,52,61,48
2,52,70,71
2,62,88,2
2,52,70,29
2,64,97,49
2,58,61,47
2,57,88,1
2,55,52,48
2,64,97,2
2,52,70,5
2,64,97,3
2,52,70,8
2,55,97,1
2,52,79,47
2,52,79,71
2,62,88,4
2,52,79,28
2,64,97,2
2,52,70,47
2,55,97,2
2,52,79,48
2,52,79,68
2,62,97,0
2,52,70,29
2,64,97,47
2,52,52,1
2,55,97,48
2,52,79,45
2,52,70,70
2,62,88,0
2,52,79,26
2,64,97,0
2,58,52,49
2,57,79,37
2,55,61,0
2,64,97,4
2,52,79,6
2,64,97,1
2,52,70,48
2,55,106,8
2,52,88,47
2,52,88,60
2,62,97,0
2,52,88,31
2,64,88,0
2,52,61,5
2,55,97,8
2,52,79,48
2,52,79,67
2,62,97,6
2,52,79,32
2,64,88,0
2,52,61,2
2,55,97,2
2,52,61,48
2,52,70,71
2,62,88,2
2,52,70,29
2,64,97,48
2,58,61,47
2,57,88,1
2,55,52,48
2,64,97,3
2,52,70,4
2,64,97,3
2,52,70,8
2,55,97,1
2,52,79,47
2,52,79,70
2,62,88,5
2,52,79,28
2,64,97,2
2,52,70,48
2,55,97,2
2,52,79,48
2,52,79,68
2,62,97,0
2,52,70,29
2,64,97,47
