track,note,velocity,time
1,50,116,6320
1,52,115,2
1,55,114,2
1,52,116,2
1,50,118,2
1,43,118,2
1,47,119,0
1,45,116,2
1,52,119,0
1,50,116,2
1,57,119,0
1,55,116,2
1,52,119,0
1,50,116,2
1,47,119,0
1,43,116,2
1,40,115,8416
1,35,115,2
1,33,116,2
1,38,115,12
1,38,119,8
1,40,118,12
1,43,119,18
1,43,111,40
1,40,117,4
1,38,119,30
1,31,116,2
1,38,116,206
1,40,116,2
1,43,116,2
1,40,116,2
1,38,116,2
1,31,116,2
1,38,116,206
1,40,116,2
1,43,116,2
1,40,116,2
1,38,116,2
1,31,116,2
1,40,116,718
1,38,116,2
1,38,116,2
1,40,116,2
1,43,116,2
1,40,116,2
1,38,116,2
1,31,116,2
1,31,116,386
1,31,116,20
1,31,116,386
1,31,116,20
1,31,116,386
1,31,116,20
1,31,116,386
1,31,116,20
1,31,116,386
1,31,116,20
1,31,116,386
1,31,116,20
1,31,116,386
1,31,116,20
1,38,116,2
1,40,116,2
1,43,116,2
1,40,116,2
1,38,116,2
1,31,116,2
1,31,116,386
1,31,116,20
1,31,116,386
1,31,116,20
1,31,116,386
1,31,116,20
1,31,116,386
1,28,116,20
1,28,116,386
1,28,116,20
1,28,116,386
1,35,116,20
1,35,116,386
1,35,116,20
1,34,116,130
1,33,116,2
1,33,116,386
1,33,116,20
1,33,116,386
1,26,116,20
1,26,116,386
1,26,116,20
1,38,116,2
1,40,116,2
1,43,116,2
1,40,116,2
1,38,116,2
1,31,116,2
1,31,116,386
1,31,116,20
1,31,116,386
1,31,116,20
1,31,116,386
1,31,116,20
1,38,116,2
1,40,116,2
1,43,116,2
1,40,116,2
1,38,116,2
1,31,116,2
1,31,116,386
1,31,116,20
1,31,116,386
1,31,116,20
1,31,116,386
1,31,116,20
1,38,116,2
1,40,116,2
1,43,116,2
1,40,116,2
1,38,116,2
1,31,116,2
1,31,116,386
1,31,116,20
1,31,116,386
1,31,116,20
1,31,116,386
1,31,116,20
1,40,116,386
1,40,116,2
1,40,116,386
1,40,116,20
1,40,116,386
1,38,116,20
1,38,116,386
1,38,116,20
1,38,116,2
1,40,116,2
1,43,116,2
1,40,116,2
1,38,116,2
1,31,116,2
1,31,116,386
1,31,116,20
1,31,116,386
1,31,116,20
1,31,116,386
1,31,116,20
1,38,116,2
1,40,116,2
1,43,116,2
1,40,116,2
1,38,116,2
1,31,116,2
1,31,116,386
1,31,116,20
1,31,116,386
1,31,116,20
1,31,116,386
1,31,116,20
1,38,116,2
1,40,116,2
1,43,116,2
1,40,116,2
1,38,116,2
1,31,116,2
1,31,116,386
1,31,116,20
1,31,116,386
1,31,116,20
1,31,116,386
1,31,116,20
1,40,116,386
1,40,116,2
1,40,116,386
1,40,116,20
1,40,116,386
1,38,116,20
1,38,116,386
1,38,116,20
1,38,115,322
1,40,114,2
1,35,112,2
1,28,114,2
1,28,112,40
1,30,115,22
1,31,114,2
1,32,115,12
1,32,106,150
1,32,110,118
1,32,109,148
1,33,111,96
1,33,107,104
1,33,111,120
1,33,108,130
1,38,114,100
1,38,114,140
1,38,113,184
1,33,109,16
1,26,110,16
1,33,112,6
1,26,112,2
1,33,113,18
1,40,114,2
1,28,114,130
1,28,112,40
1,30,115,22
1,31,114,2
1,32,115,12
1,32,106,150
1,32,110,118
1,32,109,148
1,33,111,96
1,33,107,104
1,33,111,120
1,33,108,130
1,38,114,100
1,38,114,126
1,38,113,118
1,38,114,108
1,38,114,110
1,38,114,126
1,38,113,118
1,38,114,108
1,38,114,110
1,38,114,126
1,38,113,118
1,40,113,10
1,43,113,20
1,43,113,18
1,40,113,16
1,38,113,16
1,31,116,26
1,31,116,386
1,31,116,20
1,31,116,386
1,31,116,20
1,31,116,386
1,31,116,20
1,31,116,386
1,31,116,20
1,31,116,386
1,31,116,20
1,31,116,386
1,31,116,20
1,31,116,386
1,31,116,20
1,38,116,2
1,40,116,2
1,43,116,2
1,40,116,2
1,38,116,2
1,31,116,2
1,31,116,386
1,31,116,20
1,31,116,386
1,31,116,20
1,31,116,386
1,31,116,20
1,31,116,386
1,28,116,20
1,28,116,386
1,28,116,20
1,28,116,386
1,35,116,20
1,35,116,386
1,35,116,20
1,34,116,130
1,33,116,2
1,33,116,386
1,33,116,20
1,33,116,386
1,26,116,20
1,26,116,386
1,26,116,20
1,38,116,2
1,40,116,2
1,43,116,2
1,40,116,2
1,38,116,2
1,31,116,2
1,31,116,386
1,31,116,20
1,31,116,386
1,31,116,20
1,31,116,386
1,31,116,20
1,38,116,2
1,40,116,2
1,43,116,2
1,40,116,2
1,38,116,2
1,31,116,2
1,31,116,386
1,31,116,20
1,31,116,386
1,31,116,20
1,31,116,386
1,31,116,20
1,38,116,2
1,40,116,2
1,43,116,2
1,40,116,2
1,38,116,2
1,31,116,2
1,31,116,386
1,31,116,20
1,31,116,386
1,31,116,20
1,31,116,386
1,31,116,20
1,40,116,386
1,40,116,2
1,40,116,386
1,40,116,20
1,40,116,386
1,38,116,20
1,38,116,386
1,38,116,20
1,38,116,2
1,40,116,2
1,43,116,2
1,40,116,2
1,38,116,2
1,31,116,2
1,31,116,386
1,31,116,20
1,31,116,386
1,31,116,20
1,31,116,386
1,31,116,20
1,38,116,2
1,40,116,2
1,43,116,2
1,40,116,2
1,38,116,2
1,31,116,2
1,31,116,386
1,31,116,20
1,31,116,386
1,31,116,20
1,31,116,386
1,31,116,20
1,38,116,2
1,40,116,2
1,43,116,2
1,40,116,2
1,38,116,2
1,31,116,2
1,31,116,386
1,31,116,20
1,31,116,386
1,31,116,20
1,31,116,386
1,31,116,20
1,40,116,386
1,40,116,2
1,40,116,386
1,40,116,20
1,40,116,386
1,38,116,20
1,38,116,386
1,38,116,20
1,38,115,322
1,31,116,2
1,31,116,386
1,31,116,20
1,31,116,386
1,31,116,20
1,31,116,386
1,31,116,20
1,38,116,2
1,40,116,2
1,43,116,2
1,40,116,2
1,38,116,2
1,31,116,2
1,31,116,386
1,31,116,20
1,31,116,386
1,31,116,20
1,31,116,386
1,31,116,20
1,38,116,2
1,40,116,2
1,43,116,2
1,40,116,2
1,38,116,2
1,31,116,2
1,31,116,386
1,31,116,20
1,31,116,386
1,31,116,20
1,31,116,386
1,31,116,20
1,40,116,386
1,40,116,2
1,40,116,386
1,40,116,20
1,40,116,386
1,38,116,20
1,38,116,386
1,38,116,20
1,38,116,2
1,40,116,2
1,43,116,2
1,40,116,2
1,38,116,2
1,31,116,2
1,31,116,386
1,31,116,20
1,31,116,386
1,31,116,20
1,31,116,386
1,31,116,20
1,38,116,2
1,40,116,2
1,43,116,2
1,40,116,2
1,38,116,2
1,31,116,2
1,31,116,386
1,31,116,20
1,31,116,386
1,31,116,20
1,31,116,386
1,31,116,20
1,38,116,2
1,40,116,2
1,43,116,2
1,40,116,2
1,38,116,2
1,31,116,2
1,31,116,386
1,31,116,20
1,31,116,386
1,31,116,20
1,31,116,386
1,31,116,16
1,40,116,386
1,40,116,2
1,40,116,180
1,40,116,20
1,40,116,386
1,38,116,20
1,38,116,38
1,38,116,20
2,55,103,22176
2,59,103,0
2,62,107,0
2,59,108,194
2,62,103,0
2,66,102,0
2,57,103,194
2,60,101,0
2,64,106,0
2,60,104,194
2,64,103,0
2,67,102,0
2,64,104,52546
2,69,103,0
2,68,97,6
2,64,107,6
2,67,107,0
2,62,100,6
2,64,104,6
2,69,103,0
2,68,97,6
2,64,107,6
2,67,107,0
2,62,100,6
2,67,100,0
2,67,105,6
2,71,113,0
3,71,118,13452
3,71,119,58
3,71,115,24
3,71,119,66
3,71,119,30
3,71,119,48
3,72,119,26
3,71,118,60
3,69,119,70
3,67,118,12
3,71,120,38
3,67,116,496
3,71,116,2
3,71,116,2
3,72,117,188
3,76,121,130
3,76,121,104
3,74,120,114
3,71,118,116
3,67,117,122
3,71,120,16
3,71,120,56
3,71,121,30
3,71,122,48
3,71,121,16
3,71,121,60
3,72,121,4
3,71,121,136
3,69,120,30
3,67,121,74
3,71,121,84
3,74,118,186
3,78,118,290
3,74,118,238
3,71,116,168
3,81,119,308
3,79,117,362
3,71,117,60
3,71,114,90
3,74,117,2
3,76,118,44
3,79,118,12
3,76,119,1010
3,74,117,108
3,72,117,2
3,72,117,78
3,74,118,94
3,79,117,624
3,74,117,96
3,76,119,276
3,74,117,108
3,72,117,2
3,72,117,78
3,74,118,94
3,79,117,624
3,74,117,96
3,76,119,276
3,74,117,108
3,72,117,2
3,72,117,78
3,74,118,94
3,74,117,112
3,72,115,72
3,71,116,2
3,71,116,106
3,72,115,192
3,71,115,14
3,69,115,2
3,69,116,106
3,67,116,136
3,67,116,78
3,71,118,206
3,71,119,58
3,71,115,24
3,71,119,66
3,71,119,30
3,71,119,48
3,72,119,26
3,71,118,60
3,69,119,70
3,67,118,12
3,71,120,38
3,67,116,496
3,71,116,2
3,71,116,2
3,71,116,2
3,72,117,60
3,76,121,130
3,76,121,104
3,74,120,114
3,71,118,116
3,67,117,122
3,71,120,16
3,71,120,56
3,71,121,30
3,71,122,48
3,71,121,16
3,71,121,60
3,72,121,4
3,71,121,136
3,69,120,30
3,67,121,74
3,71,121,84
3,74,118,186
3,78,118,290
3,74,118,238
3,71,116,168
3,74,116,308
3,81,119,52
3,79,117,18
3,71,117,108
3,71,114,90
3,74,117,2
3,76,118,44
3,79,118,12
3,76,119,1010
3,74,117,6
3,72,117,2
3,72,117,78
3,74,118,94
3,79,117,624
3,74,117,96
3,76,119,276
3,74,117,108
3,72,117,2
3,72,117,78
3,74,118,94
3,79,117,624
3,74,117,96
3,76,119,276
3,74,117,108
3,72,117,2
3,72,117,78
3,74,118,94
3,74,117,112
3,72,115,72
3,71,116,2
3,71,116,106
3,76,115,192
3,72,115,14
3,76,116,34
3,78,116,66
3,79,116,66
3,76,119,1230
3,74,117,6
3,72,117,2
3,72,117,78
3,74,118,94
3,79,117,624
3,74,117,96
3,76,119,276
3,74,117,108
3,72,117,2
3,72,117,78
3,74,118,94
3,79,117,624
3,74,117,96
3,76,119,276
3,74,117,108
3,72,117,2
3,72,117,78
3,74,118,94
3,74,117,112
3,72,115,72
3,71,116,2
3,71,116,106
3,76,115,192
3,72,115,14
3,76,116,34
3,78,116,66
3,76,119,834
3,76,117,40
3,76,117,118
3,79,118,190
3,79,118,106
3,79,115,22
3,78,116,68
3,76,117,34
3,78,118,62
3,76,118,14
3,74,118,54
3,71,115,128
3,74,118,46
3,76,118,62
3,74,111,2016
3,76,117,78
3,76,117,62
3,76,118,148
3,79,117,126
3,79,117,154
3,76,117,156
3,76,116,204
3,76,116,4
3,76,116,4
3,74,116,4
3,79,117,174
3,79,119,154
3,79,119,32
3,76,119,84
3,74,119,30
3,79,117,192
3,79,117,152
3,79,117,22
3,76,117,100
3,74,118,106
3,79,117,146
3,79,118,182
3,79,117,44
3,81,119,84
3,79,119,100
3,71,118,1386
3,71,119,58
3,71,115,24
3,71,119,66
3,71,119,30
3,71,119,48
3,72,119,26
3,71,118,60
3,69,119,70
3,67,118,12
3,71,120,38
3,67,116,496
3,71,116,2
3,71,116,2
3,72,117,188
3,76,121,130
3,76,121,104
3,74,120,114
3,71,118,116
3,67,117,122
3,71,120,16
3,71,120,56
3,71,121,30
3,71,122,48
3,71,121,16
3,71,121,60
3,72,121,4
3,71,121,136
3,69,120,30
3,67,121,74
3,71,121,84
3,74,118,186
3,78,118,290
3,74,118,238
3,71,116,168
3,74,116,308
3,81,119,52
3,79,117,18
3,71,117,108
3,71,114,90
3,74,117,2
3,76,118,44
3,79,118,12
3,76,119,1010
3,74,117,6
3,72,117,2
3,72,117,78
3,74,118,94
3,79,117,624
3,74,117,96
3,76,119,276
3,74,117,108
3,72,117,2
3,72,117,78
3,74,118,94
3,79,117,624
3,74,117,96
3,76,119,276
3,74,117,108
3,72,117,2
3,72,117,78
3,74,118,94
3,74,117,112
3,72,115,72
3,71,116,2
3,71,116,106
3,76,115,192
3,72,115,14
3,76,116,34
3,78,116,66
3,79,116,66
3,76,119,1230
3,74,117,6
3,72,117,2
3,72,117,78
3,74,118,94
3,79,117,624
3,74,117,96
3,76,119,276
3,74,117,108
3,72,117,2
3,72,117,78
3,74,118,94
3,79,117,624
3,74,117,96
3,76,119,276
3,74,117,108
3,72,117,2
3,72,117,78
3,74,118,94
3,74,117,112
3,72,115,72
3,71,116,2
3,71,116,106
3,76,115,192
3,72,115,14
3,76,116,34
3,78,116,66
3,79,116,66
3,76,127,1998
3,78,127,122
3,79,127,118
3,83,127,1878
3,83,127,124
3,81,127,162
3,74,127,1578
3,81,127,90
3,79,127,152
3,76,127,1722
3,74,127,2
3,71,127,272
3,74,127,250
3,74,124,1734
3,76,127,66
3,74,127,16
3,71,126,28
3,74,126,34
3,76,127,728
3,74,127,12
3,71,126,6
3,74,126,266
3,76,124,396
3,76,126,74
3,78,127,34
3,79,126,32
3,74,124,326
4,67,115,28606
4,62,115,114
4,67,114,2244
4,62,115,118
4,67,115,2320
4,62,117,96
4,59,120,14122
4,59,120,298
4,62,121,0
4,62,121,250
4,66,118,0
4,59,121,198
4,62,119,0
4,57,123,212
4,60,120,0
4,67,120,0
4,57,120,22
4,60,120,0
4,67,120,0
4,60,121,140
4,64,120,0
4,67,120,0
4,60,121,122
4,64,119,0
4,67,120,0
4,62,120,122
4,64,120,0
4,67,120,0
4,67,121,476
4,62,120,76
4,60,116,220
4,64,116,0
4,59,115,26
4,64,115,0
4,57,115,6
4,64,115,0
4,57,114,92
4,64,114,0
4,59,115,116
4,64,115,0
4,67,121,574
4,62,120,76
4,60,116,220
4,64,116,0
4,59,115,26
4,64,115,0
4,57,115,6
4,64,115,0
4,57,114,92
4,64,114,0
4,59,115,116
4,64,115,0
4,67,121,574
4,62,120,76
4,60,116,220
4,64,116,0
4,59,115,26
4,64,115,0
4,57,115,6
4,64,115,0
4,57,114,92
4,64,114,0
4,59,115,116
4,64,115,0
4,59,114,62
4,62,115,0
4,57,118,88
4,62,115,0
4,55,117,24
4,62,107,0
4,55,114,120
4,62,113,0
4,57,117,220
4,60,117,0
4,55,115,96
4,60,117,0
4,57,120,190
4,60,116,0
4,59,121,148
4,62,120,0
4,67,121,596
4,62,120,76
4,60,116,220
4,64,116,0
4,59,115,26
4,64,115,0
4,57,115,6
4,64,115,0
4,57,114,92
4,64,114,0
4,59,115,116
4,64,115,0
4,67,121,574
4,62,120,76
4,60,116,220
4,64,116,0
4,59,115,26
4,64,115,0
4,57,115,6
4,64,115,0
4,57,114,92
4,64,114,0
4,59,115,116
4,64,115,0
4,67,121,574
4,62,120,76
4,60,116,220
4,64,116,0
4,59,115,26
4,64,115,0
4,57,115,6
4,64,115,0
4,57,114,92
4,64,114,0
4,59,115,116
4,64,115,0
4,59,114,62
4,62,115,0
4,57,118,88
4,62,115,0
4,55,117,24
4,62,107,0
4,55,114,120
4,62,113,0
4,57,117,220
4,60,117,0
4,55,115,96
4,60,117,0
4,57,120,190
4,60,116,0
4,59,121,148
4,62,120,0
4,62,123,2388
4,66,125,0
4,59,123,6
4,64,122,0
4,62,123,6
4,66,123,0
4,57,122,252
4,64,123,0
4,60,122,1012
4,64,124,0
4,60,119,56
4,64,126,0
4,60,125,144
4,64,124,0
4,59,124,26
4,62,123,0
4,59,122,10
4,62,122,0
4,55,123,12
4,59,122,0
4,59,123,6
4,62,125,0
4,60,125,12
4,64,126,0
4,62,123,2496
4,66,125,0
4,59,123,6
4,64,122,0
4,62,123,6
4,66,123,0
4,57,122,252
4,64,123,0
4,60,122,1012
4,64,124,0
4,60,119,56
4,64,126,0
4,60,125,144
4,64,124,0
4,59,124,26
4,62,123,0
4,59,122,10
4,62,122,0
4,55,123,12
4,59,122,0
4,59,123,6
4,62,125,0
4,60,125,12
4,64,126,0
4,60,125,192
4,64,124,0
4,59,124,26
4,62,123,0
4,59,122,10
4,62,122,0
4,55,123,12
4,59,122,0
4,59,123,6
4,62,125,0
4,60,125,12
4,64,126,0
4,59,120,10944
