track,note,velocity,time
1,60,104,768
1,60,0,141
1,60,94,51
1,60,0,60
1,63,104,36
1,63,0,127
1,63,94,65
1,63,0,73
1,67,94,23
1,67,0,155
1,70,104,37
1,70,0,743
1,60,104,25
1,60,0,137
1,60,104,55
1,60,0,88
1,63,115,8
1,63,0,75
1,72,104,117
1,72,0,108
1,70,115,84
1,70,0,805
1,60,104,59
1,60,0,146
1,60,94,46
1,60,0,82
1,63,104,14
1,63,0,133
1,63,86,59
1,63,0,141
1,70,73,51
1,70,0,836
1,60,104,28
1,60,0,106
1,60,86,86
1,60,0,90
1,63,104,6
1,63,0,65
1,72,104,127
1,72,0,90
1,70,115,102
1,72,104,192
1,70,0,3
1,72,0,67
1,60,115,602
1,60,0,136
1,60,94,56
1,60,0,92
1,63,104,4
1,63,0,147
1,67,94,45
1,67,0,142
1,70,115,50
1,70,0,791
1,60,94,73
1,60,0,129
1,60,94,63
1,63,104,96
1,60,0,3
1,63,0,57
1,72,94,132
1,72,0,105
1,70,104,87
1,70,0,859
1,60,104,5
1,60,0,127
1,60,94,65
1,60,0,87
1,63,104,9
1,63,0,119
1,63,94,73
1,63,0,100
1,70,104,92
1,72,86,192
1,70,0,16
1,72,0,43
1,63,104,997
1,63,0,91
1,65,86,5
1,65,0,93
1,66,73,3
1,68,104,96
1,66,0,8
1,68,0,46
1,70,115,42
1,70,0,212
1,70,94,76
1,70,0,69
1,70,115,123
1,70,0,94
1,68,104,2
1,68,0,45
1,70,115,51
1,70,0,89
1,68,104,7
1,68,0,370
1,63,104,14
1,65,68,96
1,63,0,1
1,65,0,93
1,66,104,2
1,68,115,96
1,66,0,14
1,68,0,39
1,70,104,43
1,70,0,237
1,70,115,51
1,70,0,56
1,70,115,136
1,68,104,96
1,70,0,10
1,68,0,24
1,70,127,62
1,68,104,96
1,70,0,1
1,68,0,357
1,63,94,26
1,63,0,84
1,65,94,12
1,65,0,90
1,66,104,6
1,66,0,95
1,68,94,1
1,68,0,58
1,70,115,38
1,70,0,210
1,70,104,78
1,70,0,45
1,70,127,147
1,70,0,85
1,68,94,11
1,68,0,41
1,70,115,55
1,70,0,95
1,68,115,1
1,68,0,334
1,70,115,50
1,70,0,369
1,67,115,15
1,67,0,345
1,70,115,39
1,70,0,280
1,65,68,8
1,65,0,48
1,65,104,48
1,65,0,378
1,63,115,6
1,63,0,75
1,65,86,21
1,65,0,73
1,66,104,23
1,66,0,91
1,68,94,5
1,68,0,48
1,70,104,48
1,70,0,209
1,70,127,79
1,70,0,61
1,70,127,131
1,70,0,92
1,68,104,4
1,68,0,36
1,70,115,60
1,70,0,79
1,68,104,17
1,68,0,372
1,63,104,12
1,63,0,86
1,65,94,10
1,65,0,82
1,66,104,14
1,66,0,87
1,68,94,9
1,68,0,54
1,70,115,42
1,70,0,145
1,70,94,47
1,70,0,43
1,73,104,53
1,73,0,60
1,70,127,132
1,68,94,96
1,70,0,4
1,68,0,35
1,70,127,57
1,70,0,94
1,68,104,2
1,68,0,360
1,63,94,24
1,65,94,96
1,63,0,4
1,65,0,72
1,66,104,20
1,66,0,85
1,68,104,11
1,68,0,48
1,70,115,48
1,70,0,216
1,70,115,72
1,70,0,66
1,70,104,126
1,70,0,89
1,68,94,7
1,68,0,46
1,70,127,50
1,70,0,81
1,68,115,15
1,68,0,351
1,70,115,33
1,70,0,377
1,67,115,7
1,67,0,343
1,70,115,41
1,70,0,269
1,65,115,19
1,67,104,192
1,65,0,2
1,67,0,187
1,65,115,3
1,65,0,172
1,63,86,20
1,60,115,96
1,63,0,3
1,58,104,93
1,60,0,7
1,58,0,82
1,63,104,775
1,63,0,90
1,60,94,6
1,60,0,92
1,65,104,4
1,65,0,1006
1,65,94,338
1,65,0,96
1,67,94,0
1,67,0,70
1,65,94,26
1,65,0,43
1,67,86,5
1,65,79,48
1,67,0,2
1,65,0,148
1,70,104,42
1,70,0,258
1,67,94,30
1,67,0,97
1,63,104,95
1,63,0,38
1,63,115,58
1,63,0,180
1,60,104,12
1,60,0,59
1,65,104,37
1,65,0,2022
1,63,104,1242
1,60,94,96
1,63,0,7
1,60,0,79
1,65,94,10
1,65,0,1191
1,65,79,153
1,67,86,96
1,65,0,2
1,67,0,57
1,65,86,37
1,67,86,48
1,65,0,1
1,65,73,47
1,67,0,3
1,65,0,127
1,70,104,62
1,70,0,240
1,67,104,48
1,67,0,75
1,63,104,117
1,63,0,31
1,63,104,65
1,63,0,187
1,60,86,5
1,60,0,66
1,65,104,30
1,65,0,865
1,70,115,95
1,70,0,176
1,68,104,16
1,66,104,192
1,68,0,6
1,66,0,171
1,65,94,15
1,65,0,169
1,63,115,23
1,63,0,367
1,59,94,17
1,59,0,321
1,58,94,63
1,58,0,1150
1,55,63,98
1,55,0,44
1,60,104,52
1,58,94,288
1,60,0,8
1,58,0,78
1,55,86,10
1,55,0,452
1,64,115,124
1,64,0,260
1,65,115,28
1,65,0,174
1,67,104,18
1,67,0,251
1,67,94,37
1,67,0,51
1,67,94,45
1,67,0,188
1,63,86,4
1,60,115,96
1,63,0,9
1,60,0,1047
1,67,73,192
1,63,79,96
1,67,0,20
1,63,0,42
1,65,73,34
1,63,24,384
1,65,0,31
1,63,0,16
1,67,73,49
1,67,0,93
1,63,63,3
1,65,79,96
1,63,0,5
1,65,0,579
1,60,104,760
1,60,0,135
1,60,79,57
1,60,0,77
1,63,104,19
1,63,0,104
1,67,94,88
1,67,0,78
1,67,68,114
1,67,0,70
1,70,104,26
1,70,0,687
1,60,104,81
1,60,0,119
1,60,79,73
1,60,0,89
1,63,94,7
1,63,0,80
1,72,94,112
1,72,0,77
1,70,115,115
1,70,0,852
1,60,94,12
1,60,0,143
1,60,68,49
1,60,0,69
1,63,104,27
1,63,0,116
1,63,51,76
1,63,0,54
1,67,79,42
1,67,0,106
1,70,104,86
1,70,0,721
1,60,104,47
1,60,0,142
1,60,79,50
1,60,0,77
1,63,104,19
1,63,0,86
1,72,104,106
1,72,0,65
1,70,115,127
1,70,0,173
1,67,68,19
1,67,0,80
1,60,104,592
1,60,0,135
1,60,73,57
1,60,0,80
1,63,86,16
1,63,0,103
1,67,79,89
1,67,0,118
1,67,51,74
1,67,0,59
1,70,104,37
1,70,0,708
1,60,104,60
1,60,0,132
1,60,73,60
1,60,0,80
1,63,104,16
1,63,0,76
1,72,94,116
1,72,0,97
1,70,104,95
1,70,0,705
1,63,104,2079
1,63,0,89
1,65,94,7
1,65,0,92
1,66,79,4
1,68,104,96
1,66,0,10
1,68,0,46
1,70,86,40
1,73,115,96
1,70,94,96
1,73,0,14
1,70,0,19
1,70,0,12
1,73,104,51
1,70,73,0
1,70,0,69
1,70,104,27
1,73,0,7
1,70,0,33
1,70,104,56
1,70,94,0
1,70,0,79
1,68,104,17
1,68,79,0
1,70,0,7
1,68,0,37
1,68,0,7
1,70,115,45
1,70,79,0
1,68,104,48
1,70,0,3
1,70,0,11
1,66,104,34
1,68,79,0
1,68,0,3
1,66,0,224
1,66,104,61
1,63,73,96
1,68,0,8
1,66,0,80
1,63,0,1
1,68,115,7
1,65,79,0
1,68,0,42
1,65,0,39
1,66,86,15
1,66,0,92
1,68,94,4
1,68,0,52
1,70,86,44
1,70,0,151
1,70,63,41
1,70,0,57
1,70,94,39
1,70,0,59
1,61,115,133
1,70,79,0
1,61,0,94
1,70,0,2
1,63,79,0
1,68,79,0
1,68,0,39
1,63,0,28
1,66,86,29
1,70,94,0
1,70,0,75
1,68,94,21
1,68,86,0
1,66,0,4
1,68,0,45
1,70,94,47
1,70,0,91
1,68,86,5
1,68,0,51
1,68,104,45
1,68,0,74
1,68,0,19
1,66,115,3
1,63,94,0
1,66,0,44
1,63,0,25
1,66,104,27
1,65,86,0
1,65,0,84
1,66,0,7
1,63,115,5
1,66,68,0
1,66,0,93
1,68,94,3
1,63,0,3
1,68,0,48
1,70,104,45
1,70,0,217
1,70,104,71
1,70,0,55
1,70,104,137
1,70,104,0
1,70,0,69
1,70,0,10
1,68,94,17
1,68,63,0
1,68,0,48
1,68,0,1
1,70,94,47
1,70,94,0
1,70,0,65
1,70,0,17
1,68,115,14
1,68,86,0
1,68,0,69
1,70,115,27
1,70,0,180
1,68,104,12
1,68,0,28
1,66,104,20
1,68,0,6
1,66,0,39
1,63,115,3
1,70,94,0
1,63,0,340
1,67,86,44
1,70,0,11
1,75,104,85
1,75,0,145
1,74,104,47
1,67,0,95
1,70,94,1
1,72,79,48
1,74,0,3
1,70,104,45
1,72,0,22
1,70,0,49
1,72,104,25
1,72,0,95
1,67,104,1
1,67,0,55
1,70,0,22
1,70,115,19
1,65,86,0
1,70,0,217
1,66,13,23
1,72,94,48
1,70,94,0
1,66,0,13
1,70,0,15
1,65,0,29
1,63,94,39
1,70,86,48
1,72,0,8
1,63,0,19
1,70,0,9
1,67,34,12
1,65,86,0
1,67,0,30
1,65,0,42
1,66,94,24
1,68,94,96
1,66,0,4
1,68,0,47
1,70,104,45
1,73,115,96
1,73,0,95
1,70,115,1
1,70,0,13
1,70,0,24
1,73,115,59
1,70,94,0
1,70,0,71
1,70,104,25
1,73,0,7
1,70,0,32
1,70,115,57
1,70,104,0
1,70,0,73
1,68,94,23
1,68,73,0
1,70,0,5
1,68,0,33
1,68,0,22
1,70,115,36
1,70,104,0
1,70,0,36
1,68,104,12
1,70,0,13
1,66,104,35
1,68,104,0
1,68,0,1
1,66,0,211
1,66,104,76
1,68,0,86
1,63,79,10
1,63,0,86
1,66,0,0
1,68,104,10
1,65,86,0
1,68,0,56
1,65,0,27
1,66,86,13
1,68,86,96
1,66,0,18
1,68,0,38
1,70,94,40
1,70,0,139
1,70,73,53
1,70,0,42
1,73,104,54
1,73,0,49
1,61,104,47
1,73,44,0
1,73,0,5
1,61,0,89
1,63,79,2
1,70,94,0
1,70,0,66
1,63,0,5
1,66,104,25
1,68,73,0
1,68,0,52
1,68,79,44
1,70,94,0
1,66,0,13
1,68,0,49
1,70,0,33
1,68,86,1
1,68,86,0
1,68,0,48
1,70,94,48
1,70,0,87
1,68,104,9
1,68,0,47
1,68,104,49
1,68,0,75
1,68,0,8
1,66,115,13
1,63,94,0
1,66,0,42
1,63,0,38
1,66,104,16
1,65,86,0
1,65,0,80
1,66,0,4
1,63,104,12
1,66,86,0
1,68,94,96
1,66,0,1
1,68,0,49
1,70,94,46
1,63,0,1
1,70,0,215
1,70,104,72
1,70,0,54
1,70,115,138
1,70,94,0
1,70,0,91
1,68,86,5
1,68,0,57
1,70,0,20
1,68,115,19
1,70,94,0
1,70,0,74
1,68,94,22
1,68,0,81
1,66,115,15
1,66,0,143
1,63,73,49
1,63,0,44
1,61,104,4
1,68,0,12
1,63,104,36
1,70,86,0
1,61,0,10
1,63,0,338
1,67,94,36
1,70,0,1
1,75,104,95
1,75,0,120
1,74,94,72
1,67,0,76
1,70,94,20
1,72,59,48
1,74,0,11
1,70,104,37
1,72,0,27
1,70,0,45
1,72,115,24
1,70,0,87
1,72,0,3
1,65,104,6
1,70,115,96
1,65,0,83
1,67,86,13
1,70,0,142
1,67,0,49
1,72,104,1
1,65,86,0
1,65,0,167
1,72,0,2
1,70,104,23
1,63,86,0
1,70,0,82
1,67,104,14
1,60,94,0
1,63,0,3
1,67,0,77
1,60,0,9
1,65,104,7
1,58,94,0
1,65,0,42
1,67,86,6
1,58,0,28
1,65,104,20
1,67,0,2
1,63,94,286
1,65,0,11
1,63,115,469
1,60,104,96
1,63,0,8
1,63,0,60
1,60,0,28
1,65,86,0
1,65,0,1256
1,65,86,88
1,67,94,96
1,65,0,1
1,67,0,63
1,65,94,32
1,65,0,47
1,67,94,1
1,65,79,48
1,67,0,1
1,65,0,120
1,70,115,71
1,67,115,288
1,70,0,4
1,67,0,56
1,63,104,132
1,63,0,38
1,63,104,58
1,63,0,174
1,60,86,18
1,65,104,96
1,60,0,4
1,65,0,2219
1,63,104,1041
1,63,0,87
1,60,73,9
1,60,0,94
1,65,94,2
1,65,0,1227
1,65,81,117
1,65,0,90
1,67,89,6
1,67,0,89
1,65,79,7
1,65,0,48
1,67,86,0
1,67,0,41
1,65,86,7
1,65,0,149
1,70,115,43
1,70,0,265
1,67,73,23
1,67,0,58
1,63,104,134
1,63,0,32
1,63,104,64
1,63,0,190
1,60,86,2
1,60,0,89
1,65,104,7
1,65,0,1307
1,63,94,37
1,63,0,84
1,65,73,12
1,65,0,93
1,67,86,3
1,67,0,141
1,67,68,51
1,67,0,88
1,65,73,8
1,63,94,96
1,65,0,5
1,63,0,43
1,70,115,48
1,70,0,186
1,67,86,6
1,67,0,165
1,65,51,27
1,65,0,36
1,67,51,12
1,65,86,48
1,67,0,12
1,63,94,276
1,65,0,1
1,63,0,425
1,63,104,54
1,63,0,83
1,60,86,13
1,60,0,89
1,65,104,7
1,65,0,256
1,65,84,1088
1,65,0,96
1,67,79,0
1,67,0,96
1,65,86,0
1,67,73,48
1,65,0,4
1,67,0,40
1,65,94,4
1,65,0,155
1,70,115,37
1,70,0,178
1,72,94,14
1,72,0,70
1,67,94,26
1,67,0,70
1,63,86,122
1,63,0,39
1,63,104,57
1,63,0,176
1,60,104,16
1,60,0,72
1,65,115,24
1,65,0,812
1,70,115,148
1,70,0,181
1,68,104,11
1,66,104,192
1,68,0,11
1,66,0,180
1,65,104,1
1,65,0,173
1,63,115,19
1,63,0,352
1,59,94,32
1,58,104,384
1,59,0,6
1,62,86,666
1,65,79,0
1,58,44,0
1,62,0,167
1,58,0,2
1,65,0,5
1,55,73,18
1,62,94,0
1,58,47,0
1,62,0,38
1,55,0,3
1,58,0,2
1,55,79,149
1,62,86,0
1,58,47,0
1,58,0,141
1,55,0,18
1,62,0,1
1,58,47,32
1,58,0,46
1,55,59,50
1,50,68,0
1,58,68,0
1,55,0,181
1,50,0,4
1,58,0,7
1,58,0,429
1,64,115,339
1,64,0,246
1,65,115,42
1,65,0,165
1,67,86,27
1,67,0,224
1,67,94,64
1,67,0,58
1,67,94,38
1,67,0,183
1,63,86,9
1,60,104,96
1,63,0,3
1,60,0,1210
1,67,73,35
1,63,68,96
1,67,0,27
1,63,0,57
1,65,68,12
1,65,0,369
1,63,73,15
1,63,0,79
1,67,79,17
1,67,0,82
1,63,73,14
1,65,94,96
1,63,0,16
1,65,0,551
1,63,38,13161
1,65,79,96
1,63,0,4
1,65,0,48
1,65,68,44
1,63,41,0
1,63,0,34
1,65,0,145
1,63,63,13
1,63,0,86
1,60,68,10
1,60,0,80
1,63,63,16
1,63,0,192
1,65,63,0
1,65,0,44
1,63,38,2260
1,65,63,96
1,63,0,10
1,65,0,39
1,65,63,47
1,65,0,189
1,63,47,3
1,63,0,82
1,60,59,14
1,60,0,95
1,63,79,1
1,63,0,168
1,60,68,24
1,60,0,52
1,65,68,1484
1,65,0,46
1,67,79,2
1,67,0,58
1,65,55,86
1,65,0,44
1,65,79,52
1,65,0,164
1,66,79,124
1,65,55,0
1,65,0,45
1,66,0,34
1,65,36,113
1,65,0,43
1,65,79,53
1,65,0,451
1,60,79,221
1,60,0,79
1,63,86,17
1,63,0,51
1,65,63,45
1,65,0,49
1,65,47,47
1,65,0,458
1,65,44,214
1,65,0,39
1,67,68,9
1,65,63,48
1,67,0,36
1,63,59,156
1,65,0,6
1,63,0,34
1,65,79,56
1,65,0,160
1,63,41,32
1,63,0,90
1,60,86,6
1,60,0,45
1,63,94,51
1,63,0,112
1,65,86,80
1,65,0,68
1,60,79,28
1,60,0,25
1,60,86,71
1,60,0,85
1,58,94,11
1,58,0,625
1,63,36,1967
1,63,0,43
1,63,44,149
1,63,0,44
1,60,55,52
1,60,0,77
1,63,41,19
1,63,0,112
1,63,59,80
1,63,0,74
1,60,63,22
1,60,0,68
1,63,41,28
1,63,0,72
1,65,59,120
1,65,0,117
1,63,32,363
1,63,0,39
1,60,59,57
1,60,0,61
1,63,68,35
1,63,0,163
1,70,94,125
1,70,0,32
1,65,86,160
1,65,0,586
1,63,32,278
1,63,0,31
