track,note,velocity,time
0,66,64,0
0,58,109,0
0,63,109,2
0,30,116,0
0,65,74,0
0,57,96,0
0,63,101,0
0,29,100,1
0,64,72,3
0,63,121,5
0,56,116,0
0,28,124,0
0,63,69,3
0,27,116,10
0,63,109,3
0,55,105,0
0,58,66,0
0,63,78,0
0,56,78,0
0,53,89,0
0,60,86,0
0,56,64,0
0,34,93,2
0,70,85,188
0,39,109,29
0,29,80,26
0,34,109,2
0,75,69,1
0,34,101,0
0,29,83,4
0,27,116,1
0,58,74,13
0,58,74,1
0,51,116,0
0,58,109,0
0,63,93,0
0,55,66,0
0,57,72,0
0,39,96,0
0,36,122,0
0,44,74,0
0,36,81,8
0,42,64,0
0,39,84,2
0,54,88,3
0,42,64,18
0,36,97,0
0,44,74,3
0,40,100,0
0,29,68,8
0,30,53,0
0,42,64,0
0,39,69,5
0,36,70,1
0,54,70,0
0,39,116,9
0,42,64,2
0,44,74,4
0,36,112,0
0,42,64,12
0,36,89,0
0,54,79,5
0,29,74,15
0,30,61,1
0,42,64,0
0,35,88,0
0,39,101,0
0,44,74,4
0,40,100,0
0,42,64,13
0,54,89,6
0,81,89,0
0,29,86,1
0,42,64,1
0,30,74,0
0,63,74,0
0,48,92,2
0,55,70,2
0,58,116,0
0,36,110,0
0,36,122,0
0,44,74,0
0,63,109,2
0,36,80,11
0,36,81,0
0,42,64,0
0,54,79,3
0,42,64,18
0,36,97,0
0,44,74,3
0,40,100,0
0,42,64,8
0,29,83,1
0,36,70,2
0,54,79,0
0,36,115,2
0,36,89,10
0,42,64,1
0,44,74,6
0,36,112,0
0,42,64,12
0,36,89,0
0,54,79,5
0,29,76,16
0,42,64,0
0,35,88,0
0,36,115,3
0,44,74,1
0,40,100,0
0,42,64,13
0,54,79,6
0,81,89,0
0,41,124,2
0,29,65,5
0,42,64,1
0,44,93,4
0,55,63,0
0,58,109,0
0,63,101,0
0,58,78,2
0,32,93,1
0,36,122,0
0,44,74,0
0,32,78,8
0,36,81,1
0,42,64,0
0,54,79,3
0,42,64,18
0,36,97,0
0,44,74,3
0,40,100,0
0,29,70,6
0,42,64,2
0,36,70,6
0,54,79,0
0,32,109,2
0,42,64,8
0,44,74,6
0,36,112,0
0,42,64,12
0,36,89,0
0,54,79,5
0,42,64,16
0,35,88,0
0,44,74,4
0,40,100,0
0,32,121,1
0,42,64,13
0,54,79,6
0,81,89,0
0,29,74,1
0,42,64,1
0,47,120,0
0,55,74,0
0,58,109,0
0,63,93,0
0,35,110,1
0,36,122,0
0,44,74,0
0,58,85,2
0,35,105,11
0,36,81,0
0,42,64,0
0,54,79,3
0,42,64,18
0,36,97,0
0,44,74,3
0,40,100,0
0,29,78,8
0,42,64,0
0,36,70,6
0,54,79,0
0,34,121,0
0,42,64,0
0,34,109,2
0,56,85,2
0,46,109,0
0,56,109,1
0,70,85,1
0,61,101,0
0,53,68,0
0,44,74,2
0,36,112,0
0,39,109,11
0,42,64,1
0,36,89,0
0,54,79,5
0,42,64,16
0,35,88,0
0,29,80,3
0,34,109,2
0,75,69,2
0,58,109,0
0,44,74,0
0,40,100,0
0,34,101,0
0,61,93,0
0,42,64,0
0,29,83,4
0,63,121,1
0,54,79,0
0,81,89,0
0,41,120,2
0,27,116,1
0,63,116,0
0,58,74,0
0,51,116,0
0,58,109,0
0,63,93,0
0,55,66,0
0,67,72,0
0,57,72,0
0,39,96,0
0,36,122,0
0,44,74,0
0,36,81,8
0,42,64,0
0,39,84,2
0,54,88,3
0,42,64,18
0,36,97,0
0,44,74,3
0,40,100,0
0,29,68,8
0,30,53,0
0,42,64,0
0,39,69,5
0,36,70,1
0,54,70,0
0,39,116,9
0,42,64,2
0,67,86,0
0,44,74,4
0,36,112,0
0,42,64,12
0,36,89,0
0,54,79,5
0,68,85,9
0,29,74,2
0,30,61,1
0,42,64,0
0,35,88,0
0,39,101,0
0,44,74,4
0,40,100,0
0,42,64,13
0,70,63,5
0,54,89,1
0,81,89,0
0,29,86,1
0,42,64,1
0,30,74,0
0,63,74,0
0,48,92,2
0,55,70,2
0,58,116,0
0,63,69,0
0,36,110,0
0,36,122,0
0,44,74,0
0,63,109,1
0,36,80,11
0,36,81,0
0,42,64,0
0,54,79,3
0,42,64,18
0,36,97,0
0,44,74,3
0,40,100,0
0,42,64,8
0,29,83,1
0,36,70,2
0,54,79,0
0,36,115,2
0,36,89,10
0,42,64,1
0,70,61,4
0,44,74,2
0,36,112,0
0,42,64,12
0,36,89,0
0,54,79,5
0,68,85,12
0,29,76,2
0,42,64,0
0,35,88,0
0,36,115,3
0,44,74,1
0,40,100,0
0,42,64,13
0,67,78,4
0,54,79,2
0,81,89,0
0,41,124,2
0,29,65,5
0,42,64,1
0,44,93,4
0,55,63,0
0,58,109,0
0,63,101,0
0,58,78,1
0,65,76,1
0,32,93,0
0,36,122,0
0,44,74,0
0,32,78,8
0,36,81,1
0,42,64,0
0,67,70,1
0,54,79,0
0,63,63,10
0,42,64,1
0,36,97,0
0,44,74,3
0,40,100,0
0,29,70,6
0,42,64,2
0,36,70,6
0,54,79,0
0,32,109,2
0,42,64,8
0,44,74,6
0,36,112,0
0,42,64,12
0,36,89,0
0,54,79,5
0,42,64,16
0,35,88,0
0,58,67,3
0,44,74,0
0,40,100,0
0,32,121,1
0,61,55,2
0,42,64,0
0,54,79,2
0,81,89,0
0,63,101,1
0,29,74,1
0,42,64,1
0,47,120,0
0,65,86,0
0,55,74,0
0,58,109,0
0,63,93,0
0,35,110,1
0,36,122,0
0,44,74,0
0,58,85,2
0,35,105,11
0,36,81,0
0,42,64,0
0,66,93,3
0,54,79,0
0,42,64,18
0,36,97,0
0,44,74,3
0,40,100,0
0,29,78,8
0,42,64,0
0,65,86,4
0,36,70,2
0,54,79,0
0,34,121,0
0,42,64,0
0,34,109,2
0,56,85,2
0,46,109,0
0,56,109,1
0,70,85,1
0,61,101,0
0,53,68,0
0,44,74,2
0,36,112,0
0,39,109,11
0,42,64,1
0,36,89,0
0,54,79,5
0,42,64,1
0,35,88,0
0,29,80,3
0,34,109,2
0,75,69,2
0,58,109,0
0,65,78,1
0,44,74,0
0,40,100,0
0,34,101,0
0,61,93,0
0,42,64,0
0,29,83,4
0,63,121,1
0,65,86,0
0,54,79,0
0,81,89,0
0,41,120,2
0,27,116,1
0,63,74,5
0,63,116,0
0,58,74,0
0,51,116,0
0,58,109,0
0,63,93,0
0,55,66,0
0,67,72,0
0,57,72,0
0,39,96,0
0,36,122,0
0,44,74,0
0,36,81,8
0,42,64,0
0,39,84,2
0,54,88,3
0,42,64,18
0,36,97,0
0,44,74,3
0,40,100,0
0,29,68,8
0,30,53,0
0,42,64,0
0,39,69,5
0,36,70,1
0,54,70,0
0,39,116,9
0,42,64,2
0,67,86,0
0,44,74,4
0,36,112,0
0,42,64,12
0,36,89,0
0,54,79,5
0,68,85,9
0,29,74,2
0,30,61,1
0,42,64,0
0,35,88,0
0,39,101,0
0,44,74,4
0,40,100,0
0,42,64,13
0,70,63,5
0,54,89,1
0,81,89,0
0,29,86,1
0,42,64,1
0,30,74,0
0,63,74,0
0,48,92,2
0,55,70,2
0,58,116,0
0,63,69,0
0,36,110,0
0,36,122,0
0,44,74,0
0,63,109,1
0,36,80,11
0,36,81,0
0,42,64,0
0,54,79,3
0,42,64,18
0,36,97,0
0,44,74,3
0,40,100,0
0,42,64,8
0,29,83,1
0,36,70,2
0,54,79,0
0,36,115,2
0,36,89,10
0,42,64,1
0,70,61,4
0,44,74,2
0,36,112,0
0,42,64,12
0,36,89,0
0,54,79,5
0,68,85,12
0,29,76,2
0,42,64,0
0,35,88,0
0,36,115,3
0,44,74,1
0,40,100,0
0,42,64,13
0,67,78,4
0,54,79,2
0,81,89,0
0,41,124,2
0,29,65,5
0,42,64,1
0,44,93,4
0,55,63,0
0,58,109,0
0,63,101,0
0,58,78,1
0,65,76,1
0,32,93,0
0,36,122,0
0,44,74,0
0,32,78,8
0,36,81,1
0,42,64,0
0,67,70,1
0,54,79,0
0,63,63,10
0,42,64,1
0,36,97,0
0,44,74,3
0,40,100,0
0,29,70,6
0,42,64,2
0,36,70,6
0,54,79,0
0,32,109,2
0,42,64,8
0,44,74,6
0,36,112,0
0,42,64,12
0,36,89,0
0,54,79,5
0,42,64,16
0,35,88,0
0,58,67,3
0,44,74,0
0,40,100,0
0,32,121,1
0,61,55,2
0,42,64,0
0,54,79,2
0,81,89,0
0,63,101,1
0,29,74,1
0,42,64,1
0,47,120,0
0,65,86,0
0,55,74,0
0,58,109,0
0,63,93,0
0,35,110,1
0,36,122,0
0,44,74,0
0,58,85,2
0,35,105,11
0,36,81,0
0,42,64,0
0,66,93,3
0,54,79,0
0,42,64,18
0,36,97,0
0,44,74,3
0,40,100,0
0,29,78,8
0,42,64,0
0,65,86,4
0,36,70,2
0,54,79,0
0,34,121,0
0,42,64,0
0,34,109,2
0,56,85,2
0,46,109,0
0,56,109,1
0,70,85,1
0,61,101,0
0,53,68,0
0,44,74,2
0,36,112,0
0,39,109,11
0,42,64,1
0,36,89,0
0,54,79,5
0,42,64,1
0,35,88,0
0,29,80,3
0,34,109,2
0,75,69,2
0,58,109,0
0,65,78,1
0,44,74,0
0,40,100,0
0,34,101,0
0,61,93,0
0,42,64,0
0,29,83,4
0,63,121,1
0,65,86,0
0,54,79,0
0,81,89,0
0,41,120,2
0,27,116,1
0,63,74,5
0,63,116,0
0,27,101,0
0,57,72,0
0,36,122,0
0,44,74,0
0,67,64,0
0,63,64,0
0,58,64,2
0,36,81,4
0,42,64,0
0,54,88,3
0,42,64,18
0,36,97,0
0,27,63,2
0,44,74,3
0,40,100,0
0,42,64,8
0,36,70,6
0,54,70,0
0,27,78,4
0,27,109,14
0,42,64,1
0,27,74,6
0,44,74,0
0,36,112,0
0,27,93,8
0,42,64,3
0,36,89,0
0,27,85,5
0,54,79,0
0,42,64,14
0,35,88,0
0,44,74,4
0,40,100,0
0,42,64,13
0,27,71,0
0,54,89,0
0,81,89,0
0,65,64,2
0,27,109,0
0,42,64,1
0,63,64,2
0,36,122,7
0,44,74,0
0,27,101,0
0,65,64,2
0,67,64,0
0,36,81,4
0,42,64,0
0,54,79,3
0,27,109,18
0,42,64,0
0,36,97,0
0,44,74,3
0,40,100,0
0,42,64,8
0,36,70,6
0,54,79,0
0,27,101,2
0,42,64,14
0,27,109,2
0,44,74,5
0,36,112,0
0,27,101,2
0,42,64,4
0,36,89,0
0,27,116,1
0,54,79,4
0,27,101,2
0,42,64,6
0,35,88,0
0,44,74,4
0,40,100,0
0,42,64,13
0,27,74,5
0,54,79,1
0,81,89,0
0,41,124,2
0,42,64,6
0,36,122,7
0,44,74,0
0,79,127,0
0,51,116,2
0,36,81,0
0,42,64,0
0,54,79,3
0,42,64,18
0,36,97,0
0,44,74,3
0,40,100,0
0,42,64,8
0,36,70,6
0,54,79,0
0,42,64,16
0,44,74,6
0,36,112,0
0,42,64,12
0,36,89,0
0,54,79,5
0,42,64,16
0,35,88,0
0,44,74,4
0,40,100,0
0,79,112,0
0,42,64,13
0,54,79,6
0,81,89,0
0,77,91,0
0,76,91,0
0,42,64,6
0,36,122,7
0,44,74,0
0,36,81,11
0,42,64,0
0,54,79,3
0,42,64,18
0,36,97,0
0,44,74,3
0,40,100,0
0,42,64,8
0,36,70,6
0,54,79,0
0,42,64,16
0,44,74,6
0,36,112,0
0,42,64,12
0,36,89,0
0,54,79,5
0,42,64,16
0,35,88,0
0,46,109,4
0,44,74,0
0,40,100,0
0,42,64,0
0,48,105,2
0,54,79,1
0,81,89,0
0,51,93,2
0,41,120,0
0,51,101,2
0,57,72,11
0,36,122,0
0,44,74,0
0,77,122,0
0,36,81,11
0,42,64,0
0,54,88,3
0,42,64,18
0,36,97,0
0,77,97,0
0,44,74,3
0,40,100,0
0,42,64,8
0,36,70,3
0,54,70,0
0,79,70,0
0,42,64,16
0,44,74,6
0,36,112,0
0,77,112,0
0,42,64,8
0,36,89,0
0,54,79,5
0,75,79,0
0,42,64,16
0,35,88,0
0,70,88,0
0,44,74,4
0,40,100,0
0,42,64,13
0,54,89,6
0,81,89,0
0,79,89,0
0,55,105,2
0,42,64,6
0,36,122,7
0,44,74,0
0,36,81,11
0,42,64,0
0,54,79,3
0,42,64,18
0,36,97,0
0,44,74,3
0,40,100,0
0,42,64,8
0,36,70,6
0,54,79,0
0,42,64,16
0,44,74,6
0,36,112,0
0,42,64,12
0,36,89,0
0,54,79,5
0,34,109,16
0,42,64,0
0,35,88,0
0,44,74,4
0,40,100,0
0,79,112,0
0,39,116,2
0,42,64,2
0,80,79,1
0,34,116,1
0,54,79,3
0,81,89,0
0,82,93,0
0,41,124,2
0,27,116,3
0,82,111,0
0,42,64,0
0,36,122,7
0,44,74,0
0,27,101,1
0,36,81,11
0,42,64,0
0,54,79,3
0,27,109,13
0,42,64,0
0,36,97,0
0,44,74,3
0,40,100,0
0,42,64,8
0,36,70,6
0,54,79,0
0,27,116,5
0,27,93,11
0,42,64,2
0,44,74,6
0,36,112,0
0,27,109,11
0,42,64,1
0,36,89,0
0,27,101,3
0,54,79,2
0,42,64,13
0,35,88,0
0,44,74,0
0,40,100,0
0,79,112,0
0,42,64,2
0,80,89,0
0,27,116,6
0,54,79,0
0,81,89,0
0,82,91,0
0,82,117,6
0,42,64,0
0,27,78,3
0,32,116,3
0,36,122,0
0,44,74,0
0,36,81,11
0,42,64,0
0,54,79,3
0,80,82,0
0,32,109,9
0,80,99,1
0,42,64,0
0,36,97,0
0,44,74,3
0,40,100,0
0,42,64,8
0,36,70,6
0,54,79,0
0,32,116,1
0,42,64,13
0,32,116,1
0,32,109,5
0,44,74,1
0,36,112,0
0,32,101,11
0,42,64,1
0,36,89,0
0,32,116,5
0,54,79,0
0,42,64,11
0,35,88,0
0,44,74,4
0,40,100,0
0,77,118,0
0,79,89,7
0,42,64,0
0,32,109,5
0,54,79,1
0,81,89,0
0,80,122,0
0,41,120,2
0,27,74,4
0,80,127,2
0,34,116,4
0,36,122,0
0,44,74,0
0,36,81,11
0,42,64,0
0,54,79,3
0,79,88,0
0,34,116,9
0,42,64,2
0,36,97,0
0,79,97,0
0,44,74,3
0,40,100,0
0,42,64,8
0,34,121,6
0,36,70,0
0,54,79,0
0,77,70,0
0,42,64,4
0,75,95,0
0,34,109,4
0,44,74,2
0,36,112,0
0,42,64,5
0,36,89,0
0,27,74,2
0,54,79,5
0,75,79,0
0,34,116,2
0,42,64,8
0,35,88,0
0,70,88,0
0,44,74,4
0,40,100,0
0,42,64,13
0,54,79,1
0,81,89,0
0,42,64,6
0,75,117,0
0,58,109,7
0,36,122,0
0,44,74,0
0,66,64,0
0,63,109,2
0,30,116,0
0,36,81,11
0,42,64,0
0,54,79,3
0,42,64,18
0,36,97,0
0,44,74,3
0,40,100,0
0,42,64,8
0,36,70,1
0,54,79,0
0,57,96,0
0,63,101,0
0,65,74,0
0,29,100,1
0,42,64,16
0,44,74,6
0,36,112,0
0,42,64,12
0,36,89,0
0,54,79,5
0,42,64,16
0,35,88,0
0,44,74,4
0,40,100,0
0,42,64,0
0,64,72,3
0,54,79,4
0,81,89,0
0,63,121,1
0,56,116,0
0,28,124,0
0,41,120,1
0,36,122,11
0,44,74,0
0,36,81,11
0,42,64,0
0,54,79,3
0,42,64,18
0,36,97,0
0,44,74,3
0,40,100,0
0,63,69,3
0,42,64,4
0,36,70,6
0,54,79,0
0,27,116,1
0,63,109,3
0,55,105,0
0,42,64,16
0,44,74,6
0,36,112,0
0,42,64,12
0,36,89,0
0,54,79,5
0,42,64,16
0,35,88,0
0,44,74,4
0,40,100,0
0,42,64,5
0,63,78,0
0,56,78,0
0,53,89,0
0,60,86,0
0,54,79,0
0,81,89,0
0,58,66,0
0,56,64,0
0,34,93,2
0,42,64,6
0,36,122,4
0,44,74,0
0,58,85,2
0,36,81,11
0,42,64,0
0,54,79,3
0,42,64,18
