track,note,velocity,time
3,48,127,4402
3,48,0,4
3,48,127,208
3,48,0,4
3,48,127,200
3,48,0,164
3,48,127,208
3,48,0,56
3,36,127,216
3,36,0,16
3,36,127,208
3,36,0,8
3,36,127,204
3,36,0,12
3,36,127,92
3,36,0,152
3,31,127,40
3,35,127,12
3,31,0,4
3,35,0,4
3,35,127,188
3,35,0,168
3,35,127,208
3,35,0,184
3,35,127,84
3,35,0,28
3,29,127,32
3,29,0,4
3,34,127,12
3,34,0,180
3,34,127,192
3,34,0,192
3,34,127,184
3,34,0,180
3,34,127,104
3,34,0,4
3,28,127,44
3,28,0,8
3,33,127,68
3,33,0,148
3,33,127,176
3,33,0,8
3,33,127,92
3,33,0,48
3,33,127,36
3,33,0,16
3,31,127,40
3,31,0,20
3,29,127,48
3,29,0,8
3,28,127,56
3,28,0,20
3,26,127,48
3,26,0,8
3,26,127,200
3,26,0,16
3,26,127,92
3,26,0,100
3,28,127,80
3,28,0,236
3,29,127,44
3,29,0,12
3,31,127,20
3,31,0,8
3,31,127,204
3,31,0,108
3,31,127,212
3,31,0,24
3,31,127,4
3,31,0,32
3,33,127,24
3,33,0,24
3,26,127,32
3,26,0,32
3,26,127,180
3,26,0,24
3,26,127,168
3,26,0,20
3,28,127,144
3,28,0,24
3,29,127,8
3,29,0,8
3,31,127,72
3,31,0,12
3,31,127,208
3,31,0,124
3,31,127,100
3,31,0,100
3,31,127,96
3,31,0,12
3,31,127,76
3,31,0,12
3,33,127,28
3,33,0,4
3,36,127,56
3,36,0,16
3,36,127,208
3,36,0,8
3,36,127,204
3,36,0,12
3,36,127,92
3,36,0,152
3,31,127,40
3,35,127,12
3,31,0,4
3,35,0,4
3,35,127,188
3,35,0,168
3,35,127,208
3,35,0,184
3,35,127,84
3,35,0,28
3,29,127,32
3,29,0,4
3,34,127,12
3,34,0,180
3,34,127,192
3,34,0,192
3,34,127,184
3,34,0,180
3,34,127,104
3,34,0,4
3,28,127,44
3,28,0,8
3,33,127,68
3,33,0,148
3,33,127,176
3,33,0,8
3,33,127,92
3,33,0,48
3,33,127,36
3,33,0,16
3,31,127,40
3,31,0,20
3,29,127,48
3,29,0,8
3,28,127,56
3,28,0,20
3,26,127,48
3,26,0,8
3,26,127,200
3,26,0,16
3,26,127,92
3,26,0,100
3,28,127,80
3,28,0,236
3,29,127,44
3,29,0,12
3,31,127,20
3,31,0,8
3,31,127,204
3,31,0,108
3,31,127,212
3,31,0,24
3,31,127,4
3,31,0,32
3,33,127,24
3,33,0,24
3,26,127,32
3,26,0,32
3,26,127,0
3,26,0,24
3,26,127,168
3,26,0,20
3,28,127,144
3,28,0,24
3,29,127,8
3,29,0,8
3,31,127,72
3,31,0,12
3,31,127,208
3,31,0,124
3,31,127,100
3,31,0,100
3,31,127,96
3,31,0,12
3,31,127,76
3,31,0,12
3,33,127,28
3,33,0,4
3,36,127,56
3,36,0,16
3,36,127,208
3,36,0,8
3,36,127,204
3,36,0,12
3,36,127,92
3,36,0,152
3,31,127,40
3,35,127,12
3,31,0,4
3,35,0,4
3,35,127,188
3,35,0,168
3,35,127,208
3,35,0,184
3,35,127,84
3,35,0,28
3,29,127,32
3,29,0,4
3,34,127,12
3,34,0,180
3,34,127,192
3,34,0,192
3,34,127,184
3,34,0,180
3,34,127,104
3,34,0,4
3,28,127,44
3,28,0,8
3,33,127,68
3,33,0,148
3,33,127,176
3,33,0,8
3,33,127,92
3,33,0,48
3,33,127,36
3,33,0,16
3,31,127,40
3,31,0,20
3,29,127,48
3,29,0,8
3,28,127,56
3,28,0,20
3,26,127,48
3,26,0,8
3,26,127,200
3,26,0,16
3,26,127,92
3,26,0,100
3,28,127,80
3,28,0,236
3,29,127,44
3,29,0,12
3,31,127,20
3,31,0,8
3,31,127,204
3,31,0,108
3,31,127,212
3,31,0,24
3,31,127,4
3,31,0,32
3,33,127,24
3,33,0,24
3,26,127,32
3,26,0,32
3,26,127,0
3,26,0,24
3,26,127,168
3,26,0,20
3,28,127,144
3,28,0,24
3,29,127,8
3,29,0,8
3,31,127,72
3,31,0,12
3,31,127,208
3,31,0,124
3,31,127,100
3,31,0,100
3,31,127,96
3,31,0,12
3,31,127,76
3,31,0,12
3,33,127,28
3,33,0,4
3,28,127,56
3,28,0,68
3,28,127,232
3,28,0,16
3,28,127,96
3,28,0,8
3,28,127,140
3,28,0,8
3,30,127,4
3,30,0,144
3,31,127,44
3,31,0,20
3,33,127,56
3,33,0,4
3,33,127,232
3,33,0,8
3,33,127,72
3,33,0,100
3,33,127,132
3,33,0,28
3,33,127,80
3,33,0,16
3,35,127,28
3,35,0,76
3,28,127,28
3,28,0,56
3,28,127,196
3,28,0,36
3,28,127,84
3,28,0,12
3,28,127,100
3,28,0,40
3,30,127,24
3,30,0,140
3,31,127,52
3,31,0,16
3,33,127,56
3,33,0,44
3,33,127,216
3,33,0,8
3,33,127,72
3,33,0,84
3,33,127,104
3,33,0,20
3,33,127,88
3,33,0,4
3,35,127,44
3,35,0,12
3,26,127,28
3,26,0,184
3,26,127,200
3,26,0,4
3,26,127,80
3,26,0,4
3,26,127,108
3,26,0,160
3,28,127,24
3,28,0,40
3,30,127,56
3,30,0,28
3,31,127,32
3,31,0,8
3,31,127,200
3,31,0,180
3,31,127,100
3,31,0,4
3,31,127,108
3,31,0,4
3,33,127,28
3,33,0,44
3,35,127,52
3,35,0,8
3,36,127,60
3,36,0,12
3,36,127,220
3,36,0,8
3,35,127,172
3,35,0,152
3,35,127,116
3,35,0,64
3,35,127,96
3,35,0,8
3,33,127,40
3,33,0,4
3,33,127,228
3,33,0,12
3,31,127,160
3,31,0,44
3,31,127,120
3,31,0,52
3,31,127,84
3,31,0,64
3,29,127,24
3,29,0,8
3,29,127,212
3,29,0,4
3,28,127,184
3,28,0,36
3,28,127,116
3,28,0,28
3,28,127,116
3,28,0,64
3,26,127,32
3,26,0,8
3,26,127,196
3,26,0,208
3,31,127,172
3,31,0,20
3,33,127,92
3,33,0,64
3,35,127,52
3,35,0,8
3,36,127,0
3,36,0,20
3,36,127,4
3,36,0,24
3,35,127,140
3,35,0,160
3,35,127,116
3,35,0,200
3,35,127,64
3,35,0,8
3,33,127,48
3,33,0,68
3,33,127,232
3,33,0,8
3,31,127,184
3,31,0,108
3,31,127,112
3,31,0,164
3,31,127,116
3,31,0,12
3,29,127,32
3,29,0,20
3,29,127,200
3,29,0,96
3,28,127,192
3,28,0,72
3,28,127,104
3,28,0,52
3,28,127,100
3,28,0,8
3,26,127,28
3,26,0,12
3,26,127,204
3,26,0,204
3,31,127,180
3,31,0,16
3,31,127,88
3,31,0,72
3,31,127,104
3,31,0,24
3,33,127,72
3,33,0,16
3,33,127,220
3,33,0,8
3,28,127,196
3,28,0,8
3,28,127,84
3,28,0,232
3,29,127,56
3,29,0,12
3,31,127,68
3,31,0,8
3,31,127,212
3,31,0,72
3,26,127,192
3,26,0,8
3,28,127,68
3,28,0,48
3,29,127,60
3,29,0,4
3,33,127,84
3,33,0,56
3,33,127,216
3,33,0,4
3,28,127,180
3,28,0,4
3,28,127,92
3,28,0,124
3,29,127,76
3,29,0,12
3,31,127,72
3,31,0,28
3,31,127,164
3,31,0,4
3,26,127,164
3,26,0,12
3,28,127,60
3,28,0,144
3,29,127,60
3,29,0,12
3,33,127,80
3,33,0,4
3,33,127,212
3,33,0,116
3,28,127,204
3,28,0,4
3,28,127,68
3,28,0,128
3,29,127,48
3,29,0,16
3,31,127,52
3,31,0,12
3,31,127,204
3,31,0,4
3,26,127,180
3,26,0,12
3,28,127,56
3,28,0,136
3,29,127,72
3,29,0,16
3,33,127,100
3,33,0,20
3,33,127,200
3,33,0,8
3,28,127,188
3,28,0,20
3,28,127,80
3,28,0,4
3,29,127,56
3,29,0,20
3,31,127,68
3,31,0,12
3,31,127,188
3,31,0,4
3,26,127,164
3,26,0,8
3,28,127,52
3,28,0,56
3,29,127,52
3,29,0,12
3,33,127,40
3,33,0,20
3,33,127,200
3,33,0,8
3,28,127,188
3,28,0,20
3,28,127,80
3,28,0,4
3,29,127,56
3,29,0,20
3,31,127,68
3,31,0,12
3,31,127,188
3,31,0,4
3,26,127,164
3,26,0,8
3,28,127,52
3,28,0,56
3,29,127,52
3,29,0,12
3,33,127,40
3,33,0,20
3,33,127,200
3,33,0,8
3,28,127,188
3,28,0,20
3,28,127,80
3,28,0,4
3,29,127,56
3,29,0,20
3,31,127,68
3,31,0,12
3,31,127,188
3,31,0,4
3,26,127,164
3,26,0,8
3,28,127,52
3,28,0,56
3,29,127,52
3,29,0,12
3,36,127,40
3,36,0,16
3,36,127,208
3,36,0,8
3,36,127,204
3,36,0,12
3,36,127,92
3,36,0,152
3,31,127,40
3,35,127,12
3,31,0,4
3,35,0,4
3,35,127,188
3,35,0,168
3,35,127,208
3,35,0,184
3,35,127,84
3,35,0,28
3,29,127,32
3,29,0,4
3,34,127,12
3,34,0,180
3,34,127,192
3,34,0,192
3,34,127,184
3,34,0,180
3,34,127,104
3,34,0,4
3,28,127,44
3,28,0,8
3,33,127,68
3,33,0,148
3,33,127,176
3,33,0,8
3,33,127,92
3,33,0,48
3,33,127,36
3,33,0,16
3,31,127,40
3,31,0,20
3,29,127,48
3,29,0,8
3,28,127,56
3,28,0,20
3,26,127,48
3,26,0,8
3,26,127,200
3,26,0,16
3,26,127,92
3,26,0,100
3,28,127,80
3,28,0,236
3,29,127,44
3,29,0,12
3,31,127,20
3,31,0,8
3,31,127,204
3,31,0,108
3,31,127,212
3,31,0,24
3,31,127,4
3,31,0,32
3,33,127,24
3,33,0,24
3,26,127,32
3,26,0,32
3,26,127,0
3,26,0,24
3,26,127,168
3,26,0,20
3,28,127,144
3,28,0,24
3,29,127,8
3,29,0,8
3,31,127,72
3,31,0,12
3,31,127,208
3,31,0,124
3,31,127,100
3,31,0,100
3,31,127,96
3,31,0,12
3,31,127,76
3,31,0,12
3,33,127,28
3,33,0,4
3,36,127,56
3,36,0,16
3,36,127,208
3,36,0,8
3,36,127,204
3,36,0,12
3,36,127,92
3,36,0,152
3,31,127,40
3,35,127,12
3,31,0,4
3,35,0,4
3,35,127,188
3,35,0,168
3,35,127,208
3,35,0,184
3,35,127,84
3,35,0,28
3,29,127,32
3,29,0,4
3,34,127,12
3,34,0,180
3,34,127,192
3,34,0,192
3,34,127,184
3,34,0,180
3,34,127,104
3,34,0,4
3,28,127,44
3,28,0,8
3,33,127,68
3,33,0,148
3,33,127,176
3,33,0,8
3,33,127,92
3,33,0,48
3,33,127,36
3,33,0,16
3,31,127,40
3,31,0,20
3,29,127,48
3,29,0,8
3,28,127,56
3,28,0,20
3,26,127,48
3,26,0,8
3,26,127,200
3,26,0,16
3,26,127,92
3,26,0,100
3,28,127,80
3,28,0,236
3,29,127,44
3,29,0,12
3,31,127,20
3,31,0,8
3,31,127,204
3,31,0,108
3,31,127,212
3,31,0,24
3,31,127,4
3,31,0,32
3,33,127,24
3,33,0,24
3,26,127,32
3,26,0,32
3,26,127,0
3,26,0,24
3,26,127,168
3,26,0,20
3,28,127,144
3,28,0,24
3,29,127,8
3,29,0,8
3,31,127,72
3,31,0,12
3,31,127,208
3,31,0,124
3,31,127,100
3,31,0,100
3,31,127,96
3,31,0,12
3,31,127,76
3,31,0,12
3,33,127,28
3,33,0,4
3,28,127,56
3,28,0,68
3,28,127,232
3,28,0,16
3,28,127,96
3,28,0,8
3,28,127,140
3,28,0,8
3,30,127,4
3,30,0,144
3,31,127,44
3,31,0,20
3,33,127,56
3,33,0,4
3,33,127,232
3,33,0,8
3,33,127,72
3,33,0,100
3,33,127,132
3,33,0,28
3,33,127,80
3,33,0,16
3,35,127,28
3,35,0,76
3,28,127,28
3,28,0,56
3,28,127,196
3,28,0,36
3,28,127,84
3,28,0,12
3,28,127,100
3,28,0,40
3,30,127,24
3,30,0,140
3,31,127,52
3,31,0,16
3,33,127,56
3,33,0,44
3,33,127,216
3,33,0,8
3,33,127,72
3,33,0,84
3,33,127,104
3,33,0,20
3,33,127,88
3,33,0,4
3,35,127,44
3,35,0,12
3,26,127,28
3,26,0,184
3,26,127,200
3,26,0,4
3,26,127,80
3,26,0,4
3,26,127,108
3,26,0,160
3,28,127,24
3,28,0,40
3,30,127,56
3,30,0,28
3,31,127,32
3,31,0,8
3,31,127,200
3,31,0,180
3,31,127,100
3,31,0,4
3,31,127,108
3,31,0,4
3,33,127,28
3,33,0,44
3,35,127,52
3,35,0,8
3,36,127,60
3,36,0,12
3,36,127,220
3,36,0,8
3,35,127,172
3,35,0,152
3,35,127,116
3,35,0,64
3,35,127,96
3,35,0,8
3,33,127,40
3,33,0,4
3,33,127,228
3,33,0,12
3,31,127,160
3,31,0,44
3,31,127,120
3,31,0,52
3,31,127,84
3,31,0,64
3,29,127,24
3,29,0,8
3,29,127,212
3,29,0,4
3,28,127,184
3,28,0,36
3,28,127,116
3,28,0,28
3,28,127,116
3,28,0,64
3,26,127,32
3,26,0,8
3,26,127,196
3,26,0,208
3,31,127,172
3,31,0,20
3,33,127,92
3,33,0,64
3,35,127,52
3,35,0,8
3,36,127,0
3,36,0,20
3,36,127,4
3,36,0,24
3,35,127,140
3,35,0,160
3,35,127,116
3,35,0,200
3,35,127,64
3,35,0,8
3,33,127,48
3,33,0,68
3,33,127,232
3,33,0,8
3,31,127,184
3,31,0,108
3,31,127,112
3,31,0,164
3,31,127,116
3,31,0,12
3,29,127,32
3,29,0,20
3,29,127,200
3,29,0,96
3,28,127,192
3,28,0,72
3,28,127,104
3,28,0,52
3,28,127,100
3,28,0,8
3,26,127,28
3,26,0,12
3,26,127,204
3,26,0,204
3,31,127,180
3,31,0,16
3,31,127,88
3,31,0,72
3,31,127,104
3,31,0,24
3,33,127,72
3,33,0,16
3,33,127,220
3,33,0,8
3,28,127,196
3,28,0,8
3,28,127,84
3,28,0,232
3,29,127,56
3,29,0,12
3,31,127,68
3,31,0,8
3,31,127,212
3,31,0,72
3,26,127,192
3,26,0,8
3,28,127,68
3,28,0,48
3,29,127,60
3,29,0,4
3,33,127,84
3,33,0,56
3,33,127,216
3,33,0,4
3,28,127,180
3,28,0,4
3,28,127,92
3,28,0,124
3,29,127,76
3,29,0,12
3,31,127,72
3,31,0,28
3,31,127,164
3,31,0,4
3,26,127,164
3,26,0,12
3,28,127,60
3,28,0,144
3,29,127,60
3,29,0,12
3,33,127,80
3,33,0,4
3,33,127,212
3,33,0,116
3,28,127,204
3,28,0,4
3,28,127,68
3,28,0,128
3,29,127,48
3,29,0,16
3,31,127,52
3,31,0,12
3,31,127,204
3,31,0,4
3,26,127,180
3,26,0,12
3,28,127,56
3,28,0,136
3,29,127,0
3,29,0,16
3,33,127,100
3,33,0,20
3,33,127,200
3,33,0,8
3,28,127,188
3,28,0,20
3,28,127,80
3,28,0,4
3,29,127,56
3,29,0,20
3,31,127,68
3,31,0,12
3,31,127,188
3,31,0,4
3,26,127,164
3,26,0,8
3,28,127,52
3,28,0,56
3,29,127,52
3,29,0,12
3,33,127,40
3,33,0,20
3,33,127,200
3,33,0,8
3,28,127,188
3,28,0,20
3,28,127,80
3,28,0,4
3,29,127,56
3,29,0,20
3,31,127,68
3,31,0,12
3,31,127,188
3,31,0,4
3,26,127,164
3,26,0,8
3,28,127,52
3,28,0,56
3,29,127,52
3,29,0,12
3,33,127,40
3,33,0,20
3,33,127,200
3,33,0,8
3,28,127,188
3,28,0,20
3,28,127,80
3,28,0,4
3,29,127,56
3,29,0,20
3,34,127,68
3,34,0,8
3,34,127,4
3,34,0,20
3,38,127,168
3,38,0,20
3,38,127,60
3,38,0,24
3,38,127,12
3,38,0,16
3,39,127,40
3,39,0,772
3,29,127,4972
3,29,0,8
3,29,127,200
3,29,0,16
3,29,127,92
3,29,0,100
3,31,127,80
3,31,0,236
3,32,127,44
3,32,0,12
3,34,127,20
3,34,0,8
3,34,127,204
3,34,0,108
3,34,127,212
3,34,0,24
