track,note,velocity,time
0,67,126,16
0,42,96,252
0,42,0,4
0,42,89,12
0,67,0,4
0,42,0,0
0,42,109,148
0,42,0,40
0,42,100,148
0,39,100,0
0,42,0,16
0,42,96,60
0,39,0,8
0,42,0,8
0,42,104,140
0,42,0,36
0,42,104,252
0,42,0,44
0,42,96,144
0,39,100,0
0,42,0,44
0,42,86,52
0,39,0,32
0,42,0,8
0,42,104,132
0,42,0,40
0,48,127,40
0,42,86,0
0,42,0,44
0,48,0,4
0,42,104,16
0,42,0,48
0,48,127,140
0,42,96,0
0,39,100,0
0,42,0,16
0,42,92,60
0,39,0,20
0,42,0,12
0,48,0,4
0,42,109,104
0,42,0,12
0,48,127,52
0,48,0,164
0,42,100,16
0,42,0,44
0,48,127,4
0,67,125,0
0,42,104,0
0,39,100,0
0,42,0,0
0,42,96,8
0,39,0,4
0,48,0,32
0,42,0,4
0,42,104,120
0,42,0,36
0,36,127,4
0,42,86,0
0,67,0,4
0,42,0,4
0,36,0,16
0,42,104,16
0,42,0,44
0,36,127,132
0,42,100,0
0,39,100,0
0,42,0,32
0,42,92,12
0,39,0,20
0,42,0,24
0,36,0,8
0,42,104,108
0,42,0,16
0,36,127,48
0,42,104,8
0,36,0,4
0,42,0,40
0,36,127,48
0,42,100,20
0,39,100,0
0,42,0,44
0,42,92,8
0,39,0,16
0,36,0,20
0,42,0,16
0,31,127,28
0,42,104,20
0,42,0,40
0,35,127,12
0,42,86,0
0,31,0,4
0,42,0,40
0,42,104,0
0,35,0,4
0,42,0,36
0,35,127,148
0,42,104,0
0,39,100,0
0,42,0,12
0,39,0,52
0,42,92,4
0,42,0,4
0,35,0,28
0,42,104,112
0,42,0,20
0,35,127,52
0,35,0,184
0,42,104,8
0,42,0,40
0,35,127,44
0,67,125,4
0,42,89,0
0,39,100,0
0,42,0,4
0,42,86,0
0,39,0,4
0,35,0,24
0,42,0,16
0,29,127,32
0,42,104,40
0,42,0,44
0,29,0,4
0,34,127,12
0,42,89,0
0,67,0,4
0,42,0,12
0,34,0,64
0,42,109,0
0,42,0,40
0,34,127,148
0,42,100,0
0,39,100,0
0,42,0,16
0,42,96,60
0,39,0,8
0,42,0,8
0,34,0,44
0,42,104,88
0,42,0,36
0,34,127,60
0,34,0,180
0,42,104,8
0,42,0,44
0,34,127,48
0,42,96,96
0,39,100,0
0,42,0,44
0,42,86,52
0,39,0,32
0,42,0,8
0,34,0,4
0,28,127,36
0,42,104,20
0,28,0,8
0,42,0,12
0,33,127,40
0,42,86,0
0,42,0,24
0,42,104,132
0,33,0,16
0,42,0,32
0,33,127,140
0,42,96,0
0,39,100,0
0,42,0,12
0,42,92,40
0,39,0,20
0,42,0,12
0,33,0,8
0,33,127,92
0,42,109,0
0,42,0,12
0,33,0,4
0,33,127,36
0,33,0,16
0,31,127,40
0,42,100,0
0,42,0,0
0,31,0,20
0,29,127,4
0,67,125,0
0,42,104,0
0,39,100,0
0,42,0,0
0,42,96,0
0,39,0,4
0,29,0,8
0,42,0,12
0,28,127,24
0,42,104,56
0,42,0,8
0,28,0,12
0,26,127,4
0,76,66,0
0,72,66,0
0,69,64,0
0,76,62,0
0,42,86,0
0,67,0,4
0,42,0,4
0,76,0,8
0,72,71,4
0,72,0,4
0,69,0,20
0,76,0,12
0,26,0,8
0,69,58,8
0,42,104,0
0,42,0,44
0,64,55,36
0,72,0,8
0,69,0,52
0,26,127,36
0,60,60,0
0,69,57,0
0,76,58,0
0,72,64,0
0,42,100,0
0,39,100,0
0,42,0,4
0,64,0,20
0,57,62,12
0,42,92,0
0,39,0,20
0,42,0,24
0,60,0,4
0,72,0,8
0,26,0,8
0,76,0,4
0,69,0,0
0,57,0,56
0,26,127,32
0,72,66,0
0,69,65,0
0,76,62,0
0,42,104,0
0,42,0,4
0,72,0,0
0,76,0,16
0,69,0,0
0,26,0,100
0,28,127,80
0,76,60,0
0,72,64,0
0,69,61,0
0,42,104,0
0,42,0,4
0,42,100,108
0,39,100,0
0,69,0,16
0,72,0,0
0,76,0,0
0,42,0,4
0,42,92,8
0,39,0,16
0,28,0,16
0,42,0,0
0,29,127,28
0,69,57,0
0,72,58,0
0,76,57,0
0,76,0,12
0,72,0,0
0,69,0,8
0,42,104,0
0,42,0,24
0,29,0,12
0,31,127,20
0,74,64,0
0,69,60,0
0,71,66,0
0,42,86,0
0,42,0,4
0,71,0,36
0,74,0,4
0,69,0,8
0,31,0,8
0,42,104,12
0,42,0,40
0,31,127,148
0,71,55,0
0,69,55,0
0,74,58,0
0,42,104,0
0,39,100,0
0,42,0,4
0,39,0,32
0,42,92,4
0,42,0,4
0,31,0,28
0,74,0,36
0,69,0,4
0,71,0,0
0,71,62,76
0,74,60,0
0,69,60,0
0,42,104,0
0,42,0,20
0,69,0,16
0,74,0,0
0,71,0,0
0,31,127,36
0,31,0,24
0,74,61,28
0,71,62,0
0,69,60,0
0,42,104,0
0,42,0,52
0,31,127,4
0,69,0,52
0,71,0,4
0,74,0,0
0,67,125,8
0,42,89,0
0,39,100,0
0,42,0,4
0,42,86,8
0,39,0,4
0,42,0,4
0,31,0,24
0,33,127,24
0,69,65,0
0,71,66,0
0,74,65,0
0,71,0,12
0,74,0,12
0,69,0,0
0,42,104,44
0,42,0,4
0,33,0,8
0,26,127,32
0,81,66,0
0,72,66,0
0,76,62,0
0,69,62,0
0,42,89,0
0,67,0,4
0,42,0,12
0,72,0,8
0,76,65,8
0,69,0,4
0,76,0,0
0,81,0,16
0,72,62,20
0,42,109,0
0,26,0,12
0,42,0,28
0,76,0,32
0,69,45,20
0,72,0,48
0,26,127,48
0,64,56,0
0,69,62,0
0,76,61,0
0,72,67,0
0,42,100,0
0,39,100,0
0,42,0,16
0,60,66,16
0,42,96,0
0,69,0,8
0,39,0,0
0,42,0,8
0,64,0,24
0,72,0,8
0,76,0,8
0,57,58,0
0,69,0,0
0,26,0,20
0,60,0,16
0,69,60,24
0,76,57,0
0,72,58,0
0,42,104,0
0,42,0,36
0,72,0,24
0,69,0,12
0,76,0,12
0,26,127,8
0,57,0,8
0,26,0,12
0,72,68,48
0,76,63,0
0,69,64,0
0,42,104,0
0,42,0,12
0,28,127,48
0,76,0,72
0,72,0,0
0,69,0,12
0,42,96,12
0,39,100,0
0,42,0,32
0,42,86,52
0,39,0,32
0,42,0,8
0,28,0,24
0,29,127,8
0,72,66,0
0,69,62,0
0,76,64,0
0,72,0,28
0,76,0,0
0,69,0,0
0,42,104,24
0,29,0,8
0,42,0,16
0,31,127,40
0,71,66,0
0,69,61,0
0,74,66,0
0,42,86,0
0,42,0,16
0,71,0,8
0,74,0,8
0,69,0,0
0,31,0,12
0,42,104,16
0,42,0,48
0,31,127,140
0,69,62,0
0,71,66,0
0,74,66,0
0,42,96,0
0,39,100,0
0,42,0,0
0,42,92,36
0,39,0,20
0,42,0,12
0,31,0,44
0,74,0,8
0,71,0,0
0,69,0,0
0,31,127,68
0,71,60,0
0,74,59,0
0,69,60,0
0,42,109,0
0,42,0,0
0,69,0,0
0,74,0,0
0,71,0,0
0,67,127,12
0,31,0,80
0,31,127,96
0,71,65,0
0,69,65,0
0,74,63,0
0,42,100,0
0,42,0,44
0,31,0,12
0,31,127,4
0,71,0,0
0,42,104,0
0,39,100,0
0,74,0,4
0,69,0,4
0,42,0,0
0,42,96,12
0,39,0,4
0,31,0,12
0,42,0,4
0,33,127,24
0,74,66,0
0,69,66,0
0,71,66,0
0,71,0,20
0,69,0,16
0,74,0,0
0,42,104,16
0,42,0,0
0,33,0,4
0,36,127,4
0,48,100,0
0,57,110,0
0,36,127,0
0,42,100,0
0,67,0,4
0,42,0,4
0,36,0,4
0,36,0,16
0,52,100,4
0,46,86,0
0,46,0,4
0,36,127,0
0,55,100,0
0,60,100,0
0,64,127,0
0,38,80,0
0,36,127,0
0,42,96,0
0,39,100,0
0,42,0,8
0,36,0,12
0,38,0,12
0,42,92,0
0,39,0,8
0,42,0,24
0,64,0,4
0,36,0,8
0,67,127,0
0,46,92,0
0,57,0,32
0,46,0,12
0,67,0,40
0,36,127,0
0,67,127,0
0,36,127,0
0,42,96,0
0,42,0,8
0,36,0,4
0,46,89,8
0,36,0,4
0,46,0,8
0,36,127,40
0,67,0,48
0,64,127,0
0,38,80,0
0,36,127,0
0,42,96,0
0,39,100,0
0,36,0,4
0,42,0,4
0,38,0,8
0,42,96,8
0,64,0,12
0,39,0,4
0,36,0,12
0,42,0,16
0,31,127,0
0,67,127,0
0,46,92,0
0,48,0,8
0,46,0,4
0,67,0,32
0,55,0,4
0,52,0,8
0,60,0,8
0,35,127,0
0,47,100,0
0,69,127,0
0,36,127,0
0,42,100,0
0,31,0,4
0,42,0,8
0,36,0,8
0,69,0,4
0,50,100,0
0,71,127,0
0,46,86,0
0,35,0,4
0,46,0,20
0,35,127,128
0,59,100,0
0,55,100,0
0,38,80,0
0,36,127,0
0,42,96,0
0,39,100,0
0,71,0,28
0,42,0,0
0,38,0,16
0,36,0,0
0,39,0,20
0,42,92,4
0,42,0,4
0,35,0,28
0,67,127,0
0,46,92,0
0,46,0,48
0,35,127,72
0,36,127,0
0,42,96,0
0,36,0,4
0,42,0,4
0,67,0,28
0,35,0,20
0,64,127,0
0,46,89,0
0,46,0,4
0,35,127,40
0,64,0,40
0,67,127,0
0,38,80,0
0,36,127,0
0,42,96,0
0,39,100,0
0,42,0,16
0,36,0,0
0,38,0,8
0,42,96,0
0,39,0,4
0,67,0,12
0,35,0,4
0,42,0,4
0,29,127,0
0,69,127,0
0,36,127,0
0,46,92,0
0,46,0,4
0,36,0,4
0,47,0,12
0,55,0,0
0,29,0,4
0,59,0,4
0,50,0,4
0,34,127,12
0,46,100,0
0,36,127,0
0,42,100,0
0,42,0,16
0,36,0,0
0,69,0,4
0,34,0,116
0,50,100,0
0,46,86,0
0,46,0,20
0,34,127,0
0,53,100,0
0,58,100,0
0,64,127,0
0,38,80,0
0,36,127,0
0,42,96,0
0,39,100,0
0,42,0,12
0,36,0,4
0,38,0,8
0,42,92,20
0,39,0,8
0,64,0,4
0,42,0,8
0,34,0,0
0,67,127,0
0,46,92,0
0,46,0,40
0,67,0,20
0,34,127,0
0,67,127,0
0,36,127,0
0,42,96,0
0,36,0,52
0,42,0,4
0,34,0,120
0,46,89,8
0,46,0,8
0,34,127,40
0,67,0,12
0,69,127,0
0,38,80,0
0,36,127,0
0,42,96,0
0,39,100,0
0,36,0,8
0,42,0,8
0,38,0,8
0,42,96,0
0,39,0,32
0,69,0,8
0,34,0,4
0,42,0,0
0,28,127,0
0,67,127,0
0,46,92,0
0,46,0,12
0,67,0,0
0,28,0,8
0,58,0,12
0,53,0,12
0,50,0,0
0,46,0,8
0,33,127,0
0,45,100,0
0,70,127,0
0,36,127,0
0,42,100,0
0,36,0,32
0,42,0,0
0,49,100,132
0,46,86,0
0,33,0,16
0,70,0,4
0,46,0,4
0,33,127,0
0,52,100,0
0,57,100,0
0,69,127,0
0,38,80,0
0,36,127,0
0,42,96,0
0,39,100,0
0,42,0,0
0,36,0,4
0,38,0,4
0,42,92,20
0,39,0,20
0,42,0,12
0,46,92,4
0,33,0,4
0,46,0,0
0,69,0,32
0,33,127,16
0,33,0,16
0,33,127,0
0,67,127,0
0,36,127,0
0,42,96,0
0,42,0,0
0,36,0,12
0,33,0,16
0,31,127,40
0,46,89,0
0,46,0,4
0,31,0,20
0,67,0,12
0,29,127,0
0,65,127,0
0,38,80,0
0,36,127,0
0,42,96,0
0,39,100,0
0,42,0,8
0,36,0,0
0,38,0,16
0,42,96,0
0,39,0,4
0,65,0,8
0,29,0,8
0,42,0,12
0,28,127,0
0,64,127,0
0,36,127,0
0,46,92,0
0,46,0,4
0,36,0,4
0,57,0,56
0,45,0,0
0,49,0,0
0,52,0,4
0,28,0,16
0,26,127,4
0,72,66,0
0,69,64,0
0,76,62,0
0,57,110,0
0,36,127,0
0,42,100,0
0,42,0,0
0,36,0,0
0,76,0,8
0,72,0,8
0,69,0,12
0,64,0,4
0,26,0,8
0,57,127,0
0,46,86,0
0,46,0,4
0,57,0,20
0,26,127,0
0,60,127,0
0,69,57,0
0,76,58,0
0,72,64,0
0,38,80,0
0,36,127,0
0,42,96,0
0,39,100,0
0,42,0,0
0,38,0,16
0,36,0,8
0,42,92,4
0,39,0,20
0,42,0,24
0,72,0,8
0,46,92,4
0,26,0,4
0,76,0,4
0,69,0,0
0,57,0,24
0,46,0,16
0,26,127,48
0,72,66,0
0,69,65,0
0,76,62,0
0,72,0,0
0,76,0,16
0,69,0,0
0,36,127,0
0,42,96,0
0,42,0,8
0,36,0,4
0,26,0,40
0,60,0,12
0,28,127,0
0,57,127,0
0,76,60,0
0,72,64,0
0,69,61,0
0,46,89,0
0,46,0,8
0,38,80,108
0,36,127,0
0,42,96,0
0,39,100,0
0,69,0,4
0,72,0,0
0,76,0,0
0,57,0,4
0,42,0,0
0,36,0,0
0,38,0,12
0,42,96,8
0,39,0,16
0,28,0,16
0,42,0,0
0,29,127,28
0,69,57,0
0,72,58,0
0,76,57,0
0,46,92,0
0,46,0,0
0,76,0,12
0,72,0,0
0,69,0,8
0,29,0,12
0,31,127,20
0,74,64,0
0,69,60,0
0,71,66,0
0,36,127,0
0,42,100,0
0,42,0,8
0,36,0,4
0,71,0,24
0,74,0,4
0,69,0,8
0,31,0,8
0,46,86,12
0,46,0,20
0,31,127,128
0,71,55,0
0,69,55,0
0,74,58,0
0,38,80,0
0,36,127,0
0,42,96,0
0,39,100,0
0,42,0,20
0,36,0,8
0,38,0,4
0,39,0,8
0,42,92,4
0,42,0,4
0,31,0,28
0,46,92,20
0,74,0,16
0,69,0,4
0,71,0,0
0,46,0,28
0,71,62,48
0,74,60,0
0,69,60,0
0,69,0,36
0,74,0,0
0,71,0,0
0,31,127,0
0,64,127,0
0,36,127,0
0,42,96,0
0,36,0,12
0,42,0,4
0,31,0,8
0,64,0,0
0,65,127,0
0,74,61,0
0,71,62,0
0,69,60,0
0,46,89,0
0,46,0,4
0,31,127,4
0,65,0,28
0,69,0,0
0,71,0,4
0,74,0,0
0,64,127,0
0,38,80,0
0,36,127,0
0,42,96,0
0,39,100,0
0,36,0,8
0,42,0,8
0,38,0,12
0,42,96,8
0,39,0,4
0,64,0,4
0,42,0,4
0,31,0,20
0,33,127,0
0,64,127,0
0,69,65,0
0,71,66,0
0,74,65,0
0,36,127,0
0,46,92,0
0,71,0,12
0,36,0,0
0,46,0,4
0,74,0,4
0,69,0,0
0,33,0,8
0,26,127,32
0,72,66,0
0,76,62,0
0,69,62,0
0,36,127,0
0,42,100,0
0,36,0,16
0,42,0,8
0,72,0,8
0,64,0,8
0,69,0,4
0,76,0,0
0,57,127,0
0,46,86,0
0,26,0,12
0,46,0,20
0,57,0,20
0,26,127,0
0,60,127,0
0,69,62,0
0,76,61,0
0,72,67,0
0,38,80,0
0,36,127,0
0,42,96,0
0,39,100,0
0,36,0,28
0,42,0,4
0,38,0,8
0,42,92,8
0,39,0,8
0,42,0,12
0,72,0,32
0,76,0,8
0,69,0,0
0,46,92,0
0,26,0,20
0,46,0,24
0,69,60,48
0,76,57,0
0,72,58,0
0,72,0,24
0,69,0,12
0,76,0,12
0,26,127,8
0,36,127,0
0,42,96,0
0,36,0,0
0,42,0,4
0,26,0,20
0,60,0,4
0,57,127,0
0,72,68,0
0,76,63,0
0,69,64,0
0,46,89,0
0,46,0,8
0,28,127,40
0,76,0,72
0,72,0,0
0,69,0,12
0,38,80,12
0,36,127,0
0,42,96,0
0,39,100,0
0,36,0,8
0,42,0,8
0,38,0,8
0,42,96,4
0,39,0,32
0,42,0,16
0,57,0,16
0,28,0,8
0,29,127,4
0,72,66,0
0,69,62,0
0,76,64,0
0,46,92,0
0,46,0,16
0,72,0,12
0,76,0,0
0,69,0,0
0,29,0,8
0,31,127,40
0,71,66,0
0,69,61,0
0,74,66,0
0,36,127,0
0,42,100,0
