track,note,velocity,time
0,36,102,96
0,49,90,0
0,40,103,0
0,35,110,0
0,63,105,0
0,66,105,0
0,71,106,0
0,71,96,0
0,47,93,0
0,59,94,0
0,54,93,0
0,66,95,0
0,63,68,0
0,66,66,0
0,71,66,0
0,46,83,208
0,73,87,0
0,66,90,0
0,64,89,0
0,78,117,0
0,71,95,20
0,63,93,0
0,66,94,0
0,78,116,0
0,46,82,576
0,46,81,32
0,59,91,0
0,71,96,0
0,66,95,0
0,78,117,0
0,70,95,20
0,61,94,0
0,66,87,0
0,78,115,0
0,70,88,20
0,61,86,0
0,66,87,0
0,76,117,0
0,46,81,192
0,59,92,28
0,66,91,0
0,71,86,0
0,75,117,0
0,58,93,28
0,70,86,0
0,64,95,0
0,73,118,0
0,46,80,20
0,56,90,0
0,68,90,0
0,63,85,0
0,71,117,0
0,46,83,188
0,36,103,96
0,56,96,188
0,68,94,0
0,64,95,0
0,46,79,20
0,38,106,0
0,56,94,380
0,64,95,0
0,68,97,0
0,46,79,384
0,38,104,0
0,56,98,28
0,68,96,0
0,63,93,0
0,46,81,212
0,38,106,0
0,68,98,0
0,56,96,0
0,63,98,0
0,50,101,20
0,46,79,188
0,66,94,0
0,54,98,0
0,61,98,0
0,47,102,20
0,30,110,0
0,66,98,0
0,54,93,0
0,61,93,0
0,46,84,108
0,50,107,0
0,32,107,0
0,36,103,28
0,47,107,0
0,35,108,0
0,59,96,0
0,66,96,0
0,71,93,0
0,36,101,20
0,46,81,0
0,49,90,0
0,35,109,0
0,35,110,108
0,46,83,108
0,38,104,0
0,35,111,0
0,56,97,0
0,47,94,0
0,64,97,0
0,68,93,0
0,59,94,0
0,35,111,20
0,47,95,0
0,54,98,0
0,63,96,0
0,66,97,0
0,36,100,108
0,46,82,0
0,35,107,0
0,35,111,28
0,47,94,0
0,54,98,0
0,46,84,20
0,38,104,0
0,35,108,0
0,47,97,0
0,56,96,0
0,64,97,0
0,68,95,0
0,59,94,0
0,35,109,108
0,36,102,28
0,46,79,0
0,30,110,0
0,54,97,0
0,49,93,0
0,61,95,0
0,70,97,0
0,66,97,0
0,30,109,108
0,46,79,108
0,38,105,0
0,30,111,0
0,32,107,20
0,56,96,0
0,51,98,0
0,63,93,0
0,71,93,0
0,68,96,0
0,36,100,108
0,46,80,0
0,32,107,0
0,32,109,28
0,56,95,0
0,51,97,0
0,46,79,108
0,38,107,0
0,32,109,0
0,36,100,28
0,28,109,0
0,52,97,0
0,47,98,0
0,59,93,0
0,64,97,0
0,68,93,0
0,36,103,108
0,46,84,0
0,28,107,0
0,28,110,108
0,64,97,0
0,46,79,20
0,38,107,0
0,28,111,0
0,59,97,0
0,28,109,20
0,59,98,0
0,36,104,20
0,46,79,0
0,28,110,0
0,64,100,0
0,28,111,20
0,59,100,0
0,64,102,0
0,46,84,108
0,38,109,0
0,28,108,0
0,28,109,108
0,36,103,28
0,46,82,0
0,32,110,0
0,56,98,0
0,59,98,0
0,68,95,0
0,59,95,0
0,68,98,0
0,64,94,0
0,32,107,20
0,46,81,108
0,38,108,0
0,32,107,0
0,56,93,0
0,59,95,0
0,68,98,0
0,30,108,20
0,66,95,0
0,61,93,0
0,58,94,0
0,36,103,20
0,46,83,0
0,30,108,0
0,54,97,0
0,66,94,0
0,61,95,0
0,30,111,20
0,54,97,0
0,66,93,0
0,61,95,0
0,46,79,108
0,38,109,0
0,30,109,0
0,36,100,28
0,35,109,0
0,59,97,0
0,66,94,0
0,71,95,0
0,71,95,0
0,66,95,0
0,63,96,0
0,46,83,20
0,36,104,188
0,35,109,0
0,36,104,108
0,46,83,0
0,38,107,0
0,49,92,0
0,33,107,0
0,57,93,0
0,64,93,0
0,69,98,0
0,69,94,0
0,61,97,0
0,64,97,0
0,46,79,380
0,46,81,380
0,38,107,0
0,50,99,0
0,47,107,188
0,46,83,188
0,36,101,188
0,46,80,188
0,38,105,0
0,46,82,188
0,46,84,188
0,36,104,116
0,30,111,0
0,46,83,108
0,38,107,0
0,50,107,0
0,35,110,0
0,46,80,108
0,38,104,0
0,47,107,0
0,30,110,0
0,42,86,28
0,36,103,0
0,32,108,0
0,63,106,0
0,68,107,0
0,71,106,0
0,63,86,0
0,59,70,0
0,68,78,0
0,63,70,0
0,68,67,0
0,71,67,0
0,63,114,0
0,32,107,108
0,38,104,24
0,42,88,0
0,32,109,0
0,32,111,24
0,63,120,0
0,36,102,24
0,42,89,0
0,32,111,0
0,32,109,24
0,38,109,24
0,42,87,0
0,32,108,0
0,32,109,24
0,42,85,4
0,36,100,0
0,32,110,0
0,63,115,0
0,32,109,108
0,38,108,28
0,42,85,0
0,32,108,0
0,64,115,0
0,32,109,20
0,63,115,0
0,42,87,28
0,36,102,0
0,35,111,0
0,59,104,0
0,63,105,0
0,66,107,0
0,59,70,0
0,63,68,0
0,66,68,0
0,35,110,28
0,61,119,0
0,42,86,20
0,38,106,0
0,35,108,0
0,59,114,0
0,46,80,20
0,28,110,0
0,59,105,0
0,68,103,0
0,64,103,0
0,68,79,0
0,59,66,0
0,68,67,0
0,64,68,0
0,59,114,0
0,42,87,108
0,36,104,0
0,28,108,0
0,28,109,108
0,38,104,108
0,42,85,0
0,28,111,0
0,28,109,108
0,36,101,108
0,42,88,0
0,28,112,0
0,28,109,108
0,38,105,108
0,42,89,0
0,28,111,0
0,28,110,108
0,46,79,12
0,36,101,92
0,42,86,0
0,28,109,0
0,59,119,0
0,28,111,28
0,38,104,28
0,42,89,0
0,28,111,0
0,61,121,0
0,28,109,20
0,59,120,0
0,36,100,28
0,42,86,0
0,39,108,0
0,59,103,0
0,63,107,0
0,66,107,0
0,59,69,0
0,63,66,0
0,66,69,0
0,39,109,28
0,58,116,0
0,38,105,20
0,42,87,0
0,39,111,0
0,56,114,0
0,36,100,20
0,37,111,0
0,61,107,0
0,64,105,0
0,68,106,0
0,64,80,0
0,68,80,0
0,61,70,0
0,64,68,0
0,68,66,0
0,56,121,0
0,36,101,108
0,42,88,0
0,37,112,0
0,37,110,108
0,42,85,108
0,38,109,0
0,37,111,0
0,37,110,108
0,56,115,0
0,36,103,108
0,42,88,0
0,37,111,0
0,37,110,108
0,38,109,108
0,42,88,0
0,37,111,0
0,36,102,28
0,39,108,0
0,59,107,0
0,66,106,0
0,61,107,0
0,66,81,0
0,63,77,0
0,59,67,0
0,66,69,0
0,61,67,0
0,36,104,108
0,42,86,0
0,39,110,0
0,59,88,0
0,54,121,0
0,39,108,20
0,63,90,0
0,59,117,0
0,38,105,108
0,42,88,0
0,39,110,0
0,35,108,28
0,63,103,0
0,63,67,0
0,63,92,0
0,59,120,0
0,36,102,108
0,42,88,0
0,35,110,0
0,35,111,108
0,42,89,108
0,38,104,0
0,30,111,0
0,46,82,28
0,28,108,0
0,59,103,0
0,64,105,0
0,66,106,0
0,66,80,0
0,64,76,0
0,59,68,0
0,64,70,0
0,66,70,0
0,78,100,0
0,66,100,0
0,36,100,108
0,42,88,0
0,28,108,0
0,28,111,108
0,63,115,0
0,38,109,108
0,42,85,0
0,28,110,0
0,63,118,0
0,28,108,20
0,63,119,0
0,36,100,20
0,42,85,0
0,28,107,0
0,63,118,0
0,28,110,20
0,63,119,0
0,42,87,20
0,38,108,0
0,28,108,0
0,63,120,0
0,28,109,20
0,66,106,0
0,61,105,0
0,59,106,0
0,61,79,0
0,66,76,0
0,66,66,0
0,61,70,0
0,59,66,0
0,64,116,0
0,36,102,20
0,42,85,0
0,30,111,0
0,63,114,0
0,36,104,108
0,30,110,0
0,38,104,28
0,42,89,0
0,30,107,0
0,61,120,0
0,30,110,28
0,58,106,0
0,58,66,0
0,36,102,28
0,42,88,0
0,30,109,0
0,63,118,0
0,30,107,20
0,64,114,0
0,46,84,12
0,38,105,92
0,42,88,0
0,30,109,0
0,46,80,28
0,35,109,0
0,59,107,0
0,62,107,0
0,66,106,0
0,66,80,0
0,59,81,0
0,59,69,0
0,62,70,0
0,66,70,0
0,66,114,0
0,42,88,108
0,36,100,0
0,35,110,0
0,59,95,0
0,35,110,108
0,42,86,108
0,38,108,0
0,35,107,0
0,35,109,28
0,66,115,0
0,42,86,108
0,36,101,0
0,35,107,0
0,35,111,108
0,42,87,108
0,38,107,0
0,35,110,0
0,35,108,108
0,64,117,0
0,36,104,20
0,42,89,0
0,35,107,0
0,66,119,0
0,35,110,108
0,38,107,28
0,42,86,0
0,35,111,0
0,67,121,0
0,38,108,20
0,57,107,0
0,66,98,0
0,57,68,0
0,66,116,0
0,42,88,108
0,36,104,0
0,38,107,0
0,38,109,28
0,64,114,0
0,42,86,108
0,38,106,0
0,38,108,0
0,46,80,28
0,31,108,0
0,67,103,0
0,62,107,0
0,59,107,0
0,67,77,0
0,62,79,0
0,67,94,0
0,67,67,0
0,62,70,0
0,59,68,0
0,62,119,0
0,42,88,108
0,36,101,0
0,31,109,0
0,31,111,108
0,38,109,108
0,42,87,0
0,31,109,0
0,31,107,28
0,62,116,0
0,42,85,108
0,36,100,0
0,31,108,0
0,31,111,108
0,38,106,108
0,42,85,0
0,31,111,0
0,31,107,108
0,42,85,12
0,42,88,92
0,36,104,0
0,31,111,0
0,59,94,0
0,62,120,0
0,31,110,20
0,61,89,0
0,64,119,0
0,42,88,108
0,38,109,0
0,31,109,0
0,31,110,28
0,62,103,0
0,66,103,0
0,69,104,0
0,69,98,0
0,62,66,0
0,66,70,0
0,69,66,0
0,59,89,0
0,62,118,0
0,36,104,108
0,42,88,0
0,30,107,0
0,30,110,108
0,38,109,28
0,42,89,0
0,30,108,0
0,57,85,0
0,61,121,0
0,36,102,20
0,28,110,0
0,59,105,0
0,67,107,0
0,64,105,0
0,67,80,0
0,59,81,0
0,67,97,0
0,59,69,0
0,67,69,0
0,64,66,0
0,55,93,0
0,59,115,0
0,42,85,108
0,36,102,0
0,28,111,0
0,28,111,108
0,59,109,0
0,64,108,0
0,62,109,0
0,38,105,108
0,42,88,0
0,28,108,0
0,28,110,108
0,55,90,0
0,59,114,0
0,42,87,108
0,36,101,0
0,28,111,0
0,57,105,0
0,57,66,0
0,59,105,0
0,62,108,0
0,64,108,0
0,28,111,108
0,38,106,108
0,42,87,0
0,28,109,0
0,36,103,28
0,30,110,0
0,66,104,0
0,62,105,0
0,57,106,0
0,57,81,0
0,66,77,0
0,66,93,0
0,66,66,0
0,62,68,0
0,57,68,0
0,57,116,0
0,36,103,20
0,42,87,0
0,30,110,0
0,93,86,0
0,57,116,0
0,30,107,20
0,62,120,0
0,38,106,108
0,42,87,0
0,30,109,0
0,38,109,28
0,62,118,0
0,36,102,16
0,42,89,0
0,38,107,0
0,38,110,28
0,57,118,0
0,38,107,16
0,42,87,0
0,33,108,0
0,46,81,28
0,31,110,0
0,67,103,0
0,62,107,0
0,59,104,0
0,67,80,0
0,59,81,0
0,69,96,0
0,67,68,0
0,62,70,0
0,59,67,0
0,59,121,0
0,42,85,16
0,36,103,0
0,31,109,0
0,31,109,16
0,42,87,64
0,38,109,0
0,31,108,0
0,31,110,16
0,61,115,0
0,42,89,20
0,36,104,0
0,31,111,0
0,62,121,0
0,31,108,48
0,38,106,16
0,42,88,0
0,31,109,0
0,59,87,0
0,64,115,0
0,33,107,16
0,69,104,0
0,61,106,0
0,64,106,0
0,57,76,0
0,64,76,0
0,69,80,0
0,69,68,0
0,61,66,0
0,64,68,0
0,61,95,0
0,66,121,0
0,42,85,48
0,36,104,0
0,33,111,0
0,36,101,48
0,33,109,0
0,38,109,28
0,46,83,0
0,33,107,0
0,61,87,0
0,64,118,0
0,50,99,20
0,33,111,0
0,59,93,0
0,62,121,0
0,36,103,32
0,46,81,0
0,33,110,0
0,50,107,48
0,33,110,0
0,46,83,16
0,38,107,0
0,47,99,0
0,33,107,0
0,61,85,0
0,64,115,0
0,49,90,20
0,43,107,0
0,35,107,0
0,66,104,0
0,71,103,0
0,63,103,0
0,78,80,0
0,66,76,0
0,71,78,0
0,66,69,0
0,71,66,0
0,63,69,0
0,63,92,0
0,66,117,0
0,46,79,20
0,49,90,0
0,36,104,0
0,35,107,0
0,66,79,0
0,54,81,0
0,59,81,0
0,59,95,0
0,63,93,0
0,66,96,0
0,35,110,20
0,38,108,108
0,46,79,0
0,35,110,0
0,66,78,0
0,54,79,0
0,59,80,0
0,73,89,0
0,66,92,0
0,64,95,0
0,66,117,0
0,35,107,20
0,66,77,0
0,54,77,0
0,59,76,0
0,71,96,0
0,63,89,0
0,66,94,0
0,66,117,0
0,36,102,108
0,46,84,0
0,35,109,0
0,35,108,28
0,66,79,0
0,54,76,0
0,59,77,0
0,38,104,20
0,46,83,0
0,35,108,0
0,54,76,0
0,66,77,0
0,59,79,0
0,35,111,28
0,59,93,0
0,71,94,0
0,66,93,0
0,66,121,0
0,36,101,20
0,46,84,0
0,30,108,0
0,54,79,0
0,61,80,0
0,66,79,0
0,61,95,0
0,66,98,0
0,58,97,0
0,70,93,0
0,61,94,0
0,66,91,0
0,66,119,0
0,30,111,20
0,61,80,0
0,66,77,0
0,54,77,0
0,70,96,0
0,61,91,0
0,66,85,0
0,64,120,0
0,38,109,20
0,46,83,0
0,30,109,0
0,32,107,28
0,51,81,0
0,63,76,0
0,59,79,0
0,68,93,0
0,63,94,0
0,59,93,0
0,59,94,0
0,66,94,0
0,71,93,0
0,63,120,0
0,36,101,108
0,46,83,0
0,32,111,0
0,32,111,28
0,51,76,0
0,59,76,0
0,63,79,0
0,58,89,0
0,70,88,0
0,64,96,0
0,61,114,0
0,38,105,20
0,46,82,0
0,32,111,0
0,51,76,0
0,63,77,0
0,56,81,0
0,56,93,0
0,68,96,0
0,63,96,0
0,59,115,0
0,36,103,20
0,28,109,0
0,59,81,0
0,52,81,0
0,64,78,0
0,64,94,0
0,56,95,0
0,59,94,0
0,46,79,20
0,36,100,0
0,28,111,0
0,52,81,0
0,59,77,0
0,64,81,0
0,28,108,20
0,52,76,0
0,59,77,0
0,64,77,0
0,66,99,0
0,78,100,0
0,38,105,20
0,46,81,0
0,28,110,0
0,68,99,0
0,80,101,0
0,28,111,20
0,71,102,0
0,83,99,0
0,36,100,108
0,46,82,0
0,28,109,0
0,52,81,0
0,59,76,0
0,64,78,0
0,28,111,108
0,38,104,108
0,46,83,0
0,28,111,0
0,59,94,0
0,56,85,0
0,52,86,0
0,59,114,0
0,28,109,108
0,36,102,28
0,46,82,0
0,32,109,0
0,59,81,0
0,68,77,0
0,56,77,0
0,56,97,0
0,63,93,0
0,59,95,0
0,59,86,0
0,52,95,0
0,56,88,0
0,59,116,0
0,32,110,20
0,61,93,0
0,52,88,0
0,56,85,0
0,61,114,0
0,38,105,20
0,46,80,0
0,32,110,0
0,59,77,0
0,68,77,0
0,56,76,0
0,52,85,0
0,63,94,0
0,59,96,0
0,56,91,0
0,63,121,0
0,30,110,20
0,46,81,28
0,36,103,0
0,30,110,0
0,54,81,0
0,66,76,0
0,61,80,0
0,54,97,0
0,61,95,0
0,58,98,0
0,54,96,0
0,58,93,0
0,61,95,0
0,61,119,0
0,30,108,108
0,38,104,28
0,46,83,0
0,30,110,0
0,58,76,0
0,58,86,0
0,61,92,0
0,54,93,0
0,61,115,0
0,35,111,20
0,59,76,0
0,54,76,0
0,66,79,0
0,63,97,0
0,59,97,0
0,66,96,0
0,59,95,0
0,54,87,0
0,51,93,0
0,59,121,0
0,36,100,20
0,46,80,0
0,35,107,0
0,35,108,28
0,38,108,108
0,46,79,0
0,35,111,0
0,66,79,0
0,54,76,0
0,59,79,0
0,73,96,0
0,66,88,0
0,64,92,0
0,66,117,0
0,35,110,20
0,66,77,0
0,54,78,0
0,59,76,0
0,71,93,0
0,63,94,0
0,66,85,0
0,66,114,0
0,36,104,108
0,46,80,0
0,35,110,0
0,35,111,28
0,54,77,0
0,66,80,0
0,59,76,0
0,38,104,20
0,46,80,0
0,35,110,0
0,66,81,0
0,54,78,0
0,59,76,0
0,35,107,20
0,59,92,0
0,71,88,0
0,66,89,0
