track,note,velocity,time
1,62,127,4542
1,63,86,0
1,64,99,32
1,65,91,16
1,66,88,32
1,71,79,112
1,66,78,0
1,66,109,0
1,71,98,0
1,47,77,1664
1,54,75,368
1,51,73,0
1,59,79,0
1,47,82,176
1,51,80,0
1,54,80,0
1,59,81,16
1,47,73,0
1,54,87,176
1,51,86,16
1,59,91,0
1,47,83,368
1,54,86,144
1,59,88,0
1,51,80,0
1,47,78,1136
1,54,86,0
1,59,88,16
1,51,87,0
1,47,96,0
1,54,99,0
1,51,94,16
1,59,98,0
1,47,73,0
1,54,96,16
1,59,103,0
1,51,99,0
1,47,90,0
1,51,95,0
1,54,96,16
1,59,99,0
1,47,70,256
1,59,87,192
1,54,89,0
1,51,85,0
1,47,86,176
1,54,82,0
1,51,85,16
1,59,86,0
1,47,69,576
1,51,91,160
1,54,93,16
1,59,92,0
1,47,87,0
1,51,86,144
1,54,88,0
1,59,87,0
1,47,72,560
1,54,95,0
1,59,98,16
1,51,92,0
1,47,99,368
1,54,91,16
1,59,98,0
1,51,91,0
1,47,98,192
1,54,92,0
1,59,95,16
1,51,90,0
1,47,72,576
1,54,95,16
1,59,100,16
1,51,95,0
1,47,92,0
1,54,91,0
1,59,95,0
1,51,91,16
1,52,100,208
1,56,83,16
1,62,83,0
1,64,85,0
1,59,86,0
1,52,94,0
1,62,99,144
1,64,92,16
1,59,96,0
1,56,89,0
1,52,87,0
1,62,106,0
1,56,100,0
1,59,108,16
1,64,100,0
1,52,99,0
1,56,105,0
1,59,102,16
1,62,106,0
1,64,98,0
1,52,105,32
1,56,114,0
1,59,103,176
1,47,98,0
1,54,102,16
1,59,112,0
1,51,96,16
1,57,84,0
1,47,87,175
1,59,89,16
1,54,96,16
1,51,96,0
1,47,92,560
1,54,89,16
1,59,89,0
1,51,90,16
1,54,91,128
1,59,93,16
1,51,89,0
1,47,106,192
1,54,88,16
1,59,89,16
1,51,93,0
1,47,86,0
1,54,95,16
1,51,95,0
1,59,96,0
1,42,95,32
1,61,99,400
1,58,106,0
1,54,95,0
1,42,112,0
1,61,98,176
1,58,98,16
1,54,94,0
1,42,98,528
1,61,103,0
1,54,98,16
1,58,102,0
1,42,102,0
1,61,110,32
1,54,102,0
1,58,103,0
1,42,102,384
1,54,98,32
1,58,103,0
1,61,105,0
1,63,100,96
1,47,106,0
1,59,110,0
1,54,100,0
1,52,106,2896
1,56,86,0
1,59,96,0
1,62,93,0
1,64,91,0
1,52,100,0
1,56,90,0
1,62,97,16
1,59,98,0
1,64,90,0
1,52,95,0
1,56,89,32
1,62,99,0
1,59,99,0
1,64,93,0
1,52,94,16
1,56,88,16
1,59,98,16
1,62,99,0
1,64,93,0
1,59,96,512
1,54,95,0
1,51,93,0
1,47,70,16
1,54,99,32
1,59,102,0
1,51,100,16
1,47,93,576
1,54,95,16
1,51,96,0
1,59,95,0
1,47,96,0
1,54,96,0
1,51,94,16
1,59,95,0
1,47,80,384
1,54,93,32
1,59,96,0
1,51,92,0
1,44,96,16
1,42,82,32
1,58,98,0
1,54,94,0
1,61,95,0
1,42,105,0
1,61,102,16
1,58,99,0
1,54,95,0
1,42,82,0
1,61,99,0
1,58,96,16
1,54,96,0
1,42,105,16
1,58,96,32
1,54,100,0
1,61,100,16
1,42,93,16
1,54,117,16
1,54,77,64
1,63,89,0
1,59,94,0
1,47,96,16
1,47,99,2896
1,54,94,0
1,51,88,0
1,59,95,0
1,47,105,0
1,54,95,16
1,59,98,0
1,51,95,0
1,47,92,0
1,54,95,0
1,51,93,16
1,59,102,0
1,47,91,0
1,54,95,16
1,59,98,0
1,51,94,0
1,47,91,544
1,54,87,176
1,51,90,0
1,59,92,0
1,47,98,288
1,54,86,16
1,59,86,0
1,51,89,16
1,47,96,176
1,54,89,32
1,59,89,0
1,51,98,0
1,47,102,0
1,54,90,16
1,59,96,0
1,51,92,0
1,47,91,16
1,54,91,0
1,59,94,16
1,51,95,0
1,54,102,400
1,51,92,16
1,59,102,0
1,47,82,96
1,59,86,0
1,51,87,16
1,54,92,0
1,47,72,0
1,51,86,16
1,54,88,16
1,59,94,0
1,47,86,0
1,54,91,0
1,51,87,16
1,59,95,0
1,47,89,0
1,54,95,192
1,51,92,0
1,59,98,0
1,47,89,320
1,54,100,0
1,59,96,0
1,51,98,16
1,47,96,176
1,54,96,16
1,59,95,0
1,51,90,0
1,47,91,0
1,54,93,16
1,51,89,0
1,59,95,0
1,47,94,0
1,59,95,32
1,51,88,0
1,54,89,0
1,47,84,0
1,54,91,16
1,59,94,0
1,51,87,0
1,52,103,32
1,56,86,0
1,62,97,0
1,59,100,0
1,64,82,16
1,52,102,0
1,56,86,16
1,62,101,0
1,64,96,0
1,59,94,0
1,52,89,0
1,56,86,16
1,59,94,0
1,62,97,0
1,64,93,0
1,52,87,0
1,56,89,16
1,59,98,0
1,62,101,0
1,64,93,0
1,56,86,240
1,59,98,0
1,62,101,16
1,64,94,0
1,52,94,192
1,56,93,144
1,59,80,0
1,62,88,0
1,64,89,16
1,47,103,0
1,54,96,16
1,59,92,0
1,51,95,16
1,57,66,0
1,47,100,0
1,59,99,192
1,51,96,0
1,54,98,0
1,47,94,16
1,54,94,16
1,59,95,16
1,51,93,0
1,47,92,368
1,51,90,16
1,59,93,0
1,54,91,0
1,47,91,16
1,51,94,0
1,54,94,192
1,44,99,32
1,42,83,16
1,61,89,368
1,58,94,0
1,54,88,0
1,42,98,16
1,61,91,16
1,58,93,0
1,54,89,0
1,42,84,0
1,54,91,16
1,61,94,0
1,58,95,0
1,42,86,0
1,61,96,16
1,54,93,16
1,58,98,0
1,42,93,384
1,54,86,32
1,58,92,16
1,61,90,0
1,54,90,96
1,59,91,16
1,63,82,0
1,47,80,16
1,40,77,2864
1,52,90,16
1,56,86,0
1,62,97,0
1,59,95,0
1,64,92,0
1,52,99,16
1,56,88,16
1,62,99,16
1,59,99,0
1,64,93,0
1,52,82,16
1,56,86,208
1,62,104,0
1,59,100,0
1,64,98,0
1,52,105,272
1,56,87,0
1,62,99,0
1,64,96,0
1,59,98,0
1,52,88,16
1,56,105,48
1,59,102,144
1,47,99,16
1,59,87,0
1,54,91,0
1,51,84,0
1,47,106,16
1,59,99,16
1,54,99,0
1,51,94,0
1,47,86,576
1,54,89,128
1,59,87,0
1,51,89,0
1,47,91,0
1,51,89,16
1,54,91,0
1,59,93,0
1,47,91,400
1,54,92,0
1,51,89,0
1,59,93,0
1,42,82,32
1,58,99,0
1,61,96,0
1,54,96,0
1,42,94,0
1,61,95,16
1,54,94,0
1,58,98,0
1,42,80,560
1,58,96,16
1,61,96,16
1,54,91,0
1,42,91,0
1,58,93,16
1,54,91,0
1,61,98,16
1,42,87,384
1,54,80,48
1,58,86,0
1,61,86,0
1,54,86,112
1,59,96,16
1,63,89,0
1,47,89,0
1,52,102,2896
1,56,87,384
1,62,101,0
1,64,99,0
1,59,100,0
1,52,100,16
1,56,84,16
1,59,88,0
1,62,93,0
1,64,91,0
1,52,90,0
1,56,86,0
1,59,95,16
1,62,101,0
1,64,99,0
1,52,100,0
1,56,89,16
1,59,91,16
1,62,91,0
1,64,91,0
1,52,91,0
1,56,80,16
1,59,80,0
1,62,78,0
1,64,82,16
1,47,93,32
1,51,94,16
1,54,98,0
1,59,94,0
1,47,99,0
1,54,94,16
1,51,92,16
1,59,98,0
1,47,90,0
1,51,90,0
1,54,94,0
1,59,99,0
1,47,94,0
1,51,90,16
1,54,91,0
1,59,94,0
1,47,93,384
1,51,88,16
1,54,94,0
1,59,98,0
1,42,75,16
1,42,95,0
1,54,82,384
1,58,90,0
1,61,85,0
1,42,106,160
1,61,90,32
1,54,86,0
1,58,92,0
1,42,83,0
1,54,86,16
1,58,91,0
1,61,90,0
1,54,93,144
1,58,99,16
1,61,98,0
1,42,92,176
1,54,87,32
1,61,95,0
1,58,93,0
1,42,82,384
1,54,87,32
1,58,98,0
1,61,98,16
1,47,94,112
1,54,98,0
1,51,88,16
1,59,95,0
1,47,98,192
1,54,94,16
1,59,93,16
1,51,89,0
1,42,82,32
1,49,86,16
1,58,91,0
1,54,94,0
1,54,95,80
1,49,96,0
1,58,93,0
1,42,82,0
1,49,103,0
1,54,76,192
1,51,96,80
1,59,84,0
1,52,89,18240
1,62,95,16
1,56,86,0
1,59,98,0
1,64,82,16
1,52,98,16
1,56,83,16
1,62,93,0
1,59,98,16
1,64,86,0
1,52,84,0
1,56,87,16
1,62,91,0
1,59,96,0
1,64,82,0
1,52,85,16
1,56,80,0
1,59,90,16
1,64,82,0
1,62,84,0
1,52,84,0
1,56,71,16
1,64,71,16
1,62,70,0
1,59,80,0
1,47,88,32
1,54,96,16
1,51,86,0
1,59,92,0
1,47,108,0
1,54,92,16
1,59,92,16
1,51,91,16
1,47,90,544
1,54,91,16
1,51,89,16
1,59,91,0
1,47,88,0
1,54,94,32
1,59,96,0
1,51,94,0
1,47,86,0
1,51,87,16
1,54,90,0
1,59,88,0
1,42,103,32
1,61,93,0
1,54,91,0
1,58,92,0
1,42,103,0
1,54,86,16
1,61,90,16
1,58,93,0
1,42,88,560
1,58,96,32
1,61,96,16
1,54,90,0
1,42,95,0
1,54,89,48
1,61,95,0
1,58,95,0
1,42,94,384
1,54,93,16
1,58,99,0
1,61,102,0
1,47,93,80
1,51,94,0
1,54,98,16
1,59,102,0
1,47,103,0
1,51,93,16
1,59,95,0
1,54,96,16
1,51,85,96
1,47,82,0
1,54,90,0
1,59,94,16
1,52,96,912
1,62,101,16
1,56,86,0
1,59,100,0
1,64,96,0
1,52,89,16
1,56,81,16
1,59,89,0
1,62,88,16
1,64,84,0
1,52,92,0
1,56,84,0
1,59,91,16
1,62,91,0
1,64,89,0
1,56,82,144
1,59,98,0
1,62,99,0
1,64,92,0
1,52,94,0
1,56,87,16
1,59,92,0
1,62,91,0
1,64,85,16
1,52,91,0
1,56,78,160
1,59,77,0
1,62,63,0
1,64,71,0
1,54,82,400
1,51,82,0
1,59,90,0
1,47,83,0
1,51,89,16
1,54,92,16
1,59,94,0
1,47,81,560
1,54,86,16
1,51,82,0
1,59,85,16
1,47,82,0
1,54,88,16
1,59,91,0
1,51,86,16
1,47,83,368
1,54,88,16
1,51,86,0
1,59,90,0
1,42,93,0
1,54,90,16
1,58,96,0
1,61,98,0
1,42,89,0
1,61,88,0
1,58,90,16
1,54,86,0
1,42,93,560
1,54,87,32
1,58,95,0
1,61,93,0
1,42,95,0
1,58,92,16
1,54,83,16
1,61,93,0
1,42,93,0
1,58,88,16
1,54,81,16
1,61,89,0
1,54,87,80
1,63,89,16
1,59,96,0
1,47,99,0
2,35,100,8046
2,38,106,208
2,39,88,192
2,42,92,128
2,44,90,16
2,42,100,192
2,35,108,16
2,38,116,208
2,39,88,192
2,42,98,112
2,44,96,16
2,42,96,192
2,35,100,48
2,38,101,208
2,39,83,192
2,42,86,128
2,44,86,0
2,42,90,0
2,35,94,48
2,35,76,128
2,33,109,192
2,33,78,128
2,32,91,0
2,32,90,112
2,29,109,192
2,30,87,16
2,35,108,192
2,35,92,0
2,38,76,176
2,39,77,192
2,42,73,128
2,44,65,16
2,42,78,192
2,35,99,16
2,38,112,192
2,39,102,16
2,42,88,144
2,44,87,0
2,42,99,192
2,35,105,32
2,38,109,176
2,39,87,192
2,42,87,144
2,44,99,16
2,42,98,192
2,35,98,48
2,38,106,160
2,39,95,0
2,42,98,128
2,44,86,32
2,42,100,192
2,28,105,64
2,32,88,160
2,35,83,0
2,35,92,128
2,37,98,32
2,35,92,0
2,28,102,64
2,32,95,160
2,35,86,16
2,35,94,128
2,33,106,32
2,34,86,16
2,35,103,16
2,39,86,176
2,42,78,0
2,42,88,144
2,44,89,32
2,42,88,0
2,35,96,48
2,39,99,192
2,42,73,16
2,42,91,144
2,44,87,48
2,42,99,192
2,30,95,80
2,30,108,0
2,34,105,144
2,37,95,16
2,37,103,144
2,39,99,16
2,37,114,32
2,42,112,64
2,42,117,144
2,40,112,32
2,40,105,144
2,38,109,0
2,38,112,144
2,30,112,112
2,32,102,16
2,35,114,32
2,35,127,0
2,28,108,2848
2,28,108,0
2,31,101,176
2,32,95,0
2,35,98,144
2,37,102,32
2,35,98,16
2,28,108,48
2,28,100,0
2,31,104,176
2,32,92,0
2,35,91,144
2,37,102,0
2,28,95,32
2,35,100,16
2,38,82,224
2,39,88,192
2,42,99,128
2,44,82,16
2,42,99,0
2,35,103,48
2,38,99,192
2,39,95,16
2,42,94,144
2,44,90,16
2,42,103,192
2,30,100,80
2,33,97,176
2,34,76,32
2,37,89,144
2,39,92,16
2,37,93,0
2,30,103,48
2,30,93,0
2,33,95,176
2,34,86,192
2,37,100,128
2,30,84,16
2,32,89,0
2,35,96,32
2,35,100,2816
2,38,106,160
2,39,72,16
2,42,82,16
2,44,86,16
2,42,84,0
2,35,98,0
2,38,120,192
2,39,80,16
2,42,92,192
2,44,98,32
2,42,99,192
2,35,99,16
2,38,109,192
2,39,86,0
2,42,91,192
2,44,88,32
2,42,82,192
2,35,100,32
2,35,82,128
2,33,109,0
2,33,104,128
2,32,87,0
2,32,90,128
2,30,91,0
2,32,91,192
2,35,106,48
2,35,99,0
2,38,104,176
2,39,85,0
2,42,82,144
2,44,98,0
2,42,103,16
2,35,103,48
2,38,109,176
2,39,98,16
2,42,86,144
2,44,102,16
2,42,99,0
2,35,95,48
2,38,109,208
2,39,105,48
2,42,88,144
2,44,102,192
2,42,103,0
2,35,100,32
2,38,101,192
2,39,88,16
2,42,96,144
2,44,99,16
2,42,103,192
2,28,108,96
2,28,108,0
2,31,101,176
2,32,95,0
2,35,98,144
2,37,102,32
2,35,98,16
2,28,108,48
2,28,100,0
2,31,104,176
2,32,92,0
2,35,91,144
2,37,102,0
2,28,95,32
2,35,100,16
2,38,82,224
2,39,88,192
2,42,99,128
2,44,82,16
2,42,99,0
2,35,103,48
2,38,99,192
2,39,95,16
2,42,94,144
2,44,90,16
2,42,103,192
2,30,100,80
2,33,97,176
2,34,76,32
2,37,89,144
2,39,92,16
2,37,93,0
2,30,103,48
2,30,93,0
2,33,95,176
2,34,86,192
2,37,100,128
2,30,84,16
2,32,89,0
2,35,96,32
2,28,96,2816
2,31,93,160
2,32,87,192
2,35,89,144
2,37,91,16
2,35,100,0
2,28,105,16
2,31,106,144
2,32,92,0
2,35,91,144
2,37,91,16
2,30,82,32
2,35,98,0
2,38,95,176
2,39,86,192
2,42,99,144
2,44,93,16
2,42,95,16
2,35,98,16
2,38,99,176
2,40,87,0
2,42,93,144
2,44,91,0
2,42,81,16
2,30,86,32
2,30,99,0
2,33,77,144
2,35,91,0
2,37,86,144
2,39,92,16
2,37,90,16
2,30,105,32
2,33,104,144
2,35,85,192
2,37,110,128
2,30,84,48
2,32,96,0
2,35,105,16
2,28,108,2816
2,31,99,176
2,32,80,16
2,35,82,16
2,37,80,0
2,35,83,32
2,28,98,16
2,31,89,160
2,32,80,32
2,35,63,0
2,37,73,16
2,30,73,16
2,35,75,16
2,38,93,208
2,39,77,16
2,42,70,0
2,44,68,16
2,42,82,16
2,35,87,16
2,38,86,176
2,39,80,32
2,42,69,32
2,44,72,0
2,42,83,16
2,30,90,80
2,30,94,0
2,33,97,160
2,35,70,16
2,37,77,32
2,39,78,0
2,37,86,0
2,30,92,0
2,33,97,208
2,35,76,16
2,37,79,192
2,39,73,0
2,30,86,0
2,35,83,16
2,38,97,208
2,39,82,32
2,42,67,0
2,44,72,16
2,35,77,0
2,42,112,48
2,30,103,32
2,30,103,64
2,30,92,80
2,30,89,80
2,30,90,80
2,30,102,96
2,34,99,32
2,35,114,0
2,33,109,2432
2,35,102,48
2,30,106,2464
2,28,110,32
2,38,109,2416
2,35,106,48
2,33,112,2192
2,30,112,64
2,30,112,1248
2,35,90,1248
2,35,70,80
2,35,86,48
2,35,96,48
2,36,95,16
2,36,88,64
2,36,99,32
2,36,95,64
2,37,87,48
2,37,71,80
2,37,98,64
2,37,100,64
2,38,99,32
