track,note,velocity,time
2.0,69.0,57.0,576.0
2.0,38.0,57.0,0.0
2.0,65.0,59.0,24.0
2.0,50.0,68.0,24.0
2.0,62.0,56.0,0.0
2.0,62.0,48.0,46.0
2.0,65.0,48.0,26.0
2.0,46.0,50.0,14.0
2.0,62.0,50.0,0.0
2.0,58.0,50.0,0.0
2.0,65.0,50.0,0.0
2.0,67.0,45.0,1104.0
2.0,60.0,46.0,0.0
2.0,48.0,61.0,0.0
2.0,36.0,54.0,0.0
2.0,64.0,55.0,10.0
2.0,60.0,43.0,72.0
2.0,64.0,43.0,24.0
2.0,69.0,52.0,12.0
2.0,65.0,72.0,0.0
2.0,60.0,55.0,0.0
2.0,41.0,52.0,0.0
2.0,53.0,66.0,24.0
2.0,65.0,66.0,0.0
2.0,62.0,68.0,24.0
2.0,69.0,65.0,0.0
2.0,50.0,72.0,24.0
2.0,65.0,50.0,24.0
2.0,62.0,50.0,0.0
2.0,46.0,59.0,32.0
2.0,58.0,59.0,0.0
2.0,62.0,57.0,0.0
2.0,65.0,30.0,0.0
2.0,34.0,59.0,8.0
2.0,58.0,55.0,27.0
2.0,62.0,72.0,0.0
2.0,48.0,72.0,12.0
2.0,67.0,45.0,0.0
2.0,36.0,53.0,0.0
2.0,60.0,46.0,0.0
2.0,64.0,51.0,0.0
2.0,36.0,55.0,48.0
2.0,48.0,57.0,120.0
2.0,60.0,55.0,36.0
2.0,67.0,55.0,0.0
2.0,64.0,55.0,0.0
2.0,67.0,72.0,0.0
2.0,62.0,72.0,12.0
2.0,67.0,72.0,12.0
2.0,60.0,72.0,0.0
2.0,62.0,72.0,24.0
2.0,69.0,57.0,0.0
2.0,38.0,57.0,0.0
2.0,50.0,68.0,0.0
2.0,65.0,59.0,0.0
2.0,62.0,56.0,24.0
2.0,62.0,56.0,46.0
2.0,65.0,59.0,26.0
2.0,46.0,50.0,14.0
2.0,62.0,50.0,34.0
2.0,58.0,50.0,0.0
2.0,65.0,50.0,0.0
2.0,67.0,45.0,1104.0
2.0,60.0,46.0,0.0
2.0,48.0,61.0,0.0
2.0,36.0,54.0,0.0
2.0,64.0,51.0,10.0
2.0,60.0,59.0,72.0
2.0,64.0,53.0,24.0
2.0,69.0,52.0,12.0
2.0,65.0,72.0,0.0
2.0,60.0,55.0,0.0
2.0,41.0,52.0,0.0
2.0,53.0,66.0,24.0
2.0,65.0,66.0,0.0
2.0,50.0,72.0,12.0
2.0,62.0,68.0,12.0
2.0,69.0,65.0,0.0
2.0,65.0,64.0,24.0
2.0,62.0,64.0,0.0
2.0,65.0,55.0,20.0
2.0,46.0,55.0,4.0
2.0,58.0,55.0,0.0
2.0,34.0,55.0,4.0
2.0,62.0,55.0,0.0
2.0,58.0,55.0,35.0
2.0,62.0,72.0,0.0
2.0,60.0,61.0,0.0
2.0,64.0,68.0,0.0
2.0,67.0,63.0,0.0
2.0,36.0,53.0,0.0
2.0,48.0,72.0,0.0
2.0,34.0,67.0,2276.0
2.0,46.0,67.0,0.0
2.0,58.0,67.0,0.0
2.0,62.0,67.0,0.0
2.0,65.0,67.0,0.0
2.0,65.0,50.0,24.0
2.0,58.0,50.0,0.0
2.0,62.0,50.0,0.0
2.0,46.0,50.0,0.0
2.0,53.0,52.0,96.0
2.0,58.0,52.0,0.0
2.0,62.0,52.0,0.0
2.0,65.0,52.0,0.0
2.0,41.0,52.0,0.0
2.0,34.0,81.0,120.0
2.0,38.0,30.0,72.0
2.0,48.0,52.0,0.0
2.0,57.0,57.0,0.0
2.0,60.0,56.0,12.0
2.0,65.0,57.0,12.0
2.0,41.0,67.0,0.0
2.0,57.0,51.0,120.0
2.0,60.0,56.0,0.0
2.0,65.0,63.0,0.0
2.0,60.0,54.0,48.0
2.0,57.0,32.0,0.0
2.0,65.0,67.0,0.0
2.0,62.0,67.0,0.0
2.0,58.0,67.0,0.0
2.0,46.0,67.0,0.0
2.0,34.0,67.0,0.0
2.0,46.0,50.0,24.0
2.0,62.0,50.0,0.0
2.0,58.0,50.0,0.0
2.0,65.0,50.0,0.0
2.0,65.0,52.0,96.0
2.0,53.0,52.0,0.0
2.0,58.0,52.0,0.0
2.0,62.0,52.0,0.0
2.0,41.0,52.0,0.0
2.0,34.0,66.0,120.0
2.0,38.0,30.0,72.0
2.0,48.0,52.0,0.0
2.0,60.0,56.0,0.0
2.0,41.0,67.0,12.0
2.0,57.0,57.0,0.0
2.0,65.0,57.0,0.0
2.0,57.0,51.0,72.0
2.0,60.0,56.0,0.0
2.0,65.0,63.0,0.0
2.0,57.0,32.0,48.0
2.0,60.0,54.0,0.0
2.0,65.0,50.0,0.0
2.0,34.0,67.0,0.0
2.0,46.0,67.0,0.0
2.0,58.0,67.0,0.0
2.0,62.0,67.0,0.0
2.0,65.0,67.0,0.0
2.0,65.0,50.0,24.0
2.0,58.0,50.0,0.0
2.0,62.0,50.0,0.0
2.0,46.0,50.0,0.0
2.0,53.0,52.0,96.0
2.0,58.0,52.0,0.0
2.0,62.0,52.0,0.0
2.0,65.0,52.0,0.0
2.0,41.0,52.0,0.0
2.0,34.0,66.0,120.0
2.0,38.0,30.0,72.0
2.0,48.0,52.0,0.0
2.0,41.0,67.0,0.0
2.0,60.0,56.0,0.0
2.0,65.0,57.0,0.0
2.0,57.0,57.0,0.0
2.0,57.0,51.0,48.0
2.0,60.0,56.0,0.0
2.0,65.0,63.0,0.0
2.0,65.0,50.0,48.0
2.0,60.0,54.0,0.0
2.0,57.0,32.0,0.0
2.0,65.0,67.0,0.0
2.0,62.0,67.0,0.0
2.0,58.0,67.0,0.0
2.0,46.0,67.0,0.0
2.0,34.0,67.0,0.0
2.0,46.0,50.0,24.0
2.0,62.0,50.0,0.0
2.0,58.0,50.0,0.0
2.0,65.0,50.0,0.0
2.0,53.0,52.0,96.0
2.0,58.0,52.0,0.0
2.0,62.0,52.0,0.0
2.0,65.0,52.0,0.0
2.0,41.0,52.0,0.0
2.0,34.0,66.0,120.0
2.0,38.0,30.0,72.0
2.0,48.0,52.0,0.0
2.0,57.0,57.0,0.0
2.0,65.0,57.0,0.0
2.0,60.0,56.0,0.0
2.0,41.0,67.0,0.0
2.0,69.0,57.0,0.0
2.0,38.0,57.0,0.0
2.0,50.0,68.0,0.0
2.0,65.0,59.0,24.0
2.0,62.0,56.0,24.0
2.0,62.0,56.0,46.0
2.0,69.0,52.0,0.0
2.0,65.0,59.0,26.0
2.0,46.0,50.0,14.0
2.0,62.0,50.0,34.0
2.0,58.0,50.0,0.0
2.0,65.0,50.0,0.0
2.0,67.0,45.0,1104.0
2.0,60.0,46.0,0.0
2.0,48.0,61.0,0.0
2.0,64.0,51.0,10.0
2.0,60.0,59.0,72.0
2.0,64.0,53.0,24.0
2.0,67.0,56.0,0.0
2.0,69.0,52.0,12.0
2.0,65.0,72.0,0.0
2.0,60.0,55.0,0.0
2.0,41.0,52.0,0.0
2.0,53.0,66.0,24.0
2.0,65.0,66.0,0.0
2.0,62.0,68.0,24.0
2.0,69.0,65.0,0.0
2.0,50.0,72.0,24.0
2.0,65.0,54.0,24.0
2.0,69.0,61.0,0.0
2.0,62.0,68.0,0.0
2.0,34.0,72.0,48.0
2.0,65.0,30.0,0.0
2.0,62.0,57.0,0.0
2.0,58.0,63.0,0.0
2.0,46.0,72.0,0.0
2.0,58.0,55.0,11.0
2.0,65.0,57.0,0.0
2.0,62.0,72.0,0.0
2.0,48.0,72.0,12.0
2.0,67.0,45.0,0.0
2.0,60.0,46.0,0.0
2.0,64.0,51.0,0.0
2.0,36.0,81.0,768.0
2.0,48.0,72.0,120.0
2.0,64.0,92.0,36.0
2.0,67.0,92.0,0.0
2.0,60.0,92.0,0.0
2.0,62.0,86.0,0.0
2.0,60.0,86.0,0.0
2.0,67.0,86.0,0.0
2.0,36.0,72.0,228.0
2.0,62.0,85.0,12.0
2.0,67.0,85.0,0.0
2.0,60.0,85.0,0.0
2.0,36.0,70.0,192.0
2.0,38.0,86.0,0.0
2.0,69.0,86.0,0.0
2.0,50.0,86.0,0.0
2.0,62.0,83.0,24.0
2.0,65.0,86.0,0.0
2.0,62.0,79.0,70.0
2.0,69.0,79.0,0.0
2.0,65.0,79.0,2.0
2.0,46.0,79.0,14.0
2.0,65.0,77.0,10.0
2.0,62.0,77.0,0.0
2.0,58.0,77.0,0.0
2.0,58.0,77.0,34.0
2.0,62.0,77.0,0.0
2.0,65.0,77.0,0.0
2.0,64.0,79.0,24.0
2.0,67.0,81.0,0.0
2.0,60.0,81.0,0.0
2.0,48.0,81.0,0.0
2.0,64.0,68.0,96.0
2.0,67.0,71.0,0.0
2.0,60.0,74.0,0.0
2.0,69.0,59.0,12.0
2.0,65.0,59.0,0.0
2.0,60.0,59.0,0.0
2.0,53.0,59.0,36.0
2.0,65.0,66.0,0.0
2.0,62.0,68.0,24.0
2.0,69.0,65.0,0.0
2.0,50.0,72.0,24.0
2.0,65.0,54.0,24.0
2.0,62.0,54.0,24.0
2.0,65.0,30.0,0.0
2.0,62.0,57.0,0.0
2.0,58.0,63.0,0.0
2.0,46.0,72.0,24.0
2.0,58.0,52.0,35.0
2.0,62.0,52.0,0.0
2.0,60.0,61.0,12.0
2.0,64.0,61.0,0.0
2.0,67.0,61.0,0.0
2.0,48.0,61.0,0.0
2.0,34.0,67.0,2256.0
2.0,46.0,67.0,0.0
2.0,58.0,67.0,0.0
2.0,62.0,67.0,0.0
2.0,65.0,67.0,0.0
2.0,65.0,50.0,24.0
2.0,58.0,50.0,0.0
2.0,62.0,50.0,0.0
2.0,46.0,50.0,0.0
2.0,53.0,52.0,96.0
2.0,58.0,52.0,0.0
2.0,62.0,52.0,0.0
2.0,65.0,52.0,0.0
2.0,41.0,52.0,0.0
2.0,34.0,81.0,120.0
2.0,38.0,30.0,72.0
2.0,48.0,52.0,0.0
2.0,41.0,67.0,12.0
2.0,65.0,57.0,0.0
2.0,60.0,56.0,12.0
2.0,57.0,57.0,12.0
2.0,57.0,51.0,96.0
2.0,60.0,56.0,0.0
2.0,65.0,63.0,0.0
2.0,60.0,54.0,48.0
2.0,57.0,32.0,0.0
2.0,65.0,67.0,0.0
2.0,62.0,67.0,0.0
2.0,58.0,67.0,0.0
2.0,46.0,67.0,0.0
2.0,34.0,67.0,0.0
2.0,46.0,50.0,24.0
2.0,62.0,50.0,0.0
2.0,58.0,50.0,0.0
2.0,65.0,50.0,0.0
2.0,65.0,52.0,96.0
2.0,53.0,52.0,0.0
2.0,58.0,52.0,0.0
2.0,62.0,52.0,0.0
2.0,41.0,52.0,0.0
2.0,34.0,66.0,120.0
2.0,38.0,30.0,72.0
2.0,48.0,52.0,0.0
2.0,41.0,67.0,12.0
2.0,57.0,57.0,0.0
2.0,60.0,56.0,0.0
2.0,65.0,57.0,0.0
2.0,57.0,51.0,72.0
2.0,60.0,56.0,0.0
2.0,65.0,63.0,0.0
2.0,57.0,32.0,48.0
2.0,60.0,54.0,0.0
2.0,65.0,50.0,0.0
2.0,34.0,67.0,0.0
2.0,46.0,67.0,0.0
2.0,58.0,67.0,0.0
2.0,62.0,67.0,0.0
2.0,65.0,67.0,0.0
2.0,65.0,50.0,24.0
2.0,58.0,50.0,0.0
2.0,62.0,50.0,0.0
2.0,46.0,50.0,0.0
2.0,53.0,52.0,96.0
2.0,58.0,52.0,0.0
2.0,62.0,52.0,0.0
2.0,65.0,52.0,0.0
2.0,41.0,52.0,0.0
2.0,34.0,66.0,120.0
2.0,38.0,30.0,72.0
2.0,48.0,52.0,0.0
2.0,41.0,67.0,0.0
2.0,60.0,56.0,0.0
2.0,65.0,57.0,0.0
2.0,57.0,57.0,0.0
2.0,57.0,51.0,48.0
2.0,60.0,56.0,0.0
2.0,65.0,63.0,0.0
2.0,65.0,50.0,48.0
2.0,60.0,54.0,0.0
2.0,57.0,32.0,0.0
2.0,65.0,67.0,0.0
2.0,62.0,67.0,0.0
2.0,58.0,67.0,0.0
2.0,46.0,67.0,0.0
2.0,34.0,67.0,0.0
2.0,46.0,50.0,24.0
2.0,62.0,50.0,0.0
2.0,58.0,50.0,0.0
2.0,65.0,50.0,0.0
2.0,53.0,52.0,96.0
2.0,58.0,52.0,0.0
2.0,62.0,52.0,0.0
2.0,65.0,52.0,0.0
2.0,41.0,52.0,0.0
2.0,34.0,66.0,120.0
2.0,38.0,30.0,72.0
2.0,48.0,52.0,0.0
2.0,57.0,73.0,0.0
2.0,65.0,73.0,0.0
2.0,60.0,73.0,0.0
2.0,41.0,73.0,0.0
2.0,57.0,75.0,48.0
2.0,60.0,75.0,0.0
2.0,65.0,75.0,0.0
2.0,41.0,91.0,24.0
2.0,57.0,91.0,0.0
2.0,60.0,91.0,0.0
2.0,65.0,91.0,0.0
2.0,55.0,91.0,24.0
2.0,60.0,91.0,0.0
2.0,64.0,91.0,0.0
2.0,62.0,90.0,24.0
2.0,58.0,90.0,0.0
2.0,53.0,90.0,8.0
2.0,64.0,95.0,0.0
2.0,67.0,95.0,0.0
2.0,60.0,95.0,0.0
2.0,48.0,95.0,0.0
2.0,67.0,71.0,144.0
2.0,48.0,78.0,16.0
2.0,64.0,66.0,0.0
2.0,60.0,78.0,8.0
2.0,46.0,91.0,48.0
2.0,65.0,95.0,8.0
2.0,62.0,95.0,0.0
2.0,58.0,95.0,0.0
2.0,58.0,78.0,96.0
2.0,65.0,71.0,0.0
2.0,62.0,66.0,8.0
2.0,46.0,78.0,8.0
2.0,64.0,95.0,56.0
2.0,67.0,95.0,0.0
2.0,60.0,95.0,0.0
2.0,48.0,95.0,0.0
2.0,67.0,71.0,144.0
2.0,48.0,78.0,16.0
2.0,64.0,66.0,0.0
2.0,60.0,78.0,8.0
2.0,46.0,84.0,48.0
2.0,65.0,84.0,8.0
2.0,62.0,84.0,0.0
2.0,58.0,84.0,0.0
2.0,58.0,78.0,96.0
2.0,65.0,71.0,0.0
2.0,62.0,66.0,8.0
2.0,46.0,78.0,8.0
2.0,64.0,86.0,48.0
2.0,67.0,86.0,0.0
2.0,60.0,86.0,0.0
2.0,48.0,86.0,0.0
2.0,64.0,66.0,112.0
2.0,48.0,78.0,0.0
2.0,60.0,78.0,8.0
2.0,67.0,71.0,16.0
2.0,46.0,70.0,80.0
2.0,65.0,70.0,8.0
2.0,62.0,70.0,0.0
2.0,58.0,70.0,0.0
2.0,60.0,72.0,72.0
2.0,41.0,72.0,8.0
2.0,53.0,72.0,8.0
2.0,57.0,72.0,0.0
2.0,58.0,78.0,96.0
2.0,62.0,66.0,0.0
2.0,65.0,71.0,0.0
2.0,46.0,78.0,8.0
2.0,53.0,71.0,80.0
2.0,57.0,66.0,8.0
2.0,60.0,78.0,0.0
2.0,41.0,78.0,8.0
2.0,48.0,78.0,80.0
2.0,55.0,78.0,8.0
2.0,60.0,78.0,0.0
2.0,64.0,66.0,0.0
2.0,67.0,71.0,0.0
2.0,55.0,54.0,48.0
2.0,55.0,48.0,240.0
2.0,55.0,57.0,48.0
2.0,60.0,57.0,0.0
2.0,48.0,57.0,0.0
2.0,55.0,54.0,24.0
2.0,55.0,50.0,240.0
2.0,55.0,57.0,48.0
2.0,48.0,57.0,0.0
2.0,60.0,78.0,0.0
2.0,55.0,55.0,24.0
2.0,55.0,52.0,240.0
2.0,48.0,81.0,24.0
2.0,55.0,79.0,8.0
2.0,64.0,79.0,4.0
2.0,67.0,79.0,0.0
2.0,60.0,79.0,0.0
2.0,67.0,77.0,0.0
2.0,60.0,77.0,0.0
2.0,62.0,77.0,0.0
2.0,48.0,72.0,12.0
2.0,60.0,72.0,0.0
2.0,67.0,72.0,0.0
2.0,62.0,72.0,0.0
2.0,69.0,57.0,0.0
2.0,38.0,57.0,0.0
2.0,65.0,59.0,24.0
2.0,50.0,68.0,24.0
2.0,62.0,56.0,0.0
2.0,62.0,48.0,46.0
2.0,65.0,48.0,26.0
2.0,46.0,50.0,14.0
2.0,62.0,50.0,0.0
2.0,58.0,50.0,0.0
2.0,65.0,50.0,0.0
2.0,67.0,45.0,1104.0
2.0,60.0,46.0,0.0
2.0,48.0,61.0,0.0
2.0,36.0,54.0,0.0
2.0,64.0,55.0,10.0
2.0,60.0,43.0,72.0
2.0,64.0,43.0,24.0
2.0,69.0,52.0,12.0
2.0,65.0,72.0,0.0
2.0,60.0,55.0,0.0
2.0,41.0,52.0,0.0
2.0,53.0,66.0,24.0
2.0,65.0,66.0,0.0
2.0,62.0,68.0,24.0
2.0,69.0,65.0,0.0
2.0,50.0,72.0,24.0
2.0,65.0,50.0,24.0
2.0,62.0,50.0,0.0
2.0,46.0,59.0,32.0
2.0,58.0,59.0,0.0
2.0,62.0,57.0,0.0
2.0,65.0,30.0,0.0
2.0,34.0,59.0,8.0
2.0,58.0,55.0,27.0
2.0,62.0,72.0,0.0
2.0,48.0,72.0,12.0
2.0,67.0,45.0,0.0
2.0,36.0,53.0,0.0
2.0,60.0,46.0,0.0
2.0,64.0,51.0,0.0
2.0,36.0,81.0,48.0
2.0,48.0,72.0,120.0
2.0,64.0,92.0,36.0
2.0,67.0,92.0,0.0
2.0,60.0,92.0,0.0
2.0,62.0,86.0,0.0
2.0,60.0,86.0,0.0
2.0,67.0,86.0,0.0
2.0,36.0,72.0,228.0
2.0,62.0,85.0,12.0
2.0,67.0,85.0,0.0
2.0,60.0,85.0,0.0
2.0,36.0,70.0,192.0
2.0,38.0,86.0,0.0
2.0,69.0,86.0,0.0
2.0,50.0,86.0,0.0
2.0,62.0,83.0,24.0
2.0,65.0,86.0,0.0
2.0,62.0,79.0,70.0
2.0,69.0,79.0,0.0
2.0,65.0,79.0,2.0
2.0,46.0,79.0,14.0
2.0,65.0,77.0,10.0
2.0,62.0,77.0,0.0
2.0,58.0,77.0,0.0
2.0,58.0,77.0,34.0
2.0,62.0,77.0,0.0
2.0,65.0,77.0,0.0
2.0,64.0,79.0,24.0
2.0,67.0,81.0,0.0
2.0,60.0,81.0,0.0
2.0,48.0,81.0,0.0
2.0,36.0,81.0,0.0
2.0,64.0,68.0,96.0
2.0,67.0,71.0,0.0
2.0,60.0,74.0,0.0
2.0,69.0,59.0,12.0
2.0,65.0,59.0,0.0
2.0,60.0,59.0,0.0
2.0,53.0,59.0,36.0
2.0,65.0,62.0,0.0
2.0,62.0,62.0,24.0
2.0,69.0,62.0,0.0
2.0,50.0,57.0,24.0
2.0,65.0,57.0,24.0
2.0,62.0,57.0,0.0
2.0,58.0,57.0,0.0
2.0,46.0,55.0,24.0
2.0,60.0,57.0,12.0
2.0,64.0,57.0,0.0
2.0,67.0,57.0,0.0
2.0,48.0,57.0,0.0
2.0,34.0,67.0,2256.0
2.0,46.0,67.0,0.0
2.0,58.0,67.0,0.0
2.0,62.0,67.0,0.0
2.0,65.0,67.0,0.0
2.0,65.0,50.0,24.0
2.0,58.0,50.0,0.0
2.0,62.0,50.0,0.0
2.0,46.0,50.0,0.0
2.0,53.0,52.0,96.0
2.0,58.0,52.0,0.0
2.0,62.0,52.0,0.0
2.0,65.0,52.0,0.0
2.0,41.0,52.0,0.0
2.0,34.0,66.0,120.0
2.0,38.0,30.0,72.0
2.0,48.0,52.0,0.0
2.0,41.0,67.0,0.0
2.0,60.0,56.0,0.0
2.0,65.0,57.0,0.0
2.0,57.0,57.0,0.0
2.0,57.0,51.0,48.0
2.0,60.0,56.0,0.0
2.0,65.0,63.0,0.0
2.0,65.0,50.0,48.0
2.0,60.0,54.0,0.0
2.0,57.0,32.0,0.0
2.0,65.0,77.0,0.0
2.0,62.0,77.0,0.0
2.0,58.0,77.0,0.0
2.0,46.0,77.0,0.0
2.0,34.0,77.0,0.0
2.0,46.0,60.0,24.0
2.0,62.0,60.0,0.0
2.0,58.0,60.0,0.0
2.0,65.0,60.0,0.0
2.0,53.0,62.0,96.0
2.0,58.0,62.0,0.0
2.0,62.0,62.0,0.0
2.0,65.0,62.0,0.0
2.0,41.0,62.0,0.0
2.0,34.0,76.0,120.0
2.0,38.0,40.0,72.0
2.0,48.0,62.0,0.0
2.0,57.0,57.0,0.0
2.0,65.0,57.0,0.0
2.0,60.0,56.0,0.0
2.0,41.0,67.0,0.0
2.0,57.0,51.0,48.0
2.0,60.0,56.0,0.0
2.0,65.0,63.0,0.0
2.0,57.0,32.0,48.0
2.0,60.0,54.0,0.0
2.0,65.0,50.0,0.0
2.0,34.0,87.0,0.0
2.0,46.0,87.0,0.0
2.0,58.0,87.0,0.0
2.0,62.0,87.0,0.0
2.0,65.0,87.0,0.0
2.0,65.0,70.0,24.0
2.0,58.0,70.0,0.0
2.0,62.0,70.0,0.0
2.0,46.0,70.0,0.0
2.0,53.0,72.0,96.0
2.0,58.0,72.0,0.0
2.0,62.0,72.0,0.0
2.0,65.0,72.0,0.0
2.0,41.0,72.0,0.0
2.0,34.0,86.0,120.0
2.0,38.0,50.0,72.0
2.0,48.0,72.0,0.0
2.0,41.0,67.0,0.0
2.0,60.0,56.0,0.0
2.0,65.0,57.0,0.0
2.0,57.0,57.0,0.0
2.0,57.0,51.0,48.0
2.0,60.0,56.0,0.0
2.0,65.0,63.0,0.0
2.0,65.0,50.0,48.0
2.0,60.0,54.0,0.0
2.0,57.0,32.0,0.0
2.0,65.0,77.0,0.0
2.0,62.0,77.0,0.0
2.0,58.0,77.0,0.0
2.0,46.0,77.0,0.0
2.0,34.0,77.0,0.0
2.0,46.0,60.0,24.0
2.0,62.0,60.0,0.0
2.0,58.0,60.0,0.0
2.0,65.0,60.0,0.0
2.0,53.0,62.0,96.0
2.0,58.0,62.0,0.0
2.0,62.0,62.0,0.0
2.0,65.0,62.0,0.0
2.0,41.0,62.0,0.0
2.0,34.0,76.0,120.0
2.0,38.0,40.0,72.0
2.0,48.0,62.0,0.0
2.0,57.0,57.0,0.0
2.0,65.0,57.0,0.0
2.0,60.0,56.0,0.0
2.0,41.0,67.0,0.0
2.0,57.0,51.0,48.0
2.0,60.0,56.0,0.0
2.0,65.0,63.0,0.0
2.0,57.0,32.0,48.0
2.0,60.0,54.0,0.0
2.0,65.0,50.0,0.0
2.0,34.0,92.0,0.0
2.0,46.0,92.0,0.0
2.0,58.0,92.0,0.0
2.0,62.0,92.0,0.0
2.0,65.0,92.0,0.0
2.0,65.0,75.0,24.0
2.0,58.0,75.0,0.0
2.0,62.0,75.0,0.0
2.0,46.0,75.0,0.0
2.0,53.0,77.0,96.0
2.0,58.0,77.0,0.0
2.0,62.0,77.0,0.0
2.0,65.0,77.0,0.0
2.0,41.0,77.0,0.0
2.0,34.0,91.0,120.0
2.0,38.0,55.0,72.0
2.0,48.0,77.0,0.0
2.0,41.0,67.0,0.0
2.0,60.0,56.0,0.0
2.0,65.0,57.0,0.0
2.0,57.0,57.0,0.0
2.0,57.0,51.0,48.0
2.0,60.0,56.0,0.0
2.0,65.0,63.0,0.0
2.0,65.0,50.0,48.0
2.0,60.0,54.0,0.0
2.0,57.0,32.0,0.0
2.0,65.0,82.0,0.0
2.0,62.0,82.0,0.0
2.0,58.0,82.0,0.0
2.0,46.0,82.0,0.0
2.0,34.0,82.0,0.0
2.0,46.0,65.0,24.0
2.0,62.0,65.0,0.0
2.0,58.0,65.0,0.0
2.0,65.0,65.0,0.0
2.0,53.0,67.0,96.0
2.0,58.0,67.0,0.0
2.0,62.0,67.0,0.0
2.0,65.0,67.0,0.0
2.0,41.0,67.0,0.0
2.0,34.0,81.0,120.0
2.0,38.0,45.0,72.0
2.0,48.0,67.0,0.0
2.0,57.0,57.0,0.0
2.0,65.0,57.0,0.0
2.0,60.0,56.0,0.0
2.0,41.0,67.0,0.0
2.0,57.0,51.0,48.0
2.0,60.0,56.0,0.0
2.0,65.0,63.0,0.0
2.0,57.0,32.0,48.0
2.0,60.0,54.0,0.0
2.0,65.0,50.0,0.0
2.0,34.0,82.0,0.0
2.0,46.0,82.0,0.0
2.0,58.0,82.0,0.0
2.0,62.0,82.0,0.0
2.0,65.0,82.0,0.0
2.0,65.0,65.0,24.0
2.0,58.0,65.0,0.0
2.0,62.0,65.0,0.0
2.0,46.0,65.0,0.0
2.0,53.0,67.0,96.0
2.0,58.0,67.0,0.0
2.0,62.0,67.0,0.0
2.0,65.0,67.0,0.0
2.0,41.0,67.0,0.0
2.0,34.0,81.0,120.0
2.0,38.0,45.0,72.0
2.0,48.0,67.0,0.0
2.0,41.0,67.0,0.0
2.0,60.0,56.0,0.0
2.0,65.0,57.0,0.0
2.0,57.0,57.0,0.0
2.0,57.0,51.0,48.0
2.0,60.0,56.0,0.0
2.0,65.0,63.0,0.0
2.0,65.0,50.0,48.0
2.0,60.0,54.0,0.0
2.0,57.0,32.0,0.0
2.0,65.0,67.0,0.0
2.0,62.0,67.0,0.0
2.0,58.0,67.0,0.0
2.0,46.0,67.0,0.0
2.0,34.0,67.0,0.0
2.0,46.0,50.0,24.0
2.0,62.0,50.0,0.0
2.0,58.0,50.0,0.0
2.0,65.0,50.0,0.0
2.0,53.0,52.0,96.0
2.0,58.0,52.0,0.0
2.0,62.0,52.0,0.0
2.0,65.0,52.0,0.0
2.0,41.0,52.0,0.0
2.0,34.0,66.0,120.0
2.0,38.0,30.0,72.0
2.0,48.0,52.0,0.0
2.0,57.0,57.0,0.0
2.0,65.0,57.0,0.0
2.0,60.0,56.0,0.0
2.0,41.0,67.0,0.0
2.0,57.0,51.0,48.0
2.0,60.0,56.0,0.0
2.0,65.0,63.0,0.0
2.0,57.0,32.0,48.0
2.0,60.0,54.0,0.0
2.0,65.0,50.0,0.0
2.0,34.0,67.0,0.0
2.0,46.0,67.0,0.0
2.0,58.0,67.0,0.0
2.0,62.0,67.0,0.0
2.0,65.0,67.0,0.0
2.0,65.0,50.0,24.0
2.0,58.0,50.0,0.0
2.0,62.0,50.0,0.0
2.0,46.0,50.0,0.0
2.0,53.0,52.0,96.0
2.0,58.0,52.0,0.0
2.0,62.0,52.0,0.0
2.0,65.0,52.0,0.0
2.0,41.0,52.0,0.0
2.0,34.0,66.0,120.0
2.0,38.0,30.0,72.0
2.0,48.0,52.0,0.0
2.0,41.0,67.0,0.0
2.0,60.0,56.0,0.0
2.0,65.0,57.0,0.0
2.0,57.0,57.0,0.0
2.0,57.0,51.0,48.0
2.0,60.0,56.0,0.0
2.0,65.0,63.0,0.0
2.0,65.0,50.0,48.0
2.0,60.0,54.0,0.0
2.0,57.0,32.0,0.0
2.0,65.0,67.0,0.0
2.0,62.0,67.0,0.0
2.0,58.0,67.0,0.0
2.0,46.0,67.0,0.0
2.0,34.0,67.0,0.0
2.0,46.0,50.0,24.0
2.0,62.0,50.0,0.0
2.0,58.0,50.0,0.0
2.0,65.0,50.0,0.0
2.0,53.0,52.0,96.0
2.0,58.0,52.0,0.0
2.0,62.0,52.0,0.0
2.0,65.0,52.0,0.0
2.0,41.0,52.0,0.0
2.0,34.0,66.0,120.0
2.0,38.0,30.0,72.0
2.0,48.0,52.0,0.0
2.0,57.0,57.0,0.0
2.0,65.0,57.0,0.0
2.0,60.0,56.0,0.0
2.0,41.0,67.0,0.0
2.0,57.0,51.0,48.0
2.0,60.0,56.0,0.0
2.0,65.0,63.0,0.0
2.0,57.0,32.0,48.0
2.0,60.0,54.0,0.0
2.0,65.0,50.0,0.0
2.0,34.0,67.0,0.0
2.0,46.0,67.0,0.0
2.0,58.0,67.0,0.0
2.0,62.0,67.0,0.0
2.0,65.0,67.0,0.0
2.0,65.0,50.0,24.0
2.0,58.0,50.0,0.0
2.0,62.0,50.0,0.0
2.0,46.0,50.0,0.0
2.0,53.0,52.0,96.0
2.0,58.0,52.0,0.0
2.0,62.0,52.0,0.0
2.0,65.0,52.0,0.0
2.0,41.0,52.0,0.0
2.0,34.0,66.0,120.0
2.0,38.0,30.0,72.0
2.0,48.0,52.0,0.0
2.0,41.0,67.0,0.0
2.0,60.0,56.0,0.0
2.0,65.0,57.0,0.0
2.0,57.0,57.0,0.0
2.0,57.0,51.0,48.0
2.0,60.0,56.0,0.0
2.0,65.0,63.0,0.0
2.0,65.0,50.0,48.0
2.0,60.0,54.0,0.0
2.0,57.0,32.0,0.0
2.0,65.0,67.0,0.0
2.0,62.0,67.0,0.0
2.0,58.0,67.0,0.0
2.0,46.0,67.0,0.0
2.0,34.0,67.0,0.0
2.0,46.0,50.0,24.0
2.0,62.0,50.0,0.0
2.0,58.0,50.0,0.0
2.0,65.0,50.0,0.0
2.0,53.0,52.0,96.0
2.0,58.0,52.0,0.0
2.0,62.0,52.0,0.0
2.0,65.0,52.0,0.0
2.0,41.0,52.0,0.0
2.0,34.0,66.0,120.0
2.0,38.0,30.0,72.0
2.0,48.0,52.0,0.0
2.0,57.0,57.0,0.0
2.0,65.0,57.0,0.0
2.0,60.0,56.0,0.0
2.0,41.0,67.0,0.0
2.0,57.0,51.0,48.0
2.0,60.0,56.0,0.0
2.0,65.0,63.0,0.0
2.0,57.0,32.0,48.0
2.0,60.0,54.0,0.0
2.0,65.0,50.0,0.0
2.0,34.0,67.0,0.0
2.0,46.0,67.0,0.0
2.0,58.0,67.0,0.0
2.0,62.0,67.0,0.0
2.0,65.0,67.0,0.0
2.0,65.0,50.0,24.0
2.0,58.0,50.0,0.0
2.0,62.0,50.0,0.0
2.0,46.0,50.0,0.0
2.0,53.0,52.0,96.0
2.0,58.0,52.0,0.0
2.0,62.0,52.0,0.0
2.0,65.0,52.0,0.0
2.0,41.0,52.0,0.0
2.0,34.0,66.0,120.0
2.0,38.0,30.0,72.0
2.0,48.0,52.0,0.0
2.0,41.0,67.0,0.0
2.0,60.0,56.0,0.0
2.0,65.0,57.0,0.0
2.0,57.0,57.0,0.0
2.0,57.0,51.0,48.0
2.0,60.0,56.0,0.0
2.0,65.0,63.0,0.0
2.0,65.0,50.0,48.0
2.0,60.0,54.0,0.0
2.0,57.0,32.0,0.0
2.0,65.0,67.0,0.0
2.0,62.0,67.0,0.0
2.0,58.0,67.0,0.0
2.0,46.0,67.0,0.0
2.0,34.0,67.0,0.0
3.0,69.0,127.0,73192.0
3.0,67.0,127.0,384.0
3.0,65.0,127.0,336.0
3.0,67.0,102.0,336.0
3.0,64.0,102.0,0.0
3.0,65.0,95.0,2256.0
3.0,70.0,106.0,336.0
3.0,74.0,115.0,336.0
3.0,77.0,127.0,336.0
3.0,76.0,127.0,912.0
3.0,74.0,109.0,72.0
3.0,67.0,93.0,72.0
3.0,76.0,93.0,0.0
3.0,72.0,106.0,2280.0
3.0,72.0,81.0,0.0
3.0,70.0,81.0,0.0
3.0,69.0,90.0,384.0
3.0,67.0,118.0,720.0
3.0,69.0,99.0,2256.0
3.0,70.0,106.0,360.0
3.0,72.0,127.0,528.0
3.0,74.0,127.0,72.0
3.0,72.0,113.0,72.0
3.0,72.0,99.0,0.0
3.0,70.0,99.0,0.0
3.0,65.0,102.0,0.0
3.0,69.0,102.0,0.0
3.0,72.0,102.0,1128.0
3.0,67.0,102.0,0.0
4.0,41.0,127.0,73192.0
4.0,43.0,127.0,0.0
4.0,34.0,100.0,0.0
4.0,48.0,127.0,0.0
4.0,36.0,127.0,1140.0
4.0,46.0,127.0,0.0
4.0,46.0,127.0,96.0
4.0,45.0,127.0,0.0
4.0,43.0,127.0,0.0
4.0,48.0,127.0,0.0
4.0,36.0,127.0,1140.0
4.0,46.0,127.0,0.0
4.0,46.0,127.0,96.0
4.0,45.0,127.0,0.0
4.0,43.0,127.0,192.0
4.0,48.0,127.0,0.0
4.0,36.0,127.0,1164.0
4.0,46.0,127.0,0.0
4.0,41.0,127.0,96.0
4.0,46.0,127.0,96.0
4.0,41.0,127.0,96.0
4.0,36.0,127.0,96.0
4.0,48.0,127.0,0.0
0.0,0.0,0.0,0.0
0.0,0.0,0.0,0.0
0.0,0.0,0.0,0.0
0.0,0.0,0.0,0.0
0.0,0.0,0.0,0.0
0.0,0.0,0.0,0.0
0.0,0.0,0.0,0.0
0.0,0.0,0.0,0.0
0.0,0.0,0.0,0.0
