track,note,velocity,time
0,76,49,954
0,73,43,0
0,75,54,2
0,80,34,1
0,76,41,3
0,71,53,3
0,68,53,1
0,73,65,0
0,75,49,0
0,45,76,5
0,73,74,6
0,73,0,24
0,61,41,4
0,73,77,6
0,73,0,6
0,66,59,5
0,73,87,5
0,73,0,1
0,73,104,4
0,68,63,1
0,73,0,4
0,73,100,1
0,61,0,15
0,73,0,4
0,61,67,1
0,71,71,4
0,66,0,12
0,68,0,23
0,68,69,5
0,68,78,6
0,71,0,11
0,68,0,4
0,71,91,5
0,45,0,14
0,76,0,5
0,75,0,1
0,80,0,2
0,73,0,1
0,76,0,2
0,75,0,1
0,73,0,0
0,71,0,0
0,68,0,2
0,47,85,0
0,71,0,19
0,61,0,4
0,59,47,37
0,68,0,39
0,66,66,21
0,68,54,60
0,66,0,88
0,59,0,11
0,59,58,21
0,64,31,0
0,68,0,19
0,68,49,41
0,59,50,0
0,64,0,39
0,64,72,2
0,75,94,1
0,59,0,15
0,68,0,11
0,37,79,1
0,80,74,0
0,49,66,0
0,47,0,11
0,80,0,18
0,76,64,1
0,75,0,25
0,59,0,1
0,64,0,2
0,56,49,2
0,75,69,0
0,56,59,0
0,76,0,3
0,75,79,10
0,75,0,16
0,76,67,1
0,75,0,26
0,76,0,3
0,63,65,1
0,71,79,0
0,80,65,0
0,59,67,0
0,75,81,10
0,76,63,20
0,80,0,9
0,75,0,9
0,64,81,12
0,75,79,0
0,64,97,0
0,76,0,4
0,63,0,1
0,75,88,0
0,49,0,6
0,76,65,19
0,75,0,6
0,75,0,7
0,75,51,17
0,49,80,0
0,75,87,3
0,76,0,3
0,56,0,10
0,75,0,13
0,73,58,1
0,56,0,8
0,75,0,20
0,71,82,1
0,76,48,1
0,56,65,0
0,73,0,4
0,59,0,4
0,76,0,17
0,75,45,5
0,56,40,30
0,73,44,0
0,59,62,0
0,68,83,3
0,75,0,5
0,71,0,5
0,56,0,3
0,56,0,8
0,73,0,6
0,76,40,0
0,76,0,25
0,68,0,1
0,56,55,4
0,75,38,0
0,56,57,0
0,71,70,1
0,37,0,20
0,73,36,9
0,49,0,5
0,75,0,3
0,73,0,22
0,37,56,0
0,76,30,0
0,49,67,0
0,76,0,25
0,56,0,0
0,75,30,5
0,56,0,3
0,71,0,21
0,56,47,6
0,73,25,0
0,56,42,0
0,75,0,8
0,59,0,10
0,73,0,12
0,64,0,5
0,64,0,24
0,63,59,1
0,59,62,0
0,63,0,59
0,64,78,1
0,64,91,0
0,49,0,14
0,37,0,11
0,37,78,35
0,49,81,0
0,56,0,11
0,56,61,49
0,59,0,9
0,59,65,51
0,56,0,25
0,56,58,35
0,56,0,11
0,71,0,8
0,64,0,5
0,37,0,1
0,59,0,8
0,56,0,3
0,64,0,3
0,49,0,9
0,45,74,12
0,80,77,0
0,45,87,0
0,73,76,6
0,80,0,23
0,76,59,1
0,73,0,24
0,61,42,6
0,75,69,0
0,52,69,0
0,76,0,3
0,73,74,3
0,75,0,23
0,76,69,1
0,73,0,6
0,76,0,23
0,66,58,1
0,80,65,0
0,59,87,0
0,73,89,5
0,73,0,21
0,76,98,4
0,76,61,0
0,80,0,9
0,73,98,20
0,68,56,1
0,75,80,0
0,64,100,0
0,76,0,4
0,52,0,17
0,76,66,9
0,73,0,4
0,75,0,2
0,75,53,24
0,52,87,0
0,73,103,1
0,76,0,5
0,59,0,19
0,75,0,4
0,73,57,1
0,61,0,15
0,73,0,14
0,61,67,1
0,76,57,0
0,59,62,0
0,73,0,4
0,71,69,0
0,66,0,12
0,76,0,9
0,64,0,1
0,75,50,4
0,68,0,23
0,68,69,7
0,78,95,0
0,73,41,0
0,64,63,0
0,68,74,6
0,75,0,2
0,76,0,7
0,71,0,2
0,59,0,11
0,73,0,2
0,76,42,0
0,76,0,25
0,68,0,4
0,75,35,1
0,59,69,0
0,71,90,5
0,45,0,4
0,73,30,21
0,75,0,8
0,45,0,6
0,52,0,9
0,73,0,7
0,47,88,0
0,76,27,0
0,47,92,0
0,71,0,19
0,61,0,4
0,59,0,1
0,76,0,1
0,75,19,5
0,59,47,30
0,73,12,0
0,59,63,0
0,75,0,8
0,64,0,20
0,73,0,2
0,68,0,9
0,78,0,6
0,66,70,15
0,71,82,0
0,61,72,0
0,59,0,20
0,68,58,40
0,59,66,0
0,61,0,23
0,64,88,37
0,59,0,23
0,66,0,5
0,59,0,11
0,71,0,4
0,59,62,17
0,59,70,0
0,68,0,19
0,68,51,41
0,61,83,0
0,59,0,18
0,75,88,2
0,59,69,0
0,64,0,8
0,61,0,6
0,59,0,8
0,59,0,5
0,47,0,1
0,68,0,10
0,37,78,1
0,80,75,0
0,49,79,0
0,47,0,11
0,80,0,18
0,76,62,1
0,75,0,20
0,56,47,10
0,75,68,0
0,56,58,0
0,76,0,3
0,75,87,1
0,75,0,25
0,76,67,1
0,75,0,24
0,76,0,5
0,63,67,1
0,80,67,0
0,59,75,0
0,75,94,1
0,76,56,29
0,80,0,9
0,75,0,11
0,64,84,10
0,75,78,0
0,64,84,0
0,76,0,4
0,63,0,1
0,71,88,1
0,49,0,18
0,76,66,6
0,75,0,6
0,71,0,13
0,75,56,11
0,49,80,0
0,75,86,3
0,76,0,3
0,75,0,23
0,73,53,1
0,56,0,8
0,56,0,0
0,75,0,19
0,76,95,1
0,76,53,2
0,56,70,0
0,73,0,4
0,59,0,4
0,76,0,17
0,75,50,5
0,76,0,28
0,78,95,2
0,56,40,0
0,73,46,0
0,59,76,0
0,75,0,8
0,56,0,8
0,64,0,2
0,73,0,12
0,76,39,0
0,76,0,25
0,78,0,0
0,56,49,5
0,75,38,0
0,64,83,0
0,76,88,3
0,37,0,18
0,73,28,9
0,75,0,8
0,49,0,10
0,73,0,12
0,37,60,0
0,76,26,0
0,49,80,0
0,76,0,25
0,56,0,0
0,75,20,5
0,56,0,5
0,56,45,25
0,73,21,0
0,56,62,0
0,64,68,1
0,71,88,0
0,75,0,2
0,76,0,15
0,59,0,1
0,73,0,5
0,64,0,5
0,63,59,19
0,59,87,0
0,64,0,4
0,63,0,10
0,64,81,1
0,64,90,0
0,37,0,5
0,49,0,2
0,73,82,1
0,37,80,0
0,49,78,0
0,56,0,9
0,73,0,1
0,59,0,5
0,73,79,0
0,56,76,0
0,73,0,11
0,75,102,5
0,59,79,0
0,64,0,23
0,75,0,35
0,76,95,2
0,64,95,0
0,64,0,9
0,71,0,1
0,56,0,1
0,64,0,13
0,37,0,1
0,59,0,24
0,45,81,11
0,59,68,0
0,61,54,0
0,64,73,0
0,57,40,0
0,61,62,0
0,80,89,0
0,80,78,0
0,45,98,0
0,80,91,2
0,56,0,1
0,64,0,1
0,49,0,14
0,80,0,11
0,76,59,1
0,76,0,2
0,75,85,2
0,75,70,0
0,57,87,0
0,76,0,3
0,75,0,26
0,76,64,1
0,76,0,29
0,80,68,1
0,59,83,0
0,76,58,30
0,80,0,9
0,75,0,19
0,73,88,2
0,73,78,0
0,75,72,0
0,61,87,0
0,73,83,2
0,59,0,1
0,76,0,1
0,45,0,22
0,76,67,4
0,75,0,6
0,75,59,24
0,45,83,0
0,76,0,6
0,75,0,23
0,73,50,1
0,61,0,21
0,73,0,9
0,76,45,0
0,64,97,0
0,73,0,4
0,76,104,1
0,76,0,20
0,45,0,5
0,75,40,0
0,73,41,30
0,45,84,0
0,75,0,8
0,57,0,10
0,73,0,12
0,76,30,0
0,76,0,1
0,76,0,1
0,75,27,4
0,57,88,0
0,75,82,5
0,73,21,19
0,75,0,8
0,59,0,7
0,45,0,0
0,64,0,0
0,61,0,0
0,45,0,9
0,61,0,4
0,57,0,0
0,73,0,1
0,57,0,0
0,73,0,1
0,47,68,0
0,54,67,0
0,59,59,0
0,63,84,0
0,59,63,0
0,63,58,0
0,78,83,0
0,76,16,0
0,47,82,0
0,73,0,1
0,78,88,1
0,64,0,1
0,76,0,22
0,75,12,5
0,73,9,30
0,54,82,0
0,75,0,8
0,75,0,1
0,73,86,2
0,73,0,19
0,59,102,30
0,71,75,60
0,63,98,0
0,71,77,2
0,73,0,3
0,71,106,3
0,47,0,6
0,47,102,46
0,54,0,28
0,59,0,15
0,54,61,17
0,71,0,54
0,59,74,6
0,75,76,4
0,54,0,34
0,75,0,12
0,54,68,10
0,75,93,5
0,71,0,6
0,71,0,2
0,80,0,2
0,78,0,1
0,80,0,1
0,78,0,1
0,59,0,10
0,63,0,2
0,59,0,5
0,63,0,0
0,54,0,3
0,47,0,2
0,63,0,5
0,54,0,0
0,47,0,0
0,59,0,0
0,49,72,15
0,56,76,0
0,63,90,0
0,64,55,0
0,66,71,0
0,75,82,0
0,75,95,0
0,49,100,0
0,56,60,60
0,76,79,3
0,75,0,10
0,80,77,47
0,59,84,0
0,80,0,29
0,76,63,1
0,76,60,0
0,75,0,13
0,75,0,7
0,59,0,5
0,76,101,5
0,75,64,0
0,64,98,0
0,76,0,3
0,49,0,18
0,75,0,8
0,76,66,1
0,76,0,29
0,80,64,1
0,49,77,0
0,64,67,3
0,56,0,27
0,76,60,0
0,80,0,3
0,75,75,0
0,56,76,0
0,76,0,4
0,64,0,6
0,76,71,4
0,75,0,6
0,76,0,1
0,75,50,1
0,64,92,0
0,76,0,5
0,75,0,14
0,73,65,1
0,56,0,10
0,76,0,4
0,76,59,16
0,76,57,0
0,56,67,0
0,73,0,4
0,76,0,7
0,76,0,2
0,75,54,5
0,49,0,1
0,73,43,5
0,49,98,0
0,75,0,5
0,73,0,19
0,76,39,0
0,56,0,6
0,76,0,19
0,76,78,5
0,75,30,0
0,56,65,0
0,76,0,2
0,73,23,7
0,75,0,7
0,64,0,5
0,73,0,1
0,76,22,0
0,59,82,0
0,76,0,17
0,76,73,5
0,75,13,0
0,76,0,10
0,59,0,13
0,73,4,7
0,64,101,0
0,75,0,5
0,49,0,6
0,73,0,2
0,76,73,1
0,49,81,0
0,73,83,8
0,64,0,4
0,56,0,10
0,76,0,6
0,73,0,9
0,56,76,11
0,73,89,5
0,76,0,15
0,64,0,11
0,73,0,28
0,64,102,1
0,75,95,4
0,56,0,41
0,75,0,9
0,56,92,6
0,76,88,5
0,64,0,25
0,56,0,8
0,49,0,5
0,66,0,2
0,63,0,0
0,56,0,0
0,49,0,0
0,64,0,0
0,80,87,12
0,45,75,3
0,59,69,0
0,61,57,0
0,64,73,0
0,57,45,0
0,61,62,0
0,80,89,0
0,80,78,0
0,45,93,0
0,80,0,29
0,76,60,1
0,76,0,26
0,75,85,3
0,75,65,1
0,57,91,0
0,76,0,3
0,75,0,26
0,76,68,1
0,76,0,29
0,80,62,1
0,59,82,0
0,76,63,30
0,80,0,9
0,73,80,18
0,73,81,3
0,75,73,0
0,61,92,0
0,59,0,3
0,76,0,1
0,75,0,2
0,73,78,2
0,45,0,18
0,76,66,4
0,75,0,6
0,75,55,24
0,45,83,0
0,76,0,6
0,75,0,23
0,73,65,1
0,61,0,21
0,76,56,9
0,64,96,0
0,73,0,4
0,73,0,2
0,76,79,2
0,76,0,17
0,45,0,5
0,75,56,0
0,73,47,30
0,45,83,0
0,75,0,8
0,57,0,10
0,73,0,12
0,76,43,0
0,76,0,25
0,75,37,5
0,57,87,0
0,76,0,2
0,75,92,2
0,73,26,26
0,75,0,8
0,45,0,15
0,59,0,0
0,61,0,0
0,64,0,0
0,45,0,1
0,73,0,2
0,78,86,1
0,57,0,1
0,61,0,0
0,73,0,1
0,57,0,0
0,73,0,1
0,47,69,0
0,54,68,0
0,59,62,0
0,63,83,0
0,59,62,0
0,63,60,0
0,78,87,0
0,76,24,0
0,47,86,0
0,64,0,3
0,76,0,22
0,75,13,5
0,75,0,22
0,73,92,2
0,73,6,6
0,54,83,0
0,75,0,8
0,73,0,22
0,59,98,30
0,71,77,57
0,73,0,3
0,71,78,0
0,63,98,0
0,71,83,3
0,47,0,11
0,47,98,46
0,54,0,28
0,59,0,15
0,54,61,17
0,71,0,2
0,75,71,9
0,59,74,49
0,54,0,38
0,75,0,13
0,54,66,9
0,75,79,4
0,71,0,4
0,71,0,3
0,80,0,1
0,78,0,1
0,80,0,2
0,78,0,1
0,59,0,12
0,63,0,2
0,59,0,5
0,63,0,0
0,54,0,3
0,47,0,2
0,47,0,13
0,63,0,0
0,54,0,0
0,59,0,0
0,49,68,7
0,56,83,0
0,63,91,0
0,64,59,0
0,66,69,0
0,75,81,0
0,49,103,0
0,73,82,5
0,75,0,33
0,73,70,1
0,56,57,0
0,73,107,14
0,80,74,7
0,59,85,0
0,56,85,1
0,73,0,4
0,80,0,4
0,76,64,1
0,76,62,0
0,75,0,13
0,59,0,1
0,75,68,5
0,64,101,0
0,63,87,1
0,76,0,2
0,49,0,11
0,75,0,8
0,76,68,1
0,76,0,3
0,80,68,1
0,49,77,0
0,56,0,10
0,76,57,0
0,80,0,9
0,73,0,1
0,75,73,6
0,56,77,0
0,68,92,1
0,76,0,3
0,64,0,15
0,76,65,11
0,75,0,2
0,75,56,9
0,64,85,0
0,76,0,6
0,75,0,23
0,73,68,1
0,56,0,10
0,76,53,20
0,56,72,0
0,64,87,1
0,73,0,3
0,76,0,21
0,73,0,4
0,75,44,1
0,49,0,6
0,73,44,24
0,49,69,0
0,75,0,8
0,73,0,22
0,76,37,0
0,56,0,6
0,76,0,19
0,75,35,5
0,56,56,0
0,73,29,30
0,75,0,8
0,64,0,10
0,73,0,12
0,76,27,0
0,64,64,0
0,76,0,25
0,75,15,5
0,73,12,30
0,37,91,3
0,75,0,5
0,73,0,22
0,37,0,32
0,44,82,9
0,76,0,29
0,63,0,62
0,64,0,2
0,68,0,0
0,56,0,5
0,64,0,3
0,56,0,5
0,49,0,5
0,44,0,8
0,63,0,1
0,49,0,0
0,66,0,0
0,64,0,0
0,56,0,0
0,45,101,3
0,45,102,0
0,33,102,1
0,35,100,0
0,49,72,0
0,49,0,1
0,35,0,0
0,73,87,0
0,73,0,30
0,61,77,12
0,57,89,0
0,61,82,0
0,64,85,0
0,42,56,1
0,42,0,3
0,73,77,1
0,61,0,6
0,64,0,2
0,57,0,1
0,45,0,7
0,73,0,27
0,66,66,12
0,45,67,0
0,73,87,1
0,40,93,0
0,42,94,0
0,33,0,1
0,42,0,2
0,40,0,0
0,73,0,36
0,73,88,19
0,68,73,1
0,57,83,0
0,61,90,0
0,64,87,0
0,33,101,1
0,42,70,0
0,42,0,3
0,73,0,19
0,73,110,38
0,35,96,0
0,42,96,0
0,42,0,3
0,35,0,0
0,73,0,53
0,71,80,2
0,42,74,2
0,42,0,3
0,71,0,55
0,40,92,2
0,42,86,0
0,42,0,3
0,40,0,0
0,68,73,0
0,57,0,20
0,68,0,30
0,71,93,6
0,57,56,0
0,42,76,1
0,33,0,1
0,42,0,2
0,61,0,24
0,45,0,18
0,57,0,13
0,64,0,1
0,47,87,0
0,47,92,0
0,45,0,1
0,35,106,0
0,35,99,0
0,42,87,0
0,42,0,3
0,35,0,0
0,68,0,9
0,66,0,2
0,61,0,4
0,71,0,1
0,61,74,40
0,59,80,0
0,63,80,0
0,66,76,0
0,42,78,1
0,42,0,3
0,63,0,9
0,59,0,1
0,47,0,1
0,66,0,1
0,66,72,44
0,40,94,1
0,42,89,0
0,42,0,3
0,40,0,0
0,35,0,15
0,68,64,41
0,59,94,0
0,63,94,0
0,66,95,0
0,35,91,1
0,42,79,0
0,42,0,3
0,47,71,56
0,35,86,1
0,42,89,0
0,42,0,3
0,35,0,0
0,42,73,57
0,42,0,3
0,40,104,57
0,42,100,0
0,42,0,3
0,40,0,0
0,59,0,11
0,35,0,2
0,66,74,6
0,59,49,0
0,66,1,0
0,42,86,0
0,42,0,3
0,75,103,5
0,59,0,6
0,63,0,1
0,66,0,4
0,47,0,2
0,68,0,8
0,66,0,2
0,49,90,9
0,80,74,0
0,49,97,0
0,37,94,1
0,35,104,0
0,55,85,0
0,61,0,2
0,47,0,0
0,55,0,1
0,35,0,0
0,80,0,25
0,76,66,1
0,66,0,14
