track,note,velocity,time
1,64,127,13824
1,64,127,112
1,64,127,16
1,64,127,64
1,64,127,16
1,61,127,32
1,64,127,64
1,64,127,288
1,64,127,32
1,61,127,0
1,64,127,96
1,64,127,112
1,64,127,32
1,64,127,64
1,64,127,48
1,61,127,64
1,64,127,96
1,64,127,58736
1,64,127,112
1,64,127,16
1,64,127,64
1,64,127,16
1,61,127,32
1,64,127,64
1,64,127,288
1,64,127,32
1,61,127,0
1,64,127,96
1,64,127,112
1,64,127,32
1,64,127,64
1,64,127,48
1,61,127,64
1,64,127,96
1,64,127,1536
1,64,127,112
1,64,127,16
1,64,127,64
1,64,127,16
1,61,127,32
1,64,127,64
1,64,127,288
1,64,127,32
1,61,127,0
1,64,127,96
1,64,127,112
1,64,127,32
1,64,127,64
1,64,127,48
1,61,127,64
1,64,127,96
1,64,127,12656
1,64,127,112
1,64,127,16
1,64,127,64
1,64,127,16
1,61,127,32
1,64,127,64
1,64,127,288
1,64,127,32
1,61,127,0
1,64,127,96
1,64,127,112
1,64,127,32
1,64,127,64
1,64,127,48
1,61,127,64
1,64,127,96
1,64,127,368
1,64,127,112
1,64,127,16
1,64,127,64
1,64,127,16
1,61,127,32
1,64,127,64
1,64,127,288
1,64,127,32
1,61,127,0
1,64,127,96
1,64,127,112
1,64,127,32
1,64,127,64
1,64,127,48
1,61,127,64
1,64,127,96
1,64,127,368
1,64,127,112
1,64,127,16
1,64,127,64
1,64,127,16
1,61,127,32
1,64,127,64
1,64,127,288
1,64,127,32
1,61,127,0
1,64,127,96
1,64,127,112
1,64,127,32
1,64,127,64
1,64,127,48
1,61,127,64
1,64,127,96
1,57,127,368
2,52,127,13824
2,52,127,112
2,52,127,16
2,52,127,64
2,52,127,16
2,49,127,32
2,52,127,64
2,52,127,288
2,52,127,32
2,49,127,0
2,52,127,96
2,52,127,112
2,52,127,32
2,52,127,64
2,52,127,48
2,49,127,64
2,52,127,96
2,52,127,58736
2,52,127,112
2,52,127,16
2,52,127,64
2,52,127,16
2,49,127,32
2,52,127,64
2,52,127,288
2,52,127,32
2,49,127,0
2,52,127,96
2,52,127,112
2,52,127,32
2,52,127,64
2,52,127,48
2,49,127,64
2,52,127,96
2,52,127,1536
2,52,127,112
2,52,127,16
2,52,127,64
2,52,127,16
2,49,127,32
2,52,127,64
2,52,127,288
2,52,127,32
2,49,127,0
2,52,127,96
2,52,127,112
2,52,127,32
2,52,127,64
2,52,127,48
2,49,127,64
2,52,127,96
2,52,127,12656
2,52,127,112
2,52,127,16
2,52,127,64
2,52,127,16
2,49,127,32
2,52,127,64
2,52,127,288
2,52,127,32
2,49,127,0
2,52,127,96
2,52,127,112
2,52,127,32
2,52,127,64
2,52,127,48
2,49,127,64
2,52,127,96
2,52,127,368
2,52,127,112
2,52,127,16
2,52,127,64
2,52,127,16
2,49,127,32
2,52,127,64
2,52,127,288
2,52,127,32
2,49,127,0
2,52,127,96
2,52,127,112
2,52,127,32
2,52,127,64
2,52,127,48
2,49,127,64
2,52,127,96
2,52,127,368
2,52,127,112
2,52,127,16
2,52,127,64
2,52,127,16
2,49,127,32
2,52,127,64
2,52,127,288
2,52,127,32
2,49,127,0
2,52,127,96
2,52,127,112
2,52,127,32
2,52,127,64
2,52,127,48
2,49,127,64
2,52,127,96
2,45,127,368
3,71,127,77760
3,76,127,0
3,83,127,0
3,71,127,240
3,76,127,0
3,83,127,0
3,71,127,5616
3,76,127,0
3,83,127,0
3,71,127,240
3,76,127,0
3,83,127,0
3,71,127,63984
3,76,127,0
3,83,127,0
3,71,127,240
3,76,127,0
3,83,127,0
3,71,127,864
3,76,127,0
3,83,127,0
3,71,127,240
3,76,127,0
3,83,127,0
3,69,127,48
3,71,127,48
3,76,127,48
3,76,127,48
3,69,127,1616
3,71,127,48
3,76,127,48
3,76,127,48
4,69,100,1920
4,71,100,208
4,69,100,208
4,69,100,592
4,71,100,208
4,69,100,208
4,69,100,592
4,71,100,208
4,73,100,208
4,69,100,592
4,71,100,208
4,69,100,208
4,69,100,592
4,71,100,208
4,69,100,208
4,69,100,592
4,71,100,208
4,69,100,208
4,69,100,592
4,71,100,208
4,73,100,208
4,69,100,592
4,71,100,208
4,69,100,208
4,69,100,592
4,71,100,208
4,69,100,208
4,69,100,592
4,71,100,208
4,69,100,208
4,69,100,592
4,71,100,208
4,73,100,208
4,69,100,592
4,71,100,208
4,69,100,208
4,69,100,592
4,71,100,208
4,69,100,208
4,69,100,592
4,71,100,208
4,69,100,208
4,69,100,592
4,71,100,208
4,73,100,208
4,69,100,592
4,71,100,208
4,69,100,208
4,69,100,592
4,71,100,208
4,69,100,208
4,69,100,592
4,71,100,208
4,69,100,208
4,69,100,592
4,71,100,208
4,73,100,208
4,69,100,592
4,71,100,208
4,69,100,208
4,69,100,592
4,71,100,208
4,69,100,208
4,69,100,592
4,71,100,208
4,69,100,208
4,69,100,592
4,71,100,208
4,73,100,208
4,69,100,592
4,71,100,208
4,69,100,208
4,69,100,592
4,71,100,208
4,69,100,208
4,69,100,592
4,71,100,208
4,69,100,208
4,69,100,592
4,71,100,208
4,73,100,208
4,69,100,592
4,71,100,208
4,69,100,208
4,69,100,592
4,71,100,208
4,69,100,208
4,69,100,592
4,71,100,208
4,69,100,208
4,69,100,592
4,71,100,208
4,73,100,208
4,69,100,592
4,71,100,208
4,69,100,208
4,69,100,592
4,71,100,208
4,69,100,208
4,69,100,592
4,71,100,208
4,69,100,208
4,69,100,592
4,71,100,208
4,73,100,208
4,69,100,592
4,71,100,208
4,69,100,208
4,69,100,592
4,71,100,208
4,69,100,208
4,69,100,592
4,71,100,208
4,69,100,208
4,69,100,592
4,71,100,208
4,73,100,208
4,69,100,592
4,71,100,208
4,69,100,208
4,69,100,592
4,71,100,208
4,73,100,208
4,69,100,592
4,71,100,208
4,69,100,208
4,69,100,592
4,71,100,208
4,69,100,208
4,69,100,592
4,71,100,208
4,69,100,208
4,69,100,592
4,71,100,208
4,73,100,208
4,69,100,592
4,71,100,208
4,69,100,208
4,69,100,592
4,71,100,208
4,69,100,208
4,69,100,592
4,71,100,208
4,69,100,208
4,69,100,592
4,71,100,208
4,73,100,208
4,69,100,592
4,71,100,208
4,69,100,208
4,69,100,592
4,71,100,208
4,69,100,208
4,69,100,592
4,71,100,208
4,69,100,208
4,69,100,592
4,71,100,208
4,73,100,208
4,69,100,592
4,71,100,208
4,69,100,208
4,69,100,592
4,71,100,208
4,69,100,208
4,69,100,592
4,71,100,208
4,69,100,208
4,69,100,592
4,71,100,208
4,73,100,208
4,69,100,592
4,71,100,208
4,69,100,208
4,69,100,592
4,71,100,208
4,69,100,208
4,69,100,592
4,71,100,208
4,69,100,208
4,69,100,592
4,71,100,208
4,73,100,208
4,69,100,592
4,71,100,208
4,69,100,208
4,69,100,592
4,71,100,208
4,73,100,208
4,69,100,592
4,71,100,208
4,69,100,208
4,69,100,592
4,71,100,208
4,69,100,208
4,69,100,592
4,71,100,208
4,69,100,208
4,69,100,592
4,71,100,208
4,73,100,208
4,69,100,592
4,71,100,208
4,69,100,208
4,69,100,592
4,71,100,208
4,69,100,208
4,69,100,592
4,71,100,208
4,69,100,208
4,69,100,592
4,71,100,208
4,73,100,208
4,69,100,592
4,71,100,208
4,69,100,208
4,69,100,592
4,71,100,208
4,69,100,208
4,69,100,592
4,71,100,208
4,69,100,208
4,69,100,592
4,71,100,208
4,73,100,208
4,69,100,592
4,71,100,208
4,69,100,208
4,69,100,592
4,71,100,208
4,69,100,208
4,69,100,592
4,71,100,208
4,69,100,208
4,69,100,592
4,71,100,208
4,73,100,208
4,69,100,592
4,71,100,208
4,69,100,208
4,69,100,592
4,71,100,208
4,69,100,208
4,69,100,592
4,71,100,208
4,69,100,208
4,69,100,592
4,71,100,208
4,73,100,208
4,69,100,592
4,71,100,208
4,69,100,208
4,69,100,592
4,71,100,208
4,73,100,208
4,69,100,592
4,71,100,208
4,69,100,208
4,69,100,592
4,71,100,208
4,69,100,208
4,69,100,592
4,71,100,208
4,69,100,208
4,69,100,592
4,71,100,208
4,73,100,208
4,69,100,592
4,71,100,208
4,69,100,208
4,69,100,592
4,71,100,208
4,69,100,208
4,69,100,592
4,71,100,208
4,69,100,208
4,69,100,592
4,71,100,208
4,73,100,208
4,69,100,592
4,71,100,208
4,69,100,208
4,69,100,592
4,71,100,208
4,69,100,208
4,69,100,592
4,71,100,208
4,69,100,208
4,69,100,592
4,71,100,208
4,73,100,208
4,69,100,592
4,71,100,208
4,69,100,208
4,69,100,592
4,71,100,208
4,69,100,208
4,69,100,592
4,71,100,208
4,69,100,208
4,69,100,592
4,71,100,208
4,73,100,208
4,69,100,592
4,71,100,208
4,69,100,208
4,69,100,592
4,71,100,208
4,69,100,208
4,69,100,592
4,71,100,208
4,69,100,208
4,69,100,592
4,71,100,208
4,73,100,208
4,69,100,592
4,71,100,208
4,69,100,208
4,69,100,592
4,71,100,208
4,73,100,208
4,69,100,592
4,71,100,208
4,69,100,208
4,69,100,592
4,71,100,208
4,69,100,208
4,69,100,592
4,71,100,208
4,69,100,208
4,69,100,592
4,71,100,208
4,73,100,208
4,69,100,592
4,71,100,208
4,69,100,208
4,69,100,592
4,71,100,208
4,69,100,208
4,69,100,592
4,71,100,208
4,69,100,208
4,69,100,592
4,71,100,208
4,73,100,208
4,69,100,592
4,71,100,208
4,69,100,208
4,69,100,592
4,71,100,208
4,69,100,208
4,69,100,592
4,71,100,208
4,69,100,208
4,69,100,592
4,71,100,208
4,73,100,208
4,69,100,592
4,71,100,208
4,69,100,208
4,69,100,592
4,71,100,208
4,69,100,208
4,69,100,592
4,71,100,208
4,69,100,208
4,69,100,592
4,71,100,208
4,73,100,208
4,69,100,592
4,71,100,208
4,69,100,208
4,69,100,592
4,71,100,208
4,69,100,208
4,69,100,592
4,71,100,208
4,69,100,208
4,69,100,592
4,71,100,208
4,73,100,208
4,69,100,592
4,71,100,208
4,69,100,208
4,69,100,592
4,71,100,208
4,73,100,208
4,69,100,592
4,71,100,208
4,69,100,208
4,69,100,592
4,71,100,208
4,69,100,208
4,69,100,592
4,71,100,208
4,69,100,208
4,69,100,592
4,71,100,208
4,73,100,208
4,69,100,592
4,71,100,208
4,69,100,208
4,69,100,592
4,71,100,208
4,69,100,208
4,69,100,592
4,71,100,208
4,69,100,208
4,69,100,592
4,71,100,208
4,73,100,208
4,69,100,592
4,71,100,208
4,69,100,208
4,69,100,592
4,71,100,208
4,69,100,208
4,69,100,592
4,71,100,208
4,69,100,208
4,69,100,592
4,71,100,208
4,73,100,208
4,69,100,592
4,71,100,208
4,69,100,208
4,69,100,592
4,71,100,208
4,69,100,208
4,69,100,592
4,71,100,208
4,69,100,208
4,69,100,592
4,71,100,208
4,73,100,208
4,69,100,592
4,71,100,208
4,69,100,208
4,69,100,592
4,71,100,208
4,69,100,208
4,69,100,592
4,71,100,208
4,69,100,208
5,61,100,1536
5,62,100,416
5,66,100,80
5,64,100,80
5,61,100,1072
5,62,100,416
5,66,100,80
5,64,100,80
6,57,100,1536
6,61,100,0
6,64,100,0
6,57,100,160
6,62,100,0
6,64,100,0
6,57,100,160
6,61,100,0
6,64,100,0
6,57,100,160
6,62,100,0
6,64,100,0
6,57,100,160
6,61,100,0
6,64,100,0
6,57,100,160
6,62,100,0
6,64,100,0
6,57,100,160
6,61,100,0
6,64,100,0
6,57,100,160
6,62,100,0
6,64,100,0
6,57,100,160
6,61,100,0
6,64,100,0
6,57,100,160
6,62,100,0
6,66,100,0
6,59,100,160
6,64,100,0
6,68,100,0
6,57,100,160
6,62,100,0
6,66,100,0
6,57,100,160
6,61,100,0
6,64,100,0
6,57,100,160
6,62,100,0
6,66,100,0
6,59,100,160
6,64,100,0
6,68,100,0
6,57,100,160
6,62,100,0
6,66,100,0
6,57,100,160
6,61,100,0
6,64,100,0
6,57,100,160
6,62,100,0
6,66,100,0
6,59,100,160
6,64,100,0
6,68,100,0
6,57,100,160
6,62,100,0
6,66,100,0
6,57,100,160
6,61,100,0
6,64,100,0
6,57,100,160
6,62,100,0
6,66,100,0
6,59,100,160
6,62,100,0
6,66,100,0
6,59,100,160
6,59,100,0
6,68,100,0
6,64,100,0
6,57,100,160
6,61,100,0
6,64,100,0
6,57,100,160
6,62,100,0
6,66,100,0
6,59,100,160
6,64,100,0
6,68,100,0
6,57,100,160
6,62,100,0
6,66,100,0
6,57,100,160
6,61,100,0
6,64,100,0
6,57,100,160
6,62,100,0
6,66,100,0
6,59,100,160
6,64,100,0
6,68,100,0
6,57,100,160
6,62,100,0
6,66,100,0
6,61,100,160
6,66,100,0
6,69,100,0
6,59,100,160
6,64,100,0
6,68,100,0
6,57,100,160
6,61,100,0
6,64,100,0
6,61,100,160
6,64,100,0
6,68,100,0
6,57,100,160
6,62,100,0
6,66,100,0
6,59,100,160
6,64,100,0
6,68,100,0
6,57,100,160
6,61,100,0
6,64,100,0
6,59,100,160
6,62,100,0
6,66,100,0
6,62,100,160
6,66,100,0
6,69,100,0
6,59,100,160
6,64,100,0
6,68,100,0
6,57,100,160
6,61,100,0
6,64,100,0
6,59,100,160
6,62,100,0
6,66,100,0
6,62,100,160
6,66,100,0
6,69,100,0
6,59,100,160
6,64,100,0
6,68,100,0
6,61,100,160
6,66,100,0
6,69,100,0
6,59,100,160
6,64,100,0
6,68,100,0
6,57,100,160
6,62,100,0
6,66,100,0
6,59,100,160
6,62,100,0
6,66,100,0
6,61,100,160
6,66,100,0
6,69,100,0
6,59,100,160
6,64,100,0
6,68,100,0
6,57,100,160
6,62,100,0
6,66,100,0
6,59,100,160
6,62,100,0
6,66,100,0
6,57,100,160
6,61,100,0
6,64,100,0
6,57,100,160
6,62,100,0
6,66,100,0
6,59,100,160
6,64,100,0
6,68,100,0
6,57,100,160
6,62,100,0
6,66,100,0
6,57,100,160
6,61,100,0
6,64,100,0
6,57,100,160
6,62,100,0
6,66,100,0
6,59,100,160
6,64,100,0
6,68,100,0
6,57,100,160
6,62,100,0
6,66,100,0
6,57,100,160
6,61,100,0
6,64,100,0
6,57,100,160
6,62,100,0
6,66,100,0
6,59,100,160
6,64,100,0
6,68,100,0
6,57,100,160
6,62,100,0
6,66,100,0
6,57,100,160
6,61,100,0
6,64,100,0
6,57,100,160
6,62,100,0
6,66,100,0
6,59,100,160
6,62,100,0
6,66,100,0
6,59,100,160
6,59,100,0
6,68,100,0
6,64,100,0
6,57,100,160
6,61,100,0
6,64,100,0
6,57,100,160
6,62,100,0
6,66,100,0
6,59,100,160
6,64,100,0
6,68,100,0
6,57,100,160
6,62,100,0
6,66,100,0
6,57,100,160
6,61,100,0
6,64,100,0
6,57,100,160
6,62,100,0
6,66,100,0
6,59,100,160
6,64,100,0
6,68,100,0
6,57,100,160
6,62,100,0
6,66,100,0
6,61,100,160
6,66,100,0
6,69,100,0
6,59,100,160
6,64,100,0
6,68,100,0
6,57,100,160
6,61,100,0
6,64,100,0
6,61,100,160
6,64,100,0
6,68,100,0
6,57,100,160
6,62,100,0
6,66,100,0
6,59,100,160
6,64,100,0
6,68,100,0
6,57,100,160
6,61,100,0
6,64,100,0
6,59,100,160
6,62,100,0
6,66,100,0
6,62,100,160
6,66,100,0
6,69,100,0
6,59,100,160
6,64,100,0
6,68,100,0
6,57,100,160
6,61,100,0
6,64,100,0
6,59,100,160
6,62,100,0
6,66,100,0
6,62,100,160
6,66,100,0
6,69,100,0
6,59,100,160
6,64,100,0
6,68,100,0
6,61,100,160
6,66,100,0
6,69,100,0
6,59,100,160
6,64,100,0
6,68,100,0
6,57,100,160
6,62,100,0
6,66,100,0
6,59,100,160
6,62,100,0
6,66,100,0
6,61,100,160
6,66,100,0
6,69,100,0
6,59,100,160
6,64,100,0
6,68,100,0
6,57,100,160
6,62,100,0
6,66,100,0
6,59,100,160
6,62,100,0
6,66,100,0
6,69,100,1536
6,71,100,48
6,76,100,48
6,76,100,48
6,69,100,1616
6,71,100,48
6,76,100,48
6,76,100,48
