track,note,velocity,time
3,35,109,7932
3,40,106,96
3,35,0,14
3,40,0,652
3,43,106,6
3,36,86,96
3,43,0,2
3,36,0,666
3,28,109,4
3,28,0,44
3,31,86,4
3,31,0,44
3,33,112,4
3,33,0,668
3,35,88,4
3,35,0,44
3,38,91,4
3,38,0,44
3,40,121,4
3,40,0,129
3,40,112,23
3,40,0,80
3,38,118,66
3,38,0,192
3,26,94,8
3,26,0,14
3,26,94,32
3,26,0,20
3,26,112,24
3,38,109,0
3,26,0,14
3,38,0,2
3,31,124,6
3,31,0,34
3,31,118,62
3,31,0,104
3,31,109,88
3,31,0,18
3,33,118,30
3,33,0,26
3,33,112,70
3,33,0,12
3,33,115,36
3,33,0,124
3,33,97,68
3,33,0,18
3,35,115,30
3,35,0,16
3,36,112,32
3,36,0,32
3,36,109,64
3,36,0,120
3,36,109,72
3,36,0,18
3,38,112,30
3,38,0,18
3,38,109,78
3,38,0,8
3,38,115,40
3,38,0,108
3,38,115,84
3,38,0,20
3,33,109,28
3,33,0,20
3,31,124,28
3,31,0,34
3,31,118,62
3,31,0,104
3,31,109,88
3,31,0,18
3,33,118,30
3,33,0,26
3,33,112,70
3,33,0,12
3,33,115,36
3,33,0,124
3,33,97,68
3,33,0,18
3,35,115,30
3,35,0,16
3,36,112,32
3,36,0,32
3,36,109,64
3,36,0,120
3,36,109,72
3,36,0,18
3,38,112,30
3,38,0,18
3,38,109,78
3,38,0,8
3,38,115,40
3,38,0,108
3,38,115,84
3,38,0,20
3,33,109,28
3,33,0,20
3,31,124,28
3,31,0,34
3,31,118,62
3,31,0,104
3,31,109,88
3,31,0,18
3,33,118,30
3,33,0,26
3,33,112,70
3,33,0,12
3,33,115,36
3,33,0,124
3,33,97,68
3,33,0,18
3,35,115,30
3,35,0,16
3,36,115,32
3,36,0,24
3,36,115,72
3,36,0,108
3,36,100,84
3,36,0,12
3,38,115,36
3,38,0,34
3,38,112,62
3,38,0,14
3,38,115,34
3,38,0,174
3,36,106,18
3,36,0,22
3,38,109,26
3,38,0,30
3,40,112,18
3,40,0,32
3,40,112,64
3,40,0,106
3,40,112,86
3,40,0,34
3,41,109,14
3,41,0,34
3,41,109,62
3,29,112,48
3,29,0,278
3,41,0,0
3,33,118,12
3,33,0,98
3,38,112,198
3,38,0,76
3,26,88,106
3,26,0,50
3,26,94,58
3,38,109,0
3,26,0,2
3,31,115,6
3,38,0,2
3,31,0,574
3,38,112,0
3,38,0,18
3,31,115,14
3,31,0,22
3,31,115,74
3,31,0,102
3,31,112,90
3,31,0,16
3,33,109,32
3,33,0,26
3,33,112,70
3,33,0,14
3,33,121,34
3,33,0,120
3,33,106,120
3,33,0,18
3,36,109,30
3,36,0,28
3,36,109,68
3,36,0,102
3,36,100,90
3,36,0,12
3,38,109,36
3,38,0,26
3,38,106,70
3,38,0,10
3,38,112,38
3,38,0,114
3,29,112,78
3,29,0,28
3,30,115,20
3,30,0,28
3,31,112,20
3,31,0,36
3,31,115,60
3,31,0,110
3,31,91,82
3,31,0,14
3,33,109,34
3,33,0,40
3,33,115,56
3,33,0,12
3,33,112,36
3,33,0,114
3,33,86,78
3,33,0,12
3,35,86,36
3,35,0,24
3,36,109,24
3,36,0,24
3,36,109,72
3,36,0,186
3,38,112,54
3,38,0,50
3,38,106,46
3,38,0,10
3,38,112,38
3,38,0,82
3,40,118,14
3,40,0,36
3,38,97,12
3,38,0,36
3,35,109,12
3,35,0,42
3,33,103,6
3,31,115,48
3,33,0,2
3,31,0,20
3,31,115,74
3,31,0,102
3,31,112,90
3,31,0,16
3,33,109,32
3,33,0,26
3,33,112,70
3,33,0,14
3,33,121,34
3,33,0,120
3,33,106,120
3,33,0,18
3,36,109,30
3,36,0,28
3,36,109,68
3,36,0,102
3,36,100,90
3,36,0,12
3,38,109,36
3,38,0,26
3,38,106,70
3,38,0,10
3,38,112,38
3,38,0,114
3,29,112,78
3,29,0,28
3,30,115,20
3,30,0,28
3,31,112,20
3,31,0,36
3,31,115,60
3,31,0,110
3,31,91,82
3,31,0,14
3,33,109,34
3,33,0,40
3,33,115,56
3,33,0,12
3,33,112,36
3,33,0,114
3,33,86,78
3,33,0,12
3,35,86,36
3,35,0,24
3,36,112,24
3,36,0,30
3,36,112,66
3,36,0,90
3,36,103,102
3,36,0,16
3,38,109,32
3,38,0,24
3,38,106,72
3,38,0,10
3,38,106,38
3,38,0,80
3,40,103,16
3,40,0,24
3,38,106,24
3,38,0,36
3,35,103,12
3,35,0,34
3,33,103,14
3,33,0,34
3,40,106,14
3,40,0,668
3,43,106,4
3,43,0,92
3,36,86,4
3,36,0,668
3,28,109,4
3,28,0,44
3,31,86,4
3,31,0,44
3,33,112,4
3,33,0,668
3,35,88,4
3,35,0,44
3,38,91,4
3,38,0,44
3,40,121,4
3,40,0,114
3,40,112,38
3,40,0,80
3,38,118,66
3,38,0,192
3,26,94,8
3,26,0,14
3,26,94,32
3,26,0,20
3,26,112,24
3,38,109,0
3,26,0,2
3,38,0,0
3,31,124,4
3,31,0,34
3,31,118,62
3,31,0,104
3,31,109,88
3,31,0,18
3,33,118,30
3,33,0,26
3,33,112,70
3,33,0,12
3,33,115,36
3,33,0,124
3,33,97,68
3,33,0,18
3,35,115,30
3,35,0,16
3,36,112,32
3,36,0,32
3,36,109,64
3,36,0,120
3,36,109,72
3,36,0,18
3,38,112,30
3,38,0,18
3,38,109,78
3,38,0,8
3,38,115,40
3,38,0,108
3,38,115,84
3,38,0,20
3,33,109,28
3,33,0,20
3,31,124,28
3,31,0,34
3,31,118,62
3,31,0,104
3,31,109,88
3,31,0,18
3,33,118,30
3,33,0,26
3,33,112,70
3,33,0,12
3,33,115,36
3,33,0,124
3,33,97,68
3,33,0,18
3,35,115,30
3,35,0,16
3,36,112,32
3,36,0,32
3,36,109,64
3,36,0,120
3,36,109,72
3,36,0,18
3,38,112,30
3,38,0,18
3,38,109,78
3,38,0,8
3,38,115,40
3,38,0,108
3,38,115,84
3,38,0,20
3,33,109,28
3,33,0,20
3,31,124,28
3,31,0,34
3,31,118,62
3,31,0,104
3,31,109,88
3,31,0,18
3,33,118,30
3,33,0,26
3,33,112,70
3,33,0,12
3,33,115,36
3,33,0,124
3,33,97,68
3,33,0,18
3,35,115,30
3,35,0,16
3,36,115,32
3,36,0,24
3,36,115,72
3,36,0,108
3,36,100,84
3,36,0,12
3,38,115,36
3,38,0,34
3,38,112,62
3,38,0,14
3,38,115,34
3,38,0,174
3,36,106,18
3,36,0,22
3,38,109,26
3,38,0,30
3,40,112,18
3,40,0,32
3,40,112,64
3,40,0,106
3,40,112,86
3,40,0,34
3,41,109,14
3,41,0,34
3,41,109,62
3,29,112,48
3,29,0,278
3,41,0,0
3,33,118,10
3,33,0,98
3,38,112,190
3,38,0,74
3,26,88,118
3,26,0,50
3,26,94,46
3,38,109,0
3,26,0,4
3,38,0,6
3,33,106,24
3,33,0,772
3,36,87,14
3,43,80,124
3,52,50,160
3,36,0,330
3,38,78,38
3,43,0,14
3,52,0,2
3,38,0,12
3,31,106,12
3,43,76,298
3,43,0,342
3,43,66,22
3,45,66,48
3,43,0,8
3,45,0,36
3,38,94,6
3,31,0,2
3,50,65,286
3,38,0,374
3,31,91,10
3,32,106,48
3,31,0,2
3,50,0,8
3,32,0,36
3,33,100,2
3,40,50,288
3,40,0,48
3,45,61,0
3,33,0,264
3,45,0,62
3,33,88,10
3,33,0,96
3,36,91,2
3,43,80,132
3,52,56,156
3,36,0,352
3,38,88,28
3,43,0,20
3,52,0,18
3,38,0,2
3,38,112,6
3,50,74,288
3,50,0,388
3,43,72,2
3,38,0,2
3,45,80,50
3,43,0,6
3,45,0,24
3,50,82,10
3,50,0,110
3,50,78,32
3,50,0,44
3,43,70,2
3,43,0,38
3,45,80,10
3,45,0,30
3,38,94,24
3,38,0,264
3,38,66,20
3,38,0,10
3,43,72,1420
3,43,0,40
3,48,56,6
3,50,70,50
3,48,0,14
3,50,0,36
3,55,70,0
3,55,0,722
3,31,124,806
3,31,0,34
3,31,118,62
3,31,0,104
3,31,109,88
3,31,0,18
3,33,118,30
3,33,0,26
3,33,112,70
3,33,0,12
3,33,115,36
3,33,0,124
3,33,97,68
3,33,0,18
3,35,115,30
3,35,0,16
3,36,112,32
3,36,0,32
3,36,109,64
3,36,0,120
3,36,109,72
3,36,0,18
3,38,112,30
3,38,0,18
3,38,109,78
3,38,0,8
3,38,115,40
3,38,0,108
3,38,115,84
3,38,0,20
3,33,109,28
3,33,0,20
3,31,124,28
3,31,0,34
3,31,118,62
3,31,0,104
3,31,109,88
3,31,0,18
3,33,118,30
3,33,0,26
3,33,112,70
3,33,0,12
3,33,115,36
3,33,0,124
3,33,97,68
3,33,0,18
3,35,115,30
3,35,0,16
3,36,112,32
3,36,0,32
3,36,109,64
3,36,0,120
3,36,109,72
3,36,0,18
3,38,112,30
3,38,0,18
3,38,109,78
3,38,0,8
3,38,115,40
3,38,0,108
3,38,115,84
3,38,0,20
3,33,109,28
3,33,0,20
3,31,124,28
3,31,0,34
3,31,118,62
3,31,0,104
3,31,109,88
3,31,0,18
3,33,118,30
3,33,0,26
3,33,112,70
3,33,0,12
3,33,115,36
3,33,0,124
3,33,97,68
3,33,0,18
3,35,115,30
3,35,0,16
3,36,115,32
3,36,0,24
3,36,115,72
3,36,0,108
3,36,100,84
3,36,0,12
3,38,115,36
3,38,0,34
3,38,112,62
3,38,0,14
3,38,115,34
3,38,0,174
3,36,106,18
3,36,0,22
3,38,109,26
3,38,0,30
3,40,112,18
3,40,0,32
3,40,112,64
3,40,0,106
3,40,112,86
3,40,0,34
3,41,109,14
3,41,0,34
3,41,109,62
3,29,112,48
3,29,0,270
3,41,0,0
3,33,121,18
3,33,0,72
3,33,118,24
3,33,0,130
3,38,106,62
3,38,0,18
3,38,112,30
3,38,0,62
3,38,115,34
3,38,0,20
3,38,94,28
3,38,0,22
3,38,88,26
3,38,0,26
3,40,118,22
3,40,0,38
3,38,106,10
3,38,0,46
3,35,109,2
3,33,106,48
3,35,0,2
3,33,0,44
3,31,124,2
3,31,0,34
3,31,118,62
3,31,0,104
3,31,109,88
3,31,0,18
3,33,118,30
3,33,0,26
3,33,112,70
3,33,0,12
3,33,115,36
3,33,0,124
3,33,97,68
3,33,0,18
3,35,115,30
3,35,0,16
3,36,112,32
3,36,0,32
3,36,109,64
3,36,0,120
3,36,109,72
3,36,0,18
3,38,112,30
3,38,0,18
3,38,109,78
3,38,0,8
3,38,115,40
3,38,0,108
3,38,115,84
3,38,0,20
3,33,109,28
3,33,0,20
3,31,124,28
3,31,0,34
3,31,118,62
3,31,0,104
3,31,109,88
3,31,0,18
3,33,118,30
3,33,0,26
3,33,112,70
3,33,0,12
3,33,115,36
3,33,0,124
3,33,97,68
3,33,0,18
3,35,115,30
3,35,0,16
3,36,112,32
3,36,0,32
3,36,109,64
3,36,0,120
3,36,109,72
3,36,0,18
3,38,112,30
3,38,0,18
3,38,109,78
3,38,0,8
3,38,115,40
3,38,0,108
3,38,115,84
3,38,0,20
3,33,109,28
3,33,0,20
3,31,124,28
3,31,0,34
3,31,118,62
3,31,0,104
3,31,109,88
3,31,0,18
3,33,118,30
3,33,0,26
3,33,112,70
3,33,0,12
3,33,115,36
3,33,0,124
3,33,97,68
3,33,0,18
3,35,115,30
3,35,0,16
3,36,115,32
3,36,0,24
3,36,115,72
3,36,0,108
3,36,100,84
3,36,0,12
3,38,115,36
3,38,0,34
3,38,112,62
3,38,0,14
3,38,115,34
3,38,0,174
3,36,106,18
3,36,0,22
3,38,109,26
3,38,0,30
3,40,112,18
3,40,0,32
3,40,112,64
3,40,0,106
3,40,112,86
3,40,0,34
3,41,109,14
3,41,0,34
3,41,109,62
3,29,112,48
3,29,0,278
3,41,0,0
3,33,118,10
3,33,0,98
3,38,112,190
3,38,0,74
3,26,88,118
3,26,0,50
3,26,94,46
3,38,109,0
3,26,0,6
3,38,0,6
3,31,102,12
3,31,0,738
4,55,82,11082
4,59,80,0
4,59,0,380
4,60,84,4
4,55,0,760
4,60,0,4
4,57,74,4
4,62,72,0
4,57,0,380
4,62,0,0
4,55,82,4
4,59,80,0
4,59,0,380
4,60,84,4
4,55,0,760
4,60,0,4
4,57,74,4
4,62,72,0
4,57,0,380
4,62,0,0
4,55,82,4
4,59,80,0
4,59,0,380
4,60,84,4
4,55,0,764
4,60,0,0
4,57,74,4
4,62,72,0
4,57,0,380
4,62,0,0
4,55,82,4
4,59,80,0
4,59,0,380
4,55,0,4
4,57,82,0
4,60,84,0
4,57,0,368
4,60,0,20
4,55,82,10748
4,59,80,0
4,59,0,380
4,60,84,4
4,55,0,760
4,60,0,4
4,57,74,4
4,62,72,0
4,57,0,380
4,62,0,0
4,55,82,4
4,59,80,0
4,59,0,380
4,60,84,4
4,55,0,764
4,60,0,0
4,57,74,4
4,62,72,0
4,57,0,380
4,62,0,0
4,55,82,4
4,59,80,0
4,59,0,380
4,60,84,4
4,60,0,764
4,55,0,4
4,57,74,0
4,62,72,0
4,57,0,380
4,62,0,0
4,55,82,4
4,59,80,0
4,55,0,376
4,59,0,4
4,57,82,4
4,60,84,0
4,60,0,376
4,57,0,8
4,57,59,768
4,60,59,0
4,57,0,764
4,55,55,4
4,59,59,768
4,60,0,0
4,55,0,760
4,59,0,4
4,57,61,4
4,62,74,0
4,57,0,758
4,57,60,10
4,60,60,0
4,62,0,10
4,57,0,754
4,55,55,4
4,59,57,768
4,60,0,0
4,55,0,760
4,59,0,4
4,57,61,4
4,62,74,0
4,57,0,758
4,62,0,4
4,55,82,3078
4,59,80,0
4,59,0,380
4,60,84,4
4,55,0,760
4,60,0,4
4,57,74,4
4,62,72,0
4,57,0,380
4,62,0,0
4,55,82,4
4,59,80,0
4,59,0,380
4,60,84,4
4,55,0,764
4,60,0,0
4,57,74,4
4,62,72,0
4,57,0,380
4,62,0,0
4,55,82,4
4,59,80,0
4,59,0,380
4,60,84,4
4,55,0,764
4,60,0,0
4,57,74,4
4,62,72,0
4,57,0,380
4,62,0,0
4,55,82,4
4,59,80,0
4,55,0,380
4,59,0,0
4,60,84,4
4,57,78,4
4,60,0,376
4,57,0,4
4,62,65,0
4,67,80,0
4,62,0,764
4,67,0,0
4,55,82,4
4,59,80,0
4,59,0,380
4,60,84,4
4,55,0,764
4,60,0,0
4,57,74,4
4,62,72,0
4,57,0,380
4,62,0,0
4,55,82,4
4,59,80,0
4,59,0,380
4,60,84,4
4,60,0,764
4,55,0,4
4,57,74,0
4,62,72,0
4,57,0,380
4,62,0,0
4,55,82,4
4,59,80,0
4,59,0,380
4,60,84,4
4,55,0,760
4,60,0,4
4,57,74,4
4,62,72,0
4,57,0,380
4,62,0,0
4,55,82,4
4,59,80,0
4,55,0,380
4,59,0,0
4,57,78,4
4,60,84,0
4,57,0,380
4,60,0,0
5,71,112,2
5,71,0,18
5,74,118,64
5,76,115,184
5,74,0,16
5,76,0,12
5,67,121,352
5,67,0,38
5,64,109,16
5,64,0,42
5,67,112,2
5,67,0,76
5,67,112,26
5,67,0,82
5,69,109,10
5,69,0,80
5,69,103,22
5,69,0,54
5,67,118,316
5,67,0,28
5,67,112,24
5,67,0,40
5,71,115,8
5,71,0,44
5,71,106,52
5,71,0,24
5,71,115,24
5,71,0,54
5,71,106,42
5,71,0,44
5,69,118,4
5,69,0,34
5,67,109,14
5,67,0,26
5,67,106,22
5,67,0,204
5,67,121,86
5,67,0,34
5,64,109,12
5,64,0,40
5,67,112,18
5,67,0,68
5,67,109,28
5,67,0,84
5,69,115,8
5,69,0,74
5,69,103,24
5,69,0,70
5,71,115,404
5,71,0,56
5,74,112,14
5,74,0,14
5,67,112,364
5,67,0,26
5,64,103,22
5,64,0,24
5,67,112,20
5,67,0,130
5,69,106,10
5,69,0,134
5,69,97,20
5,69,0,106
5,67,106,268
5,67,0,30
5,67,115,16
5,67,0,34
5,71,115,16
5,71,0,44
