track,note,velocity,time
3,70,91,6144
3,70,83,0
3,69,96,0
3,70,87,0
3,69,91,0
3,70,86,0
3,69,88,0
3,70,88,0
3,69,88,0
3,65,81,0
3,62,86,0
3,70,92,0
3,69,92,0
3,70,86,0
3,69,88,0
3,70,76,0
3,69,85,0
3,70,83,0
3,69,88,0
3,70,83,0
3,69,87,0
3,70,75,0
3,74,88,0
3,74,86,96
3,74,91,96
3,75,86,0
3,74,86,0
3,75,84,0
3,74,88,0
3,75,85,0
3,74,88,0
3,75,86,0
3,74,91,0
3,70,70,0
3,67,92,0
3,74,91,0
3,72,86,0
3,74,82,0
3,72,82,0
3,74,81,0
3,72,82,0
3,74,80,0
3,72,80,0
3,74,77,0
3,72,83,0
3,70,73,0
3,74,84,0
3,70,83,0
3,69,89,0
3,70,81,0
3,69,91,0
3,70,77,0
3,69,88,0
3,70,72,0
3,69,86,0
3,70,70,0
3,69,88,0
3,65,88,0
3,62,79,0
3,70,81,0
3,69,91,0
3,70,83,0
3,69,85,0
3,70,84,0
3,69,88,0
3,70,73,0
3,69,88,0
3,70,82,0
3,69,88,0
3,70,75,0
3,74,82,0
3,74,91,96
3,74,94,96
3,75,89,0
3,74,91,0
3,75,83,0
3,74,88,0
3,75,84,0
3,74,86,0
3,75,86,0
3,74,91,0
3,70,77,0
3,67,91,0
3,74,86,0
3,72,88,0
3,74,83,0
3,72,82,0
3,74,80,0
3,72,84,0
3,74,81,0
3,72,88,0
3,74,86,0
3,72,91,0
3,74,88,0
3,75,92,0
3,77,94,0
3,77,98,192
3,70,65,0
3,70,71,0
3,70,67,96
3,72,76,0
3,74,82,0
3,75,87,0
3,77,89,0
3,77,83,192
3,70,49,0
3,70,74,0
3,70,68,96
3,72,75,0
3,74,79,0
3,75,82,0
3,77,92,0
3,77,100,192
3,70,63,0
3,70,75,0
3,79,91,96
3,77,91,0
3,70,83,0
3,72,84,0
3,74,86,96
3,75,91,0
3,74,91,0
3,75,88,0
3,74,87,0
3,75,89,0
3,74,91,0
3,75,73,0
3,77,85,0
3,77,92,192
3,70,65,0
3,70,70,0
3,70,68,96
3,72,75,0
3,74,81,0
3,75,87,0
3,77,94,0
3,77,83,192
3,70,67,0
3,70,70,0
3,70,70,96
3,72,77,0
3,74,81,0
3,75,88,0
3,77,91,0
3,77,98,192
3,70,67,0
3,70,70,0
3,79,86,96
3,77,88,0
3,70,82,0
3,72,73,0
3,74,83,0
3,75,89,0
3,74,91,0
3,75,84,0
3,74,88,0
3,75,88,0
3,74,83,0
3,75,85,0
3,77,85,0
3,77,83,192
3,70,52,0
3,70,66,0
3,70,58,96
3,72,65,0
3,74,75,288
3,75,80,0
3,77,83,0
3,77,83,240
3,70,52,0
3,70,58,0
3,70,56,96
3,72,66,0
3,74,79,0
3,75,83,0
3,77,64,0
3,77,88,192
3,70,58,0
3,70,63,0
3,70,69,96
3,72,70,0
3,73,88,2112
3,73,80,0
3,72,91,0
3,73,84,0
3,72,86,0
3,73,85,0
3,72,86,0
3,73,86,0
3,72,82,0
3,68,83,0
3,65,86,0
3,73,84,0
3,72,91,0
3,73,81,0
3,72,75,0
3,73,70,0
3,72,87,0
3,73,79,0
3,72,88,0
3,73,86,0
3,72,91,0
3,73,86,0
3,77,87,0
3,77,85,0
3,77,94,96
3,78,86,0
3,77,81,0
3,78,61,0
3,77,91,0
3,78,81,0
3,77,91,0
3,78,85,0
3,77,87,0
3,73,80,0
3,70,76,0
3,77,79,0
3,75,85,0
3,77,89,0
3,75,80,0
3,77,81,0
3,75,79,0
3,77,83,0
3,75,80,0
3,77,74,0
3,75,77,0
3,73,70,0
3,77,80,0
3,77,83,0
3,75,58,0
3,73,86,0
3,73,83,0
3,72,76,0
3,73,81,0
3,72,86,0
3,73,76,0
3,72,82,0
3,73,76,0
3,72,88,0
3,68,85,0
3,65,79,0
3,73,82,0
3,72,92,0
3,73,82,0
3,72,82,0
3,73,77,0
3,72,81,0
3,73,74,0
3,72,85,0
3,73,83,0
3,72,84,0
3,73,81,0
3,77,75,0
3,77,84,0
3,77,91,96
3,78,80,0
3,77,86,0
3,78,71,0
3,77,85,0
3,78,75,0
3,77,87,0
3,78,82,0
3,77,91,0
3,73,70,0
3,70,69,0
3,77,86,192
3,75,83,0
3,77,74,0
3,75,81,0
3,77,75,0
3,75,77,0
3,77,83,0
3,75,81,0
3,77,84,0
3,75,79,0
3,77,85,96
3,78,92,0
3,80,91,0
3,80,94,192
3,73,80,0
3,73,76,0
3,73,77,96
3,75,86,0
3,77,91,0
3,78,85,0
3,80,88,0
3,80,98,192
3,73,72,0
3,73,76,0
3,73,82,96
3,75,74,0
3,77,83,288
3,78,86,0
3,80,84,0
3,80,89,96
3,73,72,0
3,73,73,0
3,82,89,96
3,80,84,0
3,73,83,0
3,75,83,0
3,77,79,96
3,78,91,0
3,77,91,0
3,78,87,0
3,77,91,0
3,78,83,0
3,77,88,0
3,78,83,0
3,80,91,0
3,80,91,192
3,73,80,0
3,73,81,0
3,73,81,96
3,75,81,0
3,77,88,0
3,78,83,0
3,80,86,0
3,80,91,192
3,73,70,0
3,73,82,0
3,73,75,96
3,75,85,0
3,77,83,0
3,78,82,0
3,80,85,0
3,80,94,192
3,80,91,0
3,73,72,0
3,73,83,0
3,82,88,96
3,80,89,0
3,82,89,0
3,73,89,0
3,77,89,144
3,78,84,48
3,77,88,0
3,78,87,0
3,77,94,0
3,78,80,0
3,80,91,96
3,85,86,0
3,84,91,0
3,84,91,96
3,85,86,0
3,85,85,0
3,85,84,96
3,84,91,0
3,85,91,0
3,80,81,0
3,77,85,96
3,78,77,0
3,77,77,96
3,78,83,48
3,77,79,0
3,80,76,48
3,80,83,96
3,85,86,0
3,84,92,0
3,84,89,96
3,85,88,0
3,85,73,0
3,84,85,0
3,87,94,0
3,85,82,0
3,80,88,0
3,77,82,0
3,78,88,0
3,77,86,0
3,78,85,0
3,77,85,0
3,78,86,0
3,77,85,0
3,78,83,0
3,80,86,0
3,80,88,192
3,73,69,0
3,73,72,0
3,73,68,96
3,75,76,0
3,77,85,0
3,78,83,0
3,80,86,0
3,80,87,192
3,73,74,0
3,73,75,0
3,73,80,96
3,75,74,0
3,77,77,0
3,78,77,0
3,80,84,0
3,80,94,192
3,73,72,0
3,73,83,0
3,82,88,96
3,80,89,0
3,82,89,0
3,73,89,0
3,77,89,144
3,78,88,48
3,77,91,0
3,78,86,0
3,77,91,0
3,78,83,0
3,77,91,0
3,78,85,0
3,80,84,0
3,80,83,192
3,73,70,0
3,73,72,0
3,73,74,96
3,75,77,0
3,77,82,0
3,78,79,0
3,80,81,0
3,80,91,192
3,73,67,0
3,73,79,0
3,73,69,96
3,75,75,0
3,77,84,0
3,78,81,0
3,80,82,0
3,80,94,192
3,73,72,0
3,73,83,0
3,82,88,96
3,80,89,0
3,82,89,0
3,73,89,0
3,77,89,144
3,78,91,48
3,77,91,0
3,78,87,0
3,77,91,0
3,78,83,0
3,77,88,0
3,78,83,0
3,80,91,0
3,80,94,192
3,73,80,0
3,73,76,0
3,73,77,96
3,75,86,0
3,77,91,0
3,78,85,0
3,80,88,0
3,80,98,192
3,73,72,0
3,73,76,0
3,73,82,96
3,75,74,0
3,77,83,288
3,78,86,0
3,80,84,0
3,80,94,96
3,73,72,0
3,73,83,0
3,82,88,96
3,80,89,0
3,82,89,0
3,73,89,0
3,77,89,144
3,78,91,48
3,77,91,0
3,78,87,0
3,77,91,0
3,78,83,0
3,77,88,0
3,78,83,0
3,80,91,0
3,80,94,192
3,73,80,0
3,73,76,0
3,73,77,96
3,75,86,0
3,77,91,0
3,78,85,0
3,80,88,0
3,80,98,192
3,73,72,0
3,73,76,0
3,73,82,96
3,75,74,0
3,77,83,288
3,78,86,0
3,80,84,0
3,80,94,96
3,73,72,0
3,73,83,0
3,82,88,96
3,80,89,0
3,82,89,0
3,73,89,0
3,77,89,144
3,78,91,48
3,77,91,0
3,78,87,0
3,77,91,0
3,78,83,0
3,77,88,0
3,78,83,0
3,80,91,0
3,80,94,192
3,73,80,0
3,73,76,0
4,70,86,0
4,50,46,0
4,53,61,0
4,58,45,0
4,70,88,96
4,70,91,144
4,72,98,48
4,50,54,32
4,55,67,0
4,58,42,0
4,69,94,0
4,70,62,0
4,62,88,96
4,69,92,48
4,70,94,0
4,62,91,0
4,51,52,0
4,58,52,0
4,55,73,0
4,65,96,0
4,65,94,144
4,65,94,192
4,63,88,0
4,67,92,0
4,65,98,288
4,53,71,48
4,72,94,0
4,48,61,0
4,57,58,0
4,74,88,245
4,65,91,0
4,72,92,0
4,74,92,0
4,65,92,0
4,70,86,0
4,50,46,0
4,53,61,0
4,58,45,0
4,70,88,96
4,70,91,144
4,72,98,48
4,50,54,32
4,55,67,0
4,58,42,0
4,69,94,0
4,70,62,0
4,62,88,96
4,69,92,48
4,70,94,0
4,62,91,0
4,51,52,0
4,58,52,0
4,55,73,0
4,65,96,0
4,65,94,144
4,65,94,192
4,63,88,0
4,67,92,0
4,65,98,288
4,53,71,48
4,72,94,0
4,48,61,0
4,57,58,0
4,74,88,245
4,65,91,0
4,72,92,0
4,74,92,0
4,65,92,0
4,50,49,0
4,53,69,0
4,58,52,0
4,70,86,0
4,70,94,96
4,70,94,96
4,72,94,0
4,70,94,192
4,55,72,0
4,69,100,0
4,58,49,0
4,50,49,0
4,70,92,0
4,62,94,0
4,69,94,0
4,70,88,0
4,62,94,0
4,55,72,0
4,58,59,0
4,65,96,0
4,51,55,0
4,65,94,144
4,65,91,144
4,63,84,0
4,67,88,0
4,65,100,288
4,53,68,0
4,48,60,0
4,72,91,0
4,57,58,0
4,74,89,0
4,65,91,0
4,72,96,0
4,74,87,0
4,75,107,48
4,77,103,0
4,53,75,96
4,58,61,0
4,50,61,0
4,77,103,0
4,70,82,96
4,77,89,0
4,70,80,0
4,72,94,48
4,53,59,96
4,48,65,0
4,57,63,0
4,74,100,144
4,75,91,0
4,77,98,192
4,58,58,12
4,50,65,0
4,77,92,0
4,55,73,0
4,70,80,96
4,77,98,0
4,70,87,0
4,72,92,48
4,50,63,96
4,53,67,0
4,57,54,0
4,74,91,144
4,75,86,48
4,77,102,0
4,58,62,8
4,51,55,0
4,77,100,0
4,55,70,0
4,70,85,96
4,77,94,0
4,79,100,48
4,77,103,96
4,58,54,5
4,50,67,0
4,53,69,0
4,70,91,240
4,72,102,0
4,74,89,0
4,55,69,96
4,58,53,0
4,75,94,0
4,51,45,0
4,74,94,0
4,75,94,0
4,74,96,144
4,75,94,0
4,53,63,96
4,48,61,0
4,57,62,0
4,74,94,96
4,75,105,0
4,77,100,0
4,58,59,24
4,53,68,0
4,77,100,0
4,50,67,0
4,70,86,96
4,77,94,0
4,70,87,0
4,72,94,96
4,53,69,96
4,48,66,0
4,57,56,0
4,74,94,144
4,75,98,0
4,77,96,0
4,55,69,8
4,58,61,0
4,50,68,0
4,77,94,0
4,70,86,96
4,77,98,0
4,70,83,48
4,72,96,96
4,50,61,96
4,53,73,0
4,57,56,0
4,74,94,144
4,75,98,0
4,77,94,0
4,77,91,5
4,55,76,0
4,58,63,0
4,51,56,0
4,70,85,48
4,77,94,0
4,79,105,96
4,77,94,96
4,50,54,96
4,58,54,0
4,53,71,0
4,70,89,240
4,72,98,0
4,74,86,144
4,58,64,48
4,55,74,0
4,75,100,0
4,51,55,0
4,74,88,48
4,75,91,0
4,74,87,0
4,75,94,96
4,53,64,96
4,48,66,0
4,57,66,0
4,74,94,144
4,75,98,0
4,77,100,0
4,77,88,47
4,50,66,0
4,53,67,0
4,58,59,0
4,70,86,48
4,77,92,0
4,70,85,48
4,72,94,48
4,48,63,96
4,53,71,0
4,57,56,0
4,74,94,144
4,75,91,0
4,77,96,0
4,58,52,16
4,55,71,0
4,50,64,0
4,77,96,0
4,70,84,96
4,77,96,0
4,70,87,96
4,72,89,96
4,50,53,96
4,53,69,0
4,57,56,0
4,74,94,144
4,75,91,0
4,77,94,192
4,51,58,12
4,58,58,0
4,55,79,0
4,77,94,0
4,70,84,96
4,77,94,0
4,70,83,48
4,72,94,96
4,53,68,96
4,50,56,0
4,57,49,0
4,74,94,144
4,75,87,0
4,77,88,0
4,51,50,8
4,54,67,0
4,77,92,0
4,58,54,0
4,70,86,144
4,77,98,0
4,70,84,48
4,49,61,31
4,54,64,0
4,58,49,0
4,78,88,0
4,56,56,272
4,53,68,0
4,49,58,0
4,73,79,5
4,73,67,48
4,72,96,48
4,73,87,0
4,72,92,0
4,73,92,0
4,72,92,0
4,73,100,0
4,72,80,0
4,68,88,96
4,65,91,0
4,73,98,0
4,72,102,48
4,53,79,21
4,58,72,0
4,49,65,0
4,73,88,48
4,72,100,0
4,73,87,0
4,72,100,0
4,73,94,0
4,72,94,0
4,73,89,0
4,72,94,0
4,73,96,0
4,77,100,0
4,77,105,96
4,77,88,16
4,49,54,0
4,54,72,0
4,58,61,0
4,78,91,0
4,77,86,96
4,78,66,0
4,77,96,0
4,78,91,0
4,77,98,0
4,78,91,0
4,73,85,0
4,70,96,0
4,77,94,0
4,75,98,48
4,56,73,96
4,51,60,0
4,60,77,0
4,77,84,0
4,75,91,0
4,77,91,0
4,75,85,0
4,77,91,0
4,75,91,0
4,77,94,0
4,75,91,0
4,73,88,0
4,77,87,96
4,73,98,144
4,72,85,0
4,56,70,0
4,53,79,0
4,49,64,0
4,73,92,0
4,72,89,0
4,73,85,48
4,72,91,0
4,73,81,0
4,72,91,0
4,73,91,0
4,72,96,0
4,68,85,48
4,65,102,0
4,73,96,96
4,68,100,0
4,72,96,96
4,58,71,96
4,53,81,0
4,49,62,0
4,73,87,48
4,72,94,0
4,73,88,0
4,72,100,0
4,73,91,0
4,72,98,48
4,73,94,0
4,72,94,0
4,73,91,0
4,77,105,0
4,77,89,48
4,77,87,144
4,49,63,96
4,54,58,0
4,58,50,0
4,78,88,48
4,77,98,96
4,78,74,0
4,77,98,0
4,78,86,0
4,77,91,0
4,78,88,0
4,77,102,0
4,73,86,0
4,70,89,0
4,77,100,0
4,75,94,48
4,56,67,96
4,51,79,0
4,60,82,0
4,77,82,0
4,75,92,0
4,77,91,0
4,75,91,0
4,77,87,0
4,75,89,0
4,77,88,0
4,75,94,96
4,77,100,0
4,78,100,96
4,80,94,0
4,56,61,240
4,53,74,0
4,49,61,0
4,80,89,0
4,73,86,0
4,73,84,48
4,73,87,0
4,75,102,48
4,51,72,96
4,48,79,0
4,56,76,0
4,77,98,48
4,78,102,0
4,80,87,0
4,58,64,240
4,53,74,0
4,80,89,0
4,49,62,0
4,73,86,0
4,73,82,48
4,73,96,48
4,75,100,48
4,56,73,96
4,53,73,0
4,48,72,0
4,77,102,0
4,78,105,0
4,80,89,0
4,58,70,21
4,54,73,0
4,49,69,0
4,80,100,0
4,73,86,48
4,73,91,48
4,82,94,0
4,80,103,144
4,56,67,96
4,53,85,0
4,49,68,0
4,73,100,144
4,75,98,96
4,77,98,48
4,54,85,96
4,58,85,0
4,51,85,0
4,78,107,0
4,77,102,0
4,78,100,0
4,77,107,192
4,78,100,0
4,51,59,96
4,56,82,0
4,48,85,0
4,77,94,0
4,78,100,48
4,80,88,48
4,56,71,12
4,53,85,0
4,80,100,0
4,49,65,0
4,73,82,0
4,73,96,48
4,73,94,96
4,75,102,48
4,48,77,96
4,56,81,0
4,51,80,0
4,77,91,0
4,78,103,48
4,80,91,144
4,73,64,144
4,77,83,0
4,58,74,0
4,49,69,0
4,53,76,0
4,80,94,0
4,73,88,0
4,73,88,48
4,73,94,48
4,75,92,48
4,56,67,96
4,51,83,0
4,60,85,0
4,77,94,0
4,78,100,0
4,80,100,96
4,58,69,15
4,54,70,0
4,80,98,0
4,49,61,0
4,73,84,96
4,73,91,48
4,82,98,48
4,80,103,96
4,49,67,0
4,56,73,0
4,53,84,0
4,77,96,336
4,54,83,0
4,58,81,0
4,51,77,0
4,78,102,0
4,77,98,0
4,78,103,0
4,77,103,0
