track,note,velocity,time
1,82,60,480
1,53,60,0
1,53,0,30
1,82,0,0
1,82,40,0
1,82,0,0
1,82,40,30
1,82,0,0
1,82,40,30
1,82,0,0
1,82,60,30
1,82,0,0
1,82,40,30
1,82,0,0
1,53,25,0
1,53,0,30
1,82,40,0
1,82,0,0
1,53,32,0
1,53,0,0
1,82,40,30
1,82,0,0
1,53,42,0
1,53,0,0
1,82,60,30
1,82,0,0
1,53,52,0
1,53,0,0
1,82,40,30
1,82,0,0
1,82,40,30
1,82,0,0
1,82,40,30
1,82,0,0
1,53,40,0
1,53,0,15
1,82,60,15
1,82,0,0
1,82,40,30
1,82,0,0
1,82,40,30
1,82,0,0
1,53,55,0
1,53,0,15
1,82,40,15
1,82,0,0
1,82,60,30
1,82,0,0
1,53,65,0
1,53,0,15
1,82,40,15
1,82,0,0
1,82,40,30
1,82,0,0
1,82,40,30
1,82,0,0
1,82,60,30
1,82,0,0
1,82,40,30
1,82,0,0
1,82,40,30
1,82,0,0
1,53,40,0
1,53,0,10
1,53,44,10
1,53,0,9
1,82,40,1
1,82,0,0
1,53,49,10
1,53,0,9
1,82,60,11
1,82,0,0
1,53,54,0
1,82,40,30
1,82,0,0
1,53,0,13
1,82,40,17
1,82,0,0
1,82,40,30
1,82,0,0
1,82,60,30
1,82,0,0
1,82,40,30
1,82,0,0
1,82,40,30
1,82,0,0
1,82,40,30
1,82,0,0
1,82,60,30
1,82,0,0
1,53,54,3
1,53,0,22
1,82,40,5
1,82,0,0
1,82,40,30
1,82,0,0
1,82,40,30
1,82,0,0
1,82,60,30
1,82,0,0
1,82,40,30
1,82,0,0
1,82,40,30
1,82,0,0
1,82,40,30
1,82,0,0
1,53,20,29
1,82,60,1
1,82,0,0
1,53,0,12
1,53,28,7
1,82,40,11
1,82,0,0
1,53,0,1
1,53,36,9
1,53,0,15
1,53,44,4
1,82,40,1
1,82,0,0
1,53,0,10
1,53,53,10
1,82,40,10
1,82,0,0
1,53,0,1
1,53,61,9
1,53,0,11
1,82,60,9
1,53,70,0
1,53,0,16
1,82,0,14
1,82,40,0
1,82,0,0
1,82,40,30
1,82,0,0
1,82,40,30
1,82,0,0
1,82,60,30
1,82,0,0
1,82,40,30
1,82,0,0
1,82,40,30
1,82,0,0
1,82,40,30
1,82,0,0
1,82,60,30
1,82,0,0
1,82,40,30
1,82,0,0
1,82,40,30
1,82,0,0
1,82,40,30
1,82,0,0
1,82,60,30
1,82,0,0
1,82,40,30
1,82,0,0
1,82,40,30
1,82,0,0
1,82,40,30
1,82,0,0
1,82,60,30
1,82,0,0
1,82,40,30
1,82,0,0
1,82,40,30
1,82,0,0
1,82,40,30
1,82,0,0
1,82,60,30
1,82,0,0
1,82,40,30
1,82,0,0
1,82,40,30
1,82,0,0
1,82,40,30
1,82,0,0
1,82,60,30
1,82,0,0
1,82,40,30
1,82,0,0
1,82,40,30
1,82,0,0
1,82,40,30
1,82,0,0
1,82,60,30
1,82,0,0
1,82,40,30
1,82,0,0
1,82,40,30
1,82,0,0
1,82,40,30
1,82,0,0
1,82,60,30
1,82,0,0
1,82,40,30
1,82,0,0
1,82,40,30
1,82,0,0
1,82,40,30
1,82,0,0
1,82,60,30
1,82,0,0
1,82,40,30
1,82,0,0
1,82,40,30
1,82,0,0
1,82,40,30
1,82,0,0
1,82,60,30
1,82,0,0
1,82,40,30
1,82,0,0
1,82,40,30
1,82,0,0
1,82,40,30
1,82,0,0
1,82,60,30
1,82,0,0
1,82,40,30
1,82,0,0
1,82,40,30
1,82,0,0
1,82,40,30
1,82,0,0
1,82,60,30
1,82,0,0
1,82,40,30
1,82,0,0
1,82,40,30
1,82,0,0
1,82,40,30
1,82,0,0
1,82,60,30
1,82,0,0
1,82,40,30
1,82,0,0
1,82,40,30
1,82,0,0
1,82,40,30
1,82,0,0
1,82,60,30
1,82,0,0
1,82,40,30
1,82,0,0
1,82,40,30
1,82,0,0
1,82,40,30
1,82,0,0
1,82,60,30
1,82,0,0
1,82,40,30
1,82,0,0
1,82,40,30
1,82,0,0
1,82,40,30
1,82,0,0
1,82,60,30
1,82,0,0
1,82,40,30
1,82,0,0
1,82,40,30
1,82,0,0
1,82,40,30
1,82,0,0
1,82,60,30
1,82,0,0
1,82,40,30
1,82,0,0
1,82,40,30
1,82,0,0
1,82,40,30
1,82,0,0
1,82,60,30
1,82,0,0
1,82,40,30
1,82,0,0
1,82,40,30
1,82,0,0
1,82,40,30
1,82,0,0
1,82,60,30
1,82,0,0
1,82,40,30
1,82,0,0
1,82,40,30
1,82,0,0
1,82,40,30
1,82,0,0
1,82,60,30
1,82,0,0
1,82,40,30
1,82,0,0
1,82,40,30
1,82,0,0
1,82,40,30
1,82,0,0
1,82,60,30
1,82,0,0
1,82,40,30
1,82,0,0
1,82,40,30
1,82,0,0
1,82,40,30
1,82,0,0
1,82,60,30
1,82,0,0
1,82,40,30
1,82,0,0
1,82,40,30
1,82,0,0
1,82,40,30
1,82,0,0
1,82,60,30
1,82,0,0
1,82,40,30
1,82,0,0
1,82,40,30
1,82,0,0
1,82,40,30
1,82,0,0
1,82,60,30
1,82,0,0
1,82,40,30
1,82,0,0
1,82,40,30
1,82,0,0
1,82,40,30
1,82,0,0
1,82,60,30
1,82,0,0
1,82,40,30
1,82,0,0
1,82,40,30
1,82,0,0
1,82,40,30
1,82,0,0
1,82,60,30
1,82,0,0
1,82,40,30
1,82,0,0
1,82,40,30
1,82,0,0
1,82,40,30
1,82,0,0
1,82,60,30
1,82,0,0
1,82,40,30
1,82,0,0
1,82,40,30
1,82,0,0
1,82,40,30
1,82,0,0
1,82,60,30
1,82,0,0
1,82,40,30
1,82,0,0
1,82,40,30
1,82,0,0
1,82,40,30
1,82,0,0
1,82,60,30
1,82,0,0
1,82,40,30
1,82,0,0
1,82,40,30
1,82,0,0
1,82,40,30
1,82,0,0
1,82,60,30
1,82,0,0
1,82,40,30
1,82,0,0
1,82,40,30
1,82,0,0
1,82,40,30
1,82,0,0
1,82,60,30
1,82,0,0
1,82,40,30
1,82,0,0
1,82,40,30
1,82,0,0
1,82,40,30
1,82,0,0
1,82,60,30
1,82,0,0
1,82,40,30
1,82,0,0
1,82,40,30
1,82,0,0
1,82,40,30
1,82,0,0
1,82,60,30
1,82,0,0
1,82,40,30
1,82,0,0
1,82,40,30
1,82,0,0
1,82,40,30
1,82,0,0
1,82,60,30
1,82,0,0
1,82,40,30
1,82,0,0
1,82,40,30
1,82,0,0
1,82,40,30
1,82,0,0
1,36,70,30
1,42,61,0
1,36,0,15
1,42,0,15
1,42,41,0
1,42,0,0
1,42,37,30
1,42,0,0
1,42,37,30
1,42,0,0
1,37,80,30
1,42,58,0
1,42,0,0
1,37,0,15
1,42,37,15
1,42,0,0
1,42,35,30
1,42,0,0
1,42,33,30
1,42,0,0
1,36,70,30
1,42,59,0
1,42,0,0
1,36,0,15
1,42,36,15
1,42,0,0
1,42,34,30
1,42,0,0
1,42,33,30
1,42,0,0
1,37,80,30
1,42,60,0
1,42,0,0
1,37,0,15
1,42,38,15
1,42,0,0
1,42,38,30
1,42,0,0
1,42,38,30
1,42,0,0
1,36,70,30
1,42,61,0
1,42,0,0
1,36,0,15
1,42,41,15
1,42,0,0
1,42,37,30
1,42,0,0
1,42,37,30
1,42,0,0
1,37,80,30
1,42,58,0
1,42,0,0
1,37,0,15
1,42,37,15
1,42,0,0
1,42,35,30
1,42,0,0
1,42,33,30
1,42,0,0
1,36,70,30
1,42,59,0
1,42,0,0
1,36,0,15
1,42,36,15
1,42,0,0
1,42,34,30
1,42,0,0
1,42,33,30
1,42,0,0
1,37,80,30
1,42,60,0
1,42,0,0
1,37,0,15
1,42,38,15
1,42,0,0
1,42,38,30
1,42,0,0
1,42,38,30
1,42,0,0
1,36,70,30
1,42,61,0
1,42,0,0
1,36,0,15
1,42,41,15
1,42,0,0
1,42,37,30
1,42,0,0
1,42,37,30
1,42,0,0
1,37,80,30
1,42,58,0
1,42,0,0
1,37,0,15
1,42,37,15
1,42,0,0
1,42,35,30
1,42,0,0
1,42,33,30
1,42,0,0
1,36,70,30
1,42,59,0
1,42,0,0
1,36,0,15
1,42,36,15
1,42,0,0
1,42,34,30
1,42,0,0
1,42,33,30
1,42,0,0
1,37,80,30
1,42,60,0
1,42,0,0
1,37,0,15
1,42,38,15
1,42,0,0
1,42,38,30
1,42,0,0
1,42,38,30
1,42,0,0
1,36,70,30
1,42,61,0
1,42,0,0
1,36,0,15
1,42,41,15
1,42,0,0
1,42,37,30
1,42,0,0
1,42,37,30
1,42,0,0
1,37,80,30
1,42,58,0
1,42,0,0
1,37,0,15
1,42,37,15
1,42,0,0
1,42,35,30
1,42,0,0
1,42,33,30
1,42,0,0
1,36,70,30
1,42,59,0
1,42,0,0
1,36,0,15
1,42,36,15
1,42,0,0
1,42,34,30
1,42,0,0
1,42,33,30
1,42,0,0
1,37,80,30
1,42,60,0
1,42,0,0
1,37,0,15
1,42,38,15
1,42,0,0
1,42,38,30
1,42,0,0
1,42,38,30
1,42,0,0
1,55,70,30
1,36,70,0
1,42,61,0
1,42,0,0
1,36,0,15
1,55,0,0
1,42,41,15
1,42,0,0
1,42,37,30
1,42,0,0
1,42,37,30
1,42,0,0
1,37,80,30
1,42,58,0
1,42,0,0
1,37,0,15
1,42,37,15
1,42,0,0
1,42,35,30
1,42,0,0
1,42,33,30
1,42,0,0
1,36,70,30
1,42,59,0
1,42,0,0
1,36,0,15
1,42,36,15
1,42,0,0
1,42,34,30
1,42,0,0
1,42,33,30
1,42,0,0
1,37,80,30
1,42,60,0
1,42,0,0
1,37,0,15
1,42,38,15
1,42,0,0
1,42,38,30
1,42,0,0
1,42,38,30
1,42,0,0
1,36,70,30
1,42,61,0
1,42,0,0
1,36,0,15
1,42,41,15
1,42,0,0
1,42,37,30
1,42,0,0
1,42,37,30
1,42,0,0
1,37,80,30
1,42,58,0
1,42,0,0
1,37,0,15
1,42,37,15
1,42,0,0
1,42,35,30
1,42,0,0
1,42,33,30
1,42,0,0
1,36,70,30
1,42,59,0
1,42,0,0
1,36,0,15
1,42,36,15
1,42,0,0
1,42,34,30
1,42,0,0
1,42,33,30
1,42,0,0
1,37,80,30
1,42,60,0
1,42,0,0
1,37,0,15
1,42,38,15
1,42,0,0
1,42,38,30
1,42,0,0
1,42,38,30
1,42,0,0
1,36,70,30
1,42,61,0
1,42,0,0
1,36,0,15
1,42,41,15
1,42,0,0
1,42,37,30
1,42,0,0
1,42,37,30
1,42,0,0
1,37,80,30
1,42,58,0
1,42,0,0
1,37,0,15
1,42,37,15
1,42,0,0
1,42,35,30
1,42,0,0
1,42,33,30
1,42,0,0
1,36,70,30
1,42,59,0
1,42,0,0
1,36,0,15
1,42,36,15
1,42,0,0
1,42,34,30
1,42,0,0
1,42,33,30
1,42,0,0
1,37,80,30
1,42,60,0
1,42,0,0
1,37,0,15
1,42,38,15
1,42,0,0
1,42,38,30
1,42,0,0
1,42,38,30
1,42,0,0
1,36,70,30
1,42,61,0
1,42,0,0
1,36,0,15
1,42,41,15
1,42,0,0
1,42,37,30
1,42,0,0
1,42,37,30
1,42,0,0
1,37,80,30
1,42,58,0
1,42,0,0
1,37,0,15
1,42,37,15
1,42,0,0
1,42,35,30
1,42,0,0
1,42,33,30
1,42,0,0
1,36,70,30
1,42,59,0
1,42,0,0
1,36,0,15
1,42,36,15
1,42,0,0
1,42,34,30
1,42,0,0
1,42,33,30
1,42,0,0
1,37,80,30
1,42,60,0
1,42,0,0
1,37,0,15
1,42,38,15
1,42,0,0
1,42,38,30
1,42,0,0
1,42,38,30
1,42,0,0
1,36,70,30
1,42,61,0
1,42,0,0
1,36,0,15
1,42,41,15
1,42,0,0
1,42,37,30
1,42,0,0
1,42,37,30
1,42,0,0
1,37,80,30
1,42,58,0
1,42,0,0
1,37,0,15
1,42,37,15
1,42,0,0
1,42,35,30
1,42,0,0
1,42,33,30
1,42,0,0
1,36,70,30
1,42,59,0
1,42,0,0
1,36,0,15
1,42,36,15
1,42,0,0
1,42,34,30
1,42,0,0
1,42,33,30
1,42,0,0
1,37,80,30
1,42,60,0
1,42,0,0
1,37,0,15
1,42,38,15
1,42,0,0
1,42,38,30
1,42,0,0
1,42,38,30
1,42,0,0
1,36,70,30
1,42,61,0
1,42,0,0
1,36,0,15
1,42,41,15
1,42,0,0
1,42,37,30
1,42,0,0
1,42,37,30
1,42,0,0
1,37,80,30
1,42,58,0
1,42,0,0
1,37,0,15
1,42,37,15
1,42,0,0
1,42,35,30
1,42,0,0
1,42,33,30
1,42,0,0
1,49,58,30
1,36,70,0
1,42,59,0
1,42,0,0
1,36,0,15
1,49,0,0
1,42,36,15
1,42,0,0
1,42,34,30
1,42,0,0
1,42,33,30
1,42,0,0
1,55,60,30
1,37,80,0
1,42,60,0
1,42,0,0
1,37,0,15
1,55,0,0
1,42,38,15
1,42,0,0
1,42,38,30
1,42,0,0
1,42,38,30
1,42,0,0
1,36,70,30
1,42,61,0
1,42,0,0
1,57,58,0
1,57,0,15
1,36,0,0
1,42,41,15
1,42,0,0
1,42,37,30
1,42,0,0
1,42,37,30
1,42,0,0
1,37,80,30
1,42,58,0
1,42,0,0
1,37,0,15
1,42,37,15
1,42,0,0
1,42,35,30
1,42,0,0
1,42,33,30
1,42,0,0
1,36,70,30
1,42,59,0
1,42,0,0
1,36,0,15
1,42,36,15
1,42,0,0
1,42,34,30
1,42,0,0
1,42,33,30
1,42,0,0
1,37,80,30
1,42,60,0
1,42,0,0
1,37,0,15
1,42,38,15
1,42,0,0
1,42,38,30
1,42,0,0
1,42,38,30
1,42,0,0
1,36,70,30
1,42,61,0
1,42,0,0
1,36,0,15
1,42,41,15
1,42,0,0
1,42,37,30
1,42,0,0
1,42,37,30
1,42,0,0
1,37,80,30
1,42,58,0
1,42,0,0
1,37,0,15
1,42,37,15
1,42,0,0
1,42,35,30
1,42,0,0
1,42,33,30
1,42,0,0
1,36,70,30
1,42,59,0
1,42,0,0
1,36,0,15
1,42,36,15
1,42,0,0
1,42,34,30
1,42,0,0
1,42,33,30
1,42,0,0
1,37,80,30
1,42,60,0
1,42,0,0
1,37,0,15
1,42,38,15
1,42,0,0
1,42,38,30
1,42,0,0
1,42,38,30
1,42,0,0
1,36,70,30
1,42,61,0
1,42,0,0
1,36,0,15
1,42,41,15
1,42,0,0
1,42,37,30
1,42,0,0
1,42,37,30
1,42,0,0
1,37,80,30
1,42,58,0
1,42,0,0
1,37,0,15
1,42,37,15
1,42,0,0
1,42,35,30
1,42,0,0
1,42,33,30
1,42,0,0
1,36,70,30
1,42,59,0
1,42,0,0
1,36,0,15
1,42,36,15
1,42,0,0
1,46,52,30
1,46,0,30
1,42,30,30
1,42,0,30
1,42,44,0
1,42,0,0
1,46,59,30
1,46,0,30
1,36,70,30
1,55,61,0
1,36,0,15
1,55,0,15
1,42,41,0
1,42,0,30
1,42,37,0
1,42,0,0
1,42,37,30
1,42,0,0
1,37,80,30
1,42,58,0
1,42,0,0
1,37,0,15
1,42,37,15
1,42,0,0
1,42,35,30
1,42,0,0
1,42,33,30
1,42,0,0
1,36,70,30
1,42,59,0
1,42,0,0
1,36,0,15
1,42,36,15
1,42,0,0
1,42,34,30
1,42,0,0
1,42,33,30
1,42,0,0
1,37,80,30
1,42,60,0
1,42,0,0
1,37,0,15
1,42,38,15
1,42,0,0
1,42,38,30
1,42,0,0
1,42,38,30
1,42,0,0
1,36,70,30
1,42,61,0
1,42,0,0
1,36,0,15
1,42,41,15
1,42,0,0
1,42,37,30
1,42,0,0
1,42,37,30
1,42,0,0
1,37,80,30
1,42,58,0
1,42,0,0
1,37,0,15
1,42,37,15
1,42,0,0
1,42,35,30
1,42,0,0
1,42,33,30
1,42,0,0
1,36,70,30
1,42,59,0
1,42,0,0
1,36,0,15
1,42,36,15
1,42,0,0
1,42,34,30
1,42,0,0
1,42,33,30
1,42,0,0
