track,note,velocity,time
0,48,102,239
0,55,93,24
0,55,96,35
0,62,104,0
0,55,96,29
0,60,109,1
0,46,99,0
0,60,109,0
0,62,112,1
0,55,99,0
0,62,116,1
0,55,99,19
0,62,106,0
0,62,114,0
0,63,111,1
0,55,94,0
0,63,118,1
0,44,101,0
0,55,91,11
0,55,104,35
0,62,107,0
0,55,94,31
0,63,111,3
0,63,112,8
0,46,98,0
0,62,116,1
0,55,102,0
0,60,109,1
0,55,98,17
0,62,104,0
0,60,114,1
0,55,96,4
0,60,114,1
0,36,84,36
0,35,110,0
0,42,60,0
0,48,99,0
0,42,60,5
0,70,65,0
0,55,93,1
0,70,65,11
0,40,86,21
0,42,60,0
0,70,65,0
0,55,99,1
0,62,104,0
0,42,60,30
0,55,101,1
0,34,82,24
0,35,110,0
0,42,60,0
0,70,65,0
0,46,102,0
0,70,65,0
0,34,82,9
0,35,110,0
0,42,60,0
0,70,65,0
0,55,96,1
0,40,88,35
0,42,60,0
0,55,102,1
0,62,106,0
0,42,60,30
0,70,65,0
0,55,98,1
0,70,65,11
0,42,60,0
0,70,65,0
0,44,104,0
0,42,60,15
0,55,91,1
0,40,88,35
0,42,60,0
0,55,101,1
0,62,106,0
0,42,60,27
0,55,98,1
0,34,76,35
0,35,110,0
0,42,60,0
0,70,65,0
0,46,96,0
0,70,65,0
0,34,84,16
0,35,110,0
0,42,60,0
0,70,65,0
0,55,98,1
0,40,92,34
0,42,60,0
0,55,102,1
0,62,102,0
0,42,60,32
0,55,94,1
0,36,78,0
0,35,110,0
0,42,60,0
0,48,99,0
0,42,60,5
0,70,65,0
0,55,93,1
0,70,65,11
0,60,109,16
0,40,86,4
0,42,60,0
0,70,65,0
0,55,99,1
0,62,104,0
0,60,109,1
0,60,109,8
0,42,60,5
0,55,101,1
0,60,109,1
0,62,109,2
0,34,78,0
0,35,110,0
0,42,60,0
0,70,65,0
0,46,102,0
0,62,109,1
0,70,65,0
0,62,109,4
0,34,85,5
0,35,110,0
0,42,60,0
0,70,65,0
0,55,96,1
0,62,109,1
0,63,114,2
0,40,88,5
0,42,60,0
0,55,102,1
0,62,106,0
0,63,114,1
0,63,116,4
0,42,60,5
0,70,65,0
0,55,98,1
0,63,116,1
0,70,65,11
0,42,60,0
0,70,65,0
0,44,104,0
0,42,60,15
0,55,91,1
0,63,118,30
0,40,88,5
0,42,60,0
0,55,101,1
0,62,106,0
0,63,118,1
0,63,118,7
0,42,60,5
0,55,98,1
0,63,118,1
0,62,112,3
0,34,74,2
0,35,110,0
0,42,60,0
0,70,65,0
0,46,96,0
0,62,112,1
0,70,65,0
0,34,80,16
0,35,110,0
0,42,60,0
0,70,65,0
0,55,98,1
0,60,114,5
0,60,114,7
0,40,92,22
0,42,60,0
0,55,102,1
0,62,102,0
0,58,112,5
0,42,60,5
0,55,94,1
0,58,112,1
0,60,104,1
0,36,80,0
0,35,110,0
0,42,60,0
0,48,99,0
0,60,104,1
0,42,60,5
0,70,65,0
0,55,93,1
0,55,101,2
0,70,65,5
0,55,101,1
0,40,86,21
0,42,60,0
0,70,65,0
0,55,99,1
0,62,104,0
0,60,109,1
0,42,60,20
0,55,101,1
0,60,109,0
0,34,83,24
0,35,110,0
0,42,60,0
0,70,65,0
0,46,102,0
0,60,109,0
0,70,65,0
0,62,112,1
0,34,85,9
0,35,110,0
0,42,60,0
0,70,65,0
0,55,96,0
0,62,116,1
0,40,88,35
0,42,60,0
0,55,102,1
0,62,106,0
0,62,114,0
0,63,111,1
0,42,60,22
0,70,65,0
0,55,98,0
0,63,118,1
0,70,65,6
0,42,60,0
0,70,65,0
0,44,104,0
0,42,60,15
0,55,91,1
0,40,88,35
0,42,60,0
0,55,101,1
0,62,106,0
0,42,60,27
0,55,98,1
0,62,116,1
0,34,81,35
0,35,110,0
0,42,60,0
0,70,65,0
0,46,96,0
0,70,65,0
0,34,79,16
0,35,110,0
0,42,60,0
0,70,65,0
0,55,98,1
0,60,109,0
0,40,92,34
0,42,60,0
0,55,102,1
0,62,102,0
0,58,114,0
0,42,60,32
0,55,94,1
0,55,114,0
0,36,82,0
0,35,110,0
0,42,60,0
0,48,99,0
0,42,60,5
0,70,65,0
0,55,93,1
0,70,65,11
0,60,109,16
0,40,86,5
0,42,60,0
0,70,65,0
0,55,99,1
0,62,104,0
0,60,109,1
0,60,109,13
0,42,60,5
0,55,101,1
0,60,109,1
0,62,109,4
0,34,79,2
0,35,110,0
0,42,60,0
0,70,65,0
0,46,102,0
0,62,109,1
0,70,65,0
0,62,107,4
0,34,83,5
0,35,110,0
0,42,60,0
0,70,65,0
0,55,96,1
0,62,107,0
0,63,112,1
0,40,88,5
0,42,60,0
0,55,102,1
0,62,106,0
0,63,112,1
0,63,112,7
0,42,60,5
0,70,65,0
0,55,98,1
0,63,112,1
0,70,65,11
0,42,60,0
0,70,65,0
0,44,104,0
0,42,60,12
0,55,91,1
0,63,112,30
0,40,88,5
0,42,60,0
0,55,101,1
0,62,106,0
0,63,112,1
0,63,111,11
0,42,60,5
0,55,98,1
0,63,111,1
0,62,111,5
0,34,74,3
0,35,110,0
0,42,60,0
0,70,65,0
0,46,96,0
0,62,111,1
0,70,65,0
0,34,80,16
0,35,110,0
0,42,60,0
0,70,65,0
0,55,98,1
0,60,109,5
0,60,109,7
0,40,92,22
0,42,60,0
0,55,102,1
0,62,102,0
0,36,78,0
0,58,114,4
0,41,85,0
0,42,60,0
0,55,94,1
0,58,114,1
0,60,107,1
0,36,77,0
0,35,110,0
0,42,60,0
0,48,99,0
0,60,107,1
0,42,60,5
0,70,65,0
0,55,93,1
0,70,65,11
0,40,86,21
0,42,60,0
0,70,65,0
0,55,99,1
0,62,104,0
0,42,60,30
0,55,101,1
0,34,79,24
0,35,110,0
0,42,60,0
0,70,65,0
0,46,102,0
0,70,65,0
0,34,78,9
0,35,110,0
0,42,60,0
0,70,65,0
0,55,96,1
0,40,88,0
0,42,60,0
0,55,102,1
0,62,106,0
0,42,60,30
0,70,65,0
0,55,98,1
0,70,65,11
0,42,60,0
0,70,65,0
0,44,104,0
0,60,111,0
0,42,60,11
0,55,91,1
0,40,88,35
0,42,60,0
0,55,101,1
0,62,106,0
0,42,60,27
0,55,98,1
0,34,81,35
0,35,110,0
0,42,60,0
0,70,65,0
0,46,96,0
0,67,70,0
0,70,65,0
0,34,83,16
0,35,110,0
0,42,60,0
0,70,65,0
0,55,98,1
0,62,59,22
0,40,92,9
0,42,60,0
0,62,116,0
0,55,102,1
0,62,102,0
0,36,76,0
0,62,116,0
0,41,76,0
0,42,60,0
0,62,116,0
0,55,94,1
0,67,104,33
0,53,76,4
0,56,82,0
0,60,93,0
0,29,85,0
0,35,110,0
0,42,60,0
0,41,96,0
0,67,104,1
0,68,101,5
0,42,60,3
0,70,65,0
0,48,96,0
0,68,101,1
0,60,69,0
0,70,65,5
0,67,106,2
0,40,86,4
0,42,60,0
0,70,65,0
0,53,94,0
0,67,106,0
0,65,90,0
0,68,106,3
0,42,60,5
0,56,101,0
0,68,106,0
0,67,97,0
0,67,106,6
0,29,74,4
0,35,110,0
0,42,60,0
0,70,65,0
0,60,99,0
0,67,106,1
0,70,65,3
0,68,107,1
0,29,81,5
0,35,110,0
0,42,60,0
0,70,65,0
0,56,81,0
0,68,107,0
0,68,95,0
0,40,88,25
0,42,60,0
0,67,104,8
0,42,60,5
0,70,65,0
0,53,81,1
0,67,104,0
0,65,58,0
0,70,65,10
0,29,76,21
0,42,60,0
0,70,65,0
0,41,96,0
0,68,116,5
0,42,60,2
0,62,59,0
0,48,96,0
0,68,116,0
0,60,78,0
0,62,59,5
0,67,106,2
0,40,88,0
0,42,60,0
0,62,116,0
0,53,94,0
0,67,106,0
0,65,94,0
0,68,114,2
0,42,60,5
0,62,116,0
0,56,101,0
0,68,114,0
0,67,97,0
0,67,106,1
0,29,80,4
0,35,110,0
0,42,60,0
0,62,116,0
0,70,65,0
0,53,93,0
0,67,106,1
0,70,65,4
0,63,111,1
0,29,81,5
0,35,110,0
0,42,60,0
0,70,65,0
0,60,99,0
0,63,111,0
0,68,92,0
0,40,92,45
0,42,60,0
0,56,81,0
0,65,66,0
0,62,104,1
0,42,60,5
0,53,81,0
0,62,104,1
0,62,102,0
0,48,62,0
0,55,68,0
0,62,80,0
0,36,77,1
0,35,110,0
0,42,60,0
0,48,106,0
0,63,104,0
0,42,60,1
0,70,65,0
0,55,94,1
0,55,101,1
0,70,65,21
0,62,106,0
0,40,86,1
0,42,60,0
0,70,65,0
0,60,96,0
0,60,109,1
0,63,107,0
0,42,60,1
0,55,102,0
0,62,111,1
0,62,104,0
0,36,76,1
0,35,110,0
0,42,60,0
0,70,65,0
0,70,65,9
0,63,109,0
0,36,75,1
0,35,110,0
0,42,60,0
0,70,65,0
0,60,102,0
0,63,109,1
0,40,88,16
0,42,60,0
0,55,46,1
0,62,106,0
0,36,85,0
0,42,60,0
0,70,65,0
0,48,99,0
0,60,96,1
0,70,65,6
0,42,60,8
0,70,65,0
0,63,107,0
0,42,60,1
0,62,59,0
0,55,96,0
0,55,81,1
0,62,59,21
0,62,104,0
0,40,88,1
0,42,60,0
0,62,116,0
0,60,99,0
0,60,109,1
0,63,107,0
0,42,60,1
0,62,116,0
0,55,102,0
0,62,109,1
0,65,104,0
0,34,75,1
0,35,110,0
0,42,60,0
0,62,116,0
0,70,65,0
0,60,99,1
0,70,65,8
0,67,107,0
0,34,79,1
0,35,110,0
0,42,60,0
0,70,65,0
0,55,106,0
0,63,106,1
0,36,79,1
0,40,92,0
0,42,60,0
0,48,87,0
0,60,96,1
0,68,109,0
0,42,60,1
0,67,116,5
0,67,101,0
0,53,76,0
0,56,82,0
0,60,93,0
0,29,86,1
0,35,110,0
0,42,60,0
0,41,96,1
0,67,116,1
0,68,114,1
0,42,60,5
0,70,65,0
0,48,96,0
0,68,114,1
0,60,69,0
0,70,65,21
0,67,112,5
0,40,86,3
0,42,60,0
0,70,65,0
0,53,94,0
0,67,112,0
0,65,90,0
0,68,112,1
0,42,60,1
0,56,101,0
0,68,112,0
0,67,97,0
0,67,109,1
0,29,81,5
0,35,110,0
0,42,60,0
0,70,65,0
0,60,99,0
0,67,109,1
0,70,65,3
0,68,106,2
0,29,80,0
0,35,110,0
0,42,60,0
0,70,65,0
0,56,81,0
0,68,106,0
0,68,95,0
0,40,88,29
0,42,60,0
0,67,111,5
0,42,60,4
0,70,65,0
0,53,81,1
0,67,111,0
0,65,58,0
0,70,65,5
0,29,77,21
0,42,60,0
0,70,65,0
0,41,96,0
0,68,111,1
0,42,60,2
0,62,59,0
0,48,96,0
0,68,111,0
0,60,78,0
0,62,59,21
0,40,88,21
0,42,60,0
0,62,116,0
0,53,94,0
0,65,94,0
0,67,107,1
0,29,80,5
0,42,60,0
0,62,116,0
0,56,101,0
0,67,107,0
0,67,97,0
0,29,81,28
0,35,110,0
0,42,60,0
0,62,116,0
0,70,65,0
0,53,93,0
0,70,65,4
0,63,107,5
0,29,74,3
0,35,110,0
0,42,60,0
0,70,65,0
0,60,99,0
0,63,107,0
0,68,92,0
0,62,106,1
0,36,83,1
0,40,92,0
0,42,60,0
0,56,81,0
0,62,106,0
0,65,66,0
0,42,60,5
0,53,81,0
0,55,63,0
0,59,73,0
0,62,81,0
0,31,81,1
0,35,110,0
0,42,60,0
0,43,72,0
0,42,60,29
0,70,65,0
0,50,84,1
0,70,65,21
0,40,86,20
0,42,60,0
0,70,65,0
0,55,77,0
0,62,118,21
0,42,60,9
0,62,118,0
0,59,66,1
0,31,79,0
0,35,110,0
0,42,60,0
0,62,118,0
0,70,65,0
0,70,65,4
0,31,85,3
0,35,110,0
0,42,60,0
0,62,118,0
0,70,65,0
0,62,46,1
0,62,109,23
0,59,104,4
0,40,88,1
0,42,60,0
0,62,109,2
0,42,60,45
0,70,65,0
0,70,65,21
0,63,111,5
0,60,96,0
0,31,76,0
0,42,60,0
0,62,66,1
0,67,77,0
0,63,111,1
0,42,60,1
0,42,60,1
0,44,116,21
0,65,96,2
0,62,94,0
0,35,110,1
0,42,60,0
0,65,96,2
0,62,118,25
0,62,118,1
0,62,118,0
0,48,91,0
0,55,72,0
0,60,94,0
0,63,94,0
0,48,102,2
0,55,93,24
0,60,96,29
0,55,96,6
0,62,104,0
0,60,96,1
0,60,106,0
0,55,96,6
0,60,106,0
0,62,106,0
0,46,88,0
0,62,88,0
0,65,90,0
0,46,99,0
0,62,106,0
0,62,109,7
0,55,99,6
0,62,109,1
0,63,111,0
0,55,99,6
0,62,106,0
0,63,111,0
0,63,114,17
0,55,94,6
0,63,114,1
0,44,93,0
0,60,93,0
0,63,82,0
0,44,101,0
0,55,91,11
0,63,116,17
0,55,104,6
0,62,107,0
0,63,116,1
0,63,116,0
0,55,94,6
0,63,116,0
0,62,112,0
0,46,90,0
0,62,72,0
0,65,88,0
0,46,98,0
0,62,112,0
0,55,102,6
0,60,107,6
0,60,107,7
0,55,98,3
0,62,104,0
0,58,112,17
0,55,96,6
0,58,112,1
0,56,74,19
0,60,107,0
0,44,82,0
0,60,74,0
0,63,41,0
0,60,107,0
0,60,82,2
0,67,82,8
0,62,118,7
0,62,118,3
0,69,116,0
0,69,116,0
0,67,119,17
0,67,119,7
0,65,121,0
0,65,121,0
0,67,123,0
0,67,123,0
0,31,104,45
0,43,107,0
0,55,102,0
0,58,106,0
0,62,107,0
0,67,111,0
0,31,79,1
0,35,110,0
0,44,112,0
0,55,107,1
0,58,109,0
0,62,111,0
0,67,112,0
0,55,60,0
0,58,71,0
0,62,69,0
0,67,119,0
0,70,65,18
0,58,57,2
0,62,51,0
0,70,65,14
0,55,98,1
0,58,104,0
0,62,107,0
0,67,106,0
0,55,48,1
0,58,68,0
0,62,58,0
0,67,118,0
0,44,112,5
0,70,65,0
0,55,60,0
0,58,73,0
0,62,71,0
0,62,116,16
0,70,65,5
0,55,102,1
0,58,106,0
0,62,109,0
0,65,106,0
0,62,116,1
0,55,39,0
0,58,60,0
0,62,66,0
0,65,114,0
0,70,65,12
0,58,60,2
0,62,60,0
0,69,118,0
0,44,112,4
0,54,72,0
0,70,65,0
0,69,118,0
0,55,60,0
0,58,68,0
0,62,69,0
0,67,118,0
0,70,65,5
0,67,118,0
0,55,39,0
0,58,63,0
0,62,54,0
0,70,65,13
0,55,39,2
0,58,61,0
0,62,61,0
0,65,118,0
0,44,112,3
0,70,65,0
0,65,118,0
0,55,63,0
0,58,63,0
0,62,71,0
0,67,118,0
0,35,110,5
0,70,65,0
0,67,118,0
0,55,54,0
0,58,69,0
0,62,61,0
0,70,65,5
0,55,46,2
0,58,68,0
0,62,66,0
0,36,107,0
0,48,112,0
0,60,102,0
0,64,104,0
0,36,85,0
0,35,110,0
0,44,112,0
0,70,65,0
0,55,106,1
0,60,109,0
0,64,106,0
0,67,109,0
0,55,63,1
0,60,68,0
0,64,68,0
0,67,119,0
0,70,65,15
0,55,57,2
0,60,58,0
0,64,63,0
0,70,65,12
0,55,106,1
0,60,109,0
0,64,106,0
0,67,107,0
0,55,57,1
0,60,60,0
0,64,51,0
0,67,119,0
0,44,112,13
0,70,65,0
0,55,63,1
0,60,68,0
0,64,58,0
0,62,118,15
0,70,65,5
0,55,93,1
0,60,104,0
0,64,104,0
0,62,118,1
0,55,60,0
0,60,60,0
0,64,58,0
0,64,118,0
0,70,65,10
0,55,58,2
0,60,61,0
0,64,45,0
0,69,116,0
0,44,112,5
0,54,74,0
0,70,65,0
0,69,116,0
0,55,65,0
0,60,68,0
0,64,69,0
0,67,118,1
0,70,65,5
0,67,118,1
0,55,58,0
0,60,65,0
0,64,63,0
0,70,65,11
0,55,51,2
0,60,65,0
0,64,58,0
0,65,118,0
0,44,112,5
0,70,65,0
0,65,118,0
0,55,65,0
0,60,66,0
0,64,65,0
0,67,118,1
0,70,65,5
0,67,118,1
0,55,61,0
0,60,66,0
0,64,68,0
0,70,65,5
