track,note,velocity,time
3,89,102,2495
3,77,104,0
3,89,0,85
3,91,95,11
3,79,85,0
3,77,0,4
3,91,0,76
3,79,0,7
3,93,104,9
3,81,101,0
3,93,0,56
3,81,0,33
3,79,117,7
3,91,121,0
3,76,102,288
3,88,117,0
3,79,0,18
3,91,0,0
3,76,0,70
3,88,0,2
3,72,101,6
3,84,113,0
3,69,83,256
3,81,97,0
3,72,0,3
3,84,0,9
3,86,126,116
3,74,123,0
3,69,0,1
3,81,0,3
3,86,0,192
3,74,0,6
3,89,115,278
3,77,106,0
3,79,121,96
3,91,121,0
3,89,0,0
3,77,0,10
3,79,0,76
3,81,111,10
3,93,102,0
3,91,0,4
3,93,0,82
3,81,0,10
3,79,121,0
3,91,123,0
3,79,0,176
3,91,0,6
3,84,108,10
3,96,117,0
3,96,0,354
3,84,0,4
3,89,102,698
3,77,104,0
3,89,0,85
3,91,95,11
3,79,85,0
3,77,0,4
3,91,0,76
3,79,0,7
3,93,104,9
3,81,101,0
3,93,0,56
3,81,0,33
3,79,117,7
3,91,121,0
3,76,102,288
3,88,117,0
3,79,0,18
3,91,0,0
3,76,0,70
3,88,0,2
3,72,101,6
3,84,113,0
3,69,83,256
3,81,97,0
3,72,0,3
3,84,0,9
3,86,126,116
3,74,123,0
3,69,0,1
3,81,0,3
3,86,0,192
3,74,0,6
3,89,115,278
3,77,106,0
3,79,121,96
3,91,121,0
3,89,0,0
3,77,0,10
3,79,0,76
3,81,111,10
3,93,102,0
3,91,0,4
3,93,0,82
3,81,0,10
3,79,121,0
3,91,123,0
3,79,0,176
3,91,0,6
3,84,108,10
3,96,117,0
3,96,0,354
3,84,0,4
3,89,85,40586
3,84,126,48
3,96,117,0
3,89,0,10
3,84,0,21
3,96,0,5
3,84,55,45
3,92,95,0
3,84,0,36
3,92,0,8
3,84,62,52
3,89,101,0
3,84,0,16
3,84,70,80
3,89,0,16
3,84,0,14
3,89,85,1125
3,84,126,48
3,96,117,0
3,89,0,10
3,84,0,21
3,96,0,5
3,84,55,45
3,92,95,0
3,84,0,36
3,92,0,8
3,84,62,52
3,89,101,0
3,84,0,16
3,84,70,80
3,89,0,16
3,84,0,14
3,89,85,1125
3,84,126,48
3,96,117,0
3,89,0,10
3,84,0,21
3,96,0,5
3,84,55,45
3,92,95,0
3,84,0,36
3,92,0,8
3,84,62,52
3,89,101,0
3,84,0,16
3,84,70,80
3,89,0,16
3,84,0,14
4,34,67,1340
4,34,0,157
4,34,63,35
4,34,0,144
4,34,58,48
4,34,0,157
4,34,62,35
4,34,0,86
4,34,90,106
4,34,0,78
4,34,61,274
4,34,0,30
4,34,88,2
4,34,0,60
4,41,107,132
4,41,0,66
4,34,48,94
4,34,0,26
4,36,93,6
4,36,0,78
4,43,90,114
4,43,0,49
4,36,79,111
4,36,0,31
4,36,93,1
4,36,0,45
4,34,90,339
4,34,0,78
4,34,61,274
4,34,0,30
4,34,88,2
4,34,0,60
4,41,107,132
4,41,0,66
4,34,48,94
4,34,0,26
4,36,93,6
4,36,0,78
4,43,90,114
4,43,0,49
4,36,79,111
4,36,0,31
4,36,93,1
4,36,0,45
4,34,90,339
4,34,0,78
4,34,61,274
4,34,0,30
4,34,88,2
4,34,0,60
4,41,107,132
4,41,0,66
4,34,48,94
4,34,0,26
4,36,93,6
4,36,0,78
4,43,90,114
4,43,0,49
4,36,79,111
4,36,0,31
4,36,93,1
4,36,0,45
4,34,90,339
4,34,0,78
4,34,61,274
4,34,0,30
4,34,88,2
4,34,0,60
4,41,107,132
4,41,0,66
4,34,48,94
4,34,0,26
4,36,93,6
4,36,0,78
4,43,90,114
4,43,0,49
4,36,79,111
4,36,0,31
4,36,93,1
4,36,0,45
4,34,75,339
4,34,0,88
4,34,63,104
4,34,0,68
4,34,61,92
4,34,0,31
4,34,61,1
4,34,0,80
4,41,68,112
4,41,0,92
4,34,46,36
4,36,90,64
4,34,0,16
4,36,0,82
4,36,65,254
4,36,0,24
4,36,92,8
4,36,0,90
4,33,96,294
4,33,0,60
4,33,93,36
4,33,0,86
4,45,105,10
4,45,0,43
4,33,75,117
4,33,0,24
4,33,105,8
4,33,0,42
4,33,93,54
4,33,0,40
4,37,70,152
4,37,0,82
4,38,90,14
4,38,0,118
4,38,75,234
4,38,93,32
4,38,0,2
4,38,0,32
4,38,103,62
4,38,0,28
4,34,75,260
4,34,0,254
4,34,75,98
4,41,61,128
4,41,0,34
4,34,0,44
4,41,111,18
4,34,51,96
4,41,0,10
4,34,0,80
4,36,92,6
4,36,0,146
4,36,92,46
4,36,0,78
4,36,75,82
4,36,0,29
4,36,88,3
4,36,0,34
4,36,92,62
4,48,75,96
4,36,0,6
4,48,0,61
4,39,103,125
4,39,0,164
4,39,75,28
4,39,0,68
4,39,61,92
4,39,0,26
4,39,79,6
4,39,0,76
4,39,60,20
4,39,0,82
4,39,81,14
4,39,0,92
4,34,60,4
4,34,0,80
4,33,79,16
4,45,64,192
4,45,0,36
4,33,0,52
4,45,70,72
4,45,60,32
4,45,0,0
4,45,0,42
4,45,83,54
4,45,0,89
4,33,79,7
4,45,75,32
4,33,0,21
4,45,0,11
4,34,81,128
4,34,0,112
4,34,65,48
4,34,0,24
4,34,88,8
4,34,0,32
4,34,81,352
4,34,0,54
4,34,72,42
4,34,0,76
4,33,90,20
4,45,98,192
4,33,0,1
4,45,0,72
4,37,45,87
4,37,0,20
4,38,93,12
4,38,0,148
4,38,101,44
4,38,0,30
4,34,81,162
4,34,0,119
4,34,92,41
4,34,0,32
4,34,63,160
4,34,0,29
4,34,55,3
4,34,0,30
4,34,88,66
4,36,92,288
4,34,0,1
4,36,0,269
4,36,77,82
4,36,0,24
4,36,95,8
4,36,0,32
4,34,107,352
4,41,105,192
4,34,0,4
4,41,0,44
4,34,81,80
4,34,0,140
4,34,72,20
4,34,0,30
4,36,96,258
4,36,0,154
4,36,88,38
4,36,0,46
4,36,68,114
4,36,0,20
4,36,93,12
4,36,0,36
4,36,96,60
4,36,0,44
4,39,103,244
4,39,0,164
4,39,75,28
4,39,0,68
4,39,61,92
4,39,0,26
4,39,79,6
4,39,0,76
4,39,60,20
4,39,0,82
4,39,81,14
4,39,0,92
4,34,60,4
4,34,0,80
4,33,79,16
4,45,64,192
4,45,0,36
4,33,0,52
4,45,70,72
4,45,60,32
4,45,0,0
4,45,0,42
4,45,83,54
4,45,0,89
4,33,79,7
4,45,75,32
4,33,0,21
4,45,0,11
4,34,72,128
4,36,83,1344
4,34,0,22
4,36,0,93
4,34,75,1613
4,34,0,88
4,34,63,104
4,34,0,68
4,34,61,92
4,34,0,31
4,34,61,1
4,34,0,80
4,41,68,112
4,41,0,92
4,34,46,36
4,36,90,64
4,34,0,16
4,36,0,82
4,36,65,254
4,36,0,24
4,36,92,8
4,36,0,90
4,33,96,294
4,33,0,60
4,33,93,36
4,33,0,86
4,45,105,10
4,45,0,43
4,33,75,117
4,33,0,24
4,33,105,8
4,33,0,42
4,33,93,54
4,33,0,40
4,37,70,152
4,37,0,82
4,38,90,14
4,38,0,118
4,38,75,234
4,38,93,32
4,38,0,2
4,38,0,32
4,38,103,62
4,38,0,28
4,34,75,260
4,34,0,254
4,34,75,98
4,41,61,128
4,41,0,34
4,34,0,44
4,41,111,18
4,34,51,96
4,41,0,10
4,34,0,80
4,36,92,6
4,36,0,146
4,36,92,46
4,36,0,78
4,36,75,82
4,36,0,29
4,36,88,3
4,36,0,34
4,36,92,62
4,48,75,96
4,36,0,6
4,48,0,61
4,39,103,125
4,39,0,164
4,39,75,28
4,39,0,68
4,39,61,92
4,39,0,26
4,39,79,6
4,39,0,76
4,39,60,20
4,39,0,82
4,39,81,14
4,39,0,92
4,34,60,4
4,34,0,80
4,33,79,16
4,45,64,192
4,45,0,36
4,33,0,52
4,45,70,72
4,45,60,32
4,45,0,0
4,45,0,42
4,45,83,54
4,45,0,89
4,33,79,7
4,45,75,32
4,33,0,21
4,45,0,11
4,34,81,128
4,34,0,112
4,34,65,48
4,34,0,24
4,34,88,8
4,34,0,32
4,34,81,352
4,34,0,54
4,34,72,42
4,34,0,76
4,33,90,20
4,45,98,192
4,33,0,1
4,45,0,72
4,37,45,87
4,37,0,20
4,38,93,12
4,38,0,148
4,38,101,44
4,38,0,30
4,34,81,162
4,34,0,119
4,34,92,41
4,34,0,32
4,34,63,160
4,34,0,29
4,34,55,3
4,34,0,30
4,34,88,66
4,36,92,288
4,34,0,1
4,36,0,269
4,36,77,82
4,36,0,24
4,36,95,8
4,36,0,32
4,34,107,352
4,41,105,192
4,34,0,4
4,41,0,44
4,34,81,80
4,34,0,140
4,34,72,20
4,34,0,30
4,36,96,258
4,36,0,154
4,36,88,38
4,36,0,46
4,36,68,114
4,36,0,20
4,36,93,12
4,36,0,36
4,36,96,60
4,36,0,44
4,39,103,244
4,39,0,164
4,39,75,28
4,39,0,68
4,39,61,92
4,39,0,26
4,39,79,6
4,39,0,76
4,39,60,20
4,39,0,82
4,39,81,14
4,39,0,92
4,34,60,4
4,34,0,80
4,33,79,16
4,45,64,192
4,45,0,36
4,33,0,52
4,45,70,72
4,45,60,32
4,45,0,0
4,45,0,42
4,45,83,54
4,45,0,89
4,33,79,7
4,45,75,32
4,33,0,21
4,45,0,11
4,29,77,134
4,29,0,1290
4,34,107,240
4,46,95,192
4,34,0,10
4,46,0,83
4,34,72,3
4,34,0,312
4,34,26,120
4,34,0,14
4,31,90,34
4,31,0,190
4,43,70,2
4,31,92,144
4,43,0,7
4,31,0,143
4,36,101,282
4,36,0,304
4,36,75,32
4,36,0,26
4,36,92,22
4,48,96,288
4,36,0,94
4,41,88,2
4,48,0,0
4,41,0,329
4,29,64,7
4,29,0,28
4,29,83,116
4,41,96,96
4,29,0,38
4,41,0,82
4,40,121,72
4,40,0,318
4,40,68,18
4,40,0,28
4,40,81,20
4,40,0,34
4,40,116,62
4,34,65,240
4,34,0,42
4,40,0,2
4,33,95,4
4,45,54,336
4,33,0,15
4,35,95,33
4,45,0,13
4,35,0,170
4,47,121,9
4,47,0,122
4,36,81,70
4,36,0,112
4,36,65,48
4,36,0,24
4,36,88,8
4,36,0,32
4,36,81,352
4,36,0,54
4,36,72,42
4,36,0,76
4,35,90,20
4,47,98,192
4,35,0,1
4,47,0,72
4,39,45,87
4,39,0,20
4,40,93,12
4,40,0,148
4,40,101,44
4,40,0,30
4,36,81,162
4,36,0,119
4,36,92,41
4,36,0,32
4,36,63,160
4,36,0,29
4,36,55,3
4,36,0,30
4,36,88,66
4,38,92,288
4,36,0,1
4,38,0,269
4,38,77,82
4,38,0,24
4,38,95,8
4,38,0,32
4,36,107,352
4,43,105,192
4,36,0,4
4,43,0,44
4,36,81,80
4,36,0,140
4,36,72,20
4,36,0,30
4,38,96,258
4,38,0,154
4,38,88,38
4,38,0,46
4,38,68,114
4,38,0,20
4,38,93,12
4,38,0,36
4,38,96,60
4,38,0,44
4,41,103,244
4,41,0,164
4,41,75,28
4,41,0,68
4,41,61,92
4,41,0,26
4,41,79,6
4,41,0,76
4,41,60,20
4,41,0,82
4,41,81,14
4,41,0,92
4,36,60,4
4,36,0,80
4,35,79,16
4,47,64,192
4,47,0,36
4,35,0,52
4,47,70,72
4,47,60,32
4,47,0,0
4,47,0,42
4,47,83,54
4,47,0,89
4,35,79,7
4,47,75,32
4,35,0,21
4,47,0,11
4,37,103,128
4,37,0,190
4,49,116,2
4,49,0,51
4,37,92,93
4,37,0,26
4,37,105,22
4,37,0,34
4,37,116,62
4,37,0,162
4,37,60,30
4,36,101,96
4,37,0,14
4,39,41,274
4,36,0,13
4,40,48,35
4,39,0,2
4,40,0,34
4,41,103,12
4,41,0,60
4,41,92,36
4,41,0,82
4,29,85,14
4,41,113,96
4,29,0,7
4,41,0,28
4,37,103,61
4,37,0,190
4,49,116,2
4,49,0,51
4,37,92,93
4,37,0,26
4,37,105,22
4,37,0,34
4,37,116,62
4,37,0,162
4,37,60,30
4,36,101,96
4,37,0,14
4,39,41,274
4,36,0,13
4,40,48,35
4,39,0,2
4,40,0,34
4,41,103,12
4,41,0,60
4,41,92,36
4,41,0,82
4,29,85,14
4,41,113,96
4,29,0,7
4,41,0,28
4,37,103,61
4,37,0,190
4,49,116,2
4,49,0,51
4,37,92,93
4,37,0,26
4,37,105,22
4,37,0,34
4,37,116,62
4,37,0,162
4,37,60,30
4,36,101,96
4,37,0,14
4,39,41,274
4,36,0,13
4,40,48,35
4,39,0,2
4,40,0,34
4,41,103,12
4,41,0,60
4,41,92,36
4,41,0,82
4,29,85,14
4,41,113,96
4,29,0,7
4,41,0,28
4,42,116,61
4,42,0,190
4,30,90,2
4,30,0,128
4,42,81,16
4,42,0,20
4,42,73,28
4,42,0,28
4,42,105,68
4,30,75,96
4,42,0,2
4,42,68,94
4,30,0,40
4,42,0,30
4,43,107,26
4,31,61,336
4,43,0,28
4,31,0,15
4,36,90,5
4,36,0,61
4,36,95,35
4,43,75,192
4,36,0,0
4,43,0,34
4,37,81,62
4,37,0,112
4,37,65,48
4,37,0,24
4,37,88,8
4,37,0,32
4,37,81,352
4,37,0,54
4,37,72,42
4,37,0,76
4,36,90,20
4,48,98,192
4,36,0,1
4,48,0,72
4,40,45,87
4,40,0,20
4,41,93,12
4,41,0,148
4,41,101,44
4,41,0,30
4,37,81,162
4,37,0,119
4,37,92,41
4,37,0,32
4,37,63,160
4,37,0,29
4,37,55,3
4,37,0,30
4,37,88,66
4,39,92,288
4,37,0,1
4,39,0,269
4,39,77,82
4,39,0,24
4,39,95,8
4,39,0,32
4,37,107,352
4,44,105,192
4,37,0,4
4,44,0,44
4,37,81,80
4,37,0,140
4,37,72,20
4,37,0,30
4,39,96,258
4,39,0,154
4,39,88,38
4,39,0,46
4,39,68,114
4,39,0,20
4,39,93,12
4,39,0,36
4,39,96,60
4,39,0,44
4,42,103,244
4,42,0,164
4,42,75,28
4,42,0,68
4,42,61,92
4,42,0,26
4,42,79,6
4,42,0,76
4,42,60,20
4,42,0,82
4,42,81,14
4,42,0,92
4,37,60,4
4,37,0,80
4,36,79,16
4,48,64,192
4,48,0,36
4,36,0,52
4,48,70,72
4,48,60,32
4,48,0,0
4,48,0,42
4,48,83,54
4,48,0,89
4,36,79,7
4,48,75,32
4,36,0,21
4,48,0,11
4,37,81,128
4,37,0,112
4,37,65,48
4,37,0,24
4,37,88,8
4,37,0,32
4,37,81,352
4,37,0,54
4,37,72,42
4,37,0,76
4,36,90,20
4,48,98,192
4,36,0,1
4,48,0,72
4,40,45,87
4,40,0,20
4,41,93,12
4,41,0,148
4,41,101,44
4,41,0,30
4,37,81,162
4,37,0,119
4,37,92,41
4,37,0,32
4,37,63,160
4,37,0,29
4,37,55,3
4,37,0,30
4,37,88,66
4,39,92,288
4,37,0,1
4,39,0,269
4,39,77,82
4,39,0,24
4,39,95,8
4,39,0,32
4,37,107,352
4,44,105,192
4,37,0,4
4,44,0,44
4,37,81,80
4,37,0,140
4,37,72,20
4,37,0,30
4,39,96,258
4,39,0,154
4,39,88,38
4,39,0,46
4,39,68,114
4,39,0,20
4,39,93,12
4,39,0,36
4,39,96,60
4,39,0,44
4,42,103,244
4,42,0,164
4,42,75,28
4,42,0,68
4,42,61,92
4,42,0,26
4,42,79,6
4,42,0,76
4,42,60,20
4,42,0,82
4,42,81,14
4,42,0,92
4,37,60,4
4,37,0,80
4,36,79,16
4,48,64,192
4,48,0,36
4,36,0,52
4,48,70,72
4,48,60,32
4,48,0,0
4,48,0,42
4,48,83,54
4,48,0,89
4,36,79,7
4,48,75,32
4,36,0,21
4,48,0,11
4,37,81,128
4,37,0,112
4,37,65,48
4,37,0,24
4,37,88,8
4,37,0,32
4,37,81,352
4,37,0,54
4,37,72,42
4,37,0,76
4,36,90,20
4,48,98,192
4,36,0,1
4,48,0,72
4,40,45,87
4,40,0,20
4,41,93,12
4,41,0,148
4,41,101,44
4,41,0,30
4,37,81,162
4,37,0,119
