track,note,velocity,time
3,34,124,2013
3,34,0,570
3,36,121,150
3,36,0,1077
3,38,117,123
3,38,0,642
3,38,115,78
3,38,0,137
3,38,115,103
3,38,0,765
3,34,121,195
3,34,0,622
3,36,113,98
3,36,0,1115
3,38,120,85
3,38,0,637
3,38,117,83
3,38,0,145
3,38,118,95
3,38,0,725
3,34,126,235
3,34,0,645
3,36,107,75
3,36,0,1077
3,38,124,123
3,38,0,637
3,38,114,83
3,38,0,137
3,38,114,103
3,38,0,757
3,34,126,203
3,34,0,635
3,36,113,85
3,36,0,1062
3,38,114,138
3,26,122,720
3,38,0,82
3,26,0,33
3,26,127,125
3,26,0,35
3,38,122,5
3,38,0,48
3,34,124,5
3,34,0,650
3,36,117,70
3,36,0,1115
3,38,120,85
3,38,0,655
3,38,104,65
3,38,0,137
3,38,114,103
3,38,0,75
3,34,117,5
3,34,0,623
3,36,102,35
3,36,0,1130
3,38,114,70
3,38,0,475
3,38,98,245
3,38,0,165
3,38,99,75
3,38,0,950
3,31,124,10
3,31,0,650
3,33,122,70
3,33,0,1125
3,34,117,75
3,34,0,615
3,34,113,105
3,34,0,150
3,34,119,90
3,34,0,450
3,33,105,30
3,33,0,402
3,31,122,78
3,31,0,637
3,33,122,83
3,33,0,1057
3,38,126,143
3,38,0,535
3,38,120,185
3,38,0,135
3,38,120,105
3,38,0,42
3,34,126,5
3,34,0,622
3,36,113,98
3,36,0,1117
3,38,115,83
3,38,0,630
3,38,108,90
3,38,0,165
3,38,106,75
3,38,0,2
3,34,124,5
3,34,0,637
3,36,110,83
3,36,0,1115
3,38,122,85
3,38,0,625
3,38,117,95
3,38,0,157
3,38,110,83
3,38,0,842
3,31,121,118
3,31,0,637
3,33,114,83
3,33,0,1105
3,34,119,95
3,34,0,655
3,34,112,65
3,34,0,185
3,34,117,55
3,34,0,455
3,33,109,25
3,33,0,375
3,31,122,105
3,31,0,675
3,33,118,45
3,33,0,1122
3,38,127,78
3,38,0,685
3,38,103,35
3,38,0,170
3,38,104,70
3,38,0,60
3,43,117,5
3,43,0,637
3,43,107,83
3,43,0,155
3,43,117,85
3,41,115,960
3,43,0,2
3,41,0,655
3,41,105,63
3,41,0,142
3,41,114,98
3,41,0,885
3,40,118,75
3,40,0,665
3,33,108,55
3,33,0,1170
3,38,113,30
3,38,0,657
3,38,94,63
3,38,0,165
3,38,114,75
3,38,0,225
3,40,101,15
3,40,0,230
3,41,107,10
3,41,0,205
3,45,107,35
3,45,0,197
3,43,121,43
3,43,0,617
3,43,110,103
3,43,0,142
3,43,113,98
3,41,118,960
3,43,0,2
3,41,0,308
3,41,110,50
3,41,0,75
3,41,112,285
3,41,0,190
3,41,115,50
3,41,0,765
3,40,117,195
3,40,0,875
3,40,108,85
3,40,0,825
3,33,127,135
3,33,0,1110
3,33,109,90
3,33,0,175
3,31,102,65
3,31,0,215
3,33,102,25
3,33,0,230
3,34,127,10
3,34,0,577
3,36,114,143
3,36,0,1095
3,38,118,105
3,38,0,625
3,38,114,95
3,38,0,165
3,38,118,75
3,38,0,35
3,34,127,5
3,34,0,585
3,36,117,135
3,36,0,1070
3,38,120,130
3,38,0,645
3,38,107,75
3,38,0,165
3,38,110,75
3,38,0,850
3,31,126,110
3,31,0,702
3,33,114,18
3,33,0,1017
3,34,121,183
3,34,0,630
3,34,113,90
3,34,0,185
3,34,119,55
3,34,0,402
3,33,110,78
3,33,0,222
3,38,107,18
3,38,0,225
3,31,117,15
3,31,0,670
3,33,106,50
3,33,0,1135
3,38,110,65
3,38,0,610
3,38,105,110
3,38,0,175
3,38,114,65
3,38,0,805
3,34,121,155
3,34,0,645
3,36,113,75
3,36,0,1062
3,26,114,138
3,26,0,702
3,26,122,18
3,26,0,175
3,26,127,65
3,26,0,35
3,38,122,5
3,38,0,48
3,34,121,5
3,34,0,590
3,36,122,130
3,36,0,1082
3,38,121,118
3,38,0,637
3,38,108,83
3,38,0,157
3,38,117,83
3,38,0,735
3,34,127,225
3,34,0,605
3,36,120,115
3,36,0,1102
3,38,107,98
3,38,0,637
3,26,118,83
3,26,0,162
3,26,114,78
3,26,0,477
3,29,108,3
3,29,0,225
3,33,109,15
3,33,0,222
3,31,120,18
3,31,0,657
3,33,112,63
3,33,0,1102
3,34,113,98
3,34,0,622
3,34,108,98
3,34,0,175
3,34,110,65
3,34,0,475
3,33,94,5
3,33,0,310
3,31,121,170
3,31,0,675
3,33,103,45
3,33,0,197
3,33,101,43
3,33,0,682
3,36,104,38
3,36,0,177
3,38,114,63
3,38,0,670
3,38,90,50
3,38,0,157
3,38,110,83
3,41,89,480
3,38,0,42
3,41,0,248
3,43,118,190
3,43,0,635
3,43,105,85
3,43,0,177
3,43,102,63
3,43,0,937
3,41,104,23
3,41,0,665
3,41,117,55
3,41,0,190
3,41,114,50
3,41,0,682
3,40,127,278
3,40,0,15
3,33,102,5
3,33,0,175
3,33,103,65
3,33,0,675
3,38,94,45
3,38,0,165
3,38,110,75
3,38,0,657
3,38,101,63
3,38,0,177
3,38,95,63
3,43,94,480
3,45,105,0
3,38,0,10
3,43,0,25
3,45,0,287
3,43,117,158
3,43,0,595
3,43,113,125
3,43,0,150
3,43,115,90
3,41,107,960
3,43,0,15
3,41,0,287
3,41,92,58
3,41,0,65
3,41,112,295
3,41,0,197
3,41,106,43
3,41,0,882
3,40,118,78
3,40,0,645
3,40,101,75
3,40,0,175
3,40,105,65
3,40,0,595
3,43,113,125
3,43,0,88
3,45,91,5
3,40,118,480
3,45,0,55
3,40,0,40
3,33,117,5
3,33,0,950
3,34,126,10
3,34,0,617
3,36,117,103
3,36,0,1065
3,38,121,135
3,38,0,677
3,38,108,43
3,38,0,215
3,38,113,25
3,38,0,642
3,36,103,78
3,36,0,55
3,34,115,5
3,34,0,675
3,36,114,45
3,36,0,1042
3,38,120,158
3,38,0,610
3,38,112,110
3,38,0,157
3,38,120,83
3,38,0,815
3,31,121,145
3,31,0,617
3,33,120,103
3,33,0,1095
3,34,126,105
3,34,0,622
3,34,117,98
3,34,0,165
3,34,124,75
3,34,0,435
3,33,118,45
3,33,0,365
3,31,127,115
3,31,0,642
3,33,118,78
3,33,0,1170
3,38,124,30
3,38,0,305
3,38,110,55
3,38,0,70
3,38,120,290
3,38,0,195
3,38,114,45
3,38,0,430
3,26,108,50
3,26,0,28
3,31,122,5
3,31,0,577
3,31,115,143
3,31,0,145
3,31,120,95
3,31,0,825
3,33,120,135
3,33,0,702
3,31,121,18
3,31,0,85
3,26,113,35
3,26,0,155
3,26,113,85
3,26,0,277
3,33,121,83
3,33,0,210
3,38,113,30
3,38,0,85
3,33,109,35
3,33,0,95
3,31,115,25
3,31,0,542
3,31,120,178
3,31,0,157
3,31,124,83
3,31,0,630
3,33,120,330
3,33,0,665
3,38,120,55
3,38,0,95
3,26,97,25
3,26,0,115
3,26,114,125
3,26,0,250
3,33,110,110
3,33,0,235
3,38,96,5
3,38,0,230
3,37,115,10
3,37,0,585
3,37,107,135
3,37,0,105
3,37,117,135
3,37,0,290
3,37,92,70
3,37,0,5
3,32,99,115
3,37,113,240
3,32,0,17
3,37,0,188
3,36,120,35
3,36,0,642
3,41,118,78
3,41,0,37
3,41,114,83
3,29,87,240
3,41,0,17
3,29,0,340
3,36,114,3
3,36,0,397
3,34,124,83
3,34,0,642
3,34,117,78
3,34,0,150
3,34,121,90
3,34,0,202
3,37,112,38
3,37,0,522
3,36,108,198
3,36,0,162
3,36,100,78
3,36,0,195
3,36,95,45
3,36,0,182
3,36,98,58
3,36,0,185
3,36,114,55
3,36,0,215
3,36,101,25
3,48,118,5
3,36,0,15
3,48,0,43
3,37,117,5
3,37,0,570
3,37,117,150
3,37,0,105
3,39,115,5
3,39,0,615
3,29,121,105
3,29,0,130
3,29,114,110
3,29,0,662
3,29,117,58
3,29,0,142
3,29,115,98
3,29,0,58
3,25,117,5
3,25,0,610
3,27,117,110
3,27,0,95
3,29,127,10
3,29,0,617
3,29,115,103
3,41,84,0
3,41,0,10
3,29,0,185
3,29,107,45
3,29,0,470
3,32,110,10
3,32,0,225
3,36,98,15
3,36,0,202
3,34,127,38
3,34,0,605
3,36,121,115
3,36,0,1030
3,37,115,170
3,37,0,610
3,37,113,110
3,37,0,177
3,37,117,63
3,36,105,480
3,37,0,25
3,36,0,325
3,34,126,130
3,34,0,655
3,36,109,65
3,36,0,170
3,36,105,70
3,36,0,602
3,27,113,118
3,27,0,222
3,29,127,18
3,29,0,525
3,29,122,195
3,29,0,37
3,31,110,83
3,31,0,42
3,32,117,78
3,32,0,195
3,31,106,45
3,31,0,202
3,29,110,38
3,29,0,205
3,27,115,35
3,25,119,240
3,27,0,15
3,25,0,575
3,27,115,130
3,27,0,1135
3,29,107,65
3,29,0,595
3,36,109,5
3,36,0,15
3,29,126,105
3,29,0,215
3,29,115,25
3,29,0,615
3,27,117,105
3,27,0,210
3,25,119,30
3,25,0,590
3,27,115,130
3,27,0,1135
3,29,107,65
3,29,0,595
3,36,109,5
3,36,0,15
3,29,126,105
3,29,0,215
3,29,115,25
3,29,0,915
3,34,127,45
3,34,0,645
3,36,117,75
3,36,0,1150
3,37,115,50
3,37,0,662
3,37,107,58
3,37,0,190
3,37,105,50
3,37,0,475
3,36,110,5
3,36,0,330
3,34,127,150
3,34,0,622
3,36,120,98
3,36,0,882
3,27,112,78
3,27,0,222
3,29,120,18
3,29,0,615
3,41,108,105
3,41,0,175
3,29,120,65
3,29,0,430
3,29,99,50
3,29,0,230
3,27,87,10
3,27,0,195
3,25,113,45
3,25,0,617
3,27,119,103
3,27,0,885
3,29,102,75
3,29,0,55
3,36,90,65
3,36,0,55
3,29,124,65
3,29,0,635
3,29,114,85
3,29,0,37
3,29,127,83
3,29,0,65
3,29,127,175
3,29,0,337
3,36,109,23
3,36,0,185
3,27,93,55
3,27,0,190
3,25,119,50
3,25,0,205
3,25,112,35
3,25,0,150
3,27,115,330
3,27,0,210
3,27,113,30
3,27,0,450
3,29,121,510
3,29,0,195
3,29,101,45
3,29,0,82
3,29,117,398
3,29,0,42
3,29,110,78
3,29,0,125
3,29,117,115
3,29,0,30
3,29,103,90
3,29,0,225
3,36,104,15
3,36,0,165
3,29,89,75
3,29,0,157
3,34,127,83
3,34,0,605
3,36,121,115
3,36,0,1030
3,37,115,170
3,37,0,610
3,37,113,110
3,37,0,177
3,37,117,63
3,36,105,480
3,37,0,25
3,36,0,325
3,34,126,130
3,34,0,655
3,36,109,65
3,36,0,170
3,36,105,70
3,36,0,602
3,27,113,118
3,27,0,222
3,29,127,18
3,29,0,525
3,29,122,195
3,29,0,37
3,31,110,83
3,31,0,42
3,32,117,78
3,32,0,195
3,31,106,45
3,31,0,202
3,29,110,38
3,29,0,205
3,27,115,35
3,29,124,240
3,27,0,15
3,29,0,28
4,74,58,64370
4,74,0,715
4,76,55,5
4,76,0,955
4,77,54,5
4,77,0,1915
4,74,53,245
4,74,0,715
4,76,53,5
4,76,0,1195
4,74,48,5
4,74,0,1675
4,74,55,245
4,74,0,1195
4,73,55,5
4,73,0,475
4,74,50,245
4,74,0,1915
4,74,58,5
4,74,0,955
4,76,58,5
4,76,0,955
4,74,55,5
4,74,0,1675
4,74,57,34805
4,74,0,715
4,76,62,5
4,76,0,1190
4,77,57,10
4,77,0,1675
4,74,56,245
4,74,0,715
4,76,59,5
4,76,0,1195
4,74,58,5
4,74,0,1675
4,74,55,245
4,74,0,1435
4,73,57,5
4,73,0,475
4,74,59,5
4,74,0,1675
4,74,61,245
4,74,0,715
4,76,57,5
4,76,0,1190
4,74,57,10
4,74,0,1675
4,81,55,245
4,93,60,0
4,81,0,5755
4,93,0,0
4,77,49,5
4,89,53,0
4,77,0,1915
4,89,0,0
4,84,59,5
4,96,69,0
4,84,0,1915
4,96,0,0
4,82,68,5
4,94,60,0
4,82,0,715
4,94,0,0
4,80,64,5
4,92,60,0
4,80,0,3115
4,92,0,0
4,79,58,5
4,91,58,0
4,79,0,1915
4,91,0,0
4,77,73,5
4,89,57,0
4,96,65,0
4,89,0,3355
4,96,0,0
4,84,65,5
4,96,79,0
4,84,0,235
4,96,0,0
4,82,75,5
4,94,72,0
4,77,0,235
4,82,0,0
4,94,0,0
4,80,72,5
4,92,73,0
4,80,0,715
4,92,0,0
4,79,83,5
4,91,77,0
4,79,0,1195
4,91,0,0
4,77,81,5
4,89,64,0
4,77,0,1675
4,89,0,0
4,79,80,965
4,91,75,0
4,79,0,1195
4,91,0,0
4,80,76,5
4,92,55,0
4,80,0,1435
4,92,0,0
4,80,58,5
4,92,61,0
4,80,0,235
4,92,0,0
4,79,79,5
4,91,76,0
4,79,0,235
4,91,0,0
4,77,83,5
4,89,61,0
4,79,72,720
4,91,74,0
4,77,0,235
4,89,0,0
4,79,0,960
4,91,0,0
4,77,59,5
4,89,59,0
4,77,0,1675
4,89,0,0
4,84,61,245
4,96,63,0
4,84,0,3355
4,96,0,0
4,82,65,5
4,94,62,0
4,82,0,475
4,94,0,0
4,84,65,5
4,96,64,0
4,84,0,715
4,96,0,0
4,82,66,5
4,94,60,0
4,82,0,1190
4,94,0,0
4,80,67,10
4,92,67,0
4,80,0,2635
4,92,0,0
4,79,69,5
4,91,64,0
4,79,0,1195
4,91,0,0
4,80,69,5
4,92,69,0
4,80,0,1435
4,92,0,0
4,79,69,5
4,91,60,0
4,79,0,475
4,91,0,0
4,77,63,5
4,89,59,0
4,77,0,715
4,89,0,0
4,79,67,5
4,91,60,0
4,79,0,955
4,91,0,235
4,77,63,10
4,89,65,0
4,77,0,1195
4,89,0,240
4,84,66,485
4,96,66,0
4,84,0,4555
4,96,0,0
4,82,66,5
4,94,64,0
4,82,0,1195
4,94,0,0
4,84,66,5
4,96,65,0
4,84,0,1915
4,96,0,0
4,79,69,725
4,91,64,0
4,79,0,1195
4,91,0,0
4,80,69,5
4,92,69,0
4,80,0,1435
4,92,0,0
4,79,69,5
4,91,60,0
4,79,0,475
4,91,0,0
4,77,63,5
4,89,59,0
4,77,0,715
4,89,0,0
4,79,67,5
4,91,60,0
4,79,0,955
4,91,0,235
4,77,63,10
4,89,65,0
4,77,0,1195
4,89,0,240
5,79,115,5
5,79,0,38
5,77,112,75
5,77,0,72
5,72,105,720
5,72,0,42
5,81,118,5
5,79,106,60
5,81,0,2
5,79,0,220
5,72,90,258
5,72,0,115
5,79,122,125
5,79,0,222
5,77,108,18
5,77,0,475
5,79,100,5
5,79,0,115
5,81,123,5405
5,81,0,62
5,79,114,58
5,79,0,197
5,77,116,43
5,77,0,185
5,76,113,55
5,76,0,422
5,74,106,58
5,74,0,165
5,72,101,75
5,72,0,45
5,74,107,75
5,74,0,65
5,74,112,55
5,74,0,457
5,69,105,23
5,69,0,190
5,81,119,1490
5,81,0,182
5,79,114,58
5,79,0,190
5,77,115,50
5,77,0,185
5,76,110,55
5,76,0,437
5,74,107,43
5,74,0,150
5,72,107,90
5,72,0,580
5,74,102,5
5,74,0,225
5,74,120,1455
5,74,0,110
5,74,119,130
5,74,0,175
5,74,111,65
5,74,0,210
5,76,113,30
5,76,0,410
5,77,116,70
5,77,0,182
5,79,107,58
5,79,0,202
5,82,113,38
5,82,0,415
5,81,109,65
5,81,0,410
5,77,105,70
5,77,0,202
5,74,104,38
5,74,0,142
5,74,120,338
5,74,0,95
5,74,115,145
5,74,0,170
5,81,110,70
5,81,0,190
5,79,109,50
5,79,0,182
5,77,109,58
5,77,0,190
5,76,111,50
5,76,0,455
5,74,102,25
5,74,0,145
5,72,107,95
5,72,0,265
5,74,106,5
5,74,0,605
5,81,123,1315
5,81,0,202
5,79,109,38
5,77,112,240
5,79,0,17
5,77,0,200
5,76,108,23
5,76,0,415
5,74,107,65
5,74,0,230
5,72,106,10
5,72,0,57
5,74,101,63
5,74,0,90
5,74,119,30
5,74,0,450
5,69,107,30
5,69,0,197
5,69,120,1243
5,69,0,137
5,81,121,103
5,81,0,195
5,79,116,45
5,79,0,205
5,77,114,35
5,77,0,210
5,76,110,30
5,76,0,422
5,74,105,58
5,74,0,150
5,72,105,90
5,72,0,470
