track,note,velocity,time
1,71,50,0
1,71,0,180
1,74,42,0
1,74,0,60
1,72,50,0
1,72,0,180
1,71,47,0
1,71,0,60
1,69,50,0
1,69,0,240
1,71,46,0
1,71,0,240
1,72,50,0
1,72,0,240
1,74,46,0
1,74,0,240
1,72,47,0
1,72,0,120
1,71,49,0
1,71,0,120
1,69,51,0
1,69,0,120
1,67,53,0
1,67,0,120
1,67,65,0
1,72,65,0
1,72,0,120
1,67,0,0
1,71,61,120
1,67,61,0
1,67,0,120
1,71,0,0
1,76,67,120
1,67,67,0
1,67,0,120
1,76,0,0
1,74,47,240
1,67,47,0
1,67,0,120
1,74,0,0
1,72,50,0
1,72,0,120
1,69,42,0
1,69,0,120
1,71,50,0
1,71,0,120
1,67,42,0
1,67,0,120
1,67,50,0
1,71,50,0
1,71,0,240
1,67,0,0
1,66,44,0
1,69,44,0
1,69,0,240
1,66,0,0
1,71,50,0
1,71,0,180
1,74,42,0
1,74,0,60
1,72,48,0
1,72,0,180
1,71,47,0
1,71,0,60
1,69,50,0
1,69,0,240
1,71,46,0
1,71,0,240
1,72,50,0
1,72,0,240
1,76,46,0
1,76,0,120
1,74,49,0
1,74,0,120
1,72,47,0
1,72,0,120
1,71,49,0
1,71,0,120
1,69,51,0
1,69,0,120
1,67,53,0
1,67,0,120
1,67,65,0
1,72,65,0
1,72,0,120
1,67,0,0
1,71,61,120
1,67,61,0
1,67,0,120
1,71,0,0
1,76,67,120
1,67,67,0
1,76,0,120
1,78,62,0
1,78,0,120
1,79,65,0
1,79,0,120
1,67,0,0
1,72,47,0
1,72,0,90
1,71,50,30
1,71,0,240
1,69,47,0
1,69,0,27
1,71,47,0
1,71,0,26
1,69,47,0
1,71,47,26
1,69,0,1
1,71,0,26
1,69,45,0
1,69,0,26
1,71,45,0
1,71,0,27
1,69,45,0
1,69,0,26
1,67,45,0
1,69,50,26
1,67,0,1
1,69,0,28
1,67,45,0
1,67,0,480
1,71,45,0
1,71,0,240
1,69,45,0
1,69,0,240
1,67,45,0
1,67,0,120
1,66,41,0
1,66,0,117
1,66,45,3
1,66,0,120
1,62,41,0
1,62,0,120
1,71,51,0
1,71,0,480
1,67,45,0
1,67,0,240
1,67,44,0
1,67,0,27
1,69,40,0
1,69,0,26
1,67,44,0
1,69,39,26
1,67,0,1
1,69,0,26
1,67,45,0
1,67,0,26
1,69,41,0
1,69,0,27
1,67,45,0
1,67,0,26
1,66,48,0
1,67,42,26
1,66,0,1
1,67,0,28
1,71,45,0
1,71,0,120
1,69,45,0
1,69,0,118
1,69,45,2
1,69,0,240
1,67,45,0
1,67,0,120
1,66,41,0
1,66,0,116
1,66,45,4
1,66,0,120
1,62,41,0
1,62,0,120
1,71,47,0
1,71,0,180
1,74,42,0
1,74,0,60
1,72,50,0
1,72,0,180
1,71,47,0
1,71,0,60
1,69,50,0
1,69,0,240
1,71,46,0
1,71,0,240
1,72,50,0
1,72,0,240
1,74,46,0
1,74,0,240
1,72,47,0
1,72,0,120
1,71,49,0
1,71,0,120
1,69,51,0
1,69,0,120
1,67,53,0
1,67,0,120
1,67,65,0
1,72,65,0
1,72,0,120
1,67,0,0
1,71,61,120
1,67,61,0
1,67,0,120
1,71,0,0
1,76,67,120
1,67,67,0
1,67,0,120
1,76,0,0
1,67,47,240
1,74,47,0
1,74,0,120
1,67,0,0
1,72,50,0
1,72,0,120
1,69,42,0
1,69,0,120
1,71,50,0
1,71,0,120
1,67,42,0
1,67,0,120
1,71,50,0
1,67,50,0
1,67,0,240
1,71,0,0
1,66,44,0
1,69,44,0
1,69,0,240
1,66,0,0
1,71,50,0
1,71,0,180
1,74,42,0
1,74,0,60
1,72,48,0
1,72,0,180
1,71,47,0
1,71,0,60
1,69,50,0
1,69,0,240
1,71,46,0
1,71,0,240
1,72,50,0
1,72,0,240
1,76,46,0
1,76,0,120
1,74,49,0
1,74,0,120
1,72,47,0
1,72,0,120
1,71,49,0
1,71,0,120
1,69,51,0
1,69,0,120
1,67,53,0
1,67,0,120
1,67,65,0
1,72,65,0
1,72,0,120
1,67,0,0
1,67,61,120
1,71,61,0
1,71,0,120
1,67,0,0
1,76,67,120
1,67,67,0
1,76,0,120
1,78,62,0
1,78,0,120
1,79,65,0
1,79,0,120
1,67,0,0
1,72,47,0
1,72,0,90
1,71,50,30
1,71,0,240
1,69,47,0
1,69,0,27
1,71,47,0
1,71,0,26
1,69,47,0
1,71,47,26
1,69,0,1
1,71,0,26
1,69,45,0
1,69,0,26
1,71,45,0
1,71,0,27
1,69,45,0
1,69,0,26
1,67,45,0
1,69,52,26
1,67,0,1
1,69,0,28
1,67,45,0
1,67,0,480
1,71,45,0
1,71,0,240
1,69,45,0
1,69,0,240
1,67,45,0
1,67,0,120
1,66,41,0
1,66,0,116
1,66,45,4
1,66,0,120
1,62,41,0
1,62,0,120
1,71,51,0
1,71,0,480
1,67,45,0
1,67,0,240
1,67,44,0
1,67,0,27
1,69,40,0
1,69,0,26
1,67,44,0
1,69,39,26
1,67,0,1
1,69,0,26
1,67,45,0
1,67,0,26
1,69,41,0
1,69,0,27
1,67,45,0
1,67,0,26
1,66,49,0
1,67,44,26
1,66,0,1
1,67,0,28
1,71,49,0
1,71,0,120
1,69,45,0
1,69,0,116
1,69,45,4
1,69,0,240
1,67,45,0
1,67,0,120
1,66,41,0
1,66,0,117
1,66,45,3
1,66,0,120
1,62,41,0
1,62,0,120
1,67,45,0
1,67,0,480
1,63,47,0
1,63,0,228
1,63,47,12
1,63,0,228
1,64,49,12
1,64,0,120
1,66,44,0
1,66,0,120
1,67,49,0
1,67,0,120
1,64,43,0
1,64,0,120
1,62,49,0
1,62,0,120
1,61,45,0
1,61,0,117
1,61,50,3
1,61,0,120
1,57,46,0
1,57,0,120
1,69,61,0
1,69,0,480
1,74,69,0
1,68,58,0
1,62,58,0
1,62,0,228
1,68,0,0
1,74,0,0
1,68,56,12
1,74,66,0
1,62,56,0
1,62,0,228
1,74,0,0
1,68,0,0
1,68,59,12
1,74,70,0
1,62,59,0
1,62,0,432
1,74,0,0
1,68,0,0
1,73,40,48
1,81,48,0
1,81,0,192
1,73,0,0
1,81,45,48
1,73,38,0
1,73,0,192
1,81,0,0
1,81,48,48
1,73,40,0
1,73,0,480
1,81,0,0
1,78,48,240
1,78,0,30
1,79,44,0
1,79,0,30
1,78,48,0
1,78,0,30
1,76,44,0
1,76,0,30
1,78,50,0
1,78,0,60
1,79,45,0
1,79,0,60
1,81,54,0
1,81,0,240
1,81,48,0
1,81,0,360
1,81,48,0
1,81,0,120
1,81,50,0
1,81,0,30
1,83,44,0
1,83,0,30
1,81,46,0
1,81,0,30
1,80,46,0
1,80,0,30
1,81,53,0
1,81,0,60
1,83,43,0
1,83,0,60
1,81,53,0
1,81,0,120
1,79,48,0
1,79,0,120
1,79,48,0
1,79,0,360
1,79,45,0
1,79,0,60
1,78,49,60
1,78,0,60
1,76,45,60
1,76,0,60
1,76,51,60
1,76,0,120
1,81,46,0
1,81,0,120
1,81,46,0
1,81,0,360
1,83,48,0
1,83,0,60
1,81,44,0
1,81,0,60
1,81,48,0
1,81,0,60
1,79,44,0
1,79,0,60
1,78,44,0
1,78,0,60
1,79,44,0
1,79,0,60
1,79,49,0
1,79,0,120
1,78,45,0
1,78,0,120
1,78,48,0
1,78,0,300
1,78,44,0
1,78,0,30
1,79,44,0
1,79,0,30
1,81,48,0
1,81,0,60
1,79,46,60
1,79,0,60
1,78,46,60
1,78,0,60
1,78,51,60
1,78,0,120
1,76,46,0
1,76,0,120
1,76,46,0
1,76,0,60
1,76,48,60
1,76,0,60
1,76,48,60
1,76,0,240
1,76,48,0
1,80,48,120
1,80,0,40
1,81,48,0
1,76,0,20
1,81,0,20
1,83,48,0
1,83,0,40
1,81,53,0
1,81,0,600
1,83,52,0
1,83,0,60
1,81,48,0
1,81,0,60
1,79,51,0
1,79,0,120
1,78,48,0
1,78,0,117
1,78,53,3
1,78,0,120
1,76,45,0
1,76,0,120
1,75,50,0
1,75,0,120
1,76,45,0
1,76,0,120
1,78,48,0
1,78,0,120
1,79,44,0
1,79,0,120
1,71,42,0
1,71,0,120
1,76,42,0
1,76,0,120
1,74,48,0
1,74,0,120
1,73,45,0
1,73,0,120
1,71,41,0
1,71,0,120
1,69,41,0
1,69,0,120
1,71,42,0
1,71,0,120
1,73,44,0
1,73,0,120
1,74,47,0
1,74,0,120
1,76,49,0
1,76,0,120
1,78,50,0
1,78,0,180
1,81,42,0
1,81,0,60
1,79,50,0
1,79,0,180
1,78,47,0
1,78,0,60
1,76,50,0
1,76,0,240
1,78,46,0
1,78,0,240
1,79,50,0
1,79,0,240
1,81,46,0
1,81,0,240
1,79,47,0
1,79,0,240
1,78,51,0
1,78,0,240
1,81,45,0
1,81,0,30
1,83,40,0
1,83,0,30
1,81,45,0
1,81,0,30
1,83,41,0
1,83,0,30
1,81,45,0
1,81,0,30
1,83,40,0
1,83,0,30
1,81,45,0
1,81,0,30
1,83,39,0
1,83,0,30
1,81,45,0
1,81,0,30
1,83,40,0
1,83,0,30
1,81,45,0
1,81,0,30
1,83,40,0
1,83,0,30
1,81,45,0
1,81,0,30
1,83,40,0
1,83,0,30
1,81,45,0
1,81,0,30
1,83,41,0
1,83,0,30
1,81,45,0
1,81,0,30
1,83,40,0
1,83,0,30
1,81,45,0
1,81,0,30
1,83,40,0
1,83,0,30
1,81,45,0
1,81,0,30
1,83,41,0
1,83,0,30
1,81,45,0
1,81,0,30
1,83,40,0
1,83,0,30
1,81,45,0
1,81,0,30
1,83,40,0
1,83,0,30
1,81,45,0
1,81,0,30
1,83,41,0
1,83,0,30
1,81,45,0
1,81,0,30
1,83,40,0
1,83,0,30
1,81,45,0
1,81,0,30
1,83,41,0
1,83,0,30
1,81,45,0
1,81,0,30
1,83,42,0
1,83,0,30
1,81,45,0
1,81,0,30
1,83,41,0
1,83,0,30
1,81,44,0
1,81,0,30
1,83,38,0
1,83,0,30
1,81,44,0
1,81,0,30
1,83,39,0
1,83,0,30
1,81,43,0
1,81,0,30
1,83,38,0
1,83,0,30
1,81,42,0
1,81,0,30
1,83,38,0
1,83,0,30
1,81,42,0
1,81,0,30
1,83,39,0
1,83,0,30
1,81,43,0
1,81,0,30
1,83,39,0
1,83,0,30
1,81,43,0
1,81,0,30
1,83,38,0
1,83,0,30
1,81,43,0
1,81,0,30
1,83,38,0
1,83,0,30
1,81,43,0
1,81,0,30
1,83,38,0
1,83,0,30
1,81,43,0
1,81,0,30
1,83,39,0
1,83,0,30
1,81,43,0
1,81,0,40
1,83,45,0
1,83,0,40
1,81,52,0
1,81,0,40
1,80,58,0
1,80,0,60
1,81,54,0
1,81,0,60
1,86,66,0
1,74,56,0
1,74,0,240
1,86,0,0
1,85,60,0
1,73,50,0
1,73,0,240
1,85,0,0
1,71,53,0
1,83,62,0
1,83,0,240
1,71,0,0
1,78,40,120
1,78,0,120
1,71,38,0
1,83,45,0
1,83,0,240
1,71,0,0
1,69,34,0
1,81,40,0
1,81,0,240
1,69,0,0
1,67,37,0
1,79,44,0
1,79,0,240
1,67,0,0
1,74,60,120
1,74,0,120
1,79,66,0
1,67,56,0
1,67,0,240
1,79,0,0
1,78,60,0
1,66,50,0
1,66,0,240
1,78,0,0
1,76,62,0
1,76,0,120
1,83,56,0
1,83,0,120
1,81,50,0
1,81,0,60
1,79,46,0
1,79,0,60
1,78,50,0
1,78,0,60
1,76,46,0
1,76,0,60
1,74,50,0
1,74,0,240
1,76,45,0
1,76,0,240
1,77,53,0
1,77,0,240
1,78,49,0
1,78,0,240
1,86,66,0
1,86,0,240
1,85,60,0
1,85,0,30
1,86,54,0
1,86,0,30
1,85,60,0
1,85,0,30
1,86,55,0
1,86,0,30
1,85,60,0
1,85,0,30
1,86,55,0
1,86,0,30
1,85,60,0
1,85,0,30
1,86,55,0
1,86,0,30
1,83,62,0
1,83,0,240
1,78,40,120
1,78,0,120
1,83,45,0
1,83,0,240
1,81,48,0
1,81,0,30
1,83,42,0
1,83,0,30
1,81,50,0
1,81,0,30
1,83,44,0
1,83,0,30
1,81,49,0
1,81,0,30
1,83,42,0
1,83,0,30
1,81,50,0
1,81,0,30
1,83,47,0
1,83,0,30
1,79,44,0
1,79,0,240
1,74,60,120
1,74,0,120
1,79,66,0
1,79,0,240
1,78,57,3
1,78,0,30
1,79,54,0
1,79,0,30
1,78,59,0
1,78,0,30
1,79,54,0
1,79,0,30
1,78,57,0
1,78,0,30
1,79,52,0
1,79,0,30
1,78,56,0
1,78,0,30
1,79,52,0
1,76,62,27
1,79,0,3
1,76,0,117
1,83,58,0
1,83,0,120
1,81,55,0
1,81,0,60
1,79,47,0
1,79,0,60
1,78,50,0
1,78,0,60
1,76,46,0
1,76,0,60
1,74,47,0
1,74,0,60
1,78,47,60
1,78,0,60
1,81,53,60
1,81,0,360
1,80,46,0
1,80,0,120
1,79,46,0
1,79,0,120
1,78,44,0
1,78,0,120
1,83,53,0
1,83,0,80
1,79,48,0
1,79,0,80
1,76,47,0
1,76,0,77
1,76,50,3
1,76,0,30
1,78,45,0
1,78,0,30
1,76,50,0
1,76,0,30
1,78,45,0
1,78,0,30
1,76,50,0
1,76,0,30
1,78,45,0
1,78,0,30
1,76,50,0
1,76,0,30
1,78,45,0
1,78,0,30
1,76,50,0
1,76,0,30
1,78,45,0
1,78,0,30
1,76,50,0
1,76,0,30
1,78,44,0
1,78,0,30
1,76,50,0
1,76,0,30
1,78,45,0
1,78,0,30
1,76,50,0
1,76,0,30
1,78,45,0
1,78,0,30
1,76,50,0
1,76,0,40
1,78,45,0
1,78,0,40
1,76,55,0
1,76,0,40
1,74,62,0
1,74,0,60
1,76,59,0
1,76,0,60
1,74,65,0
1,74,0,120
1,73,53,0
1,73,0,120
1,74,59,0
1,74,0,120
1,76,54,0
1,76,0,120
1,74,53,0
1,74,0,120
1,72,51,0
1,72,0,120
1,71,48,0
1,71,0,120
1,70,45,0
1,70,0,120
1,71,50,0
1,71,0,180
1,74,42,0
1,74,0,60
1,72,50,0
1,72,0,180
1,71,47,0
1,71,0,60
1,69,50,0
1,69,0,240
1,71,46,0
1,71,0,240
1,72,50,0
1,72,0,120
1,74,44,0
1,74,0,30
1,72,40,0
1,72,0,30
1,71,44,0
1,71,0,30
1,72,40,0
1,72,0,30
1,76,46,0
1,76,0,120
1,74,47,0
1,74,0,120
1,72,47,0
1,72,0,240
1,71,51,0
1,71,0,240
1,67,65,0
1,72,65,0
1,72,0,120
1,67,0,0
1,71,61,120
1,67,61,0
1,67,0,120
1,71,0,0
1,76,67,120
1,67,67,0
1,67,0,120
1,76,0,0
1,74,47,240
1,67,47,0
1,67,0,120
1,74,0,0
1,72,50,0
1,72,0,120
1,69,42,0
1,69,0,120
1,71,50,0
1,71,0,120
1,67,42,0
1,67,0,120
1,67,50,0
1,71,50,0
1,71,0,240
1,67,0,0
1,66,44,0
1,69,44,0
1,69,0,240
1,66,0,0
1,71,50,0
1,71,0,120
1,72,44,0
1,72,0,30
1,71,40,0
1,71,0,30
1,69,44,0
1,69,0,30
1,71,40,0
1,71,0,30
1,72,48,0
1,72,0,180
1,71,47,0
1,71,0,60
1,69,50,0
1,69,0,240
1,71,46,0
1,71,0,240
1,72,50,0
1,72,0,120
1,73,50,0
1,73,0,120
1,76,46,0
1,76,0,120
1,74,49,0
1,74,0,120
1,72,47,0
1,72,0,180
1,74,47,0
1,74,0,30
1,72,47,0
1,72,0,30
1,71,51,0
1,71,0,240
1,67,65,0
1,72,65,0
1,72,0,120
1,67,0,0
1,71,61,120
1,67,61,0
1,67,0,120
1,71,0,0
1,67,67,120
1,76,67,0
1,76,0,120
1,78,62,0
1,78,0,120
1,79,65,0
1,79,0,120
1,67,0,0
1,72,47,0
1,72,0,120
1,71,50,0
1,71,0,240
1,69,47,0
1,69,0,27
1,71,47,0
1,71,0,26
1,69,47,0
1,71,47,26
