track,note,velocity,time
1,40,127,1584
1,35,127,50
1,40,127,288
1,42,127,192
1,44,127,0
1,42,127,18
1,40,127,0
1,35,127,0
1,38,127,96
1,42,127,72
1,41,83,82
1,41,83,66
1,29,95,280
1,30,103,1080
1,37,95,2
1,34,103,24
1,41,95,142
1,41,83,54
1,29,103,280
1,30,103,1070
1,37,103,388
1,34,103,0
1,41,83,130
1,41,71,62
1,29,95,286
1,40,103,1074
1,37,103,0
1,36,103,0
1,41,71,82
1,41,83,48
1,29,71,290
1,40,103,1072
1,37,103,16
1,36,95,386
1,41,71,56
1,41,71,46
1,29,83,290
1,38,115,2244
1,26,127,0
1,26,127,80
1,38,75,0
1,38,107,46
1,26,127,0
1,33,127,98
1,45,59,0
1,40,127,74
1,52,99,0
1,45,115,76
1,33,127,4
1,45,107,72
1,33,127,0
1,33,103,74
1,21,127,0
1,21,127,44
1,33,95,0
1,40,71,2
1,28,127,2
1,21,127,16
1,33,71,0
1,38,115,34
1,26,127,0
1,26,127,72
1,38,75,0
1,26,127,52
1,38,107,0
1,45,59,92
1,33,127,2
1,52,99,68
1,40,127,2
1,45,115,82
1,33,127,4
1,45,107,70
1,33,127,0
1,33,103,70
1,21,127,2
1,21,127,50
1,33,95,0
1,40,71,0
1,28,127,2
1,33,71,14
1,21,127,0
1,38,115,32
1,26,127,0
1,26,127,80
1,38,75,0
1,38,107,46
1,26,127,2
1,45,59,96
1,33,127,0
1,52,99,74
1,40,127,2
1,45,115,84
1,33,127,4
1,45,107,64
1,33,127,0
1,21,127,78
1,33,103,0
1,21,127,52
1,33,95,0
1,40,71,2
1,28,127,0
1,33,71,16
1,21,127,2
1,26,127,30
1,38,115,0
1,38,75,76
1,26,127,4
1,26,127,48
1,38,107,0
1,33,127,98
1,45,59,0
1,40,127,74
1,52,99,0
1,33,127,84
1,45,115,0
1,33,127,76
1,45,107,0
1,33,103,76
1,21,127,2
1,21,127,48
1,33,95,0
1,40,71,2
1,28,127,0
1,21,127,14
1,33,71,0
1,38,115,30
1,26,127,0
1,38,75,80
1,26,127,0
1,26,127,44
1,38,107,0
1,33,127,98
1,45,59,0
1,52,99,64
1,40,127,0
1,45,115,78
1,33,127,2
1,45,107,72
1,33,127,4
1,33,103,74
1,21,127,2
1,21,127,48
1,33,95,0
1,40,71,0
1,28,127,2
1,33,71,14
1,21,127,2
1,38,115,32
1,26,127,0
1,38,75,78
1,26,127,0
1,26,127,50
1,38,107,0
1,45,59,92
1,33,127,4
1,52,99,76
1,40,127,2
1,33,127,78
1,45,115,0
1,33,127,70
1,45,107,0
1,33,103,80
1,21,127,0
1,33,95,48
1,21,127,4
1,40,71,4
1,28,127,2
1,33,71,18
1,21,127,0
1,38,103,48
1,26,127,0
1,38,75,96
1,26,127,0
1,26,127,46
1,38,107,0
1,33,127,98
1,45,59,0
1,55,107,64
1,43,127,0
1,45,115,190
1,33,127,4
1,33,127,66
1,45,107,0
1,33,103,76
1,21,127,2
1,21,127,46
1,33,95,0
1,40,71,0
1,28,127,2
1,21,127,12
1,33,71,0
1,38,115,30
1,26,127,0
1,26,127,78
1,38,75,0
1,38,107,48
1,26,127,2
1,33,127,92
1,45,59,0
1,40,127,64
1,52,99,0
1,33,127,80
1,45,115,0
1,45,107,82
1,33,127,0
1,21,127,78
1,33,103,0
1,33,95,48
1,21,127,2
1,28,127,0
1,40,71,0
1,33,71,18
1,21,127,2
1,38,115,42
1,26,127,76
1,38,75,0
1,26,127,50
1,38,107,0
1,33,127,94
1,45,59,0
1,54,99,60
1,42,127,0
1,45,115,192
1,33,127,0
1,33,127,80
1,45,107,0
1,21,127,88
1,33,103,0
1,21,127,44
1,33,95,0
1,28,127,0
1,40,71,0
1,21,127,24
1,33,71,0
1,38,115,32
1,26,127,0
1,26,127,70
1,38,75,0
1,26,127,48
1,38,107,0
1,33,127,98
1,45,59,0
1,40,127,72
1,52,99,0
1,33,127,84
1,45,115,0
1,33,127,74
1,45,107,0
1,21,127,76
1,33,103,0
1,21,127,42
1,33,95,0
1,28,127,0
1,40,71,0
1,21,127,18
1,33,71,0
1,38,115,34
1,26,127,4
1,38,75,66
1,26,127,2
1,38,107,42
1,26,127,2
1,45,59,94
1,33,127,2
1,52,99,62
1,40,127,4
1,33,127,82
1,45,115,0
1,45,107,72
1,33,127,4
1,21,127,80
1,33,103,0
1,21,127,46
1,33,95,0
1,40,71,2
1,28,127,0
1,21,127,20
1,33,71,0
1,38,115,34
1,26,127,0
1,38,75,70
1,26,127,0
1,26,127,38
1,38,107,0
1,33,127,98
1,45,59,0
1,52,99,64
1,40,127,4
1,33,127,76
1,45,115,0
1,45,107,68
1,33,127,2
1,33,103,72
1,21,127,0
1,21,127,52
1,33,95,0
1,40,71,2
1,28,127,0
1,21,127,14
1,33,71,0
1,38,115,32
1,38,75,76
1,26,127,4
1,38,107,48
1,26,127,0
1,33,127,96
1,45,59,0
1,40,127,72
1,52,99,0
1,45,115,80
1,33,127,4
1,45,107,70
1,33,127,2
1,21,127,66
1,33,103,0
1,33,95,48
1,21,127,2
1,40,71,4
1,28,127,0
1,33,71,16
1,21,127,0
1,38,115,32
1,26,127,0
1,38,75,80
1,26,127,0
1,26,127,48
1,38,107,0
1,33,127,96
1,45,59,0
1,40,127,78
1,52,99,0
1,45,115,78
1,33,127,2
1,45,107,76
1,33,127,2
1,33,103,72
1,21,127,2
1,21,127,48
1,33,95,0
1,40,71,0
1,28,127,2
1,33,71,14
1,21,127,2
1,26,127,32
1,38,115,0
1,38,75,74
1,26,127,2
1,26,127,48
1,38,107,0
1,45,59,98
1,33,127,0
1,52,99,62
1,40,127,2
1,45,115,78
1,33,127,2
1,45,107,74
1,33,127,4
1,21,127,70
1,33,103,0
1,21,127,46
1,33,95,0
1,40,71,0
1,28,127,0
1,33,71,18
1,21,127,2
1,38,115,30
1,26,127,4
1,38,75,78
1,26,127,2
1,38,107,48
1,26,127,2
1,33,127,96
1,45,59,0
1,52,99,62
1,40,127,0
1,33,127,78
1,45,115,0
1,45,107,70
1,33,127,2
1,33,103,72
1,21,127,2
1,21,127,48
1,33,95,0
1,40,71,0
1,28,127,4
1,33,71,18
1,21,127,2
1,38,115,36
1,26,127,0
1,38,75,80
1,26,127,2
1,38,107,48
1,26,127,0
1,46,59,94
1,34,127,4
1,55,99,64
1,43,127,0
1,33,103,168
1,21,127,0
1,33,95,50
1,21,127,0
1,40,71,0
1,28,127,0
1,33,71,16
1,21,127,2
1,38,115,30
1,26,127,6
1,38,75,82
1,26,127,2
1,38,107,50
1,26,127,0
1,45,59,94
1,33,127,4
1,54,99,66
1,42,127,2
1,45,115,188
1,33,127,2
1,45,107,62
1,33,127,2
1,33,103,82
1,21,127,0
1,33,95,48
1,21,127,2
1,40,71,0
1,28,127,0
1,33,71,16
1,21,127,0
1,38,115,48
1,38,75,82
1,26,127,0
1,26,127,48
1,38,107,0
1,33,127,94
1,45,59,0
1,43,127,76
1,55,99,0
1,45,115,190
1,33,127,2
1,45,107,72
1,33,127,4
1,21,127,88
1,33,103,0
1,21,127,52
1,33,95,0
1,28,127,0
1,40,71,0
1,21,127,26
1,33,71,0
1,38,115,44
1,26,127,2
1,38,75,74
1,26,127,2
1,26,127,48
1,38,107,0
1,45,59,96
1,33,127,2
1,52,99,74
1,40,127,4
1,33,127,86
1,45,115,0
1,45,107,82
1,33,127,2
1,33,103,80
1,21,127,2
1,21,127,48
1,33,95,0
1,28,127,2
1,40,71,0
1,21,127,22
1,33,71,0
1,26,127,32
1,38,115,0
1,38,75,84
1,26,127,2
1,38,107,48
1,26,127,2
1,33,127,92
1,45,59,0
1,40,127,68
1,52,99,0
1,45,115,86
1,33,127,2
1,33,127,76
1,45,107,0
1,21,127,80
1,33,103,0
1,21,127,54
1,33,95,0
1,40,71,2
1,28,127,0
1,33,71,22
1,21,127,2
1,26,127,40
1,38,115,0
1,26,127,78
1,38,75,0
1,26,127,58
1,38,107,0
1,33,127,90
1,45,59,0
1,52,99,68
1,40,127,2
1,33,127,80
1,45,115,0
1,45,107,78
1,33,127,0
1,33,103,72
1,21,127,0
1,33,95,52
1,21,127,2
1,40,71,0
1,28,127,6
1,33,71,20
1,21,127,2
1,26,127,32
1,38,115,0
1,38,75,68
1,26,127,2
1,26,127,56
1,38,107,0
1,45,59,90
1,33,127,0
1,40,127,64
1,52,99,0
1,45,115,78
1,33,127,2
1,45,107,78
1,33,127,0
1,33,103,76
1,21,127,0
1,33,95,46
1,21,127,4
1,41,71,0
1,29,127,2
1,29,71,16
1,29,115,34
1,29,75,76
1,36,107,52
1,36,59,2
1,41,99,146
1,41,115,80
1,41,107,82
1,36,103,80
1,36,95,48
1,29,71,0
1,29,75,0
1,36,107,50
1,36,59,2
1,41,99,126
1,41,115,80
1,41,107,80
1,36,103,78
1,36,95,48
1,29,71,2
1,29,75,0
1,36,107,50
1,36,59,0
1,41,99,128
1,41,115,76
1,41,107,80
1,36,103,82
1,36,95,48
1,29,71,0
1,29,75,2
1,36,107,48
1,36,59,0
1,41,99,130
1,41,115,80
1,41,107,80
1,36,103,78
1,36,95,48
1,29,71,2
1,29,75,0
1,36,107,50
1,36,59,2
1,41,99,128
1,41,115,80
1,41,107,82
1,36,103,80
1,36,95,56
1,29,71,0
1,29,75,2
1,36,107,48
1,36,59,2
1,41,99,132
1,41,115,80
1,41,107,78
1,36,103,80
1,36,95,50
1,29,71,0
1,29,75,2
1,36,107,54
1,36,59,0
1,41,99,130
1,41,115,80
1,41,107,76
1,36,103,72
1,36,95,42
1,29,71,0
1,29,75,0
1,36,107,50
1,36,59,0
1,41,99,130
1,41,115,74
1,41,107,76
1,36,103,74
1,36,95,40
1,29,71,0
1,29,75,0
1,36,107,46
1,36,59,2
1,41,99,138
1,41,115,78
1,41,107,72
1,36,103,72
1,36,95,46
1,29,71,2
1,29,75,2
1,36,107,46
1,36,59,0
1,41,99,130
1,41,115,80
1,41,107,74
1,36,103,74
1,36,95,74
1,29,71,2
1,29,75,2
1,36,107,50
1,36,59,0
1,41,99,128
1,41,115,80
1,41,107,78
1,36,103,78
1,36,95,44
1,29,71,2
1,29,75,2
1,32,107,144
1,33,59,96
1,34,115,34
1,45,111,672
1,50,83,34
1,38,99,40
1,38,75,94
1,38,107,48
1,45,59,96
1,52,99,66
1,33,103,166
1,33,95,48
1,40,71,0
1,33,71,18
1,38,115,32
1,38,75,82
1,38,107,48
1,45,59,96
1,53,99,68
1,45,115,188
1,45,107,80
1,33,103,82
1,33,95,50
1,40,71,0
1,33,71,14
1,38,115,32
1,38,75,82
1,38,107,50
1,45,59,94
1,55,99,62
1,45,115,192
1,45,107,78
1,33,103,80
1,33,95,48
1,40,71,0
1,33,71,16
1,38,115,34
1,38,75,78
1,38,107,46
1,45,59,100
1,53,99,72
1,45,115,76
1,45,107,70
1,33,103,72
1,33,95,48
1,40,71,2
1,33,71,14
1,38,115,34
1,38,75,76
1,38,107,46
1,45,59,94
1,52,99,64
1,45,115,68
1,45,107,70
1,33,103,74
1,33,95,46
1,40,71,0
1,33,71,18
1,38,115,36
1,38,75,76
1,38,107,48
1,45,59,94
1,52,99,60
1,45,115,74
1,45,107,82
1,33,103,72
1,33,95,52
1,40,71,0
1,33,71,16
1,38,115,34
1,38,75,70
1,38,107,44
1,45,59,96
1,52,99,56
1,45,115,76
1,45,107,72
1,33,103,70
1,33,95,50
1,40,71,0
1,33,71,16
1,38,115,32
1,38,75,76
1,38,107,44
1,45,59,98
1,52,99,62
1,45,115,80
1,45,107,72
1,33,103,70
1,33,95,50
1,40,71,0
1,33,71,16
1,38,115,32
1,38,75,76
1,38,107,48
1,45,59,94
1,52,99,64
1,45,115,80
1,45,107,78
1,33,103,72
1,33,95,48
1,40,71,2
1,33,71,16
1,38,115,34
1,26,127,0
1,38,75,80
1,26,127,2
1,38,107,48
1,26,127,2
1,45,59,92
1,33,127,0
1,40,127,62
1,52,99,0
1,45,115,80
1,33,127,2
1,45,107,84
1,33,127,2
1,33,103,74
1,21,127,4
1,33,95,48
1,21,127,2
1,40,71,2
1,28,127,2
1,21,127,14
1,33,71,0
1,38,115,30
1,26,127,0
1,38,75,80
1,26,127,0
1,26,127,50
1,38,107,0
1,45,59,92
1,33,127,4
1,40,127,64
1,52,99,0
1,45,115,80
1,33,127,2
1,45,107,78
1,33,127,2
1,33,103,78
1,21,127,0
1,33,95,48
1,21,127,2
1,40,71,0
1,28,127,6
1,33,71,16
1,21,127,0
1,38,103,48
1,26,127,0
1,38,75,112
1,26,127,2
1,38,107,46
1,26,127,2
1,33,127,94
1,45,59,0
1,43,127,62
1,55,107,0
1,45,115,192
1,33,127,2
1,45,107,72
1,33,127,0
1,21,127,74
1,33,103,0
1,33,95,46
1,21,127,2
1,40,71,0
1,28,127,0
1,33,71,16
1,21,127,0
1,26,127,48
1,38,115,0
1,38,75,78
1,26,127,2
1,38,107,48
1,26,127,2
1,45,59,94
1,33,127,0
1,40,127,80
1,52,99,0
1,33,127,86
1,45,115,0
1,45,107,76
1,33,127,2
1,33,103,68
1,21,127,2
1,33,95,48
1,21,127,2
1,28,127,0
1,40,71,0
1,33,71,14
1,21,127,2
1,26,127,48
1,38,115,0
1,38,75,84
1,26,127,2
1,38,107,52
1,26,127,2
1,33,127,90
1,45,59,0
1,42,127,72
1,54,99,0
1,33,127,184
1,45,115,0
1,33,127,76
1,45,107,0
1,33,103,76
1,21,127,2
1,21,127,46
1,33,95,0
1,40,71,2
1,28,127,2
1,33,71,22
1,21,127,2
1,26,127,36
1,38,115,0
1,26,127,76
1,38,75,0
1,38,107,52
1,26,127,2
1,33,127,92
1,45,59,0
1,40,127,72
1,52,99,0
1,33,127,80
1,45,115,0
1,45,107,78
1,33,127,2
1,33,103,78
1,21,127,2
1,21,127,44
1,33,95,0
1,28,127,0
1,40,71,0
1,33,71,20
1,21,127,2
1,38,115,34
1,26,127,0
1,26,127,70
1,38,75,0
1,38,107,46
1,26,127,2
1,33,127,100
1,45,59,0
1,52,99,62
1,40,127,0
1,45,115,74
1,33,127,2
1,45,107,68
1,33,127,2
1,33,103,74
1,21,127,0
1,33,95,44
1,21,127,4
1,40,71,0
1,28,127,0
1,33,71,16
1,21,127,2
1,38,115,32
1,26,127,0
1,38,75,80
1,26,127,0
1,26,127,46
1,38,107,0
1,45,59,100
1,33,127,2
1,52,99,76
1,40,127,4
1,45,115,88
1,33,127,2
1,45,107,76
1,33,127,0
1,33,103,78
1,21,127,2
1,33,95,50
1,21,127,2
1,40,71,2
1,28,127,2
1,21,127,20
1,33,71,0
1,38,115,36
1,26,127,0
1,26,127,80
1,38,75,0
1,38,107,52
1,26,127,2
1,33,127,90
1,45,59,0
1,52,99,76
1,40,127,2
1,45,115,70
1,33,127,2
1,45,107,72
1,33,127,2
1,33,103,68
1,21,127,2
1,33,95,46
1,21,127,2
1,40,71,0
1,28,127,4
1,33,71,18
1,21,127,0
1,38,115,32
1,26,127,0
1,38,75,76
1,26,127,4
1,26,127,46
1,38,107,0
1,33,127,102
1,45,59,0
1,52,99,64
1,40,127,0
1,45,115,82
1,33,127,2
1,45,107,76
1,33,127,0
1,33,103,76
1,21,127,2
1,21,127,48
1,33,95,0
1,40,71,2
1,28,127,0
1,33,71,18
1,21,127,0
1,38,115,32
1,26,127,0
1,38,75,76
1,26,127,2
1,38,107,46
1,26,127,0
1,45,59,94
1,33,127,2
1,52,99,64
1,40,127,4
1,45,115,76
1,33,127,0
1,45,107,62
1,33,127,0
1,33,103,82
1,21,127,0
1,33,95,48
1,21,127,2
1,40,71,0
1,28,127,0
1,33,71,16
1,21,127,2
1,26,127,32
1,38,115,0
1,38,75,80
1,26,127,0
1,26,127,46
1,38,107,0
1,33,127,98
1,45,59,0
1,52,99,64
1,40,127,0
1,45,115,80
1,33,127,2
1,45,107,72
1,33,127,0
1,33,103,74
1,21,127,2
1,33,95,48
1,21,127,4
1,40,71,0
1,28,127,0
