track,note,velocity,time
1,29,117,6144
1,29,117,144
1,29,117,100
1,29,117,196
1,29,117,112
1,24,117,204
1,29,117,68
1,29,117,240
1,29,117,68
1,29,117,208
1,29,117,84
1,29,117,208
1,29,117,72
1,24,117,208
1,29,117,84
1,29,117,232
1,29,117,112
1,29,117,224
1,29,117,72
1,29,117,212
1,29,117,72
1,24,117,196
1,29,117,80
1,29,117,216
1,29,117,64
1,29,117,204
1,29,117,64
1,29,117,196
1,29,117,64
1,24,117,200
1,29,117,72
1,29,117,80
1,29,117,224
1,29,117,144
1,29,117,100
1,29,117,196
1,29,117,112
1,24,117,204
1,29,117,68
1,29,117,240
1,29,117,68
1,29,117,208
1,29,117,84
1,29,117,208
1,29,117,72
1,24,117,208
1,29,117,84
1,29,117,232
1,29,117,112
1,29,117,224
1,29,117,72
1,29,117,212
1,29,117,72
1,24,117,196
1,29,117,80
1,29,117,216
1,29,117,64
1,29,117,204
1,29,117,64
1,29,117,196
1,29,117,64
1,24,117,200
1,29,117,72
1,29,117,80
1,29,117,224
1,29,117,144
1,29,117,100
1,29,117,196
1,29,117,112
1,24,117,204
1,29,117,68
1,29,117,240
1,29,117,68
1,29,117,208
1,29,117,84
1,29,117,208
1,29,117,72
1,24,117,208
1,29,117,84
1,29,117,232
1,29,117,112
1,29,117,224
1,29,117,72
1,29,117,212
1,29,117,72
1,24,117,196
1,29,117,80
1,29,117,216
1,29,117,64
1,29,117,204
1,29,117,64
1,29,117,196
1,29,117,64
1,24,117,200
1,29,117,72
1,29,117,80
1,29,117,224
1,29,117,144
1,29,117,100
1,29,117,196
1,29,117,112
1,24,117,204
1,29,117,68
1,29,117,240
1,29,117,68
1,29,117,208
1,29,117,84
1,29,117,208
1,29,117,72
1,24,117,208
1,29,117,84
1,29,117,232
1,29,117,112
1,29,117,224
1,29,117,72
1,29,117,212
1,29,117,72
1,24,117,196
1,29,117,80
1,29,117,216
1,29,117,64
1,29,117,204
1,29,117,64
1,29,117,196
1,29,117,64
1,24,117,200
1,29,117,72
1,29,117,80
1,29,117,224
1,29,117,144
1,29,117,100
1,29,117,196
1,29,117,112
1,24,117,204
1,29,117,68
1,29,117,240
1,29,117,68
1,29,117,208
1,29,117,84
1,29,117,208
1,29,117,72
1,24,117,208
1,29,117,84
1,29,117,232
1,29,117,112
1,29,117,224
1,29,117,72
1,29,117,212
1,29,117,72
1,24,117,196
1,29,117,80
1,29,117,216
1,29,117,64
1,29,117,204
1,29,117,64
1,29,117,196
1,29,117,64
1,24,117,200
1,29,117,72
1,29,117,80
1,29,117,224
1,29,117,144
1,29,117,100
1,29,117,196
1,29,117,112
1,24,117,204
1,29,117,68
1,29,117,240
1,29,117,68
1,29,117,208
1,29,117,84
1,29,117,208
1,29,117,72
1,24,117,208
1,29,117,84
1,29,117,232
1,29,117,112
1,29,117,224
1,29,117,72
1,29,117,212
1,29,117,72
1,24,117,196
1,29,117,80
1,29,117,216
1,29,117,64
1,29,117,204
1,29,117,64
1,29,117,196
1,29,117,64
1,24,117,200
1,29,117,72
1,29,117,80
1,34,117,224
1,34,117,144
1,34,117,100
1,34,117,196
1,34,117,112
1,29,117,204
1,34,117,68
1,34,117,240
1,34,117,68
1,34,117,208
1,34,117,84
1,34,117,208
1,34,117,72
1,29,117,208
1,34,117,84
1,34,117,232
1,34,117,112
1,34,117,224
1,34,117,72
1,34,117,212
1,34,117,72
1,29,117,196
1,34,117,80
1,34,117,216
1,34,117,64
1,34,117,204
1,34,117,64
1,34,117,196
1,34,117,64
1,29,117,200
1,34,117,72
1,34,117,80
1,29,117,224
1,29,117,144
1,29,117,100
1,29,117,196
1,29,117,112
1,24,117,204
1,29,117,68
1,29,117,240
1,29,117,68
1,29,117,208
1,29,117,84
1,29,117,208
1,29,117,72
1,24,117,208
1,29,117,84
1,29,117,232
1,29,117,112
1,29,117,224
1,29,117,72
1,29,117,212
1,29,117,72
1,24,117,196
1,29,117,80
1,29,117,216
1,29,117,64
1,29,117,204
1,29,117,64
1,29,117,196
1,29,117,64
1,24,117,200
1,29,117,72
1,29,117,80
1,34,117,224
1,34,117,176
1,34,117,72
1,34,117,188
1,34,117,76
1,29,117,160
1,34,117,72
1,29,117,200
1,36,117,92
1,36,117,164
1,36,117,84
1,36,117,196
1,36,117,64
1,31,117,160
1,36,117,56
1,31,117,184
1,29,117,64
1,29,117,156
1,29,117,56
1,29,117,188
1,29,117,88
1,24,117,148
1,29,117,64
1,24,117,168
1,26,117,68
1,26,117,204
1,26,117,60
1,26,117,180
1,26,117,68
1,26,117,196
1,26,117,92
1,26,117,216
1,34,117,72
1,34,117,176
1,34,117,56
1,34,117,180
1,34,117,60
1,29,117,172
1,34,117,72
1,29,117,176
1,36,117,72
1,36,117,168
1,36,117,56
1,36,117,188
1,36,117,64
1,31,117,152
1,36,117,68
1,31,117,180
1,29,117,76
1,29,117,192
1,29,117,84
1,29,117,200
1,29,117,72
1,24,117,188
1,29,117,84
1,29,117,192
1,29,117,68
1,29,117,196
1,29,117,80
1,29,117,188
1,29,117,68
1,24,117,176
1,29,117,80
1,29,117,188
1,29,117,88
1,29,117,144
1,29,117,100
1,29,117,196
1,29,117,112
1,24,117,204
1,29,117,68
1,29,117,240
1,29,117,68
1,29,117,208
1,29,117,84
1,29,117,208
1,29,117,72
1,24,117,208
1,29,117,84
1,29,117,232
1,29,117,112
1,29,117,224
1,29,117,72
1,29,117,212
1,29,117,72
1,24,117,196
1,29,117,80
1,29,117,216
1,29,117,64
1,29,117,204
1,29,117,64
1,29,117,196
1,29,117,64
1,24,117,200
1,29,117,72
1,29,117,80
1,29,117,224
1,29,117,144
1,29,117,100
1,29,117,196
1,29,117,112
1,24,117,204
1,29,117,68
1,29,117,240
1,29,117,68
1,29,117,208
1,29,117,84
1,29,117,208
1,29,117,72
1,24,117,208
1,29,117,84
1,29,117,232
1,29,117,112
1,29,117,224
1,29,117,72
1,29,117,212
1,29,117,72
1,24,117,196
1,29,117,80
1,29,117,216
1,29,117,64
1,29,117,204
1,29,117,64
1,29,117,196
1,29,117,64
1,24,117,200
1,29,117,72
1,29,117,80
1,34,117,224
1,34,117,144
1,34,117,100
1,34,117,196
1,34,117,112
1,29,117,204
1,34,117,68
1,34,117,240
1,34,117,68
1,34,117,208
1,34,117,84
1,34,117,208
1,34,117,72
1,29,117,208
1,34,117,84
1,34,117,232
1,34,117,112
1,34,117,224
1,34,117,72
1,34,117,212
1,34,117,72
1,29,117,196
1,34,117,80
1,34,117,216
1,34,117,64
1,34,117,204
1,34,117,64
1,34,117,196
1,34,117,64
1,29,117,200
1,34,117,72
1,34,117,80
1,29,117,224
1,29,117,144
1,29,117,100
1,29,117,196
1,29,117,112
1,24,117,204
1,29,117,68
1,29,117,240
1,29,117,68
1,29,117,208
1,29,117,84
1,29,117,208
1,29,117,72
1,24,117,208
1,29,117,84
1,29,117,232
1,29,117,112
1,29,117,224
1,29,117,72
1,29,117,212
1,29,117,72
1,24,117,196
1,29,117,80
1,29,117,216
1,29,117,64
1,29,117,204
1,29,117,64
1,29,117,196
1,29,117,64
1,24,117,200
1,29,117,72
1,29,117,80
1,34,117,224
1,34,117,176
1,34,117,72
1,34,117,188
1,34,117,76
1,29,117,160
1,34,117,72
1,29,117,200
1,36,117,92
1,36,117,164
1,36,117,84
1,36,117,196
1,36,117,64
1,31,117,160
1,36,117,56
1,31,117,184
1,29,117,64
1,29,117,156
1,29,117,56
1,29,117,188
1,29,117,88
1,24,117,148
1,29,117,64
1,24,117,168
1,26,117,68
1,26,117,204
1,26,117,60
1,26,117,180
1,26,117,68
1,26,117,196
1,26,117,92
1,26,117,216
1,34,117,72
1,34,117,176
1,34,117,56
1,34,117,180
1,34,117,60
1,29,117,172
1,34,117,72
1,29,117,176
1,36,117,72
1,36,117,168
1,36,117,56
1,36,117,188
1,36,117,64
1,31,117,152
1,36,117,68
1,31,117,180
1,29,117,76
1,29,117,192
1,29,117,84
1,29,117,200
1,29,117,72
1,24,117,188
1,29,117,84
1,29,117,192
1,29,117,68
1,29,117,196
1,29,117,80
1,29,117,188
1,29,117,68
1,24,117,176
1,29,117,80
1,29,117,188
1,29,117,88
1,29,117,144
1,29,117,100
1,29,117,196
1,29,117,112
1,24,117,204
1,29,117,68
1,29,117,240
1,29,117,68
1,29,117,208
1,29,117,84
1,29,117,208
1,29,117,72
1,24,117,208
1,29,117,84
1,29,117,232
1,29,117,112
1,29,117,224
1,29,117,72
1,29,117,212
1,29,117,72
1,24,117,196
1,29,117,80
1,29,117,216
1,29,117,64
1,29,117,204
1,29,117,64
1,29,117,196
1,29,117,64
1,24,117,200
1,29,117,72
1,29,117,80
1,34,117,224
1,34,117,144
1,34,117,100
1,34,117,196
1,34,117,112
1,29,117,204
1,34,117,68
1,34,117,240
1,34,117,68
1,34,117,208
1,34,117,84
1,34,117,208
1,34,117,72
1,29,117,208
1,34,117,84
1,34,117,232
1,29,117,112
1,29,117,224
1,29,117,72
1,29,117,212
1,29,117,72
1,24,117,196
1,29,117,80
1,29,117,216
1,29,117,64
1,29,117,204
1,29,117,64
1,29,117,196
1,29,117,64
1,24,117,200
1,29,117,72
1,29,117,80
1,34,117,224
1,34,117,144
1,34,117,100
1,34,117,196
1,34,117,112
1,29,117,204
1,34,117,68
1,34,117,240
1,36,117,68
1,36,117,208
1,36,117,84
1,36,117,208
1,36,117,72
1,31,117,208
1,36,117,84
1,36,117,232
1,29,117,112
1,29,117,224
1,29,117,72
1,29,117,212
1,29,117,72
1,24,117,196
1,29,117,80
1,29,117,216
1,29,117,64
1,29,117,204
1,29,117,64
1,29,117,196
1,29,117,64
1,24,117,200
1,29,117,72
1,29,117,80
1,29,117,224
1,29,117,144
1,29,117,100
1,29,117,196
1,29,117,112
1,24,117,204
1,29,117,68
1,29,117,240
1,29,117,68
1,29,117,208
1,29,117,84
1,29,117,208
1,29,117,72
1,24,117,208
1,29,117,84
1,29,117,232
1,29,117,112
1,29,117,224
1,29,117,72
1,29,117,212
1,29,117,72
1,24,117,196
1,29,117,80
1,29,117,216
1,29,117,64
1,29,117,204
1,29,117,64
1,29,117,196
1,29,117,64
1,24,117,200
1,29,117,72
1,29,117,80
1,29,117,224
1,29,117,144
1,29,117,100
1,29,117,196
1,29,117,112
1,24,117,204
1,29,117,68
1,29,117,240
1,29,117,68
1,29,117,208
1,29,117,84
1,29,117,208
1,29,117,72
1,24,117,208
1,29,117,84
1,29,117,232
1,29,117,112
1,29,117,224
1,29,117,72
1,29,117,212
1,29,117,72
1,24,117,196
1,29,117,80
1,29,117,216
1,29,117,64
1,29,117,204
1,29,117,64
1,29,117,196
1,29,117,64
1,24,117,200
1,29,117,72
1,29,117,80
1,34,117,224
1,34,117,176
1,34,117,72
1,34,117,188
1,34,117,76
1,29,117,160
1,34,117,72
1,29,117,200
1,36,117,92
1,36,117,164
1,36,117,84
1,36,117,196
1,36,117,64
1,31,117,160
1,36,117,56
1,31,117,184
1,29,117,64
1,29,117,156
1,29,117,56
1,29,117,188
1,29,117,88
1,24,117,148
1,29,117,64
1,24,117,168
1,26,117,68
1,26,117,204
1,26,117,60
1,26,117,180
1,26,117,68
1,26,117,196
1,26,117,92
1,26,117,216
1,34,117,72
1,34,117,176
1,34,117,56
1,34,117,180
1,34,117,60
1,29,117,172
1,34,117,72
1,29,117,176
1,36,117,72
1,36,117,168
1,36,117,56
1,36,117,188
1,36,117,64
1,31,117,152
1,36,117,68
1,31,117,180
1,29,117,76
1,29,117,192
1,29,117,84
1,29,117,200
1,29,117,72
1,24,117,188
1,29,117,84
1,29,117,192
1,29,117,68
1,29,117,196
1,29,117,80
1,29,117,188
1,29,117,68
1,24,117,176
1,29,117,80
1,29,117,188
1,34,117,88
1,34,117,176
1,34,117,72
1,34,117,188
1,34,117,76
1,29,117,160
1,34,117,72
1,29,117,200
1,36,117,92
1,36,117,164
1,36,117,84
1,36,117,196
1,36,117,64
1,31,117,160
1,36,117,56
1,31,117,184
1,29,117,64
1,29,117,156
1,29,117,56
1,29,117,188
1,29,117,88
1,24,117,148
1,29,117,64
1,24,117,168
1,26,117,68
1,26,117,204
1,26,117,60
1,26,117,180
1,26,117,68
1,26,117,196
1,26,117,92
1,26,117,216
1,34,117,72
1,34,117,176
1,34,117,56
1,34,117,180
1,34,117,60
1,29,117,172
1,34,117,72
1,29,117,176
1,36,117,72
1,36,117,168
1,36,117,56
1,36,117,188
1,36,117,64
1,31,117,152
1,36,117,68
1,31,117,180
1,29,117,76
1,29,117,192
1,29,117,84
1,29,117,200
1,29,117,72
1,24,117,188
1,29,117,84
1,29,117,192
1,29,117,68
1,29,117,196
1,29,117,80
1,29,117,188
1,29,117,68
1,24,117,176
1,29,117,80
1,29,117,188
1,34,117,88
1,34,117,176
1,34,117,56
1,34,117,180
1,34,117,60
1,29,117,172
1,34,117,72
1,29,117,176
1,36,117,72
1,36,117,168
1,36,117,56
1,36,117,188
1,36,117,64
1,31,117,152
1,36,117,68
1,31,117,180
1,29,117,76
1,29,117,192
1,29,117,84
1,29,117,200
1,29,117,72
1,24,117,188
1,29,117,84
1,29,117,192
1,29,117,68
1,29,117,196
1,29,117,80
1,29,117,188
1,29,117,68
1,24,117,176
1,29,117,80
1,29,117,188
1,34,117,88
1,34,117,176
1,34,117,56
1,34,117,180
1,34,117,60
1,29,117,172
1,34,117,72
1,29,117,176
1,36,117,72
1,36,117,168
1,36,117,56
1,36,117,188
1,36,117,64
1,31,117,152
1,36,117,68
1,31,117,180
1,29,117,76
1,29,117,192
1,29,117,84
1,29,117,200
1,29,117,72
1,24,117,188
1,29,117,84
1,29,117,192
1,29,117,68
1,29,117,196
1,29,117,80
1,29,117,188
1,29,117,68
1,24,117,176
1,29,117,80
1,29,117,188
1,29,117,104
2,53,117,5892
2,48,117,8
2,41,117,3120
2,48,117,132
2,53,117,4
2,41,117,3092
3,65,107,30720
3,69,107,0
3,72,107,0
3,70,107,84
3,74,107,8
3,69,107,108
3,72,107,4
3,65,107,96
3,70,107,0
3,74,107,0
3,70,107,388
3,67,107,104
3,72,107,8
3,76,107,4
3,69,107,128
3,72,107,8
3,65,107,4
3,69,107,88
3,74,107,8
3,65,107,8
3,65,107,60
3,70,107,4
3,74,107,8
3,67,107,116
3,72,107,4
3,76,107,8
3,69,107,132
3,72,107,0
3,65,107,4
3,65,107,76
3,69,107,0
3,72,107,0
3,70,107,48
3,74,107,12
3,65,107,8
3,65,107,60
3,69,107,8
3,72,107,8
3,65,107,112
3,70,107,0
3,74,107,0
3,70,107,388
3,67,107,104
3,72,107,8
3,76,107,4
3,69,107,128
3,72,107,8
3,65,107,4
3,69,107,88
3,74,107,8
3,65,107,8
3,65,107,60
3,70,107,4
3,74,107,8
3,67,107,116
3,72,107,4
3,76,107,8
3,69,107,132
3,72,107,0
3,65,107,4
3,69,107,76
3,72,107,0
3,65,107,4
3,70,107,116
3,74,107,12
3,69,107,72
3,65,107,4
3,72,107,12
3,70,107,132
3,74,107,16
3,65,107,20
3,72,107,124
3,67,107,4
3,76,107,4
3,69,107,132
3,72,107,4
3,65,107,8
3,65,107,0
3,69,107,0
3,72,107,0
3,65,107,100
3,70,107,0
3,74,107,0
3,70,107,388
3,67,107,104
3,72,107,8
3,76,107,4
3,69,107,128
3,72,107,8
3,65,107,4
3,69,107,88
3,74,107,8
3,65,107,8
3,65,107,60
3,70,107,4
3,74,107,8
3,67,107,116
3,72,107,4
3,76,107,8
3,69,107,132
3,72,107,0
3,65,107,4
3,65,107,76
3,70,107,0
3,74,107,0
3,70,107,388
3,67,107,104
3,72,107,8
3,76,107,4
3,69,107,128
3,72,107,8
3,65,107,4
3,69,107,88
3,74,107,8
3,65,107,8
3,65,107,60
3,70,107,4
3,74,107,8
3,67,107,116
3,72,107,4
3,76,107,8
3,69,107,132
3,72,107,0
3,65,107,4
3,65,107,92
3,70,107,0
3,74,107,0
3,67,107,116
3,72,107,4
