track,note,velocity,time
3,38,93,960
3,38,0,99
3,38,98,21
3,38,0,99
3,38,98,21
3,38,0,102
3,38,98,18
3,38,0,97
3,38,93,23
3,38,0,108
3,38,107,12
3,38,0,100
3,31,107,20
3,31,0,116
3,29,107,4
3,38,102,120
3,29,0,1
3,38,0,93
3,38,98,26
3,38,0,97
3,38,98,23
3,38,0,100
3,38,98,20
3,38,0,97
3,38,98,23
3,38,0,102
3,38,107,18
3,38,0,120
3,29,107,0
3,29,0,114
3,36,102,6
3,36,0,91
3,38,93,29
3,38,0,99
3,38,98,21
3,38,0,99
3,38,98,21
3,38,0,102
3,38,98,18
3,38,0,97
3,38,93,23
3,38,0,108
3,38,107,12
3,38,0,100
3,31,107,20
3,31,0,116
3,29,107,4
3,38,102,120
3,29,0,1
3,38,0,93
3,38,98,26
3,38,0,97
3,38,98,23
3,38,0,100
3,38,98,20
3,38,0,97
3,38,98,23
3,38,0,102
3,38,107,18
3,38,0,120
3,29,107,0
3,29,0,114
3,36,102,6
3,36,0,91
3,38,102,29
3,38,0,90
3,38,89,30
3,38,0,101
3,38,89,19
3,38,0,91
3,38,93,29
3,38,0,98
3,38,89,22
3,38,0,92
3,38,89,28
3,38,0,95
3,38,98,25
3,38,0,92
3,38,89,28
3,38,0,116
3,34,89,4
3,34,0,98
3,34,85,22
3,34,0,92
3,34,93,28
3,34,0,88
3,34,93,32
3,34,0,91
3,34,93,29
3,34,0,95
3,34,89,25
3,34,0,93
3,34,89,27
3,34,0,118
3,36,98,2
3,36,0,91
3,38,107,29
3,38,0,91
3,38,102,29
3,38,0,90
3,38,93,30
3,38,0,94
3,38,93,26
3,38,0,90
3,38,102,30
3,38,0,82
3,38,93,38
3,38,0,91
3,38,98,29
3,38,0,89
3,38,102,31
3,38,0,114
3,34,93,6
3,34,0,100
3,34,89,20
3,34,0,93
3,34,93,27
3,34,0,91
3,34,93,29
3,34,0,101
3,34,98,19
3,34,0,84
3,34,98,36
3,34,0,96
3,34,98,24
3,34,0,96
3,34,93,24
3,34,0,92
3,31,93,28
3,31,0,104
3,31,98,16
3,31,0,94
3,31,102,26
3,31,0,93
3,31,102,27
3,31,0,104
3,33,98,16
3,33,0,95
3,33,98,25
3,33,0,97
3,33,93,23
3,33,0,88
3,33,102,32
3,33,0,104
3,31,107,16
3,31,0,97
3,31,98,23
3,31,0,92
3,31,98,28
3,31,0,94
3,31,102,26
3,31,0,103
3,33,102,17
3,33,0,93
3,33,102,27
3,33,0,85
3,33,102,35
3,33,0,85
3,33,98,35
3,33,0,65
3,38,107,55
3,38,0,94
3,38,107,26
3,38,0,97
3,38,98,23
3,38,0,100
3,38,98,20
3,38,0,115
3,29,93,5
3,29,0,97
3,29,102,23
3,29,0,92
3,29,93,28
3,29,0,91
3,29,93,29
3,29,0,84
3,31,98,36
3,31,0,99
3,31,89,21
3,31,0,90
3,31,98,30
3,31,0,86
3,31,98,34
3,31,0,100
3,34,89,20
3,34,0,88
3,34,93,32
3,34,0,95
3,34,102,25
3,34,0,85
3,34,93,35
3,34,0,68
3,38,93,52
3,38,0,93
3,38,89,27
3,38,0,92
3,38,89,28
3,38,0,94
3,38,93,26
3,38,0,120
3,29,89,0
3,29,0,88
3,29,93,32
3,29,0,100
3,29,93,20
3,29,0,93
3,29,102,27
3,29,0,87
3,31,102,33
3,31,0,91
3,31,98,29
3,31,0,96
3,31,107,24
3,31,0,89
3,31,98,31
3,31,0,95
3,34,98,25
3,34,0,93
3,34,102,27
3,34,0,86
3,34,107,34
3,34,0,43
3,38,93,197
3,38,0,99
3,38,98,21
3,38,0,99
3,38,98,21
3,38,0,102
3,38,98,18
3,38,0,97
3,38,93,23
3,38,0,108
3,38,107,12
3,38,0,100
3,31,107,20
3,31,0,116
3,29,107,4
3,38,102,120
3,29,0,1
3,38,0,93
3,38,98,26
3,38,0,97
3,38,98,23
3,38,0,100
3,38,98,20
3,38,0,97
3,38,98,23
3,38,0,102
3,38,107,18
3,38,0,120
3,29,107,0
3,29,0,114
3,36,102,6
3,36,0,91
3,38,102,29
3,38,0,90
3,38,89,30
3,38,0,101
3,38,89,19
3,38,0,91
3,38,93,29
3,38,0,98
3,38,89,22
3,38,0,92
3,38,89,28
3,38,0,95
3,38,98,25
3,38,0,92
3,38,89,28
3,38,0,116
3,34,89,4
3,34,0,98
3,34,85,22
3,34,0,92
3,34,93,28
3,34,0,88
3,34,93,32
3,34,0,91
3,34,93,29
3,34,0,95
3,34,89,25
3,34,0,93
3,34,89,27
3,34,0,118
3,36,98,2
3,36,0,91
3,38,107,29
3,38,0,91
3,38,102,29
3,38,0,90
3,38,93,30
3,38,0,94
3,38,93,26
3,38,0,90
3,38,102,30
3,38,0,82
3,38,93,38
3,38,0,91
3,38,98,29
3,38,0,89
3,38,102,31
3,38,0,114
3,34,93,6
3,34,0,100
3,34,89,20
3,34,0,93
3,34,93,27
3,34,0,91
3,34,93,29
3,34,0,101
3,34,98,19
3,34,0,84
3,34,98,36
3,34,0,96
3,34,98,24
3,34,0,96
3,34,93,24
3,34,0,92
3,31,93,28
3,31,0,104
3,31,98,16
3,31,0,94
3,31,102,26
3,31,0,93
3,31,102,27
3,31,0,104
3,33,98,16
3,33,0,95
3,33,98,25
3,33,0,97
3,33,93,23
3,33,0,88
3,33,102,32
3,33,0,104
3,31,107,16
3,31,0,97
3,31,98,23
3,31,0,92
3,31,98,28
3,31,0,94
3,31,102,26
3,31,0,103
3,33,102,17
3,33,0,93
3,33,102,27
3,33,0,85
3,33,102,35
3,33,0,85
3,33,98,35
3,33,0,65
3,33,107,55
3,33,0,95
3,33,107,25
3,33,0,110
3,45,107,10
3,40,98,80
3,45,0,12
3,33,113,28
3,40,0,11
3,33,0,72
3,38,107,37
3,38,0,94
3,38,107,26
3,38,0,97
3,38,98,23
3,38,0,100
3,38,98,20
3,38,0,115
3,29,93,5
3,29,0,97
3,29,102,23
3,29,0,92
3,29,93,28
3,29,0,91
3,29,93,29
3,29,0,84
3,31,98,36
3,31,0,99
3,31,89,21
3,31,0,90
3,31,98,30
3,31,0,86
3,31,98,34
3,31,0,100
3,34,89,20
3,34,0,88
3,34,93,32
3,34,0,95
3,34,102,25
3,34,0,85
3,34,93,35
3,34,0,68
3,38,93,52
3,38,0,93
3,38,89,27
3,38,0,92
3,38,89,28
3,38,0,94
3,38,93,26
3,38,0,120
3,29,89,0
3,29,0,88
3,29,93,32
3,29,0,100
3,29,93,20
3,29,0,93
3,29,102,27
3,29,0,87
3,31,102,33
3,31,0,91
3,31,98,29
3,31,0,96
3,31,107,24
3,31,0,89
3,31,98,31
3,31,0,95
3,34,98,25
3,34,0,93
3,34,102,27
3,34,0,86
3,34,107,34
3,34,0,43
3,38,93,197
3,38,0,99
3,38,98,21
3,38,0,99
3,38,98,21
3,38,0,102
3,38,98,18
3,38,0,97
3,38,93,23
3,38,0,108
3,38,107,12
3,38,0,100
3,31,107,20
3,31,0,116
3,29,107,4
3,29,0,120
3,28,107,0
3,28,0,96
3,28,102,24
3,28,0,93
3,28,107,27
3,28,0,93
3,28,107,27
3,28,0,95
3,28,107,25
3,28,0,91
3,28,102,29
3,28,0,95
3,28,107,25
3,28,0,95
3,28,102,25
3,28,0,97
3,35,93,23
3,35,0,88
3,35,93,32
3,35,0,99
3,35,98,21
3,35,0,88
3,35,93,32
3,35,0,96
3,35,98,24
3,35,0,83
3,35,93,37
3,35,0,87
3,35,102,33
3,35,0,86
3,35,107,34
3,35,0,113
3,28,107,7
3,28,0,99
3,28,107,21
3,28,0,94
3,28,102,26
3,28,0,104
3,28,102,16
3,28,0,101
3,28,107,19
3,28,0,114
3,40,107,6
3,40,0,117
3,28,102,3
3,28,0,100
3,28,107,20
3,28,0,104
3,35,89,16
3,35,0,95
3,35,102,25
3,35,0,93
3,35,98,27
3,35,0,88
3,35,98,32
3,35,0,86
3,35,98,34
3,35,0,88
3,35,98,32
3,35,0,89
3,35,98,31
3,35,0,91
3,35,107,29
3,35,0,66
3,41,107,54
3,41,0,89
3,41,93,31
3,41,0,105
3,41,93,15
3,41,0,98
3,41,93,22
3,41,0,99
3,41,102,21
3,41,0,96
3,41,98,24
3,41,0,96
3,41,98,24
3,41,0,92
3,41,107,28
3,41,0,118
3,36,89,2
3,36,0,95
3,36,98,25
3,36,0,90
3,36,93,30
3,36,0,87
3,36,93,33
3,36,0,95
3,36,89,25
3,36,0,88
3,36,102,32
3,36,0,81
3,36,98,39
3,36,0,98
3,36,98,22
3,36,0,103
3,38,113,17
3,38,0,101
3,38,107,19
3,38,0,88
3,38,98,32
3,38,0,77
3,38,98,43
3,38,0,93
3,38,102,27
3,38,0,88
3,38,113,32
3,38,0,66
3,34,107,54
3,34,0,103
3,34,98,17
3,34,0,91
3,34,98,29
3,34,0,91
3,34,98,29
3,34,0,88
3,34,98,32
3,34,0,94
3,34,98,26
3,34,0,84
3,34,102,36
3,34,0,92
3,34,98,28
3,34,0,74
3,31,102,46
3,31,0,87
3,31,102,33
3,31,0,84
3,31,98,36
3,31,0,89
3,31,93,31
3,31,0,90
3,31,98,30
3,31,0,93
3,31,102,27
3,31,0,96
3,31,89,24
3,31,0,88
3,31,93,32
3,31,0,92
3,33,98,28
3,33,0,97
3,33,93,23
3,33,0,83
3,33,102,37
3,33,0,85
3,33,102,35
3,33,0,84
3,33,102,36
3,33,0,84
3,33,102,36
3,33,0,89
3,33,102,31
3,33,0,80
3,33,107,40
3,33,0,61
3,28,107,59
3,28,0,96
3,28,102,24
3,28,0,93
3,28,107,27
3,28,0,93
3,28,107,27
3,28,0,95
3,28,107,25
3,28,0,91
3,28,102,29
3,28,0,95
3,28,107,25
3,28,0,95
3,28,102,25
3,28,0,97
3,35,93,23
3,35,0,88
3,35,93,32
3,35,0,99
3,35,98,21
3,35,0,88
3,35,93,32
3,35,0,96
3,35,98,24
3,35,0,83
3,35,93,37
3,35,0,87
3,35,102,33
3,35,0,86
3,35,107,34
3,35,0,113
3,28,107,7
3,28,0,99
3,28,107,21
3,28,0,94
3,28,102,26
3,28,0,104
3,28,102,16
3,28,0,101
3,28,107,19
3,28,0,114
3,40,107,6
3,40,0,117
3,28,102,3
3,28,0,100
3,28,107,20
3,28,0,104
3,35,89,16
3,35,0,95
3,35,102,25
3,35,0,93
3,35,98,27
3,35,0,88
3,35,98,32
3,35,0,86
3,35,98,34
3,35,0,88
3,35,98,32
3,35,0,89
3,35,98,31
3,35,0,91
3,35,107,29
3,35,0,66
3,41,107,54
3,41,0,89
3,41,93,31
3,41,0,105
3,41,93,15
3,41,0,98
3,41,93,22
3,41,0,99
3,41,102,21
3,41,0,96
3,41,98,24
3,41,0,96
3,41,98,24
3,41,0,92
3,41,107,28
3,41,0,118
3,36,89,2
3,36,0,95
3,36,98,25
3,36,0,90
3,36,93,30
3,36,0,87
3,36,93,33
3,36,0,95
3,36,89,25
3,36,0,88
3,36,102,32
3,36,0,81
3,36,98,39
3,36,0,98
3,36,98,22
3,36,0,103
3,38,113,17
3,38,0,101
3,38,107,19
3,38,0,88
3,38,98,32
3,38,0,77
3,38,98,43
3,38,0,93
3,38,102,27
3,38,0,88
3,38,113,32
3,38,0,66
3,34,107,54
3,34,0,103
3,34,98,17
3,34,0,91
3,34,98,29
3,34,0,91
3,34,98,29
3,34,0,88
3,34,98,32
3,34,0,94
3,34,98,26
3,34,0,84
3,34,102,36
3,34,0,92
3,34,98,28
3,34,0,74
3,31,102,46
3,31,0,87
3,31,102,33
3,31,0,84
3,31,98,36
3,31,0,89
3,31,93,31
3,31,0,90
3,31,98,30
3,31,0,93
3,31,102,27
3,31,0,96
3,31,89,24
3,31,0,88
3,31,93,32
3,31,0,92
3,33,98,28
3,33,0,97
3,33,93,23
3,33,0,83
3,33,102,37
3,33,0,85
3,33,102,35
3,33,0,84
3,33,102,36
3,33,0,84
3,33,102,36
3,33,0,89
3,33,102,31
3,33,0,80
3,33,107,40
3,33,0,61
3,38,107,59
3,38,0,94
3,38,107,26
3,38,0,97
3,38,98,23
3,38,0,100
3,38,98,20
3,38,0,115
3,29,93,5
3,29,0,97
3,29,102,23
3,29,0,92
3,29,93,28
3,29,0,91
3,29,93,29
3,29,0,84
3,31,98,36
3,31,0,99
3,31,89,21
3,31,0,90
3,31,98,30
3,31,0,86
3,31,98,34
3,31,0,100
3,34,89,20
3,34,0,88
3,34,93,32
3,34,0,95
3,34,102,25
3,34,0,85
3,34,93,35
3,34,0,68
3,38,93,52
3,114,1,0
3,114,0,1
3,38,0,92
3,38,89,27
3,38,0,92
3,38,89,28
3,38,0,94
3,38,93,26
3,38,0,120
3,29,89,0
3,29,0,88
3,29,93,32
3,29,0,100
3,29,93,20
3,29,0,93
3,29,102,27
3,29,0,87
3,31,102,33
3,31,0,91
3,31,98,29
3,31,0,96
3,31,107,24
3,31,0,89
3,31,98,31
3,31,0,95
3,34,98,25
3,34,0,93
3,34,102,27
3,34,0,86
3,34,107,34
3,34,0,43
3,38,107,197
3,38,0,94
3,38,107,26
3,38,0,97
3,38,98,23
3,38,0,100
3,38,98,20
3,38,0,115
3,29,93,5
3,29,0,97
3,29,102,23
3,29,0,92
3,29,93,28
3,29,0,91
3,29,93,29
3,29,0,84
3,31,98,36
3,31,0,99
3,31,89,21
3,31,0,90
3,31,98,30
3,31,0,86
3,31,98,34
3,31,0,100
3,34,89,20
3,34,0,88
3,34,93,32
3,34,0,95
3,34,102,25
3,34,0,85
3,34,93,35
3,34,0,68
3,38,93,52
3,38,0,93
3,38,89,27
3,38,0,92
3,38,89,28
3,38,0,94
3,38,93,26
3,38,0,120
3,29,89,0
3,29,0,88
3,29,93,32
3,29,0,100
3,29,93,20
3,29,0,93
3,29,102,27
3,29,0,87
3,31,102,33
3,31,0,91
3,31,98,29
3,31,0,96
3,31,107,24
3,31,0,89
3,31,98,31
3,31,0,95
3,34,98,25
3,34,0,93
3,34,102,27
3,34,0,86
3,34,107,34
3,34,0,43
3,38,107,197
3,38,0,94
3,38,107,26
3,38,0,97
3,38,98,23
3,38,0,100
3,38,98,20
3,38,0,115
3,29,93,5
3,29,0,97
3,29,102,23
3,29,0,92
3,29,93,28
3,29,0,91
3,29,93,29
3,29,0,84
3,31,98,36
3,31,0,99
3,31,89,21
3,31,0,90
3,31,98,30
3,31,0,86
3,31,98,34
3,31,0,100
3,34,89,20
3,34,0,88
3,34,93,32
3,34,0,95
3,34,102,25
3,34,0,85
3,34,93,35
3,34,0,68
3,38,93,52
3,38,0,93
3,38,89,27
3,38,0,92
3,38,89,28
3,38,0,94
3,38,93,26
3,38,0,120
3,29,89,0
3,29,0,88
3,29,93,32
3,29,0,100
3,29,93,20
3,29,0,93
3,29,102,27
3,29,0,87
3,31,102,33
3,31,0,91
3,31,98,29
3,31,0,96
3,31,107,24
3,31,0,89
3,31,98,31
3,31,0,95
3,34,107,25
3,34,0,94
3,34,113,26
3,34,0,73
3,33,113,47
3,33,0,104
3,38,127,16
3,38,0,58
3,38,119,22
3,38,0,64
4,62,113,960
4,69,107,0
4,65,113,0
4,62,0,21
4,65,0,5
4,69,0,3
4,57,93,11
4,50,98,0
4,50,0,18
4,57,0,1
4,62,89,19
4,69,93,0
4,65,98,0
4,62,0,21
4,65,0,2
4,69,0,2
4,50,113,1
4,57,113,0
4,57,0,22
4,50,0,2
4,62,85,16
4,69,85,0
4,65,93,0
4,69,0,17
4,65,0,2
4,62,0,1
4,57,102,20
4,50,107,0
4,50,0,20
4,57,0,2
4,62,98,18
4,65,107,0
4,69,98,0
4,65,0,11
4,62,0,1
4,69,0,2
4,62,93,15
4,65,98,0
4,69,98,0
4,65,0,23
4,62,0,1
4,69,0,3
4,50,113,13
4,57,107,0
4,50,0,19
4,57,0,1
4,62,93,19
4,69,98,0
4,65,98,0
4,62,0,24
4,65,0,3
4,69,0,2
4,57,93,11
4,50,107,0
4,57,0,16
4,50,0,2
4,62,89,22
4,69,93,0
