track,note,velocity,time
2,79,127,0
2,84,127,360
2,86,127,154
2,84,127,265
2,88,127,294
2,88,127,3
2,86,127,160
2,84,127,102
2,81,127,112
2,81,127,30
2,77,127,0
2,84,127,240
2,77,127,208
2,72,127,0
2,81,127,24
2,72,127,0
2,74,127,240
2,83,127,0
2,76,127,4
2,84,127,0
2,72,127,5
2,76,127,0
2,84,127,240
2,72,127,234
2,76,127,0
2,84,127,55
2,76,127,0
2,76,127,9
2,84,127,0
2,83,127,2
2,74,127,0
2,72,127,153
2,81,127,0
2,79,127,150
2,71,127,0
2,79,127,100
2,67,127,13
2,64,127,37
2,62,127,30
2,60,127,23
2,55,127,15
2,60,127,30
2,55,127,0
2,55,127,22
2,72,127,339
2,60,127,77
2,64,127,120
2,60,127,15
2,65,127,0
2,65,127,14
2,60,127,0
2,60,127,30
2,57,127,13
2,60,127,0
2,65,127,0
2,57,127,64
2,72,127,120
2,60,127,80
2,57,127,4
2,64,127,34
2,60,127,132
2,72,127,120
2,60,127,54
2,64,127,54
2,60,127,25
2,64,127,0
2,60,127,70
2,55,127,240
2,60,127,25
2,65,127,38
2,65,127,24
2,60,127,0
2,69,127,0
2,60,127,48
2,57,127,79
2,60,127,0
2,69,127,120
2,72,127,120
2,55,127,69
2,60,127,0
2,67,127,64
2,71,127,0
2,72,127,24
2,69,127,12
2,65,127,0
2,53,127,480
2,57,127,120
2,60,127,120
2,62,127,24
2,55,127,0
2,59,127,0
2,55,127,47
2,67,127,120
2,55,127,34
2,65,127,7
2,62,127,0
2,57,127,0
2,65,127,47
2,65,127,19
2,62,127,0
2,64,127,22
2,59,127,67
2,64,127,0
2,59,127,24
2,64,127,0
2,52,127,240
2,64,127,15
2,57,127,0
2,60,127,0
2,69,127,9
2,64,127,0
2,60,127,0
2,67,127,2
2,62,127,0
2,59,127,0
2,67,127,24
2,55,127,240
2,59,127,39
2,60,127,35
2,57,127,264
2,59,127,103
2,67,127,215
2,55,127,83
2,64,127,187
2,60,127,6
2,55,127,23
2,55,127,62
2,67,127,120
2,60,127,27
2,55,127,302
2,72,127,120
2,60,127,37
2,64,127,120
2,60,127,103
2,69,127,120
2,65,127,120
2,77,127,34
2,69,127,0
2,65,127,33
2,65,127,204
2,69,127,120
2,77,127,0
2,65,127,42
2,76,127,9
2,67,127,0
2,72,127,12
2,64,127,0
2,76,127,49
2,67,127,0
2,72,127,145
2,64,127,310
2,76,127,27
2,72,127,0
2,72,127,350
2,60,127,240
2,65,127,120
2,60,127,107
2,65,127,120
2,67,127,89
2,71,127,0
2,72,127,120
2,62,127,22
2,69,127,0
2,65,127,0
2,62,127,33
2,74,127,120
2,62,127,32
2,67,127,95
2,62,127,120
2,62,127,18
2,67,127,57
2,62,127,242
2,65,127,240
2,62,127,240
2,65,127,120
2,59,127,9
2,52,127,360
2,59,127,22
2,64,127,0
2,52,127,24
2,64,127,23
2,60,127,0
2,57,127,0
2,52,127,360
2,60,127,19
2,64,127,0
2,57,127,0
2,52,127,52
2,59,127,4
2,62,127,0
2,67,127,0
2,67,127,45
2,55,127,72
2,59,127,72
2,60,127,77
2,57,127,267
2,59,127,82
2,67,127,225
2,55,127,120
2,53,127,13
2,57,127,0
2,60,127,0
2,60,127,45
2,72,127,120
2,65,127,0
2,69,127,0
2,60,127,69
2,67,127,30
2,62,127,0
2,71,127,0
2,74,127,480
2,67,127,40
2,62,127,0
2,71,127,0
2,62,127,33
2,62,127,22
2,62,127,4
2,71,127,19
2,67,127,0
2,62,127,0
2,72,127,28
2,64,127,0
2,76,127,2
2,67,127,0
2,64,127,120
2,69,127,12
2,72,127,0
2,65,127,0
2,60,127,0
2,60,127,42
2,72,127,38
2,60,127,154
2,60,127,20
2,69,127,0
2,62,127,22
2,67,127,0
2,59,127,0
2,64,127,34
2,60,127,0
2,60,127,39
2,67,127,120
2,55,127,104
2,60,127,54
2,67,127,10
2,62,127,0
2,58,127,0
2,55,127,360
2,64,127,10
2,67,127,0
2,60,127,0
2,55,127,240
2,69,127,5
2,65,127,4
2,60,127,15
2,69,127,38
2,72,127,0
2,65,127,0
2,60,127,54
2,65,127,17
2,71,127,23
2,67,127,0
2,62,127,0
2,55,127,240
2,57,127,120
2,71,127,25
2,74,127,0
2,67,127,0
2,59,127,0
2,62,127,9
2,62,127,29
2,71,127,20
2,62,127,54
2,62,127,5
2,62,127,9
2,62,127,10
2,57,127,0
2,61,127,12
2,57,127,0
2,57,127,17
2,60,127,0
2,65,127,0
2,65,127,13
2,60,127,0
2,64,127,160
2,57,127,25
2,62,127,0
2,60,127,3
2,55,127,0
2,59,127,3
2,55,127,0
2,84,127,360
2,86,127,240
2,84,127,327
2,88,127,332
2,88,127,23
2,86,127,120
2,84,127,214
2,81,127,100
2,72,127,335
2,79,127,0
2,77,127,0
2,84,127,179
2,72,127,18
2,77,127,0
2,81,127,18
2,77,127,0
2,77,127,10
2,81,127,0
2,79,127,160
2,76,127,0
2,74,127,143
2,77,127,0
2,76,127,123
2,79,127,15
2,72,127,332
2,67,127,120
2,62,127,0
2,62,127,28
2,60,127,5
2,72,127,314
2,60,127,38
2,64,127,120
2,65,127,3
2,60,127,0
2,65,127,13
2,57,127,0
2,60,127,0
2,60,127,54
2,72,127,120
2,57,127,58
2,72,127,120
2,60,127,120
2,67,127,37
2,72,127,410
2,60,127,159
2,60,127,18
2,64,127,0
2,55,127,0
2,67,127,10
2,64,127,0
2,60,127,0
2,72,127,240
2,60,127,12
2,65,127,9
2,69,127,0
2,60,127,0
2,60,127,0
2,72,127,95
2,60,127,70
2,69,127,92
2,65,127,0
2,60,127,0
2,72,127,120
2,57,127,39
2,60,127,0
2,71,127,74
2,67,127,0
2,62,127,0
2,72,127,92
2,67,127,14
2,60,127,0
2,65,127,0
2,60,127,47
2,72,127,120
2,60,127,37
2,62,127,8
2,59,127,7
2,55,127,353
2,67,127,120
2,55,127,29
2,59,127,2
2,62,127,120
2,65,127,2
2,62,127,0
2,65,127,22
2,62,127,0
2,62,127,14
2,65,127,0
2,59,127,0
2,64,127,9
2,59,127,0
2,56,127,0
2,59,127,22
2,64,127,0
2,59,127,5
2,64,127,0
2,57,127,13
2,64,127,0
2,60,127,0
2,69,127,23
2,64,127,0
2,60,127,0
2,67,127,14
2,59,127,0
2,62,127,0
2,55,127,29
2,67,127,0
2,72,127,10
2,65,127,0
2,69,127,0
2,60,127,0
2,60,127,24
2,72,127,13
2,69,127,0
2,65,127,0
2,60,127,58
2,67,127,2
2,71,127,0
2,62,127,0
2,55,127,238
2,57,127,120
2,74,127,47
2,67,127,0
2,59,127,7
2,62,127,28
2,62,127,17
2,71,127,47
2,74,127,312
2,72,127,8
2,64,127,0
2,71,127,8
2,64,127,0
2,64,127,2
2,72,127,0
2,76,127,240
2,67,127,0
2,64,127,28
2,72,127,0
2,65,127,3
2,72,127,0
2,67,127,0
2,69,127,0
2,57,127,240
2,60,127,120
2,72,127,30
2,67,127,0
2,60,127,19
2,69,127,14
2,65,127,0
2,60,127,0
2,67,127,3
2,64,127,480
2,55,127,0
2,60,127,0
2,67,127,229
2,67,127,15
2,55,127,35
2,60,127,85
2,62,127,10
2,58,127,0
2,60,127,15
2,64,127,0
2,55,127,0
2,65,127,5
2,69,127,0
2,60,127,0
2,72,127,0
2,60,127,42
2,69,127,18
2,72,127,0
2,65,127,0
2,60,127,53
2,67,127,4
2,71,127,0
2,62,127,0
2,62,127,49
2,74,127,13
2,71,127,0
2,67,127,0
2,71,127,48
2,62,127,222
2,74,127,5
2,62,127,0
2,71,127,57
2,62,127,34
2,62,127,10
2,57,127,0
2,61,127,10
2,57,127,0
2,60,127,10
2,57,127,0
2,65,127,0
2,60,127,10
2,53,127,0
2,65,127,0
2,57,127,0
2,55,127,160
2,64,127,0
2,62,127,2
2,57,127,0
2,55,127,5
2,60,127,0
2,59,127,5
2,55,127,0
2,69,127,8
2,64,127,0
2,72,127,0
2,64,127,9
2,72,127,34
2,60,127,120
2,64,127,20
2,60,127,0
2,60,127,34
2,72,127,120
2,57,127,120
2,60,127,33
2,60,127,17
2,65,127,0
2,68,127,0
2,72,127,240
2,72,127,43
2,60,127,25
2,65,127,22
2,68,127,49
2,72,127,45
2,84,127,17
2,80,127,120
2,77,127,120
2,72,127,24
2,68,127,120
2,65,127,120
2,60,127,18
2,68,127,2
2,63,127,0
2,60,127,0
2,56,127,240
2,60,127,58
2,63,127,57
2,68,127,0
2,56,127,24
2,60,127,10
2,68,127,0
2,63,127,0
2,63,127,14
2,68,127,0
2,56,127,240
2,57,127,3
2,53,127,0
2,60,127,0
2,57,127,9
2,60,127,0
2,57,127,2
2,53,127,0
2,59,127,2
2,55,127,0
2,60,127,160
2,57,127,0
2,59,127,112
2,62,127,0
2,60,127,134
2,64,127,0
2,65,127,132
2,62,127,0
2,64,127,132
2,67,127,0
2,81,127,7
2,69,127,0
2,72,127,0
2,77,127,0
2,72,127,67
2,81,127,13
2,77,127,0
2,69,127,0
2,71,127,9
2,74,127,0
2,79,127,0
2,74,127,33
2,79,127,28
2,83,127,0
2,71,127,0
2,74,127,30
2,67,127,120
2,71,127,35
2,74,127,33
2,67,127,24
2,71,127,120
2,74,127,13
2,71,127,13
2,72,127,4
2,64,127,0
2,71,127,14
2,64,127,0
2,72,127,14
2,64,127,0
2,76,127,212
2,67,127,0
2,64,127,10
2,72,127,47
2,72,127,3
2,67,127,0
2,65,127,0
2,60,127,360
2,67,127,25
2,72,127,0
2,60,127,38
2,69,127,14
2,65,127,0
2,60,127,0
2,57,127,240
2,62,127,9
2,59,127,0
2,67,127,0
2,55,127,240
2,67,127,8
2,60,127,0
2,64,127,0
2,55,127,115
2,60,127,33
2,72,127,19
2,76,127,0
2,67,127,0
2,55,127,24
2,70,127,9
2,67,127,0
2,58,127,0
2,55,127,0
2,69,127,10
2,72,127,0
2,57,127,0
2,60,127,0
2,74,127,142
2,70,127,0
2,62,127,0
2,58,127,0
2,72,127,2
2,76,127,0
2,60,127,0
2,64,127,0
2,74,127,127
2,62,127,0
2,65,127,0
2,76,127,2
2,64,127,0
2,67,127,0
2,81,127,144
2,72,127,0
2,77,127,0
2,60,127,468
2,65,127,0
2,69,127,0
2,79,127,8
2,74,127,0
2,67,127,0
2,55,127,240
2,57,127,120
2,79,127,10
2,74,127,0
2,59,127,0
2,62,127,102
2,67,127,12
2,71,127,120
2,74,127,4
2,67,127,0
2,71,127,28
2,67,127,0
2,62,127,8
2,57,127,0
2,61,127,10
2,57,127,0
2,60,127,10
2,65,127,0
2,57,127,0
2,65,127,13
2,57,127,0
2,64,127,22
2,55,127,0
2,55,127,3
2,62,127,0
2,60,127,20
2,55,127,0
2,59,127,4
2,55,127,0
2,86,127,362
2,88,127,240
2,84,127,218
2,91,127,380
2,91,127,20
2,88,127,102
2,86,127,120
2,84,127,20
2,81,127,90
2,77,127,358
2,84,127,87
2,72,127,224
2,77,127,0
2,81,127,18
2,77,127,0
2,81,127,15
2,77,127,0
2,79,127,2
2,76,127,0
2,74,127,3
2,77,127,0
2,60,127,12
2,67,127,3
2,72,127,8
2,74,127,11
2,79,127,11
3,60,127,0
3,67,127,120
3,72,127,120
3,67,127,29
3,74,127,120
3,76,127,172
3,67,127,24
3,60,127,14
3,67,127,159
3,72,127,120
3,74,127,360
3,53,127,8
3,60,127,119
3,67,127,120
3,60,127,18
3,69,127,120
3,72,127,170
3,69,127,23
3,57,127,512
3,64,127,120
3,69,127,120
3,71,127,120
3,72,127,10
3,57,127,29
3,69,127,2
3,57,127,0
3,55,127,2
3,62,127,120
3,67,127,120
3,72,127,120
3,64,127,0
3,60,127,68
3,69,127,0
3,62,127,74
3,71,127,0
3,50,127,40
3,43,127,4
3,55,127,115
3,59,127,120
3,48,127,32
3,48,127,38
3,48,127,17
3,52,127,480
3,41,127,2
3,48,127,120
3,55,127,120
3,48,127,102
3,57,127,120
3,48,127,300
3,41,127,17
3,48,127,120
3,48,127,7
3,55,127,120
3,48,127,18
3,48,127,28
3,41,127,10
3,48,127,120
3,57,127,120
3,48,127,110
3,41,127,19
3,40,127,3
3,38,127,5
3,45,127,840
3,43,127,9
3,45,127,8
3,38,127,120
3,53,127,238
3,50,127,120
3,48,127,240
3,53,127,62
3,57,127,120
3,57,127,5
3,47,127,0
3,44,127,3
3,52,127,0
3,45,127,12
3,52,127,0
3,52,127,15
3,45,127,12
3,45,127,17
3,45,127,17
3,52,127,0
3,57,127,360
3,43,127,8
3,52,127,840
3,48,127,10
3,50,127,120
3,36,127,7
3,43,127,840
3,36,127,3
3,40,127,840
3,41,127,4
3,48,127,120
3,48,127,64
3,41,127,17
3,48,127,4
3,55,127,120
3,60,127,120
3,64,127,480
3,48,127,2
3,41,127,947
3,48,127,117
3,55,127,120
3,41,127,9
3,41,127,10
3,40,127,477
3,38,127,463
3,43,127,8
3,55,127,120
3,50,127,14
3,57,127,120
3,48,127,600
3,47,127,14
3,57,127,102
3,44,127,12
3,52,127,100
3,45,127,5
3,33,127,840
3,33,127,12
3,43,127,17
3,50,127,720
3,52,127,120
3,48,127,17
3,50,127,120
3,43,127,70
3,41,127,18
3,53,127,960
3,40,127,13
3,47,127,480
3,45,127,15
3,52,127,120
3,40,127,720
3,45,127,7
3,38,127,0
3,43,127,2
3,50,127,120
3,57,127,120
3,55,127,120
3,43,127,29
3,50,127,68
3,55,127,60
3,47,127,120
3,48,127,12
3,55,127,120
3,48,127,27
3,43,127,360
3,36,127,19
3,43,127,120
3,48,127,120
3,52,127,120
3,55,127,120
3,48,127,3
3,50,127,25
3,52,127,110
3,53,127,25
3,41,127,0
3,53,127,24
3,40,127,10
3,43,127,480
3,45,127,5
3,52,127,15
3,45,127,0
3,38,127,10
3,38,127,155
3,40,127,160
3,41,127,140
3,43,127,158
3,43,127,12
3,60,127,9
3,67,127,120
3,72,127,120
3,67,127,30
3,74,127,7
3,67,127,28
3,76,127,120
3,67,127,40
3,60,127,32
3,67,127,57
3,72,127,120
3,67,127,30
3,74,127,9
3,67,127,179
3,53,127,2
3,60,127,120
3,67,127,120
3,60,127,50
3,69,127,120
3,72,127,215
3,69,127,35
3,48,127,25
3,55,127,120
3,64,127,120
3,41,127,38
3,48,127,120
3,55,127,120
3,41,127,25
3,48,127,30
3,48,127,17
3,52,127,240
3,43,127,600
3,36,127,3
3,43,127,104
3,52,127,120
3,41,127,13
3,41,127,15
3,40,127,10
3,38,127,27
3,43,127,35
3,50,127,23
3,38,127,13
3,57,127,360
3,48,127,240
3,53,127,120
3,47,127,9
3,44,127,8
3,45,127,23
3,45,127,28
3,52,127,120
3,45,127,30
3,45,127,23
3,52,127,120
3,50,127,120
3,43,127,14
3,50,127,120
3,55,127,120
3,59,127,120
3,55,127,19
3,59,127,120
3,50,127,0
3,52,127,120
3,60,127,0
3,48,127,19
3,57,127,0
3,59,127,107
3,50,127,0
3,43,127,45
3,41,127,10
3,41,127,44
3,40,127,28
3,47,127,120
3,55,127,120
3,59,127,120
3,55,127,53
3,45,127,2
3,52,127,120
3,45,127,40
3,38,127,4
3,43,127,13
3,50,127,120
3,55,127,120
3,57,127,120
3,59,127,120
3,50,127,13
3,55,127,120
3,48,127,17
3,38,127,840
3,36,127,22
3,36,127,38
3,41,127,35
3,55,127,1320
3,57,127,120
3,59,127,54
3,62,127,87
3,52,127,10
3,62,127,0
3,45,127,35
3,52,127,0
3,38,127,52
3,38,127,162
3,40,127,160
3,41,127,10
3,43,127,160
3,50,127,0
3,43,127,9
3,50,127,0
3,45,127,39
3,52,127,120
3,57,127,120
3,60,127,120
3,45,127,35
3,45,127,10
3,44,127,35
3,44,127,18
3,44,127,69
3,43,127,13
3,41,127,14
3,41,127,32
3,43,127,22
3,43,127,19
3,43,127,18
3,41,127,12
3,48,127,120
3,57,127,120
3,41,127,34
3,40,127,4
3,47,127,120
3,55,127,120
3,59,127,120
3,45,127,4
3,52,127,120
3,57,127,120
3,38,127,13
