track,note,velocity,time
0,42,91,1
0,42,91,1
0,50,122,1
0,62,86,0
0,36,125,1
0,49,109,0
0,38,123,0
0,66,110,1
0,50,89,0
0,57,93,0
0,38,124,66
0,50,115,14
0,66,102,0
0,36,124,1
0,38,122,0
0,66,102,14
0,36,124,2
0,38,126,0
0,50,107,0
0,45,107,0
0,64,107,1
0,38,126,0
0,33,122,1
0,50,125,3
0,38,124,1
0,57,96,0
0,62,93,0
0,36,127,1
0,49,109,0
0,66,114,1
0,50,90,0
0,38,126,90
0,50,113,10
0,36,124,2
0,38,126,1
0,66,110,0
0,50,109,15
0,36,125,3
0,66,114,0
0,38,126,1
0,45,113,89
0,38,127,0
0,64,102,0
0,33,107,0
0,38,114,0
0,50,127,0
0,36,125,1
0,49,109,0
0,50,92,0
0,62,98,0
0,57,104,0
0,66,110,0
0,38,124,90
0,50,107,15
0,36,124,1
0,38,124,0
0,66,106,1
0,50,113,11
0,66,106,1
0,36,124,1
0,38,121,1
0,45,122,0
0,64,102,1
0,38,126,1
0,33,103,1
0,50,125,16
0,38,114,0
0,36,127,0
0,49,109,0
0,66,114,0
0,50,95,1
0,57,98,0
0,62,93,0
0,38,126,90
0,38,118,12
0,36,124,1
0,66,114,1
0,50,118,1
0,38,121,10
0,36,125,1
0,50,113,1
0,66,114,0
0,33,106,0
0,45,107,0
0,38,127,0
0,64,104,1
0,36,125,7
0,42,120,0
0,38,112,0
0,50,101,1
0,57,101,0
0,42,91,34
0,57,94,0
0,50,87,0
0,50,89,36
0,38,124,1
0,57,91,0
0,42,116,1
0,57,88,34
0,50,87,0
0,38,110,2
0,42,93,1
0,57,101,27
0,50,96,0
0,36,124,1
0,42,120,0
0,38,114,1
0,50,85,35
0,57,89,1
0,42,90,1
0,57,91,36
0,50,88,0
0,38,126,1
0,42,118,0
0,38,118,34
0,42,90,1
0,57,85,0
0,50,87,0
0,36,127,11
0,42,118,0
0,43,99,1
0,50,99,0
0,43,104,0
0,43,88,33
0,42,87,2
0,50,88,0
0,43,89,35
0,38,126,1
0,50,89,0
0,42,118,1
0,43,112,35
0,43,92,0
0,42,90,1
0,50,83,1
0,42,118,25
0,52,100,0
0,36,125,1
0,45,111,0
0,45,93,0
0,45,81,35
0,52,92,1
0,42,87,1
0,45,87,35
0,52,97,0
0,38,127,1
0,42,120,1
0,45,93,36
0,52,99,0
0,42,90,1
0,45,100,0
0,57,93,2
0,50,87,0
0,36,125,2
0,42,120,0
0,38,110,0
0,57,91,37
0,50,85,0
0,42,91,1
0,50,88,36
0,57,93,0
0,38,124,1
0,42,116,0
0,42,93,30
0,57,95,0
0,50,87,0
0,38,112,1
0,36,124,25
0,42,120,0
0,57,97,0
0,50,87,0
0,38,115,1
0,57,88,36
0,50,83,0
0,42,90,1
0,38,126,36
0,42,118,0
0,57,92,0
0,50,89,0
0,38,112,34
0,42,90,1
0,57,87,2
0,50,86,0
0,43,112,1
0,36,127,1
0,50,95,0
0,43,103,0
0,42,118,1
0,50,87,35
0,43,81,1
0,42,87,1
0,38,126,36
0,42,118,0
0,50,90,0
0,43,90,0
0,43,112,30
0,42,90,1
0,43,87,0
0,50,92,0
0,45,95,7
0,52,95,0
0,36,125,1
0,42,118,0
0,45,109,1
0,52,93,36
0,42,87,1
0,45,83,0
0,52,99,35
0,38,127,1
0,42,120,0
0,45,90,1
0,52,100,31
0,42,90,1
0,45,106,0
0,45,88,0
0,36,125,13
0,42,120,1
0,38,115,0
0,57,94,0
0,50,92,0
0,42,91,35
0,57,92,0
0,50,91,1
0,42,116,34
0,38,124,1
0,57,99,1
0,50,93,0
0,38,114,34
0,57,103,1
0,50,103,0
0,42,93,1
0,50,86,25
0,57,88,0
0,36,124,1
0,42,120,1
0,38,118,0
0,57,93,35
0,50,87,0
0,42,90,2
0,50,84,37
0,38,126,1
0,42,118,0
0,57,89,0
0,50,90,34
0,38,119,1
0,57,95,0
0,42,90,1
0,43,103,22
0,50,95,0
0,36,127,1
0,42,118,0
0,43,116,1
0,50,81,35
0,43,81,1
0,42,87,1
0,43,93,36
0,50,92,0
0,38,126,1
0,42,118,0
0,43,112,36
0,50,90,0
0,43,93,0
0,42,90,2
0,45,94,16
0,52,99,0
0,36,125,1
0,42,118,0
0,45,112,1
0,42,87,36
0,45,85,0
0,52,96,1
0,45,85,35
0,38,127,1
0,52,99,0
0,42,120,1
0,45,109,34
0,52,95,1
0,45,91,1
0,42,90,1
0,36,125,27
0,42,120,0
0,49,109,0
0,38,126,0
0,50,122,0
0,57,108,1
0,62,108,0
0,66,108,0
0,42,91,42
0,38,124,42
0,42,116,0
0,38,118,27
0,42,93,1
0,50,118,0
0,36,124,14
0,42,120,0
0,50,115,0
0,38,126,1
0,42,90,42
0,38,126,3
0,45,115,0
0,42,118,1
0,33,118,0
0,42,90,41
0,42,118,6
0,36,127,1
0,38,119,0
0,50,125,0
0,62,107,0
0,57,100,0
0,66,108,1
0,42,87,43
0,38,126,41
0,42,118,1
0,38,126,22
0,42,90,1
0,50,115,2
0,36,125,17
0,42,118,0
0,38,126,0
0,50,118,0
0,38,115,42
0,42,87,0
0,38,118,18
0,38,119,3
0,42,120,0
0,33,127,0
0,45,120,0
0,38,100,18
0,38,121,18
0,42,90,0
0,38,122,18
0,36,125,3
0,42,120,0
0,49,109,0
0,38,122,0
0,69,56,0
0,78,57,0
0,74,75,0
0,57,99,0
0,50,101,0
0,50,81,33
0,57,83,2
0,42,91,2
0,50,85,35
0,57,91,1
0,38,124,0
0,42,116,0
0,38,114,35
0,57,100,0
0,50,95,0
0,42,93,1
0,38,115,26
0,50,90,0
0,36,124,1
0,57,100,0
0,42,120,1
0,57,88,35
0,50,83,0
0,42,90,2
0,38,126,37
0,42,118,0
0,57,99,0
0,50,92,0
0,38,118,33
0,42,90,1
0,57,100,0
0,50,90,0
0,36,127,2
0,42,118,0
0,67,62,0
0,71,65,0
0,43,101,0
0,43,112,1
0,50,93,0
0,42,87,35
0,43,86,0
0,50,82,0
0,38,126,36
0,42,118,0
0,50,94,0
0,43,95,1
0,42,90,35
0,43,116,0
0,50,90,0
0,43,92,1
0,36,125,0
0,73,66,0
0,69,58,0
0,76,59,0
0,42,118,1
0,45,116,0
0,52,92,0
0,45,95,1
0,42,87,34
0,52,87,0
0,45,78,1
0,42,120,34
0,38,127,1
0,52,99,0
0,45,88,0
0,45,106,33
0,52,97,0
0,42,90,1
0,45,93,0
0,57,91,6
0,50,91,0
0,36,125,0
0,78,56,0
0,74,64,0
0,42,120,1
0,38,111,1
0,42,91,37
0,50,91,0
0,57,87,0
0,38,124,36
0,42,116,0
0,50,88,0
0,57,86,0
0,38,110,35
0,50,96,0
0,57,88,0
0,42,93,1
0,50,96,22
0,57,89,0
0,36,124,1
0,42,120,0
0,38,116,1
0,57,89,36
0,50,90,0
0,42,90,1
0,57,94,36
0,50,97,0
0,38,126,1
0,42,118,0
0,50,95,34
0,57,92,0
0,38,122,1
0,42,90,1
0,43,121,18
0,43,101,0
0,36,127,0
0,42,118,0
0,67,67,0
0,71,68,0
0,50,97,0
0,43,86,34
0,42,87,1
0,50,88,0
0,38,126,37
0,50,94,0
0,43,94,0
0,42,118,1
0,50,91,23
0,43,93,0
0,42,90,2
0,43,119,1
0,52,96,7
0,36,125,0
0,42,118,0
0,45,116,0
0,73,75,0
0,76,68,0
0,69,60,0
0,45,100,1
0,42,87,35
0,52,92,0
0,45,83,0
0,38,127,36
0,42,120,0
0,52,97,0
0,45,93,0
0,45,111,35
0,42,90,1
0,52,94,0
0,45,91,0
0,50,93,1
0,57,94,0
0,36,125,0
0,42,120,0
0,69,57,0
0,74,65,0
0,78,58,0
0,38,121,1
0,42,91,37
0,57,93,0
0,50,92,0
0,50,89,35
0,57,87,0
0,38,124,1
0,42,116,1
0,57,92,36
0,50,97,0
0,42,93,1
0,38,119,0
0,42,120,24
0,57,92,0
0,50,95,0
0,36,124,1
0,38,121,2
0,50,93,35
0,57,91,0
0,42,90,3
0,57,90,36
0,50,95,0
0,38,126,2
0,42,118,1
0,50,93,35
0,57,91,0
0,42,90,2
0,38,121,0
0,43,109,1
0,43,119,1
0,36,127,1
0,42,118,0
0,71,64,0
0,67,64,0
0,50,100,0
0,43,95,34
0,50,92,1
0,42,87,1
0,50,97,36
0,43,100,0
0,38,126,1
0,42,118,0
0,43,114,35
0,43,100,0
0,42,90,1
0,50,97,0
0,45,116,13
0,36,125,0
0,42,118,0
0,76,68,0
0,69,64,0
0,73,77,0
0,52,100,1
0,45,101,1
0,45,88,34
0,52,93,0
0,42,87,1
0,52,106,35
0,45,89,0
0,38,127,1
0,42,120,0
0,42,90,33
0,45,93,0
0,52,99,0
0,45,111,1
0,36,125,0
0,49,109,0
0,69,75,0
0,74,68,0
0,78,65,0
0,42,120,1
0,38,127,0
0,50,127,0
0,57,105,1
0,62,105,0
0,66,105,0
0,42,91,42
0,38,124,41
0,42,116,0
0,38,116,24
0,42,93,1
0,50,115,2
0,36,124,11
0,42,120,0
0,38,127,0
0,50,118,1
0,42,90,42
0,38,126,2
0,42,118,0
0,45,111,0
0,33,122,1
0,42,90,42
0,50,127,1
0,36,127,1
0,38,127,0
0,42,118,1
0,57,98,0
0,66,102,0
0,62,104,0
0,42,87,41
0,42,118,41
0,38,126,1
0,50,120,25
0,42,90,1
0,38,127,0
0,36,125,21
0,50,115,0
0,42,118,1
0,38,124,0
0,38,115,41
0,42,87,0
0,33,127,4
0,45,118,0
0,42,120,1
0,47,112,0
0,42,90,42
0,43,111,0
0,36,125,0
0,42,120,0
0,49,117,0
0,31,127,0
0,74,41,0
0,67,71,0
0,71,74,0
0,43,107,0
0,50,103,0
0,50,87,8
0,43,93,1
0,42,91,1
0,31,109,1
0,50,97,18
0,38,124,1
0,42,116,0
0,39,114,0
0,31,109,0
0,43,99,1
0,50,93,18
0,39,116,1
0,31,106,0
0,42,93,1
0,43,93,0
0,43,88,20
0,50,90,0
0,36,124,1
0,42,120,0
0,31,122,1
0,42,90,20
0,43,89,0
0,31,109,1
0,50,90,0
0,38,126,25
0,39,117,0
0,42,118,1
0,31,122,0
0,43,113,0
0,50,115,0
0,50,89,20
0,31,108,1
0,42,90,1
0,43,90,0
0,36,127,22
0,42,118,0
0,31,114,0
0,50,100,0
0,43,103,0
0,42,87,22
0,31,115,0
0,50,97,0
0,43,94,1
0,38,126,22
0,42,118,0
0,39,117,0
0,31,122,0
0,43,99,1
0,50,96,0
0,42,90,22
0,39,117,0
0,31,114,0
0,43,103,0
0,50,107,0
0,50,94,21
0,36,125,1
0,42,118,0
0,31,112,0
0,43,94,0
0,50,107,21
0,42,87,1
0,31,114,1
0,43,94,0
0,38,127,21
0,39,123,0
0,42,120,1
0,31,121,0
0,50,111,0
0,43,99,1
0,42,90,21
0,31,114,1
0,50,101,0
0,43,96,0
0,42,120,8
0,36,125,0
0,78,56,0
0,69,62,0
0,50,103,0
0,57,96,0
0,38,119,2
0,57,84,10
0,42,91,2
0,38,104,0
0,50,92,0
0,38,124,21
0,39,114,0
0,38,118,0
0,42,116,1
0,50,101,0
0,57,100,0
0,42,93,13
0,39,116,0
0,38,114,0
0,50,87,0
0,57,87,1
0,36,124,25
0,42,120,0
0,50,111,0
0,57,103,0
0,38,121,1
0,50,88,20
0,42,90,1
0,38,104,0
0,57,85,0
0,57,106,24
0,50,106,0
0,38,126,1
0,42,118,0
0,39,117,0
0,38,122,1
0,50,93,20
0,57,89,0
0,42,90,1
0,38,110,0
0,36,127,25
0,42,118,0
0,57,103,0
0,50,113,0
0,38,118,1
0,38,112,22
0,57,97,0
0,50,99,0
0,42,87,1
0,38,112,21
0,38,126,1
0,42,118,0
0,39,117,0
0,50,97,0
0,57,96,0
0,42,90,22
0,39,117,1
0,50,111,0
0,57,106,0
0,38,118,1
0,57,93,21
0,50,97,0
0,36,125,1
0,42,118,1
0,38,112,0
0,57,106,21
0,50,106,0
0,42,87,1
0,38,115,0
0,38,127,25
0,42,120,0
0,39,123,0
0,38,124,1
0,57,106,0
0,50,109,0
0,42,90,21
0,38,100,1
0,57,104,0
0,50,100,0
0,36,125,0
0,42,120,0
0,71,74,0
0,67,74,0
0,74,62,0
0,43,109,0
0,50,106,1
0,31,124,1
0,42,91,17
0,43,87,0
0,50,90,1
0,31,102,1
0,38,124,21
0,42,116,0
0,39,114,0
0,43,101,0
0,50,111,1
0,31,118,1
0,43,93,19
0,42,93,1
0,39,116,0
0,50,90,1
0,31,109,1
0,50,97,22
0,43,96,0
0,36,124,1
0,42,120,1
0,31,114,0
0,50,94,20
0,43,93,0
0,42,90,1
0,31,111,1
0,42,118,23
0,43,111,0
0,38,126,1
0,39,117,0
0,50,113,0
0,31,122,1
0,43,89,20
0,31,105,1
0,50,92,0
0,42,90,1
0,43,103,24
0,50,101,1
0,36,127,1
0,31,121,0
0,42,118,1
0,31,109,23
0,43,94,0
0,50,93,1
0,42,87,1
0,43,104,22
0,31,116,1
0,38,126,1
0,42,118,0
0,39,117,0
0,50,104,0
0,31,114,22
0,43,100,0
0,42,90,1
0,39,117,0
0,50,97,1
0,43,101,25
0,36,125,1
0,42,118,0
0,31,122,0
0,50,106,0
0,43,101,24
0,42,87,1
0,31,121,0
0,50,100,1
0,43,100,19
0,50,103,1
0,38,127,1
0,42,120,0
0,39,123,0
0,31,119,3
0,43,107,25
0,42,90,1
0,31,121,0
0,50,106,0
0,36,125,0
0,42,120,0
0,68,70,0
0,71,78,0
0,76,68,0
0,28,126,1
0,40,120,1
0,47,120,0
0,64,92,0
0,59,100,0
0,52,95,0
0,42,91,33
0,47,95,1
0,40,101,0
0,38,124,36
0,39,114,0
0,40,99,0
0,42,116,1
0,47,101,0
0,40,100,28
0,39,116,1
0,42,93,1
0,28,127,0
0,47,101,0
0,40,106,26
0,36,124,1
0,42,120,0
0,28,127,1
0,47,109,0
0,40,97,33
0,42,90,2
0,47,100,0
0,40,104,13
0,38,126,2
0,42,118,0
0,39,117,0
0,47,107,1
0,28,122,1
0,40,100,32
0,42,90,3
0,47,90,0
0,36,127,0
0,38,126,0
0,42,118,0
0,69,68,0
0,73,64,0
0,52,127,0
0,45,125,0
0,33,127,1
0,64,111,1
0,57,104,0
0,42,87,42
0,38,126,42
0,42,118,1
0,42,122,0
0,42,90,37
0,42,118,6
0,38,126,1
0,40,115,1
0,42,87,43
0,38,115,41
0,42,120,1
0,33,124,1
0,38,100,17
0,38,101,18
0,42,90,0
0,38,103,18
0,66,114,0
0,59,111,0
0,36,125,0
0,42,120,0
0,49,109,0
0,35,126,0
0,75,71,0
0,78,77,0
0,71,87,0
0,47,127,0
0,54,121,1
0,42,91,42
0,38,124,42
0,42,116,0
0,44,126,2
0,42,93,34
0,36,124,42
0,42,120,0
0,42,125,1
0,42,90,43
0,37,117,1
0,38,126,1
0,42,118,0
0,39,115,40
0,42,90,1
0,36,125,0
0,49,111,0
0,76,68,0
0,68,79,0
0,71,72,0
0,47,109,0
0,40,106,0
0,42,120,1
0,40,118,0
0,40,97,35
0,47,97,0
0,42,91,2
0,47,103,36
0,40,100,0
0,38,124,1
0,42,116,0
0,40,98,35
0,47,103,1
0,40,97,0
0,42,93,1
0,40,105,29
0,47,107,0
0,40,103,0
0,36,124,1
0,42,120,0
0,47,104,36
0,40,104,0
0,42,90,1
0,38,126,37
0,42,118,0
0,47,106,0
0,40,106,0
0,42,90,34
0,40,102,0
0,40,106,0
0,47,109,0
0,52,103,1
0,45,89,0
0,36,127,0
0,33,104,0
0,64,67,0
0,69,70,0
0,73,70,0
0,42,118,1
0,45,93,36
0,52,87,0
0,42,87,1
0,42,118,36
0,38,126,1
0,45,92,0
0,52,92,0
0,33,103,35
0,52,89,1
0,42,90,1
0,45,90,0
0,36,125,0
0,71,76,0
0,75,62,0
0,66,58,0
0,54,102,0
0,47,97,0
0,42,118,1
0,35,95,0
0,47,84,35
0,42,87,1
0,54,85,0
0,47,85,35
