track,note,velocity,time
0,42,98,0
0,42,93,168
0,42,98,231
0,42,93,231
0,38,98,111
0,38,113,51
0,28,98,51
0,52,113,0
0,64,102,0
0,52,85,0
0,59,93,0
0,40,89,0
0,47,80,0
0,36,119,0
0,42,107,0
0,49,107,0
0,69,101,0
0,52,89,23
0,64,98,0
0,69,61,0
0,52,49,24
0,69,75,0
0,46,93,0
0,52,93,29
0,64,89,0
0,69,72,0
0,28,85,26
0,64,98,0
0,38,107,0
0,42,93,0
0,69,83,0
0,52,80,12
0,69,50,0
0,52,113,31
0,64,89,0
0,69,75,0
0,46,89,0
0,52,64,0
0,64,89,0
0,69,79,0
0,28,85,29
0,52,93,0
0,36,113,0
0,42,98,0
0,69,83,0
0,52,102,30
0,64,85,0
0,69,64,0
0,64,98,20
0,69,72,0
0,46,72,0
0,52,72,1
0,69,79,0
0,28,89,18
0,52,107,0
0,63,89,0
0,38,113,0
0,42,98,0
0,69,86,0
0,52,80,24
0,69,45,0
0,52,102,27
0,59,98,0
0,69,83,0
0,46,68,0
0,52,102,9
0,69,72,0
0,28,80,13
0,52,107,0
0,36,113,0
0,42,98,0
0,69,96,0
0,52,52,28
0,64,98,0
0,69,54,0
0,52,102,7
0,69,90,0
0,46,80,0
0,52,102,11
0,69,50,0
0,28,89,22
0,64,102,0
0,38,113,0
0,42,102,0
0,69,83,0
0,52,98,51
0,69,51,0
0,52,93,22
0,69,75,0
0,46,59,0
0,52,62,11
0,64,98,0
0,69,68,0
0,28,89,16
0,36,107,0
0,42,107,0
0,69,96,0
0,52,107,51
0,64,107,0
0,69,61,0
0,52,57,2
0,69,86,0
0,46,93,0
0,52,89,19
0,69,52,0
0,28,89,24
0,52,113,0
0,64,102,0
0,38,113,0
0,42,98,0
0,69,96,0
0,52,80,1
0,69,75,0
0,40,80,5
0,52,98,0
0,64,98,0
0,69,86,0
0,46,72,0
0,52,85,28
0,69,72,0
0,28,93,27
0,52,113,0
0,52,62,0
0,64,85,0
0,40,80,0
0,47,72,0
0,59,89,0
0,36,119,0
0,42,107,0
0,69,90,0
0,52,93,25
0,64,107,0
0,69,54,0
0,52,93,10
0,69,90,0
0,46,93,0
0,52,107,13
0,69,64,0
0,28,89,25
0,64,93,0
0,38,107,0
0,42,102,0
0,69,90,0
0,52,93,15
0,69,75,0
0,52,107,26
0,69,79,0
0,46,80,0
0,52,93,15
0,64,98,0
0,69,57,0
0,28,80,17
0,52,98,0
0,36,113,0
0,42,98,0
0,69,90,0
0,52,93,27
0,64,89,0
0,69,68,0
0,64,76,24
0,69,96,0
0,46,89,0
0,52,93,2
0,69,79,0
0,28,89,25
0,52,107,0
0,63,89,0
0,38,113,0
0,42,98,0
0,69,96,0
0,52,49,24
0,69,68,0
0,52,102,11
0,59,98,0
0,69,90,0
0,46,85,0
0,52,72,1
0,69,72,0
0,28,89,10
0,52,107,0
0,36,113,0
0,42,102,0
0,69,90,0
0,52,85,22
0,64,102,0
0,69,61,0
0,52,102,17
0,69,79,0
0,46,85,0
0,52,102,9
0,64,93,0
0,69,61,0
0,28,85,22
0,64,98,0
0,38,113,0
0,42,89,0
0,69,83,0
0,52,98,7
0,69,68,0
0,52,113,22
0,64,93,0
0,69,79,0
0,46,80,0
0,52,89,11
0,64,89,0
0,69,72,0
0,28,89,12
0,52,98,0
0,36,107,0
0,42,93,0
0,69,83,0
0,52,98,27
0,64,102,0
0,69,72,0
0,69,75,18
0,46,85,0
0,52,98,23
0,64,89,0
0,69,57,0
0,28,89,20
0,52,107,0
0,64,102,0
0,38,113,0
0,42,102,0
0,69,86,0
0,52,102,7
0,69,75,0
0,52,98,5
0,38,107,0
0,69,79,0
0,46,85,0
0,52,93,19
0,38,119,0
0,69,79,0
0,28,89,24
0,52,85,0
0,59,93,0
0,68,93,0
0,64,89,0
0,56,76,0
0,52,55,0
0,52,80,0
0,85,123,0
0,36,119,0
0,42,93,0
0,49,107,0
0,69,83,0
0,52,57,24
0,85,127,0
0,69,52,0
0,68,59,6
0,64,55,0
0,52,55,0
0,42,89,0
0,69,72,0
0,52,57,10
0,42,98,0
0,69,75,0
0,28,85,13
0,52,85,0
0,85,127,0
0,38,107,0
0,69,86,0
0,46,93,0
0,64,72,24
0,68,85,0
0,69,61,0
0,52,93,26
0,42,93,0
0,69,75,0
0,52,89,25
0,42,93,0
0,69,64,0
0,28,89,26
0,64,56,0
0,68,68,0
0,36,113,0
0,42,76,0
0,69,83,0
0,52,64,17
0,69,52,0
0,52,72,7
0,83,118,0
0,42,93,0
0,69,90,0
0,83,113,20
0,42,89,0
0,69,79,0
0,28,89,51
0,52,89,0
0,38,113,0
0,42,102,0
0,69,83,0
0,52,60,22
0,85,101,0
0,69,61,0
0,64,59,28
0,52,76,0
0,83,90,0
0,42,93,0
0,69,75,0
0,42,107,9
0,69,57,0
0,37,89,11
0,68,89,0
0,61,68,0
0,49,76,0
0,65,93,0
0,49,89,0
0,80,113,0
0,36,113,0
0,42,102,0
0,69,86,0
0,69,61,27
0,65,68,51
0,61,72,0
0,49,64,0
0,42,98,0
0,69,75,0
0,42,93,18
0,69,72,0
0,37,76,42
0,49,60,0
0,38,113,0
0,42,107,0
0,69,86,0
0,65,85,20
0,61,72,0
0,49,57,0
0,69,68,0
0,49,51,27
0,42,93,0
0,69,79,0
0,49,50,14
0,42,93,0
0,69,54,0
0,37,76,31
0,65,72,0
0,61,64,0
0,49,85,0
0,36,107,0
0,42,102,0
0,69,83,0
0,69,72,17
0,49,68,51
0,42,85,0
0,69,79,0
0,49,62,16
0,42,102,0
0,69,75,0
0,37,85,13
0,38,113,0
0,42,107,0
0,69,86,0
0,49,45,49
0,69,50,0
0,49,68,28
0,42,89,0
0,69,75,0
0,49,42,2
0,42,68,0
0,69,61,0
0,37,68,3
0,61,72,0
0,68,85,0
0,64,89,0
0,37,80,0
0,49,76,0
0,80,127,0
0,36,119,0
0,42,98,0
0,69,90,0
0,69,54,11
0,64,56,51
0,68,60,0
0,61,55,0
0,49,64,0
0,80,123,0
0,42,98,0
0,69,79,0
0,49,62,1
0,42,102,0
0,69,51,0
0,37,80,21
0,80,127,0
0,38,107,0
0,42,98,0
0,69,83,0
0,68,68,51
0,61,56,0
0,64,76,0
0,49,60,0
0,69,47,0
0,49,80,26
0,42,89,0
0,69,79,0
0,42,76,5
0,69,64,0
0,37,72,51
0,68,59,0
0,61,52,0
0,64,68,0
0,49,72,0
0,36,113,0
0,42,102,0
0,69,79,0
0,69,52,15
0,68,50,11
0,61,51,0
0,64,68,0
0,49,72,0
0,78,127,0
0,42,72,0
0,69,83,0
0,49,55,11
0,42,59,0
0,69,46,0
0,37,89,26
0,49,72,0
0,78,127,0
0,38,113,0
0,42,102,0
0,69,90,0
0,69,75,21
0,49,62,25
0,76,106,0
0,69,86,0
0,46,85,0
0,49,55,18
0,76,127,0
0,69,50,0
0,28,76,14
0,64,76,0
0,56,64,0
0,40,89,0
0,59,76,0
0,52,76,0
0,36,113,0
0,42,107,0
0,69,86,0
0,69,48,17
0,52,89,51
0,52,80,0
0,42,76,0
0,69,83,0
0,42,89,1
0,69,61,0
0,28,89,51
0,52,72,0
0,38,113,0
0,42,93,0
0,69,90,0
0,52,80,21
0,52,93,0
0,69,79,0
0,42,93,23
0,69,83,0
0,52,62,51
0,42,89,0
0,69,72,0
0,28,89,32
0,52,93,0
0,52,72,0
0,36,107,0
0,42,107,0
0,69,79,0
0,69,68,25
0,52,72,51
0,69,75,0
0,46,89,0
0,52,89,14
0,52,72,0
0,69,75,0
0,28,89,25
0,38,113,0
0,42,107,0
0,69,86,0
0,52,76,51
0,69,68,0
0,52,89,26
0,52,64,0
0,69,79,0
0,46,93,0
0,52,72,8
0,69,75,0
0,40,85,25
0,64,89,0
0,56,80,0
0,40,89,0
0,59,98,0
0,52,55,0
0,52,85,0
0,85,118,0
0,36,119,0
0,42,93,0
0,69,83,0
0,69,52,14
0,68,59,51
0,64,55,0
0,52,80,0
0,85,118,0
0,42,89,0
0,69,72,0
0,52,76,17
0,42,98,0
0,69,75,0
0,40,72,13
0,52,72,0
0,85,118,0
0,38,107,0
0,69,86,0
0,46,93,0
0,64,72,20
0,68,85,0
0,69,61,0
0,52,76,26
0,42,93,0
0,69,75,0
0,52,72,20
0,42,93,0
0,69,64,0
0,40,76,28
0,64,56,0
0,68,68,0
0,36,113,0
0,42,76,0
0,69,83,0
0,52,68,0
0,69,52,0
0,52,76,22
0,83,118,0
0,42,93,0
0,69,90,0
0,83,123,20
0,42,89,0
0,69,79,0
0,40,85,43
0,52,89,0
0,38,113,0
0,42,102,0
0,69,83,0
0,52,76,20
0,85,101,0
0,69,61,0
0,28,89,26
0,64,59,0
0,52,80,0
0,83,90,0
0,42,93,0
0,69,75,0
0,52,89,9
0,42,107,0
0,69,57,0
0,37,93,12
0,49,89,0
0,65,68,0
0,68,80,0
0,61,72,0
0,49,68,0
0,80,127,0
0,36,113,0
0,42,102,0
0,69,86,0
0,69,61,11
0,65,68,51
0,61,72,0
0,49,93,0
0,42,98,0
0,69,75,0
0,42,93,23
0,69,72,0
0,37,89,50
0,49,85,0
0,38,113,0
0,42,107,0
0,69,86,0
0,65,85,20
0,61,72,0
0,49,62,0
0,69,68,0
0,77,127,27
0,42,93,0
0,69,79,0
0,49,62,7
0,42,93,0
0,69,54,0
0,37,85,19
0,65,72,0
0,61,64,0
0,49,98,0
0,73,113,0
0,36,107,0
0,42,102,0
0,69,83,0
0,69,72,18
0,49,76,16
0,42,85,0
0,69,79,0
0,49,72,20
0,42,102,0
0,69,75,0
0,37,72,27
0,38,113,0
0,42,107,0
0,69,86,0
0,49,62,4
0,69,50,0
0,49,85,23
0,42,89,0
0,69,75,0
0,49,41,8
0,42,68,0
0,69,61,0
0,37,76,11
0,49,89,0
0,68,85,0
0,61,72,0
0,64,93,0
0,49,85,0
0,80,90,0
0,36,119,0
0,42,98,0
0,69,90,0
0,69,54,17
0,64,56,51
0,68,60,0
0,61,55,0
0,49,85,0
0,80,118,0
0,42,98,0
0,69,79,0
0,42,102,15
0,69,51,0
0,37,93,51
0,49,72,0
0,80,127,0
0,38,107,0
0,42,98,0
0,69,83,0
0,68,68,16
0,61,56,0
0,64,76,0
0,49,72,0
0,69,47,0
0,42,89,24
0,69,79,0
0,49,72,17
0,42,76,0
0,69,64,0
0,37,89,22
0,68,59,0
0,61,52,0
0,64,68,0
0,49,89,0
0,36,113,0
0,42,102,0
0,69,79,0
0,69,52,19
0,68,50,35
0,61,51,0
0,64,68,0
0,49,85,0
0,78,127,0
0,42,72,0
0,69,83,0
0,49,76,9
0,42,59,0
0,69,46,0
0,37,80,20
0,78,127,0
0,38,113,0
0,42,102,0
0,69,90,0
0,49,98,51
0,69,75,0
0,49,89,18
0,76,101,0
0,69,86,0
0,46,85,0
0,76,123,32
0,69,50,0
0,28,98,22
0,52,113,0
0,64,102,0
0,52,85,0
0,40,81,0
0,36,113,0
0,42,107,0
0,69,86,0
0,52,89,23
0,64,98,0
0,69,48,0
0,52,49,24
0,52,85,0
0,42,76,0
0,69,83,0
0,52,93,25
0,64,89,0
0,42,89,0
0,69,61,0
0,28,85,26
0,64,98,0
0,52,76,0
0,38,113,0
0,42,93,0
0,69,90,0
0,52,80,12
0,52,89,0
0,69,79,0
0,52,113,31
0,64,89,0
0,52,55,0
0,42,93,0
0,69,83,0
0,52,64,0
0,64,89,0
0,52,72,0
0,42,89,0
0,69,72,0
0,28,85,29
0,52,93,0
0,52,89,0
0,36,107,0
0,42,107,0
0,69,79,0
0,52,102,22
0,64,85,0
0,69,68,0
0,64,98,20
0,52,85,0
0,69,75,0
0,46,89,0
0,52,72,21
0,52,89,0
0,69,75,0
0,28,89,18
0,52,107,0
0,63,89,0
0,38,113,0
0,42,107,0
0,69,86,0
0,52,80,24
0,52,89,0
0,69,68,0
0,52,102,21
0,59,98,0
0,52,80,0
0,69,79,0
0,46,93,0
0,52,102,9
0,52,93,0
0,69,75,0
0,28,80,13
0,52,107,0
0,36,119,0
0,42,93,0
0,69,83,0
0,52,52,28
0,64,98,0
0,69,52,0
0,52,102,7
0,42,89,0
0,69,72,0
0,52,102,11
0,42,98,0
0,69,75,0
0,28,89,22
0,64,102,0
0,38,107,0
0,69,86,0
0,46,93,0
0,52,98,51
0,69,61,0
0,52,93,22
0,42,93,0
0,69,75,0
0,52,62,11
0,64,98,0
0,42,93,0
0,69,64,0
0,28,89,16
0,36,113,0
0,42,76,0
0,69,83,0
0,52,107,51
0,64,107,0
0,69,52,0
0,52,57,2
0,42,93,0
0,69,90,0
0,52,89,19
0,42,89,0
0,69,79,0
0,28,89,24
0,52,113,0
0,64,102,0
0,38,113,0
0,42,102,0
0,69,83,0
0,52,80,1
0,69,61,0
0,40,80,5
0,52,98,0
0,64,98,0
0,42,93,0
0,69,75,0
0,52,85,28
0,42,107,0
0,69,57,0
0,28,93,27
0,52,113,0
0,52,62,0
0,64,85,0
0,40,80,0
0,47,72,0
0,59,89,0
0,76,60,0
0,71,51,0
0,80,57,0
0,36,113,0
0,42,102,0
0,69,86,0
0,52,93,25
0,64,107,0
0,69,61,0
0,52,93,10
0,42,98,0
0,69,75,0
0,52,107,13
0,42,93,0
0,69,72,0
0,28,89,25
0,64,93,0
0,38,113,0
0,42,107,0
0,69,86,0
0,52,93,15
0,69,68,0
0,52,107,26
0,42,93,0
0,69,79,0
0,52,93,15
0,64,98,0
0,42,93,0
0,69,54,0
0,28,80,17
0,52,98,0
0,36,107,0
0,42,102,0
0,69,83,0
0,52,93,27
0,64,89,0
0,69,72,0
0,64,76,24
0,42,85,0
0,69,79,0
0,52,93,2
0,42,102,0
0,69,75,0
0,28,89,25
0,52,107,0
0,63,89,0
0,38,113,0
0,42,107,0
0,69,86,0
0,52,49,24
0,69,50,0
0,52,102,11
0,59,98,0
0,42,89,0
0,69,75,0
0,52,72,1
0,42,68,0
0,69,61,0
0,28,89,10
0,52,107,0
0,36,113,0
0,42,102,0
0,69,90,0
0,52,85,22
0,64,102,0
0,69,61,0
0,52,102,17
0,69,79,0
0,46,85,0
0,52,102,9
0,64,93,0
0,69,61,0
0,28,85,22
0,64,98,0
0,38,113,0
0,42,89,0
0,69,83,0
0,52,98,7
0,69,68,0
0,52,113,22
0,64,93,0
0,69,79,0
0,46,80,0
0,52,89,11
0,64,89,0
0,69,72,0
0,28,89,12
0,52,98,0
0,36,107,0
0,42,93,0
0,69,83,0
0,52,98,27
0,64,102,0
0,69,72,0
0,69,75,18
0,46,85,0
0,52,98,23
0,64,89,0
0,69,57,0
0,28,89,20
0,52,107,0
0,64,102,0
0,38,113,0
0,42,102,0
0,69,86,0
0,52,102,7
0,69,75,0
0,52,98,5
0,38,107,0
0,69,79,0
0,46,85,0
0,52,93,1
0,38,119,0
0,69,79,0
0,28,89,24
0,52,85,0
0,59,93,0
0,68,93,0
0,64,89,0
0,56,76,0
0,52,55,0
0,52,80,0
0,76,47,0
0,71,57,0
0,80,60,0
0,85,123,0
0,36,119,0
0,42,93,0
0,49,107,0
0,69,83,0
0,52,57,24
0,85,127,0
0,69,52,0
0,68,59,6
0,64,55,0
0,52,55,0
0,42,89,0
0,69,72,0
0,52,57,10
0,42,98,0
0,69,75,0
0,28,85,13
0,52,85,0
0,85,127,0
0,38,107,0
0,69,86,0
0,46,93,0
0,64,72,24
0,68,85,0
0,69,61,0
0,52,93,26
0,42,93,0
0,69,75,0
0,52,89,25
0,42,93,0
0,69,64,0
0,28,89,26
0,64,56,0
0,68,68,0
0,36,113,0
0,42,76,0
0,69,83,0
0,52,64,17
0,69,52,0
0,52,72,7
0,83,118,0
0,42,93,0
0,69,90,0
0,83,113,20
0,42,89,0
0,69,79,0
0,28,89,3
0,52,89,0
0,38,113,0
0,42,102,0
0,69,83,0
0,52,60,22
0,85,101,0
0,69,61,0
0,64,59,28
0,52,76,0
0,83,90,0
0,42,93,0
0,69,75,0
