track,note,velocity,time
0,42,98,0
0,42,0,9
0,42,93,123
0,42,0,9
0,42,98,231
0,42,0,9
0,42,93,231
0,42,0,9
0,38,98,111
0,38,0,9
0,38,113,51
0,38,0,9
0,36,119,51
0,28,98,0
0,47,80,0
0,59,93,0
0,40,89,0
0,52,113,0
0,52,85,0
0,42,107,0
0,49,107,0
0,69,101,0
0,64,102,0
0,69,0,9
0,49,0,0
0,36,0,0
0,42,0,0
0,52,0,19
0,64,0,9
0,52,89,23
0,64,98,0
0,69,61,0
0,69,0,9
0,52,0,19
0,64,0,8
0,69,75,24
0,46,93,0
0,52,49,0
0,46,0,9
0,69,0,0
0,52,0,13
0,28,0,9
0,69,72,29
0,52,93,0
0,64,89,0
0,69,0,9
0,64,0,24
0,52,0,1
0,38,107,26
0,69,83,0
0,28,85,0
0,42,93,0
0,64,98,0
0,42,0,9
0,69,0,0
0,38,0,0
0,64,0,39
0,52,80,12
0,69,50,0
0,69,0,9
0,52,0,20
0,64,89,31
0,52,113,0
0,69,75,0
0,46,89,0
0,46,0,9
0,69,0,0
0,28,0,24
0,52,0,1
0,64,89,26
0,52,64,0
0,69,79,0
0,64,0,2
0,69,0,7
0,52,0,22
0,64,0,10
0,52,93,19
0,42,98,0
0,69,83,0
0,28,85,0
0,36,113,0
0,36,0,9
0,69,0,0
0,42,0,0
0,52,0,21
0,64,85,30
0,52,102,0
0,69,64,0
0,69,0,9
0,52,0,28
0,64,0,3
0,46,72,20
0,69,72,0
0,64,98,0
0,69,0,9
0,46,0,0
0,28,0,29
0,47,0,3
0,40,0,6
0,52,0,12
0,52,72,1
0,69,79,0
0,69,0,9
0,59,0,1
0,52,0,23
0,64,0,9
0,63,89,18
0,38,113,0
0,52,107,0
0,69,86,0
0,28,89,0
0,42,98,0
0,42,0,9
0,38,0,0
0,69,0,0
0,52,0,27
0,52,80,24
0,69,45,0
0,69,0,9
0,52,0,24
0,59,98,27
0,46,68,0
0,69,83,0
0,52,102,0
0,63,0,1
0,69,0,8
0,46,0,0
0,52,0,26
0,28,0,16
0,69,72,9
0,52,102,0
0,69,0,9
0,52,0,29
0,59,0,9
0,36,113,13
0,52,107,0
0,69,96,0
0,28,80,0
0,42,98,0
0,42,0,9
0,69,0,0
0,36,0,0
0,52,0,23
0,52,52,28
0,69,54,0
0,64,98,0
0,69,0,9
0,52,0,14
0,64,0,30
0,52,102,7
0,46,80,0
0,69,90,0
0,69,0,9
0,46,0,0
0,52,0,30
0,28,0,10
0,69,50,11
0,52,102,0
0,69,0,9
0,52,0,29
0,28,89,22
0,64,102,0
0,42,102,0
0,69,83,0
0,38,113,0
0,38,0,9
0,42,0,0
0,69,0,0
0,69,51,51
0,52,98,0
0,69,0,9
0,52,0,26
0,64,0,3
0,69,75,22
0,46,59,0
0,52,93,0
0,46,0,9
0,69,0,0
0,52,0,23
0,28,0,17
0,69,68,11
0,52,62,0
0,64,98,0
0,69,0,9
0,52,0,13
0,64,0,22
0,36,107,16
0,42,107,0
0,69,96,0
0,28,89,0
0,69,0,9
0,36,0,0
0,42,0,0
0,64,107,51
0,52,107,0
0,69,61,0
0,69,0,9
0,52,0,28
0,64,0,21
0,46,93,2
0,52,57,0
0,69,86,0
0,69,0,9
0,46,0,0
0,52,0,10
0,28,0,22
0,52,89,19
0,69,52,0
0,69,0,9
0,52,0,27
0,52,113,24
0,42,98,0
0,69,96,0
0,28,89,0
0,38,113,0
0,64,102,0
0,38,0,9
0,69,0,0
0,42,0,0
0,52,0,3
0,52,80,1
0,69,75,0
0,69,0,9
0,52,0,26
0,64,0,4
0,28,0,16
0,64,98,5
0,52,98,0
0,46,72,0
0,40,80,0
0,69,86,0
0,69,0,1
0,46,0,0
0,52,0,18
0,69,72,28
0,52,85,0
0,69,0,9
0,64,0,9
0,52,0,15
0,52,113,27
0,36,119,0
0,42,107,0
0,59,89,0
0,28,93,0
0,69,90,0
0,52,62,0
0,64,85,0
0,47,72,0
0,40,80,0
0,40,0,5
0,42,0,4
0,69,0,0
0,36,0,0
0,52,0,26
0,64,107,25
0,52,93,0
0,69,54,0
0,69,0,9
0,52,0,23
0,64,0,18
0,46,93,10
0,69,90,0
0,52,93,0
0,69,0,9
0,46,0,0
0,52,0,27
0,28,0,11
0,69,64,13
0,52,107,0
0,69,0,9
0,52,0,26
0,42,102,25
0,38,107,0
0,64,93,0
0,28,89,0
0,69,90,0
0,69,0,9
0,38,0,0
0,42,0,0
0,64,0,36
0,69,75,15
0,52,93,0
0,69,0,9
0,52,0,25
0,52,107,26
0,69,79,0
0,46,80,0
0,46,0,9
0,69,0,0
0,52,0,24
0,28,0,12
0,69,57,15
0,52,93,0
0,64,98,0
0,69,0,9
0,52,0,20
0,64,0,14
0,36,113,17
0,52,98,0
0,69,90,0
0,42,98,0
0,28,80,0
0,42,0,9
0,69,0,0
0,36,0,0
0,52,0,24
0,64,89,27
0,69,68,0
0,52,93,0
0,69,0,9
0,64,0,19
0,52,0,8
0,64,76,24
0,69,96,0
0,46,89,0
0,46,0,9
0,69,0,0
0,28,0,49
0,69,79,2
0,52,93,0
0,69,0,9
0,64,0,21
0,52,0,5
0,52,107,25
0,42,98,0
0,38,113,0
0,69,96,0
0,28,89,0
0,63,89,0
0,69,0,9
0,38,0,0
0,42,0,0
0,52,0,27
0,69,68,24
0,52,49,0
0,69,0,9
0,52,0,12
0,63,0,28
0,52,102,11
0,69,90,0
0,59,98,0
0,46,85,0
0,46,0,9
0,69,0,0
0,52,0,26
0,40,0,2
0,28,0,3
0,47,0,1
0,52,0,0
0,64,0,17
0,59,0,1
0,52,72,1
0,69,72,0
0,69,0,9
0,52,0,23
0,59,0,18
0,52,107,10
0,69,90,0
0,42,102,0
0,36,113,0
0,28,89,0
0,36,0,9
0,42,0,0
0,69,0,0
0,52,0,29
0,64,102,22
0,52,85,0
0,69,61,0
0,69,0,9
0,52,0,25
0,64,0,9
0,46,85,17
0,69,79,0
0,52,102,0
0,69,0,9
0,46,0,0
0,52,0,33
0,28,0,9
0,69,61,9
0,64,93,0
0,52,102,0
0,69,0,9
0,64,0,18
0,52,0,11
0,42,89,22
0,38,113,0
0,28,85,0
0,69,83,0
0,64,98,0
0,69,0,9
0,38,0,0
0,42,0,0
0,64,0,44
0,69,68,7
0,52,98,0
0,69,0,9
0,52,0,29
0,64,93,22
0,52,113,0
0,69,79,0
0,46,80,0
0,46,0,9
0,69,0,0
0,64,0,17
0,52,0,11
0,28,0,12
0,52,89,11
0,64,89,0
0,69,72,0
0,69,0,9
0,52,0,25
0,64,0,14
0,52,98,12
0,28,89,0
0,42,93,0
0,69,83,0
0,36,107,0
0,36,0,9
0,42,0,0
0,69,0,0
0,52,0,24
0,69,72,27
0,64,102,0
0,52,98,0
0,69,0,9
0,52,0,28
0,64,0,5
0,69,75,18
0,46,85,0
0,46,0,9
0,69,0,0
0,28,0,28
0,64,89,23
0,52,98,0
0,69,57,0
0,69,0,9
0,64,0,10
0,52,0,21
0,69,86,20
0,42,102,0
0,38,113,0
0,64,102,0
0,28,89,0
0,52,107,0
0,38,0,9
0,69,0,0
0,42,0,0
0,52,0,1
0,52,102,0
0,69,75,0
0,69,0,9
0,52,0,27
0,52,98,5
0,46,85,0
0,69,79,0
0,38,107,0
0,38,0,1
0,46,0,0
0,69,0,0
0,28,0,4
0,52,0,25
0,38,119,19
0,69,79,0
0,52,93,0
0,69,0,9
0,38,0,0
0,64,0,7
0,52,0,20
0,68,93,0
0,28,89,0
0,49,107,0
0,52,55,0
0,52,80,0
0,42,93,0
0,59,93,0
0,69,83,0
0,56,76,0
0,52,85,0
0,36,119,0
0,64,89,0
0,85,123,0
0,36,0,9
0,69,0,0
0,42,0,0
0,49,0,0
0,52,0,16
0,85,0,11
0,85,127,24
0,69,52,0
0,52,57,0
0,69,0,9
0,52,0,21
0,85,0,24
0,69,72,6
0,52,55,0
0,42,89,0
0,64,55,0
0,68,59,0
0,42,0,9
0,69,0,0
0,52,0,20
0,68,0,0
0,64,0,12
0,28,0,9
0,52,57,10
0,69,75,0
0,42,98,0
0,42,0,9
0,69,0,0
0,52,0,18
0,52,0,20
0,69,86,13
0,52,85,0
0,28,85,0
0,38,107,0
0,46,93,0
0,85,127,0
0,46,0,9
0,38,0,0
0,69,0,0
0,52,0,27
0,68,85,24
0,64,72,0
0,69,61,0
0,69,0,9
0,68,0,22
0,64,0,3
0,69,75,26
0,42,93,0
0,52,93,0
0,42,0,9
0,69,0,0
0,52,0,26
0,42,93,25
0,52,89,0
0,69,64,0
0,28,0,8
0,69,0,1
0,42,0,0
0,52,0,25
0,69,83,26
0,36,113,0
0,68,68,0
0,28,89,0
0,42,76,0
0,64,56,0
0,42,0,9
0,36,0,0
0,69,0,0
0,52,64,17
0,69,52,0
0,69,0,9
0,85,0,18
0,52,0,5
0,68,0,20
0,64,0,1
0,83,118,7
0,52,72,0
0,42,93,0
0,69,90,0
0,56,0,6
0,59,0,2
0,69,0,1
0,42,0,0
0,52,0,7
0,83,0,9
0,52,0,15
0,69,79,20
0,42,89,0
0,83,113,0
0,28,0,5
0,42,0,4
0,69,0,0
0,28,89,51
0,38,113,0
0,69,83,0
0,52,89,0
0,42,102,0
0,42,0,9
0,69,0,0
0,38,0,0
0,83,0,28
0,52,0,1
0,85,101,22
0,69,61,0
0,52,60,0
0,64,0,3
0,69,0,6
0,52,0,23
0,69,75,28
0,83,90,0
0,64,59,0
0,42,93,0
0,52,76,0
0,42,0,9
0,69,0,0
0,68,0,9
0,85,0,2
0,52,0,25
0,64,0,6
0,69,57,9
0,42,107,0
0,42,0,9
0,69,0,0
0,83,0,23
0,28,0,17
0,36,113,11
0,37,89,0
0,49,89,0
0,65,93,0
0,68,89,0
0,69,86,0
0,61,68,0
0,42,102,0
0,49,76,0
0,80,113,0
0,42,0,9
0,69,0,0
0,36,0,0
0,49,0,17
0,69,61,27
0,69,0,9
0,61,72,51
0,49,64,0
0,65,68,0
0,69,75,0
0,42,98,0
0,42,0,9
0,69,0,0
0,61,0,26
0,65,0,2
0,49,0,5
0,69,72,18
0,42,93,0
0,42,0,9
0,69,0,0
0,37,0,9
0,37,76,42
0,38,113,0
0,42,107,0
0,69,86,0
0,49,60,0
0,69,0,9
0,42,0,0
0,38,0,0
0,49,0,31
0,65,85,20
0,69,68,0
0,61,72,0
0,49,57,0
0,69,0,9
0,49,0,19
0,61,0,3
0,65,0,2
0,49,51,27
0,69,79,0
0,42,93,0
0,42,0,9
0,69,0,0
0,49,0,27
0,37,0,10
0,69,54,14
0,49,50,0
0,42,93,0
0,42,0,9
0,69,0,0
0,49,0,20
0,42,102,31
0,36,107,0
0,65,72,0
0,37,76,0
0,69,83,0
0,61,64,0
0,49,85,0
0,69,0,9
0,36,0,0
0,42,0,0
0,49,0,34
0,69,72,17
0,69,0,9
0,69,79,51
0,42,85,0
0,49,68,0
0,42,0,9
0,69,0,0
0,49,0,35
0,49,62,16
0,42,102,0
0,69,75,0
0,37,0,8
0,69,0,1
0,42,0,0
0,49,0,25
0,65,0,0
0,68,0,11
0,49,0,1
0,37,85,13
0,69,86,0
0,42,107,0
0,38,113,0
0,38,0,9
0,42,0,0
0,69,0,0
0,61,0,2
0,69,50,49
0,49,45,0
0,69,0,9
0,65,0,1
0,49,0,22
0,42,89,28
0,69,75,0
0,49,68,0
0,80,0,2
0,69,0,7
0,42,0,0
0,49,0,27
0,37,0,22
0,42,68,2
0,49,42,0
0,69,61,0
0,69,0,9
0,42,0,0
0,61,0,9
0,49,0,14
0,49,76,3
0,37,80,0
0,80,127,0
0,42,98,0
0,69,90,0
0,64,89,0
0,36,119,0
0,61,72,0
0,37,68,0
0,68,85,0
0,36,0,9
0,42,0,0
0,69,0,0
0,80,0,39
0,49,0,1
0,69,54,11
0,69,0,9
0,69,79,51
0,49,64,0
0,61,55,0
0,42,98,0
0,64,56,0
0,80,123,0
0,68,60,0
0,42,0,9
0,69,0,0
0,64,0,16
0,68,0,6
0,61,0,4
0,80,0,6
0,49,0,5
0,37,0,13
0,42,102,1
0,69,51,0
0,49,62,0
0,69,0,9
0,42,0,0
0,49,0,30
0,69,83,21
0,37,80,0
0,38,107,0
0,42,98,0
0,80,127,0
0,42,0,9
0,38,0,0
0,69,0,0
0,64,76,51
0,68,68,0
0,49,60,0
0,61,56,0
0,69,47,0
0,69,0,9
0,64,0,16
0,68,0,3
0,49,0,6
0,61,0,0
0,49,80,26
0,69,79,0
0,42,89,0
0,42,0,9
0,69,0,0
0,49,0,30
0,37,0,16
0,69,64,5
0,42,76,0
0,42,0,9
0,69,0,0
0,37,72,51
0,61,52,0
0,36,113,0
0,68,59,0
0,69,79,0
0,49,72,0
0,64,68,0
0,42,102,0
0,42,0,9
0,36,0,0
0,69,0,0
0,61,0,27
0,68,0,0
0,64,0,2
0,49,0,4
0,69,52,15
0,69,0,9
0,80,0,0
0,68,0,40
0,64,68,11
0,42,72,0
0,61,51,0
0,69,83,0
0,78,127,0
0,49,72,0
0,68,50,0
0,64,0,5
0,69,0,4
0,42,0,0
0,61,0,13
0,68,0,16
0,49,0,2
0,37,0,4
0,78,0,0
0,61,0,1
0,64,0,4
0,69,46,11
0,42,59,0
0,49,55,0
0,42,0,9
0,37,0,0
0,69,0,0
0,49,0,25
0,42,102,26
0,49,72,0
0,78,127,0
0,37,89,0
0,69,90,0
0,38,113,0
0,38,0,9
0,42,0,0
0,69,0,0
0,49,0,30
0,69,75,21
0,69,0,9
0,78,0,26
0,76,106,25
0,46,85,0
0,49,62,0
0,69,86,0
0,69,0,9
0,46,0,0
0,76,0,23
0,49,0,10
0,76,127,18
0,69,50,0
0,49,55,0
0,69,0,9
0,37,0,12
0,49,0,13
0,69,86,14
0,36,113,0
0,64,76,0
0,28,76,0
0,56,64,0
0,42,107,0
0,59,76,0
0,52,76,0
0,40,89,0
0,42,0,9
0,36,0,0
0,69,0,0
0,52,0,34
0,69,48,17
0,69,0,9
0,52,80,51
0,52,89,0
0,42,76,0
0,69,83,0
0,69,0,9
0,42,0,0
0,52,0,27
0,52,0,2
0,28,0,21
0,69,61,1
0,42,89,0
0,42,0,9
0,69,0,0
0,42,93,51
0,28,89,0
0,38,113,0
0,69,90,0
0,52,72,0
0,69,0,9
0,38,0,0
0,42,0,0
0,52,0,30
0,69,79,21
0,52,80,0
0,52,93,0
0,69,0,9
0,52,0,26
0,52,0,2
0,42,93,23
0,69,83,0
0,69,0,9
0,42,0,0
0,42,89,51
0,69,72,0
0,52,62,0
0,28,0,1
0,69,0,8
0,42,0,0
0,52,0,19
0,69,79,32
0,28,89,0
0,52,72,0
0,42,107,0
0,36,107,0
0,52,93,0
0,36,0,9
0,42,0,0
0,69,0,0
0,52,0,26
0,69,68,25
0,69,0,9
0,52,72,51
0,69,75,0
0,46,89,0
0,46,0,9
0,69,0,0
0,52,0,11
0,52,0,19
0,28,0,7
0,52,72,14
0,69,75,0
0,52,89,0
0,69,0,9
0,52,0,26
0,69,86,25
0,28,89,0
0,42,107,0
0,38,113,0
0,38,0,9
0,42,0,0
0,69,0,0
0,52,76,51
0,69,68,0
0,69,0,9
0,52,0,10
0,76,0,2
0,52,0,13
0,52,64,26
0,46,93,0
0,52,89,0
0,69,79,0
0,69,0,9
0,46,0,0
0,64,0,13
0,52,0,10
0,52,0,2
0,56,0,3
0,40,0,3
0,59,0,12
0,69,75,8
0,52,72,0
0,69,0,9
0,28,0,20
0,52,0,6
0,69,83,25
0,64,89,0
0,52,85,0
0,56,80,0
0,40,85,0
0,52,55,0
0,36,119,0
0,42,93,0
0,85,118,0
0,59,98,0
0,40,89,0
0,42,0,9
0,36,0,0
0,69,0,0
0,52,0,34
0,85,0,3
0,69,52,14
0,69,0,9
0,64,55,51
0,52,80,0
0,68,59,0
0,42,89,0
0,85,118,0
0,69,72,0
0,69,0,9
0,42,0,0
0,68,0,20
0,52,0,7
0,64,0,5
0,85,0,2
