track,note,velocity,time
0,42,127,5
0,42,127,27
0,42,127,231
0,42,127,231
0,38,41,71
0,38,71,32
0,38,127,30
0,38,127,71
0,46,127,1
0,38,71,72
0,41,127,72
0,36,127,72
0,38,71,0
0,45,127,72
0,38,71,72
0,36,127,72
0,48,127,0
0,38,41,72
0,38,71,72
0,36,127,72
0,38,41,0
0,38,127,70
0,38,127,70
0,38,93,69
0,62,113,0
0,69,107,0
0,65,113,0
0,57,98,0
0,62,113,0
0,50,107,0
0,36,127,2
0,42,127,1
0,49,127,0
0,57,93,21
0,50,98,0
0,62,89,37
0,69,93,0
0,65,98,0
0,42,71,3
0,38,98,2
0,50,113,0
0,57,113,0
0,57,75,0
0,62,90,0
0,65,83,0
0,36,127,3
0,38,127,0
0,42,127,0
0,62,85,5
0,69,85,0
0,65,93,0
0,57,102,40
0,50,107,0
0,65,79,0
0,57,72,0
0,62,90,0
0,46,127,3
0,38,98,10
0,62,98,0
0,65,107,0
0,69,98,0
0,36,127,3
0,42,127,0
0,62,93,29
0,65,98,0
0,69,98,0
0,50,113,25
0,57,107,0
0,42,71,3
0,38,98,36
0,62,93,0
0,69,98,0
0,65,98,0
0,65,83,0
0,57,79,0
0,62,90,0
0,36,127,2
0,38,127,1
0,42,127,0
0,57,93,5
0,50,107,0
0,62,89,44
0,69,93,0
0,65,102,0
0,62,96,0
0,57,79,0
0,65,86,0
0,42,71,3
0,38,93,12
0,50,113,0
0,57,107,0
0,36,127,3
0,42,127,0
0,62,85,34
0,69,89,0
0,65,98,0
0,50,102,37
0,57,107,0
0,42,71,3
0,38,107,24
0,62,93,0
0,65,102,0
0,69,102,0
0,57,72,0
0,62,86,0
0,65,83,0
0,36,127,2
0,38,127,1
0,42,127,0
0,50,113,10
0,57,107,0
0,69,102,34
0,65,102,0
0,62,98,0
0,42,71,3
0,31,107,27
0,62,102,0
0,67,107,0
0,71,107,0
0,67,113,0
0,55,107,0
0,62,102,0
0,59,90,0
0,67,96,0
0,62,96,0
0,36,127,3
0,49,127,0
0,46,127,0
0,42,71,41
0,29,107,7
0,69,107,0
0,65,113,0
0,60,107,0
0,53,102,0
0,65,98,0
0,60,93,0
0,57,79,0
0,65,86,0
0,60,96,0
0,36,127,3
0,38,127,0
0,46,127,0
0,49,127,1
0,42,71,34
0,38,102,17
0,62,93,0
0,69,102,0
0,65,107,0
0,57,93,0
0,62,107,0
0,50,93,0
0,36,127,0
0,42,127,0
0,50,89,26
0,57,85,0
0,69,93,45
0,62,85,0
0,65,98,0
0,42,71,3
0,38,98,32
0,57,102,0
0,50,113,0
0,57,72,0
0,65,79,0
0,62,90,0
0,36,127,3
0,38,127,0
0,42,127,0
0,62,76,3
0,69,80,0
0,65,98,0
0,57,107,42
0,50,107,0
0,57,72,0
0,62,83,0
0,65,86,0
0,46,127,3
0,38,98,9
0,69,93,0
0,65,93,0
0,62,93,0
0,36,127,3
0,42,127,0
0,50,93,33
0,57,93,0
0,62,93,17
0,69,93,0
0,65,107,0
0,42,71,3
0,38,98,22
0,50,113,0
0,57,113,0
0,57,75,0
0,62,86,0
0,65,79,0
0,36,127,2
0,38,127,1
0,42,127,0
0,62,76,5
0,69,89,0
0,65,93,0
0,50,93,36
0,57,98,0
0,57,75,0
0,62,90,0
0,65,83,0
0,42,71,3
0,38,98,5
0,62,98,0
0,65,98,0
0,69,93,0
0,36,127,3
0,42,127,0
0,57,89,33
0,50,93,0
0,62,80,39
0,65,98,0
0,69,89,0
0,42,71,3
0,38,107,9
0,50,107,0
0,57,113,0
0,57,79,0
0,62,90,0
0,65,86,0
0,36,127,3
0,38,127,0
0,42,127,0
0,62,89,2
0,65,98,0
0,69,93,0
0,50,119,17
0,57,113,0
0,38,127,3
0,42,71,0
0,29,107,0
0,60,102,0
0,65,113,0
0,69,107,0
0,60,93,0
0,65,93,0
0,53,107,0
0,57,83,0
0,65,90,0
0,60,90,0
0,36,127,3
0,46,127,0
0,49,127,1
0,42,71,2
0,36,102,12
0,60,93,0
0,64,107,0
0,67,102,0
0,60,107,0
0,55,98,0
0,48,76,0
0,55,83,0
0,64,96,0
0,60,90,0
0,36,127,3
0,38,127,0
0,46,127,0
0,49,127,1
0,42,71,22
0,38,93,36
0,62,113,0
0,69,107,0
0,65,113,0
0,48,107,0
0,60,107,0
0,36,127,3
0,42,127,0
0,49,127,0
0,57,93,21
0,50,98,0
0,50,107,0
0,62,107,0
0,62,89,37
0,69,93,0
0,65,98,0
0,50,107,0
0,62,107,0
0,42,71,3
0,38,98,2
0,50,113,0
0,57,113,0
0,50,113,0
0,62,113,0
0,57,75,0
0,62,90,0
0,65,83,0
0,36,127,3
0,38,127,0
0,42,127,0
0,62,85,5
0,69,85,0
0,65,93,0
0,57,102,40
0,50,107,0
0,65,79,0
0,57,72,0
0,62,90,0
0,46,127,3
0,38,98,9
0,62,98,0
0,65,107,0
0,69,98,0
0,48,102,0
0,60,102,0
0,36,127,2
0,42,127,1
0,62,93,29
0,65,98,0
0,69,98,0
0,50,102,0
0,62,102,0
0,50,113,25
0,57,107,0
0,50,107,0
0,62,107,0
0,42,71,3
0,38,98,24
0,62,93,0
0,69,98,0
0,65,98,0
0,50,107,0
0,62,107,0
0,65,83,0
0,57,79,0
0,62,90,0
0,36,127,3
0,38,127,0
0,42,127,0
0,57,93,5
0,50,107,0
0,62,89,44
0,69,93,0
0,65,102,0
0,62,96,0
0,57,79,0
0,65,86,0
0,42,71,3
0,38,93,12
0,50,113,0
0,57,107,0
0,48,102,0
0,60,102,0
0,36,127,3
0,42,127,0
0,62,85,7
0,69,89,0
0,65,98,0
0,50,102,0
0,62,102,0
0,50,102,37
0,57,107,0
0,50,98,0
0,62,98,0
0,42,71,3
0,38,107,24
0,62,93,0
0,65,102,0
0,69,102,0
0,50,107,0
0,62,107,0
0,57,72,0
0,62,86,0
0,65,83,0
0,36,127,2
0,38,127,1
0,42,127,0
0,50,113,10
0,57,107,0
0,69,102,7
0,65,102,0
0,62,98,0
0,48,98,0
0,60,98,0
0,42,71,3
0,31,107,21
0,62,102,0
0,67,107,0
0,71,107,0
0,71,107,0
0,55,119,0
0,67,119,0
0,59,90,0
0,67,96,0
0,62,96,0
0,36,127,3
0,49,127,0
0,46,127,0
0,42,71,53
0,29,107,7
0,69,107,0
0,65,113,0
0,60,107,0
0,69,107,0
0,53,113,0
0,65,113,0
0,57,79,0
0,65,86,0
0,60,96,0
0,36,127,3
0,38,127,0
0,46,127,0
0,49,127,1
0,42,71,150
0,38,102,11
0,62,93,0
0,69,102,0
0,65,107,0
0,48,107,0
0,60,107,0
0,36,127,0
0,42,127,0
0,49,127,0
0,50,89,26
0,57,85,0
0,50,113,0
0,62,113,0
0,69,93,38
0,62,85,0
0,65,98,0
0,50,107,0
0,62,107,0
0,42,71,3
0,38,98,32
0,57,102,0
0,50,113,0
0,50,113,0
0,62,113,0
0,57,72,0
0,65,79,0
0,62,90,0
0,36,127,2
0,38,127,1
0,42,127,0
0,62,76,3
0,69,80,0
0,65,98,0
0,57,107,42
0,50,107,0
0,57,72,0
0,62,83,0
0,65,86,0
0,46,127,3
0,38,98,9
0,69,93,0
0,65,93,0
0,62,93,0
0,48,93,0
0,60,93,0
0,36,127,3
0,42,127,0
0,50,93,15
0,57,93,0
0,50,98,0
0,62,98,0
0,62,93,17
0,69,93,0
0,65,107,0
0,50,89,0
0,62,89,0
0,42,71,3
0,38,98,22
0,50,113,0
0,57,113,0
0,50,113,0
0,62,113,0
0,57,75,0
0,62,86,0
0,65,79,0
0,36,127,2
0,38,127,1
0,42,127,0
0,62,76,5
0,69,89,0
0,65,93,0
0,50,93,36
0,57,98,0
0,57,75,0
0,62,90,0
0,65,83,0
0,42,71,3
0,38,98,5
0,62,98,0
0,65,98,0
0,69,93,0
0,48,93,0
0,60,93,0
0,36,127,3
0,42,127,0
0,57,89,8
0,50,93,0
0,50,93,0
0,62,93,0
0,62,80,34
0,65,98,0
0,69,89,0
0,50,107,0
0,62,107,0
0,42,71,3
0,38,107,26
0,50,107,0
0,57,113,0
0,50,107,0
0,62,107,0
0,57,79,0
0,62,90,0
0,65,86,0
0,36,127,3
0,38,127,0
0,42,127,0
0,62,89,2
0,65,98,0
0,69,93,0
0,38,41,2
0,50,119,3
0,57,113,0
0,48,107,0
0,60,107,0
0,38,127,2
0,42,71,1
0,29,107,0
0,60,102,0
0,65,113,0
0,69,107,0
0,69,102,0
0,53,113,0
0,65,113,0
0,57,83,0
0,65,90,0
0,60,90,0
0,36,127,2
0,38,41,1
0,49,127,0
0,46,127,0
0,38,71,70
0,38,41,1
0,42,71,1
0,36,102,5
0,60,93,0
0,64,107,0
0,67,102,0
0,72,102,0
0,52,113,0
0,64,113,0
0,55,83,0
0,64,96,0
0,60,90,0
0,36,127,3
0,38,127,0
0,49,127,0
0,46,127,0
0,38,127,71
0,38,127,1
0,42,71,1
0,38,102,0
0,69,89,0
0,62,89,0
0,65,93,0
0,50,98,0
0,57,80,0
0,57,89,0
0,50,89,0
0,57,68,0
0,50,75,0
0,65,64,0
0,69,62,0
0,74,68,0
0,50,68,0
0,74,127,0
0,36,127,3
0,42,127,0
0,49,127,0
0,62,52,18
0,50,64,23
0,57,61,0
0,76,127,0
0,42,71,1
0,38,89,17
0,62,75,0
0,36,127,3
0,38,127,0
0,42,127,0
0,57,51,10
0,50,61,0
0,62,75,16
0,77,127,0
0,46,127,2
0,38,89,1
0,50,64,0
0,57,61,0
0,36,127,2
0,42,127,1
0,62,64,7
0,50,79,17
0,57,75,0
0,79,127,0
0,42,71,3
0,38,93,47
0,50,62,0
0,57,80,0
0,62,83,0
0,36,127,3
0,38,127,0
0,42,127,0
0,57,61,24
0,50,75,0
0,62,75,21
0,81,127,0
0,42,71,3
0,38,89,13
0,50,62,0
0,57,76,0
0,50,75,0
0,57,75,0
0,36,127,3
0,42,127,0
0,62,75,51
0,50,64,6
0,57,61,0
0,79,127,0
0,42,71,3
0,38,89,16
0,62,83,0
0,36,127,2
0,38,127,1
0,42,127,0
0,57,64,10
0,50,68,0
0,62,79,24
0,77,127,0
0,42,71,3
0,38,98,49
0,50,64,0
0,57,68,0
0,36,127,3
0,42,127,0
0,62,72,5
0,57,64,16
0,50,75,0
0,76,127,0
0,42,71,3
0,38,89,23
0,57,76,0
0,50,76,0
0,62,79,0
0,36,127,3
0,38,127,0
0,42,127,0
0,50,72,2
0,57,72,0
0,62,83,7
0,42,71,3
0,34,89,5
0,46,85,0
0,62,93,0
0,58,80,0
0,53,76,0
0,53,89,0
0,46,76,0
0,46,75,0
0,65,68,0
0,74,93,0
0,46,72,0
0,70,60,0
0,74,127,0
0,36,127,2
0,42,127,1
0,53,38,59
0,58,61,0
0,62,52,0
0,46,75,11
0,76,127,0
0,42,71,3
0,34,85,18
0,58,46,0
0,62,72,0
0,53,51,0
0,36,127,3
0,38,127,0
0,42,127,1
0,46,75,9
0,58,48,45
0,53,47,0
0,62,64,0
0,77,127,0
0,46,127,3
0,34,93,34
0,53,52,0
0,58,61,0
0,62,79,0
0,36,127,3
0,42,127,0
0,46,57,8
0,53,38,19
0,58,52,0
0,62,68,0
0,76,127,0
0,42,71,1
0,34,93,49
0,53,76,0
0,46,80,0
0,58,61,0
0,53,50,0
0,62,75,0
0,36,127,3
0,38,127,0
0,42,127,0
0,46,72,1
0,53,47,22
0,62,72,0
0,58,52,0
0,74,127,0
0,42,71,1
0,34,93,4
0,53,85,0
0,46,85,0
0,46,64,0
0,36,127,2
0,42,127,1
0,53,26,4
0,58,43,0
0,62,61,0
0,46,68,47
0,46,75,0
0,42,71,3
0,34,89,37
0,53,62,0
0,58,64,0
0,62,89,0
0,58,61,0
0,53,51,0
0,62,75,0
0,36,127,3
0,38,127,0
0,42,127,0
0,46,64,0
0,46,89,21
0,58,57,0
0,53,51,0
0,62,75,0
0,42,71,3
0,34,89,18
0,58,89,0
0,53,85,0
0,62,107,0
0,53,98,0
0,46,93,0
0,46,86,0
0,36,127,3
0,42,127,0
0,53,52,2
0,62,83,0
0,58,61,0
0,46,86,80
0,42,71,0
0,36,98,0
0,60,102,0
0,64,102,0
0,55,89,0
0,48,93,0
0,48,98,0
0,55,107,0
0,48,90,0
0,48,107,0
0,36,127,2
0,38,127,1
0,42,127,0
0,60,61,15
0,55,61,0
0,72,127,0
0,42,71,1
0,38,107,3
0,65,98,0
0,50,98,0
0,62,93,0
0,57,85,0
0,50,93,0
0,57,93,0
0,50,90,0
0,50,113,0
0,69,60,0
0,74,68,0
0,65,62,0
0,74,127,0
0,36,127,2
0,42,127,0
0,57,54,6
0,76,127,0
0,42,71,3
0,38,102,8
0,50,79,0
0,36,127,3
0,38,127,0
0,42,127,0
0,50,61,105
0,77,127,0
0,46,127,2
0,38,93,15
0,57,47,0
0,62,68,0
0,36,127,2
0,42,127,1
0,50,61,24
0,57,51,35
0,62,75,0
0,79,127,0
0,42,71,3
0,38,93,19
0,50,79,0
0,36,127,3
0,38,127,0
0,42,127,0
0,57,43,14
0,62,54,0
0,50,68,4
0,81,127,0
0,42,71,3
0,38,102,3
0,50,68,0
0,57,85,0
0,57,47,0
0,65,61,0
0,62,61,0
0,36,127,2
0,42,127,1
0,50,61,5
0,57,46,23
0,62,64,0
0,65,61,0
0,79,127,0
0,42,71,3
0,38,93,6
0,50,68,0
0,36,127,3
0,38,127,0
0,42,127,0
0,57,51,10
0,62,61,0
0,50,64,0
0,77,127,0
0,42,71,3
0,38,98,17
0,57,52,0
0,62,75,0
0,36,127,3
0,42,127,0
0,50,64,3
0,57,52,12
0,62,79,0
0,76,127,0
0,42,71,3
0,38,102,61
0,57,89,0
0,50,85,0
0,50,75,0
0,36,127,3
0,38,127,0
0,42,127,0
0,57,51,9
0,62,75,0
0,50,75,3
0,42,71,2
0,34,93,12
0,46,85,0
0,58,72,0
0,65,85,0
0,62,98,0
0,53,93,0
0,46,89,0
0,46,90,0
0,74,89,0
0,70,76,0
0,46,80,0
0,65,53,0
0,74,127,0
0,36,127,3
0,42,127,0
0,76,127,35
0,42,71,2
0,34,89,40
0,58,51,0
0,53,47,0
0,62,61,0
0,36,127,1
0,38,127,0
0,42,127,0
0,46,64,8
0,53,41,40
0,58,51,0
0,62,68,0
0,77,127,0
0,46,127,3
0,34,93,53
0,46,86,0
0,36,127,2
0,42,127,1
0,58,48,3
0,62,44,0
0,53,40,0
0,46,64,20
0,79,127,0
0,42,71,3
0,34,93,22
0,53,47,0
0,58,61,0
0,62,72,0
0,36,127,3
0,38,127,0
0,42,127,1
0,46,61,16
0,62,75,1
0,58,54,0
0,53,46,0
0,74,127,0
0,42,71,2
0,34,98,17
0,58,40,0
0,62,53,0
0,65,68,0
0,46,68,0
0,46,72,0
0,53,80,0
0,46,86,0
0,36,127,3
0,42,127,0
0,58,51,3
0,53,46,0
0,62,64,0
0,46,61,0
0,42,71,3
0,34,98,8
0,58,59,0
0,46,89,0
0,65,93,0
0,62,98,0
0,53,54,0
0,58,68,0
0,62,79,0
0,36,127,3
0,38,127,0
0,42,127,0
0,46,79,68
0,58,68,5
0,62,75,0
0,53,64,0
0,42,71,3
0,34,98,48
0,46,93,0
0,58,64,0
0,65,89,0
0,62,98,0
0,46,107,0
0,53,102,0
0,46,83,0
0,36,127,0
0,42,127,0
0,53,61,2
0,58,61,0
0,62,79,0
0,46,90,18
0,42,71,1
0,34,93,48
0,46,98,0
0,65,98,0
0,58,80,0
0,62,102,0
0,53,107,0
0,58,64,0
0,53,64,0
0,62,79,0
0,36,127,2
0,38,127,1
0,42,127,0
0,46,75,21
0,53,54,15
0,62,75,0
0,58,61,0
0,42,71,0
0,31,93,2
0,43,89,0
0,58,72,0
0,55,89,0
0,62,93,0
0,43,98,0
0,50,113,0
0,43,86,0
0,74,98,0
0,67,80,0
0,70,89,0
0,43,93,0
0,74,127,0
0,36,127,3
0,42,127,0
0,49,127,0
0,58,54,57
0,55,51,0
