track,note,velocity,time
1,64,11,16
1,72,47,1456
1,72,43,112
1,79,63,5582
1,77,83,192
1,76,75,0
1,74,63,80
1,76,83,0
1,74,31,14
1,72,31,0
1,72,67,44
1,71,83,0
1,71,59,32
1,69,63,0
1,69,55,16
1,70,51,0
1,70,75,16
1,67,87,18
1,72,55,768
1,71,75,528
1,69,59,178
1,67,63,496
1,65,51,48
1,64,59,82
1,65,67,0
1,67,43,782
1,67,27,64
1,60,59,18
1,62,67,558
1,64,71,2
1,65,55,556
1,67,55,160
1,69,47,530
1,67,71,0
1,69,71,192
1,71,79,176
1,69,71,174
1,67,59,0
1,64,63,0
1,64,59,50
1,67,39,190
1,67,51,32
1,65,51,0
1,64,39,0
1,62,71,192
1,60,75,176
1,60,43,48
1,59,75,384
1,55,47,16
1,55,47,32
1,57,63,0
1,60,55,0
1,67,55,4368
1,65,43,192
1,64,63,16
1,72,59,354
1,76,79,0
1,74,87,228
1,72,79,0
1,74,35,96
1,76,55,30
1,79,71,0
1,77,63,734
1,70,75,770
1,67,95,0
1,72,39,800
1,74,39,882
1,76,55,0
1,77,75,192
1,76,63,0
1,79,51,1502
1,77,35,0
1,70,75,770
1,67,95,16
1,69,87,210
1,71,95,176
1,67,75,0
1,65,83,1520
1,67,79,546
1,69,75,0
1,67,71,304
1,67,95,2608
1,69,75,82
1,71,83,80
1,72,63,78
1,74,75,66
1,72,63,64
1,74,87,98
1,76,99,7906
1,74,43,92
1,72,75,18
1,74,31,80
1,76,75,46
1,77,55,50
1,79,95,18
1,77,75,366
1,74,75,0
1,84,87,768
1,83,95,176
1,81,95,146
1,79,103,16
1,84,91,192
1,83,95,176
1,81,87,192
1,79,95,160
1,79,95,62
1,67,99,0
1,69,79,224
1,71,87,82
1,72,87,84
1,69,51,0
1,71,71,32
1,72,39,0
1,76,71,0
1,74,59,0
1,77,87,0
1,81,79,0
1,79,91,0
1,83,103,0
1,84,115,0
1,83,75,0
1,81,75,0
1,79,71,478
1,77,63,32
1,76,79,48
1,77,67,96
1,79,59,0
1,77,55,82
1,79,59,80
1,77,67,190
1,76,71,144
1,74,63,176
1,72,35,0
1,67,43,0
1,65,71,0
1,64,59,16
1,62,55,176
1,64,63,194
1,65,59,0
1,65,63,32
1,67,43,0
1,67,7,50
1,71,79,0
1,67,55,0
1,64,19,0
1,65,51,0
1,64,55,64
1,62,55,512
1,64,47,0
1,65,51,32
1,65,71,32
1,65,63,34
1,67,55,32
1,71,71,176
1,67,63,0
1,65,31,0
1,64,7,14
1,65,63,16
1,65,59,32
1,65,63,64
1,67,55,18
1,71,83,0
1,67,63,0
1,65,63,242
1,64,35,0
2,64,3,1536
2,62,47,64
2,60,63,192
2,62,67,162
2,64,71,0
2,64,19,130
2,55,55,16
2,64,83,0
2,62,79,190
2,60,59,178
2,62,71,176
2,64,63,160
2,67,83,160
2,69,79,558
2,64,79,0
2,67,87,0
2,65,63,162
2,64,79,0
2,67,87,0
2,62,55,16
2,64,83,370
2,65,83,178
2,67,87,160
2,65,95,178
2,64,75,158
2,67,87,0
2,62,79,0
2,74,51,18
2,72,55,18
2,74,67,174
2,76,67,160
2,76,43,32
2,67,71,0
2,76,75,384
2,74,63,174
2,72,51,160
2,74,63,174
2,76,63,160
2,79,79,158
2,81,75,562
2,76,47,0
2,79,91,0
2,77,79,96
2,76,79,0
2,79,75,190
2,74,63,0
2,76,63,384
2,77,71,176
2,79,75,176
2,77,75,162
2,76,51,32
2,79,67,0
2,74,51,0
2,79,63,384
2,86,3,0
2,88,3,16
2,86,67,32
2,86,27,48
2,72,39,0
2,76,39,192
2,79,51,0
2,81,51,190
2,81,87,50
2,81,79,46
2,71,59,18
2,84,47,0
2,83,75,558
2,81,63,162
2,79,55,162
2,76,23,0
2,77,39,0
2,79,47,178
2,76,35,0
2,79,59,0
2,86,15,1346
2,86,63,16
2,86,35,32
2,72,39,0
2,76,35,192
2,79,47,0
2,81,39,80
2,81,55,66
2,81,31,64
2,71,39,0
2,76,43,562
2,77,63,62
2,79,63,96
2,79,71,48
2,79,63,48
2,77,47,0
2,72,39,16
2,69,31,0
2,67,67,0
2,74,7,0
2,74,47,16
2,74,63,50
2,76,47,176
2,79,55,0
2,76,43,210
2,74,55,174
2,72,35,0
2,62,71,448
2,60,83,192
2,62,79,178
2,64,79,0
2,64,27,50
2,55,55,190
2,64,75,352
2,62,91,176
2,60,63,176
2,62,71,144
2,64,83,0
2,67,71,0
2,69,63,592
2,64,47,0
2,67,75,0
2,65,79,192
2,64,59,0
2,67,75,0
2,62,71,0
2,64,75,386
2,65,75,178
2,67,83,176
2,65,75,194
2,64,63,0
2,67,63,178
2,62,47,194
2,74,59,544
2,72,43,0
2,74,51,176
2,76,55,0
2,76,31,34
2,67,63,0
2,76,67,354
2,74,27,160
2,72,19,160
2,74,39,174
2,76,35,0
2,79,51,0
2,81,63,0
2,76,23,0
2,79,83,0
2,77,59,96
2,76,75,0
2,79,63,194
2,74,23,190
2,76,71,350
2,77,67,162
2,79,55,0
2,77,55,192
2,76,43,0
2,79,63,190
2,74,43,0
2,79,71,0
2,86,43,190
2,86,39,34
2,86,43,50
2,72,43,0
2,76,23,210
2,79,31,158
2,81,27,0
2,81,55,64
2,81,47,64
2,71,63,0
2,84,55,16
2,83,83,592
2,81,79,176
2,79,79,0
2,76,43,174
2,77,71,158
2,79,63,156
2,76,39,0
2,79,75,96
2,86,51,1312
2,86,63,48
2,86,31,64
2,72,27,0
2,76,75,110
2,79,47,64
2,81,55,80
2,81,79,66
2,81,63,34
2,71,63,0
2,76,75,0
2,77,59,94
2,79,27,0
2,79,67,48
2,79,63,48
2,77,63,16
2,72,51,0
2,69,27,0
2,67,7,32
2,74,27,32
2,74,55,30
2,74,63,32
2,76,43,178
2,79,71,0
2,76,55,96
2,74,63,0
2,86,55,194
2,72,31,0
2,86,67,34
2,86,47,32
2,72,63,162
2,76,71,192
2,79,71,0
2,81,79,0
2,81,87,48
2,81,83,48
2,71,63,0
2,84,71,0
2,83,71,578
2,81,67,162
2,79,71,158
2,76,63,160
2,77,87,194
2,79,83,0
2,76,63,0
2,79,79,0
2,86,39,1376
2,86,43,32
2,86,51,50
2,72,47,14
2,76,67,0
2,79,23,16
2,81,39,178
2,81,27,64
2,81,19,34
2,71,63,0
2,76,47,0
2,77,51,96
2,79,27,80
2,79,51,32
2,79,55,50
2,77,39,174
2,72,47,14
2,69,23,176
2,67,51,0
2,74,19,0
2,74,43,32
2,74,55,46
2,76,43,176
2,79,47,0
2,76,55,386
2,74,43,80
2,72,35,0
2,74,15,0
2,74,31,32
2,74,59,34
2,76,63,174
2,79,55,18
2,76,55,16
2,74,63,210
2,72,43,14
2,74,51,0
2,74,23,32
2,74,55,32
2,76,47,0
2,79,63,238
2,76,59,0
2,74,71,0
2,72,7,0
3,48,1,1536
3,60,3,0
3,48,7,0
3,62,11,0
3,60,59,16
3,64,11,144
3,67,27,16
3,62,63,0
3,48,63,0
3,60,74,0
3,64,47,192
3,67,67,14
3,62,31,0
3,48,67,50
3,48,55,128
3,48,63,64
3,59,27,66
3,64,19,14
3,67,3,16
3,48,47,16
3,57,59,0
3,53,27,0
3,65,23,0
3,69,23,14
3,62,43,18
3,46,43,16
3,46,15,0
3,58,67,0
3,46,35,0
3,43,59,16
3,43,63,0
3,55,47,18
3,67,97,0
3,55,23,0
3,60,31,0
3,64,43,0
3,48,63,14
3,48,11,0
3,60,67,64
3,48,67,48
3,48,27,94
3,60,51,32
3,36,71,192
3,59,27,0
3,48,83,52
3,36,95,0
3,59,51,78
3,48,103,174
3,60,31,96
3,48,123,32
3,53,27,46
3,57,63,0
3,69,67,0
3,65,87,0
3,46,11,18
3,58,31,16
3,62,87,0
3,46,95,16
3,46,51,0
3,46,59,16
3,55,27,16
3,67,91,0
3,43,59,0
3,43,83,0
3,55,3,96
3,74,43,30
3,48,67,0
3,60,39,0
3,48,63,0
3,47,71,0
3,47,55,16
3,59,35,0
3,45,79,0
3,57,47,0
3,64,31,34
3,69,27,0
3,45,23,0
3,43,91,50
3,55,27,0
3,43,79,0
3,41,59,16
3,53,31,0
3,65,43,0
3,41,63,0
3,72,35,400
3,62,83,18
3,43,3,16
3,67,43,0
3,55,27,0
3,43,75,16
3,71,87,210
3,88,75,0
3,86,55,46
3,69,51,50
3,84,67,0
3,86,31,12
3,67,75,14
3,88,67,18
3,86,31,0
3,55,7,16
3,88,55,66
3,48,71,0
3,60,19,0
3,64,23,0
3,71,59,0
3,48,15,16
3,59,15,64
3,47,19,34
3,86,31,160
3,47,87,0
3,45,7,98
3,72,63,16
3,69,83,0
3,84,43,0
3,45,115,0
3,57,23,416
3,62,55,16
3,43,27,0
3,71,23,0
3,55,15,0
3,41,59,0
3,43,43,0
3,67,31,0
3,55,63,688
3,74,83,0
3,79,79,0
3,72,71,18
3,71,99,128
3,69,71,18
3,67,95,50
3,77,79,16
3,81,55,0
3,83,55,14
3,65,83,0
3,84,71,0
3,86,71,0
3,88,79,0
3,89,83,0
3,55,3,0
3,91,87,0
3,48,127,0
3,62,63,0
3,60,39,0
3,67,83,0
3,48,23,16
3,64,79,66
3,47,23,16
3,59,19,0
3,47,87,160
3,45,15,80
3,57,15,0
3,60,27,20
3,45,99,14
3,43,51,62
3,55,3,0
3,41,35,0
3,65,71,0
3,69,75,0
3,53,7,0
3,41,87,0
3,41,31,0
3,60,71,16
3,65,87,0
3,55,23,32
3,43,3,0
3,69,87,0
3,43,87,16
3,67,79,130
3,65,79,94
3,64,47,0
3,55,19,66
3,60,23,64
3,67,59,16
3,48,83,0
3,48,11,0
3,65,15,0
3,53,7,0
3,69,63,0
3,57,11,0
3,45,75,16
3,55,31,0
3,64,11,0
3,60,15,0
3,67,35,14
3,48,51,18
3,48,7,0
3,53,7,96
3,57,7,0
3,41,75,0
3,50,7,0
3,69,7,18
3,65,15,0
3,43,75,0
3,71,63,16
3,55,7,0
3,67,79,0
3,59,7,0
3,48,3,94
3,59,3,0
3,72,47,16
3,48,55,0
3,64,3,0
3,47,47,62
3,36,63,194
3,36,63,16
3,43,47,16
3,55,19,432
3,48,99,50
3,36,103,0
3,60,19,16
3,64,15,16
3,67,31,0
3,62,11,0
3,48,7,30
3,60,51,896
3,59,59,192
3,57,67,0
3,48,51,0
3,62,75,0
3,64,87,0
3,67,91,0
3,60,75,0
3,55,51,0
3,55,43,32
3,57,67,0
3,67,39,16
3,64,55,14
3,55,19,0
3,62,31,0
3,60,39,0
3,48,11,0
3,55,63,50
3,48,67,0
3,60,63,0
3,62,55,14
3,64,71,0
3,67,79,0
3,48,19,110
3,55,11,16
3,59,63,18
3,64,31,0
3,62,7,0
3,67,23,0
3,60,15,0
3,41,79,20
3,65,43,0
3,69,39,0
3,43,43,0
3,41,31,96
3,62,13,0
3,65,11,32
3,70,63,46
3,58,23,16
3,46,91,18
3,46,19,0
3,43,55,16
3,55,43,0
3,67,75,0
3,43,67,18
3,55,59,0
3,79,55,208
3,77,55,0
3,83,47,18
3,53,91,62
3,86,39,0
3,52,87,0
3,91,21,0
3,48,87,0
3,60,15,0
3,48,11,0
3,64,7,0
3,67,19,0
3,69,11,0
3,65,63,0
3,60,15,48
3,48,99,0
3,64,27,32
3,48,7,0
3,67,35,0
3,48,127,48
3,65,27,14
3,48,11,18
3,69,47,0
3,48,99,80
3,60,47,0
3,48,75,32
3,64,47,0
3,48,39,0
3,67,59,0
3,53,19,0
3,41,23,0
3,69,27,0
3,41,63,0
3,65,11,0
3,60,71,0
3,58,71,16
3,46,67,16
3,62,87,0
3,46,91,16
3,89,7,14
3,43,59,16
3,86,11,0
3,55,67,0
3,43,51,0
3,67,91,0
3,55,67,0
3,48,79,0
3,60,11,14
3,64,23,18
3,48,23,0
3,67,63,16
3,72,39,0
3,47,71,336
3,71,87,48
3,47,63,0
3,59,23,0
3,45,55,0
3,69,47,0
3,72,43,0
3,45,59,18
3,57,39,0
3,71,103,348
3,43,59,0
3,72,87,60
3,41,43,0
3,65,79,0
3,53,35,0
3,69,79,0
3,41,3,16
3,72,79,352
3,53,95,64
3,43,27,18
3,43,75,0
3,69,95,16
3,55,103,0
3,72,91,0
3,65,87,0
3,43,71,0
3,64,75,46
3,48,3,16
3,60,63,16
3,67,27,16
3,48,103,0
3,47,115,14
3,47,55,18
3,59,39,0
3,71,87,0
3,45,103,46
3,57,39,0
3,45,63,18
3,69,95,0
3,67,71,144
3,43,79,112
3,64,63,142
3,41,71,32
3,55,51,0
3,43,27,0
3,45,55,14
3,43,24,0
3,71,79,704
3,65,47,16
3,62,59,0
3,79,95,226
3,79,99,0
3,81,63,98
3,81,83,0
3,83,63,80
3,83,83,0
3,84,43,14
3,84,67,32
3,86,59,0
3,86,63,16
3,60,55,14
3,67,67,0
3,64,59,0
3,72,95,18
3,48,79,0
3,91,95,16
3,93,103,16
3,91,95,0
3,71,83,208
3,72,95,48
3,47,83,14
3,59,43,0
3,72,75,16
3,57,59,0
3,45,63,0
3,67,87,18
3,64,79,0
3,71,99,400
3,72,95,80
3,53,27,0
3,41,39,0
3,65,63,18
3,69,79,0
3,43,75,18
3,55,63,0
3,69,87,16
3,67,75,336
3,60,27,112
3,64,47,0
3,48,7,0
3,48,55,18
3,47,63,16
3,67,55,464
3,48,71,32
3,53,7,80
3,43,67,16
3,65,47,208
3,41,87,64
3,48,67,0
3,64,75,0
3,48,7,0
3,48,47,16
3,48,47,114
3,41,43,176
3,41,7,0
3,62,3,0
3,53,11,18
3,64,63,542
3,65,47,0
3,43,19,0
3,43,59,16
3,55,19,16
3,67,63,0
3,64,63,0
3,62,63,0
3,64,31,16
3,48,39,32
3,48,43,16
3,60,27,0
3,74,23,384
3,67,23,16
3,47,103,0
3,91,91,14
3,89,51,80
3,57,59,32
3,45,35,0
3,45,103,14
3,88,55,0
3,71,99,48
3,72,83,0
3,86,63,16
3,43,91,0
3,84,35,0
3,41,3,0
3,83,79,0
3,41,75,0
3,69,79,0
3,53,23,0
3,65,71,0
3,72,71,366
3,81,87,0
3,41,75,30
3,53,51,0
3,79,79,32
3,77,71,0
3,62,63,0
3,43,3,0
3,43,75,0
3,55,71,0
3,67,63,0
3,79,63,176
3,71,95,144
3,81,87,14
3,72,83,62
3,83,83,0
3,55,71,16
3,64,75,0
3,67,43,0
3,48,3,0
3,84,67,0
3,48,83,0
3,60,79,0
3,71,31,16
3,64,63,18
3,59,67,0
3,47,95,16
3,72,95,62
3,83,83,16
3,47,83,66
3,84,71,0
3,83,75,32
3,84,71,0
3,45,95,0
3,45,71,0
3,57,79,0
3,67,103,16
3,64,91,0
3,72,79,0
3,71,95,352
3,72,87,66
3,84,55,48
3,57,87,18
3,79,91,0
3,41,59,0
3,43,79,0
3,55,47,0
3,69,71,0
3,43,27,16
3,65,63,14
3,71,127,274
3,67,11,0
3,55,71,14
3,72,87,336
3,65,55,0
3,67,95,34
3,69,79,82
3,79,95,0
3,81,79,82
3,83,75,32
3,74,99,0
3,71,103,0
3,84,83,30
3,86,83,48
3,55,59,18
3,72,87,32
3,55,31,16
3,48,15,0
3,91,83,0
3,48,31,0
3,76,115,16
3,64,83,0
3,60,75,0
3,55,63,0
3,48,87,0
3,76,83,16
3,64,59,16
3,67,79,0
3,59,71,0
3,47,79,0
3,79,79,208
3,77,91,16
3,47,71,0
3,57,71,0
3,45,47,0
3,64,95,0
3,67,95,0
3,74,103,32
3,76,87,0
3,55,63,32
3,72,95,0
3,43,87,16
3,74,71,16
3,71,71,128
3,41,71,0
3,69,71,0
3,65,103,0
3,53,55,0
3,72,83,16
3,41,11,0
3,53,27,0
3,72,75,320
3,53,123,0
3,72,87,0
3,65,95,16
3,43,67,0
3,55,55,16
3,72,127,16
3,43,43,0
3,72,71,18
3,55,39,0
3,43,35,16
3,71,123,80
3,71,95,0
3,69,75,16
3,69,95,0
3,67,87,0
3,71,87,0
3,72,87,0
3,48,47,0
3,60,55,0
3,67,23,0
