track,note,velocity,time
2,61,114,13056
2,61,114,384
2,62,114,0
2,64,114,0
2,64,114,0
2,66,114,96
2,59,114,0
2,59,114,1920
2,59,114,384
2,61,114,0
2,62,114,0
2,61,114,0
2,64,114,100
2,57,114,0
2,69,114,1920
2,66,114,384
2,68,114,0
2,69,114,0
2,68,114,0
2,71,114,192
2,64,114,0
2,66,114,1152
2,69,114,0
2,62,114,96
2,61,114,768
2,59,114,0
2,57,114,768
2,64,114,0
2,61,114,96
2,61,114,384
2,62,114,0
2,64,114,0
2,64,114,0
2,66,114,96
2,59,114,0
2,71,114,1536
2,69,114,0
2,66,114,96
2,64,114,0
2,60,114,96
2,59,114,0
2,57,114,0
2,59,114,96
2,61,114,96
2,57,114,96
2,69,114,1920
2,66,114,384
2,68,114,0
2,69,114,4
2,68,114,0
2,71,114,96
2,64,114,0
2,66,114,1920
2,69,114,96
2,66,114,0
2,61,114,192
2,64,114,0
2,69,114,392
2,68,114,192
2,66,114,0
2,68,114,192
2,69,114,0
2,68,114,0
2,64,114,192
2,61,114,0
2,64,114,0
2,69,114,1024
2,68,114,0
2,66,114,0
2,68,114,192
2,69,114,0
2,68,114,0
2,64,114,96
2,69,114,1156
2,68,114,0
2,66,114,0
2,68,114,192
2,69,114,0
2,73,114,0
2,74,114,192
2,73,114,0
2,69,114,0
2,64,114,0
2,66,114,768
2,69,114,0
2,68,114,0
2,69,114,0
2,68,114,0
2,66,114,0
2,74,114,384
2,74,114,196
2,73,114,4
2,74,114,0
2,73,114,0
2,71,114,4
2,73,114,0
2,73,114,388
2,71,114,4
2,69,114,0
2,61,114,1152
2,62,114,0
2,64,114,4
2,66,114,4
2,66,114,192
2,59,114,96
2,71,114,768
2,69,114,0
2,73,114,96
2,71,114,0
2,69,114,0
2,66,114,4
2,64,114,0
2,61,114,0
2,59,114,0
2,57,114,0
2,59,114,0
2,57,114,0
2,57,114,0
2,69,114,1536
2,66,114,384
2,68,114,0
2,69,114,0
2,71,114,0
2,71,114,96
2,64,114,0
2,74,114,1152
2,73,114,0
2,71,114,0
2,71,114,384
2,73,114,0
2,74,114,0
2,73,114,0
2,66,114,0
2,69,114,0
2,65,114,768
2,64,114,96
2,61,114,768
2,62,114,0
2,64,114,0
2,63,114,0
2,71,114,96
2,65,114,1152
2,70,114,96
2,69,107,388
3,45,120,0
3,52,120,192
3,57,120,8
3,61,120,4
3,52,120,4
3,57,120,0
3,61,120,0
3,57,120,4
3,45,120,4
3,52,120,4
3,57,120,4
3,61,120,0
3,52,120,0
3,57,120,0
3,61,120,0
3,57,120,0
3,45,120,4
3,54,120,0
3,59,120,0
3,62,120,4
3,54,120,0
3,59,120,0
3,62,120,0
3,59,120,0
3,45,120,0
3,54,120,0
3,59,120,0
3,62,120,0
3,54,120,4
3,59,120,4
3,62,120,0
3,59,120,0
3,45,127,4
3,52,127,188
3,57,127,0
3,61,127,4
3,52,127,0
3,57,127,0
3,61,127,4
3,57,127,0
3,45,127,0
3,52,127,0
3,57,127,0
3,61,127,0
3,52,127,0
3,57,127,0
3,61,127,4
3,57,127,0
3,45,127,0
3,54,127,0
3,59,127,0
3,62,127,0
3,54,127,4
3,59,127,0
3,62,127,0
3,59,127,0
3,45,127,0
3,54,127,0
3,59,127,0
3,62,127,0
3,54,127,0
3,59,127,0
3,62,127,0
3,59,127,0
3,52,127,192
3,57,127,192
3,61,127,0
3,52,127,4
3,57,127,0
3,61,127,0
3,57,127,0
3,52,127,0
3,57,127,192
3,61,127,0
3,52,127,4
3,57,127,0
3,61,127,0
3,57,127,0
3,54,127,0
3,59,127,196
3,63,127,0
3,54,127,4
3,59,127,0
3,63,127,0
3,59,127,0
3,54,127,192
3,59,127,0
3,63,127,0
3,54,127,0
3,59,127,0
3,63,127,0
3,59,127,0
3,54,127,0
3,59,127,192
3,62,127,0
3,54,127,0
3,59,127,0
3,62,127,0
3,59,127,0
3,54,127,192
3,59,127,0
3,62,127,0
3,54,127,4
3,59,127,0
3,62,127,0
3,59,127,0
3,52,127,0
3,57,127,196
3,61,127,0
3,52,127,4
3,57,127,0
3,61,127,0
3,57,127,0
3,52,127,192
3,57,127,0
3,61,127,0
3,52,127,0
3,57,127,192
3,61,127,0
3,54,127,0
3,57,127,192
3,61,127,0
3,54,127,4
3,57,127,0
3,61,127,0
3,57,127,0
3,54,127,0
3,57,127,192
3,61,127,0
3,54,127,0
3,57,127,0
3,61,127,0
3,57,127,4
3,56,127,0
3,59,127,196
3,64,127,0
3,56,127,4
3,59,127,0
3,64,127,0
3,59,127,0
3,56,127,0
3,59,127,196
3,64,127,0
3,56,127,0
3,59,127,0
3,64,127,0
3,59,127,0
3,54,127,0
3,57,127,196
3,62,127,0
3,54,127,8
3,57,127,0
3,62,127,0
3,57,127,0
3,54,127,0
3,57,127,192
3,62,127,0
3,54,127,0
3,57,127,0
3,62,127,4
3,57,127,0
3,55,127,0
3,59,127,192
3,62,127,0
3,55,127,0
3,59,127,0
3,62,127,4
3,59,127,0
3,56,127,192
3,59,127,192
3,64,127,0
3,57,127,0
3,62,127,0
3,56,127,0
3,62,127,0
3,52,127,0
3,57,127,196
3,61,127,0
3,52,127,4
3,57,127,0
3,61,127,0
3,57,127,0
3,52,127,0
3,57,127,192
3,61,127,0
3,52,127,4
3,57,127,0
3,61,127,0
3,57,127,0
3,54,127,0
3,57,127,196
3,62,127,0
3,54,127,4
3,57,127,0
3,62,127,0
3,57,127,0
3,54,127,0
3,57,127,192
3,62,127,0
3,54,127,0
3,57,127,0
3,62,127,0
3,57,127,0
3,54,127,0
3,57,127,196
3,62,127,0
3,54,127,0
3,57,127,0
3,62,127,4
3,57,127,0
3,54,127,0
3,57,127,196
3,62,127,0
3,54,127,8
3,57,127,4
3,62,127,4
3,57,127,0
3,52,127,0
3,57,127,196
3,61,127,0
3,52,127,4
3,57,127,0
3,61,127,0
3,57,127,0
3,52,127,192
3,57,127,0
3,61,127,0
3,52,127,0
3,57,127,192
3,61,127,0
3,54,127,0
3,57,127,192
3,61,127,0
3,54,127,4
3,57,127,0
3,61,127,0
3,57,127,0
3,54,127,0
3,57,127,192
3,61,127,0
3,54,127,4
3,57,127,0
3,61,127,0
3,57,127,0
3,56,127,0
3,59,127,196
3,64,127,0
3,56,127,4
3,59,127,0
3,64,127,0
3,59,127,0
3,56,127,0
3,59,127,192
3,64,127,0
3,56,127,0
3,59,127,0
3,64,127,0
3,59,127,0
3,57,127,0
3,61,127,192
3,66,127,0
3,57,127,4
3,61,127,0
3,66,127,4
3,61,127,0
3,57,127,0
3,61,127,192
3,66,127,0
3,57,127,0
3,61,127,0
3,66,127,4
3,61,127,0
3,55,127,0
3,59,127,192
3,64,127,0
3,55,127,4
3,59,127,0
3,64,127,0
3,59,127,0
3,55,127,0
3,59,127,192
3,62,127,4
3,55,127,0
3,57,127,0
3,64,127,0
3,57,127,0
3,57,127,192
3,61,127,192
3,66,127,4
3,57,127,0
3,61,127,0
3,66,127,4
3,61,127,0
3,57,127,0
3,59,127,192
3,66,127,0
3,57,127,0
3,59,127,0
3,66,127,0
3,59,127,4
3,56,127,0
3,59,127,192
3,64,127,0
3,56,127,0
3,59,127,0
3,64,127,4
3,59,127,4
3,56,127,0
3,59,127,192
3,64,127,0
3,56,127,0
3,59,127,0
3,64,127,0
3,59,127,0
3,57,127,0
3,61,127,192
3,66,127,0
3,57,127,0
3,61,127,0
3,66,127,0
3,61,127,0
3,57,127,0
3,61,127,192
3,66,127,0
3,56,127,0
3,59,127,196
3,64,127,4
3,56,127,0
3,59,127,196
3,64,127,0
3,56,127,0
3,59,127,0
3,64,127,0
3,59,127,0
3,55,127,0
3,59,127,192
3,62,127,0
3,55,127,0
3,57,127,0
3,61,127,0
3,57,127,0
3,57,127,0
3,61,127,192
3,66,127,0
3,57,127,4
3,61,127,0
3,66,127,4
3,61,127,0
3,54,127,0
3,61,127,192
3,63,127,0
3,54,127,0
3,60,127,0
3,63,127,4
3,60,127,4
3,56,127,0
3,59,127,192
3,64,127,0
3,56,127,0
3,59,127,0
3,64,127,0
3,59,127,0
3,55,127,0
3,60,127,192
3,64,127,0
3,55,127,0
3,60,127,0
3,64,127,0
3,60,127,0
3,57,127,4
3,61,127,192
3,64,127,0
3,57,127,4
3,61,127,0
3,64,127,4
3,61,127,4
3,54,127,4
3,57,127,188
3,63,127,0
3,54,127,4
3,57,127,0
3,63,127,0
3,57,127,0
3,54,127,0
3,57,127,196
3,62,127,0
3,54,127,4
3,57,127,0
3,62,127,0
3,57,127,0
3,54,127,0
3,57,127,196
3,62,127,4
3,54,127,0
3,57,127,0
3,62,127,0
3,57,127,0
3,57,127,0
3,61,127,196
3,64,127,0
3,61,127,0
3,68,127,0
3,64,127,0
3,61,127,0
3,55,127,0
3,59,127,192
3,62,127,0
3,66,127,4
3,62,127,0
3,59,127,0
3,55,127,0
3,55,127,0
3,59,127,192
3,62,127,4
3,66,127,0
3,62,127,0
3,59,127,4
3,55,127,0
3,54,127,4
3,57,127,192
3,62,127,0
3,54,127,0
3,57,127,0
3,62,127,0
3,57,127,0
3,54,127,0
3,57,127,196
3,62,127,0
3,54,127,4
3,57,127,0
3,62,127,0
3,57,127,0
3,52,127,0
3,57,127,192
3,61,127,0
3,52,127,4
3,57,127,0
3,61,127,4
3,57,127,4
3,52,127,0
3,57,127,192
3,61,127,4
3,52,127,0
3,57,127,192
3,61,127,0
3,54,127,0
3,57,127,192
3,61,127,0
3,54,127,0
3,57,127,0
3,61,127,0
3,57,127,0
3,54,127,0
3,57,127,196
3,61,127,0
3,54,127,0
3,57,127,0
3,61,127,0
3,57,127,0
3,56,127,0
3,59,127,196
3,64,127,0
3,56,127,0
3,59,127,0
3,64,127,4
3,59,127,0
3,56,127,0
3,59,127,196
3,64,127,0
3,56,127,0
3,59,127,0
3,64,127,0
3,59,127,0
3,55,127,0
3,59,127,192
3,62,127,0
3,55,127,4
3,59,127,0
3,62,127,0
3,59,127,0
3,55,127,0
3,59,127,192
3,62,127,4
3,55,127,0
3,59,127,0
3,62,127,0
3,59,127,0
3,57,127,0
3,61,127,196
3,66,127,0
3,57,127,0
3,61,127,0
3,66,127,0
3,61,127,0
3,54,127,0
3,57,127,192
3,61,127,0
3,53,127,0
3,57,127,0
3,61,127,0
3,57,127,0
3,53,127,0
3,57,127,192
3,61,127,0
3,53,127,0
3,57,127,0
3,61,127,196
3,52,127,4
3,57,127,192
3,61,127,0
3,52,127,0
3,57,127,0
3,61,127,0
3,57,127,0
3,54,127,0
3,57,127,192
3,63,127,0
3,52,127,4
3,57,127,0
3,61,127,0
3,57,127,0
3,54,127,0
3,57,127,196
3,63,127,0
3,54,127,0
3,57,127,0
3,63,127,0
3,59,127,0
3,54,127,0
3,59,127,192
3,63,127,0
3,54,127,0
3,59,127,0
3,63,127,0
3,59,127,0
3,53,127,4
3,58,127,196
3,62,127,0
3,53,127,0
3,58,127,0
3,62,127,0
3,58,127,0
3,53,127,0
3,58,127,192
3,62,127,4
3,53,127,0
3,58,127,0
3,62,127,0
3,58,127,0
3,52,127,192
3,57,127,192
3,61,127,0
3,52,127,4
3,57,127,0
3,61,127,4
3,57,127,0
3,53,127,0
3,58,127,192
3,62,127,0
3,53,127,0
3,58,127,0
3,62,127,0
3,58,127,0
3,54,127,0
3,59,127,192
3,63,127,0
3,54,127,4
3,59,127,0
3,63,127,4
3,59,127,0
3,55,127,0
3,60,127,192
3,64,127,0
3,55,127,0
3,60,127,0
3,64,127,0
3,60,127,0
3,54,127,0
3,59,127,192
3,63,127,0
3,54,127,4
3,59,127,0
3,63,127,0
3,59,127,0
3,53,127,0
3,58,127,192
3,62,127,0
3,53,127,4
3,58,127,0
3,62,127,0
3,58,127,0
3,52,127,0
3,57,127,0
3,59,127,192
3,61,127,192
4,71,86,0
4,69,86,0
4,64,86,0
4,69,86,4
4,71,86,104
4,69,86,4
4,73,86,196
4,74,86,4
4,73,86,0
4,71,86,0
4,83,78,772
4,81,78,4
4,76,78,100
4,83,78,0
4,81,78,0
4,76,78,100
4,85,78,4
4,86,78,4
4,85,78,4
4,83,78,4
4,88,78,5568
4,87,78,4
4,83,78,4
4,78,78,4
4,85,78,4800
4,83,78,4
4,85,78,0
4,81,78,0
4,85,78,4
4,80,78,4
4,85,78,4
4,78,78,0
4,81,78,4
4,80,78,3268
4,78,78,4
4,80,78,4
4,73,78,4
4,83,78,3460
4,85,78,0
4,86,78,4
4,83,78,196
4,80,78,0
4,85,78,11520
4,83,78,0
4,81,78,0
4,80,78,3268
4,78,78,0
4,80,78,4
4,76,78,0
4,80,78,4
4,85,78,4
4,81,78,4
4,78,78,0
4,83,78,2116
4,81,78,196
4,79,78,4
4,78,78,4
4,76,78,192
4,74,78,0
4,73,78,4
4,81,71,58376
4,71,78,200
4,73,78,4
4,73,78,4
4,72,78,576
4,74,78,4
4,74,78,4
4,73,78,580
4,75,78,4
4,75,78,0
4,74,78,192
4,76,78,0
4,76,78,4
4,76,78,4
4,73,78,4
4,75,78,100
4,73,78,4
4,75,78,4
4,75,78,100
4,73,78,4
4,75,78,4
4,73,78,4
4,74,78,0
4,72,78,4
4,74,78,0
4,74,78,100
4,72,78,4
4,74,78,4
4,72,78,4
4,73,78,0
4,76,78,4
4,81,63,0
5,61,56,12292
5,64,56,0
5,69,56,0
5,63,56,0
5,66,56,0
5,71,56,4
5,62,56,4
5,66,56,0
5,71,56,0
5,64,56,4
5,69,56,0
5,73,56,0
5,66,56,0
5,73,56,0
5,54,56,1532
5,49,56,4
5,64,56,0
5,68,56,0
5,71,56,0
5,56,56,772
5,47,56,0
5,62,56,4
5,66,56,0
5,54,56,388
5,43,56,0
5,50,56,4
5,62,56,0
5,67,56,0
5,40,56,4
5,47,56,0
5,64,56,0
5,68,56,0
5,52,56,0
5,45,56,0
5,64,56,0
5,69,56,4
5,73,56,0
5,45,56,0
5,64,56,0
5,73,56,0
5,50,56,0
5,62,56,4
5,66,56,0
5,69,56,0
5,50,56,772
5,47,56,0
5,54,56,0
5,71,56,0
5,50,56,0
5,69,56,0
5,45,56,0
5,61,56,0
5,64,56,4
5,69,56,0
5,52,56,2292
5,42,56,4
5,54,56,0
5,61,56,0
5,66,56,0
5,61,56,0
5,66,56,4
5,69,56,0
5,49,56,0
5,56,56,0
5,64,56,4
5,68,56,0
5,71,56,0
5,50,56,0
5,54,56,0
5,57,56,4
5,62,56,0
5,66,56,0
5,69,56,0
5,50,56,100
5,48,56,0
5,55,56,0
5,60,56,4
5,64,56,0
5,67,56,0
5,43,56,0
5,50,56,0
5,59,56,4
5,62,56,0
5,67,56,0
5,45,56,0
5,61,56,4
5,64,56,0
5,69,56,0
5,50,56,4
5,62,56,0
5,66,56,4
5,69,56,0
5,73,56,0
5,49,56,0
5,64,56,4
5,68,56,0
5,71,56,0
5,50,56,4
5,62,56,0
5,66,56,0
5,69,56,4
5,73,56,0
5,49,56,4
5,64,56,0
5,68,56,0
5,71,56,0
5,43,56,0
5,67,56,0
5,71,56,0
5,74,56,4
5,45,56,0
5,69,56,4
5,73,56,0
5,76,56,0
5,50,56,4
5,66,56,0
5,69,56,0
5,73,56,4
5,44,56,0
5,68,56,0
5,72,56,4
5,75,56,0
5,49,56,0
5,64,56,4
5,71,56,0
5,48,56,0
5,67,56,0
5,72,56,0
5,45,56,4
5,64,56,0
5,69,56,0
5,73,56,4
5,47,56,0
5,63,56,4
5,66,56,0
5,71,56,0
5,50,56,4
5,62,56,0
5,66,56,0
5,69,56,4
5,45,56,0
5,61,56,4
5,64,56,0
5,69,56,0
5,43,56,4
5,67,56,0
5,71,56,0
5,74,56,4
5,78,56,0
5,43,56,0
5,67,56,4
5,71,56,0
5,74,56,0
5,47,56,0
5,66,56,0
5,50,56,4
5,66,56,0
5,69,56,0
5,74,56,4
5,45,56,0
5,64,56,0
5,73,56,4
5,52,56,1528
5,54,56,0
5,61,56,4
5,66,56,0
5,73,56,0
5,54,56,0
5,73,56,4
