track,note,velocity,time
1,70,97,3389
1,70,0,43
1,70,92,5
1,70,0,42
1,70,103,6
1,68,107,48
1,70,0,4
1,66,99,44
1,68,0,1
1,65,92,47
1,66,0,5
1,63,101,43
1,65,0,3
1,63,0,143
1,66,108,46
1,65,98,48
1,66,0,2
1,61,101,94
1,65,0,2
1,58,80,46
1,61,0,1
1,58,0,145
1,63,92,46
1,61,101,48
1,63,0,2
1,63,103,46
1,61,0,2
1,61,103,46
1,63,0,4
1,58,94,1
1,61,0,1
1,58,0,17
1,64,87,1
1,64,0,44
1,64,89,4
1,64,0,31
1,64,87,17
1,64,0,40
1,64,90,8
1,68,101,48
1,64,0,2
1,66,101,46
1,68,0,6
1,63,105,42
1,66,0,2
1,63,0,8
1,63,114,46
1,63,0,7
1,63,111,13
1,65,95,48
1,63,0,4
1,65,0,44
1,66,103,48
1,66,0,60
1,66,103,36
1,66,0,34
1,66,99,14
1,66,0,39
1,66,93,9
1,66,0,24
1,66,93,24
1,66,0,47
1,70,97,1
1,68,99,48
1,70,0,4
1,68,0,22
1,65,101,22
1,65,0,11
1,70,97,48
1,70,0,39
1,70,101,9
1,70,0,36
1,70,107,12
1,68,103,48
1,70,0,5
1,66,101,43
1,68,0,4
1,66,0,44
1,65,95,0
1,63,105,48
1,65,0,2
1,63,0,146
1,66,101,44
1,65,95,48
1,66,0,3
1,61,103,93
1,65,0,6
1,58,103,42
1,61,0,2
1,58,0,146
1,63,103,44
1,63,0,44
1,61,97,4
1,61,0,48
1,63,107,0
1,63,0,48
1,61,99,0
1,61,0,46
1,58,93,2
1,58,0,8
1,68,90,48
1,68,0,40
1,68,97,8
1,68,0,27
1,68,92,21
1,68,0,28
1,68,97,20
1,70,92,48
1,68,0,4
1,70,0,42
1,71,90,2
1,71,0,32
1,70,101,16
1,70,0,72
1,68,87,0
1,66,93,24
1,68,0,3
1,66,0,49
1,66,90,44
1,66,0,48
1,68,97,0
1,70,99,48
1,68,0,3
1,71,92,45
1,70,0,2
1,71,0,40
1,70,97,6
1,68,92,72
1,70,0,6
1,66,85,18
1,68,0,2
1,66,0,50
1,66,93,44
1,68,105,48
1,66,0,3
1,70,99,45
1,68,0,4
1,71,90,44
1,70,0,2
1,71,0,36
1,70,105,10
1,70,0,1
1,63,89,4
1,63,0,24
1,63,99,24
1,63,0,30
1,63,103,18
1,62,92,48
1,63,0,3
1,63,103,45
1,62,0,4
1,65,95,44
1,63,0,4
1,66,107,44
1,65,0,2
1,66,0,140
1,66,103,50
1,65,93,48
1,66,0,2
1,66,101,46
1,65,0,4
1,65,92,44
1,66,0,2
1,63,103,46
1,65,0,2
1,63,0,52
1,66,93,42
1,66,0,26
1,66,99,22
1,66,0,38
1,66,97,10
1,65,90,48
1,66,0,2
1,66,97,46
1,65,0,2
1,68,95,46
1,66,0,4
1,70,101,44
1,68,0,3
1,70,0,141
1,70,93,48
1,70,0,48
1,68,103,0
1,70,99,48
1,68,0,4
1,70,0,42
1,71,95,2
1,70,103,48
1,71,0,5
1,70,0,139
1,68,103,32
1,70,101,32
1,68,0,2
1,73,118,30
1,70,0,4
1,71,95,316
1,73,0,3
1,70,101,29
1,71,0,4
1,71,97,28
1,70,0,4
1,71,0,8
1,71,87,0
1,70,92,64
1,71,0,14
1,68,101,50
1,70,0,4
1,68,0,51
1,71,101,9
1,70,90,64
1,71,0,6
1,68,95,58
1,70,0,4
1,70,120,0
1,68,0,2
1,70,0,2
1,68,110,2
1,68,0,24
1,70,120,0
1,70,0,24
1,71,120,0
1,71,0,39
1,70,120,9
1,70,0,3
1,70,97,3
1,70,0,42
1,70,92,6
1,70,0,42
1,70,103,6
1,70,0,43
1,68,100,5
1,66,93,48
1,68,0,4
1,66,0,42
1,65,89,2
1,63,101,48
1,65,0,4
1,63,0,142
1,66,105,46
1,65,99,48
1,66,0,3
1,61,101,93
1,65,0,2
1,61,0,33
1,58,103,13
1,58,0,146
1,63,92,46
1,63,0,10
1,63,97,14
1,61,101,24
1,63,0,6
1,63,103,42
1,61,0,2
1,61,103,46
1,63,0,4
1,58,99,44
1,61,0,3
1,58,0,2
1,64,87,48
1,64,0,26
1,64,89,22
1,64,0,26
1,64,87,22
1,64,0,26
1,64,90,22
1,64,0,42
1,68,101,6
1,66,101,48
1,68,0,6
1,66,0,30
1,63,105,12
1,63,0,154
1,63,105,66
1,63,0,12
1,63,111,8
1,65,95,48
1,63,0,4
1,65,0,44
1,66,103,48
1,66,0,60
1,66,103,36
1,66,0,20
1,66,99,28
1,66,0,20
1,66,93,28
1,66,0,26
1,66,93,22
1,66,0,42
1,70,97,6
1,68,99,48
1,70,0,4
1,68,0,26
1,65,101,18
1,65,0,4
1,70,97,48
1,70,0,26
1,70,101,22
1,70,0,26
1,70,107,22
1,68,103,48
1,70,0,2
1,66,101,46
1,68,0,2
1,65,95,46
1,66,0,4
1,65,0,40
1,63,105,4
1,63,0,148
1,66,101,44
1,66,0,46
1,65,95,2
1,65,0,86
1,61,103,10
1,61,0,48
1,58,103,0
1,58,0,148
1,63,103,44
1,61,97,48
1,63,0,3
1,61,0,45
1,63,107,0
1,63,0,48
1,61,99,0
1,61,0,38
1,58,93,1
1,58,0,8
1,68,90,48
1,68,0,36
1,68,97,12
1,68,0,35
1,68,92,13
1,68,0,30
1,68,97,18
1,70,92,48
1,68,0,4
1,70,0,42
1,71,90,2
1,70,101,48
1,71,0,4
1,70,0,68
1,68,87,0
1,66,93,24
1,68,0,4
1,66,0,48
1,66,90,44
1,66,0,48
1,68,97,0
1,70,99,48
1,68,0,4
1,71,92,44
1,70,0,2
1,70,97,46
1,71,0,6
1,68,92,66
1,70,0,6
1,66,85,18
1,68,0,2
1,66,0,50
1,66,93,44
1,68,105,48
1,66,0,2
1,70,99,46
1,68,0,4
1,71,90,44
1,70,0,2
1,71,0,35
1,70,105,11
1,70,0,2
1,63,89,1
1,63,0,24
1,63,99,24
1,63,0,30
1,63,103,18
1,62,92,48
1,63,0,4
1,62,0,44
1,63,103,0
1,63,0,48
1,65,95,0
1,66,107,48
1,65,0,4
1,66,0,130
1,66,103,58
1,65,93,48
1,66,0,2
1,65,0,46
1,66,101,0
1,66,0,46
1,65,92,2
1,63,103,48
1,65,0,2
1,63,0,52
1,66,93,42
1,66,0,39
1,66,99,9
1,66,0,43
1,66,97,5
1,65,90,48
1,66,0,6
1,66,97,42
1,65,0,2
1,68,95,46
1,66,0,4
1,70,101,44
1,68,0,1
1,70,0,143
1,70,93,48
1,68,103,48
1,70,0,4
1,70,99,44
1,68,0,4
1,71,95,44
1,70,0,6
1,70,103,42
1,71,0,5
1,70,0,139
1,68,103,32
1,70,101,32
1,68,0,1
1,73,120,31
1,70,0,5
1,71,95,315
1,73,0,2
1,70,101,30
1,71,0,4
1,71,97,28
1,70,0,5
1,71,0,4
1,71,87,1
1,70,92,64
1,71,0,14
1,68,101,50
1,70,0,4
1,68,0,47
1,71,101,13
1,70,90,64
1,71,0,6
1,68,95,58
1,70,0,4
1,68,0,52
1,70,120,3
1,70,0,374
1,68,110,0
1,68,0,24
1,70,120,0
1,70,0,24
1,71,120,0
1,70,120,48
1,71,0,4
1,70,0,5
1,71,89,1
1,71,0,36
1,71,87,12
1,71,0,34
1,71,85,14
1,71,0,40
1,69,92,8
1,69,0,48
1,67,87,0
1,69,87,48
1,67,0,4
1,71,93,44
1,69,0,2
1,71,0,146
1,71,97,44
1,69,93,48
1,71,0,4
1,71,92,44
1,69,0,2
1,69,90,46
1,71,0,2
1,67,103,46
1,69,0,2
1,67,0,60
1,67,93,34
1,67,0,54
1,67,89,42
1,69,93,48
1,67,0,3
1,67,89,45
1,69,0,2
1,67,0,42
1,69,93,4
1,71,97,48
1,69,0,6
1,71,0,138
1,71,86,48
1,69,90,48
1,71,0,2
1,71,95,46
1,69,0,4
1,72,89,44
1,71,0,4
1,71,93,44
1,72,0,6
1,71,0,182
1,69,92,4
1,69,0,22
1,71,97,2
1,74,116,24
1,71,0,2
1,72,95,318
1,74,0,2
1,71,87,30
1,72,0,8
1,71,0,24
1,72,103,0
1,72,0,4
1,72,95,0
1,71,93,64
1,72,0,4
1,69,95,60
1,71,0,4
1,69,0,50
1,72,90,10
1,71,85,64
1,72,0,4
1,69,93,60
1,71,0,4
1,69,0,46
1,71,120,0
1,71,0,1
1,67,93,48
1,67,0,42
1,67,90,6
1,67,0,42
1,67,95,6
1,66,101,48
1,67,0,4
1,67,90,44
1,66,0,2
1,69,103,46
1,67,0,5
1,67,99,43
1,69,0,6
1,67,0,146
1,71,105,40
1,69,86,48
1,71,0,1
1,71,97,47
1,69,0,2
1,69,93,46
1,71,0,4
1,67,99,44
1,69,0,6
1,67,0,54
1,67,90,36
1,67,0,39
1,67,86,9
1,67,0,41
1,67,92,7
1,66,105,48
1,67,0,3
1,67,93,45
1,66,0,2
1,69,93,46
1,67,0,2
1,71,101,46
1,69,0,3
1,71,0,147
1,71,90,42
1,71,0,48
1,69,93,0
1,71,89,48
1,69,0,4
1,71,0,44
1,72,89,0
1,71,92,48
1,72,0,6
1,71,0,138
1,69,93,32
1,71,97,32
1,69,0,4
1,74,113,0
1,71,0,3
1,74,0,12
1,72,95,12
1,71,93,10
1,72,0,4
1,72,105,8
1,71,0,5
1,72,0,10
1,72,103,8
1,71,89,12
1,72,0,3
1,69,93,8
1,71,0,5
1,69,0,6
1,72,101,4
1,71,90,18
1,72,0,3
1,69,97,14
1,71,0,1
1,71,105,10
1,69,0,5
1,71,0,6
2,58,91,9518
2,63,76,0
2,63,0,14
2,58,0,4
2,63,86,30
2,58,90,0
2,58,0,20
2,63,0,2
2,58,100,26
2,63,94,0
2,63,0,14
2,58,0,0
2,58,95,34
2,62,97,0
2,62,0,44
2,58,0,4
2,63,109,0
2,60,64,0
2,60,0,14
2,63,0,4
2,65,88,30
2,62,64,0
2,65,0,20
2,62,0,12
2,66,92,16
2,63,82,0
2,66,0,142
2,63,0,4
2,66,77,46
2,63,84,0
2,63,0,8
2,66,0,4
2,66,97,12
2,63,100,0
2,63,0,24
2,62,80,0
2,65,92,0
2,66,0,8
2,65,0,32
2,66,86,8
2,63,97,0
2,62,0,2
2,63,0,30
2,66,0,6
2,62,81,10
2,65,101,0
2,65,0,10
2,62,0,2
2,63,97,36
2,58,77,0
2,58,0,58
2,63,0,0
2,63,86,38
2,66,85,0
2,66,0,20
2,63,0,0
2,66,86,28
2,63,96,0
2,63,0,20
2,66,0,4
2,66,89,24
2,63,101,0
2,63,0,16
2,66,0,0
2,62,78,32
2,65,98,0
2,65,0,42
2,66,102,6
2,63,107,0
2,62,0,2
2,63,0,32
2,66,0,8
2,68,96,6
2,65,88,0
2,68,0,14
2,65,0,8
2,66,91,26
2,70,106,0
2,70,0,146
2,66,0,2
2,66,101,44
2,70,97,0
2,70,0,12
2,66,0,8
2,65,87,28
2,68,107,0
2,66,97,48
2,70,98,0
2,68,0,2
2,65,0,2
2,66,0,18
2,70,0,6
2,68,92,20
2,71,80,0
2,71,0,22
2,68,0,18
2,66,91,8
2,70,96,0
2,70,0,240
2,66,0,0
2,65,93,0
2,56,89,0
2,61,92,0
2,61,0,384
2,56,0,0
2,65,0,0
2,71,84,384
2,68,92,0
2,71,0,60
2,70,92,4
2,68,0,10
2,68,98,54
2,70,0,4
2,68,0,56
2,68,109,4
2,71,75,0
2,71,0,62
2,70,97,2
2,68,0,18
2,68,98,46
2,70,0,12
2,68,0,46
2,70,86,6
2,66,95,0
2,70,0,358
2,66,0,2
2,58,91,7752
2,63,76,0
2,63,0,14
2,58,0,4
2,63,86,30
2,58,90,0
2,58,0,20
2,63,0,2
2,58,100,26
2,63,94,0
2,63,0,14
2,58,0,0
2,58,95,34
2,62,97,0
2,62,0,44
2,58,0,4
2,63,109,0
2,60,64,0
2,60,0,14
2,63,0,4
2,65,88,30
2,62,64,0
2,65,0,20
2,62,0,12
2,66,92,16
2,63,82,0
2,66,0,142
2,63,0,4
2,66,77,46
2,63,84,0
2,63,0,8
2,66,0,4
2,66,97,12
2,63,100,0
2,63,0,24
2,62,80,0
2,65,92,0
2,66,0,8
2,65,0,32
2,66,86,8
2,63,97,0
2,62,0,2
2,63,0,30
2,66,0,6
2,62,81,10
2,65,101,0
2,65,0,10
2,62,0,2
2,63,97,36
2,58,77,0
2,58,0,58
2,63,0,0
2,63,86,38
2,66,85,0
2,66,0,20
2,63,0,0
2,66,86,28
2,63,96,0
2,63,0,20
2,66,0,4
2,66,89,24
2,63,101,0
2,63,0,16
2,66,0,0
2,62,78,32
2,65,98,0
2,65,0,42
2,66,102,6
2,63,107,0
2,62,0,2
2,63,0,32
2,66,0,8
2,68,96,6
2,65,88,0
2,68,0,14
2,65,0,8
2,66,91,26
2,70,106,0
2,70,0,146
2,66,0,2
2,66,101,44
2,70,97,0
2,70,0,12
2,66,0,8
2,65,87,28
2,68,107,0
2,66,97,48
2,70,98,0
2,68,0,2
2,65,0,2
2,66,0,18
2,70,0,6
2,68,92,20
2,71,80,0
2,71,0,22
2,68,0,18
2,66,91,8
2,70,96,0
2,70,0,240
2,66,0,0
2,65,93,0
2,56,89,0
2,61,92,0
2,61,0,384
2,56,0,0
2,65,0,0
2,71,84,384
2,68,92,0
2,71,0,60
2,70,92,4
2,68,0,10
2,68,98,54
2,70,0,4
2,68,0,56
2,68,109,4
2,71,75,0
2,71,0,62
2,70,97,2
2,68,0,18
2,68,98,46
2,70,0,12
2,68,0,46
2,70,86,6
2,66,95,0
2,70,0,358
2,66,0,2
2,59,91,1416
2,64,76,0
2,64,0,14
2,59,0,4
2,64,86,30
2,59,90,0
2,59,0,20
2,64,0,2
2,59,100,26
2,64,94,0
2,64,0,14
2,59,0,0
2,59,95,34
2,63,97,0
2,63,0,44
2,59,0,4
2,64,109,0
2,61,64,0
2,61,0,14
2,64,0,4
2,66,88,30
2,63,64,0
2,66,0,20
2,63,0,12
2,67,92,16
2,64,82,0
2,67,0,142
2,64,0,4
2,67,77,46
2,64,84,0
2,64,0,8
2,67,0,4
2,67,97,12
2,64,100,0
2,64,0,24
2,63,80,0
2,66,92,0
2,67,0,8
2,66,0,32
2,67,86,8
2,64,97,0
2,63,0,2
2,64,0,30
2,67,0,6
2,63,81,10
2,66,101,0
2,66,0,10
2,63,0,2
2,64,97,36
2,59,77,0
2,59,0,58
2,64,0,0
2,64,86,38
2,67,85,0
2,67,0,20
2,64,0,0
2,67,86,28
2,64,96,0
2,64,0,20
2,67,0,4
2,67,89,24
2,64,101,0
2,64,0,16
2,67,0,0
2,63,78,32
2,66,98,0
2,66,0,42
2,67,102,6
2,64,107,0
2,63,0,2
2,64,0,32
2,67,0,8
2,69,96,6
2,66,88,0
2,69,0,14
2,66,0,8
2,67,91,26
2,71,106,0
2,71,0,146
2,67,0,2
2,67,101,44
2,71,97,0
2,71,0,12
2,67,0,8
2,66,87,28
2,69,107,0
2,67,97,48
2,71,98,0
2,69,0,2
2,66,0,2
2,67,0,18
2,71,0,6
2,69,92,20
2,72,80,0
2,72,0,22
2,69,0,18
2,67,91,8
2,71,96,0
2,71,0,240
2,67,0,0
2,66,93,0
2,57,89,0
2,62,92,0
2,62,0,384
2,57,0,0
2,66,0,0
2,72,84,0
2,69,92,0
2,72,0,60
2,71,92,4
2,69,0,10
2,69,98,54
2,71,0,4
2,69,0,60
2,69,109,0
2,72,75,0
2,72,0,62
2,71,97,2
2,69,0,18
2,69,98,46
2,71,0,12
2,69,0,46
2,71,86,6
2,66,95,0
2,71,0,358
2,66,0,2
3,66,64,284
3,58,56,0
3,63,82,0
3,63,0,12
3,58,0,2
3,66,0,6
3,58,89,46
3,63,93,2
3,54,97,0
3,63,0,96
3,75,58,144
3,78,83,4
3,71,18,0
3,71,0,132
3,75,0,40
3,78,0,2
3,58,0,32
3,54,0,24
3,66,62,480
3,63,71,0
3,58,62,144
3,63,0,4
3,58,0,32
3,66,0,6
3,63,75,2
3,63,0,8
