track,note,velocity,time
3,70,97,3389
3,70,0,43
3,70,92,5
3,70,0,42
3,70,103,6
3,68,107,48
3,70,0,4
3,66,99,44
3,68,0,1
3,65,92,47
3,66,0,5
3,63,101,43
3,65,0,3
3,63,0,143
3,66,108,46
3,65,98,48
3,66,0,2
3,61,101,94
3,65,0,2
3,58,80,46
3,61,0,1
3,58,0,145
3,63,92,46
3,61,101,48
3,63,0,2
3,63,103,46
3,61,0,2
3,61,103,46
3,63,0,4
3,58,94,1
3,61,0,1
3,58,0,17
3,64,87,1
3,64,0,44
3,64,89,4
3,64,0,31
3,64,87,17
3,64,0,40
3,64,90,8
3,68,101,48
3,64,0,2
3,66,101,46
3,68,0,6
3,63,105,42
3,66,0,2
3,63,0,8
3,63,114,46
3,63,0,7
3,63,111,13
3,65,95,48
3,63,0,4
3,65,0,44
3,66,103,48
3,66,0,60
3,66,103,36
3,66,0,34
3,66,99,14
3,66,0,39
3,66,93,9
3,66,0,24
3,66,93,24
3,66,0,47
3,70,97,1
3,68,99,48
3,70,0,4
3,68,0,22
3,65,101,22
3,65,0,11
3,70,97,48
3,70,0,39
3,70,101,9
3,70,0,36
3,70,107,12
3,68,103,48
3,70,0,5
3,66,101,43
3,68,0,4
3,66,0,44
3,65,95,0
3,63,105,48
3,65,0,2
3,63,0,146
3,66,101,44
3,65,95,48
3,66,0,3
3,61,103,93
3,65,0,6
3,58,103,42
3,61,0,2
3,58,0,146
3,63,103,44
3,63,0,44
3,61,97,4
3,61,0,48
3,63,107,0
3,63,0,48
3,61,99,0
3,61,0,46
3,58,93,2
3,58,0,8
3,68,90,48
3,68,0,40
3,68,97,8
3,68,0,27
3,68,92,21
3,68,0,28
3,68,97,20
3,70,92,48
3,68,0,4
3,70,0,42
3,71,90,2
3,71,0,32
3,70,101,16
3,70,0,72
3,68,87,0
3,66,93,24
3,68,0,3
3,66,0,49
3,66,90,44
3,66,0,48
3,68,97,0
3,70,99,48
3,68,0,3
3,71,92,45
3,70,0,2
3,71,0,40
3,70,97,6
3,68,92,72
3,70,0,6
3,66,85,18
3,68,0,2
3,66,0,50
3,66,93,44
3,68,105,48
3,66,0,3
3,70,99,45
3,68,0,4
3,71,90,44
3,70,0,2
3,71,0,36
3,70,105,10
3,70,0,1
3,63,89,4
3,63,0,24
3,63,99,24
3,63,0,30
3,63,103,18
3,62,92,48
3,63,0,3
3,63,103,45
3,62,0,4
3,65,95,44
3,63,0,4
3,66,107,44
3,65,0,2
3,66,0,140
3,66,103,50
3,65,93,48
3,66,0,2
3,66,101,46
3,65,0,4
3,65,92,44
3,66,0,2
3,63,103,46
3,65,0,2
3,63,0,52
3,66,93,42
3,66,0,26
3,66,99,22
3,66,0,38
3,66,97,10
3,65,90,48
3,66,0,2
3,66,97,46
3,65,0,2
3,68,95,46
3,66,0,4
3,70,101,44
3,68,0,3
3,70,0,141
3,70,93,48
3,70,0,48
3,68,103,0
3,70,99,48
3,68,0,4
3,70,0,42
3,71,95,2
3,70,103,48
3,71,0,5
3,70,0,139
3,68,103,32
3,70,101,32
3,68,0,2
3,73,118,30
3,70,0,4
3,71,95,316
3,73,0,3
3,70,101,29
3,71,0,4
3,71,97,28
3,70,0,4
3,71,0,8
3,71,87,0
3,70,92,64
3,71,0,14
3,68,101,50
3,70,0,4
3,68,0,51
3,71,101,9
3,70,90,64
3,71,0,6
3,68,95,58
3,70,0,4
3,70,120,0
3,68,0,2
3,70,0,2
3,68,110,2
3,68,0,24
3,70,120,0
3,70,0,24
3,71,120,0
3,71,0,39
3,70,120,9
3,70,0,3
3,70,97,3
3,70,0,42
3,70,92,6
3,70,0,42
3,70,103,6
3,70,0,43
3,68,100,5
3,66,93,48
3,68,0,4
3,66,0,42
3,65,89,2
3,63,101,48
3,65,0,4
3,63,0,142
3,66,105,46
3,65,99,48
3,66,0,3
3,61,101,93
3,65,0,2
3,61,0,33
3,58,103,13
3,58,0,146
3,63,92,46
3,63,0,10
3,63,97,14
3,61,101,24
3,63,0,6
3,63,103,42
3,61,0,2
3,61,103,46
3,63,0,4
3,58,99,44
3,61,0,3
3,58,0,2
3,64,87,48
3,64,0,26
3,64,89,22
3,64,0,26
3,64,87,22
3,64,0,26
3,64,90,22
3,64,0,42
3,68,101,6
3,66,101,48
3,68,0,6
3,66,0,30
3,63,105,12
3,63,0,154
3,63,105,66
3,63,0,12
3,63,111,8
3,65,95,48
3,63,0,4
3,65,0,44
3,66,103,48
3,66,0,60
3,66,103,36
3,66,0,20
3,66,99,28
3,66,0,20
3,66,93,28
3,66,0,26
3,66,93,22
3,66,0,42
3,70,97,6
3,68,99,48
3,70,0,4
3,68,0,26
3,65,101,18
3,65,0,4
3,70,97,48
3,70,0,26
3,70,101,22
3,70,0,26
3,70,107,22
3,68,103,48
3,70,0,2
3,66,101,46
3,68,0,2
3,65,95,46
3,66,0,4
3,65,0,40
3,63,105,4
3,63,0,148
3,66,101,44
3,66,0,46
3,65,95,2
3,65,0,86
3,61,103,10
3,61,0,48
3,58,103,0
3,58,0,148
3,63,103,44
3,61,97,48
3,63,0,3
3,61,0,45
3,63,107,0
3,63,0,48
3,61,99,0
3,61,0,38
3,58,93,1
3,58,0,8
3,68,90,48
3,68,0,36
3,68,97,12
3,68,0,35
3,68,92,13
3,68,0,30
3,68,97,18
3,70,92,48
3,68,0,4
3,70,0,42
3,71,90,2
3,70,101,48
3,71,0,4
3,70,0,68
3,68,87,0
3,66,93,24
3,68,0,4
3,66,0,48
3,66,90,44
3,66,0,48
3,68,97,0
3,70,99,48
3,68,0,4
3,71,92,44
3,70,0,2
3,70,97,46
3,71,0,6
3,68,92,66
3,70,0,6
3,66,85,18
3,68,0,2
3,66,0,50
3,66,93,44
3,68,105,48
3,66,0,2
3,70,99,46
3,68,0,4
3,71,90,44
3,70,0,2
3,71,0,35
3,70,105,11
3,70,0,2
3,63,89,1
3,63,0,24
3,63,99,24
3,63,0,30
3,63,103,18
3,62,92,48
3,63,0,4
3,62,0,44
3,63,103,0
3,63,0,48
3,65,95,0
3,66,107,48
3,65,0,4
3,66,0,130
3,66,103,58
3,65,93,48
3,66,0,2
3,65,0,46
3,66,101,0
3,66,0,46
3,65,92,2
3,63,103,48
3,65,0,2
3,63,0,52
3,66,93,42
3,66,0,39
3,66,99,9
3,66,0,43
3,66,97,5
3,65,90,48
3,66,0,6
3,66,97,42
3,65,0,2
3,68,95,46
3,66,0,4
3,70,101,44
3,68,0,1
3,70,0,143
3,70,93,48
3,68,103,48
3,70,0,4
3,70,99,44
3,68,0,4
3,71,95,44
3,70,0,6
3,70,103,42
3,71,0,5
3,70,0,139
3,68,103,32
3,70,101,32
3,68,0,1
3,73,120,31
3,70,0,5
3,71,95,315
3,73,0,2
3,70,101,30
3,71,0,4
3,71,97,28
3,70,0,5
3,71,0,4
3,71,87,1
3,70,92,64
3,71,0,14
3,68,101,50
3,70,0,4
3,68,0,47
3,71,101,13
3,70,90,64
3,71,0,6
3,68,95,58
3,70,0,4
3,68,0,52
3,70,120,3
3,70,0,374
3,68,110,0
3,68,0,24
3,70,120,0
3,70,0,24
3,71,120,0
3,70,120,48
3,71,0,4
3,70,0,5
3,71,89,1
3,71,0,36
3,71,87,12
3,71,0,34
3,71,85,14
3,71,0,40
3,69,92,8
3,69,0,48
3,67,87,0
3,69,87,48
3,67,0,4
3,71,93,44
3,69,0,2
3,71,0,146
3,71,97,44
3,69,93,48
3,71,0,4
3,71,92,44
3,69,0,2
3,69,90,46
3,71,0,2
3,67,103,46
3,69,0,2
3,67,0,60
3,67,93,34
3,67,0,54
3,67,89,42
3,69,93,48
3,67,0,3
3,67,89,45
3,69,0,2
3,67,0,42
3,69,93,4
3,71,97,48
3,69,0,6
3,71,0,138
3,71,86,48
3,69,90,48
3,71,0,2
3,71,95,46
3,69,0,4
3,72,89,44
3,71,0,4
3,71,93,44
3,72,0,6
3,71,0,182
3,69,92,4
3,69,0,22
3,71,97,2
3,74,116,24
3,71,0,2
3,72,95,318
3,74,0,2
3,71,87,30
3,72,0,8
3,71,0,24
3,72,103,0
3,72,0,4
3,72,95,0
3,71,93,64
3,72,0,4
3,69,95,60
3,71,0,4
3,69,0,50
3,72,90,10
3,71,85,64
3,72,0,4
3,69,93,60
3,71,0,4
3,69,0,46
3,71,120,0
3,71,0,1
3,67,93,48
3,67,0,42
3,67,90,6
3,67,0,42
3,67,95,6
3,66,101,48
3,67,0,4
3,67,90,44
3,66,0,2
3,69,103,46
3,67,0,5
3,67,99,43
3,69,0,6
3,67,0,146
3,71,105,40
3,69,86,48
3,71,0,1
3,71,97,47
3,69,0,2
3,69,93,46
3,71,0,4
3,67,99,44
3,69,0,6
3,67,0,54
3,67,90,36
3,67,0,39
3,67,86,9
3,67,0,41
3,67,92,7
3,66,105,48
3,67,0,3
3,67,93,45
3,66,0,2
3,69,93,46
3,67,0,2
3,71,101,46
3,69,0,3
3,71,0,147
3,71,90,42
3,71,0,48
3,69,93,0
3,71,89,48
3,69,0,4
3,71,0,44
3,72,89,0
3,71,92,48
3,72,0,6
3,71,0,138
3,69,93,32
3,71,97,32
3,69,0,4
3,74,113,0
3,71,0,3
3,74,0,12
3,72,95,12
3,71,93,10
3,72,0,4
3,72,105,8
3,71,0,5
3,72,0,10
3,72,103,8
3,71,89,12
3,72,0,3
3,69,93,8
3,71,0,5
3,69,0,6
3,72,101,4
3,71,90,18
3,72,0,3
3,69,97,14
3,71,0,1
3,71,105,10
3,69,0,5
3,71,0,6
4,58,91,9518
4,63,76,0
4,63,0,14
4,58,0,4
4,63,86,30
4,58,90,0
4,58,0,20
4,63,0,2
4,58,100,26
4,63,94,0
4,63,0,14
4,58,0,0
4,58,95,34
4,62,97,0
4,62,0,44
4,58,0,4
4,63,109,0
4,60,64,0
4,60,0,14
4,63,0,4
4,65,88,30
4,62,64,0
4,65,0,20
4,62,0,12
4,66,92,16
4,63,82,0
4,66,0,142
4,63,0,4
4,66,77,46
4,63,84,0
4,63,0,8
4,66,0,4
4,66,97,12
4,63,100,0
4,63,0,24
4,62,80,0
4,65,92,0
4,66,0,8
4,65,0,32
4,66,86,8
4,63,97,0
4,62,0,2
4,63,0,30
4,66,0,6
4,62,81,10
4,65,101,0
4,65,0,10
4,62,0,2
4,63,97,36
4,58,77,0
4,58,0,58
4,63,0,0
4,63,86,38
4,66,85,0
4,66,0,20
4,63,0,0
4,66,86,28
4,63,96,0
4,63,0,20
4,66,0,4
4,66,89,24
4,63,101,0
4,63,0,16
4,66,0,0
4,62,78,32
4,65,98,0
4,65,0,42
4,66,102,6
4,63,107,0
4,62,0,2
4,63,0,32
4,66,0,8
4,68,96,6
4,65,88,0
4,68,0,14
4,65,0,8
4,66,91,26
4,70,106,0
4,70,0,146
4,66,0,2
4,66,101,44
4,70,97,0
4,70,0,12
4,66,0,8
4,65,87,28
4,68,107,0
4,66,97,48
4,70,98,0
4,68,0,2
4,65,0,2
4,66,0,18
4,70,0,6
4,68,92,20
4,71,80,0
4,71,0,22
4,68,0,18
4,66,91,8
4,70,96,0
4,70,0,240
4,66,0,0
4,65,93,0
4,56,89,0
4,61,92,0
4,61,0,384
4,56,0,0
4,65,0,0
4,71,84,384
4,68,92,0
4,71,0,60
4,70,92,4
4,68,0,10
4,68,98,54
4,70,0,4
4,68,0,56
4,68,109,4
4,71,75,0
4,71,0,62
4,70,97,2
4,68,0,18
4,68,98,46
4,70,0,12
4,68,0,46
4,70,86,6
4,66,95,0
4,70,0,358
4,66,0,2
4,58,91,7752
4,63,76,0
4,63,0,14
4,58,0,4
4,63,86,30
4,58,90,0
4,58,0,20
4,63,0,2
4,58,100,26
4,63,94,0
4,63,0,14
4,58,0,0
4,58,95,34
4,62,97,0
4,62,0,44
4,58,0,4
4,63,109,0
4,60,64,0
4,60,0,14
4,63,0,4
4,65,88,30
4,62,64,0
4,65,0,20
4,62,0,12
4,66,92,16
4,63,82,0
4,66,0,142
4,63,0,4
4,66,77,46
4,63,84,0
4,63,0,8
4,66,0,4
4,66,97,12
4,63,100,0
4,63,0,24
4,62,80,0
4,65,92,0
4,66,0,8
4,65,0,32
4,66,86,8
4,63,97,0
4,62,0,2
4,63,0,30
4,66,0,6
4,62,81,10
4,65,101,0
4,65,0,10
4,62,0,2
4,63,97,36
4,58,77,0
4,58,0,58
4,63,0,0
4,63,86,38
4,66,85,0
4,66,0,20
4,63,0,0
4,66,86,28
4,63,96,0
4,63,0,20
4,66,0,4
4,66,89,24
4,63,101,0
4,63,0,16
4,66,0,0
4,62,78,32
4,65,98,0
4,65,0,42
4,66,102,6
4,63,107,0
4,62,0,2
4,63,0,32
4,66,0,8
4,68,96,6
4,65,88,0
4,68,0,14
4,65,0,8
4,66,91,26
4,70,106,0
4,70,0,146
4,66,0,2
4,66,101,44
4,70,97,0
4,70,0,12
4,66,0,8
4,65,87,28
4,68,107,0
4,66,97,48
4,70,98,0
4,68,0,2
4,65,0,2
4,66,0,18
4,70,0,6
4,68,92,20
4,71,80,0
4,71,0,22
4,68,0,18
4,66,91,8
4,70,96,0
4,70,0,240
4,66,0,0
4,65,93,0
4,56,89,0
4,61,92,0
4,61,0,384
4,56,0,0
4,65,0,0
4,71,84,384
4,68,92,0
4,71,0,60
4,70,92,4
4,68,0,10
4,68,98,54
4,70,0,4
4,68,0,56
4,68,109,4
4,71,75,0
4,71,0,62
4,70,97,2
4,68,0,18
4,68,98,46
4,70,0,12
4,68,0,46
4,70,86,6
4,66,95,0
4,70,0,358
4,66,0,2
4,59,91,1416
4,64,76,0
4,64,0,14
4,59,0,4
4,64,86,30
4,59,90,0
4,59,0,20
4,64,0,2
4,59,100,26
4,64,94,0
4,64,0,14
4,59,0,0
4,59,95,34
4,63,97,0
4,63,0,44
4,59,0,4
4,64,109,0
4,61,64,0
4,61,0,14
4,64,0,4
4,66,88,30
4,63,64,0
4,66,0,20
4,63,0,12
4,67,92,16
4,64,82,0
4,67,0,142
4,64,0,4
4,67,77,46
4,64,84,0
4,64,0,8
4,67,0,4
4,67,97,12
4,64,100,0
4,64,0,24
4,63,80,0
4,66,92,0
4,67,0,8
4,66,0,32
4,67,86,8
4,64,97,0
4,63,0,2
4,64,0,30
4,67,0,6
4,63,81,10
4,66,101,0
4,66,0,10
4,63,0,2
4,64,97,36
4,59,77,0
4,59,0,58
4,64,0,0
4,64,86,38
4,67,85,0
4,67,0,20
4,64,0,0
4,67,86,28
4,64,96,0
4,64,0,20
4,67,0,4
4,67,89,24
4,64,101,0
4,64,0,16
4,67,0,0
4,63,78,32
4,66,98,0
4,66,0,42
4,67,102,6
4,64,107,0
4,63,0,2
4,64,0,32
4,67,0,8
4,69,96,6
4,66,88,0
4,69,0,14
4,66,0,8
4,67,91,26
4,71,106,0
4,71,0,146
4,67,0,2
4,67,101,44
4,71,97,0
4,71,0,12
4,67,0,8
4,66,87,28
4,69,107,0
4,67,97,48
4,71,98,0
4,69,0,2
4,66,0,2
4,67,0,18
4,71,0,6
4,69,92,20
4,72,80,0
4,72,0,22
4,69,0,18
4,67,91,8
4,71,96,0
4,71,0,240
4,67,0,0
4,66,93,0
4,57,89,0
4,62,92,0
4,62,0,384
4,57,0,0
4,66,0,0
4,72,84,0
4,69,92,0
4,72,0,60
4,71,92,4
4,69,0,10
4,69,98,54
4,71,0,4
4,69,0,60
4,69,109,0
4,72,75,0
4,72,0,62
4,71,97,2
4,69,0,18
4,69,98,46
4,71,0,12
4,69,0,46
4,71,86,6
4,66,95,0
4,71,0,358
4,66,0,2
5,66,64,284
5,58,56,0
5,63,82,0
5,63,0,12
5,58,0,2
5,66,0,6
5,58,89,46
5,63,93,2
5,54,97,0
5,63,0,96
5,75,58,144
5,78,83,4
5,71,18,0
5,71,0,132
5,75,0,40
5,78,0,2
5,58,0,32
5,54,0,24
5,66,62,480
5,63,71,0
5,58,62,144
5,63,0,4
5,58,0,32
5,66,0,6
5,63,75,2
5,63,0,8
