track,note,velocity,time
1,72,106,17664
1,67,108,0
1,69,104,0
1,67,108,256
1,72,108,0
1,64,91,0
1,76,112,0
1,72,112,0
1,67,117,128
1,72,122,0
1,69,88,0
1,72,110,0
1,67,112,0
1,72,98,384
1,64,92,0
1,65,80,0
1,72,97,0
1,66,119,128
1,72,94,0
1,67,127,0
1,72,117,0
1,69,127,0
1,67,122,0
1,69,108,0
1,67,114,0
1,72,110,8
1,76,106,0
1,69,120,256
1,74,122,0
1,71,87,0
1,69,104,110
1,65,112,0
1,71,100,128
1,67,108,0
1,65,108,256
1,69,91,0
1,62,104,0
1,69,112,128
1,74,104,0
1,71,98,106
1,74,106,0
1,69,106,0
1,74,108,128
1,67,120,0
1,74,108,94
1,67,117,0
1,74,102,128
1,69,100,0
1,67,110,0
1,74,97,0
1,69,100,0
1,74,102,0
1,74,102,0
1,67,112,0
1,74,114,0
1,69,114,0
1,62,117,74
1,67,127,0
1,64,88,0
1,72,98,120
1,64,98,0
1,72,106,0
1,65,88,0
1,72,98,128
1,66,116,0
1,67,127,0
1,72,114,0
1,72,104,0
1,69,120,0
1,72,114,128
1,67,122,0
1,64,87,0
1,76,117,0
1,72,120,0
1,72,127,16
1,67,120,0
1,69,85,0
1,72,112,0
1,67,117,0
1,64,117,0
1,65,112,0
1,72,108,0
1,72,80,128
1,66,119,0
1,67,122,0
1,72,97,0
1,69,110,8
1,67,114,0
1,69,97,0
1,67,108,0
1,72,108,256
1,76,106,0
1,74,127,0
1,69,125,0
1,71,87,0
1,69,104,160
1,65,108,0
1,71,100,128
1,67,102,0
1,65,98,42
1,69,100,0
1,67,122,0
1,62,110,0
1,69,112,128
1,74,114,0
1,71,92,0
1,74,110,0
1,69,110,0
1,74,110,128
1,67,117,0
1,74,108,256
1,67,114,0
1,74,112,128
1,69,114,0
1,74,110,0
1,67,122,0
1,74,100,0
1,69,106,0
1,74,104,0
1,67,125,0
1,77,120,256
1,74,110,0
1,72,127,84
1,76,127,0
1,72,110,448
1,67,114,0
1,69,97,128
1,69,120,0
1,72,108,0
1,77,94,16
1,72,98,0
1,72,117,16
1,67,110,0
1,69,77,0
1,72,106,0
1,67,114,0
1,64,102,0
1,72,125,0
1,67,127,0
1,72,112,32
1,65,122,0
1,69,114,128
1,74,102,0
1,67,125,128
1,65,108,128
1,62,110,52
1,67,125,0
1,64,80,0
1,67,120,128
1,62,100,0
1,64,110,0
1,74,108,128
1,67,100,0
1,74,127,128
1,69,120,0
1,74,125,128
1,69,122,0
1,71,87,0
1,71,108,0
1,74,106,0
1,74,117,128
1,71,122,0
1,76,106,384
1,71,104,0
1,72,85,0
1,72,110,74
1,76,102,0
1,69,112,0
1,74,108,0
1,71,69,0
1,74,108,0
1,69,117,0
1,67,106,0
1,74,92,0
1,69,95,128
1,65,102,0
1,67,112,128
1,62,110,0
1,72,88,0
1,64,74,0
1,72,91,0
1,65,90,0
1,72,84,0
1,66,113,0
1,72,106,0
1,67,108,0
1,69,104,0
1,67,108,256
1,72,108,0
1,64,91,0
1,76,112,0
1,72,112,0
1,67,117,128
1,72,106,0
1,69,73,0
1,72,112,0
1,67,110,0
1,64,122,0
1,65,108,0
1,72,102,0
1,66,113,128
1,72,91,0
1,67,120,0
1,72,114,0
1,69,117,0
1,67,127,0
1,69,100,0
1,67,108,0
1,72,108,256
1,76,108,0
1,74,127,128
1,69,127,0
1,71,91,0
1,69,104,4
1,65,112,0
1,71,100,128
1,67,108,0
1,65,108,256
1,69,91,0
1,62,104,0
1,69,112,128
1,74,104,0
1,71,98,106
1,74,106,0
1,69,106,0
1,74,108,128
1,67,120,0
1,71,112,94
1,67,117,0
1,72,106,14
1,69,106,0
1,71,106,0
1,67,117,0
1,69,102,128
1,72,104,0
1,67,120,0
1,71,102,0
1,77,104,256
1,74,98,0
1,72,110,0
1,76,108,0
1,72,106,12672
1,67,108,0
1,69,104,0
1,67,108,256
1,72,108,0
1,64,91,0
1,76,112,0
1,72,112,0
1,67,117,128
1,72,106,0
1,69,73,0
1,72,112,0
1,67,110,0
1,64,122,0
1,65,108,0
1,72,102,0
1,66,113,128
1,72,91,0
1,67,120,0
1,72,114,0
1,69,117,0
1,67,127,0
1,69,100,0
1,67,108,0
1,72,108,256
1,76,108,0
1,74,127,128
1,69,127,0
1,71,91,0
1,69,104,4
1,65,112,0
1,71,100,128
1,67,108,0
1,65,108,256
1,69,91,0
1,62,104,0
1,69,112,128
1,74,104,0
1,71,98,106
1,74,106,0
1,69,106,0
1,74,108,128
1,67,120,0
1,71,112,94
1,67,117,0
1,72,106,0
1,69,106,0
1,71,106,0
1,67,117,0
1,69,102,128
1,72,104,0
1,67,120,0
1,71,102,0
1,71,95,0
1,67,106,0
1,72,100,128
1,69,100,0
1,67,117,0
1,71,106,0
1,72,100,128
1,69,104,0
1,71,127,0
1,67,125,0
1,71,122,512
1,67,112,0
1,71,120,0
1,67,110,0
1,71,120,256
1,67,112,0
1,72,108,0
1,66,116,0
1,65,110,256
1,74,117,0
1,64,108,128
1,72,127,0
1,55,86,128
1,67,91,0
1,66,89,0
1,54,63,0
1,67,84,0
1,55,75,0
1,56,104,0
1,68,107,0
1,55,97,0
1,67,104,0
1,61,104,512
1,77,114,0
1,60,97,196
1,76,127,0
2,48,121,17664
2,52,121,4
2,55,121,4
2,57,121,4
2,48,121,4
2,52,121,4
2,55,121,4
2,57,121,4
2,48,121,4
2,52,121,4
2,55,121,4
2,57,121,4
2,43,121,4
2,47,121,4
2,50,121,4
2,52,121,4
2,43,121,4
2,47,121,4
2,50,121,4
2,52,121,4
2,43,121,4
2,47,121,4
2,50,121,4
2,52,121,4
2,43,121,4
2,47,121,4
2,50,121,4
2,47,121,4
2,48,121,4
2,45,121,4
2,43,121,4
2,45,122,4
2,48,122,4
2,52,122,4
2,55,122,4
2,57,122,4
2,48,122,4
2,52,122,4
2,55,122,4
2,57,122,4
2,48,122,4
2,52,122,4
2,55,122,4
2,57,122,4
2,43,122,4
2,47,122,4
2,50,122,4
2,52,122,4
2,43,122,4
2,47,122,4
2,50,122,4
2,52,122,4
2,43,122,4
2,47,122,4
2,50,122,4
2,52,122,4
2,43,122,4
2,47,122,4
2,50,122,4
2,47,122,4
2,48,122,4
2,48,122,4
2,50,122,4
2,52,122,4
2,41,122,4
2,45,122,4
2,48,122,4
2,45,123,4
2,48,123,4
2,52,123,4
2,55,123,4
2,52,123,4
2,50,123,4
2,53,123,4
2,55,123,4
2,59,123,4
2,60,123,4
2,57,123,4
2,55,123,4
2,52,123,4
2,55,123,4
2,52,123,4
2,50,123,4
2,47,123,4
2,43,123,4
2,47,123,4
2,50,123,4
2,47,123,4
2,45,123,4
2,52,123,4
2,50,123,4
2,57,123,4
2,55,123,4
2,53,123,4
2,52,123,4
2,50,123,4
2,48,123,4
2,52,123,4
2,55,123,4
2,57,123,4
2,48,123,4
2,52,123,4
2,55,123,4
2,57,123,4
2,48,124,4
2,52,124,4
2,55,124,4
2,57,124,4
2,43,124,4
2,47,124,4
2,50,124,4
2,52,124,4
2,43,124,4
2,47,124,4
2,50,124,4
2,52,124,4
2,43,124,4
2,47,124,4
2,50,124,4
2,52,124,4
2,43,124,4
2,47,124,4
2,50,124,4
2,47,124,4
2,48,124,4
2,48,124,4
2,50,124,4
2,52,124,4
2,41,124,4
2,45,124,4
2,48,124,4
2,45,124,4
2,48,124,4
2,52,124,4
2,55,124,4
2,52,124,4
2,50,124,4
2,53,124,4
2,55,124,4
2,59,124,4
2,60,125,4
2,57,125,4
2,55,125,4
2,52,125,4
2,55,125,4
2,52,125,4
2,50,125,4
2,47,125,4
2,43,125,4
2,47,125,4
2,50,125,4
2,47,125,4
2,45,125,4
2,52,125,4
2,50,125,4
2,57,125,4
2,55,125,4
2,53,125,4
2,52,125,4
2,50,125,4
2,48,125,4
2,52,125,4
2,55,125,4
2,57,125,4
2,48,125,4
2,52,125,4
2,55,125,4
2,57,125,4
2,48,125,4
2,52,125,4
2,55,125,4
2,57,125,4
2,43,125,4
2,47,125,4
2,50,125,4
2,52,125,4
2,43,126,4
2,47,126,4
2,50,126,4
2,52,126,4
2,43,126,4
2,47,126,4
2,50,126,4
2,52,126,4
2,43,126,4
2,47,126,16
2,50,126,4
2,52,126,30
2,43,126,20
2,47,126,52
2,50,126,384
2,52,126,14
2,43,126,8
2,47,126,26
2,50,126,10
2,52,126,24
2,48,126,10
2,43,126,228
2,42,126,4
2,43,126,58
2,44,126,26
2,43,126,48
2,49,126,506
2,48,126,196
3,50,120,1912
3,69,120,16
3,62,120,8
3,60,120,0
3,65,120,0
3,52,120,278
3,67,120,4
3,64,120,0
3,59,120,2
3,43,120,24
3,62,120,16
3,59,120,0
3,67,120,0
3,48,120,380
3,64,120,6
3,67,120,4
3,60,120,0
3,69,120,58
3,65,120,4
3,50,120,0
3,60,120,6
3,62,120,4
3,67,120,26
3,64,120,0
3,52,120,4
3,59,120,4
3,43,120,12
3,67,120,32
3,59,120,0
3,62,120,4
3,64,120,336
3,60,120,4
3,67,120,0
3,48,120,6
3,60,120,56
3,64,120,0
3,69,120,0
3,45,120,64
3,52,120,456
3,62,120,28
3,59,120,6
3,68,120,4
3,57,120,368
3,69,120,44
3,64,120,0
3,60,120,0
3,52,120,26
3,45,120,454
3,69,120,22
3,62,120,4
3,66,120,0
3,60,120,0
3,50,120,4
3,62,120,4
3,59,120,2
3,67,120,10
3,55,120,26
3,59,120,0
3,53,121,36
3,57,121,0
3,52,121,556
3,55,121,0
3,53,121,44
3,50,121,0
4,81,120,1586
4,83,120,150
4,84,120,16
4,81,120,302
4,77,120,202
4,83,120,28
4,79,120,292
4,76,120,272
4,81,120,6
4,77,120,272
4,74,120,268
4,81,120,34
4,79,120,346
4,84,120,994
4,81,120,284
4,77,120,294
4,83,120,244
4,79,120,288
4,76,120,276
4,81,120,20
4,77,120,290
4,74,120,8
4,81,120,12
4,79,120,16
4,76,120,10
4,76,120,48
4,76,120,42
4,76,120,50
4,81,120,40
4,81,120,1268
4,83,120,216
4,84,120,28
4,84,120,40
4,84,120,62
4,84,120,76
4,83,120,16
4,81,120,4
4,79,120,390
4,69,92,49414
4,69,92,42
4,72,92,42
4,69,92,6
4,67,93,26
4,64,93,12
4,67,93,6
4,65,93,38
4,69,93,4
4,67,93,28
4,65,93,20
4,64,93,34
4,62,94,16
4,64,94,396
4,67,94,16
4,69,94,34
4,71,94,26
4,71,94,58
4,71,94,56
4,72,94,44
4,72,94,472
4,71,94,52
4,69,94,16
4,67,95,80
4,65,95,22
4,62,95,230
5,36,121,17664
5,40,121,4
5,43,121,4
5,45,121,4
5,36,121,4
5,40,121,4
5,43,121,4
5,45,121,4
5,36,121,4
5,40,121,4
5,43,121,4
5,45,121,4
5,31,121,4
5,35,121,4
5,38,121,4
5,40,121,4
5,31,121,4
5,35,121,4
5,38,121,4
5,40,121,4
5,31,121,4
5,35,121,4
5,38,121,4
5,40,121,4
5,31,121,4
5,35,121,4
5,38,121,4
5,35,121,4
5,36,121,4
5,33,121,4
5,31,121,4
5,33,122,4
5,36,122,4
5,40,122,4
5,43,122,4
5,45,122,4
5,36,122,4
5,40,122,4
5,43,122,4
5,45,122,4
5,36,122,4
5,40,122,4
5,43,122,4
5,45,122,4
5,31,122,4
5,35,122,4
5,38,122,4
5,40,122,4
5,31,122,4
5,35,122,4
5,38,122,4
5,40,122,4
5,31,122,4
5,35,122,4
5,38,122,4
5,40,122,4
5,31,122,4
5,35,122,4
5,38,122,4
5,35,122,4
5,36,122,4
5,36,122,4
5,38,122,4
5,40,122,4
5,29,122,0
5,33,122,388
5,36,122,4
5,33,123,4
5,36,123,4
5,40,123,4
5,43,123,4
5,40,123,4
5,38,123,4
5,41,123,4
5,43,123,4
5,47,123,4
5,48,123,4
5,45,123,4
5,43,123,4
5,40,123,4
5,43,123,4
5,40,123,4
5,38,123,4
5,35,123,4
5,31,123,4
5,35,123,4
5,38,123,4
5,35,123,4
5,33,123,4
5,40,123,4
5,38,123,4
5,45,123,4
5,43,123,4
5,41,123,4
5,40,123,4
5,38,123,4
5,36,123,4
5,40,123,4
5,43,123,4
5,45,123,4
5,36,123,4
5,40,123,4
5,43,123,4
5,45,123,4
5,36,124,4
5,40,124,4
5,43,124,4
5,45,124,4
5,31,124,4
5,35,124,4
5,38,124,4
5,40,124,4
5,31,124,4
5,35,124,4
5,38,124,4
5,40,124,4
5,31,124,4
5,35,124,4
5,38,124,4
5,40,124,4
5,31,124,4
5,35,124,4
5,38,124,4
5,35,124,4
5,36,124,4
5,36,124,4
5,38,124,4
5,40,124,4
5,29,124,0
5,33,124,388
5,36,124,4
5,33,124,4
5,36,124,4
5,40,124,4
5,43,124,4
5,40,124,4
5,38,124,4
5,41,124,4
5,43,124,4
5,47,124,4
5,48,125,4
5,45,125,4
5,43,125,4
5,40,125,4
5,43,125,4
5,40,125,4
5,38,125,4
5,35,125,4
5,31,125,4
5,35,125,4
5,38,125,4
5,35,125,4
5,33,125,4
5,40,125,4
5,38,125,4
5,45,125,4
5,43,125,4
5,41,125,4
5,40,125,4
5,38,125,4
5,36,125,4
5,40,125,4
5,43,125,4
5,45,125,4
5,36,125,4
5,40,125,4
5,43,125,4
5,45,125,4
5,36,125,4
5,40,125,4
5,43,125,4
5,45,125,4
5,31,125,4
5,35,125,4
5,38,125,4
5,40,125,4
5,31,126,4
5,35,126,4
5,38,126,4
5,40,126,4
5,31,126,4
5,35,126,4
5,38,126,4
5,40,126,4
5,31,126,4
5,35,126,8
5,38,126,42
5,40,126,32
5,31,126,30
5,35,126,14
5,38,126,26
5,40,126,32
5,31,126,8
5,35,126,384
5,38,126,362
5,40,126,48
5,36,126,32
5,31,126,248
5,30,126,30
5,31,126,36
5,32,126,128
5,31,126,32
5,37,126,522
5,36,126,254
6,67,121,17664
6,64,121,0
6,60,121,0
6,67,121,4
6,64,121,0
6,60,121,0
6,67,121,4
6,64,121,0
6,60,121,0
6,67,121,132
6,64,121,0
6,60,121,0
6,67,121,132
6,64,121,0
6,60,121,0
6,67,121,4
6,60,121,0
6,64,121,0
6,67,121,132
6,64,121,0
6,60,121,0
6,67,121,132
6,64,121,0
6,60,121,0
6,67,121,132
6,60,121,0
6,64,121,0
6,67,121,132
6,64,121,0
6,60,121,0
6,60,121,4
6,67,121,0
6,64,121,0
6,60,121,132
6,67,121,0
6,64,121,0
6,62,121,132
6,67,121,0
6,59,121,0
6,62,121,132
6,59,121,0
6,67,121,0
6,62,121,132
6,59,121,0
6,67,121,0
6,62,121,132
6,67,121,0
6,59,121,0
6,62,121,132
6,59,121,0
6,67,121,0
6,62,121,132
6,59,121,0
6,67,121,0
6,62,121,132
6,67,121,0
6,59,121,0
6,62,121,132
6,67,121,0
6,59,121,0
6,67,121,132
6,62,121,0
6,59,121,0
6,67,121,132
6,62,121,0
6,59,121,0
6,62,121,132
6,67,121,0
6,59,121,0
6,62,121,132
6,67,121,0
6,59,121,0
6,67,121,132
6,62,121,0
6,59,121,0
6,62,121,132
6,67,121,0
6,59,121,0
6,62,121,132
6,59,121,0
6,67,121,0
6,62,121,132
6,67,121,0
6,59,121,0
6,67,121,132
6,64,121,0
6,60,121,0
6,64,121,132
6,60,121,0
6,67,121,0
6,64,121,132
6,67,121,0
6,60,121,0
6,64,122,132
6,67,122,0
6,60,122,0
6,64,122,132
6,67,122,0
6,60,122,0
6,64,122,132
6,60,122,0
6,67,122,0
6,64,122,132
6,67,122,0
6,60,122,0
6,67,122,132
6,64,122,0
6,60,122,0
6,64,122,132
6,60,122,0
6,67,122,0
6,64,122,132
6,67,122,0
6,60,122,0
6,64,122,132
6,60,122,0
6,67,122,0
6,64,122,132
6,67,122,0
6,60,122,0
6,60,122,132
6,64,122,0
6,67,122,0
6,60,122,132
6,64,122,0
6,67,122,0
6,60,122,132
6,64,122,0
6,67,122,0
6,60,122,132
6,67,122,0
6,64,122,0
6,67,122,132
6,59,122,0
