track,note,velocity,time
1,46,59,480
1,41,80,300
1,46,0,10
1,48,64,50
1,48,0,55
1,50,64,5
1,39,65,60
1,50,0,5
1,41,0,0
1,39,0,230
1,41,68,5
1,46,60,240
1,41,0,10
1,41,65,290
1,46,0,10
1,48,72,50
1,48,0,55
1,50,67,5
1,39,74,60
1,41,0,0
1,50,0,5
1,39,0,230
1,41,68,5
1,46,65,240
1,41,0,5
1,53,45,55
1,60,64,60
1,62,67,60
1,60,0,5
1,57,65,55
1,62,0,20
1,58,57,40
1,57,0,20
1,62,67,40
1,53,0,5
1,58,0,5
1,53,55,50
1,46,0,10
1,46,58,50
1,53,0,10
1,55,65,50
1,62,0,5
1,62,79,55
1,63,67,60
1,62,0,10
1,67,60,50
1,63,0,15
1,62,59,45
1,67,0,5
1,63,67,55
1,62,0,20
1,70,67,40
1,63,0,10
1,43,68,50
1,55,0,5
1,46,0,10
1,70,0,10
1,50,49,35
1,57,64,60
1,58,70,60
1,57,0,0
1,55,73,60
1,58,0,0
1,58,60,60
1,55,0,5
1,50,0,45
1,53,65,10
1,58,0,5
1,58,57,55
1,53,0,20
1,43,0,35
1,51,57,5
1,58,0,15
1,58,64,45
1,62,64,60
1,67,63,60
1,62,0,10
1,58,0,15
1,50,67,35
1,51,0,10
1,57,58,50
1,67,0,5
1,60,69,55
1,66,60,60
1,60,0,10
1,57,0,5
1,43,64,45
1,50,0,10
1,50,48,50
1,66,0,45
1,57,55,15
1,58,60,60
1,57,0,5
1,62,75,55
1,58,0,15
1,67,70,45
1,62,0,5
1,50,0,45
1,53,68,10
1,58,45,60
1,67,0,5
1,51,62,55
1,43,0,10
1,58,0,0
1,53,0,0
1,58,46,50
1,62,70,60
1,67,57,60
1,62,0,5
1,58,0,10
1,53,59,45
1,51,0,5
1,55,45,55
1,58,49,60
1,67,0,5
1,63,63,55
1,46,67,60
1,55,0,0
1,53,0,5
1,58,0,35
1,53,63,20
1,63,0,5
1,60,64,55
1,62,77,60
1,60,0,5
1,57,79,55
1,62,0,15
1,58,55,45
1,57,0,20
1,62,62,40
1,58,0,5
1,53,0,20
1,53,60,35
1,46,0,15
1,46,45,45
1,53,0,15
1,62,0,30
1,62,27,15
1,51,48,0
1,55,45,60
1,62,0,0
1,58,64,60
1,46,0,10
1,55,0,0
1,48,55,50
1,51,0,15
1,53,47,45
1,58,0,0
1,55,48,60
1,48,0,55
1,58,43,5
1,46,78,60
1,55,0,5
1,53,0,5
1,58,0,0
1,53,67,50
1,60,70,60
1,62,77,60
1,60,0,0
1,57,62,60
1,58,63,60
1,62,0,0
1,57,0,5
1,62,70,55
1,53,0,0
1,58,0,10
1,53,70,50
1,46,0,15
1,46,63,45
1,53,0,10
1,55,58,50
1,62,0,0
1,62,77,60
1,63,62,60
1,62,0,15
1,55,0,0
1,67,75,45
1,63,0,5
1,62,67,55
1,67,0,5
1,63,68,55
1,62,0,20
1,70,72,40
1,63,0,10
1,43,73,50
1,46,0,5
1,50,62,55
1,70,0,0
1,57,72,60
1,58,49,60
1,57,0,5
1,55,47,55
1,58,0,5
1,58,50,55
1,55,0,10
1,53,65,50
1,58,0,10
1,58,60,50
1,53,0,10
1,50,0,30
1,51,55,20
1,43,0,5
1,58,0,35
1,58,69,20
1,62,75,60
1,67,78,60
1,62,0,10
1,50,78,50
1,51,0,10
1,58,0,10
1,67,0,35
1,57,64,5
1,60,62,60
1,66,68,60
1,60,0,45
1,43,68,15
1,50,0,0
1,57,0,0
1,50,55,60
1,57,53,60
1,66,0,5
1,58,72,55
1,57,0,10
1,62,80,50
1,58,0,15
1,67,80,45
1,50,0,0
1,62,0,5
1,53,70,55
1,43,0,5
1,58,44,55
1,67,0,15
1,51,59,45
1,58,0,10
1,53,0,5
1,58,62,45
1,62,60,60
1,67,67,60
1,62,0,10
1,58,0,20
1,53,60,30
1,51,0,5
1,55,47,55
1,58,50,60
1,67,0,5
1,65,60,55
1,46,64,60
1,55,0,0
1,53,0,10
1,65,0,20
1,53,62,30
1,60,65,60
1,58,0,5
1,62,78,55
1,60,0,5
1,57,67,55
1,62,0,20
1,58,58,10
1,57,0,20
1,62,57,10
1,62,0,25
1,65,70,5
1,58,0,0
1,46,0,95
1,46,65,55
1,53,0,0
1,65,0,5
1,53,68,55
1,56,55,60
1,53,0,5
1,62,72,55
1,56,0,40
1,56,58,20
1,58,49,30
1,62,0,0
1,62,58,30
1,65,56,30
1,62,0,10
1,58,0,15
1,56,0,95
1,51,64,30
1,46,0,0
1,65,0,5
1,58,55,55
1,62,74,60
1,67,80,60
1,62,0,10
1,62,67,50
1,67,0,10
1,67,46,50
1,62,0,10
1,62,64,50
1,67,0,20
1,65,69,40
1,62,0,5
1,51,0,50
1,58,0,0
1,48,72,5
1,65,0,0
1,55,56,60
1,58,63,60
1,63,60,60
1,58,0,5
1,58,58,55
1,63,0,15
1,63,58,15
1,67,68,30
1,63,0,0
1,70,53,30
1,63,28,0
1,63,0,10
1,67,0,0
1,58,0,120
1,50,77,20
1,70,0,0
1,48,0,0
1,55,0,5
1,57,54,55
1,60,58,60
1,65,67,60
1,60,0,15
1,60,57,45
1,65,0,10
1,62,70,50
1,60,0,10
1,65,68,50
1,62,0,15
1,69,77,45
1,50,0,0
1,57,0,0
1,65,0,10
1,43,77,50
1,69,0,50
1,59,74,10
1,62,80,60
1,69,80,60
1,59,0,25
1,62,0,30
1,60,69,5
1,62,67,30
1,69,0,15
1,65,67,15
1,69,80,30
1,65,0,20
1,59,80,10
1,62,0,0
1,60,0,5
1,62,72,25
1,43,0,5
1,69,0,5
1,65,80,20
1,67,77,30
1,59,0,25
1,48,77,5
1,65,0,0
1,67,0,10
1,62,0,5
1,55,58,45
1,60,65,60
1,63,52,60
1,60,0,15
1,51,62,45
1,48,0,10
1,55,0,0
1,63,0,35
1,55,63,15
1,59,57,60
1,63,55,60
1,59,0,15
1,53,70,45
1,55,0,0
1,51,0,5
1,55,55,55
1,63,0,15
1,58,62,45
1,63,60,60
1,58,0,5
1,58,62,55
1,63,0,0
1,53,0,20
1,63,58,40
1,58,0,10
1,67,49,50
1,63,0,10
1,68,26,20
1,68,0,15
1,67,0,0
1,75,52,15
1,55,0,0
1,58,41,60
1,46,51,0
1,75,0,0
1,72,63,480
1,53,39,0
1,41,73,0
1,46,0,0
1,58,0,5
1,65,46,25
1,72,0,55
1,65,0,115
1,57,55,160
1,65,55,60
1,57,0,20
1,55,60,40
1,65,0,80
1,63,57,40
1,53,46,120
1,53,0,0
1,41,0,5
1,53,0,0
1,55,0,5
1,65,67,110
1,63,0,15
1,46,57,105
1,53,55,60
1,60,50,60
1,65,0,0
1,62,54,60
1,60,0,5
1,57,57,55
1,58,54,60
1,62,0,10
1,57,0,5
1,62,58,45
1,53,0,5
1,58,0,10
1,53,77,45
1,46,0,0
1,46,65,60
1,53,0,5
1,55,70,55
1,62,0,15
1,62,70,45
1,63,70,60
1,67,73,60
1,63,0,10
1,62,0,0
1,62,69,50
1,67,0,10
1,63,70,50
1,62,0,15
1,70,67,45
1,63,0,15
1,43,77,45
1,46,0,15
1,55,0,0
1,70,0,25
1,50,74,20
1,57,57,60
1,58,70,60
1,57,0,10
1,55,73,50
1,58,0,5
1,58,69,55
1,55,0,5
1,53,73,55
1,58,0,0
1,58,57,60
1,53,0,15
1,50,0,35
1,51,59,10
1,43,0,5
1,58,0,5
1,58,74,50
1,62,77,60
1,67,79,60
1,62,0,10
1,50,80,50
1,51,0,5
1,58,0,0
1,67,0,40
1,57,70,15
1,60,69,60
1,66,70,60
1,60,0,10
1,43,79,50
1,50,0,0
1,57,0,5
1,50,57,55
1,57,64,60
1,66,0,0
1,58,63,60
1,62,74,60
1,67,68,60
1,62,0,20
1,58,0,25
1,57,0,10
1,53,58,5
1,50,0,5
1,58,59,55
1,67,0,55
1,51,62,5
1,53,0,15
1,43,0,5
1,58,0,25
1,55,49,15
1,58,62,60
1,63,69,60
1,50,78,60
1,51,0,0
1,55,0,15
1,58,0,0
1,57,74,45
1,63,0,35
1,60,74,25
1,66,74,60
1,60,0,50
1,57,0,5
1,43,84,5
1,50,0,0
1,50,79,60
1,66,0,20
1,55,70,40
1,58,68,60
1,55,0,15
1,53,77,45
1,50,0,5
1,43,0,15
1,55,60,10
1,58,0,5
1,58,67,25
1,62,72,30
1,58,0,145
1,55,0,0
1,51,63,5
1,62,0,5
1,53,0,10
1,55,53,15
1,58,67,30
1,60,60,30
1,58,0,120
1,60,0,45
1,55,0,0
1,51,0,40
1,50,80,185
1,53,65,65
1,57,74,55
1,62,70,60
1,57,0,10
1,57,60,55
1,62,0,15
1,62,75,40
1,57,0,15
1,57,72,45
1,53,0,20
1,53,67,40
1,62,0,15
1,57,0,0
1,50,0,40
1,51,69,5
1,53,0,0
1,58,62,60
1,62,75,60
1,67,75,60
1,62,0,10
1,62,70,50
1,67,0,10
1,67,67,50
1,62,0,10
1,62,56,50
1,58,0,15
1,58,50,45
1,62,0,20
1,50,58,40
1,51,0,5
1,67,0,30
1,58,0,20
1,53,72,5
1,57,77,60
1,62,68,60
1,65,77,60
1,62,0,5
1,50,0,5
1,62,63,50
1,57,0,15
1,57,65,45
1,62,0,10
1,53,0,5
1,53,57,45
1,51,70,60
1,53,0,5
1,57,0,0
1,65,0,30
1,58,70,25
1,62,78,60
1,67,85,60
1,62,0,5
1,62,79,55
1,67,0,10
1,67,74,50
1,62,0,5
1,62,65,55
1,58,0,10
1,58,56,50
1,62,0,15
1,67,0,30
1,50,80,20
1,51,0,0
1,58,0,50
1,53,67,5
1,57,58,60
1,50,0,50
1,65,70,10
1,57,0,40
1,62,67,80
1,57,67,60
1,62,0,10
1,53,0,10
1,53,73,40
1,65,0,30
1,48,67,30
1,57,0,0
1,53,0,10
1,55,75,50
1,58,60,60
1,48,0,30
1,63,74,30
1,53,73,60
1,58,0,0
1,55,0,5
1,55,67,55
1,63,0,25
1,58,57,35
1,63,65,60
1,58,0,50
1,46,72,10
1,53,0,10
1,55,0,35
1,53,68,15
1,63,0,55
1,60,67,5
1,62,70,60
1,60,0,5
1,57,64,55
1,62,0,55
1,58,69,5
1,62,70,60
1,58,0,20
1,65,78,40
1,53,0,10
1,62,0,0
1,57,0,40
1,53,70,10
1,41,79,0
1,72,65,0
1,46,0,0
1,65,32,25
1,65,0,0
1,65,50,10
1,65,0,0
1,72,0,105
1,65,0,135
1,41,0,140
1,46,68,65
1,53,0,0
1,53,67,60
1,60,49,65
1,62,65,55
1,60,0,55
1,58,70,5
1,63,75,60
1,62,0,5
1,67,78,65
1,72,77,85
1,67,0,60
1,58,0,60
1,63,0,0
1,58,56,25
1,62,63,0
1,65,68,5
1,72,0,0
1,70,48,20
1,53,0,45
1,46,0,65
1,58,0,665
1,62,0,10
1,70,0,0
1,65,0,5
2,70,50,480
2,74,69,0
2,65,50,60
2,70,0,50
2,74,0,5
2,70,57,5
2,74,51,0
2,65,0,40
2,65,56,20
2,69,73,60
2,72,63,0
2,74,46,0
2,74,0,0
2,70,0,35
2,65,0,0
2,74,0,5
2,65,60,20
2,72,0,55
2,69,0,0
2,74,60,5
2,69,69,0
2,72,75,0
2,65,0,45
2,65,68,15
2,69,0,35
2,72,0,10
2,74,0,5
2,67,64,10
2,70,67,0
2,74,54,0
2,65,0,30
2,63,56,30
2,74,0,55
2,74,46,5
2,70,64,0
2,67,60,0
2,67,0,0
2,70,0,0
2,67,0,5
2,63,0,40
2,63,47,15
2,72,48,60
2,69,74,0
2,74,0,10
2,70,0,10
2,63,0,15
2,63,44,25
2,70,56,60
2,67,55,0
2,69,0,25
2,63,0,10
2,72,0,20
2,63,48,5
2,67,0,55
2,70,0,0
2,74,78,5
2,70,75,0
2,63,0,35
2,65,48,25
2,70,0,35
2,74,0,20
2,74,67,5
2,70,58,0
2,65,0,40
2,65,56,20
2,74,52,60
2,69,64,0
2,72,65,0
2,74,0,0
2,70,0,30
2,65,0,5
2,74,0,5
2,65,53,20
2,72,0,55
2,74,63,5
2,72,77,0
2,69,72,0
2,69,0,0
2,69,0,5
2,65,0,35
2,65,70,20
2,74,0,30
2,72,0,25
2,67,68,5
2,70,80,0
2,74,53,0
2,65,0,35
2,63,51,25
2,74,0,50
2,74,60,10
2,67,60,0
2,70,68,0
2,67,0,0
2,70,0,0
2,70,0,10
2,67,0,5
2,63,0,30
2,63,53,15
2,72,60,60
2,69,74,0
2,74,0,25
2,63,0,10
2,63,46,25
2,70,64,60
2,67,59,0
2,69,0,30
2,63,0,5
2,63,49,25
2,72,0,30
2,70,0,20
2,67,0,5
2,79,88,5
2,63,0,0
2,77,70,175
2,79,0,40
2,77,0,385
2,77,84,30
2,79,89,45
2,77,0,30
2,82,88,15
2,79,0,30
2,81,70,30
2,82,0,30
2,79,84,65
2,81,0,30
2,77,86,5
2,79,0,30
2,74,77,15
2,77,0,30
2,72,83,610
2,74,0,25
2,74,79,20
2,72,0,30
2,77,84,10
2,74,0,30
2,74,65,25
2,77,0,40
2,78,83,60
2,74,0,35
2,74,86,10
2,78,0,30
2,81,86,10
2,74,0,30
2,82,85,150
2,81,0,30
2,79,73,30
2,82,0,35
2,79,0,315
2,72,89,45
2,74,86,45
2,72,0,30
2,72,74,10
2,74,0,30
2,70,80,150
2,72,0,30
2,74,84,25
2,70,0,30
2,74,0,550
2,70,69,300
2,74,86,40
2,79,90,40
2,70,0,0
2,74,0,30
2,77,80,150
2,79,0,35
2,77,0,365
2,77,90,55
2,79,86,45
2,77,0,30
2,82,101,10
2,79,0,30
2,81,85,35
2,82,0,30
2,79,88,65
2,81,0,30
2,77,85,10
2,79,0,25
2,74,80,15
2,77,0,30
2,74,0,350
2,72,84,260
2,74,93,40
2,72,0,30
2,77,86,15
2,74,0,30
2,74,74,30
2,77,0,35
2,78,109,55
2,74,0,40
2,74,93,10
2,81,90,40
2,78,0,10
2,74,0,25
2,82,106,145
2,81,0,35
2,82,93,30
2,82,0,0
2,82,0,5
2,72,86,390
2,74,89,35
2,72,0,30
2,72,78,10
2,74,0,30
2,70,89,155
2,72,0,25
2,74,86,30
2,70,0,30
2,74,0,235
2,72,77,100
2,70,64,30
2,65,45,30
2,62,44,30
2,70,0,20
2,72,0,40
2,65,0,5
2,62,0,105
2,72,77,220
2,70,47,30
2,65,52,25
2,62,48,30
2,70,0,30
2,65,0,20
2,72,0,15
2,62,0,25
2,94,90,65
2,82,86,0
2,82,93,45
2,94,91,0
2,82,0,0
2,94,0,0
2,82,0,5
2,94,0,0
2,94,88,30
2,82,109,0
2,94,0,5
2,82,0,5
2,94,89,25
2,82,106,0
2,94,0,5
2,94,84,55
2,82,90,0
2,82,0,0
2,94,0,5
2,94,90,95
2,82,98,5
2,94,0,0
2,82,0,0
2,82,0,1
2,93,79,39
2,81,82,0
2,81,88,35
2,93,91,0
2,81,0,0
2,93,0,0
2,81,0,10
2,93,0,10
2,91,78,40
2,79,65,0
2,79,78,30
2,91,85,0
2,79,0,0
2,91,0,0
2,79,0,10
2,91,0,0
2,70,57,265
2,75,55,30
2,79,63,25
2,82,55,30
2,75,0,25
2,79,0,10
2,70,0,25
2,82,0,45
2,81,86,50
2,93,106,0
2,93,95,45
2,81,85,0
2,93,0,0
2,81,0,0
2,93,0,10
2,81,0,0
2,93,91,25
2,81,86,0
2,81,0,10
2,93,0,0
2,93,104,30
2,81,88,0
2,81,0,1
2,93,0,4
2,77,82,50
2,89,88,5
2,86,86,60
2,74,80,0
2,89,0,30
2,77,0,0
2,89,83,15
2,77,80,0
2,74,0,25
2,86,0,5
2,74,75,10
2,86,79,0
2,77,0,30
2,81,80,5
2,93,86,0
2,89,0,0
2,74,0,30
2,86,0,5
2,81,0,250
2,93,0,20
2,79,85,295
2,91,86,0
2,91,89,40
2,79,90,0
2,91,0,0
2,79,0,0
2,79,0,5
2,91,0,5
2,91,89,30
2,79,82,0
2,79,0,5
2,91,0,5
2,91,86,30
2,79,83,0
