track,note,velocity,time
1,33,127,1960
1,33,123,92
1,33,127,108
1,33,127,60
1,33,127,64
1,33,127,96
1,42,127,20
1,42,127,88
1,40,99,44
1,38,118,44
1,38,118,80
1,37,112,44
1,42,94,72
1,42,106,84
1,30,115,32
1,38,102,4
1,28,118,64
1,33,127,32
1,33,120,80
1,33,117,104
1,33,127,72
1,33,120,80
1,33,117,104
1,38,127,72
1,33,127,384
1,38,127,128
1,33,127,288
1,38,117,16
1,45,117,20
1,38,106,40
1,35,127,36
1,35,123,60
1,42,127,8
1,47,108,60
1,35,127,480
1,47,124,0
1,42,127,96
1,38,105,8
1,40,93,0
1,35,127,0
1,37,112,20
1,44,118,40
1,37,102,96
1,49,109,20
1,37,109,12
1,44,88,16
1,37,84,96
1,49,109,0
1,30,121,28
1,30,121,24
1,42,118,4
1,30,127,40
1,30,127,40
1,42,127,16
1,42,127,64
1,40,127,32
1,35,127,24
1,35,127,24
1,47,123,20
1,35,127,104
1,35,127,36
1,38,117,16
1,42,118,20
1,35,127,8
1,47,106,16
1,42,127,20
1,38,117,0
1,40,127,32
1,28,127,12
1,40,127,40
1,40,127,52
1,42,127,4
1,40,127,16
1,42,121,4
1,40,123,96
1,33,127,20
1,40,127,40
1,42,127,3108
1,42,127,88
1,40,118,48
1,38,127,52
1,38,123,52
1,37,126,32
1,42,127,92
1,42,127,88
1,30,127,40
1,30,127,48
1,38,127,16
1,38,123,72
1,37,127,48
1,37,126,60
1,42,127,48
1,42,127,116
1,40,127,28
1,40,127,72
1,38,127,60
1,38,127,56
1,45,123,24
1,38,127,96
1,50,127,8
1,45,127,36
1,38,127,8
1,45,127,4
1,37,127,24
1,37,127,68
1,44,103,20
1,49,126,136
1,44,82,32
1,37,127,24
1,37,118,56
1,44,115,20
1,37,115,16
1,38,118,40
1,38,99,88
1,45,127,96
1,50,118,16
1,45,127,28
1,50,123,4
1,45,127,8
1,38,127,96
1,45,127,20
1,37,121,100
1,37,112,44
1,44,102,0
1,49,115,36
1,44,109,28
1,49,109,28
1,49,99,100
1,44,73,0
1,37,126,32
1,38,109,56
1,38,112,48
1,45,124,12
1,50,120,16
1,45,127,24
1,50,99,96
1,45,123,92
1,50,118,4
1,45,111,96
1,45,127,32
1,38,127,20
1,37,118,20
1,37,112,56
1,44,127,96
1,49,109,108
1,44,127,48
1,49,118,8
1,44,121,96
1,37,127,32
1,35,127,72
1,35,127,52
1,40,127,56
1,40,124,40
1,33,127,64
1,33,127,56
1,45,127,12
1,45,127,76
1,33,127,32
1,45,127,192
1,33,127,2776
1,33,127,104
1,33,127,120
1,33,127,96
1,33,124,120
1,33,127,96
1,45,114,36
1,37,127,192
1,37,127,64
1,37,127,128
1,38,127,20
1,38,127,76
1,38,127,100
1,33,127,52
2,69,89,480
2,73,81,0
2,64,72,76
2,73,82,72
2,69,86,0
2,64,74,96
2,69,82,88
2,73,79,0
2,64,79,80
2,73,79,96
2,69,89,0
2,64,84,104
2,45,89,100
2,52,76,0
2,64,88,0
2,57,86,0
2,61,82,0
2,52,80,32
2,61,101,100
2,64,98,0
2,57,98,0
2,45,93,140
2,52,74,0
2,57,77,104
2,61,74,0
2,64,80,0
2,45,77,136
2,52,70,0
2,59,101,104
2,64,101,0
2,61,82,24
2,62,79,16
2,50,79,0
2,69,84,0
2,57,65,0
2,66,81,0
2,66,94,80
2,62,94,0
2,69,96,0
2,50,60,72
2,57,68,0
2,66,89,96
2,69,89,0
2,62,84,0
2,57,28,0
2,57,81,124
2,50,101,0
2,66,96,92
2,69,96,0
2,62,89,0
2,66,82,64
2,57,79,0
2,54,84,0
2,61,76,0
2,57,89,60
2,61,100,56
2,66,82,48
2,66,76,12
2,61,72,0
2,57,72,0
2,52,75,0
2,57,79,64
2,66,70,68
2,61,69,0
2,57,72,0
2,57,79,12
2,61,70,20
2,66,75,0
2,57,74,0
2,50,79,0
2,57,74,104
2,66,75,0
2,61,75,0
2,56,69,32
2,61,65,0
2,65,84,0
2,49,74,0
2,56,101,16
2,61,101,36
2,65,88,24
2,49,64,48
2,56,57,0
2,61,65,0
2,65,69,0
2,57,72,112
2,66,74,0
2,54,87,0
2,61,76,0
2,57,101,64
2,66,89,60
2,61,101,0
2,66,48,32
2,57,101,0
2,66,82,28
2,57,84,0
2,61,84,0
2,52,82,0
2,57,89,40
2,66,84,72
2,57,79,0
2,61,89,0
2,66,24,12
2,57,79,0
2,66,76,68
2,50,84,0
2,57,79,0
2,62,93,0
2,57,76,20
2,50,84,144
2,57,82,80
2,62,96,32
2,66,101,96
2,52,87,4
2,66,79,0
2,57,72,0
2,62,84,0
2,62,94,72
2,66,82,0
2,57,74,0
2,45,76,52
2,73,64,0
2,64,63,0
2,69,84,0
2,64,80,4
2,69,96,96
2,73,92,0
2,64,87,48
2,69,87,104
2,73,79,0
2,64,65,0
2,64,79,4
2,69,93,100
2,64,65,0
2,73,82,0
2,69,53,24
2,64,79,0
2,67,84,36
2,45,76,0
2,73,64,0
2,64,63,0
2,64,80,4
2,67,96,96
2,73,92,0
2,64,87,48
2,67,87,104
2,73,79,0
2,64,65,0
2,64,79,4
2,67,93,100
2,64,65,0
2,73,82,0
2,64,79,24
2,50,98,36
2,69,93,0
2,62,88,0
2,66,89,0
2,57,91,112
2,62,79,8
2,66,101,32
2,69,99,88
2,57,81,212
2,64,101,104
2,69,101,0
2,66,58,32
2,62,82,8
2,57,68,0
2,47,79,0
2,50,79,0
2,66,81,0
2,47,81,112
2,57,93,0
2,62,99,80
2,57,96,0
2,66,100,0
2,47,101,8
2,57,89,48
2,62,84,64
2,66,101,96
2,68,79,8
2,64,89,0
2,52,82,0
2,49,62,0
2,61,72,0
2,56,60,0
2,56,70,220
2,68,74,0
2,64,88,0
2,61,68,0
2,56,67,192
2,61,75,20
2,64,84,96
2,61,60,48
2,68,94,0
2,64,86,0
2,66,84,4
2,54,60,0
2,61,72,0
2,58,62,0
2,49,69,0
2,61,56,28
2,58,101,184
2,61,100,76
2,61,89,40
2,66,87,0
2,49,82,0
2,54,65,0
2,58,75,0
2,66,96,284
2,59,86,0
2,62,94,0
2,47,79,0
2,59,68,36
2,47,94,56
2,59,93,16
2,62,88,4
2,66,101,24
2,47,81,8
2,66,84,0
2,62,94,0
2,58,87,0
2,66,82,96
2,62,91,0
2,58,76,0
2,47,86,104
2,57,88,0
2,62,94,0
2,66,84,0
2,66,79,228
2,62,89,0
2,57,80,0
2,52,101,0
2,57,84,16
2,62,93,52
2,64,82,20
2,57,79,0
2,61,74,0
2,52,72,0
2,45,82,0
2,69,87,104
2,71,84,0
2,66,69,0
2,76,84,0
2,64,57,0
2,52,63,0
2,59,62,0
2,69,86,108
2,73,81,0
2,64,81,192
2,69,93,88
2,73,84,0
2,64,76,120
2,68,72,136
2,69,91,0
2,73,76,0
2,64,82,160
2,68,70,32
2,69,93,0
2,73,84,0
2,64,84,136
2,69,79,0
2,73,72,0
2,64,68,0
2,66,70,0
2,62,82,0
2,64,63,40
2,69,80,0
2,66,64,0
2,73,68,0
2,62,74,0
2,64,65,52
2,73,74,0
2,66,65,0
2,69,87,0
2,62,77,0
2,64,64,52
2,73,67,0
2,69,80,0
2,66,67,0
2,62,72,0
2,69,94,28
2,61,81,0
2,68,89,0
2,61,75,8
2,69,93,120
2,68,79,0
2,61,69,0
2,61,70,36
2,61,72,108
2,69,86,0
2,66,75,0
2,61,65,56
2,69,88,88
2,66,76,0
2,61,68,0
2,61,75,28
2,50,79,36
2,66,82,0
2,61,72,0
2,69,93,0
2,61,81,8
2,66,79,104
2,69,94,0
2,61,81,76
2,65,87,24
2,61,76,0
2,73,81,0
2,49,82,0
2,68,82,0
2,61,84,4
2,65,89,92
2,73,89,0
2,68,89,0
2,61,81,24
2,71,93,44
2,61,75,0
2,54,72,0
2,68,84,0
2,61,81,4
2,71,96,108
2,68,92,0
2,61,74,0
2,61,79,100
2,61,70,8
2,52,82,0
2,69,88,0
2,66,75,0
2,61,94,60
2,61,68,88
2,69,93,0
2,66,84,0
2,61,84,32
2,50,86,8
2,61,81,0
2,66,84,0
2,69,93,0
2,54,75,100
2,57,84,0
2,69,65,36
2,61,101,0
2,66,100,48
2,61,28,28
2,66,72,0
2,61,70,4
2,65,94,0
2,68,70,0
2,56,55,0
2,49,72,0
2,53,74,0
2,56,76,64
2,61,81,8
2,61,79,40
2,68,87,0
2,65,99,0
2,54,75,64
2,57,79,0
2,49,72,0
2,66,92,0
2,61,82,0
2,54,96,8
2,61,100,84
2,66,101,0
2,57,91,24
2,61,92,16
2,64,101,0
2,49,75,0
2,57,79,0
2,54,79,0
2,57,86,28
2,64,101,0
2,61,89,0
2,50,88,8
2,61,87,0
2,66,94,0
2,50,99,24
2,62,99,72
2,66,101,96
2,69,86,32
2,54,100,48
2,50,80,316
2,69,94,0
2,57,67,0
2,61,89,0
2,66,82,0
2,49,101,56
2,64,93,0
2,56,89,0
2,59,101,0
2,49,94,84
2,56,87,68
2,59,86,24
2,59,94,72
2,64,91,0
2,64,87,64
2,56,76,0
2,59,91,0
2,66,84,64
2,50,89,0
2,57,70,0
2,61,82,0
2,54,60,0
2,69,88,0
2,54,89,160
2,57,96,40
2,69,96,104
2,61,89,0
2,66,96,0
2,54,76,36
2,57,82,0
2,50,101,0
2,66,89,24
2,61,87,0
2,69,91,0
2,49,82,56
2,64,81,0
2,59,82,0
2,56,64,0
2,49,101,200
2,56,87,36
2,59,98,64
2,64,91,40
2,49,84,48
2,59,87,0
2,64,84,0
2,56,79,0
2,50,87,44
2,61,92,0
2,54,74,0
2,69,98,0
2,57,75,0
2,66,96,0
2,50,81,160
2,54,82,96
2,57,79,80
2,61,82,0
2,66,89,0
2,69,94,0
2,64,101,88
2,61,94,0
2,69,98,0
2,56,82,16
2,59,99,0
2,64,91,0
2,49,87,0
2,49,101,88
2,56,96,40
2,59,84,40
2,49,76,188
2,56,76,0
2,59,93,0
2,64,86,0
2,59,87,36
2,52,94,0
2,66,84,0
2,62,89,0
2,69,96,0
2,52,87,120
2,59,88,56
2,62,89,52
2,66,101,96
2,59,72,8
2,71,94,0
2,68,84,0
2,64,91,0
2,52,79,0
2,64,81,72
2,68,82,0
2,71,88,0
2,45,86,64
2,56,74,0
2,61,75,0
2,64,84,0
2,49,70,192
2,52,94,0
2,57,87,88
2,61,82,0
2,64,84,0
2,57,82,80
2,61,82,0
2,64,84,0
2,45,82,4
2,57,84,60
2,61,87,0
2,64,87,0
2,52,77,16
2,69,88,0
2,62,81,0
2,66,79,0
2,69,93,2360
2,73,92,0
2,64,77,28
2,69,87,76
2,73,87,0
2,64,82,60
2,73,79,96
2,69,80,0
2,64,84,64
2,69,86,48
2,73,81,0
2,64,81,192
2,69,93,88
2,73,84,0
2,64,76,120
2,68,72,136
2,69,91,0
2,73,76,0
2,64,82,160
2,68,70,32
2,69,93,0
2,73,84,0
2,64,84,136
2,69,79,0
2,73,72,0
2,64,68,0
2,66,70,0
2,62,82,0
2,64,63,40
2,69,80,0
2,66,64,0
2,73,68,0
2,62,74,0
2,64,65,52
2,73,74,0
2,66,65,0
2,69,87,0
2,62,77,0
2,64,64,52
2,73,67,0
2,69,80,0
2,66,67,0
2,62,72,0
2,50,79,1564
2,66,82,0
2,61,72,0
2,69,93,0
2,61,81,8
2,66,79,104
2,69,94,0
2,61,81,76
2,50,88,24
2,62,79,0
2,66,81,0
2,69,86,0
2,62,91,80
2,66,94,40
2,69,101,0
2,62,65,0
2,62,93,72
2,57,79,44
2,45,79,0
2,68,81,0
2,64,81,0
2,71,88,0
3,69,86,1652
3,73,81,0
3,64,81,192
3,69,93,88
3,73,84,0
3,64,76,120
3,68,72,136
3,69,91,0
3,73,76,0
3,64,82,160
3,68,70,32
3,69,93,0
3,73,84,0
3,64,84,136
3,69,79,0
3,73,72,0
3,64,68,0
3,66,70,0
3,62,82,0
3,64,63,40
3,69,80,0
3,66,64,0
3,73,68,0
3,62,74,0
3,64,65,52
3,73,74,0
3,66,65,0
3,69,87,0
3,62,77,0
3,64,64,52
3,73,67,0
3,69,80,0
3,66,67,0
3,62,72,0
3,69,94,28
3,61,81,0
3,68,89,0
3,61,75,8
3,69,93,120
3,68,79,0
3,61,69,0
3,61,70,36
3,61,72,108
3,69,86,0
3,66,75,0
3,61,65,56
3,69,88,88
3,66,76,0
3,61,68,0
3,61,75,28
3,50,79,36
3,66,82,0
3,61,72,0
3,69,93,0
3,61,81,8
3,66,79,104
3,69,94,0
3,61,81,76
3,65,87,24
3,61,76,0
3,73,81,0
3,49,82,0
3,68,82,0
3,61,84,4
3,65,89,92
3,73,89,0
3,68,89,0
3,61,81,24
3,71,93,44
3,61,75,0
3,54,72,0
3,68,84,0
3,61,81,4
3,71,96,108
3,68,92,0
3,61,74,0
3,61,79,100
3,61,70,8
3,52,82,0
3,69,88,0
3,66,75,0
3,61,94,60
3,61,68,88
3,69,93,0
3,66,84,0
3,61,84,32
3,50,87,8
3,69,91,0
3,66,82,0
3,61,81,0
3,61,76,8
3,69,88,108
3,61,70,0
3,66,79,0
3,61,84,12
3,52,84,48
3,62,74,0
3,64,80,0
3,71,81,0
3,62,84,72
3,62,74,88
3,71,89,0
3,64,88,0
3,64,27,16
3,62,79,0
3,45,76,60
3,73,64,0
3,64,63,0
3,69,84,0
3,64,80,4
3,69,96,96
3,73,92,0
3,64,87,48
3,69,87,104
3,73,79,0
3,64,65,0
3,64,79,4
3,69,93,100
3,64,65,0
3,73,82,0
3,69,53,24
3,64,79,0
3,67,84,36
3,45,76,0
3,73,64,0
3,64,63,0
3,64,80,4
3,67,96,96
3,73,92,0
3,64,87,48
3,67,87,104
3,73,79,0
3,64,65,0
3,64,79,4
3,67,93,100
3,64,65,0
3,73,82,0
3,64,79,24
3,50,98,36
3,69,93,0
3,62,88,0
3,66,89,0
3,57,91,112
3,62,79,8
3,66,101,32
3,69,99,88
3,57,81,212
3,64,101,104
3,69,101,0
3,66,58,32
3,62,82,8
3,57,68,0
3,47,79,0
3,50,79,0
3,66,81,0
3,47,81,112
3,57,93,0
3,62,99,80
3,57,96,0
3,66,100,0
3,47,101,8
3,57,89,48
3,62,84,64
3,66,101,96
3,68,79,8
3,64,89,0
3,52,82,0
3,49,62,0
3,61,72,0
3,56,60,0
3,56,70,220
3,68,74,0
3,64,88,0
3,61,68,0
3,56,67,192
3,61,75,20
3,64,84,96
3,61,60,48
3,68,94,0
3,64,86,0
3,66,84,4
3,54,60,0
3,61,72,0
3,58,62,0
3,49,69,0
3,61,56,28
3,58,101,184
3,61,100,76
3,61,89,40
3,66,87,0
3,49,82,0
3,54,65,0
3,58,75,0
3,66,96,284
3,59,86,0
3,62,94,0
3,47,79,0
3,59,68,36
3,47,94,56
3,59,93,16
3,62,88,4
3,66,101,24
3,47,81,8
3,66,84,0
3,62,94,0
3,58,87,0
3,66,82,96
3,62,91,0
3,58,76,0
3,47,86,104
3,57,88,0
3,62,94,0
3,66,84,0
3,66,79,228
3,62,89,0
3,57,80,0
3,52,101,0
3,57,84,16
3,62,93,52
3,64,82,20
3,57,79,0
3,61,74,0
3,52,72,0
3,45,82,0
3,69,87,104
3,71,84,0
3,66,69,0
3,76,84,0
3,64,57,0
3,52,63,0
3,59,62,0
3,69,94,3180
3,61,81,0
3,68,89,0
3,61,75,8
3,69,93,120
3,68,79,0
3,61,69,0
3,61,70,36
3,61,72,108
3,69,86,0
3,66,75,0
3,61,65,56
3,69,88,88
3,66,76,0
3,61,68,0
3,61,75,28
3,50,79,36
3,66,82,0
3,61,72,0
3,69,93,0
3,61,81,8
3,66,79,104
3,69,94,0
3,61,81,76
3,65,87,24
3,61,76,0
3,73,81,0
3,49,82,0
3,68,82,0
3,61,84,4
3,65,89,92
3,73,89,0
3,68,89,0
3,61,81,24
3,71,93,44
3,61,75,0
3,54,72,0
3,68,84,0
3,61,81,4
3,71,96,108
3,68,92,0
3,61,74,0
3,61,79,100
3,61,70,8
