track,note,velocity,time
1,73,79,1136
1,69,87,0
1,64,62,192
1,73,67,156
1,69,83,0
1,64,58,172
1,73,70,160
1,69,84,0
1,64,62,152
1,73,72,184
1,69,80,0
1,64,56,0
1,69,85,184
1,73,77,0
1,64,43,192
1,69,83,148
1,73,68,0
1,64,54,184
1,73,67,164
1,69,86,0
1,68,74,0
1,64,59,192
1,73,59,156
1,68,66,0
1,69,85,0
1,64,70,184
1,73,67,4
1,66,72,0
1,69,80,0
1,62,62,196
1,66,72,160
1,69,73,0
1,73,53,0
1,62,61,8
1,73,67,168
1,69,77,0
1,66,72,0
1,62,64,188
1,73,71,168
1,66,71,0
1,69,81,4
1,62,62,0
1,73,61,180
1,68,84,0
1,69,80,0
1,61,68,188
1,68,78,172
1,69,80,0
1,73,66,0
1,61,61,172
1,66,71,172
1,73,53,0
1,69,80,0
1,61,59,188
1,66,73,160
1,73,62,0
1,69,79,4
1,61,63,176
1,66,77,48
1,50,66,0
1,69,80,4
1,61,61,188
1,66,75,176
1,69,80,0
1,61,71,180
1,49,64,168
1,68,84,4
1,66,78,0
1,73,78,0
1,61,72,192
1,65,80,160
1,68,77,0
1,73,51,4
1,61,74,176
1,54,60,0
1,71,75,4
1,66,73,0
1,68,79,0
1,61,57,200
1,66,74,172
1,68,74,0
1,71,74,0
1,61,72,0
1,52,64,176
1,66,72,0
1,69,70,0
1,61,58,176
1,66,75,176
1,69,79,0
1,61,79,160
1,73,68,0
1,66,75,0
1,69,86,0
1,50,61,0
1,62,57,196
1,73,75,136
1,66,75,0
1,69,86,4
1,62,70,12
1,52,57,0
1,66,56,8
1,69,68,0
1,71,73,4
1,62,71,172
1,66,68,160
1,69,73,0
1,71,66,0
1,62,74,172
1,73,70,44
1,45,65,0
1,69,81,0
1,64,54,192
1,73,70,140
1,69,83,0
1,64,58,176
1,73,71,140
1,69,86,0
1,40,59,0
1,64,68,176
1,73,75,160
1,69,86,4
1,64,76,8
1,71,84,0
1,69,80,0
1,45,58,4
1,64,61,0
1,71,81,184
1,69,78,0
1,64,73,0
1,40,60,192
1,71,78,4
1,69,76,0
1,74,83,0
1,64,74,188
1,71,75,168
1,69,79,4
1,74,63,0
1,64,68,156
1,69,85,0
1,73,77,0
1,64,43,196
1,69,83,148
1,73,68,0
1,64,54,184
1,73,67,164
1,69,86,0
1,68,74,0
1,64,59,192
1,73,59,156
1,68,66,0
1,69,85,0
1,64,70,184
1,73,67,4
1,66,72,0
1,69,80,0
1,62,62,196
1,66,72,160
1,69,73,0
1,73,53,0
1,62,61,8
1,73,67,168
1,69,77,0
1,66,72,0
1,62,64,188
1,73,71,168
1,66,71,0
1,69,81,4
1,62,62,0
1,73,61,180
1,68,84,0
1,69,80,0
1,61,68,188
1,68,78,172
1,69,80,0
1,73,66,0
1,61,61,172
1,66,71,172
1,73,53,0
1,69,80,0
1,61,59,188
1,66,73,160
1,73,62,0
1,69,79,4
1,61,63,176
1,66,77,48
1,69,80,4
1,61,61,188
1,66,75,176
1,69,80,0
1,61,71,180
1,68,84,176
1,66,78,0
1,73,78,0
1,61,72,192
1,65,80,160
1,68,77,0
1,73,51,4
1,61,74,176
1,71,75,44
1,66,73,0
1,68,79,0
1,61,57,200
1,66,74,172
1,68,74,0
1,71,74,0
1,61,72,0
1,66,72,176
1,69,70,0
1,61,58,176
1,66,75,176
1,69,79,0
1,61,79,160
1,73,68,24
1,66,75,0
1,69,86,0
1,62,57,196
1,73,75,136
1,66,75,0
1,69,86,4
1,62,70,12
1,66,56,164
1,69,68,0
1,71,73,4
1,62,71,172
1,66,68,160
1,69,73,0
1,71,66,0
1,62,74,172
1,73,70,44
1,69,81,0
1,64,54,192
1,73,70,140
1,69,83,0
1,64,58,176
1,73,71,140
1,69,86,0
1,64,68,188
1,73,75,160
1,69,86,4
1,64,76,8
1,71,84,192
1,69,80,0
1,64,61,0
1,71,81,184
1,69,78,0
1,64,73,0
1,71,78,196
1,69,76,0
1,74,83,0
1,61,99,540
1,57,102,0
1,52,106,0
1,52,58,28
1,56,104,172
1,61,104,0
1,52,51,176
1,56,97,92
1,61,97,4
1,54,97,176
1,61,99,0
1,57,102,0
1,50,100,0
1,64,87,576
1,66,68,96
1,64,87,64
1,66,70,100
1,62,84,68
1,66,87,40
1,68,87,0
1,61,40,188
1,66,84,160
1,68,77,0
1,61,113,24
1,66,85,100
1,69,87,36
1,61,67,0
1,61,41,36
1,66,71,4
1,69,80,4
1,69,110,36
1,68,85,92
1,66,89,12
1,62,90,0
1,61,28,8
1,61,45,48
1,66,75,0
1,62,74,12
1,62,27,96
1,68,89,112
1,66,84,0
1,61,77,8
1,65,112,0
1,66,91,96
1,61,107,84
1,68,99,0
1,61,82,44
1,66,87,0
1,69,90,4
1,66,81,144
1,69,83,0
1,61,54,156
1,66,79,156
1,69,85,4
1,61,61,160
1,64,88,76
1,69,102,48
1,71,90,92
1,62,86,20
1,69,94,0
1,66,89,4
1,66,84,172
1,69,86,0
1,62,62,160
1,64,75,92
1,71,92,0
1,69,91,0
1,64,69,20
1,68,99,0
1,69,79,156
1,64,90,0
1,61,54,0
1,69,88,48
1,64,83,0
1,69,87,44
1,64,80,0
1,61,49,32
1,69,88,64
1,64,86,0
1,61,67,68
1,69,100,120
1,62,100,4
1,59,92,0
1,62,95,120
1,69,100,0
1,59,69,64
1,67,86,72
1,61,84,0
1,57,92,0
1,61,93,32
1,67,91,0
1,57,95,0
1,66,79,160
1,57,81,0
1,62,88,0
1,66,77,40
1,62,87,0
1,66,85,148
1,62,94,0
1,57,68,64
1,68,89,148
1,61,84,0
1,64,91,4
1,59,80,124
1,66,81,0
1,62,88,0
1,66,82,32
1,62,90,0
1,66,77,140
1,62,88,0
1,62,98,160
1,66,87,0
1,59,71,4
1,68,81,60
1,61,77,0
1,64,83,4
1,68,85,164
1,64,83,0
1,68,93,152
1,64,86,0
1,61,56,104
1,64,87,128
1,68,95,0
1,61,68,120
1,59,71,68
1,61,91,0
1,66,97,0
1,61,89,0
1,58,81,0
1,66,116,0
1,59,70,4
1,61,85,0
1,66,110,0
1,61,54,0
1,58,73,40
1,61,85,0
1,66,107,0
1,59,80,120
1,66,85,0
1,62,92,0
1,62,86,160
1,66,74,0
1,58,84,116
1,66,78,0
1,62,91,0
1,58,39,48
1,66,87,128
1,62,91,4
1,58,70,104
1,66,73,64
1,57,73,0
1,62,84,4
1,62,87,48
1,66,78,0
1,57,62,60
1,64,85,28
1,62,94,4
1,57,75,304
1,61,68,32
1,64,74,24
1,64,60,20
1,69,73,32
1,73,67,40
1,76,64,156
1,57,57,156
1,62,70,16
1,64,52,20
1,66,74,32
1,73,74,352
1,71,80,0
1,69,66,184
1,73,74,164
1,71,76,4
1,69,64,168
1,73,74,168
1,71,75,0
1,69,64,172
1,71,79,172
1,73,79,0
1,69,70,4
1,73,77,192
1,78,81,4
1,71,55,184
1,73,73,176
1,78,67,4
1,71,55,12
1,73,67,172
1,78,68,4
1,71,56,8
1,73,72,164
1,78,73,8
1,71,60,0
1,73,61,68
1,68,84,0
1,69,80,0
1,61,68,192
1,68,78,172
1,69,80,0
1,73,66,0
1,61,61,172
1,66,71,172
1,73,53,0
1,69,80,0
1,61,59,188
1,66,73,160
1,73,62,0
1,69,79,4
1,61,63,176
1,66,77,48
1,69,80,4
1,61,61,188
1,66,75,176
1,69,80,0
1,61,71,180
1,68,84,176
1,66,78,0
1,73,78,0
1,61,72,192
1,65,80,160
1,68,77,0
1,73,51,4
1,61,74,176
1,71,75,44
1,66,73,0
1,68,79,0
1,61,57,200
1,66,74,172
1,68,74,0
1,71,74,0
1,61,72,0
1,66,72,176
1,69,70,0
1,61,58,176
1,66,75,176
1,69,79,0
1,61,79,160
1,73,68,24
1,66,75,0
1,69,86,0
1,62,57,196
1,73,75,136
1,66,75,0
1,69,86,4
1,62,70,12
1,65,56,164
1,68,68,0
1,71,73,4
1,65,68,160
1,68,73,0
1,71,66,0
1,66,62,140
1,73,60,0
1,69,91,8
1,66,56,52
1,73,54,0
1,69,83,0
1,66,43,48
1,66,63,48
1,73,67,0
1,69,85,0
1,73,63,72
1,66,59,0
1,69,90,0
1,66,58,60
1,66,73,164
1,62,75,0
1,69,73,0
1,66,66,48
1,62,71,0
1,69,70,0
1,66,74,108
1,62,80,4
1,69,86,0
1,66,75,16
1,62,70,0
1,69,88,0
1,62,68,0
1,68,81,160
1,61,74,0
1,64,90,0
1,61,67,36
1,68,67,0
1,64,86,4
1,61,35,4
1,61,64,316
1,68,74,0
1,64,88,0
1,61,53,24
1,68,79,0
1,64,87,0
1,66,61,160
1,62,68,0
1,69,65,0
1,66,67,104
1,62,66,0
1,69,72,4
1,66,63,24
1,62,67,0
1,69,79,0
1,62,64,16
1,66,87,48
1,62,80,0
1,69,94,0
1,62,58,24
1,69,56,0
1,66,59,0
1,68,73,144
1,61,62,0
1,64,90,0
1,61,50,24
1,61,63,56
1,64,80,0
1,68,70,0
1,61,60,80
1,68,70,0
1,64,86,4
1,61,66,8
1,61,49,24
1,68,73,0
1,64,90,4
1,61,59,0
1,66,68,160
1,62,73,0
1,69,73,4
1,66,58,56
1,62,62,4
1,69,65,0
1,66,72,148
1,62,74,4
1,69,78,4
1,62,66,24
1,66,81,52
1,69,87,0
1,62,78,0
1,62,56,8
1,61,70,160
1,68,77,0
1,64,87,4
1,68,61,48
1,61,42,0
1,64,63,0
1,68,67,132
1,61,67,0
1,64,75,0
1,61,56,0
1,61,53,28
1,68,84,0
1,64,86,0
1,59,61,180
1,66,67,0
1,62,84,0
1,57,62,256
1,61,72,72
1,64,65,16
1,66,67,240
1,62,92,0
1,73,64,2172
1,69,76,0
1,64,43,192
1,73,61,180
1,69,75,0
1,64,54,0
1,73,65,164
1,69,80,4
1,64,60,0
1,73,67,188
1,69,73,0
1,64,56,4
1,73,62,184
1,69,74,8
1,64,55,0
1,73,62,184
1,69,76,4
1,64,58,0
1,73,73,184
1,69,83,4
1,64,74,12
1,64,67,48
1,71,65,0
1,69,52,12
1,71,67,8
1,64,67,0
1,69,53,4
1,71,67,8
1,64,61,4
1,69,54,188
1,71,73,0
1,64,66,4
1,69,66,188
1,73,70,132
1,68,75,4
1,64,53,188
1,68,75,160
1,73,75,0
1,64,52,4
1,68,74,176
1,73,67,0
1,64,60,0
1,68,84,180
1,73,78,0
1,64,80,20
1,66,61,12
1,69,64,0
1,62,58,196
1,66,63,176
1,69,66,4
1,62,55,12
1,66,56,176
1,69,63,0
1,62,57,24
1,66,67,188
1,69,53,8
1,62,77,8
1,61,48,96
1,64,69,16
1,69,65,12
2,33,97,14940
2,45,95,40
2,57,92,0
2,42,96,124
2,40,103,0
2,38,95,0
2,37,95,0
2,42,95,28
2,40,99,0
2,38,100,0
2,28,97,0
2,33,99,0
2,33,96,4
2,33,99,4
2,33,95,16
2,33,97,4
2,40,97,4
2,52,95,0
2,40,100,4
2,42,94,0
2,45,100,0
2,45,98,44
2,45,97,116
2,45,100,60
2,40,98,0
2,45,100,16
2,45,97,52
2,45,105,140
2,45,109,64
2,42,100,0
2,42,112,160
2,40,102,4
2,40,105,148
2,38,102,0
2,38,106,164
2,37,101,0
2,35,98,112
2,37,98,0
2,37,106,28
2,42,98,76
2,49,101,0
2,42,100,0
2,40,101,0
2,38,98,8
2,38,101,100
2,39,91,0
2,40,100,0
2,28,100,0
2,30,98,0
2,33,102,44
2,33,97,72
2,33,99,116
2,52,101,0
2,45,102,0
2,40,98,0
2,33,100,0
2,33,98,36
2,33,95,48
2,33,99,60
2,43,102,48
2,40,96,0
2,45,105,0
2,40,98,0
2,33,100,36
2,40,98,0
2,45,104,0
2,40,97,0
2,38,102,44
2,45,103,0
2,54,98,0
2,38,101,0
2,38,100,48
2,37,90,0
2,37,102,52
2,35,98,64
2,42,93,4
2,47,100,0
2,42,90,0
2,35,99,0
2,42,91,0
2,47,97,0
2,52,101,0
2,40,97,0
2,52,104,0
2,40,98,0
2,37,97,88
2,37,101,212
2,37,98,132
2,42,98,144
2,44,99,0
2,47,98,0
2,49,98,0
2,42,97,0
2,49,101,0
2,54,100,0
2,52,100,0
2,49,98,0
2,42,91,0
2,42,95,48
2,49,97,0
2,54,101,0
2,42,101,0
2,42,87,32
2,42,95,24
2,42,104,32
2,35,101,20
2,35,96,64
2,35,98,96
2,42,100,24
2,47,98,0
2,42,96,0
2,40,101,24
2,47,101,4
2,52,108,8
2,47,108,116
2,40,105,108
2,40,114,108
2,33,107,4
2,40,105,4
2,42,101,3092
2,49,111,48
2,40,100,8
2,38,105,52
2,45,110,52
2,37,98,12
2,37,102,68
2,42,102,20
2,42,98,32
2,42,98,28
2,42,100,52
2,40,103,0
2,45,104,0
2,38,100,4
2,38,105,116
2,37,100,0
2,37,102,20
2,37,102,0
2,37,104,40
2,42,102,68
2,42,101,44
2,40,101,4
2,45,103,0
2,40,99,0
2,38,98,4
2,45,100,0
2,52,101,0
2,45,102,0
2,50,92,12
2,45,97,0
2,38,99,0
2,45,102,0
2,38,95,0
2,37,100,40
2,44,96,0
2,49,104,0
2,37,98,104
2,44,98,0
2,47,95,0
2,49,101,0
2,44,97,0
2,37,101,0
2,44,102,0
2,38,98,28
2,45,100,4
2,49,89,0
2,50,105,0
2,38,100,108
2,45,89,0
2,52,96,36
2,45,97,0
2,50,102,0
2,38,95,52
2,42,99,0
2,37,98,20
2,44,98,0
2,47,95,0
2,49,104,0
2,37,98,140
2,44,98,12
2,49,106,44
2,44,103,0
2,37,89,40
2,37,100,60
2,38,105,52
2,45,101,16
2,50,105,0
2,38,100,140
2,54,100,28
2,52,103,0
2,50,105,0
2,49,107,0
2,47,95,0
2,45,105,0
2,37,102,44
2,49,107,8
2,37,104,132
2,49,102,156
2,47,105,0
2,42,106,28
2,37,102,0
2,35,105,8
2,35,105,56
2,40,94,0
2,45,109,80
2,45,102,40
2,45,96,128
2,45,106,36
2,45,104,144
2,33,108,3144
2,33,99,64
2,33,101,96
2,33,98,40
2,33,99,56
2,33,99,96
2,33,100,88
2,49,104,168
2,49,97,52
2,49,102,120
2,49,106,64
2,38,100,44
2,38,97,60
2,38,104,100
2,38,106,56
2,33,99,72
3,57,83,15104
3,61,71,188
3,64,55,204
3,61,53,12
3,64,87,20
3,69,110,0
3,64,81,8
3,54,73,132
3,57,74,192
3,64,105,212
3,57,52,192
3,54,81,192
3,64,73,24
3,50,31,8
3,66,100,180
3,69,94,184
3,61,93,192
3,66,93,32
3,61,73,44
3,66,93,32
3,57,82,200
3,57,95,48
3,62,91,192
3,66,93,192
3,56,100,16
3,61,73,192
3,56,93,16
3,61,66,36
3,66,102,208
3,69,112,188
3,61,74,180
3,66,96,32
3,61,74,32
3,66,98,32
3,57,92,92
3,57,91,16
3,62,80,192
3,66,91,192
3,62,76,36
3,59,85,64
3,57,73,28
3,59,92,12
3,57,73,24
3,57,85,208
3,61,85,192
3,69,96,200
3,64,71,208
3,61,48,384
3,57,85,200
3,62,84,200
3,64,105,192
3,57,81,512
3,61,53,192
3,69,96,184
3,64,61,4
3,64,103,28
3,61,71,16
3,64,83,20
3,69,90,192
3,57,61,172
3,61,85,188
3,66,85,192
3,64,87,16
3,61,65,28
3,57,64,24
3,64,74,32
3,66,102,112
3,69,87,184
3,61,88,276
3,66,92,28
3,61,85,28
3,66,93,24
3,57,105,180
3,64,36,124
3,57,98,8
3,62,97,48
3,66,83,164
3,57,102,24
3,56,106,0
3,61,82,204
3,56,102,148
3,61,70,176
3,66,93,204
3,69,105,192
3,61,96,192
3,66,93,32
3,61,91,44
3,66,91,0
3,57,105,192
3,57,90,192
3,62,89,192
3,57,50,32
3,59,101,88
3,57,65,28
3,59,106,16
3,57,73,28
3,57,88,224
3,64,112,188
3,61,34,4
3,61,82,16
3,69,107,192
3,61,79,16
3,64,95,32
3,61,96,32
3,54,96,1524
3,57,100,4
3,61,112,4
3,66,97,8
3,54,81,4
3,57,93,4
3,61,90,0
