track,note,velocity,time
1,72,63,1136
1,80,69,12
1,72,67,8
1,73,61,344
1,80,82,384
1,74,72,356
1,79,76,0
1,70,68,372
1,72,75,12
1,79,71,380
1,77,75,20
1,72,67,12
1,68,68,324
1,70,66,372
1,77,80,0
1,71,62,12
1,70,66,372
1,75,68,12
1,67,66,372
1,68,66,0
1,75,71,384
1,73,56,0
1,66,56,0
1,65,64,4
1,70,63,16
1,63,69,4
1,63,67,28
1,60,64,1516
1,61,71,0
1,70,71,740
1,67,59,776
1,63,71,1108
1,63,58,4
1,68,53,4
1,65,55,4
1,61,50,36
1,61,55,12
1,67,64,760
1,63,50,20
1,63,66,20
1,63,68,4
1,68,68,0
1,66,49,4
1,70,69,0
1,65,54,4
1,63,45,20
1,69,69,1108
1,72,67,0
1,70,62,0
1,73,66,4
1,71,65,0
1,74,69,0
1,79,64,0
1,76,60,4
1,72,55,0
1,70,61,0
1,70,61,24
1,69,60,4
1,72,60,0
1,73,59,28
1,70,66,0
1,75,70,360
1,73,67,404
1,75,72,364
1,82,84,736
1,70,85,396
1,70,78,72
1,72,69,16
1,72,76,52
1,75,79,0
1,80,79,0
1,84,79,356
1,79,78,2276
1,80,76,360
1,82,77,344
1,77,83,16
1,79,76,372
1,80,75,368
1,77,72,12
1,82,76,380
1,80,63,16
1,79,57,420
1,67,35,12
1,63,32,760
1,68,49,28
1,70,50,2268
1,72,74,0
1,75,88,376
1,79,80,380
1,82,85,396
1,84,85,776
1,77,71,8
1,80,53,20
1,73,40,8
1,67,49,16
1,68,57,776
1,70,47,744
1,78,57,8
1,68,48,12
1,80,56,760
1,66,46,4
1,73,47,0
1,75,53,0
1,80,75,0
1,72,83,1128
1,73,80,344
1,72,75,768
1,69,80,384
1,70,71,4
1,70,84,48
1,72,83,0
1,74,87,376
1,77,88,396
1,75,71,408
1,68,57,352
1,72,76,0
1,68,54,40
1,68,70,20
1,70,78,368
1,77,90,356
1,75,82,376
1,73,75,340
1,71,81,0
1,70,71,380
1,68,71,396
1,66,75,0
1,65,66,0
1,65,64,28
1,89,90,8
1,91,89,380
1,92,95,360
1,91,83,1548
1,92,88,344
1,94,80,4
1,80,73,176
1,82,77,0
1,92,70,12
1,82,69,1124
1,84,73,412
1,82,71,736
1,79,71,4
1,80,65,360
1,77,64,8
1,74,57,360
1,79,57,4
1,68,33,1684
1,72,41,4
1,65,35,1136
1,70,35,20
1,67,53,4
1,72,59,740
1,70,55,4
1,72,55,368
1,67,40,4
1,72,44,4
1,67,40,0
1,77,55,16
1,73,53,4
1,75,47,8
1,77,43,736
1,73,37,20
1,72,43,8
1,79,43,12
1,68,52,4
1,75,58,736
1,78,54,744
1,73,43,740
1,82,58,20
1,78,43,720
1,85,58,0
1,80,37,724
1,75,43,0
1,87,56,24
2,54,68,1116
2,53,75,748
2,52,81,740
2,51,75,744
2,50,81,752
2,43,86,744
2,48,80,756
2,55,65,28
2,47,80,24
2,51,58,24
2,40,90,728
2,47,73,8
2,39,95,748
2,46,69,0
2,44,75,12
2,44,68,4
2,44,67,8
2,43,78,16
2,41,75,16
2,46,70,0
2,39,73,1540
2,44,76,24
2,42,82,8
2,35,105,384
2,47,109,8
2,40,109,0
2,39,80,12
2,53,64,0
2,46,80,0
2,44,47,4
2,44,49,4
2,44,57,12
2,44,102,32
2,43,90,16
2,41,66,8
2,46,69,12
2,34,70,744
2,39,82,4
2,44,82,1536
2,43,93,736
2,41,96,748
2,39,107,776
2,38,107,404
2,37,87,32
2,44,100,204
2,51,113,200
2,56,120,168
2,53,95,208
2,48,83,0
2,46,74,208
2,39,77,1336
2,55,79,196
2,44,84,4
2,53,80,348
2,51,73,344
2,43,78,796
2,36,83,728
2,53,72,40
2,52,74,360
2,41,89,28
2,39,89,688
2,38,83,0
2,43,78,820
2,43,71,80
2,36,72,4
2,46,69,16
2,45,66,24
2,44,68,4
2,44,65,12
2,43,70,4
2,41,64,16
2,46,50,0
2,39,65,1532
2,27,65,784
2,44,68,0
2,44,70,48
2,44,77,8
2,51,64,0
2,43,84,1144
2,50,69,4
2,52,69,384
2,37,97,0
2,44,67,4
2,57,89,0
2,56,75,4
2,55,82,384
2,53,76,380
2,41,83,0
2,43,61,32
2,36,87,0
2,38,96,24
2,45,61,4
2,41,96,0
2,48,61,4
2,41,97,0
2,48,61,4
2,34,89,0
2,46,74,32
2,44,83,20
2,42,91,4
2,42,71,8
2,35,91,0
2,43,75,368
2,36,101,4
2,46,60,368
2,39,96,20
2,54,66,0
2,45,76,0
2,44,75,356
2,51,75,8
2,49,68,368
2,42,88,8
2,40,83,8
2,47,77,0
2,46,64,364
2,39,78,4
2,45,68,8
2,38,83,16
2,37,85,12
2,44,97,160
2,51,87,4
2,56,95,0
2,53,86,8
2,56,99,0
2,54,97,8
2,53,94,0
2,53,90,40
2,37,84,808
2,56,89,168
2,51,92,208
2,49,99,160
2,48,81,20
2,46,127,24
2,44,116,4
2,43,75,0
2,36,82,4
2,53,75,0
2,52,76,388
2,41,78,368
2,55,69,0
2,43,76,0
2,45,81,8
2,50,84,0
2,53,98,388
2,43,107,380
2,43,55,4
2,36,93,0
2,44,32,1564
2,44,41,148
2,44,64,96
2,41,71,36
2,48,62,8
2,51,66,24
2,46,54,4
2,47,69,748
2,46,52,12
2,39,52,772
2,44,67,36
2,51,41,24
2,42,68,700
2,49,60,0
2,47,66,744
2,40,78,4
2,38,80,748
2,45,71,28
2,43,75,744
2,36,65,8
2,32,61,748
2,44,56,8
3,68,53,1096
3,65,75,12
3,64,80,0
3,63,77,388
3,67,59,348
3,62,80,0
3,61,84,1140
3,65,63,384
3,60,81,4
3,59,73,728
3,68,58,368
3,58,69,344
3,67,69,0
3,57,76,8
3,63,63,28
3,56,71,8
3,63,67,4
3,65,70,736
3,55,70,4
3,53,71,0
3,63,58,1524
3,58,58,0
3,58,67,4
3,61,67,768
3,60,59,4
3,63,59,8
3,58,67,8
3,60,67,0
3,65,47,732
3,61,59,0
3,61,57,4
3,60,60,20
3,58,60,736
3,56,61,8
3,61,49,20
3,58,61,740
3,58,52,12
3,60,54,0
3,63,73,4
3,58,57,0
3,56,68,4
3,61,73,0
3,63,60,4
3,61,58,0
3,58,60,4
3,60,63,0
3,65,71,764
3,61,62,388
3,62,71,0
3,60,69,0
3,64,68,12
3,63,56,4
3,67,59,4
3,62,51,16
3,67,67,4
3,61,58,12
3,65,58,12
3,65,69,8
3,61,61,8
3,66,71,744
3,64,60,372
3,67,63,16
3,58,63,0
3,65,67,4
3,63,67,0
3,70,49,0
3,67,76,0
3,63,64,4
3,68,71,368
3,67,72,8
3,65,61,4
3,64,72,0
3,68,87,0
3,72,74,4
3,68,51,12
3,65,50,12
3,70,80,16
3,72,85,4
3,63,55,352
3,67,64,0
3,70,69,20
3,73,76,340
3,75,72,356
3,65,70,12
3,70,70,4
3,67,70,0
3,64,67,388
3,65,52,0
3,72,66,8
3,73,64,28
3,74,61,24
3,65,41,1512
3,61,46,1140
3,63,57,8
3,68,60,216
3,63,59,4
3,61,54,220
3,63,60,188
3,65,70,168
3,63,55,220
3,61,48,360
3,63,54,400
3,60,46,8
3,63,64,4
3,62,63,8
3,61,56,4
3,65,56,0
3,63,40,0
3,65,40,4
3,68,46,0
3,61,56,4
3,65,56,0
3,64,53,760
3,60,56,4
3,58,36,4
3,60,58,0
3,61,66,800
3,62,65,8
3,58,46,4
3,63,57,0
3,70,61,24
3,63,51,0
3,65,70,1132
3,58,70,4
3,66,70,0
3,59,70,4
3,63,58,0
3,65,64,4
3,62,72,372
3,64,67,8
3,61,61,364
3,65,76,0
3,63,68,0
3,55,68,4
3,56,68,4
3,63,68,0
3,65,76,364
3,67,78,352
3,70,83,0
3,65,74,8
3,71,75,0
3,66,75,0
3,65,69,376
3,63,69,0
3,61,71,8
3,66,71,4
3,61,71,0
3,68,65,372
3,63,71,4
3,66,65,368
3,71,65,4
3,69,65,0
3,64,74,4
3,66,65,0
3,63,73,0
3,61,70,380
3,59,69,344
3,64,62,4
3,58,70,348
3,63,67,0
3,61,63,4
3,56,46,4
3,57,51,744
3,60,69,16
3,65,61,4
3,61,22,20
3,63,61,368
3,67,80,0
3,68,75,364
3,65,64,4
3,67,74,36
3,63,59,4
3,68,70,384
3,65,72,0
3,63,66,328
3,67,74,8
3,61,77,0
3,67,73,0
3,65,74,16
3,63,77,4
3,67,90,16
3,61,77,4
3,67,45,4
3,68,60,12
3,65,68,4
3,63,69,0
3,67,68,4
3,65,62,0
3,72,75,4
3,70,75,0
3,75,81,4
3,68,68,4
3,73,68,0
3,64,53,4
3,72,54,20
3,60,49,1516
3,62,49,384
3,63,49,24
3,61,47,0
3,65,42,744
3,62,57,4
3,64,57,764
3,60,49,736
3,63,49,0
3,62,47,744
3,65,49,4
3,63,52,4
3,65,52,0
3,65,51,44
3,63,47,4
3,60,50,0
3,64,49,8
3,68,31,4
3,64,44,4
3,68,43,8
3,66,44,744
3,66,51,16
3,61,60,16
3,56,66,504
3,58,68,224
3,60,72,0
3,62,73,0
3,58,52,0
3,68,43,636
3,60,48,0
4,75,64,10700
4,80,71,44
4,72,65,36
4,73,69,0
4,80,64,44
4,79,64,0
4,77,67,20
4,79,66,16
4,70,70,384
4,72,71,84
4,79,74,16
4,77,76,48
4,75,64,172
4,77,73,28
4,67,70,580
4,67,64,4
4,77,74,8
4,75,74,92
4,73,61,8
4,75,80,32
4,82,67,2116
4,80,64,4
4,72,65,28
4,73,68,0
4,80,67,32
4,79,77,216
4,77,68,8
4,79,74,8
4,70,61,996
4,72,79,8
4,79,76,200
4,77,74,196
4,75,57,52
4,77,67,32
4,65,67,852
4,67,68,12
4,77,71,188
4,75,69,8
4,73,67,28
4,75,73,12
4,80,103,2196
4,80,103,8
4,84,103,76
4,84,102,20
4,72,88,176
4,73,99,24
4,84,101,16
4,82,88,4
4,80,93,16
4,82,93,32
4,70,81,88
4,72,94,20
4,82,93,20
4,80,90,0
4,79,85,16
4,80,81,60
4,70,80,112
4,72,91,20
4,80,99,192
4,79,87,200
4,77,78,0
4,80,105,48
4,79,76,4
4,75,62,604
4,75,64,36
4,75,62,68
4,80,62,24
4,72,61,384
4,73,67,20
4,80,71,8
4,79,64,8
4,77,73,72
4,79,74,8
4,70,69,180
4,72,78,12
4,79,72,16
4,77,67,104
4,75,69,4
4,77,79,32
4,80,75,552
4,85,92,4
4,79,88,16
4,80,93,80
4,80,95,13836
4,84,106,24
4,84,110,4
4,84,110,8
4,87,115,4
4,85,106,44
4,84,99,0
4,82,91,4
4,84,102,4
4,82,100,0
4,84,106,4
4,82,93,76
4,80,98,208
4,79,86,8
4,82,95,192
4,82,103,4
4,84,89,0
4,80,103,12
4,83,85,48
4,82,95,68
4,80,103,4
4,79,99,4
4,77,88,4
4,80,95,4
4,82,83,4
4,79,80,36
4,75,69,456
4,75,64,52
4,82,69,4
4,80,72,20
4,84,69,1328
4,82,64,180
4,80,63,212
4,79,60,40
4,77,54,124
4,79,67,52
4,82,67,472
4,80,62,180
4,79,69,0
4,77,57,16
4,75,58,20
4,77,67,152
4,80,67,4
4,85,67,4
4,79,62,4
4,82,62,4
4,82,66,4
4,80,58,192
5,60,70,1056
5,59,71,752
5,58,72,736
5,57,72,0
5,56,85,780
5,58,88,336
5,60,85,0
5,61,97,200
5,53,75,32
5,63,101,332
5,65,88,180
5,63,96,212
5,65,74,8
5,61,74,0
5,61,60,4
5,66,60,0
5,61,68,4
5,60,69,764
5,61,60,768
5,56,61,8
5,51,67,20
5,56,50,0
5,56,61,72
5,53,80,0
5,56,66,16
5,55,66,0
5,58,64,4
5,51,64,0
5,55,65,4
5,51,72,0
5,57,57,4
5,51,68,0
5,56,54,0
5,53,61,4
5,55,61,748
5,55,66,16
5,56,77,760
5,52,77,12
5,54,77,4
5,58,69,12
5,54,77,4
5,58,73,0
5,56,68,0
5,58,68,4
5,56,44,8
5,53,68,0
5,51,60,392
5,54,62,736
5,53,72,0
5,56,64,748
5,55,74,16
5,55,71,8
5,58,71,0
5,57,71,12
5,51,71,4
5,53,61,0
5,60,61,12
5,58,61,4
5,56,61,4
5,56,74,4
5,53,61,0
5,59,69,4
5,55,72,8
5,57,71,12
5,51,66,376
5,60,66,0
5,58,66,4
5,60,63,4
5,58,63,0
5,56,74,16
5,55,80,4
5,61,63,8
5,56,83,4
5,60,71,4
5,60,67,0
5,58,77,2300
5,56,78,0
5,58,83,384
5,60,56,780
5,58,73,16
5,56,70,16
5,58,69,380
5,60,62,388
5,59,72,1532
5,53,60,24
5,59,63,4
5,52,62,16
5,58,52,8
5,53,47,12
5,55,45,0
5,57,39,24
5,56,41,360
5,53,55,4
5,58,55,8
5,55,75,12
5,56,68,0
5,60,65,4
5,55,62,348
5,56,46,40
5,56,53,72
5,53,57,4
5,55,71,0
5,58,62,0
5,56,68,20
5,60,70,8
5,55,64,196
5,58,68,8
5,56,56,312
5,53,59,0
5,51,43,64
5,55,54,0
5,58,61,768
5,58,66,20
5,51,44,4
5,51,72,4
5,57,72,0
5,53,44,4
5,56,63,8
5,61,52,752
5,57,50,24
5,56,60,8
5,49,42,4
5,49,51,4
5,55,54,8
5,51,64,4
5,56,70,0
5,53,66,1508
5,56,63,20
5,52,66,0
5,56,64,4
5,58,55,0
5,57,61,0
5,60,61,12
5,61,64,4
5,59,69,8
5,63,61,348
5,61,71,4
5,62,72,4
5,60,74,4
5,60,69,4
5,56,63,4
5,60,63,0
5,58,66,1144
5,55,66,4
5,58,72,4
5,51,61,0
5,60,68,376
5,53,66,0
5,55,74,0
5,63,66,4
5,63,66,0
5,57,75,8
5,60,61,380
5,53,52,0
5,58,67,16
5,56,64,8
5,49,71,0
5,51,72,360
5,58,68,0
5,52,83,8
5,59,71,0
5,55,72,360
5,61,77,4
5,59,71,8
5,57,82,0
5,56,70,12
5,54,47,4
5,54,47,24
5,60,79,4
5,56,71,0
5,55,84,16
5,58,88,0
5,60,88,348
5,56,77,12
5,58,77,1552
5,55,90,0
5,56,88,348
5,60,83,12
5,58,78,340
5,55,83,12
5,58,66,24
5,53,80,0
5,55,75,8
5,60,58,764
5,56,58,0
5,58,70,28
5,60,71,4
5,58,67,4
5,60,55,16
5,62,44,24
5,51,45,1532
5,56,37,0
5,53,54,384
5,55,56,736
5,60,36,0
5,53,47,4
5,58,38,4
5,56,56,4
5,59,59,0
5,60,55,748
5,55,49,8
5,53,44,352
5,58,42,0
5,55,53,16
5,57,56,0
5,55,41,12
5,61,40,4
5,56,36,4
5,57,55,12
5,61,56,0
5,61,56,20
5,56,40,4
5,49,50,12
5,55,38,12
5,56,49,4
5,57,52,724
5,59,49,796
5,61,60,732
5,52,63,700
5,58,63,12
5,51,63,44
5,56,63,0
6,66,67,7544
6,68,72,176
6,70,58,4
6,63,65,4
6,63,66,44
6,63,51,9800
6,63,60,12
6,70,50,192
6,68,55,0
6,73,55,0
6,70,55,4
6,75,49,192
6,75,44,20
6,67,63,12688
6,68,65,376
6,70,65,384
6,68,66,384
6,67,64,0
6,65,55,400
6,72,49,3868
6,76,58,4
6,77,53,376
6,82,50,388
6,79,50,24
6,80,47,4
6,73,42,12
6,77,55,4
6,79,52,0
6,74,44,8
6,67,36,4
6,63,28,4
6,72,51,3480
6,75,62,360
6,79,65,340
6,82,49,4
6,84,50,24
6,89,37,40
6,92,45,728
6,80,70,15720
6,80,65,12
6,80,60,12
6,77,64,16
6,75,60,372
6,77,64,12
6,67,54,328
6,68,54,376
6,70,58,0
6,75,58,20
6,67,70,680
6,68,68,360
6,70,72,376
6,72,64,44
6,65,59,200
6,67,65,0
6,72,67,360
6,70,58,8
6,68,60,376
6,67,59,8
7,80,67,1016
7,72,62,392
7,73,54,336
7,80,58,388
7,79,62,352
7,70,61,364
7,72,65,12
7,79,68,388
7,77,69,372
7,68,67,400
7,70,67,0
7,77,73,12
7,75,59,8
7,67,68,392
7,68,67,0
7,75,61,4
7,73,54,396
7,70,60,16
7,63,42,23620
7,68,61,204
7,72,61,164
7,72,64,44
