track,note,velocity,time
0,45,29,1340
0,49,116,0
0,52,112,0
0,52,112,0
0,69,97,0
0,73,97,0
0,88,127,0
0,76,97,0
0,69,108,0
0,73,108,0
0,76,108,0
0,81,108,0
0,85,108,0
0,88,108,0
0,81,108,0
0,85,108,0
0,88,108,0
0,40,112,0
0,45,95,0
0,38,75,0
0,36,67,0
0,45,31,384
0,49,116,0
0,53,112,0
0,53,95,0
0,41,112,0
0,45,95,0
0,38,75,0
0,36,66,0
0,45,57,384
0,49,100,0
0,54,116,0
0,54,116,0
0,42,116,0
0,45,95,0
0,36,66,0
0,38,75,0
0,45,75,192
0,49,100,0
0,52,95,0
0,52,112,0
0,40,95,0
0,45,95,0
0,38,75,0
0,36,66,0
0,57,27,92
0,57,33,0
0,61,36,0
0,61,49,0
0,64,45,0
0,64,67,0
0,69,56,0
0,69,83,0
0,45,56,64
0,49,116,0
0,53,112,0
0,53,112,0
0,41,112,0
0,45,112,0
0,38,75,0
0,36,66,0
0,81,116,96
0,73,103,0
0,77,103,0
0,81,103,0
0,85,127,7
0,77,108,0
0,81,108,0
0,85,108,0
0,45,103,0
0,57,103,0
0,69,103,0
0,73,76,0
0,77,88,0
0,81,88,0
0,85,103,0
0,45,75,64
0,49,116,0
0,54,116,0
0,54,116,0
0,42,116,0
0,45,112,0
0,36,66,0
0,38,75,0
0,45,108,192
0,49,116,0
0,52,112,0
0,52,112,0
0,69,97,0
0,73,97,0
0,88,127,0
0,76,97,0
0,81,108,0
0,85,108,0
0,88,108,0
0,45,103,0
0,57,103,0
0,69,103,0
0,73,103,0
0,76,103,0
0,81,103,0
0,85,103,0
0,88,103,0
0,40,112,0
0,45,112,0
0,38,75,0
0,36,66,0
0,45,73,384
0,49,116,0
0,53,112,0
0,53,112,0
0,41,112,0
0,45,95,0
0,38,75,0
0,36,66,0
0,45,94,384
0,49,116,0
0,54,100,0
0,54,116,0
0,42,100,0
0,45,112,0
0,36,66,0
0,38,75,0
0,45,108,192
0,49,116,0
0,55,112,0
0,52,112,0
0,43,112,0
0,45,112,0
0,38,75,0
0,36,66,0
0,57,27,36
0,57,33,0
0,61,36,0
0,61,49,0
0,64,45,0
0,64,67,0
0,69,56,0
0,69,83,0
0,45,90,64
0,49,116,0
0,54,116,0
0,54,116,0
0,42,116,0
0,45,112,0
0,38,75,0
0,36,66,0
0,81,116,96
0,73,103,0
0,77,103,0
0,81,103,0
0,85,127,7
0,77,108,0
0,81,108,0
0,85,108,0
0,45,103,0
0,57,103,0
0,69,103,0
0,73,76,0
0,77,88,0
0,81,88,0
0,85,103,0
0,45,73,64
0,49,116,0
0,53,124,0
0,53,112,0
0,41,124,0
0,45,112,0
0,36,66,0
0,38,75,0
0,64,127,192
0,45,29,0
0,49,116,0
0,52,112,0
0,52,112,0
0,69,97,0
0,73,97,0
0,88,127,0
0,76,97,0
0,81,108,0
0,85,108,0
0,88,108,0
0,45,103,0
0,57,103,0
0,69,103,0
0,73,103,0
0,76,103,0
0,81,103,0
0,85,103,0
0,88,103,0
0,40,112,0
0,45,95,0
0,38,75,0
0,36,66,0
0,61,112,120
0,45,31,0
0,49,116,0
0,53,112,0
0,53,95,0
0,41,112,0
0,45,95,0
0,38,75,0
0,36,66,0
0,62,112,24
0,64,124,72
0,45,57,0
0,49,100,0
0,54,116,0
0,54,116,0
0,42,116,0
0,45,95,0
0,36,66,0
0,38,75,0
0,64,112,0
0,69,112,0
0,45,75,0
0,49,100,0
0,52,95,0
0,52,112,0
0,40,95,0
0,45,95,0
0,38,75,0
0,36,66,0
0,57,27,6
0,57,33,0
0,61,36,0
0,61,49,0
0,64,45,0
0,64,67,0
0,64,112,0
0,69,56,0
0,69,83,0
0,62,124,24
0,45,56,0
0,49,116,0
0,53,112,0
0,53,112,0
0,41,112,0
0,45,112,0
0,38,75,0
0,36,65,0
0,81,116,96
0,73,103,0
0,77,103,0
0,81,103,0
0,61,109,7
0,85,127,0
0,77,108,0
0,81,108,0
0,85,108,0
0,45,103,0
0,57,103,0
0,69,103,0
0,73,76,0
0,77,88,0
0,81,88,0
0,85,103,0
0,57,111,24
0,45,75,0
0,49,116,0
0,54,116,0
0,54,116,0
0,42,116,0
0,45,112,0
0,36,65,0
0,38,75,0
0,52,81,0
0,45,108,72
0,49,116,0
0,52,112,0
0,52,112,0
0,69,97,0
0,73,97,0
0,88,127,0
0,76,97,0
0,81,108,0
0,85,108,0
0,88,108,0
0,45,103,0
0,57,103,0
0,69,103,0
0,73,103,0
0,76,103,0
0,81,103,0
0,85,103,0
0,88,103,0
0,40,112,0
0,45,112,0
0,38,75,0
0,36,65,0
0,64,112,192
0,61,112,72
0,45,73,0
0,49,116,0
0,53,112,0
0,53,112,0
0,41,112,0
0,45,95,0
0,38,75,0
0,36,65,0
0,62,112,24
0,64,124,72
0,45,94,0
0,49,116,0
0,54,100,0
0,54,116,0
0,42,100,0
0,45,112,0
0,36,65,0
0,38,75,0
0,64,112,0
0,69,112,0
0,45,108,0
0,49,116,0
0,55,112,0
0,52,112,0
0,43,112,0
0,45,112,0
0,38,75,0
0,36,65,0
0,57,27,6
0,57,33,0
0,61,36,0
0,61,49,0
0,64,45,0
0,64,67,0
0,64,112,0
0,69,56,0
0,69,83,0
0,62,124,64
0,45,90,0
0,49,116,0
0,54,116,0
0,54,116,0
0,42,116,0
0,45,112,0
0,38,75,0
0,36,65,0
0,81,116,96
0,73,103,0
0,77,103,0
0,81,103,0
0,61,109,7
0,85,127,0
0,77,108,0
0,81,108,0
0,85,108,0
0,45,103,0
0,57,103,0
0,69,103,0
0,73,76,0
0,77,88,0
0,81,88,0
0,85,103,0
0,57,111,64
0,45,73,0
0,49,116,0
0,53,124,0
0,53,112,0
0,41,124,0
0,45,112,0
0,36,65,0
0,38,75,0
0,52,81,0
0,47,108,72
0,50,124,0
0,57,124,0
0,54,116,0
0,71,97,0
0,74,97,0
0,86,127,0
0,78,97,0
0,83,108,0
0,86,108,0
0,90,108,0
0,47,103,0
0,59,103,0
0,71,103,0
0,74,103,0
0,78,103,0
0,83,103,0
0,86,103,0
0,90,103,0
0,35,124,0
0,47,112,0
0,38,75,0
0,36,65,0
0,64,112,0
0,61,112,264
0,50,112,0
0,59,119,0
0,54,116,0
0,35,95,0
0,47,112,0
0,38,75,0
0,36,65,0
0,62,95,24
0,64,112,24
0,49,116,0
0,56,95,0
0,56,116,0
0,32,95,0
0,47,112,0
0,36,65,0
0,38,75,0
0,64,112,0
0,40,66,192
0,50,95,0
0,54,116,0
0,57,112,0
0,28,116,0
0,40,112,0
0,38,75,0
0,36,65,0
0,59,27,92
0,59,33,0
0,71,112,0
0,62,36,0
0,62,49,0
0,66,45,0
0,66,67,0
0,71,56,0
0,71,83,0
0,66,95,64
0,40,66,0
0,50,112,0
0,56,116,0
0,57,112,0
0,28,116,0
0,40,112,0
0,38,75,0
0,36,65,0
0,69,112,0
0,86,116,6
0,78,103,0
0,81,103,0
0,83,103,0
0,86,103,0
0,68,95,0
0,88,127,0
0,78,108,0
0,81,108,0
0,85,108,0
0,88,108,0
0,47,103,0
0,59,103,0
0,71,103,0
0,74,76,0
0,78,88,0
0,81,88,0
0,85,88,0
0,88,103,0
0,66,95,24
0,40,66,0
0,50,112,0
0,54,116,0
0,56,100,0
0,28,116,0
0,40,127,0
0,36,65,0
0,38,75,0
0,68,95,24
0,45,66,0
0,49,116,0
0,52,116,0
0,52,112,0
0,81,127,0
0,73,108,0
0,76,108,0
0,81,108,0
0,45,103,0
0,57,103,0
0,69,103,0
0,73,103,0
0,76,103,0
0,81,103,0
0,33,116,0
0,45,127,0
0,38,75,0
0,36,65,0
0,69,127,0
0,69,127,0
0,73,127,0
0,76,127,0
0,38,124,0
0,70,127,244
0,74,127,0
0,77,127,0
0,38,124,0
0,71,127,0
0,75,127,0
0,78,127,0
0,38,112,0
0,72,124,256
0,76,124,0
0,79,124,0
0,42,97,0
0,42,116,0
0,38,124,0
0,73,127,0
0,77,127,0
0,80,127,0
0,40,97,0
0,40,116,0
0,38,124,0
0,73,127,192
0,77,127,0
0,80,127,0
0,38,112,0
0,73,127,256
0,77,127,0
0,80,127,0
0,38,124,0
0,72,123,0
0,76,123,0
0,79,123,0
0,35,91,0
0,35,110,0
0,38,109,0
0,71,124,24
0,75,124,0
0,78,124,0
0,40,91,0
0,40,110,0
0,38,95,0
0,64,127,192
0,45,29,0
0,49,116,0
0,52,112,0
0,52,112,0
0,69,97,0
0,73,97,0
0,88,127,0
0,76,97,0
0,81,108,0
0,85,108,0
0,88,108,0
0,93,57,0
0,97,57,0
0,100,57,0
0,93,103,0
0,97,103,0
0,100,103,0
0,40,112,0
0,45,95,0
0,38,75,0
0,36,66,0
0,64,112,384
0,45,31,0
0,49,116,0
0,53,112,0
0,53,95,0
0,41,112,0
0,45,95,0
0,38,75,0
0,36,66,0
0,64,112,72
0,64,124,72
0,45,57,0
0,49,100,0
0,54,116,0
0,54,116,0
0,42,116,0
0,45,95,0
0,36,66,0
0,38,75,0
0,64,112,0
0,69,112,0
0,45,75,0
0,49,100,0
0,52,95,0
0,52,112,0
0,40,95,0
0,45,95,0
0,38,75,0
0,36,66,0
0,64,112,216
0,45,56,0
0,49,116,0
0,53,112,0
0,53,112,0
0,41,112,0
0,45,112,0
0,38,75,0
0,36,65,0
0,62,124,0
0,61,109,72
0,57,111,72
0,45,75,0
0,49,116,0
0,54,116,0
0,54,116,0
0,42,116,0
0,45,112,0
0,36,65,0
0,38,75,0
0,64,81,48
0,45,108,0
0,49,116,0
0,52,112,0
0,52,112,0
0,69,97,0
0,73,97,0
0,88,127,0
0,76,97,0
0,81,108,0
0,85,108,0
0,88,108,0
0,93,57,0
0,97,57,0
0,100,57,0
0,93,103,0
0,97,103,0
0,100,103,0
0,40,112,0
0,45,112,0
0,38,75,0
0,36,65,0
0,64,112,192
0,61,112,72
0,45,73,0
0,49,116,0
0,53,112,0
0,53,112,0
0,41,112,0
0,45,95,0
0,38,75,0
0,36,65,0
0,62,112,24
0,64,124,72
0,45,94,0
0,49,116,0
0,54,100,0
0,54,116,0
0,42,100,0
0,45,112,0
0,36,65,0
0,38,75,0
0,64,112,0
0,73,124,0
0,45,108,0
0,49,116,0
0,55,112,0
0,52,112,0
0,43,112,0
0,45,112,0
0,38,75,0
0,36,65,0
0,73,109,48
0,73,111,72
0,45,90,0
0,49,116,0
0,54,116,0
0,54,116,0
0,42,116,0
0,45,112,0
0,38,75,0
0,36,65,0
0,73,112,0
0,71,111,24
0,45,73,72
0,49,116,0
0,53,124,0
0,53,112,0
0,41,124,0
0,45,112,0
0,36,65,0
0,38,75,0
0,47,108,48
0,50,124,0
0,57,124,0
0,54,116,0
0,71,97,0
0,74,97,0
0,86,127,0
0,78,97,0
0,83,108,0
0,86,108,0
0,90,108,0
0,95,57,0
0,98,57,0
0,102,57,0
0,95,103,0
0,98,103,0
0,102,103,0
0,40,124,0
0,47,112,0
0,38,75,0
0,36,65,0
0,64,112,192
0,61,112,72
0,50,112,0
0,59,119,0
0,54,116,0
0,47,95,0
0,47,112,0
0,38,75,0
0,36,65,0
0,62,95,24
0,64,112,24
0,49,116,0
0,56,95,0
0,56,116,0
0,44,95,0
0,47,112,0
0,36,65,0
0,38,75,0
0,64,112,0
0,71,112,24
0,40,66,0
0,50,95,0
0,54,116,0
0,57,112,0
0,42,116,0
0,40,112,0
0,38,75,0
0,36,65,0
0,71,95,120
0,73,112,0
0,40,66,0
0,50,112,0
0,56,116,0
0,57,112,0
0,44,116,0
0,40,112,0
0,38,75,0
0,36,65,0
0,71,95,0
0,88,87,0
0,78,64,0
0,81,64,0
0,85,64,0
0,88,64,0
0,95,88,0
0,98,88,0
0,100,103,0
0,40,66,64
0,50,112,0
0,54,116,0
0,56,100,0
0,42,116,0
0,40,127,0
0,36,65,0
0,38,75,0
0,69,95,24
0,45,66,0
0,49,116,0
0,52,116,0
0,52,112,0
0,81,127,0
0,73,108,0
0,76,108,0
0,81,108,0
0,85,103,0
0,88,103,0
0,93,103,0
0,40,116,0
0,45,127,0
0,38,75,0
0,36,65,0
0,69,127,0
0,73,127,0
0,76,127,0
0,38,124,0
0,70,127,256
0,74,127,0
0,77,127,0
0,38,124,0
0,71,127,0
0,75,127,0
0,78,127,0
0,38,112,0
0,68,95,72
0,56,127,0
0,72,124,0
0,76,124,0
0,79,124,0
0,38,124,0
0,69,127,0
0,57,123,0
0,73,127,0
0,77,127,0
0,80,127,0
0,38,124,0
0,71,112,405
0,71,112,24
0,45,76,6
0,55,112,0
0,59,124,0
0,45,124,0
0,57,103,0
0,38,101,0
0,71,124,0
0,69,124,12
0,50,93,0
0,54,100,0
0,57,124,0
0,78,82,0
0,83,82,0
0,86,82,0
0,38,112,0
0,36,95,0
0,59,83,0
0,62,112,12
0,66,116,0
0,61,116,0
0,64,112,0
0,38,95,0
0,38,103,0
0,59,83,0
0,69,124,0
0,50,93,0
0,50,112,0
0,59,95,0
0,54,116,0
0,62,124,0
0,59,85,0
0,83,82,0
0,86,82,0
0,90,86,0
0,42,100,0
0,36,95,0
0,59,85,0
0,59,112,12
0,62,124,0
0,66,112,0
0,71,112,0
0,74,112,0
0,61,116,0
0,64,124,0
0,67,100,0
0,73,100,0
0,76,112,0
0,42,116,0
0,38,105,0
0,59,85,0
0,62,112,0
0,66,116,0
0,69,112,0
0,74,112,0
0,78,116,0
0,59,81,0
0,47,93,6
0,74,65,0
0,76,65,0
0,79,65,0
0,83,65,0
0,40,112,0
0,59,87,0
0,36,79,0
0,55,112,12
0,59,112,0
0,71,112,0
0,40,112,0
0,38,107,0
0,59,87,0
0,62,112,0
0,66,112,0
0,59,83,0
0,71,124,6
0,50,93,0
0,55,105,0
0,59,112,0
0,76,65,0
0,79,65,0
0,83,65,0
0,86,82,0
0,47,112,0
0,36,87,0
0,59,87,0
0,59,100,12
0,64,112,0
0,71,112,0
0,55,124,0
0,59,124,0
0,47,112,0
0,38,97,0
0,59,87,0
0,54,116,0
0,57,124,0
0,59,89,0
0,71,112,6
0,45,105,0
0,74,65,0
0,78,65,0
0,81,65,0
0,38,112,0
0,36,93,0
0,59,87,0
0,62,112,12
0,66,100,0
0,61,116,0
0,64,95,0
0,38,95,0
0,38,101,0
0,59,87,0
0,59,112,0
0,62,112,0
0,59,87,0
0,69,112,0
0,42,105,0
0,78,65,0
0,81,65,0
0,86,82,0
0,40,95,0
0,36,101,0
0,59,87,0
0,59,112,252
0,62,112,0
0,66,112,0
0,71,112,0
0,74,112,0
0,71,112,0
0,61,116,0
0,64,124,0
0,67,112,0
0,73,100,0
0,76,112,0
0,42,95,0
0,38,111,0
0,59,87,0
0,69,112,0
0,62,124,0
0,65,124,0
0,69,116,0
0,74,112,0
0,77,116,0
0,59,87,0
0,41,97,0
0,81,65,0
0,86,82,0
0,89,86,0
0,38,95,0
0,59,83,0
0,36,89,0
0,61,116,12
0,64,124,0
0,45,95,0
0,38,103,0
0,59,83,0
0,71,112,0
0,59,83,0
0,71,95,6
0,45,105,0
0,61,116,0
0,64,112,0
0,81,65,0
0,86,82,0
0,88,82,0
0,41,95,0
0,36,89,0
0,59,75,0
0,61,116,31
0,64,124,0
0,71,124,0
0,59,95,0
0,62,95,0
0,89,65,0
0,38,95,0
0,38,103,0
0,59,79,0
0,57,124,0
0,61,116,0
0,81,86,0
0,85,86,0
0,90,86,0
0,59,79,0
0,69,124,0
0,49,105,0
0,40,95,0
0,36,101,0
0,59,87,0
0,54,116,116
0,57,112,0
0,57,112,0
0,66,116,0
0,42,95,0
0,38,95,0
0,59,91,0
0,55,112,252
0,59,95,0
0,59,95,0
0,67,112,0
0,59,91,0
0,61,116,0
0,54,105,0
0,44,95,0
0,36,75,0
0,59,83,0
0,57,68,64
0,52,101,0
0,57,112,0
0,57,112,0
0,64,101,0
0,69,93,0
0,73,100,0
0,76,112,0
0,53,76,0
0,53,95,0
0,59,95,0
