track,note,velocity,time
1,64,89,2476
1,53,89,0
1,57,89,0
1,60,89,0
1,76,78,168
1,88,87,0
1,74,77,124
1,86,80,0
1,67,80,0
1,79,79,0
1,62,82,52
1,55,79,0
1,52,65,0
1,59,80,0
1,74,86,480
1,86,94,0
1,72,82,140
1,84,89,0
1,67,89,0
1,79,98,0
1,60,84,60
1,50,75,4
1,53,82,0
1,57,86,0
1,69,68,196
1,81,79,0
1,72,82,120
1,84,96,0
1,67,78,124
1,79,101,0
1,57,79,32
1,53,79,0
1,60,86,0
1,69,72,304
1,81,89,0
1,72,80,136
1,84,90,0
1,86,90,140
1,74,90,0
1,76,89,140
1,88,90,0
1,53,73,8
1,57,77,0
1,60,79,0
1,64,78,0
1,72,80,0
1,84,78,0
1,61,53,32
1,57,66,0
1,55,65,0
1,64,72,64
1,71,90,104
1,64,86,32
1,73,97,8
1,62,84,36
1,71,106,0
1,61,102,196
1,69,109,0
1,62,84,16
1,69,82,0
1,60,78,0
1,65,82,0
1,50,87,0
1,57,84,4
1,62,94,164
1,69,83,0
1,65,86,0
1,60,83,0
1,60,62,24
1,62,62,96
1,62,86,132
1,60,80,0
1,69,78,0
1,50,70,4
1,65,77,0
1,57,80,0
1,60,52,76
1,67,72,128
1,62,83,0
1,59,80,4
1,43,72,4
1,59,61,220
1,55,76,0
1,62,94,140
1,67,83,0
1,59,72,0
1,55,62,24
1,59,76,4
1,55,62,12
1,43,58,0
1,63,99,120
1,67,82,16
1,64,90,0
1,43,82,8
1,55,102,0
1,63,85,12
1,67,63,0
1,67,46,12
1,62,79,0
1,55,76,0
1,60,92,8
1,67,84,4
1,48,78,0
1,60,87,48
1,64,86,0
1,67,78,0
1,55,84,0
1,48,62,48
1,57,58,4
1,60,79,40
1,57,58,4
1,65,84,0
1,43,71,0
1,69,61,0
1,43,71,84
1,60,102,0
1,69,92,0
1,57,96,0
1,55,94,0
1,65,90,0
1,57,65,100
1,55,96,80
1,67,80,0
1,60,96,0
1,64,86,4
1,48,80,0
1,48,65,64
1,55,78,8
1,64,59,100
1,60,62,0
1,67,52,4
1,64,84,20
1,61,87,0
1,57,96,0
1,67,80,0
1,52,94,4
1,45,82,0
1,57,64,160
1,64,84,16
1,67,72,0
1,61,91,0
1,57,87,4
1,52,60,24
1,57,51,0
1,64,83,16
1,67,69,0
1,71,82,0
1,62,77,0
1,52,90,0
1,71,89,128
1,67,90,0
1,62,94,0
1,64,89,0
1,62,44,16
1,64,66,96
1,52,84,60
1,71,96,0
1,64,89,0
1,62,100,0
1,67,94,0
1,57,80,48
1,64,99,4
1,73,99,0
1,72,100,40
1,63,100,0
1,57,80,0
1,57,87,144
1,71,106,0
1,62,102,0
1,69,104,112
1,61,111,0
1,57,78,4
1,38,76,16
1,62,60,192
1,50,70,0
1,57,50,8
1,65,43,0
1,60,53,0
1,62,87,144
1,57,94,0
1,65,89,0
1,60,84,0
1,50,72,84
1,57,76,0
1,40,102,16
1,67,57,84
1,52,66,0
1,62,58,0
1,59,60,0
1,64,62,4
1,64,90,148
1,62,89,0
1,59,100,0
1,67,89,4
1,52,72,116
1,41,100,96
1,60,72,136
1,64,75,0
1,69,69,4
1,65,68,0
1,53,89,4
1,60,98,144
1,69,90,0
1,64,98,0
1,65,89,0
1,53,73,24
1,60,68,0
1,42,96,64
1,66,70,84
1,69,62,0
1,54,102,0
1,63,70,0
1,60,45,8
1,66,93,160
1,63,105,0
1,69,96,4
1,60,98,0
1,60,45,68
1,54,91,0
1,43,84,24
1,65,56,184
1,69,47,0
1,60,45,0
1,55,70,0
1,65,69,8
1,60,63,0
1,69,65,0
1,65,64,104
1,55,83,0
1,60,54,0
1,69,60,0
1,43,73,112
1,43,92,148
1,65,80,120
1,69,83,0
1,60,86,0
1,43,77,4
1,55,83,4
1,43,78,124
1,43,92,84
1,55,102,0
1,67,84,0
1,59,86,0
1,62,90,0
1,43,90,52
1,55,100,0
1,79,100,148
1,67,90,0
1,81,119,140
1,69,102,0
1,79,114,144
1,67,102,0
1,63,115,152
1,75,115,0
1,62,114,152
1,74,119,0
1,60,92,36
1,72,104,0
1,48,83,4
1,64,83,192
1,67,83,0
1,64,90,16
1,60,87,0
1,67,87,0
1,48,58,8
1,62,72,40
1,59,65,0
1,67,65,0
1,43,72,0
1,43,87,48
1,62,96,0
1,59,89,0
1,67,87,0
1,55,78,44
1,65,82,124
1,57,87,0
1,60,90,0
1,41,87,0
1,53,82,0
1,53,82,108
1,57,98,168
1,60,100,0
1,65,94,0
1,53,54,140
1,52,68,72
1,40,72,0
1,55,65,0
1,64,61,0
1,59,65,0
1,40,92,40
1,52,94,0
1,55,89,0
1,64,90,0
1,59,92,0
1,60,86,48
1,57,90,0
1,65,92,0
1,38,94,0
1,50,98,0
1,50,72,100
1,60,90,20
1,57,89,0
1,65,90,0
1,50,70,4
1,57,60,44
1,43,76,40
1,57,64,0
1,65,71,0
1,60,72,0
1,57,98,124
1,60,98,0
1,65,100,0
1,43,104,0
1,48,89,104
1,67,94,0
1,60,100,0
1,64,82,0
1,48,76,104
1,72,84,140
1,84,100,0
1,81,92,144
1,69,83,0
1,67,83,136
1,79,98,0
1,63,102,144
1,75,87,0
1,62,78,144
1,74,96,0
1,72,104,148
1,60,98,0
1,48,102,56
1,48,79,24
1,72,98,48
1,60,79,0
1,67,87,0
1,64,87,0
1,48,54,104
1,67,52,40
1,71,62,0
1,62,58,0
1,43,78,4
1,71,96,136
1,62,92,0
1,43,84,0
1,67,90,0
1,55,68,192
1,60,94,104
1,64,87,0
1,69,80,0
1,53,79,0
1,41,89,0
1,53,67,84
1,64,98,144
1,60,89,0
1,69,94,0
1,53,39,124
1,52,68,72
1,67,54,0
1,62,59,0
1,40,43,0
1,59,54,0
1,59,83,4
1,40,96,0
1,52,83,0
1,67,82,0
1,62,92,0
1,38,98,52
1,50,94,0
1,57,92,0
1,65,94,0
1,60,98,0
1,50,84,24
1,57,82,192
1,60,77,0
1,65,77,0
1,50,72,16
1,40,76,116
1,62,52,0
1,59,44,0
1,67,41,0
1,40,92,128
1,52,98,0
1,62,94,0
1,67,90,0
1,59,98,0
1,50,90,16
1,57,90,0
1,38,100,0
1,65,82,0
1,60,89,0
1,50,73,80
1,60,100,160
1,65,96,0
1,57,100,0
1,50,65,148
1,40,78,60
1,62,61,4
1,59,56,0
1,67,61,0
1,40,86,104
1,52,94,0
1,62,94,0
1,59,94,0
1,67,90,0
1,60,82,24
1,41,83,0
1,53,79,4
1,69,84,0
1,64,84,0
1,69,86,36
1,53,87,172
1,60,98,140
1,64,100,0
1,69,96,0
1,53,57,120
1,40,70,0
1,59,72,0
1,62,63,0
1,67,62,0
1,52,75,0
1,59,51,16
1,59,82,96
1,62,89,0
1,67,83,0
1,52,72,0
1,52,66,96
1,59,58,148
1,67,65,0
1,62,65,0
1,64,79,88
1,60,80,0
1,69,80,0
1,53,80,4
1,41,78,0
1,64,59,108
1,60,52,0
1,69,52,0
1,53,52,40
1,64,51,12
1,60,35,0
1,53,89,60
1,69,79,0
1,60,68,0
1,64,87,0
1,64,63,20
1,67,69,0
1,52,72,0
1,57,78,0
1,61,76,0
1,73,87,300
1,64,91,0
1,52,77,4
1,71,94,0
1,62,89,0
1,69,79,48
1,52,77,0
1,61,89,0
1,52,60,92
1,50,76,48
1,65,65,0
1,69,63,0
1,62,65,0
1,60,63,0
1,69,62,52
1,60,65,0
1,62,84,0
1,65,75,0
1,60,32,0
1,62,54,36
1,50,80,80
1,62,78,0
1,69,71,0
1,60,76,0
1,65,80,0
1,60,49,76
1,67,68,20
1,62,75,0
1,59,62,0
1,43,79,0
1,55,52,12
1,76,82,156
1,67,84,0
1,55,77,0
1,43,67,0
1,66,87,44
1,75,96,0
1,55,98,0
1,43,86,0
1,55,100,64
1,74,104,0
1,65,94,0
1,55,44,16
1,72,71,32
1,64,68,0
1,48,71,120
1,72,80,72
1,64,89,0
1,67,79,0
1,43,69,56
1,69,56,0
1,65,60,0
1,60,40,0
1,65,83,112
1,43,72,0
1,69,75,0
1,55,94,0
1,60,83,0
1,48,84,68
1,60,96,0
1,64,104,0
1,67,84,0
1,48,64,52
1,60,65,0
1,67,48,76
1,64,52,0
1,64,80,60
1,67,75,0
1,61,93,0
1,57,96,0
1,45,78,4
1,52,83,0
1,52,80,108
1,57,62,8
1,57,87,120
1,61,81,0
1,64,80,0
1,67,66,0
1,52,58,0
1,52,87,48
1,64,66,0
1,59,65,0
1,67,59,0
1,62,68,0
1,64,82,116
1,62,89,0
1,67,82,0
1,59,83,0
1,59,61,16
1,62,77,20
1,59,35,0
1,62,83,60
1,52,96,0
1,59,77,0
1,67,78,0
1,64,79,0
1,59,53,112
1,61,83,112
1,57,84,0
1,64,78,4
1,67,65,0
1,52,92,0
1,45,86,0
1,57,68,116
1,64,52,24
1,61,83,0
1,57,86,0
1,67,72,0
1,52,57,64
1,64,62,32
1,61,65,0
1,67,65,0
1,57,66,0
1,38,70,88
1,62,52,0
1,65,43,0
1,57,36,4
1,57,90,132
1,62,90,0
1,38,78,0
1,65,83,0
1,50,92,0
1,65,57,68
1,62,67,0
1,57,55,0
1,50,83,0
1,64,62,60
1,67,56,0
1,59,53,0
1,52,77,0
1,40,75,4
1,64,92,136
1,67,83,0
1,52,100,0
1,59,96,0
1,40,100,0
1,52,75,56
1,67,50,0
1,59,60,0
1,64,60,0
1,53,89,56
1,41,86,0
1,60,65,0
1,69,75,0
1,64,75,0
1,41,92,128
1,53,106,0
1,64,102,0
1,60,104,0
1,69,100,0
1,53,87,44
1,64,54,0
1,69,52,0
1,60,51,4
1,66,76,40
1,60,58,0
1,54,77,0
1,69,60,0
1,42,79,4
1,54,105,148
1,66,96,0
1,42,102,0
1,69,87,0
1,60,90,0
1,54,53,92
1,42,59,0
1,66,53,0
1,60,43,4
1,69,51,4
1,55,73,36
1,43,60,0
1,65,62,0
1,60,53,0
1,69,56,8
1,65,52,84
1,60,36,0
1,69,45,0
1,43,59,4
1,55,69,4
1,69,56,124
1,60,54,0
1,65,53,0
1,55,90,4
1,43,77,0
1,65,57,124
1,55,82,0
1,69,53,0
1,43,76,0
1,60,49,0
1,65,77,132
1,69,72,0
1,60,76,0
1,55,90,0
1,43,78,0
1,65,80,136
1,60,90,0
1,69,79,0
1,55,98,0
1,43,89,0
1,65,80,136
1,69,79,0
1,60,73,4
1,55,94,0
1,43,83,0
1,69,82,140
1,65,76,0
1,60,78,4
1,55,92,0
1,43,86,0
1,67,95,140
1,65,84,0
1,59,84,0
1,55,84,0
1,43,84,0
1,55,79,20
1,59,67,0
1,67,65,0
1,43,79,0
1,65,58,0
1,67,83,52
1,65,79,0
1,59,100,0
1,55,92,0
1,43,90,0
1,55,104,132
1,43,90,0
1,67,109,160
1,79,109,4
1,81,109,68
1,69,109,0
1,79,109,52
1,67,109,4
1,75,109,72
1,63,109,0
1,62,107,84
1,74,107,0
1,48,96,92
1,64,106,0
1,67,98,0
1,72,106,0
1,64,106,148
1,67,98,0
1,72,106,0
1,48,62,156
1,64,68,0
1,62,68,36
1,67,63,0
1,71,58,0
1,43,82,0
1,62,102,140
1,71,104,0
1,67,98,0
1,55,67,188
1,69,86,92
1,60,96,0
1,64,102,0
1,41,94,0
1,53,102,64
1,64,102,144
1,60,104,0
1,69,98,0
1,64,58,72
1,67,57,0
1,40,69,0
1,59,50,0
1,40,92,84
1,59,109,0
1,52,96,0
1,67,98,0
1,64,112,0
1,65,79,12
1,57,92,0
1,62,90,0
1,38,86,4
1,50,90,0
1,50,87,96
1,57,98,108
1,62,104,0
1,65,92,0
1,50,69,32
1,57,62,16
1,43,76,28
1,57,71,8
1,60,92,0
1,65,73,0
1,43,82,84
1,60,114,0
1,65,106,0
1,57,112,0
1,60,109,40
1,67,100,0
1,64,104,4
1,48,94,0
1,48,78,92
1,79,100,152
1,67,98,0
1,81,109,116
1,69,96,0
1,79,106,12
1,67,100,0
1,63,111,116
1,75,99,0
1,74,92,116
1,62,83,0
1,72,112,132
1,60,106,0
1,48,104,120
1,55,76,196
1,60,102,88
1,72,109,4
1,67,96,0
1,64,102,0
1,55,68,0
1,60,62,4
1,67,106,228
1,62,106,0
1,71,112,0
1,55,94,4
1,53,102,0
1,69,94,0
1,64,100,0
1,60,106,0
1,53,96,56
1,64,102,112
1,60,100,0
1,69,96,0
1,53,78,36
1,52,92,36
1,67,72,0
1,62,72,0
1,64,64,4
1,59,59,0
1,52,96,112
1,62,102,4
1,59,98,0
1,67,92,0
1,57,106,16
1,60,106,0
1,65,94,4
1,50,109,0
1,50,106,64
1,57,100,92
1,65,98,0
1,60,114,0
1,50,71,0
1,62,82,36
1,59,70,0
1,67,72,0
1,52,83,0
1,62,104,112
1,59,96,0
1,67,98,4
1,52,86,0
1,65,80,32
1,60,96,0
1,57,98,0
1,50,87,0
1,50,98,80
1,60,112,136
1,57,106,0
1,65,100,0
1,50,71,40
1,52,96,44
1,67,84,0
1,62,90,4
1,59,77,0
1,52,100,116
1,62,104,0
1,59,102,0
1,67,100,0
1,53,59,40
1,60,61,16
1,65,66,16
1,69,67,16
1,72,70,20
1,76,70,12
1,52,30,180
1,59,44,16
1,64,54,16
1,67,63,16
1,71,66,20
1,74,70,4
1,53,36,196
1,60,47,16
1,65,61,16
1,69,71,12
1,72,72,20
1,76,90,12
1,52,45,252
1,59,52,16
1,64,58,16
1,67,63,16
1,71,66,20
1,74,70,16
1,64,86,132
1,72,84,0
1,53,78,0
1,69,80,0
1,57,82,0
1,64,72,12
1,73,68,28
1,69,68,0
1,67,67,4
1,61,67,4
1,64,67,0
1,55,67,0
1,57,67,0
1,67,57,96
1,73,76,56
1,69,82,0
1,61,63,28
1,57,71,0
1,55,60,0
1,73,91,192
1,69,94,0
1,64,50,0
1,69,62,68
1,65,68,0
1,72,67,0
1,62,70,0
1,57,70,0
1,74,67,0
1,53,71,0
1,60,70,0
1,74,65,44
1,69,75,0
1,72,79,0
1,65,71,0
1,65,60,44
1,62,66,0
1,72,51,116
1,69,41,0
1,65,19,0
1,55,83,4
1,67,65,0
1,62,79,0
1,71,72,0
1,59,62,8
1,76,92,144
1,67,78,0
1,66,105,8
1,75,96,0
1,55,94,0
1,55,78,64
1,74,98,0
1,65,83,4
1,55,72,8
1,60,72,0
1,64,79,0
1,72,69,0
1,67,89,68
1,64,89,0
1,72,100,0
1,69,38,8
1,60,51,4
1,55,56,0
1,65,42,0
1,55,86,128
1,69,92,0
1,65,96,0
1,60,96,0
1,64,84,104
1,60,82,0
1,67,80,0
1,55,90,0
1,55,68,64
1,64,62,36
1,67,58,0
1,61,64,4
1,57,71,4
1,55,66,0
1,69,77,0
1,64,80,0
1,61,56,40
1,57,56,0
1,64,89,148
1,69,83,0
1,59,72,68
1,55,57,4
1,71,63,0
1,67,58,0
1,64,45,0
1,71,73,208
1,64,73,0
1,67,73,4
1,55,73,0
1,59,73,0
1,59,71,12
1,85,89,64
1,76,89,0
1,61,89,0
1,55,89,0
1,84,88,24
1,75,88,0
1,74,85,212
1,83,85,0
1,64,85,0
1,61,83,184
1,55,83,0
1,64,83,0
1,81,83,0
1,73,83,0
1,60,56,8
1,65,51,0
1,38,71,4
1,57,45,0
1,57,100,96
1,38,102,0
1,60,104,0
1,65,100,0
1,57,92,164
1,50,90,0
1,62,66,32
1,67,65,0
1,40,96,0
1,59,62,0
1,59,112,116
1,62,119,0
1,67,104,0
1,52,104,0
1,59,80,0
1,52,89,0
1,41,98,116
1,64,73,0
1,60,58,0
1,69,60,0
1,64,119,148
1,69,102,0
1,60,117,0
1,53,112,4
1,53,78,16
1,60,77,0
1,63,71,32
1,66,59,0
1,60,67,0
1,42,76,4
1,54,85,0
1,66,102,136
1,60,104,0
1,63,111,0
1,69,98,0
1,54,119,4
1,42,111,0
1,60,50,124
1,54,77,0
1,43,58,76
1,55,61,0
1,65,39,0
1,60,29,0
1,65,59,64
1,43,51,0
