track,note,velocity,time
1,59,93,1136
1,64,93,0
1,66,93,0
1,58,91,12
1,63,91,0
1,66,91,0
1,62,93,20
1,66,93,0
1,57,93,0
1,58,91,0
1,66,91,0
1,63,91,0
1,64,92,28
1,59,92,0
1,66,92,0
1,63,84,12
1,58,84,4
1,66,84,0
1,66,80,60
1,57,80,0
1,62,80,0
1,58,77,4
1,63,77,0
1,66,77,0
1,58,75,16
1,62,81,0
1,64,80,0
1,52,73,0
1,42,81,0
1,63,97,28
1,61,97,0
1,66,97,0
1,57,97,0
1,35,97,0
1,47,97,0
1,42,81,1152
1,54,93,0
1,59,91,0
1,64,88,0
1,63,78,8
1,58,78,0
1,52,78,0
1,47,81,0
1,54,67,0
1,57,90,0
1,61,97,0
1,63,104,0
1,56,89,1160
1,61,84,0
1,50,80,0
1,40,73,0
1,59,95,4
1,62,94,0
1,56,87,0
1,41,73,0
1,42,89,24
1,63,85,0
1,54,89,0
1,59,92,0
1,61,73,0
1,59,80,0
1,40,83,0
1,55,78,0
1,64,84,0
1,39,84,0
1,63,85,4
1,66,76,0
1,61,94,0
1,58,94,4
1,49,87,0
1,59,80,0
1,64,91,0
1,37,89,4
1,50,91,0
1,38,94,0
1,60,88,0
1,65,92,0
1,39,82,8
1,61,85,0
1,51,75,0
1,66,87,0
1,40,82,4
1,66,89,0
1,68,93,0
1,73,82,0
1,62,84,0
1,40,87,4
1,50,90,8
1,54,93,8
1,56,102,28
1,61,107,20
1,61,82,216
1,39,79,0
1,66,85,0
1,55,80,0
1,59,80,0
1,42,67,16
1,66,66,4
1,62,98,0
1,52,66,0
1,58,85,0
1,47,75,0
1,57,75,0
1,61,75,0
1,63,75,0
1,66,75,0
1,64,95,8
1,59,85,0
1,53,87,0
1,58,73,4
1,52,77,0
1,63,79,0
1,61,82,4
1,57,77,0
1,54,84,0
1,63,82,0
1,54,58,392
1,61,73,0
1,56,67,0
1,50,65,0
1,40,73,0
1,56,67,20
1,62,77,0
1,59,78,0
1,53,73,0
1,41,73,4
1,54,84,12
1,42,77,4
1,63,85,0
1,59,86,0
1,57,83,20
1,41,64,0
1,61,89,0
1,63,82,0
1,68,87,0
1,40,76,20
1,50,74,0
1,56,74,0
1,61,75,0
1,62,86,0
1,66,73,0
1,68,77,0
1,63,72,4
1,65,83,0
1,67,88,0
1,70,75,0
1,61,67,80
1,63,79,4
1,68,91,0
1,57,78,0
1,63,75,0
1,65,87,0
1,67,88,0
1,70,56,0
1,53,80,4
1,57,83,0
1,59,71,0
1,64,85,0
1,59,88,4
1,63,91,0
1,66,87,0
1,71,90,0
1,54,77,4
1,56,84,0
1,59,80,0
1,64,92,0
1,52,81,4
1,55,73,0
1,58,75,0
1,60,90,0
1,63,85,0
1,76,73,6148
1,86,79,0
1,81,77,0
1,70,77,0
1,64,79,4
1,67,87,20
1,67,85,56
1,86,88,2496
1,81,92,0
1,76,88,0
1,69,74,32
1,74,75,4
1,64,70,0
1,82,91,340
1,87,87,0
1,77,80,0
1,70,68,4
1,75,64,0
1,65,66,0
1,83,80,308
1,88,80,0
1,76,69,24
1,67,71,0
1,71,73,8
1,79,75,8
1,82,85,296
1,87,84,0
1,77,80,0
1,75,66,12
1,65,66,16
1,70,66,0
1,63,85,3384
1,68,91,0
1,65,94,0
1,59,86,0
1,66,87,64
1,60,79,0
1,69,87,0
1,64,86,0
1,68,84,124
1,63,95,0
1,65,88,0
1,59,85,0
1,61,95,76
1,55,77,0
1,66,85,0
1,54,71,28
1,60,85,0
1,65,85,0
1,59,95,56
1,63,91,0
1,53,81,4
1,64,91,72
1,61,91,0
1,59,85,0
1,55,90,0
1,63,77,56
1,54,63,0
1,60,90,0
1,58,63,4
1,63,89,64
1,59,80,0
1,53,86,0
1,58,85,60
1,63,81,4
1,52,83,0
1,61,89,60
1,64,84,0
1,56,91,0
1,50,80,0
1,54,87,64
1,59,81,8
1,62,87,0
1,48,80,0
1,66,82,6208
1,61,91,0
1,64,87,0
1,54,91,0
1,59,81,0
1,64,80,0
1,58,72,0
1,61,84,0
1,66,78,0
1,55,81,0
1,66,75,8
1,61,85,0
1,64,85,0
1,59,87,0
1,54,70,0
1,58,79,8
1,60,83,4
1,65,86,0
1,54,77,0
1,59,74,4
1,64,86,0
1,53,79,0
1,58,79,20
1,66,89,0
1,52,76,0
1,62,92,0
1,62,83,0
1,67,86,0
1,51,93,0
1,57,80,0
1,56,79,4
1,68,84,0
1,64,92,0
1,60,84,0
1,50,79,0
1,58,81,6412
1,64,92,0
1,62,97,0
1,67,92,0
1,63,99,276
1,59,87,0
1,67,104,0
1,53,79,0
1,62,97,1744
1,58,95,0
1,64,94,0
1,67,102,0
1,63,95,284
1,59,81,0
1,53,83,0
1,67,80,0
1,55,91,32192
1,60,94,0
1,64,92,0
1,53,92,0
2,46,90,3396
2,47,99,24
2,45,82,32
2,40,101,12
2,35,93,8
2,30,112,0
2,30,96,16
2,35,91,76
2,30,77,1156
2,35,93,16
2,28,109,1160
2,29,105,32
2,30,117,20
2,28,116,20
2,27,112,36
2,25,115,20
2,26,111,16
2,27,118,32
2,28,111,24
2,40,101,0
2,27,109,4
2,30,110,44
2,35,106,36
2,30,100,32
2,35,86,60
2,28,99,332
2,29,99,32
2,30,100,12
2,29,94,112
2,28,99,12
2,32,69,4
2,33,88,8
2,34,102,12
2,39,92,4
2,37,69,40
2,36,78,8
2,35,84,44
2,34,86,16
2,33,74,24
2,32,65,4
2,31,86,44
2,30,126,4
2,42,100,4
2,30,122,4
2,35,121,8
2,42,118,0
2,42,115,4
2,35,86,4
2,36,101,4
2,43,111,4
2,43,111,4
2,36,87,4
2,36,101,4
2,43,111,4
2,43,99,4
2,36,105,4
2,37,100,4
2,43,90,4
2,49,86,4
2,47,74,4
2,46,77,4
2,43,99,4
2,37,106,4
2,43,109,4
2,36,103,8
2,43,107,28
2,43,107,28
2,36,86,96
2,37,96,28
2,44,109,296
2,44,90,60
2,46,78,20
2,44,92,32
2,36,105,8
2,43,109,284
2,43,101,64
2,36,94,8
2,43,103,32
2,37,98,8
2,43,107,192
2,49,100,16
2,43,99,20
2,46,99,12
2,43,101,16
2,47,94,16
2,48,100,28
2,36,94,52
2,43,105,96
2,43,101,48
2,36,96,96
2,37,98,56
2,37,122,20
2,44,109,12
2,44,100,16
2,37,103,88
2,44,100,32
2,36,86,4
2,43,99,92
2,48,86,88
2,53,93,12
2,52,87,0
2,49,94,4
2,56,94,96
2,49,88,4
2,55,87,32
2,53,79,0
2,51,86,16
2,46,100,8
2,44,100,12
2,49,103,24
2,43,107,4
2,48,91,28
2,36,109,24
2,36,93,32
2,43,105,16
2,43,96,36
2,36,103,4
2,43,91,0
2,37,112,4
2,37,118,32
2,44,92,16
2,44,86,24
2,37,93,92
2,44,86,4
2,36,101,0
2,36,101,24
2,43,99,28
2,43,99,12
2,36,94,96
2,43,94,0
2,37,94,0
2,43,97,40
2,46,92,16
2,45,84,20
2,44,77,20
2,43,82,24
2,49,78,24
2,43,87,24
2,36,101,100
2,36,101,20
2,43,99,28
2,43,99,12
2,36,94,96
2,43,94,0
2,37,94,0
2,43,97,40
2,46,92,16
2,45,84,20
2,44,77,20
2,43,82,24
2,49,78,24
2,43,87,24
2,36,113,100
2,41,96,12
2,43,94,12
2,48,91,24
2,39,118,96
2,41,103,28
2,29,103,4
2,42,92,88
2,30,92,4
2,30,92,40
2,42,94,0
2,30,94,0
2,31,91,4
2,32,115,0
2,44,106,20
2,32,92,4
2,32,115,8
2,44,112,32
2,32,92,4
2,37,126,76
2,37,103,44
2,44,122,96
2,37,112,12
2,45,105,84
2,33,113,8
2,37,109,28
2,37,115,112
2,41,105,84
2,39,106,32
2,38,107,64
2,37,112,28
2,44,103,64
2,37,106,24
2,33,113,200
2,44,100,92
2,32,112,12
2,37,115,200
2,42,106,48
2,30,112,48
2,40,121,8
2,40,121,4
2,28,121,4
2,39,121,12
2,27,120,12
2,38,120,16
2,26,120,28
2,26,126,20
2,32,88,212
2,32,106,32
2,44,92,16
2,32,80,92
2,32,106,80
2,32,100,28
2,44,92,200
2,32,103,80
2,32,103,60
2,32,126,20
2,44,94,192
2,32,109,80
2,32,118,20
2,44,118,8
2,32,118,4
2,43,118,4
2,31,118,4
2,42,118,4
2,41,111,4
2,40,113,196
2,39,115,192
2,38,116,132
2,37,115,196
2,44,86,60
2,45,103,40
2,33,103,8
2,45,113,48
2,43,82,56
2,38,113,8
2,45,107,4
2,50,102,20
2,45,84,120
2,52,97,80
2,53,114,32
2,50,89,32
2,52,111,8
2,50,104,32
2,47,97,4
2,50,109,8
2,42,106,72
2,41,105,44
2,40,109,48
2,34,115,48
2,45,107,132
2,33,113,16
2,44,112,0
2,32,122,384
2,43,116,52
2,31,105,384
2,42,109,24
2,34,84,28
2,35,116,36
2,40,118,48
2,42,103,32
2,43,101,28
2,44,118,20
2,32,118,52
2,31,111,16
2,38,116,24
2,43,109,12
2,48,99,32
2,48,97,28
2,43,109,8
2,43,107,28
2,36,99,96
2,37,103,32
2,37,118,40
2,44,92,96
2,44,83,44
2,37,109,96
2,36,111,8
2,41,109,548
2,42,100,172
2,43,90,4
2,37,106,4
2,36,105,12
2,43,103,28
2,43,79,60
2,48,81,8
2,37,106,192
2,44,103,16
2,44,86,24
2,37,103,0
2,36,103,0
2,53,119,192
2,54,83,4
2,53,59,96
2,51,83,4
2,53,108,4
2,51,77,12
2,48,97,28
2,55,73,48
2,42,104,40
2,41,80,28
2,37,113,4
2,36,126,12
2,43,105,284
2,36,101,268
2,37,109,156
2,44,100,8
2,37,112,8
2,34,109,4
2,46,98,8
2,34,106,288
2,33,109,0
2,45,103,36
2,33,113,288
2,41,116,192
2,40,99,168
2,39,106,144
2,38,97,76
2,37,98,112
2,36,118,2968
2,33,118,40
2,38,118,52
2,31,120,40
2,35,115,40
2,36,115,8
2,29,119,20
2,38,118,80
2,37,119,68
2,36,120,92
2,33,118,56
2,37,116,52
2,38,116,32
2,31,118,8
2,36,119,44
2,34,116,60
2,32,118,92
2,31,118,64
2,37,118,160
2,34,115,96
2,39,92,192
2,37,118,120
2,38,115,4
2,37,99,192
2,32,119,96
2,37,115,100
2,35,101,28
2,34,126,100
2,46,117,72
2,29,120,40
2,30,118,52
2,31,115,76
2,32,117,48
2,34,118,13188
2,40,69,4
2,41,87,56
2,42,114,24
2,39,118,40
2,37,121,100
2,36,116,140
2,43,119,284
2,36,99,280
2,37,118,44
2,44,112,20
2,37,109,288
2,36,107,80
2,43,91,32
2,48,87,52
2,37,115,88
2,44,100,104
2,49,90,28
2,44,112,20
2,37,98,16
2,36,105,100
2,43,116,60
2,36,90,12
2,37,118,124
2,44,94,32
2,49,90,60
2,36,107,92
2,38,107,36
2,39,112,72
2,46,98,112
2,50,111,140
2,46,96,84
2,41,107,40
2,43,111,68
2,44,94,32
2,46,112,60
2,35,111,88
2,40,107,60
2,31,109,52
2,33,126,80
2,32,115,40
2,39,103,56
2,32,106,0
2,37,100,44
2,44,106,40
2,37,100,16
2,36,109,84
2,43,126,20
2,36,109,296
2,41,121,168
2,37,106,40
2,37,109,84
2,33,116,112
2,40,111,280
2,33,105,8
2,38,109,4
2,45,99,20
2,38,97,0
2,37,109,0
2,37,103,28
2,44,109,0
2,37,92,16
2,42,98,40
2,37,115,40
2,34,112,120
2,32,100,68
2,30,118,52
2,29,109,84
2,36,105,32
2,41,96,0
2,40,78,60
2,39,92,48
2,38,89,4
2,33,101,20
2,33,111,88
2,26,111,64
2,33,116,88
2,37,115,100
2,32,103,100
2,32,103,96
2,25,118,40
2,25,126,128
2,24,119,72
3,56,78,32076
3,51,74,0
3,51,84,28
3,56,81,4
3,57,80,360
3,52,70,0
3,52,66,20
3,57,70,0
3,57,80,356
3,52,80,0
3,57,62,24
3,58,75,372
3,53,85,0
3,53,70,36
3,58,66,0
3,52,73,364
3,57,80,8
3,52,70,36
3,57,71,8
3,58,67,368
3,53,68,8
3,52,73,332
3,57,80,8
3,52,70,36
3,57,71,8
3,58,67,368
3,53,68,8
3,52,73,332
3,57,80,8
3,52,70,36
3,57,71,8
3,58,67,368
3,53,68,8
3,52,73,332
3,57,80,8
3,52,70,36
3,57,71,8
3,58,67,368
3,53,68,8
3,52,73,332
3,57,80,8
3,52,70,36
3,57,71,8
3,58,67,368
3,53,68,8
3,52,73,332
3,57,80,8
3,52,70,36
3,57,71,8
3,58,67,368
3,53,68,8
3,52,73,332
3,57,80,8
3,52,70,36
3,57,71,8
3,58,67,368
3,53,68,8
3,52,73,332
3,57,80,8
3,52,70,36
3,57,71,8
3,59,109,304
3,54,109,0
3,57,106,20
3,54,106,0
3,54,73,1144
3,60,80,0
3,53,72,192
3,59,66,4
3,61,79,348
3,55,84,0
3,54,71,200
3,60,80,0
3,53,74,200
3,59,64,0
3,54,78,680
3,60,86,0
3,63,80,188
3,53,73,12
3,64,97,584
3,59,85,92
3,55,104,16
3,54,93,92
3,52,85,16
3,59,92,80
3,53,94,24
3,54,73,172
3,60,86,0
3,54,87,660
3,60,91,0
3,60,92,668
3,54,93,0
3,54,91,640
3,60,97,0
3,57,97,516
3,51,101,20
3,50,87,224
3,56,97,12
3,49,91,228
3,55,84,4
3,54,75,96
3,48,79,0
3,47,84,196
3,53,80,24
3,60,90,7864
3,57,91,0
3,60,80,220
3,56,78,0
3,52,103,8
3,59,86,96
3,55,90,12
3,57,87,124
3,60,81,8
3,63,89,56
3,57,83,4
3,62,85,260
3,59,80,0
3,55,94,0
3,54,71,420
3,59,79,8
3,61,77,0
3,60,77,296
3,64,73,4
3,53,75,4
3,64,81,312
3,60,83,4
3,53,80,0
3,64,80,308
3,59,83,24
3,53,80,0
3,43,80,0
3,43,71,2184
3,44,76,40
3,45,86,20
3,46,99,36
3,60,63,1868
3,63,87,136
3,60,64,28
3,57,73,136
3,63,79,8
3,60,52,4
3,62,76,724
3,58,65,0
3,63,74,628
3,59,70,12
3,64,80,624
3,60,84,0
3,56,79,20
3,61,89,680
3,65,91,0
3,55,90,0
3,57,86,500
3,62,80,16
3,56,95,252
3,62,84,24
3,55,85,216
3,62,78,20
3,58,69,4
3,54,76,24
3,60,79,4
3,56,79,208
3,53,79,4
3,55,74,48
3,50,80,20
3,58,79,92
3,53,79,20
3,60,73,84
3,55,84,8
3,57,83,100
3,62,87,4
3,63,91,76
3,58,87,8
3,60,93,116
3,62,95,0
3,63,101,4
3,53,102,0
3,59,102,8
3,65,88,164
3,61,103,0
3,55,103,8
3,65,90,72
3,54,99,0
3,60,91,0
3,64,83,92
3,53,90,0
3,59,80,0
3,52,91,88
3,57,73,0
3,58,95,0
3,62,80,0
3,50,85,40
3,56,104,0
3,60,87,0
3,49,90,4
3,59,71,12
3,55,91,20
3,50,85,12
3,60,80,0
3,56,91,12
3,62,90,12
3,58,81,16
3,52,88,12
3,63,79,36
3,53,87,0
3,59,87,8
3,62,86,56
3,57,65,20
3,58,95,0
3,52,80,8
3,53,81,100
3,57,95,0
3,63,97,0
3,68,97,0
3,53,72,16
3,63,70,0
3,57,80,0
3,68,97,0
3,65,97,176
3,60,99,16
3,70,81,0
3,54,99,0
3,59,95,24
3,63,95,0
3,68,81,12
3,53,84,0
3,58,87,164
3,52,83,12
3,62,90,0
3,67,95,8
3,56,99,0
3,50,80,0
3,60,95,24
3,49,70,80
3,55,80,0
3,59,83,24
3,56,91,76
3,50,84,0
3,60,87,24
3,52,78,8
3,58,91,16
3,62,92,4
3,53,73,16
3,63,87,8
3,59,92,8
3,57,81,12
3,62,86,4
3,58,81,0
3,52,80,16
3,67,92,76
3,60,71,0
3,62,71,16
3,56,95,0
3,65,91,176
3,63,68,4
3,60,81,0
3,54,84,0
3,53,78,12
3,56,93,0
3,59,93,0
3,63,78,0
3,53,97,160
3,63,91,12
3,59,91,4
3,61,89,68
3,51,87,8
3,57,80,4
3,56,82,8
3,60,80,4
3,50,86,4
3,51,81,104
3,57,78,4
3,61,91,0
3,63,97,128
