track,note,velocity,time
0,41,42,653
0,48,42,69
0,53,38,60
0,53,0,43
0,48,0,14
0,41,0,6
0,57,56,6
0,65,49,63
0,65,0,47
0,57,0,7
0,64,47,18
0,57,1,1
0,64,0,7
0,57,0,2
0,38,36,61
0,62,39,6
0,60,36,1
0,60,0,10
0,45,28,48
0,50,34,66
0,53,22,67
0,50,0,9
0,62,0,3
0,57,39,63
0,38,0,1
0,45,0,15
0,57,0,45
0,62,37,4
0,53,0,10
0,43,43,66
0,58,54,1
0,50,36,20
0,53,29,72
0,53,0,18
0,50,0,11
0,43,0,9
0,58,0,30
0,53,38,9
0,58,38,79
0,53,0,15
0,62,0,28
0,58,0,8
0,43,41,9
0,53,31,6
0,53,0,36
0,43,0,5
0,36,43,3
0,58,46,3
0,61,42,0
0,58,0,20
0,52,30,6
0,61,0,83
0,52,0,33
0,48,40,31
0,57,57,2
0,60,54,6
0,36,0,29
0,57,0,22
0,52,44,14
0,52,0,52
0,36,39,14
0,57,49,1
0,60,0,7
0,57,0,2
0,48,0,45
0,36,0,19
0,29,43,3
0,64,51,3
0,60,44,1
0,57,51,0
0,41,39,1
0,57,0,23
0,60,0,21
0,57,53,0
0,29,0,16
0,41,0,7
0,60,46,56
0,41,50,67
0,41,0,21
0,57,0,5
0,53,53,31
0,53,0,17
0,60,0,12
0,64,0,1
0,52,51,40
0,40,35,0
0,40,0,18
0,52,0,6
0,53,46,50
0,50,51,2
0,60,39,0
0,57,48,4
0,38,45,0
0,53,0,54
0,50,0,69
0,57,0,1
0,53,29,10
0,50,44,68
0,57,45,8
0,50,0,2
0,53,0,2
0,38,0,22
0,57,0,42
0,53,29,4
0,60,0,4
0,53,0,29
0,38,36,27
0,38,0,62
0,31,43,4
0,58,50,5
0,53,43,1
0,43,29,3
0,53,0,36
0,58,0,8
0,58,67,43
0,62,49,1
0,53,57,0
0,53,0,9
0,58,0,9
0,62,0,2
0,43,0,14
0,43,37,41
0,31,0,22
0,43,0,5
0,62,42,47
0,65,40,2
0,62,0,7
0,65,0,5
0,43,29,50
0,43,0,48
0,58,50,16
0,61,45,1
0,68,37,0
0,36,22,1
0,48,32,3
0,64,43,3
0,68,0,27
0,58,0,3
0,61,0,65
0,48,54,49
0,48,0,10
0,36,0,21
0,64,0,19
0,69,54,23
0,69,0,27
0,36,40,39
0,36,0,63
0,29,52,9
0,29,0,19
0,57,39,14
0,41,54,66
0,60,45,1
0,57,0,35
0,60,0,23
0,64,62,8
0,48,52,3
0,60,49,68
0,53,49,1
0,53,0,9
0,48,0,6
0,41,0,5
0,60,0,40
0,64,0,2
0,57,43,5
0,46,27,6
0,57,0,4
0,46,0,4
0,45,36,5
0,45,0,52
0,64,40,7
0,57,56,0
0,38,40,2
0,53,39,1
0,60,41,1
0,53,0,38
0,57,0,54
0,60,0,8
0,48,0,1
0,53,34,2
0,50,43,69
0,50,0,11
0,53,0,6
0,38,0,20
0,60,28,29
0,57,34,5
0,57,0,59
0,60,0,7
0,53,39,2
0,58,52,67
0,31,55,1
0,62,38,2
0,64,0,13
0,53,0,18
0,31,0,15
0,43,33,8
0,43,0,9
0,46,55,55
0,50,66,68
0,50,0,22
0,46,0,16
0,58,0,37
0,53,58,2
0,58,54,59
0,43,38,5
0,62,0,6
0,58,0,9
0,60,51,1
0,56,50,0
0,36,40,1
0,43,0,5
0,56,0,11
0,52,37,3
0,56,45,76
0,52,0,31
0,43,47,40
0,52,61,4
0,56,0,3
0,43,0,4
0,36,0,13
0,56,54,41
0,52,0,12
0,60,0,6
0,56,0,2
0,36,47,53
0,36,0,51
0,29,49,7
0,64,57,3
0,60,49,1
0,57,61,0
0,53,49,1
0,53,0,27
0,29,0,15
0,57,0,25
0,53,33,9
0,60,0,1
0,57,55,59
0,53,0,14
0,57,0,39
0,41,54,18
0,60,39,2
0,41,0,20
0,60,0,27
0,53,65,6
0,41,22,6
0,41,0,9
0,53,0,4
0,52,42,50
0,52,0,21
0,50,54,54
0,53,51,0
0,57,57,1
0,60,43,0
0,38,47,1
0,53,0,34
0,50,0,72
0,53,47,7
0,57,0,1
0,50,61,71
0,50,0,19
0,38,0,22
0,57,46,30
0,53,0,14
0,57,0,45
0,38,48,2
0,60,0,12
0,38,0,61
0,31,40,3
0,58,55,1
0,62,42,3
0,43,39,3
0,64,0,6
0,58,0,69
0,53,72,3
0,43,0,13
0,43,65,55
0,31,0,26
0,43,0,3
0,62,0,21
0,58,69,11
0,43,38,60
0,62,52,2
0,58,0,17
0,62,0,23
0,53,0,6
0,43,0,20
0,36,48,8
0,48,54,3
0,56,57,2
0,52,62,61
0,56,0,7
0,48,62,60
0,48,0,15
0,52,0,15
0,36,0,1
0,56,70,33
0,60,62,1
0,60,0,9
0,56,0,6
0,48,0,43
0,36,44,12
0,36,0,60
0,29,56,7
0,41,68,4
0,29,0,25
0,41,0,14
0,64,63,33
0,60,62,1
0,57,66,2
0,41,59,69
0,41,0,33
0,53,61,27
0,41,13,7
0,53,0,14
0,41,0,2
0,57,0,7
0,64,0,9
0,60,0,1
0,52,43,30
0,52,0,29
0,53,49,46
0,62,42,1
0,50,53,2
0,38,46,0
0,57,52,1
0,60,41,0
0,53,0,1
0,50,0,60
0,53,40,1
0,50,55,70
0,53,0,6
0,50,0,11
0,38,0,18
0,53,37,31
0,60,0,64
0,57,0,5
0,31,51,5
0,53,57,22
0,58,56,1
0,43,38,3
0,53,0,27
0,53,46,63
0,58,0,3
0,43,0,0
0,43,34,69
0,58,50,4
0,53,0,9
0,31,0,4
0,43,0,2
0,58,0,46
0,53,38,5
0,58,50,71
0,43,25,1
0,53,0,22
0,58,0,21
0,43,0,27
0,60,49,2
0,36,46,2
0,62,0,8
0,52,61,65
0,48,61,70
0,55,63,6
0,60,0,9
0,36,0,21
0,48,0,1
0,52,0,13
0,58,66,20
0,55,0,15
0,58,0,43
0,60,57,3
0,38,49,1
0,60,0,49
0,38,0,16
0,31,56,7
0,58,75,3
0,53,71,1
0,62,66,1
0,43,43,0
0,53,0,18
0,43,0,48
0,31,0,21
0,53,49,1
0,45,59,72
0,33,37,0
0,53,0,16
0,58,0,25
0,53,38,4
0,33,0,20
0,45,0,23
0,58,45,24
0,62,0,9
0,53,0,20
0,58,0,12
0,46,54,33
0,34,50,0
0,58,50,1
0,62,40,3
0,53,43,0
0,53,0,19
0,46,0,44
0,34,0,16
0,53,47,17
0,35,45,65
0,47,43,0
0,53,0,14
0,47,0,9
0,35,0,1
0,53,44,50
0,53,0,59
0,43,49,5
0,53,0,11
0,58,0,44
0,43,0,1
0,60,42,10
0,55,41,2
0,36,44,1
0,62,0,6
0,53,0,22
0,43,40,20
0,48,43,70
0,43,0,38
0,36,0,8
0,55,0,9
0,38,57,7
0,52,51,4
0,55,42,64
0,52,0,5
0,48,0,62
0,55,0,3
0,52,51,10
0,38,0,55
0,56,51,19
0,39,47,4
0,52,0,8
0,56,0,7
0,52,26,8
0,56,43,67
0,56,0,29
0,52,0,8
0,39,0,3
0,60,0,2
0,57,64,26
0,40,51,3
0,40,0,20
0,57,0,27
0,52,74,18
0,57,73,62
0,52,0,3
0,36,54,1
0,57,0,4
0,36,0,58
0,29,55,8
0,41,53,2
0,64,59,1
0,60,51,0
0,57,46,2
0,57,0,4
0,29,0,37
0,41,0,11
0,60,0,21
0,57,50,10
0,60,35,60
0,41,58,13
0,60,0,20
0,41,0,7
0,57,0,24
0,53,65,6
0,41,32,7
0,41,0,9
0,52,28,52
0,50,13,5
0,40,1,2
0,40,0,10
0,52,0,7
0,50,0,4
0,50,50,47
0,53,48,1
0,38,47,1
0,60,38,1
0,50,0,67
0,53,53,8
0,50,54,72
0,50,0,11
0,38,0,23
0,57,61,33
0,53,0,11
0,57,0,52
0,38,38,1
0,53,48,7
0,60,0,2
0,38,0,61
0,31,48,2
0,58,56,1
0,62,42,5
0,43,34,0
0,64,0,6
0,53,0,9
0,43,0,72
0,53,34,9
0,58,0,12
0,62,0,60
0,43,46,2
0,31,0,16
0,43,0,5
0,53,0,47
0,58,57,6
0,58,0,63
0,53,48,2
0,43,27,7
0,53,0,44
0,43,0,18
0,48,43,3
0,36,34,1
0,56,48,2
0,52,54,73
0,56,0,68
0,48,57,2
0,48,0,17
0,36,0,19
0,52,0,4
0,60,46,26
0,56,51,0
0,60,0,14
0,56,0,2
0,36,44,50
0,48,0,26
0,36,0,32
0,29,51,15
0,41,65,3
0,29,0,27
0,41,0,12
0,57,67,41
0,64,57,0
0,60,52,1
0,41,65,73
0,41,0,26
0,53,50,34
0,55,41,2
0,55,0,9
0,53,0,7
0,57,0,28
0,60,0,7
0,52,51,14
0,40,30,4
0,40,0,12
0,52,0,7
0,57,49,51
0,53,39,1
0,50,49,4
0,60,33,1
0,38,42,1
0,53,0,17
0,53,51,56
0,57,0,1
0,50,0,2
0,50,57,68
0,50,0,19
0,38,0,20
0,57,49,31
0,53,0,11
0,57,0,47
0,60,0,7
0,31,62,0
0,58,62,9
0,53,55,4
0,43,58,3
0,31,0,37
0,53,0,7
0,43,0,11
0,58,0,12
0,58,61,36
0,53,52,2
0,62,42,1
0,53,0,41
0,50,43,29
0,50,0,12
0,58,0,32
0,62,0,47
0,43,43,51
0,64,0,4
0,53,28,5
0,53,0,12
0,43,0,38
0,36,36,14
0,48,44,1
0,56,52,2
0,48,57,155
0,56,0,3
0,48,0,12
0,36,0,12
0,56,52,29
0,56,0,20
0,36,47,51
0,48,0,37
0,36,0,20
0,29,62,17
0,41,62,3
0,29,0,30
0,41,0,6
0,64,47,132
0,57,57,1
0,60,47,0
0,53,60,2
0,41,46,2
0,53,0,22
0,41,0,0
0,57,0,74
0,60,0,4
0,52,66,24
0,40,45,2
0,52,0,7
0,40,0,11
0,50,58,70
0,57,57,1
0,38,47,1
0,53,41,2
0,60,30,1
0,50,0,84
0,57,0,5
0,53,0,21
0,60,0,0
0,50,47,58
0,50,0,20
0,38,0,21
0,53,39,16
0,60,35,0
0,57,48,2
0,31,54,57
0,57,0,4
0,53,0,5
0,60,0,4
0,58,51,1
0,53,46,0
0,62,43,3
0,43,47,2
0,64,0,10
0,43,0,69
0,58,0,62
0,53,0,5
0,62,0,21
0,43,49,22
0,43,0,29
0,31,0,4
0,58,42,28
0,58,0,35
0,43,39,36
0,43,0,53
0,36,47,13
0,52,40,3
0,48,49,0
0,60,38,1
0,55,46,0
0,52,0,44
0,55,0,52
0,52,59,14
0,55,66,73
0,48,62,1
0,60,0,11
0,52,0,0
0,48,0,6
0,36,0,15
0,55,0,3
0,58,69,25
0,58,0,47
0,60,52,15
0,38,47,0
0,60,0,41
0,38,0,12
0,31,60,7
0,58,72,1
0,62,62,3
0,53,58,1
0,53,0,43
0,31,0,82
0,53,44,7
0,62,0,3
0,45,54,1
0,33,47,1
0,53,0,10
0,53,39,43
0,58,0,25
0,33,0,1
0,45,0,16
0,53,0,21
0,43,35,11
0,43,0,49
0,52,38,24
0,55,40,1
0,36,42,3
0,60,37,1
0,52,0,26
0,55,0,48
0,52,43,20
0,48,44,79
0,55,39,4
0,48,0,17
0,52,0,2
0,36,0,23
0,52,54,27
0,55,0,15
0,52,0,17
0,60,0,19
0,36,48,10
0,36,0,53
0,60,50,2
0,29,32,1
0,57,54,1
0,41,53,1
0,53,36,2
0,53,0,24
0,57,0,18
0,53,41,7
0,57,48,72
0,41,0,9
0,53,0,11
0,41,57,51
0,29,0,11
0,41,0,14
0,57,0,34
0,53,44,7
0,53,0,57
0,41,49,0
0,57,50,6
0,48,49,66
0,51,51,66
0,57,0,54
0,51,0,0
0,53,51,15
0,51,72,69
0,41,0,21
0,51,0,1
0,48,0,4
0,53,0,9
0,57,77,30
0,48,0,4
0,60,0,3
0,57,0,40
0,60,68,26
0,60,0,43
0,62,72,1
0,53,73,1
0,58,71,0
0,46,56,5
0,34,60,0
0,53,0,85
0,53,57,45
0,46,0,2
0,46,43,74
0,53,0,6
0,46,0,20
0,58,0,36
0,53,43,5
0,58,41,68
0,53,0,16
0,34,0,1
0,58,0,25
0,46,72,32
0,34,64,1
0,58,67,1
0,53,62,1
0,53,0,13
0,58,0,24
0,53,53,2
0,46,0,18
0,53,0,4
0,53,61,45
0,58,54,0
0,34,0,4
0,46,69,23
0,34,59,2
0,46,0,21
0,34,0,0
0,45,56,39
0,45,0,20
0,43,54,50
0,31,47,2
0,58,0,4
0,33,47,2
0,33,0,7
0,31,0,2
0,43,0,6
0,60,56,56
0,57,67,0
0,53,65,1
0,41,57,3
0,29,59,0
0,62,0,6
0,53,0,55
0,57,0,39
0,41,0,16
0,53,49,2
0,53,0,66
0,41,73,9
0,53,56,58
0,57,54,1
0,41,0,20
0,29,0,7
0,53,0,31
0,40,30,11
0,57,0,6
0,60,0,12
0,40,0,3
0,57,61,3
0,53,54,1
0,60,54,1
0,26,54,1
0,38,47,0
0,57,0,27
0,53,0,17
0,38,0,12
0,38,49,71
0,53,46,0
0,57,51,1
0,53,0,22
0,60,0,4
0,57,0,1
0,26,0,44
0,38,0,24
0,26,59,39
0,26,0,16
0,58,72,63
0,53,62,1
0,62,61,0
0,43,57,1
0,31,44,3
0,43,0,18
0,31,0,1
0,53,0,52
0,62,0,17
0,58,0,4
0,53,24,4
0,53,0,24
0,53,0,47
0,58,72,1
0,62,58,1
0,53,72,1
0,53,0,17
0,62,0,1
0,58,0,8
0,31,61,88
0,53,0,9
0,31,0,9
0,53,0,1
0,60,57,71
0,48,56,0
0,55,61,0
0,52,62,1
0,58,52,3
0,36,40,1
0,58,0,15
0,52,0,14
0,55,0,13
0,60,0,5
0,48,58,82
0,60,62,4
0,56,60,0
0,52,54,3
0,48,0,11
0,36,0,16
0,52,0,4
0,48,0,18
0,56,0,29
0,52,43,3
0,52,0,29
0,60,0,24
0,36,46,4
0,36,0,51
0,52,57,10
0,60,51,1
0,57,55,1
0,41,57,4
0,29,45,0
0,52,0,92
0,60,0,21
0,57,0,7
0,52,46,14
0,41,0,9
0,52,0,16
0,60,49,53
0,41,42,0
0,57,57,1
0,52,54,1
0,41,0,30
0,52,0,3
0,52,48,30
0,57,0,12
0,52,0,53
0,60,0,3
0,41,46,6
0,29,0,34
0,60,59,37
0,51,61,1
0,57,64,1
0,29,51,1
0,51,0,52
0,41,0,42
0,57,0,10
0,51,57,0
0,41,70,66
0,29,0,23
0,41,0,8
0,51,0,33
0,43,68,0
0,31,71,2
0,31,0,15
0,43,0,2
0,45,67,46
0,45,0,17
0,60,0,37
0,62,72,11
0,58,76,1
0,46,77,0
0,53,70,1
0,34,72,2
0,53,54,135
0,46,0,1
0,46,64,50
0,46,0,43
0,53,47,19
0,34,0,7
0,34,52,57
0,62,0,10
0,58,0,0
0,34,0,10
0,58,67,51
0,53,63,1
0,62,60,0
0,34,59,0
0,46,68,1
0,58,0,27
0,53,0,13
0,34,0,38
0,46,0,2
0,53,62,27
0,58,54,1
0,46,66,57
0,34,55,3
0,46,0,8
0,34,0,2
0,45,54,41
0,33,57,0
0,58,0,1
0,53,0,5
0,45,0,13
0,33,0,1
0,41,57,62
0,57,57,1
0,29,57,0
0,60,41,2
0,53,51,0
0,62,0,1
0,53,0,37
0,57,0,42
0,60,0,19
0,53,54,6
0,41,0,3
0,53,0,45
0,41,58,22
0,53,53,5
0,57,62,1
0,60,47,1
0,53,0,9
0,60,0,9
0,57,0,1
0,41,0,44
0,29,0,14
0,33,50,63
0,33,0,28
0,60,62,1
0,57,65,1
0,53,58,0
0,26,65,0
0,38,61,1
0,53,0,41
0,57,0,14
0,38,0,31
0,53,63,74
0,57,64,0
0,38,64,1
0,53,0,19
0,38,0,1
0,60,0,5
0,57,0,2
0,38,57,36
0,26,0,5
0,38,0,12
0,42,73,54
0,30,65,3
0,30,0,9
0,58,36,0
0,58,0,10
0,53,78,3
0,62,73,0
0,59,72,1
0,31,68,1
0,43,63,1
0,53,0,69
0,42,0,5
0,59,0,43
0,53,53,0
0,43,0,6
