track,note,velocity,time
1,55,102,1136
1,55,88,4
1,55,83,4
1,55,97,4
1,55,70,4
1,55,88,4
1,55,85,4
1,55,83,4
1,55,97,4
1,55,87,0
1,55,91,4
1,55,94,4
1,52,68,0
1,53,71,0
1,53,87,4
1,53,87,12
1,53,87,8
1,53,93,4
1,53,85,8
1,53,97,0
1,51,94,4
1,51,73,4
1,51,78,0
1,51,87,4
1,51,85,4
1,50,87,8
1,50,83,4
1,50,96,4
1,50,93,8
1,50,84,4
1,50,88,0
1,51,87,4
1,46,59,4
1,55,102,0
1,55,88,4
1,55,83,4
1,55,97,4
1,55,70,4
1,55,88,4
1,55,85,4
1,55,83,4
1,55,97,4
1,55,87,0
1,55,91,4
1,55,94,4
1,52,68,0
1,53,71,0
1,53,87,4
1,53,87,12
1,53,87,8
1,53,93,4
1,53,85,8
1,53,97,0
1,51,94,4
1,51,73,4
1,51,78,0
1,51,87,4
1,51,85,4
1,50,87,8
1,50,83,4
1,50,96,4
1,50,93,8
1,50,84,4
1,50,88,0
1,51,87,4
1,46,59,4
1,55,102,0
1,55,88,4
1,55,83,4
1,55,97,4
1,55,70,4
1,55,88,4
1,55,85,4
1,55,83,4
1,55,97,4
1,55,87,0
1,55,91,4
1,55,94,4
1,52,68,0
1,53,71,0
1,53,87,4
1,53,87,12
1,53,87,8
1,53,93,4
1,53,85,8
1,53,97,0
1,51,94,4
1,51,73,4
1,51,78,0
1,51,87,4
1,51,85,4
1,50,87,8
1,50,83,4
1,50,96,4
1,50,93,8
1,50,84,4
1,50,88,0
1,51,87,4
1,46,59,4
1,55,102,0
1,55,88,4
1,55,83,4
1,55,97,4
1,55,70,4
1,55,88,4
1,55,85,4
1,55,83,4
1,55,97,4
1,55,87,0
1,55,91,4
1,55,94,4
1,52,68,0
1,53,71,0
1,53,87,4
1,53,87,12
1,53,87,8
1,53,93,4
1,53,85,8
1,53,97,0
1,51,94,4
1,51,73,4
1,51,78,0
1,51,87,4
1,51,85,4
1,50,87,8
1,50,83,4
1,50,96,4
1,50,93,8
1,50,84,4
1,50,88,0
1,51,87,4
1,46,59,4
1,55,102,0
1,55,88,4
1,55,83,4
1,55,97,4
1,55,70,4
1,55,88,4
1,55,85,4
1,55,83,4
1,55,97,4
1,55,87,0
1,55,91,4
1,55,94,4
1,52,68,0
1,53,71,0
1,53,87,4
1,53,87,12
1,53,87,8
1,53,93,4
1,53,85,8
1,53,97,0
1,51,94,4
1,51,73,4
1,51,78,0
1,51,87,4
1,51,85,4
1,50,87,8
1,50,83,4
1,50,96,4
1,50,93,8
1,50,84,4
1,50,88,0
1,51,87,4
1,46,59,4
1,55,102,0
1,55,88,4
1,55,83,4
1,55,97,4
1,55,70,4
1,55,88,4
1,55,85,4
1,55,83,4
1,55,97,4
1,55,87,0
1,55,91,4
1,55,94,4
1,52,68,0
1,53,71,0
1,53,87,4
1,53,87,12
1,53,87,8
1,53,93,4
1,53,85,8
1,53,97,0
1,51,94,4
1,51,73,4
1,51,78,0
1,51,87,4
1,51,85,4
1,50,87,8
1,50,83,4
1,50,96,4
1,50,93,8
1,50,84,4
1,50,88,0
1,51,87,4
1,46,59,4
1,55,102,0
1,55,88,4
1,55,83,4
1,55,97,4
1,55,70,4
1,55,88,4
1,55,85,4
1,55,83,4
1,55,97,4
1,55,87,0
1,55,91,4
1,55,94,4
1,52,68,0
1,53,71,0
1,53,87,4
1,53,87,12
1,53,87,8
1,53,93,4
1,53,85,8
1,53,97,0
1,51,94,4
1,51,73,4
1,51,78,0
1,51,87,4
1,51,85,4
1,50,87,8
1,50,83,4
1,50,96,4
1,50,93,8
1,50,84,4
1,50,88,0
1,51,87,4
1,46,59,4
1,55,102,0
1,55,88,4
1,55,83,4
1,55,97,4
1,55,70,4
1,55,88,4
1,55,85,4
1,55,83,4
1,55,97,4
1,55,87,0
1,55,91,4
1,55,94,4
1,52,68,0
1,53,71,0
1,53,87,4
1,53,87,12
1,53,87,8
1,53,93,4
1,53,85,8
1,53,97,0
1,51,94,4
1,51,73,4
1,51,78,0
1,51,87,4
1,51,85,4
1,50,87,8
1,50,83,4
1,50,96,4
1,50,93,8
1,50,84,4
1,50,88,0
1,51,87,4
1,46,59,4
1,48,105,188
1,50,105,4
1,48,107,4
1,51,115,0
1,48,113,184
1,50,105,16
1,48,93,4
1,50,111,0
1,48,116,4
1,50,117,188
1,50,110,8
1,48,101,4
1,51,108,0
1,50,111,196
1,50,111,4
1,48,111,0
1,50,109,20
1,48,105,12
1,50,106,4
1,48,80,28
1,51,115,4
1,48,103,8
1,50,103,8
1,48,98,0
1,46,95,28
1,46,104,0
1,48,109,0
1,50,107,0
1,48,87,0
1,50,101,4
1,50,83,12
1,51,109,0
1,50,115,4
1,48,89,0
1,50,100,24
1,55,102,112
1,55,88,4
1,55,83,4
1,55,97,4
1,55,70,4
1,55,88,4
1,55,85,4
1,55,83,4
1,55,97,4
1,55,87,0
1,55,91,4
1,55,94,4
1,52,68,0
1,53,71,0
1,53,87,4
1,53,87,12
1,53,87,8
1,53,93,4
1,53,85,8
1,53,97,0
1,51,94,4
1,51,73,4
1,51,78,0
1,51,87,4
1,51,85,4
1,50,87,8
1,50,83,4
1,50,96,4
1,50,93,8
1,50,84,4
1,50,88,0
1,51,87,4
1,46,59,4
1,55,102,0
1,55,88,4
1,55,83,4
1,55,97,4
1,55,70,4
1,55,88,4
1,55,85,4
1,55,83,4
1,55,97,4
1,55,87,0
1,55,91,4
1,55,94,4
1,52,68,0
1,53,71,0
1,53,87,4
1,53,87,12
1,53,87,8
1,53,93,4
1,53,85,8
1,53,97,0
1,51,94,4
1,51,73,4
1,51,78,0
1,51,87,4
1,51,85,4
1,50,87,8
1,50,83,4
1,50,96,4
1,50,93,8
1,50,84,4
1,50,88,0
1,51,87,4
1,46,59,4
1,48,100,4
1,55,102,1556
1,55,88,4
1,55,83,4
1,55,97,4
1,55,70,4
1,55,88,4
1,55,85,4
1,55,83,4
1,55,97,4
1,55,87,0
1,55,91,4
1,55,94,4
1,52,68,0
1,53,71,0
1,53,87,4
1,53,87,12
1,53,87,8
1,53,93,4
1,53,85,8
1,53,97,0
1,51,94,4
1,51,73,4
1,51,78,0
1,51,87,4
1,51,85,4
1,50,87,8
1,50,83,4
1,50,96,4
1,50,93,8
1,50,84,4
1,50,88,0
1,51,87,4
1,46,59,4
1,55,102,0
1,55,88,4
1,55,83,4
1,55,97,4
1,55,70,4
1,55,88,4
1,55,85,4
1,55,83,4
1,55,97,4
1,55,87,0
1,55,91,4
1,55,94,4
1,52,68,0
1,53,71,0
1,53,87,4
1,53,87,12
1,53,87,8
1,53,93,4
1,53,85,8
1,53,97,0
1,51,94,4
1,51,73,4
1,51,78,0
1,51,87,4
1,51,85,4
1,50,87,8
1,50,83,4
1,50,96,4
1,50,93,8
1,50,84,4
1,50,88,0
1,51,87,4
1,46,59,4
1,55,102,0
1,55,88,4
1,55,83,4
1,55,97,4
1,55,70,4
1,55,88,4
1,55,85,4
1,55,83,4
1,55,97,4
1,55,87,0
1,55,91,4
1,55,94,4
1,52,68,0
1,53,71,0
1,53,87,4
1,53,87,12
1,53,87,8
1,53,93,4
1,53,85,8
1,53,97,0
1,51,94,4
1,51,73,4
1,51,78,0
1,51,87,4
1,51,85,4
1,50,87,8
1,50,83,4
1,50,96,4
1,50,93,8
1,50,84,4
1,50,88,0
1,51,87,4
1,46,59,4
1,55,102,0
1,55,88,4
1,55,83,4
1,55,97,4
1,55,70,4
1,55,88,4
1,55,85,4
1,55,83,4
1,55,97,4
1,55,87,0
1,55,91,4
1,55,94,4
1,52,68,0
1,53,71,0
1,53,87,4
1,53,87,12
1,53,87,8
1,53,93,4
1,53,85,8
1,53,97,0
1,51,94,4
1,51,73,4
1,51,78,0
1,51,87,4
1,51,85,4
1,50,87,8
1,50,83,4
1,50,96,4
1,50,93,8
1,50,84,4
1,50,88,0
1,51,87,4
1,46,59,4
1,48,105,188
1,50,105,4
1,48,107,4
1,51,115,0
1,48,113,184
1,50,105,16
1,48,93,4
1,50,111,0
1,48,112,4
1,50,111,188
1,50,111,8
1,48,104,4
1,51,104,0
1,50,108,196
1,50,109,4
1,48,106,0
1,50,109,20
1,48,105,12
1,50,106,4
1,48,80,28
1,51,115,4
1,48,103,8
1,50,103,8
1,48,98,0
1,46,95,28
1,46,104,0
1,48,109,0
1,50,107,0
1,48,87,0
1,50,101,4
1,50,83,12
1,51,109,0
1,50,115,4
1,48,89,0
1,50,100,24
1,55,102,112
1,55,88,4
1,55,83,4
1,55,97,4
1,55,70,4
1,55,88,4
1,55,85,4
1,55,83,4
1,55,97,4
1,55,87,0
1,55,91,4
1,55,94,4
1,52,68,0
1,53,71,0
1,53,87,4
1,53,87,12
1,53,87,8
1,53,93,4
1,53,85,8
1,53,97,0
1,51,94,4
1,51,73,4
1,51,78,0
1,51,87,4
1,51,85,4
1,50,87,8
1,50,83,4
1,50,96,4
1,50,93,8
1,50,84,4
1,50,88,0
1,51,87,4
1,46,59,4
1,55,102,0
1,55,88,4
1,55,83,4
1,55,97,4
1,55,70,4
1,55,88,4
1,55,85,4
1,55,83,4
1,55,97,4
1,55,87,0
1,55,91,4
1,55,94,4
1,52,68,0
1,53,71,0
1,53,87,4
1,53,87,12
1,53,87,8
1,53,93,4
1,53,85,8
1,53,97,0
1,51,94,4
1,51,73,4
1,51,78,0
1,51,87,4
1,51,85,4
1,50,87,8
1,50,83,4
1,50,96,4
1,50,93,8
1,50,84,4
1,50,88,0
1,51,87,4
1,46,59,4
1,55,102,0
1,55,88,4
1,55,83,4
1,55,97,4
1,55,70,4
1,55,88,4
1,55,85,4
1,55,83,4
1,55,97,4
1,55,87,0
1,55,91,4
1,55,94,4
1,52,68,0
1,53,71,0
1,53,87,4
1,53,87,12
1,53,87,8
1,53,93,4
1,53,85,8
1,53,97,0
1,51,94,4
1,51,73,4
1,51,78,0
1,51,87,4
1,51,85,4
1,50,87,8
1,50,83,4
1,50,96,4
1,50,93,8
1,50,84,4
1,50,88,0
1,51,87,4
1,46,59,4
1,55,102,0
1,55,88,4
1,55,83,4
1,55,97,4
1,55,70,4
1,55,88,4
1,55,85,4
1,55,83,4
1,55,97,4
1,55,87,0
1,55,91,4
1,55,94,4
1,52,68,0
1,53,71,0
1,53,87,4
1,53,87,12
1,53,87,8
1,53,93,4
1,53,85,8
1,53,97,0
1,51,94,4
1,51,73,4
1,51,78,0
1,51,87,4
1,51,85,4
1,50,87,8
1,50,83,4
1,50,96,4
1,50,93,8
1,50,84,4
1,50,88,0
1,51,87,4
1,46,59,4
1,55,102,0
1,55,88,4
1,55,83,4
1,55,97,4
1,55,70,4
1,55,88,4
1,55,85,4
1,55,83,4
1,55,97,4
1,55,87,0
1,55,91,4
1,55,94,4
1,52,68,0
1,53,71,0
1,53,87,4
1,53,87,12
1,53,87,8
1,53,93,4
1,53,85,8
1,53,97,0
1,51,94,4
1,51,73,4
1,51,78,0
1,51,87,4
1,51,85,4
1,50,87,8
1,50,83,4
1,50,96,4
1,50,93,8
1,50,84,4
1,50,88,0
1,51,87,4
1,46,59,4
1,55,102,0
1,55,88,4
1,55,83,4
1,55,97,4
1,55,70,4
1,55,88,4
1,55,85,4
1,55,83,4
1,55,97,4
1,55,87,0
1,55,91,4
1,55,94,4
1,52,68,0
1,53,71,0
1,53,87,4
1,53,87,12
1,53,87,8
1,53,93,4
1,53,85,8
1,53,97,0
1,51,94,4
1,51,73,4
1,51,78,0
1,51,87,4
1,51,85,4
1,50,87,8
1,50,83,4
1,50,96,4
1,50,93,8
1,50,84,4
1,50,88,0
1,51,87,4
1,46,59,4
1,55,102,0
2,36,124,7260
2,39,115,40
2,36,124,48
2,34,111,4
2,34,124,12
2,36,109,52
2,36,117,52
2,36,116,56
2,36,117,12
2,38,124,0
2,27,124,12
2,27,121,96
2,39,124,0
2,27,121,84
2,27,124,100
2,27,123,56
2,39,106,0
2,41,104,0
2,43,101,0
2,32,124,84
2,32,124,92
2,32,124,24
2,32,124,84
2,32,124,84
2,32,124,12
2,32,124,124
2,32,124,48
2,34,124,92
2,34,124,92
2,34,124,12
2,32,124,84
2,34,124,100
2,34,123,12
2,34,124,88
2,31,117,8
2,34,124,92
2,36,110,88
2,39,124,40
2,36,108,92
2,34,115,4
2,34,124,24
2,36,117,44
2,36,124,24
2,36,124,148
2,36,119,32
2,34,124,48
2,34,117,88
2,34,124,28
2,31,119,12
2,34,124,100
2,34,124,24
2,34,124,204
2,33,119,8
2,32,124,8
2,32,119,196
2,32,121,24
2,32,124,84
2,32,124,96
2,32,123,20
2,32,124,156
2,33,116,20
2,34,123,48
2,34,113,192
2,34,124,20
2,31,112,80
2,34,123,100
2,34,124,20
2,31,124,12
2,34,124,0
2,34,124,20
2,35,124,20
2,36,124,8
2,39,115,40
2,36,124,48
2,34,111,4
2,34,124,12
2,36,109,52
2,36,117,52
2,36,116,56
2,36,117,12
2,38,124,0
2,27,124,12
2,27,121,96
2,39,124,0
2,27,121,84
2,27,124,100
2,27,123,56
2,39,113,0
2,41,108,0
2,43,104,0
2,32,124,88
2,32,124,88
2,32,124,8
2,32,124,84
2,32,124,84
2,32,124,12
2,32,124,124
2,32,124,48
2,34,124,96
2,34,124,88
2,34,124,12
2,32,124,84
2,34,124,100
2,34,123,12
2,34,124,88
2,31,117,8
2,34,124,92
2,36,124,88
2,36,124,196
2,36,124,12
2,36,124,80
2,36,124,104
2,36,124,8
2,34,124,388
2,34,124,100
2,34,124,20
2,34,124,84
2,34,124,100
2,34,124,4
2,32,124,468
2,32,119,100
2,32,124,16
2,32,124,88
2,32,124,108
2,32,124,12
2,34,124,392
2,34,124,96
2,34,124,12
2,34,124,84
2,34,124,180
2,31,124,4
2,34,124,52
2,35,124,48
2,36,116,8
2,36,117,136
2,36,124,20
2,36,124,88
2,36,116,100
2,36,124,8
2,34,124,472
2,34,124,96
2,34,124,16
2,34,124,84
2,34,124,180
2,34,124,4
2,32,124,468
2,32,124,100
2,32,124,28
2,32,124,120
2,32,121,100
2,32,124,4
2,34,124,468
2,34,124,104
2,34,124,4
2,34,124,88
2,34,124,180
2,31,122,0
2,34,124,56
2,35,124,48
2,36,124,88
2,36,121,96
2,36,122,4
2,36,124,92
2,36,122,188
2,36,124,8
2,34,124,480
2,34,124,108
2,34,124,8
2,34,124,92
2,34,124,108
2,34,124,8
2,32,124,476
2,32,124,100
2,32,124,4
2,32,124,84
2,32,124,108
2,32,124,8
2,34,124,476
2,34,117,100
2,34,124,20
2,34,124,84
2,34,124,100
2,31,124,0
2,34,124,244
2,36,124,88
2,36,121,96
2,36,122,20
2,36,124,92
2,36,122,188
2,36,124,8
2,34,124,480
2,34,124,108
2,34,124,8
2,34,124,92
2,34,124,108
2,34,124,8
2,32,124,476
2,32,124,100
2,32,124,16
2,32,124,84
2,32,124,108
2,34,124,580
2,34,124,144
2,34,124,4
2,34,124,88
2,34,124,184
2,31,122,8
2,34,124,188
2,34,124,8
2,32,124,48
2,32,119,100
2,32,124,8
2,32,123,84
2,32,124,4
2,32,121,84
2,32,124,12
2,32,124,468
2,32,122,100
2,32,124,8
2,32,119,84
2,32,124,4
2,32,124,84
2,32,124,4
2,32,118,284
2,31,124,88
2,31,120,96
2,31,123,16
2,31,119,84
2,31,123,20
2,31,118,84
2,31,122,16
2,31,121,296
2,31,124,104
2,31,123,100
2,31,124,4
2,31,123,84
2,31,124,4
2,31,119,80
2,31,124,4
2,31,124,280
2,29,124,96
2,29,124,96
2,29,124,8
2,29,124,84
2,29,124,4
2,29,124,84
2,29,124,4
2,29,124,372
2,29,124,4
2,29,124,100
2,29,124,4
2,29,124,88
2,34,124,0
2,34,124,84
2,34,124,12
2,34,124,276
2,31,124,92
2,31,124,144
2,31,124,20
2,31,124,84
2,31,124,16
2,31,124,84
2,31,124,4
2,31,122,188
2,31,124,8
2,34,124,92
2,34,124,104
2,34,124,8
