track,note,velocity,time
1,63,127,13816
1,60,127,224
1,55,127,76
1,58,127,120
1,60,127,28
1,60,127,76
1,55,127,40
1,58,127,100
1,60,127,16
1,60,127,268
1,55,127,252
1,60,127,36
1,58,127,168
1,63,127,72
1,60,127,212
1,55,127,8
1,58,127,104
1,60,127,32
1,60,127,108
1,55,127,16
1,58,127,108
1,60,127,16
1,60,127,52
1,58,127,28
1,60,127,192
1,58,127,28
1,63,127,80
1,60,127,204
1,55,127,28
1,58,127,108
1,60,127,16
1,55,127,256
1,58,127,108
1,60,127,24
1,60,127,112
1,55,127,36
1,58,127,60
1,60,127,16
1,58,127,392
1,63,127,20
1,60,127,260
1,55,127,20
1,58,127,88
1,60,127,16
1,58,127,104
1,55,127,28
1,55,127,92
1,55,127,140
1,55,127,152
1,58,127,40
1,60,127,188
1,63,127,12
1,60,127,192
1,58,127,188
1,60,127,16
1,60,127,72
1,58,127,256
1,63,127,120
1,60,127,24
1,58,127,28
1,60,127,52
1,63,127,804
1,60,127,288
1,55,127,112
1,58,127,116
1,60,127,16
1,60,127,56
1,55,127,60
1,58,127,128
1,60,127,32
1,60,127,280
1,55,127,220
1,58,127,36
1,55,127,8
1,63,127,24
1,60,127,232
1,55,127,24
1,58,127,72
1,60,127,32
1,60,127,108
1,55,127,28
1,58,127,88
1,60,127,24
1,60,127,244
1,55,127,220
1,58,127,184
1,60,127,16
1,63,127,80
1,60,127,244
1,55,127,20
1,58,127,72
1,60,127,24
1,60,127,96
1,55,127,28
1,55,127,108
1,58,127,52
1,58,127,120
1,55,127,36
1,58,127,68
1,60,127,16
1,58,127,8
1,63,127,80
1,60,127,208
1,55,127,20
1,58,127,80
1,60,127,16
1,58,127,36
1,55,127,28
1,55,127,96
1,55,127,140
1,55,127,272
1,58,127,64
1,55,127,24
1,63,127,96
1,60,127,300
1,60,127,104
1,58,127,248
1,60,127,16
1,58,127,4
1,63,127,32
1,60,127,208
1,60,127,44
1,59,127,740
1,59,127,216
1,57,127,236
1,59,127,76
1,59,127,112
1,57,127,192
1,59,127,40
1,59,127,108
1,59,127,116
1,57,127,228
1,59,127,112
1,57,127,88
1,59,127,144
1,59,127,252
1,57,127,228
1,59,127,96
1,59,127,128
1,60,127,80
1,62,127,96
1,60,127,88
1,59,127,96
1,57,127,88
1,59,127,108
1,61,127,296
1,61,127,276
1,59,127,288
1,61,127,16
1,61,127,88
1,61,127,124
1,59,127,472
1,61,127,104
1,61,127,104
1,59,127,152
1,61,127,88
1,61,127,124
1,59,127,132
1,61,127,136
1,61,127,112
1,61,127,160
1,61,127,132
1,59,127,136
1,61,127,104
1,61,127,120
1,55,127,304
1,57,127,64
1,57,127,120
1,59,127,140
1,61,127,56
1,61,127,112
1,62,127,232
1,64,127,92
1,64,127,108
1,65,127,6240
1,62,127,240
1,57,127,36
1,60,127,120
1,62,127,28
1,62,127,116
1,57,127,28
1,60,127,132
1,62,127,120
1,57,127,24
1,60,127,52
1,62,127,32
1,62,127,112
1,60,127,180
1,65,127,20
1,62,127,236
1,62,127,176
1,60,127,28
1,62,127,60
1,62,127,116
1,57,127,32
1,60,127,64
1,62,127,52
1,62,127,120
1,57,127,192
1,60,127,80
1,62,127,24
1,62,127,108
1,60,127,8
1,65,127,20
1,62,127,244
1,60,127,264
1,62,127,16
1,62,127,112
1,57,127,52
1,55,127,0
1,60,127,96
1,62,127,32
1,62,127,112
1,60,127,200
1,62,127,48
1,57,127,24
1,60,127,56
1,65,127,28
1,62,127,236
1,60,127,260
1,62,127,52
1,62,127,108
1,57,127,252
1,57,127,96
1,57,127,148
1,57,127,156
1,60,127,24
1,65,127,116
1,62,127,260
1,60,127,280
1,62,127,40
1,62,127,284
1,65,127,196
1,62,127,276
1,60,127,8
1,62,127,36
1,61,127,15880
1,61,127,292
1,59,127,288
1,61,127,80
1,61,127,128
1,59,127,288
1,61,127,40
1,61,127,104
1,59,127,36
1,61,127,156
1,61,127,480
1,61,127,288
1,59,127,280
1,61,127,16
1,61,127,96
1,64,127,256
1,66,127,80
1,67,127,80
1,66,127,68
1,64,127,88
1,61,127,68
1,59,127,96
1,61,127,36
1,63,127,100
1,63,127,288
1,63,127,140
1,61,127,156
1,63,127,88
1,63,127,124
1,61,127,288
1,63,127,52
1,63,127,124
1,61,127,80
1,63,127,96
1,63,127,112
1,61,127,292
1,63,127,68
1,63,127,148
1,61,127,68
1,61,127,164
1,63,127,76
1,63,127,84
1,61,127,300
1,63,127,80
1,63,127,112
1,57,127,28
1,59,127,28
1,59,127,96
1,61,127,72
1,63,127,64
1,63,127,116
1,64,127,116
1,66,127,96
1,66,127,108
1,67,127,116
1,64,127,272
1,64,127,88
1,62,127,284
1,64,127,64
1,62,127,4
1,67,127,52
1,64,127,300
1,64,127,88
1,67,127,552
1,64,127,268
1,64,127,96
1,62,127,216
1,64,127,24
1,67,127,192
1,64,127,252
1,64,127,96
1,67,127,480
1,64,127,292
1,64,127,112
1,62,127,248
1,64,127,96
1,62,127,16
1,62,127,144
1,64,127,76
1,64,127,300
1,59,127,204
1,62,127,56
1,64,127,52
1,67,127,92
1,64,127,272
1,64,127,108
1,62,127,244
1,64,127,100
1,59,127,68
1,62,127,108
1,64,127,68
1,64,127,248
1,67,127,404
1,64,127,276
1,64,127,92
1,62,127,264
1,64,127,88
1,62,127,20
1,67,127,48
1,64,127,248
1,64,127,96
1,67,127,576
1,64,127,236
1,64,127,80
1,62,127,212
1,64,127,52
1,59,127,16
1,62,127,80
1,64,127,260
1,64,127,80
1,67,127,676
1,64,127,272
1,64,127,96
1,59,127,152
1,62,127,40
1,59,127,8
1,62,127,128
1,64,127,280
1,64,127,96
1,62,127,260
1,64,127,300
2,36,127,1532
2,36,127,116
2,31,127,8
2,31,127,120
2,34,127,188
2,36,127,20
2,36,127,128
2,31,127,4
2,34,127,380
2,39,127,16
2,36,127,0
2,36,127,120
2,31,127,16
2,31,127,116
2,34,127,196
2,35,127,160
2,36,127,12
2,36,127,0
2,46,127,328
2,48,127,16
2,46,127,52
2,48,127,8
2,42,127,96
2,41,127,4
2,39,127,96
2,36,127,12
2,36,127,160
2,31,127,8
2,31,127,120
2,34,127,196
2,36,127,364
2,36,127,128
2,31,127,8
2,34,127,196
2,36,127,172
2,39,127,8
2,36,127,196
2,36,127,152
2,31,127,20
2,31,127,92
2,34,127,192
2,31,127,24
2,31,127,160
2,31,127,120
2,34,127,192
2,31,127,172
2,36,127,176
2,36,127,132
2,31,127,8
2,34,127,384
2,36,127,20
2,31,127,228
2,34,127,388
2,35,127,12
2,36,127,0
2,36,127,112
2,31,127,192
2,34,127,364
2,35,127,4
2,36,127,8
2,46,127,380
2,48,127,20
2,46,127,92
2,48,127,16
2,42,127,88
2,43,127,24
2,41,127,100
2,39,127,20
2,34,127,28
2,36,127,20
2,36,127,88
2,31,127,12
2,34,127,388
2,36,127,12
2,31,127,128
2,31,127,92
2,34,127,8
2,36,127,24
2,36,127,24
2,31,127,16
2,34,127,384
2,36,127,36
2,31,127,188
2,31,127,104
2,43,127,192
2,38,127,0
2,31,127,4
2,34,127,12
2,36,127,24
2,36,127,0
2,31,127,336
2,31,127,104
2,34,127,192
2,35,127,32
2,36,127,12
2,31,127,220
2,31,127,152
2,36,127,192
2,31,127,212
2,34,127,32
2,36,127,24
2,31,127,300
2,31,127,108
2,34,127,4
2,35,127,4
2,36,127,24
2,31,127,768
2,34,127,176
2,36,127,8
2,39,127,4
2,36,127,192
2,46,127,20
2,48,127,92
2,42,127,88
2,41,127,96
2,39,127,96
2,34,127,40
2,36,127,12
2,31,127,144
2,31,127,108
2,34,127,196
2,31,127,16
2,36,127,192
2,31,127,180
2,34,127,384
2,35,127,40
2,36,127,16
2,34,127,36
2,36,127,36
2,39,127,188
2,36,127,160
2,31,127,16
2,29,127,292
2,31,127,8
2,35,127,16
2,31,127,0
2,36,127,192
2,31,127,296
2,31,127,104
2,34,127,188
2,35,127,20
2,36,127,8
2,39,127,572
2,41,127,0
2,42,127,0
2,31,127,188
2,31,127,72
2,43,127,196
2,31,127,176
2,31,127,68
2,26,127,196
2,29,127,160
2,31,127,180
2,31,127,116
2,26,127,196
2,26,127,96
2,29,127,16
2,34,127,192
2,31,127,180
2,31,127,52
2,26,127,192
2,26,127,108
2,29,127,12
2,26,127,188
2,31,127,180
2,31,127,116
2,26,127,196
2,26,127,88
2,31,127,192
2,32,127,8
2,33,127,56
2,33,127,84
2,28,127,4
2,28,127,96
2,31,127,4
2,28,127,188
2,33,127,4
2,28,127,32
2,28,127,92
2,31,127,192
2,32,127,28
2,33,127,56
2,33,127,84
2,28,127,24
2,28,127,88
2,31,127,196
2,32,127,4
2,33,127,44
2,33,127,72
2,33,127,128
2,45,127,192
2,40,127,0
2,33,127,188
2,33,127,80
2,33,127,68
2,33,127,84
2,33,127,92
2,33,127,88
2,45,127,188
2,40,127,4
2,33,127,12
2,36,127,196
2,38,127,160
2,33,127,296
2,33,127,112
2,36,127,188
2,37,127,8
2,38,127,8
2,38,127,168
2,33,127,28
2,33,127,108
2,36,127,192
2,41,127,8
2,38,127,0
2,33,127,16
2,33,127,108
2,36,127,188
2,37,127,160
2,38,127,52
2,48,127,68
2,50,127,16
2,45,127,48
2,48,127,20
2,43,127,88
2,41,127,44
2,38,127,28
2,33,127,224
2,33,127,104
2,36,127,196
2,37,127,12
2,38,127,192
2,38,127,136
2,33,127,28
2,33,127,100
2,36,127,192
2,33,127,168
2,38,127,20
2,33,127,64
2,33,127,112
2,36,127,196
2,33,127,180
2,38,127,188
2,33,127,8
2,33,127,104
2,36,127,192
2,41,127,164
2,38,127,184
2,38,127,108
2,33,127,8
2,33,127,124
2,36,127,192
2,33,127,176
2,38,127,188
2,33,127,204
2,36,127,380
2,37,127,8
2,38,127,0
2,38,127,240
2,33,127,96
2,33,127,100
2,36,127,0
2,38,127,12
2,33,127,192
2,33,127,176
2,45,127,28
2,40,127,16
2,33,127,12
2,36,127,192
2,38,127,16
2,33,127,24
2,33,127,112
2,36,127,16
2,37,127,28
2,38,127,24
2,33,127,52
2,36,127,0
2,33,127,188
2,41,127,4
2,33,127,196
2,38,127,4
2,33,127,196
2,33,127,60
2,36,127,196
2,37,127,4
2,38,127,192
2,38,127,200
2,33,127,12
2,33,127,52
2,36,127,188
2,33,127,164
2,38,127,68
2,38,127,0
2,48,127,152
2,50,127,8
2,43,127,100
2,45,127,24
2,41,127,100
2,40,127,0
2,36,127,20
2,38,127,16
2,38,127,204
2,33,127,32
2,33,127,88
2,36,127,188
2,37,127,24
2,38,127,8
2,33,127,80
2,36,127,20
2,33,127,188
2,41,127,12
2,36,127,196
2,38,127,180
2,38,127,0
2,38,127,224
2,33,127,16
2,33,127,92
2,36,127,196
2,37,127,184
2,38,127,24
2,33,127,20
2,38,127,8
2,38,127,60
2,40,127,188
2,38,127,20
2,33,127,4
2,33,127,0
2,31,127,188
2,33,127,0
2,33,127,88
2,36,127,196
2,37,127,20
2,38,127,32
2,38,127,96
2,33,127,24
2,33,127,104
2,36,127,188
2,41,127,0
2,38,127,196
2,38,127,236
2,40,127,96
2,41,127,4
2,43,127,384
2,33,127,188
2,33,127,112
2,28,127,8
2,28,127,80
2,31,127,20
2,32,127,8
2,33,127,16
2,36,127,4
2,38,127,380
2,39,127,384
2,40,127,4
2,33,127,196
2,33,127,144
2,28,127,16
2,28,127,100
2,31,127,0
2,32,127,4
2,33,127,44
2,45,127,16
2,33,127,192
2,33,127,92
2,34,127,96
2,35,127,16
2,35,127,180
2,30,127,12
2,30,127,92
2,32,127,0
2,30,127,192
2,35,127,8
2,35,127,172
2,35,127,92
2,47,127,196
2,42,127,8
2,35,127,192
2,35,127,172
2,30,127,4
2,30,127,80
2,32,127,192
2,30,127,0
2,35,127,16
2,35,127,100
2,35,127,100
2,35,127,72
2,35,127,92
2,47,127,196
2,35,127,352
2,35,127,76
2,35,127,84
2,47,127,192
2,35,127,188
2,47,127,184
2,42,127,164
2,38,127,180
2,40,127,164
2,40,127,0
2,40,127,220
2,35,127,24
2,35,127,84
2,38,127,196
2,39,127,156
2,40,127,32
2,35,127,0
2,38,127,192
2,40,127,168
2,43,127,4
2,40,127,24
2,40,127,164
2,35,127,96
2,35,127,100
2,38,127,12
2,39,127,8
2,40,127,4
2,40,127,0
2,50,127,575
2,52,127,4
2,45,127,76
2,47,127,20
2,43,127,56
2,42,127,100
2,38,127,20
2,40,127,32
2,40,127,212
2,35,127,44
2,35,127,84
2,38,127,192
2,35,127,8
2,40,127,188
2,35,127,744
2,38,127,4
2,39,127,4
2,40,127,192
2,40,127,124
2,35,127,36
2,35,127,88
2,38,127,188
2,43,127,4
2,40,127,0
2,40,127,212
2,35,127,16
2,35,127,84
2,38,127,196
2,35,127,88
2,38,127,92
2,39,127,76
2,40,127,0
2,40,127,236
2,35,127,28
2,35,127,100
2,38,127,192
2,35,127,8
2,40,127,84
2,40,127,212
2,35,127,24
2,38,127,8
2,35,127,384
2,40,127,12
2,40,127,176
2,35,127,96
2,35,127,96
2,38,127,48
2,39,127,8
2,40,127,0
2,50,127,380
2,52,127,88
2,45,127,84
2,47,127,12
2,42,127,16
2,45,127,4
2,43,127,48
2,42,127,48
2,38,127,40
2,40,127,32
2,40,127,188
2,35,127,24
2,35,127,64
2,38,127,196
2,35,127,56
2,38,127,84
2,39,127,8
2,40,127,96
2,40,127,228
2,35,127,8
2,38,127,68
2,28,127,388
3,48,127,1536
3,58,127,384
3,55,127,0
3,63,127,0
3,48,127,0
3,62,127,24
3,58,127,0
3,53,127,0
3,48,125,80
3,58,127,0
3,55,127,0
3,63,127,0
3,46,127,356
3,53,127,0
3,62,127,0
3,58,127,0
3,61,117,0
3,48,127,92
3,58,118,0
3,55,127,0
3,63,126,0
3,62,127,84
3,53,127,0
3,58,127,0
3,48,118,84
3,58,114,0
3,63,123,0
3,55,124,0
3,48,127,72
3,48,127,320
3,63,123,200
3,58,124,0
3,55,127,0
3,48,125,24
3,53,127,116
3,58,127,0
3,62,127,0
3,48,120,76
3,58,120,0
3,55,124,0
3,63,126,4
3,48,107,64
3,55,127,92
3,66,127,100
3,67,127,92
3,72,127,72
3,48,115,16
3,55,127,124
3,63,127,384
3,60,127,0
3,67,127,0
3,48,108,0
3,65,119,108
3,62,127,4
3,58,127,0
3,62,127,116
3,67,127,0
3,43,124,0
3,50,124,764
3,67,127,92
3,62,127,4
3,50,117,76
3,48,114,4
3,67,125,0
3,63,127,0
3,60,127,0
3,58,127,432
3,53,127,0
3,62,125,0
3,48,112,96
3,55,125,0
3,58,127,4
3,63,120,0
3,48,117,116
3,58,124,16
3,62,119,0
3,53,122,0
3,48,117,0
3,58,116,20
3,62,115,0
3,53,116,4
3,48,122,0
3,63,123,36
3,58,123,0
3,55,127,0
3,55,122,96
3,58,126,0
3,63,126,0
3,48,122,96
3,58,127,48
3,53,124,0
3,62,122,0
3,48,127,120
3,55,127,60
3,58,117,0
3,63,120,0
3,48,108,24
3,55,107,248
3,78,127,192
3,84,127,0
3,82,106,0
3,79,127,0
3,78,113,0
3,77,124,8
3,75,127,56
3,76,100,0
3,72,127,8
3,48,125,28
3,55,124,188
3,63,117,196
3,58,116,0
3,48,110,80
3,48,100,28
3,53,125,52
3,62,124,0
3,58,127,0
3,48,122,60
3,55,116,0
3,58,114,0
3,63,124,0
3,48,117,12
3,55,108,196
3,78,127,0
3,79,127,96
3,84,124,0
3,79,127,100
3,77,120,4
3,75,127,24
3,72,127,4
3,48,110,8
3,55,127,188
3,58,127,196
3,63,123,0
3,48,108,44
3,62,119,180
3,55,127,56
3,43,113,0
3,50,127,196
3,62,108,132
3,67,106,0
3,50,120,40
3,62,117,28
3,67,118,0
3,62,115,28
3,67,116,4
3,55,120,8
3,62,124,92
3,67,119,4
3,62,127,52
3,67,127,0
3,63,109,0
3,55,127,64
3,67,124,16
3,62,127,0
3,55,127,92
3,48,127,68
3,55,127,36
