track,note,velocity,time
0,46,95,576
0,38,99,96
0,46,0,8
0,38,0,34
0,47,82,54
0,47,0,38
0,45,87,58
0,45,0,34
0,43,107,62
0,43,0,84
0,71,69,12
0,66,79,0
0,35,99,0
0,61,84,0
0,59,84,0
0,66,69,0
0,66,56,0
0,59,66,0
0,61,73,0
0,59,67,0
0,54,71,0
0,42,84,0
0,35,99,0
0,57,87,0
0,42,0,24
0,42,50,72
0,57,0,28
0,42,0,2
0,42,71,6
0,61,60,12
0,59,62,0
0,66,56,0
0,42,53,0
0,42,82,2
0,38,107,0
0,66,55,18
0,59,50,0
0,61,52,0
0,42,50,0
0,42,68,22
0,35,99,28
0,35,82,0
0,42,58,0
0,35,107,52
0,59,64,0
0,66,67,0
0,61,61,0
0,35,99,0
0,42,73,0
0,42,0,24
0,35,0,34
0,35,0,18
0,42,63,8
0,35,107,28
0,35,95,0
0,42,76,0
0,42,0,24
0,59,0,40
0,66,0,10
0,61,0,2
0,35,0,16
0,59,46,4
0,66,56,0
0,61,56,0
0,42,57,0
0,42,0,36
0,59,0,22
0,61,0,6
0,66,0,16
0,38,107,16
0,42,79,0
0,42,0,26
0,38,0,58
0,66,62,12
0,59,64,0
0,61,64,0
0,42,62,0
0,35,0,34
0,42,0,2
0,59,0,22
0,61,0,12
0,66,0,0
0,35,99,16
0,42,67,0
0,35,99,0
0,66,63,6
0,59,57,0
0,61,57,0
0,42,61,0
0,59,0,30
0,54,0,2
0,66,0,8
0,42,0,6
0,71,0,4
0,66,0,14
0,61,0,14
0,59,0,4
0,66,76,14
0,61,71,0
0,30,107,0
0,66,0,0
0,59,0,0
0,61,0,0
0,57,82,0
0,64,87,0
0,59,82,0
0,54,84,0
0,49,73,0
0,35,115,0
0,42,76,0
0,35,0,6
0,42,0,18
0,59,57,72
0,57,41,0
0,64,52,0
0,42,45,0
0,42,0,32
0,57,0,14
0,35,0,8
0,59,0,2
0,64,0,16
0,42,64,0
0,42,56,4
0,64,67,12
0,59,64,0
0,57,61,0
0,42,87,0
0,38,107,0
0,42,62,30
0,42,67,2
0,30,99,10
0,57,50,0
0,59,57,0
0,64,29,0
0,35,95,0
0,42,58,0
0,30,107,4
0,57,52,0
0,42,84,0
0,35,95,0
0,59,61,18
0,42,55,0
0,64,0,18
0,42,0,8
0,30,107,36
0,64,79,0
0,42,73,0
0,35,103,0
0,42,0,18
0,57,0,28
0,35,0,30
0,59,0,20
0,57,45,0
0,42,64,0
0,59,68,16
0,42,95,0
0,38,107,0
0,42,0,26
0,38,0,68
0,64,82,2
0,42,60,0
0,30,91,0
0,42,68,0
0,35,103,0
0,42,55,10
0,42,0,30
0,61,0,8
0,66,0,14
0,49,0,0
0,54,0,10
0,64,0,16
0,59,0,4
0,30,0,4
0,57,0,0
0,69,79,10
0,62,79,0
0,38,115,0
0,64,61,0
0,57,61,0
0,59,63,0
0,50,76,0
0,57,82,0
0,35,111,0
0,42,87,0
0,42,0,22
0,42,37,74
0,42,0,28
0,35,0,6
0,42,82,62
0,42,0,22
0,64,0,30
0,57,0,2
0,59,0,2
0,64,64,2
0,59,64,0
0,57,56,0
0,42,55,0
0,38,99,4
0,42,91,0
0,57,46,10
0,64,64,0
0,59,60,0
0,42,52,0
0,57,42,4
0,42,68,0
0,59,0,2
0,42,0,18
0,33,76,2
0,59,66,0
0,35,103,0
0,42,52,0
0,38,99,2
0,35,95,0
0,42,87,0
0,42,0,24
0,57,0,20
0,35,0,14
0,33,79,6
0,57,38,0
0,42,40,0
0,64,0,14
0,37,79,6
0,64,84,0
0,35,103,0
0,42,82,0
0,33,0,2
0,42,0,20
0,42,56,26
0,38,103,8
0,59,68,0
0,42,99,0
0,38,115,0
0,42,0,28
0,57,51,68
0,42,58,0
0,59,0,4
0,38,0,10
0,42,0,18
0,57,0,56
0,40,87,6
0,59,60,0
0,42,79,0
0,57,52,36
0,42,62,0
0,35,99,0
0,64,0,4
0,59,0,6
0,42,0,26
0,57,0,12
0,35,0,0
0,50,0,2
0,62,0,6
0,64,0,2
0,69,0,12
0,57,0,0
0,40,0,24
0,71,69,2
0,64,68,0
0,28,119,0
0,56,69,0
0,64,76,0
0,57,0,0
0,59,69,0
0,64,67,0
0,52,71,0
0,59,66,0
0,42,82,0
0,35,95,0
0,42,0,24
0,35,0,38
0,38,103,34
0,42,50,0
0,42,0,36
0,38,0,52
0,42,76,0
0,64,67,4
0,59,69,0
0,42,55,0
0,52,87,4
0,42,99,0
0,38,107,0
0,52,46,10
0,42,55,0
0,59,69,32
0,64,62,0
0,42,84,0
0,42,0,26
0,59,0,54
0,64,0,2
0,64,69,14
0,59,69,0
0,35,87,0
0,42,57,0
0,42,0,38
0,35,0,2
0,35,107,10
0,42,79,0
0,52,56,4
0,42,42,0
0,35,0,4
0,57,68,54
0,35,111,0
0,42,87,0
0,42,0,24
0,28,0,30
0,52,0,0
0,28,87,42
0,52,47,0
0,42,63,0
0,35,0,16
0,42,0,20
0,40,115,22
0,59,73,0
0,42,95,0
0,38,107,0
0,28,0,26
0,42,0,0
0,52,0,32
0,38,0,10
0,52,27,28
0,76,87,0
0,76,87,0
0,42,55,0
0,45,79,0
0,42,0,30
0,45,0,4
0,64,79,62
0,76,0,0
0,76,73,0
0,76,0,0
0,76,73,0
0,43,82,0
0,42,79,0
0,52,52,2
0,76,0,0
0,76,79,0
0,76,0,0
0,76,79,0
0,42,55,0
0,59,0,22
0,71,0,10
0,42,0,2
0,52,0,4
0,64,0,2
0,59,0,4
0,52,0,0
0,57,0,8
0,64,0,6
0,40,0,32
0,59,0,0
0,71,82,6
0,66,87,0
0,35,99,0
0,61,95,0
0,66,79,0
0,59,82,0
0,66,69,0
0,61,68,0
0,59,66,0
0,76,0,0
0,76,107,0
0,76,0,0
0,76,107,0
0,54,82,0
0,59,82,0
0,42,84,0
0,35,99,0
0,57,87,0
0,64,0,2
0,56,0,0
0,42,0,22
0,75,60,72
0,75,60,0
0,42,50,0
0,76,0,14
0,76,0,0
0,57,0,14
0,42,0,2
0,35,0,32
0,75,0,34
0,75,64,0
0,75,0,0
0,75,64,0
0,42,71,0
0,59,66,2
0,61,79,0
0,66,66,0
0,75,0,0
0,75,107,0
0,75,0,0
0,75,107,0
0,42,53,0
0,42,82,8
0,38,107,0
0,73,56,4
0,73,56,0
0,42,50,0
0,66,57,18
0,59,64,0
0,61,61,0
0,73,0,0
0,73,82,0
0,73,0,0
0,73,82,0
0,42,68,0
0,35,99,24
0,73,0,0
0,73,84,0
0,73,0,0
0,73,84,0
0,35,82,0
0,42,58,0
0,35,107,18
0,73,0,0
0,73,107,0
0,73,0,0
0,73,107,0
0,35,99,0
0,42,73,0
0,42,0,24
0,35,0,34
0,61,0,12
0,59,0,0
0,66,0,2
0,35,0,4
0,66,64,20
0,61,73,0
0,59,60,0
0,71,57,0
0,71,57,0
0,42,63,0
0,73,0,12
0,73,0,0
0,42,0,22
0,59,0,10
0,61,0,8
0,66,0,8
0,35,107,36
0,71,0,0
0,71,64,0
0,71,0,0
0,71,64,0
0,35,95,0
0,42,76,0
0,47,45,4
0,71,0,0
0,71,95,0
0,71,0,0
0,71,95,0
0,42,57,0
0,61,82,2
0,66,76,0
0,59,68,0
0,38,107,0
0,42,79,0
0,78,79,4
0,78,79,0
0,42,62,0
0,35,99,2
0,61,79,0
0,78,0,0
0,78,52,0
0,78,52,0
0,42,67,0
0,35,99,0
0,59,55,14
0,78,0,0
0,78,84,0
0,78,0,0
0,78,84,0
0,42,61,0
0,66,0,38
0,71,0,0
0,66,0,8
0,42,0,0
0,66,0,10
0,61,0,0
0,59,0,4
0,54,0,0
0,59,0,8
0,61,0,12
0,59,0,4
0,61,82,12
0,66,82,0
0,30,107,0
0,64,82,0
0,57,84,0
0,59,84,0
0,57,69,0
0,64,68,0
0,59,71,0
0,78,0,0
0,78,99,0
0,78,0,0
0,78,99,0
0,54,82,0
0,49,79,0
0,35,115,0
0,42,76,0
0,35,0,6
0,42,0,18
0,76,68,72
0,76,68,0
0,42,45,0
0,78,0,20
0,78,0,0
0,42,0,12
0,35,0,22
0,76,0,42
0,76,79,0
0,76,0,0
0,76,79,0
0,42,64,0
0,42,0,22
0,59,67,6
0,64,63,0
0,57,63,0
0,76,0,0
0,76,107,0
0,76,0,0
0,76,107,0
0,42,56,0
0,42,87,4
0,38,107,0
0,45,55,6
0,75,60,0
0,75,60,0
0,42,62,0
0,45,0,20
0,42,0,12
0,38,0,8
0,57,64,2
0,64,76,0
0,59,66,0
0,75,0,0
0,75,82,0
0,75,0,0
0,75,82,0
0,42,67,0
0,30,99,18
0,75,0,0
0,75,64,0
0,75,0,0
0,75,64,0
0,35,95,0
0,42,58,0
0,30,107,6
0,75,111,0
0,75,0,0
0,75,111,0
0,42,84,0
0,35,95,0
0,57,64,6
0,59,76,0
0,64,66,0
0,73,73,0
0,73,73,0
0,42,55,0
0,42,0,26
0,57,0,28
0,59,0,30
0,30,107,12
0,57,53,0
0,73,82,0
0,73,0,0
0,73,82,0
0,42,73,0
0,35,103,0
0,73,0,12
0,42,0,6
0,35,0,58
0,64,0,20
0,59,66,0
0,73,115,0
0,73,0,0
0,73,115,0
0,42,64,0
0,73,0,12
0,42,0,12
0,64,84,72
0,42,95,0
0,38,107,0
0,42,0,26
0,57,0,14
0,73,0,42
0,73,0,0
0,38,0,12
0,59,0,2
0,57,48,0
0,71,84,0
0,71,84,0
0,42,60,0
0,42,0,26
0,64,0,46
0,30,0,24
0,30,91,0
0,59,84,0
0,71,0,0
0,71,73,0
0,71,0,0
0,71,73,0
0,42,68,0
0,35,103,0
0,42,0,18
0,35,0,54
0,71,0,24
0,71,87,0
0,71,0,0
0,71,87,0
0,42,55,0
0,61,0,12
0,49,0,16
0,42,0,2
0,66,0,8
0,54,0,30
0,59,0,10
0,30,0,8
0,57,0,0
0,69,79,10
0,62,69,0
0,38,95,0
0,57,68,0
0,64,68,0
0,59,76,0
0,71,0,0
0,71,107,0
0,71,0,0
0,71,107,0
0,50,73,0
0,57,84,0
0,35,111,0
0,42,87,0
0,42,0,22
0,42,37,74
0,42,0,28
0,35,0,6
0,71,0,22
0,71,0,0
0,64,71,40
0,64,71,0
0,42,82,0
0,42,0,22
0,57,0,40
0,59,0,6
0,64,0,4
0,64,0,22
0,64,0,0
0,64,64,2
0,59,82,0
0,57,64,0
0,71,99,0
0,71,99,0
0,42,55,0
0,42,0,30
0,57,0,16
0,59,0,22
0,64,0,0
0,38,99,28
0,42,91,0
0,42,0,28
0,57,45,68
0,64,58,0
0,64,58,0
0,42,52,0
0,71,0,2
0,71,0,2
0,38,0,10
0,57,0,20
0,42,0,0
0,64,71,62
0,59,82,0
0,57,67,0
0,71,119,0
0,71,119,0
0,42,68,0
0,64,0,8
0,64,0,0
0,42,0,12
0,38,0,66
0,30,68,10
0,35,103,0
0,42,52,0
0,42,0,28
0,35,0,10
0,38,95,2
0,35,95,0
0,42,87,0
0,33,69,2
0,57,43,0
0,64,62,0
0,59,62,0
0,42,40,0
0,37,91,8
0,35,103,0
0,42,82,0
0,33,0,10
0,57,56,6
0,42,56,0
0,59,84,2
0,42,99,0
0,38,115,0
0,57,52,12
0,42,58,0
0,64,79,4
0,71,87,0
0,71,87,0
0,42,79,0
0,35,99,0
0,64,73,6
0,64,73,0
0,42,62,0
0,69,0,22
0,62,0,2
0,50,0,10
0,42,0,2
0,57,0,6
0,57,0,10
0,64,0,6
0,64,0,14
0,59,0,0
0,59,0,4
0,57,0,2
0,64,0,8
0,64,0,0
0,69,84,10
0,64,64,0
0,36,84,0
0,57,82,0
0,60,68,0
0,64,66,0
0,57,51,0
0,59,56,0
0,64,60,0
0,60,52,0
0,69,107,0
0,69,107,0
0,57,82,0
0,52,67,0
0,35,91,0
0,57,84,0
0,37,0,2
0,57,0,94
0,35,0,20
0,69,0,72
0,69,0,0
0,64,31,4
0,64,31,0
0,57,47,10
0,64,52,0
0,59,57,0
0,60,55,0
0,69,103,0
0,69,103,0
0,64,64,10
0,64,64,0
0,64,57,8
0,57,58,0
0,59,63,0
0,60,62,0
0,64,0,0
0,69,115,0
0,64,0,0
0,69,115,0
0,43,69,0
0,45,87,2
0,38,99,0
0,43,82,2
0,57,25,0
0,59,50,0
0,60,47,0
0,64,53,0
0,57,55,20
0,59,66,10
0,45,95,0
0,60,55,2
0,43,79,0
0,64,71,6
0,46,91,0
0,56,99,6
0,61,99,0
0,35,107,0
0,42,82,0
0,57,71,0
0,37,119,12
0,42,0,24
0,59,48,60
0,64,64,0
0,64,0,28
0,59,0,2
0,35,0,26
0,61,52,0
0,42,82,0
0,42,0,36
0,56,0,122
0,61,0,16
0,59,73,18
0,64,69,0
0,64,67,0
0,59,61,0
0,42,91,0
0,38,115,0
0,63,67,0
0,61,0,2
0,42,0,30
0,38,0,122
0,63,0,24
0,61,43,0
0,64,0,2
0,61,48,2
0,56,35,0
0,42,91,0
0,59,0,2
0,37,0,24
0,42,0,8
0,59,0,16
0,64,0,0
0,61,0,34
0,56,0,4
0,63,61,0
0,37,91,4
0,59,68,0
0,64,68,0
0,59,33,0
0,64,60,0
0,35,95,0
0,61,0,2
0,59,0,32
0,35,0,0
0,64,0,2
0,37,0,30
0,63,61,0
0,35,111,0
0,42,95,0
0,42,0,38
0,61,53,58
0,56,43,0
0,59,58,0
0,64,79,0
0,59,0,2
0,64,0,4
0,35,0,8
0,59,0,20
0,64,0,8
0,61,47,0
0,56,0,6
0,59,64,2
0,64,64,0
0,35,107,0
0,42,95,0
0,37,99,2
0,61,0,0
0,57,0,28
0,42,0,8
0,63,0,54
0,35,0,34
0,64,0,20
0,59,0,10
0,61,0,26
0,63,52,0
0,59,64,8
0,64,67,0
0,59,27,0
0,64,61,0
0,38,115,0
0,42,103,0
0,42,0,38
0,59,0,8
0,64,0,2
0,61,52,48
0,56,34,0
0,59,37,0
0,64,51,0
0,38,0,6
0,64,0,10
0,59,0,8
0,59,0,2
0,64,0,6
0,56,0,58
0,61,0,6
0,59,36,0
0,64,56,0
0,42,99,0
0,35,95,0
0,61,50,0
0,42,0,38
0,59,0,14
0,64,0,4
0,35,0,24
0,64,82,12
0,59,82,0
0,59,53,0
0,64,62,0
0,59,0,38
0,64,0,12
0,61,0,12
0,37,0,20
0,63,64,0
0,40,99,6
0,35,115,0
0,42,99,0
0,42,0,36
0,59,20,60
0,64,48,0
0,35,0,26
0,59,0,2
0,64,0,20
0,63,0,32
0,42,99,16
0,61,62,0
0,42,0,36
0,59,55,58
0,59,0,30
0,64,0,2
0,59,0,2
0,61,0,16
0,64,82,46
0,59,87,0
0,59,66,0
0,64,76,0
0,38,115,0
0,42,99,0
0,61,55,0
0,42,0,40
0,61,0,36
0,63,31,0
0,38,0,42
0,63,0,46
0,56,53,0
0,42,95,10
0,42,0,42
0,59,0,4
0,64,0,6
0,59,43,44
0,64,62,0
0,64,0,44
0,64,0,2
0,59,0,6
0,59,0,14
0,40,0,14
0,42,115,10
0,61,84,6
0,66,82,0
0,35,107,0
0,42,82,0
0,66,0,42
0,61,0,0
0,42,0,8
0,42,0,4
0,35,0,14
0,66,42,28
0,61,55,0
0,59,60,0
0,66,0,52
0,59,0,6
0,61,0,0
0,42,115,34
0,61,91,4
0,66,99,0
0,35,99,0
0,42,95,0
0,42,0,46
0,35,0,40
0,59,26,10
0,59,0,48
0,66,53,48
0,61,64,0
0,59,60,0
0,38,111,0
0,42,91,0
0,42,0,42
0,59,0,8
0,66,0,26
0,61,0,2
0,38,0,14
0,59,35,4
0,42,0,34
0,66,0,4
0,61,0,0
0,59,0,6
0,61,79,52
0,56,82,0
0,66,64,0
0,59,53,0
0,61,69,0
0,57,82,0
0,35,115,0
0,46,79,0
0,37,99,4
0,46,0,32
0,59,0,30
0,57,0,0
0,61,0,2
0,66,0,0
0,59,30,28
0,66,43,0
0,61,50,0
0,56,0,8
0,35,0,30
0,59,0,24
0,66,0,4
