track,note,velocity,time
1,40,127,3072
1,40,0,140
1,40,127,52
1,40,0,104
1,40,127,88
1,40,0,128
1,40,127,64
1,40,0,140
1,40,127,52
1,40,0,112
1,40,127,80
1,40,0,116
1,40,127,76
1,40,0,136
1,40,127,56
1,40,0,164
1,40,127,28
1,40,0,120
1,40,127,72
1,40,0,136
1,40,127,56
1,40,0,132
1,40,127,60
1,40,0,160
1,40,127,32
1,40,0,108
1,40,127,84
1,40,0,148
1,40,127,44
1,40,0,120
1,40,127,72
1,40,0,124
1,40,127,68
1,40,0,76
1,40,127,116
1,40,0,68
1,40,127,124
1,40,0,96
1,40,127,96
1,40,0,152
1,40,127,40
1,40,0,72
1,40,127,120
1,40,0,96
1,40,127,96
1,40,0,112
1,40,127,80
1,40,0,84
1,28,127,12
1,28,0,56
1,40,127,40
1,40,0,96
1,40,127,96
1,40,0,80
1,40,127,112
1,40,0,108
1,40,127,84
1,28,127,96
1,40,0,16
1,28,0,44
1,40,127,36
1,40,0,92
1,40,127,100
1,40,0,84
1,40,127,108
1,40,0,84
1,39,127,108
1,39,0,56
1,40,127,136
1,40,0,140
1,40,127,52
1,40,0,104
1,40,127,88
1,40,0,128
1,40,127,64
1,40,0,140
1,40,127,52
1,40,0,112
1,40,127,80
1,40,0,116
1,40,127,76
1,40,0,136
1,40,127,56
1,40,0,164
1,40,127,28
1,40,0,120
1,40,127,72
1,40,0,136
1,40,127,56
1,40,0,132
1,40,127,60
1,40,0,160
1,40,127,32
1,40,0,108
1,40,127,84
1,40,0,148
1,40,127,44
1,40,0,120
1,40,127,72
1,40,0,124
1,40,127,68
1,40,0,140
1,40,127,52
1,40,0,104
1,40,127,88
1,40,0,128
1,40,127,64
1,40,0,140
1,40,127,52
1,40,0,112
1,40,127,80
1,40,0,116
1,40,127,76
1,40,0,136
1,40,127,56
1,40,0,164
1,40,127,28
1,40,0,120
1,40,127,72
1,40,0,136
1,40,127,56
1,40,0,132
1,40,127,60
1,40,0,160
1,40,127,32
1,40,0,108
1,40,127,84
1,40,0,148
1,40,127,44
1,40,0,120
1,40,127,72
1,40,0,124
1,38,127,68
1,38,0,136
1,38,127,56
1,38,0,148
1,38,127,44
1,38,0,128
1,38,127,64
1,38,0,132
1,38,127,60
1,38,0,112
1,38,127,80
1,38,0,108
1,38,127,84
1,38,0,128
1,38,127,64
1,38,0,96
1,26,110,0
1,26,0,64
1,38,127,32
1,38,0,140
1,38,127,52
1,38,0,124
1,38,127,68
1,38,0,128
1,38,127,64
1,38,0,108
1,38,127,84
1,38,0,100
1,38,127,92
1,38,0,52
1,38,127,140
1,38,0,140
1,39,127,52
1,39,0,60
1,40,127,132
1,40,0,140
1,40,127,52
1,40,0,104
1,40,127,88
1,40,0,128
1,40,127,64
1,40,0,140
1,40,127,52
1,40,0,112
1,40,127,80
1,40,0,116
1,40,127,76
1,40,0,136
1,40,127,56
1,40,0,164
1,40,127,28
1,40,0,120
1,40,127,72
1,40,0,136
1,40,127,56
1,40,0,132
1,40,127,60
1,40,0,160
1,40,127,32
1,40,0,108
1,40,127,84
1,40,0,148
1,40,127,44
1,40,0,120
1,40,127,72
1,40,0,124
1,40,127,68
1,40,0,136
1,40,127,56
1,40,0,148
1,40,127,44
1,40,0,128
1,40,127,64
1,40,0,132
1,40,127,60
1,40,0,112
1,40,127,80
1,40,0,108
1,40,127,84
1,40,0,128
1,40,127,64
1,40,0,96
1,28,110,0
1,28,0,64
1,40,127,32
1,40,0,140
1,40,127,52
1,40,0,124
1,40,127,68
1,40,0,128
1,40,127,64
1,40,0,108
1,40,127,84
1,40,0,100
1,40,127,92
1,40,0,52
1,40,127,140
1,40,0,140
1,39,127,52
1,39,0,60
1,40,127,132
1,40,0,140
1,40,127,52
1,40,0,104
1,40,127,88
1,40,0,128
1,40,127,64
1,40,0,140
1,40,127,52
1,40,0,112
1,40,127,80
1,40,0,116
1,40,127,76
1,40,0,136
1,40,127,56
1,40,0,164
1,40,127,28
1,40,0,120
1,40,127,72
1,40,0,136
1,40,127,56
1,40,0,132
1,40,127,60
1,40,0,160
1,40,127,32
1,40,0,108
1,40,127,84
1,40,0,148
1,40,127,44
1,40,0,120
1,40,127,72
1,40,0,124
1,38,127,68
1,38,0,120
1,38,127,72
1,38,0,160
1,38,127,32
1,38,0,144
1,38,127,48
1,26,127,96
1,38,0,36
1,26,0,20
1,38,127,40
1,38,0,112
1,38,127,80
1,38,0,88
1,38,127,104
1,38,0,136
1,38,127,56
1,38,0,160
1,38,127,32
1,38,0,84
1,38,127,108
1,38,0,92
1,38,127,100
1,38,0,112
1,38,127,80
1,26,127,96
1,38,0,28
1,26,0,20
1,38,127,48
1,38,0,116
1,38,127,76
1,38,0,80
1,26,102,16
1,26,0,52
1,38,127,44
1,38,0,120
1,38,127,72
1,38,0,84
1,40,127,108
1,40,0,88
1,40,127,104
1,40,0,68
1,40,127,124
1,40,0,72
1,40,127,120
1,40,0,160
1,40,127,32
1,40,0,84
1,40,127,108
1,40,0,72
1,40,127,120
1,40,0,104
1,40,127,88
1,40,0,44
1,28,127,52
1,28,0,52
1,40,127,44
1,40,0,88
1,40,127,104
1,40,0,108
1,40,127,84
1,40,0,100
1,40,127,92
1,40,0,112
1,40,127,80
1,40,0,104
1,40,127,88
1,40,0,96
1,28,121,0
1,28,0,80
1,40,127,16
1,40,0,88
1,28,125,8
1,28,0,76
1,40,127,20
1,40,0,80
1,40,127,16
1,40,0,56
1,36,127,40
1,36,0,88
1,36,127,104
1,36,0,108
1,36,127,84
1,36,0,100
1,36,127,92
1,36,0,112
1,36,127,80
1,36,0,104
1,36,127,88
1,36,0,96
1,24,121,0
1,24,0,80
1,36,127,16
1,36,0,88
1,24,125,8
1,24,0,76
1,36,127,20
1,36,0,80
1,36,127,16
1,36,0,56
1,43,127,40
1,43,0,140
1,43,127,52
1,43,0,104
1,43,127,88
1,43,0,128
1,43,127,64
1,43,0,140
1,43,127,52
1,43,0,112
1,43,127,80
1,43,0,116
1,43,127,76
1,43,0,136
1,43,127,56
1,43,0,164
1,41,127,28
1,41,0,120
1,41,127,72
1,41,0,160
1,41,127,32
1,41,0,144
1,41,127,48
1,29,127,96
1,41,0,36
1,29,0,20
1,41,127,40
1,41,0,112
1,41,127,80
1,41,0,88
1,41,127,104
1,41,0,136
1,41,127,56
1,41,0,160
1,41,127,32
1,41,0,84
1,41,127,108
1,41,0,92
1,41,127,100
1,41,0,112
1,41,127,80
1,29,127,96
1,41,0,28
1,29,0,20
1,41,127,48
1,41,0,116
1,41,127,76
1,41,0,80
1,29,102,16
1,29,0,52
1,41,127,44
1,41,0,120
1,41,127,72
1,41,0,84
1,36,127,108
1,36,0,140
1,36,127,52
1,36,0,104
1,36,127,88
1,36,0,128
1,36,127,64
1,36,0,140
1,36,127,52
1,36,0,112
1,36,127,80
1,36,0,116
1,36,127,76
1,36,0,136
1,36,127,56
1,36,0,164
1,43,127,28
1,43,0,112
1,43,127,80
1,43,0,136
1,43,127,56
1,43,0,112
1,43,127,80
1,43,0,152
1,43,127,40
1,43,0,108
1,43,127,84
1,43,0,140
1,43,127,52
1,43,0,108
1,43,127,84
1,43,0,128
1,41,127,64
1,41,0,80
1,41,127,112
1,41,0,108
1,41,127,84
1,41,0,96
1,41,127,96
1,41,0,124
1,41,127,68
1,41,0,80
1,41,127,112
1,41,0,76
1,41,127,116
1,41,0,192
1,37,127,0
1,37,0,72
1,38,127,120
1,38,0,112
1,38,127,80
1,38,0,136
1,38,127,56
1,38,0,112
1,38,127,80
1,38,0,152
1,38,127,40
1,38,0,108
1,38,127,84
1,38,0,140
1,38,127,52
1,38,0,108
1,38,127,84
1,38,0,128
1,36,127,64
1,36,0,88
1,36,127,104
1,36,0,108
1,36,127,84
1,36,0,100
1,36,127,92
1,36,0,112
1,36,127,80
1,36,0,104
1,36,127,88
1,36,0,96
1,24,121,0
1,24,0,80
1,36,127,16
1,36,0,88
1,24,125,8
1,24,0,76
1,36,127,20
1,36,0,80
1,36,127,16
1,36,0,56
1,43,127,40
1,43,0,112
1,43,127,80
1,43,0,136
1,43,127,56
1,43,0,112
1,43,127,80
1,43,0,152
1,43,127,40
1,43,0,108
1,43,127,84
1,43,0,140
1,43,127,52
1,43,0,108
1,43,127,84
1,43,0,128
1,41,127,64
1,41,0,140
1,41,127,52
1,41,0,104
1,41,127,88
1,41,0,128
1,41,127,64
1,41,0,140
1,41,127,52
1,41,0,112
1,41,127,80
1,41,0,116
1,41,127,76
1,41,0,136
1,41,127,56
1,41,0,164
1,41,127,28
1,41,0,120
1,41,127,72
1,41,0,136
1,41,127,56
1,41,0,132
1,41,127,60
1,41,0,160
1,41,127,32
1,41,0,108
1,41,127,84
1,41,0,148
1,41,127,44
1,41,0,120
1,41,127,72
1,41,0,124
1,36,127,68
1,36,0,88
1,36,127,104
1,36,0,68
1,36,127,124
1,36,0,72
1,36,127,120
1,36,0,160
1,36,127,32
1,36,0,84
1,36,127,108
1,36,0,72
1,36,127,120
1,36,0,104
1,36,127,88
1,36,0,44
1,24,127,52
1,24,0,52
1,43,127,44
1,43,0,88
1,43,127,104
1,43,0,108
1,43,127,84
1,43,0,100
1,43,127,92
1,43,0,112
1,43,127,80
1,43,0,104
1,43,127,88
1,43,0,96
1,31,121,0
1,31,0,80
1,43,127,16
1,43,0,88
1,31,125,8
1,31,0,76
1,43,127,20
1,43,0,80
1,43,127,16
1,43,0,56
1,41,127,40
1,41,0,112
1,41,127,80
1,41,0,136
1,41,127,56
1,41,0,112
1,41,127,80
1,41,0,152
1,41,127,40
1,41,0,108
1,41,127,84
1,41,0,140
1,41,127,52
1,41,0,108
1,41,127,84
1,41,0,128
1,38,127,64
1,38,0,140
1,38,127,52
1,38,0,104
1,38,127,88
1,38,0,128
1,38,127,64
1,38,0,140
1,38,127,52
1,38,0,112
1,38,127,80
1,38,0,116
1,38,127,76
1,38,0,136
1,38,127,56
1,38,0,164
1,40,127,28
1,40,0,88
1,40,127,104
1,40,0,156
1,40,127,36
1,40,0,132
1,40,127,60
1,40,0,156
1,40,127,36
1,40,0,100
1,40,127,92
1,40,0,164
1,40,127,28
1,40,0,116
1,40,127,76
1,40,0,168
1,40,127,24
1,40,0,108
1,40,127,84
1,40,0,156
1,40,127,36
1,40,0,128
1,40,127,64
1,40,0,144
1,40,127,48
1,40,0,112
1,40,127,80
1,40,0,92
1,40,127,100
1,40,0,136
1,40,127,56
1,40,0,120
1,40,127,72
1,40,0,140
1,40,127,52
1,40,0,104
1,40,127,88
1,40,0,128
1,40,127,64
1,40,0,140
1,40,127,52
1,40,0,112
1,40,127,80
1,40,0,116
1,40,127,76
1,40,0,136
1,40,127,56
1,40,0,164
1,40,127,28
1,40,0,120
1,40,127,72
1,40,0,136
1,40,127,56
1,40,0,132
1,40,127,60
1,40,0,160
1,40,127,32
1,40,0,108
1,40,127,84
1,40,0,148
1,40,127,44
1,40,0,120
1,40,127,72
1,40,0,124
1,40,127,68
1,40,0,96
1,40,127,96
1,40,0,96
1,40,127,96
1,40,0,100
1,40,127,92
1,28,121,96
1,40,0,24
1,28,0,24
1,40,127,48
1,40,0,88
1,40,127,104
1,40,0,88
1,40,127,104
1,40,0,124
1,40,127,68
1,40,0,144
1,40,127,48
1,40,0,88
1,40,127,104
1,40,0,88
1,40,127,104
1,40,0,112
1,40,127,80
1,40,0,140
1,40,127,52
1,40,0,96
1,40,127,96
1,40,0,108
1,40,127,84
1,40,0,112
1,40,127,80
1,40,0,124
1,38,127,68
1,38,0,76
1,38,127,116
1,38,0,68
1,38,127,124
1,38,0,96
1,38,127,96
1,38,0,152
1,38,127,40
1,38,0,72
1,38,127,120
1,38,0,96
1,38,127,96
1,38,0,112
1,38,127,80
1,38,0,84
1,26,127,12
1,26,0,56
1,38,127,40
1,38,0,96
1,38,127,96
1,38,0,80
1,38,127,112
1,38,0,108
1,38,127,84
1,26,127,96
1,38,0,16
1,26,0,44
1,38,127,36
1,38,0,92
1,38,127,100
1,38,0,84
1,38,127,108
1,38,0,84
1,39,127,108
1,39,0,56
1,40,127,136
1,40,0,96
1,40,127,96
1,40,0,96
1,40,127,96
1,40,0,100
1,40,127,92
1,28,121,96
1,40,0,24
1,28,0,24
1,40,127,48
1,40,0,88
1,40,127,104
1,40,0,88
1,40,127,104
1,40,0,124
1,40,127,68
1,40,0,144
1,40,127,48
1,40,0,88
1,40,127,104
1,40,0,88
1,40,127,104
1,40,0,112
1,40,127,80
1,40,0,140
1,40,127,52
1,40,0,96
1,40,127,96
1,40,0,108
1,40,127,84
1,40,0,112
1,40,127,80
1,40,0,124
1,40,127,68
1,40,0,96
1,40,127,96
1,40,0,96
1,40,127,96
1,40,0,100
1,40,127,92
1,28,121,96
1,40,0,24
1,28,0,24
1,40,127,48
1,40,0,88
1,40,127,104
1,40,0,88
1,40,127,104
1,40,0,124
1,40,127,68
1,40,0,144
1,40,127,48
1,40,0,88
1,40,127,104
1,40,0,88
1,40,127,104
1,40,0,112
1,40,127,80
1,40,0,140
1,40,127,52
1,40,0,96
1,40,127,96
1,40,0,108
1,40,127,84
1,40,0,112
1,40,127,80
1,40,0,124
1,40,127,68
1,40,0,140
1,40,127,52
1,40,0,104
1,40,127,88
1,40,0,128
1,40,127,64
1,40,0,140
1,40,127,52
1,40,0,112
1,40,127,80
1,40,0,116
1,40,127,76
1,40,0,136
1,40,127,56
1,40,0,164
1,40,127,28
1,40,0,120
1,40,127,72
1,40,0,136
1,40,127,56
1,40,0,132
1,40,127,60
1,40,0,160
1,40,127,32
1,40,0,108
1,40,127,84
1,40,0,148
1,40,127,44
1,40,0,120
1,40,127,72
1,40,0,124
1,38,127,68
1,38,0,140
1,38,127,52
1,38,0,104
1,38,127,88
1,38,0,128
1,38,127,64
1,38,0,140
1,38,127,52
1,38,0,112
1,38,127,80
1,38,0,116
1,38,127,76
1,38,0,136
1,38,127,56
1,38,0,164
1,38,127,28
1,38,0,120
1,38,127,72
1,38,0,136
1,38,127,56
1,38,0,132
1,38,127,60
1,38,0,160
1,38,127,32
1,38,0,108
1,38,127,84
1,38,0,148
1,38,127,44
1,38,0,120
1,38,127,72
1,38,0,124
1,40,127,68
1,40,0,96
1,40,127,96
1,40,0,120
1,40,127,72
1,40,0,108
1,40,127,84
1,28,127,96
1,40,0,24
1,28,0,24
1,40,127,48
1,40,0,96
1,40,127,96
1,40,0,64
1,40,127,128
1,40,0,160
1,39,127,32
1,39,0,60
1,40,127,132
1,40,0,140
1,40,127,52
1,40,0,104
1,40,127,88
1,40,0,128
1,40,127,64
1,40,0,140
1,40,127,52
1,40,0,112
1,40,127,80
1,40,0,116
1,40,127,76
1,40,0,136
1,40,127,56
1,40,0,164
1,36,127,28
1,36,0,88
1,36,127,104
1,36,0,108
1,36,127,84
1,36,0,100
1,36,127,92
1,36,0,112
1,36,127,80
1,36,0,104
1,36,127,88
1,36,0,96
1,24,121,0
1,24,0,80
1,36,127,16
1,36,0,88
1,24,125,8
1,24,0,76
1,36,127,20
1,36,0,80
1,36,127,16
1,36,0,56
1,43,127,40
1,43,0,112
1,43,127,80
1,43,0,136
1,43,127,56
1,43,0,112
1,43,127,80
1,43,0,152
1,43,127,40
1,43,0,108
1,43,127,84
1,43,0,140
1,43,127,52
1,43,0,108
1,43,127,84
1,43,0,128
1,41,127,64
1,41,0,136
1,41,127,56
1,41,0,148
1,41,127,44
1,41,0,128
1,41,127,64
1,41,0,132
1,41,127,60
1,41,0,112
1,41,127,80
1,41,0,108
1,41,127,84
1,41,0,128
1,41,127,64
1,41,0,96
1,29,110,0
1,29,0,64
1,41,127,32
1,41,0,140
1,41,127,52
1,41,0,124
1,41,127,68
1,41,0,128
1,41,127,64
1,41,0,108
1,41,127,84
1,41,0,100
1,41,127,92
1,41,0,52
1,41,127,140
1,41,0,140
1,35,127,52
1,35,0,60
1,36,127,132
1,36,0,112
1,36,127,80
1,36,0,136
