track,note,velocity,time
1,64,80,12
1,66,80,12
1,66,80,7
1,74,80,12
1,66,80,12
1,67,80,12
1,67,80,12
1,74,80,12
1,67,80,12
1,63,80,12
1,63,80,12
1,71,80,12
1,63,80,12
1,64,80,12
1,64,80,12
1,76,80,12
1,64,80,12
1,66,80,12
1,66,80,12
1,74,80,12
1,66,80,12
1,67,80,12
1,67,80,12
1,74,80,12
1,67,80,12
1,63,80,90
1,83,89,83
1,63,80,7
1,83,85,74
1,71,80,3
1,79,72,60
1,63,80,12
1,83,89,75
1,64,80,6
1,64,80,76
1,79,93,6
1,76,80,67
1,83,102,5
1,64,80,73
1,66,80,90
1,66,80,90
1,74,80,90
1,66,80,90
1,67,80,90
1,67,80,90
1,74,80,90
1,67,80,90
1,63,80,90
1,63,80,90
1,71,80,90
1,63,80,90
1,64,80,90
1,64,80,90
1,76,80,90
1,64,80,90
1,66,80,90
1,66,80,90
1,74,80,90
1,66,80,90
1,67,80,90
1,67,80,90
1,74,80,90
1,67,80,90
1,63,80,90
1,63,80,90
1,71,80,90
1,63,80,90
1,64,80,90
1,64,80,90
1,76,80,90
1,64,80,90
1,66,80,90
1,66,80,90
1,74,80,90
1,66,80,90
1,67,80,90
1,67,80,90
1,74,80,90
1,67,80,90
1,63,80,90
1,63,80,90
1,71,80,90
1,63,80,90
1,64,80,90
1,64,80,90
1,76,80,90
1,64,80,90
1,66,80,90
1,66,80,90
1,74,80,90
1,66,80,90
1,67,80,90
1,67,80,90
1,74,80,90
1,67,80,90
1,63,80,90
1,63,80,90
1,71,80,90
1,63,80,90
1,64,80,90
1,64,80,90
1,76,80,90
1,64,80,90
1,66,80,90
1,66,80,90
1,74,80,90
1,66,80,90
1,67,80,90
1,67,80,90
1,74,80,90
1,67,80,90
1,63,80,90
1,63,80,90
1,71,80,90
1,63,80,90
1,64,80,90
1,64,80,90
1,76,80,90
1,64,80,90
1,66,80,90
1,66,80,90
1,74,80,90
1,66,80,90
1,67,80,90
1,67,80,90
1,74,80,90
1,67,80,90
1,63,80,90
1,63,80,90
1,71,80,90
1,63,80,90
1,64,80,90
1,64,80,90
1,76,80,90
1,64,80,90
1,66,80,90
1,66,80,90
1,74,80,90
1,66,80,90
1,67,80,90
1,67,80,90
1,74,80,90
1,67,80,90
1,63,80,90
1,63,80,90
1,71,80,90
1,63,80,90
1,67,76,90
1,67,76,90
1,74,89,90
1,71,85,90
1,66,85,90
1,66,89,90
1,75,89,90
1,71,93,90
1,64,85,90
1,64,89,90
1,76,89,90
1,71,85,90
1,66,89,90
1,66,89,90
1,75,85,90
1,71,89,90
1,67,76,90
1,67,89,90
1,74,89,90
1,71,85,90
1,66,89,90
1,66,89,90
1,75,89,90
1,71,85,90
1,64,89,90
1,64,89,90
1,76,89,90
1,71,89,90
1,66,85,90
1,66,89,90
1,75,76,90
1,71,89,90
1,67,76,90
1,67,85,90
1,74,93,90
1,71,89,90
1,66,89,90
1,66,89,90
1,75,89,90
1,71,89,90
1,64,85,90
1,64,85,90
1,76,76,90
1,71,89,90
1,66,93,90
1,66,93,90
1,75,85,90
1,71,76,90
1,67,76,90
1,67,89,90
1,74,89,90
1,71,89,90
1,66,89,90
1,66,89,90
1,75,85,90
1,71,93,90
1,64,85,90
1,64,89,90
1,76,89,90
1,71,89,90
1,66,93,90
1,71,85,90
1,75,76,90
1,71,76,90
1,78,89,90
1,71,89,90
1,75,85,90
1,71,89,90
1,66,93,90
1,71,85,90
1,75,76,90
1,71,76,90
1,78,89,90
1,71,89,90
1,75,85,90
1,71,89,90
1,64,80,90
1,64,80,90
1,76,80,90
1,64,80,90
1,66,80,90
1,66,80,90
1,74,80,90
1,66,80,90
1,67,80,90
1,67,80,90
1,74,80,90
1,67,80,90
1,63,80,90
1,63,80,90
1,71,80,90
1,63,80,90
1,64,80,90
1,64,80,90
1,76,80,90
1,64,80,90
1,66,80,90
1,66,80,90
1,74,80,90
1,66,80,90
1,67,80,90
1,67,80,90
1,74,80,90
1,67,80,90
1,63,80,90
1,63,80,90
1,71,80,90
1,63,80,90
1,64,80,90
1,64,80,90
1,76,80,90
1,64,80,90
1,66,80,90
1,66,80,90
1,74,80,90
1,66,80,90
1,67,80,90
1,67,80,90
1,74,80,90
1,67,80,90
1,63,80,90
1,63,80,90
1,71,80,90
1,63,80,90
1,64,80,90
1,64,80,90
1,76,80,90
1,64,80,90
1,66,80,90
1,66,80,90
1,74,80,90
1,66,80,90
1,67,80,90
1,67,80,90
1,74,80,90
1,67,80,90
1,63,80,90
1,63,80,90
1,71,80,90
1,63,80,90
1,67,76,90
1,67,76,90
1,74,89,90
1,71,85,90
1,66,85,90
1,66,89,90
1,75,89,90
1,71,93,90
1,64,85,90
1,64,89,90
1,76,89,90
1,71,85,90
1,66,89,90
1,66,89,90
1,75,85,90
1,71,89,90
1,67,76,90
1,67,89,90
1,74,89,90
1,71,85,90
1,66,89,90
1,66,89,90
1,75,89,90
1,71,85,90
1,64,89,90
1,64,89,90
1,76,89,90
1,71,89,90
1,66,85,90
1,66,89,90
1,75,76,90
1,71,89,90
1,67,76,90
1,67,85,90
1,74,93,90
1,71,89,90
1,66,89,90
1,66,89,90
1,75,89,90
1,71,89,90
1,64,85,90
1,64,85,90
1,76,76,90
1,71,89,90
1,66,93,90
1,66,93,90
1,75,85,90
1,71,76,90
1,67,76,90
1,67,89,90
1,74,89,90
1,71,89,90
1,66,89,90
1,66,89,90
1,75,85,90
1,71,93,90
1,64,85,90
1,64,89,90
1,76,89,90
1,71,89,90
1,66,93,90
1,71,85,90
1,75,76,90
1,71,76,90
1,78,89,90
1,71,89,90
1,75,85,90
1,71,89,90
1,66,89,90
1,71,89,90
1,75,85,90
1,71,89,90
1,71,76,213
1,75,85,94
1,71,85,88
1,60,98,96
1,64,80,85
1,67,89,88
1,64,85,76
1,72,80,94
1,64,56,86
1,67,89,91
1,64,76,93
1,58,93,99
1,64,85,97
1,67,98,85
1,64,64,85
1,70,85,95
1,64,59,81
1,67,89,89
1,64,80,95
1,59,102,98
1,66,76,85
1,71,85,90
1,66,72,89
1,75,93,91
1,71,93,86
1,66,60,89
1,71,98,90
1,59,102,93
1,66,64,87
1,71,93,94
1,66,62,81
1,75,93,92
1,66,62,89
1,71,93,95
1,66,85,91
1,64,80,90
1,64,80,90
1,76,80,90
1,64,80,90
1,66,80,90
1,66,80,90
1,74,80,90
1,66,80,90
1,67,80,90
1,67,80,90
1,74,80,90
1,67,80,90
1,63,80,90
1,63,80,90
1,71,80,90
1,63,80,90
1,64,80,90
1,64,80,90
1,76,80,90
1,64,80,90
1,66,80,90
1,66,80,90
1,74,80,90
1,66,80,90
1,67,80,90
1,67,80,90
1,74,80,90
1,67,80,90
1,63,80,90
1,63,80,90
1,71,80,90
1,63,80,90
1,64,80,90
1,64,80,90
1,76,80,90
1,64,80,90
1,66,80,90
1,66,80,90
1,74,80,90
1,66,80,90
1,67,80,90
1,67,80,90
1,74,80,90
1,67,80,90
1,63,80,90
1,63,80,90
1,71,80,90
1,63,80,90
1,64,80,90
1,64,80,90
1,76,80,90
1,64,80,90
1,66,80,90
1,66,80,90
1,74,80,90
1,66,80,90
1,67,80,90
1,67,80,90
1,74,80,90
1,67,80,90
1,63,80,90
1,63,80,90
1,71,80,90
1,63,80,90
1,64,80,90
1,64,80,90
1,76,80,90
1,64,80,90
1,66,80,90
1,66,80,90
1,74,80,90
1,66,80,90
1,67,80,90
1,67,80,90
1,74,80,90
1,67,80,90
1,63,80,90
1,63,80,90
1,71,80,90
1,63,80,90
1,64,80,90
1,64,80,90
1,76,80,90
1,64,80,90
1,66,80,90
1,66,80,90
1,74,80,90
1,66,80,90
1,67,80,90
1,67,80,90
1,74,80,90
1,67,80,90
1,63,80,90
1,63,80,90
1,71,80,90
1,63,80,90
1,67,76,90
1,67,76,90
1,74,89,90
1,71,85,90
1,66,85,90
1,66,89,90
1,75,89,90
1,71,93,90
1,64,85,90
1,64,89,90
1,76,89,90
1,71,85,90
1,66,89,90
1,66,89,90
1,75,85,90
1,71,89,90
1,67,76,90
1,67,89,90
1,74,89,90
1,71,85,90
1,66,89,90
1,66,89,90
1,75,89,90
1,71,85,90
1,64,89,90
1,64,89,90
1,76,89,90
1,71,89,90
1,66,85,90
1,66,89,90
1,75,76,90
1,71,89,90
1,67,76,90
1,67,85,90
1,74,93,90
1,71,89,90
1,66,89,90
1,66,89,90
1,75,89,90
1,71,89,90
1,64,85,90
1,64,85,90
1,76,76,90
1,71,89,90
1,66,93,90
1,66,93,90
1,75,85,90
1,71,76,90
1,67,76,90
1,67,89,90
1,74,89,90
1,71,89,90
1,66,89,90
1,66,89,90
1,75,85,90
1,71,93,90
1,64,85,90
1,64,89,90
1,76,89,90
1,71,89,90
1,66,93,90
1,71,85,90
1,75,76,90
1,71,76,90
1,78,89,90
1,71,89,90
1,75,85,90
1,71,89,90
1,66,89,90
1,71,89,90
1,75,85,90
1,71,89,90
1,71,76,213
1,75,85,94
1,71,85,88
1,60,98,96
1,64,80,85
1,67,89,88
1,64,85,76
1,72,80,94
1,64,56,86
1,67,89,91
1,64,76,93
1,58,93,99
1,64,85,97
1,67,98,85
1,64,64,85
1,70,85,95
1,64,59,81
1,67,89,89
1,64,80,95
1,59,102,98
1,66,76,85
1,71,85,90
1,66,72,89
1,75,93,91
1,71,93,86
1,66,60,89
1,71,98,90
1,59,102,93
1,66,64,87
1,71,93,94
1,66,62,81
1,75,93,92
1,66,62,89
1,71,93,95
1,66,85,91
1,60,98,101
1,64,80,85
1,67,89,88
1,64,85,76
1,72,80,94
1,64,56,86
1,67,89,91
1,64,76,93
1,58,93,99
1,64,85,97
1,67,98,85
1,64,64,85
1,70,85,95
1,64,59,81
1,67,89,89
1,64,80,95
1,59,102,98
1,66,76,85
1,71,85,90
1,66,72,89
1,75,93,88
1,66,62,89
1,71,93,95
1,66,85,91
1,64,80,90
1,64,80,90
1,76,80,90
1,64,80,90
1,66,80,90
1,66,80,90
1,74,80,90
1,66,80,90
1,67,80,90
1,67,80,90
1,74,80,90
1,67,80,90
1,63,80,90
1,63,80,90
1,71,80,90
1,63,80,90
1,64,80,90
1,64,80,90
1,76,80,90
1,64,80,90
1,66,80,90
1,66,80,90
1,74,80,90
1,66,80,90
1,67,80,90
1,67,80,90
1,74,80,90
1,67,80,90
1,63,80,90
1,63,80,90
1,71,80,90
1,63,80,90
1,64,80,90
1,64,80,90
1,76,80,90
1,64,80,90
1,66,80,90
1,66,80,90
1,74,80,90
1,66,80,90
1,67,80,90
1,67,80,90
1,74,80,90
1,67,80,90
1,63,80,90
1,63,80,90
1,71,80,90
1,63,80,90
1,64,80,90
1,64,80,90
1,76,80,90
1,64,80,90
1,66,80,90
1,66,80,90
1,74,80,90
1,66,80,90
1,67,80,90
1,67,80,90
1,74,80,90
1,67,80,90
1,63,80,90
1,63,80,90
1,71,80,90
1,63,80,90
1,64,80,90
1,64,80,90
1,76,80,90
1,64,80,90
1,66,80,90
1,66,80,90
1,74,80,90
1,66,80,90
1,67,80,90
1,67,80,90
1,74,80,90
1,67,80,90
1,63,80,90
1,63,80,90
1,71,80,90
1,63,80,90
1,64,80,90
1,64,80,90
1,76,80,90
1,64,80,90
1,66,80,90
1,66,80,90
1,74,80,90
1,66,80,90
1,67,80,90
1,67,80,90
1,74,80,90
1,67,80,90
1,63,80,90
1,63,80,90
1,71,80,90
1,63,80,90
1,64,80,90
1,64,80,90
1,76,80,90
1,64,80,90
1,66,80,90
1,66,80,90
1,74,80,90
1,66,80,90
1,67,80,90
1,67,80,90
1,74,80,90
1,67,80,90
1,63,80,90
1,63,80,90
1,71,80,90
1,63,80,90
1,64,80,90
1,64,80,90
1,76,80,90
1,64,80,90
1,66,80,90
1,66,80,90
1,74,80,90
1,66,80,90
1,67,80,90
1,67,80,90
1,74,80,90
1,67,80,90
1,63,80,90
1,63,80,90
1,71,80,90
1,63,80,90
1,64,80,90
1,64,80,90
1,76,80,90
1,64,80,90
1,66,80,90
1,66,80,90
1,74,80,90
1,66,80,90
1,67,80,90
1,67,80,90
1,74,80,90
1,67,80,90
1,63,80,90
1,63,80,90
1,71,80,90
1,63,80,90
1,64,80,90
1,64,80,90
1,76,80,90
1,64,80,90
1,66,80,90
1,66,80,90
1,74,80,90
1,66,80,90
1,67,80,90
1,67,80,90
1,74,80,90
1,67,80,90
1,63,80,90
1,63,80,90
1,71,80,90
1,63,80,90
1,64,80,90
1,64,80,90
1,76,80,90
1,64,80,90
1,66,80,90
1,66,80,90
1,74,80,90
1,66,80,90
1,67,80,90
1,67,80,90
1,74,80,90
1,67,80,90
1,63,80,90
1,63,80,90
1,71,80,90
1,63,80,90
1,64,80,90
1,64,80,90
1,76,80,90
1,64,80,90
1,66,80,90
1,66,80,90
1,74,80,90
1,66,80,90
1,67,80,90
1,67,80,90
1,74,80,90
1,67,80,90
1,63,80,90
1,63,80,90
1,71,80,90
1,63,80,90
1,64,80,90
1,64,80,90
1,76,80,90
1,64,80,90
1,66,80,90
1,66,80,90
1,74,80,90
1,66,80,90
1,67,80,90
1,67,80,90
1,74,80,90
1,67,80,90
1,63,80,90
1,63,80,90
1,71,80,90
1,63,80,90
1,64,80,90
1,64,80,90
1,76,80,90
1,64,80,90
1,66,80,90
1,66,80,90
1,74,80,90
1,66,80,90
1,67,80,90
1,67,80,90
1,74,80,90
1,67,80,90
1,63,80,90
1,63,80,90
1,71,80,90
1,63,80,90
1,64,80,90
1,64,80,90
1,76,80,90
1,64,80,90
1,66,80,90
1,66,80,90
1,74,80,90
1,66,80,90
1,67,80,90
1,67,80,90
1,74,80,90
1,67,80,90
1,63,80,90
1,63,80,90
1,71,80,90
1,63,80,90
2,63,76,65760
2,59,80,0
2,66,72,0
2,47,85,0
2,64,64,79
2,60,76,4
2,67,72,2
2,64,68,26
2,58,57,7
2,67,51,2
2,63,76,35
2,66,72,3
2,59,85,1
2,60,68,65
2,64,76,3
2,67,85,2
2,58,51,78
2,63,62,19
2,59,56,2
2,66,57,5
2,66,57,0
2,59,56,0
2,63,62,0
3,76,62,1920
3,79,80,114
3,83,89,112
3,76,85,176
3,79,89,124
3,83,89,118
3,76,62,161
3,79,80,114
3,83,89,112
3,76,85,176
3,79,89,124
3,83,89,118
3,76,62,161
3,79,80,114
3,83,89,112
3,76,85,176
3,79,89,124
3,83,89,118
3,76,62,161
3,79,80,114
3,83,89,112
3,76,85,176
3,76,62,11
3,79,80,114
3,83,89,112
3,76,85,176
4,63,102,24480
4,47,113,0
4,54,107,2
4,59,107,3
4,54,102,54
4,47,127,22
4,59,119,3
4,63,119,1
4,59,113,14908
4,47,119,0
4,54,107,0
4,63,113,0
4,54,119,79
4,47,119,13
4,63,107,3
4,54,93,2
4,59,107,3
4,48,113,26
4,60,107,3
4,64,107,3
4,55,102,2
4,64,102,5
4,55,89,1
4,58,102,4
4,46,113,2
4,54,107,36
4,63,102,2
4,59,119,2
4,47,102,3
4,47,113,81
4,45,102,5
4,43,102,22
4,42,98,2
4,59,127,18727
4,47,119,0
4,63,113,0
4,54,113,0
4,54,119,47
4,63,107,15
4,47,119,3
4,59,113,2
4,54,107,3
4,60,107,12
4,48,113,2
4,64,102,4
4,55,102,2
4,64,98,21
4,55,89,2
4,46,107,3
4,58,107,3
4,63,89,15
4,54,102,2
4,59,102,2
4,47,89,4
4,66,93,133
4,71,113,2
4,75,93,3
4,75,113,21
4,71,113,2
4,66,119,4
4,64,119,45
4,60,119,0
4,48,119,0
4,55,107,0
4,64,102,44
4,55,93,2
4,58,98,2
4,46,119,4
4,63,107,52
4,54,113,3
4,47,119,2
4,59,119,3
4,59,119,0
4,54,113,0
4,63,107,0
4,43,93,1
4,42,107,33
4,52,107,144
4,40,113,4
4,42,98,5
4,42,107,15
4,42,102,21
5,39,107,3480
5,39,107,29
5,39,119,33
5,40,107,7
5,28,119,120
5,30,107,154
5,30,98,32
5,30,113,23
