track,note,velocity,time
1,40,102,1280
1,40,0,88
1,40,102,56
1,40,0,38
1,47,102,10
1,52,102,96
1,47,0,4
1,52,0,176
1,47,105,12
1,47,0,188
1,40,102,4
1,36,94,96
1,40,0,6
1,36,0,78
1,36,105,60
1,36,0,42
1,43,90,6
1,48,94,96
1,43,0,16
1,43,73,176
1,48,0,2
1,36,105,190
1,43,0,2
1,36,0,90
1,33,102,4
1,33,0,90
1,33,105,54
1,33,0,46
1,40,105,2
1,45,105,96
1,40,0,6
1,45,0,184
1,40,105,2
1,40,0,188
1,33,102,4
1,33,0,94
1,36,94,2
1,36,0,92
1,36,105,52
1,43,73,48
1,36,0,2
1,48,94,94
1,43,0,10
1,48,0,176
1,36,94,6
1,43,90,192
1,36,0,4
1,43,0,90
1,40,102,2
1,40,0,88
1,40,102,56
1,40,0,38
1,47,102,10
1,52,102,96
1,47,0,4
1,52,0,176
1,47,105,12
1,47,0,188
1,40,102,4
1,36,94,96
1,40,0,6
1,36,0,78
1,36,105,60
1,36,0,42
1,43,90,6
1,48,94,96
1,43,0,16
1,43,73,176
1,48,0,2
1,36,105,190
1,43,0,2
1,36,0,90
1,33,102,4
1,33,0,90
1,33,105,54
1,33,0,46
1,40,105,2
1,45,105,96
1,40,0,6
1,45,0,184
1,40,105,2
1,40,0,188
1,33,102,4
1,33,0,94
1,36,94,2
1,36,0,92
1,36,105,52
1,43,73,48
1,36,0,2
1,48,94,94
1,43,0,10
1,48,0,176
1,36,94,6
1,43,90,192
1,36,0,4
1,43,0,88
1,40,102,4
1,40,0,88
1,40,102,56
1,40,0,38
1,47,102,10
1,52,102,96
1,47,0,4
1,52,0,176
1,47,105,12
1,47,0,188
1,40,102,4
1,36,94,96
1,40,0,6
1,36,0,78
1,36,105,60
1,36,0,42
1,43,90,6
1,48,94,96
1,43,0,16
1,43,73,176
1,48,0,2
1,36,105,190
1,43,0,2
1,36,0,90
1,33,102,4
1,33,0,90
1,33,105,54
1,33,0,46
1,40,105,2
1,45,105,96
1,40,0,6
1,45,0,184
1,40,105,2
1,40,0,188
1,33,102,4
1,33,0,94
1,36,94,2
1,36,0,92
1,36,105,52
1,43,73,48
1,36,0,2
1,48,94,94
1,43,0,10
1,48,0,176
1,36,94,6
1,43,90,192
1,36,0,4
1,43,0,90
1,40,102,2
1,40,0,88
1,40,102,58
1,40,0,36
1,47,102,10
1,52,102,96
1,47,0,4
1,52,0,176
1,47,105,12
1,47,0,188
1,40,102,4
1,36,94,96
1,40,0,6
1,36,0,78
1,36,105,60
1,36,0,42
1,43,90,6
1,48,94,96
1,43,0,16
1,43,73,176
1,48,0,2
1,36,105,190
1,43,0,2
1,36,0,90
1,33,102,4
1,33,0,90
1,33,105,54
1,33,0,46
1,40,105,2
1,45,105,96
1,40,0,6
1,45,0,184
1,40,105,2
1,40,0,188
1,33,102,4
1,33,0,94
1,36,94,2
1,36,0,92
1,36,105,52
1,43,73,48
1,36,0,2
1,48,94,94
1,43,0,10
1,48,0,176
1,36,94,6
1,43,90,192
1,36,0,4
1,43,0,90
1,40,102,2
1,40,0,88
1,40,102,56
1,40,0,38
1,47,102,10
1,52,102,96
1,47,0,4
1,52,0,176
1,47,105,12
1,47,0,188
1,40,102,4
1,36,94,96
1,40,0,6
1,36,0,78
1,36,105,60
1,36,0,42
1,43,90,6
1,48,94,96
1,43,0,16
1,43,73,176
1,48,0,2
1,36,105,190
1,43,0,2
1,36,0,90
1,33,102,4
1,33,0,90
1,33,105,54
1,33,0,46
1,40,105,2
1,45,105,96
1,40,0,6
1,45,0,184
1,40,105,2
1,40,0,188
1,33,102,4
1,33,0,94
1,36,94,2
1,36,0,92
1,36,105,52
1,43,73,48
1,36,0,2
1,48,94,94
1,43,0,10
1,48,0,176
1,36,94,6
1,43,90,192
1,36,0,4
1,43,0,90
1,40,102,2
1,40,0,88
1,40,102,56
1,40,0,38
1,47,102,10
1,52,102,96
1,47,0,2
1,52,0,178
1,47,105,12
1,47,0,188
1,40,102,4
1,36,94,96
1,40,0,6
1,36,0,78
1,36,105,60
1,36,0,42
1,43,90,6
1,48,94,96
1,43,0,16
1,43,73,176
1,48,0,2
1,36,105,190
1,43,0,2
1,36,0,90
1,33,102,4
1,33,0,88
1,33,105,56
1,33,0,46
1,40,105,2
1,45,105,96
1,40,0,6
1,45,0,184
1,40,105,2
1,40,0,188
1,33,102,4
1,33,0,94
1,36,94,2
1,36,0,92
1,36,105,52
1,43,73,48
1,36,0,2
1,48,94,94
1,43,0,10
1,48,0,176
1,36,94,6
1,43,90,192
1,36,0,4
1,43,0,90
1,40,102,6
1,40,0,1452
1,40,102,80
1,40,0,82
1,40,105,62
1,40,0,34
1,47,105,14
1,47,0,90
1,52,102,6
1,52,0,180
1,47,102,12
1,47,0,176
1,40,102,16
1,35,105,96
1,40,0,4
1,35,0,80
1,35,105,60
1,35,0,34
1,42,102,14
1,47,102,96
1,42,0,2
1,47,0,170
1,42,105,20
1,42,0,154
1,35,105,38
1,35,0,84
1,38,102,12
1,38,0,84
1,38,105,60
1,38,0,26
1,45,102,22
1,45,0,92
1,50,105,4
1,50,0,176
1,45,105,16
1,45,0,156
1,38,105,36
1,38,0,80
1,33,102,16
1,33,0,104
1,33,102,184
1,33,0,82
1,45,102,14
1,45,0,48
1,33,102,48
1,33,0,78
1,45,105,18
1,45,0,66
1,33,102,30
1,33,0,70
1,40,102,26
1,40,0,82
1,40,105,62
1,40,0,32
1,47,105,18
1,47,0,88
1,52,102,6
1,52,0,180
1,47,102,12
1,47,0,176
1,40,102,16
1,35,105,96
1,40,0,4
1,35,0,80
1,35,105,60
1,35,0,34
1,42,102,14
1,47,102,96
1,42,0,2
1,47,0,168
1,42,105,22
1,42,0,154
1,35,105,38
1,35,0,84
1,38,102,12
1,38,0,84
1,38,105,60
1,38,0,26
1,45,102,22
1,45,0,92
1,50,105,4
1,50,0,176
1,45,105,16
1,45,0,156
1,38,105,36
1,38,0,80
1,33,102,16
1,33,0,104
1,33,102,184
1,33,0,82
1,45,102,14
1,45,0,50
1,33,102,46
1,33,0,78
1,45,105,18
1,45,0,66
1,33,102,30
1,33,0,70
1,40,102,26
1,40,0,82
1,40,105,62
1,40,0,34
1,47,105,14
1,47,0,90
1,52,102,6
1,52,0,180
1,47,102,12
1,47,0,176
1,40,102,16
1,35,105,96
1,40,0,4
1,35,0,80
1,35,105,60
1,35,0,34
1,42,102,14
1,47,102,96
1,42,0,2
1,47,0,170
1,42,105,20
1,42,0,154
1,35,105,38
1,35,0,84
1,38,102,12
1,38,0,84
1,38,105,60
1,38,0,26
1,45,102,22
1,45,0,92
1,50,105,4
1,50,0,176
1,45,105,16
1,45,0,156
1,38,105,36
1,38,0,80
1,33,102,16
1,33,0,104
1,33,102,184
1,33,0,82
1,45,102,14
1,45,0,50
1,33,102,46
1,33,0,78
1,45,105,18
1,45,0,66
1,33,102,30
1,33,0,70
1,40,102,26
1,40,0,82
1,40,105,62
1,40,0,34
1,47,105,14
1,47,0,90
1,52,102,6
1,52,0,180
1,47,102,12
1,47,0,176
1,40,102,16
1,35,105,96
1,40,0,4
1,35,0,80
1,35,105,60
1,35,0,34
1,42,102,14
1,47,102,96
1,42,0,2
1,47,0,170
1,42,105,20
1,42,0,154
1,35,105,38
1,35,0,84
1,38,102,12
1,38,0,82
1,38,105,62
1,38,0,26
1,45,102,22
1,45,0,92
1,50,105,4
1,50,0,176
1,45,105,16
1,45,0,156
1,38,105,36
1,38,0,80
1,33,102,16
1,33,0,104
1,33,102,184
1,33,0,80
1,45,102,16
1,45,0,50
1,33,102,46
1,33,0,78
1,45,105,18
1,45,0,66
1,33,102,30
1,33,0,70
1,40,102,26
1,40,0,88
1,40,102,56
1,40,0,38
1,47,102,10
1,52,102,96
1,47,0,4
1,52,0,176
1,47,105,12
1,47,0,188
1,40,102,4
1,36,94,96
1,40,0,6
1,36,0,78
1,36,105,60
1,36,0,42
1,43,90,6
1,48,94,96
1,43,0,16
1,43,73,176
1,48,0,2
1,36,105,190
1,43,0,2
1,36,0,90
1,33,102,4
1,33,0,90
1,33,105,54
1,33,0,46
1,40,105,2
1,45,105,96
1,40,0,6
1,45,0,184
1,40,105,2
1,40,0,188
1,33,102,4
1,33,0,94
1,36,94,2
1,36,0,92
1,36,105,52
1,43,73,48
1,36,0,2
1,48,94,94
1,43,0,10
1,48,0,176
1,36,94,6
1,43,90,192
1,36,0,4
1,43,0,90
1,40,102,2
1,40,0,88
1,40,102,56
1,40,0,38
1,47,102,10
1,52,102,96
1,47,0,4
1,52,0,176
1,47,105,12
1,47,0,188
1,40,102,4
1,36,94,96
1,40,0,6
1,36,0,78
1,36,105,60
1,36,0,42
1,43,90,6
1,48,94,96
1,43,0,16
1,43,73,176
1,48,0,2
1,36,105,190
1,43,0,2
1,36,0,90
1,33,102,4
1,33,0,90
1,33,105,54
1,33,0,46
1,40,105,2
1,45,105,96
1,40,0,6
1,45,0,184
1,40,105,2
1,40,0,188
1,33,102,4
1,33,0,94
1,36,94,2
1,36,0,92
1,36,105,52
1,43,73,48
1,36,0,2
1,48,94,94
1,43,0,10
1,48,0,176
1,36,94,6
1,43,90,192
1,36,0,4
1,43,0,90
1,40,102,2
1,40,0,88
1,40,102,56
1,40,0,38
1,47,102,10
1,52,102,96
1,47,0,4
1,52,0,176
1,47,105,12
1,47,0,188
1,40,102,4
1,36,94,96
1,40,0,6
1,36,0,78
1,36,105,60
1,36,0,42
1,43,90,6
1,48,94,96
1,43,0,16
1,43,73,176
1,48,0,2
1,36,105,190
1,43,0,2
1,36,0,90
1,33,102,4
1,33,0,90
1,33,105,56
1,33,0,44
1,40,105,2
1,45,105,96
1,40,0,6
1,45,0,184
1,40,105,2
1,40,0,188
1,33,102,4
1,33,0,94
1,36,94,2
1,36,0,92
1,36,105,52
1,43,73,48
1,36,0,2
1,48,94,94
1,43,0,10
1,48,0,176
1,36,94,6
1,43,90,192
1,36,0,4
1,43,0,90
1,40,102,2
1,40,0,88
1,40,102,56
1,40,0,38
1,47,102,10
1,52,102,96
1,47,0,4
1,52,0,176
1,47,105,12
1,47,0,188
1,40,102,4
1,36,94,96
1,40,0,6
1,36,0,78
1,36,105,60
1,36,0,42
1,43,90,6
1,48,94,96
1,43,0,16
1,43,73,176
1,48,0,2
1,36,105,190
1,43,0,2
1,36,0,90
1,33,102,4
1,33,0,90
1,33,105,54
1,33,0,46
1,40,105,2
1,45,105,96
1,40,0,6
1,45,0,184
1,40,105,2
1,40,0,188
1,33,102,4
1,33,0,94
1,36,94,2
1,36,0,92
1,36,105,52
1,43,73,48
1,36,0,2
1,48,94,94
1,43,0,10
1,48,0,176
1,36,94,6
1,43,90,192
1,36,0,4
1,43,0,90
1,40,102,2
1,40,0,88
1,40,102,56
1,40,0,38
1,47,102,10
1,52,102,96
1,47,0,4
1,52,0,176
1,47,105,12
1,47,0,188
1,40,102,4
1,36,94,96
1,40,0,6
1,36,0,78
1,36,105,60
1,36,0,42
1,43,90,6
1,48,94,96
1,43,0,16
1,43,73,176
1,48,0,2
1,36,105,190
1,43,0,2
1,36,0,90
1,33,102,4
1,33,0,90
1,33,105,54
1,33,0,46
1,40,105,2
1,45,105,96
1,40,0,6
1,45,0,184
1,40,105,2
1,40,0,188
1,33,102,4
1,33,0,94
1,36,94,2
1,36,0,92
1,36,105,52
1,43,73,48
1,36,0,2
1,48,94,94
1,43,0,10
1,48,0,176
1,36,94,6
1,43,90,192
1,36,0,4
1,43,0,90
1,40,102,6
1,40,0,1452
1,40,102,80
1,40,0,82
1,40,105,62
1,40,0,34
1,47,105,14
1,47,0,90
1,52,102,6
1,52,0,180
1,47,102,12
1,47,0,176
1,40,102,16
1,35,105,96
1,40,0,4
1,35,0,80
1,35,105,60
1,35,0,34
1,42,102,14
1,47,102,96
1,42,0,2
1,47,0,170
1,42,105,20
1,42,0,152
1,35,105,40
1,35,0,86
1,38,102,10
1,38,0,84
1,38,105,60
1,38,0,26
1,45,102,22
1,45,0,92
1,50,105,4
1,50,0,176
1,45,105,16
1,45,0,156
1,38,105,36
1,38,0,80
1,33,102,16
1,33,0,104
1,33,102,184
1,33,0,82
1,45,102,14
1,45,0,50
1,33,102,46
1,33,0,78
1,45,105,18
1,45,0,64
1,33,102,32
1,33,0,70
1,40,102,26
1,40,0,82
1,40,105,62
1,40,0,34
1,47,105,14
1,47,0,90
1,52,102,6
1,52,0,180
1,47,102,12
1,47,0,176
1,40,102,16
1,35,105,96
1,40,0,4
1,35,0,80
1,35,105,60
1,35,0,34
1,42,102,14
1,47,102,96
1,42,0,2
1,47,0,170
1,42,105,20
1,42,0,154
1,35,105,38
1,35,0,84
1,38,102,12
1,38,0,84
1,38,105,60
1,38,0,26
1,45,102,22
1,45,0,92
1,50,105,4
1,50,0,176
1,45,105,16
1,45,0,156
1,38,105,36
1,38,0,80
1,33,102,16
1,33,0,104
1,33,102,184
1,33,0,82
1,45,102,14
1,45,0,50
1,33,102,46
1,33,0,78
1,45,105,18
1,45,0,64
1,33,102,32
1,33,0,70
1,40,102,26
1,40,0,82
1,40,105,62
1,40,0,34
1,47,105,14
1,47,0,88
1,52,102,8
1,52,0,180
1,47,102,12
1,47,0,176
1,40,102,16
1,35,105,96
1,40,0,4
1,35,0,80
1,35,105,60
1,35,0,34
1,42,102,14
1,47,102,96
1,42,0,2
1,47,0,170
1,42,105,20
1,42,0,154
1,35,105,38
1,35,0,84
1,38,102,12
1,38,0,84
1,38,105,60
1,38,0,26
1,45,102,22
1,45,0,92
1,50,105,6
1,50,0,174
1,45,105,16
1,45,0,156
1,38,105,36
1,38,0,80
1,33,102,16
1,33,0,104
1,33,102,184
1,33,0,82
1,45,102,14
1,45,0,50
1,33,102,46
1,33,0,78
1,45,105,18
1,45,0,66
1,33,102,30
1,33,0,72
1,40,102,24
1,40,0,80
1,40,105,64
1,40,0,34
1,47,105,14
1,47,0,90
1,52,102,6
1,52,0,180
1,47,102,12
1,47,0,176
1,40,102,16
1,35,105,96
1,40,0,4
1,35,0,80
1,35,105,60
1,35,0,34
1,42,102,14
1,47,102,96
1,42,0,2
1,47,0,170
1,42,105,20
1,42,0,152
1,35,105,40
1,35,0,84
1,38,102,12
1,38,0,84
1,38,105,60
1,38,0,26
1,45,102,22
1,45,0,92
1,50,105,4
1,50,0,176
1,45,105,16
1,45,0,156
1,38,105,36
1,38,0,80
1,33,102,16
1,33,0,104
1,33,102,184
1,33,0,82
1,45,102,14
1,45,0,50
1,33,102,46
1,33,0,78
1,45,105,18
1,45,0,66
1,33,102,30
1,33,0,70
1,37,105,26
1,37,0,672
1,33,102,0
1,33,0,508
1,40,102,68
1,40,0,78
1,42,102,114
1,42,0,564
1,40,102,12
1,40,0,84
1,33,105,108
1,33,0,556
1,35,105,20
1,35,0,90
1,37,102,102
1,37,0,538
1,37,102,38
1,37,0,72
1,33,102,120
1,40,102,576
1,33,0,2
1,40,0,68
1,42,102,122
1,42,0,560
1,40,105,16
1,40,0,80
1,33,105,112
1,33,0,534
1,35,102,42
1,35,0,88
1,37,105,104
1,37,0,548
1,40,102,28
1,40,0,76
1,42,102,116
1,42,0,532
1,40,105,44
1,40,0,82
1,33,105,110
1,33,0,540
1,35,105,36
1,35,0,68
1,37,105,124
1,37,0,516
1,37,105,60
1,37,0,80
1,37,102,112
1,37,0,524
1,40,105,52
1,40,0,84
1,42,102,108
1,42,0,514
1,40,105,62
1,40,0,70
1,33,102,122
1,33,0,572
1,35,102,4
1,35,0,72
1,37,102,120
1,37,0,406
1,37,102,74
1,37,0,102
1,37,105,90
1,37,0,116
1,37,105,76
1,37,0,72
1,37,105,72
1,37,0,34
1,49,102,14
1,47,102,96
1,49,0,4
1,47,0,176
1,44,94,12
1,44,0,178
1,40,102,14
1,40,0,94
1,30,90,2
1,30,0,84
1,30,102,60
1,30,0,40
1,37,102,8
1,40,102,96
1,37,0,4
1,40,0,170
