track,note,velocity,time
2,76,94,1
2,76,0,16
2,76,94,1
2,76,0,16
2,76,94,0
2,76,0,15
2,76,94,1
2,76,0,15
2,76,94,1
2,76,0,16
2,76,94,1
2,76,0,15
2,76,94,1
2,76,0,15
2,76,94,1
2,76,0,16
2,76,94,1
2,76,0,15
2,77,94,1
2,77,0,16
2,77,94,0
2,77,0,15
2,77,94,1
2,77,0,16
2,76,94,1
2,76,0,16
2,76,94,1
2,76,0,16
2,76,94,0
2,76,0,15
2,76,94,1
2,76,0,15
2,76,94,1
2,76,0,16
2,76,94,1
2,76,0,15
2,76,94,1
2,76,0,15
2,76,94,1
2,76,0,16
2,76,94,1
2,76,0,15
2,77,94,1
2,77,0,16
2,77,94,0
2,77,0,15
2,77,94,1
2,77,0,16
2,76,94,1
2,76,0,16
2,76,94,1
2,76,0,16
2,76,94,0
2,76,0,15
2,76,94,1
2,76,0,15
2,76,94,1
2,76,0,16
2,76,94,1
2,76,0,15
2,76,94,1
2,76,0,15
2,76,94,1
2,76,0,16
2,76,94,1
2,76,0,15
2,77,94,1
2,77,0,16
2,77,94,0
2,77,0,15
2,77,94,1
2,77,0,16
2,76,94,3
2,76,0,45
2,76,94,15
2,76,0,45
2,76,94,14
2,76,0,45
2,76,94,76
2,76,0,44
2,76,94,16
2,76,0,45
2,76,94,15
2,76,0,44
2,76,94,76
2,76,0,44
2,76,94,16
2,76,0,45
2,76,94,15
2,76,0,44
2,77,94,76
2,77,0,45
2,77,94,14
2,77,0,45
2,77,94,16
2,77,0,45
2,76,94,75
2,76,0,45
2,76,94,15
2,76,0,45
2,76,94,14
2,76,0,45
2,76,94,76
2,76,0,44
2,76,94,16
2,76,0,45
2,76,94,15
2,76,0,44
2,76,94,76
2,76,0,44
2,76,94,16
2,76,0,45
2,76,94,15
2,76,0,44
2,77,94,76
2,77,0,45
2,77,94,14
2,77,0,45
2,77,94,16
2,77,0,45
2,76,94,75
2,76,0,45
2,76,94,15
2,76,0,45
2,76,94,14
2,76,0,45
2,76,94,76
2,76,0,44
2,76,94,16
2,76,0,45
2,76,94,15
2,76,0,44
2,76,94,76
2,76,0,44
2,76,94,16
2,76,0,45
2,76,94,15
2,76,0,44
2,77,94,76
2,77,0,45
2,77,94,14
2,77,0,45
2,77,94,16
2,77,0,45
2,76,94,75
2,76,0,45
2,76,94,15
2,76,0,45
2,76,94,14
2,76,0,45
2,76,94,76
2,76,0,44
2,76,94,16
2,76,0,45
2,76,94,15
2,76,0,44
2,76,94,76
2,76,0,44
2,76,94,16
2,76,0,45
2,76,94,15
2,76,0,44
2,77,94,76
2,77,0,45
2,77,94,14
2,77,0,45
2,77,94,16
2,77,0,45
2,36,114,974
2,36,0,58
2,40,116,2
2,40,0,1
2,40,121,19
2,40,0,40
2,36,119,60
2,36,0,92
2,49,95,28
2,35,114,1
2,42,114,0
2,49,0,39
2,42,0,5
2,35,0,0
2,42,64,16
2,42,0,45
2,42,64,14
2,42,0,45
2,42,64,16
2,42,0,45
2,39,114,14
2,40,114,1
2,42,114,1
2,40,0,43
2,39,0,0
2,42,0,1
2,42,64,15
2,42,0,45
2,35,114,15
2,42,64,0
2,42,0,44
2,35,0,0
2,42,64,16
2,42,0,45
2,35,114,15
2,42,114,0
2,42,0,44
2,35,0,0
2,42,64,15
2,42,0,46
2,42,64,15
2,42,0,45
2,42,64,14
2,42,0,46
2,40,114,15
2,39,114,0
2,42,114,1
2,39,0,44
2,40,0,0
2,42,0,1
2,42,64,13
2,42,0,45
2,42,64,16
2,42,0,45
2,42,64,14
2,42,0,45
2,35,114,16
2,42,114,0
2,42,0,45
2,35,0,0
2,42,64,15
2,42,0,44
2,42,64,16
2,42,0,45
2,42,64,15
2,42,0,44
2,39,114,16
2,40,114,0
2,42,114,1
2,40,0,44
2,39,0,0
2,42,0,1
2,42,64,14
2,42,0,44
2,42,64,15
2,42,0,45
2,42,64,16
2,42,0,45
2,35,114,14
2,42,114,1
2,42,0,44
2,35,0,0
2,42,64,16
2,42,0,44
2,42,64,16
2,42,0,44
2,35,114,15
2,42,64,0
2,42,0,46
2,35,0,0
2,39,114,15
2,40,114,1
2,42,114,0
2,39,0,43
2,42,0,1
2,40,0,0
2,42,64,14
2,42,0,45
2,35,114,16
2,42,64,0
2,42,0,44
2,35,0,0
2,42,64,16
2,42,0,45
2,35,114,15
2,42,114,0
2,42,0,44
2,35,0,0
2,42,64,16
2,42,0,45
2,42,64,14
2,42,0,45
2,42,64,16
2,42,0,45
2,39,114,14
2,40,114,1
2,42,114,1
2,40,0,43
2,39,0,0
2,42,0,1
2,42,64,15
2,42,0,45
2,35,114,15
2,42,64,0
2,42,0,44
2,35,0,0
2,42,64,16
2,42,0,45
2,35,114,15
2,42,114,0
2,42,0,44
2,35,0,0
2,42,64,15
2,42,0,46
2,42,64,15
2,42,0,45
2,42,64,14
2,42,0,46
2,40,114,15
2,39,114,0
2,42,114,1
2,39,0,44
2,40,0,0
2,42,0,1
2,42,64,13
2,42,0,45
2,42,64,16
2,42,0,45
2,42,64,14
2,42,0,45
2,35,114,16
2,42,114,0
2,42,0,45
2,35,0,0
2,42,64,15
2,42,0,44
2,42,64,16
2,42,0,45
2,42,64,15
2,42,0,44
2,39,114,16
2,40,114,0
2,42,114,1
2,40,0,44
2,39,0,0
2,42,0,1
2,42,64,14
2,42,0,44
2,42,64,15
2,42,0,45
2,42,64,16
2,42,0,45
2,35,114,14
2,42,114,1
2,42,0,44
2,35,0,0
2,42,64,16
2,42,0,44
2,42,64,16
2,42,0,44
2,35,114,15
2,42,64,0
2,42,0,46
2,35,0,0
2,39,114,15
2,40,114,1
2,42,114,0
2,39,0,43
2,42,0,1
2,40,0,0
2,42,64,14
2,42,0,45
2,35,114,16
2,42,64,0
2,42,0,44
2,35,0,0
2,42,64,16
2,42,0,45
2,35,114,15
2,42,114,0
2,42,0,44
2,35,0,0
2,42,64,16
2,42,0,45
2,42,64,14
2,42,0,45
2,42,64,16
2,42,0,45
2,39,114,14
2,40,114,1
2,42,114,1
2,40,0,43
2,39,0,0
2,42,0,1
2,42,64,15
2,42,0,45
2,35,114,15
2,42,64,0
2,42,0,44
2,35,0,0
2,42,64,16
2,42,0,45
2,35,114,15
2,42,114,0
2,42,0,44
2,35,0,0
2,42,64,15
2,42,0,46
2,42,64,15
2,42,0,45
2,42,64,14
2,42,0,46
2,40,114,15
2,39,114,0
2,42,114,1
2,39,0,44
2,40,0,0
2,42,0,1
2,42,64,13
2,42,0,45
2,42,64,16
2,42,0,45
2,42,64,14
2,42,0,45
2,35,114,16
2,42,114,0
2,42,0,45
2,35,0,0
2,42,64,15
2,42,0,44
2,42,64,16
2,42,0,45
2,42,64,15
2,42,0,44
2,39,114,16
2,40,114,0
2,42,114,1
2,40,0,44
2,39,0,0
2,42,0,1
2,42,64,14
2,42,0,44
2,42,64,15
2,42,0,45
2,42,64,16
2,42,0,45
2,35,114,14
2,42,114,1
2,42,0,44
2,35,0,0
2,42,64,16
2,42,0,44
2,42,64,16
2,42,0,44
2,35,114,15
2,42,64,0
2,42,0,46
2,35,0,0
2,39,114,15
2,40,114,1
2,42,114,0
2,39,0,43
2,42,0,1
2,40,0,0
2,42,64,14
2,42,0,45
2,35,114,16
2,42,64,0
2,42,0,44
2,35,0,0
2,42,64,16
2,42,0,45
2,35,114,15
2,42,114,0
2,42,0,45
2,35,0,0
2,42,64,15
2,42,0,44
2,42,64,16
2,42,0,45
2,42,64,15
2,42,0,45
2,39,114,15
2,40,114,0
2,42,114,1
2,39,0,43
2,42,0,1
2,40,0,0
2,42,64,15
2,42,0,45
2,35,114,14
2,42,64,1
2,42,0,45
2,35,0,0
2,42,64,15
2,42,0,44
2,35,114,16
2,42,114,0
2,42,0,44
2,35,0,0
2,42,64,16
2,42,0,44
2,42,64,16
2,42,0,44
2,42,64,15
2,42,0,45
2,40,114,16
2,39,114,0
2,42,114,1
2,40,0,43
2,42,0,1
2,39,0,0
2,42,64,15
2,42,0,45
2,42,64,15
2,42,0,44
2,42,64,16
2,42,0,45
2,35,114,15
2,42,114,0
2,42,0,45
2,35,0,0
2,42,64,14
2,42,0,46
2,42,64,15
2,42,0,45
2,42,64,15
2,42,0,45
2,40,114,14
2,39,114,1
2,42,114,1
2,39,0,44
2,40,0,0
2,42,0,1
2,42,64,14
2,42,0,44
2,42,64,15
2,42,0,46
2,35,114,15
2,42,64,0
2,42,0,44
2,35,0,0
2,40,114,15
2,42,114,1
2,42,0,44
2,40,0,0
2,42,64,16
2,42,0,44
2,35,114,16
2,42,64,0
2,42,0,45
2,35,0,0
2,42,64,15
2,42,0,45
2,40,114,15
2,39,114,0
2,42,114,1
2,39,0,43
2,40,0,0
2,42,0,1
2,42,64,15
2,42,0,45
2,35,114,14
2,42,64,1
2,42,0,44
2,35,0,0
2,42,64,16
2,42,0,45
2,49,95,14
2,35,114,1
2,42,114,0
2,49,0,39
2,42,0,5
2,35,0,0
2,42,64,16
2,42,0,45
2,42,64,14
2,42,0,45
2,42,64,16
2,42,0,45
2,39,114,14
2,40,114,1
2,42,114,1
2,40,0,43
2,39,0,0
2,42,0,1
2,42,64,15
2,42,0,45
2,35,114,15
2,42,64,0
2,42,0,44
2,35,0,0
2,42,64,16
2,42,0,45
2,35,114,15
2,42,114,0
2,42,0,44
2,35,0,0
2,42,64,15
2,42,0,46
2,42,64,15
2,42,0,45
2,42,64,14
2,42,0,46
2,40,114,15
2,39,114,0
2,42,114,1
2,39,0,44
2,40,0,0
2,42,0,1
2,42,64,13
2,42,0,45
2,42,64,16
2,42,0,45
2,42,64,14
2,42,0,45
2,35,114,16
2,42,114,0
2,42,0,45
2,35,0,0
2,42,64,15
2,42,0,44
2,42,64,16
2,42,0,45
2,42,64,15
2,42,0,44
2,39,114,16
2,40,114,0
2,42,114,1
2,40,0,44
2,39,0,0
2,42,0,1
2,42,64,14
2,42,0,44
2,42,64,15
2,42,0,45
2,42,64,16
2,42,0,45
2,35,114,14
2,42,114,1
2,42,0,44
2,35,0,0
2,42,64,16
2,42,0,44
2,42,64,16
2,42,0,44
2,35,114,15
2,42,64,0
2,42,0,46
2,35,0,0
2,39,114,15
2,40,114,1
2,42,114,0
2,39,0,43
2,42,0,1
2,40,0,0
2,42,64,14
2,42,0,45
2,35,114,16
2,42,64,0
2,42,0,44
2,35,0,0
2,42,64,16
2,42,0,45
2,35,114,15
2,42,114,0
2,42,0,44
2,35,0,0
2,42,64,16
2,42,0,45
2,42,64,14
2,42,0,45
2,42,64,16
2,42,0,45
2,39,114,14
2,40,114,1
2,42,114,1
2,40,0,43
2,39,0,0
2,42,0,1
2,42,64,15
2,42,0,45
2,35,114,15
2,42,64,0
2,42,0,44
2,35,0,0
2,42,64,16
2,42,0,45
2,35,114,15
2,42,114,0
2,42,0,44
2,35,0,0
2,42,64,15
2,42,0,46
2,42,64,15
2,42,0,45
2,42,64,14
2,42,0,46
2,40,114,15
2,39,114,0
2,42,114,1
2,39,0,44
2,40,0,0
2,42,0,1
2,42,64,13
2,42,0,45
2,42,64,16
2,42,0,45
2,42,64,14
2,42,0,45
2,35,114,16
2,42,114,0
2,42,0,45
2,35,0,0
2,42,64,15
2,42,0,44
2,42,64,16
2,42,0,45
2,42,64,15
2,42,0,44
2,39,114,16
2,40,114,0
2,42,114,1
2,40,0,44
2,39,0,0
2,42,0,1
2,42,64,14
2,42,0,44
2,42,64,15
2,42,0,45
2,42,64,16
2,42,0,45
2,35,114,14
2,42,114,1
2,42,0,44
2,35,0,0
2,42,64,16
2,42,0,44
2,42,64,16
2,42,0,44
2,35,114,15
2,42,64,0
2,42,0,46
2,35,0,0
2,39,114,15
2,40,114,1
2,42,114,0
2,39,0,43
2,42,0,1
2,40,0,0
2,42,64,14
2,42,0,45
2,35,114,16
2,42,64,0
2,42,0,44
2,35,0,0
2,42,64,16
2,42,0,45
2,35,114,15
2,42,114,0
2,42,0,44
2,35,0,0
2,42,64,16
2,42,0,45
2,42,64,14
2,42,0,45
2,42,64,16
2,42,0,45
2,39,114,14
2,40,114,1
2,42,114,1
2,40,0,43
2,39,0,0
2,42,0,1
2,42,64,15
2,42,0,45
2,35,114,15
2,42,64,0
2,42,0,44
2,35,0,0
2,42,64,16
2,42,0,45
2,35,114,15
2,42,114,0
2,42,0,44
2,35,0,0
2,42,64,15
2,42,0,46
2,42,64,15
2,42,0,45
2,42,64,14
2,42,0,46
2,40,114,15
2,39,114,0
2,42,114,1
2,39,0,44
2,40,0,0
2,42,0,1
2,42,64,13
2,42,0,45
2,42,64,16
2,42,0,45
2,42,64,14
2,42,0,45
2,35,114,16
2,42,114,0
2,42,0,45
2,35,0,0
2,42,64,15
2,42,0,44
2,42,64,16
2,42,0,45
2,42,64,15
2,42,0,44
2,39,114,16
2,40,114,0
2,42,114,1
2,40,0,44
2,39,0,0
2,42,0,1
2,42,64,14
2,42,0,44
2,42,64,15
2,42,0,45
2,42,64,16
2,42,0,45
2,35,114,14
2,42,114,1
2,42,0,44
2,35,0,0
2,42,64,16
2,42,0,44
2,42,64,16
2,42,0,44
2,35,114,15
2,42,64,0
2,42,0,46
2,35,0,0
2,39,114,15
2,40,114,1
2,42,114,0
2,39,0,43
2,42,0,1
2,40,0,0
2,42,64,14
2,42,0,45
2,35,114,16
2,42,64,0
2,42,0,44
2,35,0,0
2,42,64,16
2,42,0,45
2,35,114,15
2,42,114,0
2,42,0,44
2,35,0,0
2,42,64,16
2,42,0,45
2,42,64,14
2,42,0,45
2,42,64,16
2,42,0,45
2,39,114,14
2,40,114,1
2,42,114,1
2,40,0,43
2,39,0,0
2,42,0,1
2,42,64,15
2,42,0,45
2,35,114,15
2,42,64,0
2,42,0,44
2,35,0,0
2,42,64,16
2,42,0,45
2,35,114,15
2,42,114,0
2,42,0,44
2,35,0,0
2,42,64,15
2,42,0,46
2,42,64,15
2,42,0,45
2,42,64,14
2,42,0,46
2,40,114,15
2,39,114,0
2,42,114,1
2,39,0,44
2,40,0,0
2,42,0,1
2,42,64,13
2,42,0,45
2,42,64,16
2,42,0,45
2,42,64,14
2,42,0,45
2,35,114,16
2,42,114,0
2,42,0,45
2,35,0,0
2,42,64,15
2,42,0,44
2,42,64,16
2,42,0,45
2,42,64,15
2,42,0,44
2,39,114,16
2,40,114,0
2,42,114,1
2,40,0,44
2,39,0,0
2,42,0,1
2,42,64,14
2,42,0,44
2,42,64,15
2,42,0,45
2,42,64,16
2,42,0,45
2,35,114,14
2,42,114,1
2,42,0,44
2,35,0,0
2,42,64,16
2,42,0,44
2,42,64,16
2,42,0,44
2,35,114,15
2,42,64,0
2,42,0,46
2,35,0,0
2,39,114,15
2,40,114,1
2,42,114,0
2,39,0,43
2,42,0,1
2,40,0,0
2,42,64,14
2,42,0,45
2,35,114,16
2,42,64,0
2,42,0,44
2,35,0,0
2,42,64,16
2,42,0,45
2,49,95,14
2,35,114,1
2,42,114,0
2,49,0,39
2,42,0,5
2,35,0,0
2,42,64,16
2,42,0,45
2,42,64,14
2,42,0,45
2,42,64,16
2,42,0,45
2,39,114,14
2,40,114,1
2,42,114,1
2,40,0,43
2,39,0,0
2,42,0,1
2,42,64,15
2,42,0,45
2,35,114,15
2,42,64,0
2,42,0,44
2,35,0,0
2,42,64,16
2,42,0,45
2,35,114,15
2,42,114,0
2,42,0,44
2,35,0,0
2,42,64,15
2,42,0,46
2,42,64,15
2,42,0,45
2,42,64,14
2,42,0,46
2,40,114,15
2,39,114,0
2,42,114,1
2,39,0,44
2,40,0,0
2,42,0,1
2,42,64,13
2,42,0,45
2,42,64,16
2,42,0,45
2,42,64,14
2,42,0,45
2,35,114,16
2,42,114,0
2,42,0,45
2,35,0,0
2,42,64,15
2,42,0,44
2,42,64,16
2,42,0,45
2,42,64,15
2,42,0,44
2,39,114,16
2,40,114,0
2,42,114,1
2,40,0,44
2,39,0,0
2,42,0,1
2,42,64,14
2,42,0,44
