track,note,velocity,time
3,61,52,0
3,63,67,0
3,61,0,2
3,63,0,176
3,61,43,0
3,61,0,88
3,63,61,0
3,63,0,100
3,63,61,0
3,61,47,0
3,63,0,100
3,61,0,90
3,63,52,0
3,63,0,204
3,61,50,0
3,61,0,154
3,63,64,0
3,63,0,182
3,61,62,0
3,61,0,144
3,61,55,0
3,61,0,76
3,63,31,0
3,63,0,88
3,56,53,0
3,56,0,882
3,56,63,0
3,56,0,194
3,61,56,0
3,61,0,150
3,63,67,0
3,63,0,190
3,61,29,0
3,61,0,44
3,63,62,0
3,63,0,294
3,64,50,0
3,64,0,96
3,63,64,0
3,63,0,188
3,61,62,0
3,61,0,1306
3,56,61,0
3,61,52,0
3,56,0,92
3,63,67,0
3,61,0,2
3,63,0,176
3,61,43,0
3,61,0,88
3,63,61,0
3,63,0,284
3,61,47,0
3,61,0,190
3,63,52,0
3,63,0,204
3,61,50,0
3,61,0,154
3,63,64,0
3,63,0,182
3,61,62,0
3,61,0,144
3,61,55,0
3,61,0,76
3,63,31,0
3,63,0,88
3,56,53,0
3,56,0,882
3,56,63,0
3,56,0,194
3,61,56,0
3,61,0,150
3,63,67,0
3,63,0,190
3,61,29,0
3,61,0,44
3,63,62,0
3,63,0,294
3,64,50,0
3,64,0,96
3,63,64,0
3,61,67,286
3,63,0,2
3,61,0,72
3,59,55,0
3,59,0,96
3,61,42,0
3,59,56,0
3,61,0,10
3,59,0,1088
3,56,67,0
3,56,0,152
3,61,55,0
3,61,0,194
3,63,76,0
3,63,0,188
3,61,43,0
3,61,0,90
3,63,62,0
3,63,61,0
3,63,0,36
3,61,61,0
3,63,0,112
3,61,0,486
3,56,68,0
3,56,0,180
3,61,67,0
3,63,69,0
3,61,0,8
3,61,47,0
3,63,0,6
3,61,0,90
3,63,82,0
3,63,0,746
3,61,76,0
3,61,0,134
3,61,69,0
3,61,0,120
3,61,73,0
3,61,0,116
3,61,79,0
3,61,0,352
3,59,71,0
3,59,0,146
3,63,82,0
3,63,0,144
3,61,66,0
3,61,0,74
3,63,67,0
3,63,0,88
3,59,79,0
3,59,0,1100
3,59,48,0
3,59,0,64
3,63,87,0
3,63,0,178
3,66,66,0
3,66,0,68
3,66,73,0
3,66,0,260
3,66,62,0
3,66,0,74
3,64,76,0
3,64,0,168
3,63,64,0
3,63,0,156
3,61,76,0
3,61,0,424
3,61,79,0
3,61,0,176
3,59,57,0
3,59,0,66
3,61,79,0
3,61,0,282
3,59,64,0
3,59,0,74
3,61,66,0
3,61,0,260
3,64,79,0
3,64,0,72
3,64,66,0
3,64,0,480
3,61,76,0
3,61,0,182
3,64,69,0
3,64,0,56
3,64,79,0
3,64,0,448
3,64,73,0
3,64,0,168
3,66,71,0
3,66,0,64
3,66,76,0
3,66,0,1434
3,59,33,0
3,59,0,60
3,63,79,0
3,63,0,188
3,66,79,0
3,66,0,58
3,66,87,0
3,66,0,240
3,66,69,0
3,66,0,68
3,64,76,0
3,64,0,172
3,63,67,0
3,63,0,144
3,61,76,0
3,61,0,436
3,61,79,0
3,61,0,152
3,59,46,0
3,59,0,68
3,61,79,0
3,61,0,278
3,59,52,0
3,59,0,64
3,61,79,0
3,61,0,278
3,64,68,0
3,64,0,56
3,64,79,0
3,64,0,468
3,61,71,0
3,61,0,184
3,64,68,0
3,64,0,54
3,64,76,0
3,64,0,442
3,64,69,0
3,64,0,160
3,66,71,0
3,66,0,50
3,66,82,0
3,66,0,1564
3,56,61,0
3,61,52,0
3,56,0,92
3,63,67,0
3,61,0,2
3,63,0,176
3,61,43,0
3,61,0,88
3,63,61,0
3,63,0,284
3,61,47,0
3,61,0,190
3,63,52,0
3,63,0,204
3,61,50,0
3,61,0,154
3,63,64,0
3,63,0,182
3,61,62,0
3,61,0,144
3,61,55,0
3,61,0,76
3,63,31,0
3,63,0,88
3,56,53,0
3,56,0,882
3,56,63,0
3,56,0,194
3,61,56,0
3,61,0,150
3,63,67,0
3,63,0,190
3,61,29,0
3,61,0,44
3,63,62,0
3,63,0,294
3,64,50,0
3,64,0,96
3,63,64,0
3,63,0,188
3,61,62,0
3,61,0,1306
3,61,52,0
3,63,67,0
3,61,0,2
3,63,0,176
3,61,43,0
3,61,0,88
3,63,61,0
3,63,61,0
3,63,0,40
3,61,47,0
3,63,0,100
3,61,0,90
3,63,52,0
3,63,0,204
3,61,50,0
3,61,0,154
3,63,64,0
3,63,0,182
3,61,62,0
3,61,0,144
3,61,55,0
3,61,0,76
3,63,31,2
3,63,0,88
3,56,53,0
3,56,0,882
3,56,63,0
3,56,0,194
3,61,56,0
3,61,0,150
3,63,67,0
3,63,0,190
3,61,29,0
3,61,0,44
3,63,62,0
3,63,0,294
3,64,50,0
3,64,0,96
3,63,64,0
3,61,67,0
3,63,0,2
3,61,0,72
3,59,55,0
3,59,0,96
3,61,42,0
3,59,56,0
3,61,0,10
3,59,0,1088
3,56,67,0
3,56,0,152
3,61,55,0
3,61,0,194
3,63,76,0
3,63,0,188
3,61,43,0
3,61,0,90
3,63,62,0
3,61,61,0
3,63,0,4
3,61,0,594
3,56,68,0
3,56,0,180
3,61,67,0
3,63,69,0
3,61,0,8
3,61,47,0
3,63,0,6
3,61,0,90
3,63,82,0
3,63,0,746
3,61,76,0
3,61,0,134
3,61,69,0
3,61,0,120
3,61,73,0
3,61,0,116
3,61,79,0
3,61,0,352
3,59,71,0
3,59,0,146
3,63,82,0
3,63,0,144
3,61,66,0
3,61,0,74
3,63,67,0
3,63,0,88
3,59,79,0
3,59,0,1100
3,56,61,0
3,61,52,0
3,56,0,92
3,63,67,0
3,61,0,2
3,63,0,176
3,61,43,0
3,61,0,88
3,63,61,0
3,63,0,284
3,61,47,0
3,61,0,190
3,63,52,0
3,63,0,204
3,61,50,0
3,61,0,154
3,63,64,0
3,63,0,182
3,61,62,0
3,61,0,144
3,61,55,0
3,61,0,76
3,63,31,0
3,63,0,88
3,56,53,0
3,56,0,882
3,56,63,0
3,56,0,194
3,61,56,0
3,61,0,150
3,63,67,0
3,63,0,190
3,61,29,0
3,61,0,44
3,63,62,0
3,63,0,294
3,64,50,0
3,64,0,96
3,63,64,0
3,63,0,188
3,61,62,0
3,61,0,1306
3,61,52,0
3,63,67,0
3,61,0,2
3,63,0,176
3,61,43,0
3,61,0,88
3,63,61,0
3,63,0,284
3,61,47,0
3,61,0,190
3,63,52,0
3,63,0,204
3,61,50,0
3,61,0,154
3,63,64,0
3,63,0,182
3,61,62,0
3,61,0,144
3,63,55,0
3,63,0,76
3,61,31,0
3,61,0,88
3,61,53,0
3,61,0,96
3,63,53,0
3,63,0,96
3,56,53,0
3,56,0,96
3,56,63,0
3,56,0,194
3,61,56,0
3,61,0,150
3,63,67,0
3,63,0,190
3,61,29,0
3,61,0,44
3,63,62,0
3,63,0,294
3,64,50,0
3,64,0,96
3,63,64,0
3,61,67,0
3,63,0,2
3,61,0,72
3,59,55,22
3,59,0,96
3,61,42,0
3,59,56,86
3,61,0,10
3,59,0,1088
3,59,48,0
3,59,0,64
3,63,87,0
3,63,0,178
3,66,66,0
3,66,0,68
3,66,73,0
3,66,0,260
3,66,62,0
3,66,0,74
3,64,76,0
3,64,0,168
3,63,64,0
3,63,0,156
3,61,76,0
3,61,0,424
3,61,79,0
3,61,0,176
3,59,57,0
3,59,0,66
3,61,79,0
3,61,0,282
3,59,64,0
3,59,0,74
3,61,66,0
3,61,0,260
3,64,79,0
3,64,0,72
3,64,66,0
3,64,0,480
3,61,76,0
3,61,0,182
3,64,69,0
3,64,0,56
3,64,79,0
3,64,0,448
3,64,73,0
3,64,0,168
3,66,71,0
3,66,0,64
3,66,76,0
3,66,0,1434
3,59,33,0
3,59,0,60
3,63,79,0
3,63,0,188
3,66,79,0
3,66,0,58
3,66,87,0
3,66,0,240
3,66,69,0
3,66,0,68
3,64,76,0
3,64,0,172
3,63,67,0
3,63,0,144
3,61,76,0
3,61,0,436
3,61,79,0
3,61,0,152
3,59,46,0
3,59,0,68
3,61,79,0
3,61,0,278
3,59,52,0
3,59,0,64
3,61,79,0
3,61,0,278
3,64,68,0
3,64,0,56
3,64,79,0
3,64,0,468
3,61,71,0
3,61,0,184
3,64,68,0
3,64,0,54
3,64,76,0
3,64,0,442
3,64,69,0
3,64,0,160
3,66,71,0
3,66,0,50
3,66,82,0
3,66,0,1564
4,71,69,1152
4,66,79,0
4,66,0,1480
4,71,0,10
4,66,76,46
4,61,71,0
4,61,0,1478
4,66,0,14
4,69,79,44
4,62,79,0
4,62,0,1496
4,69,0,14
4,71,69,26
4,64,68,0
4,71,0,1472
4,64,0,8
4,71,82,56
4,66,87,0
4,66,0,1478
4,71,0,0
4,61,82,58
4,66,82,0
4,61,0,1452
4,66,0,26
4,69,79,58
4,62,69,0
4,69,0,1462
4,62,0,2
4,69,84,72
4,64,64,0
4,69,0,1526
4,64,0,4
4,71,69,52230
4,66,79,0
4,66,0,1480
4,71,0,10
4,66,76,46
4,61,71,0
4,61,0,1478
4,66,0,14
4,69,79,44
4,62,79,0
4,62,0,1496
4,69,0,14
4,71,69,26
4,64,68,0
4,71,0,1472
4,64,0,8
4,71,69,56
4,66,79,0
4,66,0,1480
4,71,0,10
4,66,76,46
4,61,71,0
4,61,0,1478
4,66,0,14
4,69,79,44
4,62,79,0
4,62,0,1496
4,69,0,14
4,71,69,26
4,64,68,0
4,71,0,1472
4,64,0,8
4,71,69,56
4,66,79,0
4,66,0,1480
4,71,0,10
4,66,76,46
4,61,71,0
4,61,0,1478
4,66,0,14
4,69,79,44
4,62,79,0
4,62,0,1496
4,69,0,14
4,71,69,26
4,64,68,0
4,71,0,1472
4,64,0,8
4,71,82,56
4,66,87,0
4,66,0,1478
4,71,0,0
4,61,82,58
4,66,82,0
4,61,0,1452
4,66,0,26
4,69,79,58
4,62,69,0
4,69,0,1462
4,62,0,2
4,69,84,72
4,64,64,0
4,69,0,1526
4,64,0,4
4,71,69,12294
4,66,79,0
4,66,0,1480
4,71,0,10
4,66,76,46
4,61,71,0
4,61,0,1478
4,66,0,14
4,69,79,44
4,62,79,0
4,62,0,1496
4,69,0,14
4,71,69,26
4,64,68,0
4,71,0,1472
4,64,0,8
4,71,82,56
4,66,87,0
4,66,0,1478
4,71,0,0
4,61,82,58
4,66,82,0
4,61,0,1452
4,66,0,26
4,69,79,58
4,62,69,0
4,69,0,1462
4,62,0,2
4,64,64,72
4,71,84,0
4,71,0,1526
4,64,0,4
4,71,69,6
4,66,79,0
4,66,0,1480
4,71,0,10
4,66,76,46
4,61,71,0
4,61,0,1478
4,66,0,14
4,69,79,44
4,62,79,0
4,62,0,1496
4,69,0,14
4,71,69,26
4,64,68,0
4,71,0,1472
4,64,0,8
4,71,82,56
4,66,87,0
4,66,0,1478
4,71,0,0
4,61,82,58
4,66,82,0
4,61,0,1452
4,66,0,26
4,69,79,58
4,62,69,0
4,69,0,1462
4,62,0,2
4,64,64,72
4,71,84,0
4,71,0,1526
4,64,0,4
4,71,69,6
4,66,79,0
4,66,0,1480
4,71,0,10
4,66,76,46
4,61,71,0
4,61,0,1478
4,66,0,14
4,69,79,44
4,62,79,0
4,62,0,1496
4,69,0,14
4,71,69,26
4,64,68,0
4,71,0,1472
4,64,0,8
4,71,82,56
4,66,87,0
4,66,0,1478
4,71,0,0
5,35,99,1248
5,35,0,602
5,35,99,70
5,35,0,34
5,35,107,62
5,35,0,58
5,35,107,134
5,35,0,322
5,35,99,62
5,30,107,192
5,35,0,6
5,30,0,618
5,30,99,48
5,30,0,32
5,30,107,64
5,30,0,78
5,30,107,114
5,30,0,384
5,30,91,0
5,30,0,182
5,38,115,10
5,38,0,670
5,33,76,2
5,33,0,94
5,38,99,2
5,38,0,90
5,33,79,6
5,37,79,96
5,33,0,2
5,37,0,174
5,38,103,16
5,40,87,192
5,38,0,16
5,40,0,174
5,28,119,2
5,28,0,1014
5,28,87,42
5,40,115,96
5,28,0,26
5,40,0,352
5,35,99,6
5,35,0,602
5,35,99,70
5,35,0,34
5,35,107,62
5,35,0,58
5,35,107,134
5,35,0,322
5,35,99,62
5,30,107,192
5,35,0,6
5,30,0,618
5,30,99,48
5,30,0,32
5,30,107,64
5,30,0,78
5,30,107,114
5,30,0,384
5,30,91,0
5,30,0,182
5,38,95,10
5,38,0,662
5,30,68,10
5,30,0,86
5,38,95,10
5,38,0,94
5,33,69,2
5,37,91,96
5,33,0,10
5,36,84,566
5,37,0,2
5,36,0,670
5,43,69,0
5,45,87,96
5,43,0,6
5,45,0,88
5,43,82,2
5,43,0,576
5,37,119,108
5,37,0,590
5,37,91,70
5,37,0,66
5,37,99,224
5,37,0,560
5,40,99,14
5,40,0,752
5,42,115,10
5,42,0,56
5,42,115,138
5,42,0,326
5,37,99,66
5,37,0,796
5,37,84,160
5,37,0,76
5,37,95,112
5,37,0,580
5,40,99,10
5,40,0,738
5,42,107,16
5,42,0,48
5,42,115,150
5,42,0,306
5,37,99,68
5,37,0,782
5,37,91,90
5,37,0,66
5,37,99,224
5,37,0,560
5,40,99,14
5,40,0,752
5,42,115,10
5,42,0,56
5,42,115,138
5,42,0,326
5,37,99,66
5,37,0,796
5,37,84,64
5,37,0,76
5,37,95,208
5,37,0,580
5,40,87,0
5,49,95,192
5,40,0,6
5,47,87,186
5,49,0,8
5,47,0,178
5,42,103,198
5,42,0,76
5,42,63,20
5,42,0,62
5,42,66,34
5,42,0,60
5,42,79,36
5,42,0,74
5,40,91,22
5,40,0,80
5,37,84,112
5,37,0,768
5,37,99,96
5,37,0,68
5,37,107,220
5,32,95,576
5,37,0,24
5,32,0,570
5,32,107,78
5,32,0,68
5,32,103,220
5,32,0,558
5,39,111,18
5,39,0,624
5,39,99,48
5,39,0,70
5,39,95,218
5,39,0,566
5,40,103,10
5,40,0,2
5,47,103,8
5,47,0,28
5,35,99,18
5,35,0,602
5,35,99,70
5,35,0,34
5,35,107,62
5,35,0,58
5,35,107,134
5,35,0,322
5,35,99,62
5,30,107,192
5,35,0,6
5,30,0,618
5,30,99,48
5,30,0,32
5,30,107,64
5,30,0,78
5,30,107,114
5,30,0,384
5,30,91,0
5,30,0,182
5,38,115,10
5,38,0,670
5,33,76,2
5,33,0,94
5,38,99,2
5,38,0,90
5,33,79,6
5,37,79,96
5,33,0,2
5,37,0,174
5,38,103,16
5,40,87,192
5,38,0,16
5,40,0,174
5,28,119,2
5,28,0,1014
5,28,87,42
5,40,115,96
5,28,0,26
5,40,0,352
5,35,99,6
5,35,0,602
5,35,99,70
5,35,0,34
5,35,107,62
5,35,0,58
5,35,107,134
5,35,0,322
5,35,99,62
5,30,107,192
5,35,0,6
5,30,0,618
5,30,99,48
5,30,0,32
5,30,107,64
5,30,0,78
5,30,107,114
5,30,0,384
5,30,91,0
5,30,0,182
5,38,95,10
5,38,0,662
5,30,68,10
5,30,0,86
5,38,95,10
5,38,0,94
5,33,69,2
5,37,91,96
5,33,0,10
5,36,84,566
5,37,0,2
5,36,0,1440
5,37,95,94
5,37,0,20
5,40,99,8
5,40,0,24
5,42,99,4
5,42,0,858
5,37,119,114
5,37,0,590
5,37,91,70
5,37,0,66
5,37,99,224
5,37,0,560
5,40,99,14
5,40,0,752
5,42,115,10
5,42,0,56
5,42,115,138
5,42,0,326
5,37,99,66
5,37,0,796
5,37,84,160
5,37,0,76
5,37,95,112
5,37,0,580
5,40,99,10
5,40,0,738
5,42,107,16
5,42,0,48
5,42,115,150
5,42,0,306
5,37,99,68
5,37,0,782
5,37,91,90
5,37,0,66
5,37,99,224
5,37,0,560
5,40,99,14
5,40,0,752
5,42,115,10
5,42,0,56
5,42,115,138
5,42,0,326
5,37,99,66
5,37,0,796
5,37,84,64
5,37,0,76
5,37,95,208
5,37,0,580
5,40,87,0
5,49,95,192
5,40,0,6
5,47,87,186
5,49,0,8
5,47,0,178
5,42,103,198
5,42,0,76
5,42,63,20
5,42,0,62
5,42,66,34
5,42,0,60
5,42,79,36
5,42,0,74
5,40,91,22
5,40,0,80
5,37,84,112
5,37,0,768
5,37,99,96
5,37,0,68
