track,note,velocity,time
0,65,116,0
0,57,108,0
0,62,111,0
0,65,107,0
0,57,104,58
0,62,107,0
0,65,105,1
0,65,117,0
0,62,112,0
0,59,98,0
0,62,104,0
0,57,94,0
0,65,117,0
0,62,111,4
0,57,104,1
0,65,107,0
0,65,114,0
0,62,102,1
0,65,96,0
0,57,92,0
0,65,104,0
0,65,78,0
0,62,105,1
0,57,94,0
0,62,111,0
0,44,127,1
0,59,105,1
0,62,105,0
0,57,94,1
0,44,123,1
0,44,123,0
0,62,110,16
0,57,104,1
0,65,107,1
0,26,117,1
0,62,99,0
0,65,74,0
0,69,101,0
0,65,117,0
0,46,125,1
0,74,127,0
0,38,125,15
0,62,106,3
0,65,104,0
0,57,96,0
0,65,111,0
0,71,103,1
0,65,91,0
0,62,95,0
0,65,108,0
0,57,104,1
0,65,102,0
0,62,110,0
0,42,123,5
0,72,102,27
0,62,100,0
0,65,93,0
0,42,110,18
0,46,84,66
0,54,119,15
0,42,115,2
0,42,102,90
0,62,100,0
0,65,73,0
0,72,105,0
0,71,101,47
0,62,93,0
0,65,69,0
0,42,118,16
0,62,93,43
0,65,83,0
0,69,99,0
0,42,110,15
0,42,116,19
0,46,119,16
0,54,119,41
0,42,115,4
0,44,127,42
0,44,123,10
0,44,123,3
0,26,124,18
0,69,99,1
0,62,89,0
0,65,86,0
0,46,125,2
0,74,127,0
0,65,115,0
0,38,119,0
0,62,113,2
0,57,105,1
0,65,108,0
0,71,110,0
0,62,97,0
0,65,72,0
0,42,123,1
0,57,105,38
0,65,109,0
0,62,111,1
0,65,116,0
0,62,100,1
0,72,110,0
0,65,81,0
0,42,110,13
0,46,84,66
0,54,119,16
0,42,115,2
0,59,107,40
0,62,108,0
0,62,111,0
0,57,96,1
0,42,102,16
0,62,100,0
0,72,106,0
0,65,82,0
0,65,117,0
0,62,113,0
0,57,107,0
0,65,110,0
0,65,115,0
0,57,84,0
0,62,104,0
0,65,96,0
0,71,109,4
0,62,93,0
0,65,72,0
0,65,102,1
0,42,118,0
0,62,109,1
0,57,98,0
0,65,109,0
0,62,99,22
0,65,72,0
0,69,101,0
0,46,110,21
0,62,96,4
0,65,79,0
0,71,105,0
0,62,91,0
0,65,92,0
0,69,101,2
0,69,56,6
0,65,46,0
0,62,46,0
0,40,124,2
0,40,124,3
0,42,116,2
0,65,87,0
0,69,82,0
0,62,76,0
0,46,119,4
0,65,93,0
0,71,104,0
0,62,76,0
0,54,120,0
0,62,95,2
0,65,91,2
0,69,101,0
0,40,124,5
0,42,115,3
0,40,118,0
0,62,93,0
0,69,92,0
0,65,79,0
0,61,71,0
0,68,41,0
0,64,55,0
0,60,72,0
0,63,38,0
0,67,30,0
0,59,74,0
0,55,118,1
0,49,118,0
0,35,125,0
0,38,122,0
0,74,88,0
0,77,94,0
0,81,91,0
0,69,91,0
0,65,80,0
0,62,65,0
0,42,82,20
0,69,56,0
0,65,46,0
0,62,46,0
0,71,93,25
0,65,73,0
0,62,68,0
0,74,84,1
0,77,92,0
0,83,91,0
0,42,78,2
0,40,127,0
0,54,118,0
0,42,76,42
0,50,127,0
0,77,90,0
0,84,84,0
0,74,86,0
0,65,74,0
0,72,96,0
0,62,69,0
0,42,74,9
0,42,82,10
0,35,125,0
0,48,127,0
0,42,80,19
0,65,92,0
0,72,85,0
0,62,66,0
0,72,96,1
0,65,83,0
0,62,66,0
0,40,127,16
0,42,84,1
0,65,84,0
0,72,99,0
0,62,66,0
0,54,119,0
0,72,73,1
0,65,86,0
0,62,66,0
0,65,79,0
0,69,82,0
0,62,66,0
0,42,118,1
0,46,126,15
0,62,46,0
0,65,46,0
0,69,56,0
0,42,102,10
0,35,126,0
0,38,123,0
0,74,89,0
0,84,88,0
0,77,95,0
0,65,78,0
0,72,98,0
0,62,66,0
0,42,78,21
0,69,56,0
0,65,46,0
0,62,46,0
0,77,90,25
0,74,84,0
0,71,98,0
0,65,78,0
0,62,70,0
0,83,88,1
0,40,127,2
0,42,82,1
0,54,118,0
0,42,76,42
0,35,121,0
0,50,125,0
0,74,84,0
0,81,88,0
0,77,90,0
0,69,92,0
0,65,81,0
0,62,70,0
0,42,74,6
0,42,84,10
0,35,123,0
0,48,127,0
0,42,82,23
0,65,98,0
0,62,89,0
0,69,103,0
0,50,102,1
0,40,127,21
0,69,81,0
0,65,72,0
0,62,69,1
0,40,127,1
0,42,88,1
0,48,127,0
0,65,91,0
0,69,97,0
0,62,79,0
0,54,117,0
0,69,89,0
0,65,87,0
0,62,76,1
0,42,115,1
0,50,75,0
0,46,124,26
0,42,90,10
0,35,124,0
0,38,122,0
0,81,91,0
0,74,88,0
0,77,93,0
0,69,100,0
0,65,72,0
0,50,105,3
0,57,81,2
0,62,101,0
0,42,71,23
0,69,56,0
0,65,46,0
0,62,46,0
0,49,81,0
0,61,81,0
0,56,65,0
0,83,91,2
0,77,92,0
0,74,82,0
0,71,100,0
0,65,93,0
0,62,94,0
0,48,82,0
0,55,58,0
0,60,70,0
0,40,127,1
0,42,82,1
0,54,114,0
0,38,77,26
0,62,46,0
0,65,46,0
0,69,56,0
0,42,78,10
0,50,127,0
0,77,93,0
0,74,84,0
0,84,89,0
0,62,93,0
0,65,86,0
0,72,73,0
0,42,74,3
0,42,82,10
0,35,125,0
0,48,127,0
0,42,76,19
0,62,99,0
0,72,93,0
0,65,83,0
0,72,86,1
0,65,89,0
0,40,127,1
0,42,80,1
0,62,100,0
0,65,71,0
0,72,99,0
0,54,90,0
0,72,86,1
0,65,85,0
0,42,78,1
0,42,26,1
0,62,101,0
0,65,91,0
0,72,78,0
0,62,46,14
0,65,46,0
0,69,56,0
0,42,96,10
0,35,124,0
0,38,123,0
0,84,84,0
0,77,93,0
0,74,88,0
0,62,93,0
0,65,70,0
0,72,100,0
0,46,110,6
0,42,117,4
0,69,56,1
0,65,46,0
0,62,46,0
0,71,95,25
0,65,87,0
0,62,92,0
0,83,80,1
0,77,90,0
0,74,84,0
0,42,82,1
0,40,127,0
0,54,119,0
0,42,71,41
0,35,125,0
0,50,125,0
0,74,82,0
0,81,89,0
0,77,92,0
0,62,97,0
0,65,81,0
0,69,95,0
0,42,74,5
0,42,82,10
0,48,127,0
0,65,86,0
0,62,101,0
0,71,97,0
0,35,124,1
0,71,87,1
0,65,85,0
0,42,82,1
0,62,99,0
0,65,85,0
0,69,91,0
0,50,102,1
0,40,127,9
0,40,127,12
0,42,82,2
0,48,127,0
0,65,93,0
0,71,105,0
0,62,76,0
0,54,121,0
0,42,94,4
0,50,75,0
0,65,89,0
0,69,80,0
0,62,76,0
0,55,106,24
0,49,100,1
0,42,106,3
0,35,125,0
0,38,122,0
0,74,84,0
0,81,90,0
0,77,94,0
0,62,99,0
0,65,74,0
0,69,101,0
0,57,117,0
0,42,84,15
0,69,56,0
0,65,46,0
0,62,46,0
0,71,103,25
0,65,91,0
0,62,95,0
0,74,84,1
0,77,92,0
0,83,88,0
0,40,127,1
0,42,106,2
0,54,121,0
0,42,82,42
0,50,127,0
0,74,84,0
0,84,80,0
0,77,90,0
0,72,102,0
0,62,100,0
0,65,93,0
0,42,74,2
0,42,86,10
0,35,125,0
0,48,127,0
0,42,80,19
0,62,95,0
0,65,81,0
0,72,100,0
0,62,112,0
0,72,85,3
0,65,86,0
0,62,97,0
0,40,127,2
0,42,90,1
0,65,53,0
0,72,95,0
0,54,116,0
0,72,91,1
0,65,83,0
0,62,93,0
0,42,92,1
0,65,88,0
0,72,92,0
0,65,111,0
0,46,127,14
0,62,46,0
0,65,46,0
0,69,56,0
0,42,92,10
0,35,125,0
0,38,123,0
0,84,82,0
0,77,91,0
0,74,88,0
0,62,100,0
0,65,73,0
0,72,105,0
0,42,82,16
0,69,56,0
0,65,46,0
0,62,46,0
0,65,110,0
0,83,88,3
0,74,80,0
0,77,89,0
0,71,101,0
0,62,93,0
0,65,69,0
0,40,127,2
0,65,110,0
0,42,90,0
0,54,116,0
0,65,113,0
0,35,125,1
0,42,74,0
0,50,125,0
0,81,92,0
0,77,91,0
0,74,78,0
0,62,93,0
0,65,83,0
0,69,99,0
0,42,74,3
0,42,82,5
0,35,125,0
0,48,127,0
0,42,74,23
0,62,89,0
0,65,86,0
0,69,102,0
0,50,102,1
0,40,127,18
0,69,71,0
0,65,73,0
0,40,127,13
0,42,84,1
0,48,127,0
0,65,86,0
0,69,93,0
0,54,121,0
0,69,91,1
0,65,89,0
0,62,82,0
0,42,96,4
0,50,75,0
0,46,104,26
0,42,98,10
0,35,125,0
0,38,122,0
0,81,93,0
0,77,94,0
0,74,82,0
0,69,99,0
0,62,89,0
0,65,86,0
0,42,74,20
0,69,56,0
0,65,46,0
0,62,46,0
0,65,117,0
0,71,110,25
0,62,97,0
0,65,72,0
0,83,86,1
0,77,86,0
0,74,78,0
0,40,127,13
0,42,84,1
0,54,118,0
0,38,77,14
0,62,46,0
0,65,46,0
0,69,56,0
0,65,113,0
0,42,74,3
0,50,127,0
0,84,80,0
0,77,88,0
0,74,76,0
0,62,100,0
0,72,110,0
0,65,81,0
0,42,74,4
0,65,116,0
0,42,84,1
0,35,125,0
0,48,127,0
0,42,78,17
0,62,84,0
0,65,71,0
0,72,68,0
0,65,88,0
0,72,83,5
0,65,86,0
0,40,127,4
0,42,86,1
0,62,100,0
0,72,36,0
0,65,84,0
0,54,121,0
0,67,114,0
0,72,91,2
0,62,95,0
0,65,88,0
0,42,104,1
0,65,76,0
0,72,93,0
0,67,117,0
0,65,115,0
0,46,120,8
0,62,46,0
0,65,46,0
0,69,56,0
0,42,88,10
0,35,124,0
0,38,123,0
0,74,82,0
0,84,88,0
0,77,91,0
0,62,100,0
0,72,106,0
0,65,82,0
0,42,80,16
0,69,56,0
0,65,46,0
0,62,46,0
0,77,89,24
0,83,80,0
0,74,78,0
0,71,109,0
0,62,93,0
0,65,72,0
0,40,127,6
0,42,84,2
0,54,120,0
0,38,77,26
0,35,125,9
0,42,67,1
0,50,125,0
0,77,91,0
0,81,91,0
0,74,80,0
0,62,99,0
0,65,72,0
0,69,101,0
0,42,74,9
0,42,84,10
0,35,124,0
0,48,127,0
0,62,96,0
0,65,79,0
0,71,105,0
0,71,86,1
0,65,83,0
0,42,78,1
0,65,87,0
0,69,82,0
0,62,76,0
0,50,102,1
0,40,127,12
0,40,121,11
0,42,84,3
0,48,127,0
0,65,93,0
0,71,104,0
0,62,76,0
0,54,119,0
0,42,80,10
0,42,34,4
0,50,75,0
0,62,93,0
0,69,92,0
0,65,79,0
0,55,104,19
0,49,96,3
0,57,117,0
0,35,124,0
0,42,84,0
0,38,122,0
0,74,86,0
0,81,91,0
0,77,94,0
0,69,91,0
0,65,80,0
0,62,65,0
0,42,82,20
0,69,56,0
0,65,46,0
0,62,46,0
0,74,78,25
0,83,89,0
0,77,89,0
0,71,93,0
0,65,73,0
0,62,68,0
0,42,76,2
0,40,127,0
0,54,120,0
0,42,78,42
0,50,127,0
0,77,94,0
0,74,88,0
0,84,93,0
0,65,74,0
0,72,96,0
0,62,69,0
0,42,74,9
0,42,80,10
0,35,124,0
0,48,127,0
0,42,76,19
0,65,92,0
0,72,85,0
0,62,66,0
0,62,117,0
0,72,96,1
0,65,83,0
0,62,66,0
0,40,127,16
0,42,82,1
0,65,84,0
0,72,99,0
0,62,66,0
0,54,118,0
0,72,73,1
0,65,86,0
0,62,66,0
0,42,100,2
0,65,79,0
0,69,82,0
0,62,66,0
0,65,117,0
0,46,102,15
0,62,46,0
0,65,46,0
0,69,56,0
0,42,120,10
0,35,125,0
0,38,123,0
0,74,89,0
0,84,88,0
0,77,95,0
0,65,78,0
0,72,98,0
0,62,66,0
0,42,84,2
0,69,56,0
0,65,46,0
0,62,46,0
0,65,108,0
0,83,89,7
0,74,82,0
0,77,89,0
0,71,98,0
0,65,78,0
0,62,70,0
0,65,114,0
0,42,82,0
0,54,118,0
0,40,127,1
0,38,77,25
0,65,109,0
0,35,124,0
0,42,78,0
0,50,125,0
0,74,76,0
0,77,88,0
0,81,89,0
0,69,92,0
0,65,81,0
0,62,70,0
0,42,74,6
0,35,124,8
0,42,80,0
0,48,127,0
0,42,74,23
0,65,88,0
0,62,79,0
0,69,93,0
0,50,102,1
0,40,127,6
0,40,127,11
0,42,76,5
0,48,127,0
0,65,91,0
0,69,104,0
0,62,79,0
0,54,119,0
0,69,89,1
0,65,87,0
0,62,76,0
0,42,88,2
0,50,75,0
0,42,98,26
0,50,77,0
0,42,100,10
0,35,124,0
0,38,122,0
0,81,93,0
0,77,93,0
0,74,80,0
0,69,100,0
0,65,72,0
0,65,111,0
0,42,80,2
0,69,56,0
0,65,46,0
0,62,46,0
0,77,88,6
0,74,76,0
0,83,88,0
0,71,100,0
0,65,93,0
0,62,94,0
0,40,127,1
0,42,82,1
0,54,118,0
0,65,113,0
0,62,46,3
0,65,46,0
0,69,56,0
0,65,111,0
0,42,82,1
0,50,127,0
0,84,84,0
0,77,89,0
0,74,78,0
0,62,93,0
0,65,86,0
0,72,73,0
0,65,106,0
0,42,74,3
0,42,78,10
0,35,124,0
0,48,127,0
0,65,113,0
0,42,80,1
0,62,99,0
0,72,93,0
0,65,83,0
0,72,86,1
0,65,89,0
0,67,113,0
0,42,90,0
0,62,100,0
0,65,71,0
0,72,99,0
0,54,117,0
0,40,127,2
0,72,86,1
0,65,85,0
0,42,104,1
0,62,101,0
0,65,91,0
0,72,78,0
0,67,113,0
0,65,115,0
0,46,90,7
0,62,46,1
0,65,46,0
0,69,56,0
0,42,112,10
0,35,125,0
0,38,123,0
0,77,93,0
0,84,88,0
0,74,86,0
0,62,93,0
0,65,70,0
0,72,100,0
0,42,108,16
0,69,56,0
0,65,46,0
0,62,46,0
0,83,76,23
0,74,74,0
0,77,82,0
0,71,95,0
0,65,87,0
0,62,92,0
0,42,92,1
0,54,114,0
0,40,127,1
0,35,122,40
0,42,80,1
0,50,125,0
0,74,78,0
0,77,89,0
0,81,90,0
0,62,97,0
0,65,81,0
0,69,95,0
0,42,74,5
0,35,123,10
0,42,84,0
0,48,127,0
0,65,86,0
0,62,101,0
0,71,97,0
0,50,123,2
0,57,111,1
0,71,87,1
0,65,85,0
0,42,82,1
0,62,99,0
0,65,85,0
0,69,91,0
0,50,102,1
0,56,86,0
0,49,99,3
0,55,74,0
0,40,127,7
0,48,70,0
0,54,63,0
0,40,127,6
0,47,66,0
0,42,86,2
0,48,127,0
0,65,93,0
0,71,105,0
0,62,76,0
0,54,90,0
0,53,46,0
0,42,98,3
0,50,75,0
0,69,56,0
0,65,46,0
0,62,46,0
0,42,84,24
0,69,56,0
0,65,46,0
0,62,46,0
0,55,108,7
0,49,92,0
0,42,86,3
0,35,124,0
0,31,125,0
0,74,95,0
0,72,94,0
0,79,91,0
0,62,86,0
0,67,99,0
0,60,89,0
0,55,82,0
0,60,84,0
0,62,84,0
0,62,117,0
0,42,102,8
0,60,46,0
0,62,46,0
0,67,56,0
0,74,93,4
0,79,91,0
0,72,91,0
0,60,97,0
0,67,110,0
0,62,72,0
0,62,84,1
0,60,85,0
0,55,82,0
0,40,127,14
0,42,88,1
0,54,119,0
0,60,46,6
0,62,46,0
0,67,56,0
0,42,76,10
0,43,127,0
0,74,91,0
0,71,89,0
0,79,88,0
0,62,81,0
0,59,100,0
0,67,110,0
0,55,83,3
0,62,84,0
0,59,84,1
0,42,74,4
0,42,90,4
0,35,124,0
0,41,127,0
0,42,82,42
0,59,84,0
0,62,71,0
0,67,68,0
0,64,117,0
0,67,83,5
0,62,86,0
0,40,125,5
0,42,80,1
0,59,100,0
0,62,84,0
0,67,86,0
0,54,121,0
0,59,95,2
0,67,91,0
0,62,88,0
0,42,100,1
0,62,76,0
0,67,93,0
0,65,115,0
0,46,92,10
0,55,82,8
0,62,84,0
0,60,84,0
0,42,104,2
0,35,125,0
0,31,126,0
0,74,92,0
0,79,88,0
0,72,88,0
0,62,86,0
0,67,99,0
0,60,89,0
