track,note,velocity,time
0,36,100,1582
0,36,0,120
0,59,100,119
0,64,100,1
0,80,127,218
0,64,0,23
0,40,100,20
0,59,0,3
0,36,127,2
0,40,127,0
0,80,0,37
0,68,76,35
0,40,0,32
0,36,0,31
0,80,101,57
0,68,0,4
0,80,0,62
0,71,117,54
0,40,0,68
0,71,0,25
0,76,99,27
0,64,100,29
0,59,100,4
0,36,127,28
0,76,0,42
0,64,127,17
0,36,0,77
0,64,0,39
0,83,121,4
0,64,0,51
0,59,0,0
0,40,100,39
0,83,0,11
0,71,83,19
0,71,0,100
0,80,127,20
0,36,127,28
0,40,122,5
0,80,0,49
0,68,127,38
0,40,0,12
0,36,0,40
0,68,0,39
0,76,124,29
0,76,0,84
0,71,109,36
0,71,0,114
0,80,127,6
0,57,100,30
0,36,100,5
0,80,0,35
0,40,0,8
0,68,127,42
0,36,0,35
0,68,0,56
0,76,121,29
0,56,100,26
0,40,100,5
0,76,0,58
0,57,0,4
0,71,68,27
0,64,114,0
0,40,0,1
0,71,0,59
0,64,0,35
0,80,127,25
0,36,127,22
0,40,127,0
0,36,100,13
0,40,100,2
0,52,100,8
0,56,0,27
0,80,0,6
0,68,127,42
0,40,0,6
0,52,0,26
0,36,0,3
0,36,0,2
0,68,0,62
0,76,127,21
0,56,100,22
0,57,100,33
0,76,0,49
0,71,117,16
0,56,0,1
0,71,0,113
0,76,127,6
0,36,127,23
0,40,0,27
0,76,0,35
0,68,127,35
0,36,0,39
0,68,0,58
0,80,127,23
0,56,100,26
0,80,0,52
0,57,0,10
0,71,103,32
0,38,100,68
0,71,0,35
0,36,127,7
0,40,122,5
0,76,114,5
0,40,100,10
0,56,0,8
0,52,100,2
0,76,0,53
0,38,0,10
0,40,0,11
0,68,124,26
0,64,85,0
0,36,0,14
0,64,0,84
0,40,0,14
0,52,0,1
0,71,109,7
0,68,0,43
0,35,100,2
0,71,0,49
0,83,127,26
0,83,0,70
0,71,95,50
0,36,127,4
0,35,0,14
0,71,0,93
0,83,127,9
0,38,100,20
0,36,0,7
0,38,0,50
0,83,0,13
0,68,127,30
0,59,100,1
0,64,100,5
0,38,100,6
0,68,0,76
0,38,0,32
0,80,127,0
0,80,0,77
0,36,127,30
0,40,122,4
0,71,121,9
0,64,0,29
0,40,100,2
0,59,0,24
0,40,0,43
0,71,0,15
0,76,117,7
0,36,0,25
0,40,0,7
0,76,0,39
0,64,127,49
0,76,111,120
0,64,0,31
0,76,0,35
0,59,100,33
0,64,100,1
0,40,100,4
0,68,99,16
0,71,73,0
0,36,127,1
0,40,0,81
0,68,0,12
0,80,127,26
0,71,0,12
0,36,0,13
0,80,0,50
0,68,127,45
0,40,100,13
0,64,0,8
0,59,0,1
0,68,0,73
0,76,124,25
0,71,81,0
0,76,0,74
0,36,127,20
0,40,113,7
0,71,0,11
0,40,0,103
0,36,0,12
0,76,124,13
0,64,117,0
0,76,0,75
0,64,0,39
0,80,127,6
0,80,0,67
0,40,0,40
0,68,111,13
0,56,100,89
0,36,127,4
0,68,0,19
0,76,127,8
0,57,100,7
0,76,0,71
0,56,0,10
0,36,0,23
0,71,99,9
0,56,100,86
0,40,100,9
0,71,0,5
0,76,111,20
0,57,0,3
0,76,0,55
0,40,0,13
0,68,127,49
0,68,0,64
0,40,122,8
0,36,127,1
0,52,100,22
0,56,0,5
0,40,100,6
0,80,127,14
0,40,0,61
0,80,0,17
0,36,0,8
0,52,0,20
0,68,121,14
0,68,0,72
0,56,100,15
0,76,111,33
0,57,100,7
0,56,0,69
0,76,0,1
0,71,76,43
0,36,127,94
0,71,0,8
0,83,106,18
0,83,0,68
0,36,0,30
0,68,127,22
0,56,100,67
0,68,0,28
0,80,127,25
0,57,0,5
0,40,0,36
0,80,0,37
0,38,100,35
0,68,127,7
0,56,0,45
0,40,127,10
0,36,127,8
0,40,100,1
0,52,100,7
0,68,0,16
0,76,124,33
0,38,0,16
0,40,0,13
0,36,0,50
0,76,0,3
0,64,127,38
0,52,0,50
0,33,100,27
0,40,0,30
0,64,0,2
0,80,106,11
0,80,0,57
0,68,127,63
0,36,127,49
0,33,0,14
0,68,0,23
0,80,127,34
0,36,0,59
0,80,0,3
0,68,78,58
0,71,59,0
0,68,0,44
0,59,100,2
0,64,100,1
0,76,100,0
0,71,0,34
0,76,99,25
0,76,0,50
0,76,0,43
0,68,127,27
0,80,127,0
0,36,127,31
0,40,127,4
0,76,100,11
0,40,100,12
0,68,0,20
0,80,0,1
0,64,0,5
0,59,0,20
0,68,127,16
0,40,0,8
0,36,0,29
0,76,0,8
0,68,0,40
0,76,100,0
0,40,0,6
0,76,114,76
0,71,81,0
0,76,0,14
0,76,0,61
0,71,0,45
0,76,114,0
0,36,127,34
0,76,100,0
0,59,100,20
0,64,100,1
0,76,0,24
0,40,100,16
0,68,127,20
0,36,0,51
0,40,0,19
0,68,0,46
0,83,127,4
0,76,0,38
0,83,0,18
0,68,100,4
0,40,100,31
0,59,0,2
0,64,0,0
0,71,94,27
0,83,121,120
0,71,0,2
0,36,127,9
0,40,127,6
0,83,0,77
0,64,127,26
0,40,0,1
0,36,0,29
0,64,0,82
0,80,127,8
0,80,0,78
0,68,106,42
0,68,0,82
0,71,75,38
0,76,127,0
0,36,127,9
0,56,100,4
0,69,100,0
0,57,100,11
0,68,0,0
0,76,0,39
0,71,0,10
0,40,0,8
0,56,0,9
0,68,127,18
0,36,0,22
0,68,0,68
0,80,127,30
0,56,100,13
0,40,100,7
0,68,100,0
0,69,0,24
0,80,0,13
0,71,114,56
0,57,0,1
0,40,0,4
0,71,0,98
0,80,127,17
0,36,127,0
0,40,122,0
0,56,0,5
0,68,0,5
0,52,100,1
0,40,100,12
0,69,100,0
0,80,0,40
0,40,0,55
0,68,127,1
0,36,0,10
0,52,0,23
0,68,0,76
0,69,0,9
0,76,127,2
0,71,100,0
0,56,100,7
0,57,100,44
0,76,0,34
0,64,86,25
0,56,0,4
0,64,0,75
0,71,88,41
0,83,127,0
0,36,127,5
0,71,0,73
0,83,0,1
0,71,71,41
0,36,0,31
0,71,0,26
0,40,0,46
0,68,121,17
0,80,127,0
0,56,100,15
0,80,0,48
0,68,0,11
0,57,0,1
0,38,100,36
0,68,127,9
0,40,100,83
0,68,0,14
0,56,0,14
0,52,100,5
0,76,95,4
0,36,127,6
0,40,122,6
0,38,0,18
0,76,0,26
0,40,0,51
0,68,82,13
0,71,77,0
0,36,0,10
0,68,0,52
0,52,0,14
0,71,0,14
0,35,100,12
0,76,124,18
0,40,0,1
0,76,0,71
0,71,0,26
0,68,121,22
0,83,101,0
0,68,0,56
0,83,0,17
0,35,0,31
0,68,117,16
0,36,127,17
0,68,0,65
0,71,61,38
0,83,73,0
0,80,101,0
0,38,100,21
0,80,0,4
0,36,0,12
0,71,0,25
0,83,0,20
0,38,0,1
0,76,100,0
0,59,100,11
0,68,127,1
0,64,100,2
0,38,100,8
0,68,0,65
0,76,0,38
0,80,127,7
0,38,0,22
0,80,0,59
0,76,100,0
0,64,127,9
0,64,0,7
0,40,127,1
0,36,127,4
0,59,0,8
0,40,100,16
0,40,0,76
0,76,0,0
0,76,124,8
0,64,0,3
0,36,0,22
0,40,0,26
0,76,0,24
0,76,100,0
0,68,124,3
0,68,0,103
0,76,0,2
0,76,121,15
0,76,0,79
0,40,100,33
0,71,92,8
0,36,127,2
0,59,100,2
0,64,100,1
0,76,100,0
0,71,0,67
0,40,0,15
0,80,127,27
0,36,0,28
0,76,0,7
0,80,0,41
0,68,124,44
0,40,100,14
0,64,0,7
0,59,0,7
0,68,100,10
0,68,0,41
0,76,114,41
0,76,0,62
0,40,127,53
0,36,127,4
0,64,124,1
0,40,0,91
0,64,0,2
0,36,0,22
0,76,124,5
0,68,121,0
0,76,0,74
0,68,0,10
0,71,46,36
0,71,0,81
0,80,127,39
0,80,0,64
0,68,0,21
0,36,127,19
0,68,117,16
0,69,100,0
0,56,100,9
0,57,100,16
0,40,0,14
0,56,0,39
0,68,0,10
0,36,0,26
0,80,99,2
0,80,0,94
0,68,100,0
0,40,100,2
0,56,100,3
0,71,85,4
0,69,0,18
0,40,0,66
0,71,0,23
0,57,0,0
0,76,124,13
0,40,127,80
0,68,0,3
0,56,0,2
0,36,127,0
0,69,100,0
0,76,0,9
0,40,100,1
0,52,100,9
0,68,127,11
0,40,0,58
0,68,0,19
0,36,0,25
0,52,0,12
0,80,127,6
0,68,127,0
0,35,100,78
0,68,0,0
0,69,0,0
0,40,0,4
0,80,0,3
0,71,100,0
0,56,100,25
0,57,100,29
0,56,0,73
0,76,111,28
0,64,101,0
0,35,0,77
0,36,127,3
0,40,100,1
0,76,0,4
0,64,0,18
0,83,111,17
0,71,0,39
0,83,0,47
0,36,0,3
0,68,127,31
0,40,0,77
0,52,100,1
0,76,100,0
0,68,0,2
0,56,100,21
0,80,127,10
0,57,0,70
0,80,0,10
0,52,0,16
0,71,79,24
0,68,78,0
0,68,0,34
0,36,127,24
0,40,127,3
0,56,0,7
0,76,0,5
0,39,100,5
0,52,100,2
0,71,0,31
0,76,124,9
0,40,0,52
0,76,0,17
0,36,0,0
0,68,117,51
0,76,100,0
0,52,0,1
0,39,0,52
0,51,100,6
0,68,0,48
0,76,127,10
0,51,0,64
0,76,0,12
0,76,0,9
0,62,127,35
0,66,100,18
0,62,100,13
0,69,100,0
0,57,100,6
0,76,100,0
0,57,100,11
0,36,127,5
0,62,100,3
0,62,0,26
0,80,99,14
0,81,95,0
0,80,0,28
0,81,0,61
0,36,0,9
0,66,127,22
0,62,53,0
0,62,0,40
0,66,0,32
0,78,127,48
0,81,57,0
0,81,0,40
0,74,100,0
0,76,0,6
0,78,0,11
0,66,127,32
0,38,100,61
0,40,127,3
0,36,127,1
0,66,0,39
0,74,0,0
0,74,127,16
0,69,60,0
0,40,0,37
0,74,0,41
0,36,0,5
0,57,0,7
0,69,0,57
0,74,100,0
0,78,127,76
0,66,127,0
0,78,0,56
0,74,0,20
0,66,0,5
0,78,127,39
0,36,127,52
0,78,0,10
0,74,100,0
0,66,127,46
0,66,0,80
0,36,0,2
0,38,0,13
0,74,101,25
0,74,0,57
0,74,0,34
0,69,88,29
0,73,100,0
0,69,0,52
0,74,114,8
0,40,127,48
0,36,127,9
0,38,100,6
0,74,0,19
0,62,127,38
0,73,0,8
0,40,0,33
0,36,0,48
0,62,0,13
0,74,124,18
0,73,100,0
0,74,0,34
0,73,0,115
0,81,111,39
0,36,127,60
0,81,0,19
0,73,100,0
0,62,109,40
0,81,127,0
0,36,0,71
0,62,0,4
0,38,0,16
0,81,0,11
0,66,127,18
0,66,0,81
0,78,127,39
0,71,100,0
0,78,0,30
0,73,0,11
0,69,124,36
0,38,100,18
0,40,127,16
0,36,127,4
0,69,0,48
0,71,0,5
0,74,127,29
0,40,0,14
0,36,0,33
0,74,0,20
0,66,127,53
0,71,100,0
0,66,0,61
0,78,127,39
0,71,0,43
0,78,0,16
0,62,124,61
0,36,127,44
0,71,100,0
0,62,0,43
0,81,127,21
0,38,0,17
0,36,0,40
0,81,0,36
0,66,127,27
0,37,100,61
0,66,0,10
0,71,0,3
0,69,100,0
0,78,127,36
0,78,0,88
0,69,101,32
0,40,127,20
0,36,127,0
0,69,0,65
0,69,0,16
0,40,0,14
0,74,121,5
0,37,0,16
0,36,0,17
0,74,0,35
0,66,127,52
0,71,100,0
0,38,100,11
0,66,0,64
0,62,0,23
0,74,124,3
0,66,0,13
0,69,0,20
0,74,0,44
0,38,0,24
0,71,0,18
0,64,127,1
0,64,100,8
0,68,100,5
0,36,127,1
0,71,100,8
0,57,0,9
0,62,0,1
0,64,0,56
0,76,127,32
0,36,0,28
0,76,0,63
0,68,127,29
0,71,100,0
0,59,100,17
0,64,100,5
0,28,100,3
0,68,0,38
0,80,127,50
0,28,0,32
0,80,0,36
0,40,127,48
0,68,127,4
0,36,127,1
0,28,100,37
0,64,0,23
0,59,0,9
0,68,0,11
0,40,0,18
0,76,127,21
0,36,0,13
0,76,0,58
0,28,0,37
0,71,82,12
0,71,0,84
0,83,127,36
0,64,71,0
0,28,100,29
0,83,0,42
0,28,0,10
0,64,0,12
0,36,127,20
0,59,100,13
0,64,100,4
0,28,100,4
0,83,124,106
0,64,103,0
0,28,0,1
0,36,0,15
0,83,0,59
0,64,0,24
0,71,55,21
0,28,100,17
0,64,0,12
0,59,0,15
0,71,0,6
0,79,127,70
0,68,127,0
0,79,0,44
0,28,0,31
0,68,0,7
0,40,122,7
0,36,127,10
0,80,127,21
0,40,0,73
0,80,0,8
0,36,0,30
0,68,101,9
0,71,76,0
0,68,0,82
0,71,0,1
0,76,127,37
0,76,0,96
0,64,127,24
0,56,100,103
0,36,127,11
0,64,0,2
0,76,114,4
0,57,100,12
0,76,0,44
0,71,0,14
0,56,0,19
0,68,127,31
0,36,0,6
0,68,0,83
0,28,100,20
0,80,127,11
0,56,100,9
0,80,0,58
0,57,0,25
0,28,0,28
0,71,101,0
0,71,0,84
0,56,0,4
0,40,127,8
0,52,100,4
0,36,127,2
0,28,100,11
0,76,124,7
0,40,0,69
0,76,0,4
0,36,0,37
0,64,121,10
0,52,0,15
0,64,0,58
0,56,100,17
0,68,43,30
0,83,111,0
0,57,100,2
0,28,0,8
0,68,0,33
0,56,0,32
0,83,0,7
0,68,103,38
0,71,103,0
0,28,100,7
0,36,127,60
0,68,0,2
0,40,127,0
0,44,127,6
0,28,0,6
0,80,127,39
0,71,0,1
0,28,100,10
0,40,0,6
0,44,0,24
0,80,0,32
0,28,0,42
0,68,127,5
0,36,0,3
0,40,127,58
0,43,127,17
0,28,100,9
0,68,0,1
0,56,100,0
0,76,127,32
0,40,0,0
0,57,0,27
0,43,0,46
0,76,0,28
0,28,0,15
0,64,127,4
0,56,0,48
0,52,100,14
0,40,127,0
0,44,127,14
0,36,127,9
0,64,0,9
0,40,0,19
0,80,127,7
0,44,0,15
0,43,127,35
0,80,0,12
0,40,113,6
0,40,0,49
0,68,127,3
0,43,0,22
0,52,0,12
0,44,127,0
0,40,122,25
0,68,0,44
0,36,0,10
0,44,0,3
0,40,0,3
0,80,121,1
0,43,127,20
0,40,106,26
0,80,0,35
0,43,0,14
0,40,0,9
0,64,127,16
0,49,100,28
0,68,0,23
0,64,0,5
0,71,0,6
0,36,127,8
0,76,127,50
0,64,0,1
0,36,0,44
0,76,0,37
0,68,127,38
0,76,100,0
0,59,100,18
0,64,100,1
0,49,0,16
0,68,0,9
0,76,0,62
0,80,124,92
0,68,127,0
0,40,127,20
0,36,127,2
0,76,100,9
0,40,100,11
0,64,0,14
0,80,0,10
0,59,0,2
0,68,0,21
0,40,0,6
0,36,0,59
0,76,0,4
0,76,109,82
0,76,100,0
0,76,0,47
0,76,0,34
0,71,114,9
0,71,0,87
0,83,127,33
0,64,127,0
0,36,127,15
0,64,100,2
0,59,100,1
0,76,100,0
0,83,0,58
0,64,0,15
0,80,127,27
0,40,0,22
0,36,0,7
0,80,0,47
0,68,127,44
0,68,100,0
0,76,0,1
0,59,0,35
0,64,0,11
0,68,0,8
0,76,111,37
0,76,0,75
0,68,127,45
0,40,100,18
0,40,127,9
0,36,127,0
0,68,0,75
0,40,0,12
0,80,127,6
0,36,0,23
0,80,0,51
0,71,88,46
0,71,0,72
0,76,103,48
0,68,124,0
0,76,0,80
0,68,0,20
0,68,0,7
0,80,127,13
0,69,100,0
0,56,100,22
0,36,127,6
0,57,100,26
0,80,0,32
0,56,0,29
0,71,89,2
0,36,0,16
0,71,0,81
0,68,100,0
0,76,114,1
0,40,0,27
0,69,0,6
0,56,100,6
0,76,0,54
0,68,127,27
0,57,0,9
0,68,0,67
0,68,0,32
0,80,127,12
0,69,100,0
0,56,0,8
0,40,100,8
0,52,100,2
0,36,127,2
0,40,127,1
0,80,0,57
0,40,0,31
0,64,99,8
0,68,117,0
0,36,0,27
0,68,0,34
0,52,0,11
0,64,0,12
0,69,0,25
0,76,127,11
