track,note,velocity,time
1,28,127,10060
1,28,0,168
1,28,127,72
1,28,0,143
1,28,110,97
1,28,0,163
1,28,127,317
1,28,0,123
1,28,127,117
1,28,0,123
1,28,123,117
1,28,0,130
1,28,127,350
1,28,0,115
1,28,127,125
1,28,0,120
1,28,115,120
1,28,0,130
1,28,127,350
1,28,0,117
1,28,127,123
1,28,0,115
1,28,123,125
1,28,0,130
1,35,127,350
1,35,0,110
1,35,110,130
1,35,0,117
1,35,119,123
1,35,0,115
1,35,127,365
1,35,0,112
1,35,126,128
1,35,0,123
1,35,111,117
1,35,0,115
1,35,127,365
1,35,0,107
1,35,126,133
1,35,0,102
1,35,106,138
1,35,0,110
1,35,127,370
1,35,0,97
1,35,127,143
1,35,0,102
1,35,118,138
1,35,0,102
1,28,127,378
1,28,0,102
1,28,127,138
1,28,0,97
1,28,119,143
1,28,0,110
1,28,127,370
1,28,0,105
1,28,127,135
1,28,0,105
1,28,122,135
1,28,0,120
1,28,127,360
1,28,0,100
1,28,127,140
1,28,0,107
1,28,126,133
1,28,0,105
1,28,127,375
1,28,0,102
1,28,127,138
1,28,0,95
1,28,127,145
1,28,0,100
1,35,127,380
1,35,0,102
1,35,127,138
1,35,0,100
1,35,122,140
1,35,0,97
1,35,127,383
1,35,0,97
1,35,127,143
1,35,0,97
1,35,127,143
1,35,0,100
1,35,127,380
1,35,0,97
1,35,127,143
1,35,0,105
1,35,126,135
1,35,0,95
1,35,127,385
1,35,0,100
1,35,127,140
1,35,0,115
1,35,110,125
1,35,0,100
1,28,127,380
1,28,0,110
1,28,127,130
1,28,0,107
1,28,122,133
1,28,0,102
1,28,127,378
1,28,0,123
1,28,126,117
1,28,0,130
1,28,126,110
1,28,0,102
1,28,127,378
1,28,0,128
1,28,127,112
1,28,0,115
1,28,123,125
1,28,0,117
1,28,127,363
1,28,0,130
1,28,122,110
1,28,0,107
1,28,126,133
1,28,0,97
1,35,127,383
1,35,0,110
1,35,122,130
1,35,0,130
1,35,110,110
1,35,0,117
1,35,127,363
1,35,0,110
1,35,127,130
1,35,0,112
1,35,118,128
1,35,0,107
1,35,127,373
1,35,0,110
1,35,127,130
1,35,0,112
1,35,115,128
1,35,0,107
1,35,127,373
1,35,0,112
1,35,123,128
1,35,0,102
1,35,114,138
1,35,0,102
1,28,127,378
1,28,0,115
1,28,122,125
1,28,0,117
1,28,122,123
1,28,0,117
1,28,127,363
1,28,0,120
1,28,122,120
1,28,0,107
1,28,118,133
1,28,0,112
1,28,127,368
1,28,0,112
1,28,127,128
1,28,0,120
1,28,118,120
1,28,0,105
1,28,127,375
1,28,0,110
1,28,127,130
1,28,0,105
1,28,123,135
1,28,0,105
1,35,127,375
1,35,0,115
1,35,126,125
1,35,0,117
1,35,126,123
1,35,0,107
1,35,127,373
1,35,0,115
1,35,127,125
1,35,0,115
1,35,119,125
1,35,0,102
1,35,127,378
1,35,0,107
1,35,118,133
1,35,0,112
1,35,122,128
1,35,0,115
1,35,127,365
1,35,0,107
1,35,122,133
1,35,0,105
1,35,122,135
1,35,0,105
1,36,127,375
1,36,0,112
1,36,114,128
1,36,0,120
1,36,106,120
1,36,0,128
1,36,94,112
1,36,0,143
1,36,87,97
1,36,0,140
1,33,127,820
1,33,0,117
1,33,127,123
1,33,0,115
1,33,127,125
1,33,0,120
1,33,106,120
1,33,0,178
1,33,90,62
1,33,0,123
1,28,127,837
1,28,0,120
1,28,123,120
1,28,0,120
1,28,123,120
1,28,0,123
1,28,127,357
1,28,0,128
1,28,127,112
1,28,0,117
1,28,111,123
1,28,0,117
1,28,127,363
1,28,0,130
1,28,127,110
1,28,0,110
1,28,98,130
1,28,0,112
1,28,127,368
1,28,0,112
1,28,119,128
1,28,0,112
1,28,98,128
1,28,0,112
1,35,127,368
1,35,0,123
1,35,111,117
1,35,0,117
1,35,91,123
1,35,0,120
1,35,127,360
1,35,0,117
1,35,119,123
1,35,0,117
1,35,110,123
1,35,0,110
1,35,127,370
1,35,0,107
1,35,123,133
1,35,0,117
1,35,87,123
1,35,0,117
1,35,127,363
1,35,0,115
1,35,122,125
1,35,0,115
1,35,94,125
1,35,0,105
1,28,127,375
1,28,0,107
1,28,127,133
1,28,0,117
1,28,95,123
1,28,0,115
1,28,127,365
1,28,0,120
1,28,122,120
1,28,0,115
1,28,106,125
1,28,0,128
1,28,127,352
1,28,0,105
1,28,119,135
1,28,0,100
1,28,107,140
1,28,0,97
1,28,127,383
1,28,0,123
1,28,127,117
1,28,0,87
1,28,123,153
1,28,0,117
1,35,127,363
1,35,0,123
1,35,115,117
1,35,0,110
1,35,107,130
1,35,0,125
1,35,127,355
1,35,0,130
1,35,123,110
1,35,0,115
1,35,107,125
1,35,0,107
1,35,127,373
1,35,0,120
1,35,123,120
1,35,0,123
1,35,78,117
1,35,0,117
1,35,127,363
1,35,0,117
1,35,115,123
1,35,0,112
1,35,119,128
1,35,0,120
1,36,127,360
1,36,0,115
1,36,111,125
1,36,0,112
1,36,119,128
1,36,0,128
1,36,96,112
1,36,0,143
1,36,78,97
1,36,0,128
1,38,127,832
1,38,0,112
1,38,118,128
1,38,0,128
1,38,127,112
1,38,0,125
1,38,94,115
1,38,0,133
1,38,108,107
1,38,0,140
1,36,127,820
1,36,0,110
1,36,127,130
1,36,0,112
1,36,127,128
1,36,0,107
1,36,99,133
1,36,0,123
1,36,110,117
1,36,0,125
1,33,127,835
1,33,0,110
1,33,127,130
1,33,0,112
1,33,127,128
1,33,0,117
1,33,118,123
1,33,0,117
1,33,127,123
1,33,0,120
1,40,127,840
1,40,0,268
1,38,127,1172
1,38,0,2
1,35,127,0
1,35,0,225
1,38,127,1145
1,38,0,430
1,40,127,50
1,40,0,332
1,38,127,1108
1,35,127,10
1,38,0,8
1,35,0,155
1,37,127,250
1,37,0,230
1,38,127,250
1,38,0,227
1,38,127,133
1,38,0,120
1,39,127,240
1,39,0,110
1,40,127,130
1,40,0,237
1,38,127,1203
1,38,0,9
1,35,127,3
1,35,0,202
1,38,127,1135
1,38,0,47
1,33,127,20
1,33,0,107
1,33,127,90
1,33,0,128
1,33,126,112
1,33,0,140
1,33,127,100
1,33,0,125
1,33,114,115
1,33,0,258
1,35,127,702
1,35,0,117
1,35,127,123
1,35,0,105
1,35,127,135
1,35,0,105
1,35,126,135
1,35,0,82
1,36,127,158
1,36,0,135
1,36,127,105
1,36,0,115
1,43,127,125
1,43,0,125
1,28,127,8035
1,28,0,110
1,28,127,130
1,28,0,107
1,28,122,133
1,28,0,102
1,28,127,378
1,28,0,123
1,28,127,117
1,28,0,130
1,28,127,110
1,28,0,102
1,28,127,378
1,28,0,128
1,28,127,112
1,28,0,115
1,28,123,125
1,28,0,117
1,28,127,363
1,28,0,130
1,28,122,110
1,28,0,107
1,28,127,133
1,28,0,97
1,35,127,383
1,35,0,110
1,35,123,130
1,35,0,130
1,35,111,110
1,35,0,117
1,35,127,363
1,35,0,110
1,35,126,130
1,35,0,112
1,35,119,128
1,35,0,107
1,35,127,373
1,35,0,110
1,35,127,130
1,35,0,112
1,35,115,128
1,35,0,107
1,35,127,373
1,35,0,112
1,35,122,128
1,35,0,102
1,35,115,138
1,35,0,102
1,28,127,378
1,28,0,115
1,28,123,125
1,28,0,117
1,28,122,123
1,28,0,117
1,28,127,363
1,28,0,120
1,28,123,120
1,28,0,107
1,28,119,133
1,28,0,112
1,28,127,368
1,28,0,112
1,28,127,128
1,28,0,120
1,28,118,120
1,28,0,105
1,28,127,375
1,28,0,110
1,28,127,130
1,28,0,105
1,28,123,135
1,28,0,105
1,35,127,375
1,35,0,115
1,35,127,125
1,35,0,117
1,35,127,123
1,35,0,107
1,35,127,373
1,35,0,115
1,35,127,125
1,35,0,115
1,35,119,125
1,35,0,102
1,35,127,378
1,35,0,107
1,35,118,133
1,35,0,112
1,35,123,128
1,35,0,115
1,35,127,365
1,35,0,107
1,35,122,133
1,35,0,105
1,35,123,135
1,35,0,105
1,36,127,375
1,36,0,112
1,36,114,128
1,36,0,120
1,36,106,120
1,36,0,128
1,36,95,112
1,36,0,143
1,36,87,97
1,36,0,140
1,33,127,820
1,33,0,117
1,33,127,123
1,33,0,115
1,33,126,125
1,33,0,120
1,33,107,120
1,33,0,178
1,33,90,62
1,33,0,123
1,28,127,837
1,28,0,120
1,28,122,120
1,28,0,120
1,28,122,120
1,28,0,123
1,28,127,357
1,28,0,128
1,28,127,112
1,28,0,117
1,28,111,123
1,28,0,117
1,28,127,363
1,28,0,130
1,28,126,110
1,28,0,110
1,28,99,130
1,28,0,112
1,28,127,368
1,28,0,112
1,28,118,128
1,28,0,112
1,28,98,128
1,28,0,112
1,35,127,368
1,35,0,123
1,35,111,117
1,35,0,117
1,35,91,123
1,35,0,120
1,35,127,360
1,35,0,117
1,35,118,123
1,35,0,117
1,35,111,123
1,35,0,110
1,35,127,370
1,35,0,107
1,35,122,133
1,35,0,117
1,35,86,123
1,35,0,117
1,35,127,363
1,35,0,115
1,35,122,125
1,35,0,115
1,35,94,125
1,35,0,105
1,28,127,375
1,28,0,107
1,28,126,133
1,28,0,117
1,28,95,123
1,28,0,115
1,28,127,365
1,28,0,120
1,28,123,120
1,28,0,115
1,28,106,125
1,28,0,128
1,28,127,352
1,28,0,105
1,28,118,135
1,28,0,100
1,28,107,140
1,28,0,97
1,28,127,383
1,28,0,123
1,28,127,117
1,28,0,87
1,28,123,153
1,28,0,117
1,35,127,363
1,35,0,123
1,35,114,117
1,35,0,110
1,35,106,130
1,35,0,125
1,35,127,355
1,35,0,130
1,35,123,110
1,35,0,115
1,35,106,125
1,35,0,107
1,35,127,373
1,35,0,120
1,35,122,120
1,35,0,123
1,35,78,117
1,35,0,117
1,35,127,363
1,35,0,117
1,35,114,123
1,35,0,112
1,35,118,128
1,35,0,120
1,36,127,360
1,36,0,115
1,36,110,125
1,36,0,112
1,36,118,128
1,36,0,128
1,36,97,112
1,36,0,143
1,36,78,97
1,36,0,128
1,38,127,832
1,38,0,112
1,38,118,128
1,38,0,128
1,38,127,112
1,38,0,125
1,38,95,115
1,38,0,133
1,38,108,107
1,38,0,140
1,36,127,820
1,36,0,110
1,36,127,130
1,36,0,112
1,36,127,128
1,36,0,107
1,36,99,133
1,36,0,123
1,36,110,117
1,36,0,125
1,33,127,835
1,33,0,110
1,33,127,130
1,33,0,112
1,33,127,128
1,33,0,117
1,33,118,123
1,33,0,117
1,33,127,123
1,33,0,120
1,40,127,840
1,40,0,268
1,38,127,1172
1,38,0,2
1,35,127,0
1,35,0,225
1,38,127,1145
1,38,0,430
1,40,127,50
1,40,0,332
1,38,127,1108
1,35,127,10
1,38,0,8
1,35,0,155
1,37,127,250
1,37,0,230
1,38,127,250
1,38,0,227
1,38,127,133
1,38,0,120
1,39,127,240
1,39,0,110
1,40,127,130
1,40,0,237
1,38,127,1203
1,38,0,9
1,35,127,3
1,35,0,202
1,38,127,1135
1,38,0,47
1,33,127,20
1,33,0,107
1,33,127,90
1,33,0,128
1,33,127,112
1,33,0,140
1,33,126,100
1,33,0,125
1,33,114,115
1,33,0,258
1,35,127,702
1,35,0,117
1,35,127,123
1,35,0,105
1,35,127,135
1,35,0,105
1,35,127,135
1,35,0,82
1,36,127,158
1,36,0,135
1,36,127,105
1,36,0,115
1,43,127,125
1,43,0,125
1,28,127,8035
1,28,0,110
1,28,127,130
1,28,0,100
1,28,118,140
1,28,0,97
1,28,127,383
1,28,0,112
1,28,127,128
1,28,0,100
1,28,127,140
1,28,0,107
1,28,127,373
1,28,0,105
1,28,127,135
1,28,0,105
1,28,126,135
1,28,0,107
1,28,127,373
1,28,0,115
1,28,127,125
1,28,0,102
1,28,127,138
1,28,0,90
1,35,127,390
1,35,0,110
1,35,127,130
1,35,0,90
1,35,127,150
1,35,0,95
1,35,127,385
1,35,0,90
1,35,127,150
1,35,0,85
1,35,127,155
1,35,0,95
1,35,127,385
1,35,0,100
1,35,127,140
1,35,0,82
1,35,127,158
1,35,0,100
1,35,127,380
1,35,0,97
1,35,127,143
1,35,0,82
1,35,127,158
1,35,0,107
1,28,127,373
1,28,0,100
1,28,127,140
1,28,0,80
1,28,127,160
1,28,0,97
1,28,127,383
1,28,0,97
1,28,127,143
1,28,0,95
1,28,127,145
1,28,0,92
1,28,127,388
1,28,0,100
1,28,127,140
1,28,0,90
1,28,122,150
1,28,0,102
1,28,127,378
1,28,0,100
1,28,127,140
1,28,0,82
1,28,127,158
1,28,0,97
1,35,127,383
1,35,0,97
1,35,127,143
1,35,0,90
1,35,119,150
1,35,0,100
1,35,127,380
1,35,0,97
1,35,127,143
1,35,0,82
1,35,127,158
1,35,0,92
1,35,127,388
1,35,0,97
1,35,127,143
1,35,0,87
1,35,127,153
1,35,0,92
1,35,127,388
1,35,0,92
1,35,127,148
1,35,0,82
1,35,127,158
1,35,0,92
1,33,127,388
1,33,0,95
1,33,127,145
1,33,0,90
1,33,127,150
1,33,0,97
1,33,127,143
1,33,0,97
1,33,118,143
1,33,0,107
1,35,127,853
1,35,0,85
1,35,127,155
1,35,0,90
1,35,127,150
1,35,0,97
1,35,118,143
1,35,0,102
1,35,115,138
1,35,0,102
1,36,127,858
1,36,0,97
1,36,127,143
1,36,0,105
1,36,127,135
1,36,0,105
1,36,110,135
1,36,0,112
1,36,107,128
1,36,0,105
1,38,127,855
1,38,0,97
1,38,127,143
1,38,0,105
1,38,127,135
1,38,0,92
1,38,119,148
1,38,0,107
1,38,127,133
1,38,0,123
1,33,127,837
1,33,0,100
1,33,127,140
1,33,0,92
1,33,127,148
1,33,0,97
1,33,123,143
1,33,0,105
1,33,127,135
1,33,0,120
1,35,127,840
1,35,0,95
1,35,127,145
1,35,0,92
1,35,127,148
1,35,0,100
1,35,118,140
1,35,0,112
1,35,114,128
1,35,0,105
1,36,127,855
1,36,0,102
1,36,127,138
1,36,0,97
1,36,126,143
1,36,0,110
1,36,126,130
1,36,0,102
1,36,123,138
1,36,0,110
1,38,127,850
1,38,0,95
1,38,127,145
1,38,0,87
1,38,127,153
1,38,0,97
1,38,123,143
1,38,0,92
1,39,127,148
1,39,0,100
1,39,127,140
1,39,0,82
1,39,115,158
1,39,0,97
1,39,82,143
1,39,0,70
1,40,127,170
1,40,0,268
1,38,127,1172
1,38,0,2
1,35,127,0
1,35,0,225
1,38,127,1145
1,38,0,430
1,40,127,50
1,40,0,332
1,38,127,1108
1,35,127,10
1,38,0,8
1,35,0,155
1,37,127,250
1,37,0,230
1,38,127,250
1,38,0,227
1,38,127,133
1,38,0,120
1,39,127,240
1,39,0,110
1,40,127,130
1,40,0,237
1,38,127,1203
1,38,0,9
1,35,127,3
1,35,0,202
1,38,127,1135
1,38,0,47
1,36,127,20
1,36,0,107
1,36,127,90
1,36,0,128
1,36,126,112
1,36,0,140
1,36,126,100
1,36,0,125
1,36,127,115
1,36,0,150
1,36,127,90
1,36,0,128
1,36,127,112
1,36,0,140
1,36,127,100
1,36,0,125
1,38,127,115
1,38,0,117
1,38,127,123
1,38,0,105
1,38,127,135
1,38,0,105
1,38,127,135
1,38,0,82
1,38,127,158
1,38,0,135
1,38,127,105
1,38,0,115
1,38,127,125
1,38,0,135
1,38,127,105
1,38,0,115
1,40,127,125
1,40,0,268
1,38,127,1172
1,38,0,2
1,35,127,0
1,35,0,225
1,38,127,1145
1,38,0,430
1,40,127,50
1,40,0,332
1,38,127,1108
1,35,127,10
1,38,0,8
1,35,0,155
1,37,127,250
1,37,0,230
1,38,127,250
1,38,0,227
1,38,127,133
1,38,0,120
1,39,127,240
1,39,0,110
1,40,127,130
1,40,0,237
1,38,127,1203
1,38,0,9
1,35,127,3
1,35,0,202
1,38,127,1135
1,38,0,47
1,36,127,20
1,36,0,107
1,36,127,90
1,36,0,128
1,36,127,112
1,36,0,140
1,36,126,100
1,36,0,125
1,36,127,115
1,36,0,150
1,36,127,90
1,36,0,128
1,36,127,112
1,36,0,140
1,36,127,100
1,36,0,125
1,38,127,115
1,38,0,117
