track,note,velocity,time
1,81,30,1920
1,81,0,214
1,84,30,26
1,84,0,27
1,74,78,65957
1,79,76,217
1,74,0,6
1,79,0,129
1,74,82,2808
1,74,0,226
1,79,68,2
1,79,0,3
2,33,100,7680
2,33,0,152
2,33,100,28
2,33,0,39
2,33,100,21
2,33,0,83
2,45,100,277
2,45,0,99
2,30,100,261
2,30,0,153
2,30,100,27
2,30,0,32
2,30,100,28
2,30,0,76
2,42,100,284
2,42,0,109
2,33,100,251
2,33,0,151
2,33,100,29
2,33,0,40
2,33,100,20
2,33,0,95
2,45,100,265
2,45,0,95
2,30,100,265
2,30,0,152
2,30,100,28
2,30,0,36
2,30,100,24
2,30,0,83
2,42,100,277
2,42,0,114
2,42,100,126
2,42,0,112
2,33,100,8
2,33,0,135
2,33,100,45
2,33,0,39
2,33,100,21
2,33,0,70
2,30,100,50
2,30,0,117
2,33,100,3
2,45,100,120
2,33,0,5
2,45,0,90
2,30,100,265
2,30,0,153
2,30,100,27
2,30,0,48
2,30,100,12
2,30,0,83
2,28,100,37
2,28,0,93
2,30,100,27
2,42,100,120
2,30,0,4
2,42,0,95
2,28,100,261
2,28,0,360
2,32,100,0
2,35,100,240
2,32,0,5
2,40,100,235
2,35,0,4
2,25,100,116
2,40,0,3
2,25,0,353
2,28,100,4
2,32,100,240
2,28,0,6
2,37,100,234
2,32,0,13
2,37,0,79
2,33,100,28
2,33,0,152
2,33,100,28
2,33,0,39
2,33,100,21
2,33,0,83
2,45,100,277
2,45,0,99
2,30,100,261
2,30,0,153
2,30,100,27
2,30,0,32
2,30,100,28
2,30,0,76
2,42,100,284
2,42,0,109
2,33,100,251
2,33,0,151
2,33,100,29
2,33,0,40
2,33,100,20
2,33,0,95
2,45,100,265
2,45,0,95
2,30,100,265
2,30,0,152
2,30,100,28
2,30,0,36
2,30,100,24
2,30,0,83
2,42,100,277
2,42,0,114
2,42,100,126
2,42,0,112
2,33,100,8
2,33,0,135
2,33,100,45
2,33,0,39
2,33,100,21
2,33,0,70
2,30,100,50
2,30,0,117
2,33,100,3
2,45,100,120
2,33,0,5
2,45,0,90
2,30,100,265
2,30,0,153
2,30,100,27
2,30,0,48
2,30,100,12
2,30,0,83
2,28,100,37
2,28,0,93
2,30,100,27
2,42,100,120
2,30,0,4
2,42,0,95
2,28,100,261
2,28,0,360
2,32,100,0
2,35,100,240
2,32,0,5
2,40,100,235
2,35,0,4
2,25,100,116
2,40,0,3
2,25,0,353
2,28,100,4
2,32,100,240
2,28,0,6
2,37,100,234
2,32,0,13
2,37,0,79
2,33,100,28
2,33,0,152
2,33,100,28
2,33,0,39
2,33,100,21
2,33,0,83
2,45,100,277
2,45,0,99
2,30,100,261
2,30,0,153
2,30,100,27
2,30,0,32
2,30,100,28
2,30,0,76
2,42,100,284
2,42,0,109
2,33,100,251
2,33,0,151
2,33,100,29
2,33,0,40
2,33,100,20
2,33,0,95
2,45,100,265
2,45,0,95
2,30,100,265
2,30,0,152
2,30,100,28
2,30,0,36
2,30,100,24
2,30,0,83
2,42,100,277
2,42,0,114
2,42,100,126
2,42,0,112
2,33,100,8
2,33,0,135
2,33,100,45
2,33,0,39
2,33,100,21
2,33,0,70
2,30,100,50
2,30,0,117
2,33,100,3
2,45,100,120
2,33,0,5
2,45,0,90
2,30,100,265
2,30,0,153
2,30,100,27
2,30,0,48
2,30,100,12
2,30,0,83
2,28,100,37
2,28,0,93
2,30,100,27
2,42,100,120
2,30,0,4
2,42,0,95
2,40,93,269
2,40,0,88
2,40,88,93
2,40,0,70
2,40,88,96
2,40,0,69
2,40,86,50
2,40,0,65
2,40,83,58
2,40,0,60
2,40,90,70
2,40,0,57
2,40,74,61
2,40,0,67
2,38,106,63
2,38,0,80
2,38,95,99
2,38,0,95
2,38,110,77
2,38,0,85
2,37,110,29
2,37,0,127
2,49,110,3
2,38,110,113
2,49,0,10
2,38,0,112
2,50,110,0
2,50,0,115
2,28,119,0
2,28,0,156
2,28,114,24
2,28,0,49
2,27,110,131
2,27,0,117
2,28,119,0
2,40,110,113
2,28,0,16
2,29,119,113
2,40,0,24
2,41,114,92
2,29,0,15
2,30,118,112
2,41,0,15
2,42,127,170
2,30,0,12
2,42,0,50
2,30,110,118
2,35,110,121
2,30,0,4
2,47,106,104
2,35,0,22
2,36,106,104
2,47,0,24
2,48,106,88
2,36,0,30
2,25,110,96
2,48,0,7
2,37,110,187
2,25,0,15
2,37,0,54
2,25,110,109
2,25,0,111
2,25,110,122
2,37,110,119
2,25,0,14
2,25,98,102
2,37,0,26
2,25,0,56
2,33,119,36
2,45,114,180
2,33,0,14
2,45,0,86
2,33,119,99
2,45,114,226
2,33,0,9
2,33,106,106
2,45,0,25
2,44,110,99
2,33,0,15
2,44,0,103
2,28,119,0
2,28,0,156
2,28,114,24
2,28,0,49
2,27,110,131
2,27,0,117
2,28,119,0
2,40,110,113
2,28,0,16
2,29,119,113
2,40,0,24
2,41,114,92
2,29,0,15
2,30,118,112
2,41,0,15
2,42,127,170
2,30,0,12
2,42,0,50
2,30,110,118
2,35,110,121
2,30,0,4
2,47,106,104
2,35,0,22
2,36,106,104
2,47,0,24
2,48,106,88
2,36,0,30
2,25,110,96
2,48,0,7
2,37,110,187
2,25,0,15
2,37,0,54
2,25,110,109
2,25,0,111
2,25,110,122
2,37,110,119
2,25,0,14
2,25,98,102
2,37,0,26
2,25,0,56
2,33,119,36
2,45,114,180
2,33,0,14
2,45,0,86
2,33,119,99
2,45,114,226
2,33,0,9
2,33,106,106
2,45,0,25
2,44,110,99
2,33,0,15
2,44,0,103
2,33,110,0
2,33,0,752
2,33,94,88
2,28,98,120
2,33,0,2
2,28,0,689
2,28,78,149
2,33,110,120
2,28,0,6
2,33,0,106
2,33,98,68
2,33,0,83
2,33,94,97
2,33,0,90
2,33,90,30
2,45,110,120
2,33,0,2
2,45,0,83
2,33,103,275
2,33,0,88
2,33,110,92
2,33,0,72
2,33,110,108
2,33,0,98
2,28,93,22
2,28,0,73
2,28,102,47
2,28,0,100
2,31,98,20
2,31,0,74
2,31,98,46
2,31,0,112
2,33,100,8
2,33,0,152
2,33,100,28
2,33,0,39
2,33,100,21
2,33,0,83
2,45,100,277
2,45,0,99
2,30,100,261
2,30,0,153
2,30,100,27
2,30,0,32
2,30,100,28
2,30,0,76
2,42,100,284
2,42,0,109
2,33,100,251
2,33,0,151
2,33,100,29
2,33,0,40
2,33,100,20
2,33,0,95
2,45,100,265
2,45,0,95
2,30,100,265
2,30,0,152
2,30,100,28
2,30,0,36
2,30,100,24
2,30,0,83
2,42,100,277
2,42,0,114
2,42,100,126
2,42,0,112
2,33,100,8
2,33,0,135
2,33,100,45
2,33,0,39
2,33,100,21
2,33,0,70
2,30,100,50
2,30,0,117
2,33,100,3
2,45,100,120
2,33,0,5
2,45,0,90
2,30,100,265
2,30,0,153
2,30,100,27
2,30,0,48
2,30,100,12
2,30,0,83
2,28,100,37
2,28,0,93
2,30,100,27
2,42,100,120
2,30,0,4
2,42,0,95
2,28,100,261
2,28,0,360
2,32,100,0
2,35,100,240
2,32,0,5
2,40,100,235
2,35,0,4
2,25,100,116
2,40,0,3
2,25,0,353
2,28,100,4
2,32,100,240
2,28,0,6
2,37,100,234
2,32,0,13
2,37,0,79
2,33,100,28
2,33,0,152
2,33,100,28
2,33,0,39
2,33,100,21
2,33,0,83
2,45,100,277
2,45,0,99
2,30,100,261
2,30,0,153
2,30,100,27
2,30,0,32
2,30,100,28
2,30,0,76
2,42,100,284
2,42,0,109
2,33,100,251
2,33,0,151
2,33,100,29
2,33,0,40
2,33,100,20
2,33,0,95
2,45,100,265
2,45,0,95
2,30,100,265
2,30,0,152
2,30,100,28
2,30,0,36
2,30,100,24
2,30,0,83
2,42,100,277
2,42,0,114
2,42,100,126
2,42,0,112
2,33,100,8
2,33,0,135
2,33,100,45
2,33,0,39
2,33,100,21
2,33,0,70
2,30,100,50
2,30,0,117
2,33,100,3
2,45,100,120
2,33,0,5
2,45,0,90
2,30,100,265
2,30,0,153
2,30,100,27
2,30,0,48
2,30,100,12
2,30,0,83
2,28,100,37
2,28,0,93
2,30,100,27
2,42,100,120
2,30,0,4
2,42,0,95
2,40,93,269
2,40,0,88
2,40,88,93
2,40,0,70
2,40,88,96
2,40,0,69
2,40,86,50
2,40,0,65
2,40,83,58
2,40,0,60
2,40,90,70
2,40,0,57
2,40,74,61
2,40,0,67
2,38,106,63
2,38,0,80
2,38,95,99
2,38,0,95
2,38,110,77
2,38,0,85
2,37,110,29
2,37,0,127
2,49,110,3
2,38,110,113
2,49,0,10
2,38,0,112
2,50,110,0
2,50,0,115
2,28,119,0
2,28,0,156
2,28,114,24
2,28,0,49
2,27,110,131
2,27,0,117
2,28,119,0
2,40,110,113
2,28,0,16
2,29,119,113
2,40,0,24
2,41,114,92
2,29,0,15
2,30,118,112
2,41,0,15
2,42,127,170
2,30,0,12
2,42,0,50
2,30,110,118
2,35,110,121
2,30,0,4
2,47,106,104
2,35,0,22
2,36,106,104
2,47,0,24
2,48,106,88
2,36,0,30
2,25,110,96
2,48,0,7
2,37,110,187
2,25,0,15
2,37,0,54
2,25,110,109
2,25,0,111
2,25,110,122
2,37,110,119
2,25,0,14
2,25,98,102
2,37,0,26
2,25,0,56
2,33,119,36
2,45,114,180
2,33,0,14
2,45,0,86
2,33,119,99
2,45,114,226
2,33,0,9
2,33,106,106
2,45,0,25
2,44,110,99
2,33,0,15
2,44,0,103
2,28,119,0
2,28,0,156
2,28,114,24
2,28,0,49
2,27,110,131
2,27,0,117
2,28,119,0
2,40,110,113
2,28,0,16
2,29,119,113
2,40,0,24
2,41,114,92
2,29,0,15
2,30,118,112
2,41,0,15
2,42,127,170
2,30,0,12
2,42,0,50
2,30,110,118
2,35,110,121
2,30,0,4
2,47,106,104
2,35,0,22
2,36,106,104
2,47,0,24
2,48,106,88
2,36,0,30
2,25,110,96
2,48,0,7
2,37,110,187
2,25,0,15
2,37,0,54
2,25,110,109
2,25,0,111
2,25,110,122
2,37,110,119
2,25,0,14
2,25,98,102
2,37,0,26
2,25,0,56
2,33,119,36
2,45,114,180
2,33,0,14
2,45,0,86
2,33,119,99
2,45,114,226
2,33,0,9
2,33,106,106
2,45,0,25
2,44,110,99
2,33,0,15
2,44,0,103
2,33,110,0
2,33,0,752
2,33,94,88
2,28,98,120
2,33,0,2
2,28,0,689
2,28,78,149
2,33,110,120
2,28,0,6
2,33,0,106
2,33,98,68
2,33,0,83
2,33,94,97
2,33,0,90
2,33,90,30
2,45,110,120
2,33,0,2
2,45,0,83
2,33,103,275
2,33,0,88
2,33,110,92
2,33,0,72
2,33,110,108
2,33,0,98
2,28,93,22
2,28,0,73
2,28,102,47
2,28,0,100
2,31,98,20
2,31,0,74
2,31,98,46
2,31,0,112
2,33,110,8
2,33,0,752
2,33,94,88
2,28,98,120
2,33,0,2
2,28,0,689
2,28,78,149
2,33,110,120
2,28,0,6
2,33,0,106
2,33,98,68
2,33,0,83
2,33,94,97
2,33,0,90
2,33,90,30
2,45,110,120
2,33,0,2
2,45,0,83
2,33,103,275
2,33,0,88
2,33,110,92
2,33,0,72
2,33,110,108
2,33,0,98
2,28,93,22
2,28,0,73
2,28,102,47
2,28,0,100
2,31,98,20
2,31,0,74
2,31,98,46
2,31,0,112
2,33,110,8
2,33,0,752
2,33,94,88
2,28,98,120
2,33,0,2
2,28,0,689
2,28,78,149
2,33,110,120
2,28,0,6
2,33,0,106
2,33,98,68
2,33,0,83
2,33,94,97
2,33,0,90
2,33,90,30
2,45,110,120
2,33,0,2
2,45,0,83
2,33,103,275
2,33,0,88
2,33,110,92
2,33,0,72
2,33,110,108
2,33,0,98
2,28,93,22
2,28,0,73
2,28,102,47
2,28,0,100
2,31,98,20
2,31,0,74
2,31,98,46
2,31,0,112
2,33,110,8
2,33,0,752
2,33,94,88
2,28,85,120
2,33,0,2
2,28,0,689
2,33,110,269
2,28,78,0
2,28,0,6
2,33,0,106
2,33,98,68
2,33,0,83
2,33,94,97
2,33,0,90
2,33,90,30
2,45,110,120
2,33,0,2
2,45,0,83
2,33,103,275
2,33,0,88
2,33,110,92
2,33,0,72
2,33,110,108
2,33,0,98
2,28,93,22
2,28,0,73
2,28,102,47
2,28,0,100
2,31,98,20
2,31,0,74
2,31,98,46
2,31,0,112
2,28,119,8
2,28,0,156
2,28,114,24
2,28,0,49
2,27,110,131
2,27,0,117
2,28,119,0
2,40,110,113
2,28,0,16
2,29,119,113
2,40,0,24
2,41,114,92
2,29,0,15
2,41,0,110
2,30,118,2
2,42,127,185
2,30,0,12
2,42,0,50
2,30,110,118
2,35,110,121
2,30,0,4
2,47,106,104
2,35,0,22
2,36,106,104
2,47,0,24
2,48,106,88
2,36,0,30
2,25,110,96
2,48,0,7
2,37,110,187
2,25,0,15
2,37,0,54
2,25,110,109
2,25,0,111
2,25,110,122
2,37,110,119
2,25,0,14
2,25,98,102
2,37,0,26
2,25,0,56
2,33,119,36
2,45,114,180
2,33,0,14
2,45,0,86
2,33,119,99
2,45,114,226
2,33,0,9
2,33,106,106
2,45,0,25
2,44,110,99
2,33,0,15
2,44,0,103
2,28,119,0
2,28,0,156
2,28,114,24
2,28,0,49
2,27,110,131
2,27,0,117
2,28,119,0
2,40,110,113
2,28,0,16
2,29,119,113
2,40,0,24
2,41,114,92
2,29,0,15
2,30,118,112
2,41,0,15
2,42,127,170
2,30,0,12
2,42,0,50
2,30,110,118
2,35,110,121
2,30,0,4
2,47,106,104
2,35,0,22
2,36,106,104
2,47,0,24
2,48,106,88
2,36,0,30
2,25,110,96
2,48,0,7
2,37,110,187
2,25,0,15
2,37,0,54
2,25,110,109
2,25,0,111
2,25,110,122
2,37,110,119
2,25,0,14
2,25,98,102
2,37,0,26
2,25,0,56
2,33,119,36
2,45,114,180
2,33,0,14
2,45,0,86
2,33,119,99
2,45,114,226
2,33,0,9
2,33,106,106
2,45,0,25
2,44,110,99
2,33,0,15
2,44,0,103
2,28,119,0
2,28,0,156
2,28,114,24
2,28,0,49
2,27,110,131
2,27,0,117
2,28,119,0
2,40,110,113
2,28,0,16
2,29,119,113
2,40,0,24
2,41,114,92
2,29,0,15
2,41,0,110
2,30,118,2
2,42,127,185
2,30,0,12
2,42,0,50
2,30,110,118
2,35,110,121
2,30,0,4
2,47,106,104
2,35,0,22
2,36,106,104
2,47,0,24
2,48,106,88
2,36,0,30
2,25,110,96
2,48,0,7
2,37,110,187
2,25,0,15
2,37,0,54
2,25,110,109
2,25,0,111
2,25,110,122
2,37,110,119
2,25,0,14
2,25,98,102
2,37,0,26
2,25,0,56
2,33,119,36
2,45,114,180
2,33,0,14
2,45,0,86
2,33,119,99
2,45,114,226
2,33,0,9
2,33,106,106
2,45,0,25
2,44,110,99
2,33,0,15
2,44,0,103
2,28,119,0
2,28,0,156
2,28,114,24
2,28,0,49
2,27,110,131
2,27,0,117
2,28,119,0
2,40,110,113
2,28,0,16
2,29,119,113
2,40,0,24
2,41,114,92
2,29,0,15
2,30,118,112
2,41,0,15
2,42,127,170
2,30,0,12
2,42,0,50
2,30,110,118
2,35,110,121
2,30,0,4
2,47,106,104
2,35,0,22
2,36,106,104
2,47,0,24
2,48,106,88
2,36,0,30
2,25,110,96
2,48,0,7
2,37,110,187
2,25,0,15
2,37,0,54
2,25,110,109
2,25,0,111
2,25,110,122
2,37,110,119
2,25,0,14
2,25,98,102
2,37,0,26
2,25,0,56
2,33,119,36
2,45,114,180
2,33,0,14
2,45,0,86
2,33,119,99
2,45,114,226
2,33,0,9
2,33,106,106
2,45,0,25
2,44,110,99
2,33,0,15
2,44,0,103
2,28,119,0
2,28,0,156
2,28,114,24
2,28,0,49
2,27,110,131
2,27,0,117
2,28,119,0
2,40,110,113
2,28,0,16
2,29,119,113
2,40,0,24
2,41,114,92
2,29,0,15
2,41,0,110
2,30,118,2
2,42,127,185
2,30,0,12
2,42,0,50
