track,note,velocity,time
1,55,56,6524
1,55,0,72
1,55,56,0
1,55,0,72
1,55,56,0
1,55,0,72
1,55,56,0
1,55,0,24
1,55,56,0
1,55,0,48
1,55,56,0
1,55,0,24
1,55,56,0
1,55,0,24
1,55,56,0
1,55,0,48
1,55,56,0
1,55,0,72
1,55,56,0
1,55,0,72
1,55,56,0
1,55,0,24
1,53,56,0
1,53,0,48
1,53,56,0
1,53,0,24
1,53,56,0
1,53,0,48
1,53,56,0
1,53,0,24
1,53,56,0
1,53,0,24
1,53,56,0
1,53,0,48
1,53,56,0
1,53,0,72
1,53,56,0
1,53,0,72
1,53,56,0
1,53,0,24
1,51,56,0
1,51,0,48
1,51,56,0
1,51,0,24
1,51,56,0
1,51,0,48
1,51,56,0
1,51,0,24
1,51,56,0
1,51,0,24
1,51,56,0
1,51,0,48
1,50,56,0
1,50,0,72
1,50,56,0
1,50,0,72
1,50,56,0
1,50,0,24
1,51,56,0
1,51,0,48
1,50,56,0
1,50,0,72
1,50,56,0
1,50,0,24
1,51,56,0
1,51,0,72
1,55,56,0
1,55,0,72
1,55,56,0
1,55,0,72
1,55,56,0
1,55,0,72
1,55,56,0
1,55,0,24
1,55,56,0
1,55,0,48
1,55,56,0
1,55,0,24
1,55,56,0
1,55,0,24
1,55,56,0
1,55,0,48
1,55,56,0
1,55,0,72
1,55,56,0
1,55,0,72
1,55,56,0
1,55,0,24
1,53,56,0
1,53,0,48
1,53,56,0
1,53,0,24
1,53,56,0
1,53,0,48
1,53,56,0
1,53,0,24
1,53,56,0
1,53,0,24
1,53,56,0
1,53,0,48
1,53,56,0
1,53,0,72
1,53,56,0
1,53,0,72
1,53,56,0
1,53,0,24
1,51,56,0
1,51,0,48
1,51,56,0
1,51,0,24
1,51,56,0
1,51,0,48
1,51,56,0
1,51,0,24
1,51,56,0
1,51,0,24
1,51,56,0
1,51,0,48
1,50,56,0
1,50,0,72
1,50,56,0
1,50,0,72
1,50,56,0
1,50,0,24
1,51,56,0
1,51,0,48
1,50,56,0
1,50,0,72
1,50,56,0
1,50,0,24
1,51,56,0
1,51,0,72
1,67,56,0
1,63,56,0
1,63,0,384
1,67,0,0
1,67,56,0
1,63,56,0
1,63,0,384
1,67,0,0
1,63,56,0
1,60,56,0
1,60,0,384
1,63,0,0
1,70,56,0
1,65,56,0
1,65,0,192
1,70,0,0
1,70,56,0
1,65,56,0
1,65,0,192
1,70,0,0
1,55,56,0
1,55,0,72
1,55,56,0
1,55,0,72
1,55,56,0
1,55,0,72
1,55,56,0
1,55,0,24
1,55,56,0
1,55,0,48
1,55,56,0
1,55,0,24
1,55,56,0
1,55,0,24
1,55,56,0
1,55,0,48
1,55,56,0
1,55,0,72
1,55,56,0
1,55,0,72
1,55,56,0
1,55,0,24
1,53,56,0
1,53,0,48
1,53,56,0
1,53,0,24
1,53,56,0
1,53,0,48
1,53,56,0
1,53,0,24
1,53,56,0
1,53,0,24
1,53,56,0
1,53,0,48
1,53,56,0
1,53,0,72
1,53,56,0
1,53,0,72
1,53,56,0
1,53,0,24
1,51,56,0
1,51,0,48
1,51,56,0
1,51,0,24
1,51,56,0
1,51,0,48
1,51,56,0
1,51,0,24
1,51,56,0
1,51,0,24
1,51,56,0
1,51,0,48
1,50,56,0
1,50,0,72
1,50,56,0
1,50,0,72
1,50,56,0
1,50,0,24
1,51,56,0
1,51,0,48
1,50,56,0
1,50,0,72
1,50,56,0
1,50,0,24
1,51,56,0
1,51,0,72
1,70,56,3456
1,67,56,0
1,67,0,144
1,70,0,0
1,70,56,0
1,67,56,0
1,67,0,240
1,70,0,0
1,72,56,0
1,68,56,0
1,68,0,144
1,72,0,0
1,72,56,0
1,68,56,0
1,68,0,240
1,72,0,0
1,74,56,192
1,70,56,0
1,70,0,144
1,74,0,0
1,67,56,0
1,63,56,0
1,63,0,432
1,67,0,0
1,70,56,0
1,67,56,0
1,67,0,144
1,70,0,0
1,70,56,0
1,67,56,0
1,67,0,240
1,70,0,0
1,72,56,0
1,68,56,0
1,68,0,144
1,72,0,0
1,72,56,0
1,68,56,0
1,68,0,240
1,72,0,0
1,74,56,192
1,70,56,0
1,70,0,144
1,74,0,0
1,67,56,0
1,63,56,0
1,63,0,816
1,67,0,0
1,55,56,0
1,55,0,72
1,55,56,0
1,55,0,72
1,55,56,0
1,55,0,72
1,55,56,0
1,55,0,24
1,55,56,0
1,55,0,48
1,55,56,0
1,55,0,24
1,55,56,0
1,55,0,24
1,55,56,0
1,55,0,48
1,55,56,0
1,55,0,72
1,55,56,0
1,55,0,72
1,55,56,0
1,55,0,24
1,53,56,0
1,53,0,48
1,53,56,0
1,53,0,24
1,53,56,0
1,53,0,48
1,53,56,0
1,53,0,24
1,53,56,0
1,53,0,24
1,53,56,0
1,53,0,48
1,53,56,0
1,53,0,72
1,53,56,0
1,53,0,72
1,53,56,0
1,53,0,24
1,51,56,0
1,51,0,48
1,51,56,0
1,51,0,24
1,51,56,0
1,51,0,48
1,51,56,0
1,51,0,24
1,51,56,0
1,51,0,24
1,51,56,0
1,51,0,48
1,50,56,0
1,50,0,72
1,50,56,0
1,50,0,72
1,50,56,0
1,50,0,24
1,51,56,0
1,51,0,48
1,50,56,0
1,50,0,72
1,50,56,0
1,50,0,24
1,51,56,0
1,51,0,72
1,55,56,0
1,55,0,72
1,55,56,0
1,55,0,72
1,55,56,0
1,55,0,72
1,55,56,0
1,55,0,24
1,55,56,0
1,55,0,48
1,55,56,0
1,55,0,24
1,55,56,0
1,55,0,24
1,55,56,0
1,55,0,48
1,55,56,0
1,55,0,72
1,55,56,0
1,55,0,72
1,55,56,0
1,55,0,24
1,53,56,0
1,53,0,48
1,53,56,0
1,53,0,24
1,53,56,0
1,53,0,48
1,53,56,0
1,53,0,24
1,53,56,0
1,53,0,24
1,53,56,0
1,53,0,48
1,53,56,0
1,53,0,72
1,53,56,0
1,53,0,72
1,53,56,0
1,53,0,24
1,51,56,0
1,51,0,48
1,51,56,0
1,51,0,24
1,51,56,0
1,51,0,48
1,51,56,0
1,51,0,24
1,51,56,0
1,51,0,24
1,51,56,0
1,51,0,48
1,50,56,0
1,50,0,72
1,50,56,0
1,50,0,72
1,50,56,0
1,50,0,24
1,51,56,0
1,51,0,48
1,50,56,0
1,50,0,72
1,50,56,0
1,50,0,24
1,51,56,0
1,51,0,72
1,67,56,0
1,63,56,0
1,63,0,384
1,67,0,0
1,67,56,0
1,63,56,0
1,63,0,384
1,67,0,0
1,63,56,0
1,60,56,0
1,60,0,384
1,63,0,0
1,70,56,0
1,65,56,0
1,65,0,192
1,70,0,0
1,70,56,0
1,65,56,0
1,65,0,192
1,70,0,0
1,55,56,0
1,55,0,72
1,55,56,0
1,55,0,72
1,55,56,0
1,55,0,72
1,55,56,0
1,55,0,24
1,55,56,0
1,55,0,48
1,55,56,0
1,55,0,24
1,55,56,0
1,55,0,24
1,55,56,0
1,55,0,48
1,55,56,0
1,55,0,72
1,55,56,0
1,55,0,72
1,55,56,0
1,55,0,24
1,53,56,0
1,53,0,48
1,53,56,0
1,53,0,24
1,53,56,0
1,53,0,48
1,53,56,0
1,53,0,24
1,53,56,0
1,53,0,24
1,53,56,0
1,53,0,48
1,53,56,0
1,53,0,72
1,53,56,0
1,53,0,72
1,53,56,0
1,53,0,24
1,51,56,0
1,51,0,48
1,51,56,0
1,51,0,24
1,51,56,0
1,51,0,48
1,51,56,0
1,51,0,24
1,51,56,0
1,51,0,24
1,51,56,0
1,51,0,48
1,50,56,0
1,50,0,72
1,50,56,0
1,50,0,72
1,50,56,0
1,50,0,24
1,51,56,0
1,51,0,48
1,50,56,0
1,50,0,72
1,50,56,0
1,50,0,24
1,51,56,0
1,51,0,72
1,70,56,3456
1,67,56,0
1,67,0,144
1,70,0,0
1,70,56,0
1,67,56,0
1,67,0,240
1,70,0,0
1,72,56,0
1,68,56,0
1,68,0,144
1,72,0,0
1,72,56,0
1,68,56,0
1,68,0,240
1,72,0,0
1,74,56,192
1,70,56,0
1,70,0,144
1,74,0,0
1,67,56,0
1,63,56,0
1,63,0,432
1,67,0,0
1,70,56,0
1,67,56,0
1,67,0,144
1,70,0,0
1,70,56,0
1,67,56,0
1,67,0,240
1,70,0,0
1,72,56,0
1,68,56,0
1,68,0,144
1,72,0,0
1,72,56,0
1,68,56,0
1,68,0,240
1,72,0,0
1,74,56,192
1,70,56,0
1,70,0,144
1,74,0,0
1,67,56,0
1,63,56,0
1,63,0,432
1,67,0,0
1,70,56,0
1,67,56,0
1,67,0,144
1,70,0,0
1,70,56,0
1,67,56,0
1,67,0,240
1,70,0,0
1,72,56,0
1,68,56,0
1,68,0,144
1,72,0,0
1,72,53,0
1,68,53,0
1,68,0,240
1,72,0,0
1,74,43,192
1,70,43,0
1,70,0,144
1,74,0,0
1,67,39,0
1,63,39,0
1,63,0,432
1,67,0,0
1,70,29,0
1,67,29,0
1,67,0,144
1,70,0,0
1,70,26,0
1,67,26,0
1,67,0,240
1,70,0,0
1,72,20,0
1,68,20,0
1,68,0,144
1,72,0,0
1,72,16,0
1,68,16,0
1,68,0,240
1,72,0,0
1,74,6,192
1,70,6,0
1,70,0,144
1,74,0,0
1,67,3,0
1,63,3,0
1,63,0,432
1,67,0,0
2,55,56,380
2,55,0,65
2,55,56,7
2,55,0,65
2,55,56,7
2,55,0,65
2,55,56,7
2,55,0,22
2,55,56,2
2,55,0,43
2,55,56,5
2,55,0,22
2,55,56,2
2,55,0,22
2,55,56,2
2,55,0,43
2,55,56,5
2,55,0,65
2,55,56,7
2,55,0,65
2,55,56,7
2,55,0,22
2,53,56,2
2,53,0,43
2,53,56,5
2,53,0,22
2,53,56,2
2,53,0,43
2,53,56,5
2,53,0,22
2,53,56,2
2,53,0,22
2,53,56,2
2,53,0,43
2,53,56,5
2,53,0,65
2,53,56,7
2,53,0,65
2,53,56,7
2,53,0,22
2,51,56,2
2,51,0,43
2,51,56,5
2,51,0,22
2,51,56,2
2,51,0,43
2,51,56,5
2,51,0,22
2,51,56,2
2,51,0,22
2,51,56,2
2,51,0,43
2,50,56,5
2,50,0,65
2,50,56,7
2,50,0,65
2,50,56,7
2,50,0,22
2,51,56,2
2,51,0,43
2,50,56,5
2,50,0,65
2,50,56,7
2,50,0,22
2,51,56,2
2,51,0,65
2,48,56,7
2,48,0,65
2,48,56,7
2,48,0,22
2,48,56,2
2,48,0,43
2,46,56,5
2,46,0,65
2,48,56,7
2,48,0,22
2,48,56,2
2,48,0,43
2,48,56,5
2,48,0,22
2,48,56,2
2,48,0,22
2,50,56,2
2,50,0,43
2,39,56,5
2,39,0,65
2,39,56,7
2,39,0,22
2,51,56,2
2,51,0,43
2,39,56,5
2,39,0,65
2,39,56,7
2,39,0,22
2,39,56,2
2,39,0,43
2,51,56,5
2,51,0,22
2,51,56,2
2,51,0,22
2,43,56,2
2,43,0,43
2,44,56,5
2,44,0,65
2,44,56,7
2,44,0,22
2,44,56,2
2,44,0,43
2,44,56,5
2,44,0,65
2,44,56,7
2,44,0,22
2,44,56,2
2,44,0,43
2,44,56,5
2,44,0,22
2,44,56,2
2,44,0,22
2,44,56,2
2,44,0,43
2,48,56,5
2,48,0,65
2,48,56,7
2,48,0,22
2,48,56,2
2,48,0,43
2,46,56,5
2,46,0,65
2,48,56,7
2,48,0,22
2,48,56,2
2,48,0,43
2,48,56,5
2,48,0,22
2,48,56,2
2,48,0,22
2,50,56,2
2,50,0,43
2,48,56,5
2,48,0,65
2,48,56,7
2,48,0,22
2,48,56,2
2,48,0,43
2,46,56,5
2,46,0,65
2,48,56,7
2,48,0,22
2,48,56,2
2,48,0,43
2,48,56,5
2,48,0,22
2,48,56,2
2,48,0,22
2,48,56,2
2,48,0,43
2,46,56,5
2,46,0,65
2,46,56,7
2,46,0,22
2,46,56,2
2,46,0,43
2,43,56,5
2,43,0,65
2,46,56,7
2,46,0,22
2,46,56,2
2,46,0,43
2,46,56,5
2,46,0,22
2,46,56,2
2,46,0,22
2,45,56,2
2,45,0,43
2,44,56,5
2,44,0,65
2,44,56,7
2,44,0,22
2,44,56,2
2,44,0,43
2,43,56,5
2,43,0,65
2,44,56,7
2,44,0,22
2,44,56,2
2,44,0,43
2,44,56,5
2,44,0,22
2,44,56,2
2,44,0,22
2,45,56,2
2,45,0,43
2,46,56,5
2,46,0,65
2,46,56,7
2,46,0,22
2,46,56,2
2,46,0,43
2,43,56,5
2,43,0,65
2,46,56,7
2,46,0,22
2,46,56,2
2,46,0,43
2,46,56,5
2,46,0,22
2,46,56,2
2,46,0,22
2,45,56,2
2,45,0,43
2,48,56,5
2,48,0,65
2,48,56,7
2,48,0,22
2,48,56,2
2,48,0,43
2,46,56,5
2,46,0,65
2,48,56,7
2,48,0,22
2,48,56,2
2,48,0,43
2,48,56,5
2,48,0,22
2,48,56,2
2,48,0,22
2,50,56,2
2,50,0,43
2,39,56,5
2,39,0,65
2,39,56,7
2,39,0,22
2,51,56,2
2,51,0,43
2,39,56,5
2,39,0,65
2,39,56,7
2,39,0,22
2,39,56,2
2,39,0,43
2,51,56,5
2,51,0,22
2,51,56,2
2,51,0,22
2,43,56,2
2,43,0,43
2,44,56,5
2,44,0,65
2,44,56,7
2,44,0,22
2,44,56,2
2,44,0,43
2,44,56,5
2,44,0,65
2,44,56,7
2,44,0,22
2,44,56,2
2,44,0,43
2,44,56,5
2,44,0,22
2,44,56,2
2,44,0,22
2,44,56,2
2,44,0,43
2,48,56,5
2,48,0,65
2,48,56,7
2,48,0,22
2,48,56,2
2,48,0,43
2,46,56,5
2,46,0,65
2,48,56,7
2,48,0,22
2,48,56,2
2,48,0,43
2,48,56,5
2,48,0,22
2,48,56,2
2,48,0,22
2,50,56,2
2,50,0,43
2,48,56,5
2,48,0,48
2,48,56,0
2,48,0,48
2,48,56,0
2,48,0,48
2,48,56,0
2,48,0,48
2,48,56,24
2,48,0,24
2,48,56,0
2,48,0,144
2,46,56,0
2,46,0,72
2,46,56,0
2,46,0,24
2,46,56,0
2,46,0,48
2,46,56,0
2,46,0,48
2,46,56,24
2,46,0,24
2,46,56,0
2,46,0,144
2,44,56,0
2,44,0,72
2,44,56,0
2,44,0,24
2,44,56,0
2,44,0,48
2,44,56,0
2,44,0,48
2,44,56,24
2,44,0,24
2,44,56,0
2,44,0,144
2,46,56,0
2,46,0,72
2,46,56,0
2,46,0,24
2,46,56,0
2,46,0,48
2,46,56,0
2,46,0,48
2,46,56,24
2,46,0,24
2,43,56,0
2,43,0,48
2,46,56,0
2,46,0,48
2,46,56,0
2,46,0,48
2,48,56,0
2,48,0,72
2,48,56,0
2,48,0,24
2,48,56,0
2,48,0,48
2,48,56,0
2,48,0,48
2,48,56,24
2,48,0,24
2,48,56,0
2,48,0,144
2,46,56,0
2,46,0,72
2,46,56,0
2,46,0,24
2,46,56,0
2,46,0,48
2,46,56,0
2,46,0,48
2,46,56,24
2,46,0,24
2,46,56,0
2,46,0,144
2,44,56,0
2,44,0,72
2,44,56,0
2,44,0,24
2,44,56,0
2,44,0,48
2,44,56,0
2,44,0,48
2,44,56,24
2,44,0,24
2,44,56,0
2,44,0,144
2,46,56,0
2,46,0,72
2,46,56,0
2,46,0,24
2,46,56,0
2,46,0,48
2,46,56,0
2,46,0,48
2,46,56,24
2,46,0,24
2,43,56,0
2,43,0,48
2,43,56,0
2,43,0,48
2,46,56,0
2,46,0,48
2,46,56,384
2,46,0,72
2,46,56,0
2,46,0,24
2,46,56,0
2,46,0,48
2,46,56,0
2,46,0,48
2,46,56,24
2,46,0,24
2,46,56,0
2,46,0,144
2,46,56,384
2,46,0,72
2,46,56,0
2,46,0,24
2,46,56,0
2,46,0,48
2,46,56,0
2,46,0,48
2,46,56,24
2,46,0,24
2,43,56,0
2,43,0,96
2,46,56,0
2,46,0,48
2,48,56,0
2,48,0,72
2,48,56,0
2,48,0,24
2,48,56,0
2,48,0,48
2,48,56,0
2,48,0,48
