track,note,velocity,time
0,55,56,380
0,55,56,0
0,36,84,0
0,55,0,65
0,55,0,0
0,36,0,0
0,55,56,7
0,55,56,0
0,36,84,0
0,36,0,22
0,36,84,2
0,55,0,41
0,55,0,0
0,36,0,2
0,55,56,5
0,55,56,0
0,34,84,0
0,55,0,65
0,55,0,0
0,34,0,0
0,55,56,7
0,55,56,0
0,36,84,0
0,55,0,22
0,55,0,0
0,36,0,0
0,55,56,2
0,55,56,0
0,36,84,0
0,55,0,43
0,55,0,0
0,36,0,0
0,55,56,5
0,55,56,0
0,36,84,0
0,55,0,22
0,55,0,0
0,36,0,0
0,55,56,2
0,55,56,0
0,36,84,0
0,55,0,22
0,55,0,0
0,36,0,0
0,55,56,2
0,55,56,0
0,36,84,0
0,55,0,43
0,55,0,0
0,36,0,0
0,55,56,5
0,55,56,0
0,34,84,0
0,55,0,65
0,55,0,0
0,34,0,0
0,55,56,7
0,55,56,0
0,34,84,0
0,34,0,22
0,34,84,2
0,55,0,41
0,55,0,0
0,34,0,2
0,55,56,5
0,55,56,0
0,31,84,0
0,55,0,22
0,55,0,0
0,53,56,2
0,53,56,0
0,31,0,41
0,53,0,2
0,53,0,0
0,53,56,5
0,53,56,0
0,34,84,0
0,53,0,22
0,53,0,0
0,34,0,0
0,53,56,2
0,53,56,0
0,34,84,0
0,53,0,43
0,53,0,0
0,34,0,0
0,53,56,5
0,53,56,0
0,34,84,0
0,53,0,22
0,53,0,0
0,34,0,0
0,53,56,2
0,53,56,0
0,34,84,0
0,53,0,22
0,53,0,0
0,34,0,0
0,53,56,2
0,53,56,0
0,33,84,0
0,53,0,43
0,53,0,0
0,33,0,0
0,53,56,5
0,53,56,0
0,32,84,0
0,53,0,65
0,53,0,0
0,32,0,0
0,53,56,7
0,53,56,0
0,32,84,0
0,32,0,22
0,32,84,2
0,53,0,41
0,53,0,0
0,32,0,2
0,53,56,5
0,53,56,0
0,31,84,0
0,53,0,22
0,53,0,0
0,51,56,2
0,51,56,0
0,31,0,41
0,51,0,2
0,51,0,0
0,51,56,5
0,51,56,0
0,32,84,0
0,51,0,22
0,51,0,0
0,32,0,0
0,51,56,2
0,51,56,0
0,32,84,0
0,51,0,43
0,51,0,0
0,32,0,0
0,51,56,5
0,51,56,0
0,32,84,0
0,51,0,22
0,51,0,0
0,32,0,0
0,51,56,2
0,51,56,0
0,32,84,0
0,51,0,22
0,51,0,0
0,32,0,0
0,51,56,2
0,51,56,0
0,33,84,0
0,51,0,43
0,51,0,0
0,33,0,0
0,50,56,5
0,50,56,0
0,34,84,0
0,50,0,65
0,50,0,0
0,34,0,0
0,50,56,7
0,50,56,0
0,34,84,0
0,34,0,22
0,34,84,2
0,50,0,41
0,50,0,0
0,34,0,2
0,50,56,5
0,50,56,0
0,31,84,0
0,50,0,22
0,50,0,0
0,51,56,2
0,51,56,0
0,31,0,41
0,51,0,2
0,51,0,0
0,50,56,5
0,50,56,0
0,34,84,0
0,34,0,22
0,34,84,2
0,50,0,41
0,50,0,0
0,34,0,2
0,50,56,5
0,50,56,0
0,34,84,0
0,50,0,22
0,50,0,0
0,34,0,0
0,51,56,2
0,51,56,0
0,34,84,0
0,34,0,22
0,33,84,2
0,51,0,41
0,51,0,0
0,33,0,2
0,48,56,5
0,48,56,0
0,48,84,0
0,49,100,0
0,35,100,0
0,35,0,24
0,49,0,0
0,42,60,0
0,42,0,24
0,54,96,0
0,42,96,0
0,35,96,0
0,48,0,17
0,48,0,0
0,48,0,0
0,48,56,7
0,48,56,0
0,48,84,0
0,35,0,0
0,42,0,0
0,54,0,0
0,42,70,0
0,48,0,22
0,48,0,0
0,48,0,0
0,48,56,2
0,48,56,0
0,48,84,0
0,42,0,0
0,38,100,0
0,38,0,24
0,42,80,0
0,48,0,19
0,48,0,0
0,48,0,0
0,46,56,5
0,46,56,0
0,46,84,0
0,42,0,0
0,54,90,0
0,42,90,0
0,42,0,24
0,54,0,0
0,42,104,0
0,35,104,0
0,35,0,24
0,42,0,0
0,42,90,0
0,46,0,17
0,46,0,0
0,46,0,0
0,48,56,7
0,48,56,0
0,48,84,0
0,42,0,0
0,42,102,0
0,35,102,0
0,48,0,22
0,48,0,0
0,48,0,0
0,48,56,2
0,48,56,0
0,48,84,0
0,35,0,0
0,42,0,0
0,54,94,0
0,46,94,0
0,35,94,0
0,35,0,24
0,46,0,0
0,54,0,0
0,48,0,19
0,48,0,0
0,48,0,0
0,48,56,5
0,48,56,0
0,48,84,0
0,38,100,0
0,48,0,22
0,48,0,0
0,48,0,0
0,48,56,2
0,48,56,0
0,48,84,0
0,38,0,0
0,42,80,0
0,48,0,22
0,48,0,0
0,48,0,0
0,50,56,2
0,50,56,0
0,50,84,0
0,42,0,0
0,54,95,0
0,46,95,0
0,35,95,0
0,35,0,24
0,46,0,0
0,54,0,0
0,50,0,19
0,50,0,0
0,50,0,0
0,39,56,5
0,39,56,0
0,27,90,0
0,42,99,0
0,35,99,0
0,35,0,24
0,42,0,0
0,42,50,0
0,42,0,24
0,54,101,0
0,42,101,0
0,35,101,0
0,27,0,2
0,39,0,15
0,39,0,0
0,39,56,7
0,39,56,0
0,27,90,0
0,35,0,0
0,42,0,0
0,54,0,0
0,42,60,0
0,27,0,17
0,39,0,5
0,39,0,0
0,51,56,2
0,51,56,0
0,39,90,0
0,42,0,0
0,38,104,0
0,38,0,24
0,42,60,0
0,39,0,10
0,51,0,9
0,51,0,0
0,39,56,5
0,39,56,0
0,27,90,0
0,42,0,0
0,54,102,0
0,42,102,0
0,42,0,24
0,54,0,0
0,42,90,0
0,35,90,0
0,35,0,24
0,42,0,0
0,42,60,0
0,27,0,2
0,39,0,15
0,39,0,0
0,39,56,7
0,39,56,0
0,27,90,0
0,42,0,0
0,42,94,0
0,35,94,0
0,27,0,17
0,39,0,5
0,39,0,0
0,39,56,2
0,39,56,0
0,27,90,0
0,35,0,0
0,42,0,0
0,54,99,0
0,46,99,0
0,35,99,0
0,35,0,24
0,46,0,0
0,54,0,0
0,27,0,10
0,39,0,9
0,39,0,0
0,51,56,5
0,51,56,0
0,39,90,0
0,38,106,0
0,39,0,17
0,51,0,5
0,51,0,0
0,51,56,2
0,51,56,0
0,39,90,0
0,38,0,0
0,42,70,0
0,39,0,17
0,51,0,5
0,51,0,0
0,43,56,2
0,43,56,0
0,31,90,0
0,42,0,0
0,54,95,0
0,46,95,0
0,35,95,0
0,35,0,24
0,46,0,0
0,54,0,0
0,31,0,10
0,43,0,9
0,43,0,0
0,44,56,5
0,44,56,0
0,32,90,0
0,42,85,0
0,35,85,0
0,35,0,24
0,42,0,0
0,42,50,0
0,42,0,24
0,54,95,0
0,42,95,0
0,35,95,0
0,32,0,2
0,44,0,15
0,44,0,0
0,44,56,7
0,44,56,0
0,32,90,0
0,35,0,0
0,42,0,0
0,54,0,0
0,42,55,0
0,32,0,17
0,44,0,5
0,44,0,0
0,44,56,2
0,44,56,0
0,32,90,0
0,42,0,0
0,42,50,0
0,38,50,0
0,38,0,24
0,42,0,0
0,42,65,0
0,32,0,10
0,44,0,9
0,44,0,0
0,44,56,5
0,44,56,0
0,32,90,0
0,42,0,0
0,54,90,0
0,42,90,0
0,42,0,24
0,54,0,0
0,42,100,0
0,35,100,0
0,35,0,24
0,42,0,0
0,42,60,0
0,32,0,2
0,44,0,15
0,44,0,0
0,44,56,7
0,44,56,0
0,32,90,0
0,42,0,0
0,42,102,0
0,35,102,0
0,32,0,17
0,44,0,5
0,44,0,0
0,44,56,2
0,44,56,0
0,32,90,0
0,35,0,0
0,42,0,0
0,54,93,0
0,46,93,0
0,35,93,0
0,35,0,24
0,46,0,0
0,54,0,0
0,32,0,10
0,44,0,9
0,44,0,0
0,44,56,5
0,44,56,0
0,32,90,0
0,38,100,0
0,32,0,17
0,44,0,5
0,44,0,0
0,44,56,2
0,44,56,0
0,32,90,0
0,38,0,0
0,42,80,0
0,32,0,17
0,44,0,5
0,44,0,0
0,44,56,2
0,44,56,0
0,32,90,0
0,42,0,0
0,54,93,0
0,46,93,0
0,35,93,0
0,35,0,24
0,46,0,0
0,54,0,0
0,32,0,10
0,44,0,9
0,44,0,0
0,48,56,5
0,48,56,0
0,36,90,0
0,42,90,0
0,35,90,0
0,35,0,24
0,42,0,0
0,42,50,0
0,42,0,24
0,54,96,0
0,42,96,0
0,35,96,0
0,36,0,2
0,48,0,15
0,48,0,0
0,48,56,7
0,48,56,0
0,36,90,0
0,35,0,0
0,42,0,0
0,54,0,0
0,42,60,0
0,36,0,17
0,48,0,5
0,48,0,0
0,48,56,2
0,48,56,0
0,36,90,0
0,42,0,0
0,38,100,0
0,38,0,24
0,42,60,0
0,36,0,10
0,48,0,9
0,48,0,0
0,46,56,5
0,46,56,0
0,34,90,0
0,42,0,0
0,54,87,0
0,42,87,0
0,42,0,24
0,54,0,0
0,42,104,0
0,35,104,0
0,35,0,24
0,42,0,0
0,42,60,0
0,34,0,2
0,46,0,15
0,46,0,0
0,48,56,7
0,48,56,0
0,36,90,0
0,42,0,0
0,42,102,0
0,35,102,0
0,36,0,17
0,48,0,5
0,48,0,0
0,48,56,2
0,48,56,0
0,36,90,0
0,35,0,0
0,42,0,0
0,54,95,0
0,46,95,0
0,35,95,0
0,35,0,24
0,46,0,0
0,54,0,0
0,36,0,10
0,48,0,9
0,48,0,0
0,48,56,5
0,48,56,0
0,36,90,0
0,38,100,0
0,36,0,17
0,48,0,5
0,48,0,0
0,48,56,2
0,48,56,0
0,36,90,0
0,38,0,0
0,42,80,0
0,36,0,17
0,48,0,5
0,48,0,0
0,50,56,2
0,50,56,0
0,38,90,0
0,42,0,0
0,54,95,0
0,46,95,0
0,35,95,0
0,35,0,24
0,46,0,0
0,54,0,0
0,38,0,10
0,50,0,9
0,50,0,0
0,48,56,5
0,48,56,0
0,36,90,0
0,42,85,0
0,35,85,0
0,35,0,24
0,42,0,0
0,42,50,0
0,42,0,24
0,54,95,0
0,42,95,0
0,35,95,0
0,36,0,2
0,48,0,15
0,48,0,0
0,48,56,7
0,48,56,0
0,36,90,0
0,35,0,0
0,42,0,0
0,54,0,0
0,42,55,0
0,36,0,17
0,48,0,5
0,48,0,0
0,48,56,2
0,48,56,0
0,36,90,0
0,42,0,0
0,42,50,0
0,38,50,0
0,38,0,24
0,42,0,0
0,42,65,0
0,36,0,10
0,48,0,9
0,48,0,0
0,46,56,5
0,46,56,0
0,34,90,0
0,42,0,0
0,54,90,0
0,42,90,0
0,42,0,24
0,54,0,0
0,42,100,0
0,35,100,0
0,35,0,24
0,42,0,0
0,42,60,0
0,34,0,2
0,46,0,15
0,46,0,0
0,48,56,7
0,48,56,0
0,36,90,0
0,42,0,0
0,42,102,0
0,35,102,0
0,36,0,17
0,48,0,5
0,48,0,0
0,48,56,2
0,48,56,0
0,36,90,0
0,35,0,0
0,42,0,0
0,54,93,0
0,46,93,0
0,35,93,0
0,35,0,24
0,46,0,0
0,54,0,0
0,36,0,10
0,48,0,9
0,48,0,0
0,48,56,5
0,48,56,0
0,36,90,0
0,38,100,0
0,36,0,17
0,48,0,5
0,48,0,0
0,48,56,2
0,48,56,0
0,36,90,0
0,38,0,0
0,42,80,0
0,36,0,17
0,48,0,5
0,48,0,0
0,48,56,2
0,48,56,0
0,36,90,0
0,42,0,0
0,54,93,0
0,46,93,0
0,35,93,0
0,35,0,24
0,46,0,0
0,54,0,0
0,36,0,10
0,48,0,9
0,48,0,0
0,46,56,5
0,46,56,0
0,34,90,0
0,42,90,0
0,35,90,0
0,35,0,24
0,42,0,0
0,42,50,0
0,42,0,24
0,54,96,0
0,42,96,0
0,35,96,0
0,34,0,2
0,46,0,15
0,46,0,0
0,46,56,7
0,46,56,0
0,34,90,0
0,35,0,0
0,42,0,0
0,54,0,0
0,42,60,0
0,34,0,17
0,46,0,5
0,46,0,0
0,46,56,2
0,46,56,0
0,34,90,0
0,42,0,0
0,38,100,0
0,38,0,24
0,42,60,0
0,34,0,10
0,46,0,9
0,46,0,0
0,43,56,5
0,43,56,0
0,31,90,0
0,42,0,0
0,54,87,0
0,42,87,0
0,42,0,24
0,54,0,0
0,42,104,0
0,35,104,0
0,35,0,24
0,42,0,0
0,42,60,0
0,31,0,2
0,43,0,15
0,43,0,0
0,46,56,7
0,46,56,0
0,34,90,0
0,42,0,0
0,42,102,0
0,35,102,0
0,34,0,17
0,46,0,5
0,46,0,0
0,46,56,2
0,46,56,0
0,34,90,0
0,35,0,0
0,42,0,0
0,54,95,0
0,46,95,0
0,35,95,0
0,35,0,24
0,46,0,0
0,54,0,0
0,34,0,10
0,46,0,9
0,46,0,0
0,46,56,5
0,46,56,0
0,34,90,0
0,38,100,0
0,34,0,17
0,46,0,5
0,46,0,0
0,46,56,2
0,46,56,0
0,34,90,0
0,38,0,0
0,42,80,0
0,34,0,17
0,46,0,5
0,46,0,0
0,45,56,2
0,45,56,0
0,33,90,0
0,42,0,0
0,54,95,0
0,46,95,0
0,35,95,0
0,35,0,24
0,46,0,0
0,54,0,0
0,33,0,10
0,45,0,9
0,45,0,0
0,44,56,5
0,44,56,0
0,32,90,0
0,42,85,0
0,35,85,0
0,35,0,24
0,42,0,0
0,42,50,0
0,42,0,24
0,54,95,0
0,42,95,0
0,35,95,0
0,32,0,2
0,44,0,15
0,44,0,0
0,44,56,7
0,44,56,0
0,32,90,0
0,35,0,0
0,42,0,0
0,54,0,0
0,42,55,0
0,32,0,17
0,44,0,5
0,44,0,0
0,44,56,2
0,44,56,0
0,32,90,0
0,42,0,0
0,42,50,0
0,38,50,0
0,38,0,24
0,42,0,0
0,42,65,0
0,32,0,10
0,44,0,9
0,44,0,0
0,43,56,5
0,43,56,0
0,31,90,0
0,42,0,0
0,54,90,0
0,42,90,0
0,42,0,24
0,54,0,0
0,42,100,0
0,35,100,0
0,35,0,24
0,42,0,0
0,42,60,0
0,31,0,2
0,43,0,15
0,43,0,0
0,44,56,7
0,44,56,0
0,32,90,0
0,42,0,0
0,42,102,0
0,35,102,0
0,32,0,17
0,44,0,5
0,44,0,0
0,44,56,2
0,44,56,0
0,32,90,0
0,35,0,0
0,42,0,0
0,54,93,0
0,46,93,0
0,35,93,0
0,35,0,24
0,46,0,0
0,54,0,0
0,32,0,10
0,44,0,9
0,44,0,0
0,44,56,5
0,44,56,0
0,32,90,0
0,38,100,0
0,32,0,17
0,44,0,5
0,44,0,0
0,44,56,2
0,44,56,0
0,32,90,0
0,38,0,0
0,42,80,0
0,32,0,17
0,44,0,5
0,44,0,0
0,45,56,2
0,45,56,0
0,33,90,0
0,42,0,0
0,54,93,0
0,46,93,0
0,35,93,0
0,35,0,24
0,46,0,0
0,54,0,0
0,33,0,10
0,45,0,9
0,45,0,0
0,46,56,5
0,46,56,0
0,34,90,0
0,42,90,0
0,35,90,0
0,35,0,24
0,42,0,0
0,42,50,0
0,42,0,24
0,54,96,0
0,42,96,0
0,35,96,0
0,34,0,2
0,46,0,15
0,46,0,0
0,46,56,7
0,46,56,0
0,34,90,0
0,35,0,0
0,42,0,0
0,54,0,0
0,42,60,0
0,34,0,17
0,46,0,5
0,46,0,0
0,46,56,2
0,46,56,0
0,34,90,0
0,42,0,0
0,38,100,0
0,38,0,24
0,42,60,0
0,34,0,10
0,46,0,9
0,46,0,0
0,43,56,5
0,43,56,0
0,31,90,0
0,42,0,0
0,54,87,0
0,42,87,0
0,42,0,24
0,54,0,0
0,42,104,0
0,35,104,0
0,35,0,24
0,42,0,0
0,42,60,0
0,31,0,2
0,43,0,15
0,43,0,0
0,46,56,7
0,46,56,0
0,34,90,0
0,42,0,0
0,42,102,0
0,35,102,0
0,34,0,17
0,46,0,5
0,46,0,0
0,46,56,2
0,46,56,0
0,34,90,0
0,35,0,0
0,42,0,0
0,54,95,0
0,46,95,0
0,35,95,0
0,35,0,24
0,46,0,0
0,54,0,0
0,34,0,10
0,46,0,9
0,46,0,0
0,46,56,5
0,46,56,0
