track,note,velocity,time
1,61,127,3840
1,61,0,1900
1,72,127,0
1,72,0,220
1,72,127,0
1,72,0,220
1,72,127,980
1,72,0,220
1,72,127,260
1,72,0,220
1,74,127,20
1,74,0,220
1,74,127,980
1,74,0,220
1,74,127,260
1,74,0,220
1,75,127,20
1,75,0,220
1,75,127,980
1,75,0,220
1,75,127,260
1,75,0,220
1,77,127,20
1,77,0,220
1,77,127,260
1,77,0,220
1,72,127,1220
1,72,0,220
1,72,127,980
1,72,0,220
1,72,127,260
1,72,0,220
1,74,127,20
1,74,0,220
1,74,127,980
1,74,0,220
1,74,127,260
1,74,0,220
1,75,127,20
1,75,0,220
1,75,127,980
1,75,0,220
1,75,127,260
1,75,0,220
1,77,127,20
1,77,0,220
1,77,127,260
1,77,0,220
1,75,127,260
1,75,0,220
1,77,127,20
1,77,0,220
1,75,127,20
1,75,0,220
1,77,127,20
1,77,0,220
1,72,127,0
1,72,0,220
1,72,127,20
1,72,0,460
1,70,127,20
1,70,0,940
1,70,127,500
1,70,0,220
1,67,127,20
1,67,0,220
1,70,127,20
1,70,0,940
1,72,127,260
1,72,0,220
1,74,127,20
1,74,0,460
1,72,127,20
1,72,0,940
1,75,127,0
1,75,0,100
1,77,127,20
1,77,0,220
1,75,127,20
1,75,0,100
1,77,127,20
1,77,0,220
1,75,127,20
1,75,0,220
1,75,127,20
1,75,0,100
1,77,127,20
1,77,0,220
1,75,127,20
1,75,0,100
1,77,127,20
1,77,0,220
1,70,127,20
1,70,0,220
1,72,127,0
1,72,0,460
1,72,127,20
1,72,0,220
1,70,127,20
1,70,0,460
1,70,127,20
1,70,0,700
1,70,127,20
1,70,0,220
1,70,127,20
1,70,0,460
1,70,127,20
1,70,0,460
1,70,127,20
1,70,0,940
1,72,127,20
1,72,0,460
1,74,127,20
1,74,0,220
1,72,127,20
1,72,0,940
1,75,127,0
1,75,0,100
1,77,127,20
1,77,0,220
1,75,127,20
1,75,0,100
1,77,127,20
1,77,0,220
1,75,127,20
1,75,0,220
1,46,127,0
1,46,0,100
1,45,127,20
1,45,0,100
1,43,127,20
1,43,0,460
1,79,127,20
1,79,0,460
1,74,127,0
1,74,0,220
1,75,127,0
1,75,0,100
1,77,127,20
1,77,0,100
1,79,127,20
1,79,0,460
1,43,127,20
1,43,0,460
1,74,127,0
1,74,0,220
1,74,127,20
1,74,0,220
1,74,127,260
1,74,0,100
1,74,127,20
1,74,0,100
1,74,127,20
1,74,0,220
1,67,127,0
1,67,0,460
1,67,127,20
1,67,0,700
1,67,127,20
1,67,0,460
1,72,127,20
1,72,0,220
1,74,127,20
1,74,0,1900
1,74,127,260
1,74,0,460
1,72,127,20
1,72,0,220
1,74,127,20
1,74,0,700
1,72,127,20
1,72,0,220
1,74,127,20
1,74,0,460
1,75,127,20
1,75,0,460
1,74,127,20
1,74,0,220
1,72,127,20
1,72,0,700
1,67,127,20
1,67,0,940
1,67,127,260
1,67,0,460
1,72,127,20
1,72,0,220
1,74,127,20
1,74,0,1900
1,75,127,260
1,75,0,220
1,72,127,20
1,72,0,220
1,75,127,20
1,75,0,940
1,72,127,20
1,72,0,220
1,77,127,20
1,77,0,460
1,79,127,20
1,79,0,460
1,77,127,20
1,77,0,220
1,75,127,20
1,75,0,220
1,77,127,20
1,77,0,220
1,77,127,20
1,77,0,220
1,75,127,20
1,75,0,1900
1,75,127,20
1,75,0,1420
1,75,127,260
1,75,0,220
1,78,127,20
1,78,0,220
1,75,127,20
1,75,0,460
1,78,127,20
1,78,0,940
1,75,127,20
1,75,0,220
1,78,127,20
1,78,0,460
1,80,127,20
1,80,0,460
1,78,127,20
1,78,0,220
1,77,127,20
1,77,0,220
1,75,127,20
1,75,0,220
1,77,127,20
1,77,0,220
1,75,127,20
1,75,0,1900
1,75,127,20
1,75,0,1420
1,75,127,260
1,75,0,220
1,78,127,20
1,78,0,220
1,75,127,20
1,75,0,460
1,78,127,20
1,78,0,940
1,75,127,740
1,75,0,460
1,78,127,20
1,78,0,460
1,80,127,20
1,80,0,460
1,80,127,20
1,80,0,940
1,80,127,20
1,80,0,220
1,78,127,20
1,78,0,220
1,75,127,20
1,75,0,220
1,78,127,20
1,78,0,460
1,80,127,20
1,80,0,940
1,75,127,500
1,75,0,220
1,78,127,20
1,78,0,220
1,80,127,20
1,80,0,460
1,80,127,20
1,80,0,940
1,75,127,20
1,75,0,220
1,78,127,20
1,78,0,220
1,80,127,20
1,80,0,460
1,82,127,20
1,82,0,100
1,80,127,20
1,80,0,100
1,78,127,20
1,78,0,940
1,80,127,20
1,80,0,940
1,80,127,20
1,80,0,220
1,78,127,20
1,78,0,220
1,75,127,20
1,75,0,220
1,78,127,20
1,78,0,460
1,80,127,20
1,80,0,940
1,75,127,500
1,75,0,220
1,78,127,20
1,78,0,220
1,80,127,20
1,80,0,460
1,80,127,20
1,80,0,940
1,75,127,20
1,75,0,220
1,78,127,20
1,78,0,220
1,80,127,20
1,80,0,460
1,82,127,20
1,82,0,940
1,82,127,20
1,82,0,220
1,46,127,20
1,46,0,220
1,80,127,260
1,80,0,460
1,80,127,20
1,80,0,220
1,78,127,20
1,78,0,220
1,75,127,20
1,75,0,220
1,78,127,20
1,78,0,460
1,80,127,20
1,80,0,940
1,75,127,500
1,75,0,220
1,78,127,20
1,78,0,220
1,80,127,20
1,80,0,460
1,80,127,20
1,80,0,940
1,75,127,20
1,75,0,220
1,78,127,20
1,78,0,220
1,80,127,20
1,80,0,460
1,82,127,20
1,82,0,100
1,80,127,20
1,80,0,100
1,78,127,20
1,78,0,940
1,80,127,20
1,80,0,940
1,80,127,20
1,80,0,220
1,78,127,20
1,78,0,220
1,75,127,20
1,75,0,220
1,78,127,20
1,78,0,460
1,80,127,20
1,80,0,1420
1,80,127,260
1,80,0,1900
1,78,127,20
1,78,0,1420
1,80,127,260
1,80,0,220
1,80,127,20
1,80,0,460
1,75,127,20
1,75,0,460
1,71,127,20
1,71,0,460
1,68,127,20
1,68,0,460
1,63,127,20
1,63,0,460
1,59,127,20
1,59,0,460
1,56,127,20
1,56,0,460
1,56,127,260
1,56,0,220
1,55,127,20
1,55,0,460
1,59,127,20
1,59,0,460
1,62,127,20
1,62,0,460
1,67,127,20
1,67,0,460
1,71,127,20
1,71,0,460
1,74,127,20
1,74,0,460
1,79,127,20
1,79,0,460
1,63,127,260
1,63,0,220
1,72,127,20
1,72,0,220
1,72,127,740
1,72,0,220
1,72,127,20
1,72,0,460
1,70,127,20
1,70,0,940
1,70,127,500
1,70,0,220
1,67,127,20
1,67,0,220
1,70,127,20
1,70,0,940
1,72,127,260
1,72,0,220
1,74,127,20
1,74,0,460
1,72,127,20
1,72,0,940
1,75,127,0
1,75,0,100
1,77,127,20
1,77,0,220
1,75,127,20
1,75,0,100
1,77,127,20
1,77,0,220
1,75,127,20
1,75,0,220
1,75,127,20
1,75,0,100
1,77,127,20
1,77,0,220
1,75,127,20
1,75,0,100
1,77,127,20
1,77,0,220
1,70,127,20
1,70,0,220
1,72,127,0
1,72,0,460
1,72,127,20
1,72,0,220
1,70,127,20
1,70,0,460
1,70,127,20
1,70,0,700
1,70,127,20
1,70,0,220
1,70,127,20
1,70,0,460
1,70,127,20
1,70,0,460
1,70,127,20
1,70,0,940
1,72,127,20
1,72,0,460
1,74,127,20
1,74,0,220
1,72,127,20
1,72,0,940
1,75,127,0
1,75,0,100
1,77,127,20
1,77,0,220
1,75,127,20
1,75,0,100
1,77,127,20
1,77,0,220
1,75,127,20
1,75,0,220
1,46,127,0
1,46,0,100
1,45,127,20
1,45,0,100
1,43,127,20
1,43,0,460
1,79,127,20
1,79,0,460
1,74,127,980
1,74,0,220
1,75,127,1460
1,75,0,100
1,77,127,20
1,77,0,100
1,79,127,20
1,79,0,460
1,43,127,20
1,43,0,460
1,74,127,980
1,74,0,220
1,74,127,20
1,74,0,220
1,74,127,260
1,74,0,100
1,74,127,20
1,74,0,100
1,74,127,20
1,74,0,220
1,67,127,260
1,67,0,460
1,67,127,20
1,67,0,700
1,67,127,20
1,67,0,460
1,72,127,20
1,72,0,220
1,74,127,20
1,74,0,1900
1,74,127,260
1,74,0,460
1,72,127,20
1,72,0,220
1,74,127,20
1,74,0,700
1,72,127,20
1,72,0,220
1,74,127,20
1,74,0,460
1,75,127,20
1,75,0,460
1,74,127,20
1,74,0,220
1,72,127,20
1,72,0,700
1,67,127,20
1,67,0,940
1,67,127,260
1,67,0,460
1,72,127,20
1,72,0,220
1,74,127,20
1,74,0,1900
1,75,127,260
1,75,0,220
1,72,127,20
1,72,0,220
1,75,127,20
1,75,0,940
1,72,127,20
1,72,0,220
1,77,127,20
1,77,0,460
1,79,127,20
1,79,0,460
1,77,127,20
1,77,0,220
1,75,127,20
1,75,0,220
1,77,127,20
1,77,0,220
1,77,127,20
1,77,0,220
1,75,127,20
1,75,0,1900
1,75,127,20
1,75,0,1420
1,75,127,260
1,75,0,220
1,78,127,20
1,78,0,220
1,75,127,20
1,75,0,460
1,78,127,20
1,78,0,940
1,75,127,20
1,75,0,220
1,78,127,20
1,78,0,460
1,80,127,20
1,80,0,460
1,78,127,20
1,78,0,220
1,77,127,20
1,77,0,220
1,75,127,20
1,75,0,220
1,77,127,20
1,77,0,220
1,75,127,20
1,75,0,1900
1,75,127,20
1,75,0,1420
1,75,127,260
1,75,0,220
1,78,127,20
1,78,0,220
1,75,127,20
1,75,0,460
1,78,127,20
1,78,0,940
1,75,127,740
1,75,0,460
1,78,127,20
1,78,0,460
1,80,127,20
1,80,0,460
1,80,127,20
1,80,0,940
1,80,127,20
1,80,0,220
1,78,127,20
1,78,0,220
1,75,127,20
1,75,0,220
1,78,127,20
1,78,0,460
1,80,127,20
1,80,0,940
1,75,127,500
1,75,0,220
1,78,127,20
1,78,0,220
1,80,127,20
1,80,0,460
1,80,127,20
1,80,0,940
1,75,127,20
1,75,0,220
1,78,127,20
1,78,0,220
1,80,127,20
1,80,0,460
1,82,127,20
1,82,0,100
1,80,127,20
1,80,0,100
1,78,127,20
1,78,0,940
1,80,127,20
1,80,0,940
1,80,127,20
1,80,0,220
1,78,127,20
1,78,0,220
1,75,127,20
1,75,0,220
1,78,127,20
1,78,0,460
1,80,127,20
1,80,0,940
1,75,127,500
1,75,0,220
1,78,127,20
1,78,0,220
1,80,127,20
1,80,0,460
1,80,127,20
1,80,0,940
1,75,127,20
1,75,0,220
1,78,127,20
1,78,0,220
1,80,127,20
1,80,0,460
1,82,127,20
1,82,0,940
1,82,127,20
1,82,0,220
1,46,127,20
1,46,0,220
1,80,127,260
1,80,0,460
1,80,127,20
1,80,0,220
1,78,127,20
1,78,0,220
1,75,127,20
1,75,0,220
1,78,127,20
1,78,0,460
1,80,127,20
1,80,0,940
1,75,127,500
1,75,0,220
1,78,127,20
1,78,0,220
1,80,127,20
1,80,0,460
1,80,127,20
1,80,0,940
1,75,127,20
1,75,0,220
1,78,127,20
1,78,0,220
1,80,127,20
1,80,0,460
1,82,127,20
1,82,0,100
1,80,127,20
1,80,0,100
1,78,127,20
1,78,0,940
1,80,127,20
1,80,0,940
1,80,127,20
1,80,0,220
1,78,127,20
1,78,0,220
1,75,127,20
1,75,0,220
1,78,127,20
1,78,0,460
1,80,127,20
1,80,0,940
1,78,127,500
1,78,0,220
1,80,127,20
1,80,0,460
1,80,127,20
1,80,0,220
1,80,127,20
1,80,0,940
1,82,127,740
1,82,0,220
1,82,127,20
1,82,0,220
1,82,127,20
1,82,0,700
1,80,127,20
1,80,0,100
1,78,127,20
1,78,0,100
1,80,127,20
1,80,0,1900
1,80,127,260
1,80,0,220
1,78,127,20
1,78,0,220
1,75,127,20
1,75,0,220
1,78,127,20
1,78,0,460
1,80,127,20
1,80,0,460
1,80,127,20
1,80,0,1900
1,80,127,260
1,80,0,220
1,78,127,20
1,78,0,220
1,75,127,20
1,75,0,220
1,80,127,260
1,80,0,220
1,78,127,20
1,78,0,220
1,75,127,20
1,75,0,100
1,51,127,20
1,51,0,100
1,80,127,20
1,80,0,1900
1,80,127,260
1,80,0,220
1,78,127,20
1,78,0,220
1,75,127,20
1,75,0,220
1,78,127,20
1,78,0,460
1,80,127,20
1,80,0,460
1,80,127,20
1,80,0,1900
1,80,127,260
1,80,0,220
1,78,127,20
1,78,0,220
1,75,127,20
1,75,0,220
1,78,127,20
1,78,0,100
1,80,127,20
1,80,0,100
1,78,127,20
1,78,0,220
1,75,127,20
1,75,0,1420
2,48,100,7680
2,48,0,148
2,48,100,92
2,48,0,424
2,51,100,56
2,51,0,154
2,51,100,86
2,51,0,474
2,48,100,6
2,51,100,240
2,48,0,10
2,51,0,226
2,47,100,4
2,47,0,148
2,47,100,92
2,47,0,474
2,43,100,6
2,43,0,124
2,43,100,116
2,47,100,480
2,43,0,12
2,43,100,228
2,47,0,4
2,43,0,232
2,46,100,4
2,46,0,154
2,46,100,86
2,43,100,480
2,46,0,32
2,43,0,96
2,43,100,112
2,46,100,480
2,43,0,10
2,43,100,230
2,46,0,10
2,43,0,178
2,41,100,52
2,41,0,190
2,41,100,50
2,41,0,368
2,41,100,112
2,44,100,240
2,41,0,8
2,44,0,470
2,46,100,2
2,46,0,366
2,48,100,114
2,48,0,148
2,48,100,92
2,48,0,424
2,51,100,56
2,51,0,154
2,51,100,86
2,51,0,474
2,48,100,6
2,51,100,240
2,48,0,10
2,51,0,226
2,47,100,4
2,47,0,148
2,47,100,92
2,47,0,474
2,43,100,6
2,43,0,124
2,43,100,116
2,47,100,480
2,43,0,12
2,43,100,228
2,47,0,4
2,43,0,232
2,46,100,4
2,46,0,154
2,46,100,86
2,43,100,480
2,46,0,32
2,43,0,96
2,43,100,112
2,46,100,480
2,43,0,10
2,43,100,230
2,46,0,10
2,43,0,178
2,41,100,52
2,41,0,200
2,41,100,40
2,41,0,200
2,41,100,280
2,41,0,200
2,44,100,40
2,44,0,200
2,46,100,280
2,46,0,200
2,48,100,280
2,48,0,172
2,48,100,68
2,48,0,172
2,48,100,308
2,48,0,134
2,48,100,106
2,48,0,188
2,48,100,292
2,48,0,134
2,48,100,106
2,48,0,148
2,48,100,92
2,48,0,160
2,48,100,80
2,48,0,196
2,48,100,284
2,48,0,136
2,48,100,104
2,48,0,198
2,48,100,282
2,48,0,148
2,48,100,92
2,48,0,142
2,48,100,98
2,48,0,156
2,48,100,84
2,48,0,200
2,48,100,280
2,48,0,146
2,48,100,94
2,48,0,184
2,48,100,296
2,48,0,142
2,48,100,98
2,48,0,150
2,48,100,90
2,48,0,142
2,48,100,98
2,48,0,192
2,48,100,288
2,48,0,142
2,48,100,98
2,48,0,166
2,48,100,314
2,48,0,148
2,48,100,92
2,48,0,150
2,48,100,90
2,48,0,152
2,48,100,88
2,48,0,178
2,48,100,302
2,48,0,148
2,48,100,92
2,48,0,194
2,48,100,286
2,48,0,158
2,48,100,82
2,48,0,160
2,48,100,80
2,48,0,152
2,48,100,88
2,48,0,180
2,48,100,300
2,48,0,142
2,48,100,98
2,48,0,170
2,48,100,310
2,48,0,142
2,48,100,98
2,48,0,148
2,48,100,92
2,48,0,148
2,48,100,92
2,48,0,200
2,48,100,280
2,48,0,136
2,48,100,104
2,48,0,208
2,48,100,272
2,48,0,138
2,48,100,102
2,48,0,152
2,48,100,88
2,48,0,152
2,48,100,88
2,48,0,178
2,48,100,302
2,48,0,148
2,48,100,92
2,48,0,194
2,48,100,286
2,48,0,158
2,48,100,82
2,48,0,160
2,48,100,80
2,48,0,148
2,48,100,92
2,48,0,424
2,51,100,56
2,51,0,154
2,51,100,86
2,51,0,474
2,48,100,6
2,51,100,240
2,48,0,10
2,51,0,226
2,47,100,4
2,47,0,148
2,47,100,92
2,47,0,474
2,43,100,6
2,43,0,124
2,43,100,116
2,47,100,480
2,43,0,12
2,43,100,228
2,47,0,4
2,43,0,232
2,48,100,4
2,48,0,148
2,48,100,92
2,48,0,424
2,51,100,56
2,51,0,154
2,51,100,86
2,51,0,474
2,48,100,6
2,51,100,240
