track,note,velocity,time
1,45,90,1920
2,36,100,3840
2,36,100,46
2,39,100,28
2,39,100,43
2,36,100,3
2,39,100,120
2,35,100,2
2,35,100,46
2,31,100,3
2,31,100,58
2,35,100,240
2,31,100,114
2,34,100,2
2,34,100,43
2,31,100,240
2,31,100,56
2,34,100,240
2,31,100,115
2,29,100,26
2,29,100,25
2,29,100,56
2,32,100,120
2,34,100,1
2,36,100,57
2,36,100,46
2,39,100,28
2,39,100,43
2,36,100,3
2,39,100,120
2,35,100,2
2,35,100,46
2,31,100,3
2,31,100,58
2,35,100,240
2,31,100,114
2,34,100,2
2,34,100,43
2,31,100,240
2,31,100,56
2,34,100,240
2,31,100,115
2,29,100,26
2,29,100,20
2,29,100,140
2,32,100,20
2,34,100,140
2,36,100,140
2,36,100,34
2,36,100,154
2,36,100,53
2,36,100,146
2,36,100,53
2,36,100,46
2,36,100,40
2,36,100,142
2,36,100,52
2,36,100,141
2,36,100,46
2,36,100,49
2,36,100,42
2,36,100,140
2,36,100,47
2,36,100,148
2,36,100,49
2,36,100,45
2,36,100,49
2,36,100,144
2,36,100,49
2,36,100,157
2,36,100,46
2,36,100,45
2,36,100,44
2,36,100,151
2,36,100,46
2,36,100,143
2,36,100,41
2,36,100,40
2,36,100,44
2,36,100,150
2,36,100,49
2,36,100,155
2,36,100,49
2,36,100,46
2,36,100,46
2,36,100,140
2,36,100,52
2,36,100,136
2,36,100,51
2,36,100,44
2,36,100,44
2,36,100,151
2,36,100,46
2,36,100,143
2,36,100,41
2,36,100,40
2,36,100,46
2,39,100,28
2,39,100,43
2,36,100,3
2,39,100,120
2,35,100,2
2,35,100,46
2,31,100,3
2,31,100,58
2,35,100,240
2,31,100,114
2,36,100,2
2,36,100,46
2,39,100,28
2,39,100,43
2,36,100,3
2,39,100,120
2,35,100,2
2,35,100,46
2,31,100,3
2,31,100,58
2,35,100,240
2,31,100,114
2,36,100,2
2,36,100,46
2,39,100,28
2,39,100,43
2,36,100,3
2,39,100,120
2,35,100,2
2,35,100,46
2,31,100,3
2,31,100,58
2,35,100,240
2,31,100,114
2,34,100,2
2,34,100,43
2,31,100,240
2,31,100,56
2,34,100,240
2,31,100,115
2,29,100,26
2,29,100,25
2,29,100,56
2,32,100,120
2,34,100,1
2,36,100,57
2,36,100,46
2,39,100,28
2,39,100,43
2,36,100,3
2,39,100,120
2,35,100,2
2,35,100,46
2,31,100,3
2,31,100,58
2,35,100,240
2,31,100,114
2,34,100,2
2,34,100,43
2,31,100,240
2,31,100,56
2,34,100,240
2,31,100,115
2,29,100,26
2,29,100,20
2,29,100,140
2,32,100,20
2,34,100,140
2,32,100,140
2,32,100,130
2,36,100,3
2,34,100,31
2,32,100,2
2,39,100,120
2,39,100,144
2,42,100,120
2,41,100,12
2,39,100,4
2,35,100,1
2,35,100,126
2,30,100,225
2,35,100,1
2,37,100,60
2,37,100,154
2,30,100,230
2,31,100,9
2,32,100,2
2,32,100,130
2,36,100,3
2,34,100,31
2,32,100,2
2,39,100,120
2,39,100,144
2,42,100,120
2,41,100,12
2,39,100,4
2,35,100,1
2,35,100,126
2,30,100,225
2,35,100,1
2,37,100,60
2,37,100,154
2,30,100,230
2,31,100,9
2,40,100,2
2,28,100,135
2,30,100,4
2,42,100,120
2,31,100,118
2,43,100,107
2,32,100,108
2,32,100,122
2,35,100,120
2,47,100,112
2,36,100,100
2,48,100,95
2,37,100,4
2,37,100,101
2,37,100,60
2,37,100,106
2,39,100,23
2,39,100,124
2,39,100,75
2,30,100,40
2,40,100,14
2,28,100,135
2,30,100,4
2,42,100,120
2,31,100,118
2,43,100,107
2,32,100,108
2,32,100,122
2,35,100,120
2,47,100,112
2,36,100,100
2,48,100,95
2,37,100,4
2,37,100,101
2,37,100,60
2,37,100,106
2,39,100,23
2,39,100,124
2,39,100,75
2,30,100,40
2,40,100,264
2,42,100,0
2,43,100,235
2,43,100,0
2,32,100,0
2,32,100,122
2,35,100,120
2,47,100,112
2,36,100,100
2,48,100,95
2,37,100,4
2,37,100,101
2,37,100,60
2,37,100,106
2,39,100,23
2,39,100,124
2,39,100,75
2,30,100,40
2,40,100,14
2,28,100,135
2,30,100,4
2,42,100,120
2,31,100,118
2,43,100,107
2,32,100,108
2,32,100,122
2,35,100,120
2,47,100,112
2,36,100,100
2,48,100,95
2,37,100,4
2,37,100,101
2,37,100,60
2,37,100,106
2,27,100,23
2,27,100,124
2,27,100,75
2,32,110,160
2,37,82,600
2,35,82,120
2,31,88,104
2,36,100,943
2,36,100,34
2,36,100,154
2,36,100,53
2,36,100,146
2,36,100,53
2,36,100,46
2,36,100,40
2,36,100,142
2,36,100,52
2,36,100,141
2,36,100,46
2,36,100,49
2,36,100,42
2,36,100,140
2,36,100,47
2,36,100,148
2,36,100,49
2,36,100,45
2,36,100,49
2,36,100,144
2,36,100,49
2,36,100,157
2,36,100,46
2,36,100,45
2,36,100,44
2,36,100,151
2,36,100,46
2,36,100,143
2,36,100,41
2,36,100,40
2,36,100,44
2,36,100,150
2,36,100,49
2,36,100,155
2,36,100,49
2,36,100,46
2,36,100,46
2,36,100,140
2,36,100,52
2,36,100,136
2,36,100,51
2,36,100,44
2,36,100,44
2,36,100,151
2,36,100,46
2,36,100,143
2,36,100,41
2,36,100,40
2,36,100,46
2,39,100,28
2,39,100,43
2,36,100,3
2,39,100,120
2,35,100,2
2,35,100,46
2,31,100,3
2,31,100,58
2,35,100,240
2,31,100,114
2,36,100,2
2,36,100,46
2,39,100,28
2,39,100,43
2,36,100,3
2,39,100,120
2,35,100,2
2,35,100,46
2,31,100,3
2,31,100,58
2,35,100,240
2,31,100,114
2,36,100,2
2,36,100,46
2,39,100,28
2,39,100,43
2,36,100,3
2,39,100,120
2,35,100,2
2,35,100,46
2,31,100,3
2,31,100,58
2,35,100,240
2,31,100,114
2,34,100,2
2,34,100,43
2,31,100,240
2,31,100,56
2,34,100,240
2,31,100,115
2,29,100,26
2,29,100,25
2,29,100,56
2,32,100,120
2,34,100,1
2,36,100,57
2,36,100,46
2,39,100,28
2,39,100,43
2,36,100,3
2,39,100,120
2,35,100,2
2,35,100,46
2,31,100,3
2,31,100,58
2,35,100,240
2,31,100,114
2,34,100,2
2,34,100,43
2,31,100,240
2,31,100,56
2,34,100,240
2,31,100,115
2,29,100,26
2,29,100,20
2,29,100,140
2,32,100,20
2,34,100,140
2,32,100,140
2,32,100,130
2,36,100,3
2,34,100,31
2,32,100,2
2,39,100,120
2,39,100,144
2,42,100,120
2,41,100,12
2,39,100,4
2,35,100,1
2,35,100,126
2,30,100,225
2,35,100,1
2,37,100,60
2,37,100,154
2,30,100,230
2,31,100,9
2,32,100,2
2,32,100,130
2,36,100,3
2,34,100,31
2,32,100,2
2,39,100,120
2,39,100,144
2,42,100,120
2,41,100,12
2,39,100,4
2,35,100,1
2,35,100,126
2,30,100,225
2,35,100,1
2,37,100,60
2,37,100,154
2,30,100,230
2,31,100,9
2,40,100,2
2,28,100,135
2,30,100,4
2,42,100,120
2,31,100,118
2,43,100,107
2,32,100,108
2,32,100,122
2,35,100,120
2,47,100,112
2,36,100,100
2,48,100,95
2,37,100,4
2,37,100,101
2,37,100,60
2,37,100,106
2,39,100,23
2,39,100,124
2,39,100,75
2,30,100,40
2,40,100,14
2,28,100,135
2,30,100,4
2,42,100,120
2,31,100,118
2,43,100,107
2,32,100,108
2,32,100,122
2,35,100,120
2,47,100,112
2,36,100,100
2,48,100,95
2,37,100,4
2,37,100,101
2,37,100,60
2,37,100,106
2,39,100,23
2,39,100,124
2,39,100,75
2,30,100,40
2,40,100,264
2,42,100,0
2,43,100,235
2,43,100,0
2,32,100,0
2,32,100,122
2,35,100,120
2,47,100,112
2,36,100,100
2,48,100,95
2,37,100,4
2,37,100,101
2,37,100,60
2,37,100,106
2,39,100,23
2,39,100,124
2,39,100,75
2,30,100,40
2,40,100,14
2,28,100,135
2,30,100,4
2,42,100,120
2,31,100,118
2,43,100,107
2,32,100,108
2,32,100,122
2,35,100,120
2,47,100,112
2,36,100,100
2,48,100,95
2,37,100,4
2,37,100,101
2,37,100,60
2,37,100,106
2,39,100,23
2,39,100,124
2,39,100,75
2,30,100,40
2,40,100,14
2,28,100,135
2,30,100,4
2,42,100,120
2,31,100,118
2,43,100,107
2,32,100,108
2,32,100,122
2,35,100,120
2,47,100,112
2,36,100,100
2,48,100,95
2,40,100,4
2,28,100,135
2,30,100,4
2,42,100,120
2,31,100,118
2,43,100,107
2,32,100,108
2,32,100,122
2,35,100,120
2,47,100,112
2,36,100,100
2,48,100,95
2,40,100,4
2,28,100,135
2,30,100,4
2,42,100,120
2,31,100,118
2,43,100,107
2,32,100,108
2,32,100,122
2,35,100,120
2,47,100,112
2,36,100,100
2,48,100,95
2,40,100,4
2,28,100,135
2,30,100,4
2,42,100,120
2,31,100,118
2,43,100,107
2,32,77,2
2,32,94,108
2,32,110,183
2,32,118,180
3,72,100,0
3,67,100,0
3,75,100,0
3,60,100,0
3,72,100,540
3,75,100,0
3,67,100,0
3,60,100,0
3,72,100,180
3,75,100,0
3,67,100,0
3,60,100,0
3,59,100,60
3,74,100,0
3,71,100,0
3,67,100,0
3,71,100,540
3,67,100,0
3,74,100,0
3,59,100,0
3,71,100,180
3,59,100,0
3,74,100,0
3,67,100,0
3,67,100,60
3,75,100,0
3,70,100,0
3,58,100,0
3,70,100,540
3,75,100,0
3,67,100,0
3,58,100,0
3,75,100,180
3,70,100,0
3,67,100,0
3,58,100,0
3,69,100,60
3,77,100,0
3,72,100,0
3,65,100,0
3,65,100,180
3,77,100,0
3,72,100,0
3,69,100,0
3,72,100,660
3,67,100,0
3,75,100,0
3,60,100,0
3,72,100,540
3,75,100,0
3,67,100,0
3,60,100,0
3,72,100,180
3,75,100,0
3,67,100,0
3,60,100,0
3,59,100,60
3,74,100,0
3,71,100,0
3,67,100,0
3,71,100,540
3,67,100,0
3,74,100,0
3,59,100,0
3,71,100,180
3,59,100,0
3,74,100,0
3,67,100,0
3,67,100,60
3,75,100,0
3,70,100,0
3,58,100,0
3,70,100,540
3,75,100,0
3,67,100,0
3,58,100,0
3,75,100,180
3,70,100,0
3,67,100,0
3,58,100,0
3,69,100,60
3,77,100,0
3,72,100,0
3,65,100,0
3,65,100,140
3,77,100,0
3,72,100,0
3,69,100,0
3,67,106,140
3,72,86,0
3,75,110,0
3,72,80,20
3,77,98,0
3,69,98,0
3,75,103,20
3,67,106,0
3,72,86,0
3,72,88,20
3,77,102,0
3,69,102,0
3,67,114,8900
3,71,110,0
3,74,119,0
3,79,98,0
3,86,114,0
3,67,98,1832
3,71,98,0
3,74,106,0
3,79,90,0
3,86,102,0
3,67,102,67
3,71,102,0
3,79,93,0
3,86,106,0
3,74,110,0
3,67,106,171
3,71,106,0
3,74,110,0
3,79,90,0
3,86,110,0
3,67,102,29
3,71,98,0
3,74,110,0
3,79,102,0
3,86,119,0
3,67,110,28
3,71,102,0
3,74,102,0
3,79,86,0
3,86,106,0
3,64,85,15629
3,64,85,0
3,71,85,0
3,80,85,0
3,52,85,0
3,76,85,0
3,64,85,36
3,64,85,0
3,71,85,0
3,76,85,0
3,52,85,0
3,80,85,0
3,57,85,29
3,64,85,0
3,64,85,0
3,71,85,0
3,52,85,0
3,76,85,0
3,45,85,0
3,80,85,0
3,68,85,968
3,80,85,0
3,63,85,1
3,75,85,0
3,51,85,4
3,83,85,0
3,71,85,0
3,63,85,0
3,63,85,112
3,83,85,0
3,68,85,0
3,80,85,0
3,71,85,0
3,75,85,0
3,51,85,9
3,63,85,0
3,68,85,834
3,80,85,0
3,73,85,3
3,85,85,0
3,64,85,1
3,76,85,0
3,49,85,4
3,61,85,0
3,64,85,1300
3,64,85,0
3,71,85,0
3,80,85,0
3,52,85,0
3,76,85,0
3,64,85,36
3,64,85,0
3,71,85,0
3,76,85,0
3,52,85,0
3,80,85,0
3,57,85,29
3,64,85,0
3,64,85,0
3,71,85,0
3,52,85,0
3,76,85,0
3,45,85,0
3,80,85,0
3,68,85,968
3,80,85,0
3,63,85,1
3,75,85,0
3,51,85,4
3,83,85,0
3,71,85,0
3,63,85,0
3,63,85,112
3,83,85,0
3,68,85,0
3,80,85,0
3,71,85,0
3,75,85,0
3,51,85,9
3,63,85,0
3,68,85,834
3,80,85,0
3,73,85,3
3,85,85,0
3,64,85,1
3,76,85,0
3,49,85,4
3,61,85,0
3,68,85,2495
3,80,85,0
3,63,85,1
3,75,85,0
3,51,85,4
3,83,85,0
3,71,85,0
3,63,85,0
3,63,85,112
3,83,85,0
3,68,85,0
3,80,85,0
3,71,85,0
3,75,85,0
3,51,85,9
3,63,85,0
3,68,85,834
3,80,85,0
3,73,85,3
3,85,85,0
3,64,85,1
3,76,85,0
3,49,85,4
3,61,85,0
3,64,85,1300
3,64,85,0
3,71,85,0
3,80,85,0
3,52,85,0
3,76,85,0
3,64,85,36
3,64,85,0
3,71,85,0
3,76,85,0
3,52,85,0
3,80,85,0
3,57,85,29
3,64,85,0
3,64,85,0
3,71,85,0
3,52,85,0
3,76,85,0
3,45,85,0
3,80,85,0
3,68,85,968
3,80,85,0
3,63,85,1
3,75,85,0
3,51,85,4
3,83,85,0
3,71,85,0
3,63,85,0
3,63,85,112
3,83,85,0
3,68,85,0
3,80,85,0
3,71,85,0
3,75,85,0
3,51,85,9
3,63,85,0
3,68,85,834
3,80,85,0
3,73,85,3
3,85,85,0
3,64,85,1
3,76,85,0
3,49,85,4
3,61,85,0
3,67,114,13900
3,71,110,0
3,74,119,0
3,79,98,0
3,86,114,0
3,67,98,1832
3,71,98,0
3,74,106,0
3,79,90,0
3,86,102,0
3,67,102,67
3,71,102,0
3,79,93,0
3,86,106,0
3,74,110,0
3,67,106,171
3,71,106,0
3,74,110,0
3,79,90,0
3,86,110,0
3,67,102,29
3,71,98,0
3,74,110,0
3,79,102,0
3,86,119,0
3,67,110,28
3,71,102,0
3,74,102,0
3,79,86,0
3,86,106,0
3,64,85,15629
3,64,85,0
3,71,85,0
3,80,85,0
3,52,85,0
3,76,85,0
3,64,85,36
3,64,85,0
3,71,85,0
3,76,85,0
3,52,85,0
3,80,85,0
3,57,85,29
3,64,85,0
3,64,85,0
3,71,85,0
3,52,85,0
3,76,85,0
3,45,85,0
3,80,85,0
3,68,85,968
3,80,85,0
3,63,85,1
3,75,85,0
3,51,85,4
3,83,85,0
3,71,85,0
3,63,85,0
3,63,85,112
3,83,85,0
3,68,85,0
3,80,85,0
3,71,85,0
3,75,85,0
3,51,85,9
3,63,85,0
3,68,85,834
3,80,85,0
3,73,85,3
3,85,85,0
3,64,85,1
3,76,85,0
3,49,85,4
3,61,85,0
3,64,85,1300
3,64,85,0
3,71,85,0
3,80,85,0
3,52,85,0
3,76,85,0
3,64,85,36
3,64,85,0
3,71,85,0
3,76,85,0
3,52,85,0
3,80,85,0
3,57,85,29
3,64,85,0
3,64,85,0
3,71,85,0
3,52,85,0
3,76,85,0
3,45,85,0
3,80,85,0
3,68,85,968
3,80,85,0
3,63,85,1
3,75,85,0
3,51,85,4
3,83,85,0
3,71,85,0
3,63,85,0
3,63,85,112
3,83,85,0
3,68,85,0
3,80,85,0
3,71,85,0
3,75,85,0
3,51,85,9
3,63,85,0
3,68,85,834
3,80,85,0
3,73,85,3
3,85,85,0
3,64,85,1
3,76,85,0
3,49,85,4
3,61,85,0
3,68,85,2495
3,80,85,0
3,63,85,1
3,75,85,0
3,51,85,4
3,83,85,0
3,71,85,0
3,63,85,0
3,63,85,112
3,83,85,0
3,68,85,0
3,80,85,0
3,71,85,0
3,75,85,0
3,51,85,9
3,63,85,0
3,68,85,834
3,80,85,0
3,73,85,3
3,85,85,0
3,64,85,1
3,76,85,0
3,49,85,4
3,61,85,0
3,64,85,1300
3,64,85,0
3,71,85,0
3,80,85,0
3,52,85,0
3,76,85,0
3,64,85,36
3,64,85,0
3,71,85,0
3,76,85,0
3,52,85,0
3,80,85,0
