track,note,velocity,time
1,81,30,1920
1,84,30,26
1,74,78,65957
1,79,76,217
1,74,82,2808
1,79,68,2
2,33,100,7680
2,33,100,28
2,33,100,21
2,45,100,277
2,30,100,261
2,30,100,27
2,30,100,28
2,42,100,284
2,33,100,251
2,33,100,29
2,33,100,20
2,45,100,265
2,30,100,265
2,30,100,28
2,30,100,24
2,42,100,277
2,42,100,126
2,33,100,8
2,33,100,45
2,33,100,21
2,30,100,50
2,33,100,3
2,45,100,120
2,30,100,265
2,30,100,27
2,30,100,12
2,28,100,37
2,30,100,27
2,42,100,120
2,28,100,261
2,32,100,0
2,35,100,240
2,40,100,235
2,25,100,116
2,28,100,4
2,32,100,240
2,37,100,234
2,33,100,28
2,33,100,28
2,33,100,21
2,45,100,277
2,30,100,261
2,30,100,27
2,30,100,28
2,42,100,284
2,33,100,251
2,33,100,29
2,33,100,20
2,45,100,265
2,30,100,265
2,30,100,28
2,30,100,24
2,42,100,277
2,42,100,126
2,33,100,8
2,33,100,45
2,33,100,21
2,30,100,50
2,33,100,3
2,45,100,120
2,30,100,265
2,30,100,27
2,30,100,12
2,28,100,37
2,30,100,27
2,42,100,120
2,28,100,261
2,32,100,0
2,35,100,240
2,40,100,235
2,25,100,116
2,28,100,4
2,32,100,240
2,37,100,234
2,33,100,28
2,33,100,28
2,33,100,21
2,45,100,277
2,30,100,261
2,30,100,27
2,30,100,28
2,42,100,284
2,33,100,251
2,33,100,29
2,33,100,20
2,45,100,265
2,30,100,265
2,30,100,28
2,30,100,24
2,42,100,277
2,42,100,126
2,33,100,8
2,33,100,45
2,33,100,21
2,30,100,50
2,33,100,3
2,45,100,120
2,30,100,265
2,30,100,27
2,30,100,12
2,28,100,37
2,30,100,27
2,42,100,120
2,40,93,269
2,40,88,93
2,40,88,96
2,40,86,50
2,40,83,58
2,40,90,70
2,40,74,61
2,38,106,63
2,38,95,99
2,38,110,77
2,37,110,29
2,49,110,3
2,38,110,113
2,50,110,0
2,28,119,0
2,28,114,24
2,27,110,131
2,28,119,0
2,40,110,113
2,29,119,113
2,41,114,92
2,30,118,112
2,42,127,170
2,30,110,118
2,35,110,121
2,47,106,104
2,36,106,104
2,48,106,88
2,25,110,96
2,37,110,187
2,25,110,109
2,25,110,122
2,37,110,119
2,25,98,102
2,33,119,36
2,45,114,180
2,33,119,99
2,45,114,226
2,33,106,106
2,44,110,99
2,28,119,0
2,28,114,24
2,27,110,131
2,28,119,0
2,40,110,113
2,29,119,113
2,41,114,92
2,30,118,112
2,42,127,170
2,30,110,118
2,35,110,121
2,47,106,104
2,36,106,104
2,48,106,88
2,25,110,96
2,37,110,187
2,25,110,109
2,25,110,122
2,37,110,119
2,25,98,102
2,33,119,36
2,45,114,180
2,33,119,99
2,45,114,226
2,33,106,106
2,44,110,99
2,33,110,0
2,33,94,88
2,28,98,120
2,28,78,149
2,33,110,120
2,33,98,68
2,33,94,97
2,33,90,30
2,45,110,120
2,33,103,275
2,33,110,92
2,33,110,108
2,28,93,22
2,28,102,47
2,31,98,20
2,31,98,46
2,33,100,8
2,33,100,28
2,33,100,21
2,45,100,277
2,30,100,261
2,30,100,27
2,30,100,28
2,42,100,284
2,33,100,251
2,33,100,29
2,33,100,20
2,45,100,265
2,30,100,265
2,30,100,28
2,30,100,24
2,42,100,277
2,42,100,126
2,33,100,8
2,33,100,45
2,33,100,21
2,30,100,50
2,33,100,3
2,45,100,120
2,30,100,265
2,30,100,27
2,30,100,12
2,28,100,37
2,30,100,27
2,42,100,120
2,28,100,261
2,32,100,0
2,35,100,240
2,40,100,235
2,25,100,116
2,28,100,4
2,32,100,240
2,37,100,234
2,33,100,28
2,33,100,28
2,33,100,21
2,45,100,277
2,30,100,261
2,30,100,27
2,30,100,28
2,42,100,284
2,33,100,251
2,33,100,29
2,33,100,20
2,45,100,265
2,30,100,265
2,30,100,28
2,30,100,24
2,42,100,277
2,42,100,126
2,33,100,8
2,33,100,45
2,33,100,21
2,30,100,50
2,33,100,3
2,45,100,120
2,30,100,265
2,30,100,27
2,30,100,12
2,28,100,37
2,30,100,27
2,42,100,120
2,40,93,269
2,40,88,93
2,40,88,96
2,40,86,50
2,40,83,58
2,40,90,70
2,40,74,61
2,38,106,63
2,38,95,99
2,38,110,77
2,37,110,29
2,49,110,3
2,38,110,113
2,50,110,0
2,28,119,0
2,28,114,24
2,27,110,131
2,28,119,0
2,40,110,113
2,29,119,113
2,41,114,92
2,30,118,112
2,42,127,170
2,30,110,118
2,35,110,121
2,47,106,104
2,36,106,104
2,48,106,88
2,25,110,96
2,37,110,187
2,25,110,109
2,25,110,122
2,37,110,119
2,25,98,102
2,33,119,36
2,45,114,180
2,33,119,99
2,45,114,226
2,33,106,106
2,44,110,99
2,28,119,0
2,28,114,24
2,27,110,131
2,28,119,0
2,40,110,113
2,29,119,113
2,41,114,92
2,30,118,112
2,42,127,170
2,30,110,118
2,35,110,121
2,47,106,104
2,36,106,104
2,48,106,88
2,25,110,96
2,37,110,187
2,25,110,109
2,25,110,122
2,37,110,119
2,25,98,102
2,33,119,36
2,45,114,180
2,33,119,99
2,45,114,226
2,33,106,106
2,44,110,99
2,33,110,0
2,33,94,88
2,28,98,120
2,28,78,149
2,33,110,120
2,33,98,68
2,33,94,97
2,33,90,30
2,45,110,120
2,33,103,275
2,33,110,92
2,33,110,108
2,28,93,22
2,28,102,47
2,31,98,20
2,31,98,46
2,33,110,8
2,33,94,88
2,28,98,120
2,28,78,149
2,33,110,120
2,33,98,68
2,33,94,97
2,33,90,30
2,45,110,120
2,33,103,275
2,33,110,92
2,33,110,108
2,28,93,22
2,28,102,47
2,31,98,20
2,31,98,46
2,33,110,8
2,33,94,88
2,28,98,120
2,28,78,149
2,33,110,120
2,33,98,68
2,33,94,97
2,33,90,30
2,45,110,120
2,33,103,275
2,33,110,92
2,33,110,108
2,28,93,22
2,28,102,47
2,31,98,20
2,31,98,46
2,33,110,8
2,33,94,88
2,28,85,120
2,33,110,269
2,28,78,0
2,33,98,68
2,33,94,97
2,33,90,30
2,45,110,120
2,33,103,275
2,33,110,92
2,33,110,108
2,28,93,22
2,28,102,47
2,31,98,20
2,31,98,46
2,28,119,8
2,28,114,24
2,27,110,131
2,28,119,0
2,40,110,113
2,29,119,113
2,41,114,92
2,30,118,2
2,42,127,185
2,30,110,118
2,35,110,121
2,47,106,104
2,36,106,104
2,48,106,88
2,25,110,96
2,37,110,187
2,25,110,109
2,25,110,122
2,37,110,119
2,25,98,102
2,33,119,36
2,45,114,180
2,33,119,99
2,45,114,226
2,33,106,106
2,44,110,99
2,28,119,0
2,28,114,24
2,27,110,131
2,28,119,0
2,40,110,113
2,29,119,113
2,41,114,92
2,30,118,112
2,42,127,170
2,30,110,118
2,35,110,121
2,47,106,104
2,36,106,104
2,48,106,88
2,25,110,96
2,37,110,187
2,25,110,109
2,25,110,122
2,37,110,119
2,25,98,102
2,33,119,36
2,45,114,180
2,33,119,99
2,45,114,226
2,33,106,106
2,44,110,99
2,28,119,0
2,28,114,24
2,27,110,131
2,28,119,0
2,40,110,113
2,29,119,113
2,41,114,92
2,30,118,2
2,42,127,185
2,30,110,118
2,35,110,121
2,47,106,104
2,36,106,104
2,48,106,88
2,25,110,96
2,37,110,187
2,25,110,109
2,25,110,122
2,37,110,119
2,25,98,102
2,33,119,36
2,45,114,180
2,33,119,99
2,45,114,226
2,33,106,106
2,44,110,99
2,28,119,0
2,28,114,24
2,27,110,131
2,28,119,0
2,40,110,113
2,29,119,113
2,41,114,92
2,30,118,112
2,42,127,170
2,30,110,118
2,35,110,121
2,47,106,104
2,36,106,104
2,48,106,88
2,25,110,96
2,37,110,187
2,25,110,109
2,25,110,122
2,37,110,119
2,25,98,102
2,33,119,36
2,45,114,180
2,33,119,99
2,45,114,226
2,33,106,106
2,44,110,99
2,28,119,0
2,28,114,24
2,27,110,131
2,28,119,0
2,40,110,113
2,29,119,113
2,41,114,92
2,30,118,2
2,42,127,185
2,30,110,118
2,35,110,121
2,47,106,104
2,36,106,104
2,48,106,88
2,25,110,96
2,37,110,187
2,25,110,109
2,25,110,122
2,37,110,119
2,25,98,102
2,33,119,36
2,45,114,180
2,33,119,99
2,45,114,226
2,33,106,106
2,44,110,99
2,28,119,0
2,28,114,24
2,27,110,131
2,28,119,0
2,40,110,113
2,29,119,113
2,41,114,92
2,30,118,112
2,42,127,170
2,30,110,118
2,35,110,121
2,47,106,104
2,36,106,104
2,48,106,88
2,25,110,96
2,37,110,187
2,25,110,109
2,25,110,122
2,37,110,119
2,25,98,102
2,33,119,36
2,45,114,180
2,33,119,99
2,45,114,226
2,33,106,106
2,44,110,99
2,28,119,0
2,28,114,24
2,27,110,131
2,28,119,0
2,40,110,113
2,29,119,113
2,41,114,92
2,30,118,2
2,42,127,185
2,30,110,118
2,35,110,121
2,47,106,104
2,36,106,104
2,48,106,88
2,25,110,96
2,37,110,187
2,25,110,109
2,25,110,122
2,37,110,119
2,25,98,102
2,33,119,36
2,45,114,180
2,33,119,99
2,45,114,226
2,33,106,106
2,44,110,99
2,28,119,0
2,28,114,24
2,27,110,131
2,28,119,0
2,40,110,113
2,29,119,113
2,41,114,92
2,30,118,112
2,42,127,170
2,30,110,118
2,35,110,121
2,47,106,104
2,36,106,104
2,48,106,88
2,25,110,96
2,37,110,187
2,25,110,109
2,25,110,122
2,37,110,119
2,25,98,102
2,33,119,36
2,45,114,180
2,33,119,99
2,45,114,226
2,33,106,106
2,44,110,99
2,28,119,0
2,28,114,24
2,27,110,131
2,28,119,0
2,40,110,113
2,29,119,113
2,41,114,92
2,30,118,2
2,42,127,185
2,30,110,118
2,35,110,121
2,47,106,104
2,36,106,104
2,48,106,88
2,25,110,96
2,37,110,187
2,25,110,109
2,25,110,122
2,37,110,119
2,25,98,102
2,33,119,36
2,45,114,180
2,33,119,99
2,45,114,226
2,33,106,106
2,44,110,99
2,28,119,0
2,28,114,24
2,27,110,131
2,28,119,0
2,40,110,113
2,29,119,113
2,41,114,92
2,30,118,112
2,42,127,170
2,30,110,118
2,35,110,121
2,47,106,104
2,36,106,104
2,48,106,88
2,25,110,96
2,37,110,187
2,25,110,109
2,25,110,122
2,37,110,119
2,25,98,102
2,33,119,36
2,45,114,180
2,33,119,99
2,45,114,226
2,33,106,106
2,44,110,99
2,28,119,0
2,28,114,24
2,27,110,131
2,28,119,0
2,40,110,113
2,29,119,113
2,41,114,92
2,30,118,2
2,42,127,185
2,30,110,118
2,35,110,121
2,47,106,104
2,36,106,104
2,48,106,88
2,25,110,96
2,37,110,187
2,25,110,109
2,25,110,122
2,37,110,119
2,25,98,102
2,33,119,36
2,45,114,180
2,33,119,99
2,45,114,226
2,33,106,106
2,44,110,99
2,28,119,0
2,28,114,24
2,27,110,131
2,28,119,0
2,40,110,113
2,29,119,113
2,41,114,92
2,30,118,112
2,42,127,170
2,30,110,118
2,35,110,121
2,47,106,104
2,36,106,104
2,48,106,88
2,25,110,96
2,37,110,187
2,25,110,109
2,25,110,122
2,37,110,119
2,25,98,102
2,33,119,36
2,45,114,180
2,33,119,99
2,45,114,226
2,33,106,106
2,44,110,99
3,76,110,7679
3,69,106,1
3,76,114,165
3,69,110,3
3,74,114,68
3,69,110,1
3,66,118,537
3,71,110,0
3,71,110,184
3,66,118,0
3,69,119,74
3,66,118,4
3,76,114,555
3,69,110,5
3,69,110,167
3,76,110,4
3,74,110,72
3,69,114,4
3,71,110,565
3,66,110,0
3,71,110,189
3,66,110,3
3,69,110,78
3,66,118,0
3,76,110,571
3,69,98,0
3,69,110,177
3,76,110,4
3,74,114,73
3,69,102,4
3,66,110,548
3,71,110,0
3,71,110,182
3,66,103,3
3,69,110,75
3,66,110,3
3,68,110,814
3,64,95,4
3,68,110,78
3,64,98,7
3,68,110,198
3,64,106,14
3,78,127,552
3,73,118,0
3,76,119,287
3,73,118,4
3,78,118,111
3,73,118,4
3,76,114,114
3,69,114,1
3,76,119,132
3,69,114,5
3,74,114,167
3,69,110,4
3,73,118,82
3,69,110,7
3,66,110,313
3,71,119,3
3,71,110,183
3,66,110,0
3,66,110,81
3,69,114,3
3,76,114,560
3,69,106,2
3,76,114,168
3,69,110,0
3,74,119,82
3,69,106,5
3,71,110,557
3,66,110,0
3,71,110,171
3,66,110,0
3,66,110,79
3,69,114,4
3,76,114,562
3,69,102,4
3,76,110,168
3,69,106,5
3,74,106,67
3,69,102,4
3,66,110,545
3,71,110,2
3,66,103,180
3,71,114,6
3,66,118,85
3,69,114,3
3,64,102,780
3,68,103,0
3,68,103,74
3,64,102,0
3,64,110,183
3,68,110,0
3,73,110,534
3,78,127,0
3,73,118,280
3,76,119,0
3,73,118,98
3,78,118,0
3,76,110,110
3,69,106,0
3,76,114,165
3,69,110,3
3,74,114,68
3,69,110,1
3,66,118,537
3,71,110,0
3,71,110,184
3,66,118,0
3,69,119,74
3,66,118,4
3,76,114,555
3,69,110,5
3,69,110,167
3,76,110,4
3,74,110,72
3,69,114,4
3,71,110,565
3,66,110,0
3,71,110,189
3,66,110,3
3,69,110,78
3,66,118,0
3,76,110,571
3,69,98,0
3,69,110,177
3,76,110,4
3,74,114,73
3,69,102,4
3,66,110,548
3,71,110,0
3,71,110,182
3,66,103,3
3,69,110,75
3,66,110,3
3,76,114,575
3,71,106,197
3,71,106,78
3,69,114,82
3,74,110,210
3,74,114,81
3,62,106,84
3,62,102,77
3,61,103,315
3,61,90,83
3,62,98,92
3,62,102,82
3,76,110,11601
3,69,106,0
3,76,114,165
3,69,110,3
3,74,114,68
3,69,110,1
3,66,118,537
3,71,110,0
3,71,110,184
3,66,118,0
3,69,119,74
3,66,118,4
3,76,114,555
3,69,110,5
3,69,110,167
3,76,110,4
3,74,110,72
3,69,114,4
3,71,110,565
3,66,110,0
3,71,110,189
3,66,110,3
3,69,110,78
3,66,118,0
3,76,110,571
3,69,98,0
3,69,110,177
3,76,110,4
3,74,114,73
3,69,102,4
3,66,110,548
3,71,110,0
3,71,110,182
3,66,103,3
3,69,110,75
3,66,110,3
3,68,110,814
3,64,95,4
3,68,110,78
3,64,98,7
3,68,110,198
3,64,106,14
3,78,127,552
3,73,118,0
3,76,119,287
3,73,118,4
3,78,118,111
3,73,118,4
3,76,114,114
3,69,114,1
3,76,119,132
3,69,114,5
3,74,114,167
3,69,110,4
3,73,118,82
3,69,110,7
3,66,110,313
3,71,119,3
3,71,110,183
3,66,110,0
3,66,110,81
3,69,114,3
3,76,114,560
3,69,106,2
3,76,114,168
3,69,110,0
3,74,119,82
3,69,106,5
3,71,110,557
3,66,110,0
3,71,110,171
3,66,110,0
3,66,110,79
3,69,114,4
3,76,114,562
3,69,102,4
3,76,110,168
3,69,106,5
3,74,106,67
3,69,102,4
3,66,110,545
3,71,110,2
3,66,103,180
3,71,114,6
3,66,118,85
3,69,114,3
3,76,114,547
3,71,106,197
3,71,106,78
3,69,114,82
3,74,110,210
3,74,114,81
3,62,106,84
3,62,102,77
3,61,103,315
3,61,90,83
3,62,98,92
3,62,102,82
4,52,45,6635
4,45,56,6
4,57,78,26
4,61,82,52
4,62,110,238
4,59,102,0
4,62,106,155
4,59,93,2
4,54,70,262
4,57,90,2
4,62,98,622
4,59,86,0
4,62,102,170
4,59,95,1
4,59,98,109
4,54,82,4
4,59,95,162
4,54,72,4
4,52,88,3
4,57,71,5
4,59,88,199
4,62,102,3
4,62,102,178
4,59,93,0
4,54,77,257
4,57,90,0
4,64,102,252
4,69,98,52
4,71,106,74
4,68,98,23
4,64,95,0
4,64,78,22
4,66,103,6
4,64,106,51
4,59,90,6
4,62,102,70
4,59,102,0
4,62,106,189
4,59,95,2
4,59,93,2
4,62,106,0
4,54,70,262
4,57,90,2
4,62,98,622
4,59,86,0
4,62,102,170
4,59,95,1
4,59,98,109
4,54,82,4
4,59,95,162
4,54,72,4
4,52,88,3
4,57,71,5
4,59,88,199
4,62,102,3
4,62,102,178
4,59,93,0
