track,note,velocity,time
1,36,123,50690
1,36,119,112
1,43,107,86
1,38,83,0
1,35,87,126
1,31,115,102
1,38,115,62
1,31,103,24
1,31,127,288
1,33,123,54
1,31,127,34
1,29,127,8
1,31,123,4
1,36,127,6
1,31,119,64
1,36,127,0
1,33,119,94
1,31,115,0
1,29,123,4
1,31,103,16
1,36,119,50
1,43,115,2
1,48,103,0
1,36,115,308
1,36,115,96
1,37,115,34
1,38,123,4
1,48,75,4
1,49,59,2
1,50,63,0
1,31,124,22
1,55,71,0
1,31,123,100
1,38,123,210
1,37,103,32
1,36,123,70
1,31,103,32
1,29,123,2
1,36,111,0
1,41,123,4
1,41,127,294
1,29,123,130
1,30,111,4
1,31,115,18
1,38,119,0
1,37,107,0
1,36,119,2
1,31,123,0
1,29,123,18
1,36,119,0
1,41,127,0
1,40,123,0
1,38,127,0
1,48,75,0
1,49,59,0
1,50,63,2
1,45,111,0
1,43,127,4
1,43,115,160
1,31,123,260
1,31,127,302
1,36,119,0
1,37,115,2
1,38,127,16
1,48,75,4
1,49,59,0
1,50,63,0
1,45,107,2
1,43,124,32
1,36,123,774
1,36,119,114
1,43,107,82
1,38,83,0
1,35,87,128
1,31,115,100
1,38,115,64
1,31,103,24
1,31,127,290
1,33,123,52
1,31,127,34
1,29,127,6
1,31,123,6
1,36,127,0
1,31,119,64
1,36,127,0
1,33,119,96
1,31,115,2
1,29,123,2
1,31,103,2
1,36,119,50
1,43,115,0
1,48,103,0
1,36,115,302
1,36,115,98
1,37,115,34
1,38,123,4
1,48,75,4
1,49,59,0
1,50,63,0
1,31,124,24
1,55,71,0
1,31,123,4
1,38,123,210
1,37,103,32
1,36,123,66
1,31,103,36
1,29,123,0
1,36,111,0
1,41,123,6
1,41,127,288
1,29,123,130
1,30,111,0
1,31,115,22
1,38,119,0
1,37,107,2
1,36,119,2
1,31,123,0
1,29,123,12
1,36,119,0
1,41,127,2
1,40,123,0
1,38,127,2
1,48,75,4
1,49,59,0
1,50,63,2
1,45,111,0
1,43,127,18
1,43,115,162
1,31,123,258
1,31,127,306
1,36,119,2
1,37,115,0
1,38,127,20
1,48,107,0
1,49,87,0
1,50,95,0
1,45,107,0
1,43,124,2
1,36,91,768
2,43,95,956
2,48,87,192
2,50,67,192
2,50,107,98
2,55,99,0
2,52,63,0
2,60,99,188
2,64,79,128
2,55,83,366
2,43,71,244
2,50,79,0
2,55,91,0
2,55,75,126
2,64,79,66
2,55,83,190
2,50,67,34
2,43,51,0
2,55,79,2
2,57,79,0
2,43,47,32
2,50,55,0
2,55,67,2
2,60,83,0
2,67,79,286
2,59,75,0
2,50,43,0
2,43,23,0
2,55,91,14
2,59,87,64
2,60,111,32
2,55,99,0
2,52,95,0
2,62,67,0
2,50,35,0
2,55,83,62
2,59,83,46
2,45,115,20
2,57,87,48
2,60,71,192
2,43,83,4
2,57,75,0
2,60,67,0
2,57,83,98
2,60,75,144
2,41,107,0
2,57,91,208
2,60,83,110
2,43,115,194
2,55,95,162
2,59,87,178
2,64,51,190
2,55,87,84
2,48,103,0
2,55,91,46
2,60,87,192
2,52,119,64
2,60,83,2
2,53,71,0
2,55,79,94
2,60,67,50
2,60,79,16
2,52,67,0
2,60,47,2
2,55,83,190
2,60,111,224
2,48,59,0
2,55,83,144
2,60,79,158
2,53,119,80
2,57,99,350
2,60,83,356
2,57,87,352
2,60,83,160
2,53,119,116
2,57,95,2
2,59,55,0
2,55,79,0
2,62,71,66
2,59,83,0
2,62,79,128
2,65,75,2
2,62,75,112
2,59,71,0
2,59,79,98
2,48,95,94
2,55,83,348
2,62,75,336
2,59,67,0
2,55,71,224
2,64,75,2
2,60,67,0
2,55,59,270
2,62,75,50
2,59,67,0
2,64,63,0
2,60,63,0
2,65,91,16
2,57,95,0
2,50,79,0
2,64,59,0
2,60,83,0
2,57,87,206
2,65,67,2
2,60,79,14
2,72,71,32
2,57,63,0
2,60,59,318
2,65,83,32
2,57,83,0
2,60,75,272
2,43,79,274
2,55,59,336
2,59,63,352
2,55,59,354
2,65,31,382
2,48,87,772
2,52,87,366
2,55,75,384
2,60,75,274
2,59,79,0
2,55,47,226
2,64,75,14
2,55,63,322
2,43,95,226
2,57,91,366
2,60,83,306
2,65,63,384
2,43,63,14
2,67,71,2
2,55,63,78
2,59,83,0
2,55,51,384
2,45,107,226
2,57,75,368
2,60,71,0
2,60,71,2
2,43,87,0
2,57,55,174
2,60,79,14
2,60,55,98
2,41,83,0
2,53,75,16
2,57,83,194
2,60,83,0
2,59,63,0
2,43,87,0
2,55,83,162
2,59,71,176
2,64,75,190
2,48,107,96
2,55,87,258
2,60,83,144
2,52,99,0
2,53,63,0
2,55,75,64
2,60,83,64
2,52,87,32
2,55,83,210
2,60,87,386
2,55,75,338
2,53,107,274
2,57,87,320
2,60,83,30
2,57,75,18
2,60,83,160
2,53,95,48
2,55,71,2
2,59,71,192
2,62,75,334
2,59,71,2
2,59,55,80
2,48,91,18
2,55,67,384
2,62,83,322
2,55,55,366
2,64,75,50
2,55,47,272
2,60,83,16
2,55,59,224
2,50,71,270
2,65,79,2
2,57,83,0
2,64,55,0
2,60,71,146
2,65,71,64
2,60,51,18
2,72,79,384
2,60,67,0
2,65,71,384
2,60,47,368
2,43,67,306
2,50,67,2
2,59,67,2
2,55,75,98
2,59,63,16
2,50,75,2
2,52,75,0
2,55,75,162
2,59,75,2
2,50,59,2
2,43,59,0
2,55,35,2
2,65,71,0
2,48,111,56
2,55,75,378
2,60,103,258
2,55,63,370
2,43,99,40
2,55,83,110
2,64,71,384
2,62,27,0
2,43,119,86
2,57,99,354
2,60,99,322
2,52,79,16
2,43,111,56
2,50,83,338
2,55,91,306
2,59,83,382
2,45,91,260
2,57,83,194
2,60,91,190
2,59,67,66
2,43,75,0
2,57,79,242
2,60,83,64
2,41,59,8
2,60,103,2
2,53,95,44
2,57,103,0
2,60,91,130
2,43,63,6
2,59,95,0
2,50,83,172
2,48,103,26
2,52,87,32
2,55,111,52
2,60,103,114
2,52,123,16
2,53,67,2
2,55,91,190
2,60,103,32
2,53,123,14
2,52,87,0
2,55,99,196
2,48,91,286
2,60,83,64
2,53,127,116
2,57,83,224
2,60,119,258
2,53,75,382
2,53,75,96
2,55,115,0
2,59,87,34
2,62,83,342
2,43,87,380
2,48,115,302
2,55,87,82
2,62,87,38
2,65,59,380
2,64,67,46
2,55,79,356
2,60,87,368
2,52,107,12
2,50,71,4
2,57,83,4
2,65,59,0
2,64,43,0
2,60,83,144
2,65,43,68
2,60,51,20
2,72,51,380
2,60,67,2
2,65,71,388
2,60,47,368
2,43,88,312
2,50,63,80
2,55,59,2
2,59,87,0
2,55,67,0
2,55,71,222
2,50,55,0
2,65,79,304
2,55,55,0
2,50,63,18
2,55,59,0
2,59,87,2
2,55,67,0
2,55,71,224
2,50,55,0
2,55,51,306
2,64,79,4
2,50,63,92
2,55,59,2
2,55,67,2
2,59,87,2
2,55,71,224
2,50,55,0
2,62,79,290
2,55,71,0
2,50,71,0
2,43,75,0
2,43,111,0
2,50,79,380
2,62,87,352
2,55,51,20
2,48,103,38
2,55,79,366
2,60,91,370
2,52,75,34
2,53,115,228
2,57,59,380
2,60,111,324
2,53,71,338
2,60,103,2
2,53,79,260
2,61,99,18
2,53,87,192
2,43,103,196
2,50,87,34
2,62,87,382
2,55,71,16
2,48,99,20
2,52,87,352
2,55,87,352
2,60,99,386
2,41,103,260
2,53,79,98
2,60,111,382
2,53,83,2
2,60,111,336
2,41,71,0
2,53,83,226
2,60,115,354
2,40,95,0
2,55,103,158
2,50,127,0
2,57,95,240
2,62,87,388
2,54,55,380
2,50,119,372
2,57,75,222
2,62,91,84
2,50,71,304
2,43,115,56
2,50,95,66
2,62,87,384
2,55,91,384
2,43,115,82
2,55,99,222
2,60,115,0
2,55,91,0
2,59,75,0
2,55,55,0
2,55,75,0
2,43,103,188
2,50,123,80
2,57,91,362
2,62,91,302
2,54,59,262
2,50,87,186
2,50,119,64
2,57,91,18
2,62,83,388
2,54,83,70
2,50,95,16
2,43,79,0
2,55,71,208
2,59,83,384
2,62,75,2
2,55,63,368
2,43,75,272
2,55,71,16
2,55,71,110
2,60,71,2
2,55,67,112
2,43,83,22
2,55,71,146
2,59,67,130
2,55,51,0
2,55,79,64
2,43,67,176
2,50,79,78
2,57,83,54
2,62,71,30
2,65,59,78
2,48,111,4
2,55,75,352
2,60,103,258
2,55,63,366
2,43,99,34
2,55,83,114
2,64,71,386
2,62,27,0
2,43,119,88
2,57,99,350
2,60,99,322
2,52,79,20
2,43,111,56
2,50,83,340
2,55,91,306
2,59,83,386
2,45,91,260
2,57,83,196
2,60,91,188
2,59,67,68
2,43,75,0
2,57,79,242
2,60,83,66
2,41,59,4
2,60,103,0
2,53,95,46
2,57,103,2
2,60,91,128
2,43,63,8
2,59,95,0
2,50,83,176
2,48,103,18
2,52,87,30
2,55,111,48
2,60,103,112
2,52,123,18
2,53,67,0
2,55,115,190
2,60,103,34
2,53,123,16
2,52,87,0
2,55,99,192
2,48,91,292
2,60,83,64
2,53,127,116
2,57,83,224
2,60,119,260
2,53,75,382
2,53,75,94
2,55,115,6
2,59,87,34
2,62,83,334
2,43,87,384
2,48,115,308
2,55,87,82
2,62,87,34
2,65,59,386
2,64,67,48
2,55,79,352
2,60,87,370
2,52,107,18
2,50,71,2
2,57,83,2
2,65,59,0
2,64,43,2
2,60,83,144
2,65,43,68
2,60,51,20
2,72,51,380
2,60,67,2
2,65,71,384
2,60,47,368
2,43,88,2
2,50,63,78
2,55,59,2
2,55,67,0
2,59,87,2
2,50,55,222
2,55,71,2
2,65,79,304
2,55,55,0
2,50,63,14
2,55,59,2
2,59,87,0
2,55,67,0
2,50,55,226
2,55,71,2
2,55,51,2
2,64,79,0
2,50,63,98
2,55,59,2
2,59,87,2
2,55,67,0
2,55,71,224
2,50,55,0
2,43,75,292
2,50,71,0
2,55,71,2
2,62,79,0
2,43,111,10
2,50,79,374
2,62,87,354
2,55,51,20
2,48,103,40
2,55,79,366
2,60,91,374
2,52,75,30
2,53,115,0
2,57,59,382
2,60,111,324
2,53,71,336
2,60,103,4
2,53,79,258
2,61,99,20
2,53,87,196
2,43,103,198
2,50,87,32
2,62,87,382
2,55,71,18
2,48,99,16
2,52,87,354
2,55,87,354
2,60,99,384
2,41,103,252
2,53,79,96
2,60,111,384
2,53,83,2
2,60,111,338
2,41,71,0
2,53,83,226
2,60,115,354
2,40,95,0
2,55,103,166
2,50,127,0
2,57,95,242
2,62,87,382
2,54,55,392
2,50,119,372
2,57,75,228
2,62,91,84
2,50,71,312
2,43,115,52
2,50,95,66
2,62,87,384
2,55,91,384
2,43,115,84
2,55,99,226
2,60,115,0
2,55,91,0
2,59,75,0
2,55,55,0
2,55,75,2
2,43,103,190
2,50,123,82
2,57,91,366
2,62,91,300
2,54,59,258
2,50,87,192
2,50,119,66
2,57,91,20
2,62,83,382
2,54,83,64
2,43,79,24
2,50,95,0
2,55,71,210
2,62,75,384
2,59,83,0
2,55,63,368
2,43,75,276
2,55,71,16
2,60,71,114
2,55,71,0
2,55,67,112
2,43,83,18
2,55,71,144
2,59,67,128
2,55,51,0
2,55,79,62
2,43,67,176
2,50,79,80
2,57,83,50
2,62,71,30
2,65,59,82
2,55,51,16
2,60,71,2
2,67,83,28
3,76,75,7678
3,72,67,0
3,69,71,0
3,67,67,4
3,72,51,0
3,69,63,0
3,65,55,0
3,76,51,0
3,74,51,0
3,71,55,0
3,67,63,0
3,76,63,0
3,72,63,0
3,67,63,0
3,80,75,1534
3,72,35,48
3,65,43,0
3,81,79,16
3,67,39,4
3,74,47,0
3,83,79,2
3,81,79,350
3,77,79,336
3,74,79,334
3,71,79,128
3,72,79,190
3,67,19,0
3,64,23,0
3,74,79,722
3,76,71,736
3,60,31,0
3,74,75,0
3,76,71,382
3,77,63,16
3,53,43,0
3,76,67,0
3,72,79,386
3,74,59,2288
3,55,27,0
3,79,55,26214
3,76,59,0
3,72,63,0
3,71,47,6
3,74,63,0
3,69,71,6
3,72,63,0
3,77,55,0
3,71,75,6
3,74,63,0
3,77,43,2
3,79,51,0
3,76,67,0
3,72,63,0
3,69,71,0
3,67,51,0
3,65,71,10
3,69,63,0
3,67,63,0
3,71,59,0
3,74,47,2
3,76,47,0
3,67,71,6
3,72,75,0
3,76,71,0
3,65,67,86
3,69,67,0
3,72,63,0
3,72,71,82
3,71,75,0
3,67,71,0
3,72,67,0
3,71,31,4
3,74,63,0
3,77,75,2
3,76,75,0
3,72,71,0
3,67,67,0
3,77,71,1152
3,79,63,0
3,76,43,0
3,76,75,126
3,69,59,26
3,74,67,2
3,77,43,0
3,76,47,0
3,77,47,4
3,67,63,6
3,71,75,10
3,81,59,0
3,77,71,0
3,76,43,6
3,79,47,0
3,77,43,0
3,74,47,0
3,78,71,12286
3,74,75,0
3,72,75,0
3,69,75,0
3,71,75,6
3,74,75,2
3,79,71,0
3,84,71,2292
3,81,59,0
3,78,63,0
3,74,63,0
3,72,63,0
3,69,47,0
3,78,67,0
3,83,63,0
3,79,71,0
3,74,63,0
3,71,51,0
3,81,67,0
3,79,63,0
3,77,71,0
3,72,75,0
3,71,63,0
3,76,67,0
3,79,51,2
3,69,63,4
3,74,63,2
3,77,35,0
3,72,63,392
3,76,59,2
3,79,55,0
3,74,63,0
3,71,47,0
3,69,71,6
3,72,63,0
3,77,55,0
3,71,75,6
3,74,63,2
3,77,43,0
3,79,51,2
3,76,67,0
3,72,63,0
3,69,71,0
3,67,51,0
3,65,71,6
3,69,63,0
3,67,63,8
3,71,59,2
3,74,47,0
3,76,47,2
3,76,71,0
3,72,75,0
3,67,71,0
3,65,67,84
3,69,67,2
3,72,63,0
3,72,71,82
3,67,71,4
3,71,75,0
3,72,67,0
3,74,63,0
3,71,31,0
3,77,75,0
3,76,75,2
3,72,71,0
3,67,67,0
3,77,71,1152
3,79,63,0
3,76,43,0
3,76,75,132
3,69,59,26
3,74,67,0
3,77,43,0
3,76,47,0
3,77,47,0
3,67,63,8
3,71,75,0
3,77,71,4
3,81,59,2
3,76,43,4
3,79,47,0
3,74,47,4
3,77,43,2
3,62,107,4
3,64,99,36
3,60,91,6
3,62,95,0
3,55,115,6
3,56,107,0
3,57,107,2
3,62,127,1430
3,60,123,386
3,62,127,2
3,55,111,2
3,56,127,0
3,57,123,0
3,58,127,0
3,60,127,4
3,62,127,22
3,60,127,6
3,59,127,0
3,60,127,4
3,57,127,6
3,58,127,4
3,59,127,2
3,59,127,66
3,60,127,0
3,61,127,22
3,62,127,2
3,64,127,0
3,60,127,0
3,62,127,2
3,57,127,0
3,58,127,18
3,59,127,6
3,81,59,100
3,79,55,0
3,77,63,0
3,72,67,0
3,79,51,0
3,76,67,0
3,71,63,0
3,69,63,2
3,74,63,0
3,77,35,4
3,76,27,0
3,72,55,0
3,67,55,0
4,60,55,1536
4,59,55,2
4,60,47,2
4,55,51,6
4,67,39,290
4,60,47,1238
4,59,51,0
4,60,51,0
4,60,43,20
4,60,55,2514
4,62,59,4
4,65,55,34
4,64,59,0
4,65,55,4
4,67,39,16
4,65,51,1538
4,64,51,0
4,60,51,0
4,62,43,2
4,60,91,2
4,60,67,272
4,59,75,76
4,57,87,24
4,60,71,434
4,57,75,370
4,59,71,6
4,72,79,38
4,69,67,0
4,64,75,0
4,71,79,0
4,69,59,0
4,67,63,0
4,72,75,384
4,65,75,10
4,69,75,2
4,72,79,374
4,67,83,154
4,69,75,0
4,72,71,2
4,65,75,206
4,64,79,182
4,67,71,2
4,72,75,0
4,62,87,0
4,64,83,0
4,60,83,196
4,53,35,152
4,57,79,2
4,60,67,0
4,65,67,0
4,71,91,450
4,67,47,0
4,62,35,0
4,74,83,0
4,71,75,2
4,62,71,626
4,67,71,48
4,64,79,0
4,60,79,34
4,57,63,348
4,60,59,2
4,62,87,0
4,76,59,498
4,64,75,0
4,65,87,118
4,77,35,0
4,62,71,374
