track,note,velocity,time
3,72,96,11988
3,72,0,6
3,72,96,24
3,72,0,6
4,35,98,792
4,35,0,1
4,36,95,0
4,36,0,97
4,36,94,95
4,36,0,3
4,36,96,48
4,36,0,45
4,29,93,0
4,29,0,99
4,29,95,46
4,29,0,49
4,31,99,1
4,31,0,6
4,31,93,48
4,31,0,51
4,36,97,0
4,36,0,94
4,31,97,50
4,36,93,45
4,31,0,1
4,36,0,3
4,36,94,46
4,29,94,48
4,36,0,2
4,29,0,96
4,29,100,47
4,29,0,48
4,31,97,1
4,31,0,7
4,31,93,47
4,36,93,48
4,31,0,3
4,36,0,96
4,31,93,45
4,36,94,49
4,31,0,2
4,36,0,3
4,36,99,48
4,36,0,45
4,29,99,3
4,29,0,93
4,29,99,51
4,29,0,45
4,31,96,3
4,31,0,6
4,31,97,51
4,31,0,46
4,36,94,0
4,36,0,98
4,31,99,48
4,31,0,45
4,36,96,3
4,36,0,4
4,36,96,51
4,36,0,45
4,29,93,0
4,29,0,99
4,29,95,46
4,29,0,49
4,31,96,1
4,31,0,6
4,31,98,50
4,31,0,47
4,36,98,3073
4,36,0,95
4,36,99,98
4,36,0,4
4,36,98,50
4,36,0,47
4,29,96,2
4,29,0,93
4,29,97,51
4,29,0,46
4,31,97,2
4,31,0,7
4,31,100,49
4,31,0,48
4,36,99,1
4,36,0,93
4,31,97,51
4,31,0,46
4,36,97,2
4,36,0,1
4,36,100,49
4,36,0,48
4,29,96,1
4,29,0,93
4,29,94,49
4,29,0,50
4,31,96,0
4,31,0,6
4,31,93,48
4,36,95,49
4,31,0,2
4,36,0,95
4,31,93,46
4,36,100,50
4,31,0,1
4,36,0,2
4,36,99,49
4,36,0,45
4,29,97,3
4,29,0,94
4,29,93,47
4,29,0,51
4,31,99,0
4,31,0,6
4,31,95,49
4,31,0,49
4,36,99,1
4,36,0,93
4,31,100,50
4,31,0,48
4,36,97,1
4,36,0,1
4,36,95,48
4,36,0,49
4,29,100,0
4,29,0,96
4,29,99,49
4,29,0,45
4,31,94,1
4,31,0,9
4,31,95,46
4,31,0,49
4,26,98,0
4,26,0,95
4,26,96,50
4,26,0,93
4,31,99,3
4,31,0,45
4,26,99,51
4,26,0,45
4,31,95,1
4,31,0,97
4,31,96,145
4,31,0,45
4,33,98,50
4,26,93,46
4,33,0,1
4,26,0,98
4,26,94,46
4,31,100,97
4,26,0,1
4,31,0,47
4,26,95,47
4,31,94,48
4,26,0,1
4,31,0,97
4,31,99,144
4,31,0,45
4,38,95,1
4,38,0,49
4,31,99,1
4,31,0,45
4,36,96,3
4,36,0,45
4,36,100,194
4,36,0,48
4,36,100,48
4,36,0,48
4,29,96,1
4,29,0,45
4,31,97,195
4,31,0,46
4,35,95,48
4,35,0,49
4,36,98,0
4,36,0,47
4,36,94,192
4,36,0,50
4,36,100,47
4,36,0,48
4,29,96,1
4,29,0,45
4,31,95,193
4,31,0,49
4,35,96,49
4,35,0,45
4,36,95,1
4,36,0,49
4,36,100,192
4,36,0,48
4,36,96,49
4,36,0,45
4,29,93,0
4,29,0,51
4,31,95,190
4,31,0,49
4,35,94,47
4,35,0,50
4,36,99,0
4,36,0,45
4,36,98,194
4,36,0,47
4,36,100,49
4,36,0,48
4,29,98,0
4,29,0,191
4,31,95,0
4,31,0,193
4,36,97,1
4,36,0,94
4,36,99,98
4,36,0,4
4,36,100,50
4,29,93,46
4,36,0,2
4,29,0,97
4,29,94,46
4,31,98,49
4,29,0,1
4,31,0,7
4,31,99,50
4,31,0,45
4,36,99,3
4,36,0,93
4,31,95,49
4,31,0,49
4,36,98,0
4,36,0,1
4,36,97,50
4,36,0,46
4,29,98,1
4,29,0,95
4,29,95,48
4,29,0,49
4,31,100,0
4,31,0,8
4,31,96,49
4,31,0,45
4,36,99,3
4,36,0,93
4,31,98,50
4,31,0,47
4,36,96,2
4,36,0,4
4,36,100,50
4,36,0,48
4,29,98,0
4,29,0,95
4,29,97,50
4,31,93,45
4,29,0,1
4,31,0,9
4,31,98,47
4,31,0,47
4,36,98,1
4,36,0,95
4,31,97,50
4,31,0,46
4,36,96,2
4,36,0,4
4,36,93,48
4,29,94,49
4,36,0,2
4,29,0,96
4,29,94,46
4,31,93,47
4,29,0,3
4,31,0,9
4,31,95,46
4,31,0,49
4,26,96,1
4,26,0,93
4,26,100,50
4,31,94,95
4,26,0,1
4,31,0,49
4,26,96,48
4,26,0,45
4,31,96,3
4,31,0,93
4,31,93,144
4,31,0,51
4,33,95,46
4,26,93,47
4,33,0,2
4,26,0,97
4,26,98,47
4,31,93,94
4,26,0,1
4,31,0,50
4,26,100,47
4,26,0,48
4,31,98,0
4,31,0,95
4,33,99,146
4,33,0,45
4,40,95,1
4,33,93,47
4,40,0,2
4,38,100,48
4,33,0,1
4,38,0,95
4,33,98,48
4,33,0,47
4,38,96,2
4,38,0,45
4,26,93,0
4,26,0,1
4,38,93,10
4,31,98,50
4,38,0,1
4,31,0,94
4,31,96,50
4,31,0,45
4,33,93,0
4,33,0,99
4,33,95,46
4,33,0,49
4,38,96,1
4,38,0,93
4,33,93,48
4,38,98,50
4,33,0,1
4,38,0,46
4,26,98,1
4,26,0,5
4,38,100,12
4,38,0,48
4,31,100,0
4,31,0,96
4,31,94,47
4,31,0,50
4,33,96,0
4,33,0,93
4,33,100,50
4,33,0,48
4,38,97,1
4,38,0,94
4,33,97,50
4,33,0,46
4,38,95,0
4,26,95,48
4,38,0,1
4,26,0,6
4,38,100,12
4,38,0,48
4,31,100,0
4,31,0,96
4,31,99,49
4,31,0,45
4,33,96,3
4,33,0,93
4,33,95,49
4,33,0,49
4,38,97,1
4,38,0,94
4,33,99,50
4,33,0,45
4,38,93,0
4,26,100,50
4,38,0,1
4,26,0,6
4,38,96,13
4,38,0,45
4,31,98,2
4,31,0,95
4,31,98,49
4,33,93,46
4,31,0,1
4,33,0,98
4,33,96,48
4,33,0,45
4,38,94,3313
4,38,0,3
4,38,96,0
4,38,0,93
4,38,93,96
4,38,0,3
4,38,94,46
4,31,98,49
4,38,0,1
4,31,0,94
4,31,94,48
4,31,0,50
4,33,96,0
4,33,0,6
4,33,98,50
4,33,0,47
4,38,100,1
4,38,0,96
4,33,99,49
4,33,0,45
4,38,93,0
4,38,0,3
4,38,93,45
4,38,0,51
4,31,99,0
4,31,0,93
4,31,99,51
4,31,0,45
4,33,97,3
4,33,0,7
4,33,94,48
4,38,94,48
4,33,0,2
4,38,0,96
4,33,100,47
4,33,0,48
4,38,99,1
4,38,0,4
4,38,93,48
4,31,98,50
4,38,0,1
4,31,0,94
4,31,97,50
4,31,0,46
4,33,97,2
4,33,0,7
4,33,100,49
4,33,0,48
4,38,97,1
4,38,0,94
4,33,98,49
4,33,0,47
4,38,97,2
4,38,0,1
4,38,99,50
4,38,0,45
4,31,97,3
4,31,0,94
4,31,94,48
4,33,94,48
4,31,0,2
4,33,0,9
4,33,96,48
4,33,0,45
4,38,98,2
4,38,0,95
4,38,96,98
4,38,0,4
4,38,98,50
4,38,0,47
4,31,100,1
4,31,0,96
4,31,95,47
4,31,0,49
4,33,99,1
4,33,0,6
4,33,94,49
4,33,0,50
4,38,97,0
4,38,0,94
4,33,100,49
4,38,93,46
4,33,0,2
4,38,0,3
4,38,94,46
4,31,98,49
4,38,0,1
4,31,0,94
4,31,96,50
4,31,0,45
4,33,94,1
4,33,0,9
4,33,99,48
4,33,0,45
4,38,96,3
4,38,0,93
4,33,100,50
4,33,0,48
4,38,96,1
4,38,0,4
4,38,100,50
4,38,0,48
4,31,100,0
4,31,0,96
4,31,100,48
4,31,0,48
4,33,100,0
4,33,0,8
4,33,98,48
4,33,0,47
4,38,94,0
4,38,0,98
4,33,94,46
4,33,0,50
4,38,97,0
4,38,0,1
4,38,95,48
4,31,94,48
4,38,0,1
4,31,0,97
4,31,94,46
4,33,100,49
4,31,0,1
4,33,0,8
4,33,95,47
4,33,0,49
4,38,98,0
4,38,0,95
4,38,98,97
4,38,0,1
4,38,97,50
4,38,0,46
4,31,94,0
4,31,0,98
4,31,94,46
4,33,93,47
4,31,0,3
4,33,0,9
4,33,96,48
4,33,0,45
4,38,95,1
4,38,0,97
4,33,99,49
4,33,0,45
4,38,95,1
4,38,0,2
4,38,99,49
4,38,0,45
4,31,96,3
4,31,0,93
4,31,96,51
4,31,0,45
4,33,94,1
4,33,0,9
4,33,93,45
4,38,100,50
4,33,0,1
4,38,0,95
4,33,95,47
4,33,0,49
4,38,97,1
4,38,0,1
4,38,98,49
4,38,0,47
4,31,94,0
4,31,0,98
4,31,93,45
4,33,98,50
4,31,0,1
4,33,0,7
4,33,96,50
4,33,0,45
4,38,99,3
4,38,0,93
4,33,100,50
4,33,0,48
4,38,97,1
4,38,0,1
4,38,97,50
4,38,0,46
4,31,97,2
4,31,0,94
4,31,94,48
4,33,94,48
4,31,0,2
4,33,0,9
4,33,93,45
4,33,0,51
4,28,97,0
4,28,0,94
4,28,95,48
4,28,0,97
4,33,99,1
4,33,0,45
4,28,93,48
4,33,100,50
4,28,0,1
4,33,0,95
4,33,94,143
4,33,0,50
4,35,95,46
4,28,94,48
4,35,0,1
4,28,0,97
4,28,97,48
4,28,0,94
4,33,97,2
4,33,0,46
4,28,99,50
4,28,0,45
4,33,99,3
4,33,0,93
4,31,98,2
4,31,0,95
4,30,98,1
4,28,93,94
4,30,0,1
4,28,0,98
4,38,100,95
4,38,0,48
5,48,126,2161
5,52,127,6
5,55,126,6
5,60,124,4
5,64,123,5
5,48,0,312
5,55,0,0
5,52,0,0
5,64,0,3
5,60,0,0
5,53,127,48
5,57,123,3
5,60,127,9
5,65,126,6
5,65,0,153
5,60,0,0
5,53,0,1
5,57,0,2
5,55,123,15
5,59,127,9
5,62,125,4
5,67,127,7
5,59,0,154
5,67,0,2
5,62,0,0
5,55,0,1
5,48,124,16
5,52,127,8
5,55,127,6
5,60,124,4
5,64,127,8
5,64,0,309
5,52,0,0
5,55,0,1
5,48,0,2
5,60,0,0
5,53,127,48
5,57,127,5
5,60,124,5
5,65,123,5
5,53,0,157
5,57,0,0
5,65,0,2
5,60,0,0
5,55,123,15
5,59,127,8
5,62,124,5
5,67,124,6
5,59,0,156
5,67,0,2
5,62,0,0
5,55,0,0
5,48,126,18
5,52,127,6
5,55,124,4
5,60,127,7
5,64,126,7
5,48,0,309
5,64,0,0
5,52,0,1
5,60,0,1
5,55,0,1
5,53,124,46
5,57,124,6
5,60,127,7
5,65,126,7
5,65,0,153
5,60,0,1
5,53,0,2
5,57,0,0
5,55,127,17
5,59,125,5
5,62,127,7
5,67,127,6
5,55,0,155
5,62,0,1
5,59,0,0
5,67,0,0
5,48,127,18
5,52,123,4
5,55,125,7
5,60,127,8
5,64,125,4
5,60,0,311
5,48,0,1
5,64,0,1
5,55,0,0
5,52,0,1
5,53,124,46
5,57,123,5
5,60,127,8
5,65,127,6
5,60,0,155
5,65,0,1
5,57,0,1
5,53,0,0
5,55,127,17
5,59,127,7
5,62,123,3
5,67,127,9
5,59,0,153
5,67,0,0
5,55,0,1
5,62,0,2
5,48,127,17
5,52,127,7
5,55,126,6
5,60,124,4
5,64,124,6
5,55,0,311
5,52,0,1
5,48,0,0
5,64,0,2
5,60,0,0
5,53,126,48
5,57,126,6
5,60,126,6
5,65,127,5
5,57,0,154
5,53,0,0
5,60,0,0
5,65,0,2
5,55,127,19
5,59,127,5
5,62,126,7
5,67,126,6
5,67,0,153
5,62,0,0
5,55,0,1
5,59,0,0
5,55,126,596
5,55,0,45
5,67,94,2
5,62,94,32
5,62,0,16
5,67,0,0
5,59,127,0
5,59,0,48
5,55,126,625
5,55,126,0
5,59,124,4
5,62,127,8
5,67,127,6
5,55,0,27
5,67,94,2
5,62,94,32
5,62,0,16
5,67,0,0
5,59,127,0
5,59,0,47
5,67,0,29
5,62,0,0
5,55,0,0
5,59,0,3
5,53,127,401
5,57,127,7
5,60,127,6
5,65,124,4
5,60,0,155
5,53,0,1
5,57,0,0
5,65,0,2
5,55,127,18
5,55,0,46
5,67,94,1
5,62,94,32
5,59,125,15
5,67,0,1
5,62,0,0
5,59,0,48
5,60,124,287
5,60,0,18
5,55,123,317
5,55,126,3
5,59,127,6
5,62,126,6
5,67,123,3
5,55,0,30
5,67,94,2
5,62,94,32
5,62,0,16
5,67,0,0
5,59,127,0
5,59,0,47
5,62,0,29
5,59,0,0
5,67,0,3
5,55,0,0
5,48,127,17
5,52,127,7
5,55,127,6
5,60,127,6
5,64,127,5
5,52,0,310
5,64,0,1
5,60,0,0
5,55,0,0
5,48,0,1
5,53,124,47
5,57,127,7
5,60,127,6
5,65,124,5
5,60,0,156
5,57,0,1
5,65,0,1
5,53,0,0
5,55,125,16
5,59,127,7
5,62,125,5
5,67,123,5
5,59,0,158
5,62,0,0
5,55,0,0
5,67,0,1
5,48,124,16
5,52,127,7
5,55,123,4
5,60,124,7
5,64,125,6
5,52,0,312
5,64,0,1
5,55,0,1
5,48,0,0
5,60,0,0
5,53,126,48
5,57,127,5
5,60,125,5
5,65,124,6
5,53,0,155
5,57,0,1
5,60,0,1
5,65,0,1
5,55,124,16
5,59,126,8
5,62,126,6
5,67,127,6
5,59,0,153
5,62,0,0
5,67,0,1
5,55,0,2
5,48,123,15
5,52,124,7
5,55,126,8
5,60,127,5
5,64,124,5
5,55,0,311
5,60,0,2
5,48,0,1
5,52,0,0
5,64,0,0
5,53,127,47
5,57,123,4
5,60,124,7
5,65,126,8
5,65,0,153
5,53,0,1
5,60,0,2
5,57,0,0
5,55,127,17
5,59,127,7
5,62,124,4
5,67,125,6
5,59,0,156
5,55,0,0
5,67,0,1
5,62,0,1
5,48,126,18
5,52,125,4
5,55,127,8
5,60,127,5
5,64,127,7
5,48,0,309
5,64,0,0
5,55,0,1
5,60,0,1
5,52,0,0
5,53,127,49
5,57,125,4
5,60,127,8
5,65,124,4
5,60,0,155
5,53,0,0
5,57,0,2
5,65,0,1
5,55,127,18
5,59,124,4
5,62,127,7
5,67,127,6
5,62,0,155
5,55,0,0
5,67,0,1
5,59,0,1
5,50,127,18
5,53,123,0
5,57,123,3
5,60,126,6
5,65,124,1
5,50,0,269
5,60,0,0
5,53,0,3
5,65,0,0
5,57,0,0
5,50,127,6
5,53,123,0
5,57,127,5
5,60,125,2
5,65,124,3
5,50,0,78
5,60,0,1
5,57,0,0
5,65,0,1
5,53,0,0
5,50,123,3
5,55,127,6
5,59,124,1
5,62,123,2
5,67,124,4
5,55,0,365
5,62,0,3
5,67,0,0
5,50,0,0
5,59,0,0
5,50,125,4
5,53,127,4
5,57,125,2
5,60,124,3
5,65,125,3
5,65,0,271
5,53,0,0
5,50,0,0
5,57,0,0
5,60,0,1
5,50,127,5
5,53,124,2
5,57,123,2
5,60,126,6
5,65,127,2
5,60,0,76
5,50,0,1
5,65,0,1
5,57,0,1
5,53,0,0
5,50,126,6
5,55,123,0
5,59,127,6
5,62,123,0
5,67,127,6
5,50,0,363
5,67,0,0
5,59,0,1
5,55,0,2
5,62,0,0
5,55,127,582
5,55,0,46
5,67,94,1
5,62,94,32
5,59,124,15
5,67,0,1
5,62,0,0
5,59,0,49
5,55,123,621
5,55,127,3
5,59,123,3
5,62,127,9
5,67,127,6
5,55,0,28
5,67,94,1
5,62,94,32
5,59,125,15
5,62,0,1
5,67,0,0
5,59,0,48
5,62,0,28
5,67,0,1
5,55,0,2
5,59,0,0
5,53,125,400
5,57,127,8
5,60,127,6
5,65,127,6
5,60,0,153
5,65,0,0
5,57,0,1
5,53,0,1
5,55,123,16
5,67,94,50
5,55,0,1
5,62,94,31
5,59,124,15
5,62,0,1
5,67,0,0
5,59,0,49
5,60,127,287
5,60,0,15
5,55,127,321
5,55,127,0
5,59,124,5
5,62,127,7
5,67,127,6
5,55,0,30
5,67,94,0
5,62,94,32
5,62,0,16
5,67,0,0
5,59,126,1
5,59,0,45
5,67,0,31
5,55,0,0
5,62,0,1
5,59,0,1
