track,note,velocity,time
1,44,110,965
1,44,104,1
1,44,106,1
1,44,101,1
1,35,123,62
1,44,112,2
1,44,96,1
1,44,104,1
1,44,96,1
1,44,106,0
1,44,103,2
1,44,101,1
1,44,99,14
1,35,125,8
1,44,108,1
1,44,93,3
1,44,99,12
1,44,112,7
1,44,104,11
1,44,104,12
1,44,82,11
1,44,104,16
1,35,121,18
1,44,112,1
1,44,92,17
1,44,106,26
1,44,104,26
1,44,101,29
1,44,96,20
1,44,104,26
1,44,104,23
1,35,123,19
1,44,98,1
1,44,106,19
1,44,87,25
1,44,112,33
1,44,112,29
1,44,110,31
1,44,104,24
1,44,108,27
1,35,123,29
1,44,108,1
1,44,101,20
1,44,86,18
1,44,106,2
1,44,119,20
1,44,99,16
1,44,88,12
1,44,110,24
1,35,123,12
1,44,117,0
1,44,101,18
1,44,83,19
1,44,104,14
1,44,117,9
1,44,99,11
1,44,86,12
1,44,112,18
1,35,125,12
1,44,112,1
1,44,103,18
1,44,85,18
1,44,108,24
1,44,95,20
1,44,103,29
1,44,91,23
1,44,104,33
1,35,127,30
1,44,112,1
1,44,110,30
1,46,114,18
1,44,110,14
1,44,104,1
1,44,106,1
1,44,101,2
1,35,123,63
1,44,112,0
1,44,96,1
1,44,104,1
1,44,96,1
1,44,106,0
1,44,103,1
1,44,101,1
1,44,99,12
1,35,125,8
1,44,108,1
1,44,93,1
1,44,99,12
1,44,112,6
1,44,104,12
1,44,104,11
1,44,82,10
1,44,104,15
1,35,121,19
1,44,112,0
1,44,92,18
1,44,106,28
1,44,104,26
1,44,101,27
1,44,96,21
1,44,104,29
1,44,104,26
1,35,123,21
1,44,98,0
1,44,106,21
1,44,87,28
1,44,112,34
1,44,112,29
1,44,110,29
1,44,104,28
1,44,108,27
1,35,123,28
1,44,108,2
1,44,101,21
1,44,86,17
1,44,106,2
1,44,119,18
1,44,99,17
1,44,88,11
1,44,110,26
1,35,123,12
1,44,117,1
1,44,101,19
1,44,83,19
1,44,104,15
1,44,117,9
1,44,99,11
1,44,86,10
1,44,112,17
1,35,125,12
1,44,112,1
1,44,103,19
1,44,85,18
1,44,108,23
1,44,95,19
1,44,103,29
1,44,91,24
1,44,104,33
1,35,127,32
1,44,112,0
1,44,110,30
1,46,114,18
1,44,110,11
1,44,104,1
1,44,106,1
1,44,101,2
1,35,123,0
1,44,112,3
1,44,96,2
1,44,104,1
1,44,96,3
1,44,106,1
1,44,103,1
1,44,101,2
1,44,99,12
1,35,125,9
1,44,108,1
1,44,93,0
1,44,99,11
1,44,112,6
1,44,104,12
1,44,104,11
1,44,82,11
1,44,104,16
1,35,121,18
1,44,112,1
1,44,92,19
1,44,106,28
1,44,104,24
1,44,101,29
1,44,96,20
1,44,104,24
1,44,104,24
1,35,123,21
1,44,98,1
1,44,106,20
1,44,87,28
1,44,112,36
1,44,112,29
1,44,110,30
1,44,104,28
1,44,108,25
1,35,123,29
1,44,108,0
1,44,101,19
1,44,86,19
1,44,106,1
1,44,119,19
1,44,99,18
1,44,88,11
1,44,110,22
1,35,123,12
1,44,117,0
1,44,101,17
1,44,83,18
1,44,104,18
1,44,117,7
1,44,99,11
1,44,86,11
1,44,112,17
1,35,125,12
1,44,112,1
1,44,103,18
1,44,85,19
1,44,108,26
1,44,95,17
1,44,103,27
1,44,91,23
1,44,104,35
1,35,127,31
1,44,112,0
1,44,110,31
1,46,114,19
1,44,114,11
1,44,112,9
1,44,114,8
1,44,110,16
1,35,127,10
1,44,117,0
1,44,112,19
1,44,114,17
1,44,119,14
1,44,117,11
1,44,119,19
1,44,117,18
1,44,117,18
1,35,127,18
1,44,122,1
1,44,119,21
1,46,108,10
1,44,114,18
1,44,114,30
1,44,114,29
1,44,119,38
1,35,127,29
1,44,117,1
1,44,119,41
1,44,110,28
1,44,119,33
1,44,117,31
1,44,117,30
1,44,108,20
1,44,119,24
1,35,125,21
1,44,119,1
1,44,119,31
1,46,110,9
1,44,119,6
1,44,117,20
1,44,122,12
1,44,119,26
1,35,127,19
1,44,110,1
1,44,117,19
1,44,117,18
1,44,119,18
1,44,112,15
1,44,125,18
1,44,117,18
1,44,119,16
1,35,127,12
1,44,122,0
1,44,119,19
1,46,110,9
1,44,112,2
1,44,117,19
1,44,112,9
1,44,117,17
1,35,127,11
1,44,112,1
1,44,114,20
1,44,112,11
1,44,114,12
1,44,119,8
1,44,112,18
1,44,119,8
1,44,119,19
1,35,127,1
1,44,117,1
1,44,114,12
1,46,114,1
1,44,114,1
1,44,112,11
1,44,119,1
1,44,122,12
1,35,127,0
1,44,114,1
1,44,114,11
1,44,122,8
1,44,114,19
1,44,108,12
1,44,122,21
1,44,114,11
1,44,114,16
1,35,127,12
1,44,125,0
1,44,117,20
1,46,117,12
1,44,114,1
1,44,114,21
1,44,119,8
1,44,117,24
1,35,123,11
1,44,114,1
1,44,117,19
1,44,108,18
1,44,117,22
1,44,119,20
1,44,122,31
1,46,110,9
1,35,123,9
1,44,114,1
1,44,119,21
1,46,110,59
1,44,117,18
1,44,117,29
1,44,104,10
1,44,112,26
1,35,125,21
1,44,112,0
1,44,110,27
1,44,110,20
1,44,114,14
1,44,114,13
1,44,119,30
1,44,110,11
1,44,117,26
1,35,121,19
1,44,119,1
1,44,117,21
1,46,110,9
1,44,117,12
1,44,114,18
1,44,117,11
1,44,114,24
1,35,125,18
1,44,117,1
1,44,117,20
1,44,117,23
1,44,114,35
1,44,119,21
1,44,114,24
1,44,112,22
1,44,114,27
1,35,127,28
1,44,119,1
1,44,119,28
1,46,110,8
1,44,119,21
1,44,112,30
1,44,104,18
1,44,112,33
1,35,123,20
1,44,108,0
1,44,112,31
1,44,117,28
1,44,114,26
1,44,108,18
1,44,114,29
1,44,114,18
1,44,122,18
1,35,127,10
1,44,110,2
1,44,112,20
1,46,112,10
1,38,121,10
1,46,114,1
1,38,125,11
1,38,116,55
1,38,127,11
1,38,123,59
1,38,127,12
1,38,125,28
1,38,127,8
1,48,109,48
1,45,114,29
1,41,109,31
1,35,127,1
1,35,125,2
1,49,122,2
1,35,116,51
1,38,127,43
1,46,127,0
1,35,123,79
1,46,127,1
1,35,125,41
1,38,127,21
1,46,127,1
1,35,121,73
1,46,127,0
1,35,123,51
1,38,127,27
1,46,127,1
1,35,127,80
1,46,127,1
1,35,125,50
1,38,127,32
1,46,127,1
1,35,125,81
1,46,127,0
1,35,123,49
1,38,127,31
1,46,127,0
1,35,123,65
1,46,127,1
1,35,125,50
1,38,127,31
1,46,127,0
1,35,121,65
1,46,127,1
1,35,125,58
1,38,127,39
1,46,127,1
1,35,121,73
1,46,127,0
1,38,125,1
1,46,119,0
1,38,111,46
1,38,112,42
1,38,121,44
1,45,121,28
1,41,127,56
1,35,114,21
1,49,122,0
1,35,118,48
1,38,121,31
1,46,127,1
1,35,121,79
1,46,127,1
1,35,114,58
1,38,123,29
1,46,127,0
1,35,123,82
1,46,127,0
1,35,116,56
1,38,127,43
1,46,127,2
1,35,121,87
1,46,125,0
1,35,123,48
1,38,127,39
1,46,123,0
1,35,118,74
1,46,123,1
1,35,116,42
1,38,125,20
1,46,125,0
1,35,123,73
1,46,127,1
1,35,114,49
1,38,125,30
1,46,123,1
1,35,127,7
1,49,122,1
1,35,127,61
1,57,127,0
1,35,114,22
1,38,125,20
1,46,127,0
1,35,111,41
1,38,125,42
1,46,127,0
1,48,114,9
1,45,118,11
1,35,127,85
1,49,119,0
1,38,125,69
1,46,127,1
1,35,123,72
1,46,127,0
1,35,123,59
1,38,123,48
1,46,127,1
1,35,127,91
1,46,127,0
1,38,127,51
1,46,127,1
1,35,125,74
1,46,127,0
1,35,118,58
1,38,121,51
1,46,125,0
1,35,123,1
1,35,127,66
1,46,123,1
1,38,127,73
1,46,127,0
1,35,125,78
1,46,127,1
1,35,127,60
1,38,125,59
1,46,127,0
1,35,127,77
1,46,127,1
1,38,127,81
1,46,125,1
1,35,125,92
1,46,123,1
1,35,127,68
1,38,125,66
1,46,123,0
1,35,123,69
1,35,125,81
1,46,125,1
1,38,127,90
1,46,125,1
1,35,127,91
1,46,127,1
1,35,125,70
1,38,125,60
1,46,127,1
1,35,127,91
1,46,127,0
1,38,125,89
1,46,125,1
1,35,127,90
1,46,123,1
1,35,123,68
1,38,125,58
1,46,125,0
1,35,123,68
1,35,127,73
1,46,125,0
1,38,127,95
1,46,125,2
1,35,121,81
1,37,110,1
1,46,127,2
1,35,118,60
1,38,125,42
1,46,125,1
1,35,127,32
1,38,118,56
1,38,105,31
1,49,119,81
1,35,127,0
1,38,127,115
1,38,125,119
1,48,101,80
1,45,109,59
1,35,127,28
1,35,125,9
1,49,122,0
1,35,116,49
1,38,127,43
1,46,127,2
1,35,123,78
1,46,127,1
1,35,125,40
1,38,127,21
1,46,127,0
1,35,121,73
1,46,127,0
1,35,123,50
1,38,127,29
1,46,127,0
1,35,127,81
1,46,127,1
1,35,125,50
1,38,127,30
1,46,127,1
1,35,125,80
1,46,127,1
1,35,123,48
1,38,127,29
1,46,127,1
1,35,123,63
1,46,127,0
1,35,125,50
1,38,127,30
1,46,127,1
1,35,121,66
1,46,127,1
1,35,125,59
1,38,127,39
1,46,127,1
1,35,121,73
1,46,127,1
1,38,125,2
1,46,119,0
1,38,111,46
1,38,112,42
1,38,121,45
1,45,121,29
1,41,127,55
1,35,114,21
1,49,122,1
1,35,118,50
1,38,121,32
1,46,127,1
1,35,121,79
1,46,127,1
1,35,114,59
1,38,123,29
1,46,127,1
1,35,123,81
1,46,127,1
1,35,116,58
1,38,127,42
1,46,127,0
1,35,121,89
1,46,125,0
1,35,123,48
1,38,127,39
1,46,123,1
1,35,118,73
1,46,123,0
1,35,116,41
1,38,125,20
1,46,125,1
1,35,123,73
1,46,127,1
1,35,114,48
1,38,125,30
1,46,123,1
1,35,127,8
1,49,122,1
1,35,127,61
1,57,127,0
1,35,114,23
1,38,125,21
1,46,127,1
1,35,111,41
1,38,125,41
1,46,127,0
1,48,114,10
1,45,118,11
1,35,127,84
1,49,119,2
1,38,125,70
1,46,127,0
1,35,123,71
1,46,127,1
1,35,123,60
1,38,123,49
1,46,127,1
1,35,127,92
1,46,127,0
1,38,127,51
1,46,127,1
1,35,125,74
1,46,127,1
1,35,118,59
1,38,121,51
1,46,125,1
1,35,123,2
1,35,127,66
1,46,123,0
1,38,127,73
1,46,127,1
1,35,125,79
1,46,127,1
1,35,127,59
1,38,125,59
1,46,127,1
1,35,127,75
1,46,127,1
1,38,127,81
1,46,125,0
1,35,125,92
1,46,123,0
1,35,127,68
1,38,125,62
1,46,123,2
1,35,123,69
1,35,125,81
1,46,125,1
1,38,127,91
1,46,125,1
1,35,127,91
1,46,127,1
1,35,125,68
1,38,125,59
1,46,127,0
1,35,127,91
1,46,127,1
1,38,125,89
1,46,125,1
1,35,127,90
1,46,123,1
1,35,123,68
1,38,125,59
1,46,125,1
1,35,123,68
1,35,127,73
1,46,125,1
1,38,127,98
1,46,125,0
1,35,121,80
1,37,110,0
1,46,127,1
1,35,118,60
1,38,125,42
1,46,125,1
1,35,127,35
1,38,118,55
1,38,105,30
1,49,119,81
1,35,127,1
1,38,127,114
1,38,125,119
1,48,101,81
1,45,109,59
1,35,127,27
1,35,125,11
1,49,122,0
1,35,116,50
1,38,127,43
1,46,127,1
1,35,123,80
1,46,127,1
1,35,125,41
1,38,127,21
1,46,127,0
1,35,121,73
1,46,127,1
1,35,123,50
1,38,127,29
1,46,127,0
1,35,127,80
1,46,127,1
1,35,125,49
1,38,127,32
1,46,127,1
1,35,125,81
1,46,127,1
1,35,123,50
1,38,127,30
1,46,127,2
1,35,123,63
1,46,127,0
1,35,125,49
1,38,127,31
1,46,127,1
1,35,121,67
1,46,127,2
1,35,125,58
1,38,127,39
1,46,127,0
1,35,121,73
1,46,127,0
1,38,125,1
1,46,119,0
1,38,111,46
1,38,112,42
1,38,121,43
1,45,121,28
1,41,127,58
1,35,114,21
1,49,122,1
1,35,118,48
1,38,121,32
1,46,127,0
1,35,121,79
1,46,127,0
1,35,114,58
1,38,123,27
1,46,127,1
1,35,123,81
1,46,127,0
1,35,116,58
1,38,127,42
1,46,127,0
1,35,121,90
1,46,125,0
1,35,123,48
1,38,127,39
1,46,123,1
1,35,118,73
1,46,123,0
1,35,116,43
1,38,125,21
1,46,125,1
1,35,123,73
1,46,127,1
1,35,114,48
1,38,125,30
1,46,123,0
1,35,127,11
1,49,122,0
1,35,127,60
1,57,127,1
1,35,114,23
1,38,125,21
1,46,127,1
1,35,111,41
1,38,125,41
1,46,127,0
1,48,114,8
1,45,118,10
1,49,122,84
1,35,125,1
1,44,110,54
1,44,114,11
1,44,108,14
1,35,127,27
1,44,117,0
1,44,110,10
1,44,112,28
1,44,104,16
1,44,110,27
1,44,110,9
1,44,110,35
1,46,77,2
1,44,117,6
1,35,127,30
1,44,112,1
1,44,112,28
1,44,110,35
1,44,117,22
1,44,110,30
1,44,117,27
1,44,117,32
1,46,91,1
1,44,119,14
1,35,127,31
1,44,112,1
1,44,108,29
1,44,112,22
1,44,117,18
1,44,112,21
1,44,110,28
1,44,112,29
1,46,93,1
1,44,106,4
1,35,127,29
1,44,112,1
1,44,114,21
1,44,110,28
1,44,114,17
1,44,112,31
1,44,117,19
1,44,112,26
1,46,91,1
1,44,104,4
1,35,127,31
1,44,112,1
1,44,104,26
1,44,112,29
1,44,103,15
1,44,114,31
1,44,108,20
1,44,114,37
1,46,87,1
1,44,106,17
1,35,127,41
1,44,114,1
1,44,108,28
1,44,117,33
1,44,103,24
1,44,114,30
1,44,108,26
1,44,122,34
1,46,93,1
1,44,104,13
1,35,127,31
1,44,117,1
1,44,106,30
1,44,117,38
1,44,110,22
1,44,114,40
1,44,114,26
1,44,114,29
1,46,96,1
1,44,101,18
1,35,127,21
1,44,119,1
1,44,119,19
1,44,114,23
1,44,106,14
1,44,117,19
1,44,103,14
1,44,114,22
1,46,106,1
1,44,110,14
1,35,127,21
1,44,114,0
1,44,114,21
1,44,114,28
1,44,103,16
1,44,119,21
1,44,104,12
1,44,117,23
1,46,108,1
1,44,99,17
1,35,127,22
1,44,114,0
1,44,108,20
1,44,117,29
1,44,112,17
1,44,117,31
1,44,110,10
1,44,114,32
1,46,108,1
1,44,110,16
1,35,127,30
1,44,114,1
1,44,114,21
1,44,112,28
1,44,112,19
1,44,112,21
1,44,110,1
1,44,114,11
1,46,106,1
1,44,106,16
1,35,127,21
1,44,112,1
1,44,103,19
1,44,117,29
1,44,108,15
1,44,114,19
1,44,114,27
1,44,83,18
1,46,80,1
1,44,108,45
1,35,123,31
1,44,117,0
1,44,110,42
1,44,98,29
1,44,108,39
1,44,119,21
1,44,110,29
1,44,96,23
1,46,80,1
1,44,103,33
1,35,123,20
1,44,122,0
1,44,104,30
1,44,91,35
1,44,112,35
1,44,122,27
1,44,104,27
1,44,106,28
1,46,80,1
1,44,110,44
1,35,123,15
1,44,119,1
1,44,101,21
1,44,106,22
1,44,106,36
1,44,108,20
1,44,95,28
1,44,91,20
1,46,80,1
1,44,110,36
1,35,125,20
1,44,114,1
1,44,104,20
1,44,103,23
1,44,103,37
1,44,122,21
1,44,93,20
1,44,83,22
1,46,80,1
1,44,104,37
1,35,123,19
1,44,112,1
1,44,110,21
1,44,103,11
1,44,112,24
1,44,119,9
1,44,101,12
1,44,104,11
1,46,80,0
1,44,103,18
1,35,125,12
1,44,114,0
1,44,91,20
1,44,98,19
1,44,108,30
1,44,119,20
1,44,106,21
1,44,110,12
1,46,80,0
1,44,110,26
1,35,121,19
1,44,108,1
1,44,93,18
1,44,104,18
1,44,106,35
1,44,117,18
1,44,93,20
1,44,87,28
1,46,80,1
1,44,104,39
1,35,123,20
1,44,119,1
1,44,101,26
1,44,101,29
1,44,104,33
1,44,108,19
1,44,95,21
1,44,103,22
1,46,80,1
1,44,112,27
1,35,121,11
1,44,117,1
1,44,106,18
1,44,114,17
1,44,92,14
