track,note,velocity,time
3,71,114,38624
3,76,114,0
3,71,0,2
3,76,0,4
3,71,110,2
3,79,114,4
3,79,0,42
3,71,0,16
3,76,126,16
3,71,93,2
3,71,0,2
3,76,0,2
3,74,119,4
3,74,0,20
3,76,119,6
3,74,114,58
3,76,0,2
3,74,0,44
3,71,102,18
3,71,0,42
3,69,88,12
3,69,0,38
3,71,126,24
3,69,119,40
3,71,0,2
3,69,0,118
3,71,111,6
3,71,0,62
3,67,87,8
3,67,0,122
3,64,87,14
3,64,0,34
3,67,91,26
3,67,0,88
3,64,127,24
3,64,0,6
3,62,86,14
3,62,0,50
3,64,114,8
3,64,0,42
3,67,119,16
3,67,0,48
3,64,110,6
3,64,0,48
3,69,90,18
3,69,0,52
3,67,110,20
3,67,0,102
3,64,126,16
3,64,0,336
3,64,102,70
3,64,0,50
3,62,90,16
3,62,0,44
3,64,114,6
3,64,0,42
3,67,126,16
3,64,127,78
3,67,0,2
3,64,0,108
3,67,127,18
3,69,110,252
3,67,0,10
3,69,0,88
3,67,95,90
3,64,114,68
3,67,0,16
3,64,0,30
3,67,119,14
3,67,0,50
3,64,119,6
3,64,0,114
3,62,95,24
3,62,0,44
3,64,127,18
3,64,0,2
3,64,126,6
3,64,0,182
3,62,119,0
3,62,0,114
3,59,98,16
3,59,0,50
3,62,114,12
3,62,0,178
3,59,102,12
3,59,0,122
3,62,119,4
3,62,0,62
3,66,118,10
3,66,0,100
3,64,126,26
3,64,0,116
3,62,119,10
3,62,0,108
3,64,119,12
3,62,119,128
3,64,0,8
3,62,0,98
3,59,88,16
3,59,0,96
3,57,119,12
3,57,0,112
3,57,90,44
3,57,0,50
3,55,95,20
3,55,0,50
3,57,114,8
3,57,0,46
3,60,126,14
3,60,0,202
3,60,80,0
3,60,0,46
3,57,102,28
3,57,0,106
3,55,83,14
3,55,0,56
3,57,114,16
3,57,0,94
3,57,90,32
3,57,0,44
3,55,90,22
3,55,0,56
3,57,114,10
3,57,0,44
3,60,119,8
3,60,0,162
3,60,68,22
3,57,86,50
3,60,0,12
3,57,0,112
3,55,95,16
3,55,0,46
3,57,119,16
3,57,0,96
3,57,98,36
3,57,0,48
3,55,80,18
3,55,0,46
3,57,102,6
3,57,0,44
3,60,126,12
3,60,0,4
3,60,83,2
3,57,110,10
3,60,0,2
3,57,0,114
3,55,102,16
3,55,0,54
3,57,119,6
3,57,0,104
3,57,98,32
3,57,0,50
3,55,86,18
3,55,0,52
3,57,102,0
3,60,119,54
3,57,0,4
3,60,0,184
3,60,78,24
3,57,102,50
3,60,0,4
3,57,0,108
3,55,98,16
3,55,0,50
3,57,126,14
3,57,0,96
3,57,90,28
3,57,0,60
3,55,93,18
3,55,0,48
3,57,114,4
3,57,0,56
3,60,127,4
3,60,0,146
3,57,95,10
3,57,0,40
3,60,114,16
3,60,0,48
3,62,83,6
3,62,0,34
3,57,90,12
3,57,0,40
3,60,110,14
3,60,0,50
3,62,78,12
3,64,93,0
3,64,0,46
3,62,0,8
3,62,50,42
3,62,0,56
3,64,126,26
3,62,114,70
3,64,0,8
3,62,0,92
3,60,114,12
3,60,0,54
3,57,106,16
3,57,0,106
3,60,114,8
3,60,0,56
3,57,110,14
3,57,0,38
3,61,70,28
3,61,0,8
3,55,114,56
3,55,0,126
3,57,106,48
3,57,0,82
3,60,119,36
3,60,0,78
3,62,114,38
3,62,0,94
3,64,98,28
3,64,0,78
3,67,126,34
3,67,0,92
3,64,102,22
3,64,0,54
3,69,126,46
3,69,0,60
3,69,126,54
3,69,0,70
3,67,127,32
3,67,0,32
3,64,110,168
3,64,0,40
3,67,114,18
3,67,0,48
3,69,114,18
3,69,0,54
3,64,98,10
3,64,0,50
3,67,114,18
3,67,0,46
3,69,114,14
3,69,0,54
3,64,98,16
3,64,0,44
3,67,119,16
3,67,0,44
3,69,106,22
3,69,0,46
3,64,95,16
3,64,0,58
3,67,114,18
3,67,0,52
3,69,106,2
3,69,0,50
3,72,106,22
3,72,0,54
3,69,110,10
3,69,0,46
3,67,119,14
3,67,0,42
3,69,119,14
3,69,0,126
3,64,98,16
3,64,0,40
3,67,106,16
3,67,0,48
3,69,119,14
3,69,0,50
3,67,114,14
3,67,0,56
3,64,98,20
3,64,0,98
3,67,90,22
3,67,0,52
3,64,106,16
3,67,106,198
3,64,0,10
3,67,0,94
3,69,119,20
3,69,0,48
3,72,119,30
3,72,0,166
3,69,126,0
3,69,0,130
3,67,114,12
3,67,0,44
3,69,119,16
3,69,0,58
3,67,126,8
3,67,0,36
3,64,80,20
3,64,0,56
3,67,95,12
3,67,0,106
3,69,119,14
3,69,0,2
3,71,114,18514
3,76,114,0
3,71,0,2
3,76,0,4
3,71,110,2
3,79,114,2
3,79,0,42
3,71,0,18
3,76,126,16
3,71,93,4
3,71,0,2
3,76,0,4
3,74,119,4
3,74,0,20
3,76,119,6
3,74,114,58
3,76,0,2
3,74,0,42
3,71,102,20
3,71,0,42
3,69,88,12
3,69,0,38
3,71,126,24
3,69,119,40
3,71,0,2
3,69,0,118
3,71,111,6
3,71,0,60
3,67,87,10
3,67,0,120
3,64,87,16
3,64,0,34
3,67,91,26
3,67,0,88
3,64,127,24
3,64,0,8
3,62,86,14
3,62,0,50
3,64,114,10
3,64,0,40
3,67,119,16
3,67,0,48
3,64,110,6
3,64,0,50
3,69,90,16
3,69,0,52
3,67,110,20
3,67,0,102
3,64,126,16
3,64,0,336
3,64,102,70
3,64,0,50
3,62,90,16
3,62,0,44
3,64,114,4
3,64,0,46
3,67,126,14
3,67,0,80
3,64,127,0
3,64,0,108
3,67,127,20
3,69,110,250
3,67,0,12
3,69,0,86
3,67,95,88
3,64,114,68
3,67,0,18
3,64,0,32
3,67,119,12
3,67,0,50
3,64,119,6
3,64,0,114
3,62,95,24
3,62,0,44
3,64,127,18
3,64,0,2
3,64,126,6
3,64,0,182
3,62,119,0
3,62,0,114
3,59,98,16
3,59,0,50
3,62,114,12
3,62,0,178
3,59,102,12
3,59,0,122
3,62,119,4
3,62,0,62
3,66,118,8
3,66,0,102
3,64,126,24
3,64,0,118
3,62,119,10
3,62,0,110
3,64,119,10
3,62,119,128
3,64,0,8
3,62,0,98
3,59,88,16
3,59,0,96
3,57,119,12
3,57,0,110
3,57,90,46
3,57,0,48
3,55,95,22
3,55,0,50
3,57,114,8
3,57,0,46
3,60,126,14
3,60,0,202
3,60,80,0
3,60,0,46
3,57,102,28
3,57,0,108
3,55,83,12
3,55,0,58
3,59,114,12
3,59,0,96
3,59,90,32
3,59,0,44
3,57,90,22
3,57,0,56
3,59,114,8
3,59,0,46
3,62,119,8
3,62,0,162
3,62,68,22
3,59,86,50
3,62,0,10
3,59,0,114
3,57,95,16
3,57,0,46
3,60,119,16
3,60,0,96
3,60,98,36
3,60,0,48
3,59,80,20
3,59,0,44
3,60,102,6
3,60,0,44
3,64,126,12
3,64,0,4
3,64,83,2
3,60,110,8
3,64,0,4
3,60,0,114
3,59,102,14
3,59,0,56
3,60,119,6
3,60,0,104
3,62,98,30
3,62,0,52
3,60,86,18
3,60,0,52
3,62,102,0
3,66,119,54
3,62,0,4
3,66,0,186
3,66,78,22
3,62,102,50
3,66,0,4
3,62,0,110
3,60,98,14
3,60,0,50
3,62,126,14
3,62,0,96
3,64,90,28
3,64,0,60
3,62,93,16
3,62,0,50
3,64,114,4
3,64,0,56
3,67,127,4
3,67,0,146
3,64,95,10
3,64,0,40
3,67,114,16
3,67,0,48
3,69,83,6
3,69,0,34
3,64,90,10
3,64,0,42
3,67,110,14
3,67,0,52
3,69,78,10
3,71,93,0
3,71,0,46
3,69,0,8
3,69,50,42
3,69,0,58
3,71,126,24
3,69,114,72
3,71,0,6
3,69,0,94
3,67,114,10
3,67,0,54
3,64,106,16
3,64,0,106
3,67,114,8
3,67,0,56
3,64,110,14
3,64,0,38
3,68,70,28
3,68,0,8
3,62,114,56
3,62,0,126
3,64,106,46
3,64,0,10
3,67,119,36
3,67,0,78
3,69,114,26
3,69,0,34
3,71,98,6
3,71,0,32
3,74,126,32
3,74,0,4
3,71,102,22
3,71,0,10
3,76,126,36
3,76,0,4
3,76,126,20
3,76,0,36
3,74,127,22
3,74,0,30
3,71,110,8
3,71,0,42
3,74,114,14
3,74,0,4
3,76,114,16
3,76,0,4
3,71,98,10
3,71,0,42
3,74,114,16
3,74,0,22
3,76,114,10
3,76,0,6
3,71,98,16
3,71,0,10
3,74,119,4
3,74,0,38
3,76,106,2
3,76,0,22
3,71,95,6
3,71,0,18
3,74,114,18
3,74,0,6
3,76,106,2
3,76,0,40
3,79,106,4
3,79,0,10
3,76,110,4
3,76,0,2
3,74,119,6
3,74,0,10
3,76,119,12
3,76,0,8
3,71,98,12
3,71,0,8
3,74,106,6
3,74,0,6
3,76,119,4
3,76,0,20
3,74,114,4
3,74,0,10
3,71,98,20
3,71,0,36
3,74,90,22
3,74,0,52
3,71,106,16
3,71,0,208
4,40,127,376
4,40,0,40
4,40,127,24
4,40,0,30
4,40,127,34
4,40,0,32
4,40,127,32
4,40,0,40
4,40,127,24
4,40,0,30
4,40,127,34
4,40,0,52
4,38,127,12
4,38,0,52
4,38,127,12
4,38,0,44
4,38,127,20
4,38,0,36
4,38,127,28
4,38,0,36
4,38,127,28
4,38,0,32
4,38,127,32
4,38,0,42
4,35,127,22
4,35,0,46
4,35,127,18
4,35,0,38
4,35,127,26
4,35,0,30
4,35,127,34
4,35,0,38
4,35,127,26
4,35,0,36
4,35,127,28
4,35,0,44
4,31,127,20
4,31,0,40
4,31,127,24
4,31,0,36
4,31,127,28
4,31,0,36
4,31,127,28
4,31,0,40
4,31,127,24
4,31,0,40
4,31,127,24
4,31,0,40
4,40,127,24
4,40,0,148
4,43,127,44
4,43,0,108
4,40,127,20
4,40,0,42
4,38,127,22
4,38,0,166
4,35,127,26
4,35,0,124
4,38,127,4
4,38,0,54
4,40,127,10
4,40,0,168
4,43,127,24
4,43,0,118
4,40,127,10
4,40,0,44
4,45,127,20
4,45,0,124
4,43,127,4
4,43,0,42
4,40,127,22
4,40,0,144
4,38,127,48
4,38,0,110
4,40,127,18
4,40,0,88
4,43,127,552
4,43,0,102
4,40,127,26
4,40,0,100
4,40,127,540
4,40,0,156
4,43,127,36
4,43,0,120
4,40,127,8
4,40,0,54
4,38,127,10
4,38,0,158
4,35,127,34
4,38,127,128
4,35,0,2
4,38,0,58
4,40,127,4
4,40,0,168
4,43,127,26
4,43,0,112
4,40,127,14
4,40,0,40
4,45,127,24
4,45,0,124
4,43,127,4
4,43,0,44
4,40,127,20
4,40,0,136
4,38,127,56
4,38,0,106
4,40,127,22
4,40,0,94
4,43,127,546
4,43,0,128
4,40,127,0
4,40,0,116
4,28,127,524
4,28,0,96
4,28,121,32
4,28,0,48
4,28,127,16
4,28,0,96
4,28,127,32
4,28,0,48
4,28,127,18
4,28,0,94
4,28,127,32
4,28,0,48
4,28,127,16
4,28,0,96
4,28,127,32
4,28,0,46
4,28,127,18
4,28,0,96
4,28,127,32
4,28,0,46
4,28,127,20
4,28,0,94
4,28,127,32
4,28,0,46
4,28,127,20
4,28,0,94
4,28,127,32
4,28,0,46
4,28,127,20
4,28,0,94
4,28,127,32
4,28,0,46
4,28,127,18
4,28,0,96
4,28,127,32
4,28,0,46
4,28,127,20
4,28,0,94
4,28,127,32
4,28,0,46
4,28,127,20
4,28,0,94
4,28,127,32
4,28,0,48
4,28,127,16
4,28,0,96
4,28,127,32
4,28,0,48
4,28,127,16
4,28,0,96
4,28,127,32
4,28,0,48
4,28,127,18
4,28,0,94
4,28,127,32
4,28,0,48
4,28,127,18
4,28,0,94
4,28,127,32
4,28,0,48
4,28,127,16
4,28,0,94
4,28,127,34
4,28,0,48
4,28,127,16
4,28,0,94
4,28,127,34
4,28,0,48
4,28,127,18
4,28,0,92
4,28,127,34
4,28,0,48
4,28,127,18
4,28,0,92
4,28,127,34
4,28,0,48
4,28,127,16
4,28,0,94
4,28,127,34
4,28,0,48
4,28,127,18
4,28,0,92
4,28,127,34
4,28,0,48
4,28,127,18
4,28,0,46
4,28,127,80
4,28,0,48
4,28,127,16
4,28,0,96
4,28,127,32
4,28,0,48
4,28,127,16
4,28,0,96
4,28,127,32
4,28,0,48
4,40,127,16
4,40,0,190
4,38,127,4
4,38,0,106
4,35,127,20
4,38,127,66
4,35,0,2
4,38,0,164
4,35,127,26
4,38,127,128
4,35,0,6
4,38,0,54
4,42,127,4
4,42,0,122
4,40,127,6
4,40,0,114
4,38,127,14
4,38,0,112
4,40,127,16
4,40,0,120
4,38,127,8
4,38,0,110
4,35,127,18
4,35,0,106
4,33,127,22
4,33,0,192
4,33,127,0
4,33,0,94
4,33,127,32
4,33,0,58
4,33,127,6
4,33,0,124
4,33,127,4
4,33,0,58
4,33,127,6
4,33,0,112
4,33,127,16
4,33,0,52
4,31,127,12
4,31,0,104
4,31,127,24
4,31,0,52
4,31,127,12
4,31,0,110
4,31,127,18
4,31,0,48
4,31,127,18
4,31,0,112
4,31,127,14
4,31,0,60
4,31,127,4
4,31,0,90
4,31,127,38
4,31,0,52
4,28,127,14
4,28,0,114
4,28,127,12
4,28,0,54
4,28,127,10
4,28,0,112
4,28,127,16
4,28,0,54
4,28,127,10
4,28,0,110
4,28,127,18
4,28,0,62
4,28,127,2
4,28,0,112
4,28,127,16
4,28,0,58
4,28,127,6
4,28,0,96
4,28,127,32
4,28,0,54
4,28,127,10
4,28,0,110
4,28,127,18
4,28,0,54
4,28,127,10
4,28,0,106
4,28,127,22
4,28,0,60
4,28,127,4
4,28,0,176
4,33,127,16
4,33,0,106
4,33,127,22
4,33,0,60
4,33,127,6
4,33,0,118
4,33,127,8
4,33,0,52
4,33,127,14
4,33,0,104
4,33,127,22
4,33,0,64
4,33,127,2
4,33,0,106
4,33,127,20
4,33,0,50
4,31,127,14
4,31,0,106
4,31,127,22
4,31,0,50
4,31,127,16
4,31,0,102
4,31,127,24
4,31,0,50
4,31,127,16
4,31,0,104
4,31,127,22
4,31,0,64
4,31,127,2
4,31,0,84
4,31,127,42
4,35,127,66
4,31,0,4
4,35,0,1464
4,40,127,66
4,40,0,150
4,43,127,42
4,43,0,108
4,40,127,20
4,40,0,42
4,38,127,22
4,38,0,166
4,35,127,26
4,35,0,124
4,38,127,4
4,38,0,54
4,40,127,10
4,40,0,168
4,43,127,24
4,43,0,118
4,40,127,10
4,40,0,42
4,45,127,22
4,45,0,124
4,43,127,4
4,43,0,42
4,40,127,22
4,40,0,144
4,38,127,48
4,38,0,110
4,40,127,18
4,40,0,88
4,43,127,552
4,43,0,104
4,40,127,24
4,40,0,102
4,40,127,538
4,40,0,156
4,43,127,36
4,43,0,120
4,40,127,8
4,40,0,54
4,38,127,10
4,38,0,158
4,35,127,34
4,38,127,128
4,35,0,2
4,38,0,56
4,40,127,6
4,40,0,168
4,43,127,26
4,43,0,112
4,40,127,14
4,40,0,40
4,45,127,24
4,45,0,124
4,43,127,4
4,43,0,44
4,40,127,20
4,40,0,136
4,38,127,56
4,38,0,106
4,40,127,22
4,40,0,94
4,43,127,546
4,43,0,128
4,40,127,0
4,40,0,116
4,28,127,526
4,28,0,94
4,28,121,32
4,28,0,46
4,28,127,20
4,28,0,94
4,28,127,34
4,28,0,44
4,28,127,20
4,28,0,94
4,28,127,32
4,28,0,46
4,28,127,18
4,28,0,96
4,28,127,32
4,28,0,46
4,28,127,18
4,28,0,96
4,28,127,32
4,28,0,46
4,28,127,20
4,28,0,94
4,28,127,32
4,28,0,46
4,28,127,20
4,28,0,94
4,28,127,32
4,28,0,48
4,28,127,16
4,28,0,96
4,28,127,32
4,28,0,48
4,28,127,16
4,28,0,96
4,28,127,32
4,28,0,48
4,28,127,18
4,28,0,94
4,28,127,32
4,28,0,48
4,28,127,18
4,28,0,92
4,28,127,34
4,28,0,48
4,28,127,16
4,28,0,94
4,28,127,34
4,28,0,48
4,28,127,18
4,28,0,92
