track,note,velocity,time
1,71,114,38624
1,76,114,0
1,71,0,2
1,76,0,4
1,71,110,2
1,79,114,4
1,79,0,42
1,71,0,16
1,76,126,16
1,71,93,2
1,71,0,2
1,76,0,2
1,74,119,4
1,74,0,20
1,76,119,6
1,74,114,58
1,76,0,2
1,74,0,44
1,71,102,18
1,71,0,42
1,69,88,12
1,69,0,38
1,71,126,24
1,69,119,40
1,71,0,2
1,69,0,118
1,71,111,6
1,71,0,62
1,67,87,8
1,67,0,122
1,64,87,14
1,64,0,34
1,67,91,26
1,67,0,88
1,64,127,24
1,64,0,6
1,62,86,14
1,62,0,50
1,64,114,8
1,64,0,42
1,67,119,16
1,67,0,48
1,64,110,6
1,64,0,48
1,69,90,18
1,69,0,52
1,67,110,20
1,67,0,102
1,64,126,16
1,64,0,336
1,64,102,70
1,64,0,50
1,62,90,16
1,62,0,44
1,64,114,6
1,64,0,42
1,67,126,16
1,64,127,78
1,67,0,2
1,64,0,108
1,67,127,18
1,69,110,252
1,67,0,10
1,69,0,88
1,67,95,90
1,64,114,68
1,67,0,16
1,64,0,30
1,67,119,14
1,67,0,50
1,64,119,6
1,64,0,114
1,62,95,24
1,62,0,44
1,64,127,18
1,64,0,2
1,64,126,6
1,64,0,182
1,62,119,0
1,62,0,114
1,59,98,16
1,59,0,50
1,62,114,12
1,62,0,178
1,59,102,12
1,59,0,122
1,62,119,4
1,62,0,62
1,66,118,10
1,66,0,100
1,64,126,26
1,64,0,116
1,62,119,10
1,62,0,108
1,64,119,12
1,62,119,128
1,64,0,8
1,62,0,98
1,59,88,16
1,59,0,96
1,57,119,12
1,57,0,112
1,57,90,44
1,57,0,50
1,55,95,20
1,55,0,50
1,57,114,8
1,57,0,46
1,60,126,14
1,60,0,202
1,60,80,0
1,60,0,46
1,57,102,28
1,57,0,106
1,55,83,14
1,55,0,56
1,57,114,16
1,57,0,94
1,57,90,32
1,57,0,44
1,55,90,22
1,55,0,56
1,57,114,10
1,57,0,44
1,60,119,8
1,60,0,162
1,60,68,22
1,57,86,50
1,60,0,12
1,57,0,112
1,55,95,16
1,55,0,46
1,57,119,16
1,57,0,96
1,57,98,36
1,57,0,48
1,55,80,18
1,55,0,46
1,57,102,6
1,57,0,44
1,60,126,12
1,60,0,4
1,60,83,2
1,57,110,10
1,60,0,2
1,57,0,114
1,55,102,16
1,55,0,54
1,57,119,6
1,57,0,104
1,57,98,32
1,57,0,50
1,55,86,18
1,55,0,52
1,57,102,0
1,60,119,54
1,57,0,4
1,60,0,184
1,60,78,24
1,57,102,50
1,60,0,4
1,57,0,108
1,55,98,16
1,55,0,50
1,57,126,14
1,57,0,96
1,57,90,28
1,57,0,60
1,55,93,18
1,55,0,48
1,57,114,4
1,57,0,56
1,60,127,4
1,60,0,146
1,57,95,10
1,57,0,40
1,60,114,16
1,60,0,48
1,62,83,6
1,62,0,34
1,57,90,12
1,57,0,40
1,60,110,14
1,60,0,50
1,62,78,12
1,64,93,0
1,64,0,46
1,62,0,8
1,62,50,42
1,62,0,56
1,64,126,26
1,62,114,70
1,64,0,8
1,62,0,92
1,60,114,12
1,60,0,54
1,57,106,16
1,57,0,106
1,60,114,8
1,60,0,56
1,57,110,14
1,57,0,38
1,61,70,28
1,61,0,8
1,55,114,56
1,55,0,126
1,57,106,48
1,57,0,82
1,60,119,36
1,60,0,78
1,62,114,38
1,62,0,94
1,64,98,28
1,64,0,78
1,67,126,34
1,67,0,92
1,64,102,22
1,64,0,54
1,69,126,46
1,69,0,60
1,69,126,54
1,69,0,70
1,67,127,32
1,67,0,32
1,64,110,168
1,64,0,40
1,67,114,18
1,67,0,48
1,69,114,18
1,69,0,54
1,64,98,10
1,64,0,50
1,67,114,18
1,67,0,46
1,69,114,14
1,69,0,54
1,64,98,16
1,64,0,44
1,67,119,16
1,67,0,44
1,69,106,22
1,69,0,46
1,64,95,16
1,64,0,58
1,67,114,18
1,67,0,52
1,69,106,2
1,69,0,50
1,72,106,22
1,72,0,54
1,69,110,10
1,69,0,46
1,67,119,14
1,67,0,42
1,69,119,14
1,69,0,126
1,64,98,16
1,64,0,40
1,67,106,16
1,67,0,48
1,69,119,14
1,69,0,50
1,67,114,14
1,67,0,56
1,64,98,20
1,64,0,98
1,67,90,22
1,67,0,52
1,64,106,16
1,67,106,198
1,64,0,10
1,67,0,94
1,69,119,20
1,69,0,48
1,72,119,30
1,72,0,166
1,69,126,0
1,69,0,130
1,67,114,12
1,67,0,44
1,69,119,16
1,69,0,58
1,67,126,8
1,67,0,36
1,64,80,20
1,64,0,56
1,67,95,12
1,67,0,106
1,69,119,14
1,69,0,2
1,71,114,18514
1,76,114,0
1,71,0,2
1,76,0,4
1,71,110,2
1,79,114,2
1,79,0,42
1,71,0,18
1,76,126,16
1,71,93,4
1,71,0,2
1,76,0,4
1,74,119,4
1,74,0,20
1,76,119,6
1,74,114,58
1,76,0,2
1,74,0,42
1,71,102,20
1,71,0,42
1,69,88,12
1,69,0,38
1,71,126,24
1,69,119,40
1,71,0,2
1,69,0,118
1,71,111,6
1,71,0,60
1,67,87,10
1,67,0,120
1,64,87,16
1,64,0,34
1,67,91,26
1,67,0,88
1,64,127,24
1,64,0,8
1,62,86,14
1,62,0,50
1,64,114,10
1,64,0,40
1,67,119,16
1,67,0,48
1,64,110,6
1,64,0,50
1,69,90,16
1,69,0,52
1,67,110,20
1,67,0,102
1,64,126,16
1,64,0,336
1,64,102,70
1,64,0,50
1,62,90,16
1,62,0,44
1,64,114,4
1,64,0,46
1,67,126,14
1,67,0,80
1,64,127,0
1,64,0,108
1,67,127,20
1,69,110,250
1,67,0,12
1,69,0,86
1,67,95,88
1,64,114,68
1,67,0,18
1,64,0,32
1,67,119,12
1,67,0,50
1,64,119,6
1,64,0,114
1,62,95,24
1,62,0,44
1,64,127,18
1,64,0,2
1,64,126,6
1,64,0,182
1,62,119,0
1,62,0,114
1,59,98,16
1,59,0,50
1,62,114,12
1,62,0,178
1,59,102,12
1,59,0,122
1,62,119,4
1,62,0,62
1,66,118,8
1,66,0,102
1,64,126,24
1,64,0,118
1,62,119,10
1,62,0,110
1,64,119,10
1,62,119,128
1,64,0,8
1,62,0,98
1,59,88,16
1,59,0,96
1,57,119,12
1,57,0,110
1,57,90,46
1,57,0,48
1,55,95,22
1,55,0,50
1,57,114,8
1,57,0,46
1,60,126,14
1,60,0,202
1,60,80,0
1,60,0,46
1,57,102,28
1,57,0,108
1,55,83,12
1,55,0,58
1,59,114,12
1,59,0,96
1,59,90,32
1,59,0,44
1,57,90,22
1,57,0,56
1,59,114,8
1,59,0,46
1,62,119,8
1,62,0,162
1,62,68,22
1,59,86,50
1,62,0,10
1,59,0,114
1,57,95,16
1,57,0,46
1,60,119,16
1,60,0,96
1,60,98,36
1,60,0,48
1,59,80,20
1,59,0,44
1,60,102,6
1,60,0,44
1,64,126,12
1,64,0,4
1,64,83,2
1,60,110,8
1,64,0,4
1,60,0,114
1,59,102,14
1,59,0,56
1,60,119,6
1,60,0,104
1,62,98,30
1,62,0,52
1,60,86,18
1,60,0,52
1,62,102,0
1,66,119,54
1,62,0,4
1,66,0,186
1,66,78,22
1,62,102,50
1,66,0,4
1,62,0,110
1,60,98,14
1,60,0,50
1,62,126,14
1,62,0,96
1,64,90,28
1,64,0,60
1,62,93,16
1,62,0,50
1,64,114,4
1,64,0,56
1,67,127,4
1,67,0,146
1,64,95,10
1,64,0,40
1,67,114,16
1,67,0,48
1,69,83,6
1,69,0,34
1,64,90,10
1,64,0,42
1,67,110,14
1,67,0,52
1,69,78,10
1,71,93,0
1,71,0,46
1,69,0,8
1,69,50,42
1,69,0,58
1,71,126,24
1,69,114,72
1,71,0,6
1,69,0,94
1,67,114,10
1,67,0,54
1,64,106,16
1,64,0,106
1,67,114,8
1,67,0,56
1,64,110,14
1,64,0,38
1,68,70,28
1,68,0,8
1,62,114,56
1,62,0,126
1,64,106,46
1,64,0,10
1,67,119,36
1,67,0,78
1,69,114,26
1,69,0,34
1,71,98,6
1,71,0,32
1,74,126,32
1,74,0,4
1,71,102,22
1,71,0,10
1,76,126,36
1,76,0,4
1,76,126,20
1,76,0,36
1,74,127,22
1,74,0,30
1,71,110,8
1,71,0,42
1,74,114,14
1,74,0,4
1,76,114,16
1,76,0,4
1,71,98,10
1,71,0,42
1,74,114,16
1,74,0,22
1,76,114,10
1,76,0,6
1,71,98,16
1,71,0,10
1,74,119,4
1,74,0,38
1,76,106,2
1,76,0,22
1,71,95,6
1,71,0,18
1,74,114,18
1,74,0,6
1,76,106,2
1,76,0,40
1,79,106,4
1,79,0,10
1,76,110,4
1,76,0,2
1,74,119,6
1,74,0,10
1,76,119,12
1,76,0,8
1,71,98,12
1,71,0,8
1,74,106,6
1,74,0,6
1,76,119,4
1,76,0,20
1,74,114,4
1,74,0,10
1,71,98,20
1,71,0,36
1,74,90,22
1,74,0,52
1,71,106,16
1,71,0,208
2,40,127,376
2,40,0,40
2,40,127,24
2,40,0,30
2,40,127,34
2,40,0,32
2,40,127,32
2,40,0,40
2,40,127,24
2,40,0,30
2,40,127,34
2,40,0,52
2,38,127,12
2,38,0,52
2,38,127,12
2,38,0,44
2,38,127,20
2,38,0,36
2,38,127,28
2,38,0,36
2,38,127,28
2,38,0,32
2,38,127,32
2,38,0,42
2,35,127,22
2,35,0,46
2,35,127,18
2,35,0,38
2,35,127,26
2,35,0,30
2,35,127,34
2,35,0,38
2,35,127,26
2,35,0,36
2,35,127,28
2,35,0,44
2,31,127,20
2,31,0,40
2,31,127,24
2,31,0,36
2,31,127,28
2,31,0,36
2,31,127,28
2,31,0,40
2,31,127,24
2,31,0,40
2,31,127,24
2,31,0,40
2,40,127,24
2,40,0,148
2,43,127,44
2,43,0,108
2,40,127,20
2,40,0,42
2,38,127,22
2,38,0,166
2,35,127,26
2,35,0,124
2,38,127,4
2,38,0,54
2,40,127,10
2,40,0,168
2,43,127,24
2,43,0,118
2,40,127,10
2,40,0,44
2,45,127,20
2,45,0,124
2,43,127,4
2,43,0,42
2,40,127,22
2,40,0,144
2,38,127,48
2,38,0,110
2,40,127,18
2,40,0,88
2,43,127,552
2,43,0,102
2,40,127,26
2,40,0,100
2,40,127,540
2,40,0,156
2,43,127,36
2,43,0,120
2,40,127,8
2,40,0,54
2,38,127,10
2,38,0,158
2,35,127,34
2,38,127,128
2,35,0,2
2,38,0,58
2,40,127,4
2,40,0,168
2,43,127,26
2,43,0,112
2,40,127,14
2,40,0,40
2,45,127,24
2,45,0,124
2,43,127,4
2,43,0,44
2,40,127,20
2,40,0,136
2,38,127,56
2,38,0,106
2,40,127,22
2,40,0,94
2,43,127,546
2,43,0,128
2,40,127,0
2,40,0,116
2,28,127,524
2,28,0,96
2,28,121,32
2,28,0,48
2,28,127,16
2,28,0,96
2,28,127,32
2,28,0,48
2,28,127,18
2,28,0,94
2,28,127,32
2,28,0,48
2,28,127,16
2,28,0,96
2,28,127,32
2,28,0,46
2,28,127,18
2,28,0,96
2,28,127,32
2,28,0,46
2,28,127,20
2,28,0,94
2,28,127,32
2,28,0,46
2,28,127,20
2,28,0,94
2,28,127,32
2,28,0,46
2,28,127,20
2,28,0,94
2,28,127,32
2,28,0,46
2,28,127,18
2,28,0,96
2,28,127,32
2,28,0,46
2,28,127,20
2,28,0,94
2,28,127,32
2,28,0,46
2,28,127,20
2,28,0,94
2,28,127,32
2,28,0,48
2,28,127,16
2,28,0,96
2,28,127,32
2,28,0,48
2,28,127,16
2,28,0,96
2,28,127,32
2,28,0,48
2,28,127,18
2,28,0,94
2,28,127,32
2,28,0,48
2,28,127,18
2,28,0,94
2,28,127,32
2,28,0,48
2,28,127,16
2,28,0,94
2,28,127,34
2,28,0,48
2,28,127,16
2,28,0,94
2,28,127,34
2,28,0,48
2,28,127,18
2,28,0,92
2,28,127,34
2,28,0,48
2,28,127,18
2,28,0,92
2,28,127,34
2,28,0,48
2,28,127,16
2,28,0,94
2,28,127,34
2,28,0,48
2,28,127,18
2,28,0,92
2,28,127,34
2,28,0,48
2,28,127,18
2,28,0,46
2,28,127,80
2,28,0,48
2,28,127,16
2,28,0,96
2,28,127,32
2,28,0,48
2,28,127,16
2,28,0,96
2,28,127,32
2,28,0,48
2,40,127,16
2,40,0,190
2,38,127,4
2,38,0,106
2,35,127,20
2,38,127,66
2,35,0,2
2,38,0,164
2,35,127,26
2,38,127,128
2,35,0,6
2,38,0,54
2,42,127,4
2,42,0,122
2,40,127,6
2,40,0,114
2,38,127,14
2,38,0,112
2,40,127,16
2,40,0,120
2,38,127,8
2,38,0,110
2,35,127,18
2,35,0,106
2,33,127,22
2,33,0,192
2,33,127,0
2,33,0,94
2,33,127,32
2,33,0,58
2,33,127,6
2,33,0,124
2,33,127,4
2,33,0,58
2,33,127,6
2,33,0,112
2,33,127,16
2,33,0,52
2,31,127,12
2,31,0,104
2,31,127,24
2,31,0,52
2,31,127,12
2,31,0,110
2,31,127,18
2,31,0,48
2,31,127,18
2,31,0,112
2,31,127,14
2,31,0,60
2,31,127,4
2,31,0,90
2,31,127,38
2,31,0,52
2,28,127,14
2,28,0,114
2,28,127,12
2,28,0,54
2,28,127,10
2,28,0,112
2,28,127,16
2,28,0,54
2,28,127,10
2,28,0,110
2,28,127,18
2,28,0,62
2,28,127,2
2,28,0,112
2,28,127,16
2,28,0,58
2,28,127,6
2,28,0,96
2,28,127,32
2,28,0,54
2,28,127,10
2,28,0,110
2,28,127,18
2,28,0,54
2,28,127,10
2,28,0,106
2,28,127,22
2,28,0,60
2,28,127,4
2,28,0,176
2,33,127,16
2,33,0,106
2,33,127,22
2,33,0,60
2,33,127,6
2,33,0,118
2,33,127,8
2,33,0,52
2,33,127,14
2,33,0,104
2,33,127,22
2,33,0,64
2,33,127,2
2,33,0,106
2,33,127,20
2,33,0,50
2,31,127,14
2,31,0,106
2,31,127,22
2,31,0,50
2,31,127,16
2,31,0,102
2,31,127,24
2,31,0,50
2,31,127,16
2,31,0,104
2,31,127,22
2,31,0,64
2,31,127,2
2,31,0,84
2,31,127,42
2,35,127,66
2,31,0,4
2,35,0,1464
2,40,127,66
2,40,0,150
2,43,127,42
2,43,0,108
2,40,127,20
2,40,0,42
2,38,127,22
2,38,0,166
2,35,127,26
2,35,0,124
2,38,127,4
2,38,0,54
2,40,127,10
2,40,0,168
2,43,127,24
2,43,0,118
2,40,127,10
2,40,0,42
2,45,127,22
2,45,0,124
2,43,127,4
2,43,0,42
2,40,127,22
2,40,0,144
2,38,127,48
2,38,0,110
2,40,127,18
2,40,0,88
2,43,127,552
2,43,0,104
2,40,127,24
2,40,0,102
2,40,127,538
2,40,0,156
2,43,127,36
2,43,0,120
2,40,127,8
2,40,0,54
2,38,127,10
2,38,0,158
2,35,127,34
2,38,127,128
2,35,0,2
2,38,0,56
2,40,127,6
2,40,0,168
2,43,127,26
2,43,0,112
2,40,127,14
2,40,0,40
2,45,127,24
2,45,0,124
2,43,127,4
2,43,0,44
2,40,127,20
2,40,0,136
2,38,127,56
2,38,0,106
2,40,127,22
2,40,0,94
2,43,127,546
2,43,0,128
2,40,127,0
2,40,0,116
2,28,127,526
2,28,0,94
2,28,121,32
2,28,0,46
2,28,127,20
2,28,0,94
2,28,127,34
2,28,0,44
2,28,127,20
2,28,0,94
2,28,127,32
2,28,0,46
2,28,127,18
2,28,0,96
2,28,127,32
2,28,0,46
2,28,127,18
2,28,0,96
2,28,127,32
2,28,0,46
2,28,127,20
2,28,0,94
2,28,127,32
2,28,0,46
2,28,127,20
2,28,0,94
2,28,127,32
2,28,0,48
2,28,127,16
2,28,0,96
2,28,127,32
2,28,0,48
2,28,127,16
2,28,0,96
2,28,127,32
2,28,0,48
2,28,127,18
2,28,0,94
2,28,127,32
2,28,0,48
2,28,127,18
2,28,0,92
2,28,127,34
2,28,0,48
2,28,127,16
2,28,0,94
2,28,127,34
2,28,0,48
2,28,127,18
2,28,0,92
