track,note,velocity,time
0,50,67,1520
0,55,67,0
0,53,67,202
0,58,74,0
0,55,69,186
0,60,69,0
0,50,67,98
0,55,69,0
0,53,66,148
0,58,74,0
0,56,85,138
0,61,77,0
0,55,67,24
0,60,67,0
0,50,67,112
0,55,67,0
0,53,67,124
0,58,74,0
0,55,71,124
0,60,71,0
0,53,69,84
0,58,77,0
0,50,67,116
0,55,67,0
0,50,67,204
0,55,71,0
0,53,67,166
0,58,74,0
0,55,69,150
0,60,69,0
0,50,67,90
0,55,71,0
0,53,67,166
0,58,77,0
0,56,85,176
0,61,77,0
0,55,67,20
0,60,71,0
0,50,67,100
0,55,69,0
0,53,69,120
0,58,77,0
0,55,71,120
0,60,69,0
0,53,69,64
0,58,85,0
0,50,67,154
0,55,71,0
0,38,60,178
0,43,92,0
0,50,67,0
0,55,69,0
0,42,126,0
0,42,52,56
0,42,54,12
0,42,52,60
0,41,58,62
0,46,92,0
0,53,67,0
0,58,77,0
0,42,126,0
0,42,48,56
0,42,52,56
0,42,48,60
0,43,57,56
0,48,86,0
0,55,71,0
0,60,71,0
0,42,126,0
0,42,42,56
0,42,44,56
0,42,54,56
0,42,126,56
0,42,42,56
0,38,49,56
0,43,86,0
0,50,67,0
0,55,71,0
0,42,48,0
0,42,48,56
0,42,126,58
0,42,52,38
0,41,57,56
0,46,92,0
0,53,71,0
0,58,77,0
0,42,48,0
0,42,44,56
0,42,126,58
0,42,40,56
0,44,58,56
0,49,92,0
0,56,77,0
0,61,77,0
0,42,52,0
0,42,44,56
0,43,54,12
0,48,84,0
0,55,69,0
0,60,69,0
0,42,126,0
0,42,54,56
0,42,48,56
0,42,54,56
0,42,126,56
0,42,42,56
0,42,126,58
0,42,42,24
0,38,55,56
0,43,86,0
0,50,71,0
0,55,71,0
0,42,126,0
0,42,38,56
0,42,42,56
0,42,48,56
0,41,55,56
0,46,92,0
0,53,71,0
0,58,77,0
0,42,126,0
0,42,42,56
0,42,44,56
0,42,44,46
0,43,57,56
0,48,90,0
0,55,71,0
0,60,69,0
0,42,126,0
0,42,38,56
0,42,44,56
0,42,44,56
0,42,126,62
0,42,40,56
0,41,54,56
0,46,96,0
0,53,71,0
0,58,85,0
0,42,48,0
0,42,44,60
0,42,126,56
0,42,44,34
0,38,51,56
0,43,89,0
0,50,67,0
0,55,74,0
0,42,44,0
0,42,52,56
0,42,126,60
0,42,37,56
0,42,42,56
0,42,48,56
0,42,126,60
0,42,37,56
0,42,44,56
0,42,48,56
0,42,126,56
0,42,38,56
0,42,52,56
0,42,42,32
0,38,49,58
0,43,86,0
0,50,67,0
0,55,71,0
0,42,126,0
0,42,30,56
0,42,44,20
0,42,48,56
0,41,56,56
0,46,92,0
0,53,69,0
0,58,77,0
0,40,107,0
0,42,126,0
0,42,44,56
0,42,44,14
0,42,42,56
0,43,53,56
0,48,84,0
0,55,71,0
0,60,69,0
0,42,126,0
0,42,42,56
0,42,52,56
0,42,44,56
0,40,107,56
0,42,126,0
0,42,38,16
0,38,52,56
0,43,86,0
0,50,67,0
0,55,71,0
0,42,48,0
0,42,42,56
0,42,126,0
0,42,42,56
0,41,54,56
0,46,92,0
0,53,71,0
0,58,77,0
0,42,48,0
0,42,42,56
0,40,107,2
0,42,126,0
0,42,48,56
0,44,56,56
0,49,92,0
0,56,85,0
0,61,77,0
0,42,54,0
0,42,42,56
0,43,53,32
0,48,86,0
0,55,69,0
0,60,71,0
0,42,126,0
0,42,38,56
0,42,48,56
0,42,44,56
0,40,107,56
0,42,126,0
0,42,40,56
0,42,60,56
0,42,52,8
0,38,50,56
0,43,79,0
0,50,67,0
0,55,64,0
0,42,126,0
0,42,42,56
0,42,54,56
0,42,54,56
0,41,50,56
0,46,89,0
0,53,69,0
0,58,74,0
0,40,107,0
0,42,126,0
0,42,48,56
0,42,44,56
0,42,44,56
0,43,51,56
0,48,84,0
0,55,71,0
0,60,69,0
0,42,126,0
0,42,44,56
0,42,60,56
0,42,44,56
0,40,107,56
0,42,92,0
0,42,48,56
0,41,54,56
0,46,92,0
0,53,69,0
0,58,77,0
0,42,44,0
0,42,48,56
0,42,126,56
0,42,52,36
0,38,54,56
0,43,84,0
0,50,67,0
0,55,69,0
0,42,48,0
0,42,52,56
0,40,94,62
0,42,126,0
0,42,48,56
0,42,42,56
0,42,44,56
0,42,92,56
0,42,44,56
0,28,85,56
0,42,52,0
0,42,52,56
0,29,73,56
0,40,107,0
0,42,92,0
0,42,36,56
0,30,127,56
0,42,48,0
0,42,52,16
0,38,53,22
0,43,82,0
0,50,67,0
0,55,67,0
0,31,105,0
0,42,109,0
0,42,72,56
0,31,97,10
0,42,73,0
0,42,72,60
0,41,54,62
0,46,89,0
0,53,67,0
0,58,74,0
0,31,101,0
0,40,124,0
0,42,109,0
0,42,70,56
0,31,100,6
0,42,72,0
0,42,70,60
0,43,53,56
0,48,84,0
0,55,69,0
0,60,69,0
0,31,101,0
0,42,109,0
0,42,67,56
0,31,97,56
0,42,68,0
0,42,73,56
0,31,105,56
0,40,124,0
0,42,109,0
0,42,67,2
0,38,54,50
0,43,84,0
0,50,67,0
0,55,69,0
0,31,101,0
0,42,70,0
0,42,70,56
0,31,101,4
0,42,109,0
0,42,72,52
0,41,52,56
0,46,89,0
0,53,66,0
0,58,74,0
0,31,98,0
0,42,70,0
0,42,68,56
0,31,101,58
0,40,111,0
0,42,109,0
0,42,66,42
0,44,57,56
0,49,92,0
0,56,85,0
0,61,77,0
0,31,100,0
0,42,72,0
0,42,68,56
0,43,55,24
0,48,82,0
0,55,67,0
0,60,67,0
0,31,101,0
0,42,109,0
0,42,73,56
0,31,98,44
0,42,70,0
0,42,73,56
0,31,105,56
0,40,124,0
0,42,109,0
0,42,67,56
0,31,100,58
0,42,84,0
0,42,67,16
0,38,54,56
0,43,82,0
0,50,67,0
0,55,67,0
0,31,101,0
0,42,109,0
0,42,65,56
0,31,98,56
0,42,67,0
0,42,70,28
0,41,55,56
0,46,89,0
0,53,67,0
0,58,74,0
0,31,98,0
0,40,124,0
0,42,109,0
0,42,67,6
0,31,98,56
0,42,68,0
0,42,68,6
0,43,54,56
0,48,86,0
0,55,71,0
0,60,71,0
0,36,105,0
0,42,109,0
0,42,65,56
0,36,98,56
0,42,68,0
0,42,68,56
0,36,100,62
0,40,124,0
0,42,109,0
0,42,66,0
0,41,52,56
0,46,92,0
0,53,69,0
0,58,77,0
0,34,105,0
0,42,70,0
0,42,68,60
0,42,109,56
0,42,68,10
0,38,53,56
0,43,82,0
0,50,67,0
0,55,67,0
0,31,101,0
0,42,68,0
0,42,72,56
0,31,98,50
0,40,111,0
0,42,109,0
0,42,65,56
0,31,98,56
0,42,67,0
0,42,70,2
0,31,98,60
0,42,109,0
0,42,65,8
0,31,100,56
0,42,68,0
0,42,70,56
0,29,101,52
0,40,124,0
0,42,109,0
0,42,65,56
0,30,105,12
0,42,72,0
0,42,67,56
0,38,53,50
0,43,86,0
0,50,67,0
0,55,71,0
0,31,101,0
0,36,55,0
0,42,109,0
0,42,61,56
0,31,98,18
0,36,48,0
0,42,68,0
0,42,70,56
0,41,55,56
0,46,89,0
0,53,67,0
0,58,74,0
0,31,101,0
0,36,55,0
0,40,111,0
0,42,109,0
0,42,68,56
0,31,98,52
0,36,52,0
0,42,68,0
0,42,67,54
0,43,54,56
0,48,84,0
0,55,69,0
0,60,69,0
0,31,101,0
0,36,55,0
0,42,109,0
0,42,67,56
0,31,98,56
0,36,52,0
0,42,72,0
0,42,68,56
0,31,101,56
0,36,63,0
0,40,111,0
0,42,109,0
0,42,65,56
0,38,56,56
0,43,86,0
0,50,67,0
0,55,71,0
0,31,100,0
0,36,57,0
0,42,70,0
0,42,67,56
0,31,100,16
0,36,69,0
0,42,109,0
0,42,67,56
0,41,54,56
0,46,92,0
0,53,67,0
0,58,77,0
0,31,100,0
0,36,55,0
0,42,70,0
0,42,67,56
0,31,101,12
0,36,59,0
0,40,111,0
0,42,109,0
0,42,70,56
0,44,55,40
0,49,92,0
0,56,85,0
0,61,77,0
0,31,98,0
0,36,63,0
0,42,73,0
0,42,67,56
0,43,53,20
0,48,86,0
0,55,67,0
0,60,71,0
0,31,101,0
0,36,67,0
0,42,109,0
0,42,65,56
0,31,98,40
0,36,63,0
0,42,70,0
0,42,68,56
0,31,101,56
0,36,63,0
0,40,111,0
0,42,109,0
0,42,66,56
0,31,100,56
0,36,75,0
0,42,76,0
0,42,72,4
0,38,54,56
0,43,84,0
0,50,67,0
0,55,69,0
0,31,100,0
0,36,82,0
0,42,109,0
0,42,67,56
0,31,100,32
0,36,69,0
0,42,73,0
0,42,73,24
0,41,57,56
0,46,92,0
0,53,69,0
0,58,77,0
0,31,98,0
0,36,69,0
0,40,111,0
0,42,109,0
0,42,70,56
0,31,101,56
0,36,67,0
0,42,68,0
0,42,68,24
0,43,55,56
0,48,84,0
0,55,71,0
0,60,69,0
0,36,101,0
0,36,75,0
0,42,109,0
0,42,68,56
0,36,98,56
0,36,69,0
0,42,76,0
0,42,68,56
0,36,100,56
0,36,75,0
0,40,124,0
0,42,92,0
0,42,70,56
0,41,56,56
0,46,92,0
0,53,69,0
0,58,85,0
0,34,105,0
0,36,69,0
0,42,68,0
0,42,70,56
0,36,75,56
0,42,109,0
0,42,72,42
0,38,57,56
0,43,86,0
0,50,67,0
0,55,71,0
0,31,100,0
0,36,75,0
0,42,70,0
0,42,72,56
0,31,101,44
0,36,82,0
0,40,111,0
0,42,109,0
0,42,70,10
0,38,60,38
0,31,100,18
0,36,82,0
0,42,67,0
0,38,78,14
0,38,89,20
0,38,101,34
0,31,101,26
0,36,82,0
0,38,124,48
0,28,101,42
0,36,82,0
0,38,67,12
0,38,79,12
0,38,95,20
0,38,121,12
0,29,101,18
0,36,94,0
0,40,111,0
0,38,89,38
0,38,126,32
0,65,92,4
0,30,105,0
0,36,94,0
0,49,87,14
0,43,65,4
0,50,69,0
0,67,98,0
0,31,91,0
0,36,70,0
0,74,70,0
0,79,64,0
0,82,76,0
0,31,91,12
0,43,47,24
0,50,63,0
0,36,57,0
0,74,54,0
0,79,76,0
0,82,83,0
0,50,73,38
0,55,69,0
0,67,86,0
0,43,91,0
0,46,105,0
0,40,107,16
0,38,15,36
0,38,15,20
0,38,20,6
0,38,24,24
0,43,65,30
0,50,69,0
0,65,92,0
0,31,95,0
0,36,70,0
0,46,88,0
0,31,85,42
0,50,55,24
0,36,57,0
0,50,69,36
0,55,65,0
0,62,82,0
0,43,88,0
0,40,94,0
0,46,91,0
0,74,70,0
0,79,95,0
0,82,108,0
0,65,92,44
0,72,76,0
0,77,76,0
0,81,83,0
0,38,15,12
0,38,16,18
0,38,18,10
0,38,21,24
0,43,69,24
0,50,69,0
0,31,95,0
0,36,70,0
0,46,93,0
0,74,60,0
0,79,76,0
0,82,127,0
0,31,83,2
0,50,51,20
0,62,102,0
0,36,63,0
0,46,68,0
0,74,64,0
0,79,95,0
0,82,95,0
0,43,87,26
0,50,69,24
0,55,73,0
0,46,93,0
0,40,94,16
0,43,63,6
0,50,69,0
0,34,101,0
0,38,15,14
0,38,15,8
0,38,18,6
0,38,21,14
0,36,82,26
0,46,85,0
0,43,61,38
0,50,63,0
0,36,91,0
0,36,63,0
0,50,65,74
0,55,55,0
0,46,83,0
0,40,107,16
0,38,87,22
0,74,42,0
0,79,46,0
0,38,15,12
0,38,16,14
0,38,18,14
0,38,24,0
0,43,65,8
0,50,65,0
0,62,82,0
0,36,70,0
0,46,86,0
0,74,58,0
0,79,73,0
0,82,98,0
0,31,95,2
0,43,61,32
0,50,65,0
0,36,45,0
0,42,57,0
0,31,85,24
0,50,69,16
0,55,58,0
0,62,82,0
0,42,102,0
0,74,50,0
0,79,66,0
0,82,85,0
0,40,82,16
0,43,91,8
0,42,69,6
0,38,15,10
0,38,15,2
0,38,19,20
0,38,25,20
0,48,81,34
0,53,81,0
0,60,92,0
0,36,70,0
0,42,112,0
0,72,60,0
0,77,66,0
0,81,66,0
0,41,95,18
0,41,65,10
0,48,65,0
0,36,83,0
0,36,55,0
0,42,75,0
0,48,73,34
0,53,69,0
0,58,69,0
0,41,91,0
0,40,107,0
0,42,111,0
0,72,38,0
0,77,48,0
0,81,48,0
0,43,75,40
0,50,75,0
0,60,98,0
0,31,101,0
0,42,75,0
0,74,54,0
0,79,73,0
0,38,15,14
0,38,15,18
0,38,18,14
0,38,24,22
0,36,63,28
0,49,77,0
0,34,91,16
0,43,69,24
0,58,98,0
0,36,70,0
0,36,91,16
0,50,69,24
0,55,69,0
0,55,92,0
0,42,107,0
0,40,94,6
0,38,91,46
0,42,80,0
0,74,58,0
0,79,50,0
0,38,15,12
0,38,19,18
0,38,23,12
0,38,29,8
0,43,91,0
0,43,65,22
0,50,61,0
0,36,82,0
0,42,114,0
0,72,85,0
0,70,127,6
0,38,81,22
0,43,57,6
0,50,61,0
0,36,70,0
0,42,80,0
0,67,50,0
0,50,46,42
0,55,75,0
0,36,87,0
0,42,114,0
0,40,82,6
0,43,57,32
0,50,55,0
0,34,95,0
0,42,79,0
0,40,22,16
0,40,39,0
0,40,62,8
0,43,63,6
0,50,57,0
0,31,90,0
0,36,82,0
0,49,82,0
0,74,57,0
0,79,59,0
0,82,72,0
0,43,54,52
0,50,55,0
0,62,82,0
0,31,90,0
0,36,63,0
0,74,45,0
0,79,65,0
0,82,84,0
0,50,73,12
0,55,65,0
0,65,74,0
0,43,90,0
0,42,91,0
0,40,94,16
0,42,76,12
0,74,57,0
0,79,59,0
0,82,72,0
0,38,16,28
0,38,21,20
0,38,22,10
0,38,25,26
0,43,65,12
0,50,58,0
0,65,82,0
0,31,94,0
0,36,82,0
0,42,112,0
0,43,61,28
0,50,57,0
0,62,74,0
0,31,87,0
0,36,47,0
0,42,74,0
0,50,57,20
0,55,65,0
0,65,82,0
0,43,90,0
0,40,94,0
0,42,110,0
0,74,49,0
0,79,53,0
0,82,59,0
0,62,78,0
0,42,73,0
0,38,15,12
0,38,16,22
0,38,21,14
0,38,27,24
0,43,59,22
0,50,58,0
0,67,92,0
0,43,87,0
0,36,82,0
0,42,110,0
0,74,49,0
0,79,53,0
0,82,65,0
0,43,59,36
0,50,42,0
0,43,90,0
0,36,47,0
0,42,68,0
0,74,41,0
0,79,59,0
0,82,84,0
0,50,69,34
0,55,73,0
0,62,92,0
0,31,84,0
0,40,94,0
0,42,96,0
0,42,73,10
0,74,53,0
0,79,57,0
0,82,72,0
0,38,15,16
0,38,18,6
0,38,24,4
0,38,27,4
0,43,69,22
0,50,63,0
0,43,84,0
0,36,70,0
0,42,98,0
0,43,59,16
0,43,84,0
0,36,51,0
0,42,75,0
0,50,73,26
0,55,69,0
0,31,84,0
0,40,94,0
0,42,96,0
0,74,59,0
0,79,65,0
0,82,72,0
0,43,81,16
0,42,71,0
0,38,15,10
0,38,15,20
0,38,21,10
0,38,27,12
0,43,57,10
0,50,61,0
0,31,81,0
0,36,95,0
0,42,107,0
0,74,59,0
0,79,72,0
0,82,84,0
0,43,59,10
0,50,63,0
0,31,84,0
0,36,51,0
0,42,71,0
0,50,73,22
0,55,73,0
0,43,86,0
0,42,96,0
0,74,53,0
0,79,65,0
0,82,84,0
0,40,94,16
0,42,76,16
0,74,49,0
0,38,15,8
0,38,15,2
0,38,18,14
0,38,22,24
0,48,65,34
0,53,75,0
0,41,100,0
0,36,95,0
0,42,103,0
0,72,53,0
0,77,59,0
0,81,72,0
0,41,57,68
0,48,59,0
0,62,88,0
0,36,94,0
0,36,55,0
0,42,75,0
0,72,65,0
0,77,65,0
0,81,72,0
0,48,69,20
0,53,65,0
0,60,88,0
0,41,94,0
0,40,94,0
0,42,91,0
0,38,15,50
0,58,90,4
0,42,77,0
0,70,65,0
0,74,59,0
0,79,57,0
0,38,16,12
0,38,18,8
0,38,24,18
0,43,61,2
0,50,57,0
0,62,89,0
0,43,90,0
0,36,82,0
0,42,100,0
