track,note,velocity,time
3,30,127,3256
3,30,0,6
3,30,127,8
3,30,0,33
3,30,80,1
3,30,0,6
3,30,127,8
3,30,0,33
3,37,127,1
3,37,0,10
3,40,127,4
3,40,0,20
3,37,127,1
3,37,0,12
3,40,127,2
3,40,0,32
3,30,127,15
3,30,0,6
3,30,127,8
3,30,0,33
3,30,80,1
3,30,0,6
3,30,127,8
3,30,0,33
3,37,127,1
3,37,0,10
3,40,127,4
3,40,0,20
3,37,127,1
3,37,0,12
3,40,127,2
3,40,0,32
3,30,127,15
3,30,0,6
3,30,127,8
3,30,0,33
3,30,80,1
3,30,0,6
3,30,127,8
3,30,0,33
3,37,127,1
3,37,0,10
3,40,127,4
3,40,0,20
3,37,127,1
3,37,0,12
3,40,127,2
3,40,0,32
3,30,127,15
3,30,0,6
3,30,127,8
3,30,0,33
3,30,80,1
3,30,0,6
3,30,127,8
3,30,0,33
3,37,127,1
3,37,0,10
3,40,127,4
3,40,0,20
3,37,127,1
3,37,0,12
3,40,127,2
3,40,0,32
3,30,127,15
3,30,0,6
3,30,127,8
3,30,0,33
3,30,80,1
3,30,0,6
3,30,127,8
3,30,0,33
3,37,127,1
3,37,0,10
3,40,127,4
3,40,0,20
3,37,127,1
3,37,0,12
3,40,127,2
3,40,0,32
3,30,127,15
3,30,0,6
3,30,127,8
3,30,0,33
3,30,80,1
3,30,0,6
3,30,127,8
3,30,0,33
3,37,127,1
3,37,0,10
3,40,127,4
3,40,0,20
3,37,127,1
3,37,0,12
3,40,127,2
3,40,0,32
3,30,127,15
3,30,0,6
3,30,127,8
3,30,0,33
3,30,80,1
3,30,0,6
3,30,127,8
3,30,0,33
3,37,127,1
3,37,0,10
3,40,127,4
3,40,0,20
3,37,127,1
3,37,0,12
3,40,127,2
3,40,0,32
3,30,127,15
3,30,0,6
3,30,127,8
3,30,0,33
3,30,80,1
3,30,0,6
3,30,127,8
3,30,0,33
3,37,127,1
3,37,0,10
3,40,127,4
3,40,0,20
3,37,127,1
3,37,0,12
3,40,127,2
3,40,0,32
3,30,127,15
3,30,0,6
3,30,127,8
3,30,0,33
3,30,80,1
3,30,0,6
3,30,127,8
3,30,0,33
3,37,127,1
3,37,0,10
3,40,127,4
3,40,0,20
3,37,127,1
3,37,0,12
3,40,127,2
3,40,0,32
3,30,127,15
3,30,0,6
3,30,127,8
3,30,0,33
3,30,80,1
3,30,0,6
3,30,127,8
3,30,0,33
3,37,127,1
3,37,0,10
3,40,127,4
3,40,0,20
3,37,127,1
3,37,0,12
3,40,127,2
3,40,0,32
3,30,127,15
3,30,0,6
3,30,127,8
3,30,0,33
3,30,80,1
3,30,0,6
3,30,127,8
3,30,0,33
3,37,127,1
3,37,0,10
3,40,127,4
3,40,0,20
3,37,127,1
3,37,0,12
3,40,127,2
3,40,0,32
3,30,127,15
3,30,0,6
3,30,127,8
3,30,0,33
3,30,80,1
3,30,0,6
3,30,127,8
3,30,0,33
3,37,127,1
3,37,0,10
3,40,127,4
3,40,0,20
3,37,127,1
3,37,0,12
3,40,127,2
3,40,0,32
3,30,127,15
3,30,0,6
3,30,127,8
3,30,0,33
3,30,80,1
3,30,0,6
3,30,127,8
3,30,0,33
3,37,127,1
3,37,0,10
3,40,127,4
3,40,0,20
3,37,127,1
3,37,0,12
3,40,127,2
3,40,0,32
3,30,127,15
3,30,0,6
3,30,127,8
3,30,0,33
3,30,80,1
3,30,0,6
3,30,127,8
3,30,0,33
3,37,127,1
3,37,0,10
3,40,127,4
3,40,0,20
3,37,127,1
3,37,0,12
3,40,127,2
3,40,0,32
3,30,127,15
3,30,0,6
3,30,127,8
3,30,0,33
3,30,80,1
3,30,0,6
3,30,127,8
3,30,0,33
3,37,127,1
3,37,0,10
3,40,127,4
3,40,0,20
3,37,127,1
3,37,0,12
3,40,127,2
3,40,0,32
3,30,127,15
3,30,0,6
3,30,127,8
3,30,0,33
3,30,80,1
3,30,0,6
3,30,127,8
3,30,0,33
3,37,127,1
3,37,0,10
3,40,127,4
3,40,0,20
3,37,127,1
3,37,0,12
3,40,127,2
3,40,0,32
3,30,127,15
3,30,0,6
3,30,127,8
3,30,0,33
3,30,80,1
3,30,0,6
3,30,127,8
3,30,0,33
3,37,127,1
3,37,0,10
3,40,127,4
3,40,0,20
3,37,127,1
3,37,0,12
3,40,127,2
3,40,0,32
3,30,127,15
3,30,0,6
3,30,127,8
3,30,0,33
3,30,80,1
3,30,0,6
3,30,127,8
3,30,0,33
3,37,127,1
3,37,0,10
3,40,127,4
3,40,0,20
3,37,127,1
3,37,0,12
3,40,127,2
3,40,0,32
3,30,127,15
3,30,0,6
3,30,127,8
3,30,0,33
3,30,80,1
3,30,0,6
3,30,127,8
3,30,0,33
3,37,127,1
3,37,0,10
3,40,127,4
3,40,0,20
3,37,127,1
3,37,0,12
3,40,127,2
3,40,0,32
3,30,127,15
3,30,0,6
3,30,127,8
3,30,0,33
3,30,80,1
3,30,0,6
3,30,127,8
3,30,0,33
3,37,127,1
3,37,0,10
3,40,127,4
3,40,0,20
3,37,127,1
3,37,0,12
3,40,127,2
3,40,0,32
3,30,127,15
3,30,0,6
3,30,127,8
3,30,0,33
3,30,80,1
3,30,0,6
3,30,127,8
3,30,0,33
3,37,127,1
3,37,0,10
3,40,127,4
3,40,0,20
3,37,127,1
3,37,0,12
3,40,127,2
3,40,0,32
3,30,127,15
3,30,0,6
3,30,127,8
3,30,0,33
3,30,80,1
3,30,0,6
3,30,127,8
3,30,0,33
3,37,127,1
3,37,0,10
3,40,127,4
3,40,0,20
3,37,127,1
3,37,0,12
3,40,127,2
3,40,0,32
3,30,127,15
3,30,0,6
3,30,127,8
3,30,0,33
3,30,80,1
3,30,0,6
3,30,127,8
3,30,0,33
3,37,127,1
3,37,0,10
3,40,127,4
3,40,0,20
3,37,127,1
3,37,0,12
3,40,127,2
3,40,0,32
3,30,127,15
3,30,0,6
3,30,127,8
3,30,0,33
3,30,80,1
3,30,0,6
3,30,127,8
3,30,0,33
3,37,127,1
3,37,0,10
3,40,127,4
3,40,0,20
3,37,127,1
3,37,0,12
3,40,127,2
3,40,0,32
3,30,127,15
3,30,0,6
3,30,127,8
3,30,0,33
3,30,80,1
3,30,0,6
3,30,127,8
3,30,0,33
3,37,127,1
3,37,0,10
3,40,127,4
3,40,0,16
3,37,127,5
3,37,0,10
3,40,127,4
3,40,0,32
3,30,127,15
3,30,0,6
3,30,127,8
3,30,0,33
3,30,80,1
3,30,0,6
3,30,127,8
3,30,0,33
3,37,127,1
3,37,0,10
3,40,127,4
3,40,0,16
3,37,127,5
3,37,0,10
3,40,127,4
3,40,0,32
3,35,127,15
3,35,0,6
3,35,127,8
3,35,0,33
3,35,80,1
3,35,0,6
3,35,127,8
3,35,0,33
3,37,127,1
3,37,0,10
3,40,127,4
3,40,0,16
3,37,127,5
3,37,0,10
3,40,127,4
3,40,0,32
3,35,127,15
3,35,0,6
3,35,127,8
3,35,0,33
3,35,80,1
3,35,0,6
3,35,127,8
3,35,0,33
3,37,127,1
3,37,0,10
3,40,127,4
3,40,0,16
3,37,127,5
3,37,0,10
3,40,127,4
3,40,0,32
3,30,127,15
3,30,0,6
3,30,127,8
3,30,0,33
3,30,80,1
3,30,0,6
3,30,127,8
3,30,0,33
3,37,127,1
3,37,0,10
3,40,127,4
3,40,0,16
3,37,127,5
3,37,0,10
3,40,127,4
3,40,0,32
3,30,127,15
3,30,0,6
3,30,127,8
3,30,0,33
3,30,80,1
3,30,0,6
3,30,127,8
3,30,0,33
3,37,127,1
3,37,0,10
3,40,127,4
3,40,0,16
3,37,127,5
3,37,0,10
3,40,127,4
3,40,0,32
3,35,127,15
3,35,0,6
3,35,127,8
3,35,0,33
3,35,80,1
3,35,0,6
3,35,127,8
3,35,0,33
3,37,127,1
3,37,0,10
3,40,127,4
3,40,0,16
3,37,127,5
3,37,0,10
3,40,127,4
3,40,0,32
3,35,127,15
3,35,0,6
3,35,127,8
3,35,0,33
3,35,80,1
3,35,0,6
3,35,127,8
3,35,0,33
3,37,127,1
3,37,0,10
3,40,127,4
3,40,0,16
3,37,127,5
3,37,0,10
3,40,127,4
3,40,0,32
3,30,127,15
3,30,0,6
3,30,127,8
3,30,0,33
3,30,80,1
3,30,0,6
3,30,127,8
3,30,0,33
3,37,127,1
3,37,0,10
3,40,127,4
3,40,0,16
3,37,127,5
3,37,0,10
3,40,127,4
3,40,0,32
3,30,127,15
3,30,0,6
3,30,127,8
3,30,0,33
3,30,80,1
3,30,0,6
3,30,127,8
3,30,0,33
3,37,127,1
3,37,0,10
3,40,127,4
3,40,0,16
3,37,127,5
3,37,0,10
3,40,127,4
3,40,0,32
3,35,127,15
3,35,0,6
3,35,127,8
3,35,0,33
3,35,80,1
3,35,0,6
3,35,127,8
3,35,0,33
3,37,127,1
3,37,0,10
3,40,127,4
3,40,0,16
3,37,127,5
3,37,0,10
3,40,127,4
3,40,0,32
3,35,127,15
3,35,0,6
3,35,127,8
3,35,0,33
3,35,80,1
3,35,0,6
3,35,127,8
3,35,0,33
3,37,127,1
3,37,0,10
3,40,127,4
3,40,0,16
3,37,127,5
3,37,0,10
3,40,127,4
3,40,0,32
3,30,127,15
3,30,0,6
3,30,127,8
3,30,0,33
3,30,80,1
3,30,0,6
3,30,127,8
3,30,0,33
3,37,127,1
3,37,0,10
3,40,127,4
3,40,0,16
3,37,127,5
3,37,0,10
3,40,127,4
3,40,0,32
3,30,127,15
3,30,0,6
3,30,127,8
3,30,0,33
3,30,80,1
3,30,0,6
3,30,127,8
3,30,0,33
3,37,127,1
3,37,0,10
3,40,127,4
3,40,0,16
3,37,127,5
3,37,0,10
3,40,127,4
3,40,0,32
3,35,127,15
3,35,0,6
3,35,127,8
3,35,0,33
3,35,80,1
3,35,0,6
3,35,127,8
3,35,0,33
3,37,127,1
3,37,0,10
3,40,127,4
3,40,0,16
3,37,127,5
3,37,0,10
3,40,127,4
3,40,0,32
3,35,127,15
3,35,0,6
3,35,127,8
3,35,0,33
3,35,80,1
3,35,0,6
3,35,127,8
3,35,0,33
3,37,127,1
3,37,0,10
3,40,127,4
3,40,0,16
3,37,127,5
3,37,0,10
3,40,127,4
3,40,0,32
3,30,127,15
3,30,0,6
3,30,127,8
3,30,0,33
3,30,80,1
3,30,0,6
3,30,127,8
3,30,0,33
3,37,127,1
3,37,0,10
3,40,127,4
3,40,0,16
3,37,127,5
3,37,0,10
3,40,127,4
3,40,0,32
3,30,127,15
3,30,0,6
3,30,127,8
3,30,0,33
3,30,80,1
3,30,0,6
3,30,127,8
3,30,0,33
3,37,127,1
3,37,0,10
3,40,127,4
3,40,0,16
3,37,127,5
3,37,0,10
3,40,127,4
3,40,0,32
3,35,127,15
3,35,0,6
3,35,127,8
3,35,0,33
3,35,80,1
3,35,0,6
3,35,127,8
3,35,0,33
3,37,127,1
3,37,0,10
3,40,127,4
3,40,0,16
3,37,127,5
3,37,0,10
3,40,127,4
3,40,0,32
3,35,127,15
3,35,0,6
3,35,127,8
3,35,0,33
3,35,80,1
3,35,0,6
3,35,127,8
3,35,0,33
3,37,127,1
3,37,0,10
3,40,127,4
3,40,0,16
3,37,127,5
3,37,0,10
3,40,127,4
3,40,0,32
3,30,127,15
3,30,0,6
3,30,127,8
3,30,0,33
3,30,80,1
3,30,0,6
3,30,127,8
3,30,0,33
3,37,127,1
3,37,0,10
3,40,127,4
3,40,0,16
3,37,127,5
3,37,0,10
3,40,127,4
3,40,0,32
3,30,127,15
3,30,0,6
3,30,127,8
3,30,0,33
3,30,80,1
3,30,0,6
3,30,127,8
3,30,0,33
3,37,127,1
3,37,0,10
3,40,127,4
3,40,0,16
3,37,127,5
3,37,0,10
3,40,127,4
3,40,0,32
3,35,127,15
3,35,0,6
3,35,127,8
3,35,0,33
3,35,80,1
3,35,0,6
3,35,127,8
3,35,0,33
3,37,127,1
3,37,0,10
3,40,127,4
3,40,0,16
3,37,127,5
3,37,0,10
3,40,127,4
3,40,0,32
3,35,127,15
3,35,0,6
3,35,127,8
3,35,0,33
3,35,80,1
3,35,0,6
3,35,127,8
3,35,0,33
3,37,127,1
3,37,0,10
3,40,127,4
3,40,0,16
3,37,127,5
3,37,0,10
3,40,127,4
3,40,0,32
3,30,127,15
3,30,0,6
3,30,127,8
3,30,0,33
3,30,80,1
3,30,0,6
3,30,127,8
3,30,0,33
3,37,127,1
3,37,0,10
3,40,127,4
3,40,0,16
3,37,127,5
3,37,0,10
3,40,127,4
3,40,0,32
3,30,127,15
3,30,0,6
3,30,127,8
3,30,0,33
3,30,80,1
3,30,0,6
3,30,127,8
3,30,0,33
3,37,127,1
3,37,0,10
3,40,127,4
3,40,0,16
3,37,127,5
3,37,0,10
3,40,127,4
3,40,0,32
3,35,127,15
3,35,0,6
3,35,127,8
3,35,0,33
3,35,80,1
3,35,0,6
3,35,127,8
3,35,0,33
3,37,127,1
3,37,0,10
3,40,127,4
3,40,0,16
3,37,127,5
3,37,0,10
3,40,127,4
3,40,0,32
3,35,127,15
3,35,0,6
3,35,127,8
3,35,0,33
3,35,80,1
3,35,0,6
3,35,127,8
3,35,0,33
3,37,127,1
3,37,0,10
3,40,127,4
3,40,0,16
3,37,127,5
3,37,0,10
3,40,127,4
3,40,0,32
3,30,127,15
3,30,0,6
3,30,127,8
3,30,0,33
3,30,80,1
3,30,0,6
3,30,127,8
3,30,0,33
3,37,127,1
3,37,0,10
3,40,127,4
3,40,0,16
3,37,127,5
3,37,0,10
3,40,127,4
3,40,0,32
3,30,127,15
3,30,0,6
3,30,127,8
3,30,0,33
3,30,80,1
3,30,0,6
3,30,127,8
3,30,0,33
3,37,127,1
3,37,0,10
3,40,127,4
3,40,0,16
3,37,127,5
3,37,0,10
3,40,127,4
3,40,0,32
3,35,127,15
3,35,0,6
3,35,127,8
3,35,0,33
3,35,80,1
3,35,0,6
3,35,127,8
3,35,0,33
3,37,127,1
3,37,0,10
3,40,127,4
3,40,0,16
3,37,127,5
3,37,0,10
3,40,127,4
3,40,0,32
3,35,127,15
3,35,0,6
3,35,127,8
3,35,0,33
3,35,80,1
3,35,0,6
3,35,127,8
3,35,0,33
3,37,127,1
3,37,0,10
3,40,127,4
3,40,0,16
3,37,127,5
3,37,0,10
3,40,127,4
3,40,0,32
3,30,127,15
3,30,0,6
3,30,127,8
3,30,0,33
3,30,80,1
3,30,0,6
3,30,127,8
3,30,0,33
3,37,127,1
3,37,0,10
3,40,127,4
3,40,0,16
3,37,127,5
3,37,0,10
3,40,127,4
3,40,0,32
3,30,127,15
3,30,0,6
3,30,127,8
3,30,0,33
3,30,80,1
3,30,0,6
3,30,127,8
3,30,0,33
3,37,127,1
3,37,0,10
3,40,127,4
3,40,0,16
3,37,127,5
3,37,0,10
3,40,127,4
3,40,0,32
3,30,127,15
3,30,0,6
3,30,127,8
3,30,0,33
3,30,80,1
3,30,0,6
3,30,127,8
3,30,0,33
3,37,127,1
3,37,0,10
3,40,127,4
3,40,0,16
3,37,127,5
3,37,0,10
3,40,127,4
3,40,0,32
3,30,127,15
3,30,0,6
3,30,127,8
3,30,0,33
3,30,80,1
3,30,0,6
3,30,127,8
3,30,0,33
3,37,127,1
3,37,0,10
3,40,127,4
3,40,0,16
3,37,127,5
3,37,0,10
3,40,127,4
3,40,0,32
3,30,127,15
3,30,0,6
3,30,127,8
3,30,0,33
3,30,80,1
3,30,0,6
3,30,127,8
3,30,0,33
3,37,127,1
3,37,0,10
3,40,127,4
3,40,0,16
3,37,127,5
3,37,0,10
3,40,127,4
3,40,0,32
3,30,127,15
3,30,0,6
3,30,127,8
3,30,0,33
3,30,80,1
3,30,0,6
3,30,127,8
3,30,0,33
3,37,127,1
3,37,0,10
3,40,127,4
3,40,0,16
3,37,127,5
3,37,0,10
3,40,127,4
3,40,0,32
3,30,127,15
3,30,0,6
3,30,127,8
3,30,0,33
3,30,80,1
3,30,0,6
3,30,127,8
3,30,0,33
