track,note,velocity,time
4,28,110,12006
4,28,0,80
4,29,110,16
4,29,0,80
4,30,110,16
4,30,0,80
4,31,110,16
4,31,0,80
4,31,110,16
4,31,0,80
4,31,110,16
4,31,0,80
4,31,110,16
4,31,0,80
4,31,110,16
4,31,0,80
4,31,110,16
4,31,0,80
4,31,110,16
4,31,0,80
4,31,110,16
4,31,0,80
4,31,110,16
4,31,0,80
4,31,110,16
4,31,0,80
4,31,110,16
4,31,0,80
4,31,110,16
4,31,0,80
4,31,110,16
4,31,0,80
4,31,110,16
4,31,0,80
4,31,110,16
4,31,0,80
4,31,110,16
4,31,0,80
4,31,110,16
4,31,0,80
4,31,110,16
4,31,0,80
4,31,110,16
4,31,0,80
4,31,110,16
4,31,0,80
4,36,110,16
4,36,0,80
4,36,110,16
4,36,0,80
4,36,110,16
4,36,0,80
4,34,110,16
4,34,0,176
4,31,110,16
4,31,0,80
4,31,110,16
4,31,0,80
4,31,110,16
4,31,0,80
4,31,110,16
4,31,0,80
4,31,110,16
4,31,0,80
4,31,110,16
4,31,0,80
4,31,110,16
4,31,0,80
4,31,110,16
4,31,0,80
4,31,110,16
4,31,0,80
4,31,110,16
4,31,0,80
4,31,110,16
4,31,0,80
4,31,110,16
4,31,0,80
4,31,110,16
4,31,0,80
4,31,110,16
4,31,0,80
4,31,110,16
4,31,0,80
4,31,110,16
4,31,0,80
4,31,110,16
4,31,0,80
4,31,110,16
4,31,0,80
4,31,110,16
4,31,0,80
4,31,110,16
4,31,0,80
4,31,110,16
4,31,0,80
4,31,110,16
4,31,0,80
4,31,110,16
4,31,0,80
4,31,110,16
4,31,0,80
4,31,110,16
4,31,0,80
4,31,110,16
4,31,0,80
4,31,110,16
4,31,0,80
4,36,110,16
4,36,0,80
4,36,110,16
4,36,0,80
4,36,110,16
4,36,0,80
4,34,110,16
4,34,0,176
4,31,110,16
4,31,0,80
4,31,110,16
4,31,0,80
4,31,110,16
4,31,0,80
4,31,110,16
4,31,0,80
4,31,110,16
4,31,0,80
4,31,110,16
4,31,0,80
4,31,110,16
4,31,0,80
4,31,110,16
4,31,0,80
4,31,110,16
4,31,0,80
4,43,110,16
4,43,0,80
4,31,110,112
4,31,0,80
4,31,110,16
4,31,0,80
4,43,110,16
4,43,0,80
4,31,110,112
4,31,0,80
4,31,110,16
4,31,0,80
4,43,110,16
4,43,0,80
4,31,110,112
4,31,0,80
4,31,110,16
4,31,0,80
4,43,110,16
4,43,0,80
4,31,110,112
4,31,0,80
4,31,110,16
4,31,0,80
4,43,110,16
4,43,0,80
4,31,110,112
4,31,0,80
4,31,110,16
4,31,0,80
4,43,110,16
4,43,0,80
4,31,110,112
4,31,0,80
4,31,110,16
4,31,0,80
4,43,110,16
4,43,0,80
4,38,110,112
4,38,0,80
4,38,110,16
4,38,0,80
4,41,110,16
4,41,0,80
4,42,110,16
4,42,0,80
4,31,110,16
4,31,0,80
4,31,110,16
4,31,0,80
4,43,110,16
4,43,0,80
4,31,110,112
4,31,0,80
4,31,110,16
4,31,0,80
4,43,110,16
4,43,0,80
4,31,110,112
4,31,0,80
4,31,110,16
4,31,0,80
4,43,110,16
4,43,0,80
4,31,110,112
4,31,0,80
4,31,110,16
4,31,0,80
4,43,110,16
4,43,0,80
4,31,110,112
4,31,0,80
4,31,110,16
4,31,0,80
4,43,110,16
4,43,0,80
4,31,110,112
4,31,0,80
4,31,110,16
4,31,0,80
4,43,110,16
4,43,0,80
4,31,110,112
4,31,0,80
4,31,110,16
4,31,0,80
4,38,110,112
4,38,0,32
4,38,110,16
4,38,0,32
4,36,110,16
4,36,0,80
4,34,110,16
4,34,0,80
4,31,110,16
4,31,0,80
4,29,110,16
4,29,0,80
4,31,110,16
4,31,0,80
4,31,110,16
4,31,0,80
4,43,110,16
4,43,0,80
4,31,110,112
4,31,0,80
4,31,110,16
4,31,0,80
4,43,110,16
4,43,0,80
4,31,110,112
4,31,0,80
4,31,110,16
4,31,0,80
4,43,110,16
4,43,0,80
4,31,110,112
4,31,0,80
4,31,110,16
4,31,0,80
4,43,110,16
4,43,0,80
4,31,110,112
4,31,0,80
4,31,110,16
4,31,0,80
4,43,110,16
4,43,0,80
4,31,110,112
4,31,0,80
4,31,110,16
4,31,0,80
4,43,110,16
4,43,0,80
4,31,110,112
4,31,0,80
4,31,110,16
4,31,0,80
4,43,110,16
4,43,0,80
4,31,110,16
4,31,0,80
4,31,110,16
4,31,0,80
4,31,110,16
4,31,0,80
4,43,110,16
4,43,0,80
4,31,110,16
4,31,0,80
4,31,110,16
4,31,0,80
4,31,110,16
4,31,0,80
4,43,110,16
4,43,0,80
4,31,110,112
4,31,0,80
4,31,110,16
4,31,0,80
4,43,110,16
4,43,0,80
4,31,110,112
4,31,0,80
4,31,110,16
4,31,0,80
4,43,110,16
4,43,0,80
4,31,110,112
4,31,0,80
4,31,110,16
4,31,0,80
4,43,110,16
4,43,0,80
4,31,110,112
4,31,0,80
4,38,110,16
4,38,0,80
4,43,110,16
4,43,0,80
4,29,110,112
4,29,0,80
4,36,110,16
4,36,0,80
4,41,110,16
4,41,0,80
4,31,110,112
4,31,0,80
4,34,110,16
4,34,0,80
4,36,110,16
4,36,0,80
4,38,110,16
4,38,0,80
4,41,110,16
4,41,0,80
4,38,110,16
4,38,0,80
4,41,110,16
4,41,0,80
4,38,110,16
4,38,0,80
4,36,110,16
4,36,0,768
4,32,110,0
4,32,0,176
4,39,110,16
4,39,0,176
4,34,110,16
4,34,0,288
4,31,110,0
4,31,0,272
4,34,110,16
4,34,0,80
4,31,110,16
4,31,0,80
4,34,110,16
4,34,0,80
4,31,110,16
4,31,0,80
4,29,110,16
4,29,0,80
4,31,110,16
4,31,0,272
4,34,110,16
4,34,0,80
4,31,110,16
4,31,0,80
4,34,110,16
4,34,0,80
4,31,110,16
4,31,0,80
4,29,110,16
4,29,0,176
4,36,110,16
4,36,0,752
4,32,110,16
4,32,0,752
4,43,110,16
4,43,0,80
4,31,110,0
4,31,0,16
4,31,110,0
4,31,0,96
4,41,110,0
4,41,0,80
4,31,110,16
4,31,0,16
4,31,110,80
4,31,0,16
4,48,110,0
4,48,0,80
4,31,110,0
4,31,0,16
4,48,110,0
4,48,0,64
4,31,110,16
4,31,0,16
4,43,110,80
4,43,0,80
4,31,110,16
4,31,0,16
4,31,110,80
4,31,0,16
4,41,110,0
4,41,0,64
4,31,110,16
4,31,0,16
4,31,110,80
4,31,0,16
4,37,110,0
4,37,0,64
4,31,110,16
4,31,0,16
4,36,110,0
4,36,0,80
4,31,110,0
4,31,0,16
4,36,110,0
4,36,0,64
4,31,110,16
4,31,0,16
4,31,110,80
4,31,0,16
4,43,110,80
4,43,0,80
4,31,110,16
4,31,0,16
4,31,110,80
4,31,0,16
4,41,110,0
4,41,0,64
4,31,110,16
4,31,0,16
4,36,110,80
4,36,0,96
4,36,110,0
4,36,0,96
4,34,110,96
4,34,0,176
4,31,110,16
4,31,0,80
4,31,110,16
4,31,0,80
4,31,110,16
4,31,0,80
4,31,110,16
4,31,0,80
4,31,110,16
4,31,0,80
4,31,110,16
4,31,0,80
4,31,110,16
4,31,0,80
4,31,110,16
4,31,0,80
4,31,110,16
4,31,0,80
4,31,110,16
4,31,0,80
4,31,110,16
4,31,0,80
4,31,110,16
4,31,0,80
4,31,110,16
4,31,0,80
4,31,110,16
4,31,0,80
4,31,110,16
4,31,0,80
4,31,110,16
4,31,0,80
4,31,110,16
4,31,0,80
4,31,110,16
4,31,0,80
4,31,110,16
4,31,0,80
4,31,110,16
4,31,0,80
4,31,110,16
4,31,0,80
4,31,110,16
4,31,0,80
4,31,110,16
4,31,0,80
4,31,110,16
4,31,0,80
4,31,110,16
4,31,0,80
4,31,110,16
4,31,0,80
4,31,110,16
4,31,0,80
4,36,110,16
4,36,0,80
4,36,110,16
4,36,0,80
4,36,110,16
4,36,0,80
4,34,110,16
4,34,0,176
4,31,110,16
4,31,0,80
4,31,110,16
4,31,0,80
4,31,110,16
4,31,0,80
4,31,110,16
4,31,0,80
4,31,110,16
4,31,0,80
4,31,110,16
4,31,0,80
4,31,110,16
4,31,0,80
4,31,110,16
4,31,0,80
4,31,110,16
4,31,0,80
4,43,110,16
4,43,0,80
4,31,110,112
4,31,0,80
4,31,110,16
4,31,0,80
4,43,110,16
4,43,0,80
4,31,110,112
4,31,0,80
4,31,110,16
4,31,0,80
4,43,110,16
4,43,0,80
4,31,110,112
4,31,0,80
4,31,110,16
4,31,0,80
4,43,110,16
4,43,0,80
4,31,110,112
4,31,0,80
4,31,110,16
4,31,0,80
4,43,110,16
4,43,0,80
4,31,110,112
4,31,0,80
4,31,110,16
4,31,0,80
4,43,110,16
4,43,0,80
4,31,110,112
4,31,0,80
4,31,110,16
4,31,0,80
4,43,110,16
4,43,0,80
4,38,110,112
4,38,0,80
4,38,110,16
4,38,0,80
4,41,110,16
4,41,0,80
4,42,110,16
4,42,0,80
4,31,110,16
4,31,0,80
4,31,110,16
4,31,0,80
4,43,110,16
4,43,0,80
4,31,110,112
4,31,0,80
4,31,110,16
4,31,0,80
4,43,110,16
4,43,0,80
4,31,110,112
4,31,0,80
4,31,110,16
4,31,0,80
4,43,110,16
4,43,0,80
4,31,110,112
4,31,0,80
4,31,110,16
4,31,0,80
4,43,110,16
4,43,0,80
4,31,110,112
4,31,0,80
4,31,110,16
4,31,0,80
4,43,110,16
4,43,0,80
4,31,110,112
4,31,0,80
4,31,110,16
4,31,0,80
4,43,110,16
4,43,0,80
4,31,110,112
4,31,0,80
4,31,110,16
4,31,0,80
4,38,110,112
4,38,0,32
4,38,110,16
4,38,0,32
4,36,110,16
4,36,0,80
4,34,110,16
4,34,0,80
4,31,110,16
4,31,0,80
4,29,110,16
4,29,0,80
4,31,110,16
4,31,0,80
4,31,110,16
4,31,0,80
4,43,110,16
4,43,0,80
4,31,110,112
4,31,0,80
4,31,110,16
4,31,0,80
4,43,110,16
4,43,0,80
4,31,110,112
4,31,0,80
4,31,110,16
4,31,0,80
4,43,110,16
4,43,0,80
4,31,110,112
4,31,0,80
4,31,110,16
4,31,0,80
4,43,110,16
4,43,0,80
4,31,110,112
4,31,0,80
4,31,110,16
4,31,0,80
4,43,110,16
4,43,0,80
4,31,110,112
4,31,0,80
4,31,110,16
4,31,0,80
4,43,110,16
4,43,0,80
4,31,110,112
4,31,0,80
4,31,110,16
4,31,0,80
4,43,110,16
4,43,0,80
4,31,110,16
4,31,0,80
4,31,110,16
4,31,0,80
4,31,110,16
4,31,0,80
4,43,110,16
4,43,0,80
4,31,110,16
4,31,0,80
4,31,110,16
4,31,0,80
4,31,110,16
4,31,0,80
4,43,110,16
4,43,0,80
4,31,110,112
4,31,0,80
4,31,110,16
4,31,0,80
4,43,110,16
4,43,0,80
4,31,110,112
4,31,0,80
4,31,110,16
4,31,0,80
4,43,110,16
4,43,0,80
4,31,110,112
4,31,0,80
4,31,110,16
4,31,0,80
4,43,110,16
4,43,0,80
4,31,110,112
4,31,0,80
4,38,110,16
4,38,0,80
4,43,110,16
4,43,0,80
4,29,110,112
4,29,0,80
4,36,110,16
4,36,0,80
4,41,110,16
4,41,0,80
4,31,110,112
4,31,0,80
4,34,110,16
4,34,0,80
4,36,110,16
4,36,0,80
4,38,110,16
4,38,0,80
4,41,110,16
4,41,0,80
4,38,110,16
4,38,0,80
4,41,110,16
4,41,0,80
4,38,110,16
4,38,0,80
4,36,110,16
4,36,0,768
4,32,110,0
4,32,0,176
4,39,110,16
4,39,0,176
4,34,110,16
4,34,0,288
4,31,110,0
4,31,0,272
4,34,110,16
4,34,0,80
4,31,110,16
4,31,0,80
4,34,110,16
4,34,0,80
4,31,110,16
4,31,0,80
4,29,110,16
4,29,0,80
4,31,110,16
4,31,0,272
4,34,110,16
4,34,0,80
4,31,110,16
4,31,0,80
4,34,110,16
4,34,0,80
4,31,110,16
4,31,0,80
4,29,110,16
4,29,0,176
4,36,110,16
4,36,0,752
4,32,110,16
4,32,0,752
4,43,110,16
4,43,0,80
4,31,110,0
4,31,0,16
4,31,110,0
4,31,0,96
4,41,110,0
4,41,0,80
4,31,110,16
4,31,0,16
4,31,110,80
4,31,0,16
4,48,110,0
4,48,0,80
4,31,110,0
4,31,0,16
4,48,110,0
4,48,0,64
4,31,110,16
4,31,0,16
4,43,110,80
4,43,0,80
4,31,110,16
4,31,0,16
4,31,110,80
4,31,0,16
4,41,110,0
4,41,0,64
4,31,110,16
4,31,0,16
4,31,110,80
4,31,0,16
4,37,110,0
4,37,0,64
4,31,110,16
4,31,0,16
4,36,110,0
4,36,0,80
4,31,110,0
4,31,0,16
4,36,110,0
4,36,0,64
4,31,110,16
4,31,0,16
4,31,110,80
4,31,0,16
4,43,110,80
4,43,0,80
4,31,110,16
4,31,0,16
4,31,110,80
4,31,0,16
4,41,110,0
4,41,0,64
4,31,110,16
4,31,0,16
4,36,110,80
4,36,0,96
4,36,110,0
4,36,0,96
4,34,110,96
4,34,0,176
4,31,110,16
4,31,0,80
4,31,110,16
4,31,0,80
4,31,110,16
4,31,0,80
4,31,110,16
4,31,0,80
4,31,110,16
4,31,0,80
4,31,110,16
4,31,0,80
4,31,110,16
4,31,0,80
4,31,110,16
4,31,0,80
4,31,110,16
4,31,0,80
4,31,110,16
4,31,0,80
4,31,110,16
4,31,0,80
4,31,110,16
4,31,0,80
4,31,110,16
4,31,0,80
4,31,110,16
4,31,0,80
4,31,110,16
4,31,0,80
4,31,110,16
4,31,0,80
4,31,110,16
4,31,0,80
4,31,110,16
4,31,0,80
4,31,110,16
4,31,0,80
4,31,110,16
4,31,0,80
4,31,110,16
4,31,0,80
4,31,110,16
4,31,0,80
4,31,110,16
4,31,0,80
4,31,110,16
4,31,0,80
4,31,110,16
4,31,0,80
4,31,110,16
4,31,0,80
4,31,110,16
4,31,0,80
4,36,110,16
4,36,0,80
4,36,110,16
4,36,0,80
4,36,110,16
4,36,0,80
4,34,110,16
4,34,0,176
4,31,110,16
4,31,0,80
4,31,110,16
4,31,0,80
4,31,110,16
4,31,0,80
4,31,110,16
4,31,0,80
4,31,110,16
4,31,0,80
4,31,110,16
4,31,0,80
4,31,110,16
4,31,0,80
4,31,110,16
4,31,0,80
4,34,110,16
4,34,0,80
4,36,110,16
4,36,0,80
4,38,110,16
4,38,0,80
4,43,110,16
4,43,0,80
4,41,110,16
4,41,0,80
4,38,110,16
4,38,0,80
4,36,110,16
4,36,0,80
4,34,110,16
4,34,0,80
4,31,110,16
4,31,0,80
4,34,110,16
4,34,0,80
4,36,110,16
4,36,0,80
4,38,110,16
4,38,0,80
4,43,110,16
4,43,0,80
4,41,110,16
4,41,0,80
4,38,110,16
4,38,0,80
4,34,110,16
4,34,0,80
4,31,110,16
4,31,0,80
4,34,110,16
4,34,0,80
4,36,110,16
4,36,0,80
4,38,110,16
4,38,0,80
4,43,110,16
4,43,0,80
4,41,110,16
4,41,0,80
4,38,110,16
4,38,0,80
4,36,110,16
4,36,0,80
4,38,110,16
4,38,0,80
4,41,110,16
4,41,0,80
4,43,110,16
4,43,0,80
4,48,110,16
4,48,0,80
4,46,110,16
4,46,0,80
4,43,110,16
4,43,0,80
4,41,110,16
4,41,0,80
4,31,110,16
4,31,0,80
4,34,110,16
4,34,0,80
4,36,110,16
4,36,0,80
4,38,110,16
4,38,0,80
4,41,110,16
4,41,0,80
4,38,110,16
4,38,0,80
4,43,110,16
4,43,0,80
4,41,110,16
4,41,0,80
4,43,110,16
4,43,0,80
4,50,110,16
4,50,0,80
4,48,110,16
4,48,0,80
4,46,110,16
4,46,0,80
4,43,110,16
4,43,0,80
4,41,110,16
4,41,0,80
4,38,110,16
4,38,0,80
4,34,110,16
4,34,0,80
4,36,110,16
4,36,0,80
4,31,110,16
4,31,0,80
4,31,110,16
4,31,0,80
4,34,110,16
4,34,0,80
4,36,110,16
4,36,0,80
4,38,110,16
4,38,0,80
4,43,110,16
4,43,0,80
