track,note,velocity,time
1,48,115,1920
1,41,115,0
1,43,115,0
1,50,115,0
1,41,115,480
1,48,115,0
1,43,115,0
1,50,115,0
1,41,115,480
1,48,115,0
1,43,115,0
1,50,115,0
1,55,115,0
1,48,115,0
1,53,115,0
1,46,115,0
1,43,115,240
1,41,115,0
1,43,115,0
1,50,115,0
1,48,115,473
1,41,115,0
1,43,115,0
1,50,115,0
1,48,115,480
1,41,115,0
1,43,115,0
1,50,115,0
1,48,115,480
1,41,115,0
1,43,115,0
1,50,115,0
1,55,115,0
1,48,115,0
1,53,115,0
1,46,115,0
1,43,115,240
1,41,115,0
1,43,115,0
1,50,115,0
1,48,115,473
1,41,115,0
1,50,115,0
1,43,115,0
1,55,115,0
1,48,115,0
1,41,115,0
1,50,115,0
1,43,115,0
1,55,115,0
1,48,115,0
1,41,115,0
1,43,115,0
1,50,115,0
1,55,115,0
1,55,115,0
1,48,115,0
1,60,115,0
1,53,115,0
1,46,115,0
1,58,115,0
1,43,115,0
1,41,115,0
1,43,115,0
1,50,115,0
1,55,115,0
1,48,115,0
1,41,115,0
1,50,115,0
1,43,115,0
1,55,115,0
1,48,115,0
1,41,115,0
1,50,115,0
1,43,115,0
1,55,115,0
1,48,115,0
1,41,115,0
1,43,115,0
1,50,115,0
1,55,115,0
1,55,115,0
1,48,115,0
1,60,115,0
1,53,115,0
1,46,115,0
1,58,115,0
1,43,115,0
1,41,115,0
1,53,115,0
1,48,115,0
1,41,115,0
1,53,115,65
1,46,127,7
1,48,115,0
1,46,115,0
1,48,115,0
1,46,115,0
1,48,115,0
1,46,115,0
1,48,115,0
1,40,115,0
1,41,115,0
1,42,115,0
1,43,115,0
1,48,115,0
1,46,115,0
1,48,115,0
1,46,115,0
1,48,115,0
1,46,115,0
1,48,115,0
1,40,115,0
1,41,115,0
1,42,115,0
1,43,115,0
1,48,115,0
1,46,115,0
1,48,115,0
1,46,115,0
1,48,115,0
1,46,115,0
1,48,115,0
1,40,115,0
1,41,115,0
1,42,115,0
1,43,115,0
1,46,115,0
1,53,115,0
1,58,115,0
1,41,115,0
1,48,115,0
1,53,115,0
1,48,115,0
1,60,115,0
1,48,115,0
1,58,115,120
1,48,115,0
1,55,115,0
1,48,115,0
1,53,115,0
1,51,115,0
1,46,115,0
1,48,115,84
1,48,115,1525
1,41,115,0
1,43,115,0
1,50,115,0
1,41,115,480
1,48,115,0
1,43,115,0
1,50,115,0
1,41,115,480
1,48,115,0
1,43,115,0
1,50,115,0
1,55,115,0
1,48,115,0
1,53,115,0
1,46,115,0
1,43,115,240
1,41,115,0
1,43,115,0
1,50,115,0
1,48,115,473
1,41,115,0
1,43,115,0
1,50,115,0
1,48,115,480
1,41,115,0
1,43,115,0
1,50,115,0
1,48,115,480
1,41,115,0
1,43,115,0
1,50,115,0
1,55,115,0
1,48,115,0
1,53,115,0
1,46,115,0
1,43,115,240
1,41,115,0
1,43,115,0
1,50,115,0
1,48,115,473
1,41,115,0
1,50,115,0
1,43,115,0
1,55,115,0
1,48,115,0
1,41,115,0
1,50,115,0
1,43,115,0
1,55,115,0
1,48,115,0
1,41,115,0
1,43,115,0
1,50,115,0
1,55,115,0
1,55,115,0
1,48,115,0
1,60,115,0
1,53,115,0
1,46,115,0
1,58,115,0
1,43,115,0
1,41,115,0
1,43,115,0
1,50,115,0
1,55,115,0
1,48,115,0
1,41,115,0
1,50,115,0
1,43,115,0
1,55,115,0
1,48,115,0
1,41,115,0
1,50,115,0
1,43,115,0
1,55,115,0
1,48,115,0
1,41,115,0
1,43,115,0
1,50,115,0
1,55,115,0
1,55,115,0
1,48,115,0
1,60,115,0
1,53,115,0
1,46,115,0
1,58,115,0
1,43,115,0
1,41,115,0
1,53,115,0
1,48,115,0
1,41,115,0
1,53,115,65
1,46,127,7
1,48,115,0
1,46,115,0
1,48,115,0
1,46,115,0
1,48,115,0
1,46,115,0
1,48,115,0
1,40,115,0
1,41,115,0
1,42,115,0
1,43,115,0
1,48,115,0
1,46,115,0
1,48,115,0
1,46,115,0
1,48,115,0
1,46,115,0
1,48,115,0
1,40,115,0
1,41,115,0
1,42,115,0
1,43,115,0
1,48,115,0
1,46,115,0
1,48,115,0
1,46,115,0
1,48,115,0
1,46,115,0
1,48,115,0
1,40,115,0
1,41,115,0
1,42,115,0
1,43,115,0
1,46,115,0
1,53,115,0
1,58,115,0
1,41,115,0
1,48,115,0
1,53,115,0
1,48,115,0
1,60,115,0
1,48,115,0
1,58,115,120
1,48,115,0
1,55,115,0
1,48,115,0
1,53,115,0
1,51,115,0
1,46,115,0
1,48,115,84
1,41,115,1525
1,48,115,0
1,50,115,0
1,55,115,0
1,43,115,0
1,55,95,0
1,50,95,0
1,62,63,0
1,55,85,0
1,50,85,0
1,62,53,0
1,55,75,0
1,50,75,0
1,62,43,0
1,55,115,240
1,43,115,0
1,50,115,45
1,55,115,0
1,50,115,39
1,62,115,12707
1,57,115,0
1,50,115,0
1,50,115,0
1,57,115,0
1,62,115,0
1,62,115,0
1,57,115,0
1,50,115,0
1,48,115,0
1,55,115,0
1,60,115,0
1,62,115,0
1,50,115,0
1,57,115,0
1,50,115,0
1,57,115,0
1,62,115,0
1,48,115,0
1,55,115,0
1,60,115,0
1,50,115,0
1,57,115,0
1,62,115,0
1,62,115,0
1,57,115,0
1,50,115,0
1,48,115,0
1,55,115,0
1,60,115,0
1,62,115,0
1,57,115,0
1,50,115,0
1,48,115,0
1,55,115,0
1,60,115,0
1,62,115,0
1,57,115,0
1,50,115,0
1,60,115,0
1,55,115,0
1,48,115,0
1,50,115,0
1,57,115,0
1,62,115,0
1,48,115,0
1,55,115,0
1,60,115,0
1,62,115,0
1,57,115,0
1,50,115,0
1,48,115,0
1,55,115,0
1,60,115,0
1,62,115,0
1,57,115,0
1,50,115,0
1,60,115,0
1,55,115,0
1,48,115,0
1,62,115,0
1,57,115,0
1,50,115,0
1,63,115,0
1,58,115,0
1,51,115,0
1,52,115,0
1,59,115,0
1,64,115,0
1,65,115,0
1,60,115,0
1,53,115,0
1,54,115,0
1,61,115,0
1,66,115,0
1,55,115,0
1,62,115,0
1,67,115,0
1,68,115,0
1,63,115,0
1,56,115,0
1,69,115,0
1,64,115,0
1,57,115,0
1,58,115,0
1,65,115,0
1,70,115,0
1,71,115,0
1,66,115,0
1,59,115,0
1,60,115,0
1,67,115,0
1,72,115,0
1,61,115,0
1,68,115,0
1,73,115,0
1,74,115,0
1,69,115,0
1,62,115,0
1,75,115,0
1,70,115,0
1,63,115,0
1,64,115,0
1,71,115,0
1,76,115,0
1,77,115,0
1,72,115,0
1,65,115,0
1,66,115,0
1,73,115,0
1,78,115,0
1,67,115,0
1,74,115,0
1,79,115,0
1,80,115,0
1,75,115,0
1,68,115,0
1,81,115,0
1,76,115,0
1,69,115,0
1,70,115,0
1,77,115,0
1,82,115,0
1,83,115,0
1,78,115,0
1,71,115,0
1,84,115,0
1,79,115,0
1,72,115,0
1,41,115,0
1,48,115,0
1,43,115,0
1,50,115,0
1,41,115,480
1,48,115,0
1,43,115,0
1,50,115,0
1,41,115,480
1,48,115,0
1,43,115,0
1,50,115,0
1,55,115,0
1,48,115,0
1,53,115,0
1,46,115,0
1,43,115,240
1,41,115,0
1,43,115,0
1,50,115,0
1,48,115,473
1,41,115,0
1,43,115,0
1,50,115,0
1,48,115,480
1,41,115,0
1,43,115,0
1,50,115,0
1,48,115,480
1,41,115,0
1,43,115,0
1,50,115,0
1,55,115,0
1,48,115,0
1,53,115,0
1,46,115,0
1,43,115,240
1,41,115,0
1,43,115,0
1,50,115,0
1,48,115,473
1,41,115,0
1,50,115,0
1,43,115,0
1,55,115,0
1,48,115,0
1,41,115,0
1,50,115,0
1,43,115,0
1,55,115,0
1,41,115,0
1,48,115,0
1,43,115,0
1,50,115,0
1,55,115,0
1,55,115,0
1,48,115,0
1,60,115,0
1,53,115,0
1,46,115,0
1,58,115,0
1,43,115,0
1,41,115,0
1,43,115,0
1,50,115,0
1,55,115,0
1,48,115,0
1,41,115,0
1,50,115,0
1,43,115,0
1,55,115,0
1,48,115,0
1,41,115,0
1,50,115,0
1,43,115,0
1,55,115,0
1,48,115,0
1,41,115,0
1,43,115,0
1,50,115,0
1,55,115,0
1,55,115,0
1,48,115,0
1,60,115,0
1,53,115,0
1,46,115,0
1,58,115,0
1,43,115,0
1,41,115,0
1,53,115,0
1,48,115,0
1,41,115,0
1,53,115,65
1,46,127,7
1,48,115,0
1,46,115,0
1,48,115,0
1,46,115,0
1,48,115,0
1,46,115,0
1,48,115,0
1,40,115,0
1,41,115,0
1,42,115,0
1,43,115,0
1,48,115,0
1,46,115,0
1,48,115,0
1,46,115,0
1,48,115,0
1,46,115,0
1,48,115,0
1,40,115,0
1,41,115,0
1,42,115,0
1,43,115,0
1,48,115,0
1,46,115,0
1,48,115,0
1,46,115,0
1,48,115,0
1,46,115,0
1,48,115,0
1,40,115,0
1,41,115,0
1,42,115,0
1,43,115,0
1,46,115,0
1,53,115,0
1,58,115,0
1,41,115,0
1,48,115,0
1,53,115,0
1,48,115,0
1,60,115,0
1,48,115,0
1,58,115,120
1,48,115,0
1,55,115,0
1,48,115,0
1,53,115,0
1,51,115,0
1,46,115,0
1,48,115,84
1,46,115,0
1,48,115,0
1,46,115,0
1,48,115,0
1,46,115,0
1,48,115,0
1,40,115,0
1,41,115,0
1,42,115,0
1,43,115,0
1,48,115,0
1,46,115,0
1,48,115,0
1,46,115,0
1,48,115,0
1,46,115,0
1,48,115,0
1,40,115,0
1,41,115,0
1,42,115,0
1,43,115,0
1,48,115,0
1,46,115,0
1,48,115,0
1,46,115,0
1,48,115,0
1,46,115,0
1,48,115,0
1,40,115,0
1,41,115,0
1,42,115,0
1,43,115,0
1,46,115,0
1,53,115,0
1,58,115,0
1,41,115,0
1,48,115,0
1,53,115,0
1,55,115,0
1,50,115,0
1,43,115,0
1,48,115,1706
1,46,115,0
1,48,115,0
1,46,115,0
1,48,115,0
1,46,115,0
1,48,115,0
1,40,115,0
1,41,115,0
1,42,115,0
1,43,115,0
1,48,115,0
1,46,115,0
1,48,115,0
1,46,115,0
1,48,115,0
1,46,115,0
1,48,115,0
1,40,115,0
1,41,115,0
1,42,115,0
1,43,115,0
1,48,115,0
1,46,115,0
1,48,115,0
1,46,115,0
1,48,115,0
1,46,115,0
1,48,115,0
1,40,115,0
1,41,115,0
1,42,115,0
1,43,115,0
1,46,115,0
1,53,115,0
1,58,115,0
1,41,115,0
1,48,115,0
1,53,115,0
1,55,115,0
1,50,115,0
1,43,115,0
1,53,115,506
1,48,115,0
1,41,115,0
1,43,115,0
1,50,115,0
1,55,115,0
1,41,115,480
1,48,115,0
1,53,115,0
1,43,115,0
1,50,115,0
1,55,115,0
1,41,115,480
1,48,115,0
1,53,115,0
1,43,115,0
1,50,115,0
1,55,115,0
1,50,115,720
1,55,115,0
1,43,115,0
1,50,88,0
1,55,88,0
1,55,88,0
1,50,88,0
1,55,88,0
1,50,88,0
1,55,88,0
1,50,88,0
1,55,88,0
1,50,88,0
1,55,88,0
1,50,88,0
1,55,88,0
1,50,88,0
1,55,88,0
1,50,88,0
1,55,88,0
1,50,88,0
1,55,88,0
1,50,88,0
1,55,88,0
1,50,88,0
1,55,88,0
1,50,88,0
1,55,88,0
1,50,88,0
1,55,88,0
1,50,88,0
1,55,88,0
1,50,88,0
1,55,88,0
1,50,88,0
1,55,88,0
1,50,88,0
1,55,88,0
1,50,88,0
1,55,88,0
1,50,88,0
1,55,88,0
1,50,88,0
1,55,88,0
1,50,88,0
1,55,88,0
1,50,88,0
1,55,88,0
1,50,88,0
1,55,88,0
1,50,88,0
1,55,88,0
1,50,88,0
1,55,88,0
1,50,88,0
1,55,88,0
1,50,88,0
1,55,88,0
1,50,88,0
1,55,88,0
1,50,88,0
1,55,88,0
1,50,88,0
1,55,88,0
1,50,88,0
1,55,88,0
1,50,88,0
1,55,88,0
1,50,88,0
1,55,88,0
1,50,88,0
1,55,88,0
1,50,88,0
1,55,88,0
1,50,88,0
1,55,88,0
1,50,88,0
1,55,88,0
1,50,88,0
1,55,88,0
1,50,88,0
1,55,88,0
1,50,88,0
1,50,115,0
1,55,115,0
1,43,115,0
1,50,115,0
1,55,115,0
2,53,115,1920
2,60,115,0
2,60,115,0
2,53,115,0
2,55,115,0
2,62,115,0
2,60,115,480
2,53,115,0
2,60,115,0
2,53,115,0
2,55,115,0
2,62,115,0
2,60,115,480
2,53,115,0
2,60,115,0
2,53,115,0
2,55,115,0
2,62,115,0
2,67,115,0
2,60,115,0
2,65,115,0
2,58,115,0
2,55,115,240
2,53,115,0
2,55,115,0
2,62,115,0
2,60,115,473
2,53,115,0
2,60,115,0
2,53,115,0
2,55,115,0
2,62,115,0
2,60,115,480
2,53,115,0
2,60,115,0
2,53,115,0
2,55,115,0
2,62,115,0
2,60,115,480
2,53,115,0
2,60,115,0
2,53,115,0
2,55,115,0
2,62,115,0
2,67,115,0
2,60,115,0
2,65,115,0
2,58,115,0
2,55,115,240
2,53,115,0
2,55,115,0
2,62,115,0
2,60,115,473
2,53,115,0
2,60,115,0
2,53,115,0
2,62,115,0
2,55,115,0
2,67,115,0
2,53,115,0
2,60,115,0
2,60,115,0
2,53,115,0
2,62,115,0
2,55,115,0
2,67,115,0
2,53,115,0
2,60,115,0
2,60,115,0
2,53,115,0
2,55,115,0
2,62,115,0
2,67,115,0
2,67,115,0
2,60,115,0
2,72,115,0
2,65,115,0
2,58,115,0
2,70,115,0
2,55,115,0
2,53,115,0
2,55,115,0
2,62,115,0
2,67,115,0
2,53,115,0
2,60,115,0
2,60,115,0
2,53,115,0
2,62,115,0
2,55,115,0
2,67,115,0
2,53,115,0
2,60,115,0
2,60,115,0
2,53,115,0
2,62,115,0
2,55,115,0
2,67,115,0
2,53,115,0
2,60,115,0
2,60,115,0
2,53,115,0
2,55,115,0
2,62,115,0
2,67,115,0
2,67,115,0
2,60,115,0
2,72,115,0
2,65,115,0
2,58,115,0
2,70,115,0
2,55,115,0
2,53,115,0
2,70,115,247
2,65,115,0
2,58,115,0
2,72,115,0
2,70,115,0
2,72,115,0
2,70,115,0
2,72,115,0
2,70,115,0
2,72,115,0
2,64,115,0
2,65,115,0
2,66,115,0
2,67,115,0
2,72,115,0
2,70,115,0
2,72,115,0
2,70,115,0
2,72,115,0
2,70,115,0
2,72,115,0
2,64,115,0
2,65,115,0
2,66,115,0
2,67,115,0
2,72,115,0
2,70,115,0
2,72,115,0
2,70,115,0
2,72,115,0
2,70,115,0
2,72,115,0
2,64,115,0
2,65,115,0
2,66,115,0
2,67,115,0
2,58,115,0
2,65,115,0
2,70,115,0
2,53,115,0
2,60,115,0
2,65,115,0
2,60,115,0
2,72,115,0
2,60,115,0
2,70,115,120
2,60,115,0
2,67,115,0
2,60,115,0
2,65,115,0
2,63,115,0
2,58,115,0
2,60,115,84
2,60,115,1525
2,53,115,0
2,60,115,0
2,53,115,0
2,55,115,0
2,62,115,0
2,60,115,480
2,53,115,0
2,60,115,0
2,53,115,0
2,55,115,0
2,62,115,0
2,60,115,480
2,53,115,0
2,60,115,0
2,53,115,0
2,55,115,0
2,62,115,0
2,67,115,0
2,60,115,0
2,65,115,0
2,58,115,0
2,55,115,240
2,53,115,0
2,55,115,0
2,62,115,0
2,60,115,473
2,53,115,0
2,60,115,0
2,53,115,0
2,55,115,0
2,62,115,0
2,60,115,480
2,53,115,0
2,60,115,0
2,53,115,0
2,55,115,0
2,62,115,0
2,60,115,480
2,53,115,0
2,60,115,0
2,53,115,0
2,55,115,0
2,62,115,0
2,67,115,0
2,60,115,0
2,65,115,0
2,58,115,0
2,55,115,240
2,53,115,0
2,55,115,0
2,62,115,0
2,60,115,473
2,53,115,0
2,60,115,0
2,53,115,0
2,62,115,0
2,55,115,0
2,67,115,0
2,53,115,0
2,60,115,0
2,60,115,0
2,53,115,0
2,62,115,0
2,55,115,0
