track,note,velocity,time
0,57,100,0
0,57,0,6
0,60,100,18
0,60,0,28
0,60,100,20
0,60,0,6
0,55,100,18
0,55,0,30
0,57,100,18
0,57,0,30
0,57,100,18
0,57,0,6
0,57,100,18
0,57,0,6
0,57,100,18
0,57,0,6
0,67,100,18
0,64,100,0
0,67,0,1
0,64,0,0
0,60,100,0
0,60,0,28
0,67,100,20
0,64,100,0
0,67,0,1
0,64,0,0
0,60,100,0
0,60,0,28
0,60,100,20
0,60,0,6
0,55,100,18
0,55,0,30
0,57,100,18
0,57,0,30
0,57,100,18
0,57,0,6
0,67,100,18
0,64,100,0
0,67,0,1
0,64,0,0
0,60,100,0
0,33,100,0
0,49,120,0
0,36,120,0
0,49,0,24
0,36,0,0
0,46,120,0
0,60,0,4
0,33,0,20
0,60,100,0
0,33,100,0
0,60,0,6
0,33,0,18
0,46,0,0
0,55,100,0
0,31,100,0
0,46,120,0
0,31,0,24
0,31,100,0
0,55,0,6
0,31,0,18
0,46,0,0
0,57,100,0
0,33,100,0
0,46,120,0
0,38,120,0
0,33,0,24
0,33,100,0
0,57,0,6
0,33,0,18
0,46,0,0
0,38,0,0
0,57,100,0
0,31,100,0
0,46,120,0
0,57,0,6
0,31,0,18
0,36,120,0
0,57,100,0
0,31,100,0
0,57,0,6
0,31,0,18
0,46,0,0
0,36,0,0
0,57,100,0
0,33,100,0
0,46,120,0
0,57,0,6
0,33,0,18
0,67,100,0
0,64,100,0
0,31,100,0
0,31,0,1
0,46,0,0
0,33,100,0
0,46,120,0
0,36,120,0
0,67,0,1
0,64,0,0
0,33,0,0
0,60,100,0
0,36,100,0
0,46,0,24
0,36,0,0
0,46,120,0
0,38,120,0
0,60,0,4
0,67,100,20
0,64,100,0
0,46,0,1
0,38,0,0
0,46,120,0
0,67,0,1
0,64,0,0
0,36,0,0
0,36,120,0
0,60,100,0
0,33,100,0
0,46,0,24
0,36,0,0
0,46,120,0
0,60,0,4
0,33,0,20
0,60,100,0
0,33,100,0
0,60,0,6
0,33,0,18
0,46,0,0
0,55,100,0
0,31,100,0
0,46,120,0
0,36,120,0
0,31,0,24
0,36,0,0
0,31,100,0
0,36,120,0
0,55,0,6
0,31,0,18
0,46,0,0
0,36,0,0
0,57,100,0
0,33,100,0
0,46,120,0
0,38,120,0
0,33,0,24
0,33,100,0
0,57,0,6
0,33,0,18
0,46,0,0
0,38,0,0
0,57,100,0
0,31,100,0
0,46,120,0
0,57,0,6
0,31,0,18
0,36,120,0
0,67,100,0
0,64,100,0
0,31,100,0
0,31,0,1
0,46,0,0
0,36,0,0
0,33,100,0
0,46,120,0
0,67,0,1
0,64,0,0
0,33,0,0
0,60,100,0
0,31,100,0
0,31,0,24
0,46,0,0
0,33,100,0
0,46,120,0
0,36,120,0
0,60,0,4
0,33,0,20
0,67,100,0
0,64,100,0
0,38,100,0
0,46,0,1
0,36,0,0
0,46,120,0
0,38,120,0
0,67,0,1
0,64,0,0
0,60,100,0
0,46,0,1
0,38,0,0
0,46,120,0
0,60,0,1
0,38,0,1
0,36,120,0
0,60,100,0
0,33,100,0
0,46,0,24
0,36,0,0
0,46,120,0
0,60,0,4
0,33,0,20
0,60,100,0
0,33,100,0
0,60,0,6
0,33,0,18
0,46,0,0
0,55,100,0
0,31,100,0
0,46,120,0
0,36,120,0
0,31,0,24
0,31,100,0
0,55,0,6
0,31,0,18
0,46,0,0
0,36,0,0
0,57,100,0
0,33,100,0
0,46,120,0
0,38,120,0
0,33,0,24
0,33,100,0
0,57,0,6
0,33,0,18
0,46,0,0
0,38,0,0
0,57,100,0
0,31,100,0
0,46,120,0
0,57,0,6
0,31,0,18
0,36,120,0
0,57,100,0
0,31,100,0
0,57,0,6
0,31,0,18
0,46,0,0
0,36,0,0
0,57,100,0
0,33,100,0
0,46,120,0
0,57,0,6
0,33,0,18
0,67,100,0
0,64,100,0
0,31,100,0
0,31,0,1
0,46,0,0
0,33,100,0
0,46,120,0
0,36,120,0
0,67,0,1
0,64,0,0
0,33,0,0
0,60,100,0
0,36,100,0
0,46,0,24
0,36,0,0
0,46,120,0
0,38,120,0
0,60,0,4
0,67,100,20
0,64,100,0
0,46,0,1
0,38,0,0
0,46,120,0
0,67,0,1
0,64,0,0
0,36,0,0
0,36,120,0
0,60,100,0
0,33,100,0
0,46,0,24
0,36,0,0
0,46,120,0
0,60,0,4
0,33,0,20
0,60,100,0
0,33,100,0
0,60,0,6
0,33,0,18
0,46,0,0
0,55,100,0
0,31,100,0
0,46,120,0
0,36,120,0
0,31,0,24
0,31,100,0
0,55,0,6
0,31,0,18
0,46,0,0
0,36,0,0
0,57,100,0
0,33,100,0
0,46,120,0
0,38,120,0
0,33,0,24
0,33,100,0
0,57,0,6
0,33,0,18
0,46,0,0
0,38,0,0
0,57,100,0
0,31,100,0
0,46,120,0
0,57,0,6
0,31,0,18
0,38,120,0
0,67,100,0
0,64,100,0
0,31,100,0
0,31,0,1
0,46,0,0
0,38,0,0
0,40,100,0
0,36,120,0
0,46,120,0
0,67,0,1
0,64,0,0
0,40,0,0
0,60,100,0
0,43,100,0
0,43,0,24
0,36,0,0
0,46,0,0
0,39,100,0
0,38,120,0
0,60,0,4
0,39,0,20
0,67,100,0
0,64,100,0
0,40,100,0
0,40,0,1
0,38,0,0
0,43,100,0
0,38,120,0
0,43,0,1
0,38,0,0
0,39,100,0
0,38,120,0
0,39,0,24
0,38,0,0
0,38,100,0
0,38,120,0
0,38,0,24
0,38,0,0
0,36,100,0
0,38,120,0
0,67,0,1
0,64,0,0
0,36,0,0
0,38,0,0
0,67,100,0
0,64,100,0
0,60,100,0
0,57,100,0
0,33,100,0
0,49,120,0
0,36,120,0
0,69,100,0
0,67,0,1
0,64,0,0
0,60,0,0
0,57,0,0
0,33,0,0
0,67,100,0
0,64,100,0
0,60,100,0
0,57,100,0
0,33,100,0
0,67,0,24
0,64,0,0
0,60,0,0
0,57,0,0
0,33,0,0
0,49,0,0
0,36,0,0
0,69,0,0
0,67,100,0
0,64,100,0
0,60,100,0
0,57,100,0
0,31,100,0
0,46,120,0
0,69,100,0
0,67,0,24
0,64,0,0
0,60,0,0
0,57,0,0
0,31,0,0
0,67,100,0
0,64,100,0
0,60,100,0
0,57,100,0
0,31,100,0
0,67,0,24
0,64,0,0
0,60,0,0
0,57,0,0
0,31,0,0
0,46,0,0
0,69,0,0
0,67,100,0
0,64,100,0
0,60,100,0
0,57,100,0
0,33,100,0
0,46,120,0
0,38,120,0
0,69,100,0
0,67,0,6
0,64,0,0
0,60,0,0
0,57,0,0
0,33,0,18
0,67,100,0
0,64,100,0
0,60,100,0
0,57,100,0
0,33,100,0
0,67,0,6
0,64,0,0
0,60,0,0
0,57,0,0
0,33,0,18
0,46,0,0
0,38,0,0
0,69,0,0
0,67,100,0
0,64,100,0
0,60,100,0
0,57,100,0
0,31,100,0
0,46,120,0
0,64,100,0
0,67,0,24
0,64,0,0
0,60,0,0
0,57,0,0
0,31,0,0
0,36,120,0
0,67,100,0
0,64,100,0
0,60,100,0
0,57,100,0
0,31,100,0
0,67,0,24
0,64,0,0
0,60,0,0
0,57,0,0
0,31,0,0
0,46,0,0
0,36,0,0
0,67,100,0
0,64,100,0
0,60,100,0
0,57,100,0
0,33,100,0
0,46,120,0
0,67,0,24
0,64,0,0
0,60,0,0
0,57,0,0
0,33,0,0
0,67,100,0
0,64,100,0
0,60,100,0
0,57,100,0
0,31,100,0
0,31,0,24
0,46,0,0
0,64,0,0
0,33,100,0
0,46,120,0
0,36,120,0
0,64,100,0
0,67,0,24
0,64,0,0
0,60,0,0
0,57,0,0
0,33,0,0
0,67,100,0
0,64,100,0
0,60,100,0
0,57,100,0
0,36,100,0
0,67,0,6
0,64,0,0
0,60,0,0
0,57,0,0
0,46,0,18
0,36,0,0
0,64,0,0
0,67,100,0
0,64,100,0
0,60,100,0
0,57,100,0
0,46,120,0
0,38,120,0
0,62,100,0
0,67,0,24
0,64,0,0
0,60,0,0
0,57,0,0
0,67,100,0
0,64,100,0
0,60,100,0
0,57,100,0
0,67,0,24
0,64,0,0
0,60,0,0
0,57,0,0
0,36,0,0
0,46,0,0
0,38,0,0
0,62,0,0
0,67,100,0
0,64,100,0
0,60,100,0
0,57,100,0
0,38,100,0
0,46,120,0
0,60,100,0
0,67,0,24
0,64,0,0
0,60,0,0
0,57,0,0
0,36,120,0
0,66,100,0
0,64,100,0
0,60,100,0
0,57,100,0
0,46,0,24
0,36,0,0
0,60,0,0
0,46,120,0
0,62,100,0
0,38,0,24
0,62,0,0
0,38,100,0
0,57,100,0
0,66,0,24
0,64,0,0
0,60,0,0
0,57,0,0
0,38,0,0
0,46,0,0
0,66,100,0
0,64,100,0
0,60,100,0
0,57,100,0
0,33,100,0
0,46,120,0
0,36,120,0
0,66,0,24
0,64,0,0
0,60,0,0
0,57,0,0
0,33,0,0
0,36,0,0
0,57,0,0
0,66,100,0
0,64,100,0
0,60,100,0
0,57,100,0
0,33,100,0
0,36,120,0
0,58,100,0
0,66,0,1
0,64,0,0
0,60,0,0
0,57,0,0
0,33,0,0
0,46,0,0
0,36,0,0
0,67,100,0
0,64,100,0
0,60,100,0
0,57,100,0
0,38,100,0
0,46,120,0
0,38,120,0
0,38,0,24
0,38,100,0
0,67,0,24
0,64,0,0
0,60,0,0
0,57,0,0
0,38,0,0
0,46,0,0
0,38,0,0
0,67,100,0
0,64,100,0
0,60,100,0
0,57,100,0
0,33,100,0
0,46,120,0
0,67,0,24
0,64,0,0
0,60,0,0
0,57,0,0
0,33,0,0
0,36,120,0
0,66,100,0
0,64,100,0
0,60,100,0
0,57,100,0
0,31,100,0
0,31,0,24
0,46,0,0
0,36,0,0
0,58,0,0
0,33,100,0
0,46,120,0
0,33,0,24
0,31,100,0
0,66,0,24
0,64,0,0
0,60,0,0
0,57,0,0
0,31,0,0
0,46,0,0
0,66,100,0
0,64,100,0
0,60,100,0
0,57,100,0
0,33,100,0
0,46,120,0
0,36,120,0
0,64,100,0
0,66,0,6
0,64,0,0
0,60,0,0
0,57,0,0
0,33,0,18
0,66,100,0
0,64,100,0
0,60,100,0
0,57,100,0
0,36,100,0
0,66,0,6
0,64,0,0
0,60,0,0
0,57,0,0
0,46,0,18
0,36,0,0
0,64,0,0
0,66,100,0
0,64,100,0
0,60,100,0
0,57,100,0
0,46,120,0
0,38,120,0
0,67,100,0
0,66,0,24
0,64,0,0
0,60,0,0
0,57,0,0
0,67,0,0
0,66,100,0
0,64,100,0
0,60,100,0
0,57,100,0
0,69,100,0
0,66,0,24
0,64,0,0
0,60,0,0
0,57,0,0
0,36,0,0
0,46,0,0
0,38,0,0
0,66,100,0
0,64,100,0
0,60,100,0
0,57,100,0
0,33,100,0
0,46,120,0
0,66,0,6
0,64,0,0
0,60,0,0
0,57,0,0
0,33,0,18
0,36,120,0
0,69,0,0
0,66,100,0
0,64,100,0
0,60,100,0
0,57,100,0
0,31,100,0
0,62,100,0
0,66,0,6
0,64,0,0
0,60,0,0
0,57,0,0
0,31,0,18
0,46,0,0
0,36,0,0
0,53,100,0
0,53,100,0
0,29,100,0
0,49,120,0
0,36,120,0
0,55,100,25
0,55,100,0
0,49,0,0
0,36,0,0
0,46,120,0
0,60,100,25
0,60,100,0
0,46,0,0
0,46,120,0
0,38,120,0
0,57,100,48
0,57,100,0
0,46,0,0
0,38,0,0
0,62,0,0
0,46,120,0
0,60,100,0
0,60,0,24
0,60,100,0
0,60,0,24
0,57,0,0
0,55,0,0
0,53,0,0
0,60,0,0
0,57,0,0
0,55,0,0
0,53,0,0
0,29,0,0
0,46,0,0
0,60,0,0
0,55,100,0
0,55,100,0
0,31,100,0
0,46,120,0
0,36,120,0
0,62,100,0
0,31,0,48
0,46,0,0
0,36,0,0
0,62,0,0
0,57,100,0
0,57,100,0
0,31,100,0
0,46,120,0
0,36,120,0
0,62,100,0
0,62,100,24
0,62,100,0
0,46,0,24
0,36,0,0
0,62,0,0
0,46,120,0
0,38,120,0
0,60,100,0
0,60,0,24
0,57,100,0
0,62,0,24
0,57,0,0
0,55,0,0
0,62,0,0
0,57,0,0
0,55,0,0
0,31,0,0
0,46,0,0
0,38,0,0
0,52,100,0
0,52,110,0
0,33,100,0
0,46,120,0
0,36,120,0
0,57,100,5
0,61,100,6
0,57,110,0
0,64,100,6
0,61,110,6
0,57,0,1
0,60,100,0
0,64,110,10
0,46,0,14
0,36,0,0
0,46,120,0
0,33,0,24
0,60,0,0
0,33,100,0
0,57,100,0
0,33,0,1
0,46,0,0
0,31,100,0
0,46,120,0
0,36,120,0
0,31,0,24
0,31,100,0
0,64,0,23
0,61,0,0
0,57,0,0
0,52,0,1
0,31,0,0
0,46,0,0
0,36,0,0
0,66,100,0
0,61,100,0
0,57,100,0
0,52,100,0
0,33,100,0
0,46,120,0
0,38,120,0
0,33,0,24
0,33,100,0
0,33,0,24
0,46,0,0
0,38,0,0
0,31,100,0
0,46,120,0
0,66,0,24
0,61,0,0
0,57,0,0
0,52,0,0
0,31,0,0
0,64,100,0
0,61,100,0
0,57,100,0
0,52,100,0
0,31,100,0
0,31,0,24
0,46,0,0
0,33,100,0
0,46,120,0
0,36,120,0
0,33,0,24
0,46,0,0
0,36,0,0
0,31,100,0
0,38,120,0
0,64,0,23
0,61,0,0
0,57,0,0
0,52,0,1
0,31,0,0
0,38,0,0
0,57,0,0
0,33,100,0
0,38,120,0
0,33,0,24
0,37,100,0
0,64,0,1
0,61,0,0
0,57,0,0
0,52,0,0
0,38,0,0
0,64,100,0
0,61,100,0
0,57,100,0
0,52,100,0
0,38,120,0
0,64,0,1
0,61,0,0
0,57,0,0
0,52,0,0
0,38,0,1
0,64,100,0
0,61,100,0
0,57,100,0
0,52,100,0
0,47,120,0
0,64,0,1
0,61,0,0
0,57,0,0
0,52,0,0
0,47,0,1
0,64,100,0
0,61,100,0
0,57,100,0
0,52,100,0
0,45,120,0
0,64,0,1
0,61,0,0
0,57,0,0
0,52,0,0
0,45,0,1
0,64,100,0
0,61,100,0
0,57,100,0
0,52,100,0
0,38,120,0
0,64,0,1
0,61,0,0
0,57,0,0
0,52,0,0
0,37,0,1
0,38,0,0
0,67,100,0
0,64,100,0
0,60,100,0
0,57,100,0
0,33,100,0
0,49,120,0
0,36,120,0
0,69,100,0
0,67,0,1
0,64,0,0
0,60,0,0
0,57,0,0
0,33,0,0
0,67,100,0
0,64,100,0
0,60,100,0
0,57,100,0
0,33,100,0
0,67,0,24
0,64,0,0
0,60,0,0
0,57,0,0
0,33,0,0
0,49,0,0
0,36,0,0
0,67,100,0
0,64,100,0
0,60,100,0
0,57,100,0
0,31,100,0
0,46,120,0
0,67,0,24
0,64,0,0
0,60,0,0
0,57,0,0
0,31,0,0
0,67,100,0
0,64,100,0
0,60,100,0
0,57,100,0
0,31,100,0
0,67,0,24
0,64,0,0
0,60,0,0
0,57,0,0
0,31,0,0
0,46,0,0
0,69,0,0
0,67,100,0
0,64,100,0
0,60,100,0
0,57,100,0
0,33,100,0
0,46,120,0
0,38,120,0
0,69,100,0
0,67,0,6
0,64,0,0
0,60,0,0
0,57,0,0
0,33,0,18
0,67,100,0
0,64,100,0
0,60,100,0
0,57,100,0
0,33,100,0
0,67,0,6
0,64,0,0
0,60,0,0
0,57,0,0
0,33,0,18
0,46,0,0
0,38,0,0
0,69,0,0
0,67,100,0
0,64,100,0
0,60,100,0
0,57,100,0
0,31,100,0
0,46,120,0
0,64,100,0
0,67,0,24
0,64,0,0
0,60,0,0
0,57,0,0
0,31,0,0
0,36,120,0
0,67,100,0
0,64,100,0
0,60,100,0
0,57,100,0
0,31,100,0
0,67,0,24
0,64,0,0
0,60,0,0
0,57,0,0
0,31,0,0
0,46,0,0
0,36,0,0
0,67,100,0
0,64,100,0
0,60,100,0
0,57,100,0
0,33,100,0
0,46,120,0
0,67,0,24
0,64,0,0
0,60,0,0
0,57,0,0
0,33,0,0
