track,note,velocity,time
3,38,75,1634
3,38,0,58
3,38,68,60
3,38,0,58
3,38,68,64
3,38,0,58
3,38,68,60
3,38,0,58
3,38,75,62
3,38,0,58
3,38,68,62
3,38,0,58
3,38,68,62
3,38,0,58
3,38,68,62
3,38,0,58
3,38,75,64
3,38,0,58
3,38,68,60
3,38,0,58
3,38,68,64
3,38,0,58
3,38,68,60
3,38,0,58
3,38,75,62
3,38,0,58
3,38,68,62
3,38,0,58
3,38,68,62
3,38,0,58
3,38,68,62
3,38,0,58
3,38,75,64
3,38,0,58
3,38,68,60
3,38,0,58
3,38,68,64
3,38,0,58
3,38,68,60
3,38,0,58
3,38,75,62
3,38,0,58
3,38,68,62
3,38,0,58
3,38,68,62
3,38,0,58
3,38,68,62
3,38,0,58
3,38,75,64
3,38,0,58
3,38,68,60
3,38,0,58
3,38,68,64
3,38,0,58
3,38,68,60
3,38,0,58
3,38,75,62
3,38,0,58
3,38,68,62
3,38,0,58
3,38,68,62
3,38,0,58
3,38,68,62
3,38,0,58
3,38,75,64
3,38,0,58
3,38,68,60
3,38,0,58
3,38,68,64
3,38,0,58
3,38,68,60
3,38,0,58
3,38,75,62
3,38,0,58
3,38,68,62
3,38,0,58
3,38,68,62
3,38,0,58
3,38,68,62
3,38,0,58
3,38,75,64
3,38,0,58
3,38,68,60
3,38,0,58
3,38,68,64
3,38,0,58
3,38,68,60
3,38,0,58
3,38,75,62
3,38,0,58
3,38,68,62
3,38,0,58
3,38,68,62
3,38,0,58
3,38,68,62
3,38,0,58
3,38,75,64
3,38,0,58
3,38,68,60
3,38,0,58
3,38,68,64
3,38,0,58
3,38,68,60
3,38,0,58
3,38,75,62
3,38,0,58
3,38,68,62
3,38,0,58
3,38,68,62
3,38,0,58
3,38,68,62
3,38,0,58
3,38,99,64
3,38,0,58
3,38,68,60
3,38,0,58
3,38,99,64
3,38,0,58
3,38,68,60
3,38,0,58
3,38,99,62
3,38,0,58
3,38,68,62
3,38,0,58
3,38,99,62
3,38,0,58
3,38,68,62
3,38,0,58
3,38,70,64
3,38,0,58
3,38,70,60
3,38,0,58
3,38,120,62
3,38,0,58
3,38,70,62
3,38,0,58
3,38,70,62
3,38,0,58
3,38,70,62
3,38,0,58
3,38,120,62
3,38,0,58
3,38,70,62
3,38,0,58
3,38,70,64
3,38,0,58
3,38,70,60
3,38,0,58
3,38,120,62
3,38,0,58
3,38,70,62
3,38,0,58
3,38,70,62
3,38,0,58
3,38,70,62
3,38,0,58
3,38,120,62
3,38,0,58
3,38,70,62
3,38,0,58
3,38,70,64
3,38,0,58
3,38,70,60
3,38,0,58
3,38,120,62
3,38,0,58
3,38,70,62
3,38,0,58
3,38,70,62
3,38,0,58
3,38,70,62
3,38,0,58
3,38,120,62
3,38,0,58
3,38,70,62
3,38,0,58
3,38,70,64
3,38,0,58
3,38,70,60
3,38,0,58
3,38,120,62
3,38,0,58
3,38,70,62
3,38,0,58
3,38,70,62
3,38,0,58
3,38,70,62
3,38,0,58
3,38,120,62
3,38,0,58
3,38,70,62
3,38,0,58
3,38,70,64
3,38,0,58
3,38,70,60
3,38,0,58
3,38,120,62
3,38,0,58
3,38,70,62
3,38,0,58
3,38,70,62
3,38,0,58
3,38,70,62
3,38,0,58
3,38,120,62
3,38,0,58
3,38,70,62
3,38,0,58
3,38,70,64
3,38,0,58
3,38,70,60
3,38,0,58
3,38,120,62
3,38,0,58
3,38,70,62
3,38,0,58
3,38,70,62
3,38,0,58
3,38,70,62
3,38,0,58
3,38,120,62
3,38,0,58
3,38,70,62
3,38,0,58
3,38,70,64
3,38,0,58
3,38,70,60
3,38,0,58
3,38,120,62
3,38,0,58
3,38,70,62
3,38,0,58
3,38,70,62
3,38,0,58
3,38,70,62
3,38,0,58
3,38,120,62
3,38,0,58
3,38,70,62
3,38,0,58
3,38,70,64
3,38,0,58
3,38,70,60
3,38,0,58
3,38,120,62
3,38,0,58
3,38,70,62
3,38,0,58
3,38,70,62
3,38,0,58
3,38,70,62
3,38,0,58
3,38,120,62
3,38,0,58
3,38,70,62
3,38,0,58
3,38,70,64
3,38,0,58
3,38,70,60
3,38,0,58
3,38,120,62
3,38,0,58
3,38,70,62
3,38,0,58
3,38,70,62
3,38,0,58
3,38,70,62
3,38,0,58
3,38,120,62
3,38,0,58
3,38,70,62
3,38,0,58
3,38,70,64
3,38,0,58
3,38,70,60
3,38,0,58
3,38,120,62
3,38,0,58
3,38,70,62
3,38,0,58
3,38,70,62
3,38,0,58
3,38,70,62
3,38,0,58
3,38,120,62
3,38,0,58
3,38,70,62
3,38,0,58
3,38,70,64
3,38,0,58
3,38,70,60
3,38,0,58
3,38,120,62
3,38,0,58
3,38,70,62
3,38,0,58
3,38,70,62
3,38,0,58
3,38,70,62
3,38,0,58
3,38,120,62
3,38,0,58
3,38,70,62
3,38,0,58
3,38,70,64
3,38,0,58
3,38,70,60
3,38,0,58
3,38,120,62
3,38,0,58
3,38,70,62
3,38,0,58
3,38,70,62
3,38,0,58
3,38,70,62
3,38,0,58
3,38,120,62
3,38,0,58
3,38,70,62
3,38,0,58
3,38,70,64
3,38,0,58
3,38,70,60
3,38,0,58
3,38,120,62
3,38,0,58
3,38,70,62
3,38,0,58
3,38,70,62
3,38,0,58
3,38,70,62
3,38,0,58
3,38,120,62
3,38,0,58
3,38,70,62
3,38,0,58
3,38,70,64
3,38,0,58
3,38,70,60
3,38,0,58
3,38,120,62
3,38,0,58
3,38,70,62
3,38,0,58
3,38,70,62
3,38,0,58
3,38,70,62
3,38,0,58
3,38,120,62
3,38,0,58
3,38,70,62
3,38,0,58
3,38,120,62
3,38,0,58
3,38,120,2
3,38,0,58
3,38,120,2
3,38,0,58
3,38,120,2
3,38,0,58
3,45,120,2
3,45,0,58
3,45,120,2
3,45,0,58
3,45,120,2
3,45,0,58
3,45,120,2
3,45,0,58
3,43,120,2
3,43,0,58
3,43,120,2
3,43,0,58
3,43,120,2
3,43,0,58
3,43,120,2
3,43,0,58
3,43,120,2
3,43,0,58
3,41,120,2
3,41,0,58
3,41,110,2
3,41,0,58
3,41,100,2
3,41,0,58
3,35,120,2
3,49,90,0
3,49,0,58
3,35,0,0
3,35,120,422
3,49,90,0
3,49,0,58
3,35,0,0
3,35,120,422
3,57,90,0
3,57,0,58
3,35,0,0
3,38,120,182
3,46,87,0
3,46,0,58
3,38,0,0
3,35,120,182
3,46,87,0
3,46,0,58
3,35,0,0
3,35,120,62
3,35,0,58
3,46,87,62
3,38,120,0
3,38,0,58
3,46,0,0
3,46,87,182
3,35,120,0
3,35,0,58
3,46,0,0
3,46,87,182
3,38,120,0
3,38,0,58
3,46,0,0
3,46,87,182
3,35,120,0
3,35,0,58
3,46,0,0
3,35,120,62
3,35,0,58
3,38,120,62
3,46,87,0
3,46,0,58
3,38,0,0
3,46,87,182
3,35,120,0
3,35,0,58
3,46,0,0
3,46,87,182
3,38,120,0
3,38,0,58
3,46,0,0
3,46,87,182
3,35,120,0
3,35,0,58
3,46,0,0
3,35,120,62
3,35,0,58
3,38,120,62
3,46,87,0
3,46,0,58
3,38,0,0
3,35,120,182
3,49,90,0
3,49,0,58
3,35,0,0
3,38,120,182
3,38,0,58
3,35,120,62
3,49,90,0
3,49,0,58
3,35,0,0
3,35,120,182
3,35,0,58
3,38,120,62
3,49,90,0
3,49,0,58
3,38,0,0
3,46,87,182
3,35,120,0
3,35,0,58
3,46,0,0
3,46,87,182
3,38,120,0
3,38,0,58
3,46,0,0
3,46,87,182
3,35,120,0
3,35,0,58
3,46,0,0
3,35,120,62
3,35,0,58
3,46,87,62
3,38,120,0
3,38,0,58
3,46,0,0
3,35,120,182
3,46,87,0
3,46,0,58
3,35,0,0
3,38,120,182
3,46,87,0
3,46,0,58
3,38,0,0
3,35,120,182
3,46,87,0
3,46,0,58
3,35,0,0
3,35,120,62
3,35,0,58
3,46,87,62
3,38,120,0
3,38,0,58
3,46,0,0
3,35,120,182
3,46,87,0
3,46,0,58
3,35,0,0
3,46,87,182
3,38,120,0
3,38,0,58
3,46,0,0
3,46,87,182
3,35,120,0
3,35,0,58
3,46,0,0
3,35,120,62
3,35,0,58
3,46,87,62
3,38,120,0
3,38,0,58
3,46,0,0
3,49,90,182
3,35,120,0
3,35,0,58
3,49,0,0
3,38,80,122
3,38,0,58
3,38,120,2
3,38,0,58
3,49,90,62
3,35,120,0
3,35,0,58
3,49,0,0
3,38,80,122
3,38,0,58
3,38,120,2
3,38,0,58
3,49,90,62
3,35,120,0
3,35,0,58
3,49,0,0
3,46,104,62
3,35,120,0
3,35,0,58
3,46,0,0
3,49,90,62
3,35,120,0
3,35,0,58
3,49,0,0
3,38,120,182
3,46,87,0
3,46,0,58
3,38,0,0
3,46,87,182
3,35,120,0
3,35,0,58
3,46,0,0
3,35,120,62
3,35,0,58
3,46,87,62
3,38,120,0
3,38,0,58
3,46,0,0
3,35,120,182
3,46,87,0
3,46,0,58
3,35,0,0
3,46,87,182
3,38,120,0
3,38,0,58
3,46,0,0
3,46,87,182
3,35,120,0
3,35,0,58
3,46,0,0
3,35,120,62
3,35,0,58
3,46,87,62
3,38,120,0
3,38,0,58
3,46,0,0
3,46,87,182
3,35,120,0
3,35,0,58
3,46,0,0
3,46,87,182
3,38,120,0
3,38,0,58
3,46,0,0
3,35,120,182
3,46,87,0
3,46,0,58
3,35,0,0
3,35,120,62
3,35,0,58
3,38,120,62
3,46,87,0
3,46,0,58
3,38,0,0
3,46,87,182
3,35,120,0
3,35,0,58
3,46,0,0
3,46,87,62
3,46,0,58
3,45,120,62
3,45,0,58
3,38,60,2
3,38,0,58
3,38,80,2
3,38,0,58
3,38,100,2
3,38,0,58
3,38,120,2
3,38,0,58
3,38,80,2
3,38,0,58
3,38,90,2
3,38,0,58
3,38,100,2
3,38,0,58
3,38,120,2
3,38,0,58
3,45,100,2
3,45,0,58
3,45,100,2
3,45,0,58
3,45,100,2
3,45,0,58
3,49,90,1
3,35,120,1
3,49,0,39
3,35,0,19
3,38,120,182
3,46,87,0
3,46,0,58
3,38,0,0
3,46,87,182
3,35,120,0
3,35,0,58
3,46,0,0
3,35,120,62
3,35,0,58
3,38,120,62
3,46,87,0
3,46,0,58
3,38,0,0
3,35,120,182
3,46,87,0
3,46,0,58
3,35,0,0
3,38,120,182
3,46,87,0
3,46,0,58
3,38,0,0
3,46,87,182
3,35,120,0
3,35,0,58
3,46,0,0
3,35,120,62
3,35,0,58
3,46,87,62
3,38,120,0
3,38,0,58
3,46,0,0
3,35,120,182
3,46,87,0
3,46,0,58
3,35,0,0
3,38,120,182
3,46,87,0
3,46,0,58
3,38,0,0
3,46,87,182
3,35,120,0
3,35,0,58
3,46,0,0
3,35,120,62
3,35,0,58
3,46,87,62
3,38,120,0
3,38,0,58
3,46,0,0
3,45,120,182
3,45,0,58
3,38,60,2
3,38,0,58
3,38,80,2
3,38,0,58
3,38,100,2
3,38,0,58
3,38,120,2
3,38,0,58
3,38,74,2
3,38,0,58
3,38,90,2
3,38,0,58
3,38,100,2
3,38,0,58
3,38,120,2
3,38,0,58
3,38,72,2
3,38,0,58
3,38,90,2
3,38,0,58
3,38,100,2
3,38,0,58
3,38,120,2
3,38,0,58
3,35,120,62
3,49,90,0
3,49,0,40
3,35,0,18
3,35,120,182
3,35,0,58
3,46,87,62
3,38,120,0
3,46,0,40
3,38,0,18
3,46,87,182
3,35,120,0
3,46,0,40
3,35,0,18
3,35,120,62
3,35,0,58
3,46,87,62
3,38,120,0
3,46,0,40
3,38,0,18
3,35,120,62
3,49,90,0
3,49,0,40
3,35,0,0
3,46,87,320
3,38,120,0
3,38,0,40
3,46,0,0
3,46,87,200
3,35,120,0
3,35,0,40
3,46,0,0
3,35,120,80
3,35,0,40
3,46,87,80
3,38,120,0
3,38,0,40
3,46,0,0
3,35,120,80
3,49,90,0
3,49,0,40
3,35,0,0
3,46,87,320
3,38,120,0
3,38,0,40
3,46,0,0
3,46,87,200
3,35,120,0
3,35,0,40
3,46,0,0
3,35,120,80
3,35,0,40
3,46,87,80
3,38,120,0
3,38,0,40
3,46,0,0
3,35,120,80
3,49,90,0
3,49,0,40
3,35,0,0
3,46,87,320
3,38,120,0
3,38,0,40
3,46,0,0
3,35,120,80
3,49,90,0
3,49,0,40
3,35,0,0
3,46,87,320
3,38,120,0
3,38,0,40
3,46,0,0
3,35,120,80
3,49,90,0
3,49,0,40
3,35,0,0
3,38,120,320
3,46,87,0
3,46,0,40
3,38,0,0
3,35,120,200
3,46,87,0
3,46,0,40
3,35,0,0
3,35,120,80
3,35,0,40
3,46,87,80
3,38,120,0
3,38,0,40
3,46,0,0
3,49,90,80
3,35,120,0
3,35,0,40
3,49,0,0
3,38,120,320
3,46,87,0
3,46,0,40
3,38,0,0
3,35,120,200
3,46,87,0
3,46,0,40
3,35,0,0
3,35,120,80
3,35,0,40
3,38,120,80
3,46,87,0
3,46,0,40
3,38,0,0
3,49,90,80
3,35,120,0
3,35,0,40
3,49,0,0
3,35,120,200
3,35,0,40
3,46,87,80
3,38,120,0
3,38,0,40
3,46,0,0
3,35,120,80
3,49,90,0
3,49,0,40
3,35,0,0
3,35,120,200
3,35,0,40
3,46,87,80
3,38,120,0
3,38,0,40
3,46,0,0
3,49,90,80
3,35,120,0
3,35,0,40
3,49,0,0
3,35,120,200
3,35,0,40
3,38,120,80
3,46,87,0
3,46,0,40
3,38,0,0
3,35,120,80
3,49,90,0
3,49,0,40
3,35,0,0
3,35,120,200
3,35,0,40
3,46,87,80
3,38,120,0
3,38,0,40
3,46,0,0
3,49,90,80
3,35,120,0
3,35,0,40
3,49,0,0
3,35,120,200
3,35,0,40
3,46,87,80
3,38,120,0
3,38,0,40
3,46,0,0
3,49,90,80
3,35,120,0
3,35,0,40
3,49,0,0
3,35,120,200
3,35,0,40
3,46,87,80
3,38,120,0
3,38,0,40
3,46,0,0
3,49,90,80
3,35,120,0
3,35,0,40
3,49,0,0
3,35,120,200
3,35,0,40
3,38,120,80
3,46,87,0
3,46,0,40
3,38,0,0
3,49,90,80
3,35,120,0
3,35,0,40
3,49,0,0
3,35,120,200
3,35,0,40
3,46,87,80
3,38,120,0
3,38,0,40
3,46,0,0
3,49,90,80
3,35,120,0
3,35,0,40
3,49,0,0
3,35,120,200
3,35,0,40
3,38,120,80
3,46,87,0
3,46,0,40
3,38,0,0
3,46,87,200
3,46,0,40
3,35,120,80
3,35,0,40
3,35,120,20
3,35,0,40
3,38,120,20
3,46,87,0
3,46,0,40
3,38,0,0
3,35,120,80
3,35,0,40
3,46,87,80
3,46,0,40
3,35,120,80
3,35,0,40
3,38,120,80
3,46,87,0
3,46,0,40
3,38,0,0
3,46,87,200
3,46,0,40
3,35,120,80
3,35,0,40
3,38,120,80
3,46,87,0
3,46,0,40
3,38,0,0
3,35,120,200
3,45,120,0
3,35,0,40
3,45,0,18
3,38,60,2
3,38,0,58
3,38,80,2
3,38,0,58
3,38,100,2
3,38,0,58
3,38,120,2
3,38,0,58
3,38,120,62
3,38,0,58
3,38,80,2
3,38,0,58
3,38,90,2
3,38,0,58
3,38,100,2
3,38,0,58
3,38,120,2
3,38,0,58
3,38,120,62
3,38,0,58
3,45,100,2
3,45,0,58
3,45,100,2
3,45,0,58
3,45,100,2
3,45,0,58
3,35,120,1
3,49,90,0
3,49,0,58
3,35,0,0
3,35,120,423
3,49,90,0
3,49,0,58
3,35,0,0
3,35,120,422
3,57,90,0
3,57,0,58
3,35,0,0
3,38,120,182
3,46,87,0
3,46,0,58
3,38,0,0
3,35,120,182
3,46,87,0
3,46,0,58
3,35,0,0
3,35,120,62
3,35,0,58
3,46,87,62
3,38,120,0
3,38,0,58
3,46,0,0
3,46,87,182
3,35,120,0
3,35,0,58
3,46,0,0
3,38,120,182
3,46,87,0
3,46,0,58
3,38,0,0
3,35,120,182
3,46,87,0
3,46,0,58
3,35,0,0
3,35,120,62
3,35,0,58
