track,note,velocity,time
3,35,120,672
3,49,100,0
3,49,0,30
3,35,0,0
3,44,120,210
3,44,0,30
3,44,120,210
3,44,0,30
3,44,120,210
3,44,0,30
3,44,120,210
3,44,0,30
3,44,120,210
3,44,0,30
3,44,120,210
3,44,0,30
3,44,120,210
3,44,0,30
3,44,120,210
3,44,0,30
3,44,120,210
3,44,0,30
3,44,120,210
3,44,0,30
3,44,120,210
3,44,0,30
3,44,120,210
3,44,0,30
3,44,120,210
3,44,0,30
3,44,120,210
3,44,0,30
3,45,120,85
3,43,120,5
3,43,0,57
3,45,0,6
3,45,120,52
3,43,120,5
3,43,0,55
3,45,0,8
3,45,120,52
3,43,120,5
3,43,0,57
3,45,0,6
3,35,120,57
3,49,100,0
3,35,0,30
3,49,0,38
3,44,120,172
3,44,0,68
3,44,120,172
3,44,0,68
3,44,120,172
3,44,0,68
3,44,120,172
3,44,0,68
3,44,120,172
3,44,0,68
3,44,120,172
3,44,0,68
3,44,120,172
3,44,0,68
3,44,120,172
3,44,0,68
3,44,120,172
3,44,0,68
3,44,120,172
3,44,0,68
3,44,120,172
3,44,0,68
3,44,120,172
3,44,0,68
3,44,120,172
3,44,0,68
3,38,120,172
3,38,110,60
3,38,0,8
3,38,110,52
3,38,0,8
3,38,110,52
3,38,0,8
3,45,120,52
3,38,0,8
3,45,110,52
3,45,0,8
3,45,110,52
3,45,0,8
3,45,110,52
3,45,0,8
3,35,120,52
3,49,120,0
3,45,0,8
3,35,0,22
3,49,0,38
3,38,120,172
3,46,100,0
3,46,0,30
3,38,0,0
3,46,100,210
3,35,120,0
3,35,0,30
3,46,0,0
3,38,120,210
3,46,100,0
3,46,0,30
3,38,0,0
3,35,120,210
3,46,100,0
3,46,0,30
3,35,0,0
3,46,100,210
3,38,120,0
3,38,0,30
3,46,0,0
3,35,120,90
3,35,0,30
3,46,100,90
3,46,0,30
3,35,120,90
3,35,0,30
3,38,120,90
3,46,100,0
3,46,0,30
3,38,0,0
3,46,100,210
3,35,120,0
3,35,0,30
3,46,0,0
3,38,120,210
3,46,100,0
3,46,0,30
3,38,0,0
3,35,120,210
3,46,100,0
3,46,0,30
3,35,0,0
3,38,120,210
3,46,100,0
3,46,0,30
3,38,0,0
3,46,100,210
3,35,120,0
3,35,0,30
3,46,0,0
3,38,120,210
3,46,100,0
3,46,0,30
3,38,0,0
3,35,120,90
3,49,120,0
3,35,0,30
3,49,0,38
3,35,120,172
3,35,0,30
3,46,100,90
3,38,120,0
3,38,0,30
3,46,0,0
3,46,100,210
3,35,120,0
3,35,0,30
3,46,0,0
3,38,120,210
3,46,100,0
3,46,0,30
3,38,0,0
3,46,100,210
3,35,120,0
3,35,0,30
3,46,0,0
3,38,120,210
3,46,100,0
3,46,0,30
3,38,0,0
3,35,120,210
3,46,100,0
3,46,0,30
3,35,0,0
3,38,120,210
3,46,100,0
3,46,0,30
3,38,0,0
3,35,120,90
3,35,0,30
3,46,100,90
3,46,0,30
3,35,120,90
3,35,0,30
3,38,120,90
3,46,100,0
3,46,0,30
3,38,0,0
3,35,120,210
3,46,100,0
3,46,0,30
3,35,0,0
3,46,100,210
3,38,120,0
3,38,0,30
3,46,0,0
3,35,120,210
3,46,100,0
3,46,0,30
3,35,0,0
3,38,120,210
3,46,100,0
3,46,0,30
3,38,0,0
3,46,100,210
3,35,120,0
3,35,0,30
3,46,0,0
3,38,120,210
3,46,100,0
3,46,0,30
3,38,0,0
3,35,120,90
3,35,0,30
3,46,100,90
3,46,0,30
3,35,120,90
3,35,0,30
3,46,100,90
3,38,120,0
3,38,0,30
3,46,0,0
3,38,115,210
3,38,0,30
3,38,57,50
3,38,0,30
3,38,80,10
3,38,0,30
3,38,80,10
3,38,0,30
3,38,115,10
3,38,0,30
3,38,115,10
3,38,0,30
3,38,57,50
3,38,0,30
3,38,80,10
3,38,0,30
3,38,80,10
3,38,0,30
3,38,115,10
3,38,0,30
3,38,115,10
3,38,0,30
3,38,57,50
3,38,0,30
3,38,115,10
3,38,0,30
3,38,80,10
3,38,0,30
3,38,80,10
3,38,0,30
3,38,92,10
3,38,0,30
3,38,92,10
3,38,0,30
3,38,92,10
3,38,0,30
3,38,92,10
3,38,0,30
3,38,92,10
3,38,0,30
3,38,92,10
3,38,0,30
3,45,115,10
3,45,0,30
3,38,57,50
3,38,0,30
3,38,80,10
3,38,0,30
3,38,80,10
3,38,0,30
3,38,115,10
3,38,0,30
3,38,115,10
3,38,0,30
3,38,57,50
3,38,0,30
3,38,80,10
3,38,0,30
3,38,80,10
3,38,0,30
3,38,115,10
3,38,0,30
3,38,115,10
3,38,0,30
3,38,57,50
3,38,0,30
3,38,115,10
3,38,0,30
3,38,80,10
3,38,0,30
3,38,80,10
3,38,0,30
3,45,115,10
3,45,0,30
3,38,92,10
3,38,0,30
3,38,92,10
3,38,0,30
3,38,92,10
3,38,0,30
3,38,92,10
3,38,0,30
3,38,92,10
3,38,0,30
3,35,120,10
3,49,100,0
3,49,0,30
3,35,0,91
3,38,120,119
3,35,120,120
3,49,100,0
3,38,0,1
3,49,0,62
3,35,0,58
3,35,120,119
3,38,120,120
3,49,100,0
3,35,0,1
3,49,0,120
3,38,0,0
3,38,115,119
3,38,0,30
3,38,57,50
3,38,0,30
3,38,80,10
3,38,0,30
3,38,80,10
3,38,0,30
3,38,115,10
3,38,0,30
3,38,115,10
3,38,0,30
3,38,57,50
3,38,0,30
3,38,120,10
3,38,0,30
3,38,90,50
3,38,0,30
3,38,90,10
3,38,0,30
3,38,90,10
3,38,0,30
3,38,90,10
3,38,0,30
3,38,90,10
3,38,0,30
3,38,90,10
3,38,0,30
3,38,90,10
3,38,0,30
3,45,110,10
3,45,0,30
3,45,90,10
3,45,0,30
3,45,90,10
3,45,0,30
3,43,100,10
3,43,0,30
3,43,100,10
3,43,0,30
3,43,90,10
3,43,0,30
3,35,120,10
3,49,100,0
3,49,0,121
3,35,0,0
3,38,120,119
3,49,100,120
3,35,120,0
3,38,0,1
3,35,0,120
3,49,0,0
3,46,100,119
3,35,120,0
3,49,80,120
3,38,120,0
3,35,0,1
3,46,0,0
3,49,0,120
3,38,0,0
3,38,115,119
3,38,0,30
3,38,57,50
3,38,0,30
3,38,80,10
3,38,0,30
3,38,80,10
3,38,0,30
3,38,115,10
3,38,0,30
3,38,115,10
3,38,0,30
3,38,57,50
3,38,0,30
3,38,80,10
3,38,0,30
3,38,80,10
3,38,0,30
3,38,90,10
3,38,0,30
3,43,120,10
3,43,120,120
3,43,0,1
3,43,120,119
3,43,0,1
3,43,120,119
3,43,0,1
3,35,120,119
3,49,100,0
3,43,0,1
3,49,0,120
3,35,0,0
3,38,120,119
3,35,120,120
3,49,100,0
3,38,0,1
3,49,0,120
3,35,0,0
3,35,120,119
3,46,100,0
3,49,80,120
3,38,120,0
3,46,0,1
3,35,0,0
3,49,0,120
3,38,0,0
3,38,120,119
3,38,80,120
3,38,0,1
3,38,95,59
3,38,120,60
3,38,0,1
3,38,0,60
3,38,120,59
3,38,0,1
3,38,80,119
3,38,0,1
3,38,80,59
3,38,80,60
3,38,0,1
3,38,80,59
3,38,0,1
3,38,120,59
3,38,0,1
3,38,0,60
3,38,0,60
3,35,120,119
3,49,120,0
3,35,0,30
3,49,0,38
3,38,120,172
3,46,100,0
3,46,0,30
3,38,0,0
3,46,100,210
3,35,120,0
3,35,0,30
3,46,0,0
3,38,120,210
3,46,100,0
3,46,0,30
3,38,0,0
3,35,120,210
3,46,100,0
3,46,0,30
3,35,0,0
3,38,120,210
3,46,100,0
3,46,0,30
3,38,0,0
3,35,120,90
3,35,0,30
3,46,100,90
3,46,0,30
3,35,120,90
3,35,0,30
3,38,120,90
3,46,100,0
3,46,0,30
3,38,0,0
3,35,120,210
3,49,100,0
3,49,0,30
3,35,0,0
3,46,100,210
3,38,120,0
3,38,0,30
3,46,0,0
3,35,120,210
3,46,100,0
3,46,0,30
3,35,0,0
3,38,120,210
3,46,100,0
3,46,0,30
3,38,0,0
3,46,100,210
3,35,120,0
3,35,0,30
3,46,0,0
3,38,120,210
3,46,100,0
3,46,0,30
3,38,0,0
3,35,120,90
3,35,0,30
3,46,100,90
3,46,0,30
3,35,120,90
3,35,0,30
3,46,100,90
3,38,120,0
3,38,0,30
3,46,0,0
3,38,115,210
3,38,0,30
3,38,57,50
3,38,0,30
3,38,80,10
3,38,0,30
3,38,80,10
3,38,0,30
3,38,115,10
3,38,0,30
3,38,115,10
3,38,0,30
3,38,57,50
3,38,0,30
3,38,80,50
3,38,0,30
3,38,95,10
3,38,0,30
3,38,115,10
3,38,0,30
3,38,57,50
3,38,0,30
3,38,115,10
3,38,0,30
3,38,80,10
3,38,0,30
3,38,80,10
3,38,0,30
3,38,92,10
3,38,0,30
3,38,92,10
3,38,0,30
3,38,92,10
3,38,0,30
3,38,92,10
3,38,0,30
3,38,92,10
3,38,0,30
3,38,92,10
3,38,0,30
3,38,115,10
3,38,0,30
3,38,57,50
3,38,0,30
3,38,80,10
3,38,0,30
3,38,80,10
3,38,0,30
3,38,115,10
3,38,0,30
3,38,115,10
3,38,0,30
3,38,57,50
3,38,0,30
3,38,80,10
3,38,0,30
3,38,80,10
3,38,0,30
3,38,115,10
3,38,0,30
3,38,115,10
3,38,0,30
3,38,57,50
3,38,0,30
3,38,115,10
3,38,0,30
3,38,80,10
3,38,0,30
3,38,80,10
3,38,0,30
3,38,92,50
3,38,0,30
3,38,92,10
3,38,0,30
3,38,92,10
3,38,0,30
3,38,92,10
3,38,0,30
3,38,92,10
3,38,0,30
3,49,100,10
3,35,120,0
3,49,0,30
3,35,0,91
3,38,120,119
3,35,120,120
3,49,100,0
3,38,0,1
3,49,0,62
3,35,0,58
3,46,100,119
3,35,120,0
3,38,120,120
3,35,0,1
3,46,0,0
3,38,0,120
3,38,115,119
3,38,0,30
3,38,57,50
3,38,0,30
3,38,80,10
3,38,0,30
3,38,80,10
3,38,0,30
3,38,115,10
3,38,0,30
3,38,115,10
3,38,0,30
3,38,57,50
3,38,0,30
3,38,120,10
3,38,0,30
3,38,90,50
3,38,0,30
3,38,90,10
3,38,0,30
3,38,90,10
3,38,0,30
3,38,90,10
3,38,0,30
3,38,90,10
3,38,0,30
3,38,90,10
3,38,0,30
3,38,90,10
3,38,0,30
3,45,110,10
3,45,0,30
3,45,90,10
3,45,0,30
3,45,90,10
3,45,0,30
3,43,100,10
3,43,0,30
3,43,100,10
3,43,0,30
3,43,90,10
3,43,0,30
3,49,100,10
3,35,120,0
3,35,0,121
3,49,0,0
3,38,120,119
3,49,100,120
3,35,120,0
3,38,0,1
3,35,0,120
3,49,0,0
3,35,120,119
3,38,120,120
3,49,80,0
3,35,0,1
3,49,0,120
3,38,0,0
3,38,115,119
3,38,0,30
3,38,57,50
3,38,0,30
3,38,80,10
3,38,0,30
3,38,80,10
3,38,0,30
3,38,115,10
3,38,0,30
3,38,115,10
3,38,0,30
3,38,57,50
3,38,0,30
3,38,80,10
3,38,0,30
3,38,80,10
3,38,0,30
3,38,90,10
3,38,0,30
3,38,110,10
3,38,0,30
3,47,90,50
3,47,0,30
3,47,90,10
3,47,0,30
3,47,90,10
3,47,0,30
3,47,90,10
3,47,0,30
3,45,110,10
3,45,0,30
3,45,90,10
3,45,0,30
3,45,90,10
3,45,0,30
3,45,100,10
3,45,0,30
3,45,100,10
3,45,0,30
3,45,90,10
3,45,0,30
3,49,100,10
3,35,120,0
3,35,0,121
3,49,0,0
3,38,120,119
3,35,120,120
3,49,100,0
3,38,0,1
3,49,0,120
3,35,0,0
3,38,120,239
3,49,80,0
3,49,0,121
3,38,0,0
3,38,56,119
3,38,57,40
3,38,59,40
3,38,60,40
3,38,0,1
3,38,62,39
3,38,0,1
3,38,63,39
3,38,0,1
3,38,65,39
3,38,0,1
3,38,66,39
3,38,0,1
3,38,68,39
3,38,0,1
3,38,69,39
3,38,0,1
3,38,71,39
3,38,0,1
3,38,72,39
3,38,0,1
3,38,74,39
3,38,0,1
3,38,75,39
3,38,0,1
3,38,77,39
3,38,0,1
3,38,78,39
3,38,0,1
3,38,80,39
3,38,0,1
3,38,81,39
3,38,0,1
3,38,83,39
3,38,0,1
3,38,84,39
3,38,0,1
3,38,86,39
3,38,0,1
3,38,87,39
3,38,0,1
3,38,89,39
3,38,0,1
3,38,0,40
3,38,115,35
3,38,115,4
3,35,120,0
3,38,0,1
3,38,0,40
3,38,0,76
3,38,0,4
3,35,0,0
3,44,121,119
3,44,0,121
3,44,121,119
3,44,0,121
3,47,121,112
3,45,120,7
3,45,0,30
3,47,0,84
3,49,120,126
3,35,120,0
3,35,0,30
3,49,0,38
3,38,120,172
3,46,100,0
3,46,0,30
3,38,0,0
3,35,120,90
3,35,0,30
3,46,100,90
3,46,0,30
3,35,120,90
3,35,0,30
3,38,120,90
3,46,100,0
3,46,0,30
3,38,0,0
3,35,120,210
3,46,100,0
3,46,0,30
3,35,0,0
3,46,100,210
3,38,120,0
3,38,0,30
3,46,0,0
3,35,120,90
3,35,0,30
3,46,100,90
3,46,0,30
3,35,120,90
3,35,0,30
3,46,100,90
3,38,120,0
3,38,0,30
3,46,0,0
3,35,120,210
3,49,100,0
3,49,0,30
3,35,0,0
3,38,120,210
3,46,100,0
3,46,0,30
3,38,0,0
3,46,100,210
3,35,120,0
3,35,0,30
3,46,0,0
3,38,120,210
3,46,100,0
3,46,0,30
3,38,0,0
3,46,100,210
3,35,120,0
3,35,0,30
3,46,0,0
3,46,100,210
3,38,120,0
3,38,0,30
3,46,0,0
3,35,120,90
3,35,0,30
3,46,100,90
3,46,0,30
3,35,120,90
3,35,0,30
3,38,120,90
3,46,100,0
3,46,0,30
3,38,0,0
3,35,120,210
3,49,100,0
3,49,0,30
3,35,0,0
3,38,120,210
3,46,100,0
3,46,0,30
3,38,0,0
3,35,120,90
3,35,0,30
3,46,100,90
3,46,0,30
3,35,120,90
3,35,0,30
3,38,120,90
3,46,100,0
3,46,0,30
3,38,0,0
3,35,120,210
3,46,100,0
3,46,0,30
3,35,0,0
3,38,120,210
3,46,100,0
3,46,0,30
3,38,0,0
3,38,70,150
3,38,0,30
3,38,90,30
3,38,0,30
3,38,100,30
3,38,0,30
3,38,100,30
3,38,0,30
3,38,100,30
3,38,0,30
3,38,70,30
3,38,0,30
3,38,100,30
3,38,0,30
3,38,100,30
3,38,0,30
3,38,100,30
3,38,0,30
3,35,120,30
3,49,100,0
3,49,0,30
3,35,0,0
3,44,120,210
3,44,0,30
3,44,120,210
3,44,0,30
3,44,120,210
3,44,0,30
3,44,120,210
3,44,0,30
3,44,120,210
3,44,0,30
3,44,120,210
3,44,0,30
3,45,120,85
3,43,120,5
3,43,0,57
3,45,0,6
3,45,120,52
3,43,120,5
3,43,0,55
3,45,0,8
3,45,120,52
3,43,120,5
3,43,0,57
3,45,0,6
3,35,120,57
3,49,100,0
3,49,0,30
3,35,0,0
3,44,120,210
3,44,0,30
3,44,120,210
3,44,0,30
3,44,120,210
3,44,0,30
3,38,120,210
3,44,120,0
3,44,0,30
3,38,0,0
3,43,120,30
3,43,0,30
3,41,70,30
3,41,0,30
3,38,120,90
3,38,0,30
3,38,70,30
3,38,0,30
3,38,90,30
3,38,0,30
3,38,120,30
3,38,0,30
3,38,120,30
3,38,0,30
3,38,90,90
3,38,0,30
3,38,120,30
3,38,0,30
3,38,120,30
3,38,0,30
3,38,90,30
3,38,0,30
3,38,120,30
3,38,0,30
3,38,120,30
3,38,0,30
3,35,120,30
3,49,100,0
3,49,0,30
3,35,0,0
3,46,100,210
3,38,120,0
3,38,0,30
3,46,0,0
3,46,100,210
3,35,120,0
3,35,0,30
3,46,0,0
3,38,120,210
3,46,100,0
3,46,0,30
3,38,0,0
3,35,120,210
3,46,100,0
3,46,0,30
3,35,0,0
3,46,100,210
3,38,120,0
3,38,0,30
3,46,0,0
3,35,120,90
3,35,0,30
3,46,100,90
3,46,0,30
