track,note,velocity,time
1,64,122,768
1,62,122,192
1,60,109,14
1,59,122,8
1,60,122,16
1,57,127,16
1,64,127,822
1,62,104,22
1,60,115,192
1,59,122,16
1,60,127,24
1,57,122,6
1,64,122,952
1,62,109,6
1,60,109,192
1,62,122,190
1,64,127,184
1,69,127,368
1,64,122,4032
1,62,115,16
1,60,115,0
1,59,122,8
1,60,127,192
1,57,127,102
1,64,122,958
1,62,115,22
1,64,127,104
1,62,122,14
1,60,127,62
1,62,122,22
1,64,122,88
1,69,127,14
1,64,127,1230
1,62,104,192
1,64,122,182
1,57,122,6
1,57,127,398
1,57,127,56
1,59,127,78
1,60,122,48
1,62,127,8
1,62,122,326
1,62,122,54
1,64,127,88
1,65,122,46
1,64,127,46
1,62,122,264
1,64,127,142
1,62,122,32
1,60,122,32
1,62,122,8
1,64,127,14
1,64,127,2630
1,62,127,32
1,60,127,22
1,59,127,40
1,60,127,48
1,57,127,72
1,64,127,704
1,62,122,8
1,64,127,6
1,62,127,48
1,60,122,24
1,62,122,30
1,64,127,54
1,69,127,8
1,64,127,1126
1,62,122,192
1,64,127,168
1,57,127,190
1,69,127,440
1,69,122,62
1,69,122,70
1,69,115,62
1,69,127,86
1,62,115,14
1,62,109,40
1,64,127,62
1,65,115,192
1,64,127,182
1,62,122,278
1,64,127,8
1,62,127,192
1,60,122,6
1,62,127,192
1,62,127,8
1,64,127,30
1,64,127,78
1,78,127,16
1,68,127,406
1,69,127,16
1,71,115,30
1,64,122,160
1,64,127,176
1,62,127,192
1,60,127,6
1,59,127,24
1,60,122,30
1,57,127,16
1,64,127,822
1,62,104,22
1,60,115,192
1,59,122,16
1,60,127,24
1,57,122,6
1,64,122,952
1,62,109,6
1,60,109,192
1,62,122,190
1,64,127,184
1,69,127,368
1,64,127,19488
1,64,127,14
1,64,109,56
1,64,122,62
1,64,122,56
1,64,104,62
1,64,127,72
1,64,122,80
1,64,109,54
1,66,127,48
1,64,122,6
1,66,127,8
1,66,122,54
1,64,122,38
1,66,127,32
1,64,115,6
1,66,127,6
1,64,122,120
1,62,122,80
1,66,127,8
1,66,109,56
1,66,122,64
1,66,122,54
1,66,83,46
1,66,127,78
1,66,122,62
1,66,104,78
1,68,127,40
1,66,127,192
1,68,127,8
1,68,127,54
1,66,127,24
1,68,127,30
1,66,127,96
1,68,127,102
1,66,127,38
1,67,122,14
1,67,94,46
1,67,115,56
1,67,115,48
1,67,78,24
1,67,115,64
1,67,115,70
1,67,94,46
1,69,122,32
1,67,122,8
1,66,127,6
1,66,127,32
1,64,115,14
1,66,127,16
1,64,122,96
1,66,127,88
1,64,122,8
1,62,109,24
1,66,127,6
1,66,109,38
1,66,115,56
1,66,127,40
1,66,127,32
1,66,115,62
1,66,109,70
1,68,127,40
1,66,127,0
1,68,127,6
1,68,127,38
1,66,127,30
1,68,127,30
1,66,127,96
1,68,127,88
1,66,127,30
1,70,115,112
1,67,115,2
1,67,109,40
1,70,127,10
1,70,115,94
1,67,115,0
1,67,109,106
1,70,127,0
1,65,104,24
1,69,122,0
1,69,127,98
1,65,122,6
1,69,94,24
1,65,109,16
1,69,122,38
1,65,109,10
1,69,127,54
1,65,104,0
1,65,115,78
1,69,127,16
1,64,122,48
1,59,115,14
1,64,127,88
1,59,127,8
1,65,127,40
1,62,127,0
1,62,109,376
1,65,122,6
1,65,99,34
1,62,78,8
1,59,122,70
1,64,122,14
1,64,115,48
1,59,122,0
1,64,127,62
1,59,127,2
1,59,122,46
1,64,122,8
1,53,115,32
1,62,127,8
1,53,115,418
1,62,127,8
1,53,94,48
1,57,127,32
1,60,127,16
1,57,127,2
1,57,122,0
1,81,127,8
1,76,109,8
1,74,115,118
1,75,122,96
1,76,122,128
1,64,127,40
1,64,127,126
1,67,127,78
1,69,127,96
1,69,127,152
1,69,122,110
1,62,122,1640
1,64,127,48
1,62,115,192
1,60,122,16
1,62,122,192
1,64,127,22
1,63,127,0
1,69,127,38
1,64,127,1248
1,64,127,16
1,64,78,0
1,62,122,0
1,62,42,6
1,64,127,0
1,57,127,224
1,69,115,306
1,69,122,38
1,69,115,32
1,69,122,50
1,69,127,58
1,69,127,78
1,67,127,10
1,62,127,48
1,64,122,46
1,65,122,34
1,64,127,46
1,62,122,282
1,64,127,40
1,62,122,192
1,60,127,0
1,62,122,186
1,64,127,70
1,64,127,26
1,64,94,3040
1,64,99,56
1,66,94,120
1,66,88,96
1,66,78,350
1,66,88,72
1,72,88,130
1,72,94,102
1,72,88,422
1,72,78,80
1,74,72,128
1,74,58,104
1,76,88,14
2,33,127,0
2,33,127,918
2,33,127,32
2,38,127,24
2,38,127,928
2,38,122,38
2,41,127,46
2,41,127,958
2,41,127,38
2,43,127,46
2,43,127,606
2,43,127,176
2,40,127,232
2,33,127,1512
2,33,127,70
2,31,127,46
2,31,127,64
2,29,127,70
2,29,127,48
2,28,127,80
2,28,122,48
2,28,115,102
2,28,122,62
2,31,127,8
2,33,127,22
2,33,127,70
2,31,127,62
2,31,127,46
2,29,122,62
2,29,127,32
2,28,122,112
2,40,122,22
2,28,127,118
2,28,122,54
2,31,127,14
2,33,127,8
2,33,127,80
2,31,127,24
2,31,127,94
2,29,127,30
2,29,127,32
2,29,127,136
2,28,127,30
2,28,122,110
2,31,127,30
2,33,127,14
2,33,127,54
2,31,127,384
2,31,127,46
2,29,122,24
2,29,127,32
2,29,109,54
2,29,127,56
2,28,122,30
2,28,115,64
2,32,127,32
2,33,127,70
2,33,127,126
2,31,122,8
2,31,109,48
2,31,127,144
2,31,127,128
2,29,127,64
2,29,127,118
2,28,115,48
2,28,122,54
2,28,122,134
2,28,127,118
2,33,127,16
2,33,122,118
2,33,115,72
2,31,127,48
2,31,127,134
2,31,127,134
2,29,127,24
2,29,127,110
2,29,99,38
2,28,104,54
2,28,104,46
2,28,99,46
2,28,122,128
2,28,88,14
2,33,127,8
2,33,122,46
2,33,88,32
2,33,99,48
2,33,115,94
2,33,127,96
2,33,104,54
2,31,127,8
2,31,127,54
2,31,104,14
2,31,109,56
2,31,122,40
2,31,127,72
2,31,127,56
2,36,122,22
2,36,127,48
2,36,109,22
2,36,104,48
2,36,115,72
2,36,127,78
2,36,109,24
2,28,122,46
2,28,122,56
2,28,104,38
2,28,104,54
2,28,109,56
2,28,115,70
2,28,104,48
2,38,127,6
2,38,122,54
2,38,109,6
2,38,104,48
2,38,127,96
2,38,122,78
2,40,127,14
2,40,127,70
2,40,104,0
2,40,99,0
2,40,115,32
2,38,127,24
2,36,127,16
2,33,127,70
2,33,127,38
2,33,99,62
2,31,127,54
2,31,127,118
2,31,127,142
2,29,127,6
2,29,127,38
2,29,83,72
2,28,127,64
2,28,115,126
2,28,127,128
2,31,115,192
2,33,122,62
2,33,127,64
2,33,72,62
2,31,127,56
2,31,122,120
2,31,127,126
2,29,127,0
2,29,127,40
2,28,127,104
2,28,127,54
2,28,122,136
2,28,122,54
2,31,127,80
2,33,127,80
2,33,99,54
2,33,127,72
2,33,94,48
2,33,88,48
2,33,109,54
2,33,122,32
2,33,127,64
2,33,122,62
2,31,127,40
2,31,115,48
2,31,127,64
2,31,88,46
2,31,109,38
2,31,115,40
2,31,109,46
2,31,122,46
2,31,127,56
2,31,122,64
2,36,127,14
2,36,109,40
2,36,127,62
2,36,99,38
2,36,99,46
2,36,115,48
2,36,94,16
2,36,109,46
2,36,127,54
2,36,115,54
2,40,127,0
2,40,109,46
2,40,127,86
2,40,94,30
2,40,99,40
2,40,109,38
2,40,99,24
2,40,83,40
2,40,127,48
2,40,109,54
2,38,127,192
2,38,109,46
2,38,122,64
2,38,99,48
2,38,88,32
2,36,127,96
2,38,104,80
2,38,109,32
2,38,122,48
2,38,109,62
2,38,99,46
2,36,122,14
2,38,115,22
2,38,109,32
2,38,127,40
2,38,99,56
2,38,99,32
2,36,127,14
2,38,115,96
2,38,109,40
2,38,127,32
2,38,94,40
2,38,94,32
2,38,115,46
2,40,115,38
2,40,122,0
2,40,127,190
2,40,104,46
2,38,127,8
2,40,62,0
2,40,109,86
2,40,122,24
2,40,127,48
2,40,56,70
2,40,99,46
2,38,127,22
2,40,109,96
2,40,109,54
2,40,127,54
2,40,83,64
2,40,104,40
2,38,122,0
2,40,109,96
2,40,115,30
2,40,127,62
2,28,127,30
2,33,127,176
2,33,127,70
2,31,127,46
2,31,127,64
2,29,127,70
2,29,127,48
2,28,127,80
2,28,122,48
2,28,115,102
2,28,122,62
2,31,127,8
2,33,127,22
2,33,127,70
2,31,127,62
2,31,127,46
2,29,122,62
2,29,127,32
2,28,122,112
2,40,122,22
2,28,127,118
2,28,122,54
2,31,127,14
2,33,127,8
2,33,127,80
2,31,127,24
2,31,127,94
2,29,127,30
2,29,127,32
2,29,127,136
2,28,127,30
2,28,122,110
2,31,127,30
2,45,127,14
2,45,122,40
2,45,99,16
2,43,99,46
2,43,122,38
2,43,127,56
2,41,127,78
2,41,115,22
2,40,115,32
2,40,115,46
2,40,122,72
2,40,122,80
2,43,115,22
2,45,127,14
2,45,127,56
2,43,127,14
2,43,115,54
2,43,122,48
2,43,127,88
2,41,127,6
2,41,127,24
2,40,115,22
2,40,122,56
2,40,122,48
2,40,122,78
2,40,115,46
2,33,127,32
2,45,127,24
2,45,104,54
2,43,115,0
2,31,127,54
2,31,127,40
2,43,127,192
2,29,127,22
2,41,127,22
2,40,127,54
2,28,127,40
2,28,115,48
2,40,127,192
2,33,122,32
2,33,115,40
2,33,127,56
2,33,94,46
2,33,127,48
2,33,122,46
2,33,109,46
2,33,127,46
2,33,115,64
2,45,127,22
2,45,122,62
2,45,127,48
2,45,88,64
2,45,127,70
2,45,99,54
2,45,94,54
2,45,99,38
2,45,115,48
2,38,122,24
2,39,127,96
2,33,115,80
2,33,94,56
2,33,99,54
2,33,109,54
2,36,104,192
2,38,122,6
2,38,122,24
2,36,104,24
2,38,122,6
2,36,109,14
2,33,115,8
2,33,88,54
2,33,94,48
2,33,109,46
2,36,109,192
2,38,122,14
2,38,122,6
2,36,99,14
2,38,122,40
2,36,115,8
2,33,115,8
2,33,99,62
2,33,99,46
2,33,115,48
2,36,104,192
2,38,122,24
2,38,122,64
2,36,99,30
2,38,122,8
2,36,115,94
2,33,122,6
2,33,88,70
2,33,99,48
2,33,122,54
2,36,104,192
2,38,122,8
2,38,122,64
2,36,104,16
2,38,122,8
2,36,115,16
2,33,127,96
2,33,109,72
2,33,122,70
2,37,127,16
2,37,127,22
2,37,122,78
2,38,122,54
2,40,115,38
2,38,127,6
2,38,109,62
2,38,122,62
2,42,127,24
2,42,127,6
2,42,122,72
2,43,122,62
2,45,115,46
2,35,122,6
2,35,115,64
2,35,122,62
2,39,127,8
2,39,127,8
2,39,122,70
2,40,122,46
2,42,127,30
2,40,127,14
2,40,109,40
2,40,127,64
2,44,127,6
2,44,127,64
2,44,122,64
2,45,122,54
2,47,122,46
2,33,122,22
2,33,115,86
2,33,122,70
2,33,72,14
2,37,127,6
2,37,127,64
2,37,122,72
2,38,122,54
2,40,122,30
2,38,127,8
2,38,109,56
2,38,122,56
2,42,127,6
2,42,127,56
2,42,122,72
2,43,122,48
2,45,122,46
2,35,122,8
2,35,115,80
2,35,122,64
2,39,127,6
2,39,127,54
2,39,127,64
2,40,122,38
2,42,127,32
2,40,127,8
2,40,109,56
2,40,127,56
2,32,127,24
2,31,88,0
2,32,127,72
2,32,127,54
2,33,122,48
2,35,127,56
2,45,127,80
2,45,127,102
2,45,24,40
2,43,127,0
2,43,127,94
2,41,127,48
2,41,127,86
2,40,127,88
2,40,127,96
2,41,127,384
2,41,127,94
2,40,127,16
2,40,127,94
2,40,62,8
2,41,127,0
2,41,127,70
2,33,127,46
2,33,127,102
2,38,122,38
2,38,115,14
2,38,99,0
2,38,99,88
2,38,122,48
2,38,122,70
2,38,115,54
2,40,122,8
2,40,115,22
2,40,94,24
2,40,109,56
2,40,104,48
2,40,122,62
2,40,122,62
2,28,127,192
2,28,122,48
2,28,115,70
2,28,115,54
2,35,127,16
2,40,127,24
2,35,127,96
2,28,122,22
2,35,127,96
2,45,127,62
2,45,127,96
2,45,104,62
2,43,122,48
2,43,115,46
2,43,115,48
2,43,127,94
2,41,127,6
2,41,127,70
2,41,99,6
2,40,109,40
2,40,99,32
2,40,109,38
2,40,127,102
2,40,115,32
2,45,127,24
2,45,127,72
2,43,127,288
2,43,122,54
2,43,109,48
2,43,127,160
2,43,109,24
2,40,88,24
2,41,127,0
2,41,127,94
2,41,109,24
2,40,115,54
2,40,99,38
2,40,115,38
2,40,127,102
2,40,122,64
2,33,127,24
2,33,127,38
2,33,109,8
2,33,104,46
2,33,109,40
2,33,115,22
2,33,122,94
2,33,122,70
2,31,127,56
2,31,127,40
2,31,109,102
2,31,109,56
2,31,109,46
2,31,115,38
2,31,122,56
2,36,127,30
2,36,122,40
2,36,109,38
2,36,115,54
2,36,104,40
2,36,99,40
2,36,115,56
2,36,104,40
2,40,109,126
2,40,122,48
2,40,94,38
2,40,115,56
2,40,109,40
2,40,99,38
2,40,127,70
2,40,109,64
2,38,127,8
2,38,127,62
2,38,104,38
2,38,122,54
2,38,109,62
2,38,127,70
2,38,115,54
2,40,127,22
2,40,122,32
2,40,127,62
2,40,127,64
2,40,122,70
2,40,122,62
2,40,127,56
2,40,122,64
2,45,127,102
2,45,127,928
2,45,127,38
2,38,127,22
2,38,127,966
2,38,109,22
2,41,127,30
2,41,127,982
2,41,127,38
2,43,127,56
2,43,127,600
2,43,127,208
2,45,127,198
3,81,95,0
3,84,86,0
3,88,81,0
3,72,95,0
3,76,95,0
3,90,91,40
3,86,74,0
3,81,86,0
3,78,91,0
3,74,86,0
3,81,58,48
3,89,91,0
3,84,86,0
3,77,86,0
3,72,95,0
3,71,86,22
3,74,95,0
3,79,91,0
3,86,78,0
3,83,91,0
3,61,43,94
3,63,74,8
3,64,16,2
3,66,31,6
3,65,66,0
3,68,66,2
3,69,70,6
3,70,50,2
3,67,9,0
3,71,92,2
3,73,92,0
3,72,92,6
3,75,93,0
3,74,93,0
3,76,93,0
3,78,93,2
3,77,93,0
3,80,94,0
3,82,94,0
3,81,94,2
3,83,95,2
3,85,95,0
3,84,95,2
3,87,95,6
3,80,95,0
3,86,95,6
3,82,95,6
3,82,95,0
3,80,95,8
3,77,95,6
3,78,95,0
3,76,95,2
3,74,95,8
3,75,95,6
3,72,95,6
3,73,95,2
3,71,95,0
3,70,95,2
3,69,95,6
3,68,95,6
3,67,95,2
3,66,95,2
3,65,95,6
3,64,95,8
3,63,95,0
3,62,95,8
3,61,95,2
3,60,95,6
3,59,95,8
3,58,94,8
3,57,94,0
3,56,94,8
3,55,94,8
3,54,94,2
3,53,94,6
3,52,94,0
3,51,94,0
3,50,94,0
3,49,94,8
3,48,93,2
3,46,93,18
3,47,93,0
3,44,93,8
3,45,93,6
3,43,93,14
3,42,93,0
3,41,93,8
3,39,93,8
3,40,93,0
3,37,93,0
3,38,93,26
3,45,93,46
3,47,93,22
3,46,93,0
3,48,92,10
3,50,92,2
3,49,92,0
3,52,92,0
3,51,92,2
3,53,92,30
3,55,92,38
3,54,92,0
3,57,93,8
3,56,93,2
3,59,93,22
3,58,93,18
3,60,93,8
3,62,93,16
3,61,93,2
3,64,93,8
3,63,93,8
3,65,93,14
3,67,93,24
3,66,93,0
3,69,94,16
3,68,94,0
3,71,94,0
3,70,94,8
3,72,94,24
3,74,94,0
3,73,94,6
3,76,95,0
3,75,95,8
3,77,95,2
3,78,95,16
3,52,95,6
3,64,95,0
3,57,78,62
3,72,95,384
3,69,86,0
3,76,95,0
3,55,86,14
3,71,86,384
3,74,81,0
3,76,86,0
3,67,86,0
3,53,91,22
3,72,78,384
3,65,86,0
3,69,86,0
3,76,86,0
3,52,78,8
3,76,91,46
3,74,81,0
3,68,95,0
3,70,70,0
3,71,95,0
3,52,43,136
3,68,95,78
3,71,95,0
3,76,91,0
3,74,86,0
3,52,36,192
