track,note,velocity,time
1,45,84,288
1,57,110,6
1,45,84,24
1,57,110,6
1,45,84,24
1,57,110,6
1,45,84,24
1,52,110,6
1,45,84,24
1,50,110,6
1,45,84,24
1,57,110,6
1,45,84,24
1,57,110,6
1,45,84,24
1,57,110,6
1,45,84,24
1,52,110,6
1,45,84,24
1,50,110,6
1,45,84,24
1,57,110,6
1,45,84,24
1,57,110,6
1,45,84,24
1,57,110,6
1,45,84,24
1,52,110,6
1,45,84,24
1,50,110,6
1,45,84,24
1,57,110,6
1,45,84,24
1,57,110,6
1,45,84,24
1,57,110,6
1,45,84,24
1,59,110,6
1,45,84,0
1,55,110,0
1,45,84,24
1,57,110,6
1,45,84,24
1,57,110,6
1,45,84,24
1,57,110,6
1,45,84,24
1,52,110,6
1,45,84,24
1,50,110,6
1,45,84,24
1,57,110,6
1,45,84,24
1,57,110,6
1,45,84,24
1,57,110,6
1,45,84,24
1,52,110,6
1,45,84,24
1,50,110,6
1,45,84,24
1,57,110,6
1,45,84,24
1,57,110,6
1,45,84,24
1,57,110,6
1,45,84,24
1,52,110,6
1,45,84,24
1,50,110,6
1,45,84,24
1,57,110,6
1,45,84,24
1,57,110,6
1,45,84,24
1,57,110,6
1,45,84,24
1,59,110,6
1,45,84,24
1,55,110,6
1,45,84,22
1,57,110,6
1,45,84,24
1,57,110,6
1,45,84,24
1,57,110,0
1,45,84,24
1,52,110,6
1,45,84,24
1,50,110,6
1,45,84,0
1,57,110,6
1,45,84,24
1,57,110,6
1,45,84,24
1,57,110,6
1,45,84,24
1,52,110,6
1,45,84,24
1,50,110,6
1,45,84,0
1,57,110,6
1,45,84,24
1,57,110,6
1,45,84,24
1,57,110,6
1,45,84,24
1,52,110,6
1,45,84,24
1,50,110,6
1,45,84,24
1,57,110,6
1,45,84,24
1,57,110,6
1,45,84,24
1,57,110,6
1,45,84,24
1,59,110,6
1,45,84,24
1,55,110,6
1,45,84,60
1,57,110,0
1,45,84,24
1,57,110,6
1,45,84,0
1,57,110,6
1,45,84,24
1,52,110,0
1,45,84,24
1,50,110,6
1,45,84,0
1,57,110,6
1,45,84,24
1,57,110,0
1,45,84,24
1,57,110,6
1,45,84,24
1,52,110,6
1,45,84,24
1,50,110,0
1,45,84,24
1,57,110,6
1,45,84,24
1,57,110,6
1,45,84,0
1,57,110,6
1,45,84,24
1,52,110,6
1,45,84,24
1,50,110,6
1,45,84,24
1,57,110,6
1,45,84,24
1,57,110,6
1,45,84,24
1,57,110,6
1,45,84,0
1,59,110,6
1,45,84,24
1,55,110,6
1,45,84,60
1,57,110,6
1,45,84,24
1,57,110,6
1,45,84,24
1,57,110,0
1,45,84,24
1,52,110,0
1,45,84,24
1,50,110,6
1,45,84,24
1,57,110,0
1,45,84,24
1,57,110,0
1,45,84,24
1,57,110,0
1,45,84,24
1,52,110,6
1,45,84,24
1,50,110,6
1,45,84,24
1,57,110,0
1,45,84,24
1,57,110,6
1,45,84,24
1,57,110,6
1,45,84,24
1,52,110,6
1,45,84,24
1,50,110,6
1,45,84,24
1,57,110,6
1,45,84,24
1,57,110,6
1,45,84,24
1,57,110,6
1,45,84,24
1,59,110,6
1,45,84,0
1,55,110,6
1,45,84,60
1,57,110,6
1,45,84,24
1,57,110,6
1,45,84,24
1,57,110,6
1,45,84,24
1,52,110,6
1,45,84,24
1,50,110,6
1,45,84,24
1,57,110,6
1,45,84,24
1,57,110,6
1,45,84,24
1,57,110,6
1,45,84,24
1,52,110,0
1,45,84,24
1,50,110,0
1,45,84,0
1,57,110,6
1,45,84,24
1,57,110,6
1,45,84,24
1,57,110,0
1,45,84,24
1,52,110,0
1,45,84,0
1,50,110,6
1,45,84,0
1,57,110,6
1,45,84,24
1,57,110,0
1,45,84,24
1,57,110,0
1,45,84,0
1,59,110,6
1,45,84,0
1,55,110,6
2,57,47,30896
2,64,54,2
2,69,53,0
2,72,52,0
2,55,46,4
2,67,52,0
2,71,52,0
2,74,54,12
2,65,52,46
2,69,53,2
2,53,44,4
2,72,53,0
2,57,47,8
2,64,54,2
2,55,46,16
2,67,52,0
2,71,52,0
2,74,54,12
2,69,53,14
2,65,53,2
2,53,45,6
2,72,52,0
2,57,46,8
2,64,54,2
2,71,53,6
2,55,45,0
2,67,52,8
2,74,54,14
2,65,52,10
2,69,53,2
2,53,44,4
2,72,53,0
2,57,47,3080
2,64,54,2
2,69,53,0
2,72,52,0
2,55,46,4
2,67,52,0
2,71,52,0
2,74,54,12
2,69,53,14
2,65,53,2
2,53,45,6
2,72,52,0
2,57,46,8
2,64,54,2
2,71,53,6
2,55,45,0
2,67,52,8
2,74,54,14
2,65,52,10
2,69,53,2
2,53,44,4
2,72,53,0
2,81,59,2
2,57,47,6
2,64,54,2
2,55,46,16
2,67,52,0
2,71,52,0
2,74,54,12
2,65,52,122
2,69,53,2
2,53,44,4
2,72,53,0
2,57,47,8
2,64,54,2
2,55,46,16
2,67,52,0
2,71,52,0
2,74,54,12
2,69,53,14
2,65,53,2
2,53,45,6
2,72,52,0
2,57,46,8
2,64,54,2
2,71,53,6
2,55,45,0
2,67,52,8
2,74,54,14
2,65,52,10
2,69,53,2
2,53,44,4
2,72,53,0
2,57,47,8
2,64,54,2
2,55,46,14
2,67,52,0
2,71,52,0
2,74,54,12
2,65,52,122
2,69,53,2
2,53,44,4
2,72,53,0
2,69,51,30706
2,81,55,4
2,57,47,16
2,64,54,2
2,69,53,0
2,72,52,0
2,55,46,4
2,67,52,0
2,71,52,0
2,74,54,12
2,69,53,14
2,65,53,2
2,53,45,6
2,72,52,0
2,57,47,54
2,64,54,2
2,55,46,16
2,67,52,0
2,71,52,0
2,74,54,12
2,69,53,14
2,65,53,2
2,53,45,6
2,72,52,0
2,57,46,8
2,64,54,2
2,71,53,6
2,55,45,0
2,67,52,8
2,74,54,14
2,65,52,10
2,69,53,2
2,53,44,4
2,72,53,0
2,57,47,8
2,64,54,2
2,55,46,16
2,67,52,0
2,71,52,0
2,74,54,12
2,69,53,14
2,65,53,2
2,53,45,6
2,72,52,0
2,57,46,8
2,64,54,2
2,71,53,6
2,55,45,0
2,67,52,8
2,74,54,14
2,65,52,10
2,69,53,2
2,53,44,4
2,72,53,0
2,57,47,54
2,64,54,2
2,55,46,16
2,67,52,0
2,71,52,0
2,74,54,12
2,69,53,14
2,65,53,2
2,53,45,6
2,72,52,0
2,57,46,52
2,64,54,2
2,71,53,36
2,55,45,0
2,67,52,8
2,74,54,14
2,65,52,10
2,69,53,2
2,53,44,4
2,72,53,0
2,81,59,2
2,57,47,6
2,64,54,2
2,55,46,16
2,67,52,0
2,71,52,0
2,74,54,12
2,69,53,14
2,65,53,2
2,53,45,6
2,72,52,0
2,57,47,54
2,64,54,2
2,55,46,16
2,67,52,0
2,71,52,0
2,74,54,12
2,69,53,14
2,65,53,2
2,53,45,6
2,72,52,0
3,57,127,37706
3,64,121,178
3,60,94,16
3,62,121,30
3,62,121,160
3,62,112,32
3,60,121,14
3,59,121,18
3,57,112,20
3,64,121,242
3,60,90,26
3,62,121,22
3,57,127,980
3,64,121,166
3,60,94,16
3,62,121,30
3,62,121,160
3,62,112,32
3,60,121,14
3,59,121,18
3,57,112,20
3,64,121,242
3,60,90,26
3,62,121,22
3,57,127,40916
3,64,121,196
3,60,94,16
3,62,121,30
3,57,127,1092
3,64,121,196
3,60,94,16
3,62,121,30
3,57,127,1092
3,64,121,196
3,60,94,16
3,62,121,30
3,57,127,1092
3,64,121,202
3,60,94,16
3,62,121,30
3,62,121,160
3,62,112,32
3,60,121,14
3,59,121,18
3,57,112,20
3,57,127,42266
3,64,121,178
3,60,94,16
3,62,121,30
3,62,121,160
3,62,112,32
3,60,121,14
3,59,121,18
3,57,112,20
3,64,121,242
3,60,90,26
3,62,121,22
3,57,127,980
3,64,121,166
3,60,94,16
3,62,121,30
3,62,121,160
3,62,112,32
3,60,121,14
3,59,121,18
3,57,112,20
3,64,121,242
3,60,90,26
3,62,121,22
3,57,127,980
3,64,121,178
3,60,94,16
3,62,121,30
3,62,121,160
3,62,112,32
3,60,121,14
3,59,121,18
3,57,112,20
3,64,121,242
3,60,90,26
3,62,121,22
3,57,127,980
3,64,121,166
3,60,94,16
3,62,121,30
3,62,121,160
3,62,112,32
3,60,121,14
3,59,121,18
3,57,112,20
3,64,121,242
3,60,90,26
3,62,121,22
4,81,69,31544
4,84,80,294
4,88,80,294
4,84,80,294
4,79,69,294
4,83,80,294
4,88,80,294
4,83,80,294
4,86,80,294
4,83,80,294
4,79,69,294
4,88,80,294
4,86,80,294
4,84,80,294
4,81,80,294
4,79,80,294
4,81,69,294
4,84,80,294
4,88,80,294
4,84,80,294
4,79,69,294
4,83,80,294
4,88,80,294
4,83,80,294
4,86,80,294
4,83,80,294
4,79,69,294
4,88,80,294
4,86,80,294
4,84,80,294
4,81,80,294
4,79,80,294
4,81,69,294
4,84,80,294
4,88,80,294
4,84,80,294
4,79,69,294
4,83,80,294
4,88,80,294
4,83,80,294
4,86,80,294
4,83,80,294
4,79,69,294
4,88,80,294
4,86,80,294
4,84,80,294
4,81,80,294
4,79,80,294
4,81,69,3366
4,84,80,294
4,88,80,294
4,84,80,294
4,79,69,294
4,83,80,294
4,88,80,294
4,83,80,294
4,86,80,294
4,83,80,294
4,79,69,294
4,88,80,294
4,86,80,294
4,84,80,294
4,81,80,294
4,79,80,294
4,81,69,294
4,84,80,294
4,88,80,294
4,84,80,294
4,79,69,294
4,83,80,294
4,88,80,294
4,83,80,294
4,86,80,294
4,83,80,294
4,79,69,294
4,88,80,294
4,86,80,294
4,84,80,294
4,81,80,294
4,79,80,294
4,81,69,294
4,84,80,294
4,88,80,294
4,84,80,294
4,79,69,294
4,83,80,294
4,88,80,294
4,83,80,294
4,86,80,294
4,83,80,294
4,79,69,294
4,88,80,294
4,86,80,294
4,84,80,294
4,81,80,294
4,79,80,294
4,81,69,294
4,84,80,294
4,88,80,294
4,84,80,294
4,79,69,294
4,83,80,294
4,88,80,294
4,83,80,294
4,86,80,294
4,83,80,294
4,79,69,294
4,88,80,294
4,86,80,294
4,84,80,294
4,81,80,294
4,79,80,294
4,81,69,294
4,84,80,294
4,88,80,294
4,84,80,294
4,79,69,294
4,83,80,294
4,88,80,294
4,83,80,294
4,86,80,294
4,83,80,294
4,79,69,294
4,88,80,294
4,86,80,294
4,84,80,294
4,81,80,294
4,79,80,294
4,81,69,294
4,84,80,294
4,88,80,294
4,84,80,294
4,79,69,294
4,83,80,294
4,88,80,294
4,83,80,294
4,86,80,294
4,83,80,294
4,79,69,294
4,88,80,294
4,86,80,294
4,84,80,294
4,81,80,294
4,79,80,294
4,81,69,49446
4,84,80,294
4,88,80,294
4,84,80,294
4,79,69,294
4,83,80,294
4,88,80,294
4,83,80,294
4,86,80,294
4,83,80,294
4,79,69,294
4,88,80,294
4,86,80,294
4,84,80,294
4,81,80,294
4,79,80,294
4,81,69,294
4,84,80,294
4,88,80,294
4,84,80,294
4,79,69,294
4,83,80,294
4,88,80,294
4,83,80,294
4,86,80,294
4,83,80,294
4,79,69,294
4,88,80,294
4,86,80,294
4,84,80,294
4,81,80,294
4,79,80,294
4,81,69,294
4,84,80,294
4,88,80,294
4,84,80,294
4,79,69,294
4,83,80,294
4,88,80,294
4,83,80,294
4,86,80,294
4,83,80,294
4,79,69,294
4,88,80,294
4,86,80,294
4,84,80,294
4,81,80,294
4,79,80,294
4,81,69,294
4,84,80,294
4,88,80,294
4,84,80,294
4,79,69,294
4,83,80,294
4,88,80,294
4,83,80,294
4,86,80,294
4,83,80,294
4,79,69,294
4,88,80,294
4,86,80,294
4,84,80,294
4,81,80,294
4,79,80,294
4,81,69,294
4,84,80,294
4,88,80,294
4,84,80,294
4,79,69,294
4,83,80,294
4,88,80,294
4,83,80,294
4,86,80,294
4,83,80,294
4,79,69,294
4,88,80,294
4,86,80,294
4,84,80,294
4,81,80,294
4,79,80,294
4,81,69,294
4,84,80,294
4,88,80,294
4,84,80,294
4,79,69,294
4,83,80,294
4,88,80,294
4,83,80,294
4,86,80,294
4,83,80,294
4,79,69,294
4,88,80,294
4,86,80,294
4,84,80,294
4,81,80,294
4,79,80,294
4,81,69,294
4,84,80,294
4,88,80,294
4,84,80,294
4,79,69,294
4,83,80,294
4,88,80,294
4,83,80,294
4,86,80,294
4,83,80,294
4,79,69,294
4,88,80,294
4,86,80,294
4,84,80,294
4,81,80,294
4,79,80,294
4,81,69,294
4,84,80,294
4,88,80,294
4,84,80,294
4,79,69,294
4,83,80,294
4,88,80,294
4,83,80,294
4,86,80,294
4,83,80,294
4,79,69,294
4,88,80,294
4,86,80,294
4,84,80,294
4,81,80,294
4,79,80,294
4,81,69,294
4,84,80,294
4,88,80,294
4,84,80,294
4,79,69,294
4,83,80,294
4,88,80,294
4,83,80,294
4,86,80,294
4,83,80,294
4,79,69,294
4,88,80,294
4,86,80,294
4,84,80,294
4,81,80,294
4,79,80,294
5,57,33,31534
5,69,73,0
5,60,44,16
5,72,84,0
5,64,44,16
5,76,84,0
5,60,44,16
5,72,84,0
5,55,33,16
5,67,73,0
5,59,44,16
5,71,84,0
5,64,44,16
5,76,84,0
5,59,44,16
5,71,84,0
5,62,44,16
5,74,84,0
5,59,44,16
5,71,84,0
5,55,33,16
5,67,73,0
5,64,44,16
5,76,84,0
5,62,44,60
5,74,84,0
5,60,44,16
5,72,84,0
5,57,44,16
5,69,84,0
5,55,44,16
5,67,84,0
5,57,33,16
5,69,73,0
5,60,44,16
5,72,84,0
5,64,44,16
5,76,84,0
5,60,44,16
5,72,84,0
5,55,33,16
5,67,73,0
5,59,44,16
5,71,84,0
5,64,44,16
5,76,84,0
5,59,44,16
5,71,84,0
5,62,44,16
5,74,84,0
5,59,44,16
5,71,84,0
5,55,33,16
5,67,73,0
5,64,44,16
5,76,84,0
5,62,44,16
5,74,84,0
5,60,44,16
5,72,84,0
5,57,44,16
5,69,84,0
5,55,44,16
5,67,84,0
5,57,33,16
5,69,73,0
5,60,44,16
5,72,84,0
5,64,44,16
5,76,84,0
5,60,44,16
5,72,84,0
5,55,33,16
5,67,73,0
5,59,44,16
5,71,84,0
5,64,44,16
5,76,84,0
5,59,44,16
5,71,84,0
5,62,44,16
5,74,84,0
5,59,44,16
5,71,84,0
5,55,33,16
5,67,73,0
5,64,44,16
5,76,84,0
5,62,44,16
5,74,84,0
5,60,44,16
5,72,84,0
5,57,44,16
5,69,84,0
5,55,44,16
5,67,84,0
5,57,33,3088
5,69,73,0
5,60,44,16
5,72,84,0
5,64,44,16
5,76,84,0
5,60,44,16
5,72,84,0
5,55,33,16
5,67,73,0
5,59,44,16
5,71,84,0
5,64,44,16
5,76,84,0
5,59,44,16
5,71,84,0
5,62,44,16
5,74,84,0
5,59,44,16
5,71,84,0
5,55,33,16
5,67,73,0
5,64,44,16
5,76,84,0
5,62,44,16
5,74,84,0
5,60,44,16
5,72,84,0
5,57,44,16
5,69,84,0
5,55,44,16
5,67,84,0
5,57,33,16
5,69,73,0
5,60,44,16
5,72,84,0
5,64,44,16
5,76,84,0
5,60,44,16
5,72,84,0
5,55,33,16
5,67,73,0
5,59,44,16
5,71,84,0
5,64,44,16
5,76,84,0
5,59,44,16
5,71,84,0
5,62,44,16
5,74,84,0
5,59,44,16
5,71,84,0
5,55,33,16
5,67,73,0
5,64,44,16
5,76,84,0
5,62,44,16
5,74,84,0
5,60,44,16
5,72,84,0
5,57,44,16
5,69,84,0
5,55,44,16
5,67,84,0
5,57,33,16
5,69,73,0
5,60,44,16
5,72,84,0
5,64,44,16
5,76,84,0
5,60,44,16
5,72,84,0
5,55,33,16
5,67,73,0
5,59,44,16
5,71,84,0
5,64,44,16
5,76,84,0
5,59,44,16
5,71,84,0
5,62,44,16
5,74,84,0
5,59,44,16
5,71,84,0
5,55,33,16
5,67,73,0
5,64,44,16
5,76,84,0
5,62,44,136
5,74,84,0
5,60,44,16
5,72,84,0
5,57,44,16
