track,note,velocity,time
0,37,110,406
0,61,110,0
0,61,0,63
0,61,102,129
0,61,0,63
0,61,94,129
0,61,0,63
0,61,110,33
0,61,0,63
0,61,102,129
0,61,0,63
0,63,110,33
0,63,0,63
0,61,94,33
0,61,0,63
0,63,102,33
0,63,0,63
0,63,94,129
0,63,0,63
0,63,110,33
0,63,0,63
0,63,102,129
0,63,0,63
0,65,110,33
0,65,0,63
0,63,94,33
0,63,0,63
0,65,102,33
0,65,0,63
0,65,94,129
0,65,0,63
0,65,110,33
0,65,0,63
0,65,102,129
0,65,0,63
0,66,110,33
0,66,0,63
0,65,94,33
0,65,0,63
0,66,102,33
0,66,0,63
0,66,94,129
0,66,0,63
0,66,110,33
0,66,0,63
0,66,102,129
0,66,0,63
0,61,110,33
0,61,0,63
0,66,94,33
0,66,0,63
0,61,102,33
0,61,0,63
0,61,94,129
0,61,0,63
0,61,110,33
0,61,0,63
0,61,102,129
0,61,0,63
0,63,110,33
0,63,0,63
0,61,94,33
0,61,0,63
0,63,102,33
0,63,0,63
0,63,94,129
0,63,0,63
0,63,110,33
0,63,0,63
0,63,102,129
0,63,0,63
0,66,110,33
0,66,0,63
0,63,94,33
0,63,0,63
0,66,102,33
0,66,0,63
0,66,94,129
0,66,0,63
0,66,110,33
0,66,0,63
0,66,102,129
0,66,0,63
0,65,110,33
0,65,0,63
0,66,94,33
0,66,0,63
0,65,102,33
0,65,0,63
0,65,94,129
0,65,0,63
0,65,110,33
0,65,0,63
0,65,102,129
0,65,0,63
0,61,110,21
0,73,110,0
0,77,110,0
0,80,110,0
0,37,0,7
0,61,110,5
0,61,0,63
0,65,94,33
0,65,0,63
0,61,102,33
0,61,0,63
0,61,94,129
0,61,0,63
0,61,110,33
0,61,0,63
0,61,102,129
0,61,0,63
0,61,0,16
0,77,0,0
0,56,110,5
0,75,110,0
0,63,110,12
0,63,0,63
0,61,94,33
0,61,0,63
0,63,102,33
0,63,0,63
0,56,0,112
0,73,0,0
0,72,110,5
0,63,94,12
0,63,0,63
0,63,110,33
0,63,0,63
0,63,102,129
0,63,0,63
0,72,0,16
0,75,0,0
0,80,0,0
0,58,110,5
0,73,110,0
0,77,110,0
0,82,110,0
0,65,110,12
0,65,0,63
0,63,94,33
0,63,0,63
0,65,102,33
0,65,0,63
0,65,94,129
0,65,0,63
0,65,110,33
0,65,0,63
0,65,102,129
0,65,0,63
0,58,0,16
0,77,0,0
0,54,110,5
0,78,110,0
0,66,110,12
0,66,0,63
0,65,94,33
0,65,0,63
0,66,102,33
0,66,0,63
0,66,94,129
0,66,0,63
0,66,110,33
0,66,0,63
0,66,102,129
0,66,0,63
0,54,0,16
0,73,0,0
0,78,0,0
0,82,0,0
0,61,110,5
0,73,110,0
0,77,110,0
0,80,110,0
0,61,110,12
0,61,0,63
0,66,94,33
0,66,0,63
0,61,102,33
0,61,0,63
0,61,94,129
0,61,0,63
0,61,110,33
0,61,0,63
0,61,102,129
0,61,0,63
0,61,0,16
0,77,0,0
0,56,110,5
0,75,110,0
0,63,110,12
0,63,0,63
0,61,94,33
0,61,0,63
0,63,102,33
0,63,0,63
0,56,0,112
0,73,0,0
0,72,110,5
0,63,94,12
0,63,0,63
0,63,110,33
0,63,0,63
0,63,102,129
0,63,0,63
0,72,0,16
0,75,0,0
0,80,0,0
0,61,110,5
0,68,110,0
0,73,110,0
0,77,110,0
0,65,110,12
0,65,0,63
0,63,94,33
0,63,0,63
0,65,102,33
0,65,0,63
0,65,94,129
0,65,0,63
0,65,110,33
0,65,0,63
0,65,102,129
0,65,0,63
0,65,110,33
0,65,0,63
0,65,94,33
0,65,0,63
0,65,102,33
0,65,0,63
0,65,94,129
0,65,0,63
0,65,110,33
0,65,0,63
0,65,102,129
0,65,0,63
0,61,0,16
0,68,0,0
0,73,0,0
0,77,0,0
0,61,110,5
0,73,110,0
0,77,110,0
0,80,110,0
0,28,110,12
0,39,82,0
0,61,110,0
0,28,0,4
0,39,0,0
0,61,0,59
0,65,94,33
0,65,0,63
0,28,107,33
0,39,79,0
0,61,102,0
0,28,0,4
0,39,0,0
0,61,0,59
0,28,90,33
0,39,62,0
0,28,0,4
0,39,0,0
0,28,94,44
0,39,66,0
0,28,0,4
0,39,0,0
0,28,110,44
0,39,82,0
0,61,94,0
0,28,0,4
0,39,0,0
0,61,0,59
0,61,110,33
0,61,0,63
0,28,100,33
0,39,72,0
0,28,0,4
0,39,0,0
0,28,100,92
0,39,72,0
0,61,102,0
0,28,0,4
0,39,0,0
0,28,103,44
0,39,75,0
0,28,0,4
0,39,0,0
0,61,0,11
0,61,0,16
0,77,0,0
0,56,110,5
0,75,110,0
0,28,116,12
0,39,88,0
0,63,110,0
0,28,0,4
0,39,0,0
0,63,0,59
0,61,94,33
0,61,0,63
0,28,110,33
0,39,82,0
0,63,102,0
0,28,0,4
0,39,0,0
0,63,0,59
0,28,100,33
0,39,72,0
0,28,0,4
0,39,0,0
0,28,94,44
0,39,66,0
0,28,0,4
0,39,0,0
0,56,0,27
0,73,0,0
0,72,110,5
0,28,110,12
0,39,82,0
0,63,94,0
0,28,0,4
0,39,0,0
0,63,0,59
0,28,110,33
0,39,82,0
0,63,110,0
0,28,0,4
0,39,0,0
0,63,0,59
0,28,110,33
0,39,82,0
0,28,0,4
0,39,0,0
0,28,94,44
0,39,66,0
0,28,0,4
0,39,0,0
0,28,107,44
0,39,79,0
0,63,102,0
0,28,0,4
0,39,0,0
0,28,87,44
0,39,59,0
0,28,0,4
0,39,0,0
0,63,0,11
0,72,0,16
0,75,0,0
0,80,0,0
0,58,110,5
0,73,110,0
0,77,110,0
0,82,110,0
0,28,110,12
0,39,82,0
0,65,110,0
0,28,0,4
0,39,0,0
0,65,0,59
0,63,94,33
0,63,0,63
0,28,110,33
0,39,82,0
0,65,102,0
0,28,0,4
0,39,0,0
0,65,0,59
0,28,74,33
0,39,46,0
0,28,0,4
0,39,0,0
0,28,94,44
0,39,66,0
0,28,0,4
0,39,0,0
0,28,116,44
0,39,88,0
0,65,94,0
0,28,0,4
0,39,0,0
0,65,0,59
0,65,110,33
0,65,0,63
0,28,103,33
0,39,75,0
0,28,0,4
0,39,0,0
0,28,94,92
0,39,66,0
0,65,102,0
0,28,0,4
0,39,0,0
0,28,94,44
0,39,66,0
0,28,0,4
0,39,0,0
0,65,0,11
0,58,0,16
0,77,0,0
0,54,110,5
0,78,110,0
0,28,110,12
0,39,82,0
0,66,110,0
0,28,0,4
0,39,0,0
0,66,0,59
0,65,94,33
0,65,0,63
0,28,110,33
0,39,82,0
0,66,102,0
0,28,0,4
0,39,0,0
0,66,0,59
0,28,110,33
0,39,82,0
0,28,0,4
0,39,0,0
0,28,110,92
0,39,82,0
0,66,94,0
0,28,0,4
0,39,0,0
0,28,87,44
0,39,59,0
0,28,0,4
0,39,0,0
0,66,0,11
0,28,107,33
0,39,79,0
0,66,110,0
0,28,0,4
0,39,0,0
0,66,0,59
0,28,110,33
0,39,82,0
0,28,0,4
0,39,0,0
0,28,71,44
0,39,43,0
0,28,0,4
0,39,0,0
0,28,110,44
0,39,82,0
0,66,102,0
0,28,0,4
0,39,0,0
0,28,87,44
0,39,59,0
0,28,0,4
0,39,0,0
0,66,0,11
0,54,0,16
0,73,0,0
0,78,0,0
0,82,0,0
0,61,110,5
0,73,110,0
0,77,110,0
0,80,110,0
0,28,116,12
0,39,88,0
0,61,110,0
0,28,0,4
0,39,0,0
0,61,0,59
0,66,94,33
0,66,0,63
0,28,107,33
0,39,79,0
0,61,102,0
0,28,0,4
0,39,0,0
0,61,0,59
0,28,103,33
0,39,75,0
0,28,0,4
0,39,0,0
0,28,94,44
0,39,66,0
0,28,0,4
0,39,0,0
0,28,110,44
0,39,82,0
0,61,94,0
0,28,0,4
0,39,0,0
0,61,0,59
0,61,110,33
0,61,0,63
0,28,107,33
0,39,79,0
0,28,0,4
0,39,0,0
0,28,110,92
0,39,82,0
0,61,102,0
0,28,0,4
0,39,0,0
0,28,87,44
0,39,59,0
0,28,0,4
0,39,0,0
0,61,0,11
0,61,0,16
0,77,0,0
0,56,110,5
0,75,110,0
0,28,110,12
0,38,11,0
0,39,82,0
0,63,110,0
0,28,0,4
0,38,0,0
0,39,0,0
0,38,12,44
0,38,0,4
0,63,0,11
0,38,13,33
0,61,94,0
0,38,0,4
0,38,14,44
0,38,0,4
0,61,0,11
0,28,103,33
0,38,18,0
0,39,75,0
0,63,102,0
0,28,0,4
0,38,0,0
0,39,0,0
0,38,21,44
0,38,0,4
0,63,0,11
0,28,94,33
0,38,28,0
0,39,66,0
0,28,0,4
0,38,0,0
0,39,0,0
0,28,90,44
0,38,28,0
0,39,62,0
0,28,0,4
0,38,0,0
0,39,0,0
0,56,0,27
0,73,0,0
0,72,110,5
0,28,103,12
0,38,32,0
0,39,75,0
0,63,94,0
0,28,0,4
0,38,0,0
0,39,0,0
0,38,35,44
0,38,0,4
0,63,0,11
0,28,100,33
0,38,39,0
0,39,72,0
0,63,110,0
0,28,0,4
0,38,0,0
0,39,0,0
0,38,42,44
0,38,0,4
0,63,0,11
0,28,110,33
0,38,42,0
0,39,82,0
0,28,0,4
0,38,0,0
0,39,0,0
0,28,90,44
0,38,46,0
0,39,62,0
0,28,0,4
0,38,0,0
0,39,0,0
0,28,107,44
0,38,46,0
0,39,79,0
0,63,102,0
0,28,0,4
0,38,0,0
0,39,0,0
0,28,78,44
0,38,50,0
0,39,50,0
0,28,0,4
0,38,0,0
0,39,0,0
0,63,0,11
0,72,0,16
0,75,0,0
0,80,0,0
0,49,110,5
0,68,110,0
0,73,110,0
0,77,110,0
0,28,110,12
0,38,50,0
0,39,82,0
0,65,110,0
0,28,0,4
0,38,0,0
0,39,0,0
0,38,50,44
0,38,0,4
0,65,0,11
0,38,53,33
0,63,94,0
0,38,0,4
0,38,57,44
0,38,0,4
0,63,0,11
0,28,116,33
0,38,57,0
0,39,88,0
0,65,102,0
0,28,0,4
0,38,0,0
0,39,0,0
0,38,60,44
0,38,0,4
0,65,0,11
0,28,94,33
0,38,60,0
0,39,66,0
0,28,0,4
0,38,0,0
0,39,0,0
0,28,94,44
0,38,60,0
0,39,66,0
0,28,0,4
0,38,0,0
0,39,0,0
0,28,110,44
0,38,64,0
0,39,82,0
0,65,94,0
0,28,0,4
0,38,0,0
0,39,0,0
0,38,64,44
0,38,0,4
0,65,0,11
0,38,64,33
0,65,110,0
0,38,0,4
0,38,64,44
0,38,0,4
0,65,0,11
0,28,110,33
0,38,78,0
0,39,82,0
0,28,0,4
0,38,0,0
0,39,0,0
0,38,85,44
0,38,0,4
0,28,94,44
0,38,85,0
0,39,66,0
0,65,102,0
0,28,0,4
0,38,0,0
0,39,0,0
0,28,94,44
0,38,99,0
0,39,66,0
0,28,0,4
0,38,0,0
0,39,0,0
0,65,0,11
0,28,110,33
0,38,102,0
0,39,82,0
0,65,110,0
0,28,0,4
0,38,0,0
0,39,0,0
0,38,102,44
0,38,0,4
0,65,0,11
0,38,102,33
0,65,94,0
0,38,0,4
0,38,102,44
0,38,0,4
0,65,0,11
0,28,103,33
0,38,102,0
0,39,75,0
0,65,102,0
0,28,0,4
0,38,0,0
0,39,0,0
0,38,102,44
0,38,0,4
0,65,0,11
0,28,103,33
0,38,102,0
0,39,75,0
0,28,0,4
0,38,0,0
0,39,0,0
0,38,102,44
0,38,0,4
0,28,116,44
0,38,102,0
0,39,88,0
0,65,94,0
0,28,0,4
0,38,0,0
0,39,0,0
0,28,100,44
0,38,102,0
0,39,72,0
0,28,0,4
0,38,0,0
0,39,0,0
0,65,0,11
0,28,110,33
0,38,102,0
0,39,82,0
0,65,110,0
0,28,0,4
0,38,0,0
0,39,0,0
0,38,106,44
0,38,0,4
0,65,0,11
0,28,107,33
0,38,106,0
0,39,79,0
0,28,0,4
0,38,0,0
0,39,0,0
0,28,84,44
0,38,110,0
0,39,56,0
0,28,0,4
0,38,0,0
0,39,0,0
0,28,116,44
0,38,106,0
0,39,88,0
0,65,102,0
0,28,0,4
0,38,0,0
0,39,0,0
0,28,110,44
0,38,110,0
0,39,82,0
0,28,0,4
0,38,0,0
0,39,0,0
0,65,0,11
0,49,0,16
0,68,0,0
0,73,0,0
0,77,0,0
0,25,116,17
0,42,90,0
0,49,110,0
0,49,110,0
0,73,110,0
0,42,0,4
0,49,0,0
0,73,0,7
0,73,90,37
0,73,110,0
0,73,0,11
0,73,0,0
0,49,0,30
0,46,90,7
0,49,88,0
0,73,90,0
0,73,110,0
0,46,0,4
0,73,0,7
0,73,0,0
0,25,0,12
0,32,116,25
0,49,89,0
0,73,90,0
0,73,0,11
0,49,0,6
0,32,0,5
0,49,0,19
0,37,116,7
0,42,90,0
0,49,110,0
0,73,110,0
0,42,0,4
0,37,0,4
0,73,0,3
0,49,0,6
0,37,116,31
0,49,56,0
0,49,108,0
0,73,90,0
0,73,110,0
0,73,0,11
0,73,0,0
0,49,0,6
0,49,0,0
0,37,0,6
0,32,116,25
0,46,90,0
0,49,82,0
0,61,105,0
0,73,90,0
0,73,110,0
0,46,0,4
0,73,0,7
0,73,0,0
0,49,0,6
0,49,75,31
0,73,90,0
0,73,0,11
0,61,0,4
0,49,0,2
0,32,0,25
0,37,116,6
0,42,90,0
0,61,72,0
0,61,105,0
0,73,110,0
0,42,0,4
0,73,0,7
0,37,0,2
0,37,116,35
0,73,90,0
0,73,110,0
0,61,0,11
0,73,0,0
0,73,0,0
0,61,0,4
0,37,0,1
0,32,116,32
0,46,90,0
0,56,99,0
0,61,72,0
0,73,90,0
0,73,110,0
0,46,0,4
0,73,0,7
0,73,0,0
0,73,90,37
0,56,0,5
0,61,0,6
0,73,0,0
0,32,0,36
0,37,116,1
0,42,90,0
0,56,66,0
0,61,110,0
0,73,110,0
0,42,0,4
0,37,0,7
0,73,0,0
0,37,116,37
0,73,90,0
0,73,110,0
0,56,0,5
0,73,0,6
0,73,0,0
0,37,0,7
0,61,0,0
0,32,116,30
0,46,90,0
0,56,110,0
0,61,79,0
0,73,90,0
0,73,110,0
0,46,0,4
0,73,0,7
0,73,0,0
0,42,90,37
0,73,90,0
0,42,0,4
0,73,0,7
0,61,0,7
0,56,0,2
0,25,116,28
0,42,90,0
0,49,108,0
0,56,79,0
0,72,110,0
0,32,0,2
0,42,0,2
0,72,0,7
0,72,90,37
0,72,110,0
0,72,0,11
0,72,0,0
0,56,0,9
0,49,0,13
0,46,90,15
0,49,75,0
0,72,90,0
0,72,110,0
0,46,0,4
0,72,0,7
0,72,0,0
0,25,0,12
0,32,116,25
0,49,89,0
0,72,90,0
0,72,0,11
0,49,0,6
0,32,0,4
0,49,0,12
0,37,116,15
0,42,90,0
0,49,105,0
0,72,110,0
0,42,0,4
0,37,0,5
0,72,0,2
0,49,0,6
0,37,116,31
0,49,56,0
0,49,99,0
0,72,90,0
0,72,110,0
0,72,0,11
0,72,0,0
0,49,0,6
0,49,0,0
0,37,0,11
0,32,116,20
0,46,90,0
0,49,72,0
0,61,110,0
0,72,90,0
0,72,110,0
0,46,0,4
0,72,0,7
0,72,0,0
0,49,0,6
0,49,66,31
0,72,90,0
0,61,0,10
0,72,0,1
0,49,0,6
0,32,0,19
0,37,116,12
0,42,90,0
0,61,79,0
0,61,92,0
0,72,110,0
0,42,0,4
0,37,0,5
0,72,0,2
0,37,116,37
0,72,90,0
0,72,110,0
0,61,0,10
0,72,0,1
0,72,0,0
0,61,0,4
0,37,0,6
0,32,116,27
0,46,90,0
0,56,105,0
0,61,59,0
0,72,90,0
0,72,110,0
0,46,0,4
0,72,0,7
0,72,0,0
0,72,90,37
0,72,0,11
0,56,0,2
0,61,0,2
0,32,0,26
0,37,116,7
0,42,90,0
0,56,72,0
0,61,105,0
0,72,110,0
0,42,0,4
0,37,0,5
0,72,0,2
0,37,116,37
0,72,90,0
0,72,110,0
0,72,0,11
0,72,0,0
0,56,0,2
0,61,0,4
0,37,0,3
