track,note,velocity,time
1,39,95,36956
1,39,95,100
1,39,95,4
1,39,95,4
1,39,95,100
1,39,95,4
1,39,95,4
1,39,95,100
1,39,95,4
1,39,95,4
1,39,95,100
1,39,95,4
1,41,95,4
1,41,95,100
1,41,95,4
1,41,95,4
1,41,95,100
1,41,95,4
1,41,95,4
1,41,95,100
1,41,95,4
1,41,95,4
1,41,95,100
1,41,95,4
1,38,95,4
1,38,95,100
1,38,95,4
1,38,95,4
1,38,95,100
1,38,95,4
1,38,95,4
1,38,95,100
1,38,95,4
1,38,95,4
1,38,95,100
1,38,95,4
1,39,95,4
1,39,95,100
1,39,95,4
1,39,95,4
1,39,95,100
1,39,95,4
1,39,95,4
1,39,95,100
1,39,95,4
1,39,95,4
1,39,95,100
1,39,95,4
1,39,95,4
1,39,95,100
1,39,95,4
1,39,95,4
1,39,95,100
1,39,95,4
1,39,95,4
1,39,95,100
1,39,95,4
1,39,95,4
1,39,95,100
1,39,95,4
1,41,95,4
1,41,95,100
1,41,95,4
1,41,95,4
1,41,95,100
1,41,95,4
1,41,95,4
1,41,95,100
1,41,95,4
1,41,95,4
1,41,95,100
1,41,95,4
1,38,95,4
1,38,95,100
1,38,95,4
1,38,95,4
1,38,95,100
1,38,95,4
1,38,95,4
1,38,95,100
1,38,95,4
1,38,95,4
1,38,95,100
1,38,95,4
1,39,95,4
1,39,95,100
1,39,95,4
1,39,95,4
1,39,95,100
1,39,95,4
1,39,95,4
1,39,95,100
1,39,95,4
1,39,95,4
1,39,95,100
1,39,95,4
1,39,95,4
1,39,95,100
1,39,95,4
1,39,95,4
1,39,95,100
1,39,95,4
1,39,95,4
1,39,95,100
1,39,95,4
1,39,95,4
1,39,95,100
1,39,95,4
1,41,95,4
1,41,95,100
1,41,95,4
1,41,95,4
1,41,95,100
1,41,95,4
1,41,95,4
1,41,95,100
1,41,95,4
1,41,95,4
1,41,95,100
1,41,95,4
1,38,95,4
1,38,95,100
1,38,95,4
1,38,95,4
1,38,95,100
1,38,95,4
1,38,95,4
1,38,95,100
1,38,95,4
1,38,95,4
1,38,95,100
1,38,95,4
1,39,95,4
1,39,95,100
1,39,95,4
1,39,95,4
1,39,95,100
1,39,95,4
1,39,95,4
1,39,95,100
1,39,95,4
1,39,95,4
1,39,95,100
1,39,95,4
1,39,95,4
1,39,95,100
1,39,95,4
1,39,95,4
1,39,95,100
1,39,95,4
1,39,95,4
1,39,95,100
1,39,95,4
1,39,95,4
1,39,95,100
1,39,95,4
1,41,95,4
1,41,95,100
1,41,95,4
1,41,95,4
1,41,95,100
1,41,95,4
1,41,95,4
1,41,95,100
1,41,95,4
1,41,95,4
1,41,95,100
1,41,95,4
1,38,95,4
1,38,95,100
1,38,95,4
1,38,95,4
1,38,95,100
1,38,95,4
1,38,95,4
1,38,95,100
1,38,95,4
1,38,95,4
1,38,95,100
1,38,95,4
1,39,95,4
1,39,95,100
1,39,95,4
1,39,95,4
1,39,95,100
1,39,95,4
1,39,95,4
1,39,95,100
1,39,95,4
1,39,95,4
1,39,95,100
1,39,95,4
1,39,95,4
1,39,95,100
1,39,95,4
1,39,95,4
1,39,95,100
1,39,95,4
1,39,95,4
1,39,95,100
1,39,95,4
1,39,95,4
1,39,95,100
1,39,95,4
1,41,95,4
1,41,95,100
1,41,95,4
1,41,95,4
1,41,95,100
1,41,95,4
1,41,95,4
1,41,95,100
1,41,95,4
1,41,95,4
1,41,95,100
1,41,95,4
1,38,95,4
1,38,95,100
1,38,95,4
1,38,95,4
1,38,95,100
1,38,95,4
1,38,95,4
1,38,95,100
1,38,95,4
1,38,95,4
1,38,95,100
1,38,95,4
1,39,95,4
1,39,95,100
1,39,95,4
1,39,95,4
1,39,95,100
1,39,95,4
1,39,95,4
1,39,95,100
1,39,95,4
1,39,95,4
1,39,95,100
1,39,95,4
1,39,95,4
1,39,95,100
1,39,95,4
1,39,95,4
1,39,95,100
1,39,95,4
1,39,95,4
1,39,95,100
1,39,95,4
1,39,95,4
1,39,95,100
1,39,95,4
1,41,95,4
1,41,95,100
1,41,95,4
1,41,95,4
1,41,95,100
1,41,95,4
1,41,95,4
1,41,95,100
1,41,95,4
1,41,95,4
1,41,95,100
1,41,95,4
1,38,95,4
1,38,95,100
1,38,95,4
1,38,95,4
1,38,95,100
1,38,95,4
1,38,95,4
1,38,95,100
1,38,95,4
1,38,95,4
1,38,95,100
1,38,95,4
1,39,95,4
1,39,95,100
1,39,95,4
1,39,95,4
1,39,95,100
1,39,95,4
1,39,95,4
1,39,95,100
1,39,95,4
1,39,95,4
1,39,95,100
1,39,95,4
1,39,95,36868
1,39,95,100
1,39,95,4
1,39,95,4
1,39,95,100
1,39,95,4
1,39,95,4
1,39,95,100
1,39,95,4
1,39,95,4
1,39,95,100
1,39,95,4
1,41,95,4
1,41,95,100
1,41,95,4
1,41,95,4
1,41,95,100
1,41,95,4
1,41,95,4
1,41,95,100
1,41,95,4
1,41,95,4
1,41,95,100
1,41,95,4
1,38,95,4
1,38,95,100
1,38,95,4
1,38,95,4
1,38,95,100
1,38,95,4
1,38,95,4
1,38,95,100
1,38,95,4
1,38,95,4
1,38,95,100
1,38,95,4
1,39,95,4
1,39,95,100
1,39,95,4
1,39,95,4
1,39,95,100
1,39,95,4
1,39,95,4
1,39,95,100
1,39,95,4
1,39,95,4
1,39,95,100
1,39,95,4
1,39,95,4
1,39,95,100
1,39,95,4
1,39,95,4
1,39,95,100
1,39,95,4
1,39,95,4
1,39,95,100
1,39,95,4
1,39,95,4
1,39,95,100
1,39,95,4
1,41,95,4
1,41,95,100
1,41,95,4
1,41,95,4
1,41,95,100
1,41,95,4
1,41,95,4
1,41,95,100
1,41,95,4
1,41,95,4
1,41,95,100
1,41,95,4
1,38,95,4
1,38,95,100
1,38,95,4
1,38,95,4
1,38,95,100
1,38,95,4
1,38,95,4
1,38,95,100
1,38,95,4
1,38,95,4
1,38,95,100
1,38,95,4
1,39,95,4
1,39,95,100
1,39,95,4
1,39,95,4
1,39,95,100
1,39,95,4
1,39,95,4
1,39,95,100
1,39,95,4
1,39,95,4
1,39,95,100
1,39,95,4
1,39,95,4
1,39,95,100
1,39,95,4
1,39,95,4
1,39,95,100
1,39,95,4
1,39,95,4
1,39,95,100
1,39,95,4
1,39,95,4
1,39,95,100
1,39,95,4
1,41,95,4
1,41,95,100
1,41,95,4
1,41,95,4
1,41,95,100
1,41,95,4
1,41,95,4
1,41,95,100
1,41,95,4
1,41,95,4
1,41,95,100
1,41,95,4
1,38,95,4
1,38,95,100
1,38,95,4
1,38,95,4
1,38,95,100
1,38,95,4
1,38,95,4
1,38,95,100
1,38,95,4
1,38,95,4
1,38,95,100
1,38,95,4
1,39,95,4
1,39,95,100
1,39,95,4
1,39,95,4
1,39,95,100
1,39,95,4
1,39,95,4
1,39,95,100
1,39,95,4
1,39,95,4
1,39,95,100
1,39,95,4
1,39,95,4
1,39,95,100
1,39,95,4
1,39,95,4
1,39,95,100
1,39,95,4
1,39,95,4
1,39,95,100
1,39,95,4
1,39,95,4
1,39,95,100
1,39,95,4
1,41,95,4
1,41,95,100
1,41,95,4
1,41,95,4
1,41,95,100
1,41,95,4
1,41,95,4
1,41,95,100
1,41,95,4
1,41,95,4
1,41,95,100
1,41,95,4
1,38,95,4
1,38,95,100
1,38,95,4
1,38,95,4
1,38,95,100
1,38,95,4
1,38,95,4
1,38,95,100
1,38,95,4
1,38,95,4
1,38,95,100
1,38,95,4
1,39,95,4
1,39,95,100
1,39,95,4
1,39,95,4
1,39,95,100
1,39,95,4
1,39,95,4
1,39,95,100
1,39,95,4
1,39,95,4
1,39,95,100
1,39,95,4
1,39,95,4
1,39,95,100
1,39,95,4
1,39,95,4
1,39,95,100
1,39,95,4
1,39,95,4
1,39,95,100
1,39,95,4
1,39,95,4
1,39,95,100
1,39,95,4
1,41,95,4
1,41,95,100
1,41,95,4
1,41,95,4
1,41,95,100
1,41,95,4
1,41,95,4
1,41,95,100
1,41,95,4
1,41,95,4
1,41,95,100
1,41,95,4
1,38,95,4
1,38,95,100
1,38,95,4
1,38,95,4
1,38,95,100
1,38,95,4
1,38,95,4
1,38,95,100
1,38,95,4
1,38,95,4
1,38,95,100
1,38,95,4
1,39,95,4
1,39,95,100
1,39,95,4
1,39,95,4
1,39,95,100
1,39,95,4
1,39,95,4
1,39,95,100
1,39,95,4
1,39,95,4
1,39,95,100
1,39,95,4
1,39,95,4
1,39,95,100
1,39,95,4
1,39,95,4
1,39,95,100
1,39,95,4
1,39,95,4
1,39,95,100
1,39,95,4
1,39,95,4
1,39,95,100
1,39,95,4
1,41,95,4
1,41,95,100
1,41,95,4
1,41,95,4
1,41,95,100
1,41,95,4
1,41,95,4
1,41,95,100
1,41,95,4
1,41,95,4
1,41,95,100
1,41,95,4
1,38,95,4
1,38,95,100
1,38,95,4
1,38,95,4
1,38,95,100
1,38,95,4
1,38,95,4
1,38,95,100
1,38,95,4
1,38,95,4
1,38,95,100
1,38,95,4
1,39,95,4
1,39,95,100
1,39,95,4
1,39,95,4
1,39,95,100
1,39,95,4
1,39,95,4
1,39,95,100
1,39,95,4
1,39,95,4
1,39,95,100
1,39,95,4
1,39,95,12292
1,39,95,100
1,39,95,4
1,39,95,4
1,39,95,100
1,39,95,4
1,39,95,4
1,39,95,100
1,39,95,4
1,39,95,4
1,39,95,100
1,39,95,4
1,41,95,4
1,41,95,100
1,41,95,4
1,41,95,4
1,41,95,100
1,41,95,4
1,41,95,4
1,41,95,100
1,41,95,4
1,41,95,4
1,41,95,100
1,41,95,4
1,38,95,4
1,38,95,100
1,38,95,4
1,38,95,4
1,38,95,100
1,38,95,4
1,38,95,4
1,38,95,100
1,38,95,4
1,38,95,4
1,38,95,100
1,38,95,4
1,39,95,4
1,39,95,100
1,39,95,4
1,39,95,4
1,39,95,100
1,39,95,4
1,39,95,4
1,39,95,100
1,39,95,4
1,39,95,4
1,39,95,100
1,39,95,4
1,39,95,4
1,39,95,100
1,39,95,4
1,39,95,4
1,39,95,100
1,39,95,4
1,39,95,4
1,39,95,100
1,39,95,4
1,39,95,4
1,39,95,100
1,39,95,4
1,41,95,4
1,41,95,100
1,41,95,4
1,41,95,4
1,41,95,100
1,41,95,4
1,41,95,4
1,41,95,100
1,41,95,4
1,41,95,4
1,41,95,100
1,41,95,4
1,38,95,4
1,38,95,100
1,38,95,4
1,38,95,4
1,38,95,100
1,38,95,4
1,38,95,4
1,38,95,100
1,38,95,4
1,38,95,4
1,38,95,100
1,38,95,4
1,39,95,1540
1,39,95,100
1,39,95,4
1,39,95,4
1,39,95,100
1,39,95,4
1,39,95,4
1,39,95,100
1,39,95,4
1,39,95,4
1,39,95,100
1,39,95,4
1,41,95,4
1,41,95,100
1,41,95,4
1,41,95,4
1,41,95,100
1,41,95,4
1,41,95,4
1,41,95,100
1,41,95,4
1,41,95,4
1,41,95,100
1,41,95,4
1,38,95,4
1,38,95,100
1,38,95,4
1,38,95,4
1,38,95,100
1,38,95,4
1,38,95,4
1,38,95,100
1,38,95,4
1,38,95,4
1,38,95,100
1,38,95,4
1,39,95,4
1,39,95,100
1,39,95,4
1,39,95,4
1,39,95,100
1,39,95,4
1,39,95,4
1,39,95,100
1,39,95,4
1,39,95,4
1,39,95,100
1,39,95,4
1,39,95,4
1,39,95,100
1,39,95,4
1,39,95,4
1,39,95,100
1,39,95,4
1,39,95,4
1,39,95,100
1,39,95,4
1,39,95,4
1,39,95,100
1,39,95,4
1,41,95,4
1,41,95,100
1,41,95,4
1,41,95,4
1,41,95,100
1,41,95,4
1,41,95,4
1,41,95,100
1,41,95,4
1,41,95,4
1,41,95,100
1,41,95,4
1,38,95,4
1,38,95,100
1,38,95,4
1,38,95,4
1,38,95,100
1,38,95,4
1,38,95,4
1,38,95,100
1,38,95,4
1,38,95,4
1,38,95,100
1,38,95,4
1,39,95,4
1,39,95,100
1,39,95,4
1,39,95,4
1,39,95,100
1,39,95,4
1,39,95,4
1,39,95,100
1,39,95,4
1,39,95,4
1,39,95,100
1,39,95,4
2,70,85,12566
2,70,85,100
2,72,85,100
2,72,85,100
2,74,85,100
2,72,85,100
2,72,85,100
2,70,85,100
2,70,85,100
2,69,85,100
2,65,85,100
2,65,85,100
2,67,85,100
2,67,85,100
2,69,85,100
2,70,85,100
2,70,85,100
2,69,85,100
2,69,85,100
2,67,85,100
2,70,85,100
2,70,85,100
2,72,85,100
2,72,85,100
2,74,85,100
2,72,85,100
2,72,85,100
2,70,85,100
2,70,85,100
2,69,85,100
2,65,85,100
2,65,85,100
2,67,85,100
2,67,85,100
2,69,85,100
2,70,85,100
2,70,85,100
2,69,85,100
2,69,85,100
2,67,85,100
2,70,85,100
2,70,85,100
2,72,85,100
2,72,85,100
2,74,85,100
2,72,85,100
2,72,85,100
2,70,85,100
2,70,85,100
2,69,85,100
2,65,85,100
2,65,85,100
2,67,85,100
2,67,85,100
2,69,85,100
2,70,85,100
2,70,85,100
2,69,85,100
2,69,85,100
2,67,85,100
2,70,85,100
2,70,85,100
2,72,85,100
2,72,85,100
2,74,85,100
2,72,85,100
2,72,85,100
2,70,85,100
2,70,85,100
2,69,85,100
2,65,85,100
2,65,85,100
2,67,85,100
2,67,85,100
2,69,85,100
2,70,85,100
2,70,85,100
2,69,85,100
2,69,85,100
2,67,85,100
2,70,85,100
2,70,85,100
2,72,85,100
2,72,85,100
2,74,85,100
2,72,85,100
2,72,85,100
2,70,85,100
2,70,85,100
2,69,85,100
2,65,85,100
2,65,85,100
2,67,85,100
2,67,85,100
2,69,85,100
2,70,85,100
2,70,85,100
2,69,85,100
2,69,85,100
2,67,85,100
2,70,85,100
2,70,85,100
2,72,85,100
2,72,85,100
2,74,85,100
2,72,85,100
2,72,85,100
2,70,85,100
2,70,85,100
2,69,85,100
2,65,85,100
2,65,85,100
2,67,85,100
2,67,85,100
2,69,85,100
2,70,85,100
2,70,85,100
2,69,85,100
2,69,85,100
2,67,85,100
2,70,85,100
2,70,85,100
2,72,85,100
2,72,85,100
2,74,85,100
2,72,85,100
2,72,85,100
2,70,85,100
2,70,85,100
2,69,85,100
2,65,85,100
2,65,85,100
2,67,85,100
2,67,85,100
2,69,85,100
2,70,85,100
2,70,85,100
2,69,85,100
2,69,85,100
2,67,85,100
2,70,85,100
2,70,85,100
2,72,85,100
2,72,85,100
2,74,85,100
2,72,85,100
2,72,85,100
2,70,85,100
2,70,85,100
2,69,85,100
2,65,85,100
2,65,85,100
2,67,85,100
2,67,85,100
2,69,85,100
2,70,85,100
2,70,85,100
2,69,85,100
2,69,85,100
2,67,85,100
2,70,85,100
2,70,85,100
2,72,85,100
2,72,85,100
2,74,85,100
2,72,85,100
2,72,85,100
2,70,85,100
2,70,85,100
2,69,85,100
2,65,85,100
2,65,85,100
2,67,85,100
2,67,85,100
2,69,85,100
2,70,85,100
2,70,85,100
2,69,85,100
2,69,85,100
2,67,85,100
2,70,85,100
2,70,85,100
2,72,85,100
2,72,85,100
2,74,85,100
2,72,85,100
2,72,85,100
2,70,85,100
2,70,85,100
2,69,85,100
2,65,85,100
2,65,85,100
2,67,85,100
2,67,85,100
2,69,85,100
2,70,85,100
2,70,85,100
2,69,85,100
2,69,85,100
2,67,85,100
2,70,85,49252
2,70,85,100
2,72,85,100
2,72,85,100
2,74,85,100
2,72,85,100
2,72,85,100
2,70,85,100
2,70,85,100
2,69,85,100
2,65,85,100
2,65,85,100
2,67,85,100
2,67,85,100
2,69,85,100
2,70,85,100
2,70,85,100
2,69,85,100
2,69,85,100
2,67,85,100
2,70,85,100
2,70,85,100
2,72,85,100
2,72,85,100
2,74,85,100
2,72,85,100
2,72,85,100
2,70,85,100
2,70,85,100
2,69,85,100
2,65,85,100
2,65,85,100
2,67,85,100
2,67,85,100
2,69,85,100
2,70,85,100
2,70,85,100
2,69,85,100
2,69,85,100
2,67,85,100
2,70,85,100
2,70,85,100
2,72,85,100
2,72,85,100
