track,note,velocity,time
1,74,90,1140
1,43,90,0
1,71,95,0
1,50,89,132
1,59,80,0
1,50,88,192
1,72,96,164
1,65,87,0
1,50,95,100
1,59,70,80
1,71,93,4
1,65,88,0
1,50,80,0
1,72,83,16
1,43,74,0
1,64,74,0
1,48,84,20
1,52,86,196
1,48,75,0
1,64,80,4
1,63,71,128
1,71,87,0
1,51,71,64
1,69,87,124
1,63,68,0
1,43,75,16
1,71,78,0
1,67,74,0
1,74,78,0
1,50,76,16
1,76,79,188
1,67,74,0
1,59,61,8
1,50,72,96
1,74,80,8
1,67,77,0
1,72,88,132
1,65,81,0
1,50,81,64
1,59,60,124
1,65,76,8
1,71,88,0
1,50,84,176
1,64,67,8
1,72,81,0
1,43,72,0
1,48,84,52
1,52,80,4
1,48,76,0
1,64,86,8
1,63,59,116
1,71,90,4
1,51,84,144
1,63,64,56
1,69,89,0
1,57,63,4
1,74,90,40
1,43,90,0
1,71,95,0
1,50,89,132
1,59,80,0
1,50,88,192
1,72,96,164
1,65,87,0
1,50,95,100
1,59,70,80
1,71,93,4
1,65,88,0
1,50,80,0
1,72,83,16
1,43,74,0
1,64,74,0
1,48,84,20
1,52,86,196
1,48,75,0
1,64,80,4
1,63,71,128
1,71,87,0
1,51,71,64
1,69,87,124
1,63,68,0
1,43,75,16
1,71,78,0
1,67,74,0
1,74,78,0
1,50,76,16
1,76,79,188
1,67,74,0
1,59,61,8
1,50,72,96
1,74,80,8
1,67,77,0
1,72,88,132
1,65,81,0
1,50,81,64
1,59,60,124
1,65,76,8
1,71,88,0
1,50,84,176
1,64,67,8
1,72,81,0
1,43,72,0
1,48,84,52
1,52,80,4
1,48,76,0
1,64,86,8
1,63,59,116
1,71,90,4
1,51,84,144
1,63,64,56
1,69,89,0
1,57,63,4
1,71,89,12328
1,74,94,0
1,79,80,0
1,79,85,92
1,74,95,0
1,71,90,0
1,71,79,124
1,74,91,0
1,78,82,0
1,71,95,124
1,78,95,0
1,74,100,0
1,76,93,92
1,72,98,0
1,67,100,0
1,67,88,116
1,76,93,0
1,72,96,0
1,74,90,104
1,67,88,0
1,71,90,0
1,74,88,104
1,71,85,0
1,67,83,0
1,73,84,136
1,69,90,0
1,67,83,0
1,73,95,108
1,69,97,0
1,67,90,0
1,69,91,96
1,67,86,0
1,73,91,12
1,73,95,104
1,67,91,8
1,69,96,0
1,76,83,132
1,72,89,0
1,67,83,0
1,76,94,80
1,72,101,0
1,67,93,0
1,78,92,140
1,74,96,4
1,69,87,0
1,69,91,128
1,74,101,0
1,78,97,0
1,74,80,108
1,71,82,4
1,79,72,0
1,71,89,104
1,74,97,4
1,79,91,0
1,71,89,88
1,78,92,0
1,74,95,4
1,71,96,160
1,74,105,0
1,78,95,0
1,76,85,144
1,72,102,0
1,67,94,0
1,67,90,116
1,76,97,0
1,72,98,8
1,69,87,92
1,75,105,0
1,72,105,0
1,75,97,132
1,69,95,8
1,72,98,0
1,72,95,84
1,67,90,0
1,74,95,0
1,67,96,100
1,72,107,0
1,74,105,0
1,74,90,96
1,67,90,0
1,72,90,8
1,72,102,112
1,74,102,0
1,67,98,0
1,72,84,132
1,78,73,0
1,74,81,0
1,66,72,0
1,66,87,156
1,72,91,0
1,74,90,0
1,78,85,0
1,66,74,108
1,78,74,0
1,74,89,0
1,72,91,0
1,66,99,80
1,78,89,0
1,74,97,0
1,72,93,0
1,71,89,184
1,74,94,0
1,79,80,0
1,79,85,92
1,74,95,0
1,71,90,0
1,71,79,124
1,74,91,0
1,78,82,0
1,71,95,124
1,78,95,0
1,74,100,0
1,76,93,92
1,72,98,0
1,67,100,0
1,67,88,116
1,76,93,0
1,72,96,0
1,74,90,104
1,67,88,0
1,71,90,0
1,74,88,104
1,71,85,0
1,67,83,0
1,73,84,136
1,69,90,0
1,67,83,0
1,73,95,108
1,69,97,0
1,67,90,0
1,69,91,96
1,67,86,0
1,73,91,12
1,73,95,104
1,67,91,8
1,69,96,0
1,76,83,132
1,72,89,0
1,67,83,0
1,76,94,80
1,72,101,0
1,67,93,0
1,78,92,140
1,74,96,4
1,69,87,0
1,69,91,128
1,74,101,0
1,78,97,0
1,74,80,108
1,71,82,4
1,79,72,0
1,71,89,104
1,74,97,4
1,79,91,0
1,78,92,88
1,69,89,0
1,74,95,4
1,78,95,176
1,69,96,0
1,74,105,0
1,76,85,128
1,72,102,0
1,67,94,0
1,67,90,116
1,76,97,0
1,72,98,8
1,69,87,92
1,75,105,0
1,72,105,0
1,75,97,132
1,69,95,8
1,72,98,0
1,72,95,84
1,67,90,0
1,74,95,0
1,67,96,100
1,72,107,0
1,74,105,0
1,74,90,96
1,67,90,0
1,72,90,8
1,72,102,112
1,74,102,0
1,67,98,0
1,72,84,132
1,78,73,0
1,74,81,0
1,66,72,0
1,66,87,156
1,72,91,0
1,74,90,0
1,78,85,0
1,66,74,108
1,78,74,0
1,74,89,0
1,72,91,0
1,66,99,80
1,78,89,0
1,74,97,0
1,72,93,0
1,65,72,18612
1,69,69,0
1,62,68,0
1,69,94,144
1,62,83,0
1,65,96,0
1,65,89,168
1,62,86,0
1,69,90,0
1,69,90,108
1,62,85,0
1,65,91,0
1,62,80,156
1,67,101,0
1,70,99,0
1,67,107,116
1,70,107,0
1,62,95,0
1,67,101,144
1,70,107,0
1,62,96,0
1,62,87,116
1,67,98,0
1,70,105,0
1,75,97,168
1,67,96,0
1,72,101,0
1,67,97,128
1,72,108,0
1,75,107,0
1,67,96,156
1,75,109,0
1,72,114,0
1,75,107,136
1,72,108,0
1,67,98,0
1,64,78,192
1,67,86,0
1,69,82,0
1,60,81,0
1,64,83,172
1,67,97,0
1,69,95,0
1,60,87,0
1,66,105,80
1,62,81,0
1,60,82,0
1,69,104,0
1,66,103,104
1,69,102,0
1,62,87,0
1,60,89,0
1,71,89,148
1,74,94,0
1,79,80,0
1,79,85,92
1,74,95,0
1,71,90,0
1,71,79,124
1,74,91,0
1,78,82,0
1,71,95,124
1,78,95,0
1,74,100,0
1,76,93,92
1,72,98,0
1,67,100,0
1,67,88,116
1,76,93,0
1,72,96,0
1,74,90,104
1,67,88,0
1,71,90,0
1,74,88,104
1,71,85,0
1,67,83,0
1,73,84,136
1,69,90,0
1,67,83,0
1,73,95,108
1,69,97,0
1,67,90,0
1,69,91,96
1,67,86,0
1,73,91,12
1,73,95,104
1,67,91,8
1,69,96,0
1,76,83,132
1,72,89,0
1,67,83,0
1,76,94,80
1,72,101,0
1,67,93,0
1,78,92,140
1,74,96,4
1,69,87,0
1,69,91,128
1,74,101,0
1,78,97,0
1,74,80,108
1,71,82,4
1,79,72,0
1,71,89,104
1,74,97,4
1,79,91,0
1,78,92,88
1,69,89,0
1,74,95,4
1,78,95,176
1,69,96,0
1,74,105,0
1,76,85,128
1,72,102,0
1,67,94,0
1,67,90,116
1,76,97,0
1,72,98,8
1,69,87,92
1,75,105,0
1,72,105,0
1,75,97,132
1,69,95,8
1,72,98,0
1,72,95,84
1,67,90,0
1,74,95,0
1,67,96,100
1,72,107,0
1,74,105,0
1,74,90,96
1,67,90,0
1,72,90,8
1,72,102,112
1,74,102,0
1,67,98,0
1,72,84,132
1,78,73,0
1,74,81,0
1,66,72,0
1,66,87,156
1,72,91,0
1,74,90,0
1,78,85,0
1,66,74,108
1,78,74,0
1,74,89,0
1,72,91,0
1,66,99,80
1,78,89,0
1,74,97,0
1,72,93,0
1,71,89,184
1,74,94,0
1,79,80,0
1,79,85,92
1,74,95,0
1,71,90,0
1,71,79,124
1,74,91,0
1,78,82,0
1,71,95,124
1,78,95,0
1,74,100,0
1,76,93,92
1,72,98,0
1,67,100,0
1,67,88,116
1,76,93,0
1,72,96,0
1,74,90,104
1,67,88,0
1,71,90,0
1,74,88,104
1,71,85,0
1,67,83,0
1,73,84,136
1,69,90,0
1,67,83,0
1,73,95,108
1,69,97,0
1,67,90,0
1,69,91,96
1,67,86,0
1,73,91,12
1,73,95,104
1,67,91,8
1,69,96,0
1,76,83,132
1,72,89,0
1,67,83,0
1,76,94,80
1,72,101,0
1,67,93,0
1,78,92,140
1,74,96,4
1,69,87,0
1,69,91,128
1,74,101,0
1,78,97,0
1,74,80,108
1,71,82,4
1,79,72,0
1,71,89,104
1,74,97,4
1,79,91,0
1,78,92,88
1,69,89,0
1,74,95,4
1,78,95,176
1,69,96,0
1,74,105,0
1,76,85,128
1,72,102,0
1,67,94,0
1,67,90,116
1,76,97,0
1,72,98,8
1,69,87,92
1,75,105,0
1,72,105,0
1,75,97,132
1,69,95,8
1,72,98,0
1,72,95,84
1,67,90,0
1,74,95,0
1,67,96,100
1,72,107,0
1,74,105,0
1,74,90,96
1,67,90,0
1,72,90,8
1,72,102,112
1,74,102,0
1,67,98,0
1,72,84,132
1,78,73,0
1,74,81,0
1,66,72,0
1,66,87,156
1,72,91,0
1,74,90,0
1,78,85,0
1,66,74,108
1,78,74,0
1,74,89,0
1,72,91,0
1,66,99,80
1,78,89,0
1,74,97,0
1,72,93,0
1,65,72,18612
1,69,69,0
1,62,68,0
1,69,94,144
1,62,83,0
1,65,96,0
1,65,89,168
1,62,86,0
1,69,90,0
1,69,90,108
1,62,85,0
1,65,91,0
1,62,80,156
1,67,101,0
1,70,99,0
1,67,107,116
1,70,107,0
1,62,95,0
1,67,101,144
1,70,107,0
1,62,96,0
1,62,87,116
1,67,98,0
1,70,105,0
1,75,97,168
1,67,96,0
1,72,101,0
1,67,97,128
1,72,108,0
1,75,107,0
1,67,96,156
1,75,109,0
1,72,114,0
1,75,107,136
1,72,108,0
1,67,98,0
1,64,78,192
1,67,86,0
1,69,82,0
1,60,81,0
1,64,83,172
1,67,97,0
1,69,95,0
1,60,87,0
1,66,105,80
1,62,81,0
1,60,82,0
1,69,104,0
1,66,103,104
1,69,102,0
1,62,87,0
1,60,89,0
1,71,89,148
1,74,94,0
1,79,80,0
1,79,85,92
1,74,95,0
1,71,90,0
1,71,79,124
1,74,91,0
1,78,82,0
1,71,95,124
1,78,95,0
1,74,100,0
1,76,93,92
1,72,98,0
1,67,100,0
1,67,88,116
1,76,93,0
1,72,96,0
1,74,90,104
1,67,88,0
1,71,90,0
1,74,88,104
1,71,85,0
1,67,83,0
1,73,84,136
1,69,90,0
1,67,83,0
1,73,95,108
1,69,97,0
1,67,90,0
1,69,91,96
1,67,86,0
1,73,91,12
1,73,95,104
1,67,91,8
1,69,96,0
1,76,83,132
1,72,89,0
1,67,83,0
1,76,94,80
1,72,101,0
1,67,93,0
1,78,92,140
1,74,96,4
1,69,87,0
1,69,91,128
1,74,101,0
1,78,97,0
1,74,80,108
1,71,82,4
1,79,72,0
1,71,89,104
1,74,97,4
1,79,91,0
1,78,92,88
1,69,89,0
1,74,95,4
1,78,95,176
1,69,96,0
1,74,105,0
1,76,85,128
1,72,102,0
1,67,94,0
1,67,90,116
1,76,97,0
1,72,98,8
1,69,87,92
1,75,105,0
1,72,105,0
1,75,97,132
1,69,95,8
1,72,98,0
1,72,95,84
1,67,90,0
1,74,95,0
1,67,96,100
1,72,107,0
1,74,105,0
1,74,90,96
1,67,90,0
1,72,90,8
1,72,102,112
1,74,102,0
1,67,98,0
1,72,84,132
1,78,73,0
1,74,81,0
1,66,72,0
1,66,87,156
1,72,91,0
1,74,90,0
1,78,85,0
1,66,74,108
1,78,74,0
1,74,89,0
1,72,91,0
1,66,99,80
1,78,89,0
1,74,97,0
1,72,93,0
1,63,78,18612
1,67,96,0
1,70,84,0
1,63,87,132
1,67,102,0
1,70,88,0
1,70,84,112
1,62,87,0
1,67,93,0
1,70,72,132
1,67,105,0
1,68,91,160
1,63,92,0
1,72,93,0
1,68,101,172
1,63,105,0
1,72,98,0
1,70,94,132
1,63,95,0
1,67,96,0
1,70,95,152
1,63,101,0
1,67,101,0
1,60,83,180
1,63,82,0
1,65,84,0
1,69,73,0
1,65,101,124
1,63,105,0
1,60,102,0
1,69,100,0
1,63,78,144
1,65,83,0
1,60,78,0
1,69,76,0
1,65,101,160
1,63,101,0
1,60,98,0
1,69,95,0
1,63,87,144
1,60,83,0
1,68,68,0
1,63,105,192
1,60,98,0
1,68,101,0
1,62,81,160
1,65,91,0
1,70,91,0
1,65,102,116
1,62,91,0
1,70,103,0
1,63,92,176
1,67,98,0
1,70,97,0
1,63,91,136
1,67,98,0
1,70,92,0
1,70,92,124
1,67,100,0
1,62,88,0
1,67,107,116
1,62,97,0
1,70,101,0
1,68,89,108
1,72,90,0
1,63,94,0
1,68,97,112
1,63,97,0
1,72,96,0
1,68,80,128
1,63,85,0
1,65,98,0
1,71,88,0
1,68,89,72
1,65,102,0
1,63,97,0
1,71,97,0
1,63,94,44
1,68,81,0
1,65,101,0
1,70,91,0
1,68,92,48
1,63,101,0
1,70,99,0
1,65,102,0
1,68,94,36
1,65,100,0
1,63,99,0
1,70,105,0
1,63,97,16
1,68,92,0
1,65,100,0
1,70,99,0
1,68,88,84
1,65,93,0
1,62,83,0
1,70,91,0
1,68,101,76
1,70,105,0
1,62,90,0
1,65,105,0
1,65,90,32
1,68,80,0
1,62,80,0
1,70,87,0
1,68,103,40
1,65,102,0
1,62,91,0
1,70,109,0
1,63,78,32
1,67,96,0
1,70,84,0
2,31,76,1116
2,31,81,124
2,31,87,116
2,43,80,108
2,31,77,16
2,31,83,124
2,31,75,160
2,31,80,104
2,43,86,104
2,31,86,16
2,34,59,152
2,34,63,192
2,34,61,152
2,34,61,132
2,34,58,128
2,34,59,140
2,34,56,140
2,34,67,160
2,39,51,140
2,39,58,144
2,39,50,140
2,39,56,152
2,39,47,140
2,39,57,152
2,39,58,152
2,34,60,112
2,32,54,140
2,32,57,176
2,32,54,176
2,32,55,168
2,39,73,64
2,32,46,8
2,32,60,152
2,39,66,76
2,32,53,0
2,39,75,80
2,32,61,16
2,32,72,100
2,33,79,64
2,33,80,160
2,33,73,152
2,33,79,144
2,36,83,60
2,38,80,48
2,38,79,112
2,38,84,144
2,38,86,132
2,43,86,180
2,43,94,96
2,42,78,84
2,42,87,112
2,40,87,84
2,40,94,92
2,38,91,80
2,38,100,92
2,37,85,56
2,37,99,104
2,33,73,68
2,33,80,72
2,36,83,68
2,36,83,92
2,38,94,64
2,38,102,52
2,43,92,56
2,43,92,80
2,42,82,48
2,42,89,92
2,40,92,64
2,40,92,52
2,39,91,60
2,39,82,92
2,38,86,80
2,38,97,140
2,33,87,32
2,33,86,100
2,38,90,64
2,38,90,80
2,38,81,68
2,38,100,92
2,43,86,68
2,43,94,96
2,42,78,84
2,42,87,112
2,40,87,84
2,40,94,92
2,38,91,80
2,38,100,92
2,37,85,56
2,37,99,104
2,33,73,68
2,33,80,72
2,36,83,68
2,36,83,92
2,38,94,64
2,38,102,52
2,43,92,56
2,43,92,80
2,42,82,48
2,42,89,92
2,40,92,64
2,40,92,52
2,39,91,60
2,39,82,92
2,38,86,80
2,38,97,140
2,33,87,32
2,33,86,100
2,38,90,64
2,38,90,80
2,38,81,68
2,38,100,92
2,31,85,68
2,31,78,136
2,31,76,144
2,31,81,132
2,31,65,116
2,31,73,132
2,31,76,152
2,31,73,132
2,31,73,108
2,31,78,144
2,31,77,160
2,31,78,116
2,36,78,84
2,36,70,96
2,36,70,88
2,36,73,96
2,31,76,108
2,31,73,136
2,31,80,168
2,31,76,124
2,31,76,112
2,31,84,152
2,31,85,152
2,31,78,112
2,31,69,124
2,31,76,172
2,31,79,172
2,31,79,172
2,36,79,180
2,36,78,144
2,36,79,124
2,36,80,112
2,38,73,144
2,38,83,144
2,38,80,112
2,38,80,116
2,37,73,152
2,37,85,160
2,37,67,124
2,37,72,152
2,33,78,196
2,33,78,132
2,33,78,144
2,33,73,132
2,38,76,96
2,38,80,132
2,38,73,132
2,38,76,144
2,34,97,112
2,34,79,192
2,34,85,132
2,34,85,144
2,38,90,44
2,39,73,32
2,39,73,160
2,39,71,200
2,39,67,160
2,34,70,80
2,32,91,52
2,32,82,124
2,32,97,160
