track,note,velocity,time
2,85,119,752
2,85,0,19
2,85,114,815
2,85,0,20
2,85,124,66
2,85,0,26
2,80,104,2312
2,80,0,19
2,78,109,35
2,78,0,20
2,80,114,36
2,80,0,23
2,78,109,37
2,78,0,20
2,80,109,42
2,80,0,22
2,78,109,38
2,78,0,19
2,80,114,43
2,80,0,21
2,78,114,99
2,78,0,18
2,80,114,101
2,80,0,24
2,78,109,5
2,78,0,23
2,80,96,3
2,80,0,39
2,78,114,23
2,78,0,20
2,80,119,38
2,80,0,25
2,78,119,37
2,78,0,25
2,78,114,1045
2,78,0,22
2,80,109,102
2,80,0,28
2,78,114,35
2,78,0,24
2,80,109,34
2,80,0,26
2,78,114,35
2,78,0,26
2,80,114,34
2,80,0,26
2,78,119,36
2,78,0,24
2,78,119,168
2,78,0,21
2,80,114,39
2,80,0,22
2,78,114,33
2,78,0,23
2,80,119,37
2,80,0,26
2,78,119,38
2,78,0,25
2,80,114,94
2,80,0,25
2,78,119,31
2,78,0,24
2,80,124,40
2,80,0,26
2,78,119,816
2,78,0,19
2,80,114,36
2,80,0,22
2,78,114,39
2,78,0,20
2,80,119,40
2,80,0,23
2,78,119,34
2,78,0,21
2,80,119,38
2,80,0,23
2,78,114,37
2,78,0,21
2,80,119,43
2,80,0,22
2,78,119,34
2,78,0,22
2,80,119,35
2,80,0,24
2,78,119,36
2,78,0,24
2,80,124,97
2,80,0,22
2,78,119,91
2,78,0,21
2,78,119,347
2,78,0,22
2,80,119,84
2,80,0,24
2,78,124,51
2,78,0,21
2,80,124,64
2,80,0,22
2,78,126,76
2,78,0,20
2,78,109,337
2,78,0,22
2,80,109,96
2,80,0,22
2,78,104,40
2,78,0,22
2,80,109,37
2,80,0,24
2,78,114,33
2,78,0,24
2,80,100,19
2,80,0,27
2,78,114,7
2,78,0,24
2,78,109,267
2,78,0,23
2,80,109,35
2,80,0,26
2,78,114,31
2,78,0,21
2,80,124,40
2,80,0,27
2,78,119,1120
2,78,0,21
2,80,119,38
2,80,0,23
2,78,119,33
2,78,0,23
2,80,109,36
2,80,0,23
2,78,119,36
2,78,0,22
2,80,124,42
2,80,0,25
2,78,114,636
2,78,0,21
2,80,114,38
2,80,0,22
2,78,119,35
2,78,0,22
2,80,124,40
2,80,0,23
2,78,119,93
2,78,0,22
2,80,119,100
2,80,0,24
2,78,114,38
2,78,0,21
2,80,124,96
2,80,0,19
2,78,119,345
2,78,0,21
2,80,114,35
2,80,0,22
2,78,119,38
2,78,0,22
2,80,119,36
2,80,0,25
2,78,119,38
2,78,0,24
2,80,124,38
2,80,0,26
2,78,114,574
2,78,0,21
2,80,114,103
2,80,0,21
2,78,119,39
2,78,0,22
2,80,124,93
2,80,0,24
2,78,119,38
2,78,0,22
2,80,124,94
2,80,0,22
2,78,114,100
2,78,0,21
2,80,119,41
2,80,0,22
2,78,114,41
2,78,0,23
2,80,119,36
2,80,0,23
2,78,124,35
2,78,0,22
2,80,119,98
2,80,0,24
2,78,124,37
2,78,0,22
2,78,100,1176
2,78,0,21
2,80,100,7
2,80,0,27
2,78,100,0
2,78,0,56
2,80,114,6
2,80,0,61
2,78,119,3
2,78,0,113
2,80,119,7
2,80,0,119
2,78,119,2
2,78,0,24
2,80,114,100
2,80,0,22
2,78,109,2
2,78,0,28
2,80,109,2
2,78,114,63
2,80,0,2
2,78,0,49
2,80,104,3
2,80,0,62
2,78,119,2
2,78,0,120
2,80,104,4
2,80,0,116
2,78,124,4
2,78,0,286
2,80,114,551
2,80,0,23
2,78,109,4
2,78,0,25
2,80,96,1
2,80,0,64
2,78,109,1
2,78,0,26
2,80,96,6
2,80,0,25
2,78,86,2
2,78,0,26
2,80,92,3
2,80,0,32
2,78,96,2
2,78,0,87
2,80,100,4
2,78,124,68
2,80,0,1
2,78,0,81
2,80,119,120
2,80,0,51
2,78,114,6
2,78,0,58
2,80,104,1
2,78,109,61
2,80,0,2
2,78,0,51
2,80,109,4
2,78,119,122
2,80,0,5
2,78,0,52
2,80,104,3
2,80,0,63
2,78,124,1
2,78,0,170
2,80,119,670
2,80,0,50
2,78,114,1
2,80,104,53
2,78,0,2
2,80,0,62
2,78,114,2
2,78,0,52
2,80,109,2
2,80,0,124
2,78,114,1
2,78,0,119
2,80,104,4
2,80,0,121
2,78,119,2
2,78,0,109
2,80,109,10
2,80,0,26
2,78,124,100
2,78,0,22
2,78,119,329
2,78,0,20
2,80,119,88
2,80,0,22
2,78,119,52
2,78,0,19
2,80,124,74
2,80,0,20
2,78,124,77
2,78,0,19
2,78,89,343
2,78,0,20
2,80,92,6
2,80,0,29
2,78,100,6
2,78,0,32
2,80,109,15
2,80,0,22
2,78,119,85
2,78,0,23
2,80,119,76
2,80,0,26
2,78,119,58
2,78,0,23
2,80,119,46
2,80,0,22
2,78,114,93
2,78,0,35
2,80,100,5
2,80,0,28
2,78,100,6
2,78,0,22
2,80,100,8
2,78,100,24
2,80,0,3
2,78,0,45
2,80,109,9
2,80,0,59
2,78,119,6
2,78,0,23
2,80,119,96
2,80,0,30
2,78,124,24
2,78,0,22
2,78,100,162
2,78,0,23
2,80,100,6
2,80,0,39
2,78,114,12
2,78,0,25
2,80,119,35
2,80,0,25
2,78,119,620
2,78,0,23
2,80,114,38
2,80,0,24
2,78,114,36
2,78,0,23
2,80,114,36
2,80,0,25
2,78,114,33
2,78,0,24
2,80,124,38
2,80,0,23
2,78,114,637
2,78,0,21
2,80,114,38
2,80,0,26
2,78,114,35
2,78,0,25
2,80,114,36
2,80,0,25
2,78,119,91
2,78,0,21
2,80,119,101
2,80,0,26
2,78,119,32
2,78,0,23
2,80,126,98
2,80,0,21
2,78,119,336
2,78,0,22
2,80,114,39
2,80,0,20
2,78,119,43
2,78,0,22
2,80,114,35
2,80,0,24
2,78,119,35
2,78,0,22
2,80,124,41
2,80,0,27
2,78,124,570
2,78,0,23
2,80,114,103
2,80,0,25
2,78,114,31
2,78,0,22
2,80,119,101
2,80,0,24
2,78,114,36
2,78,0,23
2,80,124,93
2,80,0,23
2,78,114,99
2,78,0,20
2,80,119,38
2,80,0,24
2,78,114,41
2,78,0,24
2,80,119,37
2,80,0,23
2,78,119,36
2,78,0,23
2,80,119,96
2,80,0,26
2,78,124,36
2,78,0,21
2,78,124,866
2,78,0,22
2,80,109,9583
2,80,0,27
2,78,109,36
2,78,0,22
2,80,109,35
2,80,0,30
2,78,114,34
2,78,0,26
2,80,114,33
2,80,0,27
2,80,114,214
2,80,0,27
2,78,109,30
2,78,0,25
2,80,119,36
2,80,0,23
2,80,114,72
2,80,0,27
2,78,100,2
2,78,0,46
2,80,114,69
2,80,0,25
2,78,119,40
2,78,0,27
2,80,124,154
2,80,0,21
2,78,109,874
2,78,0,22
2,80,109,39
2,80,0,25
2,78,109,34
2,78,0,23
2,80,109,36
2,80,0,25
2,78,114,33
2,78,0,24
2,80,124,36
2,80,0,29
2,78,109,220
2,78,0,21
2,80,114,38
2,80,0,27
2,78,114,36
2,78,0,25
2,80,124,90
2,80,0,25
2,78,114,3039
2,78,0,21
2,80,109,33
2,80,0,23
2,78,114,38
2,78,0,22
2,80,119,38
2,80,0,25
2,78,114,36
2,78,0,21
2,80,119,39
2,80,0,22
2,78,119,630
2,78,0,22
2,80,114,40
2,80,0,23
2,78,114,40
2,78,0,23
2,80,119,36
2,80,0,24
2,78,114,96
2,78,0,21
2,80,119,105
2,80,0,24
2,78,119,36
2,78,0,23
2,80,124,93
2,80,0,23
2,78,119,338
2,78,0,20
2,80,119,40
2,80,0,25
2,78,114,38
2,78,0,23
2,80,119,34
2,80,0,25
2,78,119,37
2,78,0,23
2,80,119,36
2,80,0,26
2,78,114,569
2,78,0,20
2,80,114,108
2,80,0,23
2,78,114,36
2,78,0,22
2,80,119,96
2,80,0,25
2,78,119,30
2,78,0,22
2,80,114,99
2,80,0,21
2,78,109,100
2,78,0,22
2,80,114,41
2,80,0,22
2,78,114,41
2,78,0,21
2,80,114,37
2,80,0,21
2,78,119,36
2,78,0,23
2,80,114,98
2,80,0,26
2,78,119,33
2,78,0,24
2,78,114,942
2,78,0,21
2,80,114,36
2,80,0,25
2,78,114,33
2,78,0,23
2,80,114,37
2,80,0,27
2,78,119,31
2,78,0,24
2,80,124,38
2,80,0,26
2,78,119,630
2,78,0,21
2,80,114,37
2,80,0,26
2,78,119,38
2,78,0,23
2,80,119,36
2,80,0,25
2,78,119,94
2,78,0,21
2,80,119,107
2,80,0,23
2,78,119,34
2,78,0,22
2,80,124,96
2,80,0,23
2,78,119,335
2,78,0,21
2,80,119,40
2,80,0,23
2,78,119,41
2,78,0,22
2,80,114,40
2,80,0,24
2,78,119,34
2,78,0,22
2,80,124,39
2,80,0,25
2,78,119,566
2,78,0,22
2,80,109,108
2,80,0,23
2,78,114,38
2,78,0,22
2,80,114,94
2,80,0,23
2,78,114,37
2,78,0,23
2,80,114,96
2,80,0,20
2,78,114,100
2,78,0,21
2,80,119,41
2,80,0,24
2,78,114,37
2,78,0,24
2,80,109,35
2,80,0,21
2,78,119,40
2,78,0,23
2,80,114,97
2,80,0,26
2,78,114,34
2,78,0,25
2,78,114,691
2,78,0,22
2,80,119,38
2,80,0,23
2,78,114,98
2,78,0,23
2,80,124,35
2,80,0,24
2,78,114,696
2,78,0,22
2,80,119,40
2,80,0,23
2,78,114,96
2,78,0,20
2,80,124,40
2,80,0,22
3,28,84,1079
3,28,0,35
3,28,84,50
3,28,0,40
3,28,84,55
3,28,0,40
3,40,84,130
3,40,0,540
3,28,84,65
3,28,0,115
3,28,84,60
3,28,0,20
3,28,84,40
3,28,0,120
3,28,84,65
3,28,0,20
3,28,84,40
3,28,0,125
3,28,84,50
3,28,0,20
3,28,84,40
3,28,0,80
3,32,84,40
3,32,0,30
3,30,84,35
3,30,0,30
3,28,84,30
3,28,0,130
3,28,84,50
3,28,0,20
3,28,84,40
3,28,0,125
3,28,84,50
3,28,0,20
3,28,84,45
3,28,0,120
3,28,84,55
3,28,0,25
3,28,84,40
3,28,0,80
3,32,84,35
3,32,0,30
3,30,84,30
3,30,0,25
3,28,84,40
3,28,0,125
3,28,84,55
3,28,0,20
3,28,84,40
3,28,0,130
3,28,84,50
3,28,0,25
3,28,84,40
3,28,0,115
3,28,84,55
3,28,0,20
3,28,84,45
3,28,0,80
3,32,84,40
3,32,0,25
3,30,84,35
3,30,0,25
3,28,84,35
3,28,0,135
3,28,84,45
3,28,0,25
3,28,84,35
3,28,0,145
3,28,84,35
3,28,0,25
3,28,84,40
3,28,0,120
3,28,84,55
3,28,0,20
3,28,84,35
3,28,0,85
3,32,84,40
3,32,0,20
3,30,84,40
3,30,0,25
3,28,84,35
3,28,0,130
3,28,84,45
3,28,0,25
3,28,84,35
3,28,0,135
3,28,84,45
3,28,0,25
3,28,84,40
3,28,0,120
3,28,84,55
3,28,0,25
3,28,84,40
3,28,0,80
3,32,84,40
3,32,0,25
3,30,84,35
3,30,0,25
3,28,84,35
3,28,0,125
3,28,84,55
3,28,0,20
3,28,84,40
3,28,0,125
3,28,84,55
3,28,0,20
3,28,84,40
3,28,0,115
3,28,84,60
3,28,0,15
3,28,84,45
3,28,0,125
3,32,84,55
3,32,0,30
3,33,84,40
3,33,0,125
3,33,84,50
3,33,0,20
3,33,84,45
3,33,0,120
3,33,84,55
3,33,0,25
3,33,84,40
3,33,0,125
3,33,84,50
3,33,0,25
3,33,84,40
3,33,0,135
3,28,84,45
3,28,0,35
3,33,84,20
3,33,0,130
3,33,84,50
3,33,0,25
3,33,84,35
3,33,0,135
3,33,84,45
3,33,0,25
3,33,84,35
3,33,0,140
3,33,84,40
3,33,0,25
3,33,84,35
3,33,0,90
3,33,84,35
3,33,0,35
3,35,84,15
3,35,0,40
3,28,84,25
3,28,0,130
3,28,84,50
3,28,0,20
3,28,84,40
3,28,0,130
3,28,84,55
3,28,0,20
3,28,84,35
3,28,0,130
3,28,84,50
3,28,0,20
3,28,84,40
3,28,0,90
3,32,84,35
3,32,0,30
3,30,84,25
3,30,0,30
3,28,84,25
3,28,0,5
3,28,84,0
3,28,0,130
3,28,84,45
3,28,0,25
3,28,84,35
3,28,0,130
3,28,84,55
3,28,0,25
3,28,84,35
3,28,0,115
3,28,84,65
3,28,0,20
3,28,84,40
3,28,0,120
3,37,84,55
3,37,0,50
3,38,84,10
3,38,0,145
3,38,84,45
3,38,0,35
3,42,84,20
3,42,0,115
3,45,84,5
3,45,0,110
3,33,84,15
3,33,0,120
3,33,84,55
3,33,0,20
3,33,84,40
3,33,0,135
3,33,84,45
3,33,0,25
3,38,84,35
3,38,0,135
3,38,84,45
3,38,0,25
3,42,84,30
3,42,0,105
3,45,84,15
3,45,0,110
3,33,84,15
3,33,0,135
3,33,84,45
3,33,0,20
3,33,84,35
3,33,0,150
3,33,84,35
3,33,0,30
3,38,84,30
3,38,0,140
3,38,84,40
3,38,0,25
3,42,84,35
3,42,0,105
3,45,84,10
3,45,0,110
3,33,84,20
3,33,0,125
3,33,84,50
3,33,0,25
3,33,84,30
3,33,0,100
3,32,84,30
3,32,0,35
3,30,84,15
3,30,0,45
3,28,84,20
3,28,0,135
3,28,84,50
3,28,0,20
3,28,84,35
3,28,0,130
3,28,84,50
3,28,0,25
3,28,84,35
3,28,0,130
3,28,84,50
3,28,0,25
3,28,84,30
3,28,0,95
3,32,84,25
3,32,0,30
3,30,84,30
3,30,0,30
3,28,84,30
3,28,0,135
3,28,84,45
3,28,0,25
3,28,84,40
3,28,0,125
3,28,84,50
3,28,0,25
3,28,84,45
3,28,0,125
3,28,84,45
3,28,0,25
3,28,84,35
3,28,0,240
3,28,84,60
3,28,0,40
3,32,84,20
3,32,0,40
3,30,84,25
3,30,0,30
3,28,84,25
3,28,0,130
3,28,84,50
3,28,0,25
3,28,84,40
3,28,0,130
3,28,84,50
3,28,0,25
3,28,84,35
3,28,0,130
3,28,84,45
3,28,0,30
3,28,84,30
3,28,0,100
3,32,84,25
3,32,0,40
3,30,84,20
3,30,0,35
3,28,84,25
3,28,0,135
3,28,84,45
3,28,0,25
3,28,84,30
3,28,0,140
3,28,84,45
3,28,0,25
3,28,84,35
3,28,0,130
3,28,84,45
3,28,0,25
3,28,84,40
3,28,0,100
3,32,84,20
3,32,0,45
3,30,84,15
3,30,0,40
3,28,84,15
3,28,0,135
3,28,84,45
3,28,0,25
3,28,84,35
3,28,0,135
3,28,84,50
3,28,0,25
3,28,84,30
3,28,0,140
3,28,84,45
3,28,0,25
3,28,84,30
3,28,0,105
3,32,84,25
3,32,0,35
3,30,84,20
3,30,0,30
3,28,84,25
3,28,0,135
3,28,84,45
3,28,0,25
3,28,84,35
3,28,0,140
3,28,84,45
3,28,0,20
3,28,84,35
3,28,0,145
3,28,84,45
3,28,0,20
3,28,84,35
3,28,0,120
3,28,84,60
3,28,0,20
3,33,84,35
3,33,0,130
3,33,84,55
3,33,0,20
3,33,84,40
3,33,0,125
3,33,84,60
3,33,0,20
3,33,84,40
3,33,0,130
3,33,84,45
3,33,0,25
3,33,84,35
3,33,0,145
3,28,84,40
3,28,0,25
3,33,84,30
3,33,0,125
3,33,84,50
3,33,0,25
3,33,84,35
3,33,0,135
3,33,84,50
3,33,0,20
3,33,84,40
3,33,0,130
3,33,84,45
3,33,0,25
3,33,84,35
3,33,0,95
3,33,84,35
3,33,0,30
3,35,84,25
3,35,0,35
3,28,84,25
3,28,0,125
3,28,84,55
3,28,0,15
3,28,84,40
3,28,0,135
3,28,84,50
3,28,0,25
3,28,84,35
3,28,0,125
3,28,84,55
3,28,0,20
3,28,84,35
3,28,0,90
3,32,84,40
3,32,0,30
3,30,84,20
3,30,0,30
3,28,84,30
3,28,0,130
3,28,84,50
3,28,0,25
3,28,84,35
3,28,0,135
3,28,84,50
3,28,0,20
3,28,84,35
3,28,0,135
3,28,84,50
3,28,0,20
3,28,84,40
3,28,0,130
3,34,84,50
3,34,0,10
3,38,84,50
3,38,0,140
