track,note,velocity,time
1,76,100,29280
1,73,100,22
1,76,100,233
1,73,100,465
1,76,100,10
1,78,100,465
1,78,100,1568
1,78,100,133
1,78,100,135
1,78,100,148
1,78,100,288
1,76,100,685
1,73,100,23
1,76,100,1070
1,73,100,42
1,76,100,35
1,73,100,7
1,76,100,25
1,76,100,185
1,76,100,135
1,76,100,113
1,73,100,132
1,71,100,112
1,81,100,603
1,81,100,130
1,81,100,137
1,76,100,197
1,76,100,125
1,78,100,173
1,76,100,40
1,73,100,18
1,76,100,845
1,73,100,37
1,76,100,30
1,76,100,215
1,78,100,35
1,76,100,25
1,81,100,1925
1,76,100,18
1,76,100,98
1,76,100,215
1,78,100,25
1,76,100,12
1,78,100,545
1,76,100,20
1,78,100,3
1,78,100,115
1,76,100,17
1,78,100,18
1,78,100,128
1,76,100,37
1,78,100,33
1,78,100,155
1,78,100,148
1,76,100,307
1,76,100,143
1,76,100,128
1,79,100,105
1,78,100,138
1,76,100,85
1,76,100,190
1,76,100,150
1,73,100,17
1,76,100,18
1,76,100,115
1,76,100,120
1,73,100,1060
1,76,100,20
1,73,100,5
1,71,100,7
1,81,100,1627
1,81,100,115
1,81,100,118
1,76,100,25
1,76,100,112
1,76,100,195
1,76,100,208
1,78,100,157
1,78,100,420
1,76,100,13
1,74,100,7
1,78,100,40
1,73,100,28
1,74,100,22
1,73,100,245
1,71,100,230
1,69,100,217
1,69,100,162
1,71,100,23
1,69,100,235
1,73,100,945
1,71,100,10
1,69,100,5
1,76,100,7540
1,73,100,23
1,76,100,232
1,73,100,465
1,76,100,10
1,78,100,465
1,78,100,1567
1,78,100,132
1,78,100,135
1,78,100,147
1,78,100,287
1,76,100,685
1,73,100,22
1,76,100,1070
1,73,100,43
1,76,100,35
1,73,100,8
1,76,100,25
1,76,100,185
1,76,100,135
1,76,100,112
1,73,100,133
1,71,100,113
1,81,100,602
1,81,100,130
1,81,100,138
1,76,100,198
1,76,100,125
1,78,100,172
1,76,100,40
1,73,100,17
1,76,100,845
1,73,100,38
1,76,100,30
1,76,100,215
1,78,100,35
1,76,100,25
1,81,100,1925
1,76,100,17
1,76,100,97
1,76,100,215
1,78,100,25
1,76,100,13
1,78,100,545
1,76,100,20
1,78,100,2
1,78,100,115
1,76,100,18
1,78,100,17
1,78,100,127
1,76,100,38
1,78,100,32
1,78,100,155
1,78,100,147
1,76,100,308
1,76,100,142
1,76,100,127
1,79,100,105
1,78,100,137
1,76,100,85
1,76,100,190
1,76,100,150
1,73,100,18
1,76,100,17
1,76,100,115
1,76,100,120
1,73,100,1060
1,76,100,20
1,73,100,5
1,71,100,8
1,81,100,1628
1,81,100,115
1,81,100,117
1,76,100,25
1,76,100,113
1,76,100,195
1,76,100,207
1,78,100,158
1,78,100,420
1,76,100,12
1,74,100,8
1,78,100,40
1,73,100,27
1,74,100,23
1,73,100,245
1,71,100,230
1,69,100,218
1,69,100,163
1,71,100,22
1,69,100,235
1,73,100,945
1,71,100,10
1,69,100,5
1,78,100,3728
1,76,100,70
1,78,100,53
1,76,100,227
1,74,100,18
1,76,100,28
1,78,100,490
1,78,100,1448
1,78,100,77
1,78,100,172
1,76,100,33
1,78,100,198
1,76,100,25
1,73,100,25
1,78,100,628
1,76,100,33
1,78,100,5
1,76,100,233
1,74,100,5
1,76,100,8
1,78,100,0
1,73,100,35
1,73,100,163
1,73,100,140
1,71,100,185
1,71,100,115
1,73,100,25
1,71,100,17
1,74,100,233
1,71,100,370
1,73,100,22
1,71,100,0
1,74,100,7
1,71,100,908
1,73,100,50
1,71,100,5
1,74,100,32
1,71,100,325
1,73,100,25
1,71,100,5
1,74,100,10
1,71,100,2072
1,74,100,0
1,73,100,10925
1,76,100,35
1,73,100,7
1,71,100,22
1,81,100,1675
1,81,100,137
1,81,100,127
1,76,100,30
1,76,100,125
1,76,100,207
1,76,100,238
1,78,100,215
1,78,100,325
1,76,100,3
1,74,100,5
1,78,100,18
1,73,100,30
1,74,100,18
1,73,100,245
1,71,100,0
1,69,100,7
1,69,100,190
1,71,100,23
1,69,100,28
1,73,100,950
1,71,100,35
1,69,100,15
1,73,100,2395
1,76,100,10
1,73,100,8
1,71,100,12
1,71,100,150
1,69,100,135
1,71,100,15
1,71,100,115
1,71,100,138
1,81,100,410
1,81,100,137
1,81,100,135
1,76,100,10
1,76,100,130
1,76,100,212
1,76,100,208
1,78,100,210
1,78,100,328
1,76,100,18
1,74,100,17
1,78,100,5
1,73,100,30
1,74,100,17
1,73,100,238
1,71,100,213
1,69,100,230
1,69,100,180
1,71,100,28
1,69,100,23
1,73,100,912
1,71,100,23
1,69,100,3
2,33,115,25
2,33,115,185
2,33,115,180
2,33,115,273
2,33,115,233
2,33,115,118
2,28,115,33
2,30,115,240
2,33,115,205
2,33,115,205
2,33,115,118
2,33,115,218
2,33,115,200
2,33,115,113
2,28,115,0
2,30,115,240
2,33,115,213
2,33,115,185
2,33,115,113
2,33,115,213
2,33,115,178
2,33,115,113
2,28,115,240
2,30,115,238
2,33,115,185
2,33,115,153
2,33,115,105
2,33,115,193
2,33,115,145
2,33,115,120
2,28,115,240
2,30,115,173
2,33,115,205
2,33,115,185
2,33,115,120
2,33,115,125
2,33,115,158
2,40,115,240
2,40,115,173
2,40,115,130
2,40,115,113
2,30,115,20
2,30,115,180
2,30,115,140
2,30,115,145
2,38,115,5
2,38,115,170
2,38,115,140
2,38,115,158
2,33,115,20
2,33,115,180
2,33,115,118
2,33,115,140
2,40,115,240
2,40,115,150
2,40,115,140
2,40,115,153
2,30,115,33
2,30,115,173
2,30,115,133
2,30,115,198
2,38,115,0
2,38,115,153
2,38,115,138
2,38,115,138
2,33,115,20
2,33,115,185
2,33,115,100
2,33,115,140
2,40,115,240
2,40,115,180
2,40,115,138
2,40,115,133
2,33,115,13
2,33,115,173
2,33,115,120
2,33,115,185
2,40,115,240
2,40,115,178
2,40,115,133
2,40,115,120
2,30,115,10
2,30,115,158
2,30,115,133
2,30,115,220
2,38,115,18
2,38,115,185
2,38,115,133
2,38,115,110
2,40,115,105
2,40,115,170
2,40,115,118
2,40,115,113
2,40,115,140
2,40,115,145
2,40,115,145
2,40,115,140
2,40,115,140
2,40,115,140
2,40,115,150
2,40,115,150
2,33,115,165
2,33,115,185
2,33,115,133
2,40,115,20
2,40,115,150
2,40,115,138
2,40,115,145
2,33,115,5
2,33,115,153
2,33,115,120
2,33,115,110
2,40,115,240
2,40,115,158
2,40,115,150
2,40,115,120
2,38,115,0
2,42,115,60
2,38,115,60
2,38,115,200
2,38,115,160
2,38,115,190
2,40,115,25
2,40,115,153
2,40,115,153
2,33,115,130
2,33,115,200
2,33,115,118
2,33,115,218
2,33,115,0
2,33,115,178
2,33,115,113
2,28,115,0
2,30,115,240
2,33,115,210
2,33,115,273
2,33,115,150
2,33,115,113
2,33,115,208
2,33,115,158
2,33,115,120
2,28,115,53
2,30,115,240
2,33,115,170
2,33,115,125
2,33,115,178
2,33,115,138
2,33,115,170
2,40,115,240
2,40,115,133
2,40,115,118
2,40,115,125
2,30,115,240
2,30,115,173
2,30,115,140
2,30,115,180
2,38,115,20
2,38,115,133
2,38,115,130
2,38,115,150
2,33,115,20
2,33,115,150
2,33,115,113
2,33,115,145
2,40,115,240
2,40,115,165
2,40,115,120
2,40,115,140
2,30,115,25
2,30,115,170
2,30,115,150
2,30,115,200
2,38,115,40
2,38,115,150
2,38,115,120
2,38,115,170
2,33,115,40
2,33,115,185
2,33,115,120
2,33,115,170
2,40,115,240
2,40,115,153
2,40,115,120
2,40,115,145
2,33,115,240
2,33,115,190
2,33,115,125
2,33,115,200
2,40,115,240
2,40,115,160
2,40,115,125
2,40,115,118
2,30,115,33
2,30,115,185
2,30,115,165
2,30,115,220
2,38,115,13
2,38,115,158
2,38,115,133
2,38,115,100
2,40,115,110
2,40,115,170
2,40,115,125
2,40,115,105
2,40,115,138
2,40,115,133
2,40,115,133
2,40,115,133
2,40,115,140
2,40,115,145
2,40,115,145
2,40,115,145
2,33,115,150
2,33,115,205
2,33,115,120
2,33,115,160
2,40,115,240
2,40,115,185
2,40,115,125
2,40,115,133
2,33,115,45
2,33,115,120
2,40,115,25
2,40,115,140
2,40,115,138
2,40,115,138
2,38,115,5
2,42,115,50
2,38,115,45
2,38,115,173
2,38,115,150
2,38,115,138
2,40,115,30
2,40,115,58
2,40,115,118
2,33,115,50
2,33,115,0
2,33,115,120
2,33,115,113
2,33,115,10
2,33,115,218
2,33,115,125
2,33,115,125
2,38,115,0
2,38,115,170
2,38,115,125
2,38,115,85
2,33,115,240
2,33,115,185
2,33,115,145
2,33,115,173
2,38,115,45
2,38,115,113
2,38,115,130
2,38,115,110
2,42,115,150
2,42,115,150
2,33,115,60
2,33,115,153
2,38,115,240
2,38,115,138
2,38,115,138
2,38,115,78
2,33,115,20
2,33,115,138
2,33,115,125
2,33,115,153
2,40,115,30
2,40,115,153
2,40,115,150
2,40,115,60
2,40,115,145
2,40,115,90
2,40,115,185
2,40,115,153
2,40,115,150
2,40,115,80
2,40,115,1058
2,40,115,78
2,40,115,1065
2,40,115,160
2,40,115,33
2,40,115,1045
2,40,115,118
2,40,115,1058
2,40,115,165
2,40,115,65
2,40,115,1040
2,40,115,85
2,40,115,138
2,40,115,120
2,40,115,125
2,40,115,133
2,40,115,138
2,40,115,138
2,40,115,153
2,40,115,60
2,40,115,1078
2,40,115,118
2,40,115,145
2,40,115,153
2,40,115,145
2,40,115,150
2,40,115,150
2,40,115,153
2,33,115,160
2,33,115,158
2,33,115,138
2,33,115,100
2,40,115,5
2,40,115,270
2,40,115,40
2,40,115,0
2,40,115,60
2,33,115,113
2,33,115,165
2,33,115,150
2,33,115,180
2,40,115,65
2,40,115,138
2,40,115,125
2,40,115,110
2,38,115,50
2,42,115,130
2,42,115,98
2,38,115,240
2,38,115,173
2,38,115,145
2,38,115,178
2,40,115,33
2,40,115,93
2,40,115,133
2,40,115,80
2,33,115,20
2,33,115,165
2,33,115,145
2,33,115,145
2,33,115,160
2,33,115,140
2,33,115,138
2,33,115,118
2,40,115,40
2,40,115,100
2,40,115,130
2,40,115,85
2,33,115,240
2,33,115,120
2,33,115,110
2,33,115,120
2,40,115,240
2,40,115,113
2,40,115,145
2,40,115,85
2,38,115,20
2,42,115,65
2,42,115,93
2,38,115,10
2,38,115,138
2,38,115,118
2,38,115,158
2,40,115,20
2,40,115,98
2,40,115,138
2,33,115,98
2,33,115,160
2,33,115,130
2,33,115,245
2,33,115,233
2,33,115,130
2,28,115,33
2,30,115,240
2,33,115,0
2,33,115,118
2,33,115,173
2,33,115,100
2,33,115,205
2,33,115,118
2,33,115,85
2,28,115,5
2,30,115,240
2,33,115,25
2,33,115,130
2,33,115,138
2,33,115,100
2,33,115,213
2,33,115,230
2,33,115,98
2,28,115,240
2,30,115,210
2,33,115,180
2,33,115,100
2,33,108,113
2,33,106,105
2,33,96,233
2,33,89,173
2,33,87,58
2,28,84,240
2,30,82,230
2,33,80,33
2,33,77,130
2,33,70,180
2,33,68,140
2,33,58,200
2,33,51,190
2,33,48,133
2,28,46,0
2,30,44,240
2,33,41,153
2,33,39,85
2,33,32,150
2,33,29,133
2,33,20,225
2,33,12,173
2,33,10,118
2,28,8,240
2,30,6,55
2,30,5,0
2,31,3,240
3,40,112,16285
3,42,118,240
3,45,112,180
3,40,112,1220
3,42,118,240
3,45,112,180
3,40,112,1220
3,42,118,240
3,45,112,180
3,40,112,1220
3,42,118,240
3,45,112,180
3,40,112,45380
3,42,118,240
3,45,112,180
3,40,112,1220
3,42,118,240
3,45,112,180
3,40,112,108740
3,42,118,240
3,45,112,180
3,40,112,1220
3,42,118,240
3,45,112,180
3,40,112,1220
3,42,118,240
3,45,112,180
3,40,46,5060
3,42,44,240
3,45,41,180
3,40,8,1220
3,42,5,240
3,45,3,180
4,45,84,13205
4,57,84,0
4,52,84,0
4,57,104,0
4,62,104,0
4,62,104,60
4,57,104,0
4,62,104,60
4,57,104,0
4,61,104,60
4,57,104,0
4,54,104,540
4,57,104,0
4,52,104,60
4,57,104,0
4,62,104,500
4,57,104,0
4,57,104,60
4,62,104,0
4,57,104,60
4,62,104,0
4,57,104,60
4,61,104,0
4,57,104,540
4,54,104,0
4,57,104,60
4,52,104,0
4,57,104,500
4,62,104,0
4,62,104,60
4,57,104,0
4,57,104,60
4,62,104,0
4,57,104,60
4,61,104,0
4,57,104,540
4,54,104,0
4,52,104,60
4,57,104,0
4,57,104,500
4,62,104,0
4,57,104,60
4,62,104,0
4,62,104,60
4,57,104,0
4,61,104,60
4,57,104,0
4,54,104,540
4,57,104,0
4,57,104,60
4,52,104,0
4,45,84,44180
4,57,84,0
4,52,84,0
4,57,104,0
4,62,104,0
4,62,104,60
4,57,104,0
4,57,104,60
4,62,104,0
4,61,104,60
4,57,104,0
4,54,104,540
4,57,104,0
4,57,104,60
4,52,104,0
4,62,104,500
4,57,104,0
4,57,104,60
4,62,104,0
4,57,104,60
4,62,104,0
4,61,104,60
4,57,104,0
4,54,104,540
4,57,104,0
4,57,104,60
4,52,104,0
4,52,84,44180
4,45,84,0
4,57,84,0
4,57,104,0
4,62,104,0
4,62,104,60
4,57,104,0
4,62,104,60
4,57,104,0
4,57,104,60
4,61,104,0
4,57,104,540
4,54,104,0
4,57,104,60
4,52,104,0
4,52,84,44180
4,45,84,0
4,57,84,0
4,62,104,0
4,57,104,0
4,57,104,60
4,62,104,0
4,62,104,60
4,57,104,0
4,57,104,60
4,61,104,0
4,54,104,60
4,52,104,60
4,45,84,13460
4,52,84,0
4,57,84,0
4,62,104,0
4,57,104,0
4,57,104,60
4,62,104,0
4,62,104,60
4,57,104,0
4,61,104,60
4,57,104,0
4,54,104,540
4,57,104,0
4,52,104,60
4,57,104,0
4,62,104,500
4,57,104,0
4,57,104,60
4,62,104,0
4,57,104,60
4,62,104,0
4,57,104,60
4,61,104,0
4,57,104,540
4,54,104,0
4,52,104,60
4,57,104,0
4,57,104,500
4,62,104,0
4,62,104,60
4,57,104,0
4,62,104,60
4,57,104,0
4,57,104,60
4,61,104,0
4,54,104,540
4,57,104,0
4,52,104,60
4,57,104,0
4,57,100,500
4,62,100,0
4,57,98,60
4,62,98,0
4,62,96,60
4,57,96,0
4,61,94,60
4,57,94,0
4,54,87,540
4,57,87,0
4,52,81,60
4,57,81,0
4,62,65,500
4,57,65,0
4,57,63,60
4,62,63,0
4,57,61,60
4,62,61,0
4,61,59,60
4,57,59,0
4,57,52,540
4,54,52,0
4,57,46,60
4,52,46,0
4,62,31,500
4,57,31,0
4,57,29,60
4,62,29,0
4,62,26,60
4,57,26,0
4,61,24,60
4,57,24,0
4,54,18,540
4,57,18,0
4,52,11,60
4,57,11,0
5,57,104,5165
5,61,104,0
5,64,104,0
5,69,104,0
5,57,104,40
5,61,104,0
5,64,104,0
5,69,104,0
5,52,104,180
5,56,104,0
5,59,104,0
5,64,104,0
5,52,104,40
5,56,104,0
5,59,104,0
5,64,104,0
5,57,104,1480
5,61,104,0
5,64,104,0
5,69,104,0
5,57,104,40
5,61,104,0
5,64,104,0
5,69,104,0
5,50,104,270
5,54,104,0
5,57,104,0
5,62,104,0
5,52,104,40
5,56,104,0
5,59,104,0
5,64,104,0
5,52,104,95
5,56,104,0
5,59,104,0
5,64,104,0
5,52,104,83
5,56,104,0
5,59,104,0
5,64,104,0
5,52,104,65
5,56,104,0
5,59,104,0
5,64,104,0
5,40,104,240
5,47,104,0
5,52,104,190
5,56,104,0
5,59,104,0
5,64,104,0
5,64,116,32660
5,52,110,0
5,59,116,0
5,45,110,1520
5,57,110,0
5,52,116,0
5,52,116,80
5,45,104,0
5,57,116,0
5,45,104,380
5,52,116,0
5,57,116,240
5,45,116,300
5,40,106,20
5,52,112,0
5,47,112,0
5,64,112,60
5,52,110,0
5,59,112,0
5,52,104,60
5,59,120,0
5,61,98,60
5,57,116,0
5,52,92,0
5,54,110,180
5,42,100,100
5,49,108,0
5,54,116,0
5,49,96,600
5,42,104,0
