track,note,velocity,time
1,31,120,3072
1,26,120,45
1,31,116,8
1,31,118,80
1,26,120,176
1,33,114,192
1,28,120,2
1,33,117,0
1,33,120,85
1,26,120,176
1,31,120,192
1,26,120,532
1,31,120,37
1,31,115,77
1,28,120,125
1,33,113,192
1,33,120,93
1,35,120,119
1,31,117,160
1,26,120,576
1,31,116,181
1,31,115,90
1,26,120,197
1,33,120,192
1,28,118,24
1,33,117,192
1,33,120,157
1,31,120,367
1,26,120,576
1,31,119,80
1,31,120,111
1,28,113,252
1,33,116,0
1,28,120,93
1,26,117,26
1,28,120,192
1,31,120,63
1,26,120,45
1,31,116,8
1,31,118,80
1,26,120,176
1,33,114,192
1,28,120,2
1,33,117,0
1,33,120,85
1,26,120,176
1,31,120,192
1,26,120,532
1,31,120,37
1,31,115,77
1,28,120,125
1,33,113,192
1,33,120,93
1,35,120,119
1,31,117,160
1,26,120,576
1,31,116,181
1,31,115,90
1,26,120,197
1,33,120,192
1,28,118,24
1,33,117,192
1,33,120,157
1,31,120,367
1,26,120,576
1,31,119,80
1,31,120,111
1,28,113,252
1,33,116,0
1,28,120,93
1,26,117,26
1,28,120,192
1,40,107,63
1,40,115,116
1,38,109,132
1,40,108,0
1,35,119,314
1,35,110,68
1,33,117,125
1,35,116,0
1,35,107,55
1,33,111,0
1,33,114,80
1,33,108,119
1,33,112,103
1,33,116,23
1,33,110,84
1,36,111,122
1,36,80,80
1,36,117,48
1,40,107,192
1,35,115,116
1,40,109,48
1,42,108,0
1,43,118,192
1,35,119,0
1,35,110,68
1,33,117,125
1,35,116,0
1,35,107,55
1,33,111,0
1,33,114,80
1,31,108,119
1,33,112,0
1,33,110,192
1,36,110,0
1,36,64,58
1,36,65,68
1,36,84,88
1,38,84,192
1,38,87,76
1,38,94,64
1,38,100,58
1,31,120,0
1,26,120,45
1,31,116,8
1,31,118,80
1,26,120,176
1,33,114,192
1,28,120,2
1,33,117,0
1,33,120,85
1,26,120,176
1,31,120,192
1,26,120,532
1,31,120,37
1,31,115,77
1,28,120,125
1,33,113,192
1,33,120,93
1,35,120,119
1,31,117,160
1,26,120,576
1,31,116,181
1,31,115,90
1,26,120,197
1,33,120,192
1,28,118,24
1,33,117,192
1,33,120,157
1,31,120,367
1,26,120,576
1,31,119,80
1,31,120,111
1,28,113,252
1,33,116,0
1,28,120,93
1,26,117,26
1,28,120,192
1,31,120,63
1,26,120,45
1,31,116,8
1,31,118,80
1,26,120,176
1,33,114,192
1,28,120,2
1,33,117,0
1,33,120,85
1,26,120,176
1,31,120,192
1,26,120,532
1,31,120,37
1,31,115,77
1,28,120,125
1,33,113,192
1,33,120,93
1,35,120,119
1,31,117,160
1,26,120,576
1,31,116,181
1,31,115,90
1,26,120,197
1,33,120,192
1,28,118,24
1,33,117,192
1,33,120,157
1,31,120,367
1,26,120,576
1,31,119,80
1,31,120,111
1,28,113,252
1,33,116,0
1,28,120,93
1,26,117,26
1,28,120,192
1,43,82,63
1,43,87,122
1,31,82,10
1,35,82,103
1,35,87,122
1,23,82,10
1,33,82,103
1,33,87,132
1,33,87,48
1,43,74,141
1,43,82,116
1,28,85,4
1,35,89,77
1,35,87,116
1,35,98,132
1,35,105,103
1,36,74,314
1,36,82,116
1,31,85,4
1,43,87,77
1,43,85,96
1,36,91,0
1,31,117,0
1,26,120,576
1,31,116,181
1,31,115,90
1,26,120,197
1,33,120,192
1,28,118,24
1,33,117,192
1,33,120,157
1,31,120,367
1,26,120,576
1,31,119,80
1,31,120,111
1,28,113,252
1,33,116,0
1,28,120,93
1,26,117,26
1,28,120,192
1,31,120,63
1,26,120,45
1,31,116,8
1,31,118,80
1,26,120,176
1,33,114,192
1,28,120,2
1,33,117,0
1,33,120,85
1,26,120,176
1,31,120,192
1,26,120,532
1,31,120,37
1,31,115,77
1,28,120,125
1,33,113,192
1,33,120,93
1,35,120,119
1,31,117,160
1,26,120,576
1,31,116,181
1,31,115,90
1,26,120,197
1,33,120,192
1,28,118,24
1,33,117,192
1,33,120,157
1,31,120,367
1,26,120,576
1,31,119,80
1,31,120,111
1,28,113,252
1,33,116,0
1,28,120,93
1,26,117,26
1,28,120,192
1,40,107,63
1,40,115,116
1,38,109,132
1,40,108,0
1,35,119,314
1,35,110,68
1,33,117,125
1,35,116,0
1,35,107,55
1,33,111,0
1,33,114,80
1,33,108,119
1,33,112,103
1,33,116,23
1,33,110,84
1,36,111,122
1,36,80,80
1,36,117,48
1,40,107,192
1,35,115,116
1,40,109,48
1,42,108,0
1,43,118,192
1,35,119,0
1,35,110,68
1,33,117,125
1,35,116,0
1,35,107,55
1,33,111,0
1,33,114,80
1,31,108,119
1,33,112,0
1,33,110,192
1,36,110,0
1,36,64,58
1,36,65,68
1,36,84,88
1,38,84,192
1,38,87,76
1,38,94,64
1,38,100,58
1,31,120,0
1,26,120,45
1,31,116,8
1,31,118,80
1,26,120,176
1,33,114,192
1,28,120,2
1,33,117,0
1,33,120,85
1,26,120,176
1,31,120,192
1,26,120,532
1,31,120,37
1,31,115,77
1,28,120,125
1,33,113,192
1,33,120,93
1,35,120,119
1,31,117,160
1,26,120,576
1,31,116,181
1,31,115,90
1,26,120,197
1,33,120,192
1,28,118,24
1,33,117,192
1,33,120,157
1,31,120,367
1,26,120,576
1,31,119,80
1,31,120,111
1,28,113,252
1,33,116,0
1,28,120,93
1,26,117,26
1,28,120,192
1,31,120,63
1,26,120,45
1,31,116,8
1,31,118,80
1,26,120,176
1,33,114,192
1,28,120,2
1,33,117,0
1,33,120,85
1,26,120,176
1,31,120,192
1,26,120,532
1,31,120,37
1,31,115,77
1,28,120,125
1,33,113,192
1,33,120,93
1,35,120,119
1,31,117,160
1,26,120,576
1,31,116,181
1,31,115,90
1,26,120,197
1,33,120,192
1,28,118,24
1,33,117,192
1,33,120,157
1,31,120,367
1,26,120,576
1,31,119,80
1,31,120,111
1,28,113,252
1,33,116,0
1,28,120,93
1,26,117,26
1,28,120,192
1,43,82,63
1,43,87,122
1,31,82,10
1,35,82,103
1,35,87,122
1,23,82,10
1,33,82,103
1,33,87,132
1,33,87,48
1,43,74,141
1,43,82,116
1,28,85,4
1,35,89,77
1,35,87,116
1,35,98,132
1,35,105,103
1,36,80,314
1,36,82,119
1,32,78,20
1,43,91,138
1,36,91,0
1,31,120,0
1,26,120,45
1,31,116,8
1,31,118,80
1,26,120,176
1,33,114,192
1,28,120,2
1,33,117,0
1,33,120,85
1,26,120,176
1,31,120,192
1,26,120,532
1,31,120,37
1,31,115,77
1,28,120,125
1,33,113,192
1,33,120,93
1,35,120,119
1,31,117,160
1,26,120,576
1,31,116,181
1,31,115,90
1,26,120,197
1,33,120,192
1,28,94,238
1,33,94,309
1,36,94,21
1,38,94,83
1,36,94,267
1,38,94,2
1,36,94,72
1,35,94,37
1,31,94,202
1,26,94,191
1,55,105,9261
1,31,120,1728
1,26,120,45
1,31,116,8
1,31,118,80
1,26,120,176
1,33,114,192
1,28,120,2
1,33,117,0
1,33,120,85
1,26,120,176
1,31,120,192
1,26,120,532
1,31,120,37
1,31,115,77
1,28,120,125
1,33,113,192
1,33,120,93
1,35,120,119
1,31,117,160
1,26,120,576
1,31,116,181
1,31,115,90
1,26,120,197
1,33,120,192
1,28,118,24
1,33,117,192
1,33,120,157
1,31,120,367
1,26,120,576
1,31,119,80
1,31,120,111
1,28,113,252
1,33,116,0
1,28,120,93
1,26,117,26
1,28,120,192
1,40,107,63
1,40,115,116
1,38,109,132
1,40,108,0
1,35,119,314
1,35,110,68
1,33,117,125
1,35,116,0
1,35,107,55
1,33,111,0
1,33,114,80
1,33,108,119
1,33,112,103
1,33,116,23
1,33,110,84
1,36,111,122
1,36,80,80
1,36,117,48
1,40,107,192
1,35,115,116
1,40,109,48
1,42,108,0
1,43,118,192
1,35,119,0
1,35,110,68
1,33,117,125
1,35,116,0
1,35,107,55
1,33,111,0
1,33,114,80
1,31,108,119
1,33,112,0
1,33,110,192
1,36,110,0
1,36,64,58
1,36,65,68
1,36,84,88
1,38,84,192
1,38,87,76
1,38,94,64
1,38,100,58
1,31,120,0
1,26,120,45
1,31,116,8
1,31,118,80
1,26,120,176
1,33,114,192
1,28,120,2
1,33,117,0
1,33,120,85
1,26,120,176
1,31,120,192
1,26,120,532
1,31,120,37
1,31,115,77
1,28,120,125
1,33,113,192
1,33,120,93
1,35,120,119
1,31,117,160
1,26,120,576
1,31,116,181
1,31,115,90
1,26,120,197
1,33,120,192
1,28,118,24
1,33,117,192
1,33,120,157
1,31,120,367
1,26,120,576
1,31,119,80
1,31,120,111
1,28,113,252
1,33,116,0
1,28,120,93
1,26,117,26
1,28,120,192
1,31,120,63
1,26,120,45
1,31,116,8
1,31,118,80
1,26,120,176
1,33,114,192
1,28,120,2
1,33,117,0
1,33,120,85
1,26,120,176
1,31,120,192
1,26,120,532
1,31,120,37
1,31,115,77
1,28,120,125
1,33,113,192
1,33,120,93
1,35,120,119
1,31,117,160
1,26,120,576
1,31,116,181
1,31,115,90
1,26,120,197
1,33,120,192
1,28,118,24
1,33,117,192
1,33,120,157
1,31,120,367
1,26,120,576
1,31,119,80
1,31,120,111
1,28,113,252
1,33,116,0
1,28,120,93
1,26,117,26
1,28,120,192
1,43,82,63
1,43,87,122
1,31,82,10
1,35,82,103
1,35,87,122
1,23,82,10
1,33,82,103
1,33,87,132
1,33,87,48
1,43,74,141
1,43,82,116
1,28,85,4
1,35,89,77
1,35,87,116
1,35,98,132
1,35,105,103
1,36,80,314
1,36,82,119
1,32,78,20
1,43,91,138
1,36,91,0
1,31,120,0
1,26,120,45
1,31,116,8
1,31,118,80
1,26,120,176
1,33,114,192
1,28,120,2
1,33,117,0
1,33,120,85
1,26,120,176
1,31,120,192
1,26,120,532
1,31,120,37
1,31,115,77
1,28,120,125
1,33,113,192
1,33,120,93
1,35,120,119
1,31,117,160
1,26,120,576
1,31,116,181
1,31,115,90
1,26,120,197
1,33,120,192
1,28,118,24
1,33,117,192
1,33,120,157
1,31,120,367
1,26,120,576
1,31,119,80
1,31,120,111
1,28,113,252
1,33,116,0
1,28,120,93
1,26,117,26
1,28,120,192
1,31,120,0
2,79,90,3264
2,74,90,0
2,83,90,0
2,79,84,64
2,74,84,0
2,83,84,0
2,79,102,71
2,74,102,0
2,83,102,0
2,81,99,175
2,76,99,0
2,81,77,72
2,76,77,0
2,81,90,71
2,76,90,0
2,69,90,213
2,79,90,0
2,69,84,64
2,79,84,0
2,69,102,71
2,79,102,0
2,67,99,175
2,76,99,0
2,67,77,72
2,76,77,0
2,74,90,71
2,62,90,0
2,71,103,224
2,67,86,0
2,55,86,24
2,79,53,360
2,74,74,0
2,82,61,4
2,83,62,74
2,67,36,6
2,62,75,8
2,70,60,2
2,71,69,56
2,67,56,37
2,64,72,259
2,60,74,4
2,79,90,356
2,74,90,0
2,83,90,0
2,79,84,64
2,74,84,0
2,83,84,0
2,79,102,71
2,74,102,0
2,83,102,0
2,81,99,175
2,76,99,0
2,81,77,72
2,76,77,0
2,81,90,71
2,76,90,0
2,69,90,213
2,79,90,0
2,69,84,64
2,79,84,0
2,69,102,71
2,79,102,0
2,67,99,175
2,76,99,0
2,67,77,72
2,76,77,0
2,62,90,71
2,74,90,0
2,67,86,224
2,71,103,0
2,55,86,24
2,62,74,360
2,67,53,0
2,70,67,4
2,71,68,74
2,67,36,6
2,62,75,8
2,70,66,2
2,71,75,56
2,67,56,37
2,64,72,259
2,60,74,4
2,40,62,12471
2,59,49,0
2,71,68,0
2,67,57,0
2,74,55,0
2,71,70,0
2,47,66,0
2,72,52,0
2,69,39,0
2,67,36,0
2,71,37,0
2,76,42,0
2,67,49,0
2,40,62,19
2,59,49,0
2,71,68,0
2,67,57,0
2,74,55,0
2,71,70,0
2,47,66,0
2,72,52,0
2,67,36,0
2,69,39,0
2,67,70,77
2,64,55,0
2,48,66,0
2,71,82,384
2,62,70,0
2,59,67,0
2,43,55,0
2,35,55,0
2,71,82,0
2,62,70,0
2,59,67,0
2,64,82,0
2,57,70,0
2,52,67,0
2,45,55,0
2,64,70,0
2,60,70,0
2,57,70,0
2,43,70,188
2,43,70,3
2,43,70,32
2,79,76,0
2,71,68,0
2,62,64,0
2,67,66,0
2,79,79,45
2,71,76,0
2,67,76,0
2,62,62,0
2,79,79,484
2,71,76,0
2,62,60,0
2,55,66,0
2,67,66,0
2,64,75,445
2,55,71,0
2,67,64,0
2,55,69,36
2,60,71,192
2,64,70,0
2,60,70,0
2,57,70,0
2,43,70,188
2,67,74,384
2,59,70,0
2,71,63,0
2,59,68,36
2,62,70,192
2,35,45,0
2,71,72,0
2,62,60,0
2,59,57,0
2,60,74,0
2,52,70,0
2,64,63,0
2,52,68,36
2,57,70,192
2,52,64,0
2,57,57,192
2,60,38,192
2,64,40,192
2,59,57,196
2,67,85,192
2,55,68,100
2,60,68,0
2,64,68,0
2,62,82,64
2,59,82,0
2,55,82,0
2,64,76,282
2,60,76,0
2,57,76,0
2,67,76,0
2,43,45,477
2,64,72,0
2,57,60,0
2,52,57,0
2,67,74,0
2,59,70,0
2,71,63,0
2,59,68,36
2,62,70,192
2,67,74,0
2,59,70,0
2,71,63,0
2,59,68,36
2,62,70,192
2,64,72,0
2,57,60,0
2,52,57,0
2,45,45,0
2,64,76,192
2,60,76,0
2,57,76,0
2,59,70,669
2,62,80,192
2,67,89,192
2,67,72,343
2,60,60,0
2,55,57,0
2,48,45,0
2,64,72,0
2,57,60,0
2,52,57,0
2,43,45,0
2,64,72,0
2,67,68,0
2,57,60,0
2,55,57,0
2,48,45,0
2,67,74,0
2,59,70,0
2,71,63,0
2,59,68,36
2,62,70,192
2,35,45,0
2,71,72,0
2,62,60,0
2,59,57,0
2,60,74,0
2,52,70,0
2,64,63,0
2,52,68,36
2,57,70,192
2,60,74,0
2,52,70,0
2,64,63,0
2,52,68,36
2,57,70,192
2,71,72,0
2,43,68,0
2,62,63,0
2,67,72,0
2,59,63,0
2,67,72,141
2,62,58,0
2,71,62,106
2,67,80,0
2,62,82,0
2,71,61,74
2,62,68,0
2,67,70,0
2,64,72,103
2,67,68,0
2,57,60,0
2,55,57,0
2,48,45,0
2,64,76,192
2,60,76,0
2,57,76,0
2,71,72,477
2,62,60,0
2,59,57,0
2,43,45,0
2,67,74,0
2,59,70,0
2,71,63,0
2,59,68,36
2,62,70,192
2,60,74,0
2,52,70,0
2,64,63,0
2,52,68,36
2,57,70,192
2,52,64,0
2,57,57,192
2,60,38,192
2,64,40,192
2,62,66,388
2,59,66,0
2,55,66,0
2,55,85,138
2,60,85,0
2,64,85,0
2,62,80,61
2,59,80,0
2,55,80,0
2,79,90,2228
2,74,90,0
2,83,90,0
2,79,84,64
2,74,84,0
2,83,84,0
2,79,102,71
2,74,102,0
2,83,102,0
2,81,99,175
2,76,99,0
2,81,77,72
2,76,77,0
2,81,90,71
2,76,90,0
2,69,90,213
2,79,90,0
2,69,84,64
2,79,84,0
2,69,102,71
2,79,102,0
2,67,99,175
2,76,99,0
2,67,77,72
2,76,77,0
2,62,90,71
2,74,90,0
2,67,86,224
2,71,103,0
2,55,86,24
2,62,74,360
2,67,53,0
2,70,67,4
2,71,68,74
2,67,36,6
2,62,75,8
2,70,66,2
2,71,75,56
2,67,56,37
2,64,72,259
2,60,74,4
2,40,62,12471
2,59,49,0
2,71,68,0
2,67,57,0
2,74,55,0
2,71,70,0
2,47,66,0
2,72,52,0
2,69,39,0
2,67,36,0
2,71,37,0
2,76,42,0
2,67,49,0
2,40,62,19
2,59,49,0
2,71,68,0
2,67,57,0
2,74,55,0
2,71,70,0
2,47,66,0
2,72,52,0
2,67,36,0
2,69,39,0
2,67,70,77
2,64,55,0
2,48,66,0
2,67,75,384
2,59,71,0
2,71,64,0
2,59,69,36
2,62,71,192
2,67,75,0
2,59,71,0
2,71,64,0
2,59,69,36
2,62,71,192
2,60,75,0
2,52,71,0
2,64,64,0
2,52,69,36
