track,note,velocity,time
1,46,90,106732
1,46,95,63
1,46,100,63
1,46,100,63
1,46,110,63
1,46,120,63
1,46,127,63
1,46,90,1151
1,46,95,63
1,46,100,63
1,46,100,63
1,46,110,63
1,46,120,63
1,46,127,63
1,46,90,1151
1,46,95,63
1,46,100,63
1,46,100,63
1,46,110,63
1,46,120,63
1,46,127,63
1,46,90,1151
1,46,95,63
1,46,100,63
1,46,100,63
1,46,110,63
1,46,120,63
1,46,127,63
1,46,90,1151
1,46,95,63
1,46,100,63
1,46,100,63
1,46,110,63
1,46,120,63
1,46,127,63
1,46,90,1151
1,46,95,63
1,46,100,63
1,46,100,63
1,46,110,63
1,46,120,63
1,46,127,63
1,46,90,1151
1,46,95,63
1,46,100,63
1,46,100,63
1,46,110,63
1,46,120,63
1,46,127,63
1,46,90,1151
1,46,95,63
1,46,100,63
1,46,100,63
1,46,110,63
1,46,120,63
1,46,127,63
1,46,90,1151
1,46,95,63
1,46,100,63
1,46,100,63
1,46,110,63
1,46,120,63
1,46,127,63
1,46,90,1151
1,46,95,63
1,46,100,63
1,46,100,63
1,46,110,63
1,46,120,63
1,46,127,63
2,38,127,102508
2,38,127,1727
2,38,127,1151
2,38,127,959
2,38,127,767
2,38,127,767
2,38,127,767
2,38,127,767
2,38,127,767
2,38,127,767
2,38,127,687
2,38,127,80
2,38,127,764
2,38,127,767
2,38,127,767
2,38,127,767
2,38,127,767
2,38,127,767
2,38,127,767
2,38,127,687
2,38,127,80
2,38,127,764
2,38,127,767
2,38,127,767
2,38,127,687
2,38,127,79
3,36,127,3052
3,36,127,300
3,36,127,271
3,36,127,959
3,36,127,303
3,36,127,271
3,36,127,963
3,36,127,299
3,36,127,271
3,36,127,959
3,36,127,303
3,36,127,271
3,36,127,963
3,36,127,299
3,36,127,271
3,36,127,959
3,36,127,303
3,36,127,271
3,36,127,963
3,36,127,299
3,36,127,271
3,36,127,959
3,36,127,303
3,36,127,271
3,36,127,960
3,36,127,300
3,36,127,271
3,36,127,959
3,36,127,303
3,36,127,271
3,36,127,960
3,36,127,300
3,36,127,271
3,36,127,959
3,36,127,303
3,36,127,271
3,36,127,960
3,36,127,300
3,36,127,271
3,36,127,959
3,36,127,303
3,36,127,271
3,36,127,963
3,36,127,299
3,36,127,271
3,36,127,959
3,36,127,303
3,36,127,271
3,36,127,963
3,36,127,299
3,36,127,271
3,36,127,959
3,36,127,303
3,36,127,271
3,36,127,963
3,36,127,299
3,36,127,271
3,36,127,959
3,36,127,303
3,36,127,271
3,36,127,960
3,36,127,300
3,36,127,271
3,36,127,959
3,36,127,303
3,36,127,271
3,36,127,960
3,36,127,300
3,36,127,271
3,36,127,959
3,36,127,303
3,36,127,271
3,36,127,960
3,36,127,300
3,36,127,271
3,36,127,959
3,36,127,303
3,36,127,271
3,36,127,960
3,36,127,300
3,36,127,271
3,36,127,959
3,36,127,303
3,36,127,271
3,36,127,963
3,36,127,299
3,36,127,271
3,36,127,959
3,36,127,303
3,36,127,271
3,36,127,963
3,36,127,299
3,36,127,271
3,36,127,959
3,36,127,303
3,36,127,271
3,36,127,960
3,36,127,300
3,36,127,271
3,36,127,959
3,36,127,303
3,36,127,271
3,36,127,960
3,36,127,300
3,36,127,271
3,36,127,959
3,36,127,303
3,36,127,271
3,36,127,960
3,36,127,300
3,36,127,271
3,36,127,959
3,36,127,303
3,36,127,271
3,36,127,960
3,36,127,300
3,36,127,271
3,36,127,959
3,36,127,303
3,36,127,271
3,36,127,963
3,36,127,299
3,36,127,271
3,36,127,959
3,36,127,303
3,36,127,271
3,36,127,963
3,36,127,299
3,36,127,271
3,36,127,959
3,36,127,303
3,36,127,271
3,36,127,963
3,36,127,299
3,36,127,271
3,36,127,959
3,36,127,303
3,36,127,271
3,36,127,960
3,36,127,300
3,36,127,271
3,36,127,959
3,36,127,303
3,36,127,271
3,36,127,960
3,36,127,300
3,36,127,271
3,36,127,959
3,36,127,303
3,36,127,271
3,36,127,960
3,36,127,300
3,36,127,271
3,36,127,959
3,36,127,303
3,36,127,271
3,36,127,960
3,36,127,300
3,36,127,271
3,36,127,959
3,36,127,303
3,36,127,271
3,36,127,963
3,36,127,299
3,36,127,271
3,36,127,959
3,36,127,303
3,36,127,271
3,36,127,963
3,36,127,299
3,36,127,271
3,36,127,959
3,36,127,303
3,36,127,271
3,36,127,963
3,36,127,299
3,36,127,271
3,36,127,959
3,36,127,303
3,36,127,271
3,36,127,960
3,36,127,300
3,36,127,271
3,36,127,959
3,36,127,303
3,36,127,271
3,36,127,960
3,36,127,300
3,36,127,271
3,36,127,959
3,36,127,303
3,36,127,271
3,36,127,960
3,36,127,300
3,36,127,271
3,36,127,383
3,36,127,3648
3,36,127,300
3,36,127,271
3,36,127,767
3,36,127,191
3,36,127,303
3,36,127,271
3,36,127,767
3,36,127,192
3,36,127,300
3,36,127,271
3,36,127,767
3,36,127,191
3,36,127,303
3,36,127,271
3,36,127,767
3,36,127,192
3,36,127,300
3,36,127,271
3,36,127,767
3,36,127,191
3,36,127,303
3,36,127,271
3,36,127,767
3,36,127,191
3,36,127,303
3,36,127,271
3,36,127,767
3,36,127,191
3,36,127,303
3,36,127,271
3,36,127,767
3,36,127,192
3,36,127,300
3,36,127,271
3,36,127,767
3,36,127,191
3,36,127,303
3,36,127,271
3,36,127,767
3,36,110,23231
3,36,120,300
3,36,127,271
4,48,127,103084
4,48,127,959
4,48,127,383
4,48,127,1151
5,45,127,103388
5,45,127,575
5,45,127,575
5,45,127,191
5,45,127,79
5,45,127,191
5,45,127,727
6,41,127,103660
6,41,127,575
6,41,127,879
6,41,127,191
6,41,127,559
7,49,100,3052
7,49,120,61439
7,49,127,39935
7,49,120,1535
7,49,80,38399
7,49,90,303
7,49,100,271
8,39,100,3425
8,39,118,8
8,39,100,756
8,39,118,8
8,39,100,756
8,39,118,8
8,39,100,756
8,39,118,8
8,39,100,756
8,39,118,8
8,39,100,756
8,39,118,8
8,39,100,756
8,39,118,8
8,39,100,756
8,39,118,8
8,39,100,755
8,39,118,11
8,39,100,756
8,39,118,8
8,39,100,756
8,39,118,8
8,39,100,756
8,39,118,8
8,39,100,756
8,39,118,8
8,39,100,756
8,39,118,8
8,39,100,756
8,39,118,8
8,39,100,564
8,39,118,8
8,39,100,180
8,39,118,8
8,39,100,756
8,39,118,8
8,39,100,756
8,39,118,8
8,39,100,756
8,39,118,8
8,39,100,756
8,39,118,8
8,39,100,753
8,39,118,8
8,39,100,755
8,39,118,11
8,39,100,756
8,39,118,8
8,39,100,756
8,39,118,8
8,39,100,31476
8,39,118,8
8,39,100,756
8,39,118,8
8,39,100,756
8,39,118,8
8,39,100,756
8,39,118,8
8,39,100,756
8,39,118,8
8,39,100,755
8,39,118,11
8,39,100,756
8,39,118,8
8,39,100,755
8,39,118,11
8,39,100,756
8,39,118,8
8,39,100,756
8,39,118,8
8,39,100,756
8,39,118,8
8,39,100,756
8,39,118,8
8,39,100,756
8,39,118,8
8,39,100,756
8,39,118,8
8,39,100,755
8,39,118,11
8,39,100,564
8,39,118,8
8,39,100,180
8,39,118,8
8,39,100,756
8,39,118,8
8,39,100,756
8,39,118,8
8,39,100,755
8,39,118,11
8,39,100,756
8,39,118,8
8,39,100,755
8,39,118,11
8,39,100,756
8,39,118,8
8,39,100,756
8,39,118,8
8,39,100,756
8,39,118,8
8,39,100,756
8,39,118,8
8,39,100,756
8,39,118,8
8,39,100,756
8,39,118,8
8,39,100,756
8,39,118,8
8,39,100,756
8,39,118,8
8,39,100,756
8,39,118,8
8,39,100,756
8,39,118,8
8,39,100,564
8,39,118,8
8,39,100,180
8,39,118,8
8,39,100,13043
8,39,118,11
8,39,100,756
8,39,118,8
8,39,100,756
8,39,118,8
8,39,100,756
8,39,118,8
8,39,100,756
8,39,118,8
8,39,100,756
8,39,118,8
8,39,100,756
8,39,118,8
8,39,100,756
8,39,118,8
8,39,100,756
8,39,118,8
8,39,100,756
8,39,118,8
8,39,100,756
8,39,118,8
8,39,100,755
8,39,118,11
8,39,100,756
8,39,118,8
8,39,100,755
8,39,118,11
8,39,100,756
8,39,118,8
8,39,100,756
8,39,118,8
8,39,100,756
8,39,118,8
8,39,100,4596
8,39,118,8
8,39,100,756
8,39,118,8
8,39,100,756
8,39,118,8
8,39,100,759
8,39,118,8
8,39,100,752
8,39,118,11
8,39,100,759
8,39,118,8
8,39,100,752
8,39,118,11
8,39,100,756
8,39,118,8
8,39,100,756
8,39,118,8
8,39,100,759
8,39,118,8
8,39,100,753
8,39,118,8
8,39,100,759
8,39,118,8
8,39,100,753
8,39,118,8
8,39,100,759
8,39,118,8
8,39,100,753
8,39,118,8
8,39,100,756
8,39,118,8
8,39,100,756
8,39,118,8
8,39,100,756
8,39,118,8
8,39,100,756
8,39,118,8
8,39,100,756
8,39,118,8
9,54,117,35308
9,54,101,95
9,54,117,95
9,54,117,95
9,54,117,95
9,54,117,95
9,54,117,2591
9,54,101,95
9,54,117,95
9,54,117,95
9,54,117,95
9,54,117,95
9,54,53,84111
9,54,117,79
9,54,69,111
9,54,69,191
9,54,101,79
9,54,85,111
9,54,53,2495
9,54,117,79
9,54,69,111
9,54,69,191
9,54,101,79
9,54,85,111
9,54,53,2495
9,54,117,79
9,54,69,111
9,54,69,191
9,54,101,79
9,54,85,111
9,54,53,2495
9,54,117,79
9,54,69,111
9,54,69,191
9,54,101,79
9,54,85,111
9,54,53,2495
9,54,117,79
9,54,69,111
9,54,69,191
9,54,101,79
9,54,85,111
9,54,53,2495
9,54,117,79
9,54,69,111
9,54,69,191
9,54,101,79
9,54,85,111
9,54,53,2495
9,54,117,79
9,54,69,111
9,54,69,191
9,54,101,79
9,54,85,111
9,54,53,2495
9,54,117,79
9,54,69,111
10,42,110,3052
10,42,88,191
10,42,110,191
10,42,88,191
10,42,110,191
10,42,88,191
10,42,110,191
10,42,88,191
10,42,110,191
10,42,88,191
10,42,110,191
10,42,88,191
10,42,110,191
10,42,88,191
10,42,110,191
10,42,88,191
10,42,110,192
10,42,88,188
10,42,110,191
10,42,88,191
10,42,110,191
10,42,88,191
10,42,110,191
10,42,88,191
10,42,110,191
10,42,88,191
10,42,110,191
10,42,88,191
10,42,110,191
10,42,88,191
10,42,110,191
10,42,88,191
10,42,110,192
10,42,88,188
10,42,110,191
10,42,88,191
10,42,110,191
10,42,88,191
10,42,110,191
10,42,88,191
10,42,110,191
10,42,88,191
10,42,110,191
10,42,88,191
10,42,110,191
10,42,88,191
10,42,110,191
10,42,88,191
10,42,110,192
10,42,88,188
10,42,110,191
10,42,88,191
10,42,110,191
10,42,88,191
10,42,110,191
10,42,88,191
10,42,110,191
10,42,88,191
10,42,110,191
10,42,88,191
10,42,110,191
10,42,88,191
10,42,110,191
10,42,88,191
10,42,110,191
10,42,88,191
10,42,110,191
10,42,88,191
10,42,110,191
10,42,88,191
10,42,110,191
10,42,88,191
10,42,110,191
10,42,88,191
10,42,110,191
10,42,88,191
10,42,110,191
10,42,88,191
10,42,110,191
10,42,88,191
10,42,110,192
10,42,88,188
10,42,110,191
10,42,88,191
10,42,110,191
10,42,88,191
10,42,110,191
10,42,88,191
10,42,110,191
10,42,88,191
10,42,110,191
10,42,88,191
10,42,110,191
10,42,88,191
10,42,110,191
10,42,88,191
10,42,98,192
10,42,78,188
10,42,98,191
10,42,78,191
10,42,98,191
10,42,78,191
10,42,98,191
10,42,78,191
10,42,98,191
10,42,78,191
10,42,98,191
10,42,78,191
10,42,98,191
10,42,78,191
10,42,98,191
10,42,78,191
10,42,98,192
10,42,78,188
10,42,98,191
10,42,78,191
10,42,98,191
10,42,78,191
10,42,98,191
10,42,78,191
10,42,98,191
10,42,78,191
10,42,98,191
10,42,78,191
10,42,98,191
10,42,78,191
10,42,98,191
10,42,78,191
10,42,98,191
10,42,78,191
10,42,98,191
10,42,78,191
10,42,98,191
10,42,78,191
10,42,98,191
10,42,78,191
10,42,98,191
10,42,78,191
10,42,98,191
10,42,78,191
10,42,98,191
10,42,78,191
10,42,98,191
10,42,78,191
10,42,98,192
10,42,78,188
10,42,98,191
10,42,78,191
10,42,98,191
10,42,78,191
10,42,98,191
10,42,78,191
10,42,98,191
10,42,78,191
10,42,98,191
10,42,78,191
10,42,98,191
10,42,78,191
10,42,98,191
10,42,78,191
10,42,98,192
10,42,78,188
10,42,98,191
10,42,78,191
10,42,98,191
10,42,78,191
10,42,98,191
10,42,78,191
10,42,98,191
10,42,78,191
10,42,98,191
10,42,78,191
10,42,98,191
10,42,78,191
10,42,98,191
10,42,78,191
10,42,98,192
10,42,78,188
10,42,98,191
10,42,78,191
10,42,98,191
10,42,78,191
10,42,98,191
10,42,78,191
10,42,98,191
10,42,78,191
10,42,98,191
10,42,78,191
10,42,98,191
10,42,78,191
10,42,98,191
10,42,78,191
10,42,98,191
10,42,78,191
10,42,98,191
10,42,78,191
10,42,98,191
10,42,78,191
10,42,98,191
10,42,78,191
10,42,98,191
10,42,78,191
10,42,98,191
10,42,78,191
10,42,98,191
10,42,78,191
10,42,98,191
10,42,78,191
10,42,98,192
10,42,78,188
10,42,98,191
10,42,78,191
10,42,98,191
10,42,78,191
10,42,98,191
10,42,78,191
10,42,98,191
10,42,78,191
10,42,98,191
10,42,78,191
10,42,98,191
10,42,78,191
10,42,98,191
10,42,78,191
10,42,98,192
10,42,78,188
10,42,98,191
10,42,78,191
10,42,98,191
10,42,78,191
10,42,98,191
10,42,78,191
10,42,98,191
10,42,78,191
10,42,98,191
10,42,78,191
10,42,98,191
10,42,78,191
10,42,98,191
10,42,78,191
10,42,98,192
10,42,78,188
10,42,98,191
10,42,78,191
10,42,98,191
10,42,78,191
10,42,98,191
10,42,78,191
10,42,98,191
10,42,78,191
10,42,98,191
10,42,78,191
10,42,98,191
10,42,78,191
10,42,98,191
10,42,78,191
10,42,110,191
10,42,88,191
10,42,110,191
10,42,88,191
10,42,110,191
10,42,88,191
10,42,110,191
10,42,88,191
10,42,110,191
10,42,88,191
10,42,110,191
10,42,88,191
10,42,110,191
10,42,88,191
10,42,110,191
10,42,88,191
10,42,110,192
10,42,88,188
10,42,110,191
10,42,88,191
10,42,110,191
10,42,88,191
10,42,110,191
10,42,88,191
10,42,110,191
10,42,88,191
10,42,110,191
10,42,88,191
10,42,110,191
10,42,88,191
10,42,110,191
10,42,88,191
10,42,110,192
10,42,88,188
10,42,110,191
10,42,88,191
10,42,110,191
10,42,88,191
10,42,110,191
10,42,88,191
10,42,110,191
10,42,88,191
10,42,110,191
10,42,88,191
10,42,110,191
10,42,88,191
10,42,110,191
10,42,88,191
10,42,110,191
10,42,88,191
10,42,110,191
10,42,88,191
10,42,110,191
10,42,88,191
10,42,110,191
10,42,88,191
10,42,110,191
10,42,88,191
10,42,110,191
10,42,88,191
10,42,110,191
10,42,88,191
10,42,110,191
10,42,88,191
10,42,110,192
10,42,88,188
10,42,110,191
10,42,88,191
10,42,110,191
10,42,88,191
10,42,110,191
10,42,88,191
10,42,110,191
10,42,88,191
10,42,110,191
10,42,88,191
10,42,110,191
10,42,88,191
10,42,110,191
10,42,88,191
10,42,110,192
10,42,88,188
10,42,110,191
10,42,88,191
10,42,110,191
10,42,88,191
10,42,110,191
10,42,88,191
10,42,110,191
10,42,88,191
10,42,110,191
10,42,88,191
10,42,110,191
10,42,88,191
10,42,110,191
10,42,88,191
10,42,110,192
10,42,88,188
10,42,110,191
10,42,88,191
10,42,110,191
10,42,88,191
10,42,110,191
10,42,88,191
10,42,110,191
10,42,88,191
10,42,110,191
10,42,88,191
10,42,110,191
10,42,88,191
10,42,110,191
10,42,88,191
10,42,110,191
10,42,88,191
10,42,110,191
10,42,88,191
10,42,110,191
10,42,88,191
10,42,110,191
10,42,88,191
10,42,110,191
10,42,88,191
10,42,110,191
10,42,88,191
10,42,110,191
10,42,88,191
10,42,110,191
10,42,88,191
10,42,98,192
10,42,78,188
10,42,98,191
10,42,78,191
10,42,98,191
10,42,78,191
10,42,98,191
10,42,78,191
10,42,98,191
