track,note,velocity,time
1,71,110,3936
1,75,110,2
1,71,110,2
1,73,110,2
1,71,110,2
1,70,110,2
1,71,110,2
1,73,110,2
1,75,110,608
1,71,110,2
1,73,110,2
1,71,110,2
1,70,110,2
1,71,110,2
1,71,110,2
1,68,110,2
1,78,110,608
1,75,110,2
1,78,110,2
1,78,110,2
1,78,110,2
1,80,110,2
1,80,110,2
1,75,110,2
1,75,110,128
1,75,110,2
1,75,110,2
1,73,110,2
1,71,110,2
1,75,110,2
1,71,110,2
1,73,110,2
1,68,110,32
1,70,110,2
1,75,110,608
1,75,110,2
1,73,110,2
1,71,110,2
1,70,110,2
1,71,110,2
1,71,110,2
1,73,110,2
1,71,110,512
1,75,110,2
1,71,110,2
1,73,110,2
1,71,110,2
1,70,110,2
1,71,110,2
1,71,110,2
1,71,110,2
1,68,110,2
1,78,110,416
1,78,110,2
1,78,110,2
1,75,110,2
1,78,110,2
1,80,110,2
1,80,110,2
1,75,110,32
1,75,110,48
1,75,110,32
1,73,110,2
1,73,110,2
1,68,110,2
1,73,110,2
1,68,110,32
1,73,110,2
1,68,110,2
1,70,110,2
1,71,110,512
1,75,110,2
1,71,110,2
1,73,110,2
1,71,110,2
1,70,110,2
1,71,110,2
1,73,110,2
1,75,110,608
1,71,110,2
1,73,110,2
1,71,110,2
1,70,110,2
1,71,110,2
1,71,110,2
1,68,110,2
1,78,110,608
1,75,110,2
1,78,110,2
1,78,110,2
1,78,110,2
1,80,110,2
1,80,110,2
1,75,110,2
1,75,110,128
1,75,110,2
1,75,110,2
1,73,110,2
1,71,110,2
1,75,110,2
1,71,110,2
1,73,110,2
1,68,110,32
1,70,110,2
1,75,110,608
1,75,110,2
1,73,110,2
1,71,110,2
1,70,110,2
1,71,110,2
1,71,110,2
1,73,110,2
1,71,110,512
1,75,110,2
1,71,110,2
1,73,110,2
1,71,110,2
1,70,110,2
1,71,110,2
1,71,110,2
1,71,110,2
1,68,110,2
1,78,110,416
1,78,110,2
1,78,110,2
1,75,110,2
1,78,110,2
1,80,110,2
1,80,110,2
1,75,110,32
1,75,110,48
1,75,110,32
1,73,110,2
1,73,110,2
1,68,110,2
1,73,110,2
1,68,110,32
1,73,110,2
1,68,110,2
1,70,110,2
1,71,110,992
1,71,110,2
1,71,110,2
1,71,110,2
1,71,110,2
1,71,110,2
1,71,110,2
1,71,110,32
1,71,110,2
1,71,110,2
1,71,110,2
1,71,110,2
1,71,110,2
1,71,110,2
1,71,110,2
1,66,110,2
1,66,110,128
1,71,110,2
1,71,110,2
1,71,110,2
1,71,110,2
1,66,110,2
1,71,110,2
1,71,110,2
1,71,110,2
1,75,110,2
1,73,110,2
1,71,110,32
1,71,110,2
1,71,110,2
1,71,110,32
1,71,110,2
1,71,110,2
1,71,110,2
1,71,110,32
1,71,110,32
1,71,110,2
1,66,110,2
1,66,110,2
1,66,110,128
1,71,110,2
1,66,110,2
1,71,110,2
1,71,110,2
1,66,110,2
1,71,110,2
1,71,110,2
1,71,110,2
1,71,110,2
1,71,110,2
1,75,110,2
1,73,110,2
1,75,110,2
1,71,110,4352
1,75,110,2
1,75,110,2
1,71,110,2
1,73,110,2
1,70,110,32
1,71,110,2
1,71,110,2
1,73,110,2
1,71,110,512
1,75,110,2
1,71,110,2
1,73,110,2
1,71,110,2
1,70,110,2
1,71,110,2
1,71,110,2
1,71,110,2
1,68,110,2
1,75,110,320
1,78,110,2
1,78,110,2
1,78,110,2
1,75,110,2
1,78,110,2
1,75,110,2
1,80,110,2
1,80,110,2
1,75,110,2
1,75,110,32
1,75,110,32
1,75,110,2
1,75,110,2
1,73,110,2
1,73,110,2
1,73,110,2
1,71,110,32
1,73,110,2
1,68,110,2
1,70,110,2
1,71,110,512
1,75,110,2
1,75,110,2
1,71,110,2
1,73,110,2
1,70,110,32
1,71,110,2
1,71,110,2
1,73,110,2
1,71,110,512
1,75,110,2
1,71,110,2
1,73,110,2
1,71,110,2
1,70,110,2
1,71,110,2
1,71,110,2
1,68,110,2
1,78,110,608
1,75,110,2
1,78,110,2
1,75,110,2
1,78,110,2
1,80,110,2
1,75,110,2
1,75,110,128
1,75,110,2
1,75,110,2
1,73,110,2
1,73,110,2
1,71,110,2
1,73,110,2
1,71,110,32
1,73,110,2
1,68,110,2
1,70,110,2
2,51,110,768
2,54,110,0
2,59,110,0
2,51,110,32
2,54,110,0
2,59,110,0
2,54,110,32
2,58,110,0
2,61,110,0
2,59,110,2
2,58,110,2
2,52,110,2
2,56,110,0
2,59,110,0
2,52,110,2
2,56,110,0
2,59,110,0
2,52,110,32
2,56,110,0
2,59,110,0
2,52,110,32
2,56,110,0
2,59,110,0
2,54,110,2
2,58,110,0
2,61,110,0
2,59,110,2
2,51,110,2
2,54,110,0
2,59,110,0
2,51,110,32
2,54,110,0
2,59,110,0
2,54,110,32
2,58,110,0
2,61,110,0
2,59,110,2
2,58,110,2
2,52,110,2
2,56,110,0
2,59,110,0
2,52,110,2
2,56,110,0
2,59,110,0
2,52,110,32
2,56,110,0
2,59,110,0
2,52,110,32
2,56,110,0
2,59,110,0
2,54,110,2
2,58,110,0
2,61,110,0
2,59,110,2
2,51,110,2
2,54,110,0
2,59,110,0
2,52,110,608
2,56,110,0
2,59,110,0
2,52,110,32
2,56,110,0
2,59,110,0
2,52,110,32
2,56,110,0
2,59,110,0
2,54,110,2
2,58,110,0
2,61,110,0
2,59,110,2
2,51,110,2
2,54,110,0
2,59,110,0
2,52,110,32
2,59,110,0
2,54,110,32
2,58,110,0
2,61,110,0
2,59,110,2
2,58,110,2
2,52,110,2
2,56,110,0
2,59,110,0
2,56,110,2
2,52,110,32
2,56,110,0
2,59,110,0
2,52,110,32
2,56,110,0
2,59,110,0
2,54,110,2
2,58,110,0
2,61,110,0
2,59,110,2
2,51,110,2
2,54,110,0
2,59,110,0
2,51,110,32
2,54,110,0
2,59,110,0
2,54,110,32
2,58,110,0
2,61,110,0
2,59,110,2
2,58,110,2
2,52,110,2
2,56,110,0
2,59,110,0
2,52,110,2
2,56,110,0
2,59,110,0
2,52,110,32
2,56,110,0
2,59,110,0
2,52,110,32
2,56,110,0
2,59,110,0
2,54,110,2
2,58,110,0
2,61,110,0
2,59,110,2
2,49,110,2
2,52,110,0
2,56,110,0
2,61,110,0
2,52,110,32
2,56,110,0
2,61,110,0
2,49,110,2
2,49,110,2
2,52,110,0
2,56,110,0
2,61,110,0
2,49,110,2
2,52,110,0
2,56,110,0
2,61,110,0
2,49,110,2
2,54,110,2
2,58,110,0
2,54,110,32
2,58,110,0
2,54,110,2
2,59,110,0
2,54,110,2
2,59,110,0
2,56,110,2
2,51,110,32
2,54,110,0
2,59,110,0
2,51,110,32
2,54,110,0
2,59,110,0
2,52,110,416
2,56,110,0
2,59,110,0
2,52,110,32
2,56,110,0
2,59,110,0
2,52,110,32
2,56,110,0
2,59,110,0
2,54,110,2
2,58,110,0
2,61,110,0
2,59,110,2
2,51,110,2
2,54,110,0
2,59,110,0
2,51,110,32
2,54,110,0
2,59,110,0
2,54,110,32
2,58,110,0
2,61,110,0
2,59,110,2
2,58,110,2
2,52,110,2
2,56,110,0
2,59,110,0
2,52,110,2
2,52,110,32
2,56,110,0
2,59,110,0
2,52,110,32
2,56,110,0
2,59,110,0
2,54,110,2
2,58,110,0
2,61,110,0
2,59,110,2
2,52,110,2
2,59,110,0
2,51,110,32
2,54,110,0
2,59,110,0
2,52,110,416
2,56,110,0
2,59,110,0
2,52,110,32
2,56,110,0
2,59,110,0
2,52,110,32
2,56,110,0
2,59,110,0
2,54,110,2
2,58,110,0
2,61,110,0
2,59,110,2
2,49,110,2
2,51,110,0
2,56,110,0
2,61,110,0
2,49,110,32
2,49,110,2
2,51,110,0
2,56,110,0
2,61,110,0
2,49,110,2
2,51,110,0
2,56,110,0
2,61,110,0
2,49,110,2
2,54,110,2
2,56,110,0
2,54,110,2
2,56,110,0
2,54,110,2
2,56,110,0
2,54,110,2
2,56,110,0
2,54,110,2
2,56,110,0
2,51,110,224
2,54,110,0
2,59,110,0
2,52,110,608
2,56,110,0
2,59,110,0
2,52,110,32
2,56,110,0
2,59,110,0
2,52,110,32
2,56,110,0
2,59,110,0
2,54,110,2
2,58,110,0
2,61,110,0
2,59,110,2
2,51,110,2
2,54,110,0
2,59,110,0
2,52,110,32
2,59,110,0
2,54,110,32
2,58,110,0
2,61,110,0
2,59,110,2
2,58,110,2
2,52,110,2
2,56,110,0
2,59,110,0
2,56,110,2
2,52,110,32
2,56,110,0
2,59,110,0
2,52,110,32
2,56,110,0
2,59,110,0
2,54,110,2
2,58,110,0
2,61,110,0
2,59,110,2
2,51,110,2
2,54,110,0
2,59,110,0
2,51,110,32
2,54,110,0
2,59,110,0
2,54,110,32
2,58,110,0
2,61,110,0
2,59,110,2
2,58,110,2
2,52,110,2
2,56,110,0
2,59,110,0
2,52,110,2
2,56,110,0
2,59,110,0
2,52,110,32
2,56,110,0
2,59,110,0
2,52,110,32
2,56,110,0
2,59,110,0
2,54,110,2
2,58,110,0
2,61,110,0
2,59,110,2
2,49,110,2
2,52,110,0
2,56,110,0
2,61,110,0
2,52,110,32
2,56,110,0
2,61,110,0
2,49,110,2
2,49,110,2
2,52,110,0
2,56,110,0
2,61,110,0
2,49,110,2
2,52,110,0
2,56,110,0
2,61,110,0
2,49,110,2
2,54,110,2
2,58,110,0
2,54,110,32
2,58,110,0
2,54,110,2
2,59,110,0
2,54,110,2
2,59,110,0
2,56,110,2
2,51,110,32
2,54,110,0
2,59,110,0
2,51,110,32
2,54,110,0
2,59,110,0
2,52,110,416
2,56,110,0
2,59,110,0
2,52,110,32
2,56,110,0
2,59,110,0
2,52,110,32
2,56,110,0
2,59,110,0
2,54,110,2
2,58,110,0
2,61,110,0
2,59,110,2
2,51,110,2
2,54,110,0
2,59,110,0
2,51,110,32
2,54,110,0
2,59,110,0
2,54,110,32
2,58,110,0
2,61,110,0
2,59,110,2
2,58,110,2
2,52,110,2
2,56,110,0
2,59,110,0
2,52,110,2
2,52,110,32
2,56,110,0
2,59,110,0
2,52,110,32
2,56,110,0
2,59,110,0
2,54,110,2
2,58,110,0
2,61,110,0
2,59,110,2
2,52,110,2
2,59,110,0
2,51,110,32
2,54,110,0
2,59,110,0
2,52,110,416
2,56,110,0
2,59,110,0
2,52,110,32
2,56,110,0
2,59,110,0
2,52,110,32
2,56,110,0
2,59,110,0
2,54,110,2
2,58,110,0
2,61,110,0
2,59,110,2
2,49,110,2
2,51,110,0
2,56,110,0
2,61,110,0
2,49,110,32
2,49,110,2
2,51,110,0
2,56,110,0
2,61,110,0
2,49,110,2
2,51,110,0
2,56,110,0
2,61,110,0
2,49,110,2
2,54,110,2
2,58,110,0
2,54,110,32
2,58,110,0
2,54,110,2
2,59,110,0
2,54,110,2
2,59,110,0
2,54,110,2
2,58,110,0
2,54,110,2
2,58,110,0
2,54,110,2
2,59,110,0
2,54,110,2
2,59,110,0
2,54,110,2
2,58,110,0
2,54,110,2
2,58,110,0
2,54,110,2
2,59,110,0
2,54,110,2
2,59,110,0
2,54,110,2
2,61,110,0
2,56,110,1730
2,47,110,14432
2,54,110,48
2,51,110,32
2,52,110,2
2,47,110,2
2,52,110,0
2,47,110,48
2,54,110,48
2,51,110,32
2,52,110,2
2,47,110,2
2,52,110,0
2,54,110,432
2,51,110,32
2,52,110,2
2,52,110,2
2,49,110,48
2,51,110,816
2,54,110,0
2,59,110,0
2,52,110,32
2,59,110,0
2,54,110,32
2,61,110,0
2,59,110,2
2,58,110,2
2,52,110,2
2,56,110,0
2,59,110,0
2,52,110,2
2,56,110,0
2,59,110,0
2,52,110,32
2,56,110,0
2,59,110,0
2,52,110,32
2,56,110,0
2,59,110,0
2,54,110,2
2,58,110,0
2,61,110,0
2,59,110,2
2,51,110,386
2,54,110,0
2,59,110,0
2,52,110,224
2,56,110,0
2,59,110,0
2,52,110,32
2,56,110,0
2,59,110,0
2,52,110,32
2,56,110,0
2,59,110,0
2,54,110,2
2,58,110,0
2,61,110,0
2,59,110,2
2,51,110,2
2,54,110,0
2,59,110,0
2,52,110,32
2,59,110,0
2,54,110,32
2,61,110,0
2,59,110,2
2,58,110,2
2,52,110,2
2,56,110,0
2,59,110,0
2,52,110,2
2,56,110,0
2,59,110,0
2,52,110,32
2,56,110,0
2,59,110,0
2,52,110,32
2,56,110,0
2,59,110,0
2,54,110,2
2,58,110,0
2,61,110,0
2,59,110,2
2,51,110,386
2,54,110,0
2,59,110,0
2,52,110,224
2,56,110,0
2,59,110,0
2,52,110,32
2,56,110,0
2,59,110,0
2,52,110,32
2,56,110,0
2,59,110,0
2,54,110,2
2,58,110,0
2,61,110,0
2,59,110,2
2,51,110,2
2,54,110,0
2,59,110,0
2,52,110,32
2,59,110,0
2,54,110,32
2,61,110,0
2,59,110,2
2,58,110,2
2,52,110,2
2,56,110,0
2,59,110,0
2,52,110,2
2,56,110,0
2,59,110,0
2,52,110,32
2,56,110,0
2,59,110,0
2,52,110,32
2,56,110,0
2,59,110,0
2,54,110,2
2,58,110,0
2,61,110,0
2,59,110,2
2,51,110,386
2,54,110,0
2,59,110,0
2,56,110,224
3,42,110,15360
3,42,110,2
3,42,110,2
3,42,110,2
3,42,110,2
3,42,110,11744
3,42,110,2
3,42,110,98
3,42,110,2
3,42,110,128
3,42,110,2
3,42,110,128
3,42,110,2
3,42,110,2
3,40,110,194
3,35,110,32
3,35,110,2
3,39,110,32
3,40,110,2
3,35,110,32
3,35,110,2
3,39,110,32
3,39,110,194
3,34,110,32
3,41,110,194
3,41,110,32
3,41,110,2
3,41,110,2
3,41,110,2
3,39,110,2
3,39,110,2
3,34,110,32
3,34,110,2
3,38,110,32
3,39,110,2
3,34,110,32
3,34,110,2
3,38,110,32
3,39,110,2
3,34,110,32
3,34,110,2
3,39,110,32
3,41,110,2
3,41,110,32
3,41,110,2
3,41,110,2
3,41,110,2
4,47,110,3840
4,42,110,48
4,40,110,32
4,40,110,48
4,42,110,2
4,47,110,32
4,42,110,48
4,40,110,32
4,40,110,2
4,40,110,48
4,42,110,2
4,47,110,32
4,42,110,48
4,40,110,32
4,40,110,2
4,40,110,48
4,42,110,2
4,44,110,2
4,47,110,2
4,42,110,770
4,42,110,32
4,42,110,2
4,42,110,2
4,42,110,416
4,40,110,48
4,40,110,48
4,42,110,2
4,42,110,416
4,40,110,48
4,40,110,48
4,42,110,2
4,42,110,416
4,40,110,48
4,40,110,48
4,42,110,2
4,47,110,1568
4,42,110,48
4,40,110,32
4,40,110,48
4,42,110,2
4,47,110,32
4,42,110,48
4,40,110,32
4,40,110,2
4,40,110,48
4,42,110,2
4,47,110,32
4,42,110,48
4,40,110,32
4,40,110,2
4,40,110,48
4,42,110,2
4,44,110,2
4,47,110,2
4,42,110,770
4,42,110,32
4,42,110,2
4,42,110,2
4,42,110,416
4,40,110,48
4,40,110,48
4,42,110,2
4,42,110,416
4,40,110,48
4,40,110,48
4,42,110,2
4,42,110,416
4,40,110,48
4,40,110,48
4,42,110,2
4,42,110,8480
4,42,110,2
4,42,110,2
4,42,110,2
4,42,110,2
4,42,110,2
4,47,110,2
4,54,110,48
4,51,110,32
4,52,110,2
4,52,110,2
4,47,110,48
4,54,110,48
4,51,110,32
4,52,110,2
4,47,110,2
4,52,110,0
4,47,110,48
4,54,110,48
4,51,110,32
4,52,110,2
4,47,110,48
4,54,110,48
4,51,110,32
4,52,110,2
4,47,110,2
4,52,110,0
4,47,110,48
4,42,110,48
4,40,110,32
4,40,110,2
4,49,110,48
4,42,110,48
4,47,110,2352
4,47,110,48
4,42,110,816
4,42,110,432
4,40,110,128
4,40,110,2
4,40,110,48
4,42,110,2
4,47,110,32
4,42,110,240
4,40,110,32
4,40,110,48
4,42,110,2
4,42,110,416
4,40,110,128
4,40,110,2
4,40,110,48
4,42,110,2
4,47,110,32
4,42,110,240
4,40,110,32
4,40,110,48
4,42,110,2
4,42,110,416
