track,note,velocity,time
1,69,110,13152
1,69,0,46
1,69,110,2
1,69,0,46
1,71,110,2
1,71,0,94
1,69,110,2
1,69,0,94
1,74,110,2
1,74,0,160
1,64,110,320
1,64,0,94
1,64,110,2
1,64,0,94
1,62,110,2
1,62,0,94
1,64,110,2
1,64,0,160
1,62,110,32
1,62,0,94
1,63,110,2
1,63,0,190
1,71,110,2
1,71,0,256
1,71,110,1280
1,71,0,94
1,71,110,2
1,71,0,94
1,71,110,2
1,71,0,94
1,71,110,2
1,71,0,94
1,71,110,2
1,71,0,94
1,71,110,2
1,71,0,94
1,74,110,2
1,74,0,190
1,71,110,2
1,71,0,94
1,71,110,2
1,71,0,94
1,71,110,2
1,71,0,94
1,71,110,2
1,71,0,46
1,71,110,2
1,71,0,46
1,71,110,2
1,71,0,94
1,71,110,2
1,71,0,94
1,74,110,2
1,74,0,190
1,71,110,2
1,71,0,256
1,69,110,1280
1,69,0,94
1,71,110,2
1,71,0,94
1,71,110,2
1,71,0,94
1,71,110,2
1,71,0,94
1,71,110,2
1,71,0,190
1,74,110,2
1,74,0,256
1,64,110,32
1,64,0,94
1,64,110,2
1,64,0,94
1,64,110,2
1,64,0,94
1,64,110,2
1,64,0,94
1,62,110,2
1,62,0,94
1,63,110,2
1,63,0,190
1,71,110,2
1,71,0,256
1,71,110,992
1,71,0,94
1,71,110,2
1,71,0,94
1,73,110,2
1,73,0,160
1,74,110,32
1,74,0,94
1,74,110,2
1,74,0,94
1,74,110,2
1,74,0,160
1,71,110,32
1,71,0,94
1,74,110,2
1,74,0,256
1,71,110,32
1,71,0,160
1,74,110,32
1,74,0,94
1,73,110,2
1,73,0,94
1,71,110,2
1,71,0,94
1,71,110,2
1,71,0,432
1,71,110,816
1,71,0,94
1,71,110,2
1,71,0,94
1,71,110,2
1,71,0,160
1,74,110,32
1,74,0,160
1,74,110,224
1,74,0,46
1,74,110,2
1,74,0,46
1,74,110,2
1,74,0,94
1,71,110,2
1,71,0,94
1,74,110,2
1,74,0,190
1,71,110,2
1,71,0,256
1,71,110,32
1,71,0,94
1,71,110,2
1,71,0,94
1,71,110,2
1,71,0,160
1,73,110,32
1,73,0,160
1,73,110,224
1,73,0,46
1,73,110,2
1,73,0,46
1,73,110,2
1,73,0,94
1,73,110,2
1,73,0,94
1,74,110,2
1,74,0,190
1,74,110,2
1,74,0,94
1,73,110,2
1,73,0,94
1,71,110,2
1,71,0,94
1,71,110,2
1,71,0,94
1,71,110,2
1,71,0,190
1,73,110,2
1,73,0,190
1,71,110,2
1,71,0,94
1,71,110,2
1,71,0,94
1,69,110,2
1,69,0,94
1,71,110,2
1,71,0,160
1,71,110,32
1,71,0,94
1,74,110,2
1,74,0,190
1,74,110,2
1,74,0,94
1,73,110,2
1,73,0,94
1,71,110,2
1,71,0,94
1,71,110,2
1,71,0,94
1,71,110,2
1,71,0,94
1,71,110,2
1,71,0,94
1,71,110,2
1,71,0,94
1,73,110,2
1,73,0,160
1,73,110,32
1,73,0,256
1,71,110,32
1,71,0,94
1,69,110,2
1,69,0,160
1,74,110,224
1,74,0,160
1,74,110,32
1,74,0,94
1,73,110,2
1,73,0,94
1,71,110,2
1,71,0,94
1,71,110,2
1,71,0,256
1,69,110,1472
1,69,0,46
1,69,110,2
1,69,0,46
1,71,110,2
1,71,0,94
1,69,110,2
1,69,0,94
1,74,110,2
1,74,0,160
1,64,110,320
1,64,0,94
1,64,110,2
1,64,0,94
1,62,110,2
1,62,0,94
1,64,110,2
1,64,0,160
1,62,110,32
1,62,0,94
1,63,110,2
1,63,0,190
1,71,110,2
1,71,0,256
1,71,110,1280
1,71,0,94
1,71,110,2
1,71,0,94
1,71,110,2
1,71,0,94
1,71,110,2
1,71,0,94
1,71,110,2
1,71,0,94
1,71,110,2
1,71,0,94
1,74,110,2
1,74,0,190
1,71,110,2
1,71,0,94
1,71,110,2
1,71,0,94
1,71,110,2
1,71,0,94
1,71,110,2
1,71,0,46
1,71,110,2
1,71,0,46
1,71,110,2
1,71,0,94
1,71,110,2
1,71,0,94
1,74,110,2
1,74,0,190
1,71,110,2
1,71,0,256
1,69,110,1280
1,69,0,94
1,71,110,2
1,71,0,94
1,71,110,2
1,71,0,94
1,71,110,2
1,71,0,94
1,71,110,2
1,71,0,190
1,74,110,2
1,74,0,256
1,64,110,32
1,64,0,94
1,64,110,2
1,64,0,94
1,64,110,2
1,64,0,94
1,64,110,2
1,64,0,94
1,62,110,2
1,62,0,94
1,63,110,2
1,63,0,190
1,71,110,2
1,71,0,256
1,71,110,992
1,71,0,94
1,71,110,2
1,71,0,94
1,73,110,2
1,73,0,160
1,74,110,32
1,74,0,94
1,74,110,2
1,74,0,94
1,74,110,2
1,74,0,160
1,71,110,32
1,71,0,94
1,74,110,2
1,74,0,256
1,71,110,32
1,71,0,160
1,74,110,32
1,74,0,94
1,73,110,2
1,73,0,94
1,71,110,2
1,71,0,94
1,71,110,2
1,71,0,432
1,71,110,816
1,71,0,94
1,71,110,2
1,71,0,94
1,71,110,2
1,71,0,160
1,74,110,32
1,74,0,160
1,74,110,224
1,74,0,46
1,74,110,2
1,74,0,46
1,74,110,2
1,74,0,94
1,71,110,2
1,71,0,94
1,74,110,2
1,74,0,190
1,71,110,2
1,71,0,256
1,71,110,32
1,71,0,94
1,71,110,2
1,71,0,94
1,71,110,2
1,71,0,160
1,73,110,32
1,73,0,160
1,73,110,224
1,73,0,46
1,73,110,2
1,73,0,46
1,73,110,2
1,73,0,94
1,73,110,2
1,73,0,94
1,74,110,2
1,74,0,190
1,74,110,2
1,74,0,94
1,73,110,2
1,73,0,94
1,71,110,2
1,71,0,94
1,71,110,2
1,71,0,94
1,71,110,2
1,71,0,190
1,73,110,2
1,73,0,190
1,71,110,2
1,71,0,94
1,71,110,2
1,71,0,94
1,69,110,2
1,69,0,94
1,71,110,2
1,71,0,160
1,71,110,32
1,71,0,94
1,74,110,2
1,74,0,190
1,74,110,2
1,74,0,94
1,73,110,2
1,73,0,94
1,71,110,2
1,71,0,94
1,71,110,2
1,71,0,94
1,71,110,2
1,71,0,94
1,71,110,2
1,71,0,94
1,71,110,2
1,71,0,94
1,73,110,2
1,73,0,160
1,73,110,32
1,73,0,256
1,71,110,32
1,71,0,94
1,69,110,2
1,69,0,160
1,74,110,224
1,74,0,160
1,74,110,32
1,74,0,94
1,73,110,2
1,73,0,94
1,71,110,2
1,71,0,94
1,71,110,2
1,71,0,256
1,64,110,13280
1,64,0,94
1,64,110,2
1,64,0,94
1,62,110,2
1,62,0,94
1,63,110,2
1,63,0,190
1,71,110,2
1,71,0,256
1,69,110,1280
1,69,0,46
1,69,110,2
1,69,0,46
1,71,110,2
1,71,0,94
1,69,110,2
1,69,0,94
1,74,110,2
1,74,0,160
1,64,110,320
1,64,0,94
1,64,110,2
1,64,0,94
1,62,110,2
1,62,0,94
1,64,110,2
1,64,0,160
1,62,110,32
1,62,0,94
1,63,110,2
1,63,0,190
1,71,110,2
1,71,0,256
1,71,110,1280
1,71,0,94
1,71,110,2
1,71,0,94
1,71,110,2
1,71,0,94
1,71,110,2
1,71,0,94
1,71,110,2
1,71,0,94
1,71,110,2
1,71,0,94
1,74,110,2
1,74,0,190
1,71,110,2
1,71,0,94
1,71,110,2
1,71,0,94
1,71,110,2
1,71,0,94
1,71,110,2
1,71,0,46
1,71,110,2
1,71,0,46
1,71,110,2
1,71,0,94
1,71,110,2
1,71,0,94
1,74,110,2
1,74,0,190
1,71,110,2
1,71,0,256
1,69,110,1280
1,69,0,94
1,71,110,2
1,71,0,94
1,71,110,2
1,71,0,94
1,71,110,2
1,71,0,94
1,71,110,2
1,71,0,190
1,74,110,2
1,74,0,256
1,64,110,32
1,64,0,94
1,64,110,2
1,64,0,94
1,64,110,2
1,64,0,94
1,64,110,2
1,64,0,94
1,62,110,2
1,62,0,94
1,63,110,2
1,63,0,190
1,71,110,2
1,71,0,256
1,71,110,992
1,71,0,94
1,71,110,2
1,71,0,94
1,73,110,2
1,73,0,160
1,74,110,32
1,74,0,94
1,74,110,2
1,74,0,94
1,74,110,2
1,74,0,160
1,71,110,32
1,71,0,94
1,74,110,2
1,74,0,256
1,71,110,32
1,71,0,160
1,74,110,32
1,74,0,94
1,73,110,2
1,73,0,94
1,71,110,2
1,71,0,94
1,71,110,2
1,71,0,432
1,71,110,816
1,71,0,94
1,71,110,2
1,71,0,94
1,71,110,2
1,71,0,160
1,74,110,32
1,74,0,160
1,74,110,224
1,74,0,46
1,74,110,2
1,74,0,46
1,74,110,2
1,74,0,94
1,71,110,2
1,71,0,94
1,74,110,2
1,74,0,190
1,71,110,2
1,71,0,256
1,71,110,32
1,71,0,94
1,71,110,2
1,71,0,94
1,71,110,2
1,71,0,160
1,73,110,32
1,73,0,160
1,73,110,224
1,73,0,46
1,73,110,2
1,73,0,46
1,73,110,2
1,73,0,94
1,73,110,2
1,73,0,94
1,74,110,2
1,74,0,190
1,74,110,2
1,74,0,94
1,73,110,2
1,73,0,94
1,71,110,2
1,71,0,94
1,71,110,2
1,71,0,94
1,71,110,2
1,71,0,190
1,73,110,2
1,73,0,190
1,71,110,2
1,71,0,94
1,71,110,2
1,71,0,94
1,69,110,2
1,69,0,94
1,71,110,2
1,71,0,160
1,71,110,32
1,71,0,94
1,74,110,2
1,74,0,190
1,74,110,2
1,74,0,94
1,73,110,2
1,73,0,94
1,71,110,2
1,71,0,94
1,71,110,2
1,71,0,94
1,71,110,2
1,71,0,94
1,71,110,2
1,71,0,94
1,71,110,2
1,71,0,94
1,73,110,2
1,73,0,160
1,73,110,32
1,73,0,256
1,71,110,32
1,71,0,94
1,69,110,2
1,69,0,160
1,74,110,224
1,74,0,160
1,74,110,32
1,74,0,94
1,73,110,2
1,73,0,94
1,71,110,2
1,71,0,94
1,71,110,2
1,71,0,256
1,71,110,992
1,71,0,94
1,71,110,2
1,71,0,94
1,71,110,2
1,71,0,160
1,74,110,32
1,74,0,160
1,78,110,224
1,78,0,46
1,78,110,2
1,78,0,46
1,78,110,2
1,78,0,94
1,76,110,2
1,76,0,94
1,78,110,2
1,78,0,190
1,71,110,2
1,71,0,256
1,71,110,32
1,71,0,94
1,71,110,2
1,71,0,94
1,71,110,2
1,71,0,160
1,73,110,32
1,73,0,160
1,73,110,224
1,73,0,46
1,73,110,2
1,73,0,46
1,73,110,2
1,73,0,94
1,73,110,2
1,73,0,94
1,74,110,2
1,74,0,190
1,74,110,2
1,74,0,94
1,73,110,2
1,73,0,94
1,71,110,2
1,71,0,94
1,71,110,2
1,71,0,94
1,71,110,2
1,71,0,190
1,74,110,2
1,74,0,190
1,71,110,2
1,71,0,94
1,71,110,2
1,71,0,94
1,69,110,2
1,69,0,94
1,71,110,2
1,71,0,160
1,71,110,32
1,71,0,94
1,74,110,2
1,74,0,190
1,74,110,2
1,74,0,94
1,73,110,2
1,73,0,94
1,71,110,2
1,71,0,94
1,71,110,2
1,71,0,94
1,71,110,2
1,71,0,94
1,71,110,2
1,71,0,94
1,71,110,2
1,71,0,94
1,73,110,2
1,73,0,160
1,73,110,32
1,73,0,256
1,71,110,32
1,71,0,94
1,69,110,2
1,69,0,160
1,74,110,224
1,74,0,160
1,74,110,32
1,74,0,94
1,73,110,2
1,73,0,94
1,71,110,2
1,71,0,94
1,71,110,2
1,71,0,256
1,64,110,5600
1,64,0,94
1,64,110,2
1,64,0,94
1,62,110,2
1,62,0,94
1,63,110,2
1,63,0,190
1,71,110,2
1,71,0,256
1,64,110,2227
1,64,0,94
1,64,110,2
1,64,0,94
1,62,110,2
1,62,0,94
1,63,110,2
1,63,0,94
2,59,110,768
2,66,110,0
2,69,110,0
2,69,0,528
2,66,0,0
2,59,0,0
2,59,110,144
2,64,110,0
2,68,110,0
2,68,0,624
2,64,0,0
2,59,0,0
2,54,110,144
2,59,110,0
2,59,0,190
2,54,0,0
2,66,110,2
2,74,110,0
2,74,0,190
2,66,0,0
2,66,110,2
2,74,110,0
2,74,0,190
2,66,0,0
2,66,110,2
2,74,110,0
2,74,0,190
2,66,0,0
2,66,110,2
2,74,110,0
2,74,0,190
2,66,0,0
2,66,110,2
2,74,110,0
2,74,0,190
2,66,0,0
2,66,110,2
2,74,110,0
2,74,0,190
2,66,0,0
2,71,110,2
2,71,0,46
2,69,110,2
2,69,0,46
2,66,110,2
2,71,110,0
2,71,0,160
2,66,0,0
2,59,110,32
2,66,110,0
2,69,110,0
2,69,0,528
2,66,0,0
2,59,0,0
2,59,110,144
2,64,110,0
2,68,110,0
2,68,0,624
2,64,0,0
2,59,0,0
2,54,110,144
2,59,110,0
2,59,0,574
2,54,0,0
2,57,110,2
2,57,0,190
2,59,110,2
2,59,0,256
2,54,110,32
2,59,110,0
2,59,0,160
2,54,0,0
2,57,110,32
2,57,0,94
2,59,110,2
2,59,0,190
2,59,110,2
2,66,110,0
2,69,110,0
2,69,0,624
2,66,0,0
2,59,0,0
2,59,110,144
2,64,110,0
2,68,110,0
2,68,0,624
2,64,0,0
2,59,0,0
2,54,110,144
2,59,110,0
2,59,0,190
2,54,0,0
2,66,110,2
2,74,110,0
2,74,0,190
2,66,0,0
2,66,110,2
2,74,110,0
2,74,0,190
2,66,0,0
2,66,110,2
2,74,110,0
2,74,0,190
2,66,0,0
2,66,110,2
2,74,110,0
2,74,0,190
2,66,0,0
2,66,110,2
2,74,110,0
2,74,0,190
2,66,0,0
2,66,110,2
2,74,110,0
2,74,0,190
2,66,0,0
2,71,110,2
2,71,0,46
2,69,110,2
2,69,0,46
2,66,110,2
2,71,110,0
2,71,0,160
2,66,0,0
2,59,110,32
2,66,110,0
2,69,110,0
2,69,0,528
2,66,0,0
2,59,0,0
2,59,110,144
2,64,110,0
2,68,110,0
2,68,0,624
2,64,0,0
2,59,0,0
2,54,110,144
2,59,110,0
2,59,0,574
2,54,0,0
2,57,110,2
2,57,0,190
2,59,110,2
2,59,0,256
2,54,110,32
2,59,110,0
2,59,0,160
2,54,0,0
2,57,110,32
2,57,0,94
2,59,110,2
2,59,0,190
2,59,110,2
2,66,110,0
2,69,110,0
2,69,0,190
2,66,0,0
2,59,0,0
2,69,110,2
2,69,0,94
2,71,110,2
2,71,0,94
2,69,110,2
2,69,0,94
2,66,110,2
2,74,110,0
2,74,0,256
2,66,0,0
2,59,110,32
2,64,110,0
2,68,110,0
2,68,0,256
2,64,0,0
2,59,0,0
2,64,110,32
2,64,0,94
2,62,110,2
2,62,0,94
2,59,110,2
2,64,110,0
2,64,0,160
2,59,0,0
2,62,110,32
2,62,0,94
2,59,110,2
2,63,110,0
2,63,0,190
2,59,0,0
2,71,110,2
2,71,0,256
2,52,110,128
2,57,110,0
2,57,0,94
2,52,0,0
2,54,110,2
2,54,0,94
2,57,110,2
2,57,0,190
2,57,110,2
2,57,0,94
2,54,110,2
2,54,0,94
2,54,110,2
2,59,110,0
2,59,0,190
2,54,0,0
2,59,110,2
2,59,0,94
2,57,110,2
2,57,0,94
2,59,110,2
2,66,110,0
2,69,110,0
2,69,0,190
2,66,0,0
2,59,0,0
2,71,110,2
2,71,0,94
2,71,110,2
2,71,0,94
2,71,110,2
2,71,0,94
2,71,110,2
2,71,0,94
2,71,110,2
2,71,0,94
2,71,110,2
2,71,0,94
2,64,110,2
2,68,110,0
2,74,110,0
2,74,0,256
2,68,0,0
2,64,0,0
2,66,110,32
2,71,110,0
2,71,0,160
2,66,0,0
2,66,110,32
2,71,110,0
2,71,0,160
2,66,0,0
2,66,110,32
2,71,110,0
2,71,0,94
2,66,0,0
2,69,110,2
2,74,110,0
2,74,0,190
2,69,0,0
2,66,110,2
2,71,110,0
2,71,0,256
2,66,0,0
2,52,110,128
2,52,0,94
2,54,110,2
2,54,0,94
2,59,110,2
2,59,0,190
2,59,110,2
2,59,0,94
2,66,110,2
2,66,0,94
2,71,110,2
2,71,0,352
2,59,110,32
2,66,110,0
2,69,110,0
2,69,0,190
2,66,0,0
2,59,0,0
