track,note,velocity,time
0,39,120,224
0,58,120,0
0,62,120,0
0,67,120,0
0,58,120,1
0,62,120,0
0,67,120,0
0,58,0,1
0,62,0,2
0,67,0,1
0,70,127,0
0,59,100,22
0,59,0,0
0,74,120,15
0,74,0,7
0,70,120,2
0,70,0,1
0,39,0,10
0,67,120,2
0,70,120,0
0,67,0,4
0,70,0,1
0,58,0,3
0,62,0,1
0,67,0,0
0,39,120,3
0,58,120,0
0,61,120,0
0,65,120,0
0,68,120,0
0,65,120,0
0,58,120,1
0,61,120,0
0,68,120,0
0,65,127,2
0,70,0,2
0,58,0,1
0,61,0,1
0,65,0,1
0,65,0,0
0,68,0,3
0,65,127,7
0,65,0,17
0,65,127,13
0,65,0,14
0,63,127,9
0,63,0,18
0,66,127,7
0,68,120,2
0,72,120,0
0,51,100,0
0,51,0,0
0,72,0,2
0,68,0,0
0,51,100,7
0,51,0,0
0,51,100,1
0,51,0,0
0,65,127,17
0,66,0,3
0,65,0,12
0,63,127,0
0,68,120,17
0,68,0,7
0,39,0,1
0,68,0,48
0,61,0,2
0,58,0,1
0,65,0,1
0,63,0,4
0,39,120,2
0,58,120,0
0,62,120,0
0,67,120,0
0,58,120,0
0,62,120,0
0,67,120,0
0,58,0,18
0,62,0,1
0,67,0,2
0,72,127,23
0,67,120,4
0,74,120,0
0,72,0,4
0,70,127,1
0,59,100,0
0,59,0,0
0,59,100,11
0,59,0,0
0,59,100,8
0,59,0,0
0,67,0,2
0,70,120,0
0,70,0,2
0,70,0,1
0,67,127,0
0,39,0,4
0,67,120,2
0,67,0,4
0,74,0,0
0,67,0,6
0,65,127,1
0,58,120,10
0,58,0,4
0,65,0,11
0,63,127,5
0,67,0,12
0,62,0,2
0,58,0,2
0,63,0,4
0,39,120,3
0,58,120,0
0,61,120,0
0,65,120,0
0,68,120,0
0,58,120,0
0,61,120,0
0,65,120,0
0,68,120,1
0,61,127,0
0,58,0,1
0,61,0,3
0,65,0,1
0,68,0,2
0,65,120,10
0,72,120,0
0,50,127,0
0,50,0,0
0,65,0,6
0,72,0,1
0,50,127,6
0,50,0,0
0,51,100,3
0,51,0,0
0,51,100,3
0,51,0,0
0,51,100,4
0,51,0,0
0,47,127,2
0,47,0,0
0,61,0,19
0,61,127,8
0,47,127,0
0,47,0,0
0,39,0,20
0,39,120,4
0,61,120,0
0,65,120,0
0,68,120,0
0,43,127,0
0,43,0,0
0,61,0,4
0,65,0,1
0,68,0,1
0,39,0,2
0,41,127,1
0,41,0,0
0,60,127,1
0,61,0,1
0,60,0,5
0,58,127,1
0,39,120,1
0,58,120,0
0,62,120,0
0,67,120,0
0,27,120,0
0,35,120,0
0,35,0,0
0,70,120,2
0,70,110,0
0,58,0,3
0,65,0,2
0,27,0,0
0,61,0,2
0,67,120,0
0,67,110,0
0,68,0,1
0,65,120,8
0,65,110,0
0,27,120,6
0,82,120,0
0,35,120,0
0,35,0,0
0,82,70,0
0,82,0,0
0,62,120,2
0,62,110,0
0,69,70,4
0,69,0,0
0,82,70,5
0,82,0,0
0,62,0,2
0,58,0,0
0,69,70,0
0,69,0,0
0,67,0,2
0,27,0,2
0,40,110,0
0,40,0,0
0,82,70,0
0,82,0,0
0,69,70,5
0,69,0,0
0,27,120,5
0,35,120,0
0,35,0,0
0,46,90,0
0,46,0,0
0,82,70,0
0,82,0,0
0,27,0,1
0,62,120,2
0,67,120,0
0,70,120,0
0,27,120,0
0,35,120,0
0,35,0,0
0,44,90,0
0,44,0,0
0,69,70,1
0,69,0,0
0,62,0,2
0,70,0,1
0,67,0,0
0,82,70,3
0,82,0,0
0,69,70,5
0,69,0,0
0,82,70,3
0,82,0,0
0,58,0,1
0,69,70,6
0,69,0,0
0,39,0,4
0,27,0,4
0,40,110,2
0,40,0,0
0,82,70,0
0,82,0,0
0,69,70,4
0,69,0,0
0,70,95,0
0,82,106,0
0,82,70,5
0,82,0,0
0,72,88,0
0,84,104,0
0,70,0,1
0,82,0,1
0,67,0,1
0,65,0,0
0,67,0,0
0,65,0,0
0,70,0,1
0,70,0,0
0,62,0,1
0,62,0,0
0,51,120,3
0,58,120,0
0,61,120,0
0,65,120,0
0,68,120,0
0,84,0,1
0,72,0,0
0,27,120,0
0,35,120,0
0,35,0,0
0,46,90,0
0,46,0,0
0,69,70,0
0,69,0,0
0,75,117,0
0,87,94,0
0,27,0,8
0,27,120,3
0,35,120,0
0,35,0,0
0,44,90,0
0,44,0,0
0,82,70,0
0,82,0,0
0,75,0,1
0,69,70,2
0,69,0,0
0,72,97,0
0,84,88,1
0,87,0,1
0,82,70,22
0,82,0,0
0,58,0,4
0,61,0,0
0,65,0,4
0,68,0,4
0,69,70,0
0,69,0,0
0,27,0,9
0,40,110,15
0,40,0,0
0,82,70,0
0,82,0,0
0,69,70,24
0,69,0,0
0,82,70,24
0,82,0,0
0,27,120,16
0,35,120,0
0,35,0,0
0,44,90,0
0,44,0,0
0,69,70,0
0,69,0,0
0,72,0,1
0,84,0,0
0,80,120,23
0,82,70,0
0,82,0,0
0,82,0,1
0,39,120,23
0,65,120,0
0,72,120,0
0,69,70,0
0,69,0,0
0,65,0,6
0,72,0,0
0,82,70,18
0,82,0,0
0,27,0,12
0,69,70,12
0,69,0,0
0,68,120,5
0,40,110,0
0,40,0,0
0,82,70,1
0,82,0,0
0,68,0,8
0,69,70,15
0,69,0,0
0,65,120,24
0,82,70,0
0,82,0,0
0,51,0,6
0,65,0,1
0,39,0,2
0,27,120,15
0,35,120,0
0,35,0,0
0,46,90,0
0,46,0,0
0,69,70,0
0,69,0,0
0,70,120,3
0,70,110,0
0,27,0,4
0,67,120,2
0,67,110,0
0,65,120,9
0,65,110,0
0,39,120,6
0,51,120,0
0,62,120,0
0,67,120,0
0,27,120,0
0,79,120,0
0,35,120,0
0,35,0,0
0,44,90,1
0,44,0,0
0,82,70,0
0,82,0,0
0,62,120,1
0,62,110,0
0,80,0,4
0,69,70,12
0,69,0,0
0,62,0,2
0,67,0,4
0,82,70,2
0,82,0,0
0,69,70,24
0,69,0,0
0,27,0,11
0,40,110,10
0,40,0,0
0,82,70,0
0,82,0,0
0,69,70,20
0,69,0,0
0,27,120,1
0,35,120,0
0,35,0,0
0,46,90,0
0,46,0,0
0,82,70,0
0,82,0,0
0,27,0,8
0,62,120,16
0,70,120,0
0,27,120,0
0,35,120,0
0,35,0,0
0,44,90,1
0,44,0,0
0,69,70,0
0,69,0,0
0,62,0,11
0,70,0,1
0,82,70,12
0,82,0,0
0,69,70,23
0,69,0,0
0,82,70,24
0,82,0,0
0,67,120,24
0,69,70,0
0,69,0,0
0,27,0,8
0,67,0,2
0,40,110,14
0,40,0,0
0,82,70,0
0,82,0,0
0,39,0,22
0,51,0,1
0,62,120,1
0,69,70,0
0,69,0,0
0,70,95,0
0,82,107,0
0,62,0,8
0,82,70,16
0,82,0,0
0,72,91,0
0,84,97,0
0,70,0,1
0,82,0,0
0,65,0,7
0,70,0,0
0,67,0,0
0,67,0,0
0,70,0,0
0,65,0,0
0,62,0,1
0,62,0,0
0,79,0,13
0,39,120,2
0,51,120,0
0,58,120,0
0,61,120,0
0,65,120,0
0,68,120,0
0,27,120,0
0,80,120,0
0,35,120,0
0,35,0,0
0,84,0,1
0,72,0,0
0,46,90,0
0,46,0,0
0,69,70,0
0,69,0,0
0,75,117,0
0,87,102,0
0,27,0,6
0,27,120,16
0,35,120,0
0,35,0,0
0,44,90,0
0,44,0,0
0,82,70,0
0,82,0,0
0,69,70,17
0,69,0,0
0,84,92,0
0,87,0,1
0,75,0,0
0,72,103,0
0,82,70,23
0,82,0,0
0,61,0,2
0,58,0,3
0,68,0,2
0,65,0,0
0,69,70,17
0,69,0,0
0,39,0,2
0,51,0,4
0,40,110,18
0,40,0,0
0,82,70,0
0,82,0,0
0,27,0,3
0,69,70,21
0,69,0,0
0,27,120,24
0,35,120,0
0,35,0,0
0,46,90,0
0,46,0,0
0,82,70,0
0,82,0,0
0,27,0,8
0,27,120,16
0,35,120,0
0,35,0,0
0,44,90,0
0,44,0,0
0,84,0,1
0,72,0,0
0,69,70,0
0,69,0,0
0,80,0,23
0,82,120,0
0,82,70,0
0,82,0,0
0,69,70,24
0,69,0,0
0,82,70,24
0,82,0,0
0,69,70,24
0,69,0,0
0,27,0,8
0,39,120,16
0,40,110,0
0,40,0,0
0,82,70,0
0,82,0,0
0,39,0,14
0,39,120,10
0,51,120,0
0,61,120,0
0,65,120,0
0,68,120,0
0,37,120,0
0,35,120,0
0,35,0,0
0,50,127,0
0,50,0,0
0,44,90,1
0,44,0,0
0,69,70,0
0,69,0,0
0,68,0,4
0,61,0,1
0,65,0,0
0,51,0,1
0,39,0,0
0,37,0,4
0,34,120,7
0,45,127,0
0,45,0,0
0,46,90,0
0,46,0,0
0,82,70,0
0,82,0,0
0,34,0,20
0,82,0,4
0,39,120,0
0,51,120,0
0,58,120,0
0,62,120,0
0,67,120,0
0,27,120,0
0,79,120,0
0,35,120,0
0,35,0,0
0,44,90,1
0,44,0,0
0,69,70,0
0,69,0,0
0,82,70,23
0,82,0,0
0,69,70,24
0,69,0,0
0,75,125,1
0,82,70,2
0,82,0,0
0,27,0,1
0,75,0,3
0,75,125,7
0,69,70,3
0,69,0,0
0,75,0,13
0,75,125,1
0,40,110,3
0,40,0,0
0,82,70,0
0,82,0,0
0,51,0,8
0,39,0,5
0,62,0,0
0,58,0,0
0,67,0,1
0,58,120,1
0,63,120,0
0,67,120,0
0,67,0,1
0,69,70,0
0,69,0,0
0,75,0,11
0,75,125,4
0,82,70,4
0,82,0,0
0,75,0,6
0,74,125,1
0,48,120,4
0,70,120,0
0,74,120,0
0,27,120,0
0,35,120,0
0,35,0,0
0,58,0,1
0,46,90,0
0,46,0,0
0,69,70,0
0,69,0,0
0,27,0,4
0,36,120,4
0,35,120,0
0,35,0,0
0,42,90,0
0,42,0,0
0,82,70,0
0,82,0,0
0,74,0,12
0,70,125,3
0,69,70,3
0,69,0,0
0,36,0,6
0,82,70,1
0,82,0,0
0,70,0,8
0,70,125,7
0,69,70,1
0,69,0,0
0,40,110,5
0,40,0,0
0,82,70,0
0,82,0,0
0,70,0,10
0,67,125,1
0,69,70,5
0,69,0,0
0,79,0,2
0,82,70,7
0,82,0,0
0,48,0,7
0,36,120,17
0,35,120,0
0,35,0,0
0,46,90,0
0,46,0,0
0,69,70,0
0,69,0,0
0,36,0,6
0,63,0,2
0,67,0,4
0,70,0,3
0,74,0,0
0,67,125,8
0,44,120,1
0,56,120,0
0,60,120,0
0,63,120,0
0,67,120,0
0,32,120,0
0,35,120,1
0,35,0,0
0,42,90,0
0,42,0,0
0,82,70,0
0,82,0,0
0,69,70,5
0,69,0,0
0,67,0,1
0,68,125,0
0,82,70,1
0,82,0,0
0,67,0,6
0,32,0,0
0,65,125,3
0,68,0,1
0,65,120,2
0,69,70,0
0,69,0,0
0,40,110,7
0,40,0,0
0,82,70,0
0,82,0,0
0,69,70,8
0,69,0,0
0,82,70,5
0,82,0,0
0,27,120,2
0,35,120,0
0,35,0,0
0,46,90,0
0,46,0,0
0,69,70,0
0,69,0,0
0,27,0,4
0,32,120,6
0,35,120,0
0,35,0,0
0,42,90,0
0,42,0,0
0,82,70,0
0,82,0,0
0,72,120,1
0,75,120,0
0,69,70,0
0,69,0,0
0,72,0,5
0,75,0,3
0,32,0,1
0,82,70,8
0,82,0,0
0,44,0,1
0,72,120,9
0,79,120,0
0,69,70,0
0,69,0,0
0,79,0,4
0,72,0,0
0,40,110,16
0,40,0,0
0,82,70,0
0,82,0,0
0,65,0,3
0,44,120,6
0,72,120,0
0,75,120,0
0,69,70,0
0,69,0,0
0,44,0,5
0,82,70,0
0,82,0,0
0,44,120,11
0,77,120,0
0,27,120,0
0,35,120,0
0,35,0,0
0,46,90,0
0,46,0,0
0,69,70,0
0,69,0,0
0,75,0,1
0,27,0,6
0,32,120,4
0,35,120,0
0,35,0,0
0,42,90,0
0,42,0,0
0,82,70,0
0,82,0,0
0,69,70,4
0,69,0,0
0,65,125,12
0,82,70,0
0,82,0,0
0,65,0,13
0,32,0,0
0,65,125,9
0,69,70,2
0,69,0,0
0,65,0,11
0,65,125,11
0,40,110,2
0,40,0,0
0,82,70,0
0,82,0,0
0,69,70,24
0,69,0,0
0,65,0,16
0,67,125,2
0,82,70,3
0,82,0,0
0,77,0,9
0,56,0,1
0,60,0,1
0,65,0,1
0,63,0,1
0,44,0,1
0,67,0,0
0,72,0,5
0,68,125,2
0,46,120,3
0,60,120,0
0,63,120,0
0,70,120,0
0,27,120,0
0,35,120,1
0,35,0,0
0,46,90,0
0,46,0,0
0,69,70,0
0,69,0,0
0,27,0,4
0,34,120,8
0,35,120,0
0,35,0,0
0,42,90,0
0,42,0,0
0,82,70,0
0,82,0,0
0,70,125,7
0,68,0,2
0,69,70,2
0,69,0,0
0,82,70,0
0,82,0,0
0,65,125,11
0,70,0,1
0,34,0,2
0,69,70,2
0,69,0,0
0,68,120,21
0,40,110,0
0,40,0,0
0,82,70,1
0,82,0,0
0,69,70,23
0,69,0,0
0,63,125,1
0,65,0,1
0,82,70,0
0,82,0,0
0,60,0,6
0,67,125,1
0,63,0,2
0,34,120,1
0,35,120,0
0,35,0,0
0,46,90,0
0,46,0,0
0,69,70,0
0,69,0,0
0,34,0,6
0,63,0,8
0,70,0,0
0,46,0,3
0,68,0,0
0,51,120,7
0,58,120,0
0,62,120,0
0,67,120,0
0,27,120,0
0,35,120,0
0,35,0,0
0,42,90,0
0,42,0,0
0,82,70,1
0,82,0,0
0,69,70,23
0,69,0,0
0,82,70,24
0,82,0,0
0,69,70,7
0,69,0,0
0,27,0,1
0,40,110,6
0,40,0,0
0,82,70,0
0,82,0,0
0,69,70,1
0,69,0,0
0,82,70,1
0,82,0,0
0,67,0,2
0,27,120,1
0,35,120,0
0,35,0,0
0,46,90,0
0,46,0,0
0,69,70,0
0,69,0,0
0,59,120,2
0,59,110,0
0,63,120,3
0,63,110,0
0,27,0,2
0,70,120,3
0,70,110,0
0,66,120,1
0,66,110,0
0,73,120,4
0,73,110,0
0,51,0,2
0,58,0,0
0,47,120,0
0,35,120,0
0,35,120,1
0,35,0,0
0,42,90,0
0,42,0,0
0,82,70,0
0,82,0,0
0,63,120,0
0,68,120,0
0,73,120,0
0,62,0,1
0,67,0,1
0,35,0,10
0,63,120,11
0,66,120,0
0,70,120,0
0,35,120,0
0,35,120,1
0,35,0,0
0,69,70,0
0,69,0,0
0,82,70,1
0,82,0,0
0,70,0,5
0,70,0,0
0,35,0,1
0,73,0,1
0,73,0,0
0,66,0,11
0,66,0,0
0,63,0,1
0,63,0,0
0,59,0,1
0,59,0,0
0,35,120,2
0,69,70,0
0,69,0,0
0,35,0,10
0,70,0,3
0,63,0,1
0,66,0,2
0,47,0,0
0,71,120,6
0,71,110,0
0,46,120,2
0,34,120,0
0,82,70,0
0,82,0,0
0,71,120,0
0,73,0,1
0,34,0,3
0,60,120,2
0,63,120,0
0,70,120,0
0,46,120,0
0,35,120,0
0,35,0,0
0,40,110,1
0,40,0,0
0,44,90,0
0,44,0,0
0,50,127,0
0,50,0,0
0,69,70,0
0,69,0,0
0,63,0,6
0,60,0,0
0,70,0,1
0,46,0,10
0,34,120,6
0,45,127,0
0,45,0,0
0,46,90,0
0,46,0,0
0,82,70,0
0,82,0,0
0,34,0,17
0,46,0,1
0,71,0,4
0,71,0,0
0,68,0,0
0,71,0,0
0,65,120,1
0,67,120,0
0,70,120,0
0,65,110,0
0,67,110,0
0,70,110,0
0,51,120,1
0,58,120,0
0,62,120,0
0,63,120,0
0,67,120,0
0,27,120,0
0,35,120,0
0,35,0,0
0,44,90,0
0,44,0,0
0,69,70,1
0,69,0,0
0,62,120,0
0,67,120,0
0,70,120,0
0,82,70,23
0,82,0,0
0,70,0,9
0,70,0,0
0,67,0,0
0,67,0,0
0,65,0,0
0,65,0,0
