track,note,velocity,time
1,42,112,368
1,42,112,372
1,42,112,372
1,42,112,372
1,35,112,9588
1,35,68,1332
1,35,112,180
1,35,95,1524
1,35,43,1332
1,35,124,180
1,35,95,1524
1,35,68,1332
1,35,124,180
1,35,112,1524
1,35,43,1332
1,35,112,180
1,37,116,756
1,35,112,756
1,37,100,756
1,35,68,564
1,35,112,180
1,37,100,756
1,35,95,756
1,37,116,756
1,35,43,564
1,35,124,180
1,37,100,756
1,35,95,756
1,37,116,756
1,35,68,564
1,35,124,180
1,37,116,756
1,35,112,756
1,37,116,756
1,35,43,564
1,35,112,180
1,37,116,756
1,35,112,756
1,37,100,756
1,35,68,564
1,35,112,180
1,37,100,756
1,35,95,756
1,37,116,756
1,35,43,564
1,35,124,180
1,37,100,756
1,35,95,756
1,37,116,756
1,35,68,564
1,35,124,180
1,37,116,756
1,35,112,756
1,37,116,756
1,35,43,564
1,35,112,180
1,37,116,756
1,35,112,756
1,37,100,756
1,35,68,564
1,35,112,180
1,37,100,756
1,35,95,756
1,37,116,756
1,35,43,564
1,51,77,180
1,35,124,0
1,42,100,372
1,42,100,372
1,38,124,0
1,42,61,372
1,35,59,180
1,42,116,180
1,35,124,0
1,42,61,372
1,42,116,372
1,38,124,0
1,42,61,372
1,42,116,372
1,35,112,0
1,42,40,372
1,42,100,372
1,38,124,0
1,42,44,372
1,35,68,180
1,42,116,180
1,35,124,0
1,42,54,372
1,42,116,372
1,38,124,0
1,42,48,372
1,42,83,372
1,35,124,0
1,42,29,372
1,42,116,372
1,38,124,0
1,42,31,372
1,35,59,180
1,42,116,180
1,35,124,0
1,42,48,372
1,42,100,372
1,38,124,0
1,42,48,372
1,42,116,372
1,35,124,0
1,42,40,372
1,42,116,372
1,38,124,0
1,42,48,372
1,35,80,180
1,42,116,180
1,35,124,0
1,42,100,372
1,42,83,372
1,38,124,0
1,38,112,180
1,41,124,180
1,35,112,180
1,49,82,180
1,35,124,0
1,42,100,372
1,42,116,372
1,38,124,0
1,42,116,372
1,35,95,180
1,42,116,180
1,35,124,0
1,42,54,372
1,42,116,372
1,38,124,0
1,42,61,372
1,35,52,180
1,42,116,180
1,35,124,0
1,42,48,372
1,42,116,372
1,38,127,0
1,42,54,372
1,42,100,372
1,35,124,0
1,42,54,372
1,42,116,372
1,38,124,0
1,42,71,372
1,35,68,180
1,42,116,180
1,35,124,0
1,42,40,372
1,42,100,372
1,38,127,0
1,42,44,372
1,42,116,372
1,35,124,0
1,42,54,372
1,42,116,372
1,38,124,0
1,42,22,372
1,35,68,180
1,42,116,180
1,35,124,0
1,42,54,372
1,42,116,372
1,38,124,0
1,42,44,372
1,42,83,372
1,35,124,0
1,42,48,372
1,42,100,372
1,38,124,0
1,42,44,372
1,35,112,180
1,49,36,180
1,35,124,0
1,38,112,564
1,38,124,180
1,45,112,180
1,41,112,180
1,35,112,180
1,49,82,180
1,35,124,0
1,51,65,564
1,51,82,180
1,38,112,0
1,51,82,372
1,35,112,180
1,51,98,180
1,35,124,0
1,51,82,372
1,51,98,372
1,38,124,0
1,51,82,372
1,35,112,180
1,51,98,180
1,35,124,0
1,51,65,372
1,51,98,372
1,38,124,0
1,51,82,372
1,35,47,180
1,51,98,180
1,35,124,0
1,51,65,372
1,51,98,372
1,38,124,0
1,51,82,372
1,49,98,372
1,35,124,0
1,51,43,372
1,51,98,372
1,38,124,0
1,51,53,372
1,35,68,180
1,51,98,180
1,35,124,0
1,51,3,372
1,51,98,372
1,38,124,0
1,51,43,372
1,35,112,180
1,51,98,180
1,35,124,0
1,51,30,372
1,51,82,372
1,38,124,0
1,51,43,372
1,35,80,180
1,51,82,180
1,35,124,0
1,51,30,372
1,35,68,180
1,51,82,180
1,38,95,0
1,51,36,372
1,35,32,180
1,51,65,180
1,35,124,0
1,51,30,372
1,51,53,372
1,51,36,372
1,35,59,180
1,51,53,180
1,35,112,0
1,51,22,372
1,51,82,372
1,51,43,372
1,51,82,372
1,35,124,0
1,51,82,756
1,51,82,756
1,51,98,756
1,51,36,756
1,49,82,756
1,35,124,0
1,49,98,372
1,35,124,0
1,49,98,372
1,35,124,0
1,38,124,756
1,35,59,564
1,51,82,180
1,35,124,0
1,51,98,756
1,51,98,756
1,51,82,756
1,51,82,756
1,49,98,756
1,35,124,0
1,49,98,372
1,35,112,0
1,49,98,372
1,35,124,0
1,51,98,756
1,38,124,0
1,49,65,756
1,35,124,0
1,49,65,372
1,35,124,0
1,49,98,372
1,35,124,0
1,49,82,372
1,35,124,0
1,49,98,372
1,35,124,0
1,49,98,372
1,35,124,0
1,49,82,372
1,35,124,0
1,49,98,372
1,35,124,0
1,45,127,8820
1,41,124,372
1,49,98,372
1,35,124,0
1,51,43,372
1,51,98,372
1,38,124,0
1,51,82,372
1,35,68,180
1,51,98,180
1,35,124,0
1,51,82,372
1,51,98,372
1,38,124,0
1,51,53,372
1,51,98,372
1,35,124,0
1,51,43,372
1,51,98,372
1,38,124,0
1,51,82,372
1,35,68,180
1,51,98,180
1,35,124,0
1,51,98,372
1,38,59,180
1,38,127,180
1,45,112,180
1,41,95,180
1,35,112,180
1,49,98,180
1,35,124,0
1,51,98,372
1,51,53,180
1,51,98,180
1,38,124,0
1,51,82,372
1,35,80,180
1,51,82,180
1,35,124,0
1,51,98,372
1,51,98,372
1,38,124,0
1,51,82,372
1,35,47,180
1,51,98,180
1,35,124,0
1,51,82,372
1,51,98,372
1,38,124,0
1,51,98,372
1,35,68,180
1,51,98,180
1,35,124,0
1,51,98,372
1,35,112,180
1,49,98,180
1,38,112,0
1,35,59,180
1,41,124,180
1,35,112,180
1,49,98,180
1,35,124,0
1,51,98,372
1,35,124,180
1,51,98,180
1,38,124,0
1,51,98,372
1,35,68,180
1,51,98,180
1,35,124,0
1,51,98,372
1,51,98,372
1,38,124,0
1,51,98,372
1,51,82,372
1,35,124,0
1,51,98,372
1,51,98,372
1,38,127,0
1,51,98,372
1,35,80,180
1,51,98,180
1,35,112,0
1,51,82,372
1,35,112,180
1,51,98,180
1,38,112,0
1,48,112,180
1,41,124,180
1,35,124,180
1,49,98,180
1,35,124,0
1,51,82,372
1,35,112,180
1,51,98,180
1,38,124,0
1,51,82,372
1,35,80,180
1,51,98,180
1,35,124,0
1,51,98,372
1,51,98,372
1,38,124,0
1,51,98,372
1,35,95,180
1,51,98,180
1,35,124,0
1,51,98,372
1,51,98,372
1,38,124,0
1,51,98,372
1,35,80,180
1,51,98,180
1,35,112,0
1,49,98,180
1,35,112,0
1,51,82,180
1,35,124,180
1,38,124,180
1,45,112,180
1,41,124,180
1,49,43,180
1,35,112,0
1,49,98,180
1,35,124,0
1,51,82,372
1,51,53,180
1,51,98,180
1,38,124,0
1,51,98,372
1,35,80,180
1,51,82,180
1,35,124,0
1,51,98,372
1,51,98,372
1,38,124,0
1,51,98,372
1,35,68,180
1,51,98,180
1,35,124,0
1,51,82,372
1,51,98,372
1,38,124,0
1,51,82,372
1,35,112,180
1,51,98,180
1,35,124,0
1,51,98,372
1,35,68,180
1,51,98,180
1,38,112,0
1,51,82,372
1,49,98,372
1,35,124,0
1,51,98,372
1,35,68,180
1,51,98,180
1,38,112,0
1,51,98,372
1,35,59,180
1,51,98,180
1,35,124,0
1,51,98,372
1,51,98,372
1,38,124,0
1,51,98,372
1,51,98,372
1,35,124,0
1,51,82,372
1,51,98,372
1,38,124,0
1,51,82,372
1,35,68,180
1,49,82,180
1,35,124,0
1,49,98,756
1,35,124,0
1,49,98,756
1,35,124,0
2,41,78,4
2,53,70,20
2,41,70,48
2,46,90,64
2,53,90,112
2,58,78,176
2,60,78,192
2,53,90,124
2,65,105,72
2,60,78,68
2,58,105,192
2,46,110,132
2,53,78,116
2,58,69,0
2,60,78,192
2,53,65,52
2,34,110,428
2,46,69,0
2,51,105,116
2,55,69,180
2,58,78,192
2,51,65,48
2,51,70,56
2,60,78,192
2,58,69,40
2,55,70,128
2,65,90,0
2,63,90,0
2,53,78,0
2,46,105,0
2,34,105,0
2,58,105,60
2,62,70,68
2,58,105,96
2,53,90,0
2,62,105,0
2,58,78,24
2,53,70,72
2,46,70,52
2,51,65,68
2,55,70,0
2,34,90,0
2,58,90,0
2,46,69,0
2,51,78,28
2,55,69,136
2,58,78,52
2,51,69,192
2,51,65,24
2,60,105,0
2,51,65,20
2,62,78,144
2,46,69,0
2,53,69,192
2,34,78,0
2,58,78,0
2,53,65,60
2,58,65,52
2,60,69,92
2,58,69,4
2,53,69,108
2,41,90,24
2,51,90,96
2,34,105,0
2,46,90,0
2,55,105,32
2,58,78,192
2,58,105,76
2,46,65,8
2,51,70,0
2,55,70,48
2,51,70,68
2,46,90,116
2,53,70,48
2,45,110,0
2,65,105,0
2,60,90,0
2,53,70,136
2,60,78,136
2,65,105,136
2,53,78,0
2,60,90,12
2,65,90,80
2,55,70,192
2,58,90,0
2,43,105,0
2,63,78,28
2,55,70,56
2,62,110,92
2,55,70,8
2,55,65,4
2,63,105,0
2,55,70,12
2,55,105,68
2,62,105,0
2,58,90,0
2,39,90,28
2,60,70,60
2,58,90,88
2,51,105,108
2,55,90,0
2,58,78,0
2,41,105,0
2,57,78,36
2,51,70,24
2,46,110,48
2,58,69,0
2,55,70,0
2,58,65,4
2,55,105,84
2,58,110,60
2,53,105,176
2,58,90,52
2,60,78,20
2,46,70,24
2,34,105,0
2,58,90,0
2,55,78,0
2,63,90,0
2,46,70,132
2,58,70,60
2,53,90,0
2,62,78,0
2,53,110,64
2,58,110,0
2,62,110,0
2,58,78,44
2,53,70,68
2,53,90,44
2,60,110,0
2,57,105,0
2,34,105,96
2,46,90,0
2,51,105,0
2,58,90,0
2,55,105,0
2,51,78,92
2,51,70,64
2,55,90,0
2,46,78,192
2,51,70,156
2,55,78,0
2,58,78,0
2,60,90,192
2,62,90,40
2,53,78,176
2,58,69,0
2,46,69,0
2,34,78,148
2,53,70,88
2,46,78,92
2,58,70,0
2,53,69,12
2,53,69,76
2,62,110,0
2,58,105,0
2,60,105,72
2,53,90,48
2,34,105,68
2,58,69,0
2,51,105,108
2,55,78,144
2,58,90,0
2,46,69,0
2,58,90,44
2,55,78,0
2,51,110,0
2,46,70,44
2,51,69,124
2,55,69,112
2,55,70,104
2,46,78,0
2,60,110,44
2,45,110,0
2,53,90,144
2,60,90,156
2,65,105,192
2,53,78,144
2,60,105,88
2,53,78,28
2,45,78,92
2,53,90,116
2,65,70,0
2,43,105,0
2,53,78,76
2,51,90,112
2,63,90,0
2,62,105,128
2,50,105,0
2,51,65,76
2,51,105,100
2,63,105,0
2,50,89,212
2,62,105,0
2,39,110,60
2,55,105,0
2,58,105,0
2,51,70,60
2,55,65,68
2,58,70,0
2,60,78,0
2,51,69,32
2,58,70,192
2,55,70,0
2,51,65,72
2,39,105,80
2,62,110,80
2,51,110,0
2,41,110,0
2,58,110,0
2,55,110,0
2,41,78,72
2,57,110,92
2,53,110,0
2,60,110,0
2,41,110,0
2,53,78,76
2,41,90,60
2,62,110,72
2,58,110,0
2,53,110,0
2,46,110,0
2,34,110,0
2,53,69,16
2,46,105,108
2,65,90,92
2,53,90,192
2,58,110,12
2,62,90,44
2,46,90,0
2,60,110,80
2,45,110,0
2,53,105,140
2,60,105,156
2,65,110,192
2,53,90,72
2,60,110,40
2,53,78,164
2,45,110,64
2,58,110,80
2,43,110,0
2,51,78,12
2,58,78,148
2,58,105,104
2,51,105,0
2,51,90,104
2,55,105,204
2,53,110,0
2,58,105,68
2,53,70,0
2,39,110,0
2,53,90,68
2,58,78,56
2,58,110,112
2,62,110,0
2,53,105,0
2,41,110,0
2,53,65,72
2,53,105,68
2,57,110,0
2,60,105,0
2,53,78,32
2,58,110,24
2,46,110,0
2,53,78,0
2,62,105,0
2,53,110,8
2,58,90,16
2,53,70,68
2,60,110,0
2,53,90,44
2,53,78,48
2,65,110,0
2,53,69,108
2,46,105,56
2,58,90,0
2,53,78,32
2,60,105,0
2,45,110,0
2,53,70,108
2,53,70,40
2,60,90,0
2,65,90,60
2,72,105,100
2,65,110,104
2,45,110,164
2,51,90,76
2,58,105,0
2,43,110,0
2,51,78,8
2,58,78,52
2,51,65,0
2,58,110,136
2,51,90,0
2,53,110,168
2,55,105,48
2,58,105,52
2,51,78,192
2,55,90,0
2,39,110,0
2,55,70,20
2,51,70,88
2,62,90,0
2,58,105,0
2,41,110,192
2,53,90,8
2,57,69,20
2,60,90,0
2,53,69,60
2,46,110,16
2,60,70,0
2,58,69,0
2,53,78,4
2,50,105,156
2,53,90,96
2,58,105,192
2,62,90,192
2,65,69,148
2,70,70,84
2,77,70,100
2,34,110,112
2,46,69,0
2,51,105,116
2,55,69,180
2,58,78,192
2,51,65,48
2,51,70,56
2,60,78,192
2,58,69,40
2,55,70,128
2,65,90,0
2,63,90,0
2,53,78,0
2,46,105,0
2,34,105,0
2,58,105,60
2,62,70,68
2,58,105,96
2,53,90,0
2,62,105,0
2,58,78,24
2,53,70,72
2,46,70,52
2,51,65,68
2,55,70,0
2,34,90,0
2,58,90,0
2,46,69,0
2,51,78,28
2,55,69,136
2,58,78,52
2,51,69,192
2,51,65,24
2,60,105,0
2,51,65,20
2,62,78,144
2,46,69,0
2,53,69,192
2,34,78,0
2,58,78,0
2,53,65,60
2,58,65,52
2,60,69,92
2,58,69,4
2,53,69,108
2,41,90,24
2,51,90,96
2,34,105,0
2,46,90,0
2,55,105,32
2,58,78,192
2,58,105,76
2,46,65,8
2,51,70,0
2,55,70,48
2,51,70,68
2,46,90,116
2,53,70,48
2,45,110,0
2,65,105,0
2,60,90,0
2,53,70,136
2,60,78,136
2,65,105,136
2,53,78,0
2,60,90,12
2,65,90,80
2,55,70,192
2,58,90,0
2,43,105,0
2,63,78,28
2,55,70,56
2,62,110,92
2,55,70,8
2,55,65,4
2,63,105,0
2,55,70,12
2,55,105,68
2,62,105,0
2,58,90,0
2,39,90,28
2,60,70,60
2,58,90,88
2,51,105,108
2,55,90,0
2,58,78,0
2,41,105,0
2,57,78,36
2,51,70,24
2,46,110,48
2,58,69,0
2,55,70,0
2,58,65,4
2,55,105,84
2,58,110,60
2,53,105,176
2,58,90,52
2,60,78,20
2,46,70,24
2,34,105,0
2,58,90,0
2,55,78,0
2,63,90,0
2,46,70,132
2,58,70,60
2,53,90,0
2,62,78,0
2,53,110,64
2,58,110,0
2,62,110,0
2,58,78,44
2,53,70,68
2,53,90,44
2,60,110,0
2,57,105,0
2,34,105,96
2,46,90,0
2,51,105,0
2,58,90,0
2,55,105,0
2,51,78,92
2,51,70,64
2,55,90,0
2,46,78,192
2,51,70,156
2,55,78,0
2,58,78,0
2,60,90,192
2,62,90,40
2,53,78,176
2,58,69,0
2,46,69,0
2,34,78,148
2,53,70,88
2,46,78,92
2,58,70,0
2,53,69,12
2,53,69,76
2,62,110,0
2,58,105,0
2,60,105,72
2,53,90,48
2,34,105,68
2,58,69,0
2,51,105,108
2,55,78,144
2,58,90,0
2,46,69,0
2,58,90,44
2,55,78,0
2,51,110,0
2,46,70,44
2,51,69,124
2,55,69,112
2,55,70,104
2,46,78,0
2,60,110,44
2,45,110,0
2,53,90,144
2,60,90,156
2,65,105,192
2,53,78,144
2,60,105,88
2,53,78,28
2,45,78,92
2,53,90,116
2,65,70,0
2,43,105,0
2,53,78,76
2,51,90,112
2,63,90,0
2,62,105,128
2,50,105,0
2,51,65,76
2,51,105,100
2,63,105,0
2,50,89,212
2,62,105,0
2,39,110,60
2,55,105,0
2,58,105,0
2,51,70,60
2,55,65,68
2,58,70,0
2,60,78,0
2,51,69,32
2,58,70,192
2,55,70,0
2,51,65,72
2,39,105,80
2,62,110,80
2,51,110,0
2,41,110,0
2,58,110,0
2,55,110,0
2,41,78,72
2,57,110,92
2,53,110,0
2,60,110,0
2,41,110,0
2,53,78,76
2,41,90,60
2,62,110,72
2,58,110,0
2,53,110,0
2,46,110,0
2,34,110,0
2,53,69,16
2,46,105,108
2,65,90,92
