track,note,velocity,time
1,24,94,578
1,20,87,4
1,22,97,4
1,24,110,72
1,36,102,6120
1,48,72,56
1,48,92,54
1,36,106,96
1,48,73,18
1,48,80,66
1,36,106,96
1,48,78,8
1,48,95,64
1,36,108,4
1,48,66,22
1,48,90,62
1,32,104,4
1,44,68,4
1,44,89,74
1,32,110,18
1,44,61,30
1,44,85,76
1,34,110,12
1,46,70,26
1,46,89,74
1,34,107,10
1,46,68,26
1,46,85,70
1,36,102,22
1,48,72,56
1,48,92,54
1,36,106,96
1,48,73,18
1,48,80,66
1,36,106,96
1,48,78,8
1,48,95,64
1,36,108,4
1,48,66,22
1,48,90,62
1,32,104,4
1,44,68,4
1,44,89,74
1,32,110,18
1,44,61,30
1,44,85,76
1,34,110,12
1,46,70,26
1,46,89,74
1,34,107,10
1,46,68,26
1,46,85,70
1,36,102,22
1,48,72,56
1,48,92,54
1,36,106,96
1,48,73,18
1,48,80,66
1,36,106,96
1,48,78,8
1,48,95,64
1,36,108,4
1,48,66,22
1,48,90,62
1,32,104,4
1,44,68,4
1,44,89,74
1,32,110,18
1,44,61,30
1,44,85,76
1,34,110,12
1,46,70,26
1,46,89,74
1,34,107,10
1,46,68,26
1,46,85,70
1,36,102,22
1,48,72,56
1,48,92,54
1,36,106,96
1,48,73,18
1,48,80,66
1,36,106,96
1,48,78,8
1,48,95,64
1,36,108,4
1,48,66,22
1,48,90,62
1,36,102,1540
1,48,72,56
1,48,92,54
1,36,106,96
1,48,73,18
1,48,80,66
1,36,106,96
1,48,78,8
1,48,95,64
1,36,108,4
1,48,66,22
1,48,90,62
1,32,104,4
1,44,68,4
1,44,89,74
1,32,110,18
1,44,61,30
1,44,85,76
1,34,110,12
1,46,70,26
1,46,89,74
1,34,107,10
1,46,68,26
1,46,85,70
1,36,102,22
1,48,72,56
1,48,92,54
1,36,106,96
1,48,73,18
1,48,80,66
1,36,106,96
1,48,78,8
1,48,95,64
1,36,108,4
1,48,66,22
1,48,90,62
1,32,104,4
1,44,68,4
1,44,89,74
1,32,110,18
1,44,61,30
1,44,85,76
1,34,110,12
1,46,70,26
1,46,89,74
1,34,107,10
1,46,68,26
1,46,85,70
1,36,102,22
1,48,72,56
1,48,92,54
1,36,106,96
1,48,73,18
1,48,80,66
1,36,106,96
1,48,78,8
1,48,95,64
1,36,108,4
1,48,66,22
1,48,90,62
1,32,104,4
1,44,68,4
1,44,89,74
1,32,110,18
1,44,61,30
1,44,85,76
1,34,110,12
1,46,70,26
1,46,89,74
1,34,107,10
1,46,68,26
1,46,85,70
1,36,102,22
1,48,72,56
1,48,92,54
1,36,106,96
1,48,73,18
1,48,80,66
1,36,106,96
1,48,78,8
1,48,95,64
1,36,108,4
1,48,66,22
1,48,90,62
1,32,104,4
1,44,68,4
1,44,89,74
1,28,91,594
1,30,99,192
1,32,104,164
1,28,91,5622
1,30,99,192
1,32,104,164
1,33,95,54
1,28,89,264
1,33,92,234
1,28,78,64
1,30,81,54
1,33,95,66
1,32,88,74
1,28,90,226
1,32,82,210
1,28,86,256
1,32,87,198
1,28,87,238
1,32,85,224
1,28,88,76
1,30,90,54
1,32,83,82
1,33,101,70
1,28,95,258
1,33,98,208
1,28,88,78
1,30,86,62
1,32,92,54
1,33,95,48
1,28,89,264
1,33,92,234
1,28,78,64
1,30,81,54
1,33,95,66
1,32,88,74
1,28,90,226
1,32,82,210
1,28,86,256
1,32,87,198
1,28,87,238
1,32,85,224
1,28,88,76
1,30,90,54
1,32,83,82
1,33,101,70
1,28,95,258
1,33,98,208
1,28,88,78
1,30,86,62
1,32,92,54
1,33,95,48
1,28,89,264
1,33,92,234
1,28,78,64
1,30,81,54
1,33,95,66
1,32,88,74
1,28,90,226
1,32,82,210
1,28,86,256
1,32,87,198
1,28,87,238
1,32,85,224
1,28,88,76
1,30,90,54
1,32,83,82
1,33,101,70
1,28,95,258
1,33,98,208
1,28,88,78
1,30,86,62
1,32,92,54
1,33,95,48
1,28,89,264
1,33,92,234
1,28,78,64
1,30,81,54
1,33,95,66
1,32,88,74
1,28,90,226
1,32,82,210
1,28,86,256
1,32,87,198
1,28,87,238
1,32,85,224
1,28,88,76
1,30,90,54
1,32,83,82
1,33,101,70
1,28,95,258
1,33,98,208
1,28,88,78
1,30,86,62
1,32,92,54
1,33,95,48
1,28,89,264
1,33,92,234
1,28,78,64
1,30,81,54
1,33,95,66
1,32,88,74
1,28,90,226
1,32,82,210
1,28,86,256
1,32,87,198
1,28,87,238
1,32,85,224
1,28,88,76
1,30,90,54
1,32,83,82
1,33,101,70
1,28,95,258
1,33,98,208
1,28,88,78
1,30,86,62
1,32,92,54
1,33,95,48
1,28,89,264
1,33,92,234
1,28,78,64
1,30,81,54
1,33,95,66
1,32,88,74
1,28,90,226
1,32,82,210
1,28,86,256
1,32,87,198
1,28,87,238
1,32,85,224
1,28,88,76
1,30,90,54
1,32,83,82
1,24,114,70
1,24,110,136
1,20,116,24
1,22,123,2
1,24,104,40
1,20,119,14
1,22,113,4
1,36,102,76
1,48,72,56
1,48,92,54
1,36,106,96
1,48,73,18
1,48,80,66
1,36,106,96
1,48,78,8
1,48,95,64
1,36,108,4
1,48,66,22
1,48,90,62
1,32,104,4
1,44,68,4
1,44,89,74
1,32,110,18
1,44,61,30
1,44,85,76
1,34,110,12
1,46,70,26
1,46,89,74
1,34,107,10
1,46,68,26
1,46,85,70
1,36,102,22
1,48,72,56
1,48,92,54
1,36,106,96
1,48,73,18
1,48,80,66
1,36,106,96
1,48,78,8
1,48,95,64
1,36,108,4
1,48,66,22
1,48,90,62
1,32,104,4
1,44,68,4
1,44,89,74
1,32,110,18
1,44,61,30
1,44,85,76
1,34,110,12
1,46,70,26
1,46,89,74
1,34,107,10
1,46,68,26
1,46,85,70
1,36,102,22
1,48,72,56
1,48,92,54
1,36,106,96
1,48,73,18
1,48,80,66
1,36,106,96
1,48,78,8
1,48,95,64
1,36,108,4
1,48,66,22
1,48,90,62
1,32,104,4
1,44,68,4
1,44,89,74
1,32,110,18
1,44,61,30
1,44,85,76
1,34,110,12
1,46,70,26
1,46,89,74
1,34,107,10
1,46,68,26
1,46,85,70
1,36,102,22
1,48,72,56
1,48,92,54
1,36,106,96
1,48,73,18
1,48,80,66
1,36,106,96
1,48,78,8
1,48,95,64
1,36,108,4
1,48,66,22
1,48,90,62
1,36,102,1540
1,48,72,56
1,48,92,54
1,36,106,96
1,48,73,18
1,48,80,66
1,36,106,96
1,48,78,8
1,48,95,64
1,36,108,4
1,48,66,22
1,48,90,62
1,32,104,4
1,44,68,4
1,44,89,74
1,32,110,18
1,44,61,30
1,44,85,76
1,34,110,12
1,46,70,26
1,46,89,74
1,34,107,10
1,46,68,26
1,46,85,70
1,36,102,22
1,48,72,56
1,48,92,54
1,36,106,96
1,48,73,18
1,48,80,66
1,36,106,96
1,48,78,8
1,48,95,64
1,36,108,4
1,48,66,22
1,48,90,62
1,32,104,4
1,44,68,4
1,44,89,74
1,32,110,18
1,44,61,30
1,44,85,76
1,34,110,12
1,46,70,26
1,46,89,74
1,34,107,10
1,46,68,26
1,46,85,70
1,36,102,22
1,48,72,56
1,48,92,54
1,36,106,96
1,48,73,18
1,48,80,66
1,36,106,96
1,48,78,8
1,48,95,64
1,36,108,4
1,48,66,22
1,48,90,62
1,32,104,4
1,44,68,4
1,44,89,74
1,32,110,18
1,44,61,30
1,44,85,76
1,34,110,12
1,46,70,26
1,46,89,74
1,34,107,10
1,46,68,26
1,46,85,70
1,36,102,22
1,48,72,56
1,48,92,54
1,36,106,96
1,48,73,18
1,48,80,66
1,36,106,96
1,48,78,8
1,48,95,64
1,36,108,4
1,48,66,22
1,48,90,62
1,32,104,15364
1,44,68,4
1,44,89,74
1,32,110,18
1,44,61,30
1,44,85,76
1,34,110,12
1,46,70,26
1,46,89,74
1,34,107,10
1,46,68,26
1,46,85,70
1,36,102,22
1,48,72,56
1,48,92,54
1,36,106,96
1,48,73,18
1,48,80,66
1,36,106,96
1,48,78,8
1,48,95,64
1,36,108,4
1,48,66,22
1,48,90,62
1,32,104,4
1,44,68,4
1,44,89,74
1,32,110,18
1,44,61,30
1,44,85,76
1,34,110,12
1,46,70,26
1,46,89,74
1,34,107,10
1,46,68,26
1,46,85,70
1,36,102,22
1,48,72,56
1,48,92,54
1,36,106,96
1,48,73,18
1,48,80,66
1,36,106,96
1,48,78,8
1,48,95,64
1,36,108,4
1,48,66,22
1,48,90,62
1,32,104,4
1,44,68,4
1,44,89,74
1,32,110,18
1,44,61,30
1,44,85,76
1,34,110,12
1,46,70,26
1,46,89,74
1,34,107,10
1,46,68,26
1,46,85,70
1,36,102,22
1,48,72,56
1,48,92,54
1,36,106,96
1,48,73,18
1,48,80,66
1,36,106,96
1,48,78,8
1,48,95,64
1,36,108,4
1,48,66,22
1,48,90,62
1,32,104,4
1,44,68,4
1,44,89,74
1,32,110,18
1,44,61,30
1,44,85,76
1,34,110,12
1,46,70,26
1,46,89,74
1,34,107,10
1,46,68,26
1,46,85,70
1,36,102,22
1,48,72,56
1,48,92,54
1,36,106,96
1,48,73,18
1,48,80,66
1,36,106,96
1,48,78,8
1,48,95,64
1,36,108,4
1,48,66,22
1,48,90,62
1,36,102,1540
1,48,72,56
1,48,92,54
1,36,106,96
1,48,73,18
1,48,80,66
1,36,106,96
1,48,78,8
1,48,95,64
1,36,108,4
1,48,66,22
1,48,90,62
1,32,104,4
1,44,68,4
1,44,89,74
1,32,110,18
1,44,61,30
1,44,85,76
1,34,110,12
1,46,70,26
1,46,89,74
1,34,107,10
1,46,68,26
1,46,85,70
1,36,102,22
1,48,72,56
1,48,92,54
1,36,106,96
1,48,73,18
1,48,80,66
1,36,106,96
1,48,78,8
1,48,95,64
1,36,108,4
1,48,66,22
1,48,90,62
1,32,104,4
1,44,68,4
1,44,89,74
1,32,110,18
1,44,61,30
1,44,85,76
1,34,110,12
1,46,70,26
1,46,89,74
1,34,107,10
1,46,68,26
1,46,85,70
1,36,102,22
1,48,72,56
1,48,92,54
1,36,106,96
1,48,73,18
1,48,80,66
1,36,106,96
1,48,78,8
1,48,95,64
1,36,108,4
1,48,66,22
1,48,90,62
1,32,104,4
1,44,68,4
1,44,89,74
1,32,110,18
1,44,61,30
1,44,85,76
1,34,110,12
1,46,70,26
1,46,89,74
1,34,107,10
1,46,68,26
1,46,85,70
1,36,102,22
1,48,72,56
1,48,92,54
1,36,106,96
1,48,73,18
1,48,80,66
1,36,106,96
1,48,78,8
1,48,95,64
1,36,108,4
1,48,66,22
1,48,90,62
1,36,102,7684
1,48,72,56
1,48,92,54
1,36,106,96
1,48,73,18
1,48,80,66
1,36,106,96
1,48,78,8
1,48,95,64
1,36,108,4
1,48,66,22
1,48,90,62
1,32,104,4
1,44,68,4
1,44,89,74
1,32,110,18
1,44,61,30
1,44,85,76
1,34,110,12
1,46,70,26
1,46,89,74
1,34,107,10
1,46,68,26
1,46,85,70
1,36,102,22
1,48,72,56
1,48,92,54
1,36,106,96
1,48,73,18
1,48,80,66
1,36,106,96
1,48,78,8
1,48,95,64
1,36,108,4
1,48,66,22
1,48,90,62
1,32,104,4
1,44,68,4
1,44,89,74
1,32,110,18
1,44,61,30
1,44,85,76
1,34,110,12
1,46,70,26
1,46,89,74
1,34,107,10
1,46,68,26
1,46,85,70
1,36,102,22
1,48,72,56
1,48,92,54
1,36,106,96
1,48,73,18
1,48,80,66
1,36,106,96
1,48,78,8
1,48,95,64
1,36,108,4
1,48,66,22
1,48,90,62
1,32,104,4
1,44,68,4
1,44,89,74
1,32,110,18
1,44,61,30
1,44,85,76
1,34,110,12
1,46,70,26
1,46,89,74
1,34,107,10
1,46,68,26
1,46,85,70
1,36,102,22
1,48,72,56
1,48,92,54
1,36,106,96
1,48,73,18
1,48,80,66
1,36,106,96
1,48,78,8
1,48,95,64
1,36,108,4
1,48,66,22
1,48,90,62
1,36,102,1540
1,48,72,56
1,48,92,54
1,36,106,96
1,48,73,18
1,48,80,66
1,36,106,96
1,48,78,8
1,48,95,64
1,36,108,4
1,48,66,22
1,48,90,62
1,32,104,4
1,44,68,4
1,44,89,74
1,32,110,18
1,44,61,30
1,44,85,76
1,34,110,12
1,46,70,26
1,46,89,74
1,34,107,10
1,46,68,26
1,46,85,70
1,36,102,22
1,48,72,56
1,48,92,54
1,36,106,96
1,48,73,18
1,48,80,66
1,36,106,96
1,48,78,8
1,48,95,64
1,36,108,4
1,48,66,22
1,48,90,62
1,32,104,4
1,44,68,4
1,44,89,74
1,32,110,18
1,44,61,30
1,44,85,76
1,34,110,12
1,46,70,26
1,46,89,74
1,34,107,10
1,46,68,26
1,46,85,70
1,36,102,22
1,48,72,56
1,48,92,54
1,36,106,96
1,48,73,18
1,48,80,66
1,36,106,96
1,48,78,8
1,48,95,64
1,36,108,4
1,48,66,22
1,48,90,62
1,32,104,4
1,44,68,4
1,44,89,74
1,32,110,18
1,44,61,30
1,44,85,76
1,34,110,12
1,46,70,26
1,46,89,74
1,34,107,10
1,46,68,26
1,46,85,70
1,36,102,22
1,48,72,56
1,48,92,54
1,36,106,96
1,48,73,18
1,48,80,66
1,36,106,96
1,48,78,8
1,48,95,64
1,36,108,4
1,48,66,22
1,48,90,62
1,48,92,22
1,28,91,772
1,30,99,192
1,32,104,164
1,33,95,54
1,28,89,264
1,33,92,234
1,28,78,64
1,30,81,54
1,33,95,66
1,32,88,74
1,28,90,226
1,32,82,210
1,28,86,256
1,32,87,198
1,28,87,238
1,32,85,224
1,28,88,76
1,30,90,54
1,32,83,82
1,33,101,70
1,28,95,258
1,33,98,208
1,28,88,78
1,30,86,62
1,32,92,54
1,33,95,48
1,28,89,264
1,33,92,234
1,28,78,64
1,30,81,54
1,33,95,66
1,32,88,74
1,28,90,226
1,32,82,210
1,28,86,256
1,32,87,198
1,28,87,238
1,32,85,224
1,28,88,76
1,30,90,54
1,32,83,82
1,33,101,70
1,28,95,258
1,33,98,208
1,28,88,78
1,30,86,62
1,32,92,54
1,33,95,48
1,28,89,264
1,33,92,234
1,28,78,64
1,30,81,54
1,33,95,66
1,32,88,74
1,28,90,226
1,32,82,210
1,28,86,256
1,32,87,198
1,28,87,238
1,32,85,224
1,28,88,76
1,30,90,54
1,32,83,82
1,33,101,14
1,28,95,56
1,33,98,102
1,28,88,78
1,30,86,62
1,32,92,54
1,33,95,48
1,28,89,174
1,33,92,38
1,28,78,64
1,30,81,32
1,33,95,14
1,32,88,74
1,28,90,226
1,32,82,32
1,28,86,230
1,32,87,114
1,28,87,80
1,32,85,150
1,28,88,32
1,30,90,54
1,32,83,82
1,33,101,70
1,28,95,104
1,33,98,178
1,28,88,78
1,30,86,62
1,32,92,54
1,33,95,26
1,28,89,128
1,33,92,8
1,28,78,64
1,30,81,2
1,33,95,62
1,32,88,74
1,28,90,92
1,32,82,58
1,28,86,0
2,78,95,54872
2,81,111,0
2,78,99,132
2,81,111,0
2,78,87,40
2,81,103,0
2,81,111,134
2,78,103,2
2,78,79,38
2,81,99,2
2,78,111,134
2,81,115,2
2,80,115,6
2,78,107,22
2,76,71,30
2,78,79,54
2,80,95,50
2,76,86,10
2,76,111,132
2,80,107,0
2,80,103,56
2,76,59,4
2,80,111,140
2,76,95,2
2,74,103,16
2,78,111,0
2,74,91,22
2,76,67,92
2,78,80,0
2,80,107,64
2,76,91,120
2,80,107,2
2,80,91,44
2,76,83,2
2,76,107,142
2,80,107,0
2,76,83,50
2,80,95,0
2,76,111,142
2,80,115,0
2,78,103,56
2,76,79,0
2,74,83,8
2,76,87,18
2,78,95,32
2,74,71,6
2,74,107,158
2,78,115,0
2,74,83,38
2,78,99,2
2,74,87,148
2,78,111,0
2,73,99,30
2,76,87,2
2,78,107,50
2,76,87,38
2,78,103,30
2,80,95,48
2,78,71,56
2,81,115,4
2,78,95,122
2,81,115,0
2,78,79,52
2,81,87,0
2,78,95,124
2,81,115,0
2,81,87,44
2,78,79,2
