track,note,velocity,time
1,67,127,128
1,67,0,128
1,66,127,0
1,66,0,128
1,40,127,0
1,62,127,0
1,59,127,0
1,55,127,0
1,40,0,96
1,40,127,0
1,40,0,96
1,50,127,0
1,50,0,96
1,52,127,0
1,52,0,96
1,47,127,96
1,47,0,96
1,50,127,0
1,50,0,96
1,52,127,0
1,52,0,96
1,40,127,0
1,40,0,96
1,40,127,0
1,40,0,96
1,50,127,0
1,50,0,96
1,52,127,0
1,52,0,96
1,62,0,0
1,59,0,0
1,55,0,0
1,47,127,96
1,67,127,0
1,47,0,96
1,50,127,0
1,66,127,0
1,50,0,96
1,67,0,0
1,52,127,0
1,52,0,96
1,66,0,0
1,36,127,0
1,62,127,0
1,60,127,0
1,55,127,0
1,36,0,96
1,62,0,0
1,36,127,0
1,36,0,96
1,43,127,0
1,43,0,96
1,48,127,0
1,48,0,96
1,43,127,96
1,64,127,0
1,43,0,96
1,45,127,0
1,45,0,96
1,48,127,0
1,48,0,96
1,36,127,0
1,36,0,96
1,36,127,0
1,36,0,96
1,43,127,0
1,43,0,96
1,48,127,0
1,48,0,96
1,64,0,0
1,60,0,0
1,55,0,0
1,43,127,96
1,67,127,0
1,43,0,96
1,45,127,0
1,66,127,0
1,45,0,96
1,67,0,0
1,48,127,0
1,48,0,96
1,66,0,0
1,40,127,0
1,62,127,0
1,59,127,0
1,55,127,0
1,40,0,96
1,40,127,0
1,40,0,96
1,50,127,0
1,50,0,96
1,52,127,0
1,52,0,96
1,47,127,96
1,47,0,96
1,50,127,0
1,50,0,96
1,52,127,0
1,52,0,96
1,40,127,0
1,40,0,96
1,40,127,0
1,40,0,96
1,50,127,0
1,50,0,96
1,52,127,0
1,52,0,96
1,62,0,0
1,59,0,0
1,55,0,0
1,47,127,96
1,67,127,0
1,47,0,96
1,50,127,0
1,66,127,0
1,50,0,96
1,67,0,0
1,52,127,0
1,52,0,96
1,66,0,0
1,36,127,0
1,62,127,0
1,60,127,0
1,55,127,0
1,36,0,96
1,62,0,0
1,36,127,0
1,36,0,96
1,43,127,0
1,43,0,96
1,48,127,0
1,48,0,96
1,43,127,96
1,64,127,0
1,43,0,96
1,45,127,0
1,45,0,96
1,48,127,0
1,48,0,96
1,36,127,0
1,36,0,96
1,36,127,0
1,36,0,96
1,36,127,96
1,36,0,96
1,36,127,0
1,36,0,192
1,64,0,0
1,60,0,0
1,55,0,0
1,62,127,0
1,57,127,0
1,54,127,0
1,38,127,0
1,62,0,96
1,57,0,0
1,54,0,0
1,59,127,0
1,59,0,96
1,38,0,0
1,40,127,0
1,62,127,0
1,64,127,0
1,55,127,0
1,40,0,96
1,62,0,0
1,64,0,0
1,55,0,0
1,40,127,0
1,64,127,0
1,40,0,96
1,52,127,0
1,52,0,96
1,64,0,0
1,47,127,0
1,64,127,0
1,62,127,0
1,55,127,0
1,47,0,96
1,50,127,0
1,50,0,96
1,52,127,0
1,52,0,96
1,64,0,0
1,62,0,0
1,55,0,0
1,50,127,0
1,50,0,96
1,47,127,0
1,59,127,0
1,47,0,96
1,59,0,0
1,40,127,0
1,62,127,0
1,59,127,0
1,55,127,0
1,40,0,96
1,62,0,0
1,59,0,0
1,55,0,0
1,40,127,0
1,64,127,0
1,40,0,96
1,52,127,0
1,52,0,96
1,64,0,0
1,47,127,0
1,62,127,0
1,64,127,0
1,67,127,0
1,47,0,96
1,50,127,0
1,50,0,96
1,52,127,0
1,52,0,96
1,50,127,0
1,50,0,96
1,47,127,0
1,47,0,96
1,62,0,0
1,64,0,0
1,67,0,0
1,45,127,0
1,69,127,0
1,45,0,96
1,69,0,0
1,45,127,0
1,69,127,0
1,45,0,96
1,69,0,0
1,57,127,0
1,69,127,0
1,57,0,96
1,69,0,0
1,52,127,0
1,69,127,0
1,52,0,96
1,69,0,0
1,55,127,0
1,69,127,0
1,55,0,96
1,69,0,0
1,57,127,0
1,67,127,0
1,57,0,96
1,67,0,0
1,55,127,0
1,55,0,96
1,52,127,0
1,64,127,0
1,52,0,96
1,64,0,0
1,45,127,0
1,69,127,0
1,45,0,96
1,69,0,0
1,45,127,0
1,67,127,0
1,45,0,96
1,67,0,0
1,57,127,0
1,64,127,0
1,57,0,96
1,64,0,0
1,52,127,0
1,64,127,0
1,52,0,96
1,55,127,0
1,55,0,96
1,57,127,0
1,57,0,96
1,64,0,0
1,55,127,0
1,55,0,96
1,52,127,0
1,59,127,0
1,52,0,96
1,59,0,0
1,40,127,0
1,62,127,0
1,59,127,0
1,55,127,0
1,40,0,96
1,62,0,0
1,59,0,0
1,55,0,0
1,40,127,0
1,64,127,0
1,40,0,96
1,52,127,0
1,52,0,96
1,64,0,0
1,47,127,0
1,64,127,0
1,62,127,0
1,59,127,0
1,47,0,96
1,50,127,0
1,50,0,96
1,52,127,0
1,52,0,96
1,64,0,0
1,62,0,0
1,59,0,0
1,50,127,0
1,59,127,0
1,50,0,96
1,59,0,0
1,47,127,0
1,59,127,0
1,47,0,96
1,59,0,0
1,40,127,0
1,62,127,0
1,59,127,0
1,55,127,0
1,40,0,96
1,62,0,0
1,59,0,0
1,55,0,0
1,40,127,0
1,64,127,0
1,40,0,96
1,52,127,0
1,52,0,96
1,64,0,0
1,47,127,0
1,67,127,0
1,62,127,0
1,47,0,96
1,67,0,0
1,62,0,0
1,50,127,0
1,64,127,0
1,50,0,96
1,52,127,0
1,52,0,96
1,64,0,0
1,50,127,0
1,50,0,96
1,47,127,0
1,59,127,0
1,47,0,96
1,59,0,0
1,45,127,0
1,60,127,0
1,67,127,0
1,69,127,0
1,45,0,96
1,60,0,0
1,67,0,0
1,69,0,0
1,45,127,0
1,69,127,0
1,45,0,96
1,69,0,0
1,57,127,0
1,69,127,0
1,57,0,96
1,69,0,0
1,52,127,0
1,67,127,0
1,52,0,96
1,67,0,0
1,55,127,0
1,60,127,0
1,67,127,0
1,69,127,0
1,55,0,96
1,60,0,0
1,67,0,0
1,69,0,0
1,57,127,0
1,67,127,0
1,57,0,96
1,67,0,0
1,55,127,0
1,69,127,0
1,55,0,96
1,69,0,0
1,52,127,0
1,64,127,0
1,52,0,96
1,64,0,0
1,45,127,0
1,60,127,0
1,67,127,0
1,71,127,0
1,45,0,96
1,45,127,0
1,45,0,96
1,60,0,0
1,67,0,0
1,71,0,0
1,57,127,0
1,60,127,0
1,67,127,0
1,71,127,0
1,57,0,96
1,52,127,0
1,52,0,96
1,60,0,0
1,67,0,0
1,71,0,0
1,55,127,0
1,69,127,0
1,55,0,96
1,69,0,0
1,57,127,0
1,64,127,0
1,57,0,96
1,64,0,0
1,55,127,0
1,55,0,96
1,52,127,0
1,59,127,0
1,52,0,96
1,59,0,0
1,40,127,0
1,62,127,0
1,59,127,0
1,55,127,0
1,40,0,96
1,62,0,0
1,59,0,0
1,55,0,0
1,40,127,0
1,64,127,0
1,40,0,96
1,64,0,0
1,52,127,0
1,64,127,0
1,52,0,96
1,64,0,0
1,47,127,0
1,64,127,0
1,62,127,0
1,59,127,0
1,47,0,96
1,50,127,0
1,50,0,96
1,52,127,0
1,52,0,96
1,64,0,0
1,62,0,0
1,59,0,0
1,50,127,0
1,50,0,96
1,47,127,0
1,59,127,0
1,47,0,96
1,59,0,0
1,40,127,0
1,62,127,0
1,59,127,0
1,55,127,0
1,40,0,96
1,62,0,0
1,59,0,0
1,55,0,0
1,40,127,0
1,64,127,0
1,40,0,96
1,64,0,0
1,52,127,0
1,64,127,0
1,52,0,96
1,64,0,0
1,47,127,0
1,55,127,0
1,62,127,0
1,64,127,0
1,47,0,96
1,50,127,0
1,50,0,96
1,52,127,0
1,52,0,96
1,55,0,0
1,62,0,0
1,64,0,0
1,50,127,0
1,50,0,96
1,47,127,0
1,47,0,96
1,45,127,0
1,60,127,0
1,67,127,0
1,69,127,0
1,45,0,96
1,60,0,0
1,67,0,0
1,69,0,0
1,45,127,0
1,69,127,0
1,45,0,96
1,69,0,0
1,57,127,0
1,69,127,0
1,57,0,96
1,69,0,0
1,52,127,0
1,67,127,0
1,52,0,96
1,67,0,0
1,55,127,0
1,60,127,0
1,67,127,0
1,69,127,0
1,55,0,96
1,57,127,0
1,57,0,96
1,60,0,0
1,67,0,0
1,69,0,0
1,55,127,0
1,69,127,0
1,55,0,96
1,69,0,0
1,52,127,0
1,67,127,0
1,52,0,96
1,67,0,0
1,45,127,0
1,60,127,0
1,67,127,0
1,69,127,0
1,45,0,96
1,60,0,0
1,67,0,0
1,69,0,0
1,45,127,0
1,69,127,0
1,45,0,96
1,57,127,0
1,57,0,96
1,69,0,0
1,52,127,0
1,67,127,0
1,52,0,96
1,67,0,0
1,55,127,0
1,64,127,0
1,55,0,96
1,57,127,0
1,57,0,96
1,55,127,0
1,55,0,96
1,64,0,0
1,52,127,0
1,59,127,0
1,52,0,96
1,59,0,0
1,40,127,0
1,62,127,0
1,59,127,0
1,55,127,0
1,40,0,96
1,62,0,0
1,59,0,0
1,55,0,0
1,40,127,0
1,64,127,0
1,40,0,96
1,52,127,0
1,52,0,96
1,64,0,0
1,47,127,0
1,55,127,0
1,62,127,0
1,64,127,0
1,47,0,96
1,50,127,0
1,50,0,96
1,52,127,0
1,52,0,96
1,55,0,0
1,62,0,0
1,64,0,0
1,50,127,0
1,50,0,96
1,47,127,0
1,59,127,0
1,47,0,96
1,59,0,0
1,40,127,0
1,62,127,0
1,59,127,0
1,55,127,0
1,40,0,96
1,62,0,0
1,59,0,0
1,55,0,0
1,40,127,0
1,64,127,0
1,40,0,96
1,52,127,0
1,52,0,96
1,64,0,0
1,47,127,0
1,67,127,0
1,62,127,0
1,47,0,96
1,67,0,0
1,62,0,0
1,50,127,0
1,64,127,0
1,50,0,96
1,52,127,0
1,52,0,96
1,64,0,0
1,50,127,0
1,50,0,96
1,47,127,0
1,64,127,0
1,47,0,96
1,64,0,0
1,45,127,0
1,60,127,0
1,67,127,0
1,69,127,0
1,45,0,96
1,60,0,0
1,67,0,0
1,69,0,0
1,45,127,0
1,69,127,0
1,45,0,96
1,69,0,0
1,57,127,0
1,60,127,0
1,67,127,0
1,69,127,0
1,57,0,96
1,60,0,0
1,67,0,0
1,69,0,0
1,69,127,0
1,52,127,0
1,69,0,48
1,69,127,0
1,52,0,48
1,55,127,0
1,55,0,96
1,57,127,0
1,69,0,96
1,57,0,0
1,55,127,0
1,55,0,96
1,52,127,0
1,64,127,0
1,52,0,96
1,64,0,0
1,45,127,0
1,60,127,0
1,67,127,0
1,69,127,0
1,45,0,96
1,60,0,0
1,67,0,0
1,69,0,0
1,45,127,0
1,69,127,0
1,45,0,96
1,69,0,0
1,57,127,0
1,69,127,0
1,57,0,96
1,69,0,0
1,52,127,0
1,60,127,0
1,67,127,0
1,69,127,0
1,52,0,96
1,55,127,0
1,55,0,96
1,57,127,0
1,57,0,96
1,60,0,0
1,67,0,0
1,69,0,0
1,55,127,0
1,55,0,96
1,52,127,0
1,52,0,96
1,36,127,0
1,64,127,0
1,67,127,0
1,72,127,0
1,36,0,96
1,64,0,0
1,67,0,0
1,72,0,0
1,36,127,0
1,72,127,0
1,36,0,96
1,72,0,0
1,36,127,0
1,72,127,0
1,36,0,96
1,72,0,0
1,36,127,0
1,72,127,0
1,67,127,0
1,64,127,0
1,36,0,96
1,36,127,0
1,36,0,96
1,72,0,0
1,67,0,0
1,64,0,0
1,36,127,0
1,74,127,0
1,36,0,96
1,74,0,0
1,36,127,0
1,72,127,0
1,36,0,96
1,72,0,0
1,36,127,0
1,72,127,0
1,36,0,96
1,72,0,0
1,48,127,0
1,71,127,0
1,48,0,96
1,71,0,0
1,48,127,0
1,63,127,0
1,66,127,0
1,71,127,0
1,48,0,96
1,48,127,0
1,48,0,96
1,48,127,0
1,48,0,96
1,48,127,0
1,62,127,0
1,48,0,96
1,48,127,0
1,48,0,96
1,66,0,0
1,71,0,0
1,62,0,0
1,48,127,0
1,48,0,96
1,48,127,0
1,48,0,96
1,36,127,0
1,64,127,0
1,67,127,0
1,72,127,0
1,36,0,96
1,64,0,0
1,67,0,0
1,72,0,0
1,36,127,0
1,72,127,0
1,36,0,96
1,72,0,0
1,36,127,0
1,72,127,0
1,36,0,96
1,72,0,0
1,36,127,0
1,72,127,0
1,67,127,0
1,64,127,0
1,36,0,96
1,36,127,0
1,36,0,96
1,36,127,0
1,74,127,0
1,36,0,96
1,72,0,0
1,67,0,0
1,64,0,0
1,36,127,0
1,72,127,0
1,36,0,96
1,74,0,0
1,36,127,0
1,36,0,96
1,72,0,0
1,48,127,0
1,63,127,0
1,66,127,0
1,71,127,0
1,48,0,96
1,48,127,0
1,48,0,96
1,48,127,0
1,48,0,96
1,48,127,0
1,48,0,96
1,63,0,0
1,66,0,0
1,71,0,0
1,48,127,0
1,48,0,96
1,48,127,0
1,48,0,96
1,48,127,0
1,48,0,96
1,48,127,0
1,71,127,0
1,48,0,96
1,71,0,0
1,40,127,0
1,71,127,0
1,74,127,0
1,79,127,0
1,40,0,96
1,40,127,0
1,40,0,96
1,71,0,0
1,74,0,0
1,79,0,0
1,42,127,0
1,78,127,0
1,42,0,96
1,78,0,0
1,42,127,0
1,74,127,0
1,71,127,0
1,67,127,0
1,42,0,96
1,43,127,0
1,43,0,96
1,74,0,0
1,71,0,0
1,67,0,0
1,43,127,0
1,79,127,0
1,43,0,96
1,79,0,0
1,45,127,0
1,78,127,0
1,45,0,96
1,78,0,0
1,47,127,0
1,74,127,0
1,71,127,0
1,67,127,0
1,47,0,96
1,40,127,0
1,40,0,96
1,74,0,0
1,71,0,0
1,67,0,0
1,40,127,0
1,74,127,0
1,40,0,96
1,74,0,0
1,42,127,0
1,71,127,0
1,74,127,0
1,79,127,0
1,42,0,96
1,71,0,0
1,74,0,0
1,79,0,0
1,42,127,0
1,78,127,0
1,42,0,96
1,78,0,0
1,43,127,0
1,74,127,0
1,43,0,96
1,43,127,0
1,71,127,0
1,43,0,96
1,74,0,0
1,45,127,0
1,72,127,0
1,45,0,96
1,71,0,0
1,47,127,0
1,47,0,96
1,72,0,0
1,48,127,0
1,72,127,0
1,76,127,0
1,79,127,0
1,48,0,96
1,48,127,0
1,48,0,96
1,72,0,0
1,76,0,0
1,79,0,0
1,50,127,0
1,78,127,0
1,50,0,96
1,78,0,0
1,50,127,0
1,74,127,0
1,72,127,0
1,67,127,0
1,50,0,96
1,52,127,0
1,52,0,96
1,74,0,0
1,72,0,0
1,67,0,0
1,52,127,0
1,79,127,0
1,52,0,96
1,79,0,0
1,54,127,0
1,78,127,0
1,54,0,96
1,78,0,0
1,55,127,0
1,74,127,0
1,72,127,0
1,67,127,0
1,55,0,96
1,48,127,0
1,48,0,96
1,48,127,0
1,48,0,96
1,74,0,0
1,72,0,0
1,67,0,0
1,50,127,0
1,72,127,0
1,76,127,0
1,79,127,0
1,50,0,96
1,72,0,0
1,76,0,0
1,79,0,0
1,50,127,0
1,78,127,0
1,50,0,96
1,78,0,0
1,52,127,0
1,74,127,0
1,52,0,96
1,52,127,0
1,71,127,0
1,52,0,96
1,74,0,0
1,54,127,0
1,72,127,0
1,54,0,96
1,71,0,0
1,55,127,0
1,55,0,96
1,72,0,0
1,45,127,0
1,72,127,0
1,76,127,0
1,79,127,0
1,45,0,96
1,72,0,0
1,76,0,0
1,79,0,0
1,45,127,0
1,79,127,0
1,45,0,96
1,79,0,0
1,47,127,0
1,78,127,0
1,47,0,96
1,78,0,0
1,47,127,0
1,78,127,0
1,47,0,96
1,78,0,0
1,48,127,0
1,76,127,0
1,72,127,0
1,67,127,0
1,48,0,96
1,76,0,0
1,72,0,0
1,67,0,0
1,48,127,0
1,74,127,0
1,48,0,96
1,74,0,0
1,50,127,0
1,76,127,0
1,50,0,96
1,76,0,0
1,52,127,0
1,74,127,0
1,52,0,96
1,74,0,0
1,45,127,0
1,76,127,0
1,72,127,0
1,67,127,0
1,45,0,96
1,76,0,0
1,72,0,0
1,67,0,0
1,45,127,0
1,76,127,0
1,45,0,96
