track,note,velocity,time
1,62,127,7008
1,62,0,96
1,69,127,0
1,69,0,96
1,71,127,0
1,71,0,96
1,69,127,0
1,69,0,96
1,67,127,0
1,67,0,64
1,64,127,32
1,64,0,288
1,69,127,96
1,69,0,96
1,71,127,0
1,71,0,96
1,69,127,0
1,69,0,96
1,67,127,0
1,67,0,96
1,64,127,0
1,64,0,192
1,62,127,0
1,62,0,192
1,69,127,0
1,69,0,96
1,71,127,0
1,71,0,96
1,69,127,0
1,69,0,96
1,67,127,0
1,67,0,96
1,64,127,0
1,64,0,192
1,67,127,0
1,67,0,96
1,64,127,0
1,64,0,96
1,67,127,0
1,67,0,96
1,69,127,0
1,69,0,192
1,71,127,0
1,71,0,384
1,69,127,96
1,69,0,96
1,71,127,0
1,71,0,96
1,69,127,0
1,69,0,96
1,67,127,0
1,67,0,96
1,64,127,0
1,64,0,288
1,69,127,96
1,69,0,96
1,71,127,0
1,71,0,96
1,69,127,0
1,69,0,96
1,67,127,0
1,67,0,96
1,64,127,0
1,64,0,192
1,62,127,0
1,62,0,192
1,69,127,0
1,69,0,96
1,71,127,0
1,71,0,96
1,69,127,0
1,69,0,96
1,67,127,0
1,67,0,96
1,64,127,0
1,64,0,192
1,67,127,0
1,67,0,96
1,64,127,0
1,64,0,96
1,67,127,0
1,67,0,96
1,69,127,0
1,69,0,192
1,67,127,0
1,67,0,576
1,62,127,576
1,62,0,96
1,69,127,0
1,69,0,96
1,71,127,0
1,71,0,96
1,69,127,0
1,69,0,96
1,67,127,0
1,67,0,96
1,64,127,0
1,64,0,288
1,67,127,192
1,67,0,96
1,67,127,0
1,67,0,96
1,67,127,0
1,67,0,96
1,64,127,0
1,64,0,96
1,62,127,0
1,62,0,288
1,69,127,0
1,69,0,96
1,71,127,0
1,71,0,96
1,69,127,0
1,69,0,96
1,67,127,0
1,67,0,96
1,64,127,0
1,64,0,192
1,67,127,0
1,67,0,96
1,64,127,0
1,64,0,96
1,67,127,0
1,67,0,96
1,69,127,0
1,69,0,192
1,71,127,0
1,71,0,384
1,69,127,96
1,69,0,96
1,71,127,0
1,71,0,96
1,69,127,0
1,69,0,96
1,67,127,0
1,67,0,96
1,64,127,0
1,64,0,288
1,64,127,48
1,64,0,24
1,67,127,24
1,67,0,96
1,67,127,0
1,67,0,96
1,67,127,0
1,67,0,96
1,67,127,0
1,67,0,96
1,64,127,0
1,64,0,96
1,62,127,0
1,62,0,288
1,69,127,0
1,69,0,96
1,71,127,0
1,71,0,96
1,69,127,0
1,69,0,96
1,67,127,0
1,67,0,96
1,64,127,0
1,64,0,192
1,62,127,96
1,62,0,96
1,67,127,0
1,67,0,96
1,69,127,0
1,69,0,192
1,67,127,0
1,67,0,576
1,74,127,0
1,74,0,96
1,74,127,0
1,74,0,96
1,74,127,0
1,74,0,96
1,74,127,0
1,74,0,192
1,76,127,0
1,76,0,96
1,78,127,0
1,78,0,192
1,76,127,0
1,76,0,96
1,74,127,0
1,74,0,96
1,74,127,0
1,74,0,96
1,71,127,0
1,71,0,48
1,69,127,0
1,69,0,48
1,67,127,0
1,67,0,240
1,67,127,48
1,67,0,96
1,74,127,0
1,74,0,96
1,74,127,0
1,74,0,96
1,74,127,0
1,74,0,96
1,74,127,0
1,74,0,96
1,74,127,0
1,74,0,96
1,76,127,0
1,76,0,96
1,78,127,0
1,78,0,192
1,76,127,0
1,76,0,384
1,62,127,192
1,62,0,96
1,64,127,0
1,64,0,96
1,67,127,0
1,67,0,96
1,69,127,0
1,69,0,96
1,71,127,0
1,71,0,192
1,67,127,0
1,67,0,96
1,64,127,0
1,64,0,96
1,67,127,0
1,67,0,192
1,67,127,0
1,67,0,96
1,64,127,0
1,64,0,192
1,62,127,0
1,62,0,96
1,59,127,96
1,59,0,96
1,62,127,0
1,62,0,96
1,64,127,0
1,64,0,96
1,67,127,0
1,67,0,96
1,69,127,0
1,69,0,96
1,71,127,0
1,71,0,192
1,67,127,0
1,67,0,96
1,64,127,0
1,64,0,96
1,67,127,0
1,67,0,96
1,76,127,0
1,76,0,192
1,74,127,0
1,74,0,288
1,62,127,192
1,62,0,96
1,64,127,0
1,64,0,96
1,67,127,0
1,67,0,96
1,69,127,0
1,69,0,96
1,71,127,0
1,71,0,192
1,67,127,0
1,67,0,96
1,64,127,0
1,64,0,96
1,67,127,0
1,67,0,192
1,64,127,0
1,64,0,96
1,64,127,0
1,64,0,192
1,62,127,0
1,62,0,192
1,62,127,96
1,62,0,96
1,64,127,0
1,64,0,96
1,67,127,0
1,67,0,96
1,69,127,0
1,69,0,96
1,71,127,0
1,71,0,192
1,64,127,96
1,64,0,96
1,67,127,0
1,67,0,192
1,67,127,0
1,67,0,96
1,69,127,0
1,69,0,48
1,67,127,0
1,67,0,432
1,69,127,384
1,69,0,96
1,71,127,0
1,71,0,96
1,69,127,0
1,69,0,96
1,67,127,0
1,67,0,96
1,64,127,0
1,64,0,192
1,64,127,96
1,64,0,96
1,67,127,0
1,67,0,96
1,67,127,0
1,67,0,192
1,64,127,0
1,64,0,192
1,62,127,0
1,62,0,192
1,69,127,96
1,69,0,96
1,71,127,0
1,71,0,96
1,69,127,0
1,69,0,96
1,67,127,0
1,67,0,96
1,64,127,0
1,64,0,192
1,64,127,96
1,64,0,96
1,67,127,0
1,67,0,96
1,69,127,0
1,69,0,192
1,71,127,0
1,71,0,384
1,69,127,96
1,69,0,96
1,71,127,0
1,71,0,96
1,69,127,0
1,69,0,96
1,67,127,0
1,67,0,96
1,64,127,0
1,64,0,288
1,69,127,96
1,69,0,96
1,71,127,0
1,71,0,96
1,69,127,0
1,69,0,96
1,67,127,0
1,67,0,96
1,64,127,0
1,64,0,192
1,62,127,0
1,62,0,192
1,76,127,96
1,76,0,96
1,74,127,0
1,74,0,96
1,71,127,0
1,71,0,48
1,69,127,0
1,69,0,48
1,67,127,0
1,67,0,192
1,67,127,0
1,67,0,96
1,64,127,0
1,64,0,96
1,67,127,0
1,67,0,96
1,69,127,0
1,69,0,192
1,67,127,0
1,67,0,576
1,71,127,192
1,71,0,96
1,74,127,0
1,74,0,96
1,74,127,0
1,74,0,192
1,74,127,0
1,74,0,192
1,76,127,0
1,76,0,192
1,78,127,0
1,78,0,96
1,76,127,0
1,76,0,96
1,74,127,0
1,74,0,192
1,71,127,0
1,71,0,48
1,69,127,0
1,69,0,48
1,67,127,0
1,67,0,192
1,67,127,96
1,67,0,96
1,74,127,0
1,74,0,96
1,74,127,0
1,74,0,96
1,74,127,0
1,74,0,96
1,74,127,0
1,74,0,96
1,74,127,0
1,74,0,96
1,76,127,0
1,76,0,96
1,78,127,0
1,78,0,192
1,76,127,0
1,76,0,384
1,62,127,768
1,62,0,96
1,64,127,0
1,64,0,96
1,67,127,0
1,67,0,96
1,69,127,0
1,69,0,96
1,71,127,0
1,71,0,192
1,67,127,0
1,67,0,96
1,64,127,0
1,64,0,96
1,67,127,0
1,67,0,192
1,67,127,0
1,67,0,96
1,64,127,0
1,64,0,192
1,62,127,0
1,62,0,96
1,59,127,96
1,59,0,96
1,62,127,0
1,62,0,96
1,64,127,0
1,64,0,96
1,67,127,0
1,67,0,96
1,69,127,0
1,69,0,96
1,71,127,0
1,71,0,192
1,67,127,0
1,67,0,96
1,64,127,0
1,64,0,96
1,67,127,0
1,67,0,96
1,76,127,0
1,76,0,192
1,74,127,0
1,74,0,288
1,62,127,192
1,62,0,96
1,64,127,0
1,64,0,96
1,67,127,0
1,67,0,96
1,69,127,0
1,69,0,96
1,71,127,0
1,71,0,192
1,67,127,0
1,67,0,96
1,64,127,0
1,64,0,96
1,67,127,0
1,67,0,192
1,76,127,0
1,76,0,96
1,74,127,0
1,74,0,192
1,71,127,0
1,71,0,48
1,69,127,0
1,69,0,48
1,67,127,0
1,67,0,192
1,62,127,0
1,62,0,96
1,64,127,0
1,64,0,96
1,67,127,0
1,67,0,96
1,69,127,0
1,69,0,96
1,71,127,0
1,71,0,192
1,64,127,96
1,64,0,96
1,67,127,0
1,67,0,144
1,67,127,48
1,67,0,96
1,69,127,0
1,69,0,48
2,33,127,600
2,33,0,200
2,33,127,88
2,33,0,20
2,33,127,72
2,33,0,240
2,33,127,52
2,33,0,16
2,31,127,80
2,31,0,228
2,31,127,56
2,31,0,20
2,31,127,76
2,31,0,232
2,31,127,12
2,31,0,24
2,33,127,48
2,33,0,228
2,33,127,60
2,33,0,20
2,33,127,76
2,33,0,244
2,33,127,48
2,33,0,20
2,31,127,76
2,31,0,216
2,31,127,72
2,31,0,12
2,31,127,80
2,33,127,192
2,31,0,4
2,35,127,92
2,33,0,4
2,35,0,92
2,36,127,4
2,36,0,252
2,36,127,32
2,36,0,8
2,36,127,88
2,36,0,244
2,36,127,44
2,36,0,20
2,35,127,84
2,35,0,220
2,35,127,64
2,35,0,16
2,35,127,76
2,35,0,272
2,35,127,16
2,35,0,24
2,33,127,72
2,33,0,256
2,33,127,32
2,33,0,24
2,38,127,72
2,38,0,32
2,38,127,64
2,38,0,180
2,31,127,16
2,31,0,328
2,31,127,52
2,31,0,20
2,31,127,80
2,31,0,244
2,31,127,40
2,31,0,16
2,31,127,80
2,31,0,224
2,31,127,64
2,31,0,16
2,31,127,80
2,31,0,288
2,31,127,0
2,31,0,24
2,36,127,72
2,36,0,288
2,36,127,0
2,36,0,384
2,36,127,0
2,36,0,24
2,43,127,72
2,43,0,256
2,43,127,32
2,43,0,16
2,43,127,80
2,43,0,288
2,43,127,0
2,43,0,24
2,36,127,72
2,36,0,288
2,36,127,0
2,36,0,24
2,36,127,72
2,36,0,288
2,36,127,0
2,36,0,24
2,31,127,72
2,31,0,240
2,31,127,48
2,31,0,28
2,31,127,68
2,31,0,192
2,33,127,0
2,35,127,96
2,33,0,16
2,35,0,32
2,36,127,48
2,36,0,252
2,36,127,36
2,36,0,24
2,36,127,72
2,36,0,272
2,36,127,16
2,36,0,24
2,35,127,72
2,35,0,236
2,35,127,52
2,35,0,20
2,35,127,76
2,35,0,288
2,35,127,0
2,35,0,24
2,33,127,76
2,33,0,256
2,33,127,28
2,33,0,96
2,38,127,0
2,38,0,24
2,38,127,72
2,38,0,188
2,31,127,4
2,31,0,328
2,31,127,56
2,31,0,24
2,31,127,72
2,31,0,252
2,31,127,36
2,31,0,20
2,31,127,76
2,31,0,248
2,31,127,40
2,31,0,24
2,31,127,72
2,31,0,252
2,31,127,36
2,31,0,20
2,36,127,76
2,36,0,252
2,36,127,36
2,36,0,20
2,36,127,76
2,36,0,252
2,36,127,36
2,36,0,20
2,31,127,76
2,31,0,240
2,31,127,52
2,31,0,20
2,31,127,72
2,31,0,200
2,31,127,88
2,31,0,24
2,36,127,72
2,36,0,272
2,36,127,16
2,36,0,24
2,36,127,72
2,36,0,272
2,36,127,16
2,36,0,24
2,31,127,76
2,31,0,248
2,31,127,36
2,31,0,20
2,31,127,76
2,31,0,180
2,33,127,12
2,33,0,92
2,35,127,4
2,35,0,92
2,36,127,4
2,36,0,228
2,36,127,60
2,36,0,24
2,36,127,72
2,36,0,240
2,36,127,48
2,36,0,16
2,35,127,80
2,35,0,224
2,35,127,68
2,35,0,12
2,35,127,80
2,35,0,288
2,35,127,0
2,35,0,24
2,33,127,72
2,33,0,224
2,33,127,64
2,33,0,92
2,38,127,4
2,38,0,20
2,38,127,76
2,38,0,176
2,31,127,16
2,31,0,336
2,26,127,48
2,26,0,80
2,31,127,16
2,31,0,164
2,26,127,28
2,26,0,84
2,31,127,12
2,31,0,80
2,43,127,16
2,43,0,232
2,38,127,56
2,38,0,16
2,43,127,80
2,43,0,152
2,40,127,40
2,40,0,96
2,38,127,0
2,38,0,96
2,35,127,0
2,35,0,288
2,35,127,0
2,35,0,24
2,35,127,72
2,35,0,288
2,35,127,0
2,35,0,24
2,33,127,72
2,33,0,288
2,33,127,0
2,33,0,24
2,33,127,72
2,33,0,288
2,33,127,0
2,33,0,24
2,35,127,72
2,35,0,288
2,35,127,0
2,35,0,24
2,35,127,72
2,35,0,192
2,35,127,0
2,35,0,192
2,26,127,0
2,26,0,288
2,45,127,0
2,45,0,96
2,50,127,0
2,50,0,140
2,45,127,0
2,45,0,4
2,50,127,0
2,50,0,4
2,45,127,0
2,45,0,36
2,38,127,0
2,38,0,768
2,33,127,4
2,33,0,200
2,33,127,88
2,33,0,20
2,33,127,72
2,33,0,240
2,33,127,52
2,33,0,16
2,31,127,80
2,31,0,228
2,31,127,56
2,31,0,20
2,31,127,76
2,31,0,192
2,31,127,0
2,31,0,72
2,26,127,12
2,26,0,24
2,31,127,0
2,31,0,24
2,33,127,24
2,33,0,228
2,33,127,60
2,33,0,20
2,33,127,76
2,33,0,244
2,33,127,48
2,33,0,20
2,31,127,76
2,31,0,216
2,31,127,72
2,31,0,12
2,31,127,80
2,33,127,192
2,31,0,4
2,35,127,92
2,33,0,4
2,35,0,92
2,36,127,4
2,36,0,252
2,36,127,32
2,36,0,8
2,36,127,88
2,36,0,244
2,36,127,44
2,36,0,20
2,35,127,84
2,35,0,220
2,35,127,64
2,35,0,16
2,35,127,76
2,35,0,272
2,35,127,16
2,35,0,24
2,33,127,72
2,33,0,256
2,33,127,32
2,33,0,68
2,38,127,28
2,38,0,32
2,38,127,64
2,38,0,180
2,31,127,16
2,31,0,328
2,31,127,52
2,31,0,20
2,31,127,80
2,31,0,188
2,31,127,0
2,33,127,196
2,33,0,200
2,33,127,88
2,33,0,20
2,33,127,72
2,33,0,240
2,33,127,52
2,33,0,16
2,31,0,81
2,31,127,283
2,31,0,96
2,31,127,0
2,31,0,12
2,31,127,0
2,33,127,48
2,33,0,228
2,33,127,60
2,33,0,20
2,33,127,76
2,33,0,244
2,33,127,48
2,33,0,20
2,31,0,77
2,31,127,287
2,31,0,92
2,31,127,0
2,33,127,192
2,35,127,96
2,33,0,4
2,35,0,92
2,36,127,4
2,36,0,252
2,36,127,32
2,36,0,8
2,36,127,88
2,36,0,244
2,36,127,44
2,36,0,20
2,35,127,84
2,35,0,220
2,35,127,64
2,35,0,16
2,35,127,76
2,35,0,272
2,35,127,16
2,35,0,24
2,33,127,72
2,33,0,256
2,33,127,32
2,33,0,68
2,38,127,28
2,38,0,32
2,38,127,64
2,38,0,180
2,31,0,16
2,31,127,0
2,31,0,380
2,31,127,0
2,31,0,100
2,31,127,0
2,31,0,284
2,31,127,0
2,31,0,96
2,31,127,0
2,26,127,288
2,26,0,16
2,31,0,80
2,31,127,0
2,26,127,192
2,26,0,64
2,31,0,32
2,31,127,0
2,26,127,48
2,26,0,32
2,36,127,16
2,36,0,288
2,36,127,0
2,36,0,384
2,36,127,0
2,36,0,24
2,43,127,72
2,43,0,256
2,43,127,32
2,43,0,16
2,43,127,80
2,43,0,288
2,43,127,0
2,43,0,24
2,36,127,72
2,36,0,288
2,36,127,0
2,36,0,24
2,36,127,72
2,36,0,288
2,36,127,0
2,36,0,24
2,31,0,72
2,31,127,0
2,31,0,288
2,31,127,0
2,31,0,96
2,31,127,0
2,33,127,192
2,33,0,96
2,35,127,0
2,35,0,96
2,36,127,0
2,36,0,252
2,36,127,36
2,36,0,24
2,36,127,72
2,36,0,272
2,36,127,16
2,36,0,24
2,35,127,72
2,35,0,236
2,35,127,52
2,35,0,20
2,35,127,76
2,35,0,288
2,35,127,0
2,35,0,24
2,33,127,76
2,33,0,256
2,33,127,28
2,33,0,96
2,38,127,0
2,38,0,24
2,38,127,72
2,38,0,188
2,31,0,4
2,31,127,0
2,31,0,384
2,31,127,0
2,31,0,96
2,31,127,0
2,28,127,192
2,28,0,96
2,26,127,0
2,26,0,96
2,35,127,0
2,35,0,288
2,35,127,0
2,35,0,24
2,35,127,72
2,35,0,288
2,35,127,0
2,35,0,24
2,33,127,72
2,33,0,288
2,33,127,0
2,33,0,24
2,33,127,72
2,33,0,288
2,33,127,0
2,33,0,24
2,35,127,72
2,35,0,288
2,35,127,0
2,35,0,24
2,35,127,72
2,35,0,192
2,35,127,0
