track,note,velocity,time
1,66,46,480
1,66,0,240
1,55,35,0
1,67,42,0
1,67,0,240
1,55,0,0
1,69,51,0
1,57,43,0
1,57,0,240
1,69,0,0
1,59,45,0
1,71,54,0
1,71,0,240
1,59,0,0
1,69,48,0
1,57,40,0
1,57,0,240
1,69,0,0
1,55,35,0
1,67,42,0
1,67,0,240
1,55,0,0
1,66,47,0
1,54,39,0
1,54,0,480
1,66,0,0
1,69,53,0
1,57,45,0
1,57,0,240
1,69,0,0
1,71,55,0
1,59,46,0
1,59,0,240
1,71,0,0
1,73,62,0
1,61,52,0
1,61,0,240
1,73,0,0
1,62,55,0
1,74,65,0
1,74,0,240
1,62,0,0
1,73,58,0
1,61,49,0
1,61,0,240
1,73,0,0
1,71,56,0
1,59,47,0
1,59,0,240
1,71,0,0
1,76,63,0
1,64,53,0
1,64,0,240
1,76,0,0
1,78,66,0
1,66,56,0
1,66,0,240
1,78,0,0
1,64,55,0
1,76,65,0
1,76,0,120
1,64,0,0
1,75,53,0
1,63,45,0
1,63,0,120
1,75,0,0
1,73,55,0
1,61,46,0
1,61,0,60
1,73,0,0
1,59,42,60
1,71,50,0
1,71,0,60
1,59,0,0
1,74,57,60
1,62,48,0
1,62,0,240
1,74,0,0
1,76,58,0
1,64,49,0
1,64,0,240
1,76,0,0
1,62,52,0
1,74,62,0
1,74,0,120
1,62,0,0
1,73,57,0
1,61,48,0
1,61,0,120
1,73,0,0
1,59,42,0
1,71,50,0
1,71,0,60
1,59,0,0
1,61,42,60
1,73,50,0
1,73,0,60
1,61,0,0
1,62,42,60
1,74,50,0
1,74,0,240
1,62,0,0
1,73,47,0
1,61,39,0
1,61,0,240
1,73,0,0
1,59,42,0
1,71,50,0
1,71,0,240
1,59,0,0
1,76,46,0
1,64,39,0
1,64,0,240
1,76,0,0
1,74,55,0
1,62,46,0
1,62,0,240
1,74,0,0
1,61,42,0
1,73,50,0
1,73,0,240
1,61,0,0
1,71,54,0
1,59,45,0
1,59,0,360
1,71,0,0
1,71,50,0
1,71,0,120
1,70,58,0
1,70,0,120
1,68,52,0
1,71,62,0
1,71,0,120
1,68,0,0
1,69,54,0
1,73,64,0
1,73,0,120
1,69,0,0
1,71,58,0
1,74,69,0
1,74,0,120
1,71,0,0
1,78,71,0
1,74,60,0
1,74,0,120
1,78,0,0
1,73,60,0
1,76,72,0
1,76,0,120
1,73,0,0
1,74,66,0
1,71,56,0
1,71,0,120
1,74,0,0
1,73,64,0
1,69,54,0
1,69,0,120
1,73,0,0
1,76,64,0
1,73,54,0
1,73,0,120
1,76,0,0
1,74,52,0
1,74,0,120
1,66,57,0
1,66,0,120
1,68,60,0
1,71,70,120
1,71,0,240
1,68,0,0
1,69,58,0
1,69,0,720
1,66,46,960
1,66,0,240
1,55,35,0
1,67,42,0
1,67,0,240
1,55,0,0
1,69,51,0
1,57,43,0
1,57,0,240
1,69,0,0
1,59,45,0
1,71,54,0
1,71,0,240
1,59,0,0
1,69,48,0
1,57,40,0
1,57,0,240
1,69,0,0
1,55,35,0
1,67,42,0
1,67,0,240
1,55,0,0
1,66,47,0
1,54,39,0
1,54,0,480
1,66,0,0
1,69,53,0
1,57,45,0
1,57,0,240
1,69,0,0
1,71,55,0
1,59,46,0
1,59,0,240
1,71,0,0
1,73,62,0
1,61,52,0
1,61,0,240
1,73,0,0
1,62,55,0
1,74,65,0
1,74,0,240
1,62,0,0
1,73,58,0
1,61,49,0
1,61,0,240
1,73,0,0
1,71,56,0
1,59,47,0
1,59,0,240
1,71,0,0
1,76,63,0
1,64,53,0
1,64,0,240
1,76,0,0
1,78,66,0
1,66,56,0
1,66,0,240
1,78,0,0
1,64,55,0
1,76,65,0
1,76,0,120
1,64,0,0
1,75,53,0
1,63,45,0
1,63,0,120
1,75,0,0
1,73,55,0
1,61,46,0
1,61,0,60
1,73,0,0
1,59,42,60
1,71,50,0
1,71,0,60
1,59,0,0
1,74,57,60
1,62,48,0
1,62,0,240
1,74,0,0
1,76,58,0
1,64,49,0
1,64,0,240
1,76,0,0
1,62,52,0
1,74,62,0
1,74,0,120
1,62,0,0
1,73,57,0
1,61,48,0
1,61,0,120
1,73,0,0
1,59,42,0
1,71,50,0
1,71,0,60
1,59,0,0
1,61,42,60
1,73,50,0
1,73,0,60
1,61,0,0
1,62,42,60
1,74,50,0
1,74,0,240
1,62,0,0
1,73,47,0
1,61,39,0
1,61,0,240
1,73,0,0
1,59,42,0
1,71,50,0
1,71,0,240
1,59,0,0
1,76,46,0
1,64,39,0
1,64,0,240
1,76,0,0
1,74,55,0
1,62,46,0
1,62,0,240
1,74,0,0
1,61,42,0
1,73,50,0
1,73,0,240
1,61,0,0
1,71,54,0
1,59,45,0
1,59,0,360
1,71,0,0
1,71,50,0
1,71,0,120
1,70,58,0
1,70,0,120
1,68,52,0
1,71,62,0
1,71,0,120
1,68,0,0
1,69,54,0
1,73,64,0
1,73,0,120
1,69,0,0
1,71,58,0
1,74,69,0
1,74,0,120
1,71,0,0
1,78,71,0
1,74,60,0
1,74,0,120
1,78,0,0
1,73,60,0
1,76,72,0
1,76,0,120
1,73,0,0
1,74,66,0
1,71,56,0
1,71,0,120
1,74,0,0
1,73,64,0
1,69,54,0
1,69,0,120
1,73,0,0
1,76,64,0
1,73,54,0
1,73,0,120
1,76,0,0
1,74,52,0
1,74,0,120
1,66,57,0
1,66,0,120
1,68,60,0
1,71,70,120
1,71,0,240
1,68,0,0
1,69,58,0
1,69,0,720
1,72,65,960
1,69,55,0
1,66,55,0
1,60,55,0
1,60,0,228
1,72,0,0
1,69,0,0
1,66,0,0
1,72,63,12
1,69,53,0
1,66,53,0
1,60,53,0
1,60,0,240
1,72,0,0
1,69,0,0
1,66,0,0
1,59,59,0
1,66,59,0
1,69,59,0
1,71,70,0
1,71,0,480
1,59,0,0
1,66,0,0
1,69,0,0
1,72,71,0
1,69,60,0
1,66,60,0
1,60,60,0
1,60,0,228
1,72,0,0
1,69,0,0
1,66,0,0
1,72,69,12
1,69,58,0
1,66,58,0
1,60,58,0
1,60,0,240
1,72,0,0
1,69,0,0
1,66,0,0
1,59,64,0
1,66,64,0
1,69,64,0
1,71,77,0
1,71,0,480
1,59,0,0
1,66,0,0
1,69,0,0
1,74,78,0
1,71,66,0
1,68,66,0
1,62,66,0
1,62,0,228
1,74,0,0
1,71,0,0
1,68,0,0
1,74,75,12
1,71,63,0
1,68,63,0
1,62,63,0
1,62,0,240
1,74,0,0
1,71,0,0
1,68,0,0
1,61,70,0
1,68,70,0
1,71,70,0
1,73,84,0
1,73,0,480
1,61,0,0
1,68,0,0
1,71,0,0
1,74,85,0
1,71,72,0
1,68,72,0
1,62,72,0
1,62,0,228
1,74,0,0
1,71,0,0
1,68,0,0
1,74,82,12
1,71,69,0
1,68,69,0
1,62,69,0
1,62,0,240
1,74,0,0
1,71,0,0
1,68,0,0
1,61,77,0
1,68,77,0
1,71,77,0
1,73,92,0
1,73,0,480
1,61,0,0
1,68,0,0
1,71,0,0
1,78,89,0
1,78,0,228
1,78,81,12
1,66,68,0
1,66,0,240
1,78,0,0
1,67,78,0
1,78,94,0
1,78,0,240
1,67,0,0
1,76,74,0
1,68,62,0
1,68,0,228
1,76,0,0
1,76,85,12
1,69,72,0
1,69,0,240
1,76,0,0
1,74,77,0
1,70,65,0
1,74,0,120
1,73,71,0
1,73,0,120
1,70,0,0
1,71,78,0
1,71,0,120
1,73,78,0
1,69,66,0
1,69,0,120
1,73,0,0
1,68,69,0
1,74,82,0
1,68,0,120
1,66,62,0
1,66,0,120
1,74,0,0
1,65,68,0
1,73,89,0
1,73,0,228
1,65,0,12
1,73,81,0
1,61,68,0
1,61,0,240
1,73,0,0
1,62,78,0
1,73,94,0
1,73,0,240
1,62,0,0
1,71,74,0
1,63,62,0
1,63,0,228
1,71,0,0
1,71,85,12
1,64,72,0
1,64,0,240
1,71,0,0
1,69,77,0
1,65,65,0
1,69,0,120
1,68,71,0
1,68,0,120
1,65,0,0
1,66,78,0
1,66,0,120
1,68,78,0
1,64,66,0
1,64,0,120
1,68,0,0
1,62,69,0
1,69,82,0
1,62,0,120
1,61,62,0
1,61,0,120
1,69,0,0
1,69,85,0
1,66,72,0
1,62,72,0
1,62,0,228
1,66,0,0
1,69,0,0
1,71,82,12
1,66,69,0
1,62,69,0
1,59,69,0
1,59,0,240
1,71,0,0
1,66,0,0
1,62,0,0
1,61,77,0
1,66,77,0
1,69,77,0
1,73,92,0
1,73,0,480
1,61,0,0
1,66,0,0
1,69,0,0
1,69,86,0
1,66,73,0
1,62,73,0
1,62,0,228
1,66,0,0
1,69,0,0
1,71,83,12
1,66,70,0
1,62,70,0
1,59,70,0
1,59,0,240
1,71,0,0
1,66,0,0
1,62,0,0
1,61,78,0
1,66,78,0
1,69,78,0
1,73,93,0
1,73,0,480
1,61,0,0
1,66,0,0
1,69,0,0
1,69,86,0
1,66,73,0
1,62,73,0
1,62,0,228
1,66,0,0
1,69,0,0
1,71,88,12
1,66,74,0
1,62,74,0
1,59,74,0
1,59,0,240
1,71,0,0
1,66,0,0
1,62,0,0
1,61,89,0
1,66,89,0
1,69,89,0
1,73,106,0
1,73,0,1440
1,61,0,0
1,66,0,0
1,69,0,0
1,66,46,0
1,66,0,240
1,55,35,0
1,67,42,0
1,67,0,240
1,55,0,0
1,69,51,0
1,57,43,0
1,57,0,240
1,69,0,0
1,59,45,0
1,71,54,0
1,71,0,240
1,59,0,0
1,69,48,0
1,57,40,0
1,57,0,240
1,69,0,0
1,55,35,0
1,67,42,0
1,67,0,240
1,55,0,0
1,66,47,0
1,54,39,0
1,54,0,480
1,66,0,0
1,66,53,0
1,54,45,0
1,54,0,240
1,66,0,0
1,67,55,0
1,55,46,0
1,55,0,240
1,67,0,0
1,69,62,0
1,57,52,0
1,57,0,240
1,69,0,0
1,59,55,0
1,71,65,0
1,71,0,240
1,59,0,0
1,72,77,0
1,60,65,0
1,60,0,240
1,72,0,0
1,74,73,0
1,62,62,0
1,62,0,240
1,74,0,0
1,71,82,0
1,59,65,0
1,71,0,480
1,69,72,0
1,69,0,240
1,71,75,0
1,71,0,240
1,69,74,0
1,69,0,120
1,68,60,0
1,68,0,120
1,66,63,0
1,66,0,60
1,64,57,60
1,64,0,60
1,59,0,60
1,57,63,0
1,67,72,0
1,67,0,240
1,69,75,0
1,69,0,240
1,67,74,0
1,67,0,120
1,66,60,0
1,66,0,120
1,64,63,0
1,64,0,60
1,66,57,60
1,66,0,60
1,57,0,60
1,62,42,0
1,67,50,0
1,67,0,240
1,62,0,0
1,66,47,0
1,57,39,0
1,57,0,240
1,66,0,0
1,59,42,0
1,64,50,0
1,59,0,120
1,61,42,0
1,61,0,120
1,64,0,0
1,69,46,0
1,62,39,0
1,62,0,240
1,69,0,0
1,67,55,0
1,62,46,0
1,62,0,240
1,67,0,0
1,57,42,0
1,66,50,0
1,66,0,240
1,57,0,0
1,64,54,0
1,59,45,0
1,64,0,357
1,59,0,3
1,64,50,0
1,64,0,120
1,63,58,0
1,63,0,120
1,61,52,0
1,64,62,0
1,64,0,120
1,61,0,0
1,62,54,0
1,66,64,0
1,66,0,120
1,62,0,0
1,64,58,0
1,67,69,0
1,67,0,120
1,64,0,0
1,71,71,0
1,67,60,0
1,67,0,120
1,71,0,0
1,66,60,0
1,69,72,0
1,69,0,120
1,66,0,0
1,67,66,0
1,64,56,0
1,64,0,120
1,67,0,0
1,66,64,0
1,66,0,120
1,69,64,0
1,66,54,0
1,66,0,120
1,69,0,0
1,67,52,0
1,67,0,120
1,64,57,0
1,64,0,120
1,61,60,0
1,61,0,120
1,69,63,0
1,69,0,360
1,78,55,0
1,78,0,120
1,75,63,0
1,75,0,120
1,73,57,0
1,76,68,0
1,76,0,120
1,73,0,0
1,74,59,0
1,78,70,0
1,78,0,120
1,74,0,0
1,76,63,0
1,79,75,0
1,79,0,120
1,76,0,0
1,83,78,0
1,79,66,0
1,79,0,120
1,83,0,0
1,78,66,0
1,81,79,0
1,81,0,120
1,78,0,0
1,79,72,0
1,76,61,0
1,76,0,120
1,79,0,0
1,74,67,0
1,78,70,0
1,78,0,120
1,74,0,0
1,76,70,0
1,73,59,0
1,73,0,120
1,76,0,0
1,71,48,0
1,74,57,0
1,74,0,120
1,71,0,0
1,69,52,0
1,73,62,0
1,73,0,120
1,69,0,0
1,67,56,0
1,71,66,0
1,71,0,120
1,67,0,0
1,69,59,0
1,69,0,232
1,74,69,8
1,66,69,0
1,66,0,240
1,74,0,0
1,66,63,0
1,66,0,240
1,67,70,0
1,67,0,240
1,69,74,0
1,69,0,240
1,71,70,0
1,71,0,240
1,64,66,0
1,64,0,360
1,66,54,0
1,66,0,120
1,62,59,0
1,62,0,240
1,74,64,240
1,74,0,240
1,71,54,0
1,71,0,240
1,69,59,0
1,69,0,240
1,74,64,240
1,74,0,240
1,71,54,0
1,71,0,240
1,69,59,0
1,69,0,240
1,74,64,240
1,74,0,240
1,71,54,0
1,71,0,240
1,69,59,0
1,69,0,240
1,66,59,0
1,66,0,120
1,67,59,120
1,67,0,120
1,64,59,120
1,64,0,120
1,62,59,120
1,62,0,240
1,86,64,240
1,74,54,0
1,74,0,240
1,86,0,0
1,83,54,0
1,71,45,0
1,71,0,240
1,83,0,0
1,81,59,0
1,69,50,0
1,69,0,240
1,81,0,0
1,78,59,0
1,66,50,0
1,66,0,120
1,78,0,0
1,79,59,120
1,67,50,0
1,67,0,120
1,79,0,0
1,76,59,120
1,64,50,0
1,64,0,120
1,76,0,0
1,74,59,120
1,62,50,0
1,62,0,180
1,74,0,0
1,62,42,300
1,62,0,60
1,66,38,0
1,66,0,60
1,69,37,0
1,69,0,60
1,67,30,0
1,67,0,60
1,66,45,0
1,66,0,60
1,69,33,0
1,69,0,60
1,66,38,0
1,66,0,60
1,67,34,0
1,67,0,60
1,69,43,0
1,69,0,60
1,74,34,0
1,74,0,60
1,78,38,0
1,78,0,60
1,76,34,0
1,76,0,60
1,74,46,0
1,74,0,60
1,78,34,0
1,78,0,60
1,81,38,0
1,81,0,60
1,79,33,0
1,79,0,60
1,78,45,0
1,78,0,60
1,81,32,0
1,81,0,60
1,78,38,0
1,78,0,60
1,79,34,0
1,79,0,60
1,81,45,0
1,81,0,60
1,86,33,0
1,86,0,60
1,90,38,0
1,90,0,60
1,88,34,0
1,88,0,60
1,86,43,0
1,81,43,0
1,81,0,120
1,86,0,0
2,50,25,60
2,49,32,60
2,50,0,15
2,50,28,45
2,49,0,15
2,49,32,45
2,50,0,15
2,50,28,45
2,49,0,15
2,49,35,45
2,50,0,15
2,50,28,45
2,49,0,15
2,50,0,45
2,54,36,0
2,54,0,60
2,50,29,0
2,50,0,60
2,49,35,0
2,50,28,60
2,49,0,15
2,50,0,45
2,40,34,0
2,40,0,60
2,50,28,0
2,50,0,60
2,49,36,0
2,50,33,60
2,49,0,15
2,50,0,45
2,42,40,0
2,42,0,60
2,50,29,0
2,50,0,60
2,49,34,0
2,50,43,60
2,49,0,15
2,50,0,45
2,43,50,0
2,43,0,60
2,50,39,0
2,50,0,60
2,49,40,0
2,50,39,60
2,49,0,15
2,50,0,45
2,42,43,0
2,42,0,60
2,50,34,0
2,50,0,60
2,49,39,0
2,50,34,60
2,49,0,15
2,50,0,45
2,40,45,0
2,40,0,60
2,50,34,0
2,50,0,60
2,49,38,0
2,50,34,60
2,49,0,15
2,50,0,45
2,38,47,0
2,38,0,60
2,50,31,0
2,50,0,60
2,49,34,0
2,50,30,60
2,49,0,15
2,49,39,45
2,50,0,15
2,50,29,45
2,49,0,15
2,49,34,45
2,50,0,15
2,50,31,45
2,49,0,15
2,50,0,45
2,54,48,0
2,52,37,60
2,54,0,15
2,54,40,45
2,52,0,15
2,52,40,45
2,54,0,15
2,56,50,45
2,52,0,15
2,54,36,45
2,56,0,15
2,56,46,45
2,54,0,15
2,52,49,45
2,56,0,15
2,52,0,45
