track,note,velocity,time
1,67,96,960
1,66,96,4
1,62,96,192
1,59,96,0
1,55,96,0
1,67,96,196
1,66,96,4
1,60,96,192
1,55,96,0
1,62,96,0
1,64,96,4
1,67,96,196
1,66,96,4
1,62,96,192
1,59,96,0
1,55,96,0
1,67,96,196
1,66,96,4
1,60,96,192
1,55,96,0
1,62,96,0
1,64,96,4
1,62,96,388
1,57,96,0
1,59,96,4
1,64,96,4
1,62,96,0
1,55,96,0
1,64,96,4
1,64,96,4
1,62,96,0
1,55,96,0
1,59,96,196
1,62,96,4
1,59,96,0
1,55,96,0
1,64,96,4
1,64,96,4
1,62,96,0
1,67,96,0
1,69,96,196
1,67,96,0
1,60,96,0
1,69,96,4
1,69,96,4
1,69,96,4
1,69,96,4
1,67,96,0
1,60,96,0
1,67,96,4
1,64,96,196
1,69,96,4
1,67,96,0
1,60,96,0
1,67,96,4
1,64,96,4
1,64,96,4
1,60,96,0
1,55,96,0
1,59,96,196
1,62,96,4
1,59,96,0
1,55,96,0
1,64,96,4
1,64,96,4
1,62,96,0
1,55,96,0
1,59,96,4
1,59,96,4
1,62,96,4
1,59,96,0
1,55,96,0
1,64,96,4
1,67,96,4
1,62,96,0
1,64,96,4
1,59,96,196
1,69,96,4
1,67,96,0
1,60,96,0
1,69,96,4
1,69,96,4
1,67,96,4
1,67,96,4
1,60,96,0
1,69,96,0
1,67,96,4
1,69,96,4
1,64,96,4
1,71,96,4
1,67,96,0
1,60,96,0
1,71,96,4
1,67,96,0
1,60,96,0
1,69,96,4
1,67,96,4
1,64,96,4
1,59,96,196
1,62,96,4
1,59,96,0
1,55,96,0
1,64,96,4
1,64,96,4
1,64,96,4
1,62,96,0
1,55,96,0
1,59,96,388
1,62,96,4
1,59,96,0
1,55,96,0
1,64,96,4
1,64,96,4
1,64,96,4
1,62,96,0
1,55,96,0
1,69,96,580
1,67,96,0
1,60,96,0
1,69,96,4
1,69,96,4
1,67,96,4
1,69,96,4
1,67,96,0
1,60,96,0
1,69,96,4
1,67,96,4
1,69,96,4
1,67,96,0
1,60,96,0
1,69,96,4
1,67,96,4
1,66,96,4
1,64,96,4
1,59,96,4
1,62,96,4
1,59,96,0
1,55,96,0
1,64,96,4
1,64,96,4
1,62,96,0
1,55,96,0
1,59,96,196
1,62,96,4
1,59,96,0
1,55,96,0
1,64,96,4
1,67,96,4
1,62,96,0
1,64,96,4
1,64,96,196
1,69,96,4
1,67,96,0
1,60,96,0
1,69,96,4
1,69,96,4
1,67,96,0
1,60,96,0
1,69,96,4
1,69,96,4
1,64,96,292
1,69,96,4
1,67,96,0
1,60,96,0
1,69,96,4
1,69,96,4
1,69,96,4
1,67,96,0
1,60,96,0
1,67,96,580
1,64,96,0
1,72,96,0
1,72,96,4
1,72,96,4
1,72,96,4
1,67,96,0
1,64,96,0
1,74,96,4
1,72,96,4
1,72,96,4
1,71,96,4
1,71,96,4
1,66,96,0
1,63,96,0
1,72,96,196
1,67,96,0
1,64,96,0
1,72,96,4
1,72,96,4
1,72,96,4
1,67,96,0
1,64,96,0
1,74,96,384
1,72,96,4
1,71,96,192
1,66,96,0
1,63,96,0
1,71,96,580
1,79,96,4
1,74,96,0
1,71,96,0
1,78,96,4
1,74,96,4
1,71,96,0
1,67,96,0
1,79,96,4
1,78,96,4
1,74,96,4
1,71,96,0
1,67,96,0
1,74,96,4
1,79,96,4
1,74,96,0
1,71,96,0
1,78,96,4
1,74,96,4
1,71,96,192
1,72,96,4
1,76,96,192
1,79,96,0
1,78,96,4
1,74,96,4
1,72,96,0
1,67,96,0
1,79,96,4
1,78,96,4
1,74,96,4
1,72,96,0
1,67,96,0
1,79,96,4
1,76,96,0
1,72,96,0
1,78,96,4
1,74,96,4
1,71,96,192
1,74,96,4
1,79,96,192
1,76,96,0
1,72,96,0
1,79,96,4
1,78,96,4
1,78,96,4
1,76,96,4
1,72,96,0
1,67,96,0
1,74,96,4
1,76,96,4
1,74,96,4
1,76,96,4
1,72,96,0
1,67,96,0
1,76,96,4
1,69,96,580
1,71,96,4
1,72,96,4
1,76,96,4
1,74,96,0
1,67,96,0
1,76,96,4
1,76,96,4
1,74,96,4
1,71,96,4
1,83,96,4
1,76,96,0
1,74,96,0
1,81,96,4
1,79,96,4
1,81,96,4
1,79,96,4
1,76,96,4
1,74,96,4
1,76,96,4
1,79,96,4
1,74,96,0
1,71,96,0
1,78,96,4
1,74,96,4
1,71,96,0
1,67,96,0
1,79,96,4
1,78,96,4
1,74,96,4
1,71,96,0
1,67,96,0
1,74,96,4
1,79,96,4
1,74,96,0
1,71,96,0
1,78,96,4
1,74,96,4
1,71,96,192
1,72,96,4
1,79,96,192
1,76,96,0
1,78,96,4
1,74,96,4
1,72,96,0
1,67,96,0
1,79,96,4
1,78,96,4
1,74,96,4
1,72,96,0
1,67,96,0
1,79,96,4
1,76,96,0
1,72,96,0
1,78,96,4
1,74,96,4
1,71,96,4
1,71,96,4
1,76,96,4
1,79,96,0
1,72,96,0
1,78,96,4
1,76,96,4
1,76,96,4
1,72,96,0
1,69,96,0
1,71,96,196
1,76,96,4
1,79,96,0
1,72,96,0
1,78,96,4
1,76,96,4
1,76,96,4
1,72,96,0
1,69,96,0
1,71,96,4
1,74,96,4
1,76,96,4
1,74,96,0
1,67,96,0
1,76,96,4
1,74,96,4
1,71,96,4
1,76,96,388
1,74,96,0
1,67,96,0
1,81,96,4
1,79,96,4
1,81,96,4
1,76,96,0
1,74,96,0
1,76,96,4
1,76,96,4
1,74,96,0
1,67,96,0
1,83,96,196
1,79,96,4
1,81,96,4
1,76,96,4
1,76,96,4
1,76,96,4
1,81,96,196
1,79,96,0
1,76,96,0
1,72,96,0
1,81,96,4
1,81,96,4
1,79,96,4
1,81,96,4
1,79,96,0
1,76,96,0
1,72,96,0
1,81,96,4
1,79,96,4
1,81,96,4
1,79,96,0
1,76,96,0
1,72,96,0
1,81,96,4
1,79,96,4
1,78,96,4
1,76,96,4
1,81,96,4
1,79,96,0
1,76,96,0
1,72,96,0
1,79,96,4
1,81,96,4
1,76,96,0
1,74,96,0
1,76,96,4
1,76,96,4
1,74,96,0
1,67,96,0
1,81,96,4
1,79,96,4
1,81,96,4
1,76,96,0
1,74,96,0
1,76,96,4
1,74,96,4
1,76,96,0
1,67,96,0
1,81,96,196
1,79,96,0
1,76,96,0
1,72,96,0
1,81,96,4
1,81,96,4
1,81,96,4
1,76,96,4
1,72,96,0
1,67,96,0
1,76,96,196
1,83,96,4
1,79,96,0
1,72,96,0
1,81,96,4
1,81,96,4
1,81,96,4
1,79,96,4
1,76,96,4
1,76,96,388
1,79,96,4
1,76,96,0
1,72,96,0
1,79,96,4
1,79,96,4
1,76,96,0
1,72,96,0
1,81,96,4
1,79,96,4
1,79,96,4
1,75,96,0
1,71,96,0
1,78,96,4
1,71,96,964
1,79,96,4
1,76,96,0
1,72,96,0
1,79,96,4
1,79,96,4
1,79,96,4
1,76,96,0
1,72,96,0
1,81,96,4
1,79,96,4
1,78,96,4
1,75,96,0
1,71,96,0
1,79,96,196
1,74,96,0
1,71,96,0
1,78,96,4
1,74,96,4
1,71,96,0
1,67,96,0
1,79,96,4
1,78,96,4
1,74,96,4
1,71,96,0
1,67,96,0
1,74,96,4
1,79,96,4
1,74,96,0
1,71,96,0
1,78,96,4
1,74,96,4
1,71,96,192
1,72,96,4
1,76,96,192
1,79,96,0
1,78,96,4
1,74,96,4
1,72,96,0
1,67,96,0
1,79,96,4
1,78,96,4
1,74,96,4
1,72,96,0
1,67,96,0
1,79,96,4
1,76,96,0
1,72,96,0
1,78,96,4
1,74,96,4
1,71,96,192
1,74,96,4
1,79,96,192
1,76,96,0
1,72,96,0
1,79,96,4
1,78,96,4
1,78,96,4
1,76,96,4
1,72,96,0
1,67,96,0
1,74,96,4
1,76,96,4
1,74,96,4
1,76,96,4
1,72,96,0
1,67,96,0
1,76,96,4
1,69,96,580
1,71,96,4
1,72,96,4
1,76,96,4
1,74,96,0
1,67,96,0
1,76,96,4
1,76,96,4
1,74,96,4
1,71,96,4
1,83,96,4
1,76,96,0
1,74,96,0
1,81,96,4
1,79,96,4
1,81,96,4
1,79,96,4
1,76,96,4
1,74,96,4
1,76,96,4
1,79,96,4
1,74,96,0
1,71,96,0
1,78,96,4
1,74,96,4
1,71,96,0
1,67,96,0
1,79,96,4
1,78,96,4
1,74,96,4
1,71,96,0
1,67,96,0
1,74,96,4
1,79,96,4
1,74,96,0
1,71,96,0
1,78,96,4
1,74,96,4
1,71,96,192
1,72,96,4
1,79,96,192
1,76,96,0
1,78,96,4
1,74,96,4
1,72,96,0
1,67,96,0
1,79,96,4
1,78,96,4
1,74,96,4
1,72,96,0
1,67,96,0
1,79,96,4
1,76,96,0
1,72,96,0
1,78,96,4
1,74,96,4
1,71,96,4
1,71,96,4
1,76,96,4
1,79,96,0
1,72,96,0
1,78,96,4
1,76,96,4
1,76,96,4
1,72,96,0
1,69,96,0
1,71,96,196
1,76,96,4
1,79,96,0
1,72,96,0
1,78,96,4
1,76,96,4
1,76,96,4
1,72,96,0
1,69,96,0
1,71,96,4
1,74,96,4
1,76,96,4
1,74,96,0
1,67,96,0
1,76,96,4
1,74,96,4
1,71,96,4
1,76,96,388
1,74,96,0
1,67,96,0
1,71,96,4
1,67,96,0
1,62,96,0
1,67,96,4
1,69,96,4
1,64,96,0
1,62,96,0
1,64,96,4
1,67,96,1156
1,62,96,0
1,59,96,0
1,71,96,4
1,67,96,0
1,62,96,0
1,67,96,4
1,69,96,4
1,67,96,0
1,60,96,0
1,64,96,4
1,67,96,1156
1,64,96,0
1,60,96,0
1,69,96,4
1,64,96,0
1,60,96,0
1,67,96,4
1,69,96,4
1,67,96,0
1,60,96,0
1,64,96,4
1,67,96,1156
1,62,96,0
1,59,96,0
1,71,96,4
1,67,96,0
1,62,96,0
1,67,96,4
1,69,96,4
1,67,96,0
1,60,96,0
1,64,96,4
1,67,96,1156
1,64,96,0
1,60,96,0
1,69,96,4
1,64,96,0
1,60,96,0
1,67,96,4
1,69,96,4
1,64,96,0
1,62,96,0
1,64,96,4
1,67,96,1156
1,62,96,0
1,59,96,0
1,71,96,4
1,67,96,0
1,62,96,0
1,67,96,4
1,69,96,4
1,67,96,0
1,60,96,0
1,64,96,4
1,67,96,1156
1,64,96,0
1,60,96,0
1,69,96,4
1,64,96,0
1,60,96,0
1,67,96,4
1,69,96,4
1,67,96,0
1,60,96,0
1,64,96,4
1,67,96,1156
1,62,96,0
1,59,96,0
1,71,96,4
1,67,96,0
1,62,96,0
1,67,96,4
1,69,96,4
1,67,96,0
1,60,96,0
1,64,96,4
1,76,96,1156
1,72,96,0
1,67,96,0
1,74,96,4
1,71,96,4
1,76,96,4
1,72,96,0
1,67,96,0
1,79,96,100
1,74,96,0
1,71,96,0
1,78,96,4
1,74,96,4
1,71,96,0
1,67,96,0
1,79,96,4
1,78,96,4
1,74,96,4
1,71,96,0
1,67,96,0
1,74,96,4
1,79,96,4
1,74,96,0
1,71,96,0
1,78,96,4
1,74,96,4
1,71,96,192
1,72,96,4
1,76,96,192
1,79,96,0
1,78,96,4
1,74,96,4
1,72,96,0
1,67,96,0
1,79,96,4
1,78,96,4
1,74,96,4
1,72,96,0
1,67,96,0
1,79,96,4
1,76,96,0
1,72,96,0
1,78,96,4
1,74,96,4
1,71,96,192
1,74,96,4
1,79,100,192
1,76,100,0
1,72,100,0
1,79,99,4
1,78,98,4
1,78,97,4
1,76,96,4
1,72,96,0
1,67,96,0
1,74,95,4
1,76,94,4
1,74,93,4
1,76,91,4
1,72,91,0
1,67,91,0
1,76,90,4
1,69,86,580
1,71,85,4
1,72,84,4
1,76,82,4
1,74,82,0
1,67,82,0
1,76,81,4
1,76,79,4
1,74,78,4
1,71,77,4
1,83,77,4
1,76,77,0
1,74,77,0
1,81,75,4
1,79,74,4
1,81,73,4
1,79,73,4
1,76,72,4
1,74,72,4
1,76,71,4
1,79,64,4
1,74,64,0
1,71,64,0
1,78,62,4
1,74,61,4
1,71,61,0
1,67,61,0
1,79,59,4
1,78,58,4
1,74,57,4
1,71,57,0
1,67,57,0
1,74,54,4
1,79,53,4
1,74,53,0
1,71,53,0
1,78,52,4
1,74,51,4
1,71,50,192
1,72,48,4
1,79,46,192
1,76,46,0
1,78,44,4
1,74,42,4
1,72,42,0
1,67,42,0
1,79,41,4
1,78,40,4
1,74,39,4
1,72,39,0
1,67,39,0
1,79,35,4
1,76,35,0
1,72,35,0
1,78,34,4
1,74,33,4
1,71,31,4
1,71,30,4
1,76,28,4
1,79,28,0
1,72,28,0
1,78,27,4
1,76,26,4
1,76,25,4
1,72,25,0
1,69,25,0
1,71,21,196
1,76,19,4
1,79,19,0
1,72,19,0
1,78,18,4
1,76,17,4
1,76,16,4
1,72,16,0
1,69,16,0
1,71,13,4
1,74,12,4
1,76,10,4
1,74,10,0
1,67,10,0
1,76,7,4
1,74,5,4
1,71,4,4
2,40,96,1536
2,40,96,4
2,50,96,4
2,52,96,4
2,47,96,196
2,50,96,4
2,52,96,4
2,40,96,4
2,40,96,4
2,50,96,4
2,52,96,4
2,47,96,196
2,50,96,4
2,52,96,4
2,36,96,4
2,36,96,4
2,43,96,4
2,48,96,4
2,43,96,196
2,45,96,4
2,48,96,4
2,36,96,4
2,36,96,4
2,43,96,4
2,48,96,4
2,43,96,196
2,45,96,4
2,48,96,4
2,40,96,4
2,40,96,4
2,50,96,4
2,52,96,4
2,47,96,196
2,50,96,4
2,52,96,4
2,40,96,4
2,40,96,4
2,50,96,4
2,52,96,4
2,47,96,196
2,50,96,4
2,52,96,4
2,36,96,4
2,36,96,4
2,43,96,4
2,48,96,4
2,43,96,196
2,45,96,4
2,48,96,4
2,36,96,4
2,36,96,4
2,36,96,196
2,36,96,4
2,38,96,4
2,40,96,4
2,40,96,4
2,52,96,4
2,47,96,4
2,50,96,4
2,52,96,4
2,50,96,4
2,47,96,4
2,40,96,4
2,40,96,4
2,52,96,4
2,47,96,4
2,50,96,4
2,52,96,4
2,50,96,4
2,47,96,4
2,45,96,4
2,45,96,4
2,57,96,4
2,52,96,4
2,55,96,4
2,57,96,4
2,55,96,4
2,52,96,4
2,45,96,4
2,45,96,4
2,57,96,4
2,52,96,4
2,55,96,4
2,57,96,4
2,55,96,4
2,52,96,4
2,40,96,4
2,40,96,4
2,52,96,4
2,47,96,4
2,50,96,4
2,52,96,4
2,50,96,4
2,47,96,4
2,40,96,4
2,40,96,4
2,52,96,4
2,47,96,4
2,50,96,4
2,52,96,4
2,50,96,4
2,47,96,4
2,45,96,4
2,45,96,4
2,57,96,4
2,52,96,4
2,55,96,4
2,57,96,4
2,55,96,4
2,52,96,4
2,45,96,4
2,45,96,4
2,57,96,4
2,52,96,4
2,55,96,4
2,57,96,4
2,55,96,4
2,52,96,4
2,40,96,4
2,40,96,4
2,52,96,4
2,47,96,4
2,50,96,4
2,52,96,4
2,50,96,4
2,47,96,4
2,40,96,4
2,40,96,4
2,52,96,4
2,47,96,4
2,50,96,4
2,52,96,4
2,50,96,4
2,47,96,4
2,45,96,4
2,45,96,4
2,57,96,4
2,52,96,4
2,55,96,4
2,57,96,4
2,55,96,4
2,52,96,4
2,45,96,4
2,45,96,4
2,57,96,4
2,52,96,4
2,55,96,4
2,57,96,4
2,55,96,4
2,52,96,4
2,40,96,4
2,40,96,4
2,52,96,4
2,47,96,4
2,50,96,4
2,52,96,4
2,50,96,4
2,47,96,4
2,40,96,4
2,40,96,4
2,52,96,4
2,47,96,4
2,50,96,4
2,52,96,4
2,50,96,4
2,47,96,4
2,45,96,4
2,45,96,4
2,57,96,4
2,52,96,4
2,55,96,4
2,57,96,4
2,55,96,4
2,52,96,4
2,45,96,4
2,45,96,4
2,57,96,4
2,52,96,4
2,55,96,4
2,57,96,4
2,55,96,4
2,52,96,4
2,36,96,4
2,36,96,4
2,36,96,4
2,36,96,4
2,36,96,4
2,36,96,4
