track,note,velocity,time
1,67,24,567
1,69,12,0
1,71,16,10
1,72,24,10
1,67,0,1
1,69,0,9
1,74,33,0
1,71,0,10
1,76,33,0
1,77,33,10
1,72,0,10
1,79,33,1
1,74,0,9
1,81,33,0
1,76,0,10
1,83,20,10
1,77,0,10
1,84,16,10
1,79,0,11
1,81,0,9
1,86,20,0
1,88,24,10
1,83,0,10
1,89,24,11
1,84,0,9
1,91,16,0
1,86,0,10
1,93,24,10
1,88,0,10
1,95,16,1
1,89,0,9
1,96,24,10
1,91,0,10
1,93,0,0
1,98,16,0
1,96,0,5
1,98,0,10
1,95,0,2
1,102,47,0
1,105,48,0
1,96,51,0
1,98,51,0
1,100,0,0
1,100,0,17
1,96,0,1563
1,98,0,0
1,105,0,27
1,102,0,13
1,95,51,0
1,93,51,0
1,91,24,0
1,89,16,0
1,91,0,17
1,89,0,0
1,93,0,10
1,95,0,13
1,98,42,20
1,96,42,0
1,108,33,0
1,107,48,0
1,103,47,0
1,108,0,10
1,103,0,67
1,107,0,3
1,98,0,7
1,96,0,10
1,102,48,23
1,105,48,0
1,98,42,0
1,96,33,0
1,98,0,3637
1,105,0,3
1,96,0,0
1,102,0,10
1,93,51,10
1,95,51,0
1,91,42,0
1,89,0,0
1,89,0,10
1,95,0,10
1,93,0,10
1,91,0,0
1,98,42,30
1,103,51,0
1,96,51,0
1,107,51,0
1,107,0,60
1,103,0,7
1,96,0,23
1,98,0,10
1,102,51,20
1,105,51,0
1,96,24,0
1,98,24,0
1,98,0,1010
1,103,24,0
1,102,0,7
1,96,0,3
1,105,0,7
1,101,12,4
1,100,24,9
1,103,0,20
1,98,12,10
1,101,0,10
1,96,16,10
1,100,0,10
1,95,12,10
1,98,0,20
1,93,16,10
1,96,0,20
1,91,16,11
1,95,0,9
1,89,16,10
1,93,0,20
1,88,16,10
1,91,0,20
1,86,12,0
1,89,0,20
1,84,0,10
1,88,0,10
1,83,12,10
1,86,0,10
1,84,0,10
1,81,8,0
1,79,33,10
1,83,0,10
1,77,33,0
1,81,0,10
1,79,0,0
1,76,42,0
1,77,0,10
1,76,0,1
1,74,24,0
1,74,0,9
1,86,33,5951
1,98,50,9
1,92,50,0
1,96,41,0
1,93,68,20
1,92,0,10
1,96,0,420
1,91,33,30
1,95,50,0
1,93,0,50
1,91,0,1900
1,98,0,80
1,86,0,10
1,95,0,20
1,92,61,111
1,86,61,0
1,98,61,9
1,96,34,0
1,93,43,0
1,92,0,10
1,96,0,0
1,86,0,70
1,98,0,10
1,93,0,0
1,86,61,21
1,86,0,49
1,86,61,51
1,92,61,9
1,98,61,0
1,93,52,30
1,92,0,1
1,86,0,79
1,98,0,0
1,93,0,10
1,86,61,0
1,86,0,60
1,98,61,420
1,86,61,10
1,92,61,1
1,96,52,0
1,97,43,9
1,93,34,0
1,96,0,10
1,97,0,0
1,92,0,20
1,86,0,20
1,93,0,20
1,98,0,10
1,86,43,20
1,86,0,50
1,96,61,200
1,92,61,1
1,86,52,0
1,92,0,19
1,93,22,0
1,86,0,70
1,96,0,10
1,93,0,11
1,86,43,0
1,86,0,59
1,95,61,60
1,91,61,0
1,86,61,10
1,86,0,200
1,95,0,20
1,91,0,0
1,86,30,20
1,86,0,20
1,86,43,100
1,86,0,50
1,92,61,60
1,86,52,0
1,98,61,10
1,93,52,20
1,92,0,10
1,86,0,41
1,98,0,9
1,93,0,0
1,86,26,40
1,86,0,40
1,86,61,60
1,92,61,0
1,98,61,0
1,93,43,40
1,92,0,10
1,86,0,50
1,98,0,10
1,93,0,1
1,86,52,19
1,86,0,60
1,98,61,420
1,86,61,0
1,92,61,0
1,93,61,10
1,97,30,0
1,92,0,20
1,97,0,0
1,86,0,60
1,93,0,0
1,98,0,20
1,86,52,11
1,86,0,59
1,92,0,70
1,92,0,10
1,96,61,100
1,86,61,10
1,92,61,0
1,92,0,40
1,93,52,0
1,86,0,50
1,96,0,10
1,93,0,10
1,86,43,10
1,86,0,50
1,95,61,61
1,91,52,0
1,86,61,0
1,86,0,209
1,95,0,20
1,91,0,0
1,86,30,20
1,86,0,20
1,86,43,100
1,86,0,40
1,92,61,60
1,86,61,0
1,98,61,0
1,96,52,10
1,96,0,10
1,92,0,40
1,86,0,10
1,98,0,20
1,86,61,30
1,86,0,40
1,92,61,80
1,98,61,0
1,86,61,10
1,96,52,10
1,97,43,0
1,96,0,1
1,97,0,0
1,92,0,19
1,93,61,0
1,98,0,70
1,86,0,0
1,93,0,11
1,86,61,9
1,86,0,50
1,86,61,420
1,98,61,10
1,92,61,0
1,93,52,20
1,92,0,10
1,86,0,70
1,98,0,0
1,93,0,10
1,86,43,10
1,85,0,20
1,85,0,20
1,86,0,10
1,92,18,61
1,92,0,19
1,96,61,110
1,86,61,0
1,92,61,0
1,93,52,0
1,92,0,17
1,86,0,74
1,96,0,19
1,93,0,7
1,86,43,3
1,86,0,50
1,95,61,70
1,91,61,0
1,86,61,0
1,91,0,157
1,95,0,10
1,86,0,33
1,98,57,40
1,86,61,0
1,95,52,0
1,91,52,0
1,96,34,0
1,96,0,20
1,98,0,1920
1,86,0,7
1,95,0,14
1,91,0,9
1,98,43,1620
1,93,52,10
1,86,61,1
1,96,52,0
1,98,0,79
1,93,0,0
1,86,0,0
1,96,0,10
1,93,61,40
1,96,61,0
1,98,61,0
1,86,61,10
1,98,0,100
1,86,0,0
1,93,0,10
1,96,0,10
1,103,44,1900
1,98,61,0
1,93,65,0
1,93,0,297
1,103,0,23
1,102,44,40
1,93,65,0
1,102,0,511
1,93,0,9
1,98,0,17
1,100,61,63
1,98,61,0
1,93,65,0
1,93,0,300
1,100,0,20
1,98,0,10
1,98,52,30
1,102,44,0
1,93,65,0
1,98,0,521
1,102,0,9
1,101,43,0
1,93,0,10
1,100,34,0
1,101,0,10
1,98,43,10
1,100,0,21
1,95,60,0
1,91,64,0
1,91,0,339
1,95,0,1
1,98,0,19
1,91,61,30
1,100,61,0
1,96,61,0
1,100,0,500
1,91,0,20
1,96,0,0
1,91,61,60
1,96,61,0
1,88,61,10
1,88,0,310
1,91,0,10
1,96,0,20
1,96,61,30
1,93,61,0
1,89,61,10
1,89,0,280
1,93,0,10
1,96,0,30
1,98,61,30
1,95,61,0
1,91,61,10
1,100,61,1
1,100,0,9
1,91,0,150
1,95,0,20
1,98,0,30
1,100,61,0
1,101,61,2
1,100,0,8
1,103,44,0
1,93,65,0
1,98,60,0
1,101,0,30
1,103,0,290
1,93,0,0
1,98,0,20
1,93,65,20
1,102,44,0
1,98,60,0
1,93,0,530
1,102,0,1
1,98,0,16
1,98,52,53
1,100,61,0
1,93,65,0
1,93,0,287
1,100,0,3
1,98,0,30
1,98,52,40
1,93,65,0
1,102,44,0
1,98,0,537
1,93,0,3
1,102,0,7
1,96,61,53
1,88,52,0
1,91,52,0
1,93,61,0
1,91,0,760
1,93,0,0
1,88,0,10
1,96,0,17
1,96,61,53
1,88,61,10
1,91,61,0
1,100,61,0
1,93,61,10
1,91,0,870
1,93,0,0
1,88,0,20
1,96,0,20
1,100,0,0
1,100,43,30
1,96,61,0
1,103,61,10
1,91,61,1
1,93,61,9
1,88,61,0
1,101,14,1200
1,91,0,20
1,103,0,1
1,93,0,0
1,88,0,9
1,98,61,0
1,101,0,10
1,100,0,10
1,95,52,10
1,98,0,1
1,93,61,0
1,96,0,19
1,91,52,0
1,95,0,10
1,93,0,0
1,89,43,0
1,88,52,0
1,91,0,20
1,86,61,0
1,84,61,0
1,89,0,10
1,88,0,0
1,83,52,0
1,86,0,10
1,81,61,0
1,79,61,10
1,84,0,1
1,83,0,9
1,77,52,0
1,81,0,10
1,76,52,0
1,79,0,10
1,77,0,0
1,74,43,0
1,76,0,11
1,72,26,0
1,74,0,9
1,72,0,10
1,96,34,620
1,98,43,0
1,86,52,0
1,92,52,0
1,92,0,120
1,93,61,0
1,93,0,130
1,92,52,110
1,93,61,120
1,92,0,1
1,93,0,129
1,92,43,110
1,93,52,120
1,92,0,30
1,93,0,80
1,92,52,130
1,93,61,120
1,92,0,11
1,93,0,616
1,92,61,93
1,93,61,120
1,92,0,7
1,93,0,103
1,92,61,130
1,93,61,120
1,92,0,10
1,93,0,120
1,92,43,110
1,93,61,120
1,92,0,40
1,93,0,80
1,92,43,120
1,93,61,120
1,92,0,30
1,93,0,610
1,92,61,80
1,93,61,120
1,92,0,21
1,93,0,109
1,92,52,110
1,92,0,120
1,93,61,0
1,93,0,121
1,92,52,119
1,93,61,120
1,92,0,1
1,93,0,139
1,92,52,100
1,92,0,110
1,93,61,10
1,96,0,600
1,93,0,20
1,86,0,20
1,98,0,17
1,86,61,63
1,95,61,0
1,91,61,0
1,98,61,0
1,91,0,1940
1,86,0,10
1,95,0,0
1,98,0,30
1,96,52,900
1,98,52,0
1,86,61,0
1,92,61,0
1,95,61,0
1,95,0,17
1,92,0,30
1,93,43,13
1,86,0,1427
1,69,18,3
1,71,34,20
1,69,0,1
1,74,43,9
1,72,0,0
1,96,0,10
1,71,0,0
1,76,52,0
1,98,0,7
1,93,0,3
1,77,52,0
1,72,0,20
1,79,34,0
1,74,0,10
1,76,0,1
1,81,43,0
1,83,34,9
1,77,0,10
1,84,43,0
1,79,0,10
1,86,52,0
1,81,0,10
1,88,52,1
1,83,0,9
1,89,43,0
1,84,0,10
1,91,52,0
1,86,0,10
1,93,6,10
1,88,0,10
1,106,44,0
1,89,0,10
1,107,53,0
1,98,30,10
1,102,61,10
1,105,61,1
1,96,52,0
1,91,0,9
1,93,0,0
1,106,0,0
1,107,0,0
1,98,0,60
1,96,0,0
1,102,0,20
1,105,0,0
1,105,50,40
1,98,61,10
1,102,50,1
1,96,61,0
1,98,0,3619
1,95,54,10
1,93,54,1
1,105,0,9
1,91,54,0
1,89,45,0
1,102,0,10
1,96,0,0
1,89,0,10
1,91,0,10
1,95,0,1
1,93,0,0
1,98,42,19
1,96,27,0
1,107,54,0
1,103,11,10
1,103,0,81
1,107,0,9
1,105,54,30
1,102,54,10
1,107,27,0
1,107,0,20
1,98,0,3600
1,96,0,10
1,105,0,0
1,95,54,10
1,93,54,10
1,102,0,1
1,91,45,0
1,89,27,0
1,95,0,19
1,89,0,0
1,93,0,10
1,91,0,0
1,107,54,20
1,98,45,0
1,103,54,10
1,96,45,0
1,107,0,80
1,103,0,0
1,98,0,10
1,96,0,10
1,96,27,21
1,102,54,9
1,105,54,0
1,98,54,0
1,98,0,1670
1,96,0,10
1,103,7,0
1,101,27,20
1,102,0,10
1,105,0,0
1,100,45,0
1,103,0,20
1,98,23,0
1,101,0,10
1,96,27,10
1,100,0,20
1,95,27,0
1,98,0,20
1,93,27,0
1,96,0,20
1,91,36,0
1,95,0,20
1,89,19,0
1,93,0,20
1,88,36,10
1,91,0,20
1,86,36,1
1,89,0,19
1,84,23,0
1,88,0,30
1,83,23,0
1,81,36,20
1,86,0,10
1,81,0,1
1,84,0,9
1,81,27,0
1,79,27,0
1,83,0,10
1,81,0,10
1,79,0,0
1,98,61,30
1,93,61,0
1,103,50,0
1,93,0,297
1,103,0,23
1,93,61,40
1,102,44,0
1,102,0,511
1,93,0,9
1,98,0,17
1,100,61,63
1,98,61,0
1,93,61,0
1,93,0,300
1,100,0,20
1,98,0,10
1,93,61,30
1,98,52,0
1,102,44,0
1,98,0,521
1,102,0,9
1,101,43,0
1,93,0,10
1,100,34,0
1,101,0,10
1,98,43,10
1,100,0,21
1,91,60,0
1,95,60,0
1,91,0,339
1,95,0,1
1,98,0,19
1,91,61,30
1,100,61,0
1,96,61,0
1,100,0,500
1,91,0,20
1,96,0,0
1,91,61,60
1,96,61,0
1,88,61,10
1,88,0,310
1,91,0,10
1,96,0,20
1,96,61,30
1,93,61,0
1,89,61,10
1,89,0,280
1,93,0,10
1,96,0,30
1,98,61,30
1,95,61,0
1,91,61,10
1,100,61,1
1,100,0,9
1,91,0,150
1,95,0,20
1,98,0,30
1,100,61,0
1,101,61,2
1,100,0,8
1,93,52,0
1,98,43,0
1,103,50,5
1,101,0,2
1,93,0,313
1,103,0,0
1,98,0,20
1,98,30,20
1,93,61,0
1,102,52,0
1,93,0,530
1,102,0,1
1,98,0,16
1,98,52,53
1,100,61,0
1,93,61,0
1,93,0,287
1,100,0,3
1,98,0,30
1,93,52,40
1,98,52,0
1,102,50,0
1,98,0,537
1,93,0,3
1,102,0,7
1,96,61,53
1,88,52,0
1,91,52,0
1,93,61,0
1,91,0,760
1,93,0,0
1,88,0,10
1,96,0,17
1,96,61,53
1,88,61,10
1,91,61,0
1,100,61,0
1,93,61,10
1,91,0,870
1,93,0,0
1,88,0,20
1,96,0,20
1,100,0,0
1,100,43,30
1,96,61,0
1,103,61,10
1,91,61,1
1,93,61,9
1,88,61,0
1,101,14,1200
1,91,0,20
1,103,0,1
1,93,0,0
1,88,0,9
1,98,61,0
1,101,0,10
1,100,0,10
1,95,52,10
1,98,0,1
1,93,61,0
1,96,0,19
1,91,52,0
1,95,0,10
1,93,0,0
1,89,43,0
1,88,52,0
1,91,0,20
1,86,61,0
1,84,61,0
1,89,0,10
1,88,0,0
1,83,52,0
1,86,0,10
1,81,61,0
1,79,61,10
1,84,0,1
1,83,0,9
1,77,52,0
1,81,0,10
1,76,52,0
1,79,0,10
1,77,0,0
1,74,43,0
1,76,0,11
1,72,26,0
1,74,0,9
1,72,0,10
1,102,43,620
1,98,43,0
1,105,52,0
1,96,43,0
1,92,26,0
1,93,52,120
1,92,0,17
1,93,0,103
1,92,52,120
1,93,61,120
1,92,0,30
1,93,0,90
1,92,52,120
1,93,52,120
1,92,0,20
1,93,0,121
1,92,52,99
1,93,61,120
1,92,0,10
1,93,0,620
1,92,61,90
1,92,0,120
1,93,61,0
1,93,0,140
1,92,43,100
1,93,61,120
1,92,0,10
1,93,0,130
1,92,61,100
1,93,61,120
1,92,0,30
1,93,0,100
1,92,43,110
1,93,61,120
1,92,0,10
1,93,0,610
1,92,52,100
1,93,52,120
1,92,0,40
1,93,0,90
1,92,43,110
1,93,61,120
1,92,0,10
1,93,0,130
1,92,52,100
1,93,61,120
1,92,0,20
1,93,0,120
1,92,52,100
1,92,0,120
1,93,61,0
1,98,0,677
1,96,0,0
1,105,0,13
1,103,50,30
1,107,52,0
1,98,61,0
1,95,61,0
1,102,0,20
1,93,0,40
1,98,0,1837
1,107,0,3
1,95,0,8
1,103,0,2
1,92,61,5050
1,86,61,0
1,98,52,0
1,93,52,30
1,92,0,10
1,86,0,50
1,98,0,10
1,93,0,0
1,86,52,20
1,86,0,50
1,86,61,50
1,92,61,10
1,98,61,0
1,96,14,10
1,96,0,10
1,92,0,10
1,93,52,0
1,98,0,91
1,93,0,9
1,86,0,90
1,86,61,510
1,92,61,0
1,98,61,0
1,96,43,10
1,93,52,1
1,92,0,9
1,96,0,0
1,86,0,30
1,93,0,20
1,98,0,10
1,86,61,30
1,86,0,40
1,86,61,70
1,96,61,0
1,92,61,0
1,93,34,30
1,92,0,10
1,96,0,150
1,93,0,10
1,86,0,40
1,86,22,10
1,95,61,0
1,91,61,0
1,86,0,210
1,95,0,10
1,91,0,10
1,86,61,11
1,86,0,39
1,86,61,80
1,86,0,50
1,92,61,60
1,86,61,0
1,98,61,0
1,93,52,30
1,92,0,10
1,86,0,50
1,98,0,10
1,93,0,0
1,86,61,21
1,86,0,40
1,86,61,79
1,92,61,0
1,98,61,0
1,96,61,10
1,96,0,10
1,92,0,30
1,93,43,0
1,86,0,40
1,98,0,20
1,93,0,10
1,86,61,21
1,86,0,59
1,92,61,430
1,86,61,0
1,98,61,0
1,93,61,0
1,92,0,20
1,86,0,60
1,98,0,10
1,93,0,10
1,86,34,10
1,86,0,50
1,92,0,80
1,92,0,1
1,92,61,119
1,96,61,11
1,86,52,0
1,97,52,9
1,97,0,10
1,93,52,10
1,92,0,11
1,86,0,39
1,96,0,20
1,93,0,0
1,86,61,0
1,86,0,50
1,95,61,80
1,86,61,0
1,91,61,0
1,86,0,211
