track,note,velocity,time
1,65,100,960
1,67,100,0
1,65,100,0
1,69,100,0
1,69,100,0
1,69,100,0
1,67,100,0
1,65,100,0
1,65,100,0
1,62,100,0
1,60,100,0
1,60,100,60
1,62,100,0
1,65,100,0
1,65,100,0
1,65,100,0
1,65,100,0
1,69,100,0
1,69,100,0
1,67,100,0
1,65,100,0
1,72,100,0
1,72,100,120
1,74,100,0
1,72,100,0
1,72,100,0
1,72,100,0
1,72,100,0
1,69,100,0
1,69,100,0
1,69,100,0
1,65,100,0
1,67,100,0
1,67,100,0
1,65,100,0
1,65,100,0
1,64,100,0
1,62,100,0
1,60,100,0
1,60,100,120
1,65,100,0
1,65,100,0
1,65,100,0
1,67,100,0
1,69,100,0
1,69,100,0
1,67,100,0
1,67,100,0
1,65,100,0
1,65,100,360
1,69,100,0
1,69,100,0
1,72,100,0
1,69,100,0
1,69,100,0
1,67,100,0
1,65,100,0
1,62,100,0
1,65,100,0
1,65,100,0
1,67,100,0
1,65,100,0
1,69,100,240
1,69,100,0
1,72,100,0
1,69,100,0
1,69,100,0
1,67,100,0
1,65,100,0
1,65,100,0
1,65,100,0
1,67,100,0
1,65,100,0
1,72,100,120
1,72,100,0
1,74,100,0
1,74,100,0
1,74,100,0
1,74,100,0
1,74,100,0
1,72,100,0
1,70,100,0
1,72,100,0
1,74,100,0
1,72,100,0
1,69,100,480
1,69,100,0
1,72,100,0
1,69,100,0
1,69,100,0
1,67,100,0
1,67,100,0
1,65,100,0
1,62,100,0
1,65,100,0
1,65,100,0
1,65,100,360
1,65,100,0
1,69,100,0
1,69,100,0
1,72,100,0
1,69,100,0
1,67,100,0
1,65,100,0
1,62,100,0
1,65,100,0
1,65,100,0
1,69,100,0
1,67,100,0
1,69,100,0
1,69,100,240
1,69,100,0
1,69,100,0
1,72,100,0
1,69,100,0
1,69,100,0
1,67,100,0
1,65,100,0
1,65,100,0
1,65,100,0
1,69,100,0
1,67,100,0
1,69,100,0
1,72,100,240
1,72,100,0
1,74,100,0
1,74,100,0
1,74,100,0
1,74,100,0
1,74,100,0
1,72,100,0
1,70,100,0
1,72,100,0
1,74,100,0
1,72,100,0
1,60,100,360
1,69,100,0
1,69,100,0
1,72,100,0
1,69,100,0
1,67,100,0
1,65,100,0
1,62,100,0
1,65,100,0
1,65,100,0
1,65,100,480
1,67,100,0
1,65,100,0
1,69,100,0
1,69,100,0
1,69,100,0
1,67,100,0
1,65,100,0
1,65,100,0
1,62,100,0
1,60,100,0
1,60,100,60
1,62,100,0
1,65,100,0
1,65,100,0
1,65,100,0
1,65,100,0
1,69,100,0
1,69,100,0
1,67,100,0
1,65,100,0
1,72,100,0
1,72,100,120
1,74,100,0
1,72,100,0
1,72,100,0
1,72,100,0
1,72,100,0
1,69,100,0
1,69,100,0
1,69,100,0
1,65,100,0
1,67,100,0
1,67,100,0
1,65,100,0
1,65,100,0
1,64,100,0
1,62,100,0
1,60,100,0
1,60,100,120
1,65,100,0
1,65,100,0
1,65,100,0
1,67,100,0
1,69,100,0
1,69,100,0
1,67,100,0
1,67,100,0
1,65,100,0
1,65,100,240
1,67,100,0
1,65,100,0
1,69,100,0
1,69,100,0
1,69,100,0
1,67,100,0
1,65,100,0
1,65,100,0
1,62,100,0
1,60,100,0
1,60,100,60
1,62,100,0
1,65,100,0
1,65,100,0
1,65,100,0
1,65,100,0
1,69,100,0
1,69,100,0
1,67,100,0
1,65,100,0
1,72,100,0
1,72,100,120
1,74,100,0
1,72,100,0
1,72,100,0
1,72,100,0
1,72,100,0
1,69,100,0
1,69,100,0
1,69,100,0
1,65,100,0
1,67,100,0
1,67,100,0
1,65,100,0
1,65,100,0
1,64,100,0
1,62,100,0
1,60,100,0
1,60,100,120
1,65,100,0
1,65,100,0
1,65,100,0
1,67,100,0
1,69,100,0
1,69,100,0
1,67,100,0
1,67,100,0
1,65,100,0
1,65,100,480
1,67,100,0
1,65,100,0
1,69,100,0
1,69,100,0
1,69,100,0
1,67,100,0
1,65,100,0
1,65,100,0
1,62,100,0
1,60,100,0
1,60,100,60
1,62,100,0
1,65,100,0
1,65,100,0
1,65,100,0
1,65,100,0
1,69,100,0
1,69,100,0
1,67,100,0
1,65,100,0
1,72,100,0
1,72,100,120
1,74,100,0
1,72,100,0
1,72,100,0
1,72,100,0
1,72,100,0
1,69,100,0
1,69,100,0
1,69,100,0
1,65,100,0
1,67,100,0
1,67,100,0
1,65,100,0
1,65,100,0
1,64,100,0
1,62,100,0
1,60,100,0
1,60,100,120
1,65,100,0
1,65,100,0
1,65,100,0
1,67,100,0
1,69,100,0
1,69,100,0
1,67,100,0
1,67,100,0
1,65,100,0
1,65,100,240
1,67,100,0
1,65,100,0
1,69,100,0
1,69,100,0
1,69,100,0
1,67,100,0
1,65,100,0
1,65,100,0
1,62,100,0
1,60,100,0
1,60,100,60
1,62,100,0
1,65,100,0
1,65,100,0
1,65,100,0
1,65,100,0
1,69,100,0
1,69,100,0
1,67,100,0
1,65,100,0
1,72,100,0
1,72,100,120
1,74,100,0
1,72,100,0
1,72,100,0
1,72,100,0
1,72,100,0
1,69,100,0
1,69,100,0
1,69,100,0
1,65,100,0
1,67,100,0
1,67,100,0
1,65,100,0
1,65,100,0
1,64,100,0
1,62,100,0
1,60,100,0
1,60,100,120
1,65,100,0
1,65,100,0
1,65,100,0
1,67,100,0
1,69,100,0
1,69,100,0
1,67,100,0
1,67,100,0
1,65,100,0
1,65,100,44
1,67,100,0
1,65,100,0
1,69,100,0
1,69,100,0
1,69,100,0
1,67,100,0
1,65,100,0
1,65,100,0
1,62,100,0
1,60,100,0
1,60,100,40
1,62,100,0
1,65,100,0
1,65,100,0
1,65,100,0
1,65,100,0
1,69,100,0
1,69,100,0
1,67,100,0
1,65,100,0
1,72,100,0
1,72,100,12
1,74,100,0
1,72,100,0
1,72,100,0
1,72,100,0
1,72,100,0
1,69,100,0
1,69,100,0
1,69,100,0
1,65,100,0
1,67,100,0
1,67,100,0
1,65,100,0
1,65,100,0
1,64,100,0
1,62,100,0
1,60,100,0
1,60,100,120
2,65,90,960
2,67,90,0
2,65,90,0
2,69,90,0
2,69,90,0
2,69,90,0
2,67,90,0
2,65,90,0
2,65,90,0
2,62,90,0
2,60,90,0
2,60,90,60
2,62,90,0
2,65,90,0
2,65,90,0
2,65,90,0
2,65,90,0
2,69,90,0
2,69,90,0
2,67,90,0
2,65,90,0
2,72,90,0
2,72,90,120
2,74,90,0
2,72,90,0
2,72,90,0
2,72,90,0
2,72,90,0
2,69,90,0
2,69,90,0
2,69,90,0
2,65,90,0
2,67,90,0
2,67,90,0
2,65,90,0
2,65,90,0
2,64,90,0
2,62,90,0
2,60,90,0
2,60,90,120
2,65,90,0
2,65,90,0
2,65,90,0
2,67,90,0
2,69,90,0
2,69,90,0
2,67,90,0
2,67,90,0
2,65,90,0
2,65,90,23520
2,67,90,0
2,65,90,0
2,69,90,0
2,69,90,0
2,69,90,0
2,67,90,0
2,65,90,0
2,65,90,0
2,62,90,0
2,60,90,0
2,60,90,60
2,62,90,0
2,65,90,0
2,65,90,0
2,65,90,0
2,65,90,0
2,69,90,0
2,69,90,0
2,67,90,0
2,65,90,0
2,72,90,0
2,72,90,120
2,74,90,0
2,72,90,0
2,72,90,0
2,72,90,0
2,72,90,0
2,69,90,0
2,69,90,0
2,69,90,0
2,65,90,0
2,67,90,0
2,67,90,0
2,65,90,0
2,65,90,0
2,64,90,0
2,62,90,0
2,60,90,0
2,60,90,120
2,65,90,0
2,65,90,0
2,65,90,0
2,67,90,0
2,69,90,0
2,69,90,0
2,67,90,0
2,67,90,0
2,65,90,0
2,65,90,480
2,67,90,0
2,65,90,0
2,69,90,0
2,69,90,0
2,69,90,0
2,67,90,0
2,65,90,0
2,65,90,0
2,62,90,0
2,60,90,0
2,60,90,60
2,62,90,0
2,65,90,0
2,65,90,0
2,65,90,0
2,65,90,0
2,69,90,0
2,69,90,0
2,67,90,0
2,65,90,0
2,72,90,0
2,72,90,120
2,74,90,0
2,72,90,0
2,72,90,0
2,72,90,0
2,72,90,0
2,69,90,0
2,69,90,0
2,69,90,0
2,65,90,0
2,67,90,0
2,67,90,0
2,65,90,0
2,65,90,0
2,64,90,0
2,62,90,0
2,60,90,0
2,60,90,120
2,65,90,0
2,65,90,0
2,65,90,0
2,67,90,0
2,69,90,0
2,69,90,0
2,67,90,0
2,67,90,0
2,65,90,0
2,65,90,240
2,67,90,0
2,65,90,0
2,69,90,0
2,69,90,0
2,69,90,0
2,67,90,0
2,65,90,0
2,65,90,0
2,62,90,0
2,60,90,0
2,60,90,60
2,62,90,0
2,65,90,0
2,65,90,0
2,65,90,0
2,65,90,0
2,69,90,0
2,69,90,0
2,67,90,0
2,65,90,0
2,72,90,0
2,72,90,120
2,74,90,0
2,72,90,0
2,72,90,0
2,72,90,0
2,72,90,0
2,69,90,0
2,69,90,0
2,69,90,0
2,65,90,0
2,67,90,0
2,67,90,0
2,65,90,0
2,65,90,0
2,64,90,0
2,62,90,0
2,60,90,0
2,60,90,120
2,65,90,0
2,65,90,0
2,65,90,0
2,67,90,0
2,69,90,0
2,69,90,0
2,67,90,0
2,67,90,0
2,65,90,0
2,65,90,44
2,67,90,0
2,65,90,0
2,69,90,0
2,69,90,0
2,69,90,0
2,67,90,0
2,65,90,0
2,65,90,0
2,62,90,0
2,60,90,0
2,60,90,40
2,62,90,0
2,65,90,0
2,65,90,0
2,65,90,0
2,65,90,0
2,69,90,0
2,69,90,0
2,67,90,0
2,65,90,0
2,72,90,0
2,72,90,12
2,74,90,0
2,72,90,0
2,72,90,0
2,72,90,0
2,72,90,0
2,69,90,0
2,69,90,0
2,69,90,0
2,65,90,0
2,67,90,0
2,67,90,0
2,65,90,0
2,65,90,0
2,64,90,0
2,62,90,0
2,60,90,0
2,60,90,120
3,58,90,7680
3,62,90,0
3,65,90,0
3,60,90,0
3,57,90,0
3,60,90,0
3,65,90,0
3,58,90,0
3,60,90,0
3,57,90,0
3,60,90,0
3,65,90,0
3,63,90,0
3,58,90,0
3,57,90,0
3,60,90,0
3,65,90,0
3,70,90,0
3,65,90,0
3,66,90,0
3,69,90,0
3,67,90,0
3,62,90,0
3,64,90,0
3,70,90,0
3,65,90,0
3,69,90,0
3,72,90,0
3,60,90,0
3,65,90,0
3,58,90,0
3,65,90,0
3,60,90,0
3,57,90,0
3,65,90,0
3,60,90,0
3,58,90,0
3,57,90,0
3,60,90,0
3,65,90,0
3,60,90,0
3,58,90,0
3,63,90,0
3,60,90,0
3,57,90,0
3,65,90,0
3,65,90,0
3,70,90,0
3,69,90,0
3,66,90,0
3,62,90,0
3,67,90,0
3,70,90,0
3,64,90,0
3,72,90,0
3,69,90,0
3,65,90,0
3,65,90,0
3,60,90,0
3,58,90,0
3,65,90,0
3,60,90,0
3,57,90,0
3,60,90,0
3,65,90,0
3,57,90,0
3,72,90,0
3,69,90,0
3,65,90,0
3,60,90,0
3,65,90,0
3,69,90,0
3,57,90,0
3,60,90,30
3,65,90,30
3,60,90,48
3,57,90,0
3,65,90,0
3,60,90,0
3,58,90,0
3,62,90,0
3,60,90,0
3,57,90,0
3,57,90,0
3,60,90,0
3,60,90,0
3,57,90,0
3,67,90,0
3,64,90,0
3,67,90,0
3,64,90,0
3,69,90,0
3,65,90,0
3,65,90,0
3,60,90,0
3,58,90,0
3,62,90,0
3,60,90,0
3,57,90,0
3,57,90,0
3,60,90,0
3,60,90,0
3,65,90,0
3,64,90,0
3,60,90,0
3,58,90,0
3,62,90,0
3,57,90,0
3,60,90,0
3,60,90,0
3,57,90,0
3,57,90,0
3,60,90,0
3,65,90,5760
3,62,90,0
3,58,90,0
3,57,90,0
3,60,90,0
3,60,90,240
3,57,90,0
3,60,90,0
3,65,90,0
3,62,90,0
3,58,90,0
3,57,90,0
3,60,90,0
3,60,90,0
3,57,90,0
3,57,90,0
3,60,90,0
3,64,90,0
3,67,90,0
3,64,90,0
3,67,90,0
3,65,90,0
3,69,90,0
3,60,90,0
3,65,90,0
3,62,90,0
3,58,90,0
3,57,90,0
3,60,90,0
3,60,90,0
3,57,90,0
3,65,90,0
3,60,90,0
3,60,90,0
3,64,90,0
3,62,90,0
3,58,90,0
3,60,90,0
3,57,90,0
3,57,90,0
3,60,90,0
3,57,90,240
3,60,90,0
3,65,90,0
3,60,90,0
3,58,90,0
3,62,90,0
3,60,90,0
3,57,90,0
3,57,90,0
3,60,90,0
3,60,90,0
3,57,90,0
3,67,90,0
3,64,90,0
3,67,90,0
3,64,90,0
3,69,90,0
3,65,90,0
3,65,90,0
3,60,90,0
3,58,90,0
3,62,90,0
3,60,90,0
3,57,90,0
3,57,90,0
3,60,90,0
3,60,90,0
3,65,90,0
3,64,90,0
3,60,90,0
3,58,90,0
3,62,90,0
3,57,90,0
3,60,90,0
3,60,90,0
3,57,90,0
3,60,90,44
3,57,90,0
3,60,90,0
3,65,90,0
3,62,90,0
3,58,90,0
3,57,90,0
3,60,90,0
3,60,90,0
3,57,90,0
3,57,90,0
3,60,90,0
3,64,90,0
3,67,90,0
3,64,90,0
3,67,90,0
3,65,90,0
3,69,90,0
3,60,90,0
3,65,90,0
3,62,90,0
3,58,90,0
3,57,90,0
3,60,90,0
4,46,90,7680
4,46,90,0
4,41,90,0
4,48,90,0
4,41,90,0
4,39,90,0
4,41,90,0
4,41,90,0
4,41,90,0
4,48,90,0
4,50,90,0
4,41,90,0
4,39,90,0
4,41,90,0
4,41,90,0
4,41,90,0
4,45,90,0
4,46,90,0
4,45,90,0
4,43,90,0
4,36,90,0
4,41,90,0
4,40,90,0
4,38,90,0
4,36,90,0
4,41,90,0
4,39,90,0
4,41,90,0
4,41,90,0
4,41,90,0
4,36,90,0
4,41,90,0
4,41,90,0
4,39,90,0
4,41,90,0
4,41,90,0
4,41,90,0
4,41,90,0
4,48,90,0
4,50,90,0
4,41,90,0
4,41,90,0
4,39,90,0
4,41,90,0
4,41,90,0
4,41,90,0
4,41,90,0
4,45,90,0
4,46,90,0
4,45,90,0
4,43,90,0
4,36,90,0
4,41,90,0
4,40,90,0
4,38,90,0
4,36,90,0
4,41,90,0
4,41,90,0
4,39,90,0
4,41,90,0
4,36,90,0
4,38,90,0
4,38,90,0
4,38,90,0
4,38,90,0
4,40,90,0
4,40,90,0
4,41,90,0
4,41,90,0
4,34,90,0
4,41,90,0
4,41,90,0
4,41,90,0
4,36,90,0
4,36,90,0
4,48,90,0
4,36,90,0
4,41,90,0
4,41,90,0
4,34,90,0
4,41,90,0
4,48,90,0
4,41,90,0
4,41,90,0
4,48,90,0
4,46,90,0
4,46,90,0
4,41,90,0
4,48,90,0
4,41,90,0
4,46,90,5760
4,46,90,0
4,41,90,0
4,48,90,0
4,41,90,0
4,41,90,0
4,34,90,0
4,41,90,0
4,41,90,0
4,41,90,0
4,36,90,0
4,36,90,0
4,48,90,0
4,36,90,0
4,41,90,0
4,41,90,0
4,34,90,0
4,41,90,0
4,48,90,0
4,41,90,0
4,41,90,0
4,48,90,0
4,46,90,0
4,46,90,0
4,41,90,0
4,48,90,0
4,41,90,0
4,41,90,0
4,34,90,0
4,41,90,0
4,41,90,0
4,41,90,0
4,36,90,0
4,36,90,0
4,48,90,0
4,36,90,0
4,41,90,0
4,41,90,0
4,34,90,0
4,41,90,0
4,48,90,0
4,41,90,0
4,41,90,0
4,48,90,0
4,46,90,0
4,46,90,0
4,41,90,0
4,48,90,0
4,41,90,0
4,41,90,0
4,34,90,0
4,41,90,0
4,41,90,0
4,41,90,0
4,36,90,0
4,36,90,0
4,48,90,0
4,36,90,0
4,41,90,0
4,41,90,0
4,34,90,0
4,41,90,0
4,48,90,0
5,41,74,24000
5,53,82,120
5,57,74,0
5,60,62,0
5,60,82,6
5,57,74,0
5,53,62,0
5,48,74,4
5,53,78,120
5,57,74,0
5,60,70,0
5,41,74,4
5,53,55,60
5,53,82,0
5,57,74,0
5,60,62,0
