track,note,velocity,time
1,72,100,0
1,72,0,60
1,72,100,0
1,72,0,60
1,72,100,0
1,72,0,60
1,71,100,180
1,71,0,60
1,71,100,0
1,71,0,60
1,72,100,120
1,72,0,60
1,72,100,60
1,72,0,60
1,71,100,0
1,71,0,60
1,70,100,0
1,70,0,60
1,67,100,0
1,67,0,60
1,69,127,0
1,69,0,60
1,72,127,0
1,72,0,60
1,76,127,60
1,76,0,60
1,72,127,60
1,72,0,60
1,75,127,60
1,75,0,60
1,74,127,60
1,74,0,60
1,72,127,60
1,72,0,60
1,74,127,0
1,74,0,120
1,72,127,0
1,72,0,60
1,71,127,60
1,71,0,60
1,74,127,0
1,74,0,60
1,76,127,60
1,76,0,60
1,74,127,60
1,74,0,60
1,77,127,60
1,77,0,60
1,76,127,60
1,76,0,60
1,74,127,60
1,74,0,60
1,76,127,0
1,76,0,60
1,74,127,0
1,74,0,60
1,72,127,0
1,72,0,60
1,71,127,0
1,71,0,60
1,69,127,0
1,69,0,60
1,72,127,0
1,72,0,60
1,76,127,60
1,76,0,60
1,72,127,60
1,72,0,60
1,75,127,60
1,75,0,60
1,74,127,60
1,74,0,60
1,72,127,60
1,72,0,60
1,74,127,0
1,74,0,60
1,72,127,60
1,72,0,60
1,71,127,60
1,71,0,60
1,74,127,0
1,74,0,60
1,76,127,60
1,76,0,60
1,74,127,60
1,74,0,60
1,76,127,60
1,76,0,60
1,69,127,480
1,69,0,160
1,72,127,0
1,72,0,160
1,76,127,0
1,76,0,280
1,69,127,0
1,69,0,120
1,72,127,0
1,72,0,120
1,76,127,0
1,76,0,120
1,75,127,0
1,75,0,160
1,71,127,0
1,71,0,160
1,68,127,0
1,68,0,400
1,69,127,120
1,69,0,60
1,71,127,0
1,71,0,60
1,72,127,0
1,72,0,160
1,74,127,0
1,74,0,160
1,72,127,0
1,72,0,160
1,71,127,0
1,71,0,160
1,69,127,0
1,69,0,160
1,68,127,0
1,68,0,160
1,69,127,0
1,69,0,960
1,69,127,0
1,69,0,160
1,72,127,0
1,72,0,160
1,76,127,0
1,76,0,280
1,69,127,0
1,69,0,120
1,72,127,0
1,72,0,120
1,76,127,0
1,76,0,120
1,75,127,0
1,75,0,160
1,71,127,0
1,71,0,160
1,68,127,0
1,68,0,400
1,69,127,120
1,69,0,60
1,71,127,0
1,71,0,60
1,72,127,0
1,72,0,160
1,74,127,0
1,74,0,160
1,72,127,0
1,72,0,160
1,71,127,0
1,71,0,160
1,72,127,0
1,72,0,160
1,71,127,0
1,71,0,160
1,69,127,0
1,69,0,960
1,72,127,600
1,72,0,60
1,72,127,60
1,72,0,120
1,69,127,0
1,69,0,60
1,72,127,0
1,72,0,180
1,69,127,0
1,69,0,240
1,64,127,0
1,64,0,60
1,67,127,0
1,67,0,60
1,68,127,0
1,68,0,120
1,68,127,0
1,68,0,120
1,68,127,0
1,68,0,60
1,69,127,0
1,69,0,120
1,71,127,0
1,71,0,420
1,72,127,240
1,72,0,60
1,72,127,60
1,72,0,120
1,69,127,0
1,69,0,60
1,72,127,0
1,72,0,180
1,69,127,0
1,69,0,240
1,69,127,0
1,69,0,120
1,71,127,0
1,71,0,120
1,71,127,0
1,71,0,120
1,71,127,0
1,71,0,120
1,69,127,0
1,69,0,60
1,68,127,0
1,68,0,420
1,72,127,240
1,72,0,60
1,71,127,0
1,71,0,60
1,72,127,0
1,72,0,60
1,72,127,0
1,72,0,60
1,69,127,0
1,69,0,180
1,72,127,0
1,72,0,60
1,69,127,0
1,69,0,120
1,72,127,0
1,72,0,120
1,69,127,0
1,69,0,120
1,71,127,0
1,71,0,120
1,71,127,0
1,71,0,120
1,71,127,0
1,71,0,120
1,69,127,0
1,69,0,60
1,68,127,0
1,68,0,420
1,72,127,240
1,72,0,60
1,72,127,60
1,72,0,120
1,69,127,0
1,69,0,60
1,72,127,0
1,72,0,120
1,69,127,0
1,69,0,300
1,69,127,0
1,69,0,120
1,71,127,0
1,71,0,60
1,71,127,60
1,71,0,60
1,71,127,60
1,71,0,60
1,69,127,0
1,69,0,120
1,68,127,0
1,68,0,240
1,64,127,0
1,64,0,60
1,67,127,0
1,67,0,120
1,68,127,0
1,68,0,120
1,69,127,0
1,69,0,160
1,72,127,0
1,72,0,160
1,76,127,0
1,76,0,280
1,69,127,0
1,69,0,120
1,72,127,0
1,76,127,120
1,72,0,13
1,76,0,107
1,75,127,0
1,75,0,160
1,71,127,0
1,71,0,160
1,68,127,0
1,68,0,400
1,69,127,120
1,69,0,60
1,71,127,0
1,71,0,60
1,72,127,0
1,72,0,160
1,74,127,0
1,74,0,160
1,72,127,0
1,71,127,159
1,72,0,1
1,71,0,59
1,71,127,1
1,71,0,120
1,71,127,0
1,71,0,60
1,72,127,0
1,71,127,119
1,72,0,1
1,71,0,119
1,69,127,0
1,69,0,949
1,69,127,12
1,69,0,160
1,72,127,0
1,72,0,160
1,76,127,0
1,76,0,280
1,69,127,0
1,69,0,120
1,72,127,0
1,76,127,120
1,72,0,13
1,76,0,107
1,75,127,0
1,75,0,160
1,71,127,0
1,71,0,160
1,68,127,0
1,68,0,400
1,69,127,120
1,69,0,60
1,71,127,0
1,71,0,60
1,72,127,0
1,72,0,160
1,74,127,0
1,74,0,160
1,72,127,0
1,71,127,159
1,72,0,1
1,71,0,59
1,71,127,1
1,71,0,120
1,71,127,0
1,71,0,60
1,72,127,0
1,71,127,119
1,72,0,1
1,71,0,119
1,69,127,0
1,69,0,949
1,72,127,132
1,72,0,60
1,72,127,60
1,72,0,120
1,69,127,0
1,69,0,60
1,72,127,0
1,72,0,180
1,69,127,0
1,69,0,240
1,64,127,0
1,64,0,60
1,67,127,0
1,67,0,60
1,68,127,0
1,68,0,120
1,68,127,0
1,68,0,120
1,68,127,0
1,68,0,60
1,69,127,0
1,69,0,120
1,71,127,0
1,71,0,420
1,72,127,240
1,72,0,60
1,72,127,60
1,72,0,120
1,69,127,0
1,69,0,60
1,72,127,0
1,72,0,180
1,69,127,0
1,69,0,240
1,69,127,0
1,69,0,120
1,71,127,0
1,71,0,120
1,71,127,0
1,71,0,120
1,71,127,0
1,71,0,120
1,69,127,0
1,69,0,60
1,68,127,0
1,68,0,420
1,72,127,240
1,72,0,60
1,71,127,0
1,71,0,60
1,72,127,0
1,72,0,60
1,72,127,0
1,72,0,60
1,69,127,0
1,69,0,180
1,72,127,0
1,72,0,60
1,69,127,0
1,69,0,120
1,72,127,0
1,72,0,120
1,69,127,0
1,69,0,120
1,71,127,0
1,71,0,120
1,71,127,0
1,71,0,120
1,71,127,0
1,71,0,120
1,69,127,0
1,69,0,60
1,68,127,0
1,68,0,420
1,72,127,240
1,72,0,60
1,72,127,60
1,72,0,120
1,69,127,0
1,69,0,60
1,72,127,0
1,72,0,120
1,69,127,0
1,69,0,300
1,69,127,0
1,69,0,120
1,71,127,0
1,71,0,60
1,71,127,60
1,71,0,60
1,71,127,60
1,71,0,60
1,69,127,0
1,69,0,120
1,68,127,0
1,68,0,240
1,64,127,0
1,64,0,60
1,67,127,0
1,67,0,120
1,68,127,0
1,68,0,120
1,69,127,0
1,69,0,160
1,72,127,0
1,72,0,160
1,76,127,0
1,76,0,280
1,69,127,0
1,69,0,120
1,72,127,0
1,76,127,120
1,72,0,13
1,76,0,107
1,75,127,0
1,75,0,160
1,71,127,0
1,71,0,160
1,68,127,0
1,68,0,400
1,69,127,120
1,69,0,60
1,71,127,0
1,71,0,60
1,72,127,0
1,72,0,160
1,74,127,0
1,74,0,160
1,72,127,0
1,71,127,159
1,72,0,1
1,71,0,59
1,71,127,1
1,71,0,120
1,71,127,0
1,71,0,60
1,72,127,0
1,71,127,119
1,72,0,1
1,71,0,119
1,69,127,0
1,69,0,949
1,69,127,12
1,69,0,160
1,72,127,0
1,72,0,160
1,76,127,0
1,76,0,280
1,69,127,0
1,69,0,120
1,72,127,0
1,76,127,120
1,72,0,13
1,76,0,107
1,75,127,0
1,75,0,160
1,71,127,0
1,71,0,160
1,68,127,0
1,68,0,400
1,69,127,120
1,69,0,60
1,71,127,0
1,71,0,60
1,72,127,0
1,72,0,160
1,74,127,0
1,74,0,160
1,72,127,0
1,71,127,159
1,72,0,1
1,71,0,59
1,71,127,1
1,71,0,120
1,71,127,0
1,71,0,60
1,72,127,0
1,71,127,119
1,72,0,1
1,71,0,119
1,64,127,1
1,69,127,0
1,69,0,60
1,64,0,0
1,64,127,0
1,69,127,0
1,69,0,60
1,64,0,0
1,64,127,0
1,69,127,0
1,69,0,60
1,64,0,0
1,62,127,120
1,68,127,0
1,68,0,60
1,62,0,0
1,62,127,0
1,68,127,0
1,68,0,60
1,62,0,0
1,64,127,180
1,69,127,0
1,69,0,60
1,64,0,0
1,76,127,300
1,72,127,0
1,72,0,60
1,76,0,0
1,72,127,0
1,76,127,0
1,76,0,60
1,72,0,0
1,72,127,60
1,76,127,0
1,76,0,60
1,72,0,0
1,72,127,60
1,76,127,0
1,76,0,60
1,72,0,0
1,72,127,60
1,76,127,0
1,76,0,60
1,72,0,0
1,72,127,60
1,76,127,0
1,76,0,60
1,72,0,0
1,72,127,60
1,76,127,0
1,76,0,60
1,72,0,0
1,72,127,0
1,76,127,0
1,76,0,60
1,72,0,0
1,76,127,60
1,72,127,0
1,72,0,60
1,76,0,0
1,76,127,60
1,71,127,0
1,71,0,60
1,76,0,0
1,76,127,0
1,71,127,0
1,71,0,60
1,76,0,0
1,71,127,60
1,76,127,0
1,76,0,60
1,71,0,0
1,71,127,60
1,76,127,0
1,76,0,60
1,71,0,0
1,71,127,60
1,76,127,0
1,76,0,60
1,71,0,0
1,71,127,60
1,76,127,0
1,76,0,60
1,71,0,0
1,71,127,60
1,76,127,0
1,76,0,60
1,71,0,0
1,76,127,0
1,71,127,0
1,71,0,60
1,76,0,0
1,69,127,60
1,76,127,0
1,76,0,60
1,69,0,0
1,72,127,60
1,76,127,0
1,76,0,60
1,72,0,0
1,72,127,0
1,76,127,0
1,76,0,60
1,72,0,0
1,72,127,60
1,76,127,0
1,76,0,60
1,72,0,0
1,76,127,60
1,72,127,0
1,72,0,60
1,76,0,0
1,72,127,60
1,76,127,0
1,76,0,60
1,72,0,0
1,72,127,60
1,76,127,0
1,76,0,60
1,72,0,0
1,72,127,60
1,76,127,0
1,76,0,60
1,72,0,0
1,72,127,0
1,76,127,0
1,76,0,60
1,72,0,0
1,72,127,60
1,76,127,0
1,76,0,60
1,72,0,0
1,71,127,60
1,76,127,0
1,76,0,60
1,71,0,0
1,71,127,0
1,76,127,0
1,76,0,60
1,71,0,0
1,71,127,60
1,76,127,0
1,76,0,60
1,71,0,0
1,71,127,60
1,76,127,0
1,76,0,60
1,71,0,0
1,76,127,60
1,71,127,0
1,71,0,60
1,76,0,0
1,62,127,60
1,62,0,60
1,63,127,0
1,63,0,60
1,64,127,0
1,64,0,60
1,65,127,0
1,65,0,60
1,66,127,0
1,66,0,60
1,67,127,0
1,67,0,60
1,68,127,0
1,68,0,60
1,69,127,0
1,69,0,60
1,64,127,120
1,64,0,60
1,67,127,0
1,67,0,120
1,68,127,0
1,68,0,120
1,69,127,0
1,69,0,160
1,72,127,0
1,72,0,160
1,76,127,0
1,76,0,280
1,69,127,0
1,69,0,120
1,72,127,0
1,76,127,120
1,72,0,13
1,76,0,107
1,75,127,0
1,75,0,160
1,71,127,0
1,71,0,160
1,68,127,0
1,68,0,400
1,69,127,120
1,69,0,60
1,71,127,0
1,71,0,60
1,72,127,0
1,72,0,160
1,74,127,0
1,74,0,160
1,72,127,0
1,71,127,159
1,72,0,1
1,71,0,59
1,71,127,1
1,71,0,120
1,71,127,0
1,71,0,60
1,72,127,0
1,71,127,119
1,72,0,1
1,71,0,119
1,69,127,0
1,69,0,949
1,69,127,12
1,69,0,160
1,72,127,0
1,72,0,160
1,76,127,0
1,76,0,280
1,69,127,0
1,69,0,120
1,72,127,0
1,76,127,120
1,72,0,13
1,76,0,107
1,75,127,0
1,75,0,160
1,71,127,0
1,71,0,160
1,68,127,0
1,68,0,400
1,69,127,120
1,69,0,60
1,71,127,0
1,71,0,60
1,72,127,0
1,72,0,160
1,74,127,0
1,74,0,160
1,72,127,0
1,71,127,159
1,72,0,1
1,71,0,59
1,71,127,1
1,71,0,120
1,71,127,0
1,71,0,60
1,72,127,0
1,71,127,119
1,72,0,1
1,71,0,119
1,69,127,0
1,69,0,949
1,72,100,12
1,76,127,0
1,76,0,60
1,72,0,0
1,72,127,0
1,76,127,0
1,76,0,60
1,72,0,0
1,72,127,60
1,76,127,0
1,76,0,60
1,72,0,0
1,72,127,60
1,76,127,0
1,76,0,60
1,72,0,0
1,72,127,60
1,76,127,0
1,76,0,60
1,72,0,0
1,72,127,60
1,76,127,0
1,76,0,60
1,72,0,0
1,72,127,60
1,76,127,0
1,76,0,60
1,72,0,0
1,72,127,0
1,76,127,0
1,76,0,60
1,72,0,0
1,76,127,60
1,72,127,0
1,72,0,60
1,76,0,0
1,76,127,60
1,71,127,0
1,71,0,60
1,76,0,0
1,76,127,0
1,71,127,0
1,71,0,60
1,76,0,0
1,71,127,60
1,76,127,0
1,76,0,60
1,71,0,0
1,71,127,60
1,76,127,0
1,76,0,60
1,71,0,0
1,71,127,60
1,76,127,0
1,76,0,60
1,71,0,0
1,71,127,60
1,76,127,0
1,76,0,60
1,71,0,0
1,71,127,60
1,76,127,0
1,76,0,60
1,71,0,0
1,76,127,0
1,71,127,0
1,71,0,60
1,76,0,0
1,69,127,60
1,76,127,0
1,76,0,60
1,69,0,0
1,72,127,60
1,76,127,0
1,76,0,60
1,72,0,0
1,72,127,0
1,76,127,0
1,76,0,60
1,72,0,0
1,72,127,60
1,76,127,0
1,76,0,60
1,72,0,0
1,76,127,60
1,72,127,0
1,72,0,60
1,76,0,0
1,72,127,60
1,76,127,0
1,76,0,60
1,72,0,0
1,72,127,60
1,76,127,0
1,76,0,60
1,72,0,0
1,72,127,60
1,76,127,0
1,76,0,60
1,72,0,0
1,72,127,0
1,76,127,0
1,76,0,60
1,72,0,0
1,72,127,60
1,76,127,0
1,76,0,60
1,72,0,0
1,71,127,60
1,76,127,0
1,76,0,60
1,71,0,0
1,71,127,0
1,76,127,0
1,76,0,60
1,71,0,0
1,71,127,60
1,76,127,0
1,76,0,60
1,71,0,0
1,71,127,60
1,76,127,0
1,76,0,60
1,71,0,0
1,71,127,0
1,76,127,0
1,76,0,60
1,71,0,0
1,69,127,2100
1,69,0,60
1,71,127,0
1,71,0,60
1,72,127,8
1,76,127,712
1,72,0,8
1,76,0,225
1,74,127,7
1,74,0,120
1,71,127,0
1,71,0,600
1,74,127,13
1,74,0,225
1,72,127,3
1,72,0,123
1,71,127,2
1,69,127,114
1,71,0,6
1,69,0,236
1,71,127,1
1,69,127,120
1,71,0,14
1,69,0,106
1,68,127,1
1,68,0,113
1,69,127,5
1,71,127,119
1,69,0,2
1,69,127,115
1,71,0,2
1,68,127,124
1,69,0,4
1,68,0,477
1,72,127,1
1,71,127,54
1,72,0,6
1,71,0,54
1,69,127,0
1,71,127,71
1,69,0,3
1,76,127,773
1,71,0,4
1,74,127,50
1,76,0,19
1,72,127,46
1,74,0,5
1,74,127,52
1,72,0,8
1,76,127,769
1,74,0,12
1,76,0,48
1,75,127,0
1,75,0,60
1,76,127,0
1,76,0,60
1,75,127,0
1,75,0,60
1,72,127,0
1,72,0,360
1,69,127,0
1,69,0,240
1,72,127,0
1,72,0,120
1,72,127,0
1,72,0,51
1,72,127,23
1,72,0,60
1,72,127,58
1,72,0,60
1,72,127,58
1,72,0,56
1,72,127,54
1,72,0,60
1,76,127,0
1,76,0,60
1,74,127,0
1,74,0,60
1,72,127,0
1,72,0,60
1,74,127,0
1,74,0,300
1,72,127,0
1,72,0,52
1,69,127,8
1,69,0,56
1,71,127,4
1,72,127,60
1,71,0,3
1,72,0,477
1,69,127,60
1,68,127,46
1,69,0,14
1,68,0,46
1,69,127,14
1,71,127,49
