track,note,velocity,time
1,69,80,17880
1,69,80,504
1,71,80,24
1,69,80,24
1,74,80,2208
1,74,80,24
1,74,80,24
1,73,80,24
1,69,80,24
1,69,80,24
1,69,80,48
1,66,80,24
1,67,80,24
1,74,80,72
1,67,80,96
1,66,80,72
1,74,80,696
1,74,80,24
1,74,80,24
1,73,80,24
1,74,80,48
1,76,80,24
1,74,80,48
1,69,80,8712
1,71,80,24
1,69,80,24
1,69,80,24
1,69,80,24
1,66,80,48
1,69,80,24
1,71,80,24
1,69,80,24
1,66,80,24
1,69,80,24
1,69,80,24
1,66,80,24
1,69,80,24
1,69,80,48
1,71,80,48
1,69,80,456
1,71,80,24
1,69,80,24
1,69,80,24
1,69,80,24
1,74,80,48
1,73,80,24
1,71,80,24
1,69,80,24
1,66,80,24
1,69,80,24
1,69,80,24
1,69,80,24
1,66,80,24
1,66,80,24
1,69,80,48
1,67,80,48
1,71,80,576
1,71,80,24
1,71,80,48
1,71,80,48
1,73,80,48
1,73,80,24
1,73,80,48
1,76,80,72
1,74,80,24
1,73,80,72
1,71,80,24
1,74,80,150
1,74,80,24
1,74,80,48
1,76,80,24
1,76,80,48
1,74,80,48
1,76,80,48
1,76,80,24
1,79,80,48
1,78,80,24
1,74,80,24
1,73,80,72
1,74,80,24
1,69,80,2472
1,74,80,24
1,76,80,24
1,78,80,24
1,76,80,24
1,73,80,48
1,71,80,48
1,69,80,1512
1,74,80,24
1,76,80,24
1,78,80,24
1,76,80,24
1,73,80,48
1,74,80,48
1,69,80,72
1,69,80,1416
1,74,80,24
1,76,80,24
1,78,80,24
1,76,80,24
1,74,80,48
1,74,80,24
1,76,80,24
1,78,80,48
1,74,80,72
1,69,80,1416
1,74,80,24
1,76,80,24
1,78,80,24
1,76,80,24
1,74,80,48
1,74,80,24
1,76,80,24
1,78,80,48
1,78,80,96
1,78,80,24
1,78,80,48
1,71,80,48
1,71,80,7752
1,71,80,24
1,71,80,48
1,71,80,48
1,73,80,48
1,69,80,24
1,66,80,144
1,71,80,24
1,71,80,24
1,71,80,48
1,73,80,48
1,71,80,48
1,69,80,24
1,66,80,144
1,71,80,24
1,71,80,24
1,71,80,48
1,71,80,48
1,73,80,48
1,69,80,24
1,73,80,24
1,69,80,24
1,76,80,48
1,74,80,24
1,73,80,24
1,74,80,72
1,71,80,24
1,71,80,264
1,78,80,24
1,76,80,48
1,74,80,24
1,76,80,48
1,76,80,48
1,73,80,24
1,73,80,48
1,73,80,48
1,73,80,48
1,73,80,24
1,73,80,48
1,74,80,48
1,74,80,48
1,69,80,264
1,71,80,24
1,71,80,24
1,71,80,48
1,69,80,48
1,73,80,48
1,73,80,24
1,73,80,48
1,73,80,48
1,73,80,48
1,73,80,24
1,73,80,48
1,73,80,48
1,74,80,48
1,69,80,2472
1,74,80,24
1,76,80,24
1,78,80,24
1,76,80,24
1,73,80,48
1,71,80,48
1,69,80,1512
1,74,80,24
1,76,80,24
1,78,80,24
1,76,80,24
1,73,80,48
1,74,80,48
1,69,80,72
1,69,80,1416
1,74,80,24
1,76,80,24
1,78,80,24
1,76,80,24
1,74,80,48
1,74,80,24
1,76,80,24
1,78,80,48
1,74,80,72
1,69,80,1416
1,74,80,24
1,76,80,24
1,78,80,24
1,76,80,24
1,74,80,48
1,74,80,24
1,76,80,24
1,78,80,48
1,74,80,96
1,76,80,192
1,74,80,24
1,69,80,6744
1,71,80,24
1,69,80,24
1,69,80,48
1,69,80,48
1,69,80,48
1,66,80,48
1,69,80,24
1,69,80,48
1,71,80,48
1,71,80,48
1,67,80,96
1,69,80,384
1,69,80,24
1,69,80,48
1,69,80,48
1,72,80,48
1,69,80,72
1,72,80,0
1,69,80,48
1,72,80,0
1,67,80,72
1,71,80,0
1,69,80,744
1,69,80,48
1,62,80,2472
1,62,80,24
1,62,80,24
1,69,80,24
1,62,80,2976
1,62,80,24
1,62,80,24
1,69,80,24
1,62,80,2976
1,64,80,24
1,62,80,24
1,69,80,24
1,62,80,2976
1,62,80,24
1,62,80,24
1,61,80,24
1,62,80,24
1,57,80,48
1,62,80,576
1,62,80,24
1,62,80,24
1,61,80,24
1,62,80,24
1,57,80,48
1,62,80,576
1,62,80,24
1,62,80,24
1,65,80,24
1,69,80,936
1,74,80,24
1,76,80,24
1,78,80,24
1,81,80,24
1,76,80,48
1,76,80,96
1,74,80,24
1,69,80,1524
1,74,80,24
1,76,80,24
1,78,80,24
1,76,80,24
1,73,80,48
1,74,80,48
1,69,80,72
1,69,80,1416
1,74,80,24
1,76,80,24
1,78,80,24
1,76,80,24
1,74,80,48
1,74,80,24
1,76,80,24
1,78,80,48
1,74,80,72
1,69,80,1416
1,74,80,24
1,76,80,24
1,78,80,24
1,81,80,24
1,74,80,48
1,74,80,24
1,76,80,24
1,78,80,48
1,78,80,96
1,78,80,24
1,78,80,48
1,71,80,48
2,61,80,58560
2,62,80,72
2,64,80,48
2,62,80,72
2,61,80,2112
2,62,80,72
2,61,80,48
2,62,80,72
2,61,80,2112
2,62,80,72
2,64,80,48
2,62,80,72
2,61,80,30912
2,62,80,72
2,64,80,48
2,62,80,72
2,61,80,2112
2,62,80,72
2,61,80,48
2,62,80,72
2,61,80,2112
2,62,80,72
2,64,80,48
2,62,80,72
2,57,80,18432
2,57,80,72
2,57,80,72
2,57,80,48
2,57,80,72
2,57,80,72
2,50,80,48
2,52,80,96
2,52,80,72
2,52,80,72
2,57,80,48
2,57,80,72
2,57,80,72
2,57,80,48
2,57,80,72
2,57,80,72
2,50,80,48
2,52,80,96
2,52,80,72
2,52,80,72
2,57,80,48
2,57,80,72
2,57,80,72
2,57,80,48
2,57,80,72
2,57,80,72
2,50,80,48
2,52,80,96
2,52,80,72
2,52,80,72
2,57,80,48
2,57,80,72
2,57,80,72
2,57,80,48
2,57,80,72
2,57,80,72
2,50,80,48
2,52,80,96
2,52,80,72
2,52,80,72
2,61,80,6768
2,62,80,72
2,61,80,48
2,62,80,72
2,61,80,2112
2,62,80,72
2,64,80,48
2,62,80,72
2,61,80,2112
2,62,80,72
2,64,80,48
2,62,80,72
3,74,80,55680
3,69,80,0
3,62,80,0
3,57,80,0
3,50,80,0
3,57,80,72
3,57,80,48
3,64,80,0
3,69,80,0
3,76,80,0
3,55,80,48
3,62,80,0
3,67,80,0
3,74,80,0
3,79,80,0
3,79,80,48
3,74,80,0
3,67,80,0
3,62,80,0
3,55,80,0
3,50,80,48
3,57,80,0
3,62,80,0
3,69,80,0
3,74,80,0
3,76,80,48
3,69,80,0
3,64,80,0
3,57,80,0
3,79,80,48
3,74,80,0
3,67,80,0
3,62,80,0
3,55,80,0
3,55,80,48
3,62,80,0
3,67,80,0
3,74,80,0
3,79,80,0
3,74,80,48
3,69,80,0
3,62,80,0
3,57,80,0
3,50,80,0
3,57,80,72
3,57,80,48
3,64,80,0
3,69,80,0
3,76,80,0
3,55,80,48
3,62,80,0
3,67,80,0
3,74,80,0
3,79,80,0
3,79,80,48
3,74,80,0
3,67,80,0
3,62,80,0
3,55,80,0
3,50,80,48
3,57,80,0
3,62,80,0
3,69,80,0
3,74,80,0
3,76,80,48
3,69,80,0
3,64,80,0
3,57,80,0
3,79,80,48
3,74,80,0
3,67,80,0
3,62,80,0
3,55,80,0
3,55,80,48
3,62,80,0
3,67,80,0
3,74,80,0
3,79,80,0
3,71,80,48
3,59,80,0
3,66,80,0
3,59,80,24
3,59,80,24
3,71,80,24
3,66,80,0
3,59,80,0
3,59,80,24
3,59,80,24
3,59,80,24
3,66,80,0
3,71,80,0
3,59,80,24
3,69,80,24
3,64,80,0
3,57,80,0
3,73,80,0
3,57,80,24
3,69,80,24
3,57,80,0
3,69,80,24
3,57,80,0
3,64,80,0
3,73,80,0
3,57,80,24
3,57,80,24
3,69,80,24
3,64,80,0
3,57,80,0
3,73,80,0
3,57,80,24
3,54,80,24
3,73,80,0
3,66,80,0
3,61,80,0
3,54,80,24
3,54,80,24
3,54,80,24
3,73,80,0
3,61,80,0
3,66,80,0
3,54,80,24
3,54,80,24
3,73,80,24
3,66,80,0
3,61,80,0
3,54,80,0
3,54,80,24
3,71,80,24
3,67,80,0
3,55,80,0
3,62,80,0
3,55,80,24
3,55,80,24
3,71,80,24
3,55,80,0
3,67,80,0
3,62,80,0
3,67,80,24
3,55,80,0
3,55,80,24
3,55,80,24
3,62,80,0
3,71,80,0
3,67,80,0
3,55,80,24
3,66,80,24
3,59,80,0
3,71,80,0
3,59,80,24
3,59,80,24
3,59,80,24
3,66,80,0
3,71,80,0
3,59,80,24
3,59,80,24
3,71,80,24
3,66,80,0
3,59,80,0
3,59,80,24
3,73,80,24
3,57,80,0
3,64,80,0
3,69,80,0
3,57,80,24
3,57,80,24
3,69,80,0
3,73,80,24
3,64,80,0
3,57,80,0
3,69,80,0
3,57,80,24
3,57,80,24
3,73,80,24
3,57,80,0
3,64,80,0
3,69,80,0
3,57,80,24
3,61,80,24
3,66,80,0
3,73,80,0
3,54,80,0
3,54,80,24
3,54,80,24
3,66,80,24
3,61,80,0
3,73,80,0
3,54,80,0
3,54,80,24
3,54,80,24
3,61,80,24
3,66,80,0
3,73,80,0
3,54,80,0
3,54,80,24
3,62,80,24
3,55,80,0
3,67,80,0
3,71,80,0
3,55,80,24
3,55,80,24
3,62,80,24
3,67,80,0
3,55,80,0
3,71,80,0
3,55,80,24
3,67,80,0
3,55,80,24
3,62,80,24
3,55,80,0
3,67,80,0
3,71,80,0
3,55,80,24
3,66,80,24
3,59,80,0
3,71,80,0
3,59,80,24
3,59,80,24
3,59,80,24
3,66,80,0
3,71,80,0
3,59,80,24
3,59,80,24
3,59,80,24
3,66,80,0
3,71,80,0
3,59,80,24
3,73,80,24
3,57,80,0
3,64,80,0
3,69,80,0
3,57,80,24
3,57,80,24
3,69,80,0
3,73,80,24
3,64,80,0
3,57,80,0
3,69,80,0
3,57,80,24
3,57,80,24
3,73,80,24
3,57,80,0
3,64,80,0
3,69,80,0
3,57,80,24
3,61,80,24
3,66,80,0
3,73,80,0
3,54,80,0
3,54,80,24
3,54,80,24
3,66,80,24
3,61,80,0
3,73,80,0
3,54,80,0
3,54,80,24
3,54,80,24
3,61,80,24
3,66,80,0
3,73,80,0
3,54,80,0
3,54,80,24
3,62,80,24
3,55,80,0
3,67,80,0
3,71,80,0
3,55,80,24
3,55,80,24
3,62,80,24
3,67,80,0
3,55,80,0
3,71,80,0
3,55,80,24
3,67,80,0
3,55,80,24
3,62,80,24
3,55,80,0
3,67,80,0
3,71,80,0
3,55,80,24
3,66,80,24
3,59,80,0
3,71,80,0
3,59,80,24
3,59,80,24
3,59,80,24
3,66,80,0
3,71,80,0
3,59,80,24
3,59,80,24
3,71,80,24
3,66,80,0
3,59,80,0
3,59,80,24
3,73,80,24
3,57,80,0
3,64,80,0
3,69,80,0
3,57,80,24
3,57,80,24
3,69,80,0
3,73,80,24
3,64,80,0
3,57,80,0
3,69,80,0
3,57,80,24
3,57,80,24
3,73,80,24
3,57,80,0
3,64,80,0
3,69,80,0
3,57,80,24
3,61,80,24
3,66,80,0
3,73,80,0
3,54,80,0
3,54,80,24
3,54,80,24
3,66,80,24
3,61,80,0
3,73,80,0
3,54,80,0
3,54,80,24
3,54,80,24
3,61,80,24
3,66,80,0
3,73,80,0
3,54,80,0
3,54,80,24
3,62,80,24
3,55,80,0
3,67,80,0
3,71,80,0
3,55,80,24
3,55,80,24
3,62,80,24
3,67,80,0
3,55,80,0
3,71,80,0
3,55,80,24
3,67,80,0
3,55,80,24
3,62,80,24
3,55,80,0
3,67,80,0
3,71,80,0
3,55,80,24
3,66,80,24
3,59,80,0
3,71,80,0
3,59,80,24
3,59,80,24
3,59,80,24
3,66,80,0
3,71,80,0
3,59,80,24
3,59,80,24
3,71,80,24
3,66,80,0
3,59,80,0
3,59,80,24
3,73,80,24
3,57,80,0
3,64,80,0
3,69,80,0
3,57,80,24
3,57,80,24
3,69,80,0
3,73,80,24
3,64,80,0
3,57,80,0
3,69,80,0
3,57,80,24
3,57,80,24
3,73,80,24
3,57,80,0
3,64,80,0
3,69,80,0
3,57,80,24
3,61,80,24
3,66,80,0
3,73,80,0
3,54,80,0
3,54,80,24
3,54,80,24
3,66,80,24
3,61,80,0
3,73,80,0
3,54,80,0
3,54,80,24
3,54,80,24
3,61,80,24
3,66,80,0
3,73,80,0
3,54,80,0
3,54,80,24
3,62,80,24
3,55,80,0
3,67,80,0
3,71,80,0
3,55,80,24
3,55,80,24
3,62,80,24
3,67,80,0
3,55,80,0
3,71,80,0
3,55,80,24
3,67,80,0
3,55,80,24
3,62,80,24
3,55,80,0
3,67,80,0
3,71,80,0
3,55,80,24
3,66,80,24
3,59,80,0
3,71,80,0
3,59,80,24
3,59,80,24
3,59,80,24
3,66,80,0
3,71,80,0
3,59,80,24
3,59,80,24
3,71,80,24
3,66,80,0
3,59,80,0
3,59,80,24
3,73,80,24
3,57,80,0
3,64,80,0
3,69,80,0
3,57,80,24
3,57,80,24
3,69,80,0
3,73,80,24
3,64,80,0
3,57,80,0
3,69,80,0
3,57,80,24
3,57,80,24
3,73,80,24
3,57,80,0
3,64,80,0
3,69,80,0
3,57,80,24
3,61,80,24
3,66,80,0
3,73,80,0
3,54,80,0
3,54,80,24
3,54,80,24
3,66,80,24
3,61,80,0
3,73,80,0
3,54,80,0
3,54,80,24
3,54,80,24
3,61,80,24
3,66,80,0
3,73,80,0
3,54,80,0
3,54,80,24
3,62,80,24
3,55,80,0
3,67,80,0
3,71,80,0
3,55,80,24
3,55,80,24
3,62,80,24
3,67,80,0
3,55,80,0
3,71,80,0
3,55,80,24
3,55,80,24
3,62,80,24
3,55,80,0
3,67,80,0
3,71,80,0
3,55,80,24
3,71,80,24
3,67,80,0
3,55,80,0
3,62,80,0
3,55,80,24
3,55,80,24
3,71,80,24
3,55,80,0
3,67,80,0
3,62,80,0
3,55,80,24
3,55,80,24
3,71,80,24
3,67,80,0
3,55,80,0
3,62,80,0
3,55,80,24
3,71,80,24
3,67,80,0
3,55,80,0
3,62,80,0
3,55,80,24
3,55,80,24
3,71,80,24
3,55,80,0
3,67,80,0
3,62,80,0
3,55,80,24
3,55,80,24
3,62,80,24
3,71,80,0
3,55,80,0
3,66,80,0
3,55,80,24
3,50,80,24
3,57,80,0
3,62,80,0
3,69,80,0
3,74,80,0
3,57,80,72
3,76,80,48
3,69,80,0
3,64,80,0
3,57,80,0
3,79,80,48
3,74,80,0
3,67,80,0
3,62,80,0
3,55,80,0
3,55,80,48
3,62,80,0
3,67,80,0
3,74,80,0
3,79,80,0
3,74,80,48
3,69,80,0
3,62,80,0
3,57,80,0
3,50,80,0
3,57,80,48
3,64,80,0
3,69,80,0
3,76,80,0
3,79,80,48
3,74,80,0
3,67,80,0
3,62,80,0
3,55,80,0
3,79,80,48
3,74,80,0
3,67,80,0
3,62,80,0
3,55,80,0
3,50,80,48
3,57,80,0
3,62,80,0
3,69,80,0
3,74,80,0
3,57,80,72
3,76,80,48
3,69,80,0
3,64,80,0
3,57,80,0
3,79,80,48
3,74,80,0
3,67,80,0
3,62,80,0
3,55,80,0
3,55,80,48
3,62,80,0
3,67,80,0
3,74,80,0
3,79,80,0
3,74,80,48
3,69,80,0
3,62,80,0
3,57,80,0
3,50,80,0
3,57,80,48
3,64,80,0
3,69,80,0
3,76,80,0
3,55,80,48
3,62,80,0
3,67,80,0
3,74,80,0
3,79,80,0
3,79,80,48
3,74,80,0
3,67,80,0
3,62,80,0
3,55,80,0
3,62,80,48
3,69,80,0
3,74,80,0
3,67,80,264
3,69,80,24
3,62,80,28992
3,55,80,0
3,67,80,0
3,74,80,0
3,67,80,24
3,62,80,0
3,55,80,0
3,74,80,0
3,74,80,24
3,67,80,0
3,55,80,0
3,62,80,0
3,62,80,24
3,67,80,0
3,55,80,0
3,74,80,0
3,67,80,24
3,62,80,0
3,55,80,0
3,74,80,0
3,74,80,24
3,67,80,0
3,62,80,0
3,55,80,0
3,62,80,24
3,55,80,0
