track,note,velocity,time
1,42,127,368
1,42,0,12
1,42,127,372
1,42,0,12
1,42,127,372
1,42,0,12
1,42,127,372
1,42,0,12
1,35,127,9588
1,35,0,12
1,35,98,1332
1,35,0,12
1,35,127,180
1,35,0,12
1,35,125,1524
1,35,0,12
1,35,73,1332
1,35,0,12
1,35,127,180
1,35,0,12
1,35,125,1524
1,35,0,12
1,35,98,1332
1,35,0,12
1,35,127,180
1,35,0,12
1,35,127,1524
1,35,0,12
1,35,73,1332
1,35,0,12
1,35,127,180
1,35,0,12
1,37,127,756
1,37,0,12
1,35,127,756
1,35,0,12
1,37,127,756
1,37,0,12
1,35,98,564
1,35,0,12
1,35,127,180
1,35,0,12
1,37,127,756
1,37,0,12
1,35,125,756
1,35,0,12
1,37,127,756
1,37,0,12
1,35,73,564
1,35,0,12
1,35,127,180
1,35,0,12
1,37,127,756
1,37,0,12
1,35,125,756
1,35,0,12
1,37,127,756
1,37,0,12
1,35,98,564
1,35,0,12
1,35,127,180
1,35,0,12
1,37,127,756
1,37,0,12
1,35,127,756
1,35,0,12
1,37,127,756
1,37,0,12
1,35,73,564
1,35,0,12
1,35,127,180
1,35,0,12
1,37,127,756
1,37,0,12
1,35,127,756
1,35,0,12
1,37,127,756
1,37,0,12
1,35,98,564
1,35,0,12
1,35,127,180
1,35,0,12
1,37,127,756
1,37,0,12
1,35,125,756
1,35,0,12
1,37,127,756
1,37,0,12
1,35,73,564
1,35,0,12
1,35,127,180
1,35,0,12
1,37,127,756
1,37,0,12
1,35,125,756
1,35,0,12
1,37,127,756
1,37,0,12
1,35,98,564
1,35,0,12
1,35,127,180
1,35,0,12
1,37,127,756
1,37,0,12
1,35,127,756
1,35,0,12
1,37,127,756
1,37,0,12
1,35,73,564
1,35,0,12
1,35,127,180
1,35,0,12
1,37,127,756
1,37,0,12
1,35,127,756
1,35,0,12
1,37,127,756
1,37,0,12
1,35,98,564
1,35,0,12
1,35,127,180
1,35,0,12
1,37,127,756
1,37,0,12
1,35,125,756
1,35,0,12
1,37,127,756
1,37,0,12
1,35,73,564
1,35,0,12
1,51,107,180
1,35,127,0
1,35,0,12
1,51,0,0
1,42,127,372
1,42,0,12
1,42,127,372
1,38,127,0
1,38,0,12
1,42,0,0
1,42,91,372
1,42,0,12
1,35,89,180
1,35,0,12
1,42,127,180
1,35,127,0
1,35,0,12
1,42,0,0
1,42,91,372
1,42,0,12
1,42,127,372
1,38,127,0
1,38,0,12
1,42,0,0
1,42,91,372
1,42,0,12
1,42,127,372
1,35,127,0
1,35,0,12
1,42,0,0
1,42,70,372
1,42,0,12
1,42,127,372
1,38,127,0
1,38,0,12
1,42,0,0
1,42,74,372
1,42,0,12
1,35,98,180
1,35,0,12
1,42,127,180
1,35,127,0
1,35,0,12
1,42,0,0
1,42,84,372
1,42,0,12
1,42,127,372
1,38,127,0
1,38,0,12
1,42,0,0
1,42,78,372
1,42,0,12
1,42,113,372
1,35,127,0
1,35,0,12
1,42,0,0
1,42,59,372
1,42,0,12
1,42,127,372
1,38,127,0
1,38,0,12
1,42,0,0
1,42,61,372
1,42,0,12
1,35,89,180
1,35,0,12
1,42,127,180
1,35,127,0
1,35,0,12
1,42,0,0
1,42,78,372
1,42,0,12
1,42,127,372
1,38,127,0
1,38,0,12
1,42,0,0
1,42,78,372
1,42,0,12
1,42,127,372
1,35,127,0
1,35,0,12
1,42,0,0
1,42,70,372
1,42,0,12
1,42,127,372
1,38,127,0
1,38,0,12
1,42,0,0
1,42,78,372
1,42,0,12
1,35,110,180
1,35,0,12
1,42,127,180
1,35,127,0
1,35,0,12
1,42,0,0
1,42,127,372
1,42,0,12
1,42,113,372
1,38,127,0
1,38,0,12
1,42,0,0
1,38,127,180
1,38,0,12
1,41,127,180
1,41,0,12
1,35,127,180
1,35,0,12
1,49,112,180
1,35,127,0
1,35,0,12
1,49,0,0
1,42,127,372
1,42,0,12
1,42,127,372
1,38,127,0
1,38,0,12
1,42,0,0
1,42,127,372
1,42,0,12
1,35,125,180
1,35,0,12
1,42,127,180
1,35,127,0
1,35,0,12
1,42,0,0
1,42,84,372
1,42,0,12
1,42,127,372
1,38,127,0
1,38,0,12
1,42,0,0
1,42,91,372
1,42,0,12
1,35,82,180
1,35,0,12
1,42,127,180
1,35,127,0
1,35,0,12
1,42,0,0
1,42,78,372
1,42,0,12
1,42,127,372
1,38,127,0
1,38,0,12
1,42,0,0
1,42,84,372
1,42,0,12
1,42,127,372
1,35,127,0
1,35,0,12
1,42,0,0
1,42,84,372
1,42,0,12
1,42,127,372
1,38,127,0
1,38,0,12
1,42,0,0
1,42,101,372
1,42,0,12
1,35,98,180
1,35,0,12
1,42,127,180
1,35,127,0
1,35,0,12
1,42,0,0
1,42,70,372
1,42,0,12
1,42,127,372
1,38,127,0
1,38,0,12
1,42,0,0
1,42,74,372
1,42,0,12
1,42,127,372
1,35,127,0
1,35,0,12
1,42,0,0
1,42,84,372
1,42,0,12
1,42,127,372
1,38,127,0
1,38,0,12
1,42,0,0
1,42,52,372
1,42,0,12
1,35,98,180
1,35,0,12
1,42,127,180
1,35,127,0
1,35,0,12
1,42,0,0
1,42,84,372
1,42,0,12
1,42,127,372
1,38,127,0
1,38,0,12
1,42,0,0
1,42,74,372
1,42,0,12
1,42,113,372
1,35,127,0
1,35,0,12
1,42,0,0
1,42,78,372
1,42,0,12
1,42,127,372
1,38,127,0
1,38,0,12
1,42,0,0
1,42,74,372
1,42,0,12
1,35,127,180
1,35,0,12
1,49,66,180
1,35,127,0
1,35,0,12
1,49,0,0
1,38,127,564
1,38,0,12
1,38,127,180
1,38,0,12
1,45,127,180
1,45,0,12
1,41,127,180
1,41,0,12
1,35,127,180
1,35,0,12
1,49,112,180
1,35,127,0
1,35,0,12
1,49,0,0
1,51,95,564
1,51,0,12
1,51,112,180
1,38,127,0
1,38,0,12
1,51,0,0
1,51,112,372
1,51,0,12
1,35,127,180
1,35,0,12
1,51,127,180
1,35,127,0
1,35,0,12
1,51,0,0
1,51,112,372
1,51,0,12
1,51,127,372
1,38,127,0
1,38,0,12
1,51,0,0
1,51,112,372
1,51,0,12
1,35,127,180
1,35,0,12
1,51,127,180
1,35,127,0
1,35,0,12
1,51,0,0
1,51,95,372
1,51,0,12
1,51,127,372
1,38,127,0
1,38,0,12
1,51,0,0
1,51,112,372
1,51,0,12
1,35,77,180
1,35,0,12
1,51,127,180
1,35,127,0
1,35,0,12
1,51,0,0
1,51,95,372
1,51,0,12
1,51,127,372
1,38,127,0
1,38,0,12
1,51,0,0
1,51,112,372
1,51,0,12
1,49,127,372
1,35,127,0
1,35,0,12
1,49,0,0
1,51,73,372
1,51,0,12
1,51,127,372
1,38,127,0
1,38,0,12
1,51,0,0
1,51,83,372
1,51,0,12
1,35,98,180
1,35,0,12
1,51,127,180
1,35,127,0
1,35,0,12
1,51,0,0
1,51,33,372
1,51,0,12
1,51,127,372
1,38,127,0
1,38,0,12
1,51,0,0
1,51,73,372
1,51,0,12
1,35,127,180
1,35,0,12
1,51,127,180
1,35,127,0
1,35,0,12
1,51,0,0
1,51,60,372
1,51,0,12
1,51,112,372
1,38,127,0
1,38,0,12
1,51,0,0
1,51,73,372
1,51,0,12
1,35,110,180
1,35,0,12
1,51,112,180
1,35,127,0
1,35,0,12
1,51,0,0
1,51,60,372
1,51,0,12
1,35,98,180
1,35,0,12
1,51,112,180
1,38,125,0
1,38,0,12
1,51,0,0
1,51,66,372
1,51,0,12
1,35,62,180
1,35,0,12
1,51,95,180
1,35,127,0
1,35,0,12
1,51,0,0
1,51,60,372
1,51,0,12
1,51,83,372
1,51,0,12
1,51,66,372
1,51,0,12
1,35,89,180
1,35,0,12
1,51,83,180
1,35,127,0
1,35,0,12
1,51,0,0
1,51,52,372
1,51,0,12
1,51,112,372
1,51,0,12
1,51,73,372
1,51,0,12
1,51,112,372
1,35,127,0
1,35,0,12
1,51,0,0
1,51,112,756
1,51,0,12
1,51,112,756
1,51,0,12
1,51,127,756
1,51,0,12
1,51,66,756
1,51,0,12
1,49,112,756
1,35,127,0
1,35,0,12
1,49,0,0
1,49,127,372
1,35,127,0
1,35,0,12
1,49,0,0
1,49,127,372
1,35,127,0
1,35,0,12
1,49,0,0
1,38,127,756
1,38,0,12
1,35,89,564
1,35,0,12
1,51,112,180
1,35,127,0
1,35,0,12
1,51,0,0
1,51,127,756
1,51,0,12
1,51,127,756
1,51,0,12
1,51,112,756
1,51,0,12
1,51,112,756
1,51,0,12
1,49,127,756
1,35,127,0
1,35,0,12
1,49,0,0
1,49,127,372
1,35,127,0
1,35,0,12
1,49,0,0
1,49,127,372
1,35,127,0
1,35,0,12
1,49,0,0
1,51,127,756
1,38,127,0
1,38,0,12
1,51,0,0
1,49,95,756
1,35,127,0
1,35,0,12
1,49,0,0
1,49,95,372
1,35,127,0
1,35,0,12
1,49,0,0
1,49,127,372
1,35,127,0
1,35,0,12
1,49,0,0
1,49,112,372
1,35,127,0
1,35,0,12
1,49,0,0
1,49,127,372
1,35,127,0
1,35,0,12
1,49,0,0
1,49,127,372
1,35,127,0
1,35,0,12
1,49,0,0
1,49,112,372
1,35,127,0
1,35,0,12
1,49,0,0
1,49,127,372
1,35,127,0
1,35,0,12
1,49,0,0
1,45,127,8820
1,45,0,12
1,41,127,372
1,41,0,12
1,49,127,372
1,35,127,0
1,35,0,12
1,49,0,0
1,51,73,372
1,51,0,12
1,51,127,372
1,38,127,0
1,38,0,12
1,51,0,0
1,51,112,372
1,51,0,12
1,35,98,180
1,35,0,12
1,51,127,180
1,35,127,0
1,35,0,12
1,51,0,0
1,51,112,372
1,51,0,12
1,51,127,372
1,38,127,0
1,38,0,12
1,51,0,0
1,51,83,372
1,51,0,12
1,51,127,372
1,35,127,0
1,35,0,12
1,51,0,0
1,51,73,372
1,51,0,12
1,51,127,372
1,38,127,0
1,38,0,12
1,51,0,0
1,51,112,372
1,51,0,12
1,35,98,180
1,35,0,12
1,51,127,180
1,35,127,0
1,35,0,12
1,51,0,0
1,51,127,372
1,51,0,12
1,38,89,180
1,38,0,12
1,38,127,180
1,38,0,12
1,45,127,180
1,45,0,12
1,41,125,180
1,41,0,12
1,35,127,180
1,35,0,12
1,49,127,180
1,35,127,0
1,35,0,12
1,49,0,0
1,51,127,372
1,51,0,12
1,51,83,180
1,51,0,12
1,51,127,180
1,38,127,0
1,38,0,12
1,51,0,0
1,51,112,372
1,51,0,12
1,35,110,180
1,35,0,12
1,51,112,180
1,35,127,0
1,35,0,12
1,51,0,0
1,51,127,372
1,51,0,12
1,51,127,372
1,38,127,0
1,38,0,12
1,51,0,0
1,51,112,372
1,51,0,12
1,35,77,180
1,35,0,12
1,51,127,180
1,35,127,0
1,35,0,12
1,51,0,0
1,51,112,372
1,51,0,12
1,51,127,372
1,38,127,0
1,38,0,12
1,51,0,0
1,51,127,372
1,51,0,12
1,35,98,180
1,35,0,12
1,51,127,180
1,35,127,0
1,35,0,12
1,51,0,0
1,51,127,372
1,51,0,12
1,35,127,180
1,35,0,12
1,49,127,180
1,38,127,0
1,38,0,12
1,49,0,0
1,35,89,180
1,35,0,12
1,41,127,180
1,41,0,12
1,35,127,180
1,35,0,12
1,49,127,180
1,35,127,0
1,35,0,12
1,49,0,0
1,51,127,372
1,51,0,12
1,35,127,180
1,35,0,12
1,51,127,180
1,38,127,0
1,38,0,12
1,51,0,0
1,51,127,372
1,51,0,12
1,35,98,180
1,35,0,12
1,51,127,180
1,35,127,0
1,35,0,12
1,51,0,0
1,51,127,372
1,51,0,12
1,51,127,372
1,38,127,0
1,38,0,12
1,51,0,0
1,51,127,372
1,51,0,12
1,51,112,372
1,35,127,0
1,35,0,12
1,51,0,0
1,51,127,372
1,51,0,12
1,51,127,372
1,38,127,0
1,38,0,12
1,51,0,0
1,51,127,372
1,51,0,12
1,35,110,180
1,35,0,12
1,51,127,180
1,35,127,0
1,35,0,12
1,51,0,0
1,51,112,372
1,51,0,12
1,35,127,180
1,35,0,12
1,51,127,180
1,38,127,0
1,38,0,12
1,51,0,0
1,48,127,180
1,48,0,12
1,41,127,180
1,41,0,12
1,35,127,180
1,35,0,12
1,49,127,180
1,35,127,0
1,35,0,12
1,49,0,0
1,51,112,372
1,51,0,12
1,35,127,180
1,35,0,12
1,51,127,180
1,38,127,0
1,38,0,12
1,51,0,0
1,51,112,372
1,51,0,12
1,35,110,180
1,35,0,12
1,51,127,180
1,35,127,0
1,35,0,12
1,51,0,0
1,51,127,372
1,51,0,12
1,51,127,372
1,38,127,0
1,38,0,12
1,51,0,0
1,51,127,372
1,51,0,12
1,35,125,180
1,35,0,12
1,51,127,180
1,35,127,0
1,35,0,12
1,51,0,0
1,51,127,372
1,51,0,12
1,51,127,372
1,38,127,0
1,38,0,12
1,51,0,0
1,51,127,372
1,51,0,12
1,35,110,180
1,35,0,12
1,51,127,180
1,35,127,0
1,35,0,12
1,51,0,0
1,49,127,180
1,35,127,0
1,35,0,12
1,49,0,0
1,51,112,180
1,51,0,12
1,35,127,180
1,35,0,12
1,38,127,180
1,38,0,12
1,45,127,180
1,45,0,12
1,41,127,180
1,41,0,12
1,49,73,180
1,35,127,0
1,35,0,12
1,49,0,0
1,49,127,180
1,35,127,0
1,35,0,12
1,49,0,0
1,51,112,372
1,51,0,12
1,51,83,180
1,51,0,12
1,51,127,180
1,38,127,0
1,38,0,12
1,51,0,0
1,51,127,372
1,51,0,12
1,35,110,180
1,35,0,12
1,51,112,180
1,35,127,0
1,35,0,12
1,51,0,0
1,51,127,372
1,51,0,12
1,51,127,372
1,38,127,0
1,38,0,12
1,51,0,0
1,51,127,372
1,51,0,12
1,35,98,180
1,35,0,12
1,51,127,180
1,35,127,0
1,35,0,12
1,51,0,0
1,51,112,372
1,51,0,12
1,51,127,372
1,38,127,0
1,38,0,12
1,51,0,0
1,51,112,372
1,51,0,12
1,35,127,180
1,35,0,12
1,51,127,180
1,35,127,0
1,35,0,12
1,51,0,0
1,51,127,372
1,51,0,12
1,35,98,180
1,35,0,12
1,51,127,180
1,38,127,0
1,38,0,12
1,51,0,0
1,51,112,372
1,51,0,12
1,49,127,372
1,35,127,0
1,35,0,12
1,49,0,0
1,51,127,372
1,51,0,12
1,35,98,180
1,35,0,12
1,51,127,180
1,38,127,0
1,38,0,12
1,51,0,0
1,51,127,372
1,51,0,12
1,35,89,180
1,35,0,12
1,51,127,180
1,35,127,0
1,35,0,12
1,51,0,0
1,51,127,372
1,51,0,12
1,51,127,372
1,38,127,0
1,38,0,12
1,51,0,0
1,51,127,372
1,51,0,12
1,51,127,372
1,35,127,0
1,35,0,12
1,51,0,0
1,51,112,372
1,51,0,12
1,51,127,372
1,38,127,0
1,38,0,12
1,51,0,0
1,51,112,372
1,51,0,12
1,35,98,180
1,35,0,12
1,49,112,180
1,35,127,0
1,35,0,12
1,49,0,0
1,49,127,756
1,35,127,0
1,35,0,12
1,49,0,0
1,49,127,756
1,35,127,0
1,35,0,12
1,49,0,0
2,41,108,4
2,41,0,172
2,53,100,20
2,53,0,144
2,41,100,48
2,41,0,128
2,46,120,64
2,53,120,112
2,58,108,176
2,60,108,192
2,53,0,68
2,53,120,124
2,60,0,92
2,58,0,28
2,65,127,72
2,53,0,124
2,60,108,68
2,58,127,192
2,46,0,60
2,46,127,132
2,53,108,116
2,58,0,28
2,60,0,64
2,65,0,88
2,58,99,0
2,60,108,192
2,53,0,140
2,53,95,52
2,53,0,280
2,60,0,40
2,58,0,12
2,46,0,8
2,34,127,428
2,46,99,0
2,51,127,116
2,55,99,180
2,58,108,192
2,51,0,112
2,46,0,32
2,51,95,48
2,58,0,44
2,55,0,24
2,51,0,68
2,51,100,56
2,60,108,192
2,51,0,84
2,34,0,20
2,60,0,48
2,58,99,40
2,58,0,64
2,55,100,128
2,65,120,0
2,63,120,0
2,53,108,0
2,46,127,0
2,34,127,0
2,55,0,20
2,65,0,76
2,58,127,60
2,63,0,12
