track,note,velocity,time
0,58,85,43
0,55,85,0
0,54,66,0
0,35,95,0
0,42,92,0
0,43,88,0
0,58,66,22
0,54,42,0
0,58,51,23
0,55,51,0
0,54,37,0
0,42,72,0
0,62,60,2
0,58,60,0
0,55,60,0
0,54,27,0
0,42,60,0
0,58,69,4
0,62,69,0
0,55,69,0
0,40,111,0
0,54,74,0
0,42,64,0
0,58,76,3
0,62,76,0
0,55,76,0
0,54,41,0
0,54,38,15
0,42,56,0
0,43,82,0
0,62,84,29
0,58,84,0
0,55,77,0
0,35,73,0
0,54,40,0
0,43,79,0
0,54,58,16
0,42,80,0
0,35,85,0
0,54,31,24
0,42,65,25
0,54,31,0
0,43,83,0
0,54,35,23
0,42,70,0
0,60,89,25
0,64,89,0
0,40,109,0
0,54,76,0
0,42,68,0
0,58,87,0
0,62,69,0
0,54,42,0
0,54,37,10
0,42,78,0
0,54,40,9
0,42,25,0
0,58,81,20
0,55,81,0
0,54,66,0
0,35,97,0
0,42,65,0
0,43,84,0
0,58,59,3
0,55,59,0
0,54,42,0
0,42,68,0
0,58,64,3
0,62,64,0
0,55,64,0
0,54,37,0
0,42,51,0
0,62,70,2
0,58,70,0
0,55,70,0
0,54,27,0
0,42,60,0
0,58,75,6
0,62,75,0
0,55,75,0
0,40,109,0
0,54,74,0
0,42,88,0
0,58,81,4
0,62,81,0
0,55,81,0
0,54,41,0
0,54,38,13
0,42,64,0
0,43,86,0
0,58,85,16
0,55,69,0
0,62,84,0
0,35,77,0
0,54,40,0
0,42,53,0
0,43,93,0
0,54,58,17
0,35,83,0
0,42,76,0
0,62,83,27
0,54,31,0
0,54,31,15
0,42,80,0
0,54,35,28
0,67,89,33
0,40,107,0
0,54,76,0
0,42,92,0
0,54,42,12
0,54,37,28
0,42,58,0
0,54,40,17
0,42,58,0
0,55,75,26
0,58,89,0
0,54,66,0
0,35,95,0
0,42,62,0
0,43,80,0
0,55,45,1
0,58,82,0
0,54,42,0
0,58,80,3
0,55,45,0
0,42,53,0
0,54,37,0
0,42,80,0
0,58,80,3
0,55,53,0
0,54,27,0
0,58,80,1
0,55,46,0
0,40,111,0
0,54,74,0
0,42,49,0
0,58,85,3
0,55,85,0
0,54,41,0
0,42,47,0
0,58,77,15
0,55,77,0
0,54,38,0
0,42,26,0
0,43,91,0
0,58,84,20
0,55,84,0
0,35,73,0
0,54,40,0
0,43,73,0
0,54,58,19
0,35,85,0
0,42,80,0
0,62,76,21
0,55,85,0
0,58,96,0
0,54,31,0
0,54,31,3
0,42,84,0
0,43,89,0
0,54,35,16
0,42,51,0
0,79,68,5
0,55,80,20
0,60,80,0
0,40,109,0
0,54,76,0
0,42,86,0
0,82,60,3
0,54,42,1
0,54,37,17
0,42,70,0
0,54,40,11
0,42,58,0
0,55,89,26
0,58,89,0
0,54,66,0
0,35,97,0
0,42,68,0
0,43,93,0
0,58,78,22
0,55,58,0
0,54,42,0
0,42,52,0
0,58,84,0
0,55,56,0
0,54,37,0
0,42,44,0
0,58,89,1
0,55,58,0
0,54,27,0
0,42,53,0
0,58,82,2
0,55,54,0
0,40,109,0
0,54,74,0
0,42,82,0
0,58,62,19
0,55,32,0
0,54,41,0
0,58,77,0
0,62,80,0
0,55,56,0
0,54,38,0
0,42,82,0
0,43,72,0
0,62,84,22
0,55,66,0
0,58,84,0
0,35,77,0
0,54,40,0
0,42,56,0
0,43,86,0
0,54,58,20
0,42,72,0
0,35,83,0
0,55,78,27
0,62,89,0
0,58,76,0
0,54,31,0
0,54,31,16
0,42,68,0
0,29,84,0
0,54,35,26
0,94,74,6
0,91,37,4
0,67,92,19
0,40,107,0
0,54,76,0
0,42,84,0
0,91,59,4
0,96,66,2
0,54,42,11
0,29,82,0
0,54,37,12
0,42,70,0
0,30,96,0
0,91,54,1
0,94,76,0
0,54,40,16
0,42,48,0
0,55,89,18
0,58,89,0
0,54,66,0
0,35,95,0
0,42,61,0
0,31,90,0
0,58,85,5
0,55,48,0
0,54,42,0
0,58,78,0
0,55,46,0
0,54,37,0
0,42,80,0
0,55,57,3
0,58,82,0
0,54,27,0
0,58,86,32
0,55,72,0
0,40,111,0
0,54,74,0
0,42,84,0
0,58,79,0
0,55,48,0
0,54,41,0
0,42,53,0
0,62,82,15
0,58,86,0
0,54,38,0
0,42,31,0
0,62,82,20
0,58,86,0
0,35,73,0
0,54,40,0
0,42,61,0
0,43,84,0
0,54,58,21
0,42,76,0
0,35,85,0
0,43,90,0
0,64,78,4
0,60,84,0
0,54,31,0
0,54,31,24
0,42,78,0
0,54,35,17
0,42,49,0
0,79,66,20
0,64,95,2
0,60,95,0
0,40,109,0
0,54,76,0
0,42,86,0
0,82,70,4
0,54,42,19
0,58,83,17
0,62,83,0
0,54,37,0
0,42,52,0
0,54,40,11
0,42,48,0
0,55,86,23
0,58,94,0
0,54,66,0
0,35,97,0
0,42,74,0
0,43,78,0
0,55,37,20
0,58,84,0
0,54,42,0
0,42,49,0
0,58,76,0
0,55,76,0
0,54,37,0
0,55,87,2
0,58,87,0
0,54,27,0
0,42,56,0
0,58,98,6
0,55,98,0
0,40,109,0
0,54,74,0
0,42,94,0
0,55,42,1
0,58,84,0
0,54,41,0
0,58,94,13
0,55,89,0
0,62,80,0
0,54,38,0
0,42,70,0
0,55,75,23
0,58,86,0
0,62,81,0
0,35,77,0
0,54,40,0
0,42,74,0
0,43,64,0
0,54,58,18
0,42,70,0
0,35,83,0
0,43,93,0
0,55,85,17
0,62,76,0
0,58,90,0
0,54,31,0
0,54,31,14
0,42,76,0
0,94,76,25
0,54,35,2
0,91,42,2
0,91,46,19
0,96,76,1
0,55,88,9
0,58,100,0
0,62,88,0
0,40,107,0
0,54,76,0
0,42,94,0
0,54,42,10
0,94,86,16
0,91,63,0
0,54,37,9
0,42,65,0
0,41,81,0
0,54,40,8
0,42,47,0
0,42,94,0
0,58,47,10
0,55,47,0
0,54,66,0
0,35,95,0
0,42,70,0
0,43,82,0
0,55,58,3
0,58,58,0
0,54,42,0
0,58,64,2
0,55,64,0
0,54,37,0
0,42,84,0
0,58,70,14
0,55,70,0
0,54,27,0
0,42,57,0
0,58,80,0
0,55,79,0
0,40,111,0
0,54,74,0
0,42,74,0
0,55,92,19
0,58,92,0
0,54,41,0
0,42,61,0
0,55,104,1
0,58,104,0
0,54,38,0
0,42,37,0
0,58,96,18
0,55,87,0
0,35,73,0
0,54,40,0
0,42,65,0
0,54,58,24
0,42,90,0
0,35,85,0
0,62,85,23
0,55,85,0
0,58,90,0
0,54,31,0
0,54,31,24
0,42,86,0
0,54,35,17
0,42,60,0
0,82,74,16
0,79,72,1
0,55,87,6
0,62,87,0
0,58,86,0
0,40,109,0
0,54,76,0
0,42,86,0
0,58,86,15
0,62,79,0
0,55,78,0
0,54,42,0
0,54,37,17
0,42,82,0
0,54,40,25
0,55,96,1
0,54,66,0
0,35,97,0
0,42,94,0
0,31,86,0
0,54,42,16
0,55,84,16
0,53,90,6
0,54,37,0
0,42,65,0
0,54,27,11
0,42,61,0
0,53,81,16
0,55,86,14
0,40,109,0
0,54,74,0
0,42,76,0
0,54,41,19
0,31,72,0
0,55,89,16
0,53,81,13
0,54,38,0
0,42,84,0
0,43,91,0
0,35,77,12
0,54,40,0
0,43,89,0
0,53,79,2
0,55,84,15
0,54,58,0
0,35,83,0
0,42,76,0
0,54,31,20
0,55,84,16
0,53,82,18
0,54,31,0
0,42,74,0
0,54,35,12
0,42,52,0
0,53,76,1
0,67,119,15
0,55,86,1
0,40,107,0
0,54,76,0
0,42,80,0
0,46,87,0
0,54,42,18
0,55,75,7
0,53,82,18
0,67,124,0
0,54,37,0
0,42,78,0
0,43,88,0
0,54,40,11
0,53,86,16
0,70,120,15
0,58,100,1
0,43,100,0
0,55,82,0
0,54,66,0
0,35,105,0
0,49,80,0
0,31,104,0
0,55,98,0
0,67,102,0
0,67,87,1
0,67,85,2
0,62,89,0
0,54,42,0
0,42,82,0
0,58,62,1
0,58,74,1
0,54,37,0
0,42,88,0
0,62,84,1
0,67,74,0
0,67,100,0
0,58,77,8
0,67,61,1
0,62,77,0
0,54,27,1
0,42,88,0
0,67,114,2
0,58,85,1
0,62,87,0
0,67,83,1
0,54,74,1
0,40,121,0
0,34,112,0
0,58,108,0
0,70,104,0
0,67,82,2
0,58,80,0
0,62,89,0
0,42,94,2
0,54,41,0
0,62,77,26
0,67,76,0
0,58,76,0
0,42,86,0
0,54,38,0
0,58,59,6
0,62,84,0
0,67,61,1
0,42,76,0
0,35,79,0
0,54,40,0
0,67,85,1
0,62,83,0
0,58,79,0
0,42,88,2
0,54,58,0
0,35,97,0
0,36,100,0
0,72,102,0
0,60,98,0
0,67,89,2
0,62,81,0
0,58,76,0
0,42,74,2
0,54,31,0
0,67,85,0
0,58,86,0
0,62,85,1
0,42,84,1
0,54,31,0
0,58,87,2
0,67,93,1
0,62,89,0
0,42,82,1
0,54,35,0
0,38,92,0
0,62,90,0
0,74,98,0
0,40,120,15
0,54,76,0
0,58,95,17
0,67,79,1
0,62,97,0
0,42,90,1
0,54,42,0
0,36,105,0
0,60,74,0
0,72,77,0
0,58,99,3
0,62,95,0
0,67,89,0
0,42,82,3
0,54,37,0
0,34,110,0
0,58,104,0
0,70,88,0
0,65,127,1
0,54,40,15
0,42,82,0
0,65,127,29
0,62,99,1
0,55,86,0
0,43,98,0
0,54,66,0
0,42,88,0
0,35,105,0
0,31,100,0
0,67,102,0
0,55,98,0
0,67,87,1
0,58,103,0
0,67,85,2
0,62,89,1
0,54,42,0
0,42,58,0
0,58,62,1
0,67,106,0
0,58,74,1
0,54,37,0
0,42,86,0
0,62,84,1
0,67,74,0
0,58,77,8
0,67,61,1
0,62,77,0
0,54,27,1
0,42,88,0
0,58,85,1
0,62,87,0
0,67,114,0
0,67,83,1
0,54,74,1
0,40,121,0
0,34,110,0
0,70,102,0
0,58,100,0
0,67,82,2
0,58,80,0
0,62,89,0
0,54,41,2
0,42,92,0
0,62,77,26
0,67,76,0
0,58,76,0
0,54,38,0
0,42,84,0
0,58,59,22
0,62,84,0
0,67,61,1
0,35,95,0
0,54,40,0
0,42,67,0
0,67,85,1
0,62,83,0
0,58,79,0
0,54,58,2
0,42,96,0
0,35,103,0
0,36,96,0
0,60,88,0
0,72,98,0
0,67,89,2
0,62,81,0
0,58,76,0
0,54,31,2
0,42,57,0
0,67,85,0
0,58,86,0
0,62,85,1
0,54,31,1
0,42,76,0
0,58,87,2
0,67,93,1
0,62,89,0
0,42,88,1
0,54,35,0
0,38,92,0
0,62,90,0
0,74,94,0
0,67,119,7
0,40,122,1
0,54,76,0
0,58,95,4
0,67,79,1
0,62,97,0
0,54,42,1
0,42,84,0
0,36,92,0
0,60,82,0
0,72,80,0
0,58,99,1
0,62,95,0
0,67,89,0
0,67,124,1
0,54,37,2
0,42,74,0
0,34,110,0
0,58,106,0
0,70,96,0
0,54,40,12
0,42,67,0
0,72,127,29
0,62,99,1
0,55,90,0
0,43,100,0
0,58,86,0
0,54,66,0
0,35,106,0
0,42,98,0
0,31,104,0
0,55,98,0
0,67,102,0
0,67,87,1
0,58,103,0
0,67,85,2
0,62,89,1
0,54,42,0
0,42,78,0
0,58,62,1
0,58,74,1
0,54,37,0
0,42,78,0
0,62,84,1
0,67,74,0
0,58,77,8
0,67,61,1
0,62,77,0
0,70,104,0
0,54,27,1
0,42,80,0
0,58,85,1
0,62,87,0
0,67,83,1
0,54,74,1
0,40,122,0
0,34,112,0
0,58,108,0
0,70,104,0
0,67,82,2
0,58,80,0
0,62,89,0
0,54,41,2
0,42,74,0
0,62,77,26
0,67,76,0
0,58,76,0
0,54,38,0
0,42,72,0
0,58,59,6
0,62,84,0
0,67,61,1
0,35,91,0
0,54,40,0
0,42,61,0
0,67,85,1
0,62,83,0
0,58,79,0
0,54,58,2
0,42,98,0
0,35,101,0
0,36,100,0
0,72,102,0
0,60,98,0
0,67,89,2
0,62,81,0
0,58,76,0
0,54,31,2
0,42,72,0
0,67,85,0
0,58,86,0
0,62,85,1
0,54,31,1
0,42,65,0
0,58,87,2
0,67,93,1
0,62,89,0
0,54,35,1
0,42,80,0
0,38,92,0
0,62,90,0
0,74,98,0
0,40,122,15
0,54,76,0
0,58,95,17
0,67,79,1
0,62,97,0
0,42,68,1
0,54,42,0
0,36,105,0
0,60,74,0
0,72,77,0
0,58,99,3
0,62,95,0
0,67,89,0
0,54,37,3
0,42,70,0
0,34,110,0
0,58,104,0
0,70,88,0
0,65,112,1
0,54,40,10
0,42,72,0
0,65,121,29
0,62,99,1
0,55,87,0
0,43,97,0
0,58,86,0
0,54,66,0
0,35,107,0
0,42,98,0
0,31,100,0
0,67,102,0
0,55,98,0
0,67,87,1
0,58,103,0
0,67,85,2
0,67,117,0
0,62,89,1
0,54,42,0
0,42,70,0
0,58,62,1
0,67,96,0
0,58,74,1
0,54,37,0
0,42,68,0
0,62,84,1
0,67,74,0
0,58,77,8
0,67,61,1
0,62,77,0
0,54,27,1
0,42,72,0
0,67,119,2
0,58,85,1
0,62,87,0
0,67,83,1
0,54,74,1
0,40,122,0
0,34,110,0
0,70,102,0
0,58,100,0
0,67,82,2
0,58,80,0
0,62,89,0
0,54,41,2
0,42,64,0
0,62,77,26
0,67,76,0
0,58,76,0
0,54,38,0
0,42,68,0
0,58,59,22
0,62,84,0
0,67,61,1
0,35,83,0
0,54,40,0
0,42,67,0
0,67,85,1
0,62,83,0
0,58,79,0
0,54,58,2
0,35,101,0
0,42,98,0
0,36,96,0
0,60,88,0
0,72,98,0
0,67,89,2
0,62,81,0
0,58,76,0
0,54,31,2
0,42,67,0
0,67,85,0
0,58,86,0
0,62,85,1
0,54,31,1
0,42,68,0
0,58,87,2
0,67,93,1
0,62,89,0
0,54,35,1
0,42,76,0
0,38,92,0
0,62,90,0
0,74,94,0
0,67,112,1
0,40,121,8
0,54,76,0
0,67,102,1
0,58,95,12
0,67,79,1
0,62,97,0
0,54,42,1
0,42,80,0
0,36,92,0
0,60,82,0
0,72,80,0
0,58,99,1
0,62,95,0
0,67,89,0
0,67,124,3
0,54,37,0
0,42,70,0
0,34,110,0
0,58,106,0
0,70,96,0
0,54,40,8
0,42,86,0
0,62,99,30
0,58,84,0
0,55,92,0
0,43,92,0
0,62,97,0
0,54,66,0
0,42,88,0
0,35,105,0
0,31,104,0
0,55,98,0
0,67,102,0
0,67,87,1
0,58,103,0
0,70,124,0
0,67,85,2
0,62,89,1
0,54,42,0
0,42,82,0
0,58,62,1
0,58,74,1
0,54,37,0
0,42,88,0
0,62,84,1
0,67,74,0
0,58,77,8
0,67,61,1
0,62,77,0
0,54,27,1
0,42,88,0
0,67,106,1
0,58,85,1
0,62,87,0
0,67,83,1
0,54,74,1
0,40,121,0
0,34,112,0
0,58,108,0
0,70,104,0
0,67,82,2
0,58,80,0
0,62,89,0
0,42,94,2
0,54,41,0
0,62,77,26
0,67,76,0
0,58,76,0
0,42,86,0
0,54,38,0
0,58,59,6
0,62,84,0
0,67,61,1
0,42,76,0
0,35,79,0
0,54,40,0
0,67,85,1
0,62,83,0
0,58,79,0
0,42,88,2
0,54,58,0
0,35,97,0
0,36,100,0
0,72,102,0
0,60,98,0
0,67,89,2
0,62,81,0
0,58,76,0
0,42,74,2
0,54,31,0
0,67,85,0
0,58,86,0
0,62,85,1
0,42,84,1
0,54,31,0
0,58,87,2
0,67,93,1
0,62,89,0
0,42,82,1
0,54,35,0
0,38,92,0
0,62,90,0
0,74,98,0
0,40,120,15
0,54,76,0
0,58,95,17
0,67,79,1
0,62,97,0
0,42,90,1
0,54,42,0
0,36,105,0
0,60,74,0
0,72,77,0
0,58,99,3
0,62,95,0
0,67,89,0
0,65,124,2
0,42,82,1
0,54,37,0
0,34,110,0
0,58,104,0
0,70,88,0
0,54,40,20
0,42,82,0
0,62,99,30
0,43,91,0
0,58,90,0
0,55,94,0
0,62,88,0
0,54,66,0
