track,note,velocity,time
1,79,68,1240
1,82,60,23
1,94,74,578
1,91,37,4
1,91,59,23
1,96,66,2
1,91,54,13
1,94,76,1
1,79,66,592
1,82,70,6
1,94,76,451
1,91,42,4
1,91,46,19
1,96,76,1
1,94,86,16
1,91,63,0
1,82,74,579
1,79,72,1
1,55,98,48
1,67,102,0
1,58,108,23
1,70,104,0
1,72,102,35
1,60,98,0
1,62,90,29
1,74,98,0
1,60,74,63
1,72,77,0
1,58,104,32
1,70,88,0
1,67,102,36
1,55,98,0
1,70,102,32
1,58,100,0
1,60,88,44
1,72,98,0
1,62,90,30
1,74,94,0
1,60,82,56
1,72,80,0
1,58,106,28
1,70,96,0
1,55,98,37
1,67,102,0
1,58,108,23
1,70,104,0
1,72,102,35
1,60,98,0
1,62,90,29
1,74,98,0
1,60,74,63
1,72,77,0
1,58,104,32
1,70,88,0
1,67,102,36
1,55,98,0
1,70,102,32
1,58,100,0
1,60,88,44
1,72,98,0
1,62,90,30
1,74,94,0
1,60,82,56
1,72,80,0
1,58,106,28
1,70,96,0
1,55,98,37
1,67,102,0
1,58,108,23
1,70,104,0
1,72,102,35
1,60,98,0
1,62,90,29
1,74,98,0
1,60,74,63
1,72,77,0
1,58,104,32
1,70,88,0
1,67,102,36
1,55,98,0
1,70,102,32
1,58,100,0
1,60,88,44
1,72,98,0
1,62,90,30
1,74,94,0
1,60,82,56
1,72,80,0
1,58,106,28
1,70,96,0
1,55,98,37
1,67,102,0
1,58,108,23
1,70,104,0
1,72,102,35
1,60,98,0
1,62,90,29
1,74,98,0
1,60,74,63
1,72,77,0
1,58,104,32
1,70,88,0
1,67,102,36
1,55,98,0
1,70,102,32
1,58,100,0
1,60,88,44
1,72,98,0
1,62,90,30
1,74,94,0
1,60,82,56
1,72,80,0
1,58,106,28
1,70,96,0
1,43,88,37
1,55,102,0
1,62,104,0
1,67,98,0
1,55,98,30
1,67,92,0
1,46,94,0
1,62,100,0
1,48,86,21
1,55,100,0
1,60,92,0
1,67,80,0
1,41,50,28
1,65,92,0
1,57,98,0
1,62,96,0
1,42,90,60
1,55,96,26
1,62,104,0
1,67,100,0
1,43,66,0
1,62,96,26
1,67,90,0
1,46,100,0
1,55,94,0
1,67,84,19
1,55,98,0
1,60,94,0
1,48,88,0
1,57,94,30
1,62,94,0
1,65,94,0
1,41,63,0
1,42,98,58
1,55,100,23
1,67,102,0
1,62,106,0
1,43,74,0
1,55,100,26
1,46,108,0
1,62,102,0
1,67,92,0
1,55,102,18
1,67,82,0
1,60,94,0
1,48,78,0
1,62,100,41
1,65,90,0
1,57,96,0
1,41,72,0
1,42,90,53
1,62,100,18
1,55,96,0
1,67,96,0
1,43,75,0
1,46,104,25
1,55,96,0
1,67,94,0
1,62,106,0
1,60,100,14
1,67,88,0
1,55,102,0
1,48,96,0
1,57,98,39
1,62,100,0
1,65,96,0
1,41,74,0
1,42,96,53
1,43,82,19
1,62,104,0
1,55,100,0
1,67,98,0
1,46,102,22
1,62,100,0
1,67,92,0
1,55,98,0
1,67,82,16
1,55,98,0
1,48,86,0
1,60,96,0
1,62,96,32
1,57,96,0
1,65,94,0
1,41,77,0
1,42,86,53
1,43,74,10
1,62,104,0
1,67,96,0
1,55,98,0
1,46,102,15
1,62,88,0
1,55,98,0
1,67,86,0
1,55,100,14
1,48,92,0
1,60,90,0
1,67,77,0
1,57,94,36
1,65,90,0
1,62,98,0
1,41,84,0
1,42,92,50
1,62,96,10
1,67,96,0
1,55,98,0
1,43,61,0
1,62,92,16
1,55,96,0
1,46,98,0
1,67,84,0
1,60,96,15
1,67,78,0
1,55,104,0
1,48,78,0
1,65,92,37
1,57,94,0
1,62,96,0
1,41,78,0
1,42,88,53
1,67,96,11
1,62,102,0
1,43,71,0
1,55,98,0
1,62,98,21
1,55,94,0
1,67,86,0
1,46,98,0
1,48,84,7
1,55,98,0
1,67,78,0
1,60,94,0
1,65,92,35
1,62,98,0
1,57,98,0
1,41,90,0
1,42,92,47
1,67,92,25
1,63,98,0
1,72,90,0
1,70,100,0
1,51,100,0
1,51,102,34
1,63,98,0
1,67,96,0
1,70,96,0
1,72,90,0
1,63,102,19
1,72,88,0
1,67,96,0
1,70,104,0
1,51,96,0
1,70,96,31
1,63,102,0
1,72,88,0
1,67,94,0
1,51,92,0
1,70,100,41
1,67,94,0
1,51,100,0
1,63,106,0
1,72,92,0
1,60,96,48
1,69,98,0
1,72,96,0
1,65,100,0
1,53,98,0
1,58,111,671
1,62,110,0
1,43,104,0
1,67,106,0
1,62,110,283
1,67,104,0
1,58,112,0
1,43,106,0
1,43,104,270
1,67,106,0
1,62,111,0
1,58,112,0
1,46,106,131
1,47,102,31
1,60,102,46
1,64,110,0
1,67,104,0
1,48,108,0
1,60,78,35
1,67,86,0
1,64,90,0
1,48,100,0
1,46,102,21
1,62,100,0
1,58,106,0
1,67,104,37
1,58,111,0
1,62,106,0
1,43,100,0
1,58,111,294
1,62,108,0
1,67,102,0
1,43,102,0
1,58,111,283
1,43,104,0
1,62,108,0
1,67,104,0
1,46,104,135
1,47,94,29
1,60,102,65
1,64,104,0
1,67,100,0
1,48,106,0
1,60,65,34
1,67,72,0
1,64,77,0
1,48,96,0
1,46,102,17
1,58,110,0
1,62,100,0
1,67,53,0
1,62,104,28
1,58,112,0
1,43,104,0
1,67,94,0
1,43,94,294
1,58,112,0
1,67,100,0
1,62,106,0
1,67,98,282
1,62,108,0
1,58,112,0
1,43,98,0
1,46,106,131
1,47,92,26
1,64,102,67
1,60,102,0
1,67,100,0
1,48,100,0
1,60,60,33
1,64,80,0
1,67,71,0
1,48,96,0
1,46,100,19
1,62,94,0
1,58,110,0
1,43,94,28
1,62,102,0
1,58,110,0
1,67,84,0
1,43,100,293
1,58,112,0
1,62,106,0
1,67,86,0
1,43,98,270
1,67,94,0
1,58,111,0
1,62,106,0
1,46,104,133
1,47,80,24
1,60,106,39
1,64,108,0
1,67,98,0
1,48,102,0
1,67,74,34
1,64,74,0
1,60,66,0
1,48,92,0
1,46,104,20
1,58,106,0
1,62,98,0
1,67,98,55
1,43,98,0
1,55,100,0
1,70,102,40
1,58,96,0
1,46,104,0
1,72,100,36
1,48,96,0
1,60,88,0
1,62,92,69
1,74,92,0
1,50,92,0
1,62,94,65
1,74,98,0
1,50,96,0
1,43,100,84
1,67,98,0
1,55,94,0
1,58,104,53
1,70,100,0
1,46,104,0
1,72,102,38
1,60,96,0
1,48,94,0
1,74,98,44
1,62,86,0
1,50,94,0
1,72,88,21
1,60,92,0
1,48,78,0
1,58,98,71
1,70,92,0
1,46,92,0
1,43,96,69
1,55,100,0
1,67,90,0
1,70,102,25
1,46,102,0
1,58,96,0
1,72,100,46
1,60,96,0
1,48,100,0
1,74,96,54
1,50,98,0
1,62,84,0
1,62,104,66
1,74,104,0
1,50,104,0
1,43,96,46
1,55,98,0
1,67,90,0
1,58,96,34
1,70,100,0
1,46,100,0
1,72,98,40
1,48,94,0
1,60,96,0
1,74,96,60
1,62,82,0
1,50,94,0
1,60,92,11
1,47,56,0
1,72,80,0
1,48,67,0
1,58,102,71
1,70,92,0
1,46,88,0
1,65,80,69
1,67,77,0
1,55,96,0
1,43,98,0
1,70,100,42
1,46,98,0
1,58,98,0
1,72,96,63
1,48,88,0
1,60,82,0
1,74,94,17
1,62,86,0
1,50,94,0
1,62,100,53
1,50,98,0
1,74,96,0
1,55,96,110
1,67,96,0
1,43,88,0
1,70,102,24
1,58,96,0
1,46,98,0
1,72,102,37
1,60,96,0
1,48,96,0
1,74,102,19
1,62,92,0
1,50,96,0
1,60,88,50
1,72,84,0
1,48,92,0
1,70,90,67
1,58,100,0
1,46,94,0
1,43,96,74
1,55,96,0
1,67,96,0
1,70,102,28
1,46,104,0
1,58,92,0
1,60,94,39
1,72,100,0
1,48,96,0
1,74,96,5
1,50,94,0
1,62,80,0
1,62,100,25
1,74,98,0
1,50,98,0
1,67,90,2
1,55,94,0
1,43,96,0
1,46,102,24
1,58,92,0
1,70,100,0
1,48,90,28
1,72,100,0
1,60,86,0
1,74,94,17
1,62,86,0
1,50,98,0
1,60,88,57
1,72,88,0
1,48,86,0
1,58,106,24
1,70,98,0
1,46,106,0
1,43,88,75
1,55,102,0
1,62,104,0
1,67,98,0
1,55,98,30
1,67,92,0
1,46,94,0
1,62,100,0
1,48,86,21
1,55,100,0
1,60,92,0
1,67,80,0
1,41,50,28
1,65,92,0
1,57,98,0
1,62,96,0
1,42,90,60
1,55,96,26
1,62,104,0
1,67,100,0
1,43,66,0
1,62,96,26
1,67,90,0
1,46,100,0
1,55,94,0
1,67,84,19
1,55,98,0
1,60,94,0
1,48,88,0
1,57,94,30
1,62,94,0
1,65,94,0
1,41,63,0
1,42,98,58
1,55,100,23
1,67,102,0
1,62,106,0
1,43,74,0
1,55,100,26
1,46,108,0
1,62,102,0
1,67,92,0
1,55,102,18
1,67,82,0
1,60,94,0
1,48,78,0
1,62,100,41
1,65,90,0
1,57,96,0
1,41,72,0
1,42,90,53
1,62,100,18
1,55,96,0
1,67,96,0
1,43,75,0
1,46,104,25
1,55,96,0
1,67,94,0
1,62,106,0
1,60,100,14
1,67,88,0
1,55,102,0
1,48,96,0
1,57,98,39
1,62,100,0
1,65,96,0
1,41,74,0
1,42,96,53
1,43,82,19
1,62,104,0
1,55,100,0
1,67,98,0
1,46,102,22
1,62,100,0
1,67,92,0
1,55,98,0
1,67,82,16
1,55,98,0
1,48,86,0
1,60,96,0
1,62,96,32
1,57,96,0
1,65,94,0
1,41,77,0
1,42,86,53
1,43,74,10
1,62,104,0
1,67,96,0
1,55,98,0
1,46,102,15
1,62,88,0
1,55,98,0
1,67,86,0
1,55,100,14
1,48,92,0
1,60,90,0
1,67,77,0
1,57,94,36
1,65,90,0
1,62,98,0
1,41,84,0
1,42,92,50
1,62,96,10
1,67,96,0
1,55,98,0
1,43,61,0
1,62,92,16
1,55,96,0
1,46,98,0
1,67,84,0
1,60,96,15
1,67,78,0
1,55,104,0
1,48,78,0
1,65,92,37
1,57,94,0
1,62,96,0
1,41,78,0
1,42,88,53
1,67,96,11
1,62,102,0
1,43,71,0
1,55,98,0
1,62,98,21
1,55,94,0
1,67,86,0
1,46,98,0
1,48,84,7
1,55,98,0
1,67,78,0
1,60,94,0
1,65,92,35
1,62,98,0
1,57,98,0
1,41,90,0
1,42,92,47
1,67,92,25
1,63,98,0
1,72,90,0
1,70,100,0
1,51,100,0
1,51,102,34
1,63,98,0
1,67,96,0
1,70,96,0
1,72,90,0
1,63,102,19
1,72,88,0
1,67,96,0
1,70,104,0
1,51,96,0
1,70,96,31
1,63,102,0
1,72,88,0
1,67,94,0
1,51,92,0
1,70,100,41
1,67,94,0
1,51,100,0
1,63,106,0
1,72,92,0
1,60,96,48
1,69,98,0
1,72,96,0
1,65,100,0
1,53,98,0
1,58,111,671
1,62,110,0
1,43,104,0
1,67,106,0
1,62,110,283
1,67,104,0
1,58,112,0
1,43,106,0
1,43,104,270
1,67,106,0
1,62,111,0
1,58,112,0
1,46,106,131
1,47,102,31
1,60,102,46
1,64,110,0
1,67,104,0
1,48,108,0
1,60,78,35
1,67,86,0
1,64,90,0
1,48,100,0
1,46,102,21
1,62,100,0
1,58,106,0
1,67,104,37
1,62,106,0
1,58,111,0
1,43,100,0
1,58,111,294
1,62,108,0
1,67,102,0
1,43,102,0
1,58,111,283
1,43,104,0
1,62,108,0
1,67,104,0
1,46,104,135
1,47,94,29
1,60,102,65
1,64,104,0
1,67,100,0
1,48,106,0
1,60,65,34
1,67,72,0
1,64,77,0
1,48,96,0
1,46,102,17
1,58,110,0
1,62,100,0
1,67,53,0
1,62,104,28
1,58,112,0
1,43,104,0
1,67,94,0
1,43,94,294
1,58,112,0
1,67,100,0
1,62,106,0
1,67,98,282
1,62,108,0
1,58,112,0
1,43,98,0
1,46,106,131
1,47,92,26
1,64,102,67
1,60,102,0
1,67,100,0
1,48,100,0
1,60,60,33
1,64,80,0
1,67,71,0
1,48,96,0
1,46,100,19
1,62,94,0
1,58,110,0
1,43,94,28
1,62,102,0
1,58,110,0
1,67,84,0
1,43,100,293
1,58,112,0
1,62,106,0
1,67,86,0
1,43,98,270
1,67,94,0
1,58,111,0
1,62,106,0
1,46,104,133
1,47,80,24
1,60,106,39
1,64,108,0
1,67,98,0
1,48,102,0
1,67,74,34
1,64,74,0
1,60,66,0
1,48,92,0
1,46,104,20
1,58,106,0
1,62,98,0
1,43,92,55
1,67,102,0
1,62,106,0
1,55,98,0
1,46,100,32
1,67,86,0
1,62,98,0
1,55,96,0
1,48,96,20
1,60,102,0
1,67,88,0
1,55,102,0
1,62,104,10
1,55,100,0
1,50,98,0
1,67,94,0
1,48,90,73
1,46,98,74
1,67,98,68
1,62,102,0
1,55,96,0
1,43,96,0
1,46,104,14
1,67,96,0
1,62,102,0
1,55,92,0
1,48,102,24
1,60,98,0
1,55,100,0
1,67,77,0
1,50,96,47
1,48,84,78
1,46,96,73
1,67,96,61
1,55,98,0
1,62,102,0
1,43,94,0
1,62,100,17
1,55,94,0
1,67,92,0
1,46,98,0
1,48,96,23
1,60,102,0
1,55,100,0
1,67,77,0
1,62,104,17
1,50,100,0
1,55,98,0
1,67,96,0
1,48,82,68
1,46,92,69
1,43,94,50
1,67,94,0
1,62,102,0
1,55,96,0
1,67,92,25
1,55,96,0
1,46,96,0
1,62,96,0
1,48,100,24
1,60,102,0
1,55,102,0
1,67,82,0
1,67,96,13
1,55,96,0
1,50,98,0
1,62,104,0
1,48,86,60
1,46,94,67
1,67,98,54
1,62,102,0
1,55,98,0
1,43,96,0
1,46,100,23
1,62,98,0
1,67,88,0
1,55,90,0
1,48,96,26
1,67,86,0
1,55,100,0
1,60,102,0
1,62,102,6
1,67,94,0
1,55,94,0
1,50,96,0
1,48,78,62
1,46,94,69
1,67,98,58
1,62,102,0
1,55,98,0
1,43,88,0
1,46,98,17
1,55,96,0
1,67,92,0
1,62,98,0
1,48,92,22
1,55,104,0
1,60,104,0
1,67,77,0
1,67,90,11
1,55,96,0
1,62,102,0
1,50,98,0
1,48,82,63
1,46,100,68
1,62,100,63
1,55,94,0
1,67,100,0
1,43,94,0
1,62,96,21
1,46,102,0
1,67,94,0
1,55,96,0
1,67,84,22
1,55,104,0
1,60,102,0
1,48,94,0
1,67,96,18
1,55,98,0
1,62,100,0
1,50,92,0
1,48,84,62
1,46,94,71
1,67,96,59
1,55,98,0
1,62,102,0
1,43,94,0
1,67,94,19
1,55,98,0
1,62,100,0
1,46,98,0
1,60,102,21
1,55,104,0
1,48,96,0
1,67,75,0
1,50,98,11
1,67,92,0
1,55,94,0
1,62,102,0
1,48,94,76
1,46,110,25
1,43,88,77
1,55,102,0
1,62,104,0
1,67,98,0
1,55,98,30
1,67,92,0
1,46,94,0
1,62,100,0
1,55,100,21
1,60,92,0
1,67,80,0
1,48,86,0
1,41,50,28
1,65,92,0
1,57,98,0
1,62,96,0
1,42,90,60
1,55,96,26
1,62,104,0
1,67,100,0
1,43,66,0
1,62,96,26
1,67,90,0
1,46,100,0
1,55,94,0
1,67,84,19
1,55,98,0
1,60,94,0
1,48,88,0
1,57,94,30
1,62,94,0
1,65,94,0
1,41,63,0
1,42,98,58
1,55,100,23
1,67,102,0
1,62,106,0
1,43,74,0
1,55,100,26
1,46,108,0
1,62,102,0
1,67,92,0
1,55,102,18
1,67,82,0
1,60,94,0
1,48,78,0
1,62,100,41
1,65,90,0
1,57,96,0
1,41,72,0
1,42,90,53
1,62,100,18
1,55,96,0
1,67,96,0
1,43,75,0
1,46,104,25
1,55,96,0
1,67,94,0
1,62,106,0
1,60,100,14
1,67,88,0
1,55,102,0
1,48,96,0
1,57,98,39
1,62,100,0
1,65,96,0
1,41,74,0
1,42,96,53
1,43,82,19
1,62,104,0
1,55,100,0
1,67,98,0
1,46,102,22
1,62,100,0
1,67,92,0
1,55,98,0
1,67,82,16
