track,note,velocity,time
1,54,71,52
1,60,91,0
1,44,79,14
1,44,55,46
1,54,51,50
1,44,47,0
1,44,39,46
1,54,47,0
1,54,51,48
1,44,71,0
1,62,123,4
1,44,51,32
1,44,51,34
1,54,43,0
1,44,51,50
1,60,71,18
1,60,83,64
1,54,59,0
1,44,71,0
1,44,43,62
1,54,51,50
1,44,43,0
1,54,59,50
1,44,47,0
1,44,87,48
1,54,55,2
1,62,119,0
1,55,91,310
1,55,75,64
1,55,83,32
1,55,87,802
1,55,83,78
1,55,63,48
1,55,79,240
1,55,83,116
1,55,63,62
1,55,91,66
1,41,91,238
1,41,71,162
1,42,103,0
1,43,95,84
1,55,91,690
1,55,95,60
1,55,67,672
1,55,55,66
1,55,83,62
1,53,71,516
1,54,99,0
1,55,87,110
1,43,91,2
1,43,63,50
1,55,83,30
1,55,95,32
1,58,79,370
1,55,87,192
1,43,99,0
1,46,107,384
1,48,95,360
1,50,87,0
1,48,83,150
1,46,103,22
1,43,95,2
1,46,103,0
1,48,91,384
1,50,87,264
1,48,87,150
1,46,103,16
1,43,99,0
1,46,107,380
1,48,95,370
1,50,87,0
1,48,83,154
1,46,103,16
1,43,95,24
1,46,103,0
1,48,91,384
1,50,87,262
1,48,87,156
1,46,103,18
1,43,99,0
1,46,107,372
1,48,95,368
1,50,87,2
1,48,83,158
1,46,103,18
1,43,95,2
1,46,103,4
1,48,91,378
1,50,87,0
1,48,87,162
1,46,103,30
1,43,99,0
1,46,107,380
1,48,95,368
1,50,87,2
1,48,83,164
1,46,103,24
1,43,95,14
1,46,103,2
1,48,91,382
1,50,87,260
1,48,87,164
1,46,103,26
1,43,95,0
1,46,107,368
1,48,87,26
1,46,95,0
1,41,87,32
1,42,91,0
1,43,95,0
1,46,107,388
1,48,83,2
1,46,103,278
1,41,83,32
1,42,75,194
1,43,95,0
1,46,103,376
1,48,83,26
1,46,103,16
1,41,83,38
1,42,91,0
1,43,95,18
1,55,99,2
1,46,107,146
1,48,79,18
1,46,99,286
1,41,79,40
1,42,87,184
1,43,91,0
1,46,107,386
1,48,91,18
1,46,99,288
1,41,83,42
1,42,95,186
1,43,95,0
1,46,103,402
1,48,83,18
1,46,99,288
1,41,79,38
1,42,91,200
1,43,95,0
1,46,103,384
1,48,79,32
1,46,99,0
1,41,75,40
1,42,91,194
1,43,87,0
1,46,99,384
1,48,79,0
1,46,95,0
1,41,83,10
1,42,87,196
1,51,111,44
1,51,91,50
1,51,99,92
1,51,87,58
1,51,95,94
1,51,95,50
1,51,91,96
1,51,87,56
1,51,107,146
1,41,95,30
1,43,103,1326
1,43,83,468
1,43,99,74
1,43,103,554
1,46,83,292
1,47,83,0
1,48,83,18
1,48,99,156
1,46,99,86
1,43,99,114
1,43,87,460
1,43,95,62
1,43,103,528
1,46,87,270
1,47,79,80
1,48,83,34
1,48,91,150
1,46,91,90
1,43,99,114
1,43,83,496
1,43,95,46
1,43,99,566
1,46,83,288
1,47,79,16
1,48,83,0
1,48,95,160
1,46,91,106
1,43,107,96
1,43,91,482
1,43,87,66
1,43,103,594
1,46,83,286
1,47,59,0
1,48,75,2
1,48,87,226
1,46,91,80
1,43,99,144
1,46,103,0
1,48,87,20
1,46,87,2
1,41,95,16
1,42,79,192
1,43,95,0
1,46,103,374
1,48,87,12
1,46,83,290
1,41,91,18
1,42,87,200
1,43,95,190
1,46,99,368
1,48,87,16
1,46,71,284
1,41,91,38
1,42,83,2
1,43,91,202
1,46,91,0
1,48,83,12
1,46,87,0
1,41,95,16
1,42,79,0
1,43,91,0
1,46,99,384
1,48,83,16
1,46,87,288
1,41,87,0
1,42,75,20
1,43,99,192
1,46,103,360
1,48,83,16
1,46,91,288
1,41,91,18
1,42,83,18
1,43,99,192
1,46,95,368
1,48,91,0
1,46,83,0
1,41,91,34
1,42,83,20
1,43,95,192
1,46,99,358
1,48,83,16
1,46,91,2
1,41,95,18
1,42,91,0
1,43,95,76
1,46,107,356
1,48,87,0
1,46,95,0
1,41,87,34
1,42,91,0
1,43,95,0
1,46,107,382
1,48,83,2
1,46,103,286
1,41,83,54
1,42,75,170
1,43,95,0
1,46,103,384
1,48,83,34
1,46,103,14
1,41,83,32
1,42,91,2
1,43,95,8
1,55,99,0
1,46,107,162
1,48,79,24
1,46,99,278
1,41,79,28
1,42,87,202
1,43,91,2
1,46,107,380
1,48,91,32
1,46,99,278
1,41,83,26
1,42,95,202
1,43,95,32
1,46,103,368
1,48,83,28
1,46,99,274
1,41,79,42
1,42,91,188
1,43,95,0
1,46,103,370
1,48,79,46
1,46,99,2
1,41,75,44
1,42,91,194
1,43,87,4
1,46,99,368
1,48,79,0
1,46,95,0
1,41,83,18
1,42,87,190
1,51,111,32
1,51,91,56
1,51,99,94
1,51,87,42
1,51,95,78
1,51,95,42
1,51,91,94
1,51,87,62
1,51,107,136
1,41,95,48
1,43,103,1328
1,43,83,464
1,43,99,62
1,43,103,558
1,46,83,288
1,47,83,0
1,48,83,16
1,48,99,144
1,46,99,98
1,43,99,110
1,43,87,464
1,43,95,66
1,43,103,530
1,46,87,268
1,47,79,78
1,48,83,0
1,48,91,160
1,46,91,0
1,43,99,114
1,43,83,472
1,43,95,40
1,43,99,578
1,46,83,300
1,47,79,14
1,48,83,0
1,48,95,164
1,46,91,2
1,43,107,102
1,43,91,486
1,43,87,78
1,43,103,592
1,46,83,304
1,47,59,0
1,48,75,0
1,48,87,230
1,46,91,74
1,43,99,152
1,46,103,0
1,48,87,14
1,46,87,0
1,41,95,16
1,42,79,0
1,43,95,190
1,46,103,356
1,48,87,18
1,46,83,288
1,41,91,16
1,42,87,200
1,43,95,180
1,46,99,352
1,48,87,18
1,46,71,286
1,41,91,34
1,42,83,0
1,43,91,192
1,46,91,358
1,48,83,20
1,46,87,2
1,41,95,18
1,42,79,0
1,43,91,0
1,46,99,386
1,48,83,20
1,46,87,286
1,41,87,2
1,42,75,16
1,43,99,192
1,46,103,366
1,48,83,20
1,46,91,284
1,41,91,26
1,42,83,28
1,43,99,170
1,46,95,366
1,48,91,0
1,46,83,0
1,41,91,40
1,42,83,2
1,43,95,226
1,46,99,366
1,48,83,12
1,46,91,0
1,41,95,14
1,42,91,0
1,43,95,64
1,46,107,368
1,48,87,0
1,46,95,4
1,41,87,32
1,42,91,194
1,43,95,0
1,46,107,368
1,48,83,2
1,46,103,278
1,41,83,34
1,42,75,194
1,43,95,0
1,46,103,392
1,48,83,28
1,46,103,16
1,41,83,28
1,42,91,0
1,43,95,16
1,55,99,0
1,46,107,146
1,48,79,28
1,46,99,278
1,41,79,36
1,42,87,192
1,43,91,0
1,46,107,372
1,48,91,14
1,46,99,288
1,41,83,38
1,42,95,188
1,43,95,18
1,46,103,386
1,48,83,18
1,46,99,288
1,41,79,36
1,42,91,188
1,43,95,16
1,46,103,382
1,48,79,50
1,46,99,0
1,41,75,26
1,42,91,194
1,43,87,0
1,46,99,384
1,48,79,2
1,46,95,0
1,41,83,16
1,42,87,194
1,51,111,34
1,51,91,40
1,51,99,96
1,51,87,46
1,51,95,94
1,51,95,48
1,51,91,98
1,51,87,58
1,51,107,128
1,41,95,34
1,43,103,1366
1,46,107,350
1,48,95,0
1,46,95,0
1,41,95,14
1,42,83,176
1,43,99,4
1,46,99,396
1,48,87,0
1,46,91,4
1,41,75,40
1,42,95,0
1,43,91,22
1,46,95,362
1,48,87,4
1,46,91,282
1,41,99,20
1,42,83,172
1,43,95,0
1,46,99,398
1,48,83,352
1,46,91,0
1,41,95,0
1,42,87,190
1,43,83,16
1,46,103,398
1,48,87,0
1,46,95,270
1,41,99,0
1,42,87,2
1,43,95,52
1,46,103,0
1,48,79,0
1,46,91,194
1,41,87,2
1,42,83,4
1,43,83,186
1,46,91,368
1,48,79,2
1,46,87,182
1,41,87,2
1,42,75,188
1,43,83,172
1,46,87,0
1,48,71,386
1,41,95,76
1,41,83,34
1,42,83,210
1,43,95,166
1,46,87,360
1,48,79,30
1,41,91,0
1,41,79,66
1,42,79,182
1,43,91,194
1,46,95,356
1,48,75,22
1,41,95,14
1,41,79,48
1,42,91,194
1,43,95,176
1,46,103,0
1,48,79,4
1,46,91,184
1,41,87,0
1,42,83,190
1,43,83,170
1,46,91,378
1,48,79,0
1,46,87,184
1,41,87,2
1,42,75,0
1,43,83,186
1,46,87,0
1,48,71,370
1,41,95,86
1,41,83,46
1,42,83,0
1,43,95,190
1,46,87,356
1,48,79,42
1,41,91,0
1,41,79,76
1,42,79,186
1,43,91,176
1,46,95,358
1,48,75,2
1,41,95,18
1,41,79,80
1,42,91,192
1,43,83,162
1,46,87,0
1,48,71,374
1,41,95,64
1,41,83,64
1,42,83,196
1,43,95,172
1,46,87,356
1,48,79,42
1,41,91,2
1,41,79,90
1,42,79,186
1,43,87,0
1,46,107,256
1,48,87,0
1,49,107,268
1,50,91,16
1,50,99,38
1,43,103,0
2,43,79,12342
2,55,83,0
2,55,87,204
2,43,79,0
2,55,71,240
2,58,87,0
2,43,79,136
2,58,87,0
2,62,79,112
2,43,71,0
2,62,87,140
2,58,91,0
2,58,95,98
2,67,79,14
2,67,87,112
2,74,83,98
2,79,79,0
2,79,71,122
2,74,83,0
2,77,83,144
2,74,83,0
2,76,79,272
2,72,83,0
2,77,67,48
2,74,75,2
2,77,59,98
2,74,71,0
2,77,67,66
2,74,71,2
2,79,75,144
2,74,75,0
2,79,71,120
2,74,79,2
2,74,83,128
2,77,75,0
2,76,79,272
2,72,79,0
2,77,67,48
2,74,79,2
2,77,71,96
2,74,75,0
2,74,71,64
2,77,67,0
2,79,75,128
2,74,75,0
2,74,75,122
2,79,71,18
2,77,75,146
2,74,79,0
2,76,79,274
2,72,83,0
2,74,79,38
2,77,67,0
2,77,63,94
2,74,71,0
2,77,63,70
2,74,75,2
2,79,75,136
2,74,75,2
2,74,75,110
2,79,67,16
2,77,83,140
2,74,79,0
2,72,83,250
2,76,83,22
2,74,75,34
2,77,71,0
2,74,71,84
2,77,59,12
2,77,63,50
2,74,71,4
2,79,71,116
2,74,71,0
2,79,71,132
2,74,75,0
2,74,83,118
2,77,79,0
2,76,79,288
2,72,79,0
2,74,75,34
2,77,63,0
2,74,75,94
2,77,67,2
2,77,67,62
2,74,71,2
2,74,75,114
2,79,71,0
2,74,75,110
2,79,63,18
2,74,79,154
2,77,79,0
2,72,79,280
2,76,79,4
2,74,75,46
2,77,71,0
2,77,67,96
2,74,71,16
2,77,63,50
2,74,75,0
2,79,75,126
2,74,83,0
2,74,75,112
2,79,63,0
2,77,75,130
2,74,79,0
2,76,79,254
2,72,83,0
2,74,75,34
2,77,63,0
2,74,63,94
2,77,59,0
2,74,71,60
2,77,55,0
2,79,75,112
2,74,79,0
2,79,71,116
2,74,75,0
2,74,83,144
2,77,79,0
2,72,79,288
2,76,75,2
2,77,63,34
2,74,75,0
2,74,67,96
2,77,67,0
2,74,71,64
2,77,67,0
2,75,87,128
2,79,75,2
2,75,75,20
2,79,67,0
2,75,71,112
2,79,59,0
2,79,55,32
2,75,67,0
2,75,75,96
2,79,67,0
2,79,67,30
2,75,67,0
2,75,67,92
2,79,63,2
2,79,59,32
2,75,63,2
2,75,75,146
2,79,71,0
2,81,67,32
2,77,75,0
2,70,103,1760
2,79,95,0
2,74,99,0
2,69,91,96
2,67,83,16
2,62,71,0
2,64,71,0
2,65,75,0
2,60,63,4
2,59,59,0
2,57,31,36
2,74,99,462
2,70,103,4
2,79,99,14
2,69,91,96
2,67,83,14
2,65,83,32
2,64,71,18
2,62,59,2
2,70,99,156
2,67,95,0
2,67,39,32
2,70,75,14
2,70,99,96
2,67,87,2
2,70,95,96
2,67,87,2
2,67,83,98
2,70,91,2
2,72,79,48
2,67,91,0
2,72,83,64
2,67,95,0
2,67,79,36
2,70,91,2
2,70,103,450
2,79,99,0
2,74,99,0
2,69,79,110
2,64,75,38
2,65,87,0
2,67,79,0
2,62,63,0
2,60,55,55
2,79,95,480
2,74,99,4
2,70,103,0
2,69,87,116
2,64,67,56
2,65,75,0
2,67,75,0
2,62,51,0
2,67,95,167
2,70,99,0
2,70,83,40
2,67,75,0
2,67,87,94
2,70,95,0
2,70,99,102
2,67,87,2
2,70,95,92
2,67,75,0
2,72,83,60
2,67,87,0
2,67,91,76
2,72,87,2
2,67,75,16
2,70,91,10
2,74,95,414
2,70,103,0
2,79,95,0
2,69,91,0
2,67,79,54
2,65,79,2
2,64,71,2
2,62,75,2
2,60,63,0
2,59,59,41
2,57,39,0
2,79,99,458
2,70,103,2
2,74,99,2
2,69,63,92
2,67,75,32
2,62,71,0
2,64,79,0
2,65,83,0
2,67,95,164
2,70,103,0
2,70,83,42
2,67,75,2
2,70,99,110
2,67,87,0
2,67,87,114
2,70,99,0
2,67,83,110
2,70,95,2
2,72,79,84
2,67,91,2
2,67,95,68
2,72,87,0
2,72,63,50
2,70,99,0
2,67,95,0
2,79,99,416
2,70,103,0
2,74,99,0
2,69,67,0
2,67,75,36
2,65,87,2
2,64,79,2
2,62,71,2
2,60,59,0
2,79,95,541
2,70,103,0
2,74,99,0
2,69,71,102
2,65,75,38
2,67,75,0
2,64,63,4
2,62,51,0
2,67,91,158
2,70,99,2
2,70,87,44
2,67,75,2
2,70,95,102
2,67,91,0
2,70,91,100
2,67,83,0
2,67,83,108
2,70,95,2
2,72,71,22
2,67,83,38
2,67,91,64
2,72,79,0
2,67,87,36
2,70,91,22
2,43,87,78
2,55,87,4
2,43,83,210
2,55,91,26
2,55,75,236
2,58,91,0
2,58,91,148
2,55,71,28
2,62,83,128
2,58,91,4
2,58,95,166
2,62,95,2
2,62,87,96
2,67,87,22
2,62,91,98
2,79,79,80
2,74,83,0
2,74,83,126
2,79,71,0
2,74,83,146
2,77,83,0
2,76,79,272
2,72,83,0
2,77,67,50
2,74,75,0
2,77,59,96
2,74,71,0
2,74,71,68
2,77,67,0
2,74,75,148
2,79,75,0
2,79,71,118
2,74,79,0
2,77,75,130
2,74,83,0
2,76,79,270
2,72,79,0
2,74,79,48
2,77,67,0
2,77,71,94
2,74,75,0
2,77,67,62
2,74,71,2
2,74,75,126
2,79,75,2
2,74,75,124
2,79,71,18
2,77,75,144
2,74,79,0
2,76,79,274
2,72,83,0
2,77,67,30
2,74,79,2
2,77,63,112
2,74,71,0
2,74,75,64
2,77,63,0
2,79,75,128
2,74,75,4
2,74,75,114
2,79,67,14
2,74,79,130
2,77,83,0
2,76,83,256
2,72,83,0
2,77,71,30
2,74,75,4
2,74,71,96
2,77,59,14
2,77,63,48
2,74,71,2
2,74,71,112
2,79,71,18
2,79,71,124
2,74,75,0
2,74,83,114
2,77,79,0
2,76,79,290
2,72,79,0
2,77,63,32
2,74,75,0
2,77,67,96
2,74,75,0
2,74,71,66
2,77,67,0
2,79,71,112
2,74,75,2
2,74,75,112
2,79,63,16
2,74,79,140
2,77,79,0
2,76,79,288
2,72,79,0
2,77,71,50
2,74,75,2
2,77,67,84
2,74,71,2
2,77,63,54
2,74,75,0
2,74,83,122
2,79,75,2
2,74,75,128
2,79,63,0
2,77,75,140
2,74,79,0
2,72,83,254
2,76,79,2
2,74,75,36
2,77,63,0
2,74,63,96
2,77,59,0
2,77,55,64
2,74,71,0
2,74,79,118
2,79,75,2
2,79,71,132
2,74,75,0
2,77,79,144
2,74,83,0
2,76,75,282
2,72,79,0
2,74,75,34
2,77,63,0
2,74,67,96
2,77,67,0
2,74,71,64
2,77,67,0
2,75,87,116
2,79,75,2
2,75,75,36
2,79,67,0
2,75,71,124
2,79,59,0
2,75,67,30
2,79,55,0
2,75,75,80
2,79,67,0
2,75,67,30
2,79,67,0
2,79,63,102
2,75,67,0
2,75,63,30
2,79,59,0
2,75,75,148
2,79,71,2
2,81,67,70
2,77,75,0
2,74,99,1758
2,79,95,2
2,70,103,4
2,69,91,90
2,67,83,20
2,62,71,2
2,64,71,0
2,65,75,0
2,60,63,2
2,59,59,0
2,57,31,35
2,74,99,458
