track,note,velocity,time
0,72,113,0
0,72,97,0
0,36,122,0
0,42,123,0
0,29,93,0
0,63,71,0
0,67,71,0
0,72,46,0
0,42,63,6
0,42,64,18
0,63,58,0
0,74,83,6
0,31,95,0
0,63,89,0
0,67,85,0
0,72,76,0
0,63,64,0
0,42,62,0
0,74,99,0
0,42,117,0
0,40,122,0
0,72,96,0
0,67,84,0
0,42,55,2
0,64,58,0
0,75,119,0
0,32,115,0
0,72,82,0
0,63,68,0
0,67,77,0
0,42,75,0
0,75,119,2
0,42,80,0
0,36,108,0
0,64,62,0
0,42,123,12
0,36,122,0
0,79,117,0
0,36,105,0
0,42,75,0
0,67,89,0
0,63,89,0
0,72,86,0
0,79,115,2
0,63,80,0
0,42,78,0
0,42,80,10
0,63,71,0
0,75,121,8
0,67,86,0
0,72,95,0
0,75,125,0
0,32,97,0
0,42,123,0
0,64,45,0
0,40,122,0
0,63,70,0
0,67,63,0
0,72,49,0
0,42,72,4
0,74,113,16
0,74,115,2
0,31,90,0
0,63,76,0
0,72,67,0
0,67,64,0
0,42,82,0
0,64,58,0
0,42,90,10
0,72,107,0
0,29,90,0
0,36,122,0
0,42,121,0
0,72,109,0
0,63,81,0
0,72,77,0
0,67,80,0
0,42,72,2
0,63,56,18
0,42,80,0
0,70,121,4
0,39,107,2
0,70,125,0
0,67,77,0
0,72,68,0
0,63,52,0
0,63,67,0
0,42,69,0
0,64,49,0
0,42,123,0
0,40,122,0
0,67,90,0
0,72,93,0
0,64,50,12
0,42,71,0
0,72,115,8
0,41,99,0
0,63,71,0
0,72,69,0
0,67,68,0
0,42,61,0
0,72,127,0
0,64,55,0
0,42,86,0
0,36,108,0
0,42,123,8
0,36,122,0
0,63,75,0
0,72,76,0
0,67,68,0
0,64,56,0
0,42,73,0
0,41,105,0
0,63,66,0
0,67,71,0
0,72,64,0
0,64,46,0
0,42,70,0
0,63,73,0
0,67,66,0
0,72,80,0
0,42,64,0
0,72,95,6
0,67,89,0
0,41,109,0
0,63,78,0
0,67,69,0
0,72,76,0
0,63,72,0
0,42,123,0
0,40,122,0
0,39,101,0
0,63,86,0
0,67,82,0
0,72,76,0
0,42,85,0
0,36,82,0
0,63,90,0
0,67,99,0
0,72,77,0
0,42,83,0
0,64,54,0
0,67,95,12
0,63,99,0
0,72,101,0
0,46,95,0
0,72,115,8
0,29,111,0
0,42,121,0
0,36,122,0
0,72,113,0
0,42,101,20
0,63,67,20
0,42,47,0
0,74,113,4
0,72,75,0
0,63,78,0
0,67,64,0
0,31,101,0
0,74,83,0
0,63,73,0
0,42,97,0
0,72,91,8
0,64,52,0
0,42,125,0
0,40,122,0
0,67,73,0
0,42,75,8
0,64,53,0
0,67,76,0
0,63,81,0
0,72,73,0
0,32,119,0
0,75,119,0
0,42,99,0
0,75,125,2
0,64,56,0
0,42,86,0
0,36,108,0
0,42,123,0
0,36,122,0
0,36,115,0
0,79,117,0
0,64,61,0
0,42,55,0
0,63,82,0
0,67,85,0
0,72,83,0
0,79,117,2
0,64,52,0
0,42,83,0
0,42,64,8
0,72,95,6
0,67,83,0
0,75,121,0
0,32,121,2
0,75,125,0
0,67,76,0
0,63,62,0
0,72,64,0
0,63,73,0
0,42,119,0
0,40,122,0
0,42,64,0
0,74,111,18
0,31,109,0
0,74,115,0
0,67,77,0
0,72,44,0
0,63,64,0
0,42,83,0
0,42,80,10
0,29,105,0
0,67,89,0
0,63,87,0
0,72,83,0
0,36,122,0
0,42,123,0
0,72,109,0
0,72,105,0
0,42,66,0
0,42,70,18
0,63,55,0
0,39,107,10
0,70,125,0
0,67,83,0
0,72,81,0
0,63,71,0
0,63,75,0
0,42,86,0
0,70,117,2
0,67,82,10
0,72,94,0
0,64,64,0
0,42,121,0
0,40,122,0
0,42,64,0
0,64,54,0
0,41,107,0
0,72,78,0
0,63,66,0
0,67,62,0
0,42,80,0
0,72,127,0
0,72,109,2
0,64,56,0
0,42,87,0
0,36,122,0
0,42,121,8
0,36,127,0
0,72,82,14
0,67,77,0
0,63,71,0
0,42,70,0
0,64,67,0
0,41,89,0
0,63,71,0
0,72,70,0
0,67,56,0
0,64,62,0
0,42,77,0
0,72,73,0
0,67,81,0
0,63,70,0
0,42,74,0
0,72,92,6
0,67,75,0
0,41,113,0
0,63,99,0
0,72,97,0
0,67,95,0
0,64,62,0
0,42,117,0
0,40,122,0
0,39,103,0
0,63,103,0
0,67,107,0
0,72,97,0
0,46,86,0
0,36,86,0
0,63,97,0
0,67,99,0
0,72,93,0
0,63,71,0
0,42,71,0
0,67,105,10
0,63,107,0
0,72,103,0
0,46,97,0
0,75,119,12
0,29,105,0
0,36,122,0
0,42,76,0
0,72,113,0
0,63,71,0
0,67,71,0
0,72,46,0
0,42,99,6
0,42,76,18
0,63,66,0
0,77,109,6
0,31,105,2
0,74,83,0
0,63,89,0
0,67,85,0
0,72,76,0
0,63,63,0
0,42,95,0
0,42,121,0
0,64,38,0
0,40,122,0
0,72,92,0
0,67,82,0
0,42,57,8
0,64,46,0
0,79,109,0
0,32,107,2
0,75,119,0
0,72,82,0
0,63,68,0
0,67,77,0
0,42,90,0
0,42,95,0
0,36,108,0
0,64,62,0
0,42,123,10
0,36,122,0
0,36,109,0
0,79,117,0
0,42,63,0
0,64,64,0
0,67,89,0
0,63,89,0
0,72,86,0
0,82,119,2
0,42,77,0
0,64,59,0
0,42,76,10
0,79,115,8
0,32,103,0
0,75,125,0
0,42,121,0
0,64,46,0
0,40,122,0
0,63,70,0
0,67,63,0
0,72,49,0
0,72,96,0
0,67,83,0
0,42,66,0
0,77,99,14
0,31,99,2
0,74,115,0
0,63,76,0
0,72,67,0
0,67,64,0
0,64,71,0
0,42,69,0
0,42,93,10
0,75,113,0
0,29,87,0
0,42,123,0
0,36,122,0
0,72,109,0
0,63,81,0
0,72,77,0
0,67,80,0
0,42,65,2
0,42,82,16
0,63,60,0
0,74,109,4
0,39,115,0
0,70,125,0
0,67,77,0
0,72,68,0
0,63,52,0
0,63,72,0
0,42,81,0
0,42,121,0
0,40,122,0
0,72,89,0
0,67,79,0
0,42,70,16
0,64,61,0
0,75,117,0
0,41,111,0
0,63,71,0
0,72,69,0
0,67,68,0
0,42,73,0
0,72,127,0
0,42,95,0
0,36,108,0
0,64,59,0
0,42,121,8
0,36,122,0
0,41,82,14
0,63,75,0
0,72,76,0
0,67,68,0
0,42,86,0
0,63,58,0
0,41,103,0
0,63,66,0
0,67,71,0
0,72,64,0
0,63,76,0
0,42,89,0
0,63,73,0
0,67,66,0
0,72,80,0
0,46,95,0
0,72,90,6
0,67,82,0
0,41,113,0
0,63,78,0
0,67,69,0
0,72,76,0
0,64,62,0
0,40,122,0
0,39,101,0
0,63,86,0
0,67,82,0
0,72,76,0
0,64,63,0
0,42,87,0
0,36,93,0
0,63,90,0
0,67,99,0
0,72,77,0
0,42,92,10
0,67,95,0
0,63,99,0
0,72,101,0
0,75,117,8
0,29,101,0
0,42,123,0
0,36,122,0
0,72,113,0
0,42,53,18
0,42,71,20
0,63,54,0
0,77,107,2
0,72,75,0
0,63,78,0
0,67,64,0
0,31,92,0
0,74,83,0
0,63,66,0
0,42,103,0
0,72,93,10
0,67,83,0
0,64,64,2
0,42,123,0
0,40,122,0
0,42,67,10
0,64,46,0
0,67,76,2
0,63,81,0
0,72,73,0
0,32,101,0
0,75,119,0
0,42,95,0
0,79,111,2
0,42,80,0
0,36,108,0
0,63,75,0
0,42,123,0
0,36,122,0
0,36,111,0
0,79,117,0
0,63,66,0
0,42,74,0
0,63,82,0
0,67,85,0
0,72,83,0
0,82,117,2
0,63,73,0
0,42,87,0
0,42,87,8
0,72,93,4
0,67,76,0
0,79,115,0
0,32,107,2
0,75,125,0
0,67,76,0
0,63,62,0
0,72,64,0
0,64,62,0
0,42,123,0
0,40,122,0
0,42,75,0
0,77,105,16
0,31,97,2
0,74,115,0
0,67,77,0
0,72,44,0
0,63,74,0
0,42,89,0
0,42,95,10
0,75,123,0
0,29,101,0
0,67,89,0
0,63,87,0
0,72,83,0
0,36,122,0
0,42,123,0
0,72,109,0
0,42,76,0
0,63,65,18
0,42,74,0
0,74,113,8
0,39,111,0
0,70,125,0
0,67,83,0
0,72,81,0
0,63,71,0
0,63,59,0
0,42,97,0
0,72,93,0
0,64,63,0
0,42,119,0
0,40,122,0
0,67,80,0
0,64,50,12
0,42,81,0
0,41,109,0
0,72,78,0
0,63,66,0
0,67,62,0
0,42,72,0
0,72,127,0
0,75,123,2
0,63,75,0
0,36,122,0
0,42,99,0
0,36,127,8
0,42,123,0
0,72,82,16
0,67,77,0
0,63,71,0
0,42,83,0
0,63,64,0
0,29,97,0
0,63,71,0
0,72,70,0
0,67,56,0
0,63,73,0
0,42,82,0
0,72,73,0
0,67,81,0
0,63,70,0
0,42,93,0
0,72,94,0
0,67,79,0
0,41,107,0
0,63,99,0
0,72,97,0
0,67,95,0
0,64,71,0
0,42,109,0
0,40,122,0
0,39,87,0
0,63,103,0
0,67,107,0
0,72,97,0
0,42,76,0
0,40,122,0
0,36,82,0
0,63,97,0
0,67,99,0
0,72,93,0
0,63,77,0
0,46,87,0
0,41,64,0
0,67,105,6
0,63,107,0
0,72,103,0
0,75,121,0
0,48,97,0
0,36,105,0
0,49,123,0
0,36,122,0
0,34,105,34
0,62,61,0
0,42,97,0
0,53,77,0
0,58,99,0
0,63,99,0
0,72,82,2
0,36,90,0
0,42,99,0
0,62,54,0
0,72,94,0
0,79,121,2
0,72,113,0
0,75,126,0
0,72,107,0
0,42,123,0
0,40,122,0
0,67,81,0
0,71,80,2
0,58,97,6
0,53,66,0
0,63,95,0
0,42,51,0
0,62,76,0
0,70,40,4
0,69,65,0
0,58,109,6
0,42,54,0
0,67,55,0
0,55,83,8
0,42,92,0
0,36,108,0
0,62,72,0
0,60,83,0
0,60,93,4
0,42,117,0
0,36,122,0
0,55,83,6
0,60,83,0
0,42,51,2
0,62,66,0
0,60,80,0
0,65,89,0
0,58,85,0
0,53,60,0
0,60,83,0
0,31,90,2
0,70,119,0
0,70,105,0
0,62,64,0
0,42,85,0
0,65,89,0
0,58,103,2
0,48,81,6
0,42,78,2
0,65,95,2
0,60,88,0
0,60,92,0
0,63,89,0
0,58,74,0
0,55,71,0
0,34,105,2
0,72,111,0
0,62,77,0
0,42,119,0
0,40,122,0
0,42,67,10
0,67,83,10
0,62,74,0
0,60,92,0
0,72,105,0
0,60,79,0
0,53,74,0
0,31,95,0
0,72,98,0
0,42,86,0
0,62,71,0
0,42,78,8
0,65,105,16
0,77,113,0
0,48,93,0
0,48,99,2
0,77,123,0
0,42,121,0
0,36,122,0
0,62,92,0
0,42,60,10
0,53,61,6
0,58,97,0
0,36,105,2
0,42,89,0
0,62,57,0
0,63,91,0
0,75,109,4
0,63,115,0
0,75,125,0
0,62,65,0
0,42,68,0
0,72,94,0
0,78,121,2
0,42,121,0
0,40,122,0
0,67,89,0
0,58,99,14
0,63,101,0
0,77,90,2
0,62,86,0
0,42,67,0
0,55,61,10
0,60,59,0
0,42,82,2
0,42,86,4
0,36,108,0
0,62,77,0
0,77,113,16
0,42,117,0
0,36,122,0
0,65,74,14
0,60,61,0
0,31,101,2
0,58,97,0
0,75,95,0
0,62,67,0
0,42,73,0
0,63,97,0
0,60,73,4
0,65,79,0
0,55,76,0
0,31,107,2
0,61,78,0
0,42,83,0
0,60,77,0
0,42,95,6
0,67,92,14
0,62,83,0
0,58,89,0
0,53,62,0
0,63,89,0
0,72,113,2
0,34,123,0
0,62,73,0
0,42,119,0
0,40,122,0
0,46,90,10
0,57,73,4
0,60,66,0
0,65,77,0
0,31,99,0
0,62,62,0
0,42,68,0
0,48,44,8
0,46,97,2
0,48,97,10
0,75,123,2
0,36,105,0
0,62,83,0
0,36,122,0
0,42,111,0
0,42,99,2
0,53,60,6
0,58,99,0
0,63,97,0
0,34,109,2
0,62,65,0
0,42,75,0
0,72,100,2
0,36,103,0
0,62,63,0
0,42,99,0
0,72,96,4
0,79,121,2
0,72,113,0
0,75,126,0
0,72,123,0
0,42,123,0
0,40,122,0
0,67,84,0
0,71,80,8
0,58,91,4
0,63,89,0
0,62,73,2
0,42,39,0
0,57,65,0
0,70,40,0
0,69,65,0
0,58,107,4
0,42,86,2
0,67,55,2
0,55,69,6
0,60,76,0
0,42,92,2
0,36,108,0
0,62,73,0
0,60,86,0
0,42,121,2
0,36,122,0
0,65,72,10
0,58,89,0
0,63,87,0
0,31,93,2
0,42,61,0
0,62,73,0
0,60,60,2
0,70,99,6
0,58,105,0
0,53,66,0
0,60,79,0
0,60,73,0
0,65,79,0
0,70,117,2
0,31,103,0
0,61,82,0
0,42,87,0
0,48,76,0
0,61,90,2
0,42,82,0
0,60,89,6
0,62,83,0
0,67,89,0
0,55,87,0
0,60,89,0
0,72,109,2
0,34,111,0
0,62,78,0
0,42,119,0
0,40,122,0
0,42,58,8
0,65,90,6
0,77,101,0
0,57,69,0
0,53,62,0
0,77,117,2
0,31,93,0
0,42,89,0
0,61,89,0
0,42,97,4
0,75,117,16
0,63,119,0
0,48,91,0
0,75,127,2
0,48,103,0
0,42,121,0
0,36,122,0
0,62,90,0
0,42,64,10
0,63,93,6
0,55,71,0
0,58,83,0
0,36,99,2
0,62,59,0
0,42,90,0
0,72,105,0
0,60,105,0
0,72,117,2
0,62,70,0
0,42,70,0
0,72,97,2
0,67,83,0
0,78,121,2
0,42,119,0
0,40,122,0
0,55,74,14
0,63,87,0
0,58,69,0
0,77,90,2
0,62,71,0
0,42,52,0
0,42,77,12
0,53,65,2
0,60,87,0
0,62,80,2
0,42,103,0
0,36,108,0
0,77,113,6
0,42,115,0
0,36,122,0
0,55,91,12
0,60,95,0
0,31,86,2
0,75,95,0
0,62,74,0
0,42,73,0
0,65,82,4
0,60,61,0
0,53,60,0
0,58,87,0
0,31,90,2
0,62,75,0
0,42,70,0
0,48,95,4
0,42,95,2
0,67,91,10
0,60,76,0
0,63,87,0
0,55,70,0
0,72,113,2
0,34,109,0
0,62,87,0
0,42,117,0
0,40,122,0
0,58,74,0
0,42,62,4
0,53,77,2
0,72,94,2
0,31,90,0
0,61,68,0
0,42,78,0
0,55,74,0
0,43,87,0
0,60,81,2
0,48,77,4
0,42,69,2
0,48,103,10
0,75,123,2
0,36,99,0
0,62,86,0
0,42,123,0
0,36,122,0
0,42,74,12
0,58,89,16
0,34,105,0
0,62,53,0
0,42,82,0
0,53,71,0
0,63,93,0
0,72,103,2
0,36,93,0
0,62,56,0
0,42,81,0
0,72,97,4
0,79,121,2
0,72,113,0
0,75,126,0
0,72,117,0
0,42,121,0
0,40,122,0
0,67,85,0
0,71,80,0
0,55,66,4
0,60,74,0
0,42,52,2
0,62,60,0
0,70,40,0
0,69,65,0
0,58,109,6
0,42,85,0
0,67,55,2
0,53,69,6
0,58,83,0
0,42,82,2
0,36,108,0
0,62,63,0
0,60,93,4
0,42,119,0
0,36,122,0
0,60,89,6
0,55,89,0
0,31,97,2
0,62,63,0
0,42,61,0
0,60,71,2
0,65,75,0
0,58,81,0
0,53,64,0
0,60,73,0
0,70,121,2
0,70,105,0
0,62,72,0
0,42,83,0
0,65,78,2
0,58,103,0
0,48,89,8
0,31,85,2
0,42,77,0
0,60,79,2
0,60,92,0
0,55,69,0
0,58,87,0
0,63,95,0
0,72,111,2
0,34,103,0
0,62,86,0
0,42,115,0
0,40,122,0
0,67,93,0
0,42,59,0
0,60,92,6
0,72,105,0
0,65,91,0
0,60,74,0
0,55,70,0
0,72,101,2
0,31,97,0
0,61,75,0
0,42,85,0
0,42,92,0
0,65,105,16
0,77,113,0
0,48,93,0
0,77,121,2
0,48,103,0
0,62,81,0
0,36,122,0
0,42,115,0
0,62,69,16
0,42,53,0
0,55,81,0
0,63,93,0
0,36,95,2
0,42,75,0
0,58,85,0
0,75,109,2
0,63,115,0
0,75,127,2
0,62,92,0
0,42,76,0
0,78,121,10
