track,note,velocity,time
1,29,110,360
1,31,114,14
1,32,102,288
1,36,110,286
1,32,98,280
1,31,110,6
1,29,102,192
1,39,114,8
1,41,110,4
1,41,94,38
1,41,110,54
1,41,106,134
1,39,114,12
1,36,106,16
1,29,110,30
1,31,114,288
1,32,98,44
1,36,90,8
1,36,98,60
1,32,114,4
1,31,110,16
1,29,106,4
1,39,114,288
1,41,106,62
1,41,90,12
1,41,106,56
1,41,114,108
1,39,110,24
1,36,110,8
1,29,110,2
1,31,114,14
1,32,102,288
1,36,110,286
1,32,98,280
1,31,110,6
1,29,102,192
1,39,114,8
1,41,110,4
1,41,94,38
1,41,110,54
1,41,106,134
1,39,114,12
1,36,106,16
1,29,110,30
1,31,114,288
1,32,98,44
1,36,90,8
1,36,98,60
1,32,114,4
1,31,110,16
1,29,106,4
1,39,114,288
1,41,106,62
1,41,90,12
1,41,106,56
1,41,114,108
1,39,110,24
1,36,110,8
1,36,120,2
1,35,120,192
1,31,78,230
1,31,86,64
1,31,103,124
1,31,112,62
1,34,116,42
1,31,108,10
1,48,120,16
1,36,116,12
1,31,90,242
1,31,75,58
1,31,93,130
1,31,112,62
1,34,122,16
1,31,104,192
1,36,120,36
1,35,120,192
1,31,78,230
1,31,86,64
1,31,103,124
1,31,112,62
1,34,116,42
1,31,108,10
1,48,120,2
1,36,116,12
1,31,90,242
1,31,75,58
1,31,93,130
1,31,112,62
1,34,122,16
1,31,104,192
1,36,120,36
1,35,120,192
1,31,78,230
1,31,86,64
1,31,103,124
1,31,112,62
1,34,116,42
1,31,108,10
1,48,120,6
1,36,116,12
1,31,90,242
1,31,75,58
1,31,93,130
1,31,112,62
1,34,122,16
1,31,104,192
1,36,120,36
1,35,120,192
1,31,78,230
1,31,86,64
1,31,103,124
1,31,112,62
1,34,116,42
1,31,108,10
1,48,120,2
1,36,116,12
1,31,90,242
1,31,75,58
1,31,93,130
1,31,112,62
1,34,122,16
1,31,104,192
1,29,110,36
1,31,114,14
1,32,102,288
1,36,110,286
1,32,98,280
1,31,110,6
1,29,102,192
1,39,114,8
1,41,110,4
1,41,94,38
1,41,110,54
1,41,106,134
1,39,114,12
1,36,106,16
1,29,110,30
1,31,114,288
1,32,98,44
1,36,90,8
1,36,98,60
1,32,114,4
1,31,110,16
1,29,106,4
1,39,114,288
1,41,106,62
1,41,90,12
1,41,106,56
1,41,114,108
1,39,110,24
1,36,110,8
1,29,110,2
1,31,114,14
1,32,102,288
1,36,110,286
1,32,98,280
1,31,110,6
1,29,102,192
1,39,114,8
1,41,110,4
1,41,94,38
1,41,110,54
1,41,106,134
1,39,114,12
1,36,106,16
1,29,110,30
1,31,114,288
1,32,98,44
1,36,90,8
1,36,98,60
1,32,114,4
1,31,110,16
1,29,106,4
1,39,114,288
1,41,106,62
1,41,90,12
1,41,106,56
1,41,114,108
1,39,110,24
1,36,110,8
1,36,120,2
1,35,120,192
1,31,78,230
1,31,86,64
1,31,103,124
1,31,112,62
1,34,116,42
1,31,108,10
1,48,120,2
1,36,116,12
1,31,90,242
1,31,75,58
1,31,93,130
1,31,112,62
1,34,122,16
1,31,104,192
1,36,120,36
1,35,120,192
1,31,78,230
1,31,86,64
1,31,103,124
1,31,112,62
1,34,116,42
1,31,108,10
1,48,120,2
1,36,116,12
1,31,90,242
1,31,75,58
1,31,93,130
1,31,112,62
1,34,122,16
1,31,104,192
1,36,120,36
1,35,120,192
1,31,78,230
1,31,86,64
1,31,103,124
1,31,112,62
1,34,116,42
1,31,108,10
1,48,120,2
1,36,116,12
1,31,90,242
1,31,75,58
1,31,93,130
1,31,112,62
1,34,122,16
1,31,104,192
1,36,120,36
1,35,120,192
1,31,78,230
1,31,86,64
1,31,103,124
1,31,112,62
1,34,116,42
1,31,108,10
1,48,120,2
1,36,116,12
1,31,90,242
1,31,75,58
1,31,93,130
1,31,112,62
1,34,122,16
1,31,104,192
1,29,110,36
1,31,114,14
1,32,102,288
1,36,110,286
1,32,98,280
1,31,110,6
1,29,102,192
1,39,114,8
1,41,110,4
1,41,94,38
1,41,110,54
1,41,106,134
1,39,114,12
1,36,106,16
1,29,110,30
1,31,114,288
1,32,98,44
1,36,90,8
1,36,98,60
1,32,114,4
1,31,110,16
1,29,106,4
1,39,114,288
1,41,106,62
1,41,90,12
1,41,106,56
1,41,114,108
1,39,110,24
1,36,110,8
1,29,110,2
1,31,114,14
1,32,102,288
1,36,110,286
1,32,98,280
1,31,110,6
1,29,102,192
1,39,114,8
1,41,110,4
1,41,94,38
1,41,110,54
1,41,106,134
1,39,114,12
1,36,106,16
1,29,110,30
1,31,114,288
1,32,98,44
1,36,90,8
1,36,98,60
1,32,114,4
1,31,110,16
1,29,106,4
1,39,114,288
1,41,106,62
1,41,90,12
1,41,106,56
1,41,114,108
1,39,110,24
1,36,110,8
1,36,120,2
1,35,120,192
1,31,78,230
1,31,86,64
1,31,103,124
1,31,112,62
1,34,116,42
1,31,108,10
1,48,120,2
1,36,116,12
1,31,90,242
1,31,75,58
1,31,93,130
1,31,112,62
1,34,122,16
1,31,104,192
1,36,120,36
1,35,120,192
1,31,78,230
1,31,86,64
1,31,103,124
1,31,112,62
1,34,116,42
1,31,108,10
1,48,120,2
1,36,116,12
1,31,90,242
1,31,75,58
1,31,93,130
1,31,112,62
1,34,122,16
1,31,104,192
1,36,120,36
1,35,120,192
1,31,78,230
1,31,86,64
1,31,103,124
1,31,112,62
1,34,116,42
1,31,108,10
1,48,120,4
1,36,116,12
1,31,90,242
1,31,75,58
1,31,93,130
1,31,112,62
1,34,122,16
1,31,104,192
1,36,120,36
1,35,120,192
1,31,78,230
1,31,86,64
1,31,103,124
1,31,112,62
1,34,116,42
1,31,108,10
1,48,120,2
1,36,116,12
1,31,90,242
1,31,75,58
1,31,93,130
1,31,112,62
1,34,122,16
1,31,104,192
1,29,110,36
1,31,114,14
1,32,102,288
1,36,110,286
1,32,98,280
1,31,110,6
1,29,102,192
1,39,114,8
1,41,110,4
1,41,94,38
1,41,110,54
1,41,106,134
1,39,114,12
1,36,106,16
1,29,110,30
1,31,114,288
1,32,98,44
1,36,90,8
1,36,98,60
1,32,114,4
1,31,110,16
1,29,106,4
1,39,114,288
1,41,106,62
1,41,90,12
1,41,106,56
1,41,114,108
1,39,110,24
1,36,110,8
1,29,110,2
1,31,114,14
1,32,102,288
1,36,110,286
1,32,98,280
1,31,110,6
1,29,102,192
1,39,114,8
1,41,110,4
1,41,94,38
1,41,110,54
1,41,106,134
1,39,114,12
1,36,106,16
1,29,110,30
1,31,114,288
1,32,98,44
1,36,90,8
1,36,98,60
1,32,114,4
1,31,110,16
1,29,106,4
1,39,114,288
1,41,106,62
1,41,90,12
1,41,106,56
1,41,114,108
1,39,110,24
1,36,110,8
1,36,120,2
1,35,120,192
1,31,78,230
1,31,86,64
1,31,103,124
1,31,112,62
1,34,116,42
1,31,108,10
1,48,120,2
1,36,116,12
1,31,90,242
1,31,75,58
1,31,93,130
1,31,112,62
1,34,122,16
1,31,104,192
1,36,120,36
1,35,120,192
1,31,78,230
1,31,86,64
1,31,103,124
1,31,112,62
1,34,116,42
1,31,108,10
1,48,120,6
1,36,116,12
1,31,90,242
1,31,75,58
1,31,93,130
1,31,112,62
1,34,122,16
1,31,104,192
1,36,120,36
1,35,120,192
1,31,78,230
1,31,86,64
1,31,103,124
1,31,112,62
1,34,116,42
1,31,108,10
1,48,120,2
1,36,116,12
1,31,90,242
1,31,75,58
1,31,93,130
1,31,112,62
1,34,122,16
1,31,104,192
1,36,120,36
1,35,120,192
1,31,78,230
1,31,86,64
1,31,103,124
1,31,112,62
1,34,116,42
1,31,108,10
1,48,120,4
1,36,116,12
1,31,90,242
1,31,75,58
1,31,93,130
1,31,112,62
1,34,122,16
1,31,104,192
1,29,110,36
1,31,114,14
1,32,102,288
1,36,110,286
1,32,98,280
1,31,110,6
1,29,102,192
1,39,114,8
1,41,110,4
1,41,94,38
1,41,110,54
1,41,106,134
1,39,114,12
1,36,106,16
1,29,110,30
1,31,114,288
1,32,98,44
1,36,90,8
1,36,98,60
1,32,114,4
1,31,110,16
1,29,106,4
1,39,114,288
1,41,106,62
1,41,90,12
1,41,106,56
1,41,114,108
1,39,110,24
1,36,110,8
1,29,110,2
1,31,114,14
1,32,102,288
1,36,110,286
1,32,98,280
1,31,110,6
1,29,102,192
1,39,114,8
1,41,110,4
1,41,94,38
1,41,110,54
1,41,106,134
1,39,114,12
1,36,106,16
1,29,110,30
1,31,114,288
1,32,98,44
1,36,90,8
1,36,98,60
1,32,114,4
1,31,110,16
1,29,106,4
1,39,114,288
1,41,106,62
1,41,90,12
1,41,106,56
1,41,114,108
1,39,110,24
1,36,110,8
1,36,120,2
1,35,120,192
1,31,78,230
1,31,86,64
1,31,103,124
1,31,112,62
1,34,116,42
1,31,108,10
1,48,120,2
1,36,116,12
1,31,90,242
1,31,75,58
1,31,93,136
1,31,112,62
1,34,122,16
1,31,104,192
1,36,120,36
1,35,120,192
1,31,78,230
1,31,86,64
1,31,103,124
1,31,112,62
1,34,116,42
1,31,108,10
1,48,120,4
1,36,116,12
1,31,90,242
1,31,75,58
1,31,93,130
1,31,112,62
1,34,122,16
1,31,104,192
1,36,120,36
1,35,120,192
1,31,78,230
1,31,86,64
1,31,103,124
1,31,112,62
1,34,116,42
1,31,108,10
1,48,120,2
1,36,116,12
1,31,90,242
1,31,75,58
1,31,93,136
1,31,112,62
1,34,122,16
1,31,104,192
1,36,120,36
1,35,120,192
1,31,78,230
1,31,86,64
1,31,103,124
1,31,112,62
1,34,116,42
1,31,108,10
1,48,120,12
1,36,116,12
1,31,90,242
1,31,75,58
1,31,93,130
1,31,112,62
1,34,122,16
2,68,124,236
2,70,124,288
2,72,120,2
2,75,124,288
2,72,112,250
2,70,120,178
2,68,124,168
2,67,104,286
2,68,124,2
2,68,124,86
2,70,124,288
2,72,112,260
2,75,124,256
2,72,108,52
2,70,104,192
2,68,116,8
2,67,104,288
2,68,124,274
2,68,124,80
2,70,124,288
2,72,120,2
2,75,124,288
2,72,112,250
2,70,120,178
2,68,124,168
2,67,104,286
2,68,124,2
2,68,124,86
2,70,124,288
2,72,112,260
2,75,124,256
2,72,108,52
2,70,104,192
2,68,116,8
2,67,104,288
2,68,124,274
2,79,124,464
2,78,124,1192
2,77,120,14
2,77,124,220
2,75,120,18
2,72,124,220
2,79,124,662
2,78,124,1192
2,77,120,14
2,77,124,220
2,75,120,18
2,72,124,220
2,79,124,662
2,78,124,1192
2,77,120,14
2,77,124,220
2,75,120,18
2,72,124,220
2,79,124,662
2,78,124,1192
2,77,120,14
2,77,124,220
2,75,120,18
2,72,124,220
2,72,84,278
2,75,116,0
2,74,72,96
2,73,80,0
2,72,92,2
2,72,96,96
2,75,112,0
2,77,96,96
2,72,88,96
2,75,112,0
2,74,76,96
2,73,92,22
2,72,96,2
2,72,104,96
2,75,120,0
2,77,108,0
2,79,124,398
2,78,124,1192
2,77,120,14
2,77,124,220
2,75,120,18
2,72,124,220
2,79,124,662
2,78,124,1192
2,77,120,14
2,77,124,220
2,75,120,18
2,72,124,220
2,79,124,662
2,78,124,1192
2,77,120,14
2,77,124,220
2,75,120,18
2,72,124,220
2,79,124,662
2,78,124,1192
2,77,120,14
2,77,124,220
2,75,120,18
2,72,124,220
2,72,84,278
2,75,116,0
2,74,72,96
2,73,80,0
2,72,92,2
2,72,96,96
2,75,112,0
2,77,96,96
2,72,88,96
2,75,112,0
2,74,76,96
2,73,92,22
2,72,96,2
2,72,104,96
2,75,120,0
2,77,108,0
2,79,124,398
2,78,124,1192
2,77,120,14
2,77,124,220
2,75,120,18
2,72,124,220
2,79,124,662
2,78,124,1192
2,77,120,14
2,77,124,220
2,75,120,18
2,72,124,220
2,79,124,662
2,78,124,1192
2,77,120,14
2,77,124,220
2,75,120,18
2,72,124,220
2,79,124,662
2,78,124,1192
2,77,120,14
2,77,124,220
2,75,120,18
2,72,124,220
2,72,84,278
2,75,116,0
2,74,72,96
2,73,80,0
2,72,92,2
2,72,84,3168
2,75,116,0
2,74,72,96
2,73,80,0
2,72,92,2
2,79,124,456
2,78,124,1192
2,77,120,14
2,77,124,220
2,75,120,18
2,72,124,220
2,79,124,662
2,78,124,1192
2,77,120,14
2,77,124,220
2,75,120,18
2,72,124,220
2,79,124,662
2,78,124,1192
2,77,120,14
2,77,124,220
2,75,120,18
2,72,124,220
2,79,124,662
2,78,124,1192
2,77,120,14
2,77,124,220
2,75,120,18
2,72,124,220
2,68,124,278
2,70,124,288
2,72,120,2
2,75,124,288
2,72,112,250
2,70,120,178
2,68,124,168
2,67,104,286
2,68,124,2
2,68,124,86
2,70,124,288
2,72,112,260
2,75,124,256
2,72,108,52
2,70,104,192
2,68,116,8
2,67,104,288
2,68,124,274
2,68,124,80
2,70,124,288
2,72,120,2
2,75,124,288
2,72,112,250
2,70,120,178
2,68,124,168
2,67,104,286
2,68,124,2
2,68,124,86
2,70,124,288
2,72,112,260
2,75,124,256
2,72,108,52
2,70,104,192
2,68,116,8
2,67,104,288
2,68,124,274
2,79,124,464
2,78,124,1192
2,77,120,14
2,77,124,220
2,75,120,18
2,72,124,220
2,79,124,662
2,78,124,1192
2,77,120,14
2,77,124,220
2,75,120,18
2,72,124,220
2,79,124,662
2,78,124,1192
2,77,120,14
2,77,124,220
2,75,120,18
2,72,124,220
2,79,124,662
2,78,124,1192
2,77,120,14
2,77,124,220
2,75,120,18
2,72,124,220
3,72,104,6
3,75,124,84
3,72,96,48
3,72,96,44
3,70,116,126
3,72,120,120
3,72,112,510
3,77,104,120
3,75,116,2
3,70,120,222
3,72,120,130
3,75,124,694
3,72,108,12
3,72,96,38
3,70,120,134
3,72,120,130
3,77,120,504
3,75,120,12
3,72,112,288
3,70,120,224
3,72,120,120
3,75,124,698
3,72,104,288
3,72,92,32
3,70,120,126
3,72,120,140
3,72,112,516
3,77,112,136
3,75,108,288
3,70,116,230
3,72,116,136
3,75,120,708
3,72,104,44
3,72,96,50
3,70,116,144
3,72,112,144
3,77,120,518
3,75,120,192
3,72,108,26
3,70,120,216
3,72,112,140
3,75,116,696
3,75,100,84
3,75,116,48
3,75,120,174
3,72,116,12
3,72,88,58
3,72,104,26
3,75,112,8
3,75,100,52
3,75,116,40
3,75,124,172
3,75,108,254
3,75,116,118
3,75,108,104
3,77,120,2
3,75,120,1428
3,75,100,56
3,75,112,52
3,75,112,194
3,75,112,662
3,72,100,36
3,72,96,74
3,72,88,28
3,72,92,966
3,72,100,30
3,75,120,26
3,75,116,38
3,75,116,34
3,75,124,196
3,75,104,254
3,75,112,44
3,75,124,34
3,75,116,92
3,77,108,2
3,72,104,12
3,75,124,84
3,72,96,48
3,72,96,44
3,70,116,126
3,72,120,120
3,72,112,510
3,77,104,120
3,75,116,2
3,70,120,222
3,72,120,130
3,75,124,694
3,72,108,12
3,72,96,38
3,70,120,134
3,72,120,130
3,77,120,504
3,75,120,12
3,72,112,288
3,70,120,224
3,72,120,120
3,75,124,698
3,72,104,288
3,72,92,32
3,70,120,126
3,72,120,140
3,72,112,516
3,77,112,136
3,75,108,288
3,70,116,230
3,72,116,136
3,75,120,708
3,72,104,44
3,72,96,50
3,70,116,144
3,72,112,144
3,77,120,518
3,75,120,192
3,72,108,26
3,70,120,216
3,72,112,140
3,75,116,696
3,75,100,90
3,75,116,48
3,75,120,174
3,72,116,2
3,72,88,58
3,72,104,26
3,75,112,14
3,75,100,56
3,75,116,40
3,75,124,172
3,75,108,254
3,75,116,118
3,75,108,104
3,77,120,12
3,75,116,4
3,75,100,84
3,75,116,48
3,75,120,174
3,72,116,2
3,72,88,58
3,72,104,26
3,75,112,12
3,75,100,52
3,75,116,40
3,75,124,172
3,75,108,254
3,75,116,118
3,75,108,104
3,77,120,10
3,72,104,6
3,75,124,84
3,72,96,48
3,72,96,44
3,70,116,126
3,72,120,120
3,72,112,510
3,77,104,120
3,75,116,2
3,70,120,222
3,72,120,130
