track,note,velocity,time
0,29,93,170
0,35,122,0
0,42,123,0
0,63,71,2
0,67,71,0
0,72,46,0
0,72,113,0
0,72,97,0
0,60,113,0
0,42,63,4
0,42,64,18
0,63,58,0
0,31,95,6
0,42,62,0
0,63,64,0
0,63,89,2
0,67,85,0
0,72,76,0
0,74,83,0
0,62,83,0
0,74,99,0
0,40,122,8
0,42,117,0
0,67,84,2
0,72,96,0
0,42,55,0
0,64,58,0
0,32,115,0
0,42,75,0
0,63,68,2
0,67,77,0
0,72,82,0
0,75,119,0
0,63,119,0
0,75,119,2
0,35,108,0
0,42,80,0
0,64,62,0
0,35,122,12
0,42,123,0
0,36,105,10
0,42,75,0
0,63,89,2
0,67,89,0
0,72,86,0
0,79,117,0
0,67,117,0
0,79,115,2
0,42,78,18
0,63,80,0
0,42,80,8
0,63,71,0
0,75,121,8
0,32,97,0
0,40,122,0
0,42,123,0
0,64,45,0
0,67,86,2
0,72,95,0
0,63,70,0
0,67,63,0
0,72,49,0
0,75,125,0
0,63,125,0
0,42,72,2
0,74,113,18
0,31,90,0
0,42,82,0
0,64,58,0
0,63,76,2
0,67,64,0
0,72,67,0
0,74,115,0
0,62,115,0
0,42,90,8
0,29,90,20
0,35,122,0
0,42,121,0
0,63,81,2
0,67,80,0
0,72,77,0
0,72,109,0
0,72,107,0
0,60,109,0
0,42,72,0
0,42,80,18
0,63,56,0
0,70,121,6
0,39,107,0
0,42,69,0
0,63,67,0
0,63,52,2
0,67,77,0
0,72,68,0
0,70,125,0
0,58,125,0
0,40,122,8
0,42,123,0
0,64,49,0
0,67,90,2
0,72,93,0
0,42,71,12
0,64,50,0
0,72,115,10
0,41,99,0
0,42,61,0
0,63,71,2
0,67,68,0
0,72,69,0
0,72,127,0
0,60,127,0
0,35,108,6
0,42,86,0
0,64,55,0
0,35,122,6
0,42,123,0
0,42,73,0
0,64,56,0
0,63,75,2
0,67,68,0
0,72,76,0
0,41,105,12
0,42,70,0
0,64,46,0
0,63,66,2
0,67,71,0
0,72,64,0
0,42,64,6
0,63,73,2
0,67,66,0
0,72,80,0
0,67,89,6
0,72,95,0
0,41,109,0
0,40,122,0
0,42,123,0
0,63,72,0
0,63,78,2
0,67,69,0
0,72,76,0
0,39,101,4
0,42,85,0
0,63,86,0
0,67,82,0
0,72,76,0
0,36,82,2
0,42,83,0
0,64,54,0
0,63,90,2
0,67,99,0
0,72,77,0
0,46,95,10
0,63,99,2
0,67,95,0
0,72,101,0
0,72,115,8
0,29,111,0
0,35,122,0
0,42,121,0
0,72,113,0
0,60,113,0
0,42,101,20
0,42,47,20
0,63,67,0
0,31,101,4
0,42,97,0
0,63,73,0
0,63,78,2
0,67,64,0
0,72,75,0
0,74,83,0
0,74,113,0
0,62,83,0
0,40,122,8
0,42,125,0
0,64,52,0
0,72,91,2
0,67,73,2
0,42,75,6
0,64,53,0
0,32,119,0
0,42,99,0
0,63,81,2
0,67,76,0
0,72,73,0
0,75,119,0
0,63,119,0
0,75,125,2
0,35,108,8
0,42,86,0
0,64,56,0
0,35,122,12
0,42,123,0
0,36,115,12
0,42,55,0
0,64,61,0
0,63,82,2
0,67,85,0
0,72,83,0
0,79,117,0
0,67,117,0
0,79,117,2
0,42,83,12
0,64,52,0
0,42,64,8
0,67,83,8
0,72,95,0
0,75,121,0
0,32,121,0
0,40,122,0
0,42,119,0
0,63,73,0
0,63,62,2
0,67,76,0
0,72,64,0
0,75,125,0
0,63,125,0
0,42,64,2
0,31,109,18
0,42,83,0
0,63,64,0
0,67,77,2
0,72,44,0
0,74,115,0
0,74,111,0
0,62,115,0
0,42,80,8
0,29,105,20
0,35,122,0
0,42,123,0
0,63,87,2
0,67,89,0
0,72,83,0
0,72,109,0
0,60,109,0
0,72,105,2
0,42,66,2
0,42,70,18
0,63,55,0
0,39,107,10
0,42,86,0
0,63,75,0
0,63,71,2
0,67,83,0
0,72,81,0
0,70,125,0
0,58,125,0
0,70,117,2
0,67,82,10
0,72,94,0
0,40,122,0
0,42,121,0
0,64,64,0
0,42,64,12
0,64,54,0
0,41,107,6
0,42,80,0
0,63,66,2
0,67,62,0
0,72,78,0
0,72,127,0
0,60,127,0
0,72,109,2
0,35,122,8
0,42,87,0
0,64,56,0
0,35,127,6
0,42,121,0
0,42,70,14
0,64,67,0
0,63,71,2
0,67,77,0
0,72,82,0
0,41,89,12
0,42,77,0
0,64,62,0
0,63,71,2
0,67,56,0
0,72,70,0
0,42,74,6
0,63,70,2
0,67,81,0
0,72,73,0
0,67,75,6
0,72,92,0
0,41,113,0
0,40,122,0
0,42,117,0
0,64,62,0
0,63,99,2
0,67,95,0
0,72,97,0
0,39,103,6
0,46,86,0
0,63,103,2
0,67,107,0
0,72,97,0
0,36,86,6
0,42,71,0
0,63,71,0
0,63,97,2
0,67,99,0
0,72,93,0
0,46,97,10
0,63,107,2
0,67,105,0
0,72,103,0
0,75,119,12
0,29,105,0
0,35,122,0
0,42,76,0
0,63,71,2
0,67,71,0
0,72,46,0
0,72,113,0
0,60,113,0
0,42,99,4
0,42,76,18
0,63,66,0
0,77,109,6
0,31,105,0
0,42,95,0
0,63,63,0
0,63,89,2
0,67,85,0
0,72,76,0
0,74,83,0
0,62,83,0
0,40,122,8
0,42,121,0
0,64,38,0
0,67,82,2
0,72,92,0
0,42,57,6
0,64,46,0
0,79,109,0
0,32,107,0
0,42,90,0
0,63,68,2
0,67,77,0
0,72,82,0
0,75,119,0
0,63,119,0
0,35,108,0
0,42,95,0
0,64,62,0
0,35,122,10
0,42,123,0
0,36,109,10
0,42,63,0
0,64,64,0
0,63,89,2
0,67,89,0
0,72,86,0
0,79,117,0
0,67,117,0
0,82,119,2
0,42,77,16
0,64,59,0
0,42,76,8
0,79,115,8
0,32,103,0
0,40,122,0
0,42,121,0
0,64,46,0
0,63,70,2
0,67,63,0
0,72,49,0
0,75,125,0
0,63,125,0
0,67,83,2
0,72,96,0
0,42,66,2
0,77,99,16
0,31,99,0
0,42,69,0
0,64,71,0
0,63,76,2
0,67,64,0
0,72,67,0
0,74,115,0
0,62,115,0
0,42,93,8
0,29,87,18
0,35,122,0
0,42,123,0
0,63,81,2
0,67,80,0
0,72,77,0
0,72,109,0
0,75,113,0
0,60,109,0
0,42,65,0
0,42,82,16
0,63,60,0
0,39,115,4
0,42,81,0
0,63,72,0
0,63,52,2
0,67,77,0
0,72,68,0
0,70,125,0
0,74,109,0
0,58,125,0
0,40,122,8
0,42,121,0
0,67,79,2
0,72,89,0
0,42,70,16
0,64,61,0
0,41,111,8
0,42,73,0
0,63,71,2
0,67,68,0
0,72,69,0
0,72,127,0
0,75,117,0
0,60,127,0
0,35,108,6
0,42,95,0
0,64,59,0
0,35,122,6
0,42,121,0
0,41,82,14
0,42,86,0
0,63,58,0
0,63,75,2
0,67,68,0
0,72,76,0
0,41,103,10
0,42,89,0
0,63,76,0
0,63,66,2
0,67,71,0
0,72,64,0
0,46,95,6
0,63,73,2
0,67,66,0
0,72,80,0
0,67,82,6
0,72,90,0
0,41,113,0
0,40,122,0
0,64,62,0
0,63,78,2
0,67,69,0
0,72,76,0
0,39,101,6
0,63,86,2
0,67,82,0
0,72,76,0
0,36,93,4
0,42,87,0
0,64,63,0
0,63,90,2
0,67,99,0
0,72,77,0
0,42,92,10
0,63,99,2
0,67,95,0
0,72,101,0
0,75,117,8
0,29,101,0
0,35,122,0
0,42,123,0
0,72,113,0
0,60,113,0
0,42,53,18
0,42,71,20
0,63,54,0
0,31,92,2
0,42,103,0
0,63,66,0
0,63,78,2
0,67,64,0
0,72,75,0
0,74,83,0
0,77,107,0
0,62,83,0
0,67,83,10
0,72,93,0
0,40,122,0
0,42,123,0
0,64,64,0
0,42,67,10
0,64,46,0
0,32,101,0
0,42,95,0
0,63,81,2
0,67,76,0
0,72,73,0
0,75,119,0
0,63,119,0
0,79,111,2
0,35,108,8
0,42,80,0
0,63,75,0
0,35,122,10
0,42,123,0
0,36,111,6
0,42,74,0
0,63,66,0
0,63,82,2
0,67,85,0
0,72,83,0
0,79,117,0
0,67,117,0
0,82,117,2
0,42,87,12
0,63,73,0
0,42,87,8
0,67,76,6
0,72,93,0
0,79,115,0
0,32,107,0
0,40,122,0
0,42,123,0
0,64,62,0
0,63,62,2
0,67,76,0
0,72,64,0
0,75,125,0
0,63,125,0
0,42,75,2
0,77,105,18
0,31,97,0
0,42,89,0
0,63,74,0
0,67,77,2
0,72,44,0
0,74,115,0
0,62,115,0
0,42,95,8
0,29,101,20
0,35,122,0
0,42,123,0
0,63,87,2
0,67,89,0
0,72,83,0
0,72,109,0
0,75,123,0
0,60,109,0
0,42,76,2
0,42,74,18
0,63,65,0
0,39,111,8
0,42,97,0
0,63,59,0
0,63,71,2
0,67,83,0
0,72,81,0
0,70,125,0
0,74,113,0
0,58,125,0
0,40,122,8
0,42,119,0
0,64,63,0
0,72,93,2
0,67,80,2
0,42,81,12
0,64,50,0
0,41,109,10
0,42,72,0
0,63,66,2
0,67,62,0
0,72,78,0
0,72,127,0
0,60,127,0
0,75,123,2
0,35,122,8
0,42,99,0
0,63,75,0
0,35,127,6
0,42,123,0
0,42,83,16
0,63,64,0
0,63,71,2
0,67,77,0
0,72,82,0
0,29,97,8
0,42,82,0
0,63,73,0
0,63,71,2
0,67,56,0
0,72,70,0
0,42,93,6
0,63,70,2
0,67,81,0
0,72,73,0
0,41,107,6
0,40,122,0
0,42,109,0
0,64,71,0
0,67,79,2
0,72,94,0
0,63,99,0
0,67,95,0
0,72,97,0
0,39,87,2
0,40,122,0
0,42,76,0
0,63,103,2
0,67,107,0
0,72,97,0
0,36,82,2
0,41,64,0
0,46,87,0
0,63,77,0
0,63,97,2
0,67,99,0
0,72,93,0
0,63,107,8
0,67,105,0
0,72,103,0
0,36,105,12
0,35,122,0
0,49,123,0
0,48,104,2
0,75,121,0
0,34,105,32
0,42,97,0
0,62,61,0
0,53,84,0
0,58,106,0
0,63,106,0
0,36,90,2
0,42,99,0
0,62,54,0
0,72,82,2
0,72,94,2
0,40,122,0
0,42,123,0
0,67,81,2
0,72,107,0
0,72,113,0
0,75,126,0
0,79,121,0
0,60,113,0
0,63,126,0
0,67,121,0
0,71,80,2
0,59,80,0
0,42,51,4
0,62,76,0
0,53,73,2
0,58,104,0
0,63,102,0
0,70,40,4
0,58,40,0
0,69,65,0
0,57,65,0
0,42,54,4
0,58,109,2
0,67,55,2
0,55,55,0
0,35,108,6
0,42,92,0
0,62,72,0
0,55,90,2
0,60,90,2
0,35,122,2
0,42,117,0
0,60,93,2
0,55,90,6
0,60,90,0
0,42,51,0
0,62,66,0
0,60,80,2
0,65,89,0
0,53,67,12
0,58,92,0
0,60,83,0
0,31,90,0
0,42,85,0
0,62,64,0
0,65,89,2
0,70,119,0
0,70,105,0
0,58,103,2
0,48,88,6
0,42,78,0
0,55,78,2
0,58,81,0
0,63,96,0
0,60,88,0
0,65,95,0
0,60,92,0
0,34,105,0
0,40,122,0
0,42,119,0
0,62,77,0
0,72,111,2
0,42,67,8
0,53,81,10
0,60,86,0
0,62,74,0
0,67,83,0
0,60,92,0
0,72,105,0
0,31,95,0
0,42,86,0
0,62,71,0
0,72,98,2
0,42,78,6
0,48,100,18
0,65,105,0
0,77,113,0
0,48,99,0
0,35,122,0
0,42,121,0
0,62,92,0
0,77,123,2
0,42,60,10
0,53,68,6
0,58,104,0
0,36,105,0
0,42,89,0
0,62,57,0
0,63,98,2
0,63,115,4
0,75,109,0
0,42,68,0
0,62,65,0
0,75,125,2
0,72,94,12
0,40,122,0
0,42,121,0
0,67,89,2
0,78,121,0
0,66,121,0
0,58,106,16
0,63,108,0
0,42,67,0
0,62,86,0
0,77,90,2
0,65,90,0
0,55,68,10
0,60,66,0
0,42,82,0
0,35,108,2
0,42,86,0
0,62,77,0
0,35,122,16
0,42,117,0
0,77,113,2
0,65,113,0
0,60,61,16
0,65,74,0
0,31,101,0
0,42,73,0
0,62,67,0
0,58,104,2
0,75,95,0
0,63,95,0
0,63,104,2
0,55,83,4
0,60,73,0
0,65,79,0
0,31,107,0
0,42,83,0
0,61,78,0
0,60,84,2
0,42,95,4
0,53,69,16
0,58,96,0
0,63,96,0
0,62,83,0
0,67,92,0
0,34,123,0
0,40,122,0
0,42,119,0
0,62,73,0
0,72,113,2
0,60,113,0
0,46,90,8
0,57,80,4
0,60,73,0
0,65,84,0
0,31,99,0
0,42,68,0
0,62,62,0
0,48,51,10
0,46,97,0
0,48,104,10
0,36,105,0
0,35,122,0
0,42,111,0
0,62,83,0
0,75,123,2
0,42,99,2
0,53,67,6
0,58,106,0
0,63,104,0
0,34,109,0
0,42,75,0
0,62,65,0
0,36,103,2
0,42,99,0
0,62,63,0
0,72,100,2
0,72,96,6
0,40,122,0
0,42,123,0
0,67,84,2
0,72,123,0
0,72,113,0
0,75,126,0
0,79,121,0
0,60,113,0
0,63,126,0
0,67,121,0
0,71,80,10
0,59,80,0
0,58,98,4
0,63,96,0
0,42,39,0
0,62,73,0
0,57,72,2
0,70,40,2
0,58,40,0
0,69,65,2
0,57,65,0
0,58,107,4
0,42,86,0
0,67,55,2
0,55,55,0
0,55,76,6
0,60,83,0
0,35,108,0
0,42,92,0
0,62,73,0
0,60,86,0
0,35,122,0
0,42,121,0
0,58,96,10
0,63,94,0
0,65,72,0
0,31,93,0
0,42,61,0
0,62,73,0
0,60,60,4
0,53,73,6
0,60,86,0
0,60,73,0
0,65,79,0
0,58,105,0
0,70,99,0
0,31,103,0
0,42,87,0
0,61,82,0
0,70,117,2
0,48,83,2
0,42,82,0
0,61,90,0
0,55,94,6
0,60,96,0
0,62,83,0
0,67,89,0
0,60,89,0
0,34,111,0
0,40,122,0
0,42,119,0
0,62,78,0
0,72,109,2
0,42,58,8
0,53,69,6
0,57,76,0
0,65,90,0
0,77,101,0
0,31,93,0
0,42,89,0
0,61,89,0
0,77,117,2
0,42,97,2
0,48,98,18
0,63,119,0
0,75,117,0
0,48,103,0
0,35,122,0
0,42,121,0
0,62,90,0
0,75,127,2
0,42,64,10
0,55,78,6
0,58,90,0
0,63,100,0
0,36,99,0
0,42,90,0
0,62,59,0
0,60,105,2
0,72,105,0
0,42,70,0
0,62,70,0
0,72,117,2
0,67,83,2
0,72,97,0
0,40,122,0
0,42,119,0
0,78,121,2
0,66,121,0
0,55,81,16
0,58,76,0
0,63,94,0
0,42,52,0
0,62,71,0
0,77,90,2
0,65,90,0
0,42,77,10
0,53,72,2
0,60,94,0
0,35,108,0
0,42,103,0
0,62,80,0
0,35,122,4
0,42,115,0
0,77,113,2
0,65,113,0
0,55,98,14
0,60,102,0
0,31,86,0
0,42,73,0
0,62,74,0
0,75,95,2
0,63,95,0
0,53,67,4
0,58,94,0
0,60,61,0
0,65,82,0
0,31,90,0
0,42,70,0
0,62,75,0
0,48,102,4
0,42,95,0
0,55,77,10
0,63,94,0
0,60,76,0
0,67,91,0
0,34,109,0
0,40,122,0
0,42,117,0
0,62,87,0
0,58,81,2
0,72,113,0
0,60,113,0
0,42,62,2
0,53,84,4
0,31,90,0
0,42,78,0
0,61,68,0
0,43,94,2
0,55,81,0
0,72,94,0
0,60,88,2
0,48,84,4
0,42,69,0
0,48,110,10
0,36,99,0
0,35,122,0
0,42,123,0
0,62,86,0
0,75,123,2
0,42,74,10
0,58,96,18
0,34,105,0
0,42,82,0
0,62,53,0
0,53,78,0
0,63,100,0
0,36,93,2
0,42,81,0
0,62,56,0
0,72,103,2
0,72,97,6
0,40,122,0
0,42,121,0
0,67,85,2
0,72,117,0
0,72,113,0
0,75,126,0
0,79,121,0
0,60,113,0
0,63,126,0
0,67,121,0
0,71,80,0
0,59,80,0
0,55,73,4
0,60,81,0
0,42,52,0
0,62,60,0
0,70,40,2
0,58,40,0
0,69,65,2
0,57,65,0
0,42,85,4
0,58,109,2
0,67,55,2
0,55,55,0
0,53,76,6
0,58,90,0
0,35,108,0
