track,note,velocity,time
1,27,107,768
1,39,107,0
1,46,107,96
1,51,107,96
1,54,107,96
1,51,107,0
1,46,107,96
1,47,107,0
1,59,107,0
1,54,100,0
1,51,107,0
1,54,107,0
1,58,107,0
1,27,107,0
1,39,107,0
1,46,107,96
1,51,107,96
1,54,107,96
1,51,107,0
1,46,107,96
1,47,107,0
1,59,107,0
1,54,100,0
1,51,107,0
1,54,107,0
1,58,107,0
1,27,107,0
1,39,107,0
1,46,107,96
1,51,107,96
1,54,107,96
1,51,107,0
1,46,107,96
1,47,107,0
1,59,107,0
1,54,100,0
1,51,107,0
1,54,107,0
1,58,107,0
1,42,107,0
1,46,107,192
1,49,107,96
1,41,107,0
1,46,107,48
1,49,107,0
1,40,107,0
1,46,107,48
1,49,107,0
1,27,107,0
1,39,107,0
1,46,107,96
1,51,107,96
1,54,107,96
1,51,107,0
1,46,107,96
1,47,107,0
1,59,107,0
1,51,107,0
1,54,107,96
1,58,107,0
1,27,107,0
1,39,107,0
1,46,107,96
1,51,107,96
1,54,107,96
1,51,107,0
1,46,107,96
1,47,107,0
1,59,107,0
1,51,107,0
1,54,107,96
1,58,107,0
1,27,107,0
1,39,107,0
1,46,107,96
1,51,107,96
1,54,107,96
1,51,107,0
1,46,107,96
1,47,107,0
1,59,107,0
1,51,107,0
1,54,107,96
1,58,107,0
1,42,107,0
1,46,107,192
1,49,107,96
1,41,107,0
1,46,107,48
1,49,107,0
1,40,107,0
1,46,107,48
1,49,107,0
1,27,107,0
1,39,107,0
1,46,107,96
1,51,107,96
1,54,107,96
1,51,107,0
1,46,107,96
1,47,107,0
1,59,107,0
1,51,107,0
1,54,107,96
1,58,107,0
1,27,107,0
1,39,107,0
1,46,107,96
1,51,107,96
1,54,107,96
1,51,107,0
1,46,107,96
1,47,107,0
1,59,107,0
1,51,107,0
1,54,107,96
1,58,107,0
1,27,107,0
1,39,107,0
1,46,107,96
1,51,107,96
1,54,107,96
1,51,107,0
1,46,107,96
1,47,107,0
1,59,107,0
1,51,107,0
1,54,107,96
1,58,107,0
1,42,107,0
1,46,107,192
1,49,107,96
1,41,107,0
1,46,107,48
1,49,107,0
1,40,107,0
1,46,107,48
1,49,107,0
1,27,107,0
1,39,107,0
1,46,107,96
1,51,107,96
1,54,107,96
1,51,107,0
1,46,107,96
1,47,107,0
1,59,107,0
1,51,107,0
1,54,107,96
1,58,107,0
1,27,107,0
1,39,107,0
1,46,107,96
1,51,107,96
1,54,107,96
1,51,107,0
1,46,107,96
1,47,107,0
1,59,107,0
1,51,107,0
1,54,107,96
1,58,107,0
1,27,107,0
1,39,107,0
1,46,107,96
1,51,107,96
1,54,107,96
1,51,107,0
1,46,107,96
1,47,107,0
1,59,107,0
1,51,107,0
1,54,107,96
1,58,107,0
1,42,107,0
1,46,107,192
1,49,107,96
1,41,107,0
1,46,107,48
1,49,107,0
1,40,107,0
1,46,107,48
1,49,107,0
1,44,92,153600
1,51,87,104
1,56,89,88
1,58,85,48
1,58,94,0
1,59,89,96
1,61,107,145
1,59,94,1
1,58,87,192
1,59,85,144
1,54,80,0
1,47,89,0
1,51,94,96
1,54,89,96
1,58,105,0
1,59,87,96
1,54,89,48
1,46,85,0
1,51,92,48
1,54,96,96
1,45,85,0
1,51,89,0
1,54,92,96
1,44,92,0
1,51,87,104
1,56,89,88
1,58,85,48
1,58,94,0
1,59,89,96
1,61,107,145
1,59,94,1
1,58,87,192
1,59,85,144
1,54,80,0
1,47,89,0
1,51,94,96
1,54,89,96
1,58,105,0
1,59,87,96
1,54,89,48
1,46,85,0
1,51,92,48
1,54,96,96
1,45,85,0
1,51,89,0
1,54,92,96
1,44,92,0
1,51,87,104
1,56,89,88
1,58,85,48
1,58,94,0
1,59,89,96
1,61,107,145
1,59,94,1
1,58,87,192
1,59,85,144
1,54,80,0
1,47,89,0
1,51,94,96
1,54,89,96
1,58,105,0
1,59,87,96
1,54,89,48
1,46,85,0
1,51,92,48
1,54,96,96
1,45,85,0
1,51,89,0
1,54,92,96
1,44,92,0
1,51,87,104
1,56,89,88
1,58,85,48
1,58,94,0
1,59,89,96
1,61,107,145
1,59,94,1
1,58,87,192
1,59,85,144
1,54,80,0
1,47,89,0
1,51,94,96
1,54,89,96
1,58,105,0
1,59,87,96
1,54,89,48
1,46,85,0
1,51,92,48
1,54,96,96
1,45,85,0
1,51,89,0
1,54,92,96
1,44,92,0
1,51,87,104
1,56,89,88
1,58,85,48
1,58,94,0
1,59,89,96
1,61,107,145
1,59,94,1
1,58,87,192
1,59,85,144
1,54,80,0
1,47,89,0
1,51,94,96
1,54,89,96
1,58,105,0
1,59,87,96
1,54,89,48
1,46,85,0
1,51,92,48
1,54,96,96
1,45,85,0
1,51,89,0
1,54,92,96
1,44,92,0
1,51,87,104
1,56,89,88
1,58,85,48
1,58,94,0
1,59,89,96
1,61,107,145
1,59,94,1
1,58,87,192
1,59,85,144
1,54,80,0
1,47,89,0
1,51,94,96
1,54,89,96
1,58,105,0
1,59,87,96
1,54,89,48
1,46,85,0
1,51,92,48
1,54,96,96
1,45,85,0
1,51,89,0
1,54,92,96
1,44,92,0
1,51,87,104
1,56,89,88
1,58,85,48
1,58,94,0
1,59,89,55
1,61,107,80
1,59,94,1
1,58,87,3
1,59,85,30
1,54,80,0
1,47,89,0
1,51,94,96
1,54,89,41
1,58,105,0
1,59,87,54
1,54,89,48
1,46,85,0
1,51,92,48
1,54,96,68
1,45,85,0
1,51,89,0
1,54,92,73
2,58,110,6816
2,56,114,0
2,58,116,0
2,58,119,384
2,63,121,96
2,65,119,48
2,66,116,48
2,66,105,0
2,65,119,48
2,63,107,0
2,61,107,48
2,58,107,80
2,56,110,48
2,58,110,32
2,51,98,200
2,54,98,0
2,53,101,288
2,56,101,0
2,58,101,48
2,61,101,0
2,54,98,0
2,58,98,0
2,54,103,0
2,58,103,0
2,53,104,0
2,56,104,0
2,54,105,0
2,58,105,0
2,59,114,576
2,61,112,96
2,54,112,48
2,58,112,0
2,54,119,144
2,58,119,96
2,61,121,0
2,53,121,0
2,58,121,96
2,61,121,0
2,52,121,0
2,58,121,96
2,61,121,0
2,61,95,192
2,61,90,126
2,61,92,125
2,63,92,96
2,66,96,509
2,65,89,96
2,66,87,0
2,66,92,48
2,65,97,72
2,63,96,28
2,68,85,215
2,66,116,96
2,65,103,92
2,66,92,6
2,65,101,0
2,61,95,113
2,61,106,24
2,59,103,49
2,58,94,10
2,59,98,1
2,58,101,0
2,59,101,48
2,58,101,3
2,56,101,0
2,58,94,0
2,51,65,138
2,54,65,0
2,53,57,0
2,56,57,0
2,53,68,0
2,56,68,0
2,54,56,96
2,58,56,0
2,54,79,0
2,58,79,0
2,56,65,96
2,59,65,0
2,56,92,0
2,59,92,0
2,58,66,96
2,61,66,0
2,58,107,0
2,61,107,0
2,58,96,0
2,61,96,0
2,56,96,48
2,59,98,8
2,54,96,0
2,58,96,0
2,53,92,0
2,56,92,0
2,54,89,0
2,58,89,0
2,61,80,272
2,61,83,0
2,61,87,0
2,61,94,0
2,61,98,0
2,61,99,0
2,61,101,0
2,61,103,0
2,61,103,0
2,61,106,0
2,61,107,0
2,61,111,0
2,61,127,0
2,59,101,0
2,58,101,0
2,59,101,96
2,58,101,48
2,59,103,0
2,58,105,0
2,56,105,0
2,58,105,0
2,59,107,48
2,58,110,96
2,63,110,192
2,66,112,0
2,63,105,0
2,66,105,0
2,63,122,0
2,66,122,0
2,66,109,288
2,70,109,0
2,66,95,0
2,70,95,0
2,65,104,0
2,68,104,0
2,65,93,0
2,68,93,0
2,66,113,0
2,70,113,0
2,68,111,48
2,71,111,0
2,68,102,0
2,71,102,0
2,68,122,0
2,71,122,0
2,70,114,48
2,73,114,0
2,70,103,0
2,73,103,0
2,70,117,0
2,73,117,0
2,68,101,0
2,71,101,0
2,66,105,48
2,70,105,0
2,65,98,48
2,68,98,0
2,66,96,48
2,70,96,0
2,66,95,0
2,70,95,0
2,65,94,48
2,68,94,0
2,63,94,0
2,66,94,0
2,61,94,0
2,65,94,0
2,63,94,0
2,66,94,0
2,61,94,48
2,65,94,0
2,59,94,48
2,63,94,0
2,58,93,48
2,61,93,0
2,59,92,48
2,63,92,0
2,58,92,48
2,61,92,0
2,56,92,48
2,59,92,0
2,58,92,48
2,61,92,0
2,53,92,48
2,56,100,0
2,44,92,153600
2,51,87,104
2,56,89,88
2,58,85,48
2,58,94,0
2,59,89,96
2,61,107,145
2,59,94,1
2,58,87,192
2,59,85,144
2,54,80,0
2,47,89,0
2,51,94,96
2,54,89,96
2,58,105,0
2,59,87,96
2,54,89,48
2,46,85,0
2,51,92,48
2,54,96,96
2,45,85,0
2,51,89,0
2,54,92,96
2,44,92,0
2,51,87,104
2,56,89,88
2,58,85,48
2,58,94,0
2,59,89,96
2,61,107,145
2,59,94,1
2,58,87,192
2,59,85,144
2,54,80,0
2,47,89,0
2,51,94,96
2,54,89,96
2,58,105,0
2,59,87,96
2,54,89,48
2,46,85,0
2,51,92,48
2,54,96,96
2,45,85,0
2,51,89,0
2,54,92,96
2,44,92,0
2,51,87,104
2,56,89,88
2,58,85,48
2,58,94,0
2,59,89,96
2,61,107,145
2,59,94,1
2,58,87,192
2,59,85,144
2,54,80,0
2,47,89,0
2,51,94,96
2,54,89,96
2,58,105,0
2,59,87,96
2,54,89,48
2,46,85,0
2,51,92,48
2,54,96,96
2,45,85,0
2,51,89,0
2,54,92,96
2,44,92,0
2,51,87,104
2,56,89,88
2,58,85,48
2,58,94,0
2,59,89,96
2,61,107,145
2,59,94,1
2,58,87,192
2,59,85,144
2,54,80,0
2,47,89,0
2,51,94,96
2,54,89,96
2,58,105,0
2,59,87,96
2,54,89,48
2,46,85,0
2,51,92,48
2,54,96,96
2,45,85,0
2,51,89,0
2,54,92,96
2,44,92,0
2,51,87,104
2,56,89,88
2,58,85,48
2,58,94,0
2,59,89,96
2,61,107,145
2,59,94,1
2,58,87,192
2,59,85,144
2,54,80,0
2,47,89,0
2,51,94,96
2,54,89,96
2,58,105,0
2,59,87,96
2,54,89,48
2,46,85,0
2,51,92,48
2,54,96,96
2,45,85,0
2,51,89,0
2,54,92,96
2,44,92,0
2,51,87,104
2,56,89,88
2,58,85,48
2,58,94,0
2,59,89,96
2,61,107,145
2,59,94,1
2,58,87,192
2,59,85,144
2,54,80,0
2,47,89,0
2,51,94,96
2,54,89,96
2,58,105,0
2,59,87,96
2,54,89,48
2,46,85,0
2,51,92,48
2,54,96,96
2,45,85,0
2,51,89,0
2,54,92,96
2,44,92,0
2,51,87,104
2,56,89,88
2,58,85,36
2,58,94,0
2,59,89,1
2,61,107,25
2,59,94,1
2,58,87,69
2,59,85,8
2,54,80,0
2,47,89,0
2,51,94,37
2,54,89,11
2,58,105,0
2,59,87,38
2,54,89,48
2,46,85,0
2,51,92,22
2,54,96,41
2,45,85,0
2,51,89,0
2,54,92,16
3,27,107,768
3,39,107,0
3,46,107,96
3,51,107,96
3,54,107,96
3,51,107,0
3,46,107,96
3,47,107,0
3,59,107,0
3,51,107,0
3,54,107,96
3,58,107,0
3,27,107,0
3,39,107,0
3,46,107,96
3,51,107,96
3,54,107,96
3,51,107,0
3,46,107,96
3,47,107,0
3,59,107,0
3,51,107,0
3,54,107,96
3,58,107,0
3,27,107,0
3,39,107,0
3,46,107,96
3,51,107,96
3,54,107,96
3,51,107,0
3,46,107,96
3,47,107,0
3,59,107,0
3,51,107,0
3,54,107,96
3,58,107,0
3,42,107,0
3,46,107,192
3,49,107,96
3,41,107,0
3,46,107,48
3,49,107,0
3,40,107,0
3,46,107,48
3,49,107,0
3,27,107,0
3,39,107,0
3,46,107,96
3,51,107,96
3,54,107,96
3,51,107,0
3,46,107,96
3,47,107,0
3,59,107,0
3,51,107,0
3,54,107,96
3,58,107,0
3,27,107,0
3,39,107,0
3,46,107,96
3,51,107,96
3,54,107,96
3,51,107,0
3,46,107,96
3,47,107,0
3,59,107,0
3,51,107,0
3,54,107,96
3,58,107,0
3,27,107,0
3,39,107,0
3,46,107,96
3,51,107,96
3,54,107,96
3,51,107,0
3,46,107,96
3,47,107,0
3,59,107,0
3,51,107,0
3,54,107,96
3,58,107,0
3,42,107,0
3,46,107,192
3,49,107,96
3,41,107,0
3,46,107,48
3,49,107,0
3,40,107,0
3,46,107,48
3,49,107,0
3,27,107,0
3,39,107,0
3,46,107,96
3,51,107,96
3,54,107,96
3,51,107,0
3,46,107,96
3,47,107,0
3,59,107,0
3,51,107,0
3,54,107,96
3,58,107,0
3,27,107,0
3,39,107,0
3,46,107,96
3,51,107,96
3,54,107,96
3,51,107,0
3,46,107,96
3,47,107,0
3,59,107,0
3,51,107,0
3,54,107,96
3,58,107,0
3,27,107,0
3,39,107,0
3,46,107,96
3,51,107,96
3,54,107,96
3,51,107,0
3,46,107,96
3,47,107,0
3,59,107,0
3,51,107,0
3,54,107,96
3,58,107,0
3,42,107,0
3,46,107,192
3,49,107,96
3,41,107,0
3,46,107,48
3,49,107,0
3,40,107,0
3,46,107,48
3,49,107,0
3,27,107,0
3,39,107,0
3,46,107,96
3,51,107,96
3,54,107,96
3,51,107,0
3,46,107,96
3,47,107,0
3,59,107,0
3,51,107,0
3,54,107,96
3,58,107,0
3,27,107,0
3,39,107,0
3,46,107,96
3,51,107,96
3,54,107,96
3,51,107,0
3,46,107,96
3,47,107,0
3,59,107,0
3,51,107,0
3,54,107,96
3,58,107,0
3,27,107,0
3,39,107,0
3,46,107,96
3,51,107,96
3,54,107,96
3,51,107,0
3,46,107,96
3,47,107,0
3,59,107,0
3,51,107,0
3,54,107,96
3,58,107,0
3,42,107,0
3,46,107,192
3,49,107,96
3,41,107,0
3,46,107,48
3,49,107,0
3,40,107,0
3,46,107,48
3,49,107,0
4,42,127,25344
4,49,127,0
4,54,127,0
4,39,127,96
4,39,127,0
4,42,127,0
4,49,127,0
4,54,127,0
4,39,127,96
4,39,127,0
4,39,127,0
4,39,127,0
4,39,127,0
4,39,127,0
4,39,127,0
4,39,127,0
4,39,127,0
4,39,127,0
4,39,127,0
4,39,127,0
4,39,127,0
4,39,127,0
4,39,127,0
4,39,127,0
4,42,127,0
4,49,127,0
4,54,127,0
4,39,127,96
4,39,127,0
4,42,127,0
4,49,127,0
4,54,127,0
4,39,127,96
4,39,127,0
4,39,127,0
4,39,127,0
4,39,127,0
4,39,127,0
4,39,127,0
4,39,127,0
4,39,127,0
4,45,127,0
4,52,127,0
4,57,127,0
4,42,127,0
4,49,127,0
4,54,127,0
4,39,127,96
4,39,127,0
4,42,127,0
4,49,127,0
4,54,127,0
4,39,127,96
4,39,127,0
4,39,127,0
4,39,127,0
4,39,127,0
4,39,127,0
4,39,127,0
4,39,127,0
4,39,127,0
4,39,127,0
4,39,127,0
4,39,127,0
4,39,127,0
4,39,127,0
4,39,127,0
4,39,127,0
4,42,127,0
4,49,127,0
4,54,127,0
4,39,127,96
4,39,127,0
4,42,127,0
4,49,127,0
4,54,127,0
4,39,127,96
4,39,127,0
4,39,127,0
4,39,127,0
4,39,127,0
4,39,127,0
4,39,127,0
4,39,127,0
4,39,127,0
4,45,127,0
4,52,127,0
4,57,127,0
4,51,127,0
4,58,127,0
4,63,127,0
4,49,127,0
4,56,127,0
4,61,127,0
4,51,127,0
4,58,127,0
4,63,127,0
4,47,127,0
4,54,127,0
4,59,127,0
4,44,127,0
4,51,127,0
4,56,127,0
4,51,127,0
4,58,127,0
4,63,127,0
4,49,127,0
4,56,127,0
4,61,127,0
4,51,127,0
4,58,127,0
4,63,127,0
4,47,127,0
4,54,127,0
4,59,127,0
4,49,127,0
4,56,127,0
4,61,127,0
4,39,127,0
4,46,127,0
4,51,127,0
4,47,127,0
4,54,127,0
4,59,127,0
4,46,127,0
4,53,127,0
4,58,127,0
4,47,127,0
4,54,127,0
4,59,127,0
4,39,127,0
4,46,127,0
4,51,127,0
4,47,127,0
4,54,127,0
4,59,127,0
