track,note,velocity,time
1,44,127,1
1,44,127,215
1,44,127,215
1,44,127,223
1,35,127,224
1,69,57,2
1,69,57,0
1,69,55,42
1,46,106,43
1,69,55,2
1,69,57,46
1,69,57,42
1,37,127,0
1,63,127,0
1,77,93,1
1,69,57,0
1,69,57,24
1,63,116,1
1,69,55,55
1,35,127,0
1,69,57,39
1,69,57,40
1,69,57,0
1,35,127,0
1,69,57,38
1,63,92,47
1,69,55,1
1,69,55,45
1,63,42,1
1,64,36,44
1,54,127,0
1,77,76,1
1,37,127,2
1,69,57,1
1,69,57,0
1,46,90,34
1,37,32,1
1,69,56,3
1,64,127,42
1,69,55,2
1,35,127,1
1,69,52,34
1,35,127,39
1,69,57,1
1,69,57,1
1,69,57,34
1,69,55,48
1,46,105,0
1,69,57,43
1,69,57,44
1,37,127,0
1,77,86,0
1,63,127,0
1,69,57,1
1,63,112,32
1,69,56,1
1,35,127,43
1,69,55,2
1,69,57,45
1,69,57,46
1,35,127,0
1,69,57,0
1,69,57,36
1,63,93,39
1,69,57,1
1,63,43,33
1,69,56,2
1,77,75,44
1,64,39,0
1,54,127,0
1,37,127,3
1,69,57,1
1,69,57,0
1,97,127,33
1,37,24,1
1,46,92,0
1,51,127,0
1,69,57,4
1,64,127,35
1,69,50,1
1,35,127,0
1,69,52,33
1,69,57,47
1,35,127,0
1,69,57,2
1,69,57,42
1,69,55,43
1,46,108,1
1,69,57,39
1,77,85,45
1,63,127,0
1,69,57,2
1,37,127,1
1,69,57,1
1,69,56,28
1,63,110,0
1,35,127,42
1,69,55,2
1,69,57,35
1,35,127,38
1,69,57,2
1,69,56,0
1,69,57,37
1,63,92,48
1,69,56,2
1,69,55,44
1,63,45,0
1,54,127,55
1,37,127,2
1,77,81,0
1,64,37,1
1,69,57,1
1,69,57,0
1,46,88,26
1,69,57,2
1,37,26,1
1,35,127,34
1,64,127,1
1,69,51,3
1,69,50,34
1,69,57,50
1,69,57,0
1,35,127,1
1,69,57,44
1,69,55,46
1,46,102,0
1,69,57,39
1,63,127,39
1,37,127,1
1,77,94,0
1,69,56,3
1,69,57,1
1,63,114,27
1,69,57,3
1,35,127,38
1,69,52,2
1,69,57,33
1,69,57,37
1,35,127,0
1,69,57,2
1,69,57,33
1,69,57,42
1,63,94,1
1,63,49,42
1,69,52,1
1,54,127,42
1,64,34,1
1,77,82,1
1,37,127,1
1,69,57,2
1,69,57,1
1,97,127,25
1,46,93,3
1,51,127,0
1,69,57,2
1,37,28,0
1,69,50,34
1,64,127,0
1,35,127,1
1,69,51,38
1,35,127,43
1,69,57,3
1,69,57,0
1,69,57,32
1,69,55,45
1,46,106,0
1,69,57,46
1,77,88,44
1,63,127,0
1,69,56,4
1,37,127,0
1,69,57,1
1,63,116,34
1,69,56,1
1,35,127,44
1,69,52,1
1,69,57,42
1,35,127,43
1,69,57,3
1,69,57,0
1,69,57,37
1,63,92,35
1,69,55,3
1,63,42,34
1,69,52,3
1,64,42,32
1,54,127,0
1,37,127,2
1,77,80,1
1,69,57,2
1,69,57,1
1,46,90,33
1,69,57,2
1,37,26,0
1,35,127,32
1,64,127,0
1,69,52,2
1,69,52,46
1,69,57,44
1,69,57,0
1,35,127,1
1,69,57,33
1,69,55,47
1,46,106,1
1,69,57,44
1,63,127,46
1,69,57,1
1,37,127,1
1,77,87,0
1,69,57,0
1,69,57,36
1,63,112,1
1,35,127,44
1,69,52,1
1,69,57,44
1,35,127,45
1,69,57,1
1,69,57,0
1,69,57,39
1,63,92,38
1,69,56,2
1,69,52,38
1,63,42,0
1,64,33,35
1,77,85,1
1,54,127,0
1,69,57,2
1,37,127,0
1,69,57,1
1,37,22,37
1,97,127,0
1,46,94,1
1,51,127,0
1,69,57,2
1,64,127,23
1,35,127,1
1,69,52,1
1,69,50,35
1,35,127,47
1,69,57,5
1,69,57,1
1,69,57,34
1,46,103,42
1,69,52,3
1,69,57,43
1,63,127,43
1,37,127,2
1,77,94,0
1,69,57,2
1,69,57,0
1,63,114,33
1,69,57,1
1,35,127,42
1,69,52,1
1,69,57,42
1,69,57,44
1,35,127,0
1,69,57,0
1,69,57,37
1,63,85,37
1,69,55,1
1,69,56,34
1,63,43,1
1,37,127,44
1,64,36,0
1,54,127,0
1,77,84,1
1,69,57,3
1,69,57,0
1,37,22,35
1,46,94,0
1,69,57,2
1,64,127,42
1,69,55,3
1,35,127,0
1,69,51,40
1,35,127,38
1,69,57,1
1,69,57,0
1,69,55,35
1,46,108,46
1,69,56,1
1,69,57,42
1,63,127,43
1,77,93,2
1,37,127,1
1,69,56,2
1,69,57,1
1,63,111,33
1,69,57,2
1,35,127,33
1,69,52,2
1,69,57,46
1,35,127,44
1,69,57,2
1,69,56,1
1,69,57,43
1,63,84,44
1,69,57,2
1,69,55,45
1,63,48,0
1,37,127,36
1,64,42,0
1,77,75,1
1,54,127,0
1,69,57,2
1,69,57,1
1,97,127,23
1,37,32,1
1,46,94,0
1,51,127,0
1,69,57,4
1,64,127,33
1,35,127,1
1,69,51,1
1,69,51,43
1,35,127,42
1,69,57,2
1,69,57,0
1,69,57,34
1,46,102,45
1,69,55,1
1,69,57,43
1,69,57,44
1,37,127,1
1,77,88,0
1,63,126,0
1,69,57,1
1,63,121,35
1,69,57,3
1,35,127,44
1,69,55,3
1,69,57,45
1,35,127,44
1,69,56,2
1,69,57,0
1,69,57,36
1,63,86,39
1,69,55,1
1,63,49,37
1,69,52,3
1,54,127,35
1,77,76,2
1,64,34,0
1,37,127,2
1,69,57,1
1,69,57,1
1,46,92,23
1,69,56,1
1,37,32,0
1,64,127,34
1,35,127,2
1,69,55,1
1,69,52,32
1,69,57,46
1,35,127,0
1,69,57,0
1,69,56,37
1,69,52,38
1,46,103,0
1,69,57,36
1,77,92,37
1,37,127,1
1,63,127,0
1,69,56,1
1,69,57,1
1,63,121,24
1,69,56,1
1,35,127,35
1,69,55,1
1,69,57,44
1,35,127,48
1,69,57,2
1,69,57,1
1,69,57,44
1,69,55,46
1,63,92,0
1,69,55,39
1,63,50,1
1,54,127,39
1,64,37,1
1,69,57,2
1,37,127,0
1,77,75,1
1,69,57,1
1,97,127,24
1,51,127,1
1,69,57,2
1,37,32,1
1,46,93,0
1,64,127,29
1,69,50,1
1,35,127,1
1,69,51,37
1,35,127,40
1,69,57,1
1,69,57,0
1,69,57,33
1,69,52,44
1,46,103,1
1,69,57,43
1,77,93,42
1,63,127,1
1,69,57,1
1,37,127,1
1,69,57,1
1,69,57,32
1,63,118,0
1,69,52,43
1,35,127,0
1,69,57,43
1,69,57,43
1,35,127,1
1,69,57,0
1,69,57,42
1,69,55,43
1,63,84,0
1,69,56,48
1,63,42,1
1,54,127,41
1,37,127,3
1,77,79,0
1,64,33,0
1,69,57,3
1,69,57,0
1,46,87,24
1,37,27,3
1,69,57,1
1,64,127,34
1,35,127,3
1,69,55,1
1,69,50,40
1,35,127,38
1,69,57,3
1,69,57,0
1,69,55,35
1,46,108,46
1,69,52,4
1,69,57,45
1,77,86,44
1,63,127,1
1,69,57,2
1,69,57,1
1,37,127,0
1,63,112,33
1,69,56,2
1,35,127,32
1,69,55,1
1,69,57,46
1,69,57,44
1,35,127,1
1,69,57,1
1,69,57,43
1,69,57,42
1,63,85,0
1,69,56,45
1,63,40,0
1,54,127,36
1,77,84,1
1,37,127,1
1,64,37,0
1,69,57,2
1,69,57,1
1,37,22,24
1,46,96,0
1,51,127,0
1,97,127,0
1,69,57,4
1,69,50,34
1,64,127,0
1,35,127,1
1,69,52,47
1,35,127,37
1,69,57,1
1,69,57,0
1,69,57,34
1,46,103,52
1,69,52,3
1,69,57,49
1,77,94,47
1,63,126,0
1,37,127,1
1,69,56,1
1,69,57,1
1,63,115,28
1,69,57,3
1,69,55,45
1,35,127,0
1,69,57,35
1,35,127,38
1,69,57,1
1,69,57,0
1,69,57,32
1,63,84,46
1,69,57,1
1,69,52,42
1,63,50,0
1,54,127,43
1,64,39,1
1,37,127,1
1,77,84,0
1,69,57,3
1,69,57,1
1,46,94,33
1,69,57,1
1,37,21,0
1,64,127,37
1,35,127,2
1,69,52,1
1,69,50,34
1,69,57,34
1,35,127,0
1,69,57,1
1,69,57,43
1,46,106,42
1,69,55,3
1,69,57,38
1,77,88,44
1,63,127,1
1,69,57,3
1,37,127,0
1,69,57,1
1,63,118,28
1,69,57,2
1,35,127,44
1,69,52,1
1,69,57,36
1,69,57,48
1,69,57,0
1,35,127,1
1,69,57,38
1,69,56,47
1,63,84,1
1,69,52,48
1,63,50,0
1,37,127,44
1,77,82,0
1,64,43,0
1,54,127,1
1,69,57,2
1,69,57,0
1,97,127,29
1,69,56,3
1,37,32,0
1,51,127,0
1,46,90,1
1,64,127,35
1,69,52,2
1,35,127,1
1,69,52,39
1,35,127,45
1,69,57,1
1,69,57,2
1,69,57,35
1,46,102,45
1,69,56,3
1,69,57,43
1,77,88,42
1,63,127,0
1,69,57,2
1,37,127,1
1,69,57,1
1,63,112,32
1,69,57,1
1,69,55,45
1,35,127,0
1,69,57,42
1,69,57,43
1,35,127,0
1,69,57,0
1,69,57,43
1,63,85,43
1,69,56,3
1,69,55,38
1,63,48,0
1,54,127,44
1,37,127,3
1,77,82,0
1,64,37,1
1,69,57,1
1,69,57,0
1,46,87,24
1,37,26,1
1,69,57,2
1,64,127,35
1,69,52,2
1,35,127,1
1,69,50,37
1,69,57,42
1,69,57,0
1,35,127,1
1,69,57,37
1,46,103,45
1,69,55,1
1,69,57,45
1,63,126,43
1,37,127,2
1,77,94,0
1,69,57,2
1,69,57,1
1,63,112,32
1,69,57,3
1,35,127,33
1,69,52,3
1,69,57,42
1,35,127,43
1,69,56,1
1,69,57,0
1,69,57,38
1,69,56,43
1,63,87,0
1,69,52,37
1,63,44,0
1,54,127,35
1,64,36,1
1,37,127,1
1,77,86,0
1,69,57,3
1,69,57,0
1,51,127,23
1,97,127,0
1,69,56,1
1,37,31,1
1,46,90,0
1,35,127,34
1,64,127,1
1,69,51,2
1,69,51,39
1,35,127,48
1,69,57,2
1,69,57,1
1,44,127,1
1,44,127,0
1,69,57,45
1,46,103,44
1,69,55,4
1,69,57,43
1,63,127,39
1,77,92,1
1,37,127,2
1,69,57,3
1,69,56,0
1,63,112,33
1,69,57,1
1,69,52,44
1,35,127,1
1,69,57,40
1,35,127,39
1,69,57,1
1,69,57,2
1,69,57,36
1,69,57,45
1,63,93,0
1,69,55,44
1,63,50,0
1,77,86,45
1,64,39,0
1,54,127,0
1,37,127,3
1,69,57,1
1,69,57,0
1,46,88,35
1,69,56,3
1,37,31,0
1,64,127,36
1,35,127,1
1,69,52,3
1,69,50,34
1,69,57,45
1,69,57,0
1,35,127,1
1,69,57,51
1,46,109,45
1,69,52,3
1,69,57,38
1,63,127,39
1,69,57,3
1,77,85,0
1,37,127,1
1,69,57,0
1,69,57,27
1,63,112,0
1,35,127,39
1,69,52,1
1,69,57,34
1,69,57,40
1,69,57,1
1,35,127,0
1,69,57,33
1,69,56,45
1,63,88,0
1,63,44,42
1,69,55,7
1,54,127,45
1,64,33,1
1,77,75,4
1,69,57,1
1,69,57,0
1,37,127,0
1,97,127,28
1,51,127,2
1,46,93,2
1,37,28,1
1,69,57,1
1,35,127,32
1,64,127,0
1,69,52,6
1,69,50,43
1,69,57,44
1,35,127,0
1,69,57,1
1,69,57,34
1,46,106,33
1,69,52,2
1,69,57,44
1,63,127,44
1,77,87,2
1,37,127,1
1,69,57,4
1,69,57,1
1,63,110,33
1,69,56,3
1,69,52,37
1,35,127,0
1,69,57,48
1,69,57,48
1,69,57,0
1,35,127,0
1,69,57,43
1,69,56,49
1,63,92,0
1,63,44,34
1,69,52,5
1,64,43,40
1,37,127,1
1,77,85,0
1,54,127,0
1,69,57,1
1,69,57,1
1,46,87,22
1,37,26,2
1,69,57,4
1,64,127,33
1,69,50,1
1,35,127,1
1,69,50,43
1,35,127,42
1,69,57,2
1,69,57,1
1,69,57,37
1,69,55,36
1,46,108,0
1,69,57,35
1,77,86,35
1,63,127,0
1,37,127,1
1,69,57,3
1,69,57,0
1,69,57,26
1,63,116,1
1,35,127,36
1,69,56,1
1,69,57,35
1,35,127,38
1,69,57,3
1,69,57,0
1,69,57,40
1,69,56,44
1,63,92,0
1,63,43,45
1,69,52,1
1,64,40,45
1,54,127,0
1,69,57,2
1,37,127,0
1,77,84,1
1,69,57,0
1,97,127,34
1,37,22,3
1,46,94,0
1,51,127,0
1,69,57,1
1,64,127,35
1,69,51,3
1,35,127,0
1,69,50,33
1,35,127,42
1,69,57,6
1,69,57,0
1,69,55,37
1,69,55,39
1,46,105,1
1,69,57,33
1,37,127,34
1,77,90,0
1,63,126,1
1,69,57,2
1,69,57,0
1,63,121,24
1,69,57,3
1,35,127,36
1,69,56,2
1,69,57,37
1,69,57,38
1,35,127,1
1,69,57,1
1,69,57,32
1,69,56,46
1,63,86,0
1,69,55,42
1,63,44,1
1,54,127,42
1,77,85,1
1,64,33,0
1,69,57,2
1,37,127,0
1,69,57,0
1,46,94,37
1,69,57,1
1,37,31,0
1,64,127,35
1,69,52,2
1,35,127,0
1,69,52,35
1,69,57,47
1,69,57,1
1,35,127,0
1,69,57,36
1,46,103,39
1,69,56,1
1,69,57,35
1,63,127,37
1,37,127,2
1,77,87,0
1,69,57,3
1,69,57,1
1,63,114,24
1,69,56,1
1,35,127,37
1,69,52,2
1,69,57,35
1,35,127,36
1,69,57,1
1,69,57,1
1,69,57,33
1,63,93,45
1,69,55,1
1,69,55,42
1,63,44,0
1,64,34,44
1,54,127,0
1,69,57,1
1,77,80,0
1,37,127,1
1,69,57,0
1,97,127,33
1,51,127,2
1,69,57,3
1,37,28,0
1,46,94,0
1,64,127,33
1,69,52,1
1,35,127,1
1,69,49,42
1,35,127,45
1,69,57,1
1,69,57,2
1,69,57,37
1,46,108,34
1,69,55,3
1,69,57,33
1,63,127,44
1,37,127,2
1,69,57,1
1,77,85,0
1,69,57,2
1,63,115,34
1,69,57,3
1,69,55,34
1,35,127,1
1,69,57,48
1,69,57,47
1,69,57,0
1,35,127,0
1,69,57,46
1,63,88,44
1,69,55,3
1,69,52,43
1,63,48,0
1,54,127,36
1,37,127,3
1,64,33,0
1,77,86,1
1,69,57,1
1,69,57,1
1,69,56,27
1,37,26,1
1,46,92,0
1,64,127,33
1,35,127,1
1,69,52,3
1,69,50,34
1,35,127,43
1,69,57,2
1,69,57,0
1,69,57,38
1,69,56,36
1,46,108,0
1,69,57,35
1,37,127,37
1,63,127,0
1,77,90,1
1,69,57,3
1,69,57,0
1,63,120,24
1,69,57,3
1,35,127,35
1,69,55,2
1,69,57,36
1,35,127,32
1,69,57,2
1,69,56,1
1,69,57,34
1,69,57,44
1,63,84,1
1,69,55,44
1,63,49,1
1,64,37,44
1,54,127,0
1,37,127,3
1,77,85,1
1,69,57,1
1,69,57,1
1,46,87,29
1,97,127,0
1,51,127,1
1,69,57,2
1,37,32,0
1,69,52,32
1,35,127,0
1,64,127,1
1,69,49,37
1,69,57,42
1,69,57,0
1,35,127,0
1,69,56,38
1,46,109,46
1,69,55,2
1,69,57,43
1,63,127,45
1,69,57,2
1,69,57,0
1,37,127,0
1,77,86,1
1,63,111,34
1,69,57,4
1,69,55,35
1,69,57,36
1,69,56,35
1,69,57,1
1,69,57,36
1,63,88,34
1,69,56,3
1,63,50,32
1,69,52,1
1,69,57,44
1,37,127,0
1,64,44,0
1,69,57,1
1,77,84,0
1,54,127,0
1,37,21,36
1,69,56,1
1,46,94,0
1,69,52,44
1,35,127,1
1,64,127,0
1,69,50,37
1,69,57,40
1,35,127,0
1,69,57,0
1,69,57,34
1,46,108,46
1,69,55,1
1,69,57,43
1,63,127,43
1,69,57,1
1,37,127,0
1,77,86,0
1,69,57,1
1,69,56,34
1,63,110,1
1,69,56,49
1,69,57,46
1,69,57,49
1,69,57,1
1,69,57,48
1,63,94,47
1,69,55,2
1,69,52,44
