track,note,velocity,time
1,76,100,3360
1,76,0,120
1,73,100,0
1,73,0,120
1,73,100,60
1,73,0,60
1,69,100,0
1,69,0,120
1,72,100,0
1,72,0,60
1,72,100,0
1,72,0,60
1,69,100,0
1,69,0,60
1,74,100,0
1,74,0,120
1,69,100,0
1,69,0,60
1,69,100,0
1,69,0,120
1,76,100,0
1,76,0,120
1,73,100,0
1,73,0,120
1,69,100,0
1,69,0,60
1,73,100,0
1,73,0,60
1,69,100,0
1,69,0,60
1,72,100,60
1,72,0,60
1,72,100,0
1,72,0,60
1,69,100,0
1,69,0,60
1,74,100,0
1,74,0,120
1,69,100,0
1,69,0,60
1,71,100,0
1,71,0,60
1,69,100,0
1,69,0,60
1,76,100,0
1,76,0,120
1,73,100,0
1,73,0,120
1,69,100,60
1,69,0,60
1,69,100,0
1,69,0,60
1,69,100,0
1,69,0,60
1,71,100,0
1,71,0,60
1,71,100,0
1,71,0,60
1,71,100,0
1,71,0,60
1,71,100,0
1,71,0,60
1,73,100,0
1,73,0,120
1,69,100,60
1,69,0,60
1,72,100,0
1,72,0,60
1,72,100,0
1,72,0,60
1,72,100,0
1,72,0,60
1,74,100,0
1,74,0,120
1,69,100,0
1,69,0,60
1,69,100,0
1,69,0,60
1,69,100,0
1,69,0,60
1,72,100,0
1,72,0,60
1,72,100,0
1,72,0,60
1,72,100,0
1,72,0,60
1,74,100,0
1,74,0,180
1,76,100,120
1,76,0,120
1,73,100,0
1,73,0,120
1,69,100,180
1,69,0,60
1,72,100,0
1,72,0,60
1,72,100,0
1,72,0,60
1,72,100,0
1,72,0,60
1,74,100,0
1,74,0,180
1,76,100,120
1,76,0,120
1,73,100,0
1,73,0,120
1,69,100,180
1,69,0,60
1,72,100,0
1,72,0,60
1,72,100,0
1,72,0,60
1,69,100,0
1,69,0,60
1,76,100,0
1,76,0,120
1,74,100,0
1,74,0,90
1,73,100,0
1,73,0,30
1,69,100,0
1,69,0,60
1,76,100,0
1,76,0,120
1,73,100,0
1,73,0,120
1,69,100,60
1,69,0,60
1,69,100,0
1,69,0,60
1,69,100,0
1,69,0,60
1,71,100,0
1,71,0,60
1,71,100,0
1,71,0,60
1,71,100,0
1,71,0,60
1,72,100,0
1,72,0,120
1,69,100,120
1,69,0,60
1,72,100,0
1,72,0,60
1,72,100,0
1,72,0,60
1,72,100,0
1,72,0,60
1,72,100,0
1,72,0,60
1,72,100,0
1,72,0,60
1,72,100,0
1,72,0,60
1,72,100,0
1,72,0,60
1,69,100,0
1,69,0,60
1,72,100,60
1,72,0,60
1,72,100,0
1,72,0,60
1,69,100,0
1,69,0,60
1,76,100,60
1,76,0,30
1,74,100,0
1,74,0,30
1,76,100,0
1,76,0,30
1,74,100,0
1,74,0,90
1,76,105,0
1,76,0,120
1,74,105,0
1,74,0,60
1,73,105,0
1,73,0,60
1,69,105,0
1,69,0,120
1,71,105,0
1,71,0,60
1,69,106,0
1,69,0,60
1,74,106,0
1,74,0,60
1,74,106,0
1,74,0,60
1,74,106,0
1,74,0,60
1,72,106,0
1,72,0,60
1,76,106,0
1,76,0,30
1,74,106,0
1,74,0,90
1,76,107,180
1,76,0,60
1,77,107,0
1,77,0,60
1,74,107,0
1,74,0,60
1,76,108,0
1,76,0,60
1,74,108,0
1,74,0,60
1,72,108,0
1,72,0,60
1,79,108,0
1,79,0,60
1,76,108,0
1,76,0,120
1,74,109,180
1,74,0,60
1,74,109,0
1,74,0,120
1,76,100,0
1,76,0,120
1,74,100,0
1,74,0,60
1,73,100,0
1,73,0,60
1,69,100,0
1,69,0,120
1,71,100,0
1,71,0,60
1,69,100,0
1,69,0,60
1,74,100,0
1,74,0,60
1,74,100,0
1,74,0,60
1,74,100,0
1,74,0,90
1,72,100,0
1,72,0,30
1,76,100,0
1,76,0,60
1,74,100,0
1,74,0,120
1,72,100,120
1,72,0,60
1,77,100,0
1,77,0,60
1,74,100,0
1,74,0,60
1,76,100,0
1,76,0,60
1,74,100,0
1,74,0,60
1,72,100,0
1,72,0,60
1,79,100,0
1,79,0,60
1,76,100,0
1,76,0,120
1,67,100,180
1,67,0,60
1,69,100,0
1,69,0,60
1,69,100,0
1,69,0,60
1,69,100,0
1,69,0,120
1,67,100,660
1,67,0,60
1,69,100,0
1,69,0,120
1,69,100,0
1,69,0,120
1,72,100,720
1,72,0,120
1,73,100,0
1,73,0,120
1,76,100,840
1,76,0,120
1,73,100,0
1,73,0,120
1,69,100,60
1,69,0,60
1,69,100,0
1,69,0,60
1,69,100,0
1,69,0,60
1,72,100,0
1,72,0,60
1,72,100,0
1,72,0,60
1,72,100,0
1,72,0,60
1,74,100,0
1,74,0,180
1,69,100,0
1,69,0,60
1,69,100,0
1,69,0,60
1,76,100,0
1,76,0,120
1,73,100,0
1,73,0,120
1,69,100,60
1,69,0,60
1,69,100,0
1,69,0,60
1,69,100,0
1,69,0,60
1,72,100,0
1,72,0,60
1,72,100,0
1,72,0,60
1,69,100,0
1,69,0,60
1,76,100,0
1,76,0,120
1,74,100,0
1,74,0,60
1,69,100,0
1,69,0,60
1,69,100,0
1,69,0,60
1,76,100,0
1,76,0,120
1,73,100,0
1,73,0,120
1,69,100,60
1,69,0,60
1,69,100,0
1,69,0,60
1,69,100,0
1,69,0,60
1,71,100,0
1,71,0,60
1,71,100,0
1,71,0,60
1,71,100,0
1,71,0,60
1,72,100,0
1,72,0,120
1,69,100,120
1,69,0,60
1,72,100,0
1,72,0,60
1,72,100,0
1,72,0,60
1,72,100,0
1,72,0,60
1,72,100,0
1,72,0,60
1,72,100,0
1,72,0,60
1,72,100,0
1,72,0,60
1,72,100,0
1,72,0,60
1,69,100,0
1,69,0,60
1,69,100,0
1,69,0,60
1,72,100,0
1,72,0,60
1,76,100,0
1,76,0,60
1,69,100,0
1,69,0,60
1,76,100,60
1,76,0,30
1,74,100,0
1,74,0,30
1,76,100,0
1,76,0,30
1,74,100,0
1,74,0,90
1,76,105,0
1,76,0,120
1,74,105,0
1,74,0,60
1,73,105,0
1,73,0,60
1,69,105,0
1,69,0,120
1,71,105,0
1,71,0,60
1,69,106,0
1,69,0,60
1,74,106,0
1,74,0,60
1,74,106,0
1,74,0,60
1,74,106,0
1,74,0,60
1,72,106,0
1,72,0,60
1,76,106,0
1,76,0,30
1,74,106,0
1,74,0,90
1,76,107,180
1,76,0,60
1,77,107,0
1,77,0,60
1,74,107,0
1,74,0,60
1,76,108,0
1,76,0,60
1,74,108,0
1,74,0,60
1,72,108,0
1,72,0,60
1,79,108,0
1,79,0,60
1,76,108,0
1,76,0,120
1,74,109,180
1,74,0,60
1,74,109,0
1,74,0,120
1,76,100,0
1,76,0,120
1,74,100,0
1,74,0,60
1,73,100,0
1,73,0,60
1,69,100,0
1,69,0,120
1,71,100,0
1,71,0,60
1,69,100,0
1,69,0,60
1,74,100,0
1,74,0,60
1,74,100,0
1,74,0,60
1,74,100,0
1,74,0,90
1,72,100,0
1,72,0,30
1,76,100,0
1,76,0,60
1,74,100,0
1,74,0,120
1,72,100,120
1,72,0,60
1,77,100,0
1,77,0,60
1,74,100,0
1,74,0,60
1,76,100,0
1,76,0,60
1,74,100,0
1,74,0,60
1,72,100,0
1,72,0,60
1,79,100,0
1,79,0,60
1,76,100,0
1,76,0,120
1,67,100,180
1,67,0,60
1,69,100,0
1,69,0,60
1,69,100,0
1,69,0,60
1,69,100,0
1,69,0,120
1,67,100,660
1,67,0,60
1,69,100,0
1,69,0,120
1,69,100,0
1,69,0,120
1,75,100,3540
1,75,0,60
1,76,100,0
1,76,0,30
1,75,100,0
1,75,0,90
1,76,100,0
1,76,0,120
1,74,100,0
1,74,0,60
1,73,100,0
1,73,0,60
1,69,100,0
1,69,0,120
1,69,100,0
1,69,0,60
1,69,100,0
1,69,0,60
1,74,100,0
1,74,0,60
1,74,100,0
1,74,0,60
1,74,100,0
1,74,0,60
1,72,100,0
1,72,0,60
1,74,100,0
1,74,0,30
1,74,100,0
1,74,0,90
1,76,100,180
1,76,0,60
1,77,100,0
1,77,0,60
1,74,100,0
1,74,0,60
1,76,100,0
1,76,0,60
1,74,100,0
1,74,0,60
1,72,100,0
1,72,0,60
1,79,100,0
1,79,0,60
1,76,100,0
1,76,0,120
1,74,100,180
1,74,0,60
1,74,100,0
1,74,0,120
1,76,100,0
1,76,0,120
1,74,100,0
1,74,0,60
1,73,100,0
1,73,0,60
1,69,100,0
1,69,0,120
1,69,100,0
1,69,0,60
1,69,100,0
1,69,0,60
1,74,100,0
1,74,0,60
1,74,100,0
1,74,0,60
1,74,100,0
1,74,0,90
1,72,100,0
1,72,0,30
1,74,100,0
1,74,0,60
1,74,100,0
1,74,0,120
1,72,100,120
1,72,0,60
1,77,100,0
1,77,0,60
1,74,100,0
1,74,0,60
1,76,100,0
1,76,0,60
1,74,100,0
1,74,0,60
1,72,100,0
1,72,0,60
1,79,100,0
1,79,0,60
1,76,100,0
1,76,0,120
1,74,100,240
1,74,0,120
1,76,100,0
1,76,0,120
1,74,100,0
1,74,0,60
1,73,100,0
1,73,0,60
1,69,100,0
1,69,0,120
1,69,100,0
1,69,0,60
1,69,100,0
1,69,0,60
1,74,100,0
1,74,0,60
1,74,100,0
1,74,0,60
1,74,100,0
1,74,0,60
1,72,100,0
1,72,0,60
1,74,100,0
1,74,0,30
1,74,100,0
1,74,0,90
1,76,100,180
1,76,0,60
1,77,100,0
1,77,0,60
1,74,100,0
1,74,0,60
1,76,100,0
1,76,0,60
1,74,100,0
1,74,0,60
1,72,100,0
1,72,0,60
1,79,100,0
1,79,0,60
1,76,100,0
1,76,0,120
1,74,100,180
1,74,0,60
1,74,100,0
1,74,0,120
1,76,100,0
1,76,0,120
1,74,100,0
1,74,0,60
1,73,100,0
1,73,0,60
1,69,100,0
1,69,0,120
1,69,100,0
1,69,0,60
1,69,100,0
1,69,0,60
1,74,100,0
1,74,0,60
1,74,100,0
1,74,0,60
1,74,100,0
1,74,0,90
1,72,100,0
1,72,0,30
1,74,100,0
1,74,0,60
1,74,100,0
1,74,0,120
1,72,100,120
1,72,0,60
1,77,100,0
1,77,0,60
1,74,100,0
1,74,0,60
1,76,100,0
1,76,0,60
1,74,100,0
1,74,0,60
1,72,100,0
1,72,0,60
1,79,100,0
1,79,0,60
1,76,100,0
1,76,0,120
1,67,100,180
1,67,0,60
1,69,100,0
1,69,0,60
1,69,100,0
1,69,0,60
1,69,100,0
1,69,0,120
1,81,100,420
1,81,0,240
1,76,100,0
1,76,0,60
1,76,100,0
1,76,0,120
1,76,100,0
1,76,0,120
1,76,100,540
1,76,0,60
1,77,100,0
1,77,0,60
1,77,100,0
1,77,0,60
1,77,100,0
1,77,0,60
1,79,100,0
1,79,0,60
1,76,100,0
1,76,0,120
1,76,100,540
1,76,0,60
1,77,100,0
1,77,0,60
1,77,100,0
1,77,0,60
1,77,100,0
1,77,0,60
1,79,100,0
1,79,0,60
1,76,100,0
1,76,0,120
1,76,100,420
1,76,0,60
1,77,100,0
1,77,0,60
1,77,100,0
1,77,0,60
1,77,100,0
1,77,0,60
1,77,100,0
1,77,0,60
1,77,100,0
1,77,0,60
1,79,100,0
1,79,0,60
1,76,100,0
1,76,0,120
1,76,100,420
1,76,0,60
1,77,100,0
1,77,0,60
1,77,100,0
1,77,0,60
1,77,100,0
1,77,0,60
1,77,100,0
1,77,0,60
1,77,100,0
1,77,0,60
1,79,100,0
1,79,0,60
1,76,100,0
1,76,0,120
1,76,100,540
1,76,0,60
1,77,100,0
1,77,0,60
1,77,100,0
1,77,0,60
1,77,100,0
1,77,0,60
1,79,100,0
1,79,0,60
1,76,100,0
1,76,0,120
1,76,100,540
1,76,0,60
1,77,100,0
1,77,0,60
1,77,100,0
1,77,0,60
1,77,100,0
1,77,0,60
1,79,100,0
1,79,0,60
1,76,100,0
1,76,0,120
1,76,100,540
1,76,0,60
1,77,100,0
1,77,0,60
1,77,100,0
1,77,0,60
1,77,100,0
1,77,0,60
1,79,100,0
1,79,0,60
1,76,100,0
1,76,0,120
1,76,100,540
1,76,0,60
1,77,100,0
1,77,0,60
1,77,100,0
1,77,0,60
1,77,100,0
1,77,0,120
1,69,100,5
1,69,0,1
1,69,100,1
1,69,0,120
1,69,100,0
1,69,0,120
1,71,100,0
1,83,100,0
1,83,0,60
1,71,0,0
1,68,100,0
1,80,100,0
1,80,0,60
1,68,0,0
1,69,100,0
1,81,100,0
1,81,0,120
1,69,0,0
1,76,100,0
1,76,0,120
1,76,100,540
1,76,0,60
1,77,100,0
1,77,0,60
1,77,100,0
1,77,0,60
1,77,100,0
1,77,0,60
1,79,100,0
1,79,0,60
1,76,100,0
1,76,0,120
1,76,100,540
1,76,0,60
1,77,100,0
1,77,0,60
1,77,100,0
1,77,0,60
1,77,100,0
1,77,0,60
1,79,100,0
1,79,0,60
1,76,100,0
1,76,0,120
1,76,100,420
1,76,0,60
1,77,100,0
1,77,0,60
1,77,100,0
1,77,0,60
1,77,100,0
1,77,0,60
1,77,100,0
1,77,0,60
1,77,100,0
1,77,0,60
1,79,100,0
1,79,0,60
1,76,100,0
1,76,0,120
1,76,100,420
1,76,0,60
1,77,100,0
1,77,0,60
1,77,100,0
1,77,0,60
1,77,100,0
1,77,0,60
1,77,100,0
1,77,0,60
1,77,100,0
1,77,0,60
1,79,100,0
1,79,0,60
1,76,100,0
1,76,0,120
1,76,100,540
1,76,0,60
1,77,100,0
1,77,0,60
1,77,100,0
1,77,0,60
1,77,100,0
1,77,0,60
1,79,100,0
1,79,0,60
1,76,100,0
1,76,0,120
1,76,100,540
1,76,0,60
1,77,100,0
1,77,0,60
1,77,100,0
1,77,0,60
1,77,100,0
1,77,0,60
1,79,100,0
1,79,0,60
1,76,100,0
1,76,0,120
1,76,100,540
1,76,0,60
1,77,100,0
1,77,0,60
1,77,100,0
1,77,0,60
1,77,100,0
1,77,0,60
1,79,100,0
1,79,0,60
1,76,100,0
1,76,0,120
1,76,100,540
1,76,0,60
1,77,100,0
1,77,0,60
1,77,100,0
1,77,0,60
1,77,100,0
1,77,0,120
1,81,100,1200
1,81,0,60
1,81,120,60
1,81,0,60
1,81,110,0
1,81,0,60
1,93,127,0
1,81,127,0
1,81,0,180
1,93,0,0
2,76,100,3360
2,76,0,120
2,73,100,0
2,73,0,120
2,76,100,720
2,76,0,120
2,73,100,0
2,73,0,120
2,76,100,720
2,76,0,120
2,73,100,0
2,73,0,120
2,76,100,1680
2,76,0,120
2,73,100,0
2,73,0,120
2,76,100,720
2,76,0,120
2,73,100,0
2,73,0,120
2,76,100,720
2,76,0,120
2,73,100,0
2,73,0,120
2,76,100,8400
2,76,0,120
2,73,100,0
2,73,0,120
2,76,100,720
2,76,0,120
2,73,100,0
2,73,0,120
2,76,100,720
2,76,0,120
2,73,100,0
2,73,0,120
2,84,100,7320
2,84,0,120
2,88,100,0
2,88,0,60
2,85,100,0
2,85,0,120
2,69,110,15540
2,69,0,60
2,69,110,0
2,69,0,60
2,69,110,900
2,69,0,60
2,64,110,780
2,64,0,120
2,65,110,0
2,65,0,120
2,64,110,720
2,64,0,120
2,65,110,0
2,65,0,120
2,57,100,5
2,57,0,3
2,64,110,1740
2,64,0,120
2,65,110,0
2,65,0,120
2,64,110,720
2,64,0,120
2,65,110,0
2,65,0,120
2,64,110,720
2,64,0,120
2,65,110,0
2,65,0,120
2,81,100,660
2,81,0,60
2,76,100,60
2,76,0,60
2,77,100,0
2,77,0,120
2,81,100,660
2,81,0,60
2,76,100,60
2,76,0,60
2,77,100,0
2,77,0,120
2,81,100,660
2,81,0,60
2,76,100,60
2,76,0,60
2,77,100,0
2,77,0,120
2,81,100,660
2,81,0,60
2,76,100,60
2,76,0,60
2,77,100,0
2,77,0,120
2,81,120,1740
2,81,0,60
2,81,110,0
2,81,0,60
2,69,127,0
2,81,127,0
2,81,0,180
2,69,0,0
3,72,70,39360
3,72,0,60
3,81,70,0
3,81,0,60
3,77,70,0
3,77,0,60
