track,note,velocity,time
0,57,78,16
0,60,70,35
0,64,87,34
0,69,83,96
0,69,0,64
0,64,0,30
0,56,70,2
0,57,0,0
0,71,87,2
0,60,0,56
0,60,83,38
0,71,0,90
0,64,87,6
0,71,78,96
0,71,0,72
0,56,0,4
0,60,0,6
0,64,0,0
0,55,72,14
0,72,83,2
0,64,87,94
0,67,76,96
0,64,0,4
0,72,0,56
0,72,76,36
0,72,0,58
0,67,0,14
0,55,0,22
0,54,57,2
0,66,93,2
0,62,76,94
0,57,64,96
0,62,0,10
0,62,70,86
0,66,0,48
0,54,0,6
0,57,0,0
0,62,0,4
0,41,78,38
0,53,72,2
0,57,64,2
0,64,83,2
0,60,76,90
0,57,0,42
0,57,76,54
0,64,0,74
0,64,72,22
0,64,0,178
0,64,78,14
0,60,0,16
0,60,78,80
0,57,0,52
0,57,64,44
0,41,0,58
0,53,0,8
0,57,0,0
0,60,0,0
0,64,0,2
0,47,93,28
0,55,98,2
0,59,93,2
0,55,0,58
0,59,0,16
0,45,78,18
0,47,0,0
0,52,61,2
0,57,61,2
0,57,0,20
0,45,0,2
0,52,0,4
0,45,87,66
0,52,87,2
0,57,87,2
0,60,87,2
0,45,0,262
0,45,78,20
0,52,0,30
0,53,87,66
0,57,0,20
0,60,0,64
0,52,87,12
0,53,0,0
0,52,0,52
0,45,0,8
0,57,72,31
0,60,64,0
0,64,68,0
0,57,78,5
0,60,70,96
0,64,87,96
0,69,83,96
0,69,0,64
0,57,0,26
0,56,76,1
0,64,0,3
0,56,70,2
0,57,0,0
0,71,87,2
0,60,0,56
0,60,83,38
0,71,0,90
0,64,87,6
0,71,78,96
0,71,0,72
0,56,0,4
0,60,0,6
0,64,0,0
0,56,0,8
0,55,86,1
0,55,72,5
0,72,83,2
0,64,87,94
0,67,76,96
0,64,0,4
0,72,0,87
0,72,76,5
0,72,0,58
0,67,0,14
0,55,0,18
0,54,60,1
0,57,80,0
0,55,0,3
0,54,57,2
0,66,93,2
0,62,76,94
0,57,64,96
0,62,0,10
0,62,70,86
0,66,0,48
0,54,0,6
0,57,0,0
0,62,0,4
0,64,0,31
0,54,0,1
0,57,0,0
0,53,64,1
0,57,60,0
0,64,64,0
0,41,78,5
0,53,72,2
0,57,64,2
0,64,83,2
0,60,76,90
0,57,0,42
0,57,76,54
0,64,0,74
0,64,72,22
0,64,0,178
0,64,78,14
0,60,0,16
0,60,78,80
0,57,0,52
0,57,64,44
0,41,0,58
0,53,0,8
0,57,0,0
0,60,0,0
0,64,0,2
0,53,0,21
0,57,0,0
0,60,0,0
0,64,0,0
0,55,86,2
0,59,86,0
0,47,87,5
0,55,98,2
0,59,78,2
0,55,0,51
0,59,0,6
0,55,0,7
0,59,0,14
0,47,0,6
0,57,42,3
0,60,54,0
0,64,72,0
0,45,76,5
0,52,70,2
0,57,76,2
0,60,38,2
0,60,0,9
0,60,0,7
0,57,0,1
0,64,0,4
0,57,0,1
0,45,0,2
0,52,0,2
0,57,52,59
0,60,60,0
0,64,80,0
0,45,76,5
0,52,78,2
0,57,76,2
0,60,78,2
0,45,0,356
0,45,83,22
0,45,0,92
0,47,87,4
0,60,0,47
0,57,0,2
0,52,0,1
0,64,0,1
0,60,0,5
0,57,0,2
0,48,72,33
0,64,64,0
0,67,64,0
0,48,76,5
0,72,80,0
0,76,94,0
0,47,0,6
0,52,76,90
0,55,72,96
0,64,83,96
0,72,0,70
0,55,0,16
0,48,0,4
0,48,0,0
0,64,0,0
0,67,0,0
0,50,94,1
0,66,72,0
0,69,48,0
0,52,0,1
0,64,0,2
0,50,70,2
0,74,86,0
0,78,62,0
0,66,78,2
0,76,0,2
0,62,78,92
0,57,76,96
0,62,0,20
0,66,0,52
0,66,70,24
0,66,0,66
0,50,0,6
0,57,0,0
0,50,0,18
0,66,0,0
0,69,0,0
0,74,0,0
0,53,56,1
0,64,62,0
0,69,52,0
0,72,72,0
0,41,76,5
0,76,80,0
0,78,0,0
0,81,76,0
0,57,76,2
0,64,83,2
0,57,0,90
0,60,78,2
0,76,0,88
0,81,0,3
0,57,83,5
0,74,86,0
0,79,68,0
0,64,0,12
0,74,0,78
0,64,76,6
0,72,67,0
0,77,72,0
0,79,0,0
0,60,0,12
0,57,0,68
0,41,0,8
0,53,0,2
0,45,56,1
0,45,78,5
0,76,73,0
0,77,0,0
0,59,83,2
0,64,0,0
0,60,72,46
0,59,0,6
0,60,0,40
0,57,72,2
0,76,0,82
0,45,0,2
0,72,0,4
0,45,83,8
0,72,90,0
0,76,94,0
0,47,78,96
0,79,90,0
0,72,0,2
0,45,0,4
0,79,0,72
0,76,0,6
0,64,0,5
0,69,0,0
0,72,0,0
0,45,0,1
0,48,60,1
0,60,72,0
0,64,62,0
0,67,80,0
0,47,0,5
0,48,72,0
0,76,86,0
0,79,76,0
0,60,78,2
0,57,0,12
0,55,57,82
0,52,83,96
0,55,0,20
0,55,72,76
0,48,0,70
0,76,0,18
0,48,0,2
0,60,0,0
0,64,0,0
0,43,62,1
0,59,50,0
0,62,76,0
0,43,70,5
0,52,0,0
0,74,68,0
0,60,0,6
0,55,0,4
0,50,78,86
0,67,87,96
0,62,72,96
0,67,0,68
0,62,0,2
0,79,0,10
0,50,0,2
0,67,0,7
0,43,0,1
0,43,0,0
0,59,0,0
0,74,0,0
0,50,94,1
0,57,48,0
0,66,76,0
0,50,83,5
0,74,86,0
0,79,90,0
0,67,87,2
0,66,87,46
0,67,0,10
0,79,0,36
0,62,93,2
0,78,62,0
0,81,62,0
0,66,0,2
0,62,0,50
0,74,0,2
0,50,0,2
0,78,0,6
0,81,0,2
0,50,76,32
0,78,64,0
0,81,60,0
0,55,93,2
0,57,49,94
0,55,0,4
0,55,47,44
0,57,0,12
0,54,87,36
0,55,0,6
0,55,61,42
0,54,0,16
0,57,87,32
0,55,0,12
0,50,0,72
0,45,76,12
0,69,70,5
0,57,0,27
0,45,0,60
0,47,83,4
0,69,0,5
0,71,73,0
0,78,0,35
0,62,0,1
0,81,0,1
0,50,0,47
0,57,0,0
0,66,0,0
0,48,72,2
0,64,64,0
0,67,64,0
0,47,0,5
0,48,76,0
0,72,90,0
0,76,94,0
0,71,0,5
0,72,72,0
0,52,76,91
0,55,72,96
0,81,94,0
0,64,83,96
0,79,98,0
0,81,0,14
0,72,0,60
0,76,0,10
0,79,0,0
0,55,0,2
0,48,0,4
0,48,0,0
0,64,0,0
0,67,0,0
0,50,94,1
0,66,72,0
0,69,48,0
0,52,0,1
0,64,0,2
0,50,70,2
0,74,76,0
0,79,76,0
0,66,78,2
0,72,0,1
0,74,86,2
0,62,78,91
0,78,86,0
0,79,0,8
0,78,0,80
0,57,76,8
0,76,94,0
0,62,0,20
0,74,0,6
0,66,0,46
0,76,0,12
0,66,70,12
0,74,90,0
0,74,0,48
0,66,0,18
0,50,0,6
0,57,0,0
0,50,0,18
0,66,0,0
0,69,0,0
0,60,60,1
0,64,60,0
0,69,90,0
0,41,76,5
0,81,94,0
0,57,76,2
0,74,0,1
0,64,83,1
0,72,76,1
0,57,0,89
0,60,78,2
0,64,0,65
0,60,0,2
0,69,0,0
0,81,0,19
0,60,76,5
0,64,76,0
0,69,80,0
0,57,83,5
0,84,98,0
0,64,0,12
0,84,0,72
0,72,90,7
0,64,76,5
0,83,98,0
0,60,0,12
0,60,0,59
0,64,0,6
0,57,0,3
0,72,0,5
0,41,0,3
0,60,68,3
0,64,68,0
0,76,90,0
0,45,78,5
0,84,102,0
0,59,83,2
0,64,0,0
0,83,0,0
0,72,0,1
0,69,76,2
0,60,72,43
0,59,0,6
0,60,0,40
0,57,72,2
0,45,0,84
0,45,83,12
0,47,78,96
0,76,108,0
0,60,0,3
0,45,0,3
0,64,0,3
0,76,0,14
0,84,0,1
0,69,0,1
0,76,0,15
0,74,102,8
0,48,62,43
0,60,52,0
0,64,54,0
0,67,50,0
0,47,0,5
0,48,76,0
0,57,0,0
0,72,62,0
0,76,86,0
0,69,0,3
0,72,76,2
0,74,0,5
0,52,87,86
0,55,83,96
0,60,87,96
0,48,0,46
0,52,0,30
0,48,0,14
0,55,0,0
0,60,0,0
0,64,0,0
0,67,0,0
0,72,0,0
0,50,72,1
0,62,64,0
0,66,76,0
0,69,60,0
0,60,0,1
0,50,83,4
0,74,64,0
0,78,80,0
0,72,0,3
0,76,0,1
0,74,72,1
0,57,85,91
0,62,83,96
0,66,72,96
0,66,0,56
0,57,0,10
0,62,0,0
0,50,0,8
0,74,0,8
0,78,0,0
0,50,0,8
0,62,0,0
0,66,0,0
0,53,60,1
0,60,38,0
0,64,58,0
0,41,76,5
0,74,80,0
0,79,98,0
0,53,76,2
0,74,0,1
0,57,76,1
0,76,64,1
0,64,64,1
0,79,0,86
0,60,72,4
0,76,62,0
0,81,68,0
0,74,0,2
0,64,0,16
0,76,0,52
0,81,0,6
0,64,76,20
0,76,86,0
0,81,72,0
0,60,0,8
0,60,76,88
0,57,0,20
0,57,76,76
0,53,0,72
0,53,83,24
0,41,0,6
0,52,83,7
0,69,86,1
0,53,0,5
0,69,0,46
0,48,76,3
0,76,0,1
0,71,68,2
0,52,0,13
0,81,0,30
0,76,0,2
0,60,0,10
0,57,0,2
0,48,0,4
0,64,0,2
0,69,0,15
0,53,0,8
0,60,0,0
0,64,0,0
0,57,72,2
0,60,64,0
0,64,68,0
0,57,78,5
0,71,0,4
0,71,96,1
0,72,78,0
0,71,0,4
0,60,70,87
0,64,87,9
0,71,92,2
0,72,0,10
0,69,83,75
0,71,0,5
0,69,96,4
0,69,0,55
0,57,0,26
0,56,76,1
0,64,0,3
0,56,70,2
0,57,0,0
0,71,87,2
0,69,0,3
0,71,68,4
0,60,0,49
0,60,83,38
0,71,0,11
0,64,87,6
0,71,0,18
0,71,78,3
0,69,64,3
0,69,0,46
0,71,100,2
0,71,0,21
0,56,0,4
0,60,0,6
0,64,0,0
0,56,0,8
0,55,86,1
0,55,72,5
0,72,83,2
0,71,0,7
0,72,100,8
0,64,87,79
0,72,0,41
0,74,82,2
0,67,76,53
0,64,0,4
0,72,0,3
0,74,0,4
0,72,96,4
0,72,76,9
0,72,0,58
0,67,0,14
0,55,0,18
0,54,60,1
0,57,80,0
0,55,0,3
0,54,57,2
0,72,0,1
0,66,93,1
0,71,96,1
0,71,0,92
0,62,76,1
0,69,66,7
0,57,64,89
0,62,0,10
0,69,0,77
0,72,68,8
0,62,70,1
0,72,0,45
0,66,0,3
0,74,96,1
0,54,0,5
0,57,0,0
0,62,0,4
0,64,0,31
0,54,0,1
0,57,0,0
0,53,64,1
0,57,60,0
0,64,64,0
0,41,78,5
0,53,72,2
0,57,64,2
0,64,83,2
0,76,100,3
0,74,0,2
0,60,76,85
0,57,0,7
0,76,0,2
0,74,96,8
0,57,76,43
0,64,0,74
0,72,100,17
0,74,0,4
0,64,72,1
0,72,0,93
0,71,82,4
0,64,0,81
0,64,78,14
0,60,0,16
0,71,0,25
0,69,62,8
0,60,78,47
0,57,0,52
0,67,74,41
0,57,64,3
0,69,0,1
0,41,0,57
0,53,0,8
0,57,0,0
0,60,0,0
0,64,0,2
0,67,0,5
0,53,0,16
0,57,0,0
0,60,0,0
0,64,0,0
0,55,86,2
0,59,86,0
0,67,92,4
0,47,93,1
0,55,98,2
0,59,93,2
0,55,0,51
0,59,0,6
0,55,0,1
0,59,0,16
0,57,42,13
0,60,54,0
0,64,72,0
0,45,78,5
0,47,0,0
0,52,61,2
0,57,61,2
0,67,0,1
0,69,62,2
0,60,0,8
0,57,0,8
0,57,0,1
0,45,0,2
0,64,0,1
0,52,0,3
0,69,0,51
0,57,52,10
0,60,60,0
0,64,80,0
0,45,87,5
0,52,87,2
0,69,68,1
0,57,87,1
0,60,87,2
0,45,0,262
0,45,78,1
0,52,0,9
0,53,87,7
0,57,0,5
0,60,0,64
0,69,0,1
0,52,87,11
0,53,0,0
0,69,66,1
0,60,0,46
0,57,0,2
0,64,0,2
0,52,0,1
0,71,96,3
0,69,0,2
0,45,0,3
0,57,72,31
0,60,64,0
0,64,68,0
0,57,78,5
0,71,0,11
0,72,92,2
0,60,70,83
0,72,0,16
0,64,87,1
0,71,100,1
0,69,83,95
0,69,92,5
0,71,0,0
0,69,0,59
0,57,0,26
0,56,76,1
0,64,0,3
0,56,70,2
0,57,0,0
0,69,0,1
0,71,87,1
0,71,78,1
0,60,0,55
0,60,83,38
0,71,0,3
0,64,87,6
0,71,78,29
0,69,70,9
0,71,0,2
0,69,0,52
0,71,100,0
0,71,0,9
0,56,0,4
0,60,0,6
0,64,0,0
0,56,0,8
0,55,86,1
0,55,72,5
0,72,83,2
0,71,0,17
0,72,100,8
0,64,87,69
0,74,96,53
0,72,0,2
0,67,76,41
0,64,0,4
0,72,0,54
0,74,0,37
0,72,76,1
0,72,100,3
0,72,0,55
0,67,0,14
0,55,0,18
0,54,60,1
0,57,80,0
0,55,0,3
0,54,57,2
0,66,93,2
0,72,0,3
0,71,100,2
0,62,76,5
0,71,0,10
0,69,64,4
0,57,64,69
0,62,0,10
0,62,70,86
0,72,86,13
0,69,0,2
0,66,0,33
0,72,0,3
0,54,0,3
0,57,0,0
0,74,100,1
0,62,0,3
0,64,0,31
0,54,0,1
0,57,0,0
0,53,64,1
0,57,60,0
0,64,64,0
0,41,78,5
0,53,72,2
0,57,64,2
0,64,83,2
0,76,100,5
0,74,0,6
0,60,76,79
0,57,0,7
0,76,0,8
0,74,100,2
0,57,76,33
0,64,0,3
0,72,96,2
0,64,72,5
0,74,0,1
0,72,0,90
0,71,82,2
0,64,0,85
0,64,78,14
0,60,0,16
0,71,0,41
0,69,62,6
0,60,78,33
0,57,0,52
0,67,70,43
0,57,64,1
0,69,0,5
0,41,0,53
0,53,0,8
0,57,0,0
0,60,0,0
0,64,0,2
0,67,0,5
0,53,0,16
0,57,0,0
0,60,0,0
0,64,0,0
0,67,86,0
0,55,86,2
0,59,86,0
0,47,87,5
0,55,98,2
0,59,78,2
0,55,0,51
0,59,0,6
0,55,0,7
0,59,0,14
0,47,0,6
0,57,42,3
0,60,54,0
0,64,72,0
0,45,76,5
0,67,0,1
0,52,70,1
0,69,66,1
0,57,76,1
0,60,38,2
0,60,0,9
0,60,0,7
0,57,0,1
0,64,0,4
0,57,0,1
0,45,0,2
0,52,0,2
0,69,0,49
0,57,52,10
0,60,60,0
0,64,80,0
0,45,76,5
0,52,78,2
0,57,76,2
0,69,66,1
0,60,78,1
0,45,0,3
0,45,83,3
0,69,0,14
0,45,0,47
0,47,87,4
0,60,0,47
0,57,0,2
0,52,0,1
0,64,0,1
0,60,0,5
0,57,0,2
0,48,72,33
0,64,64,0
0,67,64,0
0,48,76,5
0,72,82,5
0,47,0,1
0,52,76,57
0,55,72,96
0,74,74,91
0,64,83,5
0,72,0,1
0,76,78,44
0,74,0,4
0,55,0,37
0,48,0,4
0,48,0,0
0,64,0,0
0,67,0,0
0,50,94,1
0,66,72,0
0,69,48,0
0,52,0,1
0,64,0,2
0,76,0,1
0,50,70,1
0,66,78,2
0,74,82,3
0,62,78,91
0,57,76,96
0,62,0,20
0,66,0,52
0,66,70,24
0,66,0,66
0,50,0,6
0,57,0,0
0,50,0,18
0,66,0,0
0,69,0,0
0,53,56,1
0,64,62,0
0,69,52,0
0,72,72,0
0,41,76,5
0,57,76,2
0,72,92,1
0,64,83,1
0,74,0,5
0,57,0,1
0,60,78,2
0,57,83,96
0,64,0,12
0,64,76,7
0,60,0,12
0,72,0,29
0,71,96,4
0,57,0,35
0,41,0,8
0,53,0,2
0,45,56,1
0,45,78,5
0,59,83,2
0,64,0,0
0,71,0,7
0,69,68,8
0,60,72,31
0,59,0,6
0,60,0,40
0,57,72,2
0,45,0,84
0,45,83,12
0,72,86,5
0,69,0,4
0,72,0,86
0,47,78,1
0,74,96,3
0,45,0,3
0,64,0,83
0,69,0,0
0,72,0,0
0,45,0,1
0,48,60,1
0,60,72,0
0,64,62,0
