track,note,velocity,time
0,43,118,668
0,55,127,0
0,43,117,4
0,55,126,0
0,40,120,8
0,52,127,0
0,40,120,4
0,52,127,0
0,43,118,16
0,55,127,0
0,43,118,16
0,55,127,0
0,40,117,16
0,52,124,0
0,40,116,16
0,52,124,0
0,40,98,0
0,74,124,0
0,79,127,0
0,40,99,192
0,74,126,0
0,79,124,0
0,40,82,64
0,74,125,0
0,79,126,0
0,40,79,64
0,74,125,0
0,79,127,0
0,40,98,64
0,76,127,0
0,79,127,0
0,40,99,192
0,76,127,0
0,79,127,0
0,40,100,192
0,78,127,0
0,83,127,0
0,40,100,96
0,74,126,0
0,79,127,0
0,76,125,96
0,79,127,0
0,40,33,12
0,40,34,32
0,40,35,32
0,40,36,32
0,40,37,32
0,40,37,32
0,40,38,32
0,40,39,32
0,40,40,32
0,40,40,27
0,40,41,37
0,40,43,32
0,40,46,32
0,40,49,32
0,40,52,32
0,40,54,32
0,40,57,32
0,40,60,32
0,40,63,32
0,40,65,32
0,40,68,32
0,40,97,16
0,74,125,0
0,79,127,0
0,40,102,192
0,74,124,0
0,79,124,0
0,40,82,64
0,74,126,0
0,79,127,0
0,40,79,64
0,74,127,0
0,79,127,0
0,40,99,64
0,76,127,0
0,79,127,0
0,40,99,192
0,76,126,0
0,79,127,0
0,40,100,192
0,78,127,0
0,83,127,0
0,40,95,96
0,74,127,0
0,79,126,0
0,40,36,96
0,76,126,0
0,79,127,0
0,40,37,32
0,40,38,32
0,40,39,32
0,40,40,32
0,40,41,32
0,40,42,32
0,40,43,32
0,40,44,32
0,40,45,27
0,40,46,32
0,40,49,37
0,40,52,32
0,40,55,32
0,40,58,32
0,40,60,32
0,40,63,32
0,40,66,32
0,40,69,32
0,40,71,32
0,40,74,32
0,40,101,0
0,31,118,0
0,43,119,0
0,55,127,0
0,55,125,16
0,55,127,16
0,31,119,16
0,43,119,0
0,55,127,0
0,55,126,16
0,55,127,16
0,31,118,16
0,43,120,0
0,55,124,0
0,55,126,16
0,55,127,16
0,31,117,16
0,43,119,0
0,55,127,0
0,55,125,16
0,55,125,16
0,31,118,16
0,43,119,0
0,55,126,0
0,55,127,16
0,31,117,16
0,43,116,0
0,55,125,0
0,55,127,16
0,31,119,16
0,43,118,0
0,55,126,0
0,55,125,16
0,55,127,16
0,31,116,16
0,43,117,0
0,55,127,0
0,55,127,16
0,55,127,16
0,31,119,16
0,43,116,0
0,55,125,0
0,55,125,16
0,55,127,16
0,31,118,16
0,43,117,0
0,55,127,0
0,55,127,16
0,55,125,16
0,31,119,16
0,43,118,0
0,55,127,0
0,36,105,16
0,40,78,0
0,41,106,0
0,55,124,0
0,36,89,16
0,40,98,0
0,41,108,0
0,31,118,0
0,43,119,0
0,55,125,0
0,36,105,16
0,40,79,0
0,41,104,0
0,55,127,0
0,36,108,16
0,40,98,0
0,41,108,0
0,31,117,0
0,43,116,0
0,74,126,16
0,79,124,0
0,74,125,96
0,79,125,0
0,74,127,96
0,79,127,0
0,76,125,96
0,79,127,0
0,76,124,96
0,79,125,0
0,76,125,288
0,79,124,0
0,74,125,96
0,79,125,0
0,74,127,96
0,79,124,0
0,74,127,96
0,79,125,0
0,76,124,96
0,79,124,0
0,36,106,208
0,40,80,0
0,41,105,0
0,31,119,0
0,43,119,0
0,36,91,16
0,40,99,0
0,41,107,0
0,31,116,0
0,43,120,0
0,36,108,16
0,40,79,0
0,41,107,0
0,31,118,0
0,43,116,0
0,36,107,16
0,40,99,0
0,41,104,0
0,31,119,0
0,43,117,0
0,74,124,16
0,79,127,0
0,74,127,96
0,79,124,0
0,74,126,96
0,79,125,0
0,76,124,96
0,79,127,0
0,76,126,96
0,79,125,0
0,76,127,288
0,79,127,0
0,74,126,96
0,79,125,0
0,74,125,96
0,79,127,0
0,74,127,96
0,79,127,0
0,76,125,96
0,79,124,0
0,36,104,208
0,40,80,0
0,41,104,0
0,31,117,0
0,43,117,0
0,36,91,16
0,40,101,0
0,41,105,0
0,31,117,0
0,43,119,0
0,36,105,16
0,40,79,0
0,41,107,0
0,31,119,0
0,43,118,0
0,40,100,16
0,31,117,0
0,43,120,0
0,40,79,16
0,74,126,0
0,79,127,0
0,40,66,75
0,40,101,17
0,74,126,0
0,79,126,0
0,40,80,96
0,74,126,0
0,79,124,0
0,40,101,96
0,76,125,0
0,79,125,0
0,40,78,96
0,76,125,0
0,79,127,0
0,40,79,80
0,40,99,12
0,40,79,188
0,76,127,0
0,79,125,0
0,40,98,96
0,74,125,0
0,79,126,0
0,40,79,96
0,74,127,0
0,79,125,0
0,40,66,75
0,40,99,17
0,74,126,0
0,79,127,0
0,40,81,96
0,76,126,0
0,79,127,0
0,40,101,16
0,40,80,188
0,31,116,0
0,43,119,0
0,40,79,0
0,40,101,12
0,31,119,0
0,43,116,0
0,40,79,16
0,31,119,0
0,43,118,0
0,40,102,16
0,31,116,0
0,43,118,0
0,40,79,16
0,74,127,0
0,79,127,0
0,40,67,75
0,40,102,17
0,74,127,0
0,79,126,0
0,40,80,96
0,74,127,0
0,79,127,0
0,40,99,96
0,76,127,0
0,79,127,0
0,40,78,96
0,76,127,0
0,79,126,0
0,40,80,80
0,40,98,12
0,40,80,188
0,76,126,0
0,79,126,0
0,40,99,96
0,74,125,0
0,79,127,0
0,40,82,96
0,74,127,0
0,79,124,0
0,40,63,75
0,40,102,17
0,74,124,0
0,79,126,0
0,40,80,96
0,76,125,0
0,79,124,0
0,40,98,16
0,40,81,188
0,31,118,0
0,43,116,0
0,40,76,0
0,40,101,12
0,31,118,0
0,43,118,0
0,40,81,16
0,31,120,0
0,43,119,0
0,36,108,16
0,40,90,0
0,33,108,0
0,33,118,0
0,72,124,0
0,84,127,0
0,60,104,0
0,64,105,0
0,67,108,0
0,40,68,16
0,45,96,0
0,45,120,0
0,40,55,167
0,36,91,16
0,40,91,0
0,33,105,0
0,33,119,0
0,40,70,16
0,45,94,0
0,45,118,0
0,74,127,0
0,86,125,0
0,36,106,16
0,40,88,0
0,33,106,0
0,33,118,0
0,72,124,0
0,84,127,0
0,40,71,16
0,45,98,0
0,45,117,0
0,40,67,0
0,36,90,12
0,40,88,0
0,33,108,0
0,33,119,0
0,71,127,0
0,83,127,0
0,40,69,16
0,45,97,0
0,45,119,0
0,36,106,16
0,40,88,0
0,38,104,0
0,38,116,0
0,69,126,0
0,81,127,0
0,60,104,0
0,62,106,0
0,66,104,0
0,40,72,16
0,50,96,0
0,50,117,0
0,40,56,167
0,36,89,16
0,40,88,0
0,38,105,0
0,38,119,0
0,67,127,0
0,79,125,0
0,40,71,16
0,50,98,0
0,50,116,0
0,36,106,16
0,40,92,0
0,38,104,0
0,38,120,0
0,66,126,0
0,78,127,0
0,40,72,16
0,50,95,0
0,50,116,0
0,40,70,0
0,36,90,12
0,40,89,0
0,38,105,0
0,38,116,0
0,69,126,0
0,81,127,0
0,40,69,16
0,50,94,0
0,50,120,0
0,36,104,16
0,40,88,0
0,35,108,0
0,35,118,0
0,71,126,0
0,83,125,0
0,59,104,0
0,63,105,0
0,66,107,0
0,40,71,16
0,47,94,0
0,47,119,0
0,40,55,167
0,36,89,16
0,40,88,0
0,35,104,0
0,35,117,0
0,40,68,16
0,47,94,0
0,47,117,0
0,72,127,0
0,84,125,0
0,36,105,16
0,40,91,0
0,35,108,0
0,35,118,0
0,71,126,0
0,83,125,0
0,40,70,16
0,47,97,0
0,47,118,0
0,40,66,0
0,36,89,12
0,40,92,0
0,35,108,0
0,35,120,0
0,69,125,0
0,81,127,0
0,40,68,16
0,47,97,0
0,47,120,0
0,36,104,16
0,40,90,0
0,40,106,0
0,40,117,0
0,67,127,0
0,79,127,0
0,59,106,0
0,64,107,0
0,67,105,0
0,40,69,16
0,52,96,0
0,52,119,0
0,40,54,167
0,36,93,16
0,40,91,0
0,40,108,0
0,40,120,0
0,66,126,0
0,78,124,0
0,40,69,16
0,52,97,0
0,52,116,0
0,36,105,16
0,40,92,0
0,40,104,0
0,40,116,0
0,64,125,0
0,76,126,0
0,40,72,16
0,52,94,0
0,52,118,0
0,40,69,0
0,36,91,12
0,40,88,0
0,40,105,0
0,40,119,0
0,71,127,0
0,83,127,0
0,40,72,16
0,52,96,0
0,52,119,0
0,36,104,16
0,40,89,0
0,35,108,0
0,35,118,0
0,69,126,0
0,81,126,0
0,59,106,0
0,63,105,0
0,66,104,0
0,40,70,16
0,47,94,0
0,47,117,0
0,40,56,167
0,36,89,16
0,40,88,0
0,35,107,0
0,35,119,0
0,67,127,0
0,79,127,0
0,40,71,16
0,47,97,0
0,47,116,0
0,36,107,16
0,40,91,0
0,35,108,0
0,35,117,0
0,66,125,0
0,78,125,0
0,40,70,16
0,47,96,0
0,47,117,0
0,40,66,0
0,36,93,12
0,40,89,0
0,35,108,0
0,35,117,0
0,69,127,0
0,81,125,0
0,40,71,16
0,47,94,0
0,47,120,0
0,36,107,16
0,40,89,0
0,40,107,0
0,40,119,0
0,67,125,0
0,79,127,0
0,59,107,0
0,64,107,0
0,67,106,0
0,40,68,16
0,52,95,0
0,52,117,0
0,40,54,167
0,36,93,16
0,40,88,0
0,40,105,0
0,40,118,0
0,66,127,0
0,78,124,0
0,40,72,16
0,52,94,0
0,52,118,0
0,36,108,16
0,40,88,0
0,40,108,0
0,40,120,0
0,64,127,0
0,76,126,0
0,40,71,16
0,52,98,0
0,52,120,0
0,40,68,0
0,36,92,12
0,40,91,0
0,40,107,0
0,40,117,0
0,71,126,0
0,83,124,0
0,40,68,16
0,52,98,0
0,52,119,0
0,36,106,16
0,40,91,0
0,33,105,0
0,33,117,0
0,72,127,0
0,84,127,0
0,60,107,0
0,64,107,0
0,69,107,0
0,40,71,16
0,45,96,0
0,45,117,0
0,40,53,167
0,36,91,16
0,40,90,0
0,33,105,0
0,33,117,0
0,71,124,0
0,83,127,0
0,40,69,16
0,45,98,0
0,45,120,0
0,36,107,16
0,40,89,0
0,33,108,0
0,33,117,0
0,69,125,0
0,81,127,0
0,40,72,15
0,45,94,1
0,45,118,0
0,40,68,0
0,36,90,12
0,40,91,0
0,33,108,0
0,33,120,0
0,67,127,0
0,79,124,0
0,40,69,16
0,45,98,0
0,45,117,0
0,36,107,16
0,40,91,0
0,38,104,0
0,38,118,0
0,66,125,0
0,78,127,0
0,60,106,0
0,62,105,0
0,66,104,0
0,40,68,16
0,50,98,0
0,50,118,0
0,40,56,167
0,36,91,16
0,40,91,0
0,38,104,0
0,38,116,0
0,64,124,0
0,76,126,0
0,64,107,0
0,40,70,16
0,50,95,0
0,50,119,0
0,36,108,16
0,40,89,0
0,38,107,0
0,38,116,0
0,62,126,0
0,74,127,0
0,62,104,0
0,40,69,16
0,41,105,0
0,50,97,0
0,50,119,0
0,36,93,16
0,40,90,0
0,38,107,0
0,38,116,0
0,40,71,16
0,41,108,0
0,50,96,0
0,50,119,0
0,36,104,16
0,40,88,0
0,41,108,0
0,31,118,0
0,43,118,0
0,74,127,16
0,79,126,0
0,74,127,96
0,79,125,0
0,74,125,96
0,79,124,0
0,76,127,96
0,79,126,0
0,76,127,96
0,79,127,0
0,76,124,288
0,79,126,0
0,74,124,96
0,79,125,0
0,74,125,96
0,79,127,0
0,74,125,96
0,79,125,0
0,76,126,96
0,79,126,0
0,36,108,208
0,40,69,0
0,41,107,0
0,31,117,0
0,43,118,0
0,36,93,16
0,40,90,0
0,41,104,0
0,31,119,0
0,43,119,0
0,36,108,16
0,40,68,0
0,41,106,0
0,31,117,0
0,43,118,0
0,36,108,16
0,40,92,0
0,41,107,0
0,31,118,0
0,43,120,0
0,74,124,16
0,79,127,0
0,74,127,96
0,79,127,0
0,74,125,96
0,79,126,0
0,76,124,96
0,79,125,0
0,76,125,96
0,79,127,0
0,76,127,288
0,79,127,0
0,74,127,96
0,79,126,0
0,74,126,96
0,79,124,0
0,74,127,96
0,79,126,0
0,76,127,96
0,79,127,0
0,36,104,208
0,40,70,0
0,41,104,0
0,31,119,0
0,43,120,0
0,36,90,16
0,40,89,0
0,41,106,0
0,31,120,0
0,43,120,0
0,36,108,16
0,40,69,0
0,41,106,0
0,31,117,0
0,43,118,0
0,40,91,16
0,31,119,0
0,43,117,0
0,40,69,16
0,74,125,0
0,79,126,0
0,40,55,75
0,40,92,17
0,74,126,0
0,79,127,0
0,40,71,96
0,74,126,0
0,79,124,0
0,40,88,96
0,76,124,0
0,79,127,0
0,40,69,96
0,76,125,0
0,79,127,0
0,40,69,80
0,40,90,12
0,40,69,188
0,76,125,0
0,79,124,0
0,40,91,96
0,74,124,0
0,79,127,0
0,40,71,96
0,74,125,0
0,79,124,0
0,40,55,75
0,40,91,17
0,74,124,0
0,79,127,0
0,40,70,96
0,76,124,0
0,79,127,0
0,40,92,16
0,40,72,188
0,31,119,0
0,43,117,0
0,40,67,0
0,40,90,12
0,31,117,0
0,43,117,0
0,40,72,16
0,31,120,0
0,43,118,0
0,40,88,16
0,31,116,0
0,43,119,0
0,40,69,16
0,74,126,0
0,79,124,0
0,40,55,75
0,40,91,17
0,74,125,0
0,79,124,0
0,40,70,96
0,74,124,0
0,79,126,0
0,40,91,96
0,76,125,0
0,79,126,0
0,40,71,96
0,76,127,0
0,79,127,0
0,40,66,80
0,40,91,12
0,40,71,188
0,76,127,0
0,79,126,0
0,40,89,96
0,74,124,0
0,79,126,0
0,40,68,96
0,74,124,0
0,79,126,0
0,40,53,75
0,40,89,17
0,74,126,0
0,79,127,0
0,40,69,96
0,76,127,0
0,79,124,0
0,40,89,16
0,40,72,188
0,31,120,0
0,43,118,0
0,40,67,0
0,40,90,12
0,31,119,0
0,43,117,0
0,40,71,16
0,31,119,0
0,43,116,0
0,36,105,16
0,40,90,0
0,33,107,0
0,33,117,0
0,72,126,0
0,84,124,0
0,60,105,0
0,64,105,0
0,67,107,0
0,40,71,16
0,45,97,0
0,45,117,0
0,40,53,167
0,36,90,16
0,40,90,0
0,33,107,0
0,33,117,0
0,40,71,16
0,45,95,0
0,45,117,0
0,74,127,0
0,86,125,0
0,36,104,16
0,40,89,0
0,33,105,0
0,33,118,0
0,72,127,0
0,84,125,0
0,40,69,16
0,45,96,0
0,45,119,0
0,40,67,0
0,36,89,12
0,40,90,0
0,33,105,0
0,33,120,0
0,71,125,0
0,83,125,0
0,40,70,16
0,45,94,0
0,45,117,0
0,36,104,16
0,40,91,0
0,38,105,0
0,38,118,0
0,69,127,0
0,81,125,0
0,60,105,0
0,62,107,0
0,66,108,0
0,40,69,16
0,50,95,0
0,50,118,0
0,40,55,167
0,36,91,16
0,40,88,0
0,38,104,0
0,38,119,0
0,67,127,0
0,79,124,0
0,40,68,16
0,50,94,0
0,50,118,0
0,36,105,16
0,40,88,0
0,38,108,0
0,38,117,0
0,66,127,0
0,78,126,0
0,40,68,16
0,50,94,0
0,50,117,0
0,40,69,0
0,36,89,12
0,40,91,0
0,38,104,0
0,38,119,0
0,69,124,0
0,81,125,0
0,40,68,16
0,50,94,0
0,50,118,0
0,36,105,16
0,40,90,0
0,35,105,0
0,35,119,0
0,71,126,0
0,83,124,0
0,59,105,0
0,63,106,0
0,66,104,0
0,40,70,16
0,47,94,0
0,47,119,0
0,40,54,167
0,36,89,16
0,40,90,0
0,35,104,0
0,35,118,0
0,40,71,16
0,47,98,0
0,47,119,0
0,72,126,0
0,84,127,0
0,36,104,16
0,40,91,0
0,35,108,0
0,35,119,0
0,71,125,0
0,83,126,0
0,40,71,16
0,47,97,0
0,47,117,0
0,40,66,0
0,36,90,12
0,40,88,0
0,35,105,0
0,35,117,0
0,69,126,0
0,81,127,0
0,40,70,16
0,47,98,0
0,47,117,0
0,36,108,16
0,40,90,0
0,40,106,0
0,40,116,0
0,67,127,0
0,79,125,0
0,59,106,0
0,64,108,0
0,67,106,0
0,40,69,16
0,52,98,0
0,52,117,0
0,40,56,167
0,36,90,16
0,40,92,0
0,40,105,0
0,40,116,0
0,66,127,0
0,78,126,0
0,40,72,16
