track,note,velocity,time
1,31,117,13824
1,31,117,4
1,31,117,4
1,31,117,4
1,31,117,4
1,31,117,4
1,31,117,4
1,31,117,4
1,31,117,4
1,31,117,4
1,31,117,4
1,31,117,4
1,31,117,4
1,31,117,4
1,31,117,4
1,31,117,4
1,34,117,4
1,34,117,4
1,34,117,4
1,34,117,4
1,29,117,4
1,29,117,4
1,29,117,4
1,31,117,4
1,31,117,4
1,31,117,4
1,31,117,4
1,31,117,4
1,31,117,4
1,31,117,4
1,31,117,4
1,31,117,4
1,31,117,4
1,31,117,4
1,31,117,4
1,31,117,4
1,31,117,4
1,31,117,4
1,31,117,4
1,31,117,4
1,31,117,4
1,31,117,4
1,31,117,4
1,31,117,4
1,31,117,4
1,31,117,4
1,31,117,4
1,31,117,4
1,34,117,4
1,34,117,4
1,34,117,4
1,34,117,4
1,29,117,4
1,29,117,4
1,29,117,4
1,31,117,4
1,31,117,4
1,31,117,4
1,31,117,4
1,31,117,4
1,31,117,4
1,31,117,4
1,31,117,4
1,31,117,4
1,39,117,4
1,39,117,4
1,39,117,4
1,39,117,4
1,39,117,4
1,39,117,4
1,39,117,4
1,39,117,4
1,39,117,4
1,39,117,4
1,39,117,4
1,39,117,4
1,39,117,4
1,39,117,4
1,39,117,4
1,39,117,4
1,34,117,4
1,34,117,4
1,34,117,4
1,34,117,4
1,34,117,4
1,34,117,4
1,34,117,4
1,34,117,4
1,34,117,4
1,34,117,4
1,34,117,4
1,34,117,4
1,34,117,4
1,34,117,4
1,34,117,4
1,34,117,4
1,39,117,4
1,39,117,4
1,39,117,4
1,39,117,4
1,39,117,4
1,39,117,4
1,39,117,4
1,39,117,4
1,39,117,4
1,39,117,4
1,39,117,4
1,39,117,4
1,39,117,4
1,39,117,4
1,39,117,4
1,39,117,4
1,38,117,4
1,38,117,4
1,38,117,4
1,38,117,4
1,38,117,4
1,38,117,4
1,38,117,4
1,38,117,4
1,38,117,4
1,31,117,1348
1,31,117,4
1,31,117,4
1,31,117,4
1,31,117,4
1,31,117,4
1,31,117,4
1,31,117,4
1,31,117,4
1,31,117,4
1,31,117,4
1,31,117,4
1,31,117,4
1,31,117,4
1,31,117,4
1,43,127,4
1,31,117,4
1,31,117,4
1,31,117,4
1,31,117,4
1,31,117,4
1,31,117,4
1,31,117,4
1,31,117,4
1,31,117,4
1,31,117,4
1,31,117,4
1,31,117,4
1,43,117,4
1,43,127,196
1,31,117,4
1,31,117,4
1,31,117,4
1,31,117,4
1,31,117,4
1,31,117,4
1,31,117,4
1,31,117,4
1,31,117,4
1,31,117,4
1,31,117,4
1,31,117,4
1,31,117,4
1,31,117,4
1,43,127,4
1,31,117,4
1,31,117,4
1,31,117,4
1,31,117,4
1,31,117,4
1,31,117,4
1,31,117,4
1,31,117,4
1,31,117,4
1,31,117,4
1,31,117,4
1,31,117,4
1,43,127,4
1,43,127,196
1,31,117,4
1,31,117,4
1,31,117,4
1,31,117,4
1,31,117,4
1,31,117,4
1,31,117,4
1,31,117,4
1,31,117,4
1,31,117,4
1,31,117,4
1,31,117,4
1,31,117,4
1,31,117,4
1,31,117,4
1,31,117,4
1,34,117,4
1,34,117,4
1,34,117,4
1,34,117,4
1,29,117,4
1,29,117,4
1,29,117,4
1,31,117,4
1,31,117,4
1,31,117,4
1,31,117,4
1,31,117,4
1,31,117,4
1,31,117,4
1,31,117,4
1,31,117,4
1,31,117,4
1,31,117,4
1,31,117,4
1,31,117,4
1,31,117,4
1,31,117,4
1,31,117,4
1,31,117,4
1,31,117,4
1,31,117,4
1,31,117,4
1,31,117,4
1,31,117,4
1,31,117,4
1,31,117,4
1,31,117,4
1,34,117,4
1,34,117,4
1,34,117,4
1,34,117,4
1,29,117,4
1,29,117,4
1,29,117,4
1,31,117,4
1,31,117,4
1,31,117,4
1,31,117,4
1,31,117,4
1,31,117,4
1,31,117,4
1,31,117,4
1,31,117,4
1,39,117,4
1,39,117,4
1,39,117,4
1,39,117,4
1,39,117,4
1,39,117,4
1,39,117,4
1,39,117,4
1,39,117,4
1,39,117,4
1,39,117,4
1,39,117,4
1,39,117,4
1,39,117,4
1,39,117,4
1,39,117,4
1,34,117,4
1,34,117,4
1,34,117,4
1,34,117,4
1,34,117,4
1,34,117,4
1,34,117,4
1,34,117,4
1,34,117,4
1,34,117,4
1,34,117,4
1,34,117,4
1,34,117,4
1,34,117,4
1,34,117,4
1,34,117,4
1,39,117,4
1,39,117,4
1,39,117,4
1,39,117,4
1,39,117,4
1,39,117,4
1,39,117,4
1,39,117,4
1,39,117,4
1,39,117,4
1,39,117,4
1,39,117,4
1,39,117,4
1,39,117,4
1,39,117,4
1,39,117,4
1,38,117,4
1,38,117,4
1,38,117,4
1,38,117,4
1,38,117,4
1,38,117,4
1,38,117,4
1,38,117,4
1,38,117,4
1,31,117,1348
1,31,117,4
1,31,117,4
1,31,117,4
1,31,117,4
1,31,117,4
1,31,117,4
1,31,117,4
1,31,117,4
1,31,117,4
1,31,117,4
1,31,117,4
1,31,117,4
1,31,117,4
1,31,117,4
1,43,127,4
1,31,117,4
1,31,117,4
1,31,117,4
1,31,117,4
1,31,117,4
1,31,117,4
1,31,117,4
1,31,117,4
1,31,117,4
1,31,117,4
1,31,117,4
1,31,117,4
1,43,117,4
1,43,127,196
1,31,117,4
1,31,117,4
1,31,117,4
1,31,117,4
1,31,117,4
1,31,117,4
1,31,117,4
1,31,117,4
1,31,117,4
1,31,117,4
1,31,117,4
1,31,117,4
1,31,117,4
1,31,117,4
1,43,127,4
1,31,117,4
1,31,117,4
1,31,117,4
1,31,117,4
1,31,117,4
1,31,117,4
1,31,117,4
1,31,117,4
1,31,117,4
1,31,117,4
1,31,117,4
1,31,117,4
1,43,127,4
1,45,127,196
1,33,127,4
1,33,127,4
1,33,127,4
1,33,127,4
1,33,127,4
1,33,127,4
1,33,127,4
1,33,127,4
1,33,127,4
1,33,127,4
1,33,127,4
1,31,127,4
1,31,127,4
1,31,127,4
1,31,127,4
1,31,127,4
1,33,127,4
1,33,127,4
1,33,127,4
1,33,127,4
1,33,127,4
1,33,127,4
1,33,127,4
1,33,127,4
1,33,127,4
1,33,127,4
1,33,127,4
1,31,127,4
1,31,127,4
1,31,127,4
1,31,127,4
1,31,127,4
1,33,127,4
1,33,127,4
1,33,127,4
1,33,127,4
1,33,127,4
1,33,127,4
1,33,127,4
1,33,127,4
1,33,127,4
1,33,127,4
1,33,127,4
1,31,127,4
1,31,127,4
1,31,127,4
1,31,127,4
1,31,127,4
1,33,127,4
1,33,127,4
1,33,127,4
1,33,127,4
1,33,127,4
1,33,127,4
1,33,127,4
1,33,127,4
1,33,127,4
1,33,127,4
1,33,127,4
1,31,127,4
1,31,127,4
1,31,127,4
1,31,127,4
1,31,127,4
1,36,127,4
1,36,127,4
1,36,127,4
1,36,127,4
1,36,127,4
1,36,127,4
1,36,127,4
1,39,127,4
1,39,127,4
1,39,127,4
1,39,127,4
1,34,127,4
1,34,127,4
1,34,127,4
1,34,127,4
1,34,127,4
1,36,127,4
1,36,127,4
1,36,127,4
1,36,127,4
1,36,127,4
1,36,127,4
1,36,127,4
1,39,127,4
1,39,127,4
1,39,127,4
1,39,127,4
1,34,127,4
1,34,127,4
1,34,127,4
1,34,127,4
1,34,127,4
1,36,127,4
1,36,127,4
1,36,127,4
1,36,127,4
1,36,127,4
1,36,127,4
1,36,127,4
1,39,127,4
1,39,127,4
1,39,127,4
1,39,127,4
1,34,127,4
1,34,127,4
1,34,127,4
1,34,127,4
1,34,127,4
1,36,127,4
1,36,127,4
1,36,127,4
1,36,127,4
1,36,127,4
1,36,127,4
1,36,127,4
1,39,127,4
1,39,127,4
1,39,127,4
1,39,127,4
1,41,127,4
1,41,127,4
1,41,127,4
1,41,127,4
1,41,127,4
1,43,127,4
1,39,127,2500
1,39,127,4
1,41,127,964
1,31,117,1156
1,31,117,4
1,39,117,2692
1,41,117,964
1,43,117,1348
1,43,117,4
1,43,117,4
1,43,117,4
1,43,117,4
1,43,117,4
1,43,117,4
1,43,117,4
1,43,117,4
1,43,117,4
1,43,117,4
1,43,117,4
1,43,117,4
1,43,117,4
1,43,117,4
1,43,117,4
1,39,117,4
1,39,117,4
1,39,117,4
1,39,117,4
1,39,117,4
1,39,117,4
1,39,117,4
1,39,117,4
1,41,117,4
1,41,117,4
1,41,117,4
1,41,117,4
1,41,117,4
1,41,117,4
1,41,117,4
1,41,117,4
1,43,117,4
1,43,117,4
1,43,117,4
1,43,117,4
1,43,117,4
1,43,117,4
1,43,117,4
1,43,117,4
1,43,117,4
1,43,117,4
1,43,117,4
1,43,117,4
1,43,117,4
1,43,117,4
1,43,117,4
1,43,117,4
1,39,117,4
1,39,117,4
1,39,117,4
1,39,117,4
1,39,117,4
1,39,117,4
1,39,117,4
1,39,117,4
1,41,117,4
1,41,117,4
1,41,117,4
1,41,117,4
1,41,117,4
1,41,117,4
1,41,117,4
1,41,117,4
1,43,117,4
1,43,117,4
1,43,117,4
1,43,117,4
1,43,117,4
1,43,117,4
1,43,117,4
1,43,117,4
1,43,117,4
1,43,117,4
1,43,117,4
1,43,117,4
1,43,117,4
1,43,117,4
1,43,117,4
1,43,117,4
1,39,117,4
1,39,117,4
1,39,117,4
1,39,117,4
1,39,117,4
1,39,117,4
1,39,117,4
1,39,117,4
1,41,117,4
1,41,117,4
1,41,117,4
1,41,117,4
1,41,117,4
1,41,117,4
1,41,117,4
1,41,117,4
1,43,117,4
1,43,117,4
1,43,117,4
1,43,117,4
1,43,117,4
1,43,117,4
1,43,117,4
1,43,117,4
1,43,117,4
1,43,117,4
1,43,117,4
1,43,117,4
1,43,117,4
1,43,117,4
1,43,117,4
1,43,117,4
1,39,117,4
1,39,117,4
1,39,117,4
1,39,117,4
1,39,117,4
1,39,117,4
1,39,117,4
1,39,117,4
1,41,117,4
1,41,117,4
1,41,117,4
1,41,117,4
1,41,117,4
1,41,117,4
1,41,117,4
1,41,117,4
1,43,117,4
1,43,117,4
1,43,117,4
1,43,117,4
1,43,117,4
1,43,117,4
1,43,117,4
1,43,117,4
1,43,117,4
1,43,117,4
1,43,117,4
1,43,117,4
1,43,117,4
1,43,117,4
1,43,117,4
1,43,117,4
1,39,117,4
1,39,117,4
1,39,117,4
1,39,117,4
1,39,117,4
1,39,117,4
1,39,117,4
1,39,117,4
1,41,117,4
1,41,117,4
1,41,117,4
1,41,117,4
1,46,117,4
1,45,117,4
1,43,117,196
2,55,127,1536
2,57,100,4
2,58,100,4
2,55,100,4
2,57,127,4
2,58,127,4
2,55,100,4
2,57,127,4
2,58,127,4
2,51,127,4
2,53,100,4
2,55,100,4
2,51,100,4
2,53,100,4
2,55,127,4
2,53,100,4
2,58,127,4
2,57,127,4
2,55,127,4
2,57,100,4
2,58,100,4
2,55,100,4
2,57,127,4
2,58,127,4
2,55,100,4
2,57,127,4
2,58,127,4
2,51,127,4
2,53,100,4
2,55,100,4
2,51,100,4
2,53,100,4
2,55,127,4
2,53,100,4
2,58,127,4
2,57,127,4
2,91,100,27460
2,86,100,0
2,79,100,0
2,79,100,2120
2,86,100,0
2,91,100,0
2,91,100,196
2,86,100,0
2,79,100,0
2,79,100,2504
2,86,100,0
2,91,100,0
2,91,100,2120
2,86,100,0
2,79,100,0
2,79,100,196
2,86,100,0
2,91,100,0
2,91,100,27080
2,86,100,0
2,79,100,0
2,79,100,2120
2,86,100,0
2,91,100,0
2,91,100,196
2,86,100,0
2,79,100,0
2,79,100,2504
2,86,100,0
2,91,100,0
2,91,100,2120
2,86,100,0
2,79,100,0
2,93,100,196
2,88,100,0
2,81,100,0
2,55,127,24200
2,57,100,4
2,58,100,4
2,55,100,4
2,57,127,4
2,58,127,4
2,55,100,4
2,57,127,4
2,58,127,4
2,51,127,4
2,53,100,4
2,55,100,4
2,51,100,4
2,53,100,4
2,55,127,4
2,53,100,4
2,58,127,4
2,57,127,4
2,55,127,4
2,57,100,4
2,58,100,4
2,55,100,4
2,57,127,4
2,58,127,4
2,55,100,4
2,57,127,4
2,58,127,4
2,51,127,4
2,53,100,4
2,55,100,4
2,51,100,4
2,53,100,4
2,55,127,4
2,53,100,4
2,58,127,4
2,57,127,4
2,55,127,4
2,57,100,4
2,58,100,4
2,55,100,4
2,57,127,4
2,58,127,4
2,55,100,4
2,57,127,4
2,58,127,4
2,51,127,4
2,53,100,4
2,55,100,4
2,51,100,4
2,53,100,4
2,55,127,4
2,53,100,4
2,58,127,4
2,57,127,4
2,55,127,4
2,57,100,4
2,58,100,4
2,55,100,4
2,57,127,4
2,58,127,4
2,55,100,4
2,57,127,4
2,58,127,4
2,51,127,4
2,53,100,4
2,55,100,4
2,51,100,4
2,53,100,4
2,55,127,4
2,53,100,4
2,58,127,4
2,57,127,4
2,55,127,4
2,57,100,4
2,58,100,4
2,55,100,4
2,57,127,4
2,58,127,4
2,55,100,4
2,57,127,4
2,58,127,4
2,51,127,4
2,53,100,4
2,55,100,4
2,51,100,4
2,53,100,4
2,55,127,4
2,53,100,4
2,58,127,4
2,57,127,4
2,55,127,4
2,57,100,4
2,58,100,4
2,55,100,4
2,57,127,4
2,58,127,4
2,55,100,4
2,57,127,4
2,58,127,4
2,51,127,4
2,53,100,4
2,55,100,4
2,51,100,4
2,53,100,4
2,55,127,4
2,53,100,4
2,58,127,4
2,57,127,4
2,55,127,4
2,57,100,4
2,58,100,4
2,55,100,4
2,57,127,4
2,58,127,4
2,55,100,4
2,57,127,4
2,58,127,4
2,51,127,4
2,53,100,4
2,55,100,4
2,51,100,4
2,53,100,4
2,55,127,4
2,53,100,4
2,58,127,4
2,57,127,4
2,67,127,196
2,62,127,0
2,55,127,0
3,67,127,13824
3,62,127,0
3,55,127,0
3,67,127,4
3,62,127,0
3,55,127,0
3,55,127,100
3,62,127,0
3,67,127,0
3,70,127,100
3,65,127,0
3,58,127,0
3,70,127,4
3,58,127,0
3,65,127,0
3,58,127,100
3,65,127,0
3,70,127,0
3,65,127,100
3,57,127,0
3,53,127,0
3,55,127,8
3,62,127,0
3,67,127,0
3,67,127,4
3,62,127,0
3,55,127,0
3,67,127,4
3,62,127,0
3,55,127,0
3,55,127,100
3,62,127,0
3,67,127,0
3,70,127,100
3,65,127,0
3,58,127,0
3,70,127,4
3,58,127,0
3,65,127,0
3,58,127,100
3,65,127,0
3,70,127,0
3,65,127,100
3,57,127,0
3,53,127,0
3,55,127,8
3,62,127,0
3,67,127,0
3,75,127,4
3,70,127,0
3,63,127,0
3,63,127,4
3,70,127,0
3,75,127,0
3,70,127,4
3,65,127,0
3,58,127,0
3,58,127,4
3,65,127,0
3,70,127,0
3,70,127,8
3,65,127,0
3,58,127,0
3,58,127,8
3,65,127,0
3,70,127,0
3,75,127,4
3,70,127,0
3,63,127,0
3,63,127,4
3,70,127,0
3,75,127,0
3,74,127,4
3,69,127,0
3,62,127,0
3,62,110,4
3,69,110,0
3,74,110,0
3,74,120,4
3,69,120,0
3,62,120,0
3,62,127,4
3,69,127,0
3,74,127,0
3,74,127,4
3,69,127,0
3,62,127,0
3,62,127,4
3,69,127,0
3,74,127,0
3,55,127,1348
3,55,127,100
3,55,127,100
3,55,127,100
3,55,127,100
3,55,127,100
3,55,127,100
3,55,127,100
3,55,127,100
3,55,127,100
3,55,127,100
3,55,127,100
3,55,127,100
3,55,127,100
3,55,127,100
3,79,127,100
3,74,127,0
3,67,127,0
3,55,127,8
3,55,127,100
3,55,127,100
3,55,127,100
3,55,127,100
3,55,127,100
3,55,127,100
3,55,127,100
3,55,127,100
3,55,127,100
3,55,127,100
3,79,127,100
3,74,127,0
3,67,127,0
3,55,127,4
3,79,127,100
3,74,127,0
3,67,127,0
3,55,127,8
3,55,127,100
3,55,127,100
3,55,127,100
3,55,127,100
3,55,127,100
3,55,127,100
3,55,127,100
3,55,127,100
3,55,127,100
3,55,127,100
3,55,127,100
3,55,127,100
3,79,127,100
3,74,127,0
3,67,127,0
3,55,127,8
3,55,127,100
