track,note,velocity,time
1,33,89,16358
1,45,89,0
1,28,89,100
1,40,89,0
1,31,89,100
1,43,89,0
1,33,89,100
1,45,89,0
1,28,89,100
1,40,89,0
1,33,89,100
1,45,89,0
1,26,89,100
1,38,89,0
1,30,89,100
1,42,89,0
1,33,89,100
1,45,89,0
1,26,89,100
1,38,89,0
1,30,89,100
1,42,89,0
1,31,89,100
1,43,89,0
1,33,89,100
1,45,89,0
1,28,89,100
1,40,89,0
1,31,89,100
1,43,89,0
1,33,89,100
1,45,89,0
1,28,89,100
1,40,89,0
1,33,89,100
1,45,89,0
1,26,89,100
1,38,89,0
1,30,89,100
1,42,89,0
1,33,89,100
1,45,89,0
1,26,89,100
1,38,89,0
1,30,89,100
1,42,89,0
1,31,89,100
1,43,89,0
1,33,89,100
1,45,89,0
1,28,89,100
1,40,89,0
1,31,89,100
1,43,89,0
1,33,89,100
1,45,89,0
1,28,89,100
1,40,89,0
1,33,89,100
1,45,89,0
1,26,89,100
1,38,89,0
1,30,89,100
1,42,89,0
1,33,89,100
1,45,89,0
1,26,89,100
1,38,89,0
1,30,89,100
1,42,89,0
1,31,89,100
1,43,89,0
1,33,89,100
1,45,89,0
1,28,89,100
1,40,89,0
1,31,89,100
1,43,89,0
1,33,89,100
1,45,89,0
1,28,89,100
1,40,89,0
1,33,89,100
1,45,89,0
1,31,89,100
1,43,89,0
1,30,89,100
1,42,89,0
1,28,89,100
1,40,89,0
1,26,89,100
1,38,89,0
1,26,89,2884
1,38,89,0
1,30,89,100
1,42,89,0
1,33,89,100
1,45,89,0
1,26,89,100
1,38,89,0
1,30,89,100
1,42,89,0
1,33,89,100
1,45,89,0
1,28,89,100
1,40,89,0
1,31,89,100
1,43,89,0
1,33,89,100
1,45,89,0
1,28,89,100
1,40,89,0
1,31,89,100
1,43,89,0
1,33,89,100
1,45,89,0
1,28,89,100
1,40,89,0
1,31,89,100
1,43,89,0
1,33,89,100
1,45,89,0
1,28,89,100
1,40,89,0
1,31,89,100
1,43,89,0
1,33,89,100
1,45,89,0
1,26,89,100
1,38,89,0
1,30,89,100
1,42,89,0
1,33,89,100
1,45,89,0
1,26,89,100
1,38,89,0
1,30,89,100
1,42,89,0
1,33,89,100
1,45,89,0
1,26,89,100
1,38,89,0
1,30,89,100
1,42,89,0
1,33,89,100
1,45,89,0
1,26,89,100
1,38,89,0
1,30,89,100
1,42,89,0
1,33,89,100
1,45,89,0
1,31,89,100
1,43,89,0
1,26,89,100
1,38,89,0
1,28,89,100
1,40,89,0
1,31,89,100
1,43,89,0
1,26,89,100
1,38,89,0
1,31,89,100
1,43,89,0
1,26,89,100
1,38,89,0
1,30,89,100
1,42,89,0
1,33,89,100
1,45,89,0
1,31,89,100
1,43,89,0
1,30,89,100
1,42,89,0
1,28,89,100
1,40,89,0
1,26,89,100
1,38,89,0
1,33,89,4420
1,45,89,0
1,28,89,100
1,40,89,0
1,31,89,100
1,43,89,0
1,33,89,100
1,45,89,0
1,28,89,100
1,40,89,0
1,33,89,100
1,45,89,0
1,26,89,100
1,38,89,0
1,30,89,100
1,42,89,0
1,33,89,100
1,45,89,0
1,26,89,100
1,38,89,0
1,30,89,100
1,42,89,0
1,31,89,100
1,43,89,0
1,33,89,100
1,45,89,0
1,28,89,100
1,40,89,0
1,31,89,100
1,43,89,0
1,33,89,100
1,45,89,0
1,28,89,100
1,40,89,0
1,33,89,100
1,45,89,0
1,26,89,100
1,38,89,0
1,30,89,100
1,42,89,0
1,33,89,100
1,45,89,0
1,26,89,100
1,38,89,0
1,30,89,100
1,42,89,0
1,31,89,100
1,43,89,0
1,33,89,100
1,45,89,0
1,28,89,100
1,40,89,0
1,31,89,100
1,43,89,0
1,33,89,100
1,45,89,0
1,28,89,100
1,40,89,0
1,33,89,100
1,45,89,0
1,26,89,100
1,38,89,0
1,30,89,100
1,42,89,0
1,33,89,100
1,45,89,0
1,26,89,100
1,38,89,0
1,30,89,100
1,42,89,0
1,31,89,100
1,43,89,0
1,33,89,100
1,45,89,0
1,28,89,100
1,40,89,0
1,31,89,100
1,43,89,0
1,33,89,100
1,45,89,0
1,28,89,100
1,40,89,0
1,33,89,100
1,45,89,0
1,31,89,100
1,43,89,0
1,30,89,100
1,42,89,0
1,28,89,100
1,40,89,0
1,26,89,100
1,38,89,0
1,26,89,5956
1,38,89,0
1,30,89,100
1,42,89,0
1,33,89,100
1,45,89,0
1,26,89,100
1,38,89,0
1,30,89,100
1,42,89,0
1,33,89,100
1,45,89,0
1,28,89,100
1,40,89,0
1,31,89,100
1,43,89,0
1,33,89,100
1,45,89,0
1,28,89,100
1,40,89,0
1,31,89,100
1,43,89,0
1,33,89,100
1,45,89,0
1,28,89,100
1,40,89,0
1,31,89,100
1,43,89,0
1,33,89,100
1,45,89,0
1,28,89,100
1,40,89,0
1,31,89,100
1,43,89,0
1,33,89,100
1,45,89,0
1,26,89,100
1,38,89,0
1,30,89,100
1,42,89,0
1,33,89,100
1,45,89,0
1,26,89,100
1,38,89,0
1,30,89,100
1,42,89,0
1,33,89,100
1,45,89,0
1,26,89,100
1,38,89,0
1,30,89,100
1,42,89,0
1,33,89,100
1,45,89,0
1,26,89,100
1,38,89,0
1,30,89,100
1,42,89,0
1,33,89,100
1,45,89,0
1,31,89,100
1,43,89,0
1,26,89,100
1,38,89,0
1,28,89,100
1,40,89,0
1,31,89,100
1,43,89,0
1,26,89,100
1,38,89,0
1,31,89,100
1,43,89,0
1,26,89,100
1,38,89,0
1,30,89,100
1,42,89,0
1,33,89,100
1,45,89,0
1,31,89,100
1,43,89,0
1,30,89,100
1,42,89,0
1,28,89,100
1,40,89,0
1,26,89,100
1,38,89,0
1,33,89,4420
1,45,89,0
1,28,89,100
1,40,89,0
1,31,89,100
1,43,89,0
1,33,89,100
1,45,89,0
1,28,89,100
1,40,89,0
1,33,89,100
1,45,89,0
1,26,89,100
1,38,89,0
1,30,89,100
1,42,89,0
1,33,89,100
1,45,89,0
1,26,89,100
1,38,89,0
1,30,89,100
1,42,89,0
1,31,89,100
1,43,89,0
1,33,89,100
1,45,89,0
1,28,89,100
1,40,89,0
1,31,89,100
1,43,89,0
1,33,89,100
1,45,89,0
1,28,89,100
1,40,89,0
1,33,89,100
1,45,89,0
1,26,89,100
1,38,89,0
1,30,89,100
1,42,89,0
1,33,89,100
1,45,89,0
1,26,89,100
1,38,89,0
1,30,89,100
1,42,89,0
1,31,89,100
1,43,89,0
1,33,89,100
1,45,89,0
1,28,89,100
1,40,89,0
1,31,89,100
1,43,89,0
1,33,89,100
1,45,89,0
1,28,89,100
1,40,89,0
1,33,89,100
1,45,89,0
1,26,89,100
1,38,89,0
1,30,89,100
1,42,89,0
1,33,89,100
1,45,89,0
1,26,89,100
1,38,89,0
1,30,89,100
1,42,89,0
1,31,89,100
1,43,89,0
1,33,89,100
1,45,89,0
1,28,89,100
1,40,89,0
1,31,89,100
1,43,89,0
1,33,89,100
1,45,89,0
1,28,89,100
1,40,89,0
1,33,89,100
1,45,89,0
1,31,89,100
1,43,89,0
1,30,89,100
1,42,89,0
1,28,89,100
1,40,89,0
1,26,89,100
1,38,89,0
1,50,98,196
1,50,98,18388
1,33,89,340
1,45,89,0
1,28,89,100
1,40,89,0
1,31,89,100
1,43,89,0
1,33,89,100
1,45,89,0
1,28,89,100
1,40,89,0
1,33,89,100
1,45,89,0
1,26,89,100
1,38,89,0
1,30,89,100
1,42,89,0
1,33,89,100
1,45,89,0
1,26,89,100
1,38,89,0
1,30,89,100
1,42,89,0
1,31,89,100
1,43,89,0
1,33,89,100
1,45,89,0
1,28,89,100
1,40,89,0
1,31,89,100
1,43,89,0
1,33,89,100
1,45,89,0
1,28,89,100
1,40,89,0
1,33,89,100
1,45,89,0
1,26,89,100
1,38,89,0
1,30,89,100
1,42,89,0
1,33,89,100
1,45,89,0
1,26,89,100
1,38,89,0
1,30,89,100
1,42,89,0
1,31,89,100
1,43,89,0
1,33,89,100
1,45,89,0
1,28,89,100
1,40,89,0
1,31,89,100
1,43,89,0
1,33,89,100
1,45,89,0
1,28,89,100
1,40,89,0
1,33,89,100
1,45,89,0
1,26,89,100
1,38,89,0
1,30,89,100
1,42,89,0
1,33,89,100
1,45,89,0
1,26,89,100
1,38,89,0
1,30,89,100
1,42,89,0
1,31,89,100
1,43,89,0
1,33,89,100
1,45,89,0
1,28,89,100
1,40,89,0
1,31,89,100
1,43,89,0
1,33,89,100
1,45,89,0
1,28,89,100
1,40,89,0
1,33,89,100
1,45,89,0
1,31,89,100
1,43,89,0
1,30,89,100
1,42,89,0
1,28,89,100
1,40,89,0
1,26,89,100
1,38,89,0
1,26,89,2884
1,38,89,0
1,30,89,100
1,42,89,0
1,33,89,100
1,45,89,0
1,26,89,100
1,38,89,0
1,30,89,100
1,42,89,0
1,33,89,100
1,45,89,0
1,28,89,100
1,40,89,0
1,31,89,100
1,43,89,0
1,33,89,100
1,45,89,0
1,28,89,100
1,40,89,0
1,31,89,100
1,43,89,0
1,33,89,100
1,45,89,0
1,28,89,100
1,40,89,0
1,31,89,100
1,43,89,0
1,33,89,100
1,45,89,0
1,28,89,100
1,40,89,0
1,31,89,100
1,43,89,0
1,33,89,100
1,45,89,0
1,26,89,100
1,38,89,0
1,30,89,100
1,42,89,0
1,33,89,100
1,45,89,0
1,26,89,100
1,38,89,0
1,30,89,100
1,42,89,0
1,33,89,100
1,45,89,0
1,26,89,100
1,38,89,0
1,30,89,100
1,42,89,0
1,33,89,100
1,45,89,0
1,26,89,100
1,38,89,0
1,30,89,100
1,42,89,0
1,33,89,100
1,45,89,0
1,31,89,100
1,43,89,0
1,26,89,100
1,38,89,0
1,28,89,100
1,40,89,0
1,31,89,100
1,43,89,0
1,26,89,100
1,38,89,0
1,31,89,100
1,43,89,0
1,26,89,100
1,38,89,0
1,30,89,100
1,42,89,0
1,33,89,100
1,45,89,0
1,31,89,100
1,43,89,0
1,30,89,100
1,42,89,0
1,28,89,100
1,40,89,0
1,26,89,100
1,38,89,0
1,33,89,4420
1,45,89,0
1,28,89,100
1,40,89,0
1,31,89,100
1,43,89,0
1,33,89,100
1,45,89,0
1,28,89,100
1,40,89,0
1,33,89,100
1,45,89,0
1,26,89,100
1,38,89,0
1,30,89,100
1,42,89,0
1,33,89,100
1,45,89,0
1,26,89,100
1,38,89,0
1,30,89,100
1,42,89,0
1,31,89,100
1,43,89,0
1,33,89,100
1,45,89,0
1,28,89,100
1,40,89,0
1,31,89,100
1,43,89,0
1,33,89,100
1,45,89,0
1,28,89,100
1,40,89,0
1,33,89,100
1,45,89,0
1,26,89,100
1,38,89,0
1,30,89,100
1,42,89,0
1,33,89,100
1,45,89,0
1,26,89,100
1,38,89,0
1,30,89,100
1,42,89,0
1,31,89,100
1,43,89,0
1,33,89,100
1,45,89,0
1,28,89,100
1,40,89,0
1,31,89,100
1,43,89,0
1,33,89,100
1,45,89,0
1,28,89,100
1,40,89,0
1,33,89,100
1,45,89,0
1,26,89,100
1,38,89,0
1,30,89,100
1,42,89,0
1,33,89,100
1,45,89,0
1,26,89,100
1,38,89,0
1,30,89,100
1,42,89,0
1,31,89,100
1,43,89,0
1,33,89,100
1,45,89,0
1,28,89,100
1,40,89,0
1,31,89,100
1,43,89,0
1,33,89,100
1,45,89,0
1,28,89,100
1,40,89,0
1,33,89,100
1,45,89,0
1,31,89,100
1,43,89,0
1,30,89,100
1,42,89,0
1,28,89,100
1,40,89,0
1,26,89,100
1,38,89,0
1,50,98,196
1,49,96,4
1,48,96,16
1,47,96,12
1,46,96,12
1,45,95,12
1,44,95,12
1,43,93,12
1,42,90,12
1,41,86,12
1,40,81,12
1,39,76,12
1,38,70,12
1,37,63,12
1,36,54,12
2,57,73,3974
2,62,73,0
2,57,73,100
2,62,73,0
2,50,73,100
2,57,73,26
2,62,73,0
2,50,73,100
2,57,73,26
2,62,73,0
2,57,73,100
2,62,73,0
2,50,73,100
2,57,73,26
2,62,73,0
2,50,73,100
2,57,73,26
2,62,73,0
2,57,73,100
2,62,73,0
2,50,73,100
2,57,73,26
2,62,73,0
2,50,73,100
2,57,73,26
2,62,73,0
2,57,73,100
2,62,73,0
2,50,73,100
2,57,73,26
2,62,73,0
2,50,73,100
2,57,73,26
2,62,73,0
2,57,73,100
2,62,73,0
2,50,73,100
2,57,73,26
2,62,73,0
2,50,73,100
2,57,73,26
2,62,73,0
2,57,73,100
2,62,73,0
2,50,73,100
2,57,73,26
2,62,73,0
2,50,73,100
2,57,73,26
2,62,73,0
2,57,73,100
2,62,73,0
2,50,73,100
2,57,73,26
2,62,73,0
2,50,73,100
2,57,73,26
2,62,73,0
2,57,73,100
2,62,73,0
2,50,73,100
2,57,73,26
2,62,73,0
2,50,73,100
2,57,73,26
2,62,73,0
2,57,73,100
2,62,73,0
2,50,73,100
2,57,73,26
2,62,73,0
2,50,73,100
2,57,73,26
2,62,73,0
2,57,73,100
2,62,73,0
2,50,73,100
2,57,73,26
2,62,73,0
2,50,73,100
2,57,73,26
2,62,73,0
2,57,73,100
2,62,73,0
2,50,73,100
2,57,73,26
2,62,73,0
2,50,73,100
2,57,73,26
2,62,73,0
2,57,73,100
2,62,73,0
2,50,73,100
2,57,73,26
2,62,73,0
2,50,73,100
2,57,73,26
2,62,73,0
2,57,73,100
2,62,73,0
2,50,73,100
2,57,73,26
2,62,73,0
2,50,73,100
2,57,73,26
2,62,73,0
2,57,73,100
2,62,73,0
2,50,73,100
2,57,73,26
2,62,73,0
2,50,73,100
2,57,73,26
2,62,73,0
2,57,73,100
2,62,73,0
2,50,73,100
2,57,73,26
2,62,73,0
2,50,73,100
2,57,73,26
2,62,73,0
2,57,73,100
2,62,73,0
2,50,73,100
2,57,73,26
2,62,73,0
2,50,73,100
2,57,73,26
2,64,73,0
2,57,73,100
2,64,73,0
2,52,73,100
2,57,73,26
2,64,73,0
2,52,73,100
2,57,73,26
2,64,73,0
2,57,73,100
2,64,73,0
2,52,73,100
2,57,73,26
2,64,73,0
2,52,73,100
2,57,73,26
2,62,73,0
2,57,73,100
2,62,73,0
2,50,73,100
2,57,73,26
2,62,73,0
2,50,73,100
2,57,73,26
2,62,73,0
2,57,73,100
2,62,73,0
2,50,73,100
2,57,73,26
2,62,73,0
2,50,73,100
2,57,73,26
2,64,73,0
2,57,73,100
2,64,73,0
2,52,73,100
2,57,73,26
2,64,73,0
2,52,73,100
2,57,73,26
2,64,73,0
2,57,73,100
2,64,73,0
2,52,73,100
2,57,73,26
2,64,73,0
2,52,73,100
2,57,73,26
2,62,73,0
2,57,73,100
2,62,73,0
2,50,73,100
2,57,73,26
2,62,73,0
2,50,73,100
2,57,73,26
2,62,73,0
2,57,73,100
2,62,73,0
2,50,73,100
2,57,73,26
2,62,73,0
2,50,73,100
2,57,73,26
2,64,73,0
2,57,73,100
2,64,73,0
2,52,73,100
2,57,73,26
2,64,73,0
2,52,73,100
2,57,73,26
2,64,73,0
2,57,73,100
2,64,73,0
2,52,73,100
2,57,73,26
2,64,73,0
2,52,73,100
2,57,73,26
2,62,73,0
2,57,73,100
2,62,73,0
2,50,73,100
2,57,73,26
2,62,73,0
2,50,73,100
2,57,73,26
2,62,73,0
2,57,73,100
2,62,73,0
2,50,73,100
2,57,73,26
2,62,73,0
2,50,73,100
2,57,73,26
2,64,73,0
2,57,73,100
2,64,73,0
2,52,73,100
2,57,73,26
2,64,73,0
2,52,73,100
2,57,73,26
2,64,73,0
2,57,73,100
2,64,73,0
2,52,73,100
2,57,73,26
2,64,73,0
2,52,73,100
2,57,73,26
2,64,73,0
2,57,73,100
2,64,73,0
2,52,73,100
2,57,73,26
2,64,73,0
2,52,73,100
2,57,73,26
2,62,73,0
2,57,73,2980
2,62,73,0
2,57,73,100
2,62,73,0
2,50,73,100
2,57,73,26
2,62,73,0
2,50,73,100
2,57,73,26
2,62,73,0
2,57,73,100
2,62,73,0
2,50,73,100
2,57,73,26
2,62,73,0
