track,note,velocity,time
0,42,71,2638
0,35,101,4
0,63,75,2
0,57,81,6
0,62,81,0
0,42,63,36
0,46,57,76
0,60,60,6
0,62,75,0
0,69,51,0
0,75,54,0
0,57,81,6
0,62,81,0
0,42,63,36
0,62,75,6
0,42,71,70
0,35,101,4
0,64,75,2
0,50,81,6
0,42,63,8
0,60,60,6
0,75,54,0
0,57,81,6
0,62,85,0
0,46,57,40
0,69,46,6
0,42,63,70
0,60,60,6
0,50,85,6
0,42,71,8
0,35,101,4
0,63,75,2
0,75,54,0
0,57,81,6
0,62,81,0
0,42,63,36
0,46,57,76
0,60,60,6
0,62,75,0
0,69,51,0
0,57,81,6
0,62,81,0
0,42,63,36
0,62,75,6
0,75,54,0
0,42,71,70
0,35,101,4
0,64,75,2
0,50,81,6
0,42,63,8
0,60,60,4
0,57,81,8
0,62,81,0
0,46,57,40
0,43,84,4
0,69,46,2
0,75,54,0
0,42,63,70
0,43,79,4
0,60,60,2
0,50,81,6
0,42,71,8
0,35,101,4
0,63,75,2
0,57,81,6
0,62,81,0
0,42,63,36
0,46,57,76
0,60,60,6
0,62,75,0
0,69,51,0
0,75,54,0
0,57,81,6
0,62,81,0
0,42,63,36
0,62,75,6
0,42,71,70
0,35,101,4
0,64,75,2
0,50,81,6
0,42,63,8
0,60,60,6
0,75,54,0
0,57,81,6
0,62,85,0
0,46,57,40
0,69,46,6
0,42,63,70
0,60,60,6
0,50,85,6
0,42,71,8
0,35,101,4
0,63,75,2
0,75,54,0
0,57,81,6
0,62,81,0
0,42,63,36
0,46,57,76
0,60,60,6
0,62,75,0
0,69,51,0
0,57,81,6
0,62,81,0
0,42,63,36
0,62,75,6
0,75,54,0
0,42,71,70
0,35,101,4
0,64,75,2
0,50,81,6
0,42,63,8
0,60,60,6
0,57,81,6
0,62,81,0
0,46,57,40
0,43,84,4
0,69,46,2
0,75,54,0
0,42,63,70
0,43,79,4
0,60,60,2
0,50,81,6
0,42,71,8
0,35,101,4
0,63,75,2
0,57,81,6
0,62,81,0
0,42,63,36
0,46,57,76
0,60,60,6
0,62,75,0
0,69,51,0
0,75,54,0
0,57,81,6
0,62,81,0
0,42,63,36
0,62,75,6
0,42,71,70
0,35,101,4
0,64,75,2
0,50,81,6
0,42,63,8
0,60,60,6
0,75,54,0
0,57,81,6
0,62,85,0
0,46,57,40
0,69,46,6
0,42,63,70
0,60,60,6
0,50,85,6
0,42,71,8
0,35,101,4
0,63,75,2
0,75,54,0
0,57,81,6
0,62,81,0
0,42,63,36
0,46,57,76
0,60,60,6
0,62,75,0
0,69,51,0
0,57,81,6
0,62,81,0
0,42,63,36
0,62,75,6
0,75,54,0
0,42,71,70
0,35,101,4
0,64,75,2
0,50,81,6
0,42,63,8
0,60,60,6
0,57,81,6
0,62,81,0
0,46,57,40
0,43,84,4
0,69,46,2
0,75,54,0
0,42,63,70
0,43,79,4
0,60,60,2
0,50,81,6
0,42,71,8
0,35,101,4
0,63,75,2
0,57,81,6
0,62,81,0
0,42,63,36
0,46,57,76
0,60,60,6
0,62,75,0
0,69,51,0
0,75,54,0
0,57,81,6
0,62,81,0
0,42,63,36
0,62,75,6
0,42,71,70
0,35,101,4
0,64,75,2
0,50,81,6
0,42,63,8
0,60,60,6
0,75,54,0
0,57,81,6
0,62,85,0
0,46,57,40
0,69,46,6
0,42,63,70
0,60,60,6
0,50,85,6
0,42,71,8
0,35,101,4
0,63,75,2
0,75,54,0
0,57,81,6
0,62,81,0
0,42,63,36
0,46,57,76
0,60,60,6
0,62,75,0
0,69,51,0
0,57,81,6
0,62,81,0
0,42,63,36
0,62,75,6
0,75,54,0
0,42,71,70
0,35,101,4
0,64,75,2
0,50,81,6
0,42,63,8
0,60,60,6
0,57,81,6
0,62,81,0
0,46,57,40
0,43,84,4
0,69,46,2
0,75,54,0
0,42,63,70
0,43,79,4
0,60,60,2
0,50,81,6
0,42,71,8
0,35,101,4
0,63,75,2
0,57,81,6
0,62,81,0
0,42,63,36
0,46,57,76
0,60,60,6
0,62,75,0
0,69,51,0
0,75,54,0
0,57,81,6
0,62,81,0
0,42,63,36
0,62,75,6
0,42,71,70
0,35,101,4
0,64,75,2
0,50,81,6
0,42,63,8
0,60,60,6
0,75,54,0
0,57,81,6
0,62,85,0
0,46,57,40
0,69,46,6
0,42,63,70
0,60,60,6
0,50,85,6
0,42,71,8
0,35,101,4
0,63,75,2
0,75,54,0
0,57,81,6
0,62,81,0
0,42,63,36
0,46,57,76
0,60,60,6
0,62,75,0
0,69,51,0
0,57,81,6
0,62,81,0
0,42,63,36
0,62,75,6
0,75,54,0
0,42,71,70
0,35,101,4
0,64,75,2
0,50,81,6
0,42,63,8
0,60,60,6
0,57,81,6
0,62,81,0
0,46,57,40
0,43,84,4
0,69,46,2
0,75,54,0
0,42,63,70
0,43,79,4
0,60,60,2
0,50,81,6
0,42,71,8
0,35,101,4
0,63,75,2
0,57,81,6
0,62,81,0
0,42,63,36
0,46,57,76
0,60,60,6
0,62,75,0
0,69,51,0
0,75,54,0
0,57,81,6
0,62,81,0
0,42,63,36
0,62,75,6
0,42,71,70
0,35,101,4
0,64,75,2
0,50,81,6
0,42,63,8
0,60,60,6
0,75,54,0
0,57,81,6
0,62,85,0
0,46,57,40
0,69,46,6
0,42,63,70
0,60,60,6
0,50,85,6
0,42,71,8
0,35,101,4
0,63,75,2
0,75,54,0
0,57,81,6
0,62,81,0
0,42,63,36
0,46,57,76
0,60,60,6
0,62,75,0
0,69,51,0
0,57,81,6
0,62,81,0
0,42,63,36
0,62,75,6
0,75,54,0
0,42,71,70
0,35,101,4
0,64,75,2
0,50,81,6
0,42,63,8
0,60,60,6
0,57,81,6
0,62,81,0
0,46,57,40
0,43,84,4
0,69,46,2
0,75,54,0
0,42,63,70
0,43,79,4
0,60,60,2
0,50,81,6
0,42,71,8
0,35,101,4
0,63,75,2
0,57,81,6
0,62,81,0
0,42,63,36
0,46,57,76
0,60,60,6
0,62,75,0
0,75,54,0
0,69,51,2
0,57,81,4
0,62,81,0
0,42,63,36
0,62,75,6
0,42,71,70
0,35,101,4
0,64,75,2
0,50,81,6
0,42,63,8
0,60,60,6
0,75,54,0
0,57,81,6
0,62,85,0
0,46,57,40
0,69,46,6
0,42,63,70
0,60,60,6
0,50,85,6
0,42,71,8
0,35,101,4
0,63,75,2
0,75,54,0
0,57,81,6
0,62,81,0
0,42,63,36
0,46,57,76
0,60,60,6
0,62,75,0
0,69,51,0
0,57,81,6
0,62,81,0
0,42,63,36
0,62,75,6
0,75,54,0
0,42,71,70
0,35,101,4
0,64,75,2
0,50,81,6
0,42,63,8
0,60,60,6
0,57,81,6
0,62,81,0
0,46,57,40
0,43,84,4
0,69,46,2
0,75,54,0
0,42,63,70
0,43,79,4
0,60,60,0
0,50,81,8
0,42,71,8
0,35,101,4
0,38,103,0
0,63,75,2
0,57,81,6
0,62,81,0
0,42,63,36
0,38,103,4
0,46,57,72
0,60,60,6
0,62,75,0
0,69,51,0
0,75,54,0
0,57,81,6
0,62,81,0
0,42,63,36
0,38,103,4
0,62,75,2
0,42,71,70
0,35,101,4
0,38,103,0
0,64,75,2
0,50,81,6
0,42,63,8
0,60,60,6
0,75,54,0
0,57,81,6
0,62,85,0
0,46,57,40
0,38,103,4
0,69,46,2
0,42,63,70
0,38,103,4
0,60,60,2
0,50,85,6
0,42,71,8
0,35,101,4
0,63,75,2
0,75,54,0
0,57,81,6
0,62,81,0
0,42,63,36
0,38,103,4
0,46,57,72
0,38,103,4
0,60,60,2
0,62,75,0
0,69,51,0
0,57,81,6
0,62,81,0
0,42,63,36
0,62,75,6
0,75,54,0
0,42,71,70
0,35,101,4
0,38,103,0
0,64,75,2
0,50,81,6
0,42,63,8
0,38,103,4
0,60,60,2
0,57,81,6
0,62,81,0
0,46,57,40
0,38,103,4
0,69,46,2
0,75,54,0
0,42,63,70
0,38,103,4
0,60,60,2
0,50,81,6
0,42,71,8
0,35,101,4
0,63,75,2
0,45,97,2
0,57,81,4
0,57,86,0
0,64,81,0
0,69,70,0
0,42,63,16
0,73,70,4
0,76,70,0
0,46,57,26
0,60,60,6
0,62,75,0
0,69,51,0
0,75,54,0
0,57,81,6
0,57,86,0
0,64,81,0
0,42,63,8
0,62,75,6
0,40,97,2
0,69,68,2
0,52,86,2
0,42,71,2
0,35,101,4
0,38,103,0
0,39,81,2
0,64,75,0
0,73,68,4
0,76,70,0
0,52,81,2
0,42,63,0
0,60,60,6
0,75,54,0
0,55,86,6
0,57,81,0
0,64,85,0
0,46,57,28
0,69,46,2
0,43,95,2
0,57,86,4
0,42,63,30
0,38,93,0
0,60,60,2
0,52,85,6
0,55,86,0
0,42,71,8
0,35,101,0
0,63,75,2
0,75,54,0
0,45,97,2
0,57,81,4
0,57,86,0
0,69,70,0
0,64,81,2
0,42,63,16
0,73,64,4
0,76,68,0
0,46,57,26
0,60,60,6
0,62,75,0
0,69,51,0
0,57,81,6
0,57,86,0
0,64,81,0
0,42,63,8
0,62,75,6
0,75,54,0
0,40,95,2
0,69,68,2
0,52,86,2
0,42,71,70
0,35,101,4
0,38,103,0
0,64,75,0
0,39,81,2
0,73,64,2
0,76,66,0
0,52,81,2
0,42,63,0
0,60,60,6
0,55,86,6
0,57,81,0
0,64,81,0
0,46,57,28
0,43,84,0
0,75,54,2
0,45,95,2
0,69,46,0
0,73,68,2
0,76,66,0
0,57,86,2
0,42,63,22
0,60,60,2
0,52,81,6
0,55,86,0
0,42,71,8
0,35,101,0
0,63,75,2
0,38,97,2
0,50,86,4
0,57,81,0
0,62,81,0
0,69,70,0
0,42,63,16
0,74,70,4
0,78,70,0
0,46,57,26
0,60,60,6
0,62,75,0
0,69,51,0
0,75,54,0
0,50,86,6
0,57,81,0
0,62,81,0
0,42,63,8
0,62,75,6
0,42,97,2
0,69,68,2
0,54,86,2
0,42,71,2
0,35,101,4
0,38,103,0
0,39,81,2
0,64,75,0
0,74,68,4
0,78,70,0
0,50,81,2
0,42,63,0
0,60,60,6
0,75,54,0
0,57,81,6
0,57,86,0
0,62,85,0
0,46,57,28
0,69,46,2
0,45,95,2
0,59,86,4
0,42,63,30
0,38,93,0
0,60,60,2
0,50,85,6
0,57,86,0
0,42,71,8
0,35,101,0
0,63,75,2
0,75,54,0
0,38,97,2
0,50,86,4
0,57,81,0
0,69,70,0
0,62,81,2
0,42,63,16
0,74,64,4
0,78,68,0
0,46,57,26
0,60,60,6
0,62,75,0
0,69,51,0
0,50,86,6
0,57,81,0
0,62,81,0
0,42,63,8
0,62,75,6
0,75,54,0
0,42,95,2
0,69,68,2
0,54,86,2
0,42,71,70
0,35,101,4
0,38,103,0
0,39,81,2
0,64,75,0
0,74,64,2
0,78,66,0
0,50,81,2
0,42,63,0
0,60,60,6
0,57,81,6
0,57,86,0
0,62,81,0
0,46,57,28
0,43,84,0
0,75,54,2
0,45,95,2
0,69,46,0
0,74,68,2
0,78,66,0
0,59,86,2
0,42,63,22
0,60,60,2
0,50,81,6
0,57,86,0
0,42,71,8
0,35,101,0
0,63,75,2
0,45,97,2
0,57,81,4
0,57,86,0
0,64,81,0
0,69,70,0
0,42,63,16
0,73,70,4
0,76,70,0
0,46,57,26
0,60,60,6
0,62,75,0
0,69,51,0
0,75,54,0
0,57,81,6
0,57,86,0
0,64,81,0
0,42,63,8
0,62,75,6
0,40,97,2
0,69,68,2
0,52,86,2
0,42,71,2
0,35,101,4
0,38,103,0
0,39,81,2
0,64,75,0
0,73,68,4
0,76,70,0
0,52,81,2
0,42,63,0
0,60,60,6
0,75,54,0
0,55,86,6
0,57,81,0
0,64,85,2
0,46,57,28
0,69,46,2
0,43,95,2
0,57,86,4
0,42,63,30
0,38,93,0
0,60,60,2
0,52,85,6
0,55,86,0
0,42,71,8
0,35,101,0
0,63,75,2
0,75,54,0
0,45,97,4
0,57,81,2
0,57,86,0
0,64,81,0
0,69,70,0
0,42,63,16
0,73,64,4
0,76,68,0
0,46,57,26
0,60,60,6
0,62,75,0
0,69,51,0
0,57,81,6
0,57,86,0
0,64,81,0
0,42,63,8
0,62,75,6
0,75,54,0
0,40,95,2
0,69,68,2
0,52,86,2
0,42,71,70
0,35,101,4
0,38,103,0
0,39,81,2
0,64,75,0
0,73,64,2
0,76,66,0
0,52,81,2
0,42,63,0
0,60,60,6
0,55,86,6
0,57,81,0
0,64,81,0
0,46,57,28
0,43,84,0
0,75,54,2
0,45,95,2
0,69,46,0
0,73,68,2
0,76,66,0
0,57,86,2
0,42,63,22
0,60,60,2
0,52,81,6
0,55,86,0
0,42,71,8
0,35,101,0
0,63,75,2
0,38,97,2
0,50,86,4
0,57,81,0
0,62,81,0
0,69,70,0
0,42,63,16
0,74,70,4
0,78,70,0
0,46,57,26
0,60,60,6
0,62,75,0
0,69,51,0
0,75,54,0
0,50,86,6
0,57,81,0
0,62,81,0
0,42,63,8
0,62,75,6
0,42,97,2
0,69,68,2
0,54,86,2
0,42,71,2
0,35,101,4
0,38,103,0
0,39,81,2
0,64,75,0
0,74,68,4
0,78,70,0
0,50,81,2
0,42,63,0
0,60,60,6
0,75,54,0
0,57,81,6
0,57,86,0
0,62,85,0
0,46,57,28
0,69,46,2
0,45,95,2
0,59,86,4
0,42,63,30
0,38,93,0
0,60,60,2
0,50,85,6
0,57,86,0
0,42,71,8
0,35,101,0
0,63,75,2
0,75,54,0
0,38,97,4
0,50,86,2
0,57,81,0
0,62,81,0
0,69,70,0
0,42,63,16
0,38,103,4
0,74,64,4
0,78,68,0
0,46,57,26
0,60,60,6
0,62,75,0
0,69,51,0
0,57,81,6
0,62,81,0
0,42,63,36
0,38,93,4
0,62,75,2
0,75,54,0
0,69,68,2
0,42,71,68
0,35,101,4
0,38,103,0
0,39,81,2
0,64,75,0
0,74,64,2
0,78,66,0
0,50,81,2
0,42,63,8
0,60,60,6
0,57,81,6
0,62,81,0
0,46,57,40
0,43,84,4
0,69,46,2
0,75,54,0
0,74,68,4
0,78,66,0
0,42,63,22
0,60,60,6
0,50,81,6
0,42,71,8
0,35,101,4
0,63,75,2
0,45,97,2
0,57,81,4
0,57,86,0
0,69,70,0
0,64,81,2
0,42,63,16
0,73,70,4
0,76,70,0
0,46,57,26
0,60,60,6
0,62,75,0
0,69,51,0
0,75,54,0
0,57,81,6
0,57,86,0
0,64,81,2
0,42,63,8
0,62,75,6
0,40,97,2
0,69,68,2
0,52,86,2
0,42,71,2
0,35,101,4
0,38,103,0
0,39,81,2
0,64,75,0
0,73,68,4
0,76,70,0
0,52,81,2
0,42,63,0
0,60,60,6
0,75,54,0
0,55,86,6
0,57,81,0
0,64,85,0
0,46,57,28
0,69,46,2
0,43,95,2
0,57,86,4
0,42,63,30
0,38,93,0
0,60,60,2
0,52,85,6
0,55,86,0
0,42,71,8
0,35,101,0
0,63,75,2
0,75,54,0
0,45,97,4
0,57,81,2
0,57,86,0
0,64,81,0
0,69,70,0
0,42,63,16
0,73,64,4
0,76,68,0
0,46,57,26
0,60,60,6
0,62,75,0
0,69,51,0
0,57,81,6
0,57,86,0
0,64,81,0
0,42,63,8
0,62,75,6
0,75,54,0
0,40,95,2
0,69,68,2
0,52,86,2
0,42,71,70
0,35,101,4
0,38,103,0
0,39,81,2
0,64,75,0
0,73,64,2
0,76,66,0
0,52,81,2
0,42,63,0
0,60,60,6
0,55,86,6
0,57,81,0
0,64,81,0
0,46,57,28
0,43,84,0
0,75,54,2
0,45,95,2
0,69,46,0
0,73,68,2
0,76,66,0
0,57,86,2
0,42,63,22
0,60,60,2
0,52,81,6
0,55,86,0
0,42,71,8
0,35,101,0
0,63,75,2
0,38,97,2
0,50,86,4
0,57,81,0
0,62,81,0
0,69,70,0
0,42,63,16
0,74,70,4
0,78,70,0
0,46,57,26
0,60,60,6
0,62,75,0
0,69,51,0
0,75,54,0
0,50,86,6
0,57,81,0
0,62,81,2
0,42,63,8
0,62,75,6
0,42,97,2
