track,note,velocity,time
0,66,71,455
0,71,64,4
0,62,56,1
0,43,56,138
0,50,65,9
0,66,0,28
0,54,59,9
0,71,0,8
0,62,0,10
0,59,61,10
0,62,61,31
0,43,0,3
0,50,0,21
0,66,69,6
0,54,0,9
0,71,68,28
0,74,58,32
0,59,0,3
0,62,0,19
0,78,72,7
0,66,0,10
0,83,48,29
0,71,0,19
0,86,61,12
0,74,0,27
0,90,66,14
0,78,0,17
0,95,71,24
0,98,66,45
0,83,0,12
0,102,62,38
0,86,0,6
0,107,77,45
0,90,0,3
0,95,0,5
0,98,0,368
0,62,71,11
0,102,0,23
0,62,73,24
0,72,86,50
0,107,0,15
0,62,0,25
0,71,74,15
0,62,0,30
0,72,0,22
0,69,74,5
0,71,0,21
0,69,0,34
0,67,54,0
0,67,0,9
0,62,48,48
0,65,56,17
0,70,76,17
0,43,61,14
0,50,59,6
0,72,67,5
0,62,0,11
0,65,0,27
0,70,0,4
0,53,71,1
0,43,0,18
0,50,0,7
0,70,83,17
0,72,0,22
0,53,0,77
0,62,46,10
0,65,40,59
0,43,45,26
0,36,71,56
0,70,0,4
0,43,66,34
0,62,0,13
0,65,0,9
0,48,65,11
0,43,0,8
0,36,0,22
0,43,0,9
0,52,79,0
0,48,0,11
0,55,72,30
0,58,81,34
0,61,72,26
0,64,69,28
0,52,0,3
0,69,79,26
0,55,0,10
0,58,0,25
0,58,71,30
0,61,0,27
0,64,0,3
0,69,0,9
0,58,0,8
0,67,69,8
0,48,69,57
0,60,69,13
0,67,0,1
0,41,66,1
0,48,0,5
0,69,81,29
0,60,0,17
0,41,0,10
0,69,0,12
0,41,54,16
0,69,69,63
0,60,63,2
0,41,0,2
0,62,58,2
0,50,61,38
0,57,26,51
0,41,44,45
0,69,0,24
0,60,0,9
0,62,0,2
0,48,60,1
0,50,0,3
0,52,44,41
0,57,62,3
0,60,40,38
0,57,0,15
0,64,42,9
0,41,0,16
0,48,0,5
0,52,0,9
0,60,82,192
0,65,74,53
0,57,0,8
0,41,46,27
0,60,0,6
0,64,0,2
0,70,81,16
0,60,0,38
0,48,68,1
0,69,82,34
0,65,0,7
0,53,65,29
0,41,0,24
0,65,75,15
0,70,0,3
0,48,0,6
0,69,0,3
0,53,0,10
0,48,59,35
0,65,0,18
0,56,79,18
0,68,72,0
0,63,70,3
0,60,66,0
0,48,0,18
0,41,63,12
0,44,54,59
0,48,73,38
0,56,0,28
0,51,70,12
0,68,0,27
0,56,79,4
0,63,0,15
0,60,0,5
0,41,0,6
0,44,0,1
0,48,0,1
0,60,63,17
0,63,61,51
0,51,0,19
0,65,66,40
0,56,0,13
0,46,68,34
0,60,0,3
0,63,0,13
0,56,61,16
0,58,66,54
0,62,57,24
0,65,47,72
0,65,0,1
0,46,0,3
0,56,0,83
0,58,53,5
0,66,53,94
0,58,0,16
0,62,0,15
0,65,0,7
0,58,0,104
0,66,0,18
0,39,69,301
0,55,77,4
0,67,72,1
0,62,74,1
0,39,0,4
0,55,0,5
0,67,0,10
0,55,62,28
0,62,0,12
0,62,65,49
0,67,50,3
0,55,42,1
0,55,0,5
0,62,0,3
0,67,0,0
0,67,74,49
0,55,69,0
0,60,64,1
0,55,0,20
0,67,0,4
0,46,47,26
0,55,0,32
0,55,56,7
0,60,30,5
0,34,60,50
0,60,0,13
0,46,0,35
0,46,59,14
0,55,0,20
0,60,0,9
0,34,0,15
0,39,59,8
0,55,57,40
0,46,0,15
0,60,67,38
0,55,37,3
0,39,0,4
0,55,0,3
0,60,0,2
0,46,68,39
0,63,67,3
0,60,30,3
0,55,0,7
0,46,0,1
0,63,0,26
0,51,74,15
0,67,77,3
0,55,74,0
0,60,72,2
0,60,0,14
0,51,0,1
0,67,0,9
0,55,0,9
0,65,72,20
0,55,48,4
0,60,40,1
0,60,0,10
0,65,0,1
0,55,0,19
0,46,71,22
0,63,68,1
0,60,0,11
0,46,0,1
0,63,0,7
0,63,82,7
0,57,80,2
0,67,76,1
0,48,71,1
0,60,66,0
0,63,0,7
0,57,0,2
0,67,0,8
0,48,0,15
0,41,58,24
0,57,78,4
0,63,66,1
0,60,58,3
0,60,0,4
0,41,0,4
0,57,0,2
0,48,61,35
0,63,0,24
0,60,0,12
0,57,54,27
0,48,0,9
0,63,59,53
0,57,57,1
0,60,55,1
0,57,0,7
0,63,0,2
0,57,0,5
0,36,74,44
0,63,69,1
0,60,67,1
0,57,74,0
0,60,0,7
0,36,0,1
0,63,0,10
0,60,0,11
0,39,63,25
0,57,0,34
0,57,66,0
0,63,63,2
0,40,52,3
0,60,54,3
0,39,0,6
0,57,0,4
0,63,0,6
0,41,68,5
0,40,0,5
0,57,71,17
0,60,0,9
0,41,0,0
0,60,76,49
0,57,67,3
0,57,0,9
0,60,0,11
0,57,0,20
0,63,79,14
0,63,0,27
0,41,86,21
0,60,69,3
0,57,82,1
0,67,75,0
0,41,0,15
0,60,0,5
0,57,0,15
0,67,0,18
0,65,76,10
0,57,82,3
0,60,57,1
0,65,0,10
0,57,0,8
0,44,81,31
0,60,0,35
0,44,0,18
0,63,87,5
0,45,78,3
0,63,0,24
0,45,0,5
0,67,77,1
0,62,74,0
0,56,81,1
0,46,87,2
0,67,0,66
0,62,0,11
0,46,57,35
0,56,0,7
0,46,0,29
0,56,65,28
0,60,66,2
0,46,82,5
0,46,0,45
0,56,0,43
0,60,0,4
0,46,76,23
0,46,0,24
0,60,69,35
0,56,57,3
0,62,54,12
0,46,0,11
0,60,0,0
0,46,76,34
0,56,0,21
0,34,83,32
0,62,0,13
0,46,0,39
0,56,74,3
0,60,66,45
0,34,0,35
0,46,62,18
0,63,68,2
0,56,0,14
0,60,0,2
0,46,0,14
0,63,0,2
0,56,70,24
0,67,63,2
0,34,75,1
0,60,59,0
0,56,0,17
0,67,0,5
0,34,0,13
0,56,86,32
0,60,72,2
0,65,74,1
0,60,0,45
0,56,0,6
0,46,77,0
0,60,0,14
0,65,0,8
0,46,0,16
0,63,74,7
0,46,77,29
0,63,0,10
0,46,0,13
0,51,74,15
0,62,67,2
0,55,64,1
0,67,67,1
0,39,69,0
0,51,0,15
0,51,69,39
0,62,0,1
0,55,0,12
0,67,0,11
0,55,66,3
0,39,0,13
0,51,0,3
0,62,65,7
0,55,0,11
0,67,73,14
0,62,0,3
0,67,0,6
0,52,75,24
0,40,68,0
0,68,88,1
0,56,94,3
0,63,83,2
0,52,0,62
0,40,0,10
0,68,0,3
0,52,81,5
0,56,0,15
0,63,0,13
0,56,71,1
0,52,0,14
0,63,65,7
0,68,70,11
0,56,0,4
0,63,0,11
0,68,0,6
0,63,44,22
0,57,87,2
0,64,88,2
0,53,75,0
0,41,69,1
0,69,82,1
0,63,0,70
0,57,0,3
0,53,66,7
0,64,0,9
0,53,0,1
0,41,0,2
0,69,0,4
0,53,0,4
0,56,78,90
0,68,68,0
0,63,69,1
0,40,64,3
0,52,65,1
0,56,0,31
0,68,0,3
0,52,76,61
0,56,56,4
0,63,0,7
0,40,0,1
0,52,0,3
0,52,0,5
0,56,0,0
0,46,69,42
0,46,0,27
0,39,71,4
0,55,74,4
0,67,67,1
0,62,63,2
0,39,0,7
0,55,0,2
0,67,0,3
0,55,60,45
0,62,0,10
0,62,65,47
0,67,60,2
0,55,61,0
0,55,0,6
0,62,0,3
0,67,0,0
0,55,74,45
0,67,74,1
0,60,60,3
0,55,0,9
0,55,0,11
0,46,52,9
0,67,0,30
0,55,64,32
0,60,54,2
0,60,0,7
0,46,0,1
0,55,0,26
0,34,67,19
0,60,0,43
0,46,70,9
0,60,47,5
0,34,0,8
0,46,0,7
0,39,67,32
0,55,50,37
0,60,0,13
0,60,59,46
0,39,0,10
0,55,0,2
0,46,62,42
0,63,67,3
0,55,36,4
0,60,0,9
0,46,0,6
0,63,0,17
0,51,77,18
0,60,73,1
0,67,75,0
0,55,66,2
0,55,0,9
0,51,0,6
0,60,0,5
0,67,0,7
0,60,74,30
0,65,77,1
0,55,64,3
0,55,0,21
0,60,0,1
0,65,0,28
0,63,71,1
0,46,70,1
0,55,0,10
0,63,0,11
0,46,0,5
0,48,66,8
0,67,77,1
0,60,65,1
0,57,66,2
0,63,71,0
0,48,0,7
0,67,0,8
0,60,0,1
0,57,0,14
0,41,66,25
0,57,75,100
0,63,69,1
0,60,63,1
0,63,0,7
0,41,0,1
0,57,0,3
0,48,71,43
0,63,0,17
0,60,0,8
0,57,68,100
0,48,0,8
0,36,78,48
0,57,82,3
0,60,66,0
0,63,72,2
0,57,0,5
0,36,0,1
0,57,0,7
0,60,0,13
0,39,80,32
0,57,78,26
0,63,71,4
0,63,0,2
0,60,62,0
0,39,0,9
0,57,0,7
0,41,82,2
0,63,0,8
0,57,74,51
0,60,0,10
0,41,0,5
0,60,77,35
0,57,32,10
0,57,0,8
0,60,0,6
0,57,0,10
0,41,73,11
0,63,84,7
0,57,42,7
0,60,40,1
0,41,0,7
0,63,0,1
0,57,0,0
0,60,0,12
0,57,92,26
0,67,83,0
0,60,78,1
0,41,59,2
0,40,48,4
0,57,0,8
0,67,0,4
0,60,0,12
0,41,0,6
0,60,74,22
0,57,86,1
0,65,80,1
0,40,0,22
0,60,0,6
0,57,0,4
0,44,85,16
0,57,57,14
0,65,0,12
0,44,0,5
0,57,0,22
0,63,77,10
0,45,80,1
0,63,0,26
0,45,0,2
0,56,81,11
0,63,66,1
0,67,61,1
0,46,81,4
0,56,0,58
0,63,0,13
0,46,68,24
0,67,0,12
0,46,0,16
0,62,70,33
0,56,77,2
0,46,74,2
0,46,0,4
0,62,0,25
0,56,0,40
0,46,81,39
0,56,77,57
0,60,70,1
0,46,0,30
0,46,69,33
0,46,0,10
0,46,86,44
0,56,0,9
0,60,0,38
0,56,81,4
0,46,0,12
0,60,72,40
0,46,0,35
0,62,66,20
0,46,76,6
0,56,0,6
0,60,0,1
0,62,0,8
0,46,0,8
0,56,78,30
0,67,68,1
0,60,66,2
0,46,77,2
0,56,0,26
0,67,0,2
0,60,0,1
0,56,91,36
0,65,83,1
0,60,74,3
0,46,0,13
0,56,0,26
0,46,88,2
0,65,0,4
0,60,0,19
0,46,0,15
0,63,75,16
0,46,68,19
0,63,0,25
0,46,0,4
0,55,80,2
0,67,76,2
0,62,74,0
0,39,79,0
0,51,82,2
0,55,0,10
0,67,0,56
0,51,84,6
0,62,0,5
0,39,0,10
0,55,67,10
0,51,0,18
0,62,56,6
0,51,0,4
0,55,0,5
0,67,77,13
0,62,0,1
0,67,0,13
0,40,77,26
0,52,73,2
0,68,94,1
0,56,92,1
0,63,78,3
0,40,0,59
0,52,0,51
0,52,74,6
0,68,0,1
0,56,0,5
0,56,71,18
0,63,0,11
0,63,72,5
0,52,0,13
0,56,0,3
0,68,81,2
0,63,0,13
0,68,0,6
0,64,90,23
0,57,97,1
0,69,86,0
0,41,69,1
0,53,74,2
0,64,0,69
0,53,81,46
0,57,0,1
0,69,0,10
0,41,0,2
0,53,0,12
0,53,0,9
0,49,66,20
0,49,0,22
0,58,93,6
0,65,82,0
0,70,82,1
0,54,89,4
0,42,79,0
0,58,0,51
0,65,0,19
0,54,88,36
0,58,71,4
0,70,0,4
0,54,0,14
0,42,0,1
0,54,0,3
0,58,0,7
0,50,80,28
0,50,0,39
0,62,77,13
0,66,80,1
0,59,85,2
0,43,77,0
0,71,75,2
0,62,0,65
0,66,0,4
0,59,0,1
0,66,54,42
0,59,58,2
0,62,54,2
0,43,0,28
0,71,0,3
0,66,0,5
0,50,71,12
0,59,0,42
0,59,57,18
0,64,55,1
0,62,51,0
0,62,0,46
0,50,0,1
0,59,0,1
0,38,69,16
0,64,0,6
0,62,0,40
0,50,66,14
0,38,0,9
0,50,80,4
0,62,67,0
0,59,73,2
0,66,63,0
0,50,0,6
0,50,0,10
0,62,0,11
0,59,0,0
0,66,0,2
0,43,80,8
0,43,0,26
0,50,82,87
0,62,84,0
0,50,0,21
0,55,73,7
0,62,0,1
0,67,64,2
0,55,0,16
0,67,0,22
0,72,73,12
0,60,78,5
0,72,0,43
0,60,0,5
0,59,65,3
0,71,59,7
0,59,0,43
0,71,0,2
0,57,82,5
0,69,60,0
0,57,0,8
0,67,69,45
0,69,0,9
0,67,0,2
0,50,71,1
0,50,0,23
0,62,67,18
0,65,65,1
0,70,70,0
0,43,71,4
0,62,0,48
0,65,0,0
0,70,0,10
0,72,69,6
0,43,0,29
0,50,73,25
0,72,0,55
0,65,79,1
0,62,71,1
0,70,82,1
0,53,60,0
0,50,0,55
0,65,0,48
0,50,74,6
0,62,0,10
0,70,0,12
0,62,58,34
0,43,66,15
0,53,0,22
0,36,79,42
0,50,0,13
0,62,0,1
0,43,0,6
0,43,65,22
0,36,0,41
0,43,0,8
0,48,69,17
0,48,0,8
0,52,81,52
0,52,0,53
0,61,81,1
0,69,84,1
0,64,80,2
0,55,80,0
0,61,0,47
0,69,0,7
0,52,79,7
0,64,0,3
0,55,0,14
0,52,0,15
0,67,75,18
0,61,84,0
0,58,81,3
0,67,0,14
0,61,0,13
0,58,0,6
0,48,77,25
0,48,0,26
0,41,71,11
0,60,74,4
0,41,0,44
0,69,71,17
0,60,0,1
0,48,69,37
0,69,0,41
0,62,69,6
0,60,69,0
0,50,71,2
0,69,73,0
0,57,70,2
0,48,0,11
0,62,0,38
0,50,70,8
0,60,0,55
0,57,61,8
0,50,0,22
0,41,74,35
0,69,0,22
0,52,71,0
0,57,0,8
0,50,0,8
0,57,0,10
0,48,55,23
0,41,0,5
0,60,77,52
0,65,71,53
0,52,62,3
0,52,0,14
0,48,0,4
0,60,0,4
0,65,0,19
0,65,29,9
0,60,48,5
0,70,81,1
0,53,72,2
0,52,0,32
0,65,0,11
0,69,79,0
0,60,0,2
0,53,64,41
0,70,0,35
0,65,77,16
0,48,68,10
0,53,0,1
0,69,0,2
0,53,0,6
0,65,0,3
0,48,0,35
0,41,67,2
0,56,74,34
0,63,74,2
0,68,69,0
0,60,64,2
0,48,62,112
0,41,0,24
0,56,0,18
0,51,63,3
0,48,10,2
0,63,0,16
0,68,0,21
0,56,53,16
0,60,0,6
0,48,0,7
0,51,0,6
0,60,51,47
0,46,77,52
0,63,56,4
0,48,0,20
0,34,78,29
0,56,0,10
0,60,0,38
0,56,74,15
0,46,0,7
0,60,62,49
0,63,0,24
0,65,67,14
0,34,0,22
0,56,0,15
0,46,72,24
0,60,0,16
0,65,0,17
0,56,79,24
0,46,0,42
0,56,0,17
0,46,79,0
0,66,77,2
0,56,42,5
0,46,0,9
0,66,0,3
0,56,0,9
0,46,76,32
0,46,0,32
0,39,69,20
0,62,66,4
0,55,63,1
0,67,49,3
0,39,0,6
0,62,0,4
0,55,0,6
0,55,64,39
0,67,0,19
0,55,54,41
0,62,62,1
0,67,53,1
0,55,0,10
0,55,0,1
0,62,0,0
0,55,68,43
0,67,69,0
0,60,61,3
0,67,0,26
0,55,0,9
0,46,41,16
0,67,0,23
0,55,61,33
0,60,61,0
0,60,0,9
0,46,0,6
0,55,0,6
0,34,61,35
0,60,0,44
0,55,60,10
0,60,57,1
0,46,71,1
0,34,0,7
0,55,0,3
0,60,0,12
0,39,62,33
0,55,72,48
0,46,0,8
0,55,68,47
0,60,71,1
0,39,0,8
0,55,0,0
0,55,0,8
0,55,66,38
0,63,69,1
0,46,67,0
0,60,58,1
0,60,0,6
0,55,0,2
0,63,0,7
0,46,0,20
0,67,78,20
0,60,70,0
0,55,74,2
0,51,72,2
0,60,0,6
0,67,0,1
0,60,0,6
0,55,0,10
0,60,80,35
0,65,84,1
0,55,70,1
0,51,0,7
0,60,0,1
0,65,0,11
0,51,84,40
0,55,0,9
0,51,0,19
0,63,84,28
0,48,69,3
0,63,0,15
0,48,0,6
0,41,68,7
0,67,82,4
0,57,84,0
0,63,70,0
0,60,66,2
0,41,0,7
0,67,0,3
0,57,0,4
0,63,79,66
0,60,58,3
0,57,59,1
0,63,0,7
0,60,0,1
0,63,0,4
