track,note,velocity,time
1,32,127,11039
1,32,0,562
1,32,127,158
1,32,0,222
1,34,127,18
1,34,0,82
1,36,127,158
1,36,0,94
1,37,127,146
1,37,0,118
1,39,127,122
1,39,0,702
1,39,127,258
1,39,0,228
1,46,127,12
1,39,127,240
1,46,0,18
1,39,0,318
1,41,127,144
1,41,0,742
1,30,127,218
1,42,127,480
1,30,0,6
1,30,127,234
1,42,0,2
1,30,0,158
1,37,127,80
1,37,0,788
1,40,127,172
1,40,0,184
1,42,127,296
1,42,0,372
1,32,127,348
1,32,0,214
1,32,127,26
1,32,0,256
1,32,127,224
1,32,0,334
1,32,127,146
1,32,0,234
1,44,127,6
1,44,0,222
1,39,127,18
1,32,127,240
1,39,0,16
1,32,0,210
1,32,127,14
1,32,0,246
1,32,127,234
1,32,0,300
1,32,127,180
1,39,127,240
1,32,0,8
1,44,127,232
1,39,0,4
1,44,0,204
1,32,127,32
1,32,0,214
1,32,127,26
1,32,0,266
1,32,127,214
1,32,0,346
1,32,127,134
1,44,127,240
1,32,0,18
1,44,0,204
1,39,127,18
1,39,0,224
1,32,127,16
1,32,0,208
1,32,127,32
1,32,0,320
1,32,127,160
1,32,0,456
1,34,127,24
1,36,127,240
1,34,0,16
1,36,0,152
1,37,127,72
1,37,0,448
1,37,127,32
1,37,0,242
1,37,127,238
1,37,0,330
1,37,127,150
1,37,0,228
1,41,127,12
1,41,0,238
1,44,127,2
1,44,0,236
1,37,127,4
1,37,0,184
1,37,127,56
1,37,0,270
1,37,127,210
1,37,0,384
1,37,127,96
1,37,0,236
1,41,127,4
1,41,0,220
1,44,127,20
1,44,0,212
1,32,127,28
1,32,0,180
1,32,127,60
1,32,0,334
1,32,127,146
1,32,0,372
1,32,127,108
1,44,127,240
1,32,0,6
1,44,0,220
1,39,127,14
1,32,127,240
1,39,0,6
1,32,0,208
1,32,127,26
1,32,0,260
1,32,127,220
1,32,0,434
1,32,127,46
1,32,0,232
1,39,127,8
1,39,0,234
1,44,127,6
1,44,0,200
1,41,127,40
1,29,127,720
1,41,0,22
1,29,0,216
1,41,127,2
1,41,0,82
1,41,127,158
1,29,127,240
1,41,0,42
1,29,0,172
1,41,127,26
1,30,127,240
1,41,0,16
1,30,0,612
1,30,127,92
1,30,0,230
1,42,127,10
1,42,0,78
1,42,127,162
1,42,0,82
1,42,118,158
1,37,127,120
1,42,0,12
1,30,127,108
1,37,0,4
1,42,127,116
1,30,0,30
1,29,127,90
1,42,0,2
1,29,0,640
1,29,127,78
1,29,0,232
1,41,121,8
1,41,0,92
1,41,127,148
1,29,127,240
1,41,0,6
1,29,0,222
1,41,127,12
1,41,0,226
1,30,127,14
1,30,0,658
1,30,127,62
1,30,0,222
1,42,127,18
1,42,0,94
1,42,127,146
1,37,127,240
1,42,0,6
1,42,127,234
1,37,0,8
1,42,0,160
1,35,127,72
1,35,0,628
1,35,127,92
1,35,0,62
1,35,127,178
1,35,0,78
1,35,127,162
1,35,0,378
1,35,127,102
1,35,0,232
1,40,127,8
1,40,0,618
1,40,115,102
1,40,0,86
1,40,127,154
1,40,0,72
1,40,127,168
1,40,0,414
1,40,127,66
1,40,0,120
1,39,127,120
1,39,0,652
1,39,127,68
1,39,0,188
1,39,127,52
1,34,127,240
1,39,0,18
1,34,0,206
1,39,127,16
1,34,127,240
1,39,0,58
1,34,0,164
1,39,127,18
1,39,0,716
1,27,127,4
1,39,127,240
1,27,0,10
1,27,127,230
1,39,0,134
1,27,0,80
1,39,127,26
1,39,0,286
1,32,127,194
1,32,0,562
1,32,127,158
1,32,0,222
1,34,127,18
1,34,0,82
1,36,127,158
1,36,0,94
1,37,127,146
1,37,0,118
1,39,127,122
1,39,0,702
1,39,127,258
1,39,0,228
1,46,127,12
1,39,127,240
1,46,0,18
1,39,0,318
1,27,127,144
1,27,0,240
1,32,127,0
1,32,0,562
1,32,127,158
1,32,0,222
1,34,127,18
1,34,0,82
1,36,127,158
1,36,0,94
1,37,127,146
1,37,0,118
1,39,127,122
1,39,0,702
1,39,127,258
1,39,0,228
1,46,127,12
1,39,127,240
1,46,0,18
1,39,0,318
1,27,127,144
1,27,0,240
1,32,127,0
1,32,0,562
1,32,127,158
1,32,0,222
1,34,127,18
1,34,0,82
1,36,127,158
1,36,0,94
1,37,127,146
1,37,0,118
1,39,127,122
1,39,0,702
1,39,127,258
1,39,0,228
1,46,127,12
1,39,127,240
1,46,0,18
1,39,0,318
1,27,127,144
1,27,0,240
1,41,127,0
1,41,0,502
1,30,127,218
1,42,127,480
1,30,0,6
1,30,127,234
1,42,0,2
1,30,0,158
1,37,127,80
1,37,0,788
1,40,127,172
1,40,0,184
1,42,127,296
1,42,0,372
1,32,127,348
1,32,0,214
1,32,127,26
1,32,0,256
1,32,127,224
1,32,0,334
1,32,127,146
1,32,0,234
1,44,127,6
1,44,0,222
1,39,127,18
1,32,127,240
1,39,0,16
1,32,0,210
1,32,127,14
1,32,0,246
1,32,127,234
1,32,0,300
1,32,127,180
1,39,127,240
1,32,0,8
1,44,127,232
1,39,0,4
1,44,0,204
1,32,127,32
1,32,0,214
1,32,127,26
1,32,0,266
1,32,127,214
1,32,0,346
1,32,127,134
1,44,127,240
1,32,0,18
1,44,0,204
1,39,127,18
1,39,0,224
1,32,127,16
1,32,0,208
1,32,127,32
1,32,0,320
1,32,127,160
1,32,0,456
1,34,127,24
1,36,127,240
1,34,0,16
1,36,0,152
1,37,127,72
1,37,0,448
1,37,127,32
1,37,0,242
1,37,127,238
1,37,0,330
1,37,127,150
1,37,0,228
1,41,127,12
1,41,0,238
1,44,127,2
1,44,0,236
1,37,127,4
1,37,0,184
1,37,127,56
1,37,0,270
1,37,127,210
1,37,0,384
1,37,127,96
1,37,0,236
1,41,127,4
1,41,0,220
1,44,127,20
1,44,0,212
1,32,127,28
1,32,0,180
1,32,127,60
1,32,0,334
1,32,127,146
1,32,0,372
1,32,127,108
1,44,127,240
1,32,0,6
1,44,0,220
1,39,127,14
1,32,127,240
1,39,0,6
1,32,0,208
1,32,127,26
1,32,0,260
1,32,127,220
1,32,0,434
1,32,127,46
1,32,0,232
1,39,127,8
1,39,0,234
1,44,127,6
1,44,0,200
1,41,127,40
1,29,127,720
1,41,0,22
1,29,0,216
1,41,127,2
1,41,0,82
1,41,127,158
1,29,127,240
1,41,0,42
1,29,0,172
1,41,127,26
1,30,127,240
1,41,0,16
1,30,0,612
1,30,127,92
1,30,0,230
1,42,127,10
1,42,0,78
1,42,127,162
1,42,0,82
1,42,118,158
1,37,127,120
1,42,0,12
1,30,127,108
1,37,0,4
1,42,127,116
1,30,0,30
1,29,127,90
1,42,0,2
1,29,0,640
1,29,127,78
1,29,0,232
1,41,121,8
1,41,0,92
1,41,127,148
1,29,127,240
1,41,0,6
1,29,0,222
1,41,127,12
1,41,0,226
1,30,127,14
1,30,0,658
1,30,127,62
1,30,0,222
1,42,127,18
1,42,0,94
1,42,127,146
1,37,127,240
1,42,0,6
1,42,127,234
1,37,0,8
1,42,0,160
1,35,127,72
1,35,0,628
1,35,127,92
1,35,0,62
1,35,127,178
1,35,0,78
1,35,127,162
1,35,0,378
1,35,127,102
1,35,0,232
1,40,127,8
1,40,0,618
1,40,115,102
1,40,0,86
1,40,127,154
1,40,0,72
1,40,127,168
1,40,0,414
1,40,127,66
1,40,0,120
1,39,127,120
1,39,0,652
1,39,127,68
1,39,0,188
1,39,127,52
1,34,127,240
1,39,0,18
1,34,0,206
1,39,127,16
1,34,127,240
1,39,0,58
1,34,0,164
1,39,127,18
1,39,0,716
1,27,127,4
1,39,127,240
1,27,0,10
1,27,127,230
1,39,0,134
1,27,0,80
1,39,127,26
1,39,0,286
1,32,127,194
1,32,0,562
1,32,127,158
1,32,0,222
1,34,127,18
1,34,0,82
1,36,127,158
1,36,0,94
1,37,127,146
1,37,0,118
1,39,127,122
1,39,0,702
1,39,127,258
1,39,0,228
1,46,127,12
1,39,127,240
1,46,0,18
1,39,0,318
1,27,127,144
1,27,0,240
1,32,127,0
1,32,0,562
1,32,127,158
1,32,0,222
1,34,127,18
1,34,0,82
1,36,127,158
1,36,0,94
1,37,127,146
1,37,0,118
1,39,127,122
1,39,0,702
1,39,127,258
1,39,0,228
1,46,127,12
1,39,127,240
1,46,0,18
1,39,0,318
1,27,127,144
1,27,0,240
1,32,127,0
1,32,0,562
1,32,127,158
1,32,0,222
1,34,127,18
1,34,0,82
1,36,127,158
1,36,0,94
1,37,127,146
1,37,0,118
1,39,127,122
1,39,0,702
1,39,127,258
1,39,0,228
1,46,127,12
1,39,127,240
1,46,0,18
1,39,0,318
1,27,127,144
1,27,0,240
1,41,127,0
1,41,0,502
1,30,127,218
1,42,127,480
1,30,0,6
1,30,127,234
1,42,0,2
1,30,0,158
1,37,127,80
1,37,0,788
1,40,127,172
1,40,0,184
1,42,127,296
1,42,0,372
1,32,127,348
1,32,0,562
1,32,127,158
1,32,0,222
1,34,127,18
1,34,0,82
1,36,127,158
1,36,0,94
1,37,127,146
1,37,0,118
1,39,127,122
1,39,0,702
1,39,127,258
1,39,0,228
1,46,127,12
1,39,127,240
1,46,0,18
1,39,0,318
1,27,127,144
1,27,0,240
1,32,127,0
1,32,0,562
1,32,127,158
1,32,0,222
1,34,127,18
1,34,0,82
1,36,127,158
1,36,0,94
1,37,127,146
1,37,0,118
1,39,127,122
1,39,0,702
1,39,127,258
1,39,0,228
1,46,127,12
1,39,127,240
1,46,0,18
1,39,0,318
1,27,127,144
1,27,0,240
1,32,127,0
1,32,0,562
1,32,127,158
1,32,0,222
1,34,127,18
1,34,0,82
1,36,127,158
1,36,0,94
1,37,127,146
1,37,0,118
1,39,127,122
1,39,0,702
1,39,127,258
1,39,0,228
1,46,127,12
1,39,127,240
1,46,0,18
1,39,0,318
1,27,127,144
1,27,0,240
1,41,127,0
1,41,0,502
1,30,127,218
1,42,127,480
1,30,0,6
1,30,127,234
1,42,0,2
1,30,0,158
1,37,127,80
1,37,0,788
1,40,127,172
1,40,0,184
1,42,127,296
1,42,0,372
1,35,127,348
1,35,0,528
1,35,127,7152
1,35,0,562
1,35,127,158
1,35,0,222
1,37,127,18
1,37,0,82
1,39,127,158
1,39,0,94
1,40,127,146
1,40,0,118
1,42,127,122
1,42,0,702
1,42,127,258
1,42,0,228
1,49,127,12
1,42,127,240
1,49,0,18
1,42,0,318
1,30,127,144
1,30,0,240
1,44,127,0
1,44,0,502
1,33,127,218
1,45,127,480
1,33,0,6
1,33,127,234
1,45,0,2
1,33,0,158
1,40,127,80
1,40,0,788
1,43,127,172
1,43,0,184
1,45,127,296
1,45,0,372
1,35,127,348
1,35,0,562
1,35,127,158
1,35,0,222
1,37,127,18
1,37,0,82
1,39,127,158
1,39,0,94
1,40,127,146
1,40,0,118
1,42,127,122
1,42,0,702
1,42,127,258
1,42,0,228
1,49,127,12
1,42,127,240
1,49,0,18
1,42,0,318
1,30,127,144
1,30,0,240
1,35,127,0
1,35,0,562
1,35,127,158
1,35,0,222
1,37,127,18
1,37,0,82
1,39,127,158
1,39,0,94
1,40,127,146
1,40,0,118
1,42,127,122
1,42,0,702
1,42,127,258
1,42,0,228
1,49,127,12
1,42,127,240
1,49,0,18
1,42,0,318
1,30,127,144
1,30,0,240
1,35,127,0
1,35,0,562
1,35,127,158
1,35,0,222
1,37,127,18
1,37,0,82
1,39,127,158
1,39,0,94
1,40,127,146
1,40,0,118
1,42,127,122
1,42,0,702
1,42,127,258
1,42,0,228
1,49,127,12
1,42,127,240
1,49,0,18
1,42,0,318
1,30,127,144
1,30,0,240
1,44,127,0
1,44,0,502
1,33,127,218
1,45,127,480
1,33,0,6
1,33,127,234
1,45,0,2
1,33,0,158
1,40,127,80
1,40,0,788
1,43,127,172
1,43,0,184
1,45,127,296
1,45,0,372
1,35,127,348
1,35,0,562
1,35,127,158
1,35,0,222
1,37,127,18
1,37,0,82
1,39,127,158
1,39,0,94
1,40,127,146
1,40,0,118
1,42,127,122
1,42,0,702
1,42,127,258
1,42,0,228
1,49,127,12
1,42,127,240
1,49,0,18
1,42,0,318
1,30,127,144
1,30,0,240
1,35,127,0
1,35,0,562
1,35,127,158
1,35,0,222
1,37,127,18
1,37,0,82
1,39,127,158
1,39,0,94
1,40,127,146
1,40,0,118
1,42,127,122
1,42,0,702
1,42,127,258
1,42,0,228
1,49,127,12
1,42,127,240
1,49,0,18
1,42,0,318
1,30,127,144
1,30,0,240
1,35,127,0
1,35,0,562
1,35,127,158
1,35,0,222
1,37,127,18
1,37,0,82
1,39,127,158
1,39,0,94
1,40,127,146
1,40,0,118
1,42,127,122
1,42,0,702
1,42,127,258
1,42,0,228
1,49,127,12
1,42,127,240
1,49,0,18
1,42,0,318
1,30,127,144
1,30,0,240
1,44,127,0
1,44,0,502
1,33,127,218
1,45,127,480
1,33,0,6
1,33,127,234
1,45,0,2
1,33,0,158
1,40,127,80
1,40,0,788
1,43,127,172
1,43,0,184
1,45,127,296
1,45,0,372
1,35,127,348
1,35,0,3824
2,44,121,11036
2,56,121,0
2,63,121,0
2,60,121,0
2,63,0,1066
2,60,0,8
2,56,0,20
2,63,121,106
2,58,121,0
2,58,0,64
2,63,0,8
2,44,0,16
2,56,121,152
2,56,0,68
2,63,121,172
2,51,121,0
2,58,121,0
2,55,96,0
2,51,0,1290
2,63,0,6
2,55,0,28
2,58,0,6
2,51,121,110
2,63,121,0
2,55,99,0
2,58,121,0
2,58,0,72
2,51,0,0
2,55,0,4
2,63,0,2
2,56,108,402
2,53,121,0
2,60,99,0
2,68,121,0
2,65,121,0
2,68,0,44
2,60,0,20
2,65,0,4
2,56,0,18
2,53,0,6
2,61,121,272
2,42,121,0
2,54,121,0
2,58,121,0
2,54,0,158
2,58,0,14
2,61,0,2
2,56,121,84
2,61,121,0
2,42,0,52
2,54,121,14
2,56,0,6
2,61,0,84
2,54,0,12
2,49,121,42
2,56,121,0
2,61,121,480
2,61,0,58
2,65,121,24
2,56,0,10
2,49,0,28
2,65,0,56
2,59,121,144
2,56,121,0
2,68,121,0
2,52,121,0
2,64,121,0
2,68,0,40
2,56,0,0
2,64,0,14
2,52,0,6
2,59,0,0
2,58,121,48
2,61,121,0
2,54,121,0
2,54,0,454
2,61,0,20
2,58,0,0
2,63,121,27126
2,67,121,0
2,61,121,0
2,51,121,0
2,58,121,0
2,61,0,328
2,58,0,6
2,67,0,0
2,51,0,2
2,63,0,14
2,51,121,184
2,67,121,0
2,61,121,0
2,63,121,0
2,58,121,0
2,61,0,58
2,63,0,8
2,58,0,0
2,51,0,4
2,67,0,12
2,39,121,398
2,39,0,140
2,58,111,100
2,58,0,102
2,61,121,138
2,61,0,78
2,51,121,162
2,58,121,4
2,63,121,0
2,63,0,180
2,58,0,10
2,51,0,6
2,51,121,150
2,58,111,0
2,63,121,0
2,51,0,68
2,58,0,16
2,63,0,4
2,63,121,152
2,58,121,0
2,51,121,0
2,51,0,66
2,63,0,8
2,58,0,4
2,58,121,162
2,58,0,122
2,58,121,118
2,67,121,0
2,63,121,0
2,39,121,0
2,63,0,54
2,58,0,2
2,67,0,14
2,39,0,4
2,44,121,198
2,56,121,0
2,63,121,0
2,60,121,0
2,63,0,1066
2,60,0,8
2,56,0,20
2,63,121,106
2,58,121,0
2,58,0,64
2,63,0,8
2,44,0,16
2,56,121,152
2,56,0,68
2,63,121,172
2,51,121,0
2,58,121,0
2,55,96,0
2,51,0,1290
2,63,0,6
2,55,0,28
2,58,0,6
2,51,121,110
2,63,121,0
2,55,99,0
2,58,121,0
2,58,0,72
2,51,0,0
2,55,0,4
2,63,0,2
2,60,121,642
2,44,121,0
2,56,121,0
2,63,121,0
2,63,0,1066
2,60,0,8
2,56,0,20
2,63,121,106
2,58,121,0
2,58,0,64
2,63,0,8
2,44,0,16
2,56,121,152
2,56,0,68
2,63,121,172
2,51,121,0
2,58,121,0
2,55,96,0
2,51,0,1290
2,63,0,6
2,55,0,28
2,58,0,6
