track,note,velocity,time
1,32,127,9600
1,32,127,158
1,34,127,18
1,36,127,158
1,37,127,146
1,39,127,122
1,39,127,258
1,46,127,12
1,39,127,240
1,41,127,144
1,30,127,218
1,42,127,480
1,30,127,234
1,37,127,80
1,40,127,172
1,42,127,296
1,32,127,348
1,32,127,26
1,32,127,224
1,32,127,146
1,44,127,6
1,39,127,18
1,32,127,240
1,32,127,14
1,32,127,234
1,32,127,180
1,39,127,240
1,44,127,232
1,32,127,32
1,32,127,26
1,32,127,214
1,32,127,134
1,44,127,240
1,39,127,18
1,32,127,16
1,32,127,32
1,32,127,160
1,34,127,24
1,36,123,240
1,37,127,72
1,37,127,32
1,37,127,238
1,37,127,150
1,41,127,12
1,44,127,2
1,37,127,4
1,37,127,56
1,37,127,210
1,37,127,96
1,41,123,4
1,44,127,20
1,32,127,28
1,32,127,60
1,32,127,146
1,32,127,108
1,44,127,240
1,39,127,14
1,32,120,240
1,32,127,26
1,32,127,220
1,32,127,46
1,39,127,8
1,44,127,6
1,41,127,40
1,29,127,720
1,41,127,2
1,41,127,158
1,29,127,240
1,41,127,26
1,30,127,240
1,30,127,92
1,42,127,10
1,42,127,162
1,42,108,158
1,37,120,120
1,30,127,108
1,42,123,116
1,29,127,90
1,29,127,78
1,41,111,8
1,41,127,148
1,29,127,240
1,41,127,12
1,30,127,14
1,30,127,62
1,42,120,18
1,42,127,146
1,37,127,240
1,42,127,234
1,35,127,72
1,35,127,92
1,35,127,178
1,35,127,162
1,35,127,102
1,40,127,8
1,40,105,102
1,40,127,154
1,40,127,168
1,40,120,66
1,39,127,120
1,39,127,68
1,39,127,52
1,34,127,240
1,39,127,16
1,34,127,240
1,39,127,18
1,27,127,4
1,39,127,240
1,27,127,230
1,39,127,26
1,32,127,194
1,32,127,158
1,34,127,18
1,36,127,158
1,37,127,146
1,39,127,122
1,39,127,258
1,46,127,12
1,39,127,240
1,27,127,144
1,32,127,0
1,32,127,158
1,34,127,18
1,36,127,158
1,37,127,146
1,39,127,122
1,39,127,258
1,46,127,12
1,39,127,240
1,27,127,144
1,32,127,0
1,32,127,158
1,34,127,18
1,36,127,158
1,37,127,146
1,39,127,122
1,39,127,258
1,46,127,12
1,39,127,240
1,27,127,144
1,41,127,0
1,30,127,218
1,42,127,480
1,30,127,234
1,37,127,80
1,40,127,172
1,42,127,296
1,32,127,348
1,32,127,26
1,32,127,224
1,32,127,146
1,44,127,6
1,39,127,18
1,32,127,240
1,32,127,14
1,32,127,234
1,32,127,180
1,39,127,240
1,44,127,232
1,32,127,32
1,32,127,26
1,32,127,214
1,32,127,134
1,44,127,240
1,39,127,18
1,32,127,16
1,32,127,32
1,32,127,160
1,34,127,24
1,36,123,240
1,37,127,72
1,37,127,32
1,37,127,238
1,37,127,150
1,41,127,12
1,44,127,2
1,37,127,4
1,37,127,56
1,37,127,210
1,37,127,96
1,41,123,4
1,44,127,20
1,32,127,28
1,32,127,60
1,32,127,146
1,32,127,108
1,44,127,240
1,39,127,14
1,32,120,240
1,32,127,26
1,32,127,220
1,32,127,46
1,39,127,8
1,44,127,6
1,41,127,40
1,29,127,720
1,41,127,2
1,41,127,158
1,29,127,240
1,41,127,26
1,30,127,240
1,30,127,92
1,42,127,10
1,42,127,162
1,42,108,158
1,37,120,120
1,30,127,108
1,42,123,116
1,29,127,90
1,29,127,78
1,41,111,8
1,41,127,148
1,29,127,240
1,41,127,12
1,30,127,14
1,30,127,62
1,42,120,18
1,42,127,146
1,37,127,240
1,42,127,234
1,35,127,72
1,35,127,92
1,35,127,178
1,35,127,162
1,35,127,102
1,40,127,8
1,40,105,102
1,40,127,154
1,40,127,168
1,40,120,66
1,39,127,120
1,39,127,68
1,39,127,52
1,34,127,240
1,39,127,16
1,34,127,240
1,39,127,18
1,27,127,4
1,39,127,240
1,27,127,230
1,39,127,26
1,32,127,194
1,32,127,158
1,34,127,18
1,36,127,158
1,37,127,146
1,39,127,122
1,39,127,258
1,46,127,12
1,39,127,240
1,27,127,144
1,32,127,0
1,32,127,158
1,34,127,18
1,36,127,158
1,37,127,146
1,39,127,122
1,39,127,258
1,46,127,12
1,39,127,240
1,27,127,144
1,32,127,0
1,32,127,158
1,34,127,18
1,36,127,158
1,37,127,146
1,39,127,122
1,39,127,258
1,46,127,12
1,39,127,240
1,27,127,144
1,41,127,0
1,30,127,218
1,42,127,480
1,30,127,234
1,37,127,80
1,40,127,172
1,42,127,296
1,32,127,348
1,32,127,158
1,34,127,18
1,36,127,158
1,37,127,146
1,39,127,122
1,39,127,258
1,46,127,12
1,39,127,240
1,27,127,144
1,32,127,0
1,32,127,158
1,34,127,18
1,36,127,158
1,37,127,146
1,39,127,122
1,39,127,258
1,46,127,12
1,39,127,240
1,27,127,144
1,32,127,0
1,32,127,158
1,34,127,18
1,36,127,158
1,37,127,146
1,39,127,122
1,39,127,258
1,46,127,12
1,39,127,240
1,27,127,144
1,41,127,0
1,30,127,218
1,42,127,480
1,30,127,234
1,37,127,80
1,40,127,172
1,42,127,296
1,35,127,348
1,35,127,7152
1,35,127,158
1,37,127,18
1,39,127,158
1,40,127,146
1,42,127,122
1,42,127,258
1,49,127,12
1,42,127,240
1,30,127,144
1,44,127,0
1,33,127,218
1,45,127,480
1,33,127,234
1,40,127,80
1,43,127,172
1,45,127,296
1,35,127,348
1,35,127,158
1,37,127,18
1,39,127,158
1,40,127,146
1,42,127,122
1,42,127,258
1,49,127,12
1,42,127,240
1,30,127,144
1,35,127,0
1,35,127,158
1,37,127,18
1,39,127,158
1,40,127,146
1,42,127,122
1,42,127,258
1,49,127,12
1,42,127,240
1,30,127,144
1,35,127,0
1,35,127,158
1,37,127,18
1,39,127,158
1,40,127,146
1,42,127,122
1,42,127,258
1,49,127,12
1,42,127,240
1,30,127,144
1,44,127,0
1,33,127,218
1,45,127,480
1,33,127,234
1,40,127,80
1,43,127,172
1,45,127,296
1,35,127,348
1,35,127,158
1,37,127,18
1,39,127,158
1,40,127,146
1,42,127,122
1,42,127,258
1,49,127,12
1,42,127,240
1,30,127,144
1,35,127,0
1,35,127,158
1,37,127,18
1,39,127,158
1,40,127,146
1,42,127,122
1,42,127,258
1,49,127,12
1,42,127,240
1,30,127,144
1,35,127,0
1,35,127,158
1,37,127,18
1,39,127,158
1,40,127,146
1,42,127,122
1,42,127,258
1,49,127,12
1,42,127,240
1,30,127,144
1,44,127,0
1,33,127,218
1,45,127,480
1,33,127,234
1,40,127,80
1,43,127,172
1,45,127,296
1,35,127,348
2,44,101,9574
2,56,101,0
2,63,101,0
2,60,101,0
2,63,101,106
2,58,101,0
2,56,101,152
2,63,101,172
2,51,101,0
2,58,101,0
2,55,76,0
2,51,101,110
2,63,101,0
2,55,79,0
2,58,101,0
2,56,88,402
2,53,101,0
2,60,79,0
2,68,101,0
2,65,101,0
2,61,101,272
2,42,101,0
2,54,101,0
2,58,101,0
2,56,101,84
2,61,101,0
2,54,101,14
2,49,101,42
2,56,101,0
2,61,101,480
2,65,101,24
2,59,101,144
2,56,101,0
2,68,101,0
2,52,101,0
2,64,101,0
2,58,101,48
2,61,101,0
2,54,101,0
2,63,101,27126
2,67,101,0
2,61,101,0
2,51,101,0
2,58,101,0
2,51,101,184
2,67,101,0
2,61,101,0
2,63,101,0
2,58,101,0
2,39,101,398
2,58,91,100
2,61,101,138
2,51,101,162
2,58,101,4
2,63,101,0
2,51,101,150
2,58,91,0
2,63,101,0
2,63,101,152
2,58,101,0
2,51,101,0
2,58,101,162
2,58,101,118
2,67,101,0
2,63,101,0
2,39,101,0
2,44,101,198
2,56,101,0
2,63,101,0
2,60,101,0
2,63,101,106
2,58,101,0
2,56,101,152
2,63,101,172
2,51,101,0
2,58,101,0
2,55,76,0
2,51,101,110
2,63,101,0
2,55,79,0
2,58,101,0
2,60,101,642
2,44,101,0
2,56,101,0
2,63,101,0
2,63,101,106
2,58,101,0
2,56,101,152
2,63,101,172
2,51,101,0
2,58,101,0
2,55,76,0
2,51,101,110
2,63,101,0
2,55,79,0
2,58,101,0
2,44,101,642
2,56,101,0
2,63,101,0
2,60,101,0
2,63,101,106
2,58,101,0
2,56,101,152
2,63,101,172
2,51,101,0
2,58,101,0
2,55,76,0
2,51,101,110
2,63,101,0
2,55,79,0
2,58,101,0
2,65,101,642
2,68,101,0
2,60,79,0
2,53,101,0
2,56,88,0
2,61,101,272
2,42,101,0
2,54,101,0
2,58,101,0
2,56,101,84
2,61,101,0
2,54,101,14
2,49,101,42
2,56,101,0
2,61,101,480
2,65,101,24
2,59,101,144
2,56,101,0
2,68,101,0
2,52,101,0
2,64,101,0
2,58,101,48
2,61,101,0
2,54,101,0
2,63,101,27126
2,67,101,0
2,61,101,0
2,51,101,0
2,58,101,0
2,51,101,184
2,67,101,0
2,61,101,0
2,63,101,0
2,58,101,0
2,39,101,398
2,58,91,100
2,61,101,138
2,51,101,162
2,58,101,4
2,63,101,0
2,51,101,150
2,58,91,0
2,63,101,0
2,63,101,152
2,58,101,0
2,51,101,0
2,58,101,162
2,58,101,118
2,67,101,0
2,63,101,0
2,39,101,0
2,44,101,198
2,56,101,0
2,63,101,0
2,60,101,0
2,63,101,106
2,58,101,0
2,56,101,152
2,63,101,172
2,51,101,0
2,58,101,0
2,55,76,0
2,51,101,110
2,63,101,0
2,55,79,0
2,58,101,0
2,60,101,642
2,44,101,0
2,56,101,0
2,63,101,0
2,63,101,106
2,58,101,0
2,56,101,152
2,63,101,172
2,51,101,0
2,58,101,0
2,55,76,0
2,51,101,110
2,63,101,0
2,55,79,0
2,58,101,0
2,44,101,642
2,56,101,0
2,63,101,0
2,60,101,0
2,63,101,106
2,58,101,0
2,56,101,152
2,63,101,172
2,51,101,0
2,58,101,0
2,55,76,0
2,51,101,110
2,63,101,0
2,55,79,0
2,58,101,0
2,65,101,642
2,68,101,0
2,60,79,0
2,53,101,0
2,56,88,0
2,61,101,272
2,42,101,0
2,54,101,0
2,58,101,0
2,56,101,84
2,61,101,0
2,54,101,14
2,49,101,42
2,56,101,0
2,61,101,480
2,65,101,24
2,59,101,144
2,56,101,0
2,68,101,0
2,52,101,0
2,64,101,0
2,58,101,48
2,61,101,0
2,54,101,0
2,44,101,246
2,56,101,0
2,63,101,0
2,60,101,0
2,63,101,106
2,58,101,0
2,56,101,152
2,63,101,172
2,51,101,0
2,58,101,0
2,55,76,0
2,51,101,110
2,63,101,0
2,55,79,0
2,58,101,0
2,60,101,642
2,44,101,0
2,56,101,0
2,63,101,0
2,63,101,106
2,58,101,0
2,56,101,152
2,63,101,172
2,51,101,0
2,58,101,0
2,55,76,0
2,51,101,110
2,63,101,0
2,55,79,0
2,58,101,0
2,44,101,642
2,56,101,0
2,63,101,0
2,60,101,0
2,63,101,106
2,58,101,0
2,56,101,152
2,63,101,172
2,51,101,0
2,58,101,0
2,55,76,0
2,51,101,110
2,63,101,0
2,55,79,0
2,58,101,0
2,65,101,642
2,68,101,0
2,60,79,0
2,53,101,0
2,56,88,0
2,61,101,272
2,42,101,0
2,54,101,0
2,58,101,0
2,56,101,84
2,61,101,0
2,54,101,14
2,49,101,42
2,56,101,0
2,61,101,480
2,65,101,24
2,59,101,144
2,56,101,0
2,68,101,0
2,52,101,0
2,64,101,0
2,58,101,48
2,61,101,0
2,54,101,0
2,54,101,246
2,59,101,0
2,47,101,0
2,63,101,7212
2,66,101,0
2,59,101,0
2,47,101,0
2,61,101,106
2,66,101,0
2,59,101,152
2,58,76,172
2,61,101,0
2,54,101,0
2,66,101,0
2,61,101,110
2,58,79,0
2,66,101,0
2,54,101,0
2,59,88,642
2,56,101,0
2,63,79,0
2,71,101,0
2,68,101,0
2,61,101,272
2,57,101,0
2,45,101,0
2,64,101,0
2,64,101,84
2,59,101,0
2,57,101,14
2,59,101,42
2,52,101,0
2,64,101,480
2,68,101,24
2,67,101,144
2,55,101,0
2,71,101,0
2,59,101,0
2,62,101,0
2,57,101,48
2,64,101,0
2,61,101,0
2,63,101,246
2,66,101,0
2,59,101,0
2,47,101,0
2,61,101,106
2,66,101,0
2,59,101,152
2,58,76,172
2,61,101,0
2,54,101,0
2,66,101,0
2,61,101,110
2,58,79,0
2,66,101,0
2,54,101,0
2,66,101,642
2,59,101,0
2,47,101,0
2,63,101,0
2,61,101,106
2,66,101,0
2,59,101,152
2,58,76,172
2,61,101,0
2,54,101,0
2,66,101,0
2,61,101,110
2,58,79,0
2,66,101,0
2,54,101,0
2,63,101,642
2,66,101,0
2,59,101,0
2,47,101,0
2,61,101,106
2,66,101,0
2,59,101,152
2,58,76,172
2,61,101,0
2,54,101,0
2,66,101,0
2,61,101,110
2,58,79,0
2,66,101,0
2,54,101,0
2,59,88,642
2,56,101,0
2,63,79,0
2,71,101,0
2,68,101,0
2,61,101,272
2,57,101,0
2,45,101,0
2,64,101,0
2,64,101,84
2,59,101,0
2,57,101,14
2,59,101,42
2,52,101,0
2,64,101,480
2,68,101,24
2,67,101,144
2,55,101,0
2,71,101,0
2,59,101,0
2,62,101,0
2,57,101,48
2,64,101,0
2,61,101,0
2,63,101,246
2,66,101,0
2,59,101,0
2,47,101,0
2,61,101,106
2,66,101,0
2,59,101,152
2,58,76,172
2,61,101,0
2,54,101,0
2,66,101,0
2,61,101,110
2,58,79,0
2,66,101,0
2,54,101,0
2,66,101,642
2,59,101,0
2,47,101,0
2,63,101,0
2,61,101,106
2,66,101,0
2,59,101,152
2,58,76,172
2,61,101,0
2,54,101,0
2,66,101,0
2,61,101,110
2,58,79,0
2,66,101,0
2,54,101,0
2,63,101,642
2,66,101,0
2,59,101,0
2,47,101,0
2,61,101,106
2,66,101,0
2,59,101,152
2,58,76,172
2,61,101,0
2,54,101,0
2,66,101,0
2,61,101,110
2,58,79,0
2,66,101,0
2,54,101,0
2,59,88,642
2,56,101,0
2,63,79,0
2,71,101,0
2,68,101,0
2,61,101,272
2,57,101,0
2,45,101,0
2,64,101,0
2,64,101,84
2,59,101,0
2,57,101,14
2,59,101,42
2,52,101,0
2,64,101,480
2,68,101,24
2,67,101,144
2,55,101,0
2,71,101,0
2,59,101,0
2,62,101,0
2,57,101,48
2,64,101,0
2,61,101,0
2,63,101,246
2,47,101,0
2,59,101,0
2,54,101,0
3,56,101,6840
3,59,101,98
3,58,101,28
3,56,101,0
3,56,101,136
3,66,101,98
3,65,101,2
3,63,101,28
3,60,101,20
3,56,101,252
3,56,101,22
3,56,101,18
3,60,101,480
3,56,101,34
3,61,101,36
3,60,101,240
3,61,101,28
3,70,93,18792
3,68,93,44
3,66,93,38
3,68,93,240
3,70,93,220
3,68,93,28
3,70,93,1076
3,68,93,10
3,66,93,240
3,63,93,938
3,54,93,0
3,59,93,0
3,59,93,402
3,58,93,26
3,59,93,240
3,64,93,34
3,63,93,102
3,61,93,32
3,59,93,18
3,58,93,356
3,58,93,186
3,51,93,180
3,58,93,0
3,51,93,180
3,58,93,0
3,58,93,168
3,51,93,0
3,58,93,172
3,51,93,0
3,58,93,166
3,51,93,0
3,58,93,116
3,51,93,0
3,51,93,166
3,58,93,162
3,51,93,140
3,63,93,178
3,56,93,298
3,51,93,0
3,44,93,0
3,63,93,2154
3,63,93,168
3,61,93,240
3,63,93,12
3,61,93,240
3,44,93,816
3,56,93,0
3,51,93,0
3,51,93,406
3,56,93,0
3,44,93,0
3,61,93,1122
3,63,93,28
3,61,93,240
3,63,93,10
3,61,93,240
3,56,93,120
3,51,93,0
3,44,93,0
3,63,93,2154
3,63,93,168
3,61,93,240
3,41,101,252
3,53,101,0
3,54,101,168
3,42,101,0
3,49,101,264
3,56,101,0
3,40,101,220
3,42,101,66
3,70,93,18238
3,68,93,44
3,66,93,38
3,68,93,240
3,70,93,220
3,68,93,28
3,70,93,1076
3,68,93,10
3,66,93,240
3,63,93,938
3,54,93,0
3,59,93,0
3,59,93,402
3,58,93,26
3,59,93,240
3,64,93,34
3,63,93,102
3,61,93,32
3,59,93,18
3,58,93,356
3,58,93,186
