track,note,velocity,time
1,73,90,0
1,65,90,0
1,73,90,0
1,65,90,0
1,73,90,0
1,66,90,0
1,73,90,0
1,75,90,0
1,72,90,0
1,63,90,0
1,72,90,0
1,63,90,0
1,72,90,0
1,70,90,0
1,68,90,0
1,66,90,0
1,65,90,0
1,70,90,0
1,70,90,0
1,65,90,0
1,73,90,0
1,66,90,0
1,73,90,0
1,66,90,0
1,72,90,0
1,63,90,0
1,72,90,0
1,63,90,0
1,69,90,0
1,70,90,0
1,72,90,0
1,65,90,0
1,73,90,0
1,65,90,0
1,73,90,0
1,65,90,0
1,73,90,0
1,66,90,0
1,73,90,0
1,75,90,0
1,72,90,0
1,63,90,0
1,72,90,0
1,63,90,0
1,72,90,0
1,70,90,0
1,68,90,0
1,66,90,0
1,65,90,0
1,70,90,0
1,70,90,0
1,65,90,0
1,73,90,0
1,66,90,0
1,73,90,0
1,66,90,0
1,72,90,0
1,63,90,0
1,72,90,0
1,63,90,0
1,69,90,0
1,70,90,0
1,72,90,0
1,65,90,0
1,73,90,0
1,65,90,0
1,73,90,0
1,65,90,0
1,73,90,0
1,66,90,0
1,73,90,0
1,75,90,0
1,72,90,0
1,63,90,0
1,72,90,0
1,63,90,0
1,72,90,0
1,70,90,0
1,68,90,0
1,66,90,0
1,65,90,0
1,70,90,0
1,70,90,0
1,65,90,0
1,56,90,0
1,73,90,0
1,66,90,0
1,73,90,0
1,66,90,0
1,72,90,0
1,63,90,0
1,72,90,0
1,63,90,0
1,69,90,0
1,70,90,0
1,72,90,0
1,65,90,0
1,73,90,0
1,66,90,0
1,73,90,0
1,66,90,0
1,73,90,0
1,61,90,0
1,73,90,0
1,61,90,0
1,73,90,0
1,61,90,0
1,73,90,0
1,61,90,0
1,73,90,0
1,61,90,0
1,73,90,0
1,61,90,0
1,73,90,0
1,61,90,0
1,73,90,0
1,61,90,0
1,73,90,0
1,61,90,0
1,73,90,0
1,61,90,0
1,73,90,0
1,61,90,0
1,73,90,0
1,61,90,0
1,73,90,0
1,72,90,0
1,65,90,0
1,56,90,0
1,65,90,0
1,56,90,0
1,65,90,0
1,56,90,0
1,65,90,0
1,56,90,0
1,65,90,0
1,56,90,0
1,65,90,0
1,56,90,0
1,65,90,0
1,56,90,0
1,65,90,0
1,56,90,0
1,70,90,0
1,70,90,0
1,71,90,0
1,61,90,96
1,70,90,0
1,71,90,0
1,73,90,0
1,73,90,0
1,70,90,0
1,68,90,0
1,68,90,0
1,66,90,0
1,71,90,0
1,71,90,0
1,71,90,0
1,71,90,0
1,71,90,0
1,71,90,0
1,70,90,0
1,66,90,0
1,70,90,0
1,70,90,0
1,68,90,0
1,70,90,0
1,71,90,0
1,71,90,0
1,71,90,0
1,71,90,0
1,71,90,0
1,70,90,0
1,70,90,0
1,73,90,0
1,73,90,0
1,73,90,0
1,73,90,0
1,73,90,0
1,73,90,0
1,71,90,0
1,70,90,0
1,70,90,0
1,68,90,0
1,65,90,0
1,56,90,0
1,65,90,0
1,73,90,0
1,73,90,0
1,73,90,0
1,73,90,0
1,71,90,0
1,70,90,0
1,70,90,0
1,68,90,0
1,73,90,0
1,65,90,0
1,73,90,0
1,65,90,0
1,73,90,0
1,65,90,0
1,73,90,0
1,65,90,0
1,73,90,0
1,72,90,0
1,73,90,0
1,65,90,0
1,73,90,0
1,65,90,0
1,73,90,0
1,66,90,0
1,73,90,0
1,75,90,0
1,72,90,0
1,63,90,0
1,72,90,0
1,63,90,0
1,72,90,0
1,70,90,0
1,68,90,0
1,66,90,0
1,65,90,0
1,70,90,0
1,70,90,0
1,65,90,0
1,73,90,0
1,66,90,0
1,73,90,0
1,66,90,0
1,72,90,0
1,63,90,0
1,72,90,0
1,63,90,0
1,69,90,0
1,70,90,0
1,72,90,0
1,65,90,0
1,73,90,0
1,65,90,0
1,73,90,0
1,65,90,0
1,73,90,0
1,66,90,0
1,73,90,0
1,75,90,0
1,72,90,0
1,63,90,0
1,72,90,0
1,63,90,0
1,72,90,0
1,70,90,0
1,68,90,0
1,66,90,0
1,65,90,0
1,70,90,0
1,70,90,0
1,65,90,0
1,56,90,0
1,73,90,0
1,66,90,0
1,73,90,0
1,66,90,0
1,72,90,0
1,63,90,0
1,72,90,0
1,63,90,0
1,69,90,0
1,70,90,0
1,72,90,0
1,65,90,0
1,73,90,0
1,66,90,0
1,73,90,0
1,66,90,0
1,73,90,0
1,61,90,0
1,73,90,0
1,61,90,0
1,73,90,0
1,61,90,0
1,73,90,0
1,61,90,0
1,73,90,0
1,61,90,0
1,73,90,0
1,61,90,0
1,73,90,0
1,61,90,0
1,73,90,0
1,61,90,0
1,73,90,0
1,61,90,0
1,73,90,0
1,61,90,0
1,73,90,0
1,61,90,0
1,73,90,0
1,61,90,0
1,73,90,0
1,72,90,0
1,65,90,0
1,56,90,0
1,65,90,0
1,56,90,0
1,65,90,0
1,56,90,0
1,65,90,0
1,56,90,0
1,65,90,0
1,56,90,0
1,65,90,0
1,56,90,0
1,65,90,0
1,56,90,0
1,65,90,0
1,56,90,0
1,70,90,0
1,71,90,0
1,70,90,0
1,68,90,0
1,70,90,0
1,71,90,0
1,70,90,0
1,68,90,0
1,70,90,0
1,70,90,0
1,71,90,0
1,61,90,96
1,70,90,0
1,71,90,0
1,73,90,0
1,73,90,0
1,70,90,0
1,68,90,0
1,68,90,0
1,66,90,0
1,71,90,0
1,71,90,0
1,71,90,0
1,71,90,0
1,71,90,0
1,71,90,0
1,70,90,0
1,66,90,0
1,70,90,0
1,70,90,0
1,68,90,0
1,70,90,0
1,71,90,0
1,71,90,0
1,71,90,0
1,71,90,0
1,71,90,0
1,70,90,0
1,70,90,0
1,73,90,0
1,73,90,0
1,73,90,0
1,73,90,0
1,73,90,0
1,73,90,0
1,71,90,0
1,70,90,0
1,70,90,0
1,68,90,0
1,65,90,0
1,56,90,0
1,65,90,0
1,73,90,0
1,73,90,0
1,73,90,0
1,73,90,0
1,71,90,0
1,70,90,0
1,70,90,0
1,68,90,0
1,65,90,0
1,56,90,0
1,65,90,0
1,70,90,0
1,71,90,0
1,70,90,0
1,68,90,0
1,70,90,0
1,71,90,0
1,70,90,0
1,68,90,0
1,71,90,0
1,70,90,0
1,71,90,0
1,70,90,0
1,68,90,0
1,68,90,0
1,68,90,0
1,68,90,0
1,68,90,0
1,68,90,0
1,68,90,0
1,68,90,0
1,73,90,0
1,73,90,0
1,73,90,0
1,73,90,0
1,71,90,0
1,70,90,0
1,70,90,0
1,68,90,0
1,65,90,0
1,56,90,0
1,65,90,0
1,73,90,0
1,73,90,0
1,73,90,0
1,73,90,0
1,71,90,0
1,70,90,0
1,70,90,0
1,68,90,0
1,75,90,192
1,73,90,96
1,75,90,192
1,75,90,0
1,73,90,0
1,73,90,0
1,65,90,0
1,73,90,0
1,65,90,0
1,73,90,0
1,65,90,0
1,73,90,0
1,65,90,0
1,73,90,0
1,72,90,0
1,73,90,0
1,65,90,0
1,73,90,0
1,65,90,0
1,73,90,0
1,66,90,0
1,73,90,0
1,75,90,0
1,72,90,0
1,63,90,0
1,72,90,0
1,63,90,0
1,72,90,0
1,70,90,0
1,68,90,0
1,66,90,0
1,65,90,0
1,70,90,0
1,70,90,0
2,70,90,0
2,70,90,96
2,70,90,96
2,70,90,96
2,68,90,96
2,68,90,96
2,68,90,96
2,65,90,384
2,70,90,96
2,70,90,96
2,68,90,96
2,68,90,96
2,65,90,96
2,60,90,0
2,63,90,0
2,70,90,96
2,70,90,96
2,70,90,96
2,70,90,96
2,68,90,96
2,68,90,96
2,68,90,96
2,70,90,672
2,70,90,96
2,68,90,96
2,68,90,96
2,65,90,96
2,67,90,0
2,69,90,0
2,70,90,96
2,70,90,96
2,70,90,96
2,70,90,96
2,68,90,96
2,68,90,96
2,68,90,96
2,58,90,288
2,61,90,0
2,65,90,0
2,58,90,0
2,70,90,48
2,70,90,96
2,68,90,96
2,68,90,96
2,65,90,96
2,60,90,0
2,63,90,0
2,70,90,96
2,70,90,96
2,68,90,96
2,68,90,96
2,70,90,96
2,66,90,96
2,68,90,96
2,65,90,96
2,70,90,96
2,70,90,96
2,68,90,96
2,68,90,96
2,70,90,96
2,66,90,96
2,68,90,96
2,68,90,0
2,61,90,0
2,61,90,96
2,61,90,96
2,61,90,96
2,61,90,96
2,61,90,96
2,61,90,96
2,61,90,96
2,66,90,96
2,66,90,96
2,66,90,192
2,68,90,192
2,63,90,288
2,66,90,0
2,66,90,0
2,65,90,192
2,66,90,0
2,66,90,0
2,66,90,0
2,68,90,0
2,66,90,0
2,66,90,0
2,65,90,0
2,61,90,0
2,61,90,96
2,66,90,0
2,66,90,0
2,65,90,0
2,68,90,0
2,68,90,96
2,68,90,96
2,68,90,96
2,68,90,96
2,68,90,0
2,70,90,0
2,70,90,96
2,70,90,96
2,70,90,96
2,68,90,96
2,68,90,96
2,68,90,96
2,70,90,672
2,70,90,96
2,68,90,96
2,68,90,96
2,65,90,96
2,67,90,0
2,69,90,0
2,70,90,96
2,70,90,96
2,70,90,96
2,70,90,96
2,68,90,96
2,68,90,96
2,68,90,96
2,58,90,288
2,61,90,0
2,65,90,0
2,58,90,0
2,70,90,48
2,70,90,96
2,68,90,96
2,68,90,96
2,65,90,96
2,60,90,0
2,63,90,0
2,70,90,96
2,70,90,96
2,68,90,96
2,68,90,96
2,70,90,96
2,66,90,96
2,68,90,96
2,65,90,96
2,70,90,96
2,70,90,96
2,68,90,96
2,68,90,96
2,70,90,96
2,66,90,96
2,68,90,96
2,68,90,0
2,61,90,0
2,61,90,96
2,61,90,96
2,61,90,96
2,61,90,96
2,61,90,96
2,61,90,96
2,61,90,96
2,66,90,96
2,66,90,0
2,66,90,0
2,65,90,0
2,66,90,0
2,66,90,0
2,66,90,0
2,65,90,0
2,66,90,0
2,66,90,96
2,66,90,192
2,68,90,192
2,63,90,288
2,66,90,0
2,66,90,0
2,65,90,192
2,66,90,0
2,66,90,0
2,66,90,0
2,68,90,0
2,66,90,0
2,66,90,0
2,65,90,0
2,61,90,0
2,61,90,96
2,66,90,0
2,66,90,0
2,65,90,0
2,61,90,0
2,61,90,96
2,66,90,0
2,66,90,0
2,66,90,0
2,65,90,0
2,66,90,0
2,66,90,0
2,66,90,0
2,65,90,0
2,66,90,0
2,66,90,0
2,66,90,0
2,66,90,0
2,65,90,0
2,65,90,0
2,65,90,0
2,65,90,0
2,65,90,0
2,65,90,0
2,65,90,0
2,65,90,0
2,66,90,0
2,66,90,0
2,65,90,0
2,61,90,0
2,61,90,96
2,66,90,0
2,66,90,0
2,66,90,768
2,63,90,0
2,65,90,0
2,66,90,384
2,63,90,0
2,65,90,0
2,68,90,0
2,68,90,96
2,68,90,96
2,68,90,96
2,68,90,96
2,68,90,0
2,70,90,0
2,70,90,96
2,70,90,96
2,70,90,96
2,68,90,96
2,68,90,96
2,68,90,96
2,61,90,288
2,63,90,0
2,65,90,0
3,68,90,384
3,68,90,96
3,68,90,1248
3,68,90,96
3,72,90,96
3,63,90,0
3,72,90,0
3,63,90,0
3,69,90,0
3,70,90,0
3,72,90,0
3,65,90,0
3,68,90,384
3,68,90,96
3,68,90,1248
3,68,90,96
3,68,90,1248
3,68,90,96
3,68,90,1248
3,68,90,96
3,66,90,1632
3,65,90,288
3,66,90,1056
3,63,90,288
3,63,90,0
3,63,90,1536
3,63,90,96
3,61,90,192
3,65,90,192
3,58,90,288
3,63,90,0
3,61,90,288
3,63,90,0
3,63,90,0
3,63,90,0
3,65,90,0
3,61,90,0
3,63,90,0
3,61,90,0
3,61,90,384
3,63,90,0
3,61,90,0
3,65,90,864
3,68,90,384
3,68,90,96
3,68,90,1248
3,68,90,96
3,68,90,1248
3,68,90,96
3,68,90,1248
3,68,90,96
3,66,90,1632
3,65,90,288
3,66,90,1056
3,63,90,288
3,63,90,0
3,63,90,1536
3,63,90,0
3,61,90,0
3,61,90,0
3,63,90,0
3,63,90,0
3,61,90,0
3,61,90,0
3,63,90,0
3,63,90,96
3,61,90,192
3,65,90,192
3,58,90,288
3,63,90,0
3,61,90,288
3,63,90,0
3,63,90,0
3,63,90,0
3,65,90,0
3,61,90,0
3,63,90,0
3,61,90,0
3,61,90,384
3,63,90,0
3,61,90,0
3,63,90,384
3,63,90,0
3,61,90,0
3,61,90,0
3,63,90,0
3,63,90,0
3,61,90,0
3,61,90,0
3,63,90,0
3,61,90,0
3,63,90,0
3,61,90,0
3,61,90,0
3,61,90,0
3,61,90,0
3,61,90,0
3,61,90,0
3,61,90,0
3,61,90,0
3,61,90,0
3,61,90,0
3,63,90,0
3,61,90,0
3,61,90,384
3,63,90,0
3,65,90,4320
3,68,90,384
3,68,90,96
3,60,90,1008
3,61,90,0
4,58,90,0
4,61,90,0
4,65,90,0
4,65,90,0
4,54,90,0
4,56,90,0
4,54,90,0
4,58,90,0
4,56,90,0
4,54,90,0
4,56,90,0
4,57,90,0
4,58,90,0
4,61,90,0
4,65,90,0
4,54,90,0
4,56,90,0
4,54,90,0
4,58,90,0
4,61,90,0
4,65,90,0
4,58,90,0
4,56,90,0
4,54,90,0
4,56,90,0
4,57,90,0
4,46,90,0
4,42,90,0
4,44,90,0
4,42,90,0
4,46,90,0
4,42,90,0
4,44,90,0
4,45,90,0
4,54,90,0
4,53,90,0
4,49,90,0
4,54,90,0
4,53,90,0
4,51,90,0
4,56,90,0
4,44,90,0
4,49,90,0
4,37,90,0
4,51,90,0
4,51,90,0
4,49,90,0
4,47,90,0
4,42,90,0
4,49,90,0
4,51,90,0
4,51,90,0
4,49,90,0
4,47,90,0
4,42,90,0
4,49,90,0
4,51,90,0
4,51,90,0
4,49,90,0
4,47,90,0
4,42,90,0
4,49,90,0
4,46,90,0
4,47,90,0
4,49,90,0
4,49,90,768
4,58,90,384
4,61,90,0
4,65,90,0
4,54,90,0
4,56,90,0
4,54,90,0
4,58,90,0
4,61,90,0
4,65,90,0
4,58,90,0
4,56,90,0
4,54,90,0
4,56,90,0
4,57,90,0
4,46,90,0
4,42,90,0
4,44,90,0
4,42,90,0
4,46,90,0
4,42,90,0
4,44,90,0
4,45,90,0
4,54,90,0
4,53,90,0
4,51,90,0
4,49,90,0
4,54,90,0
4,53,90,0
4,51,90,0
4,56,90,0
4,44,90,0
4,49,90,0
4,37,90,0
4,51,90,0
4,51,90,0
4,49,90,0
4,47,90,0
4,42,90,0
4,49,90,0
4,51,90,0
4,51,90,0
4,49,90,0
4,47,90,0
4,42,90,0
4,49,90,0
4,51,90,0
4,51,90,0
4,49,90,0
4,47,90,0
4,42,90,0
4,49,90,0
4,51,90,0
4,51,90,0
4,49,90,0
4,47,90,0
4,42,90,0
4,49,90,0
4,51,90,0
4,51,90,0
4,49,90,0
4,47,90,0
4,42,90,0
4,49,90,0
4,46,90,0
4,47,90,0
4,49,90,0
4,46,90,0
4,47,90,0
4,49,90,0
4,51,90,0
4,51,90,0
4,49,90,0
4,47,90,0
4,42,90,0
4,49,90,0
4,51,90,0
4,51,90,0
4,49,90,0
4,47,90,0
4,42,90,0
4,49,90,0
4,47,90,0
4,46,90,0
4,44,90,0
4,42,90,0
4,53,90,0
4,51,90,0
4,49,90,0
4,47,90,0
4,46,90,0
4,47,90,0
4,49,90,0
4,46,90,0
4,47,90,0
4,49,90,0
4,46,90,0
4,47,90,0
4,49,90,0
4,46,90,0
4,47,90,0
4,37,90,0
4,58,90,192
4,58,90,0
4,56,90,0
4,54,90,0
4,56,90,0
4,54,90,0
4,46,90,0
5,73,90,3168
5,73,90,0
5,73,90,0
5,73,90,0
5,73,90,0
5,73,90,0
5,75,90,0
5,72,90,0
5,72,90,96
5,72,90,0
5,70,90,0
5,68,90,0
5,66,90,0
5,65,90,0
5,70,90,0
5,70,90,0
5,73,90,1248
5,73,90,0
5,73,90,0
5,73,90,0
5,73,90,0
5,73,90,0
5,75,90,0
5,72,90,0
5,72,90,96
5,72,90,0
5,70,90,0
5,68,90,0
5,66,90,0
5,65,90,0
5,70,90,0
