track,note,velocity,time
1,71,127,0
1,71,0,5
1,64,127,5
1,64,0,43
1,66,127,13
1,66,0,33
1,68,127,26
1,71,127,61
1,68,0,1
1,71,0,97
1,64,122,80
1,66,126,51
1,64,0,1
1,66,0,44
1,68,127,25
1,68,0,31
1,71,127,29
1,71,0,289
1,64,127,103
1,67,127,30
1,64,0,5
1,66,127,40
1,67,0,3
1,66,0,27
1,64,127,0
1,64,0,240
1,62,127,105
1,62,0,60
1,64,127,0
1,64,0,45
1,64,127,15
1,64,0,45
1,62,127,15
1,62,0,45
1,62,127,15
1,62,0,45
1,67,127,15
1,67,0,45
1,66,127,15
1,64,127,30
1,66,0,15
1,64,0,15
1,62,127,0
1,62,0,240
1,64,127,725
1,64,0,43
1,66,127,13
1,66,0,33
1,68,127,24
1,68,0,62
1,71,127,1
1,71,0,98
1,64,122,80
1,66,126,51
1,64,0,1
1,66,0,44
1,68,127,25
1,68,0,31
1,71,127,29
1,71,0,284
1,62,127,105
1,62,0,35
1,67,127,25
1,62,127,62
1,67,0,13
1,62,0,167
1,62,127,238
1,62,0,44
1,67,127,16
1,67,0,60
1,66,127,0
1,66,0,55
1,64,127,5
1,64,0,30
1,62,127,0
1,62,0,210
1,64,127,722
1,64,0,25
1,64,127,37
1,64,0,26
1,64,127,31
1,64,0,27
1,76,127,32
1,76,0,117
1,74,127,3
1,74,0,118
1,69,127,2
1,67,127,45
1,69,0,11
1,67,0,58
1,69,127,6
1,69,0,107
1,67,127,0
1,67,0,66
1,64,127,1
1,64,0,88
1,64,127,281
1,64,0,37
1,76,127,20
1,76,0,51
1,74,127,6
1,74,0,30
1,74,127,40
1,74,0,27
1,74,127,36
1,74,0,49
1,69,127,2
1,69,0,55
1,67,127,4
1,67,0,39
1,69,127,21
1,69,0,90
1,69,127,30
1,67,127,21
1,69,0,17
1,64,127,22
1,67,0,9
1,64,0,47
1,64,124,188
1,64,0,25
1,64,126,30
1,64,0,28
1,64,126,29
1,64,0,51
1,78,127,7
1,76,127,192
1,78,0,6
1,76,0,164
1,74,127,5
1,71,127,179
1,74,0,7
1,71,0,143
1,71,122,15
1,69,127,78
1,71,0,6
1,67,127,51
1,69,0,3
1,67,0,57
1,69,127,0
1,69,0,60
1,67,127,17
1,64,127,5
1,64,0,21
1,64,127,5
1,67,0,9
1,64,0,306
1,64,127,9
1,64,0,101
1,71,127,7
1,64,127,60
1,71,0,11
1,64,0,49
1,62,127,180
1,62,0,45
1,62,127,15
1,62,0,27
1,62,127,33
1,62,0,60
1,64,127,0
1,64,0,72
1,71,127,708
1,69,127,60
1,71,0,11
1,67,127,49
1,69,0,2
1,67,0,324
1,64,127,2614
1,64,0,43
1,66,127,13
1,66,0,33
1,68,127,24
1,68,0,62
1,71,127,1
1,71,0,98
1,64,122,80
1,66,126,51
1,64,0,1
1,66,0,44
1,68,127,14
1,68,0,31
1,71,127,40
1,71,0,2
1,66,127,61
1,66,0,60
1,67,127,0
1,67,0,30
1,66,127,0
1,66,0,30
1,64,127,0
1,64,0,285
1,62,127,126
1,62,0,23
1,62,127,46
1,62,0,23
1,62,127,30
1,62,0,23
1,67,127,29
1,66,127,75
1,67,0,6
1,66,0,22
1,62,127,32
1,64,127,60
1,62,0,1
1,64,0,248
1,62,127,351
1,62,0,57
1,64,127,3
1,62,127,45
1,64,0,6
1,62,0,84
1,64,127,225
1,64,0,64
1,66,127,11
1,66,0,62
1,68,127,43
1,68,0,72
1,71,127,48
1,71,0,78
1,64,127,102
1,66,127,60
1,64,0,1
1,66,0,32
1,68,127,27
1,68,0,25
1,71,127,35
1,71,0,199
1,76,127,51
1,76,0,38
1,79,127,14
1,78,127,30
1,79,0,19
1,78,0,11
1,76,127,0
1,76,0,765
1,67,127,75
1,67,0,69
1,62,127,51
1,62,0,29
1,62,127,31
1,62,0,153
1,64,127,376
1,64,0,28
1,64,127,43
1,64,0,29
1,64,127,31
1,64,0,56
1,76,127,6
1,74,127,116
1,76,0,2
1,69,127,120
1,74,0,5
1,69,0,48
1,67,127,6
1,67,0,43
1,65,127,2
1,69,127,20
1,65,0,3
1,69,0,83
1,67,127,30
1,67,0,30
1,64,127,0
1,64,0,120
1,64,127,163
1,64,0,28
1,64,127,27
1,64,0,29
1,64,127,20
1,64,0,38
1,76,127,85
1,74,127,60
1,76,0,3
1,74,0,77
1,69,127,40
1,69,0,51
1,67,127,9
1,67,0,60
1,69,127,0
1,69,0,69
1,71,127,51
1,69,127,30
1,71,0,1
1,67,127,29
1,69,0,15
1,67,0,15
1,64,127,0
1,64,0,135
1,64,127,87
1,64,0,22
1,64,127,32
1,64,0,25
1,64,127,31
1,64,0,46
1,78,127,6
1,78,0,180
1,76,127,13
1,76,0,181
1,74,127,1
1,71,127,169
1,74,0,8
1,71,0,143
1,71,127,31
1,71,0,60
1,69,127,0
1,69,0,60
1,67,127,0
1,67,0,60
1,64,127,0
1,64,0,60
1,69,127,0
1,69,0,30
1,67,127,0
1,67,0,30
1,64,127,9
1,64,0,264
1,71,100,3
1,83,100,0
1,83,0,3
1,71,0,18
1,62,121,30
1,62,0,23
1,62,115,37
1,62,0,26
1,62,121,34
1,64,78,45
1,62,0,16
1,64,0,44
1,67,127,1888
1,52,127,4
1,67,0,146
1,52,0,15
1,69,127,15
1,54,127,6
1,54,0,136
1,69,0,7
1,71,127,26
1,55,127,4
1,71,0,138
1,55,0,16
1,54,127,25
1,69,127,2
1,69,0,120
1,54,0,12
1,67,127,50
1,52,127,0
1,66,127,30
1,50,127,0
1,52,0,16
1,67,0,3
1,50,0,26
1,66,0,5
1,47,127,25
1,64,127,3
1,64,0,95
1,47,0,7
1,52,127,30
1,67,127,6
1,52,0,129
1,67,0,6
1,69,127,33
1,54,127,3
1,69,0,130
1,54,0,5
1,71,127,28
1,55,127,0
1,55,0,165
1,71,0,2
1,57,127,7
1,73,127,7
1,57,0,143
1,73,0,19
1,74,127,34
1,59,127,0
1,74,0,48
1,73,127,11
1,57,127,0
1,59,0,10
1,71,127,45
1,57,0,4
1,55,127,1
1,73,0,8
1,71,0,36
1,55,0,1
1,73,127,0
1,54,127,4
1,54,0,26
1,71,127,14
1,55,127,0
1,73,0,10
1,55,0,125
1,71,0,15
1,71,127,416
1,71,0,67
1,69,127,2
1,69,0,55
1,67,127,5
1,67,0,61
1,69,127,1
1,67,127,56
1,69,0,3
1,67,0,63
1,69,127,4
1,69,0,112
1,67,127,9
1,64,127,35
1,67,0,15
1,64,0,378
1,67,127,7
1,62,127,20
1,67,0,11
1,62,0,109
1,67,127,376
1,52,127,4
1,67,0,146
1,52,0,15
1,69,127,15
1,54,127,6
1,54,0,136
1,69,0,7
1,71,127,26
1,55,127,4
1,71,0,138
1,55,0,16
1,54,127,25
1,69,127,2
1,54,0,132
1,69,0,3
1,67,127,47
1,52,127,0
1,66,127,30
1,50,127,0
1,52,0,16
1,67,0,3
1,50,0,26
1,66,0,5
1,47,127,25
1,64,127,3
1,47,0,102
1,64,0,3
1,52,127,25
1,67,127,3
1,52,0,36
1,67,0,3
1,69,127,15
1,54,127,3
1,69,0,26
1,54,0,13
1,69,127,19
1,54,127,2
1,54,0,39
1,69,0,1
1,55,127,20
1,71,127,1
1,55,0,38
1,71,0,6
1,54,127,15
1,69,127,0
1,69,0,33
1,54,0,6
1,52,127,6
1,67,127,7
1,52,0,98
1,67,0,10
1,67,127,9
1,67,0,5
1,67,127,121
1,69,127,2
1,71,127,6
1,69,0,2
1,67,0,0
1,69,127,53
1,71,0,17
1,69,0,30
1,67,127,15
1,69,127,51
1,67,0,5
1,69,0,40
1,67,127,31
1,69,127,5
1,67,0,21
1,67,127,137
1,69,0,5
1,64,127,46
1,67,0,33
1,64,0,56
1,64,127,8690
1,64,0,56
1,76,127,6
1,74,127,116
1,76,0,2
1,69,127,120
1,74,0,5
1,69,0,48
1,67,127,6
1,67,0,43
1,65,127,2
1,69,127,20
1,65,0,3
1,69,0,83
1,71,127,30
1,71,0,182
1,64,127,131
1,64,0,28
1,64,127,27
1,64,0,29
1,64,127,20
1,64,0,38
1,76,127,85
1,74,127,60
1,76,0,3
1,74,0,77
1,69,127,40
1,69,0,51
1,67,127,9
1,67,0,60
1,69,127,0
1,69,0,69
1,71,127,51
1,69,127,30
1,71,0,1
1,67,127,29
1,69,0,15
1,67,0,15
1,64,127,0
1,64,0,135
1,64,127,87
1,64,0,22
1,64,127,32
1,64,0,25
1,64,127,31
1,64,0,46
1,78,127,6
1,78,0,180
1,76,127,13
1,76,0,181
1,74,127,1
1,71,127,169
1,74,0,8
1,71,0,143
1,71,127,31
1,71,0,60
1,69,127,0
1,69,0,60
1,67,127,0
1,67,0,60
1,64,127,0
1,64,0,60
1,69,127,0
1,69,0,30
1,67,127,0
1,67,0,30
1,64,127,9
1,64,0,264
1,69,127,1
1,69,0,615
1,69,127,15
1,69,0,39
1,69,127,16
1,69,0,117
1,69,127,23
1,69,0,35
1,69,127,10
1,71,127,75
1,69,0,4
1,69,127,15
1,71,0,13
1,67,127,17
1,69,0,12
1,64,127,27
1,67,0,25
1,64,0,215
1,76,127,0
1,74,127,327
1,76,0,8
1,76,127,34
1,74,0,11
1,76,0,109
1,74,82,78
1,74,0,53
1,76,83,7
1,76,0,120
2,71,127,0
2,71,0,5
2,64,127,5
2,64,0,43
2,66,127,13
2,66,0,33
2,68,127,26
2,71,127,61
2,68,0,1
2,71,0,97
2,64,122,80
2,66,126,51
2,64,0,1
2,66,0,44
2,68,127,25
2,68,0,31
2,71,127,29
2,71,0,289
2,64,127,103
2,67,127,30
2,64,0,5
2,66,127,40
2,67,0,3
2,66,0,27
2,64,127,0
2,64,0,240
2,62,127,105
2,62,0,60
2,64,127,0
2,64,0,45
2,64,127,15
2,64,0,45
2,62,127,15
2,62,0,45
2,62,127,15
2,62,0,45
2,67,127,15
2,67,0,45
2,66,127,15
2,64,127,30
2,66,0,15
2,64,0,15
2,62,127,0
2,62,0,240
2,64,127,725
2,64,0,43
2,66,127,13
2,66,0,33
2,68,127,24
2,68,0,62
2,71,127,1
2,71,0,98
2,64,122,80
2,66,126,51
2,64,0,1
2,66,0,44
2,68,127,25
2,68,0,31
2,71,127,29
2,71,0,284
2,62,127,105
2,62,0,35
2,67,127,25
2,62,127,62
2,67,0,13
2,62,0,167
2,62,127,238
2,62,0,44
2,67,127,16
2,67,0,60
2,66,127,0
2,66,0,55
2,64,127,5
2,64,0,30
2,62,127,0
2,62,0,210
2,64,127,722
2,64,0,25
2,64,127,37
2,64,0,26
2,64,127,31
2,64,0,27
2,76,127,32
2,76,0,117
2,74,127,3
2,74,0,118
2,69,127,2
2,67,127,45
2,69,0,11
2,67,0,58
2,69,127,6
2,69,0,107
2,67,127,0
2,67,0,66
2,64,127,1
2,64,0,88
2,64,127,281
2,64,0,37
2,76,127,20
2,76,0,51
2,74,127,6
2,74,0,30
2,74,127,40
2,74,0,27
2,74,127,36
2,74,0,49
2,69,127,2
2,69,0,55
2,67,127,4
2,67,0,39
2,69,127,21
2,69,0,90
2,69,127,30
2,67,127,21
2,69,0,17
2,64,127,22
2,67,0,9
2,64,0,47
2,64,124,188
2,64,0,25
2,64,126,30
2,64,0,28
2,64,126,29
2,64,0,51
2,78,127,7
2,76,127,192
2,78,0,6
2,76,0,164
2,74,127,5
2,71,127,179
2,74,0,7
2,71,0,143
2,71,122,15
2,69,127,78
2,71,0,6
2,67,127,51
2,69,0,3
2,67,0,57
2,69,127,0
2,69,0,60
2,67,127,17
2,64,127,5
2,64,0,21
2,64,127,5
2,67,0,9
2,64,0,306
2,64,127,9
2,64,0,101
2,71,127,7
2,64,127,60
2,71,0,11
2,64,0,49
2,62,127,180
2,62,0,45
2,62,127,15
2,62,0,27
2,62,127,33
2,62,0,60
2,64,127,0
2,64,0,72
2,71,127,708
2,69,127,60
2,71,0,11
2,67,127,49
2,69,0,2
2,67,0,324
2,64,127,2614
2,64,0,43
2,66,127,13
2,66,0,33
2,68,127,24
2,68,0,62
2,71,127,1
2,71,0,98
2,64,122,80
2,66,126,51
2,64,0,1
2,66,0,44
2,68,127,14
2,68,0,31
2,71,127,40
2,71,0,2
2,66,127,61
2,66,0,60
2,67,127,0
2,67,0,30
2,66,127,0
2,66,0,30
2,64,127,0
2,64,0,285
2,62,127,126
2,62,0,23
2,62,127,46
2,62,0,23
2,62,127,30
2,62,0,23
2,67,127,29
2,66,127,75
2,67,0,6
2,66,0,22
2,62,127,32
2,64,127,60
2,62,0,1
2,64,0,248
2,62,127,351
2,62,0,57
2,64,127,3
2,62,127,45
2,64,0,6
2,62,0,84
2,64,127,225
2,64,0,64
2,66,127,11
2,66,0,62
2,68,127,43
2,68,0,72
2,71,127,48
2,71,0,78
2,64,127,102
2,66,127,60
2,64,0,1
2,66,0,32
2,68,127,27
2,68,0,25
2,71,127,35
2,71,0,199
2,76,127,51
2,76,0,38
2,79,127,14
2,78,127,30
2,79,0,19
2,78,0,11
2,76,127,0
2,76,0,765
2,67,127,75
2,67,0,69
2,62,127,51
2,62,0,29
2,62,127,31
2,62,0,153
2,64,127,376
2,64,0,28
2,64,127,43
2,64,0,29
2,64,127,31
2,64,0,56
2,76,127,6
2,74,127,116
2,76,0,2
2,69,127,120
2,74,0,5
2,69,0,48
2,67,127,6
2,67,0,43
2,65,127,2
2,69,127,20
2,65,0,3
2,69,0,83
2,67,127,30
2,67,0,30
2,64,127,0
2,64,0,120
2,64,127,163
2,64,0,28
2,64,127,27
2,64,0,29
2,64,127,20
2,64,0,38
2,76,127,85
2,74,127,60
2,76,0,3
2,74,0,77
2,69,127,40
2,69,0,51
2,67,127,9
2,67,0,60
2,69,127,0
2,69,0,69
2,71,127,51
2,69,127,30
2,71,0,1
2,67,127,29
2,69,0,15
2,67,0,15
2,64,127,0
2,64,0,135
2,64,127,87
2,64,0,22
2,64,127,32
2,64,0,25
2,64,127,31
2,64,0,46
2,78,127,6
2,78,0,180
2,76,127,13
2,76,0,181
2,74,127,1
2,71,127,169
2,74,0,8
2,71,0,143
2,71,127,31
2,71,0,60
2,69,127,0
2,69,0,60
2,67,127,0
2,67,0,60
2,64,127,0
2,64,0,60
2,69,127,0
2,69,0,30
2,67,127,0
2,67,0,30
2,64,127,9
2,64,0,264
2,71,100,3
2,83,100,0
2,83,0,3
2,71,0,18
2,62,121,30
2,62,0,23
2,62,115,37
2,62,0,26
2,62,121,34
2,64,78,45
2,62,0,16
2,64,0,44
2,67,127,1888
2,52,127,4
2,67,0,146
2,52,0,15
2,69,127,15
2,54,127,6
2,54,0,136
2,69,0,7
2,71,127,26
2,55,127,4
2,71,0,138
2,55,0,16
2,54,127,25
2,69,127,2
2,69,0,120
2,54,0,12
2,67,127,50
2,52,127,0
2,66,127,30
2,50,127,0
2,52,0,16
2,67,0,3
2,50,0,26
2,66,0,5
2,47,127,25
2,64,127,3
2,64,0,95
2,47,0,7
2,52,127,30
2,67,127,6
2,52,0,129
2,67,0,6
2,69,127,33
2,54,127,3
2,69,0,130
2,54,0,5
2,71,127,28
2,55,127,0
2,55,0,165
2,71,0,2
2,57,127,7
2,73,127,7
2,57,0,143
2,73,0,19
2,74,127,34
2,59,127,0
2,74,0,48
2,73,127,11
2,57,127,0
2,59,0,10
2,71,127,45
2,57,0,4
2,55,127,1
2,73,0,8
2,71,0,36
2,55,0,1
2,73,127,0
2,54,127,4
2,54,0,26
2,71,127,14
2,55,127,0
2,73,0,10
2,55,0,125
2,71,0,15
2,71,127,416
2,71,0,67
2,69,127,2
2,69,0,55
2,67,127,5
2,67,0,61
2,69,127,1
2,67,127,56
2,69,0,3
2,67,0,63
2,69,127,4
2,69,0,112
2,67,127,9
2,64,127,35
2,67,0,15
2,64,0,378
2,67,127,7
2,62,127,20
2,67,0,11
2,62,0,109
2,67,127,376
2,52,127,4
2,67,0,146
2,52,0,15
2,69,127,15
2,54,127,6
2,54,0,136
2,69,0,7
2,71,127,26
2,55,127,4
