track,note,velocity,time
1,52,45,0
1,52,0,96
1,57,45,0
1,57,0,96
1,64,45,0
1,64,0,96
1,69,45,0
1,69,0,96
1,71,45,0
1,76,45,0
1,76,0,192
1,71,0,0
1,69,45,0
1,69,0,96
1,64,45,0
1,64,0,96
1,52,45,0
1,52,0,96
1,57,45,0
1,57,0,96
1,64,45,0
1,64,0,96
1,69,45,0
1,69,0,96
1,71,45,0
1,76,45,0
1,76,0,192
1,71,0,0
1,69,45,0
1,69,0,96
1,64,45,0
1,64,0,96
1,52,45,0
1,52,0,96
1,57,45,0
1,57,0,96
1,64,45,0
1,64,0,96
1,69,45,0
1,69,0,96
1,71,45,0
1,76,45,0
1,76,0,192
1,71,0,0
1,69,45,0
1,76,45,0
1,76,0,96
1,69,0,0
1,64,45,0
1,71,45,0
1,71,0,96
1,64,0,0
1,52,45,0
1,64,45,0
1,64,0,96
1,52,0,0
1,57,45,0
1,57,0,96
1,64,45,0
1,64,0,96
1,69,45,0
1,69,0,96
1,73,45,0
1,76,45,0
1,76,0,192
1,73,0,0
1,69,45,0
1,76,45,0
1,76,0,96
1,69,0,0
1,64,45,0
1,64,0,96
1,52,45,0
1,52,0,96
1,57,45,0
1,57,0,96
1,64,45,0
1,64,0,96
1,69,45,0
1,69,0,96
1,73,45,0
1,76,45,0
1,76,0,192
1,73,0,0
1,69,45,0
1,69,0,96
1,64,45,0
1,64,0,96
1,52,45,0
1,52,0,96
1,57,45,0
1,57,0,96
1,64,45,0
1,64,0,96
1,69,45,0
1,69,0,96
1,73,45,0
1,76,45,0
1,76,0,192
1,73,0,0
1,69,45,0
1,69,0,96
1,64,45,0
1,64,0,96
1,52,45,0
1,52,0,96
1,59,45,0
1,59,0,96
1,64,45,0
1,64,0,96
1,68,45,0
1,68,0,96
1,71,45,0
1,76,45,0
1,76,0,192
1,71,0,0
1,68,45,0
1,68,0,96
1,64,45,0
1,64,0,96
1,52,45,0
1,52,0,96
1,59,45,0
1,59,0,96
1,64,45,0
1,64,0,96
1,68,45,0
1,68,0,96
1,71,45,0
1,76,45,0
1,76,0,192
1,71,0,0
1,68,45,0
1,68,0,96
1,64,45,0
1,64,0,96
1,52,45,0
1,52,0,96
1,57,45,0
1,57,0,96
1,64,45,0
1,64,0,96
1,69,45,0
1,69,0,96
1,71,45,0
1,76,45,0
1,76,0,192
1,71,0,0
1,69,45,0
1,69,0,96
1,64,45,0
1,64,0,96
1,52,45,0
1,52,0,96
1,57,45,0
1,57,0,96
1,64,45,0
1,64,0,96
1,69,45,0
1,69,0,96
1,71,45,0
1,76,45,0
1,76,0,192
1,71,0,0
1,69,45,0
1,69,0,96
1,64,45,0
1,64,0,96
1,52,45,0
1,52,0,96
1,59,45,0
1,59,0,96
1,64,45,0
1,64,0,96
1,68,45,0
1,68,0,96
1,71,45,0
1,76,45,0
1,76,0,192
1,71,0,0
1,68,45,0
1,68,0,96
1,64,45,0
1,64,0,96
1,52,45,0
1,52,0,96
1,64,45,96
1,64,0,96
1,68,45,0
1,68,0,96
1,61,45,0
1,61,0,192
1,65,45,0
1,65,0,96
1,61,45,0
1,68,45,0
1,71,45,0
1,77,45,0
1,77,0,192
1,61,0,0
1,68,0,0
1,71,0,0
1,54,45,0
1,61,45,0
1,66,45,0
1,69,45,0
1,73,45,0
1,73,0,192
1,66,0,0
1,54,0,0
1,61,0,0
1,69,0,0
1,69,45,0
1,69,0,96
1,73,45,0
1,78,45,0
1,78,0,192
1,73,0,0
1,69,45,0
1,69,0,96
1,66,45,0
1,66,0,96
1,54,45,0
1,54,0,96
1,59,45,0
1,59,0,96
1,66,45,0
1,66,0,96
1,71,45,0
1,71,0,96
1,75,45,0
1,78,45,0
1,78,0,192
1,75,0,0
1,71,45,0
1,71,0,96
1,66,45,0
1,66,0,96
1,54,45,0
1,54,0,96
1,59,45,0
1,76,45,0
1,76,0,192
1,59,0,0
1,71,45,0
1,71,0,96
1,66,45,0
1,66,0,96
1,59,45,0
1,75,45,0
1,75,0,192
1,59,0,0
1,71,45,0
1,71,0,96
1,66,45,0
1,66,0,96
1,59,45,0
1,73,45,0
1,73,0,192
1,59,0,0
1,71,45,0
1,71,0,96
1,66,45,0
1,66,0,96
1,59,45,0
1,69,45,0
1,69,0,192
1,59,0,0
1,71,45,0
1,71,0,96
1,66,45,0
1,66,0,96
1,62,45,0
1,62,0,96
1,69,45,0
1,69,0,96
1,74,45,0
1,74,0,96
1,62,45,0
1,62,0,96
1,69,45,0
1,69,0,48
1,71,45,0
1,71,0,48
1,69,45,0
1,69,0,96
1,66,45,0
1,66,0,96
1,68,45,0
1,68,0,96
1,52,45,0
1,59,45,12
1,64,45,12
1,68,45,12
1,71,45,12
1,76,45,12
1,76,0,516
1,59,0,0
1,64,0,0
1,52,0,0
1,71,0,0
1,68,0,0
1,52,45,96
1,52,0,96
1,57,45,0
1,57,0,96
1,64,45,0
1,64,0,96
1,69,45,0
1,69,0,96
1,71,45,0
1,76,45,0
1,76,0,192
1,71,0,0
1,69,45,0
1,69,0,96
1,64,45,0
1,64,0,96
1,52,45,0
1,52,0,96
1,57,45,0
1,57,0,96
1,64,45,0
1,64,0,96
1,69,45,0
1,69,0,96
1,71,45,0
1,76,45,0
1,76,0,192
1,71,0,0
1,69,45,0
1,69,0,96
1,64,45,0
1,64,0,96
1,52,45,0
1,52,0,96
1,57,45,0
1,57,0,96
1,64,45,0
1,64,0,96
1,68,45,0
1,68,0,96
1,71,45,0
1,76,45,0
1,76,0,192
1,71,0,0
1,68,45,0
1,68,0,96
1,64,45,0
1,64,0,96
1,52,45,0
1,52,0,96
1,57,45,0
1,57,0,96
1,64,45,0
1,64,0,96
1,68,45,0
1,68,0,96
1,71,45,0
1,76,45,0
1,76,0,192
1,71,0,0
1,68,45,0
1,68,0,96
1,64,45,0
1,64,0,96
1,52,45,0
1,52,0,96
1,55,45,0
1,67,45,0
1,67,0,96
1,55,0,0
1,55,45,0
1,67,45,0
1,67,0,288
1,55,0,0
1,71,45,0
1,71,0,96
1,69,45,0
1,69,0,96
1,71,45,0
1,71,0,96
1,62,45,0
1,62,0,96
1,57,45,0
1,57,0,96
1,62,45,0
1,62,0,96
1,69,45,0
1,69,0,96
1,74,45,0
1,76,45,0
1,76,0,192
1,74,0,0
1,69,45,0
1,69,0,96
1,62,45,0
1,62,0,96
1,52,45,0
1,52,0,96
1,57,45,0
1,57,0,96
1,64,45,0
1,64,0,96
1,69,45,0
1,69,0,96
1,71,45,0
1,76,45,0
1,76,0,192
1,71,0,0
1,69,45,0
1,69,0,96
1,64,45,0
1,64,0,96
1,52,45,0
1,52,0,96
1,57,45,0
1,57,0,96
1,64,45,0
1,64,0,96
1,68,45,0
1,68,0,96
1,71,45,0
1,76,45,0
1,76,0,192
1,71,0,0
1,68,45,0
1,68,0,96
1,64,45,0
1,64,0,96
1,54,45,0
1,54,0,96
1,61,45,0
1,61,0,96
1,66,45,0
1,66,0,96
1,69,45,0
1,69,0,96
1,73,45,0
1,78,45,0
1,78,0,192
1,73,0,0
1,69,45,0
1,69,0,96
1,66,45,0
1,66,0,96
1,56,45,0
1,56,0,96
1,61,45,0
1,61,0,96
1,68,45,0
1,68,0,96
1,73,45,0
1,73,0,96
1,76,45,0
1,80,45,0
1,80,0,192
1,76,0,0
1,73,45,0
1,73,0,96
1,68,45,0
1,68,0,96
1,54,45,0
1,54,0,96
1,61,45,0
1,61,0,96
1,66,45,0
1,66,0,96
1,69,45,0
1,69,0,96
1,73,45,0
1,78,45,0
1,78,0,192
1,73,0,0
1,69,45,0
1,69,0,96
1,66,45,0
1,66,0,96
1,54,45,0
1,54,0,96
1,59,45,0
1,59,0,96
1,66,45,0
1,66,0,96
1,71,45,0
1,71,0,96
1,75,45,0
1,78,45,0
1,78,0,192
1,75,0,0
1,71,45,0
1,71,0,96
1,66,45,0
1,66,0,96
1,54,45,0
1,54,0,96
1,59,45,0
1,59,0,96
1,66,45,0
1,66,0,96
1,71,45,0
1,71,0,96
1,75,45,0
1,78,45,0
1,78,0,192
1,75,0,0
1,71,45,0
1,71,0,96
1,66,45,0
1,66,0,96
1,54,45,0
1,63,45,0
1,63,0,96
1,54,0,0
1,62,45,0
1,62,0,96
1,69,45,0
1,69,0,96
1,74,45,0
1,74,0,96
1,76,45,0
1,76,0,96
1,74,45,0
1,74,0,96
1,69,45,0
1,69,0,96
1,62,45,0
1,62,0,96
1,57,45,0
1,57,0,96
1,62,45,0
1,69,45,12
1,74,45,12
1,76,45,12
1,76,0,588
1,62,0,0
1,69,0,0
1,74,0,0
1,52,45,48
1,52,0,96
1,57,45,0
1,57,0,96
1,64,45,0
1,64,0,96
1,68,45,0
1,68,0,96
1,71,45,0
1,76,45,0
1,76,0,192
1,71,0,0
1,68,45,0
1,68,0,96
1,64,45,0
1,64,0,96
1,52,45,0
1,52,0,96
1,57,45,0
1,57,0,96
1,64,45,0
1,64,0,96
1,68,45,0
1,68,0,96
1,71,45,0
1,76,45,0
1,76,0,192
1,71,0,0
1,68,45,0
1,68,0,96
1,64,45,0
1,64,0,96
1,52,45,0
1,52,0,96
1,57,45,0
1,57,0,96
1,64,45,0
1,64,0,96
1,69,45,0
1,69,0,96
1,71,45,0
1,76,45,0
1,76,0,192
1,71,0,0
1,69,45,0
1,69,0,96
1,64,45,0
1,64,0,96
1,52,45,0
1,52,0,96
1,57,45,0
1,57,0,96
1,64,45,0
1,64,0,96
1,69,45,0
1,69,0,96
1,73,45,0
1,76,45,0
1,76,0,192
1,73,0,0
1,69,45,0
1,69,0,96
1,64,45,0
1,64,0,96
1,52,45,0
1,52,0,96
1,57,45,0
1,57,0,96
1,64,45,0
1,64,0,96
1,69,45,0
1,69,0,96
1,73,45,0
1,76,45,0
1,76,0,192
1,73,0,0
1,69,45,0
1,69,0,96
1,64,45,0
1,64,0,96
1,52,45,0
1,52,0,96
1,57,45,0
1,57,0,96
1,64,45,0
1,64,0,96
1,69,45,0
1,69,0,96
1,73,45,0
1,76,45,0
1,76,0,192
1,73,0,0
1,69,45,0
1,69,0,96
1,64,45,0
1,64,0,96
1,52,45,0
1,52,0,96
1,59,45,0
1,59,0,96
1,64,45,0
1,64,0,96
1,68,45,0
1,68,0,96
1,71,45,0
1,76,45,0
1,76,0,192
1,71,0,0
1,68,45,0
1,68,0,96
1,64,45,0
1,64,0,96
1,52,45,0
1,52,0,96
1,59,45,0
1,59,0,96
1,64,45,0
1,64,0,96
1,68,45,0
1,68,0,96
1,71,45,0
1,76,45,0
1,76,0,192
1,71,0,0
1,68,45,0
1,68,0,96
1,64,45,0
1,64,0,96
1,52,45,0
1,52,0,96
1,57,45,0
1,57,0,96
1,64,45,0
1,64,0,96
1,69,45,0
1,69,0,96
1,71,45,0
1,76,45,0
1,76,0,192
1,71,0,0
1,69,45,0
1,69,0,96
1,64,45,0
1,64,0,96
1,52,45,0
1,52,0,96
1,57,45,0
1,57,0,96
1,64,45,0
1,64,0,96
1,69,45,0
1,69,0,96
1,71,45,0
1,76,45,0
1,76,0,192
1,71,0,0
1,69,45,0
1,69,0,96
1,64,45,0
1,64,0,96
1,52,45,0
1,52,0,96
1,59,45,0
1,59,0,96
1,64,45,0
1,64,0,96
1,68,45,0
1,68,0,96
1,71,45,0
1,76,45,0
1,76,0,192
1,71,0,0
1,68,45,0
1,68,0,96
1,64,45,0
1,64,0,96
1,52,45,0
1,52,0,96
1,64,45,96
1,64,0,96
1,68,45,0
1,68,0,96
1,61,45,0
1,61,0,192
1,65,45,0
1,65,0,96
1,61,45,0
1,68,45,0
1,71,45,0
1,77,45,0
1,77,0,192
1,61,0,0
1,68,0,0
1,71,0,0
1,54,45,0
1,61,45,0
1,66,45,0
1,69,45,0
1,73,45,0
1,73,0,192
1,66,0,0
1,54,0,0
1,61,0,0
1,69,0,0
1,69,45,0
1,69,0,96
1,73,45,0
1,78,45,0
1,78,0,192
1,73,0,0
1,69,45,0
1,69,0,96
1,66,45,0
1,66,0,96
1,54,45,0
1,54,0,96
1,59,45,0
1,59,0,96
1,66,45,0
1,66,0,96
1,71,45,0
1,71,0,96
1,75,45,0
1,78,45,0
1,78,0,192
1,75,0,0
1,71,45,0
1,71,0,96
1,66,45,0
1,66,0,96
1,54,45,0
1,54,0,96
1,59,45,0
1,76,45,0
1,76,0,192
1,59,0,0
1,71,45,0
1,71,0,96
1,66,45,0
1,66,0,96
1,59,45,0
1,75,45,0
1,75,0,192
1,59,0,0
1,71,45,0
1,71,0,96
1,66,45,0
1,66,0,96
1,59,45,0
1,73,45,0
1,73,0,192
1,59,0,0
1,71,45,0
1,71,0,96
1,66,45,0
1,66,0,96
1,59,45,0
1,69,45,0
1,69,0,192
1,59,0,0
1,71,45,0
1,71,0,96
1,66,45,0
1,66,0,96
1,62,45,0
1,62,0,96
1,69,45,0
1,69,0,96
1,74,45,0
1,74,0,96
1,62,45,0
1,62,0,96
1,69,45,0
1,69,0,48
1,71,45,0
1,71,0,48
1,69,45,0
1,69,0,96
1,66,45,0
1,66,0,96
1,68,45,0
1,68,0,96
1,52,45,0
1,59,45,12
1,64,45,12
1,68,45,12
1,71,45,12
1,76,45,12
1,76,0,516
1,59,0,0
1,64,0,0
1,52,0,0
1,71,0,0
1,68,0,0
1,52,45,96
1,52,0,96
1,57,45,0
1,57,0,96
1,64,45,0
1,64,0,96
1,69,45,0
1,69,0,96
1,71,45,0
1,76,45,0
1,76,0,192
1,71,0,0
1,69,45,0
1,69,0,96
1,64,45,0
1,64,0,96
1,52,45,0
1,52,0,96
1,57,45,0
1,57,0,96
1,64,45,0
1,64,0,96
1,69,45,0
1,69,0,96
1,71,45,0
1,76,45,0
1,76,0,192
1,71,0,0
1,69,45,0
1,69,0,96
1,64,45,0
1,64,0,96
1,52,45,0
1,52,0,96
1,57,45,0
1,57,0,96
1,64,45,0
1,64,0,96
1,68,45,0
1,68,0,96
1,71,45,0
1,76,45,0
1,76,0,192
1,71,0,0
1,68,45,0
1,68,0,96
1,64,45,0
1,64,0,96
1,52,45,0
1,52,0,96
1,57,45,0
1,57,0,96
1,64,45,0
1,64,0,96
1,68,45,0
1,68,0,96
1,71,45,0
1,76,45,0
1,76,0,192
1,71,0,0
1,68,45,0
1,68,0,96
1,64,45,0
1,64,0,96
1,52,45,0
1,52,0,96
1,55,45,0
1,67,45,0
1,67,0,96
1,55,0,0
1,55,45,0
1,67,45,0
1,67,0,288
1,55,0,0
1,71,45,0
1,71,0,96
1,69,45,0
1,69,0,96
1,71,45,0
1,71,0,96
1,62,45,0
1,62,0,96
1,57,45,0
1,57,0,96
1,62,45,0
1,62,0,96
1,69,45,0
1,69,0,96
1,74,45,0
1,76,45,0
1,76,0,192
1,74,0,0
1,69,45,0
1,69,0,96
1,62,45,0
1,62,0,96
1,52,45,0
1,52,0,96
1,57,45,0
1,57,0,96
1,64,45,0
1,64,0,96
1,69,45,0
1,69,0,96
1,71,45,0
1,76,45,0
1,76,0,192
1,71,0,0
1,69,45,0
1,69,0,96
1,64,45,0
1,64,0,96
1,52,45,0
1,52,0,96
1,57,45,0
1,57,0,96
1,64,45,0
1,64,0,96
1,68,45,0
1,68,0,96
1,71,45,0
1,76,45,0
1,76,0,192
1,71,0,0
1,68,45,0
1,68,0,96
1,64,45,0
1,64,0,96
1,54,45,0
1,54,0,96
1,61,45,0
1,61,0,96
1,66,45,0
1,66,0,96
1,69,45,0
1,69,0,96
1,73,45,0
1,78,45,0
1,78,0,192
1,73,0,0
1,69,45,0
1,69,0,96
1,66,45,0
1,66,0,96
1,56,45,0
1,56,0,96
1,61,45,0
1,61,0,96
1,68,45,0
1,68,0,96
1,73,45,0
1,73,0,96
1,76,45,0
1,80,45,0
1,80,0,192
1,76,0,0
1,73,45,0
1,73,0,96
1,68,45,0
1,68,0,96
1,54,45,0
1,54,0,96
1,61,45,0
1,61,0,96
1,66,45,0
1,66,0,96
1,69,45,0
1,69,0,96
