track,note,velocity,time
1,31,114,2372
1,31,104,56
1,31,108,84
1,31,104,68
1,31,102,72
1,31,104,72
1,31,106,71
1,31,92,69
1,31,98,81
1,31,106,81
1,31,90,89
1,31,90,75
1,31,100,84
1,31,94,79
1,31,102,80
1,38,112,20
1,36,84,11
1,36,88,64
1,36,100,64
1,36,96,67
1,36,100,79
1,36,94,72
1,36,102,80
1,36,100,74
1,36,100,76
1,36,90,80
1,36,98,84
1,36,100,84
1,36,92,91
1,36,100,80
1,36,106,88
1,38,108,45
1,31,108,20
1,31,86,63
1,31,88,88
1,31,96,85
1,31,92,83
1,31,90,80
1,31,86,72
1,31,86,92
1,31,98,89
1,31,100,96
1,31,100,79
1,31,100,96
1,31,102,87
1,31,90,86
1,31,96,81
1,31,100,87
1,36,106,27
1,36,86,63
1,36,90,75
1,36,92,85
1,36,98,69
1,36,100,73
1,36,102,72
1,36,98,75
1,36,98,80
1,36,100,80
1,36,98,82
1,36,100,82
1,36,100,84
1,36,100,88
1,36,110,101
1,38,110,44
1,31,106,20
1,31,98,84
1,31,92,96
1,31,86,81
1,31,88,84
1,31,86,88
1,31,88,84
1,31,100,80
1,31,98,87
1,31,88,96
1,31,92,92
1,31,100,92
1,31,88,87
1,31,94,87
1,31,96,87
1,31,96,97
1,35,92,24
1,35,86,84
1,35,84,71
1,35,88,65
1,35,88,68
1,35,88,80
1,35,90,72
1,35,84,65
1,35,90,72
1,35,90,72
1,35,90,80
1,35,86,79
1,35,94,79
1,35,94,81
1,35,88,76
1,35,92,73
1,36,104,87
1,36,86,92
1,36,100,80
1,36,84,71
1,36,84,84
1,36,88,72
1,36,100,88
1,36,86,72
1,36,102,82
1,36,88,80
1,36,96,78
1,36,96,80
1,36,92,80
1,36,94,72
1,36,100,75
1,36,104,68
1,31,108,32
1,31,106,84
1,31,102,87
1,31,96,92
1,31,96,88
1,31,86,84
1,31,88,99
1,31,90,83
1,31,100,93
1,31,84,89
1,31,88,97
1,31,86,95
1,31,104,89
1,31,92,85
1,31,96,89
1,31,102,81
1,31,106,92
1,31,98,84
1,31,92,97
1,31,86,81
1,31,88,82
1,31,86,87
1,31,88,84
1,31,100,79
1,31,98,89
1,31,88,95
1,31,92,92
1,31,100,91
1,31,88,84
1,31,94,88
1,31,96,87
1,31,96,96
1,35,92,25
1,35,86,83
1,35,84,73
1,35,88,64
1,35,88,67
1,35,88,78
1,35,90,74
1,35,84,65
1,35,90,72
1,35,90,74
1,35,90,80
1,35,86,80
1,35,94,80
1,35,94,80
1,35,88,77
1,35,92,72
1,36,104,88
1,36,86,92
1,36,100,79
1,36,84,72
1,36,84,83
1,36,88,73
1,36,100,89
1,36,86,72
1,36,102,84
1,36,88,80
1,36,96,79
1,36,96,81
1,36,92,79
1,36,94,72
1,36,100,76
1,36,104,68
1,38,114,32
1,38,104,99
1,38,108,104
1,38,88,80
1,38,108,97
1,38,90,85
1,38,106,74
1,33,114,24
1,38,106,11
1,38,100,87
1,38,104,105
1,38,104,96
1,38,106,100
1,38,110,88
1,38,106,83
1,38,112,97
1,31,114,109
1,31,104,40
1,31,104,64
1,31,100,70
1,31,94,85
1,31,94,59
1,31,100,71
1,31,100,66
1,31,104,77
1,31,100,72
1,31,92,65
1,31,98,84
1,31,104,72
1,43,114,8
1,31,106,191
1,43,98,3
1,28,114,194
1,28,92,73
1,28,102,72
1,28,98,72
1,28,92,63
1,28,94,64
1,28,100,77
1,28,92,80
1,28,98,83
1,28,84,80
1,28,98,83
1,28,104,68
1,28,102,79
1,28,110,88
1,28,114,69
1,28,114,72
1,36,102,29
1,36,88,52
1,36,94,61
1,36,102,71
1,36,88,51
1,36,86,60
1,36,104,56
1,36,88,56
1,36,104,80
1,36,90,71
1,36,100,79
1,36,90,79
1,36,100,75
1,36,96,76
1,36,106,83
1,36,102,76
1,38,108,85
1,38,86,75
1,38,110,72
1,38,102,73
1,38,106,84
1,38,104,81
1,38,108,81
1,33,114,7
1,38,114,17
1,38,110,78
1,38,106,55
1,38,112,81
1,38,108,59
1,38,110,73
1,38,114,68
1,38,114,71
1,31,110,89
1,31,104,21
1,31,104,32
1,31,106,83
1,31,90,52
1,31,98,48
1,31,106,51
1,31,100,68
1,31,102,79
1,31,100,56
1,31,108,73
1,31,112,80
1,31,114,56
1,31,108,63
1,31,114,55
1,31,114,71
1,36,104,24
1,36,96,48
1,36,104,77
1,36,102,62
1,36,100,63
1,36,86,59
1,36,106,88
1,36,98,48
1,36,102,69
1,36,88,68
1,36,104,64
1,36,92,71
1,36,98,72
1,36,102,48
1,36,104,64
1,36,108,72
1,31,114,80
1,31,94,83
1,31,102,68
1,31,98,63
1,31,90,63
1,31,94,67
1,31,92,71
1,31,98,81
1,31,98,63
1,31,98,84
1,31,102,68
1,31,100,71
1,31,102,56
1,31,104,60
1,31,108,76
1,31,106,65
1,36,102,16
1,36,92,63
1,36,104,59
1,36,86,63
1,36,102,65
1,36,88,68
1,36,102,68
1,36,88,76
1,36,104,64
1,36,88,81
1,36,104,66
1,36,94,76
1,36,102,77
1,36,102,76
1,36,106,72
1,36,114,81
1,31,106,90
1,31,98,83
1,31,92,96
1,31,86,80
1,31,88,84
1,31,86,88
1,31,88,84
1,31,100,80
1,31,98,87
1,31,88,96
1,31,92,91
1,31,100,92
1,31,88,88
1,31,94,87
1,31,96,88
1,31,96,96
1,35,92,25
1,35,86,85
1,35,84,72
1,35,88,65
1,35,88,68
1,35,88,79
1,35,90,71
1,35,84,65
1,35,90,72
1,35,90,73
1,35,90,80
1,35,86,79
1,35,94,81
1,35,94,79
1,35,88,75
1,35,92,73
1,36,104,87
1,36,86,94
1,36,100,80
1,36,84,71
1,36,84,84
1,36,88,72
1,36,100,88
1,36,86,72
1,36,102,84
1,36,88,81
1,36,96,80
1,36,96,79
1,36,92,79
1,36,94,73
1,36,100,75
1,36,104,68
1,31,108,33
1,31,106,85
1,31,102,87
1,31,96,91
1,31,96,88
1,31,86,84
1,31,88,100
1,31,90,83
1,31,100,92
1,31,84,87
1,31,88,96
1,31,86,97
1,31,104,89
1,31,92,84
1,31,96,88
1,31,102,80
1,31,106,92
1,31,98,84
1,31,92,97
1,31,86,80
1,31,88,84
1,31,86,88
1,31,88,85
1,31,100,80
1,31,98,88
1,31,88,96
1,31,92,93
1,31,100,92
1,31,88,85
1,31,94,89
1,31,96,89
1,31,96,96
1,35,92,24
1,35,86,83
1,35,84,73
1,35,88,65
1,35,88,68
1,35,88,79
1,35,90,72
1,35,84,63
1,35,90,73
1,35,90,73
1,35,90,79
1,35,86,79
1,35,94,80
1,35,94,79
1,35,88,76
1,35,92,72
1,36,104,87
1,36,86,92
1,36,100,80
1,36,84,73
1,36,84,82
1,36,88,71
1,36,100,89
1,36,86,73
1,36,102,85
1,36,88,79
1,36,96,75
1,36,96,79
1,36,92,80
1,36,94,71
1,36,100,76
1,36,104,67
1,38,114,32
1,38,104,100
1,38,108,104
1,38,88,79
1,38,108,95
1,38,90,85
1,38,106,73
1,33,114,24
1,38,106,12
1,38,100,89
1,38,104,105
1,38,104,96
1,38,106,100
1,38,110,87
1,38,106,83
1,38,112,96
1,31,114,107
1,31,104,38
1,31,104,63
1,31,100,68
1,31,94,85
1,31,94,60
1,31,100,72
1,31,100,69
1,31,104,76
1,31,100,73
1,31,92,64
1,31,98,84
1,31,104,72
1,43,114,7
1,31,106,193
1,43,98,3
1,28,114,192
1,28,92,73
1,28,102,73
1,28,98,73
1,28,92,63
1,28,94,64
1,28,100,76
1,28,92,80
1,28,98,85
1,28,84,80
1,28,98,82
1,28,104,67
1,28,102,80
1,28,110,87
1,28,114,68
1,28,114,72
1,36,102,28
1,36,88,53
1,36,94,60
1,36,102,71
1,36,88,51
1,36,86,60
1,36,104,56
1,36,88,56
1,36,104,81
1,36,90,72
1,36,100,81
1,36,90,80
1,36,100,76
1,36,96,76
1,36,106,85
1,36,102,78
1,38,108,84
1,38,86,75
1,38,110,71
1,38,102,73
1,38,106,84
1,38,104,80
1,38,108,80
1,33,114,7
1,38,114,16
1,38,110,81
1,38,106,56
1,38,112,78
1,38,108,60
1,38,110,72
1,38,114,68
1,38,114,69
1,31,110,89
1,31,104,21
1,31,104,31
1,31,106,85
1,31,90,53
1,31,98,47
1,31,106,52
1,31,100,69
1,31,102,80
1,31,100,57
1,31,108,73
1,31,112,79
1,31,114,56
1,31,108,65
1,31,114,56
1,31,114,71
1,36,104,24
1,36,96,50
1,36,104,76
1,36,102,64
1,36,100,64
1,36,86,59
1,36,106,87
1,36,98,48
1,36,102,69
1,36,88,68
1,36,104,64
1,36,92,72
1,36,98,72
1,36,102,48
1,36,104,63
1,36,108,71
1,31,114,80
1,31,94,85
1,31,102,68
1,31,98,63
1,31,90,63
1,31,94,67
1,31,92,72
1,31,98,81
1,31,98,64
1,31,98,85
1,31,102,68
1,31,100,71
1,31,102,56
1,31,104,60
1,31,108,76
1,31,106,65
1,36,102,16
1,36,92,64
1,36,104,60
1,36,86,62
1,36,102,62
1,36,88,69
1,36,102,69
1,36,88,75
1,36,104,65
1,36,88,80
1,36,104,69
1,36,94,76
1,36,102,76
1,36,102,76
1,36,106,72
1,36,114,80
1,38,114,90
1,38,92,99
1,38,104,91
1,38,94,88
1,38,106,110
1,38,90,93
1,38,106,92
1,38,92,88
1,38,106,81
1,38,84,85
1,38,108,105
1,38,108,91
1,38,104,101
1,38,88,95
1,38,114,95
1,38,110,88
1,40,104,72
1,40,104,103
1,40,102,96
1,40,108,101
1,40,108,111
1,40,104,101
1,40,106,109
1,35,108,15
1,28,92,11
1,28,84,96
1,28,90,80
1,28,90,96
1,28,90,83
1,28,106,95
1,28,112,92
1,28,104,72
1,36,114,35
1,36,88,68
1,36,104,73
1,36,102,81
1,36,102,69
1,36,98,80
1,36,108,88
1,36,104,100
1,36,114,71
1,36,108,82
1,36,114,85
1,36,108,81
1,36,114,71
1,36,114,91
1,36,114,76
1,36,114,81
1,31,106,96
1,31,98,83
1,31,92,96
1,31,86,80
1,31,88,84
1,31,86,87
1,31,88,84
1,31,100,80
1,31,98,88
1,31,88,98
1,31,92,92
1,31,100,92
1,31,88,83
1,31,94,88
1,31,96,89
1,31,96,95
1,35,92,24
1,35,86,84
1,35,84,72
1,35,88,63
1,35,88,67
1,35,88,80
1,35,90,72
1,35,84,64
1,35,90,71
1,35,90,71
1,35,90,79
1,35,86,79
1,35,94,80
1,35,94,80
1,35,88,76
1,35,92,72
1,36,104,89
1,36,86,91
1,36,100,81
1,36,84,72
1,36,84,82
1,36,88,72
1,36,100,88
1,36,86,71
1,36,102,83
1,36,88,78
1,36,96,79
1,36,96,81
1,36,92,81
1,36,94,73
1,36,100,76
1,36,104,67
1,38,114,31
1,38,104,100
1,38,108,105
1,38,88,80
1,38,108,94
1,38,90,83
1,38,106,71
1,33,114,23
1,38,114,13
1,31,114,1356
1,31,104,41
1,31,104,63
1,31,100,67
1,31,94,83
1,31,94,59
1,31,100,73
1,31,100,69
1,31,104,75
1,31,100,72
1,31,92,65
1,31,98,84
1,31,104,71
1,43,114,9
1,31,106,191
1,43,98,4
1,28,114,192
1,28,92,74
1,28,102,71
1,28,98,72
1,28,92,65
1,28,94,63
1,28,100,76
1,28,92,80
1,28,98,84
1,28,84,80
1,28,98,84
1,28,104,68
1,28,102,79
1,28,110,87
1,28,114,68
1,28,114,72
1,36,102,27
1,36,88,51
1,36,94,59
1,36,102,73
1,36,88,53
1,36,86,60
1,36,104,56
1,36,88,56
1,36,104,80
1,36,90,71
1,36,100,81
1,36,90,79
1,36,100,76
1,36,96,77
1,36,106,81
1,36,102,76
1,38,108,83
1,38,86,77
1,38,110,73
1,38,102,72
1,38,106,85
1,38,104,80
1,38,108,80
1,33,114,9
1,38,114,16
1,38,110,80
1,38,106,56
1,38,112,80
1,38,108,60
1,38,110,72
1,38,114,68
1,38,114,71
1,38,114,88
1,38,114,48
1,38,114,65
1,33,114,9
1,38,114,16
1,33,114,192
1,38,114,27
1,31,110,111
1,31,104,20
1,31,104,31
1,31,106,82
1,31,90,53
1,31,98,46
1,31,106,53
1,31,100,69
1,31,102,80
1,31,100,56
1,31,108,71
1,31,112,80
1,31,114,56
1,31,108,64
1,31,114,56
1,31,114,72
1,36,104,23
1,36,96,47
1,36,104,76
1,36,102,62
1,36,100,65
1,36,86,60
1,36,106,88
1,36,98,48
1,36,102,69
1,36,88,68
1,36,104,65
1,36,92,72
1,36,98,71
1,36,102,48
1,36,104,64
1,36,108,72
1,31,114,80
1,31,94,83
1,31,102,69
1,31,98,63
1,31,90,65
1,31,94,68
1,31,92,73
1,31,98,80
1,31,98,64
1,31,98,84
1,31,102,68
1,31,100,72
1,31,102,55
1,31,104,60
1,31,108,76
1,31,106,64
1,36,102,15
1,36,92,63
1,36,104,60
1,36,86,63
1,36,102,63
1,36,88,69
1,36,102,68
1,36,88,75
1,36,104,64
1,36,88,80
1,36,104,68
1,36,94,76
1,36,102,75
1,36,102,76
1,36,106,72
1,36,114,80
1,31,110,93
1,31,104,20
1,31,104,34
1,31,106,85
1,31,90,52
1,31,98,48
1,31,106,52
1,31,100,69
1,31,102,81
1,31,100,57
1,31,108,71
1,31,112,81
1,31,114,55
1,31,108,65
1,31,114,56
1,31,114,72
1,36,104,25
1,36,96,48
1,36,104,75
1,36,102,65
1,36,100,63
1,36,86,60
1,36,106,87
1,36,98,48
1,36,102,68
1,36,88,67
1,36,104,64
1,36,92,72
1,36,98,73
1,36,102,49
1,36,104,65
1,36,108,73
1,31,114,80
1,31,94,84
1,31,102,68
1,31,98,64
1,31,90,66
1,31,94,69
1,31,92,72
1,31,98,81
1,31,98,65
1,31,98,85
1,31,102,69
1,31,100,74
1,31,102,55
1,31,104,59
1,31,108,77
1,31,106,64
1,36,102,16
1,36,92,66
1,36,104,60
1,36,86,66
1,36,102,63
1,36,88,68
1,36,102,68
1,36,88,74
1,36,104,64
1,36,88,81
1,36,104,68
1,36,94,75
1,36,102,76
1,36,102,75
1,36,106,72
1,36,114,80
1,31,114,92
2,67,104,2012
2,62,112,0
2,59,104,0
2,43,106,0
2,57,100,144
2,62,110,0
2,66,102,0
2,67,102,88
2,62,102,0
2,59,94,0
2,55,102,87
2,64,106,0
2,60,106,2
2,55,98,104
2,60,106,0
2,64,106,0
2,62,106,116
2,66,102,0
2,57,102,1
2,67,102,92
2,62,110,2
2,59,104,0
2,57,104,111
2,62,106,0
2,66,106,0
2,62,104,82
2,59,92,0
2,67,104,3
2,55,100,115
2,64,106,1
2,60,104,0
2,64,104,104
2,55,100,0
2,60,102,0
2,64,102,95
2,55,100,0
2,60,104,0
2,43,94,137
2,59,100,0
2,55,90,0
2,50,72,0
2,62,84,8
2,59,66,0
2,47,82,0
2,66,60,0
2,47,100,114
2,59,104,17
2,62,88,0
2,64,102,4
2,55,82,0
2,48,88,1
2,60,92,0
2,48,68,9
2,55,86,0
2,64,102,89
2,60,90,0
2,62,104,116
2,43,68,25
2,59,84,0
2,55,80,0
2,50,106,2111
2,55,102,20
2,59,84,148
2,62,100,191
2,59,94,149
2,62,94,0
2,55,80,0
2,43,92,0
2,50,106,1921
2,55,90,0
2,57,106,88
2,62,104,0
2,66,66,16
2,62,80,0
2,47,84,1
2,59,72,0
2,59,90,11
2,62,102,0
2,66,86,0
2,47,100,0
2,67,102,504
2,48,86,0
2,60,94,0
2,55,82,0
2,64,102,4
2,55,102,212
2,60,82,116
2,62,110,71
2,67,106,0
2,59,78,16
2,62,100,1
2,57,64,0
2,50,92,0
2,66,88,0
2,50,102,109
2,57,102,0
2,66,92,0
2,62,106,0
2,57,86,9
2,50,110,124
2,57,104,17
2,62,116,0
2,66,110,0
2,57,88,60
2,66,102,116
2,62,106,0
2,59,104,0
2,50,106,168
2,57,100,1
2,62,110,0
2,66,102,0
2,59,102,140
2,55,90,0
2,62,102,0
2,43,92,0
2,50,102,384
2,57,112,81
2,62,106,0
2,62,110,305
