track,note,velocity,time
1,66,79,3
1,56,83,0
1,61,92,0
1,63,83,0
1,64,92,10
1,66,75,0
1,61,92,1
1,59,101,0
1,58,92,22
1,66,79,0
1,61,92,0
1,63,83,0
1,66,79,21
1,64,92,0
1,59,92,0
1,71,101,200
1,73,83,220
1,68,92,0
1,63,101,0
1,61,75,1
1,71,92,60
1,64,110,1
1,61,92,0
1,68,92,0
1,70,83,10
1,66,79,0
1,73,83,0
1,63,110,1
1,71,83,248
1,68,83,0
1,64,101,0
1,59,83,0
1,65,101,6
1,70,92,0
1,63,92,20
1,58,92,180
1,58,94,2
1,66,92,0
1,63,94,1
1,66,71,350
1,63,79,0
1,61,75,0
1,56,67,1
1,64,83,190
1,66,59,2
1,61,75,0
1,59,79,0
1,58,83,9
1,61,92,0
1,63,92,0
1,66,75,0
1,66,83,10
1,64,101,0
1,59,92,1
1,71,87,280
1,56,71,10
1,66,75,0
1,58,92,0
1,61,92,1
1,71,75,8
1,64,75,1
1,59,71,0
1,68,79,0
1,63,79,8
1,71,83,1
1,59,75,0
1,66,75,0
1,71,71,28
1,64,101,0
1,68,83,0
1,61,92,1
1,63,107,9
1,65,107,10
1,63,107,180
1,58,107,0
1,70,107,0
1,66,110,5
1,63,107,0
1,58,106,0
1,66,67,10
1,56,75,0
1,61,83,1
1,63,79,0
1,64,92,138
1,66,63,0
1,61,79,0
1,59,79,1
1,58,75,120
1,61,83,2
1,63,83,0
1,66,75,0
1,66,83,218
1,59,92,2
1,64,83,0
1,71,95,292
1,70,79,28
1,63,75,0
1,66,79,1
1,71,75,8
1,73,92,10
1,68,79,130
1,64,92,0
1,59,75,0
1,71,85,170
1,66,75,90
1,63,75,1
1,59,63,0
1,71,85,0
1,71,85,20
1,64,83,1
1,61,67,0
1,68,79,0
1,56,79,10
1,63,75,0
1,68,71,0
1,59,67,1
1,63,71,20
1,59,67,0
1,56,79,0
1,68,79,1
1,75,92,10
1,71,83,0
1,66,101,1
1,73,110,20
1,70,101,1
1,66,110,0
1,68,92,18
1,64,92,0
1,59,83,1
1,59,75,18
1,66,92,0
1,63,83,1
1,64,110,32
1,59,92,0
1,68,92,0
1,59,92,10
1,63,92,0
1,66,92,1
1,70,92,12
1,66,83,0
1,61,110,0
1,68,75,12
1,71,83,0
1,64,92,0
1,59,92,0
1,66,71,18
1,63,59,0
1,71,79,1
1,59,83,0
1,68,83,30
1,59,83,0
1,64,79,1
1,71,79,0
1,66,79,130
1,75,83,2
1,71,92,0
1,73,110,10
1,70,92,0
1,66,110,1
1,71,83,200
1,68,79,2
1,59,79,0
1,64,92,0
1,63,83,8
1,71,75,1
1,66,75,0
1,59,83,0
1,71,83,10
1,68,83,0
1,64,83,1
1,59,83,0
1,63,92,68
1,66,79,1
1,71,92,0
1,59,83,0
1,66,83,11
1,70,83,0
1,61,83,0
1,71,75,189
1,68,92,0
1,64,92,0
1,59,83,1
1,66,79,20
1,63,83,1
1,71,92,0
1,59,83,0
1,70,92,8
1,65,83,0
1,63,110,0
1,58,110,0
1,58,81,2
1,66,89,0
1,63,89,1
1,66,63,300
1,56,63,0
1,63,79,1
1,61,79,0
1,64,83,12
1,66,71,0
1,61,83,0
1,59,79,0
1,58,79,12
1,61,83,0
1,63,83,0
1,66,75,0
1,64,110,290
1,66,92,0
1,59,92,1
1,71,92,292
1,66,75,10
1,58,92,0
1,61,83,1
1,56,75,0
1,68,75,8
1,71,71,1
1,64,79,0
1,59,75,0
1,63,92,20
1,66,92,1
1,64,101,20
1,61,83,0
1,68,75,0
1,56,71,80
1,68,67,0
1,59,59,0
1,63,79,0
1,75,79,20
1,66,83,0
1,71,92,0
1,66,79,20
1,70,92,1
1,73,79,0
1,68,75,10
1,59,67,1
1,64,79,0
1,66,79,10
1,63,83,0
1,59,83,0
1,68,71,22
1,64,92,0
1,59,71,0
1,63,83,89
1,66,75,0
1,59,79,1
1,70,79,10
1,66,79,1
1,61,75,0
1,68,79,10
1,64,92,0
1,59,75,1
1,66,75,10
1,63,79,0
1,59,71,1
1,68,75,12
1,64,92,0
1,59,67,0
1,75,79,10
1,66,75,0
1,71,92,1
1,73,79,22
1,70,83,0
1,66,79,0
1,68,79,32
1,64,83,0
1,59,79,0
1,66,83,60
1,63,83,0
1,59,83,1
1,64,92,18
1,68,101,0
1,59,92,0
1,63,83,60
1,66,79,1
1,59,79,0
1,70,79,28
1,66,79,0
1,61,79,0
1,68,79,89
1,64,92,1
1,59,75,0
1,66,79,8
1,63,75,1
1,59,75,0
1,64,92,31
1,71,59,180
1,71,83,50
1,64,79,0
1,71,83,1
1,59,83,0
1,68,83,0
1,64,83,2
1,71,75,48
1,68,83,1
1,64,83,0
1,59,75,0
1,71,79,19
1,68,83,0
1,64,110,0
1,59,83,0
1,71,83,50
1,68,83,1
1,64,101,0
1,59,83,0
1,71,59,440
1,64,71,1
1,68,63,0
1,59,59,0
1,66,59,10
1,63,59,1
1,59,59,0
1,58,71,10
1,61,79,0
1,66,71,0
1,68,79,12
1,64,83,0
1,59,71,0
1,63,75,10
1,66,79,0
1,59,71,1
1,71,75,10
1,68,79,0
1,64,83,1
1,59,79,0
1,71,75,49
1,64,92,2
1,68,75,0
1,59,71,0
1,71,92,18
1,64,110,0
1,68,83,1
1,59,92,0
1,64,101,52
1,71,92,0
1,68,83,0
1,59,92,0
1,68,75,22
1,64,79,0
1,71,75,0
1,59,75,0
1,66,71,82
1,63,75,0
1,71,63,0
1,59,71,0
1,68,79,52
1,71,79,0
1,64,79,0
1,59,79,0
1,70,92,9
1,65,83,0
1,63,101,1
1,58,92,0
1,63,71,3
1,66,59,0
1,58,59,0
1,56,59,319
1,66,59,1
1,63,75,0
1,61,67,0
1,61,71,10
1,64,83,0
1,59,63,0
1,66,67,1
1,61,75,10
1,58,75,0
1,63,79,0
1,66,63,1
1,66,75,10
1,64,83,0
1,59,79,0
1,71,67,208
1,63,75,8
1,66,75,1
1,70,67,0
1,66,59,40
1,71,83,0
1,63,67,1
1,73,71,30
1,63,59,1
1,66,75,0
1,64,92,152
1,68,83,0
1,59,79,0
1,66,79,12
1,63,79,0
1,59,75,0
1,64,92,12
1,68,71,0
1,61,83,0
1,63,75,520
1,68,71,0
1,59,75,0
1,56,75,1
1,75,79,20
1,66,92,0
1,71,92,1
1,73,75,78
1,66,79,2
1,70,83,0
1,68,75,170
1,64,92,1
1,59,63,0
1,63,92,40
1,66,92,0
1,59,79,1
1,68,79,20
1,64,83,0
1,59,71,0
1,63,79,48
1,66,79,1
1,59,71,0
1,70,75,10
1,61,79,0
1,66,79,0
1,68,79,60
1,64,92,1
1,59,75,0
1,66,83,20
1,63,83,1
1,59,83,0
1,68,83,20
1,64,92,1
1,59,79,0
1,66,79,20
1,75,79,1
1,71,92,0
1,73,101,20
1,70,92,0
1,66,92,0
1,64,79,10
1,68,79,0
1,59,75,0
1,63,79,20
1,66,79,0
1,59,83,0
1,68,83,60
1,64,83,0
1,59,79,1
1,63,83,52
1,66,79,0
1,59,79,0
1,70,79,80
1,66,75,0
1,61,83,1
1,68,79,20
1,64,83,0
1,59,79,0
1,63,83,22
1,66,101,0
1,59,92,0
1,68,83,22
1,64,92,0
1,59,79,0
1,66,83,150
1,75,79,0
1,71,92,0
1,73,101,78
1,66,92,0
1,70,92,1
1,68,71,10
1,59,67,0
1,64,83,1
1,66,75,10
1,63,79,0
1,59,71,1
1,68,83,12
1,64,92,0
1,59,79,0
1,63,79,10
1,59,79,0
1,66,79,1
1,70,75,78
1,61,75,2
1,66,79,0
1,68,79,8
1,64,92,1
1,59,79,0
1,63,83,10
1,66,83,0
1,59,83,1
1,68,92,28
1,64,92,0
1,59,79,0
1,75,83,100
1,66,92,1
1,71,101,0
1,73,101,70
1,70,83,0
1,66,101,0
1,68,75,20
1,64,83,1
1,59,67,0
1,63,83,8
1,66,79,1
1,59,79,0
1,68,83,168
1,64,92,0
1,59,79,0
1,63,79,68
1,66,79,0
1,59,79,1
1,70,79,100
1,66,83,0
1,61,79,0
1,68,83,10
1,64,92,0
1,59,75,0
1,66,83,8
1,63,83,1
1,59,83,0
1,71,71,390
1,66,71,0
1,59,79,1
1,64,83,0
1,71,82,22
1,68,90,0
1,64,86,0
1,59,90,0
1,71,90,30
1,68,98,2
1,64,98,0
1,59,86,0
1,68,98,12
1,64,94,0
1,59,86,0
1,66,107,22
1,63,98,0
1,59,116,0
2,85,53,26880
2,90,53,0
2,82,53,0
2,80,53,38
2,88,54,0
2,83,69,0
2,87,65,70
2,78,69,0
2,80,53,42
2,88,61,0
2,78,85,20
2,87,73,0
2,82,53,18
2,90,73,0
2,85,85,0
2,80,57,50
2,88,69,0
2,83,53,0
2,78,81,50
2,87,53,0
2,80,69,20
2,88,81,0
2,83,73,0
2,85,55,230
2,82,53,0
2,90,89,0
2,80,53,58
2,83,77,0
2,88,53,0
2,83,53,28
2,87,77,0
2,78,53,0
2,88,85,80
2,80,77,0
2,78,85,30
2,87,53,0
2,90,61,10
2,82,53,0
2,85,85,0
2,80,53,60
2,88,65,0
2,83,53,0
2,87,85,50
2,78,81,0
2,88,69,38
2,78,53,0
2,85,73,9068
2,82,53,0
2,90,53,0
2,80,69,70
2,88,85,0
2,83,73,0
2,78,69,60
2,87,73,0
2,88,73,50
2,80,65,0
2,78,85,0
2,87,85,0
2,82,57,40
2,90,85,0
2,85,89,0
2,80,65,32
2,83,69,0
2,88,77,0
2,78,77,70
2,87,53,0
2,80,73,30
2,88,85,0
2,83,55,0
2,90,89,11
2,82,53,240
2,85,55,0
2,80,53,72
2,88,77,0
2,83,77,0
2,78,85,50
2,87,53,0
2,80,73,10
2,88,54,0
2,78,77,30
2,87,53,0
2,82,53,30
2,85,69,0
2,90,85,0
2,80,81,39
2,88,89,0
2,83,69,0
2,78,89,10
2,87,81,0
2,83,81,0
2,88,61,40
2,78,53,0
2,82,53,14380
2,85,73,0
2,90,53,0
2,80,54,90
2,88,65,0
2,83,81,0
2,78,73,40
2,87,56,0
2,80,69,30
2,88,65,0
2,78,85,28
2,87,56,0
2,85,89,30
2,82,81,0
2,90,89,0
2,80,73,40
2,88,89,0
2,83,85,0
2,78,81,22
2,87,81,0
2,80,77,40
2,88,69,0
2,90,81,0
2,82,73,212
2,85,69,0
2,80,53,40
2,88,73,0
2,83,56,0
2,78,77,60
2,87,65,0
2,80,69,50
2,88,73,0
2,83,53,0
2,78,61,52
2,87,69,0
2,85,73,28
2,82,54,0
2,90,77,0
2,80,54,48
2,88,65,0
2,83,61,0
2,78,85,50
2,87,61,0
2,80,81,0
2,88,73,0
2,82,56,232
2,85,61,0
2,90,98,0
2,80,77,70
2,88,81,0
2,83,81,0
2,78,81,40
2,87,65,0
2,80,81,20
2,88,85,0
2,78,89,20
2,87,81,0
2,85,81,30
2,82,81,0
2,90,89,0
2,80,61,32
2,88,89,0
2,83,73,0
2,78,98,50
2,87,85,0
2,88,98,18
2,80,85,0
2,83,85,0
2,90,116,20
2,85,81,200
2,82,57,0
2,80,81,72
2,88,81,0
2,83,81,0
2,78,65,82
2,87,69,0
2,80,65,22
2,88,81,0
2,78,98,30
2,87,77,0
2,82,69,38
2,90,85,0
2,85,53,0
2,80,69,40
2,88,81,0
2,83,73,0
2,78,89,60
2,87,77,0
2,88,77,40
2,78,55,0
2,87,85,20
3,70,62,26880
3,82,71,0
3,70,71,20
3,82,62,0
3,66,71,20
3,78,62,0
3,66,71,20
3,78,62,0
3,61,71,20
3,73,62,0
3,61,71,20
3,73,62,0
3,66,71,20
3,78,71,0
3,66,71,20
3,78,71,0
3,68,71,20
3,80,62,0
3,68,71,20
3,80,71,0
3,64,71,20
3,76,71,0
3,64,62,20
3,76,62,0
3,59,71,20
3,71,71,0
3,59,71,20
3,71,62,0
3,64,71,20
3,76,53,0
3,64,71,20
3,76,71,0
3,66,71,20
3,78,62,0
3,66,71,20
3,78,62,0
3,63,62,20
3,75,62,0
3,63,71,20
3,75,71,0
3,59,71,20
3,71,62,0
3,59,71,20
3,71,71,0
3,63,62,20
3,75,71,0
3,63,62,20
3,75,53,0
3,68,71,20
3,80,62,0
3,64,62,20
3,76,62,0
3,59,71,20
3,71,62,0
3,68,71,20
3,80,62,0
3,66,71,20
3,78,62,0
3,61,71,20
3,73,62,0
3,66,62,20
3,78,62,0
3,70,62,22
3,82,71,0
3,70,71,20
3,82,62,0
3,70,62,20
3,82,62,0
3,66,62,22
3,78,62,0
3,66,62,20
3,78,62,0
3,61,53,20
3,73,62,0
3,61,62,20
3,73,62,0
3,66,71,20
3,78,62,0
3,66,62,20
3,78,62,0
3,68,71,20
3,80,71,0
3,68,71,20
3,80,62,0
3,64,71,20
3,76,71,0
3,64,53,20
3,76,62,0
3,59,62,20
3,71,71,0
3,59,71,20
3,71,62,0
3,64,71,18
3,76,62,0
3,64,71,20
3,76,62,0
3,66,71,20
3,78,71,0
3,66,71,20
3,78,71,0
3,63,71,20
3,75,62,0
3,63,62,22
3,75,53,0
3,59,71,20
3,71,53,0
3,59,62,20
3,71,53,0
3,63,62,20
3,75,71,0
3,63,71,20
3,75,53,0
3,68,62,20
3,80,62,0
3,64,62,20
3,76,71,0
3,59,71,18
3,71,62,0
3,68,62,20
3,80,62,0
3,66,53,20
3,78,71,0
3,63,62,18
3,75,71,0
3,59,71,20
3,71,71,0
3,66,71,20
3,78,71,0
3,70,62,20
3,82,71,0
3,70,62,20
3,82,53,0
3,66,71,20
3,78,62,0
3,66,71,20
3,78,71,0
3,61,62,20
3,73,62,0
3,61,71,20
3,73,71,0
3,66,62,20
3,78,62,0
3,66,71,20
3,78,71,0
3,68,62,20
3,80,53,0
3,68,71,20
3,80,62,0
3,64,62,20
3,76,62,0
3,64,62,18
3,76,62,0
3,59,62,20
3,71,53,0
3,59,62,20
3,71,53,0
3,64,71,18
3,76,62,0
3,64,62,20
3,76,62,0
3,66,53,20
3,78,62,0
3,66,71,20
3,78,53,0
3,63,62,20
3,75,62,0
3,63,62,20
3,75,62,0
3,59,71,20
3,71,62,0
3,59,62,20
3,71,62,0
3,63,62,20
3,75,62,0
3,63,62,20
3,75,62,0
3,68,71,20
3,80,62,0
3,64,71,20
3,76,62,0
3,59,71,20
3,71,62,0
3,68,62,20
3,80,62,0
3,66,71,18
3,78,71,0
3,61,71,20
3,73,62,0
3,66,71,20
3,78,71,0
3,70,62,18
3,82,62,0
3,70,62,20
3,82,62,0
3,70,62,20
3,82,71,0
3,66,62,20
3,78,71,0
3,66,71,20
3,78,62,0
3,61,62,20
3,73,53,0
3,61,62,20
3,73,62,0
3,66,62,20
3,78,62,0
3,66,62,20
3,78,62,0
3,68,71,20
3,80,71,0
3,68,71,20
3,80,71,0
3,64,71,20
3,76,62,0
3,64,62,20
3,76,71,0
3,59,71,20
3,71,53,0
3,59,53,19
3,71,53,0
3,64,71,20
3,76,62,0
3,64,53,20
3,76,62,0
3,66,62,18
3,78,62,0
3,66,71,20
3,78,71,0
3,63,62,20
3,75,62,0
3,63,62,20
3,75,71,0
3,59,62,20
3,71,62,0
3,59,53,20
3,71,62,0
3,63,71,20
3,75,62,0
3,63,62,20
3,75,44,0
3,71,71,20
3,83,62,0
3,71,71,20
3,83,62,0
3,66,71,20
3,78,62,0
3,66,71,20
3,78,62,0
3,64,71,20
3,76,71,0
3,64,62,20
3,76,71,0
3,59,62,19
3,71,62,0
3,59,71,20
3,71,62,0
3,71,71,20
3,83,62,0
3,71,71,18
3,83,62,0
3,66,62,20
3,78,62,0
3,66,62,20
3,78,71,0
3,64,62,20
3,76,71,0
3,64,62,20
3,76,62,0
3,59,71,20
3,71,71,0
3,59,71,20
3,71,71,0
3,70,62,8660
3,82,62,0
3,70,71,20
3,82,62,0
3,66,71,20
3,78,62,0
3,66,71,20
3,78,62,0
3,61,71,20
3,73,71,0
3,61,62,20
3,73,71,0
3,66,62,20
3,78,62,0
3,66,62,20
3,78,71,0
3,68,71,20
3,80,53,0
