track,note,velocity,time
1,60,80,7440
1,62,80,0
1,65,80,0
1,67,80,0
1,65,80,0
1,65,80,0
1,62,80,240
1,65,80,0
1,69,80,0
1,70,80,0
1,69,80,0
1,67,80,0
1,67,80,0
1,62,80,0
1,65,80,0
1,67,80,0
1,65,80,0
1,65,80,0
1,62,80,240
1,65,80,0
1,69,80,0
1,70,80,0
1,69,80,0
1,67,80,0
1,69,80,0
1,67,80,0
1,72,80,360
1,72,80,0
1,72,80,0
1,72,80,0
1,60,50,0
1,70,80,120
1,72,80,0
1,72,80,0
1,70,80,0
1,69,80,0
1,67,80,0
1,67,80,0
1,69,80,0
1,69,80,0
1,67,80,0
1,65,80,0
1,67,80,0
1,65,80,0
1,62,80,1080
1,65,80,0
1,67,80,0
1,65,80,0
1,65,80,0
1,62,80,240
1,65,80,0
1,69,80,0
1,70,80,0
1,69,80,0
1,67,80,0
1,67,80,0
1,62,80,0
1,65,80,0
1,67,80,0
1,65,80,0
1,65,80,0
1,62,80,180
1,62,80,0
1,65,80,0
1,67,80,0
1,69,80,0
1,70,80,0
1,69,80,0
1,67,80,0
1,69,80,0
1,67,80,0
1,70,80,360
1,72,80,0
1,72,80,0
1,72,80,0
1,72,80,0
1,60,50,0
1,65,80,120
1,65,80,0
1,72,80,0
1,70,80,0
1,69,80,0
1,67,80,0
1,67,80,0
1,67,80,0
1,69,80,0
1,69,80,0
1,67,80,0
1,65,80,0
1,67,80,0
1,65,80,0
1,65,80,300
1,65,80,0
1,69,80,0
1,72,80,0
1,72,80,0
1,72,80,0
1,69,80,0
1,72,80,0
1,74,80,0
1,72,80,120
1,72,80,0
1,72,80,0
1,72,80,0
1,60,80,0
1,72,80,120
1,72,80,0
1,72,80,0
1,70,80,0
1,70,80,0
1,70,80,0
1,69,80,0
1,69,80,0
1,67,80,0
1,67,80,0
1,67,80,0
1,69,80,0
1,72,80,240
1,72,80,0
1,72,80,0
1,72,80,0
1,72,80,120
1,72,80,0
1,74,80,0
1,72,80,0
1,72,80,0
1,72,80,0
1,69,80,0
1,72,80,0
1,67,80,0
1,69,80,0
1,70,80,0
1,69,80,0
1,67,80,0
1,72,80,240
1,72,80,0
1,72,80,0
1,72,80,0
1,72,80,120
1,72,80,0
1,70,80,0
1,70,80,0
1,70,80,0
1,69,80,0
1,69,80,0
1,67,80,0
1,67,80,0
1,67,80,0
1,62,80,300
1,65,80,0
1,67,80,0
1,65,80,0
1,67,80,0
1,65,80,0
1,65,80,0
1,67,80,60
1,62,80,3
1,63,80,0
1,62,80,0
1,60,80,0
1,60,80,0
1,62,80,1920
1,65,80,0
1,67,80,0
1,65,80,0
1,65,80,0
1,62,80,240
1,65,80,0
1,67,80,0
1,69,80,0
1,70,80,0
1,69,80,0
1,67,80,0
1,67,80,0
1,62,80,0
1,62,80,0
1,65,80,0
1,67,80,0
1,65,80,0
1,65,80,0
1,62,80,240
1,65,80,0
1,67,80,0
1,69,80,0
1,70,80,0
1,69,80,0
1,67,80,0
1,69,80,0
1,67,80,0
1,72,80,600
1,72,80,24
1,72,80,24
1,60,80,24
1,72,80,144
1,72,80,6
1,70,80,18
1,72,80,0
1,70,80,0
1,69,80,0
1,67,80,0
1,67,80,0
1,67,80,0
1,69,80,0
1,69,80,0
1,67,80,0
1,65,80,0
1,67,80,0
1,65,80,0
1,65,80,540
1,65,80,12
1,69,80,24
1,72,80,0
1,72,80,0
1,72,80,0
1,69,80,0
1,72,80,0
1,74,80,0
1,72,80,120
1,72,80,0
1,72,80,0
1,72,80,0
1,60,80,0
1,72,80,120
1,72,80,0
1,72,80,0
1,70,80,0
1,70,80,0
1,70,80,0
1,69,80,0
1,69,80,0
1,67,80,0
1,67,80,0
1,67,80,0
1,69,80,0
1,72,80,240
1,72,80,0
1,72,80,0
1,72,80,0
1,72,80,120
1,72,80,0
1,74,80,0
1,72,80,0
1,72,80,0
1,72,80,0
1,69,80,0
1,72,80,0
1,67,80,0
1,69,80,0
1,70,80,0
1,69,80,0
1,67,80,0
1,72,80,240
1,72,80,0
1,72,80,0
1,72,80,0
1,72,80,120
1,72,80,0
1,70,80,0
1,70,80,0
1,70,80,0
1,69,80,0
1,69,80,0
1,67,80,0
1,67,80,0
1,69,80,0
1,72,80,8400
1,72,80,12
1,72,80,12
1,72,80,24
1,60,80,0
1,72,80,120
1,72,80,0
1,72,80,0
1,70,80,0
1,70,80,0
1,70,80,0
1,69,80,0
1,69,80,0
1,67,80,0
1,67,80,0
1,67,80,0
1,69,80,0
1,72,80,240
1,72,80,0
1,72,80,0
1,72,80,0
1,77,80,120
1,72,80,0
1,74,80,0
1,72,80,0
1,72,80,0
1,72,80,0
1,69,80,0
1,72,80,0
1,67,80,0
1,69,80,0
1,70,80,0
1,69,80,0
1,67,80,0
1,72,80,240
1,72,80,0
1,72,80,0
1,72,80,0
1,72,80,120
1,72,80,0
1,70,80,0
1,70,80,0
1,70,80,0
1,69,80,0
1,69,80,0
1,67,80,0
1,67,80,0
1,67,80,0
1,72,80,0
1,74,80,48
1,69,80,0
1,71,80,0
1,77,80,300
1,76,80,0
1,74,80,0
1,77,80,120
1,76,80,0
1,74,80,0
1,74,80,0
1,74,80,0
1,74,80,0
1,74,80,0
1,76,80,0
1,78,80,0
1,74,80,240
1,69,80,0
1,71,80,0
1,83,80,180
1,81,80,0
1,78,80,0
1,76,80,0
1,78,80,0
1,74,80,0
1,71,80,0
1,74,80,0
1,78,80,0
1,76,80,0
1,74,80,0
1,74,85,0
1,76,84,0
1,78,83,0
1,74,76,240
1,69,76,0
1,71,75,0
1,74,72,0
1,69,72,0
1,71,71,0
1,74,68,0
1,69,67,0
1,71,67,0
1,74,65,0
1,74,62,0
1,74,61,0
1,74,58,60
1,74,56,0
1,74,54,0
1,71,51,60
1,74,50,0
1,69,46,0
1,71,45,0
1,69,42,0
1,71,39,0
1,83,16,540
1,81,12,0
1,78,7,0
2,98,80,0
2,86,80,0
2,96,80,0
2,84,80,0
2,94,80,0
2,82,80,0
2,93,80,0
2,81,80,0
2,91,80,0
2,79,80,0
2,93,80,0
2,81,80,0
2,91,80,0
2,79,80,0
2,89,80,0
2,77,80,0
2,88,80,0
2,76,80,0
2,74,80,0
2,86,80,0
2,72,80,0
2,84,80,0
2,70,80,0
2,82,80,0
2,69,80,0
2,81,80,0
2,67,80,0
2,79,80,0
2,69,80,0
2,81,80,0
2,67,80,0
2,79,80,0
2,86,80,22440
2,74,80,0
2,84,80,0
2,72,80,0
2,82,80,0
2,70,80,0
2,81,80,0
2,69,80,0
2,79,80,0
2,67,80,0
2,81,80,0
2,69,80,0
2,79,80,0
2,67,80,0
3,62,80,0
3,57,80,0
3,53,80,0
3,50,80,0
3,60,80,0
3,55,80,0
3,52,80,0
3,50,80,0
3,50,80,0
3,53,80,0
3,58,80,0
3,62,80,0
3,58,80,0
3,50,80,0
3,52,80,0
3,55,80,0
3,60,80,0
3,50,80,0
3,53,80,0
3,57,80,0
3,62,80,0
3,50,80,0
3,52,80,0
3,55,80,0
3,60,80,0
3,50,80,0
3,53,80,0
3,58,80,0
3,62,80,0
3,50,80,0
3,52,80,0
3,55,80,0
3,60,80,0
3,57,80,360
3,62,80,0
3,58,80,0
3,62,80,0
3,60,80,0
3,65,80,0
3,60,80,0
3,64,80,0
3,57,80,240
3,62,80,0
3,58,80,0
3,62,80,0
3,60,80,240
3,65,80,0
3,60,80,0
3,64,80,0
3,62,80,0
3,65,80,0
3,62,80,0
3,65,80,0
3,60,80,0
3,65,80,0
3,60,80,0
3,64,80,0
3,58,80,0
3,62,80,0
3,65,80,0
3,60,80,0
3,65,80,8040
3,60,80,0
3,65,80,0
3,62,80,0
3,64,80,0
3,60,80,0
3,67,80,0
3,64,80,0
3,60,80,0
3,64,80,0
3,60,80,0
3,60,80,0
3,65,80,0
3,62,80,0
3,65,80,0
3,60,80,0
3,64,80,0
3,69,80,0
3,60,80,0
3,65,80,0
3,67,80,0
3,60,80,0
3,64,80,0
3,60,80,0
3,65,80,0
3,62,80,0
3,65,80,0
3,60,80,0
3,64,80,0
3,46,80,192
3,50,80,0
3,58,80,0
3,62,80,0
3,62,80,192
3,57,80,0
3,53,80,0
3,50,80,0
3,60,80,0
3,55,80,0
3,52,80,0
3,50,80,0
3,62,80,0
3,58,80,0
3,53,80,0
3,50,80,0
3,60,80,0
3,55,80,0
3,52,80,0
3,50,80,0
3,60,80,8064
3,65,80,0
3,62,80,0
3,65,80,0
3,60,80,0
3,64,80,0
3,60,80,0
3,64,80,0
3,67,80,0
3,60,80,0
3,64,80,0
3,65,80,0
3,60,80,0
3,65,80,0
3,62,80,0
3,64,80,0
3,60,80,0
3,65,80,0
3,60,80,0
3,69,80,0
3,64,80,0
3,60,80,0
3,67,80,0
3,65,80,0
3,60,80,0
3,65,80,0
3,62,80,0
3,60,80,0
3,64,80,0
3,69,80,48
3,60,80,0
3,64,80,0
3,67,80,0
3,65,80,7872
3,60,80,0
3,65,80,0
3,62,80,0
3,64,80,0
3,60,80,0
3,67,80,0
3,64,80,0
3,60,80,0
3,64,80,0
3,60,80,0
3,60,80,0
3,65,80,0
3,62,80,0
3,65,80,0
3,60,80,0
3,64,80,0
3,69,80,0
3,60,80,0
3,65,80,0
3,67,80,0
3,60,80,0
3,64,80,0
3,60,80,0
3,65,80,0
3,62,80,0
3,65,80,0
3,60,80,0
3,64,80,0
4,38,80,0
4,36,80,0
4,38,80,0
4,36,80,0
4,38,80,0
4,36,80,0
4,36,80,120
4,38,80,0
4,36,80,0
4,36,80,120
4,38,80,360
4,34,80,0
4,41,80,0
4,36,80,0
4,38,80,0
4,34,80,0
4,41,80,0
4,36,80,0
4,38,80,0
4,34,80,0
4,41,80,0
4,36,80,0
4,34,80,0
4,38,80,360
4,34,80,0
4,41,80,0
4,36,80,0
4,38,80,0
4,34,80,0
4,41,80,0
4,36,80,0
4,38,80,0
4,34,80,0
4,41,80,0
4,36,80,0
4,34,80,0
4,34,80,0
4,34,80,0
4,36,80,0
4,36,80,0
4,33,80,360
4,45,80,0
4,34,80,0
4,46,80,0
4,36,80,0
4,48,80,0
4,36,80,0
4,36,80,0
4,48,80,0
4,33,80,0
4,45,80,0
4,34,80,0
4,46,80,0
4,36,80,0
4,48,80,0
4,36,80,0
4,36,80,0
4,48,80,0
4,33,80,0
4,45,80,0
4,34,80,0
4,46,80,0
4,36,80,0
4,48,80,48
4,36,80,48
4,36,80,24
4,48,80,24
4,34,80,48
4,38,80,192
4,36,80,0
4,36,80,120
4,38,80,0
4,36,80,0
4,36,80,120
4,38,80,360
4,34,80,0
4,41,80,0
4,36,80,0
4,38,80,0
4,34,80,0
4,41,80,0
4,36,80,0
4,38,80,0
4,34,80,0
4,41,80,0
4,36,80,0
4,34,80,0
4,34,80,0
4,34,80,0
4,36,80,0
4,36,80,0
4,33,80,360
4,45,80,0
4,34,80,0
4,46,80,0
4,36,80,0
4,48,80,0
4,36,80,0
4,36,80,0
4,48,80,0
4,33,80,0
4,45,80,0
4,34,80,0
4,46,80,0
4,36,80,0
4,48,80,0
4,36,80,0
4,36,80,0
4,48,80,0
4,33,80,0
4,45,80,0
4,34,80,0
4,46,80,0
4,36,80,0
4,36,80,192
4,36,80,24
4,36,80,84
4,36,80,36
4,36,80,36
4,36,80,12
4,34,80,48
4,46,80,48
4,34,80,36
4,34,80,12
4,34,80,24
4,46,80,24
4,36,80,48
4,36,80,24
4,48,80,24
4,36,80,48
4,36,80,24
4,48,80,24
4,34,80,48
4,46,80,48
4,34,80,36
4,34,80,12
4,34,80,24
4,46,80,24
4,36,80,48
4,36,80,24
4,48,80,24
4,36,80,48
4,36,80,24
4,48,80,24
4,34,80,48
4,46,80,48
4,34,80,36
4,34,80,12
4,34,80,24
4,46,80,24
4,36,80,48
4,36,80,24
4,48,80,24
4,36,80,48
4,36,80,24
4,48,80,24
4,38,80,48
4,50,80,48
4,38,80,48
4,38,80,24
4,50,80,24
4,36,80,48
4,48,80,48
4,36,80,48
4,33,80,288
4,45,80,0
4,34,80,0
4,46,80,0
4,36,80,0
4,48,80,0
4,36,80,0
4,36,80,0
4,48,80,0
4,33,80,0
4,45,80,0
4,34,80,0
4,46,80,0
4,36,80,0
4,48,80,0
4,36,80,0
4,36,80,0
4,48,80,0
4,33,80,0
4,45,80,0
4,34,80,0
4,46,80,0
4,36,80,0
4,48,80,48
4,36,80,48
4,36,80,24
4,48,80,24
4,38,80,48
4,50,80,12
4,38,80,12
4,50,80,12
4,38,80,12
4,50,80,12
4,38,80,12
4,50,80,12
4,38,80,12
4,50,80,12
4,38,80,12
4,50,80,12
4,38,80,12
4,50,80,12
4,38,80,12
4,50,80,12
4,38,80,12
4,50,80,12
4,38,80,12
4,50,80,12
4,38,80,12
4,50,80,12
4,38,80,12
4,50,80,12
4,38,80,12
4,50,80,12
4,38,80,12
4,50,80,12
4,38,80,12
4,50,80,12
4,38,80,12
4,50,80,12
4,38,80,12
4,50,80,12
4,38,80,12
4,50,80,12
4,38,80,12
4,50,80,12
4,38,80,12
4,50,80,12
4,38,80,12
4,50,80,12
4,38,80,12
4,50,80,12
4,38,80,12
4,50,80,12
4,38,80,12
4,50,80,12
4,38,80,12
4,50,80,12
4,38,80,12
4,50,80,12
4,38,80,12
4,50,80,12
4,38,80,12
4,50,80,12
4,38,80,12
4,50,80,12
4,38,80,12
4,50,80,12
4,38,80,12
4,50,80,12
4,38,80,12
4,50,80,12
4,38,80,12
4,50,79,12
4,38,78,12
4,50,78,12
4,38,77,12
4,50,76,12
4,38,75,12
4,50,75,12
4,38,74,12
4,50,73,12
4,38,72,12
4,50,72,12
4,38,71,12
4,50,70,12
4,38,69,12
4,50,69,12
4,38,68,12
4,50,67,12
4,38,66,12
4,50,66,12
4,38,65,12
4,50,64,12
4,38,63,12
4,50,62,12
4,38,61,12
4,50,61,12
4,38,60,12
4,50,59,12
4,38,58,12
4,50,57,12
4,38,57,12
4,50,56,12
4,38,55,12
4,50,54,12
4,38,53,12
4,50,52,12
4,38,50,12
4,50,49,12
4,38,48,12
4,50,47,12
4,38,46,12
4,50,45,12
4,38,44,12
4,50,43,12
4,38,41,12
4,50,40,12
4,38,39,12
4,50,38,12
4,38,20,12
4,50,19,12
4,38,18,12
4,50,16,12
4,38,15,12
4,50,14,12
4,38,13,12
4,50,12,12
4,38,10,12
4,50,9,12
4,38,8,12
4,50,7,12
4,38,6,12
4,50,5,12
4,38,3,12
4,50,2,12
5,42,80,240
5,42,80,240
5,42,80,240
5,42,80,240
5,42,80,240
5,42,80,240
5,42,80,240
5,42,80,240
5,42,80,240
5,42,80,240
5,42,80,240
5,42,80,240
5,42,80,240
5,42,80,240
5,46,80,0
5,42,80,1200
5,42,80,240
5,42,80,240
5,42,80,240
5,42,80,240
5,42,80,240
5,42,80,240
5,42,80,240
5,42,80,240
5,42,80,240
5,42,80,240
5,42,80,240
5,46,80,1920
5,57,80,0
5,36,80,0
5,46,80,0
5,38,80,0
5,36,80,0
5,46,80,0
5,46,80,0
5,38,80,0
5,36,80,0
5,46,80,0
5,38,80,0
5,46,80,0
5,36,80,0
5,46,80,0
5,38,80,0
5,46,80,0
5,46,80,0
5,36,80,0
5,46,80,0
5,38,80,0
5,36,80,0
5,46,80,0
5,46,80,0
5,38,80,0
5,46,80,0
5,36,80,0
5,46,80,0
5,38,80,0
5,36,80,0
5,46,80,0
5,38,80,0
5,46,80,0
5,38,80,0
5,38,80,24
5,38,80,12
5,57,80,0
5,36,80,0
5,46,80,0
5,38,80,0
5,46,80,0
5,36,80,0
5,46,80,0
5,38,80,0
5,46,80,0
5,36,80,0
5,46,80,0
5,38,80,0
5,46,80,0
5,36,80,0
5,46,80,0
5,38,80,0
5,46,80,0
5,46,80,0
5,36,80,0
5,46,80,0
5,38,80,0
5,46,80,0
5,36,80,0
5,36,80,0
5,46,80,0
5,38,80,0
5,46,80,0
5,36,80,0
5,38,80,0
5,46,80,0
