track,note,velocity,time
1,71,127,2112
1,71,0,128
1,69,127,256
1,72,127,0
1,72,0,128
1,69,0,0
1,67,127,256
1,67,0,128
1,74,127,448
1,74,0,64
1,72,127,0
1,72,0,64
1,71,127,0
1,71,0,64
1,69,127,0
1,69,0,128
1,72,127,64
1,72,0,128
1,69,127,64
1,69,0,256
1,64,127,128
1,64,0,128
1,67,127,256
1,67,0,384
1,57,127,384
1,57,0,256
1,57,127,128
1,57,0,128
1,74,127,448
1,74,0,64
1,72,127,0
1,72,0,64
1,71,127,0
1,71,0,64
1,57,127,192
1,57,0,256
1,57,127,128
1,57,0,128
1,57,127,640
1,57,0,192
1,57,127,96
1,57,0,64
1,60,127,32
1,60,0,128
1,64,127,0
1,64,0,128
1,67,127,0
1,67,0,128
1,60,127,0
1,60,0,128
1,59,127,64
1,59,0,128
1,62,127,64
1,71,127,0
1,71,0,256
1,62,0,0
1,61,127,128
1,69,127,0
1,69,0,256
1,61,0,0
1,67,127,128
1,67,0,128
1,68,127,0
1,68,0,128
1,71,127,0
1,71,0,128
1,62,127,0
1,55,127,0
1,67,127,0
1,59,127,0
1,59,0,384
1,62,0,0
1,55,0,0
1,67,0,0
1,74,127,384
1,74,0,64
1,72,127,0
1,72,0,64
1,71,127,0
1,71,0,64
1,69,127,0
1,69,0,128
1,57,127,64
1,57,0,256
1,57,127,128
1,57,0,128
1,66,127,256
1,66,0,128
1,67,127,64
1,67,0,384
1,57,127,384
1,57,0,256
1,57,127,128
1,57,0,128
1,74,127,448
1,74,0,64
1,72,127,0
1,72,0,64
1,71,127,0
1,71,0,64
1,72,127,192
1,72,0,128
1,69,127,64
1,69,0,256
1,64,127,128
1,64,0,128
1,66,127,64
1,66,0,128
1,57,127,256
1,57,0,192
1,57,127,96
1,57,0,64
1,57,127,800
1,57,0,256
1,76,127,128
1,76,0,128
1,74,127,0
1,74,0,128
1,71,127,0
1,71,0,128
1,57,127,0
1,57,0,256
1,74,127,896
1,74,0,64
1,72,127,0
1,72,0,64
1,71,127,0
1,71,0,64
1,69,127,0
1,69,0,128
1,57,127,64
1,57,0,256
1,57,127,128
1,57,0,128
1,66,127,256
1,66,0,128
1,67,127,64
1,67,0,384
1,66,127,192
1,71,127,0
1,71,0,128
1,66,0,0
1,57,127,64
1,57,0,256
1,57,127,128
1,57,0,128
1,74,127,448
1,74,0,64
1,72,127,0
1,72,0,64
1,71,127,0
1,71,0,64
1,57,127,192
1,57,0,256
1,57,127,128
1,57,0,128
1,66,127,256
1,66,0,128
1,67,127,64
1,67,0,384
1,60,127,192
1,60,0,128
1,66,127,0
1,66,0,128
1,67,127,0
1,67,0,128
1,57,127,0
1,57,0,256
1,74,127,512
1,74,0,64
1,72,127,0
1,72,0,64
1,71,127,0
1,71,0,64
1,69,127,0
1,69,0,128
1,57,127,64
1,57,0,256
1,57,127,128
1,57,0,256
1,55,127,128
1,55,0,1028
1,74,127,892
1,74,0,64
1,72,127,0
1,72,0,64
1,71,127,0
1,71,0,64
1,54,127,0
1,54,0,128
1,72,127,64
1,72,0,128
1,69,127,64
1,69,0,256
1,67,127,128
1,67,0,128
1,68,127,64
1,68,0,256
1,67,127,0
1,67,0,256
1,71,127,0
1,71,0,256
1,76,127,0
1,76,0,256
1,71,127,0
1,71,0,256
1,68,127,0
1,68,0,768
1,77,127,640
1,77,0,640
1,76,127,128
1,76,0,64
1,77,127,0
1,77,0,64
1,76,127,0
1,76,0,64
1,74,127,576
1,74,0,128
1,72,127,64
1,72,0,128
1,68,127,256
1,68,0,128
1,52,127,64
1,52,0,768
1,57,85,384
1,64,85,0
1,69,85,0
1,72,85,0
1,76,85,0
1,76,0,128
1,69,0,0
1,57,0,0
1,64,0,0
1,72,0,0
1,57,85,64
1,64,85,0
1,69,85,0
1,72,85,0
1,76,85,0
1,76,0,64
1,69,0,0
1,57,0,0
1,64,0,0
1,72,0,0
1,57,85,416
1,64,85,0
1,69,85,0
1,72,85,0
1,76,85,0
1,76,0,64
1,69,0,0
1,57,0,0
1,64,0,0
1,72,0,0
1,57,85,32
1,64,85,0
1,69,85,0
1,72,85,0
1,76,85,0
1,76,0,128
1,69,0,0
1,57,0,0
1,64,0,0
1,72,0,0
1,57,85,64
1,64,85,0
1,69,85,0
1,72,85,0
1,76,85,0
1,76,0,64
1,69,0,0
1,57,0,0
1,64,0,0
1,72,0,0
1,57,85,128
1,64,85,0
1,69,85,0
1,72,85,0
1,76,85,0
1,76,0,128
1,69,0,0
1,57,0,0
1,64,0,0
1,72,0,0
1,53,85,352
1,60,85,0
1,65,85,0
1,69,85,0
1,72,85,0
1,77,85,0
1,77,0,64
1,60,0,0
1,65,0,0
1,53,0,0
1,72,0,0
1,69,0,0
1,53,85,32
1,60,85,0
1,65,85,0
1,69,85,0
1,72,85,0
1,77,85,0
1,77,0,64
1,60,0,0
1,65,0,0
1,53,0,0
1,72,0,0
1,69,0,0
1,53,85,32
1,60,85,0
1,65,85,0
1,69,85,0
1,72,85,0
1,77,85,0
1,77,0,64
1,60,0,0
1,65,0,0
1,53,0,0
1,72,0,0
1,69,0,0
1,53,85,416
1,60,85,0
1,65,85,0
1,69,85,0
1,72,85,0
1,77,85,0
1,77,0,128
1,60,0,0
1,65,0,0
1,53,0,0
1,72,0,0
1,69,0,0
1,53,85,64
1,60,85,0
1,65,85,0
1,69,85,0
1,72,85,0
1,77,85,0
1,77,0,64
1,60,0,0
1,65,0,0
1,53,0,0
1,72,0,0
1,69,0,0
1,53,85,32
1,60,85,0
1,65,85,0
1,69,85,0
1,72,85,0
1,77,85,0
1,77,0,64
1,60,0,0
1,65,0,0
1,53,0,0
1,72,0,0
1,69,0,0
1,57,85,416
1,64,85,0
1,69,85,0
1,72,85,0
1,76,85,0
1,76,0,128
1,69,0,0
1,57,0,0
1,64,0,0
1,72,0,0
1,57,85,64
1,64,85,0
1,69,85,0
1,72,85,0
1,76,85,0
1,76,0,64
1,69,0,0
1,57,0,0
1,64,0,0
1,72,0,0
1,57,85,416
1,64,85,0
1,69,85,0
1,72,85,0
1,76,85,0
1,76,0,64
1,69,0,0
1,57,0,0
1,64,0,0
1,72,0,0
1,57,85,32
1,64,85,0
1,69,85,0
1,72,85,0
1,76,85,0
1,76,0,128
1,69,0,0
1,57,0,0
1,64,0,0
1,72,0,0
1,57,85,64
1,64,85,0
1,69,85,0
1,72,85,0
1,76,85,0
1,76,0,64
1,69,0,0
1,57,0,0
1,64,0,0
1,72,0,0
1,57,85,128
1,64,85,0
1,69,85,0
1,72,85,0
1,76,85,0
1,76,0,128
1,69,0,0
1,57,0,0
1,64,0,0
1,72,0,0
1,53,85,352
1,60,85,0
1,65,85,0
1,69,85,0
1,72,85,0
1,77,85,0
1,77,0,64
1,60,0,0
1,65,0,0
1,53,0,0
1,72,0,0
1,69,0,0
1,53,85,32
1,60,85,0
1,65,85,0
1,69,85,0
1,72,85,0
1,77,85,0
1,77,0,64
1,60,0,0
1,65,0,0
1,53,0,0
1,72,0,0
1,69,0,0
1,53,85,32
1,60,85,0
1,65,85,0
1,69,85,0
1,72,85,0
1,77,85,0
1,77,0,64
1,60,0,0
1,65,0,0
1,53,0,0
1,72,0,0
1,69,0,0
1,53,85,416
1,60,85,0
1,65,85,0
1,69,85,0
1,72,85,0
1,77,85,0
1,77,0,128
1,60,0,0
1,65,0,0
1,53,0,0
1,72,0,0
1,69,0,0
1,53,85,64
1,60,85,0
1,65,85,0
1,69,85,0
1,72,85,0
1,77,85,0
1,77,0,64
1,60,0,0
1,65,0,0
1,53,0,0
1,72,0,0
1,69,0,0
1,53,85,32
1,60,85,0
1,65,85,0
1,69,85,0
1,72,85,0
1,77,85,0
1,77,0,64
1,60,0,0
1,65,0,0
1,53,0,0
1,72,0,0
1,69,0,0
1,55,85,224
1,62,85,0
1,67,85,0
1,71,85,0
1,74,85,0
1,79,85,0
1,79,0,64
1,62,0,0
1,67,0,0
1,55,0,0
1,74,0,0
1,71,0,0
1,55,85,32
1,62,85,0
1,67,85,0
1,71,85,0
1,74,85,0
1,79,85,0
1,79,0,64
1,62,0,0
1,67,0,0
1,55,0,0
1,74,0,0
1,71,0,0
1,57,85,32
1,64,85,0
1,69,85,0
1,72,85,0
1,76,85,0
1,76,0,128
1,69,0,0
1,57,0,0
1,64,0,0
1,72,0,0
1,57,85,64
1,64,85,0
1,69,85,0
1,72,85,0
1,76,85,0
1,76,0,64
1,69,0,0
1,57,0,0
1,64,0,0
1,72,0,0
1,57,85,416
1,64,85,0
1,69,85,0
1,72,85,0
1,76,85,0
1,76,0,64
1,69,0,0
1,57,0,0
1,64,0,0
1,72,0,0
1,57,85,32
1,64,85,0
1,69,85,0
1,72,85,0
1,76,85,0
1,76,0,128
1,69,0,0
1,57,0,0
1,64,0,0
1,72,0,0
1,57,85,64
1,64,85,0
1,69,85,0
1,72,85,0
1,76,85,0
1,76,0,64
1,69,0,0
1,57,0,0
1,64,0,0
1,72,0,0
1,57,85,128
1,64,85,0
1,69,85,0
1,72,85,0
1,76,85,0
1,76,0,128
1,69,0,0
1,57,0,0
1,64,0,0
1,72,0,0
1,53,85,352
1,60,85,0
1,65,85,0
1,69,85,0
1,72,85,0
1,77,85,0
1,77,0,64
1,60,0,0
1,65,0,0
1,53,0,0
1,72,0,0
1,69,0,0
1,53,85,32
1,60,85,0
1,65,85,0
1,69,85,0
1,72,85,0
1,77,85,0
1,77,0,64
1,60,0,0
1,65,0,0
1,53,0,0
1,72,0,0
1,69,0,0
1,53,85,32
1,60,85,0
1,65,85,0
1,69,85,0
1,72,85,0
1,77,85,0
1,77,0,64
1,60,0,0
1,65,0,0
1,53,0,0
1,72,0,0
1,69,0,0
1,53,85,416
1,60,85,0
1,65,85,0
1,69,85,0
1,72,85,0
1,77,85,0
1,77,0,128
1,60,0,0
1,65,0,0
1,53,0,0
1,72,0,0
1,69,0,0
1,53,85,64
1,60,85,0
1,65,85,0
1,69,85,0
1,72,85,0
1,77,85,0
1,77,0,64
1,60,0,0
1,65,0,0
1,53,0,0
1,72,0,0
1,69,0,0
1,53,85,32
1,60,85,0
1,65,85,0
1,69,85,0
1,72,85,0
1,77,85,0
1,77,0,64
1,60,0,0
1,65,0,0
1,53,0,0
1,72,0,0
1,69,0,0
1,55,85,224
1,62,85,0
1,67,85,0
1,71,85,0
1,74,85,0
1,79,85,0
1,79,0,64
1,62,0,0
1,67,0,0
1,55,0,0
1,74,0,0
1,71,0,0
1,55,85,32
1,62,85,0
1,67,85,0
1,71,85,0
1,74,85,0
1,79,85,0
1,79,0,64
1,62,0,0
1,67,0,0
1,55,0,0
1,74,0,0
1,71,0,0
1,57,85,32
1,64,85,0
1,69,85,0
1,72,85,0
1,76,85,0
1,76,0,128
1,69,0,0
1,57,0,0
1,64,0,0
1,72,0,0
1,57,85,64
1,64,85,0
1,69,85,0
1,72,85,0
1,76,85,0
1,76,0,64
1,69,0,0
1,57,0,0
1,64,0,0
1,72,0,0
1,57,85,416
1,64,85,0
1,69,85,0
1,72,85,0
1,76,85,0
1,76,0,64
1,69,0,0
1,57,0,0
1,64,0,0
1,72,0,0
1,57,85,32
1,64,85,0
1,69,85,0
1,72,85,0
1,76,85,0
1,76,0,128
1,69,0,0
1,57,0,0
1,64,0,0
1,72,0,0
1,57,85,64
1,64,85,0
1,69,85,0
1,72,85,0
1,76,85,0
1,76,0,64
1,69,0,0
1,57,0,0
1,64,0,0
1,72,0,0
1,57,85,128
1,64,85,0
1,69,85,0
1,72,85,0
1,76,85,0
1,76,0,128
1,69,0,0
1,57,0,0
1,64,0,0
1,72,0,0
1,53,85,352
1,60,85,0
1,65,85,0
1,69,85,0
1,72,85,0
1,77,85,0
1,77,0,64
1,60,0,0
1,65,0,0
1,53,0,0
1,72,0,0
1,69,0,0
1,53,85,32
1,60,85,0
1,65,85,0
1,69,85,0
1,72,85,0
1,77,85,0
1,77,0,64
1,60,0,0
1,65,0,0
1,53,0,0
1,72,0,0
1,69,0,0
1,53,85,32
1,60,85,0
1,65,85,0
1,69,85,0
1,72,85,0
1,77,85,0
1,77,0,64
1,60,0,0
1,65,0,0
1,53,0,0
1,72,0,0
1,69,0,0
1,53,85,416
1,60,85,0
1,65,85,0
1,69,85,0
1,72,85,0
1,77,85,0
1,77,0,128
1,60,0,0
1,65,0,0
1,53,0,0
1,72,0,0
1,69,0,0
1,53,85,64
1,60,85,0
1,65,85,0
1,69,85,0
1,72,85,0
1,77,85,0
1,77,0,64
1,60,0,0
1,65,0,0
1,53,0,0
1,72,0,0
1,69,0,0
1,53,85,32
1,60,85,0
1,65,85,0
1,69,85,0
1,72,85,0
1,77,85,0
1,77,0,64
1,60,0,0
1,65,0,0
1,53,0,0
1,72,0,0
1,69,0,0
1,55,85,224
1,62,85,0
1,67,85,0
1,71,85,0
1,74,85,0
1,79,85,0
1,79,0,64
1,62,0,0
1,67,0,0
1,55,0,0
1,74,0,0
1,71,0,0
1,55,85,32
1,62,85,0
1,67,85,0
1,71,85,0
1,74,85,0
1,79,85,0
1,79,0,64
1,62,0,0
1,67,0,0
1,55,0,0
1,74,0,0
1,71,0,0
1,57,85,32
1,64,85,0
1,69,85,0
1,72,85,0
1,76,85,0
1,76,0,128
1,69,0,0
1,57,0,0
1,64,0,0
1,72,0,0
1,57,85,64
1,64,85,0
1,69,85,0
1,72,85,0
1,76,85,0
1,76,0,64
1,69,0,0
1,57,0,0
1,64,0,0
1,72,0,0
1,57,85,416
1,64,85,0
1,69,85,0
1,72,85,0
1,76,85,0
1,76,0,64
1,69,0,0
1,57,0,0
1,64,0,0
1,72,0,0
1,57,85,32
1,64,85,0
1,69,85,0
1,72,85,0
1,76,85,0
1,76,0,128
1,69,0,0
1,57,0,0
1,64,0,0
1,72,0,0
1,57,85,64
1,64,85,0
1,69,85,0
1,72,85,0
1,76,85,0
1,76,0,64
1,69,0,0
1,57,0,0
1,64,0,0
1,72,0,0
1,57,85,128
1,64,85,0
1,69,85,0
1,72,85,0
1,76,85,0
1,76,0,128
1,69,0,0
1,57,0,0
1,64,0,0
1,72,0,0
1,55,85,352
1,62,85,0
1,67,85,0
1,71,85,0
1,74,85,0
1,79,85,0
1,79,0,64
1,62,0,0
1,67,0,0
1,55,0,0
1,74,0,0
1,71,0,0
1,55,85,32
1,62,85,0
1,67,85,0
1,71,85,0
1,74,85,0
1,79,85,0
1,55,85,0
1,55,0,64
1,74,0,0
1,62,0,0
1,67,0,0
1,55,0,0
1,79,0,0
1,71,0,0
1,62,85,32
1,67,85,0
1,71,85,0
1,74,85,0
1,55,85,0
1,79,85,0
1,79,0,64
1,67,0,0
1,71,0,0
1,62,0,0
1,55,0,0
1,74,0,0
1,55,85,416
1,62,85,0
1,67,85,0
1,71,85,0
1,74,85,0
1,79,85,0
1,79,0,128
1,62,0,0
1,67,0,0
1,55,0,0
1,74,0,0
1,71,0,0
1,55,85,64
1,62,85,0
1,67,85,0
1,71,85,0
1,74,85,0
1,79,85,0
1,55,85,0
1,55,0,64
1,74,0,0
1,62,0,0
1,67,0,0
1,55,0,0
1,79,0,0
1,71,0,0
1,62,85,32
1,67,85,0
1,71,85,0
1,74,85,0
1,79,85,0
1,55,85,0
1,55,0,64
1,67,0,0
1,71,0,0
1,62,0,0
1,79,0,0
1,74,0,0
1,53,85,224
1,60,85,0
1,65,85,0
1,69,85,0
1,72,85,0
1,77,85,0
1,77,0,256
1,60,0,0
1,65,0,0
1,53,0,0
1,72,0,0
1,69,0,0
1,53,85,320
1,60,85,0
1,65,85,0
1,69,85,0
1,72,85,0
1,77,85,0
1,77,0,128
1,60,0,0
1,65,0,0
1,53,0,0
1,72,0,0
1,69,0,0
1,53,85,64
1,60,85,0
1,65,85,0
1,69,85,0
1,72,85,0
1,77,85,0
1,77,0,64
1,60,0,0
1,65,0,0
1,53,0,0
1,72,0,0
1,69,0,0
1,53,85,32
1,60,85,0
1,65,85,0
1,69,85,0
