track,note,velocity,time
3,42,110,336
3,42,0,46
3,42,110,146
3,42,0,46
3,42,110,50
3,42,0,94
3,42,110,2
3,42,0,46
3,42,110,146
3,42,0,46
3,42,110,50
3,42,0,94
3,42,110,2
3,42,0,46
3,42,110,146
3,42,0,46
3,42,110,50
3,42,0,94
3,42,110,2
3,42,0,46
3,42,110,146
3,42,0,46
3,42,110,50
3,42,0,94
3,42,110,2
3,42,0,46
3,42,110,146
3,42,0,46
3,42,110,50
3,42,0,94
3,42,110,2
3,42,0,46
3,42,110,338
3,42,0,46
3,42,110,146
3,42,0,46
3,42,110,50
3,42,0,94
3,42,110,2
3,42,0,46
3,42,110,146
3,42,0,46
3,42,110,50
3,42,0,94
3,42,110,2
3,42,0,46
3,42,110,146
3,42,0,46
3,42,110,50
3,42,0,94
3,42,110,2
3,42,0,46
3,42,110,146
3,42,0,46
3,42,110,50
3,42,0,94
3,42,110,2
3,42,0,46
3,42,110,146
3,42,0,46
3,42,110,50
3,42,0,94
3,42,110,2
3,42,0,46
3,42,110,242
3,42,0,142
3,42,110,146
3,42,0,190
3,42,110,2
3,42,0,46
3,42,110,146
3,42,0,46
3,42,110,50
3,42,0,94
3,42,110,2
3,42,0,46
3,42,110,146
3,42,0,46
3,42,110,50
3,42,0,94
3,42,110,2
3,42,0,46
3,42,110,146
3,42,0,46
3,42,110,50
3,42,0,94
3,42,110,2
3,42,0,46
3,42,110,146
3,42,0,46
3,42,110,50
3,42,0,94
3,42,110,2
3,42,0,46
3,42,110,194
3,42,0,94
3,42,110,2
3,42,0,94
3,42,110,2
3,42,0,160
3,42,110,32
3,42,0,94
3,42,110,2
3,42,0,94
3,42,110,2
3,42,0,160
3,42,110,32
3,42,0,94
3,42,110,2
3,42,0,94
3,42,110,2
3,42,0,160
3,42,110,32
3,42,0,94
3,42,110,2
3,42,0,94
3,42,110,50
3,42,0,142
3,42,110,242
3,42,0,142
3,42,110,50
3,42,0,142
3,42,110,50
3,42,0,142
3,42,110,578
3,42,0,160
3,42,110,32
3,42,0,94
3,42,110,2
3,42,0,94
3,42,110,2
3,42,0,160
3,42,110,32
3,42,0,94
3,42,110,2
3,42,0,94
3,42,110,2
3,42,0,160
3,42,110,32
3,42,0,94
3,42,110,2
3,42,0,94
3,42,110,2
3,42,0,160
3,42,110,128
3,42,0,94
3,42,110,194
3,42,0,160
3,42,110,32
3,42,0,160
3,42,110,32
3,42,0,94
3,42,110,2
3,42,0,94
3,42,110,2
3,42,0,160
3,42,110,32
3,42,0,94
3,42,110,2
3,42,0,94
3,42,110,2
3,42,0,160
3,42,110,32
3,42,0,160
3,42,110,32
3,42,0,160
3,42,110,128
3,42,0,94
3,42,110,2
3,42,0,160
3,42,110,32
3,42,0,94
3,42,110,2
3,42,0,94
3,42,110,2
3,42,0,160
3,42,110,32
3,42,0,94
3,42,110,2
3,42,0,94
3,42,110,2
3,42,0,160
3,42,110,32
3,42,0,94
3,42,110,2
3,42,0,94
3,42,110,2
3,42,0,160
3,42,110,32
3,42,0,94
3,42,110,2
3,42,0,94
3,42,110,2
3,42,0,160
3,42,110,32
3,42,0,94
3,42,110,2
3,42,0,94
3,42,110,2
3,42,0,160
3,42,110,224
3,42,0,160
3,42,110,32
3,42,0,94
3,42,110,2
3,42,0,94
3,42,110,2
3,42,0,160
3,42,110,32
3,42,0,94
3,42,110,2
3,42,0,94
3,42,110,2
3,42,0,160
3,42,110,32
3,42,0,94
3,42,110,2
3,42,0,94
3,42,110,2
3,42,0,160
3,42,110,32
3,42,0,94
3,42,110,2
3,42,0,94
3,42,110,2
3,42,0,160
3,42,110,32
3,42,0,94
3,42,110,2
3,42,0,94
3,42,110,2
3,42,0,160
3,42,110,128
3,42,0,94
3,42,110,194
3,42,0,160
3,42,110,32
3,42,0,160
3,42,110,32
3,42,0,94
3,42,110,2
3,42,0,94
3,42,110,2
3,42,0,160
3,42,110,32
3,42,0,94
3,42,110,2
3,42,0,94
3,42,110,2
3,42,0,160
3,42,110,32
3,42,0,94
3,42,110,2
3,42,0,94
3,42,110,2
3,42,0,160
3,42,110,32
3,42,0,94
3,42,110,2
3,42,0,94
3,42,110,2
3,42,0,160
3,42,110,80
3,42,0,94
3,42,110,2
3,42,0,46
3,42,110,50
3,42,0,142
3,42,110,50
3,42,0,94
3,42,110,2
3,42,0,46
3,42,110,50
3,42,0,142
3,42,110,50
3,42,0,94
3,42,110,2
3,42,0,46
3,42,110,50
3,42,0,142
3,42,110,50
3,42,0,94
3,42,110,2
3,42,0,46
3,42,110,98
3,42,0,94
3,42,110,290
3,42,0,94
3,42,110,98
3,42,0,94
3,42,110,98
3,42,0,94
3,42,110,434
3,42,0,142
3,42,110,50
3,42,0,142
3,42,110,50
3,42,0,94
3,42,110,2
3,42,0,46
3,42,110,50
3,42,0,142
3,42,110,50
3,42,0,94
3,42,110,2
3,42,0,46
3,42,110,50
3,42,0,142
3,42,110,50
3,42,0,94
3,42,110,2
3,42,0,46
3,42,110,50
3,42,0,142
3,42,110,146
3,42,0,208
3,42,110,80
3,42,0,142
3,42,110,50
3,42,0,142
3,42,110,50
3,42,0,94
3,42,110,2
3,42,0,46
3,42,110,50
3,42,0,142
3,42,110,50
3,42,0,94
3,42,110,2
3,42,0,46
3,42,110,50
3,42,0,142
3,42,110,50
3,42,0,142
3,42,110,98
3,42,0,94
3,42,110,626
3,42,0,142
3,42,110,50
3,42,0,94
3,42,110,2
3,42,0,46
3,42,110,50
3,42,0,142
3,42,110,50
3,42,0,94
3,42,110,2
3,42,0,46
3,42,110,50
3,42,0,142
3,42,110,50
3,42,0,94
3,42,110,2
3,42,0,46
3,42,110,50
3,42,0,142
3,42,110,50
3,42,0,94
3,42,110,2
3,42,0,46
3,42,110,338
3,42,0,46
3,42,110,50
3,42,0,94
3,42,110,2
3,42,0,46
3,42,110,146
3,42,0,46
3,42,110,50
3,42,0,94
3,42,110,2
3,42,0,46
3,42,110,146
3,42,0,46
3,42,110,50
3,42,0,94
3,42,110,2
3,42,0,46
3,42,110,146
3,42,0,46
3,42,110,50
3,42,0,94
3,42,110,2
3,42,0,46
3,42,110,146
3,42,0,46
3,42,110,50
3,42,0,94
3,42,110,2
3,42,0,46
3,42,110,146
3,42,0,46
3,42,110,194
3,42,0,160
3,42,110,32
3,42,0,160
3,42,110,32
3,42,0,160
3,42,110,224
3,42,0,160
3,42,110,32
3,42,0,94
3,42,110,2
3,42,0,94
3,42,110,2
3,42,0,160
3,42,110,32
3,42,0,94
3,42,110,2
3,42,0,94
3,42,110,2
3,42,0,160
3,42,110,32
3,42,0,94
3,42,110,2
3,42,0,94
3,42,110,2
3,42,0,160
3,42,110,128
3,42,0,94
3,42,110,1010
3,42,0,142
3,42,110,50
3,42,0,94
3,42,110,2
3,42,0,46
3,42,110,50
3,42,0,142
3,42,110,50
3,42,0,94
3,42,110,2
3,42,0,46
3,42,110,50
3,42,0,142
3,42,110,50
3,42,0,94
3,42,110,2
3,42,0,46
3,42,110,50
3,42,0,142
3,42,110,146
3,42,0,208
3,42,110,80
3,42,0,142
3,42,110,50
3,42,0,142
3,42,110,50
3,42,0,94
3,42,110,2
3,42,0,46
3,42,110,50
3,42,0,142
3,42,110,50
3,42,0,94
3,42,110,2
3,42,0,46
3,42,110,50
3,42,0,142
3,42,110,50
3,42,0,142
3,42,110,98
3,42,0,94
3,42,110,626
3,42,0,142
3,42,110,50
3,42,0,94
3,42,110,2
3,42,0,46
3,42,110,50
3,42,0,142
3,42,110,482
3,42,0,94
3,42,110,98
3,42,0,94
3,42,110,2
3,42,0,94
3,42,110,2
3,42,0,94
3,42,110,98
3,42,0,94
3,42,110,2
3,42,0,94
3,42,110,2
3,42,0,94
3,42,110,98
3,42,0,94
3,42,110,2
3,42,0,94
3,42,110,2
3,42,0,94
3,42,110,194
3,42,0,160
3,42,110,128
3,42,0,94
3,42,110,98
3,42,0,94
3,42,110,98
3,42,0,94
3,42,110,2
3,42,0,94
3,42,110,2
3,42,0,94
3,42,110,98
3,42,0,94
3,42,110,2
3,42,0,94
3,42,110,2
3,42,0,94
3,42,110,98
3,42,0,94
3,42,110,2
3,42,0,94
3,42,110,2
3,42,0,94
3,42,110,338
3,42,0,46
3,42,110,146
3,42,0,46
3,42,110,50
3,42,0,94
3,42,110,2
3,42,0,46
3,42,110,146
3,42,0,46
3,42,110,50
3,42,0,94
3,42,110,2
3,42,0,46
3,42,110,146
3,42,0,46
3,42,110,50
3,42,0,94
3,42,110,2
3,42,0,46
3,42,110,146
3,42,0,46
3,42,110,50
3,42,0,94
3,42,110,2
3,42,0,46
3,42,110,146
3,42,0,46
3,42,110,50
3,42,0,94
3,42,110,2
3,42,0,46
3,42,110,146
3,42,0,46
3,42,110,50
3,42,0,142
4,57,110,288
4,57,0,256
4,57,110,5312
4,57,0,94
4,57,110,2
4,57,0,94
4,57,110,2
4,57,0,94
4,57,110,1298
4,57,0,94
4,57,110,2
4,57,0,94
4,57,110,2
4,57,0,208
4,57,110,2096
4,57,0,208
4,57,110,9008
4,57,0,46
4,57,110,1346
4,57,0,94
4,57,110,2
4,57,0,94
4,57,110,2
4,57,0,160
4,57,110,2144
4,57,0,160
4,57,110,5456
4,57,0,142
4,57,110,2834
4,57,0,208
4,57,110,2336
4,57,0,160
5,45,110,288
5,45,0,46
5,45,110,2
5,45,0,46
5,45,110,2
5,45,0,46
5,45,110,2
5,45,0,46
5,45,110,2
5,45,0,46
5,45,110,2
5,45,0,46
5,45,110,2
5,45,0,46
5,45,110,2
5,45,0,46
5,45,110,2
5,45,0,46
5,45,110,2
5,45,0,46
5,45,110,2
5,45,0,46
5,45,110,2
5,45,0,46
5,45,110,2
5,45,0,46
5,45,110,2
5,45,0,46
5,45,110,2
5,45,0,46
5,45,110,2
5,45,0,46
5,45,110,2
5,45,0,46
5,45,110,2
5,45,0,46
5,45,110,2
5,45,0,46
5,45,110,2
5,45,0,46
5,45,110,2
5,45,0,46
5,45,110,2
5,45,0,46
5,45,110,2
5,45,0,46
5,45,110,2
5,45,0,46
5,45,110,2
5,45,0,46
5,45,110,2
5,45,0,46
5,45,110,2
5,45,0,46
5,45,110,2
5,45,0,46
5,45,110,2
5,45,0,46
5,45,110,2
5,45,0,46
5,45,110,2
5,45,0,46
5,45,110,2
5,45,0,46
5,43,110,2
5,43,0,46
5,43,110,2
5,43,0,46
5,43,110,2
5,43,0,46
5,43,110,2
5,43,0,46
5,43,110,2
5,43,0,46
5,43,110,2
5,43,0,46
5,43,110,2
5,43,0,46
5,43,110,2
5,43,0,46
5,43,110,2
5,43,0,46
5,43,110,2
5,43,0,46
5,43,110,2
5,43,0,46
5,43,110,2
5,43,0,46
5,43,110,2
5,43,0,46
5,43,110,2
5,43,0,46
5,43,110,2
5,43,0,46
5,43,110,2
5,43,0,46
5,45,110,2
5,45,0,46
5,45,110,2
5,45,0,46
5,45,110,2
5,45,0,46
5,45,110,2
5,45,0,46
5,45,110,2
5,45,0,46
5,45,110,2
5,45,0,46
5,45,110,2
5,45,0,46
5,45,110,2
5,45,0,46
5,45,110,2
5,45,0,46
5,45,110,2
5,45,0,46
5,45,110,2
5,45,0,46
5,45,110,2
5,45,0,46
5,45,110,2
5,45,0,46
5,45,110,2
5,45,0,46
5,45,110,2
5,45,0,46
5,45,110,2
5,45,0,46
5,38,110,2
5,38,0,46
5,38,110,2
5,38,0,46
5,38,110,2
5,38,0,46
5,38,110,2
5,38,0,46
5,38,110,2
5,38,0,46
5,38,110,2
5,38,0,46
5,38,110,2
5,38,0,46
5,38,110,2
5,38,0,46
5,38,110,2
5,38,0,46
5,38,110,2
5,38,0,46
5,38,110,2
5,38,0,46
5,38,110,2
5,38,0,46
5,38,110,2
5,38,0,46
5,38,110,2
5,38,0,46
5,38,110,2
5,38,0,46
5,38,110,2
5,38,0,46
5,45,110,2
5,45,0,46
5,45,110,2
5,45,0,46
5,45,110,2
5,45,0,46
5,45,110,2
5,45,0,46
5,45,110,2
5,45,0,46
5,45,110,2
5,45,0,46
5,45,110,2
5,45,0,46
5,45,110,2
5,45,0,46
5,45,110,2
5,45,0,46
5,45,110,2
5,45,0,46
5,45,110,2
5,45,0,46
5,45,110,2
5,45,0,46
5,45,110,2
5,45,0,142
5,45,110,2
5,45,0,142
5,45,110,2
5,45,0,142
5,45,110,2
5,45,0,142
5,38,110,2
5,38,0,46
5,38,110,2
5,38,0,46
5,38,110,2
5,38,0,46
5,38,110,2
5,38,0,46
5,38,110,2
5,38,0,46
5,38,110,2
5,38,0,46
5,38,110,2
5,38,0,46
5,38,110,2
5,38,0,46
5,38,110,2
5,38,0,46
5,38,110,2
5,38,0,46
5,38,110,2
5,38,0,46
5,38,110,2
5,38,0,46
5,43,110,2
5,43,0,94
5,38,110,2
5,38,0,94
5,40,110,2
5,40,0,142
5,40,110,2
5,40,0,46
5,40,110,2
5,40,0,190
5,42,110,2
5,42,0,142
5,42,110,2
5,42,0,46
5,42,110,2
5,42,0,94
5,45,110,2
5,45,0,94
5,38,110,2
5,38,0,190
5,38,110,2
5,38,0,46
5,38,110,2
5,38,0,190
5,38,110,2
5,38,0,190
5,43,110,2
5,43,0,94
5,38,110,2
5,38,0,94
5,40,110,2
5,40,0,142
5,40,110,2
5,40,0,46
5,40,110,2
5,40,0,190
5,50,110,2
5,50,0,142
5,50,110,2
5,50,0,46
5,50,110,2
5,50,0,190
5,40,110,2
5,40,0,286
5,40,110,2
5,40,0,94
5,40,110,2
5,40,0,382
5,50,110,2
5,50,0,94
5,50,110,2
5,50,0,94
5,50,110,2
5,50,0,94
5,50,110,2
5,50,0,94
5,50,110,2
5,50,0,94
5,50,110,2
5,50,0,94
5,50,110,2
5,50,0,94
5,50,110,2
5,50,0,94
5,45,110,2
5,45,0,46
5,45,110,2
5,45,0,46
5,45,110,2
5,45,0,46
5,45,110,2
5,45,0,46
5,45,110,2
5,45,0,46
5,45,110,2
5,45,0,46
5,45,110,2
5,45,0,46
5,45,110,2
5,45,0,46
5,44,110,2
5,44,0,46
5,44,110,2
5,44,0,46
5,44,110,2
5,44,0,46
5,44,110,2
5,44,0,46
5,44,110,2
5,44,0,46
5,44,110,2
5,44,0,46
5,44,110,2
5,44,0,46
5,44,110,2
5,44,0,46
5,50,110,2
5,50,0,46
5,50,110,2
5,50,0,46
5,50,110,2
5,50,0,46
5,50,110,2
5,50,0,46
5,50,110,2
5,50,0,46
5,50,110,2
5,50,0,46
5,50,110,2
5,50,0,46
5,50,110,2
5,50,0,46
5,43,110,2
5,43,0,46
5,43,110,2
5,43,0,46
5,43,110,2
5,43,0,46
5,43,110,2
5,43,0,46
5,43,110,2
5,43,0,142
5,43,110,2
5,43,0,142
5,43,110,2
5,43,0,142
5,43,110,2
5,43,0,142
5,45,110,2
5,45,0,46
5,45,110,2
5,45,0,46
5,45,110,2
5,45,0,46
5,45,110,2
5,45,0,46
5,45,110,2
5,45,0,46
5,45,110,2
5,45,0,46
5,45,110,2
5,45,0,46
5,45,110,2
5,45,0,46
5,44,110,2
5,44,0,46
5,44,110,2
5,44,0,46
5,44,110,2
5,44,0,46
5,44,110,2
5,44,0,46
5,44,110,2
5,44,0,46
5,44,110,2
5,44,0,46
5,44,110,2
5,44,0,46
5,44,110,2
5,44,0,46
5,50,110,2
5,50,0,46
5,50,110,2
5,50,0,46
5,50,110,2
5,50,0,46
5,50,110,2
5,50,0,46
5,50,110,2
5,50,0,46
5,50,110,2
5,50,0,46
5,50,110,2
5,50,0,46
5,50,110,2
5,50,0,46
5,43,110,2
5,43,0,46
5,43,110,2
5,43,0,46
5,43,110,2
5,43,0,46
5,43,110,2
5,43,0,46
5,43,110,2
5,43,0,46
5,43,110,2
5,43,0,46
5,43,110,2
5,43,0,46
5,43,110,2
5,43,0,46
5,45,110,2
5,45,0,46
5,45,110,2
5,45,0,46
5,45,110,2
5,45,0,46
5,45,110,2
5,45,0,46
5,45,110,2
5,45,0,46
