track,note,velocity,time
1,66,110,7872
1,66,0,94
1,66,110,2
1,66,0,46
1,66,110,2
1,66,0,94
1,64,110,2
1,64,0,94
1,63,110,2
1,63,0,46
1,63,110,50
1,63,0,94
1,63,110,2
1,63,0,142
1,66,110,2
1,66,0,94
1,66,110,2
1,66,0,94
1,59,110,2
1,59,0,46
1,61,110,2
1,61,0,208
1,66,110,416
1,66,0,94
1,66,110,2
1,66,0,46
1,66,110,2
1,66,0,142
1,64,110,2
1,64,0,46
1,63,110,2
1,63,0,190
1,63,110,2
1,63,0,94
1,66,110,2
1,66,0,94
1,66,110,2
1,66,0,46
1,59,110,50
1,59,0,46
1,59,110,2
1,59,0,46
1,61,110,2
1,61,0,208
1,66,110,128
1,66,0,94
1,66,110,2
1,66,0,160
1,66,110,128
1,66,0,94
1,66,110,2
1,66,0,46
1,59,110,2
1,59,0,142
1,59,110,146
1,59,0,46
1,61,110,50
1,61,0,94
1,63,110,2
1,63,0,46
1,59,110,50
1,59,0,46
1,59,110,2
1,59,0,46
1,61,110,2
1,61,0,208
1,66,110,128
1,66,0,46
1,66,110,2
1,66,0,46
1,66,110,2
1,66,0,142
1,66,110,2
1,66,0,46
1,71,110,50
1,71,0,94
1,71,110,2
1,71,0,190
1,64,110,2
1,64,0,46
1,63,110,2
1,63,0,46
1,61,110,2
1,61,0,46
1,59,110,2
1,59,0,46
1,59,110,2
1,59,0,208
1,59,110,128
1,59,0,94
1,61,110,2
1,61,0,142
1,63,110,2
1,63,0,46
1,59,110,50
1,59,0,94
1,61,110,2
1,61,0,94
1,63,110,2
1,63,0,46
1,59,110,2
1,61,110,0
1,61,0,94
1,59,0,0
1,66,110,770
1,66,0,94
1,66,110,2
1,66,0,46
1,66,110,2
1,66,0,142
1,64,110,2
1,64,0,46
1,63,110,2
1,63,0,190
1,63,110,2
1,63,0,46
1,66,110,50
1,66,0,94
1,66,110,2
1,66,0,46
1,59,110,50
1,59,0,46
1,59,110,2
1,59,0,46
1,61,110,2
1,61,0,208
1,66,110,368
1,66,0,46
1,66,110,50
1,66,0,94
1,66,110,2
1,66,0,142
1,64,110,2
1,64,0,46
1,63,110,2
1,63,0,46
1,63,110,50
1,63,0,46
1,63,110,2
1,63,0,46
1,63,110,2
1,63,0,46
1,66,110,2
1,66,0,142
1,66,110,2
1,66,0,46
1,59,110,50
1,59,0,46
1,59,110,2
1,59,0,46
1,61,110,2
1,61,0,208
1,66,110,128
1,66,0,94
1,66,110,2
1,66,0,94
1,66,110,2
1,66,0,46
1,66,110,2
1,66,0,46
1,66,110,50
1,66,0,94
1,66,110,2
1,66,0,46
1,61,110,50
1,61,0,46
1,63,110,2
1,63,0,190
1,59,110,2
1,59,0,94
1,61,110,50
1,61,0,94
1,63,110,2
1,63,0,94
1,59,110,2
1,59,0,94
1,61,110,2
1,61,0,208
1,66,110,128
1,66,0,94
1,66,110,2
1,66,0,142
1,66,110,2
1,66,0,94
1,71,110,2
1,71,0,94
1,71,110,2
1,71,0,190
1,64,110,2
1,64,0,46
1,63,110,2
1,63,0,46
1,61,110,2
1,61,0,46
1,59,110,2
1,59,0,46
1,59,110,2
1,59,0,208
1,59,110,128
1,59,0,46
1,59,110,2
1,59,0,46
1,61,110,2
1,61,0,142
1,63,110,2
1,63,0,46
1,59,110,50
1,59,0,94
1,61,110,2
1,61,0,94
1,63,110,2
1,63,0,46
1,59,110,2
1,61,110,0
1,61,0,94
1,59,0,0
1,71,110,386
1,71,0,160
1,70,110,32
1,70,0,256
1,66,110,32
1,66,0,46
1,66,110,2
1,66,0,142
1,59,110,2
1,59,0,46
1,59,110,2
1,59,0,46
1,59,110,2
1,59,0,94
1,59,110,2
1,59,0,94
1,59,110,2
1,59,0,238
1,61,110,2
1,61,0,46
1,63,110,2
1,63,0,46
1,61,110,2
1,61,0,46
1,59,110,2
1,59,0,160
1,71,110,32
1,71,0,94
1,71,110,2
1,71,0,46
1,73,110,2
1,73,0,286
1,75,110,2
1,75,0,46
1,73,110,2
1,73,0,46
1,71,110,2
1,71,0,46
1,71,110,2
1,71,0,160
1,66,110,176
1,66,0,46
1,66,110,2
1,66,0,94
1,71,110,2
1,71,0,46
1,71,110,2
1,71,0,46
1,71,110,50
1,71,0,46
1,73,110,2
1,73,0,46
1,71,110,2
1,71,0,208
1,71,110,32
1,71,0,160
1,70,110,32
1,70,0,256
1,66,110,32
1,66,0,46
1,66,110,2
1,66,0,142
1,59,110,2
1,59,0,46
1,59,110,2
1,59,0,46
1,59,110,2
1,59,0,94
1,59,110,2
1,59,0,94
1,59,110,2
1,59,0,238
1,61,110,2
1,61,0,46
1,63,110,2
1,63,0,46
1,61,110,2
1,61,0,46
1,59,110,2
1,59,0,160
1,71,110,32
1,71,0,94
1,71,110,2
1,71,0,46
1,73,110,2
1,73,0,286
1,75,110,2
1,75,0,46
1,73,110,2
1,73,0,46
1,71,110,2
1,71,0,46
1,71,110,2
1,71,0,160
1,66,110,176
1,66,0,46
1,66,110,2
1,66,0,94
1,71,110,2
1,71,0,46
1,71,110,2
1,71,0,46
1,71,110,50
1,71,0,46
1,73,110,2
1,73,0,46
1,71,110,2
1,71,0,768
1,66,110,240
1,66,0,94
1,66,110,2
1,66,0,94
1,66,110,2
1,66,0,94
1,64,110,2
1,64,0,46
1,63,110,2
1,63,0,46
1,63,110,50
1,63,0,94
1,63,110,2
1,63,0,46
1,63,110,50
1,63,0,46
1,66,110,2
1,66,0,94
1,66,110,2
1,66,0,46
1,59,110,2
1,59,0,94
1,59,110,2
1,59,0,46
1,61,110,2
1,61,0,160
1,66,110,368
1,66,0,46
1,66,110,2
1,66,0,94
1,66,110,2
1,66,0,46
1,66,110,2
1,66,0,142
1,64,110,2
1,64,0,46
1,63,110,2
1,63,0,46
1,63,110,146
1,63,0,94
1,66,110,2
1,66,0,94
1,66,110,2
1,66,0,46
1,59,110,50
1,59,0,94
1,59,110,2
1,59,0,46
1,61,110,2
1,61,0,160
1,66,110,224
1,66,0,94
1,66,110,2
1,66,0,46
1,66,110,2
1,66,0,46
1,66,110,50
1,66,0,94
1,66,110,2
1,66,0,46
1,61,110,50
1,61,0,46
1,63,110,2
1,63,0,94
1,59,110,146
1,59,0,46
1,61,110,2
1,61,0,46
1,63,110,2
1,63,0,94
1,63,110,2
1,63,0,46
1,59,110,50
1,59,0,94
1,59,110,2
1,59,0,46
1,61,110,2
1,61,0,160
1,66,110,128
1,66,0,46
1,66,110,2
1,66,0,46
1,66,110,2
1,66,0,94
1,66,110,2
1,66,0,46
1,66,110,2
1,66,0,46
1,71,110,50
1,71,0,94
1,71,110,2
1,71,0,190
1,64,110,2
1,64,0,46
1,63,110,2
1,63,0,46
1,61,110,2
1,61,0,46
1,59,110,2
1,59,0,46
1,59,110,2
1,59,0,208
1,59,110,176
1,59,0,46
1,61,110,2
1,61,0,46
1,63,110,2
1,63,0,94
1,63,110,2
1,63,0,46
1,59,110,50
1,59,0,94
1,61,110,2
1,61,0,94
1,63,110,2
1,63,0,46
1,59,110,2
1,61,110,0
1,61,0,94
1,59,0,0
1,71,110,386
1,71,0,160
1,70,110,32
1,70,0,256
1,66,110,32
1,66,0,46
1,66,110,2
1,66,0,142
1,59,110,2
1,59,0,46
1,59,110,2
1,59,0,46
1,59,110,2
1,59,0,94
1,59,110,2
1,59,0,94
1,59,110,2
1,59,0,238
1,61,110,2
1,61,0,46
1,63,110,2
1,63,0,46
1,61,110,2
1,61,0,46
1,59,110,2
1,59,0,160
1,71,110,32
1,71,0,94
1,71,110,2
1,71,0,46
1,73,110,2
1,73,0,286
1,75,110,2
1,75,0,46
1,73,110,2
1,73,0,46
1,71,110,2
1,71,0,46
1,71,110,2
1,71,0,160
1,66,110,176
1,66,0,46
1,66,110,2
1,66,0,94
1,71,110,2
1,71,0,46
1,71,110,2
1,71,0,46
1,71,110,50
1,71,0,46
1,73,110,2
1,73,0,46
1,71,110,2
1,71,0,208
1,71,110,32
1,71,0,160
1,70,110,32
1,70,0,256
1,66,110,32
1,66,0,46
1,66,110,2
1,66,0,142
1,59,110,2
1,59,0,46
1,59,110,2
1,59,0,46
1,59,110,2
1,59,0,94
1,59,110,2
1,59,0,94
1,59,110,2
1,59,0,238
1,61,110,2
1,61,0,46
1,63,110,2
1,63,0,46
1,61,110,2
1,61,0,46
1,59,110,2
1,59,0,160
1,71,110,32
1,71,0,94
1,71,110,2
1,71,0,46
1,73,110,2
1,73,0,286
1,75,110,2
1,75,0,46
1,73,110,2
1,73,0,46
1,71,110,2
1,71,0,46
1,71,110,2
1,71,0,160
1,66,110,176
1,66,0,46
1,66,110,2
1,66,0,94
1,71,110,2
1,71,0,46
1,71,110,2
1,71,0,46
1,71,110,50
1,71,0,46
1,73,110,2
1,73,0,46
1,71,110,2
1,71,0,766
1,71,110,2
1,71,0,46
1,71,110,2
1,71,0,94
1,71,110,2
1,71,0,46
1,71,110,2
1,71,0,46
1,71,110,50
1,71,0,286
1,59,110,2
1,59,0,46
1,59,110,2
1,59,0,94
1,61,110,2
1,61,0,46
1,59,110,2
1,59,0,208
1,63,110,368
1,63,0,46
1,63,110,2
1,63,0,46
1,61,110,2
1,61,0,46
1,59,110,2
1,59,0,94
1,61,110,2
1,61,0,94
1,66,110,2
1,66,0,46
1,66,110,2
1,66,0,208
1,70,110,224
1,70,0,46
1,68,110,2
1,68,0,46
1,68,110,2
1,68,0,46
1,68,110,2
1,68,0,46
1,66,110,2
1,66,0,46
1,64,110,2
1,64,0,142
1,71,110,530
1,71,0,46
1,71,110,2
1,71,0,94
1,71,110,2
1,71,0,46
1,71,110,2
1,71,0,46
1,71,110,50
1,71,0,286
1,71,110,2
1,71,0,46
1,75,110,2
1,75,0,46
1,73,110,2
1,73,0,46
1,71,110,2
1,71,0,46
1,71,110,2
1,71,0,208
1,66,110,752
1,66,0,46
1,66,110,2
1,66,0,46
1,66,110,2
1,66,0,94
1,66,110,2
1,66,0,142
1,64,110,2
1,64,0,94
1,63,110,2
1,63,0,46
1,63,110,2
1,63,0,142
1,63,110,2
1,63,0,46
1,66,110,2
1,66,0,142
1,66,110,2
1,66,0,46
1,59,110,2
1,59,0,94
1,61,110,2
1,61,0,208
1,66,110,416
1,66,0,46
1,66,110,2
1,66,0,94
1,66,110,2
1,66,0,46
1,64,110,50
1,64,0,94
1,63,110,2
1,63,0,46
1,63,110,50
1,63,0,94
1,63,110,2
1,63,0,142
1,66,110,2
1,66,0,46
1,66,110,2
1,66,0,46
1,66,110,2
1,66,0,94
1,59,110,2
1,59,0,46
1,59,110,2
1,59,0,46
1,61,110,2
1,61,0,160
1,66,110,80
1,66,0,46
1,66,110,2
1,66,0,46
1,66,110,2
1,66,0,208
1,66,110,80
1,66,0,46
1,66,110,2
1,66,0,46
1,66,110,2
1,66,0,46
1,61,110,50
1,61,0,46
1,63,110,2
1,63,0,256
1,59,110,32
1,59,0,46
1,61,110,2
1,61,0,94
1,63,110,2
1,63,0,46
1,59,110,50
1,59,0,94
1,59,110,2
1,59,0,46
1,61,110,2
1,61,0,160
1,66,110,128
1,66,0,46
1,66,110,2
1,66,0,46
1,66,110,2
1,66,0,142
1,66,110,2
1,66,0,46
1,71,110,50
1,71,0,94
1,71,110,2
1,71,0,190
1,64,110,2
1,64,0,46
1,63,110,2
1,63,0,46
1,61,110,2
1,61,0,46
1,59,110,2
1,59,0,46
1,59,110,2
1,59,0,208
1,59,110,128
1,59,0,94
1,61,110,2
1,61,0,142
1,63,110,2
1,63,0,46
1,59,110,50
1,59,0,94
1,61,110,2
1,61,0,94
1,63,110,2
1,63,0,46
1,59,110,2
1,61,110,0
1,61,0,94
1,59,0,0
1,71,110,386
1,71,0,160
1,70,110,32
1,70,0,256
1,66,110,32
1,66,0,46
1,66,110,2
1,66,0,142
1,59,110,2
1,59,0,46
1,59,110,2
1,59,0,46
1,59,110,2
1,59,0,94
1,59,110,2
1,59,0,94
1,59,110,2
1,59,0,238
1,61,110,2
1,61,0,46
1,63,110,2
1,63,0,46
1,61,110,2
1,61,0,46
1,59,110,2
1,59,0,160
1,71,110,32
1,71,0,94
1,71,110,2
1,71,0,46
1,73,110,2
1,73,0,286
1,75,110,2
1,75,0,46
1,73,110,2
1,73,0,46
1,71,110,2
1,71,0,46
1,71,110,2
1,71,0,160
1,66,110,176
1,66,0,46
1,66,110,2
1,66,0,94
1,71,110,2
1,71,0,46
1,71,110,2
1,71,0,46
1,71,110,50
1,71,0,46
1,73,110,2
1,73,0,46
1,71,110,2
1,71,0,208
1,71,110,32
1,71,0,160
1,70,110,32
1,70,0,256
1,66,110,32
1,66,0,46
1,66,110,2
1,66,0,142
1,59,110,2
1,59,0,46
1,59,110,2
1,59,0,46
1,59,110,2
1,59,0,94
1,59,110,2
1,59,0,94
1,59,110,2
1,59,0,238
1,61,110,2
1,61,0,46
1,63,110,2
1,63,0,46
1,61,110,2
1,61,0,46
1,59,110,2
1,59,0,160
1,71,110,32
1,71,0,94
1,71,110,2
1,71,0,46
1,73,110,2
1,73,0,286
1,75,110,2
1,75,0,46
1,73,110,2
1,73,0,46
1,71,110,2
1,71,0,46
1,71,110,2
1,71,0,160
1,66,110,176
1,66,0,46
1,66,110,2
1,66,0,94
1,71,110,2
1,71,0,46
1,71,110,2
1,71,0,46
1,71,110,50
1,71,0,46
1,73,110,2
1,73,0,46
1,71,110,2
1,71,0,208
1,71,110,32
1,71,0,160
1,70,110,32
1,70,0,256
1,66,110,32
1,66,0,46
1,66,110,2
1,66,0,142
1,59,110,2
1,59,0,46
1,59,110,2
1,59,0,46
1,59,110,2
1,59,0,94
1,59,110,2
1,59,0,94
1,59,110,2
1,59,0,238
1,61,110,2
1,61,0,46
1,63,110,2
1,63,0,46
1,61,110,2
1,61,0,46
1,59,110,2
1,59,0,160
1,71,110,32
1,71,0,94
1,71,110,2
1,71,0,46
1,73,110,2
1,73,0,286
1,75,110,2
1,75,0,46
1,73,110,2
1,73,0,46
1,71,110,2
1,71,0,46
1,71,110,2
1,71,0,160
1,66,110,176
1,66,0,46
1,66,110,2
1,66,0,94
1,71,110,2
1,71,0,46
1,71,110,2
1,71,0,46
1,71,110,50
1,71,0,46
1,73,110,2
1,73,0,46
1,71,110,2
1,71,0,208
1,71,110,32
1,71,0,160
1,70,110,32
1,70,0,256
1,66,110,32
1,66,0,46
1,66,110,2
1,66,0,142
1,59,110,2
1,59,0,46
1,59,110,2
1,59,0,46
1,59,110,2
1,59,0,94
1,59,110,2
1,59,0,94
1,59,110,2
1,59,0,238
1,61,110,2
1,61,0,46
1,63,110,2
1,63,0,46
1,61,110,2
1,61,0,46
1,59,110,2
1,59,0,160
1,71,110,32
1,71,0,94
1,71,110,2
1,71,0,46
1,73,110,2
1,73,0,286
1,75,110,2
1,75,0,46
1,73,110,2
1,73,0,46
1,71,110,2
1,71,0,46
1,71,110,2
1,71,0,160
1,66,110,176
1,66,0,46
1,66,110,2
1,66,0,94
1,71,110,2
1,71,0,46
1,71,110,2
1,71,0,46
1,71,110,50
1,71,0,46
1,73,110,2
1,73,0,46
1,71,110,2
1,71,0,768
2,32,110,768
2,32,0,720
2,37,110,48
2,37,0,720
2,39,110,48
2,39,0,720
2,28,110,48
2,28,0,720
2,32,110,48
2,32,0,720
2,37,110,48
2,37,0,720
2,39,110,48
2,39,0,720
2,28,110,48
2,28,0,1488
2,32,110,48
2,32,0,720
2,37,110,48
2,37,0,336
2,39,110,48
2,39,0,336
2,32,110,48
2,32,0,720
2,37,110,48
2,37,0,336
2,39,110,48
2,39,0,336
2,28,110,48
2,28,0,670
2,30,110,2
2,30,0,46
2,31,110,2
2,31,0,46
2,32,110,2
2,32,0,720
2,40,110,48
2,40,0,336
2,39,110,48
2,39,0,336
2,37,110,48
2,37,0,720
2,40,110,48
2,40,0,336
2,42,110,48
2,42,0,160
2,35,110,32
2,35,0,160
2,32,110,32
2,32,0,720
2,37,110,48
2,37,0,336
