track,note,velocity,time
1,54,60,2305
1,82,64,0
1,85,73,0
1,80,82,94
1,53,56,0
1,54,0,4
1,82,0,2
1,78,82,88
1,51,56,0
1,53,0,4
1,80,0,1
1,51,0,90
1,77,64,0
1,49,56,1
1,78,0,2
1,85,0,90
1,85,73,7
1,82,73,0
1,54,73,0
1,49,0,2
1,77,0,3
1,80,73,89
1,53,56,2
1,82,0,1
1,54,0,0
1,78,64,92
1,51,52,0
1,53,0,4
1,80,0,1
1,85,0,79
1,68,56,18
1,78,0,1
1,51,0,0
1,56,56,0
1,73,73,0
1,73,0,39
1,68,0,1
1,68,56,3
1,72,73,1
1,44,60,0
1,56,0,5
1,68,0,31
1,44,0,7
1,49,64,0
1,68,73,2
1,72,0,1
1,73,73,0
1,49,0,378
1,73,0,3
1,68,0,1
1,75,91,4
1,82,91,1
1,63,91,1
1,75,0,61
1,82,0,3
1,63,0,4
1,59,73,1
1,83,91,1
1,75,91,0
1,83,0,111
1,82,64,7
1,66,73,0
1,59,0,1
1,73,82,0
1,75,0,1
1,73,0,65
1,66,0,6
1,61,82,1
1,73,82,0
1,80,73,1
1,82,0,2
1,73,0,113
1,80,0,1
1,82,73,2
1,63,91,0
1,75,82,0
1,61,0,3
1,75,0,62
1,82,0,2
1,63,0,4
1,59,64,1
1,83,82,0
1,75,82,0
1,83,0,113
1,82,73,6
1,66,73,0
1,73,82,0
1,75,0,1
1,59,0,0
1,73,0,63
1,66,0,7
1,82,0,1
1,61,82,2
1,73,82,0
1,80,73,0
1,80,0,114
1,61,0,6
1,82,64,0
1,63,82,0
1,75,64,0
1,73,0,1
1,75,0,64
1,82,0,2
1,63,0,4
1,59,73,1
1,83,91,0
1,75,82,0
1,83,0,113
1,75,0,4
1,59,0,1
1,82,64,0
1,73,82,1
1,66,73,1
1,73,0,61
1,66,0,7
1,82,0,1
1,73,82,2
1,61,82,0
1,80,73,0
1,73,0,112
1,80,0,2
1,61,0,0
1,85,82,6
1,58,64,0
1,78,82,1
1,73,73,0
1,78,0,65
1,85,0,1
1,58,0,1
1,73,0,0
1,78,73,6
1,83,91,0
1,71,64,0
1,71,0,103
1,83,0,3
1,78,0,10
1,73,82,3
1,85,91,0
1,80,73,0
1,85,0,179
1,73,0,2
1,80,0,5
1,85,82,3
1,70,73,1
1,78,64,0
1,70,0,58
1,78,0,11
1,85,0,1
1,83,73,3
1,78,73,1
1,71,64,0
1,71,0,100
1,83,0,12
1,78,0,5
1,73,64,0
1,80,64,0
1,61,64,0
1,80,0,339
1,61,0,1
1,73,0,2
1,70,75,46
1,66,66,94
1,70,0,1
1,68,75,97
1,66,0,2
1,66,75,94
1,68,0,2
1,66,0,90
1,65,57,3
1,70,66,25
1,65,0,2
1,66,66,71
1,70,0,2
1,68,66,90
1,66,0,4
1,69,66,94
1,68,0,3
1,69,0,93
1,70,75,1
1,66,66,94
1,70,0,1
1,68,75,97
1,66,0,2
1,66,75,94
1,68,0,2
1,66,0,90
1,65,57,3
1,70,66,25
1,65,0,2
1,66,66,71
1,70,0,2
1,68,66,90
1,66,0,4
1,69,66,94
1,68,0,3
1,69,0,93
1,54,60,1
1,82,64,0
1,85,73,0
1,80,82,94
1,53,56,0
1,54,0,4
1,82,0,2
1,78,82,88
1,51,56,0
1,53,0,4
1,80,0,1
1,51,0,90
1,77,64,0
1,49,56,1
1,78,0,2
1,85,0,90
1,85,73,7
1,82,73,0
1,54,73,0
1,49,0,2
1,77,0,3
1,80,73,89
1,53,56,2
1,82,0,1
1,54,0,0
1,78,64,92
1,51,52,0
1,53,0,4
1,80,0,1
1,85,0,79
1,68,56,18
1,78,0,1
1,51,0,0
1,56,56,0
1,73,73,0
1,73,0,39
1,68,0,1
1,68,56,3
1,72,73,1
1,44,60,0
1,56,0,5
1,68,0,31
1,44,0,7
1,49,64,0
1,68,73,2
1,72,0,1
1,73,73,0
1,49,0,378
1,73,0,3
1,68,0,1
1,82,91,5
1,75,91,1
1,63,91,0
1,75,0,63
1,82,0,1
1,63,0,4
1,59,73,1
1,83,91,1
1,75,91,0
1,83,0,111
1,82,64,7
1,66,73,0
1,59,0,1
1,73,82,0
1,75,0,1
1,73,0,65
1,66,0,6
1,61,82,1
1,73,82,0
1,80,73,1
1,82,0,2
1,73,0,113
1,80,0,1
1,61,0,4
1,82,91,0
1,75,91,1
1,63,91,0
1,75,0,63
1,82,0,1
1,63,0,4
1,59,73,1
1,83,91,1
1,75,91,0
1,83,0,111
1,82,64,7
1,66,73,0
1,59,0,1
1,73,82,0
1,75,0,1
1,73,0,65
1,66,0,6
1,61,82,1
1,73,82,0
1,80,73,1
1,82,0,2
1,73,0,113
1,80,0,1
1,61,0,4
1,82,91,0
1,75,91,1
1,63,91,0
1,75,0,63
1,82,0,1
1,63,0,4
1,59,73,1
1,83,91,1
1,75,91,0
1,83,0,111
1,82,64,7
1,66,73,0
1,59,0,1
1,73,82,0
1,75,0,1
1,73,0,65
1,66,0,6
1,61,82,1
1,73,82,0
1,80,73,1
1,82,0,2
1,73,0,113
1,80,0,1
1,61,0,4
1,82,91,0
1,75,91,1
1,63,91,0
1,75,0,63
1,82,0,1
1,63,0,4
1,59,73,1
1,83,91,1
1,75,91,0
1,83,0,111
1,82,64,7
1,66,73,0
1,59,0,1
1,73,82,0
1,75,0,1
1,73,0,65
1,66,0,6
1,61,82,1
1,73,82,0
1,80,73,1
1,82,0,2
1,73,0,113
1,80,0,1
1,61,0,4
1,82,91,0
1,75,91,1
1,63,91,0
1,75,0,63
1,82,0,1
1,63,0,4
1,59,73,1
1,83,91,1
1,75,91,0
1,83,0,111
1,82,64,7
1,66,73,0
1,59,0,1
1,73,82,0
1,75,0,1
1,73,0,65
1,66,0,6
1,61,82,1
1,73,82,0
1,80,73,1
1,82,0,2
1,73,0,113
1,80,0,1
1,61,0,4
1,58,64,0
1,78,82,0
1,85,82,0
1,73,73,0
1,78,0,63
1,73,0,1
1,85,0,1
1,58,0,1
1,59,82,5
1,78,73,1
1,83,91,0
1,71,64,0
1,71,0,103
1,83,0,3
1,78,0,10
1,59,0,3
1,73,82,0
1,85,91,0
1,80,73,0
1,85,0,179
1,73,0,2
1,80,0,5
1,85,82,3
1,70,73,1
1,78,64,0
1,70,0,58
1,78,0,11
1,85,0,1
1,83,73,3
1,78,73,1
1,71,64,0
1,71,0,100
1,83,0,12
1,78,0,5
1,73,64,0
1,80,64,0
1,61,64,0
1,73,82,3
1,85,91,0
1,61,82,0
1,80,73,0
1,85,0,179
1,73,0,2
1,80,0,5
1,61,0,3
1,82,91,4
1,75,91,1
1,63,91,0
1,75,0,63
1,82,0,1
1,63,0,4
1,59,73,1
1,83,91,1
1,75,91,0
1,80,0,72
1,61,0,1
1,73,0,2
1,83,0,36
1,82,64,7
1,66,73,0
1,59,0,1
1,73,82,0
1,75,0,1
1,73,0,65
1,66,0,6
1,61,82,1
1,73,82,0
1,80,73,1
1,82,0,2
1,73,0,113
1,80,0,1
1,61,0,4
1,82,91,0
1,75,91,1
1,63,91,0
1,75,0,63
1,82,0,1
1,63,0,4
1,59,73,1
1,83,91,1
1,75,91,0
1,83,0,111
1,82,64,7
1,66,73,0
1,59,0,1
1,73,82,0
1,75,0,1
1,73,0,65
1,66,0,6
1,61,82,1
1,73,82,0
1,80,73,1
1,82,0,2
1,73,0,113
1,80,0,1
1,61,0,4
1,75,91,0
1,78,82,0
1,71,64,0
1,83,82,0
1,83,0,82
1,78,0,4
1,75,0,5
1,71,0,1
1,73,82,1
1,82,73,0
1,70,73,0
1,78,73,0
1,73,0,87
1,70,0,5
1,82,0,4
1,78,0,1
1,80,73,0
1,71,73,0
1,75,64,0
1,68,82,1
1,75,0,84
1,71,0,1
1,68,0,9
1,78,60,0
1,73,82,1
1,66,73,1
1,70,64,0
1,80,0,1
1,70,0,87
1,73,0,2
1,78,0,3
1,77,73,2
1,68,82,0
1,66,0,1
1,73,64,0
1,65,64,0
1,73,0,82
1,68,0,7
1,65,0,6
1,77,0,1
1,63,91,0
1,75,73,0
1,71,64,0
1,66,73,1
1,71,0,85
1,63,0,7
1,61,91,2
1,73,82,0
1,68,91,1
1,75,0,1
1,66,0,3
1,61,0,89
1,71,73,2
1,66,64,0
1,59,82,0
1,68,0,5
1,73,0,8
1,66,0,82
1,71,0,0
1,59,0,0
1,58,64,3
1,78,82,0
1,85,82,0
1,73,73,0
1,78,0,63
1,73,0,1
1,85,0,1
1,58,0,1
1,59,82,5
1,78,73,1
1,83,91,0
1,71,64,0
1,71,0,103
1,83,0,3
1,78,0,10
1,59,0,3
1,73,82,0
1,85,91,0
1,61,82,0
1,80,73,0
1,85,0,179
1,73,0,2
1,80,0,5
1,61,0,3
1,58,64,4
1,78,82,0
1,85,82,0
1,73,73,0
1,78,0,63
1,73,0,1
1,85,0,1
1,58,0,1
1,59,82,5
1,78,73,1
1,83,91,0
1,71,64,0
1,71,0,103
1,83,0,3
1,78,0,10
1,59,0,3
1,73,82,0
1,85,91,0
1,61,82,0
1,80,73,0
1,85,0,179
1,73,0,2
1,80,0,5
1,61,0,3
1,58,64,4
1,78,82,0
1,85,82,0
1,73,73,0
1,78,0,63
1,73,0,1
1,85,0,1
1,58,0,1
1,59,82,5
1,78,73,1
1,83,91,0
1,71,64,0
1,71,0,103
1,83,0,3
1,78,0,10
1,59,0,3
1,73,82,0
1,85,91,0
1,61,82,0
1,80,73,0
1,85,0,179
1,73,0,2
1,80,0,5
1,61,0,3
1,58,60,4
1,78,60,0
1,85,73,0
1,82,60,0
1,73,60,0
1,85,0,59
1,78,0,0
1,73,0,2
1,82,0,0
1,83,82,9
1,78,82,0
1,75,82,0
1,59,64,0
1,58,0,2
1,75,0,106
1,83,0,0
1,78,0,1
1,77,64,10
1,85,64,0
1,59,0,1
1,73,48,0
1,61,64,0
1,80,40,1
1,80,0,331
1,77,0,1
1,73,0,0
1,85,0,0
1,61,0,3
1,58,67,433
1,70,67,0
1,77,70,0
1,82,57,24
1,82,0,13
1,82,76,11
1,82,0,143
1,77,0,0
1,70,0,0
1,58,0,0
1,70,100,1
1,77,100,0
1,82,100,0
1,82,0,23
1,77,0,0
1,70,0,0
2,54,60,2305
2,82,64,0
2,85,73,0
2,53,56,96
2,80,82,0
2,54,0,2
2,82,0,2
2,51,56,92
2,78,82,0
2,53,0,2
2,80,0,1
2,51,0,92
2,49,56,1
2,77,64,0
2,78,0,2
2,85,0,86
2,54,73,8
2,85,73,0
2,82,73,0
2,49,0,5
2,77,0,4
2,53,56,87
2,80,73,0
2,82,0,1
2,54,0,0
2,78,64,95
2,51,52,0
2,53,0,1
2,80,0,3
2,85,0,77
2,56,56,15
2,73,73,0
2,68,56,0
2,51,0,7
2,78,0,0
2,73,0,32
2,68,0,2
2,44,60,7
2,72,73,0
2,68,56,0
2,56,0,1
2,68,0,36
2,44,0,6
2,72,0,3
2,73,73,2
2,68,73,0
2,49,64,0
2,49,0,381
2,73,0,0
2,68,0,2
2,70,75,2113
2,70,0,95
2,66,66,1
2,68,75,96
2,66,0,4
2,66,75,92
2,68,0,2
2,66,0,90
2,65,57,4
2,70,66,24
2,65,0,3
2,66,66,69
2,70,0,3
2,66,0,93
2,68,66,0
2,69,66,96
2,68,0,5
2,69,0,91
2,70,75,0
2,70,0,95
2,66,66,1
2,68,75,96
2,66,0,4
2,66,75,92
2,68,0,2
2,66,0,90
2,65,57,4
2,70,66,24
2,65,0,3
2,66,66,69
2,70,0,3
2,66,0,93
2,68,66,0
2,69,66,96
2,68,0,5
2,69,0,91
2,54,45,0
2,82,49,0
2,85,58,0
2,53,41,96
2,80,67,0
2,54,0,2
2,82,0,2
2,51,56,92
2,78,82,0
2,53,0,2
2,80,0,1
2,51,0,92
2,49,56,1
2,77,64,0
2,78,0,2
2,85,0,86
2,54,73,8
2,85,73,0
2,82,73,0
2,49,0,5
2,77,0,4
2,53,56,87
2,80,73,0
2,82,0,1
2,54,0,0
2,78,64,95
2,51,52,0
2,53,0,1
2,80,0,3
2,85,0,77
2,56,56,15
2,73,73,0
2,68,56,0
2,51,0,7
2,78,0,0
2,73,0,32
2,68,0,2
2,44,60,7
2,72,73,0
2,68,56,0
2,56,0,1
2,68,0,36
2,44,0,6
2,72,0,3
2,73,73,2
2,68,73,0
2,49,64,0
2,68,0,351
2,73,0,0
2,49,0,30
3,70,64,3456
3,63,73,0
3,51,56,0
3,39,52,0
3,66,73,0
3,51,0,58
3,39,0,1
3,70,0,5
3,63,0,0
3,66,0,0
3,47,56,8
3,71,73,0
3,66,64,0
3,63,56,0
3,71,0,104
3,66,0,2
3,63,0,7
3,47,0,1
3,70,60,6
3,61,64,0
3,42,56,0
3,66,56,0
3,70,0,63
3,61,0,1
3,42,0,5
3,66,0,0
3,49,56,3
3,68,56,0
3,65,64,0
3,61,64,0
3,65,0,110
3,49,0,1
3,68,0,2
3,61,0,0
3,51,64,7
3,63,64,0
3,66,60,0
3,70,73,0
3,51,0,65
3,70,0,1
3,66,0,0
3,63,0,1
3,63,60,5
3,47,64,0
3,66,60,0
3,71,64,0
3,71,0,106
3,66,0,3
3,63,0,5
3,47,0,6
3,42,60,0
3,66,60,0
3,70,60,0
3,61,73,0
3,61,0,62
3,70,0,5
3,66,0,0
3,42,0,5
3,49,60,0
3,68,64,0
3,65,64,0
3,61,64,0
3,65,0,112
3,49,0,0
3,68,0,3
3,61,0,2
3,51,56,3
3,66,60,0
3,63,64,0
3,70,64,0
3,66,0,65
3,51,0,1
3,63,0,0
3,70,0,0
3,47,56,6
3,63,56,0
3,71,73,0
3,66,60,0
3,71,0,106
3,66,0,5
3,63,0,4
3,47,0,4
3,42,60,1
3,66,60,0
3,61,64,0
3,70,56,0
3,61,0,62
3,70,0,3
3,42,0,0
3,66,0,2
3,49,60,5
3,65,73,0
3,68,73,0
3,61,73,0
3,65,0,94
3,68,0,1
3,61,0,8
3,49,0,11
3,61,60,6
3,46,60,0
3,70,64,0
3,66,73,0
3,73,64,0
3,66,0,60
3,70,0,2
3,73,0,0
3,61,0,0
3,46,0,10
3,63,56,0
3,66,52,0
3,71,64,0
3,47,73,0
3,66,0,107
3,63,0,0
3,71,0,2
3,49,60,11
3,68,56,0
3,73,60,0
3,65,64,0
3,47,0,2
3,65,0,177
3,73,0,4
3,68,0,3
3,49,0,5
3,66,56,1
3,46,64,0
3,70,56,0
3,73,64,0
3,66,0,59
3,73,0,2
3,70,0,0
3,46,0,8
3,59,73,3
3,63,60,0
3,47,73,0
3,71,73,0
3,66,52,0
3,59,0,107
3,63,0,2
3,71,0,1
3,66,0,0
3,61,52,10
3,49,64,0
3,68,48,0
3,65,60,0
3,73,64,0
3,47,0,1
3,49,0,314
3,61,0,2
3,68,0,1
3,73,0,1
3,65,0,0
3,70,64,2753
3,63,73,0
3,51,56,0
3,39,52,0
3,66,73,0
3,51,0,58
3,39,0,1
3,70,0,5
3,63,0,0
3,66,0,0
3,47,56,8
3,71,73,0
3,66,64,0
3,63,56,0
3,71,0,104
3,66,0,2
3,63,0,7
3,47,0,1
3,70,60,6
3,61,64,0
3,42,56,0
3,66,56,0
3,70,0,63
3,61,0,1
3,42,0,5
3,66,0,0
3,49,56,3
3,68,56,0
3,65,64,0
3,61,64,0
3,65,0,110
3,49,0,1
3,68,0,2
3,61,0,0
3,70,64,7
3,63,73,0
3,51,56,0
3,39,52,0
3,66,73,0
3,51,0,58
3,39,0,1
3,70,0,5
3,63,0,0
3,66,0,0
3,47,56,8
3,71,73,0
3,66,64,0
3,63,56,0
3,71,0,104
3,66,0,2
3,63,0,7
3,47,0,1
3,70,60,6
3,61,64,0
3,42,56,0
3,66,56,0
3,70,0,63
3,61,0,1
3,42,0,5
3,66,0,0
3,49,56,3
3,68,56,0
3,65,64,0
3,61,64,0
3,65,0,110
3,49,0,1
3,68,0,2
3,61,0,0
3,70,64,7
3,63,73,0
3,51,56,0
3,39,52,0
3,66,73,0
3,51,0,58
