track,note,velocity,time
1,45,120,7680
1,52,117,0
1,48,97,221
1,41,113,0
1,52,104,384
1,45,104,0
1,48,104,343
1,41,110,0
1,45,110,394
1,52,107,0
1,43,120,154
1,50,110,0
1,48,113,133
1,41,120,0
1,64,74,512
1,60,79,0
1,57,73,0
1,52,70,0
1,45,74,0
1,55,75,55
1,60,78,0
1,48,74,0
1,64,74,0
1,57,62,47
1,53,66,0
1,50,68,0
1,65,80,0
1,62,72,0
1,56,51,34
1,52,63,0
1,59,66,0
1,64,66,0
1,52,58,410
1,45,66,0
1,64,68,0
1,60,66,0
1,57,67,0
1,64,78,29
1,60,79,0
1,55,71,0
1,48,70,0
1,57,71,34
1,50,74,0
1,62,66,0
1,65,72,0
1,56,58,7
1,59,71,0
1,64,71,0
1,40,72,0
1,47,63,0
1,45,90,394
1,57,90,0
1,60,97,0
1,64,86,0
1,60,99,469
1,57,86,0
1,64,86,0
1,45,99,0
1,66,96,463
1,47,97,0
1,62,92,0
1,59,80,0
1,45,90,365
1,64,83,0
1,57,79,0
1,60,86,0
1,60,94,477
1,45,86,0
1,57,85,0
1,64,83,0
1,47,85,472
1,66,89,0
1,62,90,0
1,59,79,0
1,53,74,300
1,50,76,0
1,62,70,0
1,57,73,0
1,65,83,0
1,59,74,37
1,64,70,0
1,55,73,0
1,52,71,0
1,67,71,0
1,60,71,136
1,48,72,0
1,64,76,0
1,55,73,0
1,41,76,223
1,53,80,0
1,57,90,0
1,60,76,0
1,57,82,80
1,53,82,0
1,50,82,0
1,59,80,253
1,56,75,0
1,64,73,0
1,47,66,0
1,40,74,0
1,45,120,327
1,52,117,0
1,48,97,221
1,41,113,0
1,52,104,384
1,45,104,0
1,48,104,343
1,41,110,0
1,45,110,394
1,52,107,0
1,43,120,154
1,50,110,0
1,48,113,133
1,41,120,0
1,64,74,512
1,60,79,0
1,57,73,0
1,52,70,0
1,45,74,0
1,55,75,55
1,60,78,0
1,48,74,0
1,64,74,0
1,57,62,47
1,53,66,0
1,50,68,0
1,65,80,0
1,62,72,0
1,56,51,34
1,52,63,0
1,59,66,0
1,64,66,0
1,52,58,410
1,45,66,0
1,64,68,0
1,60,66,0
1,57,67,0
1,64,78,29
1,60,79,0
1,55,71,0
1,48,70,0
1,57,71,34
1,50,74,0
1,62,66,0
1,65,72,0
1,56,58,7
1,59,71,0
1,64,71,0
1,40,72,0
1,47,63,0
1,45,90,394
1,57,90,0
1,60,97,0
1,64,86,0
1,60,99,469
1,57,86,0
1,64,86,0
1,45,99,0
1,66,96,463
1,47,97,0
1,62,92,0
1,59,80,0
1,45,90,365
1,64,83,0
1,57,79,0
1,60,86,0
1,60,94,477
1,45,86,0
1,57,85,0
1,64,83,0
1,47,85,472
1,66,89,0
1,62,90,0
1,59,79,0
1,53,74,300
1,50,76,0
1,62,70,0
1,57,73,0
1,65,83,0
1,59,74,37
1,64,70,0
1,55,73,0
1,52,71,0
1,67,71,0
1,60,71,136
1,48,72,0
1,64,76,0
1,55,73,0
1,41,76,223
1,53,80,0
1,57,90,0
1,60,76,0
1,57,82,80
1,53,82,0
1,50,82,0
1,59,80,253
1,56,75,0
1,64,73,0
1,47,66,0
1,40,74,0
1,45,120,327
1,52,117,0
1,48,97,221
1,41,113,0
1,52,104,384
1,45,104,0
1,48,104,343
1,41,110,0
1,45,110,394
1,52,107,0
1,43,120,154
1,50,110,0
1,48,113,133
1,41,120,0
1,48,113,192
1,41,120,0
1,64,79,320
1,60,85,0
1,57,79,0
1,52,78,0
1,45,78,0
1,49,60,152
1,61,71,0
1,57,66,0
1,54,71,0
1,66,77,0
1,50,73,583
1,57,68,0
1,62,74,0
1,66,68,0
1,68,68,21
1,52,70,0
1,61,69,0
1,49,57,0
1,56,59,0
1,64,80,0
1,62,66,594
1,69,73,0
1,57,60,0
1,66,66,0
1,50,68,0
1,61,64,21
1,56,54,0
1,68,69,0
1,52,62,0
1,64,69,0
1,49,54,0
1,62,69,13
1,66,68,0
1,69,78,0
1,57,60,0
1,50,66,0
1,52,63,450
1,56,53,0
1,61,60,0
1,49,49,0
1,64,76,0
1,68,73,0
1,59,66,535
1,47,78,0
1,66,75,0
1,62,69,0
1,57,72,4
1,61,66,0
1,64,68,0
1,45,78,0
1,52,62,0
1,71,123,100
1,64,120,0
1,59,90,0
1,56,96,0
1,52,94,0
1,61,126,50
1,52,83,0
1,66,109,0
1,59,47,0
1,68,100,82
1,52,76,0
1,69,94,64
1,52,94,0
1,59,74,0
1,76,123,18
1,62,107,0
1,45,120,111
1,52,117,0
1,48,97,221
1,41,113,0
1,52,104,384
1,45,104,0
1,48,104,343
1,41,110,0
1,45,110,394
1,52,107,0
1,43,120,154
1,50,110,0
1,48,113,133
1,41,120,0
1,64,74,512
1,60,79,0
1,57,73,0
1,52,70,0
1,45,74,0
1,55,75,55
1,60,78,0
1,48,74,0
1,64,74,0
1,57,62,47
1,53,66,0
1,50,68,0
1,65,80,0
1,62,72,0
1,56,51,34
1,52,63,0
1,59,66,0
1,64,66,0
1,52,58,410
1,45,66,0
1,64,68,0
1,60,66,0
1,57,67,0
1,64,78,29
1,60,79,0
1,55,71,0
1,48,70,0
1,57,71,34
1,50,74,0
1,62,66,0
1,65,72,0
1,56,58,7
1,59,71,0
1,64,71,0
1,40,72,0
1,47,63,0
1,45,120,394
1,52,117,0
1,48,97,221
1,41,113,0
1,52,104,384
1,45,104,0
1,48,104,343
1,41,110,0
1,45,110,394
1,52,107,0
1,43,120,154
1,50,110,0
1,48,113,133
1,41,120,0
1,45,120,512
1,52,117,0
1,48,97,221
1,41,113,0
1,52,104,384
1,45,104,0
1,48,104,343
1,41,110,0
1,45,110,394
1,52,107,0
1,43,120,154
1,50,110,0
1,48,113,133
1,41,120,0
1,45,120,512
1,52,117,0
1,48,97,221
1,41,113,0
1,52,104,384
1,45,104,0
1,48,104,343
1,41,110,0
1,45,110,394
1,52,107,0
1,43,120,154
1,50,110,0
1,48,113,133
1,41,120,0
1,45,92,320
1,57,83,0
1,60,88,0
1,64,82,0
1,49,60,132
1,61,71,0
1,57,66,0
1,54,71,0
1,66,77,0
1,50,73,583
1,57,68,0
1,62,74,0
1,66,68,0
1,68,68,21
1,52,70,0
1,61,69,0
1,49,57,0
1,56,59,0
1,64,80,0
1,62,66,594
1,69,73,0
1,57,60,0
1,66,66,0
1,50,68,0
1,61,64,21
1,56,54,0
1,68,69,0
1,52,62,0
1,64,69,0
1,49,54,0
1,62,69,13
1,66,68,0
1,69,78,0
1,57,60,0
1,50,66,0
1,52,63,450
1,56,53,0
1,61,60,0
1,49,49,0
1,64,76,0
1,68,73,0
1,59,66,535
1,47,78,0
1,66,75,0
1,62,69,0
1,57,72,4
1,61,66,0
1,64,68,0
1,45,78,0
1,52,62,0
1,71,123,100
1,64,120,0
1,59,90,0
1,56,96,0
1,52,94,0
1,61,126,50
1,52,83,0
1,66,109,0
1,59,47,0
1,68,100,82
1,52,76,0
1,69,94,64
1,52,94,0
1,59,74,0
1,76,123,18
1,62,107,0
1,45,120,111
1,52,117,0
1,48,97,221
1,41,113,0
1,52,104,384
1,45,104,0
1,48,104,343
1,41,110,0
1,45,110,394
1,52,107,0
1,43,120,154
1,50,110,0
1,48,113,133
1,41,120,0
1,52,90,512
1,45,97,0
1,57,83,0
1,60,90,0
1,64,80,0
2,45,116,7680
2,52,116,384
2,50,116,178
2,48,116,32
2,47,116,192
2,45,116,23
2,41,116,18
2,43,116,69
2,45,116,108
2,52,116,24
2,50,116,192
2,48,116,26
2,47,116,192
2,45,116,4
2,41,116,72
2,41,116,130
2,43,116,63
2,45,116,178
2,52,116,26
2,50,116,192
2,48,116,37
2,47,116,192
2,45,116,5
2,43,116,37
2,52,116,45
2,50,116,192
2,48,116,29
2,47,116,192
2,45,116,18
2,41,116,39
2,52,116,36
2,50,116,192
2,48,116,8
2,47,116,192
2,43,116,13
2,69,116,12423
2,72,116,0
2,76,116,0
2,76,116,469
2,72,116,0
2,69,116,0
2,74,116,477
2,71,116,0
2,78,116,0
2,81,116,172
2,78,116,26
2,71,116,84
2,76,116,60
2,74,116,12
2,71,116,96
2,81,116,13
2,78,116,63
2,71,116,60
2,76,116,56
2,74,116,96
2,71,116,79
2,78,116,96
2,74,116,0
2,69,116,26
2,76,116,0
2,72,116,0
2,72,116,418
2,69,116,0
2,76,116,0
2,71,116,464
2,74,116,0
2,78,116,0
2,81,116,165
2,78,116,26
2,71,116,84
2,76,116,60
2,74,116,12
2,71,116,96
2,81,116,13
2,78,116,63
2,71,116,60
2,76,116,56
2,74,116,96
2,71,116,79
2,74,116,96
2,78,116,0
2,45,116,6202
2,52,116,384
2,50,116,178
2,48,116,32
2,47,116,192
2,45,116,23
2,41,116,18
2,43,116,69
2,45,116,108
2,52,116,24
2,50,116,192
2,48,116,26
2,47,116,192
2,45,116,4
2,41,116,72
2,41,116,130
2,43,116,63
2,45,116,178
2,52,116,26
2,50,116,192
2,48,116,37
2,47,116,192
2,45,116,5
2,43,116,37
2,52,116,45
2,50,116,192
2,48,116,29
2,47,116,192
2,45,116,18
2,41,116,39
2,52,116,36
2,50,116,192
2,48,116,8
2,47,116,192
2,43,116,13
2,69,116,12423
2,72,116,0
2,76,116,0
2,76,116,469
2,72,116,0
2,69,116,0
2,74,116,477
2,71,116,0
2,78,116,0
2,81,116,172
2,78,116,26
2,71,116,84
2,76,116,60
2,74,116,12
2,71,116,96
2,81,116,13
2,78,116,63
2,71,116,60
2,76,116,56
2,74,116,96
2,71,116,79
2,78,116,96
2,74,116,0
2,69,116,26
2,76,116,0
2,72,116,0
2,72,116,418
2,69,116,0
2,76,116,0
2,71,116,464
2,74,116,0
2,78,116,0
2,81,116,165
2,78,116,26
2,71,116,84
2,76,116,60
2,74,116,12
2,71,116,96
2,81,116,13
2,78,116,63
2,71,116,60
2,76,116,56
2,74,116,96
2,71,116,79
2,74,116,96
2,78,116,0
2,45,116,6202
2,52,116,384
2,50,116,178
2,48,116,32
2,47,116,192
2,45,116,23
2,41,116,18
2,43,116,69
2,45,116,108
2,52,116,24
2,50,116,192
2,48,116,26
2,47,116,192
2,45,116,4
2,41,116,72
2,41,116,130
2,43,116,63
2,45,116,178
2,52,116,26
2,50,116,192
2,48,116,37
2,47,116,192
2,45,116,5
2,43,116,37
2,52,116,45
2,50,116,192
2,48,116,29
2,47,116,192
2,45,116,18
2,41,116,39
2,41,116,192
2,52,116,36
2,50,116,192
2,48,116,8
2,47,116,192
2,43,116,13
2,45,116,192
2,61,116,661
2,69,116,0
2,66,116,0
2,69,116,695
2,61,116,0
2,66,116,0
2,69,116,685
2,62,116,0
2,66,116,0
2,62,116,684
2,66,116,0
2,69,116,0
2,61,116,661
2,64,116,0
2,68,116,0
2,61,116,679
2,64,116,0
2,68,116,0
2,62,116,674
2,69,116,0
2,66,116,0
2,62,116,684
2,66,116,0
2,69,116,0
2,61,116,676
2,64,116,0
2,68,116,0
2,64,116,677
2,61,116,0
2,68,116,0
2,62,116,671
2,69,116,0
2,66,116,0
2,62,116,685
2,69,116,0
2,66,116,0
2,64,116,684
2,61,116,0
2,68,116,0
2,68,116,677
2,61,116,0
2,64,116,0
2,66,116,676
2,62,116,0
2,59,116,0
2,66,116,692
2,59,116,0
2,62,116,0
2,66,116,684
2,62,116,0
2,59,116,0
2,59,116,688
2,62,116,0
2,66,116,0
2,76,116,210
2,73,116,5
2,69,116,72
2,78,116,90
2,76,116,12
2,73,116,96
2,78,116,82
2,76,116,47
2,73,116,96
2,78,116,58
2,76,116,18
2,73,116,96
2,78,116,50
2,73,116,12
2,76,116,0
2,76,116,162
2,73,116,96
2,78,116,0
2,69,116,8
2,73,116,96
2,78,116,64
2,76,116,16
2,73,116,96
2,78,116,53
2,76,116,20
2,73,116,96
2,78,116,82
2,76,116,18
2,45,116,6228
2,52,116,384
2,50,116,178
2,48,116,32
2,47,116,192
2,45,116,23
2,41,116,18
2,43,116,69
2,45,116,108
2,52,116,24
2,50,116,192
2,48,116,26
2,47,116,192
2,45,116,4
2,41,116,72
2,41,116,130
2,43,116,63
2,45,116,178
2,52,116,26
2,50,116,192
2,48,116,37
2,47,116,192
2,45,116,5
2,43,116,37
2,52,116,45
2,50,116,192
2,48,116,29
2,47,116,192
2,45,116,18
2,41,116,39
2,52,116,36
2,50,116,192
2,48,116,8
2,47,116,192
2,43,116,13
2,45,116,12423
2,52,116,384
2,50,116,178
2,48,116,32
2,47,116,192
2,45,116,23
2,41,116,18
2,43,116,69
2,45,116,108
2,52,116,24
2,50,116,192
2,48,116,26
2,47,116,192
2,45,116,4
2,41,116,72
2,41,116,130
2,43,116,63
2,45,116,178
2,52,116,26
2,50,116,192
2,48,116,37
2,47,116,192
2,45,116,5
2,43,116,37
2,52,116,45
2,50,116,192
2,48,116,29
2,47,116,192
2,45,116,18
2,41,116,39
2,52,116,36
2,50,116,192
2,48,116,8
2,47,116,192
2,43,116,13
2,45,116,135
2,52,116,384
2,50,116,178
2,48,116,32
2,47,116,192
2,45,116,23
2,41,116,18
2,43,116,69
2,45,116,108
2,52,116,24
2,50,116,192
2,48,116,26
2,47,116,192
2,45,116,4
2,41,116,72
2,41,116,130
2,43,116,63
2,45,116,178
2,52,116,26
2,50,116,192
2,48,116,37
2,47,116,192
2,45,116,5
2,43,116,37
2,52,116,45
2,50,116,192
2,48,116,29
2,47,116,192
2,45,116,18
2,41,116,39
2,52,116,36
2,50,116,192
2,48,116,8
2,47,116,192
2,43,116,13
2,45,116,135
2,52,116,384
2,50,116,178
2,48,116,32
2,47,116,192
2,45,116,23
2,41,116,18
2,43,116,69
2,45,116,108
2,52,116,24
2,50,116,192
2,48,116,26
2,47,116,192
2,45,116,4
2,41,116,72
2,41,116,130
2,43,116,63
2,45,116,178
2,52,116,26
2,50,116,192
2,48,116,37
2,47,116,192
2,45,116,5
2,43,116,37
2,52,116,45
2,50,116,192
2,48,116,29
2,47,116,192
2,45,116,18
2,41,116,39
2,52,116,36
2,50,116,192
2,48,116,8
2,47,116,192
2,43,116,13
2,81,116,8
2,45,116,0
2,84,116,0
2,45,116,541
2,47,116,192
2,49,116,191
2,50,116,8
2,52,116,29
2,50,116,13
2,49,116,439
2,50,116,13
2,52,116,192
2,54,116,26
2,56,116,13
2,59,116,50
2,57,116,47
2,56,116,416
2,57,116,16
2,59,116,192
2,61,116,186
2,62,116,24
2,61,116,701
2,62,116,384
2,64,116,39
2,66,116,192
2,68,116,143
2,69,116,76
2,69,116,64
2,72,116,2
2,69,116,82
2,69,116,100
2,72,116,135
2,69,116,40
2,76,116,50
2,73,116,5
2,69,116,72
2,78,116,90
2,76,116,12
2,73,116,96
2,78,116,82
2,76,116,47
2,73,116,96
2,78,116,58
2,76,116,18
2,73,116,96
2,78,116,50
2,73,116,12
2,76,116,0
2,76,116,162
2,73,116,96
2,78,116,0
2,69,116,8
2,73,116,96
2,78,116,64
2,76,116,16
2,73,116,96
2,78,116,53
2,76,116,20
2,73,116,96
2,78,116,82
2,76,116,18
2,45,116,1320
2,52,116,384
2,50,116,178
2,48,116,32
2,47,116,192
2,45,116,23
2,41,116,18
2,43,116,69
2,45,116,108
2,52,116,24
2,50,116,192
2,48,116,26
2,47,116,192
2,45,116,4
2,41,116,72
2,41,116,130
2,43,116,63
2,45,116,178
2,52,116,26
2,50,116,192
2,48,116,37
2,47,116,192
2,45,116,5
2,43,116,37
2,52,116,45
2,50,116,192
2,48,116,29
2,47,116,192
2,45,116,18
2,41,116,39
2,52,116,36
2,50,116,192
2,48,116,8
2,47,116,192
2,43,116,13
2,45,116,135
3,60,86,1536
3,57,82,0
3,64,78,0
3,45,80,0
3,52,83,0
3,60,53,40
3,64,53,0
3,57,51,0
3,52,72,39
3,45,68,0
3,60,75,50
3,57,66,0
3,64,69,0
3,57,51,132
3,60,57,0
3,64,57,0
3,52,64,45
3,45,62,0
3,60,76,47
3,64,70,0
3,57,68,0
3,52,75,66
