track,note,velocity,time
1,48,90,1
1,48,0,1199
1,51,79,0
1,51,0,240
1,56,83,0
1,56,0,240
1,58,76,0
1,58,0,240
1,60,83,0
1,60,0,240
1,56,75,0
1,56,0,240
1,63,76,0
1,63,0,240
1,70,72,0
1,70,0,240
1,72,73,0
1,72,0,240
1,68,68,0
1,68,0,240
1,75,76,0
1,75,0,240
1,82,68,0
1,82,0,240
1,84,69,0
1,84,0,240
1,79,58,0
1,79,0,240
1,82,59,0
1,82,0,240
1,80,53,0
1,80,0,240
1,79,49,0
1,79,0,480
1,78,44,0
1,78,0,240
1,78,40,480
1,78,0,240
1,79,44,0
1,79,0,240
1,78,41,0
1,78,0,240
1,77,44,0
1,77,0,240
1,78,41,0
1,78,0,240
1,81,45,0
1,81,0,160
1,79,41,0
1,79,0,160
1,75,44,0
1,75,0,160
1,75,43,0
1,75,0,360
1,74,39,0
1,74,0,120
1,77,40,0
1,77,0,160
1,75,39,0
1,75,0,160
1,74,33,0
1,74,0,144
1,74,31,16
1,74,0,480
1,72,43,1440
1,72,0,720
1,67,46,0
1,67,0,240
1,70,62,240
1,60,48,3360
1,62,44,240
1,70,0,240
1,66,44,0
1,66,0,240
1,70,49,0
1,70,0,240
1,69,47,0
1,69,0,240
1,62,0,0
1,60,0,0
1,67,44,0
1,58,28,480
1,62,33,0
1,62,0,475
1,58,0,0
1,58,28,5
1,62,33,0
1,62,0,475
1,58,0,0
1,67,0,5
1,74,47,0
1,62,28,480
1,67,33,0
1,67,0,475
1,62,0,0
1,62,28,5
1,67,33,0
1,67,0,475
1,62,0,0
1,74,0,5
1,72,47,0
1,60,22,480
1,63,23,0
1,67,28,0
1,67,0,475
1,63,0,0
1,60,0,0
1,60,22,5
1,63,23,0
1,67,28,0
1,67,0,475
1,63,0,0
1,60,0,0
1,72,0,5
1,60,48,240
1,62,44,240
1,66,44,240
1,66,0,240
1,70,49,0
1,70,0,240
1,69,47,0
1,69,0,240
1,62,0,0
1,60,0,0
1,67,44,0
1,58,28,480
1,62,33,0
1,62,0,475
1,58,0,0
1,58,28,5
1,62,33,0
1,62,0,475
1,58,0,0
1,67,0,5
1,64,44,0
1,57,28,480
1,55,28,0
1,61,33,0
1,61,0,475
1,55,0,0
1,57,0,0
1,57,28,5
1,55,28,0
1,61,33,0
1,61,0,475
1,55,0,0
1,57,0,0
1,64,0,5
1,66,44,0
1,54,20,480
1,57,23,0
1,62,28,0
1,62,0,475
1,57,0,0
1,54,0,0
1,54,20,5
1,57,23,0
1,62,28,0
1,62,0,475
1,57,0,0
1,54,0,0
1,66,0,5
1,60,48,240
1,62,44,240
1,66,44,240
1,66,0,240
1,70,49,0
1,70,0,240
1,69,47,0
1,69,0,240
1,62,0,0
1,60,0,0
1,67,44,0
1,58,28,480
1,62,33,0
1,62,0,475
1,58,0,0
1,58,28,5
1,62,33,0
1,62,0,475
1,58,0,0
1,67,0,5
1,79,53,0
1,70,28,480
1,67,28,0
1,73,33,0
1,73,0,475
1,67,0,0
1,70,0,0
1,70,28,5
1,67,28,0
1,73,33,0
1,73,0,475
1,67,0,0
1,70,0,0
1,79,0,5
1,77,50,0
1,70,29,480
1,72,34,0
1,72,0,475
1,70,0,0
1,70,29,5
1,72,35,0
1,72,0,475
1,70,0,0
1,77,0,5
1,63,48,0
1,65,48,240
1,65,0,240
1,69,44,0
1,75,46,240
1,75,0,240
1,74,51,0
1,74,0,240
1,73,49,120
1,73,0,110
1,69,0,10
1,63,0,0
1,73,46,0
1,63,20,480
1,65,23,0
1,69,28,0
1,69,0,475
1,65,0,0
1,63,0,0
1,63,20,5
1,65,23,0
1,69,28,0
1,69,0,475
1,65,0,0
1,63,0,0
1,73,0,5
1,74,46,0
1,65,23,480
1,62,19,0
1,70,28,0
1,70,0,475
1,62,0,0
1,65,0,0
1,65,23,5
1,62,18,0
1,70,28,0
1,70,0,475
1,62,0,0
1,65,0,0
1,74,0,5
1,72,47,0
1,63,28,480
1,67,33,0
1,67,0,475
1,63,0,0
1,63,28,5
1,67,34,0
1,67,0,475
1,63,0,0
1,72,0,5
1,60,48,240
1,62,44,240
1,66,44,240
1,66,0,240
1,70,49,0
1,70,0,240
1,69,47,0
1,69,0,240
1,62,0,0
1,60,0,0
1,67,44,0
1,58,28,480
1,62,33,0
1,62,0,475
1,58,0,0
1,58,28,5
1,62,33,0
1,62,0,475
1,58,0,0
1,67,0,5
1,74,47,0
1,62,28,480
1,67,33,0
1,67,0,475
1,62,0,0
1,62,28,5
1,67,33,0
1,67,0,475
1,62,0,0
1,74,0,5
1,72,47,0
1,60,23,480
1,63,23,0
1,67,28,0
1,67,0,475
1,63,0,0
1,60,0,0
1,60,23,5
1,63,23,0
1,67,28,0
1,67,0,475
1,63,0,0
1,60,0,0
1,72,0,5
1,60,48,240
1,62,44,240
1,66,44,240
1,66,0,240
1,70,49,0
1,70,0,240
1,69,47,0
1,69,0,240
1,62,0,0
1,60,0,0
1,67,44,0
1,58,28,480
1,62,33,0
1,62,0,475
1,58,0,0
1,58,28,5
1,62,33,0
1,62,0,475
1,58,0,0
1,67,0,5
1,64,44,0
1,57,23,480
1,55,23,0
1,61,28,0
1,61,0,475
1,55,0,0
1,57,0,0
1,57,23,5
1,55,23,0
1,61,28,0
1,61,0,475
1,55,0,0
1,57,0,0
1,64,0,5
1,66,44,0
1,54,17,480
1,57,19,0
1,62,23,0
1,62,0,475
1,57,0,0
1,54,0,0
1,54,17,5
1,57,19,0
1,62,23,0
1,62,0,475
1,57,0,0
1,54,0,0
1,66,0,5
1,60,48,240
1,62,44,240
1,66,44,240
1,66,0,240
1,70,49,0
1,70,0,240
1,69,47,0
1,69,0,240
1,62,0,0
1,60,0,0
1,67,44,0
1,62,28,480
1,59,28,0
1,65,33,0
1,65,0,475
1,59,0,0
1,62,0,0
1,62,28,5
1,59,28,0
1,65,33,0
1,65,0,475
1,59,0,0
1,62,0,0
1,67,0,5
1,79,58,0
1,65,28,480
1,71,31,0
1,67,31,0
1,74,36,0
1,74,0,475
1,71,0,0
1,67,0,0
1,65,0,0
1,65,32,5
1,71,32,0
1,67,28,0
1,74,37,0
1,74,0,475
1,71,0,0
1,67,0,0
1,65,0,0
1,79,0,5
1,79,62,0
1,67,33,480
1,72,33,0
1,75,39,0
1,75,0,475
1,72,0,0
1,67,0,0
1,67,34,5
1,72,34,0
1,75,40,0
1,75,0,475
1,72,0,0
1,67,0,0
1,79,0,5
1,74,66,0
1,62,35,480
1,67,41,0
1,67,0,475
1,62,0,0
1,62,36,5
1,67,42,0
1,67,0,475
1,62,0,0
1,74,0,5
1,72,58,0
1,60,35,480
1,67,41,0
1,67,0,475
1,60,0,0
1,60,34,5
1,67,40,0
1,67,0,475
1,60,0,0
1,72,0,5
1,67,62,0
1,58,31,480
1,62,37,0
1,62,0,475
1,58,0,0
1,58,30,5
1,62,36,0
1,62,0,475
1,58,0,0
1,67,0,5
1,79,62,0
1,67,33,480
1,72,33,0
1,75,39,0
1,75,0,475
1,72,0,0
1,67,0,0
1,67,34,5
1,72,34,0
1,75,40,0
1,75,0,475
1,72,0,0
1,67,0,0
1,79,0,5
1,74,59,0
1,62,35,480
1,67,41,0
1,67,0,475
1,62,0,0
1,62,36,5
1,67,42,0
1,67,0,475
1,62,0,0
1,74,0,5
1,72,64,0
1,60,35,480
1,67,41,0
1,67,0,475
1,60,0,0
1,60,34,5
1,67,40,0
1,67,0,475
1,60,0,0
1,72,0,5
1,67,62,0
1,58,31,480
1,61,37,0
1,61,0,475
1,58,0,0
1,58,30,5
1,61,36,0
1,61,0,475
1,58,0,0
1,67,0,5
1,65,57,0
1,58,35,480
1,62,42,0
1,62,0,475
1,58,0,0
1,58,35,5
1,62,42,0
1,62,0,475
1,58,0,0
1,65,0,5
1,74,60,0
1,65,38,480
1,62,38,0
1,70,45,0
1,70,0,475
1,62,0,0
1,65,0,0
1,65,38,5
1,62,38,0
1,70,45,0
1,70,0,475
1,62,0,0
1,65,0,0
1,63,51,5
1,69,51,0
1,74,0,420
1,74,55,0
1,74,0,60
1,69,0,0
1,63,0,0
1,63,48,0
1,69,48,0
1,72,62,0
1,72,0,480
1,69,0,0
1,63,0,0
1,63,45,0
1,69,45,0
1,71,58,0
1,71,0,480
1,69,0,0
1,63,0,0
1,63,50,0
1,69,50,0
1,72,65,0
1,72,0,480
1,69,0,0
1,63,0,0
1,63,49,0
1,69,49,0
1,74,64,0
1,74,0,480
1,69,0,0
1,63,0,0
1,63,51,0
1,69,51,0
1,75,66,0
1,75,0,480
1,69,0,0
1,63,0,0
1,75,71,0
1,63,49,480
1,70,49,0
1,70,0,480
1,63,0,0
1,63,49,0
1,70,49,0
1,70,0,480
1,63,0,0
1,75,0,0
1,62,43,0
1,70,43,0
1,74,56,0
1,70,0,480
1,62,0,0
1,62,43,0
1,70,43,0
1,70,0,480
1,62,0,0
1,62,43,0
1,70,43,0
1,70,0,480
1,62,0,0
1,74,0,0
1,60,51,0
1,66,51,0
1,70,50,420
1,70,0,60
1,66,0,0
1,60,0,0
1,60,48,0
1,66,48,0
1,69,57,0
1,69,0,480
1,66,0,0
1,60,0,0
1,60,43,0
1,66,43,0
1,68,54,0
1,68,0,480
1,66,0,0
1,60,0,0
1,60,48,0
1,66,48,0
1,69,57,0
1,69,0,480
1,66,0,0
1,60,0,0
1,60,47,0
1,66,47,0
1,70,56,0
1,70,0,480
1,66,0,0
1,60,0,0
1,60,49,0
1,66,49,0
1,72,58,0
1,72,0,480
1,66,0,0
1,60,0,0
1,72,67,0
1,60,49,480
1,67,49,0
1,67,0,480
1,60,0,0
1,60,49,0
1,67,49,0
1,67,0,480
1,60,0,0
1,72,0,0
1,58,43,0
1,67,43,0
1,70,51,0
1,67,0,480
1,58,0,0
1,58,43,0
1,67,43,0
1,67,0,480
1,58,0,0
1,58,43,0
1,67,43,0
1,67,0,480
1,58,0,0
1,70,0,0
1,63,50,0
1,67,50,0
1,69,56,0
1,67,0,480
1,63,0,0
1,63,50,0
1,67,50,0
1,67,0,480
1,63,0,0
1,63,50,0
1,67,50,0
1,67,0,480
1,63,0,0
1,69,0,0
1,62,42,0
1,66,42,0
1,69,51,0
1,66,0,480
1,62,0,0
1,62,42,0
1,66,42,0
1,66,0,480
1,62,0,0
1,62,42,0
1,66,42,0
1,69,0,240
1,69,51,0
1,69,0,120
1,57,51,0
1,64,51,60
1,66,0,60
1,62,0,0
1,69,51,0
1,57,0,480
1,64,0,0
1,69,0,1920
1,69,66,0
1,69,0,600
1,70,56,0
1,70,0,120
1,69,56,0
1,69,0,120
1,68,57,0
1,68,0,120
1,69,58,0
1,69,0,120
1,79,60,0
1,79,0,120
1,76,61,0
1,76,0,120
1,77,62,0
1,77,0,120
1,77,63,0
1,77,0,120
1,91,64,0
1,91,0,120
1,89,66,0
1,89,0,120
1,88,66,0
1,88,0,120
1,87,67,0
1,87,0,80
1,84,58,0
1,84,0,80
1,81,58,0
1,81,0,80
1,82,62,0
1,82,0,80
1,86,58,0
1,86,0,80
1,84,58,0
1,84,0,80
1,82,66,0
1,82,0,80
1,79,58,0
1,79,0,80
1,77,58,0
1,77,0,80
1,74,62,0
1,74,0,80
1,75,58,0
1,75,0,80
1,76,58,0
1,76,0,80
1,77,63,0
1,77,0,80
1,78,58,0
1,78,0,80
1,81,58,0
1,81,0,80
1,79,58,0
1,79,0,80
1,77,56,0
1,77,0,80
1,75,56,0
1,75,0,80
1,73,64,0
1,73,0,240
1,74,66,240
1,74,0,1440
1,72,56,0
1,72,0,480
1,67,57,0
1,67,0,480
1,70,62,0
1,70,0,1440
1,66,53,0
1,66,0,1440
1,67,47,0
1,67,0,480
1,70,28,0
1,82,50,0
1,82,0,240
1,70,0,0
1,74,45,0
1,74,0,240
1,77,48,0
1,77,0,240
1,75,45,0
1,75,0,720
1,69,31,0
1,81,50,0
1,81,0,240
1,69,0,0
1,73,44,0
1,73,0,240
1,75,49,0
1,75,0,240
1,74,45,0
1,74,0,720
1,70,30,0
1,82,50,0
1,82,0,240
1,70,0,0
1,74,48,0
1,74,0,240
1,77,50,0
1,77,0,240
1,75,47,0
1,75,0,720
1,68,32,0
1,80,51,0
1,80,0,240
1,68,0,0
1,73,47,0
1,73,0,240
1,75,52,0
1,75,0,240
1,74,47,0
1,74,0,720
1,67,32,0
1,79,53,0
1,79,0,240
1,67,0,0
1,71,50,0
1,71,0,240
1,74,53,0
1,74,0,240
1,72,49,0
1,72,0,720
1,60,41,0
1,72,54,0
1,72,0,240
1,60,0,0
1,68,49,0
1,68,0,240
1,70,55,0
1,70,0,240
1,69,49,0
1,69,0,720
1,63,43,0
1,75,55,0
1,75,0,240
1,63,0,0
1,71,53,0
1,71,0,240
1,74,56,0
1,74,0,240
1,72,52,0
1,72,0,720
1,63,48,0
1,67,57,0
1,63,0,240
1,62,51,0
1,62,0,240
1,67,0,0
1,61,52,0
1,66,47,0
1,69,57,0
1,61,0,240
1,60,52,0
1,60,0,240
1,69,0,0
1,66,0,0
1,58,60,0
1,67,60,0
1,70,71,0
1,70,0,480
1,67,0,0
1,58,0,0
1,70,52,0
1,82,71,0
1,74,67,240
1,74,0,240
1,77,71,0
1,77,0,240
1,75,66,0
1,82,0,240
1,70,0,0
1,75,0,480
1,69,57,0
1,81,71,0
1,73,65,240
1,73,0,240
1,75,72,0
1,75,0,240
1,74,66,0
1,81,0,240
1,69,0,0
1,74,0,480
1,70,56,0
1,82,72,0
1,74,69,240
1,74,0,240
1,77,73,0
1,77,0,240
1,75,67,0
1,75,0,240
1,82,0,0
1,70,0,0
1,68,57,480
1,80,74,0
1,73,67,240
1,73,0,240
1,75,74,0
1,75,0,240
1,74,67,0
1,74,0,240
1,80,0,0
1,68,0,0
1,67,57,480
1,79,75,0
1,71,71,240
1,71,0,240
1,74,75,0
1,74,0,240
1,72,70,0
1,72,0,240
1,79,0,0
1,67,0,0
1,60,57,480
1,72,75,0
1,68,69,240
1,68,0,240
1,70,76,0
1,70,0,240
1,69,69,0
1,69,0,240
1,72,0,0
1,60,0,0
1,63,59,480
1,75,76,0
1,71,73,240
1,71,0,240
1,74,77,0
1,74,0,240
1,72,71,0
1,72,0,240
1,75,0,0
1,63,0,0
1,54,78,480
1,66,78,0
1,61,71,240
1,61,0,240
1,63,71,0
1,63,0,240
1,62,71,0
1,62,0,240
1,66,0,0
1,54,0,0
1,67,79,0
1,58,67,0
1,58,0,240
1,67,0,0
1,60,78,0
1,55,53,0
1,55,0,120
1,60,0,0
1,58,65,0
1,58,0,120
1,57,64,0
1,57,0,120
1,55,65,0
1,55,0,120
1,58,77,0
1,67,77,0
1,67,0,240
1,58,0,0
1,60,77,0
1,55,52,0
1,55,0,120
1,60,0,0
1,58,64,0
1,58,0,120
1,57,64,0
1,57,0,120
1,55,63,0
1,55,0,120
1,65,69,0
1,65,0,120
1,60,52,0
1,60,0,120
1,63,54,0
1,63,0,120
1,54,55,0
1,54,0,120
1,60,57,0
1,60,0,120
1,63,58,0
1,63,0,120
1,66,60,0
1,66,0,120
1,72,62,0
1,72,0,120
1,77,63,0
1,77,0,120
1,75,65,0
1,75,0,120
1,74,67,0
1,74,0,120
1,72,68,0
1,72,0,120
1,79,79,0
1,70,67,0
1,70,0,120
1,79,0,0
1,67,53,120
1,72,78,0
1,72,0,120
1,67,0,0
1,70,65,0
1,70,0,120
1,69,64,0
1,69,0,120
1,67,65,0
1,67,0,120
1,70,69,0
1,79,77,0
1,79,0,240
1,70,0,0
1,72,77,0
1,67,52,0
1,67,0,120
1,72,0,0
1,70,64,0
1,70,0,120
1,69,64,0
1,69,0,120
1,67,63,0
1,67,0,120
1,77,69,0
1,77,0,120
1,72,52,0
1,72,0,120
1,75,54,0
1,75,0,120
1,66,55,0
1,66,0,120
1,72,57,0
1,72,0,120
1,75,58,0
1,75,0,120
1,78,60,0
1,78,0,120
1,84,62,0
1,84,0,120
1,89,63,0
1,89,0,120
