track,note,velocity,time
1,37,100,3456
1,37,100,0
1,37,100,0
1,39,100,0
1,32,100,0
1,37,100,0
1,30,100,0
1,34,100,0
1,32,100,0
1,37,100,48
1,37,100,0
1,37,100,0
1,37,100,0
1,37,100,0
1,39,100,0
1,32,100,0
1,30,100,0
1,32,100,0
1,32,100,0
1,34,100,0
1,34,100,0
1,34,100,0
1,34,100,0
1,32,100,192
1,34,100,0
1,34,100,0
1,29,100,0
1,30,100,0
1,30,100,0
1,30,100,0
1,30,100,0
1,30,100,240
1,30,100,48
1,32,100,96
1,34,100,0
1,34,100,0
1,34,100,0
1,34,100,0
1,32,100,192
1,34,100,0
1,34,100,0
1,29,100,0
1,30,100,0
1,30,100,0
1,30,100,0
1,30,100,0
1,30,100,240
1,30,100,48
1,32,100,96
1,32,100,0
1,32,100,0
1,32,100,0
1,32,100,0
1,32,100,0
1,32,100,0
1,32,100,0
1,32,100,0
1,32,100,0
1,34,100,0
1,34,100,0
1,34,100,0
1,34,100,0
1,30,100,0
1,30,100,0
1,30,100,0
1,30,100,0
1,32,100,0
1,32,100,0
1,32,100,0
1,32,100,0
1,32,100,0
1,32,100,0
1,32,100,0
1,32,100,0
1,32,100,0
1,32,100,0
1,34,100,0
1,34,100,0
1,34,100,0
1,34,100,0
1,30,100,0
1,30,100,0
1,30,100,0
1,30,100,0
1,30,100,0
1,30,100,0
1,30,100,0
1,30,100,0
1,30,100,0
1,30,100,0
1,30,100,0
1,30,100,0
1,30,100,0
1,30,100,0
1,30,100,0
1,30,100,0
1,30,100,0
1,30,100,0
1,30,100,0
1,30,100,0
1,37,100,0
1,37,100,0
1,37,100,0
1,39,100,0
1,32,100,0
1,37,100,0
1,30,100,0
1,34,100,0
1,32,100,0
1,37,100,48
1,37,100,0
1,37,100,0
1,37,100,0
1,37,100,0
1,39,100,0
1,32,100,0
1,30,100,0
1,32,100,0
1,32,100,0
1,34,100,0
1,34,100,0
1,34,100,0
1,34,100,0
1,32,100,192
1,34,100,0
1,34,100,0
1,29,100,0
1,30,100,0
1,30,100,0
1,30,100,0
1,30,100,0
1,30,100,240
1,30,100,48
1,32,100,96
1,34,100,0
1,34,100,0
1,34,100,0
1,34,100,0
1,32,100,192
1,34,100,0
1,34,100,0
1,29,100,0
1,30,100,0
1,30,100,0
1,30,100,0
1,30,100,0
1,30,100,240
1,30,100,48
1,32,100,96
1,32,100,0
1,32,100,0
1,32,100,0
1,32,100,0
1,32,100,0
1,32,100,0
1,32,100,0
1,32,100,0
1,32,100,0
1,34,100,0
1,34,100,0
1,34,100,0
1,34,100,0
1,30,100,0
1,30,100,0
1,30,100,0
1,30,100,0
1,32,100,0
1,32,100,0
1,32,100,0
1,32,100,0
1,32,100,0
1,32,100,0
1,32,100,0
1,32,100,0
1,32,100,0
1,32,100,0
1,34,100,0
1,34,100,0
1,34,100,0
1,34,100,0
1,30,100,0
1,30,100,0
1,30,100,0
1,30,100,0
1,30,100,0
1,30,100,0
1,30,100,0
1,30,100,0
1,30,100,0
1,30,100,0
1,30,100,0
1,30,100,0
1,30,100,0
1,30,100,0
1,30,100,0
1,30,100,0
1,30,100,0
1,30,100,0
1,30,100,0
1,30,100,0
1,37,100,0
1,37,100,0
1,37,100,0
1,39,100,0
1,32,100,0
1,37,100,0
1,30,100,0
1,34,100,0
1,32,100,0
1,37,100,48
1,37,100,0
1,37,100,0
1,37,100,0
1,37,100,0
1,39,100,0
1,32,100,0
1,30,100,0
1,32,100,0
1,37,100,0
1,37,100,0
1,37,100,0
1,37,100,0
1,37,100,0
1,39,100,0
1,32,100,0
1,37,100,0
1,30,100,0
1,34,100,0
1,32,100,0
1,37,100,48
1,37,100,0
1,37,100,0
1,37,100,0
1,37,100,0
1,39,100,0
1,32,100,0
1,30,100,0
1,30,100,0
1,32,100,0
1,32,100,0
1,32,100,0
1,32,100,0
1,32,100,0
1,32,100,0
1,32,100,0
1,32,100,0
1,32,100,0
1,32,100,0
1,32,100,0
1,32,100,0
1,32,100,0
1,32,100,0
1,32,100,0
1,32,100,0
1,32,100,0
1,32,100,0
1,34,100,0
1,34,100,0
1,34,100,0
1,34,100,0
1,34,100,0
1,34,100,0
1,34,100,0
1,34,100,0
1,30,100,0
1,30,100,0
1,30,100,0
1,30,100,0
1,30,100,0
1,30,100,0
1,30,100,0
1,30,100,0
1,32,100,0
1,32,100,0
1,32,100,0
1,32,100,0
1,32,100,0
1,32,100,0
1,32,100,0
1,32,100,0
1,32,100,0
1,32,100,0
1,32,100,0
1,32,100,0
1,32,100,0
1,32,100,0
1,32,100,0
1,32,100,0
1,34,100,0
1,34,100,0
1,34,100,0
1,34,100,0
1,34,100,0
1,34,100,0
1,34,100,0
1,34,100,0
1,30,100,0
1,30,100,0
1,30,100,0
1,30,100,0
1,30,100,0
1,30,100,0
1,30,100,0
1,30,100,0
1,32,100,0
1,32,100,0
1,32,100,0
1,32,100,0
1,32,100,0
1,32,100,0
1,32,100,0
1,32,100,0
1,32,100,0
1,32,100,0
1,32,100,0
1,32,100,0
1,32,100,0
1,32,100,0
1,32,100,0
1,32,100,0
1,34,100,0
1,34,100,0
1,34,100,0
1,34,100,0
1,34,100,0
1,34,100,0
1,34,100,0
1,34,100,0
1,30,100,0
1,30,100,0
1,30,100,0
1,30,100,0
1,30,100,0
1,30,100,0
1,30,100,0
1,30,100,0
1,32,100,0
1,32,100,0
1,32,100,0
1,32,100,0
1,32,100,0
1,32,100,0
1,32,100,0
1,32,100,0
1,32,100,0
1,32,100,0
1,32,100,0
1,32,100,0
1,32,100,0
1,32,100,0
1,32,100,0
1,32,100,0
1,34,100,0
1,34,100,0
1,34,100,0
1,34,100,0
1,34,100,0
1,34,100,0
1,34,100,0
1,34,100,0
1,30,100,0
1,30,100,0
1,30,100,0
1,30,100,0
1,30,100,0
1,30,100,0
1,30,100,0
1,30,100,0
1,42,100,0
1,49,100,0
1,54,100,0
1,32,100,2736
1,32,100,0
1,32,100,0
1,32,100,0
1,32,100,0
1,32,100,0
1,37,100,0
1,37,100,0
1,37,100,0
1,39,100,0
1,32,100,0
1,37,100,0
1,30,100,0
1,34,100,0
1,32,100,0
1,37,100,48
1,37,100,0
1,37,100,0
1,37,100,0
1,37,100,0
1,39,100,0
1,32,100,0
1,30,100,0
1,32,100,0
1,37,100,0
1,37,100,0
1,37,100,0
1,37,100,0
1,37,100,0
1,39,100,0
1,32,100,0
1,37,100,0
1,30,100,0
1,34,100,0
1,32,100,0
1,37,100,48
1,37,100,0
1,37,100,0
1,37,100,0
1,37,100,0
1,39,100,0
1,32,100,0
1,30,100,0
1,32,100,0
1,37,100,0
1,37,100,0
1,37,100,0
1,37,100,0
1,32,100,0
1,37,100,0
1,30,100,0
1,34,100,0
1,32,100,0
1,32,100,0
1,32,100,0
1,37,100,0
1,37,100,0
1,37,100,0
1,37,100,0
1,37,100,0
1,37,100,0
1,32,100,0
1,30,100,0
1,32,100,0
1,32,100,0
1,32,100,0
1,37,100,0
1,37,100,0
1,37,100,0
1,37,100,0
1,32,100,0
1,37,100,0
1,30,100,0
1,34,100,0
1,32,100,0
1,32,100,0
1,32,100,0
1,37,100,0
1,37,100,0
1,37,100,0
1,37,100,0
1,37,100,0
1,37,100,0
1,32,100,0
1,30,100,0
1,32,100,0
1,32,100,0
1,32,100,0
2,56,100,336
2,61,100,0
2,56,100,0
2,61,100,0
2,56,100,0
2,61,100,0
2,63,100,0
2,56,100,0
2,63,100,0
2,56,100,0
2,56,100,0
2,63,100,0
2,61,100,0
2,56,100,0
2,61,100,0
2,56,100,0
2,61,100,0
2,56,100,0
2,66,100,0
2,61,100,0
2,61,100,0
2,65,100,0
2,56,100,0
2,56,100,0
2,63,100,0
2,68,100,0
2,56,100,0
2,61,100,0
2,56,100,0
2,61,100,0
2,56,100,0
2,61,100,0
2,63,100,0
2,56,100,0
2,63,100,0
2,56,100,0
2,56,100,0
2,63,100,0
2,66,100,0
2,61,100,0
2,56,100,0
2,66,100,0
2,61,100,0
2,56,100,0
2,66,100,0
2,61,100,0
2,56,100,0
2,70,100,0
2,66,100,0
2,61,100,0
2,65,100,0
2,61,100,0
2,56,100,0
2,56,100,0
2,63,100,0
2,68,100,0
2,68,100,0
2,61,100,0
2,56,100,0
2,68,100,0
2,61,100,0
2,56,100,0
2,56,100,0
2,61,100,0
2,68,100,0
2,68,100,0
2,63,100,0
2,56,100,0
2,68,100,0
2,63,100,0
2,56,100,0
2,56,100,0
2,63,100,0
2,68,100,0
2,56,100,0
2,61,100,0
2,68,100,0
2,56,100,0
2,61,100,0
2,68,100,0
2,56,100,0
2,61,100,0
2,68,100,0
2,56,100,0
2,61,100,0
2,66,100,0
2,61,100,0
2,65,100,0
2,56,100,0
2,68,100,0
2,63,100,0
2,56,100,0
2,68,100,0
2,56,100,0
2,61,100,0
2,68,100,0
2,56,100,0
2,61,100,0
2,56,100,0
2,61,100,0
2,68,100,0
2,68,100,0
2,63,100,0
2,56,100,0
2,68,100,0
2,63,100,0
2,56,100,0
2,56,100,0
2,63,100,0
2,68,100,0
2,68,100,0
2,61,100,0
2,56,100,0
2,68,100,0
2,61,100,0
2,56,100,0
2,61,100,0
2,68,100,0
2,61,100,0
2,61,100,0
2,66,100,0
2,61,100,0
2,66,100,0
2,61,100,0
2,66,100,0
2,61,100,0
2,65,100,0
2,61,100,0
2,56,100,0
2,68,100,0
2,63,100,0
2,56,100,0
2,44,100,96
2,51,100,0
2,46,100,0
2,53,100,0
2,53,100,0
2,46,100,0
2,53,100,0
2,46,100,0
2,53,100,0
2,46,100,0
2,51,100,192
2,44,100,0
2,46,100,0
2,53,100,0
2,46,100,0
2,53,100,0
2,41,100,0
2,48,100,0
2,42,100,0
2,49,100,0
2,49,100,0
2,42,100,0
2,42,100,0
2,49,100,0
2,42,100,0
2,49,100,0
2,44,100,480
2,51,100,0
2,46,100,0
2,53,100,0
2,53,100,0
2,46,100,0
2,53,100,0
2,46,100,0
2,53,100,0
2,46,100,0
2,51,100,192
2,44,100,0
2,46,100,0
2,53,100,0
2,46,100,0
2,53,100,0
2,48,100,0
2,41,100,0
2,49,100,0
2,42,100,0
2,42,100,0
2,49,100,0
2,49,100,0
2,42,100,0
2,49,100,0
2,42,100,0
2,61,100,384
2,56,100,0
2,56,100,0
2,61,100,0
2,68,100,0
2,61,100,0
2,61,100,0
2,66,100,0
2,61,100,0
2,61,100,0
2,65,100,0
2,56,100,0
2,56,100,0
2,56,100,0
2,56,100,0
2,63,100,0
2,56,100,0
2,56,100,0
2,63,100,0
2,65,100,0
2,61,100,0
2,56,100,0
2,68,100,0
2,61,100,0
2,61,100,0
2,66,100,0
2,61,100,0
2,61,100,0
2,65,100,0
2,61,100,0
2,56,100,0
2,56,100,0
2,56,100,0
2,63,100,0
2,63,100,0
2,56,100,0
2,63,100,0
2,56,100,0
2,56,100,0
2,63,100,0
2,56,100,0
2,63,100,0
2,61,100,0
2,56,100,0
2,61,100,0
2,56,100,0
2,61,100,0
2,56,100,0
2,63,100,0
2,56,100,0
2,63,100,0
2,56,100,0
2,63,100,0
2,56,100,0
2,63,100,0
2,56,100,0
2,68,100,0
2,61,100,0
2,68,100,0
2,61,100,0
2,68,100,0
2,61,100,0
2,56,100,0
2,56,100,0
2,63,100,0
2,68,100,0
2,56,100,0
2,63,100,0
2,68,100,0
2,68,100,0
2,63,100,0
2,56,100,0
2,68,100,0
2,61,100,0
2,56,100,0
2,68,100,0
2,61,100,0
2,56,100,0
2,68,100,0
2,61,100,0
2,56,100,0
2,66,100,0
2,61,100,0
2,56,100,0
2,65,100,0
2,61,100,0
2,56,100,0
2,56,100,0
2,63,100,0
2,68,100,0
2,61,100,0
2,56,100,0
2,68,100,0
2,61,100,0
2,56,100,0
2,68,100,0
2,68,100,0
2,61,100,0
2,56,100,0
2,56,100,0
2,63,100,0
2,68,100,0
2,56,100,0
2,63,100,0
2,68,100,0
2,68,100,0
2,63,100,0
2,56,100,0
2,56,100,0
2,61,100,0
2,68,100,0
2,56,100,0
2,61,100,0
2,68,100,0
2,68,100,0
2,61,100,0
2,61,100,0
2,68,100,0
2,61,100,0
2,61,100,0
2,66,100,0
2,61,100,0
2,66,100,0
2,61,100,0
2,66,100,0
2,61,100,0
2,65,100,0
2,56,100,0
2,68,100,0
2,63,100,0
2,56,100,0
2,44,100,0
2,51,100,0
2,46,100,0
2,53,100,0
2,53,100,0
2,46,100,0
2,53,100,0
2,46,100,0
2,46,100,0
2,53,100,0
2,51,100,192
2,44,100,0
2,46,100,0
2,53,100,0
2,46,100,0
2,53,100,0
2,48,100,0
2,41,100,0
2,49,100,0
2,42,100,0
2,42,100,0
2,49,100,0
2,49,100,0
2,42,100,0
2,49,100,0
2,42,100,0
2,51,100,480
2,44,100,0
2,53,100,0
2,46,100,0
2,46,100,0
2,53,100,0
2,46,100,0
2,53,100,0
2,46,100,0
2,53,100,0
2,44,100,192
2,51,100,0
2,53,100,0
2,46,100,0
2,53,100,0
2,46,100,0
2,41,100,0
2,48,100,0
2,42,100,0
2,49,100,0
2,49,100,0
2,42,100,0
2,42,100,0
2,49,100,0
2,42,100,0
2,49,100,0
2,61,100,384
2,56,100,0
2,61,100,0
2,56,100,0
2,68,100,0
2,61,100,0
2,61,100,0
2,66,100,0
2,61,100,0
2,61,100,0
2,65,100,0
2,56,100,0
2,56,100,0
2,56,100,0
2,56,100,0
2,63,100,0
2,56,100,0
2,56,100,0
2,63,100,0
2,65,100,0
2,56,100,0
2,61,100,0
2,68,100,0
2,61,100,0
2,61,100,0
2,66,100,0
2,61,100,0
2,61,100,0
2,65,100,0
2,61,100,0
2,56,100,0
2,56,100,0
2,56,100,0
2,63,100,0
2,63,100,0
2,56,100,0
2,63,100,0
2,56,100,0
2,56,100,0
2,63,100,0
2,56,100,0
2,63,100,0
2,61,100,0
2,56,100,0
2,61,100,0
2,56,100,0
2,61,100,0
2,56,100,0
2,63,100,0
2,56,100,0
2,63,100,0
2,56,100,0
2,63,100,0
2,56,100,0
2,63,100,0
2,56,100,0
2,68,100,0
2,61,100,0
2,68,100,0
2,61,100,0
2,68,100,0
2,61,100,0
2,56,100,0
2,56,100,0
2,63,100,0
2,68,100,0
2,56,100,0
2,63,100,0
2,68,100,0
2,68,100,0
2,63,100,0
2,56,100,0
2,68,100,0
2,61,100,0
2,56,100,0
2,68,100,0
2,61,100,0
2,56,100,0
2,68,100,0
2,61,100,0
2,56,100,0
2,66,100,0
2,61,100,0
2,56,100,0
2,65,100,0
2,61,100,0
2,56,100,0
2,56,100,0
2,63,100,0
2,68,100,0
2,61,100,0
2,56,100,0
2,68,100,0
2,61,100,0
2,56,100,0
2,68,100,0
2,68,100,0
2,61,100,0
2,56,100,0
2,56,100,0
2,63,100,0
2,68,100,0
2,56,100,0
2,63,100,0
2,68,100,0
2,68,100,0
2,63,100,0
2,56,100,0
2,56,100,0
2,61,100,0
2,68,100,0
2,56,100,0
2,61,100,0
2,68,100,0
2,68,100,0
2,61,100,0
2,61,100,0
2,61,100,0
2,61,100,0
2,66,100,0
2,61,100,0
2,66,100,0
2,61,100,0
2,66,100,0
2,61,100,0
2,65,100,0
2,56,100,0
2,68,100,0
2,63,100,0
2,56,100,0
2,68,100,0
2,61,100,0
2,56,100,0
2,56,100,0
2,63,100,0
2,68,100,0
2,56,100,0
2,63,100,0
2,68,100,0
2,56,100,0
2,63,100,0
2,68,100,0
2,68,100,0
2,61,100,0
2,56,100,0
2,66,100,0
2,61,100,0
2,56,100,0
2,56,100,0
2,65,100,0
2,61,100,0
2,56,100,0
2,68,100,0
2,63,100,0
2,56,100,0
2,68,100,0
2,56,100,0
2,61,100,0
2,68,100,0
2,56,100,0
2,61,100,0
2,56,100,0
2,61,100,0
2,68,100,0
2,68,100,0
2,63,100,0
2,56,100,0
2,68,100,0
2,63,100,0
2,56,100,0
2,56,100,0
2,63,100,0
2,68,100,0
2,68,100,0
