track,note,velocity,time
0,59,101,120
0,59,90,0
0,42,97,0
0,36,90,0
0,42,81,46
0,42,83,30
0,63,115,0
0,63,113,0
0,36,93,0
0,42,97,0
0,42,93,46
0,42,92,30
0,66,123,6
0,66,113,0
0,36,95,0
0,42,109,0
0,42,97,46
0,71,115,6
0,71,111,2
0,42,87,0
0,36,99,4
0,42,99,0
0,42,80,44
0,42,78,30
0,56,119,14
0,56,105,0
0,42,97,0
0,36,90,0
0,56,117,30
0,56,113,0
0,42,81,0
0,42,83,14
0,59,105,14
0,59,101,0
0,36,93,0
0,42,97,0
0,58,101,4
0,58,95,0
0,42,93,2
0,59,86,0
0,59,85,0
0,42,92,6
0,63,125,14
0,63,109,0
0,36,95,0
0,42,109,0
0,62,80,0
0,62,85,4
0,63,107,0
0,42,97,4
0,63,105,0
0,68,123,8
0,42,87,6
0,68,125,0
0,36,99,0
0,42,99,0
0,42,80,44
0,42,78,30
0,55,105,14
0,55,105,0
0,42,97,0
0,36,90,0
0,55,103,28
0,55,89,0
0,42,81,0
0,42,83,10
0,59,101,14
0,36,93,0
0,42,97,0
0,59,105,0
0,59,87,30
0,42,93,0
0,59,103,0
0,42,92,12
0,62,105,14
0,62,99,0
0,36,95,0
0,42,109,0
0,61,105,2
0,61,92,4
0,62,101,0
0,42,97,4
0,62,95,0
0,42,87,0
0,67,117,4
0,36,99,0
0,42,99,0
0,67,115,0
0,42,80,4
0,66,113,14
0,66,125,6
0,42,78,6
0,42,101,2
0,36,95,0
0,42,113,46
0,42,93,30
0,36,97,14
0,42,107,0
0,42,105,46
0,42,75,30
0,42,101,14
0,36,97,0
0,36,93,46
0,42,113,0
0,42,105,30
0,36,87,14
0,42,101,0
0,42,113,46
0,36,87,0
0,42,85,30
0,59,90,14
0,59,101,0
0,42,101,0
0,36,92,0
0,42,101,46
0,42,83,30
0,63,113,0
0,63,115,0
0,42,109,0
0,36,99,0
0,42,97,46
0,42,86,30
0,66,113,6
0,66,123,0
0,42,109,0
0,36,93,0
0,42,85,46
0,71,115,6
0,71,111,2
0,42,92,0
0,36,97,4
0,42,111,0
0,42,82,44
0,42,89,30
0,56,119,14
0,56,105,0
0,42,103,0
0,36,99,0
0,56,117,30
0,56,113,0
0,42,103,0
0,42,85,14
0,59,105,14
0,59,101,0
0,36,95,0
0,42,99,0
0,58,101,4
0,58,95,0
0,42,103,2
0,59,86,0
0,59,85,0
0,42,82,6
0,63,125,14
0,63,109,0
0,42,101,0
0,36,97,0
0,62,80,0
0,62,85,4
0,63,107,0
0,42,101,4
0,63,105,0
0,68,123,8
0,42,74,6
0,68,125,0
0,36,95,0
0,42,93,0
0,36,95,44
0,42,107,0
0,42,80,30
0,55,105,14
0,55,105,0
0,36,95,0
0,42,101,0
0,55,103,28
0,55,89,0
0,42,101,0
0,42,81,10
0,59,101,14
0,36,99,0
0,42,99,0
0,59,105,0
0,59,87,30
0,42,97,0
0,59,103,0
0,42,70,12
0,62,105,14
0,62,99,0
0,42,105,0
0,36,90,0
0,61,105,2
0,61,92,4
0,62,101,0
0,42,117,4
0,62,95,0
0,42,99,0
0,67,117,4
0,42,107,0
0,36,89,0
0,67,115,0
0,42,99,4
0,66,113,14
0,66,125,6
0,42,83,6
0,54,116,34
0,46,83,0
0,52,108,8
0,46,95,30
0,54,115,0
0,38,109,58
0,42,119,0
0,38,93,36
0,40,108,0
0,38,115,2
0,39,116,0
0,38,113,2
0,37,114,0
0,59,103,38
0,54,115,0
0,36,111,0
0,49,105,0
0,35,114,0
0,71,64,40
0,66,64,2
0,63,64,0
0,59,64,2
0,54,83,2
0,71,50,0
0,66,50,0
0,59,50,0
0,59,54,4
0,63,87,4
0,42,101,2
0,38,90,0
0,36,92,0
0,42,115,0
0,75,117,2
0,71,74,2
0,66,74,0
0,71,83,0
0,42,70,0
0,78,113,0
0,63,74,0
0,59,74,2
0,42,112,2
0,71,60,0
0,63,60,0
0,59,60,0
0,66,85,8
0,42,107,0
0,36,103,0
0,47,114,0
0,80,115,2
0,71,64,6
0,63,90,0
0,42,64,0
0,78,105,2
0,66,64,0
0,63,64,0
0,59,64,2
0,47,111,2
0,63,50,0
0,59,50,0
0,59,75,12
0,36,105,0
0,38,101,0
0,42,97,0
0,42,117,0
0,75,107,0
0,71,74,4
0,66,74,0
0,54,87,0
0,42,82,0
0,35,112,0
0,73,100,2
0,63,74,0
0,59,74,2
0,71,60,2
0,59,60,0
0,63,101,12
0,56,109,0
0,42,105,0
0,36,97,0
0,32,118,0
0,71,100,2
0,68,64,34
0,63,64,0
0,59,64,0
0,56,64,0
0,42,83,0
0,73,115,2
0,51,69,0
0,68,50,6
0,63,50,0
0,59,50,0
0,56,83,2
0,59,70,6
0,39,116,0
0,36,103,0
0,38,85,0
0,42,77,0
0,63,95,4
0,68,74,0
0,63,74,0
0,59,74,0
0,56,74,0
0,42,83,0
0,68,92,0
0,68,111,2
0,39,112,6
0,68,60,0
0,63,60,0
0,59,60,0
0,42,97,0
0,63,90,8
0,44,115,0
0,42,99,0
0,36,103,0
0,68,64,0
0,63,64,0
0,59,64,0
0,56,64,0
0,59,77,0
0,42,54,0
0,66,111,2
0,44,115,6
0,68,50,0
0,59,50,0
0,56,83,2
0,42,93,0
0,36,97,0
0,38,93,0
0,39,116,0
0,68,115,2
0,68,74,22
0,63,74,0
0,59,74,0
0,56,74,0
0,51,78,0
0,42,93,0
0,32,117,0
0,71,103,2
0,56,117,4
0,68,60,6
0,63,60,0
0,42,117,2
0,36,95,0
0,43,114,0
0,55,109,2
0,74,109,0
0,62,95,0
0,59,99,0
0,67,64,20
0,62,64,0
0,59,64,0
0,55,64,0
0,42,87,0
0,73,113,0
0,55,62,4
0,67,50,2
0,62,50,0
0,58,50,0
0,62,64,2
0,65,77,4
0,69,68,0
0,38,113,0
0,36,99,0
0,38,93,0
0,42,78,0
0,71,101,0
0,67,103,2
0,67,74,2
0,62,74,0
0,59,74,0
0,55,74,0
0,74,87,0
0,42,95,0
0,31,108,6
0,67,60,0
0,62,60,0
0,59,60,0
0,42,92,0
0,71,101,2
0,69,86,0
0,43,111,0
0,42,107,0
0,36,103,0
0,55,90,20
0,71,113,0
0,67,64,2
0,62,64,0
0,59,64,0
0,55,64,0
0,65,86,0
0,43,114,0
0,42,105,0
0,67,50,6
0,59,50,0
0,62,109,0
0,74,115,2
0,62,73,0
0,38,112,0
0,42,92,0
0,36,105,0
0,38,103,0
0,59,66,0
0,59,29,2
0,73,117,24
0,67,74,2
0,62,74,0
0,59,74,0
0,55,74,0
0,55,83,0
0,43,114,0
0,42,87,0
0,67,60,6
0,62,60,0
0,59,73,10
0,61,113,0
0,54,115,0
0,42,114,2
0,42,97,0
0,36,107,0
0,66,64,44
0,61,64,0
0,58,64,0
0,54,64,0
0,42,92,0
0,54,62,4
0,66,50,6
0,61,50,0
0,57,50,0
0,61,70,0
0,64,56,0
0,68,86,0
0,37,117,4
0,42,103,0
0,38,97,0
0,36,101,0
0,66,74,36
0,61,74,0
0,58,74,0
0,54,74,0
0,73,99,0
0,42,101,0
0,40,107,6
0,66,60,0
0,61,60,0
0,58,60,0
0,68,95,4
0,42,92,0
0,36,105,0
0,42,115,0
0,66,64,26
0,61,64,0
0,58,64,0
0,54,64,0
0,64,82,0
0,36,105,0
0,42,89,0
0,40,112,0
0,66,50,6
0,58,50,0
0,61,90,12
0,36,105,0
0,38,92,0
0,42,72,0
0,39,114,0
0,66,74,12
0,61,74,0
0,58,74,0
0,54,74,0
0,54,80,0
0,36,92,0
0,46,99,0
0,37,114,0
0,61,81,0
0,66,60,6
0,61,60,0
0,36,105,12
0,35,112,0
0,59,101,2
0,63,105,2
0,54,119,0
0,71,64,38
0,42,99,0
0,66,64,0
0,63,64,0
0,59,64,2
0,54,80,0
0,71,50,2
0,66,50,0
0,59,50,0
0,59,68,4
0,75,119,2
0,63,62,0
0,42,113,2
0,42,75,0
0,38,101,0
0,36,109,0
0,66,95,0
0,78,103,4
0,71,74,2
0,66,74,0
0,42,58,0
0,71,78,0
0,63,74,2
0,59,74,2
0,42,111,2
0,71,60,0
0,63,60,0
0,59,60,0
0,80,127,4
0,42,101,2
0,36,101,0
0,66,97,0
0,47,113,0
0,71,64,2
0,78,119,0
0,42,86,0
0,63,93,0
0,66,64,2
0,63,64,0
0,59,64,2
0,47,110,2
0,75,97,0
0,63,50,0
0,59,50,0
0,42,99,12
0,36,99,0
0,38,90,0
0,59,71,0
0,42,115,0
0,54,117,10
0,71,74,2
0,66,74,0
0,42,82,0
0,54,90,0
0,35,110,0
0,73,111,2
0,63,74,0
0,59,74,2
0,42,83,2
0,71,60,0
0,59,60,0
0,32,117,8
0,42,92,0
0,36,105,0
0,59,83,2
0,71,107,0
0,56,117,2
0,68,64,0
0,63,64,0
0,59,64,0
0,56,64,0
0,42,80,0
0,73,113,2
0,51,73,0
0,68,50,0
0,63,50,0
0,59,50,0
0,56,80,0
0,59,65,2
0,39,115,2
0,42,109,0
0,36,97,0
0,38,103,0
0,63,85,0
0,68,74,2
0,63,74,0
0,59,74,0
0,56,74,0
0,42,71,0
0,68,93,0
0,68,117,2
0,39,111,6
0,68,60,0
0,63,60,0
0,59,60,0
0,42,72,0
0,63,86,6
0,44,116,0
0,42,86,0
0,36,103,0
0,68,119,14
0,68,64,2
0,63,64,0
0,59,64,0
0,56,64,0
0,59,78,0
0,42,78,0
0,66,115,0
0,44,112,6
0,68,50,0
0,59,50,0
0,56,83,2
0,42,92,0
0,38,95,0
0,36,93,0
0,39,113,0
0,68,109,2
0,63,113,4
0,68,74,2
0,63,74,0
0,59,74,0
0,56,74,0
0,51,83,0
0,42,75,0
0,32,115,0
0,71,105,2
0,68,60,6
0,63,60,0
0,59,97,4
0,42,121,2
0,36,99,0
0,43,114,0
0,62,109,0
0,74,119,2
0,55,107,0
0,67,64,0
0,62,64,0
0,59,64,0
0,55,64,0
0,42,69,0
0,55,73,0
0,67,50,4
0,62,50,0
0,59,50,0
0,65,67,2
0,62,70,4
0,38,113,0
0,42,73,0
0,36,105,0
0,38,93,0
0,69,82,0
0,71,98,0
0,67,74,2
0,62,74,0
0,59,74,0
0,55,74,0
0,42,81,0
0,74,87,0
0,67,101,2
0,31,109,6
0,67,60,0
0,62,60,0
0,59,60,0
0,42,86,4
0,36,71,0
0,69,76,0
0,43,114,0
0,71,105,2
0,55,107,4
0,67,64,4
0,62,64,0
0,59,64,0
0,55,64,0
0,42,83,0
0,65,80,0
0,74,119,2
0,43,111,6
0,67,50,0
0,59,50,0
0,59,83,2
0,42,99,0
0,38,103,0
0,36,83,0
0,62,69,0
0,38,111,0
0,61,121,16
0,67,74,2
0,62,74,0
0,59,74,0
0,55,74,0
0,42,87,0
0,55,71,0
0,43,113,0
0,54,121,0
0,73,115,2
0,67,60,6
0,62,60,0
0,42,103,12
0,36,99,0
0,42,114,0
0,66,64,40
0,61,64,0
0,58,64,0
0,54,64,0
0,42,80,0
0,64,64,0
0,66,50,0
0,61,50,0
0,58,50,0
0,58,75,0
0,68,95,2
0,37,115,2
0,42,78,0
0,36,95,0
0,38,103,0
0,73,99,22
0,72,109,2
0,58,89,2
0,66,74,0
0,61,74,0
0,58,74,0
0,54,74,0
0,42,114,0
0,42,81,0
0,66,60,6
0,61,60,0
0,58,60,0
0,60,97,4
0,57,95,0
0,41,113,0
0,49,95,0
0,36,93,0
0,38,113,0
0,40,80,0
0,53,99,2
0,65,64,38
0,60,64,0
0,57,64,0
0,53,64,0
0,36,87,6
0,42,90,0
0,65,50,0
0,57,50,0
0,57,80,2
0,63,74,0
0,48,115,4
0,48,103,0
0,38,101,0
0,46,111,0
0,67,86,0
0,71,85,16
0,65,74,8
0,60,74,0
0,57,74,0
0,53,74,0
0,41,110,0
0,41,107,0
0,42,87,0
0,72,95,0
0,71,84,0
0,65,60,6
0,60,60,0
0,62,78,12
0,56,85,0
0,40,111,0
0,46,87,0
0,36,107,0
0,71,70,0
0,66,78,0
0,71,56,0
0,66,56,0
0,62,56,0
0,56,56,0
0,71,84,2
0,56,89,22
0,40,111,4
0,42,64,0
0,71,66,0
0,66,86,0
0,71,70,0
0,66,70,0
0,62,70,0
0,56,70,0
0,62,95,0
0,71,107,2
0,55,89,20
0,39,112,2
0,42,82,0
0,38,109,0
0,36,101,0
0,65,62,0
0,70,68,0
0,70,56,0
0,65,56,0
0,61,56,0
0,55,56,0
0,61,107,0
0,70,98,2
0,55,83,18
0,61,113,2
0,39,113,2
0,42,72,0
0,70,86,0
0,65,66,0
0,70,70,0
0,65,70,0
0,61,70,0
0,55,70,0
0,70,107,2
0,60,103,24
0,54,113,0
0,38,111,2
0,42,93,0
0,36,111,0
0,69,55,0
0,64,34,0
0,69,56,0
0,64,56,0
0,60,56,0
0,54,56,0
0,69,90,2
0,54,107,18
0,38,113,2
0,46,93,0
0,69,73,0
0,64,66,0
0,69,70,0
0,64,70,0
0,60,70,0
0,54,70,0
0,60,103,0
0,69,95,2
0,37,115,24
0,38,99,0
0,36,109,0
0,42,73,0
0,68,80,0
0,63,66,0
0,68,56,0
0,63,56,0
0,59,56,0
0,53,56,0
0,59,92,0
0,53,82,0
0,68,89,0
0,37,117,26
0,42,69,0
0,63,73,0
0,68,63,0
0,68,70,0
0,63,70,0
0,59,70,0
0,53,70,0
0,53,99,0
0,59,107,0
0,68,107,2
0,54,105,22
0,38,115,2
0,42,87,0
0,36,103,0
0,64,61,0
0,69,71,0
0,69,56,0
0,64,56,0
0,60,56,0
0,54,56,0
0,60,105,0
0,69,89,0
0,60,105,24
0,38,112,2
0,46,83,0
0,64,76,0
0,69,82,0
0,69,70,0
0,64,70,0
0,60,70,0
0,54,70,0
0,54,105,0
0,69,101,2
0,61,117,22
0,39,112,2
0,42,77,0
0,38,99,0
0,36,107,0
0,70,80,0
0,65,68,0
0,70,60,0
0,65,60,0
0,61,60,0
0,55,60,0
0,55,93,0
0,70,103,0
0,56,105,20
0,62,99,0
0,39,113,4
0,42,69,0
0,71,89,0
0,66,95,0
0,71,70,0
0,70,109,2
0,66,70,0
0,62,70,0
0,56,70,2
0,62,119,0
0,56,119,0
0,71,91,0
0,71,70,0
0,66,70,0
0,62,70,0
0,56,70,0
0,42,95,0
0,71,82,0
0,66,99,0
0,40,116,0
0,36,113,4
0,38,115,0
0,56,117,0
0,56,117,0
0,62,93,0
0,62,93,0
0,71,111,0
0,66,115,0
0,38,115,0
0,62,97,0
0,56,113,0
0,62,97,0
0,56,113,0
0,66,113,0
0,71,113,0
0,42,72,0
0,71,95,26
0,46,86,8
0,71,82,2
0,56,113,24
0,62,97,0
0,71,56,0
0,66,56,0
0,62,56,0
0,56,56,0
0,66,76,0
0,71,71,0
0,36,111,0
0,42,77,0
0,40,108,0
0,71,100,0
0,71,70,20
0,66,70,0
0,62,70,0
0,56,70,0
0,71,75,0
0,66,87,0
0,42,69,0
0,40,110,0
0,62,107,2
0,71,107,0
0,56,99,2
0,70,56,22
0,65,56,0
0,61,56,0
0,55,56,0
0,70,83,0
0,65,68,0
0,42,109,0
0,36,111,0
0,38,107,0
0,39,112,0
0,70,100,0
0,61,105,0
0,55,86,2
0,70,70,24
0,65,70,0
0,61,70,0
0,55,70,0
0,70,90,0
0,65,75,0
0,42,74,0
0,39,113,0
0,70,109,2
0,61,113,0
0,55,92,2
0,69,82,6
0,69,56,12
0,64,56,0
0,60,56,0
0,54,56,0
0,64,64,0
0,69,62,0
0,36,103,0
0,42,85,0
0,38,111,0
0,60,97,2
0,54,99,0
0,69,84,10
0,69,70,6
0,64,70,0
0,60,70,0
0,54,70,0
0,69,76,0
0,64,68,0
0,46,73,0
0,38,112,0
0,60,103,2
0,69,105,0
0,54,109,2
0,68,56,18
0,63,56,0
0,59,56,0
0,53,56,0
0,63,71,0
0,68,77,0
0,38,97,0
0,36,109,0
0,42,86,0
0,37,114,0
0,59,90,0
0,68,76,0
0,53,87,2
