track,note,velocity,time
0,42,72,0
0,35,110,0
0,56,76,0
0,61,65,0
0,56,55,0
0,53,58,0
0,61,50,0
0,37,118,0
0,53,68,0
0,42,55,45
0,42,83,47
0,38,106,0
0,37,91,28
0,42,46,1
0,35,101,0
0,42,110,45
0,42,57,3
0,44,110,0
0,35,106,0
0,42,57,35
0,42,73,13
0,38,106,0
0,42,97,0
0,44,109,1
0,42,55,28
0,42,71,1
0,35,108,1
0,37,114,0
0,42,56,45
0,42,91,47
0,38,104,0
0,56,65,3
0,42,59,1
0,35,100,0
0,32,98,0
0,42,75,39
0,35,108,0
0,60,55,0
0,60,74,2
0,44,100,4
0,32,99,14
0,42,55,1
0,44,101,46
0,42,89,1
0,38,106,0
0,32,96,0
0,61,70,1
0,42,55,2
0,61,53,0
0,42,82,13
0,35,108,0
0,37,118,0
0,61,47,0
0,61,81,2
0,42,54,42
0,42,94,47
0,38,108,0
0,42,55,30
0,35,101,0
0,37,103,0
0,42,95,30
0,42,70,1
0,35,106,0
0,44,104,0
0,42,55,38
0,42,83,40
0,38,104,0
0,42,108,1
0,44,111,5
0,42,54,32
0,42,96,47
0,35,112,0
0,25,104,1
0,37,98,1
0,68,72,0
0,72,80,0
0,38,97,97
0,42,59,1
0,73,83,0
0,42,57,1
0,38,104,0
0,85,72,12
0,42,71,1
0,35,100,0
0,53,67,0
0,61,53,0
0,56,53,0
0,37,123,0
0,73,72,0
0,65,67,0
0,73,78,0
0,68,71,0
0,73,51,2
0,42,54,1
0,77,55,21
0,42,100,20
0,38,107,0
0,73,77,0
0,77,79,0
0,80,77,0
0,80,58,7
0,37,102,18
0,42,52,3
0,35,102,0
0,77,47,2
0,73,41,20
0,42,95,13
0,42,72,1
0,35,106,0
0,44,103,0
0,80,59,1
0,42,55,11
0,73,52,0
0,77,51,1
0,42,101,19
0,42,91,1
0,38,106,0
0,77,79,0
0,73,76,0
0,80,83,0
0,44,107,3
0,80,55,7
0,42,55,24
0,77,44,0
0,73,44,22
0,37,113,0
0,85,63,0
0,42,60,1
0,35,111,0
0,73,49,46
0,42,48,1
0,77,42,2
0,42,86,4
0,38,105,0
0,77,83,0
0,73,73,0
0,80,78,0
0,80,56,5
0,80,58,19
0,68,74,0
0,37,102,0
0,68,61,0
0,42,49,1
0,35,102,0
0,77,49,0
0,73,44,9
0,32,106,17
0,84,76,0
0,72,79,0
0,42,73,0
0,80,54,0
0,72,73,0
0,35,109,0
0,73,49,4
0,42,55,1
0,77,56,10
0,42,89,17
0,38,104,0
0,73,74,0
0,77,79,0
0,80,78,0
0,32,110,1
0,80,52,6
0,73,64,1
0,85,60,0
0,77,47,0
0,73,79,0
0,42,52,0
0,73,50,23
0,42,72,4
0,37,113,0
0,85,57,0
0,73,79,0
0,85,71,0
0,35,112,1
0,73,52,20
0,42,53,1
0,73,78,0
0,77,54,2
0,42,91,23
0,77,80,0
0,73,77,0
0,80,77,0
0,38,106,0
0,80,52,4
0,37,96,21
0,42,54,1
0,77,51,0
0,35,105,1
0,73,50,23
0,42,98,4
0,80,47,0
0,42,59,1
0,35,108,1
0,44,101,0
0,73,41,11
0,42,54,1
0,77,59,23
0,73,80,13
0,42,96,1
0,38,105,0
0,77,84,0
0,80,77,0
0,42,96,2
0,44,107,4
0,80,22,8
0,77,49,6
0,42,57,1
0,73,65,25
0,42,68,1
0,35,112,0
0,37,105,0
0,85,65,1
0,73,51,1
0,42,55,1
0,77,47,26
0,73,82,8
0,77,95,0
0,80,83,0
0,42,83,1
0,38,106,0
0,80,55,7
0,80,55,0
0,37,101,3
0,68,61,0
0,68,72,0
0,77,44,0
0,42,50,1
0,35,102,0
0,73,48,22
0,84,73,0
0,72,70,0
0,72,78,0
0,42,82,0
0,35,108,0
0,32,99,0
0,80,51,0
0,44,96,3
0,73,51,10
0,42,48,1
0,32,104,0
0,77,54,23
0,32,99,10
0,73,75,2
0,42,91,1
0,38,105,0
0,77,84,0
0,80,77,0
0,80,54,7
0,85,58,0
0,73,80,0
0,32,111,1
0,42,54,1
0,73,62,0
0,77,52,0
0,73,41,23
0,73,77,0
0,85,66,0
0,42,73,1
0,35,112,0
0,85,62,0
0,73,70,0
0,37,111,2
0,42,54,43
0,73,50,0
0,77,52,24
0,72,75,0
0,42,91,1
0,38,107,0
0,73,77,0
0,77,83,0
0,80,75,0
0,80,51,9
0,37,102,1
0,84,60,0
0,73,72,0
0,42,55,0
0,35,102,0
0,77,50,1
0,72,63,0
0,73,42,21
0,42,95,4
0,85,67,0
0,44,110,1
0,73,68,1
0,42,55,1
0,35,109,0
0,80,58,1
0,42,54,12
0,73,51,1
0,77,50,7
0,75,67,13
0,87,63,0
0,75,74,0
0,42,86,1
0,38,108,0
0,77,93,0
0,73,76,0
0,80,84,0
0,42,96,0
0,44,104,2
0,80,51,3
0,77,71,0
0,77,77,0
0,42,49,0
0,89,72,1
0,77,48,1
0,73,46,20
0,42,70,19
0,85,64,0
0,37,101,0
0,35,110,1
0,73,52,37
0,42,50,1
0,77,57,19
0,75,74,0
0,42,96,1
0,38,106,0
0,77,84,0
0,73,76,0
0,80,79,0
0,80,53,9
0,87,59,0
0,37,101,1
0,73,73,0
0,42,52,1
0,35,104,0
0,77,48,0
0,75,68,2
0,73,37,21
0,85,60,0
0,42,67,3
0,35,108,0
0,32,106,0
0,80,63,0
0,73,64,0
0,72,80,0
0,72,67,0
0,84,65,0
0,42,56,1
0,73,52,0
0,77,50,23
0,77,87,13
0,80,81,0
0,73,77,0
0,42,79,1
0,38,108,0
0,37,111,1
0,80,47,8
0,70,76,0
0,42,57,0
0,77,50,1
0,73,45,7
0,63,63,1
0,70,76,1
0,66,73,0
0,42,72,1
0,39,104,0
0,82,61,0
0,63,53,0
0,54,60,0
0,58,54,0
0,35,112,1
0,82,62,0
0,42,51,9
0,75,49,0
0,78,59,23
0,78,84,15
0,75,83,0
0,42,89,1
0,82,77,0
0,38,104,1
0,82,54,5
0,78,50,23
0,42,56,1
0,35,104,1
0,39,101,0
0,75,46,6
0,42,71,5
0,44,99,0
0,82,56,0
0,35,108,1
0,46,112,0
0,42,53,9
0,75,36,0
0,78,55,14
0,42,89,20
0,75,80,0
0,78,84,0
0,82,76,0
0,38,108,0
0,44,96,0
0,46,110,3
0,82,57,5
0,42,51,24
0,78,45,0
0,75,41,21
0,86,67,0
0,39,100,3
0,42,89,1
0,82,58,0
0,62,57,0
0,35,112,1
0,74,74,0
0,42,51,7
0,75,50,0
0,78,40,23
0,42,89,21
0,38,106,0
0,82,80,0
0,74,93,0
0,78,82,0
0,82,58,9
0,39,103,18
0,70,78,0
0,78,50,1
0,42,55,1
0,35,103,0
0,75,39,19
0,34,102,13
0,42,81,1
0,82,58,0
0,74,83,0
0,35,111,0
0,75,45,10
0,42,56,2
0,78,55,20
0,38,108,22
0,82,78,0
0,74,91,0
0,78,78,0
0,42,86,1
0,34,102,0
0,82,57,7
0,75,77,0
0,78,53,1
0,42,59,2
0,34,100,0
0,75,39,0
0,27,108,3
0,75,74,1
0,87,69,0
0,42,71,1
0,63,56,0
0,75,79,0
0,35,111,0
0,82,52,0
0,42,58,7
0,75,45,0
0,78,57,25
0,42,83,17
0,38,106,0
0,75,80,0
0,78,84,0
0,82,76,0
0,82,51,5
0,27,110,21
0,42,56,1
0,35,103,0
0,78,53,0
0,75,46,1
0,42,60,5
0,32,96,0
0,35,111,0
0,34,105,0
0,82,50,0
0,42,47,7
0,75,49,0
0,78,55,7
0,75,80,5
0,78,84,0
0,82,77,0
0,42,83,1
0,38,104,0
0,32,101,1
0,34,102,3
0,82,56,6
0,78,50,23
0,74,79,1
0,42,54,0
0,75,45,17
0,42,79,2
0,82,54,0
0,86,65,0
0,39,106,0
0,74,75,0
0,62,64,0
0,35,111,1
0,42,50,5
0,75,49,0
0,78,58,25
0,42,91,20
0,82,76,0
0,78,79,0
0,74,82,0
0,38,107,0
0,82,52,7
0,39,107,3
0,70,79,0
0,42,54,2
0,35,104,0
0,78,56,1
0,75,42,2
0,74,82,0
0,34,101,0
0,42,64,1
0,35,109,1
0,82,52,0
0,42,58,9
0,75,47,0
0,78,57,0
0,34,97,23
0,74,87,0
0,42,82,0
0,38,108,1
0,74,87,0
0,82,75,0
0,78,77,0
0,82,54,9
0,42,50,22
0,78,51,0
0,34,104,19
0,75,45,2
0,73,73,0
0,27,109,1
0,85,64,0
0,42,68,1
0,35,107,0
0,61,48,0
0,70,84,0
0,82,64,0
0,42,56,46
0,75,49,0
0,78,55,24
0,82,75,19
0,73,75,0
0,42,83,1
0,38,106,0
0,78,81,0
0,82,55,6
0,27,105,19
0,35,102,3
0,78,50,0
0,42,55,0
0,75,48,0
0,32,100,13
0,34,113,7
0,42,67,2
0,35,108,0
0,82,55,0
0,42,54,11
0,75,50,0
0,78,50,6
0,32,101,13
0,82,75,8
0,73,78,0
0,78,85,0
0,42,83,1
0,38,107,1
0,34,109,0
0,82,56,8
0,78,51,23
0,42,57,1
0,75,50,20
0,86,77,0
0,74,79,2
0,42,75,2
0,37,95,0
0,62,65,0
0,35,111,1
0,82,52,0
0,39,105,0
0,42,55,9
0,75,50,0
0,78,53,3
0,42,77,24
0,82,79,0
0,78,91,0
0,38,106,0
0,74,84,0
0,82,54,6
0,34,91,13
0,70,82,0
0,42,55,1
0,35,103,0
0,78,51,0
0,34,116,11
0,75,47,6
0,74,87,0
0,42,82,1
0,82,51,0
0,35,108,1
0,46,106,23
0,34,95,8
0,75,49,0
0,42,56,1
0,78,59,23
0,46,99,17
0,74,86,0
0,82,81,0
0,78,86,0
0,42,81,1
0,38,107,1
0,82,57,9
0,34,103,2
0,75,76,0
0,42,50,1
0,78,41,0
0,75,46,3
0,27,116,1
0,75,67,0
0,75,83,0
0,42,73,0
0,87,65,0
0,82,49,0
0,63,54,0
0,35,111,1
0,42,55,7
0,75,51,0
0,78,62,3
0,42,89,24
0,38,104,0
0,78,83,0
0,82,74,0
0,75,79,0
0,82,57,2
0,27,100,18
0,73,72,0
0,42,57,0
0,35,102,0
0,78,50,0
0,75,41,0
0,34,116,0
0,73,72,0
0,42,69,1
0,35,108,0
0,82,60,0
0,85,60,0
0,73,78,0
0,42,55,13
0,75,49,0
0,78,56,23
0,75,77,0
0,27,114,0
0,78,85,0
0,82,78,0
0,75,72,0
0,87,62,0
0,42,86,1
0,38,108,0
0,75,76,0
0,82,51,6
0,42,55,1
0,78,51,0
0,77,78,0
0,75,49,1
0,32,111,9
0,73,65,2
0,85,63,0
0,42,67,1
0,35,109,0
0,68,64,0
0,56,56,0
0,61,55,0
0,80,55,1
0,63,59,0
0,42,50,11
0,73,49,0
0,75,51,23
0,75,78,0
0,73,79,1
0,75,85,0
0,42,81,1
0,38,106,0
0,80,77,0
0,80,52,4
0,39,108,20
0,73,79,0
0,42,54,1
0,35,106,0
0,75,52,0
0,73,43,21
0,72,69,20
0,80,53,0
0,84,63,0
0,42,81,1
0,35,108,0
0,44,101,0
0,60,58,0
0,42,52,2
0,72,52,0
0,72,77,0
0,75,57,9
0,80,75,21
0,72,84,0
0,75,80,0
0,42,83,2
0,44,105,0
0,38,106,0
0,80,54,5
0,68,73,0
0,42,42,0
0,75,49,0
0,72,51,22
0,65,68,3
0,85,59,0
0,37,110,2
0,80,62,0
0,73,74,0
0,42,86,1
0,61,58,0
0,53,53,0
0,35,111,1
0,42,54,7
0,73,51,0
0,77,56,23
0,80,76,18
0,42,82,1
0,38,105,0
0,73,74,0
0,77,89,0
0,80,64,1
0,37,103,22
0,42,56,2
0,77,50,0
0,35,107,0
0,73,50,8
0,42,96,0
0,44,99,4
0,80,63,0
0,42,79,1
0,35,108,0
0,42,57,5
0,73,51,0
0,77,43,1
0,80,80,21
0,42,98,1
0,73,76,0
0,77,86,0
0,42,83,1
0,38,108,1
0,44,109,0
0,80,50,6
0,42,52,23
0,77,53,0
0,73,50,25
0,42,94,1
0,25,104,0
0,35,112,1
0,37,101,0
0,85,65,0
0,80,54,89
0,68,72,0
0,84,74,0
0,72,78,0
0,38,104,38
0,38,96,23
0,85,75,0
0,73,81,0
0,38,104,1
0,68,62,7
0,65,67,1
0,73,70,0
0,42,86,5
0,35,108,0
0,37,106,0
0,61,51,0
0,56,51,0
0,53,57,0
0,73,78,0
0,85,64,1
0,73,51,44
0,42,44,1
0,77,52,23
0,80,74,17
0,73,77,0
0,77,85,0
0,42,68,2
0,38,106,0
0,80,57,5
0,37,99,20
0,42,57,5
0,35,104,0
0,77,53,0
0,73,49,22
0,42,96,3
0,44,104,1
0,42,63,5
0,35,110,0
0,80,55,0
0,42,52,13
0,73,48,1
0,77,49,14
0,73,73,18
0,42,77,1
0,38,106,0
0,44,101,0
0,42,95,0
0,80,77,0
0,77,73,0
0,80,63,5
0,42,54,23
0,77,53,0
0,73,44,19
0,42,71,15
0,35,110,0
0,37,111,0
0,80,62,0
0,42,54,13
0,73,49,1
0,77,59,24
0,42,82,1
0,38,104,0
0,73,73,2
0,80,74,0
0,77,75,0
0,80,60,5
0,37,102,20
0,68,63,0
0,68,71,0
0,80,56,0
0,42,50,1
0,77,55,0
0,35,107,0
0,73,50,17
0,32,98,2
0,80,59,0
0,72,71,0
0,84,74,0
0,42,81,1
0,72,81,0
0,35,109,0
0,73,44,10
0,42,54,1
0,77,52,9
0,42,81,21
0,38,106,0
0,73,71,0
0,77,81,0
0,80,77,1
0,32,104,3
0,80,55,3
0,73,73,0
0,85,67,0
0,73,75,0
0,42,52,1
0,77,49,1
0,73,49,20
0,37,103,2
0,75,77,0
0,42,79,0
0,35,111,0
0,80,55,0
0,73,75,0
0,85,62,2
0,73,52,13
0,42,52,1
0,73,73,0
0,77,62,20
0,42,86,20
0,38,106,0
0,73,73,0
0,77,83,0
0,80,76,0
0,80,61,8
0,37,98,17
0,42,45,7
0,35,104,0
0,77,37,0
0,73,44,20
0,42,95,5
0,44,105,0
0,42,67,5
0,80,59,0
0,35,109,1
0,42,50,13
0,73,51,0
0,77,53,23
0,44,104,16
0,42,97,0
0,73,72,0
0,77,83,0
0,80,74,0
0,42,82,1
0,38,107,0
0,80,58,5
0,42,48,24
0,77,49,0
0,73,49,21
0,42,66,20
0,35,112,0
0,37,100,0
0,80,65,0
0,42,49,12
0,73,45,0
0,77,52,23
0,42,73,12
0,73,73,0
0,38,107,0
0,77,75,0
0,80,72,0
0,80,58,5
0,37,98,17
0,68,61,2
0,80,58,0
0,68,75,0
0,42,46,1
0,35,107,0
0,77,50,0
0,73,40,18
0,32,95,3
0,84,69,0
0,72,81,0
0,42,67,0
0,80,61,0
0,35,112,1
0,72,69,0
0,44,100,20
0,32,97,4
0,42,54,3
0,73,50,0
0,77,55,1
0,32,98,16
0,42,81,3
0,38,107,0
0,77,84,0
0,73,79,0
0,80,80,0
0,80,62,4
0,85,66,0
0,32,104,0
0,73,79,0
0,73,74,0
0,42,53,1
0,77,52,2
0,73,41,17
0,73,78,0
0,37,104,0
0,42,81,1
0,35,112,0
0,85,73,0
0,85,74,0
0,73,68,0
0,42,50,5
0,73,50,0
0,77,50,25
0,72,77,0
0,73,76,1
0,77,85,0
0,42,79,1
0,38,105,0
0,80,77,0
0,80,54,3
0,37,100,1
0,73,72,0
0,77,50,0
0,72,71,0
0,84,59,0
0,42,58,1
0,35,103,0
0,73,45,21
0,44,97,3
0,85,65,0
0,42,90,2
0,80,50,1
0,42,70,1
0,73,66,0
0,35,112,1
0,73,50,10
0,42,50,1
0,77,49,7
0,75,67,1
0,75,73,0
0,42,91,0
0,87,65,0
0,42,79,1
0,38,108,0
0,44,100,0
0,73,77,0
0,77,82,0
0,80,85,0
0,80,57,4
0,77,72,0
0,77,80,0
0,42,47,0
0,77,50,0
0,89,68,0
0,73,42,21
0,42,77,1
0,35,110,0
0,85,54,0
0,37,104,1
0,42,49,46
0,73,50,0
0,77,54,24
0,75,75,0
0,73,77,0
0,80,79,0
0,77,84,0
0,42,82,1
