track,note,velocity,time
0,34,118,155
0,82,92,0
0,35,115,1
0,49,75,1
0,58,98,1
0,61,108,1
0,65,125,1
0,49,0,7
0,35,0,0
0,42,37,20
0,34,0,8
0,42,0,4
0,42,36,20
0,42,0,12
0,38,115,19
0,34,113,1
0,42,69,0
0,38,0,11
0,42,0,1
0,42,35,20
0,34,0,3
0,42,0,9
0,42,34,20
0,42,0,12
0,34,120,19
0,42,69,1
0,35,115,1
0,35,0,11
0,42,0,1
0,42,35,19
0,42,0,12
0,42,35,20
0,42,0,12
0,38,118,19
0,42,69,1
0,34,0,6
0,38,0,5
0,42,0,1
0,42,35,20
0,42,0,12
0,34,111,19
0,42,34,1
0,35,92,1
0,35,0,11
0,42,0,0
0,42,69,20
0,34,0,2
0,42,0,9
0,42,36,20
0,42,0,13
0,34,117,19
0,42,37,1
0,35,87,1
0,35,0,11
0,42,0,0
0,42,66,19
0,38,118,1
0,34,0,6
0,42,0,6
0,38,0,0
0,42,34,19
0,42,0,13
0,65,0,20
0,34,105,0
0,42,37,0
0,35,61,1
0,61,0,3
0,58,0,1
0,42,0,7
0,35,0,0
0,82,0,15
0,80,95,3
0,32,104,2
0,42,69,1
0,35,115,0
0,34,0,1
0,56,102,0
0,63,97,1
0,60,99,1
0,42,0,8
0,35,0,0
0,42,37,19
0,42,0,13
0,42,34,20
0,42,0,12
0,42,71,19
0,38,119,1
0,32,0,10
0,38,0,1
0,42,0,1
0,42,34,20
0,42,0,12
0,42,34,20
0,35,57,1
0,32,109,1
0,60,0,4
0,63,0,1
0,56,0,2
0,42,0,3
0,35,0,0
0,32,0,5
0,80,0,9
0,77,91,5
0,30,107,1
0,58,99,1
0,42,69,0
0,61,103,1
0,35,115,0
0,65,96,1
0,35,0,9
0,42,0,0
0,42,36,19
0,30,0,7
0,42,0,5
0,42,36,20
0,42,0,13
0,30,104,20
0,42,69,0
0,38,115,1
0,38,0,11
0,42,0,0
0,42,35,20
0,30,0,11
0,42,0,1
0,42,36,20
0,42,0,12
0,30,111,20
0,42,69,1
0,35,115,1
0,35,0,10
0,42,0,0
0,42,35,20
0,42,0,12
0,42,37,19
0,42,0,13
0,42,69,20
0,38,115,0
0,30,0,6
0,42,0,6
0,38,0,0
0,42,35,19
0,42,0,13
0,30,109,20
0,42,34,0
0,35,61,1
0,35,0,11
0,42,0,0
0,42,69,20
0,35,115,1
0,30,0,8
0,42,0,3
0,35,0,0
0,42,35,20
0,42,0,12
0,30,108,20
0,42,37,0
0,35,73,1
0,35,0,11
0,42,0,0
0,42,66,20
0,38,118,0
0,30,0,8
0,42,0,4
0,38,0,0
0,42,35,19
0,42,0,12
0,30,90,21
0,42,35,0
0,61,0,1
0,35,57,0
0,58,0,1
0,65,0,5
0,35,0,5
0,42,0,1
0,30,0,10
0,77,0,1
0,75,94,6
0,29,100,2
0,42,69,0
0,56,99,1
0,35,115,0
0,60,104,1
0,63,89,1
0,35,0,9
0,42,0,0
0,42,35,20
0,42,0,12
0,42,34,20
0,42,0,12
0,75,0,15
0,80,89,4
0,42,71,1
0,38,115,0
0,29,0,4
0,38,0,5
0,42,0,1
0,42,36,21
0,42,0,13
0,29,100,19
0,42,35,1
0,35,75,0
0,56,0,5
0,60,0,3
0,63,0,3
0,35,0,1
0,42,0,1
0,29,0,7
0,80,0,5
0,27,107,6
0,77,85,0
0,42,69,1
0,61,95,1
0,35,115,0
0,54,93,1
0,58,85,1
0,35,0,9
0,42,0,1
0,42,37,19
0,27,0,8
0,42,0,4
0,42,34,20
0,42,0,12
0,27,113,20
0,42,69,0
0,38,118,1
0,38,0,11
0,42,0,0
0,42,35,20
0,27,0,7
0,42,0,5
0,42,36,19
0,42,0,13
0,27,108,20
0,42,69,1
0,35,113,0
0,35,0,11
0,42,0,0
0,42,35,20
0,42,0,12
0,42,34,20
0,42,0,12
0,42,69,20
0,38,119,0
0,27,0,9
0,42,0,3
0,38,0,0
0,61,0,12
0,54,0,1
0,42,35,7
0,58,0,5
0,42,0,7
0,56,96,20
0,29,113,0
0,42,37,0
0,60,101,1
0,35,92,0
0,65,95,1
0,35,0,10
0,42,0,0
0,77,0,17
0,75,94,1
0,42,69,2
0,29,0,10
0,42,0,2
0,42,35,20
0,42,0,12
0,29,114,20
0,42,35,0
0,35,115,1
0,35,0,11
0,42,0,1
0,29,0,16
0,42,66,3
0,38,117,0
0,29,96,1
0,38,0,11
0,42,0,0
0,29,0,11
0,42,35,9
0,35,54,0
0,29,114,1
0,35,0,11
0,42,0,0
0,29,0,6
0,42,34,13
0,35,75,1
0,29,104,3
0,56,0,5
0,60,0,2
0,42,0,2
0,35,0,0
0,65,0,5
0,29,0,3
0,75,0,6
0,80,89,5
0,29,115,1
0,42,69,0
0,60,96,1
0,35,113,0
0,68,95,1
0,63,101,1
0,35,0,9
0,42,0,0
0,42,36,19
0,42,0,12
0,29,0,8
0,42,35,13
0,42,0,11
0,29,105,21
0,42,71,0
0,38,117,1
0,38,0,11
0,42,0,0
0,42,34,20
0,42,0,12
0,29,0,12
0,42,34,8
0,35,50,0
0,60,0,3
0,63,0,3
0,42,0,6
0,35,0,0
0,68,0,2
0,80,0,9
0,77,93,8
0,34,111,1
0,42,69,1
0,35,115,1
0,58,92,1
0,65,89,0
0,61,94,1
0,35,0,8
0,42,0,1
0,42,36,19
0,34,0,5
0,42,0,7
0,42,37,20
0,42,0,12
0,34,109,19
0,42,69,1
0,38,117,1
0,38,0,11
0,42,0,0
0,42,37,20
0,42,0,12
0,34,0,5
0,42,36,15
0,42,0,12
0,34,99,20
0,42,69,1
0,35,115,0
0,35,0,11
0,42,0,0
0,42,36,20
0,42,0,12
0,42,36,20
0,42,0,12
0,42,69,20
0,38,115,0
0,34,0,8
0,38,0,3
0,42,0,1
0,42,36,20
0,42,0,12
0,34,117,20
0,42,34,0
0,35,59,1
0,65,0,5
0,35,0,6
0,58,0,1
0,42,0,0
0,61,0,2
0,34,0,10
0,77,0,4
0,75,91,1
0,27,100,2
0,42,69,1
0,54,103,1
0,35,115,0
0,58,101,1
0,63,107,1
0,35,0,8
0,42,0,0
0,42,34,20
0,27,0,8
0,42,0,3
0,27,108,20
0,42,34,1
0,35,97,1
0,35,0,11
0,42,0,0
0,27,0,12
0,39,114,8
0,42,66,0
0,38,118,1
0,38,0,11
0,42,0,0
0,39,0,11
0,27,107,9
0,42,36,0
0,35,57,1
0,35,0,11
0,42,0,0
0,63,0,3
0,27,0,8
0,28,102,8
0,42,35,1
0,35,73,1
0,54,0,1
0,58,0,1
0,35,0,8
0,42,0,1
0,75,0,6
0,28,0,13
0,77,91,0
0,41,110,1
0,42,69,0
0,56,96,1
0,35,115,0
0,65,103,1
0,60,101,1
0,35,0,9
0,42,0,1
0,42,36,19
0,42,0,12
0,42,37,20
0,38,110,1
0,42,0,11
0,38,0,1
0,41,0,7
0,77,108,10
0,65,108,1
0,38,125,0
0,46,60,1
0,29,108,2
0,46,0,1
0,38,0,0
0,60,0,49
0,56,0,4
0,65,0,1
0,77,0,10
0,29,0,3
0,82,95,3
0,34,118,1
0,70,110,0
0,73,70,1
0,35,115,0
0,70,110,1
0,49,73,0
0,58,98,1
0,61,108,1
0,65,104,1
0,49,0,7
0,35,0,0
0,42,37,20
0,34,0,5
0,42,0,7
0,77,0,12
0,65,0,1
0,42,36,7
0,42,0,12
0,70,103,18
0,58,103,1
0,38,115,0
0,34,113,1
0,42,69,0
0,38,0,10
0,42,0,2
0,42,34,19
0,34,0,5
0,70,0,1
0,58,0,1
0,42,0,5
0,42,34,21
0,42,0,12
0,70,110,17
0,58,110,1
0,34,120,2
0,42,69,0
0,35,99,1
0,35,0,11
0,42,0,0
0,42,37,20
0,42,0,12
0,42,37,20
0,42,0,12
0,70,0,15
0,58,0,1
0,38,118,2
0,42,69,2
0,34,0,5
0,38,0,6
0,42,0,1
0,42,37,20
0,42,0,12
0,70,112,18
0,58,112,1
0,34,111,1
0,42,35,1
0,35,97,1
0,35,0,10
0,42,0,0
0,70,0,16
0,58,0,2
0,42,69,2
0,34,0,1
0,42,0,11
0,42,36,20
0,42,0,12
0,70,105,18
0,58,105,1
0,34,117,1
0,42,35,0
0,35,100,1
0,35,0,11
0,42,0,0
0,70,0,10
0,58,0,2
0,42,66,7
0,38,118,1
0,65,0,2
0,34,0,3
0,38,0,7
0,42,0,1
0,61,0,14
0,42,37,5
0,58,0,6
0,42,0,6
0,73,0,17
0,70,0,0
0,70,0,1
0,73,100,0
0,61,100,1
0,34,105,1
0,42,37,0
0,35,75,1
0,35,0,11
0,42,0,0
0,82,0,8
0,73,0,7
0,61,0,1
0,72,100,1
0,34,0,1
0,80,95,1
0,32,104,1
0,60,100,0
0,68,99,1
0,42,69,0
0,68,99,1
0,35,115,0
0,72,69,1
0,56,102,1
0,63,97,0
0,60,99,1
0,35,0,6
0,42,0,1
0,42,34,20
0,42,0,12
0,72,0,6
0,60,0,1
0,70,100,10
0,58,100,1
0,42,36,2
0,42,0,12
0,70,0,16
0,58,0,1
0,68,100,1
0,56,100,1
0,42,71,1
0,38,119,0
0,38,0,12
0,42,0,0
0,32,0,1
0,42,36,19
0,68,0,1
0,56,0,1
0,60,0,2
0,42,0,8
0,56,0,3
0,63,0,3
0,32,109,12
0,42,37,2
0,35,54,0
0,35,0,12
0,42,0,0
0,32,0,11
0,80,0,3
0,77,91,5
0,30,107,1
0,65,104,0
0,70,74,1
0,42,69,0
0,65,104,1
0,35,115,0
0,72,0,1
0,68,0,1
0,68,0,1
0,58,99,1
0,61,103,1
0,65,96,1
0,42,0,4
0,35,0,0
0,42,37,20
0,30,0,6
0,42,0,6
0,42,34,20
0,42,0,12
0,68,106,16
0,56,106,0
0,30,104,4
0,42,69,1
0,38,115,0
0,38,0,11
0,42,0,0
0,42,34,20
0,30,0,11
0,68,0,0
0,56,0,1
0,42,0,0
0,42,35,20
0,42,0,12
0,70,103,18
0,58,103,0
0,30,111,2
0,42,69,1
0,35,115,0
0,35,0,11
0,42,0,0
0,42,35,20
0,42,0,12
0,70,0,14
0,58,0,1
0,68,100,3
0,56,100,1
0,42,37,1
0,42,0,12
0,68,0,14
0,56,0,1
0,42,69,5
0,38,115,0
0,30,0,7
0,38,0,5
0,42,0,0
0,42,36,20
0,42,0,12
0,70,100,18
0,58,100,1
0,30,109,1
0,42,35,1
0,35,66,1
0,35,0,9
0,42,0,1
0,58,0,7
0,70,0,0
0,42,69,13
0,35,115,1
0,30,0,9
0,35,0,2
0,42,0,1
0,42,37,19
0,42,0,12
0,70,102,18
0,58,102,1
0,30,108,1
0,42,35,0
0,35,76,1
0,35,0,11
0,42,0,0
0,58,0,12
0,70,0,0
0,42,66,7
0,38,118,1
0,30,0,9
0,38,0,2
0,42,0,1
0,42,34,20
0,65,0,7
0,42,0,5
0,58,0,2
0,61,0,1
0,73,105,15
0,61,105,0
0,30,90,2
0,42,36,0
0,35,59,1
0,65,0,9
0,70,0,1
0,42,0,1
0,35,0,0
0,65,0,0
0,77,0,10
0,30,0,1
0,73,0,5
0,61,0,1
0,72,104,1
0,75,96,1
0,60,104,0
0,29,100,1
0,63,93,0
0,42,69,0
0,68,73,1
0,35,115,0
0,63,93,1
0,56,99,1
0,60,104,1
0,63,89,0
0,35,0,8
0,42,0,0
0,29,0,19
0,42,36,1
0,42,0,12
0,72,0,8
0,60,0,1
0,70,100,9
0,58,100,0
0,29,90,2
0,42,35,0
0,42,0,12
0,63,0,4
0,63,0,1
0,68,0,0
0,29,0,6
0,75,0,1
0,68,100,6
0,80,91,1
0,56,100,0
0,70,0,1
0,29,119,0
0,68,106,1
0,42,71,0
0,38,115,0
0,68,106,1
0,72,76,1
0,58,0,1
0,38,0,8
0,42,0,0
0,29,0,16
0,42,36,3
0,29,106,2
0,42,0,10
0,60,0,7
0,68,0,0
0,56,0,2
0,29,0,3
0,42,36,9
0,35,59,0
0,29,96,2
0,56,0,3
0,63,0,6
0,35,0,1
0,42,0,0
0,29,0,11
0,80,0,4
0,68,0,2
0,72,0,0
0,68,0,1
0,77,95,0
0,27,107,2
0,65,107,0
0,70,77,1
0,42,69,0
0,65,107,1
0,35,115,0
0,61,95,1
0,54,93,1
0,58,85,1
0,35,0,7
0,42,0,0
0,42,35,20
0,27,0,8
0,42,0,4
0,42,37,20
0,42,0,12
0,68,100,17
0,56,100,1
0,27,113,2
0,42,69,1
0,38,118,0
0,38,0,11
0,42,0,0
0,42,37,20
0,27,0,3
0,42,0,9
0,68,0,1
0,56,0,1
0,42,37,18
0,42,0,12
0,70,100,19
0,58,100,0
0,27,108,1
0,42,69,0
0,35,115,1
0,35,0,11
0,42,0,0
0,42,34,20
0,42,0,12
0,70,0,8
0,58,0,2
0,68,100,8
0,56,100,1
0,42,35,1
0,42,0,12
0,42,69,20
0,38,119,0
0,68,0,1
0,56,0,1
0,27,0,8
0,42,0,2
0,38,0,0
0,54,0,13
0,61,0,0
0,42,36,7
0,58,0,6
0,42,0,6
0,29,113,17
0,68,103,1
0,42,36,0
0,56,103,1
0,35,99,0
0,56,96,2
0,60,101,0
0,65,95,1
0,65,0,4
0,70,0,0
0,65,0,1
0,35,0,5
0,42,0,0
0,77,0,9
0,68,0,5
0,56,0,1
0,75,94,4
0,63,92,0
0,42,69,0
0,29,0,1
0,63,92,0
0,68,72,1
0,42,0,11
0,42,37,20
0,42,0,12
0,68,107,18
0,56,107,0
0,29,114,2
0,42,36,0
0,35,102,1
0,35,0,11
0,42,0,0
0,68,0,17
0,56,0,1
0,42,66,2
0,38,117,0
0,29,0,10
0,38,0,2
0,42,0,0
0,42,37,20
0,42,0,12
0,73,115,17
0,29,115,1
0,61,115,0
0,42,37,2
0,35,61,0
0,56,0,8
0,60,0,3
0,42,0,1
0,35,0,0
0,65,0,5
0,63,0,6
0,68,0,1
0,29,0,0
0,75,0,0
0,63,0,1
0,73,0,3
0,61,0,1
0,72,100,1
0,80,91,1
0,60,100,0
0,29,115,1
0,68,104,0
0,42,69,0
0,72,74,1
0,35,115,0
0,68,104,1
0,60,96,1
0,68,95,1
0,63,101,1
0,35,0,7
0,42,0,0
0,42,34,20
0,42,0,12
0,60,0,4
0,72,0,0
0,70,100,15
0,58,100,0
0,42,37,1
0,42,0,12
0,29,0,15
0,70,0,1
0,58,0,1
0,68,100,0
0,56,100,1
0,41,105,1
0,42,71,1
0,38,117,1
0,38,0,11
0,42,0,0
0,68,0,14
0,56,0,2
0,42,34,4
0,42,0,12
0,42,37,20
0,60,0,4
0,63,0,1
0,68,0,3
0,72,0,0
0,68,0,1
0,42,0,3
0,68,0,3
0,80,0,12
0,41,0,1
0,77,94,2
0,68,103,0
0,56,103,1
0,34,111,1
0,65,94,0
0,65,94,1
0,42,69,0
0,70,74,1
0,35,115,0
0,58,92,1
0,65,89,1
0,61,94,1
0,35,0,7
0,42,0,0
0,42,37,20
0,34,0,6
0,42,0,6
0,68,0,14
0,56,0,1
0,70,102,3
0,58,102,1
0,42,37,1
0,42,0,12
0,70,0,11
0,58,0,1
0,34,109,7
0,42,69,1
0,38,117,1
0,38,0,11
0,42,0,0
0,42,37,20
0,42,0,12
0,34,0,4
0,70,106,13
0,58,106,2
0,42,34,1
0,42,0,12
0,34,99,20
0,42,69,0
0,35,115,1
0,35,0,11
0,42,0,1
0,42,36,19
0,42,0,12
0,42,36,20
0,42,0,12
0,42,69,20
0,38,115,1
0,70,0,1
0,58,0,1
0,38,0,9
0,42,0,1
0,34,0,9
0,42,37,10
0,42,0,12
0,34,117,20
0,42,35,0
0,35,66,1
0,65,0,5
0,35,0,6
0,42,0,0
0,58,0,0
0,61,0,3
0,34,0,9
0,77,0,2
0,61,91,2
0,58,91,0
0,54,91,1
0,75,94,2
0,42,69,1
0,54,103,1
0,35,115,0
0,58,101,1
0,30,109,0
0,63,107,1
0,35,0,9
0,42,0,0
0,70,0,1
0,65,0,1
0,65,0,1
0,30,0,17
0,42,34,0
