track,note,velocity,time
4,62,95,256
4,65,95,112
4,69,95,112
4,74,95,112
4,71,95,784
4,74,95,16
4,62,95,0
4,67,95,16
4,67,95,16
4,62,95,16
4,59,95,16
4,67,95,16
4,64,95,880
4,67,95,112
4,72,95,112
4,76,95,112
4,74,95,304
4,74,95,208
4,76,95,112
4,76,95,16
4,76,95,120
4,62,95,1264
4,65,95,112
4,69,95,112
4,74,95,112
4,71,95,784
4,74,95,16
4,62,95,16
4,67,95,16
4,67,95,16
4,62,95,16
4,59,95,16
4,67,95,16
4,81,95,880
4,79,95,112
4,76,95,112
4,74,95,112
4,76,95,112
4,69,95,16
4,81,95,208
4,79,95,112
4,76,95,112
4,74,95,112
4,76,95,112
4,69,95,16
4,62,95,976
4,65,95,112
4,69,95,112
4,74,95,112
4,71,95,784
4,74,95,16
4,62,95,16
4,67,95,16
4,67,95,16
4,62,95,16
4,59,95,16
4,67,95,16
4,72,95,1072
4,74,95,112
4,76,95,112
4,79,95,112
4,81,95,112
4,88,95,112
4,86,95,16
4,84,95,208
4,81,95,16
4,79,95,1168
4,77,95,16
4,79,95,112
4,81,95,16
4,79,95,112
4,77,95,16
4,74,95,112
4,69,95,16
4,67,95,592
4,65,95,16
4,67,95,16
4,72,95,16
4,72,95,64
4,63,95,256
4,66,95,112
4,70,95,112
4,75,95,112
4,72,95,784
4,75,95,16
4,63,95,16
4,68,95,16
4,68,95,16
4,63,95,16
4,60,95,16
4,68,95,16
4,65,95,880
4,68,95,112
4,73,95,112
4,77,95,112
4,75,95,304
4,75,95,208
4,77,95,112
4,77,95,16
4,77,95,112
4,63,95,1264
4,66,95,112
4,70,95,112
4,75,95,112
4,72,95,800
4,75,95,16
4,63,95,16
4,68,95,16
4,68,95,16
4,63,95,16
4,60,95,16
4,68,95,16
4,82,95,880
4,80,95,112
4,77,95,112
4,75,95,112
4,77,95,112
4,70,95,16
4,82,95,208
4,80,95,112
4,77,95,112
4,75,95,112
4,77,95,112
4,70,95,16
4,63,95,976
4,66,95,112
4,70,95,112
4,75,95,112
4,72,95,784
4,75,95,16
4,63,95,16
4,68,95,16
4,68,95,16
4,63,95,16
4,60,95,16
4,68,95,16
4,73,95,1072
4,75,95,112
4,77,95,112
4,80,95,112
4,82,95,112
4,89,95,112
4,87,95,16
4,85,95,208
4,82,95,16
4,80,95,1168
4,78,95,16
4,80,95,112
4,82,95,16
4,80,95,112
4,78,95,16
4,75,95,112
4,70,95,16
4,68,95,592
4,66,95,16
4,68,95,16
4,73,95,16
4,73,95,304
4,64,95,1344
4,67,95,112
4,71,95,112
4,76,95,112
4,73,95,784
4,76,95,16
4,64,95,16
4,69,95,16
4,69,95,16
4,64,95,16
4,61,95,16
4,69,95,16
4,66,95,880
4,69,95,112
4,74,95,112
4,78,95,112
4,76,95,304
4,76,95,208
4,78,95,112
4,78,95,16
4,78,95,112
4,64,95,1264
4,67,95,112
4,71,95,112
4,76,95,112
4,73,95,784
4,76,95,16
4,64,95,16
4,69,95,16
4,69,95,16
4,64,95,16
4,61,95,16
4,69,95,16
4,83,95,880
4,81,95,112
4,78,95,112
4,76,95,112
4,78,95,112
4,71,95,16
4,83,95,208
4,81,95,112
4,78,95,112
4,76,95,112
4,78,95,112
4,71,95,16
4,64,95,976
4,67,95,112
4,71,95,112
4,76,95,112
4,73,95,784
4,76,95,16
4,64,95,16
4,69,95,16
4,69,95,16
4,64,95,16
4,61,95,16
4,69,95,16
4,74,95,1072
4,76,95,104
4,78,95,112
4,81,95,112
4,83,95,112
4,90,95,112
4,88,95,16
4,86,95,208
4,83,95,16
4,81,95,1168
4,79,95,16
4,81,95,112
4,83,95,16
4,81,95,104
4,79,95,16
4,76,95,112
4,71,95,16
4,69,95,592
4,67,95,16
4,69,95,16
5,74,95,256
5,77,95,112
5,81,95,112
5,86,95,112
5,83,95,784
5,86,95,16
5,74,95,16
5,79,95,16
5,79,95,16
5,74,95,16
5,71,95,16
5,79,95,16
5,76,95,880
5,79,95,112
5,84,95,112
5,88,95,112
5,86,95,304
5,83,95,208
5,86,95,0
5,84,95,112
5,88,95,0
5,84,95,16
5,88,95,0
5,84,95,104
5,88,95,0
5,74,95,1264
5,77,95,112
5,81,95,112
5,86,95,112
5,83,95,784
5,86,95,16
5,74,95,16
5,79,95,16
5,79,95,16
5,74,95,16
5,71,95,16
5,79,95,16
5,93,95,880
5,91,95,112
5,88,95,112
5,86,95,112
5,88,95,112
5,81,95,16
5,93,95,208
5,91,95,112
5,88,95,112
5,86,95,112
5,88,95,112
5,81,95,16
5,74,95,976
5,77,95,112
5,81,95,112
5,86,95,112
5,83,95,784
5,86,95,16
5,74,95,16
5,79,95,16
5,79,95,16
5,74,95,16
5,71,95,16
5,79,95,16
5,84,95,1072
5,86,95,112
5,88,95,112
5,91,95,112
5,93,95,112
5,100,95,112
5,98,95,16
5,96,95,208
5,93,95,16
5,91,95,1168
5,89,95,16
5,91,95,112
5,93,95,16
5,91,95,112
5,89,95,16
5,86,95,112
5,81,95,16
5,79,95,592
5,79,95,112
5,84,95,16
5,84,95,64
5,75,95,256
5,78,95,112
5,82,95,112
5,87,95,112
5,84,95,784
5,87,95,16
5,75,95,16
5,80,95,16
5,80,95,16
5,75,95,16
5,72,95,16
5,80,95,16
5,77,95,880
5,80,95,112
5,85,95,112
5,89,95,112
5,87,95,304
5,84,95,208
5,87,95,0
5,85,95,112
5,89,95,0
5,85,95,16
5,89,95,0
5,85,95,112
5,89,95,0
5,75,95,1264
5,78,95,112
5,82,95,112
5,87,95,112
5,84,95,784
5,87,95,16
5,75,95,16
5,80,95,8
5,80,95,16
5,75,95,16
5,72,95,16
5,80,95,16
5,94,95,880
5,92,95,112
5,89,95,112
5,87,95,112
5,89,95,112
5,82,95,16
5,94,95,208
5,92,95,112
5,89,95,112
5,87,95,112
5,89,95,112
5,82,95,16
5,75,95,976
5,78,95,112
5,82,95,112
5,87,95,112
5,84,95,784
5,87,95,16
5,75,95,16
5,80,95,16
5,80,95,16
5,75,95,16
5,72,95,16
5,80,95,16
5,85,95,1072
5,87,95,112
5,89,95,112
5,92,95,112
5,94,95,96
5,101,95,112
5,99,95,16
5,97,95,208
5,94,95,16
5,92,95,1168
5,90,95,16
5,92,95,112
5,94,95,16
5,92,95,112
5,90,95,16
5,87,95,112
5,82,95,16
5,80,95,592
5,78,95,16
5,80,95,16
5,85,95,16
5,85,95,304
5,76,95,1344
5,79,95,112
5,83,95,112
5,88,95,112
5,85,95,784
5,88,95,16
5,76,95,16
5,81,95,16
5,81,95,16
5,76,95,16
5,73,95,16
5,81,95,16
5,78,95,880
5,81,95,112
5,86,95,112
5,90,95,112
5,88,95,304
5,85,95,208
5,88,95,0
5,86,95,112
5,90,95,0
5,86,95,16
5,90,95,0
5,86,95,112
5,90,95,0
5,76,95,1264
5,79,95,112
5,83,95,112
5,88,95,112
5,85,95,784
5,88,95,16
5,76,95,16
5,81,95,16
5,81,95,16
5,76,95,16
5,73,95,16
5,81,95,0
5,95,95,880
5,93,95,112
5,90,95,112
5,88,95,112
5,90,95,112
5,83,95,16
5,95,95,208
5,93,95,112
5,90,95,112
5,88,95,112
5,90,95,112
5,83,95,16
5,76,95,976
5,79,95,112
5,83,95,112
5,88,95,112
5,85,95,784
5,88,95,16
5,76,95,16
5,81,95,16
5,81,95,16
5,76,95,16
5,73,95,16
5,81,95,16
5,86,95,1072
5,88,95,104
5,90,95,112
5,93,95,112
5,95,95,112
5,102,95,112
5,100,95,16
5,98,95,208
5,95,95,16
5,93,95,1168
5,91,95,16
5,93,95,112
5,95,95,16
5,93,95,104
5,91,95,16
5,88,95,112
5,83,95,16
5,81,95,592
5,79,95,16
5,81,95,16
6,36,110,0
6,36,110,8
6,43,110,16
6,43,110,104
6,36,110,8
6,31,110,8
6,31,110,104
6,43,100,16
6,43,100,8
6,31,110,8
6,36,110,8
6,36,110,24
6,43,110,8
6,43,110,104
6,36,110,16
6,36,110,488
6,36,110,24
6,43,110,8
6,43,110,112
6,31,100,16
6,36,110,8
6,36,110,112
6,31,110,16
6,31,110,104
6,36,110,16
6,36,110,32
6,43,110,16
6,43,110,8
6,31,110,8
6,36,110,8
6,43,110,8
6,31,85,8
6,31,95,8
6,31,85,16
6,31,95,16
6,31,95,16
6,31,95,8
6,36,110,16
6,36,110,8
6,43,110,8
6,43,110,104
6,36,110,8
6,36,110,8
6,31,110,8
6,36,110,16
6,38,110,8
6,38,110,8
6,45,110,8
6,45,110,104
6,41,110,16
6,38,110,16
6,38,110,112
6,33,95,8
6,33,85,8
6,33,95,104
6,33,85,104
6,38,110,8
6,38,110,16
6,45,110,16
6,45,110,104
6,38,110,16
6,38,95,16
6,38,110,16
6,33,95,8
6,33,95,8
6,33,95,8
6,38,110,16
6,38,110,8
6,45,110,16
6,45,110,104
6,38,110,16
6,38,110,16
6,45,110,8
6,33,95,8
6,33,95,8
6,45,95,16
6,33,95,16
6,45,95,8
6,33,95,8
6,38,110,8
6,38,110,112
6,45,110,8
6,45,110,8
6,38,110,16
6,31,110,8
6,31,110,8
6,43,110,0
6,43,110,112
6,36,110,16
6,36,110,24
6,43,110,8
6,43,110,112
6,31,110,16
6,36,110,8
6,36,110,16
6,36,110,24
6,43,110,16
6,43,110,104
6,31,110,8
6,36,110,16
6,36,110,104
6,31,110,16
6,31,110,112
6,36,110,16
6,36,110,8
6,43,110,8
6,43,110,104
6,31,110,8
6,36,110,8
6,43,95,8
6,31,95,8
6,31,95,8
6,31,95,8
6,31,95,8
6,31,95,16
6,31,95,8
6,36,110,8
6,36,110,24
6,43,110,8
6,43,110,8
6,36,110,104
6,36,110,112
6,31,110,8
6,36,110,16
6,38,110,16
6,38,110,24
6,45,110,8
6,45,110,104
6,41,95,16
6,38,110,16
6,38,110,112
6,33,95,16
6,33,95,8
6,33,95,104
6,33,95,112
6,38,110,16
6,38,110,8
6,45,110,8
6,45,110,112
6,38,110,16
6,38,110,104
6,38,110,8
6,33,95,8
6,33,95,16
6,33,95,208
6,38,110,8
6,38,110,24
6,45,110,8
6,45,110,104
6,38,110,8
6,38,110,112
6,45,95,8
6,33,95,8
6,33,95,8
6,45,95,8
6,33,95,8
6,45,95,16
6,33,95,8
6,38,110,8
6,38,110,112
6,45,110,8
6,45,110,8
6,38,110,16
6,31,110,16
6,31,110,8
6,43,110,8
6,43,110,104
6,36,110,16
6,36,110,24
6,43,110,16
6,43,110,104
6,31,110,16
6,36,110,16
6,36,110,104
6,38,110,16
6,38,110,8
6,33,110,16
6,38,110,8
6,31,110,8
6,31,110,8
6,43,110,8
6,31,110,16
6,36,110,8
6,36,110,32
6,43,110,8
6,31,110,16
6,36,110,16
6,36,110,104
6,43,110,8
6,43,110,8
6,31,110,16
6,38,110,8
6,38,110,112
6,33,110,8
6,38,110,8
6,31,110,8
6,31,110,112
6,43,110,184
6,31,110,8
6,33,110,104
6,45,110,8
6,40,110,16
6,40,110,104
6,45,110,8
6,33,110,8
6,33,110,112
6,45,110,8
6,33,110,8
6,38,110,8
6,38,110,104
6,33,110,8
6,33,110,16
6,38,110,16
6,31,110,8
6,31,110,8
6,43,110,8
6,31,110,8
6,33,110,8
6,33,110,112
6,40,110,8
6,40,110,8
6,40,110,16
6,33,110,8
6,33,110,32
6,45,110,16
6,33,110,8
6,38,110,8
6,38,110,16
6,38,110,16
6,40,110,16
6,41,110,8
6,38,110,16
6,43,110,24
6,43,110,104
6,43,110,112
6,31,110,8
6,36,110,16
6,36,110,8
6,43,110,16
6,43,110,16
6,43,110,8
6,43,110,16
6,31,110,8
6,36,110,8
6,36,110,104
6,36,110,24
6,43,110,8
6,43,110,112
6,31,110,8
6,36,110,8
6,36,110,104
6,43,85,8
6,31,95,8
6,31,85,8
6,31,95,8
6,31,95,16
6,36,110,88
6,36,95,32
6,43,110,8
6,43,110,104
6,31,110,16
6,36,110,8
6,36,110,16
6,36,95,16
6,31,110,16
6,31,110,104
6,31,110,104
6,36,110,112
6,36,110,24
6,43,110,16
6,43,110,104
6,36,110,8
6,36,110,104
6,31,110,16
6,36,110,8
6,38,110,16
6,38,110,104
6,33,95,8
6,33,95,16
6,33,110,0
6,38,110,280
6,38,110,104
6,33,110,8
6,33,110,112
6,33,110,8
6,38,110,8
6,38,110,104
6,33,110,8
6,33,110,16
6,33,110,16
6,38,110,8
6,45,110,112
6,33,95,8
6,33,95,8
6,33,95,8
6,33,95,16
6,38,110,8
6,38,110,16
6,33,110,0
6,33,110,0
6,33,110,8
6,33,110,16
6,38,110,8
6,38,110,8
6,45,110,8
6,33,110,16
6,33,110,16
6,33,110,16
6,33,110,8
6,45,110,8
6,33,110,8
6,38,110,16
6,38,110,104
6,33,110,104
6,33,110,8
6,38,110,104
6,31,110,8
6,31,110,24
6,43,110,8
6,31,110,16
6,36,110,8
6,36,110,24
6,43,110,8
6,31,110,16
6,36,110,16
6,31,110,16
6,36,110,8
6,36,110,32
6,43,110,16
6,43,110,104
6,31,110,8
6,36,110,8
6,36,110,112
6,43,85,8
6,31,95,16
6,31,85,8
6,31,95,16
6,31,95,8
6,31,95,8
6,36,110,16
6,36,110,8
6,36,110,8
6,36,110,16
6,43,110,16
6,43,110,104
6,31,110,8
6,36,110,16
6,36,110,8
6,36,110,8
6,31,110,16
6,31,110,104
6,31,110,104
6,36,110,104
6,36,110,24
6,43,110,8
6,43,110,104
6,36,110,8
6,36,110,120
6,31,110,8
6,36,110,8
6,38,110,8
6,38,110,104
6,33,110,8
6,33,110,8
6,33,110,16
6,38,110,16
6,38,110,16
6,33,110,8
6,33,110,104
6,33,110,8
6,38,110,8
6,38,110,112
6,33,110,112
6,33,110,0
6,33,110,8
6,38,110,16
6,45,110,8
6,33,110,16
6,33,110,16
6,33,110,104
6,33,110,8
6,38,110,16
6,38,110,8
6,33,110,16
6,33,110,16
6,33,110,8
6,38,110,96
6,38,110,8
6,45,110,8
6,33,95,8
6,33,95,8
6,33,95,16
6,33,95,16
6,45,110,16
6,33,110,104
6,38,110,104
6,38,110,104
6,33,110,8
6,33,110,8
6,38,110,16
6,31,110,8
6,31,110,8
6,43,110,192
6,31,110,16
6,36,110,384
6,36,110,24
6,43,110,8
6,31,110,8
6,36,110,384
6,37,110,432
6,37,110,104
6,39,110,104
6,39,110,112
6,34,110,16
6,39,110,8
6,32,110,16
6,32,110,104
6,44,110,200
6,32,110,8
6,37,110,384
6,37,110,8
6,37,110,24
6,44,110,8
6,44,110,104
6,32,110,8
6,37,110,192
6,37,110,8
6,46,110,8
6,44,110,16
6,44,110,8
6,37,110,8
6,37,110,8
6,46,110,8
6,39,110,8
6,39,110,104
6,34,110,8
6,39,110,8
6,32,110,8
6,32,110,112
6,44,110,8
6,44,110,104
6,34,110,16
6,34,110,8
6,41,110,16
6,41,110,104
6,46,110,16
6,46,110,112
6,46,110,8
6,44,110,16
6,41,110,16
6,39,110,8
6,39,110,8
6,34,110,8
6,34,110,8
6,39,110,8
6,39,110,24
6,39,110,104
6,34,110,104
6,39,110,192
6,32,110,8
6,32,110,24
6,44,110,8
6,32,110,8
6,32,110,8
6,34,110,8
6,46,110,8
6,34,110,8
6,39,110,192
6,41,110,8
6,41,110,8
6,34,110,8
6,34,110,8
6,32,110,16
6,32,110,8
6,34,110,16
6,36,110,8
6,37,110,16
6,38,110,8
6,39,110,8
6,39,110,16
6,34,110,8
6,39,110,8
6,39,110,8
6,39,110,8
6,39,110,8
6,32,110,8
6,32,110,104
6,44,110,16
6,44,110,104
6,32,110,8
6,37,110,8
6,37,110,8
6,39,110,112
6,41,110,16
6,44,110,8
6,37,110,16
6,38,110,40
6,38,110,112
6,26,110,296
6,28,110,8
6,28,110,24
6,35,110,8
6,35,110,8
6,33,110,8
6,33,110,32
6,45,110,8
6,33,110,16
6,38,110,8
6,38,110,32
6,33,110,8
6,33,110,16
6,38,110,16
6,38,110,8
6,45,110,8
6,38,110,8
6,38,110,8
6,28,110,16
6,28,110,32
6,35,110,16
