track,note,velocity,time
1,34,118,3072
1,41,120,480
1,34,105,39
1,34,120,458
1,39,118,13
1,46,120,480
1,39,105,39
1,41,120,458
1,44,115,13
1,44,115,93
1,51,115,128
1,44,115,183
1,44,115,256
1,44,115,29
1,46,123,170
1,47,110,96
1,48,110,0
1,39,123,106
1,44,110,39
1,44,115,80
1,44,115,29
1,44,115,74
1,44,115,29
1,44,115,74
1,44,115,480
1,44,115,26
1,56,115,544
1,44,115,4
1,43,115,480
1,44,115,26
1,56,115,448
1,37,115,4
1,36,115,480
1,37,115,26
1,49,115,544
1,37,115,4
1,32,115,496
1,37,115,39
1,36,115,96
1,37,115,122
1,37,117,116
1,37,115,109
1,34,118,23
1,41,120,480
1,34,105,39
1,34,120,458
1,39,118,13
1,46,120,480
1,39,105,39
1,41,120,458
1,44,119,13
1,39,119,359
1,47,106,32
1,48,119,0
1,44,115,4
1,44,115,29
1,56,115,170
1,44,115,167
1,44,115,100
1,51,115,135
1,44,115,93
1,44,115,0
1,44,115,29
1,56,108,170
1,44,123,93
1,44,115,4
1,44,115,480
1,44,115,26
1,56,115,544
1,44,115,4
1,43,115,480
1,44,115,26
1,56,115,448
1,37,115,4
1,36,115,480
1,37,115,26
1,49,115,544
1,37,115,4
1,36,115,480
1,37,115,26
1,31,115,480
1,34,118,26
1,41,120,480
1,34,105,39
1,36,120,458
1,39,118,13
1,46,120,480
1,39,105,39
1,41,120,458
1,44,115,13
1,44,115,93
1,51,115,128
1,42,115,183
1,42,115,93
1,49,115,128
1,44,115,183
1,44,115,29
1,42,115,170
1,47,115,16
1,48,115,0
1,46,123,116
1,47,110,96
1,48,110,0
1,39,123,106
1,42,110,39
1,34,118,80
1,41,120,480
1,34,105,39
1,34,120,458
1,37,118,13
1,44,120,480
1,37,105,39
1,44,120,458
1,42,118,13
1,37,120,480
1,42,105,39
1,46,120,458
1,42,115,13
1,42,115,480
1,44,115,26
1,45,115,448
1,34,118,4
1,41,120,480
1,34,105,39
1,38,120,458
1,39,118,13
1,46,120,480
1,39,105,39
1,41,120,458
1,58,120,109
1,59,107,52
1,60,120,0
1,63,107,29
1,44,122,208
1,56,99,109
1,57,124,39
1,58,124,96
1,44,120,4
1,44,107,112
1,56,120,96
1,44,117,4
1,51,117,96
1,44,117,151
1,56,104,138
1,44,117,119
1,44,115,36
1,56,115,96
1,46,115,64
1,58,115,96
1,44,115,58
1,56,115,4
1,44,115,138
1,34,118,26
1,41,120,480
1,34,105,39
1,34,120,458
1,37,118,13
1,44,120,480
1,37,105,39
1,39,120,458
1,42,118,13
1,37,120,480
1,42,105,39
1,39,120,458
1,42,115,13
1,42,115,480
1,44,115,26
1,45,115,448
1,34,118,4
1,41,120,480
1,34,105,39
1,38,120,458
1,39,118,13
1,46,120,480
1,39,105,39
1,41,120,458
1,44,119,13
1,51,106,103
1,56,106,96
1,60,119,125
1,44,119,122
1,44,120,23
1,49,107,112
1,56,120,96
1,44,120,4
1,44,107,112
1,56,120,96
1,44,105,100
1,44,118,29
1,46,118,122
1,58,118,0
1,48,118,58
1,60,118,0
1,44,115,138
1,44,115,48
1,44,115,132
1,56,115,4
1,44,115,138
1,44,115,26
1,44,115,480
1,44,115,26
1,56,115,544
1,44,115,4
1,43,115,480
1,44,115,26
1,56,115,448
1,37,115,4
1,41,115,480
1,37,115,26
1,49,115,544
1,37,115,4
1,32,115,496
1,37,115,39
1,36,115,96
1,37,115,122
1,37,117,116
1,37,115,109
1,34,118,23
1,41,120,480
1,34,105,39
1,34,120,458
1,39,118,13
1,46,120,480
1,39,105,39
1,41,120,458
1,44,119,13
1,39,119,359
1,47,106,32
1,48,119,0
1,44,115,100
1,45,115,7
1,46,115,96
1,44,115,0
1,44,115,29
1,44,115,74
1,44,115,100
1,51,115,135
1,44,115,93
1,56,108,96
1,44,123,93
1,44,115,4
1,44,115,29
1,44,115,74
1,44,115,480
1,44,115,26
1,56,115,544
1,44,115,4
1,46,115,480
1,44,115,26
1,56,115,448
1,37,115,4
1,41,115,480
1,37,115,26
1,49,115,544
1,37,115,4
1,36,115,480
1,37,115,26
1,31,115,96
1,32,115,106
1,37,115,100
1,34,118,164
1,41,120,480
1,34,105,39
1,34,120,458
1,39,118,13
1,46,120,480
1,39,105,39
1,41,120,458
1,44,119,13
1,39,119,359
1,47,106,32
1,48,119,0
1,42,115,4
1,42,115,93
1,49,115,128
1,56,108,279
1,44,123,93
1,54,114,100
1,42,116,10
1,42,115,100
1,42,115,100
1,51,115,135
1,42,115,93
1,34,118,0
1,41,120,480
1,34,105,39
1,34,120,458
1,37,118,13
1,44,120,480
1,37,105,39
1,39,120,458
1,42,118,13
1,37,120,480
1,42,105,39
1,46,120,458
1,42,115,13
1,42,115,480
1,44,115,26
1,45,115,448
1,34,118,4
1,41,120,480
1,34,105,39
1,38,120,458
1,39,118,13
1,46,120,480
1,39,105,39
1,41,120,458
1,44,119,13
1,51,106,103
1,56,106,96
1,60,119,125
1,44,119,122
1,56,99,119
1,57,124,39
1,58,124,96
1,56,99,100
1,52,124,39
1,53,124,96
1,44,105,100
1,44,118,29
1,46,118,122
1,58,118,0
1,48,118,58
1,60,118,0
1,44,115,138
1,44,115,48
1,44,115,228
1,44,115,48
1,34,118,132
1,41,120,480
1,34,105,39
1,34,120,458
1,37,118,13
1,44,120,480
1,37,105,39
1,44,120,458
1,42,118,13
1,37,120,480
1,42,105,39
1,46,120,458
1,42,115,13
1,42,115,480
1,44,115,26
1,45,115,448
1,34,118,4
1,41,120,480
1,34,105,39
1,38,120,458
1,39,118,13
1,46,120,480
1,39,105,39
1,41,120,458
1,58,120,109
1,59,107,52
1,60,120,0
1,63,107,29
1,44,122,208
1,44,120,13
1,49,107,112
1,56,120,96
1,44,120,4
1,44,107,112
1,56,120,96
1,44,117,4
1,51,117,96
1,44,117,151
1,56,104,138
1,44,117,119
1,44,115,36
1,56,115,4
1,44,115,138
1,44,115,122
1,44,115,48
1,44,115,132
1,44,115,480
1,44,115,26
1,56,115,544
1,44,115,4
1,43,115,480
1,44,115,26
1,56,115,448
1,37,115,4
1,36,115,480
1,37,115,26
1,49,115,544
1,37,115,4
1,32,115,496
1,37,115,39
1,32,115,96
1,37,115,122
1,37,117,116
1,37,115,109
1,34,118,23
1,41,120,480
1,34,105,39
1,34,120,458
1,39,118,13
1,46,120,480
1,39,105,39
1,46,120,458
1,44,115,13
1,44,115,93
1,51,115,128
1,56,115,279
1,56,115,263
1,46,123,263
1,47,110,96
1,48,110,0
1,39,123,106
1,44,110,39
1,56,108,176
1,44,123,93
1,56,108,100
1,44,123,93
1,44,115,4
1,44,115,480
1,44,115,26
1,56,115,544
1,44,115,4
1,43,115,480
1,44,115,26
1,56,115,448
1,37,115,4
1,36,115,480
1,37,115,26
1,49,115,544
1,37,115,4
1,32,115,480
1,37,115,26
1,31,115,96
1,36,115,106
1,37,115,100
1,34,118,164
1,41,120,480
1,34,105,39
1,34,120,458
1,39,118,13
1,46,120,480
1,39,105,39
1,41,120,458
1,44,115,13
1,44,115,93
1,51,115,128
1,42,119,183
1,37,119,359
1,45,106,32
1,46,119,0
1,44,115,100
1,47,115,16
1,48,115,0
1,54,114,116
1,42,116,10
1,46,123,196
1,47,110,96
1,48,110,0
1,39,123,106
1,42,110,39
1,34,118,80
1,41,120,480
1,34,105,39
1,34,120,458
1,37,118,13
1,44,120,480
1,37,105,39
1,39,120,458
1,42,118,13
1,37,120,480
1,42,105,39
1,39,120,458
1,42,115,13
1,42,115,480
1,44,115,26
1,45,115,448
1,34,118,4
1,41,120,480
1,34,105,39
1,38,120,458
1,39,118,13
1,46,120,480
1,39,105,39
1,41,120,458
1,44,119,13
1,51,106,103
1,56,106,96
1,60,119,125
1,44,119,122
1,61,115,119
1,44,115,103
1,44,120,4
1,44,107,112
1,56,120,96
1,44,105,100
1,44,118,29
1,46,118,122
1,58,118,0
1,48,118,58
1,60,118,0
1,56,115,138
1,44,115,103
1,56,115,96
1,44,115,103
1,34,118,0
1,41,120,480
1,34,105,39
1,34,120,458
1,37,118,13
1,44,120,480
1,37,105,39
1,39,120,458
1,42,118,13
1,37,120,480
1,42,105,39
1,39,120,458
1,42,115,13
1,42,115,480
1,44,115,26
1,45,115,448
1,34,118,4
1,41,120,480
1,34,105,39
1,38,120,458
1,39,118,13
1,46,120,480
1,39,105,39
1,41,120,458
1,58,120,109
1,59,107,52
1,60,120,0
1,63,107,29
1,44,122,208
1,49,115,13
1,44,115,218
1,56,99,125
1,52,124,39
1,53,124,96
1,44,117,4
1,51,117,96
1,44,117,151
1,56,104,138
1,44,117,119
1,44,115,36
1,56,115,96
1,46,115,64
1,58,115,96
1,44,115,154
1,44,115,48
1,34,118,132
1,41,120,480
1,34,105,39
1,34,120,458
1,37,118,13
1,44,120,480
1,37,105,39
1,39,120,458
1,42,118,13
1,37,120,480
1,42,105,39
1,39,120,458
1,42,115,13
1,42,115,480
1,44,115,26
1,45,115,448
1,34,119,4
1,41,106,103
1,46,106,96
1,50,119,125
1,34,119,122
1,46,119,119
1,49,106,32
1,50,119,26
1,53,119,42
1,34,121,221
1,39,117,32
1,39,117,20
1,39,117,247
1,51,117,141
1,39,104,522
1,38,117,96
1,39,119,4
1,44,118,39
1,44,118,42
1,56,118,39
1,44,105,39
1,44,118,45
1,56,118,32
1,44,118,45
1,44,118,52
1,56,118,45
1,44,118,39
1,44,118,45
1,51,120,48
1,49,118,42
1,48,118,48
1,44,118,55
1,44,118,52
1,44,118,48
1,56,105,45
1,44,118,29
1,44,105,48
1,56,105,52
1,51,118,42
1,56,105,48
2,35,115,3072
2,42,115,0
2,49,90,0
2,42,90,16
2,35,90,16
2,42,100,0
2,35,100,16
2,42,90,0
2,38,100,16
2,42,115,0
2,65,80,0
2,35,90,16
2,42,90,0
2,42,100,16
2,42,90,16
2,35,115,16
2,42,115,0
2,42,90,16
2,42,100,16
2,42,90,16
2,38,100,16
2,42,115,0
2,65,80,0
2,35,115,16
2,46,115,0
2,42,100,16
2,42,90,16
2,35,115,16
2,42,115,0
2,42,90,16
2,35,90,16
2,42,100,0
2,35,100,16
2,42,90,0
2,38,100,16
2,42,115,0
2,65,80,0
2,35,90,16
2,42,90,0
2,42,100,16
2,35,120,16
2,42,90,0
2,42,115,16
2,42,90,16
2,42,100,16
2,42,90,16
2,38,100,16
2,42,115,0
2,65,80,0
2,35,115,16
2,46,115,0
2,42,100,16
2,42,90,16
2,35,115,16
2,42,115,0
2,56,127,0
2,49,80,0
2,65,100,0
2,42,100,16
2,65,80,0
2,35,100,16
2,42,90,0
2,46,115,16
2,65,90,0
2,38,100,16
2,42,100,0
2,65,95,0
2,35,115,16
2,42,90,0
2,41,90,0
2,42,80,16
2,35,115,16
2,42,90,0
2,42,100,16
2,65,115,0
2,38,90,16
2,42,90,0
2,65,90,0
2,42,80,16
2,46,115,16
2,65,100,0
2,38,100,16
2,42,100,0
2,65,115,0
2,42,90,16
2,42,80,16
2,65,127,0
2,35,115,16
2,42,90,0
2,65,90,0
2,35,115,16
2,42,115,0
2,56,127,0
2,62,95,0
2,42,100,16
2,63,110,0
2,35,100,16
2,42,90,0
2,56,90,0
2,62,85,0
2,46,115,16
2,56,100,0
2,38,100,16
2,42,100,0
2,56,115,0
2,63,110,0
2,65,90,0
2,35,115,16
2,42,90,0
2,56,127,0
2,62,85,0
2,42,80,16
2,56,115,0
2,65,100,0
2,35,115,16
2,42,90,0
2,56,100,0
2,65,115,0
2,42,100,16
2,56,90,0
2,49,90,0
2,65,127,0
2,38,90,16
2,42,90,0
2,41,100,0
2,42,80,16
2,46,115,16
2,41,127,0
2,38,100,16
2,42,100,0
2,62,95,0
2,65,80,0
2,42,90,16
2,48,100,0
2,63,95,0
2,42,80,16
2,45,115,0
2,63,127,0
2,35,115,16
2,42,90,0
2,41,127,0
2,63,115,0
2,35,115,16
2,42,115,0
2,49,90,0
2,42,90,16
2,35,90,16
2,42,100,0
2,35,100,16
2,42,90,0
2,38,100,16
2,42,115,0
2,65,80,0
2,35,90,16
2,42,90,0
2,42,100,16
2,42,90,16
2,35,115,16
2,42,115,0
2,42,90,16
2,42,100,16
2,42,90,16
2,38,100,16
2,42,115,0
2,65,80,0
2,35,115,16
2,46,115,0
2,42,100,16
2,42,90,16
2,35,115,16
2,42,115,0
2,42,90,16
2,35,90,16
2,42,100,0
2,35,100,16
2,42,90,0
2,38,100,16
2,42,115,0
2,65,80,0
2,35,90,16
2,42,90,0
2,42,100,16
2,35,120,16
2,42,90,0
2,42,115,16
2,42,90,16
2,42,100,16
2,42,90,16
2,38,100,16
2,42,115,0
2,65,80,0
2,35,115,16
2,46,115,0
2,42,100,16
2,42,90,16
2,35,115,16
2,42,115,0
2,42,90,16
2,35,90,16
2,42,100,0
2,35,100,16
2,42,90,0
2,38,115,16
2,42,115,0
2,65,80,0
2,35,90,16
2,42,90,0
2,42,100,16
2,42,90,16
2,35,115,16
2,42,115,0
2,42,90,16
2,42,100,16
2,42,90,16
2,38,115,16
2,42,115,0
2,65,80,0
2,35,115,16
2,46,115,0
2,42,100,16
2,42,90,16
2,35,115,16
2,42,115,0
2,42,90,16
2,35,90,16
2,42,100,0
2,35,100,16
2,42,90,0
2,38,100,16
2,42,115,0
2,65,80,0
2,35,90,16
2,42,90,0
2,42,100,16
2,35,120,16
2,42,90,0
2,42,115,16
2,42,90,16
2,42,100,16
2,42,90,16
2,38,100,16
2,42,115,0
2,65,80,0
2,35,115,16
2,46,115,0
2,42,100,16
2,42,90,16
2,35,115,16
2,42,115,0
2,42,90,16
2,35,90,16
2,42,100,0
2,35,100,16
2,42,90,0
2,38,115,16
2,42,115,0
2,65,80,0
2,35,90,16
2,42,90,0
2,42,100,16
2,42,90,16
2,35,115,16
2,42,115,0
2,42,90,16
2,42,100,16
2,42,90,16
2,38,115,16
2,42,115,0
2,65,80,0
2,35,115,16
2,46,115,0
2,42,100,16
2,42,90,16
2,35,115,16
2,42,115,0
2,42,90,16
2,35,90,16
2,42,100,0
2,35,100,16
2,42,90,0
2,38,100,16
2,42,115,0
2,65,80,0
2,35,90,16
2,42,90,0
2,42,100,16
2,35,120,16
2,42,90,0
2,42,115,16
2,42,90,16
2,42,100,16
2,42,90,16
2,38,100,16
2,42,115,0
2,65,80,0
2,35,115,16
2,46,115,0
2,42,100,16
2,42,90,16
2,35,115,16
2,42,115,0
2,56,127,0
2,49,80,0
2,65,100,0
2,42,100,16
2,65,80,0
2,35,100,16
2,42,90,0
2,46,115,16
2,65,90,0
2,38,100,16
2,42,100,0
2,65,95,0
2,35,115,16
2,42,90,0
2,41,90,0
2,39,115,0
2,42,80,16
2,35,115,16
2,42,90,0
2,42,100,16
2,65,115,0
2,38,90,16
2,42,90,0
2,65,90,0
2,42,80,16
2,46,115,16
2,65,100,0
2,38,100,16
2,42,100,0
2,65,115,0
2,42,90,16
2,42,80,16
2,65,127,0
2,35,115,16
2,42,90,0
2,65,90,0
2,35,115,16
2,42,115,0
2,56,127,0
2,49,90,0
2,62,95,0
2,42,100,16
2,56,80,0
2,63,110,0
2,39,90,0
2,35,100,16
2,42,90,0
2,62,85,0
2,39,100,0
2,46,115,16
2,39,115,0
2,38,100,16
2,42,100,0
2,48,90,0
2,65,80,0
2,39,127,0
2,35,115,16
2,42,90,0
2,48,100,0
2,42,80,16
2,45,115,0
2,35,115,16
2,42,90,0
2,41,127,0
2,42,100,16
2,41,127,0
2,38,90,16
2,42,90,0
2,65,90,0
2,42,80,16
2,63,110,0
2,46,115,16
2,62,85,0
2,65,100,0
2,38,100,16
2,42,100,0
2,65,127,0
2,42,90,16
2,63,95,0
2,65,115,0
2,42,80,16
2,41,115,0
2,63,127,0
2,65,100,0
2,35,115,16
2,42,90,0
2,41,127,0
2,63,115,0
2,65,90,0
2,35,115,16
2,42,115,0
2,51,108,0
2,42,90,16
2,35,90,16
2,42,100,0
2,35,100,16
2,42,90,0
