track,note,velocity,time
1,35,82,0
1,35,0,133
1,35,72,48
1,35,0,15
1,35,72,45
1,35,0,140
1,35,59,35
1,35,0,12
1,35,62,53
1,35,0,130
1,35,64,54
1,35,0,14
1,35,68,45
1,35,0,147
1,35,89,33
1,35,0,25
1,42,112,31
1,42,0,940
1,35,85,27
1,35,0,144
1,35,80,36
1,35,0,18
1,35,70,43
1,35,0,196
1,35,52,40
1,35,0,140
1,35,66,36
1,35,0,19
1,35,82,44
1,35,0,143
1,35,93,38
1,35,0,17
1,42,112,39
1,42,0,940
1,35,80,20
1,35,0,171
1,30,58,10
1,30,0,60
1,35,68,0
1,35,0,20
1,35,74,41
1,35,0,68
1,35,76,49
1,35,0,28
1,40,63,39
1,40,0,132
1,40,64,45
1,40,0,16
1,40,78,45
1,40,0,160
1,40,87,22
1,40,0,18
1,39,63,42
1,39,0,132
1,39,64,45
1,39,0,16
1,39,78,45
1,39,0,160
1,39,87,22
1,39,0,18
1,44,63,42
1,44,0,132
1,44,64,45
1,44,0,16
1,44,78,45
1,44,0,160
1,44,87,22
1,44,0,18
1,37,80,36
1,37,0,171
1,32,58,10
1,32,0,60
1,37,68,0
1,37,0,20
1,37,74,41
1,37,0,68
1,37,76,49
1,37,0,28
1,42,63,39
1,42,0,132
1,42,64,45
1,42,0,16
1,42,78,45
1,42,0,160
1,42,87,22
1,42,0,18
1,35,72,36
1,35,0,173
1,35,82,7
1,35,0,15
1,35,85,45
1,35,0,19
1,35,82,41
1,35,0,78
1,35,87,42
1,35,0,26
1,37,82,34
1,37,0,141
1,37,85,37
1,37,0,34
1,42,72,29
1,42,0,146
1,42,74,37
1,42,0,32
1,35,63,30
1,35,0,132
1,35,64,45
1,35,0,16
1,35,78,45
1,35,0,160
1,35,87,22
1,35,0,18
1,40,72,36
1,40,0,173
1,40,82,7
1,40,0,15
1,40,85,45
1,40,0,19
1,40,82,41
1,40,0,78
1,40,87,42
1,40,0,26
1,39,80,34
1,39,0,171
1,34,58,10
1,34,0,60
1,39,68,0
1,39,0,20
1,39,74,41
1,39,0,68
1,39,76,49
1,39,0,28
1,44,63,39
1,44,0,132
1,44,64,45
1,44,0,16
1,44,78,45
1,44,0,160
1,44,87,22
1,44,0,18
1,37,72,36
1,37,0,173
1,37,82,7
1,37,0,15
1,37,85,45
1,37,0,19
1,37,82,41
1,37,0,78
1,37,87,42
1,37,0,26
1,42,63,40
1,42,0,132
1,42,64,45
1,42,0,16
1,42,78,45
1,42,0,160
1,42,87,22
1,42,0,18
1,35,63,42
1,35,0,132
1,35,64,45
1,35,0,16
1,35,78,45
1,35,0,160
1,35,87,22
1,35,0,18
1,37,82,36
1,37,0,141
1,37,85,37
1,37,0,34
1,42,82,28
1,42,0,141
1,42,85,37
1,42,0,34
1,35,74,28
1,35,0,192
1,35,70,18
1,35,0,15
1,35,66,15
1,35,0,164
1,35,82,16
1,35,0,14
1,35,87,16
1,35,0,16
1,40,76,14
1,40,0,195
1,40,87,15
1,40,0,14
1,42,82,16
1,42,0,165
1,42,89,15
1,42,0,17
1,42,89,13
1,42,0,13
1,35,74,17
1,35,0,192
1,35,70,18
1,35,0,15
1,35,66,15
1,35,0,164
1,42,82,16
1,42,0,14
1,39,87,16
1,39,0,16
1,40,85,14
1,40,0,186
1,37,82,24
1,37,0,15
1,42,82,15
1,42,0,165
1,37,89,15
1,37,0,17
1,42,89,13
1,42,0,13
1,35,74,17
1,35,0,192
1,35,70,18
1,35,0,15
1,35,66,15
1,35,0,164
1,37,82,16
1,37,0,14
1,39,87,16
1,39,0,16
1,40,76,14
1,40,0,195
1,40,87,15
1,40,0,14
1,42,82,16
1,42,0,165
1,42,89,15
1,42,0,17
1,42,89,13
1,42,0,13
1,46,74,17
1,46,0,192
1,46,70,18
1,46,0,15
1,46,66,15
1,46,0,164
1,37,82,16
1,37,0,14
1,34,87,16
1,34,0,16
1,39,82,14
1,39,0,132
1,39,72,78
1,39,0,11
1,39,82,19
1,39,0,162
1,41,102,48
1,41,0,14
1,44,74,19
1,44,0,158
1,39,52,51
1,39,0,23
1,44,85,4
1,44,0,189
1,39,87,18
1,39,0,12
1,37,76,22
1,37,0,195
1,37,87,15
1,37,0,14
1,39,82,16
1,39,0,165
1,39,89,15
1,39,0,17
1,39,89,13
1,39,0,13
1,44,82,17
1,44,0,169
1,44,68,41
1,44,0,15
1,44,80,15
1,44,0,11
1,44,85,49
1,44,0,115
1,39,72,5
1,40,63,30
1,39,0,1
1,40,0,29
1,44,76,0
1,44,0,188
1,44,66,22
1,44,0,15
1,44,89,15
1,44,0,161
1,40,91,19
1,40,0,13
1,39,85,17
1,39,0,18
1,37,85,12
1,37,0,181
1,37,68,25
1,37,0,12
1,37,76,19
1,37,0,146
1,32,58,33
1,32,0,17
1,34,80,13
1,34,0,22
1,37,87,11
1,37,0,193
1,37,57,20
1,37,0,11
1,37,70,16
1,37,0,12
1,37,98,55
1,37,0,102
1,37,89,14
1,37,0,17
1,42,82,41
1,42,0,132
1,42,72,78
1,42,0,11
1,42,82,19
1,42,0,162
1,42,102,48
1,42,0,14
1,42,82,16
1,42,0,132
1,42,72,78
1,42,0,11
1,42,82,19
1,42,0,162
1,37,102,48
1,37,0,14
1,35,63,22
1,35,0,132
1,35,64,45
1,35,0,16
1,35,78,45
1,35,0,160
1,35,87,22
1,35,0,18
1,40,72,36
1,40,0,173
1,40,82,7
1,40,0,15
1,40,85,45
1,40,0,19
1,40,82,41
1,40,0,78
1,40,87,42
1,40,0,26
1,39,63,40
1,39,0,132
1,39,64,45
1,39,0,16
1,39,78,45
1,39,0,160
1,39,87,22
1,39,0,18
1,44,63,42
1,44,0,132
1,44,64,45
1,44,0,16
1,44,78,45
1,44,0,160
1,44,87,22
1,44,0,18
1,37,63,42
1,37,0,132
1,37,64,45
1,37,0,16
1,37,78,45
1,37,0,160
1,37,87,22
1,37,0,18
1,42,63,42
1,42,0,132
1,42,64,45
1,42,0,16
1,42,78,45
1,42,0,160
1,42,87,22
1,42,0,18
1,35,63,42
1,35,0,132
1,35,64,45
1,35,0,16
1,35,78,45
1,35,0,160
1,35,87,22
1,35,0,18
1,37,82,36
1,37,0,141
1,37,85,37
1,37,0,34
1,42,82,28
1,42,0,141
1,42,85,37
1,42,0,34
1,35,72,28
1,35,0,173
1,35,82,7
1,35,0,15
1,35,85,45
1,35,0,19
1,35,82,41
1,35,0,78
1,35,87,42
1,35,0,26
1,40,72,34
1,40,0,173
1,40,82,7
1,40,0,15
1,40,85,45
1,40,0,19
1,40,82,41
1,40,0,78
1,40,87,42
1,40,0,26
1,39,63,40
1,39,0,132
1,39,64,45
1,39,0,16
1,39,78,45
1,39,0,160
1,39,87,22
1,39,0,18
1,44,72,36
1,44,0,173
1,44,82,7
1,44,0,15
1,44,85,45
1,44,0,19
1,44,82,41
1,44,0,78
1,44,87,42
1,44,0,26
1,37,63,40
1,37,0,132
1,37,64,45
1,37,0,16
1,37,78,45
1,37,0,160
1,37,87,22
1,37,0,18
1,42,63,42
1,42,0,132
1,42,64,45
1,42,0,16
1,42,78,45
1,42,0,160
1,42,87,22
1,42,0,18
1,35,63,42
1,35,0,132
1,35,64,45
1,35,0,16
1,35,78,45
1,35,0,160
1,35,87,22
1,35,0,18
1,37,72,37
1,37,0,146
1,37,74,37
1,37,0,32
1,42,82,24
1,42,0,141
1,42,85,37
1,42,0,34
1,35,82,28
1,35,0,132
1,35,72,78
1,35,0,11
1,35,82,19
1,35,0,162
1,35,102,48
1,35,0,14
1,40,76,16
1,40,0,195
1,40,87,15
1,40,0,14
1,42,82,16
1,42,0,165
1,42,89,15
1,42,0,17
1,42,89,13
1,42,0,13
1,35,82,17
1,35,0,132
1,35,72,78
1,35,0,11
1,35,82,19
1,35,0,162
1,42,102,48
1,42,0,14
1,40,76,16
1,40,0,195
1,40,87,15
1,40,0,14
1,42,82,16
1,42,0,165
1,42,89,15
1,42,0,17
1,42,89,13
1,42,0,13
1,35,82,17
1,35,0,132
1,35,72,78
1,35,0,11
1,35,82,19
1,35,0,162
1,42,102,48
1,42,0,14
1,40,76,16
1,40,0,195
1,40,87,15
1,40,0,14
1,42,82,16
1,42,0,165
1,42,89,15
1,42,0,17
1,42,89,13
1,42,0,13
1,46,74,20
1,46,0,158
1,40,52,51
1,40,0,23
1,46,85,4
1,46,0,189
1,42,87,18
1,42,0,12
1,39,74,25
1,39,0,158
1,34,52,51
1,34,0,23
1,39,85,4
1,39,0,189
1,43,87,18
1,43,0,12
1,44,82,22
1,44,0,132
1,44,72,78
1,44,0,11
1,44,82,19
1,44,0,162
1,39,102,48
1,39,0,14
1,37,85,16
1,37,0,186
1,38,82,24
1,38,0,15
1,39,82,15
1,39,0,165
1,46,89,15
1,46,0,17
1,39,89,13
1,39,0,13
1,44,85,17
1,44,0,181
1,44,68,25
1,44,0,12
1,44,76,19
1,44,0,146
1,39,58,33
1,39,0,17
1,40,80,13
1,40,0,22
1,44,87,11
1,44,0,193
1,44,57,20
1,44,0,11
1,44,70,16
1,44,0,12
1,44,98,55
1,44,0,102
1,44,89,14
1,44,0,17
1,37,85,41
1,37,0,181
1,37,68,25
1,37,0,12
1,37,76,19
1,37,0,146
1,32,58,33
1,32,0,17
1,34,80,13
1,34,0,22
1,37,87,11
1,37,0,193
1,37,57,20
1,37,0,11
1,37,70,16
1,37,0,12
1,37,98,55
1,37,0,102
1,37,89,14
1,37,0,17
1,42,74,41
1,42,0,192
1,42,70,18
1,42,0,15
1,42,66,15
1,42,0,164
1,42,82,16
1,42,0,14
1,42,87,16
1,42,0,16
1,43,82,14
1,43,0,132
1,43,72,78
1,43,0,11
1,43,82,19
1,43,0,162
1,43,102,48
1,43,0,14
1,36,82,16
1,36,0,132
1,36,72,78
1,36,0,11
1,36,82,19
1,36,0,162
1,41,102,48
1,41,0,14
1,41,74,19
1,41,0,158
1,38,52,51
1,38,0,23
1,41,85,4
1,41,0,189
1,42,87,18
1,42,0,12
1,40,74,25
1,40,0,158
1,35,52,51
1,35,0,23
1,40,85,4
1,40,0,189
1,43,87,18
1,43,0,12
1,45,74,22
1,45,0,192
1,45,70,18
1,45,0,15
1,45,66,15
1,45,0,164
1,37,82,16
1,37,0,14
1,45,87,16
1,45,0,16
1,38,82,14
1,38,0,132
1,38,72,78
1,38,0,11
1,38,82,19
1,38,0,162
1,35,102,48
1,35,0,14
1,43,74,19
1,43,0,158
1,33,52,51
1,33,0,23
1,43,85,4
1,43,0,189
1,37,87,18
1,37,0,12
1,36,74,25
1,36,0,158
1,31,52,51
1,31,0,23
1,36,85,4
1,36,0,189
1,37,87,18
1,37,0,12
1,38,85,22
1,38,0,186
1,40,82,24
1,40,0,15
1,43,82,15
1,43,0,165
1,37,89,15
1,37,0,17
1,43,89,13
1,43,0,13
1,36,82,17
1,36,0,132
1,36,72,78
1,36,0,11
1,36,82,19
1,36,0,162
1,47,102,48
1,47,0,14
1,41,82,16
1,41,0,132
1,41,72,78
1,41,0,11
1,41,82,19
1,41,0,162
1,38,102,48
1,38,0,14
1,40,74,16
1,40,0,192
1,40,70,18
1,40,0,15
1,40,66,15
1,40,0,164
1,47,82,16
1,47,0,14
1,40,87,16
1,40,0,16
1,45,74,14
1,45,0,192
1,45,70,18
1,45,0,15
1,45,66,15
1,45,0,164
1,37,82,16
1,37,0,14
1,33,87,16
1,33,0,16
1,38,74,14
1,38,0,192
1,38,70,18
1,38,0,15
1,38,66,15
1,38,0,164
1,35,82,16
1,35,0,14
1,36,87,16
1,36,0,16
1,43,82,14
1,43,0,132
1,43,72,78
1,43,0,11
1,43,82,19
1,43,0,162
1,43,102,48
1,43,0,14
1,36,85,23
1,36,0,144
1,36,80,36
1,36,0,18
1,36,70,43
1,36,0,196
1,36,52,40
1,36,0,140
1,36,66,36
1,36,0,19
1,36,82,44
1,36,0,143
1,36,93,38
1,36,0,17
1,42,112,39
1,42,0,940
1,36,82,23
1,36,0,134
1,36,72,45
1,36,0,17
1,36,82,45
1,31,76,170
1,36,0,5
1,31,0,62
1,36,76,1
1,36,0,191
1,36,57,20
1,36,0,11
1,36,55,14
1,36,0,10
1,36,72,53
1,36,0,88
1,36,82,33
1,36,0,57
1,42,112,1
1,42,0,940
1,36,63,26
1,36,0,132
1,36,64,45
1,36,0,16
1,36,78,45
1,36,0,160
1,36,87,22
1,36,0,18
1,36,76,41
1,36,0,135
1,36,68,46
1,36,0,14
1,36,63,47
1,36,0,159
1,31,63,12
1,31,0,31
1,33,80,2
1,36,82,37
1,33,0,2
1,36,0,134
1,36,89,38
1,36,0,34
1,36,87,31
1,36,0,225
2,35,100,0
2,42,90,0
2,49,90,0
2,35,0,25
2,42,0,0
2,49,0,0
2,42,70,35
2,42,0,25
2,42,80,35
2,37,100,0
2,42,0,25
2,37,0,0
2,35,80,35
2,42,70,0
2,35,0,25
2,42,0,0
2,35,100,35
2,42,90,0
2,35,0,25
2,42,0,0
2,42,70,35
2,42,0,25
2,42,80,35
2,37,100,0
2,42,0,25
2,37,0,0
2,35,80,35
2,42,70,0
2,35,0,25
2,42,0,0
2,35,100,35
2,42,90,0
2,35,0,25
2,42,0,0
2,42,70,35
2,42,0,25
2,42,80,35
2,37,100,0
2,42,0,25
2,37,0,0
2,35,80,35
2,42,70,0
2,35,0,25
2,42,0,0
2,35,100,35
2,42,90,0
2,35,0,25
2,42,0,0
2,35,80,35
2,42,70,0
2,35,0,25
2,42,0,0
2,42,80,35
2,37,100,0
2,42,0,25
2,37,0,0
2,35,80,35
2,42,70,0
2,35,0,25
2,42,0,0
2,42,60,5
2,42,0,25
2,35,100,5
2,42,90,0
2,35,0,25
2,42,0,0
2,42,70,35
2,42,0,25
2,42,80,35
2,37,100,0
2,42,0,25
2,37,0,0
2,35,80,35
2,42,70,0
2,35,0,25
2,42,0,0
2,35,100,35
2,42,90,0
2,35,0,25
2,42,0,0
2,42,70,35
2,42,0,25
2,42,80,35
2,37,100,0
2,42,0,25
2,37,0,0
2,35,80,35
2,42,70,0
2,35,0,25
2,42,0,0
2,35,100,35
2,42,90,0
2,35,0,25
2,42,0,0
2,42,70,35
2,42,0,25
2,42,80,35
2,37,100,0
2,42,0,25
2,37,0,0
2,35,80,35
2,42,70,0
2,35,0,25
2,42,0,0
2,35,100,35
2,42,90,0
2,35,0,25
2,42,0,0
2,35,80,35
2,42,70,0
2,35,0,25
2,42,0,0
2,42,80,35
2,37,100,0
2,42,0,25
2,37,0,0
2,35,80,35
2,42,70,0
2,35,0,25
2,42,0,0
2,42,60,5
2,42,0,25
2,35,100,5
2,42,90,0
2,49,90,0
2,35,0,25
2,42,0,0
2,49,0,0
2,42,70,35
2,42,0,25
2,42,80,35
2,37,100,0
2,42,0,25
2,37,0,0
2,35,80,35
2,42,70,0
2,35,0,25
2,42,0,0
2,35,100,35
2,42,90,0
2,35,0,25
2,42,0,0
2,42,70,35
2,42,0,25
2,42,80,35
2,37,100,0
2,42,0,25
2,37,0,0
2,35,80,35
2,42,70,0
2,35,0,25
2,42,0,0
2,35,100,35
2,42,90,0
2,35,0,25
2,42,0,0
2,42,70,35
2,42,0,25
2,42,80,35
2,37,100,0
2,42,0,25
2,37,0,0
2,35,80,35
2,42,70,0
2,35,0,25
2,42,0,0
2,35,100,35
2,42,90,0
2,35,0,25
2,42,0,0
2,42,70,35
2,42,0,25
2,42,80,35
2,37,100,0
2,42,0,25
2,37,0,0
2,35,80,35
2,42,70,0
2,35,0,25
2,42,0,0
2,35,100,35
2,42,90,0
2,35,0,25
2,42,0,0
2,42,70,35
2,42,0,25
2,42,80,35
2,37,100,0
2,42,0,25
2,37,0,0
2,35,80,35
2,42,70,0
2,35,0,25
2,42,0,0
2,35,100,35
2,42,90,0
2,35,0,25
2,42,0,0
2,42,70,35
2,42,0,25
2,42,80,35
2,37,100,0
2,42,0,25
2,37,0,0
2,35,80,35
2,42,70,0
2,35,0,25
2,42,0,0
