track,note,velocity,time
1,61,94,2984
1,60,77,48
1,61,77,22
1,39,74,10
1,51,74,6
1,58,76,500
1,56,64,38
1,54,47,42
1,51,67,48
1,54,53,68
1,46,60,374
1,54,83,96
1,61,85,32
1,56,46,16
1,39,77,52
1,41,86,20
1,53,75,32
1,56,73,56
1,60,73,70
1,63,94,42
1,53,34,6
1,60,77,16
1,60,105,8
1,63,100,0
1,53,100,2
1,56,122,0
1,46,103,0
1,68,111,20
1,58,86,2
1,51,100,4
1,39,92,2
1,66,78,52
1,41,84,22
1,58,84,0
1,65,59,14
1,63,75,24
1,42,94,0
1,58,32,6
1,58,77,150
1,61,76,0
1,44,80,4
1,54,61,0
1,56,59,10
1,44,73,8
1,54,114,34
1,61,101,0
1,56,113,4
1,58,113,0
1,44,83,14
1,59,77,58
1,62,113,20
1,59,118,0
1,67,101,2
1,40,118,0
1,62,64,28
1,52,67,32
1,59,65,38
1,62,86,52
1,64,107,20
1,59,111,0
1,62,89,0
1,62,101,96
1,52,89,22
1,59,73,0
1,40,88,16
1,45,101,2
1,64,103,4
1,62,111,0
1,67,98,2
1,62,94,50
1,45,90,38
1,59,101,0
1,68,109,32
1,58,92,0
1,61,96,4
1,39,100,0
1,61,86,96
1,62,86,6
1,51,57,110
1,54,100,16
1,44,105,2
1,58,113,0
1,56,83,0
1,61,88,4
1,61,124,52
1,58,127,0
1,54,98,0
1,56,114,2
1,44,118,0
1,58,101,224
1,56,83,2
1,39,88,0
1,61,90,4
1,51,73,6
1,56,80,76
1,51,83,78
1,54,77,100
1,46,69,60
1,54,89,6
1,39,77,64
1,54,77,106
1,56,76,36
1,58,85,122
1,54,98,44
1,46,96,0
1,54,74,0
1,39,88,0
1,56,16,6
1,63,74,14
1,53,62,2
1,41,90,0
1,60,70,4
1,56,59,38
1,48,89,6
1,53,80,126
1,63,111,30
1,41,85,26
1,51,88,6
1,53,88,0
1,56,82,4
1,46,103,0
1,60,103,0
1,56,83,52
1,46,86,22
1,51,72,30
1,53,75,18
1,56,98,62
1,60,42,16
1,51,103,52
1,46,94,0
1,39,98,16
1,54,75,10
1,58,96,82
1,51,92,196
1,54,105,70
1,56,84,64
1,58,89,52
1,60,103,40
1,54,81,2
1,58,89,170
1,46,82,18
1,56,78,64
1,51,82,6
1,54,75,52
1,54,118,38
1,51,90,4
1,54,109,54
1,39,89,26
1,41,92,16
1,63,90,4
1,56,94,2
1,60,82,0
1,58,85,8
1,56,114,32
1,63,94,44
1,46,105,12
1,56,86,4
1,63,96,2
1,60,105,0
1,58,81,0
1,58,92,40
1,46,96,32
1,56,92,48
1,58,85,28
1,63,98,58
1,46,89,4
1,39,101,10
1,58,101,132
1,61,84,66
1,63,75,134
1,58,96,16
1,66,101,0
1,61,83,4
1,61,85,48
1,51,94,128
1,58,86,14
1,66,100,2
1,61,73,4
1,65,81,12
1,63,85,20
1,61,94,42
1,58,63,6
1,58,105,132
1,51,96,58
1,58,85,44
1,39,84,18
1,60,92,14
1,41,98,0
1,65,89,2
1,68,89,0
1,63,83,4
1,63,103,60
1,53,103,40
1,60,83,6
1,41,84,16
1,65,103,4
1,68,122,0
1,46,122,0
1,60,122,0
1,63,67,2
1,68,100,32
1,65,103,4
1,63,82,2
1,60,98,62
1,58,101,30
1,61,98,2
1,39,109,0
1,68,88,4
1,66,107,16
1,58,82,2
1,61,1,72
1,58,72,24
1,65,82,0
1,41,96,2
1,63,101,10
1,42,103,4
1,44,92,136
1,54,89,2
1,58,111,0
1,61,86,4
1,56,86,0
1,56,74,52
1,44,92,12
1,54,85,26
1,56,85,6
1,54,116,14
1,56,107,118
1,58,92,6
1,44,107,20
1,58,86,50
1,61,83,58
1,61,86,20
1,66,107,0
1,58,116,0
1,63,96,0
1,47,83,0
1,45,101,6
1,61,100,74
1,58,107,24
1,47,88,70
1,58,118,26
1,61,105,0
1,63,113,2
1,66,113,0
1,44,81,4
1,61,98,56
1,44,92,26
1,58,81,58
1,61,81,20
1,63,111,18
1,58,101,0
1,58,124,12
1,66,114,0
1,63,98,4
1,61,55,12
1,44,98,68
1,39,101,6
1,58,107,112
1,66,100,0
1,61,83,2
1,63,77,4
1,51,94,134
1,58,105,60
1,61,90,8
1,63,90,0
1,66,96,0
1,58,92,16
1,61,100,0
1,63,96,4
1,66,116,0
1,39,100,14
1,58,84,144
1,58,98,38
1,61,84,0
1,63,100,0
1,66,100,0
1,51,101,112
1,58,105,14
1,66,83,6
1,61,36,12
1,39,100,20
1,58,88,12
1,39,86,12
1,51,64,4
1,68,84,6
1,60,100,0
1,63,84,8
1,65,101,0
1,41,90,2
1,63,103,62
1,53,105,56
1,48,89,8
1,41,85,28
1,68,101,58
1,60,96,4
1,65,94,0
1,46,107,0
1,63,80,0
1,63,89,50
1,46,89,28
1,60,85,4
1,63,83,32
1,65,111,16
1,60,75,10
1,63,92,86
1,60,109,20
1,46,113,10
1,39,101,8
1,54,96,118
1,51,84,66
1,54,77,56
1,56,86,68
1,58,111,6
1,56,55,4
1,54,103,104
1,60,120,0
1,58,101,156
1,56,92,158
1,46,89,6
1,54,77,32
1,51,109,6
1,54,120,54
1,56,96,128
1,54,105,32
1,39,71,124
1,46,85,4
1,56,100,16
1,41,96,4
1,63,100,0
1,53,84,2
1,60,114,0
1,56,101,58
1,48,101,58
1,53,103,0
1,41,105,24
1,53,89,62
1,56,92,6
1,51,105,0
1,46,125,2
1,60,83,4
1,56,92,58
1,46,94,16
1,51,92,2
1,53,74,22
1,56,111,64
1,51,127,148
1,46,101,42
1,54,83,4
1,61,101,4
1,58,98,0
1,56,80,6
1,39,96,2
1,56,85,74
1,51,96,16
1,54,86,58
1,56,89,64
1,54,98,26
1,61,107,2
1,56,82,46
1,51,83,6
1,54,86,58
1,39,100,12
1,54,107,68
1,56,89,90
1,54,94,26
1,61,113,2
1,58,90,0
1,51,86,0
1,63,103,6
1,41,94,4
1,60,82,6
1,53,70,4
1,55,69,2
1,56,98,160
1,48,101,16
1,53,116,34
1,41,89,26
1,51,96,26
1,56,96,2
1,53,83,0
1,46,107,0
1,60,86,0
1,56,83,72
1,46,94,6
1,51,85,52
1,53,85,48
1,51,103,50
1,53,94,60
1,46,109,0
1,58,74,126
1,58,101,6
1,68,103,0
1,39,100,2
1,61,100,0
1,66,96,16
1,61,33,18
1,58,75,22
1,41,94,0
1,65,88,4
1,63,90,2
1,42,109,4
1,54,84,144
1,44,103,0
1,58,90,0
1,61,75,2
1,56,77,0
1,56,77,50
1,44,101,16
1,54,75,22
1,56,82,68
1,54,107,14
1,61,109,0
1,58,90,2
1,56,73,10
1,56,111,90
1,44,105,32
1,61,101,42
1,53,107,32
1,56,101,2
1,37,105,8
1,56,98,52
1,49,100,4
1,44,83,26
1,37,113,96
1,56,80,54
1,49,101,28
1,53,88,6
1,44,96,0
1,53,113,6
1,56,114,4
1,61,114,0
1,37,118,2
1,49,120,0
1,58,96,4
1,54,100,86
1,73,103,192
1,46,90,20
1,72,105,0
1,73,105,22
1,58,101,10
1,54,81,0
1,56,83,0
1,61,84,0
1,39,78,0
1,56,85,92
1,54,109,50
1,51,103,10
1,46,100,26
1,73,109,66
1,39,113,0
1,72,109,36
1,73,96,22
1,72,113,30
1,54,83,48
1,51,94,24
1,54,76,42
1,56,85,54
1,54,96,16
1,58,113,0
1,56,83,0
1,73,120,2
1,54,113,30
1,61,105,2
1,39,100,4
1,72,45,24
1,41,96,22
1,73,111,4
1,56,96,0
1,75,113,2
1,60,94,0
1,63,113,0
1,58,73,4
1,58,94,30
1,56,105,16
1,53,80,42
1,72,118,34
1,56,94,0
1,58,103,0
1,60,103,0
1,63,77,0
1,70,96,4
1,46,89,0
1,73,86,0
1,72,77,48
1,70,98,22
1,58,101,36
1,46,107,18
1,56,109,120
1,58,109,42
1,46,94,46
1,58,101,22
1,68,109,4
1,51,94,0
1,39,98,4
1,61,64,8
1,66,100,22
1,58,83,0
1,68,113,6
1,61,50,0
1,70,89,8
1,58,80,18
1,72,105,0
1,65,85,0
1,40,74,2
1,41,85,0
1,73,105,10
1,42,98,0
1,63,76,6
1,58,59,4
1,75,111,12
1,44,90,28
1,54,92,0
1,58,88,4
1,61,94,0
1,78,113,2
1,56,88,0
1,80,122,28
1,78,120,26
1,56,88,18
1,44,103,2
1,75,113,2
1,61,113,0
1,54,107,0
1,56,98,0
1,73,101,0
1,62,116,10
1,55,116,0
1,57,120,0
1,59,125,2
1,45,92,0
1,75,114,4
1,76,109,2
1,57,81,32
1,55,89,42
1,57,96,2
1,45,118,62
1,40,90,32
1,33,96,10
1,76,100,20
1,77,50,32
1,79,69,6
1,81,70,0
1,83,66,6
1,59,105,2
1,55,89,0
1,57,101,0
1,45,96,0
1,62,81,4
1,84,64,8
1,86,78,0
1,88,74,0
1,89,86,8
1,91,103,2
1,93,78,0
1,95,94,12
1,93,16,36
1,57,98,12
1,91,61,4
1,45,118,6
1,89,70,10
1,88,47,2
1,86,62,0
1,55,80,6
1,84,74,6
1,83,82,18
1,81,67,14
1,57,86,8
1,79,75,0
1,77,73,6
1,76,64,4
1,55,101,8
1,74,60,6
1,72,61,2
1,71,59,10
1,69,50,10
1,67,55,10
1,62,125,6
1,55,116,0
1,57,125,0
1,59,125,0
1,33,127,2
1,45,116,0
1,65,56,4
1,64,56,0
1,62,57,6
1,60,49,10
1,59,52,6
1,57,51,12
1,55,45,6
1,53,51,10
1,52,57,10
1,50,69,10
1,40,101,22
1,59,107,116
1,67,100,0
1,62,83,2
1,64,77,4
1,52,94,134
1,59,105,60
1,62,90,8
1,64,90,0
1,67,96,0
1,59,92,16
1,62,100,0
1,64,96,4
1,67,116,0
1,40,100,14
1,59,84,144
1,59,98,38
1,62,84,0
1,64,100,0
1,67,100,0
1,52,101,112
1,59,105,14
1,67,83,6
1,62,36,12
1,40,100,20
1,59,88,12
1,40,86,12
1,52,64,4
1,69,84,6
1,61,100,0
1,64,84,8
1,66,101,0
1,42,90,2
1,64,103,62
1,54,105,56
1,49,89,8
1,42,85,28
1,69,101,58
1,61,96,4
1,66,94,0
1,47,107,0
1,64,80,0
1,64,89,50
1,47,89,28
1,61,85,4
1,64,83,32
1,66,111,16
1,61,75,10
1,64,92,86
1,61,109,20
1,47,113,10
1,40,101,8
1,55,96,118
1,52,84,66
1,55,77,56
1,57,86,68
1,59,111,6
1,57,55,4
1,55,103,104
1,61,120,0
1,59,101,156
1,57,92,158
1,47,89,6
1,55,77,32
1,52,109,6
1,55,120,54
1,57,96,128
1,55,105,32
1,40,71,124
1,47,85,4
1,57,100,16
1,42,96,4
1,64,100,0
1,54,84,2
1,61,114,0
1,57,101,58
1,49,101,58
1,54,103,0
1,42,105,24
1,54,89,62
1,57,92,6
1,52,105,0
1,47,125,2
1,61,83,4
1,57,92,58
1,47,94,16
1,52,92,2
1,54,74,22
1,57,111,64
1,52,127,148
1,47,101,42
1,55,83,4
1,62,101,4
1,59,98,0
1,57,80,6
1,40,96,2
1,57,85,74
1,52,96,16
1,55,86,58
1,57,89,64
1,55,98,26
1,62,107,2
1,57,82,46
1,52,83,6
1,55,86,58
1,40,100,12
1,55,107,68
1,57,89,90
1,55,94,26
1,62,113,2
1,59,90,0
1,52,86,0
1,64,103,6
1,42,94,4
1,61,82,6
1,54,70,4
1,56,69,2
1,57,98,160
1,49,101,16
1,54,116,34
1,42,89,26
1,52,96,26
1,57,96,2
1,54,83,0
1,47,107,0
1,61,86,0
1,57,83,72
1,47,94,6
1,52,85,52
1,54,85,48
1,52,103,50
1,54,94,60
1,47,109,0
1,59,74,126
1,40,98,0
1,62,64,8
1,67,100,26
1,59,83,0
1,62,50,6
1,59,80,18
1,66,85,8
1,41,74,2
1,42,85,0
1,43,98,10
1,64,76,6
1,59,59,4
1,45,90,130
1,55,92,0
1,59,88,4
1,62,94,0
1,57,88,2
1,57,88,44
1,45,103,2
1,62,113,34
1,55,107,0
1,57,98,0
1,63,116,144
1,56,116,0
1,58,120,0
1,60,125,2
1,46,92,0
1,58,81,32
1,56,89,42
1,58,96,2
1,46,118,62
1,41,90,32
1,34,96,26
1,60,105,18
1,56,89,0
1,58,101,0
1,46,96,0
1,63,81,4
1,58,98,48
1,46,118,32
1,56,80,58
1,58,86,60
1,56,101,50
1,63,125,52
1,56,116,0
1,58,125,0
1,60,125,0
1,34,127,2
1,46,116,0
1,41,101,226
1,60,107,116
1,68,100,0
1,63,83,2
1,65,77,4
1,53,94,134
1,60,105,60
1,63,90,8
1,65,90,0
1,68,96,0
1,60,92,16
1,63,100,0
1,65,96,4
1,68,116,0
1,41,100,14
1,60,84,144
1,60,98,38
1,63,84,0
1,65,100,0
1,68,100,0
1,53,101,112
1,60,105,14
1,68,83,6
1,63,36,12
1,41,100,20
1,60,88,12
1,41,86,12
1,53,64,4
1,70,84,6
1,62,100,0
1,65,84,8
1,67,101,0
1,43,90,2
1,65,103,62
1,55,105,56
1,50,89,8
1,43,85,28
1,70,101,58
1,62,96,4
1,67,94,0
1,48,107,0
1,65,80,0
1,65,89,50
1,48,89,28
1,62,85,4
1,65,83,32
1,67,111,16
1,62,75,10
1,65,92,86
1,62,109,20
1,48,113,10
1,41,101,8
1,56,96,118
1,53,84,66
1,56,77,56
1,58,86,68
1,60,111,6
1,58,55,4
1,56,103,104
1,62,120,0
1,60,101,156
1,58,92,158
1,48,89,6
1,56,77,32
1,53,109,6
1,56,120,54
1,58,96,128
1,56,105,32
1,41,71,124
1,48,85,4
1,58,100,16
1,43,96,4
1,65,100,0
1,55,84,2
1,62,114,0
1,58,101,58
1,50,101,58
1,55,103,0
1,43,105,24
1,55,89,62
1,58,92,6
1,53,105,0
1,48,125,2
1,62,83,4
1,58,92,58
1,48,94,16
1,53,92,2
1,55,74,22
1,58,111,64
1,53,127,148
1,48,101,42
1,56,83,4
1,63,101,4
1,60,98,0
1,58,80,6
1,41,96,2
1,58,85,74
1,53,96,16
1,56,86,58
1,58,89,64
1,56,98,26
1,63,107,2
1,58,82,46
1,53,83,6
1,56,86,58
1,41,100,12
1,56,107,68
1,58,89,90
1,56,94,26
1,63,113,2
1,60,90,0
1,53,86,0
1,65,103,6
1,43,94,4
1,62,82,6
1,55,70,4
1,57,69,2
1,58,98,160
1,50,101,16
1,55,116,34
1,43,89,26
1,53,96,26
1,58,96,2
1,55,83,0
1,48,107,0
1,62,86,0
1,58,83,72
1,48,94,6
1,53,85,52
1,55,85,48
1,53,103,50
1,55,94,60
1,48,109,0
1,60,74,126
1,41,98,0
1,63,64,8
1,68,100,26
1,60,83,0
1,63,50,6
1,60,80,18
1,67,85,8
1,42,74,2
1,43,85,0
1,44,98,10
1,65,76,6
1,60,59,4
1,46,90,130
1,56,92,0
1,60,88,4
1,63,94,0
1,58,88,2
1,58,88,44
1,46,103,2
1,63,113,34
1,56,107,0
1,58,98,0
1,43,111,140
1,62,109,4
1,65,109,2
1,70,125,0
1,65,80,32
1,55,114,64
1,62,98,58
1,65,83,38
1,62,107,32
1,70,118,0
1,65,90,4
1,50,100,12
1,62,85,48
1,43,98,46
1,48,113,2
1,70,100,14
1,65,78,0
1,62,88,2
1,62,100,28
1,70,103,4
1,65,88,0
1,36,100,64
1,62,96,80
1,70,105,10
1,62,76,0
1,65,90,0
1,48,101,36
1,41,109,10
1,41,103,10
1,70,122,0
1,60,100,0
1,63,101,2
1,68,100,14
1,60,78,2
1,67,105,16
1,60,89,2
1,43,82,0
1,65,103,10
1,60,69,2
1,44,96,0
1,63,111,10
1,60,100,0
1,46,96,2
1,60,98,36
1,46,60,38
1,60,88,38
1,46,77,6
1,60,64,16
1,46,76,8
1,60,100,80
1,60,92,96
1,46,98,50
1,63,124,42
1,60,113,4
1,46,127,0
1,68,113,214
1,60,113,0
1,49,85,2
1,37,82,0
1,65,85,0
1,63,83,8
1,65,103,32
1,68,109,6
1,60,103,0
1,37,100,26
1,67,90,10
1,58,92,2
1,48,96,0
1,36,96,0
