track,note,velocity,time
0,45,90,0
0,35,114,0
0,60,100,0
0,65,100,0
0,69,99,1
0,65,78,45
0,69,78,0
0,60,78,0
0,42,117,1
0,40,110,0
0,69,93,0
0,65,93,0
0,60,93,0
0,60,77,46
0,65,82,0
0,69,80,2
0,45,76,1
0,35,97,0
0,65,80,30
0,69,84,0
0,60,67,0
0,45,49,3
0,35,62,0
0,69,73,2
0,65,69,0
0,60,69,0
0,45,83,3
0,35,96,0
0,69,89,4
0,65,84,0
0,60,82,0
0,42,115,1
0,40,110,0
0,65,88,70
0,69,88,0
0,60,82,1
0,57,75,3
0,45,95,1
0,35,118,0
0,60,76,0
0,65,74,0
0,60,63,0
0,57,63,1
0,57,61,0
0,60,65,1
0,65,82,1
0,69,82,0
0,65,77,0
0,60,72,0
0,60,77,1
0,57,73,0
0,60,66,2
0,65,68,0
0,69,70,0
0,57,60,2
0,42,115,1
0,40,109,0
0,60,60,0
0,65,60,0
0,65,60,1
0,60,66,0
0,57,66,1
0,57,56,1
0,60,60,0
0,65,61,1
0,65,62,1
0,45,97,1
0,35,108,0
0,60,62,0
0,65,86,0
0,69,88,0
0,57,62,0
0,60,77,2
0,57,75,1
0,60,75,0
0,65,75,1
0,65,64,1
0,45,60,1
0,35,80,0
0,65,71,0
0,69,75,0
0,60,64,0
0,60,75,0
0,57,63,0
0,35,100,1
0,45,66,0
0,65,77,0
0,69,80,0
0,60,75,0
0,57,47,0
0,60,63,0
0,65,60,1
0,65,71,1
0,60,71,0
0,57,71,1
0,65,84,4
0,42,119,1
0,40,111,0
0,69,93,0
0,60,80,0
0,60,61,0
0,65,61,0
0,65,63,0
0,60,61,1
0,57,66,1
0,57,65,2
0,60,61,0
0,65,68,1
0,65,65,1
0,60,60,0
0,57,66,1
0,53,82,20
0,45,105,1
0,69,86,0
0,65,78,0
0,60,78,0
0,57,74,0
0,35,118,0
0,60,77,0
0,65,83,0
0,65,62,1
0,60,58,0
0,57,54,1
0,53,86,1
0,57,65,1
0,60,61,0
0,65,65,1
0,65,73,1
0,60,73,0
0,69,84,1
0,65,84,0
0,57,73,0
0,60,84,2
0,57,66,0
0,42,113,1
0,40,111,0
0,60,65,0
0,65,70,0
0,69,70,0
0,65,66,0
0,60,70,2
0,65,43,1
0,60,66,0
0,57,51,1
0,57,66,1
0,60,63,0
0,65,65,1
0,60,67,0
0,45,97,1
0,35,108,0
0,57,63,0
0,65,79,2
0,69,79,0
0,60,86,2
0,57,76,0
0,60,81,1
0,65,81,1
0,45,61,1
0,35,74,0
0,65,66,0
0,65,76,0
0,60,59,0
0,69,77,1
0,60,77,0
0,57,64,0
0,65,72,0
0,45,87,1
0,35,108,0
0,69,76,0
0,57,56,0
0,60,65,0
0,60,69,1
0,65,59,0
0,65,68,1
0,60,68,0
0,57,68,1
0,65,80,1
0,60,86,0
0,69,88,0
0,40,112,1
0,57,58,0
0,42,114,1
0,60,58,0
0,60,89,0
0,65,68,1
0,60,66,0
0,57,65,1
0,62,81,1
0,57,63,1
0,60,66,0
0,65,68,1
0,65,84,3
0,65,65,1
0,60,67,0
0,57,60,1
0,65,80,18
0,69,88,0
0,60,82,1
0,53,86,0
0,45,97,1
0,35,114,0
0,57,79,0
0,60,81,0
0,65,84,1
0,65,72,1
0,60,66,0
0,57,65,1
0,57,63,2
0,60,62,0
0,65,59,1
0,65,88,1
0,69,88,0
0,60,88,0
0,65,72,0
0,60,71,0
0,57,69,1
0,65,72,0
0,69,76,0
0,42,116,1
0,40,107,0
0,60,74,0
0,57,57,0
0,60,54,0
0,65,48,1
0,65,70,1
0,60,65,0
0,57,68,1
0,57,65,1
0,60,64,0
0,65,65,1
0,69,82,20
0,65,75,0
0,60,82,1
0,65,67,0
0,45,90,1
0,35,121,0
0,60,60,0
0,57,58,0
0,57,78,2
0,60,73,0
0,65,84,1
0,69,77,18
0,65,77,0
0,60,78,2
0,45,57,1
0,35,75,0
0,65,66,0
0,60,64,0
0,57,54,1
0,69,70,1
0,65,70,0
0,60,72,2
0,45,82,1
0,35,95,0
0,57,66,0
0,60,65,0
0,65,69,1
0,65,61,1
0,60,61,0
0,57,61,1
0,60,80,2
0,65,88,1
0,69,96,0
0,42,125,2
0,40,110,0
0,57,71,0
0,60,68,0
0,65,78,1
0,60,76,1
0,65,47,1
0,60,54,0
0,57,59,1
0,62,80,3
0,57,62,2
0,60,67,0
0,65,66,1
0,65,84,1
0,65,60,1
0,60,61,0
0,57,60,0
0,67,85,4
0,69,93,0
0,60,88,0
0,65,86,0
0,45,105,1
0,35,121,0
0,57,73,0
0,60,74,1
0,65,81,1
0,65,62,1
0,60,63,0
0,57,64,1
0,65,87,0
0,57,55,1
0,60,66,0
0,65,66,1
0,69,79,20
0,65,82,0
0,60,79,0
0,65,79,1
0,60,74,0
0,57,75,1
0,60,70,0
0,65,68,1
0,69,73,1
0,42,127,1
0,40,104,0
0,57,67,0
0,60,66,1
0,65,56,1
0,65,66,0
0,60,67,0
0,57,66,1
0,57,60,1
0,60,61,0
0,65,54,1
0,65,78,18
0,69,84,1
0,60,77,1
0,45,82,1
0,35,97,0
0,65,66,0
0,60,65,0
0,57,61,1
0,57,77,2
0,60,79,1
0,65,81,1
0,69,78,19
0,60,75,0
0,65,73,0
0,45,55,1
0,65,66,0
0,60,65,0
0,57,67,1
0,60,69,0
0,65,65,2
0,69,73,0
0,45,95,1
0,35,103,0
0,57,61,0
0,60,61,0
0,65,61,1
0,65,70,1
0,60,70,0
0,57,70,1
0,65,82,2
0,69,88,0
0,60,93,1
0,42,117,1
0,40,112,0
0,57,66,0
0,60,63,0
0,65,68,1
0,65,67,1
0,57,71,1
0,60,64,0
0,57,64,1
0,58,71,1
0,57,70,1
0,60,69,0
0,65,72,1
0,65,65,1
0,60,74,1
0,60,58,0
0,57,65,0
0,69,88,19
0,65,88,0
0,60,79,1
0,45,97,1
0,35,124,0
0,57,77,0
0,53,88,1
0,60,78,0
0,65,79,1
0,65,60,1
0,60,61,0
0,57,65,1
0,57,67,1
0,60,61,0
0,65,67,1
0,65,82,1
0,69,84,0
0,65,80,0
0,60,83,0
0,60,76,1
0,57,76,0
0,42,119,1
0,40,113,0
0,60,72,0
0,65,75,0
0,69,72,0
0,57,48,0
0,60,58,1
0,65,61,1
0,65,69,1
0,60,70,0
0,57,68,1
0,57,65,1
0,60,68,0
0,65,66,1
0,65,89,20
0,69,90,0
0,60,89,2
0,60,65,0
0,57,61,1
0,35,124,1
0,45,87,0
0,57,72,0
0,60,74,0
0,65,80,1
0,65,74,1
0,69,76,0
0,60,73,0
0,65,66,0
0,60,68,0
0,57,66,1
0,69,75,0
0,65,70,0
0,35,127,1
0,60,69,0
0,57,66,0
0,60,65,0
0,65,67,1
0,65,79,1
0,60,79,0
0,57,78,1
0,40,111,2
0,65,82,0
0,69,89,0
0,60,79,0
0,57,63,0
0,42,118,0
0,60,60,0
0,65,51,0
0,65,70,1
0,40,104,1
0,36,104,0
0,60,76,0
0,60,68,0
0,57,65,0
0,38,106,18
0,67,106,0
0,45,97,0
0,57,68,0
0,62,79,0
0,60,68,0
0,65,75,1
0,41,101,2
0,60,66,0
0,45,79,1
0,57,67,0
0,65,75,0
0,29,103,0
0,65,80,1
0,60,84,0
0,69,75,0
0,35,114,1
0,67,66,0
0,57,74,0
0,54,43,0
0,42,68,1
0,60,80,0
0,69,116,0
0,65,81,0
0,65,64,1
0,60,58,0
0,54,46,0
0,57,61,1
0,68,81,19
0,65,81,0
0,69,100,0
0,35,110,1
0,60,72,0
0,65,72,0
0,57,63,0
0,54,63,0
0,42,86,0
0,60,65,0
0,65,66,0
0,69,74,1
0,65,89,0
0,60,76,0
0,65,74,0
0,69,117,0
0,60,74,0
0,54,44,0
0,57,74,1
0,29,105,3
0,60,66,0
0,69,76,0
0,57,56,0
0,54,44,0
0,42,123,1
0,40,109,0
0,65,77,0
0,60,65,0
0,65,64,0
0,69,108,0
0,65,72,0
0,60,72,0
0,54,42,0
0,57,67,1
0,68,90,1
0,65,76,1
0,69,94,1
0,60,71,0
0,57,63,1
0,42,70,1
0,60,60,0
0,54,64,0
0,65,61,0
0,61,75,8
0,65,82,0
0,69,79,0
0,65,66,1
0,69,112,0
0,35,107,0
0,29,103,0
0,60,68,0
0,54,47,0
0,65,60,0
0,57,66,0
0,61,88,1
0,35,106,1
0,42,69,0
0,29,104,0
0,65,83,0
0,69,83,0
0,57,75,0
0,61,84,0
0,54,34,0
0,65,76,1
0,61,68,11
0,65,82,0
0,69,68,0
0,65,53,0
0,61,65,0
0,54,44,0
0,57,65,1
0,69,71,0
0,65,78,0
0,61,63,0
0,35,104,1
0,57,60,0
0,54,65,0
0,42,63,0
0,61,66,0
0,65,68,0
0,33,104,4
0,65,77,0
0,61,68,0
0,68,67,0
0,69,77,0
0,65,81,1
0,54,35,0
0,61,80,0
0,57,74,1
0,38,101,1
0,61,66,0
0,69,78,0
0,65,86,0
0,40,110,2
0,57,56,0
0,42,122,0
0,54,43,0
0,33,101,3
0,67,108,0
0,57,70,1
0,61,70,1
0,54,32,0
0,65,74,1
0,69,106,0
0,36,100,0
0,65,72,0
0,42,72,1
0,68,68,0
0,61,70,0
0,35,94,0
0,69,84,0
0,65,64,0
0,54,64,0
0,61,68,0
0,57,67,1
0,36,102,4
0,57,66,1
0,40,104,1
0,61,66,0
0,54,45,0
0,65,66,0
0,62,64,4
0,65,80,0
0,69,79,0
0,62,84,0
0,69,116,0
0,41,103,0
0,35,98,1
0,65,77,0
0,54,64,0
0,42,65,0
0,62,79,0
0,57,74,0
0,57,62,1
0,62,70,0
0,54,31,0
0,65,65,1
0,65,88,20
0,68,102,0
0,69,102,0
0,62,70,1
0,42,69,1
0,65,64,0
0,54,81,0
0,35,111,0
0,62,66,0
0,57,64,0
0,62,79,1
0,69,75,0
0,65,76,0
0,69,108,0
0,57,75,0
0,62,81,0
0,54,49,0
0,65,81,1
0,40,103,2
0,69,66,0
0,65,64,0
0,62,70,0
0,65,71,1
0,42,122,1
0,40,110,0
0,65,57,0
0,54,66,0
0,62,67,0
0,57,61,1
0,39,100,2
0,67,103,0
0,65,63,0
0,57,70,0
0,62,79,0
0,54,41,0
0,62,78,1
0,69,84,0
0,65,77,0
0,42,70,1
0,54,80,0
0,65,70,0
0,62,78,1
0,57,66,0
0,33,100,4
0,65,67,0
0,63,73,0
0,60,77,0
0,57,72,0
0,57,69,0
0,69,103,0
0,35,108,0
0,62,68,0
0,54,45,0
0,65,76,0
0,69,79,1
0,63,72,0
0,66,80,0
0,38,100,3
0,54,59,1
0,42,70,1
0,35,101,0
0,63,81,0
0,60,80,0
0,57,77,1
0,63,66,12
0,60,72,0
0,57,71,0
0,60,60,0
0,63,56,1
0,54,41,0
0,74,114,0
0,63,61,6
0,33,101,0
0,57,58,1
0,63,64,0
0,60,68,0
0,42,67,1
0,35,101,0
0,63,65,0
0,54,75,0
0,60,73,0
0,57,65,1
0,72,78,1
0,57,75,0
0,69,78,1
0,75,78,0
0,60,80,0
0,54,60,0
0,66,78,1
0,63,79,0
0,57,73,2
0,63,86,0
0,60,80,0
0,31,101,1
0,54,54,0
0,72,108,0
0,40,111,0
0,63,51,0
0,42,123,0
0,57,61,0
0,57,66,1
0,60,71,0
0,54,48,0
0,63,67,1
0,33,103,3
0,66,75,1
0,69,71,0
0,42,66,1
0,63,66,0
0,35,99,1
0,60,74,0
0,54,69,0
0,57,70,0
0,57,72,0
0,40,102,1
0,60,70,0
0,54,43,0
0,63,66,0
0,31,103,3
0,74,74,0
0,67,79,0
0,70,81,0
0,67,88,0
0,62,96,0
0,58,77,0
0,42,69,1
0,35,98,0
0,62,77,0
0,54,33,0
0,58,78,0
0,55,79,1
0,55,57,1
0,58,58,0
0,54,45,0
0,62,68,1
0,70,112,0
0,42,67,1
0,35,104,0
0,62,73,0
0,54,68,0
0,58,66,0
0,55,68,1
0,67,82,1
0,62,88,0
0,58,70,0
0,55,84,0
0,58,84,0
0,54,40,0
0,62,85,0
0,34,107,10
0,67,93,1
0,70,100,0
0,74,83,1
0,70,117,0
0,40,107,0
0,62,80,0
0,58,48,0
0,54,38,0
0,42,115,0
0,58,65,0
0,67,77,0
0,55,62,0
0,36,104,1
0,55,68,0
0,58,66,1
0,54,43,0
0,67,99,0
0,62,72,0
0,54,72,0
0,42,68,1
0,62,69,0
0,58,66,0
0,55,65,1
0,62,90,14
0,58,70,0
0,66,77,0
0,37,101,1
0,70,70,0
0,74,81,0
0,55,74,1
0,35,102,1
0,58,68,0
0,54,44,0
0,70,115,0
0,62,78,0
0,66,65,1
0,38,104,2
0,35,97,1
0,70,69,0
0,62,79,0
0,54,48,0
0,42,65,0
0,58,74,0
0,54,68,0
0,70,72,1
0,66,65,0
0,62,84,0
0,66,74,0
0,58,66,0
0,54,54,0
0,58,67,0
0,54,33,0
0,62,66,1
0,72,112,0
0,35,103,0
0,54,68,0
0,42,68,0
0,62,80,0
0,66,69,0
0,62,74,0
0,58,70,0
0,54,64,1
0,70,74,15
0,74,78,0
0,66,75,0
0,54,80,1
0,58,74,0
0,54,45,0
0,62,93,1
0,38,108,1
0,54,46,1
0,42,111,1
0,40,111,0
0,58,71,0
0,62,101,0
0,66,76,0
0,62,75,0
0,58,71,0
0,66,100,1
0,70,94,0
0,54,60,0
0,74,83,1
0,58,70,0
0,54,41,0
0,62,78,1
0,74,108,0
0,41,101,0
0,62,71,1
0,54,67,0
0,42,77,1
0,58,68,0
0,54,63,0
0,42,102,6
0,54,67,1
0,35,102,1
0,58,68,0
0,54,43,0
0,62,67,0
0,43,103,0
0,74,73,0
0,65,102,0
0,65,80,0
0,58,77,0
0,62,96,0
0,72,105,0
0,35,98,0
0,70,86,0
0,62,81,0
0,54,41,0
0,42,69,0
0,58,76,0
0,53,93,0
0,53,69,1
0,58,67,1
0,54,39,0
0,74,66,10
0,70,66,1
0,70,106,0
0,35,106,0
0,65,66,0
0,62,61,0
0,54,78,0
0,42,67,0
0,58,66,0
0,53,70,0
0,43,104,1
0,58,72,0
0,62,88,0
0,65,77,0
0,53,74,0
0,58,82,0
0,54,50,0
0,62,77,1
0,65,81,1
0,73,111,0
0,40,106,1
0,62,86,0
0,58,67,0
0,65,75,0
0,62,62,0
0,54,45,0
0,42,123,1
0,53,60,0
0,74,80,5
0,53,66,0
0,41,101,1
0,58,65,0
0,54,27,0
0,62,66,1
0,77,81,3
0,40,101,1
0,42,69,1
0,58,61,0
0,54,77,0
0,53,65,1
0,73,81,0
0,39,104,4
0,58,69,0
0,62,89,0
0,65,88,0
0,53,68,0
0,40,107,1
0,58,70,0
0,54,44,0
0,62,79,0
0,38,104,4
0,42,69,1
0,74,70,0
0,35,97,0
0,62,82,0
0,54,35,0
0,58,80,0
0,53,79,1
0,77,71,9
0,74,75,1
0,58,66,0
0,62,89,0
0,65,78,0
0,53,68,0
0,58,60,0
0,54,44,0
0,62,65,1
0,70,68,0
0,65,71,2
0,38,104,1
0,62,76,0
0,42,67,1
0,35,106,0
0,65,77,0
0,62,72,0
0,54,77,0
0,58,71,0
0,53,70,1
0,53,74,1
0,58,70,0
0,54,40,0
0,62,86,1
0,34,102,1
0,70,94,0
0,40,112,2
0,58,78,0
0,62,93,0
0,65,88,0
0,53,57,0
0,54,57,0
0,42,119,0
0,33,100,2
0,62,67,1
0,35,97,1
0,58,68,0
0,54,44,0
0,72,114,0
0,53,68,0
0,78,72,19
0,66,79,0
0,74,88,0
0,70,77,0
0,42,64,1
0,40,100,0
0,31,100,0
0,53,75,0
0,58,68,0
0,54,78,0
0,62,81,1
0,66,53,5
0,30,108,1
0,58,56,0
0,40,103,1
0,53,66,0
0,54,45,0
0,70,114,0
0,67,78,0
0,58,74,0
0,62,96,0
0,42,73,2
0,35,101,0
0,70,84,0
0,55,74,0
0,54,59,0
0,67,76,0
0,74,94,0
0,58,86,0
0,31,104,1
0,79,105,0
0,62,75,0
