track,note,velocity,time
0,42,125,1087
0,35,55,0
0,66,70,32
0,62,70,0
0,66,63,6
0,66,109,6
0,62,112,0
0,59,109,0
0,57,118,0
0,35,122,0
0,42,93,0
0,35,115,0
0,78,71,51
0,44,65,0
0,44,75,35
0,68,70,3
0,64,70,0
0,68,63,3
0,68,97,3
0,64,112,0
0,61,102,0
0,59,118,0
0,80,71,0
0,37,127,0
0,46,99,0
0,35,123,0
0,61,70,3
0,69,70,0
0,62,70,0
0,66,63,3
0,69,63,0
0,69,107,6
0,66,102,0
0,62,108,0
0,61,97,0
0,57,97,0
0,81,71,0
0,38,127,0
0,35,127,0
0,44,127,0
0,42,56,163
0,44,53,51
0,42,94,51
0,44,127,51
0,42,57,179
0,44,65,51
0,35,96,35
0,42,117,0
0,59,70,3
0,47,104,12
0,35,127,0
0,44,127,0
0,42,52,179
0,44,81,3
0,42,109,51
0,69,112,51
0,62,113,0
0,59,111,0
0,57,113,0
0,81,75,0
0,40,116,0
0,46,119,0
0,68,116,99
0,62,109,0
0,59,108,0
0,56,107,0
0,80,70,0
0,66,112,99
0,62,107,0
0,59,109,0
0,54,108,0
0,78,75,0
0,42,85,35
0,61,70,3
0,57,70,0
0,68,70,0
0,68,63,3
0,64,63,0
0,68,112,6
0,61,112,0
0,57,114,0
0,56,112,0
0,80,71,0
0,33,127,0
0,35,127,0
0,44,127,0
0,64,101,163
0,52,100,0
0,76,67,0
0,42,65,35
0,61,107,51
0,57,107,0
0,49,101,0
0,73,52,0
0,42,75,0
0,44,125,3
0,42,56,179
0,44,62,38
0,42,121,51
0,45,106,51
0,35,127,0
0,44,121,0
0,42,53,51
0,44,125,51
0,42,65,51
0,44,58,45
0,61,67,3
0,35,117,0
0,35,90,0
0,42,117,0
0,66,70,3
0,62,70,0
0,66,112,12
0,62,118,0
0,59,114,0
0,57,124,0
0,78,77,0
0,35,117,0
0,35,127,0
0,46,115,0
0,64,70,3
0,68,70,0
0,68,112,2
0,64,121,0
0,61,116,0
0,59,114,0
0,80,72,0
0,37,125,0
0,35,127,0
0,46,127,0
0,61,70,3
0,69,70,0
0,62,70,0
0,69,63,3
0,66,63,0
0,69,105,3
0,66,105,0
0,62,109,0
0,61,97,0
0,57,108,0
0,81,72,0
0,38,127,0
0,35,127,0
0,44,127,0
0,42,60,35
0,44,127,51
0,42,85,51
0,44,53,51
0,42,83,51
0,44,125,51
0,44,67,3
0,69,111,51
0,66,107,0
0,62,101,0
0,59,112,0
0,57,111,0
0,81,74,0
0,42,75,0
0,44,49,3
0,59,70,3
0,69,109,3
0,66,118,0
0,62,111,0
0,59,114,0
0,57,111,0
0,81,72,0
0,47,124,0
0,35,127,0
0,44,127,0
0,44,83,99
0,42,64,51
0,68,111,3
0,62,118,0
0,59,111,0
0,56,127,0
0,80,67,0
0,44,65,0
0,42,127,35
0,66,106,3
0,62,108,0
0,59,113,0
0,54,108,0
0,78,67,0
0,44,71,0
0,40,125,35
0,42,127,0
0,44,65,3
0,66,98,3
0,62,112,0
0,59,109,0
0,54,105,0
0,80,67,0
0,40,126,0
0,35,107,0
0,42,77,0
0,68,83,3
0,56,105,0
0,44,127,0
0,42,102,51
0,44,67,3
0,61,70,3
0,57,70,0
0,68,70,0
0,68,63,3
0,64,63,0
0,64,100,3
0,61,88,0
0,57,92,0
0,56,85,0
0,76,65,0
0,33,121,0
0,35,127,0
0,44,127,0
0,42,59,35
0,44,127,51
0,44,71,179
0,44,127,51
0,42,101,51
0,44,80,51
0,42,94,51
0,44,73,51
0,35,72,51
0,42,127,0
0,33,114,3
0,35,127,0
0,44,127,0
0,66,70,55
0,62,70,0
0,66,63,6
0,66,111,6
0,62,124,0
0,59,116,0
0,57,118,0
0,78,74,0
0,35,125,0
0,35,127,0
0,49,101,0
0,44,117,99
0,46,110,51
0,68,70,55
0,64,70,0
0,68,63,3
0,68,113,6
0,64,114,0
0,61,112,0
0,59,116,0
0,80,67,0
0,37,126,0
0,35,127,0
0,42,104,99
0,44,82,51
0,69,70,23
0,61,70,0
0,62,70,0
0,66,63,3
0,69,63,0
0,69,107,6
0,66,102,0
0,62,108,0
0,61,97,0
0,57,97,0
0,81,70,0
0,38,117,0
0,35,127,0
0,44,127,0
0,44,47,163
0,42,57,51
0,44,114,51
0,42,127,51
0,44,54,179
0,42,62,51
0,44,127,43
0,59,70,3
0,35,114,12
0,35,127,0
0,42,127,0
0,44,53,179
0,42,54,51
0,44,127,51
0,68,70,3
0,69,112,12
0,62,113,0
0,59,111,0
0,57,113,0
0,81,72,0
0,40,124,0
0,42,127,0
0,44,76,35
0,68,116,51
0,62,109,0
0,59,108,0
0,56,107,0
0,80,64,0
0,35,125,0
0,42,94,0
0,44,61,35
0,66,112,51
0,62,107,0
0,59,109,0
0,54,108,0
0,78,70,0
0,42,61,0
0,44,63,35
0,57,70,3
0,61,70,0
0,68,63,3
0,64,63,0
0,68,112,6
0,61,112,0
0,57,114,0
0,56,112,0
0,80,62,0
0,33,123,0
0,35,127,0
0,44,127,0
0,64,101,163
0,52,100,0
0,76,54,0
0,42,56,0
0,44,53,35
0,61,107,51
0,57,107,0
0,49,101,0
0,73,43,0
0,42,94,0
0,44,127,3
0,42,57,3
0,44,65,51
0,40,127,51
0,35,96,0
0,42,117,0
0,45,122,43
0,64,82,0
0,61,68,0
0,68,66,0
0,35,127,0
0,44,127,0
0,40,127,23
0,33,115,3
0,42,52,0
0,44,81,51
0,42,109,3
0,61,98,51
0,57,113,0
0,56,108,0
0,73,65,0
0,46,120,0
0,33,127,41
0,64,112,3
0,61,109,0
0,57,103,0
0,76,74,0
0,33,121,99
0,61,72,0
0,64,84,0
0,68,69,0
0,42,85,0
0,69,70,3
0,62,70,0
0,66,70,0
0,66,63,3
0,69,63,0
0,66,111,6
0,62,113,0
0,59,112,0
0,57,111,0
0,78,69,0
0,31,125,0
0,35,127,0
0,44,127,0
0,74,82,99
0,66,54,64
0,44,47,0
0,42,57,51
0,76,64,0
0,69,78,0
0,44,114,0
0,62,29,35
0,42,127,0
0,57,109,20
0,69,64,0
0,66,63,0
0,57,45,27
0,44,54,0
0,59,76,3
0,71,72,0
0,31,123,0
0,42,62,0
0,31,120,23
0,59,59,0
0,44,127,0
0,64,70,3
0,64,63,3
0,64,112,3
0,62,111,0
0,59,111,0
0,57,111,0
0,71,66,0
0,28,126,0
0,35,127,0
0,42,127,0
0,73,52,163
0,44,53,0
0,42,54,0
0,64,85,51
0,44,127,0
0,57,40,3
0,42,127,0
0,44,76,41
0,59,108,3
0,69,71,0
0,28,118,0
0,59,69,0
0,35,125,0
0,42,94,0
0,57,45,35
0,44,61,0
0,61,83,3
0,71,61,0
0,42,61,0
0,44,63,35
0,69,70,3
0,59,70,0
0,64,70,0
0,64,86,3
0,61,91,0
0,57,107,0
0,56,86,0
0,69,51,0
0,33,114,0
0,35,127,0
0,44,127,0
0,42,96,35
0,44,53,51
0,42,62,51
0,44,53,51
0,46,110,51
0,61,27,27
0,42,41,0
0,44,58,51
0,59,69,44
0,64,56,0
0,42,127,0
0,44,57,7
0,42,51,51
0,35,76,51
0,44,127,0
0,33,123,9
0,59,100,0
0,64,89,0
0,57,86,0
0,35,127,0
0,44,127,0
0,45,114,227
0,42,92,0
0,35,106,0
0,44,119,11
0,66,70,7
0,62,70,0
0,66,63,6
0,66,109,6
0,62,112,0
0,59,111,0
0,57,111,0
0,78,74,0
0,35,127,0
0,46,120,0
0,40,127,0
0,68,70,3
0,64,70,0
0,68,63,3
0,68,111,3
0,64,107,0
0,61,108,0
0,59,112,0
0,80,79,0
0,37,115,0
0,46,127,0
0,40,127,0
0,61,70,3
0,69,70,0
0,62,70,0
0,66,63,3
0,69,63,0
0,69,107,3
0,66,102,0
0,62,108,0
0,61,97,0
0,57,97,0
0,81,71,0
0,38,127,0
0,35,127,0
0,57,115,0
0,42,53,35
0,44,38,51
0,42,39,51
0,44,53,51
0,42,107,51
0,40,127,51
0,44,123,0
0,42,43,51
0,44,55,51
0,38,127,39
0,42,99,0
0,44,39,51
0,47,127,35
0,69,83,0
0,66,77,0
0,62,76,0
0,40,61,0
0,35,64,0
0,42,104,0
0,59,70,3
0,35,127,12
0,44,127,0
0,42,48,51
0,71,76,3
0,62,73,0
0,40,75,0
0,44,58,0
0,49,121,5
0,35,127,28
0,42,34,51
0,44,53,0
0,40,127,51
0,74,82,0
0,68,74,0
0,64,72,0
0,42,119,0
0,69,112,51
0,62,113,0
0,59,111,0
0,57,113,0
0,81,75,0
0,40,127,0
0,44,127,0
0,68,116,67
0,62,109,0
0,59,108,0
0,56,107,0
0,80,70,0
0,28,123,0
0,35,127,0
0,42,99,0
0,30,125,5
0,46,90,0
0,66,112,30
0,62,107,0
0,59,109,0
0,54,108,0
0,78,75,0
0,33,123,0
0,35,119,15
0,61,70,3
0,57,70,0
0,68,70,0
0,68,63,3
0,64,63,0
0,68,112,6
0,61,112,0
0,57,114,0
0,56,112,0
0,80,71,0
0,33,121,0
0,68,73,0
0,73,73,0
0,64,71,0
0,35,127,0
0,44,127,0
0,42,53,35
0,44,38,51
0,64,101,51
0,52,100,0
0,76,67,0
0,42,39,0
0,44,53,35
0,61,107,26
0,57,107,0
0,49,101,0
0,73,52,0
0,42,107,0
0,40,127,3
0,44,123,0
0,42,43,51
0,44,55,50
0,33,117,51
0,61,77,0
0,68,79,0
0,64,85,0
0,42,99,0
0,44,39,24
0,33,123,1
0,35,60,0
0,42,104,0
0,56,63,27
0,35,127,0
0,44,127,0
0,42,48,51
0,56,74,21
0,64,85,0
0,61,73,0
0,40,75,0
0,35,60,0
0,44,58,0
0,35,127,51
0,42,34,38
0,44,53,0
0,61,67,3
0,33,119,0
0,42,119,0
0,66,70,3
0,62,70,0
0,66,112,12
0,62,118,0
0,59,114,0
0,57,124,0
0,78,77,0
0,35,126,0
0,40,127,0
0,44,127,0
0,40,98,4
0,42,99,0
0,64,70,3
0,68,70,0
0,68,112,12
0,64,121,0
0,61,116,0
0,59,114,0
0,80,72,0
0,37,116,0
0,35,127,0
0,46,90,0
0,40,73,15
0,35,60,0
0,61,70,3
0,69,70,0
0,62,70,0
0,69,63,3
0,66,63,0
0,69,105,3
0,66,105,0
0,62,109,0
0,61,97,0
0,57,108,0
0,81,72,0
0,38,125,0
0,35,127,0
0,44,127,0
0,42,50,35
0,44,127,51
0,42,75,51
0,44,43,51
0,42,73,51
0,66,81,20
0,74,82,0
0,69,82,0
0,40,127,0
0,44,115,0
0,38,127,3
0,44,57,0
0,69,111,51
0,66,107,0
0,62,101,0
0,59,112,0
0,57,111,0
0,81,74,0
0,37,118,0
0,42,65,0
0,44,39,35
0,59,70,3
0,69,109,3
0,66,118,0
0,62,111,0
0,59,114,0
0,57,111,0
0,81,72,0
0,35,124,0
0,35,127,0
0,44,127,0
0,44,73,99
0,35,115,44
0,66,83,0
0,62,81,0
0,71,87,0
0,40,71,0
0,42,54,0
0,68,111,3
0,62,118,0
0,59,111,0
0,56,127,0
0,80,67,0
0,42,116,0
0,44,55,0
0,35,127,0
0,42,123,35
0,66,106,3
0,62,108,0
0,59,113,0
0,54,108,0
0,78,67,0
0,40,117,0
0,44,61,0
0,40,127,35
0,42,127,0
0,44,55,3
0,66,98,3
0,62,112,0
0,59,109,0
0,54,105,0
0,80,67,0
0,28,125,0
0,35,120,0
0,42,67,0
0,68,83,3
0,56,105,0
0,62,64,0
0,66,44,0
0,44,127,0
0,42,92,10
0,62,67,3
0,66,78,0
0,44,57,0
0,61,70,3
0,57,70,0
0,68,70,0
0,68,63,3
0,64,63,0
0,64,100,3
0,61,88,0
0,57,92,0
0,56,85,0
0,76,65,0
0,33,122,0
0,35,127,0
0,44,127,0
0,42,49,35
0,40,72,51
0,44,127,0
0,68,76,51
0,73,76,0
0,33,118,40
0,44,61,0
0,76,89,47
0,40,127,0
0,44,127,0
0,42,91,51
0,28,121,36
0,68,49,0
0,73,64,0
0,40,43,0
0,44,70,0
0,30,119,31
0,64,41,0
0,42,84,0
0,33,126,34
0,44,63,0
0,35,118,26
0,61,49,0
0,35,62,0
0,42,127,0
0,33,114,6
0,35,127,0
0,44,127,0
0,66,70,55
0,62,70,0
0,66,63,6
0,66,111,6
0,62,124,0
0,59,116,0
0,57,118,0
0,78,74,0
0,35,122,0
0,35,123,0
0,49,91,0
0,44,107,99
0,47,124,49
0,46,112,0
0,40,127,3
0,68,70,30
0,64,70,0
0,68,63,3
0,68,113,6
0,64,114,0
0,61,112,0
0,59,116,0
0,80,67,0
0,37,118,0
0,57,99,0
0,35,123,0
0,40,50,99
0,42,94,0
0,40,76,7
0,44,72,0
0,69,70,23
0,61,70,0
0,62,70,0
0,66,63,3
0,69,63,0
0,69,107,6
0,66,102,0
0,62,108,0
0,61,97,0
0,57,97,0
0,81,70,0
0,38,127,0
0,35,127,0
0,49,111,0
0,44,127,0
0,42,53,35
0,44,38,51
0,66,76,51
0,69,76,0
0,74,76,0
0,42,39,0
0,44,53,41
0,42,107,51
0,47,121,18
0,40,127,0
0,44,123,0
0,42,43,51
0,44,55,51
0,35,126,51
0,66,76,0
0,69,76,0
0,74,76,0
0,42,99,0
0,44,39,27
0,40,68,51
0,35,60,0
0,42,104,0
0,59,70,3
0,35,125,12
0,35,127,0
0,44,127,0
0,42,48,51
0,40,46,51
0,44,58,0
0,35,127,8
0,66,76,0
0,71,76,0
0,74,76,0
0,35,127,0
0,42,34,34
0,44,53,0
0,42,119,51
0,68,70,3
0,69,112,12
0,62,113,0
0,59,111,0
0,57,113,0
0,81,72,0
0,40,121,0
0,40,127,0
0,44,127,0
0,68,116,45
0,62,109,0
0,59,108,0
0,56,107,0
0,80,64,0
0,40,121,0
0,40,73,0
0,35,127,0
0,42,99,0
0,66,76,35
0,71,76,0
0,74,76,0
0,46,90,0
0,66,112,41
0,62,107,0
0,59,109,0
0,54,108,0
0,78,70,0
0,40,120,0
0,35,120,0
0,57,70,3
0,61,70,0
0,68,63,3
0,64,63,0
0,68,112,6
0,61,112,0
0,57,114,0
0,56,112,0
0,80,62,0
0,33,127,0
0,35,127,0
0,44,127,0
0,40,51,99
0,64,101,51
0,52,100,0
0,76,54,0
0,68,76,0
0,73,76,0
0,64,76,0
0,42,46,0
0,44,43,35
0,61,107,51
0,57,107,0
0,49,101,0
0,73,43,0
0,42,84,0
0,40,127,3
0,44,127,0
0,28,127,115
0,30,125,36
0,68,76,0
0,73,76,0
0,64,76,0
0,42,47,0
0,44,55,41
0,35,86,3
0,42,107,0
0,33,127,51
0,35,127,0
0,44,127,0
0,33,118,17
0,40,77,0
0,61,54,2
0,35,127,0
0,42,42,0
0,44,71,4
0,64,97,3
0,42,99,0
0,61,98,51
0,57,113,0
0,56,108,0
0,73,65,0
0,35,122,0
0,40,127,0
0,46,91,0
0,40,75,18
0,35,60,0
0,64,112,3
0,61,109,0
0,57,103,0
0,76,74,0
0,40,125,0
0,57,64,0
0,35,127,0
0,55,61,20
0,35,60,0
0,42,75,0
0,69,70,2
0,62,70,0
0,66,70,0
0,66,63,3
0,69,63,0
0,66,111,6
0,62,113,0
0,59,112,0
0,57,111,0
0,78,69,0
0,31,119,0
0,54,94,0
0,35,127,0
0,44,127,0
0,42,53,35
0,44,38,51
0,42,39,51
0,44,53,51
0,76,64,30
0,31,116,0
0,42,107,0
0,40,127,35
0,44,123,0
0,40,52,3
0,42,43,0
0,57,109,47
0,69,64,0
0,57,48,0
0,40,87,0
0,44,55,0
0,31,118,8
0,59,59,0
0,42,99,0
0,59,76,3
0,71,72,0
0,30,118,0
0,44,39,0
0,29,117,18
0,64,84,0
0,35,75,0
0,42,104,0
0,64,70,3
0,64,63,3
0,64,112,3
0,62,111,0
0,59,111,0
0,57,111,0
0,71,66,0
0,28,120,0
0,35,127,0
0,44,127,0
0,42,48,16
0,44,58,51
0,73,52,9
0,28,125,0
0,62,56,0
0,35,127,0
0,42,34,35
0,44,53,0
