track,note,velocity,time
0,67,44,0
0,65,32,0
0,67,72,0
0,65,79,0
0,70,81,0
0,63,103,0
0,51,55,0
0,70,90,0
0,59,80,0
0,70,80,1
0,51,66,5
0,74,95,0
0,51,49,0
0,59,50,0
0,75,87,2
0,74,85,1
0,67,52,0
0,70,79,0
0,65,63,0
0,44,77,0
0,51,89,0
0,65,41,0
0,59,74,1
0,75,77,3
0,51,42,5
0,59,69,8
0,62,100,0
0,70,84,0
0,67,74,0
0,51,63,0
0,60,1,0
0,67,54,0
0,65,44,0
0,59,64,0
0,70,90,0
0,60,1,1
0,70,80,0
0,51,68,1
0,74,93,0
0,51,66,0
0,59,51,0
0,60,1,0
0,75,89,0
0,74,83,1
0,70,86,0
0,65,70,0
0,44,83,0
0,51,95,0
0,67,63,1
0,59,76,0
0,65,50,0
0,60,1,0
0,75,79,0
0,51,52,1
0,51,56,1
0,70,62,0
0,68,56,0
0,58,105,0
0,68,72,0
0,70,74,0
0,63,67,0
0,51,55,0
0,59,80,0
0,70,89,0
0,70,79,1
0,51,66,2
0,74,99,0
0,51,49,0
0,59,50,0
0,75,69,0
0,74,89,1
0,68,52,2
0,70,75,0
0,63,71,0
0,68,61,0
0,44,77,0
0,51,89,0
0,70,56,0
0,59,74,1
0,75,59,1
0,51,42,1
0,79,107,0
0,59,69,0
0,80,95,1
0,79,97,0
0,63,72,0
0,70,77,0
0,68,64,0
0,70,55,0
0,51,63,0
0,68,49,0
0,59,64,0
0,80,85,0
0,78,97,1
0,51,68,2
0,79,80,0
0,51,66,2
0,59,51,0
0,75,95,1
0,78,87,1
0,79,70,4
0,57,40,0
0,75,79,0
0,70,70,0
0,68,61,0
0,44,83,0
0,51,95,0
0,58,105,0
0,68,50,0
0,59,76,1
0,70,49,0
0,75,85,1
0,70,80,0
0,72,82,1
0,51,52,1
0,55,85,0
0,70,70,0
0,72,72,2
0,51,56,1
0,56,103,0
0,70,82,0
0,51,64,1
0,62,86,0
0,58,86,0
0,65,74,0
0,58,79,0
0,55,74,0
0,58,92,0
0,62,86,0
0,43,86,0
0,74,64,0
0,59,80,0
0,67,48,0
0,70,72,0
0,51,66,2
0,51,49,1
0,59,50,0
0,62,84,0
0,44,77,0
0,51,89,0
0,59,74,0
0,67,58,0
0,60,1,0
0,51,42,0
0,74,110,0
0,59,69,2
0,75,97,0
0,60,1,3
0,74,100,0
0,63,86,0
0,60,100,1
0,63,91,0
0,55,69,0
0,58,77,0
0,51,63,0
0,63,86,0
0,48,86,0
0,70,56,0
0,59,64,0
0,67,44,1
0,75,87,1
0,51,68,4
0,51,66,6
0,59,51,0
0,63,98,0
0,44,83,0
0,51,95,0
0,70,60,0
0,59,76,0
0,67,32,0
0,69,89,1
0,51,52,1
0,70,92,0
0,51,56,0
0,68,87,0
0,69,79,1
0,70,82,0
0,68,86,0
0,53,86,0
0,56,86,0
0,63,82,0
0,68,82,0
0,58,72,0
0,51,55,0
0,59,80,0
0,68,62,1
0,65,32,1
0,68,77,1
0,51,66,0
0,51,49,5
0,59,50,0
0,68,56,0
0,44,77,0
0,51,89,0
0,65,32,0
0,59,74,0
0,70,89,3
0,51,42,7
0,72,109,1
0,70,79,1
0,59,69,1
0,75,111,2
0,72,99,4
0,58,86,0
0,58,93,0
0,63,79,0
0,68,80,0
0,58,73,0
0,51,63,0
0,68,64,0
0,59,64,0
0,80,123,3
0,75,101,2
0,80,113,1
0,78,99,1
0,79,89,1
0,51,68,0
0,51,66,2
0,59,51,0
0,78,89,2
0,79,79,3
0,75,90,1
0,60,86,0
0,63,79,0
0,67,73,0
0,60,74,0
0,46,90,0
0,44,83,0
0,51,95,0
0,72,54,0
0,59,76,0
0,75,80,0
0,42,45,2
0,71,80,0
0,72,85,0
0,59,78,0
0,42,15,0
0,60,98,0
0,71,70,1
0,72,75,0
0,51,56,1
0,42,65,0
0,55,94,0
0,70,70,1
0,58,86,0
0,55,86,0
0,46,65,0
0,70,77,0
0,65,70,0
0,44,71,0
0,58,86,0
0,39,98,0
0,58,102,0
0,67,69,3
0,70,60,2
0,51,76,0
0,51,97,1
0,51,117,1
0,44,64,1
0,51,21,0
0,51,47,2
0,55,78,2
0,65,76,0
0,51,82,0
0,56,85,0
0,51,53,4
0,58,92,0
0,31,98,0
0,70,81,0
0,62,75,0
0,65,93,2
0,63,93,0
0,44,75,1
0,46,41,0
0,36,99,0
0,63,86,0
0,67,71,0
0,70,75,0
0,46,64,1
0,67,102,2
0,51,60,2
0,51,107,0
0,68,97,2
0,29,99,0
0,63,74,0
0,68,69,0
0,60,62,0
0,44,69,2
0,63,70,0
0,65,65,0
0,68,65,0
0,60,61,0
0,65,81,4
0,67,98,3
0,67,76,3
0,29,103,1
0,63,61,0
0,68,61,0
0,65,61,0
0,60,61,0
0,68,87,1
0,67,88,4
0,67,95,7
0,63,95,2
0,44,67,0
0,63,61,0
0,65,61,0
0,68,61,0
0,60,61,0
0,65,87,3
0,60,78,23
0,65,87,8
0,56,64,0
0,38,99,1
0,60,77,0
0,65,80,0
0,55,77,0
0,60,80,1
0,62,60,1
0,44,64,2
0,65,76,0
0,60,77,0
0,70,98,0
0,68,95,9
0,67,95,2
0,31,100,1
0,62,80,0
0,65,79,0
0,60,77,0
0,55,71,2
0,60,81,1
0,62,68,1
0,65,82,1
0,65,95,6
0,44,65,2
0,59,73,0
0,62,64,0
0,55,70,0
0,62,77,1
0,59,82,1
0,55,70,1
0,63,97,3
0,66,78,10
0,67,88,3
0,36,101,0
0,63,79,0
0,58,75,0
0,55,68,0
0,58,80,1
0,55,60,1
0,44,68,21
0,58,117,0
0,58,79,5
0,55,77,0
0,63,112,1
0,34,110,1
0,63,91,0
0,56,103,0
0,62,91,0
0,32,115,0
0,63,82,0
0,55,69,0
0,60,76,0
0,55,59,0
0,58,82,0
0,60,82,1
0,62,83,4
0,63,95,4
0,44,60,5
0,67,103,0
0,65,97,6
0,63,111,2
0,68,97,5
0,60,72,0
0,70,102,4
0,56,59,0
0,62,90,1
0,34,102,0
0,58,84,0
0,68,82,0
0,72,77,0
0,44,73,72
0,46,112,0
0,37,113,0
0,82,99,1
0,60,95,5
0,46,42,0
0,70,95,0
0,77,80,0
0,79,89,2
0,55,87,2
0,75,80,0
0,58,86,0
0,53,86,0
0,46,63,0
0,42,54,0
0,35,61,0
0,58,98,0
0,70,91,0
0,79,87,0
0,79,84,0
0,70,84,0
0,55,86,0
0,51,86,0
0,39,103,0
0,51,95,23
0,42,42,0
0,51,95,0
0,51,111,0
0,65,73,1
0,70,84,0
0,67,70,0
0,51,99,0
0,42,82,0
0,37,110,0
0,69,54,23
0,55,84,3
0,42,40,0
0,69,44,0
0,58,91,1
0,67,88,0
0,30,111,0
0,56,82,0
0,35,35,0
0,69,55,0
0,58,80,3
0,55,77,0
0,65,72,0
0,62,65,0
0,31,103,0
0,58,82,0
0,42,68,0
0,35,84,0
0,50,86,0
0,46,66,4
0,65,104,1
0,42,44,17
0,69,27,0
0,48,60,0
0,69,51,0
0,51,111,0
0,63,92,1
0,55,86,0
0,63,87,1
0,58,74,0
0,55,65,0
0,36,114,0
0,42,65,0
0,37,110,0
0,51,86,0
0,67,97,4
0,42,48,22
0,69,43,0
0,69,51,1
0,68,97,2
0,63,86,0
0,56,86,0
0,46,58,1
0,63,79,0
0,68,77,0
0,60,65,0
0,29,110,0
0,42,54,0
0,35,61,0
0,60,86,0
0,58,86,0
0,51,67,19
0,42,42,19
0,51,87,0
0,51,117,19
0,68,77,2
0,63,76,0
0,60,76,0
0,42,82,0
0,37,110,0
0,69,54,12
0,65,88,16
0,42,40,2
0,69,44,0
0,29,108,2
0,51,78,0
0,67,100,0
0,35,35,0
0,69,55,0
0,63,65,2
0,68,67,0
0,60,59,0
0,29,115,0
0,42,68,0
0,35,84,0
0,67,68,3
0,68,98,3
0,42,44,5
0,69,27,0
0,67,98,0
0,46,82,4
0,69,51,0
0,67,93,3
0,63,77,2
0,68,82,0
0,60,67,0
0,51,90,0
0,42,65,0
0,37,110,0
0,53,71,4
0,65,88,1
0,42,48,16
0,69,43,0
0,51,99,0
0,69,51,4
0,65,92,0
0,65,86,0
0,60,86,0
0,38,110,1
0,60,86,0
0,50,86,0
0,65,74,0
0,62,75,0
0,60,86,0
0,60,89,0
0,65,85,0
0,62,87,0
0,42,54,0
0,35,61,0
0,42,42,47
0,62,72,2
0,65,69,0
0,60,71,0
0,60,86,0
0,62,70,0
0,65,71,0
0,42,82,0
0,37,110,0
0,70,116,4
0,69,54,19
0,68,113,3
0,42,40,0
0,69,44,0
0,35,5,1
0,69,55,0
0,67,97,2
0,31,107,2
0,65,71,0
0,62,71,0
0,60,70,0
0,60,86,0
0,65,87,0
0,62,70,0
0,42,68,0
0,35,84,0
0,42,44,2
0,69,27,0
0,65,85,2
0,69,51,2
0,65,99,5
0,62,86,1
0,59,86,0
0,62,77,1
0,59,86,0
0,65,74,0
0,65,86,0
0,59,86,0
0,62,78,0
0,42,65,0
0,37,110,0
0,59,86,0
0,63,88,1
0,42,48,20
0,69,43,0
0,38,112,3
0,66,78,0
0,69,51,0
0,67,98,0
0,63,86,1
0,58,86,0
0,63,80,1
0,58,72,0
0,55,57,0
0,63,109,0
0,58,74,0
0,36,117,0
0,42,54,0
0,35,75,0
0,63,86,0
0,48,86,0
0,42,42,47
0,42,82,8
0,37,110,0
0,69,54,3
0,63,119,1
0,79,66,0
0,67,80,0
0,75,95,0
0,42,40,0
0,69,44,0
0,62,88,1
0,77,65,0
0,65,88,0
0,74,88,0
0,69,55,0
0,56,63,2
0,32,121,0
0,75,66,0
0,63,88,0
0,72,79,0
0,42,68,0
0,35,84,0
0,60,88,1
0,77,65,0
0,42,44,0
0,69,27,0
0,62,80,1
0,79,66,5
0,69,51,0
0,63,102,3
0,63,87,1
0,67,77,0
0,60,70,0
0,42,65,0
0,37,110,0
0,56,51,3
0,80,69,0
0,65,104,1
0,42,48,14
0,69,43,0
0,58,76,0
0,32,105,3
0,77,68,0
0,35,43,0
0,69,51,0
0,58,87,0
0,62,72,3
0,68,84,1
0,72,69,0
0,63,75,0
0,34,117,0
0,42,54,0
0,35,84,0
0,42,42,47
0,42,82,47
0,37,110,0
0,72,79,0
0,42,40,0
0,34,118,3
0,75,93,0
0,58,90,0
0,65,55,0
0,60,71,0
0,42,68,0
0,35,84,0
0,34,112,0
0,82,94,0
0,68,61,0
0,72,75,0
0,63,61,0
0,42,44,4
0,41,100,1
0,60,82,1
0,63,72,0
0,42,65,0
0,38,95,0
0,37,110,0
0,46,107,0
0,63,94,0
0,46,56,0
0,34,111,0
0,68,95,0
0,72,95,2
0,51,86,0
0,58,86,0
0,51,86,1
0,55,86,0
0,42,54,0
0,35,75,0
0,65,70,0
0,70,80,0
0,67,63,0
0,39,103,0
0,62,78,43
0,62,40,3
0,42,42,1
0,63,98,0
0,63,62,1
0,63,100,4
0,63,70,1
0,46,58,2
0,67,80,0
0,70,82,0
0,65,76,0
0,42,82,0
0,37,110,0
0,51,62,5
0,69,54,0
0,58,88,1
0,58,64,1
0,51,97,9
0,42,40,0
0,69,44,0
0,51,126,7
0,69,55,0
0,50,86,0
0,38,96,1
0,70,80,0
0,65,73,0
0,62,69,0
0,42,68,0
0,35,84,0
0,50,86,0
0,53,86,0
0,62,40,3
0,42,44,0
0,69,27,0
0,62,72,0
0,63,81,1
0,63,90,1
0,69,51,3
0,63,91,1
0,63,106,2
0,75,79,2
0,70,77,0
0,62,66,0
0,65,68,0
0,42,65,0
0,37,110,0
0,46,55,0
0,58,66,2
0,58,94,1
0,42,48,4
0,69,43,0
0,50,64,0
0,35,43,9
0,69,51,0
0,50,95,0
0,60,84,0
0,60,86,0
0,56,86,0
0,36,98,1
0,63,68,0
0,42,54,0
0,35,75,0
0,48,86,0
0,58,86,0
0,59,40,0
0,67,68,1
0,68,68,2
0,60,72,2
0,70,68,0
0,72,68,2
0,56,87,2
0,42,42,0
0,56,67,4
0,60,97,1
0,60,74,6
0,63,90,0
0,75,79,0
0,70,70,0
0,68,69,0
0,67,63,0
0,42,82,0
0,37,110,0
0,68,92,0
0,70,105,1
0,63,93,2
0,63,85,0
0,69,54,0
0,42,40,23
0,69,44,0
0,68,103,0
0,67,50,1
0,36,106,2
0,35,45,0
0,69,55,0
0,68,85,0
0,75,79,2
0,70,74,0
0,68,70,0
0,67,61,0
0,68,65,0
0,36,95,0
0,42,68,0
0,35,84,0
0,63,65,0
0,70,65,1
0,66,78,2
0,66,50,3
0,67,80,2
0,67,97,0
0,42,44,17
0,69,27,0
0,63,105,2
0,69,51,0
0,63,81,2
0,62,86,0
0,53,86,0
0,44,86,1
0,58,86,0
0,70,76,0
0,65,70,0
0,62,69,0
0,32,111,0
0,62,90,0
0,58,90,0
0,65,90,0
0,42,65,0
0,37,110,0
0,35,84,0
0,60,97,2
0,59,50,1
0,60,81,1
0,42,48,16
0,69,43,0
0,46,30,1
0,69,51,0
0,58,102,0
0,58,75,2
0,53,86,0
0,62,86,0
0,65,67,1
0,62,74,0
0,58,80,0
0,31,100,0
0,55,68,0
0,62,86,0
0,58,57,0
0,42,54,0
0,35,75,0
0,43,86,0
0,58,86,0
0,42,42,18
0,58,82,0
0,42,82,24
0,37,110,0
0,69,54,4
0,82,70,12
0,42,40,0
0,69,44,0
0,65,99,0
0,65,68,3
0,31,111,0
0,79,70,0
0,35,49,0
0,69,55,0
0,63,102,0
0,62,50,1
0,63,66,0
0,55,86,1
0,63,86,0
0,60,80,0
0,55,58,0
0,63,95,0
0,63,81,0
0,58,74,0
0,55,65,0
0,36,108,0
0,42,68,0
0,35,84,0
0,58,86,0
0,48,86,0
0,42,44,5
0,69,27,0
0,69,51,23
0,42,65,3
0,37,110,0
0,70,110,6
0,70,88,0
0,42,48,14
0,69,43,0
0,67,110,0
0,67,82,0
0,36,112,3
0,35,25,0
0,69,51,0
0,63,110,0
0,63,77,0
0,63,86,1
0,55,86,0
0,79,65,1
0,62,50,0
0,32,114,0
0,42,54,0
0,35,75,0
0,60,80,0
0,56,64,0
0,63,76,0
0,67,69,0
0,58,72,0
0,44,86,0
0,53,86,0
0,63,99,0
0,63,75,0
0,80,68,5
0,42,25,0
0,65,97,1
0,65,89,0
0,63,74,0
0,67,65,0
0,58,72,0
0,82,69,0
0,67,102,3
0,67,81,2
0,42,82,15
0,37,110,0
0,67,50,13
0,68,76,0
0,58,74,0
0,65,74,0
0,84,67,0
0,69,54,0
0,68,81,0
0,67,77,1
0,68,116,1
0,42,40,14
0,69,44,0
0,65,77,1
0,32,114,0
0,63,80,0
0,68,77,0
0,60,67,0
0,80,73,0
0,35,49,0
0,69,55,0
0,65,102,1
0,63,86,2
0,56,86,0
0,56,85,1
0,58,107,0
0,63,111,0
0,34,112,0
0,42,68,0
0,35,84,0
0,58,86,0
0,46,86,0
0,42,49,23
0,42,44,15
0,41,110,0
0,42,65,5
0,47,92,0
0,46,110,0
0,82,91,2
0,74,72,0
0,67,79,0
0,43,92,1
0,41,111,0
0,80,97,0
0,72,70,0
0,65,79,0
0,53,86,0
0,63,86,0
0,46,68,1
0,63,86,0
0,55,86,0
0,49,69,0
0,35,80,0
0,70,84,0
0,79,79,0
0,63,79,0
0,39,114,0
0,62,50,44
0,63,72,2
0,51,101,1
0,42,42,0
0,69,42,0
0,62,66,2
0,63,88,0
0,51,127,5
0,69,54,0
0,63,90,1
0,63,105,2
0,70,87,0
0,67,70,0
0,65,64,0
0,42,82,0
0,37,110,0
0,51,55,17
0,58,63,1
0,58,91,0
0,42,40,19
0,69,51,0
0,51,99,0
0,74,86,7
0,35,49,0
0,69,47,0
0,51,119,0
0,38,111,0
0,75,88,0
0,70,84,0
0,67,71,0
0,42,68,0
0,35,84,0
0,62,50,0
0,42,44,1
0,62,83,0
0,63,79,0
0,63,80,3
0,65,81,2
0,65,109,4
0,70,84,5
0,67,79,0
0,63,74,0
0,42,65,0
