track,note,velocity,time
1,26,93,12204
1,30,93,24
1,26,93,32
1,30,93,2
1,31,93,36
1,32,93,192
1,33,93,60
1,33,93,196
1,31,93,102
1,28,93,18
1,31,93,12
1,33,93,22
1,36,93,42
1,36,93,142
1,36,93,122
1,33,93,34
1,36,93,0
1,36,93,114
1,31,93,192
1,36,93,14
1,38,93,28
1,38,93,184
1,33,72,74
1,33,106,32
1,36,72,46
1,36,106,32
1,35,93,46
1,33,93,58
1,30,93,30
1,30,93,142
1,30,93,144
1,26,93,32
1,30,93,80
1,42,108,58
1,30,93,18
1,31,93,44
1,31,93,106
1,33,93,60
1,33,93,196
1,31,93,102
1,28,93,18
1,31,93,12
1,33,93,22
1,36,93,42
1,36,93,142
1,36,93,122
1,33,93,34
1,36,93,0
1,36,93,114
1,31,93,192
1,36,93,14
1,38,93,28
1,38,93,184
1,33,72,74
1,33,106,32
1,36,72,46
1,36,106,32
1,35,93,46
1,33,93,58
1,30,93,30
1,30,93,142
1,30,93,144
1,26,93,32
1,30,93,80
1,42,108,58
1,30,93,18
1,31,93,44
1,31,93,106
1,33,93,60
1,33,93,190
1,28,93,24
1,33,93,2
1,33,93,112
1,28,93,192
1,33,93,20
1,33,93,136
1,33,93,128
1,28,93,8
1,33,93,16
1,33,93,120
1,28,93,192
1,33,93,14
1,33,93,114
1,33,93,168
1,28,93,26
1,33,93,18
1,33,93,122
1,28,93,192
1,33,93,8
1,33,93,152
1,33,93,122
1,28,93,20
1,33,93,16
1,33,93,114
1,28,93,4
1,33,93,12
1,33,93,98
1,33,93,190
1,28,93,24
1,33,93,2
1,33,93,112
1,28,93,192
1,33,93,20
1,33,93,136
1,33,93,128
1,28,93,8
1,33,93,16
1,33,93,120
1,28,93,192
1,33,93,14
1,33,93,114
1,33,93,168
1,28,93,26
1,33,93,18
1,33,93,122
1,28,93,192
1,33,93,8
1,33,93,152
1,33,93,122
1,33,93,102
1,33,93,80
1,36,93,80
1,30,93,4
1,31,93,10
1,32,93,20
1,33,93,44
1,38,93,60
1,38,93,206
1,33,93,112
1,36,93,24
1,35,93,192
1,33,93,182
1,28,93,28
1,28,93,176
1,28,93,114
1,28,93,122
1,28,93,40
1,28,93,128
1,31,93,0
1,33,93,4
1,38,93,14
1,38,93,206
1,33,93,112
1,36,93,24
1,35,93,192
1,33,93,182
1,28,93,28
1,28,93,176
1,28,93,114
1,28,93,122
1,28,93,40
1,28,93,128
1,31,93,0
1,33,93,4
1,38,93,14
1,38,93,206
1,33,93,112
1,36,93,24
1,35,93,192
1,33,93,182
1,28,93,28
1,28,93,176
1,28,93,114
1,28,93,122
1,28,93,40
1,28,93,128
1,31,93,0
1,33,93,4
1,29,93,14
1,29,93,196
1,29,93,182
1,29,93,60
1,31,93,168
1,31,93,174
1,31,93,104
1,32,93,184
1,32,93,214
1,33,93,216
1,33,93,196
1,31,93,102
1,28,93,18
1,31,93,12
1,33,93,22
1,36,93,42
1,36,93,142
1,36,93,122
1,33,93,34
1,36,93,0
1,36,93,114
1,31,93,192
1,36,93,14
1,38,93,28
1,38,93,184
1,33,72,74
1,33,106,32
1,36,72,46
1,36,106,32
1,35,93,46
1,33,93,58
1,30,93,30
1,30,93,142
1,30,93,144
1,26,93,32
1,30,93,80
1,42,108,58
1,30,93,18
1,31,93,44
1,31,93,106
1,33,93,60
1,33,93,196
1,31,93,102
1,28,93,18
1,31,93,12
1,33,93,22
1,36,93,42
1,36,93,142
1,36,93,122
1,33,93,34
1,36,93,0
1,36,93,114
1,31,93,192
1,36,93,14
1,38,93,28
1,38,93,184
1,33,72,74
1,33,106,32
1,36,72,46
1,36,106,32
1,35,93,46
1,33,93,58
1,30,93,30
1,30,93,142
1,30,93,144
1,26,93,32
1,30,93,80
1,42,108,58
1,30,93,18
1,31,93,44
1,31,93,106
1,33,93,60
1,33,93,198
1,28,93,32
1,33,93,96
1,33,93,132
1,28,93,12
1,36,93,22
1,36,93,190
1,36,93,136
1,31,93,10
1,38,93,36
1,38,93,174
1,33,93,158
1,33,93,198
1,28,93,48
1,33,93,80
1,33,93,132
1,28,93,12
1,36,93,22
1,36,93,190
1,36,92,114
1,38,115,116
1,38,93,22
1,38,127,48
1,30,93,96
1,42,127,18
1,31,94,32
1,43,125,32
1,32,94,18
1,44,127,22
1,33,93,30
1,33,93,190
1,28,93,24
1,33,93,2
1,33,93,112
1,28,93,192
1,33,93,20
1,33,93,136
1,33,93,128
1,28,93,8
1,33,93,16
1,33,93,120
1,28,93,192
1,33,93,14
1,33,93,114
1,33,93,168
1,28,93,26
1,33,93,18
1,33,93,122
1,28,93,192
1,33,93,8
1,33,93,152
1,33,93,122
1,28,93,20
1,33,93,16
1,33,93,114
1,28,93,4
1,33,93,12
1,33,93,98
1,33,93,190
1,28,93,24
1,33,93,2
1,33,93,112
1,28,93,192
1,33,93,20
1,33,93,136
1,33,93,128
1,28,93,8
1,33,93,16
1,33,93,120
1,28,93,192
1,33,93,14
1,33,93,114
1,33,93,168
1,28,93,26
1,33,93,18
1,33,93,122
1,28,93,192
1,33,93,8
1,33,93,152
1,33,93,122
1,33,93,102
1,33,93,80
1,36,93,80
1,30,93,4
1,31,93,10
1,32,93,20
1,33,93,44
1,38,93,60
1,38,93,206
1,33,93,112
1,36,93,24
1,35,93,192
1,33,93,182
1,28,93,28
1,28,93,176
1,28,93,114
1,28,93,122
1,28,93,40
1,28,93,128
1,31,93,0
1,33,93,4
1,38,93,14
1,38,93,206
1,33,93,112
1,36,93,24
1,35,93,192
1,33,93,182
1,28,93,28
1,28,93,176
1,28,93,114
1,28,93,122
1,28,93,40
1,28,93,128
1,31,93,0
1,33,93,4
1,38,93,14
1,38,93,206
1,33,93,112
1,36,93,24
1,35,93,192
1,33,93,182
1,28,93,28
1,28,93,176
1,28,93,114
1,28,93,122
1,28,93,40
1,28,93,128
1,31,93,0
1,33,93,4
1,29,93,14
1,29,93,196
1,29,93,182
1,29,93,60
1,31,93,168
1,31,93,174
1,31,93,104
1,32,93,184
1,32,93,214
1,33,93,216
1,33,93,196
1,31,93,102
1,28,93,18
1,31,93,12
1,33,93,22
1,36,93,42
1,36,93,142
1,36,93,122
1,33,93,34
1,36,93,0
1,36,93,114
1,31,93,192
1,36,93,14
1,38,93,28
1,38,93,184
1,33,72,74
1,33,106,32
1,36,72,46
1,36,106,32
1,35,93,46
1,33,93,58
1,30,93,30
1,30,93,142
1,30,93,144
1,26,93,32
1,30,93,80
1,42,108,58
1,30,93,18
1,31,93,44
1,31,93,106
1,33,93,60
1,33,93,196
1,31,93,102
1,28,93,18
1,31,93,12
1,33,93,22
1,36,93,42
1,36,93,142
1,36,93,122
1,33,93,34
1,36,93,0
1,36,93,114
1,31,93,192
1,36,93,14
1,38,93,28
1,38,93,184
1,33,72,74
1,33,106,32
1,36,72,46
1,36,106,32
1,35,93,46
1,33,93,58
1,30,93,30
1,30,93,142
1,30,93,144
1,26,93,32
1,30,93,80
1,42,108,58
1,30,93,18
1,31,93,44
1,31,93,106
1,33,93,60
1,33,93,196
1,31,93,102
1,28,93,18
1,31,93,12
1,33,93,22
1,36,93,42
1,36,93,142
1,36,93,122
1,33,93,34
1,36,93,0
1,36,93,114
1,31,93,192
1,36,93,14
1,38,93,28
1,38,93,184
1,33,72,74
1,33,106,32
1,36,72,46
1,36,106,32
1,35,93,46
1,33,93,58
1,30,93,30
1,30,93,142
1,30,93,144
1,26,93,32
1,30,93,80
1,42,108,58
1,30,93,18
1,31,93,44
1,31,93,106
1,43,108,5932
1,31,108,32
1,43,108,40
1,33,93,56
1,33,93,196
1,31,93,102
1,28,93,18
1,31,93,12
1,33,93,22
1,36,93,42
1,36,93,252
1,36,93,122
1,33,93,34
1,36,93,0
1,36,93,114
1,31,93,192
1,36,93,14
1,38,93,28
1,38,93,184
1,33,72,74
1,33,106,32
1,36,72,46
1,36,106,32
1,35,93,46
1,33,93,58
1,30,93,30
1,30,93,142
1,30,93,144
1,26,93,32
1,30,93,80
1,42,108,58
1,30,93,18
1,31,93,44
1,31,93,106
1,33,93,60
1,33,93,196
1,31,93,102
1,28,93,18
1,31,93,12
1,33,93,22
1,36,93,42
1,36,93,142
1,36,93,122
1,33,93,34
1,36,93,0
1,36,93,114
1,31,93,192
1,36,93,14
1,38,93,28
1,38,93,184
1,33,72,74
1,33,106,32
1,36,72,46
1,36,106,32
1,35,93,46
1,33,93,58
1,30,93,30
1,30,93,142
1,30,93,144
1,26,93,32
1,30,93,80
1,42,108,58
2,33,82,212
2,45,92,0
2,55,94,0
2,59,99,0
2,60,94,0
2,64,82,0
2,33,88,160
2,45,92,0
2,55,99,0
2,59,102,0
2,60,99,0
2,64,88,0
2,45,88,86
2,55,94,0
2,59,97,0
2,60,94,0
2,64,81,0
2,33,78,0
2,45,105,192
2,55,94,0
2,59,94,0
2,60,94,0
2,64,82,0
2,33,94,40
2,36,81,102
2,48,97,0
2,55,97,0
2,60,102,0
2,64,88,0
2,36,76,96
2,48,97,0
2,55,88,0
2,60,99,0
2,64,84,0
2,36,90,118
2,48,97,0
2,55,97,0
2,60,99,0
2,64,86,0
2,48,94,112
2,55,88,0
2,60,97,0
2,64,79,0
2,36,97,0
2,48,105,184
2,55,94,0
2,60,97,0
2,64,90,0
2,36,97,2
2,48,102,172
2,55,97,0
2,60,90,0
2,64,90,0
2,38,92,110
2,50,94,0
2,57,86,0
2,62,82,0
2,66,97,0
2,38,92,184
2,50,105,0
2,57,94,0
2,62,94,0
2,66,97,0
2,50,94,110
2,57,92,0
2,62,82,0
2,66,92,0
2,38,70,0
2,50,108,184
2,57,94,0
2,62,88,0
2,66,97,0
2,38,94,62
2,42,88,124
2,54,108,0
2,57,94,0
2,62,92,0
2,66,97,0
2,42,88,80
2,54,102,0
2,57,92,0
2,62,86,0
2,66,97,0
2,42,85,118
2,54,108,0
2,57,90,0
2,62,92,0
2,66,92,0
2,54,92,120
2,57,90,0
2,62,86,0
2,66,92,0
2,42,97,0
2,54,114,174
2,57,94,0
2,62,81,0
2,66,92,0
2,43,102,88
2,55,88,0
2,59,94,0
2,62,102,0
2,43,102,88
2,55,99,0
2,59,90,0
2,62,97,0
2,33,82,90
2,45,92,0
2,55,94,0
2,59,99,0
2,60,94,0
2,64,82,0
2,33,88,160
2,45,92,0
2,55,99,0
2,59,102,0
2,60,99,0
2,64,88,0
2,45,88,86
2,55,94,0
2,59,97,0
2,60,94,0
2,64,81,0
2,33,78,0
2,45,105,192
2,55,94,0
2,59,94,0
2,60,94,0
2,64,82,0
2,33,94,40
2,36,81,102
2,48,97,0
2,55,97,0
2,60,102,0
2,64,88,0
2,36,76,96
2,48,97,0
2,55,88,0
2,60,99,0
2,64,84,0
2,36,90,118
2,48,97,0
2,55,97,0
2,60,99,0
2,64,86,0
2,48,94,112
2,55,88,0
2,60,97,0
2,64,79,0
2,36,97,0
2,48,105,184
2,55,94,0
2,60,97,0
2,64,90,0
2,36,97,2
2,48,102,172
2,55,97,0
2,60,90,0
2,64,90,0
2,38,92,110
2,50,94,0
2,57,86,0
2,62,82,0
2,66,97,0
2,38,92,184
2,50,105,0
2,57,94,0
2,62,94,0
2,66,97,0
2,50,94,110
2,57,92,0
2,62,82,0
2,66,92,0
2,38,70,0
2,50,108,184
2,57,94,0
2,62,88,0
2,66,97,0
2,38,94,62
2,42,88,124
2,54,108,0
2,57,94,0
2,62,92,0
2,66,97,0
2,42,88,80
2,54,102,0
2,57,92,0
2,62,86,0
2,66,97,0
2,42,85,118
2,54,108,0
2,57,90,0
2,62,92,0
2,66,92,0
2,54,92,120
2,57,90,0
2,62,86,0
2,66,92,0
2,42,97,0
2,54,114,174
2,57,94,0
2,62,81,0
2,66,92,0
2,43,102,88
2,55,88,0
2,59,94,0
2,62,102,0
2,43,102,88
2,55,99,0
2,59,90,0
2,62,97,0
2,55,94,90
2,59,99,0
2,60,94,0
2,64,82,0
2,55,99,170
2,59,102,0
2,60,99,0
2,64,88,0
2,55,94,102
2,59,97,0
2,60,94,0
2,64,81,0
2,55,94,192
2,59,94,0
2,60,94,0
2,64,82,0
2,55,97,102
2,60,102,0
2,64,88,0
2,55,88,96
2,60,99,0
2,64,84,0
2,55,97,128
2,60,99,0
2,64,86,0
2,55,88,112
2,60,97,0
2,64,79,0
2,55,94,184
2,60,97,0
2,64,90,0
2,55,97,172
2,60,90,0
2,64,90,0
2,57,86,110
2,62,82,0
2,66,97,0
2,57,94,194
2,62,94,0
2,66,97,0
2,57,92,120
2,62,82,0
2,66,92,0
2,57,94,184
2,62,88,0
2,66,97,0
2,57,94,124
2,62,92,0
2,66,97,0
2,57,92,88
2,62,86,0
2,66,97,0
2,57,90,118
2,62,92,0
2,66,92,0
2,57,90,120
2,62,86,0
2,66,92,0
2,57,94,174
2,62,81,0
2,66,92,0
2,43,102,88
2,55,88,0
2,59,94,0
2,62,102,0
2,43,102,88
2,55,99,0
2,59,90,0
2,62,97,0
2,55,94,90
2,59,99,0
2,60,94,0
2,64,82,0
2,55,99,170
2,59,102,0
2,60,99,0
2,64,88,0
2,55,94,102
2,59,97,0
2,60,94,0
2,64,81,0
2,55,94,192
2,59,94,0
2,60,94,0
2,64,82,0
2,55,97,102
2,60,102,0
2,64,88,0
2,55,88,96
2,60,99,0
2,64,84,0
2,55,97,128
2,60,99,0
2,64,86,0
2,55,88,112
2,60,97,0
2,64,79,0
2,55,94,184
2,60,97,0
2,64,90,0
2,55,97,172
2,60,90,0
2,64,90,0
2,57,86,110
2,62,82,0
2,66,97,0
2,57,94,194
2,62,94,0
2,66,97,0
2,57,92,120
2,62,82,0
2,66,92,0
2,57,94,184
2,62,88,0
2,66,97,0
2,57,94,124
2,62,92,0
2,66,97,0
2,57,92,88
2,62,86,0
2,66,97,0
2,57,90,118
2,62,92,0
2,66,92,0
2,57,90,120
2,62,86,0
2,66,92,0
2,57,94,174
2,62,81,0
2,66,92,0
2,43,102,88
2,55,88,0
2,59,94,0
2,62,102,0
2,43,102,88
2,55,99,0
2,59,90,0
2,62,97,0
2,53,88,90
2,57,88,0
2,60,88,0
2,64,88,0
2,53,88,94
2,57,88,0
2,60,88,0
2,64,88,0
2,55,88,270
2,57,88,0
2,60,88,0
2,64,88,0
2,55,88,96
2,57,88,0
2,60,88,0
2,64,88,0
2,54,88,88
2,57,88,0
2,62,88,0
2,54,88,60
2,57,88,0
2,62,88,0
2,54,88,26
2,57,88,0
2,62,88,0
2,55,88,86
2,57,88,0
2,62,88,0
2,53,88,58
2,57,88,0
2,60,88,0
2,64,88,0
2,53,88,94
2,57,88,0
2,60,88,0
2,64,88,0
2,55,88,270
2,57,88,0
2,60,88,0
2,64,88,0
2,55,88,96
2,57,88,0
2,60,88,0
2,64,88,0
2,54,88,88
2,57,88,0
2,62,88,0
2,54,88,60
2,57,88,0
2,62,88,0
2,54,88,26
2,57,88,0
2,62,88,0
2,55,88,86
2,57,88,0
2,62,88,0
2,53,97,58
2,57,94,0
2,60,97,0
2,64,88,0
2,53,90,196
2,57,94,0
2,60,97,0
2,64,82,0
2,53,56,8
2,53,71,58
2,57,90,0
2,60,92,0
2,64,84,0
2,53,99,132
2,57,99,0
2,60,99,0
2,64,90,0
2,52,92,142
2,55,94,0
2,59,97,0
2,62,92,0
2,52,90,132
2,55,99,0
2,59,97,0
2,62,79,0
2,52,97,140
2,55,102,0
2,59,97,0
2,62,86,0
2,52,94,84
2,55,90,0
2,59,97,0
2,62,82,0
2,52,99,228
2,55,105,0
2,59,108,0
2,62,90,0
2,52,88,16
2,53,97,166
2,57,94,0
2,60,97,0
2,64,88,0
2,53,90,196
2,57,94,0
2,60,97,0
2,64,82,0
2,53,56,8
2,53,71,58
2,57,90,0
2,60,92,0
2,64,84,0
2,53,99,132
2,57,99,0
2,60,99,0
2,64,90,0
2,52,92,142
2,55,94,0
2,59,97,0
2,62,92,0
2,52,90,132
2,55,99,0
2,59,97,0
2,62,79,0
