track,note,velocity,time
1,47,107,1536
1,47,105,72
1,59,105,26
1,47,105,12
1,49,102,192
1,50,98,24
1,49,105,32
1,45,110,24
1,45,105,98
1,43,107,96
1,43,105,98
1,47,102,120
1,47,105,86
1,59,82,24
1,47,105,22
1,49,78,0
1,50,89,20
1,49,100,10
1,45,105,12
1,45,100,112
1,43,107,72
1,55,78,4
1,43,105,192
1,55,91,10
1,47,102,8
1,47,102,88
1,59,87,12
1,47,105,18
1,49,85,14
1,50,95,24
1,49,100,0
1,45,102,20
1,45,102,98
1,43,107,88
1,43,102,88
1,55,102,192
1,47,102,16
1,47,105,92
1,47,102,72
1,49,95,2
1,50,76,32
1,47,110,8
1,45,105,36
1,45,105,120
1,43,107,78
1,55,100,18
1,43,105,18
1,47,116,80
1,47,105,290
1,47,105,54
1,47,113,124
1,49,105,40
1,50,91,48
1,49,102,26
1,45,107,16
1,45,107,220
1,43,119,206
1,43,116,180
1,47,105,168
1,47,102,136
1,47,110,78
1,49,93,26
1,50,102,4
1,49,98,32
1,50,89,16
1,45,105,8
1,45,102,146
1,43,102,144
1,43,102,136
1,47,102,154
1,47,105,166
1,47,107,204
1,49,98,32
1,50,87,34
1,49,102,14
1,45,102,20
1,45,102,200
1,43,102,186
1,55,87,20
1,43,102,96
1,55,100,0
1,43,105,192
1,47,105,102
1,47,107,222
1,47,116,136
1,47,102,48
1,49,113,34
1,50,105,20
1,49,105,32
1,45,102,56
1,45,110,180
1,57,100,14
1,45,110,96
1,43,105,76
1,55,102,32
1,43,107,192
1,55,105,26
1,43,116,102
1,55,113,28
1,43,93,192
1,55,95,34
1,43,91,146
1,55,91,12
1,43,98,192
1,55,100,54
1,52,105,84
1,52,107,102
1,47,82,12
1,52,91,52
1,52,93,54
1,52,102,68
1,47,105,96
1,52,107,40
1,50,102,48
1,50,98,12
1,45,87,192
1,50,91,38
1,50,105,80
1,50,95,20
1,47,105,116
1,59,116,16
1,47,107,192
1,45,110,44
1,45,102,58
1,57,102,16
1,45,105,192
1,57,105,8
1,43,116,82
1,55,113,28
1,43,93,192
1,55,95,34
1,43,91,146
1,55,91,12
1,43,98,192
1,55,100,54
1,52,105,84
1,52,107,102
1,47,82,12
1,52,91,52
1,52,93,54
1,52,102,68
1,47,105,96
1,52,107,40
1,50,102,48
1,50,98,12
1,45,87,192
1,50,91,38
1,50,105,80
1,50,95,20
1,50,105,116
1,49,95,80
1,47,98,76
1,45,102,86
1,45,105,24
1,57,107,12
1,43,107,192
1,55,107,0
1,47,107,78
1,47,105,72
1,59,105,26
1,47,105,12
1,49,102,192
1,50,98,24
1,49,105,32
1,45,110,24
1,45,105,98
1,43,107,96
1,43,105,98
1,47,102,120
1,47,105,86
1,59,82,24
1,47,105,22
1,49,78,0
1,50,89,20
1,49,100,10
1,45,105,12
1,45,100,112
1,43,107,72
1,55,78,4
1,43,105,192
1,55,91,10
1,47,102,8
1,47,102,88
1,59,87,12
1,47,105,18
1,49,85,14
1,50,95,24
1,49,100,0
1,45,102,20
1,45,102,98
1,43,107,88
1,43,102,88
1,55,102,192
1,47,102,16
1,47,105,92
1,47,102,72
1,49,95,2
1,50,76,32
1,47,110,8
1,45,105,36
1,45,105,120
1,43,107,78
1,55,100,18
1,43,105,18
1,47,102,80
1,47,102,88
1,59,87,12
1,47,105,18
1,49,85,14
1,50,95,24
1,49,100,0
1,45,102,20
1,45,102,98
1,43,107,88
1,43,102,88
1,55,102,192
1,47,102,16
1,47,105,92
1,47,102,72
1,49,95,2
1,50,76,32
1,47,110,8
1,45,105,36
1,45,105,120
1,43,107,78
1,55,100,18
1,43,105,18
1,47,116,80
1,47,105,290
1,47,105,54
1,47,113,124
1,49,105,40
1,50,91,48
1,49,102,26
1,45,107,16
1,45,107,220
1,43,119,206
1,43,116,180
1,47,105,168
1,47,102,136
1,47,110,78
1,49,93,26
1,50,102,4
1,49,98,32
1,50,89,16
1,45,105,8
1,45,102,146
1,43,102,144
1,43,102,136
1,47,102,154
1,47,105,166
1,47,107,204
1,49,98,32
1,50,87,34
1,49,102,14
1,45,102,20
1,45,102,200
1,43,102,186
1,55,87,20
1,43,102,96
1,55,100,0
1,43,105,192
1,47,105,102
1,47,107,222
1,47,116,136
1,47,102,48
1,49,113,34
1,50,105,20
1,49,105,32
1,45,102,56
1,45,110,180
1,57,100,14
1,45,110,96
1,43,105,76
1,55,102,32
1,43,107,192
1,55,105,26
1,43,116,102
1,55,113,28
1,43,93,192
1,55,95,34
1,43,91,146
1,55,91,12
1,43,98,192
1,55,100,54
1,52,105,84
1,52,107,102
1,47,82,12
1,52,91,52
1,52,93,54
1,52,102,68
1,47,105,96
1,52,107,40
1,50,102,48
1,50,98,12
1,45,87,192
1,50,91,38
1,50,105,80
1,50,95,20
1,47,105,116
1,59,116,16
1,47,107,192
1,45,110,44
1,45,102,58
1,57,102,16
1,45,105,192
1,57,105,8
1,43,116,82
1,55,113,28
1,43,93,192
1,55,95,34
1,43,91,146
1,55,91,12
1,43,98,192
1,55,100,54
1,52,105,84
1,52,107,102
1,47,82,12
1,52,91,52
1,52,93,54
1,52,102,68
1,47,105,96
1,52,107,40
1,50,102,48
1,50,98,12
1,45,87,192
1,50,91,38
1,50,105,80
1,50,95,20
1,50,105,116
1,49,95,80
1,47,98,76
1,45,102,86
1,45,105,24
1,57,107,12
1,43,107,192
1,55,107,0
1,47,107,78
1,47,105,72
1,59,105,26
1,47,105,12
1,49,102,192
1,50,98,24
1,49,105,32
1,45,110,24
1,45,105,98
1,43,107,96
1,43,105,98
1,47,102,120
1,47,105,86
1,59,82,24
1,47,105,22
1,49,78,0
1,50,89,20
1,49,100,10
1,45,105,12
1,45,100,112
1,43,107,72
1,55,78,4
1,43,105,192
1,55,91,10
1,47,102,8
1,47,102,88
1,59,87,12
1,47,105,18
1,49,85,14
1,50,95,24
1,49,100,0
1,45,102,20
1,45,102,98
1,43,107,88
1,43,102,88
1,55,102,192
1,47,102,16
1,47,105,92
1,47,102,72
1,49,95,2
1,50,76,32
1,47,110,8
1,45,105,36
1,45,105,120
1,43,107,78
1,55,100,18
1,43,105,18
1,47,107,80
1,47,105,72
1,59,105,26
1,47,105,12
1,49,102,192
1,50,98,24
1,49,105,32
1,45,110,24
1,45,105,98
1,43,107,96
1,43,105,98
1,47,102,120
1,47,105,86
1,59,82,24
1,47,105,22
1,49,78,0
1,50,89,20
1,49,100,10
1,45,105,12
1,45,100,112
1,43,107,72
1,55,78,4
1,43,105,192
1,55,91,10
1,47,102,8
1,47,102,88
1,59,87,12
1,47,105,18
1,49,85,14
1,50,95,24
1,49,100,0
1,45,102,20
1,45,102,98
1,43,107,88
1,43,102,88
1,55,102,192
1,47,102,16
1,47,105,92
1,47,102,72
1,49,95,2
1,50,76,32
1,47,110,8
1,45,105,36
1,45,105,120
1,43,107,78
1,55,100,18
1,43,105,18
1,47,107,80
1,47,105,72
1,59,105,26
1,47,105,12
1,49,102,192
1,50,98,24
1,49,105,32
1,45,110,24
1,45,105,98
1,43,107,96
1,43,105,98
1,47,102,120
1,47,105,86
1,59,82,24
1,47,105,22
1,49,78,0
1,50,89,20
1,49,100,10
1,45,105,12
1,45,100,112
1,43,107,72
1,55,78,4
1,43,105,192
1,55,91,10
1,47,107,8
1,47,105,72
1,59,105,26
1,47,105,12
1,49,102,192
1,50,98,24
1,49,105,32
1,45,110,24
1,45,105,98
1,43,107,96
1,43,105,98
1,47,102,120
1,47,105,86
1,59,82,24
1,47,105,22
1,49,78,0
1,50,89,20
1,49,100,10
1,45,105,12
1,45,100,112
1,43,107,72
1,55,78,4
1,43,105,192
1,55,91,10
1,43,116,8
1,55,113,28
1,43,93,192
1,55,95,34
1,43,91,146
1,55,91,12
1,43,98,192
1,55,100,54
1,52,105,84
1,52,107,102
1,47,82,12
1,52,91,52
1,52,93,54
1,52,102,68
1,47,105,96
1,52,107,40
1,50,102,48
1,50,98,12
1,45,87,192
1,50,91,38
1,50,105,80
1,50,95,20
1,47,105,116
1,59,116,16
1,47,107,192
1,45,110,44
1,45,102,58
1,57,102,16
1,45,105,192
1,57,105,8
1,43,116,82
1,55,113,28
1,43,93,192
1,55,95,34
1,43,91,146
1,55,91,12
1,43,98,192
1,55,100,54
1,52,105,84
1,52,107,102
1,47,82,12
1,52,91,52
1,52,93,54
1,52,102,68
1,47,105,96
1,52,107,40
1,50,102,48
1,50,98,12
1,45,87,192
1,50,91,38
1,50,105,80
1,50,95,20
1,50,105,116
1,49,95,80
1,47,98,76
1,45,102,86
1,45,105,24
1,57,107,12
1,43,107,192
1,55,107,0
1,47,107,78
1,47,105,72
1,59,105,26
1,47,105,12
1,49,102,192
1,50,98,24
1,49,105,32
1,45,110,24
1,45,105,98
1,43,107,96
1,43,105,98
1,47,102,120
1,47,105,86
1,59,82,24
1,47,105,22
1,49,78,0
1,50,89,20
1,49,100,10
1,45,105,12
1,45,100,112
1,43,107,72
1,55,78,4
1,43,105,192
1,55,91,10
1,47,102,8
1,47,102,88
1,59,87,12
1,47,105,18
1,49,85,14
1,50,95,24
1,49,100,0
1,45,102,20
1,45,102,98
1,43,107,88
1,43,102,88
1,55,102,192
1,47,102,16
1,47,105,92
1,47,102,72
1,49,95,2
1,50,76,32
1,47,110,8
1,45,105,36
1,45,105,120
1,43,107,78
1,55,100,18
1,43,105,18
1,47,95,80
1,47,107,10058
1,47,105,72
1,59,105,26
1,47,105,12
1,49,102,192
1,50,98,24
1,49,105,32
1,45,110,24
1,45,105,98
1,43,107,96
1,43,105,98
1,47,102,120
1,47,105,86
1,59,82,24
1,47,105,22
1,49,78,0
1,50,89,20
1,49,100,10
1,45,105,12
1,45,100,112
1,43,107,72
1,55,78,4
1,43,105,192
1,55,91,10
1,47,102,8
1,47,102,88
1,59,87,12
1,47,105,18
1,49,85,14
1,50,95,24
1,49,100,0
1,45,102,20
1,45,102,98
1,43,107,88
1,43,102,88
1,55,102,192
1,47,102,16
1,47,105,92
1,47,102,72
1,49,95,2
1,50,76,32
1,47,110,8
1,45,105,36
1,45,105,120
1,43,107,78
1,55,100,18
1,43,105,18
1,47,110,80
2,62,102,1536
2,59,94,0
2,66,91,0
2,59,76,240
2,62,94,0
2,66,94,0
2,47,82,140
2,62,96,48
2,59,87,0
2,66,94,0
2,59,89,320
2,64,96,0
2,67,94,0
2,66,87,130
2,59,74,0
2,62,89,0
2,57,89,320
2,64,96,0
2,61,99,0
2,57,89,244
2,61,96,0
2,64,96,0
2,45,78,148
2,59,94,56
2,55,91,0
2,62,94,0
2,43,78,288
2,59,99,64
2,55,91,0
2,62,96,0
2,62,96,136
2,59,96,0
2,55,91,0
2,59,91,142
2,62,94,0
2,55,84,0
2,47,84,138
2,59,76,0
2,66,94,0
2,62,96,0
2,62,96,226
2,66,94,0
2,59,91,0
2,47,84,140
2,62,99,54
2,59,89,0
2,66,94,0
2,59,87,112
2,67,96,0
2,62,96,0
2,59,76,136
2,66,96,0
2,62,91,0
2,64,96,326
2,57,89,0
2,61,96,0
2,61,91,240
2,64,96,0
2,57,89,0
2,62,94,244
2,59,96,0
2,55,91,0
2,43,82,0
2,62,96,54
2,55,91,0
2,59,96,0
2,62,94,128
2,55,89,0
2,59,94,0
2,59,96,148
2,62,94,0
2,55,91,0
2,59,91,140
2,66,94,0
2,62,99,0
2,62,96,230
2,59,87,0
2,66,94,0
2,66,99,248
2,59,94,0
2,62,102,0
2,59,78,108
2,67,94,0
2,62,91,0
2,59,89,130
2,66,91,0
2,62,91,0
2,61,96,344
2,64,96,0
2,57,91,0
2,64,99,240
2,61,96,0
2,57,96,0
2,62,96,248
2,55,94,0
2,59,99,0
2,43,80,6
2,62,94,54
2,59,94,0
2,55,87,0
2,62,99,136
2,55,91,0
2,59,96,0
2,59,91,136
2,62,94,0
2,55,87,0
2,66,94,136
2,62,99,0
2,47,89,0
2,59,91,0
2,62,102,224
2,59,94,0
2,66,96,0
2,59,94,232
2,66,94,0
2,62,102,0
2,59,91,334
2,62,96,0
2,67,99,0
2,59,80,98
2,66,91,0
2,62,91,0
2,64,96,316
2,61,91,0
2,57,91,0
2,57,91,250
2,61,94,0
2,64,99,0
2,45,74,142
2,62,96,44
2,55,94,0
2,59,102,0
2,43,89,8
2,55,91,46
2,59,96,0
2,62,96,0
2,55,91,124
2,59,105,0
2,62,105,0
2,47,89,330
2,59,89,0
2,66,96,0
2,62,94,0
2,64,99,24
2,61,99,0
2,57,91,0
2,43,69,8
2,59,91,0
2,55,89,0
2,62,91,0
2,59,89,22
2,62,99,0
2,66,94,0
2,47,89,0
2,57,89,18
2,64,96,0
2,61,96,0
2,62,91,8
2,55,76,0
2,59,89,0
2,43,67,0
2,47,76,40
2,59,87,0
2,66,96,0
2,62,94,0
2,57,87,26
2,61,96,0
2,64,91,0
2,43,76,24
2,55,74,0
2,59,87,0
2,62,87,0
2,47,87,24
2,59,80,0
2,66,91,0
2,62,91,0
2,61,99,48
2,64,99,0
2,57,89,0
2,62,89,54
2,55,80,0
2,59,87,0
2,43,91,0
2,62,99,224
2,55,94,0
2,74,94,0
2,67,94,0
2,71,99,0
2,52,91,2
2,67,94,0
2,64,94,0
2,71,96,0
2,66,94,56
2,69,91,0
2,62,89,0
2,50,94,0
2,62,87,562
2,66,89,0
2,59,91,0
2,71,91,0
2,64,82,28
2,69,82,0
2,76,91,0
2,57,89,0
2,73,91,0
2,62,84,24
2,71,96,0
2,74,94,0
2,55,91,0
2,67,94,0
2,59,82,18
2,62,91,0
2,71,89,0
2,67,96,0
2,52,91,0
2,57,91,26
2,50,91,0
2,62,96,0
2,66,96,0
2,69,96,0
2,62,87,98
2,66,91,0
2,64,96,92
2,61,91,0
2,59,89,96
2,62,96,0
2,57,99,86
2,61,102,0
2,59,102,80
2,55,99,0
2,62,102,208
2,59,94,0
2,66,91,0
2,59,76,240
2,62,94,0
2,66,94,0
2,47,82,140
2,62,96,48
2,59,87,0
2,66,94,0
2,59,89,320
2,64,96,0
2,67,94,0
2,66,87,130
2,59,74,0
2,62,89,0
2,57,89,320
2,64,96,0
2,61,99,0
2,57,89,244
2,61,96,0
2,64,96,0
2,45,78,148
2,59,94,56
2,55,91,0
2,62,94,0
2,43,78,288
2,59,99,64
2,55,91,0
2,62,96,0
2,62,96,136
2,59,96,0
2,55,91,0
2,59,91,142
2,62,94,0
2,55,84,0
2,47,84,138
2,59,76,0
2,66,94,0
2,62,96,0
2,62,96,226
2,66,94,0
2,59,91,0
2,47,84,140
2,62,99,54
2,59,89,0
2,66,94,0
2,59,87,112
2,67,96,0
2,62,96,0
2,59,76,136
2,66,96,0
2,62,91,0
2,64,96,326
2,57,89,0
2,61,96,0
2,61,91,240
2,64,96,0
2,57,89,0
2,62,94,244
2,59,96,0
2,55,91,0
2,43,82,0
2,62,96,54
2,55,91,0
2,59,96,0
2,62,94,128
2,55,89,0
2,59,94,0
2,59,96,148
2,62,94,0
2,55,91,0
2,59,91,140
2,66,94,0
2,62,99,0
2,62,96,230
2,59,87,0
2,66,94,0
2,66,99,248
2,59,94,0
2,62,102,0
2,59,78,108
2,67,94,0
2,62,91,0
2,59,89,130
2,66,91,0
2,62,91,0
2,61,96,344
2,64,96,0
2,57,91,0
2,64,99,240
2,61,96,0
2,57,96,0
2,62,96,248
2,55,94,0
2,59,99,0
2,43,80,6
2,62,94,54
2,59,94,0
2,55,87,0
2,62,99,136
2,55,91,0
2,59,96,0
2,59,91,136
2,62,94,0
2,55,87,0
2,66,94,136
2,62,99,0
2,47,89,0
2,59,91,0
2,62,102,224
2,59,94,0
2,66,96,0
2,59,94,232
2,66,94,0
2,62,102,0
2,59,91,334
2,62,96,0
2,67,99,0
2,59,80,98
2,66,91,0
2,62,91,0
2,64,96,316
2,61,91,0
2,57,91,0
2,57,91,250
2,61,94,0
2,64,99,0
2,45,74,142
2,62,96,44
2,55,94,0
2,59,102,0
2,43,89,8
2,55,91,46
2,59,96,0
