track,note,velocity,time
1,64,122,14208
1,59,122,0
1,64,122,0
1,66,122,0
1,64,122,0
1,64,122,0
1,68,122,0
1,69,122,0
1,68,122,42
1,66,122,0
1,64,122,0
1,62,122,0
1,62,122,0
1,61,122,0
1,61,122,0
1,59,122,0
1,59,122,0
1,64,122,1152
1,59,122,0
1,64,122,0
1,66,122,0
1,64,122,0
1,64,122,0
1,64,122,0
1,59,122,96
1,69,122,0
1,68,122,0
1,66,122,0
1,64,122,0
1,62,122,0
1,62,122,0
1,62,122,0
1,61,122,0
1,61,122,0
1,59,122,288
1,59,122,0
1,64,122,752
1,66,122,0
1,68,122,0
1,69,122,0
1,71,122,0
1,64,122,0
1,67,122,0
1,66,122,0
1,69,122,0
1,68,122,0
1,59,122,0
1,64,122,0
1,66,122,0
1,64,122,0
1,66,122,0
1,69,122,0
1,68,122,0
1,66,122,0
1,64,122,0
1,64,122,0
1,64,122,0
1,61,122,0
1,64,122,0
1,66,122,0
1,68,122,1200
1,69,122,0
1,71,122,0
1,64,122,0
1,64,122,0
1,69,122,0
1,68,122,0
1,66,122,0
1,64,122,0
1,64,122,0
1,64,122,0
1,61,122,0
1,64,122,0
1,66,122,0
1,64,122,8064
1,59,122,0
1,64,122,0
1,66,122,0
1,64,122,0
1,64,122,0
1,68,122,0
1,69,122,0
1,68,122,42
1,66,122,0
1,64,122,0
1,62,122,0
1,62,122,0
1,61,122,0
1,61,122,0
1,59,122,0
1,59,122,0
1,64,122,784
1,59,122,0
1,64,122,0
1,66,122,0
1,64,122,0
1,64,122,0
1,64,122,0
1,59,122,96
1,69,122,0
1,68,122,0
1,66,122,0
1,64,122,0
1,62,122,0
1,62,122,0
1,62,122,0
1,61,122,0
1,61,122,0
1,59,122,288
1,59,122,0
1,64,122,368
1,66,122,0
1,68,122,0
1,69,122,0
1,71,122,0
1,64,122,0
1,67,122,0
1,66,122,0
1,69,122,0
1,68,122,0
1,59,122,192
1,64,122,0
1,66,122,0
1,64,122,0
1,66,122,0
1,69,122,0
1,68,122,0
1,66,122,0
1,64,122,0
1,64,122,0
1,64,122,0
1,61,122,0
1,64,122,0
1,66,122,0
1,68,122,1168
1,69,122,0
1,71,122,0
1,64,122,0
1,64,122,0
1,69,122,0
1,68,122,0
1,66,122,0
1,64,122,0
1,64,122,0
1,64,122,0
1,61,122,0
1,64,122,0
1,66,122,0
1,62,122,5968
1,66,122,0
1,57,122,0
1,62,122,0
1,57,122,0
1,66,122,0
1,57,122,0
1,62,122,0
1,66,122,0
1,57,122,0
1,62,122,0
1,66,122,0
1,66,122,0
1,57,122,0
1,62,122,0
1,57,122,0
1,62,122,0
1,68,122,0
1,57,122,0
1,62,122,0
1,66,122,0
1,61,122,0
1,57,122,0
1,66,122,0
1,64,122,768
1,61,122,0
1,64,122,30
1,66,122,0
1,66,122,208
1,62,122,0
1,68,122,0
1,64,122,0
1,62,122,0
1,66,122,0
1,62,122,0
1,66,122,0
1,62,122,0
1,66,122,0
1,69,122,0
1,69,122,0
1,61,122,0
1,64,122,0
1,69,122,0
1,71,122,0
1,73,122,0
1,71,122,0
1,68,122,0
1,66,122,0
1,64,122,0
1,59,122,0
1,64,122,0
1,66,122,0
1,64,122,0
1,66,122,0
1,69,122,0
1,68,122,0
1,66,122,0
1,64,122,0
1,64,122,0
1,64,122,0
1,61,122,0
1,64,122,0
1,66,122,0
1,68,122,1152
1,69,122,0
1,71,122,0
1,64,122,0
1,64,122,0
1,69,122,0
1,68,122,0
1,66,122,0
1,64,122,0
1,64,122,0
1,64,122,0
1,61,122,0
1,64,122,0
1,66,122,0
1,64,122,1568
1,66,122,0
1,68,122,0
1,69,122,0
1,71,122,0
1,64,122,0
1,67,122,0
1,66,122,0
1,69,122,0
1,68,122,0
1,64,122,0
1,66,122,0
1,68,122,0
1,69,122,0
1,71,122,0
1,64,122,0
1,67,122,0
1,66,122,0
1,69,122,0
1,68,122,0
1,59,122,192
1,64,122,0
1,66,122,0
1,64,122,0
1,66,122,0
1,69,122,0
1,68,122,0
1,66,122,0
1,64,122,0
1,64,122,0
1,64,122,0
1,61,122,0
1,64,122,0
1,66,122,0
1,68,122,1152
1,69,122,0
1,71,122,0
1,64,122,0
1,64,122,0
1,69,122,0
1,68,122,0
1,66,122,0
1,64,122,0
1,64,122,0
1,64,122,0
1,61,122,0
1,64,122,0
1,66,122,0
1,59,122,1328
1,64,122,0
1,66,122,0
1,64,122,0
1,66,122,0
1,69,122,0
1,68,122,0
1,66,122,0
1,64,122,0
1,64,122,0
1,64,122,0
1,61,122,0
1,64,122,0
1,66,122,0
1,68,122,1184
1,69,122,0
1,71,122,0
1,64,122,0
1,64,122,0
1,69,122,0
1,68,122,0
1,66,122,0
1,64,122,0
1,64,122,0
1,64,122,0
1,61,122,0
1,64,122,0
1,66,122,0
2,40,95,1536
2,40,90,112
2,40,88,74
2,40,88,90
2,52,77,8
2,40,88,96
2,40,90,98
2,40,90,108
2,40,88,114
2,50,93,50
2,50,81,72
2,50,73,64
2,50,79,60
2,50,73,80
2,50,86,66
2,50,75,96
2,50,86,74
2,40,95,158
2,40,90,112
2,40,88,74
2,40,88,90
2,52,77,8
2,40,88,96
2,40,90,98
2,40,90,108
2,40,88,114
2,50,93,50
2,50,81,72
2,50,73,64
2,50,79,60
2,50,73,80
2,50,86,66
2,50,75,96
2,50,86,74
2,52,90,158
2,52,88,30
2,47,47,32
2,52,70,22
2,52,77,14
2,40,62,160
2,52,70,8
2,47,68,66
2,52,79,94
2,52,81,48
2,52,79,56
2,47,58,20
2,52,83,24
2,40,79,192
2,40,88,54
2,52,73,12
2,47,68,96
2,52,70,74
2,50,79,40
2,50,77,88
2,45,48,192
2,50,79,88
2,50,77,68
2,45,46,12
2,50,68,96
2,45,70,176
2,50,79,14
2,50,77,56
2,50,90,52
2,50,73,70
2,45,52,32
2,50,68,96
2,45,79,4
2,52,73,58
2,52,73,48
2,52,73,36
2,52,73,76
2,47,56,0
2,52,60,0
2,47,70,96
2,52,70,14
2,52,90,54
2,40,83,4
2,52,70,0
2,52,70,40
2,52,75,48
2,40,62,192
2,52,77,26
2,40,86,192
2,50,81,16
2,50,86,64
2,45,60,192
2,50,68,0
2,50,77,78
2,45,56,192
2,50,77,16
2,45,60,192
2,50,86,32
2,50,77,56
2,45,49,16
2,50,77,28
2,50,79,66
2,45,73,18
2,50,75,22
2,45,83,24
2,48,93,76
2,48,79,30
2,43,93,96
2,48,86,4
2,50,90,24
2,45,60,0
2,50,75,96
2,50,83,50
2,45,79,192
2,52,81,32
2,52,88,60
2,47,62,0
2,40,75,8
2,52,83,288
2,52,83,38
2,40,79,96
2,52,81,28
2,48,90,8
2,43,73,288
2,48,77,32
2,50,93,16
2,45,73,288
2,50,77,20
2,50,79,48
2,45,70,96
2,50,79,26
2,52,88,28
2,47,68,2
2,52,77,8
2,40,88,192
2,52,83,16
2,47,73,192
2,52,73,22
2,47,90,96
2,40,90,32
2,40,95,52
2,40,90,112
2,40,88,74
2,40,88,90
2,52,77,8
2,40,88,96
2,40,90,98
2,40,90,108
2,40,88,114
2,50,93,50
2,50,81,72
2,50,73,64
2,50,79,60
2,50,73,80
2,50,86,66
2,50,75,96
2,50,86,74
2,40,95,158
2,40,90,112
2,40,88,74
2,40,88,90
2,52,77,8
2,40,88,96
2,40,90,98
2,40,90,108
2,40,88,114
2,50,93,50
2,50,81,72
2,50,73,64
2,50,79,60
2,50,73,80
2,50,86,66
2,50,75,96
2,50,86,74
2,40,95,158
2,40,90,112
2,40,88,74
2,40,88,90
2,52,77,8
2,40,88,96
2,40,90,98
2,40,90,108
2,40,88,114
2,50,93,50
2,50,81,72
2,50,73,64
2,50,79,60
2,50,73,80
2,50,86,66
2,50,75,96
2,50,86,74
2,52,90,158
2,52,88,30
2,47,47,32
2,52,70,22
2,52,77,14
2,40,62,160
2,52,70,8
2,47,68,66
2,52,79,94
2,52,81,48
2,52,79,56
2,47,58,20
2,52,83,24
2,40,79,192
2,40,88,54
2,52,73,12
2,47,68,96
2,52,70,74
2,50,79,40
2,50,77,88
2,45,48,192
2,50,79,88
2,50,77,68
2,45,46,12
2,50,68,96
2,45,70,176
2,50,79,14
2,50,77,56
2,50,90,52
2,50,73,70
2,45,52,32
2,50,68,96
2,45,79,4
2,52,73,58
2,52,73,48
2,52,73,36
2,52,73,76
2,47,56,0
2,52,60,0
2,47,70,96
2,52,70,14
2,52,90,54
2,40,83,4
2,52,70,0
2,52,70,40
2,52,75,48
2,40,62,192
2,52,77,26
2,40,86,192
2,50,81,16
2,50,86,64
2,45,60,192
2,50,68,0
2,50,77,78
2,45,56,192
2,50,77,16
2,45,60,192
2,50,86,32
2,50,77,56
2,45,49,16
2,50,77,28
2,50,79,66
2,45,73,18
2,50,75,22
2,45,83,24
2,48,93,76
2,48,79,30
2,43,93,96
2,48,86,4
2,50,90,24
2,45,60,0
2,50,75,96
2,50,83,50
2,45,79,192
2,52,81,32
2,52,88,60
2,47,62,0
2,40,75,8
2,52,83,288
2,52,83,38
2,40,79,96
2,52,81,28
2,48,90,8
2,43,73,288
2,48,77,32
2,50,93,16
2,45,73,288
2,50,77,20
2,50,79,48
2,45,70,96
2,50,79,26
2,52,88,28
2,47,68,2
2,52,77,8
2,40,88,192
2,52,83,16
2,47,73,192
2,52,73,22
2,47,90,96
2,40,90,32
2,40,95,52
2,40,90,112
2,40,88,74
2,40,88,90
2,52,77,8
2,40,88,96
2,40,90,98
2,40,90,108
2,40,88,114
2,50,93,50
2,50,81,72
2,50,73,64
2,50,79,60
2,50,73,80
2,50,86,66
2,50,75,96
2,50,86,74
2,40,95,158
2,40,90,112
2,40,88,74
2,40,88,90
2,52,77,8
2,40,88,96
2,40,90,98
2,40,90,108
2,40,88,114
2,50,93,50
2,50,81,72
2,50,73,64
2,50,79,60
2,50,73,80
2,50,86,66
2,50,75,96
2,50,86,74
2,40,95,158
2,40,90,112
2,40,88,74
2,40,88,90
2,52,77,8
2,40,88,96
2,40,90,98
2,40,90,108
2,40,88,114
2,50,93,50
2,50,81,72
2,50,73,64
2,50,79,60
2,50,73,80
2,50,86,66
2,50,75,96
2,50,86,74
2,54,90,158
2,40,95,7832
2,40,90,112
2,40,88,74
2,40,88,90
2,52,77,8
2,40,88,96
2,40,90,98
2,40,90,108
2,40,88,114
2,50,93,50
2,50,81,72
2,50,73,64
2,50,79,60
2,50,73,80
2,50,86,66
2,50,75,96
2,50,86,74
2,40,95,158
2,40,90,112
2,40,88,74
2,40,88,90
2,52,77,8
2,40,88,96
2,40,90,98
2,40,90,108
2,40,88,114
2,50,93,50
2,50,81,72
2,50,73,64
2,50,79,60
2,50,73,80
2,50,86,66
2,50,75,96
2,50,86,74
2,48,93,158
2,48,79,30
2,43,93,96
2,48,86,4
2,50,90,24
2,45,60,0
2,50,75,96
2,50,83,50
2,45,79,192
2,52,81,32
2,52,88,60
2,47,62,0
2,40,75,8
2,52,83,288
2,52,83,38
2,40,79,96
2,52,81,28
2,48,90,8
2,43,73,288
2,48,77,32
2,50,93,16
2,45,73,288
2,50,77,20
2,50,79,48
2,45,70,96
2,50,79,26
2,52,88,28
2,47,68,2
2,52,77,8
2,40,88,192
2,52,83,16
2,47,73,192
2,52,73,22
2,47,90,96
2,40,90,32
2,48,93,52
2,48,79,30
2,43,93,96
2,48,86,4
2,50,90,24
2,45,60,0
2,50,75,96
2,50,83,50
2,45,79,192
2,52,81,32
2,52,88,60
2,47,62,0
2,40,75,8
2,52,83,288
2,52,83,38
2,40,79,96
2,52,81,28
2,48,90,8
2,43,73,288
2,48,77,32
2,50,93,16
2,45,73,288
2,50,77,20
2,50,79,48
2,45,70,96
2,50,79,26
2,52,88,28
2,47,68,2
2,52,77,8
2,40,88,192
2,52,83,16
2,47,73,192
2,52,73,22
2,47,90,96
2,40,90,32
2,40,95,52
2,40,90,112
2,40,88,74
2,40,88,90
2,52,77,8
2,40,88,96
2,40,90,98
2,40,90,108
2,40,88,114
2,50,93,50
2,50,81,72
2,50,73,64
2,50,79,60
2,50,73,80
2,50,86,66
2,50,75,96
2,50,86,74
2,40,95,158
2,40,90,112
2,40,88,74
2,40,88,90
2,52,77,8
2,40,88,96
2,40,90,98
2,40,90,108
2,40,88,114
2,50,93,50
2,50,81,72
2,50,73,64
2,50,79,60
2,50,73,80
2,50,86,66
2,50,75,96
2,50,86,74
2,40,95,158
2,40,90,112
2,40,88,74
2,40,88,90
2,52,77,8
2,40,88,96
2,40,90,98
2,40,90,108
2,40,88,114
2,50,93,50
2,50,81,72
2,50,73,64
2,50,79,60
2,50,73,80
2,50,86,66
2,50,75,96
2,50,86,74
2,40,95,158
2,40,90,112
2,40,88,74
2,40,88,90
2,52,77,8
2,40,88,96
2,40,90,98
2,40,90,108
2,40,88,114
2,50,93,50
2,50,81,72
2,50,73,64
2,50,79,60
2,50,73,80
2,50,86,66
2,50,75,96
2,50,86,74
2,40,107,158
3,40,102,1536
3,47,102,0
3,52,102,0
3,68,102,480
3,64,102,12
3,59,102,16
3,68,102,96
3,64,102,48
3,59,102,14
3,57,102,64
3,52,102,0
3,45,102,0
3,61,102,0
3,69,102,0
3,57,90,270
3,50,98,0
3,62,95,192
3,69,101,0
3,68,101,178
3,62,98,0
3,50,98,40
3,57,83,0
3,66,98,8
3,62,95,0
3,50,95,56
3,57,77,0
3,62,93,32
3,66,93,0
3,50,93,116
3,57,83,0
3,50,101,52
3,57,93,0
3,50,98,46
3,57,73,0
3,62,86,38
3,50,88,36
3,57,86,0
3,69,104,32
3,62,95,0
3,50,66,108
3,57,68,0
3,68,104,44
3,62,98,0
3,50,90,130
3,57,86,0
3,66,95,24
3,62,95,0
3,50,93,10
3,57,81,0
3,62,95,42
3,66,98,0
3,50,93,110
3,57,83,0
3,62,98,48
3,66,98,0
3,40,102,140
3,47,102,0
3,52,102,0
3,68,102,480
3,64,102,12
3,59,102,16
3,68,102,96
3,64,102,48
3,59,102,14
3,57,102,64
3,52,102,0
3,45,102,0
3,61,102,0
3,69,102,0
3,57,90,270
3,50,98,0
3,62,95,192
3,69,101,0
3,68,101,178
3,62,98,0
3,50,98,40
3,57,83,0
3,66,98,8
3,62,95,0
3,50,95,56
3,57,77,0
3,62,93,32
3,66,93,0
3,50,93,116
3,57,83,0
3,50,101,52
3,57,93,0
3,50,98,46
3,57,73,0
3,62,86,38
3,50,88,36
3,57,86,0
3,69,104,32
3,62,95,0
3,50,66,108
3,57,68,0
3,68,104,44
3,62,98,0
3,50,90,130
3,57,86,0
3,66,95,24
3,62,95,0
3,50,93,10
3,57,81,0
3,62,95,42
3,66,98,0
3,50,93,110
3,57,83,0
3,62,98,48
3,66,98,0
3,59,90,140
3,68,90,0
3,52,77,0
3,64,95,0
3,40,88,0
3,68,90,60
3,59,83,0
3,64,90,0
3,59,75,56
3,40,81,0
3,64,88,0
3,69,90,0
3,52,75,0
3,57,77,2
3,50,83,0
3,69,86,0
3,66,79,0
3,62,81,0
3,59,90,508
3,68,90,0
3,52,77,0
3,64,95,0
3,40,88,0
3,68,90,60
3,59,83,0
3,64,90,0
3,59,75,56
3,40,81,0
3,64,88,0
3,69,90,0
3,52,75,0
3,57,77,2
3,50,83,0
3,69,86,0
3,66,79,0
3,62,81,0
3,71,93,1106
3,69,93,26
3,66,81,6
3,62,79,32
3,66,64,32
3,48,70,124
3,36,68,0
3,60,79,0
3,67,79,0
3,59,75,0
3,64,83,0
3,66,77,62
3,57,86,0
3,64,88,0
3,62,90,0
3,50,81,288
3,57,77,0
3,66,70,0
3,62,79,0
3,64,83,0
3,57,75,20
3,62,77,0
3,66,70,0
3,64,77,0
3,50,93,2
3,57,73,36
3,66,68,0
3,62,73,0
3,64,79,0
3,80,106,0
3,40,75,0
3,92,106,0
3,52,73,0
3,56,75,0
3,59,81,0
3,81,106,64
3,93,106,0
3,83,106,54
3,95,106,0
3,76,106,58
3,88,106,0
3,56,58,384
3,64,79,0
