track,note,velocity,time
0,78,78,2
0,78,0,48
0,79,108,2
0,43,61,19
0,55,61,0
0,62,55,0
0,71,56,0
0,79,0,292
0,79,95,385
0,43,0,89
0,55,0,0
0,62,0,0
0,71,0,0
0,42,54,2
0,54,67,0
0,64,52,0
0,69,59,0
0,79,0,3
0,78,95,2
0,78,0,94
0,78,104,2
0,78,0,94
0,79,97,2
0,79,0,51
0,81,97,2
0,64,0,89
0,62,59,2
0,79,95,101
0,81,0,15
0,79,0,79
0,78,99,2
0,78,0,93
0,81,87,3
0,42,0,89
0,54,0,0
0,69,0,0
0,40,68,2
0,52,62,0
0,67,59,0
0,81,0,99
0,79,92,2
0,79,0,383
0,79,97,193
0,40,0,89
0,52,0,0
0,67,0,0
0,38,61,2
0,50,57,0
0,66,59,0
0,78,107,5
0,79,0,10
0,78,0,84
0,78,110,2
0,78,0,94
0,79,108,2
0,79,0,94
0,81,102,2
0,79,97,192
0,81,0,27
0,78,123,69
0,79,0,3
0,62,0,153
0,38,0,29
0,50,0,0
0,66,0,0
0,43,61,2
0,55,61,0
0,62,55,0
0,71,56,0
0,59,68,1
0,62,69,0
0,78,0,2
0,79,100,2
0,79,0,383
0,79,108,289
0,43,0,89
0,55,0,0
0,62,0,0
0,71,0,0
0,59,0,1
0,62,0,0
0,42,54,1
0,54,67,0
0,64,52,0
0,69,59,0
0,57,70,1
0,64,70,0
0,78,116,4
0,79,0,18
0,78,0,76
0,78,113,2
0,78,0,96
0,79,106,0
0,79,0,94
0,81,100,2
0,64,0,89
0,62,59,2
0,62,70,1
0,66,60,0
0,64,0,18
0,57,0,4
0,79,98,78
0,81,0,15
0,79,0,80
0,78,123,1
0,78,0,88
0,81,92,8
0,42,0,89
0,54,0,0
0,69,0,0
0,66,0,1
0,40,68,1
0,52,62,0
0,67,59,0
0,59,64,1
0,64,56,0
0,62,0,19
0,81,0,79
0,79,117,2
0,79,0,383
0,79,112,193
0,40,0,89
0,52,0,0
0,67,0,0
0,38,61,2
0,50,57,0
0,66,59,0
0,57,63,1
0,59,0,0
0,66,59,0
0,78,110,4
0,79,0,9
0,64,0,15
0,78,0,70
0,78,104,2
0,78,0,94
0,79,108,2
0,79,0,94
0,81,97,2
0,79,110,192
0,81,0,15
0,78,127,81
0,79,0,6
0,62,0,150
0,38,0,29
0,50,0,0
0,66,0,0
0,57,0,1
0,66,0,0
0,40,84,1
0,52,80,0
0,40,61,1
0,52,53,0
0,78,0,2
0,40,97,2
0,40,97,0
0,79,106,0
0,40,0,77
0,40,0,17
0,40,97,50
0,40,97,0
0,40,0,47
0,79,0,0
0,79,50,1
0,40,0,13
0,79,0,1
0,40,97,82
0,40,97,0
0,40,0,51
0,40,0,16
0,52,97,317
0,52,69,0
0,52,0,48
0,52,0,18
0,40,97,30
0,40,97,0
0,40,0,54
0,40,0,35
0,40,97,55
0,40,97,0
0,40,0,50
0,40,0,19
0,40,97,75
0,40,97,0
0,40,0,48
0,40,0,18
0,40,0,367
0,52,0,36
0,40,0,5
0,52,0,0
0,40,97,6
0,40,97,0
0,40,0,77
0,40,0,17
0,66,127,2
0,40,97,48
0,40,97,0
0,40,0,47
0,40,0,1
0,40,97,24
0,40,97,0
0,73,110,0
0,66,0,23
0,40,0,28
0,40,0,16
0,52,97,317
0,52,69,0
0,52,0,48
0,52,0,18
0,40,97,30
0,40,97,0
0,40,0,54
0,40,0,35
0,40,97,55
0,40,97,0
0,40,0,50
0,40,0,19
0,40,97,75
0,40,97,0
0,40,0,48
0,40,0,18
0,42,127,126
0,40,112,48
0,42,0,9
0,50,62,82
0,62,67,0
0,55,55,1
0,59,54,0
0,64,55,0
0,73,0,2
0,28,86,2
0,36,125,0
0,40,97,0
0,40,82,0
0,42,65,0
0,36,0,4
0,42,0,0
0,40,0,43
0,40,57,1
0,44,65,0
0,44,0,4
0,40,0,14
0,40,0,0
0,40,33,30
0,46,58,0
0,46,0,4
0,28,0,8
0,40,0,6
0,40,97,30
0,40,95,0
0,42,61,0
0,42,0,4
0,40,0,14
0,40,0,25
0,28,80,5
0,36,125,0
0,40,57,0
0,42,65,0
0,36,0,4
0,42,0,0
0,40,0,39
0,40,29,5
0,40,0,43
0,28,0,2
0,40,97,3
0,40,97,0
0,46,58,0
0,46,0,4
0,40,0,43
0,28,57,1
0,40,57,0
0,44,65,0
0,44,0,4
0,28,0,9
0,40,0,3
0,40,0,0
0,28,84,32
0,36,125,0
0,40,21,0
0,42,65,0
0,36,0,4
0,42,0,0
0,40,0,12
0,28,0,16
0,44,65,16
0,44,0,4
0,28,76,44
0,40,97,0
0,40,97,0
0,46,58,0
0,46,0,4
0,40,0,43
0,40,57,1
0,42,68,0
0,40,0,2
0,40,0,0
0,42,0,2
0,31,88,44
0,36,125,0
0,40,21,0
0,42,65,0
0,43,97,0
0,43,97,0
0,40,0,2
0,36,0,2
0,42,0,0
0,28,0,1
0,43,0,42
0,43,57,1
0,43,0,8
0,43,0,0
0,46,58,23
0,52,97,0
0,52,97,0
0,46,0,4
0,52,0,43
0,44,65,1
0,52,57,0
0,44,0,4
0,52,0,1
0,52,0,0
0,31,0,41
0,40,0,0
0,28,79,2
0,40,97,0
0,52,57,0
0,36,125,0
0,40,97,0
0,42,65,0
0,36,0,4
0,42,0,0
0,52,0,1
0,40,0,42
0,40,29,1
0,44,65,0
0,44,0,4
0,40,0,8
0,40,0,0
0,40,57,36
0,46,58,0
0,28,0,3
0,46,0,1
0,40,0,8
0,40,97,36
0,40,90,0
0,42,68,0
0,42,0,4
0,40,0,8
0,28,82,36
0,36,125,0
0,40,57,0
0,40,0,0
0,42,65,0
0,40,0,1
0,36,0,3
0,42,0,0
0,40,25,44
0,40,0,1
0,28,0,39
0,40,97,8
0,40,97,0
0,46,58,0
0,40,0,1
0,46,0,3
0,28,59,44
0,40,57,0
0,44,65,0
0,44,0,4
0,40,0,5
0,40,0,0
0,28,0,8
0,28,109,31
0,36,125,0
0,40,21,0
0,42,65,0
0,36,0,4
0,42,0,0
0,40,0,5
0,28,0,37
0,44,65,2
0,44,0,4
0,46,58,44
0,46,0,4
0,42,68,44
0,42,0,4
0,36,125,44
0,42,65,0
0,36,0,4
0,42,0,0
0,46,58,92
0,46,0,4
0,44,63,44
0,44,0,4
0,28,86,44
0,79,56,0
0,36,125,0
0,42,65,0
0,36,0,4
0,42,0,0
0,79,0,6
0,44,65,38
0,44,0,4
0,46,58,44
0,66,127,0
0,46,0,4
0,28,0,8
0,42,61,36
0,42,0,4
0,28,80,44
0,36,125,0
0,42,65,0
0,79,1,0
0,36,0,4
0,42,0,0
0,79,0,2
0,28,0,21
0,46,58,3
0,73,110,0
0,46,0,4
0,66,0,19
0,28,57,25
0,44,65,0
0,44,0,4
0,28,0,9
0,28,84,35
0,36,125,0
0,42,65,0
0,79,52,0
0,36,0,4
0,42,0,0
0,79,0,2
0,28,0,26
0,44,65,16
0,44,0,4
0,28,76,44
0,46,58,0
0,46,0,4
0,42,68,44
0,42,0,4
0,31,88,44
0,36,125,0
0,42,65,0
0,79,1,0
0,79,0,3
0,36,0,1
0,42,0,0
0,28,0,1
0,46,58,23
0,46,0,4
0,44,65,44
0,44,0,4
0,31,0,14
0,28,109,2
0,36,125,0
0,42,65,0
0,79,47,0
0,79,0,3
0,36,0,1
0,42,0,0
0,44,65,16
0,44,0,4
0,28,0,14
0,46,58,2
0,46,0,4
0,42,68,16
0,42,0,4
0,28,104,16
0,42,65,0
0,79,1,0
0,42,0,4
0,79,0,2
0,28,0,6
0,46,58,10
0,46,0,4
0,28,74,16
0,44,65,0
0,44,0,4
0,26,82,16
0,42,65,0
0,79,43,0
0,42,0,4
0,79,0,2
0,28,0,6
0,44,65,16
0,44,0,4
0,26,0,9
0,28,79,7
0,46,58,0
0,46,0,4
0,42,68,16
0,42,0,4
0,28,0,9
0,31,79,7
0,42,65,0
0,79,1,0
0,42,0,4
0,33,81,16
0,46,58,0
0,46,0,4
0,31,0,4
0,44,63,17
0,44,0,4
0,79,0,1
0,50,0,33
0,62,0,0
0,33,0,1
0,55,0,0
0,59,0,0
0,64,0,0
0,55,73,1
0,55,80,3
0,59,80,0
0,62,80,0
0,73,0,0
0,31,109,2
0,36,125,0
0,42,65,0
0,43,70,0
0,55,70,0
0,57,83,0
0,59,70,0
0,67,70,0
0,74,125,0
0,36,0,4
0,42,0,0
0,57,0,0
0,59,0,34
0,55,0,4
0,31,0,6
0,43,0,0
0,44,65,0
0,44,0,4
0,67,0,3
0,74,0,31
0,43,40,10
0,55,40,0
0,59,40,0
0,46,58,0
0,74,125,1
0,46,0,3
0,43,0,18
0,55,0,0
0,59,0,0
0,31,109,26
0,42,61,0
0,43,70,0
0,55,70,0
0,59,70,0
0,67,68,0
0,42,0,4
0,59,0,37
0,55,0,5
0,28,72,2
0,31,0,0
0,36,125,0
0,42,65,0
0,43,0,0
0,67,0,0
0,28,0,4
0,36,0,0
0,42,0,0
0,74,0,21
0,43,40,23
0,55,40,0
0,59,40,0
0,43,0,22
0,55,0,0
0,59,0,0
0,76,127,25
0,31,109,1
0,43,70,0
0,46,58,0
0,55,70,0
0,62,70,0
0,71,60,0
0,46,0,4
0,55,0,37
0,62,0,0
0,44,65,7
0,71,0,0
0,44,0,4
0,31,0,5
0,43,0,0
0,36,125,28
0,42,65,0
0,43,40,0
0,55,40,0
0,62,40,0
0,36,0,4
0,42,0,0
0,43,0,18
0,55,0,0
0,62,0,0
0,44,65,26
0,44,0,4
0,76,0,40
0,71,114,3
0,31,109,1
0,43,70,0
0,46,58,0
0,55,70,0
0,59,70,0
0,67,59,0
0,46,0,4
0,71,0,6
0,71,117,1
0,59,0,30
0,55,0,1
0,31,0,1
0,43,0,0
0,42,68,5
0,42,0,4
0,67,0,17
0,28,72,27
0,36,125,0
0,42,65,0
0,43,40,0
0,55,40,0
0,59,40,0
0,28,0,4
0,36,0,0
0,42,0,0
0,43,0,18
0,55,0,0
0,59,0,0
0,71,0,12
0,31,109,62
0,43,70,0
0,46,58,0
0,55,70,0
0,59,70,0
0,67,68,0
0,46,0,4
0,74,127,3
0,67,0,26
0,55,0,5
0,59,0,3
0,44,65,7
0,31,0,2
0,43,0,0
0,44,0,2
0,55,0,32
0,54,80,10
0,57,80,0
0,30,109,2
0,36,125,0
0,42,70,0
0,42,65,0
0,43,40,0
0,54,70,0
0,55,40,0
0,57,70,0
0,59,40,0
0,66,71,0
0,36,0,4
0,42,0,0
0,54,84,2
0,43,0,16
0,55,0,0
0,59,0,0
0,55,0,5
0,59,0,3
0,54,0,5
0,74,0,6
0,57,0,1
0,66,0,4
0,44,65,2
0,44,0,4
0,30,0,6
0,42,0,0
0,42,40,38
0,46,58,0
0,54,40,0
0,57,40,0
0,46,0,4
0,74,127,7
0,42,0,11
0,54,0,0
0,57,0,0
0,30,109,26
0,42,70,0
0,42,68,0
0,54,70,0
0,57,70,0
0,66,65,0
0,42,0,4
0,54,0,35
0,57,0,0
0,28,72,9
0,36,125,0
0,42,65,0
0,28,0,4
0,30,0,0
0,36,0,0
0,42,0,0
0,42,0,0
0,66,0,5
0,74,0,26
0,42,40,13
0,54,40,0
0,57,40,0
0,42,0,22
0,54,0,0
0,57,0,0
0,30,109,26
0,42,70,0
0,46,58,0
0,54,70,0
0,62,70,0
0,69,66,0
0,76,122,2
0,46,0,2
0,62,0,35
0,54,0,6
0,44,63,3
0,44,0,4
0,30,0,1
0,42,0,0
0,69,0,5
0,36,125,38
0,42,40,0
0,42,65,0
0,54,40,0
0,62,40,0
0,36,0,4
0,42,0,0
0,42,0,18
0,54,0,0
0,62,0,0
0,76,0,24
0,44,65,2
0,44,0,4
0,30,109,44
0,42,70,0
0,46,58,0
0,54,70,0
0,57,70,0
0,66,67,0
0,46,0,4
0,78,127,2
0,57,0,38
0,54,0,2
0,42,68,2
0,42,0,4
0,30,0,2
0,42,0,0
0,66,0,12
0,28,72,30
0,36,125,0
0,42,40,0
0,42,65,0
0,54,40,0
0,57,40,0
0,28,0,4
0,36,0,0
0,42,0,0
0,42,0,18
0,54,0,0
0,57,0,0
0,78,0,14
0,78,123,59
0,30,109,1
0,42,70,0
0,46,58,0
0,54,70,0
0,57,70,0
0,66,68,0
0,46,0,4
0,66,0,30
0,30,0,3
0,42,0,0
0,57,0,0
0,54,0,3
0,44,63,8
0,44,0,4
0,52,83,24
0,54,0,14
0,54,0,1
0,57,0,1
0,52,80,2
0,59,80,0
0,28,86,2
0,36,125,0
0,40,70,0
0,42,65,0
0,59,70,0
0,67,66,0
0,36,0,4
0,42,0,0
0,59,0,34
0,67,0,4
0,40,0,6
0,44,65,0
0,44,0,4
0,28,0,3
0,40,40,41
0,46,58,0
0,59,40,0
0,67,40,0
0,79,100,2
0,46,0,2
0,78,0,6
0,40,0,12
0,59,0,0
0,67,0,0
0,28,90,26
0,40,70,0
0,42,61,0
0,59,70,0
0,67,73,0
0,42,0,4
0,59,0,37
0,67,0,5
0,28,72,2
0,36,125,0
0,40,0,0
0,42,65,0
0,28,0,4
0,36,0,0
0,42,0,0
0,28,0,3
0,79,0,18
0,40,40,23
0,59,40,0
0,67,40,0
0,40,0,22
0,59,0,0
0,67,0,0
0,28,94,26
0,40,70,0
0,46,58,0
0,62,70,0
0,67,70,0
0,71,62,0
0,46,0,4
0,62,0,37
0,67,0,0
0,44,65,7
0,44,0,4
0,71,0,1
0,28,0,1
0,40,0,3
0,36,125,39
0,40,40,0
0,42,65,0
0,62,40,0
0,67,40,0
0,36,0,4
0,42,0,0
0,40,0,18
0,62,0,0
0,67,0,0
0,44,65,26
0,44,0,4
0,28,96,44
0,40,70,0
0,46,58,0
0,59,70,0
0,67,61,0
0,46,0,4
0,59,0,37
0,67,0,1
0,40,0,1
0,42,68,5
0,42,0,4
0,28,0,3
0,28,72,41
0,36,125,0
0,40,40,0
0,42,65,0
0,59,40,0
0,67,40,0
0,28,0,4
0,36,0,0
0,42,0,0
0,40,0,18
0,59,0,0
0,67,0,0
0,28,90,74
0,40,70,0
0,46,58,0
0,59,70,0
0,67,67,0
0,46,0,4
0,67,0,34
0,59,0,3
0,28,0,1
0,44,65,6
0,40,0,2
0,44,0,2
0,50,85,27
0,52,0,12
0,50,80,3
0,26,92,2
0,36,125,0
0,38,70,0
0,42,65,0
0,59,70,0
0,67,66,0
0,36,0,4
0,42,0,0
0,52,0,7
0,59,0,27
0,67,0,4
0,38,0,6
0,44,65,0
0,44,0,4
0,26,0,3
0,38,40,41
0,46,58,0
0,59,40,0
0,67,40,0
0,46,0,4
0,38,0,18
0,59,0,0
0,67,0,0
0,26,104,26
0,38,70,0
0,42,68,0
0,59,70,0
0,67,70,0
0,42,0,4
0,59,0,37
0,67,0,5
0,28,72,2
0,36,125,0
0,38,0,0
0,42,65,0
0,26,0,2
0,28,0,2
0,36,0,0
0,42,0,0
0,38,40,44
0,59,40,0
0,67,40,0
0,38,0,22
0,59,0,0
0,67,0,0
0,26,102,26
0,38,70,0
0,46,58,0
0,62,70,0
0,67,70,0
0,71,59,0
0,46,0,4
0,62,0,37
0,67,0,0
0,44,65,7
0,26,0,1
0,44,0,3
0,71,0,2
0,38,0,3
0,36,125,39
0,38,40,0
0,42,65,0
0,62,40,0
0,67,40,0
0,81,127,2
0,36,0,2
0,42,0,0
0,38,0,18
0,62,0,0
0,67,0,0
0,44,65,7
0,44,0,4
0,26,104,44
0,38,70,0
0,46,58,0
0,59,70,0
0,67,64,0
0,46,0,4
0,59,0,37
0,67,0,1
0,38,0,1
0,42,68,5
0,42,0,4
0,26,0,2
0,28,72,1
0,36,125,0
0,38,40,0
0,42,65,0
0,59,40,0
0,67,40,0
0,28,0,4
0,36,0,0
0,42,0,0
0,38,0,13
0,59,0,0
0,67,0,0
0,26,99,74
0,38,70,0
0,46,58,0
0,59,70,0
0,67,68,0
0,46,0,4
0,62,0,33
0,26,0,1
0,67,0,0
0,59,0,3
0,44,63,7
