track,note,velocity,time
1,88,108,1536
1,76,104,1
1,40,100,65
1,47,79,102
1,52,96,45
1,56,87,16
1,59,79,84
1,64,88,63
1,68,91,29
1,71,103,12
1,86,114,613
1,74,119,2
1,88,119,29
1,76,117,2
1,40,113,58
1,47,82,130
1,52,100,59
1,56,94,26
1,59,85,74
1,64,95,48
1,68,97,32
1,71,102,36
1,74,111,546
1,86,115,2
1,89,117,39
1,77,115,2
1,86,111,88
1,74,111,2
1,76,115,68
1,88,112,0
1,74,106,142
1,86,110,2
1,89,114,62
1,77,109,3
1,86,100,188
1,74,82,8
1,76,117,51
1,88,117,1
1,40,109,152
1,47,82,102
1,52,101,46
1,56,96,13
1,59,87,76
1,64,96,53
1,68,92,19
1,71,104,25
1,86,113,601
1,74,103,4
1,89,117,86
1,77,106,6
1,86,110,37
1,74,108,11
1,88,115,61
1,76,111,7
1,86,110,48
1,74,110,4
1,89,111,37
1,77,107,3
1,74,103,38
1,86,103,13
1,76,111,27
1,88,111,2
1,40,100,10
1,47,77,0
1,56,96,91
1,59,87,63
1,64,95,11
1,68,97,54
1,74,97,102
1,86,105,10
1,76,110,71
1,88,115,6
1,86,106,110
1,74,98,4
1,88,100,79
1,76,105,0
1,74,110,335
1,86,102,0
1,89,116,2
1,77,113,0
1,40,101,108
1,48,98,94
1,53,100,45
1,57,98,35
1,60,98,59
1,65,98,35
1,69,102,44
1,72,113,34
1,91,112,271
1,79,108,2
1,77,122,68
1,89,122,0
1,40,111,73
1,48,103,65
1,53,95,50
1,57,100,30
1,60,99,72
1,65,99,39
1,69,102,55
1,72,120,0
1,91,103,880
1,79,97,0
1,77,107,78
1,89,111,0
1,79,105,67
1,91,110,6
1,77,113,81
1,89,112,0
1,91,113,90
1,79,108,2
1,77,123,62
1,89,123,1
1,40,105,16
1,48,95,87
1,53,94,56
1,57,95,25
1,60,95,75
1,65,88,48
1,69,98,29
1,77,113,3
1,88,113,44
1,76,101,8
1,86,110,144
1,74,95,7
1,84,110,10
1,72,98,8
1,82,111,69
1,70,101,5
1,84,98,7
1,72,108,4
1,86,108,71
1,74,105,7
1,76,101,59
1,88,108,0
1,89,108,6
1,77,106,0
1,88,91,28
1,76,103,9
1,86,102,0
1,74,101,1
1,84,100,49
1,72,92,3
1,70,95,62
1,82,106,0
1,83,34,32
1,84,97,24
1,72,84,0
1,74,103,14
1,86,101,1
1,88,106,14
1,76,101,4
1,89,110,60
1,77,105,0
1,88,101,3
1,76,99,14
1,74,110,1
1,86,106,2
1,84,96,27
1,72,89,8
1,70,105,54
1,82,111,15
1,84,96,63
1,72,90,6
1,86,109,19
1,74,107,15
1,88,110,2
1,76,110,9
1,89,113,71
1,77,110,7
1,88,99,65
1,76,113,12
1,86,109,43
1,74,114,8
1,84,113,72
1,72,108,7
1,70,110,38
1,82,117,0
1,72,108,77
1,84,105,4
1,74,106,79
1,86,108,8
1,77,112,0
1,89,117,4
1,88,121,88
1,76,123,2
1,85,52,32
1,40,111,33
1,47,83,132
1,52,103,36
1,56,96,11
1,59,89,81
1,64,96,59
1,68,96,46
1,71,107,15
1,74,113,532
1,86,115,4
1,88,113,138
1,76,113,12
1,76,92,355
1,74,61,58
1,76,71,94
1,71,40,1261
1,64,38,8
1,55,23,40
1,48,18,31
1,69,43,27
1,54,41,144
1,71,68,0
1,63,56,3
1,47,42,11
1,71,74,477
1,64,63,7
1,55,37,24
1,48,34,8
1,69,44,2
1,71,41,13
1,63,43,0
1,54,25,27
1,47,23,20
1,69,63,80
1,72,94,99
1,45,59,3
1,55,59,4
1,64,71,0
1,69,88,24
1,63,72,80
1,54,66,0
1,71,84,4
1,47,54,1
1,69,83,35
1,72,81,10
1,55,46,14
1,64,61,1
1,45,48,4
1,69,57,121
1,54,44,5
1,71,59,8
1,63,44,2
1,47,34,21
1,64,57,148
1,55,42,18
1,48,37,7
1,69,59,85
1,71,52,147
1,54,44,7
1,63,44,9
1,47,33,12
1,69,40,19
1,55,53,12
1,64,65,4
1,72,88,0
1,45,50,13
1,69,81,40
1,63,67,78
1,54,56,8
1,71,80,4
1,47,54,10
1,69,76,59
1,72,82,24
1,55,46,18
1,64,58,0
1,45,46,8
1,69,63,93
1,71,52,21
1,63,49,0
1,54,37,3
1,47,33,0
1,69,65,5
1,72,86,9
1,64,69,11
1,55,52,2
1,45,56,2
1,71,83,36
1,65,76,119
1,57,63,6
1,74,88,0
1,43,51,14
1,72,92,11
1,71,61,106
1,64,64,2
1,55,45,2
1,48,47,6
1,69,72,150
1,71,49,88
1,54,50,3
1,63,58,0
1,47,43,19
1,69,60,6
1,72,68,80
1,55,58,2
1,64,50,2
1,71,49,20
1,74,51,25
1,66,34,0
1,57,39,4
1,72,42,68
1,71,24,0
1,64,31,2
1,48,24,19
1,55,21,4
1,69,21,109
1,71,30,185
1,63,26,3
1,54,20,7
1,47,18,23
1,64,31,58
1,55,14,6
1,48,23,16
1,69,13,87
1,63,29,9
1,54,22,2
1,71,37,6
1,47,22,25
1,64,37,97
1,48,24,7
1,55,24,1
1,69,30,138
1,63,23,100
1,71,41,0
1,54,18,9
1,47,24,16
1,64,26,39
1,55,15,0
1,48,25,19
1,69,27,46
1,71,23,64
1,63,14,8
1,54,17,6
1,47,18,2
1,67,35,196
1,59,17,14
1,43,20,0
1,50,20,4
1,64,18,6
1,66,42,6
1,62,29,19
1,38,34,4
1,67,60,25
1,59,36,11
1,50,31,16
1,43,20,3
1,55,37,126
1,59,22,51
1,62,14,7
1,66,56,19
1,64,20,8
1,38,33,18
1,62,9,0
1,64,17,10
1,67,37,80
1,59,17,9
1,50,19,12
1,43,20,8
1,52,22,206
1,66,41,15
1,60,21,33
1,50,37,12
1,45,29,4
1,64,44,0
1,62,39,4
1,38,37,11
1,66,54,21
1,60,35,31
1,50,41,1
1,45,45,4
1,54,47,26
1,60,14,51
1,45,9,15
1,64,49,18
1,62,33,6
1,38,37,1
1,66,42,271
1,60,32,6
1,45,26,16
1,50,20,7
1,67,36,50
1,43,24,2
1,59,19,9
1,64,26,6
1,50,15,2
1,66,56,4
1,62,40,9
1,38,35,12
1,67,72,44
1,59,45,8
1,64,19,0
1,50,33,2
1,43,27,19
1,55,48,91
1,59,22,69
1,62,46,16
1,64,43,32
1,66,67,20
1,38,26,45
1,67,48,92
1,50,27,28
1,59,18,2
1,43,20,6
1,64,23,4
1,52,31,138
1,66,43,29
1,60,28,4
1,45,37,17
1,50,43,6
1,64,38,4
1,62,39,2
1,38,37,17
1,69,80,248
1,66,39,19
1,60,42,0
1,52,26,8
1,45,25,6
1,50,17,23
1,71,76,81
1,64,42,40
1,62,27,3
1,38,20,20
1,50,22,8
1,64,25,89
1,72,92,108
1,66,36,37
1,60,31,0
1,45,23,18
1,50,14,1
1,52,19,4
1,59,44,52
1,64,32,58
1,67,47,81
1,43,22,81
1,50,21,15
1,74,81,74
1,66,46,187
1,62,20,23
1,38,12,26
1,67,46,81
1,50,26,29
1,59,21,2
1,43,19,21
1,55,11,119
1,59,13,17
1,66,35,60
1,50,23,13
1,38,20,6
1,67,36,139
1,50,25,27
1,43,25,10
1,59,10,5
1,52,31,298
1,66,42,46
1,45,45,15
1,60,26,0
1,50,43,11
1,64,50,112
1,38,41,11
1,62,35,3
1,69,82,100
1,66,47,2
1,60,32,11
1,50,29,7
1,45,39,0
1,71,77,115
1,38,32,2
1,64,55,15
1,62,42,12
1,72,80,149
1,60,20,15
1,66,45,2
1,50,27,4
1,45,33,27
1,59,17,57
1,71,54,40
1,64,46,16
1,43,29,22
1,50,25,3
1,69,64,12
1,62,38,13
1,38,40,7
1,67,74,149
1,43,24,27
1,50,42,8
1,55,40,111
1,62,31,69
1,66,70,35
1,38,26,25
1,64,64,86
1,59,32,14
1,50,24,8
1,43,22,19
1,66,48,250
1,54,24,17
1,50,29,25
1,45,33,4
1,60,28,17
1,62,31,4
1,52,34,8
1,38,9,15
1,54,28,8
1,60,34,19
1,50,35,4
1,45,29,11
1,62,37,33
1,52,32,3
1,38,33,0
1,50,34,19
1,54,22,2
1,60,37,15
1,45,35,6
1,59,40,170
1,52,35,0
1,67,72,8
1,50,37,15
1,43,28,11
1,66,75,11
1,38,45,18
1,62,37,5
1,64,83,154
1,52,43,17
1,59,39,2
1,43,30,14
1,54,40,110
1,62,69,31
1,50,22,29
1,38,39,0
1,59,60,125
1,55,36,15
1,50,36,4
1,43,36,21
1,60,72,107
1,54,48,10
1,45,47,14
1,52,63,108
1,38,42,9
1,62,78,0
1,54,53,8
1,45,51,24
1,52,53,50
1,54,50,7
1,60,26,38
1,64,82,83
1,38,38,23
1,66,69,196
1,50,31,26
1,60,30,0
1,45,37,14
1,64,71,8
1,55,36,2
1,50,31,15
1,59,33,3
1,43,26,5
1,54,43,182
1,62,66,2
1,38,37,10
1,64,78,81
1,55,54,4
1,50,26,11
1,43,26,9
1,54,46,108
1,59,39,40
1,66,67,54
1,38,37,28
1,59,9,36
1,62,60,181
1,55,28,17
1,59,19,10
1,43,25,19
1,50,13,10
1,50,18,151
1,54,31,14
1,45,33,4
1,64,48,14
1,60,20,27
1,38,40,24
1,62,41,7
1,69,80,177
1,54,28,21
1,60,36,8
1,45,35,23
1,71,56,202
1,38,37,15
1,62,60,10
1,72,86,329
1,45,29,16
1,66,40,10
1,50,27,21
1,60,15,5
1,43,34,29
1,50,40,67
1,59,41,31
1,64,46,79
1,67,47,86
1,74,80,6
1,66,44,162
1,62,37,4
1,38,26,23
1,67,42,39
1,59,26,8
1,50,26,7
1,43,26,4
1,64,19,10
1,59,13,122
1,66,42,55
1,64,26,24
1,50,24,2
1,38,20,11
1,67,29,4
1,50,22,17
1,64,16,4
1,59,14,2
1,43,16,11
1,66,45,184
1,60,24,12
1,45,33,22
1,50,26,15
1,64,55,12
1,38,38,15
1,62,35,6
1,69,82,170
1,50,33,10
1,66,54,2
1,60,27,10
1,45,31,8
1,71,75,45
1,62,34,29
1,64,34,4
1,38,27,15
1,72,91,78
1,60,39,27
1,66,37,13
1,45,29,38
1,50,20,4
1,59,31,108
1,71,59,199
1,43,26,37
1,64,33,0
1,50,24,6
1,69,48,109
1,38,25,82
1,62,33,18
1,43,26,84
1,67,47,1
1,50,24,1
1,38,11,77
1,67,60,29
1,59,16,48
1,43,25,245
1,55,24,0
1,41,46,446
1,56,44,317
1,60,43,3
1,50,37,12
1,34,54,23
1,62,60,4
1,53,55,1
1,58,54,8
1,60,60,131
1,50,56,7
1,56,60,15
1,38,60,4
1,52,60,52
1,54,66,45
1,59,60,62
1,62,88,52
1,43,67,105
1,52,70,19
1,55,89,4
1,59,67,89
1,64,79,40
1,54,76,127
1,52,47,27
1,38,58,4
1,43,57,0
1,55,71,12
1,50,56,19
1,54,51,109
1,52,47,16
1,38,27,3
1,50,36,76
1,55,16,8
1,43,30,2
1,41,36,73
1,60,34,386
1,50,25,9
1,56,36,0
1,34,38,42
1,62,43,9
1,58,49,0
1,53,37,10
1,60,43,206
1,56,38,2
1,50,43,1
1,38,26,77
1,52,30,29
1,54,35,67
1,59,30,36
1,62,39,86
1,43,30,274
1,50,50,83
1,79,93,132
1,67,60,8
1,76,61,5
1,71,40,12
1,59,46,5
1,74,45,3
1,78,85,127
1,66,56,4
1,76,55,9
1,71,32,7
1,38,47,3
1,74,47,19
1,67,68,96
1,79,85,0
1,71,43,2
1,74,54,9
1,76,47,3
1,43,38,7
1,50,33,6
1,66,35,200
1,78,66,4
1,76,44,5
1,74,17,6
1,71,28,4
1,38,37,6
1,79,63,119
1,76,54,21
1,67,36,0
1,71,38,1
1,74,43,19
1,43,21,14
1,50,27,4
1,66,58,122
1,78,69,18
1,72,49,11
1,45,44,4
1,50,28,8
1,74,42,7
1,76,47,3
1,76,94,36
1,64,61,7
1,74,63,10
1,38,41,8
1,72,49,3
1,66,64,132
1,78,82,0
1,72,68,12
1,74,62,5
1,50,42,7
1,45,46,16
1,76,92,106
1,64,52,7
1,74,70,14
1,72,47,8
1,38,45,11
1,78,69,183
1,66,39,9
1,72,51,16
1,74,22,5
1,50,28,26
1,45,39,1
1,74,44,59
1,71,31,53
1,43,29,6
1,50,37,42
1,67,56,7
1,59,31,43
1,67,27,45
1,62,36,50
1,66,46,5
1,38,24,55
1,67,48,10
1,50,26,29
1,59,14,2
1,43,26,0
1,64,31,4
1,66,38,18
1,62,27,21
1,38,27,4
1,67,29,13
1,43,23,35
1,59,13,5
1,64,23,10
1,50,14,2
1,66,35,221
1,60,27,14
1,45,23,21
1,50,16,17
1,64,31,49
1,38,24,4
1,62,16,1
1,81,98,276
1,69,49,25
1,66,51,4
1,78,13,25
1,83,97,134
1,64,50,16
1,71,59,7
1,74,44,14
1,76,44,4
1,38,38,43
1,84,115,201
1,72,85,13
1,78,57,12
1,66,49,11
1,76,40,6
1,43,39,227
1,50,30,4
1,86,109,16
1,76,52,23
1,83,59,0
1,74,75,8
1,66,52,198
1,62,46,11
1,38,29,41
1,50,22,1
1,67,51,75
1,43,30,10
1,59,26,3
1,50,22,9
1,64,28,10
1,66,54,15
1,62,24,35
1,50,30,2
1,38,27,11
1,67,45,94
1,50,32,17
1,59,17,8
1,43,19,11
1,64,29,8
1,66,40,294
1,60,28,21
1,45,40,8
1,50,24,15
1,64,43,27
1,62,32,16
1,38,39,3
1,81,97,247
1,69,57,12
1,66,57,6
1,78,47,2
1,54,32,25
1,83,98,105
1,64,55,6
1,38,39,4
1,71,57,5
1,76,68,4
1,62,42,2
1,45,46,8
1,50,52,1
1,84,109,188
1,72,73,21
1,66,54,10
1,78,42,0
1,60,19,40
1,83,95,202
1,43,55,8
1,50,38,3
1,71,57,2
1,76,69,10
1,74,46,14
1,81,103,79
1,69,49,21
1,76,49,2
1,38,41,10
1,74,20,7
1,79,102,116
1,74,68,19
1,67,65,0
1,43,39,9
1,71,33,2
1,50,38,10
1,78,97,123
1,66,55,12
1,71,37,24
1,74,51,10
1,38,40,6
1,76,101,208
1,64,50,21
1,74,45,10
1,43,30,15
1,71,23,0
1,50,27,17
1,78,81,171
1,66,40,16
1,74,35,4
1,72,49,4
1,50,32,7
1,45,43,10
1,52,50,200
1,60,10,2
1,38,25,4
1,54,46,33
1,62,45,10
1,50,31,27
1,45,32,11
1,52,42,21
1,60,39,4
1,38,40,8
1,54,41,103
1,62,41,3
1,50,24,28
1,45,21,20
1,43,45,194
1,50,43,79
1,79,101,100
1,67,68,7
1,71,41,12
1,59,51,31
1,78,97,138
1,66,76,0
1,74,59,21
1,38,53,20
1,67,75,179
1,76,102,13
1,64,28,1
1,43,25,22
1,50,36,0
1,66,55,104
1,74,98,8
1,62,26,29
1,38,42,6
1,67,73,216
1,71,78,4
1,59,41,8
1,43,38,12
1,50,47,1
1,66,64,113
1,72,90,31
1,50,32,10
1,45,41,4
1,60,38,7
1,64,73,7
1,38,43,11
1,74,103,115
1,66,55,10
1,62,53,8
1,50,44,13
1,45,48,8
1,64,71,63
1,76,103,87
1,74,63,13
1,72,46,21
1,38,41,10
1,78,97,4
1,66,57,12
1,72,51,20
1,50,45,9
1,45,41,7
1,67,54,200
1,76,92,93
1,43,45,4
1,50,35,6
1,71,53,0
1,64,61,2
1,74,96,54
1,66,54,9
1,62,50,2
1,71,35,16
1,50,22,9
1,38,24,6
1,67,76,111
1,43,35,41
1,76,89,3
1,50,35,24
1,64,41,2
1,66,55,177
1,78,75,15
1,71,12,4
1,74,29,1
1,38,29,10
1,67,32,163
1,74,72,56
1,71,36,7
1,50,19,16
1,62,20,0
1,43,24,4
1,76,67,232
1,72,40,18
1,66,43,1
1,45,35,14
1,50,27,11
1,64,66,10
1,38,44,26
1,81,107,301
1,69,74,16
1,66,56,0
1,60,36,36
1,64,44,139
1,83,88,23
1,71,52,13
1,78,45,4
1,76,41,17
1,84,103,190
1,72,59,31
1,78,32,17
1,66,22,6
1,78,12,62
1,43,16,187
1,86,88,13
1,74,61,17
1,76,57,1
1,50,30,2
