track,note,velocity,time
1,59,123,4525
1,68,121,0
1,71,122,0
1,75,121,1
1,78,124,0
1,78,0,28
1,71,0,0
1,59,0,0
1,68,0,0
1,75,0,0
1,59,123,18
1,68,121,1
1,71,122,0
1,75,120,0
1,78,123,0
1,78,0,27
1,71,0,0
1,59,0,0
1,68,0,0
1,75,0,0
1,59,123,20
1,68,121,1
1,71,122,0
1,75,121,0
1,78,124,0
1,59,0,27
1,68,0,4
1,75,0,1
1,71,0,0
1,78,0,0
1,59,123,16
1,68,123,0
1,71,123,0
1,75,123,0
1,78,124,1
1,78,0,26
1,71,0,0
1,59,0,0
1,68,0,0
1,75,0,0
1,59,123,53
1,68,121,0
1,71,121,0
1,75,121,0
1,78,124,1
1,78,0,126
1,71,0,0
1,59,0,0
1,68,0,0
1,75,0,0
1,59,118,33
1,68,118,0
1,71,118,0
1,75,118,1
1,78,118,0
1,78,0,26
1,71,0,0
1,59,0,0
1,68,0,0
1,75,0,0
1,59,122,20
1,68,121,1
1,71,122,0
1,75,120,0
1,78,122,0
1,78,0,27
1,71,0,0
1,59,0,0
1,68,0,0
1,75,0,0
1,59,122,20
1,68,121,1
1,71,121,0
1,75,120,0
1,78,122,0
1,78,0,27
1,71,0,0
1,59,0,0
1,68,0,0
1,75,0,0
1,59,122,21
1,68,122,0
1,71,122,0
1,75,122,0
1,78,122,1
1,71,0,25
1,59,0,0
1,68,0,0
1,75,0,2
1,78,0,2
1,59,119,66
1,63,122,0
1,66,120,0
1,70,117,0
1,75,121,1
1,75,0,93
1,66,0,0
1,59,0,0
1,63,0,0
1,70,0,0
1,59,119,50
1,63,119,0
1,66,119,0
1,70,119,1
1,73,121,0
1,59,0,22
1,63,0,1
1,70,0,3
1,66,0,0
1,73,0,0
1,59,121,20
1,63,121,1
1,66,120,0
1,70,120,0
1,73,121,0
1,66,0,23
1,70,0,2
1,73,0,0
1,63,0,1
1,59,0,0
1,59,122,22
1,63,122,0
1,66,122,0
1,70,123,0
1,73,122,0
1,73,0,22
1,63,0,0
1,66,0,2
1,59,0,1
1,70,0,0
1,59,124,23
1,63,124,0
1,66,124,1
1,70,124,0
1,73,123,0
1,73,0,25
1,59,0,0
1,70,0,0
1,66,0,1
1,63,0,0
1,59,123,53
1,63,123,0
1,66,123,0
1,70,123,0
1,73,123,1
1,59,0,112
1,63,0,1
1,73,0,0
1,66,0,0
1,70,0,1
1,59,120,45
1,63,120,0
1,66,119,1
1,70,119,0
1,73,119,0
1,63,0,22
1,59,0,2
1,66,0,1
1,70,0,1
1,73,0,0
1,59,122,21
1,63,123,0
1,66,122,0
1,70,122,0
1,73,122,1
1,59,0,24
1,63,0,1
1,70,0,1
1,66,0,0
1,73,0,0
1,59,123,21
1,63,124,0
1,66,122,0
1,70,123,0
1,73,122,0
1,59,0,23
1,63,0,1
1,70,0,2
1,66,0,0
1,73,0,0
1,59,124,22
1,63,124,0
1,66,124,0
1,70,124,0
1,73,123,1
1,70,0,28
1,66,0,0
1,63,0,0
1,59,0,2
1,73,0,2
1,59,123,207
1,68,121,0
1,71,122,0
1,75,121,1
1,78,124,0
1,78,0,26
1,71,0,0
1,59,0,0
1,68,0,0
1,75,0,0
1,59,123,20
1,68,121,1
1,71,122,0
1,75,120,0
1,78,123,0
1,78,0,27
1,71,0,0
1,59,0,0
1,68,0,0
1,75,0,0
1,59,123,20
1,68,121,1
1,71,122,0
1,75,121,0
1,78,124,0
1,78,0,27
1,71,0,0
1,59,0,0
1,68,0,0
1,75,0,0
1,59,123,21
1,68,123,0
1,71,123,0
1,75,123,1
1,78,124,0
1,78,0,26
1,71,0,0
1,59,0,0
1,68,0,0
1,75,0,0
1,59,123,53
1,68,121,0
1,71,121,0
1,75,121,0
1,78,124,1
1,59,0,126
1,75,0,1
1,68,0,0
1,71,0,0
1,78,0,0
1,59,118,32
1,68,118,0
1,71,118,0
1,75,118,1
1,78,118,0
1,78,0,26
1,71,0,0
1,59,0,0
1,68,0,0
1,75,0,0
1,59,122,20
1,68,121,1
1,71,122,0
1,75,120,0
1,78,122,0
1,78,0,27
1,71,0,0
1,59,0,0
1,68,0,0
1,75,0,0
1,59,122,20
1,68,121,1
1,71,121,0
1,75,120,0
1,78,122,0
1,78,0,27
1,71,0,0
1,59,0,0
1,68,0,0
1,75,0,0
1,59,122,21
1,68,122,0
1,71,122,0
1,75,122,0
1,78,122,0
1,78,0,27
1,71,0,0
1,59,0,0
1,68,0,0
1,75,0,0
1,59,119,69
1,63,122,0
1,66,120,0
1,70,117,0
1,75,121,1
1,75,0,93
1,66,0,0
1,59,0,0
1,63,0,0
1,70,0,0
1,59,119,50
1,63,119,0
1,66,119,0
1,70,119,1
1,73,121,0
1,59,0,22
1,63,0,1
1,66,0,3
1,70,0,1
1,73,0,0
1,59,121,19
1,63,121,1
1,66,120,0
1,70,120,0
1,73,121,0
1,66,0,23
1,70,0,2
1,73,0,0
1,63,0,1
1,59,0,0
1,59,122,22
1,63,122,0
1,66,122,0
1,70,123,0
1,73,122,0
1,73,0,22
1,63,0,0
1,66,0,2
1,59,0,1
1,70,0,0
1,59,124,23
1,63,124,0
1,66,124,0
1,70,124,1
1,73,123,0
1,73,0,25
1,59,0,0
1,70,0,0
1,66,0,1
1,63,0,0
1,59,123,52
1,63,123,0
1,66,123,0
1,70,123,0
1,73,123,1
1,59,0,112
1,63,0,1
1,66,0,0
1,73,0,1
1,70,0,1
1,59,120,45
1,63,120,0
1,66,119,0
1,70,119,0
1,73,119,0
1,63,0,23
1,59,0,2
1,66,0,1
1,70,0,1
1,73,0,0
1,59,122,21
1,63,123,0
1,66,122,0
1,70,122,0
1,73,122,0
1,59,0,25
1,63,0,1
1,70,0,1
1,66,0,0
1,73,0,0
1,59,123,21
1,63,124,0
1,66,122,0
1,70,123,0
1,73,122,0
1,59,0,23
1,63,0,1
1,70,0,2
1,66,0,0
1,73,0,0
1,59,124,22
1,63,124,0
1,66,124,0
1,70,124,0
1,73,123,1
1,70,0,28
1,66,0,0
1,63,0,0
1,59,0,3
1,73,0,2
1,54,118,206
1,59,123,0
1,68,121,1
1,71,122,0
1,75,121,0
1,78,124,0
1,78,0,26
1,59,0,0
1,68,0,0
1,54,0,0
1,75,0,0
1,71,0,0
1,54,121,20
1,59,123,1
1,68,121,0
1,71,122,0
1,75,120,0
1,78,123,0
1,78,0,27
1,59,0,0
1,68,0,0
1,54,0,0
1,75,0,0
1,71,0,0
1,54,121,20
1,59,123,1
1,68,121,0
1,71,122,0
1,75,121,0
1,78,124,0
1,78,0,27
1,59,0,0
1,68,0,0
1,54,0,0
1,75,0,0
1,71,0,0
1,54,123,21
1,59,123,0
1,68,123,0
1,71,123,1
1,75,123,0
1,78,124,0
1,78,0,26
1,59,0,0
1,68,0,0
1,54,0,0
1,75,0,0
1,71,0,0
1,54,124,53
1,59,123,0
1,68,121,0
1,71,121,1
1,75,121,0
1,78,124,0
1,54,0,125
1,59,0,1
1,75,0,1
1,71,0,0
1,78,0,0
1,68,0,0
1,54,121,32
1,59,118,0
1,68,118,1
1,71,118,0
1,75,118,0
1,78,118,0
1,78,0,26
1,59,0,0
1,68,0,0
1,54,0,0
1,75,0,0
1,71,0,0
1,54,121,20
1,59,122,1
1,68,121,0
1,71,122,0
1,75,120,0
1,78,122,0
1,78,0,27
1,59,0,0
1,68,0,0
1,54,0,0
1,75,0,0
1,71,0,0
1,54,122,20
1,59,122,1
1,68,121,0
1,71,121,0
1,75,120,0
1,78,122,0
1,78,0,27
1,59,0,0
1,68,0,0
1,54,0,0
1,75,0,0
1,71,0,0
1,54,123,21
1,59,122,0
1,68,122,0
1,71,122,0
1,75,122,0
1,78,122,0
1,54,0,23
1,71,0,3
1,59,0,0
1,68,0,0
1,75,0,2
1,78,0,2
1,59,119,66
1,63,122,0
1,66,120,0
1,70,117,0
1,75,121,0
1,75,0,94
1,66,0,0
1,59,0,0
1,63,0,0
1,70,0,0
1,51,121,50
1,59,119,0
1,63,119,1
1,66,119,0
1,70,119,0
1,73,121,0
1,51,0,21
1,59,0,1
1,63,0,0
1,66,0,4
1,70,0,1
1,73,0,0
1,51,122,19
1,59,121,1
1,63,121,0
1,66,120,0
1,70,120,0
1,73,121,0
1,66,0,23
1,70,0,2
1,73,0,0
1,51,0,1
1,63,0,0
1,59,0,0
1,51,123,22
1,59,122,0
1,63,122,0
1,66,122,0
1,70,123,0
1,73,122,1
1,73,0,21
1,63,0,0
1,66,0,1
1,70,0,1
1,59,0,0
1,51,0,1
1,51,123,23
1,59,124,0
1,63,124,0
1,66,124,1
1,70,124,0
1,73,123,0
1,73,0,25
1,59,0,0
1,70,0,0
1,51,0,1
1,66,0,0
1,63,0,0
1,51,124,52
1,59,123,0
1,63,123,0
1,66,123,0
1,70,123,1
1,73,123,0
1,59,0,113
1,63,0,1
1,66,0,0
1,73,0,0
1,70,0,1
1,51,0,6
1,51,120,39
1,59,120,1
1,63,120,0
1,66,119,0
1,70,119,0
1,73,119,0
1,63,0,22
1,59,0,2
1,66,0,1
1,70,0,1
1,73,0,0
1,51,0,1
1,51,123,19
1,59,122,0
1,63,123,0
1,66,122,0
1,70,122,0
1,73,122,1
1,59,0,25
1,51,0,1
1,63,0,0
1,66,0,1
1,70,0,0
1,73,0,0
1,51,123,20
1,59,123,0
1,63,124,0
1,66,122,0
1,70,123,0
1,73,122,1
1,59,0,23
1,63,0,1
1,66,0,2
1,51,0,0
1,73,0,0
1,70,0,0
1,51,124,22
1,59,124,0
1,63,124,0
1,66,124,0
1,70,124,1
1,73,123,0
1,70,0,28
1,66,0,0
1,63,0,0
1,51,0,2
1,59,0,0
1,73,0,2
1,54,120,206
1,59,123,0
1,68,121,0
1,71,122,1
1,75,121,0
1,78,124,0
1,78,0,27
1,59,0,0
1,68,0,0
1,54,0,0
1,75,0,0
1,71,0,0
1,54,121,20
1,59,123,1
1,68,121,0
1,71,122,0
1,75,120,0
1,78,123,0
1,78,0,27
1,59,0,0
1,68,0,0
1,54,0,0
1,75,0,0
1,71,0,0
1,54,121,20
1,59,123,1
1,68,121,0
1,71,122,0
1,75,121,0
1,78,124,0
1,78,0,27
1,59,0,0
1,68,0,0
1,54,0,0
1,75,0,0
1,71,0,0
1,54,123,21
1,59,123,0
1,68,123,0
1,71,123,1
1,75,123,0
1,78,124,0
1,59,0,24
1,54,0,1
1,75,0,1
1,71,0,0
1,78,0,0
1,68,0,0
1,54,124,53
1,59,123,0
1,68,121,0
1,71,121,1
1,75,121,0
1,78,124,0
1,54,0,110
1,59,0,16
1,75,0,1
1,71,0,0
1,78,0,0
1,68,0,0
1,54,119,32
1,59,118,0
1,68,118,0
1,71,118,1
1,75,118,0
1,78,118,0
1,78,0,26
1,59,0,0
1,68,0,0
1,54,0,0
1,75,0,0
1,71,0,0
1,54,123,20
1,59,122,1
1,68,121,0
1,71,122,0
1,75,120,0
1,78,122,0
1,78,0,27
1,59,0,0
1,68,0,0
1,54,0,0
1,75,0,0
1,71,0,0
1,54,123,20
1,59,122,1
1,68,121,0
1,71,121,0
1,75,120,0
1,78,122,0
1,78,0,27
1,59,0,0
1,68,0,0
1,54,0,0
1,75,0,0
1,71,0,0
1,54,123,21
1,59,122,0
1,68,122,0
1,71,122,0
1,75,122,0
1,78,122,0
1,71,0,26
1,68,0,0
1,54,0,0
1,59,0,0
1,75,0,2
1,78,0,2
1,59,119,66
1,63,122,0
1,66,120,0
1,70,117,0
1,75,121,0
1,75,0,94
1,66,0,0
1,59,0,0
1,63,0,0
1,70,0,0
1,49,119,50
1,59,119,1
1,63,119,0
1,66,119,0
1,70,119,0
1,73,121,0
1,59,0,22
1,63,0,1
1,49,0,2
1,66,0,1
1,73,0,1
1,70,0,0
1,49,122,20
1,59,121,0
1,63,121,0
1,66,120,0
1,70,120,0
1,73,121,0
1,66,0,23
1,70,0,2
1,73,0,0
1,59,0,1
1,63,0,0
1,49,0,2
1,49,122,20
1,59,122,0
1,63,122,0
1,66,122,0
1,70,123,0
1,73,122,1
1,73,0,21
1,63,0,0
1,66,0,2
1,49,0,0
1,59,0,1
1,70,0,0
1,49,123,23
1,59,124,1
1,63,124,0
1,66,124,0
1,70,124,0
1,73,123,0
1,49,0,21
1,70,0,4
1,59,0,0
1,73,0,0
1,66,0,1
1,63,0,0
1,49,124,53
1,59,123,0
1,63,123,0
1,66,123,0
1,70,123,1
1,73,123,0
1,59,0,112
1,63,0,1
1,66,0,0
1,73,0,0
1,70,0,1
1,49,0,2
1,49,121,43
1,59,120,0
1,63,120,0
1,66,119,1
1,70,119,0
1,73,119,0
1,63,0,22
1,59,0,2
1,66,0,1
1,49,0,1
1,73,0,0
1,70,0,0
1,49,122,21
1,59,122,0
1,63,123,0
1,66,122,1
1,70,122,0
1,73,122,0
1,59,0,24
1,49,0,1
1,63,0,0
1,66,0,1
1,70,0,0
1,73,0,0
1,49,123,21
1,59,123,0
1,63,124,0
1,66,122,1
1,70,123,0
1,73,122,0
1,59,0,22
1,63,0,1
1,66,0,2
1,70,0,0
1,73,0,0
1,49,0,2
1,49,123,20
1,59,124,0
1,63,124,0
1,66,124,1
1,70,124,0
1,73,123,0
1,49,0,25
1,70,0,3
1,66,0,0
1,63,0,0
1,59,0,3
1,73,0,2
1,59,123,158
1,64,123,0
1,68,123,0
1,71,123,1
1,75,126,0
1,68,0,354
1,71,0,1
1,59,0,0
1,64,0,0
1,75,0,2
1,63,124,26
1,66,124,0
1,71,124,1
1,63,0,364
1,71,0,1
1,66,0,1
1,64,123,17
1,68,124,0
1,73,124,0
1,73,0,171
1,68,0,0
1,64,0,0
1,66,124,21
1,70,124,0
1,75,124,0
1,75,0,171
1,70,0,0
1,66,0,0
1,68,124,21
1,71,124,0
1,75,124,1
1,78,126,0
1,71,0,25
1,68,0,0
1,75,0,1
1,78,0,1
1,68,122,20
1,71,122,0
1,75,122,0
1,78,126,0
1,71,0,26
1,68,0,0
1,75,0,1
1,78,0,0
1,68,124,117
1,71,124,0
1,75,124,0
1,78,126,0
1,68,0,21
1,71,0,1
1,75,0,4
1,78,0,1
1,68,122,21
1,71,122,0
1,75,122,0
1,78,124,0
1,71,0,22
1,68,0,2
1,75,0,2
1,78,0,0
1,59,123,166
1,68,121,0
1,71,122,0
1,75,121,1
1,78,124,0
1,78,0,28
1,71,0,0
1,59,0,0
1,68,0,0
1,75,0,0
1,59,123,18
1,68,121,1
1,71,122,0
1,75,120,0
1,78,123,0
1,78,0,27
1,71,0,0
1,59,0,0
1,68,0,0
1,75,0,0
1,59,123,20
1,68,121,0
1,71,122,0
1,75,121,0
1,78,124,0
1,59,0,28
1,75,0,5
1,68,0,0
1,71,0,0
1,78,0,0
1,59,123,15
1,68,123,1
1,71,123,0
1,75,123,0
1,78,124,1
1,78,0,26
1,71,0,0
1,59,0,0
1,68,0,0
1,75,0,0
1,59,123,53
1,68,121,0
1,71,121,0
1,75,121,0
1,78,124,1
1,59,0,126
1,75,0,1
1,68,0,0
1,71,0,0
1,78,0,0
1,59,118,31
1,68,118,1
1,71,118,0
1,75,118,1
1,78,118,0
1,78,0,26
1,71,0,0
1,59,0,0
1,68,0,0
1,75,0,0
1,59,122,20
1,68,121,0
1,71,122,0
1,75,120,0
1,78,122,0
1,78,0,28
1,71,0,0
1,59,0,0
1,68,0,0
1,75,0,0
1,59,122,20
1,68,121,1
1,71,121,0
1,75,120,0
1,78,122,0
1,78,0,27
1,71,0,0
1,59,0,0
1,68,0,0
1,75,0,0
1,59,122,20
1,68,122,1
1,71,122,0
1,75,122,0
1,78,122,0
1,71,0,26
1,59,0,0
1,68,0,0
1,75,0,2
1,78,0,2
1,59,119,65
1,63,122,1
1,66,120,0
1,70,117,1
1,75,121,0
1,75,0,93
1,66,0,0
1,59,0,0
1,63,0,0
1,70,0,0
1,59,119,49
1,63,119,0
1,66,119,0
1,70,119,1
1,73,121,0
1,59,0,23
1,63,0,1
1,66,0,3
