track,note,velocity,time
1,70,50,0
1,70,0,960
1,74,50,0
1,74,0,240
1,75,46,0
1,75,0,80
1,74,41,0
1,74,0,80
1,72,42,0
1,72,0,80
1,74,50,0
1,74,0,240
1,75,50,0
1,75,0,240
1,76,55,0
1,76,0,720
1,77,49,0
1,77,0,240
1,72,42,0
1,72,0,240
1,75,50,720
1,75,0,240
1,77,46,0
1,77,0,80
1,75,42,0
1,75,0,80
1,74,44,0
1,74,0,80
1,75,50,0
1,75,0,240
1,77,50,0
1,77,0,240
1,79,52,0
1,79,0,240
1,81,49,0
1,81,0,80
1,79,49,0
1,79,0,80
1,77,49,0
1,77,0,80
1,79,57,0
1,79,0,240
1,81,59,0
1,81,0,234
1,81,68,6
1,81,0,720
1,82,54,0
1,82,0,240
1,77,54,0
1,77,0,240
1,79,59,720
1,79,0,720
1,80,50,0
1,80,0,120
1,79,50,0
1,79,0,120
1,77,55,0
1,77,0,240
1,75,52,0
1,75,0,240
1,74,48,0
1,74,0,240
1,72,48,0
1,72,0,240
1,76,58,0
1,76,0,240
1,77,51,0
1,77,0,480
1,79,55,0
1,79,0,120
1,77,52,0
1,77,0,120
1,75,54,0
1,75,0,240
1,74,55,0
1,74,0,192
1,72,56,48
1,72,0,192
1,70,59,48
1,70,0,192
1,77,66,48
1,77,0,240
1,75,54,0
1,75,0,480
1,72,51,0
1,72,0,240
1,75,65,0
1,75,0,240
1,74,54,0
1,74,0,480
1,70,54,0
1,70,0,240
1,74,59,0
1,74,0,720
1,75,43,0
1,75,0,120
1,74,43,0
1,74,0,120
1,72,50,0
1,72,0,240
1,77,53,0
1,77,0,240
1,75,49,0
1,75,0,240
1,72,47,0
1,72,0,240
1,70,50,0
1,70,0,240
1,72,43,0
1,72,0,80
1,70,38,0
1,70,0,80
1,69,38,0
1,69,0,80
1,70,45,0
1,70,0,240
1,72,50,0
1,72,0,240
1,73,50,0
1,73,0,240
1,75,44,0
1,75,0,80
1,73,40,0
1,73,0,80
1,72,41,0
1,72,0,80
1,73,50,0
1,73,0,240
1,75,50,0
1,75,0,240
1,76,55,0
1,76,0,720
1,77,49,0
1,77,0,240
1,72,49,0
1,72,0,240
1,75,55,720
1,75,0,240
1,77,49,0
1,77,0,80
1,75,44,0
1,75,0,80
1,74,44,0
1,74,0,80
1,75,59,0
1,75,0,240
1,77,53,0
1,77,0,240
1,78,56,0
1,78,0,240
1,80,55,0
1,80,0,80
1,78,56,0
1,78,0,80
1,77,56,0
1,77,0,80
1,78,63,0
1,78,0,240
1,80,61,0
1,80,0,240
1,81,68,0
1,81,0,720
1,82,64,0
1,82,0,240
1,77,59,0
1,77,0,240
1,76,69,600
1,76,0,120
1,85,94,0
1,85,0,1200
1,84,60,0
1,84,0,120
1,82,55,0
1,82,0,120
1,80,57,0
1,80,0,120
1,79,51,0
1,79,0,120
1,77,54,0
1,77,0,120
1,76,50,0
1,76,0,120
1,79,57,0
1,79,0,480
1,77,62,0
1,77,0,720
1,75,55,0
1,75,0,480
1,73,56,0
1,73,0,240
1,72,50,0
1,72,0,240
1,73,43,0
1,73,0,80
1,72,44,0
1,72,0,80
1,70,44,0
1,70,0,80
1,72,45,0
1,72,0,240
1,73,50,0
1,73,0,240
1,65,50,0
1,65,0,480
1,68,50,0
1,64,38,0
1,68,0,240
1,67,46,0
1,67,0,240
1,64,0,0
1,65,53,0
1,65,0,960
1,70,45,960
1,70,0,480
1,67,45,480
1,67,0,240
1,64,42,240
1,64,0,240
1,72,53,240
1,72,0,360
1,69,49,0
1,69,0,120
1,72,53,0
1,72,0,240
1,70,45,1200
1,70,0,480
1,67,45,480
1,67,0,240
1,64,42,240
1,64,0,240
1,72,53,240
1,72,0,360
1,69,50,0
1,69,0,120
1,72,53,0
1,72,0,240
1,77,59,240
1,81,70,0
1,81,0,240
1,77,0,0
1,79,64,0
1,76,54,0
1,76,0,240
1,79,0,0
1,74,48,0
1,77,57,0
1,77,0,216
1,74,0,0
1,73,48,24
1,76,57,0
1,76,0,216
1,73,0,0
1,77,70,24
1,74,59,0
1,74,0,240
1,77,0,0
1,72,54,0
1,76,64,0
1,76,0,240
1,72,0,0
1,70,50,0
1,74,59,0
1,74,0,216
1,70,0,0
1,73,59,24
1,69,50,0
1,69,0,216
1,73,0,0
1,70,59,24
1,74,70,0
1,74,0,240
1,70,0,0
1,69,53,0
1,72,63,0
1,72,0,240
1,69,0,0
1,67,50,0
1,70,59,0
1,70,0,216
1,67,0,0
1,69,58,24
1,66,49,0
1,66,0,216
1,69,0,0
1,62,49,24
1,66,58,0
1,69,58,0
1,69,0,960
1,66,0,0
1,70,49,0
1,67,41,0
1,67,0,240
1,62,0,0
1,70,0,120
1,72,45,0
1,72,0,30
1,70,45,0
1,70,0,30
1,69,45,0
1,69,0,30
1,70,45,0
1,70,0,30
1,72,50,0
1,72,0,240
1,74,48,0
1,74,0,240
1,72,49,0
1,72,0,160
1,70,45,0
1,70,0,160
1,69,45,0
1,69,0,160
1,67,48,0
1,67,0,160
1,70,45,0
1,70,0,160
1,74,45,0
1,74,0,160
1,65,50,0
1,65,0,480
1,64,38,0
1,67,45,0
1,67,0,480
1,64,0,0
1,67,48,0
1,64,40,0
1,67,0,360
1,68,35,0
1,68,0,120
1,64,0,0
1,69,44,0
1,65,38,0
1,65,0,480
1,69,0,0
1,70,45,960
1,70,0,480
1,67,45,480
1,67,0,240
1,64,42,240
1,64,0,240
1,72,53,240
1,72,0,360
1,69,49,0
1,69,0,120
1,72,53,0
1,72,0,240
1,70,45,1200
1,70,0,480
1,67,45,480
1,67,0,240
1,64,42,240
1,64,0,240
1,72,53,240
1,72,0,360
1,77,50,0
1,77,0,120
1,72,53,0
1,72,0,240
1,81,70,240
1,77,59,0
1,77,0,240
1,81,0,0
1,76,54,0
1,79,64,0
1,79,0,240
1,76,0,0
1,74,48,0
1,77,57,0
1,77,0,216
1,74,0,0
1,73,48,24
1,76,57,0
1,76,0,216
1,73,0,0
1,74,59,24
1,77,70,0
1,77,0,240
1,74,0,0
1,72,54,0
1,76,64,0
1,76,0,240
1,72,0,0
1,70,50,0
1,74,59,0
1,74,0,216
1,70,0,0
1,73,59,24
1,69,50,0
1,69,0,216
1,73,0,0
1,70,59,24
1,74,70,0
1,74,0,240
1,70,0,0
1,72,63,0
1,69,53,0
1,69,0,240
1,72,0,0
1,70,59,0
1,67,50,0
1,67,0,216
1,70,0,0
1,66,49,24
1,69,58,0
1,69,0,216
1,66,0,0
1,69,58,24
1,62,49,0
1,66,58,0
1,66,0,960
1,69,0,0
1,67,41,0
1,70,49,0
1,67,0,240
1,62,0,0
1,70,0,120
1,72,45,0
1,72,0,30
1,70,45,0
1,70,0,30
1,69,45,0
1,69,0,30
1,70,45,0
1,70,0,30
1,72,50,0
1,72,0,240
1,74,48,0
1,74,0,240
1,72,49,0
1,72,0,160
1,77,45,0
1,77,0,160
1,69,42,0
1,69,0,160
1,67,48,0
1,67,0,160
1,70,45,0
1,70,0,160
1,74,43,0
1,74,0,160
1,65,50,0
1,65,0,480
1,64,45,0
1,64,0,450
1,69,56,0
1,69,0,30
1,81,73,0
1,81,0,660
1,77,49,0
1,77,0,60
1,77,53,0
1,77,0,48
1,79,50,0
1,79,0,48
1,77,54,0
1,77,0,48
1,76,52,0
1,76,0,48
1,77,54,0
1,77,0,48
1,70,60,0
1,82,74,30
1,70,0,30
1,82,0,600
1,79,56,0
1,79,0,60
1,79,56,0
1,79,0,48
1,81,52,0
1,81,0,48
1,79,56,0
1,79,0,48
1,78,54,0
1,78,0,48
1,79,56,0
1,79,0,48
1,84,74,0
1,84,0,360
1,81,61,0
1,81,0,120
1,77,69,0
1,77,0,720
1,75,62,0
1,75,0,240
1,74,67,0
1,74,0,240
1,73,62,0
1,73,0,240
1,74,69,0
1,74,0,240
1,76,62,0
1,76,0,60
1,78,63,60
1,78,0,60
1,79,64,60
1,79,0,60
1,81,65,60
1,81,0,60
1,82,66,60
1,82,0,60
1,85,67,60
1,86,68,120
1,85,0,10
1,86,0,50
1,84,66,60
1,82,65,120
1,84,0,10
1,82,0,50
1,81,64,60
1,79,63,120
1,81,0,10
1,79,0,50
1,77,62,60
1,76,61,120
1,77,0,10
1,76,0,50
1,74,60,60
1,74,0,120
1,72,60,0
1,72,0,480
1,84,64,0
1,84,0,640
1,81,55,0
1,81,0,160
1,77,51,0
1,77,0,160
1,72,58,0
1,72,0,120
1,69,51,0
1,69,0,120
1,77,56,0
1,77,0,120
1,65,44,60
1,65,0,60
1,67,44,0
1,67,0,51
1,69,41,0
1,69,0,50
1,67,44,0
1,69,39,50
1,67,0,1
1,69,0,50
1,67,44,0
1,67,0,50
1,69,39,0
1,69,0,51
1,67,44,0
1,67,0,50
1,69,39,0
1,67,44,50
1,69,0,1
1,67,0,50
1,69,39,0
1,69,0,50
1,67,44,0
1,67,0,51
1,69,38,0
1,69,0,50
1,67,44,0
1,69,38,50
1,67,0,1
1,69,0,50
1,67,44,0
1,67,0,50
1,69,38,0
1,69,0,51
1,67,43,0
1,67,0,50
1,69,38,0
1,67,43,50
1,69,0,1
1,67,0,50
1,69,36,0
1,69,0,50
1,67,42,0
1,67,0,51
1,69,36,0
1,69,0,50
1,67,42,0
1,69,36,50
1,67,0,1
1,67,42,40
1,69,0,10
1,67,0,50
1,69,36,0
1,69,0,60
1,67,42,0
1,67,0,60
1,69,37,0
1,69,0,60
1,67,42,0
1,67,0,60
1,69,36,0
1,69,0,60
1,67,42,0
1,67,0,60
1,69,37,0
1,69,0,60
1,67,38,0
1,67,0,80
1,65,48,0
1,65,0,80
1,67,42,0
1,67,0,80
1,65,53,0
1,65,0,480
1,77,49,180
1,77,0,60
1,77,50,0
1,77,0,48
1,79,48,0
1,79,0,48
1,77,51,0
1,77,0,48
1,76,50,0
1,76,0,48
1,77,54,0
1,77,0,48
1,84,63,0
1,84,0,240
1,82,58,0
1,82,0,240
1,81,53,0
1,81,0,240
1,79,53,0
1,79,0,240
1,79,62,0
1,79,0,240
1,77,51,0
1,77,0,240
1,77,49,180
1,77,0,60
1,77,50,0
1,77,0,48
1,79,48,0
1,79,0,48
1,77,51,0
1,77,0,48
1,76,51,0
1,76,0,48
1,77,54,0
1,77,0,48
1,84,63,0
1,84,0,240
1,82,58,0
1,82,0,240
1,81,53,0
1,81,0,240
1,79,53,0
1,79,0,240
1,79,56,0
1,79,0,240
1,77,50,0
1,77,0,240
1,77,53,0
1,77,0,240
1,77,53,240
1,77,0,240
1,77,62,240
1,77,0,240
1,77,65,240
1,77,0,960
1,76,55,0
1,77,53,120
1,76,0,10
1,79,56,110
1,77,0,10
1,77,51,110
1,79,0,10
1,77,0,105
1,77,55,5
1,75,49,120
1,77,0,10
1,74,50,110
1,75,0,10
1,72,47,110
1,74,0,10
1,72,0,110
1,70,50,0
1,70,0,240
1,72,46,0
1,72,0,80
1,70,46,0
1,70,0,80
1,69,46,0
1,69,0,80
1,70,50,0
1,70,0,240
1,72,50,0
1,72,0,240
1,74,50,0
1,74,0,240
1,75,46,0
1,75,0,80
1,74,46,0
1,74,0,80
1,72,46,0
1,72,0,80
1,74,50,0
1,74,0,240
1,75,50,0
1,75,0,240
1,76,55,0
1,76,0,720
1,77,49,0
1,77,0,240
1,72,49,0
1,72,0,240
1,75,50,720
1,75,0,240
1,77,46,0
1,77,0,80
1,75,44,0
1,75,0,80
1,74,43,0
1,74,0,80
1,75,50,0
1,75,0,240
1,77,50,0
1,77,0,240
1,79,52,0
1,79,0,240
1,81,49,0
1,81,0,80
1,79,46,0
1,79,0,80
1,77,44,0
1,77,0,80
1,79,57,0
1,79,0,240
1,81,59,0
1,81,0,230
1,81,68,10
1,81,0,720
1,82,54,0
1,82,0,240
1,77,52,0
1,77,0,240
1,78,56,720
1,78,0,240
1,79,59,0
1,79,0,480
1,80,50,0
1,80,0,120
1,79,50,0
1,79,0,120
1,77,55,0
1,77,0,240
1,75,52,0
1,75,0,192
1,74,53,48
1,74,0,192
1,72,53,48
1,72,0,192
1,79,59,48
1,79,0,240
1,77,54,0
1,77,0,480
1,79,55,0
1,79,0,120
1,77,52,0
1,77,0,110
1,77,54,10
1,77,0,120
1,75,51,0
1,75,0,110
1,75,55,10
1,75,0,120
1,74,50,0
1,74,0,110
1,74,56,10
1,74,0,120
1,72,53,0
1,72,0,110
1,72,59,10
1,72,0,120
1,70,59,0
1,70,0,110
1,77,58,10
1,77,0,60
1,76,56,60
1,76,0,60
1,75,59,60
1,75,0,480
1,72,51,0
1,72,0,240
1,75,58,0
1,75,0,60
1,73,55,60
1,73,0,60
1,74,58,60
1,74,0,480
1,70,54,0
1,70,0,240
1,74,59,0
1,74,0,720
1,75,43,0
1,75,0,120
1,74,43,0
1,74,0,120
1,72,50,0
1,72,0,120
1,77,45,40
1,77,0,120
1,75,42,40
1,75,0,120
1,75,50,40
1,75,0,120
1,74,43,0
1,74,0,120
1,75,40,0
1,75,0,120
1,72,41,0
1,72,0,120
1,70,50,0
1,70,0,240
1,72,43,0
1,72,0,80
1,70,44,0
1,70,0,80
1,69,41,0
1,69,0,80
1,70,45,0
1,70,0,240
1,72,50,0
1,72,0,240
1,73,53,0
1,73,0,240
1,75,44,0
1,75,0,80
1,73,44,0
1,73,0,80
1,72,41,0
1,72,0,80
1,73,51,0
1,73,0,240
1,75,52,0
1,75,0,240
1,76,61,0
1,76,0,720
1,77,56,0
1,77,0,240
1,72,56,0
1,72,0,240
1,63,73,720
1,63,0,548
1,65,45,1
1,65,0,68
1,63,46,0
1,62,47,68
1,63,0,1
1,62,0,68
1,63,47,0
1,63,0,68
1,64,48,0
1,65,49,68
1,64,0,1
1,65,0,69
1,66,49,0
1,66,0,60
1,67,51,0
1,67,0,60
1,68,52,0
1,68,0,60
1,69,53,0
1,69,0,60
1,70,55,0
1,70,0,60
1,71,56,0
1,71,0,60
1,72,57,0
1,72,0,60
1,73,58,0
1,73,0,60
1,74,60,0
1,74,0,60
1,75,61,0
1,75,0,60
1,76,62,0
1,76,0,60
1,77,64,0
1,77,0,60
1,78,65,0
1,78,0,60
1,79,66,0
1,79,0,60
1,80,67,0
1,80,0,60
1,81,69,0
1,81,0,60
1,81,73,0
1,81,0,240
1,82,63,0
1,82,0,80
1,81,61,0
1,81,0,80
1,79,61,0
1,79,0,80
1,81,60,0
1,81,0,240
1,82,64,0
1,82,0,240
1,77,59,0
1,77,0,240
1,76,69,600
1,76,0,120
1,85,93,0
1,85,0,1200
1,84,60,0
1,84,0,120
1,82,58,0
1,82,0,120
1,80,57,0
1,80,0,120
1,79,56,0
1,79,0,120
1,77,54,0
1,77,0,120
1,76,50,0
1,76,0,120
1,79,57,0
1,79,0,480
1,77,62,0
1,77,0,720
1,76,53,0
1,76,0,240
1,75,55,0
1,75,0,160
1,74,52,0
1,74,0,160
1,73,52,0
1,73,0,160
1,72,50,0
1,72,0,240
1,73,43,0
1,73,0,80
1,72,44,0
1,72,0,80
1,70,44,0
1,70,0,80
1,72,45,0
1,72,0,240
1,73,50,0
1,73,0,240
1,65,50,0
1,65,0,480
1,68,50,0
1,64,44,0
1,68,0,240
1,67,50,0
1,67,0,240
1,64,0,0
1,65,53,0
1,65,0,238
1,75,45,1682
1,75,0,480
1,72,45,480
1,72,0,240
1,69,42,240
1,69,0,240
1,77,53,240
1,77,0,360
1,74,49,0
1,74,0,120
1,77,53,0
1,77,0,240
1,77,49,1200
1,77,0,240
1,75,45,0
1,75,0,240
1,74,45,480
1,74,0,240
1,72,41,0
1,72,0,120
1,70,42,120
1,70,0,240
1,69,39,0
1,69,0,120
1,77,53,120
1,77,0,360
1,74,50,0
1,74,0,120
1,77,53,0
1,77,0,240
1,86,70,240
1,82,59,0
1,82,0,240
1,86,0,0
1,81,54,0
1,84,64,0
1,84,0,240
1,81,0,0
1,82,57,0
1,79,48,0
1,79,0,216
1,82,0,0
1,78,48,24
1,81,57,0
1,81,0,216
1,78,0,0
