track,note,velocity,time
0,75,94,449
0,36,107,3
0,42,78,0
0,93,100,0
0,36,107,0
0,68,64,0
0,87,94,4
0,99,100,25
0,68,64,0
0,36,107,4
0,42,53,0
0,93,100,1
0,68,64,0
0,49,56,28
0,38,101,14
0,42,65,0
0,93,100,1
0,36,107,29
0,42,53,0
0,99,100,1
0,52,56,0
0,93,100,13
0,42,65,0
0,46,57,28
0,36,107,6
0,75,94,1
0,105,100,0
0,87,94,4
0,42,53,8
0,68,64,13
0,36,107,9
0,46,57,0
0,104,100,1
0,68,64,0
0,49,56,18
0,75,94,2
0,87,94,5
0,38,101,9
0,42,78,0
0,93,100,1
0,68,64,0
0,99,100,5
0,42,53,0
0,52,56,0
0,93,100,13
0,42,65,0
0,68,64,0
0,46,57,28
0,68,64,0
0,36,107,3
0,68,64,0
0,75,94,1
0,93,100,0
0,87,94,4
0,42,28,8
0,99,100,15
0,68,64,0
0,36,107,1
0,42,65,0
0,75,94,1
0,93,100,0
0,68,64,0
0,87,94,4
0,49,56,24
0,38,101,1
0,42,78,0
0,93,100,1
0,75,94,0
0,87,94,4
0,42,53,3
0,36,107,1
0,99,100,0
0,52,56,0
0,93,100,13
0,42,65,0
0,75,94,1
0,87,94,4
0,42,53,10
0,42,62,0
0,36,107,1
0,43,115,0
0,105,100,0
0,60,104,0
0,75,94,0
0,87,94,4
0,46,57,24
0,68,64,0
0,36,107,1
0,68,64,0
0,48,88,0
0,104,100,1
0,45,104,0
0,49,61,28
0,75,94,2
0,87,94,5
0,48,95,9
0,38,101,0
0,42,78,0
0,93,100,1
0,68,64,0
0,48,95,1
0,38,101,0
0,42,53,0
0,99,100,1
0,48,95,13
0,38,101,0
0,42,65,0
0,93,100,1
0,75,94,0
0,68,64,0
0,87,94,4
0,48,95,25
0,38,101,0
0,42,53,0
0,68,64,0
0,75,122,1
0,36,107,0
0,93,100,1
0,28,84,0
0,49,110,0
0,68,64,0
0,75,94,1
0,87,94,4
0,99,100,20
0,68,64,0
0,36,107,13
0,42,53,0
0,93,100,1
0,28,84,0
0,68,64,0
0,38,101,40
0,42,65,0
0,93,100,1
0,36,107,29
0,42,53,0
0,99,100,1
0,42,53,13
0,93,100,0
0,46,57,27
0,36,107,14
0,105,100,1
0,28,84,0
0,42,15,12
0,68,64,13
0,46,57,13
0,36,107,1
0,104,100,0
0,28,84,0
0,68,64,0
0,38,101,45
0,42,78,0
0,93,100,1
0,68,64,0
0,99,100,29
0,42,53,0
0,93,100,13
0,42,65,0
0,68,64,0
0,46,57,28
0,68,64,0
0,36,107,0
0,68,64,0
0,93,100,1
0,28,84,0
0,42,15,12
0,99,100,14
0,36,107,13
0,42,65,0
0,93,100,1
0,28,84,0
0,68,64,0
0,38,101,45
0,42,78,0
0,93,100,1
0,36,107,29
0,42,53,0
0,99,100,1
0,68,64,0
0,93,100,13
0,42,65,0
0,68,64,0
0,42,53,28
0,36,107,1
0,42,62,0
0,68,122,0
0,105,100,1
0,28,84,0
0,68,64,0
0,46,57,28
0,36,107,14
0,68,64,0
0,104,100,1
0,28,84,0
0,75,122,1
0,38,101,0
0,42,78,0
0,93,100,1
0,68,64,0
0,99,100,29
0,42,53,0
0,68,64,0
0,93,100,13
0,42,65,0
0,68,64,0
0,42,53,28
0,68,64,0
0,73,122,1
0,36,107,0
0,42,78,0
0,93,100,1
0,28,84,0
0,68,64,0
0,99,100,29
0,68,64,0
0,36,107,13
0,42,53,0
0,93,100,1
0,28,84,0
0,68,64,0
0,38,101,45
0,42,65,0
0,93,100,1
0,42,53,28
0,36,107,1
0,99,100,0
0,42,53,14
0,93,100,0
0,46,57,28
0,36,107,0
0,105,100,1
0,28,84,0
0,42,15,12
0,68,64,13
0,36,107,14
0,46,57,0
0,104,100,1
0,28,84,0
0,68,64,0
0,38,101,45
0,42,78,0
0,93,100,1
0,68,64,0
0,99,100,29
0,42,53,0
0,93,100,13
0,42,65,0
0,68,64,0
0,46,57,28
0,68,64,0
0,36,107,13
0,68,64,0
0,93,100,1
0,28,84,0
0,42,15,12
0,99,100,14
0,42,65,12
0,36,107,1
0,93,100,0
0,28,84,0
0,68,64,0
0,38,101,45
0,42,78,0
0,93,100,1
0,36,107,29
0,42,53,0
0,99,100,1
0,68,64,0
0,93,100,13
0,42,65,0
0,68,64,0
0,42,53,28
0,36,90,0
0,42,62,0
0,105,100,1
0,28,84,0
0,68,64,0
0,36,97,29
0,46,57,0
0,36,107,13
0,68,64,0
0,104,100,1
0,28,84,0
0,38,101,45
0,42,78,0
0,93,100,1
0,68,64,0
0,99,100,29
0,42,53,0
0,68,64,0
0,48,88,13
0,41,104,0
0,42,65,0
0,93,100,1
0,68,64,0
0,42,53,28
0,68,64,0
0,36,107,1
0,75,122,0
0,93,100,1
0,28,84,0
0,49,110,0
0,68,64,0
0,99,100,29
0,68,64,0
0,42,53,12
0,36,107,1
0,93,100,0
0,28,84,0
0,68,64,0
0,38,101,45
0,42,65,0
0,93,100,1
0,36,107,29
0,42,53,0
0,99,100,1
0,42,53,13
0,93,100,0
0,46,57,28
0,36,107,14
0,105,100,1
0,28,84,0
0,42,15,12
0,68,64,13
0,36,107,14
0,46,57,0
0,104,100,1
0,28,84,0
0,68,64,0
0,38,101,0
0,42,78,0
0,93,100,1
0,68,64,0
0,99,100,29
0,42,53,0
0,93,100,13
0,42,65,0
0,68,64,0
0,46,57,28
0,68,64,0
0,36,107,13
0,68,64,0
0,93,100,1
0,28,84,0
0,42,15,12
0,99,100,14
0,36,107,13
0,42,65,0
0,93,100,1
0,28,84,0
0,68,64,0
0,38,101,45
0,42,78,0
0,93,100,1
0,36,107,29
0,42,53,0
0,99,100,1
0,68,64,0
0,93,100,13
0,42,65,0
0,68,64,0
0,42,53,28
0,36,107,1
0,42,62,0
0,68,122,0
0,105,100,1
0,28,84,0
0,68,64,0
0,46,57,28
0,36,107,14
0,68,64,0
0,104,100,1
0,28,84,0
0,75,122,3
0,38,101,0
0,42,78,0
0,93,100,1
0,68,64,0
0,99,100,29
0,42,53,0
0,68,64,0
0,93,100,13
0,42,65,0
0,68,64,0
0,42,53,28
0,68,64,0
0,73,122,5
0,36,107,0
0,42,78,0
0,93,100,1
0,28,84,0
0,68,64,0
0,99,100,29
0,68,64,0
0,36,107,13
0,42,53,0
0,93,100,1
0,28,84,0
0,68,64,0
0,38,101,45
0,42,65,0
0,93,100,1
0,36,107,29
0,42,53,0
0,99,100,1
0,42,53,13
0,93,100,0
0,46,57,28
0,36,107,0
0,105,100,1
0,28,84,0
0,42,15,12
0,68,64,13
0,36,107,14
0,46,57,0
0,104,100,1
0,28,84,0
0,68,64,0
0,38,101,45
0,42,78,0
0,93,100,1
0,68,64,0
0,99,100,29
0,42,53,0
0,93,100,13
0,42,65,0
0,68,64,0
0,46,57,28
0,68,64,0
0,68,64,3
0,93,100,0
0,28,84,0
0,36,107,0
0,75,94,0
0,87,94,1
0,42,15,10
0,99,100,9
0,36,107,3
0,42,65,0
0,93,100,1
0,28,84,0
0,68,64,0
0,75,94,1
0,87,94,2
0,38,101,2
0,42,78,0
0,93,100,1
0,75,94,1
0,87,94,5
0,42,53,8
0,36,107,1
0,99,100,0
0,68,64,0
0,42,65,13
0,93,100,0
0,68,64,0
0,75,94,2
0,87,94,7
0,42,53,19
0,36,107,14
0,38,101,0
0,41,104,0
0,47,104,0
0,30,110,0
0,105,100,0
0,38,72,27
0,46,57,0
0,38,101,5
0,68,64,0
0,104,100,1
0,47,104,0
0,43,104,0
0,41,104,0
0,30,110,0
0,28,84,0
0,38,72,29
0,38,101,6
0,43,104,0
0,47,104,0
0,41,104,0
0,30,110,0
0,38,101,1
0,43,104,1
0,47,104,0
0,41,104,0
0,30,110,0
0,49,110,0
0,75,122,0
0,36,107,0
0,37,116,1
0,28,84,0
0,93,100,0
0,49,110,0
0,68,64,0
0,87,114,4
0,47,75,7
0,56,120,1
0,99,100,0
0,68,64,0
0,35,106,1
0,59,108,6
0,68,102,0
0,71,105,0
0,49,100,0
0,36,107,1
0,54,88,0
0,42,53,0
0,75,99,0
0,78,115,0
0,93,100,0
0,37,111,0
0,28,84,0
0,68,64,0
0,59,108,10
0,68,102,1
0,71,104,0
0,75,98,0
0,78,108,0
0,38,101,1
0,42,65,0
0,93,100,1
0,36,107,6
0,42,53,0
0,99,100,1
0,59,108,11
0,68,102,1
0,71,104,0
0,75,100,0
0,78,115,0
0,42,53,1
0,93,100,0
0,46,57,1
0,44,100,13
0,59,108,0
0,68,107,0
0,71,107,0
0,75,107,0
0,56,115,1
0,36,107,0
0,78,115,0
0,32,106,1
0,105,100,0
0,28,84,0
0,42,15,1
0,68,64,2
0,36,107,14
0,46,57,0
0,104,100,1
0,28,84,0
0,68,64,0
0,47,95,28
0,59,108,0
0,68,101,0
0,71,102,0
0,75,99,0
0,35,116,1
0,78,115,0
0,56,120,1
0,38,101,0
0,42,78,0
0,93,100,1
0,68,64,0
0,99,100,29
0,42,53,0
0,93,100,13
0,42,65,0
0,90,127,1
0,68,64,0
0,46,57,0
0,35,114,1
0,68,64,0
0,49,104,0
0,36,107,0
0,68,64,0
0,93,100,1
0,37,116,0
0,28,84,0
0,90,127,0
0,42,15,2
0,47,67,7
0,90,127,0
0,56,120,1
0,99,100,0
0,35,103,1
0,59,90,6
0,68,90,0
0,71,90,0
0,42,65,0
0,49,84,0
0,36,107,1
0,54,72,0
0,93,100,0
0,75,90,0
0,78,90,0
0,28,84,0
0,37,109,0
0,68,64,0
0,59,105,10
0,68,99,1
0,71,104,0
0,75,97,0
0,78,105,0
0,38,101,1
0,42,78,0
0,93,100,1
0,36,107,6
0,42,53,0
0,99,100,1
0,68,64,0
0,59,105,11
0,68,99,1
0,71,99,0
0,75,97,0
0,78,105,0
0,93,100,1
0,42,65,0
0,68,64,0
0,42,53,5
0,56,115,1
0,59,105,0
0,68,106,0
0,71,106,0
0,75,106,0
0,36,107,1
0,42,62,0
0,68,122,0
0,78,105,0
0,37,114,1
0,105,100,0
0,28,84,0
0,92,96,0
0,68,64,0
0,46,57,2
0,49,87,9
0,68,64,0
0,36,107,1
0,37,114,0
0,104,100,0
0,28,84,0
0,59,93,0
0,63,103,0
0,66,96,0
0,70,87,0
0,51,95,0
0,75,122,1
0,38,101,0
0,42,78,0
0,75,101,0
0,39,106,1
0,93,100,0
0,68,64,0
0,87,96,1
0,99,100,8
0,42,53,0
0,68,64,0
0,39,116,13
0,93,100,0
0,42,65,0
0,68,64,0
0,42,53,28
0,68,64,0
0,44,100,0
0,73,122,1
0,36,107,0
0,93,100,0
0,42,78,0
0,28,84,0
0,32,119,0
0,68,64,0
0,85,96,4
0,42,87,4
0,56,120,2
0,99,100,0
0,68,64,0
0,30,103,0
0,59,95,6
0,63,95,0
0,66,94,0
0,44,84,0
0,36,107,1
0,54,95,0
0,42,53,0
0,70,95,0
0,73,102,0
0,93,100,0
0,32,109,0
0,28,84,0
0,68,64,0
0,59,99,17
0,63,100,1
0,66,96,0
0,70,96,0
0,73,102,0
0,38,101,1
0,42,65,0
0,93,100,1
0,42,53,6
0,36,107,1
0,99,100,0
0,44,95,13
0,59,105,0
0,63,103,0
0,66,105,0
0,70,107,0
0,73,103,0
0,32,114,0
0,42,53,0
0,93,100,0
0,30,103,5
0,46,57,2
0,59,113,2
0,63,113,0
0,39,87,0
0,56,115,1
0,36,107,0
0,66,114,0
0,70,113,0
0,73,110,0
0,105,100,0
0,27,116,0
0,28,84,0
0,42,15,2
0,68,64,5
0,36,107,15
0,46,57,0
0,104,100,1
0,28,84,0
0,68,64,0
0,42,95,28
0,59,107,0
0,63,110,0
0,66,107,0
0,70,110,0
0,30,116,1
0,73,110,0
0,56,120,1
0,38,101,0
0,42,78,0
0,93,100,1
0,68,64,0
0,99,100,29
0,42,53,0
0,93,100,13
0,42,65,0
0,68,64,0
0,46,57,0
0,27,103,1
0,68,64,0
0,44,88,2
0,36,107,0
0,32,103,0
0,68,64,0
0,93,100,0
0,28,84,0
0,92,96,1
0,42,15,9
0,56,120,1
0,99,100,0
0,59,96,3
0,63,96,0
0,44,87,0
0,36,107,1
0,42,65,0
0,54,95,0
0,66,94,0
0,70,94,0
0,73,94,0
0,32,103,0
0,93,100,0
0,28,84,0
0,68,64,0
0,59,103,2
0,63,107,0
0,66,103,0
0,70,105,0
0,42,100,0
0,38,101,1
0,30,109,0
0,42,78,0
0,73,103,0
0,93,100,1
0,82,96,0
0,36,107,2
0,42,53,0
0,99,100,1
0,68,64,0
0,42,87,12
0,59,110,0
0,63,114,0
0,66,105,0
0,70,110,0
0,73,105,0
0,30,106,0
0,93,100,0
0,42,65,0
0,68,64,0
0,42,53,4
0,56,115,1
0,59,113,2
0,63,114,0
0,66,114,0
0,70,113,0
0,40,87,0
0,36,90,0
0,42,62,0
0,73,110,0
0,28,109,1
0,105,100,0
0,28,84,0
0,68,64,0
0,83,96,1
0,36,97,0
0,46,57,0
0,68,64,2
0,40,69,0
0,28,103,1
0,104,100,0
0,36,107,0
0,28,84,0
0,39,79,6
0,27,114,1
0,38,101,0
0,42,78,0
0,93,100,1
0,68,64,0
0,85,96,1
0,99,100,3
0,42,53,0
0,68,64,0
0,39,100,2
0,41,104,1
0,42,65,0
0,48,88,1
0,27,114,0
0,93,100,0
0,68,64,0
0,42,53,11
0,68,64,0
0,49,110,1
0,36,107,1
0,37,116,1
0,93,100,0
0,28,84,0
0,75,122,0
0,49,110,0
0,68,64,0
0,87,96,1
0,47,75,6
0,99,100,2
0,68,64,0
0,56,120,1
0,35,106,0
0,49,100,5
0,59,108,1
0,68,102,0
0,71,105,0
0,36,107,1
0,42,53,0
0,75,99,0
0,78,115,0
0,93,100,0
0,54,95,0
0,37,111,0
0,28,84,0
0,68,64,0
0,59,108,10
0,68,102,1
0,71,104,0
0,75,98,0
0,78,108,0
0,38,101,1
0,42,65,0
0,93,100,1
0,36,107,6
0,42,53,0
0,99,100,1
0,59,108,11
0,68,102,1
0,71,104,0
0,75,100,0
0,78,115,0
0,42,53,1
0,93,100,0
0,46,57,5
0,44,100,12
0,59,108,1
0,68,107,0
0,71,107,0
0,36,107,1
0,75,107,0
0,78,115,0
0,56,115,1
0,32,106,0
0,105,100,0
0,28,84,0
0,42,15,1
0,68,64,2
0,36,107,15
0,46,57,0
0,104,100,1
0,28,84,0
0,68,64,0
0,47,95,28
0,59,108,0
0,68,101,0
0,71,102,0
0,75,99,0
0,35,116,1
0,78,115,0
0,56,120,1
0,38,101,2
0,42,78,0
0,93,100,0
0,68,64,0
0,99,100,29
0,42,53,0
0,93,100,13
0,42,65,0
0,68,64,0
0,90,127,1
0,46,57,0
0,35,114,1
0,68,64,0
0,49,104,1
0,36,107,1
0,68,64,0
0,93,100,1
0,37,116,0
0,28,84,0
0,42,15,1
0,47,67,6
0,99,100,2
0,56,120,1
0,35,103,0
0,90,127,1
0,49,84,5
0,59,90,1
0,68,90,0
0,71,90,0
0,36,107,1
0,42,65,0
0,75,90,0
0,78,90,0
0,93,100,0
0,54,95,0
0,37,109,0
0,28,84,0
0,68,64,0
0,59,105,10
0,68,99,1
0,71,104,0
0,75,97,0
0,78,105,0
0,38,101,1
0,42,78,0
0,93,100,1
0,36,107,6
0,42,53,0
0,99,100,1
0,68,64,0
0,59,105,11
0,68,99,1
0,71,99,0
0,75,97,0
0,78,105,0
0,93,100,1
0,42,65,0
0,68,64,0
0,42,53,5
0,56,115,1
0,92,96,10
0,59,105,0
0,68,106,0
0,71,106,0
0,75,106,0
0,78,105,0
0,42,62,0
0,36,107,1
0,105,100,0
0,68,122,0
0,28,84,0
0,37,114,0
0,68,64,0
0,46,57,4
0,49,87,8
0,36,107,2
0,37,114,0
0,68,64,0
0,104,100,1
0,28,84,0
0,51,95,1
0,59,93,1
0,63,103,0
0,66,96,0
0,70,87,0
0,38,101,1
0,42,78,0
0,75,101,0
0,75,122,1
0,39,106,0
0,93,100,0
