track,note,velocity,time
1,44,87,1537
1,45,68,5
1,48,73,2
1,44,79,47
1,45,95,15
1,45,82,148
1,44,79,9
1,45,76,48
1,48,73,2
1,44,99,48
1,45,95,13
1,44,103,171
1,45,87,9
1,48,82,5
1,44,87,48
1,45,95,13
1,45,91,146
1,44,87,6
1,45,82,48
1,48,79,3
1,44,87,48
1,45,95,9
1,44,99,173
1,45,76,9
1,48,82,3
1,44,95,48
1,45,95,10
1,45,76,142
1,44,87,8
1,45,73,1
1,48,73,5
1,44,95,48
1,45,99,13
1,44,95,168
1,45,76,6
1,48,79,48
1,44,95,47
1,45,87,12
1,45,87,142
1,44,82,2
1,45,82,48
1,48,79,4
1,44,87,48
1,45,95,12
1,44,95,161
1,45,82,6
1,48,69,4
1,44,87,48
1,45,95,12
1,43,87,161
1,44,82,6
1,47,79,5
1,39,87,4
1,40,87,27
1,44,99,164
1,45,76,15
1,48,76,3
1,44,95,48
1,45,87,10
1,43,87,165
1,44,73,5
1,47,82,6
1,39,99,48
1,40,87,29
1,44,95,164
1,45,87,7
1,48,69,4
1,44,79,3
1,45,95,7
1,43,82,165
1,44,73,5
1,47,79,5
1,39,95,48
1,40,95,25
1,44,103,165
1,45,82,8
1,48,69,2
1,44,79,3
1,45,99,9
1,44,107,150
1,44,87,349
1,45,76,9
1,48,69,3
1,44,82,48
1,45,87,12
1,43,82,157
1,44,76,7
1,47,69,6
1,39,87,48
1,40,79,26
1,44,87,163
1,45,67,11
1,48,51,2
1,44,87,14
1,45,95,4
1,43,82,158
1,44,73,2
1,47,69,4
1,39,87,48
1,40,87,30
1,44,87,162
1,45,73,12
1,48,69,3
1,44,82,3
1,45,87,8
1,43,79,168
1,44,73,3
1,47,73,3
1,39,95,48
1,40,87,28
1,44,87,160
1,45,67,13
1,48,76,5
1,44,87,4
1,45,87,13
1,43,82,161
1,44,73,3
1,47,68,3
1,39,82,48
1,40,82,24
1,44,95,150
1,45,82,6
1,48,79,2
1,44,79,2
1,45,95,8
1,43,79,158
1,44,73,5
1,47,71,2
1,39,87,47
1,40,99,28
1,44,95,157
1,45,82,6
1,48,69,5
1,44,87,48
1,45,95,12
1,43,87,160
1,44,82,6
1,47,79,5
1,39,87,4
1,40,87,28
1,44,95,165
1,45,82,7
1,48,69,4
1,44,87,48
1,45,95,11
1,43,87,160
1,44,82,6
1,47,79,5
1,39,87,5
1,40,87,28
1,44,95,164
1,45,82,6
1,48,69,5
1,44,87,48
1,45,95,12
1,43,87,160
1,44,82,7
1,47,79,4
1,39,87,4
1,40,87,28
1,44,95,164
1,45,82,7
1,48,69,4
1,44,87,48
1,45,95,12
1,43,87,161
1,44,82,6
1,47,79,5
1,39,87,4
1,40,87,27
1,44,95,165
1,45,82,6
1,48,69,4
1,44,87,48
1,45,95,11
1,43,87,160
1,44,82,6
1,47,79,5
1,39,87,4
1,40,87,27
1,44,95,165
1,45,82,6
1,48,69,4
1,44,87,48
1,45,95,12
1,43,87,160
1,44,82,7
1,47,79,5
1,39,87,4
1,40,87,27
1,44,95,164
1,45,82,7
1,48,69,4
1,44,87,48
1,45,95,11
1,43,87,160
1,44,82,6
1,47,79,5
1,39,87,4
1,40,87,28
1,44,95,164
1,45,82,7
1,48,69,4
1,44,87,48
1,45,95,11
1,43,87,160
1,44,82,6
1,47,79,5
1,39,87,4
1,40,87,27
1,44,95,165
1,45,82,6
1,48,69,4
1,44,87,48
1,45,95,11
1,43,87,160
1,44,82,7
1,47,79,5
1,39,87,4
1,40,87,27
1,44,95,165
1,45,82,6
1,48,69,4
1,44,87,48
1,45,95,11
1,43,87,160
1,44,82,6
1,47,79,5
1,39,87,5
1,40,87,27
1,44,95,164
1,45,82,6
1,48,69,4
1,44,87,48
1,45,95,11
1,43,87,161
1,44,82,6
1,47,79,5
1,39,87,5
1,40,87,28
1,44,95,165
1,45,82,7
1,48,69,5
1,44,87,48
1,45,95,12
1,43,87,159
1,44,82,6
1,47,79,5
1,39,87,4
1,40,87,27
1,44,95,165
1,45,82,7
1,48,69,4
1,44,87,48
1,45,95,12
1,43,87,159
1,44,82,7
1,47,79,5
1,39,87,4
1,40,87,27
1,44,95,164
1,45,82,7
1,48,69,5
1,44,87,48
1,45,95,11
1,43,87,159
1,44,82,7
1,47,79,5
1,39,87,4
1,40,87,28
1,44,95,164
1,45,82,6
1,48,69,4
1,44,87,48
1,45,95,12
1,43,87,160
1,44,82,6
1,47,79,5
1,39,87,4
1,40,87,28
1,44,95,164
1,45,82,6
1,48,69,5
1,44,87,48
1,45,95,11
1,43,87,160
1,44,82,6
1,47,79,5
1,39,87,4
1,40,87,27
1,44,95,164
1,45,82,6
1,48,69,5
1,44,87,48
1,45,95,11
1,43,87,161
1,44,82,7
1,47,79,5
1,39,87,4
1,40,87,27
1,44,95,166
1,45,82,6
1,48,69,4
1,44,87,48
1,45,95,12
1,43,87,161
1,44,82,6
1,47,79,5
1,39,87,5
1,40,87,27
1,44,95,164
1,45,82,6
1,48,69,5
1,44,87,48
1,45,95,12
1,43,87,160
1,44,82,6
1,47,79,5
1,39,87,5
1,40,87,28
1,44,95,165
1,45,82,6
1,48,69,5
1,44,87,48
1,45,95,11
1,43,87,159
1,44,82,6
1,47,79,5
1,39,87,4
1,40,87,28
1,44,95,165
1,45,82,6
1,48,69,5
1,44,87,48
1,45,95,11
1,43,87,159
1,44,82,6
1,47,79,5
1,39,87,4
1,40,87,28
1,44,95,164
1,45,82,7
1,48,69,4
1,44,87,48
1,45,95,12
1,43,87,159
1,44,82,7
1,47,79,5
1,39,87,4
1,40,87,27
1,44,95,164
1,45,82,6
1,48,69,4
1,44,87,48
1,45,95,11
1,43,87,160
1,44,82,7
1,47,79,5
1,39,87,4
1,40,87,28
1,50,82,164
1,50,73,29
1,50,82,32
1,50,82,29
1,50,107,29
1,50,73,168
1,50,73,27
1,52,82,24
1,53,82,23
1,55,87,27
1,48,71,160
1,48,71,25
1,48,76,28
1,48,69,28
1,48,82,29
1,52,82,116
1,55,87,5
1,57,82,2
1,57,79,33
1,57,82,32
1,57,73,31
1,57,95,31
1,50,87,168
1,50,87,31
1,50,87,35
1,50,73,32
1,50,103,33
1,50,79,170
1,50,73,26
1,52,71,28
1,53,82,24
1,55,95,25
1,48,67,172
1,48,79,26
1,48,82,28
1,48,79,28
1,48,87,29
1,48,107,164
1,44,95,356
1,45,82,6
1,48,69,4
1,44,87,48
1,45,95,11
1,43,87,160
1,44,82,6
1,47,79,5
1,39,87,4
1,40,87,28
1,44,95,165
1,45,82,7
1,48,69,4
1,44,87,48
1,45,95,12
1,43,87,160
1,44,82,6
1,47,79,5
1,39,87,4
1,40,87,27
1,44,95,165
1,45,82,7
1,48,69,4
1,44,87,48
1,45,95,12
1,43,87,160
1,44,82,7
1,47,79,5
1,39,87,4
1,40,87,28
1,44,95,164
1,45,82,7
1,48,69,4
1,44,87,48
1,45,95,11
1,43,87,160
1,44,82,6
1,47,79,6
1,39,87,4
1,40,87,29
1,44,95,165
1,45,82,6
1,48,69,4
1,44,87,48
1,45,95,11
1,43,87,160
1,44,82,7
1,47,79,5
1,39,87,4
1,40,87,27
1,44,95,164
1,45,82,6
1,48,69,4
1,44,87,48
1,45,95,12
1,43,87,161
1,44,82,6
1,47,79,5
1,39,87,4
1,40,87,28
1,44,95,166
1,45,82,6
1,48,69,4
1,44,87,48
1,45,95,12
1,43,87,160
1,44,82,6
1,47,79,5
1,39,87,4
1,40,87,28
1,44,95,164
1,45,82,6
1,48,69,4
1,44,87,48
1,45,95,12
1,43,87,161
1,44,82,7
1,47,79,5
1,39,87,4
1,40,87,27
1,44,95,165
1,45,82,6
1,48,69,4
1,44,87,48
1,45,95,12
1,43,87,160
1,44,82,6
1,47,79,5
1,39,87,5
1,40,87,28
1,44,95,165
1,45,82,6
1,48,69,5
1,44,87,48
1,45,95,12
1,43,87,160
1,44,82,6
1,47,79,5
1,39,87,4
1,40,87,27
1,44,95,166
1,45,82,7
1,48,69,5
1,44,87,48
1,45,95,12
1,43,87,160
1,44,82,6
1,47,79,5
1,39,87,5
1,40,87,27
1,44,95,165
1,45,82,6
1,48,69,4
1,44,87,48
1,45,95,11
1,43,87,160
1,44,82,6
1,47,79,5
1,39,87,4
1,40,87,29
1,44,95,164
1,45,82,6
1,48,69,4
1,44,87,48
1,45,95,11
1,43,87,160
1,44,82,7
1,47,79,5
1,39,87,4
1,40,87,28
1,44,95,164
1,45,82,6
1,48,69,4
1,44,87,48
1,45,95,12
1,43,87,159
1,44,82,6
1,47,79,5
1,39,87,4
1,40,87,27
1,44,95,164
1,45,82,6
1,48,69,4
1,44,87,48
1,45,95,11
1,43,87,160
1,44,82,6
1,47,79,5
1,39,87,4
1,40,87,27
1,44,95,165
1,45,82,7
1,48,69,4
1,44,87,48
1,45,95,11
1,43,87,160
1,44,82,7
1,47,79,5
1,39,87,4
1,40,87,28
1,44,95,165
1,45,82,7
1,48,69,4
1,44,87,48
1,45,95,11
1,43,87,160
1,44,82,6
1,47,79,5
1,39,87,4
1,40,87,28
1,44,95,164
1,45,82,7
1,48,69,4
1,44,87,48
1,45,95,12
1,43,87,160
1,44,82,6
1,47,79,5
1,39,87,4
1,40,87,27
1,44,95,165
1,45,82,7
1,48,69,4
1,44,87,48
1,45,95,11
1,43,87,160
1,44,82,7
1,47,79,5
1,39,87,4
1,40,87,28
1,44,95,164
1,45,82,6
1,48,69,4
1,44,87,48
1,45,95,11
1,55,87,160
1,56,73,6
1,59,69,4
1,51,87,6
1,52,107,22
1,45,115,64
2,44,87,1537
2,45,68,5
2,48,73,1
2,44,79,47
2,45,95,14
2,45,82,148
2,44,79,9
2,45,76,48
2,48,73,2
2,44,99,48
2,45,95,12
2,44,103,171
2,45,87,9
2,48,82,4
2,44,87,48
2,45,95,12
2,45,91,146
2,44,87,6
2,45,82,48
2,48,79,2
2,44,87,48
2,45,95,9
2,44,99,173
2,45,76,9
2,48,82,2
2,44,95,48
2,45,95,10
2,45,76,142
2,44,87,8
2,45,73,1
2,48,73,4
2,44,95,48
2,45,99,13
2,44,95,168
2,45,76,6
2,48,79,48
2,44,95,47
2,45,87,12
2,45,87,142
2,44,82,1
2,45,82,49
2,48,79,3
2,44,87,48
2,45,95,12
2,44,95,160
2,45,82,6
2,48,69,3
2,44,87,48
2,45,95,12
2,43,87,161
2,44,82,6
2,47,79,4
2,39,87,4
2,40,87,26
2,44,99,164
2,45,76,15
2,48,76,2
2,44,95,48
2,45,87,10
2,43,87,165
2,44,73,5
2,47,82,5
2,39,99,48
2,40,87,28
2,44,95,164
2,45,87,7
2,48,69,3
2,44,79,3
2,45,95,7
2,43,82,164
2,44,73,5
2,47,79,4
2,39,95,48
2,40,95,24
2,44,103,165
2,45,82,8
2,48,69,1
2,44,79,3
2,45,99,9
2,44,107,148
2,44,87,349
2,45,76,8
2,48,69,2
2,44,82,48
2,45,87,12
2,43,82,157
2,44,76,7
2,47,69,5
2,39,87,48
2,40,79,25
2,44,87,163
2,45,67,11
2,48,51,1
2,44,87,14
2,45,95,4
2,43,82,158
2,44,73,2
2,47,69,3
2,39,87,48
2,40,87,29
2,44,87,162
2,45,73,11
2,48,69,2
2,44,82,3
2,45,87,8
2,43,79,168
2,44,73,3
2,47,73,3
2,39,95,48
2,40,87,28
2,44,87,159
2,45,67,13
2,48,76,5
2,44,87,4
2,45,87,12
2,43,82,160
2,44,73,3
2,47,68,3
2,39,82,48
2,40,82,24
2,44,95,150
2,45,82,6
2,48,79,2
2,44,79,2
2,45,95,8
2,43,79,157
2,44,73,5
2,47,71,2
2,39,87,47
2,40,99,28
2,44,95,156
2,45,82,6
2,48,69,4
2,44,87,48
2,45,95,12
2,43,87,158
2,44,82,6
2,47,79,5
2,39,87,4
2,40,87,28
2,44,95,164
2,45,82,7
2,48,69,4
2,44,87,48
2,45,95,11
2,43,87,158
2,44,82,6
2,47,79,5
2,39,87,4
2,40,87,28
2,44,95,164
2,45,82,6
2,48,69,4
2,44,87,48
2,45,95,12
2,43,87,158
2,44,82,7
2,47,79,4
2,39,87,3
2,40,87,27
2,44,95,164
2,45,82,7
2,48,69,4
2,44,87,48
2,45,95,12
2,43,87,160
2,44,82,6
2,47,79,5
2,39,87,4
2,40,87,27
2,44,95,164
2,45,82,6
2,48,69,4
2,44,87,48
2,45,95,11
2,43,87,159
2,44,82,6
2,47,79,5
2,39,87,3
2,40,87,27
2,44,95,164
2,45,82,6
2,48,69,4
2,44,87,48
2,45,95,12
2,43,87,159
2,44,82,7
2,47,79,5
2,39,87,4
2,40,87,27
2,44,95,164
2,45,82,7
2,48,69,4
2,44,87,48
2,45,95,11
2,43,87,159
2,44,82,6
2,47,79,5
2,39,87,4
2,40,87,27
2,44,95,164
2,45,82,7
2,48,69,4
2,44,87,48
2,45,95,11
2,43,87,160
2,44,82,6
2,47,79,5
2,39,87,4
2,40,87,27
2,44,95,164
2,45,82,6
2,48,69,4
2,44,87,48
2,45,95,11
2,43,87,160
2,44,82,7
2,47,79,5
2,39,87,4
2,40,87,27
2,44,95,164
2,45,82,6
2,48,69,4
2,44,87,48
2,45,95,11
2,43,87,159
2,44,82,6
2,47,79,5
2,39,87,4
2,40,87,27
2,44,95,164
2,45,82,6
2,48,69,4
2,44,87,48
2,45,95,11
2,43,87,161
2,44,82,6
2,47,79,5
2,39,87,4
2,40,87,27
2,44,95,164
2,45,82,7
2,48,69,4
2,44,87,48
2,45,95,12
2,43,87,159
2,44,82,6
2,47,79,5
2,39,87,3
2,40,87,27
2,44,95,164
2,45,82,7
2,48,69,4
2,44,87,48
2,45,95,12
2,43,87,159
2,44,82,7
2,47,79,5
2,39,87,4
2,40,87,27
2,44,95,164
2,45,82,6
2,48,69,4
2,44,87,48
2,45,95,11
2,43,87,159
2,44,82,6
2,47,79,5
2,39,87,4
2,40,87,28
2,44,95,164
2,45,82,5
2,48,69,4
2,44,87,48
2,45,95,12
2,43,87,159
2,44,82,5
2,47,79,5
2,39,87,4
2,40,87,27
2,44,95,164
2,45,82,5
2,48,69,4
2,44,87,48
2,45,95,11
2,43,87,159
2,44,82,5
2,47,79,5
2,39,87,4
2,40,87,27
2,44,95,164
2,45,82,5
2,48,69,4
2,44,87,48
2,45,95,11
2,43,87,160
2,44,82,6
2,47,79,5
2,39,87,4
2,40,87,27
2,44,95,164
2,45,82,5
2,48,69,4
2,44,87,48
2,45,95,12
2,43,87,160
2,44,82,5
2,47,79,5
2,39,87,4
2,40,87,27
2,44,95,164
2,45,82,5
2,48,69,4
2,44,87,48
2,45,95,12
2,43,87,159
2,44,82,5
2,47,79,5
2,39,87,4
2,40,87,27
2,44,95,164
2,45,82,5
2,48,69,4
2,44,87,48
2,45,95,11
2,43,87,159
2,44,82,6
2,47,79,5
2,39,87,4
2,40,87,28
2,44,95,164
2,45,82,5
2,48,69,4
2,44,87,48
2,45,95,10
2,43,87,159
2,44,82,6
2,47,79,5
2,39,87,4
2,40,87,28
2,44,95,164
2,45,82,7
2,48,69,4
2,44,87,48
2,45,95,11
2,43,87,159
2,44,82,7
2,47,79,5
2,39,87,4
2,40,87,27
2,44,95,164
2,45,82,6
2,48,69,4
2,44,87,48
2,45,95,11
2,43,87,159
2,44,82,7
2,47,79,5
2,39,87,4
2,40,87,27
2,50,82,164
2,50,73,29
2,50,82,32
2,50,82,29
2,50,107,29
2,50,73,168
2,50,73,26
2,52,82,24
2,53,82,23
2,55,87,27
2,48,71,160
2,48,71,24
2,48,76,28
2,48,69,27
2,48,82,29
2,52,82,116
2,55,87,5
2,57,82,2
2,57,79,33
2,57,82,32
2,57,73,30
2,57,95,31
2,50,87,168
2,50,87,30
2,50,87,35
2,50,73,31
2,50,103,33
2,50,79,170
2,50,73,25
2,52,71,28
2,53,82,24
2,55,95,25
2,48,67,172
2,48,79,25
2,48,82,28
2,48,79,28
2,48,87,28
2,48,107,163
2,44,95,356
2,45,82,6
2,48,69,4
