track,note,velocity,time
0,36,116,1536
0,36,116,0
0,46,60,0
0,46,60,0
0,38,116,378
0,38,116,0
0,36,116,189
0,36,116,0
0,38,116,189
0,38,116,0
0,36,116,189
0,36,116,0
0,38,116,189
0,38,116,0
0,36,116,189
0,36,116,0
0,32,89,84
0,44,84,0
0,36,116,0
0,32,94,0
0,36,116,0
0,49,76,0
0,49,76,0
0,42,127,0
0,81,127,0
0,42,127,0
0,44,127,10
0,45,84,0
0,33,89,0
0,33,94,0
0,42,60,0
0,42,60,0
0,45,127,0
0,48,92,10
0,38,116,0
0,38,116,0
0,42,127,0
0,36,89,0
0,48,92,0
0,42,127,0
0,48,84,0
0,36,94,0
0,39,100,0
0,39,100,0
0,48,127,10
0,48,92,48
0,48,92,0
0,48,92,61
0,48,92,0
0,32,94,26
0,48,92,0
0,32,89,0
0,42,60,0
0,44,84,0
0,42,60,0
0,48,92,0
0,44,127,7
0,48,92,48
0,48,92,0
0,48,92,61
0,48,92,0
0,45,92,16
0,45,92,0
0,33,89,0
0,36,116,0
0,36,116,0
0,45,84,0
0,42,127,0
0,33,94,0
0,42,127,0
0,45,127,13
0,45,92,10
0,45,92,0
0,45,92,61
0,45,92,0
0,42,60,45
0,45,92,0
0,45,92,0
0,42,60,0
0,45,92,61
0,45,92,0
0,33,94,29
0,45,84,0
0,33,89,0
0,45,92,20
0,45,92,0
0,38,116,61
0,38,116,0
0,41,92,0
0,41,92,0
0,39,100,0
0,42,127,0
0,39,100,0
0,42,127,0
0,41,92,58
0,41,92,0
0,41,92,61
0,41,92,0
0,41,92,61
0,42,60,0
0,42,60,0
0,41,92,0
0,41,92,61
0,41,92,0
0,41,92,61
0,41,92,0
0,44,127,13
0,32,89,10
0,36,116,0
0,32,94,0
0,36,116,0
0,44,84,0
0,42,127,0
0,42,127,0
0,44,127,10
0,42,60,7
0,33,89,0
0,42,60,0
0,33,94,0
0,45,84,0
0,45,127,10
0,36,94,0
0,38,116,0
0,38,116,0
0,36,89,0
0,42,127,0
0,42,127,0
0,48,84,0
0,39,100,0
0,39,100,0
0,48,127,10
0,42,60,13
0,42,60,0
0,32,89,0
0,44,84,0
0,32,94,0
0,44,127,13
0,42,127,0
0,42,127,0
0,33,89,0
0,36,116,0
0,33,94,0
0,45,84,0
0,36,116,0
0,45,127,13
0,42,60,39
0,42,60,0
0,33,89,93
0,45,84,0
0,33,94,0
0,38,116,74
0,38,116,0
0,39,100,0
0,42,127,0
0,39,100,0
0,42,127,0
0,45,84,186
0,42,60,0
0,42,60,0
0,33,89,0
0,33,94,0
0,69,127,20
0,32,89,160
0,32,94,0
0,44,84,0
0,36,116,0
0,36,116,0
0,42,127,0
0,42,127,0
0,44,127,10
0,42,60,0
0,42,60,0
0,33,89,0
0,45,84,0
0,33,94,0
0,45,127,13
0,38,116,10
0,42,127,0
0,48,84,0
0,36,94,0
0,42,127,0
0,38,116,0
0,36,89,0
0,39,100,0
0,39,100,0
0,48,127,10
0,32,89,13
0,32,94,0
0,44,84,0
0,46,60,0
0,46,60,0
0,44,127,7
0,33,94,13
0,45,84,0
0,36,116,0
0,36,116,0
0,33,89,0
0,42,127,0
0,42,127,0
0,45,127,10
0,42,60,45
0,42,60,0
0,33,89,93
0,45,84,0
0,33,94,0
0,42,127,90
0,38,116,0
0,42,127,0
0,38,116,0
0,39,100,0
0,39,100,0
0,42,60,186
0,42,60,0
0,44,127,141
0,36,116,10
0,44,84,0
0,32,89,0
0,32,94,0
0,36,116,0
0,42,127,0
0,42,127,0
0,44,127,10
0,33,94,0
0,45,84,0
0,33,89,0
0,42,60,0
0,42,60,0
0,45,127,13
0,38,116,0
0,42,127,0
0,48,84,0
0,36,94,0
0,36,89,0
0,42,127,0
0,38,116,0
0,39,100,0
0,39,100,0
0,48,127,10
0,32,94,4
0,42,60,0
0,42,60,0
0,44,84,0
0,32,89,0
0,44,127,13
0,45,84,0
0,33,94,0
0,42,127,0
0,36,116,0
0,42,127,0
0,36,116,0
0,33,89,0
0,45,127,13
0,69,127,16
0,42,60,39
0,67,114,0
0,42,60,0
0,45,84,42
0,33,89,0
0,33,94,0
0,38,116,71
0,38,116,0
0,64,127,0
0,42,127,0
0,79,127,0
0,42,127,0
0,39,100,0
0,39,100,0
0,62,127,58
0,60,127,55
0,42,60,23
0,42,60,0
0,57,127,7
0,45,84,64
0,33,94,0
0,33,89,0
0,36,116,42
0,32,89,0
0,32,94,0
0,36,116,0
0,44,84,0
0,81,127,0
0,72,127,0
0,81,127,0
0,46,60,0
0,46,60,0
0,76,127,0
0,44,127,10
0,33,94,0
0,33,89,0
0,42,60,0
0,45,84,0
0,42,60,0
0,45,127,13
0,38,116,10
0,42,127,0
0,42,127,0
0,36,94,0
0,48,84,0
0,38,116,0
0,36,89,0
0,39,100,0
0,39,100,0
0,48,127,10
0,42,60,7
0,32,94,0
0,42,60,0
0,32,89,0
0,44,84,0
0,44,127,7
0,33,89,16
0,33,94,0
0,36,116,0
0,45,84,0
0,42,127,0
0,42,127,0
0,36,116,0
0,45,127,13
0,42,60,45
0,42,60,0
0,45,84,93
0,33,89,0
0,33,94,0
0,38,116,80
0,38,116,0
0,42,127,0
0,39,100,0
0,39,100,0
0,42,127,0
0,42,60,186
0,45,84,0
0,33,89,0
0,33,94,0
0,42,60,0
0,44,127,16
0,74,127,0
0,83,127,0
0,78,127,3
0,36,116,7
0,36,116,0
0,32,94,0
0,32,89,0
0,44,84,0
0,42,127,0
0,42,127,0
0,44,127,10
0,33,94,7
0,45,84,0
0,42,60,0
0,33,89,0
0,42,60,0
0,45,127,13
0,38,116,0
0,42,127,0
0,42,127,0
0,38,116,0
0,36,94,0
0,48,84,0
0,36,89,0
0,39,100,0
0,39,100,0
0,48,127,10
0,32,89,7
0,42,60,0
0,42,60,0
0,44,84,0
0,32,94,0
0,44,127,13
0,36,116,0
0,33,94,0
0,33,89,0
0,36,116,0
0,42,127,0
0,42,127,0
0,45,84,0
0,45,127,13
0,42,60,39
0,42,60,0
0,45,84,93
0,33,89,0
0,33,94,0
0,38,116,77
0,38,116,0
0,42,127,0
0,39,100,0
0,42,127,0
0,39,100,0
0,69,127,26
0,42,60,160
0,42,60,0
0,72,127,10
0,33,94,64
0,45,84,0
0,33,89,0
0,44,84,52
0,32,89,0
0,32,94,0
0,36,116,0
0,36,116,0
0,42,127,0
0,42,127,0
0,81,127,0
0,76,127,0
0,84,127,3
0,44,127,7
0,42,60,0
0,33,89,0
0,33,94,0
0,45,84,0
0,42,60,0
0,45,127,13
0,38,116,10
0,36,89,0
0,42,127,0
0,36,94,0
0,48,84,0
0,42,127,0
0,38,116,0
0,39,100,0
0,39,100,0
0,48,127,10
0,46,60,10
0,32,89,0
0,32,94,0
0,44,84,0
0,46,60,0
0,44,127,7
0,33,89,16
0,36,116,0
0,42,127,0
0,36,116,0
0,45,84,0
0,42,127,0
0,33,94,0
0,45,127,13
0,42,60,45
0,42,60,0
0,33,94,93
0,45,84,0
0,33,89,0
0,38,116,71
0,42,127,0
0,42,127,0
0,38,116,0
0,39,100,0
0,39,100,0
0,33,94,186
0,45,84,0
0,42,60,0
0,42,60,0
0,33,89,0
0,44,127,10
0,83,127,3
0,86,127,0
0,42,127,7
0,32,89,0
0,36,116,0
0,78,127,0
0,44,84,0
0,42,127,0
0,36,116,0
0,32,94,0
0,79,127,0
0,44,127,13
0,42,60,7
0,45,84,0
0,42,60,0
0,33,89,0
0,33,94,0
0,45,127,13
0,48,84,0
0,36,94,0
0,36,89,0
0,38,116,0
0,38,116,0
0,39,100,0
0,42,127,0
0,42,127,0
0,39,100,0
0,48,127,10
0,42,60,13
0,44,84,0
0,32,94,0
0,36,116,0
0,42,60,0
0,32,89,0
0,36,116,0
0,44,127,13
0,45,84,0
0,36,116,0
0,38,116,0
0,36,116,0
0,33,94,0
0,33,89,0
0,38,116,0
0,39,100,0
0,42,127,0
0,39,100,0
0,42,127,0
0,76,127,0
0,45,127,10
0,36,116,39
0,42,60,0
0,36,116,0
0,42,60,0
0,33,89,93
0,45,84,0
0,33,94,0
0,38,116,61
0,38,116,0
0,42,127,0
0,42,127,0
0,39,100,0
0,74,127,0
0,39,100,0
0,42,60,42
0,36,116,0
0,42,60,0
0,36,116,0
0,76,127,16
0,72,127,0
0,69,127,0
0,54,64,7
0,32,94,0
0,54,64,0
0,44,84,0
0,36,116,0
0,32,89,0
0,36,116,0
0,44,127,0
0,46,60,0
0,46,60,0
0,81,127,0
0,42,127,0
0,42,127,0
0,81,127,0
0,76,127,0
0,84,127,3
0,54,64,4
0,54,64,0
0,42,60,0
0,42,60,0
0,45,84,0
0,33,94,0
0,33,89,0
0,45,127,0
0,54,64,20
0,36,94,0
0,54,64,0
0,48,84,0
0,36,89,0
0,38,116,0
0,42,127,0
0,42,127,0
0,38,116,0
0,39,100,0
0,39,100,0
0,48,127,10
0,32,89,10
0,44,127,0
0,32,94,0
0,54,64,0
0,44,84,0
0,42,60,0
0,54,64,0
0,42,60,0
0,42,127,39
0,54,64,0
0,33,94,0
0,42,127,0
0,36,116,0
0,33,89,0
0,54,64,0
0,36,116,0
0,45,84,0
0,45,127,0
0,54,64,141
0,54,64,0
0,42,60,0
0,42,60,0
0,33,89,39
0,45,84,0
0,33,94,0
0,38,116,55
0,54,64,0
0,54,64,0
0,38,116,0
0,42,127,0
0,42,127,0
0,39,100,0
0,39,100,0
0,91,82,128
0,54,64,10
0,54,64,0
0,45,84,0
0,33,89,0
0,42,60,0
0,42,60,0
0,33,94,0
0,68,109,6
0,74,120,0
0,71,114,7
0,91,96,22
0,43,127,10
0,36,116,0
0,54,64,0
0,36,116,0
0,54,64,0
0,42,127,0
0,42,127,0
0,26,94,26
0,32,94,0
0,38,84,0
0,32,89,0
0,44,84,0
0,26,89,0
0,91,92,0
0,54,64,10
0,54,64,0
0,33,89,0
0,45,84,0
0,42,60,0
0,33,94,0
0,44,127,0
0,42,60,0
0,89,108,26
0,54,64,10
0,38,116,0
0,35,89,0
0,54,64,0
0,38,116,0
0,42,127,0
0,47,84,0
0,42,127,0
0,35,94,0
0,39,100,0
0,39,100,0
0,47,127,10
0,88,62,13
0,27,89,10
0,39,84,0
0,27,94,0
0,42,60,0
0,54,64,0
0,42,60,0
0,54,64,0
0,39,127,10
0,86,104,13
0,42,127,10
0,54,64,0
0,28,89,0
0,54,64,0
0,40,127,0
0,42,127,0
0,36,116,0
0,28,94,0
0,36,116,0
0,40,84,0
0,54,64,109
0,54,64,0
0,42,60,0
0,42,60,0
0,28,89,48
0,28,94,0
0,40,84,0
0,54,64,55
0,54,64,0
0,38,116,0
0,38,116,0
0,39,100,0
0,42,127,0
0,42,127,0
0,39,100,0
0,54,64,154
0,42,60,0
0,54,64,0
0,42,60,0
0,72,127,32
0,69,112,3
0,76,114,3
0,54,64,39
0,44,84,0
0,32,94,0
0,44,127,0
0,36,116,0
0,54,64,0
0,32,89,0
0,36,116,0
0,42,127,0
0,42,127,0
0,33,89,7
0,54,64,0
0,54,64,0
0,42,60,0
0,42,60,0
0,33,94,0
0,45,127,0
0,45,84,0
0,42,127,29
0,36,94,0
0,36,89,0
0,38,116,0
0,48,84,0
0,54,64,0
0,38,116,0
0,54,64,0
0,42,127,0
0,39,100,0
0,39,100,0
0,48,127,10
0,32,94,13
0,44,127,0
0,54,64,0
0,32,89,0
0,46,60,0
0,54,64,0
0,44,84,0
0,46,60,0
0,36,116,45
0,54,64,0
0,33,89,0
0,54,64,0
0,36,116,0
0,33,94,0
0,45,84,0
0,42,127,0
0,42,127,0
0,45,127,0
0,54,64,141
0,42,60,0
0,42,60,0
0,54,64,0
0,45,84,39
0,33,89,0
0,33,94,0
0,54,64,64
0,38,116,0
0,42,127,0
0,38,116,0
0,54,64,0
0,42,127,0
0,39,100,0
0,39,100,0
0,91,67,141
0,33,94,10
0,42,60,0
0,54,64,0
0,54,64,0
0,42,60,0
0,45,84,0
0,33,89,0
0,68,117,0
0,74,117,6
0,71,123,7
0,91,104,6
0,44,84,10
0,36,116,0
0,32,94,0
0,32,89,0
0,36,116,0
0,54,64,0
0,43,127,0
0,54,64,0
0,42,127,0
0,42,127,0
0,91,100,0
0,45,84,4
0,33,89,0
0,42,60,0
0,42,60,0
0,54,64,0
0,33,94,0
0,54,64,0
0,44,127,0
0,89,108,32
0,42,127,10
0,35,94,0
0,38,116,0
0,42,127,0
0,35,89,0
0,38,116,0
0,54,64,0
0,54,64,0
0,47,84,0
0,39,100,0
0,39,100,0
0,47,127,10
0,88,76,10
0,27,89,10
0,42,60,0
0,54,64,0
0,42,60,0
0,39,84,0
0,27,94,0
0,54,64,0
0,39,127,13
0,86,104,42
0,36,116,10
0,36,116,0
0,42,127,0
0,40,127,0
0,42,127,0
0,54,64,0
0,28,94,0
0,28,89,0
0,54,64,0
0,40,84,0
0,76,127,0
0,42,60,48
0,54,64,0
0,54,64,0
0,42,60,0
0,38,84,0
0,26,94,0
0,26,89,0
0,36,84,55
0,24,89,0
0,24,94,0
0,54,64,29
0,54,64,0
0,38,116,0
0,38,116,0
0,74,127,0
0,42,127,0
0,39,100,0
0,42,127,0
0,39,100,0
0,42,60,45
0,54,64,0
0,42,60,0
0,54,64,0
0,45,84,39
0,33,89,0
0,33,94,0
0,76,117,0
0,69,117,10
0,72,117,3
0,54,64,26
0,44,127,0
0,32,89,0
0,54,64,0
0,42,127,0
0,36,116,0
0,36,116,0
0,42,127,0
0,32,94,0
0,44,84,0
0,46,60,0
0,81,127,0
0,46,60,0
0,33,89,13
0,33,94,0
0,42,60,0
0,54,64,0
0,54,64,0
0,45,84,0
0,45,127,0
0,42,60,0
0,42,127,20
0,36,89,0
0,38,116,0
0,54,64,0
0,42,127,0
0,54,64,0
0,36,94,0
0,48,84,0
0,38,116,0
0,39,100,0
0,39,100,0
0,48,127,10
0,44,127,29
0,32,89,0
0,44,84,0
0,42,60,0
0,42,60,0
0,32,94,0
0,54,64,0
0,54,64,0
0,54,64,32
0,33,94,0
0,36,116,0
0,33,89,0
0,42,127,0
0,45,84,0
0,42,127,0
0,36,116,0
0,54,64,0
0,45,127,0
0,54,64,141
0,54,64,0
0,42,60,0
0,42,60,0
0,45,84,39
0,33,94,0
0,33,89,0
0,38,116,80
0,54,64,0
0,54,64,0
0,38,116,0
0,42,127,0
0,39,100,0
0,39,100,0
0,42,127,0
0,91,62,131
0,54,64,10
0,42,60,0
0,54,64,0
0,42,60,0
0,68,112,10
0,74,117,3
0,71,123,3
0,91,96,13
0,54,64,10
0,32,89,0
0,32,94,0
0,36,116,0
0,36,116,0
0,44,84,0
0,43,127,0
0,54,64,0
0,42,127,0
0,42,127,0
0,91,89,0
0,33,89,10
0,45,84,0
0,44,127,0
0,42,60,0
0,33,94,0
0,42,60,0
0,54,64,0
0,54,64,0
0,89,104,6
0,54,64,10
0,54,64,0
0,35,94,0
0,47,84,0
0,35,89,0
0,38,116,0
0,38,116,0
0,42,127,0
0,42,127,0
0,39,100,0
0,39,100,0
0,47,127,10
0,88,76,10
0,54,64,10
0,27,89,0
0,54,64,0
0,42,60,0
0,27,94,0
0,39,84,0
0,42,60,0
0,39,127,13
0,86,100,26
0,42,127,10
0,40,127,0
0,42,127,0
0,40,84,0
0,28,94,0
0,36,116,0
0,54,64,0
0,54,64,0
0,28,89,0
0,36,116,0
0,54,64,119
0,54,64,0
0,42,60,0
0,42,60,0
0,40,84,48
0,28,94,0
0,28,89,0
0,54,64,77
0,38,116,0
0,38,116,0
0,54,64,0
0,39,100,0
0,39,100,0
0,42,127,0
0,42,127,0
0,42,60,144
0,28,89,0
0,40,84,0
0,54,64,0
0,28,94,0
0,42,60,0
0,54,64,0
0,76,114,45
0,72,109,3
0,69,105,10
0,32,94,29
0,54,64,0
0,44,84,0
0,36,116,0
0,44,127,0
0,36,116,0
0,32,89,0
0,54,64,0
0,42,127,0
0,42,127,0
0,42,60,20
0,45,84,0
