track,note,velocity,time
1,28,123,6144
1,40,114,158
1,28,120,96
1,28,117,90
1,28,112,60
1,40,89,96
1,30,127,4
1,30,105,62
1,35,123,200
1,33,120,88
1,35,91,0
1,33,114,96
1,28,114,8
1,40,112,288
1,28,110,12
1,40,98,14
1,28,114,212
1,28,112,96
1,28,92,92
1,35,112,96
1,40,98,86
1,30,122,86
1,30,127,52
1,35,123,208
1,35,126,90
1,35,103,76
1,28,105,96
1,40,93,282
1,28,105,168
1,40,105,10
1,35,117,216
1,28,117,116
1,40,83,96
1,28,117,176
1,30,122,2
1,30,94,44
1,35,114,192
1,35,105,80
1,33,114,96
1,35,105,4
1,28,117,96
1,40,101,272
1,28,110,222
1,28,114,72
1,31,123,178
1,31,114,76
1,33,123,176
1,28,123,146
1,40,114,158
1,28,120,96
1,28,117,90
1,28,112,60
1,40,89,96
1,30,127,4
1,30,105,62
1,35,123,200
1,33,120,88
1,35,91,0
1,33,114,96
1,28,114,8
1,40,112,288
1,28,110,12
1,40,98,14
1,28,114,212
1,28,112,96
1,28,92,92
1,35,112,96
1,40,98,86
1,30,122,86
1,30,127,52
1,35,123,208
1,35,126,90
1,35,103,76
1,28,105,96
1,40,93,282
1,28,105,168
1,40,105,10
1,35,117,216
1,28,117,116
1,40,83,96
1,28,117,176
1,30,122,2
1,30,94,44
1,35,114,192
1,35,105,80
1,33,114,96
1,35,105,4
1,33,117,0
1,33,105,48
1,32,113,128
1,32,127,24
1,28,123,214
1,40,114,158
1,28,120,96
1,28,117,90
1,28,112,60
1,40,89,96
1,30,127,4
1,30,105,62
1,35,123,200
1,33,120,88
1,35,91,0
1,33,114,96
1,28,114,8
1,40,112,288
1,28,110,12
1,40,98,14
1,28,114,212
1,28,112,96
1,28,92,92
1,35,112,96
1,40,98,86
1,30,122,86
1,30,127,52
1,35,123,208
1,35,126,90
1,35,103,76
1,28,105,96
1,40,93,282
1,28,105,168
1,40,105,10
1,35,117,216
1,28,117,116
1,40,83,96
1,28,117,176
1,30,122,96
1,30,94,44
1,35,114,192
1,35,105,80
1,33,114,96
1,35,105,4
1,33,117,64
1,33,105,48
1,32,113,128
1,32,127,24
1,31,123,214
1,43,114,158
1,31,120,96
1,31,117,90
1,31,112,60
1,43,89,96
1,30,127,4
1,30,105,62
1,35,123,200
1,33,120,88
1,35,91,0
1,33,114,96
1,31,114,8
1,43,112,288
1,31,110,12
1,43,98,14
1,31,114,212
1,31,112,96
1,31,92,92
1,35,112,96
1,43,98,86
1,30,127,0
1,30,127,62
1,33,127,166
1,33,123,38
1,38,123,8
1,33,114,96
1,45,107,80
1,31,105,8
1,43,93,288
1,31,105,168
1,43,105,10
1,35,117,216
1,31,117,116
1,43,83,96
1,31,117,176
1,30,127,2
1,34,127,14
1,35,127,72
1,35,117,32
1,35,103,48
1,28,126,110
1,30,127,22
1,31,127,46
1,32,117,24
1,33,123,38
1,45,98,22
1,33,117,480
1,45,99,76
1,33,114,190
1,45,103,8
1,28,105,68
1,35,103,0
1,40,93,282
1,28,105,168
1,40,105,10
1,35,117,216
1,28,117,116
1,40,83,96
1,28,117,176
1,30,122,2
1,30,94,44
1,35,114,192
1,35,105,80
1,33,114,96
1,35,105,4
1,28,117,96
1,40,101,272
1,28,110,222
1,28,114,72
1,31,123,178
1,31,114,76
1,33,123,176
1,28,123,146
1,40,114,158
1,28,120,96
1,28,117,90
1,28,112,60
1,40,89,96
1,30,127,4
1,30,105,62
1,35,123,200
1,33,120,88
1,35,91,0
1,33,114,96
1,28,114,8
1,40,112,288
1,28,110,12
1,40,98,14
1,28,114,212
1,28,112,96
1,28,92,92
1,35,112,96
1,40,98,86
1,30,122,86
1,30,127,52
1,35,123,208
1,35,126,90
1,35,103,76
1,28,105,96
1,40,93,282
1,28,105,168
1,40,105,10
1,35,117,216
1,28,117,116
1,40,83,96
1,28,117,176
1,30,122,2
1,30,94,44
1,35,114,192
1,35,105,80
1,33,114,96
1,35,105,4
1,33,117,0
1,33,105,48
1,32,113,128
1,32,127,24
1,28,123,214
1,40,114,158
1,28,120,96
1,28,117,90
1,28,112,60
1,40,89,96
1,30,127,4
1,30,105,62
1,35,123,200
1,33,120,88
1,35,91,0
1,33,114,96
1,28,114,8
1,40,112,288
1,28,110,12
1,40,98,14
1,28,114,212
1,28,112,96
1,28,92,92
1,35,112,96
1,40,98,86
1,30,122,86
1,30,127,52
1,35,123,208
1,35,126,90
1,35,103,76
1,28,105,96
1,40,93,282
1,28,105,168
1,40,105,10
1,35,117,216
1,28,117,116
1,40,83,96
1,28,117,176
1,30,122,2
1,30,94,44
1,35,114,192
1,35,105,80
1,33,114,96
1,35,105,4
1,28,127,48
1,28,127,438
1,30,127,192
1,30,127,202
1,34,127,240
1,33,127,104
1,45,117,576
1,33,126,178
1,31,123,46
1,43,114,158
1,31,120,96
1,31,117,90
1,31,112,60
1,43,89,96
1,30,127,4
1,30,105,62
1,35,123,200
1,33,120,88
1,35,91,0
1,33,114,96
1,31,114,8
1,43,112,288
1,31,110,12
1,43,98,14
1,31,114,212
1,31,112,96
1,31,92,92
1,35,112,96
1,43,98,86
1,30,127,0
1,30,127,62
1,33,127,166
1,33,123,38
1,38,123,8
1,33,114,96
1,45,107,80
1,31,105,8
1,35,103,0
1,43,93,282
1,31,105,168
1,43,105,10
1,35,117,216
1,31,117,116
1,43,83,96
1,31,117,176
1,30,127,2
1,34,127,14
1,35,127,72
1,35,117,32
1,35,103,48
1,28,126,110
1,30,127,22
1,31,127,46
1,32,117,24
1,33,123,38
1,45,98,22
1,33,117,480
1,45,99,76
1,33,114,190
1,45,103,8
1,28,123,68
1,40,114,158
1,28,120,96
1,28,117,90
1,28,112,60
1,40,89,96
1,30,127,4
1,30,105,62
1,35,123,200
1,33,120,88
1,35,91,0
1,33,114,96
1,28,114,8
1,40,112,288
1,28,110,12
1,40,98,14
1,28,114,212
1,28,112,96
1,28,92,92
1,35,112,96
1,40,98,86
1,30,122,86
1,30,127,52
1,35,123,208
1,35,126,90
1,35,103,76
1,28,105,96
1,40,93,282
1,28,105,168
1,40,105,10
1,35,117,216
1,28,117,116
1,40,83,96
1,28,117,176
1,30,122,2
1,30,94,44
1,35,114,192
1,35,105,80
1,33,114,96
1,35,105,4
1,28,117,96
1,40,101,272
1,28,110,222
1,28,114,72
1,31,123,178
1,31,114,76
1,33,123,176
1,31,123,146
1,43,114,158
1,31,120,96
1,31,117,90
1,31,112,60
1,43,89,96
1,30,127,4
1,30,105,62
1,35,123,200
1,33,120,88
1,35,91,0
1,33,114,96
1,31,114,8
1,43,112,288
1,31,110,12
1,43,98,14
1,31,114,212
1,31,112,96
1,31,92,92
1,35,112,96
1,43,98,86
1,30,127,0
1,30,127,62
1,33,127,166
1,33,123,38
1,38,123,8
1,33,114,96
1,45,107,80
1,31,105,8
1,35,103,0
1,43,93,282
1,31,105,168
1,43,105,10
1,35,117,216
1,31,117,116
1,43,83,96
1,31,117,176
1,30,127,2
1,34,127,14
1,35,127,72
1,35,117,32
1,35,103,48
1,28,126,110
1,30,127,22
1,31,127,46
1,32,117,24
1,33,123,38
1,45,98,22
1,33,117,480
1,45,99,76
1,33,114,190
1,45,103,8
1,31,123,68
1,43,114,158
1,31,120,96
1,31,117,90
1,31,112,60
1,43,89,96
1,30,127,4
1,30,105,62
1,35,123,200
1,33,120,88
1,35,91,0
1,33,114,96
1,31,114,8
1,43,112,288
1,31,110,12
1,43,98,14
1,31,114,212
1,31,112,96
1,31,92,92
1,35,112,96
1,43,98,86
1,30,127,0
1,30,127,62
1,33,127,166
1,33,123,38
1,38,123,8
1,33,114,96
1,45,107,80
1,31,105,8
1,35,103,0
1,43,93,282
1,31,105,168
1,43,105,10
1,35,117,216
1,31,117,116
1,43,83,96
1,31,117,176
1,30,127,2
1,34,127,14
1,35,127,72
1,35,117,32
1,35,103,48
1,28,126,110
1,30,127,22
1,31,127,46
1,32,117,24
1,33,123,38
1,45,98,22
1,33,117,480
1,45,99,76
1,33,114,190
1,45,103,8
1,38,117,68
2,62,94,5376
2,64,94,192
2,66,94,190
2,67,94,30
2,69,94,8
2,62,94,2112
2,59,94,0
2,71,94,0
2,66,94,72
2,64,94,1528
2,62,94,570
2,62,94,0
2,59,94,0
2,69,94,128
2,55,94,768
2,57,94,8
2,59,94,0
2,71,94,576
2,66,94,80
2,55,94,72
2,57,94,0
2,62,94,0
2,71,94,21576
2,73,94,14
2,69,94,30
2,71,94,0
2,69,94,86
2,79,94,58
2,67,94,0
2,78,94,576
2,66,94,0
2,71,94,96
2,76,94,16
2,70,94,288
2,71,94,54
2,81,94,6
2,74,94,0
2,86,94,1536
2,69,94,70
2,55,94,768
2,57,94,8
2,59,94,0
2,71,94,576
2,66,94,80
2,55,94,72
2,57,94,0
2,62,94,0
2,69,94,10824
2,74,94,8
2,73,94,1920
2,71,94,546
2,69,94,0
2,71,94,280
2,83,94,0
2,85,94,2
2,73,94,0
2,74,94,198
2,86,94,0
2,71,94,338
2,73,94,14
2,69,94,30
2,71,94,0
2,69,94,86
2,79,94,58
2,67,94,0
2,78,94,576
2,66,94,0
2,71,94,96
2,76,94,16
2,70,94,288
2,71,94,54
2,81,94,6
2,74,94,0
2,86,94,1536
2,69,94,70
2,62,94,2112
2,59,94,0
2,71,94,0
2,66,94,72
2,64,94,1528
2,62,94,570
2,62,94,0
2,59,94,0
2,69,94,128
2,55,94,768
2,57,94,8
2,59,94,0
2,71,94,576
2,66,94,80
2,55,94,72
2,57,94,0
2,62,94,0
2,71,94,72
2,73,94,14
2,69,94,30
2,71,94,0
2,69,94,86
2,79,94,58
2,67,94,0
2,78,94,576
2,66,94,0
2,71,94,96
2,76,94,16
2,70,94,288
2,71,94,54
2,81,94,6
2,74,94,0
2,86,94,1536
2,71,94,70
2,73,94,14
2,69,94,30
2,71,94,0
2,69,94,86
2,79,94,58
2,67,94,0
2,78,94,576
2,66,94,0
2,71,94,96
2,76,94,16
2,70,94,288
2,71,94,54
2,81,94,6
2,74,94,0
2,86,94,1536
2,69,94,70
2,76,94,0
2,62,94,0
3,59,96,6144
3,55,93,0
3,62,102,0
3,66,99,0
3,52,102,0
3,54,110,92
3,57,92,0
3,61,94,0
3,64,86,0
3,47,100,64
3,66,96,0
3,62,100,0
3,59,89,0
3,62,104,174
3,59,98,0
3,66,99,0
3,52,93,0
3,55,96,0
3,57,93,144
3,54,114,0
3,64,93,0
3,61,102,0
3,62,96,150
3,66,94,0
3,59,83,0
3,47,95,0
3,66,106,206
3,62,107,0
3,59,92,0
3,52,90,0
3,55,92,0
3,64,86,154
3,57,81,0
3,61,87,0
3,54,96,0
3,62,92,178
3,59,85,0
3,66,85,0
3,47,104,0
3,66,99,88
3,59,89,0
3,55,96,0
3,62,100,0
3,52,102,0
3,66,102,218
3,62,102,0
3,59,89,0
3,55,81,0
3,43,83,0
3,50,83,0
3,45,100,136
3,57,80,0
3,52,102,0
3,62,109,0
3,59,96,130
3,55,93,0
3,62,102,0
3,66,99,0
3,52,102,0
3,57,102,864
3,59,83,96
3,55,76,176
3,54,59,162
3,54,110,50
3,57,92,0
3,61,94,0
3,64,86,0
3,47,100,64
3,66,96,0
3,62,100,0
3,59,89,0
3,62,104,174
3,59,98,0
3,66,99,0
3,52,93,0
3,55,96,0
3,52,92,960
3,57,93,156
3,54,114,0
3,64,93,0
3,61,102,0
3,62,96,150
3,66,94,0
3,59,83,0
3,47,95,0
3,66,106,206
3,62,107,0
3,59,92,0
3,52,90,0
3,55,92,0
3,59,93,960
3,64,86,160
3,57,81,0
3,61,87,0
3,54,96,0
3,62,92,178
3,59,85,0
3,66,85,0
3,47,104,0
3,55,102,88
3,52,104,0
3,62,114,0
3,60,109,0
3,60,84,50
3,66,91,0
3,56,114,0
3,62,90,0
3,59,96,108
3,55,93,0
3,62,102,0
3,66,99,0
3,52,102,0
3,57,102,864
3,59,83,96
3,55,76,176
3,54,59,162
3,54,110,50
3,57,92,0
3,61,94,0
3,64,86,0
3,47,100,64
3,66,96,0
3,62,100,0
3,59,89,0
3,62,104,174
3,59,98,0
3,66,99,0
3,52,93,0
3,55,96,0
3,52,92,960
3,57,93,156
3,54,114,0
3,64,93,0
3,61,102,0
3,62,96,150
3,66,94,0
3,59,83,0
3,47,95,0
3,66,106,206
3,62,107,0
3,59,92,0
3,52,90,0
3,55,92,0
3,59,93,960
3,64,86,160
3,57,81,0
3,61,87,0
3,54,96,0
3,62,92,178
3,59,85,0
3,66,85,0
3,47,104,0
3,67,95,88
3,55,102,0
3,52,104,0
3,62,114,0
3,60,109,0
3,66,99,50
3,60,84,0
3,66,91,0
3,56,114,0
3,62,90,0
3,59,96,114
3,55,93,0
3,62,102,0
3,66,99,0
3,54,110,92
3,57,92,0
3,61,94,0
3,64,86,0
3,47,100,64
3,66,96,0
3,62,100,0
3,59,89,0
3,62,104,174
3,59,98,0
3,66,99,0
3,55,96,0
3,57,102,156
3,64,102,0
3,54,124,0
3,61,106,0
3,62,100,78
3,57,102,0
3,60,104,0
3,67,102,0
3,66,110,38
3,62,100,0
3,57,93,0
3,60,102,0
3,66,106,134
3,62,107,0
3,59,92,0
3,55,92,0
3,54,91,154
3,61,94,0
3,58,106,0
3,42,102,0
3,54,87,112
3,62,89,0
3,59,98,0
3,62,107,158
3,59,96,0
3,55,102,0
3,52,107,0
3,66,102,0
3,62,117,104
3,55,114,0
3,57,114,0
3,69,96,960
3,66,106,88
3,62,107,0
3,59,92,0
3,52,90,0
3,55,92,0
3,64,86,154
3,57,81,0
3,61,87,0
3,54,96,0
3,62,92,178
3,59,85,0
3,66,85,0
3,47,104,0
3,66,99,88
3,59,89,0
3,55,96,0
3,62,100,0
3,52,102,0
3,66,102,218
3,62,102,0
3,59,89,0
3,55,81,0
3,43,83,0
3,50,83,0
3,45,100,136
3,57,80,0
3,52,102,0
3,62,109,0
3,59,96,130
3,55,93,0
3,62,102,0
3,66,99,0
3,52,102,0
3,57,102,864
3,59,83,96
3,55,76,176
3,54,59,162
3,54,110,50
3,57,92,0
3,61,94,0
3,64,86,0
3,47,100,64
3,66,96,0
3,62,100,0
3,59,89,0
3,62,104,174
3,59,98,0
3,66,99,0
3,52,93,0
3,55,96,0
3,52,92,960
3,57,93,156
3,54,114,0
3,64,93,0
3,61,102,0
3,62,96,150
3,66,94,0
3,59,83,0
3,47,95,0
3,66,106,206
3,62,107,0
3,59,92,0
3,52,90,0
3,55,92,0
3,59,93,960
3,64,86,160
3,57,81,0
3,61,87,0
3,54,96,0
3,62,92,178
3,59,85,0
3,66,85,0
3,47,104,0
3,55,102,88
3,52,104,0
3,62,114,0
3,60,109,0
3,60,84,50
3,66,91,0
3,56,114,0
3,62,90,0
3,59,96,108
3,55,93,0
3,62,102,0
3,66,99,0
3,52,102,0
3,57,102,864
3,59,83,96
3,55,76,176
3,54,59,162
3,54,110,50
3,57,92,0
3,61,94,0
3,64,86,0
3,47,100,64
3,66,96,0
3,62,100,0
3,59,89,0
3,62,104,174
3,59,98,0
3,66,99,0
3,52,93,0
3,55,96,0
3,52,92,960
3,57,93,156
3,54,114,0
3,64,93,0
3,61,102,0
3,62,96,150
3,66,94,0
3,59,83,0
3,47,95,0
3,66,106,206
3,62,107,0
3,59,92,0
3,52,90,0
3,55,92,0
3,59,93,960
3,64,86,160
3,57,81,0
3,61,87,0
3,54,96,0
3,62,92,178
3,59,85,0
3,66,85,0
3,47,104,0
3,52,95,88
3,55,98,0
3,59,93,0
3,62,88,0
3,66,99,0
3,62,86,496
3,55,82,0
3,52,86,0
3,66,91,0
3,59,88,0
3,64,90,100
3,49,74,0
3,61,67,0
3,57,76,0
3,54,74,0
3,60,89,682
3,58,89,0
3,53,90,0
3,65,96,0
3,62,98,0
3,69,93,0
3,46,81,0
3,45,90,26
3,59,93,0
3,52,95,0
3,66,102,0
3,62,102,0
3,55,81,0
3,69,64,576
3,59,96,72
3,55,93,0
3,62,102,0
3,66,99,0
