track,note,velocity,time
1,35,60,4608
1,44,80,0
1,44,90,304
1,38,70,0
1,44,40,198
1,35,60,26
1,44,80,0
1,44,90,304
1,38,85,0
1,35,50,198
1,44,50,0
1,35,60,26
1,44,70,0
1,44,80,304
1,38,70,0
1,44,40,201
1,35,60,23
1,44,80,0
1,44,80,304
1,38,80,0
1,44,50,201
1,35,60,23
1,44,70,0
1,44,90,304
1,38,70,0
1,44,40,201
1,35,60,23
1,44,80,0
1,44,90,304
1,38,80,0
1,44,50,201
1,35,60,23
1,44,70,0
1,44,90,304
1,38,70,0
1,44,40,201
1,35,60,23
1,44,80,0
1,44,90,304
1,38,80,0
1,35,50,201
1,44,50,0
1,35,60,0
1,42,70,0
1,42,80,304
1,42,40,201
1,35,60,23
1,42,80,0
1,42,80,304
1,35,50,201
1,42,50,0
1,35,60,23
1,42,80,0
1,42,90,304
1,42,40,198
1,35,60,26
1,42,80,0
1,42,90,304
1,42,50,198
1,35,60,26
1,42,80,0
1,42,90,304
1,42,40,198
1,35,60,26
1,42,80,0
1,42,90,304
1,42,50,198
1,35,60,26
1,42,80,0
1,35,60,1456
1,42,80,0
1,42,90,304
1,42,40,195
1,35,60,29
1,42,80,0
1,42,90,304
1,42,50,195
1,35,60,29
1,42,80,0
1,42,70,304
1,42,40,195
1,35,60,29
1,42,80,0
1,42,70,304
1,42,50,195
1,35,60,29
1,42,70,0
1,42,70,304
1,42,40,195
1,35,60,29
1,42,80,0
1,35,60,304
1,42,80,0
1,42,50,195
1,35,60,29
1,42,80,0
1,42,90,304
1,42,40,195
1,35,60,29
1,42,80,0
1,35,80,304
1,42,90,0
1,42,50,195
1,35,60,29
1,42,70,0
1,42,90,304
1,42,40,195
1,35,60,29
1,42,70,0
1,42,90,304
1,42,50,195
1,35,60,29
1,42,80,0
1,42,70,304
1,42,40,195
1,35,60,29
1,42,80,0
1,42,70,304
1,42,50,195
1,35,60,29
1,42,70,0
1,42,80,304
1,42,40,201
1,35,60,23
1,42,80,0
1,42,80,304
1,42,50,201
1,35,60,23
1,42,80,0
1,35,60,688
1,42,70,0
1,35,60,688
1,38,50,0
1,42,70,0
1,49,40,0
1,42,80,304
1,37,80,0
1,42,50,195
1,35,60,29
1,42,80,0
1,42,90,304
1,37,80,0
1,42,50,195
1,35,60,29
1,42,70,0
1,38,70,201
1,42,90,23
1,37,70,0
1,42,40,201
1,35,60,23
1,42,80,0
1,42,90,304
1,37,80,0
1,42,50,201
1,42,70,23
1,42,70,304
1,37,80,0
1,42,40,195
1,35,60,29
1,42,80,0
1,35,60,304
1,42,80,0
1,42,50,195
1,35,60,29
1,42,70,0
1,42,90,304
1,37,80,0
1,42,40,195
1,35,60,29
1,42,70,0
1,42,90,304
1,37,78,0
1,42,50,195
1,35,60,29
1,42,70,0
1,42,90,304
1,37,80,0
1,42,40,195
1,35,60,29
1,42,70,0
1,42,90,304
1,37,78,0
1,42,50,195
1,35,60,29
1,42,80,0
1,42,70,304
1,37,70,0
1,42,40,195
1,35,60,29
1,42,80,0
1,42,70,304
1,37,85,0
1,42,50,195
1,35,60,29
1,42,70,0
1,38,70,201
1,42,90,23
1,37,70,0
1,42,40,201
1,35,60,23
1,42,80,0
1,42,90,304
1,37,80,0
1,42,50,201
1,38,100,0
1,35,100,0
1,38,60,48
1,38,50,67
1,42,100,29
1,38,40,0
1,38,30,48
1,48,90,45
1,38,60,0
1,38,40,48
1,45,90,67
1,42,100,29
1,38,60,0
1,38,40,48
1,41,90,45
1,49,80,0
1,38,50,0
1,51,80,0
1,38,60,198
1,42,80,26
1,37,70,0
1,51,90,0
1,51,70,198
1,38,40,26
1,51,70,0
1,42,100,304
1,37,70,0
1,51,90,0
1,51,70,198
1,51,80,26
1,42,80,304
1,37,70,0
1,51,90,0
1,51,70,201
1,38,40,23
1,51,80,0
1,42,100,304
1,37,70,0
1,51,90,0
1,51,70,201
1,51,70,23
1,38,60,201
1,42,90,23
1,37,60,0
1,51,90,0
1,38,40,201
1,51,70,0
1,51,80,23
1,38,50,201
1,42,100,23
1,37,70,0
1,51,90,0
1,51,70,201
1,51,80,23
1,42,80,304
1,37,70,0
1,51,90,0
1,51,70,201
1,38,40,23
1,51,80,0
1,42,100,304
1,37,70,0
1,51,90,0
1,51,70,201
1,51,70,23
1,42,90,304
1,37,60,0
1,51,90,0
1,38,40,201
1,51,70,0
1,51,80,23
1,40,69,176
1,42,100,23
1,37,70,0
1,51,90,0
1,51,70,201
1,40,69,23
1,51,80,0
1,40,82,173
1,40,80,20
1,42,80,0
1,37,70,0
1,51,90,0
1,51,70,201
1,38,40,23
1,51,80,0
1,42,100,304
1,37,70,0
1,51,90,0
1,51,70,201
1,51,80,23
1,42,80,304
1,37,70,0
1,51,90,0
1,38,30,201
1,51,70,0
1,38,40,23
1,51,80,0
1,42,100,304
1,37,70,0
1,51,90,0
1,51,70,201
1,35,90,0
1,38,70,122
1,42,80,29
1,51,90,0
1,38,60,45
1,51,80,0
1,38,80,0
1,51,80,0
1,35,80,122
1,38,50,0
1,42,100,29
1,51,90,0
1,38,40,48
1,38,60,45
1,44,80,0
1,44,70,0
1,35,60,0
1,44,90,304
1,44,50,198
1,44,80,26
1,35,60,0
1,44,90,304
1,44,50,198
1,35,50,0
1,44,80,26
1,35,60,0
1,44,90,304
1,44,70,201
1,44,80,23
1,35,60,0
1,44,90,304
1,44,70,201
1,44,70,23
1,35,60,0
1,44,90,304
1,44,50,198
1,44,80,26
1,35,60,0
1,44,90,304
1,44,50,198
1,44,80,0
1,35,60,0
1,40,70,103
1,35,70,0
1,35,74,0
1,40,74,0
1,35,76,77
1,40,76,0
1,51,70,0
1,35,60,0
1,57,70,0
1,42,90,304
1,38,60,0
1,51,90,0
1,38,40,201
1,51,70,0
1,51,80,23
1,35,60,0
1,42,100,304
1,38,70,0
1,51,90,0
1,35,50,198
1,51,70,3
1,51,80,23
1,35,60,0
1,38,75,176
1,42,70,29
1,51,90,0
1,51,70,198
1,51,90,26
1,35,60,0
1,38,81,0
1,42,100,298
1,51,90,0
1,38,75,0
1,35,75,0
1,49,81,164
1,35,76,0
1,51,70,22
1,51,70,20
1,42,90,304
1,51,90,0
1,38,81,26
1,51,70,25
1,51,80,20
1,35,60,0
1,38,59,176
1,42,72,48
1,51,72,0
1,38,72,0
1,35,72,0
1,38,81,173
1,35,81,0
1,51,70,25
1,38,50,295
1,38,40,29
1,42,100,0
1,38,30,48
1,48,90,67
1,38,60,29
1,38,40,48
1,45,90,67
1,38,60,29
1,42,100,0
1,38,40,48
1,41,90,67
1,38,50,29
1,49,80,0
1,51,80,0
1,35,50,0
1,38,69,176
1,42,80,48
1,35,70,0
1,51,90,0
1,38,75,0
1,37,70,0
1,38,81,173
1,51,70,22
1,51,70,20
1,42,100,304
1,37,70,0
1,51,90,0
1,51,70,198
1,51,80,26
1,38,81,176
1,35,81,0
1,42,70,42
1,37,70,0
1,51,90,0
1,51,70,198
1,51,90,26
1,42,100,304
1,51,90,0
1,38,72,176
1,51,72,22
1,51,70,26
1,38,81,0
1,35,81,0
1,42,100,304
1,37,70,0
1,51,90,0
1,38,40,198
1,51,50,0
1,51,80,26
1,42,100,304
1,37,70,0
1,51,90,0
1,38,40,198
1,51,50,0
1,35,50,26
1,51,80,0
1,40,70,176
1,35,70,0
1,35,74,442
1,40,74,0
1,35,76,322
1,40,76,0
1,35,88,322
1,49,88,0
1,40,81,167
1,40,89,58
1,35,75,194
1,35,88,39
1,49,88,0
1,40,81,167
1,40,88,58
1,35,74,194
1,35,88,39
1,49,88,0
1,40,81,167
1,40,90,58
1,35,75,194
1,35,88,39
1,49,88,0
1,40,81,167
1,35,61,20
1,40,61,0
1,40,67,58
1,40,74,58
1,35,60,39
1,49,88,0
1,51,70,0
1,38,60,201
1,42,90,23
1,51,90,0
1,38,90,0
1,38,40,201
1,51,70,0
1,35,60,23
1,51,80,0
1,42,100,304
1,51,90,0
1,38,100,0
1,35,50,198
1,51,70,3
1,51,70,23
1,35,60,0
1,38,60,201
1,51,90,23
1,42,90,0
1,38,90,0
1,51,70,201
1,38,40,0
1,51,80,23
1,35,60,0
1,51,90,304
1,42,100,0
1,38,100,0
1,35,50,198
1,51,70,3
1,51,70,23
1,35,60,0
1,38,60,201
1,51,90,23
1,42,90,0
1,38,90,0
1,51,70,201
1,38,40,0
1,51,80,23
1,35,60,0
1,51,90,304
1,42,100,0
1,38,100,0
1,35,50,198
1,51,70,3
1,38,81,39
1,38,81,0
1,35,70,0
1,51,70,0
1,38,70,0
1,38,70,176
1,35,70,0
1,35,76,0
1,38,76,0
1,35,80,0
1,38,80,0
1,51,70,0
1,49,88,0
1,42,100,304
1,35,70,0
1,51,90,0
1,38,75,0
1,38,81,176
1,51,50,22
1,51,80,26
1,38,69,176
1,42,100,58
1,35,70,0
1,51,90,0
1,38,75,0
1,51,50,198
1,51,80,26
1,42,80,304
1,37,70,0
1,51,90,0
1,51,70,201
1,51,80,23
1,42,100,304
1,37,70,0
1,51,90,0
1,51,70,201
1,51,70,23
1,42,100,304
1,51,90,0
1,38,88,0
1,51,50,198
1,51,80,26
1,38,81,0
1,38,75,176
1,42,100,58
1,51,90,0
1,43,61,0
1,41,67,48
1,43,74,58
1,51,50,22
1,51,80,26
1,40,88,0
1,35,88,0
1,40,81,176
1,35,81,0
1,42,80,39
1,51,90,0
1,51,70,201
1,38,40,23
1,51,80,0
1,40,75,0
1,35,75,0
1,38,40,200
1,42,100,23
1,51,90,0
1,40,90,0
1,51,70,201
1,51,80,0
1,49,88,0
1,38,65,176
1,42,81,66
1,37,81,0
1,51,81,0
1,38,81,0
1,35,81,0
1,38,81,176
1,35,81,0
1,51,70,25
1,38,40,23
1,51,80,0
1,42,100,304
1,37,70,0
1,51,90,0
1,51,70,201
1,51,80,23
1,42,80,304
1,37,70,0
1,51,90,0
1,38,30,201
1,51,70,0
1,38,40,23
1,51,80,0
1,42,100,304
1,37,70,0
1,51,90,0
1,51,70,201
1,51,70,23
1,42,100,304
1,37,70,0
1,51,90,0
1,38,40,198
1,51,50,0
1,51,80,26
1,42,100,304
1,37,70,0
1,51,90,0
1,38,40,198
1,51,50,0
1,51,70,26
1,42,80,304
1,37,70,0
1,51,90,0
1,51,70,198
1,51,80,26
1,42,100,304
1,37,80,0
1,51,90,0
1,51,70,198
1,51,70,26
1,42,90,304
1,37,60,0
1,51,90,0
1,38,40,201
1,51,70,0
1,51,80,23
1,38,71,176
1,42,74,39
1,51,74,0
1,38,74,0
1,35,74,0
1,40,81,175
1,35,81,0
1,49,81,0
1,51,82,25
1,51,80,23
1,42,70,304
1,37,70,0
1,51,90,0
1,51,70,198
1,51,90,26
1,42,100,304
1,51,90,0
1,51,70,198
1,51,70,26
1,42,100,304
1,37,70,0
1,51,90,0
1,38,40,198
1,51,50,0
1,51,80,26
1,42,100,304
1,37,70,0
1,51,90,0
1,38,40,198
1,51,50,0
1,51,80,26
1,38,60,195
1,42,80,29
1,37,70,0
1,51,90,0
1,35,70,195
1,51,70,0
1,51,80,29
1,38,60,195
1,42,100,29
1,37,80,0
1,51,90,0
1,35,80,195
1,38,80,0
1,51,80,0
1,38,81,285
1,35,81,0
1,51,82,0
1,38,40,301
1,38,81,23
1,38,81,175
1,42,100,39
1,37,70,0
1,38,88,0
1,35,70,303
1,38,70,0
1,51,70,1456
1,38,59,176
1,38,67,39
1,42,100,0
1,37,70,0
1,51,90,0
1,57,50,197
1,38,40,0
1,51,50,0
1,35,50,0
1,51,80,26
1,38,62,176
1,38,69,39
1,42,100,0
1,37,70,0
1,51,90,0
1,57,50,197
1,38,40,0
1,51,50,0
1,35,50,0
1,51,80,26
1,42,70,304
1,37,70,0
1,51,90,0
1,51,70,198
1,51,90,26
1,42,100,304
1,51,90,0
1,51,70,198
1,51,70,26
1,38,56,176
1,38,67,39
1,42,90,0
1,37,60,0
1,51,90,0
1,57,50,197
1,35,50,0
1,38,40,3
1,51,70,0
1,51,80,23
1,38,62,176
1,38,69,39
1,42,100,0
1,37,70,0
1,51,90,0
1,57,50,197
1,35,50,0
1,51,70,3
1,51,80,23
1,42,80,304
1,37,70,0
1,51,90,0
1,38,40,201
1,51,70,0
1,51,80,23
1,38,30,201
1,42,100,23
1,37,70,0
1,51,90,0
1,51,62,201
1,38,65,39
1,38,81,0
1,38,81,0
1,51,70,0
1,49,81,173
1,42,100,128
1,37,70,0
1,51,90,0
1,51,50,22
1,38,67,42
1,38,69,0
1,38,81,0
1,51,80,0
1,57,81,173
1,42,100,128
1,37,70,0
1,51,90,0
1,51,60,22
1,38,66,42
1,38,71,0
1,38,81,0
1,51,80,0
1,49,81,173
1,42,70,128
1,37,70,0
1,51,90,0
1,51,62,22
1,38,66,42
1,38,81,0
1,38,81,0
1,51,90,0
1,57,81,173
1,42,100,128
1,51,90,0
1,51,64,22
1,38,67,42
1,38,74,0
1,38,81,0
1,51,70,0
1,49,81,173
1,38,60,25
1,42,90,23
1,37,60,0
1,51,90,0
1,51,70,25
1,51,80,23
1,42,100,304
1,37,70,0
1,51,90,0
1,51,70,201
1,51,80,23
1,42,80,304
1,37,70,0
1,51,100,0
1,38,40,201
1,51,70,0
1,51,80,23
1,38,60,201
1,51,50,0
1,42,100,23
1,37,80,0
1,51,90,0
1,38,50,201
1,51,70,0
1,51,80,23
1,38,59,176
1,42,80,39
1,37,70,0
1,51,90,0
1,40,67,0
1,35,50,197
1,57,72,0
1,51,70,3
1,38,40,23
1,51,80,0
1,38,62,176
1,42,100,39
1,37,70,0
1,51,90,0
1,40,69,0
1,35,50,197
1,57,72,0
1,51,70,3
1,51,80,23
1,42,80,304
1,37,70,0
1,51,90,0
1,51,70,201
1,38,40,23
1,51,80,0
1,38,40,201
1,42,100,23
1,37,70,0
1,51,90,0
1,51,70,201
1,38,81,39
1,38,81,0
1,51,70,0
1,38,70,0
1,35,70,0
1,38,88,176
1,49,88,0
1,35,88,0
1,42,90,39
1,37,60,0
1,51,90,0
1,38,40,201
1,51,70,0
1,51,80,23
1,38,88,0
1,35,88,0
1,42,100,295
1,37,70,0
1,51,90,0
1,38,81,0
1,35,81,0
1,63,88,175
1,38,70,0
1,35,70,0
1,51,70,25
1,51,80,23
1,42,80,304
1,37,70,0
1,51,90,0
1,38,30,201
1,51,70,0
1,38,40,23
1,51,80,0
1,42,100,0
1,37,70,0
1,51,90,0
1,51,70,201
1,51,70,23
1,38,81,0
1,49,81,173
1,51,90,128
1,37,70,0
1,42,100,0
1,51,50,22
1,38,67,42
1,38,69,0
1,51,80,0
1,38,81,0
1,57,81,173
1,51,90,128
1,37,70,0
1,42,100,0
1,51,60,22
1,38,66,42
1,38,71,0
1,51,80,0
1,38,81,0
1,49,81,173
1,51,90,128
1,37,70,0
1,42,70,0
1,51,62,22
1,38,66,42
1,38,81,0
1,51,90,0
1,38,81,0
1,51,90,301
1,42,100,0
1,38,88,0
1,35,69,0
1,38,94,175
1,35,71,0
1,51,64,22
1,51,70,26
1,42,90,304
1,37,60,0
1,51,90,0
1,38,88,0
1,35,88,0
1,51,70,200
1,51,80,23
1,38,81,0
1,35,81,0
1,38,61,175
1,42,100,47
1,37,70,0
1,51,90,0
1,38,88,0
1,35,88,0
1,51,70,200
1,51,80,23
1,38,88,0
1,35,88,0
1,42,70,303
1,37,70,0
1,51,90,0
1,38,88,0
1,35,88,0
1,51,70,197
1,51,90,26
1,38,81,0
1,35,81,0
1,38,64,175
1,42,100,47
1,51,90,0
1,38,88,0
1,35,88,0
1,51,70,197
1,38,81,42
1,38,81,0
1,51,70,0
1,38,88,0
1,35,88,0
1,42,90,303
1,37,60,0
1,51,90,0
1,38,88,0
1,35,88,0
1,51,70,200
1,51,80,23
1,38,81,0
1,35,81,0
1,38,62,175
1,42,100,47
1,37,70,0
1,51,90,0
1,38,88,0
1,35,88,0
1,51,70,200
1,35,80,23
1,57,80,0
1,57,22,16
1,57,23,0
