track,note,velocity,time
1,62,107,12322
1,62,102,76
1,62,107,70
1,61,104,78
1,62,94,32
1,64,109,40
1,65,109,40
1,69,109,56
1,67,108,28
1,67,109,154
1,67,109,56
1,67,107,68
1,69,108,82
1,69,109,68
1,69,106,74
1,70,109,48
1,70,104,68
1,70,109,98
1,73,109,60
1,73,86,56
1,74,105,0
1,76,107,16
1,69,108,62
1,74,109,270
1,72,107,2576
1,70,105,30
1,69,109,46
1,70,92,672
1,67,102,18
1,74,106,430
1,69,104,44
1,65,97,36
1,68,101,12
1,69,90,32
1,65,108,46
1,62,98,16
1,64,91,12
1,65,108,16
1,64,106,18
1,62,95,2
1,64,101,26
1,62,107,18
1,61,105,34
1,62,102,28
1,67,109,814
1,67,108,120
1,67,108,104
1,67,109,124
1,69,103,110
1,67,102,32
1,65,93,48
1,64,102,34
1,65,105,56
1,65,108,122
1,65,108,130
1,65,108,108
1,67,105,52
1,65,98,48
1,64,101,36
1,62,98,14
1,64,108,42
1,64,109,110
1,64,109,122
1,64,103,100
1,65,107,78
1,67,109,74
1,69,109,88
1,67,109,40
1,67,107,56
1,67,102,54
1,67,100,56
1,65,109,48
1,64,108,40
1,65,106,38
1,62,100,12
1,64,98,48
1,65,100,52
1,65,107,40
1,65,99,54
1,64,109,34
1,62,108,16
1,64,109,44
1,64,109,70
1,64,100,44
1,65,108,40
1,65,109,88
1,65,108,72
1,67,96,128
1,65,97,78
1,64,103,54
1,62,103,24
1,62,97,48
1,62,97,56
1,61,101,54
1,62,90,16
1,64,102,38
1,65,101,36
1,69,96,30
1,67,99,50
1,67,109,416
1,67,100,50
1,67,100,54
1,69,104,28
1,69,85,14
1,69,95,54
1,70,101,16
1,70,92,72
1,70,99,44
1,73,104,54
1,74,102,22
1,76,102,240
1,69,97,18
1,68,107,100
1,69,97,8
1,74,109,8
1,68,101,30
1,69,98,128
1,74,107,6
1,72,106,30
1,74,91,48
1,72,95,50
1,70,104,36
1,69,101,28
1,68,103,20
1,67,98,12
1,70,107,0
1,69,108,16
1,67,101,12
1,74,102,8
1,69,103,22
1,65,91,18
1,69,98,14
1,67,94,16
1,65,106,8
1,60,88,4
1,62,94,0
1,65,109,0
1,64,105,4
1,62,95,20
1,64,102,176
1,65,91,12
1,62,86,160
1,62,100,14
1,62,103,90
1,62,99,72
1,62,103,84
1,64,105,60
1,65,100,62
1,69,97,54
1,67,103,20
1,62,84,10
1,64,91,12
1,65,99,4
1,67,97,48
1,67,105,60
1,67,100,28
1,69,106,42
1,69,96,40
1,69,101,80
1,70,105,40
1,70,98,70
1,70,105,82
1,73,109,56
1,74,108,68
1,76,104,60
1,69,105,36
1,74,109,864
1,72,102,30
1,70,103,12
1,69,105,20
1,67,101,22
1,69,102,20
1,70,92,0
1,74,98,36
1,69,106,26
1,65,90,30
1,69,94,28
1,65,106,32
1,62,94,24
1,65,102,18
1,64,107,30
1,62,100,14
1,64,102,34
1,62,103,10
1,61,107,22
1,62,102,30
1,67,109,602
1,67,96,18
1,67,104,268
1,65,104,28
1,67,94,64
1,65,94,52
1,64,101,4
1,65,103,4
1,65,109,162
1,65,109,148
1,65,107,94
1,65,109,142
1,67,98,48
1,65,94,48
1,64,103,40
1,62,104,12
1,64,108,18
1,64,109,140
1,64,109,128
1,64,102,98
1,65,100,104
1,67,109,82
1,69,107,74
1,67,109,64
1,69,92,48
1,67,106,100
1,67,105,78
1,67,102,82
1,65,106,24
1,67,94,176
1,65,89,46
1,64,102,0
1,65,104,8
1,65,106,76
1,65,98,94
1,62,109,16
1,64,100,2
1,65,101,8
1,64,109,10
1,65,103,12
1,67,102,22
1,69,91,8
1,64,98,20
1,62,109,128
1,62,99,68
1,62,95,40
1,62,98,90
1,64,101,40
1,65,102,50
1,69,96,50
1,67,100,32
1,67,92,14
1,65,97,20
1,67,96,0
1,67,92,10
1,65,72,16
1,67,102,70
1,67,103,86
1,69,109,68
1,69,103,80
1,69,96,60
1,70,104,36
1,70,99,82
1,70,99,84
1,73,103,64
1,74,97,66
1,76,93,24
1,69,99,38
1,68,107,36
1,69,100,0
1,74,108,18
1,72,102,2672
1,70,101,22
1,69,102,20
1,67,104,22
1,74,99,64
1,69,99,36
1,65,90,24
1,69,100,38
1,65,103,36
1,62,96,20
1,65,103,36
1,64,102,18
1,62,95,14
1,64,103,176
1,65,91,428
1,64,94,294
1,63,92,36
1,62,92,24
1,63,105,18
1,65,91,256
1,67,104,18
1,70,99,12
1,75,96,108
1,75,109,92
1,77,94,64
1,75,90,34
1,74,106,4
2,41,110,3648
2,45,110,28
2,41,110,40
2,39,110,62
2,43,110,68
2,46,110,48
2,43,110,18
2,39,110,54
2,38,110,68
2,41,110,36
2,38,110,28
2,41,110,78
2,45,110,24
2,45,110,76
2,45,110,56
2,40,110,84
2,38,110,102
2,41,110,76
2,45,110,48
2,41,110,56
2,45,110,48
2,38,110,48
2,41,110,32
2,45,110,20
2,41,110,62
2,38,110,100
2,43,110,74
2,38,110,30
2,41,110,82
2,45,110,46
2,41,110,42
2,43,110,24
2,43,110,84
2,42,110,20
2,42,110,98
2,41,110,22
2,41,110,112
2,40,110,36
2,40,110,76
2,43,110,106
2,43,110,130
2,36,110,56
2,36,110,48
2,43,110,48
2,43,110,68
2,45,110,38
2,45,110,100
2,38,110,88
2,38,110,90
2,45,110,38
2,45,110,100
2,38,110,84
2,45,110,24
2,41,110,24
2,45,110,56
2,38,110,32
2,38,110,68
2,45,110,20
2,42,110,60
2,45,110,48
2,38,110,20
2,42,110,70
2,45,110,24
2,42,110,26
2,45,110,24
2,43,110,80
2,43,110,106
2,38,110,36
2,38,110,86
2,43,110,72
2,43,110,54
2,38,110,58
2,43,110,80
2,38,110,58
2,41,110,72
2,45,110,12
2,41,110,38
2,45,110,60
2,40,110,16
2,40,110,98
2,45,110,24
2,45,110,94
2,38,110,118
2,38,110,66
2,43,110,46
2,43,110,124
2,38,110,68
2,45,110,50
2,41,110,56
2,43,110,28
2,43,110,98
2,38,110,56
2,38,110,80
2,38,110,82
2,38,110,104
2,41,110,96
2,45,110,32
2,41,110,80
2,45,110,34
2,45,110,102
2,43,110,40
2,43,110,56
2,38,110,84
2,41,110,58
2,45,110,48
2,41,110,48
2,43,110,48
2,43,110,120
2,43,110,62
2,43,110,102
2,38,110,84
2,38,110,94
2,38,110,64
2,45,110,44
2,41,110,20
2,38,110,48
2,40,110,68
2,40,110,108
2,46,110,44
2,46,110,92
2,43,110,34
2,43,110,34
2,45,110,36
2,38,110,80
2,38,110,68
2,43,110,54
2,43,110,64
2,38,110,80
2,38,110,104
2,38,110,54
2,41,110,38
2,45,110,56
2,41,110,20
2,43,110,30
2,43,110,94
2,38,110,44
2,38,110,88
2,43,110,62
2,43,110,78
2,38,110,64
2,38,110,116
2,43,110,70
2,43,110,78
2,36,110,52
2,36,110,56
2,43,110,30
2,43,110,86
2,45,110,50
2,45,110,80
2,38,110,80
2,38,110,60
2,45,110,50
2,45,110,118
2,38,110,88
2,38,110,60
2,38,110,64
2,45,110,34
2,41,110,32
2,45,110,36
2,38,110,48
2,42,110,76
2,45,110,28
2,42,110,60
2,45,110,34
2,38,110,34
2,42,110,44
2,45,110,32
2,42,110,50
2,45,110,40
2,43,110,80
2,43,110,110
2,42,110,50
2,42,110,68
2,41,110,34
2,41,110,116
2,40,110,56
2,40,110,104
2,38,110,64
2,38,110,112
2,41,110,22
2,45,110,40
2,41,110,4
2,38,110,80
2,46,110,12
2,46,110,90
2,45,110,24
2,45,110,102
2,38,110,62
2,38,110,88
2,41,110,8
2,45,110,26
2,41,110,28
2,45,110,36
2,41,110,30
2,38,110,24
2,39,110,78
2,39,110,48
2,46,110,0
2,45,110,16
2,45,110,84
2,38,110,80
2,38,110,80
2,38,110,66
2,43,110,178
2,38,110,50
2,38,110,86
2,38,110,64
2,45,110,60
2,41,110,72
2,43,110,42
2,43,110,74
2,38,110,48
2,38,110,80
2,43,110,80
2,43,110,100
2,38,110,52
2,38,110,96
2,43,110,88
2,36,110,50
2,43,110,4
2,45,110,36
2,38,110,78
2,41,110,16
2,45,110,30
2,45,110,74
2,38,110,64
2,38,110,44
2,38,110,50
2,45,110,14
2,41,110,28
2,45,110,50
2,38,110,36
2,42,110,32
2,45,110,24
2,42,110,50
2,45,110,16
2,38,110,32
2,42,110,46
2,45,110,28
2,42,110,36
2,45,110,30
2,43,110,88
2,43,110,118
2,38,110,34
2,38,110,48
2,43,110,72
2,43,110,94
2,38,110,46
2,43,110,74
2,38,110,70
2,41,110,132
2,45,110,40
2,41,110,50
2,41,110,80
2,40,110,36
2,40,110,88
2,45,110,28
2,45,110,100
2,38,110,80
2,38,110,68
2,43,110,50
2,43,110,80
2,38,110,80
2,38,110,58
2,41,110,8
2,45,110,34
2,41,110,28
2,45,110,64
2,41,110,60
2,43,110,40
2,43,110,110
2,43,110,38
2,43,110,76
2,38,110,56
2,38,110,74
2,38,110,56
2,38,110,80
2,41,110,48
2,43,110,64
2,43,110,140
2,45,110,10
2,45,110,64
2,38,110,110
2,38,110,88
2,43,110,72
2,43,110,48
2,38,110,108
2,43,110,78
2,38,110,46
2,43,110,80
2,38,110,68
2,38,110,126
2,41,110,32
2,45,110,40
2,41,110,56
2,40,110,68
2,40,110,138
2,46,110,14
2,46,110,50
2,43,110,86
2,43,110,102
2,45,110,38
2,38,110,96
2,38,110,82
2,43,110,38
2,43,110,80
2,38,110,68
2,38,110,84
2,41,110,58
2,45,110,52
2,41,110,24
2,38,110,28
2,43,110,44
2,43,110,102
2,38,110,50
2,38,110,82
2,43,110,32
2,43,110,132
2,38,110,56
2,38,110,92
2,43,110,64
2,43,110,76
2,36,110,40
2,36,110,80
2,43,110,60
2,43,110,68
2,45,110,46
2,45,110,56
2,38,110,104
2,38,110,96
2,45,110,40
2,45,110,88
2,38,110,38
2,38,110,78
2,38,110,64
2,41,110,74
2,45,110,26
2,41,110,8
2,38,110,76
2,38,110,60
2,42,110,26
2,45,110,42
2,42,110,192
2,45,110,90
2,42,110,36
2,38,110,80
2,42,110,38
2,45,110,12
2,42,110,50
2,43,110,48
2,43,110,94
2,42,110,48
2,42,110,32
2,41,110,44
2,41,110,84
2,40,110,50
2,40,110,94
2,38,110,72
2,38,110,0
2,41,110,575
2,45,110,12
2,41,110,32
2,45,110,56
2,46,110,96
2,46,110,100
2,45,110,42
2,45,110,88
2,38,110,58
2,38,110,122
2,41,110,44
2,45,110,58
2,41,110,56
2,39,110,80
2,39,110,126
2,43,110,54
2,46,110,48
2,43,110,40
2,38,110,38
2,41,110,62
2,45,110,28
2,50,110,26
2,45,110,40
2,38,110,26
3,38,114,3072
3,57,114,0
3,62,114,0
3,65,114,0
3,69,114,0
3,62,114,156
3,64,114,26
3,65,114,22
3,67,114,24
3,65,114,22
3,64,114,54
3,65,114,50
3,55,114,288
3,58,114,0
3,61,114,0
3,51,114,576
3,55,114,18
3,58,114,30
3,65,114,36
3,58,114,38
3,54,114,18
3,53,114,38
3,57,114,192
3,62,114,0
3,65,114,0
3,50,114,24
3,52,114,96
3,53,114,22
3,52,114,26
3,50,114,16
3,51,114,34
3,52,114,20
3,55,114,288
3,61,114,0
3,52,114,26
3,58,114,24
3,57,114,96
3,55,114,24
3,53,114,32
3,52,114,26
3,50,114,32
3,50,114,30
3,53,114,288
3,57,112,0
3,62,112,0
3,50,114,46
3,53,114,0
3,57,114,0
3,41,114,132
3,50,114,74
3,53,114,0
3,57,114,0
3,38,114,118
3,50,114,288
3,53,114,0
3,57,114,0
3,38,114,148
3,53,114,192
3,57,114,0
3,62,114,90
3,65,114,0
3,62,114,32
3,57,114,28
3,62,114,0
3,55,113,40
3,58,114,96
3,62,114,0
3,64,114,0
3,53,114,4
3,57,114,154
3,62,114,96
3,65,112,0
3,53,114,16
3,57,114,8
3,55,114,26
3,55,114,28
3,58,111,200
3,62,114,0
3,64,114,288
3,67,114,288
3,65,114,60
3,55,114,16
3,58,113,192
3,62,114,24
3,67,113,0
3,58,113,38
3,62,114,0
3,67,114,0
3,55,114,326
3,58,114,0
3,62,114,0
3,67,114,0
3,55,114,334
3,58,114,0
3,62,114,0
3,55,114,330
3,58,114,0
3,62,114,0
3,67,114,0
3,55,112,62
3,58,114,0
3,62,114,0
3,67,114,0
3,60,114,318
3,63,114,0
3,66,114,0
3,69,114,0
3,60,114,322
3,63,114,0
3,66,114,0
3,69,114,0
3,62,114,326
3,67,114,0
3,70,114,0
3,62,114,44
3,67,114,0
3,70,114,0
3,64,114,310
3,67,114,0
3,73,114,0
3,64,114,334
3,67,114,0
3,73,114,0
3,62,114,322
3,65,114,0
3,69,114,0
3,65,114,10
3,61,114,56
3,64,113,0
3,67,110,0
3,61,112,80
3,64,114,0
3,67,114,0
3,61,112,38
3,64,114,0
3,67,114,0
3,57,114,46
3,62,114,288
3,65,114,0
3,69,114,0
3,62,114,108
3,66,109,192
3,69,114,0
3,72,113,0
3,62,114,94
3,66,112,0
3,69,114,0
3,72,114,0
3,62,114,206
3,66,114,0
3,69,114,0
3,72,114,0
3,62,114,346
3,66,107,0
3,69,114,96
3,72,114,0
3,62,107,2
3,66,112,0
3,69,114,0
3,72,114,0
3,60,114,140
3,66,114,192
3,69,114,0
3,62,110,126
3,66,114,8
3,69,114,0
3,67,114,126
3,70,107,192
3,74,114,0
3,70,114,60
3,74,114,0
3,66,114,16
3,70,112,192
3,74,114,0
3,70,114,100
3,74,114,0
3,65,114,48
3,70,114,192
3,74,114,192
3,65,114,4
3,64,114,8
3,70,114,192
3,74,114,192
3,70,114,0
3,62,114,92
3,65,112,192
3,69,114,0
3,65,114,104
3,57,114,0
3,62,114,96
3,65,114,24
3,57,114,16
3,53,114,120
3,52,114,124
3,56,100,288
3,59,113,0
3,56,114,34
3,59,114,0
3,52,114,76
3,55,114,192
3,61,110,0
3,55,114,72
3,61,114,0
3,53,114,48
3,57,113,96
3,62,101,0
3,57,114,38
3,62,114,0
3,55,110,88
3,58,110,0
3,62,114,0
3,55,114,134
3,58,111,0
3,64,113,0
3,55,114,46
3,58,110,0
3,62,114,0
3,53,114,90
3,57,114,0
3,62,114,0
3,55,114,348
3,58,108,0
3,62,114,0
3,67,111,0
3,55,112,52
3,58,114,0
3,62,114,0
3,55,114,332
3,58,112,0
3,62,114,0
3,67,111,0
3,55,112,324
3,58,111,0
3,62,114,0
3,67,105,0
3,53,114,314
3,57,114,0
3,62,114,0
3,57,114,26
3,62,114,0
3,53,114,350
3,57,114,0
3,62,114,0
3,53,114,342
3,57,114,0
3,62,114,0
3,55,114,336
3,57,114,0
3,61,114,0
3,55,114,32
3,57,114,0
3,61,114,0
3,55,114,316
3,58,114,0
3,62,114,0
3,55,114,338
3,58,114,0
3,62,114,0
3,53,114,346
3,57,114,0
3,62,114,0
3,53,114,36
3,57,114,0
3,62,114,0
3,53,114,338
3,57,114,0
3,62,114,0
3,53,114,334
3,57,114,0
3,62,114,0
3,55,114,346
3,58,114,0
3,62,114,0
3,55,114,40
3,58,114,0
3,62,114,0
3,55,114,342
3,58,114,0
3,62,114,0
3,55,114,344
3,58,114,0
3,62,114,0
3,53,114,336
3,57,114,0
3,62,114,0
3,53,114,58
3,57,114,0
3,62,114,0
3,53,114,328
3,57,114,0
3,62,114,0
3,53,114,336
3,57,114,0
3,62,114,0
3,56,114,316
3,59,114,0
3,64,114,0
3,56,112,8
3,59,114,0
3,64,114,0
3,58,114,166
3,62,114,0
3,65,114,0
3,58,114,164
3,62,114,0
3,65,114,0
3,58,114,90
3,62,114,0
3,65,114,0
3,55,114,182
3,58,114,96
3,62,114,192
3,58,114,76
3,59,114,22
3,55,114,36
3,56,114,16
3,57,114,0
3,61,114,192
3,64,114,0
3,67,114,0
3,62,114,44
3,65,114,192
3,69,114,0
3,55,114,222
3,58,112,96
3,64,114,96
3,58,114,44
3,53,114,12
3,57,114,288
3,62,114,0
3,50,114,86
3,53,114,96
3,57,114,14
