track,note,velocity,time
2,35,60,3072
2,35,60,336
2,35,60,336
2,35,60,336
2,35,60,336
2,35,60,336
2,35,60,336
2,35,60,336
2,35,60,336
2,35,60,336
2,35,60,336
2,35,60,336
2,35,60,336
2,35,60,1488
2,35,60,336
2,35,60,336
2,35,60,336
2,35,60,336
2,35,60,336
2,35,60,336
2,35,60,336
2,35,60,336
2,35,60,336
2,35,60,336
2,35,60,336
2,35,60,336
2,35,60,336
2,35,60,336
2,35,60,336
2,35,60,336
2,35,60,336
2,35,60,336
2,35,60,336
2,35,60,336
2,35,60,336
2,35,60,336
2,35,60,336
2,35,60,336
2,35,60,336
2,35,60,336
2,35,60,336
2,35,60,336
2,35,60,336
2,35,60,336
2,35,60,336
2,35,60,336
2,35,60,336
2,35,60,336
2,35,60,336
2,35,60,336
2,35,60,336
2,35,60,336
2,35,60,336
2,35,60,336
2,35,60,336
2,35,60,336
2,35,60,336
2,35,60,336
2,35,60,336
2,35,60,336
2,35,60,336
2,35,60,336
2,35,60,336
2,35,60,336
2,35,60,336
2,35,60,336
2,35,60,336
2,35,60,336
2,35,60,336
2,35,60,336
2,35,60,336
2,35,60,336
2,35,60,336
2,35,60,336
2,35,60,1488
2,35,60,336
2,35,60,336
2,35,60,336
2,35,60,336
2,35,60,336
2,35,60,336
2,35,60,336
2,35,60,336
2,35,60,336
2,35,60,336
2,35,60,336
2,35,60,336
2,35,60,336
2,35,60,336
2,35,60,336
2,35,60,336
2,35,60,336
2,35,60,336
2,35,60,336
2,35,60,336
2,35,60,336
2,35,60,336
2,35,60,336
2,35,60,336
2,35,60,336
2,35,60,336
2,35,50,228
2,35,60,1980
2,35,60,336
2,35,60,336
2,35,60,336
2,35,60,336
2,35,60,336
2,35,60,336
2,35,60,336
2,35,60,336
2,35,60,336
2,35,60,336
2,35,60,336
2,35,60,336
2,35,60,336
2,35,60,336
2,35,60,336
2,35,60,336
2,35,60,336
2,35,60,336
2,35,60,336
2,35,60,336
2,35,60,336
2,35,60,336
2,35,60,336
2,35,60,336
2,35,60,336
2,35,60,336
2,35,60,336
2,35,60,336
2,35,60,336
2,35,60,336
2,35,60,336
2,35,60,336
2,35,60,336
2,35,60,336
2,35,60,336
2,35,60,336
2,35,60,336
2,35,60,336
2,35,60,336
2,35,60,336
2,35,60,336
2,35,60,336
2,35,60,336
2,35,60,336
2,35,60,336
2,35,60,336
2,35,60,336
2,35,60,336
2,35,60,336
2,35,60,336
2,35,60,336
2,35,60,336
2,35,60,336
2,35,60,336
2,35,60,336
2,35,60,336
2,35,60,336
2,35,60,336
2,35,60,336
2,35,60,336
2,35,60,336
2,35,60,336
2,35,60,336
2,35,60,336
2,35,60,336
2,35,60,336
2,35,60,336
2,35,60,336
2,35,60,336
2,35,60,336
2,35,60,336
2,35,60,336
2,35,60,336
2,35,60,336
2,35,60,336
2,35,60,336
2,35,60,336
2,35,60,336
2,35,60,336
2,35,60,336
2,35,60,336
2,35,60,336
2,35,60,336
2,35,60,336
2,35,60,336
2,35,60,336
2,35,60,336
2,35,60,336
2,35,60,336
2,35,60,336
2,35,60,336
2,35,60,336
2,35,60,336
2,35,60,336
2,35,60,336
2,35,60,336
2,35,60,336
2,35,60,336
2,35,60,336
2,35,60,336
2,35,60,336
2,35,60,336
2,35,60,336
2,35,60,336
2,35,60,336
2,35,60,336
2,35,60,336
2,35,60,336
2,35,60,336
2,35,60,336
2,35,60,336
2,35,60,336
2,35,60,336
2,35,60,336
2,35,60,336
2,35,60,336
2,35,60,336
2,35,60,336
2,35,60,336
2,35,60,336
2,35,60,336
2,35,60,336
2,35,60,336
2,35,60,336
2,35,60,336
2,35,60,336
2,35,60,336
2,35,60,336
2,35,60,336
2,35,60,336
2,35,60,336
2,35,60,336
2,35,60,336
2,35,60,336
2,35,60,336
2,35,60,336
2,35,60,336
2,35,60,336
2,35,60,336
2,35,60,336
2,35,60,336
2,35,60,336
2,35,60,336
2,35,60,336
2,35,60,336
2,35,60,336
2,35,60,336
2,35,60,336
2,35,60,336
2,35,60,336
2,35,60,336
2,35,60,336
2,35,60,336
2,35,60,336
2,35,60,336
2,35,60,336
2,35,60,1488
2,35,60,336
2,35,60,336
2,35,60,336
2,35,60,336
2,35,60,336
2,35,60,336
2,35,60,336
2,35,60,336
2,35,60,336
2,35,60,336
2,35,60,336
2,35,60,336
2,35,60,336
2,35,60,336
2,35,60,336
2,35,60,336
2,35,60,336
2,35,60,336
2,35,60,336
2,35,60,336
2,35,60,336
2,35,60,336
2,35,60,336
2,35,60,336
2,35,60,336
2,35,60,336
2,35,50,228
2,35,60,1980
2,35,60,336
2,35,60,336
2,35,60,336
2,35,60,336
2,35,60,336
2,35,60,336
2,35,60,336
2,35,60,336
2,35,60,336
2,35,60,336
2,35,60,336
2,35,60,336
2,35,60,336
2,35,60,336
2,35,60,336
2,35,60,336
2,35,60,336
2,35,60,336
2,35,60,336
2,35,60,336
2,35,60,336
2,35,60,336
2,35,60,336
2,35,60,336
2,35,60,336
2,35,60,336
2,35,60,336
2,35,60,336
2,35,60,336
2,35,60,336
2,35,60,336
2,35,60,336
2,35,60,336
2,35,60,336
2,35,60,336
2,35,60,336
2,35,60,336
2,35,60,336
2,35,60,336
2,35,60,336
2,35,60,336
2,35,60,336
2,35,60,336
2,35,60,336
2,35,60,336
2,35,60,336
2,35,60,336
2,35,60,336
2,35,60,336
2,35,60,336
2,35,60,336
2,35,60,336
2,35,60,336
2,35,60,230
2,35,64,1740
3,38,46,3456
3,38,46,726
3,38,40,230
3,38,46,454
3,38,46,726
3,38,40,230
3,38,46,454
3,38,40,230
3,38,46,454
3,38,40,1760
3,38,39,460
3,38,39,726
3,38,39,726
3,38,39,726
3,38,39,726
3,38,39,726
3,38,39,726
3,38,39,726
3,38,39,726
3,38,39,726
3,38,39,726
3,38,39,726
3,38,39,726
3,38,39,726
3,38,39,726
3,38,39,726
3,38,39,726
3,38,39,726
3,38,39,726
3,38,39,726
3,38,39,726
3,38,39,726
3,38,39,726
3,38,39,726
3,38,39,726
3,38,39,726
3,38,39,726
3,38,39,726
3,38,39,726
3,38,39,726
3,38,32,1794
3,38,39,428
3,38,39,726
3,38,39,726
3,38,39,726
3,38,39,726
3,38,39,726
3,38,39,726
3,38,39,726
3,38,39,726
3,38,39,726
3,38,39,726
3,38,39,726
3,38,39,726
3,38,39,2540
3,38,39,448
3,38,39,726
3,38,39,726
3,38,39,726
3,38,39,726
3,38,39,726
3,38,39,726
3,38,39,726
3,38,39,726
3,38,39,726
3,38,39,726
3,38,39,726
3,38,39,726
3,38,39,726
3,38,39,726
3,38,39,726
3,38,39,726
3,38,39,726
3,38,39,726
3,38,39,726
3,38,66,726
3,38,58,726
3,38,87,230
3,38,49,342
3,38,72,70
3,38,55,234
3,38,84,66
3,38,72,342
3,38,56,726
3,38,56,726
3,38,40,230
3,38,56,454
3,38,56,726
3,38,40,230
3,38,56,454
3,38,56,726
3,38,40,230
3,38,56,454
3,38,56,726
3,38,40,230
3,38,56,454
3,38,56,726
3,38,40,230
3,38,56,454
3,38,56,726
3,38,40,230
3,38,56,454
3,38,56,726
3,38,40,230
3,38,56,454
3,38,56,726
3,38,40,230
3,38,56,454
3,38,56,726
3,38,40,230
3,38,56,454
3,38,56,726
3,38,40,230
3,38,56,454
3,38,56,726
3,38,40,230
3,38,56,454
3,38,56,726
3,38,20,250
3,38,40,10
3,38,39,382
3,38,39,726
3,38,39,726
3,38,39,726
3,38,39,726
3,38,39,726
3,38,39,726
3,38,39,726
3,38,39,726
3,38,39,726
3,38,39,726
3,38,39,726
3,38,39,726
3,38,39,726
3,38,39,726
3,38,39,726
3,38,39,726
3,38,39,726
3,38,39,726
3,38,39,726
3,38,39,726
3,38,39,726
3,38,39,726
3,38,39,726
3,38,39,726
3,38,39,726
3,38,39,726
3,38,39,726
3,38,39,726
3,38,39,726
3,38,32,1794
3,38,39,428
3,38,39,726
3,38,39,726
3,38,39,726
3,38,39,726
3,38,39,726
3,38,39,726
3,38,39,726
3,38,39,726
3,38,39,726
3,38,39,726
3,38,39,726
3,38,39,726
3,38,39,2540
3,38,39,448
3,38,39,726
3,38,39,726
3,38,39,726
3,38,39,726
3,38,39,726
3,38,39,726
3,38,39,726
3,38,39,726
3,38,39,726
3,38,39,726
3,38,39,726
3,38,39,726
3,38,39,726
3,38,39,726
3,38,39,726
3,38,39,726
3,38,39,726
3,38,39,726
3,38,39,726
3,38,98,620
3,38,78,0
3,38,52,22
3,38,78,232
3,38,75,346
3,38,78,336
3,38,78,344
3,38,75,346
3,38,78,336
3,38,78,344
3,38,49,344
3,38,78,66
3,38,58,234
3,38,87,66
3,38,61,232
3,38,26,308
3,38,31,0
3,38,46,0
3,38,17,768
3,38,17,0
3,38,17,0
3,38,20,0
3,38,23,0
3,38,26,0
3,38,26,0
3,38,29,0
3,38,29,0
3,38,37,0
3,38,37,0
3,38,37,0
3,38,34,0
3,38,31,0
3,38,31,0
3,38,31,0
3,38,29,0
3,38,29,0
3,38,29,0
3,38,26,0
3,38,26,0
3,38,17,0
3,38,14,0
3,38,11,0
3,38,11,0
3,38,14,0
3,38,17,0
3,38,17,0
3,38,17,0
3,38,23,0
3,38,34,0
3,38,43,0
4,40,77,7680
4,40,77,24534
4,40,77,11478
4,40,66,39126
4,40,64,12140
4,40,77,10812
4,40,77,11478
4,40,90,22230
4,40,72,342
4,40,93,238
4,40,81,1598
5,46,32,60566
5,46,66,24
5,46,61,302
5,46,32,73172
5,46,66,24
5,46,61,302
6,44,73,3456
6,44,73,704
6,44,73,678
6,44,73,686
6,44,73,3006
6,44,73,702
6,44,73,704
6,44,73,678
6,44,73,686
6,44,73,702
6,44,73,704
6,44,73,678
6,44,73,686
6,44,73,702
6,44,73,704
6,44,73,678
6,44,73,686
6,44,73,702
6,44,73,704
6,44,73,678
6,44,73,686
6,44,73,702
6,44,73,704
6,44,73,678
6,44,73,686
6,44,73,702
6,44,73,704
6,44,73,678
6,44,73,686
6,44,73,702
6,44,73,704
6,44,73,678
6,44,73,686
6,44,73,702
6,44,73,704
6,44,73,2214
6,44,73,704
6,44,73,678
6,44,73,686
6,44,73,702
6,44,73,704
6,44,73,678
6,44,73,686
6,44,73,702
6,44,73,704
6,44,73,678
6,44,73,686
6,44,73,702
6,44,73,3008
6,44,73,704
6,44,73,678
6,44,73,686
6,44,73,702
6,44,73,704
6,44,73,678
6,44,73,686
6,44,73,702
6,44,73,704
6,44,73,678
6,44,73,686
6,44,73,702
6,44,73,704
6,44,73,678
6,44,73,686
6,44,73,702
6,44,73,704
6,44,73,678
6,44,73,1454
6,44,73,704
6,44,73,678
6,44,73,686
6,44,73,702
6,44,73,704
6,44,73,678
6,44,73,686
6,44,73,702
6,44,73,704
6,44,73,678
6,44,73,686
6,44,73,702
6,44,73,704
6,44,73,678
6,44,73,686
6,44,73,702
6,44,73,704
6,44,73,678
6,44,73,686
6,44,73,702
6,44,73,704
6,44,73,678
6,44,73,686
6,44,73,702
6,44,73,704
6,44,73,678
6,44,73,686
6,44,73,702
6,44,73,704
6,44,73,678
6,44,73,686
6,44,73,702
6,44,73,704
6,44,73,678
6,44,73,686
6,44,73,702
6,44,73,704
6,44,73,678
6,44,73,686
6,44,73,702
6,44,73,704
6,44,73,678
6,44,73,686
6,44,73,702
6,44,73,704
6,44,73,678
6,44,73,686
6,44,73,702
6,44,73,704
6,44,73,678
6,44,73,686
6,44,73,702
6,44,73,704
6,44,73,678
6,44,73,686
6,44,73,702
6,44,73,704
6,44,73,2214
6,44,73,704
6,44,73,678
6,44,73,686
6,44,73,702
6,44,73,704
6,44,73,678
6,44,73,686
6,44,73,702
6,44,73,704
6,44,73,678
6,44,73,686
6,44,73,702
6,44,73,3008
6,44,73,704
6,44,73,678
6,44,73,686
6,44,73,702
6,44,73,704
6,44,73,678
6,44,73,686
6,44,73,702
6,44,73,704
6,44,73,678
6,44,73,686
6,44,73,702
6,44,73,704
6,44,73,678
6,44,73,686
6,44,73,702
6,44,73,704
6,44,73,678
6,44,73,1070
6,44,73,320
6,44,73,320
6,44,73,294
6,44,73,294
6,44,73,302
6,44,73,302
6,44,73,318
6,44,73,318
6,44,73,320
6,44,73,320
6,44,73,294
6,44,73,294
6,44,73,302
6,44,73,302
7,45,59,142138
8,46,90,3072
8,46,73,330
8,46,69,324
8,46,73,308
8,46,73,316
8,46,73,318
8,46,69,324
8,46,73,308
8,46,87,316
8,46,73,318
8,46,69,324
8,46,73,308
8,46,90,54076
8,46,73,330
8,46,69,324
8,46,73,308
8,46,73,210
8,46,73,424
8,46,69,324
8,46,73,308
8,46,90,316
8,46,73,330
8,46,69,324
8,46,73,308
8,46,73,316
8,46,73,318
8,46,69,324
8,46,73,308
8,46,82,316
8,46,73,330
8,46,69,324
8,46,73,308
8,46,73,316
8,46,73,318
8,46,69,324
8,46,73,308
8,46,90,316
8,46,73,330
8,46,69,324
8,46,73,308
8,46,73,316
8,46,73,318
8,46,69,324
8,46,73,308
8,46,90,316
8,46,73,330
8,46,69,324
8,46,73,308
8,46,73,316
8,46,73,318
8,46,69,324
8,46,73,308
8,46,90,316
8,46,73,330
8,46,69,324
8,46,73,308
8,46,73,316
8,46,73,318
8,46,69,324
8,46,73,308
8,46,90,316
8,46,73,330
8,46,69,324
8,46,73,308
8,46,73,316
8,46,67,318
8,46,59,324
8,46,63,308
8,46,90,52540
8,46,69,694
8,46,56,224
8,46,47,316
8,46,57,318
8,46,57,316
8,46,57,318
8,46,27,316
8,46,90,40
8,46,73,1866
8,46,69,224
9,51,90,3072
9,51,73,330
9,51,69,324
9,51,73,308
9,51,73,316
9,51,73,318
9,51,69,324
9,51,73,308
9,51,87,316
9,51,73,318
9,51,69,324
9,51,73,308
9,51,90,54076
9,51,73,330
9,51,69,324
9,51,73,308
9,51,73,700
9,51,69,324
9,51,90,692
9,51,73,330
9,51,69,324
9,51,73,308
9,51,73,316
9,51,73,318
9,51,69,324
9,51,73,308
9,51,90,316
9,51,73,330
9,51,69,324
9,51,73,308
9,51,73,316
9,51,73,318
9,51,69,324
9,51,73,308
9,51,90,316
9,51,73,330
9,51,69,324
9,51,73,308
9,51,73,316
9,51,73,318
9,51,69,324
9,51,73,308
9,51,90,316
9,51,73,330
9,51,69,324
9,51,73,308
9,51,73,316
9,51,73,318
9,51,69,324
9,51,73,308
9,51,90,316
9,51,73,330
9,51,69,324
9,51,73,308
9,51,73,316
9,51,73,318
9,51,69,324
9,51,73,308
9,51,90,316
9,51,73,330
9,51,69,324
9,51,73,308
9,51,73,316
9,51,72,318
9,51,63,324
9,51,63,308
9,51,90,52540
9,51,57,994
9,51,60,316
9,51,57,318
9,51,60,316
9,51,60,318
9,51,40,310
10,57,76,62864
10,57,79,72986
10,57,73,4168
11,49,73,64128
11,49,90,74044
11,49,69,2150
12,38,52,3072
12,38,33,238
12,38,33,342
12,38,52,62
12,38,33,238
12,38,52,446
12,38,33,238
12,38,33,342
12,38,52,62
12,38,41,228
12,38,52,456
12,38,23,238
12,38,23,342
12,38,52,62
12,38,23,238
12,38,62,1982
12,38,23,238
12,38,23,342
12,38,62,62
12,38,23,238
12,38,29,342
12,38,62,62
12,38,23,238
12,38,23,342
12,38,62,62
12,38,49,230
12,38,52,342
12,38,62,70
12,38,23,238
12,38,23,342
12,38,62,62
12,38,23,238
12,38,29,342
12,38,62,62
12,38,23,238
12,38,23,342
12,38,62,62
12,38,34,230
12,38,52,342
12,38,62,70
12,38,23,238
12,38,33,342
12,38,62,62
12,38,23,238
12,38,39,342
12,38,62,62
12,38,23,238
12,38,23,342
12,38,62,62
12,38,26,230
12,38,31,342
12,38,62,70
12,38,23,238
12,38,33,342
12,38,62,62
12,38,23,238
12,38,39,342
12,38,62,62
12,38,23,238
12,38,37,342
12,38,62,62
12,38,34,230
12,38,37,342
12,38,62,70
12,38,23,238
12,38,23,342
12,38,62,62
12,38,23,238
12,38,29,342
12,38,62,62
12,38,23,238
12,38,23,342
12,38,62,62
12,38,49,230
