track,note,velocity,time
1,77,88,3840
1,81,79,0
1,86,73,100
1,89,83,68
1,86,71,80
1,81,76,80
1,77,79,64
1,79,83,16
1,82,74,84
1,86,78,52
1,91,81,0
1,77,106,496
1,81,86,16
1,86,76,96
1,89,90,64
1,86,74,64
1,81,76,60
1,77,80,20
1,77,90,872
1,81,79,12
1,86,69,100
1,89,79,64
1,86,67,92
1,81,76,64
1,77,83,80
1,79,88,0
1,82,82,112
1,86,80,64
1,91,85,64
1,77,90,452
1,81,88,92
1,86,76,88
1,89,86,84
1,86,75,64
1,81,72,68
1,77,76,16
1,79,81,6912
1,79,98,64
1,79,102,64
1,81,102,32
1,81,106,64
1,81,111,96
1,82,94,40
1,82,102,80
1,82,106,80
1,85,102,48
1,86,93,28
1,88,95,0
1,81,73,228
1,86,90,6304
1,81,102,0
1,77,95,0
1,81,98,20
1,77,98,12
1,74,85,0
1,77,98,16
1,76,90,16
1,74,88,0
1,76,81,220
1,74,88,0
1,73,78,0
1,74,64,192
1,79,106,2368
1,79,106,56
1,79,106,80
1,79,102,68
1,77,102,0
1,76,95,0
1,77,95,16
1,77,98,64
1,77,93,120
1,77,95,136
1,76,90,8
1,74,95,12
1,76,79,184
1,76,76,112
1,77,85,928
1,79,116,148
1,81,77,16
1,79,102,384
1,79,85,96
1,79,83,128
1,79,83,128
1,77,77,272
1,76,81,0
1,77,85,24
1,77,90,80
1,77,85,96
1,77,81,112
1,76,79,16
1,74,85,8
1,76,81,16
1,76,83,104
1,76,85,112
1,77,95,48
1,77,85,80
1,77,85,76
1,76,66,16
1,74,90,1960
1,77,80,96
1,81,86,100
1,86,90,80
1,74,85,2660
1,79,93,120
1,82,83,88
1,86,86,80
1,86,75,7184
1,84,86,2304
1,82,91,8
1,81,81,16
1,79,118,8
1,81,93,4
1,79,95,0
1,81,88,2032
1,82,84,76
1,84,78,0
1,86,102,8
1,81,88,12
1,77,85,16
1,81,74,20
1,77,90,16
1,74,77,12
1,77,86,16
1,76,95,0
1,74,86,8
1,76,69,16
1,77,93,0
1,74,61,16
1,77,90,2720
1,81,79,12
1,86,69,100
1,89,79,64
1,86,67,92
1,81,76,68
1,77,83,80
1,79,88,0
1,82,82,112
1,86,80,64
1,91,85,64
1,77,90,452
1,81,88,88
1,86,76,88
1,89,86,84
1,86,75,64
1,81,72,68
1,77,76,16
1,79,81,6912
1,79,98,64
1,79,102,64
1,81,102,32
1,81,106,64
1,81,111,96
1,82,94,48
1,82,102,80
1,82,106,80
1,85,102,48
1,86,93,28
1,88,95,0
1,81,73,232
1,86,90,6304
1,81,102,0
1,77,95,0
1,81,98,28
1,77,98,12
1,74,85,0
1,77,98,16
1,76,90,16
1,74,88,0
1,76,81,216
1,74,88,0
1,73,78,284
1,74,64,192
1,79,106,2368
1,79,106,60
1,79,106,80
1,79,102,72
1,77,102,0
1,76,95,0
1,77,95,16
1,77,98,64
1,77,93,120
1,77,95,132
1,76,90,4
1,74,95,8
1,76,79,184
1,76,76,104
1,77,85,936
1,79,116,152
1,81,77,16
1,79,102,384
1,79,85,96
1,79,83,124
1,79,83,128
1,77,77,272
1,76,81,0
1,77,85,24
1,77,90,80
1,77,85,96
1,77,81,112
1,76,79,20
1,74,85,12
1,76,81,16
1,76,83,104
1,76,85,112
1,77,95,44
1,77,85,80
1,77,85,80
1,76,66,20
1,74,90,1960
1,77,80,0
1,81,86,100
1,86,90,84
1,74,85,2660
1,79,93,116
1,82,83,92
1,86,86,84
1,86,75,7184
1,84,86,2304
1,82,91,16
1,81,81,16
1,79,118,8
1,81,93,4
1,79,95,0
1,81,88,2032
1,82,84,0
1,84,78,0
1,86,102,12
1,81,88,8
1,77,85,16
1,81,74,20
1,77,90,16
1,74,77,12
1,77,86,16
1,76,95,4
1,74,86,4
1,76,69,16
1,77,93,0
1,74,61,16
1,86,85,1076
1,81,90,0
1,77,98,16
1,81,90,16
1,77,93,284
1,74,88,12
1,77,86,212
1,76,90,0
1,74,95,0
1,76,80,36
1,77,88,508
1,74,75,4
2,62,115,0
2,62,125,48
2,62,94,24
2,62,125,0
2,64,127,0
2,65,120,24
2,69,111,0
2,67,97,0
2,67,127,4
2,67,115,16
2,67,120,48
2,69,125,12
2,69,115,40
2,69,97,4
2,70,100,4
2,70,107,32
2,70,111,48
2,73,115,44
2,74,99,0
2,76,111,28
2,69,115,0
2,67,120,8
2,67,127,32
2,67,125,32
2,67,127,36
2,65,120,0
2,64,111,48
2,65,125,32
2,65,127,52
2,65,125,80
2,65,125,8
2,64,120,0
2,62,125,0
2,64,120,24
2,64,115,96
2,64,115,64
2,64,102,48
2,65,104,12
2,67,115,0
2,69,95,0
2,62,111,29348
2,57,102,96
2,53,107,0
2,57,99,32
2,53,102,8
2,50,94,4
2,53,111,32
2,52,102,12
2,50,99,28
2,52,104,20
2,53,115,0
2,50,89,16
2,62,94,0
2,50,92,280
3,62,73,3844
3,69,78,128
3,65,75,0
3,74,74,0
3,62,70,128
3,69,78,32
3,65,70,0
3,74,76,0
3,62,67,112
3,74,74,48
3,67,83,0
3,70,79,0
3,65,37,0
3,62,72,16
3,65,71,32
3,67,75,0
3,74,72,0
3,70,81,0
3,62,70,0
3,67,71,32
3,65,67,0
3,74,74,0
3,70,70,0
3,62,78,16
3,74,75,128
3,69,78,0
3,65,74,0
3,62,79,112
3,73,82,32
3,65,72,0
3,69,78,0
3,62,76,100
3,65,77,36
3,69,88,0
3,72,77,0
3,62,83,188
3,69,75,32
3,71,72,0
3,65,73,0
3,62,77,480
3,69,86,136
3,65,78,0
3,74,74,0
3,62,75,124
3,65,74,32
3,74,74,0
3,69,83,0
3,62,78,96
3,67,77,40
3,70,80,0
3,65,74,0
3,74,74,0
3,62,76,0
3,70,77,40
3,67,77,0
3,65,71,0
3,74,73,0
3,70,28,4
3,62,74,0
3,70,72,32
3,67,74,0
3,65,70,0
3,74,75,0
3,62,81,28
3,74,77,128
3,65,78,0
3,69,83,0
3,62,75,96
3,73,81,48
3,69,83,0
3,65,76,0
3,62,76,128
3,65,76,48
3,72,77,0
3,69,86,0
3,62,81,0
3,69,79,48
3,65,75,0
3,71,75,0
3,62,78,192
3,69,81,0
3,65,77,0
3,65,75,216
3,69,81,0
3,62,76,0
3,62,78,224
3,70,80,0
3,67,77,0
3,70,74,84
3,67,77,0
3,62,71,0
3,62,71,224
3,70,69,0
3,67,70,0
3,65,74,320
3,69,78,0
3,74,75,0
3,62,70,112
3,69,66,32
3,65,66,0
3,74,63,0
3,62,63,120
3,74,58,100
3,69,55,0
3,65,56,0
3,62,76,448
3,69,76,0
3,58,79,100
3,62,76,52
3,69,81,0
3,58,85,112
3,67,88,48
3,62,79,0
3,58,76,0
3,62,79,32
3,67,93,0
3,58,83,0
3,62,78,16
3,67,83,0
3,58,92,36
3,62,78,144
3,64,76,0
3,69,79,0
3,58,85,116
3,64,77,52
3,62,78,0
3,69,78,0
3,58,83,112
3,64,76,48
3,62,78,0
3,67,86,0
3,58,96,0
3,64,79,48
3,62,81,0
3,69,79,0
3,58,89,0
3,64,74,52
3,62,75,0
3,67,83,0
3,62,78,2368
3,65,79,112
3,69,83,0
3,74,77,0
3,62,77,100
3,73,82,52
3,65,75,0
3,69,79,0
3,62,78,84
3,65,77,52
3,69,84,0
3,72,76,0
3,62,84,0
3,65,79,48
3,71,83,0
3,62,81,0
3,65,78,32
3,69,78,0
3,62,77,192
3,69,88,20
3,65,84,0
3,74,88,0
3,62,78,112
3,65,74,40
3,69,78,0
3,73,80,0
3,62,81,128
3,65,79,36
3,69,86,0
3,72,81,0
3,62,77,192
3,65,79,36
3,71,83,0
3,62,75,192
3,65,81,28
3,69,86,0
3,62,84,0
3,74,76,16
3,66,82,0
3,69,81,0
3,62,74,128
3,69,76,48
3,66,68,0
3,74,66,0
3,62,71,128
3,69,71,36
3,66,70,0
3,74,70,0
3,62,67,0
3,66,68,36
3,69,74,0
3,74,70,0
3,62,69,112
3,69,54,16
3,66,64,0
3,74,59,0
3,62,74,196
3,74,65,4
3,66,70,0
3,69,70,0
3,62,76,100
3,69,76,16
3,66,79,0
3,74,74,0
3,62,78,0
3,62,84,132
3,72,74,0
3,66,82,0
3,70,79,0
3,66,81,0
3,58,68,192
3,62,79,128
3,64,76,0
3,69,74,0
3,58,82,116
3,64,74,48
3,69,73,0
3,62,74,0
3,58,87,96
3,64,83,52
3,62,83,0
3,67,84,0
3,58,89,0
3,67,86,48
3,64,77,0
3,62,77,0
3,58,85,0
3,67,81,24
3,62,75,0
3,64,73,0
3,58,100,0
3,62,86,148
3,69,83,0
3,64,83,0
3,58,89,112
3,64,84,48
3,62,83,0
3,67,96,0
3,58,87,128
3,69,83,48
3,64,84,0
3,62,91,0
3,58,87,0
3,62,88,48
3,64,86,0
3,67,88,0
3,58,83,288
3,65,77,4
3,62,76,0
3,69,75,0
3,62,83,2192
3,65,74,128
3,69,76,0
3,74,72,0
3,62,79,124
3,69,77,32
3,65,73,0
3,74,70,0
3,62,78,128
3,70,74,52
3,67,74,0
3,65,68,0
3,74,71,0
3,62,75,0
3,67,74,32
3,70,71,0
3,65,66,0
3,74,69,0
3,62,68,16
3,67,66,4
3,65,64,0
3,70,65,0
3,74,69,0
3,62,86,0
3,65,79,132
3,69,84,0
3,74,81,0
3,62,81,72
3,73,83,48
3,65,74,0
3,69,81,0
3,62,76,112
3,65,74,36
3,69,77,0
3,72,74,0
3,62,79,4
3,65,73,80
3,69,76,0
3,71,73,0
3,58,69,12
3,62,75,128
3,67,81,0
3,70,75,0
3,58,70,92
3,67,75,32
3,70,72,0
3,62,65,0
3,58,73,112
3,67,74,36
3,70,68,0
3,62,64,0
3,65,75,320
3,62,73,0
3,69,73,0
3,65,68,216
3,62,61,0
3,69,66,0
3,65,56,228
3,62,56,0
3,69,57,0
3,57,77,128
3,61,75,0
3,64,69,0
3,57,81,128
3,64,73,0
3,61,82,0
3,61,80,20
3,64,74,0
3,64,78,112
3,61,92,0
3,62,77,52
3,65,76,0
3,64,74,36
3,67,81,0
3,65,96,96
3,69,93,0
3,67,79,32
3,64,86,0
3,65,81,36
3,69,96,0
3,69,78,48
3,65,77,0
3,62,75,0
3,62,78,212
3,66,85,0
3,69,81,0
3,66,79,240
3,62,77,0
3,69,79,0
3,58,81,100
3,67,79,0
3,62,71,0
3,58,85,132
3,67,84,0
3,62,72,0
3,62,74,208
3,67,86,0
3,58,83,0
3,67,78,224
3,62,68,0
3,58,87,0
3,62,67,12
3,65,64,0
3,69,64,0
3,62,70,128
3,65,71,0
3,69,71,0
3,62,70,224
3,69,68,0
3,65,68,0
3,65,72,228
3,62,70,0
3,69,68,0
3,64,88,480
3,64,96,208
3,65,116,212
3,67,81,8
3,65,91,96
3,65,67,64
3,64,96,332
3,64,96,212
3,65,88,16
3,64,78,96
3,62,81,0
3,64,84,16
3,65,81,304
3,62,78,0
3,69,74,0
3,57,64,120
3,69,74,48
3,74,70,0
3,65,73,0
3,62,71,216
3,70,71,0
3,67,72,0
3,74,69,0
3,67,74,68
3,70,70,0
3,62,67,0
3,74,68,0
3,62,60,208
3,70,54,0
3,67,60,0
3,74,51,0
3,69,73,312
3,74,68,0
3,65,67,0
3,62,61,112
3,69,67,16
3,65,67,0
3,74,61,0
3,62,69,128
3,65,55,100
3,69,50,0
3,74,55,0
3,58,56,264
3,64,76,128
3,62,77,0
3,69,76,0
3,58,82,112
3,64,75,48
3,62,76,0
3,69,76,0
3,58,83,96
3,62,73,48
3,64,70,0
3,67,79,0
3,58,85,16
3,64,75,48
3,62,77,0
3,67,83,0
3,58,92,0
3,64,65,64
3,67,74,0
3,62,67,0
3,58,81,32
3,62,83,164
3,64,81,0
3,69,83,0
3,58,81,120
3,64,81,52
3,62,81,0
3,69,79,0
3,58,80,116
3,67,83,64
3,64,74,0
3,62,77,0
3,58,68,76
3,62,62,0
3,67,67,0
3,62,83,2496
3,69,86,112
3,65,83,0
3,74,81,0
3,62,86,96
3,65,76,36
3,73,82,0
3,69,83,0
3,62,83,116
3,69,83,52
3,65,76,0
3,72,74,0
3,62,83,0
3,65,77,32
3,71,81,0
3,69,72,0
3,69,60,4
3,62,86,144
3,65,93,0
3,69,96,0
3,74,86,0
3,62,79,112
3,73,83,32
3,65,81,0
3,69,81,0
3,62,81,96
3,69,84,40
3,65,78,0
3,72,79,0
3,62,81,0
3,71,79,24
3,65,78,0
3,69,79,0
3,62,75,0
3,69,73,16
3,65,72,0
3,62,79,68
3,66,73,112
3,69,74,0
3,74,69,0
3,62,72,92
3,66,69,32
3,69,69,0
3,74,66,0
3,62,72,128
3,69,72,32
3,66,69,0
3,74,68,0
3,62,73,4
3,66,69,16
3,69,76,0
3,74,74,0
3,62,74,120
3,69,72,40
3,66,68,0
3,74,69,0
3,62,79,116
3,66,81,188
3,69,91,0
3,74,84,0
3,62,76,128
3,69,79,32
3,66,69,0
3,74,75,0
3,62,81,128
3,66,75,0
3,69,74,0
3,72,77,0
3,62,75,192
3,70,80,48
3,66,81,0
3,62,79,160
3,58,76,112
3,62,78,128
3,64,75,0
3,69,75,0
3,58,77,96
3,69,74,32
3,64,72,0
3,62,67,0
3,58,72,100
3,64,67,32
3,62,72,0
3,67,72,0
3,58,76,0
3,64,76,32
3,62,75,0
3,69,76,0
3,58,82,192
3,62,65,32
3,64,62,0
3,67,72,0
3,58,76,192
3,64,69,96
3,69,73,0
3,62,70,0
3,58,80,112
3,64,70,32
3,67,75,0
3,62,69,0
3,58,76,112
3,64,74,48
3,69,74,0
3,62,74,0
3,58,77,0
3,64,71,36
3,62,72,0
3,67,77,0
3,58,85,192
3,64,59,32
3,62,66,0
3,67,70,0
3,62,74,68
3,69,76,0
3,65,77,0
3,69,77,2432
3,65,74,0
3,74,72,0
3,65,72,224
3,69,74,0
3,74,71,0
3,67,73,228
3,65,67,0
3,74,69,0
3,70,65,0
3,65,62,52
3,67,72,0
3,70,67,0
3,74,67,0
3,65,59,208
3,70,63,0
3,67,68,0
3,74,59,0
3,74,68,312
3,65,71,0
3,69,71,0
3,74,67,224
3,65,63,0
3,69,65,0
3,65,66,224
3,69,68,0
3,74,67,0
3,62,77,228
3,69,86,136
3,65,78,0
3,74,74,0
3,62,75,116
3,65,74,32
3,74,74,0
3,69,83,0
3,62,78,92
3,67,77,36
3,70,80,0
3,65,74,0
3,74,74,0
3,62,76,0
3,70,77,40
3,67,77,0
3,65,71,0
3,74,73,0
3,70,28,8
3,62,74,0
3,70,72,32
3,67,74,0
3,65,70,0
3,74,75,0
3,62,81,28
3,74,77,128
3,65,78,0
3,69,83,0
3,62,75,96
3,73,81,48
3,69,83,0
3,65,76,0
3,62,76,128
3,65,76,48
3,72,77,0
3,69,86,0
3,62,81,4
3,69,79,48
3,65,75,0
3,71,75,0
3,62,78,192
3,69,81,0
3,65,77,0
3,65,75,216
3,69,81,0
3,62,76,0
3,62,78,228
3,70,80,0
3,67,77,0
3,70,74,80
3,67,77,0
3,62,71,0
3,62,71,224
3,70,69,0
3,67,70,0
3,65,74,320
3,69,78,0
3,74,75,0
3,62,70,112
3,69,66,32
3,65,66,0
3,74,63,0
3,62,63,120
3,74,58,96
3,69,55,0
3,65,56,0
3,62,76,448
3,69,76,0
3,58,79,96
3,62,76,48
3,69,81,0
3,58,85,112
3,67,88,48
3,62,79,0
3,58,76,0
3,62,79,32
3,67,93,0
3,58,83,0
3,62,78,16
3,67,83,0
3,58,92,36
3,62,78,144
3,64,76,0
3,69,79,0
3,58,85,112
3,64,77,52
3,62,78,0
3,69,78,0
3,58,83,116
3,64,76,48
3,62,78,0
3,67,86,0
3,58,96,0
3,64,79,52
3,62,81,0
3,69,79,0
3,58,89,0
3,64,74,52
3,62,75,0
3,67,83,0
3,62,78,2372
3,65,79,112
3,69,83,0
3,74,77,0
3,62,77,96
3,73,82,48
3,65,75,0
3,69,79,0
3,62,78,84
3,65,77,48
3,69,84,0
3,72,76,0
3,62,84,0
3,65,79,48
3,71,83,0
