track,note,velocity,time
3,76,100,4560
3,71,100,24
3,74,100,12
3,69,100,12
3,71,100,12
3,67,100,504
3,71,100,24
3,71,100,24
3,64,100,24
3,64,100,12
3,72,100,504
3,72,100,24
3,72,100,24
3,72,100,24
3,69,100,24
3,69,100,24
3,69,100,48
3,69,100,12
3,71,100,12
3,76,100,120
3,74,100,12
3,74,100,36
3,69,100,12
3,71,100,12
3,69,100,0
3,67,100,12
3,62,100,204
3,67,100,12
3,71,100,24
3,71,100,24
3,64,100,12
3,64,100,12
3,64,100,468
3,72,100,12
3,72,100,24
3,72,100,12
3,71,100,0
3,71,100,24
3,69,100,12
3,69,100,12
3,71,100,12
3,72,100,0
3,72,100,24
3,72,100,24
3,72,100,12
3,72,100,12
3,72,100,12
3,71,100,12
3,69,100,12
3,69,100,12
3,71,100,12
3,69,100,0
3,71,100,24
3,71,100,144
3,72,100,288
3,74,100,48
3,67,100,48
3,67,100,708
3,72,100,12
3,72,100,24
3,72,100,12
3,71,100,0
3,71,100,24
3,69,100,12
3,69,100,12
3,71,100,12
3,69,100,0
3,72,100,12
3,72,100,12
3,72,100,12
3,72,100,12
3,72,100,0
3,74,100,12
3,76,100,0
3,71,100,24
3,69,100,12
3,71,100,36
3,72,100,288
3,74,100,48
3,67,100,48
3,72,100,768
3,72,100,24
3,72,100,12
3,72,100,0
3,71,100,24
3,69,100,12
3,71,100,12
3,71,100,108
3,72,100,12
3,72,100,24
3,72,100,12
3,72,100,0
3,74,100,24
3,74,100,12
3,76,100,12
3,71,100,24
3,69,100,24
3,62,100,276
3,67,100,12
3,66,100,12
3,67,100,36
3,76,100,2256
3,71,100,24
3,74,100,12
3,69,100,12
3,71,100,12
3,67,100,504
3,71,100,24
3,71,100,24
3,64,100,24
3,64,100,12
3,72,100,432
3,72,100,12
3,72,100,12
3,72,100,24
3,72,100,24
3,69,100,12
3,69,100,12
3,62,100,204
3,69,100,12
3,71,100,12
3,76,100,120
3,74,100,24
3,74,100,24
3,69,100,12
3,71,100,12
3,69,100,0
3,67,100,12
3,67,100,264
3,71,100,24
3,71,100,24
3,64,100,12
3,64,100,12
3,64,100,468
3,72,100,12
3,72,100,12
3,72,100,12
3,72,100,48
3,72,100,12
3,71,100,12
3,69,100,12
3,69,100,12
3,71,100,12
3,72,100,0
3,72,100,12
3,72,100,12
3,72,100,12
3,72,100,0
3,72,100,12
3,71,100,12
3,69,100,12
3,71,100,12
3,69,100,0
3,71,100,24
3,71,100,144
3,72,100,288
3,74,100,48
3,67,100,48
3,67,100,708
3,72,100,12
3,72,100,24
3,72,100,12
3,71,100,0
3,71,100,24
3,69,100,12
3,69,100,12
3,71,100,12
3,69,100,0
3,72,100,12
3,72,100,12
3,72,100,12
3,72,100,12
3,72,100,0
3,74,100,12
3,76,100,0
3,71,100,24
3,69,100,12
3,71,100,36
3,72,100,288
3,74,100,48
3,67,100,48
3,72,100,768
3,72,100,24
3,72,100,12
3,72,100,0
3,71,100,24
3,69,100,12
3,71,100,12
3,71,100,108
3,72,100,12
3,72,100,24
3,72,100,12
3,72,100,0
3,74,100,24
3,74,100,12
3,76,100,12
3,71,100,24
3,69,100,24
3,76,100,336
3,78,100,48
3,79,100,48
3,74,100,288
3,78,100,48
3,79,100,48
3,76,100,408
3,79,100,0
3,76,100,24
3,74,100,24
3,71,100,0
3,72,100,288
3,74,100,48
3,67,100,48
3,67,100,708
3,72,100,12
3,72,100,24
3,72,100,12
3,71,100,0
3,71,100,24
3,69,100,12
3,69,100,12
3,71,100,12
3,69,100,0
3,72,100,12
3,72,100,12
3,72,100,12
3,72,100,12
3,72,100,0
3,74,100,12
3,76,100,0
3,71,100,24
3,69,100,12
3,71,100,36
3,72,100,288
3,74,100,48
3,67,100,48
3,72,100,768
3,72,100,24
3,72,100,12
3,72,100,0
3,71,100,24
3,69,100,12
3,71,100,12
3,71,100,108
3,72,100,12
3,72,100,24
3,72,100,12
3,72,100,0
3,74,100,24
3,74,100,12
3,76,100,12
3,71,100,24
3,69,100,24
3,71,100,0
3,69,100,0
3,67,100,0
3,67,100,3480
3,67,100,24
3,66,100,24
3,67,100,24
3,71,100,192
3,69,100,24
3,67,100,0
4,71,100,12960
4,72,100,288
4,74,100,48
4,67,100,48
4,71,100,2688
4,72,100,288
4,74,100,48
4,67,100,48
4,71,100,15648
4,72,100,288
4,74,100,48
4,67,100,48
4,71,100,2688
4,72,100,288
4,74,100,48
4,67,100,48
4,76,100,5448
4,79,100,0
4,76,100,24
4,74,100,24
4,71,100,0
4,72,100,288
4,74,100,48
4,67,100,48
4,71,100,2688
4,72,100,288
4,74,100,48
4,67,100,48
5,55,80,960
5,60,80,0
5,64,80,0
5,66,80,0
5,67,80,0
5,57,80,0
5,62,80,0
5,62,80,0
5,66,80,0
5,67,80,0
5,60,80,0
5,62,80,0
5,66,80,0
5,67,80,0
5,60,80,0
5,64,80,0
5,67,80,0
5,71,80,0
5,60,80,0
5,66,80,0
5,69,80,0
5,71,80,0
5,67,80,0
5,67,80,0
5,62,80,0
5,64,80,0
5,67,80,0
5,57,80,0
5,62,80,0
5,55,80,0
5,59,80,0
5,62,80,0
5,57,80,0
5,64,80,240
5,67,80,0
5,64,80,0
5,67,80,0
5,64,80,0
5,60,80,0
5,62,80,0
5,66,80,0
5,62,80,0
5,67,80,0
5,67,80,0
5,71,80,0
5,64,80,480
5,67,80,0
5,64,80,480
5,67,80,0
5,67,80,0
5,64,80,0
5,62,80,0
5,66,80,0
5,66,80,0
5,60,80,0
5,62,80,0
5,67,80,0
5,71,80,0
5,64,80,0
5,67,80,0
5,67,80,0
5,62,80,0
5,60,80,0
5,64,80,0
5,55,80,0
5,64,80,0
5,62,80,0
5,55,80,0
5,64,80,0
5,69,80,0
5,64,80,0
5,69,80,0
5,62,80,60
5,66,80,0
5,66,80,0
5,62,80,0
5,64,80,0
5,69,80,0
5,64,80,0
5,69,80,0
5,66,80,0
5,69,80,0
5,66,80,60
5,62,80,0
5,62,80,0
5,67,80,0
5,71,80,0
5,64,80,0
5,67,80,0
5,67,80,0
5,62,80,0
5,60,80,0
5,64,80,0
5,67,80,0
5,55,80,0
5,64,80,0
5,62,80,0
5,55,80,0
5,64,80,0
5,69,80,0
5,64,80,0
5,69,80,0
5,62,80,60
5,66,80,0
5,66,80,0
5,62,80,0
5,64,80,0
5,69,80,0
5,64,80,0
5,69,80,0
5,66,80,60
5,69,80,0
5,62,80,0
5,66,80,0
5,66,80,0
5,60,80,0
5,59,80,300
5,62,80,0
5,67,80,0
5,60,80,0
5,62,80,0
5,60,80,0
5,64,80,0
5,67,80,0
5,69,80,0
5,67,80,0
5,55,80,0
5,57,80,0
5,59,80,0
5,62,80,0
5,67,80,0
5,60,80,0
5,62,80,0
5,60,80,0
5,64,80,0
5,67,80,0
5,71,80,0
5,60,80,0
5,66,80,0
5,69,80,0
5,71,80,0
5,67,80,0
5,67,80,0
5,62,80,0
5,67,80,0
5,64,80,0
5,62,80,0
5,57,80,0
5,59,80,0
5,55,80,0
5,57,80,0
5,62,80,0
5,67,80,240
5,64,80,0
5,67,80,0
5,64,80,0
5,60,80,0
5,64,80,0
5,66,80,0
5,62,80,0
5,67,80,0
5,62,80,0
5,71,80,0
5,67,80,0
5,67,80,480
5,64,80,0
5,67,80,480
5,64,80,0
5,64,80,0
5,67,80,0
5,66,80,0
5,62,80,0
5,66,80,0
5,60,80,0
5,71,80,0
5,67,80,0
5,62,80,0
5,67,80,0
5,64,80,0
5,62,80,0
5,67,80,0
5,64,80,0
5,60,80,0
5,64,80,0
5,55,80,0
5,55,80,0
5,62,80,0
5,69,80,0
5,64,80,0
5,69,80,0
5,64,80,0
5,66,80,60
5,62,80,0
5,62,80,0
5,66,80,0
5,69,80,0
5,64,80,0
5,69,80,0
5,64,80,0
5,66,80,0
5,69,80,0
5,62,80,60
5,66,80,0
5,71,80,0
5,67,80,0
5,62,80,0
5,67,80,0
5,64,80,0
5,62,80,0
5,67,80,0
5,67,80,0
5,64,80,0
5,60,80,0
5,64,80,0
5,55,80,0
5,55,80,0
5,62,80,0
5,69,80,0
5,64,80,0
5,69,80,0
5,64,80,0
5,66,80,60
5,62,80,0
5,62,80,0
5,66,80,0
5,69,80,0
5,64,80,0
5,69,80,0
5,64,80,0
5,69,80,60
5,66,80,0
5,66,80,0
5,62,80,0
5,60,80,0
5,66,80,0
5,72,80,240
5,67,80,0
5,71,80,240
5,67,80,0
5,72,80,360
5,67,80,0
5,67,80,0
5,69,80,0
5,62,80,0
5,66,80,0
5,67,80,0
5,69,80,0
5,66,80,0
5,62,80,0
5,62,80,0
5,67,80,0
5,71,80,0
5,64,80,0
5,67,80,0
5,67,80,0
5,62,80,0
5,60,80,0
5,64,80,0
5,55,80,0
5,64,80,0
5,62,80,0
5,55,80,0
5,64,80,0
5,69,80,0
5,64,80,0
5,69,80,0
5,62,80,60
5,66,80,0
5,66,80,0
5,62,80,0
5,64,80,0
5,69,80,0
5,64,80,0
5,69,80,0
5,66,80,0
5,69,80,0
5,66,80,60
5,62,80,0
5,62,80,0
5,67,80,0
5,71,80,0
5,64,80,0
5,67,80,0
5,67,80,0
5,62,80,0
5,60,80,0
5,64,80,0
5,67,80,0
5,55,80,0
5,64,80,0
5,62,80,0
5,55,80,0
5,64,80,0
5,69,80,0
5,64,80,0
5,69,80,0
5,62,80,60
5,66,80,0
5,66,80,0
5,62,80,0
5,64,80,0
5,69,80,0
5,64,80,0
5,69,80,0
5,66,80,60
5,69,80,0
5,62,80,0
5,66,80,0
5,66,80,0
5,60,80,0
5,67,100,0
5,72,100,0
5,76,100,0
5,78,100,0
5,79,100,0
5,71,100,0
5,74,100,0
5,74,100,0
5,78,100,0
5,79,100,0
5,72,100,0
5,78,100,0
5,79,100,0
5,79,100,0
5,76,100,0
5,72,100,0
5,72,100,0
5,78,100,0
5,81,100,0
5,71,100,0
5,67,100,0
5,72,100,0
5,74,100,0
5,79,100,480
5,81,100,48
5,79,100,48
5,74,100,0
5,71,100,0
5,67,100,0
6,59,80,55200
6,62,80,0
6,67,80,0
6,62,80,0
6,67,80,0
6,62,80,0
6,67,80,0
6,62,80,0
6,57,80,0
6,64,80,0
6,69,80,0
6,64,80,0
6,69,80,0
6,64,80,0
6,69,80,0
6,64,80,0
6,69,80,0
6,62,80,0
6,62,80,0
6,69,80,0
6,55,80,0
6,62,80,0
6,67,80,0
6,62,80,0
6,67,80,0
6,62,80,0
6,67,80,0
6,62,80,0
6,55,80,0
6,60,80,0
6,62,80,0
6,60,80,0
6,62,80,0
6,60,80,24
6,62,80,24
6,62,80,48
6,59,80,0
6,55,80,0
7,36,80,960
7,43,80,0
7,48,80,0
7,47,80,0
7,50,80,0
7,55,80,0
7,45,80,0
7,52,80,0
7,57,80,0
7,50,80,0
7,57,80,0
7,50,80,0
7,43,80,0
7,40,80,0
7,36,80,0
7,42,80,0
7,43,80,0
7,50,80,0
7,48,80,0
7,43,80,0
7,40,80,0
7,36,80,0
7,38,80,0
7,50,80,0
7,43,80,0
7,45,80,0
7,47,80,0
7,48,80,0
7,55,80,0
7,57,80,0
7,55,80,0
7,48,80,0
7,47,80,0
7,45,80,0
7,45,80,0
7,50,80,0
7,50,80,0
7,45,80,0
7,45,80,0
7,50,80,0
7,50,80,0
7,43,80,0
7,45,80,0
7,47,80,0
7,48,80,0
7,48,80,0
7,50,80,0
7,48,80,0
7,47,80,0
7,45,80,0
7,45,80,0
7,50,80,0
7,50,80,0
7,45,80,0
7,45,80,0
7,50,80,0
7,50,80,0
7,50,80,0
7,43,80,0
7,43,80,0
7,43,80,0
7,50,80,0
7,50,80,0
7,43,80,0
7,40,80,0
7,36,80,0
7,42,80,0
7,43,80,0
7,50,80,0
7,48,80,0
7,43,80,0
7,40,80,0
7,36,80,0
7,38,80,0
7,50,80,0
7,43,80,0
7,45,80,0
7,47,80,0
7,48,80,0
7,55,80,0
7,57,80,0
7,55,80,0
7,48,80,0
7,47,80,0
7,45,80,0
7,45,80,0
7,50,80,0
7,50,80,0
7,45,80,0
7,45,80,0
7,50,80,0
7,50,80,0
7,43,80,0
7,45,80,0
7,47,80,0
7,48,80,0
7,48,80,0
7,50,80,0
7,48,80,0
7,47,80,0
7,45,80,0
7,45,80,0
7,50,80,0
7,50,80,0
7,45,80,0
7,45,80,0
7,50,80,0
7,50,80,0
7,54,80,0
7,50,80,0
7,48,80,0
7,48,80,0
7,48,80,0
7,47,80,0
7,47,80,0
7,47,80,0
7,45,80,0
7,45,80,0
7,45,80,0
7,38,80,0
7,45,80,0
7,50,80,0
7,48,80,0
7,47,80,0
7,45,80,0
7,43,80,0
7,45,80,0
7,47,80,0
7,48,80,0
7,55,80,0
7,57,80,0
7,55,80,0
7,48,80,0
7,47,80,0
7,45,80,0
7,45,80,0
7,50,80,0
7,50,80,0
7,45,80,0
7,45,80,0
7,50,80,0
7,50,80,0
7,43,80,0
7,45,80,0
7,47,80,0
7,48,80,0
7,48,80,0
7,50,80,0
7,48,80,0
7,47,80,0
7,45,80,0
7,45,80,0
7,50,80,0
7,50,80,0
7,45,80,0
7,45,80,0
7,50,80,0
7,50,80,0
7,50,80,0
7,48,80,0
7,55,80,0
7,60,80,0
8,35,90,12960
8,42,100,0
8,49,80,0
8,42,60,70
8,38,100,70
8,42,90,0
8,42,60,70
8,35,90,70
8,42,90,0
8,42,50,70
8,38,100,70
8,42,106,0
8,42,40,70
8,35,90,70
8,42,100,0
8,42,55,70
8,38,100,70
8,42,90,0
8,35,70,70
8,42,60,0
8,35,90,70
8,42,95,0
8,42,55,70
8,38,100,70
8,42,90,0
8,42,50,70
8,35,94,70
8,42,100,0
8,42,60,70
8,38,106,70
8,42,90,0
8,42,40,70
8,35,90,70
8,42,90,0
8,42,55,70
8,38,104,70
8,42,100,0
8,42,60,10
8,42,55,10
8,35,90,70
8,42,90,0
8,42,55,70
8,42,100,70
8,48,80,0
8,42,40,70
8,45,70,10
8,48,90,10
8,45,80,70
8,35,50,70
8,42,66,0
8,45,70,10
8,41,80,10
8,35,90,70
8,42,100,0
8,49,80,0
8,42,60,70
8,38,100,70
8,42,90,0
8,42,60,70
8,35,90,70
8,42,90,0
8,42,50,70
8,38,100,70
8,42,106,0
8,42,40,70
8,35,90,70
8,42,100,0
8,42,55,70
8,38,103,70
8,42,90,0
8,35,75,70
8,42,60,0
8,35,90,70
8,42,95,0
8,42,55,70
8,38,100,70
8,42,90,0
8,46,90,70
8,35,94,70
8,42,100,0
8,42,60,70
8,38,106,70
8,42,90,0
8,42,40,70
8,35,90,70
8,42,90,0
8,42,55,70
8,38,104,70
8,42,100,0
8,42,60,10
8,42,55,10
8,35,90,70
8,42,100,0
8,42,55,70
8,38,103,70
8,42,90,0
8,35,75,70
8,46,72,0
8,35,90,70
8,42,95,0
8,42,55,70
8,38,100,70
8,42,90,0
8,42,50,70
8,35,90,70
8,42,90,0
8,42,40,70
8,38,100,70
8,42,90,0
8,42,40,70
8,35,90,70
8,42,90,0
8,42,40,70
8,38,100,70
8,42,90,0
8,42,40,70
8,35,90,70
8,42,100,0
8,42,55,70
8,38,103,70
8,42,90,0
8,35,75,70
8,46,72,0
8,35,90,70
8,42,95,0
8,42,66,10
8,42,55,10
8,38,100,70
8,42,90,0
8,42,50,70
8,35,90,70
8,42,90,0
8,42,40,70
8,38,100,70
8,42,90,0
8,42,40,70
8,35,90,70
8,42,90,0
8,42,40,70
8,38,100,70
8,42,90,0
8,42,40,70
8,35,90,70
8,42,100,0
8,42,55,70
8,38,103,70
8,42,90,0
8,35,75,70
8,42,60,0
8,35,90,70
8,42,95,0
8,42,55,70
8,38,100,70
8,42,90,0
8,42,50,70
8,35,90,70
8,42,90,0
8,42,40,70
8,42,90,70
8,37,105,0
8,42,40,70
8,38,100,70
8,42,90,0
8,42,40,70
8,48,90,10
8,42,90,10
8,42,40,70
8,45,90,0
8,35,90,70
8,42,90,0
8,51,80,0
