track,note,velocity,time
0,43,118,3
0,43,123,0
0,47,117,0
0,47,122,0
0,55,61,3
0,55,66,0
0,50,98,1
0,50,103,0
0,55,119,1
0,55,124,0
0,62,127,1
0,62,127,0
0,67,127,2
0,67,127,0
0,42,119,2
0,42,50,35
0,62,126,0
0,62,127,0
0,67,127,2
0,67,127,0
0,67,115,1
0,67,120,0
0,62,117,1
0,62,122,0
0,42,33,4
0,50,89,0
0,50,94,0
0,55,125,2
0,62,125,0
0,55,127,0
0,62,127,0
0,67,127,2
0,67,127,0
0,42,113,2
0,59,125,2
0,59,127,0
0,67,126,1
0,67,127,0
0,42,50,1
0,50,99,1
0,50,104,0
0,57,126,3
0,57,127,0
0,65,127,1
0,60,127,0
0,65,127,0
0,60,127,0
0,62,115,0
0,62,120,0
0,50,96,0
0,50,101,0
0,57,126,1
0,65,102,0
0,57,127,0
0,65,107,0
0,62,126,2
0,62,127,0
0,42,116,3
0,42,50,25
0,50,101,1
0,57,127,0
0,50,106,0
0,57,127,0
0,62,127,1
0,62,127,0
0,65,127,1
0,65,127,0
0,65,117,0
0,65,122,0
0,62,120,1
0,62,125,0
0,42,34,7
0,57,126,0
0,57,127,0
0,62,126,1
0,62,127,0
0,65,127,1
0,65,127,0
0,42,113,2
0,64,109,1
0,64,114,0
0,59,109,2
0,59,114,0
0,55,100,0
0,55,105,0
0,42,49,1
0,48,91,3
0,48,96,0
0,52,106,0
0,52,111,0
0,55,119,2
0,55,124,0
0,60,98,1
0,60,103,0
0,48,106,0
0,48,111,0
0,52,117,0
0,52,122,0
0,55,127,1
0,55,127,0
0,42,116,1
0,60,127,0
0,60,127,0
0,67,127,0
0,67,127,0
0,42,46,13
0,52,116,0
0,52,121,0
0,42,30,1
0,55,127,0
0,55,127,0
0,60,125,1
0,60,127,0
0,67,127,1
0,67,127,0
0,60,121,1
0,67,119,0
0,60,126,0
0,67,124,0
0,52,107,0
0,52,112,0
0,42,116,1
0,55,127,0
0,55,127,0
0,60,127,1
0,60,127,0
0,67,127,1
0,67,127,0
0,67,105,1
0,67,110,0
0,59,109,2
0,59,114,0
0,42,41,2
0,49,97,36
0,31,127,0
0,59,113,0
0,62,115,0
0,67,109,0
0,43,109,0
0,31,109,0
0,47,95,1
0,47,100,0
0,50,81,1
0,50,86,0
0,43,106,3
0,43,111,0
0,50,112,0
0,55,127,0
0,50,117,0
0,55,127,0
0,42,119,1
0,67,127,0
0,67,127,0
0,62,127,2
0,62,127,0
0,42,45,1
0,55,119,1
0,62,124,0
0,55,124,0
0,62,127,0
0,67,126,1
0,67,127,0
0,67,125,1
0,67,127,0
0,62,120,2
0,62,125,0
0,42,34,1
0,55,123,1
0,55,127,0
0,62,123,0
0,62,127,0
0,42,110,1
0,67,125,0
0,67,127,0
0,67,119,1
0,67,124,0
0,62,123,1
0,62,127,0
0,42,55,1
0,55,119,0
0,55,124,0
0,50,86,1
0,50,91,0
0,47,90,4
0,47,95,0
0,47,115,0
0,47,120,0
0,50,97,2
0,50,102,0
0,43,109,2
0,43,114,0
0,42,31,36
0,55,127,1
0,55,127,0
0,62,127,1
0,62,127,0
0,67,126,1
0,67,127,0
0,42,107,3
0,42,53,25
0,55,114,0
0,55,119,0
0,62,123,0
0,62,127,0
0,67,124,0
0,67,127,0
0,42,33,1
0,67,125,1
0,67,127,0
0,62,123,1
0,62,127,0
0,42,46,1
0,55,121,0
0,55,126,0
0,42,104,1
0,62,123,0
0,62,127,0
0,67,125,0
0,67,127,0
0,67,125,0
0,67,127,0
0,46,99,1
0,62,122,0
0,62,127,0
0,71,115,0
0,42,78,0
0,35,102,0
0,43,104,0
0,43,115,0
0,43,120,0
0,47,105,0
0,47,110,0
0,43,34,4
0,71,110,0
0,42,41,2
0,50,50,31
0,50,55,0
0,55,124,2
0,55,127,0
0,71,113,0
0,51,79,0
0,62,127,0
0,62,127,0
0,67,127,0
0,67,127,0
0,47,113,0
0,50,114,0
0,43,98,0
0,55,120,1
0,59,118,0
0,67,116,1
0,71,111,0
0,42,34,1
0,71,115,0
0,42,72,1
0,35,102,0
0,38,108,0
0,67,102,2
0,67,107,0
0,71,112,0
0,42,40,1
0,67,92,0
0,55,86,0
0,67,97,1
0,67,102,0
0,62,100,1
0,62,105,0
0,62,111,0
0,51,81,1
0,50,67,0
0,50,72,0
0,47,92,0
0,50,111,0
0,59,118,0
0,55,119,0
0,55,121,1
0,62,125,0
0,55,126,0
0,62,127,0
0,67,120,0
0,67,127,1
0,67,127,0
0,62,108,0
0,42,36,2
0,67,85,1
0,67,90,0
0,62,77,1
0,62,82,0
0,35,108,1
0,42,78,0
0,43,92,0
0,43,90,1
0,43,87,3
0,43,92,0
0,42,41,12
0,50,102,0
0,47,71,1
0,55,112,0
0,51,79,1
0,50,91,0
0,50,96,0
0,59,119,0
0,67,117,0
0,55,125,0
0,55,127,0
0,62,126,1
0,62,127,0
0,67,125,0
0,67,127,0
0,42,34,6
0,35,104,11
0,42,72,0
0,43,95,0
0,55,105,0
0,55,110,0
0,62,100,1
0,62,105,0
0,67,77,1
0,67,82,0
0,67,93,0
0,42,40,1
0,67,109,0
0,67,114,0
0,59,91,0
0,55,96,0
0,62,112,1
0,62,117,0
0,43,78,1
0,47,34,4
0,47,39,0
0,51,81,1
0,55,127,0
0,55,127,0
0,62,127,1
0,62,127,0
0,50,101,1
0,67,127,0
0,50,106,0
0,67,127,0
0,55,116,0
0,50,111,0
0,59,120,1
0,67,119,0
0,42,36,1
0,64,120,0
0,64,125,0
0,59,115,2
0,59,120,0
0,35,108,2
0,42,78,0
0,41,94,0
0,57,123,0
0,57,127,0
0,71,114,0
0,60,127,0
0,60,127,0
0,53,76,0
0,65,126,1
0,65,127,0
0,57,94,0
0,62,71,1
0,62,109,0
0,62,114,0
0,71,109,0
0,42,41,0
0,57,109,1
0,57,114,0
0,71,111,0
0,51,79,0
0,62,123,0
0,62,127,0
0,53,111,0
0,65,123,1
0,65,127,0
0,57,118,0
0,62,120,0
0,65,119,1
0,71,110,0
0,42,34,4
0,72,113,0
0,35,105,1
0,42,72,0
0,41,95,0
0,57,100,0
0,57,105,0
0,57,91,0
0,62,104,0
0,62,122,0
0,62,127,0
0,65,85,0
0,65,123,2
0,65,127,0
0,74,110,0
0,42,40,3
0,65,101,0
0,62,100,0
0,65,112,1
0,65,117,0
0,62,119,1
0,62,124,0
0,57,104,2
0,57,109,0
0,51,81,23
0,53,115,0
0,57,122,0
0,57,127,0
0,62,119,0
0,57,121,0
0,65,125,1
0,62,125,0
0,62,127,0
0,65,126,1
0,65,127,0
0,55,67,0
0,55,72,0
0,42,36,2
0,64,105,0
0,64,110,0
0,74,106,0
0,59,102,2
0,59,107,0
0,72,110,1
0,67,108,1
0,48,59,3
0,52,87,0
0,35,107,1
0,42,78,0
0,36,92,0
0,55,111,0
0,60,91,0
0,48,99,0
0,48,104,0
0,52,97,2
0,52,102,0
0,42,41,24
0,67,112,0
0,48,88,0
0,51,79,1
0,52,99,0
0,52,104,0
0,55,121,0
0,52,112,0
0,55,127,1
0,60,125,0
0,55,127,0
0,60,127,0
0,60,121,0
0,64,119,0
0,67,126,1
0,67,127,0
0,67,110,0
0,42,34,1
0,36,102,1
0,67,113,0
0,42,72,0
0,35,108,0
0,55,101,0
0,55,106,0
0,60,116,1
0,60,121,0
0,67,109,1
0,67,114,0
0,64,88,0
0,42,40,2
0,60,95,0
0,67,109,0
0,67,115,0
0,67,120,0
0,60,112,2
0,60,117,0
0,67,112,0
0,51,81,1
0,48,86,0
0,48,91,0
0,48,82,0
0,52,97,0
0,55,118,0
0,52,114,0
0,52,119,0
0,60,121,0
0,64,119,0
0,55,125,0
0,55,127,0
0,60,127,1
0,60,127,0
0,67,126,1
0,67,127,0
0,62,110,0
0,42,36,2
0,67,116,1
0,67,121,0
0,59,109,3
0,59,114,0
0,67,119,1
0,59,120,8
0,55,117,3
0,50,123,8
0,42,78,10
0,35,105,0
0,43,95,0
0,47,127,0
0,47,98,6
0,47,103,0
0,43,113,3
0,43,118,0
0,43,113,0
0,42,41,12
0,51,79,1
0,50,50,0
0,50,55,0
0,55,119,0
0,50,115,0
0,55,121,0
0,55,126,0
0,47,104,0
0,62,126,1
0,62,127,0
0,43,117,0
0,59,115,0
0,67,127,1
0,67,127,0
0,67,118,0
0,42,34,36
0,35,105,11
0,38,95,0
0,42,72,0
0,62,98,1
0,62,103,0
0,67,91,1
0,67,96,0
0,67,84,1
0,59,93,2
0,42,40,1
0,67,105,0
0,67,110,0
0,62,102,3
0,62,107,0
0,55,98,1
0,55,103,0
0,55,117,1
0,55,122,0
0,51,81,1
0,62,125,0
0,62,127,0
0,47,93,0
0,50,109,0
0,67,126,1
0,67,127,0
0,55,117,0
0,59,122,0
0,67,117,1
0,67,107,1
0,67,112,0
0,42,36,1
0,62,112,1
0,62,117,0
0,50,86,2
0,50,91,0
0,35,110,4
0,43,95,0
0,43,82,0
0,42,78,0
0,47,100,0
0,50,89,0
0,43,74,2
0,43,79,0
0,42,41,36
0,55,112,0
0,55,117,0
0,62,122,1
0,67,125,0
0,62,127,0
0,67,127,0
0,51,79,1
0,50,77,0
0,55,111,0
0,59,118,0
0,67,116,1
0,42,34,24
0,55,87,1
0,55,92,0
0,35,107,1
0,62,105,0
0,62,110,0
0,42,72,0
0,38,94,0
0,67,85,1
0,67,90,0
0,67,104,1
0,67,109,0
0,62,98,1
0,62,103,0
0,67,98,0
0,62,112,0
0,42,40,1
0,59,103,0
0,55,103,0
0,50,88,1
0,43,65,1
0,55,94,1
0,55,99,0
0,62,123,1
0,62,127,0
0,67,127,1
0,67,127,0
0,67,113,0
0,51,81,0
0,47,101,0
0,50,109,0
0,59,119,1
0,67,123,0
0,55,119,1
0,69,110,0
0,62,109,0
0,62,114,0
0,46,75,1
0,67,105,0
0,67,110,0
0,69,115,0
0,35,107,0
0,42,78,0
0,43,100,0
0,43,95,0
0,43,79,0
0,43,84,0
0,47,88,1
0,71,113,0
0,42,41,1
0,55,67,0
0,55,72,0
0,62,123,0
0,62,127,0
0,51,79,2
0,67,126,0
0,67,127,0
0,71,114,0
0,50,102,0
0,59,123,1
0,55,120,0
0,67,120,1
0,42,34,12
0,55,79,1
0,55,84,0
0,38,97,1
0,42,72,1
0,35,105,0
0,62,88,0
0,62,93,0
0,72,115,0
0,47,34,3
0,59,101,0
0,71,113,0
0,42,40,0
0,67,100,0
0,62,106,0
0,62,111,0
0,55,98,0
0,67,106,1
0,67,111,0
0,50,75,0
0,47,84,1
0,55,99,0
0,55,104,0
0,62,123,0
0,62,127,0
0,62,110,0
0,51,81,0
0,67,126,0
0,67,127,0
0,50,90,0
0,59,115,1
0,67,115,0
0,67,118,1
0,67,123,0
0,62,111,0
0,42,36,1
0,62,119,0
0,62,124,0
0,55,105,2
0,55,110,0
0,42,78,34
0,35,104,0
0,43,86,0
0,43,101,1
0,43,106,0
0,47,48,3
0,47,53,0
0,42,41,12
0,50,111,0
0,47,104,0
0,43,60,0
0,62,122,0
0,62,127,0
0,55,124,0
0,51,79,1
0,67,127,0
0,67,127,0
0,59,125,0
0,67,121,0
0,42,34,36
0,42,72,1
0,35,107,0
0,43,92,0
0,62,98,0
0,62,103,0
0,67,92,1
0,67,97,0
0,67,103,0
0,67,125,1
0,67,127,0
0,59,107,0
0,42,40,1
0,62,122,0
0,62,127,0
0,55,107,0
0,50,96,0
0,55,109,1
0,55,114,0
0,43,69,1
0,51,81,1
0,55,127,0
0,55,127,0
0,62,127,0
0,62,127,0
0,47,93,0
0,55,123,0
0,50,114,0
0,67,126,1
0,67,127,0
0,59,123,0
0,67,122,0
0,62,109,0
0,42,36,1
0,64,124,0
0,64,127,0
0,59,112,2
0,59,117,0
0,71,116,0
0,42,78,1
0,35,104,0
0,41,91,0
0,57,115,0
0,57,120,0
0,57,112,0
0,53,83,0
0,62,109,0
0,60,127,1
0,60,127,0
0,65,61,0
0,65,126,1
0,65,127,0
0,62,115,0
0,62,120,0
0,71,110,0
0,42,41,1
0,57,114,0
0,57,119,0
0,62,123,1
0,62,127,0
0,71,114,0
0,51,79,0
0,65,124,0
0,65,127,0
0,53,107,0
0,62,121,0
0,57,121,0
0,65,121,1
0,71,114,0
0,42,34,0
0,72,116,0
0,41,91,0
0,42,72,1
0,35,109,0
0,57,103,1
0,57,108,0
0,62,123,1
0,62,127,0
0,65,123,1
0,65,127,0
0,65,97,1
0,42,40,0
0,62,101,0
0,74,114,0
0,57,94,0
0,65,98,2
0,65,103,0
0,62,98,1
0,62,103,0
0,51,81,1
0,53,95,0
0,57,121,0
0,62,118,0
0,57,109,0
0,57,114,0
0,65,121,0
0,62,123,0
0,62,127,0
0,65,126,1
0,65,127,0
0,42,36,2
0,64,43,0
0,64,95,1
0,64,100,0
0,59,116,0
0,59,121,0
0,55,105,2
0,55,110,0
0,74,110,0
0,72,107,1
0,67,105,1
0,60,94,0
0,60,99,0
0,36,102,1
0,48,65,0
0,42,78,1
0,35,109,0
0,48,90,0
0,48,95,0
0,52,84,0
0,55,99,1
0,52,100,2
0,52,105,0
0,55,90,3
0,55,95,0
0,42,41,24
0,51,79,35
0,52,102,0
0,55,113,1
0,55,118,0
0,55,121,0
0,60,119,0
0,64,118,0
0,60,125,1
0,60,127,0
0,67,126,4
0,67,127,0
0,67,111,0
0,42,34,2
0,67,113,0
0,35,108,0
0,42,72,0
0,36,102,0
0,55,92,0
0,55,97,0
0,60,109,1
0,60,114,0
0,67,86,1
0,67,91,0
0,52,55,2
0,52,60,0
0,64,106,0
0,67,110,0
0,60,107,0
0,42,40,1
0,55,106,0
0,52,82,0
0,67,125,1
0,67,127,0
0,48,77,0
0,60,121,1
0,60,126,0
0,67,113,0
0,52,102,0
0,51,81,1
0,55,120,0
0,60,118,0
0,64,120,0
0,60,122,0
0,55,114,0
0,60,127,0
0,55,119,0
0,67,127,2
0,67,127,0
0,59,94,1
0,59,99,0
0,62,111,0
0,42,36,1
0,64,88,6
0,64,93,0
0,55,59,1
0,55,64,0
0,67,104,5
0,59,110,1
0,55,110,7
0,50,120,9
0,35,112,9
0,42,78,0
0,43,97,0
0,47,127,3
0,43,106,2
0,43,111,0
0,43,115,6
0,42,41,12
0,51,79,2
0,55,117,0
0,50,46,0
0,55,122,0
0,50,51,0
0,62,124,1
0,67,127,0
0,62,127,0
0,67,127,0
0,55,111,1
0,50,100,0
0,43,86,0
0,59,112,1
0,42,34,36
0,35,109,3
0,42,72,0
0,38,92,0
0,62,114,1
0,62,119,0
0,67,106,1
0,67,111,0
0,42,40,3
0,67,101,0
0,59,103,0
0,55,101,0
0,50,84,0
0,67,110,1
0,67,115,0
0,47,93,0
0,62,108,1
0,62,113,0
0,43,70,0
0,51,81,1
0,55,115,0
0,59,117,0
0,67,118,0
0,62,123,0
0,62,127,0
0,67,127,2
0,67,127,0
0,42,36,12
0,67,109,1
0,67,114,0
0,43,97,2
0,47,106,1
0,35,108,1
0,43,97,0
0,42,78,0
0,50,90,0
0,43,95,2
0,43,100,0
0,47,84,1
0,42,41,36
0,47,94,0
0,62,123,0
0,62,127,0
0,55,122,0
0,51,79,1
0,67,127,0
0,67,127,0
0,59,127,0
0,67,123,0
0,50,111,0
0,42,34,24
0,83,93,2
0,71,116,0
0,59,115,0
0,42,72,1
0,35,111,0
0,31,86,0
0,67,114,0
0,67,99,1
0,69,114,0
0,33,92,0
0,81,88,0
0,69,110,0
0,57,106,0
0,59,108,0
0,42,40,1
0,62,97,0
0,62,102,0
0,55,105,0
0,67,90,1
0,67,95,0
0,47,95,0
0,43,82,1
0,71,114,0
0,51,81,0
0,35,108,0
0,55,112,0
0,79,92,0
0,67,117,0
0,55,106,0
0,55,111,0
0,62,123,0
0,62,127,0
0,67,123,1
0,67,127,0
0,55,119,0
0,47,111,0
0,59,118,0
0,50,101,0
0,67,121,1
0,71,114,0
0,46,73,0
0,69,111,1
0,67,108,1
