track,note,velocity,time
3,70,127,960
3,70,127,0
3,69,127,0
3,64,127,0
3,65,127,0
3,69,127,0
3,67,127,0
3,63,127,0
3,65,127,0
3,67,127,0
3,65,127,0
3,63,127,0
3,65,127,0
3,63,127,0
3,62,127,0
3,60,127,0
3,62,127,1920
3,62,127,0
3,60,127,0
3,63,127,1920
3,67,127,0
3,58,127,0
3,63,127,0
3,65,127,0
3,63,127,0
3,62,127,0
3,60,127,0
3,62,127,1920
3,62,127,0
3,60,127,0
3,63,127,1920
3,67,127,0
3,58,127,0
3,63,127,0
3,65,127,0
3,63,127,0
3,62,127,0
3,70,127,0
3,60,127,60
3,69,127,0
3,67,127,0
3,65,127,0
3,62,127,960
3,65,127,0
3,62,127,0
3,63,127,0
3,70,127,0
3,63,127,0
3,58,127,0
3,62,127,0
3,70,127,0
3,60,127,360
3,63,127,0
3,67,127,0
3,65,127,360
3,62,127,0
3,62,127,0
3,70,127,0
3,60,127,360
3,58,127,3840
3,59,127,600
3,55,127,0
3,57,127,0
3,59,127,0
3,64,127,0
3,62,127,120
3,64,127,1920
3,62,127,120
3,64,127,1920
3,62,127,360
3,60,127,1440
3,64,127,0
3,65,127,0
3,67,127,0
3,65,127,0
3,60,127,0
3,60,127,0
3,64,127,0
3,64,127,0
3,65,127,0
3,67,127,0
3,65,127,0
3,62,127,0
3,64,127,0
3,72,127,0
3,62,127,0
3,71,127,0
3,69,127,0
3,67,127,0
3,64,127,960
3,67,127,0
3,64,127,0
3,65,127,0
3,67,127,0
3,65,127,0
3,60,127,0
3,72,127,0
3,64,127,0
3,62,127,360
3,69,127,0
3,65,127,0
3,64,127,360
3,67,127,0
3,72,127,0
3,64,127,0
3,62,127,360
3,67,127,960
3,60,127,120
3,53,127,0
3,59,127,0
3,60,127,0
3,64,127,0
3,65,127,0
3,67,127,0
3,65,127,0
3,60,127,0
3,55,127,120
3,67,127,0
3,62,127,0
3,59,127,0
3,67,127,0
3,62,127,0
3,72,127,0
3,67,127,0
3,64,127,0
3,62,127,0
3,71,127,0
3,67,127,0
3,67,127,0
3,71,127,0
3,69,127,0
3,67,127,0
3,69,127,240
3,65,127,0
3,69,127,0
3,65,127,0
3,60,127,0
3,60,127,0
3,64,127,0
3,67,127,0
3,64,127,0
3,72,127,0
3,64,127,0
3,74,127,0
3,72,127,0
3,71,127,0
3,66,127,0
3,67,127,0
3,71,127,0
3,69,127,0
4,62,127,1440
4,58,127,0
4,58,127,0
4,65,127,120
4,60,127,0
4,57,127,0
4,63,127,120
4,58,127,0
4,55,127,0
4,67,127,720
4,67,127,360
4,58,127,8880
4,67,127,0
4,58,127,0
4,58,127,120
4,67,127,0
4,58,127,8280
4,67,127,0
4,58,127,0
4,58,127,120
4,67,127,0
4,60,127,10680
4,62,127,0
4,53,127,2160
4,65,127,0
4,58,127,0
4,58,127,120
4,65,127,0
4,58,127,0
4,53,127,0
4,62,127,23520
4,64,127,0
4,67,127,8400
4,62,127,0
4,59,127,0
4,65,127,360
4,60,127,0
4,57,127,0
5,46,122,960
5,53,117,120
5,53,122,120
5,58,122,0
5,62,122,0
5,50,122,0
5,57,117,120
5,69,122,120
5,60,122,0
5,62,122,0
5,65,122,0
5,51,122,0
5,58,117,120
5,55,122,120
5,58,122,0
5,63,122,0
5,65,120,0
5,60,120,0
5,57,120,0
5,67,120,0
5,58,120,0
5,60,120,0
5,63,120,0
5,65,120,0
5,62,120,0
5,58,120,0
5,55,127,120
5,58,127,0
5,63,127,0
5,46,122,0
5,53,117,120
5,53,122,120
5,62,122,0
5,58,122,0
5,62,100,480
5,58,100,0
5,53,100,0
5,50,122,0
5,57,117,120
5,69,122,120
5,60,122,0
5,62,122,0
5,65,122,0
5,51,122,0
5,58,117,120
5,55,122,120
5,58,122,0
5,63,122,0
5,53,122,0
5,60,117,120
5,57,122,120
5,60,122,0
5,65,122,0
5,46,122,0
5,53,117,120
5,58,122,120
5,62,122,0
5,65,122,0
5,50,122,0
5,57,117,120
5,69,122,120
5,60,122,0
5,62,122,0
5,65,122,0
5,51,122,0
5,58,117,120
5,58,122,120
5,63,122,0
5,67,122,0
5,65,120,0
5,60,120,0
5,57,120,0
5,53,120,0
5,58,120,0
5,62,120,0
5,67,127,120
5,63,127,0
5,58,127,0
5,58,120,0
5,62,120,0
5,65,120,0
5,63,127,120
5,58,127,0
5,55,127,0
5,46,122,0
5,53,117,120
5,58,122,120
5,62,122,0
5,65,122,0
5,50,122,0
5,57,117,120
5,69,122,120
5,60,122,0
5,62,122,0
5,65,122,0
5,51,122,0
5,58,117,120
5,58,122,120
5,63,122,0
5,55,122,0
5,53,122,0
5,60,117,120
5,60,122,120
5,57,122,0
5,65,122,0
5,46,122,0
5,53,117,120
5,58,122,120
5,62,122,0
5,65,122,0
5,50,122,0
5,57,117,120
5,69,122,120
5,60,122,0
5,62,122,0
5,65,122,0
5,51,122,0
5,58,117,120
5,58,122,120
5,55,122,0
5,63,122,0
5,57,120,0
5,60,120,0
5,65,120,0
5,65,120,0
5,62,120,0
5,58,120,0
5,55,127,120
5,58,127,0
5,63,127,0
5,65,120,0
5,62,120,0
5,58,120,0
5,55,120,0
5,58,120,0
5,63,120,0
5,58,120,240
5,70,120,0
5,62,120,0
5,65,120,0
5,65,111,0
5,62,111,0
5,58,111,0
5,65,120,258
5,62,120,0
5,60,120,0
5,69,120,0
5,65,111,0
5,62,111,0
5,60,111,0
5,69,111,0
5,63,114,20
5,58,114,0
5,55,114,0
5,63,116,82
5,58,116,0
5,55,116,0
5,62,115,10
5,58,115,0
5,53,115,0
5,58,115,0
5,70,115,0
5,62,115,0
5,65,115,0
5,55,115,120
5,58,115,0
5,63,115,0
5,46,117,0
5,53,115,120
5,53,114,120
5,62,114,0
5,58,114,0
5,50,117,52
5,57,115,120
5,65,114,120
5,62,114,0
5,60,114,0
5,69,114,0
5,55,116,292
5,58,116,0
5,63,116,0
5,67,117,240
5,70,109,120
5,75,115,70
5,70,118,90
5,62,115,240
5,58,115,0
5,65,115,0
5,65,108,0
5,74,123,120
5,65,114,96
5,62,114,0
5,58,114,0
5,55,114,0
5,62,116,82
5,58,116,0
5,55,116,0
5,65,120,250
5,62,120,0
5,60,120,0
5,69,120,0
5,65,111,0
5,62,111,0
5,60,111,0
5,69,111,0
5,55,116,260
5,58,116,0
5,63,116,0
5,67,117,240
5,70,109,120
5,75,115,70
5,70,118,90
5,53,116,240
5,58,116,0
5,62,116,0
5,62,117,240
5,65,109,120
5,70,115,70
5,65,118,90
5,48,117,0
5,55,115,120
5,55,114,120
5,63,114,0
5,60,114,0
5,57,116,292
5,60,116,0
5,65,116,0
5,69,117,240
5,72,109,120
5,77,115,70
5,72,118,90
5,58,116,240
5,62,116,0
5,65,116,0
5,62,117,240
5,65,109,120
5,70,115,70
5,65,118,90
5,65,115,240
5,59,115,0
5,67,115,0
5,62,115,0
5,62,108,0
5,71,123,120
5,62,114,96
5,64,114,0
5,60,114,0
5,55,114,0
5,64,116,82
5,60,116,0
5,55,116,0
5,62,120,250
5,64,120,0
5,55,120,0
5,71,120,0
5,64,111,0
5,62,111,0
5,59,111,0
5,67,111,0
5,65,120,258
5,60,120,0
5,57,120,0
5,65,111,0
5,60,111,0
5,57,111,0
5,62,114,20
5,59,114,0
5,55,114,0
5,62,116,82
5,59,116,0
5,55,116,0
5,64,120,250
5,60,120,0
5,55,120,0
5,64,111,0
5,60,111,0
5,55,111,0
5,64,120,260
5,62,120,0
5,59,120,0
5,67,120,0
5,64,111,0
5,62,111,0
5,59,111,0
5,67,111,0
5,53,117,20
5,60,115,120
5,60,114,120
5,65,114,0
5,57,114,0
5,67,120,292
5,59,120,0
5,62,120,0
5,62,111,0
5,59,111,0
5,55,111,0
5,64,115,258
5,60,115,0
5,55,115,0
5,67,108,0
5,76,123,120
5,67,114,96
5,62,120,240
5,76,120,0
5,67,120,0
5,71,120,0
5,64,111,0
5,62,111,0
5,59,111,0
5,67,111,0
5,53,117,18
5,60,115,120
5,60,114,120
5,65,114,0
5,57,114,0
5,62,115,292
5,59,115,0
5,55,115,0
5,55,114,0
5,60,114,0
5,64,114,0
5,65,115,0
5,60,115,0
5,57,115,0
5,65,115,0
5,57,115,0
5,72,115,0
5,55,114,0
5,60,114,0
5,64,114,0
5,65,114,0
5,60,114,0
5,57,114,0
5,55,116,0
5,60,116,0
5,64,116,0
5,64,117,480
5,60,116,0
5,55,116,0
5,64,116,0
5,67,109,120
5,72,115,70
5,67,118,90
5,52,117,0
5,59,115,120
5,64,114,120
5,59,114,0
5,67,114,0
5,62,114,0
5,57,116,292
5,65,116,0
5,69,117,240
5,72,109,120
5,77,115,70
5,72,118,90
5,55,115,240
5,60,115,0
5,64,115,0
5,65,115,0
5,60,115,0
5,57,115,0
5,65,115,0
5,57,115,0
5,72,115,0
5,67,120,240
5,72,120,0
5,60,120,0
5,64,111,16
5,60,111,0
5,55,111,0
5,67,114,18
5,59,114,0
5,62,114,0
5,64,114,0
5,64,116,82
5,62,116,0
5,59,116,0
5,67,116,0
5,57,115,120
5,60,115,0
5,65,115,0
5,72,108,360
5,81,123,120
5,72,114,96
5,48,117,0
5,55,115,120
5,60,114,120
5,64,114,0
5,57,120,292
5,60,120,0
5,64,120,0
5,64,111,42
5,60,111,0
5,57,111,0
5,67,115,120
5,59,115,0
5,62,115,0
5,64,115,0
5,71,108,360
5,79,123,120
5,71,114,96
5,72,120,240
5,57,120,0
5,65,120,0
5,65,111,16
5,60,111,0
5,57,111,0
5,55,117,120
5,60,117,0
5,64,117,0
5,72,112,360
5,67,110,120
5,64,121,120
5,69,116,240
5,60,116,0
5,62,116,0
5,65,116,0
5,65,117,240
5,69,109,120
5,74,115,70
5,69,118,90
5,43,117,0
5,50,115,120
5,67,114,120
5,59,114,0
5,62,114,0
5,65,114,0
5,55,115,292
5,60,115,0
5,64,115,0
5,65,115,240
5,60,115,0
5,57,115,0
5,55,115,240
5,60,115,0
5,64,115,0
5,67,108,360
5,76,123,120
5,67,114,96
5,55,117,240
5,60,117,0
5,64,117,0
5,72,112,360
5,67,110,120
5,64,121,120
5,67,120,240
5,59,120,0
5,62,120,0
5,64,120,0
5,64,111,42
5,62,111,0
5,59,111,0
5,67,111,0
5,57,117,120
5,60,117,0
5,65,117,0
5,77,112,360
5,72,110,120
5,69,121,120
5,55,114,0
5,60,114,0
5,64,114,0
5,55,114,0
5,60,114,0
5,64,114,0
5,64,116,82
5,60,116,0
5,55,116,0
5,67,120,120
5,59,120,0
5,62,120,0
5,64,120,0
5,64,111,42
5,62,111,0
5,59,111,0
5,67,111,0
5,65,124,34
5,69,124,2
5,60,115,6
5,84,127,594
5,81,117,14
5,69,120,4
5,60,95,8
5,65,104,0
5,84,126,16
6,46,127,960
6,65,127,0
6,53,127,120
6,58,127,120
6,62,127,0
6,53,127,0
6,58,127,120
6,62,127,0
6,58,127,0
6,65,127,0
6,50,127,0
6,57,127,120
6,60,127,0
6,65,127,0
6,50,127,0
6,57,127,120
6,60,127,0
6,57,127,0
6,67,127,0
6,51,127,0
6,58,127,120
6,63,127,0
6,67,127,0
6,51,127,0
6,58,127,120
6,63,127,0
6,58,127,0
6,53,127,0
6,69,127,120
6,60,127,120
6,65,127,120
6,48,127,0
6,67,127,0
6,55,127,120
6,60,127,120
6,63,127,120
6,46,127,0
6,62,127,120
6,53,127,120
6,58,127,120
6,51,127,0
6,67,127,120
6,58,127,120
6,63,127,120
6,46,127,0
6,62,127,120
6,53,127,120
6,58,127,120
6,50,127,120
6,62,127,14
6,53,127,14
6,69,127,0
6,50,127,0
6,57,127,120
6,60,127,120
6,65,127,0
6,57,127,0
6,60,127,0
6,65,127,0
6,57,127,0
6,51,127,0
6,67,127,0
6,58,127,120
6,63,127,120
6,70,127,0
6,51,127,0
6,58,127,120
6,63,127,120
6,58,127,0
6,69,127,0
6,53,127,0
6,60,127,120
6,65,127,0
6,69,127,0
6,53,127,0
6,60,127,120
6,65,127,0
6,60,127,0
6,65,127,0
6,46,127,0
6,53,127,120
6,58,127,120
6,62,127,0
6,53,127,0
6,58,127,0
6,62,127,0
6,53,127,0
6,50,127,0
6,69,127,0
6,57,127,120
6,62,127,120
6,65,127,0
6,57,127,0
6,62,127,120
6,65,127,0
6,62,127,0
6,51,127,0
6,67,127,120
6,63,127,0
6,67,127,0
6,58,127,0
6,67,127,0
6,63,127,120
6,67,127,0
6,53,127,0
6,69,127,120
6,60,127,120
6,65,127,120
6,46,127,0
6,62,127,120
6,53,127,120
6,58,127,120
6,51,127,0
6,70,127,0
6,58,127,120
6,63,127,120
6,67,127,120
6,46,127,0
6,62,127,120
6,53,127,120
6,58,127,120
6,51,127,0
6,75,127,0
6,63,127,120
6,67,127,0
6,58,127,40
6,46,127,0
6,62,127,0
6,53,127,120
6,58,127,120
6,65,127,0
6,46,127,0
6,53,127,120
6,58,127,120
6,53,127,0
6,50,127,0
6,65,127,120
6,57,127,120
6,62,127,120
6,53,127,120
6,65,127,14
6,57,127,14
6,62,127,120
6,51,127,0
6,70,127,0
6,58,127,120
6,63,127,120
6,67,127,0
6,58,127,0
6,63,127,120
6,67,127,0
6,63,127,0
6,53,127,0
6,69,127,0
6,60,127,120
6,65,127,120
6,72,127,0
6,53,127,0
6,60,127,120
6,65,127,120
6,60,127,0
6,46,127,0
6,62,127,120
6,58,127,0
6,62,127,0
6,53,127,0
6,62,127,0
6,58,127,120
6,62,127,0
6,50,127,0
6,65,127,0
6,57,127,120
6,60,127,120
6,69,127,0
6,50,127,0
6,57,127,120
6,60,127,120
6,57,127,0
6,51,127,0
6,67,127,120
6,58,127,120
6,63,127,120
6,55,127,120
6,67,127,14
6,58,127,14
6,63,127,120
6,53,127,0
6,69,127,120
6,60,127,120
6,65,127,120
6,46,127,0
6,62,127,120
6,53,127,120
6,58,127,120
6,51,127,0
6,67,127,120
6,58,127,120
6,63,127,120
6,46,127,0
6,62,127,0
6,53,127,120
6,58,127,120
6,65,127,12
6,51,127,0
6,70,127,0
6,58,127,120
6,63,127,120
6,67,127,120
6,46,127,0
6,62,127,0
6,53,127,120
6,58,127,120
6,65,127,0
6,46,127,0
6,53,127,120
6,58,127,120
6,53,127,0
6,50,127,0
6,65,127,120
6,62,127,0
6,65,127,0
6,57,127,0
6,65,127,0
6,60,127,120
6,65,127,0
6,51,127,0
6,67,127,120
6,58,127,120
6,63,127,120
6,55,127,120
6,67,127,14
6,58,127,14
6,63,127,120
6,46,127,0
6,62,127,120
6,53,127,120
6,58,127,120
6,51,127,0
6,67,127,120
6,58,127,120
6,63,127,120
6,46,127,0
6,62,127,0
6,53,127,120
6,58,127,120
6,65,127,0
6,46,127,0
6,53,127,120
6,58,127,120
6,53,127,0
6,65,127,0
6,50,127,0
6,57,127,120
6,60,127,0
6,65,127,0
6,50,127,0
6,57,127,120
6,60,127,0
6,57,127,0
6,67,127,0
6,51,127,0
6,58,127,120
6,63,127,0
6,67,127,0
6,51,127,0
6,58,127,120
6,63,127,0
6,58,127,0
6,46,127,0
6,65,127,0
6,53,127,120
6,58,127,120
6,62,127,0
6,53,127,0
6,58,127,120
6,62,127,0
6,58,127,0
6,58,127,0
6,43,127,0
6,50,127,120
6,55,127,0
6,58,127,0
6,43,127,0
6,50,127,120
6,55,127,0
6,50,127,0
6,50,127,0
6,65,127,120
6,57,127,120
6,62,127,120
6,53,127,120
6,65,127,14
6,57,127,14
6,62,127,120
6,51,127,0
6,67,127,120
6,58,127,120
6,63,127,120
6,55,127,0
6,67,127,120
6,58,127,46
6,63,127,28
6,65,127,0
6,46,127,0
6,53,127,120
6,58,127,120
6,62,127,0
6,53,127,0
6,58,127,0
6,62,127,0
6,53,127,0
6,48,127,0
6,63,127,120
6,55,127,120
6,60,127,120
6,51,127,120
6,63,127,14
6,55,127,14
6,60,127,120
6,69,127,0
6,53,127,0
6,60,127,120
6,65,127,0
6,69,127,0
6,53,127,0
6,60,127,120
6,65,127,0
