track,note,velocity,time
0,33,56,1311
0,45,45,62
0,61,60,29
0,52,54,1
0,57,69,2
0,33,0,19
0,52,56,33
0,45,0,19
0,45,43,49
0,61,0,67
0,52,0,13
0,57,0,3
0,59,56,1
0,52,0,65
0,61,72,3
0,45,0,2
0,59,0,15
0,61,0,31
0,59,71,1
0,62,69,3
0,59,0,13
0,62,0,3
0,45,57,3
0,53,48,3
0,57,54,69
0,69,62,75
0,65,61,4
0,62,58,3
0,45,0,13
0,53,0,4
0,57,60,52
0,57,0,74
0,53,53,1
0,69,0,24
0,65,0,1
0,62,0,35
0,57,60,8
0,62,47,79
0,57,0,63
0,53,0,1
0,40,38,5
0,57,0,3
0,62,0,1
0,33,56,63
0,40,0,4
0,52,58,41
0,57,61,12
0,61,57,64
0,33,0,9
0,52,54,67
0,52,0,34
0,57,0,27
0,61,0,7
0,52,0,2
0,61,58,75
0,61,0,9
0,62,63,69
0,59,27,1
0,45,58,15
0,62,0,59
0,53,48,6
0,59,0,15
0,59,45,19
0,62,61,11
0,65,62,20
0,69,53,23
0,45,0,83
0,53,0,47
0,59,0,10
0,62,0,1
0,65,0,14
0,53,30,7
0,69,0,51
0,53,0,14
0,57,86,267
0,59,67,64
0,57,0,6
0,59,0,14
0,33,56,52
0,59,66,5
0,61,58,65
0,33,0,14
0,59,0,2
0,61,62,35
0,61,0,27
0,61,58,47
0,57,69,11
0,52,42,6
0,61,0,45
0,45,47,10
0,61,0,71
0,52,35,3
0,57,0,68
0,57,49,7
0,52,0,8
0,52,43,60
0,45,46,0
0,45,0,12
0,33,54,57
0,52,0,7
0,57,0,55
0,52,30,8
0,52,0,55
0,57,47,20
0,45,0,73
0,52,30,0
0,33,0,65
0,45,42,10
0,52,50,66
0,52,0,2
0,57,0,15
0,59,53,62
0,52,0,3
0,45,0,40
0,61,79,19
0,52,0,14
0,59,0,14
0,61,0,15
0,33,76,11
0,61,75,6
0,45,56,9
0,33,0,45
0,62,69,12
0,61,0,37
0,62,66,35
0,45,0,27
0,62,63,43
0,59,71,1
0,62,0,21
0,45,47,44
0,54,43,70
0,62,0,4
0,59,45,77
0,62,0,6
0,45,54,60
0,59,0,5
0,33,63,17
0,45,0,20
0,54,0,22
0,54,60,70
0,59,0,3
0,59,49,2
0,45,62,59
0,45,0,19
0,33,0,6
0,45,58,43
0,54,0,15
0,54,72,52
0,59,0,43
0,45,0,15
0,59,66,11
0,45,0,24
0,54,0,23
0,59,0,13
0,45,64,3
0,61,81,5
0,45,0,27
0,35,67,9
0,61,0,1
0,47,65,17
0,61,87,1
0,54,54,59
0,35,0,2
0,62,67,9
0,47,0,18
0,61,0,6
0,62,67,38
0,54,41,4
0,54,0,11
0,62,0,8
0,54,87,46
0,62,82,1
0,62,0,5
0,47,48,57
0,59,42,82
0,54,0,9
0,54,49,58
0,54,0,8
0,59,44,67
0,62,0,22
0,35,58,48
0,47,0,67
0,57,49,5
0,54,52,66
0,59,0,15
0,47,51,50
0,54,0,12
0,59,0,54
0,54,52,4
0,35,0,44
0,57,0,12
0,54,0,16
0,57,49,3
0,47,0,54
0,54,0,0
0,47,50,14
0,59,51,6
0,57,0,33
0,47,0,1
0,59,0,33
0,45,54,5
0,62,58,1
0,45,0,39
0,33,58,3
0,61,72,3
0,57,74,1
0,64,57,2
0,62,0,18
0,33,0,6
0,64,69,49
0,61,0,10
0,57,0,7
0,57,44,49
0,64,84,0
0,61,79,1
0,64,0,5
0,64,0,6
0,45,54,51
0,57,0,2
0,56,47,80
0,64,0,21
0,61,0,43
0,45,37,13
0,45,0,19
0,54,48,46
0,45,31,3
0,56,0,3
0,33,57,60
0,45,0,6
0,54,0,4
0,45,43,56
0,45,0,78
0,52,37,8
0,33,0,40
0,45,47,21
0,45,0,8
0,52,0,8
0,45,57,58
0,57,71,66
0,45,0,15
0,45,0,43
0,62,82,12
0,45,70,1
0,57,0,9
0,62,0,14
0,45,0,23
0,64,81,21
0,45,55,7
0,64,0,29
0,45,0,15
0,38,62,14
0,64,84,1
0,38,0,16
0,66,62,14
0,64,0,35
0,45,65,28
0,66,59,4
0,66,0,8
0,45,0,26
0,66,0,20
0,50,60,7
0,66,71,3
0,57,67,1
0,62,62,2
0,50,0,6
0,66,0,65
0,57,0,67
0,57,56,4
0,62,51,69
0,62,0,12
0,61,60,50
0,45,50,5
0,38,58,67
0,57,0,1
0,62,0,30
0,45,59,2
0,61,0,26
0,45,0,26
0,50,60,12
0,38,0,9
0,57,67,57
0,54,60,66
0,45,0,1
0,50,0,27
0,57,0,34
0,57,66,8
0,54,0,34
0,57,0,14
0,62,91,19
0,62,0,41
0,64,87,26
0,64,0,30
0,35,69,8
0,64,87,4
0,35,0,13
0,64,0,3
0,47,52,1
0,66,74,7
0,47,0,6
0,66,0,36
0,66,69,29
0,66,0,34
0,47,61,27
0,66,78,1
0,62,74,1
0,59,67,0
0,54,62,74
0,47,0,9
0,59,24,60
0,66,0,17
0,62,0,17
0,59,0,9
0,59,46,26
0,54,0,1
0,47,49,70
0,35,53,68
0,61,56,7
0,59,0,1
0,59,0,2
0,47,0,62
0,47,32,2
0,35,0,12
0,59,38,61
0,61,0,1
0,62,62,67
0,47,54,3
0,47,0,16
0,54,54,53
0,59,61,68
0,59,0,7
0,62,0,24
0,57,77,44
0,64,82,0
0,47,0,11
0,54,0,4
0,59,0,8
0,57,0,10
0,64,0,13
0,66,91,21
0,66,0,38
0,47,51,12
0,66,82,8
0,40,64,11
0,47,0,3
0,66,0,42
0,67,64,15
0,59,35,2
0,40,0,14
0,67,0,10
0,64,69,36
0,67,63,1
0,59,56,0
0,59,0,13
0,64,0,5
0,67,0,4
0,47,59,42
0,64,92,5
0,59,85,1
0,67,86,1
0,59,0,65
0,52,59,8
0,47,0,1
0,64,0,7
0,59,0,13
0,66,70,49
0,64,59,68
0,52,59,1
0,67,0,8
0,52,0,8
0,59,5,47
0,47,51,6
0,40,46,36
0,66,0,4
0,64,0,20
0,47,43,25
0,52,0,27
0,59,0,2
0,47,0,24
0,62,48,16
0,59,29,0
0,52,54,70
0,40,0,40
0,55,55,30
0,47,0,38
0,62,0,18
0,59,0,5
0,59,57,4
0,52,0,70
0,62,58,6
0,55,0,37
0,55,60,27
0,59,0,11
0,66,71,58
0,45,49,2
0,67,59,1
0,62,0,11
0,55,0,13
0,67,61,45
0,66,0,17
0,45,0,11
0,67,0,6
0,52,58,31
0,61,77,1
0,67,74,1
0,55,49,67
0,67,0,78
0,57,40,3
0,52,0,55
0,61,50,18
0,61,0,63
0,55,58,2
0,45,61,76
0,67,0,8
0,55,0,48
0,57,59,0
0,61,60,72
0,57,0,7
0,61,0,7
0,55,0,2
0,45,0,9
0,57,0,40
0,52,60,8
0,61,0,36
0,52,0,10
0,47,64,21
0,62,64,1
0,59,56,2
0,55,51,7
0,47,0,30
0,62,0,2
0,59,0,5
0,55,0,9
0,61,58,19
0,49,57,5
0,64,55,3
0,61,0,17
0,49,0,26
0,64,0,3
0,45,54,31
0,45,0,58
0,66,61,5
0,38,51,3
0,62,63,1
0,45,62,13
0,66,0,53
0,38,0,9
0,50,63,9
0,62,0,19
0,45,0,47
0,57,72,3
0,50,0,5
0,66,81,62
0,54,81,3
0,62,78,2
0,57,0,11
0,66,0,11
0,57,82,43
0,54,0,33
0,62,0,14
0,67,82,21
0,57,0,35
0,67,0,13
0,61,86,16
0,57,51,3
0,69,84,1
0,49,60,2
0,61,0,21
0,37,77,30
0,57,0,26
0,49,51,22
0,69,0,5
0,49,0,18
0,37,0,42
0,57,77,8
0,61,72,62
0,49,0,15
0,49,49,6
0,57,0,4
0,61,0,4
0,54,56,53
0,49,0,10
0,54,0,7
0,71,69,46
0,71,0,24
0,47,51,41
0,47,0,20
0,47,54,45
0,59,67,1
0,66,65,0
0,69,63,3
0,62,66,1
0,35,62,59
0,47,0,20
0,59,0,36
0,66,0,3
0,68,79,11
0,69,0,15
0,62,0,5
0,35,0,6
0,47,55,40
0,68,0,22
0,47,61,49
0,66,77,1
0,47,0,10
0,35,63,21
0,47,0,25
0,66,0,19
0,64,71,1
0,35,0,34
0,47,48,31
0,64,0,18
0,47,57,54
0,61,66,1
0,64,65,1
0,47,0,8
0,47,0,18
0,33,54,42
0,45,50,47
0,61,0,78
0,57,54,4
0,64,0,20
0,45,46,47
0,33,0,18
0,45,0,22
0,62,60,32
0,35,55,2
0,47,49,0
0,57,0,6
0,45,0,12
0,62,0,7
0,35,0,7
0,47,0,2
0,57,55,21
0,57,0,23
0,49,51,27
0,37,49,2
0,61,70,2
0,64,73,1
0,49,0,20
0,37,0,5
0,61,0,0
0,64,0,1
0,45,66,40
0,45,0,14
0,62,79,5
0,57,82,1
0,66,75,0
0,38,62,1
0,62,0,7
0,57,0,26
0,66,0,1
0,66,75,24
0,62,80,1
0,57,81,3
0,45,68,1
0,38,0,7
0,66,0,11
0,62,0,5
0,57,0,19
0,45,0,16
0,50,75,6
0,50,0,18
0,62,82,50
0,66,79,1
0,57,64,3
0,62,0,8
0,66,0,7
0,57,0,10
0,54,61,38
0,57,69,70
0,54,0,9
0,57,0,19
0,71,74,47
0,71,0,26
0,69,88,41
0,49,57,3
0,37,51,37
0,57,65,45
0,61,57,65
0,69,0,19
0,49,0,3
0,64,54,48
0,37,0,22
0,57,0,103
0,57,80,9
0,61,0,3
0,61,69,63
0,64,0,19
0,57,0,9
0,61,0,5
0,43,65,35
0,43,0,14
0,48,79,9
0,36,76,1
0,60,83,0
0,55,76,2
0,67,77,0
0,48,0,19
0,36,0,0
0,60,0,11
0,55,56,37
0,55,0,31
0,67,0,24
0,66,74,18
0,55,0,10
0,66,0,54
0,64,67,3
0,64,0,150
0,62,69,0
0,62,0,53
0,64,71,20
0,64,0,19
0,64,54,52
0,40,58,132
0,47,46,8
0,52,53,64
0,64,0,11
0,40,0,5
0,47,0,4
0,56,60,45
0,59,26,83
0,62,58,62
0,47,54,66
0,40,46,68
0,52,0,5
0,47,50,35
0,52,36,77
0,56,0,4
0,59,0,56
0,56,44,5
0,62,0,1
0,47,0,62
0,59,43,6
0,40,0,6
0,47,0,41
0,62,66,21
0,52,0,8
0,56,0,9
0,52,49,51
0,59,0,60
0,64,84,9
0,62,0,12
0,52,0,1
0,64,0,6
0,66,69,9
0,38,63,2
0,62,69,0
0,66,0,13
0,45,63,4
0,38,0,1
0,62,0,9
0,45,0,3
0,66,75,61
0,62,74,2
0,66,0,27
0,62,0,14
0,62,82,22
0,54,75,1
0,69,91,1
0,57,66,71
0,62,0,27
0,54,0,12
0,69,0,6
0,57,0,7
0,71,94,15
0,71,0,37
0,47,58,29
0,47,0,32
0,64,80,29
0,68,78,0
0,59,65,2
0,47,64,6
0,64,0,45
0,40,60,12
0,47,62,62
0,68,0,33
0,59,0,22
0,52,69,14
0,47,0,9
0,40,0,1
0,59,71,61
0,56,67,63
0,47,0,30
0,52,0,4
0,59,77,38
0,59,0,6
0,56,0,53
0,64,77,8
0,59,0,10
0,64,0,21
0,49,61,34
0,49,0,64
0,68,86,4
0,73,88,1
0,37,71,1
0,64,82,1
0,68,0,26
0,64,67,10
0,49,61,5
0,73,0,6
0,37,0,5
0,64,0,5
0,64,0,31
0,49,0,19
0,71,69,1
0,71,0,63
0,69,83,6
0,49,71,0
0,69,0,63
0,56,59,6
0,49,0,41
0,68,80,26
0,56,0,16
0,56,68,50
0,68,0,19
0,56,0,7
0,61,84,47
0,69,83,2
0,57,82,2
0,54,72,30
0,42,68,1
0,61,0,17
0,57,66,43
0,69,0,1
0,61,67,68
0,66,61,63
0,57,0,13
0,54,0,76
0,42,0,12
0,57,0,19
0,57,82,16
0,61,79,63
0,52,59,2
0,61,0,2
0,40,48,0
0,66,0,8
0,57,0,2
0,61,0,3
0,52,0,3
0,40,0,5
0,45,65,44
0,45,0,51
0,38,67,18
0,50,73,0
0,66,81,1
0,73,81,3
0,62,67,0
0,38,0,60
0,71,58,8
0,50,0,44
0,69,57,24
0,66,0,20
0,73,0,1
0,62,0,4
0,62,74,37
0,69,82,2
0,68,59,3
0,71,0,8
0,69,0,1
0,50,65,47
0,62,0,10
0,69,0,15
0,68,0,26
0,50,0,21
0,62,80,1
0,69,78,69
0,68,41,3
0,62,0,9
0,69,0,4
0,68,0,9
0,40,74,36
0,52,52,45
0,62,66,9
0,66,72,10
0,73,82,12
0,40,0,5
0,62,36,16
0,52,0,10
0,62,0,34
0,71,62,17
0,66,0,18
0,62,52,48
0,73,0,1
0,62,0,1
0,52,39,66
0,69,57,7
0,71,0,59
0,68,66,6
0,62,0,28
0,52,0,19
0,69,0,20
0,52,50,9
0,68,0,13
0,52,0,14
0,69,77,41
0,52,48,1
0,45,50,31
0,69,0,23
0,52,45,24
0,57,49,68
0,61,56,68
0,52,0,9
0,45,0,22
0,52,39,43
0,52,0,60
0,59,43,18
0,57,0,46
0,61,51,15
0,61,0,16
0,52,0,56
0,45,49,3
0,59,0,26
0,61,0,3
0,62,63,15
0,53,63,2
0,45,0,14
0,59,48,68
0,62,54,15
0,65,62,13
0,69,56,11
0,62,0,21
0,53,42,54
0,53,0,21
0,59,0,117
0,59,36,7
0,62,0,53
0,65,0,5
0,69,0,14
0,53,43,2
0,53,0,47
0,52,40,23
0,59,0,21
0,45,43,52
0,53,0,5
0,52,0,36
0,52,54,9
0,57,60,68
0,61,50,63
0,45,0,5
0,52,0,28
0,57,55,45
0,52,42,10
0,57,0,65
0,59,42,6
0,61,0,16
0,57,0,41
0,61,59,7
0,52,0,13
0,59,0,12
0,45,37,49
0,61,0,15
0,59,50,10
0,62,60,3
0,53,51,1
0,45,0,5
0,59,0,18
0,62,0,5
0,59,47,12
0,69,31,79
0,53,0,3
0,59,0,57
0,59,24,22
0,69,0,81
0,62,25,6
0,59,0,82
0,59,39,13
0,62,0,12
0,59,0,11
0,52,39,67
0,69,58,69
0,71,59,76
0,52,0,29
0,69,0,6
0,45,48,29
0,71,60,7
0,71,0,1
0,52,51,15
0,73,59,1
0,45,0,7
0,71,0,20
0,52,0,14
0,73,0,10
0,57,62,9
0,73,52,5
0,57,0,4
0,73,0,30
0,61,49,32
0,73,65,4
0,61,0,53
0,64,54,13
0,73,0,40
0,64,0,17
0,61,28,15
0,61,0,36
0,73,38,44
0,64,21,4
0,69,24,4
0,45,48,144
0,52,51,69
0,73,0,37
0,64,0,5
0,69,0,14
0,57,54,17
0,45,0,24
0,64,46,50
0,52,0,51
0,61,41,15
0,64,51,75
0,57,0,3
0,64,0,28
0,61,60,41
0,61,0,13
0,64,0,18
0,61,0,8
0,73,77,27
0,73,0,44
0,45,67,8
0,73,76,1
0,45,0,16
0,74,65,13
0,73,0,11
0,74,0,18
0,74,53,43
0,66,53,1
0,71,56,8
0,74,0,18
0,66,0,0
0,71,0,5
0,54,72,33
0,74,86,3
0,66,81,1
0,71,68,1
0,59,49,68
0,54,0,53
0,64,50,31
0,74,0,7
0,66,0,18
0,71,0,6
0,66,18,48
0,52,34,71
0,59,0,39
0,45,62,33
0,64,0,8
0,66,0,14
0,66,33,41
0,54,52,72
0,59,37,72
0,52,0,48
0,62,51,22
0,45,0,42
0,66,0,18
0,66,63,9
0,54,0,6
0,59,0,4
0,71,55,66
0,62,0,19
0,66,0,36
0,54,57,3
0,71,0,56
0,73,83,13
0,47,63,0
0,66,65,1
0,54,0,6
0,54,72,17
0,73,0,3
0,74,66,5
0,47,0,27
0,66,0,11
0,54,0,4
0,57,67,17
0,74,0,1
0,74,66,3
0,57,0,4
0,74,0,26
0,74,86,33
0,66,84,0
0,54,79,1
0,71,77,2
0,59,54,75
0,74,0,27
0,66,0,28
0,62,65,7
0,54,0,23
0,71,0,10
0,66,63,39
0,59,0,8
0,71,60,59
0,62,0,53
0,47,51,12
0,70,58,8
0,54,63,63
0,66,0,30
0,71,0,12
0,47,0,8
0,70,0,5
0,69,49,25
0,54,0,88
0,68,50,52
0,40,49,68
0,69,0,35
