track,note,velocity,time
1,67,101,6
1,72,88,18
1,74,96,16
1,74,96,90
1,76,94,32
1,76,78,32
1,74,79,42
1,76,82,40
1,74,88,186
1,76,49,232
1,74,74,52
1,72,69,64
1,67,93,32
1,72,91,22
1,74,96,10
1,72,89,16
1,76,88,20
1,77,82,10
1,77,84,18
1,76,81,0
1,74,60,16
1,76,68,66
1,74,78,58
1,77,98,6
1,77,82,6
1,74,91,86
1,74,94,80
1,74,88,14
1,72,84,6
1,74,88,22
1,76,81,30
1,79,93,8
1,77,93,0
1,69,94,26
1,69,89,32
1,67,86,22
1,71,99,10
1,72,89,20
1,74,89,20
1,67,86,14
1,74,82,8
1,75,88,62
1,76,88,8
1,74,66,0
1,76,72,0
1,74,77,52
1,72,82,42
1,67,103,10
1,72,91,36
1,76,101,4
1,76,101,14
1,76,94,88
1,76,89,14
1,74,84,52
1,76,96,76
1,74,89,8
1,76,58,234
1,74,76,48
1,72,76,76
1,67,99,18
1,72,94,24
1,76,98,14
1,72,91,70
1,76,84,40
1,79,93,88
1,84,84,92
1,79,69,70
1,84,49,22
1,79,60,48
1,84,54,16
1,79,51,50
1,84,44,28
1,79,63,32
1,84,58,0
1,77,88,22
1,74,82,50
1,76,91,96
1,74,86,188
1,69,77,580
1,72,65,4
1,71,71,8
1,67,91,82
1,77,94,8
1,77,94,16
1,76,89,16
1,76,91,6
1,74,86,34
1,72,77,56
1,74,88,32
1,76,86,52
1,77,89,154
1,69,77,222
1,69,79,4
1,67,81,88
1,71,89,84
1,72,81,40
1,74,82,26
1,67,86,64
1,76,93,52
1,79,81,14
1,74,91,40
1,72,79,0
1,67,84,16
1,72,86,106
1,76,93,16
1,76,84,76
1,76,91,78
1,76,81,42
1,74,79,46
1,72,72,60
1,67,88,36
1,72,93,48
1,76,99,10
1,72,91,72
1,76,93,52
1,79,89,62
1,77,91,60
1,79,66,6
1,77,66,70
1,76,77,0
1,74,79,34
1,67,82,68
1,77,96,8
1,77,89,14
1,76,94,12
1,76,93,2
1,74,72,0
1,76,54,66
1,74,82,56
1,72,74,56
1,74,88,40
1,76,91,58
1,79,98,16
1,77,86,8
1,69,91,84
1,69,93,8
1,67,88,160
1,71,89,56
1,72,84,28
1,74,84,26
1,76,93,4
1,74,65,268
1,76,66,66
1,74,79,54
1,72,74,56
1,79,93,706
1,74,91,128
1,74,86,176
2,62,108,776
2,62,103,146
2,62,101,170
2,67,99,90
2,67,99,148
2,60,101,2
2,62,85,16
2,62,105,26
2,67,94,2
2,64,91,124
2,67,105,6
2,60,101,2
2,62,87,10
2,67,87,10
2,60,91,4
2,72,53,376
2,79,72,20
2,74,78,34
2,72,88,12
2,67,82,76
2,65,48,334
2,72,69,16
2,67,69,0
2,65,63,52
2,62,82,38
2,64,94,6
2,60,73,928
2,64,73,4
2,65,94,204
2,60,93,2
2,60,31,60
2,64,65,16
2,62,82,36
2,60,66,150
2,67,89,2172
2,60,82,2
2,67,82,122
2,62,78,6
2,62,87,74
2,67,77,4
2,64,72,52
2,60,63,1456
2,62,85,72
2,67,81,2
2,64,63,4
2,60,81,28
2,67,79,2
2,62,74,6
2,64,70,94
2,62,75,72
2,67,70,10
2,74,81,806
2,69,81,6
2,74,78,94
2,69,82,4
2,71,65,0
2,72,82,452
2,65,82,8
2,67,73,62
2,65,73,106
2,67,56,46
2,60,42,8
2,65,81,512
2,62,81,4
2,64,63,8
2,60,43,14
2,64,79,176
2,62,74,112
2,60,68,164
2,62,71,728
2,70,101,4
2,65,73,4
2,69,71,4
2,65,77,124
2,69,79,6
2,60,54,6
2,62,79,184
2,67,71,6
2,64,63,8
2,62,54,100
2,67,69,162
2,67,70,150
2,60,77,4
2,60,72,100
2,67,72,2
2,62,71,80
2,60,67,16
2,67,62,6
2,72,46,782
2,79,66,8
2,74,72,22
2,72,78,30
2,67,57,52
2,65,55,672
2,72,58,14
2,67,69,22
2,65,81,48
2,60,77,42
2,62,74,76
2,72,67,8
2,67,45,26
2,72,68,90
2,62,78,4
2,67,72,8
2,64,63,18
2,65,77,310
2,74,85,140
2,65,64,4
2,74,61,14
2,76,73,80
2,67,61,2
2,65,79,100
2,74,71,144
2,64,69,72
2,72,60,30
2,60,48,30
2,60,48,258
2,69,71,32
2,65,72,4
2,62,71,4
2,62,64,150
2,67,57,4
2,64,69,18
2,65,82,336
2,60,84,6
2,64,70,330
2,67,87,610
2,62,89,4
2,64,61,62
2,67,78,102
2,60,81,4
2,62,65,102
2,67,73,110
2,62,84,6
2,64,42,92
2,67,69,110
2,62,71,4
2,60,79,400
2,67,84,6
2,61,78,6
2,62,61,94
2,69,81,194
2,65,78,4
2,60,63,4
2,67,77,152
2,62,77,6
2,60,63,2
2,64,69,76
2,60,35,282
2,72,78,72
2,65,77,2
2,64,73,68
2,72,73,126
2,64,77,4
2,70,85,156
2,62,62,8
2,65,64,184
2,69,54,4
2,60,49,6
2,62,71,426
2,70,101,6
2,65,70,4
2,60,62,8
2,69,60,14
2,60,69,192
2,65,66,8
2,60,58,190
2,65,72,4
2,67,72,194
2,62,68,4
2,67,77,174
2,64,74,4
2,67,74,100
2,64,77,2
2,65,65,84
2,67,78,124
2,62,77,12
2,64,61,46
2,67,53,94
2,62,71,2
2,67,64,82
2,60,55,2
2,93,108,178
2,91,106,240
2,88,98,124
2,84,94,106
2,60,82,0
2,64,71,8
2,81,68,4
2,79,101,40
2,77,82,30
2,74,89,16
2,75,69,84
2,76,75,10
2,60,61,112
2,64,65,8
2,76,108,258
2,79,98,76
2,74,77,24
2,75,75,58
2,76,71,16
2,79,79,14
2,74,81,50
2,75,85,62
2,76,71,14
2,60,68,172
2,64,48,12
2,74,105,120
2,75,85,24
2,74,71,68
2,72,65,6
2,74,105,38
2,72,94,88
2,67,82,106
2,72,94,4
2,69,77,8
2,67,85,42
2,72,81,4
2,60,70,58
2,67,74,46
2,65,73,12
2,67,60,56
2,62,81,8
2,64,65,86
2,60,50,280
2,67,98,340
2,79,108,48
2,72,105,4
2,79,106,194
2,74,108,4
2,60,52,182
2,79,81,10
2,64,58,4
2,74,82,6
2,76,85,28
2,76,106,52
2,79,108,6
2,76,105,68
2,79,106,2
2,74,75,148
2,60,52,12
2,64,61,6
2,76,85,22
2,79,79,4
2,76,105,58
2,79,103,4
2,79,108,76
2,76,108,4
2,74,60,30
2,76,81,28
2,79,77,4
2,60,63,6
2,64,61,10
2,76,106,68
2,79,105,2
2,76,106,84
2,79,105,2
2,79,87,32
2,77,101,8
2,76,93,20
2,79,74,4
2,74,103,132
2,72,78,10
2,62,55,34
2,73,96,4
2,79,77,6
2,74,88,8
2,62,61,148
2,67,69,28
2,72,84,38
2,79,85,4
2,79,85,68
2,71,85,4
2,62,65,228
2,89,108,338
2,88,94,8
2,88,87,118
2,84,73,84
2,79,79,20
2,77,103,56
2,72,77,42
2,60,57,30
2,74,79,4
2,64,57,6
2,75,88,56
2,76,75,16
2,81,96,24
2,79,103,44
2,72,67,62
2,74,71,44
2,75,77,64
2,76,71,14
2,81,93,10
2,79,96,120
2,60,66,42
2,72,77,6
2,64,55,10
2,74,71,30
2,75,82,66
2,76,85,10
2,81,73,4
2,64,77,196
2,60,66,8
2,84,99,60
2,86,106,96
2,86,108,236
2,60,61,22
2,87,71,276
2,86,65,66
2,84,73,50
2,86,99,44
2,84,93,94
2,77,88,74
2,82,108,64
2,84,99,6
2,84,71,16
2,81,82,2
2,77,89,36
2,84,67,8
2,72,74,6
2,77,88,92
2,70,101,6
2,60,31,26
2,68,89,60
2,69,53,0
2,60,54,0
2,65,101,144
2,69,85,136
2,62,53,8
2,70,78,46
2,71,58,22
2,79,94,122
2,71,43,36
2,62,61,42
2,72,84,104
2,73,82,62
2,74,89,6
2,83,84,116
2,62,58,28
2,77,82,128
2,78,87,64
2,79,82,10
2,86,81,86
2,89,108,168
2,81,103,0
2,79,74,20
2,88,82,12
2,62,66,42
2,77,82,4
2,86,106,132
2,76,88,72
2,84,82,4
2,86,87,4
2,60,60,10
2,79,94,84
2,84,103,4
2,81,82,8
2,81,99,238
2,84,98,8
2,79,99,94
2,74,94,4
2,72,101,4
2,76,82,30
2,74,72,66
2,72,77,64
2,74,103,60
2,79,101,2
2,79,105,80
2,72,105,2
2,72,106,226
2,67,108,2
2,69,79,6
2,60,56,260
2,60,106,68
2,67,101,4
2,67,96,184
2,62,105,4
2,67,88,206
2,62,91,4
2,60,77,4
2,64,67,88
2,60,82,84
2,65,77,4
2,64,79,72
2,60,63,4
2,64,85,86
2,60,84,4
2,62,81,172
2,60,48,174
2,67,88,640
2,74,101,52
2,79,98,6
2,79,103,150
2,74,105,6
2,76,73,4
2,79,53,40
2,74,93,6
2,72,94,132
2,79,94,6
2,60,55,194
2,65,85,182
2,62,82,8
2,60,65,200
2,64,65,4
2,60,71,108
2,64,74,6
2,65,79,148
2,60,82,4
2,67,78,202
2,60,69,6
2,62,82,4
2,64,65,80
2,60,68,106
2,62,81,4
2,67,77,4
2,67,78,62
2,64,82,4
2,67,73,214
2,62,73,4
2,62,63,118
2,67,88,48
2,79,108,50
2,79,94,56
2,77,108,10
2,79,50,28
2,76,99,2
2,74,101,50
2,79,98,4
2,62,64,176
2,79,99,102
2,62,59,14
2,79,105,158
2,77,108,4
2,62,73,22
2,79,99,184
2,64,73,4
2,74,99,4
2,60,67,4
2,76,71,74
2,74,96,54
2,79,91,6
2,76,70,28
2,64,69,156
2,60,71,6
2,79,96,106
2,74,96,4
2,72,91,70
2,79,88,4
2,60,63,186
2,64,54,8
2,79,91,88
2,74,98,4
2,79,96,162
2,76,98,2
2,79,96,208
2,70,103,4
2,60,39,14
2,77,85,18
2,69,99,10
2,70,77,64
2,62,62,6
2,60,54,18
2,69,74,4
2,74,105,4
2,69,108,8
2,71,79,6
2,69,99,124
2,74,101,6
2,71,74,10
2,69,79,4
2,74,47,24
2,62,61,12
2,67,88,10
2,71,91,102
2,79,96,6
2,72,98,92
2,79,96,4
2,74,82,148
2,62,61,164
2,67,87,16
2,79,98,32
2,74,103,4
2,76,77,92
2,74,94,66
2,79,88,4
2,72,81,172
2,60,57,10
2,64,64,4
2,86,108,206
2,84,105,268
2,84,98,62
2,79,98,4
2,81,77,22
2,79,87,74
2,84,74,6
2,74,96,88
2,79,94,4
2,81,93,2
2,76,71,20
2,74,87,74
2,79,82,6
2,79,94,74
2,72,94,4
2,67,81,98
2,62,70,68
2,65,81,4
2,71,99,4
2,64,91,210
2,60,49,14
2,72,98,4
3,57,108,778
3,59,77,0
3,57,103,140
3,55,103,172
3,43,81,4
3,55,73,100
3,59,94,52
3,50,55,36
3,55,105,224
3,55,96,78
3,52,65,16
3,48,67,4
3,48,69,446
3,55,66,972
3,57,85,192
3,55,63,80
3,43,65,268
3,50,69,2
3,57,85,38
3,53,77,4
3,55,54,84
3,52,55,12
3,48,48,2
3,55,79,2032
3,55,75,152
3,52,58,216
3,48,56,22
3,55,64,48
3,52,58,8
3,55,59,214
3,59,49,992
3,55,44,4
3,52,52,926
3,55,55,4
3,57,77,524
3,52,43,84
3,55,43,16
3,48,34,10
3,52,50,20
3,55,63,138
3,58,81,116
3,53,51,10
3,48,37,10
3,57,62,142
3,53,57,2
3,58,63,756
3,57,48,10
3,57,43,138
3,55,48,216
3,43,58,722
3,55,58,20
3,59,69,150
3,50,54,8
3,55,55,20
3,48,59,20
3,52,46,8
3,48,60,1466
3,55,58,10
3,53,57,670
3,52,49,178
3,55,69,462
3,57,81,92
3,55,63,96
3,55,63,588
3,55,65,218
3,55,62,266
3,50,54,360
3,43,56,18
3,57,67,846
3,58,79,124
3,59,69,24
3,57,37,414
3,55,60,1042
3,52,38,4
3,55,54,214
3,52,50,8
3,58,68,184
3,52,60,8
3,57,54,192
3,53,48,8
3,53,32,276
3,57,60,6
3,57,60,216
3,53,46,6
3,57,71,196
3,59,66,0
3,55,64,282
3,55,60,114
3,55,49,60
3,55,43,56
3,55,60,48
3,52,55,126
3,55,51,2
3,48,47,10
3,55,82,956
3,55,65,736
3,55,70,170
3,52,65,320
3,55,60,10
3,55,44,344
3,55,60,212
3,55,66,262
3,55,52,206
3,59,58,8
3,59,61,154
3,55,55,4
3,55,65,220
3,59,69,12
3,59,47,746
3,55,37,14
3,59,65,256
3,55,64,12
3,55,66,224
3,58,88,196
3,55,74,10
3,53,65,664
3,57,68,8
3,53,48,230
3,57,50,8
3,53,65,306
3,57,71,2
3,53,50,196
3,59,52,4
3,59,66,112
3,53,61,12
3,59,65,162
3,53,65,10
3,53,72,248
3,59,70,4
3,55,66,62
3,52,63,16
3,52,74,628
3,55,74,8
3,55,81,444
3,48,69,14
3,52,64,272
3,55,58,6
3,48,61,4
3,55,68,222
3,48,70,8
3,52,74,6
3,57,65,72
3,55,67,86
3,53,52,782
3,55,79,94
3,57,82,160
3,53,71,6
3,55,71,174
3,52,48,8
3,55,67,218
3,52,65,4
3,55,71,290
3,52,64,4
3,57,89,46
3,55,63,200
3,52,60,12
3,48,45,4
3,55,72,48
3,52,55,12
3,48,48,4
3,57,70,162
3,53,64,14
3,48,48,14
3,55,54,226
3,48,59,12
3,55,65,164
3,48,58,6
3,48,44,296
3,59,75,194
3,55,54,18
3,59,63,166
3,55,64,4
3,55,60,110
3,59,66,32
3,59,82,204
3,55,75,4
3,55,78,230
3,55,72,208
3,58,63,390
3,55,64,182
3,58,63,496
3,57,58,236
3,53,50,4
3,53,68,42
3,58,78,4
3,57,54,8
3,55,58,754
3,59,59,4
3,59,63,154
3,55,64,8
3,53,72,1870
3,59,71,4
3,55,69,268
3,52,65,6
4,43,107,1552
4,38,99,30
4,38,99,86
4,31,106,18
4,33,108,56
4,35,101,66
4,36,97,128
4,31,97,194
4,36,106,88
4,31,102,70
4,33,107,28
4,35,101,64
4,36,99,96
4,43,105,110
4,36,95,92
4,43,94,160
4,36,98,128
4,43,104,106
4,36,101,18
4,43,99,60
4,36,94,134
4,43,99,158
4,36,101,122
4,40,108,116
4,41,101,88
4,43,104,42
4,38,104,128
4,43,99,26
4,33,101,8
4,35,107,14
4,36,105,10
4,43,103,84
4,36,94,62
4,38,104,72
4,40,107,36
4,41,96,34
4,36,89,92
4,36,92,106
4,41,101,8
4,36,96,26
4,43,101,124
4,38,103,112
4,31,99,58
4,33,101,46
4,35,103,6
4,36,104,6
4,36,91,54
4,43,102,20
4,36,99,746
4,31,89,90
4,33,108,14
4,35,102,18
4,36,99,40
4,36,94,144
4,43,102,6
4,43,94,116
4,36,95,8
4,36,99,86
4,31,99,26
4,36,104,44
4,43,104,50
4,43,104,104
4,36,93,146
4,31,99,24
4,33,105,398
4,35,99,16
4,36,103,6
4,36,95,136
4,43,103,126
4,43,94,94
4,36,95,12
4,36,95,76
4,40,94,98
4,41,108,380
4,43,98,16
4,43,102,122
4,38,97,130
4,38,94,100
4,31,99,28
4,41,107,402
4,40,93,356
4,38,96,352
4,36,104,352
4,36,102,96
4,31,99,24
4,31,88,108
4,36,99,136
4,36,99,68
4,38,98,14
4,40,102,28
4,41,97,32
4,36,95,74
4,36,89,154
4,41,99,12
4,40,95,34
4,41,104,0
4,43,104,14
4,38,102,46
4,38,99,128
4,31,99,24
4,31,90,76
4,33,107,144
4,35,105,12
4,36,102,40
4,36,103,116
4,31,99,16
4,31,94,126
4,36,104,10
4,36,108,0
4,31,108,60
4,33,102,34
4,35,82,44
4,36,94,26
4,40,96,20
4,43,98,24
4,45,92,406
4,36,84,10
4,48,93,6
4,45,95,382
4,43,94,380
4,40,94,376
4,36,90,0
4,40,89,376
4,43,94,24
4,45,92,360
4,36,60,18
4,48,90,20
4,36,71,282
4,45,89,20
4,43,94,12
4,40,88,0
4,36,103,6
4,33,83,18
4,31,82,372
4,33,97,358
4,31,85,24
4,36,94,14
4,40,102,12
4,45,95,0
4,44,99,386
4,43,87,32
4,38,98,376
4,35,94,24
4,38,96,392
4,31,94,30
4,41,101,376
4,40,95,370
4,38,89,376
