track,note,velocity,time
1,33,103,12876
1,33,101,40
1,40,99,1172
1,40,97,50
1,42,99,1158
1,42,92,48
1,38,101,1170
1,38,92,66
1,33,103,1140
1,33,97,64
1,40,96,1154
1,40,90,64
1,42,99,1140
1,42,96,64
1,38,101,1160
1,38,99,64
1,38,98,56
1,38,93,50
1,37,93,50
1,35,88,58
1,33,103,58
1,33,100,70
1,33,100,82
1,33,101,72
1,33,102,72
1,33,96,78
1,33,101,88
1,33,104,76
1,40,99,2
1,40,96,60
1,40,101,74
1,40,100,80
1,40,100,78
1,40,99,86
1,40,99,86
1,40,103,84
1,42,99,2
1,42,98,68
1,42,103,84
1,42,102,88
1,42,102,88
1,42,101,88
1,42,101,88
1,42,103,86
1,38,99,2
1,38,99,76
1,38,98,88
1,38,97,88
1,38,98,88
1,38,98,88
1,38,98,88
1,40,103,76
1,33,103,2
1,33,100,70
1,33,100,82
1,33,101,72
1,33,102,72
1,33,96,78
1,33,101,88
1,33,104,76
1,40,99,2
1,40,96,60
1,40,101,74
1,40,100,80
1,33,100,2
1,33,99,86
1,33,99,86
1,33,103,84
1,42,99,2
1,42,98,68
1,42,103,84
1,42,102,88
1,42,102,88
1,42,101,88
1,42,101,88
1,42,103,86
1,38,99,2
1,38,99,76
1,38,98,88
1,38,97,88
1,38,98,88
1,38,98,88
1,38,98,88
1,40,103,76
1,33,107,4
1,33,105,40
1,40,103,1172
1,40,101,50
1,42,103,1158
1,42,96,48
1,38,105,1170
1,38,96,66
1,33,107,1140
1,33,101,64
1,40,100,1154
1,40,94,64
1,42,103,1140
1,42,100,64
1,38,105,1160
1,38,103,64
1,38,102,56
1,38,97,50
1,37,97,50
1,35,92,58
1,33,106,58
1,33,103,70
1,33,103,82
1,33,104,72
1,33,105,72
1,33,99,78
1,33,104,88
1,33,107,76
1,40,102,2
1,40,99,60
1,40,104,74
1,40,103,80
1,40,103,78
1,40,102,86
1,40,102,86
1,40,106,84
1,42,102,2
1,42,101,68
1,42,106,84
1,42,105,88
1,42,105,88
1,42,104,88
1,42,104,88
1,42,106,86
1,38,102,2
1,38,102,76
1,38,101,88
1,38,100,88
1,38,101,88
1,38,101,88
1,38,101,88
1,40,106,76
1,33,106,2
1,33,103,70
1,33,103,82
1,33,104,72
1,33,105,72
1,33,99,78
1,33,104,88
1,33,107,76
1,40,102,2
1,40,99,60
1,40,104,74
1,40,103,80
1,33,103,2
1,33,102,86
1,33,102,86
1,33,106,84
1,42,102,2
1,42,101,68
1,42,106,84
1,42,105,88
1,42,105,88
1,42,104,88
1,42,104,88
1,42,106,86
1,38,102,2
1,38,102,76
1,38,101,88
1,38,100,88
1,38,101,88
1,38,101,88
1,38,101,88
1,40,106,76
1,33,105,6
1,33,102,70
1,33,102,82
1,33,103,72
1,33,104,72
1,33,98,78
1,33,103,88
1,33,106,76
1,33,101,2
1,33,98,60
1,33,103,74
1,33,102,80
1,33,102,78
1,33,101,86
1,33,101,86
1,33,105,84
1,40,104,4
1,38,99,18
1,45,100,10
1,40,100,2
1,42,92,48
1,38,99,8
1,45,99,2
1,40,98,2
1,40,98,20
1,40,97,88
1,40,96,88
1,40,97,88
1,40,97,88
1,40,97,88
1,40,102,76
1,33,106,30
1,33,103,70
1,33,103,82
1,33,104,72
1,33,105,72
1,33,99,78
1,33,104,88
1,33,107,76
1,40,102,2
1,40,99,60
1,40,104,74
1,40,103,80
1,40,103,78
1,40,102,86
1,40,102,86
1,40,106,84
1,42,102,2
1,42,101,68
1,42,106,84
1,42,105,88
1,42,105,88
1,42,104,88
1,42,104,88
1,42,106,86
1,38,102,2
1,38,102,76
1,38,101,88
1,38,100,88
1,38,101,88
1,38,101,88
1,38,101,88
1,40,106,76
1,33,106,2
1,33,103,70
1,33,103,82
1,33,104,72
1,33,105,72
1,33,99,78
1,33,104,88
1,33,107,76
1,40,102,2
1,40,99,60
1,40,104,74
1,40,103,80
1,33,103,2
1,33,102,86
1,40,102,86
1,33,106,84
1,42,102,2
1,42,101,68
1,42,106,84
1,42,105,88
1,42,105,88
1,42,104,88
1,42,104,88
1,42,106,86
1,38,102,2
1,38,102,76
1,38,101,88
1,38,100,88
1,38,101,88
1,38,101,88
1,37,101,66
1,35,106,70
1,33,105,68
1,33,105,5734
1,33,102,70
1,38,103,2728
1,35,67,4
1,37,104,2
1,33,67,4
1,35,104,2
1,35,67,4
1,40,100,120
1,40,102,68
1,40,104,68
1,40,105,68
1,33,108,68
1,33,105,70
1,33,105,82
1,33,106,72
1,33,107,72
1,33,101,78
1,33,106,88
1,33,109,76
1,40,104,2
1,40,101,60
1,40,106,74
1,40,105,80
1,40,105,78
1,40,104,86
1,40,104,86
1,40,108,84
1,42,104,2
1,42,103,68
1,42,108,84
1,42,107,88
1,42,107,88
1,42,106,88
1,42,106,88
1,42,108,86
1,38,104,2
1,38,104,76
1,38,103,88
1,38,102,88
1,38,103,88
1,38,103,88
1,38,103,88
1,40,108,76
1,33,108,2
1,33,105,70
1,33,105,82
1,33,106,72
1,33,107,72
1,33,101,78
1,33,106,88
1,33,109,76
1,40,104,2
1,40,101,60
1,40,106,74
1,40,105,80
1,33,105,2
1,33,104,86
1,33,104,86
1,33,108,84
1,42,104,2
1,42,103,68
1,42,108,84
1,42,107,88
1,42,107,88
1,42,106,88
1,42,106,88
1,42,108,86
1,38,104,2
1,38,104,76
1,38,103,88
1,38,102,88
1,38,103,88
1,38,103,88
1,38,103,88
1,40,108,76
1,33,110,6
1,33,107,70
1,33,107,82
1,33,108,72
1,33,109,72
1,33,103,78
1,33,108,88
1,33,111,76
1,40,106,2
1,40,103,60
1,40,108,74
1,40,107,80
1,40,107,78
1,40,106,86
1,40,106,86
1,40,110,84
1,42,106,2
1,42,105,68
1,42,110,84
1,42,109,88
1,42,109,88
1,42,108,88
1,42,108,88
1,42,110,86
1,38,106,2
1,38,106,76
1,38,105,88
1,38,104,88
1,38,105,88
1,38,105,88
1,38,105,88
1,40,110,76
1,33,110,2
1,33,107,70
1,33,107,82
1,33,108,72
1,33,109,72
1,33,103,78
1,33,108,88
1,33,111,76
1,40,106,2
1,40,103,60
1,40,108,74
1,40,107,80
1,33,107,2
1,33,106,86
1,33,106,86
1,33,110,84
1,42,106,2
1,42,105,68
1,42,110,84
1,42,109,88
1,42,109,88
1,42,108,88
1,42,108,88
1,42,110,86
1,38,106,2
1,38,106,76
1,38,105,88
1,38,104,88
1,38,105,88
1,38,105,88
1,38,105,88
1,40,110,76
2,57,93,12910
2,61,97,0
2,64,100,10
2,57,90,16
2,61,90,6
2,64,104,12
2,57,48,18
2,61,58,8
2,64,71,4
2,61,28,148
2,57,33,8
2,57,47,106
2,61,58,8
2,64,67,4
2,61,31,148
2,57,19,8
2,57,47,104
2,61,59,8
2,64,71,4
2,61,22,148
2,57,31,8
2,56,93,110
2,59,97,8
2,64,100,12
2,56,90,18
2,59,90,6
2,64,104,12
2,56,48,18
2,59,58,8
2,64,71,4
2,59,28,148
2,56,33,8
2,56,47,106
2,59,58,8
2,64,67,4
2,59,31,148
2,56,19,8
2,56,47,104
2,59,59,8
2,64,71,4
2,59,22,148
2,56,31,8
2,57,93,110
2,61,97,8
2,66,100,12
2,57,90,18
2,61,90,6
2,66,104,12
2,57,48,18
2,61,58,8
2,66,71,4
2,61,28,148
2,57,33,8
2,57,47,106
2,61,58,8
2,66,67,4
2,61,31,148
2,57,19,8
2,57,47,104
2,61,59,8
2,66,71,4
2,61,22,148
2,57,31,8
2,57,93,110
2,62,97,8
2,66,100,12
2,57,90,18
2,62,90,6
2,66,104,12
2,57,48,18
2,62,58,8
2,66,71,4
2,62,28,148
2,57,33,8
2,57,47,106
2,62,58,8
2,66,67,4
2,62,31,148
2,57,19,8
2,57,47,104
2,62,59,8
2,66,71,4
2,62,22,148
2,57,31,8
2,57,93,110
2,61,97,8
2,64,100,12
2,57,90,18
2,61,90,6
2,64,104,12
2,57,48,18
2,61,58,8
2,64,71,4
2,61,28,148
2,57,33,8
2,57,47,106
2,61,58,8
2,64,67,4
2,61,31,148
2,57,19,8
2,57,47,104
2,61,59,8
2,64,71,4
2,61,22,148
2,57,31,8
2,56,93,110
2,59,97,8
2,64,100,12
2,56,90,18
2,59,90,6
2,64,104,12
2,56,48,18
2,59,58,8
2,64,71,4
2,59,28,148
2,56,33,8
2,56,47,106
2,59,58,8
2,64,67,4
2,59,31,148
2,56,19,8
2,56,47,104
2,59,59,8
2,64,71,4
2,59,22,148
2,56,31,8
2,57,93,110
2,61,97,8
2,66,100,12
2,57,90,18
2,61,90,6
2,66,104,12
2,57,48,18
2,61,58,8
2,66,71,4
2,61,28,148
2,57,33,8
2,57,47,106
2,61,58,8
2,66,67,4
2,61,31,148
2,57,19,8
2,57,47,104
2,61,59,8
2,66,71,4
2,61,22,148
2,57,31,8
2,57,93,110
2,62,97,8
2,66,100,12
2,57,90,18
2,62,90,6
2,66,104,12
2,57,47,40
2,62,58,8
2,66,67,4
2,57,68,152
2,62,80,8
2,66,79,12
2,57,81,24
2,62,91,8
2,66,95,12
2,57,88,18
2,62,97,6
2,66,106,12
2,57,72,28
2,61,82,12
2,64,92,14
2,61,65,4
2,57,55,8
2,57,76,0
2,61,86,12
2,64,96,12
2,61,65,70
2,57,55,8
2,57,72,0
2,61,82,12
2,64,92,14
2,61,65,4
2,57,55,8
2,57,76,0
2,61,86,12
2,64,96,12
2,61,65,66
2,57,55,8
2,56,72,12
2,59,82,12
2,64,92,14
2,59,65,4
2,56,55,8
2,56,76,0
2,59,86,12
2,64,96,12
2,59,65,70
2,56,55,8
2,56,72,0
2,59,82,12
2,64,92,14
2,59,65,4
2,56,55,8
2,56,76,0
2,59,86,12
2,64,96,12
2,59,65,66
2,56,55,8
2,57,72,12
2,61,82,12
2,66,92,14
2,61,65,4
2,57,55,8
2,57,76,0
2,61,86,12
2,66,96,12
2,61,65,70
2,57,55,8
2,57,72,0
2,61,82,12
2,66,92,14
2,61,65,4
2,57,55,8
2,57,76,0
2,61,86,12
2,66,96,12
2,61,65,66
2,57,55,8
2,57,72,12
2,62,82,12
2,66,92,14
2,62,65,4
2,57,55,8
2,57,76,0
2,62,86,12
2,66,96,12
2,62,65,70
2,57,55,8
2,57,72,0
2,62,82,12
2,66,92,14
2,62,65,4
2,57,55,8
2,57,76,0
2,62,86,12
2,66,96,12
2,62,65,66
2,57,55,8
2,57,72,12
2,61,82,12
2,64,92,14
2,61,65,4
2,57,55,8
2,57,76,0
2,61,86,12
2,64,96,12
2,61,65,70
2,57,55,8
2,57,72,0
2,61,82,12
2,64,92,14
2,61,65,4
2,57,55,8
2,57,76,0
2,61,86,12
2,64,96,12
2,61,65,66
2,57,55,8
2,56,72,12
2,59,82,12
2,64,92,14
2,59,65,4
2,56,55,8
2,56,76,0
2,59,86,12
2,64,96,12
2,59,65,70
2,56,55,8
2,57,72,0
2,61,82,12
2,64,92,14
2,61,65,4
2,57,55,8
2,57,76,0
2,61,86,12
2,64,96,12
2,61,65,66
2,57,55,8
2,57,72,12
2,61,82,12
2,66,92,14
2,61,65,4
2,57,55,8
2,57,76,0
2,61,86,12
2,66,96,12
2,61,65,70
2,57,55,8
2,57,72,0
2,61,82,12
2,66,92,14
2,61,65,4
2,57,55,8
2,57,76,0
2,61,86,12
2,66,96,12
2,61,65,66
2,57,55,8
2,57,72,12
2,62,82,12
2,66,92,14
2,62,65,4
2,57,55,8
2,57,76,0
2,62,86,12
2,66,96,12
2,62,65,70
2,57,55,8
2,57,72,0
2,62,82,12
2,66,92,14
2,62,65,4
2,57,55,8
2,57,76,0
2,62,86,12
2,66,96,12
2,62,65,66
2,57,55,8
2,57,97,12
2,61,101,0
2,64,104,10
2,57,94,16
2,61,94,6
2,64,108,12
2,57,52,18
2,61,62,8
2,64,75,4
2,61,32,148
2,57,37,8
2,57,51,106
2,61,62,8
2,64,71,4
2,61,35,148
2,57,23,8
2,57,51,104
2,61,63,8
2,64,75,4
2,61,26,148
2,57,35,8
2,56,97,110
2,59,101,8
2,64,104,12
2,56,94,18
2,59,94,6
2,64,108,12
2,56,52,18
2,59,62,8
2,64,75,4
2,59,32,148
2,56,37,8
2,56,51,106
2,59,62,8
2,64,71,4
2,59,35,148
2,56,23,8
2,56,51,104
2,59,63,8
2,64,75,4
2,59,26,148
2,56,35,8
2,57,97,110
2,61,101,8
2,66,104,12
2,57,94,18
2,61,94,6
2,66,108,12
2,57,52,18
2,61,62,8
2,66,75,4
2,61,32,148
2,57,37,8
2,57,51,106
2,61,62,8
2,66,71,4
2,61,35,148
2,57,23,8
2,57,51,104
2,61,63,8
2,66,75,4
2,61,26,148
2,57,35,8
2,57,97,110
2,62,101,8
2,66,104,12
2,57,94,18
2,62,94,6
2,66,108,12
2,57,52,18
2,62,62,8
2,66,75,4
2,62,32,148
2,57,37,8
2,57,51,106
2,62,62,8
2,66,71,4
2,62,35,148
2,57,23,8
2,57,51,104
2,62,63,8
2,66,75,4
2,62,26,148
2,57,35,8
2,57,97,110
2,61,101,8
2,64,104,12
2,57,94,18
2,61,94,6
2,64,108,12
2,57,52,18
2,61,62,8
2,64,75,4
2,61,32,148
2,57,37,8
2,57,51,106
2,61,62,8
2,64,71,4
2,61,35,148
2,57,23,8
2,57,51,104
2,61,63,8
2,64,75,4
2,61,26,148
2,57,35,8
2,56,97,110
2,59,101,8
2,64,104,12
2,56,94,18
2,59,94,6
2,64,108,12
2,56,52,18
2,59,62,8
2,64,75,4
2,59,32,148
2,56,37,8
2,56,51,106
2,59,62,8
2,64,71,4
2,59,35,148
2,56,23,8
2,56,51,104
2,59,63,8
2,64,75,4
2,59,26,148
2,56,35,8
2,57,97,110
2,61,101,8
2,66,104,12
2,57,94,18
2,61,94,6
2,66,108,12
2,57,52,18
2,61,62,8
2,66,75,4
2,61,32,148
2,57,37,8
2,57,51,106
2,61,62,8
2,66,71,4
2,61,35,148
2,57,23,8
2,57,51,104
2,61,63,8
2,66,75,4
2,61,26,148
2,57,35,8
2,57,97,110
2,62,101,8
2,66,104,12
2,57,94,18
2,62,94,6
2,66,108,12
2,57,51,40
2,62,62,8
2,66,71,4
2,57,72,152
2,62,84,8
2,66,83,12
2,57,85,24
2,62,95,8
2,66,99,12
2,57,92,18
2,62,101,6
2,66,110,12
2,57,75,28
2,61,85,12
2,64,95,14
2,61,68,4
2,57,58,8
2,57,79,0
2,61,89,12
2,64,99,12
2,61,68,70
2,57,58,8
2,57,75,0
2,61,85,12
2,64,95,14
2,61,68,4
2,57,58,8
2,57,79,0
2,61,89,12
2,64,99,12
2,61,68,66
2,57,58,8
2,56,75,12
2,59,85,12
2,64,95,14
2,59,68,4
2,56,58,8
2,56,79,0
2,59,89,12
2,64,99,12
2,59,68,70
2,56,58,8
2,56,75,0
2,59,85,12
2,64,95,14
2,59,68,4
2,56,58,8
2,56,79,0
2,59,89,12
2,64,99,12
2,59,68,66
2,56,58,8
2,57,75,12
2,61,85,12
2,66,95,14
2,61,68,4
2,57,58,8
2,57,79,0
2,61,89,12
2,66,99,12
2,61,68,70
2,57,58,8
2,57,75,0
2,61,85,12
2,66,95,14
2,61,68,4
2,57,58,8
2,57,79,0
2,61,89,12
2,66,99,12
2,61,68,66
2,57,58,8
2,57,75,12
2,62,85,12
2,66,95,14
2,62,68,4
2,57,58,8
2,57,79,0
2,62,89,12
2,66,99,12
2,62,68,70
2,57,58,8
2,57,75,0
2,62,85,12
2,66,95,14
2,62,68,4
2,57,58,8
2,57,79,0
2,62,89,12
2,66,99,12
2,62,68,66
2,57,58,8
2,57,75,12
2,61,85,12
2,64,95,14
2,61,68,4
2,57,58,8
2,57,79,0
2,61,89,12
2,64,99,12
2,61,68,70
2,57,58,8
2,57,75,0
2,61,85,12
2,64,95,14
2,61,68,4
2,57,58,8
2,57,79,0
2,61,89,12
2,64,99,12
2,61,68,66
2,57,58,8
2,56,75,12
2,59,85,12
2,64,95,14
2,59,68,4
2,56,58,8
2,56,79,0
