track,note,velocity,time
3,63,110,3168
3,63,0,46
3,63,110,2
3,63,0,46
3,63,110,2
3,63,0,94
3,63,110,2
3,63,0,94
3,63,110,2
3,63,0,94
3,63,110,2
3,63,0,46
3,63,110,2
3,63,0,142
3,63,110,2
3,63,0,46
3,63,110,2
3,63,0,46
3,63,110,2
3,63,0,160
3,63,110,32
3,63,0,94
3,63,110,2
3,63,0,94
3,63,110,2
3,63,0,160
3,68,110,1856
3,68,0,46
3,68,110,2
3,68,0,46
3,68,110,2
3,68,0,94
3,68,110,2
3,68,0,94
3,67,110,2
3,67,0,160
3,67,110,80
3,67,0,46
3,67,110,2
3,67,0,46
3,67,110,2
3,67,0,46
3,65,110,2
3,65,0,142
3,65,110,2
3,65,0,46
3,65,110,2
3,65,0,94
3,65,110,2
3,65,0,46
3,65,110,2
3,65,0,208
3,65,110,128
3,65,0,46
3,65,110,2
3,65,0,46
3,63,110,2
3,63,0,94
3,63,110,2
3,63,0,94
3,63,110,2
3,63,0,160
3,63,110,32
3,63,0,94
3,63,110,2
3,63,0,46
3,63,110,2
3,63,0,208
3,65,110,128
3,65,0,94
3,65,110,2
3,65,0,94
3,61,110,2
3,61,0,46
3,63,110,2
3,63,0,384
3,65,110,48
3,65,0,384
3,67,110,0
3,67,0,256
3,67,110,32
3,67,0,94
3,68,110,2
3,68,0,94
3,68,110,2
3,68,0,46
3,68,110,2
3,68,0,142
3,61,110,2
3,61,0,94
3,63,110,2
3,63,0,160
3,63,110,128
3,63,0,94
3,65,110,2
3,65,0,94
3,67,110,2
3,67,0,46
3,68,110,2
3,68,0,142
3,68,110,2
3,68,0,94
3,63,110,2
3,63,0,160
3,63,110,80
3,63,0,46
3,65,110,2
3,65,0,46
3,68,110,2
3,68,0,46
3,72,110,2
3,72,0,94
3,73,110,2
3,73,0,94
3,70,110,2
3,70,0,46
3,68,110,2
3,68,0,94
3,70,110,2
3,70,0,384
3,68,110,144
3,68,0,96
3,67,110,0
3,67,0,96
3,65,110,0
3,65,0,48
3,63,110,0
3,63,0,46
3,60,110,2
3,60,0,256
3,63,110,32
3,63,0,94
3,63,110,2
3,68,110,0
3,63,0,160
3,68,0,0
3,63,110,32
3,67,110,0
3,63,0,94
3,67,0,0
3,63,110,2
3,68,110,0
3,63,0,94
3,68,0,0
3,63,110,98
3,63,0,94
3,61,110,2
3,61,0,94
3,60,110,2
3,60,0,46
3,61,110,2
3,61,0,142
3,61,110,2
3,70,110,0
3,61,0,160
3,70,0,0
3,60,110,320
3,60,0,94
3,63,110,2
3,63,0,94
3,63,110,2
3,67,110,0
3,63,0,94
3,67,0,0
3,63,110,2
3,68,110,0
3,63,0,160
3,68,0,0
3,63,110,32
3,70,110,0
3,63,0,94
3,70,0,0
3,65,110,2
3,70,110,0
3,65,0,94
3,70,0,0
3,65,110,2
3,72,110,0
3,65,0,94
3,72,0,0
3,65,110,2
3,68,110,0
3,65,0,94
3,68,0,0
3,65,110,2
3,65,0,46
3,63,110,2
3,70,110,0
3,63,0,142
3,70,0,0
3,68,110,2
3,68,0,94
3,67,110,2
3,67,0,94
3,61,110,2
3,61,0,94
3,60,110,2
3,60,0,256
3,63,110,32
3,63,0,94
3,63,110,2
3,67,110,0
3,63,0,96
3,67,0,0
3,63,110,0
3,68,110,0
3,63,0,160
3,68,0,0
3,63,110,32
3,63,0,94
3,63,110,2
3,63,0,160
3,61,110,32
3,61,0,94
3,60,110,2
3,60,0,46
3,61,110,2
3,61,0,144
3,61,110,0
3,70,110,0
3,61,0,160
3,70,0,0
3,63,110,32
3,63,0,94
3,65,110,2
3,65,0,94
3,67,110,2
3,67,0,94
3,68,110,2
3,68,0,94
3,70,110,2
3,70,0,46
3,63,110,2
3,63,0,208
3,63,110,896
3,63,0,94
3,65,110,2
3,65,0,94
3,67,110,2
3,67,0,94
3,65,110,2
3,68,110,0
3,65,0,94
3,68,0,0
3,65,110,2
3,70,110,0
3,65,0,94
3,70,0,0
3,63,110,2
3,72,110,0
3,63,0,160
3,72,0,0
3,63,110,32
3,70,110,0
3,70,0,48
3,68,110,0
3,68,0,48
3,67,110,0
3,63,0,64
3,67,0,30
3,63,110,2
3,70,110,0
3,70,0,96
3,68,110,0
3,63,0,240
3,68,0,16
3,63,110,1088
3,63,0,94
3,60,110,2
3,60,0,94
3,63,110,2
3,63,0,94
3,63,110,2
3,63,0,94
3,60,110,2
3,60,0,46
3,63,110,2
3,63,0,208
3,63,110,80
3,63,0,46
3,65,110,2
3,65,0,46
3,67,110,2
3,67,0,46
3,68,110,2
3,68,0,94
3,68,110,2
3,68,0,94
3,61,110,2
3,61,0,94
3,65,110,2
3,65,0,144
3,63,110,0
3,63,0,48
3,61,110,0
3,61,0,190
3,68,110,1586
3,68,0,46
3,68,110,2
3,68,0,94
3,68,110,2
3,68,0,94
3,68,110,2
3,68,0,94
3,68,110,2
3,68,0,46
3,67,110,2
3,67,0,142
3,67,110,2
3,67,0,160
3,67,110,32
3,67,0,94
3,65,110,2
3,65,0,142
3,65,110,2
3,65,0,46
3,65,110,2
3,65,0,94
3,65,110,2
3,65,0,46
3,65,110,2
3,65,0,208
3,65,110,176
3,65,0,46
3,63,110,2
3,63,0,94
3,63,110,2
3,63,0,94
3,63,110,2
3,63,0,94
3,63,110,2
3,63,0,46
3,63,110,2
3,63,0,208
3,63,110,176
3,63,0,46
3,65,110,2
3,65,0,94
3,65,110,2
3,65,0,94
3,65,110,2
3,65,0,94
3,61,110,2
3,61,0,46
3,63,110,2
3,63,0,384
3,65,110,48
3,65,0,384
3,67,110,0
3,67,0,256
3,67,110,32
3,67,0,46
3,67,110,2
3,67,0,46
3,68,110,2
3,68,0,94
3,68,110,2
3,68,0,46
3,68,110,2
3,68,0,142
3,61,110,2
3,61,0,94
3,63,110,2
3,63,0,160
3,65,110,224
3,65,0,94
3,67,110,2
3,67,0,46
3,68,110,2
3,68,0,142
3,68,110,2
3,68,0,94
3,63,110,2
3,63,0,160
3,63,110,80
3,63,0,46
3,65,110,2
3,65,0,46
3,68,110,2
3,68,0,46
3,72,110,2
3,72,0,94
3,73,110,2
3,73,0,94
3,70,110,2
3,70,0,94
3,68,110,2
3,68,0,46
3,70,110,2
3,70,0,142
3,68,110,2
3,68,0,96
3,67,110,0
3,67,0,96
3,65,110,0
3,65,0,48
3,63,110,0
3,63,0,46
3,60,110,2
3,60,0,256
3,63,110,32
3,63,0,94
3,63,110,2
3,68,110,0
3,63,0,160
3,68,0,0
3,63,110,32
3,67,110,0
3,63,0,94
3,67,0,0
3,63,110,2
3,68,110,0
3,63,0,94
3,68,0,0
3,63,110,98
3,63,0,94
3,61,110,2
3,61,0,94
3,60,110,2
3,60,0,46
3,61,110,2
3,61,0,142
3,61,110,2
3,70,110,0
3,61,0,160
3,70,0,0
3,60,110,320
3,60,0,94
3,63,110,2
3,63,0,94
3,63,110,2
3,67,110,0
3,63,0,94
3,67,0,0
3,63,110,2
3,68,110,0
3,63,0,160
3,68,0,0
3,63,110,32
3,70,110,0
3,63,0,94
3,70,0,0
3,65,110,2
3,70,110,0
3,65,0,94
3,70,0,0
3,65,110,2
3,72,110,0
3,65,0,94
3,72,0,0
3,65,110,2
3,68,110,0
3,65,0,94
3,68,0,0
3,65,110,2
3,65,0,46
3,63,110,2
3,70,110,0
3,63,0,142
3,70,0,0
3,68,110,2
3,68,0,94
3,67,110,2
3,67,0,94
3,61,110,2
3,61,0,94
3,60,110,2
3,60,0,256
3,63,110,32
3,63,0,94
3,63,110,2
3,67,110,0
3,63,0,96
3,67,0,0
3,63,110,0
3,68,110,0
3,63,0,160
3,68,0,0
3,63,110,32
3,63,0,94
3,63,110,2
3,63,0,160
3,61,110,32
3,61,0,94
3,60,110,2
3,60,0,46
3,61,110,2
3,61,0,144
3,61,110,0
3,70,110,0
3,61,0,160
3,70,0,0
3,63,110,32
3,63,0,94
3,65,110,2
3,65,0,94
3,67,110,2
3,67,0,94
3,68,110,2
3,68,0,94
3,70,110,2
3,70,0,46
3,63,110,2
3,63,0,208
3,63,110,896
3,63,0,94
3,65,110,2
3,65,0,94
3,67,110,2
3,67,0,94
3,65,110,2
3,68,110,0
3,65,0,94
3,68,0,0
3,65,110,2
3,70,110,0
3,65,0,94
3,70,0,0
3,63,110,2
3,72,110,0
3,63,0,160
3,72,0,0
3,63,110,32
3,70,110,0
3,70,0,48
3,68,110,0
3,68,0,48
3,67,110,0
3,63,0,64
3,67,0,30
3,63,110,2
3,70,110,0
3,70,0,96
3,68,110,0
3,63,0,240
3,68,0,16
3,63,92,1904
3,63,0,46
3,65,92,2
3,65,0,94
3,67,92,2
3,67,0,94
3,68,92,2
3,68,0,94
3,70,92,2
3,70,0,46
3,70,92,2
3,70,0,142
3,63,92,2
3,63,0,256
3,72,92,32
3,72,0,94
3,73,92,2
3,73,0,94
3,70,92,2
3,70,0,94
3,68,92,2
3,68,0,46
3,70,92,2
3,70,0,432
3,71,108,0
3,71,0,336
3,69,108,144
3,69,0,96
3,68,108,0
3,68,0,96
3,66,108,0
3,66,0,48
3,64,108,0
3,64,0,46
3,61,92,2
3,61,0,256
3,64,92,32
3,64,0,94
3,64,92,2
3,69,92,0
3,64,0,160
3,69,0,0
3,64,92,32
3,68,92,0
3,64,0,94
3,68,0,0
3,64,92,2
3,69,92,0
3,64,0,94
3,69,0,0
3,64,92,98
3,64,0,94
3,62,92,2
3,62,0,94
3,61,92,2
3,61,0,46
3,62,92,2
3,62,0,142
3,62,92,2
3,71,92,0
3,62,0,160
3,71,0,0
3,61,92,320
3,61,0,94
3,64,92,2
3,64,0,94
3,64,92,2
3,68,92,0
3,64,0,94
3,68,0,0
3,64,92,2
3,69,92,0
3,64,0,160
3,69,0,0
3,64,92,32
3,71,92,0
3,64,0,94
3,71,0,0
3,66,92,2
3,71,92,0
3,66,0,94
3,71,0,0
3,66,92,2
3,73,92,0
3,66,0,94
3,73,0,0
3,66,92,2
3,69,92,0
3,66,0,94
3,69,0,0
3,66,92,2
3,66,0,46
3,64,92,2
3,71,92,0
3,64,0,142
3,71,0,0
3,69,92,2
3,69,0,94
3,68,92,2
3,68,0,94
3,62,92,2
3,62,0,94
3,61,92,2
3,61,0,256
3,64,92,32
3,64,0,94
3,64,92,2
3,68,92,0
3,64,0,96
3,68,0,0
3,64,92,0
3,69,92,0
3,64,0,160
3,69,0,0
3,64,92,32
3,64,0,94
3,64,92,2
3,64,0,160
3,62,92,32
3,62,0,94
3,61,92,2
3,61,0,46
3,62,92,2
3,62,0,144
3,62,92,0
3,71,92,0
3,62,0,160
3,71,0,0
3,64,92,32
3,64,0,94
3,66,60,2
3,66,0,94
3,68,60,2
3,68,0,94
3,69,60,2
3,69,0,94
3,71,60,2
3,71,0,46
3,64,60,2
3,64,0,208
3,64,60,896
3,64,0,94
3,66,60,2
3,66,0,94
3,68,60,2
3,68,0,94
3,66,60,2
3,69,60,0
3,66,0,94
3,69,0,0
3,66,60,2
3,71,60,0
3,66,0,94
3,71,0,0
3,64,60,2
3,73,60,0
3,64,0,160
3,73,0,0
3,64,60,32
3,71,60,0
3,71,0,48
3,69,60,0
3,69,0,48
3,68,60,0
3,64,0,64
3,68,0,30
3,64,60,2
3,71,60,0
3,71,0,96
3,69,60,0
3,64,0,240
3,69,0,16
3,64,60,368
3,64,0,46
3,66,60,2
3,66,0,94
3,68,60,2
3,68,0,94
3,69,60,2
3,69,0,94
3,71,60,2
3,71,0,94
3,73,60,2
3,73,0,160
3,71,60,32
3,71,0,160
3,69,60,32
3,69,0,2256
4,51,110,4704
4,51,0,46
4,51,110,2
4,51,0,46
4,51,110,2
4,51,0,94
4,51,110,2
4,51,0,94
4,51,110,2
4,51,0,94
4,51,110,2
4,51,0,46
4,51,110,2
4,51,0,208
4,51,110,128
4,51,0,46
4,51,110,2
4,51,0,46
4,51,110,2
4,51,0,94
4,51,110,2
4,51,0,94
4,51,110,2
4,51,0,160
4,56,110,224
4,56,0,384
4,55,110,0
4,55,0,384
4,56,110,0
4,56,0,528
4,56,110,144
4,56,0,46
4,56,110,2
4,56,0,46
4,56,110,2
4,56,0,94
4,56,110,2
4,56,0,94
4,56,110,2
4,56,0,160
4,56,110,32
4,56,0,94
4,56,110,2
4,56,0,46
4,56,110,2
4,56,0,208
4,56,110,128
4,56,0,94
4,56,110,2
4,56,0,94
4,53,110,2
4,53,0,46
4,55,110,2
4,55,0,384
4,61,110,144
4,61,0,46
4,61,110,2
4,61,0,46
4,60,110,2
4,60,0,94
4,60,110,2
4,60,0,46
4,58,110,2
4,58,0,142
4,55,110,2
4,55,0,160
4,55,110,32
4,55,0,94
4,56,110,2
4,56,0,94
4,56,110,2
4,56,0,46
4,56,110,2
4,56,0,142
4,56,110,2
4,56,0,94
4,55,110,2
4,55,0,160
4,56,110,224
4,56,0,720
4,56,110,48
4,56,0,94
4,58,110,2
4,58,0,94
4,58,110,2
4,58,0,46
4,56,110,2
4,56,0,94
4,55,110,2
4,55,0,384
4,60,110,144
4,60,0,96
4,58,110,0
4,58,0,96
4,56,110,0
4,56,0,48
4,55,110,0
4,55,0,46
4,56,110,2
4,56,0,256
4,58,110,32
4,58,0,94
4,60,110,2
4,60,0,160
4,60,110,32
4,60,0,94
4,60,110,2
4,60,0,94
4,60,110,98
4,60,0,94
4,58,110,2
4,58,0,94
4,56,110,2
4,56,0,46
4,58,110,2
4,58,0,142
4,55,110,2
4,55,0,160
4,56,110,320
4,56,0,94
4,58,110,2
4,58,0,94
4,58,110,2
4,58,0,94
4,60,110,2
4,60,0,160
4,60,110,32
4,60,0,94
4,56,110,2
4,56,0,94
4,56,110,2
4,56,0,94
4,56,110,2
4,56,0,94
4,56,110,2
4,56,0,46
4,55,110,2
4,55,0,142
4,56,110,290
4,56,0,256
4,58,110,32
4,58,0,94
4,58,110,2
4,58,0,96
4,60,110,0
4,60,0,160
4,60,110,32
4,60,0,94
4,60,110,2
4,60,0,160
4,58,110,32
4,58,0,94
4,56,110,2
4,56,0,46
4,58,110,2
4,58,0,144
4,55,110,0
4,55,0,160
4,51,110,800
4,51,0,94
4,53,110,2
4,53,0,94
4,55,110,2
4,55,0,94
4,56,110,2
4,56,0,94
4,58,110,2
4,58,0,46
4,58,110,2
4,58,0,208
4,55,110,128
4,55,0,94
4,56,110,2
4,56,0,94
4,58,110,2
4,58,0,94
4,60,110,2
4,60,0,94
4,61,110,2
4,61,0,94
4,61,110,2
4,61,0,160
4,61,110,32
4,61,0,160
4,60,110,32
4,60,0,336
4,49,110,2640
4,49,0,94
4,51,110,2
4,51,0,94
4,51,110,2
4,51,0,94
4,51,110,2
4,51,0,94
4,51,110,2
4,51,0,94
4,51,110,2
4,51,0,94
4,51,110,2
4,51,0,94
4,51,110,2
4,51,0,94
4,51,110,2
4,51,0,46
4,51,110,2
4,51,0,142
4,51,110,2
4,51,0,94
4,49,110,2
4,49,0,94
4,49,110,2
4,49,0,46
4,51,110,2
4,51,0,304
4,56,110,128
4,56,0,384
4,55,110,0
4,55,0,384
4,56,110,0
4,56,0,528
4,56,110,192
4,56,0,46
4,56,110,2
4,56,0,94
4,56,110,2
4,56,0,94
4,56,110,2
4,56,0,94
4,56,110,2
4,56,0,46
4,56,110,2
4,56,0,208
4,51,110,176
4,51,0,46
4,56,110,2
4,56,0,94
4,56,110,2
4,56,0,94
4,56,110,2
4,56,0,94
4,53,110,2
4,53,0,46
4,55,110,2
4,55,0,384
4,61,110,144
4,61,0,46
4,61,110,2
4,61,0,46
4,60,110,2
4,60,0,94
4,60,110,2
4,60,0,46
4,58,110,2
4,58,0,142
4,55,110,2
4,55,0,160
4,55,110,32
4,55,0,46
4,55,110,2
4,55,0,46
4,56,110,2
4,56,0,94
4,56,110,2
4,56,0,46
4,56,110,2
4,56,0,142
4,56,110,2
4,56,0,94
4,55,110,2
4,55,0,160
4,56,110,224
4,56,0,720
4,56,110,48
4,56,0,94
4,58,110,2
4,58,0,94
