track,note,velocity,time
1,72,100,3840
1,72,0,48
1,72,100,0
1,72,0,48
1,69,100,0
1,69,0,24
1,69,100,48
1,69,0,24
1,72,100,0
1,72,0,24
1,72,100,0
1,72,0,24
1,72,100,0
1,72,0,48
1,69,100,0
1,69,0,96
1,72,100,0
1,72,0,48
1,74,100,0
1,74,0,48
1,69,100,0
1,69,0,96
1,72,100,0
1,72,0,48
1,72,100,0
1,72,0,48
1,69,100,0
1,69,0,96
1,72,100,0
1,72,0,48
1,69,100,0
1,69,0,48
1,67,100,0
1,67,0,48
1,76,100,0
1,76,0,72
1,74,100,0
1,74,0,24
1,72,100,48
1,72,0,48
1,69,100,0
1,69,0,48
1,72,100,0
1,72,0,48
1,69,100,0
1,69,0,48
1,67,100,0
1,67,0,48
1,72,100,0
1,72,0,96
1,69,100,0
1,69,0,96
1,72,100,59
1,72,0,48
1,72,100,0
1,72,0,48
1,69,100,0
1,69,0,24
1,69,100,48
1,69,0,24
1,72,100,0
1,72,0,24
1,72,100,0
1,72,0,24
1,72,100,0
1,72,0,48
1,69,100,0
1,69,0,96
1,72,100,0
1,72,0,48
1,74,100,0
1,74,0,48
1,69,100,0
1,69,0,96
1,72,100,0
1,72,0,48
1,72,100,0
1,69,100,37
1,72,0,11
1,69,0,37
1,67,100,0
1,67,0,48
1,72,100,11
1,72,0,48
1,69,100,0
1,69,0,48
1,67,100,0
1,67,0,48
1,76,100,0
1,76,0,72
1,74,100,0
1,74,0,24
1,72,100,48
1,72,0,48
1,69,100,0
1,69,0,48
1,72,100,0
1,72,0,48
1,69,100,0
1,69,0,48
1,67,100,0
1,67,0,48
1,72,100,0
1,72,0,96
1,69,100,0
1,69,0,96
1,64,100,133
1,64,0,24
1,64,100,0
1,64,0,24
1,64,100,0
1,64,0,48
1,64,100,0
1,64,0,24
1,62,100,0
1,62,0,24
1,62,100,0
1,62,0,48
1,62,100,0
1,62,0,48
1,60,100,0
1,60,0,24
1,60,100,0
1,60,0,216
1,57,100,96
1,57,0,48
1,60,100,0
1,60,0,48
1,62,100,0
1,62,0,48
1,64,100,0
1,64,0,24
1,62,100,0
1,62,0,48
1,60,100,0
1,60,0,24
1,62,100,48
1,62,0,48
1,64,100,0
1,64,0,24
1,62,100,0
1,62,0,48
1,60,100,0
1,60,0,24
1,60,100,48
1,57,100,24
1,57,0,24
1,55,100,0
1,55,0,48
1,60,100,0
1,60,0,24
1,62,100,0
1,62,0,24
1,60,100,0
1,60,0,144
1,60,0,0
1,60,100,48
1,60,0,24
1,60,100,0
1,60,0,24
1,65,100,0
1,65,0,48
1,67,100,0
1,67,0,24
1,69,100,0
1,69,0,48
1,67,100,0
1,67,0,24
1,65,100,24
1,65,0,24
1,67,100,0
1,67,0,24
1,64,100,0
1,64,0,24
1,62,100,0
1,62,0,48
1,60,100,0
1,60,0,48
1,62,100,0
1,62,0,240
1,55,100,120
1,55,0,24
1,57,100,0
1,57,0,24
1,55,100,0
1,55,0,24
1,62,100,0
1,62,0,48
1,64,100,0
1,64,0,24
1,62,100,0
1,62,0,48
1,60,100,0
1,60,0,24
1,60,100,0
1,60,0,24
1,60,100,0
1,60,0,24
1,62,100,0
1,62,0,24
1,60,100,0
1,60,0,24
1,60,100,0
1,60,0,48
1,60,100,0
1,60,0,96
1,64,100,96
1,64,0,48
1,67,100,0
1,67,0,24
1,69,100,0
1,69,0,24
1,67,100,0
1,67,0,24
1,69,100,0
1,69,0,24
1,67,100,528
1,67,0,24
1,74,100,48
1,74,0,72
1,74,100,0
1,74,0,24
1,72,100,0
1,72,0,120
1,72,100,1152
1,72,0,48
1,74,100,0
1,74,0,48
1,79,100,0
1,79,0,24
1,76,100,48
1,76,0,48
1,72,100,0
1,72,0,24
1,74,100,0
1,74,0,24
1,72,100,0
1,72,0,24
1,69,100,0
1,69,0,24
1,67,100,0
1,67,0,24
1,55,100,120
1,55,0,24
1,63,100,0
1,63,0,24
1,63,100,48
1,63,0,48
1,65,100,0
1,65,0,24
1,63,100,24
1,63,0,48
1,62,100,0
1,62,0,24
1,60,100,24
1,60,0,48
1,62,100,0
1,62,0,24
1,62,100,24
1,62,0,120
1,72,100,288
1,72,0,48
1,72,100,0
1,72,0,48
1,69,100,0
1,69,0,24
1,69,100,48
1,69,0,24
1,72,100,0
1,72,0,24
1,72,100,0
1,72,0,24
1,72,100,0
1,72,0,48
1,69,100,0
1,69,0,96
1,72,100,0
1,72,0,48
1,74,100,0
1,74,0,48
1,69,100,0
1,69,0,96
1,72,100,0
1,72,0,48
1,72,100,0
1,72,0,48
1,69,100,0
1,69,0,96
1,72,100,0
1,72,0,48
1,69,100,0
1,69,0,48
1,67,100,0
1,67,0,48
1,76,100,0
1,76,0,72
1,74,100,0
1,74,0,24
1,72,100,48
1,72,0,48
1,69,100,0
1,69,0,48
1,72,100,0
1,72,0,48
1,69,100,0
1,69,0,48
1,67,100,0
1,67,0,48
1,72,100,0
1,72,0,96
1,69,100,0
1,69,0,96
1,72,100,59
1,72,0,48
1,72,100,0
1,72,0,48
1,69,100,0
1,69,0,24
1,69,100,48
1,69,0,24
1,72,100,0
1,72,0,24
1,72,100,0
1,72,0,24
1,72,100,0
1,72,0,48
1,69,100,0
1,69,0,96
1,72,100,0
1,72,0,48
1,74,100,0
1,74,0,48
1,69,100,0
1,69,0,96
1,72,100,0
1,72,0,48
1,72,100,0
1,69,100,37
1,72,0,11
1,69,0,37
1,67,100,0
1,67,0,48
1,72,100,11
1,72,0,48
1,69,100,0
1,69,0,48
1,67,100,0
1,67,0,48
1,76,100,0
1,76,0,72
1,74,100,0
1,74,0,24
1,72,100,48
1,72,0,48
1,69,100,0
1,69,0,48
1,72,100,0
1,72,0,48
1,69,100,0
1,69,0,48
1,67,100,0
1,67,0,48
1,72,100,0
1,69,100,85
1,72,0,11
1,69,0,37
1,67,100,24
1,67,0,24
1,72,100,0
1,72,0,24
1,74,100,0
1,74,0,24
1,72,100,6144
1,72,0,48
1,72,100,0
1,72,0,48
1,69,100,0
1,69,0,24
1,69,100,48
1,69,0,24
1,72,100,0
1,72,0,24
1,72,100,0
1,72,0,24
1,72,100,0
1,72,0,48
1,69,100,0
1,69,0,96
1,72,100,0
1,72,0,48
1,74,100,0
1,74,0,48
1,69,100,0
1,69,0,96
1,72,100,0
1,72,0,48
1,72,100,0
1,72,0,48
1,69,100,0
1,69,0,96
1,72,100,0
1,72,0,48
1,69,100,0
1,69,0,48
1,67,100,0
1,67,0,48
1,76,100,0
1,76,0,72
1,74,100,0
1,74,0,24
1,72,100,48
1,72,0,48
1,69,100,0
1,69,0,48
1,72,100,0
1,72,0,48
1,69,100,0
1,69,0,48
1,67,100,0
1,67,0,48
1,72,100,0
1,72,0,96
1,69,100,0
1,69,0,96
1,72,100,59
1,72,0,48
1,72,100,0
1,72,0,48
1,69,100,0
1,69,0,24
1,69,100,48
1,69,0,24
1,72,100,0
1,72,0,24
1,72,100,0
1,72,0,24
1,72,100,0
1,72,0,48
1,69,100,0
1,69,0,96
1,72,100,0
1,72,0,48
1,74,100,0
1,74,0,48
1,69,100,0
1,69,0,96
1,72,100,0
1,72,0,48
1,72,100,0
1,69,100,37
1,72,0,11
1,69,0,37
1,67,100,0
1,67,0,48
1,72,100,11
1,72,0,48
1,69,100,0
1,69,0,48
1,67,100,0
1,67,0,48
1,76,100,0
1,76,0,72
1,74,100,0
1,74,0,24
1,72,100,48
1,72,0,48
1,69,100,0
1,69,0,48
1,72,100,0
1,72,0,48
1,69,100,0
1,69,0,48
1,67,100,0
1,67,0,48
1,72,100,0
1,69,100,85
1,72,0,11
1,69,0,37
1,72,100,6240
1,72,0,48
1,72,100,0
1,72,0,48
1,69,100,0
1,69,0,24
1,69,100,48
1,69,0,24
1,72,100,0
1,72,0,24
1,72,100,0
1,72,0,24
1,72,100,0
1,72,0,48
1,69,100,0
1,69,0,96
1,72,100,0
1,72,0,48
1,74,100,0
1,74,0,48
1,69,100,0
1,69,0,96
1,72,100,0
1,72,0,48
1,72,100,0
1,72,0,48
1,69,100,0
1,69,0,96
1,72,100,0
1,72,0,48
1,69,100,0
1,69,0,48
1,67,100,0
1,67,0,48
1,76,100,0
1,76,0,72
1,74,100,0
1,74,0,24
1,72,100,48
1,72,0,48
1,69,100,0
1,69,0,48
1,72,100,0
1,72,0,48
1,69,100,0
1,69,0,48
1,67,100,0
1,67,0,48
1,72,100,0
1,72,0,96
1,69,100,0
1,69,0,96
1,72,100,59
1,72,0,48
1,72,100,0
1,72,0,48
1,69,100,0
1,69,0,24
1,69,100,48
1,69,0,24
1,72,100,0
1,72,0,24
1,72,100,0
1,72,0,24
1,72,100,0
1,72,0,48
1,69,100,0
1,69,0,96
1,72,100,0
1,72,0,48
1,74,100,0
1,74,0,48
1,69,100,0
1,69,0,96
1,72,100,0
1,72,0,48
1,72,100,0
1,69,100,37
1,72,0,11
1,69,0,37
1,67,100,0
1,67,0,48
1,72,100,11
1,72,0,48
1,69,100,0
1,69,0,48
1,67,100,0
1,67,0,48
1,76,100,0
1,76,0,72
1,74,100,0
1,74,0,24
1,72,100,48
1,72,0,48
1,69,100,0
1,69,0,48
1,72,100,0
1,72,0,48
1,69,100,0
1,69,0,48
1,67,100,0
1,67,0,48
1,72,100,0
1,69,100,85
1,72,0,11
1,69,0,37
1,72,100,96
1,72,0,48
1,72,100,0
1,72,0,48
1,69,100,0
1,69,0,24
1,69,100,48
1,69,0,24
1,72,100,0
1,72,0,24
1,72,100,0
1,72,0,24
1,72,100,0
1,72,0,48
1,69,100,0
1,69,0,96
1,72,100,0
1,72,0,48
1,74,100,0
1,74,0,48
1,69,100,0
1,69,0,96
1,72,100,0
1,72,0,48
1,72,100,0
1,72,0,48
1,69,100,0
1,69,0,96
1,72,100,0
1,72,0,48
1,69,100,0
1,69,0,48
1,67,100,0
1,67,0,48
1,76,100,0
1,76,0,72
1,74,100,0
1,74,0,24
1,72,100,48
1,72,0,48
1,69,100,0
1,69,0,48
1,72,100,0
1,72,0,48
1,69,100,0
1,69,0,48
1,67,100,0
1,67,0,48
1,72,100,0
1,72,0,96
1,69,100,0
1,69,0,96
1,72,100,59
1,72,0,48
1,72,100,0
1,72,0,48
1,69,100,0
1,69,0,24
1,69,100,48
1,69,0,24
1,72,100,0
1,72,0,24
1,72,100,0
1,72,0,24
1,72,100,0
1,72,0,48
1,69,100,0
1,69,0,96
1,72,100,0
1,72,0,48
1,74,100,0
1,74,0,48
1,69,100,0
1,69,0,96
1,72,100,0
1,72,0,48
1,72,100,0
1,69,100,37
1,72,0,11
1,69,0,37
1,67,100,0
1,67,0,48
1,72,100,11
1,72,0,48
1,69,100,0
1,69,0,48
1,67,100,0
1,67,0,48
1,76,100,0
1,76,0,72
1,74,100,0
1,74,0,24
1,72,100,48
1,72,0,48
1,69,100,0
1,69,0,48
1,72,100,0
1,72,0,48
1,69,100,0
1,69,0,48
1,67,100,0
1,67,0,48
1,72,100,0
1,69,100,85
1,72,0,11
1,69,0,85
2,76,100,9840
2,76,0,48
2,74,100,0
2,74,0,48
2,72,100,0
2,72,0,48
2,69,100,0
2,69,0,24
2,72,100,48
2,72,0,72
2,74,100,0
2,74,0,192
2,69,100,0
2,69,0,48
2,67,100,0
2,67,0,24
2,74,100,48
2,74,0,72
2,74,100,0
2,74,0,24
2,72,100,0
2,72,0,120
2,67,100,48
2,67,0,48
2,68,100,0
2,68,0,24
2,72,100,48
2,72,0,72
2,74,100,0
2,74,0,72
2,72,100,0
2,72,0,24
2,76,100,0
2,76,0,24
2,74,100,0
2,74,0,48
2,72,100,0
2,72,0,24
2,69,100,24
2,69,0,24
2,74,100,0
2,74,0,48
2,72,100,0
2,72,0,144
2,72,100,24
2,72,0,24
2,76,100,24
2,76,0,24
2,74,100,0
2,74,0,48
2,72,100,0
2,72,0,48
2,69,100,0
2,69,0,24
2,72,100,48
2,72,0,72
2,74,100,0
2,74,0,144
2,72,100,0
2,72,0,48
2,74,100,0
2,74,0,48
2,79,100,0
2,79,0,24
2,76,100,48
2,76,0,48
2,72,100,0
2,72,0,24
2,74,100,0
2,74,0,24
2,72,100,0
2,72,0,24
2,69,100,0
2,69,0,24
2,67,100,0
2,67,0,24
2,55,100,96
2,55,0,48
2,63,100,0
2,63,0,24
2,63,100,48
2,63,0,48
2,65,100,0
2,65,0,24
2,63,100,24
2,63,0,48
2,62,100,0
2,62,0,24
2,60,100,24
2,60,0,48
2,62,100,0
2,62,0,24
2,62,100,24
2,62,0,120
2,67,100,72
2,67,0,24
2,69,100,0
2,69,0,24
2,67,100,0
2,67,0,24
2,64,100,0
2,64,0,24
2,63,100,0
2,63,0,24
2,62,100,0
2,62,0,24
2,60,100,0
2,60,0,24
2,57,100,0
2,57,0,48
2,76,100,6000
2,76,0,48
2,74,100,0
2,74,0,48
2,72,100,0
2,72,0,48
2,69,100,0
2,69,0,24
2,72,100,48
2,72,0,72
2,74,100,0
2,74,0,192
2,69,100,0
2,69,0,48
2,67,100,0
2,67,0,24
2,74,100,48
2,74,0,72
2,74,100,0
2,74,0,24
2,72,100,0
2,72,0,120
2,67,100,48
2,67,0,48
2,68,100,0
2,68,0,24
2,72,100,48
2,72,0,72
2,74,100,0
2,74,0,72
2,72,100,0
2,72,0,24
2,76,100,0
2,76,0,24
2,74,100,0
2,74,0,48
2,72,100,0
2,72,0,24
2,69,100,24
2,69,0,24
2,74,100,0
2,74,0,48
2,72,100,0
2,72,0,144
2,72,100,24
2,72,0,24
2,76,100,24
2,76,0,24
2,74,100,0
2,74,0,48
2,72,100,0
2,72,0,48
2,69,100,0
2,69,0,24
2,72,100,48
2,72,0,72
2,74,100,0
2,74,0,144
2,72,100,0
2,72,0,48
2,74,100,0
2,74,0,48
2,79,100,0
2,79,0,24
2,76,100,48
2,76,0,48
2,72,100,0
2,72,0,24
2,74,100,0
2,74,0,24
2,72,100,0
2,72,0,24
2,69,100,0
2,69,0,24
2,67,100,0
2,67,0,24
2,55,100,96
2,55,0,48
2,63,100,0
2,63,0,24
2,63,100,48
2,63,0,48
2,65,100,0
2,65,0,24
2,63,100,24
2,63,0,48
2,62,100,0
2,62,0,24
2,60,100,24
2,60,0,48
2,62,100,0
2,62,0,24
2,62,100,24
2,62,0,120
2,67,100,72
2,67,0,24
2,69,100,0
2,69,0,24
2,67,100,0
2,67,0,24
2,64,100,0
2,64,0,24
2,63,100,0
2,63,0,24
2,62,100,0
2,62,0,24
2,60,100,0
2,60,0,24
2,57,100,0
2,57,0,48
2,72,100,10763
2,72,0,48
2,72,100,0
2,72,0,48
2,69,100,0
2,69,0,24
2,69,100,48
2,69,0,24
2,72,100,0
2,72,0,24
2,72,100,0
2,72,0,24
2,72,100,0
2,72,0,48
2,69,100,0
2,69,0,96
2,72,100,0
2,72,0,48
2,74,100,0
2,74,0,48
2,69,100,0
2,69,0,96
2,72,100,0
2,72,0,48
2,72,100,0
2,69,100,37
2,72,0,11
2,69,0,37
2,67,100,0
2,67,0,48
2,72,100,11
2,72,0,48
2,69,100,0
2,69,0,48
2,67,100,0
2,67,0,48
2,76,100,0
2,76,0,72
2,74,100,0
2,74,0,24
2,72,100,48
2,72,0,48
2,69,100,0
2,69,0,48
2,72,100,0
2,72,0,48
2,69,100,0
2,69,0,48
2,67,100,0
2,67,0,48
2,72,100,0
2,69,100,85
2,72,0,11
2,69,0,37
2,72,100,96
2,72,0,48
2,72,100,0
2,72,0,48
2,69,100,0
2,69,0,24
2,69,100,48
2,69,0,24
2,72,100,0
2,72,0,24
2,72,100,0
2,72,0,24
2,72,100,0
2,72,0,48
2,69,100,0
2,69,0,96
2,72,100,0
2,72,0,48
2,74,100,0
2,74,0,48
2,69,100,0
2,69,0,96
2,72,100,0
2,72,0,48
2,72,100,0
2,72,0,48
2,69,100,0
2,69,0,96
2,72,100,0
2,72,0,48
2,69,100,0
2,69,0,48
2,67,100,0
2,67,0,48
2,76,100,0
2,76,0,72
