track,note,velocity,time
3,69,127,4800
3,69,127,24
3,69,127,24
3,69,127,48
3,69,127,48
3,69,127,12
3,66,127,12
3,66,127,48
3,66,127,12
3,66,127,12
3,57,127,168
3,69,127,24
3,69,127,24
3,69,127,24
3,69,127,24
3,64,127,24
3,66,127,48
3,66,127,48
3,69,127,768
3,69,127,24
3,69,127,24
3,69,127,24
3,66,127,24
3,64,127,0
3,62,127,0
3,69,127,264
3,69,127,24
3,69,127,24
3,66,127,48
3,64,127,0
3,62,127,0
3,62,127,144
3,66,127,24
3,69,127,24
3,69,127,24
3,69,127,24
3,69,127,24
3,69,127,48
3,64,127,0
3,66,127,0
3,69,127,408
3,69,127,48
3,69,127,24
3,69,127,24
3,69,127,24
3,69,127,48
3,71,127,24
3,72,127,48
3,72,127,240
3,71,127,48
3,69,127,24
3,71,127,24
3,69,127,48
3,69,127,24
3,67,127,24
3,67,127,24
3,69,127,24
3,62,127,24
3,66,127,24
3,66,127,24
3,64,127,0
3,57,127,648
3,69,127,24
3,69,127,24
3,69,127,24
3,64,127,48
3,62,127,0
3,57,127,144
3,69,127,24
3,69,127,24
3,69,127,24
3,69,127,24
3,64,127,24
3,66,127,288
3,69,127,24
3,71,127,72
3,66,127,144
3,64,127,24
3,62,127,0
3,74,127,408
3,74,127,24
3,74,127,24
3,71,127,24
3,74,127,480
3,74,127,0
3,71,127,0
3,59,127,360
3,71,127,0
3,74,127,0
3,74,127,0
3,74,127,240
3,74,127,0
3,59,127,240
3,71,127,0
3,74,127,0
3,76,127,0
3,74,127,0
3,78,127,0
3,76,127,0
3,76,127,0
3,74,127,0
3,74,127,0
3,71,127,0
3,69,127,0
3,69,127,0
3,71,127,0
3,74,127,0
3,71,127,480
3,74,127,0
3,74,127,0
3,74,127,24
3,74,127,48
3,74,127,144
3,74,127,24
3,71,127,24
3,74,127,24
3,74,127,24
3,74,127,24
3,74,127,168
3,74,127,24
3,74,127,24
3,66,127,648
3,64,127,24
3,62,127,24
3,62,127,24
3,64,127,168
3,64,127,12
3,62,127,12
3,67,127,1608
3,69,127,0
3,69,127,24
3,69,127,24
3,69,127,24
3,69,127,48
3,69,127,12
3,66,127,24
3,66,127,120
3,66,127,0
3,66,127,12
3,64,127,24
3,62,127,24
3,57,127,144
3,69,127,24
3,69,127,24
3,71,127,24
3,62,127,24
3,62,127,24
3,64,127,24
3,66,127,24
3,69,127,744
3,69,127,24
3,69,127,24
3,66,127,24
3,64,127,0
3,62,127,0
3,69,127,264
3,69,127,24
3,69,127,24
3,66,127,48
3,64,127,0
3,62,127,0
3,62,127,144
3,66,127,24
3,69,127,24
3,69,127,24
3,71,127,24
3,69,127,48
3,64,127,24
3,66,127,0
3,69,127,408
3,69,127,48
3,69,127,24
3,69,127,24
3,69,127,24
3,69,127,48
3,71,127,24
3,72,127,48
3,72,127,240
3,71,127,48
3,69,127,24
3,71,127,24
3,69,127,48
3,69,127,24
3,67,127,24
3,67,127,24
3,69,127,24
3,62,127,24
3,66,127,24
3,64,127,0
3,57,127,648
3,69,127,24
3,69,127,24
3,69,127,24
3,69,127,24
3,64,127,24
3,62,127,0
3,57,127,144
3,69,127,24
3,69,127,24
3,69,127,24
3,69,127,24
3,64,127,24
3,66,127,288
3,69,127,24
3,71,127,72
3,66,127,144
3,64,127,24
3,62,127,0
3,74,127,408
3,74,127,24
3,74,127,24
3,71,127,24
3,74,127,480
3,74,127,0
3,71,127,0
3,59,127,360
3,71,127,0
3,74,127,0
3,74,127,0
3,74,127,240
3,74,127,0
3,59,127,240
3,71,127,0
3,74,127,0
3,76,127,0
3,74,127,0
3,78,127,0
3,76,127,0
3,76,127,0
3,74,127,0
3,74,127,0
3,71,127,0
3,69,127,0
3,69,127,0
3,71,127,0
3,74,127,0
3,71,127,480
3,74,127,0
3,74,127,0
3,74,127,24
3,74,127,48
3,74,127,144
3,74,127,24
3,71,127,24
3,74,127,24
3,74,127,24
3,74,127,24
3,74,127,168
3,74,127,24
3,74,127,24
3,66,127,1368
3,66,127,12
3,64,127,12
3,62,127,24
3,62,127,24
3,64,127,3408
3,66,127,24
3,64,127,24
3,62,127,24
3,62,127,24
3,62,127,288
3,62,127,24
3,66,127,24
3,64,127,96
3,62,127,24
3,66,127,5184
3,66,127,12
3,64,127,12
3,62,127,24
3,62,127,24
3,64,127,3408
3,66,127,24
3,64,127,24
3,62,127,24
3,62,127,24
3,62,127,288
3,62,127,24
3,66,127,24
3,64,127,96
3,62,127,24
3,66,127,5184
3,66,127,12
3,64,127,12
3,62,127,24
3,62,127,24
3,64,111,3408
3,66,109,24
3,64,106,24
3,62,104,24
3,62,101,24
3,62,90,288
3,62,87,24
3,66,85,24
3,64,74,96
3,62,67,24
4,45,72,1080
4,54,72,0
4,45,72,0
4,45,72,0
4,52,72,0
4,50,72,0
4,45,72,0
4,45,72,120
4,45,72,0
4,54,72,0
4,52,72,0
4,45,72,0
4,45,72,0
4,50,72,0
4,55,72,120
4,50,72,0
4,45,72,0
4,45,72,0
4,55,72,0
4,50,72,0
4,45,72,0
4,55,72,0
4,50,72,0
4,45,72,0
4,45,72,120
4,50,72,0
4,55,72,0
4,45,72,0
4,45,72,0
4,50,72,0
4,55,72,0
4,45,72,0
4,50,72,0
4,55,72,0
4,54,72,240
4,52,72,48
4,50,72,48
4,52,72,288
4,50,72,48
4,54,72,288
4,45,72,0
4,50,72,0
4,45,72,0
4,50,72,0
4,45,72,0
4,54,72,0
4,45,72,0
4,52,72,0
4,45,72,0
4,50,72,0
4,45,72,0
4,50,72,0
4,47,72,0
4,50,72,0
4,47,72,0
4,50,72,0
4,47,72,0
4,54,72,0
4,50,72,0
4,45,72,0
4,45,72,0
4,54,72,0
4,52,72,0
4,45,72,0
4,45,72,0
4,50,72,0
4,54,72,240
4,52,72,0
4,54,72,0
4,50,72,0
4,50,72,0
4,47,72,0
4,47,72,0
4,43,72,0
4,50,72,0
4,47,72,0
4,47,72,0
4,54,72,240
4,45,72,0
4,52,72,240
4,49,72,0
4,52,72,0
4,49,72,0
4,52,72,240
4,49,72,0
4,52,72,0
4,49,72,0
4,45,72,0
4,42,72,0
4,54,72,0
4,52,72,0
4,50,72,0
4,55,72,0
4,50,72,0
4,59,72,0
4,55,72,0
4,59,72,0
4,55,72,0
4,59,72,0
4,55,72,0
4,59,72,0
4,59,72,0
4,55,72,0
4,59,72,0
4,59,72,0
4,59,72,0
4,55,72,0
4,59,72,120
4,59,72,0
4,59,72,240
4,59,72,0
4,55,72,0
4,55,72,0
4,59,72,0
4,55,72,0
4,59,72,0
4,62,72,0
4,57,72,0
4,59,72,0
4,55,72,0
4,59,72,0
4,55,72,0
4,57,72,0
4,54,72,0
4,57,72,0
4,54,72,0
4,52,72,0
4,55,72,0
4,54,72,0
4,50,72,0
4,56,72,0
4,52,72,0
4,59,72,0
4,55,72,0
4,59,72,0
4,55,72,0
4,59,72,0
4,55,72,0
4,59,72,0
4,55,72,0
4,59,72,0
4,55,72,0
4,59,72,0
4,55,72,0
4,57,72,0
4,54,72,0
4,54,72,0
4,45,72,0
4,52,72,0
4,45,72,0
4,50,72,0
4,45,72,0
4,45,72,240
4,54,72,0
4,52,72,0
4,45,72,0
4,50,72,0
4,45,72,0
4,55,72,120
4,50,72,0
4,45,72,0
4,45,72,0
4,55,72,0
4,50,72,0
4,45,72,0
4,55,72,0
4,50,72,0
4,45,72,0
4,55,72,120
4,50,72,0
4,45,72,0
4,45,72,0
4,55,72,0
4,50,72,0
4,45,72,0
4,55,72,0
4,50,72,0
4,45,72,0
4,54,72,240
4,52,72,48
4,50,72,48
4,52,72,288
4,50,72,48
4,54,72,288
4,45,72,0
4,45,72,0
4,50,72,0
4,45,72,0
4,50,72,0
4,45,72,0
4,54,72,0
4,45,72,0
4,52,72,0
4,45,72,0
4,50,72,0
4,47,72,0
4,50,72,0
4,47,72,0
4,50,72,0
4,47,72,0
4,50,72,0
4,45,72,0
4,50,72,0
4,54,72,0
4,54,72,0
4,45,72,0
4,45,72,0
4,52,72,0
4,50,72,0
4,45,72,0
4,54,72,240
4,52,72,0
4,50,72,0
4,54,72,0
4,47,72,0
4,50,72,0
4,47,72,0
4,43,72,0
4,50,72,0
4,47,72,0
4,47,72,0
4,54,72,240
4,45,72,0
4,49,72,240
4,52,72,0
4,49,72,0
4,52,72,0
4,49,72,240
4,52,72,0
4,49,72,0
4,52,72,0
4,42,72,0
4,45,72,0
4,54,72,0
4,52,72,0
4,50,72,0
4,50,72,0
4,55,72,0
4,55,72,0
4,59,72,0
4,55,72,0
4,59,72,0
4,55,72,0
4,59,72,0
4,59,72,0
4,59,72,0
4,55,72,0
4,59,72,0
4,59,72,0
4,59,72,0
4,55,72,0
4,59,72,120
4,59,72,0
4,59,72,240
4,59,72,0
4,55,72,0
4,59,72,0
4,55,72,0
4,59,72,0
4,55,72,0
4,57,72,0
4,62,72,0
4,55,72,0
4,59,72,0
4,55,72,0
4,59,72,0
4,54,72,0
4,57,72,0
4,54,72,0
4,57,72,0
4,55,72,0
4,52,72,0
4,50,72,0
4,54,72,0
4,52,72,0
4,56,72,0
4,55,72,0
4,59,72,0
4,55,72,0
4,59,72,0
4,55,72,0
4,59,72,0
4,55,72,0
4,59,72,0
4,55,72,0
4,59,72,0
4,55,72,0
4,59,72,0
4,54,72,0
4,57,72,0
4,54,72,120
4,50,72,0
4,54,72,24
4,50,72,0
4,54,72,48
4,50,72,0
4,54,72,48
4,50,72,0
4,54,72,24
4,50,72,0
4,54,72,24
4,50,72,0
4,54,72,48
4,50,72,0
4,52,72,24
4,47,72,0
4,50,72,24
4,45,72,0
4,55,72,408
4,50,72,0
4,45,72,0
4,45,72,48
4,55,72,24
4,50,72,0
4,45,72,0
4,55,72,48
4,50,72,0
4,45,72,0
4,45,72,168
4,50,72,0
4,55,72,0
4,45,72,48
4,45,72,24
4,50,72,0
4,55,72,0
4,45,72,48
4,50,72,0
4,55,72,0
4,50,72,168
4,54,72,0
4,50,72,24
4,54,72,0
4,50,72,48
4,54,72,0
4,50,72,48
4,54,72,0
4,50,72,24
4,54,72,0
4,50,72,24
4,54,72,0
4,50,72,48
4,54,72,0
4,47,72,24
4,52,72,0
4,45,72,24
4,50,72,0
4,47,72,288
4,43,72,0
4,47,72,48
4,43,72,0
4,50,72,96
4,45,72,0
4,47,72,96
4,43,72,0
4,45,72,72
4,42,72,0
4,45,72,0
4,54,72,0
4,57,72,0
4,45,72,0
4,52,72,0
4,57,72,0
4,45,72,0
4,57,72,0
4,52,72,0
4,45,72,0
4,45,72,120
4,57,72,0
4,54,72,0
4,45,72,0
4,55,72,0
4,52,72,0
4,45,72,0
4,54,72,0
4,50,72,0
4,45,72,0
4,55,72,120
4,50,72,0
4,45,72,0
4,45,72,0
4,55,72,0
4,50,72,0
4,45,72,0
4,55,72,0
4,45,72,0
4,50,72,0
4,45,72,120
4,50,72,0
4,55,72,0
4,45,72,0
4,45,72,0
4,50,72,0
4,55,72,0
4,50,72,0
4,45,72,0
4,55,72,0
4,50,72,120
4,54,72,0
4,50,72,24
4,54,72,0
4,50,72,48
4,54,72,0
4,50,72,48
4,54,72,0
4,50,72,24
4,54,72,0
4,50,72,24
4,54,72,0
4,50,72,48
4,54,72,0
4,47,72,24
4,52,72,0
4,45,72,24
4,50,72,0
4,45,72,408
4,50,72,0
4,55,72,0
4,45,72,48
4,45,72,24
4,50,72,0
4,55,72,0
4,45,72,48
4,50,72,0
4,55,72,0
4,55,72,168
4,50,72,0
4,45,72,0
4,45,72,48
4,55,72,24
4,50,72,0
4,45,72,0
4,55,72,48
4,50,72,0
4,45,72,0
4,54,72,168
4,50,72,0
4,54,72,24
4,50,72,0
4,54,72,48
4,50,72,0
4,54,72,48
4,50,72,0
4,54,72,24
4,50,72,0
4,54,72,24
4,50,72,0
4,54,72,48
4,50,72,0
4,52,72,24
4,47,72,0
4,50,72,24
4,45,72,0
4,43,72,288
4,47,72,0
4,43,72,48
4,47,72,0
4,45,72,96
4,50,72,0
4,43,72,96
4,47,72,0
4,42,72,72
4,45,72,0
4,45,72,0
4,57,72,0
4,54,72,0
4,45,72,0
4,57,72,0
4,52,72,0
4,45,72,0
4,52,72,0
4,57,72,0
4,45,72,0
4,45,72,120
4,54,72,0
4,57,72,0
4,45,72,0
4,52,72,0
4,55,72,0
4,45,72,0
4,50,72,0
4,54,72,0
4,45,72,0
4,45,72,120
4,50,72,0
4,55,72,0
4,45,72,0
4,45,72,0
4,50,72,0
4,55,72,0
4,55,72,0
4,50,72,0
4,45,72,0
4,55,72,120
4,50,72,0
4,45,72,0
4,45,72,0
4,55,72,0
4,50,72,0
4,45,72,0
4,50,72,0
4,55,72,0
4,45,72,0
4,54,72,120
4,50,72,0
4,54,72,24
4,50,72,0
4,54,72,48
4,50,72,0
4,54,72,48
4,50,72,0
4,54,72,24
4,50,72,0
4,54,72,24
4,50,72,0
4,54,72,48
4,50,72,0
4,52,72,24
4,47,72,0
4,50,72,24
4,45,72,0
4,55,72,408
4,50,72,0
4,45,72,0
4,45,72,48
4,55,72,24
4,50,72,0
4,45,72,0
4,55,72,48
4,50,72,0
4,45,72,0
4,45,72,168
4,50,72,0
4,55,72,0
4,45,72,48
4,45,72,24
4,50,72,0
4,55,72,0
4,45,72,48
4,50,72,0
4,55,72,0
4,50,72,168
4,54,72,0
4,50,72,24
4,54,72,0
4,50,72,48
4,54,72,0
4,50,72,48
4,54,72,0
4,50,72,24
4,54,72,0
4,50,72,24
4,54,72,0
4,50,69,48
4,54,69,0
4,47,67,24
4,52,67,0
4,45,66,24
4,50,66,0
4,47,60,288
4,43,60,0
4,47,57,48
4,43,57,0
4,50,48,96
4,45,48,0
4,47,42,96
4,43,42,0
4,45,38,72
4,42,38,0
4,45,34,0
4,54,33,0
4,57,33,0
4,45,31,0
4,52,30,0
4,57,30,0
4,45,28,0
4,57,27,0
4,52,27,0
4,45,25,0
4,45,23,120
4,57,21,0
4,54,21,0
4,45,20,0
4,55,18,0
4,52,18,0
4,45,16,0
4,54,15,0
4,50,15,0
4,45,13,0
4,55,10,120
4,50,10,0
4,45,10,0
4,45,7,0
4,55,6,0
4,50,6,0
4,45,6,0
4,55,3,0
4,45,3,0
4,50,3,0
5,74,127,20400
5,74,127,0
5,74,127,0
5,74,127,480
5,74,127,0
5,74,127,0
5,74,127,480
5,74,127,0
5,74,127,240
5,74,127,0
5,74,127,24360
5,74,127,0
5,74,127,0
5,74,127,480
5,74,127,0
5,74,127,0
5,74,127,480
5,74,127,0
5,74,127,240
5,74,127,0
5,69,127,4920
5,69,127,24
5,69,127,24
5,69,127,48
5,69,127,48
5,69,127,24
5,69,127,24
5,69,127,48
5,69,127,24
5,66,127,24
5,69,127,2208
5,69,127,24
5,69,127,24
5,69,127,48
5,69,127,48
5,69,127,24
5,69,127,24
5,69,127,48
5,69,127,24
5,66,127,24
5,66,127,1248
5,64,127,96
5,62,127,24
5,69,127,3624
5,69,127,24
5,69,127,24
5,69,127,48
5,69,127,48
5,69,127,24
5,69,127,24
5,69,127,48
5,69,127,24
5,66,127,24
5,69,127,2208
5,69,127,24
5,69,127,24
5,69,127,48
5,69,127,48
5,69,127,24
5,69,127,24
5,69,127,48
5,69,127,24
5,66,127,24
5,66,127,1248
5,64,127,96
5,62,127,24
5,69,127,3624
5,69,127,24
5,69,127,24
5,69,127,48
5,69,127,48
5,69,127,24
5,69,127,24
5,69,127,48
5,69,127,24
5,66,127,24
5,69,127,2208
5,69,127,24
5,69,127,24
5,69,127,48
5,69,127,48
5,69,127,24
5,69,127,24
5,69,121,48
5,69,119,24
5,66,116,24
5,66,85,1248
5,64,74,96
5,62,67,24
6,38,64,960
6,38,64,0
6,38,64,0
6,38,64,0
6,38,64,0
6,38,64,0
6,38,64,0
6,38,64,0
6,38,64,0
6,38,64,0
6,38,64,0
6,38,64,0
6,38,64,0
6,38,64,0
6,38,64,0
6,38,64,0
6,43,64,0
6,43,64,0
