track,note,velocity,time
1,28,120,3798
1,35,125,13414
1,33,122,56
1,35,121,72
1,33,122,132
1,33,122,42
1,33,122,68
1,33,121,42
1,35,125,50
1,33,123,476
1,33,121,80
1,28,121,68
1,28,121,98
1,35,122,38
1,35,122,44
1,28,122,46
1,28,122,68
1,33,121,44
1,33,117,64
1,28,122,6
1,28,120,52
1,35,122,22
1,30,116,8
1,35,118,50
1,35,118,58
1,34,118,22
1,33,119,32
1,33,121,50
1,28,121,58
1,28,121,66
1,35,119,28
1,35,117,56
1,37,119,50
1,37,122,64
1,35,118,42
1,33,122,34
1,33,117,62
1,28,119,26
1,28,121,42
1,35,118,28
1,35,119,20
1,35,118,120
1,28,120,2
1,28,120,6
1,28,120,1126
1,28,121,6
1,28,121,6
1,28,121,6
1,35,125,70
1,33,122,56
1,35,121,72
1,33,122,132
1,32,122,42
1,30,122,68
1,28,121,42
1,35,125,50
1,33,123,476
1,33,121,80
1,28,121,68
1,28,121,98
1,35,122,38
1,35,122,44
1,28,122,46
1,28,122,68
1,33,121,44
1,33,117,64
1,28,122,6
1,28,120,52
1,35,122,22
1,30,116,8
1,35,118,50
1,35,118,58
1,34,118,22
1,33,119,32
1,33,121,50
1,28,121,58
1,28,121,66
1,35,119,28
1,35,117,56
1,37,119,50
1,37,122,64
1,35,118,42
1,33,122,34
1,33,117,62
1,28,119,26
1,28,121,42
1,35,118,28
1,35,119,20
1,35,118,120
1,28,118,2
1,35,118,24
1,28,118,24
1,28,118,40
1,30,118,40
1,32,118,40
1,33,123,6
1,40,121,80
1,33,121,68
1,33,121,98
1,40,122,38
1,35,122,44
1,40,122,46
1,40,122,68
1,38,121,44
1,33,117,64
1,38,122,6
1,38,120,52
1,35,122,22
1,35,122,36
1,35,122,36
1,35,122,36
1,35,118,36
1,28,122,6154
1,37,121,14
1,32,120,398
1,25,122,10
1,33,112,1130
1,28,119,30
1,28,121,42
1,28,119,28
1,28,121,42
1,35,118,28
1,35,119,20
1,35,118,120
1,28,118,2
1,35,118,24
1,28,118,24
1,28,118,40
1,30,118,40
1,32,118,40
1,33,106,198
1,28,117,6
2,44,101,2
2,40,121,6
2,40,74,76
2,47,86,2
2,52,86,6
2,57,97,8
2,59,98,80
2,40,121,30
2,52,121,8
2,64,91,6
2,59,67,6
2,47,86,4
2,52,86,4
2,40,121,8
2,52,101,8
2,47,86,172
2,52,86,4
2,40,121,2
2,52,101,8
2,47,86,10
2,52,86,4
2,40,121,12
2,52,101,8
2,40,66,168
2,47,78,4
2,52,78,12
2,57,97,4
2,59,98,76
2,40,121,22
2,52,121,8
2,64,91,6
2,59,67,6
2,47,86,4
2,52,86,4
2,40,121,8
2,52,101,8
2,47,86,172
2,52,86,4
2,40,121,2
2,52,101,8
2,45,86,10
2,52,86,4
2,40,121,12
2,52,101,8
2,40,66,168
2,47,78,4
2,52,78,12
2,57,97,4
2,59,98,76
2,40,121,22
2,52,121,8
2,64,91,6
2,59,67,6
2,47,86,4
2,52,86,4
2,40,121,8
2,52,101,8
2,47,86,172
2,52,86,4
2,40,121,2
2,52,101,8
2,47,86,10
2,52,86,4
2,40,121,12
2,52,101,8
2,40,66,168
2,47,78,4
2,52,78,12
2,57,97,4
2,59,98,76
2,40,121,22
2,52,121,8
2,64,91,6
2,59,67,6
2,47,86,4
2,52,86,4
2,40,121,8
2,52,101,8
2,47,86,172
2,52,86,4
2,40,121,2
2,52,101,8
2,45,86,10
2,52,86,4
2,45,121,12
2,52,121,8
2,40,74,168
2,47,86,2
2,52,86,6
2,57,97,8
2,59,98,80
2,40,121,30
2,52,121,8
2,64,91,6
2,59,67,6
2,47,86,4
2,52,86,4
2,40,121,8
2,52,101,8
2,47,86,172
2,52,86,4
2,40,121,2
2,52,101,8
2,47,86,10
2,52,86,4
2,40,121,12
2,52,101,8
2,40,66,168
2,47,78,4
2,52,78,12
2,40,121,22
2,52,121,8
2,47,86,172
2,52,86,4
2,40,121,8
2,52,101,8
2,47,86,172
2,52,86,4
2,40,121,2
2,52,101,8
2,47,86,172
2,52,86,4
2,40,121,12
2,52,101,8
2,45,78,172
2,52,78,12
2,45,121,22
2,52,121,8
2,45,86,172
2,52,86,4
2,45,121,8
2,52,101,8
2,45,86,172
2,52,86,4
2,45,121,2
2,52,101,8
2,45,86,172
2,52,86,4
2,40,121,12
2,52,101,8
2,40,66,168
2,47,78,4
2,52,78,12
2,57,97,4
2,59,98,76
2,40,121,22
2,52,121,8
2,64,91,6
2,59,67,6
2,47,86,4
2,52,86,4
2,40,121,8
2,52,101,8
2,45,86,172
2,52,86,4
2,45,121,2
2,52,101,8
2,45,86,10
2,52,86,4
2,45,121,12
2,52,121,0
2,40,74,176
2,47,86,2
2,52,86,6
2,57,97,8
2,59,98,80
2,40,121,30
2,52,121,8
2,64,91,6
2,59,67,6
2,47,86,4
2,52,86,4
2,40,121,8
2,52,101,8
2,47,86,172
2,52,86,4
2,40,121,2
2,52,101,8
2,47,86,10
2,52,86,4
2,40,121,12
2,52,101,8
2,40,66,168
2,47,78,4
2,52,78,12
2,40,121,22
2,52,121,8
2,47,86,172
2,52,86,4
2,40,121,8
2,52,101,8
2,47,86,172
2,52,86,4
2,40,121,2
2,52,101,8
2,47,86,172
2,52,86,4
2,40,121,12
2,52,101,8
2,45,78,172
2,52,78,12
2,45,121,22
2,52,121,8
2,45,86,172
2,52,86,4
2,45,121,8
2,52,101,8
2,45,86,172
2,52,86,4
2,45,121,2
2,52,101,8
2,45,86,172
2,52,86,4
2,45,121,12
2,52,101,8
2,40,66,168
2,47,78,4
2,52,78,12
2,57,97,4
2,59,98,76
2,40,121,22
2,52,121,8
2,64,91,6
2,59,67,6
2,47,86,4
2,52,86,4
2,40,121,8
2,52,101,8
2,47,86,172
2,52,86,4
2,40,121,2
2,52,101,8
2,47,86,10
2,52,86,4
2,47,121,12
2,54,101,8
2,47,78,172
2,54,78,12
2,47,121,22
2,54,121,8
2,47,86,172
2,54,86,4
2,47,121,8
2,54,101,8
2,47,86,172
2,54,86,4
2,47,121,2
2,54,101,8
2,47,86,172
2,54,86,4
2,45,121,12
2,52,101,8
2,45,78,172
2,52,78,12
2,45,121,22
2,52,121,8
2,45,86,172
2,52,86,4
2,45,121,8
2,52,101,8
2,45,86,172
2,52,86,4
2,45,121,2
2,52,101,8
2,45,86,172
2,52,86,4
2,47,121,12
2,54,101,8
2,47,78,172
2,54,78,12
2,47,121,22
2,54,121,8
2,47,86,172
2,54,86,4
2,47,121,8
2,54,101,8
2,47,86,172
2,54,86,4
2,47,121,2
2,54,101,8
2,47,86,172
2,54,86,4
2,45,121,12
2,52,101,8
2,45,103,50
2,52,103,12
2,45,121,38
2,52,121,8
2,45,111,50
2,52,111,4
2,47,101,50
2,54,101,12
2,57,87,406
2,64,81,0
2,61,85,10
2,64,81,38
2,57,31,26
2,61,49,10
2,64,53,8
2,64,49,34
2,61,48,10
2,57,25,8
2,57,83,48
2,61,83,10
2,64,85,8
2,64,62,14
2,61,49,10
2,57,40,8
2,56,44,30
2,59,49,10
2,64,59,8
2,64,50,28
2,59,48,10
2,56,36,8
2,56,81,32
2,59,76,10
2,64,85,8
2,64,62,2
2,59,48,10
2,56,51,2
2,56,27,28
2,59,42,10
2,64,48,8
2,64,57,34
2,59,51,10
2,56,48,8
2,56,78,34
2,59,81,10
2,64,83,8
2,64,56,10
2,59,45,10
2,56,49,8
2,59,44,34
2,63,49,10
2,66,59,8
2,66,50,28
2,63,48,10
2,59,36,8
2,59,81,32
2,63,76,10
2,66,85,8
2,66,62,2
2,63,48,10
2,59,51,2
2,59,27,28
2,63,42,10
2,66,48,8
2,66,57,34
2,63,51,10
2,59,48,8
2,59,78,34
2,63,81,10
2,66,83,8
2,66,56,10
2,63,45,10
2,59,49,8
2,56,44,34
2,59,49,10
2,64,59,8
2,64,50,28
2,59,48,10
2,56,36,8
2,56,81,32
2,59,76,10
2,64,85,8
2,64,62,2
2,59,48,10
2,56,51,2
2,56,27,28
2,59,42,10
2,64,48,8
2,64,57,34
2,59,51,10
2,56,48,8
2,56,78,34
2,59,81,10
2,64,83,8
2,64,56,10
2,59,45,10
2,56,49,8
2,57,31,34
2,61,49,10
2,64,53,8
2,64,49,34
2,61,48,10
2,57,25,8
2,57,83,48
2,61,83,10
2,64,85,8
2,64,62,14
2,61,49,10
2,57,40,8
2,57,31,30
2,61,49,10
2,64,53,8
2,64,49,34
2,61,48,10
2,57,25,8
2,57,83,48
2,61,83,10
2,64,85,8
2,64,62,14
2,61,49,10
2,57,40,8
2,56,44,30
2,59,49,10
2,64,59,8
2,64,50,28
2,59,48,10
2,56,36,8
2,56,81,32
2,59,76,10
2,64,85,8
2,64,62,2
2,59,48,10
2,56,51,2
2,56,27,28
2,59,42,10
2,64,48,8
2,64,57,34
2,59,51,10
2,56,48,8
2,56,78,34
2,59,81,10
2,64,83,8
2,64,56,10
2,59,45,10
2,56,49,8
2,59,44,34
2,63,49,10
2,66,59,8
2,66,50,28
2,63,48,10
2,59,36,8
2,59,81,32
2,63,76,10
2,66,85,8
2,66,62,2
2,63,48,10
2,59,51,2
2,59,27,28
2,63,42,10
2,66,48,8
2,66,57,34
2,63,51,10
2,59,48,8
2,59,78,34
2,63,81,10
2,66,83,8
2,66,56,10
2,63,45,10
2,59,49,8
2,59,44,34
2,63,49,10
2,66,59,8
2,66,50,28
2,63,48,10
2,59,36,8
2,59,81,32
2,63,76,10
2,66,85,8
2,66,62,2
2,63,48,10
2,59,51,2
2,59,27,28
2,63,42,10
2,66,48,8
2,66,57,34
2,63,51,10
2,59,48,8
2,59,78,34
2,63,81,10
2,66,83,8
2,66,56,10
2,63,45,10
2,59,49,8
2,57,31,34
2,61,49,10
2,64,53,8
2,64,49,34
2,61,48,10
2,57,25,8
2,57,83,48
2,61,83,10
2,64,85,8
2,64,62,14
2,61,49,10
2,57,40,8
2,57,31,30
2,61,49,10
2,64,53,8
2,64,49,34
2,61,48,10
2,57,25,8
2,57,83,48
2,61,83,10
2,64,85,8
2,64,62,14
2,61,49,10
2,57,40,8
2,56,44,30
2,59,49,10
2,64,59,8
2,64,50,28
2,59,48,10
2,56,36,8
2,56,81,32
2,59,76,10
2,64,85,8
2,64,62,2
2,59,48,10
2,56,51,2
2,56,27,28
2,59,42,10
2,64,48,8
2,64,57,34
2,59,51,10
2,56,48,8
2,56,78,34
2,59,81,10
2,64,83,8
2,64,56,10
2,59,45,10
2,56,49,8
2,59,44,34
2,63,49,10
2,66,59,8
2,66,50,28
2,63,48,10
2,59,36,8
2,59,81,32
2,63,76,10
2,66,85,8
2,66,62,2
2,63,48,10
2,59,51,2
2,59,27,28
2,63,42,10
2,66,48,8
2,66,57,34
2,63,51,10
2,59,48,8
2,59,78,34
2,63,81,10
2,66,83,8
2,66,56,10
2,63,45,10
2,59,49,8
2,61,44,34
2,64,49,10
2,68,59,8
2,68,50,28
2,64,48,10
2,61,36,8
2,61,81,32
2,64,76,10
2,68,85,8
2,68,62,2
2,64,48,10
2,61,51,2
2,61,27,28
2,64,42,10
2,68,48,8
2,68,57,34
2,64,51,10
2,61,48,8
2,61,78,34
2,64,81,10
2,68,83,8
2,68,56,10
2,64,45,10
2,61,49,8
2,57,31,34
2,61,49,10
2,64,53,8
2,64,49,34
2,61,48,10
2,57,25,8
2,57,83,48
2,61,83,10
2,64,85,8
2,64,62,14
2,61,49,10
2,57,40,8
2,57,31,30
2,61,49,10
2,64,53,8
2,64,49,34
2,61,48,10
2,57,25,8
2,57,83,48
2,61,83,10
2,64,85,8
2,64,62,14
2,61,49,10
2,57,40,8
2,56,44,30
2,59,49,10
2,64,59,8
2,64,50,28
2,59,48,10
2,56,36,8
2,56,81,32
2,59,76,10
2,64,85,8
2,64,62,2
2,59,48,10
2,56,51,2
2,56,27,28
2,59,42,10
2,64,48,8
2,64,57,34
2,59,51,10
2,56,48,8
2,56,78,34
2,59,81,10
2,64,83,8
2,64,56,10
2,59,45,10
2,56,49,8
2,59,44,34
2,63,49,10
2,66,59,8
2,66,50,28
2,63,48,10
2,59,36,8
2,59,81,32
2,63,76,10
2,66,85,8
2,66,62,2
2,63,48,10
2,59,51,2
2,59,27,28
2,63,42,10
2,66,48,8
2,66,57,34
2,63,51,10
2,59,48,8
2,59,78,34
2,63,81,10
2,66,83,8
2,66,56,10
2,63,45,10
2,59,49,8
2,40,121,34
2,47,121,8
2,40,74,168
2,47,86,2
2,52,86,6
2,57,97,8
2,59,98,80
2,40,121,30
2,52,121,8
2,64,91,6
2,59,67,6
2,47,86,4
2,52,86,4
2,40,121,8
2,52,101,8
2,47,86,172
2,52,86,4
2,40,121,2
2,52,101,8
2,47,86,10
2,52,86,4
2,40,121,12
2,52,101,8
2,40,66,168
2,47,78,4
2,52,78,12
2,57,97,4
2,59,98,76
2,40,121,22
2,52,121,8
2,64,91,6
2,59,67,6
2,47,86,4
2,52,86,4
2,40,121,8
2,52,101,8
2,47,86,172
2,52,86,4
2,40,121,2
2,52,101,8
2,45,86,10
2,52,86,4
2,40,121,12
2,52,101,8
2,40,66,168
2,47,78,4
2,52,78,12
2,57,97,4
2,59,98,76
2,40,121,22
2,52,121,8
2,64,91,6
2,59,67,6
2,47,86,4
2,52,86,4
2,40,121,8
2,52,101,8
2,47,86,172
2,52,86,4
2,40,121,2
2,52,101,8
2,47,86,10
2,52,86,4
2,40,121,12
2,52,101,8
2,40,66,168
2,47,78,4
2,52,78,12
2,57,97,4
2,59,98,76
2,40,121,22
2,52,121,8
2,64,91,6
2,59,67,6
2,47,86,4
2,52,86,4
2,40,121,8
2,52,101,8
2,47,86,172
2,52,86,4
2,40,121,2
2,52,101,8
2,45,86,10
2,52,86,4
2,47,121,12300
2,54,101,8
2,47,78,172
2,54,78,12
2,47,121,22
2,54,121,8
2,47,86,172
2,54,86,4
2,47,121,8
2,54,101,8
2,47,86,172
2,54,86,4
2,47,121,2
2,54,101,8
2,47,86,172
2,54,86,4
2,45,121,12
2,52,101,8
2,45,78,172
2,52,78,12
2,45,121,22
2,52,121,8
2,45,86,172
2,52,86,4
2,45,121,8
2,52,101,8
2,45,86,172
2,52,86,4
2,45,121,2
2,52,101,8
2,45,86,172
2,52,86,4
2,47,121,12
2,54,101,8
2,47,78,172
2,54,78,12
2,47,121,22
2,54,121,8
2,47,86,172
2,54,86,4
2,47,121,8
2,54,101,8
2,47,86,172
2,54,86,4
2,47,121,2
2,54,101,8
2,47,86,172
2,54,86,4
2,45,121,12
2,52,101,8
2,45,103,50
2,52,103,12
2,45,121,38
2,52,121,8
2,45,111,50
2,52,111,4
2,47,101,50
2,54,101,12
2,57,87,406
2,64,81,0
2,61,85,10
2,64,81,38
2,57,31,26
2,61,49,10
2,64,53,8
2,64,49,34
2,61,48,10
2,57,25,8
2,57,83,48
2,61,83,10
2,64,85,8
2,64,62,14
2,61,49,10
2,57,40,8
2,56,44,30
2,59,49,10
2,64,59,8
2,64,50,28
2,59,48,10
2,56,36,8
2,56,81,32
2,59,76,10
2,64,85,8
2,64,62,2
2,59,48,10
2,56,51,2
2,56,27,28
2,59,42,10
2,64,48,8
2,64,57,34
2,59,51,10
2,56,48,8
2,56,78,34
2,59,81,10
2,64,83,8
2,64,56,10
2,59,45,10
2,56,49,8
2,59,44,34
2,63,49,10
2,66,59,8
2,66,50,28
2,63,48,10
2,59,36,8
2,59,81,32
2,63,76,10
2,66,85,8
2,66,62,2
2,63,48,10
2,59,51,2
2,59,27,28
2,63,42,10
2,66,48,8
2,66,57,34
2,63,51,10
2,59,48,8
2,59,78,34
2,63,81,10
2,66,83,8
2,66,56,10
2,63,45,10
2,59,49,8
2,56,44,34
2,59,49,10
2,64,59,8
2,64,50,28
2,59,48,10
2,56,36,8
2,56,81,32
2,59,76,10
2,64,85,8
2,64,62,2
2,59,48,10
2,56,51,2
2,56,27,28
2,59,42,10
2,64,48,8
2,64,57,34
2,59,51,10
2,56,48,8
