track,note,velocity,time
3,67,66,2462
3,67,0,119
3,69,78,0
3,69,0,58
3,67,103,1
3,67,0,119
3,64,124,1
3,64,0,119
3,65,126,1
3,65,0,119
3,67,112,1
3,62,70,61
3,67,0,1
3,62,0,290
3,60,66,70
3,60,0,119
3,64,78,0
3,64,0,58
3,67,103,1
3,67,0,119
3,64,124,1
3,64,0,119
3,62,126,1
3,62,0,179
3,67,70,2
3,67,0,291
3,67,66,70
3,67,0,119
3,69,78,0
3,69,0,58
3,67,103,1
3,67,0,119
3,64,124,1
3,64,0,119
3,65,126,1
3,67,80,61
3,65,0,1
3,67,0,118
3,65,70,1
3,65,0,119
3,62,72,1
3,62,0,175
3,60,123,4
3,60,0,119
3,72,114,1
3,72,0,119
3,71,103,1
3,71,0,119
3,67,124,1
3,67,0,119
3,69,126,1
3,69,0,179
3,67,70,2
3,67,0,291
3,60,78,189
3,60,0,58
3,69,103,1
3,69,0,62
3,72,77,0
3,72,0,58
3,69,124,0
3,64,69,61
3,69,0,1
3,64,0,57
3,67,126,1
3,67,0,119
3,69,112,1
3,67,70,61
3,69,0,1
3,67,0,290
3,65,103,248
3,65,0,62
3,64,77,0
3,64,0,58
3,62,124,0
3,64,69,61
3,62,0,1
3,64,0,57
3,67,126,1
3,67,0,235
3,64,72,66
3,64,0,58
3,67,105,1
3,64,73,60
3,67,0,2
3,64,0,57
3,69,123,1
3,69,0,62
3,69,66,0
3,69,0,175
3,69,103,3
3,69,0,179
3,67,69,2
3,67,0,58
3,72,126,1
3,69,80,61
3,72,0,1
3,69,0,174
3,69,112,4
3,67,72,61
3,69,0,1
3,67,0,174
3,64,123,4
3,62,49,34
3,64,0,1
3,62,0,27
3,60,66,0
3,60,0,408
3,67,66,552
3,67,0,119
3,69,78,0
3,69,0,58
3,67,103,1
3,67,0,119
3,64,124,1
3,64,0,119
3,65,126,1
3,65,0,119
3,67,112,1
3,62,70,61
3,67,0,1
3,62,0,290
3,60,66,70
3,60,0,119
3,64,78,0
3,64,0,58
3,67,103,1
3,67,0,119
3,64,124,1
3,64,0,119
3,62,126,1
3,62,0,179
3,67,70,2
3,67,0,291
3,67,66,70
3,67,0,119
3,69,78,0
3,69,0,58
3,67,103,1
3,67,0,119
3,64,124,1
3,64,0,119
3,65,126,1
3,67,80,61
3,65,0,1
3,67,0,118
3,62,70,1
3,62,0,235
3,55,73,4
3,55,0,59
3,60,123,1
3,60,0,119
3,72,114,1
3,72,0,119
3,71,103,1
3,71,0,119
3,67,124,1
3,67,0,119
3,69,126,1
3,69,0,179
3,67,70,2
3,67,0,291
3,60,78,189
3,60,0,58
3,69,103,1
3,69,0,62
3,72,77,0
3,72,0,58
3,69,124,0
3,64,69,61
3,69,0,1
3,64,0,57
3,67,126,1
3,67,0,119
3,69,112,1
3,67,70,61
3,69,0,1
3,67,0,290
3,65,103,248
3,65,0,62
3,64,77,0
3,64,0,58
3,62,124,0
3,64,69,61
3,62,0,1
3,64,0,57
3,67,126,1
3,67,0,235
3,64,72,66
3,64,0,58
3,67,105,1
3,64,73,60
3,67,0,2
3,64,0,57
3,69,123,1
3,69,0,62
3,69,66,0
3,69,0,175
3,69,103,3
3,69,0,179
3,67,69,2
3,67,0,58
3,72,126,1
3,69,80,61
3,72,0,1
3,69,0,174
3,69,112,4
3,67,72,61
3,69,0,1
3,67,0,174
3,64,123,4
3,62,49,34
3,64,0,1
3,62,0,27
3,60,66,0
3,60,0,408
3,69,123,490
3,69,0,62
3,72,66,0
3,72,0,175
3,71,103,3
3,71,0,119
3,69,124,1
3,69,0,119
3,67,126,1
3,67,0,119
3,64,112,1
3,69,70,61
3,64,0,1
3,69,0,174
3,62,66,186
3,62,0,58
3,65,114,0
3,62,78,61
3,65,0,1
3,62,0,57
3,67,103,1
3,67,0,62
3,65,77,0
3,65,0,119
3,64,69,0
3,64,0,175
3,64,112,4
3,64,0,119
3,65,112,1
3,65,0,119
3,67,105,1
3,67,0,119
3,69,123,1
3,69,0,62
3,72,66,0
3,72,0,119
3,71,78,0
3,71,0,175
3,69,124,4
3,69,0,119
3,67,126,1
3,67,0,119
3,64,112,1
3,69,70,61
3,64,0,1
3,69,0,290
3,69,114,128
3,71,78,61
3,69,0,1
3,71,0,57
3,72,103,1
3,72,0,119
3,74,124,1
3,74,0,119
3,74,126,1
3,72,58,92
3,74,0,1
3,71,48,58
3,72,0,4
3,71,0,80
3,71,112,5
3,69,75,92
3,71,0,1
3,67,57,57
3,69,0,5
3,67,0,77
3,69,123,8
3,67,65,92
3,69,0,1
3,64,48,59
3,67,0,3
3,64,0,81
3,69,103,4
3,69,0,62
3,69,77,0
3,69,0,175
3,67,80,64
3,67,0,119
3,69,70,1
3,69,0,58
3,67,112,1
3,67,0,119
3,64,105,1
3,64,0,119
3,65,123,1
3,65,0,119
3,67,114,1
3,62,78,61
3,67,0,1
3,62,0,290
3,60,80,69
3,60,0,119
3,64,70,1
3,64,0,58
3,67,112,1
3,67,0,119
3,64,105,1
3,64,0,119
3,62,123,1
3,62,0,179
3,67,78,2
3,67,0,291
3,55,80,69
3,55,0,58
3,67,112,1
3,69,70,61
3,67,0,1
3,69,0,57
3,67,112,1
3,67,0,119
3,64,105,1
3,64,0,119
3,65,123,1
3,65,0,119
3,67,114,1
3,67,0,119
3,65,103,1
3,65,0,62
3,62,77,0
3,62,0,119
3,60,69,0
3,60,0,175
3,72,112,4
3,72,0,119
3,71,112,1
3,71,0,119
3,67,105,1
3,67,0,119
3,69,123,1
3,69,0,179
3,67,78,2
3,67,0,291
3,60,70,189
3,60,0,58
3,69,112,1
3,72,72,61
3,69,0,1
3,72,0,57
3,69,105,1
3,64,73,60
3,69,0,2
3,64,0,57
3,67,123,1
3,67,0,119
3,69,114,1
3,67,78,61
3,69,0,1
3,67,0,290
3,65,112,248
3,64,72,61
3,65,0,1
3,64,0,57
3,62,105,1
3,64,73,60
3,62,0,2
3,64,0,57
3,67,123,1
3,67,0,235
3,64,77,67
3,64,0,58
3,67,124,0
3,64,69,61
3,67,0,1
3,64,0,57
3,69,126,1
3,69,80,61
3,69,0,1
3,69,0,174
3,69,112,4
3,69,0,179
3,67,73,1
3,67,0,59
3,72,123,1
3,72,0,62
3,69,66,0
3,69,0,175
3,69,103,3
3,69,0,62
3,67,77,0
3,67,0,175
3,64,126,3
3,62,55,34
3,64,0,1
3,60,80,26
3,62,0,1
3,60,0,407
3,69,126,491
3,69,80,61
3,69,0,1
3,69,0,174
3,69,112,4
3,69,0,179
3,67,73,1
3,67,0,59
3,72,123,1
3,72,0,62
3,69,66,0
3,69,0,175
3,69,103,3
3,69,0,62
3,67,77,0
3,67,0,175
3,64,126,3
3,62,55,34
3,64,0,1
3,60,80,26
3,62,0,1
3,60,0,872
4,60,123,480
4,60,0,119
4,60,114,1
4,64,78,61
4,60,0,1
4,64,0,57
4,62,103,1
4,62,0,119
4,64,124,1
4,64,0,119
4,60,126,1
4,60,0,119
4,65,112,1
4,65,0,119
4,64,112,1
4,64,0,119
4,62,105,1
4,62,0,119
4,60,123,1
4,60,0,119
4,60,114,1
4,64,78,61
4,60,0,1
4,64,0,57
4,62,103,1
4,62,0,119
4,64,124,1
4,64,0,119
4,60,126,1
4,60,0,119
4,65,112,1
4,65,0,119
4,64,112,1
4,64,0,119
4,62,105,1
4,62,0,119
4,60,123,1
4,60,0,119
4,64,114,1
4,67,78,61
4,64,0,1
4,67,0,57
4,64,103,1
4,64,0,119
4,67,124,1
4,71,69,61
4,67,0,1
4,71,0,57
4,62,126,1
4,69,80,61
4,62,0,1
4,69,0,57
4,65,112,1
4,72,70,61
4,65,0,1
4,72,0,57
4,77,112,1
4,74,72,61
4,77,0,1
4,74,0,57
4,71,105,1
4,67,73,60
4,71,0,2
4,67,0,57
4,60,123,1
4,60,0,119
4,64,114,1
4,67,78,61
4,64,0,1
4,67,0,57
4,64,103,1
4,64,0,119
4,71,124,1
4,67,69,61
4,71,0,1
4,67,0,57
4,62,126,1
4,69,80,61
4,62,0,1
4,69,0,57
4,65,112,1
4,72,70,61
4,65,0,1
4,72,0,57
4,67,112,1
4,71,72,61
4,67,0,1
4,71,0,57
4,74,105,1
4,67,73,60
4,74,0,2
4,67,0,57
4,60,123,1
4,60,0,119
4,64,114,1
4,67,78,61
4,64,0,1
4,67,0,57
4,64,103,1
4,64,0,119
4,71,124,1
4,67,69,61
4,71,0,1
4,67,0,57
4,62,126,1
4,69,80,61
4,62,0,1
4,69,0,57
4,72,112,1
4,65,70,61
4,72,0,1
4,65,0,57
4,67,112,1
4,71,72,61
4,67,0,1
4,71,0,57
4,65,105,1
4,74,73,60
4,65,0,2
4,74,0,57
4,60,123,1
4,60,0,119
4,64,114,1
4,67,78,61
4,64,0,1
4,67,0,57
4,64,103,1
4,64,0,119
4,71,124,1
4,67,69,61
4,71,0,1
4,67,0,57
4,62,126,1
4,72,80,61
4,62,0,1
4,72,0,57
4,69,112,1
4,65,70,61
4,69,0,1
4,65,0,57
4,67,112,1
4,74,72,61
4,67,0,1
4,74,0,57
4,77,105,1
4,71,73,60
4,77,0,2
4,71,0,57
4,65,123,1
4,65,0,119
4,72,114,1
4,69,78,61
4,72,0,1
4,69,0,57
4,65,103,1
4,65,0,119
4,69,124,1
4,72,69,61
4,69,0,1
4,72,0,57
4,64,126,1
4,64,0,119
4,71,112,1
4,67,70,61
4,71,0,1
4,67,0,57
4,64,112,1
4,64,0,119
4,67,105,1
4,71,73,60
4,67,0,2
4,71,0,57
4,62,123,1
4,62,0,62
4,69,66,0
4,69,0,58
4,65,114,0
4,72,78,61
4,65,0,1
4,72,0,57
4,62,103,1
4,62,0,62
4,72,77,0
4,72,0,58
4,69,124,0
4,65,69,61
4,69,0,1
4,65,0,57
4,64,126,1
4,64,0,119
4,71,112,1
4,67,70,61
4,71,0,1
4,67,0,57
4,64,112,1
4,64,0,119
4,71,105,1
4,67,73,60
4,71,0,2
4,67,0,57
4,65,123,1
4,65,0,119
4,72,114,1
4,69,78,61
4,72,0,1
4,69,0,57
4,65,103,1
4,65,0,119
4,69,124,1
4,72,69,61
4,69,0,1
4,72,0,57
4,69,126,1
4,69,0,119
4,76,112,1
4,69,70,61
4,76,0,1
4,69,0,57
4,67,112,1
4,67,0,119
4,74,105,1
4,71,73,60
4,74,0,2
4,71,0,57
4,60,123,1
4,60,0,119
4,69,103,121
4,67,74,91
4,69,0,2
4,65,51,58
4,67,0,24
4,65,0,60
4,64,126,5
4,64,0,179
4,67,70,2
4,67,0,58
4,69,112,1
4,67,72,61
4,69,0,1
4,67,0,57
4,65,105,1
4,65,0,119
4,60,123,1
4,60,0,119
4,64,114,1
4,67,78,61
4,64,0,1
4,67,0,57
4,64,103,1
4,64,0,119
4,67,124,1
4,71,69,61
4,67,0,1
4,71,0,57
4,62,126,1
4,69,80,61
4,62,0,1
4,69,0,57
4,65,112,1
4,72,70,61
4,65,0,1
4,72,0,57
4,77,112,1
4,74,72,61
4,77,0,1
4,74,0,57
4,71,105,1
4,67,73,60
4,71,0,2
4,67,0,57
4,60,123,1
4,60,0,119
4,64,114,1
4,67,78,61
4,64,0,1
4,67,0,57
4,64,103,1
4,64,0,119
4,71,124,1
4,67,69,61
4,71,0,1
4,67,0,57
4,62,126,1
4,69,80,61
4,62,0,1
4,69,0,57
4,65,112,1
4,72,70,61
4,65,0,1
4,72,0,57
4,67,112,1
4,71,72,61
4,67,0,1
4,71,0,57
4,74,105,1
4,67,73,60
4,74,0,2
4,67,0,57
4,60,123,1
4,60,0,119
4,64,114,1
4,67,78,61
4,64,0,1
4,67,0,57
4,64,103,1
4,64,0,119
4,71,124,1
4,67,69,61
4,71,0,1
4,67,0,57
4,62,126,1
4,69,80,61
4,62,0,1
4,69,0,57
4,72,112,1
4,65,70,61
4,72,0,1
4,65,0,57
4,67,112,1
4,71,72,61
4,67,0,1
4,71,0,57
4,65,105,1
4,74,73,60
4,65,0,2
4,74,0,57
4,60,123,1
4,60,0,119
4,64,114,1
4,67,78,61
4,64,0,1
4,67,0,57
4,64,103,1
4,64,0,119
4,71,124,1
4,67,69,61
4,71,0,1
4,67,0,57
4,62,126,1
4,72,80,61
4,62,0,1
4,72,0,57
4,69,112,1
4,65,70,61
4,69,0,1
4,65,0,57
4,67,112,1
4,74,72,61
4,67,0,1
4,74,0,57
4,77,105,1
4,71,73,60
4,77,0,2
4,71,0,57
4,65,123,1
4,65,0,119
4,72,114,1
4,69,78,61
4,72,0,1
4,69,0,57
4,65,103,1
4,65,0,119
4,69,124,1
4,72,69,61
4,69,0,1
4,72,0,57
4,64,126,1
4,64,0,119
4,71,112,1
4,67,70,61
4,71,0,1
4,67,0,57
4,64,112,1
4,64,0,119
4,67,105,1
4,71,73,60
4,67,0,2
4,71,0,57
4,62,123,1
4,62,0,62
4,69,66,0
4,69,0,58
4,65,114,0
4,72,78,61
4,65,0,1
4,72,0,57
4,62,103,1
4,62,0,62
4,72,77,0
4,72,0,58
4,69,124,0
4,65,69,61
4,69,0,1
4,65,0,57
4,64,126,1
4,64,0,119
4,71,112,1
4,67,70,61
4,71,0,1
4,67,0,57
4,64,112,1
4,64,0,119
4,71,105,1
4,67,73,60
4,71,0,2
4,67,0,57
4,65,123,1
4,65,0,119
4,72,114,1
4,69,78,61
4,72,0,1
4,69,0,57
4,65,103,1
4,65,0,119
4,69,124,1
4,72,69,61
4,69,0,1
4,72,0,57
4,69,126,1
4,69,0,119
4,76,112,1
4,69,70,61
4,76,0,1
4,69,0,57
4,67,112,1
4,67,0,119
4,74,105,1
4,71,73,60
4,74,0,2
4,71,0,57
4,60,123,1
4,60,0,119
4,69,103,121
4,67,74,91
4,69,0,2
4,65,51,58
4,67,0,24
4,65,0,60
4,64,126,5
4,64,0,119
4,64,112,1
4,64,0,119
4,65,112,1
4,65,0,119
4,67,105,1
4,67,0,119
4,65,123,1
4,65,0,119
4,69,114,1
4,72,78,61
4,69,0,1
4,72,0,57
4,67,103,1
4,67,0,119
4,65,124,1
4,65,0,119
4,64,126,1
4,60,80,61
4,64,0,1
4,60,0,57
4,64,112,1
4,64,0,62
4,69,112,58
4,64,72,61
4,69,0,1
4,64,0,57
4,59,105,1
4,60,73,60
4,59,0,2
4,60,0,57
4,62,123,1
4,62,0,62
4,69,66,0
4,69,0,58
4,65,114,0
4,72,78,61
4,65,0,1
4,72,0,57
4,67,103,1
4,67,0,62
4,74,77,0
4,74,0,58
4,71,124,0
4,77,69,61
4,71,0,1
4,77,0,57
4,60,126,1
4,60,0,119
4,64,112,1
4,67,70,61
4,64,0,1
4,67,0,57
4,67,112,1
4,77,72,61
4,67,0,1
4,77,0,57
4,60,105,1
4,71,73,60
4,60,0,2
4,71,0,57
4,65,123,1
4,65,0,119
4,69,114,1
4,72,78,61
4,69,0,1
4,72,0,57
4,67,103,1
4,67,0,62
4,74,77,0
4,74,0,58
4,65,124,0
4,72,69,61
4,65,0,1
4,72,0,57
4,64,126,1
4,64,0,119
4,67,112,1
4,71,70,61
4,67,0,1
4,71,0,57
4,69,112,1
4,69,0,119
4,72,105,1
4,76,73,60
4,72,0,2
4,76,0,57
4,62,123,1
4,62,0,119
4,69,114,1
4,71,78,61
4,69,0,1
4,71,0,57
4,72,103,1
4,72,0,119
4,74,124,1
4,74,0,119
4,71,126,1
4,67,58,92
4,71,0,1
4,71,48,58
4,67,0,4
4,71,0,80
4,74,112,5
4,71,75,92
4,74,0,1
4,67,57,57
4,71,0,5
4,67,0,77
4,74,123,8
4,71,65,92
4,74,0,1
4,67,48,59
4,71,0,3
4,67,0,81
4,67,103,4
4,67,0,119
4,67,124,1
4,71,69,61
4,67,0,1
4,71,0,57
4,60,126,1
4,60,0,119
4,67,112,1
4,64,70,61
4,67,0,1
4,64,0,57
4,64,112,1
4,64,0,119
4,71,105,1
4,67,73,60
4,71,0,2
4,67,0,57
4,62,123,1
4,62,0,62
4,72,66,0
4,72,0,58
