track,note,velocity,time
1,67,90,1528
1,63,90,0
1,39,90,0
1,75,90,0
1,63,90,160
1,68,90,32
1,51,90,0
1,72,90,16
1,75,90,32
1,67,90,240
1,70,90,16
1,39,90,0
1,75,90,32
1,79,90,48
1,68,90,192
1,51,90,0
1,72,90,0
1,75,90,48
1,80,90,32
1,70,84,16
1,67,84,0
1,63,84,0
1,58,84,0
1,39,84,0
1,63,84,208
1,51,84,0
1,68,84,0
1,72,84,16
1,75,84,48
1,39,84,0
1,67,84,0
1,70,84,32
1,75,84,16
1,79,84,32
1,63,84,0
1,68,84,16
1,44,84,0
1,72,84,32
1,75,84,16
1,70,84,144
1,67,84,0
1,63,84,0
1,58,84,0
1,39,84,0
1,60,84,160
1,63,84,16
1,68,84,32
1,51,84,0
1,72,84,16
1,63,84,144
1,67,84,32
1,70,84,48
1,75,84,16
1,39,84,0
1,60,84,240
1,63,84,16
1,68,84,32
1,72,84,32
1,44,84,0
1,68,84,0
1,72,84,0
1,75,84,0
1,48,84,128
1,75,84,0
1,72,84,0
1,79,84,8
1,79,84,32
1,75,84,176
1,72,84,176
1,72,84,48
1,75,84,32
1,44,84,0
1,80,84,0
1,72,84,48
1,80,84,176
1,72,84,16
1,72,84,32
1,75,84,32
1,36,84,0
1,79,84,0
1,75,84,0
1,72,84,0
1,79,84,0
1,72,84,64
1,75,84,192
1,79,84,0
1,72,84,0
1,72,84,64
1,75,84,16
1,80,84,16
1,44,84,0
1,72,84,32
1,80,84,176
1,79,84,16
1,41,84,0
1,72,84,0
1,68,84,0
1,77,84,0
1,72,84,0
1,68,84,0
1,77,84,0
1,72,84,112
1,65,84,80
1,70,84,16
1,46,84,48
1,74,84,16
1,70,84,0
1,67,84,0
1,63,84,0
1,75,84,0
1,39,84,0
1,70,84,128
1,75,84,0
1,63,84,0
1,67,84,0
1,68,84,176
1,72,84,16
1,44,84,16
1,75,84,16
1,80,84,0
1,63,84,256
1,67,84,16
1,75,84,32
1,70,84,0
1,39,84,16
1,63,84,128
1,70,84,16
1,67,84,0
1,75,84,0
1,68,84,144
1,72,84,32
1,75,84,32
1,80,84,16
1,44,84,0
1,39,84,0
1,75,84,16
1,70,84,0
1,67,84,0
1,63,84,0
1,63,84,128
1,68,84,16
1,72,84,0
1,75,84,16
1,51,84,16
1,67,84,240
1,70,84,32
1,75,84,48
1,79,84,32
1,39,84,0
1,44,84,256
1,68,84,0
1,63,84,0
1,60,84,0
1,72,84,0
1,72,84,256
1,63,84,0
1,67,84,16
1,70,84,32
1,39,84,0
1,75,84,16
1,63,84,144
1,68,84,32
1,51,84,16
1,72,84,16
1,68,84,0
1,72,84,16
1,70,84,192
1,63,84,16
1,67,84,32
1,39,84,32
1,75,84,0
1,70,84,0
1,63,84,32
1,68,84,16
1,72,84,48
1,75,84,0
1,44,84,0
1,48,84,64
1,75,84,16
1,72,84,0
1,79,84,16
1,79,84,32
1,75,84,176
1,72,84,176
1,72,84,48
1,75,84,32
1,44,84,0
1,80,84,16
1,72,84,48
1,80,84,176
1,72,84,16
1,72,84,32
1,75,84,32
1,48,84,16
1,79,84,16
1,75,84,0
1,72,84,0
1,79,84,0
1,72,84,64
1,75,84,192
1,79,84,0
1,72,84,0
1,72,84,64
1,75,84,16
1,80,84,16
1,44,84,16
1,72,84,32
1,80,84,176
1,43,84,16
1,79,84,0
1,72,84,0
1,68,84,0
1,77,84,0
1,72,84,0
1,68,84,0
1,77,84,0
1,41,84,0
1,72,84,112
1,65,84,80
1,70,84,16
1,46,84,0
1,74,84,16
1,70,84,32
1,67,84,0
1,63,84,0
1,75,84,0
1,39,84,16
1,70,84,128
1,75,84,0
1,63,84,0
1,67,84,0
1,68,84,176
1,72,84,16
1,44,84,16
1,75,84,16
1,80,84,0
1,63,84,256
1,67,84,16
1,75,84,32
1,70,84,0
1,39,84,32
1,63,84,128
1,70,84,16
1,67,84,0
1,75,84,0
1,68,84,144
1,72,84,32
1,75,84,32
1,80,84,16
1,44,84,16
1,65,90,176
1,77,90,0
1,67,90,16
1,82,90,16
1,74,90,0
1,79,90,0
1,43,90,0
1,82,90,160
1,79,90,0
1,74,90,0
1,82,90,0
1,79,90,0
1,74,90,0
1,82,90,144
1,74,90,0
1,79,90,0
1,79,90,0
1,67,90,0
1,67,90,32
1,79,90,0
1,81,90,16
1,69,90,0
1,76,90,0
1,72,90,0
1,81,90,0
1,45,90,0
1,81,90,0
1,76,90,0
1,72,90,0
1,76,90,0
1,72,90,0
1,81,90,0
1,45,90,0
1,81,90,0
1,76,90,0
1,72,90,16
1,69,90,0
1,81,90,0
1,69,90,48
1,81,90,16
1,46,90,0
1,70,90,16
1,82,90,0
1,77,90,0
1,74,90,0
1,82,90,0
1,74,90,0
1,77,90,0
1,82,90,0
1,77,90,0
1,82,90,0
1,74,90,0
1,74,90,0
1,77,90,0
1,82,90,0
1,46,90,16
1,82,90,160
1,77,90,0
1,74,90,0
1,70,90,0
1,46,90,14
1,58,90,0
1,69,90,0
1,81,90,0
1,76,90,0
1,72,90,0
1,81,90,0
1,45,90,0
1,57,90,0
1,60,90,224
1,48,90,16
1,76,90,32
1,79,90,0
1,84,90,0
1,72,90,0
1,84,90,48
1,72,90,16
1,48,90,16
1,60,90,0
1,84,90,0
1,76,90,0
1,79,90,0
1,48,90,0
1,46,90,0
1,65,90,0
1,60,90,0
1,69,90,0
1,41,90,0
1,69,90,0
1,65,90,0
1,60,90,0
1,48,90,0
1,41,90,0
1,69,90,0
1,53,90,28
1,53,90,0
1,70,90,16
1,65,90,0
1,62,90,0
1,36,90,1136
1,38,90,192
1,41,90,0
1,65,90,0
1,69,90,0
1,60,90,0
1,65,90,32
1,46,90,0
1,62,90,0
1,70,90,0
1,46,90,0
1,36,90,16
1,38,90,16
1,69,90,0
1,60,90,0
1,41,90,0
1,70,90,32
1,53,90,0
1,62,90,0
1,65,90,0
1,66,90,0
1,36,90,192
1,38,90,0
1,60,90,96
1,41,90,0
1,69,90,0
1,65,90,32
1,62,90,0
1,70,90,16
1,46,90,0
1,38,90,208
1,69,90,16
1,65,90,0
1,62,90,0
1,65,90,64
1,74,90,0
1,72,90,192
1,62,90,0
1,65,90,16
1,46,90,0
1,70,90,16
1,62,90,80
1,65,90,32
1,69,90,0
1,50,90,0
1,65,90,0
1,69,90,192
1,62,90,0
1,65,90,16
1,70,90,48
1,46,90,0
1,69,90,0
1,45,90,0
1,43,90,64
1,67,90,0
1,62,90,0
1,58,90,0
1,55,90,144
1,60,90,0
1,64,90,0
1,36,90,0
1,41,90,256
1,60,90,32
1,65,90,0
1,69,90,0
1,65,90,80
1,69,90,0
1,60,90,16
1,65,90,48
1,70,90,16
1,62,90,0
1,46,90,16
1,60,90,208
1,65,90,16
1,69,90,64
1,72,90,16
1,41,90,16
1,41,90,112
1,65,90,0
1,69,90,16
1,60,90,0
1,72,90,0
1,65,90,112
1,70,90,0
1,62,90,0
1,46,90,0
1,46,90,128
1,70,90,0
1,65,90,0
1,62,90,0
1,58,90,0
1,46,90,0
1,65,90,144
1,70,90,0
1,62,90,0
1,46,90,0
1,65,90,0
1,70,90,0
1,74,90,0
1,58,90,0
1,70,90,32
1,72,90,0
1,65,90,0
1,41,90,32
1,60,90,0
1,65,90,0
1,53,90,0
1,69,90,0
1,60,90,1374
1,65,90,0
1,53,90,0
1,62,90,0
1,70,90,0
1,41,90,0
1,69,90,0
1,65,90,0
1,60,90,0
1,41,90,0
1,60,90,128
1,69,90,0
1,65,90,0
1,46,90,112
1,70,90,0
1,65,90,0
1,62,90,0
1,46,90,0
1,74,90,96
1,65,90,0
1,70,90,0
1,46,90,0
1,69,90,144
1,65,90,0
1,60,90,0
1,41,90,0
1,41,90,0
1,60,90,144
1,69,90,0
1,65,90,0
1,41,90,0
1,65,90,96
1,70,90,0
1,62,90,0
1,46,90,0
1,65,90,80
1,74,90,0
1,70,90,16
1,69,90,112
1,41,90,0
1,65,90,0
1,60,90,0
1,41,90,0
1,65,90,0
1,69,90,144
1,60,90,0
1,65,90,0
1,65,90,96
1,70,90,0
1,46,90,0
1,62,90,0
1,46,90,0
1,46,90,0
1,65,90,0
1,70,90,0
1,74,90,16
1,70,90,0
1,65,90,0
1,62,90,0
1,58,90,0
1,46,90,0
1,65,90,144
1,70,90,0
1,62,90,0
1,46,90,128
1,65,90,0
1,70,90,0
1,74,90,0
1,58,90,0
1,70,90,32
1,72,90,0
1,65,90,0
2,56,80,6136
2,55,95,176
2,56,88,0
2,55,97,32
2,51,97,0
2,51,102,112
2,39,102,0
2,51,100,0
2,51,93,160
2,44,97,0
2,39,93,0
2,51,100,0
2,39,100,48
2,44,95,1520
2,43,75,0
2,44,78,144
2,46,93,128
2,48,112,144
2,48,95,112
2,44,95,0
2,43,80,144
2,44,93,144
2,46,95,144
2,48,106,128
2,44,90,1520
2,43,88,16
2,41,93,0
2,46,95,1136
2,48,95,16
2,46,95,352
2,34,80,48
2,36,88,16
2,39,90,16
2,39,70,80
2,51,102,0
2,44,85,0
2,44,80,144
2,51,100,208
2,39,88,32
2,39,85,160
2,51,100,0
2,44,95,16
2,44,83,176
2,51,97,192
2,39,100,48
2,39,88,192
2,39,95,144
2,51,93,176
2,51,83,144
2,51,102,160
2,39,39,624
2,39,95,64
2,39,93,176
2,39,117,160
2,44,95,160
2,44,59,144
2,44,88,160
2,44,112,128
2,39,124,32
2,39,97,160
2,39,117,144
2,51,97,144
2,51,90,160
2,51,97,144
2,39,100,144
2,39,78,160
2,39,97,160
2,32,97,64
2,32,80,160
2,32,97,144
2,46,97,240
2,48,95,16
2,48,83,160
2,48,93,144
2,44,85,0
2,44,66,144
2,44,83,160
2,44,93,128
2,46,80,0
2,48,88,192
2,48,73,128
2,48,80,144
2,44,80,16
2,44,80,128
2,44,100,144
2,43,88,16
2,41,85,16
2,41,80,112
2,41,90,160
2,46,80,0
2,46,78,96
2,46,88,144
2,34,83,16
2,36,93,16
2,39,85,0
2,39,78,128
2,51,97,16
2,44,83,16
2,51,78,80
2,51,93,80
2,53,62,32
2,52,73,0
2,51,90,352
2,39,97,32
2,51,73,128
2,51,95,160
2,44,95,32
2,38,61,944
2,38,102,128
2,41,100,176
2,43,117,16
2,50,80,0
2,50,83,112
2,38,95,0
2,45,100,16
2,52,80,48
2,52,95,128
2,46,85,16
2,53,85,128
2,53,93,96
2,41,95,16
2,46,102,592
2,45,95,160
2,48,95,224
2,48,106,160
2,48,124,144
2,41,117,32
2,41,88,144
2,53,102,80
2,53,102,96
2,53,83,96
2,53,102,144
2,41,106,128
2,41,83,176
2,53,100,128
2,46,78,32
2,46,75,112
2,46,112,144
2,45,95,16
2,43,75,0
2,41,93,16
2,41,97,144
2,53,102,128
2,53,95,144
2,53,90,144
2,53,100,144
2,41,97,128
2,41,90,176
2,53,102,144
2,46,95,16
2,48,97,256
2,49,83,0
2,50,102,16
2,50,85,144
2,50,117,160
2,46,102,768
2,46,100,144
2,46,106,160
2,48,102,32
2,50,124,192
2,50,90,96
2,50,117,144
2,46,102,48
2,46,85,96
2,46,106,144
2,45,100,0
2,43,93,0
2,43,95,160
2,43,100,144
2,48,102,176
2,48,95,144
2,48,102,144
2,36,97,16
2,38,95,176
2,41,95,16
2,53,95,16
2,53,100,176
2,41,93,16
2,53,85,144
2,53,97,144
2,41,93,48
2,53,93,144
2,53,102,160
2,46,102,16
2,46,97,176
2,46,97,128
2,41,85,0
2,34,95,0
2,34,85,128
2,34,106,144
2,34,112,128
2,46,83,128
2,46,100,112
2,46,85,64
2,48,97,32
2,41,102,16
2,41,88,144
2,53,102,128
2,41,75,16
2,46,102,48
2,53,95,96
2,53,102,128
2,55,100,32
2,53,93,16
2,41,102,16
2,53,57,144
2,55,66,0
2,53,97,144
2,46,95,16
2,53,80,160
2,53,112,144
2,55,95,16
2,53,97,16
2,52,39,16
2,41,106,0
2,53,85,128
2,53,100,160
2,46,97,48
2,53,97,176
2,53,106,160
2,55,97,32
2,53,97,16
2,41,95,16
2,53,93,192
2,53,106,160
2,46,106,0
2,53,102,192
2,53,112,144
2,55,97,16
2,53,95,16
2,34,106,176
2,34,83,112
2,34,124,160
2,46,106,16
2,46,106,64
2,46,102,112
2,46,112,128
2,46,106,48
2,48,93,32
3,56,47,6136
3,55,62,176
3,56,55,0
3,55,64,32
3,51,64,0
3,51,69,112
3,39,69,0
3,51,67,0
3,51,60,160
3,44,64,0
3,39,60,0
3,51,67,0
3,39,67,48
3,44,62,1520
3,43,42,0
3,44,45,144
3,46,60,128
3,48,79,144
3,48,62,112
3,44,62,0
3,43,47,144
3,44,60,144
3,46,62,144
3,48,73,128
3,44,57,1520
3,43,55,16
3,41,60,0
3,46,62,1136
3,48,62,16
3,46,62,352
3,34,47,48
3,36,55,16
3,39,57,16
3,39,37,80
3,51,69,0
3,44,52,0
3,44,47,144
3,51,67,208
3,39,55,32
3,39,52,160
3,51,67,0
3,44,62,16
3,44,50,176
3,51,64,192
3,39,67,48
3,39,55,192
3,39,62,144
3,51,60,176
3,51,50,144
3,51,69,160
3,39,6,624
3,39,62,64
3,39,60,176
3,39,84,160
3,44,62,160
3,44,26,144
3,44,55,160
3,44,79,128
3,39,91,32
3,39,64,160
3,39,84,144
3,51,64,144
3,51,57,160
3,51,64,144
3,39,67,144
3,39,45,160
3,39,64,160
3,32,64,64
3,32,47,160
3,32,64,144
3,46,64,240
3,48,62,16
3,48,50,160
3,48,60,144
3,44,52,0
3,44,33,144
3,44,50,160
3,44,60,128
3,46,47,0
3,48,55,192
3,48,40,128
3,48,47,144
3,44,47,16
3,44,47,128
3,44,67,144
3,43,55,16
3,41,52,16
3,41,47,112
3,41,57,160
3,46,47,0
3,46,45,96
3,46,55,144
3,34,50,16
3,36,60,16
3,39,52,0
3,39,45,128
3,51,64,16
3,44,50,16
3,51,45,80
3,51,60,80
3,53,29,32
3,52,40,0
3,51,57,352
3,39,64,32
3,51,40,128
3,51,62,160
3,44,62,32
3,38,28,944
3,38,69,128
3,41,67,176
3,43,84,16
3,50,47,0
3,50,50,112
3,38,62,0
3,45,67,16
3,52,47,48
3,52,62,128
3,46,52,16
3,53,52,128
3,53,60,96
3,41,62,16
3,46,69,592
3,45,62,160
3,48,62,224
3,48,73,160
3,48,91,144
3,41,84,32
3,41,55,144
3,53,69,80
3,53,69,96
3,53,50,96
3,53,69,144
3,41,73,128
3,41,50,176
3,53,67,128
3,46,45,32
3,46,42,112
3,46,79,144
3,45,62,16
3,43,42,0
3,41,60,16
3,41,64,144
3,53,69,128
3,53,62,144
3,53,57,144
3,53,67,144
3,41,64,128
3,41,57,176
3,53,69,144
3,46,62,16
3,48,64,256
3,49,50,0
3,50,69,16
3,50,52,144
3,50,84,160
3,46,69,768
3,46,67,144
3,46,73,160
3,48,69,32
3,50,91,192
3,50,57,96
3,50,84,144
3,46,69,48
3,46,52,96
3,46,73,144
3,45,67,0
3,43,60,0
3,43,62,160
3,43,67,144
3,48,69,176
3,48,62,144
3,48,69,144
3,36,64,16
3,38,62,176
3,41,62,16
3,53,62,16
3,53,67,176
3,41,60,16
3,53,52,144
3,53,64,144
3,41,60,48
3,53,60,144
3,53,69,160
3,46,69,16
3,46,64,176
3,46,64,128
3,41,52,0
3,34,62,0
3,34,52,128
3,34,73,144
3,34,79,128
3,46,50,128
3,46,67,112
3,46,52,64
3,48,64,32
3,41,69,16
3,41,55,144
3,53,69,128
3,41,42,16
3,46,69,48
3,53,62,96
3,53,69,128
3,55,67,32
3,53,60,16
3,41,69,16
3,53,24,144
3,55,33,0
3,53,64,144
3,46,62,16
3,53,47,160
3,53,79,144
3,55,62,16
3,53,64,16
3,52,6,16
3,41,73,0
3,53,52,128
3,53,67,160
3,46,64,48
3,53,64,176
3,53,73,160
3,55,64,32
3,53,64,16
3,41,62,16
3,53,60,192
3,53,73,160
3,46,73,0
3,53,69,192
3,53,79,144
3,55,64,16
3,53,62,16
3,34,73,176
3,34,50,112
