track,note,velocity,time
1,77,60,1
1,74,53,719
1,77,0,1
1,74,0,239
1,70,55,0
1,70,0,120
1,70,55,360
1,70,0,120
1,75,60,360
1,75,0,480
1,79,55,0
1,79,0,120
1,69,52,360
1,69,0,480
1,72,55,480
1,72,0,240
1,70,53,0
1,70,0,120
1,74,57,120
1,74,0,240
1,72,54,0
1,72,0,120
1,75,58,120
1,75,0,240
1,74,56,0
1,74,0,120
1,77,60,120
1,77,0,240
1,75,57,0
1,75,0,120
1,74,60,120
1,74,0,720
1,75,57,0
1,75,0,120
1,74,53,0
1,74,0,120
1,72,52,0
1,72,0,240
1,74,54,0
1,74,0,240
1,75,55,0
1,75,0,240
1,76,57,0
1,76,0,240
1,77,59,0
1,77,0,720
1,75,53,0
1,75,0,80
1,74,53,0
1,74,0,80
1,72,53,0
1,72,0,80
1,70,56,0
1,70,0,120
1,70,56,360
1,70,0,120
1,75,60,360
1,75,0,480
1,79,55,0
1,79,0,120
1,69,58,360
1,69,0,480
1,69,52,240
1,69,0,240
1,70,58,0
1,70,0,240
1,74,55,0
1,74,0,120
1,67,58,120
1,67,0,240
1,72,55,0
1,72,0,120
1,70,58,120
1,70,0,480
1,69,55,0
1,69,0,480
1,70,58,0
1,70,0,240
1,65,56,0
1,65,0,120
1,67,60,120
1,67,0,120
1,69,63,120
1,69,0,120
1,70,67,120
1,70,0,120
1,72,70,120
1,72,0,120
1,74,74,120
1,74,0,120
1,75,77,120
1,75,0,120
1,77,85,1
1,74,74,719
1,77,0,1
1,74,0,239
1,70,78,0
1,70,0,240
1,70,78,240
1,70,0,240
1,75,85,240
1,75,0,96
1,77,72,0
1,77,0,96
1,75,61,0
1,75,0,96
1,74,70,0
1,74,0,96
1,75,72,0
1,75,0,96
1,79,78,0
1,79,0,480
1,69,81,0
1,69,0,480
1,72,78,480
1,72,0,240
1,70,74,0
1,70,0,120
1,74,81,120
1,74,0,240
1,72,77,0
1,72,0,120
1,75,82,120
1,75,0,240
1,74,79,0
1,74,0,120
1,77,85,120
1,77,0,240
1,75,81,0
1,75,0,120
1,74,85,120
1,74,0,720
1,75,81,0
1,75,0,120
1,74,81,0
1,74,0,120
1,72,73,0
1,72,0,240
1,74,77,0
1,74,0,240
1,75,78,0
1,75,0,240
1,76,81,0
1,76,0,240
1,77,83,0
1,77,0,720
1,75,74,0
1,75,0,80
1,74,74,0
1,74,0,80
1,72,74,0
1,72,0,80
1,70,79,0
1,70,0,120
1,70,76,120
1,70,0,120
1,70,79,120
1,70,0,120
1,70,76,120
1,70,0,120
1,75,85,120
1,75,0,96
1,77,72,0
1,77,0,96
1,75,61,0
1,75,0,96
1,74,70,0
1,74,0,96
1,75,72,0
1,75,0,96
1,79,78,0
1,79,0,480
1,69,82,0
1,69,0,480
1,81,77,240
1,81,0,240
1,82,85,0
1,82,0,160
1,77,74,0
1,77,0,160
1,74,72,0
1,74,0,160
1,79,84,0
1,79,0,160
1,75,73,0
1,75,0,160
1,72,74,0
1,72,0,160
1,77,84,0
1,77,0,160
1,74,75,0
1,74,0,160
1,70,74,0
1,70,0,160
1,75,84,0
1,75,0,160
1,72,74,0
1,72,0,160
1,69,74,0
1,69,0,160
1,70,83,0
1,70,0,480
1,65,53,240
1,65,0,240
1,70,58,0
1,70,0,120
1,69,53,120
1,69,0,120
1,70,55,120
1,70,0,120
1,72,53,120
1,72,0,120
1,74,55,120
1,74,0,120
1,74,56,360
1,70,56,0
1,70,0,180
1,74,0,0
1,70,59,300
1,74,59,0
1,74,0,480
1,70,0,0
1,75,55,0
1,72,55,0
1,72,0,480
1,75,0,0
1,72,54,0
1,69,54,0
1,69,0,480
1,72,0,0
1,65,55,240
1,65,0,240
1,72,57,0
1,72,0,120
1,70,55,120
1,70,0,120
1,72,56,120
1,72,0,120
1,74,53,120
1,74,0,120
1,75,56,120
1,75,0,120
1,67,56,360
1,75,56,0
1,75,0,180
1,67,0,0
1,72,58,300
1,75,58,0
1,75,0,480
1,72,0,0
1,77,56,0
1,69,56,0
1,69,0,480
1,77,0,0
1,70,54,0
1,74,54,0
1,74,0,480
1,70,0,0
1,70,73,240
1,70,0,240
1,74,79,0
1,74,0,120
1,72,72,120
1,72,0,120
1,74,75,120
1,74,0,120
1,76,72,120
1,76,0,120
1,77,79,120
1,77,0,480
1,77,77,160
1,77,0,160
1,79,79,0
1,79,0,160
1,81,82,0
1,81,0,160
1,79,76,0
1,79,0,160
1,77,76,0
1,77,0,160
1,76,79,0
1,76,0,160
1,74,77,0
1,74,0,160
1,72,76,0
1,72,0,160
1,70,75,0
1,70,0,480
1,76,73,160
1,76,0,160
1,77,76,0
1,77,0,160
1,79,80,0
1,79,0,160
1,77,79,0
1,77,0,160
1,76,78,0
1,76,0,160
1,74,77,0
1,74,0,160
1,72,76,0
1,72,0,160
1,70,75,0
1,70,0,160
1,69,73,0
1,69,0,120
1,72,69,0
1,72,0,120
1,70,71,0
1,70,0,120
1,69,72,0
1,69,0,120
1,70,74,0
1,70,0,120
1,72,76,0
1,72,0,120
1,74,77,0
1,74,0,120
1,76,79,0
1,76,0,120
1,77,81,0
1,77,0,120
1,79,82,0
1,79,0,120
1,81,84,0
1,81,0,120
1,82,86,0
1,82,0,120
1,84,87,0
1,84,0,120
1,69,59,120
1,65,59,0
1,65,0,108
1,69,0,0
1,69,56,132
1,65,56,0
1,65,0,480
1,69,0,0
1,67,52,0
1,64,52,0
1,64,0,240
1,67,0,0
1,79,76,240
1,79,0,720
1,76,60,0
1,76,0,120
1,72,60,0
1,72,0,120
1,77,67,0
1,77,0,480
1,78,70,0
1,78,0,480
1,79,74,0
1,79,0,720
1,76,61,0
1,76,0,120
1,72,61,0
1,72,0,120
1,77,65,0
1,77,0,480
1,79,75,480
1,79,0,120
1,79,75,120
1,79,0,480
1,76,61,0
1,76,0,120
1,72,61,0
1,72,0,120
1,77,64,0
1,77,0,120
1,77,68,120
1,77,0,120
1,78,71,120
1,78,0,120
1,78,71,120
1,78,0,120
1,79,77,120
1,79,0,120
1,79,77,120
1,79,0,480
1,76,60,0
1,76,0,120
1,72,62,0
1,72,0,120
1,77,66,0
1,77,0,480
1,78,69,480
1,79,70,120
1,78,0,24
1,81,71,96
1,79,0,24
1,79,71,96
1,81,0,24
1,77,72,96
1,79,0,24
1,76,73,96
1,77,0,24
1,74,74,96
1,76,0,24
1,72,75,96
1,74,0,24
1,77,80,96
1,72,0,24
1,77,0,96
1,72,76,0
1,72,0,120
1,81,80,0
1,81,0,120
1,77,76,0
1,77,0,120
1,84,80,0
1,84,0,120
1,81,76,0
1,81,0,120
1,84,80,0
1,84,0,120
1,81,75,0
1,81,0,120
1,84,78,0
1,82,78,120
1,84,0,24
1,81,77,96
1,82,0,24
1,79,76,96
1,81,0,24
1,77,76,96
1,79,0,24
1,75,76,96
1,77,0,24
1,74,75,96
1,75,0,24
1,72,75,96
1,74,0,24
1,74,79,96
1,72,0,24
1,74,0,96
1,70,74,0
1,70,0,120
1,77,81,0
1,77,0,120
1,74,75,0
1,74,0,120
1,82,84,0
1,82,0,120
1,77,79,0
1,77,0,120
1,86,82,0
1,86,0,120
1,82,80,0
1,82,0,120
1,86,78,0
1,84,76,120
1,86,0,24
1,82,75,96
1,84,0,24
1,81,73,96
1,82,0,24
1,79,72,96
1,81,0,24
1,77,69,96
1,79,0,24
1,76,67,96
1,77,0,24
1,74,65,96
1,76,0,24
1,72,63,96
1,74,0,24
1,72,0,936
1,79,67,0
1,79,0,80
1,81,61,0
1,81,0,80
1,79,59,0
1,79,0,80
1,81,67,0
1,81,0,80
1,79,59,0
1,79,0,80
1,81,59,0
1,81,0,80
1,79,61,0
1,79,0,80
1,81,67,0
1,81,0,80
1,79,67,0
1,79,0,80
1,77,69,0
1,77,0,120
1,79,70,0
1,79,0,120
1,81,72,0
1,81,0,120
1,82,74,0
1,82,0,120
1,84,74,0
1,84,0,120
1,82,72,0
1,82,0,120
1,81,71,0
1,81,0,120
1,79,70,0
1,79,0,120
1,77,68,0
1,77,0,120
1,76,67,0
1,76,0,120
1,77,69,0
1,77,0,120
1,79,71,0
1,79,0,120
1,81,72,0
1,81,0,120
1,79,70,0
1,79,0,120
1,77,69,0
1,77,0,120
1,75,69,0
1,75,0,120
1,74,68,0
1,74,0,120
1,73,67,0
1,73,0,120
1,74,67,0
1,74,0,120
1,76,70,0
1,76,0,120
1,77,72,0
1,77,0,120
1,76,71,0
1,76,0,120
1,74,70,0
1,74,0,120
1,72,69,0
1,72,0,120
1,70,68,0
1,70,0,120
1,69,68,0
1,69,0,120
1,67,67,0
1,67,0,120
1,69,68,0
1,69,0,120
1,70,69,0
1,70,0,120
1,69,68,0
1,69,0,120
1,67,66,0
1,67,0,120
1,65,65,0
1,65,0,120
1,64,63,0
1,64,0,120
1,62,61,0
1,62,0,120
1,60,60,0
1,60,0,240
1,62,60,0
1,62,0,120
1,64,61,0
1,64,0,120
1,65,62,0
1,65,0,120
1,67,64,0
1,67,0,120
1,69,65,0
1,69,0,120
1,70,66,0
1,70,0,120
1,72,67,0
1,72,0,120
1,74,69,0
1,74,0,120
1,76,70,0
1,76,0,120
1,77,71,0
1,77,0,120
1,79,73,0
1,79,0,120
1,81,74,0
1,81,0,120
1,82,75,0
1,82,0,120
1,84,77,0
1,84,0,120
1,77,71,0
1,77,0,80
1,79,64,0
1,79,0,80
1,81,58,0
1,81,0,80
1,79,64,0
1,79,0,80
1,81,58,0
1,81,0,80
1,79,65,0
1,79,0,80
1,81,62,0
1,81,0,80
1,79,67,0
1,79,0,80
1,81,61,0
1,81,0,80
1,79,68,0
1,79,0,80
1,81,61,0
1,81,0,80
1,79,69,0
1,79,0,80
1,81,64,0
1,81,0,80
1,79,70,0
1,79,0,80
1,81,64,0
1,81,0,80
1,79,70,0
1,79,0,80
1,81,66,0
1,81,0,80
1,79,69,0
1,79,0,80
1,81,72,0
1,81,0,120
1,79,72,0
1,79,0,120
1,77,73,0
1,77,0,120
1,79,70,0
1,79,0,120
1,77,76,0
1,77,0,120
1,77,72,120
1,77,0,120
1,77,55,360
1,77,0,120
1,77,57,120
1,77,0,120
1,77,54,120
1,77,0,120
1,77,55,360
1,77,0,120
1,77,57,120
1,77,0,120
1,77,53,120
1,77,0,120
1,77,60,360
1,77,0,120
1,77,64,120
1,77,0,120
1,77,60,120
1,77,0,120
1,77,69,360
1,77,0,120
1,77,72,120
1,77,0,120
1,77,69,120
1,77,0,120
1,77,79,360
1,77,0,120
1,77,82,120
1,77,0,120
1,77,78,120
1,77,0,120
1,77,80,360
1,77,0,120
1,77,86,120
1,77,0,240
1,81,81,0
1,81,0,120
1,81,86,120
1,81,0,240
1,84,81,0
1,84,0,120
1,84,86,120
1,84,0,240
1,87,81,0
1,87,0,120
1,87,86,120
1,87,0,240
1,84,75,0
1,84,0,120
1,84,81,120
1,84,0,240
1,81,73,0
1,81,0,120
1,81,79,120
1,81,0,240
1,77,71,0
1,77,0,120
1,77,68,120
1,77,0,240
1,76,57,0
1,76,0,120
1,76,57,120
1,76,0,240
1,77,57,0
1,77,0,120
1,77,67,1
1,74,53,719
1,77,0,1
1,74,0,239
1,70,55,0
1,70,0,120
1,70,53,360
1,70,0,120
1,75,60,360
1,75,0,480
1,79,55,0
1,79,0,120
1,69,57,360
1,69,0,480
1,72,55,480
1,72,0,240
1,70,53,0
1,70,0,120
1,74,57,120
1,74,0,240
1,72,54,0
1,72,0,120
1,75,58,120
1,75,0,240
1,74,56,0
1,74,0,120
1,77,60,120
1,77,0,240
1,75,57,0
1,75,0,120
1,74,60,120
1,74,0,720
1,75,57,0
1,75,0,120
1,74,57,0
1,74,0,120
1,72,52,0
1,72,0,240
1,74,54,0
1,74,0,240
1,75,55,0
1,75,0,240
1,76,57,0
1,76,0,240
1,77,59,0
1,77,0,720
1,75,53,0
1,75,0,80
1,74,53,0
1,74,0,80
1,72,53,0
1,72,0,80
1,70,56,0
1,70,0,120
1,70,56,360
1,70,0,120
1,75,60,360
1,75,0,480
1,79,55,0
1,79,0,120
1,69,58,360
1,69,0,480
1,69,54,240
1,69,0,240
1,70,58,0
1,70,0,240
1,74,55,0
1,74,0,120
1,67,58,120
1,67,0,240
1,72,55,0
1,72,0,120
1,70,58,120
1,70,0,480
1,69,55,0
1,69,0,480
1,70,58,0
1,70,0,240
1,65,56,0
1,65,0,120
1,67,60,120
1,67,0,120
1,69,63,120
1,69,0,120
1,70,67,120
1,70,0,120
1,72,70,120
1,72,0,120
1,74,74,120
1,74,0,120
1,75,77,120
1,75,0,120
1,77,85,1
1,74,74,719
1,77,0,1
1,74,0,239
1,70,78,0
1,70,0,240
1,70,78,240
1,70,0,240
1,75,85,240
1,75,0,96
1,77,61,0
1,77,0,96
1,75,61,0
1,75,0,96
1,74,61,0
1,74,0,96
1,75,61,0
1,75,0,96
1,79,78,0
1,79,0,480
1,69,81,0
1,69,0,480
1,72,78,480
1,72,0,240
1,70,71,0
1,70,0,120
1,74,81,120
1,74,0,240
1,72,75,0
1,72,0,120
1,75,82,120
1,75,0,240
1,74,77,0
1,74,0,120
1,77,85,120
1,77,0,240
1,75,81,0
1,75,0,120
1,74,85,120
1,74,0,720
1,75,78,0
1,75,0,120
1,74,76,0
1,74,0,120
1,72,73,0
1,72,0,240
1,74,77,0
1,74,0,240
1,75,78,0
1,75,0,240
1,76,81,0
1,76,0,240
1,77,83,0
1,77,0,720
1,75,74,0
1,75,0,80
1,74,74,0
1,74,0,80
1,72,74,0
1,72,0,80
1,70,79,0
1,70,0,120
1,70,79,120
1,70,0,120
1,70,79,120
1,70,0,120
1,70,79,120
1,70,0,120
1,75,85,120
1,75,0,96
1,77,61,0
1,77,0,96
1,75,61,0
1,75,0,96
1,74,61,0
1,74,0,96
1,75,61,0
1,75,0,96
1,79,78,0
1,79,0,480
1,69,82,0
1,69,0,480
1,81,77,240
1,81,0,240
1,82,85,0
1,82,0,160
1,77,75,0
1,77,0,160
1,74,74,0
1,74,0,160
1,79,84,0
1,79,0,160
1,75,75,0
1,75,0,160
1,72,75,0
1,72,0,160
1,77,84,0
1,77,0,160
1,74,74,0
1,74,0,160
1,70,74,0
1,70,0,160
1,75,84,0
1,75,0,160
1,72,74,0
1,72,0,160
1,69,72,0
1,69,0,160
1,70,83,0
1,70,0,480
1,65,55,240
1,65,0,240
1,70,58,0
1,70,0,120
1,69,52,120
1,69,0,120
1,70,55,120
1,70,0,120
1,72,51,120
1,72,0,120
1,74,55,120
1,74,0,120
1,70,56,360
1,74,56,0
1,74,0,180
1,70,0,0
1,70,59,300
1,74,59,0
1,74,0,480
1,70,0,0
1,72,55,0
1,75,55,0
1,75,0,480
1,72,0,0
1,72,54,0
1,69,54,0
1,69,0,480
1,72,0,0
1,65,55,240
1,65,0,240
1,72,57,0
1,72,0,120
1,70,54,120
1,70,0,120
1,72,56,120
1,72,0,120
1,74,54,120
1,74,0,120
1,75,56,120
1,75,0,120
1,67,56,360
1,75,56,0
1,75,0,180
1,67,0,0
1,75,58,300
1,72,58,0
1,72,0,450
1,75,0,0
1,77,56,30
1,69,56,0
1,69,0,480
1,77,0,0
1,74,54,0
1,70,54,0
1,70,0,480
1,74,0,0
1,70,58,240
1,70,0,240
1,74,64,0
1,74,0,120
1,72,59,120
1,72,0,120
1,74,64,120
1,74,0,120
1,75,67,120
1,75,0,120
1,77,71,120
1,77,0,360
1,77,76,120
1,77,0,360
1,77,79,120
1,77,0,360
1,77,82,120
1,77,0,360
1,78,91,120
1,72,59,240
1,72,0,240
1,74,59,0
1,74,0,240
1,75,63,0
1,75,0,173
1,75,63,67
1,75,0,240
1,74,62,0
1,74,0,180
1,74,61,60
1,74,0,240
1,72,57,0
1,72,0,180
1,78,0,60
1,70,70,0
1,79,70,0
1,79,0,960
1,70,0,0
1,73,64,0
1,73,0,960
1,74,69,0
1,74,0,480
1,62,63,360
1,62,0,120
1,74,80,0
1,74,0,450
