track,note,velocity,time
3,62,108,1070
3,62,0,65
3,62,102,345
3,62,0,66
3,62,113,1179
3,62,0,83
3,62,110,320
3,62,0,88
3,62,112,325
3,62,0,86
3,62,108,330
3,62,0,92
3,72,86,311
3,69,86,0
3,72,0,122
3,69,0,2
3,64,90,283
3,67,90,2
3,67,0,113
3,64,0,0
3,65,87,298
3,62,87,0
3,65,0,112
3,62,0,2
3,69,86,718
3,72,86,2
3,72,0,112
3,69,0,2
3,64,89,287
3,67,90,0
3,64,0,115
3,67,0,2
3,65,87,296
3,62,87,0
3,65,0,118
3,62,0,2
3,69,86,701
3,72,86,2
3,69,0,105
3,72,0,2
3,64,89,304
3,67,89,0
3,67,0,116
3,64,0,0
3,65,87,300
3,62,86,0
3,65,0,110
3,62,0,2
3,72,86,705
3,69,86,0
3,69,0,111
3,72,0,0
3,64,89,298
3,67,89,0
3,64,0,116
3,67,0,4
3,62,87,298
3,65,87,0
3,62,0,116
3,65,0,2
3,65,88,550
3,65,0,1220
3,64,80,6
3,64,0,230
3,65,86,184
3,62,82,1228
3,65,0,8
3,62,0,2
3,72,86,155
3,69,86,0
3,72,0,122
3,69,0,2
3,64,90,282
3,67,90,3
3,67,0,113
3,64,0,0
3,65,87,298
3,62,87,0
3,65,0,112
3,62,0,2
3,69,86,718
3,72,86,2
3,72,0,111
3,69,0,2
3,64,89,287
3,67,90,0
3,64,0,116
3,67,0,2
3,65,87,296
3,62,87,0
3,65,0,118
3,62,0,2
3,69,86,701
3,72,86,2
3,69,0,105
3,72,0,2
3,64,89,304
3,67,89,0
3,67,0,116
3,64,0,0
3,65,87,300
3,62,86,0
3,65,0,109
3,62,0,3
3,72,86,704
3,69,86,0
3,69,0,112
3,72,0,0
3,64,89,298
3,67,89,0
3,64,0,116
3,67,0,4
3,62,87,298
3,65,87,0
3,62,0,115
3,65,0,3
3,65,88,550
3,65,0,1220
3,64,80,6
3,64,0,229
3,65,86,185
3,62,82,1227
3,65,0,9
3,62,0,2
3,69,86,6735
3,72,86,2
3,69,0,105
3,72,0,2
3,64,89,305
3,67,89,0
3,67,0,115
3,64,0,0
3,65,87,300
3,62,86,0
3,65,0,109
3,62,0,2
3,72,86,706
3,69,86,0
3,69,0,111
3,72,0,0
3,64,89,298
3,67,89,0
3,64,0,115
3,67,0,5
3,62,87,298
3,65,87,0
3,62,0,115
3,65,0,2
3,65,88,551
3,65,0,1219
3,64,80,7
3,64,0,229
3,65,86,184
3,62,82,1228
3,65,0,9
3,62,0,2
3,69,54,152
3,72,54,2
3,69,0,105
3,72,0,2
3,64,55,304
3,67,55,0
3,67,0,116
3,64,0,0
3,65,54,300
3,62,54,0
3,65,0,109
3,62,0,2
3,72,54,705
3,69,54,0
3,69,0,112
3,72,0,0
3,64,55,297
3,67,55,0
3,64,0,116
3,67,0,4
3,62,54,298
3,65,54,0
3,62,0,116
3,65,0,2
3,69,86,701
3,72,86,2
3,69,0,105
3,72,0,2
3,64,89,304
3,67,89,0
3,67,0,116
3,64,0,0
3,65,87,300
3,62,86,0
3,65,0,110
3,62,0,2
3,72,86,705
3,69,86,0
3,69,0,111
3,72,0,0
3,64,89,298
3,67,89,0
3,64,0,116
3,67,0,4
3,62,87,298
3,65,87,0
3,62,0,116
3,65,0,2
3,69,86,700
3,72,86,2
3,69,0,106
3,72,0,2
3,64,89,304
3,67,89,0
3,67,0,116
3,64,0,0
3,65,87,300
3,62,86,0
3,65,0,109
3,62,0,2
3,72,86,705
3,69,86,0
3,69,0,112
3,72,0,0
3,64,89,298
3,67,89,0
3,64,0,115
3,67,0,5
3,62,87,297
3,65,87,0
3,62,0,116
3,65,0,2
3,69,86,701
3,72,86,2
3,69,0,105
3,72,0,2
3,64,89,305
3,67,89,0
3,67,0,115
3,64,0,0
3,65,87,300
3,62,86,0
3,65,0,109
3,62,0,2
3,72,86,706
3,69,86,0
3,69,0,111
3,72,0,0
3,64,89,298
3,67,89,0
3,64,0,115
3,67,0,5
3,62,87,298
3,65,87,0
3,62,0,115
3,65,0,2
3,69,86,701
3,72,86,3
3,69,0,104
3,72,0,2
3,64,89,305
3,67,89,0
3,67,0,115
3,64,0,0
3,65,87,300
3,62,86,0
3,65,0,110
3,62,0,2
3,72,86,705
3,69,86,0
3,69,0,111
3,72,0,0
3,64,89,298
3,67,89,0
3,64,0,116
3,67,0,4
3,62,87,298
3,65,87,0
3,62,0,116
3,65,0,2
3,69,86,701
3,72,86,2
3,69,0,105
3,72,0,2
3,64,89,304
3,67,89,0
3,67,0,116
3,64,0,0
3,65,87,300
3,62,86,0
3,65,0,109
3,62,0,3
3,72,86,704
3,69,86,0
3,69,0,112
3,72,0,0
3,64,89,298
3,67,89,0
3,64,0,116
3,67,0,4
3,62,87,298
3,65,87,0
3,62,0,115
3,65,0,3
3,69,36,700
3,72,36,2
3,69,0,290
3,72,0,2
4,38,85,2356
4,38,0,56
4,40,90,0
4,43,92,47
4,40,0,9
4,40,80,42
4,43,0,7
4,40,0,47
4,43,102,0
4,43,0,354
4,31,80,4
4,31,0,43
4,31,105,8
4,31,0,358
4,31,108,56
4,31,0,683
4,31,76,41
4,31,0,84
4,29,108,13
4,29,0,126
4,41,112,28
4,41,0,24
4,33,96,130
4,33,0,45
4,34,88,11
4,34,0,30
4,36,116,19
4,36,0,219
4,38,84,36
4,38,0,47
4,40,90,9
4,40,0,45
4,38,81,2
4,38,0,45
4,34,112,4
4,34,0,124
4,38,116,35
4,38,0,143
4,34,100,13
4,34,0,82
4,36,108,11
4,36,0,233
4,38,108,77
4,38,0,50
4,41,112,4
4,41,0,32
4,29,106,26
4,29,0,92
4,41,102,56
4,41,0,38
4,33,102,120
4,33,0,43
4,34,100,6
4,34,0,39
4,36,106,13
4,36,0,227
4,38,92,36
4,38,0,37
4,40,94,11
4,40,0,42
4,38,88,4
4,38,0,48
4,34,110,6
4,34,0,204
4,34,80,2
4,34,0,92
4,34,70,15
4,36,102,92
4,34,0,5
4,36,0,226
4,38,108,30
4,38,0,33
4,41,112,17
4,41,0,34
4,29,108,73
4,29,0,127
4,41,112,27
4,41,0,24
4,33,96,131
4,33,0,44
4,34,88,11
4,34,0,30
4,36,116,19
4,36,0,219
4,38,84,37
4,38,0,47
4,40,90,8
4,40,0,45
4,38,81,2
4,38,0,46
4,34,112,4
4,34,0,124
4,38,116,34
4,38,0,144
4,34,100,13
4,34,0,81
4,36,108,11
4,36,0,233
4,38,108,78
4,38,0,49
4,41,112,4
4,41,0,32
4,29,106,26
4,29,0,92
4,41,102,56
4,41,0,39
4,33,102,120
4,33,0,42
4,34,100,7
4,34,0,38
4,36,106,13
4,36,0,227
4,38,92,37
4,38,0,36
4,40,94,11
4,40,0,43
4,38,88,4
4,38,0,47
4,34,110,7
4,34,0,150
4,34,95,6
4,34,0,142
4,34,70,8
4,34,0,96
4,36,102,2
4,36,0,358
4,39,92,60
4,39,0,127
4,51,90,30
4,51,0,197
4,37,100,56
4,37,0,42
4,41,74,9
4,41,0,39
4,44,89,15
4,44,0,45
4,49,108,2
4,49,0,163
4,34,72,49
4,36,96,49
4,34,0,3
4,36,0,94
4,48,96,56
4,48,0,134
4,36,78,28
4,36,0,54
4,36,94,40
4,36,0,341
4,36,72,24
4,39,94,45
4,36,0,2
4,39,0,133
4,51,92,25
4,51,0,230
4,37,100,28
4,37,0,42
4,37,75,5
4,44,85,53
4,37,0,9
4,44,0,34
4,49,96,9
4,49,0,193
4,34,84,17
4,34,0,26
4,36,102,23
4,36,0,305
4,29,71,53
4,29,0,26
4,31,102,23
4,31,0,54
4,31,88,0
4,31,0,148
4,31,90,6
4,31,0,103
4,31,88,4
4,31,0,82
4,31,83,13
4,31,0,49
4,31,95,4
4,31,0,105
4,31,86,0
4,31,0,45
4,31,92,5
4,31,0,104
4,31,85,2
4,31,0,35
4,28,75,13
4,28,0,23
4,29,108,30
4,29,0,150
4,41,112,5
4,41,0,23
4,33,96,131
4,33,0,45
4,34,88,11
4,34,0,30
4,36,116,19
4,36,0,193
4,38,84,62
4,38,0,47
4,40,90,9
4,40,0,44
4,38,81,3
4,38,0,45
4,34,112,4
4,34,0,124
4,38,116,34
4,38,0,144
4,34,100,13
4,34,0,81
4,36,108,11
4,36,0,234
4,38,108,77
4,38,0,49
4,41,112,5
4,41,0,32
4,29,106,25
4,29,0,93
4,41,102,55
4,41,0,39
4,33,102,120
4,33,0,42
4,34,100,7
4,34,0,39
4,36,106,12
4,36,0,228
4,38,92,36
4,38,0,36
4,40,94,11
4,40,0,43
4,38,88,4
4,38,0,48
4,34,110,6
4,34,0,204
4,34,80,2
4,34,0,92
4,34,70,15
4,36,102,92
4,34,0,4
4,36,0,227
4,38,108,30
4,38,0,32
4,41,112,18
4,41,0,34
4,29,108,73
4,29,0,126
4,41,112,28
4,41,0,23
4,33,96,131
4,33,0,45
4,34,88,11
4,34,0,30
4,36,116,19
4,36,0,219
4,38,84,36
4,38,0,47
4,40,90,9
4,40,0,45
4,38,81,2
4,38,0,45
4,34,112,5
4,34,0,124
4,38,116,34
4,38,0,144
4,34,100,12
4,34,0,82
4,36,108,10
4,36,0,234
4,38,108,77
4,38,0,49
4,41,112,5
4,41,0,32
4,29,106,26
4,29,0,92
4,41,102,55
4,41,0,39
4,33,102,120
4,33,0,43
4,34,100,6
4,34,0,39
4,36,106,13
4,36,0,227
4,38,92,37
4,38,0,36
4,40,94,10
4,40,0,44
4,38,88,4
4,38,0,47
4,34,110,6
4,34,0,150
4,34,95,7
4,34,0,141
4,34,70,9
4,34,0,96
4,36,102,2
4,36,0,358
4,39,92,60
4,39,0,126
4,51,90,30
4,51,0,198
4,37,100,56
4,37,0,42
4,41,74,9
4,41,0,39
4,44,89,14
4,44,0,46
4,49,108,2
4,49,0,162
4,34,72,50
4,36,96,49
4,34,0,2
4,36,0,95
4,48,96,55
4,48,0,135
4,36,78,28
4,36,0,54
4,36,94,40
4,36,0,341
4,36,72,23
4,39,94,46
4,36,0,2
4,39,0,132
4,51,92,26
4,51,0,230
4,37,100,28
4,37,0,42
4,37,75,4
4,44,85,54
4,37,0,9
4,44,0,34
4,49,96,9
4,49,0,192
4,34,84,18
4,34,0,25
4,36,102,24
4,36,0,304
4,29,71,54
4,29,0,25
4,31,102,24
4,31,0,54
4,31,88,0
4,31,0,148
4,31,90,6
4,31,0,103
4,31,88,4
4,31,0,81
4,31,83,13
4,31,0,49
4,31,95,5
4,31,0,105
4,31,86,0
4,31,0,45
4,31,92,4
4,31,0,204
4,31,83,0
4,31,0,49
4,31,95,4
4,31,0,105
4,31,86,0
4,31,0,45
4,31,92,4
4,31,0,106
4,31,85,2
4,31,0,98
4,36,116,2
4,36,0,46
4,36,108,10
4,36,0,34
4,36,98,9
4,36,0,4
4,28,96,49
4,28,0,150
4,30,104,5
4,30,0,85
4,31,110,20
4,31,0,47
4,31,104,2
4,31,0,101
4,31,111,4
4,31,0,118
4,33,112,34
4,33,0,43
4,31,108,7
4,31,0,47
4,36,109,6
4,36,0,45
4,36,102,4
4,36,0,339
4,31,102,26
4,31,0,43
4,31,92,4
4,31,0,98
4,31,106,9
4,31,0,143
4,33,102,9
4,33,0,43
4,31,88,2
4,31,0,52
4,36,116,8
4,36,0,45
4,36,108,11
4,36,0,34
4,36,98,9
4,36,0,4
4,28,96,49
4,28,0,150
4,30,104,4
4,30,0,86
4,31,110,20
4,31,0,47
4,31,104,2
4,31,0,101
4,31,111,4
4,31,0,144
4,33,112,8
4,33,0,43
4,31,108,6
4,31,0,47
4,36,109,7
4,36,0,45
4,36,102,4
4,36,0,272
4,31,102,92
4,31,0,43
4,31,92,5
4,31,0,98
4,31,106,9
4,31,0,143
4,33,102,9
4,33,0,43
4,31,88,2
4,31,0,51
4,36,116,9
4,36,0,45
4,36,108,11
4,36,0,34
4,36,98,8
4,36,0,5
4,28,96,49
4,28,0,150
4,30,104,4
4,30,0,86
4,31,110,19
4,31,0,47
4,31,104,2
4,31,0,101
4,31,111,5
4,31,0,118
4,33,112,34
4,33,0,42
4,31,108,7
4,31,0,47
4,36,109,6
4,36,0,46
4,36,102,4
4,36,0,338
4,31,102,26
4,31,0,43
4,31,92,4
4,31,0,99
4,31,106,8
4,31,0,144
4,33,102,8
4,33,0,44
4,31,88,2
4,31,0,51
4,36,116,9
4,36,0,44
4,36,108,11
4,36,0,35
4,36,98,8
4,36,0,4
4,28,96,50
4,28,0,150
4,30,104,4
4,30,0,86
4,31,110,19
4,31,0,47
4,31,104,2
4,31,0,101
4,31,101,4
4,31,0,118
4,33,102,35
4,33,0,42
4,31,98,7
4,31,0,47
4,31,110,8
4,31,0,48
4,31,104,2
4,31,0,100
4,31,101,5
4,31,0,133
4,28,98,68
4,28,0,22
4,29,108,34
4,29,0,126
4,41,112,28
4,41,0,24
4,33,96,130
4,33,0,46
4,34,88,10
4,34,0,30
4,36,116,20
4,36,0,218
4,38,84,36
4,38,0,48
4,40,90,8
4,40,0,45
4,38,81,2
4,38,0,45
4,34,112,4
4,34,0,125
4,38,116,34
4,38,0,144
4,34,100,13
4,34,0,81
4,36,108,11
4,36,0,233
4,38,108,77
4,38,0,50
4,41,112,4
4,41,0,32
4,29,106,26
4,29,0,92
4,41,102,56
4,41,0,38
4,33,102,120
4,33,0,43
4,34,100,7
4,34,0,38
4,36,106,13
4,36,0,227
4,38,92,36
4,38,0,37
4,40,94,11
4,40,0,42
4,38,88,5
4,38,0,47
4,34,110,6
4,34,0,150
4,34,95,7
4,34,0,141
4,34,70,9
4,34,0,96
4,36,102,3
4,36,0,357
4,39,92,60
4,39,0,127
4,51,90,30
4,51,0,197
4,37,100,55
4,37,0,44
4,41,74,8
4,41,0,38
4,44,89,16
4,44,0,44
4,49,108,3
4,49,0,163
4,34,72,49
4,36,96,49
4,34,0,2
4,36,0,94
4,48,96,56
4,48,0,135
4,36,78,28
4,36,0,54
4,36,94,41
4,36,0,340
4,36,72,24
4,39,94,45
4,36,0,2
4,39,0,133
4,51,92,26
4,51,0,229
4,37,100,27
4,37,0,44
4,37,75,4
4,44,85,53
4,37,0,9
4,44,0,34
4,49,96,9
4,49,0,193
4,34,84,17
4,34,0,25
4,36,102,24
4,36,0,304
4,29,71,54
4,29,0,26
4,31,102,23
4,31,0,54
4,31,88,0
4,31,0,147
4,31,90,7
4,31,0,103
4,31,88,4
4,31,0,82
4,31,83,12
4,31,0,50
4,31,95,4
4,31,0,105
4,31,86,0
4,31,0,45
4,31,92,4
4,31,0,150
4,31,75,7
4,31,0,23
4,31,83,24
4,31,0,49
4,31,95,5
4,31,0,104
4,31,86,0
4,31,0,46
4,31,92,4
4,31,0,107
4,29,75,49
4,29,0,24
4,29,108,28
4,29,0,128
4,36,98,281
4,36,0,49
4,36,95,4
4,36,0,95
4,36,84,2
4,36,0,49
4,36,96,6
4,36,0,50
4,38,84,4
4,38,0,47
4,40,90,9
4,40,0,45
4,38,81,2
4,38,0,45
4,34,104,2
4,34,0,54
4,29,86,4
4,29,0,41
4,29,96,4
4,29,0,49
4,29,74,2
4,29,0,50
4,29,108,2
4,29,0,66
4,36,108,138
4,36,0,150
4,29,106,267
4,29,0,135
4,29,82,18
4,29,0,46
4,29,107,7
4,29,0,97
4,33,82,8
4,33,0,96
4,36,106,5
4,36,0,143
4,36,79,11
4,36,0,47
4,36,95,4
4,36,0,50
4,38,92,8
4,38,0,43
4,40,94,5
4,40,0,42
4,38,88,4
4,38,0,48
4,34,110,6
4,34,0,150
4,38,95,6
4,38,0,142
4,34,70,8
4,34,0,97
4,36,102,2
4,36,0,152
4,38,72,159
4,38,0,49
4,41,88,7
4,41,0,23
4,29,106,28
4,29,0,135
4,29,82,17
4,29,0,47
4,29,107,7
4,29,0,96
4,33,82,9
4,33,0,47
4,34,89,2
4,34,0,32
4,36,106,19
4,36,0,144
4,36,72,11
4,36,0,47
4,36,90,4
4,36,0,50
4,38,92,8
4,38,0,43
4,40,94,4
4,40,0,43
