track,note,velocity,time
1,53,127,1152
1,64,127,0
1,59,127,0
1,66,127,0
1,64,127,0
1,59,127,0
1,66,127,0
1,59,127,0
1,64,127,0
1,59,127,0
1,64,127,0
1,59,127,0
1,64,127,0
1,63,127,0
1,59,127,0
1,63,127,0
1,64,127,0
1,59,127,0
1,61,127,0
1,64,127,0
1,59,127,0
1,64,127,0
1,61,127,0
1,59,127,0
1,64,127,0
1,59,127,0
1,64,127,0
1,59,127,0
1,64,127,0
1,63,127,0
1,59,127,0
1,63,127,0
1,64,127,0
1,59,127,0
1,61,127,0
1,64,127,0
1,59,127,0
1,64,127,0
1,61,127,0
1,59,127,0
1,64,127,0
1,59,127,0
1,64,127,0
1,59,127,0
1,61,127,0
1,64,127,0
1,59,127,0
1,64,127,0
1,61,127,0
1,59,127,0
1,64,127,0
1,59,127,0
1,64,127,0
1,56,127,0
1,59,127,0
1,64,127,0
1,56,127,0
1,59,127,0
1,64,127,0
1,59,127,0
1,64,127,0
1,59,127,0
1,64,127,0
1,59,127,0
1,61,127,0
1,64,127,0
1,59,127,0
1,64,127,0
1,61,127,0
1,59,127,0
1,64,127,0
1,59,127,0
1,64,127,0
1,61,127,0
1,59,127,0
1,61,127,0
1,64,127,0
1,59,127,0
1,64,127,0
1,64,127,0
1,59,127,0
1,66,127,0
1,64,127,0
1,59,127,0
1,66,127,0
1,59,127,0
1,64,127,0
1,59,127,0
1,64,127,0
1,59,127,0
1,64,127,0
1,63,127,0
1,59,127,0
1,63,127,0
1,64,127,0
1,59,127,0
1,61,127,0
1,64,127,0
1,59,127,0
1,64,127,0
1,61,127,0
1,59,127,0
1,64,127,0
1,59,127,0
1,64,127,0
1,59,127,0
1,64,127,0
1,63,127,0
1,59,127,0
1,63,127,0
1,64,127,0
1,59,127,0
1,61,127,0
1,64,127,0
1,59,127,0
1,64,127,0
1,61,127,0
1,59,127,0
1,64,127,0
1,59,127,0
1,64,127,0
1,59,127,0
1,61,127,0
1,64,127,0
1,59,127,0
1,64,127,0
1,61,127,0
1,59,127,0
1,64,127,0
1,59,127,0
1,64,127,0
1,56,127,0
1,59,127,0
1,64,127,0
1,56,127,0
1,59,127,0
1,64,127,0
1,59,127,0
1,64,127,0
1,59,127,0
1,64,127,0
1,59,127,0
1,61,127,0
1,64,127,0
1,59,127,0
1,64,127,0
1,61,127,0
1,59,127,0
1,64,127,0
1,59,127,0
1,64,127,0
1,61,127,0
1,59,127,0
1,61,127,0
1,64,127,0
1,59,127,0
1,64,127,0
1,40,100,0
1,57,100,0
1,64,127,192
1,59,127,0
1,66,127,0
1,64,127,0
1,59,127,0
1,66,127,0
1,59,127,0
1,64,127,0
1,59,127,0
1,64,127,0
1,59,127,0
1,64,127,0
1,63,127,0
1,59,127,0
1,63,127,0
1,64,127,0
1,59,127,0
1,61,127,0
1,64,127,0
1,59,127,0
1,64,127,0
1,61,127,0
1,59,127,0
1,64,127,0
1,59,127,0
1,64,127,0
1,59,127,0
1,64,127,0
1,63,127,0
1,59,127,0
1,63,127,0
1,64,127,0
1,59,127,0
1,61,127,0
1,64,127,0
1,59,127,0
1,64,127,0
1,61,127,0
1,59,127,0
1,64,127,0
1,59,127,0
1,64,127,0
1,59,127,0
1,61,127,0
1,64,127,0
1,59,127,0
1,64,127,0
1,61,127,0
1,59,127,0
1,64,127,0
1,59,127,0
1,64,127,0
1,56,127,0
1,59,127,0
1,64,127,0
1,56,127,0
1,59,127,0
1,64,127,0
1,59,127,0
1,64,127,0
1,59,127,0
1,64,127,0
1,59,127,0
1,61,127,0
1,64,127,0
1,59,127,0
1,64,127,0
1,61,127,0
1,59,127,0
1,64,127,0
1,59,127,0
1,64,127,0
1,61,127,0
1,59,127,0
1,61,127,0
1,64,127,0
1,59,127,0
1,64,127,0
1,64,127,0
1,59,127,0
1,66,127,0
1,64,127,0
1,59,127,0
1,66,127,0
1,59,127,0
1,64,127,0
1,59,127,0
1,64,127,0
1,59,127,0
1,64,127,0
1,63,127,0
1,59,127,0
1,63,127,0
1,64,127,0
1,59,127,0
1,61,127,0
1,64,127,0
1,59,127,0
1,64,127,0
1,61,127,0
1,59,127,0
1,64,127,0
1,59,127,0
1,64,127,0
1,59,127,0
1,64,127,0
1,63,127,0
1,59,127,0
1,63,127,0
1,64,127,0
1,59,127,0
1,61,127,0
1,64,127,0
1,59,127,0
1,64,127,0
1,61,127,0
1,59,127,0
1,64,127,0
1,59,127,0
1,64,127,0
1,59,127,0
1,61,127,0
1,64,127,0
1,59,127,0
1,64,127,0
1,61,127,0
1,59,127,0
1,64,127,0
1,59,127,0
1,64,127,0
1,56,127,0
1,59,127,0
1,64,127,0
1,56,127,0
1,59,127,0
1,64,127,0
1,59,127,0
1,64,127,0
1,59,127,0
1,64,127,0
1,59,127,0
1,61,127,0
1,64,127,0
1,59,127,0
1,64,127,0
1,61,127,0
1,59,127,0
1,64,127,0
1,59,127,0
1,64,127,0
1,61,127,0
1,59,127,0
1,61,127,0
1,64,127,0
1,59,127,0
1,64,127,0
1,40,100,0
1,57,100,0
2,53,127,1152
2,64,127,0
2,59,127,0
2,66,127,0
2,64,127,0
2,59,127,0
2,66,127,0
2,59,127,0
2,64,127,0
2,59,127,0
2,64,127,0
2,59,127,0
2,64,127,0
2,63,127,0
2,59,127,0
2,63,127,0
2,64,127,0
2,59,127,0
2,61,127,0
2,64,127,0
2,59,127,0
2,64,127,0
2,61,127,0
2,59,127,0
2,64,127,0
2,59,127,0
2,64,127,0
2,59,127,0
2,64,127,0
2,63,127,0
2,59,127,0
2,63,127,0
2,64,127,0
2,59,127,0
2,61,127,0
2,64,127,0
2,59,127,0
2,64,127,0
2,61,127,0
2,59,127,0
2,64,127,0
2,59,127,0
2,64,127,0
2,59,127,0
2,61,127,0
2,64,127,0
2,59,127,0
2,64,127,0
2,61,127,0
2,59,127,0
2,64,127,0
2,59,127,0
2,64,127,0
2,56,127,0
2,59,127,0
2,64,127,0
2,56,127,0
2,59,127,0
2,64,127,0
2,59,127,0
2,64,127,0
2,59,127,0
2,64,127,0
2,59,127,0
2,61,127,0
2,64,127,0
2,59,127,0
2,64,127,0
2,61,127,0
2,59,127,0
2,64,127,0
2,59,127,0
2,64,127,0
2,59,127,0
2,64,127,0
2,62,127,0
2,59,127,0
2,64,127,0
2,59,127,0
2,61,127,0
2,64,127,0
2,59,127,0
2,64,127,0
2,64,127,0
2,59,127,0
2,66,127,0
2,64,127,0
2,59,127,0
2,66,127,0
2,59,127,0
2,64,127,0
2,59,127,0
2,64,127,0
2,59,127,0
2,64,127,0
2,63,127,0
2,59,127,0
2,63,127,0
2,64,127,0
2,59,127,0
2,61,127,0
2,64,127,0
2,59,127,0
2,64,127,0
2,61,127,0
2,59,127,0
2,64,127,0
2,59,127,0
2,64,127,0
2,59,127,0
2,64,127,0
2,63,127,0
2,59,127,0
2,63,127,0
2,64,127,0
2,59,127,0
2,61,127,0
2,64,127,0
2,59,127,0
2,64,127,0
2,61,127,0
2,59,127,0
2,64,127,0
2,59,127,0
2,64,127,0
2,59,127,0
2,61,127,0
2,64,127,0
2,59,127,0
2,64,127,0
2,61,127,0
2,59,127,0
2,64,127,0
2,59,127,0
2,64,127,0
2,56,127,0
2,59,127,0
2,64,127,0
2,56,127,0
2,59,127,0
2,64,127,0
2,59,127,0
2,64,127,0
2,59,127,0
2,64,127,0
2,59,127,0
2,61,127,0
2,64,127,0
2,59,127,0
2,64,127,0
2,61,127,0
2,59,127,0
2,64,127,0
2,59,127,0
2,64,127,0
2,59,127,0
2,64,127,0
2,62,127,0
2,59,127,0
2,64,127,0
2,59,127,0
2,61,127,0
2,64,127,0
2,59,127,0
2,64,127,0
2,45,127,544
2,38,127,32
2,47,127,0
2,40,127,0
2,45,127,0
2,38,127,0
2,47,127,0
2,40,127,0
2,45,127,0
2,38,127,0
2,45,127,544
2,38,127,32
2,47,127,0
2,40,127,0
2,45,127,0
2,38,127,0
2,47,127,0
2,40,127,0
2,45,127,0
2,38,127,0
2,45,127,544
2,38,127,32
2,47,127,0
2,40,127,0
2,45,127,0
2,38,127,0
2,47,127,0
2,40,127,0
2,45,127,0
2,38,127,0
2,57,127,4
2,69,127,0
2,57,127,0
2,69,127,2688
2,66,127,0
2,69,127,2688
2,75,127,0
2,47,127,1344
2,52,127,0
2,40,127,0
2,40,127,0
2,50,127,0
2,59,127,0
2,55,127,0
2,45,127,0
2,50,127,0
2,47,127,0
2,54,127,0
2,59,127,0
2,47,127,0
2,59,127,0
2,54,127,0
2,47,127,0
2,59,127,0
2,54,127,0
2,47,127,0
2,59,127,0
2,54,127,0
2,45,127,0
2,50,127,0
2,51,127,0
2,56,127,0
2,63,127,0
2,68,127,0
2,68,127,0
2,63,127,0
2,51,127,0
2,56,127,0
2,63,127,0
2,68,127,0
2,51,127,0
2,56,127,0
2,68,127,0
2,63,127,0
2,51,127,0
2,56,127,0
2,68,127,0
2,63,127,0
2,40,127,0
2,45,127,0
2,54,127,0
2,61,127,0
2,66,127,0
2,70,127,0
2,52,127,0
2,59,127,0
2,64,127,0
2,52,127,0
2,59,127,0
2,64,127,0
2,68,127,0
2,52,127,0
2,59,127,0
2,64,127,0
2,68,127,0
2,52,127,0
2,59,127,0
2,64,127,0
2,68,127,0
2,52,127,0
2,59,127,0
2,64,127,0
2,68,127,0
2,38,127,0
2,54,127,0
2,61,127,0
2,66,127,0
2,70,127,0
2,52,127,0
2,59,127,0
2,64,127,0
2,68,127,0
2,52,127,0
2,59,127,0
2,64,127,0
2,68,127,0
2,54,127,0
2,61,127,0
2,66,127,0
2,70,127,0
2,50,127,0
2,55,127,0
2,59,127,0
2,48,127,0
2,60,127,0
2,55,127,0
2,67,127,0
2,38,127,192
2,66,127,0
2,47,127,0
2,54,127,0
2,59,127,0
2,47,127,0
2,54,127,0
2,59,127,0
2,66,127,0
2,71,127,0
2,59,127,0
2,66,127,0
2,71,127,0
2,54,127,0
2,45,127,0
2,50,127,0
2,51,127,0
2,56,127,0
2,63,127,0
2,68,127,0
2,51,127,0
2,56,127,0
2,63,127,0
2,68,127,0
2,51,127,0
2,56,127,0
2,63,127,0
2,68,127,0
2,51,127,0
2,56,127,0
2,63,127,0
2,68,127,0
2,51,127,0
2,56,127,0
2,63,127,0
2,68,127,0
2,51,127,0
2,56,127,0
2,63,127,0
2,68,127,0
2,38,127,0
2,45,127,0
2,54,127,0
2,61,127,0
2,66,127,0
2,52,127,0
2,59,127,0
2,64,127,0
2,52,127,0
2,59,127,0
2,64,127,0
2,52,127,0
2,59,127,0
2,64,127,0
2,68,127,0
2,52,127,0
2,59,127,0
2,64,127,0
2,68,127,0
2,38,127,0
2,45,127,0
2,54,127,0
2,61,127,0
2,66,127,0
2,70,127,0
2,52,127,0
2,59,127,0
2,64,127,0
2,68,127,0
2,52,127,0
2,59,127,0
2,64,127,0
2,68,127,0
2,54,127,0
2,61,127,0
2,66,127,0
2,70,127,0
2,45,127,0
2,50,127,0
2,67,127,0
2,48,127,0
2,55,127,0
2,60,127,0
2,38,127,192
2,47,127,0
2,54,127,0
2,59,127,0
2,66,127,0
2,47,127,0
2,54,127,0
2,59,127,0
2,66,127,0
2,71,127,0
2,59,127,0
2,66,127,0
2,71,127,0
2,54,127,0
2,45,127,0
2,50,127,0
2,51,127,0
2,56,127,0
2,63,127,0
2,68,127,0
2,51,127,0
2,56,127,0
2,63,127,0
2,68,127,0
2,51,127,0
2,56,127,0
2,63,127,0
2,68,127,0
2,51,127,0
2,56,127,0
2,63,127,0
2,68,127,0
2,51,127,0
2,56,127,0
2,63,127,0
2,68,127,0
2,51,127,0
2,56,127,0
2,63,127,0
2,68,127,0
2,38,127,0
2,45,127,0
2,54,127,0
2,61,127,0
2,66,127,0
2,52,127,0
2,59,127,0
2,64,127,0
2,52,127,0
2,59,127,0
2,64,127,0
2,52,127,0
2,59,127,0
2,64,127,0
2,68,127,0
2,52,127,0
2,59,127,0
2,64,127,0
2,68,127,0
2,38,127,0
2,45,127,0
2,54,127,0
2,61,127,0
2,66,127,0
2,70,127,0
2,52,127,0
2,59,127,0
2,64,127,0
2,68,127,0
2,52,127,0
2,59,127,0
2,64,127,0
2,68,127,0
2,54,127,0
2,61,127,0
2,66,127,0
2,70,127,0
2,45,127,0
2,50,127,0
2,48,127,0
2,55,127,0
2,60,127,0
2,67,127,0
2,38,127,192
2,47,127,0
2,54,127,0
2,59,127,0
2,66,127,0
2,47,127,0
2,54,127,0
2,59,127,0
2,66,127,0
2,71,127,0
2,59,127,0
2,66,127,0
2,71,127,0
2,54,127,0
2,45,127,0
2,50,127,0
2,51,127,0
2,56,127,0
2,63,127,0
2,68,127,0
2,51,127,0
2,56,127,0
2,63,127,0
2,68,127,0
2,51,127,0
2,56,127,0
2,63,127,0
2,68,127,0
2,51,127,0
2,56,127,0
2,63,127,0
2,68,127,0
2,51,127,0
2,56,127,0
2,63,127,0
2,68,127,0
2,51,127,0
2,56,127,0
2,63,127,0
2,68,127,0
2,38,127,0
2,45,127,0
2,54,127,0
2,61,127,0
2,66,127,0
2,52,127,0
2,59,127,0
2,64,127,0
2,52,127,0
2,59,127,0
2,64,127,0
2,52,127,0
2,59,127,0
2,64,127,0
2,68,127,0
2,52,127,0
2,59,127,0
2,64,127,0
2,68,127,0
2,38,127,0
2,45,127,0
2,54,127,0
2,61,127,0
2,66,127,0
2,70,127,0
2,52,127,0
2,59,127,0
2,64,127,0
2,68,127,0
2,52,127,0
2,59,127,0
2,64,127,0
2,68,127,0
2,54,127,0
2,61,127,0
2,66,127,0
2,70,127,0
2,45,127,0
2,50,127,0
2,48,127,0
2,55,127,0
2,60,127,0
2,67,127,0
2,64,127,0
2,59,127,0
2,66,127,0
2,64,127,0
2,59,127,0
2,66,127,0
2,59,127,0
2,64,127,0
2,59,127,0
2,64,127,0
2,59,127,0
2,64,127,0
2,63,127,0
2,59,127,0
2,63,127,0
2,64,127,0
2,59,127,0
2,61,127,0
2,64,127,0
2,59,127,0
2,64,127,0
2,61,127,0
2,59,127,0
2,64,127,0
2,59,127,0
2,64,127,0
2,59,127,0
2,64,127,0
2,63,127,0
2,59,127,0
2,63,127,0
2,64,127,0
2,59,127,0
2,61,127,0
2,64,127,0
2,59,127,0
2,64,127,0
2,61,127,0
2,59,127,0
2,64,127,0
2,59,127,0
2,64,127,0
2,59,127,0
2,61,127,0
2,64,127,0
2,59,127,0
2,64,127,0
2,61,127,0
2,59,127,0
2,64,127,0
2,59,127,0
2,64,127,0
2,56,127,0
2,59,127,0
2,64,127,0
2,56,127,0
2,59,127,0
2,64,127,0
2,59,127,0
2,64,127,0
2,59,127,0
2,64,127,0
2,59,127,0
2,61,127,0
2,64,127,0
2,59,127,0
2,64,127,0
2,61,127,0
2,59,127,0
2,64,127,0
2,59,127,0
2,64,127,0
2,59,127,0
2,64,127,0
2,62,127,0
2,59,127,0
2,64,127,0
2,59,127,0
2,61,127,0
2,64,127,0
2,59,127,0
2,64,127,0
2,64,127,0
2,59,127,0
2,66,127,0
2,64,127,0
2,59,127,0
2,66,127,0
2,59,127,0
2,64,127,0
2,59,127,0
2,64,127,0
2,59,127,0
2,64,127,0
2,63,127,0
2,59,127,0
2,63,127,0
2,64,127,0
2,59,127,0
2,61,127,0
2,64,127,0
2,59,127,0
2,64,127,0
2,61,127,0
2,59,127,0
2,64,127,0
2,59,127,0
2,64,127,0
2,59,127,0
2,64,127,0
2,63,127,0
2,59,127,0
2,63,127,0
2,64,127,0
2,59,127,0
2,61,127,0
2,64,127,0
2,59,127,0
2,64,127,0
2,61,127,0
2,59,127,0
2,64,127,0
2,59,127,0
2,64,127,0
2,59,127,0
2,61,127,0
2,64,127,0
2,59,127,0
2,64,127,0
2,61,127,0
2,59,127,0
2,64,127,0
2,59,127,0
2,64,127,0
2,56,127,0
2,59,127,0
2,64,127,0
2,56,127,0
2,59,127,0
2,64,127,0
2,59,127,0
2,64,127,0
