track,note,velocity,time
0,59,81,2074
0,63,80,40
0,47,68,8
0,66,63,52
0,66,78,27
0,47,69,10
0,78,56,3
0,66,71,0
0,71,42,3
0,59,57,0
0,75,50,2
0,63,65,0
0,47,79,1
0,66,51,4
0,66,53,4
0,66,70,0
0,63,43,1
0,59,49,3
0,63,41,1
0,63,58,0
0,59,60,3
0,59,77,0
0,47,46,6
0,47,41,4
0,47,58,0
0,59,77,313
0,75,88,20
0,59,65,0
0,47,80,18
0,63,73,61
0,71,96,27
0,75,94,5
0,63,64,1
0,66,63,2
0,59,63,2
0,66,67,216
0,66,83,5
0,63,67,6
0,66,82,2
0,59,72,3
0,75,82,5
0,47,69,188
0,76,100,71
0,59,67,6
0,63,80,28
0,64,70,36
0,68,55,4
0,68,44,0
0,68,61,0
0,64,49,1
0,64,48,4
0,64,65,0
0,68,79,14
0,52,39,0
0,52,54,4
0,52,71,0
0,52,80,3
0,52,71,1
0,68,69,1
0,76,44,9
0,64,59,0
0,80,34,3
0,68,49,0
0,76,94,92
0,59,63,163
0,52,64,12
0,59,72,10
0,64,67,120
0,68,64,2
0,59,79,8
0,64,86,3
0,71,96,19
0,76,100,8
0,68,82,97
0,68,68,18
0,64,69,3
0,59,74,2
0,66,83,25
0,76,99,6
0,52,76,28
0,52,80,46
0,52,81,17
0,77,87,37
0,61,75,37
0,61,72,0
0,65,64,13
0,49,68,34
0,65,87,0
0,68,66,1
0,49,96,1
0,49,85,4
0,65,48,1
0,65,50,4
0,65,67,0
0,49,40,2
0,61,54,4
0,49,43,0
0,49,60,0
0,61,42,4
0,61,59,0
0,73,22,6
0,61,37,0
0,68,75,1
0,77,44,2
0,65,59,0
0,80,22,2
0,68,37,0
0,77,93,2
0,61,85,130
0,61,64,6
0,49,76,43
0,71,83,98
0,65,71,0
0,61,80,7
0,65,75,2
0,68,74,2
0,77,101,27
0,66,67,113
0,61,69,5
0,65,79,3
0,68,70,3
0,68,73,1
0,77,82,2
0,49,70,156
0,49,69,25
0,61,73,33
0,76,94,42
0,60,81,18
0,64,70,13
0,48,73,3
0,72,19,0
0,60,34,0
0,67,80,5
0,67,44,1
0,67,52,4
0,67,69,0
0,60,55,1
0,60,57,0
0,60,74,0
0,64,40,1
0,67,64,1
0,76,53,1
0,64,68,0
0,64,53,0
0,64,70,0
0,48,86,5
0,48,50,0
0,48,53,4
0,48,70,0
0,79,28,7
0,67,43,0
0,48,83,3
0,60,59,256
0,60,85,11
0,48,67,4
0,71,86,43
0,64,81,2
0,67,68,2
0,64,86,1
0,60,77,2
0,76,96,203
0,67,76,43
0,60,63,7
0,64,79,3
0,66,105,1
0,67,71,1
0,76,87,17
0,48,82,25
0,48,82,45
0,76,99,15
0,48,83,2
0,60,85,54
0,59,74,25
0,63,75,5
0,47,79,5
0,66,80,52
0,66,81,4
0,47,83,4
0,78,56,6
0,66,71,0
0,71,42,3
0,59,57,0
0,75,50,2
0,63,65,0
0,75,98,1
0,47,83,1
0,66,42,2
0,66,44,4
0,66,61,0
0,63,45,1
0,59,51,1
0,63,49,1
0,63,66,0
0,59,43,3
0,59,60,0
0,47,57,1
0,47,41,4
0,47,58,0
0,59,71,17
0,47,79,25
0,59,83,14
0,71,96,161
0,63,74,12
0,66,68,2
0,59,77,2
0,63,85,15
0,71,91,25
0,63,68,196
0,66,70,2
0,59,71,3
0,66,96,8
0,66,86,3
0,47,63,6
0,47,71,19
0,59,60,46
0,59,77,27
0,63,63,33
0,64,70,36
0,68,43,4
0,68,58,1
0,68,75,0
0,64,55,1
0,64,52,4
0,64,69,0
0,68,64,14
0,52,47,0
0,68,87,1
0,52,42,3
0,52,59,0
0,76,44,14
0,64,59,0
0,80,34,3
0,68,49,0
0,68,85,6
0,52,92,3
0,66,84,0
0,52,74,8
0,52,72,84
0,59,86,14
0,59,78,1
0,64,68,97
0,68,76,2
0,59,70,8
0,64,86,36
0,71,92,5
0,71,95,55
0,68,80,142
0,68,80,2
0,64,63,1
0,59,78,2
0,64,86,6
0,52,82,72
0,52,77,24
0,52,59,13
0,61,80,53
0,65,79,19
0,49,73,34
0,68,81,1
0,65,40,6
0,73,85,3
0,65,41,1
0,65,58,0
0,49,54,2
0,61,50,4
0,49,57,0
0,49,74,0
0,61,52,4
0,61,69,0
0,49,83,5
0,68,84,7
0,73,22,1
0,61,37,0
0,77,44,3
0,65,59,0
0,80,22,2
0,68,37,0
0,49,74,1
0,61,60,11
0,49,81,1
0,61,79,0
0,68,87,0
0,61,70,119
0,71,86,1
0,65,81,1
0,68,76,2
0,65,72,29
0,68,80,164
0,61,71,2
0,65,66,3
0,68,65,3
0,49,76,146
0,49,76,1
0,60,74,18
0,64,72,5
0,48,80,3
0,72,19,16
0,60,34,0
0,67,45,6
0,48,83,3
0,67,55,1
0,67,72,0
0,60,45,1
0,60,47,0
0,60,64,0
0,64,51,1
0,67,79,1
0,76,53,1
0,64,68,0
0,64,45,0
0,64,62,0
0,48,40,5
0,48,41,4
0,48,58,0
0,79,28,7
0,67,43,0
0,48,81,8
0,60,63,233
0,48,76,42
0,60,87,4
0,71,92,148
0,64,84,10
0,64,76,5
0,67,63,2
0,60,65,3
0,67,79,96
0,60,92,3
0,60,76,19
0,64,75,3
0,67,67,2
0,48,69,158
0,78,98,17
0,47,69,11
0,42,110,0
0,44,97,0
0,78,56,3
0,66,71,0
0,71,42,3
0,59,57,0
0,75,50,2
0,63,65,0
0,47,56,1
0,66,49,4
0,66,56,4
0,66,73,0
0,63,48,1
0,59,53,1
0,63,46,1
0,63,63,0
0,59,56,3
0,59,73,0
0,47,40,18
0,47,43,4
0,47,60,0
0,78,97,130
0,44,59,8
0,59,63,16
0,59,65,8
0,36,110,2
0,42,110,0
0,44,88,0
0,47,72,16
0,78,93,26
0,63,62,1
0,44,44,4
0,71,96,23
0,63,72,6
0,66,82,2
0,59,65,2
0,42,110,26
0,44,88,0
0,78,97,4
0,36,110,7
0,44,56,0
0,66,67,1
0,66,51,5
0,63,68,6
0,66,75,2
0,59,65,3
0,36,110,20
0,42,110,0
0,44,107,0
0,47,70,26
0,80,95,23
0,44,61,13
0,59,68,6
0,63,81,28
0,64,66,36
0,68,45,4
0,68,47,0
0,68,64,0
0,64,53,1
0,64,56,1
0,64,73,0
0,68,82,14
0,52,42,0
0,52,43,4
0,52,60,0
0,52,52,3
0,52,71,1
0,68,59,1
0,42,110,3
0,44,97,0
0,76,44,6
0,64,59,0
0,80,34,3
0,68,49,0
0,80,84,64
0,44,61,6
0,59,63,12
0,52,75,12
0,36,110,2
0,42,110,0
0,44,107,0
0,59,68,8
0,64,67,0
0,68,66,2
0,59,70,8
0,64,61,3
0,44,61,7
0,80,84,4
0,71,96,8
0,42,110,3
0,44,88,0
0,68,55,82
0,68,75,18
0,64,64,3
0,59,80,1
0,80,84,18
0,66,83,7
0,36,110,1
0,44,61,0
0,52,61,28
0,52,80,46
0,36,110,6
0,42,110,0
0,44,97,0
0,52,64,7
0,80,101,24
0,44,69,14
0,61,63,2
0,61,67,0
0,65,77,13
0,49,78,34
0,65,64,0
0,68,76,1
0,49,96,1
0,49,66,4
0,65,58,1
0,65,53,4
0,65,70,0
0,49,56,2
0,61,57,4
0,49,56,0
0,49,73,0
0,61,45,4
0,61,62,0
0,42,110,3
0,44,88,0
0,73,22,3
0,61,37,0
0,68,56,1
0,77,44,2
0,65,59,0
0,80,22,2
0,68,37,0
0,80,84,5
0,44,59,18
0,61,62,0
0,61,64,6
0,36,110,34
0,42,110,0
0,44,97,0
0,49,80,9
0,71,83,89
0,65,70,0
0,80,84,7
0,61,69,0
0,65,81,1
0,68,74,2
0,44,75,5
0,42,110,25
0,44,61,0
0,66,67,117
0,61,66,5
0,65,70,2
0,68,73,3
0,36,110,11
0,44,75,0
0,68,59,1
0,80,94,0
0,49,54,102
0,49,80,25
0,36,100,1
0,42,110,0
0,44,107,0
0,61,73,27
0,79,100,5
0,44,65,8
0,60,72,18
0,64,76,13
0,48,65,3
0,72,19,0
0,60,34,0
0,67,58,5
0,67,48,1
0,67,44,4
0,67,61,0
0,60,44,1
0,60,53,0
0,60,70,0
0,64,47,1
0,42,110,1
0,44,61,0
0,67,73,0
0,76,53,1
0,64,68,0
0,64,44,0
0,64,61,0
0,48,86,5
0,48,39,0
0,48,41,4
0,48,58,0
0,79,28,5
0,67,43,0
0,48,66,3
0,44,65,13
0,60,59,126
0,36,110,11
0,42,110,0
0,44,97,0
0,60,55,0
0,48,77,4
0,44,69,6
0,71,86,5
0,64,81,2
0,67,80,2
0,64,66,1
0,60,73,2
0,79,93,134
0,42,110,5
0,44,88,0
0,67,66,59
0,79,82,11
0,36,110,5
0,44,53,0
0,60,73,7
0,64,71,3
0,66,105,1
0,67,82,1
0,48,69,25
0,79,100,12
0,36,110,27
0,42,110,0
0,44,97,0
0,48,78,6
0,48,83,17
0,60,70,54
0,44,65,3
0,59,75,40
0,63,64,5
0,47,75,5
0,66,74,52
0,66,64,4
0,47,55,4
0,42,110,3
0,44,97,0
0,78,56,3
0,66,71,0
0,78,96,1
0,71,42,2
0,59,57,0
0,75,50,2
0,63,65,0
0,47,83,1
0,66,53,2
0,66,56,4
0,66,73,0
0,63,45,1
0,59,47,1
0,63,41,1
0,63,58,0
0,59,56,3
0,59,73,0
0,47,52,1
0,47,45,4
0,47,62,0
0,44,65,27
0,59,71,17
0,36,110,9
0,42,110,0
0,44,97,0
0,47,70,16
0,59,51,14
0,44,61,22
0,71,96,17
0,63,74,12
0,66,81,2
0,59,66,2
0,63,63,15
0,75,84,31
0,42,110,23
0,44,88,0
0,36,110,12
0,44,65,0
0,63,80,12
0,66,63,2
0,59,67,3
0,66,96,8
0,66,61,3
0,36,108,123
0,42,110,0
0,44,97,0
0,47,77,6
0,47,51,19
0,59,60,10
0,44,69,10
0,59,82,27
0,63,71,21
0,64,80,36
0,68,57,4
0,68,52,1
0,68,69,0
0,64,50,1
0,64,56,4
0,64,73,0
0,68,67,12
0,52,48,0
0,52,57,4
0,52,74,0
0,71,101,4
0,42,110,4
0,44,88,0
0,76,44,6
0,64,59,0
0,80,34,3
0,68,49,0
0,68,60,6
0,52,92,3
0,66,66,0
0,52,54,8
0,44,61,9
0,52,79,84
0,36,110,2
0,42,110,0
0,44,97,0
0,59,86,12
0,59,52,1
0,64,63,87
0,68,75,2
0,59,64,8
0,44,69,1
0,64,61,26
0,71,92,5
0,78,96,38
0,42,110,2
0,44,88,0
0,68,72,80
0,68,65,2
0,64,63,1
0,59,63,2
0,64,86,4
0,36,110,20
0,44,65,0
0,78,101,4
0,52,54,72
0,78,97,9
0,36,110,8
0,42,110,0
0,44,97,0
0,52,73,7
0,52,59,13
0,44,61,15
0,61,79,2
0,65,76,19
0,49,71,34
0,68,76,1
0,65,43,6
0,65,44,4
0,65,61,0
0,49,46,2
0,61,51,4
0,49,49,0
0,49,66,0
0,61,56,4
0,61,73,0
0,49,83,5
0,78,86,0
0,42,110,5
0,44,88,0
0,68,58,2
0,73,22,1
0,61,37,0
0,77,44,3
0,65,59,0
0,80,22,2
0,68,37,0
0,49,67,1
0,44,59,3
0,61,60,11
0,36,110,29
0,42,110,0
0,44,88,0
0,49,77,9
0,61,65,0
0,61,72,67
0,71,86,1
0,65,79,1
0,68,69,1
0,44,56,5
0,65,63,24
0,42,110,40
0,44,88,0
0,68,60,104
0,61,73,2
0,65,75,3
0,68,73,3
0,36,110,11
0,44,75,0
0,49,77,5
0,36,110,1
0,42,110,0
0,44,97,0
0,49,64,0
0,44,81,88
0,60,76,18
0,64,79,5
0,48,64,3
0,67,57,22
0,48,83,3
0,67,52,1
0,67,69,0
0,60,54,1
0,60,59,0
0,60,76,0
0,64,46,1
0,44,88,1
0,67,80,0
0,64,51,1
0,64,68,0
0,48,39,5
0,40,110,3
0,48,54,1
0,48,71,0
0,48,54,8
0,76,97,6
0,76,82,109
0,76,91,108
0,76,82,124
0,71,101,72
0,71,95,115
0,59,96,9
0,47,115,62
0,66,83,30
0,35,124,79
0,75,92,3
0,36,127,1
0,59,101,0
0,59,96,0
0,42,127,11
0,66,104,0
0,54,86,1
0,47,77,2
0,59,78,2
0,57,127,1
0,71,97,0
0,54,107,4
0,59,97,3
0,71,83,0
0,35,118,48
0,36,121,2
0,35,113,102
0,40,127,4
0,42,127,0
0,59,84,0
0,35,114,1
0,36,127,4
0,54,108,11
0,47,105,5
0,35,124,14
0,36,127,4
0,59,84,0
0,42,127,2
0,47,95,28
0,54,100,2
0,59,111,3
0,40,127,191
0,59,70,0
0,42,127,6
0,55,96,53
0,62,80,0
0,43,100,7
0,71,118,11
0,55,83,7
0,67,93,6
0,43,82,6
0,55,103,1
0,31,114,1
0,36,127,4
0,59,69,0
0,50,97,0
0,62,100,2
0,55,98,1
0,55,127,10
0,43,99,0
0,42,127,3
0,67,100,9
0,76,114,19
0,31,120,23
0,36,127,4
0,76,103,46
0,31,112,43
0,40,127,4
0,59,80,0
0,42,127,2
0,76,109,35
0,55,113,15
0,50,105,6
0,31,108,0
0,36,127,3
0,76,118,56
0,55,107,29
0,50,110,2
0,42,127,10
0,31,120,4
0,36,127,4
0,59,70,0
0,76,118,0
0,76,116,148
0,42,127,0
0,40,127,12
0,59,80,0
0,43,103,2
0,59,100,21
0,47,100,10
0,66,89,2
0,59,82,28
0,75,102,6
0,54,92,6
0,66,102,6
0,42,127,2
0,59,86,0
0,35,114,4
0,36,127,4
0,59,74,0
0,47,82,1
0,71,104,0
0,47,97,3
0,54,98,2
0,59,105,2
0,57,96,4
0,57,127,0
0,71,71,0
0,35,120,4
0,36,125,4
0,35,121,114
0,40,127,4
0,59,89,0
0,42,127,2
0,54,99,11
0,47,113,2
0,59,102,2
0,35,122,6
0,36,127,4
0,35,114,53
0,36,127,0
0,59,74,0
0,42,127,3
0,76,104,1
0,47,106,14
0,54,106,3
0,59,114,3
0,42,127,197
0,40,127,9
0,59,92,0
0,59,100,40
0,40,96,0
0,64,83,0
0,76,106,16
0,28,122,6
0,42,127,1
0,36,127,3
0,59,70,0
0,40,76,0
0,52,78,2
0,52,108,4
0,52,97,0
0,47,78,0
0,47,99,3
0,40,101,2
0,64,93,1
0,59,103,1
0,55,127,2
0,74,115,17
0,28,119,11
0,36,127,4
0,71,117,37
0,28,117,14
0,40,127,4
0,59,95,0
0,42,127,2
0,28,122,23
0,36,127,4
0,47,108,6
0,42,127,29
0,28,123,2
0,36,127,1
0,59,80,0
0,52,97,22
0,47,98,4
0,40,127,8
0,54,83,80
0,49,86,2
0,42,127,6
0,54,97,5
0,49,114,2
0,40,127,2
0,41,127,0
0,59,92,0
0,61,94,0
0,66,92,3
0,42,109,4
0,30,119,2
0,54,96,8
0,42,92,1
0,52,60,9
0,55,86,2
0,62,86,5
0,43,102,0
0,55,103,5
0,50,99,2
0,43,83,3
0,55,90,16
0,50,85,0
0,66,102,2
0,55,89,0
0,36,127,7
0,53,127,0
0,59,101,0
0,67,85,4
0,74,116,2
0,62,85,0
0,31,112,1
0,42,127,4
0,57,127,6
0,67,96,3
0,31,110,56
0,74,107,5
0,36,121,2
0,53,124,0
0,74,106,93
0,31,108,15
0,40,127,8
0,42,127,0
0,59,84,0
0,55,82,30
0,74,102,2
0,50,80,0
0,36,127,5
0,53,127,0
0,31,120,2
0,55,83,2
0,50,76,4
0,36,127,20
0,53,127,0
0,59,84,0
0,42,127,2
0,31,121,1
0,74,102,3
0,53,127,28
0,76,99,7
0,57,96,19
0,52,106,6
0,64,92,0
0,69,100,1
0,45,99,1
0,57,103,6
0,57,80,2
0,52,85,4
0,33,120,6
0,40,127,2
0,53,127,0
0,59,70,0
0,45,88,5
0,42,127,1
0,76,112,47
0,53,124,3
0,59,96,5
0,52,122,0
0,64,96,36
0,52,80,6
0,47,79,7
0,64,94,7
0,36,127,1
0,53,109,0
0,59,69,0
0,59,85,2
0,52,112,1
0,47,109,2
0,28,116,1
0,40,85,0
