track,note,velocity,time
1,31,127,0
1,31,127,320
1,31,127,320
1,31,127,320
1,36,127,320
1,49,127,0
1,38,127,320
1,46,127,0
1,36,127,128
1,46,127,128
1,36,127,128
1,38,127,128
1,46,127,0
1,46,127,128
1,36,127,0
1,36,127,128
1,57,127,0
1,46,127,128
1,38,127,128
1,46,127,0
1,36,127,128
1,46,127,128
1,36,127,128
1,38,127,128
1,46,127,0
1,36,127,128
1,46,127,0
1,36,127,128
1,49,127,0
1,38,127,320
1,46,127,0
1,36,127,128
1,46,127,128
1,36,127,128
1,38,127,128
1,46,127,0
1,46,127,128
1,36,127,0
1,36,127,128
1,57,127,0
1,38,127,320
1,46,127,0
1,36,127,128
1,46,127,128
1,36,127,128
1,38,127,128
1,46,127,0
1,46,127,128
1,38,127,0
1,38,127,32
1,36,127,32
1,49,127,0
1,38,127,320
1,46,127,0
1,36,127,128
1,46,127,128
1,36,127,128
1,38,127,128
1,46,127,0
1,46,127,128
1,36,127,128
1,57,127,0
1,38,127,320
1,46,127,0
1,36,127,128
1,46,127,128
1,36,127,128
1,38,127,128
1,46,127,0
1,46,127,128
1,36,127,128
1,49,127,0
1,38,127,320
1,46,127,0
1,36,127,128
1,46,127,128
1,36,127,128
1,38,127,128
1,46,127,0
1,46,127,128
1,36,127,128
1,57,127,0
1,38,127,320
1,46,127,0
1,36,127,128
1,46,127,128
1,38,127,0
1,38,127,128
1,38,127,0
1,46,127,0
1,38,127,128
1,46,127,0
1,38,127,32
1,36,127,32
1,49,127,0
1,38,127,320
1,46,127,0
1,36,127,128
1,46,127,128
1,36,127,128
1,38,127,128
1,46,127,0
1,46,127,128
1,36,127,0
1,36,127,128
1,57,127,0
1,46,127,128
1,38,127,128
1,46,127,0
1,36,127,128
1,46,127,128
1,36,127,128
1,38,127,128
1,46,127,0
1,36,127,128
1,46,127,0
1,36,127,128
1,49,127,0
1,38,127,320
1,46,127,0
1,36,127,128
1,46,127,128
1,36,127,128
1,38,127,128
1,46,127,0
1,46,127,128
1,36,127,0
1,36,127,128
1,57,127,0
1,38,127,320
1,46,127,0
1,36,127,128
1,46,127,128
1,36,127,128
1,38,127,128
1,46,127,0
1,46,127,128
1,38,127,0
1,38,127,32
1,36,127,32
1,49,127,0
1,38,127,320
1,46,127,0
1,36,127,128
1,46,127,128
1,36,127,128
1,38,127,128
1,46,127,0
1,46,127,128
1,36,127,128
1,57,127,0
1,38,127,320
1,46,127,0
1,36,127,128
1,46,127,128
1,36,127,128
1,38,127,128
1,46,127,0
1,46,127,128
1,36,127,128
1,49,127,0
1,38,127,320
1,46,127,0
1,36,127,128
1,46,127,128
1,36,127,128
1,38,127,128
1,46,127,0
1,46,127,128
1,36,127,128
1,57,127,0
1,38,127,320
1,46,127,0
1,36,127,128
1,46,127,128
1,38,127,0
1,38,127,128
1,38,127,0
1,46,127,0
1,38,127,128
1,46,127,0
1,38,127,32
1,36,127,32
1,49,127,0
1,38,127,320
1,46,127,0
1,36,127,128
1,46,127,128
1,36,127,128
1,38,127,128
1,46,127,0
1,46,127,128
1,36,127,0
1,36,127,128
1,57,127,0
1,46,127,128
1,38,127,128
1,46,127,0
1,36,127,128
1,46,127,128
1,36,127,128
1,38,127,128
1,46,127,0
1,36,127,128
1,46,127,0
1,36,127,128
1,49,127,0
1,38,127,320
1,46,127,0
1,36,127,128
1,46,127,128
1,36,127,128
1,38,127,128
1,46,127,0
1,46,127,128
1,36,127,0
1,36,127,128
1,57,127,0
1,38,127,320
1,46,127,0
1,36,127,128
1,46,127,128
1,36,127,128
1,38,127,128
1,46,127,0
1,46,127,128
1,38,127,0
1,38,127,32
1,36,127,32
1,49,127,0
1,38,127,320
1,46,127,0
1,36,127,128
1,46,127,128
1,36,127,128
1,38,127,128
1,46,127,0
1,46,127,128
1,36,127,128
1,57,127,0
1,38,127,320
1,46,127,0
1,36,127,128
1,46,127,128
1,36,127,128
1,38,127,128
1,46,127,0
1,46,127,128
1,38,127,0
1,36,127,128
1,49,127,0
1,38,127,320
1,46,127,0
1,36,127,128
1,46,127,128
1,36,127,128
1,46,127,128
1,38,127,0
1,46,127,128
1,36,127,128
1,57,127,0
1,38,127,320
1,46,127,0
1,36,127,128
1,46,127,128
1,38,127,128
1,38,127,32
1,38,127,32
1,38,127,0
1,46,127,0
1,38,127,32
1,46,127,32
1,36,127,0
1,57,127,128
1,49,127,0
1,36,127,0
1,53,127,128
1,38,127,128
1,53,127,0
1,36,127,128
1,53,127,0
1,53,127,128
1,36,127,128
1,53,127,0
1,38,127,128
1,53,127,0
1,49,127,128
1,36,127,0
1,53,127,0
1,57,127,0
1,36,127,0
1,53,127,128
1,38,127,128
1,53,127,0
1,36,127,128
1,53,127,0
1,53,127,128
1,36,127,128
1,53,127,0
1,38,127,128
1,53,127,0
1,36,127,128
1,53,127,0
1,57,127,128
1,49,127,0
1,36,127,0
1,53,127,128
1,38,127,128
1,53,127,0
1,36,127,128
1,53,127,0
1,53,127,128
1,36,127,128
1,53,127,0
1,38,127,128
1,53,127,0
1,49,127,128
1,36,127,0
1,53,127,0
1,57,127,0
1,36,127,0
1,53,127,128
1,38,127,128
1,53,127,0
1,36,127,128
1,53,127,0
1,53,127,128
1,36,127,128
1,53,127,0
1,38,127,128
1,53,127,0
1,36,127,128
1,55,127,0
1,49,127,0
1,57,127,64
1,49,127,0
1,36,127,0
1,53,127,128
1,38,127,128
1,53,127,0
1,36,127,128
1,53,127,0
1,53,127,128
1,36,127,128
1,53,127,0
1,38,127,128
1,53,127,0
1,49,127,128
1,36,127,0
1,53,127,0
1,57,127,0
1,36,127,0
1,53,127,128
1,38,127,128
1,53,127,0
1,36,127,128
1,53,127,0
1,53,127,128
1,36,127,128
1,53,127,0
1,38,127,128
1,53,127,0
1,36,127,128
1,53,127,0
1,41,55,128
1,41,60,128
1,41,66,128
1,41,71,128
1,38,47,0
1,41,79,128
1,38,49,0
1,38,60,128
1,41,88,0
1,38,75,128
1,41,96,0
1,38,91,128
1,41,127,0
1,38,127,128
1,41,127,0
1,38,127,128
1,41,127,0
1,38,127,128
1,41,127,0
1,38,127,128
1,41,127,0
1,38,127,128
1,38,127,32
1,45,127,32
1,43,127,128
1,36,127,128
1,41,127,0
1,36,127,128
1,49,127,0
1,38,127,320
1,46,127,0
1,36,127,128
1,46,127,128
1,36,127,128
1,38,127,128
1,46,127,0
1,46,127,128
1,36,127,0
1,36,127,128
1,57,127,0
1,46,127,128
1,38,127,128
1,46,127,0
1,36,127,128
1,46,127,128
1,36,127,128
1,38,127,128
1,46,127,0
1,36,127,128
1,46,127,0
1,36,127,128
1,49,127,0
1,38,127,320
1,46,127,0
1,36,127,128
1,46,127,128
1,36,127,128
1,38,127,128
1,46,127,0
1,46,127,128
1,36,127,0
1,36,127,128
1,57,127,0
1,38,127,320
1,46,127,0
1,36,127,128
1,46,127,128
1,36,127,128
1,38,127,128
1,46,127,0
1,46,127,128
1,38,127,0
1,38,127,32
1,36,127,32
1,49,127,0
1,38,127,320
1,46,127,0
1,36,127,128
1,46,127,128
1,36,127,128
1,38,127,128
1,46,127,0
1,46,127,128
1,36,127,128
1,57,127,0
1,38,127,320
1,46,127,0
1,36,127,128
1,46,127,128
1,36,127,128
1,38,127,128
1,46,127,0
1,46,127,128
1,36,127,128
1,49,127,0
1,38,127,320
1,46,127,0
1,36,127,128
1,46,127,128
1,36,127,128
1,38,127,128
1,46,127,0
1,46,127,128
1,36,127,128
1,57,127,0
1,38,127,320
1,46,127,0
1,36,127,128
1,46,127,128
1,38,127,0
1,38,127,128
1,38,127,0
1,46,127,0
1,38,127,128
1,46,127,0
1,38,127,32
1,36,127,32
1,49,127,0
1,38,127,320
1,46,127,0
1,36,127,128
1,46,127,128
1,36,127,128
1,38,127,128
1,46,127,0
1,46,127,128
1,36,127,0
1,36,127,128
1,57,127,0
1,46,127,128
1,38,127,128
1,46,127,0
1,36,127,128
1,46,127,128
1,36,127,128
1,38,127,128
1,46,127,0
1,36,127,128
1,46,127,0
1,36,127,128
1,49,127,0
1,38,127,320
1,46,127,0
1,36,127,128
1,46,127,128
1,36,127,128
1,38,127,128
1,46,127,0
1,46,127,128
1,36,127,0
1,36,127,128
1,57,127,0
1,38,127,320
1,46,127,0
1,36,127,128
1,46,127,128
1,36,127,128
1,38,127,128
1,46,127,0
1,46,127,128
1,38,127,0
1,38,127,32
1,36,127,32
1,49,127,0
1,38,127,320
1,46,127,0
1,36,127,128
1,46,127,128
1,36,127,128
1,38,127,128
1,46,127,0
1,46,127,128
1,36,127,128
1,57,127,0
1,38,127,320
1,46,127,0
1,36,127,128
1,46,127,128
1,36,127,128
1,38,127,128
1,46,127,0
1,46,127,128
1,38,127,0
1,36,127,128
1,49,127,0
1,38,127,320
1,46,127,0
1,36,127,128
1,46,127,128
1,36,127,128
1,46,127,128
1,38,127,0
1,46,127,128
1,36,127,128
1,57,127,0
1,38,127,320
1,46,127,0
1,36,127,128
1,46,127,128
1,38,127,128
1,38,127,32
1,38,127,32
1,38,127,0
1,46,127,0
1,38,127,32
1,46,127,32
1,36,127,0
1,57,127,128
1,49,127,0
1,36,127,0
1,53,127,128
1,38,127,128
1,53,127,0
1,36,127,128
1,53,127,0
1,53,127,128
1,36,127,128
1,53,127,0
1,38,127,128
1,53,127,0
1,49,127,128
1,36,127,0
1,53,127,0
1,57,127,0
1,36,127,0
1,53,127,128
1,38,127,128
1,53,127,0
1,36,127,128
1,53,127,0
1,53,127,128
1,36,127,128
1,53,127,0
1,38,127,128
1,53,127,0
1,36,127,128
1,53,127,0
1,57,127,128
1,49,127,0
1,36,127,0
1,53,127,128
1,38,127,128
1,53,127,0
1,36,127,128
1,53,127,0
1,53,127,128
1,36,127,128
1,53,127,0
1,38,127,128
1,53,127,0
1,49,127,128
1,36,127,0
1,53,127,0
1,57,127,0
1,36,127,0
1,53,127,128
1,38,127,128
1,53,127,0
1,36,127,128
1,53,127,0
1,53,127,128
1,36,127,128
1,53,127,0
1,38,127,128
1,53,127,0
1,36,127,128
1,55,127,0
1,49,127,0
1,57,127,64
1,49,127,0
1,36,127,0
1,53,127,128
1,38,127,128
1,53,127,0
1,36,127,128
1,53,127,0
1,53,127,128
1,36,127,128
1,53,127,0
1,38,127,128
1,53,127,0
1,49,127,128
1,36,127,0
1,53,127,0
1,57,127,0
1,36,127,0
1,53,127,128
1,38,127,128
1,53,127,0
1,36,127,128
1,53,127,0
1,53,127,128
1,36,127,128
1,53,127,0
1,38,127,128
1,53,127,0
1,36,127,128
1,53,127,0
1,41,55,128
1,41,60,128
1,41,66,128
1,41,71,128
1,38,47,0
1,41,79,128
1,38,49,0
1,38,60,128
1,41,88,0
1,38,75,128
1,41,96,0
1,38,91,128
1,41,127,0
1,38,127,128
1,41,127,0
1,38,127,128
1,41,127,0
1,38,127,128
1,41,127,0
1,38,127,128
1,41,127,0
1,38,127,128
1,38,127,32
1,45,127,32
1,43,127,128
1,36,127,128
1,41,127,0
1,36,127,128
1,49,127,0
1,38,127,320
1,46,127,0
1,36,127,128
1,46,127,128
1,36,127,128
1,38,127,128
1,46,127,0
1,46,127,128
1,36,127,0
1,36,127,128
1,57,127,0
1,46,127,128
1,38,127,128
1,46,127,0
1,36,127,128
1,46,127,128
1,36,127,128
1,38,127,128
1,46,127,0
1,36,127,128
1,46,127,0
1,36,127,128
1,49,127,0
1,38,127,320
1,46,127,0
1,36,127,128
1,46,127,128
1,36,127,128
1,38,127,128
1,46,127,0
1,46,127,128
1,36,127,0
1,36,127,128
1,57,127,0
1,38,127,320
1,46,127,0
1,36,127,128
1,46,127,128
1,36,127,128
1,38,127,128
1,46,127,0
1,46,127,128
1,38,127,0
1,38,127,32
1,36,127,32
1,49,127,0
1,38,127,320
1,46,127,0
1,36,127,128
1,46,127,128
1,36,127,128
1,38,127,128
1,46,127,0
1,46,127,128
1,36,127,128
1,57,127,0
1,38,127,320
1,46,127,0
1,36,127,128
1,46,127,128
1,36,127,128
1,38,127,128
1,46,127,0
1,46,127,128
1,36,127,128
1,49,127,0
1,38,127,320
1,46,127,0
1,36,127,128
1,46,127,128
1,36,127,128
1,38,127,128
1,46,127,0
1,46,127,128
1,36,127,128
1,57,127,0
1,38,127,320
1,46,127,0
1,36,127,128
1,46,127,128
1,38,127,0
1,38,127,128
1,38,127,0
1,46,127,0
1,38,127,128
1,46,127,0
1,38,127,32
1,36,127,32
1,49,127,0
1,38,127,320
1,46,127,0
1,36,127,128
1,46,127,128
1,36,127,128
1,38,127,128
1,46,127,0
1,46,127,128
1,36,127,0
1,36,127,128
1,57,127,0
1,46,127,128
1,38,127,128
1,46,127,0
1,36,127,128
1,46,127,128
1,36,127,128
1,38,127,128
1,46,127,0
1,36,127,128
1,46,127,0
1,36,127,128
1,49,127,0
1,38,127,320
1,46,127,0
1,36,127,128
1,46,127,128
1,36,127,128
1,38,127,128
1,46,127,0
1,46,127,128
1,36,127,0
1,36,127,128
1,57,127,0
1,38,127,320
1,46,127,0
1,36,127,128
1,46,127,128
1,36,127,128
1,38,127,128
1,46,127,0
1,46,127,128
1,38,127,0
1,38,127,32
1,36,127,32
1,49,127,0
1,38,127,320
1,46,127,0
1,36,127,128
1,46,127,128
1,36,127,128
1,38,127,128
1,46,127,0
1,46,127,128
1,36,127,128
1,57,127,0
1,38,127,320
1,46,127,0
1,36,127,128
1,46,127,128
1,36,127,128
1,38,127,128
1,46,127,0
1,46,127,128
1,36,127,128
1,49,127,0
1,38,127,320
1,46,127,0
1,36,127,128
1,46,127,128
1,36,127,128
1,38,127,128
1,46,127,0
1,46,127,128
1,36,127,128
1,57,127,0
1,38,127,320
1,46,127,0
1,36,127,128
1,46,127,128
1,38,100,128
1,38,100,32
1,38,127,32
1,38,127,0
1,46,127,0
1,38,100,32
1,46,127,32
1,36,127,0
1,57,127,128
1,49,127,0
1,36,127,0
1,53,127,128
1,38,127,128
1,53,127,0
1,36,127,128
1,53,127,0
1,53,127,128
1,36,127,128
1,53,127,0
1,38,127,128
1,53,127,0
1,49,127,128
1,36,127,0
1,53,127,0
1,57,127,0
1,36,127,0
1,53,127,128
1,38,127,128
1,53,127,0
1,36,127,128
1,53,127,0
1,53,127,128
1,36,127,128
1,53,127,0
1,38,127,128
1,53,127,0
1,36,127,128
1,53,127,0
1,57,127,128
1,49,127,0
1,36,127,0
1,53,127,128
1,38,127,128
1,53,127,0
1,36,127,128
1,53,127,0
1,53,127,128
1,36,127,128
1,53,127,0
1,38,127,128
1,53,127,0
1,49,127,128
1,36,127,0
1,53,127,0
1,57,127,0
1,36,127,0
1,53,127,128
1,38,127,128
1,53,127,0
1,36,127,128
1,53,127,0
1,53,127,128
1,36,127,128
1,53,127,0
1,38,127,128
1,53,127,0
1,36,127,128
1,55,127,0
1,49,127,0
1,57,127,64
1,49,127,0
1,36,127,0
1,53,127,128
1,38,127,128
1,53,127,0
1,36,127,128
1,53,127,0
1,53,127,128
1,36,127,128
1,53,127,0
1,38,127,128
1,53,127,0
1,49,127,128
1,36,127,0
1,53,127,0
1,57,127,0
1,36,127,0
1,53,127,128
1,38,127,128
1,53,127,0
1,36,127,128
1,53,127,0
1,53,127,128
1,36,127,128
1,53,127,0
1,38,127,128
1,53,127,0
1,36,127,128
1,53,127,0
1,41,55,128
1,41,60,128
1,41,66,128
1,41,71,128
1,38,47,0
1,41,79,128
1,38,49,0
1,38,60,128
1,41,88,0
1,38,75,128
1,41,96,0
1,38,91,128
1,41,127,0
1,38,127,128
1,41,127,0
1,38,127,128
1,41,127,0
1,38,127,128
1,41,127,0
1,38,127,128
1,41,127,0
1,38,127,128
1,38,127,32
1,45,127,32
1,43,127,128
1,36,127,128
1,41,127,0
1,57,127,128
1,49,127,0
1,36,127,0
1,53,127,128
1,38,127,128
1,53,127,0
1,36,127,128
1,53,127,0
1,53,127,128
1,36,127,128
1,53,127,0
1,38,127,128
1,53,127,0
1,49,127,128
