track,note,velocity,time
2,54,127,576
2,47,127,0
2,59,127,0
2,47,127,0
2,59,127,0
2,47,127,0
2,59,127,0
2,47,127,0
2,59,127,0
2,47,127,0
2,59,127,0
2,47,127,0
2,59,127,0
2,47,127,0
2,59,127,0
2,49,127,0
2,61,127,0
2,49,127,0
2,61,127,0
2,49,127,0
2,61,127,0
2,49,127,0
2,61,127,0
2,49,127,0
2,61,127,0
2,49,127,0
2,61,127,0
2,47,127,0
2,59,127,0
2,47,127,0
2,59,127,0
2,47,127,0
2,59,127,0
2,47,127,0
2,59,127,0
2,47,127,0
2,59,127,0
2,47,127,0
2,59,127,0
2,47,127,0
2,59,127,0
2,47,127,0
2,59,127,0
2,47,127,0
2,59,127,0
2,47,127,0
2,59,127,0
2,47,127,0
2,59,127,0
2,47,127,0
2,59,127,0
2,47,127,0
2,59,127,0
2,47,127,0
2,59,127,0
2,47,127,0
2,59,127,0
2,47,127,0
2,59,127,0
2,47,127,0
2,59,127,0
2,47,127,0
2,59,127,0
2,49,127,0
2,61,127,0
2,49,127,0
2,61,127,0
2,49,127,0
2,61,127,0
2,49,127,0
2,61,127,0
2,49,127,0
2,61,127,0
2,49,127,0
2,61,127,0
2,47,127,0
2,59,127,0
2,47,127,0
2,59,127,0
2,47,127,0
2,59,127,0
2,47,127,0
2,59,127,0
2,45,127,0
2,44,127,0
2,52,127,0
2,59,127,0
2,59,127,0
2,64,127,0
2,52,127,0
2,59,127,0
2,59,127,0
2,64,127,0
2,52,127,0
2,59,127,0
2,59,127,0
2,64,127,0
2,52,127,0
2,59,127,0
2,59,127,0
2,64,127,0
2,47,127,0
2,59,127,0
2,47,127,0
2,59,127,0
2,47,127,0
2,59,127,0
2,47,127,0
2,59,127,0
2,47,127,0
2,59,127,0
2,47,127,0
2,59,127,0
2,47,127,0
2,59,127,0
2,47,127,0
2,59,127,0
2,49,127,0
2,61,127,0
2,49,127,0
2,61,127,0
2,49,127,0
2,61,127,0
2,49,127,0
2,61,127,0
2,49,127,0
2,61,127,0
2,49,127,0
2,61,127,0
2,47,127,0
2,59,127,0
2,47,127,0
2,59,127,0
2,47,127,0
2,59,127,0
2,47,127,0
2,59,127,0
2,45,127,0
2,44,127,0
2,52,127,0
2,59,127,0
2,59,127,0
2,64,127,0
2,52,127,0
2,59,127,0
2,59,127,0
2,64,127,0
2,52,127,0
2,59,127,0
2,59,127,0
2,64,127,0
2,52,127,0
2,59,127,0
2,59,127,0
2,64,127,0
2,47,127,0
2,59,127,0
2,47,127,0
2,59,127,0
2,47,127,0
2,59,127,0
2,47,127,0
2,59,127,0
2,47,127,0
2,59,127,0
2,47,127,0
2,59,127,0
2,47,127,0
2,59,127,0
2,49,127,0
2,61,127,0
2,49,127,0
2,61,127,0
2,49,127,0
2,61,127,0
2,49,127,0
2,61,127,0
2,49,127,0
2,61,127,0
2,49,127,0
2,61,127,0
2,47,127,0
2,59,127,0
2,47,127,0
2,59,127,0
2,47,127,0
2,59,127,0
2,47,127,0
2,59,127,0
2,45,127,0
2,44,127,0
2,52,127,0
2,59,127,0
2,59,127,0
2,64,127,0
2,52,127,0
2,59,127,0
2,59,127,0
2,64,127,0
2,52,127,0
2,59,127,0
2,59,127,0
2,64,127,0
2,52,127,0
2,59,127,0
2,59,127,0
2,64,127,0
2,47,127,0
2,59,127,0
2,47,127,0
2,59,127,0
2,47,127,0
2,59,127,0
2,47,127,0
2,59,127,0
2,47,127,0
2,59,127,0
2,47,127,0
2,59,127,0
2,47,127,0
2,59,127,0
2,47,127,0
2,59,127,0
2,47,127,0
2,59,127,0
2,49,127,0
2,61,127,0
2,49,127,0
2,61,127,0
2,49,127,0
2,61,127,0
2,49,127,0
2,61,127,0
2,49,127,0
2,61,127,0
2,49,127,0
2,61,127,0
2,47,127,0
2,59,127,0
2,47,127,0
2,59,127,0
2,47,127,0
2,59,127,0
2,47,127,0
2,59,127,0
2,47,127,0
2,59,127,0
2,47,127,0
2,59,127,0
2,47,127,0
2,59,127,0
2,47,127,0
2,59,127,0
2,47,127,0
2,59,127,0
2,47,127,0
2,59,127,0
2,47,127,0
2,59,127,0
2,47,127,6144
2,59,127,0
2,54,127,0
2,61,127,0
2,66,127,0
2,47,127,0
2,59,127,0
2,54,127,0
2,61,127,0
2,66,127,0
2,47,127,0
2,59,127,0
2,54,127,0
2,61,127,0
2,66,127,0
2,47,127,0
2,59,127,0
2,54,127,0
2,61,127,0
2,66,127,0
2,47,127,0
2,54,127,0
2,59,127,0
2,40,127,0
2,54,127,0
2,61,127,0
3,47,96,768
3,54,96,0
3,59,96,0
3,59,96,0
3,64,96,0
3,47,96,0
3,54,96,0
3,59,96,0
3,59,96,0
3,64,96,0
3,47,96,0
3,54,96,0
3,59,96,0
3,59,96,0
3,64,96,0
3,47,96,0
3,54,96,0
3,59,96,0
3,59,96,0
3,64,96,0
3,47,96,0
3,54,96,0
3,59,96,0
3,59,96,0
3,64,96,0
3,47,96,0
3,54,96,0
3,59,96,0
3,59,96,0
3,64,96,0
3,42,96,0
3,54,96,0
3,57,96,0
3,59,96,0
3,64,96,0
3,59,96,0
3,64,96,0
3,42,96,0
3,59,96,0
3,64,96,0
3,40,96,0
3,47,96,0
3,40,96,0
3,47,96,0
3,52,96,0
3,59,96,0
3,59,96,0
3,64,96,0
3,52,96,0
3,59,96,0
3,59,96,0
3,64,96,0
3,40,96,0
3,47,96,0
3,52,96,0
3,59,96,0
3,59,96,0
3,64,96,0
3,52,96,0
3,59,96,0
3,59,96,0
3,64,96,0
3,40,96,0
3,47,96,0
3,52,96,0
3,59,96,0
3,59,96,0
3,64,96,0
3,52,96,0
3,59,96,0
3,59,96,0
3,64,96,0
3,52,96,0
3,59,96,0
3,59,96,0
3,64,96,0
3,52,96,0
3,59,96,0
3,59,96,0
3,64,96,0
3,47,96,0
3,54,96,0
3,59,96,0
3,59,96,0
3,64,96,0
3,47,96,0
3,54,96,0
3,59,96,0
3,59,96,0
3,64,96,0
3,47,96,0
3,54,96,0
3,59,96,0
3,59,96,0
3,64,96,0
3,47,96,0
3,54,96,0
3,59,96,0
3,59,96,0
3,64,96,0
3,47,96,0
3,54,96,0
3,59,96,0
3,59,96,0
3,64,96,0
3,47,96,0
3,54,96,0
3,59,96,0
3,59,96,0
3,64,96,0
3,42,96,0
3,54,96,0
3,57,96,0
3,59,96,0
3,64,96,0
3,59,96,0
3,64,96,0
3,42,96,0
3,59,96,0
3,64,96,0
3,40,96,0
3,47,96,0
3,40,96,0
3,47,96,0
3,52,96,0
3,59,96,0
3,59,96,0
3,64,96,0
3,52,96,0
3,59,96,0
3,59,96,0
3,64,96,0
3,40,96,0
3,47,96,0
3,52,96,0
3,59,96,0
3,59,96,0
3,64,96,0
3,52,96,0
3,59,96,0
3,59,96,0
3,64,96,0
3,40,96,0
3,47,96,0
3,52,96,0
3,59,96,0
3,59,96,0
3,64,96,0
3,52,96,0
3,59,96,0
3,59,96,0
3,64,96,0
3,52,96,0
3,59,96,0
3,59,96,0
3,64,96,0
3,52,96,0
3,59,96,0
3,59,96,0
3,64,96,0
3,47,96,0
3,61,96,0
3,59,96,0
3,61,96,0
3,66,96,0
3,42,96,0
3,57,96,0
3,59,96,0
3,54,96,0
3,59,96,0
3,64,96,0
3,40,96,480
3,47,96,0
3,52,96,0
3,59,96,0
3,59,96,0
3,64,96,0
3,40,96,479
3,59,96,0
3,52,96,0
3,59,96,0
3,64,96,0
3,47,96,0
3,61,96,0
3,59,96,0
3,61,96,0
3,66,96,0
3,42,96,0
3,57,96,0
3,59,96,0
3,54,96,0
3,59,96,0
3,64,96,0
3,40,96,480
3,47,96,0
3,52,96,0
3,59,96,0
3,59,96,0
3,64,96,0
3,40,96,479
3,59,96,0
3,52,96,0
3,59,96,0
3,64,96,0
3,47,96,0
3,61,96,0
3,59,96,0
3,61,96,0
3,66,96,0
3,42,96,0
3,57,96,0
3,59,96,0
3,54,96,0
3,59,96,0
3,64,96,0
3,40,96,0
3,47,96,0
3,52,96,0
3,59,96,0
3,59,96,0
3,64,96,0
3,40,96,0
3,59,96,0
3,52,96,0
3,59,96,0
3,64,96,0
3,47,96,0
3,61,96,0
3,59,96,0
3,61,96,0
3,66,96,0
3,42,96,0
3,57,96,96
3,59,96,0
3,54,96,0
3,59,96,0
3,64,96,0
3,40,96,0
3,47,96,0
3,40,96,0
3,47,96,0
3,40,96,0
3,47,96,0
3,52,96,0
3,59,96,0
3,59,96,0
3,64,96,0
3,52,96,0
3,59,96,0
3,59,96,0
3,64,96,0
3,40,96,0
3,47,96,0
3,52,96,0
3,59,96,0
3,59,96,0
3,64,96,0
3,52,96,0
3,59,96,0
3,59,96,0
3,64,96,0
3,40,96,0
3,47,96,0
3,52,96,0
3,59,96,0
3,59,96,0
3,64,96,0
3,52,96,0
3,59,96,0
3,59,96,0
3,64,96,0
3,40,96,0
3,47,96,0
3,52,96,96
3,59,96,0
3,59,96,0
3,64,96,0
3,47,96,0
3,54,96,0
3,59,96,0
3,47,96,0
3,54,96,0
3,59,96,0
3,59,96,0
3,64,96,0
3,59,96,0
3,64,96,0
3,47,96,0
3,54,96,0
3,59,96,0
3,59,96,0
3,64,96,0
3,49,96,0
3,54,96,0
3,57,96,0
3,59,96,0
3,57,96,0
3,59,96,0
3,64,96,0
3,59,96,0
3,64,96,0
3,49,96,0
3,54,96,0
3,57,96,0
3,59,96,0
3,64,96,0
3,40,96,0
3,47,96,0
3,40,96,0
3,47,96,0
3,40,96,0
3,47,96,0
3,52,96,0
3,59,96,0
3,59,96,0
3,64,96,0
3,52,96,0
3,59,96,0
3,59,96,0
3,64,96,0
3,40,96,95
3,47,96,0
3,52,96,0
3,59,96,0
3,59,96,0
3,64,96,0
3,52,96,0
3,59,96,0
3,59,96,0
3,64,96,0
3,40,96,0
3,47,96,0
3,52,96,0
3,59,96,0
3,59,96,0
3,64,96,0
3,52,96,0
3,59,96,0
3,59,96,0
3,64,96,0
3,40,96,0
3,47,96,0
3,52,96,0
3,59,96,0
3,59,96,0
3,64,96,0
3,47,96,0
3,54,96,0
3,59,96,0
3,47,96,0
3,54,96,0
3,59,96,0
3,59,96,0
3,64,96,0
3,59,96,0
3,64,96,0
3,47,96,0
3,54,96,0
3,59,96,0
3,59,96,0
3,64,96,0
3,49,96,0
3,54,96,0
3,57,96,0
3,59,96,0
3,57,96,0
3,59,96,0
3,64,96,0
3,59,96,0
3,64,96,0
3,49,96,0
3,54,96,0
3,57,96,0
3,59,96,0
3,64,96,0
3,40,96,0
3,47,96,0
3,40,96,0
3,47,96,0
3,40,96,0
3,47,96,0
3,52,96,0
3,59,96,0
3,59,96,0
3,64,96,0
3,52,96,0
3,59,96,0
3,59,96,0
3,64,96,0
3,40,96,95
3,47,96,0
3,52,96,0
3,59,96,0
3,59,96,0
3,64,96,0
3,52,96,0
3,59,96,0
3,59,96,0
3,64,96,0
3,40,96,0
3,47,96,0
3,52,96,0
3,59,96,0
3,59,96,0
3,64,96,0
3,52,96,0
3,59,96,0
3,59,96,0
3,64,96,0
3,40,96,0
3,47,96,0
3,52,96,0
3,59,96,0
3,59,96,0
3,64,96,0
3,47,96,0
3,54,96,0
3,59,96,0
3,47,96,0
3,54,96,0
3,59,96,0
3,59,96,0
3,64,96,0
3,59,96,0
3,64,96,0
3,47,96,0
3,54,96,0
3,59,96,0
3,59,96,0
3,64,96,0
3,49,96,0
3,54,96,0
3,57,96,0
3,59,96,0
3,57,96,0
3,59,96,0
3,64,96,0
3,59,96,0
3,64,96,0
3,49,96,0
3,54,96,0
3,57,96,0
3,59,96,0
3,64,96,0
3,40,96,0
3,47,96,0
3,40,96,0
3,47,96,0
3,40,96,0
3,47,96,0
3,52,96,0
3,59,96,0
3,59,96,0
3,64,96,0
3,52,96,0
3,59,96,0
3,59,96,0
3,64,96,0
3,40,96,95
3,47,96,0
3,52,96,0
3,59,96,0
3,59,96,0
3,64,96,0
3,52,96,0
3,59,96,0
3,59,96,0
3,64,96,0
3,40,96,0
3,47,96,0
3,52,96,0
3,59,96,0
3,59,96,0
3,64,96,0
3,52,96,0
3,59,96,0
3,59,96,0
3,64,96,0
3,40,96,0
3,47,96,0
3,52,96,0
3,59,96,0
3,59,96,0
3,64,96,0
3,43,96,0
3,47,96,0
3,50,96,0
3,55,96,0
3,62,96,0
3,67,96,0
3,43,96,0
3,47,96,0
3,50,96,0
3,55,96,0
3,62,96,0
3,67,96,0
3,43,96,0
3,47,96,0
3,50,96,0
3,55,96,0
3,62,96,0
3,67,96,0
3,43,96,0
3,47,96,0
3,50,96,0
3,55,96,0
3,62,96,0
3,67,96,0
3,43,96,0
3,47,96,0
3,50,96,0
3,55,96,0
3,62,96,0
3,67,96,0
3,43,96,0
3,47,96,0
3,50,96,0
3,55,96,0
3,62,96,0
3,67,96,0
3,43,96,0
3,47,96,0
3,50,96,0
3,55,96,0
3,62,96,0
3,67,96,0
3,45,96,0
3,52,96,0
3,57,96,0
3,62,96,0
3,45,96,0
3,52,96,0
3,57,96,0
3,61,96,0
3,54,96,0
3,47,96,0
3,54,96,0
3,59,96,0
3,59,96,0
3,64,96,0
3,47,96,0
3,54,96,0
3,59,96,0
3,59,96,0
3,64,96,0
3,47,96,0
3,54,96,0
3,59,96,0
3,59,96,0
3,64,96,0
3,47,96,0
3,54,96,0
3,59,96,0
3,59,96,0
3,64,96,0
3,47,96,0
3,54,96,0
3,59,96,0
3,59,96,0
3,64,96,0
3,47,96,0
3,54,96,0
3,59,96,0
3,59,96,0
3,64,96,0
3,42,96,0
3,54,96,0
3,57,96,0
3,59,96,0
3,64,96,0
3,59,96,0
3,64,96,0
3,42,96,0
3,59,96,0
3,64,96,0
3,40,96,0
3,47,96,0
3,40,96,0
3,47,96,0
3,52,96,0
3,59,96,0
3,59,96,0
3,64,96,0
3,52,96,0
3,59,96,0
3,59,96,0
3,64,96,0
3,40,96,0
3,47,96,0
3,52,96,0
3,59,96,0
3,59,96,0
3,64,96,0
3,52,96,0
3,59,96,0
3,59,96,0
3,64,96,0
3,40,96,0
3,47,96,0
3,52,96,0
3,59,96,0
3,59,96,0
3,64,96,0
3,52,96,0
3,59,96,0
3,59,96,0
3,64,96,0
3,52,96,0
3,59,96,0
3,59,96,0
3,64,96,0
3,52,96,0
3,59,96,0
3,59,96,0
3,64,96,0
3,47,96,0
3,54,96,0
3,59,96,0
3,59,96,0
3,64,96,0
3,47,96,0
3,54,96,0
3,59,96,0
3,59,96,0
3,64,96,0
3,47,96,0
3,54,96,0
3,59,96,0
3,59,96,0
3,64,96,0
3,47,96,0
3,54,96,0
3,59,96,0
3,59,96,0
3,64,96,0
3,47,96,0
3,54,96,0
3,59,96,0
3,59,96,0
3,64,96,0
3,47,96,0
3,54,96,0
3,59,96,0
3,59,96,0
3,64,96,0
3,42,96,0
3,54,96,0
3,57,96,0
3,59,96,0
3,64,96,0
3,59,96,0
3,64,96,0
3,42,96,0
3,59,96,0
3,64,96,0
3,40,96,0
3,47,96,0
3,40,96,0
3,47,96,0
3,52,96,0
3,59,96,0
3,59,96,0
3,64,96,0
3,52,96,0
3,59,96,0
3,59,96,0
3,64,96,0
3,40,96,0
3,47,96,0
3,52,96,0
3,59,96,0
3,59,96,0
3,64,96,0
3,52,96,0
3,59,96,0
3,59,96,0
3,64,96,0
3,40,96,0
3,47,96,0
3,52,96,0
3,59,96,0
3,59,96,0
3,64,96,0
3,52,96,0
3,59,96,0
3,59,96,0
3,64,96,0
3,52,96,0
3,59,96,0
3,59,96,0
3,64,96,0
3,52,96,0
3,59,96,0
3,59,96,0
3,64,96,0
3,47,96,0
3,61,96,0
3,59,96,0
3,61,96,0
3,66,96,0
3,42,96,0
3,57,96,0
3,59,96,0
3,54,96,0
3,59,96,0
3,64,96,0
3,40,96,0
3,47,96,0
3,52,96,0
3,59,96,0
3,59,96,0
3,64,96,0
3,40,96,0
3,59,96,0
3,52,96,0
