track,note,velocity,time
1,67,121,0
1,62,121,0
1,55,121,0
1,67,121,192
1,62,121,0
1,55,121,0
1,64,121,128
1,71,121,0
1,76,121,0
1,76,121,192
1,71,121,0
1,64,121,0
1,71,121,128
1,65,121,0
1,59,121,0
1,72,121,128
1,67,121,0
1,60,121,0
1,65,121,128
1,72,121,0
1,77,121,0
1,67,121,128
1,62,121,0
1,55,121,0
1,67,121,0
1,62,121,0
1,55,121,0
1,67,121,128
1,62,121,0
1,55,121,0
1,67,121,0
1,62,121,0
1,55,121,0
1,64,121,128
1,71,121,0
1,76,121,0
1,76,121,192
1,71,121,0
1,64,121,0
1,71,121,128
1,65,121,0
1,59,121,0
1,72,121,128
1,67,121,0
1,60,121,0
1,65,121,128
1,72,121,0
1,77,121,0
1,67,121,128
1,62,121,0
1,55,121,0
1,67,121,128
1,62,121,0
1,55,121,0
1,64,121,128
1,71,121,0
1,76,121,0
1,76,121,192
1,71,121,0
1,64,121,0
1,71,121,128
1,65,121,0
1,59,121,0
1,72,121,128
1,67,121,0
1,60,121,0
1,65,121,128
1,72,121,0
1,77,121,0
1,67,121,128
1,62,121,0
1,55,121,0
1,67,121,128
1,62,121,0
1,55,121,0
1,64,121,128
1,71,121,0
1,76,121,0
1,76,121,192
1,71,121,0
1,64,121,0
1,71,121,128
1,65,121,0
1,59,121,0
1,72,121,128
1,67,121,0
1,60,121,0
1,65,121,128
1,72,121,0
1,77,121,0
1,86,121,128
1,79,121,0
1,71,121,0
1,69,121,0
1,67,121,0
1,79,121,128
1,86,121,0
1,71,121,0
1,69,121,0
1,67,121,0
1,79,121,128
1,86,121,0
1,71,121,0
1,69,121,0
1,67,121,0
1,79,121,128
1,86,121,0
1,71,121,0
1,69,121,0
1,67,121,0
1,79,121,128
1,86,121,0
1,71,121,0
1,69,121,0
1,67,121,0
1,79,121,128
1,86,121,0
1,71,121,0
1,69,121,0
1,67,121,0
1,79,121,128
1,86,121,0
1,71,121,0
1,69,121,0
1,67,121,0
1,79,121,128
1,86,121,0
1,71,121,0
1,69,121,0
1,67,121,0
1,77,121,128
1,65,121,0
1,77,121,128
1,69,121,0
1,67,121,0
1,65,121,0
1,77,121,128
1,69,121,0
1,67,121,0
1,65,121,0
1,77,121,128
1,69,121,0
1,67,121,0
1,65,121,0
1,77,121,128
1,69,121,0
1,67,121,0
1,65,121,0
1,77,121,128
1,69,121,0
1,67,121,0
1,65,121,0
1,77,121,128
1,69,121,0
1,67,121,0
1,65,121,0
1,77,121,128
1,69,121,0
1,67,121,0
1,65,121,0
1,64,121,128
1,76,121,0
1,69,121,128
1,67,121,0
1,64,121,0
1,76,121,0
1,69,121,128
1,67,121,0
1,64,121,0
1,76,121,0
1,69,121,128
1,67,121,0
1,64,121,0
1,76,121,0
1,69,121,128
1,67,121,0
1,64,121,0
1,76,121,0
1,69,121,128
1,67,121,0
1,64,121,0
1,76,121,0
1,69,121,128
1,67,121,0
1,64,121,0
1,76,121,0
1,69,121,128
1,67,121,0
1,64,121,0
1,76,121,0
1,79,121,128
1,71,121,0
1,69,121,0
1,67,121,0
1,79,121,128
1,71,121,0
1,67,121,0
1,69,121,0
1,79,121,128
1,71,121,0
1,67,121,0
1,69,121,0
1,79,121,128
1,71,121,0
1,67,121,0
1,69,121,0
1,79,121,128
1,71,121,0
1,67,121,0
1,69,121,0
1,79,121,128
1,71,121,0
1,67,121,0
1,69,121,0
1,79,121,128
1,71,121,0
1,67,121,0
1,69,121,0
1,71,121,128
1,69,121,0
1,67,121,0
1,65,121,128
1,77,121,0
1,79,121,0
1,71,121,32
1,67,121,0
1,65,121,0
1,77,121,0
1,71,121,96
1,67,121,0
1,65,121,0
1,77,121,0
1,71,121,32
1,67,121,0
1,65,121,0
1,77,121,0
1,71,121,128
1,67,121,0
1,65,121,0
1,77,121,0
1,71,121,128
1,67,121,0
1,65,121,0
1,77,121,0
1,71,121,128
1,67,121,0
1,65,121,0
1,77,121,0
1,71,121,128
1,67,121,0
1,65,121,0
1,77,121,0
1,71,121,128
1,67,121,0
1,65,121,0
1,77,121,0
1,76,121,128
1,69,121,0
1,67,121,0
1,64,121,0
1,76,121,128
1,69,121,0
1,67,121,0
1,64,121,0
1,76,121,128
1,69,121,0
1,67,121,0
1,64,121,0
1,76,121,128
1,69,121,0
1,67,121,0
1,64,121,0
1,76,121,128
1,69,121,0
1,67,121,0
1,64,121,0
1,76,121,128
1,69,121,0
1,67,121,0
1,64,121,0
1,76,121,128
1,69,121,0
1,67,121,0
1,64,121,0
1,76,121,128
1,69,121,0
1,67,121,0
1,64,121,0
1,79,121,128
1,71,121,0
1,67,121,0
1,79,121,128
1,71,121,0
1,67,121,0
1,69,121,0
1,71,121,128
1,67,121,0
1,69,121,0
1,81,121,0
1,71,121,128
1,67,121,0
1,69,121,0
1,79,121,0
1,71,121,128
1,67,121,0
1,69,121,0
1,81,121,0
1,71,121,128
1,67,121,0
1,69,121,0
1,79,121,0
1,71,121,128
1,67,121,0
1,69,121,0
1,79,121,0
1,71,121,128
1,67,121,0
1,69,121,0
1,81,121,0
1,79,121,128
1,79,121,128
1,86,121,0
1,71,121,0
1,69,121,0
1,67,121,0
1,79,121,128
1,86,121,0
1,71,121,0
1,69,121,0
1,67,121,0
1,79,121,128
1,86,121,0
1,71,121,0
1,69,121,0
1,67,121,0
1,79,121,128
1,86,121,0
1,71,121,0
1,69,121,0
1,67,121,0
1,79,121,128
1,86,121,0
1,71,121,0
1,69,121,0
1,67,121,0
1,79,121,128
1,86,121,0
1,71,121,0
1,69,121,0
1,67,121,0
1,79,121,128
1,86,121,0
1,71,121,0
1,69,121,0
1,67,121,0
1,77,121,128
1,71,121,128
1,67,121,0
1,69,121,0
1,77,121,0
1,71,121,128
1,67,121,0
1,69,121,0
1,77,121,0
1,71,121,128
1,67,121,0
1,69,121,0
1,77,121,0
1,71,121,128
1,67,121,0
1,69,121,0
1,77,121,0
1,71,121,128
1,67,121,0
1,69,121,0
1,77,121,0
1,71,121,128
1,67,121,0
1,69,121,0
1,77,121,0
1,71,121,128
1,67,121,0
1,69,121,0
1,77,121,0
1,65,121,128
1,77,121,128
1,69,121,0
1,65,121,0
1,67,121,0
1,77,121,128
1,69,121,0
1,65,121,0
1,67,121,0
1,77,121,128
1,69,121,0
1,65,121,0
1,67,121,0
1,77,121,128
1,69,121,0
1,65,121,0
1,67,121,0
1,77,121,128
1,69,121,0
1,65,121,0
1,67,121,0
1,77,121,128
1,69,121,0
1,65,121,0
1,67,121,0
1,77,121,128
1,69,121,0
1,65,121,0
1,67,121,0
1,64,121,128
1,76,121,0
1,76,121,128
1,69,121,0
1,67,121,0
1,64,121,0
1,76,121,128
1,69,121,0
1,67,121,0
1,64,121,0
1,76,121,128
1,69,121,0
1,67,121,0
1,64,121,0
1,76,121,128
1,69,121,0
1,67,121,0
1,64,121,0
1,76,121,128
1,69,121,0
1,67,121,0
1,64,121,0
1,76,121,128
1,69,121,0
1,67,121,0
1,64,121,0
1,76,121,128
1,69,121,0
1,67,121,0
1,64,121,0
1,79,121,128
1,71,121,0
1,69,121,0
1,67,121,0
1,79,121,128
1,71,121,0
1,67,121,0
1,69,121,0
1,79,121,128
1,71,121,0
1,67,121,0
1,69,121,0
1,79,121,128
1,71,121,0
1,67,121,0
1,69,121,0
1,79,121,128
1,71,121,0
1,67,121,0
1,69,121,0
1,79,121,128
1,71,121,0
1,67,121,0
1,69,121,0
1,79,121,128
1,71,121,0
1,67,121,0
1,69,121,0
1,79,121,128
1,71,121,0
1,67,121,0
1,69,121,0
1,65,121,128
1,77,121,0
1,77,121,128
1,71,121,0
1,67,121,0
1,65,121,0
1,77,121,128
1,71,121,0
1,67,121,0
1,65,121,0
1,77,121,128
1,71,121,0
1,67,121,0
1,65,121,0
1,77,121,128
1,71,121,0
1,67,121,0
1,65,121,0
1,77,121,128
1,71,121,0
1,67,121,0
1,65,121,0
1,77,121,128
1,71,121,0
1,67,121,0
1,65,121,0
1,77,121,128
1,71,121,0
1,67,121,0
1,65,121,0
1,69,121,128
1,64,121,0
1,76,121,0
1,76,121,128
1,69,121,0
1,67,121,0
1,64,121,0
1,76,121,128
1,69,121,0
1,67,121,0
1,64,121,0
1,76,121,128
1,69,121,0
1,67,121,0
1,64,121,0
1,76,121,128
1,69,121,0
1,67,121,0
1,64,121,0
1,76,121,128
1,69,121,0
1,67,121,0
1,64,121,0
1,76,121,128
1,69,121,0
1,67,121,0
1,64,121,0
1,76,121,128
1,69,121,0
1,67,121,0
1,64,121,0
1,62,121,128
1,55,121,0
1,67,121,128
1,62,121,0
1,55,121,0
1,76,121,128
1,71,121,0
1,64,121,0
1,76,121,192
1,71,121,0
1,64,121,0
1,71,121,128
1,65,121,0
1,59,121,0
1,60,121,128
1,67,121,0
1,72,121,0
1,65,121,128
1,72,121,0
1,77,121,0
1,67,121,128
1,62,121,0
1,55,121,0
1,67,121,128
1,62,121,0
1,55,121,0
1,76,121,128
1,71,121,0
1,64,121,0
1,76,121,192
1,71,121,0
1,64,121,0
1,71,121,128
1,65,121,0
1,59,121,0
1,72,121,128
1,67,121,0
1,60,121,0
1,77,121,128
1,72,121,0
1,65,121,0
1,65,121,128
1,72,121,0
1,77,121,0
1,67,121,0
1,62,121,0
1,55,121,0
1,67,121,128
1,62,121,0
1,55,121,0
1,76,121,128
1,71,121,0
1,64,121,0
1,76,121,192
1,71,121,0
1,64,121,0
1,71,121,128
1,65,121,0
1,59,121,0
1,72,121,128
1,67,121,0
1,60,121,0
1,77,121,128
1,72,121,0
1,65,121,0
1,67,121,128
1,62,121,0
1,55,121,0
1,67,121,128
1,62,121,0
1,55,121,0
1,76,121,128
1,71,121,0
1,64,121,0
1,76,121,192
1,71,121,0
1,64,121,0
1,71,121,128
1,65,121,0
1,59,121,0
1,72,121,128
1,67,121,0
1,60,121,0
1,71,121,128
1,67,121,0
1,69,121,0
1,79,121,0
1,79,121,0
1,71,121,192
1,67,121,0
1,69,121,0
1,79,121,0
1,71,121,128
1,67,121,0
1,69,121,0
1,81,121,0
1,71,121,128
1,67,121,0
1,69,121,0
1,79,121,0
1,71,121,128
1,67,121,0
1,69,121,0
1,81,121,0
1,71,121,128
1,67,121,0
1,69,121,0
1,79,121,0
1,71,121,128
1,67,121,0
1,69,121,0
1,79,121,0
1,71,121,128
1,67,121,0
1,69,121,0
1,79,121,0
1,86,121,0
1,86,121,128
1,79,121,0
1,71,121,0
1,69,121,0
1,67,121,0
1,86,121,192
1,79,121,0
1,71,121,0
1,69,121,0
1,67,121,0
1,86,121,128
1,79,121,0
1,71,121,0
1,69,121,0
1,67,121,0
1,86,121,128
1,79,121,0
1,71,121,0
1,69,121,0
1,67,121,0
1,86,121,128
1,79,121,0
1,71,121,0
1,69,121,0
1,67,121,0
1,86,121,128
1,79,121,0
1,71,121,0
1,69,121,0
1,67,121,0
1,86,121,128
1,79,121,0
1,71,121,0
1,69,121,0
1,67,121,0
1,74,121,128
1,65,121,0
1,59,121,0
1,74,121,128
1,67,121,0
1,65,121,0
1,59,121,0
1,74,121,128
1,67,121,0
1,65,121,0
1,59,121,0
1,74,121,192
1,67,121,0
1,65,121,0
1,59,121,0
1,55,121,128
1,59,121,128
1,65,121,192
1,67,121,0
1,74,121,0
1,74,121,128
1,67,121,0
1,65,121,0
1,59,121,0
1,55,121,0
1,74,121,192
1,67,121,0
1,65,121,0
1,59,121,0
1,55,121,0
1,74,121,128
1,71,121,0
1,64,121,0
1,60,121,0
1,71,121,128
1,74,121,192
1,74,121,384
1,74,96,256
1,71,96,0
1,64,96,0
1,60,96,0
1,74,96,192
1,71,96,0
1,64,96,0
1,60,96,0
1,74,96,128
1,71,96,0
1,64,96,0
1,60,96,0
1,74,96,128
1,67,96,0
1,65,96,0
1,59,96,0
1,74,96,128
1,67,96,0
1,65,96,0
1,59,96,0
1,74,96,128
1,67,96,0
1,65,96,0
1,59,96,0
1,74,96,192
1,67,96,0
1,65,96,0
1,59,96,0
1,55,96,128
1,59,96,128
1,65,96,192
1,67,96,0
1,74,96,0
1,74,96,128
1,67,96,0
1,65,96,0
1,59,96,0
1,55,96,0
1,74,96,192
1,67,96,0
1,65,96,0
1,59,96,0
1,55,96,0
1,74,96,128
1,71,96,0
1,64,96,0
1,60,96,0
1,74,96,128
1,71,96,0
1,64,96,0
1,60,96,0
1,74,96,32
1,71,96,0
1,64,96,0
1,60,96,0
1,74,96,192
1,71,96,0
1,64,96,0
1,60,96,0
1,74,96,128
1,71,96,0
1,64,96,0
1,60,96,0
1,74,96,128
1,71,96,0
1,64,96,0
1,60,96,0
1,74,96,128
1,71,96,0
1,64,96,0
1,60,96,0
1,74,96,128
1,70,96,0
1,64,96,0
1,60,96,0
1,74,96,32
1,71,96,0
1,64,96,0
1,60,96,0
1,74,96,32
1,71,96,0
1,64,96,0
1,60,96,0
1,74,96,32
1,71,96,0
1,64,96,0
1,60,96,0
1,74,96,192
1,71,96,0
1,64,96,0
1,60,96,0
1,74,96,128
1,71,96,0
1,64,96,0
1,60,96,0
1,74,96,128
1,71,96,0
1,64,96,0
1,60,96,0
1,74,96,128
1,71,96,0
1,64,96,0
1,60,96,0
1,74,96,128
1,71,96,0
1,64,96,0
1,60,96,0
1,67,96,32
1,55,96,0
1,67,96,32
1,62,96,0
1,55,96,0
1,64,96,128
1,71,96,0
1,76,96,0
1,76,96,192
1,71,96,0
1,65,96,0
1,71,96,128
1,65,96,0
1,59,96,0
1,72,96,128
1,67,96,0
1,60,96,0
1,65,96,128
1,72,96,0
1,77,96,0
1,67,96,128
1,62,96,0
1,55,96,0
1,67,96,128
1,62,96,0
1,55,96,0
1,64,96,128
1,71,96,0
1,76,96,0
1,76,96,192
1,71,96,0
1,65,96,0
1,71,96,128
1,65,96,0
1,59,96,0
1,72,96,128
1,67,96,0
1,60,96,0
1,65,96,128
1,72,96,0
1,77,96,0
1,65,96,128
1,72,96,0
1,77,96,0
1,67,96,0
1,62,96,0
1,55,96,0
1,67,96,128
1,62,96,0
1,55,96,0
1,64,96,128
1,71,96,0
1,76,96,0
1,76,96,192
1,71,96,0
1,65,96,0
1,71,96,128
1,65,96,0
1,59,96,0
1,72,96,128
1,67,96,0
1,60,96,0
1,65,96,128
1,72,96,0
1,77,96,0
1,65,96,128
1,72,96,0
1,77,96,0
1,67,96,0
1,62,96,0
1,55,96,0
1,67,96,128
1,62,96,0
1,55,96,0
1,64,96,128
1,71,96,0
1,76,96,0
1,76,96,192
1,71,96,0
1,65,96,0
1,71,96,128
1,65,96,0
1,59,96,0
1,72,96,128
1,67,96,0
1,60,96,0
1,65,96,128
1,72,96,0
1,77,96,0
1,67,96,0
1,62,96,0
1,55,96,0
1,67,96,128
1,62,96,0
1,55,96,0
1,64,96,128
1,71,96,0
1,76,96,0
1,76,96,192
1,71,96,0
1,65,96,0
1,71,96,128
1,65,96,0
1,59,96,0
1,72,96,128
1,67,96,0
1,60,96,0
1,65,96,128
1,72,96,0
1,77,96,0
1,65,96,128
1,72,96,0
1,77,96,0
1,67,96,0
1,62,96,0
1,55,96,0
1,67,96,128
1,62,96,0
1,55,96,0
1,64,96,128
1,71,96,0
1,76,96,0
1,76,96,192
1,71,96,0
1,65,96,0
1,71,96,128
1,65,96,0
1,59,96,0
1,72,96,128
1,67,96,0
1,60,96,0
1,65,96,128
1,72,96,0
1,77,96,0
1,65,96,128
1,72,96,0
1,77,96,0
1,67,96,0
1,62,96,0
1,55,96,0
1,67,96,128
1,62,96,0
1,55,96,0
1,64,96,128
1,71,96,0
1,76,96,0
1,76,96,192
1,71,96,0
1,65,96,0
1,71,96,128
1,65,96,0
1,59,96,0
1,72,96,128
1,67,96,0
1,60,96,0
1,65,96,128
1,72,96,0
1,77,96,0
1,65,96,128
1,72,96,0
1,77,96,0
1,67,96,0
1,62,96,0
1,55,96,0
1,67,96,128
1,62,96,0
1,55,96,0
1,64,96,128
