track,note,velocity,time
1,47,100,1440
2,42,80,1920
2,35,100,0
2,42,60,12
2,42,80,12
2,46,80,12
2,35,100,0
2,42,80,12
2,40,100,0
2,42,60,12
2,42,80,12
2,42,60,12
2,35,100,0
2,35,100,12
2,42,80,0
2,42,60,12
2,42,80,12
2,35,100,12
2,46,80,0
2,40,100,12
2,42,80,0
2,42,60,12
2,42,80,12
2,35,100,12
2,42,60,0
2,35,100,12
2,42,80,0
2,42,60,12
2,42,80,12
2,35,100,12
2,46,80,0
2,40,100,12
2,42,80,0
2,42,60,12
2,42,80,12
2,35,100,12
2,42,60,0
2,35,100,12
2,42,80,0
2,42,60,12
2,42,80,12
2,35,100,12
2,46,80,0
2,40,100,12
2,42,80,0
2,42,60,12
2,42,80,12
2,35,100,12
2,42,60,0
2,35,100,12
2,42,80,0
2,42,60,12
2,42,80,12
2,35,100,12
2,46,80,0
2,40,100,12
2,42,80,0
2,42,60,12
2,42,80,12
2,35,100,12
2,42,60,0
2,35,100,12
2,42,80,0
2,42,60,12
2,42,80,12
2,35,100,12
2,46,80,0
2,40,100,12
2,42,80,0
2,42,60,12
2,42,80,12
2,35,100,12
2,42,60,0
2,35,100,12
2,42,80,0
2,42,60,12
2,42,80,12
2,35,100,12
2,42,60,0
2,40,100,12
2,46,80,0
2,42,80,12
2,35,100,12
2,42,60,0
2,35,100,12
2,42,80,0
2,42,60,12
2,42,80,12
2,35,100,12
2,46,80,0
2,40,100,12
2,42,80,0
2,42,60,12
2,42,80,12
2,35,100,12
2,42,60,0
2,42,80,12
2,35,100,0
2,42,60,12
2,42,80,12
2,42,60,12
2,35,100,0
2,46,80,12
2,40,100,0
2,42,80,12
2,42,60,12
2,35,100,0
2,42,80,12
2,35,100,0
2,42,60,12
2,42,80,12
2,42,60,12
2,35,100,0
2,46,80,12
2,40,100,0
2,42,80,12
2,42,60,12
2,35,100,0
2,42,80,12
2,35,100,0
2,42,60,12
2,42,80,12
2,42,60,12
2,35,100,0
2,46,80,12
2,40,100,0
2,42,80,12
2,42,60,12
2,35,100,0
2,42,80,12
2,35,100,0
2,42,60,12
2,42,80,12
2,42,60,12
2,35,100,0
2,46,80,12
2,40,100,0
2,42,80,12
2,42,60,12
2,35,100,0
2,42,80,12
2,35,100,0
2,42,60,12
2,42,80,12
2,42,60,12
2,35,100,0
2,46,80,12
2,40,100,0
2,42,80,12
2,42,60,12
2,35,100,0
2,42,80,12
2,35,100,0
2,42,60,12
2,42,80,12
2,42,60,12
2,35,100,0
2,46,80,12
2,40,100,0
2,42,80,12
2,42,60,12
2,35,100,0
2,42,80,12
2,35,100,0
2,42,60,12
2,42,80,12
2,42,60,12
2,35,100,0
2,46,80,12
2,40,100,0
2,42,80,12
2,42,60,12
2,35,100,0
2,42,80,12
2,35,100,0
2,42,60,12
2,42,80,12
2,46,80,12
2,35,100,0
2,42,80,12
2,40,100,0
2,42,60,12
2,42,80,12
2,42,60,12
2,35,100,0
2,35,100,12
2,42,80,0
2,42,60,12
2,42,80,12
2,35,100,12
2,42,60,0
2,40,100,12
2,46,80,0
2,42,80,12
2,35,100,12
2,42,60,0
2,35,100,12
2,42,80,0
2,42,60,12
2,42,80,12
2,35,100,12
2,42,60,0
2,40,100,12
2,46,80,0
2,42,80,12
2,35,100,12
2,42,60,0
2,35,100,12
2,42,80,0
2,42,60,12
2,42,80,12
2,35,100,12
2,42,60,0
2,40,100,12
2,46,80,0
2,42,80,12
2,35,100,12
2,42,60,0
2,35,100,12
2,42,80,0
2,42,60,12
2,42,80,12
2,35,100,12
2,42,60,0
2,40,100,12
2,46,80,0
2,42,80,12
2,35,100,12
2,42,60,0
2,35,100,12
2,42,80,0
2,42,60,12
2,42,80,12
2,35,100,12
2,42,60,0
2,40,100,12
2,46,80,0
2,42,80,12
2,35,100,12
2,42,60,0
2,35,100,12
2,42,80,0
2,42,60,12
2,42,80,12
2,35,100,12
2,42,60,0
2,40,100,12
2,46,80,0
2,42,80,12
2,35,100,12
2,42,60,0
2,35,100,12
2,42,80,0
2,42,60,12
2,42,80,12
2,35,100,12
2,42,60,0
2,40,100,12
2,46,80,0
2,42,80,12
2,35,100,12
2,42,60,0
2,35,100,12
2,42,80,0
2,42,60,12
2,42,80,12
2,35,100,12
2,46,80,0
2,40,100,12
2,42,80,0
2,42,60,12
2,42,80,12
2,35,100,12
2,42,60,0
2,42,80,12
2,35,100,0
2,42,60,12
2,42,80,12
2,42,60,12
2,35,100,0
2,46,80,12
2,40,100,0
2,42,80,12
2,42,60,12
2,35,100,0
2,42,80,12
2,35,100,0
2,42,60,12
2,42,80,12
2,42,60,12
2,35,100,0
2,46,80,12
2,40,100,0
2,42,80,12
2,42,60,12
2,35,100,0
2,42,80,12
2,35,100,0
2,42,60,12
2,42,80,12
2,42,60,12
2,35,100,0
2,46,80,12
2,40,100,0
2,42,80,12
2,42,60,12
2,35,100,0
2,42,80,12
2,35,100,0
2,42,60,12
2,42,80,12
2,42,60,12
2,35,100,0
2,46,80,12
2,40,100,0
2,42,80,12
2,42,60,12
2,35,100,0
2,42,80,12
2,35,100,0
2,42,60,12
2,42,80,12
2,42,60,12
2,35,100,0
2,46,80,12
2,40,100,0
2,42,80,12
2,42,60,12
2,35,100,0
2,42,80,12
2,35,100,0
2,42,60,12
2,42,80,12
2,42,60,12
2,35,100,0
2,46,80,12
2,40,100,0
2,42,80,12
2,42,60,12
2,35,100,0
2,35,100,12
2,42,80,0
2,42,60,12
2,42,80,12
2,35,100,12
2,46,80,0
2,40,100,12
2,42,80,0
2,42,60,12
2,42,80,12
2,35,100,12
2,42,60,0
2,46,80,12
2,35,100,0
2,46,60,12
2,46,80,12
2,46,60,12
2,35,100,0
2,46,80,12
2,40,100,0
2,35,100,12
2,40,100,12
2,40,100,0
2,35,80,12
2,57,100,12
2,46,80,0
2,35,100,0
2,46,80,24
2,35,100,36
2,46,80,12
2,40,100,0
2,46,80,24
2,35,100,0
2,46,80,24
2,46,80,24
2,35,100,0
2,46,80,24
2,40,100,0
2,35,100,12
2,46,80,12
2,35,100,120
2,35,100,12
2,46,80,0
2,57,100,0
2,46,80,24
2,35,100,36
2,40,100,12
2,46,80,0
2,35,100,24
2,46,80,0
2,46,80,24
2,35,100,24
2,46,80,0
2,40,100,24
2,46,80,0
2,35,100,12
2,46,80,12
2,35,100,120
2,35,100,12
2,46,80,0
2,57,100,0
2,46,80,24
2,35,100,36
2,40,100,12
2,46,80,0
2,35,100,24
2,46,80,0
2,46,80,24
2,35,100,24
2,46,80,0
2,40,100,24
2,46,80,0
2,35,100,12
2,46,80,12
2,35,100,120
2,57,100,12
2,46,80,0
2,35,100,0
2,46,80,24
2,35,100,36
2,46,80,12
2,40,100,0
2,46,80,24
2,35,100,0
2,46,80,24
2,46,80,24
2,35,100,0
2,46,80,24
2,40,100,0
2,35,100,12
2,46,80,12
2,35,100,120
2,49,100,12
2,35,100,0
2,42,60,48
2,42,60,48
2,42,60,48
2,35,100,48
2,49,100,0
2,42,60,48
2,42,60,48
2,42,60,48
2,35,100,48
2,49,100,0
2,42,60,48
2,42,60,48
2,42,60,48
2,35,51,48
2,40,51,0
2,49,100,0
2,35,100,0
2,35,54,12
2,40,54,0
2,35,57,12
2,40,57,0
2,35,60,12
2,40,60,0
2,35,63,12
2,40,63,0
2,42,60,0
2,35,67,12
2,40,67,0
2,35,70,12
2,40,70,0
2,35,73,12
2,40,73,0
2,35,76,12
2,40,76,0
2,42,60,0
2,35,79,12
2,40,79,0
2,35,82,12
2,40,82,0
2,40,85,12
2,35,85,0
2,35,88,12
2,40,88,0
2,42,60,0
2,35,91,12
2,46,91,0
2,35,94,12
2,40,94,0
2,40,96,6
2,35,97,6
2,46,97,0
2,35,100,12
2,42,80,0
2,42,60,12
2,42,80,12
2,35,100,12
2,46,80,0
2,40,100,12
2,42,80,0
2,42,60,12
2,42,80,12
2,35,100,12
2,42,60,0
2,42,80,12
2,35,100,0
2,42,60,12
2,42,80,12
2,42,60,12
2,35,100,0
2,46,80,12
2,40,100,0
2,42,80,12
2,42,60,12
2,35,100,0
2,42,80,12
2,35,100,0
2,42,60,12
2,42,80,12
2,42,60,12
2,35,100,0
2,46,80,12
2,40,100,0
2,42,80,12
2,42,60,12
2,35,100,0
2,42,80,12
2,35,100,0
2,42,60,12
2,42,80,12
2,42,60,12
2,35,100,0
2,46,80,12
2,40,100,0
2,42,80,12
2,42,60,12
2,35,100,0
2,35,100,12
2,42,80,0
2,42,60,12
2,42,80,12
2,35,100,12
2,42,60,0
2,40,100,12
2,46,80,0
2,42,80,12
2,35,100,12
2,42,60,0
2,35,100,12
2,42,80,0
2,42,60,12
2,42,80,12
2,35,100,12
2,42,60,0
2,40,100,12
2,46,80,0
2,42,80,12
2,35,100,12
2,42,60,0
2,42,80,12
2,35,100,0
2,42,60,12
2,42,80,12
2,46,80,12
2,35,100,0
2,42,80,12
2,40,100,0
2,42,60,12
2,42,80,12
2,42,60,12
2,35,100,0
2,42,80,12
2,35,100,0
2,42,60,12
2,42,80,12
2,42,60,12
2,35,100,0
2,42,80,12
2,40,100,0
2,46,90,12
2,42,80,12
2,42,60,12
2,35,100,0
2,35,100,12
2,42,80,0
2,42,60,12
2,42,80,12
2,35,100,12
2,42,60,0
2,40,100,12
2,46,80,0
2,42,80,12
2,35,100,12
2,42,60,0
2,35,100,12
2,42,80,0
2,42,60,12
2,42,80,12
2,35,100,12
2,42,60,0
2,40,100,12
2,46,80,0
2,42,80,12
2,35,100,12
2,42,60,0
2,35,100,12
2,42,80,0
2,42,60,12
2,42,80,12
2,35,100,12
2,42,60,0
2,40,100,12
2,46,80,0
2,42,80,12
2,35,100,12
2,42,60,0
2,35,100,12
2,42,80,0
2,42,60,12
2,42,80,12
2,35,100,12
2,42,60,0
2,40,100,12
2,46,80,0
2,42,80,12
2,35,100,12
2,42,60,0
2,42,80,12
2,35,100,0
2,42,60,12
2,42,80,12
2,42,60,12
2,35,100,0
2,46,80,12
2,40,100,0
2,42,80,12
2,42,60,12
2,35,100,0
2,42,80,12
2,35,100,0
2,42,60,12
2,42,80,12
2,42,60,12
2,35,100,0
2,46,80,12
2,40,100,0
2,42,80,12
2,42,60,12
2,35,100,0
2,35,100,12
2,42,80,0
2,42,60,12
2,42,80,12
2,35,100,12
2,46,80,0
2,40,100,12
2,42,80,0
2,42,60,12
2,42,80,12
2,35,100,12
2,42,60,0
2,35,100,12
2,46,80,0
2,46,60,12
2,46,80,12
2,35,100,12
2,46,60,0
2,40,100,12
2,46,80,0
2,40,100,6
2,35,100,6
2,35,100,6
2,40,100,6
2,35,100,12
2,35,100,12
2,46,80,0
2,57,100,0
2,46,80,24
2,35,100,36
2,40,100,12
2,46,80,0
2,35,100,24
2,46,80,0
2,46,80,24
2,35,100,24
2,46,80,0
2,40,100,24
2,46,80,0
2,35,100,12
2,46,80,12
2,35,100,120
2,57,100,12
2,46,80,0
2,35,100,0
2,46,80,24
2,35,100,36
2,46,80,12
2,40,100,0
2,46,80,24
2,35,100,0
2,46,80,24
2,46,80,24
2,35,100,0
2,46,80,24
2,40,100,0
2,35,100,12
2,46,80,12
2,35,100,120
2,57,100,12
2,46,80,0
2,35,100,0
2,46,80,24
2,35,100,36
2,46,80,12
2,40,100,0
2,46,80,24
2,35,100,0
2,46,80,24
2,46,80,24
2,35,100,0
2,46,80,24
2,40,100,0
2,35,100,12
2,46,80,12
2,35,100,120
2,35,100,12
2,46,80,0
2,57,100,0
2,46,80,24
2,35,100,36
2,40,100,12
2,46,80,0
2,35,100,24
2,46,80,0
2,46,80,24
2,35,100,24
2,46,80,0
2,40,100,24
2,46,80,0
2,35,100,12
2,46,80,12
2,35,100,120
2,35,100,12
2,49,100,0
2,42,60,48
2,42,60,48
2,42,60,48
2,49,100,48
2,35,100,0
2,42,60,48
2,42,60,48
2,42,60,48
2,49,100,48
2,35,100,0
2,42,60,48
2,42,60,48
2,42,60,48
2,35,100,48
2,49,100,0
2,40,51,0
2,35,51,0
2,40,54,12
2,35,54,0
2,40,57,12
2,35,57,0
2,40,60,12
2,35,60,0
2,42,60,12
2,40,63,0
2,35,63,0
2,40,67,12
2,35,67,0
2,40,70,12
2,35,70,0
2,40,73,12
2,35,73,0
2,42,60,12
2,40,76,0
2,35,76,0
2,40,79,12
2,35,79,0
2,40,82,12
2,35,82,0
2,35,85,12
2,40,85,0
2,42,60,12
2,40,88,0
2,35,88,0
2,46,91,12
2,35,91,0
2,40,94,12
2,35,94,0
2,40,96,6
2,46,97,6
2,35,97,0
2,57,100,12
2,35,100,0
2,35,100,12
2,57,100,12
2,35,100,0
2,35,100,12
2,57,100,12
2,40,100,0
2,35,100,12
2,57,100,12
2,35,100,0
2,35,100,12
2,35,100,12
2,57,100,0
2,35,100,12
2,35,100,12
2,57,100,0
2,35,100,12
2,40,100,12
2,57,100,0
2,35,100,12
2,35,100,12
2,57,100,0
2,35,100,12
2,35,100,12
2,57,100,0
2,35,100,12
2,35,100,12
2,57,100,0
2,35,100,12
2,40,100,12
2,57,100,0
2,35,100,12
2,35,100,12
2,57,100,0
2,35,100,12
2,35,100,12
2,57,100,0
2,35,100,12
2,35,100,12
2,57,100,0
2,35,100,12
2,40,100,12
2,57,100,0
2,35,100,12
2,35,100,12
2,57,100,0
2,35,100,12
2,35,100,12
2,57,100,0
2,35,100,12
2,35,100,12
2,57,100,0
2,35,100,12
2,40,100,12
2,57,100,0
2,35,100,12
2,35,100,12
2,57,100,0
2,35,100,12
2,57,100,12
2,35,100,0
2,35,100,12
2,57,100,12
2,35,100,0
2,35,100,12
2,57,100,12
2,40,100,0
2,35,100,12
2,57,100,12
2,35,100,0
2,35,100,12
2,57,100,12
2,35,100,0
2,35,100,12
2,57,100,12
2,35,100,0
2,35,100,12
2,57,100,12
2,40,100,0
2,35,100,12
2,57,100,12
2,40,100,0
2,35,100,12
2,57,100,12
2,35,100,0
2,40,100,12
2,57,100,12
2,35,100,0
2,40,100,12
2,57,100,12
2,40,100,0
2,35,100,12
2,57,100,12
2,35,100,0
2,35,100,12
2,35,100,12
2,57,100,0
2,35,100,12
2,35,100,12
2,57,100,0
2,35,100,12
2,40,100,12
2,57,100,0
2,35,100,12
2,35,100,12
2,57,100,0
2,35,100,12
2,57,100,12
2,35,100,0
2,35,100,12
2,57,100,12
2,35,100,0
2,35,100,12
2,57,100,12
2,40,100,0
2,35,100,12
2,57,100,12
2,35,100,0
2,35,100,12
2,57,100,12
2,35,100,0
2,35,100,12
2,57,100,12
2,35,100,0
2,35,100,12
2,57,100,12
2,40,100,0
2,35,100,12
2,57,100,12
2,35,100,0
2,35,100,12
2,57,100,12
2,35,100,0
2,35,100,12
2,57,100,12
2,35,100,0
2,35,100,12
2,57,100,12
2,40,100,0
2,35,100,12
2,57,100,12
2,35,100,0
2,35,100,12
2,57,100,12
2,35,100,0
2,35,100,12
2,57,100,12
2,35,100,0
2,35,100,12
2,57,100,12
2,40,100,0
2,35,100,12
2,57,100,12
2,35,100,0
2,35,100,12
2,35,100,12
2,57,100,0
2,35,100,12
2,35,100,12
2,57,100,0
2,35,100,12
2,40,100,12
2,57,100,0
2,35,100,12
2,35,100,12
2,57,100,0
2,35,100,12
2,35,100,12
2,57,100,0
2,35,100,12
2,35,100,12
2,57,100,0
2,35,100,12
2,40,100,12
2,57,100,0
2,35,100,12
2,40,100,12
2,57,100,0
2,35,100,12
2,35,100,12
2,57,100,0
2,40,100,12
2,35,100,12
2,57,100,0
2,40,100,12
2,40,100,12
2,57,100,0
2,35,100,12
2,35,100,12
2,57,100,0
2,35,100,12
2,57,100,12
2,35,100,0
2,35,100,12
2,57,100,12
2,35,100,0
2,35,100,12
2,57,100,12
2,40,100,0
2,35,100,12
2,57,100,12
2,35,100,0
2,35,100,12
2,35,100,12
2,57,100,0
2,35,100,12
2,35,100,12
2,57,100,0
2,35,100,12
2,40,100,12
2,57,100,0
