track,note,velocity,time
1,73,79,480
1,69,93,0
1,64,87,0
1,64,0,180
1,69,0,0
1,73,0,0
1,71,87,60
1,64,83,0
1,68,83,0
1,68,0,180
1,64,0,0
1,71,0,0
1,74,91,60
1,69,97,0
1,66,91,0
1,66,0,180
1,69,0,0
1,74,0,0
1,68,79,60
1,64,91,0
1,71,91,0
1,71,0,180
1,64,0,0
1,68,0,0
1,73,79,60
1,69,93,0
1,64,87,0
1,64,0,180
1,69,0,0
1,73,0,0
1,71,87,60
1,64,83,0
1,68,83,0
1,68,0,180
1,64,0,0
1,71,0,0
1,74,91,60
1,69,97,0
1,66,91,0
1,66,0,180
1,69,0,0
1,74,0,0
1,68,79,60
1,64,91,0
1,71,91,0
1,71,0,180
1,64,0,0
1,68,0,0
1,73,79,60
1,69,93,0
1,64,87,0
1,64,0,180
1,69,0,0
1,73,0,0
1,71,87,60
1,64,83,0
1,68,83,0
1,68,0,180
1,64,0,0
1,71,0,0
1,74,91,60
1,69,97,0
1,66,91,0
1,66,0,180
1,69,0,0
1,74,0,0
1,68,79,60
1,64,91,0
1,71,91,0
1,71,0,180
1,64,0,0
1,68,0,0
1,73,79,60
1,69,93,0
1,64,87,0
1,64,0,180
1,69,0,0
1,73,0,0
1,71,87,60
1,64,83,0
1,68,83,0
1,68,0,180
1,64,0,0
1,71,0,0
1,74,91,60
1,69,97,0
1,66,91,0
1,66,0,180
1,69,0,0
1,74,0,0
1,68,79,60
1,64,91,0
1,71,91,0
1,71,0,180
1,64,0,0
1,68,0,0
1,73,79,60
1,69,93,0
1,64,87,0
1,64,0,180
1,69,0,0
1,73,0,0
1,71,87,60
1,64,83,0
1,68,83,0
1,68,0,180
1,64,0,0
1,71,0,0
1,74,91,60
1,69,97,0
1,66,91,0
1,66,0,180
1,69,0,0
1,74,0,0
1,68,79,60
1,64,91,0
1,71,91,0
1,71,0,180
1,64,0,0
1,68,0,0
1,73,79,60
1,69,93,0
1,64,87,0
1,64,0,180
1,69,0,0
1,73,0,0
1,71,87,60
1,64,83,0
1,68,83,0
1,68,0,180
1,64,0,0
1,71,0,0
1,74,91,60
1,69,97,0
1,66,91,0
1,66,0,180
1,69,0,0
1,74,0,0
1,68,79,60
1,64,91,0
1,71,91,0
1,71,0,180
1,64,0,0
1,68,0,0
1,73,79,60
1,69,93,0
1,64,87,0
1,64,0,180
1,69,0,0
1,73,0,0
1,71,87,60
1,64,83,0
1,68,83,0
1,68,0,180
1,64,0,0
1,71,0,0
1,74,91,60
1,69,97,0
1,66,91,0
1,66,0,180
1,69,0,0
1,74,0,0
1,68,79,60
1,64,91,0
1,71,91,0
1,71,0,180
1,64,0,0
1,68,0,0
1,73,79,60
1,69,93,0
1,64,87,0
1,64,0,180
1,69,0,0
1,73,0,0
1,71,87,60
1,64,83,0
1,68,83,0
1,68,0,180
1,64,0,0
1,71,0,0
1,74,91,60
1,69,97,0
1,66,91,0
1,66,0,180
1,69,0,0
1,74,0,0
1,68,79,60
1,64,91,0
1,71,91,0
1,71,0,180
1,64,0,0
1,68,0,0
1,73,79,60
1,69,93,0
1,64,87,0
1,64,0,180
1,69,0,0
1,73,0,0
1,71,87,60
1,64,83,0
1,68,83,0
1,68,0,180
1,64,0,0
1,71,0,0
1,74,91,60
1,69,97,0
1,66,91,0
1,66,0,180
1,69,0,0
1,74,0,0
1,68,79,60
1,64,91,0
1,71,91,0
1,71,0,180
1,64,0,0
1,68,0,0
1,73,79,60
1,69,93,0
1,64,87,0
1,64,0,180
1,69,0,0
1,73,0,0
1,71,87,60
1,64,83,0
1,68,83,0
1,68,0,180
1,64,0,0
1,71,0,0
1,74,91,60
1,69,97,0
1,66,91,0
1,66,0,180
1,69,0,0
1,74,0,0
1,68,79,60
1,64,91,0
1,71,91,0
1,71,0,180
1,64,0,0
1,68,0,0
1,73,79,60
1,69,93,0
1,64,87,0
1,64,0,180
1,69,0,0
1,73,0,0
1,71,87,60
1,64,83,0
1,68,83,0
1,68,0,180
1,64,0,0
1,71,0,0
1,74,91,60
1,69,97,0
1,66,91,0
1,66,0,180
1,69,0,0
1,74,0,0
1,68,79,60
1,64,91,0
1,71,91,0
1,71,0,180
1,64,0,0
1,68,0,0
1,73,79,60
1,69,93,0
1,64,87,0
1,64,0,180
1,69,0,0
1,73,0,0
1,71,87,60
1,64,83,0
1,68,83,0
1,68,0,180
1,64,0,0
1,71,0,0
1,74,91,60
1,69,97,0
1,66,91,0
1,66,0,180
1,69,0,0
1,74,0,0
1,68,79,60
1,64,91,0
1,71,91,0
1,71,0,180
1,64,0,0
1,68,0,0
1,73,79,3900
1,69,93,0
1,64,87,0
1,64,0,180
1,69,0,0
1,73,0,0
1,71,87,60
1,64,83,0
1,68,83,0
1,68,0,180
1,64,0,0
1,71,0,0
1,74,91,60
1,69,97,0
1,66,91,0
1,66,0,180
1,69,0,0
1,74,0,0
1,68,79,60
1,64,91,0
1,71,91,0
1,71,0,180
1,64,0,0
1,68,0,0
1,73,79,60
1,69,93,0
1,64,87,0
1,64,0,180
1,69,0,0
1,73,0,0
1,71,87,60
1,64,83,0
1,68,83,0
1,68,0,180
1,64,0,0
1,71,0,0
1,74,91,60
1,69,97,0
1,66,91,0
1,66,0,180
1,69,0,0
1,74,0,0
1,68,79,60
1,64,91,0
1,71,91,0
1,71,0,180
1,64,0,0
1,68,0,0
1,73,79,60
1,69,93,0
1,64,87,0
1,64,0,180
1,69,0,0
1,73,0,0
1,71,87,60
1,64,83,0
1,68,83,0
1,68,0,180
1,64,0,0
1,71,0,0
1,74,91,60
1,69,97,0
1,66,91,0
1,66,0,180
1,69,0,0
1,74,0,0
1,68,79,60
1,64,91,0
1,71,91,0
1,71,0,180
1,64,0,0
1,68,0,0
1,73,79,60
1,69,93,0
1,64,87,0
1,64,0,180
1,69,0,0
1,73,0,0
1,71,87,60
1,64,83,0
1,68,83,0
1,68,0,180
1,64,0,0
1,71,0,0
1,74,91,60
1,69,97,0
1,66,91,0
1,66,0,180
1,69,0,0
1,74,0,0
1,68,79,60
1,64,91,0
1,71,91,0
1,71,0,180
1,64,0,0
1,68,0,0
1,73,79,60
1,69,93,0
1,64,87,0
1,64,0,180
1,69,0,0
1,73,0,0
1,71,87,60
1,64,83,0
1,68,83,0
1,68,0,180
1,64,0,0
1,71,0,0
1,74,91,60
1,69,97,0
1,66,91,0
1,66,0,180
1,69,0,0
1,74,0,0
1,68,79,60
1,64,91,0
1,71,91,0
1,71,0,180
1,64,0,0
1,68,0,0
1,73,79,60
1,69,93,0
1,64,87,0
1,64,0,180
1,69,0,0
1,73,0,0
1,71,87,60
1,64,83,0
1,68,83,0
1,68,0,180
1,64,0,0
1,71,0,0
1,74,91,60
1,69,97,0
1,66,91,0
1,66,0,180
1,69,0,0
1,74,0,0
1,68,79,60
1,64,91,0
1,71,91,0
1,71,0,180
1,64,0,0
1,68,0,0
1,73,79,3900
1,69,93,0
1,64,87,0
1,64,0,180
1,69,0,0
1,73,0,0
1,71,87,60
1,64,83,0
1,68,83,0
1,68,0,180
1,64,0,0
1,71,0,0
1,74,91,60
1,69,97,0
1,66,91,0
1,66,0,180
1,69,0,0
1,74,0,0
1,68,79,60
1,64,91,0
1,71,91,0
1,71,0,180
1,64,0,0
1,68,0,0
1,73,79,60
1,69,93,0
1,64,87,0
1,64,0,180
1,69,0,0
1,73,0,0
1,71,87,60
1,64,83,0
1,68,83,0
1,68,0,180
1,64,0,0
1,71,0,0
1,74,91,60
1,69,97,0
1,66,91,0
1,66,0,180
1,69,0,0
1,74,0,0
1,68,79,60
1,64,91,0
1,71,91,0
1,71,0,180
1,64,0,0
1,68,0,0
1,73,79,60
1,69,93,0
1,64,87,0
1,64,0,180
1,69,0,0
1,73,0,0
1,71,87,60
1,64,83,0
1,68,83,0
1,68,0,180
1,64,0,0
1,71,0,0
1,74,91,60
1,69,97,0
1,66,91,0
1,66,0,180
1,69,0,0
1,74,0,0
1,68,79,60
1,64,91,0
1,71,91,0
1,71,0,180
1,64,0,0
1,68,0,0
1,73,79,60
1,69,93,0
1,64,87,0
1,64,0,180
1,69,0,0
1,73,0,0
1,71,87,60
1,64,83,0
1,68,83,0
1,68,0,180
1,64,0,0
1,71,0,0
1,74,91,60
1,69,97,0
1,66,91,0
1,66,0,180
1,69,0,0
1,74,0,0
1,68,79,60
1,64,91,0
1,71,91,0
1,71,0,180
1,64,0,0
1,68,0,0
1,73,79,3900
1,69,93,0
1,64,87,0
1,64,0,180
1,69,0,0
1,73,0,0
1,71,87,60
1,64,83,0
1,68,83,0
1,68,0,180
1,64,0,0
1,71,0,0
1,74,91,60
1,69,97,0
1,66,91,0
1,66,0,180
1,69,0,0
1,74,0,0
1,68,79,60
1,64,91,0
1,71,91,0
1,71,0,180
1,64,0,0
1,68,0,0
1,73,79,60
1,69,93,0
1,64,87,0
1,64,0,180
1,69,0,0
1,73,0,0
1,71,87,60
1,64,83,0
1,68,83,0
1,68,0,180
1,64,0,0
1,71,0,0
1,74,91,60
1,69,97,0
1,66,91,0
1,66,0,180
1,69,0,0
1,74,0,0
1,68,79,60
1,64,91,0
1,71,91,0
1,71,0,180
1,64,0,0
1,68,0,0
1,73,79,60
1,69,93,0
1,64,87,0
1,64,0,180
1,69,0,0
1,73,0,0
1,71,87,60
1,64,83,0
1,68,83,0
1,68,0,180
1,64,0,0
1,71,0,0
1,74,91,60
1,69,97,0
1,66,91,0
1,66,0,180
1,69,0,0
1,74,0,0
1,68,79,60
1,64,91,0
1,71,91,0
1,71,0,180
1,64,0,0
1,68,0,0
1,73,79,60
1,69,93,0
1,64,87,0
1,64,0,180
1,69,0,0
1,73,0,0
1,71,87,60
1,64,83,0
1,68,83,0
1,68,0,180
1,64,0,0
1,71,0,0
1,74,91,60
1,69,97,0
1,66,91,0
1,66,0,180
1,69,0,0
1,74,0,0
1,68,79,60
1,64,91,0
1,71,91,0
1,71,0,180
1,64,0,0
1,68,0,0
2,64,103,7200
2,57,103,0
2,61,97,0
2,61,0,96
2,57,0,0
2,64,0,0
2,61,83,24
2,57,93,0
2,64,93,0
2,57,0,74
2,61,0,0
2,64,0,2
2,61,103,14
2,64,107,0
2,57,121,0
2,57,0,24
2,61,0,3
2,64,0,5
2,64,59,28
2,56,97,0
2,60,65,0
2,59,79,0
2,60,0,6
2,59,0,3
2,56,0,4
2,56,93,17
2,59,115,0
2,56,0,23
2,59,0,1
2,64,0,1
2,59,107,35
2,56,107,0
2,64,97,0
2,64,0,73
2,56,0,2
2,59,0,1
2,62,103,44
2,57,115,0
2,54,115,0
2,54,0,87
2,57,0,3
2,62,0,8
2,54,103,22
2,57,103,0
2,62,103,0
2,57,0,71
2,62,0,5
2,54,0,0
2,56,122,14
2,64,122,0
2,59,122,0
2,56,0,32
2,59,0,5
2,64,0,5
2,64,103,18
2,59,93,0
2,56,97,0
2,56,0,14
2,59,0,1
2,64,0,6
2,64,91,9
2,59,107,0
2,56,115,0
2,56,0,25
2,59,0,1
2,64,0,4
2,56,115,30
2,64,118,0
2,59,118,0
2,59,0,63
2,56,0,12
2,64,0,6
2,57,107,39
2,64,97,0
2,61,121,0
2,57,0,92
2,61,0,1
2,64,0,4
2,61,107,23
2,64,103,0
2,57,107,0
2,57,0,76
2,64,0,2
2,61,0,3
2,61,118,9
2,64,115,0
2,57,118,0
2,57,0,29
2,61,0,1
2,64,0,8
2,64,115,22
2,59,115,0
2,56,115,0
2,56,0,12
2,59,0,2
2,64,0,0
2,59,115,16
2,56,107,0
2,64,115,0
2,56,0,23
2,64,0,2
2,59,0,0
2,59,121,35
2,64,118,0
2,56,121,0
2,59,0,82
2,56,0,1
2,64,0,0
2,62,103,37
2,54,115,0
2,57,121,0
2,54,0,83
2,57,0,3
2,62,0,5
2,62,107,29
2,54,107,0
2,57,115,0
2,57,0,74
2,54,0,3
2,62,0,4
2,56,118,9
2,64,118,0
2,59,122,0
2,56,0,42
2,59,0,1
2,64,0,6
2,59,115,11
2,64,115,0
2,56,115,0
2,64,0,13
2,59,0,0
2,56,0,2
2,64,107,15
2,56,97,0
2,59,107,0
2,56,0,26
2,59,0,1
2,64,0,0
2,64,118,33
2,59,121,0
2,56,121,0
2,56,0,46
2,59,0,1
2,64,0,3
2,64,103,6790
2,57,103,0
2,61,97,0
2,61,0,96
2,57,0,0
2,64,0,0
2,61,83,24
2,57,93,0
2,64,93,0
2,57,0,74
2,61,0,0
2,64,0,2
2,61,103,14
2,64,107,0
2,57,121,0
2,57,0,24
2,61,0,3
2,64,0,5
2,64,59,28
2,56,97,0
2,60,65,0
2,59,79,0
2,60,0,6
2,59,0,3
2,56,0,4
2,56,93,17
2,59,115,0
2,56,0,23
2,59,0,1
2,64,0,1
2,59,107,35
2,56,107,0
2,64,97,0
2,64,0,73
2,56,0,2
2,59,0,1
2,62,103,44
2,57,115,0
2,54,115,0
2,54,0,87
2,57,0,3
2,62,0,8
2,54,103,22
2,57,103,0
2,62,103,0
2,57,0,71
2,62,0,5
2,54,0,0
2,56,122,14
2,64,122,0
2,59,122,0
2,56,0,32
2,59,0,5
2,64,0,5
2,64,103,18
2,59,93,0
2,56,97,0
2,56,0,14
2,59,0,1
2,64,0,6
2,64,91,9
2,59,107,0
2,56,115,0
2,56,0,25
2,59,0,1
2,64,0,4
2,56,115,30
2,64,118,0
2,59,118,0
2,59,0,63
2,56,0,12
2,64,0,6
2,57,107,39
2,64,97,0
2,61,121,0
2,57,0,92
2,61,0,1
2,64,0,4
2,61,107,23
2,64,103,0
2,57,107,0
2,57,0,76
2,64,0,2
2,61,0,3
2,61,118,9
2,64,115,0
2,57,118,0
2,57,0,29
2,61,0,1
2,64,0,8
2,64,115,22
2,59,115,0
2,56,115,0
2,56,0,12
2,59,0,2
2,64,0,0
2,59,115,16
2,56,107,0
2,64,115,0
2,56,0,23
2,64,0,2
2,59,0,0
2,59,121,35
2,64,118,0
2,56,121,0
2,59,0,82
2,56,0,1
2,64,0,0
2,62,103,37
2,54,115,0
2,57,121,0
2,54,0,83
2,57,0,3
2,62,0,5
2,62,107,29
2,54,107,0
2,57,115,0
2,57,0,74
2,54,0,3
2,62,0,4
2,56,118,9
2,64,118,0
2,59,122,0
2,56,0,42
2,59,0,1
2,64,0,6
2,59,115,11
2,64,115,0
2,56,115,0
2,64,0,13
2,59,0,0
2,56,0,2
2,64,107,15
2,56,97,0
2,59,107,0
2,56,0,26
2,59,0,1
2,64,0,0
2,64,118,33
2,59,121,0
2,56,121,0
2,56,0,46
2,59,0,1
2,64,0,3
2,64,103,70
2,57,103,0
2,61,97,0
2,61,0,96
2,57,0,0
2,64,0,0
2,61,83,24
2,57,93,0
2,64,93,0
2,57,0,74
2,61,0,0
2,64,0,2
2,61,103,14
2,64,107,0
2,57,121,0
2,57,0,24
2,61,0,3
2,64,0,5
2,64,59,28
2,56,97,0
2,60,65,0
2,59,79,0
2,60,0,6
2,59,0,3
2,56,0,4
2,56,93,17
2,59,115,0
2,56,0,23
2,59,0,1
2,64,0,1
2,59,107,35
2,56,107,0
2,64,97,0
2,64,0,73
2,56,0,2
2,59,0,1
2,62,103,44
2,57,115,0
2,54,115,0
2,54,0,87
2,57,0,3
2,62,0,8
2,54,103,22
2,57,103,0
2,62,103,0
2,57,0,71
2,62,0,5
2,54,0,0
2,56,122,14
2,64,122,0
2,59,122,0
2,56,0,32
2,59,0,5
2,64,0,5
2,64,103,18
2,59,93,0
2,56,97,0
2,56,0,14
2,59,0,1
2,64,0,6
2,64,91,9
2,59,107,0
2,56,115,0
2,56,0,25
2,59,0,1
2,64,0,4
2,56,115,30
2,64,118,0
2,59,118,0
2,59,0,63
2,56,0,12
2,64,0,6
2,57,107,39
2,64,97,0
2,61,121,0
2,57,0,92
2,61,0,1
2,64,0,4
2,61,107,23
2,64,103,0
2,57,107,0
2,57,0,76
2,64,0,2
2,61,0,3
2,61,118,9
2,64,115,0
2,57,118,0
2,57,0,29
