track,note,velocity,time
1,59,80,6532
1,62,80,0
1,62,80,0
1,59,80,0
1,57,80,0
1,57,80,0
1,55,80,0
1,59,80,1056
1,62,80,0
1,64,80,0
1,62,80,0
1,59,80,0
1,59,80,0
1,57,80,0
1,55,80,0
1,59,80,960
1,62,80,0
1,62,80,0
1,59,80,0
1,62,80,0
1,62,80,0
1,59,80,0
1,57,80,0
1,55,80,0
1,57,80,0
1,55,80,0
1,57,80,0
1,59,80,0
1,55,80,0
1,52,80,0
1,52,80,864
1,52,80,0
1,60,80,0
1,59,80,0
1,55,80,0
1,57,80,0
1,60,80,960
1,60,80,0
1,60,80,0
1,59,80,0
1,57,80,0
1,55,80,0
1,57,80,0
1,59,80,96
1,57,80,0
1,59,80,0
1,57,80,0
1,55,80,0
1,52,80,96
1,57,80,864
1,55,80,0
1,57,80,0
1,62,80,0
1,59,80,0
1,59,80,2112
1,62,80,0
1,62,80,0
1,62,80,0
1,59,80,0
1,57,80,0
1,59,80,0
1,57,80,0
1,55,80,0
1,59,80,768
1,62,80,0
1,62,80,0
1,59,80,0
1,62,80,0
1,59,80,0
1,57,80,0
1,57,80,0
1,59,80,0
1,55,80,0
1,52,80,0
1,67,80,864
1,67,80,0
1,67,80,96
1,64,80,96
1,62,80,0
1,62,80,0
1,64,80,0
1,62,80,0
1,64,80,0
1,62,80,0
1,62,80,0
1,64,80,0
1,59,80,0
1,57,80,0
1,55,80,0
1,64,80,672
1,64,80,0
1,67,80,0
1,67,80,96
1,67,80,96
1,64,80,0
1,62,80,0
1,64,80,288
1,67,80,0
1,64,80,0
1,67,80,0
1,67,80,192
1,67,80,0
1,67,80,96
1,71,80,96
1,69,80,0
1,67,80,0
1,69,80,0
1,67,80,864
1,64,80,0
1,62,80,0
1,64,80,0
1,67,80,0
1,64,80,0
1,64,80,96
1,66,80,0
1,64,80,0
1,62,80,0
1,62,80,1056
1,64,80,0
1,67,80,0
1,67,80,96
1,67,80,0
1,67,80,0
1,69,80,0
1,67,80,0
1,67,80,96
1,67,80,0
1,66,80,0
1,64,80,0
1,62,80,0
1,62,80,960
1,64,80,0
1,67,80,0
1,64,80,0
1,62,80,0
1,64,80,0
1,67,80,0
1,64,80,0
1,64,80,0
1,64,80,96
1,66,80,0
1,64,80,0
1,62,80,0
1,60,80,1728
1,60,80,0
1,60,80,0
1,60,80,0
1,64,80,0
1,64,80,96
1,62,80,0
1,60,80,1152
1,60,80,0
1,60,80,96
1,59,80,0
1,57,80,0
1,55,80,0
1,57,80,0
1,59,80,1248
1,62,80,0
1,62,80,0
1,59,80,0
1,62,80,0
1,59,80,0
1,57,80,0
1,59,80,0
1,57,80,0
1,55,80,96
1,59,80,960
1,62,80,0
1,62,80,0
1,64,80,96
1,62,80,0
1,59,80,0
1,59,80,0
1,57,80,0
1,55,80,0
1,62,80,1056
1,62,80,0
1,62,80,0
1,62,80,0
1,67,80,0
1,64,80,0
1,64,80,192
1,62,80,0
1,67,80,0
1,64,80,96
1,62,80,96
1,59,80,0
1,57,80,0
1,55,80,0
1,64,80,960
1,64,80,0
1,67,80,0
1,67,80,0
1,67,80,96
1,64,80,0
1,62,80,0
1,64,80,672
1,67,80,0
1,67,80,0
1,67,80,0
1,64,80,192
1,67,80,0
1,67,80,96
1,71,80,0
1,69,80,0
1,67,80,0
1,69,80,0
1,62,80,0
1,67,80,768
1,64,80,0
1,62,80,0
1,64,80,0
1,67,80,0
1,64,80,0
1,64,80,96
1,66,80,0
1,64,80,0
1,62,80,0
1,62,80,1056
1,64,80,0
1,67,80,0
1,67,80,96
1,67,80,0
1,67,80,0
1,69,80,0
1,67,80,0
1,67,80,96
1,67,80,0
1,69,80,0
1,71,80,0
1,62,80,1152
1,64,80,0
1,67,80,0
1,64,80,0
1,62,80,0
1,64,80,0
1,67,80,0
1,64,80,0
1,64,80,0
1,64,80,96
1,66,80,0
1,64,80,0
1,62,80,0
1,64,80,1632
1,64,80,0
1,71,80,0
1,69,80,0
1,67,80,0
1,69,80,0
1,62,80,0
1,67,80,1248
1,67,80,0
1,71,80,0
1,69,80,0
1,67,80,0
1,67,80,0
1,69,80,96
1,62,80,0
1,62,80,192
1,71,80,96
1,69,80,0
1,71,80,0
1,69,80,0
1,67,80,0
1,64,80,0
1,71,80,1344
1,71,80,0
1,71,80,96
1,69,80,0
1,67,80,0
1,64,80,0
1,69,80,1536
1,67,80,0
1,69,80,0
1,67,80,0
1,71,80,0
1,74,80,0
1,71,80,0
1,69,80,0
1,67,80,0
1,64,80,0
1,69,80,1536
1,67,80,0
1,78,80,0
1,76,80,0
1,64,82,11336
1,64,76,32
1,67,83,16
1,67,72,32
1,67,66,32
1,64,75,0
1,62,60,4
1,64,68,904
1,67,83,20
1,67,70,36
1,67,78,32
1,64,66,224
1,67,86,8
1,67,83,56
1,71,73,12
1,69,62,92
1,67,64,96
1,69,83,20
1,71,65,8
1,67,80,1188
1,64,80,0
1,62,80,0
1,64,80,0
1,67,80,0
1,64,80,0
1,64,80,96
1,66,80,0
1,64,80,0
1,62,80,0
1,62,80,1056
1,64,80,0
1,67,80,0
1,67,80,96
1,67,80,0
1,67,80,0
1,69,80,0
1,67,80,0
1,67,80,96
1,67,80,0
1,69,80,0
1,71,80,0
1,62,80,1152
1,64,80,0
1,67,80,0
1,64,80,0
1,62,80,0
1,64,80,0
1,67,80,0
1,64,80,0
1,64,80,0
1,64,80,96
1,66,80,0
1,64,80,0
1,62,80,0
1,64,80,1632
1,64,80,0
1,71,80,0
1,69,80,0
1,67,80,0
1,69,80,0
1,62,80,0
1,67,80,1248
1,67,80,0
1,71,80,0
1,69,80,0
1,67,80,0
1,67,80,0
1,69,80,96
1,62,80,96
1,67,80,960
1,64,80,0
1,62,80,0
1,64,80,0
1,67,80,0
1,64,80,0
1,64,80,96
1,66,80,0
1,64,80,0
1,62,80,0
1,62,80,1056
1,64,80,0
1,67,80,0
1,67,80,96
1,67,80,0
1,67,80,0
1,69,80,0
1,67,80,0
1,67,80,96
1,67,80,0
1,69,80,0
1,71,80,0
1,62,80,1152
1,64,80,0
1,67,80,0
1,64,80,0
1,62,80,0
1,64,80,0
1,67,80,0
1,64,80,0
1,64,80,0
1,64,80,96
1,66,80,0
1,64,80,0
1,62,80,0
1,67,80,1632
1,67,80,0
1,71,80,0
1,69,80,0
1,67,80,0
1,69,80,0
1,62,80,0
1,67,80,768
1,67,80,96
1,67,80,0
1,67,80,288
1,71,80,0
1,72,80,0
1,74,80,0
1,71,80,0
1,71,80,0
1,69,80,0
1,67,80,768
1,64,80,0
1,62,80,0
1,64,80,0
1,67,80,0
1,64,80,0
1,64,80,96
1,66,80,0
1,64,80,0
1,62,80,0
1,62,80,1056
1,64,80,0
1,67,80,0
1,67,80,96
1,67,80,0
1,67,80,0
1,69,80,0
1,67,80,0
1,67,80,96
1,67,80,0
1,69,80,0
1,71,80,0
1,62,80,1152
1,64,80,0
1,67,80,0
1,67,80,96
1,67,80,0
1,67,80,0
1,69,80,0
1,67,80,0
1,67,80,96
1,67,80,0
1,69,80,0
1,71,80,0
1,62,80,1152
1,64,80,0
1,67,80,0
1,67,80,96
1,67,80,0
1,67,80,0
1,69,80,0
1,67,80,0
1,67,80,96
1,67,80,0
1,69,80,0
1,71,80,0
2,36,94,43776
2,38,94,56
2,31,94,56
2,31,94,28
2,36,94,412
2,36,94,28
2,38,94,412
2,38,94,28
2,36,94,412
2,38,94,56
2,31,94,56
2,31,94,28
2,36,94,412
2,36,94,28
2,38,94,412
2,38,94,28
2,36,94,412
2,38,94,56
2,31,94,56
2,31,94,28
2,36,94,412
2,36,94,28
2,38,94,412
2,38,94,28
2,36,94,412
2,35,94,56
2,36,94,16
2,35,94,16
2,33,94,28
2,33,94,192
2,33,94,112
2,35,94,56
2,36,94,16
2,38,94,16
2,38,94,112
2,38,94,112
2,38,94,112
2,38,94,112
2,38,94,112
2,38,94,112
2,36,94,28
2,35,94,16
2,33,94,16
2,33,94,164
2,33,94,16
2,33,94,16
2,33,94,112
2,35,94,56
2,36,94,16
2,38,94,16
2,36,94,108
2,38,94,56
2,31,94,56
2,31,94,32
2,31,94,32
2,31,94,32
2,31,94,32
2,31,94,32
2,31,94,32
2,31,94,32
2,31,94,32
2,31,94,32
2,31,94,32
2,31,94,32
2,31,94,32
2,31,94,32
2,31,94,32
2,31,94,32
2,31,94,32
2,31,94,32
2,31,94,32
2,31,94,32
2,31,94,32
2,31,94,32
2,31,94,32
2,31,94,32
2,31,94,32
2,31,94,32
2,31,94,32
2,31,94,32
2,31,94,32
2,31,94,32
2,31,94,32
2,31,94,32
2,31,94,32
2,31,94,32
2,31,94,32
2,31,94,32
2,30,94,32
2,30,94,32
2,30,94,32
2,30,94,32
2,28,94,32
2,28,94,32
2,28,94,32
2,26,94,32
2,36,94,112
2,35,94,56
2,33,94,56
2,33,94,164
2,33,94,16
2,33,94,16
2,33,94,112
2,38,94,80
2,38,94,112
2,38,94,112
2,38,94,112
2,38,94,112
2,38,94,112
2,38,94,112
2,36,94,28
2,35,94,16
2,33,94,16
2,33,94,164
2,33,94,16
2,33,94,16
2,33,94,112
2,35,94,56
2,36,94,16
2,38,94,16
2,36,94,192
2,38,94,56
2,31,94,56
2,31,94,28
2,36,94,412
2,36,94,28
2,38,94,412
2,38,94,28
2,36,94,412
2,38,94,56
2,31,94,56
2,31,94,28
2,36,94,412
2,36,94,28
2,38,94,412
2,38,94,28
2,36,94,412
2,38,94,56
2,31,94,56
2,31,94,28
2,36,94,412
2,36,94,28
2,38,94,412
2,38,94,28
2,36,94,412
2,35,94,56
2,36,94,16
2,35,94,16
2,33,94,28
2,33,94,164
2,33,94,16
2,33,94,16
2,33,94,112
2,35,94,56
2,36,94,16
2,38,94,16
2,38,94,112
2,38,94,112
2,38,94,112
2,38,94,112
2,38,94,112
2,38,94,112
2,36,94,112
2,35,94,16
2,33,94,16
2,33,94,164
2,33,94,16
2,33,94,16
2,33,94,112
2,35,94,56
2,36,94,16
2,38,94,16
2,38,94,164
2,36,94,28
2,38,94,56
2,28,94,56
2,40,94,576
2,33,94,136
2,45,94,576
2,28,94,136
2,40,94,576
2,33,94,136
2,45,94,576
2,28,94,136
2,40,94,576
2,33,94,136
2,45,94,576
2,28,94,136
2,40,94,576
2,33,94,136
2,36,94,108
2,38,94,56
2,31,94,56
2,31,94,76
2,31,94,76
2,31,94,76
2,31,94,76
2,31,94,76
2,31,94,76
2,31,94,76
2,31,94,76
2,31,94,76
2,31,94,76
2,31,94,76
2,31,94,76
2,31,94,76
2,31,94,76
2,31,94,76
2,31,94,76
2,31,94,76
2,31,94,76
2,31,94,76
2,31,94,76
2,31,94,76
2,31,94,76
2,31,94,76
2,31,94,76
2,31,94,76
2,31,94,76
2,31,94,76
2,31,94,76
2,31,94,76
2,31,94,76
2,31,94,76
2,31,94,76
2,31,94,76
2,31,94,76
2,31,94,76
2,30,94,76
2,30,94,76
2,30,94,76
2,30,94,76
2,28,94,76
2,28,94,76
2,28,94,76
2,26,94,76
2,36,94,76
2,35,94,56
2,33,94,56
2,33,94,164
2,33,94,16
2,33,94,16
2,33,94,112
2,38,94,80
2,38,94,112
2,38,94,112
2,38,94,112
2,38,94,112
2,38,94,112
2,38,94,112
2,36,94,28
2,35,94,16
2,33,94,16
2,33,94,164
2,33,94,16
2,33,94,16
2,33,94,112
2,35,94,56
2,36,94,16
2,38,94,16
2,36,94,192
2,38,94,56
2,31,94,56
2,31,94,28
2,36,94,412
2,36,94,28
2,38,94,412
2,38,94,28
2,36,94,412
2,38,94,56
2,31,94,56
2,31,94,28
2,36,94,412
2,36,94,28
2,38,94,412
2,38,94,28
2,36,94,412
2,38,94,56
2,31,94,56
2,31,94,28
2,36,94,412
2,36,94,28
2,38,94,412
2,38,94,28
2,36,94,412
2,35,94,56
2,36,94,16
2,35,94,16
2,33,94,28
2,33,94,164
2,33,94,16
2,33,94,16
2,33,94,112
2,35,94,56
2,36,94,16
2,38,94,16
2,38,94,112
2,38,94,112
2,38,94,112
2,38,94,112
2,38,94,112
2,38,94,112
2,36,94,112
2,35,94,16
2,33,94,16
2,33,94,164
2,33,94,16
2,33,94,16
2,33,94,112
2,35,94,56
2,36,94,16
2,38,94,16
2,38,94,164
2,36,94,28
2,38,94,56
2,31,94,56
2,31,94,28
2,36,94,412
2,36,94,28
2,38,94,412
2,38,94,28
2,36,94,412
2,38,94,56
2,31,94,56
2,31,94,28
2,36,94,412
2,36,94,28
2,38,94,412
2,38,94,28
2,36,94,412
2,38,94,56
2,31,94,56
2,31,94,28
2,36,94,412
2,36,94,28
2,38,94,412
2,38,94,28
2,36,94,412
2,35,94,56
2,36,94,16
2,35,94,16
2,33,94,28
2,33,94,164
2,33,94,16
2,33,94,16
2,33,94,112
2,35,94,56
2,36,94,16
2,38,94,16
2,38,94,112
2,38,94,112
2,38,94,112
2,38,94,112
2,38,94,112
2,38,94,112
2,36,94,112
2,35,94,16
2,33,94,16
2,33,94,164
2,33,94,16
2,33,94,16
2,33,94,112
2,35,94,56
2,36,94,16
2,38,94,16
2,38,94,164
2,36,94,28
2,38,94,56
2,31,94,56
2,31,94,28
2,36,94,412
2,36,94,28
2,38,94,412
2,38,94,28
2,36,94,412
2,38,94,56
2,31,94,56
2,31,94,28
2,36,94,412
2,36,94,28
2,38,94,412
2,38,94,28
2,36,94,412
2,38,94,56
2,31,94,56
2,31,94,28
2,36,94,412
2,36,94,28
2,38,94,412
2,38,94,28
2,36,94,412
2,38,94,56
2,31,94,56
2,31,94,28
3,95,73,1536
3,62,60,0
3,71,60,0
3,43,60,0
3,55,60,0
3,67,60,0
3,62,60,0
3,93,73,0
3,50,60,0
3,69,60,0
3,66,60,0
3,91,73,0
3,64,60,0
3,48,60,0
3,67,60,0
3,55,60,0
3,60,60,192
3,90,73,0
3,66,60,0
3,91,73,0
3,67,60,0
3,93,73,192
3,69,60,0
3,95,73,0
3,71,60,0
3,62,60,0
3,55,60,0
3,67,60,0
3,62,60,0
3,93,73,0
3,50,60,0
3,66,60,0
3,69,60,0
3,67,60,0
3,66,60,0
3,91,73,0
3,60,60,0
3,55,60,0
3,64,60,0
3,36,90,0
3,48,60,0
3,55,60,0
3,59,60,0
3,62,60,0
3,57,60,0
3,54,60,0
3,50,60,0
3,62,60,0
3,60,60,0
3,64,60,0
3,48,60,0
3,55,60,0
3,55,60,0
3,59,60,0
3,62,60,0
3,62,60,0
3,50,60,0
3,54,60,0
3,57,60,0
3,48,60,0
3,64,60,0
3,60,60,0
3,55,60,0
3,55,60,0
3,59,60,0
3,62,60,0
3,54,60,0
3,62,60,0
3,57,60,0
3,55,60,0
3,64,60,0
3,52,60,0
3,60,60,0
3,50,60,0
3,96,73,0
3,48,60,0
3,95,73,0
3,47,60,0
3,59,60,0
3,93,73,0
3,60,60,0
3,57,60,0
3,52,60,0
3,45,60,0
3,62,60,0
3,54,60,0
3,57,60,0
3,50,60,0
3,48,60,0
3,47,60,0
3,93,73,0
3,64,60,0
3,57,60,0
3,60,60,0
3,45,60,0
3,66,60,0
3,62,60,0
3,57,60,0
3,50,60,0
3,74,60,768
3,95,73,0
3,52,60,0
3,55,60,0
3,59,60,0
3,64,60,192
3,71,60,192
3,76,60,192
3,93,73,0
3,60,60,0
3,45,60,0
3,57,60,0
3,52,60,0
3,91,73,0
3,55,60,0
3,64,60,0
3,48,60,0
3,60,60,0
3,95,73,0
3,55,60,0
3,43,60,0
3,59,60,0
3,67,60,0
3,62,60,0
3,91,73,0
3,67,60,0
3,64,60,0
3,59,60,0
3,52,60,0
3,88,73,0
3,45,60,0
3,64,60,0
3,60,60,0
3,57,60,0
3,88,73,0
3,60,60,0
3,55,60,0
3,48,60,0
3,64,60,0
3,90,73,0
3,66,60,0
3,57,60,0
3,62,60,0
3,50,60,0
3,91,73,0
3,62,60,0
3,55,60,0
3,71,60,0
3,67,60,0
3,62,60,0
3,50,60,0
3,62,60,0
3,69,60,0
3,66,60,0
