track,note,velocity,time
1,62,100,1536
1,64,100,0
1,69,100,0
1,64,100,128
1,62,100,0
1,69,100,0
1,62,100,64
1,62,100,64
1,64,100,0
1,69,100,0
1,64,100,128
1,62,100,0
1,69,100,0
1,62,100,64
1,62,100,64
1,64,100,0
1,69,100,0
1,64,100,128
1,62,100,0
1,69,100,0
1,62,100,64
1,64,100,64
1,62,100,0
1,69,100,0
1,62,100,64
1,62,100,64
1,64,100,0
1,69,100,0
1,62,100,192
1,62,100,64
1,64,100,0
1,69,100,0
1,64,100,128
1,62,100,0
1,69,100,0
1,62,100,64
1,62,100,64
1,64,100,0
1,69,100,0
1,64,100,128
1,62,100,0
1,69,100,0
1,62,100,64
1,62,100,64
1,64,100,0
1,69,100,0
1,64,100,128
1,62,100,0
1,69,100,0
1,62,100,64
1,64,100,64
1,62,100,0
1,69,100,0
1,62,100,64
1,62,100,64
1,64,100,0
1,69,100,0
1,62,100,192
1,62,100,64
1,64,100,0
1,69,100,0
1,64,100,128
1,62,100,0
1,69,100,0
1,62,100,64
1,62,100,64
1,64,100,0
1,69,100,0
1,64,100,128
1,62,100,0
1,69,100,0
1,62,100,64
1,62,100,64
1,64,100,0
1,69,100,0
1,64,100,128
1,62,100,0
1,69,100,0
1,62,100,64
1,64,100,64
1,62,100,0
1,69,100,0
1,62,100,64
1,62,100,64
1,64,100,0
1,69,100,0
1,62,100,192
1,62,100,64
1,64,100,0
1,69,100,0
1,64,100,128
1,62,100,0
1,69,100,0
1,62,100,64
1,62,100,64
1,64,100,0
1,69,100,0
1,64,100,128
1,62,100,0
1,69,100,0
1,62,100,64
1,62,100,64
1,64,100,0
1,69,100,0
1,64,100,128
1,62,100,0
1,69,100,0
1,62,100,64
1,64,100,64
1,62,100,0
1,69,100,0
1,62,100,64
1,62,100,64
1,64,100,0
1,69,100,0
1,62,100,192
1,62,100,64
1,64,100,0
1,69,100,0
1,64,100,128
1,62,100,0
1,69,100,0
1,62,100,64
1,62,100,64
1,64,100,0
1,69,100,0
1,64,100,128
1,62,100,0
1,69,100,0
1,62,100,64
1,62,100,64
1,64,100,0
1,69,100,0
1,64,100,128
1,62,100,0
1,69,100,0
1,62,100,64
1,64,100,64
1,62,100,0
1,69,100,0
1,62,100,64
1,62,100,64
1,64,100,0
1,69,100,0
1,62,100,192
1,62,100,64
1,64,100,0
1,69,100,0
1,64,100,128
1,62,100,0
1,69,100,0
1,62,100,64
1,62,100,64
1,64,100,0
1,69,100,0
1,64,100,128
1,62,100,0
1,69,100,0
1,62,100,64
1,62,100,64
1,64,100,0
1,69,100,0
1,64,100,128
1,62,100,0
1,69,100,0
1,62,100,64
1,64,100,64
1,62,100,0
1,69,100,0
1,62,100,64
1,62,100,64
1,64,100,0
1,69,100,0
1,62,100,192
1,62,100,64
1,64,100,0
1,69,100,0
1,64,100,128
1,62,100,0
1,69,100,0
1,62,100,64
1,62,100,64
1,64,100,0
1,69,100,0
1,64,100,128
1,62,100,0
1,69,100,0
1,62,100,64
1,62,100,64
1,64,100,0
1,69,100,0
1,64,100,128
1,62,100,0
1,69,100,0
1,62,100,64
1,64,100,64
1,62,100,0
1,69,100,0
1,62,100,64
1,62,100,64
1,64,100,0
1,69,100,0
1,62,100,192
1,62,100,64
1,64,100,0
1,69,100,0
1,64,100,128
1,62,100,0
1,69,100,0
1,62,100,64
1,62,100,64
1,64,100,0
1,69,100,0
1,64,100,128
1,62,100,0
1,69,100,0
1,62,100,64
1,62,100,64
1,64,100,0
1,69,100,0
1,64,100,128
1,62,100,0
1,69,100,0
1,62,100,64
1,64,100,64
1,62,100,0
1,69,100,0
1,62,100,64
1,62,100,64
1,64,100,0
1,69,100,0
1,62,100,192
1,62,100,64
1,64,100,0
1,69,100,0
1,64,100,128
1,62,100,0
1,69,100,0
1,62,100,64
1,62,100,64
1,64,100,0
1,69,100,0
1,64,100,128
1,62,100,0
1,69,100,0
1,62,100,64
1,62,100,64
1,64,100,0
1,69,100,0
1,64,100,128
1,62,100,0
1,69,100,0
1,62,100,64
1,64,100,64
1,62,100,0
1,69,100,0
1,62,100,64
1,62,100,64
1,64,100,0
1,69,100,0
1,62,100,192
1,62,100,64
1,64,100,0
1,69,100,0
1,64,100,128
1,62,100,0
1,69,100,0
1,62,100,64
1,62,100,64
1,64,100,0
1,69,100,0
1,64,100,128
1,62,100,0
1,69,100,0
1,62,100,64
1,62,100,64
1,64,100,0
1,69,100,0
1,64,100,128
1,62,100,0
1,69,100,0
1,62,100,64
1,64,100,64
1,62,100,0
1,69,100,0
1,62,100,64
1,62,100,64
1,64,100,0
1,69,100,0
1,62,100,192
1,62,100,64
1,64,100,0
1,69,100,0
1,64,100,128
1,62,100,0
1,69,100,0
1,62,100,64
1,62,100,64
1,64,100,0
1,69,100,0
1,64,100,128
1,62,100,0
1,69,100,0
1,62,100,64
1,62,100,64
1,64,100,0
1,69,100,0
1,64,100,128
1,62,100,0
1,69,100,0
1,62,100,64
1,64,100,64
1,62,100,0
1,69,100,0
1,62,100,64
1,62,100,64
1,64,100,0
1,69,100,0
1,62,100,192
1,62,100,64
1,64,100,0
1,69,100,0
1,64,100,128
1,62,100,0
1,69,100,0
1,62,100,64
1,62,100,64
1,64,100,0
1,69,100,0
1,64,100,128
1,62,100,0
1,69,100,0
1,62,100,64
1,62,100,64
1,64,100,0
1,69,100,0
1,64,100,128
1,62,100,0
1,69,100,0
1,62,100,64
1,64,100,64
1,62,100,0
1,69,100,0
1,62,100,64
1,62,100,64
1,64,100,0
1,69,100,0
1,62,100,192
1,62,100,64
1,64,100,0
1,69,100,0
1,64,100,128
1,62,100,0
1,69,100,0
1,62,100,64
1,62,100,64
1,64,100,0
1,69,100,0
1,64,100,128
1,62,100,0
1,69,100,0
1,62,100,64
1,62,100,64
1,64,100,0
1,69,100,0
1,64,100,128
1,62,100,0
1,69,100,0
1,62,100,64
1,64,100,64
1,62,100,0
1,69,100,0
1,62,100,64
1,62,100,64
1,64,100,0
1,69,100,0
1,62,100,192
1,62,100,64
1,64,100,0
1,69,100,0
1,64,100,128
1,62,100,0
1,69,100,0
1,62,100,64
1,62,100,64
1,64,100,0
1,69,100,0
1,64,100,128
1,62,100,0
1,69,100,0
1,62,100,64
1,62,100,64
1,64,100,0
1,69,100,0
1,64,100,128
1,62,100,0
1,69,100,0
1,62,100,64
1,64,100,64
1,62,100,0
1,69,100,0
1,62,100,64
1,62,100,64
1,64,100,0
1,69,100,0
1,62,100,192
1,62,100,64
1,64,100,0
1,69,100,0
1,64,100,128
1,62,100,0
1,69,100,0
1,62,100,64
1,62,100,64
1,64,100,0
1,69,100,0
1,64,100,128
1,62,100,0
1,69,100,0
1,62,100,64
1,62,100,64
1,64,100,0
1,69,100,0
1,64,100,128
1,62,100,0
1,69,100,0
1,62,100,64
1,64,100,64
1,62,100,0
1,69,100,0
1,62,100,64
1,62,100,64
1,64,100,0
1,69,100,0
1,62,100,192
1,62,100,64
1,64,100,0
1,69,100,0
1,64,100,128
1,62,100,0
1,69,100,0
1,62,100,64
1,62,100,64
1,64,100,0
1,69,100,0
1,64,100,128
1,62,100,0
1,69,100,0
1,62,100,64
1,62,100,64
1,64,100,0
1,69,100,0
1,64,100,128
1,62,100,0
1,69,100,0
1,62,100,64
1,64,100,64
1,62,100,0
1,69,100,0
1,62,100,64
1,62,100,64
1,64,100,0
1,69,100,0
1,62,100,192
1,62,100,64
1,64,100,0
1,69,100,0
1,64,100,128
1,62,100,0
1,69,100,0
1,62,100,64
1,62,100,64
1,64,100,0
1,69,100,0
1,64,100,128
1,62,100,0
1,69,100,0
1,62,100,64
1,62,100,64
1,64,100,0
1,69,100,0
1,64,100,128
1,62,100,0
1,69,100,0
1,62,100,64
1,64,100,64
1,62,100,0
1,69,100,0
1,62,100,64
1,62,100,64
1,64,100,0
1,69,100,0
1,62,100,192
1,62,100,64
1,64,100,0
1,69,100,0
1,64,100,128
1,62,100,0
1,69,100,0
1,62,100,64
1,62,100,64
1,64,100,0
1,69,100,0
1,64,100,128
1,62,100,0
1,69,100,0
1,62,100,64
1,62,100,64
1,64,100,0
1,69,100,0
1,64,100,128
1,62,100,0
1,69,100,0
1,62,100,64
1,64,100,64
1,62,100,0
1,69,100,0
1,62,100,64
1,62,100,64
1,64,100,0
1,69,100,0
1,62,100,192
1,62,100,64
1,64,100,0
1,69,100,0
1,64,100,128
1,62,100,0
1,69,100,0
1,62,100,64
1,62,100,64
1,64,100,0
1,69,100,0
1,64,100,128
1,62,100,0
1,69,100,0
1,62,100,64
1,62,100,64
1,64,100,0
1,69,100,0
1,64,100,128
1,62,100,0
1,69,100,0
1,62,100,64
1,64,100,64
1,62,100,0
1,69,100,0
1,62,100,64
1,62,100,64
1,64,100,0
1,69,100,0
1,62,100,192
1,62,100,64
1,64,100,0
1,69,100,0
1,64,100,128
1,62,100,0
1,69,100,0
1,62,100,64
1,62,100,64
1,64,100,0
1,69,100,0
1,64,100,128
1,62,100,0
1,69,100,0
1,62,100,64
1,62,100,64
1,64,100,0
1,69,100,0
1,64,100,128
1,62,100,0
1,69,100,0
1,62,100,64
1,64,100,64
1,62,100,0
1,69,100,0
1,62,100,64
1,62,100,64
1,64,100,0
1,69,100,0
1,62,100,192
1,62,100,64
1,64,100,0
1,69,100,0
1,64,100,128
1,62,100,0
1,69,100,0
1,62,100,64
1,62,100,64
1,64,100,0
1,69,100,0
1,64,100,128
1,62,100,0
1,69,100,0
1,62,100,64
1,62,100,64
1,64,100,0
1,69,100,0
1,64,100,128
1,62,100,0
1,69,100,0
1,62,100,64
1,64,100,64
1,62,100,0
1,69,100,0
1,62,100,64
1,62,100,64
1,64,100,0
1,69,100,0
1,62,100,192
1,62,100,64
1,64,100,0
1,69,100,0
1,64,100,128
1,62,100,0
1,69,100,0
1,62,100,64
1,62,100,64
1,64,100,0
1,69,100,0
1,64,100,128
1,62,100,0
1,69,100,0
1,62,100,64
1,62,100,64
1,64,100,0
1,69,100,0
1,64,100,128
1,62,100,0
1,69,100,0
1,62,100,64
1,64,100,64
1,62,100,0
1,69,100,0
1,62,100,64
1,62,100,64
1,64,100,0
1,69,100,0
1,62,100,192
1,62,100,64
1,64,100,0
1,69,100,0
1,64,100,128
1,62,100,0
1,69,100,0
1,62,100,64
1,62,100,64
1,64,100,0
1,69,100,0
1,64,100,128
1,62,100,0
1,69,100,0
1,62,100,64
1,62,100,64
1,64,100,0
1,69,100,0
1,64,100,128
1,62,100,0
1,69,100,0
1,62,100,64
1,64,100,64
1,62,100,0
1,69,100,0
1,62,100,64
1,62,100,64
1,64,100,0
1,69,100,0
1,62,100,192
1,62,100,64
1,64,100,0
1,69,100,0
1,64,100,128
1,62,100,0
1,69,100,0
1,62,100,64
1,62,100,64
1,64,100,0
1,69,100,0
1,64,100,128
1,62,100,0
1,69,100,0
1,62,100,64
1,62,100,64
1,64,100,0
1,69,100,0
1,64,100,128
1,62,100,0
1,69,100,0
1,62,100,64
1,64,100,64
1,62,100,0
1,69,100,0
1,62,100,64
1,62,100,64
1,64,100,0
1,69,100,0
1,62,100,192
1,62,100,64
1,64,100,0
1,69,100,0
1,64,100,128
1,62,100,0
1,69,100,0
1,62,100,64
1,62,100,64
1,64,100,0
1,69,100,0
1,64,100,128
1,62,100,0
1,69,100,0
1,62,100,64
1,62,100,64
1,64,100,0
1,69,100,0
1,64,100,128
1,62,100,0
1,69,100,0
1,62,100,64
1,64,100,64
1,62,100,0
1,69,100,0
1,62,100,64
1,62,100,64
1,64,100,0
1,69,100,0
1,62,100,192
1,62,100,64
1,64,100,0
1,69,100,0
1,64,100,128
1,62,100,0
1,69,100,0
1,62,100,64
1,62,100,64
1,64,100,0
1,69,100,0
1,64,100,128
1,62,100,0
1,69,100,0
1,62,100,64
1,62,100,64
1,64,100,0
1,69,100,0
1,64,100,128
1,62,100,0
1,69,100,0
1,62,100,64
1,64,100,64
1,62,100,0
1,69,100,0
1,62,100,64
1,62,100,64
1,64,100,0
1,69,100,0
1,62,100,192
1,62,100,64
1,64,100,0
1,69,100,0
1,64,100,128
1,62,100,0
1,69,100,0
1,62,100,64
1,62,100,64
1,64,100,0
1,69,100,0
1,64,100,128
1,62,100,0
1,69,100,0
1,62,100,64
1,62,100,64
1,64,100,0
1,69,100,0
1,64,100,128
1,62,100,0
1,69,100,0
1,62,100,64
1,64,100,64
1,62,100,0
1,69,100,0
1,62,100,64
1,62,100,64
1,64,100,0
1,69,100,0
1,62,100,192
1,62,100,64
1,64,100,0
1,69,100,0
1,64,100,128
1,62,100,0
1,69,100,0
1,62,100,64
1,62,100,64
1,64,100,0
1,69,100,0
1,64,100,128
1,62,100,0
1,69,100,0
1,62,100,64
1,62,100,64
1,64,100,0
1,69,100,0
1,64,100,128
1,62,100,0
1,69,100,0
1,62,100,64
1,64,100,64
1,62,100,0
1,69,100,0
1,62,100,64
1,62,100,64
1,64,100,0
1,69,100,0
1,62,100,192
1,74,100,64
1,69,100,96
1,76,100,32
1,69,100,96
1,81,100,32
1,69,100,96
1,74,100,32
1,69,100,96
1,76,100,32
1,69,100,96
1,81,100,32
1,69,100,96
1,74,100,32
1,69,100,96
1,76,100,32
1,69,100,96
1,74,100,32
1,69,100,96
1,76,100,32
1,69,100,96
1,81,100,32
1,69,100,96
1,74,100,32
1,69,100,96
1,76,100,32
1,69,100,96
1,81,100,32
1,69,100,96
1,74,100,32
1,69,100,96
1,76,100,32
1,69,100,96
1,74,100,32
1,69,100,96
1,76,100,32
1,69,100,96
1,81,100,32
1,69,100,96
1,74,100,32
1,69,100,96
1,76,100,32
1,69,100,96
1,81,100,32
1,69,100,96
1,74,100,32
1,69,100,96
1,76,100,32
1,69,100,96
1,74,100,32
1,69,100,96
1,76,100,32
1,69,100,96
1,81,100,32
1,69,100,96
1,74,100,32
1,69,100,96
1,76,100,32
1,69,100,96
1,81,100,32
1,69,100,96
1,74,100,32
1,69,100,96
1,76,100,32
1,69,100,96
1,74,100,32
1,69,100,96
1,76,100,32
1,69,100,96
1,81,100,32
1,69,100,96
1,74,100,32
1,69,100,96
1,76,100,32
1,69,100,96
1,81,100,32
1,69,100,96
1,74,100,32
1,69,100,96
1,76,100,32
1,69,100,96
1,74,100,32
1,69,100,96
1,76,100,32
1,69,100,96
1,81,100,32
1,69,100,96
1,74,100,32
1,69,100,96
1,76,100,32
1,69,100,96
1,81,100,32
1,69,100,96
1,74,100,32
1,69,100,96
1,76,100,32
1,69,100,96
1,74,100,32
1,69,100,96
1,76,100,32
1,69,100,96
1,81,100,32
1,69,100,96
1,74,100,32
1,69,100,96
1,76,100,32
1,69,100,96
1,81,100,32
1,69,100,96
1,74,100,32
1,69,100,96
1,76,100,32
1,69,100,96
1,74,100,32
1,69,100,96
1,76,100,32
1,69,100,96
1,81,100,32
1,69,100,96
1,74,100,32
1,69,100,96
1,76,100,32
1,69,100,96
1,81,100,32
1,69,100,96
1,74,100,32
1,69,100,96
1,76,100,32
1,69,100,96
1,62,100,32
1,64,100,0
1,69,100,0
1,64,100,128
1,62,100,0
1,69,100,0
1,62,100,64
1,62,100,64
1,64,100,0
1,69,100,0
1,64,100,128
1,62,100,0
1,69,100,0
1,62,100,64
1,62,100,64
1,64,100,0
1,69,100,0
1,64,100,128
1,62,100,0
1,69,100,0
1,62,100,64
1,64,100,64
1,62,100,0
1,69,100,0
1,62,100,64
1,62,100,64
1,64,100,0
1,69,100,0
1,62,100,192
1,62,100,64
1,64,100,0
1,69,100,0
1,64,100,128
1,62,100,0
1,69,100,0
1,62,100,64
1,62,100,64
1,64,100,0
1,69,100,0
1,64,100,128
1,62,100,0
1,69,100,0
1,62,100,64
1,62,100,64
1,64,100,0
1,69,100,0
1,64,100,128
1,62,100,0
1,69,100,0
1,62,100,64
1,64,100,64
1,62,100,0
1,69,100,0
1,62,100,64
1,62,100,64
1,64,100,0
1,69,100,0
1,62,100,192
1,62,100,64
1,64,100,0
