track,note,velocity,time
1,36,127,12288
1,40,127,288
1,36,127,100
1,36,127,316
1,40,127,132
1,36,118,140
1,36,127,132
1,40,127,324
1,36,127,132
1,36,127,320
1,40,127,132
1,36,121,116
1,36,127,124
1,40,127,288
1,36,127,100
1,36,127,316
1,40,127,132
1,36,123,140
1,36,127,124
1,40,127,324
1,36,127,132
1,36,127,320
1,40,127,132
1,36,119,116
1,36,127,124
1,40,127,288
1,36,127,100
1,36,127,316
1,40,127,132
1,36,119,140
1,36,127,128
1,40,127,324
1,36,127,132
1,36,127,320
1,40,127,132
1,36,119,116
1,36,127,128
1,40,127,288
1,36,127,100
1,36,127,316
1,40,127,132
1,36,117,140
1,36,127,120
1,40,127,324
1,36,127,132
1,36,127,320
1,40,127,132
1,36,122,116
1,36,127,124
1,36,127,2976
1,36,127,2976
1,36,127,2976
1,36,127,1440
1,36,127,1476
1,40,127,288
1,36,127,100
1,36,127,316
1,40,127,132
1,36,118,140
1,36,127,132
1,40,127,324
1,36,127,132
1,36,127,320
1,40,127,132
1,36,121,116
1,36,127,124
1,40,127,288
1,36,127,100
1,36,127,316
1,40,127,132
1,36,123,140
1,36,127,124
1,40,127,324
1,36,127,132
1,36,127,320
1,40,127,132
1,36,119,116
1,36,127,124
1,40,127,288
1,36,127,100
1,36,127,316
1,40,127,132
1,36,119,140
1,36,127,128
1,40,127,324
1,36,127,132
1,36,127,320
1,40,127,132
1,36,119,116
1,36,127,128
1,40,127,288
1,36,127,100
1,36,127,316
1,40,127,132
1,36,117,140
1,36,127,120
1,40,127,324
1,36,127,132
1,36,127,320
1,40,127,132
1,36,122,116
1,36,127,6268
1,40,127,288
1,36,127,100
1,36,127,316
1,40,127,132
1,36,119,140
1,36,127,128
1,40,127,324
1,36,127,132
1,36,127,320
1,40,127,132
1,36,119,116
1,36,127,128
1,40,127,288
1,36,127,100
1,36,127,316
1,40,127,132
1,36,117,140
1,36,127,120
1,40,127,324
1,36,127,132
1,36,127,320
1,40,127,132
1,36,122,116
1,36,127,124
1,40,127,288
1,36,127,100
1,36,127,316
1,40,127,132
1,36,118,140
1,36,127,132
1,40,127,324
1,36,127,132
1,36,127,320
1,40,127,132
1,36,121,116
1,36,127,124
1,40,127,288
1,36,127,100
1,36,127,316
1,40,127,132
1,36,123,140
1,36,127,124
1,40,127,324
1,36,127,132
1,36,127,320
1,40,127,132
1,36,119,116
1,36,127,124
1,40,127,288
1,36,127,100
1,36,127,316
1,40,127,132
1,36,119,140
1,36,127,128
1,40,127,324
1,36,127,132
1,36,127,320
1,40,127,132
1,36,119,116
1,36,127,128
1,40,127,288
1,36,127,100
1,36,127,316
1,40,127,132
1,36,117,140
1,36,127,120
1,40,127,324
1,36,127,132
1,36,127,320
1,40,127,132
1,36,122,116
1,36,127,124
1,36,127,2976
1,36,127,45984
1,40,127,288
1,36,127,100
1,36,127,316
1,40,127,132
1,36,118,140
1,36,127,132
1,40,127,324
1,36,127,132
1,36,127,320
1,40,127,132
1,36,121,116
1,36,127,124
1,40,127,288
1,36,127,100
1,36,127,316
1,40,127,132
1,36,123,140
1,36,127,124
1,40,127,324
1,36,127,132
1,36,127,320
1,40,127,132
1,36,119,116
1,36,127,124
1,40,127,288
1,36,127,100
1,36,127,316
1,40,127,132
1,36,119,140
1,36,127,128
1,40,127,324
1,36,127,132
1,36,127,320
1,40,127,132
1,36,119,116
1,36,127,128
1,40,127,288
1,36,127,100
1,36,127,316
1,40,127,132
1,36,117,140
1,36,127,120
1,40,127,324
1,36,127,132
1,36,127,320
1,40,127,132
1,36,122,116
1,36,127,124
1,40,127,288
1,36,127,100
1,36,127,316
1,40,127,132
1,36,118,140
1,36,127,132
1,40,127,324
1,36,127,132
1,36,127,320
1,40,127,132
1,36,121,116
1,36,127,124
1,40,127,288
1,36,127,100
1,36,127,316
1,40,127,132
1,36,123,140
1,36,127,124
1,40,127,324
1,36,127,132
1,36,127,320
1,40,127,132
1,36,119,116
1,36,127,124
1,40,127,288
1,36,127,100
1,36,127,316
1,40,127,132
1,36,119,140
1,36,127,128
1,40,127,324
1,36,127,132
1,36,127,320
1,40,127,132
1,36,119,116
1,36,127,128
1,40,127,288
1,36,127,100
1,36,127,316
1,40,127,132
1,36,117,140
1,36,127,120
1,40,127,324
1,36,127,132
1,36,127,320
1,40,127,132
1,36,122,116
1,36,127,124
1,40,127,288
1,36,127,100
1,36,127,316
1,40,127,132
1,36,118,140
1,36,127,132
1,40,127,324
1,36,127,132
1,36,127,320
1,40,127,132
1,36,121,116
1,36,127,124
1,40,127,288
1,36,127,100
1,36,127,316
1,40,127,132
1,36,123,140
1,36,127,124
1,40,127,324
1,36,127,132
1,36,127,320
1,40,127,132
1,36,119,116
1,36,127,124
1,40,127,288
1,36,127,100
1,36,127,316
1,40,127,132
1,36,119,140
1,36,127,128
1,40,127,324
1,36,127,132
1,36,127,320
1,40,127,132
1,36,119,116
1,36,127,128
1,40,127,288
1,36,127,100
1,36,127,316
1,40,127,132
1,36,117,140
1,36,127,120
1,40,127,324
1,36,127,132
1,36,127,320
1,40,127,132
1,36,122,116
1,40,127,61948
1,40,127,676
1,40,127,716
1,40,127,708
1,40,127,692
1,40,127,676
1,40,127,716
1,40,127,708
1,40,127,692
1,40,127,676
1,40,127,716
1,40,127,708
1,40,127,692
1,40,127,676
1,40,127,716
1,40,127,708
1,36,127,308
1,40,127,288
1,36,127,100
1,36,127,316
1,40,127,132
1,36,118,140
1,36,127,132
1,40,127,324
1,36,127,132
1,36,127,320
1,40,127,132
1,36,121,116
1,36,127,124
1,40,127,288
1,36,127,100
1,36,127,316
1,40,127,132
1,36,123,140
1,36,127,124
1,40,127,324
1,36,127,132
1,36,127,320
1,40,127,132
1,36,119,116
1,36,127,124
1,40,127,288
1,36,127,100
1,36,127,316
1,40,127,132
1,36,119,140
1,36,127,128
1,40,127,324
1,36,127,132
1,36,127,320
1,40,127,132
1,36,119,116
1,36,127,128
1,40,127,288
1,36,127,100
1,36,127,316
1,40,127,132
1,36,117,140
1,36,127,120
1,40,127,324
1,36,127,132
1,36,127,320
1,40,127,132
1,36,122,116
1,36,127,124
1,40,127,288
1,36,127,100
1,36,127,316
1,40,127,132
1,36,118,140
1,36,127,132
1,40,127,324
1,36,127,132
1,36,127,320
1,40,127,132
1,36,121,116
1,36,127,124
1,40,127,288
1,36,127,100
1,36,127,316
1,40,127,132
1,36,123,140
1,36,127,124
1,40,127,324
1,36,127,132
1,36,127,320
1,40,127,132
1,36,119,116
1,36,127,124
1,40,127,288
1,36,127,100
1,36,127,316
1,40,127,132
1,36,119,140
1,36,127,128
1,40,127,324
1,36,127,132
1,36,127,320
1,40,127,132
1,36,119,116
1,36,127,128
1,40,127,288
1,36,127,100
1,36,127,316
1,40,127,132
1,36,117,140
1,36,127,120
1,40,127,324
1,36,127,132
1,36,127,320
1,40,127,132
1,36,122,116
1,36,127,124
1,40,127,288
1,36,127,100
1,36,127,316
1,40,127,132
1,36,118,140
1,36,127,132
1,40,127,324
1,36,127,132
1,36,127,320
1,40,127,132
1,36,121,116
1,36,127,124
1,40,127,288
1,36,127,100
1,36,127,316
1,40,127,132
1,36,123,140
1,36,127,124
1,40,127,324
1,36,127,132
1,36,127,320
1,40,127,132
1,36,119,116
1,36,127,124
1,40,127,288
1,36,127,100
1,36,127,316
1,40,127,132
1,36,119,140
1,36,127,128
1,40,127,324
1,36,127,132
1,36,127,320
1,40,127,132
1,36,119,116
1,36,127,128
1,40,127,288
1,36,127,100
1,36,127,316
1,40,127,132
1,36,117,140
1,36,127,120
1,40,127,324
1,36,127,132
1,36,127,320
1,40,127,132
1,36,122,116
2,48,100,11520
2,48,100,140
2,45,100,128
2,45,100,68
2,41,100,60
2,48,100,11672
2,48,100,140
2,45,100,128
2,45,100,68
2,41,100,60
2,48,100,11672
2,48,100,140
2,45,100,128
2,45,100,68
2,41,100,60
2,48,100,5528
2,48,100,140
2,45,100,128
2,45,100,68
2,41,100,60
2,48,100,5528
2,48,100,140
2,45,100,128
2,45,100,68
2,41,100,60
2,48,100,5528
2,48,100,140
2,45,100,128
2,45,100,68
2,41,100,60
2,48,100,30104
2,48,100,140
2,45,100,128
2,45,100,68
2,41,100,60
2,48,100,23960
2,48,100,140
2,45,100,128
2,45,100,68
2,41,100,60
2,48,100,11672
2,48,100,140
2,45,100,128
2,45,100,68
2,41,100,60
2,48,100,11672
2,48,100,140
2,45,100,128
2,45,100,68
2,41,100,60
2,48,100,11672
2,48,100,140
2,45,100,128
2,45,100,68
2,41,100,60
2,48,100,11672
2,48,100,140
2,45,100,128
2,45,100,68
2,41,100,60
2,48,100,23960
2,48,100,140
2,45,100,128
2,45,100,68
2,41,100,60
2,48,100,11672
2,48,100,140
2,45,100,128
2,45,100,68
2,41,100,60
2,48,100,11672
2,48,100,140
2,45,100,128
2,45,100,68
2,41,100,60
2,48,100,8600
2,48,100,140
2,45,100,128
2,45,100,68
2,41,100,60
2,48,100,2456
2,48,100,140
2,45,100,128
2,45,100,68
2,41,100,60
2,48,100,11672
2,48,100,140
2,45,100,128
2,45,100,68
2,41,100,60
2,48,100,11672
2,48,100,140
2,45,100,128
2,45,100,68
2,41,100,60
2,48,100,11672
2,48,100,140
2,45,100,128
2,45,100,68
2,41,100,60
2,48,100,5528
2,48,100,140
2,45,100,128
2,45,100,68
2,41,100,60
2,48,100,5528
2,48,100,140
2,45,100,128
2,45,100,68
2,41,100,60
2,48,100,5528
2,48,100,140
2,45,100,128
2,45,100,68
2,41,100,60
2,48,100,5528
2,48,100,140
2,45,100,128
2,45,100,68
2,41,100,60
3,46,100,0
3,44,100,148
3,82,100,0
3,82,100,176
3,82,100,132
3,46,100,124
3,82,100,4
3,44,100,192
3,46,100,112
3,82,100,0
3,44,100,156
3,82,100,112
3,82,100,200
3,82,100,200
3,46,100,16
3,44,100,148
3,82,100,0
3,82,100,176
3,82,100,132
3,46,100,124
3,82,100,4
3,44,100,192
3,46,100,112
3,82,100,0
3,44,100,156
3,82,100,112
3,82,100,200
3,82,100,200
3,46,100,16
3,44,100,148
3,82,100,0
3,82,100,176
3,82,100,132
3,46,100,124
3,82,100,4
3,44,100,192
3,46,100,112
3,82,100,0
3,44,100,156
3,82,100,112
3,82,100,200
3,82,100,200
3,46,100,16
3,44,100,148
3,82,100,0
3,82,100,176
3,82,100,132
3,46,100,124
3,82,100,4
3,44,100,192
3,46,100,112
3,82,100,0
3,44,100,156
3,82,100,112
3,82,100,200
3,82,100,200
3,46,100,16
3,44,100,148
3,82,100,0
3,82,100,176
3,82,100,132
3,46,100,124
3,82,100,4
3,44,100,192
3,46,100,112
3,82,100,0
3,44,100,156
3,82,100,112
3,82,100,200
3,82,100,200
3,46,100,16
3,44,100,148
3,82,100,0
3,82,100,176
3,82,100,132
3,46,100,124
3,82,100,4
3,44,100,192
3,46,100,112
3,82,100,0
3,44,100,156
3,82,100,112
3,82,100,200
3,82,100,200
3,46,100,16
3,44,100,148
3,82,100,0
3,82,100,176
3,82,100,132
3,46,100,124
3,82,100,4
3,44,100,192
3,46,100,112
3,82,100,0
3,44,100,156
3,82,100,112
3,82,100,200
3,82,100,200
3,46,100,16
3,44,100,148
3,82,100,0
3,82,100,176
3,82,100,132
3,46,100,124
3,82,100,4
3,44,100,192
3,46,100,112
3,82,100,0
3,44,100,156
3,82,100,112
3,82,100,200
3,82,100,200
3,46,100,12304
3,44,100,148
3,82,100,0
3,82,100,176
3,82,100,132
3,46,100,124
3,82,100,4
3,44,100,192
3,46,100,112
3,82,100,0
3,44,100,156
3,82,100,112
3,82,100,200
3,82,100,200
3,46,100,16
3,44,100,148
3,82,100,0
3,82,100,176
3,82,100,132
3,46,100,124
3,82,100,4
3,44,100,192
3,46,100,112
3,82,100,0
3,44,100,156
3,82,100,112
3,82,100,200
3,82,100,200
3,46,100,16
3,44,100,148
3,82,100,0
3,82,100,176
3,82,100,132
3,46,100,124
3,82,100,4
3,44,100,192
3,46,100,112
3,82,100,0
3,44,100,156
3,82,100,112
3,82,100,200
3,82,100,200
3,46,100,16
3,44,100,148
3,82,100,0
3,82,100,176
3,82,100,132
3,46,100,124
3,82,100,4
3,44,100,192
3,46,100,112
3,82,100,0
3,44,100,156
3,82,100,112
3,82,100,200
3,82,100,200
3,46,100,12304
3,44,100,148
3,82,100,0
3,82,100,176
3,82,100,132
3,46,100,124
3,82,100,4
3,44,100,192
3,46,100,112
3,82,100,0
3,44,100,156
3,82,100,112
3,82,100,200
3,82,100,200
3,46,100,16
3,44,100,148
3,82,100,0
3,82,100,176
3,82,100,132
3,46,100,124
3,82,100,4
3,44,100,192
3,46,100,112
3,82,100,0
3,44,100,156
3,82,100,112
3,82,100,200
3,82,100,200
3,46,100,16
3,44,100,148
3,82,100,0
3,82,100,176
3,82,100,132
3,46,100,124
3,82,100,4
3,44,100,192
3,46,100,112
3,82,100,0
3,44,100,156
3,82,100,112
3,82,100,200
3,82,100,200
3,46,100,16
3,44,100,148
3,82,100,0
3,82,100,176
3,82,100,132
3,46,100,124
3,82,100,4
3,44,100,192
3,46,100,112
3,82,100,0
3,44,100,156
3,82,100,112
3,82,100,200
3,82,100,200
3,46,100,16
3,44,100,148
3,82,100,0
3,82,100,176
3,82,100,132
3,46,100,124
3,82,100,4
3,44,100,192
3,46,100,112
3,82,100,0
3,44,100,156
3,82,100,112
3,82,100,200
3,82,100,200
3,46,100,16
3,44,100,148
3,82,100,0
3,82,100,176
3,82,100,132
3,46,100,124
3,82,100,4
3,44,100,192
3,46,100,112
3,82,100,0
3,44,100,156
3,82,100,112
3,82,100,200
3,82,100,200
3,46,100,16
3,44,100,148
3,82,100,0
3,82,100,176
3,82,100,132
3,46,100,124
3,82,100,4
3,44,100,192
3,46,100,112
3,82,100,0
3,44,100,156
3,82,100,112
3,82,100,200
3,82,100,200
3,46,100,16
3,44,100,148
3,82,100,0
3,82,100,176
3,82,100,132
3,46,100,124
3,82,100,4
3,44,100,192
3,46,100,112
3,82,100,0
3,44,100,156
3,82,100,112
3,82,100,200
3,82,100,200
3,46,100,16
3,44,100,148
3,82,100,0
3,82,100,176
3,82,100,132
3,46,100,124
3,82,100,4
3,44,100,192
3,46,100,112
3,82,100,0
3,44,100,156
3,82,100,112
3,82,100,200
3,82,100,200
3,46,100,16
3,44,100,148
3,82,100,0
3,82,100,176
3,82,100,132
3,46,100,124
3,82,100,4
3,44,100,192
3,46,100,112
3,82,100,0
3,44,100,156
3,82,100,112
3,82,100,200
3,82,100,200
3,46,100,16
3,44,100,148
3,82,100,0
3,82,100,176
3,82,100,132
3,46,100,124
3,82,100,4
3,44,100,192
3,46,100,112
3,82,100,0
3,44,100,156
3,82,100,112
3,82,100,200
3,82,100,200
3,46,100,16
3,44,100,148
3,82,100,0
3,82,100,176
3,82,100,132
3,46,100,124
3,82,100,4
3,44,100,192
3,46,100,112
3,82,100,0
3,44,100,156
3,82,100,112
3,82,100,200
3,82,100,200
3,46,100,16
3,44,100,148
3,82,100,0
3,82,100,176
3,82,100,132
3,46,100,124
3,82,100,4
3,44,100,192
3,46,100,112
3,82,100,0
3,44,100,156
3,82,100,112
3,82,100,200
3,82,100,200
3,46,100,16
3,44,100,148
3,82,100,0
3,82,100,176
3,82,100,132
3,46,100,124
3,82,100,4
3,44,100,192
3,46,100,112
3,82,100,0
3,44,100,156
3,82,100,112
3,82,100,200
3,82,100,200
3,46,100,16
3,44,100,148
3,82,100,0
3,82,100,176
3,82,100,132
3,46,100,124
3,82,100,4
3,44,100,192
3,46,100,112
3,82,100,0
3,44,100,156
3,82,100,112
3,82,100,200
3,82,100,200
3,46,100,16
3,44,100,148
3,82,100,0
3,82,100,176
3,82,100,132
3,46,100,124
3,82,100,4
3,44,100,192
3,46,100,112
3,82,100,0
3,44,100,156
3,82,100,112
3,82,100,200
3,82,100,200
3,46,100,16
3,44,100,148
3,82,100,0
3,82,100,176
3,82,100,132
3,46,100,124
3,82,100,4
3,44,100,192
3,46,100,112
