track,note,velocity,time
1,73,64,27648
1,72,64,0
1,70,64,0
1,68,64,288
1,73,64,0
1,73,64,0
1,72,64,0
1,72,64,0
1,70,64,0
1,73,64,768
1,72,64,0
1,70,64,0
1,68,64,0
1,68,64,288
1,73,64,0
1,73,64,0
1,75,64,0
1,80,64,0
1,77,64,0
1,73,64,480
1,75,64,0
1,77,64,0
1,78,64,0
1,77,64,0
1,75,64,0
1,73,64,0
1,73,64,960
1,73,64,0
1,72,64,0
1,70,64,0
1,68,64,288
1,73,64,0
1,73,64,0
1,72,64,0
1,72,64,0
1,70,64,0
1,73,64,768
1,72,64,0
1,70,64,0
1,68,64,0
1,68,64,288
1,73,64,0
1,73,64,0
1,75,64,0
1,80,64,0
1,77,64,0
1,73,64,480
1,75,64,0
1,77,64,0
1,78,64,0
1,77,64,0
1,75,64,0
1,73,64,0
1,80,64,0
1,80,64,0
1,78,64,0
1,78,64,0
1,77,64,0
1,75,64,0
1,80,64,0
1,77,64,0
1,82,64,96
1,79,64,0
1,81,64,0
1,73,64,384
1,77,64,0
1,80,64,0
1,85,64,0
1,80,64,0
1,82,64,0
1,80,64,0
1,78,64,0
1,71,64,768
1,75,64,0
1,78,64,0
1,78,64,0
1,83,64,0
1,80,64,0
1,79,64,672
1,80,64,0
1,79,64,0
1,80,64,0
1,82,64,0
1,80,64,0
1,77,64,288
1,78,64,0
1,77,64,0
1,78,64,0
1,80,64,0
1,78,64,0
1,82,64,384
1,82,64,0
1,82,64,0
1,82,64,0
1,82,64,0
1,82,64,0
1,78,64,0
1,80,64,0
1,78,64,0
1,77,64,0
1,77,64,12384
1,77,64,0
1,73,64,0
1,73,64,0
1,72,64,0
1,70,64,0
1,68,64,288
1,73,64,0
1,73,64,0
1,72,64,0
1,72,64,0
1,70,64,0
1,73,64,768
1,72,64,0
1,70,64,0
1,68,64,0
1,68,64,288
1,73,64,0
1,73,64,0
1,75,64,0
1,80,64,0
1,77,64,0
1,73,64,480
1,75,64,0
1,77,64,0
1,78,64,0
1,77,64,0
1,75,64,0
1,73,64,0
1,80,64,0
1,80,64,0
1,78,64,0
1,78,64,0
1,77,64,0
1,75,64,0
1,80,64,0
1,77,64,0
1,82,64,96
1,79,64,0
1,81,64,0
1,73,64,384
1,77,64,0
1,80,64,0
1,85,64,0
1,80,64,0
1,82,64,0
1,80,64,0
1,78,64,0
1,71,64,768
1,75,64,0
1,78,64,0
1,78,64,0
1,83,64,0
1,80,64,0
1,79,64,672
1,80,64,0
1,79,64,0
1,80,64,0
1,82,64,0
1,80,64,0
1,77,64,288
1,78,64,0
1,77,64,0
1,78,64,0
1,80,64,0
1,78,64,0
1,82,64,384
1,82,64,0
1,82,64,0
1,82,64,0
1,82,64,0
1,82,64,0
1,78,64,0
1,80,64,0
1,78,64,0
1,77,64,0
1,77,64,11520
1,77,64,0
1,78,64,768
1,78,64,0
1,82,64,0
1,82,64,0
1,78,64,0
1,78,64,288
1,83,64,0
1,82,64,0
1,78,64,0
1,80,64,0
1,78,64,0
1,71,64,288
1,80,64,0
1,80,64,0
1,82,64,0
1,83,64,0
1,82,64,0
1,85,64,0
1,89,64,0
1,77,64,3072
1,77,64,0
1,77,64,0
1,77,64,0
1,77,64,0
1,75,64,0
1,73,64,96
1,75,64,0
1,73,64,0
1,70,64,0
1,68,64,0
1,71,64,1152
1,71,64,0
1,73,64,0
1,73,64,0
1,75,64,0
1,73,64,0
1,76,64,1440
1,77,64,0
1,77,64,0
1,77,64,0
1,73,64,0
1,73,64,0
1,73,64,0
1,75,64,0
1,73,64,768
1,77,64,0
1,80,64,0
1,85,64,0
1,80,64,0
1,82,64,0
1,80,64,0
1,78,64,0
1,71,64,768
1,75,64,0
1,78,64,0
1,78,64,0
1,83,64,0
1,80,64,0
1,79,64,672
1,80,64,0
1,79,64,0
1,80,64,0
1,82,64,0
1,80,64,0
1,77,64,288
1,78,64,0
1,77,64,0
1,78,64,0
1,80,64,0
1,78,64,0
1,82,64,384
1,82,64,0
1,82,64,0
1,82,64,0
1,82,64,0
1,82,64,0
1,78,64,0
1,80,64,0
1,78,64,0
1,77,64,0
2,49,69,1536
2,49,69,0
2,49,69,0
2,49,69,0
2,49,69,0
2,61,69,0
2,46,69,0
2,49,69,0
2,46,69,0
2,49,69,0
2,47,69,0
2,47,69,0
2,47,69,0
2,47,69,0
2,46,69,0
2,58,69,0
2,46,69,0
2,46,69,0
2,44,69,0
2,46,69,0
2,49,69,0
2,49,69,0
2,49,69,0
2,49,69,0
2,49,69,0
2,61,69,0
2,46,69,0
2,49,69,0
2,46,69,0
2,49,69,0
2,47,69,0
2,47,69,0
2,47,69,0
2,47,69,0
2,46,69,0
2,58,69,0
2,46,69,0
2,46,69,0
2,44,69,0
2,46,69,0
2,49,69,0
2,49,69,0
2,49,69,0
2,49,69,0
2,49,69,0
2,61,69,0
2,46,69,0
2,49,69,0
2,46,69,0
2,49,69,0
2,47,69,0
2,47,69,0
2,47,69,0
2,47,69,0
2,46,69,0
2,58,69,0
2,46,69,0
2,46,69,0
2,44,69,0
2,46,69,0
2,49,69,0
2,49,69,0
2,49,69,0
2,49,69,0
2,49,69,0
2,61,69,0
2,46,69,0
2,49,69,0
2,46,69,0
2,49,69,0
2,47,69,0
2,47,69,0
2,47,69,0
2,47,69,0
2,46,69,0
2,58,69,0
2,46,69,0
2,46,69,0
2,58,69,0
2,48,52,96
2,48,69,0
2,48,69,96
2,48,69,0
2,49,69,384
2,49,69,0
2,49,69,0
2,49,69,0
2,61,69,0
2,49,69,0
2,49,69,0
2,44,69,0
2,46,69,0
2,42,69,0
2,42,69,0
2,42,69,0
2,42,69,0
2,54,69,0
2,42,69,0
2,42,69,0
2,44,69,0
2,46,69,0
2,47,69,0
2,47,69,0
2,47,69,0
2,47,69,0
2,59,69,0
2,47,69,0
2,47,69,0
2,47,69,0
2,51,69,0
2,49,69,0
2,49,69,0
2,49,69,0
2,49,69,0
2,61,69,0
2,49,69,0
2,49,69,0
2,46,69,0
2,49,69,0
2,49,69,0
2,49,69,0
2,49,69,0
2,61,69,0
2,49,69,0
2,49,69,0
2,44,69,0
2,46,69,0
2,42,69,0
2,42,69,0
2,42,69,0
2,42,69,0
2,54,69,0
2,42,69,0
2,42,69,0
2,44,69,0
2,46,69,0
2,47,69,0
2,47,69,0
2,47,69,0
2,47,69,0
2,59,69,0
2,47,69,0
2,47,69,0
2,47,69,0
2,51,69,0
2,49,69,0
2,49,69,0
2,49,69,0
2,49,69,0
2,61,69,0
2,49,69,0
2,49,69,0
2,46,69,0
2,49,69,0
2,49,69,0
2,44,69,0
2,44,69,0
2,46,69,0
2,46,69,0
2,42,69,0
2,41,69,0
2,42,69,0
2,49,69,0
2,51,69,0
2,49,69,0
2,49,69,0
2,44,69,0
2,44,69,0
2,42,69,0
2,42,69,0
2,44,69,0
2,44,69,0
2,49,69,0
2,61,69,0
2,49,69,96
2,49,69,0
2,42,69,0
2,42,69,0
2,42,69,0
2,42,69,0
2,42,69,0
2,42,69,0
2,49,69,0
2,51,69,0
2,51,69,0
2,63,69,0
2,51,69,0
2,51,69,0
2,44,69,0
2,42,69,0
2,44,69,0
2,49,69,0
2,51,69,0
2,49,69,0
2,49,69,0
2,44,69,0
2,44,69,0
2,46,69,0
2,46,69,0
2,42,69,0
2,41,69,0
2,42,69,0
2,49,69,0
2,51,69,0
2,49,69,0
2,49,69,0
2,44,69,0
2,44,69,0
2,42,69,0
2,42,69,0
2,44,69,0
2,44,69,0
2,49,69,0
2,61,69,0
2,49,69,96
2,49,69,0
2,42,69,0
2,42,69,0
2,42,69,0
2,42,69,0
2,42,69,0
2,42,69,0
2,44,69,0
2,44,69,0
2,44,69,0
2,44,69,0
2,44,69,0
2,41,69,0
2,46,69,0
2,46,69,0
2,46,69,0
2,46,69,0
2,58,69,0
2,60,69,0
2,51,69,0
2,51,69,0
2,51,69,480
2,53,69,0
2,49,69,0
2,49,69,0
2,49,69,0
2,49,69,0
2,61,69,0
2,49,69,0
2,49,69,0
2,44,69,0
2,46,69,0
2,42,69,0
2,42,69,0
2,42,69,0
2,42,69,0
2,54,69,0
2,42,69,0
2,42,69,0
2,44,69,0
2,46,69,0
2,47,69,0
2,47,69,0
2,47,69,0
2,47,69,0
2,59,69,0
2,47,69,0
2,47,69,0
2,47,69,0
2,51,69,0
2,49,69,0
2,49,69,0
2,49,69,0
2,49,69,0
2,61,69,0
2,49,69,0
2,49,69,0
2,44,69,0
2,46,69,0
2,49,69,0
2,49,69,0
2,49,69,0
2,49,69,0
2,61,69,0
2,49,69,0
2,49,69,0
2,44,69,0
2,46,69,0
2,47,69,0
2,47,69,0
2,47,69,0
2,47,69,0
2,59,69,0
2,47,69,0
2,47,69,0
2,44,69,0
2,42,69,0
2,44,69,0
2,46,69,0
2,49,69,0
2,51,69,0
2,54,69,0
2,47,69,192
2,49,69,0
2,49,69,0
2,49,69,0
2,49,69,0
2,61,69,0
2,49,69,0
2,49,69,0
2,44,69,0
2,46,69,0
2,49,69,0
2,49,69,0
2,49,69,0
2,49,69,0
2,61,69,0
2,49,69,0
2,49,69,0
2,44,69,0
2,46,69,0
2,42,69,0
2,42,69,0
2,42,69,0
2,42,69,0
2,54,69,0
2,42,69,0
2,42,69,0
2,44,69,0
2,46,69,0
2,47,69,0
2,47,69,0
2,47,69,0
2,47,69,0
2,59,69,0
2,47,69,0
2,47,69,0
2,47,69,0
2,51,69,0
2,49,69,0
2,49,69,0
2,49,69,0
2,49,69,0
2,61,69,0
2,49,69,0
2,49,69,0
2,44,69,0
2,46,69,0
2,49,69,0
2,49,69,0
2,49,69,0
2,49,69,0
2,61,69,0
2,49,69,0
2,49,69,0
2,44,69,0
2,46,69,0
2,42,69,0
2,42,69,0
2,42,69,0
2,42,69,0
2,54,69,0
2,42,69,0
2,42,69,0
2,44,69,0
2,46,69,0
2,47,69,0
2,47,69,0
2,47,69,0
2,47,69,0
2,59,69,0
2,47,69,0
2,47,69,0
2,47,69,0
2,51,69,0
2,49,69,0
2,49,69,0
2,49,69,0
2,49,69,0
2,61,69,0
2,49,69,0
2,49,69,0
2,46,69,0
2,49,69,0
2,49,69,0
2,44,69,0
2,44,69,0
2,46,69,0
2,46,69,0
2,42,69,0
2,41,69,0
2,42,69,0
2,49,69,0
2,51,69,0
2,49,69,0
2,49,69,0
2,44,69,0
2,44,69,0
2,42,69,0
2,42,69,0
2,44,69,0
2,44,69,0
2,49,69,0
2,61,69,0
2,49,69,96
2,49,69,0
2,42,69,0
2,42,69,0
2,42,69,0
2,42,69,0
2,42,69,0
2,42,69,0
2,44,69,0
2,44,69,0
2,44,69,0
2,44,69,0
2,44,69,0
2,41,69,0
2,46,69,0
2,46,69,0
2,46,69,0
2,46,69,0
2,58,69,0
2,60,69,0
2,51,69,0
2,51,69,0
2,51,69,480
2,53,69,0
2,49,69,0
2,49,69,0
2,49,69,0
2,49,69,0
2,61,69,0
2,49,69,0
2,49,69,0
2,44,69,0
2,46,69,0
2,42,69,0
2,42,69,0
2,42,69,0
2,42,69,0
2,54,69,0
2,42,69,0
2,42,69,0
2,44,69,0
2,46,69,0
2,47,69,0
2,47,69,0
2,47,69,0
2,47,69,0
2,59,69,0
2,47,69,0
2,47,69,0
2,47,69,0
2,51,69,0
2,49,69,0
2,49,69,0
2,49,69,0
2,49,69,0
2,61,69,0
2,49,69,0
2,49,69,0
2,44,69,0
2,46,69,0
2,49,69,0
2,49,69,0
2,49,69,0
2,49,69,0
2,61,69,0
2,49,69,0
2,49,69,0
2,44,69,0
2,46,69,0
2,47,69,0
2,47,69,0
2,47,69,0
2,47,69,0
2,59,69,0
2,47,69,0
2,47,69,0
2,44,69,0
2,42,69,0
2,44,69,0
2,46,69,0
2,49,69,0
2,51,69,0
2,54,69,0
2,47,69,192
2,49,69,0
2,49,69,0
2,49,69,0
2,49,69,0
2,61,69,0
2,49,69,0
2,49,69,0
2,44,69,0
2,46,69,0
2,49,69,0
2,49,69,0
2,49,69,0
2,49,69,0
2,61,69,0
2,49,69,0
2,49,69,0
2,44,69,0
2,46,69,0
2,42,69,0
2,42,69,0
2,42,69,0
2,42,69,0
2,54,69,0
2,42,69,0
2,42,69,0
2,44,69,0
2,46,69,0
2,47,69,0
2,47,69,0
2,47,69,0
2,47,69,0
2,59,69,0
2,47,69,0
2,47,69,0
2,47,69,0
2,51,69,0
2,49,69,0
2,49,69,0
2,49,69,0
2,49,69,0
2,61,69,0
2,49,69,0
2,49,69,0
2,44,69,0
2,46,69,0
2,49,69,0
2,49,69,0
2,49,69,0
2,49,69,0
2,61,69,0
2,49,69,0
2,49,69,0
2,44,69,0
2,46,69,0
2,42,69,0
2,42,69,0
2,42,69,0
2,42,69,0
2,54,69,0
2,42,69,0
2,42,69,0
2,44,69,0
2,46,69,0
2,47,69,0
2,47,69,0
2,47,69,0
2,47,69,0
2,59,69,0
2,47,69,0
2,47,69,0
2,47,69,0
2,51,69,0
2,49,69,0
2,49,69,0
2,49,69,0
2,49,69,0
2,61,69,0
2,49,69,0
2,49,69,0
2,42,69,0
2,42,69,0
2,42,69,0
2,42,69,0
2,42,69,0
2,46,69,0
2,47,69,0
2,47,69,96
2,47,69,0
2,49,69,0
2,47,69,0
2,47,69,0
2,49,69,0
2,52,69,0
2,47,69,0
2,49,69,0
2,51,69,0
2,47,69,0
2,42,69,0
2,49,69,0
2,42,69,0
2,42,69,0
2,49,69,0
2,49,69,0
2,49,69,0
2,49,69,0
2,49,69,0
2,61,69,0
2,46,69,0
2,49,69,0
2,46,69,0
2,49,69,0
2,47,69,0
2,47,69,0
2,47,69,0
2,47,69,0
2,46,69,0
2,58,69,0
2,46,69,0
2,46,69,0
2,44,69,0
2,46,69,0
2,49,69,0
2,49,69,0
2,49,69,0
2,49,69,0
2,49,69,0
2,61,69,0
2,46,69,0
2,49,69,0
2,46,69,0
2,49,69,0
2,47,69,0
2,47,69,0
2,47,69,0
2,47,69,0
2,46,69,0
2,58,69,0
2,46,69,0
2,46,69,0
2,44,69,0
2,46,69,0
2,49,69,0
2,49,69,0
2,49,69,0
2,49,69,0
2,49,69,0
2,61,69,0
2,46,69,0
2,49,69,0
2,46,69,0
2,49,69,0
2,47,69,0
2,47,69,0
2,47,69,0
2,47,69,0
2,46,69,0
2,58,69,0
2,46,69,0
2,46,69,0
2,44,69,0
2,46,69,0
2,49,69,0
2,49,69,0
2,49,69,0
2,49,69,0
2,49,69,0
2,61,69,0
2,46,69,0
2,49,69,0
2,46,69,0
2,49,69,0
2,47,69,0
2,47,69,0
2,47,69,0
2,47,69,0
2,46,69,0
2,58,69,0
2,46,69,0
2,46,69,0
2,46,69,0
2,48,69,0
2,48,69,0
2,48,69,96
2,48,69,0
2,49,69,384
2,49,69,0
2,49,69,0
2,49,69,0
2,61,69,0
2,49,69,0
2,49,69,0
2,44,69,0
2,46,69,0
2,42,69,0
2,42,69,0
2,42,69,0
2,42,69,0
2,54,69,0
2,42,69,0
2,42,69,0
2,44,69,0
2,46,69,0
2,47,69,0
2,47,69,0
2,47,69,0
2,47,69,0
2,59,69,0
2,47,69,0
2,47,69,0
2,47,69,0
2,51,69,0
2,49,69,0
2,49,69,0
2,49,69,0
2,49,69,0
2,61,69,0
2,49,69,0
2,49,69,0
2,44,69,0
2,46,69,0
2,49,69,0
2,49,69,0
2,49,69,0
2,49,69,0
2,61,69,0
2,49,69,0
2,49,69,0
2,44,69,0
2,47,69,0
2,47,69,0
2,47,69,0
2,47,69,0
2,47,69,0
2,59,69,0
2,47,69,0
2,47,69,0
2,44,69,0
2,42,69,0
2,44,69,0
2,46,69,0
2,49,69,0
2,51,69,0
2,54,69,0
2,47,69,192
2,49,69,0
2,49,69,0
2,49,69,0
2,49,69,0
2,61,69,0
2,49,69,0
2,49,69,0
2,44,69,0
2,46,69,0
3,65,64,1536
3,73,64,0
3,68,64,0
3,66,64,0
3,63,64,0
3,71,64,0
