track,note,velocity,time
0,31,99,2096
0,33,101,90
0,35,74,90
0,36,113,72
0,36,127,30
0,42,103,0
0,54,63,0
0,38,119,126
0,42,87,0
0,39,127,0
0,56,103,0
0,54,127,0
0,42,87,0
0,31,104,26
0,36,111,38
0,42,111,0
0,54,95,0
0,54,127,130
0,38,111,0
0,42,95,0
0,39,127,0
0,56,103,0
0,42,103,32
0,36,113,34
0,36,119,30
0,42,119,0
0,54,47,0
0,54,127,124
0,38,111,0
0,42,103,0
0,39,127,0
0,56,103,0
0,42,111,34
0,31,107,44
0,42,111,22
0,36,127,0
0,54,127,118
0,38,103,0
0,42,87,0
0,39,127,0
0,56,103,0
0,42,103,14
0,36,120,64
0,42,103,16
0,36,119,0
0,38,47,16
0,38,87,16
0,42,95,16
0,38,119,0
0,38,111,32
0,31,120,52
0,50,103,12
0,42,95,0
0,50,87,12
0,47,119,48
0,44,111,0
0,36,127,42
0,42,103,38
0,36,127,0
0,71,87,16
0,60,127,20
0,72,87,12
0,59,127,2
0,60,127,20
0,62,127,50
0,31,113,2
0,54,63,0
0,36,127,0
0,42,103,0
0,38,119,10
0,42,87,0
0,39,127,0
0,56,103,0
0,54,127,0
0,74,107,4
0,71,107,0
0,67,100,0
0,42,87,0
0,38,113,8
0,62,127,24
0,54,95,4
0,36,111,0
0,42,111,0
0,74,107,116
0,67,106,0
0,71,107,0
0,38,111,6
0,42,95,0
0,39,127,0
0,56,103,0
0,54,127,0
0,42,103,24
0,31,110,44
0,36,119,22
0,42,119,0
0,54,47,0
0,62,127,0
0,71,107,34
0,74,107,2
0,67,107,0
0,56,103,6
0,54,127,0
0,38,111,0
0,42,103,0
0,39,127,0
0,65,127,2
0,42,111,32
0,38,107,18
0,36,127,14
0,42,111,0
0,64,127,2
0,54,127,38
0,38,103,0
0,42,87,0
0,39,127,0
0,56,103,0
0,62,127,0
0,71,107,2
0,74,107,2
0,67,104,2
0,42,103,14
0,36,117,48
0,42,119,8
0,54,79,0
0,36,119,0
0,60,127,2
0,38,111,64
0,42,87,0
0,39,127,0
0,56,95,0
0,54,127,0
0,76,103,10
0,72,102,0
0,67,102,0
0,42,95,8
0,31,113,52
0,36,119,12
0,42,111,0
0,54,95,0
0,72,105,106
0,54,127,2
0,38,119,0
0,42,87,0
0,39,127,0
0,56,103,0
0,67,103,2
0,76,106,2
0,42,103,20
0,36,120,14
0,36,119,10
0,42,119,0
0,54,63,0
0,60,127,82
0,76,107,22
0,67,104,0
0,72,107,0
0,54,127,2
0,38,111,0
0,42,103,0
0,39,127,0
0,56,103,0
0,42,95,18
0,35,110,20
0,59,127,0
0,42,95,24
0,54,103,0
0,36,119,0
0,76,107,24
0,67,107,0
0,72,107,0
0,33,101,2
0,60,127,0
0,54,127,18
0,38,119,0
0,42,103,0
0,39,127,0
0,56,103,0
0,42,111,18
0,31,101,20
0,62,127,8
0,42,103,0
0,54,63,0
0,36,127,0
0,54,127,108
0,38,119,0
0,42,87,0
0,39,127,0
0,56,103,0
0,71,107,4
0,67,102,2
0,74,107,2
0,42,87,0
0,38,113,18
0,62,127,18
0,42,111,6
0,54,95,0
0,36,111,0
0,71,107,114
0,74,107,2
0,67,103,0
0,54,127,4
0,38,111,0
0,42,95,0
0,39,127,0
0,56,103,0
0,42,103,10
0,31,110,50
0,62,127,8
0,42,119,6
0,54,47,0
0,36,119,0
0,71,107,16
0,74,107,4
0,67,101,0
0,42,103,10
0,38,111,0
0,54,127,0
0,39,127,0
0,56,103,0
0,65,127,2
0,42,111,26
0,38,117,28
0,36,127,2
0,42,111,0
0,64,127,2
0,71,107,12
0,74,107,2
0,67,102,0
0,62,127,12
0,54,127,2
0,38,103,0
0,39,127,0
0,56,103,0
0,42,87,0
0,42,103,16
0,36,120,48
0,60,127,18
0,54,79,2
0,36,119,0
0,42,119,0
0,67,104,50
0,76,105,0
0,72,102,0
0,54,127,2
0,38,111,0
0,42,87,0
0,39,127,0
0,56,95,0
0,42,95,10
0,31,110,46
0,54,95,18
0,36,119,0
0,42,111,0
0,39,127,114
0,42,87,0
0,38,119,0
0,56,103,0
0,54,127,0
0,72,104,0
0,67,104,2
0,76,106,0
0,42,103,2
0,36,113,48
0,54,63,16
0,36,119,0
0,42,119,0
0,34,104,92
0,60,127,0
0,72,104,8
0,67,103,2
0,76,107,2
0,54,127,6
0,38,111,0
0,39,127,0
0,56,103,0
0,42,103,0
0,42,95,18
0,33,94,24
0,62,127,10
0,54,103,14
0,36,119,0
0,42,95,0
0,31,101,28
0,67,106,2
0,76,107,2
0,72,106,0
0,64,127,6
0,56,103,12
0,54,127,0
0,38,119,0
0,42,103,0
0,39,127,0
0,42,111,24
0,29,104,12
0,65,127,10
0,36,127,0
0,42,103,0
0,54,63,0
0,77,97,10
0,69,104,2
0,72,105,0
0,39,127,6
0,56,103,0
0,54,127,0
0,38,119,0
0,42,87,0
0,42,87,0
0,65,127,28
0,36,117,8
0,42,111,14
0,54,95,0
0,36,111,0
0,69,103,108
0,72,104,0
0,77,97,0
0,56,103,2
0,54,127,0
0,38,111,0
0,42,95,0
0,39,127,0
0,42,103,16
0,29,104,40
0,54,47,18
0,36,119,0
0,42,119,0
0,65,127,6
0,67,127,0
0,72,102,20
0,77,98,0
0,69,103,4
0,56,103,4
0,54,127,0
0,38,111,0
0,42,103,0
0,39,127,0
0,69,127,0
0,42,111,24
0,31,104,36
0,36,127,28
0,42,111,0
0,67,127,12
0,33,90,90
0,72,104,8
0,69,103,4
0,77,97,0
0,65,127,16
0,42,87,2
0,39,127,0
0,56,103,0
0,54,127,0
0,38,103,0
0,42,103,16
0,36,97,40
0,42,119,6
0,54,79,0
0,36,119,0
0,64,127,4
0,72,106,84
0,67,104,4
0,76,107,0
0,56,95,14
0,54,127,0
0,38,111,0
0,42,87,0
0,39,127,0
0,42,95,32
0,31,113,46
0,36,119,18
0,42,111,0
0,54,95,0
0,72,104,94
0,67,101,2
0,76,103,2
0,54,127,18
0,38,119,0
0,42,87,0
0,39,127,0
0,56,103,0
0,42,103,30
0,36,120,50
0,54,63,16
0,36,119,0
0,42,119,0
0,60,127,50
0,59,127,18
0,67,105,12
0,72,107,0
0,76,107,0
0,42,103,10
0,39,127,0
0,56,103,0
0,54,127,0
0,38,111,0
0,42,95,32
0,31,117,14
0,59,127,8
0,36,119,4
0,42,95,0
0,54,103,0
0,72,106,30
0,57,127,0
0,67,106,2
0,76,107,0
0,39,127,12
0,56,103,0
0,54,127,0
0,38,119,0
0,42,103,0
0,42,111,24
0,31,113,8
0,55,127,10
0,36,127,0
0,42,103,0
0,54,63,0
0,74,107,112
0,71,107,0
0,67,106,0
0,54,127,4
0,38,119,0
0,42,87,0
0,39,127,0
0,56,103,0
0,42,87,0
0,38,117,48
0,36,111,16
0,42,111,0
0,54,95,0
0,71,107,108
0,67,103,2
0,74,107,0
0,39,127,2
0,56,103,0
0,54,127,0
0,38,111,0
0,42,95,0
0,42,103,28
0,31,110,50
0,36,119,14
0,42,119,0
0,54,47,0
0,62,127,100
0,74,107,4
0,67,105,0
0,71,107,0
0,39,127,6
0,56,103,0
0,54,127,0
0,38,111,0
0,42,103,0
0,42,111,28
0,38,117,26
0,36,127,10
0,42,111,0
0,60,127,4
0,71,107,80
0,74,106,4
0,67,98,2
0,56,103,20
0,54,127,0
0,38,103,0
0,42,87,0
0,39,127,0
0,59,127,8
0,42,103,12
0,36,123,28
0,36,119,6
0,42,119,0
0,54,79,0
0,60,127,22
0,72,104,100
0,39,127,2
0,56,95,0
0,54,127,0
0,38,111,0
0,42,87,0
0,67,104,2
0,76,106,0
0,42,95,18
0,31,110,50
0,42,111,14
0,54,95,0
0,36,119,0
0,56,103,108
0,54,127,0
0,38,119,0
0,42,87,0
0,39,127,0
0,76,105,0
0,72,104,0
0,67,106,0
0,42,103,30
0,36,113,64
0,54,63,2
0,36,119,0
0,42,119,0
0,67,106,92
0,72,106,2
0,76,106,0
0,56,103,4
0,54,127,0
0,38,111,0
0,42,103,0
0,39,127,0
0,42,95,32
0,31,110,34
0,54,103,14
0,36,119,0
0,42,95,0
0,76,106,96
0,67,104,2
0,72,104,0
0,42,103,12
0,39,127,0
0,56,103,0
0,54,127,0
0,38,119,0
0,42,111,40
0,36,117,16
0,42,103,0
0,54,63,0
0,36,127,0
0,76,106,106
0,67,104,0
0,72,104,0
0,56,103,6
0,54,127,0
0,38,119,0
0,42,87,0
0,39,127,0
0,42,87,0
0,31,113,46
0,36,111,18
0,42,111,0
0,54,95,0
0,67,102,108
0,76,104,4
0,54,127,2
0,38,111,0
0,42,95,0
0,39,127,0
0,56,103,0
0,72,104,0
0,42,103,26
0,36,110,40
0,54,47,24
0,36,119,0
0,42,119,0
0,36,120,110
0,76,105,2
0,72,102,0
0,67,102,0
0,42,103,8
0,39,127,0
0,56,103,0
0,54,127,0
0,38,111,0
0,42,111,10
0,38,92,38
0,42,111,26
0,36,127,0
0,40,94,104
0,76,105,6
0,67,102,2
0,72,101,0
0,39,127,10
0,56,103,0
0,54,127,0
0,38,103,0
0,42,87,0
0,42,103,16
0,41,92,58
0,36,119,24
0,42,119,0
0,54,79,0
0,72,103,114
0,77,103,0
0,69,103,0
0,54,127,4
0,38,111,0
0,42,87,0
0,39,127,0
0,56,95,0
0,42,95,30
0,36,104,30
0,42,111,34
0,54,95,2
0,36,119,0
0,69,103,120
0,77,106,0
0,72,102,0
0,39,127,10
0,56,103,0
0,54,127,0
0,38,119,0
0,42,87,0
0,42,103,32
0,41,101,40
0,36,119,24
0,42,119,0
0,54,63,0
0,69,99,104
0,77,105,0
0,72,99,0
0,39,127,16
0,56,103,0
0,54,127,0
0,38,111,0
0,42,103,0
0,42,95,32
0,36,110,16
0,54,103,32
0,36,119,0
0,42,95,0
0,72,102,110
0,77,104,4
0,69,102,0
0,56,103,14
0,54,127,0
0,38,119,0
0,42,103,0
0,39,127,0
0,42,111,42
0,41,97,60
0,36,119,32
0,42,103,0
0,38,47,16
0,38,87,16
0,72,99,20
0,77,101,2
0,69,101,2
0,42,95,16
0,38,119,0
0,38,111,32
0,36,117,16
0,42,95,48
0,50,103,0
0,50,87,32
0,72,102,4
0,69,104,2
0,77,104,0
0,44,111,42
0,47,119,0
0,41,104,44
0,72,106,4
0,77,106,2
0,69,106,0
0,36,127,30
0,42,103,0
0,71,87,16
0,65,127,8
0,64,127,14
0,72,87,10
0,65,127,20
0,67,127,16
0,36,117,16
0,48,117,0
0,36,127,0
0,42,103,0
0,54,63,0
0,67,102,2
0,70,105,0
0,76,106,0
0,56,103,8
0,54,127,0
0,38,119,0
0,42,87,0
0,39,127,0
0,42,87,0
0,67,127,32
0,31,110,6
0,43,110,0
0,36,111,10
0,42,111,0
0,54,95,0
0,76,105,102
0,67,101,2
0,70,104,0
0,54,127,2
0,38,111,0
0,42,95,0
0,39,127,0
0,56,103,0
0,42,103,26
0,36,110,36
0,48,110,0
0,67,127,16
0,54,47,12
0,36,119,0
0,42,119,0
0,70,127,44
0,76,102,4
0,70,101,0
0,67,100,4
0,42,103,2
0,39,127,0
0,56,103,0
0,54,127,0
0,38,111,0
0,42,111,30
0,31,110,20
0,43,110,0
0,69,127,14
0,42,111,10
0,36,127,0
0,76,104,38
0,67,127,0
0,70,106,2
0,67,102,0
0,39,127,10
0,56,103,0
0,54,127,0
0,38,103,0
0,42,87,0
0,42,103,16
0,65,127,58
0,41,110,8
0,53,110,0
0,36,119,2
0,42,119,0
0,54,79,0
0,77,105,72
0,69,105,0
0,72,102,0
0,54,127,4
0,38,111,0
0,42,87,0
0,39,127,0
0,56,95,0
0,42,95,28
0,36,107,50
0,48,107,0
0,36,119,14
0,42,111,0
0,54,95,0
0,69,104,98
0,77,106,2
0,72,102,0
0,39,127,10
0,56,103,0
0,54,127,0
0,38,119,0
0,42,87,0
0,42,103,30
0,41,110,12
0,53,110,0
0,36,119,12
0,42,119,0
0,54,63,0
0,65,127,70
0,77,106,18
0,69,104,0
0,72,102,0
0,39,127,20
0,56,103,0
0,54,127,0
0,38,111,0
0,42,103,0
0,42,95,34
0,64,127,12
0,36,101,26
0,48,101,0
0,54,103,12
0,36,119,0
0,42,95,0
0,65,127,26
0,72,105,10
0,69,104,2
0,77,105,2
0,56,103,18
0,54,127,0
0,38,119,0
0,42,103,0
0,39,127,0
0,42,111,44
0,67,127,14
0,36,107,8
0,48,107,0
0,36,127,0
0,42,103,0
0,54,63,0
0,76,98,102
0,70,100,0
0,67,102,0
0,39,127,4
0,56,103,0
0,54,127,0
0,38,119,0
0,42,87,0
0,42,87,0
0,67,127,36
0,31,104,10
0,43,104,0
0,42,111,8
0,54,95,0
0,36,111,0
0,76,106,98
0,70,101,0
0,67,103,4
0,56,103,2
0,54,127,0
0,38,111,0
0,42,95,0
0,39,127,0
0,42,103,4
0,36,107,46
0,48,107,0
0,67,127,0
0,54,47,18
0,36,119,0
0,42,119,0
0,70,127,32
0,56,103,10
0,54,127,0
0,38,111,0
0,42,103,0
0,39,127,0
0,76,107,8
0,70,103,0
0,67,103,4
0,42,111,16
0,31,107,20
0,43,107,0
0,69,127,12
0,36,127,10
0,42,111,0
0,67,127,26
0,76,105,4
0,67,102,0
0,70,103,0
0,42,87,10
0,39,127,0
0,56,103,0
0,54,127,0
0,38,103,0
0,42,103,16
0,65,127,66
0,41,113,2
0,53,113,0
0,42,119,12
0,54,79,0
0,36,119,0
0,69,105,56
0,72,103,0
0,77,107,0
0,56,95,8
0,54,127,0
0,38,111,0
0,42,87,0
0,39,127,0
0,42,95,24
0,36,113,46
0,48,113,0
0,36,119,18
0,42,111,0
0,54,95,0
0,72,102,104
0,77,105,4
0,69,102,0
0,54,127,6
0,38,119,0
0,42,87,0
0,39,127,0
0,56,103,0
0,42,103,26
0,41,113,56
0,53,113,0
0,54,63,8
0,36,119,0
0,42,119,0
0,65,127,72
0,39,114,12
0,51,114,0
0,77,106,12
0,69,104,0
0,72,107,0
0,42,103,8
0,39,127,0
0,56,103,0
0,54,127,0
0,38,111,0
0,42,95,20
0,67,127,22
0,38,99,2
0,50,99,0
0,36,119,24
0,42,95,0
0,54,103,0
0,69,127,38
0,36,101,8
0,48,101,0
0,72,105,6
0,69,107,0
0,77,107,0
0,39,127,12
0,56,103,0
0,54,127,0
0,38,119,0
0,42,103,0
0,42,111,18
0,70,127,10
0,34,119,14
0,46,119,0
0,36,127,0
0,42,103,0
0,54,63,0
0,54,127,4
0,38,119,0
0,42,87,0
0,39,127,0
0,56,103,0
0,70,107,10
0,74,107,2
0,77,96,0
0,42,87,0
0,70,127,28
0,29,104,12
0,41,104,0
0,36,111,22
0,42,111,0
0,54,95,0
0,70,103,114
0,39,127,4
0,56,103,0
0,54,127,0
0,38,111,0
0,42,95,0
0,74,105,2
0,77,95,0
0,42,103,8
0,34,119,32
0,46,119,0
0,70,127,26
0,36,119,6
0,42,119,0
0,54,47,0
0,72,127,0
0,74,105,32
0,77,94,0
0,70,106,0
0,39,127,8
0,56,103,0
0,54,127,0
0,38,111,0
0,42,103,0
0,74,127,4
0,42,111,18
0,29,104,50
0,41,104,0
0,36,127,14
0,42,111,0
0,72,127,0
0,70,107,24
0,77,94,4
0,70,127,0
0,74,107,2
0,56,103,12
0,54,127,0
0,38,103,0
0,42,87,0
0,39,127,0
0,42,103,14
0,69,127,50
0,41,97,4
0,53,97,0
0,36,119,6
0,42,119,0
0,54,79,0
0,77,107,92
0,69,102,0
0,72,101,2
0,39,127,8
0,56,95,0
0,54,127,0
0,38,111,0
0,42,87,0
0,42,95,28
0,36,104,44
0,48,104,0
0,42,111,22
0,54,95,0
0,36,119,0
0,77,104,100
0,69,102,0
0,72,102,0
0,56,103,18
0,54,127,0
0,38,119,0
0,42,87,0
0,39,127,0
0,42,103,32
0,41,86,46
0,53,86,0
0,54,63,18
0,36,119,0
0,42,119,0
0,65,127,46
0,64,127,18
0,77,105,4
0,69,102,0
0,72,102,0
