track,note,velocity,time
1,41,87,990
1,43,85,66
1,45,88,56
1,46,87,50
1,41,86,2
1,46,89,6
1,46,91,68
1,48,93,20
1,50,92,6
1,51,90,10
1,46,88,2
1,51,89,14
1,51,88,18
1,50,89,14
1,48,89,12
1,46,89,6
1,53,86,2
1,46,88,12
1,46,89,34
1,45,87,22
1,43,87,32
1,41,87,2
1,48,90,12
1,48,88,12
1,41,84,4
1,43,86,22
1,41,88,2
1,48,89,10
1,43,86,12
1,48,86,2
1,46,84,4
1,45,85,4
1,43,84,4
1,41,84,12
1,48,84,2
1,41,82,12
1,48,82,2
1,41,84,2
1,48,84,4
1,41,82,2
1,48,82,4
1,41,84,4
1,48,84,2
1,41,82,12
1,48,82,2
1,41,84,6
1,48,84,10
1,41,82,2
1,48,80,4
1,41,84,6
1,48,81,6
1,48,82,2
1,43,82,8
1,48,84,2
1,43,84,6
1,41,82,2
1,48,79,2
1,41,84,2
1,48,76,4
1,48,82,8
1,43,82,4
1,48,84,2
1,43,84,8
1,41,82,2
1,48,79,12
1,41,84,4
1,41,81,2
1,43,83,8
1,45,79,2
1,46,82,8
1,41,82,2
1,46,84,6
1,53,84,2
1,41,82,2
1,48,82,2
1,41,84,12
1,48,84,2
1,48,82,2
1,43,82,4
1,48,79,2
1,43,84,2
1,41,82,12
1,48,82,2
1,41,84,4
1,41,83,2
1,43,84,14
1,45,80,2
1,46,82,8
1,41,82,2
1,46,84,2
1,41,84,2
1,46,82,2
1,41,82,2
1,46,84,6
1,41,84,2
1,46,82,10
1,41,82,2
1,46,82,2
1,41,82,8
1,46,82,2
1,41,82,8
1,46,82,2
1,41,82,4
1,41,82,2
1,48,82,2
1,41,84,2
1,48,84,14
1,46,82,2
1,41,79,6
1,46,84,2
1,41,76,8
1,41,82,6
1,48,82,2
1,41,84,6
1,48,84,2
1,46,82,4
1,41,79,8
1,46,84,2
1,46,81,2
1,48,83,2
1,50,79,2
1,51,82,10
1,46,82,2
1,51,84,12
1,46,84,2
1,53,82,2
1,46,82,4
1,53,84,10
1,45,84,2
1,43,84,2
1,41,82,6
1,48,82,2
1,41,79,2
1,48,84,2
1,46,82,12
1,41,82,2
1,46,84,2
1,46,83,2
1,48,84,6
1,50,80,2
1,51,82,8
1,46,82,2
1,51,84,2
1,46,84,10
1,51,82,2
1,46,82,2
1,51,84,4
1,46,84,4
1,51,82,10
1,46,82,2
1,51,84,4
1,46,84,2
1,51,82,4
1,46,82,6
1,51,84,6
1,46,84,2
1,46,82,2
1,53,82,8
1,46,84,4
1,53,84,2
1,51,82,2
1,46,79,10
1,51,84,2
1,46,76,2
1,46,82,8
1,53,82,6
1,46,84,2
1,53,84,2
1,51,82,2
1,46,79,2
1,51,84,10
1,46,83,2
1,44,82,2
1,39,82,4
1,44,84,10
1,48,84,4
1,51,82,2
1,46,82,2
1,51,84,12
1,50,84,2
1,48,79,2
1,46,82,4
1,53,82,2
1,46,79,6
1,53,84,2
1,51,82,6
1,46,82,8
1,51,84,2
1,46,83,6
1,50,84,2
1,48,80,2
1,46,82,12
1,53,82,4
1,46,84,2
1,53,84,14
1,46,82,2
1,53,82,2
1,46,84,2
1,53,84,10
1,46,82,2
1,53,82,8
1,46,82,2
1,53,82,2
1,46,82,6
1,53,82,6
1,46,82,2
1,53,82,6
1,41,82,2
1,48,82,6
1,41,84,2
1,48,84,10
1,46,82,2
1,53,79,2
1,46,84,4
1,53,76,10
1,41,82,4
1,48,82,2
1,41,84,2
1,48,84,2
1,46,82,10
1,53,79,2
1,46,84,12
1,46,81,2
1,48,83,6
1,50,79,2
1,51,82,2
1,46,82,2
1,51,84,12
1,46,84,2
1,46,82,2
1,53,82,6
1,46,84,2
1,48,84,6
1,46,84,2
1,41,82,6
1,48,82,2
1,41,79,2
1,48,84,2
1,46,82,8
1,53,82,6
1,46,84,2
1,46,83,2
1,45,84,2
1,43,80,14
1,41,82,2
1,48,82,10
1,41,84,2
1,48,84,4
1,41,82,2
1,48,82,2
1,41,84,2
1,48,84,2
1,41,82,6
1,48,82,2
1,41,84,8
1,48,84,2
1,41,82,4
1,48,82,2
1,41,84,4
1,48,84,6
1,48,82,2
1,43,82,10
1,48,84,2
1,43,84,2
1,41,82,4
1,48,79,6
1,41,84,4
1,48,76,2
1,48,82,2
1,43,82,2
1,48,84,8
1,43,84,2
1,41,82,6
1,48,79,2
1,41,84,4
1,41,81,2
1,43,83,10
1,45,79,2
1,46,82,10
1,41,82,4
1,46,84,2
1,41,84,4
1,41,82,2
1,48,82,4
1,41,84,4
1,48,84,2
1,48,82,2
1,52,82,2
1,48,79,14
1,43,84,2
1,41,82,2
1,48,82,2
1,41,82,2
1,48,82,2
1,41,82,2
1,48,82,4
1,41,82,10
1,48,82,2
1,41,82,2
1,48,82,8
1,41,82,2
1,48,82,10
1,41,82,2
1,48,82,2
1,41,82,12
1,48,73,2
1,41,69,8
2,65,96,90
2,58,96,36
2,63,96,36
2,58,96,42
2,53,96,13152
3,65,114,15570
3,64,115,2
3,65,114,180
3,67,114,8
3,67,114,100
3,67,114,60
3,70,117,44
3,69,114,4
3,67,111,12
3,65,112,186
3,65,114,576
3,64,115,4
3,65,114,186
3,67,114,6
3,67,114,106
3,67,114,46
3,70,117,12
3,69,114,180
3,67,111,4
3,65,112,0
3,65,110,574
3,67,111,18
3,69,113,0
3,70,116,26
3,70,115,118
3,70,114,94
3,74,116,8
3,72,113,0
3,70,114,22
3,69,109,182
3,65,111,628
3,64,110,2
3,62,110,10
3,60,105,182
3,67,113,538
3,65,109,184
3,64,108,10
3,65,108,182
3,58,114,6586
3,57,115,6
3,58,114,4
3,60,114,50
3,60,114,10
3,60,114,14
3,60,114,0
3,60,114,16
3,63,117,10
3,62,114,0
3,60,111,0
3,58,112,0
3,58,114,574
3,57,115,4
3,58,114,4
3,60,114,56
3,60,114,386
3,60,114,14
3,63,117,184
3,62,114,0
3,60,111,0
3,58,112,14
3,58,110,574
3,60,111,0
3,62,113,8
3,63,116,8
3,63,115,410
3,63,114,2
3,67,116,12
3,65,113,0
3,63,114,10
3,62,109,6
3,58,111,620
3,57,110,4
3,55,110,188
3,53,105,8
3,60,113,530
3,58,109,0
3,57,108,2
3,58,108,188
3,63,114,6586
3,62,115,2
3,63,114,188
3,65,114,60
3,65,114,110
3,65,114,4
3,65,114,10
3,68,117,8
3,67,114,182
3,65,111,6
3,63,112,188
3,63,114,576
3,62,115,10
3,63,114,4
3,65,114,2
3,65,114,98
3,65,114,108
3,65,114,4
3,68,117,186
3,67,114,4
3,65,111,8
3,63,112,4
3,63,110,564
3,65,111,22
3,67,113,0
3,68,116,8
3,68,114,66
3,68,115,48
3,68,114,2
3,72,116,8
3,70,113,186
3,68,114,18
3,67,109,182
3,63,111,638
3,62,110,2
3,60,110,0
3,58,105,184
3,65,113,538
3,63,109,4
3,62,108,188
3,63,108,186
3,58,114,6578
3,57,115,0
3,58,114,6
3,60,114,4
3,60,114,300
3,60,114,0
3,63,117,10
3,62,114,6
3,60,111,184
3,58,112,4
3,58,114,572
3,57,115,2
3,58,114,6
3,60,114,4
3,60,114,200
3,60,114,10
3,63,117,2
3,62,114,188
3,60,111,4
3,58,112,186
3,58,110,582
3,60,111,12
3,62,113,2
3,63,116,186
3,63,118,10
3,63,115,16
3,63,116,4
3,63,114,14
3,67,116,10
3,65,113,4
3,63,114,8
3,62,109,2
3,58,111,630
3,57,110,6
3,55,110,182
3,53,105,4
3,60,113,534
3,58,109,188
3,57,108,2
3,58,108,6
3,53,114,6576
3,52,115,4
3,53,114,188
3,55,114,6
3,55,114,112
3,55,114,40
3,58,117,58
3,57,114,4
3,55,111,186
3,53,112,8
3,53,114,572
3,52,115,6
3,53,114,4
3,55,114,182
3,55,114,114
3,55,114,48
3,58,117,282
3,57,114,12
3,55,111,184
3,53,112,10
3,53,110,562
3,55,111,16
3,57,113,18
3,58,116,6
3,58,115,118
3,58,114,92
3,62,116,10
3,60,113,188
3,58,114,20
3,57,109,186
3,53,111,626
3,52,110,10
3,50,110,188
3,48,105,186
3,55,113,528
3,53,109,0
3,52,108,6
3,53,108,2
4,46,77,1520
4,46,77,2
4,53,67,4
4,58,75,4
4,62,83,4
4,62,85,0
4,58,75,0
4,53,77,2
4,46,73,0
4,46,77,6
4,53,67,2
4,58,75,2
4,62,83,4
4,62,85,0
4,58,75,0
4,53,77,2
4,46,73,0
4,46,77,6
4,53,67,2
4,58,75,2
4,62,83,4
4,62,85,0
4,58,75,0
4,53,77,2
4,46,73,0
4,46,77,6
4,53,67,2
4,58,75,2
4,62,83,4
4,62,85,0
4,58,75,0
4,53,77,2
4,46,73,0
4,51,77,66
4,55,67,4
4,58,75,4
4,63,83,4
4,63,85,0
4,58,75,0
4,55,77,2
4,51,73,0
4,51,77,6
4,55,67,2
4,58,75,2
4,63,83,4
4,63,85,0
4,58,75,0
4,55,77,2
4,51,73,0
4,51,77,6
4,55,67,2
4,58,75,2
4,63,83,4
4,63,85,0
4,58,75,0
4,55,77,2
4,51,73,0
4,51,77,6
4,55,67,2
4,58,75,2
4,63,83,4
4,63,85,0
4,58,75,0
4,55,77,2
4,51,73,0
4,46,77,46
4,53,67,4
4,58,75,4
4,62,83,4
4,62,85,0
4,58,75,0
4,53,77,2
4,46,73,0
4,46,77,6
4,53,67,2
4,58,75,2
4,62,83,4
4,62,85,0
4,58,75,0
4,53,77,2
4,46,73,0
4,46,77,6
4,53,67,2
4,58,75,2
4,62,83,4
4,62,85,0
4,58,75,0
4,53,77,2
4,46,73,0
4,46,77,6
4,53,67,2
4,58,75,2
4,62,83,4
4,62,85,0
4,58,75,0
4,53,77,2
4,46,73,0
4,48,77,58
4,53,67,4
4,57,75,4
4,60,83,4
4,60,85,0
4,57,75,0
4,53,77,2
4,48,73,0
4,48,77,6
4,53,67,2
4,57,75,2
4,60,83,4
4,60,85,0
4,57,75,0
4,53,77,2
4,48,73,0
4,48,77,6
4,53,67,2
4,57,75,2
4,60,83,4
4,60,85,0
4,57,75,0
4,53,77,2
4,48,73,0
4,48,77,6
4,53,67,2
4,57,75,2
4,60,83,4
4,60,85,0
4,57,75,0
4,53,77,2
4,48,73,0
4,48,77,72
4,52,67,4
4,55,75,4
4,60,83,4
4,60,85,0
4,55,75,0
4,52,77,2
4,48,73,0
4,48,77,6
4,52,67,2
4,55,75,2
4,60,83,4
4,60,85,0
4,55,75,0
4,52,77,2
4,48,73,0
4,48,77,6
4,52,67,2
4,55,75,2
4,60,83,4
4,60,85,0
4,55,75,0
4,52,77,2
4,48,73,0
4,48,77,6
4,52,67,2
4,55,75,2
4,60,83,4
4,60,85,0
4,55,75,0
4,52,77,2
4,48,73,0
4,48,77,72
4,53,67,4
4,57,75,4
4,60,83,4
4,60,85,0
4,57,75,0
4,53,77,2
4,48,73,0
4,48,77,6
4,53,67,2
4,57,75,2
4,60,83,4
4,60,85,0
4,57,75,0
4,53,77,2
4,48,73,0
4,48,77,6
4,53,67,2
4,57,75,2
4,60,83,4
4,60,85,0
4,57,75,0
4,53,77,2
4,48,73,0
4,48,77,6
4,53,67,2
4,57,75,2
4,60,83,4
4,60,85,0
4,57,75,0
4,53,77,2
4,48,73,0
4,48,77,0
4,53,67,4
4,57,75,4
4,60,83,4
4,60,85,0
4,57,75,0
4,53,77,2
4,48,73,0
4,48,77,6
4,53,67,2
4,57,75,2
4,60,83,4
4,60,85,0
4,57,75,0
4,53,77,2
4,48,73,0
4,48,77,6
4,53,67,2
4,57,75,2
4,60,83,4
4,60,85,0
4,57,75,0
4,53,77,2
4,48,73,0
4,48,77,6
4,53,67,2
4,57,75,2
4,60,83,4
4,60,85,0
4,57,75,0
4,53,77,2
4,48,73,0
4,48,77,0
4,53,67,4
4,57,75,4
4,60,83,4
4,60,85,0
4,57,75,0
4,53,77,2
4,48,73,0
4,48,77,6
4,53,67,2
4,57,75,2
4,60,83,4
4,60,85,0
4,57,75,0
4,53,77,2
4,48,73,0
4,48,77,6
4,53,67,2
4,57,75,2
4,60,83,4
4,60,85,0
4,57,75,0
4,53,77,2
4,48,73,0
4,48,77,6
4,53,67,2
4,57,75,2
4,60,83,4
4,60,85,0
4,57,75,0
4,53,77,2
4,48,73,0
4,48,77,0
4,53,67,4
4,57,75,4
4,60,83,4
4,60,85,0
4,57,75,0
4,53,77,2
4,48,73,0
4,48,77,6
4,53,67,2
4,57,75,2
4,60,83,4
4,60,85,0
4,57,75,0
4,53,77,2
4,48,73,0
4,48,77,6
4,53,67,2
4,57,75,2
4,60,83,4
4,60,85,0
4,57,75,0
4,53,77,2
4,48,73,0
4,48,77,6
4,53,67,2
4,57,75,2
4,60,83,4
4,60,85,0
4,57,75,0
4,53,77,2
4,48,73,0
4,48,77,0
4,53,67,4
4,57,75,4
4,60,83,4
4,60,85,0
4,57,75,0
4,53,77,2
4,48,73,0
4,48,77,6
4,53,67,2
4,57,75,2
4,60,83,4
4,60,85,0
4,57,75,0
4,53,77,2
4,48,73,0
4,48,77,52
4,52,67,4
4,55,75,4
4,60,83,4
4,60,85,0
4,55,75,0
4,52,77,2
4,48,73,0
4,48,77,6
4,52,67,2
4,55,75,2
4,60,83,4
4,60,85,0
4,55,75,0
4,52,77,4
4,48,73,0
4,48,77,0
4,52,67,4
4,55,75,4
4,60,83,4
4,60,85,0
4,55,75,0
4,52,77,2
4,48,73,0
4,48,77,6
4,52,67,2
4,55,75,2
4,60,83,4
4,60,85,0
4,55,75,0
4,52,77,2
4,48,73,0
4,48,77,52
4,53,67,4
4,57,75,4
4,60,83,4
4,60,85,0
4,57,75,0
4,53,77,2
4,48,73,0
4,48,77,6
4,53,67,2
4,57,75,2
4,60,83,4
4,60,85,0
4,57,75,0
4,53,77,2
4,48,73,0
4,48,77,0
4,53,67,4
4,57,75,4
4,60,83,4
4,60,85,0
4,57,75,0
4,53,77,2
4,48,73,0
4,48,77,6
4,53,67,2
4,57,75,2
4,60,83,4
4,60,85,0
4,57,75,0
4,53,77,2
4,48,73,0
4,48,77,52
4,52,67,4
4,55,75,4
4,60,83,4
4,60,85,0
4,55,75,0
4,52,77,2
4,48,73,0
4,48,77,6
4,52,67,2
4,55,75,2
4,60,83,4
4,60,85,0
4,55,75,0
4,52,77,4
4,48,73,0
4,48,77,0
4,52,67,4
4,55,75,4
4,60,83,4
4,60,85,0
4,55,75,0
4,52,77,2
4,48,73,0
4,48,77,6
4,52,67,2
4,55,75,2
4,60,83,4
4,60,85,0
4,55,75,0
4,52,77,2
4,48,73,0
4,48,77,52
4,53,67,4
4,57,75,4
4,60,83,4
4,60,85,0
4,57,75,0
4,53,77,2
4,48,73,0
4,48,77,6
4,53,67,2
4,57,75,2
4,60,83,4
4,60,85,0
4,57,75,0
4,53,77,2
4,48,73,0
4,48,77,0
4,53,67,4
4,57,75,4
4,60,83,4
4,60,85,0
4,57,75,0
4,53,77,2
4,48,73,0
4,48,77,6
4,53,67,2
4,57,75,2
4,60,83,4
4,60,85,0
4,57,75,0
4,53,77,2
4,48,73,0
4,46,77,52
4,53,67,4
4,58,75,4
4,62,83,4
4,62,85,0
4,58,75,0
4,53,77,2
4,46,73,0
4,46,77,6
4,53,67,2
4,58,75,2
4,62,83,4
4,62,85,0
4,58,75,0
4,53,77,2
4,46,73,0
4,46,77,6
4,53,67,2
4,58,75,2
4,62,83,4
4,62,85,0
4,58,75,0
4,53,77,2
4,46,73,0
4,46,77,6
4,53,67,2
4,58,75,2
4,62,83,4
4,62,85,0
4,58,75,0
4,53,77,2
4,46,73,0
4,48,77,58
4,53,67,4
4,57,75,4
4,60,83,4
4,60,85,0
4,57,75,0
4,53,77,2
4,48,73,0
4,48,77,6
4,53,67,2
4,57,75,2
4,60,83,4
4,60,85,0
4,57,75,0
4,53,77,2
4,48,73,0
4,48,77,0
4,53,67,4
4,57,75,4
4,60,83,4
4,60,85,0
4,57,75,0
4,53,77,2
4,48,73,0
4,48,77,6
4,53,67,2
