track,note,velocity,time
1,47,98,1136
1,54,91,0
1,59,105,8
1,63,103,4
1,66,98,0
1,54,91,4
1,59,103,4
1,63,104,4
1,66,107,0
1,61,60,8
1,57,71,4
1,52,30,0
1,68,50,76
1,52,79,0
1,64,23,0
1,59,86,0
1,59,104,0
1,64,103,4
1,68,105,4
1,59,16,24
1,63,16,20
1,54,80,0
1,47,79,0
1,54,96,0
1,63,105,4
1,66,109,4
1,59,103,0
1,63,59,4
1,59,73,4
1,52,37,0
1,68,63,0
1,52,74,0
1,59,74,12
1,52,87,0
1,59,104,4
1,68,109,4
1,64,95,8
1,54,26,20
1,59,51,4
1,66,85,80
1,63,90,4
1,59,62,0
1,54,91,0
1,59,105,0
1,63,108,4
1,66,107,4
1,49,80,32
1,54,88,8
1,58,90,4
1,58,105,4
1,61,110,8
1,66,111,0
1,63,78,84
1,54,80,12
1,59,91,8
1,54,91,0
1,59,107,4
1,63,107,0
1,66,109,4
1,54,94,4
1,59,103,0
1,63,108,4
1,66,116,0
1,54,76,12
1,59,81,4
1,54,85,0
1,59,105,4
1,63,106,4
1,66,107,4
1,54,70,16
1,63,37,0
1,68,96,0
1,64,33,0
1,59,66,4
1,52,97,0
1,59,105,4
1,68,109,4
1,64,105,0
1,66,26,12
1,59,40,4
1,47,84,12
1,54,66,0
1,54,101,0
1,59,108,0
1,63,107,4
1,66,100,4
1,54,83,4
1,59,105,0
1,63,108,4
1,66,109,0
1,54,72,8
1,47,82,0
1,54,96,0
1,59,105,0
1,63,108,4
1,66,104,4
1,61,37,12
1,49,80,12
1,54,61,4
1,54,101,0
1,61,107,4
1,66,107,4
1,58,105,8
1,63,72,80
1,47,88,8
1,54,76,8
1,54,96,4
1,63,107,4
1,66,116,0
1,59,104,4
1,66,56,12
1,63,100,0
1,59,81,4
1,54,54,4
1,54,87,0
1,59,108,4
1,63,103,4
1,66,108,0
1,66,94,0
1,59,78,8
1,47,68,0
1,54,84,8
1,59,61,8
1,54,86,0
1,59,104,0
1,66,115,4
1,63,100,0
1,59,68,4
1,68,19,0
1,52,62,8
1,52,95,4
1,59,106,0
1,68,109,8
1,64,99,4
1,66,16,24
1,47,81,8
1,54,68,20
1,54,95,4
1,59,106,4
1,63,107,0
1,66,114,4
1,59,78,12
1,63,104,16
1,59,83,4
1,59,105,0
1,54,77,4
1,66,109,0
1,63,105,12
1,47,87,0
1,54,78,4
1,59,91,4
1,54,94,0
1,59,107,0
1,63,103,4
1,66,105,0
1,61,38,16
1,49,70,20
1,54,68,4
1,49,78,0
1,54,98,0
1,61,105,4
1,66,107,8
1,58,105,4
1,63,58,4
1,47,88,8
1,54,68,16
1,54,98,0
1,63,106,8
1,66,110,4
1,59,105,4
1,66,86,0
1,63,93,0
1,59,85,4
1,59,105,4
1,63,107,0
1,66,111,4
1,66,105,4
1,63,101,4
1,54,85,4
1,54,103,0
1,63,103,4
1,66,117,0
1,59,104,4
1,61,26,12
1,49,97,24
1,54,81,8
1,54,91,0
1,58,107,8
1,61,111,0
1,66,109,0
1,63,78,88
1,47,80,0
1,54,86,8
1,54,96,0
1,59,107,0
1,63,107,8
1,66,111,0
1,52,30,0
1,68,90,84
1,64,83,4
1,52,101,12
1,59,107,0
1,64,99,4
1,68,101,4
1,68,105,8
1,64,101,0
1,59,79,4
1,52,104,4
1,59,109,0
1,64,101,4
1,68,110,0
1,64,21,16
1,47,89,8
1,54,80,0
1,54,97,4
1,66,97,12
1,59,105,0
1,63,97,4
1,66,107,4
1,63,104,4
1,54,86,0
1,59,105,4
1,63,107,4
1,66,107,4
1,66,88,4
1,54,91,16
1,47,83,0
1,54,103,0
1,63,106,8
1,66,103,0
1,59,107,4
1,66,80,16
1,59,49,4
1,54,85,0
1,59,108,0
1,63,103,4
1,66,106,4
1,54,83,48
1,49,100,4
1,54,101,4
1,61,109,8
1,66,111,0
1,58,104,4
1,63,54,0
1,47,70,0
1,59,88,12
1,54,83,0
1,47,72,4
1,54,97,0
1,59,107,4
1,63,105,0
1,66,111,4
1,47,72,12
1,54,78,4
1,54,101,0
1,59,106,0
1,63,107,4
1,66,112,4
1,66,107,8
1,63,103,4
1,54,99,0
1,59,108,8
1,63,105,0
1,66,112,4
1,61,24,20
1,49,101,40
1,54,94,4
1,58,67,8
1,54,103,0
1,58,106,0
1,66,111,8
1,61,103,16
1,49,26,0
1,63,55,36
1,47,61,4
1,54,88,4
1,54,103,4
1,59,106,0
1,63,103,8
1,66,116,0
1,63,91,12
1,54,85,0
1,59,107,4
1,63,107,0
1,66,117,4
1,54,75,16
1,59,81,4
1,54,91,0
1,59,102,8
1,66,107,4
1,63,103,4
1,52,98,16
1,59,99,0
1,59,105,92
1,68,107,4
1,64,93,8
1,47,19,4
1,54,40,8
1,47,88,4
1,54,99,0
1,66,106,8
1,59,103,4
1,63,108,4
1,59,56,4
1,63,26,0
1,52,80,0
1,59,103,0
1,64,103,0
1,68,94,4
1,66,26,172
1,54,16,24
1,54,101,8
1,66,109,0
1,63,105,12
1,59,107,0
1,54,23,8
1,61,81,112
1,54,98,4
1,61,111,4
1,66,109,0
1,49,70,4
1,58,104,0
1,63,76,88
1,47,77,0
1,54,70,4
1,54,95,8
1,66,106,4
1,63,104,4
1,59,103,4
1,66,81,0
1,63,78,8
1,54,91,0
1,59,105,0
1,63,107,4
1,66,115,4
1,47,83,12
1,54,99,0
1,59,107,4
1,63,107,4
1,66,105,0
1,59,77,8
1,63,72,0
1,68,60,84
1,52,53,8
1,59,107,8
1,68,100,8
1,64,87,8
1,64,32,8
1,54,58,0
1,63,87,0
1,54,96,4
1,59,108,0
1,66,101,4
1,66,93,20
1,54,87,8
1,59,107,4
1,63,103,4
1,66,103,4
1,47,93,4
1,54,80,8
1,54,99,4
1,59,106,0
1,63,105,0
1,66,109,4
1,61,30,12
1,49,77,16
1,66,99,0
1,61,107,4
1,54,102,4
1,58,104,0
1,49,33,12
1,47,87,8
1,63,33,0
1,54,65,0
1,54,100,4
1,66,110,0
1,63,102,8
1,59,104,4
1,66,94,12
1,63,93,0
1,59,72,4
1,54,91,0
1,59,104,4
1,63,107,4
1,66,110,4
1,66,91,4
1,47,83,8
1,54,93,4
1,54,90,0
1,59,105,4
1,63,107,0
1,66,112,4
1,63,33,24
1,59,54,4
1,64,23,0
1,52,94,4
1,59,108,4
1,64,91,4
1,68,103,4
1,59,26,28
1,63,23,20
1,54,80,8
1,63,93,4
1,54,102,4
1,66,111,0
1,59,107,4
1,66,107,0
1,63,103,4
1,54,75,0
1,59,105,4
1,63,103,4
1,66,110,0
1,66,93,8
1,54,88,12
1,54,94,0
1,59,105,4
1,63,104,4
1,66,109,4
1,49,78,108
1,54,99,180
1,58,106,0
1,61,109,4
1,66,107,0
1,63,60,0
1,47,68,0
1,54,51,12
1,54,97,4
1,59,108,0
1,63,101,0
1,66,114,4
1,66,105,0
1,63,99,4
1,59,102,4
1,63,105,0
1,66,109,8
1,66,88,4
1,54,82,4
1,54,96,4
1,59,107,4
1,63,105,0
1,66,98,8
1,61,41,24
1,49,88,24
1,61,105,28
1,54,99,4
1,66,113,0
1,58,107,0
1,58,66,8
1,63,78,0
1,54,85,20
1,47,79,0
1,63,104,0
1,54,101,4
1,59,107,4
1,66,113,4
1,59,63,16
1,68,76,0
1,64,72,0
1,52,83,0
1,52,101,0
1,68,110,0
1,59,103,8
1,64,103,0
1,68,103,0
1,64,101,4
1,52,104,0
1,59,105,0
1,64,97,4
1,68,99,4
1,59,43,0
1,54,86,8
1,63,91,4
1,54,102,0
1,59,107,8
1,66,106,4
1,66,103,0
1,63,92,4
1,59,104,4
1,63,105,4
1,66,104,4
1,66,97,4
1,54,92,4
1,59,72,12
1,54,96,4
1,59,107,0
1,63,103,8
1,66,117,0
1,66,93,92
1,63,85,4
1,54,96,0
1,59,105,4
1,63,105,0
1,66,107,4
1,49,99,40
1,54,74,4
1,61,16,0
1,61,95,0
1,54,100,4
1,58,108,4
1,66,94,8
1,54,30,4
1,63,51,4
1,47,84,4
1,54,94,4
1,63,101,0
1,54,101,4
1,66,114,0
1,59,107,4
1,54,75,8
1,54,99,4
1,63,99,4
1,66,106,0
1,59,101,8
1,66,103,8
1,63,92,4
1,54,101,4
1,59,104,0
1,63,106,4
1,66,109,0
1,61,37,16
1,49,91,20
1,54,91,12
1,49,96,0
1,61,111,0
1,54,99,0
1,58,107,8
1,66,103,4
1,54,32,12
1,63,68,4
1,54,91,4
1,54,94,4
1,59,107,4
1,66,106,4
1,63,105,0
1,54,78,8
1,47,58,4
1,66,109,0
1,54,97,0
1,63,105,4
1,59,107,4
1,66,103,4
1,59,76,8
1,63,94,12
1,59,105,4
1,63,106,0
1,66,113,4
1,54,85,8
1,63,33,0
1,68,74,80
1,64,24,0
1,52,94,0
1,59,92,8
1,52,104,0
1,59,103,4
1,64,101,0
1,68,107,4
1,66,35,20
1,47,60,8
1,54,93,8
1,59,40,8
1,54,103,0
1,66,109,4
1,59,107,0
1,63,104,4
1,59,43,12
1,52,56,4
1,68,68,72
1,64,37,0
1,52,72,0
1,59,61,8
1,64,83,16
1,52,88,4
1,59,107,4
1,68,104,4
1,64,99,0
1,64,30,12
1,54,87,4
1,59,61,0
1,54,93,12
1,66,110,0
1,59,107,4
1,63,105,0
1,49,93,4
1,54,79,8
1,61,101,0
1,54,103,4
1,66,105,4
1,58,109,0
1,63,81,4
1,47,87,8
1,54,97,8
1,59,72,4
1,66,110,4
1,59,106,0
1,63,105,4
1,66,102,24
1,54,91,4
1,59,105,4
1,63,107,4
1,66,108,4
1,66,96,8
1,59,104,8
1,54,100,4
1,59,101,4
1,63,105,0
1,66,116,0
1,63,54,12
1,52,54,4
1,64,19,76
1,68,66,0
1,52,81,0
1,59,93,4
1,64,80,4
1,52,94,0
1,68,107,0
1,59,105,4
1,66,26,20
1,61,37,4
1,54,91,16
1,63,16,4
1,63,107,0
1,54,100,4
1,66,111,0
1,59,108,4
1,63,81,12
1,66,70,4
1,66,106,0
1,63,97,8
1,59,104,0
1,63,101,4
1,66,103,4
1,66,103,4
1,54,91,8
1,59,101,0
1,66,109,4
1,54,98,0
1,59,107,4
1,63,103,0
1,49,63,28
1,54,83,4
1,61,101,8
1,54,103,0
1,66,112,4
1,58,107,0
1,54,59,0
1,47,72,8
1,63,68,0
1,54,87,4
1,59,58,4
1,66,111,4
1,63,105,4
1,59,107,0
1,66,101,4
1,54,91,0
1,59,101,4
1,63,104,0
1,66,112,4
1,54,80,4
1,59,101,0
1,63,83,0
1,54,99,4
1,66,112,0
1,59,99,4
1,52,19,20
1,68,81,12
1,59,74,4
1,59,107,4
1,64,101,4
1,68,89,0
1,66,16,20
1,61,16,4
1,57,35,48
1,54,95,24
1,54,97,4
1,66,114,0
1,59,105,8
1,63,107,4
1,66,87,4
1,59,104,0
1,63,99,4
1,66,108,0
1,66,94,4
1,54,87,0
1,59,104,4
1,63,80,16
1,54,87,0
1,66,114,0
1,59,104,0
1,63,103,4
1,54,86,16
1,54,99,8
1,66,107,0
1,58,108,4
1,61,109,4
1,54,78,12
1,54,102,4
1,66,109,4
1,59,103,8
1,63,107,0
1,66,80,4
1,59,105,4
1,63,107,0
1,66,108,8
1,66,90,4
1,54,87,4
1,59,98,8
1,54,101,0
1,59,107,4
1,63,101,0
1,66,101,8
1,54,95,108
1,54,103,4
1,66,79,0
1,58,108,4
1,61,111,0
1,54,88,8
1,59,104,4
1,54,91,4
1,59,109,4
1,63,107,0
1,66,108,4
1,52,28,4
1,59,56,8
1,52,73,4
1,64,102,8
1,68,107,0
1,59,103,0
1,64,74,0
1,68,70,4
1,68,100,0
1,64,88,4
1,59,106,0
1,52,90,0
1,64,98,4
1,68,109,4
1,66,21,8
1,59,49,8
1,54,81,8
1,59,88,4
1,54,84,0
1,59,108,4
1,63,108,0
1,66,113,4
1,66,76,12
1,66,100,4
1,63,81,4
1,59,104,0
1,63,104,4
1,66,110,4
1,66,94,8
1,54,75,4
1,59,100,4
1,63,107,0
1,54,100,4
1,66,109,0
1,59,107,4
1,63,62,20
1,66,102,4
1,63,85,8
1,54,94,0
1,59,106,0
1,63,107,4
1,66,114,0
1,61,33,24
1,49,88,72
1,54,94,8
1,54,104,4
1,66,115,0
1,58,109,4
1,61,108,0
1,63,81,0
1,47,96,4
1,54,87,16
1,66,113,8
1,59,108,0
1,54,100,4
1,63,101,0
1,54,101,4
1,59,107,4
1,63,107,4
1,66,109,4
1,66,100,24
1,66,82,4
1,59,105,8
1,63,104,0
1,66,107,4
1,61,46,0
1,54,94,28
1,58,44,8
1,54,99,0
1,66,110,0
1,58,108,4
1,61,99,24
1,63,68,20
1,54,87,0
1,59,78,8
1,54,100,0
1,66,105,0
1,63,103,4
1,59,103,4
1,66,78,4
1,66,104,12
1,63,99,4
1,59,103,4
1,63,108,4
1,66,109,4
1,54,82,8
1,59,93,8
1,54,101,0
1,59,107,4
1,63,105,0
1,66,108,4
1,63,46,28
1,64,19,8
1,68,81,0
1,59,78,0
1,52,92,0
1,59,105,4
1,64,99,4
1,68,106,0
1,54,83,16
1,59,91,4
1,54,95,4
1,66,110,0
1,63,105,4
1,59,102,0
1,59,26,20
1,52,54,4
1,64,77,12
1,59,62,4
1,64,83,4
1,52,78,0
1,59,107,0
1,64,100,0
1,68,103,4
1,61,21,16
1,66,26,4
1,54,93,0
1,59,59,64
1,54,103,4
1,59,109,4
1,66,107,8
1,63,99,4
1,49,87,80
1,54,81,8
1,54,96,0
1,61,108,8
1,66,109,4
1,58,105,8
1,63,68,4
1,54,94,12
1,59,77,8
1,54,103,0
1,66,115,4
1,59,107,0
1,63,108,0
1,66,99,0
1,63,93,4
1,59,105,0
1,63,105,4
1,66,107,0
1,66,97,12
1,54,93,8
1,59,102,20
1,54,91,0
1,59,109,0
1,63,108,4
1,66,102,4
1,63,38,20
1,52,71,0
1,68,26,4
1,52,97,0
1,59,104,4
1,68,108,8
1,64,103,4
1,59,80,0
1,54,104,0
1,66,112,0
1,59,108,4
1,63,107,4
1,66,105,0
1,63,97,4
1,59,107,0
1,63,103,4
1,66,107,4
1,66,97,8
1,54,95,4
1,59,103,8
1,54,103,0
1,66,105,0
1,63,105,8
1,59,93,0
1,49,85,48
1,54,84,8
1,54,103,4
1,58,108,4
1,61,111,0
1,66,113,4
1,54,60,0
1,47,77,0
1,54,87,4
1,59,73,12
1,54,98,0
1,66,107,0
1,59,108,4
1,63,104,0
1,66,87,8
1,54,99,0
1,59,104,4
1,63,103,0
1,66,109,4
1,66,94,4
1,54,94,0
1,59,104,8
1,63,103,4
1,54,99,4
1,66,114,0
1,59,107,0
1,63,103,4
1,54,49,8
1,59,63,4
1,68,16,0
1,52,85,0
1,59,101,16
1,52,97,8
1,59,107,4
1,64,96,0
1,68,96,4
1,57,44,20
1,59,88,16
1,54,55,0
1,54,99,0
1,66,114,0
1,59,107,8
1,63,107,0
1,66,91,8
1,59,103,4
1,63,105,4
1,66,109,4
1,66,91,4
1,54,56,4
1,59,101,4
1,47,82,0
1,54,104,0
1,66,109,0
1,59,105,8
1,63,108,0
1,61,51,24
1,49,83,8
1,54,87,4
1,58,58,8
1,49,98,0
1,54,101,4
1,66,109,0
1,58,107,0
1,61,111,8
1,63,41,0
1,54,88,0
1,59,72,8
1,54,102,0
1,66,113,0
1,59,108,8
1,63,107,0
1,66,73,4
1,66,96,16
1,63,87,4
1,59,105,0
1,63,106,4
1,66,115,4
1,66,96,8
1,54,91,4
1,59,103,8
1,59,107,4
1,63,110,0
1,66,116,4
1,54,94,52
1,58,91,8
1,54,104,4
1,58,105,0
1,61,110,8
1,66,108,0
1,54,58,24
1,63,43,8
1,47,61,0
1,54,89,4
1,59,94,8
1,66,110,0
1,54,94,0
1,59,108,4
1,63,105,0
1,68,70,0
1,52,97,4
1,59,101,8
1,64,73,4
1,68,112,0
1,52,105,0
1,59,101,4
1,64,94,0
1,68,103,0
1,64,94,4
