track,note,velocity,time
1,51,90,1496
1,56,100,40
1,60,102,4
1,68,106,8
1,63,108,4
1,68,106,4
1,63,100,8
1,60,97,4
1,56,94,4
1,68,107,4
1,63,104,12
1,60,96,4
1,60,100,0
1,63,107,0
1,68,107,4
1,68,106,8
1,63,104,4
1,56,97,12
1,60,97,8
1,63,104,4
1,51,90,4
1,68,31,4
1,56,100,0
1,60,102,4
1,68,106,4
1,63,108,4
1,68,106,4
1,63,100,8
1,60,97,4
1,56,94,4
1,68,107,4
1,63,104,12
1,60,96,4
1,60,100,0
1,63,107,0
1,68,107,4
1,68,106,8
1,63,104,4
1,51,89,4
1,56,97,8
1,60,96,4
1,63,100,8
1,51,102,0
1,56,100,0
1,63,106,12
1,68,106,0
1,68,106,4
1,63,100,0
1,60,91,8
1,68,104,8
1,63,103,4
1,60,93,0
1,56,84,8
1,51,94,0
1,56,97,8
1,60,97,0
1,63,106,4
1,68,110,4
1,68,102,8
1,60,59,8
1,49,84,0
1,53,91,4
1,61,91,8
1,56,101,4
1,65,102,12
1,61,108,8
1,56,104,0
1,65,110,8
1,65,106,8
1,61,100,4
1,56,93,12
1,56,82,4
1,61,91,8
1,65,109,0
1,61,102,8
1,56,100,0
1,53,85,4
1,53,103,8
1,56,103,0
1,61,104,8
1,65,110,4
1,55,59,4
1,64,78,8
1,59,86,8
1,63,103,36
1,58,94,4
1,67,106,8
1,51,89,352
1,55,97,0
1,58,102,8
1,63,104,0
1,67,105,4
1,67,106,8
1,63,100,4
1,67,108,4
1,63,104,4
1,58,93,0
1,55,94,16
1,58,102,0
1,63,106,0
1,67,97,12
1,64,81,28
1,59,82,8
1,63,49,0
1,68,19,0
1,56,94,48
1,60,96,0
1,63,101,4
1,68,105,8
1,51,91,8
1,44,46,4
1,51,94,4
1,68,109,4
1,63,97,4
1,68,107,0
1,63,104,8
1,68,104,8
1,63,100,0
1,60,84,4
1,56,77,8
1,51,62,8
1,44,58,0
1,51,100,0
1,60,102,8
1,63,103,4
1,68,103,4
1,68,107,4
1,51,96,12
1,56,93,0
1,60,93,0
1,63,99,8
1,56,96,0
1,51,102,4
1,60,104,0
1,63,107,4
1,68,106,8
1,68,106,0
1,63,106,8
1,68,106,4
1,63,106,4
1,56,74,16
1,60,103,0
1,63,110,0
1,68,108,4
1,68,105,4
1,63,105,4
1,60,90,4
1,44,50,0
1,51,93,4
1,56,95,0
1,60,97,0
1,63,103,0
1,68,104,4
1,60,100,4
1,63,108,8
1,68,100,12
1,68,107,4
1,63,104,4
1,60,102,4
1,60,89,8
1,56,47,0
1,63,98,8
1,68,107,8
1,63,107,4
1,51,96,0
1,56,102,0
1,60,103,4
1,63,105,4
1,68,104,8
1,68,106,4
1,63,102,4
1,51,90,8
1,60,100,0
1,63,102,0
1,68,103,4
1,51,102,4
1,60,103,0
1,56,100,4
1,63,108,0
1,68,108,8
1,68,107,4
1,68,107,8
1,63,106,4
1,56,87,16
1,51,97,8
1,60,102,0
1,63,107,0
1,68,108,4
1,64,72,20
1,59,59,44
1,45,49,84
1,60,112,8
1,65,110,8
1,53,94,4
1,56,84,8
1,53,100,0
1,56,107,4
1,60,108,4
1,65,110,4
1,65,108,4
1,65,106,8
1,60,106,8
1,56,103,0
1,60,106,8
1,65,107,4
1,65,106,4
1,60,107,8
1,56,103,4
1,60,108,4
1,65,103,8
1,56,102,8
1,60,108,0
1,65,112,4
1,65,104,0
1,60,107,8
1,65,108,8
1,60,109,4
1,53,76,8
1,53,95,0
1,65,108,12
1,60,112,4
1,64,104,56
1,59,102,12
1,55,41,12
1,67,19,0
1,55,98,0
1,67,79,4
1,58,104,4
1,51,94,12
1,63,108,4
1,55,94,0
1,67,110,4
1,63,100,24
1,67,106,4
1,63,106,4
1,67,106,8
1,63,104,4
1,58,90,0
1,55,75,8
1,55,96,0
1,58,102,0
1,63,105,4
1,67,103,8
1,67,106,0
1,63,110,4
1,51,93,0
1,55,89,0
1,58,101,8
1,51,82,4
1,55,101,0
1,58,106,0
1,63,110,0
1,67,104,4
1,67,107,8
1,63,106,8
1,63,103,4
1,67,102,4
1,67,108,8
1,63,104,0
1,58,90,0
1,55,83,4
1,51,100,0
1,55,101,0
1,58,100,0
1,63,107,0
1,67,106,8
1,64,76,24
1,59,72,12
1,60,102,0
1,56,102,0
1,51,97,0
1,68,107,0
1,63,110,8
1,51,104,0
1,60,98,4
1,68,77,0
1,56,97,4
1,63,104,24
1,68,106,4
1,63,104,8
1,60,96,0
1,56,97,12
1,68,107,8
1,63,104,8
1,60,94,4
1,56,85,8
1,44,19,32
1,51,80,4
1,56,99,0
1,60,101,8
1,63,107,0
1,68,106,8
1,68,107,12
1,63,104,8
1,60,97,8
1,51,90,16
1,56,97,4
1,60,94,8
1,63,79,4
1,44,58,0
1,51,104,0
1,56,106,0
1,60,102,4
1,63,106,4
1,68,103,4
1,68,107,4
1,63,106,4
1,60,97,4
1,56,91,8
1,51,84,8
1,68,108,8
1,63,107,8
1,60,99,8
1,56,93,4
1,51,83,8
1,56,90,0
1,60,100,8
1,63,106,0
1,68,108,4
1,49,81,360
1,53,94,0
1,56,103,0
1,61,112,12
1,65,110,4
1,49,94,0
1,53,101,0
1,56,105,0
1,61,112,4
1,65,108,4
1,65,105,8
1,65,107,8
1,61,110,0
1,56,98,4
1,49,90,0
1,53,94,8
1,56,104,4
1,65,111,12
1,61,108,4
1,65,100,4
1,49,96,8
1,53,102,4
1,56,104,4
1,61,104,8
1,53,105,0
1,56,104,4
1,61,110,4
1,65,109,24
1,65,108,8
1,61,108,4
1,56,93,8
1,61,110,8
1,65,112,4
1,53,88,8
1,53,103,8
1,56,104,4
1,65,112,4
1,61,108,4
1,51,99,8
1,44,97,8
1,60,102,4
1,56,98,12
1,68,105,8
1,63,110,12
1,51,99,0
1,60,100,0
1,63,109,4
1,68,105,4
1,68,108,8
1,63,103,0
1,60,95,4
1,56,82,12
1,63,103,8
1,68,104,0
1,60,97,0
1,56,87,12
1,51,102,8
1,56,100,0
1,60,103,4
1,63,106,0
1,68,107,4
1,68,107,4
1,63,107,8
1,44,102,8
1,51,100,0
1,56,92,0
1,60,100,4
1,63,104,4
1,51,105,0
1,56,102,4
1,63,110,4
1,60,102,4
1,68,108,4
1,68,109,4
1,63,106,8
1,60,100,4
1,56,100,4
1,51,104,8
1,56,84,4
1,60,94,0
1,63,102,0
1,68,93,8
1,68,110,12
1,63,109,8
1,60,99,4
1,56,106,0
1,63,110,0
1,60,94,4
1,68,110,4
1,48,100,52
1,53,103,4
1,56,102,8
1,60,111,8
1,65,106,4
1,48,87,8
1,56,104,4
1,60,107,4
1,65,100,8
1,65,105,4
1,60,104,8
1,56,91,0
1,53,94,0
1,48,93,8
1,65,105,4
1,60,104,0
1,56,93,4
1,48,104,0
1,56,108,4
1,53,96,4
1,41,74,8
1,60,106,0
1,65,106,4
1,65,104,4
1,60,101,4
1,56,82,4
1,48,102,0
1,53,103,0
1,56,99,4
1,60,109,0
1,65,100,8
1,53,102,0
1,56,102,0
1,60,111,4
1,65,106,12
1,65,107,4
1,60,105,4
1,56,104,4
1,53,96,8
1,56,100,4
1,60,106,8
1,65,104,4
1,65,110,4
1,60,110,8
1,53,79,4
1,53,103,0
1,56,104,0
1,60,108,0
1,65,109,4
1,49,97,56
1,53,94,24
1,56,99,12
1,61,102,12
1,65,76,8
1,53,106,0
1,56,106,4
1,61,113,4
1,65,110,8
1,65,110,4
1,61,111,0
1,56,97,8
1,65,106,4
1,61,100,4
1,53,80,8
1,49,71,0
1,53,102,8
1,56,101,0
1,61,112,0
1,65,110,4
1,64,74,16
1,59,88,8
1,55,97,48
1,58,104,8
1,63,108,8
1,67,109,8
1,51,102,0
1,55,107,0
1,58,107,8
1,63,108,0
1,67,107,4
1,67,108,4
1,63,105,4
1,58,84,8
1,67,110,4
1,63,106,4
1,58,88,4
1,55,102,0
1,58,102,0
1,63,108,0
1,67,108,4
1,56,91,8
1,65,110,4
1,61,106,4
1,46,90,0
1,46,110,4
1,53,106,0
1,65,112,8
1,61,110,4
1,56,102,12
1,61,110,8
1,56,94,8
1,65,108,4
1,65,110,8
1,61,109,8
1,56,97,0
1,53,97,0
1,46,83,12
1,53,103,0
1,46,100,8
1,56,102,0
1,61,111,0
1,65,108,8
1,51,102,8
1,55,104,0
1,58,103,0
1,63,105,8
1,67,82,12
1,51,106,0
1,55,106,0
1,58,101,0
1,63,110,4
1,67,108,4
1,67,106,8
1,63,110,4
1,58,100,8
1,67,110,12
1,63,108,8
1,58,102,0
1,55,90,8
1,58,104,0
1,63,110,4
1,67,112,4
1,67,108,4
1,63,106,4
1,58,84,8
1,55,103,4
1,51,106,0
1,58,102,0
1,63,104,36
1,67,107,28
1,51,106,4
1,55,102,20
1,58,97,0
1,67,107,0
1,63,102,4
1,67,108,4
1,63,106,0
1,58,99,4
1,55,105,4
1,67,109,4
1,63,107,8
1,58,91,4
1,51,101,0
1,58,102,0
1,63,103,4
1,67,107,4
1,67,108,4
1,63,105,8
1,58,98,0
1,55,90,8
1,51,73,4
1,51,104,12
1,55,100,0
1,58,106,0
1,63,103,4
1,67,105,4
1,51,103,0
1,55,110,0
1,58,107,4
1,67,108,12
1,63,93,4
1,67,109,4
1,63,110,8
1,58,102,4
1,55,101,8
1,63,104,0
1,67,103,8
1,67,110,4
1,63,108,8
1,58,100,4
1,55,105,4
1,58,105,4
1,63,109,0
1,67,106,8
1,44,96,0
1,51,103,0
1,56,105,0
1,63,109,8
1,60,101,4
1,68,107,8
1,56,94,4
1,60,102,0
1,63,106,8
1,68,108,4
1,68,107,8
1,63,110,4
1,60,96,4
1,51,94,8
1,63,106,0
1,60,97,4
1,68,107,8
1,44,100,0
1,51,98,4
1,56,100,8
1,60,102,0
1,63,102,4
1,68,105,4
1,68,108,4
1,63,105,4
1,60,100,4
1,44,96,4
1,51,102,8
1,60,102,0
1,63,104,8
1,54,104,8
1,51,102,0
1,44,101,4
1,54,108,8
1,63,110,4
1,60,100,4
1,68,104,4
1,68,110,4
1,63,106,8
1,60,94,8
1,54,84,4
1,68,108,4
1,63,106,4
1,60,94,8
1,44,93,0
1,51,93,8
1,60,100,4
1,63,106,0
1,68,108,4
1,49,104,124
1,56,100,8
1,61,100,8
1,65,100,8
1,68,56,12
1,49,102,8
1,56,106,0
1,61,99,4
1,65,102,4
1,68,102,8
1,68,107,4
1,65,100,4
1,61,94,8
1,56,79,8
1,61,94,4
1,65,98,8
1,68,102,8
1,68,108,8
1,65,99,0
1,61,95,4
1,56,96,8
1,56,104,12
1,49,104,0
1,61,102,0
1,65,99,4
1,68,106,8
1,51,94,356
1,55,102,0
1,63,103,12
1,67,104,8
1,58,87,4
1,51,99,4
1,55,107,0
1,58,105,4
1,63,110,0
1,67,110,8
1,67,110,8
1,63,108,4
1,58,94,4
1,55,103,4
1,67,108,4
1,63,110,4
1,58,97,0
1,55,84,8
1,51,95,8
1,55,101,0
1,58,100,0
1,63,102,0
1,67,108,8
1,44,77,12
1,51,88,4
1,56,97,8
1,60,99,4
1,63,87,8
1,51,100,8
1,56,102,0
1,60,100,0
1,63,110,4
1,68,107,8
1,44,29,4
1,68,104,4
1,63,106,8
1,56,71,4
1,68,104,8
1,63,104,4
1,60,83,4
1,44,36,8
1,51,108,4
1,56,102,0
1,60,101,0
1,68,111,4
1,63,102,4
1,44,96,8
1,68,108,4
1,63,110,0
1,60,102,4
1,56,99,0
1,51,109,8
1,44,101,0
1,56,100,0
1,60,96,4
1,56,102,8
1,51,106,0
1,60,99,4
1,63,112,4
1,68,110,8
1,68,110,12
1,63,108,8
1,68,106,4
1,63,106,0
1,60,100,4
1,44,59,8
1,51,97,8
1,63,107,0
1,68,106,4
1,68,106,4
1,63,106,8
1,60,102,4
1,56,91,4
1,51,85,8
1,44,106,0
1,51,105,12
1,51,108,4
1,56,101,0
1,60,103,8
1,63,110,4
1,44,94,8
1,68,108,4
1,68,107,4
1,63,104,8
1,60,100,4
1,68,61,4
1,68,103,4
1,63,104,12
1,60,80,4
1,56,90,4
1,60,100,0
1,63,107,4
1,68,104,4
1,68,105,4
1,63,108,4
1,60,93,8
1,51,69,8
1,44,102,12
1,51,101,8
1,56,94,4
1,60,103,0
1,63,105,0
1,68,101,8
1,56,107,8
1,60,101,0
1,63,111,4
1,68,106,4
1,68,108,4
1,63,110,8
1,60,102,4
1,51,84,8
1,68,103,8
1,63,105,8
1,60,94,4
1,51,99,4
1,44,75,28
1,44,106,4
1,51,92,0
1,60,103,0
1,63,110,0
1,68,106,8
1,68,106,4
1,63,108,0
1,60,100,0
1,56,97,8
1,44,106,4
1,51,105,0
1,56,92,4
1,51,111,0
1,44,107,4
1,56,105,4
1,63,107,4
1,60,103,4
1,68,109,4
1,68,106,4
1,63,104,8
1,68,80,4
1,63,97,8
1,60,85,0
1,56,74,8
1,51,63,4
1,44,47,0
1,51,95,0
1,56,100,8
1,60,102,0
1,63,106,8
1,68,110,4
1,68,108,4
1,63,106,4
1,60,96,4
1,44,93,0
1,51,105,0
1,56,96,8
1,60,101,0
1,63,105,8
1,51,101,4
1,56,104,0
1,60,104,4
1,63,101,4
1,68,108,4
1,68,108,4
1,63,108,8
1,60,99,4
1,68,109,8
1,63,110,4
1,60,99,4
1,56,78,0
1,51,84,12
1,51,102,8
1,56,99,4
1,60,102,4
1,63,110,0
1,68,109,8
1,48,115,0
1,41,106,4
1,53,107,8
1,56,104,12
1,65,36,4
1,60,108,4
1,48,118,8
1,53,106,8
1,56,105,0
1,60,108,0
1,65,112,8
1,65,107,8
1,60,106,4
1,65,109,4
1,60,104,8
1,48,97,16
1,41,86,8
1,53,104,0
1,56,105,0
1,60,108,4
1,65,104,4
1,65,101,8
1,60,102,8
1,41,100,0
1,48,100,4
1,53,93,0
1,56,104,0
1,60,110,0
1,65,106,4
1,48,103,4
1,53,106,0
1,56,108,4
1,41,69,0
1,65,108,4
1,60,99,8
1,65,108,4
1,60,111,8
1,65,110,12
1,60,113,4
1,56,102,0
1,53,103,8
1,48,90,4
1,53,91,4
1,56,104,0
1,60,108,0
1,65,109,4
1,55,104,4
1,63,106,12
1,51,74,8
1,58,100,8
1,67,97,8
1,55,104,4
1,58,104,8
1,63,104,8
1,67,107,4
1,67,106,4
1,63,104,8
1,63,106,4
1,67,107,4
1,58,100,0
1,55,86,8
1,51,82,28
1,55,92,0
1,58,102,0
1,63,107,0
1,67,106,8
1,67,100,4
1,63,101,8
1,51,96,0
1,55,102,4
1,58,103,8
1,63,103,4
1,55,106,0
1,58,105,4
1,63,108,4
1,67,108,8
1,67,108,4
1,63,105,4
1,58,96,8
1,67,110,4
1,63,107,4
1,58,97,4
1,55,93,4
1,51,94,32
1,51,96,0
1,55,103,0
1,58,104,0
1,63,110,0
1,67,109,4
1,67,109,8
1,63,106,4
1,58,93,4
1,51,93,0
1,55,94,0
1,58,104,0
1,63,106,4
1,67,101,4
1,51,101,0
1,55,107,0
1,58,104,0
1,63,107,8
1,67,107,4
1,67,110,4
1,63,108,8
1,58,100,8
1,67,104,8
1,63,102,4
1,58,80,8
1,51,94,0
1,55,100,8
1,58,104,0
1,63,110,0
1,67,108,8
1,67,110,8
1,63,106,4
1,51,99,0
1,58,103,4
1,55,104,0
1,63,104,0
1,67,90,4
1,51,97,0
1,58,108,8
1,55,106,0
1,63,108,8
1,67,107,4
1,67,108,8
1,63,104,4
1,58,97,4
1,63,87,4
1,67,92,8
1,67,109,4
1,63,108,8
1,58,103,4
1,55,100,4
1,55,100,4
1,58,104,0
1,63,108,0
1,67,110,4
1,51,99,4
1,56,97,4
1,60,99,8
1,63,92,4
1,44,77,44
1,44,107,4
1,51,101,8
1,56,102,0
1,63,108,8
1,68,109,4
1,68,110,4
1,63,105,8
1,60,93,8
1,56,73,4
1,51,98,12
1,68,88,4
1,63,94,4
1,60,75,4
1,56,79,4
1,56,106,0
1,60,102,4
1,51,99,4
