track,note,velocity,time
0,32,109,37
0,35,90,0
0,44,76,0
0,51,80,0
0,56,47,0
0,59,70,0
0,64,76,0
0,66,96,0
0,56,54,1
0,59,64,2
0,64,62,1
0,51,64,0
0,39,78,2
0,51,84,0
0,56,55,0
0,56,51,0
0,64,52,0
0,59,68,1
0,64,80,2
0,44,80,24
0,44,50,0
0,51,74,0
0,39,78,16
0,51,92,0
0,56,98,0
0,56,97,0
0,59,80,0
0,64,84,0
0,59,87,1
0,64,95,2
0,32,104,34
0,44,89,0
0,44,100,0
0,51,80,0
0,30,109,1
0,35,90,0
0,42,78,0
0,42,80,0
0,51,80,0
0,57,61,0
0,59,32,0
0,61,65,0
0,64,90,0
0,64,72,0
0,69,110,0
0,76,101,0
0,57,60,1
0,59,64,2
0,61,60,1
0,64,65,2
0,51,64,122
0,39,78,28
0,51,84,0
0,57,45,0
0,57,40,0
0,59,45,0
0,64,40,0
0,71,87,0
0,59,44,1
0,61,40,2
0,64,41,1
0,42,65,4
0,42,53,0
0,51,74,0
0,73,110,4
0,39,78,2
0,51,92,0
0,57,89,0
0,57,62,0
0,59,70,0
0,61,74,0
0,64,78,0
0,59,68,1
0,61,76,2
0,64,82,1
0,30,98,2
0,42,82,0
0,42,55,0
0,51,80,0
0,28,95,4
0,35,90,0
0,40,85,0
0,40,84,0
0,51,80,0
0,56,78,0
0,59,82,0
0,63,110,0
0,63,72,0
0,68,101,0
0,68,85,0
0,71,107,0
0,56,61,1
0,59,72,1
0,63,62,1
0,51,64,30
0,39,78,17
0,51,84,0
0,56,45,0
0,56,45,0
0,59,45,1
0,63,48,2
0,40,89,2
0,40,47,0
0,51,74,0
0,39,78,2
0,51,92,0
0,56,98,0
0,56,63,0
0,59,78,0
0,63,80,0
0,59,92,1
0,63,92,2
0,28,88,2
0,40,89,0
0,40,70,0
0,51,80,0
0,30,98,2
0,35,90,0
0,42,82,0
0,42,91,0
0,51,80,0
0,57,66,0
0,59,66,0
0,61,70,0
0,64,68,0
0,64,65,0
0,69,82,0
0,73,115,0
0,57,70,1
0,59,61,2
0,61,70,1
0,64,74,2
0,51,64,120
0,71,67,4
0,39,78,2
0,51,84,0
0,57,54,0
0,67,72,0
0,74,98,0
0,59,54,1
0,61,54,2
0,64,52,1
0,42,92,22
0,42,72,0
0,51,74,0
0,39,78,2
0,51,92,0
0,57,92,0
0,57,76,0
0,59,66,0
0,61,82,0
0,64,70,0
0,67,83,0
0,71,82,0
0,74,100,0
0,59,70,1
0,61,85,1
0,64,85,1
0,30,98,2
0,42,105,0
0,42,91,0
0,51,80,0
0,32,88,2
0,35,90,0
0,44,95,0
0,44,80,0
0,51,80,0
0,56,74,0
0,59,84,0
0,64,72,0
0,74,110,0
0,56,52,1
0,59,62,2
0,64,68,1
0,51,64,62
0,39,78,16
0,51,84,0
0,56,57,0
0,59,57,1
0,64,57,2
0,44,89,10
0,44,70,0
0,51,74,0
0,39,78,38
0,51,92,0
0,56,85,0
0,56,62,0
0,59,80,0
0,64,72,0
0,59,85,1
0,64,82,2
0,32,82,18
0,44,92,0
0,44,86,0
0,51,80,0
0,35,95,2
0,47,89,0
0,35,90,0
0,47,86,0
0,51,80,0
0,54,84,0
0,59,82,0
0,63,78,0
0,66,70,0
0,54,72,1
0,71,110,1
0,75,115,0
0,59,78,1
0,63,74,1
0,51,64,24
0,39,78,23
0,51,84,0
0,54,29,0
0,59,61,1
0,63,58,2
0,47,74,2
0,47,54,0
0,51,74,0
0,39,78,10
0,51,92,0
0,54,92,0
0,54,55,0
0,59,62,0
0,63,82,0
0,59,89,1
0,63,89,1
0,47,92,6
0,47,80,0
0,51,80,0
0,33,91,2
0,35,90,0
0,45,82,0
0,45,86,0
0,51,80,0
0,57,66,0
0,59,68,0
0,61,72,0
0,64,74,0
0,76,80,0
0,57,65,1
0,69,91,1
0,73,110,0
0,61,78,1
0,64,74,1
0,51,64,60
0,39,78,20
0,51,84,0
0,57,49,0
0,76,82,0
0,61,55,1
0,69,98,1
0,73,100,0
0,64,53,1
0,45,58,4
0,45,56,0
0,51,74,0
0,71,101,0
0,39,78,2
0,51,92,0
0,57,98,0
0,57,52,0
0,59,56,0
0,61,58,0
0,64,62,0
0,69,115,0
0,73,87,0
0,61,98,1
0,64,87,2
0,33,82,14
0,45,82,0
0,45,80,0
0,51,80,0
0,35,76,2
0,35,90,0
0,47,61,0
0,51,80,0
0,54,68,0
0,59,68,0
0,63,74,0
0,71,85,0
0,75,90,0
0,78,101,0
0,54,51,1
0,59,44,2
0,63,87,1
0,51,64,22
0,71,76,24
0,75,87,0
0,39,78,2
0,51,84,0
0,54,51,0
0,54,56,0
0,59,58,0
0,63,70,0
0,78,98,0
0,59,32,1
0,63,65,2
0,78,95,1
0,47,92,2
0,47,82,0
0,51,74,0
0,73,87,0
0,35,93,2
0,39,78,0
0,51,92,0
0,54,89,0
0,54,76,0
0,59,84,0
0,63,91,0
0,71,83,0
0,75,85,0
0,59,92,1
0,63,108,2
0,47,82,1
0,47,88,0
0,51,80,0
0,28,98,12
0,35,90,0
0,40,87,0
0,40,88,0
0,51,80,0
0,59,106,0
0,59,69,0
0,59,80,0
0,64,82,0
0,56,70,1
0,59,65,2
0,64,74,1
0,51,64,124
0,39,78,36
0,51,84,0
0,56,46,0
0,59,46,1
0,64,60,2
0,59,62,18
0,51,74,4
0,52,82,0
0,52,41,0
0,61,98,0
0,39,78,4
0,51,92,0
0,56,102,0
0,59,109,0
0,59,67,0
0,64,62,0
0,59,80,1
0,64,92,2
0,51,80,24
0,56,58,0
0,59,66,0
0,28,90,2
0,35,90,0
0,40,92,0
0,40,70,0
0,51,80,0
0,56,112,0
0,59,58,0
0,59,54,0
0,64,80,0
0,47,34,1
0,56,61,2
0,59,60,1
0,64,78,2
0,51,64,115
0,39,78,20
0,51,84,0
0,56,43,0
0,59,60,1
0,64,54,2
0,51,74,4
0,52,78,0
0,39,78,59
0,51,92,0
0,56,98,0
0,59,62,0
0,64,95,1
0,64,80,2
0,40,58,4
0,51,80,0
0,52,82,0
0,66,94,0
0,28,98,2
0,35,90,0
0,40,68,0
0,40,66,0
0,51,80,0
0,56,68,0
0,59,106,0
0,59,67,0
0,64,76,0
0,68,80,0
0,47,49,1
0,56,70,2
0,59,52,1
0,64,80,2
0,52,43,38
0,51,64,64
0,39,78,8
0,51,84,0
0,56,34,0
0,56,34,0
0,64,49,0
0,59,57,1
0,64,60,2
0,59,74,16
0,40,68,2
0,40,53,0
0,51,74,0
0,61,104,0
0,47,58,1
0,52,72,2
0,39,78,4
0,51,92,0
0,56,92,0
0,56,36,0
0,59,109,0
0,59,69,0
0,64,61,0
0,59,9,1
0,64,95,2
0,40,63,20
0,51,80,0
0,56,40,0
0,28,91,4
0,35,90,0
0,40,82,0
0,51,80,0
0,56,106,0
0,56,54,0
0,59,62,0
0,71,82,0
0,56,46,1
0,59,68,2
0,64,78,1
0,51,64,113
0,39,78,20
0,51,84,0
0,59,46,0
0,59,78,0
0,71,91,0
0,64,7,1
0,40,88,4
0,47,64,0
0,51,74,0
0,52,95,1
0,39,78,30
0,51,92,0
0,56,95,0
0,59,86,0
0,71,82,0
0,59,76,1
0,64,95,2
0,51,80,50
0,52,89,0
0,35,95,2
0,35,90,0
0,47,72,0
0,47,82,0
0,51,80,0
0,57,70,0
0,59,82,0
0,66,112,0
0,71,88,0
0,54,72,1
0,57,72,2
0,63,80,1
0,51,64,114
0,39,78,40
0,51,84,0
0,54,47,0
0,59,53,0
0,59,32,1
0,47,68,8
0,47,46,0
0,51,74,0
0,39,78,22
0,51,92,0
0,54,82,0
0,57,70,0
0,59,55,0
0,66,106,0
0,59,78,1
0,63,82,2
0,63,65,40
0,47,68,64
0,51,80,0
0,66,91,0
0,35,98,2
0,35,90,0
0,47,52,0
0,51,80,0
0,54,65,0
0,54,78,0
0,57,64,0
0,57,59,0
0,63,121,0
0,63,74,0
0,57,58,1
0,63,64,2
0,51,64,124
0,39,78,10
0,51,84,0
0,54,40,0
0,57,55,0
0,63,52,0
0,47,70,2
0,51,74,0
0,54,37,0
0,39,78,8
0,51,92,0
0,54,80,0
0,54,44,0
0,57,69,0
0,57,68,0
0,63,106,0
0,63,66,0
0,57,78,1
0,59,76,2
0,63,78,1
0,35,95,4
0,47,68,0
0,47,68,0
0,51,80,0
0,28,93,4
0,35,90,0
0,40,65,0
0,40,84,0
0,51,80,0
0,59,72,0
0,64,100,0
0,59,91,0
0,64,100,0
0,56,54,1
0,60,17,2
0,64,82,1
0,51,64,60
0,39,78,38
0,51,84,0
0,56,38,0
0,59,58,1
0,51,74,12
0,52,78,0
0,39,78,4
0,40,82,0
0,51,92,0
0,56,95,0
0,59,59,0
0,59,51,0
0,64,109,0
0,59,89,1
0,64,92,2
0,64,94,0
0,52,92,64
0,51,80,0
0,66,103,0
0,28,101,4
0,35,90,0
0,40,82,0
0,44,84,0
0,51,80,0
0,56,56,0
0,59,109,0
0,59,78,0
0,64,74,0
0,68,106,0
0,56,61,1
0,59,72,2
0,64,80,1
0,51,64,124
0,30,101,4
0,39,78,0
0,51,84,0
0,56,42,0
0,59,86,0
0,64,94,0
0,71,97,0
0,51,74,124
0,52,87,0
0,32,90,16
0,39,78,0
0,51,92,0
0,56,92,0
0,59,80,0
0,59,80,1
0,64,89,2
0,51,80,6
0,52,92,0
0,33,98,2
0,35,90,0
0,45,78,0
0,45,82,0
0,51,80,0
0,57,50,0
0,61,115,0
0,61,67,0
0,61,91,0
0,69,97,0
0,57,62,1
0,59,52,2
0,61,70,1
0,64,70,2
0,51,64,122
0,39,78,60
0,51,84,0
0,57,52,0
0,57,72,0
0,45,82,20
0,51,74,0
0,39,78,26
0,51,92,0
0,57,98,0
0,61,109,0
0,59,92,1
0,61,87,2
0,64,82,1
0,69,62,22
0,45,76,4
0,51,80,0
0,73,103,0
0,33,78,4
0,35,90,0
0,45,74,0
0,45,94,0
0,51,80,0
0,64,115,0
0,71,103,0
0,76,94,0
0,57,53,1
0,59,51,2
0,61,62,1
0,64,72,2
0,73,80,30
0,51,64,62
0,69,68,0
0,39,78,44
0,51,84,0
0,57,55,0
0,61,57,1
0,64,58,2
0,45,95,6
0,51,74,0
0,39,78,8
0,51,92,0
0,57,98,0
0,61,94,0
0,63,100,0
0,69,97,0
0,61,105,1
0,64,95,2
0,45,82,4
0,51,80,0
0,61,102,0
0,64,84,0
0,28,82,2
0,35,90,0
0,40,85,0
0,40,84,0
0,51,80,0
0,56,67,0
0,59,104,0
0,59,70,0
0,59,88,0
0,64,100,0
0,56,78,1
0,59,74,2
0,64,80,1
0,51,64,124
0,39,78,32
0,51,84,0
0,56,45,0
0,59,55,0
0,51,74,14
0,52,60,0
0,52,63,0
0,61,92,0
0,39,78,4
0,51,92,0
0,56,80,0
0,59,112,0
0,59,76,0
0,64,62,0
0,59,82,1
0,64,87,2
0,40,62,14
0,51,80,0
0,52,48,0
0,56,55,0
0,28,104,4
0,35,90,0
0,40,85,0
0,40,84,0
0,51,80,0
0,52,82,0
0,56,109,0
0,59,86,0
0,64,91,0
0,68,94,0
0,51,64,32
0,52,51,0
0,39,78,8
0,51,84,0
0,56,41,0
0,59,91,0
0,59,54,1
0,64,58,2
0,51,74,8
0,52,53,0
0,64,68,0
0,32,98,4
0,39,78,0
0,44,103,0
0,51,92,0
0,56,98,0
0,59,91,0
0,64,94,0
0,68,106,0
0,59,82,1
0,64,98,2
0,40,52,100
0,51,80,0
0,52,57,1
0,33,90,1
0,35,90,0
0,45,58,0
0,45,82,0
0,51,80,0
0,57,52,0
0,61,112,0
0,61,60,0
0,61,91,0
0,69,97,0
0,47,46,1
0,57,61,2
0,59,42,1
0,61,44,2
0,64,74,2
0,51,64,120
0,39,78,23
0,51,84,0
0,57,46,0
0,57,72,0
0,59,43,1
0,61,54,2
0,45,95,20
0,51,74,0
0,39,78,46
0,51,92,0
0,57,92,0
0,61,106,0
0,59,95,1
0,61,89,2
0,64,87,1
0,69,62,34
0,33,93,6
0,45,60,0
0,51,80,0
0,73,103,0
0,33,101,4
0,35,90,0
0,45,61,0
0,45,94,0
0,51,80,0
0,64,112,0
0,71,103,0
0,76,94,0
0,57,64,1
0,61,68,2
0,64,70,1
0,73,80,60
0,51,64,62
0,69,68,0
0,39,78,10
0,51,84,0
0,57,42,0
0,63,109,0
0,61,54,1
0,45,85,6
0,51,74,0
0,33,90,14
0,39,78,0
0,51,92,0
0,57,95,0
0,61,112,0
0,61,94,0
0,69,97,0
0,61,89,1
0,64,85,2
0,45,89,4
0,51,80,0
0,64,84,0
0,28,98,2
0,35,90,0
0,40,82,0
0,40,80,0
0,51,80,0
0,56,64,0
0,59,106,0
0,59,56,0
0,59,78,0
0,64,86,0
0,68,80,0
0,56,57,1
0,59,70,2
0,64,72,1
0,51,64,4
0,39,78,6
0,51,84,0
0,56,35,0
0,59,47,0
0,61,100,0
0,59,32,1
0,40,80,12
0,40,49,0
0,51,74,0
0,28,93,16
0,39,78,0
0,51,92,0
0,56,58,0
0,59,98,0
0,59,59,0
0,64,78,0
0,68,70,0
0,59,76,1
0,64,76,2
0,40,78,34
0,40,94,0
0,51,80,0
0,35,90,4
0,40,112,0
0,40,72,0
0,51,80,0
0,56,115,0
0,59,103,0
0,64,109,0
0,71,103,0
0,52,72,1
0,56,78,2
0,59,68,1
0,64,82,2
0,51,64,122
0,39,104,20
0,39,78,0
0,51,84,0
0,56,38,0
0,59,48,1
0,64,46,2
0,40,82,26
0,51,74,0
0,52,92,1
0,37,106,4
0,39,78,0
0,51,92,0
0,56,102,0
0,56,91,0
0,64,97,0
0,68,91,0
0,59,95,1
0,64,95,2
0,40,62,3
0,51,80,0
0,52,72,1
0,35,101,6
0,35,90,0
0,47,80,0
0,47,91,0
0,51,80,0
0,57,69,0
0,59,97,0
0,66,109,0
0,66,94,0
0,54,58,1
0,57,74,2
0,63,74,1
0,51,64,110
0,39,78,33
0,51,84,0
0,54,39,0
0,57,51,1
0,63,57,2
0,47,80,10
0,51,74,0
0,35,95,12
0,39,78,0
0,51,92,0
0,54,80,0
0,57,67,0
0,66,112,0
0,57,82,1
0,63,82,2
0,47,84,6
0,47,80,64
0,51,80,0
0,59,78,0
0,63,97,0
0,66,86,0
0,35,104,4
0,35,90,0
0,47,80,0
0,47,94,0
0,51,80,0
0,57,67,0
0,57,94,0
0,63,94,0
0,66,86,0
0,69,118,0
0,54,68,1
0,57,85,2
0,59,78,1
0,63,78,2
0,51,64,10
0,39,78,60
0,51,84,0
0,54,51,0
0,47,68,78
0,51,74,0
0,39,78,8
0,51,92,0
0,54,80,0
0,57,62,0
0,57,76,0
0,63,70,0
0,66,102,0
0,66,70,0
0,57,85,1
0,59,74,2
0,63,74,1
0,47,76,3
0,47,62,0
0,51,80,0
0,63,109,0
0,28,101,4
0,35,90,0
0,40,57,0
0,40,103,0
0,51,80,0
0,56,50,0
0,59,94,0
0,64,115,0
0,68,97,0
0,56,58,1
0,59,35,2
0,64,82,1
0,51,64,9
0,39,78,49
0,51,84,0
0,56,49,0
0,64,76,0
0,59,55,1
0,64,58,2
0,51,74,8
0,52,68,0
0,52,74,0
0,28,98,26
0,39,78,0
0,51,92,0
0,56,82,0
0,56,78,0
0,59,59,0
0,64,63,0
0,68,65,0
0,59,70,1
0,64,95,2
0,40,70,16
0,51,80,0
0,52,74,0
0,56,53,0
0,28,91,4
0,35,100,0
0,40,92,0
0,46,84,0
0,59,80,0
0,68,98,0
0,59,78,1
0,64,98,1
0,68,95,1
0,28,95,60
0,35,90,0
0,40,82,0
0,40,94,0
0,51,80,0
0,56,80,0
0,59,84,0
0,64,109,0
0,64,94,0
0,52,61,1
0,56,60,2
0,59,60,1
0,64,68,2
0,51,64,122
0,39,78,20
0,51,84,0
0,56,45,0
0,56,41,0
0,59,56,0
0,64,48,0
0,59,46,1
0,64,57,2
0,40,54,8
0,40,91,0
0,51,74,0
