track,note,velocity,time
1,41,102,816
1,41,102,102
1,36,100,2
1,41,100,108
1,41,98,72
1,36,98,12
1,41,102,102
1,41,102,96
1,36,100,6
1,41,100,92
1,41,98,80
1,36,98,12
1,41,102,100
1,41,102,96
1,36,100,10
1,41,100,94
1,41,98,76
1,36,98,10
1,41,98,98
1,41,100,70
1,36,98,20
1,46,94,88
1,46,94,116
1,41,94,32
1,41,102,120
1,41,102,94
1,36,100,6
1,41,100,88
1,41,98,84
1,36,98,4
1,43,102,110
1,43,102,100
1,38,100,4
1,36,100,98
1,36,98,72
1,38,94,12
1,40,98,2
1,36,100,2
1,41,102,2
1,41,102,106
1,36,100,6
1,41,100,86
1,41,98,92
1,36,98,2
1,41,98,112
1,41,100,68
1,36,98,10
1,46,94,98
1,46,94,116
1,41,94,20
1,41,102,114
1,41,102,104
1,36,100,2
1,36,100,102
1,36,98,76
1,38,94,2
1,40,98,12
1,36,100,2
1,41,102,2
1,41,102,104
1,36,100,2
1,41,102,102
1,41,102,96
1,36,100,12
1,41,102,90
1,41,102,108
1,36,100,2
1,36,102,94
1,45,102,2
1,45,102,106
1,37,100,2
1,40,102,2
1,46,102,2
1,46,102,98
1,41,100,6
1,46,100,6
1,41,102,2
1,41,102,106
1,36,100,6
1,36,102,96
1,41,102,2
1,41,102,102
1,36,100,4
1,36,102,94
1,41,102,2
1,41,102,104
1,36,100,4
1,36,102,98
1,36,102,2
1,36,102,104
1,36,100,2
1,36,102,96
1,36,96,12
1,36,92,2
1,36,100,2
1,36,92,6
1,36,102,2
1,36,98,4
1,36,102,2
1,36,103,2
1,41,102,2
1,41,102,112
1,36,100,2
1,41,100,96
1,41,98,82
1,36,98,2
1,41,98,102
1,41,100,82
1,36,98,8
1,46,94,96
1,46,94,112
1,41,94,26
1,41,102,122
1,41,102,102
1,36,100,2
1,36,100,104
1,36,98,74
1,38,94,12
1,40,98,2
1,36,100,14
1,41,102,2
1,41,102,94
1,36,100,4
1,41,102,104
1,41,102,100
1,36,100,2
1,41,102,108
1,41,102,100
1,36,100,2
1,36,102,110
1,45,102,2
1,45,102,112
1,37,100,2
1,40,102,2
1,46,102,2
1,46,102,98
1,41,100,6
1,46,100,2
1,41,102,12
1,41,102,92
1,36,100,2
1,36,102,104
1,41,102,6
1,41,102,88
1,36,100,10
1,36,102,96
1,41,102,2
1,41,102,96
1,36,100,2
1,36,102,108
1,36,102,4
1,36,102,98
1,36,100,2
1,36,102,100
1,36,96,4
1,36,92,2
1,36,100,2
1,36,92,2
1,36,102,2
1,36,98,2
1,36,102,2
1,36,103,2
1,41,102,14
1,41,102,94
1,36,100,2
1,41,100,102
1,41,98,84
1,36,98,2
1,41,98,116
1,41,100,74
1,36,98,6
1,46,94,84
1,46,94,130
1,41,94,16
1,41,102,122
1,41,102,102
1,36,100,2
1,36,100,94
1,36,98,94
1,38,94,2
1,40,98,6
1,36,100,2
1,41,102,4
1,41,102,98
1,36,100,10
1,41,102,98
1,41,102,96
1,36,100,2
1,41,102,98
1,41,102,108
1,36,100,2
1,36,100,96
1,36,98,92
1,38,94,2
1,40,98,8
1,36,100,2
1,41,102,2
1,41,102,112
1,36,100,2
1,41,102,96
1,41,102,98
1,36,100,4
1,41,102,98
1,41,102,102
1,36,100,4
1,36,100,88
1,36,98,88
1,38,94,10
1,40,98,2
1,36,100,2
1,41,102,2
1,41,102,106
1,36,100,2
1,41,102,98
1,41,102,106
1,36,100,2
1,41,100,10
2,69,95,19612
2,60,99,4
2,65,98,6
2,60,101,96
2,65,102,0
2,69,98,8
2,65,104,82
2,62,97,2
2,70,104,0
2,65,101,2
2,69,101,2
2,60,94,6
2,60,98,844
2,65,100,4
2,69,98,4
2,65,102,96
2,69,98,2
2,60,102,6
2,70,102,86
2,65,100,4
2,62,101,2
2,69,98,4
2,65,96,2
2,60,98,10
2,60,99,836
2,65,100,2
2,69,102,0
2,65,100,102
2,69,103,2
2,60,99,4
2,63,102,84
2,70,105,0
2,65,100,2
2,65,97,14
2,60,99,2
2,69,100,0
2,70,103,820
2,62,102,6
2,65,100,0
2,65,100,100
2,70,106,6
2,62,102,2
2,63,104,90
2,72,103,0
2,67,104,4
2,70,102,0
2,62,99,4
2,65,99,2
2,69,103,854
2,65,102,6
2,60,102,2
2,65,101,100
2,60,102,2
2,69,103,4
2,62,103,80
2,70,103,0
2,67,101,12
2,65,98,0
2,60,99,6
2,69,96,0
2,67,101,844
2,60,102,4
2,64,99,6
2,67,101,100
2,64,100,2
2,60,104,2
2,69,102,94
2,60,107,6
2,65,102,0
2,60,102,6
2,64,99,2
2,67,99,6
2,65,98,436
2,65,98,110
2,65,98,40
2,65,96,22
2,65,98,6
2,65,97,48
2,65,95,38
2,65,98,6
2,65,97,84
2,65,97,130
2,65,95,20
2,65,97,40
2,65,97,56
2,65,98,12800
2,72,99,0
2,69,95,2
2,65,102,110
2,69,98,0
2,72,101,0
2,65,104,66
2,69,104,2
2,72,97,4
2,72,94,8
2,69,101,4
2,65,101,4
2,69,104,462
2,72,104,0
2,65,104,2
2,69,94,0
2,65,94,8
2,72,94,0
2,65,100,74
2,70,98,6
2,74,98,2
2,65,102,4
2,72,102,2
2,69,98,2
2,65,98,558
2,72,99,2
2,69,95,8
2,69,98,100
2,72,101,2
2,65,102,2
2,72,97,74
2,65,104,4
2,69,104,2
2,65,101,4
2,69,101,2
2,72,94,8
2,65,104,460
2,74,104,6
2,70,104,4
2,74,94,6
2,65,94,6
2,70,94,0
2,75,98,66
2,70,98,2
2,67,100,10
2,70,98,2
2,74,102,4
2,65,102,2
2,72,99,558
2,65,98,2
2,69,95,2
2,72,101,58
2,65,102,4
2,69,98,2
2,65,104,68
2,72,97,0
2,69,104,8
2,69,101,6
2,72,94,8
2,65,101,2
2,64,98,836
2,70,99,6
2,67,95,4
2,64,102,26
2,67,98,8
2,70,101,0
2,64,104,76
2,67,104,2
2,70,97,0
2,64,101,6
2,70,94,2
2,67,101,4
2,69,98,464
2,72,98,0
2,65,98,10
2,60,99,13630
2,65,98,2
2,69,95,0
2,60,101,100
2,69,98,0
2,65,102,6
2,62,97,72
2,70,104,0
2,65,104,12
2,65,101,6
2,69,101,2
2,60,94,2
2,65,100,846
2,69,98,0
2,60,98,10
2,69,98,100
2,60,102,2
2,65,102,2
2,62,101,90
2,65,100,2
2,70,102,0
2,65,96,6
2,69,98,2
2,60,98,6
2,60,99,836
2,65,100,2
2,69,102,10
2,60,99,98
2,69,103,2
2,65,100,2
2,65,100,90
2,70,105,0
2,63,102,4
2,65,97,2
2,60,99,6
2,69,100,6
2,70,103,824
2,65,100,6
2,62,102,6
2,62,102,92
2,65,100,4
2,70,106,8
2,63,104,84
2,67,104,2
2,72,103,2
2,62,99,4
2,70,102,0
2,65,99,12
2,60,102,850
2,65,102,6
2,69,103,0
2,60,102,98
2,65,101,0
2,69,103,8
2,70,103,94
2,62,103,2
2,67,101,0
2,65,98,2
2,69,96,2
2,60,99,6
2,64,99,842
2,60,102,6
2,67,101,4
2,64,100,100
2,67,101,2
2,60,104,2
2,60,107,102
2,65,102,2
2,69,102,0
2,60,102,6
2,64,99,0
2,67,99,4
2,60,98,436
2,65,98,8
2,69,98,0
2,65,102,1346
2,60,102,8
2,69,103,2
2,65,101,92
2,60,102,4
2,69,103,8
2,62,103,88
2,67,101,0
2,70,103,4
2,65,98,2
2,69,96,6
2,60,99,6
2,64,99,842
2,67,101,4
2,60,102,2
2,60,104,96
2,67,101,0
2,64,100,8
2,60,107,98
2,69,102,0
2,65,102,10
2,60,102,12
2,64,99,0
2,67,99,6
2,69,98,440
2,65,98,4
2,60,98,2
2,69,103,1342
2,60,102,2
2,65,102,2
2,60,102,98
2,69,103,10
2,65,101,2
2,70,103,78
2,67,101,2
2,62,103,4
2,69,96,8
2,60,99,2
2,65,98,4
2,60,102,836
2,64,99,10
2,67,101,0
2,60,104,100
2,64,100,4
2,67,101,2
2,65,102,98
2,69,102,0
2,60,107,6
2,64,99,0
2,60,102,8
2,67,99,2
2,60,98,442
2,65,98,8
2,69,98,0
3,65,108,6540
3,67,109,70
3,69,108,62
3,72,108,66
3,65,107,806
3,67,107,32
3,69,107,28
3,72,109,38
3,77,110,712
3,79,109,38
3,81,111,42
3,81,111,110
3,81,111,142
3,81,111,80
3,79,108,2
3,77,110,16
3,74,104,2
3,77,109,734
3,77,110,42
3,77,109,82
3,72,102,8
3,72,105,424
3,69,103,8
3,74,107,2
3,72,105,4
3,72,108,518
3,69,108,2
3,67,108,20
3,65,108,2148
3,67,109,58
3,69,108,64
3,72,108,66
3,65,107,810
3,67,107,34
3,69,107,32
3,72,109,38
3,77,110,714
3,79,109,40
3,81,111,44
3,81,111,106
3,81,108,612
3,79,110,8
3,77,110,2
3,74,104,12
3,77,109,736
3,77,110,14
3,77,109,24
3,72,102,2
3,72,105,616
3,69,103,2
3,70,107,10
3,70,107,14
3,69,105,14
3,67,108,314
3,65,108,4
3,81,110,1384
3,81,110,134
3,81,110,142
3,81,111,108
3,81,108,274
3,81,109,120
3,79,106,12
3,81,106,702
3,79,107,128
3,77,108,2
3,77,108,124
3,77,109,100
3,74,103,2
3,77,109,14
3,74,107,2
3,72,103,16
3,74,103,2
3,77,103,2
3,77,111,120
3,77,111,26
3,77,111,48
3,77,111,886
3,77,111,38
3,81,107,794
3,81,106,36
3,77,104,12
3,79,105,2
3,72,104,32
3,65,108,1802
3,67,109,10
3,69,108,20
3,72,108,2
3,65,107,780
3,67,107,24
3,69,107,12
3,72,109,8
3,77,110,708
3,79,109,50
3,81,111,32
3,81,111,114
3,81,108,614
3,79,110,16
3,77,110,6
3,74,104,2
3,77,109,732
3,77,110,16
3,77,105,986
3,74,103,2
3,76,107,4
3,76,107,20
3,76,107,20
3,77,107,12
3,79,107,22
3,77,108,2
3,81,110,1564
3,81,110,136
3,81,110,146
3,81,111,106
3,81,108,76
3,81,109,134
3,79,106,4
3,81,106,696
3,79,107,36
3,77,108,2
3,77,108,120
3,77,109,12
3,77,109,2
3,74,103,8
3,77,109,4
3,74,107,8
3,72,103,2
3,74,103,2
3,77,103,8
3,77,111,112
3,77,111,20
3,77,111,54
3,77,111,880
3,77,111,56
3,81,107,788
3,81,106,38
3,77,104,2
3,79,105,2
3,72,104,30
3,79,111,848
3,77,105,14
3,79,111,2
3,79,111,114
3,77,109,2
3,79,112,2
3,77,111,2
3,81,109,382
3,81,108,48
3,77,109,2
3,79,110,4
3,77,111,2
3,77,107,420
3,77,111,80
3,77,111,150
3,77,111,142
3,77,107,246
3,77,99,80
3,77,107,108
3,74,99,18
3,77,112,228
3,77,113,42
3,77,113,58
3,77,111,732
3,72,107,22
3,76,109,80
3,76,110,104
3,76,110,124
3,77,111,12
3,79,110,2
3,77,111,2
3,77,113,644
3,77,113,222
3,72,110,16
3,77,113,2
3,77,112,660
3,74,109,2
3,76,111,30
3,76,113,102
3,76,109,88
3,77,111,2
3,79,110,8
3,77,111,2
3,77,113,682
3,77,113,220
3,72,110,16
3,77,113,6
3,77,112,664
3,74,109,2
3,76,111,26
3,76,113,114
3,76,109,84
3,77,111,2
3,79,110,2
3,77,111,2
4,65,63,31466
4,72,64,2
4,77,63,10
4,73,62,6
4,64,63,4
4,76,63,4
4,70,62,0
4,74,62,0
4,77,59,8
4,77,57,6
4,69,61,6
4,72,61,0
4,77,62,8
4,69,60,2
4,72,62,2
4,67,60,4
4,72,62,0
4,76,62,0
4,65,63,12412
4,77,63,2
4,72,64,8
4,76,63,6
4,73,62,2
4,64,63,6
4,70,62,0
4,74,62,4
4,77,59,4
4,69,61,6
4,72,61,0
4,77,57,0
4,77,62,0
4,72,62,8
4,69,60,2
4,72,62,6
4,67,60,4
4,76,62,0
5,77,127,1108
5,74,127,296
5,72,127,112
5,69,123,106
5,65,122,126
5,77,127,2010
5,74,127,288
5,72,127,116
5,69,123,110
5,65,122,128
5,74,125,11218
5,76,117,312
5,77,127,114
5,76,101,500
5,72,98,6
5,74,107,6
5,77,108,2
5,78,118,180
5,75,111,2
5,79,97,6
5,76,106,8
5,72,79,23806
5,76,94,4
5,74,95,4
5,77,95,2
5,78,102,6
5,75,96,2
5,79,93,8
5,76,102,4
5,84,83,10376
5,72,83,6
5,89,102,116
5,86,89,2
5,77,112,4
5,84,105,6
5,88,68,2
5,76,68,2
5,85,68,0
5,83,68,2
5,74,59,0
5,86,59,2
5,81,59,8
5,83,59,2
5,79,54,0
5,72,54,4
5,81,54,0
5,84,54,0
5,83,45,2
5,78,45,2
5,80,45,4
5,71,45,4
5,78,37,0
5,81,37,0
5,69,37,6
5,76,37,0
5,72,83,190
5,84,83,2
5,84,105,122
5,77,112,4
5,89,102,6
5,86,89,2
5,85,68,0
5,88,68,0
5,83,68,6
5,76,68,2
5,83,59,0
5,74,59,2
5,81,59,6
5,86,59,0
5,81,54,2
5,84,54,0
5,72,54,6
5,79,54,2
5,80,45,6
5,71,45,2
5,78,45,0
5,83,45,0
5,69,37,36
5,76,37,2
5,81,37,2
5,78,37,4
5,72,83,200
5,84,83,4
5,77,112,116
5,86,89,0
5,89,102,0
5,84,105,2
5,83,68,8
5,88,68,0
5,76,68,2
5,85,68,0
5,86,59,4
5,81,59,8
5,74,59,2
5,83,59,0
5,79,54,0
5,72,54,2
5,84,54,0
5,81,54,2
5,80,45,2
5,78,45,4
5,83,45,2
5,71,45,4
5,69,37,2
5,76,37,0
5,78,37,2
5,81,37,0
5,76,94,11326
5,72,79,8
5,77,95,4
5,74,95,4
5,78,102,0
5,75,96,4
5,79,93,14
5,76,102,2
5,89,90,1150
5,77,94,2
5,84,94,2
5,89,92,480
5,84,92,6
5,77,94,2
5,89,93,462
5,77,96,4
5,84,93,6
5,84,93,464
5,89,94,4
5,77,94,4
5,84,93,1220
5,77,94,6
5,89,94,2
5,84,93,464
5,77,93,10
5,89,92,0
5,82,95,468
5,77,94,2
5,89,94,6
5,82,94,464
5,77,96,2
5,89,93,6
5,77,94,1226
5,89,96,0
5,84,96,10
5,77,94,444
5,89,94,2
5,84,94,10
5,76,93,458
5,88,93,4
5,82,95,6
5,88,94,460
5,76,93,6
5,82,96,4
5,89,94,1242
5,77,98,4
5,74,96,286
5,86,98,8
5,72,88,104
5,84,92,4
5,69,88,92
5,81,86,12
5,77,94,94
5,65,86,6
5,77,102,462
5,89,98,10
5,86,96,290
5,74,96,4
5,84,92,100
5,72,92,6
5,81,90,94
5,69,88,6
5,65,88,104
5,77,94,0
5,84,96,424
5,89,96,4
5,77,94,6
5,84,94,438
5,89,94,2
5,77,94,4
5,82,95,452
5,76,93,4
5,88,93,4
5,76,93,464
5,88,94,2
5,82,96,6
5,89,94,1242
5,77,98,6
5,86,98,290
5,74,96,4
5,84,92,94
5,72,88,6
5,69,88,102
5,81,86,8
5,77,94,94
5,65,86,8
5,77,102,470
5,89,98,0
5,74,96,290
5,86,96,8
5,84,92,98
5,72,92,4
5,69,88,98
5,81,90,4
5,77,94,100
5,65,88,6
5,84,96,428
5,77,94,10
5,89,96,0
5,84,94,434
5,89,94,0
5,77,94,8
5,76,93,452
5,88,93,4
5,82,95,2
5,88,94,466
5,76,93,8
5,82,96,0
5,77,98,1238
5,89,94,2
5,74,96,296
5,86,98,2
5,84,92,100
5,72,88,8
5,69,88,92
5,81,86,4
5,65,86,104
5,77,94,2
5,89,98,456
5,77,102,2
5,86,96,298
5,74,96,2
5,84,92,98
5,72,92,4
5,81,90,110
5,69,88,2
5,65,88,94
5,77,94,4
6,40,100,518
6,41,106,2
6,40,116,1192
6,41,104,14
6,40,116,1200
6,41,106,2
6,40,116,1198
6,41,104,10
6,40,116,1206
6,41,106,2
6,40,116,1200
6,41,104,2
6,40,116,1200
6,41,104,10
6,45,116,1200
6,46,104,2
6,40,116,1206
6,41,104,2
6,40,116,1198
6,41,106,4
6,41,116,1200
6,43,104,2
6,47,116,1212
6,48,104,2
6,40,116,1204
6,41,106,6
6,40,116,1194
6,41,104,4
6,40,116,1200
6,41,104,4
