track,note,velocity,time
1,42,112,310
1,42,96,290
1,42,111,64
1,37,111,188
1,42,110,188
1,42,94,282
1,42,111,68
1,37,113,188
1,42,112,188
1,42,94,290
1,42,113,64
1,37,114,188
1,42,117,188
1,42,96,282
1,42,116,68
1,37,117,188
1,42,117,188
1,42,92,290
1,42,116,64
1,37,116,188
1,42,111,188
1,42,92,282
1,42,113,68
1,37,114,188
1,42,116,188
1,42,97,290
1,42,110,64
1,37,115,188
1,42,115,188
1,42,89,282
1,42,117,68
1,37,111,188
1,42,116,188
1,42,97,290
1,42,111,64
1,37,117,188
1,42,109,188
1,42,93,282
1,42,109,68
1,37,116,188
1,37,112,188
1,37,89,282
1,37,115,68
1,44,110,188
1,37,110,188
1,37,94,282
1,37,114,68
1,44,116,188
1,37,114,188
1,37,90,282
1,37,114,68
1,44,113,188
1,37,114,188
1,37,89,282
1,37,111,68
1,44,110,188
1,37,111,188
1,37,89,282
1,37,112,68
1,44,113,188
1,37,111,188
1,37,93,282
1,37,115,68
1,44,113,188
1,37,117,188
1,37,91,282
1,37,109,68
1,44,116,188
1,37,116,188
1,37,96,282
1,37,116,68
1,44,114,188
1,42,114,188
1,42,97,290
1,42,110,64
1,37,113,188
1,42,110,188
1,42,95,282
1,42,111,68
1,37,110,188
1,42,114,188
1,42,93,290
1,42,113,64
1,37,117,188
1,42,116,188
1,42,89,282
1,42,116,68
1,37,109,188
1,42,117,188
1,42,95,290
1,42,116,64
1,37,118,188
1,42,115,188
1,42,92,282
1,42,111,68
1,37,108,188
1,42,111,188
1,42,92,290
1,42,116,64
1,37,113,188
1,42,113,188
1,42,93,282
1,42,112,68
1,37,115,188
1,35,111,188
1,35,89,282
1,35,111,68
1,42,116,188
1,35,109,188
1,35,91,282
1,35,116,68
1,42,108,188
1,35,109,188
1,35,97,282
1,35,109,68
1,42,112,188
1,35,117,188
1,35,92,282
1,35,112,68
1,42,112,188
1,42,111,188
1,42,94,290
1,42,117,64
1,37,115,188
1,42,109,188
1,42,94,282
1,42,116,68
1,37,108,188
1,37,110,188
1,37,93,282
1,37,111,68
1,44,109,188
1,37,109,188
1,37,94,282
1,37,116,68
1,44,110,188
1,42,111,188
1,42,96,290
1,42,112,64
1,37,118,188
1,42,116,188
1,42,90,282
1,42,111,68
1,37,108,188
1,43,115,188
1,43,98,290
1,43,114,64
1,38,114,188
1,43,117,188
1,43,90,282
1,43,115,68
1,38,109,188
1,43,113,188
1,43,97,290
1,43,117,64
1,38,116,188
1,43,111,188
1,43,90,282
1,43,110,68
1,38,110,188
1,43,111,188
1,43,91,290
1,43,116,64
1,38,113,188
1,43,113,188
1,43,89,282
1,43,110,68
1,38,109,188
1,43,117,188
1,43,96,290
1,43,112,64
1,38,111,188
1,43,112,188
1,43,93,282
1,43,113,68
1,38,113,188
1,38,117,188
1,38,91,282
1,38,117,68
1,45,115,188
1,38,116,188
1,38,91,282
1,38,109,68
1,45,110,188
1,38,112,188
1,38,93,282
1,38,114,68
1,45,109,188
1,38,111,188
1,38,90,282
1,38,112,68
1,45,116,188
1,38,117,188
1,38,90,282
1,38,109,68
1,45,116,188
1,38,116,188
1,38,96,282
1,38,112,68
1,45,111,188
1,38,111,188
1,38,89,282
1,38,109,68
1,45,115,188
1,38,117,188
1,38,90,282
1,38,115,68
1,45,111,188
1,43,112,188
1,43,98,290
1,43,111,64
1,38,115,188
1,43,113,188
1,43,96,282
1,43,110,68
1,38,114,188
1,43,114,188
1,43,94,290
1,43,113,64
1,38,110,188
1,43,111,188
1,43,93,282
1,43,113,68
1,38,116,188
1,43,116,188
1,43,94,290
1,43,112,64
1,38,118,188
1,43,117,188
1,43,89,282
1,43,112,68
1,38,108,188
1,43,116,188
1,43,97,290
1,43,116,64
1,38,118,188
1,43,112,188
1,43,90,282
1,43,115,68
1,38,113,188
1,36,111,188
1,36,89,282
1,36,112,68
1,43,115,188
1,36,110,188
1,36,94,282
1,36,110,68
1,43,112,188
1,36,110,188
1,36,97,282
1,36,109,68
1,43,110,188
1,36,109,188
1,36,90,282
1,36,112,68
1,43,111,188
1,43,112,188
1,43,92,290
1,43,113,64
1,38,112,188
1,43,109,188
1,43,94,282
1,43,112,68
1,38,108,188
1,38,117,188
1,38,97,282
1,38,111,68
1,45,110,188
1,38,114,188
1,38,94,282
1,38,114,68
1,45,109,188
1,43,113,188
1,43,94,290
1,43,113,64
1,38,112,188
1,43,114,188
1,43,97,282
1,43,109,68
1,38,113,188
1,38,117,188
1,38,95,282
1,38,113,68
1,45,116,188
1,38,116,188
1,38,91,282
1,38,111,68
1,45,109,188
1,43,116,188
1,43,94,290
1,43,113,64
1,38,118,188
1,43,117,188
1,43,93,282
1,43,110,68
1,38,111,188
1,31,110,184
2,58,83,0
2,61,104,96
2,70,74,4
2,78,89,96
2,85,82,4
2,70,68,0
2,66,61,10
2,61,52,8
2,73,56,3704
2,70,78,24
2,70,82,62
2,71,78,4
2,73,85,268
2,75,85,312
2,77,85,14
2,78,87,330
2,80,82,360
2,82,95,6
2,77,90,6
2,83,64,0
2,73,61,6
2,61,49,196
2,68,74,0
2,65,67,0
2,68,85,210
2,70,79,6
2,71,66,8
2,68,72,146
2,70,84,2
2,71,71,28
2,73,78,524
2,75,77,222
2,77,67,32
2,78,69,4
2,80,67,8
2,82,82,32
2,70,87,348
2,61,56,0
2,66,53,0
2,73,67,3082
2,70,69,10
2,70,71,96
2,71,75,94
2,73,81,42
2,75,87,18
2,76,79,32
2,78,93,416
2,80,91,16
2,78,85,14
2,87,76,8
2,71,77,352
2,66,47,0
2,74,87,0
2,66,48,148
2,70,72,0
2,73,57,16
2,68,79,240
2,73,100,2
2,65,70,2
2,66,72,258
2,70,88,4
2,61,60,2
2,82,92,748
2,85,78,770
2,90,87,760
2,91,74,16
2,86,94,2
2,83,74,4
2,62,72,206
2,71,85,0
2,67,81,0
2,74,58,3800
2,71,76,196
2,71,87,62
2,72,70,4
2,74,83,268
2,76,86,312
2,78,92,14
2,79,87,330
2,81,76,360
2,83,91,6
2,78,84,6
2,84,69,0
2,74,55,6
2,62,56,96
2,69,72,0
2,66,65,0
2,69,78,210
2,71,79,6
2,72,70,8
2,69,68,146
2,71,85,2
2,72,69,28
2,74,84,524
2,76,82,222
2,78,72,32
2,79,69,4
2,81,67,8
2,83,82,32
2,62,55,96
2,71,83,0
2,67,61,0
2,74,61,3082
2,71,65,10
2,71,71,96
2,72,74,94
2,74,80,42
2,76,85,18
2,77,82,32
2,79,94,416
2,81,84,16
2,79,85,14
2,88,82,8
2,75,85,288
2,67,46,0
2,72,70,0
2,67,46,148
2,71,68,0
2,74,66,16
2,69,72,240
2,74,99,2
2,66,74,2
2,67,73,258
2,71,87,4
2,62,57,2
2,69,73,86
2,74,97,2
2,66,70,2
2,67,69,258
2,71,85,4
2,62,57,2
2,79,96,1576
2,83,92,4
3,58,100,6400
3,58,102,196
3,59,103,288
3,61,107,284
3,58,95,1452
3,58,97,106
3,59,88,288
3,61,103,182
3,63,98,340
3,65,97,370
3,66,99,376
3,68,99,370
3,70,97,356
3,71,104,6
3,56,102,1636
3,56,115,204
3,58,101,104
3,59,114,82
3,56,110,1844
3,58,101,24
3,59,90,192
3,61,97,556
3,63,111,184
3,65,90,16
3,66,93,384
3,68,100,374
3,70,120,162
3,58,104,288
3,58,92,156
3,59,95,40
3,61,89,384
3,58,105,1098
3,58,105,32
3,59,104,4
3,61,110,14
3,63,85,4
3,64,104,66
3,66,97,100
3,68,104,118
3,66,99,106
3,75,114,4
3,74,112,192
3,76,106,168
3,74,109,138
3,73,102,192
3,70,104,1566
3,71,95,12
3,71,103,106
3,70,106,14
3,68,96,4
3,66,82,44
3,65,97,384
3,66,90,4
3,68,104,156
3,65,99,0
3,66,90,384
3,59,102,4574
3,59,99,196
3,60,103,288
3,62,105,284
3,59,95,1452
3,59,99,106
3,60,95,288
3,62,104,182
3,64,97,340
3,66,103,370
3,67,100,376
3,69,97,370
3,71,97,356
3,72,102,6
3,57,102,384
3,57,113,100
3,59,101,104
3,60,112,82
3,57,105,1844
3,59,101,24
3,60,91,192
3,62,102,556
3,64,107,184
3,66,87,16
3,67,96,384
3,69,93,374
3,71,113,162
3,59,108,0
3,59,89,156
3,60,91,40
3,62,92,384
3,59,102,1098
3,59,104,32
3,60,103,4
3,62,111,14
3,64,87,4
3,65,97,66
3,67,96,100
3,69,97,118
3,67,100,106
3,76,111,4
3,75,106,96
3,77,107,1636
3,75,111,138
3,74,95,192
3,71,108,1566
3,72,100,12
3,72,100,106
3,71,105,14
3,69,95,4
3,67,78,44
3,66,101,384
3,67,94,4
3,69,97,156
3,66,100,0
3,67,95,384
3,72,97,1502
3,72,104,106
3,71,105,14
3,69,90,4
3,67,81,44
3,66,96,384
3,67,93,4
3,69,100,156
3,66,93,0
3,67,97,384
4,62,112,59170
4,67,103,144
4,69,112,372
4,62,109,4
4,67,96,1172
4,69,108,368
4,71,97,364
4,67,104,566
4,64,92,198
4,62,98,0
4,74,93,3504
4,72,86,10
4,71,79,372
4,69,74,358
4,67,78,4
4,69,80,192
4,66,78,176
4,64,82,352
4,69,81,774
4,66,63,0
4,71,84,8
4,67,67,0
4,69,88,370
4,72,78,0
4,66,71,1228
4,69,95,6
4,67,64,8
4,71,83,0
4,69,87,18
4,72,72,8
4,69,73,128
4,66,79,2
4,66,65,62
4,69,84,4
4,67,83,376
4,64,64,14
4,74,108,3838
4,72,77,22
4,74,94,46
4,72,76,50
4,71,89,50
4,69,94,392
4,71,92,26
4,67,85,2
4,64,84,10
4,62,83,384
4,67,87,88
4,62,78,4
4,66,71,364
4,69,88,8
4,71,74,14
4,67,89,2
4,62,84,1210
4,67,88,0
4,69,88,0
4,66,72,0
4,71,72,16
4,67,83,4
4,67,87,120
4,64,89,186
4,62,95,350
4,72,101,3718
4,74,98,12
4,76,96,0
4,76,99,78
4,74,90,550
4,72,84,6
4,74,94,352
4,75,90,382
4,72,106,14
4,74,110,208
4,75,106,332
4,79,111,6
4,77,111,788
4,75,112,514
4,74,106,192
4,71,96,14
4,72,97,242
4,76,98,8
4,74,108,260
4,72,101,6844
4,71,101,66
4,69,104,46
4,67,99,76
4,66,94,70
4,67,94,90
4,69,108,74
4,72,97,124
4,71,94,72
4,55,93,4
4,62,90,72
4,55,125,0
4,71,94,0
5,42,79,160
5,54,65,0
5,54,71,96
5,49,86,6108
5,61,68,3146
5,63,76,2620
5,61,73,454
5,54,34,24
5,42,60,14
5,54,92,172
5,61,60,3098
5,54,84,126
5,64,76,1540
5,59,88,4
5,63,83,0
5,62,69,40
5,58,69,3012
5,61,62,0
5,54,63,1502
5,56,84,1508
5,54,68,3086
5,55,74,4
5,43,71,0
5,62,71,2198
5,60,80,1960
5,59,70,374
5,57,74,2654
5,59,79,444
5,54,57,2954
5,57,76,22
5,50,77,3030
5,54,81,4
5,55,82,368
5,57,78,392
5,54,85,3022
5,55,83,1152
5,57,80,386
5,55,79,1500
5,55,84,70
5,62,76,10
5,60,83,2658
5,59,73,320
5,43,87,2
5,53,55,1588
5,59,52,16
5,62,73,8
5,48,62,1074
5,60,61,4
5,55,55,0
5,62,84,2564
5,63,73,392
5,62,93,2246
5,60,95,382
5,59,87,10
5,50,78,4
5,43,89,0
5,54,51,130
5,50,62,4
5,57,72,16
5,62,75,1496
5,60,71,1070
5,55,62,6
5,59,59,10
5,54,65,12
5,57,92,18
5,62,85,1540
5,55,59,220
5,43,76,8
5,59,71,4
5,50,72,6
5,67,65,4
5,43,68,0
5,55,70,2
6,84,103,101588
6,84,112,68
6,83,110,76
6,81,98,58
6,79,118,70
6,78,110,62
6,79,118,74
6,81,110,64
6,78,105,76
6,79,116,52
6,84,108,1316
6,84,95,60
6,83,103,66
6,81,111,54
6,79,115,98
6,78,106,80
6,79,99,88
6,81,102,76
6,78,111,120
6,79,112,104
6,67,94,586
6,55,94,0
6,62,100,0
6,43,100,0
6,79,98,10
7,66,76,1718
7,70,79,4
7,58,71,6148
7,58,72,38
7,59,70,10
7,61,79,230
7,63,72,280
7,65,58,18
7,66,66,362
7,68,67,360
7,70,78,12
7,71,78,12
7,56,72,6244
7,58,70,80
7,59,78,36
7,61,69,32
7,63,69,6
7,65,66,40
7,66,68,366
7,68,67,108
7,70,74,36
7,58,63,6438
7,58,78,64
7,59,69,26
7,61,80,222
7,63,68,356
7,64,62,24
7,66,76,334
7,68,80,6
7,66,75,16
7,75,91,22
7,74,104,294
7,71,83,0
7,73,95,2292
7,76,78,0
7,71,68,16
7,74,99,4
7,70,79,0
7,73,78,0
7,71,84,1070
7,71,88,118
7,70,92,54
7,68,80,18
7,66,96,92
7,65,80,46
7,66,75,4
7,68,86,384
7,71,88,120
7,70,95,10
7,73,91,1536
7,67,88,16
7,74,108,0
7,71,99,0
7,55,72,6
7,59,89,0
7,59,91,284
7,55,75,4
7,60,78,40
7,57,78,0
7,62,81,12
7,59,82,8
7,59,84,928
7,55,71,4
7,59,81,66
7,55,71,8
7,60,77,32
7,57,68,6
7,62,84,32
7,59,92,4
7,64,90,60
7,60,73,12
7,66,74,4
7,62,87,6
7,67,80,368
7,64,74,4
7,69,77,32
7,66,76,2
7,71,93,10
7,67,72,4
7,72,95,10
7,69,85,2
7,54,86,480
7,57,75,0
7,54,98,282
7,57,83,0
7,59,84,20
7,55,89,0
7,60,89,54
7,57,83,12
7,54,88,1502
7,57,70,4
7,59,80,10
7,55,71,0
7,60,84,52
7,57,77,12
7,62,94,6
7,59,64,6
7,64,84,56
7,60,74,18
7,66,107,38
7,62,80,8
7,67,92,10
7,64,70,12
7,66,86,362
7,69,97,0
7,71,96,24
7,67,83,8
7,55,75,96
7,59,87,0
7,59,89,204
7,55,84,0
7,60,71,94
7,57,76,0
7,62,88,70
7,59,81,8
7,59,87,738
7,55,78,0
7,59,73,64
7,55,71,10
7,60,81,58
7,57,76,6
7,62,82,52
7,59,77,4
7,64,87,214
7,60,76,4
7,65,77,28
7,62,81,4
7,67,97,190
7,64,88,2
7,69,103,58
7,65,81,6
7,67,94,82
7,64,90,2
7,64,101,10
7,60,95,0
7,76,76,172
7,72,87,6
7,72,73,96
7,75,77,2
7,77,89,2
7,74,103,0
7,75,94,110
7,72,98,6
7,74,110,36
7,71,94,0
7,71,97,500
7,67,88,4
7,72,69,14
7,69,91,2
7,69,89,64
7,72,80,4
7,71,91,26
7,67,66,6
7,66,78,120
7,69,92,0
7,67,93,4
7,64,83,10
7,66,90,124
7,62,93,2
7,67,97,4
7,64,83,2
7,69,92,6
7,66,82,6
7,72,93,168
7,69,104,6
7,67,84,306
7,71,88,4
7,72,74,390
7,69,92,2
7,69,95,64
7,72,80,4
7,71,90,26
7,67,67,6
7,66,77,120
7,69,95,0
7,67,89,4
7,64,79,10
7,66,84,124
7,62,91,2
7,67,89,4
7,64,83,2
7,69,95,6
7,66,82,6
7,72,93,168
7,69,104,6
7,67,79,306
7,71,84,4
8,54,75,14
8,58,71,30
8,61,84,50
8,54,74,112
8,58,71,26
8,61,80,2
8,54,78,132
8,58,75,4
8,63,86,44
8,54,82,112
8,58,73,26
8,61,91,54
8,65,27,4928
8,73,64,38
8,65,23,140
8,73,64,48
8,65,26,148
8,73,68,44
8,71,73,210
8,65,56,6
8,70,69,210
8,65,53,0
8,68,69,3850
8,65,62,4
8,66,61,38
8,70,73,2
8,68,63,40
8,65,62,12
8,66,57,40
8,70,72,2
8,68,74,4
8,65,52,12
8,66,60,550
8,65,68,196
8,66,44,70
8,73,88,28
8,66,64,102
8,73,83,56
8,66,63,172
8,71,86,12
8,66,67,136
8,73,89,38
8,54,70,20
8,61,80,0
8,59,78,64
8,61,81,10
8,54,69,4
8,61,76,116
8,54,67,4
8,54,69,150
8,63,76,54
8,54,66,130
8,61,84,46
8,61,61,11046
8,66,60,26
8,70,68,34
8,70,79,142
8,66,60,4
8,61,50,2
8,66,63,162
8,61,55,2
8,70,69,6
8,61,57,160
8,66,68,24
8,70,87,2
9,42,84,136
9,35,111,0
9,42,54,184
9,42,74,184
9,40,89,0
