track,note,velocity,time
1,88,90,1344
1,88,90,64
1,88,90,64
1,88,90,64
1,90,90,64
1,88,90,256
1,79,90,508
1,88,90,10304
1,81,90,64
1,81,90,64
1,81,90,64
1,79,90,64
1,81,90,64
1,81,90,128
1,79,90,64
1,81,90,64
1,79,90,64
1,81,90,64
1,79,90,64
1,84,90,64
1,79,90,128
1,81,90,64
1,84,90,1984
1,84,90,64
1,81,90,64
1,84,90,64
1,84,90,128
1,81,90,64
1,84,90,64
1,84,90,64
1,84,90,256
1,84,90,64
1,84,90,128
1,83,90,64
1,86,90,64
1,81,90,64
1,81,90,96
1,81,90,96
1,79,90,96
1,84,90,1696
1,84,90,64
1,81,90,64
1,84,90,64
1,84,90,128
1,81,90,64
1,84,90,64
1,84,90,64
1,78,90,128
1,79,90,64
1,81,90,64
1,81,90,64
1,79,90,64
1,84,90,64
1,79,90,192
1,81,90,2176
1,79,90,64
1,81,90,64
1,81,90,64
1,79,90,64
1,84,90,64
1,84,90,128
1,84,90,128
1,84,90,64
1,84,90,64
1,81,90,64
1,86,90,64
1,81,90,128
1,84,90,128
1,81,90,128
1,81,90,64
1,79,90,64
1,78,90,2816
1,81,90,0
1,78,90,320
1,81,90,0
1,79,90,512
1,83,90,0
1,79,90,128
1,83,90,0
1,81,90,64
1,84,90,0
1,78,90,64
1,81,90,0
1,84,90,3584
1,79,90,128
1,81,90,64
1,81,90,128
1,79,90,64
1,81,90,64
1,81,90,64
1,84,90,128
1,81,90,128
1,81,90,128
1,85,90,2624
1,84,90,64
1,84,90,64
1,81,90,64
1,84,90,64
1,84,90,128
1,81,90,64
1,84,90,64
1,84,90,128
1,84,90,128
1,86,90,64
1,88,90,64
1,84,90,64
1,81,90,64
1,81,90,2432
1,85,90,0
1,85,90,64
1,81,90,0
1,84,90,64
1,88,90,0
1,84,90,64
1,88,90,0
1,84,90,64
1,88,90,0
1,79,90,64
1,83,90,0
1,81,90,64
1,85,90,0
1,81,90,128
1,85,90,0
1,81,90,128
1,85,90,0
1,81,90,32
1,85,90,0
1,81,90,32
1,85,90,0
1,81,90,64
1,85,90,0
1,81,90,128
1,85,90,0
1,81,90,64
1,85,90,0
1,81,90,64
1,85,90,0
1,84,90,64
1,88,90,0
1,80,90,64
1,83,90,0
1,81,90,64
1,85,90,0
1,81,90,2368
1,79,90,64
1,84,90,64
1,83,90,64
1,84,90,64
1,84,90,128
1,84,90,128
1,79,90,64
1,86,90,64
1,81,90,64
1,81,90,64
1,85,90,128
1,81,90,64
1,79,90,64
1,81,90,64
1,78,90,2816
1,81,90,0
1,78,90,320
1,81,90,0
1,79,90,512
1,83,90,0
1,79,90,128
1,83,90,0
1,81,90,64
1,84,90,0
1,78,90,64
1,81,90,0
1,83,90,3584
1,87,90,0
1,83,90,128
1,87,90,0
1,83,90,64
1,87,90,0
1,83,90,128
1,87,90,0
1,85,90,128
1,88,90,0
1,83,90,64
1,87,90,0
1,83,90,64
1,87,90,0
1,80,90,128
1,83,90,0
1,78,90,32
1,81,90,0
1,76,90,32
1,80,90,0
1,76,90,256
1,81,90,64
1,85,90,0
1,81,90,64
1,85,90,0
1,81,90,64
1,85,90,0
1,81,90,64
1,85,90,0
1,76,90,192
1,81,90,0
1,76,90,64
1,81,90,0
1,78,90,64
1,82,90,0
1,79,90,64
1,83,90,0
1,79,90,64
1,83,90,0
1,79,90,128
1,83,90,0
1,74,90,128
1,79,90,0
1,79,90,64
1,83,90,0
1,81,90,1984
1,86,90,0
1,79,90,64
1,84,90,0
1,81,90,64
1,86,90,0
1,81,90,64
1,86,90,0
1,81,90,64
1,86,90,0
1,84,90,128
1,88,90,0
1,81,90,64
1,85,90,0
1,81,90,1728
1,86,90,0
1,81,90,64
1,86,90,0
1,81,90,64
1,86,90,0
1,84,90,128
1,88,90,0
1,81,90,64
1,84,90,0
1,86,90,1728
1,81,90,0
1,86,90,64
1,81,90,0
1,81,90,64
1,86,90,0
1,84,90,128
1,88,90,0
1,81,90,64
1,85,90,0
1,86,90,1728
1,81,90,0
1,86,90,64
1,81,90,0
1,81,90,64
1,86,90,0
1,84,90,128
1,88,90,0
1,84,90,64
1,81,90,0
1,81,90,2880
1,81,90,64
1,84,90,64
1,79,90,128
1,81,90,64
1,84,90,2624
1,84,90,64
1,84,90,128
1,84,90,128
1,86,90,128
1,81,90,64
1,81,90,64
1,84,90,64
1,81,90,128
1,79,90,64
1,81,90,64
1,84,90,64
1,81,90,64
1,81,90,2304
1,84,90,64
1,84,90,64
1,84,90,64
1,84,90,128
1,84,90,64
1,84,90,64
1,81,90,64
1,86,90,64
1,81,90,128
1,84,90,128
1,81,90,64
1,79,90,64
1,81,90,64
1,81,90,64
1,81,90,2624
1,88,90,64
1,84,90,0
1,84,90,64
1,88,90,0
1,84,90,64
1,88,90,0
1,79,90,64
1,83,90,0
1,81,90,64
1,85,90,0
1,81,90,128
1,85,90,0
1,84,90,64
1,88,90,0
1,79,90,64
1,83,90,0
1,79,90,64
1,83,90,0
1,81,90,64
1,85,90,0
1,81,90,128
1,85,90,0
1,79,90,64
1,83,90,0
1,78,90,64
1,81,90,0
1,81,90,64
1,85,90,0
1,83,90,1856
1,84,90,192
1,81,90,64
1,84,90,64
1,84,90,128
1,84,90,128
1,84,90,128
1,81,90,64
1,86,90,64
1,81,90,128
1,84,90,128
1,81,90,128
1,81,90,64
1,72,90,64
1,78,90,2816
1,81,90,0
1,78,90,320
1,81,90,0
1,79,90,512
1,83,90,0
1,79,90,128
1,83,90,0
1,81,90,64
1,85,90,0
1,78,90,64
1,81,90,0
1,83,90,3584
1,87,90,0
1,83,90,128
1,87,90,0
1,83,90,64
1,87,90,0
1,83,90,128
1,87,90,0
1,85,90,128
1,88,90,0
1,83,90,64
1,87,90,0
1,83,90,64
1,87,90,0
1,80,90,128
1,83,90,0
1,78,90,32
1,81,90,0
1,76,90,32
1,80,90,0
1,78,90,256
1,81,90,64
1,85,90,0
1,81,90,64
1,85,90,0
1,81,90,64
1,85,90,0
1,81,90,64
1,85,90,0
1,76,90,192
1,81,90,0
1,76,90,64
1,81,90,0
1,79,90,64
1,83,90,0
1,79,90,64
1,83,90,0
1,79,90,64
1,83,90,0
1,79,90,128
1,83,90,0
1,71,90,128
1,76,90,64
1,62,90,448
1,60,90,64
1,57,90,64
1,81,90,896
1,86,90,0
1,79,90,64
1,84,90,0
1,81,90,64
1,86,90,0
1,81,90,64
1,86,90,0
1,81,90,64
1,86,90,0
1,84,90,128
1,88,90,0
1,85,90,64
1,81,90,0
1,86,90,1728
1,81,90,0
1,86,90,64
1,81,90,0
1,86,90,64
1,81,90,0
1,84,90,128
1,88,90,0
1,81,90,160
1,85,90,0
1,86,90,1632
1,81,90,0
1,79,90,64
1,84,90,0
1,81,90,64
1,86,90,0
1,84,90,128
1,88,90,0
1,81,90,160
1,85,90,0
1,81,90,1632
1,86,90,0
1,81,90,64
1,86,90,0
1,81,90,64
1,86,90,0
1,84,90,128
1,88,90,0
1,81,90,160
1,84,90,0
1,81,90,2784
1,81,90,64
1,84,90,64
1,81,90,64
1,81,90,64
1,83,90,64
1,82,90,0
1,83,90,32
1,70,90,96
1,90,90,512
1,75,90,1280
1,68,90,128
1,65,90,704
1,63,90,64
1,58,90,1664
1,59,90,32
1,83,90,3936
1,83,90,64
1,87,90,64
1,83,90,128
1,83,90,64
1,87,90,64
2,60,84,3072
2,57,84,256
2,69,84,256
2,74,84,0
2,78,84,0
2,57,84,256
2,69,84,256
2,74,84,0
2,78,84,0
2,57,84,64
2,66,84,256
2,73,84,0
2,60,84,256
2,67,84,0
2,52,84,64
2,55,84,1216
2,57,84,64
2,64,84,0
2,69,84,0
2,84,84,640
2,61,84,192
2,57,84,64
2,69,84,1024
2,74,84,0
2,78,84,0
2,57,84,64
2,57,84,448
2,67,84,64
2,74,84,0
2,66,84,64
2,73,84,0
2,62,84,640
2,69,84,0
2,74,84,0
2,62,84,64
2,69,84,0
2,74,84,0
2,60,84,640
2,62,84,64
2,69,84,0
2,74,84,0
2,60,84,256
2,62,84,64
2,69,84,0
2,74,84,0
2,62,84,448
2,69,84,0
2,74,84,0
2,60,84,64
2,60,84,64
2,69,84,64
2,57,84,0
2,57,84,892
2,69,84,64
2,74,84,0
2,78,84,0
2,57,84,448
2,69,84,64
2,76,84,0
2,79,84,0
2,69,84,64
2,74,84,0
2,78,84,0
2,62,84,640
2,69,84,0
2,60,84,64
2,67,84,0
2,57,84,832
2,64,84,0
2,71,84,512
2,60,84,256
2,57,84,64
2,81,84,640
2,86,84,0
2,90,84,0
2,57,84,192
2,69,84,64
2,76,84,0
2,79,84,0
2,67,84,448
2,74,84,0
2,62,84,256
2,60,84,64
2,57,84,64
2,64,84,0
2,69,84,0
2,79,84,768
2,74,84,0
2,60,84,1024
2,57,84,64
2,69,84,256
2,74,84,0
2,78,84,0
2,71,84,576
2,76,84,64
2,79,84,0
2,67,84,448
2,74,84,0
2,62,84,256
2,69,84,256
2,64,84,0
2,79,84,796
2,86,84,0
2,79,84,384
2,86,84,0
2,60,84,288
2,57,84,64
2,78,84,832
2,81,84,0
2,84,84,0
2,76,84,320
2,78,84,0
2,57,84,256
2,69,84,64
2,76,84,0
2,64,84,128
2,62,84,32
2,62,84,800
2,69,84,64
2,72,84,0
2,62,84,448
2,55,84,64
2,62,84,0
2,67,84,0
2,69,84,448
2,74,84,64
2,62,84,1024
2,69,84,0
2,74,84,0
2,78,84,0
2,60,84,64
2,62,84,256
2,69,84,0
2,74,84,0
2,78,84,0
2,60,84,64
2,62,84,256
2,69,84,0
2,74,84,0
2,78,84,0
2,62,84,256
2,69,84,0
2,74,84,0
2,78,84,0
2,74,84,448
2,81,84,0
2,74,84,256
2,81,84,0
2,69,84,256
2,79,84,256
2,88,84,256
2,61,84,640
2,57,84,64
2,78,84,256
2,74,84,0
2,69,84,0
2,76,84,768
2,79,84,0
2,57,84,256
2,66,84,256
2,73,84,0
2,60,84,256
2,69,84,1216
2,74,84,0
2,78,84,0
2,57,84,512
2,69,84,0
2,74,84,0
2,78,84,0
2,57,84,512
2,69,84,0
2,74,84,0
2,78,84,0
2,60,84,128
2,57,84,64
2,86,84,1024
2,91,84,0
2,69,84,256
2,74,84,0
2,78,84,0
2,57,84,64
2,57,84,448
2,55,84,64
2,57,84,64
2,64,84,0
2,69,84,0
2,57,84,256
2,64,84,0
2,69,84,0
2,60,84,2176
2,57,84,64
2,62,84,256
2,69,84,0
2,74,84,0
2,78,84,0
2,62,84,576
2,74,84,64
2,79,84,0
2,74,84,448
2,67,84,0
2,66,84,64
2,73,84,0
2,79,84,1792
2,84,84,0
2,81,84,640
2,86,84,0
2,76,84,256
2,81,84,0
2,76,84,256
2,81,84,0
2,79,84,1088
2,83,84,0
2,74,84,0
2,95,84,64
2,90,84,32
2,79,84,32
2,72,84,32
2,57,84,416
2,55,84,64
2,52,84,32
2,62,84,416
2,74,84,0
2,78,84,0
2,62,84,64
2,62,84,640
2,62,84,64
2,55,84,64
2,62,84,0
2,67,84,0
2,71,84,0
2,74,84,0
2,62,84,704
2,69,84,0
2,62,84,64
2,69,84,0
2,74,84,0
2,78,84,0
2,55,84,704
2,86,84,256
2,86,84,320
2,85,84,64
2,68,84,832
2,59,84,128
2,66,84,0
2,71,84,0
2,75,84,0
2,63,84,192
2,71,84,1024
2,80,84,0
2,70,84,256
2,79,84,0
2,78,84,256
2,74,84,256
2,57,84,64
2,64,84,0
2,69,84,0
2,69,84,704
2,67,84,256
2,55,84,448
2,62,84,64
2,69,84,0
2,74,84,0
2,62,84,832
2,62,84,64
2,69,84,0
2,74,84,0
2,78,84,0
2,60,84,256
2,62,84,64
2,69,84,0
2,74,84,0
2,78,84,0
2,60,84,256
2,72,84,128
2,81,84,64
2,86,84,0
2,81,84,320
2,86,84,0
2,57,84,512
2,64,84,0
2,69,84,0
2,73,84,0
2,57,84,64
2,64,84,0
2,60,84,640
2,62,84,64
2,69,84,0
2,74,84,0
2,78,84,0
2,74,84,256
2,79,84,0
2,83,84,0
2,86,84,0
2,74,84,256
2,79,84,0
2,83,84,0
2,86,84,0
2,74,84,256
2,78,84,0
2,81,84,0
2,86,84,0
2,61,84,320
2,73,84,0
2,55,84,256
2,62,84,0
2,67,84,0
2,74,84,0
2,79,84,0
2,57,84,576
2,72,84,64
2,79,84,0
2,84,84,0
2,72,84,256
2,79,84,0
2,84,84,0
2,74,84,256
2,79,84,0
2,83,84,0
2,57,84,448
2,64,84,0
2,69,84,0
2,73,84,0
2,57,84,64
2,64,84,0
2,60,84,832
2,62,84,64
2,69,84,0
2,74,84,0
2,78,84,0
2,74,84,256
2,79,84,0
2,83,84,0
2,86,84,0
2,74,84,256
2,79,84,0
2,83,84,0
2,86,84,0
2,78,84,256
2,81,84,0
2,86,84,0
2,74,84,0
2,60,84,128
2,67,84,0
2,74,84,0
2,79,84,0
2,55,84,896
2,62,84,0
2,67,84,0
2,74,84,0
2,79,84,0
2,62,84,256
2,69,84,0
2,74,84,0
2,57,84,0
2,62,84,256
2,69,84,0
2,74,84,0
2,57,84,0
2,60,84,256
2,67,84,0
2,72,84,0
2,55,84,0
2,64,84,1280
2,69,84,0
2,57,84,0
2,57,84,1024
2,74,84,128
2,52,84,3004
2,57,84,576
2,69,84,64
2,74,84,0
2,78,84,0
2,52,84,704
2,69,84,256
2,74,84,0
2,78,84,0
2,67,84,256
2,74,84,0
2,55,84,256
2,67,84,0
2,74,84,0
2,57,84,256
2,69,84,0
2,76,84,0
2,78,84,1088
2,74,84,0
2,69,84,0
2,69,84,32
2,74,84,0
2,78,84,0
2,55,84,1376
2,57,84,32
2,60,84,32
2,69,84,448
2,74,84,0
2,78,84,0
2,69,84,768
2,76,84,0
2,79,84,0
2,79,84,448
2,57,84,256
2,64,84,0
2,69,84,0
2,73,84,0
2,57,84,256
2,64,84,0
2,69,84,0
2,73,84,0
2,57,84,256
2,64,84,0
2,69,84,0
2,56,84,320
2,63,84,0
2,68,84,0
2,57,84,1408
2,60,84,64
2,69,84,448
2,74,84,0
2,78,84,0
2,81,84,704
2,86,84,0
2,90,84,0
2,74,84,64
2,76,84,256
2,79,84,0
2,76,84,448
2,79,84,0
2,57,84,512
2,69,84,0
2,74,84,0
2,79,84,0
2,57,84,512
2,69,84,0
2,74,84,0
2,79,84,0
2,55,84,512
2,62,84,0
2,67,84,0
2,74,84,0
2,79,84,0
2,55,84,512
2,62,84,0
2,67,84,0
2,74,84,0
2,79,84,0
2,55,84,64
2,57,84,448
2,69,84,64
2,74,84,0
2,78,84,0
2,81,84,192
2,85,84,32
2,88,84,32
2,85,84,32
2,81,84,32
2,83,84,32
2,79,84,32
2,76,84,32
2,79,84,32
2,74,84,32
2,73,84,32
2,74,84,32
2,73,84,32
2,67,84,32
2,69,84,32
2,64,84,32
2,57,84,32
2,55,84,32
2,62,84,480
2,62,84,64
2,72,84,0
2,76,84,0
2,62,84,256
2,55,84,256
2,62,84,0
2,67,84,0
2,74,84,0
2,71,84,0
2,62,84,320
2,62,84,64
2,69,84,0
2,74,84,0
2,78,84,0
2,55,84,512
2,57,84,64
2,64,84,0
2,69,84,0
2,64,84,832
2,71,84,64
2,73,84,256
2,81,84,0
2,76,84,256
2,85,84,0
2,59,84,832
2,63,84,64
2,52,84,640
2,81,84,256
2,90,84,0
2,83,84,256
2,92,84,0
2,69,84,1216
2,81,84,0
2,55,84,448
2,62,84,0
2,69,84,0
2,74,84,0
2,71,84,576
2,55,84,64
2,62,84,0
2,67,84,0
2,74,84,0
2,62,84,256
2,69,84,0
2,74,84,0
2,62,84,256
2,69,84,0
2,74,84,0
2,60,84,256
2,72,84,128
2,81,84,64
2,86,84,0
2,90,84,384
2,86,84,0
2,57,84,448
2,64,84,0
2,69,84,0
2,55,84,640
2,62,84,0
2,69,84,0
2,74,84,0
2,78,84,0
2,62,84,320
2,69,84,0
2,74,84,0
2,74,84,256
2,79,84,0
2,83,84,0
2,86,84,0
2,74,84,256
2,79,84,0
2,83,84,0
