track,note,velocity,time
1,55,127,579
1,55,127,63
1,50,127,0
1,50,127,68
1,55,127,97
1,55,127,67
1,50,127,7
1,50,127,82
1,55,127,3
1,55,127,82
1,50,127,3
1,50,127,76
1,55,127,97
1,55,127,72
1,50,127,3
1,50,127,70
1,55,127,98
1,55,127,72
1,50,127,97
1,50,127,70
1,55,127,11
1,55,127,57
1,50,127,96
1,50,127,62
1,55,127,3
1,55,127,64
1,50,127,5
1,50,127,86
1,55,127,97
1,55,127,74
1,50,127,97
1,50,127,78
1,55,127,4
1,55,127,69
1,50,127,96
1,50,127,72
1,55,127,15
1,55,127,77
1,50,127,96
1,55,127,190
1,50,127,188
1,50,127,94
1,45,127,8
1,45,127,88
1,50,127,97
1,50,127,76
1,45,127,1
1,45,127,98
1,50,127,97
1,50,127,89
1,45,127,1
1,45,127,86
1,50,127,97
1,50,127,101
1,45,127,96
1,45,127,88
1,50,127,15
1,50,127,79
1,45,127,7
1,45,127,88
1,50,127,15
1,50,127,77
1,45,127,7
1,45,127,86
1,50,127,5
1,50,127,93
1,45,127,96
1,45,127,91
1,50,127,97
1,50,127,79
1,52,127,96
1,54,127,187
1,55,127,8
1,55,127,92
1,50,127,97
1,50,127,88
1,55,127,1
1,55,127,94
1,50,127,97
1,50,127,80
1,55,127,97
1,55,127,77
1,50,127,96
1,50,127,84
1,55,127,7
1,55,127,91
1,50,127,96
1,50,127,102
1,55,127,11
1,55,127,72
1,50,127,7
1,50,127,110
1,55,127,3
1,55,127,85
1,50,127,96
1,50,127,86
1,55,127,11
1,55,127,93
1,50,127,96
1,50,127,84
1,55,127,12
1,55,127,68
1,50,127,97
1,55,127,78
1,48,127,98
1,48,127,85
1,47,127,96
1,47,127,70
1,45,127,97
1,45,127,83
1,43,127,1
1,43,127,76
1,48,127,97
1,48,127,103
1,48,127,57
1,48,127,77
1,48,127,92
1,48,127,57
1,55,127,102
1,55,127,91
1,55,127,55
1,55,127,156
1,55,127,93
1,55,127,53
1,50,127,161
1,50,127,90
1,50,127,45
1,50,127,166
1,50,127,84
1,52,127,97
1,54,127,189
1,55,127,182
1,55,127,80
1,50,127,97
1,50,127,72
1,55,127,97
1,55,127,79
1,50,127,3
1,50,127,93
1,55,127,97
1,55,127,81
1,50,127,7
1,50,127,90
1,55,127,7
1,55,127,80
1,50,127,1
1,50,127,94
1,55,127,7
1,55,127,79
1,50,127,96
1,50,127,114
1,55,127,8
1,55,127,87
1,50,127,5
1,50,127,54
1,55,127,7
1,55,127,98
1,50,127,97
1,50,127,66
1,55,127,3
1,55,127,104
1,50,127,97
1,50,127,92
1,50,127,46
1,50,127,91
1,45,127,96
1,45,127,74
1,50,127,1
1,50,127,111
1,45,127,96
1,45,127,108
1,50,127,7
1,50,127,80
1,45,127,5
1,45,127,110
1,50,127,97
1,50,127,79
1,45,127,5
1,45,127,88
1,50,127,7
1,50,127,75
1,45,127,1
1,45,127,72
1,50,127,3
1,50,127,97
1,45,127,96
1,45,127,90
1,50,127,98
1,50,127,80
1,45,127,97
1,45,127,86
1,50,127,97
1,50,127,83
1,52,127,96
1,54,127,33
1,55,127,70
1,55,127,81
1,50,127,11
1,50,127,90
1,55,127,15
1,55,127,73
1,50,127,9
1,50,127,82
1,55,127,8
1,55,127,76
1,50,127,19
1,50,127,88
1,55,127,1
1,55,127,95
1,50,127,96
1,50,127,100
1,55,127,1
1,55,127,77
1,50,127,11
1,50,127,88
1,55,127,9
1,55,127,90
1,50,127,11
1,50,127,88
1,55,127,2
1,55,127,86
1,50,127,31
1,50,127,88
1,55,127,12
1,55,127,64
1,50,127,7
1,55,127,192
1,48,127,3
1,48,127,79
1,47,127,96
1,47,127,88
1,45,127,11
1,45,127,78
1,43,127,5
1,43,127,82
1,48,127,10
1,48,127,86
1,48,127,57
1,48,127,167
1,48,127,93
1,48,127,61
1,55,127,165
1,55,127,97
1,55,127,53
1,55,127,167
1,55,127,102
1,55,127,63
1,50,127,178
1,50,127,82
1,50,127,53
1,50,127,168
1,50,127,87
1,52,127,96
1,54,127,44
1,55,127,7
1,55,127,79
1,50,127,95
1,55,127,3
1,54,127,95
1,52,127,90
1,52,127,70
1,47,127,97
1,52,127,189
1,50,127,178
1,50,127,83
1,50,127,53
1,50,127,187
1,50,127,75
1,52,127,96
1,54,127,54
1,55,127,2
1,55,127,81
1,50,127,23
1,50,127,60
1,55,127,97
1,55,127,96
1,50,127,7
1,50,127,93
1,55,127,97
2,59,100,577
2,62,100,0
2,67,100,1
2,62,100,47
2,59,100,0
2,67,100,1
2,62,100,70
2,67,100,0
2,59,100,1
2,62,100,34
2,60,100,1
2,66,100,0
2,60,100,152
2,62,100,0
2,66,100,1
2,59,100,34
2,62,100,0
2,67,100,1
2,59,100,52
2,62,100,1
2,65,100,0
2,67,100,0
2,67,100,44
2,60,100,0
2,64,100,1
2,60,100,100
2,67,100,1
2,63,100,0
2,59,100,40
2,67,100,0
2,62,100,1
2,69,100,75
2,60,100,1
2,64,100,0
2,62,100,34
2,60,100,1
2,66,100,0
2,67,100,28
2,62,100,0
2,59,100,1
2,67,100,24
2,62,100,1
2,59,100,0
2,67,100,44
2,62,100,1
2,59,100,0
2,62,100,40
2,60,100,0
2,66,100,1
2,66,100,98
2,62,100,1
2,60,100,0
2,67,100,32
2,62,100,0
2,59,100,1
2,67,100,50
2,59,100,1
2,62,100,0
2,67,100,44
2,59,100,1
2,62,100,0
2,59,100,28
2,67,100,0
2,62,100,1
2,65,100,0
2,67,100,62
2,60,100,0
2,64,100,1
2,67,100,56
2,60,100,0
2,63,100,1
2,67,100,42
2,62,100,0
2,59,100,1
2,69,100,72
2,60,100,0
2,64,100,1
2,60,100,50
2,62,100,0
2,66,100,1
2,59,100,32
2,62,100,0
2,67,100,1
2,66,100,575
2,59,100,40
2,64,100,1
2,55,100,0
2,53,100,0
2,64,100,34
2,60,100,0
2,57,100,1
2,67,100,0
2,66,100,56
2,60,100,0
2,62,100,1
2,62,100,28
2,59,100,1
2,67,100,0
2,67,100,36
2,62,100,0
2,59,100,1
3,62,17,579
3,55,17,198
3,43,25,282
3,47,25,100
3,50,27,80
3,59,26,90
3,57,17,104
3,55,22,186
3,50,17,38
3,38,17,2
3,31,18,68
3,50,19,98
3,45,25,0
3,47,17,192
3,43,17,192
3,31,17,25
3,43,17,12
3,47,18,34
3,19,17,6
3,51,17,10
3,50,17,4
3,55,17,28
3,43,17,44
3,31,29,4
3,35,26,72
3,43,25,92
3,19,17,148
3,26,17,14
3,38,25,100
3,33,25,0
3,35,32,92
3,31,18,176
3,31,17,70
3,35,17,44
3,38,17,100
3,43,17,366
3,50,20,96
3,45,35,6
3,47,20,96
3,43,17,30
3,38,17,48
3,31,17,98
3,35,17,54
3,43,17,59
3,47,18,0
3,45,28,68
3,48,25,9
3,47,22,4
3,50,22,0
3,38,27,86
3,43,17,352
3,47,17,98
3,55,17,96
3,38,18,52
3,47,17,48
3,38,17,44
3,42,21,60
3,45,18,88
3,50,17,112
3,52,17,182
3,57,17,0
3,54,17,92
3,50,17,92
3,38,17,96
3,42,17,70
3,45,17,52
3,64,24,100
3,69,26,0
3,66,31,50
3,64,17,50
3,62,23,8
3,52,30,39
3,57,27,8
3,54,17,4
3,52,17,42
3,50,20,8
3,45,21,58
3,38,17,72
3,42,17,4
3,45,26,86
3,50,18,84
3,54,17,8
3,38,17,194
3,26,17,28
3,45,26,87
3,40,24,2
3,42,17,16
3,38,18,4
3,26,17,186
3,14,20,4
3,33,17,84
3,42,17,96
3,38,17,0
3,33,17,26
3,26,17,94
3,30,17,70
3,33,24,88
3,42,30,100
3,38,23,1
3,38,17,26
3,33,17,48
3,26,17,4
3,42,21,12
3,38,17,2
3,30,17,4
3,43,17,8
3,40,17,0
3,45,22,90
3,42,19,0
3,33,23,172
3,38,25,104
3,26,17,5
3,30,22,8
3,33,23,36
3,42,22,92
3,36,23,0
3,35,23,16
3,43,20,0
3,19,17,2
3,23,17,94
3,26,17,96
3,31,28,22
3,50,22,84
3,45,29,0
3,47,18,92
3,31,22,80
3,35,20,94
3,38,18,48
3,43,22,100
3,59,25,108
3,67,26,94
3,69,28,28
3,71,21,34
3,67,18,92
3,62,17,194
3,59,17,88
3,31,17,22
3,35,17,92
3,38,17,60
3,43,17,70
3,55,19,108
3,62,21,180
3,59,23,104
3,57,17,16
3,55,19,38
3,31,17,10
3,35,17,51
3,50,24,70
3,47,17,90
3,38,17,98
3,43,21,96
3,55,17,104
3,47,17,22
3,31,17,165
3,35,17,18
3,38,27,88
3,43,23,192
3,45,44,100
3,47,35,10
3,50,17,81
3,31,17,101
3,35,17,89
3,38,19,94
3,43,17,8
3,31,17,12
3,35,17,88
3,38,17,90
3,59,22,76
3,62,17,18
3,67,17,18
3,65,17,86
3,62,17,68
3,59,17,24
3,64,17,34
3,36,17,76
3,40,17,92
3,43,27,98
3,48,27,58
3,52,22,94
3,55,28,96
3,64,17,186
3,62,21,94
3,60,21,14
3,55,25,45
3,52,17,66
3,36,17,82
3,39,22,16
3,60,32,18
3,43,18,0
3,63,38,22
3,48,25,6
3,67,44,0
3,43,17,8
3,39,19,40
3,36,17,108
3,39,17,32
3,43,17,91
3,48,18,91
3,36,17,65
3,60,17,9
3,65,29,14
3,62,34,0
3,39,19,112
3,60,26,62
3,63,31,8
3,43,17,6
3,43,17,18
3,59,26,26
3,62,25,6
3,47,20,102
3,50,18,50
3,62,21,94
3,67,30,0
3,71,30,2
3,62,28,48
3,71,29,0
3,67,29,2
3,59,24,52
3,67,18,0
3,62,24,2
3,59,21,56
3,62,20,0
3,67,24,10
3,55,26,64
3,59,25,0
3,62,18,1
3,59,25,66
3,55,25,0
3,62,21,0
3,43,20,233
3,47,24,100
3,50,37,4
3,55,44,36
3,59,37,82
3,50,26,8
3,52,23,4
3,45,21,0
3,60,17,0
3,59,21,8
3,50,29,8
3,48,28,10
3,57,23,0
3,55,17,184
3,54,17,172
3,38,17,6
3,42,26,104
3,45,18,57
3,50,25,102
3,54,36,94
3,62,27,90
3,59,24,62
3,57,17,12
3,59,23,32
3,43,17,6
3,47,17,88
3,50,25,38
3,55,21,95
3,59,17,192
3,62,17,0
3,67,18,0
3,67,26,64
3,59,23,0
3,62,19,0
3,62,17,8
3,59,17,0
3,55,17,2
3,55,19,62
3,59,19,0
3,62,19,0
3,59,21,18
3,55,17,0
3,50,25,166
3,43,24,138
3,47,25,84
3,55,17,288
3,50,24,192
3,62,17,134
3,57,18,0
3,59,17,94
3,55,17,90
3,43,17,27
3,47,24,94
3,50,26,88
3,55,17,10
3,31,17,252
3,35,17,56
3,38,17,102
3,59,17,102
3,50,17,88
3,43,22,98
3,50,17,72
3,45,21,0
3,43,26,37
3,47,20,74
3,19,17,94
3,26,18,86
3,31,26,22
3,35,26,96
3,38,25,96
3,43,25,190
3,19,21,60
3,26,23,98
3,31,35,96
3,35,51,86
3,38,51,29
3,43,35,93
3,40,17,36
3,42,28,32
3,26,17,0
3,30,22,57
3,33,17,92
3,38,27,92
3,42,34,30
3,50,19,96
3,50,21,56
3,52,23,26
3,54,33,10
3,52,18,97
3,50,22,89
3,45,17,42
3,38,17,1
3,42,23,18
3,45,25,44
3,50,28,42
3,54,43,52
3,62,25,50
3,38,17,4
3,42,17,58
3,45,17,30
3,50,17,66
3,38,17,108
3,54,24,48
3,57,17,0
3,55,21,96
3,52,27,1
3,50,25,55
3,54,28,1
3,42,19,88
3,45,24,98
3,50,17,27
3,38,18,0
3,50,17,52
3,54,17,0
3,42,17,88
3,45,18,104
3,38,17,10
3,42,17,48
3,54,36,102
3,62,27,98
3,45,17,8
3,50,25,82
3,62,30,82
3,69,19,100
3,66,17,178
3,64,17,206
3,62,17,4
3,38,18,14
3,42,19,68
3,54,47,102
3,62,24,76
3,60,18,98
3,45,17,182
3,50,17,114
3,59,21,1
3,57,17,26
3,59,17,28
3,43,17,44
3,47,17,102
3,50,19,12
3,55,17,104
3,59,21,148
3,62,22,14
3,67,23,28
3,66,22,30
3,64,17,48
3,62,18,12
3,64,17,13
3,59,17,94
3,43,17,86
3,47,17,6
3,50,22,81
3,62,29,44
3,57,28,0
3,59,32,44
3,57,23,100
3,55,20,8
3,59,22,18
3,31,17,374
3,35,17,31
3,38,17,56
3,43,17,86
3,47,17,90
3,55,17,92
3,19,17,216
3,26,17,26
3,31,26,50
3,38,29,82
3,47,25,98
3,43,24,93
3,31,17,110
3,35,22,28
3,38,39,8
3,47,27,86
3,43,25,2
3,45,26,88
3,48,17,0
3,31,17,30
3,35,19,96
3,38,32,88
3,47,39,108
3,50,29,194
3,55,32,4
3,31,17,182
3,35,17,34
3,38,17,86
3,43,20,112
3,47,17,12
3,50,17,198
3,55,17,4
3,31,17,34
3,35,17,92
3,38,20,98
3,43,17,100
3,47,17,84
3,36,17,4
3,40,17,28
3,43,19,122
3,48,18,92
3,64,21,100
3,67,25,0
3,72,25,0
3,64,23,56
3,67,23,0
3,72,23,1
3,64,17,26
3,67,17,0
3,60,19,68
3,64,17,0
3,67,17,4
3,69,17,2
3,64,17,64
3,60,17,6
3,55,17,0
3,60,17,74
3,64,17,0
3,55,17,1
3,36,18,26
3,55,19,8
3,40,17,88
3,43,32,96
3,55,39,4
3,60,17,19
3,67,34,83
3,63,31,91
3,36,17,0
3,39,20,43
3,60,30,8
3,55,17,90
3,43,17,195
3,48,23,97
3,55,17,70
3,63,34,16
3,67,23,18
3,72,25,12
3,36,17,78
3,39,17,86
3,43,18,92
3,48,25,104
3,43,24,34
3,62,17,8
3,67,25,18
3,71,24,8
3,47,17,101
3,50,23,89
3,55,19,52
3,62,28,4
3,67,28,0
3,71,28,4
3,71,17,8
3,62,17,8
3,67,21,0
3,71,23,20
3,62,19,0
3,67,25,0
3,62,25,72
3,59,18,8
3,67,19,0
3,62,17,20
3,59,17,2
3,67,17,0
3,67,17,22
3,62,24,0
3,59,22,0
3,55,17,72
3,59,19,0
3,62,17,1
3,59,18,14
3,55,17,0
3,62,17,1
3,55,17,22
3,59,21,2
3,62,17,0
3,43,17,159
3,47,17,48
3,50,30,104
3,55,51,56
3,59,39,82
3,62,18,76
3,48,17,4
3,60,24,6
3,52,29,0
3,59,21,42
3,50,24,9
3,57,18,4
3,48,21,0
3,55,17,186
3,54,19,170
3,38,17,6
3,42,17,36
3,45,22,88
3,50,17,48
3,52,17,26
3,54,17,36
3,55,20,4
3,57,18,48
3,59,23,36
3,60,17,34
3,62,17,12
3,64,17,39
3,43,17,99
3,62,17,6
3,47,17,72
3,50,17,98
3,55,17,96
3,59,42,4
3,67,42,1
3,57,25,22
3,66,25,6
3,40,17,44
3,55,17,14
3,64,17,0
3,59,27,100
3,43,19,0
3,55,25,28
3,47,34,88
3,50,32,10
3,59,21,93
3,54,28,0
3,55,28,50
3,54,28,30
3,52,18,12
3,45,47,34
3,52,34,10
3,60,35,0
3,50,35,18
3,59,25,0
3,48,32,6
3,57,23,0
3,55,20,192
3,54,18,168
3,38,17,6
3,42,22,30
3,45,37,42
3,50,30,54
3,52,24,44
3,54,24,32
3,55,32,40
3,57,17,46
3,59,18,42
3,60,17,4
3,62,19,44
3,64,17,45
3,66,17,6
3,43,17,89
3,47,17,82
3,50,18,56
3,59,35,62
3,67,25,57
3,55,22,68
3,62,18,480
3,67,17,20
3,69,23,22
3,71,30,20
3,69,30,50
3,67,18,36
3,66,25,8
3,62,19,0
3,59,29,86
3,55,35,68
4,62,90,769
4,59,90,1
4,67,90,0
4,59,90,49
4,62,90,0
4,67,90,0
4,62,90,250
4,59,90,1
4,67,90,0
4,62,90,345
4,59,90,0
4,67,90,0
4,59,90,57
4,62,90,0
4,67,90,0
4,62,90,254
4,59,90,1
4,67,90,0
4,62,90,350
4,59,90,1
4,67,90,0
4,59,90,57
4,62,90,0
4,67,90,0
4,59,90,250
4,62,90,0
4,67,90,0
4,59,90,341
4,62,90,1
4,67,90,0
4,62,90,53
