track,note,velocity,time
1,47,82,27248
1,59,100,136
1,57,100,0
1,66,100,0
1,62,100,0
1,59,100,228
1,62,100,0
1,66,100,0
1,57,100,0
1,47,82,12
1,57,100,136
1,59,100,0
1,66,100,0
1,62,100,0
1,59,100,228
1,57,100,0
1,62,100,0
1,66,100,0
1,57,100,232
1,59,100,0
1,66,100,0
1,62,100,0
1,40,82,104
1,56,100,136
1,64,100,0
1,59,100,0
1,62,100,0
1,56,100,228
1,64,100,0
1,59,100,0
1,62,100,0
1,40,82,12
1,56,100,136
1,64,100,0
1,59,100,0
1,62,100,0
1,56,100,228
1,64,100,0
1,59,100,0
1,62,100,0
1,56,100,232
1,64,100,0
1,59,100,0
1,62,100,0
1,47,82,104
1,59,100,136
1,57,100,0
1,66,100,0
1,62,100,0
1,59,100,228
1,62,100,0
1,66,100,0
1,57,100,0
1,47,82,12
1,57,100,136
1,59,100,0
1,66,100,0
1,62,100,0
1,59,100,228
1,57,100,0
1,62,100,0
1,66,100,0
1,57,100,232
1,59,100,0
1,66,100,0
1,62,100,0
1,40,82,104
1,56,100,136
1,64,100,0
1,59,100,0
1,62,100,0
1,56,100,228
1,64,100,0
1,59,100,0
1,62,100,0
1,40,82,12
1,56,100,136
1,64,100,0
1,59,100,0
1,62,100,0
1,56,100,228
1,64,100,0
1,59,100,0
1,62,100,0
1,56,100,232
1,64,100,0
1,59,100,0
1,62,100,0
1,45,82,104
1,59,100,136
1,61,100,0
1,64,100,0
1,57,100,0
1,59,100,228
1,61,100,0
1,64,100,0
1,57,100,0
1,45,82,16
1,59,100,136
1,61,100,0
1,64,100,0
1,57,100,0
1,59,100,244
1,61,100,0
1,64,100,0
1,57,100,0
1,59,100,232
1,61,100,0
1,64,100,0
1,57,100,0
1,40,82,104
1,57,100,136
1,66,100,0
1,59,100,0
1,62,100,0
1,57,100,228
1,66,100,0
1,59,100,0
1,62,100,0
1,40,82,12
1,56,100,136
1,64,100,0
1,59,100,0
1,62,100,0
1,56,100,228
1,64,100,0
1,59,100,0
1,62,100,0
1,56,100,232
1,64,100,0
1,59,100,0
1,62,100,0
1,42,82,104
1,61,100,136
1,64,100,0
1,66,100,0
1,57,100,0
1,61,100,228
1,64,100,0
1,66,100,0
1,57,100,0
1,42,82,12
1,61,100,136
1,64,100,0
1,66,100,0
1,57,100,0
1,61,100,228
1,64,100,0
1,66,100,0
1,57,100,0
1,61,100,232
1,64,100,0
1,66,100,0
1,57,100,0
1,42,82,104
1,61,100,136
1,57,100,0
1,66,100,0
1,64,100,0
1,61,100,228
1,57,100,0
1,66,100,0
1,64,100,0
1,42,82,12
1,61,100,136
1,57,100,0
1,66,100,0
1,64,100,0
1,61,100,228
1,57,100,0
1,66,100,0
1,64,100,0
1,61,100,232
1,57,100,0
1,66,100,0
1,64,100,0
1,47,82,104
1,59,100,136
1,57,100,0
1,66,100,0
1,62,100,0
1,59,100,228
1,62,100,0
1,66,100,0
1,57,100,0
1,47,82,12
1,56,100,136
1,64,100,0
1,59,100,0
1,62,100,0
1,56,100,228
1,64,100,0
1,59,100,0
1,62,100,0
1,56,100,232
1,64,100,0
1,59,100,0
1,62,100,0
1,45,82,104
1,57,100,136
1,61,100,0
1,64,100,0
1,68,100,0
1,57,100,228
1,61,100,0
1,64,100,0
1,68,100,0
1,45,82,12
1,57,100,136
1,61,100,0
1,64,100,0
1,66,100,0
1,57,100,228
1,61,100,0
1,64,100,0
1,66,100,0
1,57,100,232
1,61,100,0
1,64,100,0
1,66,100,0
1,47,82,104
1,59,100,136
1,57,100,0
1,66,100,0
1,62,100,0
1,59,100,228
1,62,100,0
1,66,100,0
1,57,100,0
1,47,82,12
1,56,100,136
1,64,100,0
1,59,100,0
1,62,100,0
1,56,100,228
1,64,100,0
1,59,100,0
1,62,100,0
1,56,100,232
1,64,100,0
1,59,100,0
1,62,100,0
1,45,82,104
1,57,100,136
1,64,100,0
1,61,100,0
1,68,100,0
1,57,100,228
1,64,100,0
1,61,100,0
1,68,100,0
1,45,82,12
1,66,100,136
1,57,100,0
1,64,100,0
1,61,100,0
1,66,100,228
1,57,100,0
1,64,100,0
1,61,100,0
1,66,100,232
1,57,100,0
1,64,100,0
1,61,100,0
1,42,82,104
1,61,100,136
1,57,100,0
1,54,100,0
1,66,100,0
1,61,100,228
1,57,100,0
1,54,100,0
1,66,100,0
1,42,82,12
1,65,100,136
1,61,100,0
1,57,100,0
1,54,100,0
1,65,100,228
1,61,100,0
1,57,100,0
1,54,100,0
1,65,100,232
1,61,100,0
1,57,100,0
1,54,100,0
1,42,82,104
1,64,100,136
1,61,100,0
1,57,100,0
1,54,100,0
1,64,100,228
1,61,100,0
1,57,100,0
1,54,100,0
1,42,82,12
1,63,100,136
1,61,100,0
1,57,100,0
1,54,100,0
1,63,100,228
1,61,100,0
1,57,100,0
1,54,100,0
1,63,100,232
1,61,100,0
1,57,100,0
1,54,100,0
1,49,82,104
1,59,100,136
1,61,100,0
1,64,100,0
1,68,100,0
1,59,100,228
1,61,100,0
1,64,100,0
1,68,100,0
1,49,82,12
1,60,100,136
1,64,100,0
1,68,100,0
1,56,100,0
1,60,100,228
1,64,100,0
1,68,100,0
1,56,100,0
1,60,100,232
1,64,100,0
1,68,100,0
1,56,100,0
1,49,82,104
1,59,100,136
1,61,100,0
1,64,100,0
1,68,100,0
1,59,100,228
1,61,100,0
1,64,100,0
1,68,100,0
1,49,82,12
1,59,100,136
1,61,100,0
1,68,100,0
1,64,100,0
1,59,100,228
1,61,100,0
1,68,100,0
1,64,100,0
1,59,100,232
1,61,100,0
1,68,100,0
1,64,100,0
1,49,82,104
1,59,100,136
1,61,100,0
1,65,100,0
1,68,100,0
1,59,100,228
1,61,100,0
1,65,100,0
1,68,100,0
1,49,82,12
1,62,100,136
1,59,100,0
1,65,100,0
1,68,100,0
1,62,100,228
1,59,100,0
1,65,100,0
1,68,100,0
1,62,100,232
1,59,100,0
1,65,100,0
1,68,100,0
1,49,82,104
1,61,100,136
1,59,100,0
1,65,100,0
1,68,100,0
1,61,100,228
1,59,100,0
1,65,100,0
1,68,100,0
1,49,82,12
1,68,100,136
1,61,100,0
1,59,100,0
1,65,100,0
1,68,100,228
1,61,100,0
1,59,100,0
1,65,100,0
1,68,100,232
1,61,100,0
1,59,100,0
1,65,100,0
1,42,82,104
1,57,100,136
1,61,100,0
1,68,100,0
1,57,100,228
1,61,100,0
1,68,100,0
1,42,82,12
1,61,100,136
1,57,100,0
1,66,100,0
1,61,100,228
1,57,100,0
1,66,100,0
1,61,100,232
1,57,100,0
1,66,100,0
1,42,82,108
1,57,100,136
1,61,100,0
1,68,100,0
1,57,100,228
1,61,100,0
1,68,100,0
1,42,82,12
1,57,100,136
1,66,100,0
1,61,100,0
1,57,100,228
1,66,100,0
1,61,100,0
1,57,100,232
1,66,100,0
1,61,100,0
1,50,82,108
1,62,100,136
1,65,100,0
1,53,100,0
1,57,100,0
1,62,100,228
1,65,100,0
1,53,100,0
1,57,100,0
1,50,82,12
1,61,100,136
1,53,100,0
1,65,100,0
1,57,100,0
1,61,100,228
1,53,100,0
1,65,100,0
1,57,100,0
1,61,100,232
1,53,100,0
1,65,100,0
1,57,100,0
1,50,82,104
1,60,100,136
1,65,100,0
1,53,100,0
1,57,100,0
1,60,100,228
1,65,100,0
1,53,100,0
1,57,100,0
1,50,82,12
1,59,100,136
1,65,100,0
1,53,100,0
1,57,100,0
1,59,100,228
1,65,100,0
1,53,100,0
1,57,100,0
1,59,100,232
1,65,100,0
1,53,100,0
1,57,100,0
1,48,82,104
1,59,100,0
1,62,100,0
1,64,100,0
1,67,100,0
1,48,71,120
1,67,89,0
1,64,89,0
1,62,89,0
1,59,89,0
1,48,73,136
1,62,91,0
1,59,91,0
1,67,91,0
1,64,91,0
1,48,73,120
1,62,91,0
1,59,91,0
1,64,91,0
1,67,91,0
1,48,73,136
1,59,91,0
1,62,91,0
1,64,91,0
1,67,91,0
1,48,73,120
1,67,91,0
1,64,91,0
1,62,91,0
1,59,91,0
1,48,73,124
1,62,91,0
1,59,91,0
1,67,91,0
1,64,91,0
1,48,73,120
1,62,91,0
1,59,91,0
1,64,91,0
1,67,91,0
1,40,100,136
1,67,109,0
1,64,109,0
1,62,109,0
1,59,109,0
1,42,100,28
1,64,100,0
1,61,100,0
1,58,100,0
1,54,100,0
1,47,82,52
1,59,100,136
1,57,100,0
1,66,100,0
1,62,100,0
1,59,100,228
1,62,100,0
1,66,100,0
1,57,100,0
1,47,82,12
1,57,100,136
1,59,100,0
1,66,100,0
1,62,100,0
1,59,100,228
1,57,100,0
1,62,100,0
1,66,100,0
1,57,100,232
1,59,100,0
1,66,100,0
1,62,100,0
1,40,82,104
1,56,100,136
1,64,100,0
1,59,100,0
1,62,100,0
1,56,100,228
1,64,100,0
1,59,100,0
1,62,100,0
1,40,82,12
1,56,100,136
1,64,100,0
1,59,100,0
1,62,100,0
1,56,100,228
1,64,100,0
1,59,100,0
1,62,100,0
1,56,100,232
1,64,100,0
1,59,100,0
1,62,100,0
1,47,82,104
1,59,100,136
1,57,100,0
1,66,100,0
1,62,100,0
1,59,100,228
1,62,100,0
1,66,100,0
1,57,100,0
1,47,82,12
1,57,100,136
1,59,100,0
1,66,100,0
1,62,100,0
1,59,100,228
1,57,100,0
1,62,100,0
1,66,100,0
1,57,100,232
1,59,100,0
1,66,100,0
1,62,100,0
1,40,82,104
1,56,100,136
1,64,100,0
1,59,100,0
1,62,100,0
1,56,100,228
1,64,100,0
1,59,100,0
1,62,100,0
1,40,82,12
1,56,100,136
1,64,100,0
1,59,100,0
1,62,100,0
1,56,100,228
1,64,100,0
1,59,100,0
1,62,100,0
1,56,100,232
1,64,100,0
1,59,100,0
1,62,100,0
1,45,82,104
1,59,100,136
1,61,100,0
1,64,100,0
1,57,100,0
1,59,100,228
1,61,100,0
1,64,100,0
1,57,100,0
1,45,82,16
1,59,100,136
1,61,100,0
1,64,100,0
1,57,100,0
1,59,100,244
1,61,100,0
1,64,100,0
1,57,100,0
1,59,100,232
1,61,100,0
1,64,100,0
1,57,100,0
1,40,82,104
1,57,100,136
1,66,100,0
1,59,100,0
1,62,100,0
1,57,100,228
1,66,100,0
1,59,100,0
1,62,100,0
1,40,82,12
1,56,100,136
1,64,100,0
1,59,100,0
1,62,100,0
1,56,100,228
1,64,100,0
1,59,100,0
1,62,100,0
1,56,100,232
1,64,100,0
1,59,100,0
1,62,100,0
1,42,82,104
1,61,100,136
1,64,100,0
1,66,100,0
1,57,100,0
1,61,100,228
1,64,100,0
1,66,100,0
1,57,100,0
1,42,82,12
1,61,100,136
1,64,100,0
1,66,100,0
1,57,100,0
1,61,100,228
1,64,100,0
1,66,100,0
1,57,100,0
1,61,100,232
1,64,100,0
1,66,100,0
1,57,100,0
1,42,82,104
1,61,100,136
1,57,100,0
1,66,100,0
1,64,100,0
1,61,100,228
1,57,100,0
1,66,100,0
1,64,100,0
1,42,82,12
1,61,100,136
1,57,100,0
1,66,100,0
1,64,100,0
1,61,100,228
1,57,100,0
1,66,100,0
1,64,100,0
1,61,100,232
1,57,100,0
1,66,100,0
1,64,100,0
1,47,82,104
1,59,100,136
1,57,100,0
1,66,100,0
1,62,100,0
1,59,100,228
1,62,100,0
1,66,100,0
1,57,100,0
1,47,82,12
1,56,100,136
1,64,100,0
1,59,100,0
1,62,100,0
1,56,100,228
1,64,100,0
1,59,100,0
1,62,100,0
1,56,100,232
1,64,100,0
1,59,100,0
1,62,100,0
1,45,82,104
1,57,100,136
1,61,100,0
1,64,100,0
1,68,100,0
1,57,100,228
1,61,100,0
1,64,100,0
1,68,100,0
1,45,82,12
1,57,100,136
1,61,100,0
1,64,100,0
1,66,100,0
1,57,100,228
1,61,100,0
1,64,100,0
1,66,100,0
1,57,100,232
1,61,100,0
1,64,100,0
1,66,100,0
1,47,82,104
1,59,100,136
1,57,100,0
1,66,100,0
1,62,100,0
1,59,100,228
1,62,100,0
1,66,100,0
1,57,100,0
1,47,82,12
1,56,100,136
1,64,100,0
1,59,100,0
1,62,100,0
1,56,100,228
1,64,100,0
1,59,100,0
1,62,100,0
1,56,100,232
1,64,100,0
1,59,100,0
1,62,100,0
1,40,100,104
1,71,100,0
1,64,100,0
1,68,100,0
1,61,100,0
1,61,100,28
1,64,100,0
1,66,100,0
1,70,100,0
1,42,82,0
1,47,82,52
1,59,100,136
1,57,100,0
1,66,100,0
1,62,100,0
1,59,100,228
1,62,100,0
1,66,100,0
1,57,100,0
1,47,82,12
1,57,100,136
1,59,100,0
1,66,100,0
1,62,100,0
1,59,100,228
1,57,100,0
1,62,100,0
1,66,100,0
1,57,100,232
1,59,100,0
1,66,100,0
1,62,100,0
1,40,82,104
1,56,100,136
1,64,100,0
1,59,100,0
1,62,100,0
1,56,100,228
1,64,100,0
1,59,100,0
1,62,100,0
1,40,82,12
1,56,100,136
1,64,100,0
1,59,100,0
1,62,100,0
1,56,100,228
1,64,100,0
1,59,100,0
1,62,100,0
1,56,100,232
1,64,100,0
1,59,100,0
1,62,100,0
1,47,82,104
1,59,100,136
1,57,100,0
1,66,100,0
1,62,100,0
1,59,100,228
1,62,100,0
1,66,100,0
1,57,100,0
1,47,82,12
1,57,100,136
1,59,100,0
1,66,100,0
1,62,100,0
1,59,100,228
1,57,100,0
1,62,100,0
1,66,100,0
1,57,100,232
1,59,100,0
1,66,100,0
1,62,100,0
1,40,82,104
1,56,100,136
1,64,100,0
1,59,100,0
1,62,100,0
1,56,100,228
1,64,100,0
1,59,100,0
1,62,100,0
1,40,82,12
1,56,100,136
1,64,100,0
1,59,100,0
1,62,100,0
1,56,100,228
1,64,100,0
1,59,100,0
1,62,100,0
1,56,100,232
1,64,100,0
1,59,100,0
1,62,100,0
1,45,82,104
1,59,100,136
1,61,100,0
1,64,100,0
1,57,100,0
1,59,100,228
1,61,100,0
1,64,100,0
1,57,100,0
1,45,82,16
1,59,100,136
1,61,100,0
1,64,100,0
1,57,100,0
1,59,100,244
1,61,100,0
1,64,100,0
1,57,100,0
1,59,100,232
1,61,100,0
1,64,100,0
1,57,100,0
1,40,82,104
1,57,100,136
1,66,100,0
1,59,100,0
1,62,100,0
1,57,100,228
1,66,100,0
1,59,100,0
1,62,100,0
1,40,82,12
1,56,100,136
1,64,100,0
1,59,100,0
1,62,100,0
1,56,100,228
1,64,100,0
1,59,100,0
1,62,100,0
1,56,100,232
1,64,100,0
1,59,100,0
1,62,100,0
1,42,82,104
1,61,100,136
1,64,100,0
1,66,100,0
1,57,100,0
1,61,100,228
1,64,100,0
1,66,100,0
1,57,100,0
1,42,82,12
1,61,100,136
1,64,100,0
1,66,100,0
1,57,100,0
1,61,100,228
1,64,100,0
1,66,100,0
1,57,100,0
1,61,100,232
1,64,100,0
1,66,100,0
1,57,100,0
1,42,82,104
1,61,100,136
1,57,100,0
1,66,100,0
1,64,100,0
1,61,100,228
1,57,100,0
1,66,100,0
1,64,100,0
1,42,82,12
1,61,100,136
1,57,100,0
1,66,100,0
1,64,100,0
1,61,100,228
1,57,100,0
1,66,100,0
1,64,100,0
1,61,100,232
1,57,100,0
1,66,100,0
1,64,100,0
1,47,82,104
1,59,100,136
1,57,100,0
1,66,100,0
1,62,100,0
1,59,100,228
1,62,100,0
1,66,100,0
1,57,100,0
1,47,82,12
1,56,100,136
1,64,100,0
1,59,100,0
1,62,100,0
1,56,100,228
1,64,100,0
1,59,100,0
1,62,100,0
1,56,100,232
1,64,100,0
1,59,100,0
1,62,100,0
1,45,82,104
1,57,100,136
1,61,100,0
1,64,100,0
1,68,100,0
1,57,100,228
1,61,100,0
1,64,100,0
1,68,100,0
1,45,82,12
1,57,100,136
1,61,100,0
1,64,100,0
1,66,100,0
1,57,100,228
1,61,100,0
1,64,100,0
1,66,100,0
1,57,100,232
1,61,100,0
1,64,100,0
1,66,100,0
1,47,82,104
1,59,100,136
1,57,100,0
1,66,100,0
