track,note,velocity,time
1,42,127,18436
1,37,127,32
1,40,119,28
1,37,97,4
1,42,127,16
1,37,127,84
1,37,127,84
1,42,127,96
1,35,127,12
1,30,127,140
1,33,127,20
1,35,127,16
1,30,127,136
1,30,122,88
1,35,127,16
1,40,127,20
1,35,127,100
1,37,127,288
1,40,121,176
1,35,127,160
1,40,116,288
1,37,127,184
1,32,127,172
1,35,127,4
1,37,127,16
1,32,127,184
1,37,127,288
1,42,127,4
1,37,127,156
1,42,127,288
1,35,127,16
1,30,127,164
1,35,127,12
1,40,127,32
1,35,127,160
1,37,127,288
1,40,113,172
1,35,127,156
1,37,120,192
1,40,116,80
1,42,127,8
1,37,127,80
1,42,127,12
1,35,127,28
1,30,127,156
1,30,120,104
1,35,127,8
1,40,127,36
1,35,126,112
1,37,127,288
1,40,116,192
1,35,127,172
1,40,109,96
1,39,127,180
1,37,127,16
1,32,127,156
1,37,127,8
1,37,127,48
1,32,127,172
1,32,120,76
1,37,127,20
1,32,127,0
1,27,120,152
1,30,124,4
1,32,127,4
1,27,127,184
1,32,127,16
1,32,127,80
1,27,127,164
1,30,127,0
1,32,127,16
1,27,127,172
1,35,121,32
1,37,127,0
1,32,127,156
1,35,127,12
1,37,127,28
1,32,127,184
1,37,127,32
1,33,127,20
1,28,127,164
1,31,127,16
1,33,127,16
1,28,127,172
1,28,127,68
1,33,127,96
1,31,127,12
1,31,127,164
1,33,127,12
1,35,127,16
1,35,127,148
1,35,118,88
1,33,127,96
1,35,127,172
1,42,127,536
1,37,127,60
1,40,118,288
1,42,122,8
1,37,127,148
1,37,118,68
1,42,127,96
1,35,126,12
1,30,127,144
1,33,127,12
1,35,127,36
1,30,127,164
1,35,127,20
1,40,127,36
1,35,127,60
1,37,127,76
1,40,123,8
1,35,126,132
1,35,118,80
1,40,116,96
1,37,127,180
1,32,124,152
1,35,127,288
1,37,127,16
1,32,127,164
1,37,127,12
1,30,127,36
1,30,127,132
1,37,127,8
1,35,127,16
1,35,127,164
1,30,127,292
1,40,127,16
1,35,127,124
1,37,124,288
1,40,114,12
1,35,126,156
1,40,116,4
1,42,124,196
1,37,127,156
1,42,127,292
1,35,127,24
1,30,127,136
1,35,127,20
1,40,127,36
1,35,127,160
1,37,127,288
1,40,119,12
1,35,127,164
1,37,124,288
1,28,107,0
1,35,127,112
1,37,127,44
1,40,118,8
1,35,126,156
1,37,127,76
1,28,127,20
1,35,127,132
1,37,127,60
1,40,114,12
1,35,127,152
1,35,116,84
1,37,127,96
1,28,127,4
1,35,127,148
1,37,127,84
1,40,114,24
1,35,127,116
1,37,127,24
1,40,118,24
1,35,121,140
1,37,127,32
1,40,123,16
1,35,123,164
1,37,127,20
1,42,120,24
1,37,127,184
1,40,114,288
1,42,115,0
1,37,127,188
1,37,118,88
1,42,118,96
1,35,123,4
1,30,124,164
1,33,116,40
1,35,110,56
1,30,120,160
1,35,123,20
1,40,119,48
1,35,121,152
1,37,124,288
1,40,114,8
1,35,127,156
1,37,124,288
1,40,116,16
1,35,127,144
1,40,116,288
1,32,127,180
1,27,118,164
1,32,127,20
1,30,124,28
1,30,127,148
1,37,127,12
1,42,122,12
1,37,127,156
1,40,116,16
1,42,118,196
1,37,127,172
1,42,127,24
1,37,127,24
1,32,127,168
1,37,127,4
1,35,127,24
1,35,127,172
1,30,127,128
1,35,123,0
1,35,127,120
1,35,127,116
1,33,127,104
1,35,127,36
1,42,124,556
1,37,127,124
1,40,116,288
1,42,124,172
1,37,127,156
1,42,127,0
1,35,126,8
1,30,127,156
1,33,127,32
1,35,126,16
1,30,127,160
1,35,127,8
1,40,118,8
1,35,126,124
1,37,127,28
1,40,118,20
1,35,123,172
1,40,118,40
1,37,127,32
1,32,127,172
1,35,127,12
1,37,127,24
1,32,124,184
1,32,117,68
1,37,127,0
1,30,127,0
1,30,124,156
1,37,127,8
1,35,127,28
1,30,124,168
1,35,127,20
1,40,119,28
1,35,121,160
1,37,122,32
1,40,116,20
1,35,119,184
1,37,120,192
1,40,112,76
1,42,122,184
1,37,127,160
1,42,127,0
1,35,127,16
1,30,127,192
1,35,127,20
1,40,127,64
1,35,126,160
1,37,127,24
1,40,118,20
1,35,127,172
1,40,118,288
1,37,122,184
1,32,120,140
1,35,126,4
1,37,127,52
1,32,127,188
1,32,120,104
1,37,127,12
1,32,127,196
1,27,117,128
1,30,115,288
1,32,124,192
1,27,122,140
1,30,120,12
1,32,127,0
1,27,120,156
1,30,120,288
1,32,127,4
1,32,127,168
1,30,114,288
1,37,127,4
1,32,127,120
1,35,116,288
1,37,124,172
1,32,127,172
1,33,127,96
1,28,126,180
1,31,127,16
1,33,127,20
1,28,126,184
1,28,105,76
1,33,126,0
1,31,127,8
1,31,127,204
1,33,127,24
1,35,126,196
1,35,127,128
1,35,127,132
1,33,127,192
1,35,127,188
1,42,127,452
1,37,127,152
1,40,118,288
1,42,127,148
1,37,127,140
1,37,110,80
1,42,120,100
1,35,127,4
1,30,127,160
1,33,127,4
1,35,127,20
1,30,127,164
1,35,127,288
1,40,118,180
1,35,127,152
1,37,127,60
1,40,116,20
1,35,127,172
1,37,122,192
1,40,113,8
1,37,127,24
1,32,127,164
1,35,127,20
1,37,127,24
1,32,127,184
1,37,127,12
1,30,127,196
1,37,124,152
1,30,127,40
1,35,127,16
1,30,127,164
1,35,127,20
1,40,119,4
1,35,127,140
1,37,127,288
1,40,118,8
1,35,127,172
1,37,127,44
1,40,123,8
1,42,127,68
1,37,127,132
1,42,124,284
1,35,127,8
1,30,127,140
1,35,127,4
1,40,116,24
1,40,127,0
1,35,127,156
1,37,127,288
1,40,118,20
1,35,127,152
1,37,127,288
1,28,127,20
1,35,127,148
1,37,127,288
1,40,114,16
1,35,127,152
1,35,116,104
1,37,127,96
1,28,127,16
1,35,127,128
1,37,124,288
1,40,112,172
1,35,127,160
1,37,127,4
1,28,127,4
1,35,127,4
1,37,124,288
1,40,114,184
1,35,126,4
1,37,124,192
1,35,123,4
1,40,113,196
1,35,127,144
1,37,118,288
1,40,113,16
1,35,121,156
1,40,108,288
1,42,122,160
1,37,127,152
1,40,114,288
1,42,118,172
1,37,127,164
1,37,122,80
1,42,127,96
1,35,127,24
1,30,127,156
1,35,127,288
1,35,127,96
1,30,127,172
1,30,116,68
1,35,127,12
1,40,111,196
1,35,127,144
1,37,127,64
1,40,118,28
1,35,126,176
1,40,110,288
1,40,123,60
1,35,123,40
1,40,111,288
1,32,124,188
1,27,116,92
1,32,127,12
1,42,124,20
1,37,117,164
1,40,112,288
1,42,124,176
1,37,127,180
1,37,114,12
1,40,118,96
1,42,127,164
1,37,127,108
1,42,127,288
1,37,127,24
1,32,127,104
1,37,127,288
1,35,127,28
1,35,127,152
1,30,127,176
1,35,127,0
1,33,127,132
1,35,127,104
1,30,127,100
1,35,127,60
1,42,127,556
1,37,127,128
1,40,118,288
1,42,124,176
1,37,127,160
1,42,122,36
1,35,126,8
1,30,127,144
1,33,126,0
1,35,126,16
1,30,127,168
1,35,127,12
1,40,118,196
1,35,126,136
1,37,127,40
1,40,114,8
1,35,123,168
1,35,113,80
1,40,116,96
1,37,127,180
1,32,124,160
1,35,123,4
1,37,127,0
1,32,127,172
1,37,127,288
1,30,127,28
1,30,127,188
1,37,127,20
1,35,127,44
1,35,127,168
1,30,127,128
1,40,114,12
1,35,127,144
1,37,127,288
1,40,116,8
1,35,127,168
1,37,127,288
1,30,127,4
1,30,127,152
1,37,127,288
1,35,127,24
1,30,127,172
1,35,127,12
1,40,118,4
1,35,127,168
1,37,124,288
1,40,114,176
1,35,127,160
1,37,124,192
1,40,116,76
1,42,127,188
1,37,127,124
1,42,124,292
1,35,127,24
1,30,127,168
1,35,127,12
1,40,114,36
1,35,127,140
1,37,127,288
1,40,113,164
1,37,124,172
1,35,127,12
1,40,110,192
1,42,122,8
1,37,127,108
1,42,127,12
1,35,127,8
1,30,127,164
1,35,127,4
1,40,114,196
1,35,127,148
1,37,127,288
1,40,109,28
1,40,99,28
1,37,127,92
1,35,126,8
1,37,127,192
1,42,127,16
1,37,127,176
1,42,127,20
1,35,127,20
1,30,127,152
1,35,127,4
1,40,118,40
1,35,127,152
1,37,124,292
1,40,113,180
1,37,127,104
1,35,119,12
1,40,114,188
1,42,127,180
1,37,124,72
1,42,127,288
1,35,127,16
1,30,127,136
1,35,127,12
1,40,113,196
1,35,127,144
1,37,127,288
1,35,127,8
1,40,114,192
1,35,127,160
1,42,127,8
1,37,127,116
1,42,127,12
1,35,127,8
1,30,127,148
1,35,127,12
1,40,118,20
1,35,127,152
1,37,127,64
1,40,113,12
1,35,127,68
1,37,127,196
1,40,121,12
1,37,82,4
1,42,127,12
1,37,127,120
1,42,122,288
1,35,126,0
1,30,127,144
1,35,127,8
1,40,118,192
1,35,127,160
1,37,127,36
1,40,110,196
1,40,103,28
1,37,122,96
1,35,121,24
1,40,116,188
1,42,127,168
1,37,127,136
1,42,124,288
1,35,127,24
1,30,127,128
1,35,127,12
1,40,112,12
1,35,127,160
1,37,127,288
1,40,113,172
1,37,127,172
1,35,127,12
1,37,127,192
1,40,121,44
1,40,126,64
1,40,127,144
1,40,119,44
1,40,127,32
1,40,121,36
2,61,100,18340
2,57,100,0
2,54,100,0
2,64,100,0
2,63,100,100
2,59,100,0
2,54,100,0
2,57,100,0
2,64,100,68
2,52,100,0
2,56,100,0
2,61,100,56
2,57,100,108
2,54,100,0
2,63,100,76
2,59,100,4
2,52,100,116
2,64,100,0
2,56,100,0
2,61,100,4
2,64,100,0
2,57,100,0
2,54,100,0
2,59,100,32
2,63,100,0
2,52,100,100
2,56,100,0
2,64,100,0
2,61,100,112
2,63,100,32
2,59,100,0
2,54,100,384
2,60,100,72
2,61,100,60
2,64,100,0
2,52,100,0
2,57,100,4
2,60,100,0
2,55,100,0
2,64,100,0
2,62,100,52
2,55,100,0
2,59,100,0
2,54,100,32
2,63,100,0
2,59,100,0
2,57,100,0
2,54,100,560
2,64,100,4
2,57,100,0
2,61,100,0
2,63,100,64
2,59,100,0
2,57,100,0
2,64,100,8
2,52,100,0
2,56,100,0
2,61,100,1536
2,57,100,72
2,54,100,0
2,63,100,36
2,59,100,0
2,56,100,24
2,64,100,0
2,52,100,0
2,61,100,108
2,57,100,0
2,54,100,0
2,63,100,8
2,59,100,0
2,56,100,4
2,52,100,0
2,64,100,0
2,61,100,0
2,57,100,0
2,54,100,0
2,64,100,760
2,63,100,4
2,59,100,0
2,64,100,132
2,56,100,0
2,52,100,0
2,59,100,32
2,56,100,0
2,63,100,0
2,54,100,12
2,61,100,0
2,57,100,0
2,52,100,376
2,64,100,8
2,56,100,0
2,61,100,0
2,63,100,32
2,59,100,0
2,54,100,0
2,66,100,748
2,64,100,536
2,57,100,0
2,61,100,0
2,54,100,0
2,63,100,24
2,59,100,0
2,64,100,76
2,56,100,4
2,52,100,0
2,61,100,32
2,57,100,12
2,54,100,0
2,63,100,4
2,59,100,0
2,56,100,8
2,64,100,4
2,52,100,0
2,57,100,8
2,61,100,0
2,54,100,0
2,63,100,12
2,59,100,0
2,64,100,0
2,56,100,0
2,52,100,0
2,61,100,12
2,63,100,36
2,59,100,0
2,54,100,372
2,60,100,84
2,61,100,28
2,64,100,0
2,52,100,0
2,57,100,140
2,55,100,0
2,60,100,0
2,55,100,32
2,59,100,0
2,62,100,0
2,54,100,72
2,59,100,4
2,63,100,0
2,57,100,0
2,61,100,488
2,64,100,0
2,54,100,0
2,57,100,0
2,60,100,0
2,61,100,324
2,63,100,0
2,59,100,0
2,64,100,8
2,52,100,0
2,56,100,0
2,61,100,20
2,57,100,128
2,54,100,0
2,63,100,52
2,59,100,0
2,59,100,28
2,64,100,0
2,56,100,0
2,52,100,0
2,57,100,128
2,61,100,0
2,54,100,0
2,63,100,16
2,59,100,0
2,52,100,16
2,64,100,0
2,56,100,0
2,57,100,32
2,54,100,0
2,61,100,0
2,63,100,4
2,59,100,0
2,56,100,72
2,64,100,0
2,52,100,0
2,63,100,2272
2,61,100,32
2,57,100,0
2,54,100,0
2,64,100,312
2,56,100,24
2,59,100,8
2,63,100,0
2,54,100,0
2,66,100,684
2,61,100,612
2,64,100,0
2,57,100,0
2,54,100,0
2,63,100,40
2,59,100,0
2,56,100,72
2,64,100,0
2,52,100,0
2,61,100,24
2,59,100,768
2,57,100,120
2,54,100,0
2,59,100,64
2,63,100,0
2,56,100,16
2,64,100,0
2,52,100,0
2,61,100,16
2,54,100,0
2,57,100,0
2,63,100,20
2,59,100,4
2,56,100,20
2,52,100,0
2,64,100,0
2,54,100,1536
2,61,100,0
2,57,100,0
2,63,100,44
2,59,100,0
2,52,100,20
2,56,100,0
2,59,100,0
2,64,100,0
2,61,100,8
2,57,100,0
2,54,100,0
2,63,100,24
2,59,100,0
2,59,100,4
2,56,100,0
2,64,100,0
2,52,100,0
2,61,100,144
2,57,100,0
2,54,100,0
2,63,100,20
2,59,100,0
2,56,100,104
2,64,100,0
2,52,100,0
2,57,100,144
2,61,100,4
2,54,100,0
2,63,100,36
2,59,100,0
2,59,100,4
2,52,100,0
2,64,100,0
2,56,100,0
2,54,100,144
2,61,100,0
2,57,100,0
2,63,100,36
2,59,100,0
2,56,100,0
2,54,100,0
2,64,100,36
2,52,100,0
2,56,100,0
2,57,100,152
2,61,100,0
2,54,100,0
2,59,100,44
2,63,100,0
2,64,100,136
2,56,100,0
2,52,100,0
2,61,100,16
2,57,100,0
2,54,100,0
2,63,100,12
2,59,100,0
2,56,100,8
2,52,100,0
2,59,100,0
2,64,100,0
3,52,93,1460
3,59,96,168
3,64,84,156
3,66,87,204
3,68,66,208
3,54,102,380
3,57,95,108
3,61,113,104
3,66,108,88
3,65,104,16
3,57,93,24
3,61,97,40
3,65,95,96
3,64,82,4
3,52,86,1164
3,59,92,140
3,64,95,132
3,66,104,136
3,68,101,4
3,64,88,0
3,71,91,168
3,73,94,64
3,71,97,56
3,69,97,44
3,71,99,60
3,69,94,4
3,68,102,56
3,69,100,16
3,68,100,64
3,66,100,12
3,68,97,64
3,66,93,8
3,64,85,48
3,66,96,76
3,68,85,72
3,56,89,128
3,59,93,156
3,63,87,128
3,71,68,120
3,68,78,124
3,54,91,4
3,57,93,124
3,61,113,108
3,64,92,116
3,73,92,148
3,66,93,0
3,69,87,244
3,61,80,700
3,56,103,28
3,64,93,28
3,68,91,16
3,59,75,208
3,63,65,36
3,66,83,16
3,59,82,20
3,66,77,52
3,63,70,16
3,59,83,32
3,66,80,40
3,63,69,16
3,59,88,20
3,66,85,40
3,63,72,20
3,59,86,36
3,66,88,40
3,63,77,20
3,59,93,24
3,63,95,40
3,71,98,0
3,66,100,0
3,59,95,12
3,63,75,0
3,66,89,0
3,71,73,24
3,59,92,0
3,63,87,8
3,66,94,0
3,71,91,4
3,59,100,0
3,71,95,20
3,66,98,0
3,63,93,4
3,59,121,0
3,71,100,20
3,63,103,0
3,66,108,0
3,59,121,0
3,71,112,28
3,66,110,0
3,63,108,0
3,59,121,28
3,71,117,16
3,63,125,20
3,66,121,0
3,54,93,700
3,61,85,0
3,57,82,4
3,64,81,0
3,61,78,80
3,54,77,0
3,64,68,0
3,57,65,4
3,54,98,12
3,64,83,20
3,61,94,0
3,57,86,0
3,54,76,88
3,61,76,0
3,64,69,24
3,57,65,0
3,54,98,36
3,64,86,0
3,61,93,0
3,57,82,4
3,54,101,96
3,61,93,4
3,64,90,0
3,57,83,0
3,61,81,88
3,54,80,0
3,64,75,24
3,57,72,0
3,54,98,32
3,57,82,0
3,64,83,0
3,61,92,4
3,54,82,88
3,61,93,0
3,57,79,0
3,64,83,4
3,54,98,16
3,61,90,16
3,64,84,4
3,57,82,0
3,54,97,88
3,57,79,0
3,63,89,4
3,59,86,0
3,54,79,68
3,63,72,16
3,59,70,0
3,54,96,48
3,59,87,0
3,57,78,0
3,63,88,0
3,54,72,80
3,59,81,0
3,63,80,0
3,57,74,28
3,54,93,24
