track,note,velocity,time
1,57,74,1536
1,52,72,3
1,45,70,4
1,60,67,25
1,64,71,1
1,57,65,7
1,66,83,5
1,69,92,44
1,60,68,24
1,72,91,28
1,76,84,52
1,78,80,32
1,64,101,52
1,79,103,17
1,78,76,62
1,76,91,19
1,60,81,21
1,72,81,7
1,69,77,35
1,66,70,42
1,57,69,13
1,64,38,79
1,60,40,41
1,52,98,47
1,45,94,0
1,57,93,22
1,60,56,70
1,64,94,82
1,57,88,12
1,66,93,36
1,69,106,2
1,60,81,56
1,72,109,23
1,76,105,57
1,78,91,46
1,79,112,17
1,64,85,5
1,78,92,84
1,76,106,51
1,60,71,1
1,57,69,98
1,69,61,33
1,64,46,5
1,57,41,3
1,72,56,15
1,76,57,14
1,69,42,0
1,78,73,8
1,81,86,11
1,72,50,19
1,84,63,41
1,88,72,19
1,90,69,57
1,76,87,29
1,91,77,27
1,90,73,7
1,88,73,61
1,72,66,15
1,84,52,0
1,81,59,31
1,69,61,15
1,78,70,19
1,76,51,13
1,72,75,0
1,64,47,15
1,57,38,0
1,69,65,16
1,72,73,4
1,76,75,9
1,69,50,48
1,78,75,0
1,81,80,52
1,72,55,35
1,84,78,26
1,88,76,33
1,90,75,90
1,76,42,96
1,91,77,19
1,90,59,99
1,72,18,135
1,88,54,9
1,69,18,201
1,57,16,206
1,72,24,275
1,64,9,15
1,57,23,607
1,72,21,496
1,64,22,32
1,45,49,207
1,81,44,4
1,84,62,60
1,57,42,2
1,60,28,6
1,52,27,13
1,88,51,11
1,84,64,159
1,60,52,8
1,57,49,0
1,88,58,2
1,45,63,211
1,84,80,11
1,88,66,31
1,84,49,21
1,88,70,19
1,60,57,34
1,84,92,4
1,57,55,6
1,83,81,177
1,86,95,1
1,60,63,8
1,57,45,6
1,52,36,11
1,84,91,40
1,88,97,0
1,86,90,33
1,89,95,4
1,45,67,11
1,60,47,261
1,84,90,10
1,57,44,2
1,52,38,11
1,88,78,4
1,84,75,12
1,88,75,24
1,84,88,48
1,60,51,25
1,52,49,3
1,57,41,4
1,86,97,105
1,83,78,0
1,45,49,15
1,60,32,267
1,57,37,7
1,84,77,14
1,52,22,4
1,88,71,0
1,84,66,32
1,88,64,12
1,84,67,67
1,60,46,13
1,57,37,10
1,52,33,11
1,81,97,14
1,45,64,12
1,84,104,163
1,60,49,10
1,57,46,7
1,52,40,3
1,88,83,36
1,84,100,184
1,60,62,6
1,57,55,3
1,52,53,3
1,88,98,21
1,45,68,230
1,84,106,11
1,88,91,14
1,84,102,17
1,88,86,28
1,84,105,40
1,60,59,10
1,57,57,10
1,52,50,2
1,86,108,148
1,83,92,0
1,60,72,8
1,52,78,9
1,57,59,0
1,84,105,33
1,88,110,0
1,36,88,46
1,88,113,2
1,91,111,0
1,79,105,0
1,48,92,0
1,86,105,26
1,77,109,0
1,89,110,1
1,60,79,2
1,52,65,13
1,55,68,4
1,76,118,194
1,88,113,0
1,60,91,1
1,84,110,3
1,55,49,4
1,52,84,3
1,59,101,186
1,47,96,6
1,74,105,2
1,86,92,1
1,79,91,1
1,77,86,2
1,43,97,16
1,55,101,0
1,72,111,102
1,79,105,4
1,84,113,0
1,76,106,2
1,60,113,2
1,48,107,6
1,48,107,250
1,36,96,2
1,45,83,175
1,81,89,0
1,60,53,270
1,52,50,4
1,84,77,2
1,57,46,2
1,88,80,15
1,84,81,200
1,60,46,12
1,57,42,6
1,52,41,2
1,88,75,1
1,45,56,173
1,84,54,10
1,88,70,8
1,84,71,31
1,88,62,6
1,84,66,18
1,60,49,26
1,52,35,10
1,57,17,23
1,86,85,183
1,60,57,9
1,83,58,0
1,57,40,12
1,88,95,44
1,84,84,4
1,45,66,48
1,89,80,5
1,86,58,10
1,84,74,284
1,52,43,0
1,57,35,4
1,88,72,24
1,84,69,7
1,88,56,31
1,84,73,21
1,60,51,34
1,52,37,18
1,57,23,5
1,83,53,13
1,86,68,2
1,45,47,17
1,60,32,71
1,57,34,6
1,84,59,11
1,52,29,12
1,88,55,0
1,84,65,0
1,88,30,15
1,84,69,20
1,60,50,23
1,57,42,13
1,52,34,2
1,81,92,21
1,45,77,18
1,84,101,34
1,60,57,10
1,57,44,17
1,52,44,2
1,88,101,21
1,84,103,137
1,60,67,5
1,52,58,8
1,57,51,6
1,88,103,9
1,45,73,136
1,84,102,29
1,88,94,18
1,84,87,30
1,88,94,23
1,60,56,48
1,84,96,4
1,57,50,9
1,52,44,4
1,83,92,65
1,86,106,0
1,60,76,3
1,57,62,16
1,52,71,3
1,88,108,46
1,84,106,0
1,91,110,30
1,79,113,3
1,36,105,0
1,88,101,0
1,48,106,1
1,77,115,10
1,89,113,2
1,86,103,2
1,60,83,2
1,52,68,17
1,55,63,0
1,76,117,41
1,88,112,2
1,84,110,0
1,60,99,4
1,52,96,9
1,55,82,8
1,86,106,136
1,59,91,0
1,74,111,0
1,79,99,2
1,47,88,2
1,77,95,2
1,55,104,5
1,43,100,3
1,84,113,123
1,72,105,0
1,79,105,2
1,76,105,0
1,60,113,2
1,48,105,8
1,36,100,244
1,48,104,0
1,67,61,253
1,50,45,8
1,69,76,45
1,59,36,12
1,53,46,7
1,55,25,7
1,71,84,172
1,65,71,3
1,43,59,9
1,72,103,4
1,64,74,7
1,48,59,9
1,74,106,46
1,65,89,6
1,60,80,3
1,55,72,16
1,46,13,86
1,76,115,8
1,43,85,6
1,67,100,2
1,77,110,36
1,69,104,0
1,47,78,2
1,76,113,42
1,67,105,2
1,62,88,1
1,53,74,16
1,55,66,6
1,43,80,132
1,75,96,151
1,66,86,7
1,48,65,1
1,76,81,188
1,67,62,1
1,60,32,18
1,52,27,7
1,43,50,21
1,50,47,42
1,67,45,8
1,59,47,19
1,69,58,3
1,55,30,6
1,53,23,3
1,71,79,145
1,65,64,2
1,43,63,19
1,72,101,158
1,64,80,6
1,48,82,0
1,74,106,62
1,65,87,4
1,60,85,6
1,55,66,6
1,76,108,87
1,67,92,4
1,43,84,5
1,74,98,136
1,65,66,8
1,44,64,4
1,60,49,118
1,52,40,5
1,72,86,14
1,64,54,11
1,40,75,240
1,71,55,29
1,62,50,6
1,45,73,15
1,69,55,15
1,60,45,0
1,64,34,10
1,57,30,4
1,45,47,58
1,67,65,31
1,50,60,2
1,69,91,72
1,65,61,4
1,55,46,11
1,59,24,7
1,71,86,162
1,65,65,4
1,43,58,8
1,72,99,14
1,48,70,5
1,64,74,0
1,74,94,19
1,65,101,2
1,60,72,26
1,55,59,16
1,43,93,138
1,76,110,0
1,67,93,2
1,77,103,19
1,69,88,4
1,47,82,19
1,53,40,125
1,55,56,8
1,62,72,4
1,76,108,10
1,67,78,12
1,43,76,176
1,75,76,200
1,48,68,9
1,66,55,0
1,60,34,160
1,76,81,6
1,52,34,9
1,55,15,12
1,67,33,4
1,43,51,180
1,67,66,6
1,50,45,8
1,69,76,55
1,59,33,0
1,55,34,2
1,53,43,4
1,65,74,178
1,71,79,0
1,43,53,18
1,72,87,8
1,64,78,5
1,48,43,18
1,74,100,76
1,65,80,8
1,60,58,4
1,55,41,17
1,67,89,149
1,76,106,0
1,43,79,14
1,74,97,119
1,44,90,0
1,65,82,3
1,72,91,19
1,64,79,8
1,45,88,0
1,60,53,172
1,57,36,7
1,52,34,22
1,71,55,111
1,62,52,0
1,40,47,19
1,69,42,153
1,60,35,3
1,45,40,1
1,57,27,40
1,52,18,35
1,69,36,50
1,45,34,0
1,81,41,6
1,33,19,0
1,85,52,399
1,61,37,17
1,76,46,0
1,64,37,17
1,55,34,8
1,57,19,3
1,88,65,12
1,76,63,200
1,85,49,4
1,64,44,8
1,61,37,8
1,57,46,5
1,55,45,0
1,88,65,27
1,85,81,248
1,45,34,2
1,76,76,4
1,88,88,12
1,64,60,33
1,61,59,0
1,55,29,11
1,57,59,6
1,64,50,69
1,61,45,4
1,83,84,11
1,74,97,2
1,86,92,2
1,76,109,80
1,88,101,2
1,85,95,4
1,78,81,69
1,33,66,15
1,45,61,4
1,86,71,1
1,90,90,23
1,61,36,102
1,64,40,12
1,57,30,14
1,55,22,1
1,88,81,14
1,85,51,0
1,76,48,0
1,64,48,240
1,61,38,15
1,55,28,7
1,57,28,7
1,33,69,6
1,83,54,8
1,45,52,0
1,86,64,4
1,74,52,1
1,76,55,206
1,85,61,36
1,55,31,15
1,64,39,2
1,61,27,17
1,57,15,8
1,88,77,39
1,61,39,180
1,64,44,2
1,55,36,4
1,57,21,10
1,38,48,28
1,81,63,6
1,77,67,184
1,86,67,6
1,65,56,6
1,62,45,13
1,57,46,2
1,89,84,3
1,77,79,54
1,65,67,2
1,86,79,2
1,62,66,6
1,57,32,19
1,89,88,8
1,38,65,30
1,86,100,12
1,50,44,2
1,77,85,2
1,89,90,2
1,77,56,36
1,86,69,13
1,89,87,18
1,86,98,38
1,77,91,0
1,65,84,13
1,62,69,12
1,57,46,4
1,85,102,173
1,88,106,2
1,76,110,0
1,65,74,6
1,57,47,17
1,62,39,4
1,77,114,37
1,86,108,4
1,89,111,0
1,88,113,44
1,91,109,0
1,79,108,2
1,50,93,6
1,38,87,0
1,86,113,162
1,65,85,2
1,77,107,2
1,57,69,10
1,62,70,7
1,89,102,14
1,77,88,40
1,86,86,6
1,89,101,5
1,86,104,39
1,77,109,4
1,65,92,1
1,62,69,15
1,57,66,0
1,85,106,71
1,88,112,0
1,76,111,4
1,50,96,11
1,38,79,4
1,65,75,201
1,86,113,8
1,62,63,2
1,77,108,0
1,57,51,2
1,89,103,8
1,86,95,58
1,77,79,9
1,89,99,25
1,86,106,40
1,77,98,4
1,65,86,17
1,57,71,8
1,62,72,2
1,67,103,38
1,43,74,12
1,55,78,2
1,78,90,6
1,62,54,16
1,59,56,3
1,67,83,2
1,55,41,10
1,79,84,9
1,78,86,188
1,62,69,12
1,59,66,6
1,67,93,0
1,55,58,6
1,79,88,5
1,68,102,192
1,53,84,15
1,41,70,3
1,79,101,160
1,62,80,11
1,56,71,4
1,53,62,5
1,68,93,0
1,80,95,8
1,59,48,2
1,79,101,157
1,68,99,2
1,62,74,2
1,56,75,10
1,80,97,2
1,53,51,3
1,69,110,159
1,40,102,1
1,52,100,3
1,80,24,9
1,80,98,117
1,60,85,17
1,57,74,6
1,52,71,8
1,69,81,1
1,81,103,6
1,80,94,130
1,60,91,4
1,52,87,10
1,57,88,1
1,69,105,4
1,81,111,4
1,39,103,142
1,51,106,0
1,71,107,7
1,82,115,131
1,59,78,13
1,57,81,2
1,51,56,2
1,54,79,2
1,71,78,10
1,83,90,6
1,82,106,98
1,54,80,11
1,51,81,2
1,59,88,2
1,57,69,4
1,71,92,4
1,83,92,14
1,76,117,127
1,40,111,0
1,52,111,2
1,87,103,127
1,62,106,8
1,56,86,4
1,58,36,4
1,52,93,0
1,59,81,9
1,76,104,6
1,85,49,15
1,88,105,2
1,87,104,113
1,56,88,3
1,62,98,4
1,59,72,4
1,52,90,4
1,76,113,16
1,88,107,1
1,88,122,119
1,76,124,4
1,40,96,1
1,52,101,3
1,62,105,23
1,56,87,6
1,52,94,1
1,59,87,3
1,62,92,106
1,78,106,5
1,90,109,0
1,59,53,3
1,56,71,5
1,52,71,10
1,80,106,53
1,92,106,6
1,95,113,51
1,33,115,0
1,83,103,2
1,45,117,0
1,86,107,7
1,81,117,263
1,84,115,0
1,64,106,4
1,60,89,7
1,57,74,6
1,52,75,2
1,93,98,8
1,84,96,46
1,81,85,6
1,93,93,10
1,64,102,34
1,81,110,4
1,52,92,6
1,60,85,0
1,84,117,0
1,57,87,2
1,80,107,97
1,92,108,4
1,33,107,0
1,83,92,4
1,45,107,2
1,64,87,67
1,60,79,3
1,52,82,4
1,57,64,0
1,81,106,45
1,84,105,3
1,93,89,0
1,81,75,16
1,84,64,2
1,93,82,0
1,84,97,58
1,81,82,7
1,52,30,12
1,64,50,2
1,60,33,1
1,57,28,3
1,45,60,142
1,64,49,441
1,52,15,16
1,60,23,16
1,57,20,13
1,45,45,540
1,64,36,432
1,52,23,2
1,60,27,12
1,57,15,26
1,45,37,30
1,52,35,10
1,57,41,6
1,60,51,18
1,64,49,51
1,66,70,4
1,57,46,13
1,69,56,79
1,72,71,2
1,60,60,33
1,76,61,23
1,78,61,44
1,79,63,41
1,64,61,22
1,78,62,62
1,76,47,18
1,60,41,21
1,72,41,21
1,69,56,31
1,66,49,29
1,57,44,33
1,64,50,61
1,60,42,29
1,52,43,26
1,57,76,1
1,45,49,8
1,60,37,29
1,64,70,110
1,66,78,21
1,57,46,18
1,69,60,66
1,72,73,31
1,60,44,35
1,76,66,17
1,78,73,5
1,79,70,17
1,64,55,17
1,78,59,44
1,60,21,88
1,76,66,46
1,57,32,180
1,45,44,189
1,60,15,349
1,57,9,36
1,52,23,7
1,45,22,509
1,60,22,336
1,57,9,21
1,52,19,0
1,81,55,36
1,45,28,8
1,61,26,255
1,52,14,44
1,57,20,2
1,61,30,182
1,57,15,4
1,52,23,6
1,45,41,59
1,93,59,37
1,61,34,192
1,52,23,37
1,57,17,5
1,61,43,185
1,57,23,5
1,52,40,4
1,90,56,33
1,38,51,6
1,92,68,18
1,90,48,78
1,62,47,2
1,54,36,7
1,57,22,29
1,89,70,4
1,90,60,87
1,62,40,70
1,54,32,10
1,93,54,9
1,92,48,9
1,90,59,6
1,45,54,14
1,88,75,38
1,61,50,143
1,52,40,23
1,57,32,11
1,61,46,174
1,52,45,20
1,57,9,27
1,54,55,159
1,86,73,10
1,88,73,109
1,86,67,86
1,62,46,2
1,57,41,2
1,85,77,0
1,86,51,50
1,90,61,75
1,57,37,0
1,62,38,2
1,88,58,2
1,86,63,10
1,52,67,15
1,85,71,8
1,86,77,90
1,85,68,68
1,61,47,25
1,57,49,2
1,83,64,0
1,85,55,84
1,88,70,8
1,61,42,6
1,57,22,16
1,86,68,29
1,85,68,77
1,56,53,8
1,83,52,29
1,85,56,15
1,83,54,116
1,71,34,7
1,65,37,28
1,62,22,0
1,82,59,9
1,83,46,23
1,71,24,38
1,86,43,7
1,62,23,26
1,65,22,7
1,85,61,0
1,83,27,40
1,57,41,14
1,81,54,22
1,73,37,255
1,69,26,30
1,64,18,6
1,69,26,41
1,73,14,5
1,64,14,4
1,76,49,2
1,33,56,305
1,45,46,4
1,81,68,23
1,60,55,215
1,57,37,13
1,52,41,8
1,60,59,206
1,57,54,5
1,52,29,25
1,33,68,200
1,45,42,18
1,93,81,23
1,60,55,234
1,57,54,6
1,52,31,32
1,60,78,150
1,52,65,8
1,57,58,5
1,89,95,18
1,38,85,1
1,50,70,12
1,91,94,27
1,89,85,86
1,62,70,20
1,53,67,23
1,57,54,4
1,88,105,4
1,89,91,71
1,62,56,52
1,93,99,2
1,53,48,4
1,57,21,8
1,91,99,19
1,89,108,3
1,45,71,25
1,88,106,24
1,60,60,138
1,57,50,2
1,52,47,17
1,60,54,196
1,57,47,6
1,52,59,6
1,53,88,134
1,86,79,4
1,88,93,6
1,86,81,84
1,62,60,22
1,57,60,2
1,85,90,11
1,86,85,84
1,62,54,39
1,57,50,2
1,89,95,21
1,88,96,31
1,86,98,39
1,43,66,22
1,84,98,55
1,86,80,68
1,64,69,71
1,84,82,8
1,60,55,8
1,55,30,9
1,83,82,33
1,84,86,76
1,64,53,32
1,55,41,5
1,60,16,25
1,88,89,4
1,86,92,61
1,84,92,8
1,43,64,37
1,83,79,3
1,84,71,9
1,83,65,2
1,62,55,4
1,53,40,15
1,55,42,8
1,82,80,19
1,83,62,89
1,86,57,36
1,62,43,14
1,55,42,9
1,53,28,0
1,84,67,10
1,83,65,38
1,48,51,29
1,84,54,16
1,55,48,213
1,60,35,4
1,64,38,1
1,52,46,21
1,40,57,4
1,83,63,60
1,62,50,148
1,59,37,8
1,56,53,0
1,45,57,12
1,81,83,9
1,64,40,220
1,61,23,4
1,57,36,23
1,52,36,0
1,52,36,219
1,64,40,1
1,61,18,1
1,57,18,12
1,45,59,26
1,93,58,12
1,65,47,202
