track,note,velocity,time
1,60,52,1
1,61,48,119
1,60,0,10
1,57,53,110
1,61,0,10
1,58,49,110
1,57,0,10
1,55,58,110
1,58,0,10
1,58,62,110
1,55,0,10
1,67,68,110
1,58,0,10
1,65,70,110
1,67,0,10
1,65,0,110
1,65,73,0
1,55,38,240
1,58,46,0
1,58,0,228
1,55,0,0
1,55,38,12
1,58,46,0
1,58,0,228
1,55,0,0
1,65,0,12
1,64,52,0
1,64,0,240
1,60,52,0
1,61,48,120
1,60,0,10
1,57,53,110
1,61,0,10
1,58,57,110
1,57,0,10
1,55,57,110
1,58,0,10
1,58,61,110
1,55,0,10
1,67,63,110
1,58,0,10
1,65,64,110
1,67,0,10
1,65,0,110
1,65,67,0
1,55,38,240
1,58,46,0
1,58,0,228
1,55,0,0
1,55,38,12
1,58,46,0
1,58,0,228
1,55,0,0
1,65,0,12
1,64,52,0
1,64,0,240
1,60,52,0
1,60,0,120
1,61,48,0
1,61,0,120
1,57,52,0
1,57,0,120
1,58,48,0
1,58,0,120
1,55,49,0
1,55,0,120
1,58,50,0
1,58,0,120
1,67,54,0
1,67,0,120
1,65,55,0
1,65,0,120
1,63,58,0
1,63,0,120
1,64,55,0
1,64,0,120
1,70,59,0
1,70,0,120
1,68,57,0
1,68,0,120
1,66,58,0
1,66,0,120
1,67,62,0
1,67,0,120
1,73,65,0
1,73,0,120
1,72,61,0
1,72,0,120
1,69,67,0
1,69,0,120
1,70,66,0
1,70,0,120
1,85,71,0
1,79,67,120
1,85,0,10
1,84,71,110
1,79,0,10
1,82,70,110
1,84,0,10
1,80,68,110
1,82,0,10
1,79,66,110
1,80,0,10
1,77,65,110
1,79,0,10
1,76,63,110
1,77,0,10
1,79,61,110
1,76,0,10
1,70,60,110
1,79,0,10
1,71,61,110
1,70,0,10
1,71,0,86
1,72,56,0
1,72,0,96
1,73,59,0
1,73,0,96
1,67,56,0
1,67,0,96
1,72,56,0
1,72,0,96
1,70,57,0
1,69,53,120
1,70,0,10
1,65,57,110
1,69,0,10
1,66,59,110
1,65,0,10
1,62,60,110
1,66,0,10
1,63,64,110
1,62,0,10
1,72,69,110
1,63,0,10
1,70,69,110
1,72,0,10
1,70,0,110
1,70,74,0
1,60,42,240
1,63,51,0
1,63,0,228
1,60,0,0
1,60,42,12
1,63,51,0
1,63,0,228
1,60,0,0
1,70,0,12
1,69,57,0
1,69,0,240
1,65,57,0
1,66,53,120
1,65,0,10
1,62,54,110
1,66,0,10
1,63,54,110
1,62,0,10
1,60,57,110
1,63,0,10
1,63,68,110
1,60,0,10
1,72,70,110
1,63,0,10
1,70,73,110
1,72,0,10
1,70,0,110
1,70,76,0
1,60,42,240
1,63,51,0
1,63,0,228
1,60,0,0
1,60,42,12
1,63,51,0
1,63,0,228
1,60,0,0
1,70,0,12
1,69,57,0
1,69,0,240
1,65,57,0
1,65,0,120
1,66,53,0
1,66,0,120
1,62,52,0
1,62,0,120
1,63,50,0
1,63,0,120
1,60,54,0
1,60,0,120
1,63,55,0
1,63,0,120
1,72,57,0
1,70,59,120
1,72,0,10
1,68,63,110
1,70,0,10
1,69,57,110
1,68,0,10
1,78,63,110
1,69,0,10
1,77,58,110
1,78,0,10
1,74,60,110
1,77,0,10
1,75,60,110
1,74,0,10
1,85,66,110
1,75,0,10
1,84,64,110
1,85,0,10
1,82,68,110
1,84,0,10
1,81,68,110
1,82,0,10
1,87,72,110
1,81,0,10
1,76,70,110
1,87,0,10
1,77,71,110
1,76,0,10
1,78,73,110
1,77,0,10
1,72,69,110
1,78,0,10
1,73,74,110
1,72,0,10
1,77,76,110
1,73,0,10
1,75,76,110
1,77,0,10
1,73,75,110
1,75,0,10
1,72,72,110
1,73,0,10
1,70,72,110
1,72,0,10
1,70,0,86
1,69,76,0
1,69,0,96
1,72,79,0
1,72,0,96
1,64,79,0
1,64,0,96
1,65,79,0
1,65,0,96
1,66,83,0
1,66,0,96
1,60,83,0
1,60,0,96
1,65,83,0
1,65,0,96
1,63,85,0
1,63,0,96
1,61,85,0
1,61,0,96
1,60,95,0
1,60,0,240
1,58,89,0
1,58,0,240
1,53,67,0
1,55,68,0
1,58,72,0
1,61,80,0
1,65,85,0
1,65,0,240
1,58,0,0
1,53,0,0
1,55,0,0
1,61,0,0
1,73,66,240
1,73,0,120
1,67,69,0
1,67,0,120
1,68,74,0
1,68,0,120
1,69,76,0
1,69,0,120
1,72,80,0
1,72,0,120
1,70,84,0
1,70,0,120
1,68,88,0
1,68,0,120
1,67,92,0
1,67,0,120
1,65,95,0
1,65,0,120
1,64,93,0
1,64,0,120
1,55,71,240
1,58,76,0
1,61,79,0
1,64,90,0
1,64,0,240
1,55,0,0
1,58,0,0
1,61,0,0
1,80,90,240
1,80,0,120
1,70,82,0
1,70,0,120
1,80,86,0
1,80,0,120
1,79,84,0
1,79,0,120
1,76,81,0
1,76,0,120
1,73,78,0
1,73,0,120
1,70,76,0
1,70,0,120
1,67,74,0
1,67,0,120
1,64,71,0
1,64,0,120
1,65,68,0
1,65,0,120
1,53,76,240
1,60,76,0
1,65,90,0
1,65,0,240
1,60,0,0
1,53,0,0
1,84,88,240
1,84,0,120
1,77,84,0
1,77,0,120
1,78,88,0
1,78,0,120
1,79,86,0
1,79,0,120
1,82,81,0
1,82,0,96
1,80,77,0
1,80,0,96
1,77,75,0
1,77,0,96
1,73,73,0
1,73,0,96
1,72,71,0
1,72,0,96
1,72,70,0
1,72,0,120
1,71,68,0
1,71,0,120
1,56,73,240
1,59,76,0
1,62,77,0
1,68,91,0
1,68,0,240
1,56,0,0
1,59,0,0
1,62,0,0
1,92,85,240
1,92,0,60
1,86,84,0
1,86,0,60
1,87,84,0
1,87,0,60
1,88,83,0
1,88,0,60
1,91,81,0
1,91,0,60
1,89,81,0
1,89,0,60
1,86,80,0
1,86,0,60
1,83,79,0
1,83,0,60
1,79,79,0
1,79,0,60
1,80,77,0
1,80,0,60
1,77,76,0
1,77,0,60
1,74,76,0
1,74,0,60
1,71,76,0
1,71,0,48
1,67,75,0
1,67,0,48
1,68,75,0
1,68,0,48
1,65,74,0
1,65,0,48
1,62,74,0
1,62,0,48
1,59,79,0
1,59,0,120
1,60,71,0
1,60,0,120
1,65,74,0
1,65,0,120
1,63,70,0
1,63,0,120
1,60,64,0
1,63,68,0
1,68,69,0
1,72,81,0
1,72,0,240
1,60,0,0
1,63,0,0
1,68,0,0
1,74,69,240
1,86,83,0
1,86,0,160
1,74,0,0
1,73,57,0
1,85,70,0
1,85,0,160
1,73,0,0
1,72,57,0
1,84,68,0
1,84,0,144
1,72,0,0
1,72,57,16
1,84,67,0
1,84,0,144
1,72,0,0
1,72,55,16
1,84,66,0
1,84,0,144
1,72,0,0
1,72,54,16
1,84,64,0
1,84,0,144
1,72,0,0
1,59,72,16
1,59,0,120
1,60,69,0
1,60,0,120
1,65,72,0
1,65,0,120
1,64,67,0
1,64,0,120
1,60,66,0
1,64,69,0
1,68,69,0
1,72,81,0
1,72,0,240
1,60,0,0
1,64,0,0
1,68,0,0
1,74,73,240
1,86,88,0
1,86,0,160
1,74,0,0
1,73,65,0
1,85,76,0
1,85,0,160
1,73,0,0
1,72,63,0
1,84,75,0
1,84,0,144
1,72,0,0
1,72,58,16
1,84,71,0
1,84,0,108
1,72,0,0
1,72,58,12
1,84,71,0
1,84,0,108
1,72,0,0
1,72,57,12
1,84,69,0
1,84,0,108
1,72,0,0
1,72,57,12
1,84,69,0
1,84,0,108
1,72,0,0
1,59,76,12
1,59,0,120
1,60,73,0
1,60,0,120
1,67,76,0
1,67,0,120
1,65,71,0
1,65,0,120
1,60,72,0
1,65,73,0
1,68,73,0
1,72,86,0
1,72,0,240
1,60,0,0
1,65,0,0
1,68,0,0
1,59,76,240
1,59,0,120
1,60,73,0
1,60,0,120
1,70,76,0
1,70,0,120
1,68,71,0
1,68,0,120
1,60,70,0
1,63,73,0
1,68,73,0
1,72,86,0
1,72,0,240
1,60,0,0
1,63,0,0
1,68,0,0
1,60,65,240
1,63,61,0
1,68,65,0
1,72,77,0
1,72,0,180
1,60,0,0
1,63,0,0
1,68,0,0
1,72,74,60
1,84,88,0
1,84,0,240
1,72,0,0
1,64,65,0
1,70,65,0
1,73,65,0
1,76,77,0
1,76,0,180
1,64,0,0
1,70,0,0
1,73,0,0
1,85,89,60
1,73,76,0
1,73,0,240
1,85,0,0
1,65,65,0
1,68,65,0
1,73,65,0
1,77,77,0
1,77,0,180
1,65,0,0
1,68,0,0
1,73,0,0
1,92,89,60
1,80,76,0
1,80,0,240
1,92,0,0
1,67,65,0
1,73,65,0
1,77,65,0
1,79,77,0
1,79,0,180
1,67,0,0
1,73,0,0
1,77,0,0
1,91,89,60
1,79,76,0
1,79,0,240
1,91,0,0
1,59,77,0
1,71,92,0
1,71,0,240
1,59,0,0
1,89,92,240
1,77,92,0
1,77,0,300
1,89,0,0
1,87,85,0
1,87,0,60
1,85,85,0
1,85,0,60
1,80,84,0
1,80,0,60
1,77,83,0
1,77,0,60
1,75,83,0
1,75,0,60
1,73,82,0
1,73,0,60
1,68,81,0
1,68,0,60
1,77,81,0
1,77,0,60
1,75,80,0
1,75,0,60
1,73,79,0
1,73,0,60
1,68,79,0
1,68,0,60
1,65,78,0
1,65,0,60
1,63,77,0
1,63,0,60
1,61,77,0
1,61,0,60
1,56,76,0
1,56,0,60
1,53,76,0
1,53,0,60
1,51,76,0
1,51,0,60
1,49,75,0
1,49,0,60
1,44,80,0
1,44,0,60
1,41,88,0
1,43,79,80
1,41,0,20
1,41,83,60
1,43,0,20
1,43,76,60
1,41,0,20
1,41,79,60
1,43,0,20
1,43,72,60
1,41,0,20
1,41,79,60
1,43,0,20
1,43,68,40
1,41,0,20
1,41,74,40
1,43,0,20
1,43,68,40
1,41,0,20
1,41,76,40
1,43,0,20
1,43,68,40
1,41,0,20
1,41,75,40
1,43,0,20
1,43,66,40
1,41,0,20
1,40,81,40
1,43,0,20
1,40,0,20
1,41,76,40
1,41,0,40
1,49,77,40
1,49,0,40
1,48,84,40
1,48,0,40
1,43,79,40
1,43,0,40
1,47,81,40
1,47,0,40
1,42,88,40
1,42,0,40
1,46,84,40
1,46,0,40
1,41,85,40
1,41,0,40
1,45,92,40
1,45,0,40
1,41,89,40
1,41,0,40
1,44,90,40
1,44,0,40
1,36,109,40
1,36,0,240
1,48,86,2640
1,55,92,0
1,60,109,0
1,60,0,960
1,55,0,0
1,48,0,0
1,48,77,0
1,53,81,0
1,56,98,0
1,60,98,0
1,60,0,1920
1,48,0,0
1,53,0,0
1,56,0,0
2,36,30,217
2,49,35,0
2,49,0,228
2,36,0,0
2,49,35,12
2,36,30,0
2,36,0,228
2,49,0,0
2,36,30,217
2,49,35,0
2,49,0,228
2,36,0,0
2,36,30,12
2,49,35,0
2,49,0,228
2,36,0,0
2,58,49,1440
2,58,0,120
2,56,47,0
2,56,0,120
2,54,48,0
2,54,0,120
2,55,53,0
2,55,0,120
2,61,56,0
2,61,0,120
2,60,53,0
2,60,0,120
2,57,56,0
2,57,0,120
2,58,54,0
2,58,0,120
2,73,57,0
2,67,54,120
2,73,0,10
2,72,53,110
2,67,0,10
2,70,52,110
2,72,0,10
2,68,51,110
2,70,0,10
2,67,50,110
2,68,0,10
2,65,49,110
2,67,0,10
2,64,48,110
2,65,0,10
2,67,47,110
2,64,0,10
2,58,47,110
2,67,0,10
2,59,46,110
2,58,0,10
2,59,0,86
2,60,42,0
2,60,0,96
2,61,45,0
2,61,0,96
2,55,44,0
2,55,0,96
2,60,43,0
2,60,0,96
2,58,47,0
2,57,43,120
2,58,0,10
2,57,0,120
2,54,38,171
2,41,33,0
2,41,0,228
2,54,0,0
2,54,38,12
2,41,33,0
2,41,0,228
2,54,0,0
2,41,33,160
2,54,38,0
2,54,0,228
2,41,0,0
2,54,38,12
2,41,33,0
2,41,0,228
2,54,0,0
2,60,48,960
2,58,50,120
2,60,0,10
2,56,54,110
2,58,0,10
2,57,49,110
2,56,0,10
2,66,53,110
2,57,0,10
2,65,49,110
2,66,0,10
2,62,50,110
2,65,0,10
2,63,54,110
2,62,0,10
2,73,57,110
2,63,0,10
2,72,54,110
2,73,0,10
2,70,57,110
2,72,0,10
2,69,52,110
2,70,0,10
2,75,56,110
2,69,0,10
2,64,53,110
2,75,0,10
2,65,59,110
2,64,0,10
2,66,60,110
2,65,0,10
2,60,57,110
2,66,0,10
2,61,55,110
2,60,0,10
2,65,64,110
2,61,0,10
2,63,62,110
2,65,0,10
2,61,60,110
2,63,0,10
2,60,60,110
2,61,0,10
2,58,68,110
2,60,0,10
2,58,0,86
2,57,63,0
2,57,0,96
2,60,65,0
2,60,0,96
2,52,66,0
2,52,0,96
2,53,67,0
2,53,0,96
2,54,68,0
2,54,0,96
2,48,68,0
2,48,0,96
2,53,69,0
2,53,0,96
2,51,70,0
2,51,0,96
2,49,71,0
2,49,0,96
2,48,85,0
2,48,0,240
2,46,80,0
2,46,0,240
2,34,64,0
2,46,74,0
2,46,0,211
2,34,0,0
2,61,54,240
2,61,0,74
2,55,56,0
2,55,0,120
2,56,59,0
2,56,0,120
2,57,61,0
2,57,0,120
2,60,66,0
2,60,0,120
2,58,70,0
2,58,0,120
2,56,73,0
2,56,0,120
2,55,77,0
2,55,0,120
2,53,81,0
2,53,0,120
2,52,79,0
2,52,0,57
2,46,78,240
2,34,68,0
2,34,0,194
2,46,0,0
2,68,74,217
2,68,0,68
2,58,65,0
2,58,0,120
2,68,71,0
2,68,0,120
2,67,68,0
2,67,0,120
2,64,66,0
2,64,0,120
2,61,62,0
2,61,0,120
2,58,60,0
2,58,0,120
2,55,58,0
2,55,0,120
2,52,58,0
2,52,0,120
2,53,57,0
2,53,0,35
2,44,81,240
2,32,68,0
2,32,0,74
2,44,0,0
2,72,76,240
2,72,0,99
2,65,72,0
2,65,0,120
2,66,74,0
2,66,0,120
2,67,72,0
2,67,0,120
2,70,67,0
2,70,0,96
2,68,66,0
2,68,0,96
2,65,63,0
2,65,0,96
2,61,60,0
2,61,0,96
2,60,59,0
2,60,0,96
2,60,58,0
2,60,0,120
2,59,57,0
2,59,0,11
2,41,75,240
2,29,68,0
2,29,0,97
2,41,0,0
2,80,71,240
2,80,0,11
2,74,70,0
2,74,0,60
2,75,70,0
2,75,0,60
2,76,70,0
2,76,0,60
2,79,69,0
2,79,0,60
2,77,69,0
2,77,0,60
2,74,68,0
2,74,0,60
2,71,66,0
2,71,0,60
2,67,66,0
2,67,0,60
2,68,65,0
2,68,0,60
2,65,64,0
2,65,0,60
2,62,63,0
2,62,0,60
2,59,63,0
2,59,0,48
2,55,63,0
2,55,0,48
2,56,63,0
2,56,0,48
2,53,62,0
2,53,0,48
2,50,62,0
2,50,0,48
2,47,67,0
2,47,0,117
2,48,59,0
2,48,0,120
2,53,60,0
2,53,0,105
2,51,58,0
2,51,0,120
2,44,60,0
2,39,60,0
2,51,64,0
2,51,0,100
2,39,0,0
2,44,0,0
2,50,57,240
2,62,69,0
2,62,0,160
2,50,0,0
2,61,57,0
2,49,49,0
2,49,0,160
2,61,0,0
2,60,57,0
2,48,48,0
2,48,0,144
2,60,0,0
2,48,47,16
2,60,57,0
2,60,0,53
2,48,0,0
2,48,47,16
2,60,55,0
2,60,0,144
2,48,0,0
2,48,45,16
2,60,54,0
2,60,0,144
2,48,0,0
2,47,59,16
2,47,0,120
2,48,57,0
2,48,0,120
2,53,59,0
2,53,0,120
2,52,56,0
2,52,0,120
2,40,60,0
2,48,60,0
2,52,68,0
2,52,0,55
2,48,0,0
2,40,0,0
2,50,61,240
2,62,73,0
2,62,0,130
2,50,0,0
2,61,65,0
2,49,54,0
2,49,0,160
2,61,0,0
2,48,53,0
2,60,63,0
2,60,0,144
2,48,0,0
2,60,58,16
2,48,50,0
2,48,0,48
2,60,0,0
2,48,50,12
2,60,58,0
2,60,0,108
2,48,0,0
2,48,48,12
2,60,57,0
