track,note,velocity,time
1,74,92,0
1,74,0,75
1,77,87,6
1,77,0,102
1,77,95,1
1,77,0,47
1,65,91,7
1,65,0,101
1,70,94,6
1,70,0,74
1,74,82,6
1,74,0,101
1,74,92,1
1,74,0,50
1,62,93,4
1,62,0,103
1,67,117,5
1,67,0,475
1,72,112,4
1,72,0,234
1,67,105,7
1,67,0,235
1,70,113,5
1,70,0,10
1,69,113,4
1,69,0,36
1,67,93,0
1,67,0,473
1,63,95,6
1,63,0,115
1,67,84,1
1,67,0,114
1,67,94,7
1,67,0,235
1,67,93,1
1,67,0,114
1,69,91,6
1,69,0,116
1,70,84,1
1,70,0,115
1,72,87,6
1,72,0,114
1,74,83,1
1,74,0,714
1,79,74,6
1,79,0,115
1,77,73,5
1,77,0,114
1,77,86,5
1,77,0,476
1,65,84,4
1,65,0,476
1,70,86,4
1,70,0,715
1,75,77,5
1,75,0,51
1,74,75,6
1,74,0,45
1,74,82,6
1,74,0,20
1,62,80,6
1,62,0,58
1,60,102,1
1,60,0,49
1,72,104,6
1,72,0,75
1,67,95,7
1,67,0,102
1,70,112,6
1,70,0,8
1,69,115,5
1,69,0,20
1,67,103,7
1,67,0,34
1,65,95,1
1,65,0,48
1,65,95,6
1,65,0,103
1,65,86,2
1,65,0,714
1,65,75,6
1,65,0,236
1,74,93,0
1,74,0,74
1,77,85,7
1,77,0,101
1,77,93,2
1,77,0,47
1,65,91,7
1,65,0,103
1,70,93,1
1,70,0,78
1,74,86,3
1,74,0,102
1,74,96,1
1,74,0,49
1,62,94,4
1,62,0,100
1,67,116,7
1,67,0,474
1,72,110,7
1,72,0,235
1,67,107,5
1,67,0,234
1,70,117,6
1,70,0,8
1,69,111,5
1,69,0,33
1,67,96,1
1,67,0,476
1,63,90,1
1,63,0,114
1,67,82,7
1,67,0,115
1,67,92,6
1,67,0,233
1,67,93,6
1,67,0,114
1,69,95,7
1,69,0,115
1,70,87,1
1,70,0,114
1,72,84,6
1,72,0,116
1,74,87,2
1,74,0,716
1,79,73,3
1,79,0,115
1,77,75,5
1,77,0,116
1,77,86,5
1,77,0,476
1,65,84,3
1,65,0,475
1,70,84,6
1,70,0,715
1,75,74,5
1,75,0,54
1,74,76,4
1,74,0,46
1,74,83,5
1,74,0,18
1,62,84,8
1,62,0,61
1,60,104,0
1,60,0,49
1,72,104,4
1,72,0,73
1,67,92,7
1,67,0,103
1,70,112,1
1,70,0,8
1,69,111,5
1,69,0,22
1,67,106,4
1,67,0,32
1,65,92,2
1,65,0,50
1,65,90,4
1,65,0,102
1,65,83,2
1,65,0,713
1,65,74,6
1,65,0,234
1,74,93,6
1,74,0,475
1,77,91,5
1,77,0,21
1,82,82,7
1,82,0,41
1,80,83,6
1,80,0,48
1,80,117,1
1,80,0,44
1,68,110,1
1,68,0,354
1,67,102,5
1,67,0,115
1,66,115,6
1,66,0,74
1,74,92,7
1,74,0,34
1,69,86,7
1,69,0,76
1,72,94,2
1,72,0,234
1,70,85,5
1,70,0,41
1,74,87,26
1,74,0,127
1,64,86,6
1,64,0,475
1,65,85,5
1,65,0,21
1,72,74,6
1,72,0,92
1,72,75,8
1,72,0,50
1,72,85,4
1,72,0,75
1,70,76,5
1,70,0,101
1,74,113,1
1,74,0,295
1,70,74,5
1,70,0,33
1,69,83,7
1,69,0,36
1,69,87,4
1,70,91,54
1,69,0,10
1,70,0,21
1,69,84,6
1,69,0,4
1,67,83,5
1,67,0,54
1,65,84,6
1,65,0,593
1,77,73,127
1,77,0,5
1,78,117,5
1,78,0,474
1,77,115,1
1,77,0,8
1,75,106,5
1,75,0,19
1,77,93,2
1,77,0,713
1,77,86,7
1,77,0,9
1,78,113,1
1,78,0,355
1,80,102,4
1,80,0,56
1,78,105,4
1,78,0,53
1,77,112,1
1,77,0,10
1,75,103,4
1,75,0,21
1,77,95,1
1,77,0,77
1,65,85,4
1,65,0,103
1,74,85,5
1,74,0,715
1,79,73,6
1,79,0,173
1,77,76,6
1,77,0,55
1,77,84,6
1,77,0,473
1,65,80,6
1,65,0,475
1,70,87,5
1,70,0,714
1,75,75,6
1,75,0,174
1,74,72,7
1,74,0,54
1,74,86,6
1,74,0,473
1,62,82,7
1,62,0,474
1,67,86,5
1,67,0,30
1,73,83,1
1,73,0,15
1,67,75,3
1,67,0,30
1,66,117,7
1,66,0,232
1,74,105,8
1,74,0,234
1,72,112,5
1,72,0,113
1,70,110,7
1,70,0,113
1,62,102,8
1,62,0,113
1,64,103,6
1,64,0,114
1,65,116,1
1,65,0,22
1,63,107,4
1,63,0,33
1,60,102,7
1,60,0,28
1,58,93,0
1,58,0,75
1,65,83,6
1,65,0,100
1,74,96,2
1,74,0,473
1,77,92,6
1,77,0,23
1,82,84,4
1,82,0,41
1,80,83,6
1,80,0,49
1,80,117,2
1,80,0,44
1,68,110,4
1,68,0,355
1,67,107,5
1,67,0,116
1,66,113,4
1,66,0,74
1,74,92,6
1,74,0,36
1,69,82,5
1,69,0,75
1,72,94,1
1,72,0,235
1,70,82,4
1,70,0,43
1,74,84,26
1,74,0,130
1,64,86,4
1,64,0,476
1,65,81,4
1,65,0,23
1,72,74,4
1,72,0,93
1,72,72,7
1,72,0,50
1,72,87,4
1,72,0,76
1,70,72,6
1,70,0,102
1,74,114,1
1,74,0,296
1,70,77,4
1,70,0,32
1,69,96,1
1,69,0,36
1,69,87,4
1,70,91,53
1,69,0,10
1,70,0,24
1,69,82,4
1,69,0,3
1,67,84,6
1,67,0,54
1,65,82,5
1,65,0,593
1,77,75,127
1,77,0,6
1,78,117,4
1,78,0,474
1,77,113,1
1,77,0,7
1,75,106,5
1,75,0,20
1,77,92,1
1,77,0,716
1,77,86,3
1,77,0,10
1,78,117,1
1,78,0,353
1,80,107,6
1,80,0,56
1,78,106,5
1,78,0,53
1,77,111,7
1,77,0,10
1,75,106,3
1,75,0,19
1,77,93,1
1,77,0,76
1,65,85,5
1,65,0,103
1,74,86,5
1,74,0,713
1,79,73,8
1,79,0,173
1,77,73,6
1,77,0,56
1,77,84,5
1,77,0,473
1,65,81,6
1,65,0,475
1,70,84,6
1,70,0,714
1,75,76,6
1,75,0,175
1,74,76,5
1,74,0,56
1,74,82,3
1,74,0,473
1,62,83,7
1,62,0,473
1,67,85,8
1,67,0,32
1,73,80,5
1,73,0,11
1,67,74,7
1,67,0,33
1,66,114,1
1,66,0,235
1,74,103,4
1,74,0,233
1,72,111,8
1,72,0,116
1,70,113,4
1,70,0,116
1,62,107,3
1,62,0,116
1,64,106,4
1,64,0,114
1,65,117,7
1,65,0,22
1,63,105,5
1,63,0,3
1,60,106,5
1,60,0,29
1,58,93,1
1,58,0,713
1,70,86,8
1,70,0,235
1,80,103,7
1,80,0,474
1,77,104,5
1,77,0,234
1,74,94,6
1,74,0,234
1,74,106,5
1,74,0,236
1,75,96,3
1,75,0,235
1,75,92,246
1,75,0,236
1,78,102,3
1,78,0,474
1,75,101,7
1,75,0,236
1,72,97,3
1,72,0,174
1,69,92,7
1,69,0,56
1,70,93,5
1,70,0,473
1,66,92,8
1,66,0,473
1,65,84,4
1,65,0,716
1,65,73,4
1,65,0,236
1,65,87,6
1,65,0,954
1,58,75,5
1,58,0,953
1,58,73,6
1,58,0,233
1,70,64,7
1,70,0,714
1,62,121,0
1,69,113,17
1,62,0,7
1,77,113,6
1,62,118,208
1,77,0,3
1,69,0,0
1,69,117,17
1,62,0,10
1,80,113,1
1,80,0,210
1,69,0,0
1,62,119,3
1,69,116,15
1,62,0,12
1,81,115,4
1,81,0,209
1,69,0,0
1,74,81,118
1,74,0,42
1,76,78,15
1,76,0,37
1,77,86,24
1,77,0,82
1,77,81,41
1,77,0,81
1,77,81,38
1,77,0,78
1,76,81,42
1,76,0,79
1,74,83,43
1,74,0,239
1,74,81,6
1,74,0,8
1,76,81,1
1,76,0,7
1,62,119,1
1,69,113,12
1,77,113,14
1,62,0,5
1,77,0,203
1,69,0,0
1,62,117,3
1,69,117,17
1,62,0,16
1,80,117,1
1,62,117,208
1,69,0,1
1,80,0,2
1,69,115,11
1,62,0,14
1,81,114,0
1,81,0,208
1,69,0,1
1,74,78,122
1,74,0,40
1,76,81,22
1,76,0,43
1,77,85,18
1,77,0,79
1,77,79,36
1,77,0,78
1,77,81,43
1,77,0,83
1,76,82,40
1,76,0,79
1,74,85,41
1,74,0,239
1,74,80,118
1,74,0,38
1,76,78,25
1,76,0,37
1,77,85,19
1,77,0,83
1,77,81,43
1,77,0,83
1,77,82,33
1,77,0,77
1,75,80,44
1,75,0,77
1,74,82,45
1,74,0,83
1,77,82,37
1,77,0,78
1,77,82,39
1,77,0,81
1,75,80,40
1,75,0,79
1,74,85,44
1,74,0,82
1,74,78,34
1,74,0,77
1,74,84,39
1,74,0,36
1,72,81,36
1,72,0,62
1,70,82,29
1,70,0,17
1,74,79,44
1,74,0,64
1,74,80,11
1,74,0,7
1,72,78,44
1,72,0,48
1,70,93,1
1,62,94,0
1,70,0,111
1,62,0,2
1,62,92,2
1,70,88,1
1,62,0,114
1,70,0,2
1,60,90,1
1,69,92,1
1,69,0,23
1,60,0,1
1,69,88,0
1,60,89,3
1,69,0,21
1,60,0,1
1,67,96,4
1,58,92,1
1,58,0,7
1,67,0,2
1,58,92,6
1,67,91,3
1,58,0,19
1,67,0,5
1,65,93,0
1,58,94,1
1,65,0,31
1,58,0,7
1,65,92,2
1,58,88,0
1,57,121,53
1,58,0,2
1,65,0,1
1,64,117,10
1,69,117,14
1,57,0,2
1,69,0,207
1,64,0,3
1,57,117,3
1,65,114,11
1,57,0,18
1,69,114,1
1,57,121,205
1,69,0,1
1,65,0,1
1,64,115,15
1,57,0,12
1,69,114,3
1,64,0,326
1,69,0,4
1,69,109,2
1,69,0,56
1,69,112,1
1,69,0,56
1,62,118,5
1,69,113,13
1,62,0,16
1,77,116,2
1,69,0,208
1,77,0,2
1,62,117,2
1,69,113,11
1,80,115,17
1,62,0,1
1,69,0,204
1,80,0,1
1,62,120,1
1,69,114,21
1,62,0,6
1,81,115,4
1,81,0,207
1,69,0,6
1,74,79,117
1,74,0,37
1,76,81,27
1,76,0,39
1,77,82,18
1,77,0,83
1,77,80,39
1,77,0,81
1,77,80,40
1,77,0,79
1,76,82,39
1,76,0,81
1,74,86,36
1,74,0,241
1,74,78,1
1,74,0,11
1,76,82,5
1,76,0,4
1,62,120,13
1,69,114,10
1,62,0,17
1,77,114,1
1,69,0,204
1,77,0,1
1,62,118,3
1,69,115,14
1,62,0,17
1,80,113,4
1,69,0,200
1,62,119,5
1,80,0,6
1,69,115,13
1,81,114,12
1,62,0,1
1,81,0,206
1,69,0,6
1,74,79,116
1,74,0,40
1,76,79,22
1,76,0,37
1,77,83,20
1,77,0,82
1,77,81,42
1,77,0,79
1,77,80,39
1,77,0,79
1,76,79,41
1,76,0,80
1,74,83,41
1,74,0,238
1,74,78,122
1,74,0,42
1,76,78,16
1,76,0,40
1,77,82,21
1,77,0,81
1,77,79,38
1,77,0,81
1,77,83,41
1,77,0,82
1,75,78,38
1,75,0,78
1,74,84,42
1,74,0,80
1,77,80,43
1,77,0,83
1,77,84,31
1,77,0,80
1,75,80,41
1,75,0,82
1,74,83,40
1,74,0,80
1,74,80,39
1,74,0,80
1,74,84,36
1,74,0,33
1,72,79,41
1,72,0,67
1,70,85,26
1,70,0,19
1,74,78,41
1,74,0,57
1,74,82,9
1,74,0,8
1,72,80,44
1,72,0,46
1,70,92,0
1,62,94,2
1,70,0,116
1,62,0,2
1,70,91,2
1,62,89,0
1,69,91,118
1,62,0,1
1,60,93,0
1,70,0,1
1,69,0,18
1,60,0,5
1,69,91,0
1,60,90,0
1,60,0,24
1,69,0,1
1,58,92,0
1,67,94,1
1,58,0,8
1,67,0,2
1,67,88,1
1,58,92,4
1,67,0,27
1,58,0,1
1,65,94,5
1,58,91,0
1,58,0,37
1,65,0,2
1,58,89,0
1,65,92,2
1,65,0,48
1,58,0,0
1,57,117,0
1,64,116,13
1,69,117,14
1,57,0,4
1,64,0,202
1,57,118,2
1,69,0,3
1,65,113,11
1,57,0,13
1,69,116,2
1,69,0,205
1,65,0,0
1,57,121,11
1,64,115,15
1,69,115,11
1,57,0,3
1,69,0,208
1,64,0,3
1,69,70,117
1,69,0,119
1,69,75,1
1,77,70,60
1,69,0,1
1,77,0,175
1,69,72,3
1,69,0,55
1,80,68,9
1,80,0,179
1,69,75,1
1,81,72,55
1,69,0,1
1,81,0,180
1,74,71,118
1,74,0,37
1,76,68,29
1,76,0,40
1,77,74,18
1,77,0,79
1,77,70,37
1,77,0,77
1,77,73,45
1,77,0,82
1,76,68,38
1,76,0,78
1,74,75,42
1,74,0,236
1,74,69,0
1,74,0,14
1,76,69,11
1,76,0,9
1,69,96,0
1,69,0,56
1,77,88,5
1,69,94,174
1,77,0,1
1,69,0,4
1,80,90,5
1,80,0,25
1,69,94,3
1,81,88,36
1,69,0,3
1,81,0,2
1,74,102,2
1,74,0,41
1,76,101,19
1,76,0,40
1,77,102,18
1,77,0,82
1,77,99,39
1,77,0,82
1,77,104,36
1,77,0,78
1,76,99,42
1,76,0,83
1,74,105,35
1,74,0,358
1,69,85,127
1,69,0,39
1,72,80,17
1,72,0,41
1,77,81,18
1,77,0,40
1,76,78,25
1,76,0,39
1,74,81,16
1,74,0,37
1,81,82,27
1,81,0,41
1,76,79,14
1,76,0,40
1,79,82,21
1,79,0,37
1,77,84,24
1,77,0,39
1,72,82,25
1,72,0,39
1,77,81,20
1,77,0,43
1,76,79,17
1,76,0,39
1,74,81,17
1,74,0,40
1,81,81,19
1,81,0,37
1,76,82,28
1,76,0,39
1,79,81,19
1,79,0,41
1,77,84,16
1,77,0,4
1,69,81,8
1,69,0,20
1,74,81,0
1,74,0,28
1,72,82,3
1,72,0,34
1,71,84,3
1,71,0,42
1,77,81,4
1,77,0,5
1,73,79,6
1,73,0,19
1,76,82,1
1,74,84,22
1,76,0,5
1,74,0,29
1,69,80,4
1,69,0,41
1,74,81,1
1,74,0,51
1,72,79,2
1,72,0,6
1,71,82,6
1,77,81,18
1,71,0,2
1,77,0,27
1,73,81,6
1,73,0,36
1,76,81,6
1,74,104,1
1,76,0,1
1,74,0,52
1,77,98,5
1,77,0,58
1,74,102,0
1,74,0,61
1,86,98,3
1,76,104,56
1,86,0,2
1,76,0,57
1,79,99,4
1,79,0,58
1,76,99,1
1,76,0,58
1,88,100,2
1,88,0,61
1,77,105,1
1,81,102,57
1,77,0,2
1,81,0,54
1,77,102,7
1,77,0,56
1,89,99,4
1,89,0,59
1,77,102,0
1,77,0,55
1,84,98,3
1,77,99,60
1,84,0,1
1,77,0,58
1,89,98,6
1,88,117,55
1,76,119,2
1,89,0,2
1,76,0,234
1,88,0,0
1,73,118,6
1,85,117,1
1,85,0,236
1,62,114,1
1,73,0,3
1,62,0,53
1,74,112,6
1,86,108,1
1,86,0,297
1,74,0,3
1,69,69,0
1,69,0,110
1,69,73,7
1,69,0,56
1,77,72,3
1,77,0,179
1,69,74,2
1,69,0,56
1,80,72,6
1,80,0,175
1,69,75,5
1,81,71,55
1,69,0,4
1,81,0,175
1,74,70,123
1,74,0,42
1,76,68,21
1,76,0,42
1,77,75,15
1,77,0,83
1,77,70,41
1,77,0,83
1,77,73,34
1,77,0,82
1,76,68,39
1,76,0,79
1,74,74,39
1,74,0,235
1,74,71,2
1,74,0,12
1,76,71,5
1,76,0,1
1,69,95,4
1,69,0,57
1,77,89,0
1,77,0,180
1,69,93,0
1,69,0,5
1,80,91,1
1,80,0,20
1,69,96,5
1,69,0,28
1,81,91,3
1,81,0,3
1,74,101,122
1,74,0,40
1,76,102,14
1,76,0,41
1,77,106,20
1,77,0,80
1,77,101,40
1,77,0,81
1,77,102,43
1,77,0,80
1,76,101,39
1,76,0,77
1,74,103,45
1,74,0,358
1,69,82,116
1,69,0,43
1,72,81,23
1,72,0,38
1,77,82,16
1,77,0,39
