track,note,velocity,time
0,40,91,267
0,40,104,12
0,43,111,32
0,60,86,38
0,70,86,0
0,75,75,0
0,79,98,0
0,36,99,0
0,58,30,0
0,63,52,0
0,67,80,0
0,36,107,0
0,42,111,0
0,49,111,0
0,43,113,7
0,42,71,0
0,36,88,11
0,36,109,0
0,42,98,0
0,48,124,4
0,46,119,0
0,40,127,1
0,42,111,0
0,48,43,16
0,42,71,0
0,42,91,18
0,48,117,18
0,42,104,0
0,43,93,8
0,42,86,0
0,42,71,18
0,42,71,6
0,46,117,1
0,36,109,0
0,42,119,0
0,42,98,3
0,39,111,15
0,40,127,0
0,42,111,0
0,46,104,6
0,42,98,7
0,42,86,18
0,36,111,5
0,36,109,0
0,42,119,0
0,43,88,0
0,42,75,0
0,36,84,16
0,36,109,0
0,42,104,0
0,48,124,6
0,42,98,0
0,40,127,8
0,42,111,0
0,48,117,2
0,46,119,0
0,41,99,7
0,42,91,0
0,43,104,5
0,46,119,0
0,42,66,3
0,42,75,5
0,39,111,10
0,36,109,0
0,42,104,0
0,41,117,2
0,42,86,0
0,67,75,15
0,72,86,0
0,77,75,0
0,82,75,0
0,39,111,0
0,58,40,0
0,63,58,0
0,70,75,0
0,40,127,0
0,42,119,0
0,42,91,1
0,42,104,2
0,42,55,16
0,42,71,8
0,60,71,1
0,70,71,0
0,75,71,0
0,79,86,0
0,36,99,0
0,58,86,0
0,63,55,0
0,67,71,0
0,36,107,0
0,42,104,0
0,43,79,7
0,42,98,0
0,36,88,11
0,36,109,0
0,42,98,0
0,48,124,7
0,46,104,0
0,40,127,1
0,42,119,0
0,48,43,15
0,42,98,0
0,42,104,18
0,48,117,10
0,42,104,0
0,43,93,8
0,42,98,0
0,42,98,17
0,46,117,18
0,36,109,0
0,42,104,0
0,46,104,3
0,39,111,15
0,40,127,0
0,42,127,0
0,42,75,4
0,42,86,19
0,82,71,18
0,42,86,0
0,87,75,4
0,91,71,0
0,36,111,0
0,36,107,0
0,42,111,0
0,43,88,0
0,42,80,0
0,42,71,1
0,36,84,3
0,36,109,0
0,42,98,0
0,48,124,6
0,42,104,0
0,40,127,8
0,42,111,0
0,48,117,5
0,46,111,0
0,41,99,7
0,42,86,0
0,43,104,5
0,46,119,0
0,42,75,3
0,42,98,17
0,39,111,19
0,36,109,0
0,42,104,0
0,41,117,2
0,42,58,0
0,39,111,4
0,40,127,0
0,42,119,0
0,46,104,3
0,42,98,14
0,42,98,9
0,60,80,7
0,77,86,0
0,79,86,0
0,84,91,0
0,36,99,0
0,58,55,0
0,63,58,0
0,67,66,0
0,72,66,0
0,36,109,0
0,42,98,0
0,43,79,7
0,42,80,0
0,36,88,11
0,36,109,0
0,42,98,0
0,48,124,5
0,46,104,0
0,40,127,1
0,42,119,0
0,48,43,7
0,42,75,0
0,42,98,18
0,48,117,16
0,42,111,0
0,43,93,8
0,42,91,0
0,42,91,16
0,46,117,18
0,36,109,0
0,42,91,0
0,42,91,3
0,39,111,19
0,40,127,0
0,42,119,0
0,46,111,6
0,42,75,19
0,42,91,19
0,36,111,5
0,36,100,0
0,42,98,0
0,43,88,0
0,42,91,0
0,36,84,16
0,36,109,0
0,42,91,0
0,48,124,2
0,46,104,0
0,40,127,8
0,42,119,0
0,48,117,6
0,46,119,0
0,41,99,7
0,42,75,0
0,43,104,5
0,42,104,0
0,42,91,3
0,42,98,15
0,39,111,10
0,36,109,0
0,42,104,0
0,41,117,1
0,42,71,0
0,42,75,6
0,67,86,1
0,79,86,0
0,82,98,0
0,87,86,0
0,39,111,0
0,58,43,0
0,63,48,0
0,67,66,0
0,75,75,0
0,40,127,0
0,42,111,0
0,42,98,3
0,42,98,19
0,46,98,15
0,67,91,6
0,77,80,0
0,79,86,0
0,84,91,0
0,36,99,0
0,58,55,0
0,63,58,0
0,67,58,0
0,72,91,0
0,36,107,0
0,42,104,0
0,43,79,6
0,42,86,0
0,36,88,11
0,36,100,0
0,42,104,0
0,48,124,6
0,42,71,0
0,40,127,1
0,42,119,0
0,48,43,2
0,46,91,0
0,42,91,18
0,48,117,19
0,42,111,0
0,43,93,8
0,42,55,0
0,42,91,18
0,46,117,18
0,36,107,0
0,42,98,0
0,42,75,3
0,39,111,19
0,40,127,0
0,42,111,0
0,46,104,0
0,42,86,18
0,42,91,18
0,36,111,5
0,36,109,0
0,42,91,0
0,43,88,0
0,42,75,0
0,42,75,4
0,36,84,2
0,36,100,0
0,42,104,0
0,48,104,2
0,48,124,4
0,42,111,0
0,40,127,8
0,42,104,0
0,89,40,10
0,48,117,1
0,46,104,0
0,88,46,1
0,45,86,0
0,86,58,1
0,84,52,2
0,83,43,0
0,41,99,1
0,42,71,0
0,81,40,1
0,79,24,2
0,63,6,4
0,77,22,2
0,43,104,4
0,40,115,0
0,46,127,0
0,42,75,3
0,45,86,0
0,69,34,0
0,67,52,0
0,65,55,4
0,64,55,5
0,62,43,1
0,40,98,1
0,42,104,0
0,39,111,8
0,36,109,0
0,42,104,0
0,67,104,1
0,41,117,2
0,42,98,0
0,41,91,2
0,39,111,6
0,40,127,0
0,42,111,0
0,41,98,2
0,46,111,5
0,70,111,3
0,45,71,0
0,42,98,1
0,42,104,3
0,60,75,8
0,70,71,1
0,74,86,0
0,75,75,0
0,79,91,0
0,36,94,0
0,36,92,0
0,42,96,0
0,49,96,0
0,72,111,3
0,74,91,1
0,43,74,5
0,42,56,0
0,36,83,11
0,36,105,0
0,42,83,0
0,48,119,4
0,46,104,0
0,40,127,1
0,42,96,0
0,48,38,16
0,42,56,0
0,42,76,18
0,48,112,18
0,42,89,0
0,43,88,8
0,42,71,0
0,74,98,3
0,42,56,18
0,42,56,6
0,46,112,1
0,36,109,0
0,42,104,0
0,75,98,1
0,42,83,3
0,39,106,6
0,40,127,0
0,42,96,0
0,67,111,1
0,46,89,14
0,42,83,7
0,70,98,1
0,72,75,4
0,42,71,0
0,70,48,5
0,74,66,0
0,75,40,0
0,79,71,0
0,36,106,0
0,36,98,0
0,42,104,0
0,43,83,0
0,42,60,0
0,36,79,16
0,36,98,0
0,42,89,0
0,70,71,3
0,74,71,0
0,75,34,0
0,79,75,0
0,48,119,0
0,42,83,0
0,40,127,8
0,42,96,0
0,48,112,2
0,46,104,0
0,60,55,7
0,70,71,0
0,74,91,0
0,75,71,0
0,79,91,0
0,41,94,0
0,42,76,0
0,43,99,5
0,46,104,0
0,42,51,3
0,42,60,2
0,39,106,19
0,36,98,0
0,42,89,0
0,60,111,0
0,41,112,2
0,42,71,0
0,39,106,15
0,40,127,0
0,42,104,0
0,42,76,15
0,63,98,1
0,42,89,3
0,42,40,16
0,42,56,6
0,56,80,1
0,66,71,0
0,68,71,0
0,71,80,0
0,75,75,0
0,32,106,0
0,36,92,0
0,42,89,0
0,68,104,2
0,70,80,6
0,39,63,2
0,42,83,0
0,32,79,5
0,36,105,0
0,42,83,0
0,44,99,7
0,46,89,0
0,40,127,5
0,42,104,0
0,42,83,15
0,42,89,2
0,44,99,1
0,42,89,0
0,68,91,2
0,39,99,2
0,42,83,0
0,42,83,2
0,66,91,14
0,32,88,1
0,36,98,0
0,42,89,0
0,46,89,4
0,65,104,11
0,32,106,4
0,40,127,0
0,42,112,0
0,42,60,4
0,63,98,17
0,42,71,2
0,42,71,18
0,53,71,2
0,63,80,0
0,67,98,0
0,68,80,0
0,72,98,0
0,29,99,0
0,36,92,0
0,42,96,0
0,42,65,3
0,42,56,2
0,29,83,3
0,36,98,0
0,42,83,0
0,41,112,6
0,42,89,0
0,40,127,6
0,42,96,0
0,41,112,5
0,46,96,0
0,30,106,8
0,42,71,0
0,31,106,5
0,46,104,0
0,42,60,7
0,42,83,17
0,55,91,19
0,70,66,0
0,75,75,0
0,77,75,0
0,31,106,0
0,36,98,0
0,42,89,0
0,67,111,1
0,42,43,7
0,43,112,4
0,40,127,0
0,42,104,0
0,31,106,3
0,46,89,0
0,70,111,2
0,42,83,17
0,42,83,2
0,60,80,4
0,70,66,0
0,74,86,0
0,75,71,0
0,79,86,0
0,36,94,0
0,36,98,0
0,42,83,0
0,72,111,1
0,74,98,0
0,43,74,7
0,42,65,0
0,36,83,5
0,36,98,0
0,42,83,0
0,48,119,5
0,46,89,0
0,40,127,1
0,42,104,0
0,48,38,7
0,42,60,0
0,42,83,18
0,48,112,16
0,42,96,0
0,43,88,2
0,42,76,0
0,74,98,0
0,42,76,16
0,46,112,18
0,36,98,0
0,42,76,0
0,75,104,2
0,42,76,3
0,39,106,19
0,40,127,0
0,42,104,0
0,67,111,0
0,46,96,6
0,70,91,18
0,42,60,1
0,72,86,4
0,42,76,8
0,70,86,3
0,36,106,0
0,36,85,0
0,42,83,0
0,43,83,0
0,42,76,0
0,36,79,16
0,36,98,0
0,42,76,0
0,48,119,4
0,46,89,0
0,40,127,8
0,42,104,0
0,48,112,6
0,46,104,0
0,58,75,7
0,63,62,0
0,67,86,0
0,41,94,0
0,42,60,0
0,43,99,5
0,42,89,0
0,42,76,3
0,42,83,0
0,60,104,5
0,62,80,1
0,39,106,0
0,36,105,0
0,42,89,0
0,41,112,1
0,42,56,0
0,42,60,7
0,39,106,2
0,40,127,0
0,42,96,0
0,42,83,3
0,63,104,0
0,42,83,5
0,46,83,15
0,56,86,9
0,66,55,0
0,68,71,0
0,71,71,0
0,75,75,0
0,32,106,0
0,36,92,0
0,42,89,0
0,68,104,1
0,70,71,7
0,39,63,3
0,42,71,0
0,32,79,6
0,36,85,0
0,42,89,0
0,44,99,6
0,42,56,0
0,40,127,5
0,42,104,0
0,46,76,2
0,42,76,20
0,44,99,19
0,42,96,0
0,39,99,4
0,42,40,0
0,68,98,0
0,42,76,8
0,32,88,18
0,36,92,0
0,42,83,0
0,66,86,3
0,42,60,6
0,32,106,19
0,40,127,0
0,42,96,0
0,65,98,1
0,46,89,0
0,42,71,18
0,63,98,1
0,42,76,18
0,53,80,9
0,63,75,0
0,67,91,0
0,68,71,0
0,72,91,0
0,29,99,0
0,36,98,0
0,42,76,0
0,49,88,0
0,42,60,3
0,42,60,2
0,29,83,2
0,36,85,0
0,42,89,0
0,41,112,0
0,42,96,0
0,40,127,6
0,42,89,0
0,41,112,15
0,46,89,0
0,30,106,6
0,40,104,0
0,42,56,0
0,31,106,1
0,40,100,0
0,46,112,0
0,42,60,7
0,40,119,19
0,42,89,0
0,43,86,17
0,55,71,0
0,70,80,0
0,75,80,0
0,77,86,0
0,31,106,0
0,36,98,0
0,42,89,0
0,42,83,4
0,47,46,0
0,48,46,0
0,43,112,4
0,58,111,0
0,40,119,0
0,42,96,0
0,31,106,7
0,60,98,0
0,46,96,0
0,63,98,20
0,42,83,0
0,42,89,2
0,48,111,0
0,56,80,4
0,67,71,0
0,68,71,0
0,72,80,0
0,75,75,0
0,32,111,0
0,67,36,0
0,68,62,0
0,72,62,0
0,75,66,0
0,36,107,0
0,42,104,0
0,49,111,0
0,54,80,0
0,65,98,2
0,42,66,24
0,51,86,0
0,44,124,15
0,42,71,0
0,51,80,0
0,40,127,11
0,42,98,0
0,51,91,0
0,54,91,0
0,63,98,13
0,42,66,1
0,51,71,0
0,32,117,4
0,36,100,0
0,42,66,0
0,51,62,0
0,65,98,12
0,42,86,1
0,51,80,0
0,54,86,0
0,63,86,30
0,32,111,2
0,36,107,0
0,42,71,0
0,51,71,0
0,42,66,1
0,51,80,0
0,65,91,1
0,67,98,4
0,44,124,2
0,40,127,0
0,42,104,0
0,51,98,0
0,54,91,0
0,65,98,5
0,32,111,1
0,36,89,0
0,42,66,0
0,51,75,0
0,42,71,1
0,51,80,0
0,55,75,3
0,65,71,0
0,67,86,0
0,72,75,0
0,31,111,0
0,65,66,0
0,67,71,0
0,72,71,0
0,77,91,0
0,79,91,0
0,84,98,0
0,36,107,0
0,42,86,0
0,51,86,0
0,54,91,0
0,77,62,6
0,79,71,0
0,84,66,0
0,42,58,3
0,51,66,0
0,55,86,8
0,65,66,0
0,67,71,0
0,71,75,0
0,43,104,0
0,77,71,0
0,79,98,0
0,83,91,0
0,42,86,0
0,51,71,0
0,40,127,0
0,42,98,0
0,51,98,0
0,54,91,0
0,42,46,2
0,51,75,0
0,31,99,1
0,36,109,0
0,42,71,0
0,51,91,0
0,55,75,6
0,65,48,0
0,67,71,0
0,72,75,0
0,65,58,0
0,67,43,0
0,71,75,0
0,77,75,0
0,79,91,0
0,84,98,0
0,42,91,0
0,51,86,0
0,54,91,0
0,55,91,15
0,65,58,0
0,67,71,0
0,72,80,0
0,31,111,0
0,77,71,0
0,79,86,0
0,84,91,0
0,36,107,0
0,42,80,0
0,51,66,0
0,42,75,0
0,51,71,0
0,55,86,3
0,65,55,0
0,67,58,0
0,71,75,0
0,43,111,0
0,77,71,0
0,79,98,0
0,83,98,0
0,40,127,0
0,42,104,0
0,51,104,0
0,54,98,0
0,31,99,2
0,42,71,0
0,51,86,0
0,42,75,16
0,51,86,0
0,54,75,4
0,65,71,0
0,68,25,0
0,70,86,0
0,73,80,0
0,30,99,0
0,65,43,0
0,68,48,0
0,70,58,0
0,73,58,0
0,77,86,0
0,80,98,0
0,82,111,0
0,85,104,0
0,36,107,0
0,42,91,0
0,51,98,0
0,54,86,0
0,65,98,1
0,68,46,9
0,42,71,24
0,51,71,0
0,42,111,13
0,42,75,0
0,51,71,0
0,40,127,7
0,42,104,0
0,51,98,0
0,54,86,0
0,42,66,17
0,51,75,0
0,30,117,2
0,36,100,0
0,42,80,0
0,51,71,0
0,65,98,9
0,42,80,3
0,51,80,0
0,54,80,0
0,66,98,32
0,30,111,4
0,36,100,0
0,42,80,0
0,51,80,0
0,42,66,3
0,51,71,0
0,42,117,1
0,40,127,0
0,42,98,0
0,51,98,0
0,54,91,0
0,61,98,0
0,30,93,7
0,61,98,0
0,36,95,0
0,42,55,0
0,51,75,0
0,63,91,5
0,42,88,2
0,42,58,0
0,51,66,0
0,53,86,8
0,63,80,0
0,65,80,0
0,70,75,0
0,29,93,0
0,63,55,0
0,65,71,0
0,70,75,0
0,75,80,0
0,77,86,0
0,82,86,0
0,36,100,0
0,42,91,0
0,51,91,0
0,54,91,0
0,75,55,4
0,77,80,0
0,82,66,0
0,42,55,3
0,51,75,0
0,53,86,5
0,63,71,0
0,65,80,0
0,69,86,0
0,41,111,0
0,75,80,0
0,77,98,0
0,81,98,0
0,42,80,0
0,51,80,0
0,40,127,3
0,42,98,0
0,51,91,0
0,54,86,0
0,42,62,6
0,51,71,0
0,41,111,9
0,36,107,0
0,42,75,0
0,51,80,0
0,53,75,6
0,63,58,0
0,65,75,0
0,70,66,0
0,63,62,0
0,65,71,0
0,69,71,0
0,75,75,0
0,77,80,0
0,82,91,0
0,42,86,0
0,51,86,0
0,54,91,0
0,53,80,21
0,63,55,0
0,65,71,0
0,70,80,0
0,29,104,0
0,75,75,0
0,77,91,0
0,82,86,0
0,36,100,0
0,42,80,0
0,51,75,0
0,42,71,2
0,51,66,0
0,53,75,2
0,63,62,0
0,65,71,0
0,69,80,0
0,41,111,0
0,75,86,0
0,77,98,0
0,81,98,0
0,40,127,0
0,42,111,0
0,51,98,0
0,54,86,0
0,29,75,4
0,36,89,0
0,42,62,0
0,51,75,0
0,41,71,2
0,42,71,0
0,51,75,0
0,52,80,2
0,63,52,0
0,68,71,0
0,71,62,0
0,28,104,0
0,63,58,0
0,68,62,0
0,71,62,0
0,75,91,0
0,36,107,0
0,42,98,0
0,51,91,0
0,54,91,0
0,63,104,2
0,42,52,4
0,51,66,0
0,40,111,5
0,42,80,0
0,51,75,0
0,80,98,2
0,40,127,0
0,42,104,0
0,51,98,0
0,54,98,0
0,42,62,8
0,51,62,0
0,28,99,4
0,36,107,0
0,42,86,0
0,51,80,0
0,82,104,13
0,42,114,0
0,51,91,0
0,54,91,0
0,63,104,3
0,48,84,10
0,28,99,5
0,36,95,0
0,42,110,0
0,51,91,0
0,64,91,1
0,45,100,15
0,51,75,0
0,59,98,1
0,40,111,0
