track,note,velocity,time
1,33,122,1536
1,33,127,5784
1,33,122,5754
1,33,127,5784
1,33,122,5754
1,33,127,5784
1,33,127,5754
1,33,119,170
1,45,110,192
1,43,85,192
1,40,95,16
1,45,113,62
1,33,110,384
1,45,100,10
1,40,105,10
1,40,102,88
1,33,119,14
1,33,122,160
1,45,102,144
1,43,89,192
1,40,98,122
1,45,107,78
1,43,110,0
1,40,100,192
1,43,102,174
1,33,122,8
1,33,119,158
1,45,107,138
1,43,100,192
1,40,98,132
1,45,110,58
1,33,105,384
1,33,116,272
1,45,87,0
1,33,116,192
1,45,95,24
1,33,113,192
1,45,107,30
1,45,110,138
1,45,107,136
1,43,98,192
1,40,105,126
1,33,119,378
1,33,122,112
1,33,122,5784
1,33,127,5784
1,33,122,5754
1,33,127,5784
1,33,127,5754
1,33,119,170
1,45,110,192
1,43,85,192
1,40,95,16
1,45,113,62
1,33,110,384
1,45,100,10
1,40,105,10
1,40,102,88
1,33,119,14
1,33,122,160
1,45,102,144
1,43,89,192
1,40,98,122
1,45,107,78
1,43,110,0
1,40,100,192
1,43,102,174
1,33,122,8
1,33,119,158
1,45,107,138
1,43,100,192
1,40,98,132
1,45,110,58
1,33,105,384
1,33,116,272
1,45,87,0
1,33,116,192
1,45,95,24
1,33,113,192
1,45,107,30
1,45,110,138
1,45,107,136
1,43,98,192
1,40,105,126
1,33,119,378
1,33,113,12400
1,45,98,20
1,45,85,90
1,42,85,96
1,40,89,164
1,45,85,20
1,45,87,42
1,45,87,78
1,42,85,96
1,40,110,174
1,31,116,42
1,38,107,26
1,30,95,14
1,38,102,384
1,33,113,56
1,45,98,20
1,45,85,90
1,42,85,96
1,40,89,164
1,45,85,20
1,45,87,42
1,45,87,78
1,42,85,96
1,40,110,174
1,31,116,42
1,38,107,26
1,30,95,14
1,38,102,384
1,33,113,56
1,45,98,20
1,45,85,90
1,42,85,96
1,40,89,164
1,45,85,20
1,45,87,42
1,45,87,78
1,42,85,96
1,40,110,174
1,31,116,42
1,38,107,26
1,30,95,14
1,38,102,384
1,33,113,56
1,45,98,20
1,45,85,90
1,42,85,96
1,40,89,164
1,45,85,20
1,45,87,42
1,45,87,78
1,42,85,96
1,40,110,174
1,31,116,42
1,38,107,26
1,30,95,14
1,38,102,384
1,33,113,56
1,45,98,20
1,45,85,90
1,42,85,96
1,40,89,164
1,45,85,20
1,45,87,42
1,45,87,78
1,42,85,96
1,40,110,174
1,31,116,42
1,38,107,26
1,30,95,14
1,38,102,384
1,33,113,56
1,45,98,20
1,45,85,90
1,42,85,96
1,40,89,164
1,45,85,20
1,45,87,42
1,45,87,78
1,42,85,96
1,40,110,174
1,31,116,42
1,38,107,26
1,30,95,14
1,38,102,384
1,33,113,56
1,45,98,20
1,45,85,90
1,42,85,96
1,40,89,164
1,45,85,20
1,45,87,42
1,45,87,78
1,42,85,96
1,40,110,174
1,31,116,42
1,38,107,26
1,30,95,14
1,38,102,384
1,33,113,56
1,45,98,20
1,45,85,90
1,42,85,96
1,40,89,164
1,45,85,20
1,45,87,42
1,45,87,78
1,42,85,96
1,40,110,174
1,31,116,42
1,38,107,26
1,30,95,14
1,38,102,384
1,33,113,56
1,45,98,20
1,45,85,90
1,42,85,96
1,40,89,164
1,45,85,20
1,45,87,42
1,45,87,78
1,42,85,96
1,40,110,174
1,31,116,42
1,38,107,26
1,30,95,14
1,38,102,384
1,33,113,56
1,45,98,20
1,45,85,90
1,42,85,96
1,40,89,164
1,45,85,20
1,45,87,42
1,45,87,78
1,42,85,96
1,40,110,174
1,31,116,42
1,38,107,26
1,30,95,14
1,38,102,384
1,33,113,56
1,45,98,20
1,45,85,90
1,42,85,96
1,40,89,164
1,45,85,20
1,45,87,42
1,45,87,78
1,42,85,96
1,40,110,174
1,31,116,42
1,38,107,26
1,30,95,14
1,38,102,384
1,33,113,56
1,45,98,20
1,45,85,90
1,42,85,96
1,40,89,164
1,45,85,20
1,45,87,42
1,45,87,78
1,42,85,96
1,40,110,174
1,31,116,42
1,38,107,26
1,30,95,14
1,38,102,384
1,33,113,56
1,45,98,20
1,45,85,90
1,42,85,96
1,40,89,164
1,45,85,20
1,45,87,42
1,45,87,78
1,42,85,96
1,40,110,174
1,31,116,42
1,38,107,26
1,30,95,14
1,38,102,384
1,33,113,56
1,45,98,20
1,45,85,90
1,42,85,96
1,40,89,164
1,45,85,20
1,45,87,42
1,45,87,78
1,42,85,96
1,40,110,174
1,31,116,42
1,38,107,26
1,30,95,14
1,38,102,384
1,33,113,56
1,45,98,20
1,45,85,90
1,42,85,96
1,40,89,164
1,45,85,20
1,45,87,42
1,45,87,78
1,42,85,96
1,40,110,174
1,31,116,42
1,38,107,26
1,30,95,14
1,38,102,384
1,33,113,56
1,45,98,20
1,45,85,90
1,42,85,96
1,40,89,164
1,45,85,20
1,45,87,42
1,45,87,78
1,42,85,96
1,40,110,174
1,31,116,42
1,38,107,26
1,30,95,14
1,38,102,384
1,33,113,56
1,45,98,20
1,45,85,90
1,42,85,96
1,40,89,164
1,45,85,20
1,45,87,42
1,45,87,78
1,42,85,96
1,40,110,174
1,31,116,42
1,38,107,26
1,30,95,14
1,38,102,384
1,33,113,56
1,45,98,20
1,45,85,90
1,42,85,96
1,40,89,164
1,45,85,20
1,45,87,42
1,45,87,78
1,42,85,96
1,40,110,174
1,31,116,42
1,38,107,26
1,30,95,14
1,38,102,384
1,40,122,56
1,40,110,42
1,28,107,288
1,33,122,136
1,33,127,5784
1,33,122,5754
1,33,127,5784
1,33,122,5754
1,33,127,5784
1,33,127,5754
1,33,119,170
1,45,110,192
1,43,85,192
1,40,95,16
1,45,113,62
1,33,110,384
1,45,100,10
1,40,105,10
1,40,102,88
1,33,119,14
1,33,122,160
1,45,102,144
1,43,89,192
1,40,98,122
1,45,107,78
1,43,110,0
1,40,100,192
1,43,102,174
1,33,127,8
1,33,119,170
1,45,110,192
1,43,85,192
1,40,95,16
1,45,113,62
1,33,110,384
1,45,100,10
1,40,105,10
1,40,102,88
1,33,119,14
1,33,122,160
1,45,102,144
1,43,89,192
1,40,98,122
1,45,107,78
1,43,110,0
1,40,100,192
1,43,102,174
1,33,127,8
1,33,119,170
1,45,110,192
1,43,85,192
1,40,95,16
1,45,113,62
1,33,110,384
1,45,100,10
1,40,105,10
1,40,102,88
1,33,119,14
1,33,122,160
1,45,102,144
1,43,89,192
1,40,98,122
1,45,107,78
1,43,110,0
1,40,100,192
1,43,102,174
1,33,127,8
1,33,119,170
1,45,110,192
1,43,85,192
1,40,95,16
1,45,113,62
1,33,110,384
1,45,100,10
1,40,105,10
1,40,102,88
1,33,119,14
1,33,122,160
1,45,102,144
1,43,89,192
1,40,98,122
1,45,107,78
1,43,110,0
1,40,100,192
1,43,102,174
1,33,127,8
1,33,119,170
1,45,110,192
1,43,85,192
1,40,95,16
1,45,113,62
1,33,110,384
1,45,100,10
1,40,105,10
1,40,102,88
1,33,119,14
1,33,122,160
1,45,102,144
1,43,89,192
1,40,98,122
1,45,107,78
1,33,122,384
2,57,107,1536
2,52,105,0
2,45,105,0
2,62,113,816
2,57,113,0
2,50,113,0
2,52,110,170
2,57,105,0
2,45,107,0
2,62,105,1128
2,57,102,0
2,54,89,0
2,57,100,24
2,62,102,0
2,54,87,0
2,57,100,78
2,54,89,0
2,62,102,0
2,57,102,52
2,62,105,0
2,54,85,0
2,45,100,104
2,52,113,0
2,57,110,0
2,57,107,1182
2,52,105,0
2,45,105,0
2,62,113,816
2,57,113,0
2,50,113,0
2,52,110,170
2,57,105,0
2,45,107,0
2,62,105,1128
2,57,102,0
2,54,89,0
2,57,100,24
2,62,102,0
2,54,87,0
2,57,100,78
2,54,89,0
2,62,102,0
2,57,102,52
2,62,105,0
2,54,85,0
2,45,100,104
2,52,113,0
2,57,110,0
2,57,107,1182
2,52,105,0
2,45,105,0
2,62,113,816
2,57,113,0
2,50,113,0
2,52,110,170
2,57,105,0
2,45,107,0
2,62,105,1128
2,57,102,0
2,54,89,0
2,57,100,24
2,62,102,0
2,54,87,0
2,57,100,78
2,54,89,0
2,62,102,0
2,57,102,52
2,62,105,0
2,54,85,0
2,45,100,104
2,52,113,0
2,57,110,0
2,57,107,1182
2,52,105,0
2,45,105,0
2,62,113,816
2,57,113,0
2,50,113,0
2,52,110,170
2,57,105,0
2,45,107,0
2,62,105,1128
2,57,102,0
2,54,89,0
2,57,100,24
2,62,102,0
2,54,87,0
2,57,100,78
2,54,89,0
2,62,102,0
2,57,102,52
2,62,105,0
2,54,85,0
2,45,100,104
2,52,113,0
2,57,110,0
2,57,107,1182
2,52,105,0
2,45,105,0
2,62,113,816
2,57,113,0
2,50,113,0
2,52,110,170
2,57,105,0
2,45,107,0
2,62,105,1128
2,57,102,0
2,54,89,0
2,57,100,24
2,62,102,0
2,54,87,0
2,57,100,78
2,54,89,0
2,62,102,0
2,57,102,52
2,62,105,0
2,54,85,0
2,45,100,104
2,52,113,0
2,57,110,0
2,57,107,1182
2,52,105,0
2,45,105,0
2,62,113,816
2,57,113,0
2,50,113,0
2,52,110,170
2,57,105,0
2,45,107,0
2,62,105,1128
2,57,102,0
2,54,89,0
2,57,100,24
2,62,102,0
2,54,87,0
2,57,100,78
2,54,89,0
2,62,102,0
2,57,102,52
2,62,105,0
2,54,85,0
2,45,100,104
2,52,113,0
2,57,110,0
2,52,110,1182
2,57,116,0
2,45,119,0
2,45,127,160
2,57,113,0
2,52,105,0
2,45,127,152
2,52,110,0
2,57,113,0
2,55,100,192
2,52,119,158
2,62,116,40
2,55,113,0
2,43,116,0
2,57,113,362
2,62,107,0
2,54,105,0
2,57,113,186
2,54,102,0
2,62,107,0
2,64,110,746
2,57,119,0
2,69,119,0
2,45,119,2
2,52,107,0
2,52,110,228
2,57,116,0
2,45,119,0
2,45,127,160
2,57,113,0
2,52,105,0
2,45,127,152
2,52,110,0
2,57,113,0
2,55,100,192
2,52,119,158
2,62,116,40
2,55,113,0
2,43,116,0
2,57,113,362
2,62,107,0
2,54,105,0
2,57,113,186
2,54,102,0
2,62,107,0
2,57,116,938
2,52,107,0
2,45,127,0
2,57,107,212
2,52,105,0
2,45,105,0
2,62,113,816
2,57,113,0
2,50,113,0
2,52,110,170
2,57,105,0
2,45,107,0
2,62,105,1128
2,57,102,0
2,54,89,0
2,57,100,24
2,62,102,0
2,54,87,0
2,57,100,78
2,54,89,0
2,62,102,0
2,57,102,52
2,62,105,0
2,54,85,0
2,45,100,104
2,52,113,0
2,57,110,0
2,57,107,1182
2,52,105,0
2,45,105,0
2,62,113,816
2,57,113,0
2,50,113,0
2,52,110,170
2,57,105,0
2,45,107,0
2,62,105,1128
2,57,102,0
2,54,89,0
2,57,100,24
2,62,102,0
2,54,87,0
2,57,100,78
2,54,89,0
2,62,102,0
2,57,102,52
2,62,105,0
2,54,85,0
2,45,100,104
2,52,113,0
2,57,110,0
2,57,107,1182
2,52,105,0
2,45,105,0
2,62,113,816
2,57,113,0
2,50,113,0
2,52,110,170
2,57,105,0
2,45,107,0
2,62,105,1128
2,57,102,0
2,54,89,0
2,57,100,24
2,62,102,0
2,54,87,0
2,57,100,78
2,54,89,0
2,62,102,0
2,57,102,52
2,62,105,0
2,54,85,0
2,45,100,104
2,52,113,0
2,57,110,0
2,57,107,1182
2,52,105,0
2,45,105,0
2,62,113,816
2,57,113,0
2,50,113,0
2,52,110,170
2,57,105,0
2,45,107,0
2,62,105,1128
2,57,102,0
2,54,89,0
2,57,100,24
2,62,102,0
2,54,87,0
2,57,100,78
2,54,89,0
2,62,102,0
2,57,102,52
2,62,105,0
2,54,85,0
2,45,100,104
2,52,113,0
2,57,110,0
2,57,107,1182
2,52,105,0
2,45,105,0
2,62,113,816
2,57,113,0
2,50,113,0
2,52,110,170
2,57,105,0
2,45,107,0
2,62,105,1128
2,57,102,0
2,54,89,0
2,57,100,24
2,62,102,0
2,54,87,0
2,57,100,78
2,54,89,0
2,62,102,0
2,57,102,52
2,62,105,0
2,54,85,0
2,45,100,104
2,52,113,0
2,57,110,0
2,52,110,1182
2,57,116,0
2,45,119,0
2,45,127,160
2,57,113,0
2,52,105,0
2,45,127,152
2,52,110,0
2,57,113,0
2,55,100,192
2,52,119,158
2,62,116,40
2,55,113,0
2,43,116,0
2,57,113,362
2,62,107,0
2,54,105,0
2,57,113,186
2,54,102,0
2,62,107,0
2,64,110,746
2,57,119,0
2,69,119,0
2,45,119,2
2,52,107,0
2,52,110,228
2,57,116,0
2,45,119,0
2,45,127,160
2,57,113,0
2,52,105,0
2,45,127,152
2,52,110,0
2,57,113,0
2,55,100,192
2,52,119,158
2,62,116,40
2,55,113,0
2,43,116,0
2,57,113,362
2,62,107,0
2,54,105,0
2,57,113,186
2,54,102,0
2,62,107,0
2,57,116,938
2,52,107,0
2,45,127,0
2,43,95,17108
2,62,107,0
2,50,95,0
2,55,102,2
2,59,110,0
2,57,100,528
2,62,102,0
2,54,85,0
2,38,100,2
2,52,93,14
2,64,105,0
2,57,105,0
2,61,102,0
2,45,102,2
2,59,110,48
2,62,107,0
2,43,102,0
2,55,105,2
2,57,102,32
2,54,91,0
2,50,110,0
2,62,102,2
2,64,105,42
2,61,102,0
2,57,100,0
2,52,87,2
2,45,98,0
2,55,100,68
2,59,102,0
2,43,102,0
2,50,105,0
2,62,102,2
2,62,105,40
2,54,85,0
2,38,100,0
2,57,102,2
2,61,102,10
2,57,102,0
2,64,105,0
2,52,89,2
2,45,98,0
2,55,98,58
2,62,105,0
2,43,102,0
2,59,105,2
2,62,102,42
2,54,82,0
2,57,98,0
2,50,107,2
2,57,98,32
2,52,82,0
2,61,95,0
2,45,98,2
2,64,102,0
2,62,107,80
2,55,100,0
2,59,107,0
2,43,98,2
2,57,100,52
2,54,87,0
2,50,113,0
2,62,102,2
2,57,102,74
2,61,105,0
2,64,105,0
2,45,91,2
2,52,91,0
2,59,102,100
2,62,102,0
2,43,102,0
2,55,93,2
2,57,102,58
2,54,98,0
2,62,102,0
2,50,107,2
2,57,102,62
2,61,102,0
2,64,105,0
2,45,98,2
2,52,89,0
2,59,105,42
2,55,100,0
2,62,105,0
2,43,100,2
2,54,87,20
2,57,98,0
2,50,113,0
2,62,105,2
2,57,100,56
2,64,107,0
2,61,100,0
2,52,98,2
2,45,98,0
2,55,100,334
2,62,102,0
2,43,80,0
2,59,102,0
2,62,102,362
2,50,105,0
2,54,85,0
2,57,100,2
2,61,100,8
2,64,100,0
2,57,102,0
2,45,95,2
2,52,93,0
2,50,93,58
2,55,100,0
2,59,110,0
2,62,102,2
2,43,74,0
2,54,107,10
2,57,113,0
2,62,107,0
2,57,102,56
2,61,107,0
2,64,105,0
2,52,91,2
2,45,95,0
2,59,105,32
2,55,102,0
2,43,95,0
2,62,107,2
2,50,107,8
2,62,102,0
2,54,91,0
2,57,102,2
2,64,98,52
2,61,100,2
2,52,98,0
2,57,100,0
2,45,102,0
2,62,107,30
2,55,102,0
2,43,98,0
2,59,107,2
2,57,102,26
2,54,95,0
2,50,107,0
2,62,105,2
2,61,98,8
2,64,100,0
2,57,102,0
2,52,89,2
2,45,95,0
2,59,105,40
2,55,102,0
2,43,102,0
2,62,105,2
2,50,107,26
2,62,100,0
2,54,85,0
2,57,98,2
2,64,102,30
2,61,100,0
2,57,102,0
2,52,85,2
2,45,95,0
2,55,98,68
2,62,102,0
2,43,100,0
2,59,102,2
2,57,100,16
2,62,105,0
2,54,98,0
2,50,107,2
2,45,100,8
2,64,102,0
2,61,100,0
2,57,100,0
2,52,93,2
2,55,105,48
2,62,110,0
2,59,110,0
2,43,95,2
2,62,105,48
2,50,107,0
2,54,95,0
2,57,102,2
2,64,102,40
2,61,100,0
2,57,102,0
2,45,98,2
2,52,93,0
2,62,107,58
2,59,105,0
2,43,102,0
2,55,105,2
2,62,105,26
2,54,100,0
2,50,110,0
2,57,102,2
2,64,102,30
2,57,98,0
2,61,100,0
2,52,98,2
2,45,100,0
2,62,102,48
2,43,100,0
2,55,98,0
2,59,102,2
