track,note,velocity,time
1,68,70,285
1,74,78,0
1,72,72,0
1,68,78,23
1,74,94,0
1,72,85,1
1,74,81,62
1,75,63,3
1,77,78,6
1,75,53,1
1,77,85,5
1,68,78,1
1,72,88,1
1,68,68,0
1,72,78,0
1,75,68,0
1,74,75,40
1,72,81,1
1,68,70,0
1,74,75,21
1,72,85,0
1,68,72,0
1,79,88,60
1,80,78,24
1,82,94,2
1,80,81,0
1,82,85,0
1,75,64,1
1,72,78,1
1,68,70,0
1,75,64,43
1,68,70,0
1,72,81,0
1,77,81,40
1,74,81,0
1,70,70,0
1,77,94,18
1,70,85,1
1,74,88,0
1,82,63,60
1,84,70,1
1,86,75,12
1,87,81,13
1,86,75,23
1,75,64,0
1,72,85,0
1,68,70,1
1,87,85,0
1,68,68,40
1,75,61,0
1,72,75,1
1,68,81,36
1,77,85,0
1,74,81,0
1,86,104,2
1,68,81,17
1,77,88,0
1,74,81,0
1,86,88,0
1,77,85,31
1,74,81,0
1,68,78,0
1,86,104,2
1,68,72,3
1,77,78,1
1,74,72,0
1,86,85,6
1,77,94,27
1,68,81,1
1,74,85,0
1,86,99,3
1,75,60,297
1,79,60,0
1,82,60,0
1,86,60,0
1,82,58,17
1,75,58,0
1,79,58,0
1,86,58,0
1,86,65,296
1,78,65,0
1,75,65,0
1,81,65,1
1,86,55,5
1,82,70,261
1,74,66,0
1,79,56,1
1,77,53,2
1,78,60,100
1,86,60,3
1,75,60,0
1,81,60,0
1,82,64,159
1,77,72,0
1,74,70,0
1,79,66,0
1,78,59,101
1,86,59,0
1,75,59,2
1,81,59,0
1,78,64,1
1,81,64,0
1,84,64,0
1,87,64,0
1,87,59,89
1,80,59,1
1,84,59,0
1,77,59,0
1,86,58,89
1,82,58,0
1,80,58,1
1,77,58,0
1,65,55,428
1,70,55,0
1,74,55,0
1,67,55,2
1,68,44,1
1,64,44,0
1,75,44,0
1,72,43,190
1,65,43,1
1,68,45,6
1,72,45,0
1,74,45,0
1,79,45,0
1,75,60,97
1,79,60,0
1,82,60,0
1,86,60,0
1,82,58,17
1,75,58,0
1,79,58,0
1,86,58,0
1,86,65,296
1,78,65,0
1,75,65,0
1,81,65,1
1,86,55,5
1,82,70,261
1,74,66,0
1,79,56,1
1,77,53,2
1,78,60,100
1,86,60,3
1,75,60,0
1,81,60,0
1,82,64,159
1,77,72,0
1,74,70,0
1,79,66,0
1,78,59,101
1,86,59,0
1,75,59,2
1,81,59,0
1,78,64,1
1,81,64,0
1,84,64,0
1,87,64,0
1,87,59,89
1,80,59,1
1,84,59,0
1,77,59,0
1,86,58,89
1,82,58,0
1,80,58,1
1,77,58,0
1,75,60,4364
1,79,60,0
1,82,60,0
1,86,60,0
1,82,58,17
1,75,58,0
1,79,58,0
1,86,58,0
1,86,65,296
1,78,65,0
1,75,65,0
1,81,65,1
1,86,55,5
1,82,70,261
1,74,66,0
1,79,56,1
1,77,53,2
1,78,60,100
1,86,60,3
1,75,60,0
1,81,60,0
1,82,64,159
1,77,72,0
1,74,70,0
1,79,66,0
1,78,59,101
1,86,59,0
1,75,59,2
1,81,59,0
1,78,64,1
1,81,64,0
1,84,64,0
1,87,64,0
1,87,59,89
1,80,59,1
1,84,59,0
1,77,59,0
1,86,58,89
1,82,58,0
1,80,58,1
1,77,58,0
1,73,63,811
1,76,72,96
1,79,78,97
1,82,81,96
1,75,58,5
1,82,81,1
1,79,78,0
1,80,68,190
1,76,63,1
1,82,64,1
1,79,64,0
1,75,56,198
1,79,85,0
1,87,64,1
1,78,63,2
1,74,68,2
1,83,72,7
1,79,56,0
1,82,63,43
1,80,58,0
1,80,63,190
1,84,68,1
1,86,72,8
1,74,57,3
1,67,51,0
1,70,53,0
1,82,68,1
1,79,68,1
1,74,64,0
1,69,63,0
1,63,57,0
1,66,61,2
1,84,75,93
1,83,72,1
1,82,64,4
1,80,52,6
1,81,94,15
1,80,81,0
1,79,78,0
1,77,70,4
1,78,72,6
1,81,81,0
1,78,72,25
1,75,70,2
1,72,70,2
1,67,61,10
1,63,58,4
1,74,75,2
1,75,70,28
1,77,81,0
1,74,78,3
1,70,78,3
1,75,68,8
1,71,85,23
1,72,72,4
1,66,52,3
1,69,56,3
1,75,70,4
1,78,68,21
1,81,75,5
1,86,88,8
1,85,81,21
1,84,66,4
1,83,66,0
1,82,81,0
1,63,51,9
1,67,66,3
1,87,81,81
1,84,75,26
1,82,64,0
1,79,60,0
1,84,85,4
1,69,58,3
1,66,56,0
1,81,78,23
1,78,72,2
1,75,64,0
1,81,88,0
1,78,81,4
1,75,64,20
1,72,78,3
1,65,75,25
1,68,68,2
1,75,72,0
1,74,70,8
1,70,58,2
1,68,63,2
1,65,63,7
1,70,78,39
1,72,94,37
1,74,78,7
1,75,81,21
1,77,94,1
1,79,85,2
1,80,85,22
1,82,78,17
1,84,85,2
1,86,85,0
1,87,81,23
1,89,85,2
1,91,81,3
1,92,85,20
1,74,72,11
1,77,81,0
1,70,70,0
1,94,85,0
1,67,56,1
1,80,70,5
1,76,75,0
1,70,58,6
1,73,52,2
1,75,68,8
1,79,78,0
1,68,58,0
1,72,78,0
1,68,64,9
1,74,78,4
1,82,68,2
1,65,72,1
1,70,78,0
1,74,75,0
1,67,72,0
1,63,58,6
1,66,64,0
1,74,70,0
1,69,75,2
1,59,44,1
1,60,56,2
1,62,72,9
1,64,85,6
1,65,72,5
1,67,60,7
1,69,72,4
1,71,78,4
1,72,81,6
1,74,81,8
1,76,81,3
1,77,79,4
1,79,76,1
1,81,76,1
1,83,75,2
1,84,72,0
1,86,103,5
1,77,94,36
1,69,85,0
1,72,85,0
1,66,78,0
1,66,42,2
1,75,72,0
1,65,64,8
1,67,70,2
1,70,94,0
1,74,88,0
1,69,85,81
1,74,75,0
1,66,70,0
1,63,61,0
1,66,70,5
1,72,81,2
1,69,75,0
1,77,78,3
1,66,52,3
1,75,70,2
1,67,75,38
1,70,81,0
1,63,64,0
1,74,85,0
1,69,94,98
1,74,85,0
1,65,61,73
1,75,78,0
1,72,81,1
1,68,64,0
1,79,78,5
1,68,63,0
1,72,70,1
1,74,70,0
1,70,61,3
1,75,78,80
1,68,81,0
1,79,94,0
1,72,81,3
1,68,78,55
1,79,85,0
1,74,94,3
1,74,94,44
1,77,88,0
1,70,78,0
1,67,81,0
1,72,75,56
1,73,68,0
1,75,72,26
1,76,68,2
1,76,85,10
1,78,78,7
1,79,81,0
1,81,75,1
1,70,81,16
1,64,72,0
1,67,85,0
1,81,88,8
1,82,72,5
1,84,68,0
1,85,78,2
1,84,85,1
1,85,78,1
1,87,64,25
1,88,75,2
1,88,88,8
1,90,68,6
1,91,75,0
1,93,88,1
1,93,99,7
1,94,68,5
1,96,61,20
1,97,72,23
1,98,94,2
1,69,85,5
1,74,88,0
1,79,81,0
1,75,70,0
1,74,85,32
1,79,78,4
1,72,75,2
1,68,54,3
1,67,56,1
1,69,104,0
1,71,110,2
1,72,117,0
1,74,114,1
1,91,78,1
1,76,104,0
1,86,75,1
1,84,78,0
1,80,94,0
1,75,57,12
1,74,70,0
1,79,70,3
1,69,66,3
1,68,70,3
1,79,68,3
1,74,58,0
1,72,70,2
1,82,68,73
1,73,61,0
1,79,70,0
1,70,70,3
1,76,72,0
1,79,75,67
1,75,64,3
1,68,61,0
1,72,72,2
1,79,66,84
1,74,63,0
1,69,70,0
1,68,64,3
1,74,54,5
1,72,68,3
1,65,72,68
1,74,75,0
1,70,68,2
1,67,66,0
1,66,61,10
1,69,66,0
1,63,52,0
1,77,75,83
1,72,68,0
1,69,70,2
1,66,56,2
1,75,70,2
1,67,70,9
1,70,72,1
1,65,68,0
1,74,72,3
1,69,70,2
1,66,68,2
1,63,45,5
1,72,68,0
1,77,78,0
1,75,53,7
1,67,64,0
1,65,78,0
1,74,70,4
1,70,61,0
1,63,57,8
1,69,72,2
1,66,63,3
1,72,66,4
1,66,63,0
1,75,58,0
1,65,72,11
1,68,57,2
1,72,66,0
1,74,61,6
1,75,60,4322
1,79,60,0
1,82,60,0
1,86,60,0
1,82,58,17
1,75,58,0
1,79,58,0
1,86,58,0
1,86,65,296
1,78,65,0
1,75,65,0
1,81,65,1
1,86,55,5
1,82,70,261
1,74,66,0
1,79,56,1
1,77,53,2
1,78,60,100
1,86,60,3
1,75,60,0
1,81,60,0
1,82,64,159
1,77,72,0
1,74,70,0
1,79,66,0
1,78,59,101
1,86,59,0
1,75,59,2
1,81,59,0
1,78,64,1
1,81,64,0
1,84,64,0
1,87,64,0
1,87,59,89
1,80,59,1
1,84,59,0
1,77,59,0
1,86,58,89
1,82,58,0
1,80,58,1
1,77,58,0
1,73,48,811
1,76,55,96
1,79,60,97
1,82,62,96
1,68,62,7
1,75,60,0
1,72,73,1
1,65,77,0
1,72,58,39
1,69,66,1
1,75,60,0
1,66,66,0
1,72,66,0
1,72,55,45
1,68,62,39
1,72,68,0
1,65,66,0
1,75,62,2
1,72,50,31
1,68,66,0
1,75,60,1
1,72,66,2
1,69,60,10
1,75,49,0
1,72,66,0
1,66,55,2
1,69,50,4
1,75,60,41
1,65,73,0
1,72,77,0
1,68,62,2
1,72,73,61
1,68,55,0
1,66,55,5
1,69,66,0
1,75,66,1
1,72,77,0
1,72,73,53
1,69,60,33
1,70,66,37
1,75,66,2
1,67,73,0
1,72,86,0
1,72,60,33
1,74,68,4
1,70,52,12
1,72,73,1
1,75,66,0
1,69,66,1
1,66,55,2
1,75,60,27
1,69,54,3
1,75,62,35
1,68,66,0
1,79,68,2
1,72,68,0
1,75,60,41
1,71,66,1
1,75,62,0
1,69,66,0
1,79,73,1
1,75,60,37
1,71,43,7
1,75,73,0
1,79,81,0
1,68,62,3
1,75,60,19
1,77,77,16
1,68,54,19
1,68,52,1
1,75,66,1
1,79,68,2
1,72,77,0
1,58,46,0
1,68,52,0
1,75,54,1
1,75,62,24
1,67,73,0
1,70,73,0
1,72,68,2
1,63,46,1
1,63,43,13
1,75,55,33
1,72,68,0
1,69,73,0
1,66,66,2
1,75,55,22
1,69,73,0
1,72,66,1
1,66,55,0
1,75,49,23
1,72,77,0
1,68,66,2
1,65,62,20
1,67,60,5
1,67,68,14
1,63,66,0
1,70,66,2
1,75,55,0
1,72,62,0
1,63,60,7
1,72,62,0
1,75,62,1
1,70,81,0
1,67,68,0
1,63,52,33
1,70,73,2
1,67,77,0
1,72,73,0
1,75,60,0
1,66,54,16
1,69,73,0
1,75,60,0
1,72,73,2
1,66,54,9
1,75,48,2
1,69,73,0
1,72,68,1
1,65,66,2
1,68,66,25
1,72,68,0
1,75,60,0
1,65,62,0
1,67,58,10
1,63,60,9
1,75,60,0
1,72,77,0
1,70,77,0
1,67,73,2
1,75,55,9
1,63,55,0
1,70,62,1
1,67,73,2
1,72,68,0
1,63,40,19
1,75,54,2
1,70,73,0
1,67,77,0
1,72,68,2
1,75,41,3
1,69,73,1
1,72,68,0
1,66,52,0
1,75,39,10
1,69,77,2
1,72,62,2
1,65,66,1
1,72,66,25
1,68,73,0
1,75,62,0
1,65,62,0
1,68,46,0
1,67,62,12
1,70,62,0
1,72,73,0
1,75,62,0
1,75,62,5
1,67,73,0
1,70,66,0
1,72,73,2
1,68,73,13
1,65,68,2
1,70,73,1
1,73,60,0
1,72,73,7
1,70,73,0
1,75,62,0
1,67,77,0
2,46,72,279
2,46,78,24
2,44,68,23
2,44,70,25
2,43,72,6
2,41,66,7
2,41,72,15
2,41,68,8
2,41,72,7
2,39,64,48
2,38,75,4
2,38,70,15
2,36,64,10
2,41,81,13
2,44,78,5
2,45,81,9
2,46,72,5
2,41,75,95
2,34,70,22
2,46,78,3
2,38,66,8
2,39,68,2
2,34,70,0
2,39,70,1
2,39,70,1
2,34,72,94
2,34,68,3
2,39,70,0
2,42,81,1
2,39,70,3
2,34,70,93
2,39,72,0
2,42,72,1
2,39,72,2
2,34,72,0
2,39,72,3
2,42,78,1
2,41,78,0
2,41,81,1
2,34,72,4
2,41,70,93
2,43,85,10
2,41,70,11
2,41,70,43
2,43,78,12
2,44,81,7
2,44,81,2
2,43,72,2
2,43,85,1
2,42,68,2
2,42,72,2
2,41,72,2
2,41,68,1
2,34,70,1
2,46,72,0
2,46,78,16
2,39,68,0
2,34,64,94
2,39,70,2
2,39,70,2
2,34,70,94
2,34,64,3
2,39,70,1
2,42,78,95
2,39,70,2
2,34,72,93
2,39,70,3
2,42,72,1
2,39,70,1
2,34,64,2
2,39,68,94
2,42,72,2
2,41,70,93
2,41,72,3
2,34,63,1
2,41,75,1
2,43,75,3
2,41,70,13
2,41,68,54
2,43,70,6
2,44,81,2
2,44,78,2
2,43,70,0
2,39,72,1
2,36,72,3
2,36,70,2
2,48,78,1
2,36,68,1
2,48,78,94
2,36,75,93
2,41,78,3
2,41,75,17
2,36,64,1
2,36,75,18
2,29,64,10
2,29,75,19
2,36,68,1
2,36,57,16
2,34,72,6
2,34,72,23
2,41,78,2
2,41,72,11
2,38,68,1
2,38,58,16
2,32,64,1
2,32,68,22
2,29,47,8
2,29,72,14
2,36,70,1
2,36,75,22
2,29,64,7
2,29,72,24
2,31,70,1
2,33,75,5
2,34,72,3
2,34,72,25
2,41,66,1
2,41,75,20
2,34,70,7
2,34,78,25
2,35,78,11
2,35,72,23
2,36,85,1
2,36,78,20
2,43,75,1
2,43,75,16
2,36,81,5
2,36,78,17
2,48,72,14
2,36,75,1
2,41,81,3
2,41,81,20
2,48,72,2
2,48,72,22
2,41,78,6
2,41,78,19
2,48,81,1
2,48,85,25
2,41,72,5
2,41,78,23
2,36,75,1
2,36,72,28
2,41,78,1
2,41,78,21
2,41,81,24
2,43,75,13
2,44,78,2
2,44,72,26
2,44,81,20
2,45,75,0
2,46,81,1
2,34,85,59
2,39,68,2
2,34,64,94
2,39,70,2
2,39,70,2
2,34,70,94
2,34,64,3
2,39,70,1
2,42,78,95
2,39,70,2
2,34,72,93
2,39,70,3
2,42,72,1
2,39,70,1
2,34,64,2
2,39,68,94
2,42,72,2
2,41,70,93
2,41,72,3
2,34,63,1
2,41,75,1
2,43,75,3
2,41,70,13
2,41,68,14
2,43,70,6
2,44,81,2
2,44,78,42
2,43,70,0
2,39,72,1
2,36,72,3
2,36,70,1
2,48,78,1
2,36,68,1
2,48,78,0
2,36,75,0
2,41,94,2
2,41,94,9
2,41,94,9
2,41,72,7
2,42,85,5
2,42,78,8
2,42,81,6
2,42,78,10
2,41,78,3
2,41,78,7
2,41,85,9
2,41,78,7
2,40,85,1
2,40,72,8
2,40,94,8
2,40,85,7
2,39,95,2
2,39,81,9
2,39,78,16
2,39,68,4
2,46,72,13
2,46,70,1
2,39,78,3
2,46,72,7
2,38,87,2
2,38,72,1
2,38,68,17
2,38,75,9
2,46,72,0
2,46,68,7
2,38,70,5
2,46,72,1
2,37,72,1
2,37,64,7
2,37,72,9
2,37,78,6
2,36,81,1
2,36,68,6
2,36,85,1
2,36,75,7
2,35,85,9
2,35,85,8
2,35,78,7
2,35,78,2
2,34,81,9
2,34,72,6
2,34,78,2
2,34,81,7
2,39,81,10
2,46,78,90
2,48,81,0
2,50,85,2
2,50,78,13
2,46,78,3
2,43,81,2
2,42,68,52
2,42,78,18
2,45,88,0
2,45,81,11
2,42,72,46
2,42,78,18
2,41,78,0
2,40,75,0
2,39,78,51
2,39,78,15
2,34,78,50
2,34,81,18
2,39,72,1
2,39,64,11
2,42,81,2
2,42,68,13
2,39,70,0
2,39,78,16
2,34,78,49
2,34,78,30
2,42,61,3
2,42,72,24
2,42,64,10
2,42,78,12
2,41,75,47
2,43,78,4
2,44,78,2
2,45,85,0
2,46,81,3
2,44,72,0
2,43,78,0
2,42,81,51
2,41,64,3
2,43,81,45
2,44,85,0
2,45,94,2
2,46,81,2
2,46,81,18
2,44,78,2
2,44,78,18
2,43,88,3
2,43,81,22
2,38,75,48
2,43,88,43
2,42,81,0
2,42,81,16
2,37,81,0
2,42,85,2
2,41,78,3
