track,note,velocity,time
3,48,91,2031
3,48,0,105
3,53,90,16
3,53,0,105
3,57,91,11
3,57,0,2
3,60,90,20
3,60,0,356
3,60,92,2
3,60,0,66
3,58,91,29
3,58,0,106
3,57,104,11
3,57,0,147
3,53,100,3
3,53,0,38
3,53,108,22
3,53,0,40
3,50,85,39
3,50,0,431
3,57,95,4
3,57,0,10
3,57,85,13
3,57,0,27
3,58,104,15
3,58,0,294
3,58,104,13
3,58,0,117
3,57,100,38
3,57,0,72
3,55,95,5
3,55,0,180
3,52,98,2
3,52,0,50
3,50,104,26
3,50,0,54
3,48,106,31
3,48,0,410
3,60,106,16
3,60,0,54
3,60,92,12
3,60,0,61
3,60,110,3
3,60,0,230
3,60,108,4
3,60,0,111
3,58,95,35
3,58,0,191
3,57,100,15
3,55,106,62
3,57,0,5
3,55,0,72
3,53,106,2
3,53,0,50
3,50,97,33
3,50,0,368
3,48,83,311
3,48,0,18
3,52,95,24
3,52,0,74
3,55,98,2
3,55,0,37
3,58,99,45
3,58,0,1
3,60,97,1
3,60,0,321
3,59,102,35
3,58,97,60
3,59,0,4
3,58,0,80
3,55,100,35
3,55,0,33
3,55,102,43
3,55,0,6
3,55,90,4
3,55,0,67
3,53,95,42
3,53,0,458
3,53,100,268
3,53,0,65
3,58,101,11
3,58,0,46
3,60,102,33
3,60,0,49
3,62,108,33
3,62,0,313
3,60,108,49
3,60,0,21
3,58,104,32
3,58,0,103
3,53,102,13
3,53,0,121
3,62,108,76
3,62,0,45
3,62,102,4
3,62,0,44
3,60,110,25
3,60,0,71
3,57,114,8
3,57,0,421
3,57,106,294
3,57,0,59
3,60,104,23
3,60,0,51
3,60,91,0
3,60,0,243
3,62,108,2
3,62,0,117
3,60,104,32
3,60,0,146
3,57,76,51
3,57,0,19
3,58,116,2
3,58,0,48
3,57,97,5
3,57,0,45
3,55,110,40
3,55,0,442
3,60,104,352
3,60,0,109
3,60,104,49
3,60,0,25
3,62,112,18
3,62,0,60
3,60,108,0
3,60,0,308
3,57,74,59
3,57,0,16
3,58,113,27
3,58,0,75
3,57,103,1
3,57,0,124
3,57,102,10
3,55,102,66
3,57,0,8
3,55,0,47
3,53,98,23
3,53,0,34
3,50,106,9
3,50,0,425
3,48,80,251
3,48,0,19
3,52,104,22
3,52,0,77
3,55,101,0
3,55,0,44
3,58,99,32
3,58,0,35
3,60,104,10
3,60,0,305
3,59,117,45
3,58,101,57
3,59,0,6
3,58,0,68
3,55,110,45
3,55,0,30
3,55,117,43
3,55,0,44
3,55,110,4
3,55,0,115
3,53,112,51
3,53,0,407
3,53,108,316
3,53,0,67
3,58,99,9
3,58,0,46
3,60,112,35
3,60,0,43
3,62,112,36
3,62,0,324
3,60,106,39
3,60,0,53
3,58,110,5
3,58,0,107
3,53,100,9
3,53,0,118
3,62,108,80
3,62,0,46
3,62,104,13
3,62,0,58
3,60,102,17
3,57,94,79
3,60,0,1
3,57,0,378
3,57,102,18
3,60,102,65
3,57,0,3
3,60,0,48
3,60,106,3
3,60,0,244
3,62,106,4
3,62,0,122
3,60,102,31
3,60,0,147
3,57,76,50
3,57,0,22
3,58,104,3
3,58,0,137
3,57,100,3
3,57,0,44
3,55,104,41
3,55,0,417
3,60,83,6
3,60,0,35
3,60,104,9
3,60,0,77
3,60,104,42
3,60,0,288
3,60,110,9
3,60,0,113
3,58,99,35
3,58,0,190
3,57,104,5
3,55,106,60
3,57,0,5
3,55,0,53
3,53,102,20
3,53,0,35
3,50,108,45
3,50,0,418
3,48,68,262
3,48,0,22
3,52,112,23
3,52,0,68
3,55,110,11
3,55,0,71
3,58,99,3
3,58,0,36
3,60,104,8
3,60,0,304
3,59,110,39
3,58,101,49
3,59,0,6
3,58,0,103
3,55,97,9
3,55,0,242
3,60,112,20
3,60,0,180
3,59,95,37
3,59,0,31
3,58,99,16
3,58,0,102
3,55,104,15
3,55,0,255
3,60,106,11
3,60,0,158
3,59,106,57
3,59,0,27
3,58,104,18
3,58,0,65
3,55,110,53
3,55,0,39
3,55,112,37
3,55,0,2
3,55,95,4
3,55,0,46
3,53,102,31
3,53,0,584
4,65,73,469
4,53,70,2
4,57,71,1
4,63,67,237
4,65,0,4
4,63,0,229
4,62,74,7
4,46,56,0
4,57,0,2
4,56,58,0
4,53,0,4
4,46,0,228
4,47,66,5
4,65,68,241
4,57,62,0
4,48,64,0
4,56,0,1
4,62,0,2
4,47,0,14
4,65,0,223
4,62,68,0
4,55,62,0
4,47,62,0
4,57,0,1
4,48,0,2
4,64,73,238
4,48,59,0
4,47,0,9
4,62,0,4
4,55,0,47
4,64,0,21
4,48,0,4
4,70,53,8074
4,65,54,0
4,62,56,1
4,70,0,921
4,62,0,4
4,65,0,3
4,69,53,33
4,60,40,0
4,65,29,0
4,65,0,955
4,60,0,6
4,69,0,0
4,65,68,1918
4,57,69,1
4,65,0,237
4,64,70,1
4,63,61,240
4,64,0,12
4,57,0,437
4,63,0,6
4,57,62,2185
4,65,63,0
4,65,0,119
4,64,53,1
4,63,58,120
4,64,0,2
4,63,0,399
4,57,0,7
4,62,56,72
4,70,54,0
4,65,54,0
4,70,0,920
4,65,0,3
4,62,0,2
4,60,61,36
4,69,50,0
4,65,51,0
4,65,0,938
4,69,0,0
4,60,0,0
4,57,69,1943
4,65,68,0
4,65,0,225
4,64,62,12
4,63,57,241
4,64,0,9
4,57,0,447
4,63,0,7
4,60,52,3859
4,57,52,0
4,65,54,0
4,57,0,172
4,60,0,0
4,65,0,18
4,58,53,48
4,62,65,0
4,65,48,0
4,62,0,188
4,65,0,3
4,58,0,0
4,60,60,49
4,57,58,0
4,65,42,2
4,60,0,749
4,57,0,1
4,65,0,1
5,57,68,11989
5,60,65,0
5,69,74,0
5,65,67,0
5,57,0,934
5,60,0,5
5,65,0,4
5,69,0,3
5,59,73,254
5,65,77,0
5,65,0,236
5,64,77,4
5,58,67,0
5,59,0,6
5,58,0,453
5,64,0,3
5,60,71,5778
5,57,68,0
5,69,73,0
5,65,63,0
5,69,0,880
5,65,0,7
5,57,0,4
5,60,0,2
5,59,74,307
5,65,74,2
5,65,0,234
5,59,0,4
5,64,75,0
5,58,67,0
5,58,0,464
5,64,0,2
5,67,84,2890
5,58,64,1
5,64,61,0
5,67,0,799
5,64,0,4
5,58,0,0
6,36,78,470
6,36,0,6
6,40,55,73
6,40,0,6
6,39,66,36
6,39,0,6
6,39,63,72
6,39,0,6
6,36,74,34
6,36,0,6
6,40,55,73
6,40,0,6
6,39,68,35
6,39,0,6
6,38,74,74
6,38,0,6
6,36,74,36
6,36,0,6
6,40,55,72
6,40,0,6
6,39,51,36
6,39,0,6
6,39,73,72
6,39,0,6
6,36,78,34
6,36,0,6
6,40,55,73
6,40,0,6
6,39,69,35
6,39,0,6
6,38,81,74
6,38,0,6
6,36,76,34
6,36,0,6
6,40,55,74
6,40,0,6
6,39,72,36
6,39,0,6
6,39,62,73
6,39,0,6
6,36,72,35
6,36,0,6
6,40,55,72
6,40,0,6
6,39,60,35
6,39,0,6
6,38,71,73
6,38,0,6
6,36,75,36
6,36,0,6
6,36,78,473
6,36,0,6
6,40,55,73
6,40,0,6
6,39,66,36
6,39,0,6
6,39,63,72
6,39,0,6
6,36,74,34
6,36,0,6
6,40,55,73
6,40,0,6
6,39,68,35
6,39,0,6
6,38,74,74
6,38,0,6
6,36,74,36
6,36,0,6
6,40,55,72
6,40,0,6
6,39,51,36
6,39,0,6
6,39,73,72
6,39,0,6
6,36,78,34
6,36,0,6
6,40,55,73
6,40,0,6
6,39,69,35
6,39,0,6
6,38,81,74
6,38,0,6
6,36,76,34
6,36,0,6
6,40,55,74
6,40,0,6
6,39,72,36
6,39,0,6
6,39,62,73
6,39,0,6
6,36,72,35
6,36,0,6
6,40,55,72
6,40,0,6
6,39,60,35
6,39,0,6
6,38,71,73
6,38,0,6
6,36,75,36
6,36,0,6
6,40,55,72
6,40,0,6
6,39,56,35
6,39,0,6
6,39,65,72
6,39,0,6
6,36,76,34
6,36,0,6
6,40,55,74
6,40,0,6
6,39,69,34
6,39,0,6
6,38,75,75
6,38,0,6
6,36,78,35
6,36,0,6
6,40,55,73
6,40,0,6
6,39,66,36
6,39,0,6
6,39,63,72
6,39,0,6
6,36,74,34
6,36,0,6
6,40,55,73
6,40,0,6
6,39,68,35
6,39,0,6
6,38,74,74
6,38,0,6
6,36,74,36
6,36,0,6
6,40,55,72
6,40,0,6
6,39,51,36
6,39,0,6
6,39,73,72
6,39,0,6
6,36,78,34
6,36,0,6
6,40,55,73
6,40,0,6
6,39,69,35
6,39,0,6
6,38,81,74
6,38,0,6
6,36,76,34
6,36,0,6
6,40,55,74
6,40,0,6
6,39,72,36
6,39,0,6
6,39,62,73
6,39,0,6
6,36,72,35
6,36,0,6
6,40,55,72
6,40,0,6
6,39,60,35
6,39,0,6
6,38,71,73
6,38,0,6
6,36,75,36
6,36,0,6
6,40,55,72
6,40,0,6
6,39,56,35
6,39,0,6
6,39,65,72
6,39,0,6
6,36,76,34
6,36,0,6
6,40,55,74
6,40,0,6
6,39,69,34
6,39,0,6
6,38,75,75
6,38,0,6
6,36,78,35
6,36,0,6
6,40,55,73
6,40,0,6
6,39,66,36
6,39,0,6
6,39,63,72
6,39,0,6
6,36,74,34
6,36,0,6
6,40,55,73
6,40,0,6
6,39,68,35
6,39,0,6
6,38,74,74
6,38,0,6
6,36,74,36
6,36,0,6
6,40,55,72
6,40,0,6
6,39,51,36
6,39,0,6
6,39,73,72
6,39,0,6
6,36,78,34
6,36,0,6
6,40,55,73
6,40,0,6
6,39,69,35
6,39,0,6
6,38,81,74
6,38,0,6
6,36,76,34
6,36,0,6
6,40,55,74
6,40,0,6
6,39,72,36
6,39,0,6
6,39,62,73
6,39,0,6
6,36,72,35
6,36,0,6
6,40,55,72
6,40,0,6
6,39,60,35
6,39,0,6
6,38,71,73
6,38,0,6
6,36,75,36
6,36,0,6
6,40,55,72
6,40,0,6
6,39,56,35
6,39,0,6
6,39,65,72
6,39,0,6
6,36,76,34
6,36,0,6
6,40,55,74
6,40,0,6
6,39,69,34
6,39,0,6
6,38,75,75
6,38,0,6
6,36,78,35
6,36,0,6
6,40,55,73
6,40,0,6
6,39,66,36
6,39,0,6
6,39,63,72
6,39,0,6
6,36,74,34
6,36,0,6
6,40,55,73
6,40,0,6
6,39,68,35
6,39,0,6
6,38,74,74
6,38,0,6
6,36,74,36
6,36,0,6
6,40,55,72
6,40,0,6
6,39,51,36
6,39,0,6
6,39,73,72
6,39,0,6
6,36,78,34
6,36,0,6
6,40,55,73
6,40,0,6
6,39,69,35
6,39,0,6
6,38,81,74
6,38,0,6
6,36,76,34
6,36,0,6
6,40,55,74
6,40,0,6
6,39,72,36
6,39,0,6
6,39,62,73
6,39,0,6
6,36,72,35
6,36,0,6
6,40,55,72
6,40,0,6
6,39,60,35
6,39,0,6
6,38,71,73
6,38,0,6
6,36,75,36
6,36,0,6
6,40,55,72
6,40,0,6
6,39,56,35
6,39,0,6
6,39,65,72
6,39,0,6
6,36,76,34
6,36,0,6
6,40,55,74
6,40,0,6
6,39,69,34
6,39,0,6
6,38,75,75
6,38,0,6
6,36,78,35
6,36,0,6
6,40,55,73
6,40,0,6
6,39,66,36
6,39,0,6
6,39,63,72
6,39,0,6
6,36,74,34
6,36,0,6
6,40,55,73
6,40,0,6
6,39,68,35
6,39,0,6
6,38,74,74
6,38,0,6
6,36,74,36
6,36,0,6
6,40,55,72
6,40,0,6
6,39,51,36
6,39,0,6
6,39,73,72
6,39,0,6
6,36,78,34
6,36,0,6
6,40,55,73
6,40,0,6
6,39,69,35
6,39,0,6
6,38,81,74
6,38,0,6
6,36,76,34
6,36,0,6
6,40,55,74
6,40,0,6
6,39,72,36
6,39,0,6
6,39,62,73
6,39,0,6
6,36,72,35
6,36,0,6
6,40,55,72
6,40,0,6
6,39,60,35
6,39,0,6
6,38,71,73
6,38,0,6
6,36,75,36
6,36,0,6
6,40,55,72
6,40,0,6
6,39,56,35
6,39,0,6
6,39,65,72
6,39,0,6
6,36,76,34
6,36,0,6
6,40,55,74
6,40,0,6
6,39,69,34
6,39,0,6
6,38,75,75
6,38,0,6
6,36,78,35
6,36,0,6
6,40,55,73
6,40,0,6
6,39,66,36
6,39,0,6
6,39,63,72
6,39,0,6
6,36,74,34
6,36,0,6
6,40,55,73
6,40,0,6
6,39,68,35
6,39,0,6
6,38,74,74
6,38,0,6
6,36,74,36
6,36,0,6
6,40,55,72
6,40,0,6
6,39,51,36
6,39,0,6
6,39,73,72
6,39,0,6
6,36,78,34
6,36,0,6
6,40,55,73
6,40,0,6
6,39,69,35
6,39,0,6
6,38,81,74
6,38,0,6
6,36,76,34
6,36,0,6
6,40,55,74
6,40,0,6
6,39,72,36
6,39,0,6
6,39,62,73
6,39,0,6
6,36,72,35
6,36,0,6
6,40,55,72
6,40,0,6
6,39,60,35
6,39,0,6
6,38,71,73
6,38,0,6
6,36,75,36
6,36,0,6
6,40,55,72
6,40,0,6
6,39,56,35
6,39,0,6
6,39,65,72
6,39,0,6
6,36,76,34
6,36,0,6
6,40,55,74
6,40,0,6
6,39,69,34
6,39,0,6
6,38,75,75
6,38,0,6
6,36,78,35
6,36,0,6
6,40,55,73
6,40,0,6
6,39,66,36
6,39,0,6
6,39,63,72
6,39,0,6
6,36,74,34
6,36,0,6
6,40,55,73
6,40,0,6
6,39,68,35
6,39,0,6
6,38,74,74
6,38,0,6
6,36,74,36
6,36,0,6
6,40,55,72
6,40,0,6
6,39,51,36
6,39,0,6
6,39,73,72
6,39,0,6
6,36,78,34
6,36,0,6
6,40,55,73
6,40,0,6
6,39,69,35
6,39,0,6
6,38,81,74
6,38,0,6
6,36,76,34
6,36,0,6
6,40,55,74
6,40,0,6
6,39,72,36
6,39,0,6
6,39,62,73
6,39,0,6
6,36,72,35
6,36,0,6
6,40,55,72
6,40,0,6
6,39,60,35
6,39,0,6
6,38,71,73
6,38,0,6
6,36,75,36
6,36,0,6
6,40,55,72
6,40,0,6
6,39,56,35
6,39,0,6
6,39,65,72
6,39,0,6
6,36,76,34
6,36,0,6
6,40,55,74
6,40,0,6
6,39,69,34
6,39,0,6
6,38,75,75
6,38,0,6
6,36,78,35
6,36,0,6
6,40,55,73
6,40,0,6
6,39,66,36
6,39,0,6
6,39,63,72
6,39,0,6
6,36,74,34
6,36,0,6
6,40,55,73
6,40,0,6
6,39,68,35
6,39,0,6
6,38,74,74
6,38,0,6
6,36,74,36
6,36,0,6
6,40,55,72
6,40,0,6
6,39,51,36
6,39,0,6
6,39,73,72
6,39,0,6
6,36,78,34
6,36,0,6
6,40,55,73
6,40,0,6
6,39,69,35
6,39,0,6
6,38,81,74
6,38,0,6
6,36,76,34
6,36,0,6
6,40,55,74
6,40,0,6
6,39,72,36
6,39,0,6
6,39,62,73
6,39,0,6
6,36,72,35
6,36,0,6
6,40,55,72
6,40,0,6
6,39,60,35
6,39,0,6
6,38,71,73
6,38,0,6
6,36,75,36
6,36,0,6
6,40,55,72
6,40,0,6
6,39,56,35
6,39,0,6
6,39,65,72
6,39,0,6
6,36,76,34
6,36,0,6
6,40,55,74
6,40,0,6
6,39,69,34
6,39,0,6
6,38,75,75
6,38,0,6
6,36,78,35
6,36,0,6
6,40,55,73
6,40,0,6
6,39,66,36
6,39,0,6
6,39,63,72
6,39,0,6
6,36,74,34
6,36,0,6
6,40,55,73
6,40,0,6
6,39,68,35
6,39,0,6
6,38,74,74
6,38,0,6
6,36,74,36
6,36,0,6
6,40,55,72
6,40,0,6
6,39,51,36
6,39,0,6
6,39,73,72
6,39,0,6
6,36,78,34
6,36,0,6
6,40,55,73
6,40,0,6
6,39,69,35
6,39,0,6
6,38,81,74
6,38,0,6
6,36,76,34
6,36,0,6
6,40,55,74
6,40,0,6
6,39,72,36
6,39,0,6
6,39,62,73
6,39,0,6
6,36,72,35
6,36,0,6
6,40,55,72
6,40,0,6
