track,note,velocity,time
0,70,70,342
0,75,72,3
0,79,44,1
0,70,0,35
0,75,0,6
0,79,0,5
0,67,63,89
0,70,67,51
0,67,0,14
0,70,0,20
0,75,82,17
0,75,0,20
0,77,78,38
0,72,74,2
0,69,82,1
0,77,0,60
0,72,0,3
0,69,0,10
0,65,66,75
0,65,0,37
0,70,59,15
0,70,0,42
0,77,44,13
0,77,0,14
0,65,79,50
0,70,68,0
0,74,60,3
0,65,0,26
0,70,0,46
0,74,0,2
0,65,63,13
0,70,53,51
0,65,0,5
0,70,0,30
0,74,72,12
0,70,72,17
0,74,0,13
0,67,73,11
0,70,0,5
0,67,0,4
0,65,83,7
0,67,64,59
0,65,0,1
0,67,0,28
0,70,87,29
0,70,0,14
0,74,69,95
0,74,0,12
0,39,63,45
0,51,52,1
0,67,71,2
0,75,71,0
0,79,60,2
0,46,50,0
0,39,0,7
0,51,0,46
0,67,0,7
0,67,52,7
0,75,0,8
0,79,0,20
0,51,59,35
0,79,66,1
0,67,57,3
0,75,62,0
0,46,0,43
0,67,0,5
0,51,0,5
0,79,0,25
0,78,66,29
0,67,0,1
0,67,57,1
0,51,45,1
0,75,0,4
0,78,0,10
0,67,0,5
0,51,0,12
0,39,68,11
0,75,77,1
0,51,70,0
0,79,71,1
0,67,76,0
0,46,62,3
0,39,0,17
0,75,0,11
0,51,0,2
0,69,77,69
0,81,58,3
0,79,0,5
0,67,0,4
0,46,0,12
0,70,87,47
0,51,57,2
0,82,86,1
0,69,0,20
0,81,0,1
0,70,0,3
0,51,0,11
0,82,0,72
0,51,74,2
0,51,0,17
0,41,58,52
0,48,67,3
0,72,78,1
0,53,60,0
0,81,81,0
0,41,0,49
0,77,56,2
0,48,0,37
0,81,68,6
0,72,0,16
0,53,0,12
0,70,81,33
0,79,68,2
0,81,0,48
0,75,62,7
0,77,0,12
0,81,0,39
0,79,70,6
0,70,0,7
0,79,0,3
0,41,58,47
0,77,71,3
0,69,72,2
0,75,0,2
0,72,53,9
0,79,0,49
0,77,43,8
0,41,0,23
0,77,0,1
0,69,0,14
0,48,51,20
0,75,54,5
0,72,0,4
0,77,0,8
0,48,0,2
0,75,0,35
0,46,43,60
0,58,79,4
0,34,59,19
0,61,72,1
0,46,0,8
0,62,71,1
0,65,66,96
0,58,0,11
0,34,0,44
0,41,49,1
0,61,0,42
0,65,56,14
0,62,0,40
0,62,54,17
0,65,67,63
0,65,0,3
0,46,59,5
0,41,0,1
0,65,0,4
0,62,0,15
0,58,45,88
0,65,0,56
0,50,62,10
0,46,0,9
0,58,62,47
0,58,0,11
0,50,0,2
0,58,0,4
0,39,77,41
0,58,81,23
0,51,77,0
0,70,72,2
0,67,69,0
0,63,71,1
0,39,0,37
0,58,0,55
0,51,0,5
0,58,67,4
0,70,0,10
0,67,0,4
0,63,0,2
0,51,79,51
0,58,0,50
0,51,0,2
0,67,95,4
0,48,65,42
0,67,0,6
0,63,80,1
0,48,0,30
0,41,55,21
0,61,84,6
0,63,0,1
0,57,82,4
0,65,60,3
0,41,0,1
0,62,76,3
0,61,0,84
0,60,64,19
0,57,0,35
0,53,48,14
0,65,0,26
0,62,0,29
0,57,73,1
0,60,0,7
0,53,0,0
0,57,0,5
0,41,67,45
0,53,66,1
0,41,0,51
0,58,80,4
0,62,74,3
0,46,68,3
0,53,0,11
0,53,45,44
0,58,0,29
0,62,0,26
0,46,40,10
0,46,0,30
0,53,45,31
0,53,0,32
0,39,66,17
0,51,68,6
0,46,0,7
0,55,66,3
0,58,69,56
0,53,0,5
0,39,0,1
0,51,0,4
0,55,0,5
0,51,70,44
0,55,72,3
0,63,60,2
0,67,57,0
0,58,0,22
0,51,0,8
0,55,0,13
0,63,0,2
0,50,58,10
0,65,67,2
0,67,0,14
0,50,0,20
0,65,0,15
0,63,62,4
0,63,0,44
0,58,61,18
0,46,49,1
0,62,63,1
0,34,59,5
0,58,0,33
0,46,0,7
0,58,60,54
0,62,63,2
0,62,0,10
0,46,48,51
0,34,0,34
0,58,0,5
0,62,0,22
0,53,51,2
0,46,0,39
0,53,0,12
0,48,53,4
0,62,45,1
0,48,0,54
0,60,62,7
0,53,34,4
0,57,64,0
0,41,53,2
0,62,0,31
0,53,37,64
0,60,0,3
0,53,0,29
0,41,62,30
0,57,0,33
0,43,60,21
0,41,0,36
0,53,0,8
0,41,0,5
0,58,74,7
0,45,68,0
0,43,0,2
0,58,0,7
0,45,0,23
0,58,87,15
0,62,84,1
0,53,84,1
0,46,83,3
0,34,82,0
0,58,0,7
0,62,0,15
0,53,0,2
0,62,85,48
0,65,80,1
0,46,0,4
0,46,68,64
0,34,0,9
0,62,0,10
0,65,0,14
0,46,0,5
0,65,95,14
0,65,0,48
0,62,80,8
0,38,74,4
0,62,0,29
0,62,62,26
0,50,69,0
0,65,74,1
0,57,81,0
0,38,0,52
0,57,69,52
0,62,0,10
0,50,0,35
0,65,0,15
0,50,75,11
0,57,0,4
0,57,0,12
0,50,80,36
0,50,0,18
0,50,0,19
0,65,86,25
0,46,72,1
0,65,0,18
0,46,0,17
0,63,81,5
0,51,63,2
0,67,74,1
0,46,58,1
0,39,56,2
0,63,0,103
0,70,80,0
0,51,0,32
0,51,69,6
0,67,0,2
0,46,0,1
0,39,0,15
0,63,67,34
0,70,0,49
0,51,0,6
0,72,56,2
0,55,66,2
0,63,0,19
0,72,0,32
0,55,0,9
0,70,74,6
0,63,66,1
0,67,57,4
0,58,74,0
0,70,0,28
0,63,0,36
0,63,52,42
0,67,0,31
0,58,0,10
0,63,0,14
0,55,45,78
0,55,0,9
0,67,74,35
0,67,0,21
0,61,35,33
0,61,0,8
0,62,70,13
0,57,72,3
0,41,56,4
0,62,0,56
0,57,0,41
0,57,57,3
0,60,60,2
0,41,0,33
0,57,0,17
0,48,50,22
0,60,0,115
0,48,0,2
0,77,64,62
0,69,60,1
0,36,63,2
0,77,0,40
0,72,61,15
0,77,68,58
0,69,0,31
0,48,65,26
0,76,67,2
0,36,0,2
0,72,0,28
0,77,0,15
0,72,62,11
0,48,0,33
0,76,47,24
0,48,45,1
0,76,0,16
0,72,0,2
0,75,60,5
0,41,54,1
0,76,0,8
0,48,0,6
0,75,0,14
0,48,13,129
0,53,55,49
0,41,0,43
0,48,0,7
0,57,66,4
0,53,0,30
0,57,0,0
0,58,62,28
0,55,58,1
0,43,57,3
0,58,0,15
0,55,0,6
0,58,70,32
0,55,69,1
0,43,0,23
0,58,0,18
0,55,0,9
0,60,88,15
0,57,93,0
0,45,81,3
0,60,0,14
0,57,0,1
0,45,0,12
0,58,87,83
0,46,70,5
0,62,79,41
0,34,60,4
0,58,0,39
0,46,0,31
0,58,57,11
0,62,0,4
0,46,68,60
0,65,66,5
0,34,0,11
0,50,54,46
0,58,0,54
0,62,64,1
0,46,0,6
0,53,46,0
0,58,60,64
0,67,64,0
0,65,0,9
0,50,0,12
0,62,0,16
0,58,62,69
0,65,67,1
0,62,64,3
0,53,0,8
0,58,0,48
0,53,54,11
0,67,0,10
0,58,0,5
0,65,0,13
0,58,62,37
0,62,0,14
0,53,0,8
0,58,0,1
0,39,70,30
0,51,87,11
0,58,94,57
0,70,87,1
0,63,84,1
0,39,0,18
0,51,0,1
0,58,0,1
0,70,0,1
0,51,87,56
0,63,0,53
0,51,0,1
0,67,88,6
0,67,0,48
0,48,66,0
0,63,80,3
0,48,0,30
0,61,85,22
0,41,56,2
0,57,69,3
0,63,0,1
0,61,0,1
0,65,58,0
0,62,78,2
0,41,0,68
0,57,0,16
0,57,74,5
0,60,71,1
0,65,0,55
0,53,64,7
0,62,0,17
0,57,0,40
0,57,74,2
0,60,0,1
0,53,0,9
0,57,0,3
0,41,68,41
0,53,53,4
0,52,52,4
0,41,0,9
0,58,83,20
0,62,74,2
0,53,0,3
0,46,78,1
0,52,0,57
0,53,51,61
0,58,0,26
0,62,0,19
0,46,53,17
0,46,0,21
0,53,45,40
0,53,0,43
0,46,57,6
0,39,68,59
0,46,0,8
0,53,0,27
0,46,0,3
0,46,49,24
0,55,69,54
0,39,0,32
0,63,72,26
0,67,71,2
0,51,70,0
0,46,0,33
0,55,0,3
0,63,0,3
0,50,68,11
0,65,64,2
0,67,0,26
0,51,0,23
0,63,68,6
0,50,0,10
0,65,0,9
0,63,0,42
0,46,60,5
0,58,68,0
0,62,71,1
0,34,52,5
0,46,0,10
0,58,0,16
0,58,70,36
0,62,63,2
0,62,0,8
0,34,0,4
0,58,0,10
0,46,76,37
0,62,0,26
0,46,0,6
0,62,67,29
0,58,65,1
0,62,0,51
0,53,60,3
0,48,52,2
0,56,78,57
0,58,0,1
0,60,68,2
0,53,0,1
0,41,55,1
0,48,0,1
0,57,74,1
0,53,73,52
0,56,0,2
0,48,87,59
0,60,0,7
0,41,0,18
0,57,0,7
0,53,0,14
0,58,98,10
0,43,62,14
0,48,0,12
0,58,0,16
0,60,87,14
0,43,0,7
0,45,66,1
0,60,0,28
0,45,0,3
0,58,95,18
0,62,95,1
0,53,92,1
0,46,83,1
0,58,0,38
0,62,0,8
0,53,0,0
0,62,86,67
0,65,90,1
0,46,0,25
0,46,82,40
0,62,0,5
0,65,0,15
0,46,0,7
0,67,91,24
0,62,97,1
0,67,0,14
0,62,0,10
0,36,76,34
0,63,72,19
0,70,68,1
0,48,69,0
0,60,71,2
0,67,65,0
0,36,0,113
0,48,82,71
0,63,0,19
0,70,0,1
0,50,72,80
0,48,0,18
0,60,0,4
0,67,0,6
0,48,0,3
0,50,0,8
0,51,57,45
0,39,53,1
0,63,62,1
0,67,55,1
0,70,67,0
0,58,70,2
0,46,51,3
0,51,0,65
0,39,0,1
0,63,0,10
0,67,0,1
0,70,0,0
0,51,51,76
0,58,0,26
0,46,0,20
0,51,0,11
0,67,92,8
0,67,0,51
0,63,78,3
0,63,0,44
0,41,42,7
0,48,58,3
0,62,69,1
0,53,41,1
0,57,24,3
0,41,0,20
0,65,59,10
0,53,49,67
0,48,0,22
0,62,0,19
0,67,63,23
0,53,0,14
0,57,0,3
0,65,0,8
0,53,0,8
0,67,0,19
0,41,49,5
0,41,0,46
0,53,60,15
0,62,52,3
0,46,50,0
0,58,59,1
0,53,0,15
0,62,0,80
0,46,47,33
0,46,0,35
0,53,39,24
0,58,0,35
0,46,52,17
0,39,62,59
0,46,0,5
0,53,0,38
0,46,0,9
0,46,56,1
0,51,48,54
0,55,61,62
0,39,0,12
0,46,0,19
0,51,0,8
0,58,51,19
0,46,51,61
0,63,52,1
0,55,0,18
0,58,0,5
0,34,57,40
0,58,57,4
0,62,56,0
0,46,0,5
0,53,57,59
0,63,0,7
0,46,56,52
0,34,0,2
0,58,0,57
0,62,0,21
0,53,74,33
0,53,0,13
0,46,0,31
0,34,76,10
0,58,91,0
0,53,71,2
0,62,88,2
0,53,0,29
0,34,0,2
0,58,0,6
0,53,0,44
0,62,0,3
0,63,87,25
0,63,0,43
0,62,87,16
0,65,92,0
0,50,74,0
0,57,91,2
0,38,56,0
0,62,0,1
0,65,0,29
0,50,0,9
0,57,0,11
0,38,0,15
0,58,91,7
0,39,75,29
0,58,0,18
0,58,87,7
0,63,74,1
0,67,71,1
0,51,70,10
0,39,0,7
0,58,0,56
0,51,84,55
0,63,0,35
0,55,60,26
0,67,0,8
0,51,0,0
0,51,0,3
0,63,74,13
0,55,0,9
0,67,76,20
0,63,0,25
0,67,0,1
0,57,74,35
0,65,74,1
0,60,54,1
0,41,56,0
0,57,0,42
0,57,67,44
0,48,62,63
0,65,0,10
0,57,63,49
0,60,0,4
0,41,0,18
0,57,0,5
0,48,57,35
0,48,0,31
0,57,0,6
0,58,61,23
0,46,63,2
0,62,56,1
0,53,40,2
0,48,0,20
0,53,33,59
0,58,0,20
0,46,0,33
0,46,57,13
0,62,0,22
0,53,52,34
0,53,0,29
0,53,0,6
0,46,0,8
0,38,71,15
0,50,82,57
0,62,78,4
0,57,83,0
0,53,0,22
0,38,0,19
0,50,0,9
0,60,78,20
0,63,87,0
0,57,74,3
0,62,0,9
0,57,0,30
0,60,0,12
0,63,0,4
0,65,79,14
0,50,83,1
0,57,0,26
0,65,0,2
0,50,0,17
0,58,85,63
0,39,69,2
0,67,59,21
0,51,59,2
0,63,71,1
0,58,0,22
0,58,33,32
0,39,0,3
0,67,0,60
0,51,68,3
0,51,0,47
0,58,65,11
0,63,0,6
0,58,0,19
0,51,0,18
0,58,0,11
0,41,67,3
0,53,64,1
0,57,81,0
0,62,74,2
0,65,71,0
0,41,0,19
0,53,0,33
0,57,65,6
0,53,63,65
0,60,65,4
0,57,0,15
0,62,0,19
0,65,0,19
0,57,55,12
0,57,0,10
0,53,0,1
0,60,0,17
0,41,58,23
0,57,0,51
0,58,62,17
0,53,49,1
0,46,57,0
0,62,53,1
0,41,0,42
0,53,18,48
0,58,0,26
0,53,0,36
0,46,42,8
0,53,24,74
0,46,0,2
0,62,0,25
0,53,0,5
0,46,0,1
0,46,54,20
0,53,0,33
0,62,74,27
0,58,81,1
0,46,85,2
0,53,77,1
0,46,0,31
0,62,0,7
0,58,0,1
0,46,0,3
0,63,81,60
0,53,0,36
0,63,0,10
0,65,95,19
0,62,83,2
0,46,81,1
0,65,0,7
0,62,0,17
0,46,0,15
0,67,77,73
0,46,77,10
0,67,0,30
0,39,56,4
0,51,80,8
0,46,0,3
0,67,80,3
0,70,84,0
0,63,83,0
0,39,0,44
0,51,74,81
0,51,0,9
0,67,0,10
0,70,0,6
0,63,0,6
0,51,0,31
0,51,83,45
0,39,79,3
0,70,81,1
0,67,66,0
0,63,77,2
0,51,0,6
0,39,0,15
0,70,0,2
0,67,0,3
0,63,0,7
0,69,92,26
0,62,95,1
0,65,91,0
0,72,90,2
0,50,79,1
0,38,73,2
0,69,0,17
0,62,71,28
0,62,0,8
0,50,93,56
0,65,0,14
0,72,0,4
0,50,0,0
0,38,0,5
0,62,0,5
0,50,0,1
0,70,83,76
0,43,67,7
0,70,0,19
0,43,0,33
0,63,82,6
0,70,72,1
0,74,67,2
0,67,66,1
0,36,76,3
0,72,77,49
0,63,0,1
0,70,0,1
0,74,0,9
0,70,82,40
0,67,0,10
0,48,72,52
0,51,63,42
0,55,58,67
0,36,0,63
0,58,63,0
0,72,0,34
0,70,0,8
0,48,0,10
0,63,52,7
0,48,13,2
0,51,0,3
0,67,59,51
0,55,0,45
0,58,0,32
0,63,0,4
0,67,62,43
0,48,0,12
0,67,0,10
0,67,0,0
0,36,82,28
0,75,87,20
0,63,94,0
0,70,84,1
0,48,83,1
0,67,82,0
0,36,0,6
0,75,0,4
0,63,0,0
0,70,0,2
0,48,0,22
0,67,0,14
0,50,82,89
0,70,87,1
0,74,86,0
0,38,68,1
0,62,85,1
0,50,0,26
0,70,0,3
0,74,0,8
0,38,0,5
0,62,0,45
0,50,71,2
0,50,0,20
0,70,68,15
0,63,68,0
0,67,65,3
0,51,58,0
0,39,53,1
0,46,59,2
0,70,0,20
0,63,0,19
0,51,69,88
0,67,0,15
0,51,0,10
0,39,0,4
0,67,82,29
0,46,0,9
0,51,0,1
0,67,0,10
0,36,86,31
0,67,82,17
0,75,90,1
0,63,90,0
0,70,82,2
0,48,88,0
0,36,0,15
0,67,0,2
0,75,0,5
0,63,0,8
0,70,0,2
0,48,63,28
0,48,0,9
0,48,0,24
0,70,87,25
0,74,85,2
0,65,76,4
0,38,74,1
0,50,83,1
0,70,0,37
0,74,0,6
0,65,0,25
0,38,0,2
0,50,0,6
0,39,77,30
0,67,72,5
0,39,0,27
0,51,63,30
0,46,59,2
0,63,63,1
0,67,67,3
0,70,68,0
0,67,0,31
0,51,0,7
0,46,0,1
0,63,0,0
0,51,63,71
0,67,0,27
0,70,0,13
0,51,0,3
0,67,59,17
0,67,0,43
0,63,62,9
0,34,59,2
0,63,0,43
0,62,66,16
0,65,50,2
0,46,49,3
0,58,48,91
0,34,0,5
0,62,0,33
0,46,51,27
0,58,38,63
0,65,0,35
