track,note,velocity,time
2,60,69,3006
2,67,73,18
2,71,75,32
2,76,91,14
2,71,85,32
2,72,91,178
2,67,75,164
2,60,65,172
2,57,83,46
2,67,75,16
2,74,91,4
2,69,83,0
2,72,83,356
2,74,91,366
2,76,79,4
2,62,69,190
2,50,91,12
2,69,79,4
2,77,75,8
2,72,79,10
2,74,87,4
2,69,83,0
2,72,74,152
2,74,80,182
2,77,83,6
2,62,79,192
2,67,91,4
2,72,79,2
2,55,91,4
2,74,79,2
2,67,79,90
2,71,93,186
2,74,82,142
2,77,91,196
2,64,63,198
2,52,100,2
2,79,83,8
2,71,79,4
2,74,83,6
2,76,79,4
2,71,87,100
2,74,75,100
2,79,86,200
2,76,83,8
2,64,73,184
2,73,89,0
2,79,83,6
2,57,85,0
2,70,79,4
2,45,71,576
2,70,93,104
2,73,83,126
2,76,100,190
2,57,75,94
2,77,71,12
2,69,67,2
2,50,83,0
2,72,71,12
2,74,83,4
2,38,71,578
2,57,64,12
2,60,75,130
2,62,88,188
2,65,96,188
2,43,87,12
2,55,61,156
2,60,82,184
2,65,84,22
2,62,103,2
2,60,79,2
2,43,91,100
2,55,79,8
2,59,91,52
2,62,100,0
2,48,75,188
2,64,83,16
2,48,87,4
2,55,87,6
2,60,83,0
2,59,87,2
2,59,91,34
2,60,75,6
2,55,87,184
2,45,87,46
2,64,71,4
2,57,87,2
2,55,79,8
2,60,83,4
2,60,83,46
2,55,67,118
2,57,63,54
2,50,71,132
2,38,100,12
2,65,75,2
2,57,71,2
2,62,75,4
2,60,79,4
2,57,75,10
2,60,91,176
2,57,83,36
2,62,87,4
2,60,91,4
2,65,87,6
2,57,69,18
2,43,102,0
2,64,87,2
2,55,67,6
2,59,79,0
2,62,91,386
2,59,91,112
2,62,84,142
2,65,91,198
2,52,73,184
2,59,71,2
2,40,96,4
2,67,83,6
2,62,100,8
2,59,75,148
2,62,79,12
2,67,96,186
2,52,79,190
2,58,56,18
2,45,96,0
2,67,91,2
2,64,79,6
2,58,58,96
2,67,61,106
2,58,82,36
2,67,68,66
2,50,50,196
2,38,91,24
2,57,83,10
2,65,86,2
2,62,83,0
2,60,83,2
2,57,64,140
2,60,79,134
2,62,83,122
2,65,94,186
2,50,67,6
2,43,83,10
2,55,75,176
2,60,91,184
2,55,87,32
2,60,91,4
2,62,100,0
2,53,79,16
2,62,100,128
2,60,91,8
2,43,79,48
2,59,105,6
2,60,100,4
2,64,91,4
2,55,91,4
2,48,87,10
2,48,70,144
2,64,91,76
2,57,100,4
2,60,91,0
2,55,100,2
2,45,83,0
2,50,88,42
2,65,91,6
2,57,91,4
2,62,100,4
2,60,100,4
2,65,85,62
2,57,82,156
2,60,83,142
2,62,87,2
2,65,83,0
2,50,76,130
2,59,93,2
2,43,91,4
2,67,97,0
2,64,93,0
2,62,87,382
2,55,71,40
2,59,100,182
2,55,58,350
2,52,91,70
2,64,95,18
2,62,91,0
2,67,87,0
2,59,87,2
2,40,91,4
2,52,67,372
2,67,82,42
2,62,87,2
2,64,86,4
2,59,91,0
2,52,70,152
2,62,83,46
2,59,83,12
2,67,91,0
2,64,91,0
2,52,70,144
2,45,91,4
2,58,87,4
2,67,100,0
2,61,100,8
2,61,75,22
2,67,80,4
2,58,79,2
2,61,71,36
2,65,93,24
2,50,87,4
2,57,91,2
2,60,87,2
2,62,94,4
2,65,85,28
2,57,91,4
2,60,87,2
2,62,100,0
2,60,83,46
2,57,83,176
2,38,100,102
2,62,91,0
2,68,87,0
2,59,91,4
2,40,87,6
2,52,76,380
2,69,102,190
2,62,83,52
2,59,75,8
2,71,105,22
2,50,86,0
2,45,91,6
2,64,100,20
2,60,87,2
2,55,100,0
2,69,91,392
2,72,100,20
2,71,83,188
2,57,87,186
2,69,93,6
2,69,100,2
2,66,79,2
2,60,93,2
2,62,91,0
2,50,102,6
2,66,100,16
2,57,87,32
2,63,91,6
2,67,98,2
2,60,83,180
2,69,109,28
2,45,87,2
2,70,83,24
2,43,91,4
2,67,91,4
2,65,100,0
2,62,87,0
2,70,99,104
2,69,109,166
2,50,91,68
2,67,103,10
2,48,100,2
2,60,93,2
2,64,83,0
2,64,91,66
2,70,75,8
2,62,100,0
2,65,91,2
2,50,103,4
2,70,75,6
2,67,91,0
2,64,91,6
2,52,100,0
2,72,83,244
2,70,87,36
2,68,87,14
2,41,100,4
2,65,90,16
2,56,87,392
2,68,108,48
2,67,91,180
2,48,87,12
2,58,71,18
2,46,91,0
2,62,91,4
2,65,99,2
2,68,90,0
2,67,101,16
2,62,79,6
2,46,100,26
2,62,83,2
2,65,91,0
2,43,91,14
2,62,87,8
2,65,83,4
2,55,87,4
2,60,91,4
2,55,91,28
2,60,87,10
2,62,91,4
2,65,83,2
2,43,87,32
2,62,91,4
2,65,87,2
2,60,91,0
2,43,91,30
2,62,94,4
2,55,83,10
2,65,63,4
2,59,80,0
2,55,75,4
2,59,100,28
2,60,87,12
2,48,79,12
2,64,95,12
2,59,114,16
2,60,83,162
2,55,91,96
2,57,87,50
2,55,91,2
2,60,91,0
2,62,91,0
2,45,83,6
2,60,94,56
2,62,100,370
2,64,100,66
2,48,91,8
2,50,91,36
2,65,91,10
2,57,87,2
2,60,91,0
2,62,87,4
2,55,54,22
2,57,109,20
2,60,79,164
2,65,109,54
2,50,83,50
2,60,91,24
2,62,96,0
2,43,109,2
2,65,85,0
2,55,83,376
2,62,91,344
2,59,109,2
2,55,91,368
2,52,73,194
2,67,91,8
2,40,91,14
2,59,91,2
2,62,100,4
2,64,87,4
2,52,71,378
2,67,91,28
2,62,91,6
2,59,100,0
2,64,91,8
2,52,87,358
2,58,75,14
2,45,89,8
2,61,91,0
2,67,100,0
2,61,75,32
2,64,91,2
2,58,83,0
2,45,91,74
2,67,82,2
2,62,91,18
2,65,91,0
2,50,100,2
2,60,91,4
2,57,87,380
2,60,91,76
2,65,91,0
2,62,100,4
2,57,91,366
2,50,79,178
2,55,91,14
2,43,100,2
2,62,91,0
2,67,79,4
2,60,91,6
2,60,75,64
2,55,96,122
2,60,96,156
2,62,100,202
2,43,91,158
2,59,105,2
2,60,100,4
2,64,91,4
2,55,91,4
2,48,87,10
2,64,97,52
2,55,91,2
2,59,91,0
2,60,83,2
2,48,79,144
2,62,91,4
2,45,83,0
2,55,91,4
2,57,100,2
2,60,100,386
2,55,83,72
2,62,100,186
2,64,109,386
2,57,87,76
2,50,88,14
2,65,91,6
2,57,91,4
2,62,100,4
2,60,100,4
2,65,85,62
2,57,82,156
2,60,83,142
2,62,87,2
2,65,83,0
2,50,76,130
2,59,93,2
2,43,91,4
2,55,97,0
2,64,97,0
2,62,87,382
2,55,71,40
2,59,100,182
2,62,71,60
2,64,91,62
2,52,91,70
2,65,91,12
2,64,95,24
2,62,91,0
2,67,87,0
2,59,87,2
2,40,91,0
2,52,67,372
2,67,82,42
2,62,87,2
2,64,86,4
2,52,70,152
2,59,59,4
2,62,87,54
2,52,70,144
2,67,100,2
2,45,91,4
2,58,87,4
2,67,100,0
2,61,100,8
2,61,75,22
2,67,80,4
2,58,79,2
2,61,71,36
2,65,93,24
2,50,87,4
2,57,91,2
2,60,87,2
2,62,94,4
2,57,83,34
2,60,79,184
2,65,83,188
2,67,75,174
2,38,100,16
2,68,79,56
2,62,91,0
2,59,100,0
2,40,87,4
2,56,75,354
2,68,83,202
2,62,109,2
2,59,109,2
2,56,91,368
2,59,109,20
2,50,86,2
2,62,109,2
2,68,87,0
2,45,91,0
2,64,100,28
2,59,100,2
2,60,91,4
2,55,109,2
2,72,100,760
2,71,83,188
2,57,87,6
2,62,83,2
2,69,83,4
2,50,102,6
2,60,83,0
2,67,87,0
2,57,91,384
2,62,100,30
2,57,109,0
2,60,91,4
2,66,83,4
2,45,87,28
2,62,91,2
2,57,91,0
2,66,83,2
2,60,91,8
2,58,87,28
2,43,91,2
2,55,91,4
2,62,100,0
2,65,99,0
2,70,99,778
2,69,109,166
2,50,91,68
2,67,103,10
2,48,100,2
2,58,100,2
2,60,93,0
2,64,83,0
2,64,91,66
2,70,75,8
2,62,100,0
2,65,91,2
2,50,103,4
2,70,75,6
2,67,91,0
2,64,91,6
2,52,100,0
2,72,83,244
2,70,87,36
2,68,87,14
2,41,100,4
2,65,90,16
2,56,87,392
2,68,108,48
2,67,91,180
2,48,87,12
2,68,97,18
2,46,91,0
2,65,100,2
2,62,100,4
2,58,83,366
2,68,93,50
2,62,109,4
2,65,91,2
2,68,84,38
2,62,83,2
2,58,77,0
2,46,100,4
2,65,99,2
2,60,91,12
2,65,87,2
2,43,91,0
2,62,91,4
2,55,100,384
2,65,87,24
2,60,91,0
2,62,100,4
2,65,100,84
2,43,87,0
2,43,91,20
2,55,91,16
2,62,91,10
2,65,91,4
2,59,100,4
2,63,91,6
2,55,91,6
2,59,100,2
2,59,83,28
2,63,79,2
2,65,83,2
2,65,91,34
2,59,91,0
2,63,91,0
2,65,91,34
2,63,91,2
2,59,91,0
2,64,109,10
2,60,112,2
2,48,100,8
2,55,100,368
2,60,100,6
2,64,109,2
2,55,100,390
2,48,100,118
2,45,91,32
2,60,100,6
2,55,100,0
2,64,103,2
2,52,100,386
2,55,100,8
2,64,100,0
2,60,100,8
2,52,91,78
2,51,83,16
2,40,100,22
2,64,91,6
2,62,91,2
2,67,108,0
2,59,98,4
2,52,100,380
2,67,97,54
2,62,100,4
2,64,91,2
2,59,87,4
2,67,91,14
2,46,91,2
2,59,91,2
2,62,100,0
2,64,100,4
2,45,100,26
2,67,111,2
2,64,108,2
2,55,91,2
2,61,100,0
2,61,100,62
2,64,106,22
2,45,100,84
2,67,109,4
2,50,109,40
2,60,109,0
2,65,91,0
2,62,109,0
2,57,100,8
2,65,100,68
2,60,109,0
2,62,109,10
2,57,91,360
2,45,91,0
2,65,91,2
2,62,109,4
2,60,100,4
2,50,100,2
2,57,100,0
2,62,109,8
2,60,87,6
2,65,109,2
2,45,91,12
2,57,100,4
2,60,100,16
2,65,87,0
2,43,100,2
2,62,100,4
2,55,91,366
2,60,100,394
2,65,83,0
2,62,109,4
2,43,79,100
2,55,91,4
2,43,87,42
2,62,100,6
2,59,91,8
3,36,116,15360
3,33,116,74
3,38,116,66
3,31,116,66
3,28,116,66
3,33,116,74
3,38,116,66
3,31,116,66
3,36,116,66
3,36,110,184
3,33,116,34
3,36,110,174
3,38,116,34
3,38,110,174
3,31,116,34
3,40,110,174
3,28,116,34
3,35,110,162
3,33,116,34
3,38,116,186
3,38,110,174
3,40,116,34
3,38,116,162
3,33,116,56
3,33,116,168
3,38,116,88
3,38,110,170
3,33,116,64
3,43,116,76
3,38,116,162
3,36,116,88
3,43,116,162
3,41,116,66
3,36,116,170
3,34,116,86
3,34,116,182
3,43,116,106
3,38,116,122
3,31,116,84
3,36,116,84
3,36,110,184
3,45,116,34
3,36,110,144
3,38,116,104
3,38,110,174
3,43,116,34
3,40,116,186
3,35,110,162
3,33,116,34
3,33,110,154
3,38,116,34
3,38,110,174
3,43,116,34
3,43,111,158
3,36,116,44
3,48,116,68
3,45,116,72
3,36,110,144
3,38,116,64
3,41,110,162
3,43,116,82
3,38,116,162
3,39,116,38
3,40,116,20
3,35,110,130
3,40,110,34
3,33,116,28
3,45,110,142
3,38,116,44
3,38,110,146
3,39,110,34
3,40,116,34
3,35,111,166
3,33,116,76
3,45,116,64
3,33,110,192
3,38,116,24
3,38,116,162
3,43,116,76
3,38,116,162
3,36,116,66
3,36,116,98
3,43,116,66
3,41,116,66
3,36,116,170
3,34,116,106
3,34,116,182
3,31,116,106
3,31,107,174
3,31,125,34
3,31,118,76
3,31,107,132
3,31,125,46
3,31,107,78
3,31,127,66
3,31,118,66
3,36,116,34
3,36,116,166
3,33,116,60
3,38,116,162
3,39,105,192
3,40,116,180
3,34,116,162
3,33,116,66
3,33,116,162
3,38,116,66
3,33,110,140
3,38,116,34
3,38,107,112
3,33,116,38
3,38,116,38
3,33,116,52
3,31,116,50
3,31,116,106
3,36,116,106
3,36,110,184
3,33,116,34
3,33,116,144
3,36,104,14
3,38,116,22
3,38,101,174
3,43,116,34
3,31,116,98
3,40,116,58
3,38,110,172
3,37,116,34
3,33,116,98
3,33,110,86
3,38,116,34
3,38,110,174
3,43,116,34
3,43,116,70
3,43,110,92
3,31,111,34
3,36,116,56
3,48,116,68
3,48,110,100
3,45,116,40
3,36,110,136
3,38,116,54
3,41,110,140
3,43,116,50
3,40,116,166
3,40,116,42
3,40,107,258
3,40,117,44
3,40,110,246
3,45,116,34
3,40,110,98
3,39,110,32
3,38,116,32
3,38,110,158
3,40,116,34
3,34,111,106
3,33,116,76
3,45,116,64
3,33,117,60
3,38,116,76
3,45,116,162
3,50,106,6
3,43,116,16
3,38,116,162
3,36,116,66
3,38,116,98
3,43,116,66
3,41,116,66
3,36,116,170
3,34,116,106
3,34,116,182
3,31,116,106
3,31,107,174
3,31,125,34
3,31,107,74
3,31,125,46
3,31,107,78
3,31,127,58
3,35,118,66
3,36,116,34
3,48,116,82
3,36,116,70
3,33,116,48
3,38,116,162
3,39,105,28
3,40,116,14
3,34,116,162
3,33,116,66
3,45,116,78
3,33,106,66
3,38,116,34
3,38,114,74
3,33,110,38
3,38,116,28
3,33,116,66
3,32,103,28
3,31,116,36
3,43,116,78
3,31,116,66
3,31,116,42
3,31,116,144
3,31,116,66
3,43,116,54
3,42,79,80
3,41,86,4
3,40,83,28
3,39,89,20
3,38,86,26
3,37,72,36
3,36,116,24
3,48,116,82
3,36,116,70
3,33,116,48
3,38,116,162
3,39,105,28
3,40,116,14
3,34,116,162
3,33,116,66
3,45,116,78
3,33,116,34
3,33,106,94
3,38,116,34
3,33,114,74
3,33,110,58
3,38,116,28
3,33,116,66
3,32,103,28
3,31,115,36
3,31,118,64
3,31,111,166
3,43,116,32
3,31,116,34
3,31,120,54
3,31,104,32
3,31,109,50
3,31,116,60
3,31,112,68
3,31,118,44
3,35,118,72
3,36,116,18
3,48,116,82
3,36,116,70
3,33,116,48
3,38,116,162
3,39,105,28
3,40,116,14
3,34,116,162
3,33,116,66
3,45,116,78
3,33,116,34
3,33,106,94
3,38,116,34
3,45,114,74
3,33,110,58
3,38,116,28
3,33,116,66
3,32,103,28
3,31,115,36
3,31,118,64
3,31,111,166
3,43,116,32
3,31,116,34
3,31,120,54
3,31,115,120
3,31,109,62
3,31,116,60
3,31,112,108
3,31,118,44
3,35,118,32
3,36,116,18
3,48,116,62
3,36,116,60
3,33,116,60
3,33,116,58
3,38,116,60
3,39,105,28
3,40,116,30
3,35,116,162
3,34,105,36
3,33,116,30
3,33,116,118
3,33,105,78
3,38,116,30
3,33,116,48
3,38,116,192
3,38,116,40
3,33,116,100
3,31,116,50
4,79,56,3058
4,81,56,6106
4,79,56,3038
4,79,56,24
4,81,56,6106
4,76,56,2850
4,79,56,138
4,79,61,28
4,77,61,1546
4,76,61,370
4,77,62,360
4,79,70,370
4,79,61,128
4,76,70,148
4,79,70,144
4,81,61,148
4,78,70,1152
4,74,70,132
4,81,61,142
4,80,74,932
4,81,78,32
4,79,71,128
4,76,74,124
4,79,61,152
4,52,72,1686
4,76,61,0
4,68,61,4
4,80,61,16
4,71,61,24
4,81,61,294
4,74,61,0
4,54,72,4
4,83,69,350
4,56,72,0
4,83,67,20
4,76,61,18
4,74,58,10
4,57,72,170
4,72,58,70
4,76,61,12
4,81,67,16
4,78,61,680
4,69,62,8
4,50,72,26
4,66,62,358
4,84,67,2
4,67,62,60
4,87,67,4
4,69,62,366
4,77,61,8
4,55,72,12
4,86,67,0
4,81,65,4
4,70,61,0
4,79,66,0
4,70,58,4
4,74,61,10
4,64,57,4
4,67,62,2
4,48,72,2
4,70,52,0
4,79,70,2
4,76,70,2
4,76,86,268
4,84,78,14
4,77,86,36
4,50,72,0
4,84,78,0
4,52,72,96
4,79,86,2
4,84,80,6
4,68,63,16
4,53,72,0
4,75,62,2
4,84,67,2
4,65,57,6
4,72,77,370
