track,note,velocity,time
2,60,79,7440
2,60,79,320
2,62,79,40
2,64,79,40
2,65,79,40
2,65,79,320
2,64,79,40
2,62,79,40
2,60,79,40
2,60,79,320
2,62,79,40
2,64,79,40
2,64,79,80
2,62,79,120
2,60,79,320
2,60,79,320
2,62,79,40
2,64,79,40
2,65,79,40
2,65,79,320
2,64,79,40
2,62,79,40
2,60,79,40
2,60,79,320
2,62,79,40
2,64,79,40
2,59,79,40
2,60,79,120
2,76,79,160
2,74,79,40
2,72,79,40
2,76,79,320
2,74,79,40
2,74,79,40
2,74,79,40
2,72,79,0
2,65,79,260
2,72,79,20
2,71,79,40
2,69,79,40
2,69,79,40
2,67,79,0
2,72,79,320
2,74,79,40
2,76,79,40
2,76,79,80
2,76,79,80
2,74,79,40
2,72,79,320
2,76,79,320
2,74,79,40
2,74,79,40
2,74,79,40
2,72,79,0
2,65,79,260
2,72,79,20
2,71,79,40
2,69,79,40
2,69,79,40
2,67,79,0
2,76,79,200
2,74,79,40
2,72,79,40
2,72,79,40
2,71,79,40
2,74,79,0
2,72,79,40
2,60,79,320
2,60,79,320
2,62,79,40
2,64,79,40
2,65,79,40
2,65,79,320
2,64,79,40
2,62,79,40
2,60,79,40
2,60,79,320
2,62,79,40
2,64,79,40
2,64,79,80
2,62,79,120
2,60,79,320
2,60,79,320
2,62,79,40
2,64,79,40
2,65,79,40
2,65,79,320
2,64,79,40
2,62,79,40
2,60,79,40
2,60,79,320
2,62,79,40
2,64,79,40
2,59,79,40
2,60,79,120
2,76,79,160
2,74,79,40
2,72,79,40
2,76,79,320
2,74,79,40
2,74,79,40
2,74,79,40
2,72,79,0
2,65,79,260
2,72,79,20
2,71,79,40
2,69,79,40
2,69,79,40
2,67,79,0
2,72,79,320
2,74,79,40
2,76,79,40
2,76,79,80
2,76,79,80
2,74,79,40
2,72,79,320
2,76,79,320
2,74,79,40
2,74,79,40
2,74,79,40
2,72,79,0
2,65,79,260
2,72,79,20
2,71,79,40
2,69,79,40
2,69,79,40
2,67,79,0
2,76,79,200
2,74,79,40
2,72,79,40
2,72,79,40
2,71,79,40
2,74,79,0
2,72,79,40
2,69,79,200
2,72,79,40
2,72,79,80
2,72,79,60
2,70,79,20
2,72,79,40
2,67,79,160
2,65,79,40
2,67,79,40
2,69,79,40
2,72,79,40
2,76,79,80
2,74,79,20
2,72,79,0
2,76,79,40
2,76,79,80
2,74,79,40
2,72,79,40
2,72,79,80
2,71,79,40
2,74,79,0
2,72,79,40
2,67,79,280
2,69,79,40
2,72,79,40
2,72,79,80
2,72,79,60
2,70,79,20
2,72,79,40
2,67,79,160
2,65,79,40
2,67,79,40
2,69,79,40
2,72,79,40
2,76,79,80
2,74,79,20
2,72,79,0
2,76,79,40
2,76,79,80
2,74,79,40
2,72,79,40
2,72,79,80
2,71,79,40
2,74,79,0
2,72,79,40
2,76,79,160
2,74,79,40
2,72,79,40
2,76,79,320
2,76,79,40
2,76,79,40
2,77,79,40
2,76,79,0
2,74,79,0
2,72,79,0
2,65,79,220
2,72,79,20
2,71,79,40
2,69,79,40
2,69,79,40
2,67,79,0
2,72,79,320
2,74,79,40
2,76,79,40
2,76,79,80
2,76,79,80
2,74,79,40
2,72,79,320
2,76,79,320
2,74,79,40
2,74,79,40
2,74,79,40
2,72,79,0
2,69,79,0
2,72,79,0
2,65,79,220
2,72,79,20
2,71,79,40
2,69,79,40
2,69,79,40
2,67,79,0
2,76,79,200
2,74,79,40
2,72,79,40
2,72,79,40
2,71,79,40
2,74,79,0
2,72,79,40
2,60,79,320
2,60,79,320
2,62,79,40
2,64,79,40
2,65,79,40
2,65,79,320
2,64,79,40
2,62,79,40
2,60,79,40
2,60,79,320
2,62,79,40
2,64,79,40
2,64,79,80
2,62,79,120
2,60,79,320
2,60,79,320
2,62,79,40
2,64,79,40
2,65,79,40
2,65,79,320
2,64,79,40
2,62,79,40
2,60,79,40
2,60,79,320
2,62,79,40
2,64,79,40
2,59,79,40
2,60,79,120
2,76,79,160
2,74,79,40
2,72,79,40
2,76,79,320
2,74,79,40
2,74,79,40
2,74,79,40
2,72,79,0
2,65,79,260
2,72,79,20
2,71,79,40
2,69,79,40
2,69,79,40
2,67,79,0
2,72,79,320
2,74,79,40
2,76,79,40
2,76,79,80
2,76,79,80
2,74,79,40
2,72,79,320
2,76,79,320
2,74,79,40
2,74,79,40
2,74,79,40
2,72,79,0
2,65,79,260
2,72,79,20
2,71,79,40
2,69,79,40
2,69,79,40
2,67,79,0
2,76,79,200
2,74,79,40
2,72,79,40
2,72,79,40
2,71,79,40
2,74,79,0
2,72,79,40
2,69,79,200
2,72,79,40
2,72,79,80
2,72,79,60
2,70,79,20
2,72,79,40
2,67,79,160
2,65,79,40
2,67,79,40
2,69,79,40
2,72,79,40
2,76,79,80
2,74,79,20
2,72,79,0
2,76,79,40
2,76,79,80
2,74,79,40
2,72,79,40
2,72,79,80
2,71,79,40
2,74,79,0
2,72,79,40
2,67,79,280
2,69,79,40
2,72,79,40
2,72,79,80
2,72,79,60
2,70,79,20
2,72,79,40
2,67,79,160
2,65,79,40
2,67,79,40
2,69,79,40
2,72,79,40
2,76,79,80
2,74,79,20
2,72,79,0
2,76,79,40
2,76,79,80
2,74,79,40
2,72,79,40
2,72,79,80
2,71,79,40
2,74,79,0
2,72,79,40
2,76,79,160
2,74,79,40
2,72,79,40
2,76,79,320
2,76,79,40
2,76,79,40
2,77,79,40
2,76,79,0
2,74,79,0
2,72,79,0
2,65,79,220
2,72,79,20
2,71,79,40
2,69,79,40
2,69,79,40
2,67,79,0
2,72,79,320
2,74,79,40
2,76,79,40
2,76,79,80
2,76,79,80
2,74,79,40
2,72,79,320
2,76,79,320
2,74,79,40
2,74,79,40
2,74,79,40
2,72,79,0
2,69,79,0
2,72,79,0
2,65,79,220
2,72,79,20
2,71,79,40
2,69,79,40
2,69,79,40
2,67,79,0
2,76,79,200
2,74,79,40
2,72,79,40
2,72,79,40
2,71,79,40
2,74,79,0
2,72,79,40
2,76,79,1120
2,72,79,25
2,72,79,25
2,76,79,25
2,76,79,135
2,72,79,25
2,72,79,25
2,76,79,25
2,76,95,1095
2,72,95,25
2,72,79,25
2,76,95,40
2,72,95,0
2,76,79,1080
2,72,79,25
2,72,79,25
2,76,79,25
2,76,79,135
2,72,79,25
2,72,79,25
2,76,79,25
2,76,95,1095
2,72,95,25
2,72,95,25
2,76,95,40
2,72,95,0
2,72,79,3760
2,74,79,40
2,72,79,0
2,72,79,40
2,67,79,100
2,69,79,20
2,67,79,20
2,72,79,20
2,69,79,40
2,69,79,20
2,74,79,20
2,72,79,0
2,72,79,40
2,79,79,160
2,75,79,40
2,74,79,20
2,72,79,20
2,74,79,40
2,72,79,0
2,72,79,40
2,67,79,100
2,69,79,20
2,67,79,20
2,72,79,20
2,69,79,40
2,69,79,20
2,74,79,20
2,72,79,0
2,72,79,40
2,79,79,160
2,75,79,40
2,74,79,20
2,72,79,20
2,74,79,40
2,72,79,0
2,72,79,40
2,67,79,100
2,69,79,20
2,67,79,20
2,72,79,20
2,69,79,40
2,69,79,20
2,74,79,20
2,72,79,0
2,72,79,40
2,79,79,160
2,75,79,40
2,74,79,20
2,72,79,20
2,74,79,40
2,72,79,0
2,72,79,40
2,67,79,100
2,69,79,20
2,67,79,20
2,72,79,20
2,69,79,40
2,69,79,20
2,74,79,20
2,72,79,0
2,72,79,40
2,77,79,40
2,76,79,20
2,77,79,20
2,79,79,20
2,75,79,20
2,74,79,20
2,72,79,20
2,65,95,0
2,65,95,30
2,65,95,30
2,65,95,300
2,65,95,30
2,65,95,30
2,65,95,300
2,65,95,30
2,65,95,30
2,65,95,60
2,65,95,60
2,65,95,60
2,65,95,30
2,65,95,60
2,65,95,0
2,65,95,30
2,65,95,0
2,65,95,60
2,65,95,30
2,65,95,0
2,65,95,60
2,65,95,0
2,65,95,30
2,65,95,0
2,65,95,0
2,65,95,30
2,65,95,0
2,65,95,0
2,65,95,0
2,65,95,30
2,65,95,30
2,65,95,0
2,65,95,30
2,65,95,0
2,65,95,60
2,65,95,30
2,65,95,0
2,65,95,0
2,65,95,30
2,65,95,60
2,65,95,0
2,65,95,30
2,65,95,30
2,65,95,0
2,65,95,30
2,65,95,0
2,65,95,30
2,65,95,30
2,65,95,0
2,65,95,30
2,65,95,0
2,65,95,30
2,65,95,60
2,65,95,60
2,65,95,30
2,65,95,60
2,65,95,60
2,65,95,0
2,65,95,30
2,65,95,30
2,65,95,0
2,65,95,30
2,65,95,0
2,65,95,30
2,65,95,30
2,65,95,60
2,65,95,60
2,65,95,0
2,65,95,30
2,65,95,60
2,65,95,60
2,65,95,30
2,65,95,0
2,65,95,60
2,65,95,0
2,65,95,30
2,65,95,30
2,65,95,0
2,65,95,30
2,65,95,60
2,65,95,0
2,65,95,0
2,65,95,30
2,65,95,0
3,55,79,550
3,52,79,0
3,60,79,0
3,48,79,0
3,55,79,20
3,52,79,0
3,60,79,0
3,48,79,80
3,55,79,20
3,52,79,0
3,60,79,0
3,57,79,40
3,53,79,0
3,62,79,0
3,59,79,40
3,55,79,0
3,64,79,0
3,60,79,40
3,57,79,0
3,65,79,0
3,60,79,160
3,57,79,0
3,65,79,0
3,48,79,40
3,60,79,20
3,57,79,0
3,65,79,0
3,48,79,80
3,60,79,20
3,57,79,0
3,65,79,0
3,59,79,40
3,55,79,0
3,64,79,0
3,57,79,40
3,53,79,0
3,62,79,0
3,55,79,40
3,52,79,0
3,60,79,0
3,60,79,160
3,55,79,0
3,52,79,0
3,48,79,40
3,55,79,20
3,52,79,0
3,60,79,0
3,48,79,80
3,55,79,20
3,52,79,0
3,60,79,0
3,57,79,40
3,53,79,0
3,62,79,0
3,59,79,40
3,55,79,0
3,64,79,0
3,45,79,20
3,59,79,20
3,55,79,0
3,64,79,0
3,57,79,120
3,53,79,0
3,62,79,0
3,48,79,20
3,58,79,20
3,57,79,40
3,55,79,15
3,53,79,15
3,31,79,15
3,52,79,0
3,55,79,0
3,48,79,15
3,55,79,40
3,52,79,0
3,60,79,0
3,55,79,100
3,52,79,0
3,60,79,0
3,55,79,140
3,52,79,0
3,60,79,0
3,57,79,40
3,53,79,0
3,62,79,0
3,59,79,40
3,55,79,0
3,64,79,0
3,60,79,40
3,57,79,0
3,65,79,0
3,60,79,160
3,57,79,0
3,65,79,0
3,60,79,100
3,57,79,0
3,65,79,0
3,60,79,140
3,57,79,0
3,65,79,0
3,59,79,40
3,55,79,0
3,64,79,0
3,57,79,40
3,53,79,0
3,62,79,0
3,55,79,40
3,52,79,0
3,60,79,0
3,55,79,160
3,52,79,0
3,60,79,0
3,55,79,100
3,52,79,0
3,60,79,0
3,55,79,140
3,52,79,0
3,60,79,0
3,57,79,40
3,53,79,0
3,62,79,0
3,59,79,40
3,55,79,0
3,64,79,0
3,55,79,80
3,53,79,0
3,59,79,0
3,55,79,120
3,52,79,0
3,60,79,0
3,70,79,165
3,67,79,0
3,64,79,0
3,75,79,0
3,60,79,325
3,62,79,40
3,64,79,40
3,65,79,40
3,65,79,325
3,64,79,40
3,62,79,40
3,60,79,40
3,60,79,320
3,62,79,40
3,64,79,40
3,64,79,80
3,62,79,120
3,60,79,320
3,72,79,0
3,60,79,320
3,72,79,0
3,62,79,40
3,74,79,0
3,64,79,40
3,76,79,0
3,77,79,40
3,65,79,0
3,65,79,320
3,77,79,0
3,64,79,40
3,76,79,0
3,62,79,40
3,74,79,0
3,72,79,40
3,60,79,0
3,60,79,320
3,72,79,0
3,62,79,40
3,74,79,0
3,64,79,40
3,76,79,0
3,71,79,40
3,59,79,0
3,60,79,120
3,72,79,0
3,60,79,160
3,64,79,0
3,57,79,40
3,62,79,0
3,64,79,40
3,55,79,0
3,60,79,0
3,55,79,40
3,52,79,0
3,60,79,0
3,55,79,100
3,52,79,0
3,60,79,0
3,55,79,140
3,52,79,0
3,60,79,0
3,57,79,40
3,53,79,0
3,62,79,0
3,59,79,40
3,55,79,0
3,64,79,0
3,60,79,40
3,57,79,0
3,65,79,0
3,60,79,160
3,57,79,0
3,65,79,0
3,60,79,100
3,57,79,0
3,65,79,0
3,60,79,140
3,57,79,0
3,65,79,0
3,59,79,40
3,55,79,0
3,64,79,0
3,57,79,40
3,53,79,0
3,62,79,0
3,55,79,40
3,52,79,0
3,60,79,0
3,55,79,160
3,52,79,0
3,60,79,0
3,55,79,100
3,52,79,0
3,60,79,0
3,55,79,140
3,52,79,0
3,60,79,0
3,57,79,40
3,53,79,0
3,62,79,0
3,59,79,40
3,55,79,0
3,64,79,0
3,59,79,80
3,55,79,0
3,64,79,0
3,57,79,120
3,53,79,0
3,62,79,0
3,52,79,20
3,58,79,20
3,57,79,40
3,55,79,15
3,53,79,15
3,52,79,15
3,55,79,25
3,52,79,15
3,55,79,40
3,52,79,0
3,60,79,0
3,55,79,100
3,52,79,0
3,60,79,0
3,55,79,140
3,52,79,0
3,60,79,0
3,57,79,40
3,53,79,0
3,62,79,0
3,59,79,40
3,55,79,0
3,64,79,0
3,60,79,40
3,57,79,0
3,65,79,0
3,60,79,160
3,57,79,0
3,65,79,0
3,60,79,100
3,57,79,0
3,65,79,0
3,60,79,140
3,57,79,0
3,65,79,0
3,59,79,40
3,55,79,0
3,64,79,0
3,57,79,40
3,53,79,0
3,62,79,0
3,55,79,40
3,52,79,0
3,60,79,0
3,55,79,160
3,52,79,0
3,60,79,0
3,55,79,100
3,52,79,0
3,60,79,0
3,55,79,140
3,52,79,0
3,60,79,0
3,57,79,40
3,53,79,0
3,62,79,0
3,59,79,40
3,55,79,0
3,64,79,0
3,55,79,80
3,53,79,0
3,59,79,0
3,55,79,120
3,52,79,0
3,60,79,0
3,48,79,20
3,58,79,20
3,57,79,40
3,55,79,15
3,53,79,15
3,52,79,15
3,55,79,25
3,70,79,15
3,67,79,0
3,64,79,0
3,75,79,0
3,60,79,325
3,62,79,40
3,64,79,40
3,65,79,40
3,65,79,325
3,64,79,40
3,62,79,40
3,60,79,40
3,60,79,320
3,62,79,40
3,64,79,40
3,64,79,80
3,62,79,120
3,60,79,320
3,72,79,0
3,60,79,320
3,72,79,0
3,62,79,40
3,74,79,0
3,64,79,40
3,76,79,0
3,77,79,40
3,65,79,0
3,65,79,320
3,77,79,0
3,64,79,40
3,76,79,0
3,62,79,40
3,74,79,0
3,72,79,40
3,60,79,0
3,60,79,320
3,72,79,0
3,62,79,40
3,74,79,0
3,64,79,40
3,76,79,0
3,71,79,40
3,59,79,0
3,60,79,120
3,72,79,0
3,60,79,160
3,64,79,0
3,57,79,40
3,62,79,0
3,64,79,40
3,55,79,0
3,60,79,0
3,55,79,40
3,52,79,0
3,60,79,0
3,55,79,100
3,52,79,0
3,60,79,0
3,55,79,140
3,52,79,0
3,60,79,0
3,57,79,40
3,53,79,0
3,62,79,0
3,59,79,40
3,55,79,0
3,64,79,0
3,60,79,40
3,57,79,0
3,65,79,0
3,60,79,160
3,57,79,0
3,65,79,0
3,60,79,100
3,57,79,0
3,65,79,0
3,60,79,140
3,57,79,0
3,65,79,0
3,59,79,40
3,55,79,0
3,64,79,0
3,57,79,40
3,53,79,0
3,62,79,0
3,55,79,40
3,52,79,0
3,60,79,0
3,55,79,160
3,52,79,0
3,60,79,0
3,55,79,100
3,52,79,0
3,60,79,0
3,55,79,140
3,52,79,0
3,60,79,0
3,57,79,40
3,53,79,0
3,62,79,0
3,59,79,40
3,55,79,0
3,64,79,0
3,59,79,80
3,55,79,0
3,64,79,0
3,57,79,120
3,53,79,0
3,62,79,0
3,52,79,20
3,58,79,20
3,57,79,40
3,55,79,15
3,53,79,15
3,52,79,15
3,55,79,25
3,52,79,15
3,55,79,40
3,52,79,0
3,60,79,0
3,55,79,100
3,52,79,0
3,60,79,0
3,55,79,140
3,52,79,0
3,60,79,0
3,57,79,40
3,53,79,0
3,62,79,0
3,59,79,40
3,55,79,0
3,64,79,0
3,60,79,40
3,57,79,0
