track,note,velocity,time
1,65,127,10800
1,67,127,5
1,70,127,5
1,74,127,5
1,72,127,5
1,70,127,5
1,72,127,5
1,70,127,5
1,70,127,5
1,67,127,725
1,70,127,5
1,72,127,5
1,74,127,5
1,74,127,5
1,72,127,5
1,70,127,5
1,72,127,5
1,70,127,5
1,65,127,725
1,67,127,5
1,70,127,5
1,74,127,5
1,72,127,5
1,70,127,5
1,72,127,5
1,70,127,5
1,70,127,5
1,67,127,980
1,70,127,5
1,74,127,5
1,74,127,5
1,72,127,5
1,70,127,5
1,67,127,5
1,72,127,5
1,70,127,5
1,74,127,245
1,72,127,5
1,70,127,5
1,72,127,5
1,72,127,5
1,74,127,5
1,72,127,5
1,72,127,5
1,67,127,5
1,70,127,5
1,65,127,245
1,72,127,5
1,74,127,5
1,72,127,5
1,77,127,5
1,79,127,5
1,72,127,5
1,70,127,0
1,70,127,5
1,70,127,5
1,72,127,5
1,67,127,5
1,67,127,5
1,70,127,5
1,75,127,485
1,74,127,5
1,67,127,260
1,67,127,5
1,70,127,5
1,70,127,5
1,72,127,5
1,69,127,1445
1,65,127,5
1,74,127,5
1,72,127,5
1,70,127,5
1,72,127,5
1,70,127,5
1,70,127,5
1,67,127,725
1,70,127,5
1,72,127,5
1,74,127,5
1,74,127,5
1,72,127,5
1,70,127,5
1,72,127,5
1,70,127,5
1,65,127,725
1,67,127,5
1,70,127,5
1,74,127,5
1,72,127,5
1,70,127,5
1,72,127,5
1,70,127,5
1,70,127,5
1,67,127,980
1,70,127,5
1,74,127,5
1,74,127,5
1,72,127,5
1,70,127,5
1,67,127,5
1,72,127,5
1,70,127,5
1,74,127,245
1,72,127,5
1,70,127,5
1,72,127,5
1,72,127,5
1,74,127,5
1,72,127,5
1,72,127,5
1,67,127,5
1,70,127,5
1,65,127,245
1,72,127,5
1,74,127,5
1,72,127,5
1,77,127,5
1,79,127,5
1,72,127,5
1,70,127,0
1,70,127,5
1,70,127,5
1,72,127,5
1,67,127,5
1,67,127,5
1,70,127,5
1,75,127,485
1,74,127,5
1,67,127,260
1,67,127,5
1,70,127,5
1,70,127,5
1,72,127,5
1,65,127,28085
1,67,127,5
1,70,127,5
1,74,127,5
1,72,127,5
1,70,127,5
1,72,127,5
1,70,127,5
1,70,127,5
1,67,127,725
1,70,127,5
1,72,127,5
1,74,127,5
1,74,127,5
1,72,127,5
1,70,127,5
1,72,127,5
1,70,127,5
1,65,127,725
1,67,127,5
1,70,127,5
1,74,127,5
1,72,127,5
1,70,127,5
1,72,127,5
1,70,127,5
1,70,127,5
1,67,127,980
1,70,127,5
1,74,127,5
1,74,127,5
1,72,127,5
1,70,127,5
1,67,127,5
1,72,127,5
1,70,127,5
1,74,127,245
1,72,127,5
1,70,127,5
1,72,127,5
1,72,127,5
1,74,127,5
1,72,127,5
1,72,127,5
1,67,127,5
1,70,127,5
1,65,127,245
1,72,127,5
1,74,127,5
1,72,127,5
1,77,127,5
1,79,127,5
1,72,127,5
1,72,127,240
1,70,127,0
1,67,127,485
1,70,127,5
1,74,127,5
1,74,127,5
1,67,127,5
1,70,127,5
1,70,127,5
1,75,127,965
1,74,127,5
1,67,127,260
1,67,127,5
1,70,127,5
1,70,127,5
1,70,127,5
1,75,127,965
1,74,127,5
1,70,127,0
1,70,127,5
1,67,127,5
1,70,127,5
1,70,127,5
1,70,127,5
1,70,127,1925
2,74,127,0
2,70,127,0
2,65,127,0
2,72,127,5
2,67,127,0
2,63,127,0
2,72,127,5
2,67,127,0
2,63,127,0
2,70,127,5
2,65,127,0
2,62,127,0
2,67,127,5
2,63,127,0
2,58,127,0
2,65,127,5
2,62,127,0
2,58,127,0
2,70,127,5
2,65,127,0
2,62,127,0
2,70,127,245
2,67,127,0
2,63,127,0
2,70,127,5
2,67,127,0
2,63,127,0
2,70,127,485
2,65,127,0
2,62,127,0
2,70,127,245
2,67,127,0
2,63,127,0
2,70,127,5
2,67,127,0
2,63,127,0
2,70,127,485
2,65,127,0
2,62,127,0
2,70,127,245
2,67,127,0
2,63,127,0
2,70,127,5
2,67,127,0
2,63,127,0
2,70,127,485
2,65,127,0
2,62,127,0
2,65,127,245
2,67,127,5
2,70,127,5
2,74,127,5
2,70,127,0
2,65,127,0
2,72,127,5
2,70,127,5
2,72,127,5
2,67,127,0
2,63,127,0
2,70,127,5
2,67,127,0
2,63,127,0
2,70,127,5
2,65,127,0
2,62,127,0
2,67,127,245
2,70,127,5
2,72,127,5
2,74,127,5
2,70,127,0
2,65,127,0
2,74,127,5
2,70,127,0
2,65,127,0
2,72,127,5
2,67,127,0
2,63,127,0
2,70,127,5
2,72,127,5
2,70,127,5
2,65,127,0
2,62,127,0
2,65,127,245
2,67,127,5
2,70,127,5
2,74,127,5
2,70,127,0
2,65,127,0
2,72,127,5
2,70,127,5
2,72,127,5
2,67,127,0
2,63,127,0
2,70,127,5
2,67,127,0
2,63,127,0
2,70,127,5
2,65,127,0
2,62,127,0
2,62,127,0
2,67,127,500
2,70,127,5
2,74,127,5
2,70,127,0
2,65,127,0
2,74,127,5
2,70,127,0
2,65,127,0
2,72,127,5
2,67,127,0
2,63,127,0
2,70,127,5
2,67,127,5
2,72,127,5
2,65,127,0
2,62,127,0
2,70,127,5
2,74,127,245
2,72,127,5
2,70,127,5
2,72,127,5
2,69,127,0
2,65,127,0
2,72,127,5
2,69,127,0
2,65,127,0
2,74,127,5
2,69,127,0
2,65,127,0
2,72,127,5
2,69,127,0
2,65,127,0
2,72,127,5
2,63,127,0
2,67,127,5
2,70,127,5
2,65,127,5
2,72,127,245
2,69,127,0
2,65,127,0
2,74,127,5
2,72,127,5
2,77,127,5
2,72,127,0
2,69,127,0
2,79,127,5
2,72,127,0
2,69,127,0
2,63,127,5
2,72,127,0
2,67,127,0
2,63,127,0
2,70,127,0
2,67,127,0
2,63,127,0
2,70,127,5
2,67,127,0
2,63,127,0
2,70,127,5
2,67,127,0
2,63,127,0
2,72,127,5
2,67,127,5
2,67,127,5
2,62,127,0
2,70,127,5
2,75,127,485
2,70,127,0
2,67,127,0
2,65,85,230
2,74,127,5
2,70,127,0
2,67,127,250
2,67,127,5
2,70,127,5
2,67,127,0
2,63,127,0
2,70,127,5
2,67,127,0
2,63,127,0
2,72,127,5
2,63,127,0
2,68,127,0
2,69,127,5
2,63,127,0
2,60,127,0
2,69,127,5
2,65,127,5
2,74,127,5
2,70,127,0
2,65,127,0
2,72,127,5
2,70,127,5
2,72,127,5
2,67,127,0
2,63,127,0
2,70,127,5
2,67,127,0
2,63,127,0
2,70,127,5
2,65,127,0
2,62,127,0
2,67,127,245
2,70,127,5
2,72,127,5
2,74,127,5
2,70,127,0
2,65,127,0
2,74,127,5
2,70,127,0
2,65,127,0
2,72,127,5
2,67,127,0
2,63,127,0
2,70,127,5
2,72,127,5
2,70,127,5
2,65,127,0
2,62,127,0
2,65,127,245
2,67,127,5
2,70,127,5
2,74,127,5
2,70,127,0
2,65,127,0
2,72,127,5
2,70,127,5
2,72,127,5
2,67,127,0
2,63,127,0
2,70,127,5
2,67,127,0
2,63,127,0
2,70,127,5
2,65,127,0
2,62,127,0
2,62,127,0
2,67,127,500
2,70,127,5
2,74,127,5
2,70,127,0
2,65,127,0
2,74,127,5
2,70,127,0
2,65,127,0
2,72,127,5
2,67,127,0
2,63,127,0
2,70,127,5
2,67,127,5
2,72,127,5
2,65,127,0
2,62,127,0
2,70,127,5
2,74,127,245
2,72,127,5
2,70,127,5
2,72,127,5
2,69,127,0
2,65,127,0
2,72,127,5
2,69,127,0
2,65,127,0
2,74,127,5
2,69,127,0
2,65,127,0
2,72,127,5
2,69,127,0
2,65,127,0
2,72,127,5
2,63,127,0
2,67,127,5
2,70,127,5
2,65,127,5
2,72,127,245
2,69,127,0
2,65,127,0
2,74,127,5
2,72,127,5
2,77,127,5
2,72,127,0
2,69,127,0
2,79,127,5
2,72,127,0
2,69,127,0
2,63,127,5
2,72,127,0
2,67,127,0
2,63,127,0
2,70,127,0
2,67,127,0
2,63,127,0
2,70,127,5
2,67,127,0
2,63,127,0
2,70,127,5
2,67,127,0
2,63,127,0
2,72,127,5
2,67,127,5
2,67,127,5
2,62,127,0
2,70,127,5
2,75,127,485
2,70,127,0
2,67,127,0
2,65,85,230
2,74,127,5
2,70,127,0
2,67,127,250
2,67,127,5
2,70,127,5
2,67,127,0
2,63,127,0
2,70,127,5
2,67,127,0
2,63,127,0
2,72,127,5
2,63,127,0
2,68,127,0
2,69,127,5
2,63,127,0
2,60,127,0
2,69,127,5
2,65,127,5
2,74,127,5
2,70,127,0
2,65,127,0
2,72,127,5
2,70,127,5
2,72,127,5
2,67,127,0
2,63,127,0
2,70,127,5
2,67,127,0
2,63,127,0
2,70,127,5
2,65,127,0
2,62,127,0
2,67,127,245
2,70,127,5
2,72,127,5
2,74,127,5
2,70,127,0
2,65,127,0
2,74,127,5
2,70,127,0
2,65,127,0
2,72,127,5
2,67,127,0
2,63,127,0
2,70,127,5
2,72,127,5
2,70,127,5
2,65,127,0
2,62,127,0
2,65,127,245
2,67,127,5
2,70,127,5
2,74,127,5
2,70,127,0
2,65,127,0
2,72,127,5
2,70,127,5
2,72,127,5
2,67,127,0
2,63,127,0
2,70,127,5
2,67,127,0
2,63,127,0
2,70,127,5
2,65,127,0
2,62,127,0
2,62,127,0
2,67,127,500
2,70,127,5
2,74,127,5
2,70,127,0
2,65,127,0
2,74,127,5
2,70,127,0
2,65,127,0
2,72,127,5
2,67,127,0
2,63,127,0
2,70,127,5
2,67,127,5
2,72,127,5
2,65,127,0
2,62,127,0
2,70,127,5
2,74,127,245
2,72,127,5
2,70,127,5
2,72,127,5
2,69,127,0
2,65,127,0
2,72,127,5
2,69,127,0
2,65,127,0
2,74,127,5
2,69,127,0
2,65,127,0
2,72,127,5
2,69,127,0
2,65,127,0
2,72,127,5
2,63,127,0
2,67,127,5
2,70,127,5
2,65,127,5
2,72,127,245
2,69,127,0
2,65,127,0
2,74,127,5
2,72,127,5
2,77,127,5
2,72,127,0
2,69,127,0
2,79,127,5
2,72,127,0
2,69,127,0
2,63,127,5
2,72,127,0
2,67,127,0
2,63,127,0
2,70,127,0
2,67,127,0
2,63,127,0
2,70,127,5
2,67,127,0
2,63,127,0
2,70,127,5
2,67,127,0
2,63,127,0
2,72,127,5
2,67,127,5
2,67,127,5
2,62,127,0
2,70,127,5
2,70,127,245
2,67,127,0
2,63,127,0
2,70,127,5
2,67,127,0
2,63,127,0
2,70,127,480
2,65,127,0
2,62,127,0
2,65,127,245
2,67,127,5
2,70,127,5
2,74,127,5
2,70,127,0
2,65,127,0
2,72,127,5
2,70,127,5
2,72,127,5
2,67,127,0
2,63,127,0
2,70,127,5
2,67,127,0
2,63,127,0
2,70,127,5
2,65,127,0
2,62,127,0
2,67,127,245
2,70,127,5
2,72,127,5
2,74,127,5
2,70,127,0
2,65,127,0
2,74,127,5
2,70,127,0
2,65,127,0
2,72,127,5
2,67,127,0
2,63,127,0
2,70,127,5
2,72,127,5
2,70,127,5
2,65,127,0
2,62,127,0
2,65,127,245
2,67,127,5
2,70,127,5
2,74,127,5
2,70,127,0
2,65,127,0
2,72,127,5
2,70,127,5
2,72,127,5
2,67,127,0
2,63,127,0
2,70,127,5
2,67,127,0
2,63,127,0
2,70,127,5
2,65,127,0
2,62,127,0
2,62,127,0
2,67,127,500
2,70,127,5
2,74,127,5
2,70,127,0
2,65,127,0
2,74,127,5
2,70,127,0
2,65,127,0
2,72,127,5
2,67,127,0
2,63,127,0
2,70,127,5
2,67,127,5
2,72,127,5
2,65,127,0
2,62,127,0
2,70,127,5
2,74,127,245
2,72,127,5
2,70,127,5
2,72,127,5
2,69,127,0
2,65,127,0
2,72,127,5
2,69,127,0
2,65,127,0
2,74,127,5
2,69,127,0
2,65,127,0
2,72,127,5
2,69,127,0
2,65,127,0
2,72,127,5
2,63,127,0
2,67,127,5
2,70,127,5
2,65,127,5
2,72,127,245
2,69,127,0
2,65,127,0
2,74,127,5
2,72,127,5
2,77,127,5
2,72,127,0
2,69,127,0
2,79,127,5
2,72,127,0
2,69,127,0
2,72,85,470
2,67,127,5
2,63,127,0
2,70,127,10
2,67,127,5
2,63,127,0
2,58,127,0
2,67,127,5
2,70,127,5
2,74,127,5
2,67,127,0
2,63,127,0
2,74,127,5
2,67,127,5
2,62,85,230
2,70,127,5
2,65,127,0
2,75,127,485
2,70,127,0
2,67,127,0
2,65,127,5
2,74,127,0
2,70,127,0
2,65,127,0
2,67,127,245
2,67,127,5
2,70,127,5
2,67,127,0
2,63,127,0
2,70,127,5
2,67,127,0
2,63,127,0
2,70,127,5
2,65,127,0
2,62,127,0
2,75,127,485
2,70,127,0
2,67,127,0
2,65,127,5
2,74,127,0
2,70,127,0
2,65,127,0
2,70,127,0
2,70,127,5
2,67,127,5
2,70,127,5
2,67,127,0
2,63,127,0
2,70,127,5
2,77,127,5
2,74,127,0
2,70,127,0
2,75,127,5
2,70,127,0
2,67,127,0
2,75,127,5
2,70,127,0
2,67,127,0
2,74,127,5
2,70,127,0
2,65,127,0
2,75,127,5
2,70,127,0
2,67,127,0
2,75,127,5
2,70,127,0
2,67,127,0
2,77,127,5
2,74,127,0
2,70,127,0
2,75,96,20
2,70,96,0
2,67,96,0
2,75,88,5
2,70,88,0
2,67,88,0
2,74,72,5
2,70,72,0
2,65,72,0
2,75,32,5
2,70,32,0
2,67,32,0
2,75,24,5
2,70,24,0
2,67,24,0
2,77,8,5
2,74,8,0
2,70,8,0
3,34,127,0
3,39,127,5
3,39,127,5
3,34,127,5
3,39,127,5
3,34,127,5
3,38,127,5
3,41,127,5
3,39,127,5
3,39,127,5
3,43,127,5
3,46,127,5
3,34,127,5
3,38,127,5
3,41,127,5
3,39,127,5
3,39,127,5
3,43,127,5
3,46,127,5
3,34,127,5
3,38,127,5
3,41,127,5
3,39,127,5
3,39,127,5
3,43,127,5
3,46,127,5
3,34,127,5
3,38,127,5
3,41,127,5
3,39,127,5
3,39,127,5
3,43,127,5
3,46,127,5
3,34,127,5
3,38,127,5
3,41,127,5
3,39,127,5
3,39,127,5
3,34,127,5
3,38,127,5
3,41,127,5
3,39,127,5
3,39,127,5
3,43,127,5
3,46,127,5
3,34,127,5
3,38,127,5
3,41,127,5
3,39,127,5
3,39,127,5
3,34,127,5
3,38,127,5
3,41,127,5
3,39,127,5
3,39,127,5
3,43,127,5
3,46,127,5
3,34,127,5
3,38,127,5
3,41,127,5
3,39,127,5
3,39,127,5
3,34,127,5
3,38,127,5
3,41,127,5
3,39,127,5
3,39,127,5
3,43,127,5
3,46,127,5
3,34,127,5
3,38,127,5
3,41,127,5
3,39,127,5
3,39,127,5
3,34,127,5
3,38,127,5
3,41,127,5
3,34,127,5
3,34,127,5
3,36,127,5
3,37,127,5
3,38,127,5
3,45,127,5
3,38,127,5
3,38,127,5
3,39,127,5
3,34,127,5
3,39,127,5
3,39,127,5
3,41,127,5
3,36,127,5
3,36,127,5
3,36,127,0
3,36,127,5
3,34,127,5
3,38,127,5
3,41,127,5
3,39,127,5
3,39,127,5
3,34,127,5
3,38,127,5
3,41,127,5
3,39,127,5
3,39,127,5
3,43,127,5
3,44,127,5
3,39,127,0
3,44,127,5
3,39,127,5
3,41,127,5
3,41,127,5
3,41,127,5
3,41,127,5
3,45,127,5
3,41,127,5
3,34,127,5
3,38,127,5
3,41,127,5
3,39,127,5
3,39,127,5
3,34,127,5
3,38,127,5
3,41,127,5
3,39,127,5
3,39,127,5
3,43,127,5
3,46,127,5
3,34,127,5
3,38,127,5
3,41,127,5
3,39,127,5
3,39,127,5
3,34,127,5
3,38,127,5
3,41,127,5
3,39,127,5
3,39,127,5
3,43,127,5
3,46,127,5
3,34,127,5
3,38,127,5
3,41,127,5
3,39,127,5
3,39,127,5
3,34,127,5
3,38,127,5
3,41,127,5
3,39,127,5
3,39,127,5
3,43,127,5
3,46,127,5
3,34,127,5
