track,note,velocity,time
1,60,123,9600
1,59,123,384
1,60,123,6
1,59,123,144
1,57,123,236
1,60,123,8
1,59,123,624
1,60,123,362
1,59,123,384
1,60,123,0
1,59,123,12
1,57,123,240
1,61,123,6
1,64,123,240
1,61,123,286
1,59,123,220
1,57,123,238
1,62,123,358
1,60,123,8
1,62,123,4
1,60,123,12
1,57,123,240
1,62,123,0
1,60,123,240
1,57,123,4
1,60,123,240
1,55,123,4
1,57,123,240
1,60,123,12
1,62,123,96
1,63,123,32
1,62,123,384
1,62,123,10
1,60,123,536
1,59,123,394
1,60,123,204
1,59,123,124
1,57,123,2
1,60,123,148
1,59,123,0
1,60,123,252
1,59,123,398
1,60,123,214
1,59,123,126
1,57,123,234
1,61,123,0
1,64,123,2
1,61,123,274
1,59,123,236
1,57,123,10
1,62,123,344
1,60,123,0
1,62,123,16
1,60,123,142
1,57,123,0
1,62,123,132
1,60,123,232
1,57,123,2
1,60,123,0
1,55,123,138
1,57,123,2
1,60,123,260
1,62,123,98
1,63,123,62
1,62,123,378
1,60,123,352
1,69,127,1152
1,69,127,40
1,66,127,144
1,69,127,24
1,66,127,22
1,64,127,144
1,61,127,10
1,61,127,80
1,64,127,96
1,61,127,42
1,59,127,240
1,69,127,312
1,69,127,66
1,66,127,8
1,69,127,16
1,66,127,240
1,64,127,32
1,69,127,660
1,69,127,48
1,66,127,24
1,69,127,24
1,66,127,30
1,64,127,16
1,61,127,240
1,61,127,70
1,64,127,96
1,61,127,56
1,59,127,240
1,69,127,316
1,66,127,28
1,71,127,14
1,69,127,0
1,66,127,340
1,68,127,12
1,69,127,768
1,67,127,0
1,60,125,456
1,59,125,384
1,60,125,220
1,59,125,8
1,57,125,240
1,60,125,8
1,59,125,624
1,60,125,412
1,59,125,384
1,60,125,2
1,59,125,12
1,57,125,8
1,61,125,0
1,64,125,18
1,61,125,4
1,59,125,0
1,57,125,240
1,62,125,410
1,60,125,384
1,62,125,238
1,60,125,16
1,57,125,4
1,62,125,6
1,60,125,240
1,57,125,18
1,60,125,0
1,55,125,912
1,57,125,222
1,60,125,10
1,62,125,96
1,63,125,26
1,62,125,384
1,60,125,380
1,69,127,12812
1,69,127,40
1,66,127,144
1,69,127,24
1,66,127,22
1,64,127,144
1,61,127,10
1,61,127,80
1,64,127,96
1,61,127,42
1,59,127,240
1,69,127,312
1,69,127,66
1,66,127,8
1,69,127,16
1,66,127,240
1,64,127,32
1,69,127,660
1,69,127,48
1,66,127,24
1,69,127,24
1,66,127,30
1,64,127,16
1,61,127,240
1,61,127,70
1,64,127,96
1,61,127,56
1,59,127,240
1,69,127,316
1,66,127,28
1,71,127,14
1,69,127,0
1,66,127,340
1,68,127,12
1,69,127,768
1,67,127,0
1,60,125,456
1,59,125,384
1,60,125,4
1,59,125,6
1,57,125,2
1,60,125,144
1,59,125,2
1,60,125,386
1,59,125,384
1,60,125,2
1,59,125,6
1,57,125,240
1,61,125,124
1,64,125,8
1,61,125,288
1,59,125,20
1,57,125,240
1,62,125,408
1,60,125,384
1,62,125,226
1,60,125,10
1,57,125,0
1,62,125,144
1,60,125,238
1,57,125,18
1,60,125,240
1,55,125,910
1,57,125,10
1,60,125,240
1,62,125,4
1,63,125,30
1,62,125,384
1,60,125,4
1,59,125,372
1,60,125,4
1,59,125,6
1,57,125,2
1,60,125,144
1,59,125,2
1,60,125,386
1,59,125,384
1,60,125,2
1,59,125,6
1,57,125,240
1,61,125,124
1,64,125,8
1,61,125,288
1,59,125,20
1,57,125,240
1,62,125,408
1,60,125,384
1,62,125,226
1,60,125,10
1,57,125,0
1,62,125,144
1,60,125,238
1,57,125,18
1,60,125,240
1,55,125,910
1,57,125,10
1,60,125,240
1,62,125,4
1,63,125,30
1,62,125,384
1,60,125,4
1,59,125,372
1,60,125,4
1,59,125,6
1,57,125,2
1,60,125,144
1,59,125,2
1,60,125,386
1,59,125,384
1,60,125,2
1,59,125,6
1,57,125,240
1,61,125,124
1,64,125,8
1,61,125,288
1,59,125,20
1,57,125,240
1,62,125,408
1,60,125,384
1,62,125,226
1,60,125,10
1,57,125,0
1,62,125,144
1,60,125,238
1,57,125,18
1,60,125,240
1,55,125,910
1,57,125,10
1,60,125,240
1,62,125,4
1,63,125,30
1,62,125,384
1,60,125,4
2,43,87,1920
2,59,100,0
2,55,100,256
2,45,100,2
2,60,100,0
2,55,100,64
2,62,110,128
2,47,104,0
2,55,100,64
2,48,87,128
2,64,94,0
2,67,95,238
2,60,87,96
2,48,110,0
2,54,99,384
2,69,89,0
2,63,87,4
2,54,99,0
2,44,100,30
2,68,87,256
2,65,94,0
2,44,94,0
2,59,92,160
2,43,85,0
2,64,99,0
2,67,84,64
2,43,87,0
2,59,87,0
2,60,84,0
2,57,94,64
2,48,95,30
2,60,114,0
2,48,104,78
2,42,100,384
2,69,110,0
2,63,87,6
2,42,87,0
2,44,100,0
2,68,104,34
2,44,87,0
2,65,99,0
2,59,95,24
2,43,89,40
2,64,99,0
2,67,82,160
2,43,95,0
2,59,99,0
2,57,99,26
2,48,95,26
2,60,110,0
2,48,99,150
2,69,104,384
2,54,87,0
2,63,104,0
2,54,87,128
2,44,104,8
2,68,104,256
2,65,95,14
2,59,95,28
2,64,99,64
2,43,95,0
2,67,82,22
2,60,87,68
2,43,85,0
2,59,94,0
2,57,99,32
2,48,104,2
2,60,100,0
2,48,83,30
2,47,100,24
2,46,100,58
2,64,80,78
2,45,95,0
2,61,82,128
2,57,78,128
2,69,79,128
2,61,79,64
2,69,76,52
2,45,99,54
2,64,80,0
2,69,69,38
2,61,78,74
2,69,65,24
2,57,74,112
2,69,71,58
2,41,87,0
2,65,65,0
2,53,79,106
2,57,79,128
2,65,79,32
2,60,80,128
2,65,66,52
2,41,95,24
2,53,71,0
2,65,68,56
2,53,73,42
2,65,65,20
2,65,70,66
2,41,92,50
2,56,79,0
2,65,68,0
2,53,78,128
2,65,72,50
2,53,74,52
2,65,69,44
2,41,95,22
2,56,81,0
2,65,72,62
2,60,84,128
2,65,67,44
2,56,84,54
2,65,72,52
2,48,104,2
2,60,82,114
2,64,78,128
2,60,79,42
2,72,80,256
2,56,87,68
2,44,104,0
2,60,75,226
2,56,75,60
2,63,75,256
2,55,75,14
2,43,95,0
2,62,70,354
2,64,76,128
2,67,74,112
2,43,87,20
2,55,74,0
2,62,71,0
2,64,72,90
2,67,70,116
2,62,66,92
2,64,69,86
2,67,80,116
2,60,61,24
2,67,63,126
2,60,62,92
2,72,59,128
2,67,3,82
2,60,61,0
2,66,62,72
2,63,58,0
2,59,63,118
2,63,62,12
2,66,65,128
2,69,62,128
2,59,53,10
2,66,54,128
2,68,74,14
2,63,60,0
2,60,60,128
2,63,69,26
2,68,62,128
2,60,58,94
2,59,61,34
2,67,67,0
2,62,67,28
2,67,58,60
2,59,59,128
2,62,65,36
2,67,59,128
2,65,53,24
2,60,79,42
2,64,69,108
2,67,53,128
2,72,61,128
2,60,60,80
2,67,54,2
2,71,72,0
2,59,60,92
2,64,58,36
2,70,72,78
2,58,59,128
2,70,51,66
2,64,79,12
2,61,61,0
2,57,59,74
2,61,72,16
2,64,65,128
2,57,60,94
2,62,64,128
2,64,58,86
2,57,59,122
2,69,61,128
2,57,60,90
2,64,51,64
2,57,51,72
2,53,55,0
2,57,57,126
2,65,63,128
2,60,58,128
2,65,57,22
2,60,65,92
2,69,64,128
2,60,59,62
2,72,59,128
2,60,60,22
2,72,59,26
2,65,60,0
2,60,62,86
2,68,75,62
2,53,60,68
2,65,69,38
2,56,67,120
2,68,74,128
2,60,65,128
2,72,74,128
2,60,60,48
2,77,69,128
2,60,58,94
2,60,60,16
2,64,40,96
2,67,51,2
2,72,57,0
2,68,79,12
2,67,79,332
2,64,45,150
2,67,58,0
2,72,65,0
2,60,63,0
2,68,72,16
2,71,63,0
2,57,64,106
2,61,69,128
2,64,64,128
2,57,65,86
2,69,67,128
2,57,61,104
2,66,74,74
2,57,38,106
2,61,63,116
2,66,67,80
2,57,58,102
2,62,75,6
2,59,62,128
2,62,63,102
2,66,60,118
2,59,63,54
2,62,59,112
2,66,59,82
2,59,69,118
2,64,65,96
2,68,74,128
2,59,63,116
2,59,57,50
2,61,69,48
2,64,59,116
2,57,72,42
2,64,46,44
2,61,62,0
2,69,65,128
2,57,59,78
2,66,67,46
2,57,61,90
2,61,74,88
2,66,72,84
2,57,60,102
2,62,67,66
2,59,60,120
2,66,59,40
2,66,55,62
2,69,61,128
2,71,61,0
2,59,60,88
2,68,61,74
2,64,58,0
2,59,60,90
2,59,59,56
2,71,65,40
2,69,62,0
2,68,69,0
2,59,61,104
2,64,72,62
2,61,62,118
2,57,64,128
2,61,65,74
2,64,67,96
2,57,60,122
2,66,67,68
2,57,59,110
2,61,61,68
2,66,67,82
2,57,62,110
2,61,50,2
2,66,64,32
2,59,54,160
2,62,53,128
2,66,61,118
2,69,52,128
2,59,59,14
2,64,59,70
2,68,75,80
2,59,61,128
2,64,59,72
2,68,75,110
2,59,60,98
2,61,84,56
2,57,74,108
2,61,79,66
2,64,75,128
2,57,59,94
2,61,61,94
2,66,67,126
2,57,56,120
2,61,59,112
2,66,59,94
2,57,53,88
2,61,49,72
2,60,61,426
2,63,60,0
2,56,54,0
2,60,58,172
2,63,58,0
2,56,49,0
2,59,62,14
2,55,58,0
2,62,61,0
2,60,61,118
2,67,63,128
2,60,62,92
2,72,59,128
2,67,3,82
2,60,61,0
2,66,62,72
2,63,58,0
2,59,63,118
2,63,62,12
2,66,65,128
2,69,62,128
2,59,53,10
2,66,54,128
2,68,74,14
2,63,60,0
2,60,60,128
2,63,69,26
2,68,62,128
2,60,58,94
2,59,61,34
2,67,67,0
2,62,67,28
2,67,58,60
2,59,59,128
2,62,65,36
2,67,59,128
2,65,53,24
2,60,79,42
2,64,69,108
2,67,53,128
2,72,61,128
2,60,60,80
2,67,54,2
2,71,72,0
2,59,60,92
2,64,58,36
2,70,72,78
2,58,59,128
2,70,51,66
2,64,79,12
2,61,61,0
2,57,59,74
2,61,72,16
2,64,65,128
2,57,60,94
2,62,64,128
2,64,58,86
2,57,59,122
2,69,61,128
2,57,60,90
2,64,51,64
2,57,51,72
2,53,55,0
2,57,57,126
2,65,63,128
2,60,58,128
2,65,57,22
2,60,65,92
2,69,64,128
2,60,59,62
2,72,59,128
2,60,60,22
2,72,59,26
2,65,60,0
2,60,62,86
2,68,75,62
2,53,60,68
2,65,69,38
2,56,67,120
2,68,74,128
2,60,65,128
2,72,74,128
2,60,60,48
2,77,69,128
2,60,58,94
2,60,60,16
2,64,40,96
2,67,51,2
2,72,57,0
2,68,79,12
2,67,79,332
2,60,48,54
2,64,59,46
2,72,69,48
2,60,61,714
2,67,63,128
2,60,62,92
2,72,59,128
2,67,30,82
2,60,61,0
2,66,62,72
2,63,58,0
2,59,63,118
2,63,62,12
2,66,65,128
2,69,62,128
2,59,53,10
2,66,54,128
2,68,74,14
2,63,60,0
2,60,60,128
2,63,69,26
2,68,62,128
2,60,58,94
2,59,61,34
2,67,67,0
2,62,67,28
2,67,58,60
2,59,59,128
2,62,65,36
2,67,59,128
2,65,53,24
2,60,79,42
2,64,69,108
2,67,53,128
2,72,61,128
2,60,60,80
2,67,54,2
2,71,72,0
2,59,60,92
2,64,58,36
2,70,72,78
2,58,59,128
2,70,51,66
2,64,79,12
2,61,61,0
2,57,59,74
2,61,72,16
2,64,65,128
2,57,60,94
2,62,64,128
2,64,58,86
2,57,59,122
2,69,61,128
2,57,60,90
2,64,51,64
2,57,51,72
2,53,55,0
2,57,57,126
2,65,63,128
2,60,58,128
2,65,57,22
2,60,65,92
2,69,64,128
2,60,59,62
2,72,59,128
2,60,60,22
2,72,59,26
2,65,60,0
2,60,62,86
2,68,75,62
2,53,60,68
2,65,69,38
2,56,67,120
2,68,74,128
2,60,65,128
2,72,74,128
2,60,60,48
2,77,69,128
2,60,58,94
2,60,60,16
2,64,40,96
2,67,51,2
2,72,57,0
2,68,79,12
2,67,79,332
2,64,45,150
2,67,58,0
2,72,65,0
2,60,63,0
2,68,72,16
2,71,63,0
2,57,64,106
2,61,69,128
2,64,64,128
2,57,65,86
2,69,67,128
2,57,61,104
2,66,74,74
2,57,38,106
2,61,63,116
2,66,67,80
2,57,58,102
2,62,75,6
2,59,62,128
2,62,63,102
2,66,60,118
2,59,63,54
2,62,59,112
2,66,59,82
2,59,69,118
2,64,65,96
2,68,74,128
2,59,63,116
2,59,57,50
2,61,69,48
2,64,59,116
2,57,72,42
2,64,46,44
2,61,62,0
2,69,65,128
2,57,59,78
2,66,67,46
2,57,61,90
2,61,74,88
2,66,72,84
2,57,60,102
2,62,67,66
2,59,60,120
2,66,59,40
2,66,55,62
2,69,61,128
2,71,61,0
2,59,60,88
2,68,61,74
2,64,58,0
2,59,60,90
2,59,59,56
2,71,65,40
2,69,62,0
2,68,69,0
2,59,61,104
2,64,72,62
2,61,62,118
2,57,64,128
2,61,65,74
2,64,67,96
2,57,60,122
2,66,67,68
2,57,59,110
2,61,61,68
2,66,67,82
2,57,62,110
2,61,50,2
2,66,64,32
2,59,54,160
2,62,53,128
2,66,61,118
2,69,52,128
2,59,59,14
2,64,59,70
2,68,75,80
2,59,61,128
2,64,59,72
2,68,75,110
2,59,60,98
2,61,84,56
2,57,74,108
2,61,79,66
2,64,75,128
2,57,59,94
2,61,61,94
2,66,67,126
2,57,56,120
2,61,59,112
2,66,59,94
2,57,53,88
2,61,49,72
2,60,61,426
2,63,60,0
2,56,54,0
2,60,58,172
2,63,58,0
2,56,49,0
2,59,62,14
2,55,58,0
2,62,61,0
2,60,61,118
2,67,63,128
2,60,62,92
2,72,59,128
2,67,3,82
2,60,61,0
2,66,62,72
2,63,58,0
2,59,63,118
2,63,62,12
2,66,65,128
2,69,62,128
2,59,53,10
2,66,54,128
2,68,74,14
2,63,60,0
2,60,60,128
2,63,69,26
2,68,62,128
2,60,58,94
2,59,61,34
2,67,67,0
2,62,67,28
2,67,58,60
2,59,59,128
2,62,65,36
2,67,59,128
2,65,53,24
2,60,79,42
2,64,69,108
2,67,53,128
2,72,61,128
2,60,60,80
2,67,54,2
2,71,72,0
2,59,60,92
2,64,58,36
2,70,72,78
2,58,59,128
2,70,51,66
2,64,79,12
2,61,61,0
2,57,59,74
2,61,72,16
2,64,65,128
2,57,60,94
2,62,64,128
2,64,58,86
2,57,59,122
2,69,61,128
2,57,60,90
2,64,51,64
2,57,51,72
2,53,55,0
2,57,57,126
2,65,63,128
2,60,58,128
2,65,57,22
2,60,65,92
2,69,64,128
2,60,59,62
2,72,59,128
2,60,60,22
2,72,59,26
2,65,60,0
2,60,62,86
2,68,75,62
2,53,60,68
2,65,69,38
2,56,67,120
2,68,74,128
2,60,65,128
2,72,74,128
2,60,60,48
2,77,69,128
2,60,58,94
2,60,60,16
2,64,40,96
2,67,51,2
2,72,57,0
2,68,79,12
2,67,79,332
2,60,61,150
2,67,63,128
2,60,62,92
2,72,59,128
2,67,3,82
2,60,61,0
2,66,62,72
2,63,58,0
2,59,63,118
2,63,62,12
2,66,65,128
2,69,62,128
2,59,53,10
2,66,54,128
2,68,74,14
2,63,60,0
2,60,60,128
2,63,69,26
2,68,62,128
2,60,58,94
2,59,61,34
2,67,67,0
2,62,67,28
2,67,58,60
2,59,59,128
2,62,65,36
2,67,59,128
2,65,53,24
2,60,79,42
2,64,69,108
2,67,53,128
2,72,61,128
2,60,60,80
2,67,54,2
2,71,72,0
2,59,60,92
2,64,58,36
2,70,72,78
2,58,59,128
2,70,51,66
2,64,79,12
2,61,61,0
2,57,59,74
2,61,72,16
2,64,65,128
2,57,60,94
2,62,64,128
2,64,58,86
2,57,59,122
2,69,61,128
2,57,60,90
2,64,51,64
2,57,51,72
2,53,55,0
2,57,57,126
2,65,63,128
2,60,58,128
2,65,57,22
2,60,65,92
2,69,64,128
2,60,59,62
2,72,59,128
2,60,60,22
2,72,59,26
