track,note,velocity,time
0,36,120,1536
0,69,112,364
0,78,112,0
0,69,118,100
0,78,120,0
0,76,126,408
0,74,126,152
0,71,126,216
0,38,120,20
0,74,126,0
0,66,120,0
0,36,120,0
0,42,82,0
0,74,118,4
0,69,120,0
0,42,82,100
0,62,100,168
0,40,108,4
0,39,96,0
0,66,100,0
0,69,100,0
0,42,82,4
0,74,124,0
0,69,120,0
0,66,118,0
0,62,100,80
0,38,120,0
0,36,120,0
0,66,100,0
0,69,100,0
0,42,82,4
0,36,120,80
0,33,120,0
0,42,82,0
0,42,82,172
0,62,100,76
0,69,100,4
0,35,120,0
0,66,100,0
0,39,96,0
0,42,82,4
0,40,108,0
0,42,82,92
0,38,120,80
0,36,120,0
0,42,82,0
0,42,82,172
0,66,100,164
0,62,100,0
0,69,100,4
0,40,108,0
0,39,96,0
0,69,112,0
0,42,82,4
0,78,112,0
0,62,100,80
0,66,100,0
0,69,100,0
0,36,120,0
0,38,120,0
0,78,120,4
0,69,118,0
0,42,82,0
0,42,82,80
0,36,120,0
0,33,120,0
0,76,126,172
0,42,82,0
0,74,126,0
0,62,100,36
0,39,96,4
0,69,100,0
0,66,100,0
0,35,120,0
0,40,108,4
0,42,82,0
0,42,82,0
0,71,126,4
0,38,120,56
0,69,108,0
0,42,82,0
0,36,120,0
0,74,126,4
0,78,116,0
0,42,82,100
0,62,100,168
0,66,100,4
0,39,96,0
0,69,100,0
0,40,108,0
0,74,126,4
0,69,118,0
0,78,126,0
0,42,82,0
0,36,120,80
0,62,100,0
0,66,100,0
0,69,100,0
0,38,120,0
0,42,82,4
0,36,120,84
0,33,120,0
0,42,82,0
0,42,82,172
0,35,120,76
0,62,100,0
0,66,100,0
0,69,100,0
0,39,96,4
0,42,82,0
0,40,108,0
0,42,82,88
0,42,82,80
0,38,120,0
0,36,120,0
0,42,82,172
0,62,116,0
0,66,114,0
0,69,116,4
0,39,96,100
0,62,100,0
0,66,100,0
0,69,100,0
0,62,124,4
0,42,82,0
0,40,108,0
0,66,122,0
0,69,112,4
0,38,120,80
0,62,100,0
0,66,100,0
0,69,100,0
0,36,120,0
0,62,114,4
0,69,112,0
0,42,82,0
0,66,122,0
0,33,120,80
0,42,82,0
0,36,120,0
0,62,110,4
0,66,120,0
0,71,122,0
0,42,82,100
0,62,120,0
0,71,120,4
0,66,126,0
0,69,100,80
0,66,100,0
0,62,100,0
0,35,120,0
0,40,108,4
0,66,120,0
0,39,96,0
0,42,82,0
0,62,118,0
0,71,114,4
0,62,124,92
0,42,82,0
0,71,118,4
0,66,126,0
0,42,82,80
0,33,120,0
0,36,120,0
0,61,120,4
0,64,124,0
0,69,114,0
0,42,82,100
0,57,100,168
0,61,100,0
0,39,96,0
0,40,108,0
0,64,100,0
0,64,126,4
0,61,122,0
0,42,82,0
0,69,126,0
0,33,120,80
0,36,120,0
0,57,100,0
0,61,100,0
0,64,100,0
0,42,82,4
0,42,82,80
0,28,120,0
0,36,120,0
0,42,82,172
0,64,100,80
0,39,96,0
0,61,100,0
0,57,100,0
0,30,120,0
0,42,82,4
0,40,108,0
0,42,82,88
0,33,120,80
0,36,120,0
0,42,82,0
0,42,82,172
0,57,100,172
0,39,96,0
0,64,100,0
0,40,108,0
0,61,100,0
0,78,112,4
0,42,82,0
0,69,112,0
0,57,100,60
0,42,82,4
0,36,120,0
0,33,120,0
0,64,100,0
0,61,100,0
0,78,120,4
0,69,118,0
0,28,120,72
0,36,120,4
0,42,82,0
0,42,82,172
0,76,126,16
0,74,126,8
0,64,100,28
0,61,100,0
0,30,120,0
0,57,100,0
0,39,96,0
0,40,108,4
0,42,82,0
0,42,82,68
0,71,126,4
0,38,120,40
0,42,82,4
0,69,120,0
0,36,120,0
0,66,120,0
0,74,118,4
0,42,82,100
0,39,96,168
0,40,108,0
0,66,118,0
0,66,100,0
0,69,100,0
0,74,124,4
0,42,82,0
0,69,120,0
0,38,120,76
0,36,120,0
0,62,100,0
0,66,100,0
0,69,100,0
0,42,82,4
0,33,120,76
0,42,82,4
0,36,120,0
0,42,82,172
0,62,100,80
0,66,100,0
0,35,120,0
0,69,100,0
0,39,96,0
0,40,108,4
0,42,82,0
0,42,82,88
0,36,120,80
0,38,120,0
0,48,108,0
0,42,82,0
0,48,108,168
0,42,82,4
0,40,108,172
0,66,100,0
0,39,96,0
0,62,100,0
0,69,100,0
0,69,112,4
0,42,82,0
0,78,112,0
0,38,120,80
0,66,100,0
0,62,100,0
0,69,100,0
0,36,120,4
0,69,118,0
0,78,120,0
0,42,82,0
0,47,108,0
0,33,120,76
0,42,82,4
0,36,120,0
0,86,92,168
0,42,82,4
0,45,108,0
0,76,126,0
0,74,126,0
0,35,120,20
0,62,100,0
0,90,92,0
0,69,100,0
0,66,100,0
0,42,82,4
0,39,96,0
0,40,108,0
0,43,108,0
0,93,92,88
0,41,108,0
0,42,82,0
0,71,126,12
0,42,82,52
0,36,120,0
0,98,92,0
0,38,120,0
0,69,120,4
0,66,120,0
0,74,118,4
0,42,82,96
0,39,96,168
0,69,100,0
0,66,100,0
0,62,100,0
0,66,118,4
0,69,120,0
0,42,82,0
0,40,108,0
0,74,124,4
0,62,100,80
0,66,100,0
0,69,100,0
0,42,82,4
0,36,120,0
0,38,120,0
0,36,120,80
0,42,82,0
0,33,120,0
0,42,82,172
0,62,100,80
0,35,120,0
0,69,100,0
0,66,100,0
0,39,96,4
0,40,108,0
0,42,82,0
0,42,82,84
0,38,120,80
0,36,120,0
0,42,82,0
0,42,82,172
0,39,96,168
0,69,100,0
0,66,100,0
0,62,100,0
0,78,112,4
0,69,112,0
0,40,108,0
0,42,82,0
0,62,100,80
0,38,120,0
0,66,100,0
0,69,100,0
0,78,120,4
0,69,118,0
0,36,120,0
0,42,82,0
0,33,120,80
0,42,82,0
0,36,120,0
0,42,82,172
0,76,124,0
0,74,126,40
0,69,100,28
0,66,100,0
0,35,120,0
0,62,100,0
0,42,82,4
0,40,108,0
0,39,96,0
0,71,126,0
0,42,82,0
0,42,82,56
0,38,120,0
0,36,120,0
0,69,108,0
0,78,116,4
0,74,126,0
0,42,82,96
0,62,100,168
0,66,100,0
0,69,100,0
0,39,96,0
0,69,118,4
0,74,126,0
0,42,82,0
0,40,108,0
0,78,126,4
0,66,100,76
0,62,100,0
0,69,100,0
0,38,120,4
0,42,82,0
0,36,120,0
0,33,120,80
0,36,120,0
0,42,82,0
0,42,82,168
0,62,100,76
0,66,100,0
0,35,120,0
0,69,100,0
0,40,108,4
0,39,96,0
0,42,82,0
0,42,82,88
0,42,82,76
0,36,120,0
0,38,120,0
0,74,116,168
0,42,82,0
0,81,116,4
0,78,114,0
0,62,100,96
0,66,100,0
0,69,100,0
0,74,124,4
0,42,82,0
0,78,122,0
0,40,108,0
0,39,96,0
0,81,112,4
0,62,100,80
0,66,100,0
0,69,100,0
0,38,120,4
0,74,114,0
0,78,122,0
0,42,82,0
0,36,120,0
0,81,112,4
0,74,110,80
0,42,82,0
0,33,120,0
0,36,120,0
0,83,122,4
0,78,120,0
0,78,126,96
0,74,120,0
0,42,82,4
0,83,120,0
0,62,100,80
0,66,100,0
0,69,100,0
0,39,96,4
0,74,118,0
0,40,108,0
0,42,82,0
0,35,120,0
0,78,120,4
0,83,114,0
0,74,124,88
0,83,118,4
0,42,82,0
0,78,126,0
0,36,120,76
0,33,120,0
0,76,124,4
0,42,82,0
0,73,120,0
0,81,114,0
0,42,82,100
0,57,100,168
0,61,100,0
0,64,100,0
0,40,108,4
0,39,96,0
0,42,82,0
0,73,122,0
0,76,126,4
0,81,126,0
0,57,100,76
0,61,100,0
0,33,120,0
0,64,100,0
0,42,82,4
0,36,120,0
0,36,120,76
0,28,120,0
0,42,82,4
0,42,82,168
0,64,100,76
0,61,100,0
0,57,100,0
0,39,96,4
0,30,120,0
0,40,108,0
0,42,82,0
0,42,82,92
0,42,82,76
0,33,120,0
0,36,120,0
0,42,82,168
0,61,100,168
0,57,100,0
0,64,100,0
0,42,82,4
0,78,112,0
0,40,108,0
0,69,112,0
0,39,96,0
0,57,100,64
0,61,100,0
0,64,100,0
0,42,82,4
0,78,120,0
0,36,120,0
0,69,118,0
0,33,120,0
0,28,120,64
0,36,120,0
0,42,82,4
0,42,82,168
0,76,126,8
0,74,126,56
0,57,100,20
0,61,100,0
0,64,100,0
0,42,82,4
0,30,120,0
0,40,108,0
0,39,96,0
0,42,82,88
0,71,126,0
0,36,120,56
0,38,120,0
0,69,120,4
0,42,82,0
0,66,120,0
0,74,118,4
0,42,82,96
0,62,100,168
0,66,100,0
0,69,100,0
0,69,120,4
0,66,118,0
0,40,108,0
0,39,96,0
0,42,82,0
0,74,124,4
0,66,100,76
0,62,100,0
0,69,100,0
0,42,82,4
0,38,120,0
0,36,120,0
0,36,120,76
0,33,120,0
0,42,82,4
0,42,82,168
0,62,100,76
0,66,100,0
0,69,100,0
0,35,120,4
0,39,52,0
0,42,82,0
0,40,108,0
0,42,82,92
0,36,120,76
0,38,120,0
0,42,82,4
0,42,82,168
0,62,100,168
0,69,100,0
0,66,100,0
0,39,96,4
0,40,108,0
0,54,108,0
0,42,82,0
0,66,100,80
0,62,100,0
0,69,100,0
0,54,108,4
0,42,82,0
0,36,120,0
0,38,120,0
0,33,120,80
0,42,82,0
0,36,120,0
0,42,82,76
0,50,108,0
0,86,92,0
0,66,100,76
0,62,100,0
0,69,100,0
0,42,82,4
0,35,120,0
0,40,108,0
0,90,92,0
0,39,96,0
0,47,108,20
0,93,92,0
0,42,82,4
0,98,92,36
0,54,108,0
0,38,120,4
0,42,82,0
0,36,120,0
0,42,82,100
0,62,100,168
0,66,100,0
0,69,100,0
0,54,108,4
0,39,96,0
0,40,108,0
0,42,82,0
0,62,100,80
0,69,100,0
0,66,100,0
0,42,82,4
0,36,120,0
0,38,120,0
0,33,120,80
0,36,120,0
0,42,82,4
0,42,82,168
0,62,100,76
0,69,100,0
0,66,100,0
0,42,82,4
0,40,108,0
0,39,96,0
0,35,120,0
0,42,82,88
0,38,120,76
0,42,82,4
0,36,120,0
0,42,82,172
0,39,96,156
0,69,100,0
0,66,100,0
0,54,108,0
0,62,100,0
0,42,82,4
0,40,108,0
0,62,100,60
0,66,100,0
0,69,100,4
0,36,120,0
0,38,120,0
0,54,108,0
0,42,82,4
0,33,120,80
0,42,82,0
0,36,120,0
0,50,108,104
0,42,82,0
0,39,96,80
0,62,100,0
0,66,100,0
0,69,100,0
0,35,120,0
0,42,82,4
0,40,108,0
0,47,108,28
0,42,82,4
0,50,108,20
0,36,120,4
0,42,82,0
0,38,120,0
0,42,82,96
0,50,108,168
0,62,100,0
0,66,100,0
0,69,100,0
0,39,96,4
0,40,108,0
0,42,82,0
0,69,100,84
0,66,100,0
0,62,100,0
0,38,120,4
0,42,82,0
0,36,120,0
0,42,82,80
0,33,120,0
0,36,120,0
0,42,82,172
0,35,120,80
0,62,100,0
0,66,100,0
0,69,100,0
0,40,108,4
0,39,96,0
0,42,82,0
0,42,82,96
0,38,120,80
0,42,82,0
0,36,120,0
0,45,108,92
0,42,82,0
0,66,100,168
0,62,100,0
0,39,96,0
0,69,100,0
0,42,82,4
0,40,108,0
0,62,100,80
0,66,100,0
0,45,108,0
0,69,100,0
0,36,120,4
0,42,82,0
0,38,120,0
0,36,120,72
0,33,120,0
0,47,108,0
0,42,82,4
0,42,82,92
0,47,108,0
0,62,100,80
0,47,108,0
0,66,100,0
0,69,100,0
0,39,96,4
0,40,108,0
0,35,120,0
0,42,82,0
0,42,82,72
0,47,108,0
0,36,120,52
0,45,108,0
0,42,82,0
0,33,120,0
0,42,82,72
0,61,100,172
0,57,100,0
0,45,108,0
0,64,100,0
0,42,82,4
0,40,108,0
0,39,96,0
0,57,100,80
0,61,100,0
0,33,120,0
0,64,100,0
0,36,120,4
0,42,82,0
0,36,120,80
0,28,120,0
0,42,82,0
0,42,82,172
0,64,100,80
0,30,120,0
0,61,100,0
0,57,100,0
0,42,82,4
0,40,108,0
0,39,96,0
0,42,82,68
0,42,82,76
0,33,120,0
0,36,120,0
0,42,82,48
0,57,100,168
0,61,100,0
0,64,100,0
0,40,108,4
0,39,96,0
0,54,108,0
0,42,82,0
0,54,108,80
0,57,100,0
0,64,100,0
0,61,100,0
0,33,120,4
0,42,82,0
0,36,120,0
0,28,120,76
0,42,82,0
0,36,120,0
0,50,108,76
0,42,82,0
0,57,100,80
0,39,96,0
0,30,120,0
0,61,100,0
0,64,100,0
0,40,108,4
0,42,82,0
0,45,108,48
0,42,82,4
0,50,108,76
0,42,82,4
0,36,120,0
0,38,120,0
0,42,82,108
0,39,96,168
0,69,100,0
0,50,108,0
0,66,100,0
0,62,100,0
0,40,108,4
0,42,82,0
0,62,100,76
0,42,82,4
0,66,100,0
0,36,120,0
0,38,120,0
0,69,100,0
0,33,120,76
0,42,82,4
0,36,120,0
0,42,82,172
0,62,100,76
0,66,100,0
0,39,96,4
0,35,120,0
0,69,100,0
0,40,108,0
0,42,82,4
0,42,82,84
0,38,120,76
0,36,120,4
0,42,82,0
0,48,108,0
0,54,108,44
0,42,82,0
0,48,108,0
0,62,100,168
0,66,100,0
0,39,96,4
0,69,100,0
0,42,82,0
0,40,108,0
0,62,100,76
0,69,100,4
0,54,108,0
0,66,100,0
0,38,120,0
0,36,120,4
0,47,108,0
0,42,82,0
0,54,108,80
0,33,120,0
0,42,82,0
0,36,120,0
0,50,108,24
0,42,82,0
0,86,92,0
0,45,108,0
0,66,100,76
0,62,100,0
0,90,92,4
0,69,100,0
0,39,96,0
0,35,120,0
0,42,82,4
0,43,108,0
0,40,108,0
0,93,92,52
0,47,108,4
0,42,82,0
0,41,108,0
0,54,108,60
0,38,120,0
0,98,92,0
0,36,120,4
0,42,82,0
0,42,82,100
0,62,100,168
0,54,108,0
0,66,100,0
0,69,100,0
0,40,108,4
0,39,96,0
0,42,82,0
0,62,100,80
0,69,100,0
0,66,100,0
0,38,120,4
0,42,82,0
0,36,120,0
0,33,120,80
0,36,120,0
0,42,82,0
0,42,82,172
0,62,100,76
0,66,100,0
0,69,100,0
0,35,120,0
0,39,96,4
0,40,108,0
0,42,82,0
0,42,82,88
0,42,82,80
0,38,120,0
0,36,120,0
0,42,82,172
0,62,100,168
0,54,108,0
0,66,100,0
0,69,100,0
0,39,96,4
0,42,82,0
0,40,108,0
0,62,100,80
0,66,100,0
0,69,100,0
0,54,108,0
0,36,120,4
0,38,120,0
0,42,82,0
0,33,120,80
0,42,82,0
0,36,120,0
0,42,82,124
0,50,108,0
0,62,100,80
0,66,100,0
0,69,100,0
0,39,96,4
0,35,120,0
0,40,108,0
0,42,82,0
0,47,108,56
0,42,82,0
0,50,108,44
0,42,82,0
0,38,120,0
0,36,120,0
0,42,82,96
0,69,100,168
0,66,100,0
0,62,100,0
0,50,108,0
0,39,96,4
0,40,108,0
0,42,82,0
0,66,100,80
0,62,100,0
0,69,100,0
0,38,120,0
0,42,82,4
0,36,120,0
0,42,82,80
0,36,120,0
0,33,120,0
0,42,82,168
0,62,100,80
0,69,100,0
0,66,100,0
0,42,82,4
0,35,120,0
0,40,108,0
0,39,96,0
0,42,82,92
0,42,82,80
0,36,120,0
0,38,120,0
0,42,82,124
0,45,108,0
0,62,100,168
0,69,100,0
0,66,100,0
0,39,96,4
0,40,108,0
0,42,82,0
0,62,100,80
0,66,100,0
0,45,108,0
0,69,100,0
0,36,120,4
0,42,82,0
0,38,120,0
0,36,120,72
0,33,120,0
0,42,82,0
0,47,108,0
0,47,108,92
0,42,82,0
0,69,100,80
0,66,100,0
0,62,100,0
0,47,108,4
0,35,120,0
0,39,96,0
0,40,108,0
0,42,82,0
0,42,82,92
0,47,108,0
0,45,108,64
0,42,82,0
0,33,120,0
0,36,120,0
0,42,82,68
0,57,100,168
0,64,100,0
0,45,108,0
0,61,100,0
0,40,108,4
0,39,96,0
0,42,82,0
0,33,120,76
0,57,100,0
