track,note,velocity,time
1,66,95,2668
1,62,90,0
1,59,97,0
1,54,95,0
1,47,90,0
1,50,77,0
1,71,91,0
1,54,43,12
1,59,64,4
1,50,66,0
1,47,67,0
1,66,87,0
1,74,100,0
1,66,53,0
1,71,77,0
1,71,104,52
1,66,85,0
1,64,88,172
1,66,93,48
1,69,87,96
1,71,106,8
1,63,109,20
1,59,106,12
1,64,98,8
1,47,79,24
1,54,75,0
1,62,86,0
1,57,94,4
1,57,100,104
1,59,122,148
1,62,104,148
1,54,97,0
1,47,94,0
1,57,61,384
1,54,72,20
1,66,127,24
1,69,102,4
1,59,78,8
1,63,84,4
1,54,97,4
1,47,106,0
1,64,108,4
1,62,86,16
1,57,90,4
1,59,92,24
1,55,98,0
1,40,108,0
1,52,112,0
1,40,68,804
1,52,70,0
1,59,97,4
1,67,110,72
1,66,123,60
1,64,120,52
1,62,98,8
1,54,95,0
1,59,106,0
1,47,100,4
1,59,91,16
1,64,95,44
1,65,90,72
1,69,81,4
1,66,93,8
1,64,94,52
1,62,95,16
1,71,87,28
1,54,116,0
1,74,97,16
1,76,107,140
1,78,107,64
1,75,96,16
1,66,96,4
1,62,96,0
1,76,96,0
1,55,96,0
1,71,96,4
1,59,96,0
1,66,91,32
1,54,97,0
1,70,85,0
1,64,102,0
1,58,82,0
1,78,116,176
1,73,81,448
1,71,64,8
1,66,78,0
1,74,97,0
1,57,76,0
1,62,91,0
1,59,80,0
1,75,123,288
1,76,100,4
1,74,88,0
1,71,87,8
1,74,103,60
1,71,100,8
1,64,108,480
1,65,108,28
1,66,119,32
1,64,104,32
1,69,90,12
1,66,93,0
1,54,58,12
1,59,73,0
1,62,65,0
1,66,67,0
1,71,76,0
1,74,79,0
1,54,93,16
1,59,85,4
1,62,74,16
1,59,69,4
1,62,88,60
1,59,95,4
1,59,81,16
1,64,86,4
1,64,97,40
1,59,102,0
1,66,107,112
1,54,67,0
1,62,73,8
1,63,85,24
1,64,108,4
1,62,125,12
1,59,91,16
1,54,75,0
1,62,65,0
1,66,67,84
1,66,107,40
1,66,127,156
1,69,127,140
1,54,71,136
1,62,73,4
1,59,80,0
1,71,91,4
1,66,89,0
1,78,70,168
1,54,61,0
1,62,64,0
1,74,77,4
1,59,73,0
1,71,66,0
1,74,86,128
1,81,94,0
1,78,74,0
1,54,95,0
1,71,74,0
1,62,85,0
1,59,91,0
1,59,64,12
1,79,87,0
1,52,68,4
1,55,78,0
1,62,64,0
1,71,73,0
1,68,97,280
1,74,98,0
1,69,106,8
1,66,82,24
1,71,81,0
1,66,85,48
1,71,88,0
1,74,94,4
1,66,70,12
1,54,63,0
1,62,80,0
1,59,65,0
1,47,73,0
1,57,70,360
1,73,87,0
1,66,107,0
1,74,96,4
1,64,80,0
1,71,79,0
1,71,92,16
1,64,87,0
1,66,91,12
1,62,100,0
1,54,78,0
1,59,70,40
1,62,85,0
1,59,88,0
1,62,92,0
1,57,110,8
1,59,112,32
1,62,127,48
1,66,127,24
1,54,107,0
1,57,104,0
1,68,97,12
1,69,110,8
1,66,89,4
1,62,92,0
1,55,85,0
1,71,95,0
1,62,63,1272
1,64,94,0
1,66,119,56
1,62,91,172
1,47,90,0
1,54,84,0
1,57,95,0
1,76,114,92
1,74,85,20
1,74,108,44
1,71,78,4
1,57,68,0
1,71,84,32
1,54,74,76
1,75,86,16
1,54,99,0
1,47,108,0
1,76,98,8
1,74,100,168
1,71,102,8
1,69,100,8
1,63,96,124
1,69,102,8
1,64,114,0
1,62,102,28
1,59,108,4
1,57,90,36
1,59,78,16
1,54,81,0
1,47,97,0
1,54,71,112
1,66,97,88
1,66,84,732
1,62,88,0
1,71,87,0
1,54,97,0
1,47,73,0
1,57,66,108
1,71,95,20
1,74,95,0
1,74,87,44
1,71,90,0
1,69,80,24
1,74,85,24
1,71,80,0
1,65,94,4
1,54,84,12
1,62,87,4
1,66,87,16
1,57,47,412
1,59,110,4
1,54,101,0
1,47,108,0
1,62,104,192
1,64,91,24
1,66,110,16
1,59,100,0
1,47,84,44
1,54,93,0
1,64,83,92
1,52,85,0
1,59,86,0
1,62,64,8
1,55,66,180
1,59,80,552
1,62,87,0
1,59,76,12
1,66,127,60
1,55,98,4
1,52,84,0
1,66,107,20
1,64,88,48
1,64,117,36
1,62,95,12
1,52,44,0
1,55,59,4
1,59,88,196
1,55,83,64
1,62,127,48
1,54,79,36
1,47,88,0
1,59,79,4
1,54,79,4
1,47,94,156
1,54,97,0
1,57,94,4
1,62,79,280
1,66,77,96
1,66,104,4
1,66,119,40
1,62,87,192
1,54,46,40
1,54,99,56
1,47,90,0
1,47,91,8
1,54,95,4
1,57,102,0
1,66,127,4
1,70,99,4
1,71,120,16
1,74,107,40
1,76,107,44
1,62,102,140
1,59,110,0
1,78,97,0
1,74,102,0
1,71,98,0
1,55,95,0
1,66,71,180
1,66,116,172
1,61,87,0
1,58,78,0
1,54,89,0
1,64,80,40
1,66,99,68
1,61,101,240
1,54,97,172
1,47,100,0
1,57,60,128
1,71,104,4
1,76,100,0
1,76,79,44
1,71,84,0
1,69,78,20
1,76,46,0
1,71,90,56
1,76,87,0
1,74,73,24
1,69,66,0
1,70,110,12
1,71,108,0
1,54,110,0
1,47,112,0
1,69,95,16
1,66,127,116
1,64,100,32
1,62,80,40
1,59,85,24
1,62,127,52
1,54,95,0
1,57,64,16
1,59,83,8
1,54,67,52
1,47,76,0
1,66,58,4
1,62,70,4
1,71,72,0
1,66,65,104
1,54,77,192
1,59,83,0
1,62,80,0
1,47,86,0
1,54,67,1128
1,47,79,0
1,71,81,0
1,74,80,0
1,66,67,0
1,71,98,88
1,67,75,300
1,71,83,0
1,64,78,4
1,59,73,0
1,55,58,0
1,52,58,0
1,76,110,572
1,71,60,384
1,62,53,0
1,74,80,368
1,47,76,0
1,54,71,0
1,71,77,0
1,66,71,0
1,54,97,136
1,63,113,28
1,64,84,8
1,62,127,52
1,59,94,320
1,54,99,0
1,47,95,4
1,59,80,360
1,66,89,0
1,55,75,0
1,62,100,568
1,58,87,12
1,64,84,0
1,54,89,0
1,61,81,0
1,66,47,220
1,78,81,8
1,54,38,16
1,62,70,0
1,71,69,0
1,66,54,0
1,59,70,0
1,59,90,12
1,62,80,0
1,71,77,0
1,54,81,0
1,76,127,20
1,74,76,16
1,71,85,28
1,76,127,120
1,74,70,16
1,71,65,32
1,69,76,28
1,74,127,40
1,71,64,96
1,69,48,28
1,66,113,144
1,64,127,12
1,62,92,32
1,59,81,16
1,62,81,48
1,47,80,0
1,59,85,0
1,54,67,0
1,57,84,312
1,71,83,4
1,62,90,0
1,66,71,0
1,62,66,12
1,59,73,0
1,54,53,0
1,59,78,116
1,76,127,24
1,74,80,28
1,71,64,32
1,59,68,148
1,66,116,144
1,64,98,28
1,62,104,24
1,59,104,0
1,54,85,0
1,47,91,0
1,54,79,0
1,59,98,64
1,62,102,20
1,66,113,32
1,59,94,8
1,62,106,0
1,52,85,0
1,55,88,0
1,67,100,0
1,64,70,576
1,67,86,356
1,76,88,0
1,59,76,0
1,71,102,24
1,67,81,0
1,62,58,8
1,71,83,24
1,54,89,0
1,62,84,0
1,66,77,0
1,59,79,0
1,59,64,16
1,62,94,28
1,63,84,44
1,54,99,0
1,64,110,0
1,63,71,48
1,64,98,16
1,62,112,168
1,54,97,76
1,59,108,36
1,62,114,52
1,64,120,52
1,66,93,32
1,59,94,0
1,62,108,0
1,50,94,0
1,43,86,0
1,50,69,0
1,71,122,72
1,61,85,16
1,58,73,0
1,70,107,0
1,64,91,0
1,54,77,0
1,59,86,8
1,62,79,0
1,54,72,0
1,66,95,356
1,59,84,192
1,62,85,0
1,62,100,172
1,54,107,0
1,59,95,0
1,76,127,112
1,74,127,132
1,71,49,28
1,69,77,40
1,74,127,16
1,71,70,40
1,69,64,28
1,62,61,20
1,69,117,40
1,66,101,40
1,64,108,12
1,62,114,36
1,54,70,64
1,47,80,0
1,62,86,0
1,59,84,0
1,78,79,1164
1,74,79,0
1,54,61,0
1,59,78,0
1,62,72,0
1,62,100,32
1,54,107,0
1,59,112,0
1,74,95,0
1,71,110,0
1,62,100,32
1,59,90,80
1,75,104,60
1,76,94,0
1,54,87,28
1,59,86,0
1,62,84,0
1,74,102,0
1,70,73,28
1,54,72,0
1,59,85,0
1,62,73,0
1,71,108,0
1,69,120,12
1,66,123,56
1,59,79,348
1,66,82,44
1,69,91,16
1,64,104,16
1,59,91,0
1,55,91,0
1,52,80,0
1,62,73,88
1,71,84,44
1,76,90,0
1,64,76,0
1,55,78,0
1,52,70,0
1,59,76,0
1,75,127,36
1,76,81,0
1,74,122,56
1,64,80,24
1,59,80,0
1,52,71,0
1,55,80,0
1,71,94,104
1,74,125,84
1,75,104,44
1,59,92,0
1,62,85,0
1,54,87,0
1,76,106,8
1,74,80,56
1,54,99,164
1,59,88,0
1,71,125,40
1,66,68,8
1,64,66,96
1,62,84,4
1,64,127,48
1,59,104,188
1,62,102,0
1,54,54,48
1,54,119,12
1,59,114,56
1,62,117,0
1,64,122,88
1,59,83,124
1,66,110,0
1,62,94,0
1,55,83,0
1,71,112,52
1,58,75,40
1,54,89,0
1,61,85,0
1,73,91,4
1,66,87,0
1,66,95,76
1,70,119,56
1,70,123,40
1,54,87,12
1,47,94,0
1,62,104,0
1,59,92,0
1,54,113,640
1,47,108,0
1,71,122,80
1,70,116,0
1,69,106,32
1,66,82,36
1,66,127,136
1,64,70,36
1,62,78,32
1,59,78,20
1,63,127,0
1,54,97,0
1,47,102,0
1,64,100,8
1,59,114,32
1,62,112,0
1,54,116,40
1,47,108,0
1,59,85,56
1,62,106,0
1,54,110,120
1,59,49,68
1,63,107,0
1,64,80,24
1,59,106,48
1,62,114,0
1,54,44,156
1,54,116,204
1,47,110,0
1,76,117,20
1,75,107,0
1,74,108,24
1,54,99,16
1,59,102,0
1,62,102,0
1,54,87,340
1,83,97,0
1,62,80,0
1,59,81,0
1,74,79,384
1,54,101,748
1,83,98,0
1,62,100,0
1,59,102,0
1,76,80,100
1,59,86,0
1,62,92,0
1,52,75,0
1,55,87,0
1,79,54,0
1,52,52,732
1,55,64,0
1,59,80,0
1,62,81,4
1,78,127,24
1,76,100,36
1,74,92,100
1,71,80,80
1,76,125,24
1,52,61,132
1,62,73,0
1,59,80,0
1,55,80,0
1,74,104,0
1,54,95,12
1,62,108,0
1,59,104,0
1,66,89,0
1,71,86,0
1,54,78,272
1,59,81,0
1,62,62,4
1,78,119,68
1,74,125,0
1,74,76,40
1,78,66,0
1,71,85,24
1,76,84,0
1,62,95,40
1,54,101,0
1,74,100,0
1,78,91,0
1,59,100,0
1,76,83,20
1,71,80,0
1,74,110,8
1,71,97,0
1,66,110,300
1,71,110,0
1,54,104,0
1,59,104,0
1,66,91,16
1,59,108,0
1,62,95,0
1,55,106,0
1,71,108,0
1,78,99,368
1,59,81,0
1,62,77,4
1,55,68,0
1,70,89,340
1,78,93,0
1,58,95,0
1,54,107,0
1,61,104,0
1,70,89,276
1,54,99,0
1,61,101,0
1,58,89,0
1,64,108,0
1,66,101,0
1,66,85,12
1,71,92,0
1,54,101,0
1,62,92,0
1,59,86,148
1,75,119,36
1,76,94,8
1,74,74,28
1,71,66,96
1,71,104,48
1,69,108,0
1,66,123,4
1,54,99,0
1,59,88,0
1,59,81,76
1,64,127,56
1,64,108,44
1,62,70,20
1,59,78,16
1,62,127,36
1,59,100,196
1,54,67,188
1,47,77,4
2,34,110,2460
2,35,101,192
2,35,106,24
2,29,105,212
2,30,101,0
2,30,99,24
2,34,103,208
2,35,102,0
2,35,102,20
2,29,105,212
2,30,99,0
2,30,100,20
2,34,102,208
2,35,100,8
2,35,95,16
2,29,100,208
2,30,98,0
2,30,103,28
2,34,101,216
2,35,101,0
2,35,105,28
2,29,102,216
2,30,98,0
2,30,101,60
2,35,108,100
2,39,104,76
2,40,105,0
2,40,107,48
2,34,99,244
2,35,100,0
2,35,100,64
2,39,101,204
2,40,105,4
2,40,108,52
2,34,100,216
2,35,102,0
2,35,105,72
2,38,105,64
2,37,105,20
2,35,105,24
2,35,104,24
2,29,105,248
2,30,100,4
2,30,100,56
2,34,103,252
2,35,102,12
2,35,102,16
2,29,106,212
2,30,103,8
2,30,98,52
2,35,108,72
2,33,108,24
2,31,103,28
2,31,104,44
2,38,105,244
2,43,106,0
2,43,106,60
2,38,106,248
2,42,104,0
2,42,105,16
2,37,104,252
2,30,104,0
2,30,103,12
2,32,103,56
2,34,108,60
2,35,107,28
2,35,106,12
2,29,101,252
2,30,102,4
2,30,103,60
2,34,99,180
2,35,104,8
2,35,105,60
2,30,104,60
2,30,103,56
2,32,107,40
2,34,104,60
2,35,102,72
2,35,100,16
2,29,104,264
2,30,103,16
2,30,101,24
2,34,102,256
2,35,101,0
2,35,101,24
2,29,103,224
2,30,101,16
2,30,99,24
2,34,101,252
2,35,104,16
2,35,102,24
2,29,105,220
2,30,100,0
2,30,101,28
2,34,98,216
2,35,102,0
2,35,105,72
2,29,103,216
2,30,103,0
2,35,105,20
2,38,105,72
2,39,104,68
2,40,105,72
2,40,102,56
2,34,101,212
2,35,100,0
2,35,101,64
2,39,101,260
2,40,101,0
2,40,105,64
2,34,105,260
2,35,98,0
2,35,101,68
2,38,105,72
2,37,101,8
2,35,101,16
2,35,100,68
2,29,103,256
2,30,99,0
2,30,97,72
2,34,100,264
2,35,101,16
2,35,104,60
2,29,103,260
2,30,98,0
2,30,98,68
2,35,105,68
2,33,100,4
2,31,102,0
2,31,101,60
2,38,102,204
2,43,100,0
2,43,100,56
2,38,101,260
2,42,101,0
2,42,100,64
2,37,102,192
2,30,99,4
2,30,100,64
2,32,104,8
2,34,104,24
2,35,99,28
2,35,104,28
2,29,100,196
2,30,101,8
2,30,100,60
2,34,98,220
2,35,101,8
2,35,104,72
2,30,98,16
2,30,100,72
2,32,100,12
2,32,101,80
2,34,99,28
2,35,101,88
2,35,108,68
2,29,107,256
2,30,101,0
2,30,102,20
2,34,102,256
2,35,102,4
2,35,105,24
2,29,104,264
2,30,100,0
2,30,99,24
2,34,102,252
2,35,103,8
2,35,105,32
2,29,105,216
2,30,101,0
2,30,103,44
2,34,104,220
2,35,103,8
2,35,105,68
2,30,104,64
2,33,107,20
2,35,103,12
2,40,105,52
2,40,105,64
2,34,102,252
2,35,103,0
2,35,103,60
2,39,101,248
2,40,104,8
2,40,108,64
2,34,104,252
2,35,102,0
2,35,101,76
2,38,105,56
2,37,105,20
2,35,101,32
2,35,101,64
2,29,105,264
2,30,100,0
2,30,101,56
2,34,102,260
2,35,102,4
2,35,104,68
2,29,104,260
2,30,102,8
2,30,98,64
2,35,107,80
2,33,105,52
2,31,104,4
2,31,105,60
2,38,103,204
2,43,103,0
2,43,105,60
2,38,105,200
2,30,104,72
2,30,107,24
2,28,111,208
2,29,105,0
2,30,108,0
2,30,106,56
2,32,107,8
2,34,103,0
2,35,100,76
2,35,102,24
2,29,104,256
2,30,98,0
2,30,100,28
2,34,98,232
2,35,102,8
2,35,105,36
2,30,97,20
2,30,101,32
2,32,101,0
2,32,102,28
2,34,103,24
2,35,105,128
2,35,103,24
2,29,105,252
2,30,100,0
2,30,97,20
2,34,99,252
2,35,100,0
2,35,101,28
2,29,104,216
2,30,102,0
2,30,97,28
2,34,101,248
2,35,100,0
2,35,100,20
2,29,101,220
2,30,100,0
2,30,100,60
2,34,99,248
2,35,101,0
2,35,105,60
2,29,101,212
2,30,101,0
2,33,105,84
2,34,102,0
2,35,107,0
2,38,112,84
2,39,98,0
2,40,104,0
2,40,103,24
2,34,103,264
2,35,99,0
2,35,102,64
2,38,108,256
2,39,98,0
2,40,105,0
2,40,105,60
2,34,101,260
2,35,101,0
2,35,102,72
2,38,104,8
2,37,102,12
2,35,100,28
2,35,103,60
2,28,99,244
2,29,103,0
2,30,101,0
2,30,102,56
2,33,100,260
2,34,96,0
2,35,101,0
2,35,105,56
2,28,101,260
