track,note,velocity,time
1,58,99,3060
1,62,102,0
1,67,97,0
1,57,83,4
1,65,92,0
1,60,95,0
1,62,98,416
1,67,100,0
1,58,101,0
1,57,85,12
1,60,97,0
1,65,98,0
1,63,87,96
1,58,107,0
1,55,91,0
1,54,93,80
1,58,104,0
1,58,101,84
1,53,84,0
1,62,97,0
1,62,104,164
1,58,99,0
1,67,102,0
1,60,92,8
1,65,92,4
1,57,84,0
1,62,100,612
1,67,98,0
1,58,101,0
1,57,83,8
1,60,94,0
1,65,95,0
1,63,84,132
1,58,104,0
1,55,91,0
1,58,97,116
1,54,97,0
1,62,90,108
1,58,99,0
1,53,85,0
1,58,89,100
1,54,84,0
1,62,85,0
1,54,97,96
1,58,91,8
1,58,89,4
1,53,80,0
1,62,86,0
1,57,95,76
1,53,84,0
1,60,92,0
1,55,94,100
1,60,86,0
1,52,88,0
1,55,109,96
1,63,89,8
1,58,99,0
1,55,95,0
1,58,93,60
1,62,90,0
1,53,80,0
1,58,87,136
1,55,102,0
1,51,70,0
1,58,87,100
1,55,102,0
1,51,97,8
1,60,92,0
1,58,101,416
1,53,83,0
1,50,90,4
1,55,97,4
1,48,73,8
1,53,98,4
1,55,95,0
1,50,72,4
1,58,97,0
1,53,84,4
1,53,86,180
1,58,110,0
1,55,106,8
1,50,86,0
1,58,99,24
1,53,85,0
1,62,95,0
1,53,110,8
1,58,95,12
1,58,89,8
1,54,84,0
1,62,85,0
1,54,97,96
1,58,91,8
1,58,89,4
1,53,80,0
1,62,86,0
1,57,95,76
1,53,84,0
1,60,92,0
1,55,94,100
1,60,86,0
1,52,88,0
1,55,96,96
1,58,97,8
1,63,87,0
1,55,95,0
1,55,95,20
1,62,87,8
1,58,93,0
1,53,84,0
1,60,91,20
1,53,81,0
1,57,95,0
1,63,97,24
1,58,99,4
1,55,92,0
1,58,101,20
1,62,92,0
1,53,85,0
1,55,80,24
1,58,89,0
1,51,78,0
1,55,86,20
1,60,94,0
1,51,84,0
1,58,97,0
1,62,98,0
1,54,99,0
1,58,99,344
1,62,102,0
1,67,97,0
1,57,83,60
1,65,92,0
1,60,95,0
1,62,98,416
1,67,100,0
1,58,101,0
1,57,85,64
1,60,97,0
1,65,98,0
1,63,87,96
1,58,107,0
1,55,91,0
1,54,93,80
1,58,104,0
1,58,101,84
1,53,84,0
1,62,97,0
1,62,104,164
1,58,99,0
1,67,102,0
1,60,92,68
1,65,92,4
1,57,84,0
1,62,100,612
1,67,98,0
1,58,101,0
1,57,83,76
1,60,94,0
1,65,95,0
1,63,84,132
1,58,104,0
1,55,91,0
1,58,97,116
1,54,97,0
1,58,99,108
1,62,90,0
1,53,85,0
1,53,92,36
1,58,89,96
1,58,89,8
1,54,84,0
1,62,85,0
1,54,97,96
1,58,91,8
1,58,89,8
1,53,80,0
1,62,86,0
1,57,95,76
1,53,84,0
1,60,92,0
1,60,86,100
1,55,94,0
1,52,88,0
1,53,106,0
1,58,106,0
1,60,106,0
1,55,98,48
1,60,73,0
1,52,81,8
1,63,89,8
1,58,99,0
1,55,95,0
1,58,93,60
1,62,90,0
1,53,80,0
1,58,87,136
1,55,102,0
1,51,70,0
1,58,87,100
1,55,102,0
1,51,97,8
1,60,92,0
1,58,99,3108
1,53,85,0
1,62,95,0
1,53,110,8
1,58,95,12
1,58,89,8
1,54,84,0
1,62,85,0
1,54,97,96
1,58,91,8
1,58,89,4
1,53,80,0
1,62,86,0
1,57,95,76
1,53,84,0
1,60,92,0
1,60,86,100
1,55,94,0
1,52,88,0
1,58,110,92
1,60,104,0
1,53,95,0
1,55,90,32
1,60,83,0
1,52,71,4
1,55,112,104
1,60,106,0
1,52,98,0
1,58,99,0
1,55,92,0
1,63,93,0
1,62,86,20
1,58,95,0
1,53,85,0
1,58,87,24
1,51,89,0
1,55,106,0
1,55,102,24
1,58,59,28
1,63,73,4
1,58,91,0
1,55,81,0
1,58,101,20
1,63,101,0
1,55,101,0
1,58,81,20
1,62,81,0
1,53,81,0
1,58,99,16
1,62,99,0
1,53,99,0
1,58,85,28
1,51,85,0
1,55,85,0
1,58,85,16
1,51,87,4
1,55,97,4
1,60,80,12
1,51,78,0
1,55,92,0
1,54,99,24
1,58,101,0
1,62,104,0
1,58,99,396
1,62,102,0
1,67,97,0
1,57,83,60
1,65,92,0
1,60,95,0
1,62,98,416
1,67,100,0
1,58,101,0
1,57,85,64
1,60,97,0
1,65,98,0
1,63,87,96
1,58,107,0
1,55,91,0
1,62,104,76
1,58,104,4
1,54,93,0
1,62,97,84
1,58,101,0
1,53,84,0
1,62,104,164
1,58,99,0
1,67,102,0
1,60,92,68
1,65,92,4
1,57,84,0
1,62,100,612
1,67,98,0
1,58,101,0
1,57,83,76
1,60,94,0
1,65,95,0
1,55,91,132
1,60,104,0
1,64,84,0
1,63,87,0
1,58,97,0
1,55,88,0
1,62,91,164
1,58,91,0
1,54,93,0
1,58,101,380
1,53,83,0
1,50,90,4
1,55,97,4
1,48,73,8
1,53,98,4
1,55,95,0
1,50,72,4
1,58,97,0
1,53,84,4
1,53,86,180
1,58,110,0
1,55,106,8
1,50,86,0
1,58,101,24
1,63,89,0
1,55,100,0
1,62,86,16
1,53,85,8
1,58,97,0
1,58,99,20
1,63,97,0
1,55,91,4
1,55,88,16
1,60,97,0
1,51,77,0
1,62,91,16
1,58,97,0
1,54,87,0
1,58,99,384
1,62,102,0
1,67,97,0
1,57,83,60
1,65,92,0
1,60,95,0
1,62,98,416
1,67,100,0
1,58,101,0
1,57,85,64
1,60,97,0
1,65,98,0
1,63,87,96
1,58,107,0
1,55,91,0
1,63,104,76
1,58,104,4
1,54,93,0
1,58,101,84
1,53,84,0
1,62,97,0
1,62,104,164
1,58,99,0
1,67,102,0
1,60,92,68
1,65,92,4
1,57,84,0
1,62,100,612
1,67,98,0
1,58,101,0
1,57,83,76
1,60,94,0
1,65,95,0
1,63,84,132
1,58,104,0
1,55,91,0
1,62,97,112
1,54,97,4
1,58,97,0
1,58,99,108
1,62,90,0
1,53,85,0
1,58,89,4
1,54,84,0
1,62,85,0
1,54,97,96
1,58,91,8
1,58,89,8
1,53,80,0
1,62,86,0
1,57,95,76
1,53,84,0
1,60,92,0
1,60,86,100
1,55,94,0
1,52,88,0
1,53,106,0
1,58,106,0
1,60,106,0
1,55,98,48
1,60,73,0
1,52,81,8
1,63,89,8
1,58,99,0
1,55,95,0
1,58,93,60
1,62,90,0
1,53,80,0
1,58,87,136
1,55,102,0
1,51,70,0
1,58,87,100
1,55,102,0
1,51,97,8
1,60,92,0
1,58,101,416
1,53,83,0
1,50,90,4
1,55,97,4
1,48,73,8
1,53,98,4
1,55,95,0
1,50,72,4
1,58,97,0
1,53,84,4
1,53,86,180
1,58,110,0
1,55,106,8
1,50,86,0
1,58,99,24
1,53,85,0
1,62,95,0
1,53,110,8
1,58,95,12
1,58,89,8
1,54,84,0
1,62,85,0
1,54,97,96
1,58,91,8
1,58,89,4
1,53,80,0
1,62,86,0
1,57,95,76
1,53,84,0
1,60,92,0
1,55,94,100
1,60,86,0
1,52,88,0
1,58,95,4
1,60,94,0
1,53,88,0
1,60,77,48
1,55,90,0
1,52,78,0
1,60,94,128
1,55,106,0
1,52,92,0
1,58,99,12
1,55,92,0
1,63,93,0
1,62,86,20
1,58,95,0
1,53,85,0
1,58,87,24
1,51,89,0
1,55,106,0
1,55,102,24
1,58,59,28
1,63,73,4
1,58,91,0
1,55,81,0
1,58,101,20
1,63,101,0
1,55,101,0
1,58,81,20
1,62,81,0
1,53,81,0
1,58,99,16
1,62,99,0
1,53,99,0
1,58,85,28
1,51,85,0
1,55,85,0
1,58,85,16
1,51,87,4
1,55,97,4
1,60,80,12
1,51,78,0
1,55,92,0
1,54,99,24
1,58,101,0
1,62,104,0
1,58,99,396
1,62,102,0
1,67,97,0
1,57,83,60
1,65,92,0
1,62,98,416
1,67,100,0
1,58,101,0
1,57,95,64
1,65,108,0
1,63,87,96
1,58,107,0
1,55,91,0
1,62,104,76
1,58,104,4
1,54,93,0
1,62,97,136
1,53,84,0
1,58,99,164
1,67,102,0
1,65,92,76
1,57,84,0
1,62,100,612
1,67,98,0
1,58,101,0
1,57,83,76
1,60,94,0
1,65,95,0
1,55,91,132
1,60,104,0
1,64,84,0
1,62,100,384
1,67,98,0
1,58,101,0
1,57,83,76
1,60,94,0
1,65,95,0
1,63,84,132
1,58,104,0
1,55,91,0
1,62,84,112
1,58,97,4
1,54,97,0
1,53,85,108
1,58,99,0
1,62,90,0
1,62,104,12
1,58,99,0
1,67,102,0
1,65,92,16
1,57,84,0
1,79,100,12
1,67,97,0
1,74,104,0
1,79,98,12
1,67,98,0
1,74,104,0
1,79,97,12
1,67,106,0
1,74,102,0
1,62,100,16
1,67,98,0
1,58,101,0
1,57,83,20
1,60,94,0
1,65,95,0
1,55,91,20
1,60,104,0
1,64,84,0
1,58,81,16
1,62,84,0
1,57,83,0
1,53,73,0
2,31,121,2652
2,31,109,72
2,31,119,96
2,31,114,84
2,31,113,96
2,31,112,80
2,26,121,96
2,29,120,52
2,31,121,68
2,31,121,68
2,29,119,68
2,31,118,56
2,31,118,68
2,29,104,24
2,31,111,44
2,26,120,36
2,34,121,40
2,31,121,20
2,31,105,64
2,31,121,88
2,31,105,68
2,29,118,84
2,29,106,68
2,29,121,80
2,29,121,36
2,27,109,72
2,27,121,72
2,27,115,64
2,27,119,36
2,26,111,72
2,26,112,76
2,26,121,72
2,26,114,48
2,31,121,68
2,31,109,72
2,31,119,96
2,31,114,84
2,31,113,96
2,31,112,80
2,26,121,96
2,29,120,52
2,31,121,68
2,31,121,68
2,29,119,68
2,31,118,56
2,31,118,68
2,29,104,24
2,31,111,44
2,26,120,36
2,34,121,40
2,31,121,20
2,31,108,64
2,31,121,88
2,31,111,68
2,29,118,84
2,29,112,68
2,29,121,80
2,29,121,36
2,27,109,72
2,27,121,72
2,27,115,64
2,27,119,36
2,26,111,72
2,26,112,76
2,26,121,72
2,26,114,48
2,24,121,68
2,24,107,80
2,24,121,88
2,24,104,56
2,24,121,84
2,24,107,72
2,24,121,76
2,24,114,64
2,26,118,72
2,26,107,80
2,26,121,80
2,26,118,68
2,26,120,64
2,26,112,72
2,26,119,76
2,29,120,68
2,31,121,44
2,31,112,40
2,31,121,72
2,31,112,68
2,29,121,52
2,29,112,68
2,29,114,64
2,29,121,52
2,24,113,56
2,24,113,60
2,24,121,76
2,24,105,68
2,24,120,68
2,24,111,60
2,24,121,56
2,24,121,60
2,24,121,52
2,24,108,84
2,24,121,64
2,24,118,56
2,26,120,68
2,26,112,72
2,26,121,56
2,26,121,52
2,27,121,76
2,27,109,56
2,27,121,60
2,27,119,56
2,29,121,64
2,29,121,64
2,29,121,72
2,29,121,64
2,31,121,76
2,31,121,48
2,31,119,80
2,31,121,44
2,31,121,64
2,31,121,48
2,26,121,84
2,29,121,68
2,31,121,60
2,31,121,52
2,29,121,60
2,31,121,60
2,31,121,32
2,31,121,52
2,31,121,76
2,29,112,36
2,26,121,52
2,24,121,40
2,24,114,80
2,24,121,88
2,24,114,56
2,24,121,84
2,24,112,72
2,24,121,76
2,24,114,64
2,26,118,72
2,26,111,80
2,26,121,80
2,26,118,68
2,26,120,64
2,26,112,72
2,26,119,76
2,29,120,68
2,31,121,44
2,31,112,40
2,31,121,72
2,31,112,68
2,29,121,52
2,29,112,68
2,29,114,64
2,29,121,52
2,24,113,56
2,24,113,60
2,24,121,76
2,24,112,68
2,24,120,68
2,24,111,60
2,24,121,56
2,24,121,60
2,24,121,52
2,24,109,76
2,24,121,80
2,24,113,60
2,24,119,56
2,24,112,48
2,24,121,64
2,24,114,32
2,29,121,80
2,29,113,60
2,29,119,60
2,29,118,48
2,29,121,68
2,29,120,52
2,29,121,72
2,31,121,44
2,24,121,60
2,24,113,56
2,24,121,68
2,24,111,60
2,26,121,60
2,26,120,64
2,26,121,60
2,26,121,56
2,27,121,64
2,27,121,68
2,27,119,68
2,27,119,64
2,29,121,108
2,29,113,68
2,27,121,28
2,26,121,24
2,31,121,48
2,31,111,72
2,31,119,96
2,31,114,84
2,31,113,96
2,31,112,80
2,26,121,96
2,29,120,52
2,31,121,68
2,31,121,68
2,29,119,68
2,31,118,56
2,31,118,68
2,29,104,24
2,31,111,44
2,26,120,36
2,34,121,40
2,31,121,20
2,31,113,64
2,31,121,88
2,31,112,68
2,29,118,84
2,29,112,68
2,29,121,80
2,29,121,36
2,27,109,72
2,27,121,72
2,27,115,64
2,27,119,36
2,26,111,72
2,26,112,76
2,26,121,72
2,26,114,48
2,31,121,68
2,31,109,72
2,31,119,96
2,31,114,84
2,31,113,96
2,31,112,80
2,26,121,96
2,29,120,52
2,31,121,68
2,31,121,68
2,29,119,68
2,31,118,56
2,31,118,68
2,29,104,24
2,31,111,44
2,26,120,36
2,34,121,40
2,31,121,20
2,31,110,64
2,31,121,88
2,31,111,68
2,29,118,84
2,29,112,68
2,29,121,80
2,29,121,36
2,27,109,72
2,27,121,72
2,27,115,64
2,27,119,36
2,26,111,72
2,26,112,76
2,26,121,72
2,26,114,48
2,24,121,68
2,24,113,60
2,24,121,60
2,24,115,28
2,24,120,64
2,24,115,32
2,24,121,72
2,24,113,48
2,26,121,56
2,26,110,48
2,26,119,88
2,26,106,68
2,26,121,80
2,26,113,60
2,26,120,76
2,26,112,52
2,31,121,80
2,31,109,72
2,31,121,72
2,31,110,56
2,29,121,60
2,29,113,52
2,29,121,60
2,29,111,56
2,24,111,76
2,24,113,68
2,24,121,68
2,24,114,64
2,22,121,60
2,24,112,92
2,24,119,56
2,24,114,72
2,24,121,104
2,24,111,56
2,24,121,84
2,24,117,60
2,26,118,72
2,26,112,80
2,26,121,64
2,26,116,72
2,27,119,76
2,27,115,84
2,27,121,52
2,27,113,72
2,29,121,80
2,29,113,88
2,29,121,56
2,29,113,64
2,31,121,80
2,31,121,48
2,31,119,80
2,31,121,44
2,31,121,64
2,31,121,48
2,26,121,84
2,29,121,68
2,31,121,60
2,31,121,52
2,29,121,60
2,31,121,60
2,31,121,32
2,31,121,52
2,31,121,76
2,29,112,36
2,26,121,52
2,24,121,40
2,24,116,80
2,24,118,88
2,24,117,56
2,24,121,84
2,24,114,72
2,24,121,76
2,24,117,64
2,26,118,72
2,26,116,80
2,26,121,80
2,26,118,68
2,26,120,64
2,26,112,72
2,26,119,76
2,29,120,68
2,31,121,44
2,31,118,40
2,31,121,72
2,31,112,68
2,29,121,52
2,29,114,68
2,29,114,64
2,29,121,52
2,24,119,56
2,24,115,60
2,24,121,76
2,22,121,68
2,24,116,20
2,24,121,56
2,24,121,60
2,24,121,52
2,24,116,84
2,24,121,64
2,24,118,56
2,26,120,68
2,26,117,72
2,26,121,56
2,26,121,52
2,27,121,76
2,27,114,56
2,27,121,60
2,27,119,56
2,27,121,60
2,27,121,68
2,27,121,72
2,26,115,68
2,24,121,76
2,24,117,56
2,24,121,68
2,24,117,60
2,26,121,60
2,26,120,64
2,26,121,60
2,26,121,56
2,27,121,64
2,27,121,68
2,27,119,68
2,27,119,64
2,29,121,108
2,29,113,68
2,27,121,28
2,26,121,24
2,31,121,48
2,31,114,72
2,31,119,96
2,31,114,84
2,31,113,96
2,31,119,80
2,26,121,96
2,29,120,52
2,31,121,68
2,31,121,68
2,29,119,68
2,31,118,56
2,31,118,68
2,29,104,24
2,31,111,44
2,26,120,36
2,34,121,40
2,31,121,20
2,31,116,64
2,31,121,88
2,31,116,68
2,29,118,84
2,29,116,68
2,29,121,80
2,29,121,36
2,27,109,72
2,27,121,72
2,27,115,64
2,27,119,36
2,26,116,72
2,26,116,76
2,26,121,72
2,26,114,48
2,31,121,68
2,31,115,72
2,31,119,96
2,31,114,84
2,31,113,96
2,31,112,80
2,26,121,96
2,29,120,52
2,31,121,68
2,31,121,68
2,29,119,68
2,31,118,56
2,31,118,68
2,29,104,24
2,31,111,44
2,26,120,36
2,34,121,40
