track,note,velocity,time
1,65,123,2684
1,65,127,4
1,62,127,0
1,63,126,12
1,64,118,0
1,67,120,8
1,72,126,12
1,70,122,12
1,70,125,8
1,70,127,8
1,67,124,4
1,72,127,8
1,67,107,8
1,72,125,0
1,70,122,8
1,67,124,4
1,70,124,8
1,72,124,4
1,65,127,8
1,65,127,4
1,63,127,8
1,60,118,8
1,60,127,72
1,60,127,4
1,63,127,4
1,65,127,8
1,65,126,4
1,63,115,4
1,59,122,4
1,72,119,8
1,67,125,16
1,63,127,64
1,64,127,12
1,50,114,0
1,64,127,8
1,69,116,8
1,72,126,0
1,63,127,412
1,64,127,4
1,67,127,8
1,67,126,8
1,69,127,12
1,72,127,8
1,74,127,8
1,74,127,8
1,67,127,4
1,67,126,64
1,65,127,4
1,63,127,4
1,65,127,4
1,68,122,12
1,72,127,4
1,73,127,12
1,73,127,4
1,72,127,4
1,70,125,8
1,72,121,4
1,72,125,8
1,72,127,12
1,76,127,12
1,78,127,0
1,75,49,0
1,72,40,4
1,69,30,0
1,66,25,4
1,63,16,0
1,72,127,204
1,69,98,0
1,64,47,0
1,72,116,276
1,69,125,0
1,72,103,1992
1,70,87,4
1,64,46,0
1,72,102,2172
1,70,100,0
1,64,66,0
1,72,102,1052
1,70,96,0
1,72,67,664
1,72,100,348
1,69,98,0
1,72,105,692
1,69,75,0
1,72,105,732
1,69,102,4
1,72,98,676
1,69,95,4
1,72,96,692
1,70,88,0
1,72,100,724
1,70,87,0
1,72,99,692
1,70,97,0
1,72,98,708
1,70,89,0
1,74,100,692
1,71,90,8
1,74,97,684
1,71,92,0
1,72,99,708
1,69,96,4
1,62,24,0
1,72,97,688
1,69,97,0
1,72,100,688
1,69,100,0
1,72,100,696
1,70,96,0
1,55,89,684
1,58,105,0
1,64,104,8
1,67,31,8
1,59,103,456
1,65,105,12
1,67,67,4
1,65,105,8
1,67,109,0
1,67,98,120
1,65,93,0
1,59,61,0
1,59,101,0
1,65,105,4
1,67,41,4
1,72,102,1240
1,70,96,0
1,64,73,8
1,72,102,1480
1,70,92,0
1,64,74,0
1,72,98,708
1,70,72,4
1,70,94,700
1,72,89,8
1,64,75,692
1,70,98,4
1,72,97,4
1,64,38,696
1,70,99,8
1,72,102,4
1,69,69,296
1,69,101,376
1,72,105,0
1,62,92,680
1,69,93,0
1,72,107,0
1,63,82,704
1,69,99,4
1,72,89,4
1,69,99,700
1,62,32,0
1,72,96,0
1,64,80,700
1,70,97,0
1,72,95,4
1,64,79,692
1,70,83,4
1,72,77,0
1,64,24,172
1,70,98,4
1,72,83,8
1,64,34,328
1,70,99,196
1,72,103,0
1,64,69,700
1,70,102,8
1,72,83,4
1,71,93,684
1,74,83,4
1,71,95,716
1,74,77,0
1,69,100,704
1,72,58,4
1,69,100,712
1,72,84,4
1,64,70,712
1,70,95,4
1,72,93,4
1,64,97,696
1,70,96,4
1,72,31,4
1,64,85,728
1,70,96,0
1,72,83,4
1,62,100,528
1,67,102,4
1,61,90,300
1,67,103,4
1,64,38,516
1,70,94,8
1,72,69,4
1,69,46,344
1,64,101,368
1,70,97,8
1,72,59,0
1,64,103,1492
1,70,95,0
1,72,50,4
1,64,102,1456
1,70,95,8
1,72,84,0
1,64,64,700
1,70,95,8
1,72,88,4
1,64,102,700
1,70,94,4
1,72,83,4
1,69,82,320
1,69,96,372
1,72,87,0
1,69,98,716
1,72,27,4
1,63,100,724
1,69,96,8
1,72,85,0
1,69,96,712
1,72,89,0
1,64,29,704
1,70,96,4
1,72,86,0
1,64,43,712
1,69,91,8
1,64,87,744
1,70,94,8
1,72,78,4
1,64,91,708
1,70,94,8
1,72,74,0
1,71,93,680
1,74,82,4
1,71,95,704
1,64,41,4
1,74,79,0
1,69,96,720
1,72,77,4
1,69,100,712
1,72,69,4
1,64,66,712
1,70,95,4
1,72,58,8
1,64,82,896
1,70,96,8
1,64,96,528
1,70,97,8
1,72,64,4
1,59,29,696
1,65,97,4
1,69,84,8
1,64,104,744
1,70,95,4
1,72,105,0
1,64,105,704
1,70,77,4
1,72,103,0
1,64,63,720
1,70,93,4
1,72,103,0
1,64,90,712
1,70,90,8
1,72,105,0
1,64,92,688
1,70,98,8
1,72,107,0
1,64,80,692
1,70,96,8
1,72,105,0
1,64,69,708
1,70,96,4
1,72,104,4
1,64,105,692
1,70,80,4
1,72,100,0
1,63,103,684
1,69,92,4
1,72,100,4
1,63,100,684
1,69,100,4
1,72,107,4
1,63,102,692
1,69,91,4
1,72,96,0
1,63,102,696
1,69,89,8
1,72,107,0
1,64,103,696
1,70,101,0
1,72,107,0
1,64,107,696
1,70,83,0
1,72,103,4
1,64,90,696
1,72,104,8
1,70,98,0
1,64,103,692
1,70,90,4
1,72,102,4
1,65,100,692
1,71,92,0
1,74,102,0
1,65,102,688
1,71,91,0
1,74,103,4
1,63,102,684
1,69,93,4
1,72,103,0
1,63,102,704
1,69,96,0
1,72,104,4
1,70,95,700
1,72,100,0
1,64,92,700
1,70,93,4
1,72,100,4
1,72,114,528
1,70,108,4
1,64,48,4
1,70,101,316
1,72,93,4
1,67,125,800
1,72,126,12
1,72,127,8
1,72,127,16
1,75,127,8
1,73,127,8
1,73,127,12
1,75,127,4
1,72,127,8
1,75,127,8
1,77,127,12
1,78,127,4
1,75,126,12
1,72,125,12
1,75,127,8
1,77,127,4
1,79,127,0
1,76,116,12
1,72,127,12
1,72,127,8
1,75,127,8
1,78,127,8
1,79,127,4
1,76,88,0
1,75,123,24
1,72,127,16
1,75,127,8
1,72,125,4
1,69,95,0
1,67,113,12
1,72,124,148
1,75,127,8
1,78,127,8
1,75,123,4
1,72,126,4
1,75,127,8
1,77,127,0
1,78,127,8
1,75,127,4
1,77,127,96
1,76,125,4
1,78,127,4
1,77,127,8
1,72,124,12
1,70,120,4
1,72,122,24
1,75,127,4
1,63,127,192
1,69,127,0
1,63,127,8
1,69,127,0
1,72,103,10040
1,70,95,0
1,72,106,1432
1,70,92,4
1,72,101,672
1,70,73,8
1,71,97,684
1,65,87,4
1,71,97,716
1,65,79,4
1,69,98,684
1,63,66,4
1,69,99,688
1,63,65,4
1,72,106,680
1,70,97,4
1,64,28,0
1,70,97,696
1,64,58,4
1,70,98,704
1,64,50,0
1,67,102,696
1,62,78,4
1,72,106,712
1,70,91,4
1,64,25,676
1,70,97,8
1,72,92,4
1,64,101,688
1,70,98,4
1,72,80,4
1,64,67,708
1,70,98,4
1,72,81,4
1,64,34,696
1,70,94,8
1,72,92,4
1,70,25,304
1,64,89,388
1,70,98,4
1,72,83,4
1,64,94,688
1,70,96,4
1,72,83,4
1,64,32,696
1,70,93,4
1,63,103,676
1,69,100,4
1,72,58,8
1,63,105,716
1,69,99,4
1,60,45,696
1,63,108,8
1,69,100,4
1,63,106,684
1,69,99,4
1,64,105,684
1,70,95,0
1,72,104,8
1,70,92,688
1,72,104,8
1,64,90,712
1,70,86,4
1,72,100,0
1,64,106,692
1,70,83,4
1,72,89,4
1,62,65,656
1,65,102,8
1,71,97,0
1,74,54,8
1,62,86,680
1,65,104,4
1,71,99,4
1,74,25,0
1,60,100,676
1,63,104,8
1,69,98,4
1,72,56,4
1,60,85,668
1,63,106,8
1,69,99,0
1,72,25,12
1,64,106,668
1,70,84,4
1,72,96,4
1,64,105,696
1,70,86,4
1,72,99,4
1,64,114,680
1,70,102,4
1,63,125,464
1,60,70,4
1,69,127,8
1,72,127,400
1,73,127,16
1,72,119,20
1,75,127,16
1,72,127,12
1,73,127,200
1,76,127,8
1,72,127,4
1,72,127,12
1,75,127,12
1,78,127,12
1,72,127,4
1,79,127,8
1,75,121,48
1,79,127,16
1,78,127,12
1,72,113,76
1,75,126,256
1,79,127,12
1,79,127,8
1,72,125,8
1,75,117,12
1,72,127,12
1,72,127,184
1,75,115,16
1,77,127,12
1,75,127,12
1,77,116,16
1,78,127,16
1,77,127,8
1,75,127,8
1,77,127,8
1,75,127,12
1,72,127,4
1,71,116,16
1,67,127,24
1,63,127,8
1,63,117,20
1,69,127,8
1,60,49,12
1,64,71,10008
1,70,81,0
1,72,77,8
1,64,59,784
1,70,99,0
1,72,80,16
1,65,81,1444
1,71,94,0
1,74,69,4
1,65,88,388
1,71,94,0
1,63,104,372
1,69,98,0
1,72,65,8
1,69,99,12
1,62,25,0
1,71,28,4
1,64,89,596
1,70,91,0
1,72,107,0
1,72,100,368
1,70,85,0
1,64,51,0
1,64,111,360
1,70,91,0
1,72,111,4
1,64,101,1160
1,70,82,0
1,72,107,0
1,70,82,392
1,64,103,748
1,70,98,0
1,72,106,0
1,64,85,1368
1,72,104,4
1,70,91,0
1,70,94,1360
1,72,100,4
1,63,92,4
1,69,97,0
1,72,105,0
1,68,34,1068
1,63,104,220
1,69,95,0
1,72,100,4
1,64,97,1376
1,70,94,0
1,72,103,4
1,64,96,1364
1,70,95,0
1,72,104,0
1,65,102,1364
1,74,66,4
1,71,98,0
1,65,98,392
1,71,90,0
1,74,98,4
1,63,104,608
1,69,103,4
1,72,93,4
1,63,104,380
1,69,100,0
1,72,93,4
1,64,111,572
1,70,105,0
1,72,114,4
1,72,126,588
1,72,127,8
1,67,116,244
1,72,127,12
1,72,127,8
1,72,123,4
1,72,127,8
1,72,127,12
1,75,127,8
1,75,127,4
1,72,111,16
1,75,119,16
1,72,127,12
1,72,127,12
1,75,127,132
1,75,127,16
1,72,125,8
1,77,127,4
1,75,122,8
1,72,122,20
1,75,127,8
1,76,127,12
1,77,127,8
1,72,125,4
1,72,125,8
1,72,123,4
1,75,127,8
1,78,127,16
1,75,123,4
1,72,125,16
1,75,127,8
1,70,127,4
1,67,123,12
1,65,127,8
1,63,122,28
1,69,127,16
1,63,127,4
1,67,127,20
1,75,127,204
1,67,123,8
1,65,125,80
1,67,122,8
1,79,119,12
1,68,127,4
1,72,120,12
1,72,113,12
1,69,123,8
1,74,127,4
1,69,123,8
1,72,127,8
1,67,123,28
1,72,113,0
1,71,126,96
1,76,127,124
1,78,127,12
1,63,127,12
1,69,127,0
1,64,106,10716
1,70,95,0
1,72,106,0
1,64,106,1456
1,70,95,0
1,72,91,0
1,63,105,2976
1,69,102,4
1,72,66,12
1,64,81,680
1,69,104,4
1,72,64,12
1,64,106,3760
1,70,95,0
1,72,95,4
1,64,102,1460
1,70,100,0
1,72,100,0
1,64,107,1444
1,70,85,4
1,72,93,0
1,64,108,1452
1,70,91,0
1,72,106,0
1,63,106,1440
1,69,99,0
1,72,100,0
1,63,104,1464
1,69,98,0
1,72,100,4
1,64,106,1448
1,70,90,4
1,72,105,0
1,64,106,1448
1,70,85,0
1,72,106,0
1,62,38,680
1,65,104,0
1,71,97,0
1,62,47,676
1,65,104,8
1,71,98,4
1,63,108,704
1,69,103,8
1,71,28,4
1,63,101,704
1,69,98,0
1,64,107,700
1,70,84,4
1,72,91,0
1,64,103,692
1,70,94,0
1,72,81,8
1,64,85,692
1,70,101,4
1,59,68,516
1,62,99,4
1,62,102,8
1,67,99,0
1,64,106,552
1,72,106,0
1,70,95,0
1,64,106,5288
1,70,96,0
1,72,102,4
1,63,100,672
1,69,103,0
1,72,71,8
1,63,99,704
1,69,103,8
1,72,25,8
1,63,94,696
1,69,99,4
1,72,72,0
1,63,100,700
1,69,98,4
1,72,80,8
1,64,104,1456
1,70,100,0
1,72,103,4
1,64,102,1460
1,70,97,4
1,72,53,0
1,62,34,684
1,65,104,4
1,71,100,0
1,62,77,700
1,65,100,12
1,71,68,4
1,60,45,708
1,63,105,4
1,69,74,24
1,60,68,708
1,63,104,4
1,69,80,8
1,64,105,540
1,70,100,8
1,64,102,712
1,70,84,8
1,64,89,732
1,70,95,0
1,59,38,520
1,62,28,20
1,59,97,4
1,62,105,4
1,67,47,12
1,72,127,728
1,72,127,12
1,72,127,12
1,72,127,12
1,72,127,8
1,72,127,16
1,72,127,12
1,72,113,28
1,72,127,20
1,75,127,192
1,76,127,8
1,76,127,4
1,76,127,8
1,76,127,8
1,75,127,8
1,75,127,4
1,72,127,12
1,72,127,12
1,75,127,8
1,75,127,8
1,60,127,8
1,63,127,4
1,69,123,4
1,67,127,12
1,75,127,20
1,72,125,8
1,69,122,20
1,73,127,4
1,74,114,0
1,63,127,12
1,67,112,8
1,69,127,0
1,63,127,8
1,69,113,0
1,63,127,8
1,69,123,0
1,72,127,8
1,72,127,8
1,72,127,8
1,75,127,8
1,79,127,8
1,72,127,8
1,75,127,12
1,78,127,8
1,79,127,4
1,75,127,4
1,72,125,4
1,72,126,144
1,75,124,8
1,78,127,8
1,78,127,4
1,75,127,8
1,72,126,8
1,76,127,8
1,77,127,12
1,72,123,8
1,75,127,12
1,75,117,16
1,69,111,4
1,72,127,12
1,69,111,32
1,75,127,252
1,75,127,12
1,73,127,12
1,69,114,4
1,75,127,8
1,69,122,8
1,68,123,8
1,72,123,0
1,75,127,8
1,72,124,8
1,74,120,24
1,72,127,8
1,74,127,8
1,80,127,8
1,78,122,4
1,74,119,32
1,74,104,4
1,72,117,4
1,72,113,4
1,69,86,8
1,72,111,4
1,72,106,4
1,69,123,4
1,72,102,12
1,73,127,8
1,72,127,12
2,36,101,2656
2,34,89,4
2,36,97,12
2,36,105,164
2,34,81,4
2,36,93,4
2,36,107,32
2,34,101,144
2,36,97,4
2,36,101,160
2,34,92,4
2,36,97,4
2,36,101,188
2,34,77,4
2,36,98,4
2,36,102,168
2,34,87,4
2,36,94,4
2,36,96,64
2,34,99,160
2,36,100,4
2,36,104,160
2,34,95,4
2,36,100,4
2,41,96,196
2,39,82,4
2,41,96,12
2,41,98,172
2,39,75,4
2,41,83,4
2,41,107,72
2,39,89,128
2,41,96,4
2,41,110,144
2,39,84,4
2,41,102,12
2,36,105,184
2,34,82,4
2,36,97,4
2,36,101,184
2,34,74,4
2,36,91,4
2,36,96,76
2,34,105,144
2,36,98,4
2,36,100,140
2,34,87,4
2,36,98,4
2,43,102,224
2,41,87,4
2,43,101,4
2,43,102,188
2,41,76,4
2,43,96,4
2,41,98,20
2,39,95,184
2,41,94,4
2,41,102,184
2,33,101,4
2,34,87,8
2,36,100,64
2,34,78,4
2,36,98,4
2,36,100,180
2,34,76,4
2,36,90,4
2,36,98,76
2,34,105,180
2,36,101,12
2,28,113,172
2,29,78,4
2,31,104,4
2,34,103,4
2,36,82,72
2,34,87,4
2,36,98,16
2,36,100,200
2,34,75,4
2,36,97,24
2,36,98,80
2,34,107,152
2,36,101,4
2,36,98,168
2,34,95,4
2,36,100,4
2,36,95,188
2,34,82,8
2,36,97,16
2,36,87,192
2,34,71,4
2,36,96,12
2,36,90,64
2,34,103,220
2,36,90,4
2,36,94,140
2,34,91,4
2,36,101,8
2,41,98,168
2,39,72,4
2,41,95,4
2,41,97,180
2,39,70,4
2,41,86,4
2,41,94,72
2,39,91,156
2,41,98,20
2,41,108,148
2,39,91,4
2,41,104,20
2,36,94,176
2,34,77,4
2,36,97,4
2,36,97,168
2,34,82,4
2,36,93,4
2,36,97,64
2,34,113,192
2,36,100,8
2,28,98,12
2,29,91,4
2,31,107,4
2,34,99,4
2,29,97,12
2,31,100,4
2,29,89,4
2,31,108,4
2,31,113,172
2,29,80,12
2,31,105,4
2,29,94,4
2,27,101,176
2,29,96,4
2,29,110,172
2,27,97,4
2,31,101,4
2,34,97,4
2,36,96,8
2,34,97,4
2,36,100,12
2,36,101,172
2,34,84,4
2,36,101,4
2,36,100,76
2,34,105,192
2,36,90,4
2,34,97,20
2,36,98,4
2,28,104,4
2,29,95,4
2,31,107,4
2,36,100,4
2,34,88,4
2,36,98,8
2,36,102,172
2,34,80,4
2,36,89,4
2,36,100,28
2,34,97,188
2,36,101,4
2,36,102,128
2,34,89,4
2,36,98,12
2,36,100,176
2,34,95,4
2,36,100,4
2,36,102,172
2,34,75,4
2,36,89,4
2,36,101,84
2,34,107,156
2,36,101,8
2,36,107,128
2,34,87,4
2,36,101,16
2,41,104,184
2,39,88,4
2,41,97,4
2,41,104,144
2,39,68,4
2,41,90,4
2,41,108,72
