track,note,velocity,time
1,57,86,2436
1,59,88,12
1,62,115,0
1,64,112,4
1,62,100,4
1,62,93,4
1,62,42,720
1,65,114,4
1,67,108,4
1,67,112,4
1,72,106,4
1,67,111,4
1,67,91,4
1,65,56,32
1,62,32,4
1,57,83,16
1,60,89,8
1,61,100,12
1,65,110,0
1,67,112,12
1,69,110,20
1,65,108,4
1,62,60,60
1,65,113,16
1,69,107,0
1,72,109,84
1,73,102,20
1,69,106,4
1,67,74,4
1,65,84,28
1,62,52,32
1,62,35,36
1,68,126,1124
1,67,115,16
1,65,108,4
1,62,89,0
1,62,87,4
1,57,52,52
1,62,85,708
1,69,110,0
1,74,110,4
1,73,79,0
1,72,108,4
1,67,113,4
1,67,104,4
1,65,89,4
1,62,65,28
1,57,59,44
1,60,94,12
1,62,100,4
1,65,113,4
1,67,105,4
1,69,113,12
1,65,99,4
1,57,59,52
1,57,77,324
1,60,92,4
1,62,101,16
1,65,114,4
1,67,106,16
1,69,113,4
1,65,90,8
1,66,103,16
1,67,91,32
1,67,81,16
1,66,67,4
1,62,44,24
1,57,42,28
1,57,49,4
1,72,123,4
1,72,110,68
1,67,112,68
1,68,110,4
1,65,101,4
1,62,81,20
1,62,58,44
1,50,90,220
1,54,92,0
1,67,98,8
1,72,98,4
1,73,117,0
1,72,111,4
1,67,110,4
1,67,109,4
1,65,114,4
1,62,90,4
1,62,79,4
1,57,102,4
1,60,104,4
1,62,103,16
1,65,108,12
1,67,111,4
1,69,96,4
1,65,100,0
1,55,62,4
1,57,69,12
1,60,92,0
1,62,89,12
1,65,106,4
1,62,82,0
1,65,100,4
1,66,94,8
1,69,114,0
1,71,109,0
1,74,112,0
1,76,115,40
1,75,97,4
1,74,106,8
1,71,103,16
1,74,97,0
1,76,95,0
1,74,105,4
1,71,103,0
1,74,94,8
1,69,81,36
1,69,108,4
1,71,113,4
1,74,110,4
1,76,111,4
1,74,110,92
1,74,110,4
1,74,108,4
1,74,106,12
1,74,118,936
1,77,110,4
1,78,108,4
1,79,112,4
1,80,111,4
1,77,112,208
1,74,105,0
1,74,107,4
1,71,97,4
1,74,101,16
1,77,112,4
1,77,113,12
1,78,108,4
1,80,94,4
1,79,81,0
1,77,106,0
1,74,107,4
1,73,80,16
1,72,77,0
1,71,66,0
1,70,65,0
1,69,62,0
1,68,58,0
1,67,51,0
1,66,47,0
1,65,43,4
1,58,33,4
1,73,116,4
1,69,106,48
1,67,88,4
1,65,93,4
1,62,46,16
1,62,81,8
1,65,113,52
1,69,112,0
1,65,101,32
1,71,96,0
1,65,114,8
1,71,110,0
1,65,126,12
1,71,124,0
1,65,84,16
1,64,72,0
1,63,62,4
1,62,53,20
1,60,47,16
1,62,46,532
1,65,108,4
1,67,103,8
1,65,68,8
1,62,72,4
1,62,83,4
1,62,62,8
1,62,80,8
1,57,96,4
1,59,72,12
1,62,105,4
1,59,55,8
1,67,113,4
1,65,85,0
1,67,116,4
1,67,112,4
1,65,102,4
1,62,85,72
1,57,76,0
1,60,110,16
1,57,72,0
1,55,83,12
1,53,76,24
1,59,112,44
1,64,124,4
1,59,81,516
1,62,104,8
1,64,108,4
1,66,95,12
1,67,112,0
1,67,109,12
1,66,91,32
1,62,62,36
1,57,41,48
1,57,32,4
1,72,126,4
1,68,108,4
1,67,110,4
1,62,92,0
1,62,88,12
1,57,99,564
1,59,75,12
1,62,75,8
1,64,112,16
1,62,68,0
1,64,100,16
1,59,67,20
1,62,65,8
1,62,76,16
1,59,109,4
1,62,108,8
1,64,115,4
1,74,124,0
1,71,110,4
1,64,115,4
1,62,106,8
1,62,118,4
1,65,108,4
1,74,111,4
1,69,100,0
1,73,113,4
1,69,97,8
1,67,111,4
1,65,114,4
1,62,68,0
1,65,112,8
1,69,110,0
1,65,110,0
1,69,107,4
1,69,110,4
1,66,114,0
1,62,110,4
1,57,88,32
1,69,110,4
1,74,127,4
1,70,87,0
1,71,64,0
2,38,91,2652
2,38,72,52
2,38,90,72
2,44,84,24
2,43,96,0
2,47,65,136
2,48,70,8
2,50,83,4
2,38,92,0
2,36,86,0
2,35,85,0
2,33,91,44
2,38,97,0
2,45,80,32
2,38,87,0
2,44,89,48
2,43,82,0
2,44,85,0
2,43,83,0
2,41,92,0
2,40,91,32
2,38,86,0
2,36,88,0
2,35,80,0
2,33,83,48
2,35,84,0
2,37,90,0
2,38,88,0
2,45,78,0
2,38,83,0
2,42,84,0
2,43,86,0
2,44,81,4
2,45,86,0
2,45,72,20
2,45,66,40
2,45,84,68
2,44,76,0
2,43,77,0
2,43,83,132
2,33,81,16
2,35,87,12
2,37,86,0
2,38,85,0
2,42,88,0
2,43,91,64
2,44,90,28
2,45,83,20
2,45,78,36
2,45,81,28
2,33,89,0
2,35,90,0
2,37,83,0
2,38,89,0
2,38,91,116
2,38,79,56
2,44,92,48
2,43,82,0
2,43,86,60
2,33,86,0
2,40,95,0
2,38,86,20
2,38,82,76
2,39,76,36
2,39,100,64
2,38,84,12
2,32,98,124
2,32,99,60
2,31,94,44
2,31,78,212
2,32,85,0
2,32,80,52
2,31,86,28
2,41,83,12
2,40,93,60
2,39,80,20
2,38,85,28
2,36,86,0
2,35,78,28
2,33,74,60
2,35,86,0
2,37,80,0
2,38,86,0
2,45,77,0
2,38,82,0
2,42,85,0
2,43,90,0
2,44,85,0
2,45,91,8
2,45,82,44
2,45,77,28
2,44,90,72
2,43,85,0
2,43,84,52
2,43,80,52
2,33,86,20
2,35,84,0
2,40,78,0
2,38,90,0
2,42,85,8
2,43,91,0
2,44,81,32
2,45,82,16
2,45,83,40
2,33,89,12
2,33,86,124
2,35,84,0
2,37,95,12
2,38,91,0
2,38,90,76
2,38,79,52
2,44,97,68
2,43,83,12
2,41,91,0
2,40,89,0
2,39,81,4
2,38,84,0
2,36,88,0
2,35,83,0
2,33,86,24
2,38,86,44
2,38,98,72
2,44,85,0
2,43,71,8
2,41,91,0
2,40,86,0
2,38,86,0
2,41,72,12
2,42,79,20
2,43,91,8
2,41,98,0
2,40,86,0
2,39,82,0
2,38,84,0
2,36,88,0
2,35,78,0
2,33,82,8
2,35,83,0
2,37,79,20
2,38,83,0
2,36,90,0
2,38,84,0
2,42,85,0
2,43,72,0
2,44,85,0
2,45,86,0
2,45,80,116
2,45,83,40
2,44,79,0
2,43,68,0
2,43,86,80
2,38,79,20
2,43,86,0
2,33,80,0
2,40,78,0
2,40,97,72
2,38,92,0
2,42,78,0
2,43,92,28
2,44,84,40
2,45,82,0
2,33,62,0
2,33,71,88
2,33,86,40
2,33,82,36
2,33,94,68
2,33,88,88
2,37,95,0
2,38,102,8
2,38,82,80
2,38,86,72
2,44,82,36
2,43,85,0
2,41,77,0
2,40,86,0
2,39,82,4
2,38,79,0
2,36,85,40
2,35,79,56
2,33,82,28
2,35,86,0
2,37,80,0
2,38,82,12
2,33,86,0
2,38,82,0
2,44,86,12
2,43,84,60
2,44,81,56
2,43,93,72
2,43,79,52
2,43,85,68
2,33,87,0
2,40,86,8
2,40,96,48
2,38,91,0
2,36,85,0
2,35,82,4
2,33,80,40
2,35,70,0
2,37,79,0
2,38,91,0
2,38,69,60
2,38,89,84
2,38,88,76
2,43,82,0
2,44,89,0
2,45,88,0
2,45,88,44
2,45,88,76
2,44,88,0
2,43,78,0
2,43,85,76
2,43,70,44
2,43,91,56
2,38,86,0
2,38,77,40
2,43,88,20
2,44,93,4
2,45,85,56
2,33,79,0
2,33,86,60
2,33,50,44
2,33,84,84
2,33,96,60
2,33,82,36
2,33,105,76
2,33,105,56
2,33,96,44
2,33,108,64
2,38,103,36
2,38,82,160
2,44,109,80
2,43,95,0
2,43,86,64
2,38,98,116
2,36,93,0
2,35,83,20
2,33,80,4
2,35,82,0
2,37,92,0
2,38,91,0
2,44,85,0
2,43,91,76
2,44,89,0
2,43,77,0
2,43,79,56
2,38,97,0
2,36,93,0
2,35,88,0
2,33,85,60
2,35,84,0
2,37,85,0
2,38,81,0
2,36,91,8
2,38,86,0
2,38,95,72
2,43,98,8
2,44,85,0
2,45,95,0
2,40,78,36
2,45,94,0
2,40,82,0
2,45,88,0
2,44,89,8
2,43,83,0
2,43,76,36
2,43,84,56
2,43,85,56
2,38,88,0
2,42,89,0
2,43,96,0
2,44,90,0
2,45,97,4
2,33,65,0
2,33,78,80
2,33,94,68
2,33,77,20
2,33,88,60
2,33,105,64
2,33,86,32
2,33,93,56
2,33,105,72
2,33,90,32
2,33,87,64
2,38,108,40
2,38,91,64
2,38,85,36
2,44,111,68
2,43,91,0
2,43,84,24
2,38,79,64
2,43,94,92
2,43,88,64
2,38,89,44
2,38,91,80
2,33,89,20
2,37,93,0
2,38,97,0
2,38,106,76
2,44,90,0
2,44,100,80
2,43,104,40
2,43,83,36
2,44,96,68
2,44,79,32
2,43,92,60
2,41,101,0
2,40,98,0
2,39,95,0
2,38,98,24
2,36,101,0
2,35,88,0
2,33,84,8
2,35,87,0
2,37,95,0
2,38,98,0
2,35,91,0
2,38,98,0
2,42,96,0
2,43,101,0
2,44,97,0
2,45,98,0
2,45,103,112
2,38,98,0
2,44,99,4
2,43,91,0
2,43,84,40
2,43,87,60
2,43,84,48
2,38,89,36
2,42,93,0
2,43,98,0
2,44,96,12
2,45,98,4
2,33,82,0
2,33,80,80
2,33,98,64
2,33,84,24
2,33,84,52
2,33,101,80
2,33,78,24
2,33,91,60
2,33,99,84
2,33,91,44
2,33,99,64
2,38,87,304
2,38,109,64
2,35,83,0
2,38,106,0
2,35,76,0
2,38,98,0
2,42,89,32
2,43,72,4
2,41,98,0
2,40,92,0
2,33,96,0
2,35,90,0
2,37,99,0
2,38,101,0
2,38,88,48
2,38,115,104
2,35,90,0
2,38,104,0
2,38,89,48
2,35,101,88
2,36,108,0
2,37,103,12
2,38,92,0
2,38,91,52
2,38,104,92
2,35,91,0
2,38,98,0
2,38,78,52
2,44,113,96
2,43,97,24
2,43,86,44
2,41,106,0
2,41,101,68
2,40,97,0
2,40,105,88
2,38,98,12
2,41,97,0
2,42,90,4
2,43,95,0
2,43,91,36
2,41,88,0
2,41,98,56
2,40,98,0
2,40,99,80
2,39,102,0
2,39,89,72
2,38,98,0
2,38,92,16
2,36,96,0
2,36,92,64
2,35,91,0
2,35,98,108
2,33,90,4
2,35,96,0
2,37,85,0
2,38,101,0
2,38,104,68
2,36,103,0
2,36,98,68
2,35,90,0
2,42,102,0
2,43,102,0
2,44,100,12
2,45,92,0
2,40,69,8
2,45,98,12
2,45,93,60
2,40,66,12
2,45,91,0
2,38,91,0
2,40,93,8
2,42,86,0
2,43,109,0
2,43,109,1208
2,43,109,1180
2,43,109,1176
2,38,98,4484
2,38,126,100
2,35,93,28
2,38,104,0
2,35,80,8
2,38,98,8
2,38,104,32
2,38,91,280
2,38,122,92
2,35,86,28
2,38,105,132
3,66,22,2636
3,60,49,0
3,69,45,0
3,66,46,84
3,63,55,4
3,60,52,0
3,65,43,12
3,62,57,0
3,59,34,0
3,60,46,12
3,66,41,0
3,69,54,0
3,66,41,4
3,63,55,0
3,72,64,4
3,71,52,4
3,62,57,0
3,65,50,0
3,72,63,8
3,66,51,0
3,63,49,0
3,71,56,0
3,65,46,0
3,62,46,0
3,69,53,4
3,66,50,0
3,60,55,0
3,72,55,0
3,62,64,0
3,69,56,384
3,64,55,120
3,67,54,0
3,73,46,0
3,66,47,4
3,72,73,0
3,63,56,0
3,62,47,4
3,71,57,0
3,65,22,0
3,66,53,20
3,69,53,0
3,60,57,0
3,62,70,4
3,66,63,48
3,71,58,256
3,67,34,0
3,68,63,16
3,65,66,0
3,73,58,12
3,67,42,0
3,69,45,0
3,67,50,28
3,73,57,20
3,67,59,0
3,69,68,4
3,73,54,12
3,67,76,0
3,69,74,0
3,73,68,20
3,67,79,4
3,69,83,0
3,62,72,56
3,66,53,0
3,69,66,0
3,72,59,0
3,66,75,124
3,70,65,0
3,72,73,0
3,75,68,0
3,74,55,12
3,71,50,0
3,69,51,0
3,65,59,0
3,71,68,104
3,74,59,0
3,69,61,0
3,65,65,0
3,72,69,168
3,66,59,0
3,69,61,0
3,62,66,0
3,69,53,60
3,72,59,0
3,66,55,0
3,62,60,0
3,66,75,132
3,72,73,0
3,69,63,0
3,62,80,0
3,63,80,24
3,73,72,0
3,70,65,0
3,67,73,0
3,67,64,64
3,73,64,0
3,70,57,0
3,63,86,0
3,70,88,164
3,67,76,0
3,75,92,0
3,73,103,0
3,66,63,4
3,69,65,0
3,72,69,0
3,74,71,0
3,69,42,24
3,74,58,0
3,72,66,0
3,66,77,0
3,74,81,180
3,66,88,0
3,72,83,0
3,69,76,0
3,74,77,16
3,66,82,0
3,72,66,0
3,75,100,344
3,70,90,0
3,66,103,0
3,72,97,0
3,78,84,24
3,75,77,0
3,70,84,0
3,72,93,0
3,66,109,0
3,78,82,32
3,70,77,0
3,75,74,0
3,66,90,0
3,72,99,0
3,77,59,20
3,71,60,0
3,67,66,0
3,74,68,0
3,77,51,276
3,74,50,0
3,71,45,0
3,67,53,0
3,79,40,0
3,67,49,180
3,74,51,0
3,77,47,0
3,71,49,0
3,79,47,4
3,75,44,172
3,78,46,0
3,72,54,0
3,68,57,0
3,68,75,48
3,78,75,0
3,75,75,0
3,72,75,0
3,78,77,68
3,75,77,0
3,72,77,0
3,68,77,0
3,67,58,16
3,77,51,0
3,74,54,0
3,79,49,0
3,71,52,4
3,74,54,172
3,67,59,0
3,77,58,0
3,71,57,0
3,79,49,0
3,79,52,40
3,71,53,0
3,74,48,0
3,67,69,0
3,78,103,228
3,79,101,12
3,74,90,0
3,67,84,0
3,78,72,8
3,74,35,12
3,67,78,0
3,79,87,0
3,78,64,16
3,66,65,0
3,72,58,0
3,69,66,0
3,75,51,32
3,76,63,12
3,69,32,0
3,66,42,0
3,70,86,68
3,66,82,4
3,71,74,0
3,62,81,0
3,72,81,20
3,69,76,0
3,66,97,0
3,74,67,8
3,66,80,0
3,62,73,4
3,72,72,0
3,78,75,0
3,66,90,0
3,78,78,236
3,81,88,0
3,72,88,0
3,66,88,0
3,78,90,128
3,66,97,0
3,72,99,0
3,81,97,0
3,76,65,0
3,69,70,0
3,73,60,0
3,81,40,4
3,79,69,0
3,73,80,32
3,81,80,0
3,76,85,0
3,79,87,0
3,69,97,0
3,72,84,8
3,78,80,0
3,80,84,0
3,75,84,0
3,68,84,0
3,71,58,20
3,67,64,4
3,79,48,0
3,74,61,4
3,77,59,0
3,79,69,660
3,67,85,0
3,74,63,8
3,77,62,28
3,71,73,0
3,67,61,0
3,77,60,8
3,71,55,0
3,67,73,0
3,70,92,36
3,74,93,0
3,67,80,0
3,71,70,0
3,69,63,12
3,66,77,0
3,62,84,0
3,72,88,8
3,72,68,16
3,69,68,0
3,62,68,0
3,66,68,0
3,67,67,16
3,74,69,0
3,71,68,0
3,77,68,8
3,71,68,0
3,74,68,0
3,68,68,0
3,76,59,16
3,73,46,0
3,69,67,0
3,79,66,0
3,73,69,4
3,76,69,4
3,67,67,0
3,78,67,0
3,81,69,4
3,41,58,172
3,40,58,4
3,43,58,0
3,45,59,0
3,47,60,12
3,48,61,8
3,50,61,0
3,52,61,0
3,53,62,0
3,55,63,0
3,57,64,0
3,59,64,0
3,60,64,4
3,66,50,20
3,60,50,4
3,66,47,148
3,75,42,0
3,70,51,0
3,65,42,0
3,69,53,0
3,74,57,0
3,69,31,36
3,74,37,0
3,65,56,4
3,65,43,216
3,74,41,0
3,69,42,0
3,72,38,12
3,66,34,0
3,62,53,0
3,69,43,0
3,76,54,8
3,71,52,0
3,69,49,8
3,74,37,0
3,72,66,4
3,71,46,0
3,76,14,0
3,69,49,12
3,74,51,0
3,72,60,4
3,66,46,0
3,76,55,0
3,62,56,0
3,71,63,0
3,69,54,20
3,74,57,0
3,66,42,0
3,62,61,0
3,66,43,4
3,72,63,0
3,76,58,0
3,71,61,0
3,62,59,0
3,66,57,4
3,69,63,0
3,74,61,0
3,62,67,0
