track,note,velocity,time
0,35,111,255
0,37,100,0
0,49,86,0
0,56,53,0
0,61,55,0
0,61,65,0
0,65,53,0
0,73,99,0
0,35,0,4
0,49,0,0
0,42,63,59
0,68,57,1
0,73,63,0
0,77,67,0
0,42,0,3
0,68,0,12
0,73,0,0
0,77,0,1
0,42,70,47
0,68,60,1
0,73,64,0
0,77,65,0
0,42,0,3
0,77,0,9
0,68,0,1
0,73,0,0
0,38,99,50
0,46,67,1
0,68,69,0
0,73,72,0
0,77,74,0
0,38,0,3
0,46,0,1
0,68,0,8
0,73,0,0
0,77,0,0
0,37,0,19
0,77,72,31
0,68,58,2
0,73,64,0
0,77,73,0
0,73,0,9
0,68,0,2
0,77,0,0
0,77,0,49
0,80,82,2
0,42,65,1
0,32,103,1
0,35,99,0
0,68,61,0
0,73,68,0
0,77,67,0
0,42,0,3
0,35,0,1
0,68,0,6
0,77,0,0
0,73,0,1
0,32,0,48
0,61,0,2
0,73,0,0
0,56,0,1
0,35,113,2
0,37,102,0
0,42,71,0
0,57,56,0
0,81,75,1
0,65,64,2
0,77,95,0
0,35,0,1
0,42,0,0
0,80,0,5
0,42,68,29
0,69,65,1
0,73,57,0
0,77,56,0
0,42,0,3
0,77,0,7
0,73,0,1
0,69,0,2
0,35,110,50
0,42,65,0
0,69,71,1
0,73,64,0
0,77,63,0
0,35,0,3
0,42,0,0
0,73,0,8
0,77,0,0
0,69,0,1
0,38,103,52
0,46,70,0
0,69,75,0
0,73,68,0
0,77,66,0
0,38,0,4
0,46,0,0
0,73,0,6
0,69,0,2
0,77,0,2
0,37,0,5
0,81,0,31
0,69,69,14
0,73,63,0
0,77,76,0
0,77,61,0
0,73,0,11
0,69,0,1
0,77,0,3
0,77,0,41
0,81,80,6
0,29,103,1
0,35,107,0
0,42,67,0
0,69,67,1
0,73,68,0
0,77,62,0
0,35,0,3
0,42,0,0
0,69,0,9
0,73,0,0
0,77,0,0
0,61,0,42
0,65,0,3
0,77,0,0
0,29,0,5
0,57,0,0
0,65,0,0
0,30,103,1
0,42,73,0
0,58,55,0
0,61,58,0
0,66,55,0
0,81,0,0
0,35,106,1
0,82,81,0
0,63,70,1
0,75,100,0
0,42,0,2
0,35,0,1
0,42,68,37
0,66,49,1
0,70,60,0
0,73,64,0
0,42,0,3
0,70,0,8
0,66,0,2
0,73,0,2
0,42,67,48
0,66,57,1
0,70,63,0
0,73,63,0
0,42,0,3
0,66,0,8
0,70,0,0
0,73,0,1
0,38,100,52
0,46,68,0
0,66,54,0
0,70,70,0
0,73,64,0
0,38,0,4
0,46,0,0
0,66,0,7
0,70,0,2
0,73,0,1
0,30,0,21
0,70,68,20
0,73,64,0
0,66,51,1
0,66,0,11
0,73,0,2
0,70,0,1
0,30,99,49
0,35,105,0
0,42,70,0
0,70,64,0
0,73,64,0
0,66,56,1
0,35,0,3
0,42,0,0
0,70,0,8
0,73,0,0
0,82,0,7
0,63,0,31
0,75,0,0
0,30,0,13
0,58,0,0
0,61,0,0
0,66,0,0
0,32,98,1
0,42,70,0
0,60,51,0
0,63,53,0
0,68,52,0
0,35,112,1
0,85,71,0
0,61,50,1
0,73,86,0
0,42,0,2
0,35,0,1
0,42,62,59
0,66,0,0
0,66,59,1
0,70,71,0
0,73,69,0
0,42,0,3
0,66,0,9
0,70,0,0
0,73,0,2
0,35,109,49
0,42,63,0
0,73,73,0
0,66,64,1
0,70,68,0
0,35,0,3
0,42,0,0
0,66,0,8
0,70,0,0
0,73,0,4
0,32,0,32
0,85,0,5
0,84,71,10
0,38,100,1
0,68,68,0
0,75,74,0
0,32,97,1
0,42,67,0
0,72,59,0
0,38,0,3
0,60,61,0
0,72,88,0
0,42,0,1
0,61,0,0
0,73,0,0
0,68,0,8
0,72,0,3
0,75,0,4
0,68,50,44
0,72,70,0
0,75,58,0
0,42,65,1
0,42,0,4
0,72,0,8
0,68,0,1
0,75,0,4
0,42,67,46
0,75,65,0
0,35,104,1
0,68,65,0
0,72,63,0
0,42,0,3
0,35,0,1
0,68,0,8
0,72,0,0
0,75,0,2
0,32,0,29
0,84,0,4
0,60,0,7
0,72,0,0
0,60,0,4
0,63,0,2
0,68,0,0
0,35,107,4
0,37,97,0
0,56,58,0
0,57,82,0
0,61,55,0
0,65,51,0
0,61,69,2
0,73,93,0
0,35,0,2
0,57,0,0
0,42,61,33
0,68,60,1
0,73,61,0
0,77,76,0
0,42,0,3
0,68,0,8
0,73,0,3
0,77,0,0
0,42,68,50
0,68,63,0
0,73,73,0
0,77,68,0
0,42,0,4
0,68,0,6
0,77,0,2
0,73,0,1
0,38,101,50
0,46,68,1
0,68,67,0
0,73,77,0
0,77,72,0
0,38,0,3
0,46,0,1
0,68,0,8
0,73,0,0
0,77,0,0
0,77,71,51
0,68,66,1
0,73,70,0
0,77,74,0
0,37,0,1
0,68,0,9
0,73,0,1
0,77,0,1
0,80,74,49
0,77,0,1
0,32,98,1
0,42,69,0
0,35,109,1
0,68,67,0
0,73,73,0
0,77,74,0
0,42,0,3
0,35,0,1
0,77,0,7
0,68,0,1
0,73,0,0
0,61,0,39
0,73,0,0
0,32,0,9
0,56,0,2
0,42,69,1
0,35,108,1
0,37,98,0
0,57,51,0
0,81,71,0
0,42,0,3
0,65,63,0
0,77,92,0
0,35,0,1
0,80,0,3
0,42,64,33
0,69,64,1
0,73,61,0
0,77,65,0
0,42,0,3
0,69,0,11
0,73,0,1
0,77,0,1
0,42,65,47
0,73,60,0
0,69,65,1
0,77,59,0
0,42,0,3
0,73,0,9
0,69,0,1
0,77,0,0
0,38,99,50
0,46,71,0
0,69,77,1
0,73,72,0
0,77,73,0
0,38,0,3
0,46,0,0
0,73,0,9
0,77,0,0
0,69,0,2
0,81,0,22
0,37,0,7
0,73,69,20
0,69,69,1
0,77,65,0
0,77,69,1
0,73,0,12
0,77,0,0
0,69,0,1
0,77,0,43
0,29,102,6
0,35,92,0
0,42,73,0
0,69,68,0
0,73,64,0
0,77,73,0
0,81,76,1
0,35,0,3
0,42,0,0
0,77,0,10
0,69,0,1
0,73,0,0
0,61,0,40
0,65,0,3
0,77,0,0
0,29,0,2
0,57,0,3
0,65,0,0
0,42,75,1
0,58,54,0
0,61,51,0
0,66,56,0
0,30,97,1
0,35,106,0
0,81,0,0
0,63,62,2
0,75,91,0
0,82,73,0
0,42,0,1
0,35,0,1
0,42,68,59
0,70,66,0
0,66,53,1
0,73,69,0
0,42,0,3
0,66,0,11
0,70,0,0
0,73,0,1
0,42,76,48
0,66,62,0
0,70,61,0
0,73,60,0
0,35,111,1
0,42,0,3
0,35,0,1
0,66,0,8
0,73,0,1
0,70,0,1
0,70,68,49
0,73,72,0
0,46,74,1
0,66,64,0
0,38,103,1
0,46,0,3
0,38,0,1
0,66,0,6
0,73,0,2
0,70,0,1
0,30,0,48
0,70,71,1
0,66,60,1
0,73,66,0
0,70,0,10
0,66,0,1
0,73,0,0
0,62,37,17
0,74,65,0
0,63,0,11
0,75,0,0
0,61,26,4
0,73,60,0
0,62,0,4
0,74,0,0
0,60,29,15
0,72,55,0
0,30,101,1
0,35,101,0
0,61,0,0
0,73,0,0
0,73,62,0
0,42,77,1
0,66,50,0
0,70,62,0
0,35,0,3
0,42,0,1
0,70,0,2
0,66,0,1
0,73,0,1
0,59,17,4
0,71,50,0
0,60,0,2
0,72,0,0
0,58,14,12
0,70,47,0
0,59,0,2
0,71,0,0
0,57,12,11
0,69,40,0
0,82,0,1
0,58,0,1
0,70,0,0
0,56,13,13
0,68,39,0
0,57,0,1
0,69,0,0
0,58,0,7
0,61,0,0
0,66,0,0
0,30,0,1
0,60,56,0
0,63,58,0
0,68,54,0
0,75,60,0
0,85,77,0
0,32,105,1
0,35,108,0
0,42,72,0
0,68,67,0
0,72,64,0
0,35,0,4
0,42,0,0
0,56,0,3
0,68,0,0
0,72,0,1
0,68,0,3
0,75,0,4
0,42,70,48
0,68,60,1
0,72,63,0
0,75,65,0
0,42,0,3
0,72,0,8
0,68,0,2
0,75,0,2
0,42,72,48
0,35,113,1
0,68,65,0
0,72,58,0
0,75,64,0
0,42,0,3
0,35,0,1
0,72,0,5
0,68,0,3
0,75,0,1
0,32,0,12
0,85,0,28
0,38,99,9
0,84,79,1
0,32,100,1
0,42,70,0
0,68,69,0
0,72,66,0
0,75,65,0
0,38,0,2
0,42,0,2
0,72,0,6
0,68,0,1
0,75,0,2
0,49,100,44
0,42,79,7
0,42,0,4
0,32,0,25
0,84,0,10
0,49,0,14
0,51,99,6
0,46,79,4
0,32,97,4
0,46,0,0
0,32,0,25
0,34,99,7
0,51,0,21
0,34,0,1
0,60,0,1
0,63,0,2
0,68,0,0
0,37,85,4
0,44,81,0
0,61,55,0
0,61,72,0
0,37,102,1
0,53,101,0
0,44,0,3
0,61,0,58
0,61,0,0
0,56,56,2
0,56,65,0
0,53,0,56
0,56,0,5
0,56,0,1
0,53,60,2
0,53,66,0
0,51,89,5
0,53,0,57
0,53,0,1
0,51,0,1
0,61,59,0
0,61,71,2
0,54,98,5
0,61,0,54
0,61,0,1
0,56,59,2
0,56,68,1
0,54,0,54
0,56,0,1
0,53,89,4
0,56,0,2
0,53,61,2
0,53,67,0
0,53,0,53
0,53,0,5
0,51,79,4
0,53,0,0
0,61,58,2
0,61,63,0
0,51,0,58
0,49,89,3
0,61,0,1
0,61,0,0
0,56,54,2
0,56,66,1
0,56,0,53
0,56,0,8
0,53,68,1
0,53,58,1
0,49,0,40
0,53,0,14
0,53,0,8
0,61,66,0
0,61,58,2
0,49,88,59
0,61,0,1
0,61,0,2
0,56,54,1
0,56,63,0
0,49,0,43
0,37,0,2
0,56,0,10
0,51,93,2
0,56,0,5
0,53,55,2
0,53,66,0
0,32,97,2
0,37,0,28
0,51,0,18
0,32,0,7
0,53,0,1
0,53,88,5
0,53,0,1
0,61,64,1
0,61,56,1
0,37,103,1
0,37,79,2
0,61,0,59
0,56,68,1
0,56,58,1
0,61,0,0
0,53,0,44
0,51,91,12
0,56,0,2
0,56,0,4
0,53,57,2
0,53,71,0
0,51,0,60
0,53,0,1
0,53,0,1
0,61,59,2
0,61,67,0
0,54,102,2
0,61,0,60
0,56,52,2
0,56,74,0
0,61,0,0
0,54,0,52
0,37,0,2
0,53,88,3
0,56,0,4
0,56,0,1
0,34,104,2
0,53,57,1
0,53,72,0
0,37,0,33
0,53,0,18
0,53,0,8
0,51,81,2
0,53,0,1
0,63,58,1
0,63,63,0
0,34,0,1
0,32,102,1
0,32,84,2
0,63,0,58
0,63,0,0
0,59,65,2
0,59,52,1
0,59,0,59
0,59,0,3
0,56,60,1
0,56,61,0
0,51,0,42
0,56,0,15
0,56,0,5
0,63,55,2
0,63,61,0
0,63,0,60
0,63,0,2
0,51,90,2
0,59,57,0
0,59,67,0
0,32,0,43
0,51,0,10
0,53,86,6
0,59,0,2
0,59,0,1
0,56,59,2
0,56,69,0
0,32,0,35
0,56,0,14
0,53,0,8
0,56,0,5
0,39,103,2
0,54,91,0
0,63,53,0
0,63,66,1
0,39,85,2
0,63,0,58
0,63,0,1
0,58,59,2
0,58,64,1
0,54,0,53
0,53,92,5
0,58,0,0
0,58,0,3
0,54,52,2
0,54,73,0
0,53,0,59
0,54,0,3
0,54,0,1
0,63,56,2
0,63,69,0
0,56,98,1
0,63,0,61
0,58,52,1
0,58,65,0
0,63,0,2
0,56,0,55
0,54,80,4
0,58,0,0
0,58,0,1
0,39,0,2
0,54,60,0
0,54,61,0
0,37,98,1
0,54,0,59
0,54,0,2
0,54,0,0
0,53,88,2
0,63,55,0
0,35,84,1
0,37,0,0
0,63,69,0
0,35,105,1
0,39,0,20
0,63,0,39
0,53,0,1
0,63,0,0
0,51,85,1
0,59,52,1
0,59,67,0
0,59,0,61
0,59,0,1
0,54,58,2
0,54,67,0
0,54,0,62
0,63,54,2
0,63,61,1
0,54,0,2
0,51,0,26
0,63,0,32
0,63,0,1
0,59,53,2
0,59,64,1
0,35,0,45
0,49,87,10
0,59,0,6
0,53,70,1
0,54,57,1
0,34,104,1
0,54,71,0
0,59,0,1
0,53,1,15
0,53,0,32
0,34,0,2
0,49,0,1
0,35,0,1
0,54,0,5
0,54,0,4
0,53,0,2
0,54,98,0
0,58,75,0
0,63,57,0
0,63,66,0
0,32,79,1
0,32,105,0
0,58,1,0
0,58,0,47
0,56,1,1
0,58,0,2
0,54,0,7
0,53,88,2
0,63,0,2
0,56,66,1
0,60,60,1
0,60,67,0
0,63,0,1
0,32,0,35
0,56,0,16
0,53,0,4
0,60,0,6
0,53,70,1
0,32,98,1
0,56,57,0
0,56,63,0
0,60,0,0
0,49,102,1
0,56,0,15
0,53,1,1
0,49,0,33
0,32,0,2
0,53,0,0
0,56,0,10
0,56,0,0
0,54,89,1
0,53,0,1
0,58,73,0
0,63,53,0
0,63,67,0
0,58,1,1
0,32,105,1
0,58,0,46
0,56,1,1
0,54,0,10
0,58,0,0
0,63,0,1
0,53,102,2
0,63,0,0
0,60,57,2
0,60,72,0
0,56,67,1
0,32,0,29
0,56,0,24
0,53,0,6
0,60,0,2
0,32,104,2
0,53,68,0
0,56,57,0
0,56,64,0
0,60,0,1
0,49,90,1
0,56,0,14
0,53,1,1
0,53,0,23
0,49,0,7
0,56,0,4
0,32,0,7
0,56,0,4
0,53,72,1
0,61,57,1
0,37,104,1
0,61,68,0
0,32,0,1
0,49,89,1
0,37,90,1
0,61,0,56
0,61,0,2
0,56,67,1
0,56,52,1
0,49,0,34
0,53,0,0
0,56,0,26
0,56,0,2
0,53,63,1
0,42,51,1
0,53,54,0
0,42,0,4
0,53,0,56
0,53,0,2
0,61,68,1
0,53,0,1
0,61,54,0
0,42,59,1
0,42,0,4
0,61,0,57
0,61,0,1
0,42,66,1
0,56,54,0
0,56,64,0
0,42,0,4
0,56,0,53
0,56,0,5
0,42,68,2
0,53,52,0
0,53,66,0
0,42,0,4
0,53,0,58
0,53,0,0
0,61,55,2
0,41,68,1
0,61,61,0
0,69,92,0
0,41,0,4
0,69,0,20
0,61,0,37
0,56,57,2
0,56,60,0
0,61,0,0
0,56,0,61
0,56,0,1
0,53,54,2
0,53,68,0
0,79,97,0
0,45,64,1
0,45,0,4
0,79,0,22
0,53,0,31
0,53,0,4
0,61,56,2
0,61,69,1
0,79,102,32
0,48,65,2
0,48,0,4
0,53,71,20
0,79,0,0
0,49,92,1
0,61,0,2
0,61,0,1
0,56,58,1
0,56,62,0
0,79,98,0
0,48,67,1
0,48,0,4
0,79,0,8
0,37,0,32
0,49,0,5
0,53,0,1
0,56,0,8
0,51,89,1
0,54,71,2
0,56,0,0
0,32,97,2
0,53,57,0
0,53,66,0
0,35,110,1
0,74,97,0
0,35,0,4
0,54,1,12
0,74,0,2
0,53,0,23
0,37,0,7
0,54,0,3
0,51,0,3
0,32,0,1
0,53,0,6
0,53,97,2
0,54,0,0
0,49,86,1
0,56,1,0
0,35,115,0
0,37,82,0
0,37,103,0
0,42,85,0
0,61,60,0
0,61,76,0
0,56,68,2
0,84,85,0
0,35,0,2
0,42,0,0
0,49,0,2
0,49,82,26
0,84,0,3
0,49,0,3
0,61,0,24
0,61,0,0
0,42,59,1
0,56,54,1
0,56,68,0
0,61,90,0
0,42,0,3
0,61,0,3
0,49,84,26
0,49,0,6
0,56,0,12
0,53,0,10
0,56,0,1
0,56,0,1
0,42,63,2
0,53,52,0
0,53,64,0
0,61,87,0
0,54,72,1
0,51,89,1
0,42,0,2
0,61,0,2
0,56,0,9
0,54,1,1
0,49,84,16
0,49,0,6
0,54,0,14
0,53,0,10
0,53,0,1
0,54,0,0
0,42,84,1
0,58,1,0
0,61,85,0
0,61,60,0
0,51,0,2
0,61,73,0
0,42,0,2
0,61,0,2
0,58,69,3
0,54,99,1
0,61,90,22
0,61,0,6
0,61,0,23
0,61,0,1
0,42,56,2
0,49,89,0
0,56,59,0
0,56,66,1
0,42,0,3
0,49,0,2
0,49,86,26
