track,note,velocity,time
1,65,114,2308
1,67,112,8
1,70,111,8
1,72,112,4
1,70,112,72
1,67,58,4
1,70,114,4
1,72,107,4
1,70,114,4
1,73,106,12
1,75,116,1012
1,75,114,4
1,72,111,4
1,70,104,64
1,67,112,4
1,70,93,4
1,73,113,28
1,75,110,4
1,73,111,12
1,76,109,4
1,73,106,8
1,70,86,16
1,73,105,12
1,75,105,12
1,73,107,12
1,70,90,4
1,73,108,4
1,76,112,4
1,75,109,4
1,73,111,4
1,70,102,4
1,65,96,4
1,70,109,8
1,72,77,0
1,73,98,4
1,75,109,4
1,77,105,4
1,73,76,4
1,70,71,4
1,72,82,4
1,72,91,4
1,70,91,16
1,70,71,8
1,67,43,12
1,70,70,4
1,79,126,876
1,77,114,12
1,74,112,4
1,77,114,4
1,72,110,4
1,70,98,0
1,67,83,112
1,70,95,4
1,72,98,8
1,72,78,4
1,77,115,56
1,77,83,4
1,70,65,16
1,72,76,4
1,69,124,216
1,65,115,0
1,63,73,4
1,65,99,20
1,61,76,4
1,58,74,4
1,65,87,12
1,70,111,16
1,70,111,4
1,74,116,4
1,74,116,4
1,75,116,4
1,77,113,0
1,75,116,160
1,73,115,4
1,75,114,4
1,76,114,4
1,73,111,8
1,70,97,4
1,65,96,52
1,67,81,8
1,70,104,0
1,73,96,4
1,78,116,12
1,77,115,4
1,80,124,48
1,79,116,4
1,77,102,4
1,72,109,4
1,70,70,4
1,67,34,4
1,70,87,4
1,72,83,4
1,70,112,88
1,68,83,12
1,63,102,12
1,58,92,16
1,63,77,28
1,65,118,4
1,61,92,4
1,58,91,8
1,56,68,4
1,53,64,12
1,68,116,336
1,64,96,0
1,63,103,8
1,61,96,8
1,58,88,8
1,61,112,4
1,58,101,4
1,56,89,0
1,53,99,8
1,56,118,4
1,53,91,0
1,56,95,4
1,63,120,4
1,63,118,0
1,60,103,0
1,58,77,4
1,61,120,4
1,65,119,16
1,70,121,0
1,69,114,40
1,70,84,1472
1,73,107,8
1,75,112,12
1,75,109,4
1,75,109,4
1,72,92,0
1,70,89,8
1,73,116,4
1,70,113,8
1,65,102,0
1,75,113,4
1,73,108,8
1,70,81,4
1,73,109,4
1,65,81,4
1,70,100,4
1,75,116,12
1,75,113,4
1,73,106,4
1,70,91,4
1,70,87,4
1,64,97,4
1,73,117,8
1,61,81,4
1,70,116,4
1,61,83,4
1,65,77,4
1,70,122,0
1,65,112,0
1,70,99,4
1,69,109,20
1,73,106,32
1,70,113,8
1,65,81,0
1,76,115,4
1,73,84,8
1,70,95,12
1,73,109,0
1,67,110,1928
1,70,111,0
1,70,111,4
1,73,106,12
1,75,114,4
1,73,107,12
1,70,96,8
1,73,105,8
1,75,115,0
1,73,117,4
1,70,111,0
1,73,118,4
1,70,114,0
1,67,97,0
1,65,96,0
1,70,119,4
1,68,115,8
1,65,93,0
1,63,91,0
1,65,114,4
1,63,120,4
1,61,88,4
1,58,85,0
1,63,109,0
1,61,106,8
1,58,98,4
1,53,72,16
1,61,100,80
1,65,119,0
1,70,107,16
1,61,105,16
1,65,101,8
1,70,74,12
1,62,90,0
1,65,100,892
1,70,116,0
1,70,116,4
1,73,120,4
1,70,101,12
1,65,69,4
1,75,116,4
1,73,111,4
1,70,95,4
1,75,116,972
1,76,112,4
1,73,110,4
1,70,70,4
1,67,116,4
1,70,114,0
1,70,108,4
1,73,114,4
1,76,116,12
1,73,112,4
1,70,77,4
1,70,95,4
1,67,34,20
1,70,107,4
1,72,112,4
1,72,111,20
1,77,117,24
1,77,116,12
1,75,113,4
1,76,112,24
1,72,111,40
1,69,85,0
1,71,109,4
1,67,62,4
1,70,112,8
1,73,105,4
1,70,116,4
1,65,109,4
1,63,78,4
1,65,118,4
1,61,71,4
1,67,126,4
1,70,126,0
1,70,113,4
1,73,116,4
1,75,116,4
1,73,111,4
1,70,103,4
1,73,120,0
1,63,116,4
1,61,114,4
1,58,96,4
1,61,109,4
1,63,110,0
1,61,118,48
1,58,99,0
1,56,93,4
1,45,45,8
1,53,105,0
1,58,127,4
1,67,127,0
1,61,127,0
1,65,111,4
1,70,122,4
1,70,117,16
1,75,126,4
1,75,118,4
1,70,109,0
1,73,116,4
1,75,116,4
1,75,116,36
1,77,112,4
1,73,109,4
1,70,80,4
1,67,66,44
1,70,111,0
1,72,110,28
1,72,86,40
1,75,109,16
1,77,115,12
1,72,112,4
1,70,95,36
1,67,75,12
1,70,108,4
1,73,100,48
1,73,96,40
1,76,105,4
1,65,114,4
1,68,102,0
1,72,107,20
1,70,112,4
1,67,92,4
1,70,114,0
1,70,114,4
1,73,118,60
1,77,116,4
1,77,116,40
1,70,111,16
1,73,112,0
1,70,116,4
1,80,127,100
1,77,116,4
1,75,116,4
1,76,116,24
1,73,119,4
1,75,114,0
1,77,115,4
1,72,114,8
1,69,90,4
1,72,114,4
1,66,97,4
1,72,114,36
1,77,114,4
1,70,113,0
1,75,113,0
1,67,81,64
1,63,114,392
1,67,113,4
1,70,117,0
1,73,116,4
1,74,116,8
1,75,116,4
1,75,110,4
1,75,116,4
1,73,116,4
1,70,102,76
1,72,98,56
1,72,95,4
1,70,78,4
1,67,34,12
1,70,71,4
1,70,85,4
1,73,95,20
1,73,81,64
1,70,127,4
1,67,111,0
1,73,126,4
1,70,112,0
1,79,123,24
1,77,115,4
1,75,114,8
1,77,112,4
1,72,106,0
1,69,90,0
1,67,31,0
1,70,106,0
1,72,106,20
1,69,89,0
1,67,38,0
1,70,103,0
1,80,127,0
1,77,116,24
1,79,117,4
1,77,115,4
1,75,114,4
1,77,108,12
1,72,110,4
1,69,73,0
1,72,106,4
1,67,83,4
1,70,108,0
1,73,110,20
1,69,116,4
1,65,118,48
1,63,106,12
1,65,119,12
1,61,106,4
1,58,89,12
1,63,118,52
1,63,118,4
1,61,102,48
1,68,116,4
1,65,87,0
1,63,115,0
1,61,106,4
1,58,80,0
1,63,116,4
1,60,100,0
1,58,89,4
1,56,98,12
1,53,90,0
1,61,120,4
1,67,116,0
1,70,127,0
1,62,68,4
1,65,85,8
1,70,39,4
1,65,104,584
1,70,116,0
1,70,116,4
1,70,115,4
1,65,114,4
1,67,99,0
1,70,114,4
1,73,116,8
1,68,102,8
1,73,107,0
1,70,114,4
1,68,112,4
1,67,122,4
1,70,122,0
1,70,112,32
1,73,111,0
1,75,116,4
1,73,112,4
1,70,107,52
1,64,116,1580
1,73,112,4
1,62,90,44
1,71,98,4
1,65,120,8
1,63,97,4
1,61,61,12
1,63,84,4
1,70,114,0
1,70,111,4
1,70,115,4
1,73,114,0
1,75,116,16
1,73,109,4
1,70,107,12
1,67,127,4
1,70,127,0
1,70,112,4
1,73,114,4
1,75,116,4
1,70,112,4
1,64,120,12
1,65,116,4
1,70,117,0
1,68,116,4
1,64,110,0
1,63,112,8
1,63,118,4
1,60,91,0
1,58,99,8
1,58,96,56
1,58,84,12
1,61,120,8
1,63,120,0
1,61,122,24
1,58,114,8
1,56,107,4
1,53,94,4
1,68,105,0
1,70,119,0
1,65,105,12
1,63,111,48
1,61,107,4
1,58,109,8
1,56,97,4
1,53,94,0
1,61,114,92
1,67,119,4
1,70,122,8
1,62,80,0
1,65,81,8
1,70,34,4
1,64,89,388
1,74,111,0
1,67,119,4
1,70,117,4
1,70,108,4
1,73,113,16
1,75,109,4
1,73,111,4
1,70,85,4
1,68,71,4
1,75,123,12
1,76,106,12
1,72,96,0
1,70,114,0
1,73,116,4
1,67,122,4
1,70,120,0
1,70,112,20
1,73,116,8
1,75,116,4
1,77,115,4
1,73,116,4
1,70,110,56
1,63,108,1428
1,58,114,76
1,61,121,4
1,63,119,4
1,64,111,0
1,61,109,4
1,58,80,4
1,61,120,12
1,62,120,4
1,65,121,4
1,70,124,16
1,69,111,4
1,70,122,4
1,68,114,4
1,73,115,4
1,75,116,4
1,76,117,8
1,73,110,0
1,70,101,0
1,72,108,16
1,70,111,4
1,67,111,4
1,70,111,0
1,69,111,12
1,68,111,4
1,70,122,0
1,70,120,20
1,67,122,8
1,70,114,0
1,70,115,0
1,66,117,0
1,70,116,12
1,70,118,12
1,65,119,0
1,70,122,0
1,73,127,4
1,70,109,4
1,72,103,4
1,70,114,12
1,65,98,4
1,63,102,4
1,58,66,4
1,56,64,4
1,53,73,4
1,51,91,12
2,34,105,2652
2,29,101,12
2,34,96,8
2,29,99,8
2,34,91,8
2,39,86,8
2,37,93,8
2,36,98,8
2,35,98,8
2,34,88,8
2,38,97,12
2,41,94,8
2,43,91,8
2,41,76,8
2,43,91,8
2,34,96,8
2,38,98,8
2,41,86,8
2,43,86,8
2,41,87,8
2,43,84,8
2,39,85,8
2,37,89,8
2,36,89,8
2,34,91,8
2,36,85,8
2,38,88,8
2,39,90,8
2,34,91,8
2,39,88,12
2,36,92,8
2,35,92,8
2,34,96,8
2,38,90,20
2,41,84,8
2,43,84,8
2,41,77,8
2,43,90,8
2,34,83,8
2,38,98,8
2,41,83,8
2,43,88,8
2,41,84,8
2,43,86,8
2,41,84,8
2,36,88,8
2,41,88,8
2,36,88,8
2,41,98,8
2,40,85,8
2,39,85,8
2,37,86,8
2,36,84,16
2,35,88,8
2,34,88,8
2,38,91,8
2,39,86,8
2,40,80,8
2,41,86,8
2,41,78,80
2,41,84,40
2,41,74,48
2,41,86,60
2,41,72,44
2,41,99,84
2,29,95,8
2,29,94,48
2,34,117,8
2,38,99,12
2,41,98,24
2,40,95,8
2,39,95,20
2,37,97,8
2,36,88,8
2,35,98,8
2,34,102,8
2,38,98,8
2,41,91,8
2,43,88,8
2,41,88,8
2,43,91,8
2,34,100,8
2,38,104,12
2,41,93,8
2,41,86,56
2,43,91,8
2,41,80,8
2,43,91,8
2,39,88,8
2,37,96,12
2,36,98,8
2,34,100,8
2,38,90,12
2,39,96,8
2,37,93,8
2,36,95,8
2,35,97,8
2,34,109,8
2,38,98,8
2,41,98,8
2,43,88,8
2,41,86,8
2,43,92,16
2,34,93,8
2,38,91,8
2,41,99,8
2,43,96,8
2,41,85,8
2,43,91,16
2,41,91,8
2,41,91,64
2,41,86,20
2,36,87,8
2,41,95,20
2,36,82,8
2,41,95,8
2,39,90,8
2,37,87,8
2,36,88,8
2,35,98,8
2,34,88,8
2,38,91,8
2,39,93,8
2,40,103,8
2,41,95,8
2,41,71,48
2,41,91,44
2,41,74,68
2,41,88,52
2,41,73,76
2,41,94,92
2,36,93,8
2,41,96,8
2,46,100,8
2,46,105,60
2,44,91,16
2,44,102,68
2,43,97,8
2,43,104,80
2,41,92,8
2,44,100,8
2,45,91,8
2,46,100,8
2,46,93,52
2,44,95,8
2,44,92,88
2,43,91,8
2,43,106,72
2,41,98,8
2,44,92,8
2,45,91,12
2,46,102,8
2,46,95,40
2,44,90,12
2,44,93,72
2,43,98,8
2,43,101,80
2,41,95,8
2,44,93,8
2,45,91,16
2,46,79,8
2,46,83,32
2,46,97,60
2,44,88,8
2,44,90,40
2,44,99,72
2,43,99,8
2,43,98,52
2,43,102,72
2,41,99,8
2,41,94,40
2,41,98,84
2,39,102,8
2,37,100,8
2,36,98,8
2,34,86,8
2,36,97,8
2,38,97,8
2,39,86,8
2,37,107,8
2,36,98,12
2,35,96,8
2,34,99,8
2,38,109,8
2,41,95,28
2,43,95,8
2,41,91,8
2,43,96,8
2,34,85,8
2,38,98,20
2,41,98,8
2,43,98,8
2,41,95,8
2,43,97,8
2,41,95,8
2,41,72,44
2,41,97,40
2,41,75,48
2,41,91,60
2,41,71,56
2,41,97,80
2,36,89,8
2,41,98,12
2,39,97,8
2,39,102,76
2,37,99,8
2,37,102,88
2,36,96,8
2,36,105,72
2,35,98,8
2,33,109,8
2,34,117,8
2,38,98,8
2,39,74,8
2,39,105,24
2,40,86,8
2,40,98,28
2,41,91,8
2,41,74,24
2,41,78,40
2,41,101,64
2,41,103,64
2,41,88,32
2,41,88,52
2,41,96,64
2,41,91,36
2,41,91,64
2,41,108,80
2,36,109,8
2,29,105,8
2,34,103,8
2,34,92,88
2,38,103,8
2,38,104,116
2,41,96,8
2,41,101,104
2,40,92,8
2,39,99,8
2,39,97,80
2,37,92,12
2,37,96,100
2,36,88,8
2,36,97,104
2,35,95,8
2,33,103,28
2,34,102,8
2,34,96,116
2,38,97,8
2,38,98,92
2,41,91,8
2,41,97,88
2,43,84,8
2,41,83,8
2,43,98,8
2,34,93,8
2,34,95,104
2,38,91,8
2,38,96,88
2,41,97,8
2,41,98,96
2,43,95,8
2,41,88,8
2,43,102,8
2,39,99,28
2,39,100,104
2,37,86,8
2,37,95,84
2,36,95,8
2,36,96,96
2,34,93,8
2,36,93,8
2,38,97,12
2,39,80,8
2,39,103,60
2,37,102,8
2,37,99,112
2,36,91,8
2,36,89,100
2,35,102,8
2,33,101,16
2,34,90,8
2,34,85,112
2,38,89,8
2,38,91,96
2,41,98,8
2,41,94,96
2,43,88,8
2,41,79,8
2,43,94,12
2,34,84,8
2,34,81,92
2,38,91,8
2,38,91,92
2,41,94,8
2,41,86,80
2,43,91,8
2,41,86,8
2,43,92,12
2,41,92,8
2,41,79,60
2,41,90,48
2,41,69,72
2,41,88,52
2,41,81,64
2,41,96,72
2,36,85,8
2,41,92,16
2,39,86,8
2,39,96,104
2,37,100,8
2,37,91,84
2,36,91,8
2,36,93,92
2,35,104,8
2,33,103,12
2,34,107,8
2,34,102,92
2,38,99,8
2,38,98,68
2,39,103,8
2,39,107,72
2,40,98,12
2,40,110,60
2,41,89,8
2,41,76,36
2,41,83,60
2,41,102,64
2,41,71,32
2,41,88,68
2,41,98,56
2,41,77,44
2,41,95,80
2,41,98,76
2,36,96,8
2,41,104,8
2,46,102,8
2,46,105,60
2,44,93,8
2,44,97,96
2,43,87,8
2,43,102,68
2,41,101,8
2,44,102,8
2,45,98,12
2,46,100,8
2,46,102,60
2,44,92,8
2,44,96,92
2,43,83,8
2,43,94,76
2,41,89,8
2,44,102,8
2,45,93,20
2,46,95,8
2,46,102,64
2,44,96,12
2,44,92,84
2,43,90,8
2,43,104,92
2,41,93,8
2,44,97,8
2,45,96,16
2,46,88,8
2,46,95,36
2,46,95,48
2,44,89,8
2,44,83,28
2,44,96,52
2,43,91,12
2,43,98,40
2,43,91,76
2,42,111,8
2,41,97,8
2,40,98,8
2,39,93,8
2,39,86,100
2,37,85,8
2,37,102,96
2,36,98,8
2,36,99,96
2,34,92,8
2,36,94,16
2,38,98,8
2,39,88,8
2,39,100,60
2,37,105,8
2,37,107,100
2,36,102,8
2,36,97,84
2,35,97,8
2,35,97,96
2,34,95,8
2,34,93,60
2,38,98,8
2,38,101,80
2,41,97,8
2,41,98,92
2,43,91,20
2,41,98,8
2,43,97,8
2,34,93,8
2,34,99,112
2,38,98,8
2,38,103,104
2,41,99,8
2,41,99,112
2,43,91,20
2,41,98,8
2,43,96,16
2,41,99,8
2,41,84,20
2,41,87,36
2,41,95,80
2,41,79,48
2,41,92,68
2,41,77,72
2,41,94,68
2,36,82,8
2,41,95,12
2,39,96,8
2,39,97,96
2,37,102,8
2,37,103,72
2,36,96,8
2,36,97,68
2,35,98,8
2,35,92,64
2,34,97,8
2,34,103,104
2,38,98,8
2,38,98,96
2,39,97,8
2,39,102,92
2,40,88,8
2,40,99,84
2,41,97,8
2,29,84,8
2,29,86,64
2,29,110,64
2,29,89,36
2,29,112,60
2,29,115,56
2,29,94,40
2,29,113,64
2,29,110,84
2,31,110,8
2,33,124,8
2,34,97,8
2,34,100,84
2,38,103,8
2,38,96,76
2,41,95,8
2,41,93,88
2,43,97,8
2,41,91,8
2,38,103,8
2,34,103,8
2,34,103,96
2,38,98,8
2,38,98,80
2,41,93,8
2,41,91,96
2,43,96,8
2,41,91,8
2,38,94,8
2,34,99,8
2,34,100,88
2,38,98,8
2,38,101,92
2,41,97,8
2,41,98,104
2,43,93,8
2,41,82,8
2,43,87,8
2,46,85,8
2,46,102,32
2,44,100,8
2,44,105,80
2,43,94,8
2,43,78,44
2,43,101,68
