track,note,velocity,time
1,62,94,0
1,60,94,780
1,64,94,0
1,67,94,0
1,67,94,12
1,64,94,0
1,60,94,0
1,62,94,12
1,66,94,0
1,69,94,0
1,81,94,396
1,77,94,0
1,77,94,12
1,74,94,0
1,81,94,12
1,77,94,0
1,77,94,12
1,74,94,0
1,82,94,12
1,79,94,0
1,79,94,12
1,76,94,0
1,82,94,12
1,79,94,0
1,79,94,12
1,76,94,0
1,73,94,12
1,76,94,12
1,79,94,12
1,82,94,12
1,82,94,12
1,81,94,12
1,77,94,12
1,74,94,12
1,74,94,12
1,77,94,0
1,74,94,12
1,71,94,0
1,77,94,12
1,74,94,0
1,74,94,12
1,71,94,0
1,79,94,12
1,74,94,0
1,74,94,12
1,70,94,0
1,79,94,12
1,74,94,0
1,74,94,12
1,70,94,0
1,69,94,12
1,73,94,12
1,76,94,12
1,79,94,12
1,79,94,12
1,77,1,12
1,74,94,12
1,69,1,12
1,81,94,12
1,77,94,0
1,77,94,12
1,74,94,0
1,81,94,12
1,77,94,0
1,77,94,12
1,74,94,0
1,82,94,12
1,79,94,0
1,79,94,12
1,76,94,0
1,82,94,12
1,79,94,0
1,79,94,12
1,76,94,0
1,73,94,12
1,76,94,12
1,79,94,12
1,82,94,12
1,82,94,12
1,81,94,12
1,77,94,12
1,74,94,12
1,74,94,12
1,77,94,0
1,74,94,12
1,71,94,0
1,77,94,12
1,74,94,0
1,74,94,12
1,71,94,0
1,79,94,12
1,74,94,0
1,74,94,12
1,70,94,0
1,79,94,12
1,74,94,0
1,74,94,12
1,70,94,0
1,73,94,12
1,76,94,12
1,79,94,12
1,85,94,12
1,86,94,12
1,78,94,0
1,81,94,15372
1,77,94,0
1,77,94,12
1,74,94,0
1,81,94,12
1,77,94,0
1,77,94,12
1,74,94,0
1,82,94,12
1,79,94,0
1,79,94,12
1,76,94,0
1,82,94,12
1,79,94,0
1,79,94,12
1,76,94,0
1,73,94,12
1,76,94,12
1,79,94,12
1,82,94,12
1,82,94,12
1,81,94,12
1,77,94,12
1,74,94,12
1,74,94,12
1,77,94,0
1,74,94,12
1,71,94,0
1,77,94,12
1,74,94,0
1,74,94,12
1,71,94,0
1,79,94,12
1,74,94,0
1,74,94,12
1,70,94,0
1,79,94,12
1,74,94,0
1,74,94,12
1,70,94,0
1,69,94,12
1,73,94,12
1,76,94,12
1,79,94,12
1,79,94,12
1,77,1,12
1,74,94,12
1,69,1,12
1,81,94,12
1,77,94,0
1,77,94,12
1,74,94,0
1,81,94,12
1,77,94,0
1,77,94,12
1,74,94,0
1,82,94,12
1,79,94,0
1,79,94,12
1,76,94,0
1,82,94,12
1,79,94,0
1,79,94,12
1,76,94,0
1,73,94,12
1,76,94,12
1,79,94,12
1,82,94,12
1,82,94,12
1,81,94,12
1,77,94,12
1,74,94,12
1,74,94,12
1,77,94,0
1,74,94,12
1,71,94,0
1,77,94,12
1,74,94,0
1,74,94,12
1,71,94,0
1,79,94,12
1,74,94,0
1,74,94,12
1,70,94,0
1,79,94,12
1,74,94,0
1,74,94,12
1,70,94,0
1,73,94,12
1,76,94,12
1,79,94,12
1,85,94,12
1,86,94,12
1,78,94,0
1,81,94,15372
1,77,94,0
1,77,94,12
1,74,94,0
1,81,94,12
1,77,94,0
1,77,94,12
1,74,94,0
1,82,94,12
1,79,94,0
1,79,94,12
1,76,94,0
1,82,94,12
1,79,94,0
1,79,94,12
1,76,94,0
1,73,94,12
1,76,94,12
1,79,94,12
1,82,94,12
1,82,94,12
1,81,94,12
1,77,94,12
1,74,94,12
1,74,94,12
1,77,94,0
1,74,94,12
1,71,94,0
1,77,94,12
1,74,94,0
1,74,94,12
1,71,94,0
1,79,94,12
1,74,94,0
1,74,94,12
1,70,94,0
1,79,94,12
1,74,94,0
1,74,94,12
1,70,94,0
1,69,94,12
1,73,94,12
1,76,94,12
1,79,94,12
1,79,94,12
1,77,1,12
1,74,94,12
1,69,1,12
1,81,94,12
1,77,94,0
1,77,94,12
1,74,94,0
1,81,94,12
1,77,94,0
1,77,94,12
1,74,94,0
1,82,94,12
1,79,94,0
1,79,94,12
1,76,94,0
1,82,94,12
1,79,94,0
1,79,94,12
1,76,94,0
1,73,94,12
1,76,94,12
1,79,94,12
1,82,94,12
1,82,94,12
1,81,94,12
1,77,94,12
1,74,94,12
1,74,94,12
1,77,94,0
1,74,94,12
1,71,94,0
1,77,94,12
1,74,94,0
1,74,94,12
1,71,94,0
1,79,94,12
1,74,94,0
1,74,94,12
1,70,94,0
1,79,94,12
1,74,94,0
1,74,94,12
1,70,94,0
1,73,94,12
1,76,94,12
1,79,94,12
1,85,94,12
1,86,94,12
1,78,94,0
1,62,94,12300
1,64,1,780
1,67,1,0
1,72,1,0
1,62,1,12
1,66,1,0
1,69,1,0
1,62,94,204
1,64,1,780
1,67,1,0
1,72,1,0
1,62,1,12
1,66,1,0
1,69,1,0
1,81,94,15564
1,77,94,0
1,77,94,12
1,74,94,0
1,81,94,12
1,77,94,0
1,77,94,12
1,74,94,0
1,82,94,12
1,79,94,0
1,79,94,12
1,76,94,0
1,82,94,12
1,79,94,0
1,79,94,12
1,76,94,0
1,73,94,12
1,76,94,12
1,79,94,12
1,82,94,12
1,82,94,12
1,81,94,12
1,77,94,12
1,74,94,12
1,74,94,12
1,77,94,0
1,74,94,12
1,71,94,0
1,77,94,12
1,74,94,0
1,74,94,12
1,71,94,0
1,79,94,12
1,74,94,0
1,74,94,12
1,70,94,0
1,79,94,12
1,74,94,0
1,74,94,12
1,70,94,0
1,69,94,12
1,73,94,12
1,76,94,12
1,79,94,12
1,79,94,12
1,77,1,12
1,74,94,12
1,69,1,12
1,81,94,12
1,77,94,0
1,77,94,12
1,74,94,0
1,81,94,12
1,77,94,0
1,77,94,12
1,74,94,0
1,82,94,12
1,79,94,0
1,79,94,12
1,76,94,0
1,82,94,12
1,79,94,0
1,79,94,12
1,76,94,0
1,73,94,12
1,76,94,12
1,79,94,12
1,82,94,12
1,82,94,12
1,81,94,12
1,77,94,12
1,74,94,12
1,74,94,12
1,77,94,0
1,74,94,12
1,71,94,0
1,77,94,12
1,74,94,0
1,74,94,12
1,71,94,0
1,79,94,12
1,74,94,0
1,74,94,12
1,70,94,0
1,79,94,12
1,74,94,0
1,74,94,12
1,70,94,0
1,73,94,12
1,76,94,12
1,79,94,12
1,85,94,12
1,86,94,12
1,78,94,0
1,62,94,12396
1,67,94,0
1,71,94,0
1,62,94,12
1,67,94,0
1,71,94,0
1,69,94,12
1,66,94,0
1,62,94,0
1,69,94,12
1,66,94,0
1,62,94,0
1,62,94,108
1,67,94,0
1,71,94,0
1,62,94,12
1,67,94,0
1,71,94,0
1,62,94,12
1,66,94,0
1,69,94,0
1,62,94,12
1,69,94,0
1,66,94,0
1,62,94,108
1,67,94,0
1,71,94,0
1,62,94,12
1,67,94,0
1,71,94,0
1,62,94,108
1,59,94,0
1,62,94,12
1,59,94,0
1,62,94,12
1,59,94,0
1,62,125,12
1,65,125,0
1,62,94,12
1,65,94,0
1,62,94,204
1,59,94,0
1,59,94,12
1,62,94,0
1,59,94,12
1,62,94,0
1,62,94,12
1,65,94,0
1,62,94,12
1,65,94,0
1,62,94,12
1,65,94,0
1,62,94,204
1,67,94,0
1,71,94,0
1,62,94,12
1,67,94,0
1,71,94,0
1,69,94,12
1,66,94,0
1,62,94,0
1,69,94,12
1,66,94,0
1,62,94,0
1,62,94,108
1,67,94,0
1,71,94,0
1,62,94,12
1,67,94,0
1,71,94,0
1,62,94,12
1,66,94,0
1,69,94,0
1,62,94,12
1,69,94,0
1,66,94,0
1,62,94,108
1,67,94,0
1,71,94,0
1,62,94,12
1,67,94,0
1,71,94,0
1,62,94,108
1,59,94,0
1,62,94,12
1,59,94,0
1,62,94,12
1,59,94,0
1,62,125,12
1,65,125,0
1,62,94,12
1,65,94,0
1,71,120,1068
1,70,120,12
1,69,120,12
1,67,120,12
1,69,120,12
1,70,120,12
1,69,120,12
1,65,120,12
1,69,120,12
1,65,120,12
1,74,120,396
1,76,120,12
1,77,120,12
1,65,120,12
1,65,120,12
1,67,120,12
1,65,120,12
1,65,120,12
1,67,120,12
1,69,120,12
1,70,120,12
1,69,120,12
1,67,120,12
1,65,120,12
1,74,120,12
1,76,120,12
1,77,120,12
1,65,120,12
1,65,120,12
1,67,120,12
1,65,120,12
1,65,120,204
1,67,120,12
1,69,120,12
1,70,120,12
1,69,120,12
1,73,120,12
1,81,94,12
1,77,94,0
1,77,94,12
1,74,94,0
1,81,94,12
1,77,94,0
1,77,94,12
1,74,94,0
1,82,94,12
1,79,94,0
1,79,94,12
1,76,94,0
1,82,94,12
1,79,94,0
1,79,94,12
1,76,94,0
1,73,94,12
1,76,94,12
1,79,94,12
1,82,94,12
1,82,94,12
1,81,94,12
1,77,94,12
1,74,94,12
1,74,94,12
1,77,94,0
1,74,94,12
1,71,94,0
1,77,94,12
1,74,94,0
1,74,94,12
1,71,94,0
1,79,94,12
1,74,94,0
1,74,94,12
1,70,94,0
1,79,94,12
1,74,94,0
1,74,94,12
1,70,94,0
1,69,94,12
1,73,94,12
1,76,94,12
1,79,94,12
1,79,94,12
1,77,1,12
1,74,94,12
1,69,1,12
1,81,94,12
1,77,94,0
1,77,94,12
1,74,94,0
1,81,94,12
1,77,94,0
1,77,94,12
1,74,94,0
1,82,94,12
1,79,94,0
1,79,94,12
1,76,94,0
1,82,94,12
1,79,94,0
1,79,94,12
1,76,94,0
1,73,94,12
1,76,94,12
1,79,94,12
1,82,94,12
1,82,94,12
1,81,94,12
1,77,94,12
1,74,94,12
1,74,94,12
1,77,94,0
1,74,94,12
1,71,94,0
1,77,94,12
1,74,94,0
1,74,94,12
1,71,94,0
1,79,94,12
1,74,94,0
1,74,94,12
1,70,94,0
1,79,94,12
1,74,94,0
1,74,94,12
1,70,94,0
1,69,94,12
1,73,94,12
1,76,94,12
1,79,94,12
1,79,94,12
1,77,1,12
1,74,94,12
1,69,1,12
1,81,94,12
1,77,94,0
1,77,94,12
1,74,94,0
1,81,94,12
1,77,94,0
1,77,94,12
1,74,94,0
1,82,94,12
1,79,94,0
1,79,94,12
1,76,94,0
1,82,94,12
1,79,94,0
1,79,94,12
1,76,94,0
1,73,94,12
1,76,94,12
1,79,94,12
1,82,94,12
1,82,94,12
1,81,94,12
1,77,94,12
1,74,94,12
1,74,94,12
1,77,94,0
1,74,94,12
1,71,94,0
1,77,94,12
1,74,94,0
1,74,94,12
1,71,94,0
1,79,94,12
1,74,94,0
1,74,94,12
1,70,94,0
1,79,94,12
1,74,94,0
1,74,94,12
1,70,94,0
1,69,94,12
1,73,94,12
1,76,94,12
1,79,94,12
1,79,94,12
1,77,1,12
1,74,94,12
1,69,1,12
1,77,1,12
1,74,1,0
1,69,1,0
1,74,1,12
1,69,1,0
1,65,1,0
2,31,89,0
2,43,89,12
2,31,89,12
2,43,89,12
2,31,89,12
2,43,89,12
2,31,89,12
2,43,89,12
2,31,89,12
2,43,89,12
2,31,89,12
2,43,89,12
2,31,89,12
2,43,89,12
2,31,89,12
2,43,89,12
2,38,89,12
2,50,89,12
2,38,89,12
2,50,89,12
2,38,89,12
2,50,89,12
2,38,89,12
2,50,89,12
2,38,89,12
2,50,89,12
2,38,89,12
2,50,89,12
2,48,1,12
2,50,1,12
2,38,89,12
2,50,89,12
2,38,89,12
2,50,89,12
2,38,89,12
2,50,89,12
2,38,89,12
2,50,89,12
2,38,89,12
2,50,89,12
2,38,89,12
2,50,89,12
2,38,89,12
2,50,89,12
2,38,89,12
2,50,89,12
2,38,89,12
2,50,89,12
2,38,89,12
2,50,89,12
2,38,89,12
2,50,89,12
2,38,89,12
2,50,89,12
2,38,89,12
2,50,89,12
2,38,89,12
2,50,89,12
2,38,89,12
2,50,89,12
2,38,89,12
2,50,89,12
2,38,89,12
2,50,89,12
2,38,89,12
2,50,89,12
2,38,89,12
2,50,89,12
2,38,89,12
2,50,89,12
2,38,89,12
2,50,89,12
2,38,89,12
2,50,89,12
2,38,89,12
2,50,89,12
2,38,89,12
2,50,89,12
2,38,89,12
2,50,89,12
2,38,89,12
2,50,89,12
2,38,89,12
2,50,89,12
2,38,89,12
2,50,89,12
2,38,89,12
2,50,89,12
2,38,89,12
2,50,89,12
2,38,89,12
2,50,89,12
2,38,89,12
2,50,89,12
2,38,89,15372
2,50,89,12
2,38,89,12
2,50,89,12
2,38,89,12
2,50,89,12
2,38,89,12
2,50,89,12
2,38,89,12
2,50,89,12
2,38,89,12
2,50,89,12
2,38,89,12
2,50,89,12
2,38,89,12
2,50,89,12
2,38,89,12
2,50,89,12
2,38,89,12
2,50,89,12
2,38,89,12
2,50,89,12
2,38,89,12
2,50,89,12
2,38,89,12
2,50,89,12
2,38,89,12
2,50,89,12
2,38,89,12
2,50,89,12
2,38,89,12
2,50,89,12
2,38,89,12
2,50,89,12
2,38,89,12
2,50,89,12
2,38,89,12
2,50,89,12
2,38,89,12
2,50,89,12
2,38,89,12
2,50,89,12
2,38,89,12
2,50,89,12
2,38,89,12
2,50,89,12
2,38,89,12
2,50,89,12
2,38,89,12
2,50,89,12
2,38,89,12
2,50,89,12
2,38,89,12
2,50,89,12
2,38,89,12
2,50,89,12
2,38,89,12
2,50,89,12
2,38,89,12
2,50,89,12
2,38,89,12
2,50,89,12
2,38,89,12
2,50,89,12
2,38,89,15372
2,50,89,12
2,38,89,12
2,50,89,12
2,38,89,12
2,50,89,12
2,38,89,12
2,50,89,12
2,38,89,12
2,50,89,12
2,38,89,12
2,50,89,12
2,38,89,12
2,50,89,12
2,38,89,12
2,50,89,12
2,38,89,12
2,50,89,12
2,38,89,12
2,50,89,12
2,38,89,12
2,50,89,12
2,38,89,12
2,50,89,12
2,38,89,12
2,50,89,12
2,38,89,12
2,50,89,12
2,38,89,12
2,50,89,12
2,38,89,12
2,50,89,12
2,38,89,12
2,50,89,12
2,38,89,12
2,50,89,12
2,38,89,12
2,50,89,12
2,38,89,12
2,50,89,12
2,38,89,12
2,50,89,12
2,38,89,12
2,50,89,12
2,38,89,12
2,50,89,12
2,38,89,12
2,50,89,12
2,38,89,12
2,50,89,12
2,38,89,12
2,50,89,12
2,38,89,12
2,50,89,12
2,38,89,12
2,50,89,12
2,38,89,12
2,50,89,12
2,38,89,12
2,50,89,12
2,38,89,12
2,50,89,12
2,38,89,12
2,50,89,12
2,31,89,12300
2,43,89,12
2,31,89,12
2,43,89,12
2,31,89,12
2,43,89,12
2,31,89,12
2,43,89,12
2,31,89,12
2,43,89,12
2,31,89,12
2,43,89,12
2,31,89,12
2,43,89,12
2,31,89,12
2,43,89,12
2,38,89,12
2,50,89,12
2,38,89,12
2,50,89,12
2,38,89,12
2,50,89,12
2,38,89,12
2,50,89,12
2,38,89,12
2,50,89,12
2,38,89,12
2,50,89,12
2,48,1,12
2,50,1,12
2,31,89,12
2,43,89,12
2,31,89,12
2,43,89,12
2,31,89,12
2,43,89,12
2,31,89,12
2,43,89,12
2,31,89,12
2,43,89,12
2,31,89,12
2,43,89,12
2,31,89,12
2,43,89,12
2,31,89,12
2,43,89,12
2,38,89,12
2,50,89,12
2,38,89,12
2,50,89,12
2,38,89,12
2,50,89,12
2,38,89,12
2,50,89,12
2,38,89,12
2,50,89,12
2,38,89,12
2,50,89,12
2,48,1,12
2,50,1,12
2,38,89,15372
2,50,89,12
2,38,89,12
2,50,89,12
2,38,89,12
2,50,89,12
2,38,89,12
2,50,89,12
2,38,89,12
2,50,89,12
2,38,89,12
2,50,89,12
2,38,89,12
2,50,89,12
2,38,89,12
2,50,89,12
2,38,89,12
2,50,89,12
2,38,89,12
2,50,89,12
2,38,89,12
2,50,89,12
2,38,89,12
2,50,89,12
2,38,89,12
2,50,89,12
2,38,89,12
2,50,89,12
2,38,89,12
2,50,89,12
2,38,89,12
2,50,89,12
2,38,89,12
2,50,89,12
2,38,89,12
2,50,89,12
2,38,89,12
2,50,89,12
2,38,89,12
