track,note,velocity,time
1,43,119,3070
1,31,117,0
1,59,105,47
1,55,99,2
1,50,97,0
1,59,0,42
1,50,0,3
1,55,0,1
1,50,89,42
1,55,99,0
1,59,107,0
1,55,0,18
1,59,0,2
1,50,0,3
1,59,101,15
1,55,101,1
1,50,97,0
1,59,0,50
1,55,0,3
1,50,0,1
1,59,115,43
1,50,103,1
1,55,111,0
1,59,0,64
1,50,0,6
1,55,0,0
1,59,115,74
1,55,109,0
1,50,103,1
1,59,0,45
1,55,0,1
1,50,0,1
1,59,101,42
1,50,93,1
1,55,89,1
1,55,0,24
1,59,0,1
1,50,0,1
1,59,113,22
1,50,103,0
1,55,113,1
1,31,0,17
1,43,0,0
1,26,111,4
1,50,113,1
1,38,113,0
1,59,0,23
1,55,0,1
1,50,0,1
1,59,113,55
1,50,103,0
1,55,107,1
1,59,0,95
1,55,0,4
1,50,0,1
1,31,113,5
1,43,103,0
1,26,0,5
1,50,0,1
1,38,0,0
1,59,107,42
1,50,97,1
1,55,97,0
1,50,0,39
1,59,0,0
1,55,0,3
1,59,107,49
1,55,103,2
1,50,97,0
1,55,0,17
1,59,0,2
1,50,0,1
1,59,99,20
1,50,87,0
1,55,103,1
1,59,0,44
1,50,0,1
1,55,0,8
1,59,111,43
1,55,103,1
1,50,101,1
1,59,0,95
1,55,0,6
1,50,0,0
1,59,103,42
1,50,89,2
1,55,83,1
1,50,0,33
1,59,0,3
1,55,0,7
1,55,103,54
1,59,103,1
1,50,93,1
1,59,0,19
1,55,0,0
1,50,0,2
1,55,103,21
1,59,103,0
1,50,97,1
1,50,0,41
1,59,0,1
1,55,0,7
1,55,107,50
1,59,109,1
1,50,101,0
1,55,0,65
1,59,0,4
1,50,0,2
1,24,111,24
1,36,119,2
1,31,0,1
1,43,0,0
1,52,95,52
1,48,85,0
1,55,91,1
1,59,97,0
1,59,0,44
1,48,0,1
1,55,0,1
1,52,0,1
1,52,109,40
1,59,103,0
1,55,99,0
1,48,73,1
1,50,65,4
1,50,0,5
1,59,0,10
1,52,0,0
1,55,0,0
1,48,0,1
1,59,107,21
1,48,95,1
1,52,103,1
1,55,103,0
1,52,0,52
1,48,0,0
1,59,0,0
1,55,0,1
1,59,103,43
1,55,97,1
1,52,103,1
1,48,93,0
1,59,0,93
1,52,0,2
1,55,0,0
1,48,0,4
1,52,109,54
1,48,97,0
1,55,101,0
1,59,109,0
1,52,0,38
1,59,0,6
1,55,0,2
1,48,0,1
1,59,115,44
1,52,113,0
1,55,105,1
1,48,103,0
1,55,0,18
1,52,0,0
1,48,0,2
1,59,0,3
1,59,105,18
1,48,97,0
1,52,109,2
1,55,103,0
1,24,0,3
1,36,0,2
1,28,119,5
1,40,121,1
1,48,0,26
1,59,0,4
1,52,0,1
1,55,0,0
1,59,113,50
1,48,105,1
1,55,105,0
1,52,113,0
1,59,0,72
1,48,0,8
1,52,0,2
1,55,0,1
1,28,0,26
1,40,0,1
1,26,107,3
1,38,117,1
1,54,102,45
1,59,109,1
1,50,103,1
1,59,0,37
1,50,0,6
1,54,0,3
1,54,100,47
1,50,97,2
1,59,103,0
1,59,0,16
1,54,0,2
1,50,0,4
1,50,89,14
1,54,90,1
1,59,103,1
1,50,0,42
1,59,0,2
1,54,0,7
1,54,98,44
1,59,113,0
1,50,103,1
1,59,0,81
1,50,0,2
1,54,0,9
1,54,102,52
1,59,113,1
1,50,105,1
1,59,0,37
1,50,0,1
1,54,0,8
1,59,107,46
1,54,95,1
1,50,97,0
1,54,0,18
1,59,0,1
1,50,0,0
1,54,96,20
1,59,107,1
1,50,93,1
1,50,0,45
1,54,0,7
1,59,0,2
1,54,102,39
1,59,111,1
1,50,105,1
1,59,0,71
1,50,0,1
1,54,0,10
1,43,119,28
1,31,117,0
1,26,0,5
1,38,0,1
1,59,115,38
1,55,109,0
1,50,97,1
1,59,0,42
1,55,0,3
1,50,0,3
1,55,99,43
1,59,103,0
1,50,95,1
1,55,0,18
1,59,0,1
1,50,0,1
1,59,87,16
1,55,99,2
1,50,83,0
1,59,0,46
1,50,0,1
1,55,0,5
1,59,113,50
1,55,107,1
1,50,103,1
1,59,0,85
1,55,0,7
1,50,0,0
1,50,101,52
1,55,105,0
1,59,107,0
1,59,0,39
1,55,0,2
1,50,0,1
1,50,99,49
1,55,109,0
1,59,109,1
1,55,0,16
1,50,0,1
1,59,0,0
1,59,111,23
1,50,99,1
1,55,105,0
1,43,0,20
1,31,0,0
1,26,111,4
1,50,113,1
1,38,113,0
1,50,0,26
1,59,0,1
1,55,0,2
1,59,111,51
1,55,105,1
1,50,103,1
1,59,0,74
1,55,0,5
1,50,0,2
1,31,113,23
1,43,103,0
1,26,0,5
1,38,0,1
1,50,0,0
1,55,113,48
1,59,113,0
1,50,107,1
1,59,0,41
1,55,0,1
1,50,0,1
1,55,107,53
1,59,113,0
1,50,101,0
1,55,0,16
1,59,0,4
1,50,0,0
1,59,97,15
1,50,85,1
1,55,109,1
1,59,0,45
1,50,0,4
1,55,0,2
1,59,111,37
1,55,109,1
1,50,101,0
1,59,0,96
1,50,0,2
1,55,0,4
1,55,103,44
1,59,107,1
1,50,97,1
1,50,0,46
1,59,0,4
1,55,0,4
1,59,109,39
1,55,103,1
1,50,91,1
1,55,0,21
1,59,0,1
1,50,0,0
1,59,109,19
1,55,103,0
1,50,103,0
1,50,0,47
1,59,0,2
1,55,0,3
1,59,113,45
1,50,103,0
1,55,105,1
1,59,0,79
1,50,0,15
1,55,0,3
1,24,111,8
1,36,119,2
1,31,0,1
1,43,0,0
1,52,109,45
1,48,103,1
1,55,99,0
1,59,109,0
1,59,0,47
1,48,0,4
1,52,0,1
1,55,0,2
1,55,103,46
1,52,109,0
1,59,105,1
1,48,97,0
1,55,0,16
1,52,0,1
1,48,0,1
1,59,0,1
1,59,103,20
1,48,97,1
1,52,103,0
1,55,109,1
1,52,0,43
1,48,0,0
1,59,0,1
1,55,0,0
1,59,111,47
1,55,103,1
1,52,107,1
1,48,97,0
1,59,0,91
1,48,0,3
1,55,0,1
1,52,0,1
1,55,103,52
1,52,109,1
1,48,91,0
1,59,101,1
1,52,0,46
1,55,0,1
1,48,0,1
1,59,0,0
1,59,103,39
1,55,91,2
1,52,103,0
1,48,85,1
1,55,0,15
1,52,0,2
1,48,0,2
1,59,0,1
1,59,99,16
1,48,89,1
1,55,107,2
1,52,105,0
1,24,0,13
1,36,0,2
1,28,119,5
1,40,121,1
1,48,0,25
1,59,0,1
1,52,0,1
1,55,0,2
1,59,111,52
1,55,105,1
1,48,99,0
1,52,105,0
1,59,0,95
1,48,0,6
1,55,0,2
1,52,0,5
1,28,0,1
1,40,0,1
1,26,107,3
1,38,117,1
1,54,106,40
1,59,113,0
1,50,103,2
1,59,0,45
1,50,0,7
1,54,0,3
1,54,104,41
1,59,111,0
1,50,97,2
1,50,0,18
1,54,0,0
1,59,0,2
1,59,103,20
1,54,96,0
1,50,95,1
1,59,0,49
1,50,0,3
1,54,0,9
1,54,108,33
1,59,115,0
1,50,103,1
1,50,0,99
1,59,0,0
1,54,0,8
1,54,104,39
1,59,113,0
1,50,103,0
1,50,0,42
1,59,0,2
1,54,0,15
1,54,104,35
1,59,109,0
1,50,95,1
1,54,0,22
1,50,0,2
1,59,0,2
1,59,103,15
1,50,97,1
1,54,102,0
1,50,0,45
1,59,0,4
1,54,0,10
1,59,115,36
1,54,104,0
1,50,109,1
1,50,0,77
1,59,0,4
1,54,0,6
1,26,0,24
1,38,0,1
2,59,103,9214
2,31,93,0
2,55,97,0
2,50,93,1
2,43,95,1
2,59,0,440
2,55,0,7
2,50,0,2
2,31,0,15
2,43,0,7
2,60,95,88
2,55,91,2
2,52,85,0
2,52,0,21
2,55,0,1
2,60,0,2
2,59,81,22
2,55,93,1
2,50,71,4
2,50,0,11
2,55,0,1
2,59,0,3
2,60,103,19
2,52,89,2
2,55,91,1
2,60,0,35
2,55,0,2
2,52,0,3
2,59,97,7
2,50,95,1
2,55,91,0
2,31,97,4
2,43,103,2
2,43,0,358
2,31,0,0
2,50,0,55
2,55,0,1
2,59,0,19
2,60,107,5
2,55,107,2
2,52,103,0
2,24,97,1
2,36,109,2
2,36,0,97
2,24,0,3
2,52,0,20
2,55,0,1
2,60,0,10
2,64,115,401
2,60,111,1
2,55,103,1
2,64,0,62
2,60,0,10
2,55,0,5
2,25,89,11
2,37,100,3
2,37,0,40
2,25,0,1
2,62,107,2
2,57,105,1
2,54,96,2
2,26,105,1
2,38,103,0
2,28,75,4
2,28,0,6
2,62,0,88
2,57,0,4
2,38,0,3
2,54,0,2
2,26,0,0
2,60,111,418
2,52,105,1
2,55,103,0
2,55,0,102
2,52,0,3
2,60,0,0
2,59,103,15
2,31,93,0
2,55,97,0
2,50,93,1
2,43,95,1
2,59,0,440
2,55,0,7
2,50,0,2
2,31,0,15
2,43,0,7
2,60,95,88
2,55,91,2
2,52,85,0
2,52,0,21
2,55,0,1
2,60,0,2
2,59,81,22
2,55,93,1
2,50,71,4
2,50,0,11
2,55,0,1
2,59,0,3
2,60,103,19
2,52,89,2
2,55,91,1
2,60,0,35
2,55,0,2
2,52,0,3
2,59,97,7
2,50,95,1
2,55,91,0
2,31,97,4
2,43,103,2
2,43,0,358
2,31,0,0
2,50,0,55
2,55,0,1
2,59,0,19
2,60,107,5
2,55,107,2
2,52,103,0
2,24,97,1
2,36,109,2
2,36,0,97
2,24,0,3
2,52,0,20
2,55,0,1
2,60,0,10
2,64,115,401
2,60,111,1
2,55,103,1
2,64,0,62
2,60,0,10
2,55,0,5
2,25,89,11
2,37,100,3
2,37,0,40
2,25,0,1
2,62,107,2
2,57,105,1
2,54,96,2
2,26,105,1
2,38,103,0
2,28,75,4
2,28,0,6
2,62,0,88
2,57,0,4
2,38,0,3
2,54,0,2
2,26,0,0
2,60,111,418
2,52,105,1
2,55,103,0
2,55,0,102
2,52,0,3
2,60,0,0
2,59,103,18
2,31,93,0
2,55,97,0
2,50,93,1
2,43,95,1
2,59,0,440
2,55,0,7
2,50,0,2
2,31,0,15
2,43,0,7
2,60,95,88
2,55,91,2
2,52,85,0
2,52,0,21
2,55,0,1
2,60,0,2
2,59,81,22
2,55,93,1
2,50,71,4
2,50,0,11
2,55,0,1
2,59,0,3
2,60,103,19
2,52,89,2
2,55,91,1
2,60,0,35
2,55,0,2
2,52,0,3
2,59,97,7
2,50,95,1
2,55,91,0
2,31,97,4
2,43,103,2
2,43,0,358
2,31,0,0
2,50,0,55
2,55,0,1
2,59,0,19
2,60,107,5
2,55,107,2
2,52,103,0
2,24,97,1
2,36,109,2
2,36,0,97
2,24,0,3
2,52,0,20
2,55,0,1
2,60,0,10
2,64,115,401
2,60,111,1
2,55,103,1
2,64,0,62
2,60,0,10
2,55,0,5
2,25,89,11
2,37,100,3
2,37,0,40
2,25,0,1
2,62,107,2
2,57,105,1
2,54,96,2
2,26,105,1
2,38,103,0
2,28,75,4
2,28,0,6
2,62,0,88
2,57,0,4
2,38,0,3
2,54,0,2
2,26,0,0
2,60,111,418
2,52,105,1
2,55,103,0
2,55,0,102
2,52,0,3
2,60,0,0
2,28,115,27
2,67,109,0
2,62,113,1
2,64,113,0
2,59,111,0
2,40,113,1
2,67,0,142
2,59,0,16
2,64,0,1
2,62,0,0
2,28,0,16
2,40,0,6
2,64,107,46
2,62,99,1
2,67,99,0
2,59,97,0
2,28,111,24
2,40,101,1
2,67,0,39
2,59,0,5
2,40,0,1
2,62,0,3
2,28,0,1
2,64,0,0
2,26,103,14
2,38,111,0
2,62,109,2
2,67,105,1
2,59,113,0
2,67,0,123
2,59,0,4
2,62,0,11
2,26,0,33
2,38,0,1
2,62,111,18
2,67,103,0
2,59,111,1
2,38,105,31
2,26,85,1
2,38,0,33
2,67,0,4
2,26,0,5
2,59,0,1
2,62,0,11
2,24,103,10
2,36,113,4
2,64,115,2
2,59,113,1
2,60,105,1
2,67,107,0
2,24,0,160
2,60,0,25
2,59,0,4
2,67,0,2
2,64,0,9
2,36,0,20
2,62,113,99
2,67,111,0
2,35,105,1
2,59,105,0
2,35,0,106
2,67,0,11
2,59,0,9
2,62,0,6
2,24,87,164
2,36,113,5
2,60,113,1
2,67,105,0
2,64,113,0
2,59,113,0
2,24,0,105
2,59,0,7
2,60,0,1
2,67,0,6
2,64,0,8
2,36,0,25
2,35,113,123
2,62,113,1
2,67,113,2
2,59,103,0
2,67,0,90
2,59,0,12
2,62,0,11
2,35,0,13
2,33,111,3
2,67,113,0
2,64,117,0
2,61,108,1
2,57,107,1
2,61,0,100
2,64,0,2
2,67,0,2
2,33,0,4
2,57,0,3
2,66,106,4
2,62,113,0
2,26,103,1
2,57,113,0
2,38,113,0
2,69,105,1
2,57,0,19
2,62,0,9
2,66,0,9
2,69,0,2
2,26,0,99
2,74,107,20
2,62,109,0
2,62,0,22
2,38,0,0
2,74,0,4
2,73,116,34
2,62,113,1
2,66,114,1
2,66,0,69
2,62,0,4
2,73,0,0
2,26,105,52
2,62,117,0
2,66,110,0
2,72,113,0
2,38,121,0
2,72,0,86
2,66,0,1
2,62,0,2
2,38,0,1
2,26,0,1
2,59,103,169
2,31,93,0
2,55,97,0
2,50,93,1
2,43,95,1
2,59,0,440
2,55,0,7
2,50,0,2
2,31,0,15
2,43,0,7
2,60,95,88
2,55,91,2
2,52,85,0
2,52,0,21
2,55,0,1
2,60,0,2
2,59,81,22
2,55,93,1
2,50,71,4
2,50,0,11
2,55,0,1
2,59,0,3
2,60,103,19
2,52,89,2
2,55,91,1
2,60,0,35
2,55,0,2
2,52,0,3
2,59,97,7
2,50,95,1
2,55,91,0
2,31,97,4
2,43,103,2
2,43,0,358
2,31,0,0
2,50,0,55
2,55,0,1
2,59,0,19
2,60,107,5
2,55,107,2
2,52,103,0
2,24,97,1
2,36,109,2
2,36,0,97
2,24,0,3
2,52,0,20
2,55,0,1
2,60,0,10
2,64,115,401
2,60,111,1
2,55,103,1
2,64,0,62
2,60,0,10
2,55,0,5
2,25,89,11
2,37,100,3
2,37,0,40
2,25,0,1
2,62,107,2
2,57,105,1
2,54,96,2
2,26,105,1
2,38,103,0
2,28,75,4
2,28,0,6
2,62,0,88
2,57,0,4
2,38,0,3
2,54,0,2
2,26,0,0
2,60,111,418
2,52,105,1
2,55,103,0
2,55,0,102
2,52,0,3
2,60,0,0
2,59,103,18
2,31,93,0
2,55,97,0
2,50,93,1
2,43,95,1
2,59,0,440
2,55,0,7
2,50,0,2
2,31,0,15
2,43,0,7
2,60,95,88
2,55,91,2
2,52,85,0
2,52,0,21
2,55,0,1
2,60,0,2
2,59,81,22
2,55,93,1
2,50,71,4
2,50,0,11
2,55,0,1
2,59,0,3
2,60,103,19
2,52,89,2
2,55,91,1
2,60,0,35
2,55,0,2
2,52,0,3
2,59,97,7
2,50,95,1
2,55,91,0
2,31,97,4
2,43,103,2
2,43,0,358
2,31,0,0
2,50,0,55
2,55,0,1
2,59,0,19
2,60,107,5
2,55,107,2
2,52,103,0
2,24,97,1
2,36,109,2
2,36,0,97
2,24,0,3
2,52,0,20
2,55,0,1
2,60,0,10
2,64,115,401
2,60,111,1
2,55,103,1
2,64,0,62
2,60,0,10
2,55,0,5
2,25,89,11
2,37,100,3
2,37,0,40
2,25,0,1
2,62,107,2
2,57,105,1
2,54,96,2
2,26,105,1
2,38,103,0
2,28,75,4
2,28,0,6
2,62,0,88
2,57,0,4
2,38,0,3
2,54,0,2
2,26,0,0
2,60,111,418
2,52,105,1
2,55,103,0
2,55,0,102
2,52,0,3
2,60,0,0
2,28,115,27
2,67,109,0
2,62,113,1
2,64,113,0
2,59,111,0
2,40,113,1
2,67,0,142
2,59,0,16
2,64,0,1
2,62,0,0
2,28,0,16
2,40,0,6
2,64,107,46
2,62,99,1
2,67,99,0
2,59,97,0
2,28,111,24
2,40,101,1
2,67,0,39
2,59,0,5
2,40,0,1
2,62,0,3
2,28,0,1
2,64,0,0
