track,note,velocity,time
1,72,95,0
1,72,95,0
1,72,95,0
1,72,95,0
1,74,95,0
1,76,95,0
1,76,95,0
1,74,95,0
1,72,95,0
1,72,95,0
1,72,95,0
1,72,95,0
1,72,95,0
1,72,95,0
1,74,95,0
1,71,95,0
1,69,95,0
1,67,95,0
1,67,95,0
1,72,95,0
1,72,95,0
1,72,95,0
1,72,95,0
1,74,95,0
1,76,95,0
1,76,95,0
1,74,95,0
1,72,95,0
1,72,95,0
1,72,95,0
1,72,95,0
1,72,95,0
1,74,95,0
1,71,95,0
1,60,95,1536
1,60,95,0
1,60,95,0
1,60,95,0
1,60,95,0
1,67,95,0
1,64,95,0
1,60,95,192
1,60,95,0
1,60,95,0
1,60,95,0
1,62,95,0
1,62,95,0
1,60,95,0
1,60,95,384
1,60,95,0
1,60,95,0
1,60,95,0
1,60,95,0
1,60,95,0
1,67,95,0
1,67,95,0
1,64,95,0
1,60,95,192
1,60,95,0
1,60,95,0
1,60,95,0
1,62,95,0
1,62,95,0
1,60,95,768
1,60,95,0
1,60,95,0
1,60,95,0
1,60,95,0
1,67,95,0
1,64,95,0
1,60,95,192
1,60,95,0
1,60,95,0
1,60,95,0
1,62,95,0
1,62,95,0
1,60,95,0
1,60,95,384
1,60,95,0
1,60,95,0
1,60,95,0
1,60,95,0
1,60,95,0
1,67,95,0
1,67,95,0
1,64,95,0
1,60,95,192
1,60,95,0
1,60,95,0
1,60,95,0
1,62,95,0
1,62,95,0
1,67,95,384
1,76,95,0
1,77,95,0
1,79,95,0
1,76,95,0
1,72,95,0
1,60,95,384
1,60,95,0
1,60,95,0
1,62,95,1536
1,60,95,0
1,60,95,0
1,64,95,1536
1,60,95,384
1,60,95,0
1,60,95,2688
1,60,95,0
1,60,95,384
1,60,95,0
1,60,95,0
1,69,95,0
1,65,95,0
1,65,95,0
1,65,95,0
1,67,95,0
1,64,95,384
1,60,95,384
1,60,95,0
1,60,95,0
1,60,95,0
1,60,95,0
1,60,95,0
1,62,95,0
1,60,95,384
1,60,95,384
1,60,95,0
1,60,95,192
1,67,95,0
1,64,95,384
1,60,95,384
1,60,95,0
1,60,95,0
1,60,95,0
1,62,95,0
1,62,95,0
1,69,95,0
1,67,95,0
1,76,95,0
1,77,95,0
1,79,95,0
1,76,95,0
1,72,95,0
1,60,95,384
1,60,95,768
1,60,95,0
1,59,95,1536
1,60,95,0
1,60,95,0
1,64,95,1536
1,60,95,384
1,60,95,0
1,60,95,2688
1,60,95,0
1,67,95,576
1,67,95,0
1,67,95,0
1,67,95,0
1,67,95,0
1,67,95,0
1,65,95,0
1,65,95,0
1,67,95,0
1,65,95,0
1,65,95,0
1,65,95,0
1,65,95,0
1,62,95,0
1,65,95,0
1,64,95,0
1,55,95,0
1,55,95,0
1,64,95,576
1,64,95,0
1,64,95,0
1,64,95,0
1,62,95,0
1,62,95,0
1,57,95,0
1,57,95,0
1,57,95,384
1,57,95,0
1,62,95,384
1,60,95,0
1,57,95,0
1,57,95,0
1,57,95,0
1,57,95,384
1,57,95,0
1,67,95,0
1,67,95,0
1,67,95,0
1,67,95,0
1,67,95,0
1,67,95,0
1,67,95,0
1,65,95,0
1,65,95,0
1,67,95,0
1,65,95,0
1,65,95,0
1,65,95,0
1,69,95,0
1,62,95,0
1,65,95,0
1,64,95,0
1,55,95,0
1,55,95,0
1,64,95,1152
1,62,95,0
1,62,95,0
1,64,95,0
1,64,95,0
1,64,95,0
1,64,95,0
1,64,95,0
1,64,95,0
1,64,95,0
1,64,95,0
1,62,95,0
1,62,95,0
1,67,95,384
1,65,95,0
1,64,95,0
1,62,95,0
1,60,95,0
1,60,95,0
1,60,95,0
1,60,95,0
1,67,95,192
1,64,95,384
1,60,95,384
1,60,95,0
1,60,95,0
1,60,95,0
1,62,95,0
1,62,95,0
1,62,95,0
1,60,95,0
1,60,95,384
1,60,95,0
1,60,95,0
1,60,95,192
1,67,95,0
1,67,95,0
1,64,95,0
1,60,95,384
1,60,95,0
1,60,95,0
1,60,95,0
1,62,95,0
1,59,95,0
1,76,95,768
1,77,95,0
1,79,95,0
1,76,95,0
1,72,95,0
1,60,95,384
1,60,95,0
1,60,95,0
1,62,95,1536
1,60,95,0
1,60,95,0
1,64,95,1536
1,60,95,384
1,60,95,0
1,60,95,2688
1,60,95,0
1,60,95,384
1,60,95,0
1,67,76,384
1,67,76,0
1,67,76,0
1,67,76,0
1,67,76,0
1,67,76,0
1,67,76,0
1,67,76,0
1,65,76,0
1,65,76,0
1,65,76,0
1,65,76,0
1,65,76,0
1,65,76,0
1,65,76,0
1,65,76,0
1,64,76,192
1,55,76,0
1,55,76,0
1,64,76,576
1,64,76,0
1,64,76,0
1,64,76,0
1,62,76,0
1,62,76,0
1,57,76,0
1,57,76,0
1,57,76,384
1,57,76,0
1,62,76,384
1,60,76,0
1,57,76,0
1,57,76,0
1,57,76,0
1,57,76,384
1,57,76,0
1,67,76,0
1,67,76,0
1,67,76,0
1,67,76,0
1,67,76,0
1,67,76,0
1,67,76,0
1,65,76,0
1,65,76,0
1,67,76,0
1,65,76,0
1,65,76,0
1,65,76,0
1,69,76,0
1,62,76,0
1,65,76,0
1,64,76,0
1,55,76,0
1,55,76,0
1,64,76,1152
1,62,76,0
1,62,76,0
1,64,76,0
1,64,76,0
1,64,76,0
1,64,76,0
1,64,76,0
1,64,76,0
1,64,76,0
1,64,76,0
1,62,76,0
1,62,76,0
1,67,76,384
1,65,76,0
1,64,76,0
1,62,76,0
1,60,76,0
1,60,76,0
1,60,76,0
1,60,76,0
1,60,76,0
1,67,76,0
1,64,76,0
1,60,76,192
1,60,76,0
1,60,76,0
1,60,76,0
1,62,76,0
1,62,76,0
1,60,76,0
1,60,76,384
1,60,76,0
1,60,76,0
1,60,76,0
1,60,76,0
1,60,76,0
1,67,76,0
1,67,76,0
1,64,76,0
1,60,76,192
1,60,76,0
1,60,76,0
1,60,76,0
1,62,76,0
1,62,76,0
1,67,76,384
1,76,76,0
1,77,76,0
1,79,76,0
1,76,76,0
1,72,76,0
1,60,76,384
1,60,76,0
1,60,76,0
1,62,76,1536
1,60,76,0
1,60,76,0
1,64,76,1536
1,60,76,384
1,60,76,0
1,60,88,2688
1,60,88,0
1,64,76,1536
1,60,63,384
1,60,63,0
1,60,38,2688
1,60,38,0
1,64,25,1536
1,60,12,384
1,60,12,0
2,77,95,0
2,77,95,0
2,77,95,0
2,77,95,0
2,79,95,0
2,81,95,0
2,81,95,0
2,79,95,0
2,76,95,0
2,76,95,0
2,77,95,0
2,77,95,0
2,77,95,0
2,77,95,0
2,79,95,0
2,74,95,0
2,72,95,384
2,72,95,0
2,77,95,0
2,77,95,0
2,77,95,0
2,77,95,0
2,79,95,0
2,81,95,0
2,81,95,0
2,79,95,0
2,76,95,0
2,76,95,0
2,77,95,0
2,77,95,0
2,77,95,0
2,79,95,0
2,74,95,0
2,65,95,1536
2,65,95,0
2,65,95,0
2,65,95,0
2,65,95,0
2,72,95,0
2,69,95,0
2,65,95,192
2,65,95,0
2,65,95,0
2,65,95,0
2,65,95,0
2,67,95,384
2,69,95,0
2,64,95,0
2,65,95,384
2,65,95,0
2,65,95,0
2,65,95,0
2,65,95,0
2,67,95,0
2,72,95,0
2,69,95,0
2,65,95,192
2,65,95,0
2,65,95,0
2,65,95,0
2,67,95,192
2,65,95,768
2,65,95,0
2,65,95,0
2,65,95,0
2,65,95,0
2,72,95,0
2,69,95,0
2,65,95,192
2,65,95,0
2,65,95,0
2,65,95,0
2,65,95,0
2,67,95,384
2,69,95,0
2,64,95,0
2,65,95,384
2,65,95,0
2,65,95,0
2,65,95,0
2,65,95,0
2,67,95,0
2,72,95,0
2,69,95,0
2,65,95,192
2,65,95,0
2,65,95,0
2,65,95,0
2,67,95,192
2,64,95,2496
2,65,95,0
2,65,95,0
2,67,95,1536
2,64,95,0
2,64,95,0
2,67,95,1536
2,65,95,384
2,65,95,0
2,64,95,2688
2,64,95,0
2,64,95,384
2,64,95,0
2,64,95,0
2,72,95,0
2,69,95,0
2,69,95,0
2,69,95,0
2,72,95,0
2,69,95,384
2,65,95,384
2,65,95,0
2,65,95,0
2,65,95,0
2,65,95,0
2,65,95,0
2,67,95,0
2,64,95,384
2,65,95,384
2,65,95,0
2,65,95,0
2,72,95,576
2,69,95,384
2,65,95,384
2,65,95,0
2,65,95,0
2,65,95,0
2,67,95,192
2,64,95,2304
2,65,95,768
2,65,95,0
2,62,95,1536
2,64,95,0
2,64,95,0
2,67,95,1536
2,65,95,384
2,65,95,0
2,64,95,2688
2,64,95,0
2,72,95,576
2,72,95,0
2,72,95,0
2,71,95,0
2,71,95,0
2,71,95,0
2,69,95,384
2,69,95,0
2,69,95,0
2,69,95,0
2,69,95,0
2,69,95,192
2,67,95,0
2,60,95,0
2,60,95,0
2,67,95,576
2,67,95,0
2,67,95,0
2,66,95,0
2,66,95,0
2,66,95,0
2,62,95,0
2,62,95,0
2,62,95,384
2,62,95,0
2,65,95,384
2,65,95,0
2,60,95,0
2,60,95,0
2,60,95,0
2,60,95,384
2,60,95,0
2,71,95,384
2,71,95,0
2,71,95,0
2,71,95,0
2,71,95,0
2,71,95,0
2,71,95,0
2,69,95,0
2,69,95,0
2,69,95,0
2,69,95,0
2,72,95,0
2,69,95,192
2,67,95,0
2,60,95,0
2,60,95,0
2,66,95,1152
2,66,95,0
2,66,95,0
2,66,95,0
2,66,95,0
2,66,95,0
2,66,95,0
2,66,95,0
2,66,95,0
2,66,95,0
2,65,95,0
2,65,95,0
2,65,95,0
2,72,95,384
2,69,95,0
2,67,95,0
2,67,95,0
2,65,95,0
2,65,95,0
2,65,95,0
2,72,95,384
2,69,95,384
2,65,95,384
2,65,95,0
2,65,95,0
2,65,95,0
2,67,95,384
2,67,95,0
2,64,95,0
2,65,95,384
2,65,95,0
2,65,95,0
2,72,95,576
2,69,95,192
2,65,95,384
2,65,95,0
2,65,95,0
2,65,95,0
2,62,95,192
2,64,95,2688
2,65,95,0
2,65,95,0
2,67,95,1536
2,64,95,0
2,64,95,0
2,67,95,1536
2,65,95,384
2,65,95,0
2,64,95,2688
2,64,95,0
2,64,95,384
2,64,95,0
2,71,76,384
2,71,76,0
2,71,76,0
2,71,76,0
2,71,76,0
2,71,76,0
2,71,76,0
2,71,76,0
2,69,76,0
2,69,76,0
2,69,76,0
2,69,76,0
2,69,76,0
2,69,76,0
2,69,76,0
2,69,76,0
2,69,76,0
2,69,76,0
2,67,76,0
2,60,76,0
2,60,76,0
2,67,76,576
2,67,76,0
2,67,76,0
2,66,76,0
2,66,76,0
2,66,76,0
2,62,76,0
2,62,76,0
2,62,76,384
2,62,76,0
2,65,76,384
2,65,76,0
2,60,76,0
2,60,76,0
2,60,76,0
2,60,76,384
2,60,76,0
2,71,76,384
2,71,76,0
2,71,76,0
2,71,76,0
2,71,76,0
2,71,76,0
2,71,76,0
2,69,76,0
2,69,76,0
2,69,76,0
2,69,76,0
2,72,76,0
2,69,76,192
2,67,76,0
2,60,76,0
2,60,76,0
2,66,76,1152
2,66,76,0
2,66,76,0
2,66,76,0
2,66,76,0
2,66,76,0
2,66,76,0
2,66,76,0
2,66,76,0
2,66,76,0
2,65,76,0
2,65,76,0
2,65,76,0
2,72,76,384
2,69,76,0
2,67,76,0
2,67,76,0
2,65,76,0
2,65,76,0
2,65,76,0
2,65,76,0
2,65,76,0
2,72,76,0
2,69,76,0
2,65,76,192
2,65,76,0
2,65,76,0
2,65,76,0
2,65,76,0
2,67,76,384
2,69,76,0
2,64,76,0
2,65,76,384
2,65,76,0
2,65,76,0
2,65,76,0
2,65,76,0
2,67,76,0
2,72,76,0
2,69,76,0
2,65,76,192
2,65,76,0
2,65,76,0
2,65,76,0
2,67,76,192
2,64,76,2496
2,65,76,0
2,65,76,0
2,67,76,1536
2,64,76,0
2,64,76,0
2,67,76,1536
2,65,76,384
2,65,76,0
2,64,88,2688
2,64,88,0
2,67,76,1536
2,65,63,384
2,65,63,0
2,64,38,2688
2,64,38,0
2,67,25,1536
2,65,12,384
2,65,12,0
3,81,95,0
3,81,95,0
3,81,95,0
3,81,95,0
3,83,95,0
3,84,95,0
3,84,95,0
3,83,95,0
3,79,95,0
3,79,95,0
3,81,95,0
3,81,95,0
3,81,95,0
3,81,95,0
3,83,95,0
3,79,95,0
3,76,95,384
3,76,95,0
3,81,95,0
3,81,95,0
3,81,95,0
3,81,95,0
3,83,95,0
3,84,95,0
3,84,95,0
3,83,95,0
3,79,95,0
3,79,95,0
3,81,95,0
3,81,95,0
3,81,95,0
3,83,95,0
3,79,95,0
3,69,95,1536
3,69,95,0
3,69,95,0
3,69,95,0
3,69,95,0
3,69,95,1536
3,69,95,0
3,69,95,0
3,69,95,0
3,69,95,1920
3,69,95,0
3,69,95,0
3,69,95,0
3,69,95,0
3,67,95,1728
3,69,95,0
3,69,95,0
3,69,95,0
3,69,95,0
3,69,95,1920
3,69,95,0
3,69,95,0
3,69,95,0
3,69,95,0
3,69,95,1536
3,69,95,0
3,69,95,0
3,69,95,0
3,69,95,1920
3,69,95,0
3,69,95,0
3,69,95,0
3,69,95,0
3,67,95,1728
3,69,95,0
3,69,95,0
3,69,95,0
3,69,95,0
3,67,95,3840
3,69,95,0
3,69,95,0
3,71,95,1536
3,67,95,0
3,67,95,0
3,72,95,1536
3,69,95,384
3,69,95,0
3,67,95,2688
3,67,95,0
3,67,95,384
3,67,95,0
3,67,95,0
3,76,95,0
3,72,95,0
3,72,95,0
3,72,95,0
3,69,95,1728
3,69,95,0
3,69,95,0
3,69,95,0
3,71,95,384
3,69,95,1728
3,69,95,0
3,69,95,2304
3,69,95,0
3,69,95,0
3,67,95,3840
3,69,95,768
3,69,95,0
3,67,95,1536
3,67,95,0
3,67,95,0
3,72,95,1536
3,69,95,384
3,69,95,0
3,67,95,2688
3,67,95,0
3,76,95,576
3,76,95,0
3,76,95,0
3,74,95,0
3,74,95,0
3,74,95,0
3,72,95,384
3,72,95,0
3,72,95,0
3,72,95,0
3,72,95,0
3,72,95,192
3,72,95,0
3,64,95,0
3,64,95,0
3,72,95,576
3,72,95,0
3,72,95,0
3,69,95,0
3,69,95,0
3,69,95,0
3,66,95,0
3,66,95,0
3,66,95,384
3,66,95,0
3,69,95,384
3,69,95,0
3,65,95,0
3,65,95,0
3,65,95,0
3,65,95,384
3,65,95,0
3,74,95,384
3,74,95,0
3,74,95,0
3,74,95,0
3,74,95,0
3,74,95,0
3,74,95,0
3,72,95,0
3,72,95,0
3,72,95,0
3,72,95,0
3,77,95,0
3,72,95,192
3,72,95,0
3,64,95,0
3,64,95,0
3,69,95,1152
3,69,95,0
3,69,95,0
3,69,95,0
3,69,95,0
3,69,95,0
3,69,95,0
3,69,95,0
3,69,95,0
3,69,95,0
3,69,95,0
3,69,95,0
3,69,95,0
3,69,95,1920
3,69,95,0
3,69,95,0
3,69,95,2304
3,69,95,0
3,69,95,0
3,71,95,384
3,69,95,1728
3,69,95,0
3,69,95,2496
3,69,95,0
3,69,95,0
3,67,95,192
3,67,95,2688
3,69,95,0
3,69,95,0
3,71,95,1536
3,67,95,0
3,67,95,0
3,72,95,1536
3,69,95,384
3,69,95,0
3,67,95,2688
3,67,95,0
3,67,95,384
3,67,95,0
3,74,76,384
3,74,76,0
3,74,76,0
3,74,76,0
3,74,76,0
3,74,76,0
3,74,76,0
3,74,76,0
3,72,76,0
3,72,76,0
3,72,76,0
3,72,76,0
3,72,76,0
3,72,76,192
3,72,76,0
3,64,76,0
3,64,76,0
3,72,76,576
3,72,76,0
3,72,76,0
3,69,76,0
3,69,76,0
3,69,76,0
3,66,76,0
3,66,76,0
3,66,76,384
3,66,76,0
3,69,76,384
3,69,76,0
3,65,76,0
3,65,76,0
3,65,76,0
3,65,76,384
3,65,76,0
3,74,76,384
3,74,76,0
3,74,76,0
3,74,76,0
3,74,76,0
3,74,76,0
3,74,76,0
3,72,76,0
3,72,76,0
3,72,76,0
3,72,76,0
3,77,76,0
3,72,76,192
3,72,76,0
3,64,76,0
3,64,76,0
