track,note,velocity,time
1,62,83,1392
1,65,83,0
1,70,83,0
1,62,83,288
1,65,83,0
1,70,83,0
1,62,83,288
1,65,83,0
1,70,83,0
1,62,83,288
1,65,83,0
1,70,83,0
1,60,83,288
1,63,83,0
1,68,83,0
1,60,83,288
1,63,83,0
1,68,83,0
1,60,83,288
1,65,83,0
1,69,83,0
1,60,83,288
1,65,83,0
1,69,83,0
1,62,83,288
1,65,83,0
1,70,83,0
1,62,83,288
1,65,83,0
1,70,83,0
1,62,83,288
1,65,83,0
1,70,83,0
1,62,83,288
1,65,83,0
1,70,83,0
1,60,83,288
1,63,83,0
1,68,83,0
1,60,83,288
1,63,83,0
1,68,83,0
1,60,83,288
1,65,83,0
1,69,83,0
1,60,83,288
1,65,83,0
1,69,83,0
1,62,83,288
1,65,83,0
1,70,83,0
1,62,83,288
1,65,83,0
1,70,83,0
1,62,83,288
1,65,83,0
1,70,83,0
1,62,83,288
1,65,83,0
1,70,83,0
1,60,83,288
1,63,83,0
1,68,83,0
1,60,83,288
1,63,83,0
1,68,83,0
1,60,83,288
1,65,83,0
1,69,83,0
1,60,83,288
1,65,83,0
1,69,83,0
1,62,83,288
1,65,83,0
1,70,83,0
1,62,83,288
1,65,83,0
1,70,83,0
1,62,83,288
1,65,83,0
1,70,83,0
1,62,83,288
1,65,83,0
1,70,83,0
1,60,83,288
1,63,83,0
1,68,83,0
1,60,83,288
1,63,83,0
1,68,83,0
1,60,83,288
1,65,83,0
1,69,83,0
1,60,83,288
1,65,83,0
1,69,83,0
1,62,83,288
1,65,83,0
1,70,83,0
1,62,83,288
1,65,83,0
1,70,83,0
1,62,83,288
1,65,83,0
1,70,83,0
1,62,83,288
1,65,83,0
1,70,83,0
1,60,83,288
1,63,83,0
1,68,83,0
1,60,83,288
1,63,83,0
1,68,83,0
1,60,83,288
1,65,83,0
1,69,83,0
1,60,83,288
1,65,83,0
1,69,83,0
1,62,83,288
1,65,83,0
1,70,83,0
1,62,83,288
1,65,83,0
1,70,83,0
1,62,83,288
1,65,83,0
1,70,83,0
1,62,83,288
1,65,83,0
1,70,83,0
1,60,83,288
1,63,83,0
1,68,83,0
1,60,83,288
1,63,83,0
1,68,83,0
1,60,83,288
1,65,83,0
1,69,83,0
1,60,83,288
1,65,83,0
1,69,83,0
1,62,83,288
1,65,83,0
1,70,83,0
1,62,83,288
1,65,83,0
1,70,83,0
1,62,83,288
1,65,83,0
1,70,83,0
1,62,83,288
1,65,83,0
1,70,83,0
1,60,83,288
1,63,83,0
1,68,83,0
1,60,83,288
1,63,83,0
1,68,83,0
1,60,83,288
1,65,83,0
1,69,83,0
1,60,83,288
1,65,83,0
1,69,83,0
1,62,83,288
1,65,83,0
1,70,83,0
1,62,83,288
1,65,83,0
1,70,83,0
1,62,83,288
1,65,83,0
1,70,83,0
1,62,83,288
1,65,83,0
1,70,83,0
1,60,83,288
1,63,83,0
1,68,83,0
1,60,83,288
1,63,83,0
1,68,83,0
1,60,83,288
1,65,83,0
1,69,83,0
1,60,83,288
1,65,83,0
1,69,83,0
1,62,83,288
1,65,83,0
1,70,83,0
1,62,83,288
1,65,83,0
1,70,83,0
1,62,83,288
1,65,83,0
1,70,83,0
1,62,83,288
1,65,83,0
1,70,83,0
1,60,83,288
1,63,83,0
1,68,83,0
1,60,83,288
1,63,83,0
1,68,83,0
1,60,83,288
1,65,83,0
1,69,83,0
1,60,83,288
1,65,83,0
1,69,83,0
1,62,83,288
1,65,83,0
1,70,83,0
1,62,83,288
1,65,83,0
1,70,83,0
1,62,83,288
1,65,83,0
1,70,83,0
1,62,83,288
1,65,83,0
1,70,83,0
1,60,83,288
1,63,83,0
1,68,83,0
1,60,83,288
1,63,83,0
1,68,83,0
1,60,83,288
1,65,83,0
1,69,83,0
1,60,83,288
1,65,83,0
1,69,83,0
1,62,83,288
1,65,83,0
1,70,83,0
1,62,83,288
1,65,83,0
1,70,83,0
1,62,83,288
1,65,83,0
1,70,83,0
1,62,83,288
1,65,83,0
1,70,83,0
1,60,83,288
1,63,83,0
1,68,83,0
1,60,83,288
1,63,83,0
1,68,83,0
1,60,83,288
1,65,83,0
1,69,83,0
1,60,83,288
1,65,83,0
1,69,83,0
1,62,83,288
1,65,83,0
1,70,83,0
1,62,83,288
1,65,83,0
1,70,83,0
1,62,83,288
1,65,83,0
1,70,83,0
1,62,83,288
1,65,83,0
1,70,83,0
1,60,83,288
1,63,83,0
1,68,83,0
1,60,83,288
1,63,83,0
1,68,83,0
1,60,83,288
1,63,83,0
1,68,83,0
1,60,83,288
1,63,83,0
1,68,83,0
1,58,83,12576
1,62,83,0
1,65,83,0
1,58,83,188
1,62,83,0
1,65,83,0
1,58,83,196
1,62,83,0
1,65,83,0
1,58,83,196
1,62,83,0
1,65,83,0
1,58,83,232
1,63,83,0
1,67,83,0
1,58,83,180
1,63,83,0
1,67,83,0
1,56,83,196
1,60,83,0
1,63,83,0
1,56,83,204
1,60,83,0
1,63,83,0
1,56,83,228
1,61,83,0
1,65,83,0
1,56,83,220
1,61,83,0
1,65,83,0
1,56,83,212
1,61,83,0
1,65,83,0
1,56,83,208
1,61,83,0
1,65,83,0
1,56,83,212
1,61,83,0
1,65,83,0
1,56,83,216
1,61,83,0
1,65,83,0
1,56,83,228
1,61,83,0
1,65,83,0
1,56,83,220
1,61,83,0
1,65,83,0
1,56,83,248
1,58,83,0
1,62,83,0
1,65,83,0
1,58,83,228
1,62,83,0
1,65,83,0
1,58,83,188
1,62,83,0
1,65,83,0
1,58,83,208
1,62,83,0
1,65,83,0
1,58,83,228
1,63,83,0
1,67,83,0
1,58,83,204
1,63,83,0
1,67,83,0
1,56,83,232
1,60,83,0
1,63,83,0
1,56,83,212
1,60,83,0
1,63,83,0
1,56,83,256
1,61,83,0
1,65,83,0
1,56,83,228
1,61,83,0
1,65,83,0
1,56,83,236
1,61,83,0
1,65,83,0
1,56,83,228
1,61,83,0
1,65,83,0
1,56,83,236
1,61,83,0
1,65,83,0
1,56,83,236
1,61,83,0
1,65,83,0
1,56,83,228
1,61,83,0
1,65,83,0
1,56,83,228
1,61,83,0
1,65,83,0
1,62,83,272
1,65,83,0
1,70,83,0
1,62,83,288
1,65,83,0
1,70,83,0
1,62,83,288
1,65,83,0
1,70,83,0
1,62,83,288
1,65,83,0
1,70,83,0
1,60,83,288
1,63,83,0
1,68,83,0
1,60,83,288
1,63,83,0
1,68,83,0
1,60,83,288
1,65,83,0
1,69,83,0
1,60,83,288
1,65,83,0
1,69,83,0
1,62,83,288
1,65,83,0
1,70,83,0
1,62,83,288
1,65,83,0
1,70,83,0
1,62,83,288
1,65,83,0
1,70,83,0
1,62,83,288
1,65,83,0
1,70,83,0
1,60,83,288
1,63,83,0
1,68,83,0
1,60,83,288
1,63,83,0
1,68,83,0
1,60,83,288
1,65,83,0
1,69,83,0
1,60,83,288
1,65,83,0
1,69,83,0
1,62,83,288
1,65,83,0
1,70,83,0
1,62,83,288
1,65,83,0
1,70,83,0
1,62,83,288
1,65,83,0
1,70,83,0
1,62,83,288
1,65,83,0
1,70,83,0
1,60,83,288
1,63,83,0
1,68,83,0
1,60,83,288
1,63,83,0
1,68,83,0
1,60,83,288
1,65,83,0
1,69,83,0
1,60,83,288
1,65,83,0
1,69,83,0
1,62,83,288
1,65,83,0
1,70,83,0
1,62,83,288
1,65,83,0
1,70,83,0
1,62,83,288
1,65,83,0
1,70,83,0
1,62,83,288
1,65,83,0
1,70,83,0
1,60,83,288
1,63,83,0
1,68,83,0
1,60,83,288
1,63,83,0
1,68,83,0
1,60,83,288
1,65,83,0
1,69,83,0
1,60,83,288
1,65,83,0
1,69,83,0
1,62,83,288
1,65,83,0
1,70,83,0
1,62,83,288
1,65,83,0
1,70,83,0
1,62,83,288
1,65,83,0
1,70,83,0
1,62,83,288
1,65,83,0
1,70,83,0
1,60,83,288
1,63,83,0
1,68,83,0
1,60,83,288
1,63,83,0
1,68,83,0
1,60,83,288
1,65,83,0
1,69,83,0
1,60,83,288
1,65,83,0
1,69,83,0
1,62,83,288
1,65,83,0
1,70,83,0
1,62,83,288
1,65,83,0
1,70,83,0
1,62,83,288
1,65,83,0
1,70,83,0
1,62,83,288
1,65,83,0
1,70,83,0
1,60,83,288
1,63,83,0
1,68,83,0
1,60,83,288
1,63,83,0
1,68,83,0
1,60,83,288
1,65,83,0
1,69,83,0
1,60,83,288
1,65,83,0
1,69,83,0
1,62,83,288
1,65,83,0
1,70,83,0
1,62,83,288
1,65,83,0
1,70,83,0
1,62,83,288
1,65,83,0
1,70,83,0
1,62,83,288
1,65,83,0
1,70,83,0
1,60,83,288
1,63,83,0
1,68,83,0
1,60,83,288
1,63,83,0
1,68,83,0
1,60,83,288
1,65,83,0
1,69,83,0
1,60,83,288
1,65,83,0
1,69,83,0
1,62,83,288
1,65,83,0
1,70,83,0
1,62,83,288
1,65,83,0
1,70,83,0
1,62,83,288
1,65,83,0
1,70,83,0
1,62,83,288
1,65,83,0
1,70,83,0
1,60,83,288
1,63,83,0
1,68,83,0
1,60,83,288
1,63,83,0
1,68,83,0
1,60,83,288
1,65,83,0
1,69,83,0
1,60,83,288
1,65,83,0
1,69,83,0
1,62,83,288
1,65,83,0
1,70,83,0
1,62,83,288
1,65,83,0
1,70,83,0
1,62,83,288
1,65,83,0
1,70,83,0
1,62,83,288
1,65,83,0
1,70,83,0
1,60,83,288
1,63,83,0
1,68,83,0
1,60,83,288
1,63,83,0
1,68,83,0
1,60,83,288
1,65,83,0
1,69,83,0
1,60,83,288
1,65,83,0
1,69,83,0
1,62,83,288
1,65,83,0
1,70,83,0
1,62,83,288
1,65,83,0
1,70,83,0
1,62,83,288
1,65,83,0
1,70,83,0
1,62,83,288
1,65,83,0
1,70,83,0
1,60,83,288
1,63,83,0
1,68,83,0
1,60,83,288
1,63,83,0
1,68,83,0
1,60,83,288
1,63,83,0
1,68,83,0
1,60,83,288
1,63,83,0
1,68,83,0
1,58,83,12576
1,62,83,0
1,65,83,0
1,58,83,188
1,62,83,0
1,65,83,0
1,58,83,196
1,62,83,0
1,65,83,0
1,58,83,196
1,62,83,0
1,65,83,0
1,58,83,232
1,63,83,0
1,67,83,0
1,58,83,180
1,63,83,0
1,67,83,0
1,56,83,196
1,60,83,0
1,63,83,0
1,56,83,204
1,60,83,0
1,63,83,0
1,56,83,228
1,61,83,0
1,65,83,0
1,56,83,220
1,61,83,0
1,65,83,0
1,56,83,212
1,61,83,0
1,65,83,0
1,56,83,208
1,61,83,0
1,65,83,0
1,56,83,212
1,61,83,0
1,65,83,0
1,56,83,216
1,61,83,0
1,65,83,0
1,56,83,228
1,61,83,0
1,65,83,0
1,56,83,220
1,61,83,0
1,65,83,0
1,56,83,248
1,58,83,0
1,62,83,0
1,65,83,0
1,58,83,228
1,62,83,0
1,65,83,0
1,58,83,188
1,62,83,0
1,65,83,0
1,58,83,208
1,62,83,0
1,65,83,0
1,58,83,228
1,63,83,0
1,67,83,0
1,58,83,204
1,63,83,0
1,67,83,0
1,56,83,232
1,60,83,0
1,63,83,0
1,56,83,212
1,60,83,0
1,63,83,0
1,56,83,256
1,61,83,0
1,65,83,0
1,56,83,228
1,61,83,0
1,65,83,0
1,56,83,236
1,61,83,0
1,65,83,0
1,56,83,228
1,61,83,0
1,65,83,0
1,56,83,236
1,61,83,0
1,65,83,0
1,56,83,236
1,61,83,0
1,65,83,0
1,56,83,228
1,61,83,0
1,65,83,0
1,56,83,228
1,61,83,0
1,65,83,0
1,62,83,17168
1,65,83,0
1,70,83,0
1,62,83,288
1,65,83,0
1,70,83,0
1,62,83,288
1,65,83,0
1,70,83,0
1,62,83,288
1,65,83,0
1,70,83,0
1,60,83,288
1,63,83,0
1,68,83,0
1,60,83,288
1,63,83,0
1,68,83,0
1,60,83,288
1,65,83,0
1,69,83,0
1,60,83,288
1,65,83,0
1,69,83,0
1,62,83,288
1,65,83,0
1,70,83,0
1,62,83,288
1,65,83,0
1,70,83,0
1,62,83,288
1,65,83,0
1,70,83,0
1,62,83,288
1,65,83,0
1,70,83,0
1,60,83,288
1,63,83,0
1,68,83,0
1,60,83,288
1,63,83,0
1,68,83,0
1,60,83,288
1,65,83,0
1,69,83,0
1,60,83,288
1,65,83,0
1,69,83,0
1,62,83,288
1,65,83,0
1,70,83,0
1,62,83,288
1,65,83,0
1,70,83,0
1,62,83,288
1,65,83,0
1,70,83,0
1,62,83,288
1,65,83,0
1,70,83,0
1,60,83,288
1,63,83,0
1,68,83,0
1,60,83,288
1,63,83,0
1,68,83,0
1,60,83,288
1,65,83,0
1,69,83,0
1,60,83,288
1,65,83,0
1,69,83,0
1,62,83,288
1,65,83,0
1,70,83,0
1,62,83,288
1,65,83,0
1,70,83,0
1,62,83,288
1,65,83,0
1,70,83,0
1,62,83,288
1,65,83,0
1,70,83,0
1,60,83,288
1,63,83,0
1,68,83,0
1,60,83,288
1,63,83,0
1,68,83,0
1,60,83,288
1,65,83,0
1,69,83,0
1,60,83,288
1,65,83,0
1,69,83,0
1,62,83,288
1,65,83,0
1,70,83,0
1,62,83,288
1,65,83,0
1,70,83,0
1,62,83,288
1,65,83,0
1,70,83,0
1,62,83,288
1,65,83,0
1,70,83,0
1,60,83,288
1,63,83,0
1,68,83,0
1,60,83,288
1,63,83,0
1,68,83,0
1,60,83,288
1,65,83,0
1,69,83,0
1,60,83,288
1,65,83,0
1,69,83,0
1,62,83,288
1,65,83,0
1,70,83,0
1,62,83,288
1,65,83,0
1,70,83,0
1,62,83,288
1,65,83,0
1,70,83,0
1,62,83,288
1,65,83,0
1,70,83,0
1,60,83,288
1,63,83,0
1,68,83,0
1,60,83,288
1,63,83,0
1,68,83,0
1,60,83,288
1,65,83,0
1,69,83,0
1,60,83,288
1,65,83,0
1,69,83,0
1,62,83,288
1,65,83,0
1,70,83,0
1,62,83,288
1,65,83,0
1,70,83,0
1,62,83,288
1,65,83,0
1,70,83,0
1,62,83,288
1,65,83,0
1,70,83,0
1,60,83,288
1,63,83,0
1,68,83,0
1,60,83,288
1,63,83,0
1,68,83,0
1,60,83,288
1,65,83,0
1,69,83,0
1,60,83,288
1,65,83,0
1,69,83,0
1,62,83,288
1,65,83,0
1,70,83,0
1,62,83,288
1,65,83,0
1,70,83,0
1,62,83,288
1,65,83,0
1,70,83,0
1,62,83,288
1,65,83,0
1,70,83,0
1,60,83,288
1,63,83,0
1,68,83,0
1,60,83,288
1,63,83,0
1,68,83,0
1,60,83,288
1,65,83,0
1,69,83,0
1,60,83,288
1,65,83,0
1,69,83,0
1,62,83,288
1,65,83,0
1,70,83,0
1,62,83,288
1,65,83,0
1,70,83,0
1,62,83,288
1,65,83,0
1,70,83,0
1,62,83,288
1,65,83,0
1,70,83,0
1,60,83,288
1,63,83,0
1,68,83,0
1,60,83,288
1,63,83,0
1,68,83,0
1,60,83,288
1,65,83,0
1,69,83,0
1,60,83,288
1,65,83,0
1,69,83,0
1,62,83,288
1,65,83,0
1,70,83,0
1,62,83,288
1,65,83,0
1,70,83,0
1,62,83,288
1,65,83,0
1,70,83,0
1,62,83,288
1,65,83,0
1,70,83,0
1,60,83,288
1,63,83,0
1,68,83,0
1,60,83,288
1,63,83,0
1,68,83,0
1,60,83,288
1,65,83,0
1,69,83,0
1,60,83,288
1,65,83,0
1,69,83,0
1,62,83,288
1,65,83,0
1,70,83,0
1,62,83,288
1,65,83,0
1,70,83,0
1,62,83,288
1,65,83,0
1,70,83,0
1,62,83,288
1,65,83,0
1,70,83,0
1,60,83,288
1,63,83,0
1,68,83,0
1,60,83,288
1,63,83,0
1,68,83,0
1,60,83,288
1,65,83,0
1,69,83,0
1,60,83,288
1,65,83,0
1,69,83,0
1,62,83,288
1,65,83,0
1,70,83,0
1,62,83,288
1,65,83,0
1,70,83,0
1,62,83,288
1,65,83,0
1,70,83,0
1,62,83,288
1,65,83,0
1,70,83,0
1,60,83,288
1,63,83,0
