track,note,velocity,time
1,39,64,0
1,39,0,538
1,34,64,2
1,34,0,119
1,34,64,1
1,34,0,59
1,39,64,1
1,46,64,540
1,39,0,58
1,46,0,120
1,39,64,2
1,39,0,178
1,43,64,2
1,43,0,178
1,39,64,2
1,39,0,178
1,39,64,2
1,39,0,59
1,39,64,121
1,39,0,59
1,41,64,1
1,41,0,59
1,43,64,1
1,43,0,59
1,44,64,1
1,56,64,1
1,44,0,118
1,56,0,1
1,44,64,60
1,55,64,1
1,44,0,118
1,55,0,1
1,44,64,60
1,53,64,1
1,44,0,177
1,53,0,1
1,44,64,1
1,55,64,1
1,44,0,177
1,55,0,1
1,46,64,1
1,56,64,1
1,46,0,177
1,56,0,1
1,39,64,1
1,39,0,178
1,46,64,2
1,46,0,178
1,43,64,2
1,43,0,358
1,48,64,2
1,48,0,178
1,46,64,2
1,46,0,178
1,44,64,2
1,44,0,178
1,46,64,2
1,46,0,178
1,39,64,2
1,39,0,178
1,39,64,2
1,39,0,178
1,39,64,2
1,39,0,178
1,46,64,2
1,46,0,178
1,39,64,2
1,39,0,178
1,46,64,2
1,46,0,178
1,39,64,2
1,39,0,358
1,39,64,2
1,39,0,59
1,41,64,1
1,41,0,59
1,43,64,1
1,43,0,59
1,44,64,1
1,56,64,1
1,44,0,177
1,56,0,1
1,44,64,1
1,55,64,1
1,44,0,177
1,55,0,1
1,44,64,1
1,53,64,1
1,53,0,178
1,51,64,1
1,51,0,178
1,44,0,0
1,46,64,2
1,56,64,1
1,46,0,177
1,56,0,1
1,51,64,1
1,55,64,1
1,51,0,177
1,55,0,1
1,46,64,1
1,56,64,1
1,46,0,177
1,56,0,1
1,43,64,1
1,55,64,1
1,43,0,357
1,55,0,1
1,48,64,1
1,55,64,1
1,48,0,177
1,46,64,2
1,46,0,178
1,55,0,1
1,44,64,1
1,53,64,1
1,44,0,177
1,53,0,1
1,46,64,1
1,56,64,1
1,46,0,177
1,56,0,1
1,39,64,1
1,39,0,178
1,39,64,2
1,39,0,178
1,39,64,2
1,39,0,178
1,50,64,2
1,50,0,178
1,48,64,2
1,48,0,178
1,46,64,2
1,46,0,178
1,45,64,2
1,45,0,178
1,41,64,2
1,41,0,178
1,46,64,2
1,46,0,178
1,45,64,2
1,45,0,178
1,43,64,2
1,43,0,178
1,39,64,2
1,39,0,178
1,44,64,2
1,44,0,178
1,43,64,2
1,43,0,178
1,41,64,2
1,41,0,178
1,46,64,2
1,46,0,178
1,39,64,2
1,39,0,178
1,39,64,2
1,39,0,178
1,39,64,2
1,39,0,178
1,39,64,2
1,39,0,178
1,51,64,2
1,51,0,178
1,49,64,2
1,49,0,178
1,48,64,2
1,48,0,178
1,44,64,2
1,44,0,178
1,49,64,2
1,49,0,178
1,48,64,2
1,48,0,178
1,46,64,2
1,46,0,178
1,42,64,2
1,42,0,178
1,47,64,2
1,47,0,178
1,46,64,2
1,46,0,178
1,45,64,2
1,45,0,178
1,41,64,2
1,41,0,178
1,46,64,2
1,53,64,1
1,46,0,177
1,53,0,1
1,46,64,1
1,55,64,1
1,46,0,177
1,55,0,1
1,46,64,1
1,56,64,1
1,46,0,177
1,56,0,1
1,46,64,1
1,55,64,1
1,55,0,118
1,53,64,1
1,53,0,58
1,46,0,0
1,51,64,2
1,51,0,178
1,46,64,2
1,46,0,178
1,51,64,2
1,51,0,178
1,51,64,2
1,51,0,178
1,39,64,2
1,39,0,59
1,41,64,1
1,41,0,59
1,43,64,1
1,43,0,59
1,44,64,1
1,56,64,1
1,44,0,177
1,56,0,1
1,44,64,1
1,55,64,1
1,44,0,177
1,55,0,1
1,44,64,1
1,53,64,1
1,44,0,177
1,53,0,1
1,44,64,1
1,51,64,1
1,44,0,177
1,51,0,1
1,46,64,1
1,56,64,1
1,46,0,177
1,56,0,1
1,51,64,1
1,55,64,1
1,51,0,177
1,55,0,1
1,46,64,1
1,56,64,1
1,46,0,177
1,56,0,1
1,43,64,1
1,55,64,1
1,43,0,357
1,55,0,1
1,48,64,1
1,55,64,1
1,48,0,177
1,46,64,2
1,46,0,178
1,55,0,1
1,44,64,1
1,53,64,1
1,44,0,177
1,53,0,1
1,46,64,1
1,56,64,1
1,46,0,177
1,56,0,1
1,51,64,1
1,51,0,178
1,39,64,2
1,39,0,178
1,51,64,2
1,51,0,178
1,46,64,2
1,46,0,178
1,51,64,2
1,51,0,178
1,46,64,2
1,46,0,178
1,43,64,2
1,43,0,178
1,43,64,2
1,43,0,178
1,48,64,2
1,48,0,178
1,46,64,2
1,46,0,178
1,44,64,2
1,44,0,178
1,46,64,2
1,46,0,178
1,39,64,2
1,39,0,178
1,39,64,2
1,39,0,178
1,39,64,2
1,39,0,178
1,58,64,2
1,58,0,178
1,48,64,2
1,48,0,178
1,46,64,2
1,46,0,178
1,45,64,2
1,45,0,178
1,41,64,2
1,41,0,178
1,46,64,2
1,46,0,178
1,45,64,2
1,45,0,178
1,43,64,2
1,43,0,178
1,39,64,2
1,39,0,178
1,44,64,2
1,44,0,178
1,43,64,2
1,43,0,178
1,41,64,2
1,41,0,178
1,46,64,2
1,46,0,178
1,39,64,2
1,39,0,178
1,39,64,2
1,39,0,178
1,39,64,2
1,39,0,178
1,39,64,2
1,39,0,178
1,51,64,2
1,51,0,178
1,49,64,2
1,49,0,178
1,48,64,2
1,48,0,178
1,44,64,2
1,44,0,178
1,49,64,2
1,49,0,178
1,48,64,2
1,48,0,178
1,46,64,2
1,46,0,178
1,42,64,2
1,42,0,178
1,47,64,2
1,47,0,178
1,46,64,2
1,46,0,178
1,45,64,2
1,45,0,178
1,41,64,2
1,41,0,178
1,46,64,2
1,53,64,1
1,46,0,177
1,53,0,1
1,46,64,1
1,55,64,1
1,46,0,177
1,55,0,1
1,46,64,1
1,56,64,1
1,46,0,177
1,56,0,1
1,46,64,1
1,55,64,1
1,55,0,118
1,53,64,1
1,53,0,58
1,46,0,0
1,51,64,2
1,51,0,178
1,46,64,2
1,46,0,178
1,51,64,2
1,51,0,178
1,51,64,2
1,51,0,178
1,39,64,2
1,39,0,59
1,41,64,1
1,41,0,59
1,43,64,1
1,43,0,59
1,44,64,1
1,56,64,1
1,44,0,177
1,56,0,1
1,44,64,1
1,55,64,1
1,44,0,177
1,55,0,1
1,44,64,1
1,53,64,1
1,44,0,177
1,53,0,1
1,44,64,1
1,51,64,1
1,44,0,177
1,51,0,1
1,46,64,1
1,56,64,1
1,46,0,177
1,56,0,1
1,51,64,1
1,55,64,1
1,51,0,177
1,55,0,1
1,46,64,1
1,56,64,1
1,46,0,177
1,56,0,1
1,43,64,1
1,55,64,1
1,43,0,357
1,55,0,1
1,48,64,1
1,48,0,178
1,46,64,2
1,46,0,178
1,44,64,2
1,44,0,178
1,43,64,2
1,43,0,178
1,41,64,2
1,41,0,178
1,46,64,2
1,46,0,178
1,51,64,2
1,51,0,178
1,39,64,2
1,39,0,178
1,51,64,2
1,51,0,178
1,46,64,2
1,46,0,178
1,51,64,2
1,51,0,178
1,46,64,2
1,46,0,178
1,43,64,2
1,43,0,178
1,43,64,2
1,43,0,178
1,48,64,2
1,48,0,178
1,46,64,2
1,46,0,178
1,44,64,2
1,44,0,178
1,46,64,2
1,46,0,178
1,39,64,2
1,39,0,178
1,39,64,2
1,39,0,178
1,39,64,2
1,46,64,20
1,51,64,20
1,51,0,318
1,46,0,0
1,39,0,0
2,55,64,0
2,58,64,1
2,63,64,1
2,55,0,176
2,58,0,1
2,56,64,1
2,63,0,0
2,58,64,1
2,63,64,1
2,56,0,176
2,58,0,1
2,55,64,1
2,63,0,0
2,58,64,1
2,63,64,1
2,55,0,176
2,58,0,1
2,53,64,1
2,63,0,0
2,58,64,1
2,62,64,1
2,53,0,117
2,58,64,1
2,58,0,0
2,62,64,1
2,62,0,0
2,65,64,1
2,58,0,57
2,58,64,1
2,62,0,0
2,63,64,1
2,65,0,0
2,67,64,1
2,58,0,176
2,63,0,1
2,60,64,1
2,67,0,0
2,63,64,1
2,68,64,1
2,60,0,176
2,63,0,1
2,58,64,1
2,68,0,0
2,63,64,1
2,67,64,1
2,58,0,117
2,63,0,1
2,67,0,1
2,58,64,59
2,62,64,1
2,58,0,177
2,62,0,1
2,58,64,1
2,63,64,1
2,58,0,177
2,63,0,1
2,58,64,1
2,62,64,1
2,58,0,177
2,62,0,1
2,58,64,1
2,58,0,119
2,55,64,1
2,55,0,119
2,63,64,121
2,63,0,178
2,63,64,2
2,63,0,178
2,63,64,2
2,67,64,1
2,63,0,177
2,67,0,1
2,63,64,1
2,68,64,1
2,63,0,297
2,68,0,1
2,62,64,61
2,62,0,178
2,58,64,2
2,58,0,178
2,62,64,2
2,62,0,178
2,59,64,2
2,59,0,358
2,60,64,2
2,60,0,178
2,60,64,2
2,60,0,178
2,60,64,2
2,60,0,178
2,62,64,2
2,62,0,59
2,60,64,1
2,60,0,88
2,58,64,2
2,58,0,28
2,55,64,2
2,55,0,28
2,58,64,2
2,58,0,28
2,55,64,2
2,55,0,28
2,58,64,2
2,58,0,28
2,63,64,2
2,63,0,28
2,58,64,2
2,58,0,28
2,56,64,2
2,56,0,28
2,58,64,2
2,58,0,28
2,63,64,2
2,63,0,28
2,58,64,2
2,58,0,28
2,56,64,2
2,56,0,28
2,58,64,2
2,58,0,28
2,55,64,2
2,55,0,28
2,58,64,2
2,58,0,28
2,55,64,2
2,55,0,28
2,58,64,2
2,58,0,28
2,65,64,2
2,65,0,28
2,65,64,2
2,65,0,28
2,65,64,2
2,65,0,28
2,62,64,2
2,62,0,28
2,67,64,2
2,67,0,28
2,62,64,2
2,62,0,28
2,70,64,2
2,70,0,28
2,62,64,2
2,62,0,28
2,67,64,2
2,67,0,28
2,63,64,2
2,63,0,28
2,58,64,2
2,58,0,28
2,63,64,2
2,63,0,28
2,65,64,2
2,65,0,28
2,63,64,2
2,63,0,28
2,65,64,2
2,65,0,28
2,62,64,2
2,62,0,28
2,67,64,2
2,67,0,28
2,62,64,2
2,62,0,28
2,70,64,2
2,70,0,28
2,62,64,2
2,62,0,28
2,67,64,2
2,67,0,28
2,58,64,2
2,58,0,28
2,63,64,2
2,63,0,28
2,58,64,2
2,58,0,28
2,63,64,2
2,63,0,28
2,58,64,2
2,58,0,28
2,67,64,2
2,67,0,28
2,58,64,2
2,58,0,28
2,65,64,2
2,65,0,28
2,58,64,2
2,58,0,28
2,63,64,2
2,63,0,59
2,70,64,1
2,70,0,28
2,63,64,2
2,63,0,28
2,72,64,2
2,72,0,28
2,63,64,2
2,63,0,28
2,75,64,2
2,75,0,28
2,63,64,2
2,63,0,28
2,72,64,2
2,72,0,28
2,63,64,2
2,63,0,28
2,70,64,2
2,70,0,28
2,63,64,2
2,63,0,28
2,68,64,2
2,68,0,28
2,63,64,2
2,63,0,28
2,70,64,2
2,70,0,28
2,63,64,2
2,63,0,28
2,72,64,2
2,72,0,28
2,63,64,2
2,63,0,28
2,75,64,2
2,75,0,28
2,63,64,2
2,63,0,28
2,72,64,2
2,72,0,28
2,63,64,2
2,63,0,28
2,70,64,2
2,70,0,28
2,63,64,2
2,63,0,28
2,68,64,2
2,68,0,28
2,63,64,2
2,63,0,28
2,60,64,2
2,60,0,178
2,65,64,2
2,65,0,28
2,62,64,2
2,62,0,28
2,67,64,2
2,67,0,28
2,62,64,2
2,62,0,28
2,70,64,2
2,70,0,28
2,62,64,2
2,62,0,28
2,67,64,2
2,67,0,28
2,58,64,2
2,58,0,28
2,65,64,2
2,65,0,28
2,58,64,2
2,58,0,28
2,63,64,2
2,63,0,28
2,58,64,2
2,58,0,28
2,65,64,2
2,65,0,28
2,62,64,2
2,62,0,28
2,67,64,2
2,67,0,28
2,62,64,2
2,62,0,28
2,70,64,2
2,70,0,28
2,62,64,2
2,62,0,28
2,67,64,2
2,67,0,28
2,62,64,2
2,62,0,28
2,59,64,2
2,59,0,28
2,62,64,2
2,62,0,28
2,59,64,2
2,59,0,28
2,62,64,2
2,62,0,28
2,67,64,2
2,67,0,119
2,65,64,61
2,65,0,28
2,60,64,2
2,60,0,28
2,63,64,2
2,63,0,28
2,60,64,2
2,60,0,28
2,67,64,2
2,67,0,28
2,60,64,2
2,60,0,28
2,65,64,2
2,65,0,28
2,60,64,2
2,60,0,28
2,63,64,2
2,63,0,28
2,60,64,2
2,60,0,28
2,67,64,2
2,67,0,28
2,60,64,2
2,60,0,28
2,65,64,2
2,65,0,28
2,60,64,2
2,60,0,28
2,63,64,2
2,63,0,28
2,60,64,2
2,60,0,28
2,63,64,2
2,63,0,28
2,67,64,2
2,67,0,28
2,65,64,2
2,65,0,28
2,60,64,2
2,60,0,28
2,63,64,2
2,63,0,28
2,60,64,2
2,60,0,28
2,63,64,2
2,63,0,28
2,62,64,2
2,62,0,28
2,55,64,2
2,55,0,28
2,58,64,2
2,58,0,28
2,55,64,2
2,55,0,28
2,58,64,2
2,58,0,28
2,63,64,2
2,63,0,28
2,58,64,2
2,58,0,28
2,56,64,2
2,56,0,28
2,58,64,2
2,58,0,28
2,63,64,2
2,63,0,28
2,58,64,2
2,58,0,28
2,56,64,2
2,56,0,28
2,58,64,2
2,58,0,28
2,55,64,2
2,55,0,28
2,58,64,2
2,58,0,28
2,63,64,2
2,63,0,28
2,58,64,2
2,58,0,28
2,55,64,2
2,55,0,28
2,58,64,2
2,58,0,28
2,63,64,2
2,63,0,28
2,58,64,2
2,58,0,28
2,67,64,2
2,67,0,28
2,63,64,2
2,63,0,28
2,70,64,2
2,70,0,28
2,67,64,2
2,67,0,28
2,75,64,2
2,75,0,28
2,67,64,2
2,67,0,28
2,63,64,2
2,63,0,28
2,67,64,2
2,67,0,28
2,63,64,2
2,63,0,28
2,67,64,2
2,67,0,28
2,63,64,2
2,63,0,28
2,67,64,2
2,67,0,28
2,63,64,2
2,63,0,28
2,67,64,2
2,67,0,28
2,63,64,2
2,63,0,28
2,67,64,2
2,67,0,28
2,63,64,2
2,63,0,28
2,67,64,2
2,67,0,28
2,72,64,2
2,72,0,28
2,63,64,2
2,63,0,28
2,74,64,2
2,74,0,28
2,63,64,2
2,63,0,28
2,75,64,2
2,75,0,28
2,65,64,2
2,65,0,28
2,77,64,2
2,77,0,28
2,65,64,2
2,65,0,28
2,72,64,2
2,72,0,28
2,65,64,2
2,65,0,28
2,74,64,2
2,74,0,28
2,70,64,2
2,70,0,28
2,65,64,2
2,65,0,28
2,62,64,2
2,62,0,28
2,65,64,2
2,65,0,28
2,70,64,2
2,70,0,28
2,65,64,2
2,65,0,28
2,62,64,2
2,62,0,28
2,65,64,2
2,65,0,28
2,70,64,2
2,70,0,28
2,65,64,2
2,65,0,28
2,62,64,2
2,62,0,28
2,65,64,2
2,65,0,28
2,62,64,2
2,62,0,28
2,70,64,2
2,70,0,28
2,65,64,2
2,65,0,28
2,72,64,2
2,72,0,28
2,65,64,2
2,65,0,28
2,74,64,2
2,74,0,28
2,67,64,2
2,67,0,28
2,75,64,2
2,75,0,28
2,67,64,2
2,67,0,28
2,70,64,2
2,70,0,28
2,67,64,2
2,67,0,28
2,72,64,2
2,72,0,28
2,68,64,2
2,68,0,28
2,63,64,2
2,63,0,28
2,60,64,2
2,60,0,28
2,63,64,2
2,63,0,28
2,68,64,2
2,68,0,28
2,63,64,2
2,63,0,28
2,60,64,2
2,60,0,28
2,63,64,2
2,63,0,28
2,68,64,2
2,68,0,28
2,63,64,2
2,63,0,28
2,60,64,2
2,60,0,28
2,63,64,2
2,63,0,28
2,60,64,2
2,60,0,28
2,68,64,2
2,68,0,28
2,65,64,2
2,65,0,28
2,70,64,2
2,70,0,28
2,65,64,2
2,65,0,28
2,72,64,2
2,72,0,28
2,62,64,2
2,62,0,28
2,70,64,2
2,70,0,28
2,62,64,2
2,62,0,28
2,68,64,2
2,68,0,28
2,62,64,2
2,62,0,28
2,70,64,2
2,70,0,28
2,67,64,2
2,67,0,28
2,63,64,2
2,63,0,28
2,58,64,2
2,58,0,28
