track,note,velocity,time
2,72,80,768
2,62,97,3840
2,67,79,0
2,74,70,0
2,69,70,40
2,62,79,0
2,74,61,0
2,64,88,56
2,71,70,0
2,76,61,0
2,72,61,1536
2,60,79,0
2,67,79,0
2,62,88,40
2,67,79,0
2,74,70,0
2,62,79,64
2,69,70,0
2,74,79,0
2,71,61,24
2,64,88,0
2,76,61,0
2,72,61,1536
2,67,79,0
2,60,79,0
2,67,109,416
2,67,109,544
2,62,100,576
2,62,109,592
2,64,109,568
2,64,109,568
2,60,109,592
2,60,109,576
2,67,109,584
2,67,109,592
2,62,109,600
2,62,109,592
2,64,109,600
2,64,109,592
2,60,100,608
2,60,100,240
2,60,109,240
2,62,97,192
2,67,79,0
2,74,70,0
2,62,79,32
2,69,70,0
2,74,61,0
2,64,88,56
2,71,70,0
2,76,61,0
2,67,79,1536
2,60,79,0
2,72,61,0
2,67,109,368
2,67,109,544
2,62,100,584
2,62,109,576
2,64,109,568
2,64,109,576
2,60,109,592
2,60,109,576
2,67,109,576
2,67,109,608
2,62,109,592
2,62,109,592
2,64,109,600
2,64,109,608
2,60,100,616
2,60,100,232
2,60,109,248
2,62,97,192
2,67,79,0
2,74,70,0
2,62,79,40
2,69,70,0
2,74,61,0
2,64,88,56
2,71,70,0
2,76,61,0
2,67,79,1536
2,72,61,0
2,60,79,0
2,62,88,40
2,67,79,0
2,74,70,0
2,62,79,64
2,69,70,0
2,74,79,0
2,71,61,24
2,64,88,0
2,76,61,0
2,72,61,1536
2,67,79,0
2,60,79,0
2,67,109,416
2,67,109,544
2,62,100,576
2,62,109,592
2,64,109,576
2,64,109,568
2,60,109,592
2,60,109,584
2,67,109,584
2,67,109,544
2,62,100,568
2,62,109,584
2,64,109,576
2,64,109,576
2,60,109,600
2,60,109,576
2,67,109,576
2,67,109,544
2,62,100,568
2,62,109,576
2,64,109,576
2,64,109,576
2,60,109,592
2,60,109,576
2,67,109,576
2,67,109,592
2,62,109,600
2,62,109,584
2,64,109,592
2,64,109,600
2,60,100,608
2,60,100,248
2,60,109,248
2,62,97,192
2,67,79,0
2,74,70,0
2,62,79,40
2,69,70,0
2,74,61,0
2,71,70,56
2,64,88,0
2,76,61,0
2,72,61,1536
2,60,79,0
2,67,79,0
2,62,88,40
2,67,79,0
2,74,70,0
2,69,70,64
2,62,79,0
2,74,79,0
2,71,61,32
2,64,88,0
2,76,61,0
2,72,61,1536
2,67,79,0
2,60,79,0
2,60,88,40
2,67,79,0
2,72,88,0
2,57,88,56
2,64,79,8
2,69,88,0
2,59,97,120
2,64,70,0
2,71,88,0
2,69,70,104
2,62,97,0
2,74,79,0
2,60,79,64
2,72,79,0
2,67,88,8
2,57,88,72
2,64,79,0
2,69,70,0
2,59,97,96
2,71,79,0
2,64,79,8
2,62,88,104
2,69,88,0
2,74,79,0
2,67,109,3480
2,67,109,544
2,62,100,568
2,62,109,576
2,64,109,576
2,64,109,576
2,60,109,592
2,60,109,576
2,67,109,576
2,67,109,592
2,62,109,592
2,62,109,584
2,64,109,592
2,64,109,592
2,60,100,616
2,60,100,240
2,60,109,240
2,62,97,192
2,67,79,0
2,74,70,0
2,69,70,40
2,62,79,0
2,74,61,0
2,64,88,56
2,71,70,0
2,76,61,0
2,67,79,1536
2,72,61,0
2,60,79,0
2,62,88,40
2,67,79,0
2,74,70,0
2,69,70,64
2,62,79,0
2,74,79,0
2,71,61,24
2,64,88,0
2,76,61,0
2,67,79,1536
2,72,61,0
2,60,79,0
2,67,109,416
2,67,109,552
2,62,100,576
2,62,109,576
2,64,109,568
2,64,109,584
2,60,109,584
2,60,109,576
2,67,109,576
2,67,109,544
2,62,100,576
2,62,109,576
2,64,109,576
2,64,109,576
2,60,109,600
2,60,109,576
2,67,109,576
2,67,109,544
2,62,100,584
2,62,109,584
2,64,109,576
2,64,109,576
2,60,109,200
2,62,97,1352
2,67,79,0
2,74,70,0
2,69,70,40
2,62,79,0
2,74,61,0
2,64,88,56
2,71,70,0
2,76,61,0
2,60,79,1536
2,72,61,0
2,67,79,0
2,67,79,40
2,62,88,0
2,74,70,0
2,62,79,56
2,69,70,8
2,74,79,0
2,71,61,24
2,64,88,0
2,76,61,0
2,72,61,1536
2,67,79,0
2,60,79,0
2,67,109,416
2,67,109,544
2,62,100,576
2,62,109,584
2,64,109,568
2,64,109,568
2,60,109,592
2,60,109,584
2,67,109,576
2,67,109,552
2,62,100,576
2,62,109,584
2,64,109,568
2,64,109,568
2,60,109,584
2,60,109,576
2,67,109,576
2,67,109,544
2,62,100,576
2,62,109,584
2,64,109,576
2,64,109,584
2,60,109,584
2,60,109,576
2,67,109,576
2,67,109,544
2,62,100,584
2,62,109,576
2,64,109,200
2,62,97,2888
2,67,79,0
2,74,70,0
2,62,79,32
2,69,70,0
2,74,61,8
2,71,70,56
2,64,88,0
2,76,61,0
2,72,61,1536
2,60,79,0
2,67,79,0
2,62,88,40
2,67,79,0
2,74,70,0
2,69,70,64
2,62,79,0
2,74,79,0
2,71,61,24
2,64,88,0
2,76,61,0
2,60,79,1536
2,72,61,0
2,67,79,0
2,62,97,40
2,67,79,0
2,74,70,0
2,69,70,40
2,62,79,0
2,74,61,0
2,64,88,56
2,71,70,0
2,76,61,0
2,72,61,1536
2,60,79,0
2,67,79,0
2,62,88,40
2,67,79,0
2,74,70,0
2,69,70,64
2,62,79,0
2,74,79,0
2,64,88,24
2,71,61,0
2,76,61,0
2,72,61,1536
2,67,79,0
2,60,79,0
2,62,97,40
2,67,79,0
2,74,70,0
2,69,70,40
2,62,79,0
2,74,61,0
2,64,88,56
2,71,70,0
2,76,61,0
2,72,61,1536
2,60,79,0
2,67,79,0
2,62,88,40
2,67,79,0
2,74,70,0
2,69,70,64
2,62,79,0
2,74,79,0
2,71,61,32
2,64,88,0
2,76,61,0
2,67,79,1536
2,60,79,0
2,72,61,0
2,62,88,40
2,67,79,0
2,74,70,0
2,69,70,64
2,62,79,0
2,74,79,0
2,71,61,24
2,64,88,0
2,76,61,0
2,72,61,1536
2,67,79,0
2,60,79,0
2,64,91,40
2,67,100,0
2,74,91,0
2,60,82,144
2,67,91,0
2,72,91,0
2,59,100,80
2,64,100,0
2,52,100,96
3,72,80,768
3,38,109,3840
3,38,82,64
3,38,109,80
3,38,91,64
3,38,109,72
3,38,91,64
3,38,109,88
3,38,91,48
3,38,109,88
3,38,82,64
3,38,109,88
3,38,91,72
3,38,109,72
3,38,91,64
3,38,109,88
3,38,91,40
3,40,109,88
3,40,82,72
3,40,100,80
3,40,91,72
3,40,109,80
3,40,80,64
3,40,105,88
3,40,91,64
3,48,105,104
3,48,80,64
3,48,100,96
3,48,82,72
3,48,100,96
3,48,81,64
3,48,100,88
3,48,91,72
3,38,109,88
3,38,82,64
3,38,109,80
3,38,91,64
3,38,109,64
3,38,91,64
3,38,109,88
3,38,91,48
3,38,109,88
3,38,82,64
3,38,109,80
3,38,91,64
3,38,109,72
3,38,91,64
3,38,109,88
3,38,91,48
3,40,109,88
3,40,82,72
3,40,100,80
3,40,91,72
3,40,109,88
3,40,80,64
3,40,105,88
3,40,91,64
3,48,105,112
3,48,80,72
3,48,100,96
3,48,82,72
3,48,100,96
3,48,81,64
3,48,100,96
3,48,91,72
3,43,109,96
3,43,100,88
3,55,109,72
3,43,109,168
3,43,100,104
3,55,109,48
3,50,109,176
3,50,100,104
3,62,109,64
3,50,91,184
3,50,100,104
3,62,109,56
3,52,100,168
3,52,100,104
3,64,109,16
3,52,109,168
3,52,100,112
3,64,101,16
3,48,109,168
3,48,100,96
3,60,100,64
3,48,102,128
3,48,100,104
3,60,109,40
3,43,109,128
3,43,100,96
3,55,109,192
3,43,100,144
3,43,100,112
3,55,109,8
3,50,109,144
3,50,100,96
3,62,109,16
3,50,109,128
3,50,91,88
3,62,109,8
3,52,109,120
3,52,91,96
3,64,91,48
3,52,100,120
3,52,100,88
3,64,109,200
3,48,109,144
3,48,82,96
3,60,101,192
3,60,109,160
3,60,109,152
3,38,109,128
3,38,82,64
3,38,109,80
3,38,91,64
3,38,109,80
3,38,91,56
3,38,109,88
3,38,91,48
3,38,109,80
3,38,82,72
3,38,109,72
3,38,91,64
3,38,109,80
3,38,91,64
3,38,109,88
3,38,91,48
3,40,109,88
3,40,82,80
3,40,100,80
3,40,91,72
3,40,109,88
3,40,80,64
3,40,105,88
3,40,91,64
3,48,105,96
3,48,80,72
3,48,100,96
3,48,82,72
3,48,100,96
3,48,81,64
3,48,100,88
3,48,91,72
3,43,109,96
3,43,100,96
3,55,109,64
3,43,109,168
3,43,100,96
3,55,109,40
3,50,109,176
3,50,100,104
3,62,109,64
3,50,91,184
3,50,100,96
3,62,109,56
3,52,100,176
3,52,100,104
3,64,109,8
3,52,109,160
3,52,100,112
3,64,101,16
3,48,109,168
3,48,100,96
3,60,100,56
3,48,102,128
3,48,100,104
3,60,109,48
3,43,109,128
3,43,100,96
3,55,109,192
3,43,100,144
3,43,100,104
3,55,109,16
3,50,109,144
3,50,100,96
3,62,109,16
3,50,109,128
3,50,91,96
3,62,109,8
3,52,109,128
3,52,91,96
3,64,91,48
3,52,100,112
3,52,100,96
3,64,109,192
3,48,109,152
3,48,82,96
3,60,101,192
3,60,109,152
3,60,109,152
3,38,109,136
3,38,82,56
3,38,109,88
3,38,91,64
3,38,109,72
3,38,91,64
3,38,109,88
3,38,91,48
3,38,109,88
3,38,82,64
3,38,109,80
3,38,91,64
3,38,109,72
3,38,91,64
3,38,109,88
3,38,91,48
3,40,109,88
3,40,82,72
3,40,100,80
3,40,91,72
3,40,109,80
3,40,80,64
3,40,105,88
3,40,91,64
3,48,105,104
3,48,80,72
3,48,100,96
3,48,82,72
3,48,100,96
3,48,81,64
3,48,100,88
3,48,91,72
3,38,109,96
3,38,82,56
3,38,109,80
3,38,91,64
3,38,109,64
3,38,91,64
3,38,109,88
3,38,91,48
3,38,109,88
3,38,82,64
3,38,109,80
3,38,91,64
3,38,109,72
3,38,91,64
3,38,109,88
3,38,91,48
3,40,109,88
3,40,82,72
3,40,100,80
3,40,91,72
3,40,109,88
3,40,80,64
3,40,105,88
3,40,91,64
3,48,105,112
3,48,80,72
3,48,100,104
3,48,82,72
3,48,100,96
3,48,81,64
3,48,100,88
3,48,91,72
3,43,109,96
3,43,100,88
3,55,109,72
3,43,109,168
3,43,100,104
3,55,109,48
3,50,109,176
3,50,100,104
3,62,109,64
3,50,91,184
3,50,100,104
3,62,109,56
3,52,100,176
3,52,100,104
3,64,109,16
3,52,109,160
3,52,100,112
3,64,101,16
3,48,109,168
3,48,100,88
3,60,100,56
3,48,102,128
3,48,100,104
3,60,109,48
3,43,109,120
3,43,100,88
3,55,109,64
3,43,109,168
3,43,100,88
3,55,109,48
3,50,109,176
3,50,100,104
3,62,109,56
3,50,91,184
3,50,100,104
3,62,109,56
3,52,100,168
3,52,100,104
3,64,109,16
3,52,109,160
3,52,100,104
3,64,101,16
3,48,109,168
3,48,100,88
3,60,100,64
3,48,102,128
3,48,100,104
3,60,109,48
3,43,109,128
3,43,100,88
3,55,109,64
3,43,109,168
3,43,100,88
3,55,109,48
3,50,109,176
3,50,100,104
3,62,109,56
3,50,91,184
3,50,100,96
3,62,109,56
3,52,100,176
3,52,100,104
3,64,109,16
3,52,109,160
3,52,100,112
3,64,101,16
3,48,109,168
3,48,100,88
3,60,100,56
3,48,102,128
3,48,100,96
3,60,109,48
3,43,109,128
3,43,100,104
3,55,109,192
3,43,100,144
3,43,100,104
3,55,109,16
3,50,109,136
3,50,100,96
3,62,109,16
3,50,109,128
3,50,91,80
3,62,109,8
3,52,109,128
3,52,91,96
3,64,91,48
3,52,100,112
3,52,100,96
3,64,109,192
3,48,109,144
3,48,82,96
3,60,101,192
3,60,109,160
3,60,109,152
3,38,109,136
3,38,82,64
3,38,109,80
3,38,91,72
3,38,109,72
3,38,91,64
3,38,109,88
3,38,91,40
3,38,109,88
3,38,82,64
3,38,109,80
3,38,91,72
3,38,109,64
3,38,91,64
3,38,109,88
3,38,91,48
3,40,109,88
3,40,82,64
3,40,100,80
3,40,91,80
3,40,109,88
3,40,80,64
3,40,105,88
3,40,91,64
3,48,105,104
3,48,80,64
3,48,100,96
3,48,82,80
3,48,100,88
3,48,81,64
3,48,100,96
3,48,91,72
3,38,109,88
3,38,82,56
3,38,109,80
3,38,91,64
3,38,109,72
3,38,91,64
3,38,109,88
3,38,91,48
3,38,109,88
3,38,82,64
3,38,109,80
3,38,91,64
3,38,109,72
3,38,91,64
3,38,109,88
3,38,91,48
3,40,109,88
3,40,82,72
3,40,100,80
3,40,91,72
3,40,109,80
3,40,80,64
3,40,105,88
3,40,91,64
3,48,105,104
3,48,80,72
3,48,100,96
3,48,82,72
3,48,100,96
3,48,81,64
3,48,100,96
3,48,91,80
3,48,101,96
3,48,82,56
3,60,100,80
3,48,109,128
3,48,91,80
3,60,109,64
3,45,100,160
3,45,82,80
3,57,100,200
3,45,109,136
3,45,82,80
3,57,109,16
3,40,100,144
3,40,100,96
3,52,109,16
3,40,109,144
3,40,91,80
3,52,109,32
3,38,100,144
3,38,91,64
3,50,109,40
3,38,109,120
3,38,100,80
3,50,109,0
3,48,100,160
3,48,91,96
3,60,109,24
3,48,100,160
3,48,91,88
3,60,109,24
3,45,109,144
3,45,91,88
3,57,102,32
3,45,109,144
3,45,91,80
3,57,100,32
3,40,109,152
3,40,91,80
3,52,109,32
3,40,100,144
3,40,101,96
3,52,109,48
3,38,108,144
3,38,102,80
3,50,100,192
3,50,100,56
3,38,109,40
3,38,101,56
3,50,108,40
3,43,109,3136
3,43,100,88
3,55,109,64
3,43,109,168
3,43,100,88
3,55,109,48
3,50,109,176
3,50,100,104
3,62,109,64
3,50,91,184
3,50,100,104
3,62,109,56
3,52,100,168
3,52,100,104
3,64,109,16
3,52,109,160
3,52,100,104
3,64,101,16
3,48,109,168
3,48,100,88
3,60,100,56
3,48,102,128
3,48,100,104
3,60,109,48
3,43,109,120
3,43,100,104
3,55,109,192
3,43,100,144
3,43,100,96
3,55,109,16
3,50,109,136
3,50,100,96
3,62,109,16
3,50,109,128
3,50,91,80
3,62,109,16
3,52,109,128
3,52,91,96
3,64,91,48
3,52,100,112
3,52,100,96
3,64,109,192
3,48,109,144
3,48,82,96
3,60,101,192
3,48,109,160
3,48,109,48
3,48,109,24
3,48,109,40
3,38,109,24
3,38,82,64
3,38,109,72
3,38,91,64
3,38,109,72
3,38,91,64
3,38,109,88
3,38,91,48
3,38,109,88
3,38,82,64
3,38,109,80
3,38,91,64
3,38,109,72
3,38,91,64
3,38,109,88
3,38,91,48
3,40,109,88
3,40,82,72
3,40,100,72
3,40,91,80
3,40,109,88
3,40,80,64
3,40,105,88
3,40,91,64
3,48,105,104
3,48,80,72
3,48,100,96
3,48,82,72
3,48,100,88
3,48,81,64
3,48,100,88
3,48,91,72
3,38,109,96
3,38,82,56
3,38,109,80
3,38,91,64
3,38,109,72
3,38,91,64
3,38,109,88
3,38,91,48
3,38,109,88
3,38,82,64
3,38,109,80
3,38,91,64
3,38,109,72
3,38,91,64
3,38,109,88
3,38,91,48
3,40,109,88
3,40,82,64
3,40,100,80
3,40,91,72
3,40,109,88
3,40,80,64
3,40,105,88
3,40,91,64
3,48,105,104
3,48,80,72
3,48,100,96
3,48,82,72
3,48,100,96
3,48,81,64
3,48,100,96
3,48,91,72
3,43,109,88
3,43,100,88
3,55,109,64
3,43,109,168
3,43,100,96
3,55,109,32
3,50,109,176
3,50,100,96
3,62,109,64
3,50,91,184
3,50,100,104
3,62,109,56
3,52,100,176
3,52,100,104
3,64,109,8
3,52,109,160
3,52,100,112
3,64,101,16
3,48,109,168
3,48,100,88
3,60,100,64
3,48,102,128
3,48,100,104
3,60,109,56
3,43,109,136
3,43,100,96
3,55,109,64
3,43,109,176
3,43,100,96
3,55,109,48
3,50,109,184
3,50,100,104
3,62,109,64
3,50,91,184
3,50,100,112
3,62,109,56
3,52,100,176
3,52,100,104
