track,note,velocity,time
7,60,92,480
7,60,0,18
7,60,105,17
7,60,0,21
7,60,106,14
7,60,0,66
7,60,97,31
7,59,101,25
7,60,0,2
7,57,104,63
7,59,0,1
7,57,0,17
7,57,105,9
7,57,0,67
7,59,88,105
7,59,0,8
7,59,104,23
7,59,0,16
7,59,87,14
7,59,0,15
7,59,107,17
7,59,0,67
7,57,108,6
7,57,0,12
7,57,105,5
7,57,0,47
7,55,93,6
7,55,0,70
7,57,100,153
7,57,0,16
7,57,100,15
7,57,0,16
7,57,108,14
7,57,0,82
7,55,104,2
7,55,0,16
7,55,92,16
7,55,0,71
7,57,104,3
7,52,92,65
7,57,0,5
7,48,107,12
7,52,0,2
7,50,93,32
7,48,0,3
7,50,0,122
7,60,95,428
7,60,0,16
7,60,108,16
7,60,0,15
7,60,108,11
7,59,98,76
7,60,0,2
7,59,0,11
7,59,108,13
7,57,100,66
7,59,0,5
7,57,0,13
7,57,108,9
7,57,0,41
7,55,101,54
7,57,108,23
7,55,0,2
7,57,0,25
7,59,108,0
7,59,0,68
7,59,108,22
7,59,0,16
7,59,105,8
7,57,108,45
7,59,0,2
7,57,0,17
7,57,107,14
7,55,105,76
7,57,0,3
7,55,0,59
7,57,108,129
7,57,0,21
7,57,106,13
7,59,108,91
7,57,0,2
7,60,105,57
7,59,0,2
7,59,108,32
7,60,0,1
7,63,107,80
7,59,0,1
7,64,108,58
7,63,0,4
7,64,0,63
7,66,108,0
7,64,97,32
7,66,0,1
7,64,0,226
7,64,108,124
7,64,0,187
7,62,95,2
7,65,108,30
7,62,0,7
7,65,0,52
7,71,108,139
7,68,108,55
7,71,0,1
7,64,108,28
7,68,0,2
7,64,0,65
7,62,108,3
7,62,0,22
7,62,107,8
7,62,0,87
7,60,108,2
7,60,0,66
7,69,99,17
7,65,108,44
7,69,0,5
7,65,0,50
7,62,108,0
7,62,0,62
7,60,108,2
7,60,0,56
7,59,108,1
7,57,108,102
7,59,0,5
7,57,0,16
7,57,108,26
7,55,100,131
7,57,0,1
7,55,0,72
7,64,108,350
7,62,108,186
7,64,0,1
7,65,108,31
7,62,0,6
7,65,0,59
7,64,96,109
7,71,108,29
7,64,0,2
7,71,0,63
7,68,108,0
7,68,0,29
7,64,108,3
7,62,107,62
7,64,0,1
7,62,0,18
7,62,103,14
7,62,0,83
7,60,108,0
7,60,0,62
7,60,95,89
7,60,0,26
7,69,99,4
7,65,108,65
7,69,0,4
7,62,102,6
7,65,0,1
7,60,94,46
7,62,0,5
7,59,108,28
7,60,0,4
7,59,0,98
7,62,108,41
7,62,0,33
7,62,108,23
7,60,98,120
7,62,0,5
7,60,0,135
7,60,108,341
7,60,0,16
7,60,98,12
7,60,0,18
7,60,108,7
7,59,108,62
7,60,0,6
7,59,0,12
7,59,108,19
7,57,108,59
7,59,0,1
7,57,0,20
7,57,108,11
7,57,0,49
7,59,107,159
7,59,0,26
7,59,107,6
7,59,0,70
7,59,103,19
7,59,0,27
7,57,108,4
7,57,0,17
7,57,108,14
7,55,108,52
7,57,0,1
7,55,0,69
7,57,108,176
7,57,0,14
7,57,108,14
7,57,0,15
7,57,108,0
7,55,106,33
7,57,0,6
7,55,0,8
7,55,101,18
7,57,106,100
7,55,0,1
7,52,104,53
7,57,0,7
7,52,0,22
7,50,104,1
7,50,0,28
7,48,103,2
7,50,101,32
7,48,0,5
7,50,0,143
7,60,108,414
7,60,0,17
7,60,108,14
7,60,0,15
7,60,108,18
7,60,0,86
7,59,108,1
7,59,0,15
7,59,108,12
7,57,108,41
7,59,0,2
7,57,0,25
7,57,108,2
7,57,0,59
7,57,108,73
7,57,0,22
7,59,108,2
7,59,0,46
7,59,108,12
7,59,0,103
7,59,107,15
7,57,108,29
7,59,0,1
7,57,0,11
7,57,108,16
7,55,107,62
7,57,0,5
7,55,0,63
7,57,108,114
7,57,0,23
7,57,108,13
7,59,108,79
7,57,0,8
7,60,108,54
7,59,0,3
7,59,106,26
7,60,0,3
7,63,108,95
7,59,0,3
7,64,108,54
7,63,0,2
7,66,108,61
7,64,0,2
7,66,0,27
7,64,108,0
7,64,0,7
7,64,108,96
7,62,108,191
7,64,0,4
7,65,108,25
7,62,0,8
7,65,0,73
7,64,108,87
7,71,108,37
7,64,0,4
7,68,93,58
7,71,0,4
7,64,104,28
7,68,0,8
7,62,108,86
7,64,0,4
7,62,0,13
7,62,108,5
7,62,0,62
7,60,108,1
7,60,0,74
7,69,103,116
7,65,100,60
7,69,0,4
7,62,108,4
7,65,0,6
7,62,0,36
7,60,99,0
7,59,108,34
7,60,0,2
7,59,0,123
7,57,108,18
7,57,0,23
7,57,108,16
7,55,108,113
7,57,0,10
7,55,0,67
7,64,104,370
7,62,104,189
7,64,0,1
7,65,108,27
7,62,0,6
7,65,0,71
7,64,95,85
7,71,108,26
7,64,0,7
7,71,0,55
7,68,84,0
7,64,94,1
7,68,0,9
7,62,108,47
7,64,0,8
7,62,0,8
7,62,107,13
7,60,108,87
7,62,0,1
7,60,0,65
7,60,108,99
7,60,0,13
7,69,94,0
7,69,0,63
7,65,103,0
7,65,0,4
7,62,108,0
7,60,103,32
7,62,0,6
7,59,108,56
7,60,0,3
7,62,108,119
7,59,0,5
7,62,0,20
7,62,108,9
7,60,99,98
7,62,0,4
7,60,0,116
7,64,100,838
7,64,0,13
7,64,101,16
7,64,0,14
7,64,101,19
7,64,0,87
7,64,99,11
7,65,108,20
7,64,0,2
7,64,89,60
7,65,0,3
7,64,0,67
7,64,98,166
7,64,0,12
7,64,99,16
7,64,0,12
7,64,99,20
7,64,0,51
7,64,95,17
7,64,0,13
7,64,91,16
7,64,0,36
7,64,95,235
7,64,0,12
7,64,97,17
7,64,0,14
7,64,99,20
7,64,0,77
7,64,98,20
7,64,0,27
7,65,97,0
7,64,102,28
7,65,0,5
7,64,0,9
7,64,85,16
7,64,0,86
7,64,94,30
7,64,0,31
7,69,92,16
7,67,92,38
7,69,0,3
7,67,0,55
7,64,102,1
7,64,0,12
7,64,102,15
7,62,90,19
7,64,0,2
7,62,0,103
7,60,94,1
7,57,85,20
7,60,0,5
7,57,0,38
7,62,105,194
7,62,0,16
7,62,100,14
7,62,0,16
7,62,108,14
7,62,0,78
7,62,94,15
7,64,88,29
7,62,0,3
7,64,0,50
7,62,101,3
7,62,0,16
7,62,100,12
7,62,0,76
7,62,103,20
7,62,0,22
7,62,103,7
7,62,0,22
7,62,108,9
7,60,101,56
7,62,0,7
7,60,0,91
7,60,97,30
7,60,0,16
7,60,95,12
7,60,0,82
7,59,108,63
7,59,0,60
7,57,106,2
7,59,104,176
7,57,0,2
7,59,0,54
7,57,103,2
7,57,0,183
7,55,100,0
7,64,94,62
7,55,0,5
7,65,94,267
7,64,0,1
7,64,91,17
7,65,0,7
7,62,79,18
7,64,0,6
7,62,0,189
7,64,75,2
7,62,87,20
7,64,0,6
7,60,71,13
7,62,0,5
7,60,0,135
7,60,103,396
7,60,0,13
7,60,108,15
7,60,0,20
7,60,108,9
7,60,0,41
7,60,108,14
7,59,108,57
7,60,0,3
7,59,0,61
7,57,108,1
7,57,0,17
7,57,104,13
7,57,0,62
7,59,108,142
7,59,0,13
7,59,104,18
7,59,0,6
7,59,104,8
7,59,0,50
7,57,108,5
7,57,0,33
7,57,108,29
7,57,0,25
7,55,94,2
7,55,0,121
7,57,108,157
7,57,0,11
7,57,108,16
7,57,0,12
7,57,108,14
7,55,108,63
7,57,0,2
7,55,0,11
7,55,98,17
7,55,0,17
7,55,98,17
7,55,0,89
7,57,108,3
7,52,108,25
7,57,0,3
7,50,98,31
7,52,0,1
7,48,106,29
7,50,0,4
7,50,96,29
7,48,0,4
7,50,0,126
7,60,108,430
7,60,0,14
7,60,100,15
7,60,0,16
7,60,100,18
7,60,0,55
7,59,108,1
7,59,0,13
7,59,106,14
7,59,0,12
7,59,108,7
7,59,0,41
7,57,108,1
7,57,0,18
7,57,106,13
7,57,0,70
7,55,100,20
7,57,108,31
7,55,0,1
7,59,108,30
7,57,0,3
7,64,99,27
7,59,0,8
7,64,0,6
7,59,108,0
7,57,108,46
7,59,0,4
7,57,0,20
7,57,108,10
7,59,90,95
7,57,0,2
7,57,102,12
7,59,0,9
7,55,93,2
7,57,0,6
7,55,0,45
7,57,108,101
7,57,0,16
7,57,108,14
7,57,0,45
7,57,108,13
7,59,108,27
7,57,0,1
7,59,0,59
7,60,108,3
7,59,108,29
7,60,0,4
7,59,0,81
7,63,108,0
7,64,108,58
7,63,0,2
7,66,108,53
7,64,0,3
7,66,0,24
7,66,108,6
7,67,108,251
7,66,0,3
7,66,91,8
7,67,0,4
7,64,89,16
7,66,0,8
7,64,0,26
7,64,108,50
7,62,108,196
7,64,0,2
7,65,105,25
7,62,0,5
7,65,0,66
7,64,97,167
7,64,0,25
7,71,98,0
7,68,98,32
7,71,0,3
7,64,108,2
7,68,0,1
7,62,99,37
7,64,0,1
7,62,0,18
7,62,99,10
7,64,108,69
7,62,0,5
7,60,101,11
7,64,0,1
7,60,0,79
7,69,98,12
7,69,0,41
7,65,99,1
7,62,104,59
7,65,0,5
7,60,108,56
7,62,0,6
7,59,108,0
7,60,0,1
7,59,0,85
7,57,103,2
7,57,0,36
7,57,102,29
7,59,108,98
7,57,0,3
7,55,96,11
7,59,0,9
7,55,0,96
7,64,108,324
7,64,0,183
7,62,107,3
7,65,100,29
7,62,0,6
7,65,0,19
7,64,106,70
7,68,99,29
7,64,0,4
7,68,0,12
7,68,104,8
7,71,108,32
7,68,0,3
7,71,0,47
7,71,108,12
7,71,0,27
7,72,108,5
7,71,104,65
7,72,0,6
7,69,103,4
7,71,0,4
7,69,0,90
7,69,93,12
7,65,98,44
7,69,0,9
7,62,108,45
7,65,0,7
7,60,108,41
7,62,0,4
7,59,108,32
7,60,0,5
7,59,0,116
7,62,108,20
7,62,0,25
7,62,99,35
7,60,93,0
7,62,0,4
7,60,0,125
8,55,74,491
8,52,67,0
8,48,63,0
8,48,0,226
8,52,0,1
8,55,0,4
8,58,64,9
8,48,70,0
8,52,73,0
8,55,71,0
8,55,0,196
8,48,0,0
8,52,0,1
8,58,0,7
8,56,65,36
8,48,69,0
8,53,54,0
8,48,0,168
8,53,0,14
8,56,0,0
8,50,83,58
8,55,64,0
8,59,74,0
8,59,0,99
8,50,0,1
8,55,0,10
8,59,65,10
8,50,71,0
8,55,59,0
8,50,0,89
8,55,0,3
8,59,0,3
8,55,58,25
8,48,70,0
8,52,58,0
8,48,0,100
8,55,0,2
8,52,0,3
8,55,67,15
8,48,77,0
8,52,68,0
8,48,0,89
8,55,0,4
8,52,0,2
8,57,74,25
8,48,66,0
8,53,65,0
8,48,0,90
8,53,0,2
8,57,0,8
8,57,75,20
8,53,60,0
8,48,70,0
8,48,0,79
8,57,0,9
8,53,0,8
8,55,62,24
8,50,67,0
8,59,67,0
8,50,0,96
8,55,0,6
8,59,0,1
8,59,71,17
8,50,77,0
8,55,81,0
8,50,0,76
8,55,0,14
8,59,0,1
8,52,78,29
8,59,66,0
8,55,64,0
8,52,0,89
8,59,0,2
8,55,0,6
8,59,70,23
8,52,62,0
8,55,67,0
8,55,0,100
8,52,0,2
8,59,0,3
8,48,75,15
8,57,75,0
8,53,75,0
8,48,0,92
8,53,0,6
8,57,0,4
8,57,73,18
8,48,79,0
8,53,73,0
8,53,0,72
8,57,0,19
8,48,0,2
8,55,79,27
8,57,79,0
8,52,79,0
8,55,0,83
8,57,0,4
8,52,0,6
8,52,76,27
8,55,76,0
8,57,76,0
8,60,76,0
8,60,0,67
8,52,0,14
8,55,0,0
8,57,0,1
8,59,70,38
8,54,78,0
8,50,72,0
8,50,0,86
8,54,0,19
8,59,0,2
8,54,65,13
8,59,88,0
8,50,76,0
8,50,0,75
8,54,0,3
8,59,0,12
8,50,74,30
8,53,74,0
8,57,74,0
8,50,0,95
8,57,0,4
8,53,0,1
8,55,76,20
8,50,76,0
8,59,76,0
8,53,76,0
8,53,0,100
8,59,0,3
8,50,0,3
8,55,0,1
8,55,70,13
8,52,71,0
8,48,76,0
8,48,0,100
8,52,0,3
8,55,0,0
8,52,65,17
8,55,69,0
8,48,79,0
8,48,0,87
8,52,0,9
8,55,0,7
8,57,79,17
8,50,79,0
8,53,81,0
8,53,0,99
8,50,0,5
8,57,0,5
8,53,77,11
8,57,77,0
8,50,77,0
8,50,0,104
8,53,0,1
8,57,0,2
8,53,75,13
8,50,75,0
8,59,75,0
8,50,0,94
8,59,0,12
8,53,0,2
8,54,75,12
8,59,75,0
8,51,75,0
8,51,0,79
8,54,0,25
8,55,76,16
8,52,76,0
8,52,0,97
8,55,0,5
8,59,0,0
8,55,64,18
8,52,75,0
8,59,58,0
8,55,0,107
8,59,0,1
8,52,0,1
8,57,77,11
8,48,82,0
8,53,64,0
8,48,0,92
8,53,0,8
8,57,0,3
8,57,71,17
8,53,61,0
8,48,93,0
8,48,0,93
8,53,0,0
8,57,0,9
8,51,91,18
8,54,82,0
8,57,78,0
8,47,44,0
8,47,0,82
8,54,0,15
8,57,0,7
8,51,0,2
8,57,77,14
8,51,69,0
8,54,71,0
8,47,70,0
8,54,0,79
8,57,0,1
8,47,0,8
8,51,0,1
8,56,82,31
8,52,77,0
8,59,86,0
8,52,0,93
8,56,0,14
8,56,50,13
8,52,70,0
8,62,73,0
8,62,0,90
8,59,0,0
8,52,0,6
8,56,0,3
8,59,72,21
8,62,71,0
8,56,74,0
8,52,65,0
8,59,0,91
8,56,0,1
8,62,0,2
8,52,0,0
8,62,86,26
8,59,88,0
8,56,83,0
8,52,82,0
8,56,0,79
8,52,0,2
8,59,0,2
8,62,0,1
8,64,61,36
8,57,77,0
8,53,68,0
8,60,68,0
8,60,0,100
8,53,0,1
8,57,0,2
8,64,0,4
8,64,70,13
8,57,64,0
8,53,62,0
8,60,62,0
8,53,0,92
8,60,0,1
8,64,0,0
8,57,0,2
8,55,71,25
8,50,64,0
8,59,48,0
8,59,0,82
8,50,0,6
8,55,0,7
8,59,69,25
8,55,69,0
8,50,92,0
8,50,0,96
8,55,0,0
8,59,0,5
8,62,60,19
8,52,75,0
8,59,73,0
8,56,62,0
8,59,0,94
8,52,0,1
8,56,0,2
8,62,0,1
8,59,70,22
8,56,62,0
8,52,77,0
8,62,65,0
8,62,0,70
8,56,0,9
8,52,0,3
8,59,0,9
8,60,75,29
8,57,71,0
8,52,68,0
8,52,0,91
8,57,0,4
8,60,0,0
8,60,65,25
8,55,68,0
8,57,65,0
8,52,66,0
8,52,0,89
8,57,0,2
8,60,0,4
8,55,0,1
8,48,80,24
8,57,70,0
8,53,64,0
8,48,0,99
8,53,0,5
8,57,0,4
8,48,80,12
8,53,60,0
8,57,70,0
8,48,0,78
8,57,0,13
8,53,0,7
8,50,87,22
8,55,72,0
8,59,71,0
8,50,0,92
8,59,0,2
8,55,0,3
8,59,68,23
8,50,86,0
8,55,71,0
8,50,0,90
8,55,0,1
8,59,0,2
8,52,78,27
8,55,76,0
8,60,58,0
8,52,0,97
8,55,0,9
8,60,0,2
8,60,80,12
8,55,75,0
8,52,77,0
8,55,0,68
8,60,0,25
8,52,0,8
8,56,70,19
8,52,59,0
8,59,60,0
8,62,75,0
8,62,0,83
8,59,0,7
8,52,0,1
8,56,0,11
8,62,79,18
8,56,67,0
8,59,70,0
8,52,70,0
8,52,0,87
8,59,0,2
8,56,0,0
8,62,0,3
8,64,81,28
8,53,81,0
8,57,81,0
8,60,81,0
8,60,0,100
8,57,0,3
8,53,0,0
8,64,0,7
8,64,80,10
8,60,80,0
8,57,80,0
8,53,80,0
8,60,0,85
8,57,0,2
8,53,0,11
8,64,0,2
8,59,90,20
8,50,90,0
8,55,90,0
8,50,0,99
8,59,0,3
8,55,0,2
8,59,72,16
8,55,60,0
8,50,78,0
8,50,0,85
8,55,0,1
8,59,0,2
8,62,60,32
8,52,72,0
8,59,78,0
8,56,72,0
8,52,0,97
8,59,0,3
