track,note,velocity,time
1,55,100,3840
1,62,100,0
1,71,100,0
1,67,100,0
1,67,0,104
1,55,0,0
1,62,0,0
1,71,0,0
1,69,100,28
1,72,100,0
1,62,100,2
1,50,100,2
1,72,0,34
1,69,0,0
1,62,0,2
1,50,0,2
1,62,100,4
1,55,100,0
1,71,100,0
1,67,100,0
1,67,0,17
1,71,0,0
1,62,0,0
1,55,0,30
1,53,100,60
1,65,100,0
1,74,100,0
1,69,100,0
1,69,0,15
1,53,0,0
1,65,0,0
1,74,0,0
1,64,100,2
1,48,100,0
1,67,100,0
1,72,100,0
1,72,0,82
1,67,0,0
1,64,0,0
1,48,0,30
1,60,100,120
1,67,100,0
1,64,100,0
1,48,100,0
1,64,0,26
1,60,0,20
1,67,0,0
1,48,0,0
1,69,100,60
1,66,100,0
1,62,100,0
1,50,100,0
1,50,0,62
1,69,0,30
1,66,0,0
1,62,0,0
1,62,100,60
1,66,100,0
1,69,100,0
1,50,100,0
1,50,0,29
1,62,0,0
1,66,0,0
1,69,0,0
1,62,100,61
1,69,100,0
1,66,100,0
1,50,100,0
1,50,0,29
1,62,0,0
1,69,0,0
1,66,0,0
1,62,100,31
1,69,100,0
1,66,100,0
1,50,100,0
1,50,0,29
1,62,0,0
1,69,0,0
1,66,0,0
2,43,100,3840
2,43,0,19
2,43,100,21
2,43,0,19
2,43,100,1
2,43,0,19
2,43,100,21
2,43,0,19
2,43,100,1
2,43,0,19
2,43,100,41
2,43,0,19
2,43,100,21
2,43,0,40
2,38,100,20
2,38,0,19
2,31,100,1
2,31,0,40
2,43,100,140
2,43,0,19
2,43,100,21
2,43,0,19
2,43,100,1
2,43,0,19
2,43,100,21
2,43,0,19
2,43,100,1
2,43,0,19
2,43,100,41
2,43,0,19
2,47,100,1
2,47,0,40
2,45,100,40
2,45,0,19
2,43,100,1
2,43,0,40
2,36,100,140
2,36,0,19
2,36,100,21
2,36,0,19
2,36,100,1
2,36,0,19
2,36,100,21
2,36,0,19
2,36,100,1
2,36,0,19
2,36,100,41
2,36,0,19
2,36,100,1
2,36,0,19
2,36,100,61
2,36,0,19
2,36,100,1
2,36,0,40
2,38,100,140
2,38,0,19
2,38,100,21
2,38,0,19
2,38,100,1
2,38,0,19
2,38,100,21
2,38,0,19
2,38,100,1
2,38,0,40
2,38,100,20
2,38,0,19
2,38,100,21
2,38,0,19
2,38,100,41
2,38,0,19
2,38,100,1
2,38,0,40
2,43,100,140
2,43,0,19
2,43,100,21
2,43,0,19
2,43,100,1
2,43,0,19
2,43,100,21
2,43,0,19
2,43,100,1
2,43,0,40
2,43,100,15
2,43,0,19
2,43,100,6
2,43,0,40
2,43,100,40
2,43,0,19
2,43,100,1
2,43,0,40
2,43,100,140
2,43,0,19
2,43,100,21
2,43,0,19
2,43,100,1
2,43,0,19
2,43,100,21
2,43,0,19
2,43,100,1
2,43,0,19
2,43,100,41
2,43,0,19
2,43,100,21
2,43,0,19
2,43,100,41
2,43,0,19
2,43,100,1
2,43,0,40
2,36,100,140
2,36,0,19
2,36,100,9
2,36,0,19
2,36,100,15
2,36,0,19
2,36,100,9
2,36,0,19
2,36,100,11
2,36,0,19
2,36,100,41
2,36,0,19
2,36,100,13
2,36,0,19
2,36,100,39
2,36,0,19
2,36,100,11
2,36,0,40
2,38,100,140
2,38,0,19
2,38,100,21
2,38,0,19
2,38,100,1
2,38,0,19
2,38,100,21
2,38,0,19
2,38,100,1
2,38,0,19
2,38,100,41
2,38,0,19
2,38,100,21
2,38,0,19
2,38,100,41
2,38,0,19
2,38,100,1
2,38,0,40
2,43,100,140
2,43,0,19
2,43,100,21
2,43,0,19
2,43,100,1
2,43,0,19
2,43,100,21
2,43,0,19
2,43,100,1
2,43,0,19
2,43,100,41
2,43,0,19
2,43,100,21
2,43,0,40
2,38,100,20
2,38,0,19
2,31,100,1
2,31,0,40
2,43,100,140
2,43,0,19
2,43,100,21
2,43,0,19
2,43,100,1
2,43,0,19
2,43,100,21
2,43,0,19
2,43,100,1
2,43,0,19
2,43,100,41
2,43,0,19
2,47,100,1
2,47,0,40
2,45,100,40
2,45,0,19
2,43,100,1
2,43,0,40
2,36,100,140
2,36,0,19
2,36,100,21
2,36,0,19
2,36,100,1
2,36,0,19
2,36,100,21
2,36,0,19
2,36,100,1
2,36,0,19
2,36,100,41
2,36,0,19
2,36,100,1
2,36,0,19
2,36,100,61
2,36,0,19
2,36,100,1
2,36,0,40
2,38,100,140
2,38,0,19
2,38,100,21
2,38,0,19
2,38,100,1
2,38,0,19
2,38,100,21
2,38,0,19
2,38,100,1
2,38,0,40
2,38,100,20
2,38,0,19
2,38,100,21
2,38,0,19
2,38,100,41
2,38,0,19
2,38,100,1
2,38,0,40
2,40,100,140
2,40,0,240
2,38,100,0
2,38,0,240
2,36,100,0
2,36,0,210
2,35,100,30
2,35,0,210
2,36,100,30
2,36,0,210
2,35,100,30
2,35,0,210
2,33,100,30
2,33,0,210
2,26,100,30
2,26,0,210
2,26,100,30
2,26,0,29
2,26,100,421
2,26,0,29
2,43,100,1
2,43,0,19
2,43,100,21
2,43,0,19
2,43,100,1
2,43,0,19
2,43,100,21
2,43,0,19
2,43,100,1
2,43,0,40
2,43,100,15
2,43,0,19
2,43,100,6
2,43,0,40
2,43,100,40
2,43,0,19
2,43,100,1
2,43,0,40
2,43,100,140
2,43,0,19
2,43,100,21
2,43,0,19
2,43,100,1
2,43,0,19
2,43,100,21
2,43,0,19
2,43,100,1
2,43,0,19
2,43,100,41
2,43,0,19
2,43,100,21
2,43,0,19
2,43,100,41
2,43,0,19
2,43,100,1
2,43,0,40
2,36,100,140
2,36,0,19
2,36,100,9
2,36,0,19
2,36,100,15
2,36,0,19
2,36,100,9
2,36,0,19
2,36,100,11
2,36,0,19
2,36,100,41
2,36,0,19
2,36,100,13
2,36,0,19
2,36,100,39
2,36,0,19
2,36,100,11
2,36,0,40
2,38,100,140
2,38,0,19
2,38,100,21
2,38,0,19
2,38,100,1
2,38,0,19
2,38,100,21
2,38,0,19
2,38,100,1
2,38,0,19
2,38,100,41
2,38,0,19
2,38,100,21
2,38,0,19
2,38,100,41
2,38,0,19
2,38,100,1
2,38,0,40
2,43,100,140
2,43,0,19
2,43,100,21
2,43,0,19
2,43,100,1
2,43,0,19
2,43,100,21
2,43,0,19
2,43,100,1
2,43,0,19
2,43,100,41
2,43,0,19
2,43,100,21
2,43,0,40
2,38,100,20
2,38,0,19
2,31,100,1
2,31,0,40
2,43,100,140
2,43,0,19
2,43,100,21
2,43,0,19
2,43,100,1
2,43,0,19
2,43,100,21
2,43,0,19
2,43,100,1
2,43,0,19
2,43,100,41
2,43,0,19
2,47,100,1
2,47,0,40
2,45,100,40
2,45,0,19
2,43,100,1
2,43,0,40
2,36,100,140
2,36,0,19
2,36,100,21
2,36,0,19
2,36,100,1
2,36,0,19
2,36,100,21
2,36,0,19
2,36,100,1
2,36,0,19
2,36,100,41
2,36,0,19
2,36,100,1
2,36,0,19
2,36,100,61
2,36,0,19
2,36,100,1
2,36,0,40
2,38,100,140
2,38,0,19
2,38,100,21
2,38,0,19
2,38,100,1
2,38,0,19
2,38,100,21
2,38,0,19
2,38,100,1
2,38,0,40
2,38,100,20
2,38,0,19
2,38,100,21
2,38,0,19
2,38,100,41
2,38,0,19
2,38,100,1
2,38,0,40
2,40,100,140
2,40,0,240
2,38,100,0
2,38,0,240
2,36,100,0
2,36,0,210
2,35,100,30
2,35,0,210
2,36,100,30
2,36,0,210
2,35,100,30
2,35,0,210
2,33,100,30
2,33,0,210
2,26,100,30
2,26,0,210
2,26,100,30
2,26,0,29
2,26,100,421
2,26,0,29
2,43,100,1
2,43,0,19
2,43,100,21
2,43,0,19
2,43,100,1
2,43,0,19
2,43,100,21
2,43,0,19
2,43,100,1
2,43,0,40
2,43,100,15
2,43,0,19
2,43,100,6
2,43,0,40
2,43,100,40
2,43,0,19
2,43,100,1
2,43,0,40
2,43,100,140
2,43,0,19
2,43,100,21
2,43,0,19
2,43,100,1
2,43,0,19
2,43,100,21
2,43,0,19
2,43,100,1
2,43,0,19
2,43,100,41
2,43,0,19
2,43,100,21
2,43,0,19
2,43,100,41
2,43,0,19
2,43,100,1
2,43,0,40
2,36,100,140
2,36,0,19
2,36,100,9
2,36,0,19
2,36,100,15
2,36,0,19
2,36,100,9
2,36,0,19
2,36,100,11
2,36,0,19
2,36,100,41
2,36,0,19
2,36,100,13
2,36,0,19
2,36,100,39
2,36,0,19
2,36,100,11
2,36,0,40
2,38,100,140
2,38,0,19
2,38,100,21
2,38,0,19
2,38,100,1
2,38,0,19
2,38,100,21
2,38,0,19
2,38,100,1
2,38,0,19
2,38,100,41
2,38,0,19
2,38,100,21
2,38,0,19
2,38,100,41
2,38,0,19
2,38,100,1
2,38,0,40
2,43,100,140
2,43,0,19
2,43,100,21
2,43,0,19
2,43,100,1
2,43,0,19
2,43,100,21
2,43,0,19
2,43,100,1
2,43,0,19
2,43,100,41
2,43,0,19
2,43,100,21
2,43,0,40
2,38,100,20
2,38,0,19
2,31,100,1
2,31,0,40
2,43,100,140
2,43,0,19
2,43,100,21
2,43,0,19
2,43,100,1
2,43,0,19
2,43,100,21
2,43,0,19
2,43,100,1
2,43,0,19
2,43,100,41
2,43,0,19
2,47,100,1
2,47,0,40
2,45,100,40
2,45,0,19
2,43,100,1
2,43,0,40
2,36,100,140
2,36,0,19
2,36,100,21
2,36,0,19
2,36,100,1
2,36,0,19
2,36,100,21
2,36,0,19
2,36,100,1
2,36,0,19
2,36,100,41
2,36,0,19
2,36,100,1
2,36,0,19
2,36,100,61
2,36,0,19
2,36,100,1
2,36,0,40
2,38,100,140
2,38,0,19
2,38,100,21
2,38,0,19
2,38,100,1
2,38,0,19
2,38,100,21
2,38,0,19
2,38,100,1
2,38,0,40
2,38,100,20
2,38,0,19
2,38,100,21
2,38,0,19
2,38,100,41
2,38,0,19
2,38,100,1
2,38,0,40
2,31,100,140
2,31,0,440
2,26,100,20
2,26,0,19
2,31,100,1
2,31,0,360
2,35,100,0
2,35,0,120
2,36,100,0
2,36,0,340
2,36,100,20
2,36,0,80
2,37,100,20
2,37,0,19
2,38,100,1
2,38,0,340
2,38,100,20
2,40,100,0
2,38,0,19
2,40,0,21
2,38,100,0
2,38,0,19
2,35,100,1
2,35,0,40
2,33,100,0
2,33,0,19
2,31,100,1
2,31,0,360
2,28,100,0
2,28,0,60
2,26,100,0
2,26,0,60
2,31,100,0
2,30,100,0
2,30,0,19
2,31,0,221
2,35,100,0
2,35,0,240
2,36,100,0
2,36,0,340
2,36,100,60
2,36,0,19
2,37,100,1
2,37,0,60
2,38,100,0
2,38,0,200
2,38,100,60
2,38,0,40
2,38,100,40
2,38,0,19
2,38,100,41
2,38,0,19
2,38,100,1
2,38,0,19
2,40,100,41
2,40,0,240
2,38,100,0
2,38,0,240
2,36,100,0
2,36,0,210
2,35,100,30
2,35,0,210
2,36,100,30
2,36,0,210
2,35,100,30
2,35,0,210
2,33,100,30
2,33,0,210
2,26,100,30
2,26,0,210
2,26,100,30
2,26,0,29
2,26,100,421
2,26,0,29
2,43,100,1
2,43,0,19
2,43,100,21
2,43,0,19
2,43,100,1
2,43,0,19
2,43,100,21
2,43,0,19
2,43,100,1
2,43,0,40
2,43,100,15
2,43,0,19
2,43,100,6
2,43,0,40
2,43,100,40
2,43,0,19
2,43,100,1
2,43,0,40
2,43,100,140
2,43,0,19
2,43,100,21
2,43,0,19
2,43,100,1
2,43,0,19
2,43,100,21
2,43,0,19
2,43,100,1
2,43,0,19
2,43,100,41
2,43,0,19
2,43,100,21
2,43,0,19
2,43,100,41
2,43,0,19
2,43,100,1
2,43,0,40
2,36,100,140
2,36,0,19
2,36,100,9
2,36,0,19
2,36,100,15
2,36,0,19
2,36,100,9
2,36,0,19
2,36,100,11
2,36,0,19
2,36,100,41
2,36,0,19
2,36,100,13
2,36,0,19
2,36,100,39
2,36,0,19
2,36,100,11
2,36,0,40
2,38,100,140
2,38,0,19
2,38,100,21
2,38,0,19
2,38,100,1
2,38,0,19
2,38,100,21
2,38,0,19
2,38,100,1
2,38,0,19
2,38,100,41
2,38,0,19
2,38,100,21
2,38,0,19
2,38,100,41
2,38,0,19
2,38,100,1
2,38,0,40
2,43,100,140
2,43,0,19
2,43,100,21
2,43,0,19
2,43,100,1
2,43,0,19
2,43,100,21
2,43,0,19
2,43,100,1
2,43,0,19
2,43,100,41
2,43,0,19
2,43,100,21
2,43,0,40
2,38,100,20
2,38,0,19
2,31,100,1
2,31,0,40
2,43,100,140
2,43,0,19
2,43,100,21
2,43,0,19
2,43,100,1
2,43,0,19
2,43,100,21
2,43,0,19
2,43,100,1
2,43,0,19
2,43,100,41
2,43,0,19
2,47,100,1
2,47,0,40
2,45,100,40
2,45,0,19
2,43,100,1
2,43,0,40
2,36,100,140
2,36,0,19
2,36,100,21
2,36,0,19
2,36,100,1
2,36,0,19
2,36,100,21
2,36,0,19
2,36,100,1
2,36,0,19
2,36,100,41
2,36,0,19
2,36,100,1
2,36,0,19
2,36,100,61
2,36,0,19
2,36,100,1
2,36,0,40
2,38,100,140
2,38,0,19
2,38,100,21
2,38,0,19
2,38,100,1
2,38,0,19
2,38,100,21
2,38,0,19
2,38,100,1
2,38,0,40
2,38,100,20
2,38,0,19
2,38,100,21
2,38,0,19
2,38,100,41
2,38,0,19
2,38,100,1
2,38,0,40
2,43,100,1100
2,43,0,19
2,43,100,21
2,43,0,19
2,43,100,1
2,43,0,19
2,43,100,21
2,43,0,19
2,43,100,1
2,43,0,40
2,43,100,15
2,43,0,19
2,43,100,6
2,43,0,40
2,43,100,40
2,43,0,19
2,43,100,1
2,43,0,40
2,43,100,140
2,43,0,19
2,43,100,21
2,43,0,19
2,43,100,1
2,43,0,19
2,43,100,21
2,43,0,19
2,43,100,1
2,43,0,19
2,43,100,41
2,43,0,19
2,43,100,21
2,43,0,19
2,43,100,41
2,43,0,19
2,43,100,1
2,43,0,40
2,36,100,140
2,36,0,19
2,36,100,9
2,36,0,19
2,36,100,15
2,36,0,19
2,36,100,9
2,36,0,19
2,36,100,11
2,36,0,19
2,36,100,41
2,36,0,19
2,36,100,13
2,36,0,19
2,36,100,39
2,36,0,19
2,36,100,11
2,36,0,40
2,38,100,140
2,38,0,19
2,38,100,21
2,38,0,19
2,38,100,1
2,38,0,19
2,38,100,21
2,38,0,19
2,38,100,1
2,38,0,19
2,38,100,41
2,38,0,19
2,38,100,21
2,38,0,19
2,38,100,41
2,38,0,19
2,38,100,1
2,38,0,40
2,43,100,140
2,43,0,19
2,43,100,21
2,43,0,19
2,43,100,1
2,43,0,19
2,43,100,21
2,43,0,19
2,43,100,1
2,43,0,19
2,43,100,41
2,43,0,19
2,43,100,21
2,43,0,40
2,38,100,20
2,38,0,19
2,31,100,1
2,31,0,40
2,43,100,140
2,43,0,19
2,43,100,21
2,43,0,19
2,43,100,1
2,43,0,19
2,43,100,21
2,43,0,19
2,43,100,1
2,43,0,19
2,43,100,41
2,43,0,19
2,47,100,1
2,47,0,40
2,45,100,40
2,45,0,19
2,43,100,1
2,43,0,40
2,36,100,140
2,36,0,19
2,36,100,21
2,36,0,19
2,36,100,1
2,36,0,19
2,36,100,21
2,36,0,19
2,36,100,1
2,36,0,19
2,36,100,41
2,36,0,19
2,36,100,1
2,36,0,19
2,36,100,61
2,36,0,19
2,36,100,1
2,36,0,40
2,38,100,140
2,38,0,19
2,38,100,21
2,38,0,19
2,38,100,1
2,38,0,19
2,38,100,21
2,38,0,19
2,38,100,1
2,38,0,40
2,38,100,20
2,38,0,19
2,38,100,21
2,38,0,19
2,38,100,41
2,38,0,19
2,38,100,1
2,38,0,40
2,31,100,7
2,31,0,9
2,31,100,1
2,31,0,13
2,31,100,0
2,31,0,3
2,31,100,1
2,31,0,6
2,31,100,14
2,31,0,16
2,31,100,4
2,31,0,6
2,31,100,14
2,31,0,16
