track,note,velocity,time
7,77,111,480
7,77,0,17
7,79,119,13
7,79,0,21
7,79,111,39
7,79,0,26
7,79,117,34
7,79,0,26
7,79,104,64
7,79,0,18
7,77,117,12
7,77,0,21
7,77,117,39
7,77,0,24
7,79,117,36
7,79,0,30
7,76,116,90
7,76,0,17
7,76,110,43
7,76,0,19
7,74,117,41
7,74,0,26
7,74,116,34
7,74,0,113
7,72,109,7
7,72,0,38
7,74,117,82
7,74,0,8
7,74,123,52
7,74,0,24
7,76,110,6
7,76,0,18
7,76,117,12
7,76,0,27
7,76,115,33
7,76,0,49
7,74,118,11
7,74,0,15
7,74,112,15
7,74,0,19
7,76,117,11
7,76,0,73
7,76,111,17
7,76,0,17
7,76,119,13
7,76,0,45
7,71,112,15
7,71,0,12
7,71,116,18
7,71,0,23
7,69,123,7
7,69,0,35
7,67,112,25
7,67,0,60
7,76,111,0
7,74,117,90
7,76,0,10
7,74,0,5
7,74,117,15
7,74,0,95
7,74,111,85
7,74,0,28
7,76,113,2
7,79,117,30
7,76,0,8
7,79,0,38
7,74,114,134
7,74,0,28
7,76,109,2
7,79,115,30
7,76,0,6
7,79,0,52
7,74,111,122
7,74,0,9
7,74,111,21
7,74,0,29
7,76,120,1
7,76,0,25
7,76,116,35
7,76,0,26
7,76,123,34
7,76,0,81
7,74,115,9
7,74,0,16
7,74,118,14
7,72,117,60
7,74,0,3
7,72,0,83
7,74,114,34
7,74,0,10
7,74,113,20
7,74,0,14
7,74,117,16
7,74,0,53
7,76,118,7
7,76,0,23
7,76,111,37
7,76,0,34
7,74,117,26
7,74,0,13
7,74,117,17
7,74,0,23
7,76,123,7
7,76,0,53
7,79,117,7
7,79,0,31
7,79,112,29
7,79,0,24
7,71,108,36
7,71,0,10
7,71,117,20
7,71,0,21
7,69,117,9
7,67,118,60
7,69,0,3
7,76,110,57
7,67,0,3
7,74,120,87
7,76,0,5
7,74,0,8
7,74,113,17
7,74,0,126
7,81,114,234
7,79,117,60
7,81,0,2
7,79,0,27
7,79,116,31
7,79,0,56
7,76,109,4
7,76,0,50
7,79,115,10
7,79,0,84
7,67,117,6
7,69,123,30
7,67,0,5
7,69,0,45
7,69,117,10
7,69,0,261
7,81,117,279
7,81,0,59
7,79,113,1
7,79,0,36
7,79,117,24
7,79,0,59
7,76,107,1
7,69,119,60
7,76,0,3
7,67,111,87
7,69,0,15
7,69,118,15
7,67,0,8
7,69,0,325
7,81,116,267
7,79,117,60
7,81,0,10
7,79,0,29
7,79,109,21
7,79,0,52
7,76,107,8
7,76,0,54
7,71,112,6
7,71,0,90
7,67,104,0
7,69,117,30
7,67,0,7
7,69,0,40
7,69,117,13
7,69,0,143
7,81,117,397
7,81,0,53
7,79,117,7
7,79,0,29
7,79,115,31
7,79,0,56
7,76,111,4
7,76,0,58
7,69,119,2
7,67,114,90
7,69,0,10
7,69,119,20
7,67,0,6
7,69,0,53
7,67,117,1
7,67,0,179
7,74,117,61
7,74,0,60
7,76,114,0
7,76,0,86
7,71,101,4
7,74,114,30
7,71,0,11
7,74,0,411
7,77,109,508
7,77,0,22
7,79,117,8
7,79,0,29
7,79,111,31
7,79,0,26
7,79,117,34
7,79,0,26
7,79,104,64
7,79,0,18
7,77,117,12
7,77,0,21
7,77,117,39
7,77,0,24
7,79,117,36
7,79,0,30
7,76,116,90
7,76,0,17
7,76,110,43
7,76,0,19
7,74,117,41
7,74,0,26
7,74,116,34
7,74,0,113
7,72,109,7
7,72,0,38
7,74,119,82
7,74,0,40
7,74,119,20
7,74,0,24
7,76,110,6
7,76,0,18
7,76,117,12
7,76,0,27
7,76,115,33
7,76,0,49
7,74,118,11
7,74,0,15
7,74,112,15
7,74,0,19
7,76,117,11
7,76,0,44
7,76,117,15
7,76,0,22
7,76,111,9
7,76,0,17
7,76,119,13
7,76,0,45
7,71,112,15
7,71,0,12
7,71,116,18
7,71,0,23
7,69,123,7
7,69,0,35
7,67,112,25
7,67,0,60
7,76,111,0
7,74,123,90
7,76,0,10
7,74,0,5
7,74,120,15
7,74,0,95
7,74,111,85
7,74,0,28
7,76,113,2
7,79,119,30
7,76,0,8
7,79,0,38
7,74,114,134
7,74,0,28
7,76,109,2
7,79,118,30
7,76,0,6
7,79,0,52
7,74,111,122
7,74,0,9
7,74,111,21
7,74,0,29
7,76,120,1
7,76,0,25
7,76,116,35
7,76,0,26
7,76,119,34
7,76,0,81
7,74,115,9
7,74,0,16
7,74,117,14
7,72,117,60
7,74,0,3
7,72,0,75
7,74,114,15
7,74,0,10
7,74,114,17
7,74,0,10
7,74,113,20
7,74,0,14
7,74,117,16
7,74,0,53
7,76,118,7
7,76,0,23
7,76,111,37
7,76,0,34
7,74,117,26
7,74,0,13
7,74,109,17
7,74,0,23
7,76,117,7
7,76,0,53
7,79,117,7
7,79,0,31
7,79,112,29
7,79,0,24
7,71,108,36
7,71,0,10
7,71,119,20
7,71,0,21
7,69,115,9
7,67,117,60
7,69,0,3
7,76,110,57
7,67,0,3
7,74,114,87
7,76,0,5
7,74,0,8
7,74,113,17
7,74,0,126
7,81,112,234
7,79,117,60
7,81,0,2
7,79,0,27
7,79,116,31
7,79,0,56
7,76,109,4
7,76,0,50
7,79,115,10
7,79,0,84
7,67,117,6
7,69,112,30
7,67,0,5
7,69,0,45
7,69,113,10
7,69,0,261
7,81,114,279
7,81,0,59
7,79,113,1
7,79,0,36
7,79,117,24
7,79,0,59
7,76,107,1
7,69,119,60
7,76,0,3
7,67,111,87
7,69,0,15
7,69,113,15
7,67,0,8
7,69,0,325
7,81,112,267
7,79,117,60
7,81,0,10
7,79,0,29
7,79,109,21
7,79,0,52
7,76,117,8
7,76,0,54
7,71,113,6
7,71,0,90
7,67,104,0
7,69,113,30
7,67,0,7
7,69,0,40
7,69,111,13
7,69,0,143
7,81,112,397
7,81,0,53
7,79,117,7
7,79,0,29
7,79,115,31
7,79,0,56
7,76,111,4
7,76,0,58
7,69,114,2
7,67,114,90
7,69,0,10
7,69,116,20
7,67,0,6
7,69,0,53
7,67,109,1
7,67,0,179
7,74,118,61
7,74,0,20
7,74,118,11
7,74,0,20
7,76,114,9
7,76,0,86
7,71,101,4
7,74,114,30
7,71,0,11
7,74,0,411
7,79,111,238
7,81,117,120
7,79,0,2
7,79,112,118
7,81,0,9
7,79,0,6
7,79,109,45
7,79,0,14
7,77,111,11716
7,77,0,17
7,79,119,13
7,79,0,21
7,79,111,39
7,79,0,26
7,79,117,34
7,79,0,26
7,79,104,64
7,79,0,18
7,77,117,12
7,77,0,21
7,77,117,39
7,77,0,24
7,79,117,36
7,79,0,30
7,74,117,63
7,74,0,26
7,76,116,1
7,76,0,36
7,76,110,24
7,76,0,19
7,74,117,41
7,74,0,26
7,74,116,34
7,74,0,120
7,72,109,0
7,72,0,38
7,74,117,82
7,74,0,20
7,74,117,10
7,74,0,20
7,74,123,10
7,74,0,24
7,76,110,6
7,76,0,18
7,76,117,12
7,76,0,27
7,76,115,33
7,76,0,49
7,74,118,11
7,74,0,15
7,74,112,15
7,74,0,19
7,76,117,11
7,76,0,52
7,76,117,8
7,76,0,18
7,76,111,12
7,76,0,17
7,76,119,13
7,76,0,45
7,71,112,15
7,71,0,12
7,71,116,18
7,71,0,23
7,69,123,7
7,67,112,60
7,69,0,6
7,67,0,54
7,76,111,0
7,74,117,90
7,76,0,10
7,74,0,5
7,74,117,15
7,74,0,95
7,74,111,85
7,74,0,28
7,76,113,2
7,79,117,30
7,76,0,8
7,79,0,38
7,74,114,134
7,74,0,28
7,76,109,2
7,79,115,30
7,76,0,6
7,79,0,52
7,74,111,122
7,74,0,9
7,74,111,21
7,74,0,29
7,76,120,1
7,76,0,25
7,76,116,35
7,76,0,26
7,76,123,34
7,76,0,81
7,74,115,9
7,74,0,16
7,74,118,14
7,72,117,60
7,74,0,3
7,72,0,83
7,74,114,34
7,74,0,10
7,74,113,20
7,74,0,14
7,74,117,16
7,74,0,53
7,76,118,7
7,76,0,23
7,76,111,37
7,76,0,34
7,74,117,26
7,74,0,13
7,74,117,17
7,74,0,23
7,76,123,7
7,76,0,53
7,79,117,7
7,79,0,31
7,79,112,29
7,79,0,24
7,71,108,36
7,71,0,10
7,71,117,20
7,71,0,21
7,69,117,9
7,67,118,60
7,69,0,3
7,76,110,57
7,67,0,3
7,74,120,87
7,76,0,5
7,74,0,8
7,74,113,17
7,74,0,126
7,81,114,234
7,79,117,60
7,81,0,2
7,79,0,27
7,79,116,31
7,79,0,56
7,76,109,4
7,76,0,50
7,79,115,10
7,79,0,84
7,67,117,6
7,69,123,30
7,67,0,5
7,69,0,45
7,69,117,10
7,69,0,261
7,81,117,279
7,81,0,59
7,79,113,1
7,79,0,36
7,79,117,24
7,79,0,59
7,76,107,1
7,69,119,60
7,76,0,3
7,67,111,87
7,69,0,15
7,69,118,15
7,67,0,8
7,69,0,325
7,81,116,267
7,79,117,60
7,81,0,10
7,79,0,29
7,79,109,21
7,79,0,52
7,76,107,8
7,76,0,54
7,71,112,6
7,71,0,90
7,67,104,0
7,69,117,30
7,67,0,7
7,69,0,40
7,69,117,13
7,69,0,143
7,81,117,397
7,79,117,60
7,81,0,6
7,79,0,23
7,79,115,31
7,79,0,56
7,76,111,4
7,76,0,58
7,69,119,2
7,67,114,90
7,69,0,10
7,69,119,20
7,67,0,6
7,69,0,53
7,67,117,1
7,67,0,179
7,74,117,61
7,74,0,60
7,76,114,0
7,76,0,86
7,71,101,4
7,71,0,30
7,74,114,0
7,74,0,422
8,59,45,603
8,52,41,0
8,55,47,0
8,52,0,300
8,55,0,10
8,59,0,11
8,59,33,39
8,62,33,0
8,55,33,0
8,52,33,0
8,62,0,80
8,52,0,8
8,55,0,4
8,59,0,7
8,55,36,21
8,52,33,0
8,60,35,0
8,60,0,272
8,55,0,19
8,52,0,12
8,52,24,57
8,57,37,0
8,55,35,0
8,55,0,69
8,57,0,17
8,52,0,9
8,57,36,25
8,48,29,0
8,52,33,0
8,52,0,215
8,48,0,0
8,57,0,3
8,59,26,22
8,51,27,0
8,54,30,0
8,57,31,0
8,57,0,208
8,54,0,5
8,51,0,0
8,59,0,5
8,60,52,22
8,55,52,0
8,52,52,0
8,48,52,0
8,48,0,473
8,52,0,0
8,60,0,0
8,55,0,2
8,50,78,1925
8,53,65,0
8,59,67,0
8,55,56,0
8,55,0,3
8,50,0,12
8,59,0,1
8,53,0,0
8,50,72,44
8,53,58,0
8,55,59,0
8,59,50,0
8,59,0,12
8,55,0,0
8,53,0,9
8,50,0,2
8,53,76,157
8,50,84,0
8,59,67,0
8,55,67,0
8,55,0,8
8,59,0,6
8,53,0,6
8,50,0,1
8,50,67,39
8,53,56,0
8,59,73,0
8,55,64,0
8,55,0,9
8,53,0,12
8,50,0,1
8,59,0,2
8,50,85,156
8,53,72,0
8,59,73,0
8,55,52,0
8,55,0,13
8,59,0,6
8,50,0,3
8,53,0,1
8,50,77,37
8,53,64,0
8,59,66,0
8,55,70,0
8,55,0,16
8,53,0,4
8,59,0,1
8,50,0,0
8,59,66,159
8,50,78,0
8,53,56,0
8,55,49,0
8,55,0,7
8,50,0,15
8,53,0,1
8,59,0,1
8,59,52,36
8,53,60,0
8,50,72,0
8,55,66,0
8,55,0,18
8,53,0,4
8,50,0,2
8,59,0,0
8,53,73,156
8,50,69,0
8,55,70,0
8,59,58,0
8,55,0,22
8,59,0,1
8,50,0,0
8,53,0,1
8,50,79,36
8,53,63,0
8,59,71,0
8,55,67,0
8,55,0,19
8,50,0,4
8,53,0,0
8,59,0,0
8,53,67,157
8,50,67,0
8,59,72,0
8,55,56,0
8,55,0,22
8,53,0,1
8,50,0,1
8,59,0,1
8,50,73,35
8,53,72,0
8,59,71,0
8,55,66,0
8,55,0,15
8,53,0,6
8,50,0,3
8,59,0,1
8,50,79,155
8,53,72,0
8,59,67,0
8,55,63,0
8,55,0,20
8,53,0,5
8,59,0,1
8,50,0,2
8,53,67,32
8,50,76,0
8,55,66,0
8,59,58,0
8,59,0,12
8,55,0,6
8,50,0,5
8,53,0,0
8,50,74,157
8,53,67,0
8,59,72,0
8,55,66,0
8,55,0,20
8,53,0,3
8,59,0,1
8,50,0,0
8,53,50,36
8,50,74,0
8,59,64,0
8,55,59,0
8,55,0,20
8,53,0,3
8,50,0,2
8,59,0,3
8,50,70,152
8,59,80,0
8,55,49,0
8,55,0,9
8,59,0,8
8,50,0,4
8,50,74,39
8,59,74,0
8,55,74,0
8,55,0,8
8,50,0,8
8,59,0,5
8,53,60,159
8,60,64,0
8,57,70,0
8,57,0,9
8,60,0,13
8,53,0,0
8,53,56,38
8,60,65,0
8,57,72,0
8,57,0,12
8,53,0,9
8,60,0,1
8,59,74,158
8,52,72,0
8,55,51,0
8,55,0,16
8,52,0,5
8,59,0,4
8,59,77,35
8,52,56,0
8,55,47,0
8,55,0,9
8,52,0,2
8,59,0,10
8,50,83,39
8,54,74,0
8,57,85,0
8,50,0,11
8,57,0,4
8,54,0,0
8,48,84,45
8,55,83,0
8,52,76,0
8,52,0,235
8,48,0,3
8,55,0,3
8,50,70,59
8,59,78,0
8,54,57,0
8,59,0,16
8,54,0,1
8,50,0,1
8,50,80,42
8,54,67,0
8,59,84,0
8,54,0,18
8,50,0,3
8,59,0,5
8,52,72,154
8,59,64,0
8,55,67,0
8,55,0,11
8,59,0,5
8,52,0,3
8,52,67,41
8,59,83,0
8,55,66,0
8,55,0,19
8,52,0,2
8,59,0,1
8,48,73,158
8,55,69,0
8,52,64,0
8,52,0,9
8,48,0,5
8,55,0,3
8,48,53,43
8,52,64,0
8,55,67,0
8,48,0,8
8,55,0,3
8,52,0,0
8,48,83,49
8,55,79,0
8,52,70,0
8,48,0,62
8,52,0,1
8,55,0,6
8,57,89,21
8,50,78,0
8,54,67,0
8,57,0,6
8,54,0,2
8,50,0,0
8,50,77,22
8,54,73,0
8,57,72,0
8,54,0,125
8,57,0,3
8,50,0,1
8,50,70,111
8,59,80,0
8,55,49,0
8,55,0,9
8,59,0,8
8,50,0,4
8,50,78,39
8,59,78,0
8,55,78,0
8,55,0,8
8,50,0,8
8,59,0,5
8,53,60,159
8,60,64,0
8,57,70,0
8,57,0,9
8,60,0,13
8,53,0,0
8,53,56,38
8,60,65,0
8,57,72,0
8,57,0,12
8,53,0,9
8,60,0,1
8,59,74,158
8,52,72,0
8,55,51,0
8,55,0,16
8,52,0,5
8,59,0,4
8,59,77,35
8,52,56,0
8,55,47,0
8,55,0,9
8,52,0,2
8,59,0,10
8,50,83,39
8,54,74,0
8,57,85,0
8,50,0,11
8,57,0,4
8,54,0,0
8,48,84,45
8,55,83,0
8,52,76,0
8,52,0,235
8,48,0,3
8,55,0,3
8,50,70,59
8,59,78,0
8,54,57,0
8,59,0,16
8,54,0,1
8,50,0,1
8,50,80,42
8,54,67,0
8,59,84,0
8,54,0,18
8,50,0,3
8,59,0,5
8,52,72,154
8,59,64,0
8,55,67,0
8,55,0,11
8,59,0,5
8,52,0,3
8,52,72,41
8,59,72,0
8,55,72,0
8,55,0,19
8,52,0,2
8,59,0,1
8,48,73,158
8,55,69,0
8,52,64,0
8,52,0,9
8,48,0,5
8,55,0,3
8,48,53,43
8,52,64,0
8,55,67,0
8,48,0,8
8,55,0,3
8,52,0,0
8,48,83,49
8,55,79,0
8,52,70,0
8,48,0,62
8,52,0,1
8,55,0,6
8,57,89,21
8,50,78,0
8,54,67,0
8,57,0,6
8,54,0,2
8,50,0,0
8,50,77,22
8,54,73,0
8,57,72,0
8,54,0,125
8,57,0,3
8,50,0,1
8,52,58,111
8,59,58,0
8,55,58,0
8,52,0,81
8,55,0,4
8,59,0,4
8,59,43,31
8,52,56,0
8,55,44,0
8,55,0,85
8,52,0,0
8,59,0,7
8,52,54,28
8,59,32,0
8,55,47,0
8,55,0,70
8,52,0,3
8,59,0,7
8,52,64,40
8,59,52,0
8,55,52,0
8,55,0,37
8,52,0,1
8,59,0,2
