track,note,velocity,time
0,36,100,1440
0,77,65,96
0,36,106,0
0,56,93,0
0,63,67,0
0,26,107,0
0,62,87,0
0,62,65,0
0,74,75,0
0,77,67,12
0,63,68,0
0,77,66,92
0,26,103,0
0,77,68,12
0,63,64,0
0,77,60,92
0,56,91,0
0,61,87,0
0,64,86,0
0,26,105,0
0,62,87,0
0,62,69,0
0,74,74,0
0,77,62,12
0,77,66,92
0,26,102,0
0,62,88,0
0,62,65,0
0,74,79,0
0,77,67,12
0,77,65,92
0,56,97,0
0,63,68,0
0,26,100,0
0,64,79,0
0,64,67,0
0,76,77,0
0,77,65,12
0,63,73,0
0,77,65,92
0,61,86,0
0,26,103,0
0,77,60,12
0,61,88,0
0,63,65,0
0,77,63,28
0,56,90,0
0,60,85,0
0,64,86,0
0,26,107,0
0,67,80,0
0,67,68,0
0,79,76,0
0,77,64,12
0,77,69,88
0,26,108,0
0,69,82,0
0,69,73,0
0,81,77,0
0,77,63,12
0,77,63,20
0,56,89,0
0,63,72,0
0,26,107,0
0,77,61,12
0,63,72,0
0,77,60,28
0,26,108,0
0,71,87,0
0,71,67,0
0,83,78,0
0,77,63,12
0,63,67,0
0,77,66,24
0,56,92,0
0,61,90,0
0,64,91,0
0,26,107,0
0,77,66,12
0,77,62,92
0,26,109,0
0,77,60,12
0,77,69,92
0,56,86,0
0,63,64,0
0,26,100,0
0,77,61,12
0,63,66,0
0,77,64,92
0,61,93,0
0,26,107,0
0,77,69,12
0,61,93,0
0,63,64,0
0,77,68,92
0,56,85,0
0,60,86,0
0,64,91,0
0,26,105,0
0,64,88,0
0,64,66,0
0,76,80,0
0,77,66,12
0,77,69,92
0,26,103,0
0,67,87,0
0,67,66,0
0,79,80,0
0,77,66,12
0,77,60,92
0,56,90,0
0,63,70,0
0,28,104,0
0,69,83,0
0,69,65,0
0,81,80,0
0,77,66,12
0,63,68,0
0,77,61,92
0,28,108,0
0,77,63,12
0,63,65,0
0,77,61,28
0,56,90,0
0,61,90,0
0,64,85,0
0,28,101,0
0,71,81,0
0,71,69,0
0,83,76,0
0,77,60,12
0,77,60,92
0,28,104,0
0,69,81,0
0,69,71,0
0,81,82,0
0,77,65,12
0,77,63,92
0,56,92,0
0,63,69,0
0,28,101,0
0,77,65,12
0,63,72,0
0,77,67,28
0,61,87,0
0,28,104,0
0,67,80,0
0,67,65,0
0,79,75,0
0,77,67,12
0,61,87,0
0,63,73,0
0,77,65,20
0,56,90,0
0,60,90,0
0,64,86,0
0,28,105,0
0,64,79,0
0,64,69,0
0,76,82,0
0,77,63,12
0,77,69,92
0,28,100,0
0,67,85,0
0,67,65,0
0,79,74,0
0,77,62,12
0,77,62,92
0,56,91,0
0,63,66,0
0,24,105,0
0,69,87,0
0,69,71,0
0,81,80,0
0,77,62,12
0,63,69,0
0,77,62,92
0,24,105,0
0,77,67,12
0,63,66,0
0,77,66,28
0,56,85,0
0,61,89,0
0,64,91,0
0,24,105,0
0,71,80,0
0,71,70,0
0,83,78,0
0,77,62,12
0,77,68,20
0,24,109,0
0,69,83,0
0,69,66,0
0,81,73,0
0,77,68,12
0,77,60,92
0,56,85,0
0,63,66,0
0,24,108,0
0,77,68,12
0,63,69,0
0,77,67,28
0,61,86,0
0,24,101,0
0,67,79,0
0,71,64,0
0,79,78,0
0,69,72,12
0,77,67,12
0,61,88,0
0,63,72,0
0,67,70,16
0,77,67,24
0,56,93,0
0,60,97,0
0,64,89,0
0,24,103,0
0,64,64,0
0,77,68,12
0,77,69,20
0,36,102,0
0,24,105,0
0,77,62,12
0,77,69,92
0,36,103,0
0,56,84,0
0,63,69,0
0,26,105,0
0,62,84,0
0,62,67,0
0,74,76,0
0,77,61,12
0,63,67,0
0,77,66,92
0,26,104,0
0,77,62,12
0,63,70,0
0,77,64,92
0,56,89,0
0,61,87,0
0,64,93,0
0,26,108,0
0,62,84,0
0,62,72,0
0,74,78,0
0,77,68,12
0,77,64,92
0,26,106,0
0,62,81,0
0,62,72,0
0,74,76,0
0,77,62,12
0,77,69,92
0,56,90,0
0,63,71,0
0,26,107,0
0,64,81,0
0,64,67,0
0,76,81,0
0,77,67,12
0,63,72,0
0,77,66,92
0,61,90,0
0,26,106,0
0,77,68,12
0,61,84,0
0,63,68,0
0,77,62,32
0,56,97,0
0,60,89,0
0,64,92,0
0,26,103,0
0,67,81,0
0,67,65,0
0,79,82,0
0,77,61,12
0,77,64,92
0,26,102,0
0,69,83,0
0,69,68,0
0,81,77,0
0,77,62,12
0,77,69,8
0,56,92,0
0,63,70,0
0,26,106,0
0,77,66,12
0,63,64,0
0,77,64,28
0,26,100,0
0,71,80,0
0,71,70,0
0,83,82,0
0,77,63,12
0,63,68,0
0,77,61,8
0,56,86,0
0,61,86,0
0,64,93,0
0,26,100,0
0,77,62,12
0,77,60,92
0,26,105,0
0,77,68,12
0,77,67,92
0,56,85,0
0,63,66,0
0,26,104,0
0,77,68,12
0,63,66,0
0,77,61,92
0,61,85,0
0,26,100,0
0,77,60,12
0,61,93,0
0,63,73,0
0,77,68,92
0,56,91,0
0,60,92,0
0,64,91,0
0,26,107,0
0,64,88,0
0,64,70,0
0,76,78,0
0,77,60,12
0,77,65,92
0,26,100,0
0,67,83,0
0,67,73,0
0,79,77,0
0,77,69,12
0,77,69,92
0,56,91,0
0,63,68,0
0,28,109,0
0,69,83,0
0,69,65,0
0,81,81,0
0,77,67,12
0,63,67,0
0,77,61,92
0,28,107,0
0,77,60,12
0,63,72,0
0,77,64,28
0,56,86,0
0,61,90,0
0,64,87,0
0,28,104,0
0,71,81,0
0,71,65,0
0,83,80,0
0,77,66,12
0,77,69,92
0,28,100,0
0,69,86,0
0,69,68,0
0,81,80,0
0,77,65,12
0,77,60,92
0,56,93,0
0,63,72,0
0,28,102,0
0,77,65,12
0,63,71,0
0,77,69,28
0,61,88,0
0,28,108,0
0,67,80,0
0,67,71,0
0,79,77,0
0,77,67,12
0,61,93,0
0,63,71,0
0,77,68,20
0,56,85,0
0,60,86,0
0,64,85,0
0,28,107,0
0,64,88,0
0,64,69,0
0,76,75,0
0,77,69,12
0,77,64,92
0,28,107,0
0,67,79,0
0,67,65,0
0,79,77,0
0,77,63,12
0,77,63,92
0,56,87,0
0,63,73,0
0,24,109,0
0,69,79,0
0,69,72,0
0,81,74,0
0,77,60,12
0,63,70,0
0,77,63,92
0,24,101,0
0,77,63,12
0,63,64,0
0,77,65,28
0,56,89,0
0,61,86,0
0,64,91,0
0,24,100,0
0,71,86,0
0,71,70,0
0,83,81,0
0,77,68,12
0,77,60,20
0,24,108,0
0,69,87,0
0,69,71,0
0,81,73,0
0,77,60,12
0,77,61,92
0,56,85,0
0,63,69,0
0,24,109,0
0,77,68,12
0,63,70,0
0,77,63,28
0,61,93,0
0,24,108,0
0,67,81,0
0,67,67,0
0,79,75,0
0,77,63,12
0,61,89,0
0,63,73,0
0,77,66,92
0,38,115,0
0,56,93,0
0,60,93,0
0,64,89,0
0,24,102,0
0,77,61,12
0,77,68,32
0,36,105,0
0,24,107,0
0,65,73,0
0,64,68,24
0,62,66,0
0,77,66,4
0,60,67,0
0,59,64,4
0,57,72,24
0,36,101,4
0,49,105,0
0,42,78,0
0,56,89,0
0,63,72,0
0,26,103,0
0,62,84,0
0,50,70,0
0,55,68,0
0,62,74,0
0,62,68,0
0,74,79,0
0,63,72,12
0,42,81,92
0,26,108,0
0,63,70,12
0,38,114,28
0,42,79,0
0,56,86,0
0,61,85,0
0,64,85,0
0,26,104,0
0,62,83,0
0,62,64,0
0,74,76,0
0,42,83,108
0,26,109,0
0,62,83,0
0,62,70,0
0,74,77,0
0,36,102,20
0,42,83,0
0,56,87,0
0,63,64,0
0,26,108,0
0,64,84,0
0,64,66,0
0,76,73,0
0,63,70,12
0,42,82,92
0,61,86,0
0,26,100,0
0,61,88,12
0,63,73,0
0,38,113,28
0,42,81,0
0,56,87,0
0,60,87,0
0,64,90,0
0,26,103,0
0,67,87,0
0,67,68,0
0,79,73,0
0,42,78,108
0,26,101,0
0,69,86,0
0,69,65,0
0,81,80,0
0,36,108,108
0,42,79,0
0,56,91,0
0,63,65,0
0,26,100,0
0,63,68,12
0,42,82,28
0,26,103,0
0,71,84,0
0,71,64,0
0,83,81,0
0,63,67,12
0,38,111,20
0,42,77,0
0,56,89,0
0,61,87,0
0,64,85,0
0,26,100,0
0,42,81,108
0,26,100,0
0,36,102,108
0,42,79,0
0,56,87,0
0,63,73,0
0,26,105,0
0,63,68,12
0,42,80,92
0,61,93,0
0,26,108,0
0,61,85,12
0,63,69,0
0,38,112,92
0,42,77,0
0,56,86,0
0,60,91,0
0,64,86,0
0,26,103,0
0,64,86,0
0,64,72,0
0,76,75,0
0,42,79,20
0,26,105,0
0,67,79,0
0,67,65,0
0,79,76,0
0,36,108,36
0,42,78,0
0,56,87,0
0,63,65,0
0,28,102,0
0,69,81,0
0,52,75,0
0,59,68,0
0,64,67,0
0,69,65,0
0,81,80,0
0,63,68,12
0,42,77,92
0,28,106,0
0,63,68,12
0,38,115,28
0,42,78,0
0,56,87,0
0,61,87,0
0,64,87,0
0,28,103,0
0,71,85,0
0,71,71,0
0,83,76,0
0,42,80,20
0,28,101,0
0,69,88,0
0,52,68,0
0,59,66,0
0,64,69,0
0,69,70,0
0,81,77,0
0,36,106,108
0,42,77,0
0,56,91,0
0,63,68,0
0,28,104,0
0,63,66,12
0,42,83,28
0,61,87,0
0,28,108,0
0,67,87,0
0,67,72,0
0,79,75,0
0,61,91,12
0,63,65,0
0,38,112,20
0,42,80,0
0,56,91,0
0,60,87,0
0,64,92,0
0,28,102,0
0,64,85,0
0,64,68,0
0,76,74,0
0,42,77,20
0,28,103,0
0,62,83,0
0,62,70,0
0,74,77,0
0,36,106,20
0,42,78,0
0,56,86,0
0,63,69,0
0,24,103,0
0,69,84,0
0,48,67,0
0,55,68,0
0,60,66,0
0,69,66,0
0,81,75,0
0,63,65,12
0,42,81,92
0,24,101,0
0,63,69,12
0,38,115,28
0,42,77,0
0,56,94,0
0,61,91,0
0,64,87,0
0,24,100,0
0,71,81,0
0,71,71,0
0,83,78,0
0,42,79,20
0,24,106,0
0,69,82,0
0,48,72,0
0,55,69,0
0,60,71,0
0,69,69,0
0,81,79,0
0,36,104,108
0,42,83,0
0,56,85,0
0,63,71,0
0,24,109,0
0,63,69,12
0,42,80,28
0,61,89,0
0,24,100,0
0,67,83,0
0,67,64,0
0,79,73,0
0,61,86,12
0,63,66,0
0,38,109,20
0,42,82,0
0,56,89,0
0,60,92,0
0,64,88,0
0,24,101,0
0,64,67,0
0,36,108,20
0,42,80,0
0,24,107,0
0,36,102,36
0,42,81,0
0,56,92,0
0,63,70,0
0,26,109,0
0,62,82,0
0,50,72,0
0,55,70,0
0,62,70,0
0,62,71,0
0,74,82,0
0,63,71,12
0,42,81,92
0,26,107,0
0,63,66,12
0,38,112,28
0,42,83,0
0,56,92,0
0,61,88,0
0,64,84,0
0,26,100,0
0,62,81,0
0,62,72,0
0,74,79,0
0,42,78,108
0,26,103,0
0,62,82,0
0,62,64,0
0,74,81,0
0,36,106,20
0,42,77,0
0,56,90,0
0,63,65,0
0,26,105,0
0,64,79,0
0,64,73,0
0,76,77,0
0,63,72,12
0,42,79,92
0,61,92,0
0,26,105,0
0,61,87,12
0,63,68,0
0,38,115,28
0,42,78,0
0,56,86,0
0,60,89,0
0,64,92,0
0,26,105,0
0,67,82,0
0,67,69,0
0,79,78,0
0,42,82,108
0,26,103,0
0,69,88,0
0,69,67,0
0,81,81,0
0,36,101,108
0,42,77,0
0,56,93,0
0,63,65,0
0,26,108,0
0,63,66,12
0,42,77,28
0,26,103,0
0,71,88,0
0,71,68,0
0,83,75,0
0,63,73,12
0,38,110,92
0,42,77,0
0,56,87,0
0,61,93,0
0,64,91,0
0,26,100,0
0,42,81,108
0,26,105,0
0,36,109,108
0,42,83,0
0,56,93,0
0,63,64,0
0,26,107,0
0,63,73,12
0,42,83,92
0,61,87,0
0,26,100,0
0,61,91,12
0,63,66,0
0,38,117,92
0,42,78,0
0,56,93,0
0,60,90,0
0,64,85,0
0,26,104,0
0,64,84,0
0,64,65,0
0,76,78,0
0,42,76,20
0,26,105,0
0,67,88,0
0,67,68,0
0,79,82,0
0,36,100,36
0,42,79,0
0,56,87,0
0,63,72,0
0,35,102,0
0,69,83,0
0,52,71,0
0,59,75,0
0,64,72,0
0,69,64,0
0,81,80,0
0,63,70,12
0,42,76,92
0,35,107,0
0,63,72,12
0,38,114,28
0,42,76,0
0,56,85,0
0,61,88,0
0,64,87,0
0,35,103,0
0,71,87,0
0,71,67,0
0,83,75,0
0,42,82,20
0,35,108,0
0,69,86,0
0,52,69,0
0,59,66,0
0,64,67,0
0,69,65,0
0,81,73,0
0,36,103,108
0,42,81,0
0,56,91,0
0,63,67,0
0,35,107,0
0,63,69,12
0,42,77,28
0,61,91,0
0,35,102,0
0,67,81,0
0,67,66,0
0,79,73,0
0,61,93,12
0,63,69,0
0,38,110,20
0,42,82,0
0,56,94,0
0,60,85,0
0,64,87,0
0,35,109,0
0,64,85,0
0,64,70,0
0,76,82,0
0,42,79,20
0,35,104,0
0,62,79,0
0,62,70,0
0,74,76,0
0,36,100,20
0,42,76,0
0,56,90,0
0,63,65,0
0,36,104,0
0,69,83,0
0,48,70,0
0,55,75,0
0,60,69,0
0,69,70,0
0,81,78,0
0,63,71,12
0,42,78,92
0,36,108,0
0,63,68,12
0,38,108,28
0,42,83,0
0,56,85,0
0,61,92,0
0,64,89,0
0,36,108,0
0,71,86,0
0,71,73,0
0,83,76,0
0,42,82,20
0,36,105,0
0,69,87,0
0,48,66,0
0,55,69,0
0,60,68,0
0,69,65,0
0,81,81,0
0,36,109,24
0,42,77,0
0,56,90,0
0,63,70,0
0,36,101,0
0,66,69,0
0,63,67,12
0,42,83,24
0,61,86,0
0,36,103,0
0,67,82,0
0,64,71,0
0,67,65,0
0,79,78,0
0,61,85,12
0,63,64,0
0,38,111,20
0,42,81,0
0,56,88,0
0,60,84,0
0,64,86,0
0,36,108,0
0,64,87,0
0,66,73,0
0,64,64,0
0,36,109,20
0,42,77,0
0,36,108,0
0,55,66,0
0,62,71,0
0,67,75,0
0,36,104,108
0,42,77,0
0,31,109,0
0,62,83,0
0,67,86,0
0,71,88,0
0,55,103,0
0,57,116,0
0,42,80,20
0,31,106,0
0,62,87,0
0,67,86,0
0,71,84,0
0,55,107,0
0,59,117,0
0,38,116,20
0,42,76,0
0,43,104,0
0,62,84,0
0,67,80,0
0,71,85,0
0,55,103,0
0,59,120,0
0,42,83,36
0,62,88,0
0,67,85,0
0,71,83,0
0,55,107,0
0,59,116,0
0,36,109,108
0,42,80,0
0,31,109,0
0,62,86,0
0,67,80,0
0,71,82,0
0,55,98,0
0,59,115,0
0,42,81,108
0,31,108,0
0,62,88,0
0,67,80,0
0,71,81,0
0,55,103,0
0,59,124,0
0,38,110,20
0,42,76,0
0,43,108,0
0,62,85,0
0,67,81,0
0,71,85,0
0,55,99,0
0,59,123,0
0,42,81,20
0,62,88,0
0,67,87,0
0,71,84,0
0,55,103,0
0,57,117,0
0,36,100,108
0,42,81,0
0,38,100,0
0,62,88,0
0,66,88,0
0,69,87,0
0,50,100,0
0,57,117,0
0,42,81,108
0,38,107,0
0,62,80,0
0,66,80,0
0,69,82,0
0,50,103,0
0,38,110,20
0,42,82,0
0,50,101,0
0,62,87,0
0,66,88,0
0,69,83,0
0,50,106,0
0,57,123,0
0,42,80,108
0,62,82,0
0,66,81,0
0,69,82,0
0,50,107,0
0,57,121,0
0,36,105,108
0,42,78,0
0,38,100,0
0,62,87,0
0,66,87,0
0,69,85,0
0,50,98,0
0,57,118,0
0,42,80,20
0,38,102,0
0,62,88,0
0,66,80,0
0,69,86,0
0,50,103,0
0,59,123,0
0,38,109,20
0,42,79,0
0,50,105,0
0,62,84,0
0,66,83,0
0,69,79,0
