track,note,velocity,time
1,38,81,33360
1,38,71,68
1,38,86,116
1,35,78,52
1,35,66,40
1,35,78,88
1,30,54,12
1,31,59,28
1,31,72,96
1,31,78,128
1,35,86,48
1,38,78,44
1,33,79,196
1,31,83,12
1,31,69,96
1,31,88,176
1,31,83,8
1,31,79,136
1,31,88,136
1,38,73,16
1,30,81,12
1,30,75,92
1,30,89,160
1,33,74,24
1,38,75,588
1,33,72,4
1,31,72,36
1,31,82,84
1,31,88,112
1,31,90,196
1,31,92,128
1,31,83,208
1,31,83,216
1,38,78,324
1,30,79,76
1,30,71,100
1,30,86,144
1,35,79,112
1,35,71,88
1,35,86,108
1,30,81,16
1,28,88,44
1,33,72,20
1,38,89,88
1,45,71,192
1,50,76,16
1,50,82,112
1,38,96,960
1,45,68,16
1,50,71,72
1,50,75,156
1,38,91,952
1,45,68,4
1,50,71,72
1,50,57,152
1,38,96,964
1,45,70,56
1,50,68,88
1,50,78,128
1,45,69,52
1,38,110,108
1,38,79,116
1,38,88,156
1,38,101,160
1,35,85,76
1,35,86,124
1,35,101,144
1,30,96,20
1,31,97,72
1,31,78,100
1,31,88,128
1,35,107,72
1,38,94,120
1,33,107,32
1,31,99,76
1,31,85,108
1,31,90,148
1,31,97,84
1,31,94,120
1,31,92,140
1,38,97,24
1,30,100,400
1,30,96,116
1,30,96,160
1,33,107,124
1,38,97,44
1,33,99,12
1,43,101,28
1,43,79,108
1,43,99,156
1,43,85,100
1,43,97,136
1,43,88,84
1,43,90,204
1,38,79,32
1,42,100,4
1,42,96,132
1,42,100,120
1,35,86,28
1,35,85,108
1,35,92,120
1,47,86,24
1,40,104,12
1,40,73,88
1,40,97,140
1,40,90,116
1,40,94,152
1,40,86,92
1,40,97,216
1,35,101,4
1,33,101,28
1,33,83,76
1,33,99,140
1,45,92,12
1,45,74,76
1,45,110,148
1,33,85,36
1,38,110,164
1,38,79,112
1,38,88,164
1,38,101,160
1,35,85,76
1,35,86,128
1,35,101,140
1,30,96,56
1,31,97,72
1,31,78,108
1,31,88,132
1,35,107,72
1,38,94,116
1,33,107,36
1,31,99,76
1,31,85,108
1,31,90,144
1,31,97,88
1,31,94,120
1,31,92,140
1,38,97,24
1,30,100,396
1,30,96,116
1,30,96,160
1,33,107,124
1,38,97,44
1,33,99,12
1,43,101,28
1,43,79,108
1,43,99,152
1,43,85,100
1,43,97,140
1,43,88,88
1,43,90,204
1,38,79,36
1,42,100,0
1,42,96,128
1,42,100,116
1,35,86,28
1,35,85,108
1,35,92,120
1,47,86,24
1,28,110,12
1,28,92,148
1,28,113,164
1,33,107,184
1,33,83,160
1,33,104,156
1,45,97,16
1,26,79,20
1,33,70,192
1,38,90,0
1,38,99,108
1,26,79,24
1,33,71,196
1,38,83,4
1,38,97,128
1,26,88,956
1,33,94,164
1,38,72,8
1,38,82,112
1,26,88,68
1,33,88,196
1,38,62,188
1,38,74,92
1,43,102,176
1,43,84,128
1,43,102,140
1,45,102,32
1,45,76,128
1,45,102,148
1,42,108,28
1,42,99,76
1,42,105,124
1,45,97,20
1,35,98,8
1,35,92,92
1,35,101,132
1,40,101,8
1,40,94,88
1,40,99,120
1,33,97,36
1,33,80,100
1,33,88,100
1,38,109,24
1,38,92,124
1,38,109,140
1,38,101,128
1,50,111,188
1,38,96,264
1,36,111,64
1,48,103,192
1,36,103,244
1,34,124,112
1,34,109,120
1,34,119,132
1,36,107,80
1,36,107,244
1,36,110,236
1,31,117,16
1,36,107,36
1,31,110,64
1,33,117,36
1,33,101,132
1,33,120,168
1,38,110,80
1,38,99,112
1,38,113,132
1,36,101,4
1,34,89,188
1,33,78,40
1,31,110,60
1,33,120,40
1,45,107,20
1,45,117,120
1,40,71,68
1,38,110,248
1,38,79,112
1,38,88,164
1,38,101,160
1,35,85,76
1,35,86,128
1,35,101,140
1,30,96,56
1,31,97,72
1,31,78,108
1,31,88,132
1,35,107,72
1,38,94,116
1,33,107,36
1,31,99,76
1,31,85,108
1,31,90,144
1,31,97,88
1,31,94,116
1,31,92,140
1,38,97,24
1,30,100,396
1,30,96,116
1,30,96,160
1,33,107,124
1,38,97,44
1,33,99,16
1,43,101,28
1,43,79,108
1,43,99,152
1,43,85,100
1,43,97,140
1,43,88,84
1,43,90,204
1,38,79,36
1,42,100,4
1,42,96,132
1,42,100,116
1,35,86,28
1,35,85,108
1,35,92,120
1,47,86,28
1,28,110,12
1,28,92,148
1,28,113,164
1,33,107,184
1,33,83,160
1,33,104,156
1,45,97,16
1,26,79,20
1,33,70,192
1,38,90,0
1,38,99,104
1,26,79,24
1,33,71,196
1,38,83,4
1,38,97,128
1,26,88,956
1,33,94,160
1,38,72,8
1,38,82,108
1,26,88,68
1,33,88,192
1,38,62,192
1,38,74,92
1,38,110,176
1,38,79,116
1,38,88,156
1,38,101,160
1,35,85,72
1,35,86,124
1,35,101,144
1,30,96,56
1,31,97,72
1,31,78,100
1,31,88,128
1,35,107,72
1,38,94,120
1,33,107,32
1,31,99,76
1,31,85,108
1,31,90,148
1,31,97,84
1,31,94,120
1,31,92,136
1,38,97,24
1,30,100,392
1,30,96,116
1,30,96,160
1,33,107,124
1,38,97,44
1,33,99,12
1,43,101,28
1,43,79,108
1,43,99,156
1,43,85,100
1,43,97,136
1,43,88,88
1,43,90,200
1,38,79,32
1,42,100,4
1,42,96,132
1,42,100,120
1,35,86,24
1,35,85,108
1,35,92,120
1,47,86,24
1,40,104,16
1,40,73,88
1,40,97,140
1,40,90,120
1,40,94,152
1,40,86,92
1,40,97,224
1,35,101,4
1,33,101,28
1,33,83,76
1,33,99,140
1,45,92,20
1,45,74,76
1,45,110,144
1,33,85,36
1,38,110,168
1,38,79,120
1,38,88,164
1,38,101,160
1,35,85,72
1,35,86,124
1,35,101,144
1,30,96,56
1,31,97,72
1,31,78,104
1,31,88,128
1,35,107,72
1,38,94,120
1,33,107,36
1,31,99,76
1,31,85,108
1,31,90,148
1,31,97,84
1,31,94,120
1,31,92,140
1,38,97,24
1,30,100,396
1,30,96,116
1,30,96,160
1,33,107,124
1,38,97,44
1,33,99,12
1,31,120,12
1,43,86,28
1,42,100,12
1,35,88,1532
1,40,90,0
1,33,92,0
1,34,86,36
1,34,96,132
1,34,114,144
1,36,97,72
1,48,104,200
1,36,107,428
1,36,104,192
1,33,99,80
1,33,90,128
1,33,99,128
1,38,85,40
1,38,78,148
1,38,88,16
1,33,88,28
1,31,88,24
1,31,97,116
1,31,97,128
1,33,101,144
1,33,94,140
1,33,110,144
1,45,99,8
1,38,117,216
1,38,104,136
1,38,113,156
1,35,101,96
1,35,101,40
1,30,104,48
1,31,107,52
1,31,80,48
1,31,99,64
1,35,107,36
1,38,90,12
1,33,101,32
1,31,107,24
1,31,97,84
1,31,113,124
1,31,113,148
1,31,94,108
1,31,104,132
1,38,107,396
1,30,104,40
1,30,109,120
1,30,114,116
1,30,114,260
1,33,113,44
1,38,97,0
1,33,113,32
1,31,110,48
1,31,99,76
1,31,117,128
1,31,107,100
1,31,101,116
1,31,107,140
1,38,99,380
1,30,104,28
1,30,100,120
1,30,104,148
1,35,104,60
1,35,92,128
1,35,97,120
1,47,88,40
1,40,117,4
1,40,101,116
1,40,110,140
1,28,94,60
1,28,90,104
1,28,99,128
1,40,78,8
1,33,99,16
1,33,101,92
1,33,107,104
1,45,104,8
1,45,104,44
1,45,117,80
1,40,97,64
1,38,117,0
1,38,104,80
1,38,113,104
1,35,101,60
1,35,101,40
1,30,104,8
1,31,107,52
1,31,80,48
1,31,99,64
2,50,79,2632
2,38,80,0
2,57,56,156
2,62,54,192
2,64,52,16
2,67,42,0
2,58,51,0
2,45,54,112
2,38,86,40
2,50,89,8
2,57,64,28
2,62,65,192
2,71,73,192
2,67,73,0
2,69,63,224
2,66,76,0
2,38,65,44
2,50,97,0
2,57,58,68
2,62,69,196
2,67,57,8
2,64,50,0
2,58,58,0
2,45,54,48
2,38,78,8
2,50,87,4
2,57,55,96
2,62,74,192
2,67,43,192
2,71,44,0
2,62,63,84
2,69,54,144
2,67,63,0
2,62,47,0
2,66,73,24
2,64,65,0
2,57,70,24
2,66,51,0
2,50,63,0
2,38,71,0
2,62,76,0
2,50,54,76
2,57,66,76
2,62,70,0
2,66,46,0
2,50,50,76
2,66,59,44
2,56,63,0
2,62,75,4
2,47,71,0
2,47,54,32
2,47,58,72
2,56,54,60
2,62,74,0
2,47,66,8
2,62,69,12
2,66,52,0
2,43,69,0
2,59,66,0
2,43,57,52
2,66,46,60
2,59,64,4
2,62,69,0
2,43,66,56
2,66,52,20
2,47,79,0
2,59,69,0
2,62,76,0
2,47,68,20
2,66,49,52
2,57,67,0
2,60,71,0
2,50,69,8
2,50,73,104
2,66,49,36
2,62,67,4
2,43,78,0
2,59,71,0
2,43,57,84
2,43,66,96
2,58,54,76
2,65,71,0
2,62,79,0
2,43,68,4
2,43,74,72
2,58,34,28
2,65,61,4
2,62,60,0
2,43,65,88
2,66,63,64
2,42,56,4
2,57,71,0
2,62,76,4
2,42,43,80
2,42,59,104
2,60,74,64
2,64,71,0
2,57,73,4
2,45,78,4
2,67,71,0
2,57,66,24
2,60,66,0
2,66,51,0
2,50,71,0
2,66,53,44
2,62,69,0
2,59,66,0
2,43,75,0
2,43,69,56
2,62,76,44
2,66,54,0
2,59,68,0
2,65,74,64
2,43,70,0
2,62,79,0
2,58,59,4
2,43,66,84
2,62,71,4
2,43,73,124
2,58,87,4
2,58,59,32
2,62,79,0
2,65,69,0
2,57,78,8
2,43,46,4
2,55,69,20
2,57,93,28
2,42,73,4
2,66,54,0
2,62,73,4
2,57,65,64
2,66,49,0
2,62,75,4
2,57,70,144
2,66,54,0
2,47,74,0
2,62,74,0
2,66,69,4
2,47,67,4
2,69,87,84
2,57,71,20
2,66,49,0
2,62,78,0
2,62,78,100
2,59,76,0
2,69,79,0
2,40,80,0
2,66,73,0
2,69,74,192
2,62,83,52
2,68,68,0
2,59,86,0
2,40,86,188
2,40,65,64
2,40,80,104
2,59,79,48
2,67,78,0
2,45,73,4
2,62,82,0
2,45,67,36
2,62,76,96
2,67,74,0
2,45,76,0
2,59,75,0
2,67,66,40
2,62,72,4
2,71,75,0
2,74,71,48
2,71,74,0
2,67,72,4
2,69,90,16
2,66,71,0
2,50,83,0
2,38,91,0
2,74,96,0
2,50,74,80
2,57,86,76
2,62,90,0
2,66,66,4
2,50,70,80
2,66,79,44
2,56,83,0
2,62,95,4
2,47,91,0
2,47,74,36
2,47,78,72
2,56,74,60
2,62,94,0
2,47,86,8
2,62,89,8
2,66,72,0
2,43,89,0
2,59,86,4
2,43,77,56
2,66,66,56
2,59,84,4
2,62,89,4
2,43,86,52
2,66,72,20
2,47,99,0
2,59,89,0
2,62,96,0
2,66,69,24
2,60,91,4
2,57,87,0
2,50,89,8
2,45,93,44
2,66,69,32
2,62,87,4
2,43,98,0
2,59,91,0
2,43,77,84
2,43,86,104
2,58,74,76
2,65,91,0
2,62,99,0
2,43,88,4
2,43,94,72
2,58,54,28
2,65,81,0
2,62,80,0
2,43,85,92
2,66,83,64
2,42,76,0
2,57,91,4
2,62,96,0
2,42,63,80
2,42,79,108
2,60,94,68
2,64,91,0
2,57,93,0
2,45,98,4
2,67,91,0
2,57,86,24
2,60,86,0
2,66,71,0
2,50,91,0
2,66,73,44
2,62,89,0
2,59,86,0
2,43,95,0
2,43,89,52
2,62,96,44
2,66,74,0
2,59,88,0
2,65,94,64
2,43,90,0
2,62,99,0
2,58,79,4
2,43,86,92
2,62,71,4
2,43,93,120
2,58,87,4
2,58,79,24
2,62,99,4
2,65,89,0
2,57,78,4
2,43,66,4
2,55,69,20
2,57,93,24
2,42,93,4
2,66,74,0
2,62,93,4
2,57,85,64
2,66,69,0
2,62,95,4
2,57,90,140
2,66,74,4
2,47,94,0
2,62,94,0
2,66,69,4
2,47,87,4
2,69,87,80
2,57,91,28
2,66,69,0
2,62,98,0
2,40,85,96
2,59,75,0
2,62,80,0
2,67,78,0
2,59,78,104
2,67,76,0
2,62,75,0
2,45,90,100
2,50,127,0
2,38,61,0
2,57,107,188
2,62,105,196
2,64,103,16
2,58,102,0
2,67,93,0
2,45,35,4
2,38,67,40
2,50,127,4
2,57,115,28
2,62,116,192
2,67,124,196
2,71,124,0
2,67,127,220
2,69,114,0
2,38,46,4
2,50,127,0
2,57,109,64
2,62,120,196
2,64,101,4
2,67,108,0
2,58,109,0
2,45,35,4
2,38,59,8
2,50,127,8
2,57,106,96
2,62,125,192
2,71,95,192
2,67,94,0
2,67,114,144
2,69,105,0
2,62,98,192
2,50,94,4
2,66,84,4
2,57,86,4
2,62,94,0
2,62,82,168
2,66,75,0
2,57,70,0
2,62,88,144
2,57,85,0
2,66,75,0
2,56,86,140
2,66,75,0
2,62,86,4
2,47,86,4
2,56,51,152
2,66,58,0
2,62,67,4
2,56,71,132
2,66,66,4
2,62,78,4
2,56,68,136
2,62,82,8
2,66,64,0
2,43,76,72
2,62,80,40
2,66,63,0
2,59,78,0
2,59,61,136
2,66,58,0
2,62,62,0
2,59,79,140
2,62,86,0
2,66,73,0
2,47,92,52
2,62,79,16
2,57,75,0
2,59,75,0
2,66,69,4
2,66,71,24
2,60,92,0
2,57,86,0
2,50,86,16
2,43,74,56
2,62,71,40
2,66,56,0
2,59,74,0
2,59,68,132
2,62,73,4
2,66,71,0
2,62,83,152
2,59,76,0
2,66,75,0
2,43,83,100
2,58,69,24
2,62,90,0
2,65,83,0
2,58,60,140
2,62,74,0
2,65,72,8
2,65,80,148
2,62,88,4
2,58,73,0
2,62,88,168
2,57,82,0
2,66,73,0
2,42,92,8
2,57,80,8
2,57,78,88
2,66,69,4
2,62,80,4
2,45,94,168
2,64,99,12
2,60,104,4
2,57,94,0
2,67,99,0
2,43,47,32
2,50,83,80
2,57,94,0
2,60,104,0
2,66,96,4
2,64,69,36
2,66,84,192
2,43,99,92
2,59,85,16
2,62,83,0
2,66,79,4
2,59,76,120
2,66,77,4
2,62,85,0
2,66,86,144
2,62,97,0
2,59,92,4
2,43,92,108
2,58,81,12
2,62,85,4
2,65,82,0
2,62,88,48
2,58,79,0
2,65,85,0
2,58,75,176
2,62,88,0
2,65,90,0
2,62,86,84
2,57,85,0
2,66,79,0
2,42,92,4
2,57,74,104
2,66,66,0
2,62,80,4
2,62,88,148
2,57,86,0
2,66,77,0
2,47,97,32
2,66,79,20
2,59,73,0
2,57,78,0
2,62,90,0
2,62,76,136
2,57,60,0
2,59,57,4
2,66,58,0
2,66,77,152
2,62,88,4
2,59,74,0
2,57,82,0
2,40,75,172
2,62,94,0
2,66,81,4
2,59,80,4
2,57,85,4
2,66,73,128
2,62,86,0
2,59,62,4
2,57,68,0
2,62,92,148
2,66,86,0
2,59,85,4
2,57,92,0
2,59,70,52
2,57,90,0
2,66,81,0
2,62,94,0
2,62,83,64
2,66,77,0
2,59,73,8
2,57,75,4
2,59,107,228
2,64,101,4
2,57,97,0
2,64,86,68
2,59,83,0
2,57,69,0
2,59,97,224
2,57,86,0
2,64,92,8
2,40,94,168
2,45,101,96
2,62,83,0
2,67,107,0
2,59,88,0
2,62,92,36
2,67,88,92
2,62,88,0
2,59,83,0
2,67,90,128
2,62,88,4
2,59,80,0
2,62,99,84
2,59,90,128
2,67,97,0
2,62,94,0
2,59,92,104
2,62,97,4
2,67,99,4
2,62,107,12
2,67,72,204
2,71,72,0
2,74,72,4
2,67,99,120
2,71,104,0
2,62,107,0
2,45,53,24
2,50,94,156
2,66,84,4
2,57,86,0
2,62,94,0
2,62,82,168
2,66,75,0
2,57,70,0
2,62,88,140
2,57,85,4
2,66,75,0
2,56,86,140
2,66,75,0
2,62,86,4
2,47,86,4
2,56,51,152
2,66,58,0
2,62,67,4
2,56,71,136
2,66,66,0
2,62,78,4
2,56,68,136
2,62,82,4
2,66,64,0
2,43,76,72
2,62,80,40
2,66,63,0
2,59,78,0
2,59,61,136
2,66,58,0
