track,note,velocity,time
2,31,80,576
2,43,90,0
2,62,120,0
2,53,110,0
2,59,110,0
2,31,0,144
2,43,0,0
2,62,0,0
2,53,0,0
2,59,0,0
2,31,80,144
2,43,90,0
2,62,120,0
2,53,110,0
2,58,110,0
2,58,0,12
2,59,110,0
2,31,0,228
2,43,0,0
2,62,0,0
2,53,0,0
2,59,0,0
2,29,80,0
2,41,90,0
2,62,120,0
2,51,110,0
2,57,110,0
2,67,110,144
2,57,0,48
2,67,0,0
2,77,110,0
2,70,110,0
2,70,0,48
2,72,110,0
2,72,0,48
2,67,110,0
2,77,0,48
2,67,0,0
2,77,110,0
2,70,110,0
2,70,0,96
2,72,110,0
2,29,0,192
2,41,0,0
2,62,0,0
2,51,0,0
2,77,0,0
2,72,0,0
2,31,80,0
2,43,90,0
2,62,120,0
2,53,110,0
2,59,110,0
2,31,0,144
2,43,0,0
2,62,0,0
2,53,0,0
2,59,0,0
2,31,80,144
2,43,90,0
2,62,120,0
2,53,110,0
2,58,110,0
2,58,0,12
2,59,110,0
2,31,0,228
2,43,0,0
2,62,0,0
2,53,0,0
2,59,0,0
2,29,80,0
2,41,90,0
2,62,120,0
2,51,110,0
2,57,110,0
2,79,110,144
2,57,0,48
2,79,0,0
2,89,110,0
2,82,110,0
2,82,0,48
2,84,110,0
2,84,0,48
2,85,110,0
2,89,0,48
2,85,0,0
2,89,110,0
2,85,110,0
2,85,0,12
2,84,110,0
2,84,0,36
2,82,110,0
2,82,0,48
2,79,110,0
2,89,0,48
2,79,0,0
2,89,110,0
2,85,110,0
2,85,0,12
2,84,110,0
2,84,0,36
2,82,110,0
2,82,0,48
2,79,110,0
2,29,0,48
2,41,0,0
2,62,0,0
2,51,0,0
2,89,0,0
2,79,0,0
2,31,80,0
2,43,90,0
2,62,120,0
2,53,110,0
2,59,110,0
2,31,0,144
2,43,0,0
2,62,0,0
2,53,0,0
2,59,0,0
2,31,80,144
2,43,90,0
2,62,120,0
2,53,110,0
2,58,110,0
2,58,0,12
2,59,110,0
2,31,0,228
2,43,0,0
2,62,0,0
2,53,0,0
2,59,0,0
2,29,80,0
2,41,90,0
2,62,120,0
2,51,110,0
2,57,110,0
2,57,0,144
2,89,110,0
2,79,110,0
2,89,0,48
2,79,0,0
2,89,110,0
2,82,110,0
2,89,0,48
2,82,0,0
2,89,110,0
2,84,110,0
2,89,0,48
2,84,0,0
2,89,110,0
2,79,110,0
2,89,0,48
2,79,0,0
2,89,110,0
2,82,110,0
2,89,0,96
2,82,0,0
2,89,110,0
2,84,110,0
2,29,0,192
2,41,0,0
2,62,0,0
2,51,0,0
2,89,0,0
2,84,0,0
2,31,80,0
2,43,90,0
2,62,120,0
2,53,110,0
2,59,110,0
2,31,0,144
2,43,0,0
2,62,0,0
2,53,0,0
2,59,0,0
2,31,80,144
2,43,90,0
2,62,120,0
2,53,110,0
2,58,110,0
2,58,0,12
2,59,110,0
2,31,0,228
2,43,0,0
2,62,0,0
2,53,0,0
2,59,0,0
2,29,80,0
2,41,90,0
2,62,120,0
2,51,110,0
2,57,110,0
2,67,110,144
2,57,0,48
2,67,0,0
2,77,110,0
2,70,110,0
2,70,0,48
2,72,110,0
2,77,0,48
2,72,0,0
2,77,110,0
2,73,110,0
2,77,0,48
2,73,0,0
2,77,110,0
2,73,110,0
2,73,0,12
2,72,110,0
2,72,0,36
2,70,110,0
2,77,0,48
2,70,0,0
2,77,110,0
2,72,110,0
2,72,0,48
2,70,110,0
2,70,0,48
2,67,110,0
2,29,0,96
2,41,0,0
2,62,0,0
2,51,0,0
2,77,0,0
2,67,0,0
2,31,80,0
2,43,90,0
2,53,110,0
2,59,110,0
2,62,110,0
2,31,0,144
2,43,0,0
2,53,0,0
2,59,0,0
2,62,0,0
2,31,80,96
2,43,90,0
2,53,110,0
2,62,110,0
2,59,120,48
2,59,0,96
2,60,120,0
2,60,0,96
2,62,120,0
2,31,0,96
2,43,0,0
2,53,0,0
2,62,0,0
2,62,0,0
2,34,80,0
2,46,90,0
2,65,120,0
2,57,110,0
2,58,110,0
2,62,110,0
2,34,0,240
2,46,0,0
2,65,0,0
2,57,0,0
2,58,0,0
2,62,0,0
2,41,90,0
2,64,120,0
2,55,110,0
2,60,110,0
2,41,0,336
2,64,0,0
2,55,0,0
2,60,0,0
2,31,80,0
2,43,90,0
2,53,110,0
2,59,110,0
2,62,110,0
2,31,0,144
2,43,0,0
2,53,0,0
2,59,0,0
2,62,0,0
2,31,80,96
2,43,90,0
2,53,110,0
2,62,110,0
2,59,120,48
2,59,0,96
2,60,120,0
2,60,0,96
2,62,120,0
2,31,0,96
2,43,0,0
2,53,0,0
2,62,0,0
2,62,0,0
2,34,80,0
2,46,90,0
2,65,120,0
2,58,110,0
2,62,110,0
2,53,110,0
2,65,0,96
2,53,0,0
2,67,120,0
2,55,110,0
2,67,0,96
2,55,0,0
2,69,120,0
2,57,110,0
2,34,0,96
2,46,0,0
2,58,0,0
2,62,0,0
2,69,0,0
2,57,0,0
2,41,90,0
2,67,120,0
2,60,110,0
2,64,110,0
2,55,110,0
2,41,0,288
2,67,0,0
2,60,0,0
2,64,0,0
2,55,0,0
2,31,80,0
2,43,90,0
2,53,110,0
2,59,110,0
2,62,110,0
2,31,0,144
2,43,0,0
2,53,0,0
2,59,0,0
2,62,0,0
2,31,80,96
2,43,90,0
2,53,110,0
2,62,110,0
2,59,120,48
2,59,0,96
2,60,120,0
2,60,0,96
2,62,120,0
2,31,0,96
2,43,0,0
2,53,0,0
2,62,0,0
2,62,0,0
2,34,80,0
2,46,90,0
2,65,120,0
2,57,110,0
2,58,110,0
2,62,110,0
2,34,0,240
2,46,0,0
2,65,0,0
2,57,0,0
2,58,0,0
2,62,0,0
2,41,90,0
2,55,120,0
2,48,110,0
2,41,0,336
2,55,0,0
2,48,0,0
2,31,80,0
2,43,90,0
2,53,110,0
2,59,110,0
2,62,110,0
2,31,0,144
2,43,0,0
2,53,0,0
2,59,0,0
2,62,0,0
2,31,80,96
2,43,90,0
2,53,110,0
2,62,110,0
2,59,120,48
2,55,110,0
2,55,0,48
2,59,0,48
2,60,120,0
2,60,0,96
2,62,120,0
2,31,0,96
2,43,0,0
2,53,0,0
2,62,0,0
2,62,0,0
2,34,80,0
2,46,90,0
2,65,120,0
2,58,110,0
2,62,110,0
2,57,110,0
2,65,0,96
2,57,0,0
2,67,120,0
2,55,110,0
2,67,0,96
2,55,0,0
2,69,120,0
2,57,110,0
2,34,0,96
2,46,0,0
2,58,0,0
2,62,0,0
2,69,0,0
2,57,0,0
2,41,90,0
2,67,120,0
2,60,110,0
2,55,110,0
2,67,0,96
2,65,120,0
2,65,0,96
2,64,120,0
2,41,0,96
2,60,0,0
2,55,0,0
2,64,0,0
2,28,80,0
2,40,90,0
2,62,120,0
2,55,110,0
2,59,110,0
2,28,0,144
2,40,0,0
2,62,0,0
2,55,0,0
2,59,0,0
2,28,80,96
2,40,90,0
2,59,110,0
2,62,110,0
2,55,110,0
2,55,0,48
2,66,120,0
2,54,110,0
2,66,0,96
2,54,0,0
2,67,120,0
2,55,110,0
2,67,0,96
2,55,0,0
2,69,120,0
2,57,110,0
2,28,0,96
2,40,0,0
2,59,0,0
2,62,0,0
2,69,0,0
2,57,0,0
2,33,80,0
2,45,90,0
2,69,120,0
2,57,110,0
2,61,110,0
2,64,110,0
2,33,0,240
2,45,0,0
2,69,0,0
2,57,0,0
2,61,0,0
2,64,0,0
2,35,80,0
2,47,90,0
2,62,120,0
2,54,110,0
2,57,110,0
2,35,0,336
2,47,0,0
2,62,0,0
2,54,0,0
2,57,0,0
2,28,80,0
2,40,90,0
2,62,120,0
2,55,110,0
2,59,110,0
2,28,0,144
2,40,0,0
2,62,0,0
2,55,0,0
2,59,0,0
2,28,80,96
2,40,90,0
2,59,110,0
2,62,110,0
2,55,110,0
2,55,0,48
2,66,120,0
2,54,110,0
2,66,0,96
2,54,0,0
2,67,120,0
2,55,110,0
2,67,0,96
2,55,0,0
2,69,120,0
2,57,110,0
2,28,0,96
2,40,0,0
2,59,0,0
2,62,0,0
2,69,0,0
2,57,0,0
2,33,80,0
2,45,90,0
2,69,120,0
2,61,110,0
2,64,110,0
2,57,110,0
2,69,0,96
2,57,0,0
2,71,120,0
2,59,110,0
2,71,0,96
2,59,0,0
2,73,120,0
2,61,110,0
2,33,0,96
2,45,0,0
2,61,0,0
2,64,0,0
2,73,0,0
2,61,0,0
2,35,80,0
2,47,90,0
2,71,120,0
2,62,110,0
2,66,110,0
2,35,0,288
2,47,0,0
2,71,0,0
2,62,0,0
2,66,0,0
2,28,80,0
2,40,90,0
2,62,120,0
2,55,110,0
2,59,110,0
2,28,0,144
2,40,0,0
2,62,0,0
2,55,0,0
2,59,0,0
2,28,80,96
2,40,90,0
2,59,110,0
2,62,110,0
2,55,110,0
2,55,0,48
2,66,120,0
2,54,110,0
2,66,0,96
2,54,0,0
2,67,120,0
2,55,110,0
2,67,0,96
2,55,0,0
2,69,120,0
2,57,110,0
2,28,0,96
2,40,0,0
2,59,0,0
2,62,0,0
2,69,0,0
2,57,0,0
2,33,80,0
2,45,90,0
2,69,120,0
2,57,110,0
2,61,110,0
2,64,110,0
2,33,0,240
2,45,0,0
2,69,0,0
2,57,0,0
2,61,0,0
2,64,0,0
2,35,80,0
2,47,90,0
2,62,120,0
2,54,110,0
2,57,110,0
2,35,0,336
2,47,0,0
2,62,0,0
2,54,0,0
2,57,0,0
2,28,80,0
2,40,90,0
2,62,120,0
2,55,110,0
2,59,110,0
2,28,0,144
2,40,0,0
2,62,0,0
2,55,0,0
2,59,0,0
2,28,80,96
2,40,90,0
2,59,110,0
2,62,110,0
2,55,110,0
2,55,0,48
2,66,120,0
2,54,110,0
2,66,0,96
2,54,0,0
2,67,120,0
2,55,110,0
2,67,0,96
2,55,0,0
2,69,120,0
2,57,110,0
2,28,0,96
2,40,0,0
2,59,0,0
2,62,0,0
2,69,0,0
2,57,0,0
2,33,80,0
2,45,90,0
2,69,120,0
2,60,110,0
2,64,110,0
2,69,0,96
2,71,120,0
2,71,0,96
2,72,120,0
2,33,0,96
2,45,0,0
2,60,0,0
2,64,0,0
2,72,0,0
2,38,90,0
2,71,120,0
2,50,110,0
2,60,110,0
2,64,110,0
2,67,110,0
2,71,0,96
2,69,120,0
2,69,0,96
2,67,120,0
2,38,0,96
2,50,0,0
2,60,0,0
2,64,0,0
2,67,0,0
2,67,0,0
2,31,80,0
2,43,90,0
2,65,120,0
2,62,110,0
2,53,110,0
2,59,110,0
2,31,0,144
2,43,0,0
2,65,0,0
2,62,0,0
2,53,0,0
2,59,0,0
2,31,80,144
2,43,90,0
2,62,120,0
2,53,110,0
2,58,110,0
2,58,0,12
2,59,110,0
2,31,0,228
2,43,0,0
2,62,0,0
2,53,0,0
2,59,0,0
2,29,80,0
2,41,90,0
2,62,120,0
2,51,110,0
2,57,110,0
2,67,110,144
2,57,0,48
2,67,0,0
2,77,110,0
2,70,110,0
2,70,0,48
2,72,110,0
2,72,0,48
2,67,110,0
2,77,0,48
2,67,0,0
2,77,110,0
2,70,110,0
2,70,0,96
2,72,110,0
2,29,0,192
2,41,0,0
2,62,0,0
2,51,0,0
2,77,0,0
2,72,0,0
2,31,80,0
2,43,90,0
2,62,120,0
2,53,110,0
2,59,110,0
2,31,0,144
2,43,0,0
2,62,0,0
2,53,0,0
2,59,0,0
2,31,80,144
2,43,90,0
2,62,120,0
2,53,110,0
2,58,110,0
2,58,0,12
2,59,110,0
2,31,0,228
2,43,0,0
2,62,0,0
2,53,0,0
2,59,0,0
2,29,80,0
2,41,90,0
2,62,120,0
2,51,110,0
2,57,110,0
2,79,110,144
2,57,0,48
2,79,0,0
2,89,110,0
2,82,110,0
2,82,0,48
2,84,110,0
2,84,0,48
2,85,110,0
2,89,0,48
2,85,0,0
2,89,110,0
2,85,110,0
2,85,0,12
2,84,110,0
2,84,0,36
2,82,110,0
2,82,0,48
2,79,110,0
2,89,0,48
2,79,0,0
2,89,110,0
2,85,110,0
2,85,0,12
2,84,110,0
2,84,0,36
2,82,110,0
2,82,0,48
2,79,110,0
2,29,0,48
2,41,0,0
2,62,0,0
2,51,0,0
2,89,0,0
2,79,0,0
2,31,80,0
2,43,90,0
2,62,120,0
2,53,110,0
2,59,110,0
2,31,0,144
2,43,0,0
2,62,0,0
2,53,0,0
2,59,0,0
2,31,80,144
2,43,90,0
2,62,120,0
2,53,110,0
2,58,110,0
2,58,0,12
2,59,110,0
2,31,0,228
2,43,0,0
2,62,0,0
2,53,0,0
2,59,0,0
2,29,80,0
2,41,90,0
2,62,120,0
2,51,110,0
2,57,110,0
2,57,0,144
2,89,110,0
2,79,110,0
2,89,0,48
2,79,0,0
2,89,110,0
2,82,110,0
2,89,0,48
2,82,0,0
2,89,110,0
2,84,110,0
2,89,0,48
2,84,0,0
2,89,110,0
2,79,110,0
2,89,0,48
2,79,0,0
2,89,110,0
2,82,110,0
2,89,0,96
2,82,0,0
2,89,110,0
2,84,110,0
2,29,0,192
2,41,0,0
2,62,0,0
2,51,0,0
2,89,0,0
2,84,0,0
2,31,80,0
2,43,90,0
2,62,120,0
2,53,110,0
2,59,110,0
2,31,0,144
2,43,0,0
2,62,0,0
2,53,0,0
2,59,0,0
2,31,80,144
2,43,90,0
2,62,120,0
2,53,110,0
2,58,110,0
2,58,0,12
2,59,110,0
2,31,0,228
2,43,0,0
2,62,0,0
2,53,0,0
2,59,0,0
2,29,80,0
2,41,90,0
2,62,120,0
2,51,110,0
2,57,110,0
2,55,110,144
2,57,0,48
2,55,0,0
2,65,110,0
2,58,110,0
2,58,0,48
2,60,110,0
2,65,0,48
2,60,0,0
2,65,110,0
2,61,110,0
2,65,0,48
2,61,0,0
2,65,110,0
2,61,110,0
2,61,0,12
2,60,110,0
2,60,0,36
2,58,110,0
2,65,0,48
2,58,0,0
2,65,110,0
2,60,110,0
2,60,0,48
2,58,110,0
2,58,0,48
2,55,110,0
2,29,0,96
2,41,0,0
2,62,0,0
2,51,0,0
2,65,0,0
2,55,0,0
2,31,80,0
2,43,90,0
2,53,110,0
2,59,110,0
2,62,110,0
2,31,0,144
2,43,0,0
2,53,0,0
2,59,0,0
2,62,0,0
2,31,80,96
2,43,90,0
2,53,110,0
2,62,110,0
2,59,120,48
2,59,0,96
2,60,120,0
2,60,0,96
2,62,120,0
2,31,0,96
2,43,0,0
2,53,0,0
2,62,0,0
2,62,0,0
2,34,80,0
2,46,90,0
2,65,120,0
2,57,110,0
2,58,110,0
2,62,110,0
2,34,0,240
2,46,0,0
2,65,0,0
2,57,0,0
2,58,0,0
2,62,0,0
2,41,90,0
2,64,120,0
2,55,110,0
2,60,110,0
2,41,0,336
2,64,0,0
2,55,0,0
2,60,0,0
2,31,80,0
2,43,90,0
2,53,110,0
2,59,110,0
2,62,110,0
2,31,0,144
2,43,0,0
2,53,0,0
2,59,0,0
2,62,0,0
2,31,80,96
2,43,90,0
2,53,110,0
2,62,110,0
2,59,120,48
2,59,0,96
2,60,120,0
2,60,0,96
2,62,120,0
2,31,0,96
2,43,0,0
2,53,0,0
2,62,0,0
2,62,0,0
2,34,80,0
2,46,90,0
2,65,120,0
2,58,110,0
2,62,110,0
2,53,110,0
2,65,0,96
2,53,0,0
2,67,120,0
2,55,110,0
2,67,0,96
2,55,0,0
2,69,120,0
2,57,110,0
2,34,0,96
2,46,0,0
2,58,0,0
2,62,0,0
2,69,0,0
2,57,0,0
2,41,90,0
2,67,120,0
2,60,110,0
2,64,110,0
2,55,110,0
2,41,0,288
2,67,0,0
2,60,0,0
2,64,0,0
2,55,0,0
2,31,80,0
2,43,90,0
2,53,110,0
2,59,110,0
2,62,110,0
2,31,0,144
2,43,0,0
2,53,0,0
2,59,0,0
2,62,0,0
2,31,80,96
2,43,90,0
2,53,110,0
2,62,110,0
2,59,120,48
2,59,0,96
2,60,120,0
2,60,0,96
