track,note,velocity,time
1,69,110,3456
1,69,0,63
1,69,110,1
1,69,0,127
1,69,110,1
1,69,0,95
1,66,110,1
1,66,0,95
1,69,110,1
1,69,0,63
1,69,110,1
1,69,0,31
1,69,110,1
1,69,0,95
1,69,110,1
1,69,0,63
1,69,110,1
1,69,0,31
1,66,110,1
1,66,0,95
1,72,110,1
1,72,0,95
1,72,110,1
1,72,0,63
1,72,110,1
1,72,0,223
1,69,110,353
1,69,0,31
1,76,110,1
1,76,0,95
1,74,110,1
1,74,0,95
1,74,110,1
1,74,0,95
1,70,110,1
1,70,0,63
1,70,110,1
1,70,0,31
1,70,110,1
1,70,0,95
1,69,110,1
1,69,0,95
1,67,110,1
1,67,0,95
1,64,110,1
1,64,0,95
1,69,110,1
1,69,0,95
1,65,110,1
1,65,0,63
1,65,110,1
1,65,0,31
1,65,110,1
1,65,0,95
1,62,110,1
1,62,0,95
1,69,110,289
1,69,0,95
1,69,110,1
1,69,0,95
1,69,110,1
1,69,0,95
1,69,110,1
1,69,0,63
1,69,110,1
1,69,0,31
1,66,110,1
1,66,0,63
1,64,110,1
1,64,0,31
1,69,110,1
1,69,0,95
1,69,110,1
1,69,0,95
1,69,110,1
1,69,0,63
1,69,110,1
1,69,0,31
1,66,110,1
1,66,0,63
1,64,110,1
1,64,0,31
1,71,110,1
1,71,0,95
1,72,110,1
1,72,0,63
1,72,110,1
1,72,0,223
1,69,110,353
1,69,0,31
1,76,110,1
1,76,0,95
1,74,110,1
1,74,0,95
1,74,110,1
1,74,0,95
1,70,110,1
1,70,0,63
1,70,110,1
1,70,0,31
1,70,110,1
1,70,0,95
1,69,110,1
1,69,0,95
1,67,110,1
1,67,0,95
1,64,110,1
1,64,0,63
1,64,110,1
1,64,0,31
1,65,110,1
1,65,0,95
1,65,110,1
1,65,0,63
1,65,110,1
1,65,0,31
1,65,110,1
1,65,0,95
1,62,110,1
1,62,0,95
1,69,110,289
1,69,0,63
1,69,110,1
1,69,0,31
1,71,110,1
1,71,0,63
1,71,110,1
1,71,0,31
1,71,110,1
1,71,0,95
1,71,110,1
1,71,0,95
1,69,110,1
1,69,0,63
1,71,110,1
1,71,0,95
1,69,110,1
1,69,0,31
1,73,110,1
1,73,0,95
1,69,110,161
1,69,0,31
1,73,110,1
1,73,0,95
1,71,110,1
1,71,0,63
1,71,110,1
1,71,0,31
1,69,110,1
1,69,0,95
1,64,110,1
1,64,0,63
1,73,110,1
1,73,0,95
1,69,110,1
1,69,0,31
1,71,110,1
1,71,0,95
1,69,110,1
1,69,0,63
1,64,110,1
1,64,0,31
1,66,110,1
1,66,0,63
1,64,110,1
1,64,0,31
1,71,110,1
1,71,0,95
1,71,110,1
1,71,0,63
1,71,110,1
1,71,0,31
1,71,110,1
1,71,0,95
1,71,110,1
1,71,0,95
1,71,110,1
1,71,0,63
1,69,110,1
1,69,0,31
1,71,110,1
1,71,0,95
1,73,110,1
1,73,0,95
1,69,110,65
1,69,0,31
1,73,110,1
1,73,0,95
1,71,110,1
1,71,0,63
1,71,110,1
1,71,0,31
1,69,110,1
1,69,0,63
1,69,110,1
1,69,0,31
1,69,110,1
1,69,0,63
1,69,110,1
1,69,0,31
1,73,110,1
1,73,0,95
1,71,110,1
1,71,0,95
1,69,110,1
1,69,0,191
1,71,110,97
1,71,0,63
1,71,110,1
1,71,0,31
1,71,110,1
1,71,0,95
1,71,110,1
1,71,0,63
1,71,110,1
1,71,0,31
1,71,110,1
1,71,0,63
1,71,110,1
1,71,0,31
1,71,110,1
1,71,0,63
1,73,110,1
1,73,0,31
1,71,110,161
1,71,0,31
1,73,110,1
1,73,0,95
1,71,110,1
1,71,0,63
1,69,110,1
1,69,0,31
1,69,110,1
1,69,0,63
1,69,110,1
1,69,0,31
1,69,110,1
1,69,0,63
1,69,110,1
1,69,0,31
1,71,110,1
1,71,0,95
1,69,110,1
1,69,0,95
1,62,110,1
1,62,0,383
1,76,110,289
1,76,0,63
1,76,110,1
1,76,0,31
1,76,110,1
1,76,0,63
1,78,110,1
1,78,0,95
1,69,110,1
1,69,0,31
1,71,110,1
1,71,0,63
1,69,110,1
1,69,0,31
1,73,110,1
1,73,0,95
1,66,110,1
1,66,0,63
1,64,110,1
1,64,0,31
1,66,110,1
1,66,0,63
1,64,110,1
1,64,0,31
1,71,110,1
1,71,0,95
1,71,110,1
1,71,0,63
1,71,110,1
1,71,0,31
1,71,110,1
1,71,0,63
1,69,110,1
1,69,0,31
1,67,110,1
1,67,0,191
1,69,110,1
1,69,0,287
1,69,110,289
1,69,0,95
1,66,110,1
1,66,0,191
1,83,110,193
1,83,0,95
1,83,110,1
1,83,0,63
1,83,110,1
1,83,0,31
1,83,110,1
1,83,0,63
1,81,110,1
1,81,0,31
1,79,110,1
1,79,0,191
1,81,110,1
1,81,0,191
1,71,110,1
1,71,0,287
1,71,110,97
1,71,0,95
1,66,110,1
1,66,0,191
1,69,110,545
1,69,0,31
1,69,110,1
1,69,0,95
1,69,110,1
1,69,0,95
1,69,110,1
1,69,0,63
1,69,110,1
1,69,0,31
1,66,110,1
1,66,0,95
1,69,110,1
1,69,0,63
1,69,110,1
1,69,0,31
1,69,110,1
1,69,0,95
1,69,110,1
1,69,0,63
1,69,110,1
1,69,0,31
1,66,110,1
1,66,0,63
1,66,110,1
1,66,0,31
1,72,110,1
1,72,0,95
1,72,110,1
1,72,0,63
1,72,110,1
1,72,0,223
1,74,110,289
1,74,0,63
1,74,110,1
1,74,0,31
1,76,110,1
1,76,0,95
1,74,110,1
1,74,0,95
1,74,110,1
1,74,0,63
1,70,110,1
1,70,0,31
1,70,110,1
1,70,0,63
1,70,110,1
1,70,0,31
1,70,110,1
1,70,0,95
1,69,110,1
1,69,0,95
1,67,110,1
1,67,0,95
1,64,110,1
1,64,0,63
1,64,110,1
1,64,0,31
1,69,110,1
1,69,0,95
1,65,110,1
1,65,0,63
1,65,110,1
1,65,0,31
1,65,110,1
1,65,0,95
1,62,110,1
1,62,0,95
1,69,110,289
1,69,0,95
1,69,110,1
1,69,0,95
1,69,110,1
1,69,0,95
1,69,110,1
1,69,0,95
1,66,110,1
1,66,0,95
1,69,110,1
1,69,0,63
1,69,110,1
1,69,0,31
1,69,110,1
1,69,0,63
1,69,110,1
1,69,0,31
1,69,110,1
1,69,0,63
1,69,110,1
1,69,0,31
1,66,110,1
1,66,0,95
1,71,110,1
1,71,0,63
1,72,110,1
1,72,0,31
1,72,110,1
1,72,0,63
1,72,110,1
1,72,0,127
1,69,110,1
1,69,0,63
1,72,110,1
1,72,0,223
1,69,110,161
1,69,0,31
1,76,110,1
1,76,0,95
1,74,110,1
1,74,0,95
1,74,110,1
1,74,0,63
1,70,110,1
1,70,0,31
1,70,110,1
1,70,0,63
1,70,110,1
1,70,0,31
1,70,110,1
1,70,0,95
1,69,110,1
1,69,0,63
1,69,110,1
1,69,0,31
1,67,110,1
1,67,0,95
1,64,110,1
1,64,0,63
1,64,110,1
1,64,0,31
1,65,110,1
1,65,0,95
1,65,110,1
1,65,0,95
1,65,110,1
1,65,0,95
1,62,110,1
1,62,0,95
1,69,110,257
1,69,0,31
1,69,110,1
1,69,0,63
1,69,110,1
1,69,0,31
1,71,110,1
1,71,0,95
1,71,110,1
1,71,0,95
1,71,110,1
1,71,0,95
1,69,110,1
1,69,0,63
1,71,110,1
1,71,0,95
1,69,110,1
1,69,0,31
1,73,110,1
1,73,0,95
1,73,110,1
1,73,0,95
1,69,110,65
1,69,0,31
1,73,110,1
1,73,0,95
1,71,110,1
1,71,0,95
1,69,110,1
1,69,0,63
1,69,110,1
1,69,0,31
1,66,110,1
1,66,0,63
1,64,110,1
1,64,0,31
1,73,110,1
1,73,0,95
1,71,110,1
1,71,0,95
1,69,110,1
1,69,0,63
1,64,110,1
1,64,0,31
1,64,110,1
1,64,0,95
1,71,110,1
1,71,0,95
1,71,110,1
1,71,0,95
1,71,110,1
1,71,0,95
1,71,110,1
1,71,0,63
1,71,110,1
1,71,0,31
1,71,110,1
1,71,0,63
1,69,110,1
1,69,0,31
1,71,110,1
1,71,0,95
1,73,110,1
1,73,0,95
1,69,110,65
1,69,0,31
1,73,110,1
1,73,0,63
1,73,110,1
1,73,0,31
1,71,110,1
1,71,0,63
1,71,110,1
1,71,0,31
1,69,110,1
1,69,0,95
1,69,110,1
1,69,0,63
1,69,110,1
1,69,0,31
1,73,110,1
1,73,0,95
1,71,110,1
1,71,0,63
1,71,110,1
1,71,0,31
1,69,110,1
1,69,0,191
1,71,110,65
1,71,0,31
1,71,110,1
1,71,0,63
1,71,110,1
1,71,0,31
1,71,110,1
1,71,0,95
1,71,110,65
1,71,0,31
1,71,110,1
1,71,0,63
1,71,110,1
1,71,0,31
1,71,110,1
1,71,0,63
1,73,110,1
1,73,0,31
1,71,110,161
1,71,0,31
1,73,110,1
1,73,0,63
1,73,110,1
1,73,0,31
1,71,110,1
1,71,0,63
1,69,110,1
1,69,0,31
1,69,110,1
1,69,0,63
1,69,110,1
1,69,0,31
1,69,110,1
1,69,0,63
1,69,110,1
1,69,0,31
1,71,110,1
1,71,0,95
1,69,110,1
1,69,0,95
1,62,110,1
1,62,0,383
1,69,110,257
1,69,0,31
1,73,110,1
1,73,0,63
1,76,110,1
1,76,0,31
1,78,110,1
1,78,0,63
1,76,110,1
1,76,0,31
1,73,110,1
1,73,0,63
1,73,110,1
1,73,0,31
1,71,110,1
1,71,0,95
1,69,110,1
1,69,0,95
1,66,110,1
1,66,0,63
1,64,110,1
1,64,0,31
1,66,110,1
1,66,0,63
1,64,110,1
1,64,0,31
1,71,110,1
1,71,0,95
1,71,110,1
1,71,0,63
1,71,110,1
1,71,0,31
1,71,110,1
1,71,0,63
1,69,110,1
1,69,0,31
1,67,110,1
1,67,0,191
1,69,110,1
1,69,0,287
1,69,110,289
1,69,0,95
1,66,110,1
1,66,0,191
1,83,110,193
1,83,0,95
1,83,110,1
1,83,0,63
1,83,110,1
1,83,0,31
1,83,110,1
1,83,0,63
1,81,110,1
1,81,0,31
1,79,110,1
1,79,0,191
1,81,110,1
1,81,0,191
1,71,110,1
1,71,0,287
1,71,110,97
1,71,0,95
1,66,110,1
1,66,0,191
1,64,95,577
1,61,95,0
1,71,110,160
1,71,0,31
1,73,110,1
1,73,0,63
1,76,110,1
1,76,0,127
1,78,110,1
1,78,0,95
1,76,110,1
1,76,0,63
1,76,110,1
1,76,0,95
1,73,110,33
1,64,0,95
1,61,0,0
1,66,95,1
1,73,0,95
1,71,110,1
1,71,0,63
1,69,110,1
1,69,0,95
1,69,110,1
1,66,0,319
1,66,95,1
1,69,0,191
1,66,0,0
1,64,95,1
1,61,95,0
1,71,110,160
1,71,0,31
1,73,110,1
1,73,0,63
1,76,110,1
1,76,0,95
1,78,110,1
1,78,0,127
1,76,110,1
1,76,0,63
1,76,110,1
1,76,0,191
1,73,110,1
1,64,0,31
1,61,0,0
1,73,0,0
1,68,95,1
1,64,95,0
1,73,110,0
1,73,0,31
1,74,110,1
1,74,0,31
1,73,110,1
1,73,0,31
1,71,110,1
1,68,0,671
1,64,0,0
1,71,0,0
1,64,95,1
1,61,95,0
1,71,110,160
1,71,0,31
1,73,110,1
1,73,0,63
1,76,110,1
1,76,0,95
1,78,110,1
1,78,0,95
1,76,110,1
1,76,0,95
1,81,110,1
1,81,0,127
1,73,110,1
1,64,0,95
1,61,0,0
1,73,0,0
1,69,110,1
1,66,95,0
1,61,95,0
1,69,0,63
1,69,110,1
1,69,0,31
1,69,110,1
1,69,0,287
1,69,110,161
1,69,0,95
1,69,110,1
1,69,0,31
1,69,110,1
1,69,0,63
1,73,110,1
1,66,0,31
1,61,0,0
1,66,95,1
1,62,95,0
1,73,0,95
1,73,110,1
1,73,0,63
1,73,110,1
1,73,0,127
1,69,110,1
1,69,0,63
1,69,110,1
1,69,0,127
1,69,110,1
1,69,0,95
1,69,110,65
1,69,0,31
1,69,110,1
1,69,0,63
1,71,110,1
1,66,0,31
1,62,0,0
1,71,0,0
1,73,110,1
1,68,95,0
1,64,95,0
1,73,0,95
1,76,110,1
1,76,0,63
1,76,110,1
1,76,0,127
1,73,110,1
1,73,0,63
1,76,110,1
1,76,0,95
1,71,110,1
1,71,0,31
1,73,110,1
1,73,0,63
1,71,110,1
1,68,0,223
1,64,0,0
1,71,0,0
1,71,110,6209
1,71,0,31
1,71,110,1
1,71,0,63
1,71,110,1
1,71,0,31
1,71,110,1
1,71,0,63
1,71,110,1
1,71,0,31
1,71,110,1
1,71,0,63
1,69,110,1
1,69,0,31
1,71,110,1
1,71,0,63
1,69,110,1
1,69,0,31
1,73,110,1
1,73,0,95
1,73,110,161
1,73,0,127
1,71,110,1
1,71,0,63
1,71,110,1
1,71,0,31
1,69,110,1
1,69,0,63
1,69,110,1
1,69,0,31
1,69,110,1
1,69,0,63
1,69,110,1
1,69,0,31
1,73,110,1
1,73,0,63
1,69,110,1
1,69,0,31
1,71,110,1
1,71,0,95
1,69,110,1
1,69,0,95
1,71,110,161
1,71,0,31
1,71,110,1
1,71,0,63
1,69,110,1
1,69,0,31
1,71,110,1
1,71,0,63
1,69,110,1
1,69,0,31
1,71,110,1
1,71,0,63
1,69,110,1
1,69,0,31
1,71,110,1
1,71,0,95
1,71,110,1
1,71,0,95
1,73,110,1
1,73,0,95
1,69,110,65
1,69,0,31
1,73,110,1
1,73,0,95
1,71,110,1
1,71,0,63
1,71,110,1
1,71,0,31
1,69,110,1
1,69,0,63
1,69,110,1
1,69,0,31
1,69,110,1
1,69,0,63
1,69,110,1
1,69,0,31
1,73,110,1
1,73,0,95
1,71,110,1
1,71,0,95
1,69,110,1
1,69,0,191
1,71,110,65
1,71,0,31
1,71,110,1
1,71,0,63
1,71,110,1
1,71,0,31
1,71,110,1
1,71,0,95
1,71,110,1
1,71,0,63
1,69,110,1
1,69,0,31
1,71,110,1
1,71,0,63
1,69,110,1
1,69,0,31
1,73,110,1
1,73,0,95
1,73,110,161
1,73,0,31
1,78,110,1
1,78,0,63
1,76,110,1
1,76,0,31
1,76,110,1
1,76,0,63
1,76,110,1
1,76,0,31
1,76,110,1
1,76,0,63
1,76,110,1
1,76,0,31
1,76,110,1
1,76,0,63
1,76,110,1
1,76,0,31
1,78,110,1
1,78,0,95
1,71,110,1
1,71,0,95
1,69,110,1
1,69,0,383
1,69,110,257
1,69,0,31
1,73,110,1
1,73,0,63
1,76,110,1
1,76,0,31
1,78,110,1
1,78,0,63
1,76,110,1
1,76,0,31
1,76,110,1
1,76,0,63
1,76,110,1
1,76,0,31
1,78,110,1
1,78,0,95
1,76,110,1
1,76,0,95
1,71,110,1
1,71,0,63
1,69,110,1
1,69,0,31
1,69,110,1
1,69,0,63
1,69,110,1
1,69,0,31
1,71,110,1
1,71,0,63
1,71,110,1
1,71,0,31
1,71,110,1
1,71,0,63
1,71,110,1
1,71,0,31
1,71,110,1
1,71,0,63
1,69,110,1
1,69,0,31
1,67,110,1
1,67,0,287
1,69,110,1
1,69,0,191
1,71,110,289
1,71,0,95
1,66,110,1
1,66,0,191
1,83,110,193
1,83,0,95
1,83,110,1
1,83,0,63
1,81,110,1
1,81,0,31
1,83,110,1
1,83,0,63
1,81,110,1
1,81,0,31
1,79,110,1
1,79,0,191
1,81,110,1
1,81,0,191
1,71,110,1
1,71,0,287
1,71,110,97
1,71,0,95
1,66,110,1
1,66,0,191
1,71,110,193
1,71,0,95
1,71,110,1
1,71,0,63
1,71,110,1
1,71,0,31
1,71,110,1
1,71,0,63
1,69,110,1
1,69,0,31
1,66,110,1
1,66,0,63
1,69,110,1
1,69,0,223
1,71,108,961
1,71,0,95
1,71,108,1
1,71,0,63
1,71,108,1
1,71,0,31
1,71,108,1
1,71,0,63
1,69,108,1
1,69,0,31
1,66,108,1
1,66,0,63
1,69,108,1
1,69,0,223
1,71,108,961
1,71,0,95
1,71,108,1
1,71,0,63
1,71,108,1
1,71,0,31
