track,note,velocity,time
3,88,0,0
3,88,0,47
3,88,0,0
3,88,0,47
3,88,0,0
3,88,0,47
3,88,0,0
3,88,0,47
3,88,0,0
3,88,0,47
3,88,0,0
3,88,0,47
3,88,0,0
3,88,0,47
3,88,0,0
3,88,0,47
3,88,0,0
3,88,0,47
3,88,0,0
3,88,0,47
3,88,0,0
3,88,0,47
3,88,0,0
3,88,0,47
3,88,0,0
3,88,0,47
3,88,0,0
3,88,0,47
3,88,0,0
3,88,0,47
3,88,0,0
3,88,0,47
3,88,0,0
3,88,0,47
3,88,0,0
3,88,0,47
3,88,0,0
3,88,0,47
3,88,0,0
3,88,0,47
3,88,0,0
3,88,0,47
3,88,0,0
3,88,0,47
3,88,0,0
3,88,0,47
3,88,0,0
3,88,0,47
3,88,0,0
3,88,0,47
3,88,0,0
3,88,0,47
3,88,0,0
3,88,0,47
3,88,0,0
3,88,0,47
3,88,0,0
3,88,0,47
3,88,0,0
3,88,0,47
3,88,0,0
3,88,0,47
3,88,0,0
3,88,0,47
3,88,0,0
3,88,0,47
3,88,0,0
3,88,0,47
3,88,0,0
3,88,0,47
3,88,0,0
3,88,0,47
3,88,0,0
3,88,0,47
3,88,0,0
3,88,0,47
3,88,0,0
3,88,0,47
3,88,0,0
3,88,0,47
3,88,0,0
3,88,0,47
3,88,0,0
3,88,0,47
3,88,0,0
3,88,0,47
3,88,0,0
3,88,0,47
3,88,0,0
3,88,0,47
3,88,0,0
3,88,0,47
3,88,0,0
3,88,0,47
3,88,0,0
3,88,0,0
3,88,0,47
3,88,0,0
3,88,0,0
3,88,0,47
3,88,0,0
3,88,0,47
3,88,0,0
3,88,0,47
3,88,0,0
3,88,0,47
3,88,0,0
3,88,0,47
3,88,0,0
3,88,0,47
3,88,0,0
3,88,0,47
3,88,0,0
3,88,0,47
3,88,0,0
3,88,0,47
3,88,0,0
3,88,0,47
3,88,0,0
3,88,0,47
3,88,0,0
3,88,0,47
3,88,0,0
3,88,0,47
3,88,0,0
3,88,0,47
3,88,0,0
3,88,0,47
3,88,0,0
3,88,0,47
3,88,0,0
3,88,0,47
3,88,0,0
3,88,0,47
3,88,0,0
3,88,0,47
3,88,0,0
3,88,0,47
3,88,0,0
3,88,0,47
3,88,0,0
3,88,0,47
3,88,0,0
3,88,0,47
3,88,0,0
3,88,0,47
3,88,0,0
3,88,0,47
3,88,0,0
3,88,0,47
3,88,0,0
3,88,0,47
3,88,0,0
3,88,0,47
3,88,0,0
3,88,0,47
3,88,0,0
3,88,0,47
3,88,0,0
3,88,0,47
3,88,0,0
3,88,0,47
3,88,0,0
3,88,0,47
3,88,0,0
3,88,0,47
3,88,0,0
3,88,0,47
3,88,0,0
3,88,0,47
3,88,0,0
3,88,0,47
3,88,0,0
3,88,0,47
3,88,0,0
3,88,0,47
3,88,0,0
3,88,0,47
3,88,0,0
3,88,0,47
3,88,0,0
3,88,0,47
3,88,0,0
3,88,0,47
3,88,0,0
3,88,0,47
3,88,0,0
3,88,0,47
3,88,0,0
3,88,0,47
3,88,0,0
3,88,0,47
3,88,0,0
3,88,0,47
3,88,0,0
3,88,0,47
3,88,0,0
3,88,0,47
3,88,0,0
3,88,0,47
3,88,0,0
3,88,0,47
3,88,0,0
3,88,0,47
3,88,0,0
3,88,0,47
3,88,0,0
3,88,0,47
3,88,0,0
3,88,0,47
3,88,0,0
3,88,0,47
3,88,0,0
3,88,0,47
3,88,0,0
3,88,0,47
3,88,0,0
3,88,0,47
3,88,0,0
3,88,0,47
3,88,0,0
3,88,0,47
3,88,0,0
3,88,0,47
3,88,0,0
3,88,0,47
3,88,0,0
3,88,0,47
3,88,0,0
3,88,0,47
3,88,0,0
3,88,0,47
3,88,0,0
3,88,0,47
3,88,0,0
3,88,0,47
3,88,0,0
3,88,0,47
3,88,0,0
3,88,0,47
3,88,0,0
3,88,0,47
3,88,0,0
3,88,0,47
3,88,0,0
3,88,0,47
3,88,0,0
3,88,0,47
3,88,0,0
3,88,0,47
3,88,0,0
3,88,0,47
3,88,0,0
3,88,0,47
3,88,0,0
3,88,0,47
3,88,0,0
3,88,0,47
3,88,0,0
3,88,0,47
3,88,0,0
3,88,0,47
3,88,0,0
3,88,0,47
3,88,0,0
3,88,0,47
3,88,0,0
3,88,0,47
3,88,0,0
3,88,0,47
3,88,0,0
3,88,0,47
3,88,0,0
3,88,0,47
3,88,0,0
3,88,0,47
3,88,0,0
3,88,0,47
3,88,0,0
3,88,0,47
3,88,0,0
3,88,0,47
3,88,0,0
3,88,0,0
3,88,0,47
3,88,0,0
3,88,0,0
3,88,0,47
3,88,0,0
3,88,0,47
3,88,0,0
3,88,0,47
3,88,0,0
3,88,0,47
3,88,0,0
3,88,0,47
3,88,0,0
3,88,0,47
3,88,0,0
3,88,0,47
3,88,0,0
3,88,0,47
3,88,0,0
3,88,0,47
3,88,0,0
3,88,0,47
3,88,0,0
3,88,0,47
3,88,0,0
3,88,0,47
3,88,0,0
3,88,0,47
3,88,0,0
3,88,0,47
3,88,0,0
3,88,0,47
3,88,0,0
3,88,0,47
3,88,0,0
3,88,0,47
3,88,0,0
3,88,0,47
3,88,0,0
3,88,0,47
3,88,0,0
3,88,0,47
3,88,0,0
3,88,0,47
3,88,0,0
3,88,0,47
3,88,0,0
3,88,0,47
3,88,0,0
3,88,0,47
3,88,0,0
3,88,0,47
3,88,0,0
3,88,0,47
3,88,0,0
3,88,0,47
3,88,0,0
3,88,0,47
3,88,0,0
3,88,0,47
3,88,0,0
3,88,0,47
3,88,0,0
3,88,0,47
3,88,0,0
3,88,0,47
3,88,0,0
3,88,0,47
3,88,0,0
3,88,0,47
3,88,0,0
3,88,0,47
3,88,0,0
3,88,0,47
3,88,0,0
3,88,0,47
3,88,0,0
3,88,0,47
3,88,0,0
3,88,0,47
3,88,0,0
3,88,0,47
3,88,0,0
3,88,0,47
3,88,0,0
3,88,0,47
3,88,0,0
3,88,0,47
3,88,0,0
3,88,0,47
3,88,0,0
3,88,0,47
3,88,0,0
3,88,0,47
3,88,0,0
3,88,0,47
3,88,0,0
3,88,0,47
3,88,0,0
3,88,0,47
3,88,0,0
3,88,0,47
3,88,0,0
3,88,0,47
3,88,0,0
3,88,0,47
3,88,0,0
3,88,0,47
3,88,0,0
3,88,0,47
3,88,0,0
3,88,0,47
3,88,0,0
3,88,0,47
3,88,0,0
3,88,0,47
3,88,0,0
3,88,0,47
3,88,0,0
3,88,0,47
3,84,0,0
3,84,0,47
3,84,0,0
3,84,0,47
3,84,0,0
3,84,0,47
3,84,0,0
3,84,0,47
3,84,0,0
3,84,0,47
3,84,0,0
3,84,0,47
3,84,0,0
3,84,0,47
3,84,0,0
3,84,0,47
3,84,0,0
3,84,0,47
3,84,0,0
3,84,0,47
3,84,0,0
3,84,0,47
3,84,0,0
3,84,0,47
3,84,0,0
3,84,0,47
3,84,0,0
3,84,0,47
3,84,0,0
3,84,0,47
3,84,0,0
3,84,0,47
3,84,0,0
3,84,0,47
3,84,0,0
3,84,0,47
3,84,0,0
3,84,0,47
3,84,0,0
3,84,0,47
3,84,0,0
3,84,0,47
3,84,0,0
3,84,0,47
3,84,0,0
3,84,0,47
3,84,0,0
3,84,0,47
3,84,0,0
3,84,0,47
3,84,0,0
3,84,0,47
3,84,0,0
3,84,0,47
3,84,0,0
3,84,0,47
3,84,0,0
3,84,0,47
3,84,0,0
3,84,0,47
3,84,0,0
3,84,0,47
3,84,0,0
3,84,0,47
3,84,0,0
3,84,0,47
3,84,0,0
3,84,0,47
3,84,0,0
3,84,0,47
3,84,0,0
3,84,0,47
3,84,0,0
3,84,0,47
3,84,0,0
3,84,0,47
3,84,0,0
3,84,0,47
3,84,0,0
3,84,0,47
3,84,0,0
3,84,0,47
3,84,0,0
3,84,0,47
3,84,0,0
3,84,0,47
3,84,0,0
3,84,0,47
3,84,0,0
3,84,0,47
3,84,0,0
3,84,0,47
3,84,0,0
3,84,0,47
3,84,0,0
3,84,0,47
3,84,0,0
3,84,0,47
3,84,0,0
3,84,0,47
3,84,0,0
3,84,0,47
3,84,0,0
3,84,0,47
3,84,0,0
3,84,0,47
3,84,0,0
3,84,0,47
3,84,0,0
3,84,0,47
3,84,0,0
3,84,0,47
3,84,0,0
3,84,0,47
3,84,0,0
3,84,0,47
3,84,0,0
3,84,0,47
3,84,0,0
3,84,0,47
3,84,0,0
3,84,0,47
3,84,0,0
3,84,0,47
3,84,0,0
3,84,0,47
3,84,0,0
3,84,0,48
3,84,0,0
3,84,0,47
3,84,0,0
3,84,0,47
3,84,0,0
3,84,0,47
3,84,0,0
3,84,0,47
3,84,0,0
3,84,0,47
3,84,0,0
3,84,0,47
3,84,0,0
3,84,0,47
3,84,0,0
3,84,0,47
3,84,0,0
3,84,0,47
3,84,0,0
3,84,0,47
3,84,0,0
3,84,0,47
3,84,0,0
3,84,0,47
3,84,0,0
3,84,0,47
3,84,0,0
3,84,0,47
3,84,0,0
3,84,0,47
3,84,0,0
3,84,0,47
3,84,0,0
3,84,0,47
3,84,0,0
3,84,0,47
3,84,0,0
3,84,0,47
3,84,0,0
3,84,0,47
3,84,0,0
3,84,0,47
3,84,0,0
3,84,0,47
3,84,0,0
3,84,0,47
3,84,0,0
3,84,0,47
3,84,0,0
3,84,0,47
3,84,0,0
3,84,0,47
3,84,0,0
3,84,0,47
3,84,0,0
3,84,0,47
3,84,0,0
3,84,0,47
3,84,0,0
3,84,0,47
3,84,0,0
3,84,0,47
3,84,0,0
3,84,0,47
3,84,0,0
3,84,0,47
3,84,0,0
3,84,0,47
3,84,0,0
3,84,0,47
3,84,0,0
3,84,0,47
3,84,0,0
3,84,0,47
3,84,0,0
3,84,0,47
3,84,0,0
3,84,0,47
3,84,0,0
3,84,0,47
3,84,0,0
3,84,0,47
3,84,0,0
3,84,0,47
3,84,0,0
3,84,0,47
3,84,0,0
3,84,0,47
3,84,0,0
3,84,0,47
3,84,0,0
3,84,0,47
3,84,0,0
3,84,0,47
3,84,0,0
3,84,0,47
3,84,0,0
3,84,0,47
3,84,0,0
3,84,0,47
3,84,0,0
3,84,0,47
3,84,0,0
3,84,0,47
3,84,0,0
3,84,0,47
3,84,0,0
3,84,0,47
3,84,0,0
3,84,0,47
3,84,0,0
3,84,0,47
3,84,0,0
3,84,0,47
3,84,0,0
3,84,0,47
3,84,0,0
3,84,0,47
3,84,0,0
3,84,0,47
3,84,0,0
3,84,0,47
3,84,0,0
3,84,0,47
3,84,0,0
3,84,0,47
3,84,0,0
3,84,0,47
3,84,0,0
3,84,0,47
3,84,0,0
3,84,0,47
3,84,0,0
3,84,0,47
3,84,0,0
3,84,0,47
3,84,0,0
3,84,0,47
3,84,0,0
3,84,0,47
3,84,0,0
3,84,0,47
3,84,0,0
3,84,0,47
3,84,0,0
3,84,0,47
3,84,0,0
3,84,0,47
3,84,0,0
3,84,0,47
3,84,0,0
3,84,0,47
3,84,0,0
3,84,0,47
3,84,0,0
3,84,0,47
3,84,0,0
3,84,0,47
3,84,0,0
3,84,0,47
3,84,0,0
3,84,0,47
3,84,0,0
3,84,0,47
3,84,0,0
3,84,0,47
3,84,0,0
3,84,0,47
3,84,0,0
3,84,0,47
3,84,0,0
3,84,0,47
3,84,0,0
3,84,0,47
3,84,0,0
3,84,0,47
3,84,0,0
3,84,0,47
3,84,0,0
3,84,0,47
3,84,0,0
3,84,0,47
3,84,0,0
3,84,0,47
3,84,0,0
3,84,0,47
3,84,0,0
3,84,0,47
4,43,119,3070
4,31,117,0
4,59,105,47
4,55,99,2
4,50,97,0
4,59,0,42
4,50,0,3
4,55,0,1
4,50,89,42
4,55,99,0
4,59,107,0
4,55,0,18
4,59,0,2
4,50,0,3
4,59,101,15
4,55,101,1
4,50,97,0
4,59,0,50
4,55,0,3
4,50,0,1
4,59,115,43
4,50,103,1
4,55,111,0
4,59,0,64
4,50,0,6
4,55,0,0
4,59,115,74
4,55,109,0
4,50,103,1
4,59,0,45
4,55,0,1
4,50,0,1
4,59,101,42
4,50,93,1
4,55,89,1
4,55,0,24
4,59,0,1
4,50,0,1
4,59,113,22
4,50,103,0
4,55,113,1
4,31,0,17
4,43,0,0
4,26,111,4
4,50,113,1
4,38,113,0
4,59,0,23
4,55,0,1
4,50,0,1
4,59,113,55
4,50,103,0
4,55,107,1
4,59,0,95
4,55,0,4
4,50,0,1
4,31,113,5
4,43,103,0
4,26,0,5
4,50,0,1
4,38,0,0
4,59,107,42
4,50,97,1
4,55,97,0
4,50,0,39
4,59,0,0
4,55,0,3
4,59,107,49
4,55,103,2
4,50,97,0
4,55,0,17
4,59,0,2
4,50,0,1
4,59,99,20
4,50,87,0
4,55,103,1
4,59,0,44
4,50,0,1
4,55,0,8
4,59,111,43
4,55,103,1
4,50,101,1
4,59,0,95
4,55,0,6
4,50,0,0
4,59,103,42
4,50,89,2
4,55,83,1
4,50,0,33
4,59,0,3
4,55,0,7
4,55,103,54
4,59,103,1
4,50,93,1
4,59,0,19
4,55,0,0
4,50,0,2
4,55,103,21
4,59,103,0
4,50,97,1
4,50,0,41
4,59,0,1
4,55,0,7
4,55,107,50
4,59,109,1
4,50,101,0
4,55,0,65
4,59,0,4
4,50,0,2
4,24,111,24
4,36,119,2
4,31,0,1
4,43,0,0
4,52,95,52
4,48,85,0
4,55,91,1
4,59,97,0
4,59,0,44
4,48,0,1
4,55,0,1
4,52,0,1
4,52,109,40
4,59,103,0
4,55,99,0
4,48,73,1
4,50,65,4
4,50,0,5
4,59,0,10
4,52,0,0
4,55,0,0
4,48,0,1
4,59,107,21
4,48,95,1
4,52,103,1
4,55,103,0
4,52,0,52
4,48,0,0
4,59,0,0
4,55,0,1
4,59,103,43
4,55,97,1
4,52,103,1
4,48,93,0
4,59,0,93
4,52,0,2
4,55,0,0
4,48,0,4
4,52,109,54
4,48,97,0
4,55,101,0
4,59,109,0
4,52,0,38
4,59,0,6
4,55,0,2
4,48,0,1
4,59,115,44
4,52,113,0
4,55,105,1
4,48,103,0
4,55,0,18
4,52,0,0
4,48,0,2
4,59,0,3
4,59,105,18
4,48,97,0
4,52,109,2
4,55,103,0
4,24,0,3
4,36,0,2
4,28,119,5
4,40,121,1
4,48,0,26
4,59,0,4
4,52,0,1
4,55,0,0
4,59,113,50
4,48,105,1
4,55,105,0
4,52,113,0
4,59,0,72
4,48,0,8
4,52,0,2
4,55,0,1
4,28,0,26
4,40,0,1
4,26,107,3
4,38,117,1
4,54,102,45
4,59,109,1
4,50,103,1
4,59,0,37
4,50,0,6
4,54,0,3
4,54,100,47
4,50,97,2
4,59,103,0
4,59,0,16
4,54,0,2
4,50,0,4
4,50,89,14
4,54,90,1
4,59,103,1
4,50,0,42
4,59,0,2
4,54,0,7
4,54,98,44
4,59,113,0
4,50,103,1
4,59,0,81
4,50,0,2
4,54,0,9
4,54,102,52
4,59,113,1
4,50,105,1
4,59,0,37
4,50,0,1
4,54,0,8
4,59,107,46
4,54,95,1
4,50,97,0
4,54,0,18
4,59,0,1
4,50,0,0
4,54,96,20
4,59,107,1
4,50,93,1
4,50,0,45
4,54,0,7
4,59,0,2
4,54,102,39
4,59,111,1
4,50,105,1
4,59,0,71
4,50,0,1
4,54,0,10
4,43,119,28
4,31,117,0
4,26,0,5
4,38,0,1
4,59,115,38
4,55,109,0
4,50,97,1
4,59,0,42
4,55,0,3
4,50,0,3
4,55,99,43
4,59,103,0
4,50,95,1
4,55,0,18
4,59,0,1
4,50,0,1
4,59,87,16
4,55,99,2
4,50,83,0
4,59,0,46
4,50,0,1
4,55,0,5
4,59,113,50
4,55,107,1
4,50,103,1
4,59,0,85
4,55,0,7
4,50,0,0
4,50,101,52
4,55,105,0
4,59,107,0
4,59,0,39
4,55,0,2
4,50,0,1
4,50,99,49
4,55,109,0
4,59,109,1
4,55,0,16
4,50,0,1
4,59,0,0
4,59,111,23
4,50,99,1
4,55,105,0
4,43,0,20
4,31,0,0
4,26,111,4
