track,note,velocity,time
2,70,79,1800
2,70,79,20
2,70,79,20
2,69,79,40
2,69,79,20
2,67,79,40
2,67,79,20
2,60,79,140
2,69,79,20
2,70,79,20
2,69,79,20
2,67,79,60
2,67,79,20
2,65,79,0
2,67,79,420
2,67,79,20
2,67,79,20
2,65,79,40
2,65,79,20
2,67,79,40
2,62,79,40
2,60,79,0
2,58,79,20
2,60,79,20
2,58,79,860
2,70,79,20
2,70,79,20
2,70,79,20
2,69,79,40
2,69,79,20
2,67,79,20
2,67,79,20
2,65,79,100
2,67,79,20
2,69,79,40
2,70,79,40
2,69,79,20
2,67,79,40
2,67,79,20
2,65,79,0
2,58,79,260
2,67,79,20
2,67,79,20
2,69,79,65
2,70,79,40
2,69,79,20
2,73,79,140
2,74,79,20
2,76,79,40
2,74,79,20
2,74,79,325
2,72,79,120
2,75,79,20
2,69,79,260
2,81,79,20
2,78,79,40
2,74,79,20
2,72,79,40
2,72,79,20
2,70,79,0
2,79,79,320
2,75,79,40
2,72,79,40
2,70,79,40
2,69,79,40
2,67,79,80
2,67,79,40
2,65,79,0
2,74,79,560
2,72,79,120
2,75,79,20
2,69,79,260
2,81,79,20
2,78,79,40
2,74,79,20
2,72,79,40
2,72,79,20
2,70,79,0
2,67,79,260
2,79,79,20
2,75,79,40
2,72,79,40
2,70,79,40
2,69,79,40
2,72,79,80
2,72,79,40
2,70,79,0
2,70,79,440
2,70,79,20
2,70,79,20
2,69,79,20
2,69,79,60
2,67,79,60
2,67,79,20
2,60,79,120
2,69,79,20
2,70,79,40
2,69,79,40
2,67,79,20
2,67,79,20
2,65,79,0
2,67,79,200
2,67,79,20
2,67,79,20
2,65,79,40
2,65,79,40
2,65,79,40
2,62,79,40
2,58,79,20
2,60,79,40
2,58,79,860
2,70,79,20
2,70,79,20
2,70,79,20
2,69,79,40
2,69,79,20
2,67,79,20
2,67,79,20
2,60,79,60
2,69,79,20
2,70,79,60
2,69,79,20
2,67,79,20
2,69,79,20
2,67,79,0
2,65,79,0
2,67,79,320
2,67,79,20
2,69,79,40
2,70,79,40
2,69,79,40
2,73,79,20
2,74,79,120
2,76,79,20
2,74,79,0
2,74,79,20
2,74,79,0
2,72,79,120
2,75,79,20
2,69,79,260
2,81,79,20
2,78,79,40
2,74,79,20
2,72,79,40
2,72,79,20
2,70,79,0
2,79,79,165
2,75,79,40
2,72,79,40
2,70,79,40
2,69,79,40
2,67,79,80
2,67,79,40
2,65,79,0
2,74,79,645
2,72,79,120
2,75,79,20
2,69,79,260
2,81,79,20
2,78,79,40
2,74,79,20
2,72,79,40
2,72,79,20
2,70,79,0
2,67,79,260
2,79,79,20
2,75,79,40
2,72,79,40
2,70,79,40
2,69,79,40
2,72,79,80
2,72,79,40
2,70,79,0
2,74,79,1245
2,74,79,20
2,74,79,20
2,74,79,40
2,75,79,20
2,74,79,20
2,74,79,420
2,74,79,20
2,74,79,20
2,74,79,40
2,74,79,20
2,74,79,445
2,74,79,20
2,74,79,20
2,74,79,65
2,75,79,20
2,74,79,20
2,74,79,20
2,79,79,20
2,74,79,65
2,72,79,45
2,72,79,45
2,72,79,20
2,72,79,20
2,70,79,0
2,67,79,0
2,72,79,440
2,72,79,40
2,72,79,40
2,74,79,40
2,72,79,40
2,72,79,20
2,72,79,40
2,72,79,40
2,70,79,40
2,70,79,20
2,70,79,40
2,70,79,20
2,69,79,80
2,65,79,0
2,67,79,20
2,69,79,360
2,65,79,0
2,67,79,20
2,65,79,200
2,74,79,40
2,75,79,0
2,74,79,0
2,72,79,0
2,74,79,0
2,72,79,0
2,70,79,0
2,70,79,120
2,70,79,20
2,70,79,40
2,69,79,20
2,69,79,40
2,67,79,20
2,67,79,20
2,69,79,200
2,70,79,40
2,67,79,20
2,67,79,40
2,67,79,20
2,65,79,0
2,67,79,200
2,67,79,20
2,67,79,20
2,65,79,40
2,65,79,20
2,65,79,20
2,62,79,120
2,58,79,20
2,60,79,40
2,58,79,705
2,70,79,20
2,70,79,20
2,70,79,20
2,70,79,40
2,69,79,20
2,67,79,20
2,67,79,20
2,65,79,140
2,67,79,20
2,69,79,20
2,74,79,20
2,69,79,60
2,67,79,20
2,67,79,40
2,65,79,0
2,62,79,0
2,67,79,240
2,67,79,20
2,67,79,40
2,69,79,20
2,70,79,40
2,69,79,20
2,73,79,60
2,74,79,20
2,76,79,40
2,77,79,20
2,76,79,0
2,74,79,0
2,74,79,0
2,72,79,120
2,75,79,20
2,69,79,380
2,81,79,20
2,78,79,20
2,74,79,20
2,72,79,40
2,72,79,20
2,70,79,0
2,79,79,320
2,75,79,40
2,72,79,40
2,70,79,40
2,69,79,40
2,67,79,80
2,67,79,40
2,65,79,0
2,74,79,560
2,72,79,120
2,75,79,20
2,69,79,380
2,81,79,20
2,78,79,20
2,74,79,20
2,78,79,20
2,82,79,20
2,81,79,0
2,79,79,0
2,67,79,260
2,79,79,20
2,75,79,40
2,72,79,40
2,70,79,40
2,69,79,40
2,72,79,80
2,72,79,40
2,70,79,0
3,82,79,17160
3,77,79,40
3,74,79,40
3,79,79,160
3,75,79,40
3,70,79,40
3,77,79,160
3,72,79,40
3,69,79,40
3,77,79,160
3,72,79,40
3,69,79,40
3,79,79,160
3,75,79,40
3,70,79,40
3,79,79,160
3,74,79,40
3,70,79,40
3,76,79,160
3,72,79,40
3,70,79,40
3,70,79,40
3,75,79,0
3,79,79,0
3,72,79,80
3,69,79,0
3,79,79,0
3,65,79,200
3,62,79,0
3,70,79,0
3,65,79,40
3,62,79,0
3,70,79,0
3,65,79,40
3,62,79,0
3,70,79,0
3,60,79,160
3,64,79,0
3,67,79,0
3,60,79,40
3,64,79,0
3,67,79,0
3,60,79,40
3,64,79,0
3,67,79,0
3,65,79,40
3,60,79,0
3,69,79,0
3,67,79,80
3,61,79,0
3,64,79,0
3,69,79,0
3,62,79,80
3,69,79,120
3,65,79,0
3,74,79,0
3,69,79,40
3,65,79,0
3,74,79,0
3,69,79,40
3,65,79,0
3,74,79,0
3,79,79,160
3,75,79,40
3,70,79,40
3,71,79,40
3,67,79,0
3,64,79,0
3,76,79,0
3,73,79,40
3,67,79,0
3,64,79,0
3,76,79,0
3,67,79,40
3,64,79,0
3,61,79,0
3,69,79,0
3,74,79,200
3,72,79,0
3,67,79,0
3,79,79,0
3,74,79,40
3,72,79,0
3,67,79,0
3,79,79,0
3,74,79,40
3,72,79,0
3,67,79,0
3,79,79,0
3,72,79,160
3,69,79,0
3,66,79,0
3,74,79,0
3,72,79,40
3,69,79,0
3,66,79,0
3,74,79,0
3,72,79,40
3,69,79,0
3,66,79,0
3,74,79,0
3,67,79,8680
3,62,79,0
3,70,79,0
3,66,79,325
3,62,79,0
3,60,79,0
3,69,79,0
3,65,79,325
3,62,79,0
3,60,79,0
3,68,79,0
3,60,79,325
3,64,79,0
3,67,79,0
3,63,79,325
3,60,79,0
3,67,79,0
3,67,79,325
3,63,79,0
3,70,79,0
3,63,79,85
3,67,79,0
3,70,79,0
3,65,79,85
3,62,79,0
3,70,79,0
3,65,79,85
3,62,79,0
3,70,79,0
3,67,79,85
3,65,79,0
3,62,79,0
3,70,79,0
3,67,79,85
3,65,79,0
3,62,79,0
3,70,79,0
3,60,79,85
3,64,79,0
3,67,79,0
3,60,79,80
3,64,79,0
3,67,79,0
3,69,79,80
3,65,79,0
3,62,79,0
3,72,79,0
3,82,79,1415
3,77,79,40
3,74,79,40
3,79,79,160
3,75,79,40
3,70,79,40
3,77,79,160
3,72,79,40
3,69,79,40
3,77,79,160
3,72,79,40
3,69,79,40
3,79,79,160
3,75,79,40
3,70,79,40
3,79,79,160
3,74,79,40
3,70,79,40
3,76,79,160
3,72,79,40
3,67,79,40
3,70,79,40
3,75,79,0
3,79,79,0
3,72,79,80
3,69,79,0
3,79,79,0
3,65,79,200
3,62,79,0
3,70,79,0
3,65,79,40
3,62,79,0
3,70,79,0
3,65,79,40
3,62,79,0
3,70,79,0
3,63,79,160
3,60,79,0
3,67,79,0
3,60,79,40
3,63,79,0
3,67,79,0
3,63,79,40
3,60,79,0
3,67,79,0
3,69,79,40
3,65,79,0
3,72,79,0
3,69,79,80
3,65,79,0
3,72,79,0
3,62,79,80
3,65,79,40
3,62,79,0
3,69,79,0
3,65,79,40
3,62,79,0
3,69,79,0
3,65,79,40
3,62,79,0
3,69,79,0
3,79,79,160
3,75,79,40
3,70,79,40
3,71,79,40
3,67,79,0
3,64,79,0
3,76,79,0
3,73,79,40
3,71,79,0
3,67,79,0
3,64,79,0
3,76,79,0
3,76,79,40
3,73,79,0
3,69,79,0
3,79,79,0
3,69,79,200
3,67,79,0
3,62,79,0
3,72,79,0
3,69,79,40
3,67,79,0
3,62,79,0
3,72,79,0
3,69,79,40
3,67,79,0
3,62,79,0
3,72,79,0
3,66,79,160
3,62,79,0
3,69,79,0
3,66,79,40
3,62,79,0
3,69,79,0
3,66,79,40
3,62,79,0
3,69,79,0
3,70,79,40
3,63,79,0
3,67,79,0
3,74,79,0
3,70,79,80
3,63,79,0
3,67,79,0
3,74,79,0
3,60,79,80
3,63,79,0
3,67,79,0
3,69,79,0
3,60,79,80
3,63,79,0
3,67,79,0
3,69,79,0
3,62,79,80
3,66,79,0
3,69,79,0
3,66,79,80
3,62,79,0
3,69,79,0
3,70,79,80
3,67,79,0
3,74,79,0
3,70,79,80
3,67,79,0
3,74,79,0
3,67,79,80
3,63,79,0
3,70,79,0
3,67,79,80
3,63,79,0
3,70,79,0
3,69,79,80
3,65,79,0
3,72,79,0
3,69,79,80
3,65,79,0
3,72,79,0
3,74,79,80
3,70,79,0
3,77,79,0
3,74,79,80
3,70,79,0
3,77,79,0
3,69,79,200
3,66,79,0
3,62,79,0
3,72,79,0
3,69,79,40
3,66,79,0
3,62,79,0
3,72,79,0
3,69,79,40
3,66,79,0
3,62,79,0
3,72,79,0
3,70,79,40
3,67,79,0
3,63,79,0
3,74,79,0
3,70,79,80
3,67,79,0
3,63,79,0
3,74,79,0
3,75,79,80
3,72,79,0
3,69,79,0
3,79,79,0
3,75,79,80
3,72,79,0
3,69,79,0
3,79,79,0
3,66,79,80
3,62,79,0
3,69,79,0
3,62,79,80
3,66,79,0
3,69,79,0
3,70,79,80
3,67,79,0
3,74,79,0
3,70,79,80
3,67,79,0
3,74,79,0
3,67,79,80
3,63,79,0
3,70,79,0
3,67,79,80
3,63,79,0
3,70,79,0
3,69,79,80
3,65,79,0
3,72,79,0
3,69,79,80
3,65,79,0
3,72,79,0
3,72,79,40
3,65,79,0
3,69,79,0
3,74,79,0
3,70,79,0
3,77,79,0
3,74,79,40
3,70,79,0
3,77,79,0
4,46,79,430
4,53,79,0
4,58,79,165
4,56,79,0
4,44,79,0
4,61,79,0
4,65,79,240
4,61,79,80
4,58,79,0
4,65,79,0
4,54,79,0
4,66,79,120
4,57,79,40
4,63,79,0
4,55,79,40
4,53,79,0
4,62,79,120
4,58,79,40
4,53,79,0
4,62,79,0
4,58,79,80
4,53,79,0
4,62,79,0
4,58,79,80
4,55,79,0
4,63,79,0
4,63,79,80
4,58,79,0
4,67,79,0
4,58,79,40
4,60,79,40
4,57,79,0
4,65,79,0
4,60,79,80
4,57,79,0
4,65,79,0
4,60,79,80
4,57,79,0
4,65,79,0
4,60,79,80
4,53,79,0
4,65,79,0
4,53,79,40
4,58,79,40
4,55,79,0
4,39,79,0
4,63,79,0
4,58,79,80
4,55,79,0
4,63,79,0
4,58,79,80
4,53,79,0
4,43,79,0
4,62,79,0
4,58,79,80
4,53,79,0
4,62,79,0
4,60,79,80
4,55,79,0
4,45,79,0
4,64,79,0
4,60,79,80
4,55,79,0
4,64,79,0
4,63,79,80
4,58,79,0
4,36,79,0
4,67,79,0
4,60,79,20
4,62,79,0
4,57,79,0
4,41,79,0
4,65,79,0
4,63,79,40
4,60,79,0
4,55,79,0
4,65,79,0
4,62,79,40
4,58,79,0
4,53,79,0
4,34,79,0
4,65,79,0
4,62,79,80
4,58,79,0
4,53,79,0
4,65,79,0
4,62,79,80
4,60,79,0
4,55,79,0
4,36,79,0
4,65,79,0
4,60,79,80
4,55,79,0
4,63,79,0
4,65,79,80
4,60,79,0
4,57,79,0
4,48,79,0
4,69,79,0
4,64,79,80
4,61,79,0
4,55,79,0
4,49,79,0
4,67,79,0
4,62,79,80
4,57,79,0
4,50,79,0
4,65,79,0
4,53,79,80
4,57,79,20
4,62,79,20
4,65,79,20
4,58,79,20
4,55,79,0
4,39,79,0
4,63,79,0
4,58,79,80
4,55,79,0
4,63,79,0
4,64,79,80
4,61,79,0
4,59,79,0
4,45,79,0
4,67,79,0
4,64,79,80
4,61,79,0
4,59,79,0
4,67,79,0
4,62,79,80
4,60,79,0
4,55,79,0
4,38,79,0
4,67,79,0
4,62,79,80
4,60,79,0
4,55,79,0
4,67,79,0
4,62,79,80
4,60,79,0
4,54,79,0
4,38,79,0
4,66,79,0
4,62,79,80
4,60,79,0
4,55,79,0
4,67,79,0
4,62,79,40
4,60,79,0
4,57,79,0
4,69,79,0
4,62,79,40
4,58,79,0
4,55,79,0
4,39,79,0
4,67,79,0
4,62,79,80
4,58,79,0
4,55,79,0
4,67,79,0
4,63,79,80
4,60,79,0
4,57,79,0
4,41,79,0
4,67,79,0
4,63,79,80
4,60,79,0
4,57,79,0
4,67,79,0
4,66,79,80
4,62,79,0
4,57,79,0
4,42,79,0
4,69,79,0
4,66,79,80
4,62,79,0
4,57,79,0
4,69,79,0
4,62,79,80
4,58,79,0
4,55,79,0
4,43,79,0
4,67,79,0
4,60,79,80
4,57,79,0
4,41,79,0
4,67,79,0
4,62,79,20
4,60,79,20
4,57,79,0
4,67,79,0
4,63,79,40
4,58,79,0
4,55,79,0
4,39,79,0
4,67,79,0
4,63,79,80
4,58,79,0
4,55,79,0
4,67,79,0
4,60,79,80
4,57,79,0
4,41,79,0
4,65,79,0
4,58,79,80
4,55,79,0
4,29,79,0
4,63,79,0
4,58,79,80
4,53,79,0
4,34,79,0
4,62,79,0
4,53,79,80
4,58,79,20
4,60,79,20
4,62,79,20
4,38,79,20
4,54,79,120
4,62,79,0
4,60,79,0
4,66,79,0
4,62,79,40
4,60,79,0
4,55,79,0
4,67,79,0
4,62,79,40
4,60,79,0
4,57,79,0
4,69,79,0
4,62,79,40
4,58,79,0
4,55,79,0
4,39,79,0
4,67,79,0
4,62,79,80
4,58,79,0
4,55,79,0
4,67,79,0
4,63,79,80
4,60,79,0
4,57,79,0
4,41,79,0
4,67,79,0
4,63,79,80
4,60,79,0
4,57,79,0
4,67,79,0
4,66,79,80
4,62,79,0
4,57,79,0
4,42,79,0
4,69,79,0
4,66,79,80
4,62,79,0
4,57,79,0
4,69,79,0
4,62,79,80
4,58,79,0
4,55,79,0
4,43,79,0
4,67,79,0
4,60,79,80
4,57,79,0
4,41,79,0
4,67,79,0
4,62,79,20
4,60,79,20
4,57,79,0
4,67,79,0
4,63,79,40
4,58,79,0
4,55,79,0
4,39,79,0
4,67,79,0
4,63,79,80
4,58,79,0
4,55,79,0
4,67,79,0
4,41,79,80
4,60,79,0
4,57,79,0
4,65,79,0
4,29,79,80
4,58,79,0
4,55,79,0
4,63,79,0
4,63,79,40
4,53,79,0
4,58,79,0
4,34,79,0
4,62,79,40
4,41,79,80
4,58,79,0
4,55,79,0
4,63,79,0
4,62,79,20
4,29,79,20
4,55,79,0
4,60,79,0
4,58,79,40
4,53,79,0
4,34,79,0
4,62,79,0
4,58,79,80
4,53,79,0
4,62,79,0
4,58,79,80
4,55,79,0
4,39,79,0
4,63,79,0
4,58,79,80
4,55,79,0
4,63,79,0
4,60,79,80
4,57,79,0
4,41,79,0
4,65,79,0
4,60,79,80
4,57,79,0
4,65,79,0
4,60,79,80
4,57,79,0
4,38,79,0
4,65,79,0
4,60,79,80
4,53,79,0
4,65,79,0
4,53,79,40
4,58,79,40
4,55,79,0
4,39,79,0
4,63,79,0
4,58,79,80
4,55,79,0
