track,note,velocity,time
7,50,107,480
7,50,0,31
7,51,110,1
7,51,0,35
7,53,108,1
7,53,0,78
7,53,99,17
7,53,0,17
7,53,104,13
7,53,0,72
7,53,98,14
7,62,93,25
7,53,0,6
7,62,0,140
7,60,91,8
7,60,0,32
7,58,102,1
7,58,0,71
7,55,108,1
7,55,0,66
7,55,99,291
7,55,0,28
7,58,104,1
7,58,0,32
7,60,105,1
7,60,0,75
7,60,102,12
7,60,0,18
7,60,99,12
7,60,0,72
7,60,100,14
7,60,0,16
7,60,101,15
7,60,0,90
7,58,101,1
7,58,0,29
7,55,104,1
7,55,0,89
7,58,99,1
7,58,0,26
7,60,102,1
7,60,0,100
7,50,104,319
7,50,0,27
7,51,110,1
7,51,0,32
7,53,110,1
7,53,0,64
7,53,108,23
7,53,0,19
7,53,102,13
7,53,0,74
7,53,105,20
7,53,0,31
7,65,104,1
7,65,0,132
7,62,99,1
7,62,0,27
7,60,102,1
7,60,0,24
7,58,110,0
7,58,0,37
7,55,108,1
7,55,0,64
7,63,106,337
7,63,0,16
7,63,97,17
7,63,0,66
7,63,96,22
7,63,0,19
7,63,99,12
7,63,0,76
7,65,104,9
7,65,0,27
7,62,104,1
7,62,0,86
7,58,100,1
7,58,0,26
7,60,109,1
7,60,0,97
7,58,104,1
7,58,0,17
7,58,99,14
7,58,0,90
7,50,107,331
7,50,0,28
7,51,110,1
7,51,0,29
7,53,111,1
7,53,0,75
7,53,108,12
7,53,0,18
7,53,106,14
7,53,0,74
7,53,107,14
7,53,0,29
7,62,99,1
7,62,0,146
7,60,107,1
7,60,0,28
7,58,103,1
7,58,0,66
7,53,99,1
7,53,0,4
7,55,108,1
7,55,0,64
7,55,106,304
7,55,0,26
7,58,103,1
7,58,0,30
7,60,110,1
7,60,0,72
7,60,101,14
7,60,0,19
7,60,104,11
7,60,0,74
7,60,104,11
7,60,0,23
7,60,112,11
7,60,0,93
7,58,108,1
7,58,0,30
7,55,104,1
7,55,0,86
7,58,101,1
7,58,0,32
7,60,102,5
7,60,0,94
7,50,102,314
7,50,0,28
7,51,113,1
7,51,0,28
7,53,111,1
7,53,0,74
7,53,108,22
7,53,0,19
7,53,107,11
7,53,0,70
7,53,99,19
7,53,0,27
7,62,101,1
7,62,0,120
7,60,98,6
7,60,0,26
7,58,107,1
7,58,0,64
7,55,106,1
7,55,0,26
7,63,109,243
7,63,0,15
7,63,99,14
7,63,0,17
7,63,99,14
7,63,0,71
7,63,95,17
7,63,0,15
7,63,96,15
7,63,0,77
7,65,99,1
7,65,0,33
7,62,95,1
7,62,0,97
7,58,99,3
7,58,0,27
7,60,105,1
7,60,0,82
7,58,98,1
7,58,0,27
7,58,107,7
7,58,0,111
7,53,104,309
7,53,0,31
7,54,106,1
7,54,0,28
7,56,111,1
7,56,0,65
7,56,104,23
7,56,0,17
7,56,101,16
7,56,0,61
7,56,102,29
7,56,0,28
7,65,97,1
7,65,0,141
7,63,102,1
7,63,0,32
7,61,104,4
7,61,0,57
7,58,95,1
7,58,0,19
7,58,99,185
7,58,0,27
7,61,102,1
7,61,0,31
7,63,104,1
7,63,0,74
7,63,98,13
7,63,0,18
7,63,99,13
7,63,0,75
7,63,99,13
7,63,0,19
7,63,99,15
7,63,0,88
7,61,111,1
7,61,0,33
7,58,104,1
7,58,0,89
7,61,108,1
7,61,0,27
7,63,108,1
7,63,0,46
7,53,99,330
7,53,0,26
7,54,104,1
7,54,0,33
7,56,108,1
7,56,0,63
7,56,106,17
7,56,0,23
7,56,110,10
7,56,0,69
7,56,102,22
7,56,0,24
7,68,95,2
7,68,0,129
7,65,100,1
7,65,0,21
7,63,108,1
7,63,0,25
7,61,99,1
7,61,0,62
7,58,96,1
7,58,0,75
7,66,94,285
7,66,0,13
7,66,97,19
7,66,0,12
7,66,98,20
7,66,0,66
7,66,101,19
7,66,0,14
7,66,102,19
7,66,0,87
7,68,99,4
7,68,0,27
7,65,99,1
7,65,0,67
7,61,102,6
7,61,0,25
7,63,100,1
7,63,0,84
7,61,102,4
7,61,0,19
7,61,99,12
7,61,0,105
7,65,104,373
7,65,0,249
7,66,102,1
7,66,0,34
7,65,107,1
7,65,0,92
7,63,102,1
7,63,0,19
7,63,103,13
7,63,0,65
7,61,101,1
7,61,0,84
7,65,99,217
7,65,0,84
7,66,104,1
7,66,0,32
7,68,99,1
7,68,0,14
7,68,99,60
7,68,0,36
7,68,102,20
7,68,0,94
7,63,89,3
7,63,0,31
7,65,103,1
7,65,0,5
7,65,96,135
7,65,0,36
7,65,101,23
7,65,0,41
7,65,101,18
7,65,0,40
7,65,96,23
7,65,0,72
7,65,97,7
7,65,0,105
7,65,97,10
7,65,0,61
7,63,100,1
7,63,0,110
7,63,100,187
7,63,0,55
7,61,103,1
7,61,0,62
7,58,99,1
7,58,0,53
7,61,101,7
7,63,99,1
7,61,0,5
7,63,0,12
7,58,99,0
7,58,0,100
7,60,99,3
7,60,0,3
7,56,102,6
7,56,0,16
7,53,99,111
7,53,0,23
7,54,107,1
7,54,0,34
7,56,103,1
7,56,0,75
7,56,104,12
7,56,0,17
7,56,101,16
7,56,0,61
7,56,102,29
7,56,0,28
7,65,97,1
7,65,0,135
7,63,102,1
7,63,0,28
7,61,104,1
7,61,0,57
7,58,95,1
7,58,0,78
7,58,99,288
7,58,0,27
7,61,102,1
7,61,0,31
7,63,104,1
7,63,0,74
7,63,98,13
7,63,0,18
7,63,99,13
7,63,0,75
7,63,99,18
7,63,0,19
7,63,99,10
7,63,0,88
7,61,111,1
7,61,0,33
7,58,104,1
7,58,0,84
7,61,108,1
7,61,0,32
7,63,108,1
7,63,0,101
7,53,99,320
7,53,0,26
7,54,104,1
7,54,0,33
7,56,108,1
7,56,0,63
7,56,106,21
7,56,0,23
7,56,110,6
7,56,0,69
7,56,102,22
7,56,0,25
7,68,97,1
7,68,0,126
7,65,100,1
7,65,0,28
7,63,108,1
7,63,0,26
7,61,99,1
7,61,0,56
7,58,96,1
7,58,0,71
7,66,99,290
7,66,0,13
7,66,99,19
7,66,0,12
7,66,100,20
7,66,0,66
7,66,102,18
7,66,0,14
7,66,108,20
7,66,0,90
7,68,99,1
7,68,0,27
7,65,99,1
7,65,0,69
7,61,102,4
7,61,0,28
7,63,100,1
7,63,0,84
7,61,102,1
7,61,0,19
7,61,99,12
7,61,0,114
7,53,108,2226
7,53,0,29
7,54,109,1
7,54,0,31
7,56,106,1
7,56,0,59
7,56,104,28
7,56,0,17
7,56,106,14
7,56,0,74
7,56,102,16
7,56,0,28
7,65,102,1
7,65,0,140
7,63,102,1
7,63,0,24
7,61,104,1
7,61,0,68
7,58,100,1
7,58,0,63
7,58,99,294
7,58,0,27
7,61,102,1
7,61,0,31
7,63,104,1
7,63,0,22
7,63,98,16
7,63,0,18
7,63,104,10
7,63,0,75
7,63,99,17
7,63,0,19
7,63,103,11
7,63,0,88
7,61,111,1
7,61,0,33
7,58,104,1
7,58,0,85
7,61,108,1
7,61,0,31
7,63,108,1
7,63,0,18
7,53,99,247
7,53,0,26
7,54,104,1
7,54,0,33
7,56,108,1
7,56,0,63
7,56,106,25
7,56,0,23
7,56,110,2
7,56,0,69
7,56,102,22
7,56,0,25
7,68,105,1
7,68,0,126
7,65,100,4
7,65,0,25
7,63,108,2
7,63,0,26
7,61,99,1
7,61,0,67
7,58,96,1
7,58,0,61
7,66,98,294
7,66,0,13
7,66,98,19
7,66,0,12
7,66,98,20
7,66,0,66
7,66,98,20
7,66,0,29
7,68,98,3
7,68,0,67
7,68,99,24
7,68,0,27
7,65,99,1
7,65,0,63
7,61,102,4
7,63,100,31
7,61,0,6
7,63,0,71
7,61,102,8
7,61,0,19
7,61,99,12
7,61,0,109
8,51,71,586
8,54,67,60
8,54,0,56
8,58,52,4
8,51,0,51
8,54,67,9
8,58,0,48
8,53,72,12
8,54,0,6
8,53,0,52
8,57,67,2
8,48,55,60
8,57,0,59
8,53,69,1
8,48,0,10
8,53,0,50
8,50,60,0
8,53,53,60
8,53,0,54
8,58,52,6
8,53,55,60
8,50,0,2
8,50,76,58
8,53,0,9
8,53,64,51
8,58,0,10
8,58,61,50
8,53,0,5
8,53,69,55
8,50,0,9
8,58,0,26
8,53,0,20
8,51,71,5
8,54,59,60
8,58,58,60
8,54,0,1
8,54,58,59
8,58,0,48
8,57,73,12
8,54,0,3
8,51,0,7
8,53,67,50
8,48,67,60
8,53,0,5
8,57,0,36
8,51,59,19
8,48,0,11
8,51,0,45
8,50,77,4
8,53,61,60
8,58,55,60
8,53,0,9
8,53,53,51
8,50,0,13
8,53,0,32
8,58,0,0
8,49,76,15
8,53,76,0
8,56,76,0
8,56,0,97
8,53,0,3
8,49,0,0
8,53,78,20
8,48,78,0
8,57,78,0
8,53,0,89
8,57,0,1
8,48,0,2
8,46,79,28
8,53,72,0
8,50,71,0
8,46,0,89
8,50,0,3
8,53,0,1
8,53,66,27
8,50,56,0
8,46,67,0
8,46,0,80
8,50,0,1
8,53,0,6
8,53,69,33
8,46,67,0
8,50,70,0
8,46,0,86
8,50,0,1
8,53,0,5
8,46,68,28
8,53,68,0
8,50,70,0
8,53,0,74
8,50,0,1
8,46,0,2
8,51,71,43
8,46,76,0
8,55,67,0
8,46,0,89
8,55,0,7
8,51,0,1
8,51,57,23
8,55,59,0
8,46,67,0
8,46,0,76
8,55,0,3
8,51,0,5
8,51,60,36
8,46,73,0
8,55,67,0
8,55,0,79
8,51,0,7
8,46,0,6
8,51,66,28
8,46,72,0
8,55,74,0
8,50,75,0
8,50,0,87
8,46,0,2
8,55,0,1
8,51,0,3
8,51,64,27
8,48,66,0
8,55,70,0
8,48,0,82
8,51,0,5
8,55,0,4
8,51,60,29
8,55,61,0
8,48,73,0
8,48,0,84
8,55,0,4
8,51,0,6
8,51,61,26
8,55,71,0
8,48,71,0
8,48,0,81
8,51,0,8
8,55,0,2
8,51,63,29
8,48,76,0
8,55,74,0
8,55,0,53
8,51,0,8
8,48,0,19
8,54,69,40
8,51,68,0
8,48,68,0
8,56,78,0
8,48,0,86
8,54,0,7
8,51,0,3
8,56,0,6
8,56,46,18
8,51,55,0
8,48,73,0
8,54,70,0
8,54,0,63
8,56,0,2
8,51,0,5
8,48,0,10
8,48,59,40
8,51,67,0
8,53,70,0
8,57,71,0
8,57,0,85
8,53,0,3
8,48,0,1
8,51,0,4
8,57,67,27
8,51,64,0
8,53,65,0
8,48,72,0
8,48,0,79
8,51,0,3
8,53,0,1
8,57,0,0
8,46,79,37
8,53,72,0
8,50,71,0
8,46,0,89
8,50,0,3
8,53,0,1
8,53,66,27
8,50,56,0
8,46,67,0
8,46,0,80
8,50,0,1
8,53,0,6
8,53,69,33
8,46,67,0
8,50,70,0
8,46,0,86
8,50,0,1
8,53,0,5
8,46,68,28
8,53,68,0
8,50,70,0
8,53,0,74
8,50,0,1
8,46,0,2
8,51,71,43
8,46,76,0
8,55,67,0
8,46,0,89
8,55,0,7
8,51,0,1
8,51,57,23
8,55,59,0
8,46,67,0
8,46,0,76
8,55,0,3
8,51,0,5
8,51,60,36
8,46,73,0
8,55,67,0
8,55,0,79
8,51,0,7
8,46,0,6
8,50,75,28
8,46,72,0
8,55,74,0
8,50,0,87
8,46,0,2
8,55,0,1
8,51,64,30
8,48,66,0
8,55,70,0
8,48,0,82
8,51,0,5
8,55,0,4
8,51,60,29
8,55,61,0
8,48,73,0
8,48,0,84
8,55,0,4
8,51,0,6
8,53,71,26
8,57,71,0
8,48,71,0
8,51,61,0
8,48,0,81
8,51,0,8
8,57,0,2
8,53,0,0
8,53,63,29
8,57,74,0
8,51,63,0
8,48,76,0
8,48,0,80
8,57,0,25
8,51,0,2
8,53,0,0
8,46,72,13
8,53,64,0
8,50,67,0
8,46,0,97
8,50,0,1
8,53,0,3
8,53,64,19
8,50,66,0
8,46,69,0
8,46,0,92
8,50,0,6
8,53,0,5
8,49,70,17
8,53,74,0
8,56,69,0
8,56,0,96
8,53,0,2
8,49,0,1
8,48,70,21
8,53,68,0
8,57,68,0
8,53,0,88
8,57,0,1
8,48,0,1
8,46,79,30
8,53,72,0
8,50,71,0
8,46,0,89
8,50,0,3
8,53,0,1
8,53,66,27
8,50,56,0
8,46,67,0
8,46,0,80
8,50,0,1
8,53,0,6
8,53,69,33
8,46,67,0
8,50,70,0
8,46,0,86
8,50,0,1
8,53,0,5
8,46,68,28
8,53,68,0
8,50,70,0
8,53,0,74
8,50,0,1
8,46,0,2
8,51,71,43
8,46,76,0
8,55,67,0
8,46,0,89
8,55,0,7
8,51,0,1
8,51,57,23
8,55,59,0
8,46,67,0
8,46,0,76
8,55,0,3
8,51,0,5
8,51,60,36
8,46,73,0
8,55,67,0
8,55,0,79
8,51,0,7
8,46,0,6
8,51,66,28
8,46,72,0
8,55,74,0
8,50,75,0
8,50,0,87
8,46,0,2
8,55,0,1
8,51,0,3
8,51,64,27
8,48,66,0
8,55,70,0
8,48,0,82
8,51,0,5
8,55,0,4
8,51,60,29
8,55,61,0
8,48,73,0
8,48,0,84
8,55,0,4
8,51,0,6
8,51,61,26
8,55,71,0
8,48,71,0
8,48,0,81
8,51,0,8
8,55,0,2
8,51,63,29
8,48,76,0
8,55,74,0
8,55,0,53
8,51,0,8
8,48,0,19
8,54,69,40
8,51,68,0
8,48,68,0
8,56,78,0
8,48,0,86
8,54,0,7
8,51,0,3
8,56,0,6
8,56,46,18
8,51,55,0
8,48,73,0
8,54,70,0
8,54,0,63
8,56,0,2
8,51,0,5
8,48,0,10
8,48,59,40
8,51,67,0
8,53,70,0
8,57,71,0
8,57,0,85
8,53,0,3
8,48,0,1
8,51,0,4
8,57,67,27
8,51,64,0
8,53,65,0
8,48,72,0
8,48,0,79
8,51,0,3
8,53,0,1
8,57,0,0
8,46,79,37
8,53,72,0
8,50,71,0
8,46,0,89
8,50,0,3
8,53,0,1
8,53,66,27
8,50,56,0
8,46,67,0
8,46,0,80
8,50,0,1
8,53,0,6
8,53,69,33
8,46,67,0
8,50,70,0
8,46,0,86
8,50,0,1
8,53,0,5
8,46,68,28
8,53,68,0
8,50,70,0
8,53,0,74
8,50,0,1
8,46,0,2
8,51,71,43
8,46,76,0
8,55,67,0
8,46,0,89
8,55,0,7
8,51,0,1
8,51,57,23
8,55,59,0
8,46,67,0
8,46,0,76
8,55,0,3
8,51,0,5
8,51,60,36
8,46,73,0
8,55,67,0
8,55,0,79
8,51,0,7
8,46,0,6
8,50,75,28
8,46,72,0
8,55,74,0
8,50,0,87
8,46,0,2
8,55,0,1
8,51,64,30
8,48,66,0
8,55,70,0
8,48,0,82
8,51,0,5
8,55,0,4
8,51,60,29
8,55,61,0
8,48,73,0
8,48,0,84
8,55,0,4
8,51,0,6
8,53,71,26
8,57,71,0
8,48,71,0
8,51,61,0
8,48,0,81
8,51,0,8
8,57,0,2
8,53,0,0
8,53,63,29
8,57,74,0
8,51,63,0
8,48,76,0
8,48,0,80
8,57,0,25
8,51,0,2
8,53,0,0
8,50,74,13
8,46,64,0
8,53,72,0
8,53,0,96
8,46,0,0
8,50,0,2
8,50,69,22
8,53,69,0
8,46,58,0
8,46,0,88
8,53,0,3
8,50,0,0
8,46,66,29
8,50,68,0
8,56,77,0
8,53,32,0
8,53,0,95
8,50,0,6
8,56,0,2
8,46,0,0
8,44,59,17
8,48,60,0
8,51,59,0
8,56,59,0
8,51,0,85
8,48,0,1
8,56,0,3
8,44,0,1
8,49,79,30
8,56,72,0
8,53,71,0
8,49,0,89
8,53,0,3
8,56,0,1
8,56,66,27
8,53,56,0
8,49,67,0
8,49,0,80
8,53,0,1
8,56,0,6
8,48,67,33
8,56,69,0
8,53,70,0
8,48,0,86
8,53,0,1
8,56,0,5
8,48,68,28
8,56,68,0
8,53,70,0
8,56,0,74
8,53,0,1
8,48,0,2
8,54,71,43
8,49,76,0
8,58,67,0
8,49,0,89
8,58,0,7
8,54,0,1
8,54,57,23
8,58,59,0
