track,note,velocity,time
7,62,94,480
7,71,106,29
7,62,0,2
7,71,0,47
7,71,101,11
7,71,0,10
7,71,111,20
7,69,106,88
7,71,0,1
7,69,0,23
7,69,106,8
7,67,100,59
7,69,0,5
7,67,0,65
7,67,102,82
7,67,0,22
7,67,101,8
7,67,0,27
7,72,108,3
7,72,0,48
7,72,101,11
7,72,0,35
7,72,99,25
7,72,0,30
7,76,106,0
7,76,0,69
7,76,104,19
7,76,0,120
7,76,96,89
7,76,0,17
7,76,104,13
7,76,0,57
7,76,102,7
7,76,0,16
7,76,104,14
7,74,100,89
7,76,0,4
7,74,0,23
7,76,108,0
7,74,102,91
7,76,0,3
7,74,0,55
7,74,104,63
7,74,0,24
7,74,108,7
7,74,0,18
7,74,109,12
7,74,0,47
7,74,103,14
7,74,0,14
7,74,108,16
7,71,107,56
7,74,0,5
7,69,103,59
7,71,0,3
7,69,0,76
7,69,104,161
7,69,0,19
7,71,107,6
7,71,0,46
7,71,112,16
7,71,0,37
7,71,110,23
7,69,111,62
7,71,0,1
7,69,0,26
7,71,106,0
7,71,0,61
7,67,103,2
7,67,0,67
7,67,99,115
7,67,0,20
7,72,108,6
7,72,0,42
7,72,102,20
7,72,0,22
7,72,108,9
7,76,109,59
7,72,0,2
7,76,0,51
7,76,105,8
7,76,0,82
7,76,100,125
7,76,0,17
7,76,103,13
7,76,0,17
7,76,109,13
7,76,0,41
7,76,104,19
7,78,110,28
7,76,0,4
7,76,97,58
7,78,0,1
7,76,0,17
7,76,105,12
7,76,0,24
7,76,98,7
7,76,0,20
7,76,105,10
7,76,0,58
7,74,106,1
7,74,0,18
7,74,106,14
7,74,0,52
7,72,103,36
7,72,0,24
7,72,101,6
7,72,0,21
7,72,110,10
7,72,0,45
7,72,103,16
7,74,106,60
7,72,0,2
7,74,0,51
7,72,106,6
7,72,0,21
7,72,99,10
7,72,0,30
7,71,108,0
7,69,100,59
7,71,0,2
7,69,0,19
7,69,103,10
7,69,0,54
7,62,104,33
7,62,0,19
7,62,100,14
7,62,0,18
7,62,106,12
7,62,0,42
7,62,105,19
7,66,105,60
7,62,0,1
7,66,0,57
7,69,105,2
7,67,103,30
7,69,0,4
7,67,0,128
7,62,94,828
7,71,106,29
7,62,0,2
7,71,0,57
7,74,101,1
7,74,0,22
7,74,111,8
7,71,106,88
7,74,0,1
7,71,0,23
7,71,106,8
7,67,100,59
7,71,0,5
7,67,0,65
7,67,102,82
7,67,0,22
7,67,101,8
7,67,0,27
7,72,108,3
7,72,0,48
7,72,101,11
7,72,0,20
7,72,109,9
7,76,106,61
7,72,0,6
7,76,0,63
7,76,104,19
7,76,0,120
7,74,96,92
7,74,0,28
7,76,104,1
7,76,0,49
7,76,102,13
7,76,0,16
7,76,104,14
7,76,0,49
7,76,104,6
7,76,0,47
7,76,108,14
7,74,105,56
7,76,0,1
7,74,0,18
7,74,102,16
7,74,0,58
7,71,104,95
7,71,0,24
7,74,109,5
7,74,0,47
7,74,109,14
7,74,0,37
7,74,111,20
7,74,0,29
7,71,107,0
7,69,103,64
7,71,0,3
7,69,0,76
7,69,104,99
7,69,0,52
7,71,104,10
7,71,0,19
7,71,107,6
7,71,0,46
7,71,112,16
7,71,0,37
7,71,110,23
7,69,111,62
7,71,0,1
7,69,0,20
7,69,106,6
7,67,103,63
7,69,0,3
7,67,0,64
7,72,108,141
7,72,0,42
7,72,102,20
7,72,0,22
7,72,108,9
7,76,109,59
7,72,0,2
7,76,0,68
7,76,105,19
7,76,0,82
7,76,100,97
7,76,0,17
7,76,103,13
7,76,0,17
7,76,109,13
7,76,0,41
7,76,104,19
7,78,110,30
7,76,0,2
7,78,0,80
7,76,105,8
7,76,0,24
7,76,98,7
7,76,0,20
7,76,105,10
7,76,0,58
7,74,106,1
7,74,0,18
7,74,106,14
7,74,0,17
7,74,106,13
7,74,0,50
7,72,103,8
7,72,0,24
7,72,101,6
7,72,0,21
7,72,110,10
7,72,0,17
7,72,97,13
7,72,0,22
7,72,103,9
7,74,106,30
7,72,0,5
7,74,0,48
7,72,106,6
7,72,0,45
7,72,99,16
7,72,0,30
7,71,108,0
7,71,0,27
7,69,108,2
7,69,0,21
7,69,100,9
7,69,0,21
7,69,110,10
7,69,0,40
7,67,104,18
7,67,0,19
7,67,104,10
7,62,106,63
7,67,0,2
7,62,0,40
7,62,105,19
7,66,105,60
7,62,0,1
7,69,105,28
7,66,0,4
7,67,103,86
7,69,0,1
7,67,0,131
7,62,94,799
7,71,106,29
7,62,0,2
7,71,0,57
7,74,101,1
7,74,0,22
7,74,111,8
7,74,0,82
7,74,106,6
7,74,0,32
7,71,106,0
7,67,100,59
7,71,0,5
7,67,0,65
7,72,108,141
7,72,0,20
7,72,110,8
7,72,0,52
7,72,109,9
7,72,0,25
7,72,109,4
7,72,0,57
7,76,106,3
7,76,0,15
7,76,104,15
7,76,0,120
7,67,96,122
7,67,0,28
7,76,104,1
7,76,0,49
7,76,102,13
7,76,0,40
7,76,104,17
7,74,104,57
7,76,0,4
7,74,0,23
7,76,108,5
7,74,105,56
7,76,0,1
7,74,0,18
7,74,102,16
7,74,0,58
7,71,104,95
7,71,0,24
7,74,109,5
7,74,0,47
7,74,109,14
7,74,0,37
7,74,111,20
7,74,0,65
7,71,107,0
7,69,103,28
7,71,0,2
7,69,0,77
7,67,104,160
7,67,0,19
7,71,107,9
7,71,0,46
7,74,112,14
7,74,0,18
7,74,116,14
7,74,0,79
7,71,111,11
7,71,0,23
7,71,106,5
7,67,103,62
7,71,0,4
7,67,0,63
7,72,108,171
7,72,0,26
7,72,102,6
7,72,0,22
7,72,108,8
7,72,0,23
7,72,108,5
7,72,0,32
7,76,109,0
7,76,0,50
7,76,105,9
7,76,0,82
7,76,100,98
7,76,0,51
7,76,103,8
7,76,0,17
7,76,109,13
7,76,0,41
7,76,104,19
7,78,110,30
7,76,0,2
7,76,105,60
7,78,0,3
7,76,0,21
7,76,105,4
7,76,0,24
7,76,104,7
7,76,0,51
7,76,105,10
7,76,0,51
7,74,106,9
7,74,0,17
7,74,106,13
7,74,0,50
7,72,103,8
7,72,0,24
7,72,101,6
7,72,0,50
7,72,110,10
7,72,0,23
7,72,103,9
7,72,0,30
7,74,106,0
7,74,0,53
7,74,106,6
7,74,0,19
7,74,106,12
7,74,0,19
7,69,99,11
7,69,0,42
7,69,108,17
7,69,0,21
7,69,100,9
7,69,0,128
7,62,106,83
7,62,0,16
7,62,105,14
7,62,0,21
7,62,105,9
7,62,0,21
7,66,105,9
7,69,105,60
7,66,0,8
7,67,103,22
7,69,0,2
7,67,0,130
7,62,94,1788
7,71,106,30
7,62,0,1
7,74,101,59
7,71,0,5
7,74,0,17
7,74,111,8
7,71,106,88
7,74,0,1
7,74,106,31
7,71,0,5
7,67,100,54
7,74,0,5
7,67,0,65
7,67,101,111
7,67,0,27
7,72,108,3
7,72,0,48
7,72,101,12
7,72,0,20
7,72,109,9
7,76,106,61
7,72,0,6
7,76,0,63
7,76,104,19
7,76,0,120
7,67,96,92
7,67,0,28
7,76,104,1
7,76,0,49
7,76,102,12
7,76,0,16
7,76,104,14
7,76,0,73
7,76,104,15
7,76,0,21
7,76,108,9
7,74,105,60
7,76,0,2
7,74,0,17
7,74,102,11
7,74,0,58
7,71,104,124
7,71,0,28
7,74,109,0
7,74,0,77
7,76,111,13
7,74,107,62
7,76,0,6
7,74,0,54
7,69,103,0
7,69,0,79
7,71,104,70
7,71,0,52
7,71,104,9
7,71,0,19
7,71,107,9
7,71,0,46
7,71,112,14
7,71,0,23
7,71,110,7
7,71,0,69
7,69,111,23
7,69,0,23
7,69,106,5
7,67,103,62
7,69,0,4
7,67,0,63
7,72,103,113
7,72,0,19
7,72,108,9
7,72,0,42
7,72,102,20
7,72,0,22
7,72,108,8
7,76,109,60
7,72,0,1
7,76,0,69
7,76,105,19
7,76,0,82
7,76,100,97
7,76,0,17
7,76,103,13
7,76,0,17
7,76,109,13
7,76,0,20
7,76,104,10
7,78,110,60
7,76,0,3
7,78,0,79
7,76,105,8
7,76,0,24
7,76,98,7
7,76,0,20
7,76,105,10
7,76,0,58
7,74,106,1
7,74,0,18
7,74,106,14
7,74,0,57
7,72,101,1
7,72,0,21
7,72,103,9
7,72,0,47
7,72,110,14
7,72,0,45
7,72,103,16
7,72,0,28
7,74,106,2
7,74,0,53
7,72,106,6
7,72,0,25
7,71,99,6
7,71,0,46
7,71,108,14
7,71,0,56
7,69,100,3
7,69,0,21
7,69,110,10
7,69,0,40
7,67,104,48
7,67,0,18
7,67,104,11
7,67,0,18
7,62,106,15
7,62,0,42
7,62,105,18
7,69,105,60
7,62,0,1
7,67,105,59
7,69,0,2
7,67,0,21
7,67,103,5
7,67,0,132
7,62,94,830
7,71,106,30
7,62,0,1
7,74,101,59
7,71,0,5
7,74,0,17
7,74,111,8
7,71,106,88
7,74,0,1
7,74,106,31
7,71,0,5
7,71,100,54
7,74,0,5
7,71,0,65
7,67,101,111
7,67,0,27
7,72,108,3
7,72,0,48
7,72,101,12
7,72,0,20
7,72,109,9
7,76,106,61
7,72,0,6
7,76,0,63
7,76,104,19
7,76,0,120
7,67,96,92
7,67,0,28
7,76,104,1
7,76,0,49
7,76,102,12
7,76,0,16
7,76,104,14
7,76,0,73
7,74,104,15
7,76,108,30
7,74,0,3
7,74,105,57
7,76,0,2
7,74,0,57
7,71,104,153
7,71,0,28
7,74,109,0
7,74,0,59
7,74,98,7
7,76,111,24
7,74,0,1
7,74,107,61
7,76,0,6
7,69,103,29
7,74,0,1
7,69,0,78
7,71,104,95
7,71,0,73
7,71,107,16
7,71,0,46
7,71,112,14
7,71,0,23
7,71,110,7
7,71,0,69
7,69,111,23
7,69,0,23
7,69,106,5
7,67,103,62
7,69,0,4
7,67,0,51
7,67,103,63
7,67,0,19
7,67,103,11
7,67,0,19
7,67,103,13
7,67,0,19
7,72,108,9
7,72,0,42
7,72,102,20
7,72,0,43
7,72,108,17
7,72,0,29
7,76,109,1
7,76,0,70
7,76,105,19
7,76,0,82
7,76,100,67
7,76,0,17
7,76,100,13
7,76,0,17
7,76,103,13
7,76,0,17
7,76,109,13
7,76,0,20
7,76,104,10
7,76,0,22
7,76,104,10
7,76,0,22
7,78,110,6
7,78,0,82
7,76,105,8
7,76,0,24
7,76,98,7
7,76,0,20
7,76,105,10
7,76,0,58
7,74,106,1
7,74,0,45
7,74,106,17
7,74,0,57
7,72,103,1
7,72,0,17
7,72,103,13
7,72,0,17
7,72,110,14
7,72,0,19
7,72,102,11
7,72,0,19
7,72,103,12
7,72,0,24
7,72,103,6
7,72,0,24
7,74,106,6
7,74,0,57
7,72,99,3
7,72,0,24
7,72,108,6
7,72,0,56
7,69,106,2
7,69,0,22
7,69,100,9
7,69,0,21
7,69,110,10
7,69,0,21
7,69,110,9
7,69,0,50
7,67,104,8
7,67,0,18
7,67,104,12
7,67,0,18
7,62,106,14
7,62,0,20
7,62,106,9
7,62,0,20
7,62,105,11
7,62,0,19
7,62,105,9
7,62,0,19
7,66,105,13
7,69,105,27
7,66,0,4
7,67,103,57
7,69,0,2
7,67,0,130
7,62,94,1790
7,71,106,30
7,62,0,1
7,74,101,59
7,71,0,5
7,74,0,42
7,74,107,13
7,74,0,76
7,74,106,14
7,74,0,22
7,74,106,7
7,71,100,59
7,74,0,5
7,71,0,65
7,72,101,82
7,72,0,24
7,72,108,6
7,72,0,48
7,72,101,12
7,72,0,20
7,72,109,9
7,76,106,61
7,72,0,6
7,76,0,63
7,76,104,19
7,76,0,120
7,67,96,92
7,67,0,28
7,76,104,1
7,76,0,49
7,76,102,12
7,76,0,16
7,76,104,14
7,76,0,73
7,76,104,15
7,76,0,21
7,76,108,9
7,74,105,60
7,76,0,2
7,74,0,50
7,74,104,130
7,74,0,17
7,74,104,13
7,74,0,49
7,74,109,11
7,74,0,51
7,74,111,7
7,71,107,62
7,74,0,2
7,69,103,28
7,71,0,1
7,69,0,78
7,71,104,100
7,71,0,52
7,71,104,9
7,71,0,19
7,71,107,9
7,71,0,46
7,71,112,14
7,71,0,48
7,71,110,14
7,71,0,60
7,69,111,0
7,69,0,23
7,69,106,5
7,67,103,62
7,69,0,4
7,67,0,63
7,67,103,113
7,67,0,19
7,72,108,9
7,72,0,22
7,72,102,8
7,72,0,51
7,72,108,11
7,72,0,23
7,72,108,7
7,76,109,60
7,72,0,1
7,76,0,23
7,76,105,6
7,76,0,82
7,76,100,126
7,76,0,17
7,76,103,13
7,76,0,17
7,76,109,13
7,76,0,48
7,76,104,14
7,76,0,58
7,78,110,2
7,78,0,52
7,76,105,6
7,76,0,24
7,76,104,7
7,74,106,60
7,76,0,6
7,74,0,38
7,74,106,17
7,74,0,57
7,72,101,1
7,72,0,21
7,72,103,9
7,72,0,47
7,72,106,14
7,72,0,21
7,72,97,10
7,72,0,21
7,72,103,9
7,72,0,19
7,72,103,11
7,72,0,25
7,74,106,3
7,74,0,53
7,72,106,9
7,72,0,17
7,72,99,11
7,72,0,24
7,71,108,8
7,69,100,27
7,71,0,5
7,69,0,42
7,69,110,16
7,69,0,44
7,67,104,44
7,67,0,18
7,67,104,11
7,67,0,22
7,62,106,11
7,62,0,42
7,62,105,18
7,66,105,60
7,62,0,1
7,69,105,59
7,66,0,2
7,69,0,24
7,67,103,2
7,67,0,132
7,62,94,830
7,71,106,30
7,62,0,1
7,74,101,59
7,71,0,5
7,74,0,19
7,74,107,6
7,74,0,68
7,74,106,22
7,74,0,24
7,71,106,3
7,67,100,63
7,71,0,1
7,67,0,69
7,67,101,78
7,67,0,19
7,67,101,13
7,67,0,15
7,72,108,15
7,72,0,48
7,72,101,12
7,72,0,20
7,72,109,9
7,76,106,61
7,72,0,6
7,76,0,63
7,76,104,19
7,76,0,103
7,74,96,109
7,74,0,28
7,79,104,1
7,79,0,49
7,79,102,12
7,79,0,16
7,79,104,14
7,79,0,73
7,79,104,15
7,79,0,21
7,76,108,9
7,74,105,60
7,76,0,2
7,74,0,63
7,79,104,85
7,79,0,27
7,79,104,5
7,79,0,17
7,79,104,13
7,79,0,49
7,79,109,11
7,79,0,22
7,79,111,8
7,76,107,58
7,79,0,2
7,74,103,60
7,76,0,3
7,74,0,76
7,67,104,161
7,67,0,24
7,71,107,4
7,71,0,30
7,74,108,0
7,74,0,50
7,74,112,12
7,74,0,76
7,74,111,14
7,74,0,26
7,69,106,4
7,67,103,58
7,69,0,8
7,67,0,59
7,67,103,115
7,67,0,19
7,72,108,9
7,72,0,22
7,72,102,8
7,72,0,51
7,72,108,11
7,76,109,58
7,72,0,5
7,76,0,68
7,76,105,17
7,76,0,82
7,76,100,98
7,76,0,17
7,76,103,13
7,76,0,17
7,76,109,13
7,76,0,48
7,76,104,14
7,78,110,28
7,76,0,2
7,78,0,50
7,76,103,9
7,76,0,17
7,76,105,12
7,76,0,24
7,76,104,7
7,76,0,24
7,76,104,5
7,76,0,31
7,74,106,29
7,74,0,21
7,74,106,11
7,74,0,57
7,71,103,63
7,71,0,29
7,74,106,0
7,74,0,47
7,74,103,14
7,76,106,58
7,74,0,1
7,76,0,52
7,74,106,9
7,74,0,17
7,74,99,11
7,74,0,24
7,71,108,8
7,71,0,58
7,69,100,2
7,69,0,19
7,69,110,11
7,69,0,44
7,67,104,44
7,67,0,18
7,67,104,11
7,67,0,22
7,62,106,11
7,62,0,42
7,62,105,18
7,69,105,60
7,62,0,1
7,69,0,57
7,67,105,2
7,67,0,19
7,67,103,9
7,67,0,132
8,31,74,483
8,31,0,59
8,31,73,9
8,31,0,32
8,31,76,12
8,31,0,32
8,31,72,28
8,31,0,8
8,31,74,6
8,31,0,36
8,31,56,11
8,31,0,4
8,31,76,5
8,31,0,32
8,31,76,12
8,31,0,44
8,31,72,16
8,31,0,8
8,31,74,6
8,31,0,36
8,31,56,11
8,31,0,4
8,31,76,5
8,31,0,32
8,31,76,12
8,31,0,44
8,31,72,16
8,31,0,8
