track,note,velocity,time
7,60,74,638
7,67,72,20
7,72,92,14
7,60,0,10
7,67,0,20
7,60,77,0
7,67,76,30
7,72,0,2
7,60,0,25
7,72,92,3
7,67,0,23
7,60,85,7
7,67,76,30
7,72,0,2
7,60,0,25
7,72,92,3
7,67,0,23
7,60,74,7
7,67,76,30
7,72,0,2
7,60,0,25
7,72,91,3
7,67,0,23
7,60,73,7
7,67,76,30
7,72,0,2
7,60,0,25
7,72,90,3
7,67,0,23
7,60,74,7
7,67,76,30
7,72,0,2
7,60,0,25
7,72,92,3
7,67,0,23
7,60,78,7
7,65,76,30
7,72,0,2
7,60,0,25
7,72,90,3
7,65,0,23
7,60,78,7
7,65,76,30
7,72,0,2
7,60,0,25
7,72,86,3
7,65,0,23
7,60,85,7
7,65,76,30
7,72,0,2
7,60,0,25
7,72,89,3
7,65,0,23
7,60,77,7
7,65,76,30
7,72,0,2
7,60,0,25
7,72,90,3
7,65,0,23
7,60,85,7
7,65,76,30
7,72,0,2
7,60,0,25
7,72,85,3
7,65,0,29
7,60,77,1
7,72,0,16
7,72,92,14
7,60,0,17
7,60,77,13
7,67,76,30
7,72,0,2
7,60,0,25
7,72,92,3
7,67,0,23
7,60,85,7
7,67,76,30
7,72,0,2
7,60,0,25
7,72,92,3
7,67,0,23
7,60,74,7
7,67,76,30
7,72,0,2
7,60,0,25
7,72,91,3
7,67,0,23
7,60,73,7
7,67,76,30
7,72,0,2
7,60,0,25
7,72,90,3
7,67,0,23
7,60,74,7
7,67,76,30
7,72,0,2
7,60,0,25
7,72,92,3
7,67,0,23
7,60,78,7
7,65,76,30
7,72,0,2
7,60,0,25
7,72,90,3
7,65,0,23
7,60,78,7
7,65,76,30
7,72,0,2
7,60,0,25
7,72,86,3
7,65,0,23
7,60,85,7
7,65,76,30
7,72,0,2
7,60,0,25
7,72,89,3
7,65,0,23
7,60,77,7
7,65,76,30
7,72,0,2
7,60,0,25
7,72,90,3
7,65,0,23
7,60,85,7
7,65,76,30
7,72,0,2
7,60,0,25
7,72,85,3
7,65,0,29
7,72,0,27
7,60,72,3807
7,67,77,23
7,72,92,14
7,60,0,6
7,60,77,24
7,67,0,9
7,67,76,21
7,72,0,2
7,60,0,25
7,72,92,3
7,67,0,23
7,60,85,7
7,67,76,30
7,72,0,2
7,60,0,25
7,72,92,3
7,67,0,23
7,60,74,7
7,67,76,30
7,72,0,2
7,60,0,25
7,72,91,3
7,67,0,23
7,60,73,7
7,67,76,30
7,72,0,2
7,60,0,25
7,72,90,3
7,67,0,23
7,60,74,7
7,67,76,30
7,72,0,2
7,60,0,25
7,72,92,3
7,67,0,23
7,60,78,7
7,65,76,30
7,72,0,2
7,60,0,25
7,72,90,3
7,65,0,23
7,60,78,7
7,65,76,30
7,72,0,2
7,60,0,25
7,72,86,3
7,65,0,23
7,60,85,7
7,65,76,30
7,72,0,2
7,60,0,25
7,72,89,3
7,65,0,23
7,60,77,7
7,65,76,30
7,72,0,2
7,60,0,25
7,72,90,3
7,65,0,23
7,60,85,7
7,65,76,30
7,72,0,2
7,60,0,25
7,72,85,3
7,65,0,29
7,60,77,1
7,72,0,16
7,72,92,14
7,60,0,17
7,60,77,13
7,67,76,30
7,72,0,2
7,60,0,25
7,72,92,3
7,67,0,23
7,60,85,7
7,67,76,30
7,72,0,2
7,60,0,25
7,72,92,3
7,67,0,23
7,60,74,7
7,67,76,30
7,72,0,2
7,60,0,25
7,72,91,3
7,67,0,23
7,60,73,7
7,67,76,30
7,72,0,2
7,60,0,25
7,72,90,3
7,67,0,23
7,60,74,7
7,67,76,30
7,72,0,2
7,60,0,25
7,72,92,3
7,67,0,23
7,60,78,7
7,65,76,30
7,72,0,2
7,60,0,25
7,72,90,3
7,65,0,23
7,60,78,7
7,65,76,30
7,72,0,2
7,60,0,25
7,72,86,3
7,65,0,23
7,60,85,7
7,65,76,30
7,72,0,2
7,60,0,25
7,72,89,3
7,65,0,23
7,60,77,7
7,65,76,30
7,72,0,2
7,60,0,25
7,72,90,3
7,65,0,23
7,60,85,7
7,65,76,30
7,72,0,2
7,60,0,25
7,72,85,3
7,65,0,29
7,72,0,27
7,60,70,7641
7,60,0,25
7,67,78,0
7,72,92,18
7,67,0,17
7,60,77,13
7,67,76,30
7,72,0,2
7,60,0,25
7,72,92,3
7,67,0,23
7,60,85,7
7,67,76,30
7,72,0,2
7,60,0,25
7,72,92,3
7,67,0,23
7,60,74,7
7,67,76,30
7,72,0,2
7,60,0,25
7,72,91,3
7,67,0,23
7,60,73,7
7,67,76,30
7,72,0,2
7,60,0,25
7,72,90,3
7,67,0,23
7,60,74,7
7,67,76,30
7,72,0,2
7,60,0,25
7,72,92,3
7,67,0,23
7,60,78,7
7,65,76,30
7,72,0,2
7,60,0,25
7,72,90,3
7,65,0,23
7,60,78,7
7,65,76,30
7,72,0,2
7,60,0,25
7,72,86,3
7,65,0,23
7,60,85,7
7,65,76,30
7,72,0,2
7,60,0,25
7,72,89,3
7,65,0,23
7,60,77,7
7,65,76,30
7,72,0,2
7,60,0,25
7,72,90,3
7,65,0,23
7,60,85,7
7,65,76,30
7,72,0,2
7,60,0,25
7,72,85,3
7,65,0,29
7,60,77,1
7,72,0,16
7,72,92,14
7,60,0,17
7,60,77,13
7,67,76,30
7,72,0,2
7,60,0,25
7,72,92,3
7,67,0,23
7,60,85,7
7,67,76,30
7,72,0,2
7,60,0,25
7,72,92,3
7,67,0,23
7,60,74,7
7,67,76,30
7,72,0,2
7,60,0,25
7,72,91,3
7,67,0,23
7,60,73,7
7,67,76,30
7,72,0,2
7,60,0,25
7,72,90,3
7,67,0,23
7,60,74,7
7,67,76,30
7,72,0,2
7,60,0,25
7,72,92,3
7,67,0,23
7,60,78,7
7,65,76,30
7,72,0,2
7,60,0,25
7,72,90,3
7,65,0,23
7,60,78,7
7,65,76,30
7,72,0,2
7,60,0,25
7,72,86,3
7,65,0,23
7,60,85,7
7,65,76,30
7,72,0,2
7,60,0,25
7,72,89,3
7,65,0,23
7,60,77,7
7,65,76,30
7,72,0,2
7,60,0,25
7,72,90,3
7,65,0,23
7,60,85,7
7,65,76,30
7,72,0,2
7,60,0,25
7,72,85,3
7,65,0,29
7,72,0,27
7,60,68,1954
7,62,70,30
7,60,0,7
7,62,0,18
7,60,68,7
7,62,62,28
7,60,0,9
7,64,73,21
7,62,0,6
7,60,62,54
7,64,0,18
7,62,72,12
7,60,0,1
7,60,66,29
7,62,0,10
7,62,68,20
7,60,0,2
7,60,72,28
7,62,0,8
7,62,70,22
7,60,0,2
7,64,70,28
7,62,0,6
7,64,0,62
7,70,74,82
7,70,0,33
7,70,74,27
7,70,0,29
7,70,72,31
7,70,0,48
7,69,75,12
7,67,67,30
7,69,0,3
7,67,0,27
7,65,70,0
7,65,0,36
7,65,71,24
7,65,0,76
7,60,70,8641
7,60,0,25
7,67,78,0
7,72,92,18
7,67,0,17
7,60,77,13
7,67,76,30
7,72,0,2
7,60,0,25
7,72,92,3
7,67,0,23
7,60,85,7
7,67,76,30
7,72,0,2
7,60,0,25
7,72,92,3
7,67,0,23
7,60,74,7
7,67,76,30
7,72,0,2
7,60,0,25
7,72,91,3
7,67,0,23
7,60,73,7
7,67,76,30
7,72,0,2
7,60,0,25
7,72,90,3
7,67,0,23
7,60,74,7
7,67,76,30
7,72,0,2
7,60,0,25
7,72,92,3
7,67,0,23
7,60,78,7
7,65,76,30
7,72,0,2
7,60,0,25
7,72,90,3
7,65,0,23
7,60,78,7
7,65,76,30
7,72,0,2
7,60,0,25
7,72,86,3
7,65,0,23
7,60,85,7
7,65,76,30
7,72,0,2
7,60,0,25
7,72,89,3
7,65,0,23
7,60,77,7
7,65,76,30
7,72,0,2
7,60,0,25
7,72,90,3
7,65,0,23
7,60,85,7
7,65,76,30
7,72,0,2
7,60,0,25
7,72,85,3
7,65,0,13
7,79,77,17
7,72,0,16
7,84,92,14
7,79,0,17
7,72,77,13
7,79,76,30
7,84,0,2
7,72,0,25
7,84,92,3
7,79,0,23
7,72,85,7
7,79,76,30
7,84,0,2
7,72,0,25
7,84,92,3
7,79,0,23
7,72,74,7
7,79,76,30
7,84,0,2
7,72,0,25
7,84,91,3
7,79,0,23
7,72,73,7
7,79,76,30
7,84,0,2
7,72,0,25
7,84,90,3
7,79,0,23
7,72,74,7
7,79,76,30
7,84,0,2
7,72,0,25
7,84,92,3
7,79,0,23
7,72,78,7
7,77,76,30
7,84,0,2
7,72,0,25
7,84,90,3
7,77,0,23
7,72,78,7
7,77,76,30
7,84,0,2
7,72,0,25
7,84,86,3
7,77,0,23
7,72,85,7
7,77,76,30
7,84,0,2
7,72,0,25
7,84,89,3
7,77,0,23
7,72,77,7
7,77,76,30
7,84,0,2
7,72,0,25
7,84,90,3
7,77,0,23
7,72,85,7
7,77,76,30
7,84,0,2
7,72,0,25
7,84,85,3
7,77,0,29
7,84,0,27
7,57,76,11524
7,57,0,50
7,60,66,10
7,57,57,60
7,60,0,3
7,60,71,27
7,57,0,11
7,60,0,72
7,55,73,7
7,55,0,36
7,55,56,24
7,55,0,38
7,54,72,22
7,54,0,38
7,54,77,22
7,54,0,39
7,53,63,21
7,53,0,54
7,57,64,6
7,57,0,43
7,60,72,17
7,60,0,51
7,60,66,9
7,60,0,45
7,57,66,15
7,57,0,37
7,57,57,23
7,57,0,59
7,52,71,1
7,52,0,41
7,52,58,19
7,52,0,46
7,57,71,14
7,57,0,47
7,57,64,13
7,57,0,60
7,52,66,0
7,52,0,43
7,52,67,17
7,52,0,43
7,55,67,17
7,55,0,48
7,55,68,12
7,55,0,46
7,54,72,14
7,54,0,96
7,53,63,24
7,53,0,54
7,53,64,6
7,53,0,43
7,53,72,17
7,53,0,51
7,53,66,9
7,53,0,45
7,52,66,15
7,52,0,50
7,54,57,10
7,54,0,59
7,55,66,1
7,55,0,52
7,56,58,8
7,56,0,46
7,57,71,14
7,57,0,47
7,57,64,13
7,57,0,60
7,52,66,0
7,52,0,43
7,52,67,17
7,52,0,43
7,55,67,17
7,55,0,48
7,55,68,12
7,55,0,46
7,54,72,14
7,54,0,96
7,53,63,24
7,53,0,54
7,53,64,6
7,53,0,43
7,53,72,17
7,53,0,51
7,53,66,9
7,53,0,45
7,52,66,15
7,52,0,50
7,55,70,10
7,55,0,53
7,48,67,7
7,48,0,42
7,60,70,2921
7,67,78,19
7,60,0,6
7,72,92,12
7,67,0,17
7,60,77,13
7,67,76,30
7,72,0,2
7,60,0,25
7,72,92,3
7,67,0,23
7,60,85,7
7,67,76,30
7,72,0,2
7,60,0,25
7,72,92,3
7,67,0,23
7,60,74,7
7,67,76,30
7,72,0,2
7,60,0,25
7,72,91,3
7,67,0,23
7,60,73,7
7,67,76,30
7,72,0,2
7,60,0,25
7,72,90,3
7,67,0,23
7,60,74,7
7,67,76,30
7,72,0,2
7,60,0,25
7,72,92,3
7,67,0,23
7,60,78,7
7,65,76,30
7,72,0,2
7,60,0,25
7,72,90,3
7,65,0,23
7,60,78,7
7,65,76,30
7,72,0,2
7,60,0,25
7,72,86,3
7,65,0,23
7,60,85,7
7,65,76,30
7,72,0,2
7,60,0,25
7,72,89,3
7,65,0,23
7,60,77,7
7,65,76,30
7,72,0,2
7,60,0,25
7,72,90,3
7,65,0,23
7,60,85,7
7,65,76,30
7,72,0,2
7,60,0,25
7,72,85,3
7,65,0,29
7,60,77,1
7,72,0,16
7,72,92,14
7,60,0,17
7,60,77,13
7,67,76,30
7,72,0,2
7,60,0,25
7,72,92,3
7,67,0,23
7,60,85,7
7,67,76,30
7,72,0,2
7,60,0,25
7,72,92,3
7,67,0,23
7,60,74,7
7,67,76,30
7,72,0,2
7,60,0,25
7,72,91,3
7,67,0,23
7,60,73,7
7,67,76,30
7,72,0,2
7,60,0,25
7,72,90,3
7,67,0,23
7,60,74,7
7,67,76,30
7,72,0,2
7,60,0,25
7,72,92,3
7,67,0,23
7,60,78,7
7,65,76,30
7,72,0,2
7,60,0,25
7,72,90,3
7,65,0,23
7,60,78,7
7,65,76,30
7,72,0,2
7,60,0,25
7,72,86,3
7,65,0,23
7,60,85,7
7,65,76,30
7,72,0,2
7,60,0,25
7,72,89,3
7,65,0,23
7,60,77,7
7,65,76,30
7,72,0,2
7,60,0,25
7,72,90,3
7,65,0,23
7,60,85,7
7,65,76,30
7,72,0,2
7,60,0,25
7,72,85,3
7,65,0,29
7,72,0,27
7,41,81,4
7,41,0,114
7,42,81,6
7,42,0,150
7,43,81,0
7,43,0,94
7,45,81,2
7,45,0,101
7,38,81,15
7,38,0,113
7,43,81,5
7,43,0,120
7,36,81,0
7,36,0,90
7,36,86,30
7,60,86,0
7,55,86,0
7,55,0,30
7,60,0,0
7,36,0,0
8,48,85,604
8,48,0,240
8,59,84,0
8,59,0,229
8,57,84,11
8,57,0,226
8,53,79,14
8,53,0,223
8,48,85,17
8,48,0,240
8,59,84,0
8,59,0,229
8,57,84,11
8,57,0,226
8,53,79,14
8,53,0,223
8,67,73,17
8,60,84,30
8,67,0,2
8,67,72,28
8,62,86,0
8,60,0,7
8,60,89,23
8,62,0,8
8,67,0,1
8,60,0,19
8,67,65,2
8,62,75,0
8,64,91,30
8,62,0,6
8,67,0,49
8,60,75,5
8,64,0,18
8,67,64,12
8,62,89,0
8,60,0,1
8,60,82,29
8,62,0,10
8,67,0,4
8,67,68,16
8,62,84,0
8,60,0,2
8,60,89,28
8,62,0,8
8,67,0,11
8,67,63,11
8,62,87,0
8,60,0,2
8,64,87,28
8,62,0,6
8,58,76,41
8,67,0,17
8,60,69,2
8,64,0,2
8,58,0,7
8,62,79,15
8,60,0,2
8,65,72,0
8,65,0,50
8,62,0,2
8,70,92,6
8,74,71,0
8,70,0,33
8,74,0,2
8,70,92,25
8,74,69,0
8,70,0,29
8,74,0,6
8,70,89,25
8,74,68,0
8,67,78,30
8,74,0,11
8,70,0,7
8,69,94,12
8,72,74,0
8,67,0,4
8,67,83,26
8,72,0,1
8,69,0,2
8,69,74,26
8,67,0,1
8,65,87,0
8,72,71,0
8,69,0,32
8,72,0,1
8,65,0,3
8,65,88,24
8,72,69,0
8,69,76,1
8,72,0,72
8,65,0,3
8,69,0,10
8,62,62,12
8,67,73,22
8,64,77,1
8,62,0,3
8,60,84,26
8,67,0,2
8,64,0,13
8,67,72,15
8,62,86,0
8,60,0,7
8,60,89,23
8,62,0,8
8,67,0,1
8,60,0,19
8,67,65,2
8,62,75,0
8,64,91,30
8,62,0,6
8,67,0,49
8,60,75,5
8,64,0,18
8,67,64,12
8,62,89,0
8,60,0,1
8,60,82,29
8,62,0,10
8,67,0,4
8,67,68,16
8,62,84,0
8,60,0,2
8,60,89,28
8,62,0,8
8,67,0,11
8,67,63,11
8,62,87,0
8,60,0,2
8,64,87,28
8,62,0,6
8,59,76,41
8,67,0,17
8,60,69,2
8,64,0,2
8,59,0,7
8,65,72,15
8,62,84,0
8,60,0,2
8,62,0,36
8,65,0,3
8,62,92,19
8,65,71,0
8,62,0,33
8,65,0,2
8,62,92,25
8,65,69,0
8,62,0,29
8,65,0,6
8,62,89,25
8,65,68,0
8,57,78,30
8,65,0,11
8,62,0,7
8,59,98,12
8,62,67,0
8,57,0,4
8,57,83,26
8,59,0,3
8,62,0,22
8,57,0,5
8,55,87,0
8,55,0,36
8,55,88,24
8,62,76,1
8,62,0,73
8,55,0,2
8,62,70,14
8,62,0,26
8,67,73,4
8,64,75,2
8,60,84,28
8,67,0,13
8,64,0,7
8,67,72,10
8,62,86,0
8,60,0,7
8,60,89,23
8,62,0,8
8,67,0,1
8,60,0,19
8,67,65,2
8,62,75,0
8,64,91,30
8,62,0,6
8,67,0,49
8,60,75,5
8,64,0,18
8,67,64,12
8,62,89,0
8,60,0,1
8,60,82,29
8,62,0,10
8,67,0,4
8,67,68,16
8,62,84,0
8,60,0,2
8,60,89,28
8,62,0,8
8,67,0,11
8,67,63,11
8,62,87,0
8,60,0,2
