track,note,velocity,time
0,53,85,2214
0,58,85,0
0,62,85,0
0,34,86,28
0,34,102,0
0,74,101,0
0,58,97,4
0,58,95,40
0,60,99,40
0,62,99,40
0,65,94,40
0,58,94,14
0,60,84,24
0,62,88,22
0,65,97,22
0,58,84,40
0,60,82,40
0,62,82,30
0,38,84,6
0,38,100,0
0,72,97,0
0,65,94,4
0,58,90,40
0,39,84,2
0,39,100,0
0,70,100,0
0,60,84,4
0,62,85,40
0,53,85,6
0,57,85,0
0,60,85,0
0,41,86,2
0,41,102,0
0,72,100,0
0,65,92,4
0,65,84,40
0,67,92,40
0,72,92,40
0,29,84,2
0,29,100,0
0,65,86,4
0,67,84,40
0,69,92,28
0,65,92,40
0,72,97,26
0,65,82,2
0,67,79,34
0,69,94,40
0,33,84,2
0,33,100,0
0,72,100,0
0,65,86,4
0,67,84,40
0,74,95,2
0,69,92,4
0,65,88,40
0,55,85,6
0,60,85,0
0,63,85,0
0,36,86,2
0,36,102,0
0,75,95,0
0,60,86,4
0,72,89,40
0,67,87,40
0,63,78,40
0,67,81,40
0,60,88,40
0,63,89,40
0,60,90,30
0,63,84,40
0,60,82,18
0,63,88,6
0,67,86,40
0,39,84,2
0,39,100,0
0,74,103,0
0,72,97,4
0,60,90,40
0,41,84,2
0,41,100,0
0,72,97,0
0,67,86,4
0,60,92,40
0,55,85,6
0,58,85,0
0,62,85,0
0,43,86,2
0,43,102,0
0,74,100,0
0,67,88,4
0,70,86,40
0,69,76,40
0,67,82,40
0,31,84,2
0,31,100,0
0,70,88,4
0,62,86,16
0,67,79,4
0,70,88,14
0,67,80,2
0,62,92,12
0,67,79,32
0,69,86,40
0,29,84,2
0,29,100,0
0,70,88,4
0,62,79,40
0,70,88,40
0,67,82,40
0,53,85,6
0,58,85,0
0,62,85,0
0,74,100,2
0,34,84,0
0,34,100,0
0,58,97,4
0,58,95,40
0,60,99,40
0,62,99,40
0,65,94,40
0,58,94,40
0,60,84,40
0,62,88,40
0,65,97,40
0,58,84,40
0,72,96,36
0,60,82,4
0,62,82,40
0,36,84,36
0,36,100,0
0,65,94,4
0,70,96,28
0,58,90,4
0,38,84,2
0,38,100,0
0,60,84,4
0,62,85,40
0,53,85,6
0,57,85,0
0,60,85,0
0,72,102,2
0,41,84,0
0,41,100,0
0,65,92,4
0,65,84,40
0,72,96,28
0,67,92,4
0,72,92,40
0,65,86,40
0,67,84,40
0,69,92,40
0,65,92,40
0,72,97,40
0,65,82,6
0,67,79,40
0,69,94,40
0,41,84,36
0,41,100,0
0,65,86,4
0,72,98,32
0,67,84,8
0,69,92,40
0,74,96,2
0,65,88,12
0,55,85,6
0,60,85,0
0,63,85,0
0,36,86,4
0,36,102,0
0,60,86,4
0,75,100,6
0,72,89,34
0,67,87,40
0,63,78,40
0,67,81,40
0,60,88,40
0,63,89,40
0,60,90,40
0,63,84,40
0,60,82,40
0,63,88,40
0,74,97,36
0,67,86,40
0,39,84,28
0,39,100,0
0,72,97,4
0,60,90,40
0,74,96,2
0,41,84,2
0,41,100,0
0,67,86,4
0,60,92,40
0,55,85,6
0,58,85,0
0,62,85,0
0,43,87,2
0,43,103,0
0,67,88,4
0,74,102,8
0,70,86,40
0,69,76,40
0,72,97,2
0,67,82,18
0,70,88,0
0,70,96,2
0,62,86,40
0,67,79,40
0,70,88,40
0,67,80,40
0,62,92,40
0,38,84,12
0,38,100,0
0,67,79,4
0,69,86,40
0,72,96,2
0,31,84,0
0,31,100,0
0,70,88,4
0,62,79,40
0,70,96,24
0,70,88,4
0,67,82,40
0,55,85,6
0,58,85,0
0,63,85,0
0,79,101,2
0,39,84,0
0,39,100,0
0,67,88,4
0,58,86,40
0,63,75,40
0,67,86,40
0,58,82,40
0,63,77,40
0,65,78,40
0,63,76,40
0,67,84,40
0,58,82,40
0,63,76,40
0,65,80,40
0,77,96,36
0,39,84,0
0,39,100,0
0,67,90,4
0,65,78,40
0,75,96,28
0,63,79,4
0,58,84,20
0,53,85,4
0,58,85,0
0,62,85,0
0,77,99,4
0,34,84,0
0,34,100,0
0,65,75,4
0,70,80,40
0,72,76,40
0,70,72,40
0,72,84,40
0,70,70,40
0,65,70,40
0,58,74,40
0,72,83,40
0,70,75,40
0,65,73,40
0,75,96,16
0,58,76,18
0,34,84,36
0,34,100,0
0,65,75,4
0,58,82,40
0,77,90,4
0,70,82,36
0,65,73,4
0,51,85,6
0,56,85,0
0,60,85,0
0,32,86,4
0,32,102,0
0,56,84,4
0,75,99,36
0,63,79,4
0,72,81,40
0,74,94,0
0,70,73,40
0,72,94,2
0,65,77,8
0,63,80,40
0,56,78,40
0,72,82,40
0,70,71,40
0,63,83,40
0,39,84,36
0,39,100,0
0,65,80,4
0,56,77,40
0,70,99,6
0,44,86,2
0,44,102,0
0,72,86,4
0,63,73,40
0,39,84,2
0,39,100,0
0,70,92,4
0,72,94,2
0,65,77,40
0,51,85,6
0,55,85,0
0,58,85,0
0,41,86,2
0,41,102,0
0,58,84,4
0,63,76,40
0,65,84,40
0,63,80,40
0,70,82,40
0,63,78,40
0,67,78,40
0,58,78,40
0,53,85,6
0,57,85,0
0,60,85,0
0,70,86,32
0,65,79,40
0,36,84,36
0,36,100,0
0,69,79,4
0,60,74,8
0,41,86,2
0,41,102,0
0,65,80,4
0,72,93,40
0,70,103,38
0,36,84,2
0,36,100,0
0,69,76,4
0,72,99,8
0,65,75,0
0,53,85,6
0,58,85,0
0,62,85,0
0,74,99,2
0,34,84,0
0,34,100,0
0,58,88,2
0,58,97,2
0,58,95,40
0,58,88,38
0,60,99,2
0,62,99,40
0,60,88,38
0,65,94,2
0,58,94,40
0,62,88,38
0,60,84,2
0,62,88,40
0,65,88,38
0,65,97,2
0,58,84,40
0,62,88,38
0,60,82,2
0,62,82,40
0,72,97,32
0,36,84,0
0,36,100,0
0,60,88,2
0,65,94,2
0,58,90,40
0,70,96,2
0,38,84,0
0,38,100,0
0,58,88,2
0,60,84,2
0,62,85,40
0,53,85,6
0,57,85,0
0,60,85,0
0,72,98,2
0,41,84,0
0,41,100,0
0,53,88,2
0,65,92,2
0,65,84,40
0,53,88,38
0,67,92,2
0,72,92,40
0,57,88,38
0,65,86,2
0,67,84,40
0,60,88,38
0,69,92,2
0,65,92,40
0,65,88,38
0,72,97,2
0,65,82,40
0,60,88,38
0,67,79,2
0,69,94,4
0,72,100,36
0,41,84,0
0,41,100,0
0,57,88,2
0,65,86,2
0,67,84,40
0,74,97,2
0,53,88,2
0,69,92,2
0,65,88,12
0,55,85,6
0,60,85,0
0,63,85,0
0,75,96,4
0,36,86,0
0,36,102,0
0,55,88,2
0,60,86,2
0,72,89,40
0,55,88,38
0,67,87,2
0,63,78,40
0,60,88,38
0,67,81,2
0,60,88,40
0,63,88,38
0,63,89,2
0,60,90,40
0,67,88,38
0,63,84,2
0,60,82,40
0,63,88,8
0,63,88,2
0,74,99,12
0,67,86,40
0,39,84,28
0,39,100,0
0,60,88,2
0,72,97,2
0,60,90,40
0,72,97,4
0,41,84,2
0,41,100,0
0,55,88,2
0,67,86,2
0,60,92,40
0,55,85,6
0,58,85,0
0,62,85,0
0,43,87,2
0,43,103,0
0,55,88,2
0,67,88,2
0,74,95,4
0,70,86,40
0,55,88,38
0,69,76,2
0,72,93,2
0,67,82,40
0,58,88,38
0,70,88,2
0,70,93,2
0,62,86,40
0,62,88,38
0,67,79,2
0,70,88,40
0,67,88,38
0,67,80,2
0,62,92,40
0,62,88,38
0,67,79,2
0,69,86,40
0,31,84,12
0,31,100,0
0,57,88,2
0,70,88,2
0,72,101,8
0,62,79,32
0,55,88,38
0,70,88,2
0,70,92,2
0,67,82,40
0,55,85,6
0,58,85,0
0,63,85,0
0,39,84,2
0,39,100,0
0,51,88,2
0,67,88,2
0,79,101,8
0,58,86,40
0,55,88,38
0,63,75,2
0,67,86,40
0,58,88,38
0,58,82,2
0,63,77,40
0,63,88,38
0,65,78,2
0,63,76,40
0,67,88,38
0,67,84,2
0,58,82,40
0,77,99,28
0,63,88,10
0,63,76,2
0,65,80,40
0,39,84,36
0,39,100,0
0,58,88,2
0,67,90,2
0,65,78,24
0,75,96,10
0,55,88,38
0,63,79,2
0,58,84,20
0,53,85,6
0,58,85,0
0,62,85,0
0,77,97,2
0,34,84,2
0,34,100,0
0,53,88,2
0,65,75,2
0,70,80,40
0,53,88,38
0,72,76,2
0,70,72,40
0,58,88,38
0,72,84,2
0,70,70,40
0,62,88,38
0,65,70,2
0,58,74,40
0,65,88,38
0,72,83,2
0,70,75,40
0,62,88,38
0,65,73,2
0,75,97,6
0,58,76,18
0,34,84,36
0,34,100,0
0,58,88,2
0,65,75,2
0,58,82,40
0,77,99,10
0,53,88,38
0,70,82,2
0,65,73,4
0,56,95,6
0,60,95,0
0,63,95,0
0,35,108,6
0,42,70,0
0,32,86,4
0,32,102,0
0,42,54,172
0,75,103,2
0,74,97,2
0,35,94,38
0,38,102,0
0,42,68,0
0,44,84,6
0,44,100,0
0,63,81,2
0,63,110,0
0,68,81,0
0,68,110,0
0,72,81,0
0,72,114,0
0,72,94,2
0,42,56,90
0,35,108,58
0,42,72,0
0,32,86,6
0,32,102,0
0,63,81,2
0,63,105,0
0,68,81,0
0,68,105,0
0,72,81,0
0,72,112,0
0,42,53,42
0,32,84,6
0,32,100,0
0,63,81,2
0,63,105,0
0,67,81,0
0,67,107,0
0,70,81,0
0,70,105,0
0,35,94,54
0,38,102,0
0,42,73,0
0,44,84,6
0,44,100,0
0,63,81,2
0,63,107,0
0,67,81,0
0,67,107,0
0,70,81,0
0,70,107,0
0,42,57,56
0,63,81,8
0,63,105,0
0,67,81,0
0,67,105,0
0,70,81,0
0,70,107,0
0,35,108,60
0,42,77,0
0,32,84,6
0,32,100,0
0,42,57,66
0,63,81,8
0,63,110,0
0,68,81,0
0,68,112,0
0,72,81,0
0,72,112,0
0,35,94,72
0,38,102,0
0,42,73,0
0,44,84,6
0,44,100,0
0,63,81,2
0,63,112,0
0,68,81,0
0,68,114,0
0,72,81,0
0,72,112,0
0,42,57,90
0,35,108,68
0,42,75,0
0,32,84,6
0,32,100,0
0,42,53,92
0,32,84,6
0,32,100,0
0,35,94,80
0,38,102,0
0,42,73,0
0,44,84,6
0,44,100,0
0,42,57,172
0,55,95,16
0,58,95,0
0,63,95,0
0,35,108,22
0,42,77,0
0,29,86,6
0,29,102,0
0,42,57,172
0,35,94,50
0,38,102,0
0,42,73,0
0,41,84,6
0,41,100,0
0,63,107,2
0,67,81,0
0,67,112,0
0,70,81,0
0,70,112,0
0,75,81,0
0,42,57,90
0,48,67,0
0,35,108,58
0,42,75,0
0,48,71,0
0,29,86,6
0,29,102,0
0,63,105,2
0,67,81,0
0,67,99,0
0,70,81,0
0,70,101,0
0,75,81,0
0,42,53,42
0,48,76,0
0,29,84,6
0,29,100,0
0,63,105,2
0,67,81,0
0,67,105,0
0,70,81,0
0,70,101,0
0,75,81,0
0,35,94,54
0,38,102,0
0,42,73,0
0,48,78,0
0,41,84,6
0,41,100,0
0,55,95,6
0,58,95,0
0,63,95,0
0,42,57,22
0,48,82,0
0,63,107,8
0,67,81,0
0,67,105,0
0,70,81,0
0,70,105,0
0,75,81,0
0,35,108,68
0,42,77,0
0,48,89,0
0,29,86,6
0,29,102,0
0,57,95,6
0,60,95,0
0,65,95,0
0,42,57,22
0,45,83,0
0,65,101,8
0,69,81,0
0,69,105,0
0,72,81,0
0,72,112,0
0,77,81,0
0,57,95,6
0,60,95,0
0,65,95,0
0,35,94,22
0,38,102,0
0,42,73,0
0,45,85,0
0,41,84,6
0,41,100,0
0,65,105,2
0,69,81,0
0,69,105,0
0,72,81,0
0,72,105,0
0,77,81,0
0,42,57,90
0,45,87,0
0,55,95,6
0,58,95,0
0,63,95,0
0,35,108,22
0,42,75,0
0,45,89,0
0,29,86,6
0,29,102,0
0,63,110,2
0,67,81,0
0,67,103,0
0,70,81,0
0,70,107,0
0,75,81,0
0,57,95,4
0,60,95,0
0,65,95,0
0,70,103,2
0,42,53,0
0,45,94,0
0,29,84,6
0,29,100,0
0,65,95,2
0,69,81,0
0,69,103,0
0,72,81,0
0,72,97,0
0,77,81,0
0,57,95,6
0,60,95,0
0,65,95,0
0,35,94,22
0,38,102,0
0,42,73,0
0,45,97,0
0,41,84,6
0,41,100,0
0,65,103,2
0,69,81,0
0,69,101,0
0,72,81,0
0,72,101,0
0,77,81,0
0,72,103,0
0,42,57,90
0,45,103,0
0,53,85,6
0,58,85,0
0,62,85,0
0,35,108,22
0,42,77,0
0,49,78,0
0,74,101,6
0,34,84,0
0,34,100,0
0,58,86,2
0,58,90,2
0,65,90,0
0,70,90,0
0,74,92,0
0,42,57,72
0,58,86,8
0,35,94,62
0,38,102,0
0,42,73,0
0,60,86,8
0,65,88,2
0,65,86,0
0,70,86,0
0,74,86,0
0,42,57,34
0,34,84,6
0,34,100,0
0,62,86,2
0,77,101,2
0,35,108,70
0,42,75,0
0,34,84,6
0,34,100,0
0,65,86,2
0,42,53,72
0,62,86,8
0,65,96,2
0,65,86,0
0,70,86,0
0,74,86,0
0,35,94,26
0,38,102,0
0,42,73,0
0,72,99,6
0,26,84,0
0,26,100,0
0,60,86,2
0,70,92,2
0,42,57,72
0,70,94,2
0,27,84,0
0,27,100,0
0,58,86,2
0,74,90,2
0,53,85,6
0,57,85,0
0,60,85,0
0,35,108,22
0,42,77,0
0,72,101,2
0,29,84,0
0,29,100,0
0,53,86,2
0,53,96,2
0,65,92,0
0,69,101,0
0,72,98,0
0,42,57,72
0,53,86,8
0,35,94,56
0,38,102,0
0,42,73,0
0,65,96,2
0,57,86,2
0,65,86,2
0,69,90,0
0,69,86,0
0,72,86,0
0,42,57,34
0,29,84,6
0,29,100,0
0,60,86,2
0,77,103,2
0,35,108,72
0,42,75,0
0,29,84,6
0,29,100,0
0,65,86,2
0,42,53,72
0,60,86,8
0,65,88,2
0,65,86,0
0,69,86,0
0,72,86,0
0,35,94,34
0,38,102,0
0,42,73,0
0,72,99,6
0,33,84,0
0,33,100,0
0,57,86,2
0,69,86,2
0,42,57,72
0,74,99,2
0,34,84,0
0,34,100,0
0,53,86,2
0,72,90,2
0,55,85,2
0,60,85,0
0,63,85,0
0,35,108,14
0,42,77,0
0,75,100,2
0,36,84,0
0,36,100,0
0,55,86,2
0,60,94,2
0,67,90,0
0,72,94,0
0,75,90,0
0,42,57,52
0,55,86,8
0,35,94,72
0,38,102,0
0,42,73,0
0,60,86,8
0,67,86,2
0,72,86,0
0,75,86,0
0,42,57,34
0,36,84,6
0,36,100,0
0,63,86,2
0,67,96,2
0,72,98,0
0,75,92,0
0,35,108,70
0,42,75,0
0,36,84,6
0,36,100,0
0,67,86,2
0,42,53,52
0,63,86,8
0,67,92,2
0,67,86,0
0,72,86,0
0,75,86,0
0,35,94,34
0,38,102,0
0,42,73,0
0,74,97,6
0,27,84,0
0,27,100,0
0,60,86,2
0,72,92,2
0,42,57,40
0,72,99,2
0,29,84,0
0,29,100,0
0,55,86,2
0,75,94,2
0,55,85,6
0,58,85,0
0,62,85,0
0,35,108,22
0,42,77,0
0,72,99,2
0,31,84,0
0,31,100,0
0,55,86,2
0,55,90,2
0,67,90,0
0,70,90,0
0,74,96,0
0,42,57,2
0,55,86,8
0,35,94,6
0,38,102,0
0,42,73,0
0,70,92,6
0,58,86,2
0,67,86,2
0,70,86,0
0,74,86,0
0,42,57,34
0,31,84,6
0,31,100,0
0,62,86,2
0,67,88,2
0,35,108,72
0,42,75,0
0,31,84,6
0,31,100,0
0,67,86,2
0,79,98,2
0,42,53,72
0,62,86,8
0,67,90,0
0,67,86,0
0,70,86,0
0,74,86,0
0,35,94,34
0,38,102,0
0,42,73,0
0,72,98,6
0,31,84,0
0,31,100,0
0,57,86,2
0,70,90,2
0,42,57,46
0,70,98,2
0,29,84,0
0,29,100,0
0,55,86,2
0,74,88,2
0,55,85,4
