track,note,velocity,time
1,70,115,1020
1,70,0,30
1,70,115,0
1,70,0,30
1,70,115,0
1,70,0,90
1,69,115,0
1,69,0,30
1,69,115,0
1,69,0,60
1,67,115,0
1,67,0,30
1,67,115,0
1,67,115,30
1,67,0,0
1,67,0,120
1,69,115,30
1,69,0,30
1,69,115,0
1,69,0,30
1,70,115,0
1,70,0,30
1,69,115,0
1,69,0,90
1,67,115,0
1,67,0,30
1,67,115,0
1,67,0,30
1,65,115,0
1,65,0,90
1,67,115,180
1,67,0,30
1,67,115,0
1,67,0,30
1,67,115,0
1,67,0,60
1,65,115,0
1,65,0,30
1,65,115,0
1,65,115,30
1,65,0,0
1,65,0,60
1,67,115,0
1,67,0,60
1,62,115,0
1,62,0,60
1,58,115,0
1,58,0,30
1,60,115,0
1,60,115,30
1,60,0,0
1,60,0,120
1,58,115,390
1,58,0,30
1,70,115,0
1,70,0,30
1,70,115,0
1,70,0,30
1,70,115,0
1,70,0,60
1,69,115,0
1,69,0,30
1,69,115,0
1,69,115,30
1,69,0,0
1,69,0,60
1,67,115,0
1,67,0,30
1,67,115,0
1,67,115,30
1,67,0,0
1,67,0,30
1,67,115,0
1,67,0,30
1,67,115,0
1,67,0,60
1,69,115,0
1,69,0,90
1,70,115,0
1,70,0,30
1,69,115,0
1,69,115,30
1,69,0,0
1,69,0,60
1,67,115,0
1,67,0,30
1,67,115,0
1,67,0,30
1,65,115,0
1,65,0,120
1,65,115,60
1,65,0,30
1,67,115,0
1,67,0,30
1,67,115,0
1,67,0,90
1,69,115,0
1,69,0,60
1,70,115,0
1,70,0,30
1,69,115,0
1,69,115,30
1,69,0,0
1,69,115,0
1,69,0,0
1,73,115,30
1,69,0,30
1,73,0,60
1,74,115,30
1,74,0,30
1,76,115,0
1,76,0,30
1,74,115,0
1,74,115,30
1,74,0,0
1,74,0,480
1,74,115,0
1,74,115,120
1,74,0,0
1,74,0,60
1,72,115,0
1,72,0,30
1,75,115,0
1,75,115,30
1,75,0,0
1,75,0,120
1,74,115,90
1,74,0,30
1,81,115,0
1,81,0,60
1,78,115,0
1,78,0,30
1,74,115,0
1,74,115,30
1,74,0,0
1,74,0,60
1,72,115,0
1,72,0,30
1,72,115,0
1,72,0,30
1,70,115,0
1,70,0,120
1,79,115,120
1,79,0,60
1,75,115,0
1,75,0,60
1,72,115,0
1,72,0,60
1,70,115,0
1,70,0,60
1,69,115,0
1,69,0,120
1,67,115,0
1,67,0,60
1,67,115,0
1,67,115,60
1,67,0,0
1,67,0,60
1,65,115,0
1,65,0,180
1,74,115,240
1,74,115,120
1,74,0,0
1,74,0,60
1,72,115,0
1,72,0,30
1,75,115,0
1,75,115,30
1,75,0,0
1,75,0,120
1,74,115,90
1,74,0,30
1,81,115,0
1,81,0,60
1,78,115,0
1,78,0,30
1,74,115,0
1,74,115,30
1,74,0,0
1,74,0,60
1,72,115,0
1,72,0,30
1,72,115,0
1,72,115,30
1,72,0,0
1,72,0,60
1,70,115,0
1,70,0,120
1,74,115,30
1,74,0,30
1,79,115,0
1,79,0,60
1,75,115,0
1,75,0,60
1,72,115,0
1,72,0,60
1,70,115,0
1,70,0,60
1,69,115,0
1,69,0,120
1,72,115,0
1,72,0,60
1,72,115,0
1,72,115,60
1,72,0,0
1,72,0,60
1,70,115,0
1,70,0,180
1,70,115,300
1,70,0,30
1,70,115,0
1,70,0,30
1,70,115,0
1,70,0,30
1,69,115,0
1,69,0,90
1,69,115,0
1,69,0,60
1,67,115,0
1,67,0,30
1,67,115,0
1,67,115,30
1,67,0,0
1,67,0,120
1,69,115,30
1,69,0,30
1,69,115,0
1,69,0,60
1,70,115,0
1,70,0,60
1,69,115,0
1,69,0,30
1,67,115,0
1,67,0,30
1,67,115,0
1,67,0,30
1,65,115,0
1,65,0,90
1,67,115,180
1,67,0,30
1,67,115,0
1,67,0,30
1,67,115,0
1,67,0,60
1,65,115,0
1,65,0,30
1,65,115,0
1,65,115,30
1,65,0,0
1,65,0,60
1,67,115,0
1,67,0,60
1,58,115,0
1,58,0,30
1,58,115,0
1,58,0,60
1,60,115,0
1,60,115,30
1,60,0,0
1,60,0,120
1,58,115,390
1,58,0,30
1,70,115,0
1,70,0,30
1,70,115,0
1,70,115,30
1,70,0,0
1,70,0,30
1,70,115,0
1,70,0,60
1,69,115,0
1,69,115,30
1,69,0,0
1,69,0,30
1,69,115,0
1,69,0,30
1,67,115,0
1,67,0,30
1,67,115,0
1,67,115,30
1,67,0,0
1,67,0,60
1,67,115,30
1,67,0,30
1,69,115,0
1,69,0,90
1,70,115,0
1,70,0,30
1,69,115,0
1,69,0,30
1,69,115,0
1,69,0,30
1,67,115,0
1,67,0,30
1,67,115,0
1,67,0,30
1,67,115,0
1,67,0,30
1,65,115,0
1,65,0,120
1,65,115,60
1,65,0,30
1,67,115,0
1,67,0,30
1,67,115,0
1,67,0,60
1,69,115,0
1,69,115,30
1,69,0,0
1,69,0,60
1,70,115,0
1,70,0,60
1,69,115,0
1,69,0,60
1,73,115,0
1,73,0,30
1,74,115,0
1,74,115,30
1,74,0,0
1,74,0,60
1,76,115,0
1,76,0,30
1,74,115,0
1,74,115,30
1,74,0,0
1,74,0,480
1,74,115,0
1,74,115,120
1,74,0,0
1,74,0,60
1,72,115,0
1,72,0,30
1,75,115,0
1,75,115,30
1,75,0,0
1,75,0,120
1,74,115,90
1,74,0,30
1,81,115,0
1,81,0,60
1,78,115,0
1,78,0,30
1,74,115,0
1,74,115,30
1,74,0,0
1,74,0,60
1,72,115,0
1,72,0,30
1,72,115,0
1,72,0,30
1,70,115,0
1,70,0,120
1,79,115,120
1,79,0,60
1,75,115,0
1,75,0,60
1,72,115,0
1,72,0,60
1,70,115,0
1,70,0,60
1,69,115,0
1,69,0,120
1,67,115,0
1,67,0,60
1,67,115,0
1,67,115,60
1,67,0,0
1,67,0,60
1,65,115,0
1,65,0,180
1,74,115,240
1,74,115,120
1,74,0,0
1,74,0,60
1,72,115,0
1,72,0,30
1,75,115,0
1,75,115,30
1,75,0,0
1,75,0,120
1,74,115,90
1,74,0,30
1,81,115,0
1,81,0,60
1,78,115,0
1,78,0,30
1,74,115,0
1,74,115,30
1,74,0,0
1,74,0,60
1,72,115,0
1,72,0,30
1,72,115,0
1,72,115,30
1,72,0,0
1,72,0,60
1,70,115,0
1,70,0,120
1,74,115,30
1,74,0,30
1,79,115,0
1,79,0,60
1,75,115,0
1,75,0,60
1,72,115,0
1,72,0,60
1,70,115,0
1,70,0,60
1,69,115,0
1,69,0,120
1,72,115,0
1,72,0,60
1,72,115,0
1,72,115,60
1,72,0,0
1,72,0,60
1,70,115,0
1,70,0,180
1,74,127,780
1,74,0,30
1,74,127,0
1,74,0,30
1,74,127,0
1,74,0,60
1,74,127,0
1,74,0,30
1,75,127,0
1,75,127,30
1,75,0,0
1,75,0,60
1,74,127,0
1,74,0,180
1,74,127,60
1,74,0,30
1,74,127,0
1,74,0,30
1,74,127,0
1,74,0,60
1,74,127,0
1,74,0,30
1,74,127,0
1,74,127,30
1,74,0,0
1,74,0,120
1,74,127,180
1,74,0,30
1,74,127,0
1,74,0,30
1,74,127,0
1,74,0,90
1,74,127,0
1,74,0,30
1,75,127,0
1,75,0,30
1,74,127,0
1,74,0,30
1,74,127,0
1,74,127,60
1,74,0,0
1,74,0,60
1,79,127,0
1,79,0,60
1,74,127,0
1,74,0,90
1,72,127,0
1,72,0,30
1,72,127,0
1,72,0,30
1,72,127,0
1,72,0,30
1,72,127,0
1,72,0,30
1,70,127,0
1,70,0,30
1,67,127,0
1,67,0,120
1,72,127,180
1,72,0,30
1,72,127,0
1,72,0,30
1,72,127,0
1,72,0,60
1,72,127,0
1,72,0,60
1,74,127,0
1,74,0,60
1,72,127,0
1,72,0,30
1,72,127,0
1,72,127,30
1,72,0,0
1,72,0,60
1,72,127,0
1,72,0,60
1,72,127,0
1,72,0,60
1,70,127,0
1,70,0,30
1,70,127,0
1,70,127,30
1,70,0,0
1,70,0,60
1,70,127,0
1,70,0,30
1,70,127,0
1,70,127,30
1,70,0,0
1,70,0,120
1,69,127,0
1,69,0,60
1,67,127,0
1,67,127,60
1,67,0,0
1,67,0,240
1,65,127,180
1,65,0,60
1,74,127,0
1,74,0,180
1,75,127,0
1,75,0,60
1,74,127,0
1,74,0,120
1,72,127,0
1,72,0,60
1,70,127,0
1,70,127,60
1,70,0,0
1,70,0,240
1,70,115,300
1,70,0,30
1,70,115,0
1,70,115,30
1,70,0,0
1,70,0,40
1,70,115,0
1,70,0,40
1,69,115,0
1,69,0,40
1,69,115,0
1,69,0,60
1,67,115,0
1,67,0,30
1,67,115,0
1,67,115,30
1,67,0,0
1,67,0,120
1,69,115,60
1,69,0,60
1,70,115,0
1,70,0,30
1,72,115,0
1,72,0,60
1,67,115,0
1,67,0,30
1,67,115,0
1,67,0,30
1,65,115,0
1,65,0,90
1,67,115,160
1,67,0,40
1,67,115,0
1,67,115,40
1,67,0,0
1,67,0,30
1,67,115,0
1,67,0,60
1,65,115,0
1,65,0,30
1,65,115,0
1,65,0,30
1,65,115,0
1,65,0,90
1,62,115,40
1,62,0,40
1,58,115,0
1,58,0,40
1,60,115,0
1,60,0,240
1,70,115,300
1,70,0,30
1,70,115,0
1,70,115,30
1,70,0,0
1,70,0,30
1,70,115,0
1,70,0,60
1,69,115,0
1,69,115,30
1,69,0,0
1,69,0,30
1,69,115,0
1,69,0,30
1,67,115,0
1,67,0,30
1,67,115,0
1,67,0,60
1,65,115,0
1,65,0,30
1,67,115,0
1,67,0,30
1,69,115,0
1,69,115,30
1,69,0,0
1,69,0,30
1,74,115,0
1,74,0,90
1,69,115,0
1,69,0,30
1,67,115,0
1,67,0,60
1,67,115,0
1,67,0,30
1,65,115,0
1,65,0,120
1,65,115,90
1,65,0,30
1,67,115,0
1,67,0,60
1,67,115,0
1,67,0,30
1,69,115,0
1,69,115,30
1,69,0,0
1,69,0,60
1,70,115,0
1,70,0,30
1,69,115,0
1,69,115,30
1,69,0,0
1,69,0,90
1,73,115,0
1,73,0,30
1,74,115,0
1,74,0,60
1,76,115,0
1,76,0,30
1,76,115,0
1,75,115,30
1,75,0,0
1,76,0,20
1,77,115,0
1,77,0,20
1,76,115,0
1,76,0,20
1,74,115,0
1,74,115,60
1,74,0,0
1,74,0,360
1,74,115,0
1,74,115,120
1,74,0,0
1,74,0,60
1,72,115,0
1,72,0,30
1,75,115,0
1,75,115,30
1,75,0,0
1,75,0,120
1,74,115,90
1,74,0,30
1,81,115,0
1,81,0,60
1,78,115,0
1,78,0,30
1,74,115,0
1,74,115,30
1,74,0,0
1,74,0,60
1,72,115,0
1,72,0,30
1,72,115,0
1,72,0,30
1,70,115,0
1,70,0,120
1,79,115,120
1,79,0,60
1,75,115,0
1,75,0,60
1,72,115,0
1,72,0,60
1,70,115,0
1,70,0,60
1,69,115,0
1,69,0,120
1,67,115,0
1,67,0,60
1,67,115,0
1,67,115,60
1,67,0,0
1,67,0,60
1,65,115,0
1,65,0,180
1,74,115,240
1,74,115,120
1,74,0,0
1,74,0,60
1,72,115,0
1,72,0,30
1,75,115,0
1,75,115,30
1,75,0,0
1,75,0,120
1,74,115,90
1,74,0,30
1,81,115,0
1,81,0,60
1,78,115,0
1,78,0,30
1,74,115,0
1,74,115,30
1,74,0,0
1,74,0,60
1,72,115,0
1,72,0,30
1,72,115,0
1,72,115,30
1,72,0,0
1,72,0,60
1,70,115,0
1,70,0,120
1,74,115,30
1,74,0,30
1,79,115,0
1,79,0,60
1,75,115,0
1,75,0,60
1,72,115,0
1,72,0,60
1,70,115,0
1,70,0,60
1,69,115,0
1,69,0,120
1,72,115,0
1,72,0,60
1,72,115,0
1,72,115,60
1,72,0,0
1,72,0,60
1,70,115,0
1,70,0,180
2,53,103,0
2,53,0,120
2,58,103,0
2,58,0,120
2,58,103,0
2,61,103,0
2,61,0,120
2,58,0,0
2,65,103,0
2,65,0,120
2,65,103,0
2,58,103,0
2,65,103,0
2,61,103,0
2,65,0,60
2,54,103,60
2,61,0,60
2,58,0,0
2,65,0,0
2,66,103,0
2,66,0,60
2,54,0,0
2,63,103,0
2,57,103,0
2,57,0,60
2,55,103,0
2,55,0,60
2,53,103,0
2,63,0,60
2,62,103,0
2,62,0,60
2,53,0,0
2,62,103,0
2,58,103,0
2,53,103,0
2,70,103,60
2,70,0,30
2,70,103,0
2,70,0,30
2,53,0,0
2,58,0,0
2,62,0,0
2,65,103,0
2,62,103,0
2,58,103,0
2,70,103,0
2,70,0,90
2,69,103,0
2,69,0,30
2,58,0,0
2,62,0,0
2,65,0,0
2,69,103,0
2,69,0,60
2,67,103,0
2,67,0,30
2,67,103,0
2,67,103,30
2,67,0,0
2,67,0,120
2,65,103,0
2,60,103,0
2,57,103,0
2,69,103,30
2,69,0,30
2,69,103,0
2,69,0,30
2,70,103,0
2,70,0,30
2,57,0,0
2,60,0,0
2,65,0,0
2,65,103,0
2,60,103,0
2,57,103,0
2,69,103,0
2,69,0,90
2,67,103,0
2,67,0,30
2,57,0,0
2,60,0,0
2,65,0,0
2,60,103,0
2,57,103,0
2,67,103,0
2,67,0,30
2,65,103,0
2,65,0,90
2,57,0,0
2,60,0,0
2,65,103,0
2,60,103,0
2,53,103,0
2,53,0,120
2,60,0,0
2,65,0,0
2,63,103,0
2,58,103,0
2,55,103,0
2,67,103,60
2,67,0,30
2,67,103,0
2,67,0,30
2,55,0,0
2,58,0,0
2,63,0,0
2,63,103,0
2,58,103,0
2,55,103,0
2,67,103,0
2,67,0,60
2,65,103,0
2,65,0,30
2,65,103,0
2,55,0,30
2,58,0,0
2,63,0,0
2,62,103,0
2,58,103,0
2,55,103,0
2,65,103,0
2,65,0,0
2,65,0,60
2,67,103,0
2,67,0,60
2,55,0,0
2,58,0,0
2,62,0,0
2,58,103,0
2,55,103,0
2,62,103,0
2,62,0,60
2,58,103,0
2,58,0,30
2,60,103,0
2,55,0,30
2,58,0,0
2,60,103,0
2,60,0,0
2,60,0,120
2,60,103,0
2,57,103,0
2,64,103,0
2,64,0,120
2,57,0,0
2,60,0,0
2,67,103,0
2,58,103,0
2,63,103,0
2,63,0,120
2,58,0,0
2,67,0,0
2,65,103,0
2,60,103,0
2,57,103,0
2,57,0,60
2,60,0,0
2,65,0,0
2,65,103,0
2,63,103,0
2,60,103,0
2,57,103,0
2,57,0,60
2,60,0,0
2,63,0,0
2,65,0,0
2,65,103,0
2,62,103,0
2,58,103,0
2,58,103,30
2,58,0,30
2,70,103,0
2,70,0,30
2,70,103,0
2,70,0,30
2,58,0,0
2,62,0,0
2,65,0,0
2,65,103,0
2,62,103,0
2,58,103,0
2,70,103,0
2,70,0,60
2,69,103,0
2,69,0,30
2,69,103,0
2,58,0,30
2,62,0,0
2,65,0,0
2,65,103,0
2,60,103,0
2,69,103,0
2,69,0,0
2,69,0,60
2,67,103,0
2,67,0,30
2,67,103,0
2,60,0,30
2,65,0,0
2,64,103,0
2,60,103,0
2,55,103,0
2,67,103,0
2,67,0,0
2,67,0,30
2,67,103,0
2,67,0,30
2,67,103,0
2,67,0,60
2,55,0,0
2,60,0,0
2,64,0,0
2,65,103,0
2,60,103,0
2,69,103,0
2,69,0,90
2,70,103,0
2,70,0,30
2,60,0,0
2,65,0,0
2,64,103,0
2,69,103,0
2,69,103,30
2,69,0,0
2,69,0,60
2,67,103,0
2,67,0,30
2,64,0,0
2,67,103,0
2,62,103,0
2,57,103,0
2,67,0,30
2,65,103,0
2,57,0,90
2,62,0,0
2,53,103,0
2,53,0,30
2,65,0,0
2,57,103,0
2,57,0,30
2,62,103,0
2,62,0,30
2,65,103,0
2,65,0,30
2,58,103,0
2,63,103,0
2,67,103,0
2,67,0,30
2,67,103,0
2,67,0,90
2,63,0,0
2,58,0,0
2,63,103,0
2,58,103,0
2,55,103,0
2,69,103,0
2,69,0,60
2,70,103,0
2,70,0,30
2,69,103,0
