track,note,velocity,time
1,58,70,0
1,65,76,0
1,70,82,382
1,70,74,218
1,64,80,0
1,56,63,0
1,77,93,14
1,77,87,190
1,70,68,0
1,73,85,0
1,54,53,0
1,66,74,160
1,78,80,16
1,75,78,128
1,69,76,0
1,53,68,0
1,67,72,96
1,65,62,0
1,74,95,14
1,70,68,142
1,74,82,0
1,58,72,2
1,65,70,0
1,70,68,200
1,65,72,0
1,74,68,2
1,70,64,194
1,67,68,0
1,51,66,0
1,75,68,0
1,79,80,170
1,70,85,0
1,75,78,0
1,70,82,0
1,69,66,152
1,77,82,0
1,53,74,2
1,72,57,0
1,77,85,178
1,69,66,0
1,72,76,0
1,51,85,112
1,50,85,0
1,77,87,376
1,65,78,0
1,72,82,0
1,77,70,80
1,72,70,0
1,65,60,0
1,75,76,104
1,67,70,0
1,70,72,0
1,51,63,8
1,75,78,160
1,67,63,0
1,70,76,0
1,70,70,128
1,65,72,2
1,74,82,0
1,55,70,0
1,70,68,168
1,65,66,2
1,74,85,0
1,76,74,8
1,67,74,0
1,72,74,0
1,45,64,10
1,57,62,0
1,72,74,90
1,67,74,0
1,76,74,0
1,75,74,80
1,70,74,0
1,79,74,2
1,36,58,0
1,48,60,0
1,69,74,80
1,77,74,2
1,74,74,0
1,41,62,0
1,53,56,0
1,72,74,42
1,67,74,0
1,75,74,0
1,77,74,0
1,65,74,42
1,70,74,2
1,77,74,0
1,74,74,0
1,46,64,0
1,58,35,0
1,70,74,80
1,65,74,0
1,74,74,0
1,77,74,0
1,67,74,80
1,72,74,0
1,74,74,2
1,77,74,0
1,36,50,0
1,48,50,0
1,72,74,80
1,67,74,0
1,76,74,2
1,81,74,80
1,69,74,2
1,72,74,0
1,77,74,0
1,48,69,0
1,60,60,0
1,76,74,80
1,67,74,0
1,73,74,0
1,79,74,2
1,49,62,0
1,61,60,0
1,50,67,70
1,62,52,0
1,74,74,12
1,69,74,0
1,77,74,0
1,65,74,82
1,69,74,10
1,74,74,26
1,77,74,26
1,67,74,26
1,70,74,2
1,75,74,0
1,39,67,0
1,51,62,0
1,67,74,48
1,70,74,0
1,75,74,0
1,76,74,80
1,71,74,0
1,73,74,0
1,79,74,2
1,45,69,0
1,57,67,0
1,71,74,24
1,73,74,0
1,79,74,2
1,76,74,0
1,72,74,72
1,67,74,0
1,79,74,4
1,38,52,0
1,50,62,0
1,74,74,4
1,79,74,46
1,74,74,0
1,67,74,2
1,72,74,0
1,78,74,82
1,72,74,0
1,66,74,0
1,74,74,0
1,38,69,0
1,50,67,0
1,67,74,78
1,72,74,0
1,74,74,2
1,79,74,0
1,81,74,42
1,74,74,0
1,72,74,0
1,69,74,0
1,79,74,2
1,74,74,0
1,67,74,4
1,70,74,0
1,51,72,0
1,39,76,0
1,70,74,88
1,67,74,0
1,74,74,0
1,79,74,0
1,75,74,82
1,69,74,0
1,72,74,0
1,79,74,0
1,41,72,0
1,53,74,0
1,75,74,72
1,72,74,0
1,69,74,0
1,79,74,2
1,81,74,82
1,69,74,0
1,74,74,0
1,78,74,0
1,42,78,0
1,54,66,0
1,81,74,80
1,78,74,0
1,69,74,0
1,74,74,2
1,70,74,80
1,74,74,2
1,67,74,0
1,79,74,0
1,55,66,0
1,43,63,0
1,72,74,78
1,79,74,0
1,69,74,2
1,41,62,0
1,53,72,0
1,74,74,8
1,72,74,26
1,69,74,0
1,79,74,0
1,39,68,34
1,51,64,0
1,79,74,0
1,75,74,4
1,70,74,0
1,67,74,0
1,70,74,48
1,75,74,0
1,67,74,0
1,79,74,0
1,69,74,82
1,72,74,0
1,77,74,0
1,41,74,0
1,53,72,0
1,70,74,82
1,67,74,0
1,75,74,0
1,41,78,0
1,70,74,82
1,65,74,4
1,74,74,0
1,46,80,0
1,65,54,40
1,70,64,26
1,72,74,26
1,74,84,26
1,38,66,28
1,50,66,0
1,66,74,96
1,72,74,0
1,78,74,0
1,74,74,0
1,72,74,44
1,74,74,0
1,79,74,0
1,67,74,0
1,74,74,42
1,81,74,0
1,72,74,0
1,69,74,0
1,70,74,44
1,74,74,0
1,67,74,0
1,79,74,0
1,39,70,0
1,51,68,0
1,74,74,60
1,70,74,0
1,79,74,0
1,67,74,0
1,72,74,88
1,75,74,2
1,69,74,0
1,79,74,0
1,41,74,0
1,53,74,0
1,69,74,74
1,72,74,0
1,75,74,2
1,79,74,0
1,69,74,82
1,81,74,0
1,78,74,0
1,74,74,0
1,42,85,0
1,54,62,0
1,78,74,80
1,69,74,0
1,74,74,2
1,81,74,0
1,70,74,82
1,74,74,0
1,67,74,0
1,79,74,0
1,43,70,0
1,55,70,0
1,79,74,82
1,72,74,0
1,69,74,0
1,53,66,0
1,41,72,0
1,74,74,10
1,72,74,26
1,79,74,0
1,69,74,0
1,70,74,44
1,75,74,0
1,67,74,0
1,79,74,0
1,39,70,0
1,51,66,0
1,67,74,14
1,70,74,0
1,75,74,2
1,79,74,0
1,69,74,82
1,72,74,0
1,77,74,0
1,41,85,0
1,53,82,0
1,70,74,82
1,67,74,0
1,75,74,0
1,41,78,0
1,65,74,42
1,70,74,0
1,75,74,0
1,46,76,0
1,74,74,8
1,70,74,2
1,67,74,0
1,75,74,0
1,53,91,0
1,74,74,26
1,72,74,26
1,67,74,0
1,41,74,0
1,70,68,44
1,74,82,0
1,58,72,0
1,65,70,0
1,70,68,202
1,65,72,0
1,74,68,0
1,70,64,194
1,67,68,0
1,51,66,0
1,75,68,0
1,79,80,170
1,70,85,0
1,75,78,0
1,70,82,94
1,69,66,154
1,77,82,0
1,53,74,0
1,72,57,0
1,77,85,176
1,69,66,0
1,72,76,2
1,51,85,112
1,50,85,2
1,77,87,376
1,65,78,0
1,72,82,2
1,77,70,82
1,72,70,0
1,65,60,0
1,75,76,104
1,67,70,0
1,70,72,0
1,51,63,8
1,75,78,160
1,67,63,2
1,70,76,0
1,70,70,130
1,65,72,0
1,74,82,0
1,55,70,0
1,70,68,170
1,65,66,0
1,74,85,0
1,76,74,8
1,67,74,0
1,72,74,0
1,45,64,10
1,57,62,0
1,72,74,90
1,67,74,0
1,76,74,0
1,75,74,80
1,70,74,2
1,79,74,0
1,36,58,0
1,48,60,0
1,69,74,82
1,77,74,0
1,74,74,0
1,41,62,0
1,53,56,0
1,72,74,46
1,67,74,0
1,75,74,0
1,77,74,0
1,65,74,46
1,70,74,2
1,77,74,0
1,74,74,0
1,46,64,0
1,58,35,0
1,70,74,80
1,65,74,0
1,74,74,2
1,77,74,0
1,67,74,82
1,72,74,0
1,74,74,0
1,77,74,0
1,36,50,0
1,48,50,0
1,72,74,80
1,67,74,0
1,76,74,2
1,81,74,82
1,69,74,0
1,72,74,0
1,77,74,0
1,48,69,0
1,60,60,0
1,76,74,82
1,67,74,0
1,73,74,0
1,79,74,0
1,49,62,0
1,61,60,0
1,50,67,66
1,62,52,0
1,74,74,14
1,69,74,2
1,77,74,0
1,65,74,82
1,69,74,14
1,74,74,30
1,77,74,26
1,67,74,28
1,70,74,0
1,75,74,0
1,39,67,0
1,51,62,0
1,67,74,48
1,70,74,0
1,75,74,2
1,67,74,82
1,71,74,0
1,73,74,0
1,76,74,0
1,45,69,0
1,57,67,0
1,71,74,24
1,67,74,2
1,76,74,0
1,72,74,72
1,67,74,0
1,79,74,0
1,38,52,0
1,50,62,4
1,74,74,10
1,79,74,48
1,74,74,0
1,67,74,0
1,72,74,0
1,78,74,82
1,72,74,0
1,66,74,0
1,74,74,0
1,38,69,0
1,50,67,0
1,67,74,78
1,72,74,0
1,74,74,0
1,79,74,0
1,81,74,42
1,74,74,0
1,72,74,0
1,69,74,0
1,39,76,2
1,70,74,0
1,51,72,0
1,67,74,0
1,74,74,4
1,79,74,0
1,70,74,90
1,67,74,0
1,74,74,0
1,79,74,0
1,75,74,82
1,69,74,0
1,72,74,0
1,79,74,0
1,41,72,0
1,53,74,0
1,75,74,74
1,69,74,0
1,79,74,0
1,72,74,182
1,81,74,82
1,69,74,0
1,74,74,0
1,78,74,0
1,42,78,0
1,54,66,0
1,81,74,82
1,78,74,0
1,69,74,0
1,74,74,0
1,70,74,82
1,74,74,0
1,67,74,0
1,79,74,0
1,55,66,0
1,43,63,0
1,72,74,80
1,79,74,0
1,69,74,0
1,41,62,0
1,53,72,0
1,74,74,8
1,72,74,26
1,69,74,0
1,79,74,0
1,39,68,34
1,51,64,0
1,79,74,0
1,75,74,4
1,70,74,0
1,67,74,0
1,70,74,48
1,75,74,0
1,67,74,0
1,79,74,0
1,69,74,80
1,72,74,2
1,77,74,0
1,41,74,0
1,53,72,0
1,70,74,82
1,67,74,0
1,75,74,0
1,41,78,0
1,70,74,82
1,65,74,0
1,74,74,0
1,46,80,0
1,65,54,46
1,70,64,28
1,72,74,26
1,74,84,28
1,38,66,28
1,50,66,0
1,66,74,96
1,72,74,0
1,78,74,0
1,74,74,0
1,72,74,44
1,74,74,0
1,79,74,0
1,67,74,0
1,74,74,42
1,81,74,0
1,72,74,0
1,69,74,0
1,70,74,44
1,74,74,0
1,67,74,0
1,79,74,0
1,39,70,0
1,51,68,0
1,74,74,60
1,70,74,0
1,79,74,0
1,67,74,0
1,72,74,90
1,75,74,0
1,69,74,0
1,79,74,0
1,41,74,0
1,53,74,0
1,69,74,76
1,72,74,0
1,75,74,0
1,79,74,0
1,69,74,82
1,81,74,0
1,78,74,0
1,74,74,0
1,42,85,0
1,54,62,0
1,78,74,82
1,69,74,0
1,74,74,0
1,81,74,0
1,70,74,82
1,74,74,0
1,67,74,0
1,79,74,0
1,43,70,0
1,55,70,0
1,79,74,82
1,72,74,0
1,69,74,0
1,53,66,0
1,41,72,0
1,74,74,10
1,72,74,28
1,79,74,0
1,69,74,0
1,39,78,34
1,51,74,0
1,70,74,10
1,67,74,0
1,75,74,4
1,79,74,2
1,67,74,84
1,70,74,0
1,75,74,0
1,79,74,2
1,69,74,80
1,41,74,0
1,53,68,0
1,72,74,0
1,77,74,0
1,41,82,80
1,67,74,0
1,70,74,0
1,75,74,0
1,67,74,42
1,46,98,0
1,70,74,0
1,75,74,0
1,70,74,80
1,65,74,0
1,74,74,0
1,70,74,46
1,65,74,46
1,68,74,48
1,73,74,0
1,56,74,0
1,56,91,2
1,70,60,188
1,77,91,10
1,70,82,192
1,54,56,150
1,42,51,0
1,77,74,0
1,73,76,0
1,70,66,0
1,66,68,0
1,70,82,176
1,78,80,8
1,41,70,160
1,69,82,0
1,75,76,0
1,53,59,0
1,67,74,0
1,65,85,32
1,74,82,16
1,74,114,72
1,70,114,0
1,55,102,0
1,43,80,0
1,67,114,0
1,63,64,238
1,67,74,26
1,70,84,26
1,74,94,26
1,74,114,18
1,66,114,0
1,72,114,0
1,69,114,0
1,43,98,4
1,55,100,0
1,81,64,184
1,78,84,26
1,74,94,42
1,69,114,26
1,74,114,34
1,65,114,0
1,68,114,0
1,53,100,4
1,41,89,0
1,72,114,0
1,72,114,310
1,74,114,0
1,67,114,4
1,64,114,0
1,52,93,0
1,40,91,0
1,64,74,362
1,64,84,26
1,67,84,48
1,74,74,26
1,63,74,2
1,67,74,0
1,72,74,0
1,39,82,4
1,51,85,0
1,63,74,90
1,72,74,2
1,67,74,0
1,65,74,82
1,69,74,0
1,74,74,0
1,41,76,0
1,53,85,0
1,67,84,78
1,72,84,2
1,63,84,0
1,58,82,0
1,46,85,0
1,70,84,0
1,75,84,0
1,67,84,0
1,70,84,30
1,75,84,2
1,67,84,0
1,58,70,190
1,46,85,0
1,65,84,78
1,70,84,2
1,46,91,0
1,58,89,0
1,74,84,0
1,65,84,26
1,70,84,2
1,74,84,0
1,36,82,82
1,48,82,0
1,74,84,0
1,70,84,0
1,77,84,0
1,67,84,0
1,77,84,24
1,70,84,2
1,67,84,0
1,74,84,0
1,67,84,80
1,72,84,0
1,36,93,0
1,48,89,0
1,76,84,4
1,72,84,82
1,67,84,0
1,76,84,0
1,69,84,82
1,65,84,0
1,74,84,0
1,41,82,0
1,53,89,0
1,65,84,78
1,75,84,42
1,69,84,44
1,66,84,0
1,74,84,0
1,42,80,0
1,54,64,0
1,38,80,266
1,50,78,0
1,63,84,2
1,70,84,0
1,67,84,4
1,51,82,0
1,39,68,0
1,53,98,214
1,70,84,16
1,67,84,0
1,75,84,2
1,74,84,26
1,41,85,0
1,70,84,16
1,67,84,0
1,72,84,2
1,74,84,16
1,65,84,0
1,70,84,0
1,46,105,4
1,70,84,90
1,65,84,0
1,74,84,0
1,39,82,82
1,51,72,0
1,70,84,4
1,75,84,0
1,67,84,0
1,70,84,58
1,67,84,0
1,75,84,0
1,72,84,82
1,53,82,0
1,41,80,0
1,69,84,0
1,77,84,0
1,72,84,80
1,51,68,0
1,39,76,0
1,69,84,0
1,77,84,0
1,72,84,82
1,38,85,0
1,50,78,0
1,69,84,0
1,77,84,0
1,69,84,80
1,77,84,0
1,74,84,2
1,65,84,42
1,39,70,44
1,51,68,0
1,75,84,0
1,67,84,0
1,70,84,0
1,70,84,80
1,75,84,0
1,67,84,2
1,43,76,82
1,55,70,0
1,70,84,0
1,74,84,0
1,65,84,0
1,70,84,80
1,65,84,2
1,74,84,0
1,76,84,80
1,45,85,0
1,57,80,0
1,72,84,0
1,67,84,0
1,67,84,80
1,72,84,0
1,76,84,4
1,67,84,44
1,75,84,42
1,70,84,2
1,36,80,0
1,48,78,0
1,79,84,0
1,70,84,40
1,53,80,42
1,41,82,0
1,74,84,0
1,69,84,0
1,77,84,0
1,77,84,42
1,75,84,0
1,67,84,0
1,72,84,0
1,70,84,40
1,46,85,2
1,65,84,0
1,74,84,0
1,70,84,80
1,65,84,0
1,74,84,0
1,36,85,80
1,48,74,2
1,74,84,0
1,72,84,4
1,67,84,2
1,77,84,0
1,72,84,80
1,76,84,0
1,67,84,2
1,72,84,82
1,36,74,0
1,48,68,0
1,69,84,0
1,77,84,0
1,76,84,82
1,37,76,0
1,49,63,0
1,67,84,0
1,73,84,0
1,69,84,82
1,38,85,0
1,50,80,0
1,74,84,0
1,65,84,0
1,65,64,80
1,69,74,30
1,74,84,30
1,77,84,30
1,67,84,22
1,75,84,0
1,39,80,0
1,51,66,0
1,70,84,0
1,70,84,88
1,67,84,0
1,75,84,2
1,76,84,80
1,79,84,2
1,45,95,0
1,73,84,0
1,71,84,80
1,76,84,2
1,79,84,0
1,72,84,48
1,79,84,44
1,50,91,0
1,72,84,0
1,74,84,0
1,67,84,0
1,50,93,80
1,72,84,14
1,67,84,0
1,79,84,2
1,74,84,0
1,50,93,190
1,72,84,2
1,78,84,0
1,66,84,0
1,74,84,0
1,50,93,190
1,66,84,48
1,78,84,0
1,72,84,0
1,74,84,0
1,50,87,190
1,38,85,0
1,39,76,70
1,51,72,0
1,70,74,0
1,67,74,0
1,74,74,4
1,79,74,0
1,70,74,90
1,67,74,0
1,74,74,0
1,79,74,0
1,75,74,80
1,69,74,2
1,72,74,0
1,79,74,0
1,41,72,0
1,53,74,0
1,75,74,74
1,69,74,0
1,79,74,0
1,72,74,182
1,81,74,82
1,69,74,0
1,74,74,0
1,78,74,0
1,42,78,0
1,54,66,0
1,81,74,82
1,78,74,0
1,69,74,0
1,74,74,0
1,70,74,82
1,74,74,0
1,67,74,0
1,79,74,0
1,55,66,0
1,43,63,0
1,72,74,80
1,79,74,0
1,69,74,0
1,41,62,0
1,53,72,0
1,74,74,8
1,72,74,26
1,69,74,0
1,79,74,0
1,39,68,34
1,51,64,0
1,79,74,0
1,75,74,0
1,70,74,4
1,67,74,0
1,70,74,48
1,75,74,0
1,67,74,0
1,79,74,0
1,69,74,82
1,72,74,0
1,77,74,0
1,41,74,0
1,53,72,0
1,70,74,82
1,67,74,0
1,75,74,0
1,41,78,0
1,70,74,82
1,65,74,0
1,74,74,0
1,46,80,0
1,65,54,42
1,70,64,26
1,72,74,26
1,74,84,26
1,38,66,26
1,50,66,2
1,66,74,96
1,72,74,0
1,78,74,0
1,74,74,0
1,72,74,44
1,74,74,0
