track,note,velocity,time
1,36,127,2644
1,31,102,28
1,24,105,196
1,36,110,60
1,31,107,220
1,36,107,188
1,31,102,164
1,34,93,156
1,34,105,136
1,29,98,108
1,29,107,108
1,36,98,124
1,31,110,144
1,36,102,180
1,31,95,136
1,34,110,68
1,34,93,100
1,31,107,68
1,33,103,0
1,35,105,0
1,36,110,4
1,31,107,132
1,36,105,116
1,31,95,84
1,34,110,80
1,34,107,92
1,29,110,80
1,29,105,92
1,29,102,92
1,30,116,68
1,31,105,60
1,33,110,48
1,38,95,20
1,31,110,48
1,36,107,44
1,24,107,392
1,31,116,116
1,36,102,28
1,31,107,4
1,29,93,1540
1,28,95,4
1,26,107,220
1,24,119,84
1,36,107,28
1,31,113,264
1,36,98,12
1,29,105,48
1,30,116,32
1,31,113,36
1,33,110,36
1,38,110,104
1,31,118,0
1,36,105,140
1,24,107,384
1,41,107,36
1,40,102,28
1,38,107,20
1,36,102,28
1,34,87,48
1,33,98,4
1,31,116,64
1,36,95,12
1,29,102,20
1,28,89,388
1,26,116,24
1,24,105,16
1,34,107,0
1,36,102,384
1,41,108,12
1,29,105,0
1,36,107,16
1,35,102,24
1,33,105,36
1,31,85,16
1,29,100,48
1,28,113,36
1,26,107,48
1,31,95,400
1,36,89,36
1,35,107,20
1,33,98,16
1,31,105,68
1,29,102,44
1,31,107,24
1,36,91,4
1,24,105,140
1,31,107,36
1,29,122,84
1,28,122,100
1,26,122,88
1,24,110,108
1,31,107,1368
1,29,113,36
1,28,116,84
1,26,110,88
1,24,127,76
1,31,107,1356
1,29,102,20
1,28,113,60
1,26,110,52
1,36,107,368
1,35,110,4
1,34,116,28
1,33,110,44
1,28,107,48
1,29,110,64
1,30,127,52
1,31,127,4
1,33,100,12
1,38,93,64
1,31,105,28
1,36,113,24
1,24,103,0
1,36,81,192
1,31,122,192
1,24,110,12
1,36,93,460
1,31,107,92
1,36,105,140
1,31,98,100
1,34,98,88
1,34,107,72
1,29,105,84
1,29,89,92
1,36,89,108
1,31,87,92
1,36,91,44
1,31,105,92
1,34,107,72
1,34,107,76
1,31,98,44
1,33,103,0
1,35,93,0
1,36,105,4
1,31,107,112
1,36,91,68
1,31,102,60
1,34,113,64
1,34,110,96
1,29,95,56
1,29,85,84
1,29,102,68
1,30,110,68
1,31,102,76
1,33,105,32
1,38,87,16
1,31,107,388
1,36,107,108
1,24,107,4
1,31,68,48
1,31,98,212
1,36,105,184
1,36,91,32
1,31,107,4
1,29,116,108
1,28,122,64
1,26,107,76
1,24,91,76
1,36,116,388
1,31,113,192
1,36,113,28
1,29,98,60
1,30,116,28
1,31,113,40
1,33,110,0
1,38,91,100
1,31,91,0
1,36,105,104
1,24,116,388
1,29,100,144
1,30,127,60
1,31,119,32
1,33,95,0
1,38,87,116
1,31,105,0
1,31,95,36
1,36,105,0
1,24,107,384
2,48,65,2632
2,59,77,212
2,48,63,12
2,48,62,156
2,57,72,0
2,48,64,208
2,53,83,0
2,60,99,332
2,48,67,4
2,48,67,264
2,59,83,4
2,57,85,348
2,48,66,0
2,48,65,328
2,53,79,0
2,48,65,8
2,55,65,132
2,43,67,144
2,55,55,104
2,48,70,164
2,55,63,148
2,43,70,140
2,55,65,148
2,46,62,152
2,53,42,160
2,46,54,148
2,53,45,156
2,41,45,136
2,53,44,144
2,41,47,148
2,53,41,144
2,48,68,152
2,55,71,152
2,43,72,148
2,55,66,152
2,48,74,136
2,55,73,128
2,43,75,128
2,55,82,120
2,46,69,140
2,53,62,148
2,46,63,148
2,53,59,132
2,43,72,144
2,53,62,152
2,45,81,132
2,47,77,124
2,48,77,136
2,55,75,128
2,43,69,144
2,55,63,116
2,48,70,144
2,55,72,148
2,43,74,140
2,55,77,140
2,46,70,144
2,53,47,152
2,46,73,148
2,53,65,120
2,41,81,152
2,53,70,128
2,41,67,144
2,53,70,148
2,53,57,148
2,41,58,0
2,54,86,4
2,42,75,0
2,43,86,0
2,55,84,0
2,45,75,12
2,55,88,0
2,49,69,0
2,54,92,0
2,50,77,4
2,43,67,0
2,53,87,0
2,52,81,28
2,48,72,0
2,48,95,256
2,52,96,0
2,55,57,320
2,57,42,120
2,58,51,132
2,59,71,160
2,60,75,144
2,59,64,180
2,55,50,8
2,60,59,320
2,62,57,132
2,63,64,156
2,64,67,152
2,65,75,148
2,64,63,184
2,65,77,140
2,64,63,0
2,55,39,136
2,57,58,148
2,58,60,140
2,59,73,152
2,60,42,148
2,59,42,4
2,55,45,28
2,53,88,164
2,52,87,8
2,50,85,4
2,48,93,192
2,48,95,84
2,36,104,0
2,55,72,308
2,57,63,112
2,58,71,140
2,59,79,140
2,60,67,124
2,59,56,20
2,55,43,192
2,60,73,248
2,62,68,112
2,63,67,116
2,64,65,136
2,65,62,116
2,64,70,8
2,65,85,152
2,64,82,0
2,53,100,156
2,41,49,0
2,42,88,8
2,54,88,4
2,43,75,52
2,55,89,0
2,45,81,32
2,49,83,4
2,55,100,4
2,49,74,20
2,45,73,0
2,55,97,0
2,50,85,84
2,54,98,0
2,54,97,24
2,50,79,4
2,53,94,0
2,43,85,0
2,48,89,108
2,52,91,0
2,48,89,240
2,52,92,0
2,53,69,272
2,41,60,4
2,52,75,16
2,40,70,0
2,38,49,12
2,50,75,0
2,48,74,4
2,36,74,12
2,34,61,12
2,46,63,0
2,45,52,0
2,33,27,0
2,31,38,20
2,43,66,0
2,36,64,8
2,53,65,360
2,41,60,0
2,52,59,0
2,40,50,4
2,38,63,360
2,50,66,4
2,48,67,28
2,36,36,12
2,58,99,60
2,46,83,0
2,58,99,108
2,46,88,0
2,48,92,120
2,58,98,0
2,53,73,132
2,57,84,0
2,48,40,408
2,60,48,0
2,59,61,20
2,47,46,0
2,57,61,24
2,45,42,0
2,43,44,40
2,55,61,0
2,53,66,4
2,41,62,0
2,52,73,12
2,40,57,4
2,38,59,4
2,50,57,0
2,43,61,0
2,60,73,384
2,48,72,4
2,59,77,356
2,47,58,4
2,57,67,0
2,45,55,4
2,43,57,20
2,55,61,0
2,41,63,24
2,53,66,0
2,41,69,124
2,53,76,4
2,43,62,116
2,53,62,0
2,52,69,136
2,48,66,0
2,55,76,464
2,59,49,108
2,62,55,0
2,53,73,144
2,59,65,112
2,62,58,0
2,52,77,148
2,59,62,116
2,62,50,4
2,50,81,140
2,62,74,128
2,59,73,0
2,60,86,136
2,55,65,0
2,48,75,0
2,52,70,0
2,55,81,1456
2,59,30,120
2,62,65,0
2,53,67,148
2,59,58,132
2,62,65,0
2,52,77,140
2,62,64,120
2,59,73,0
2,50,82,128
2,59,79,132
2,62,77,4
2,55,77,132
2,48,68,0
2,60,87,0
2,52,73,0
2,55,71,1444
2,59,68,112
2,62,75,0
2,53,78,112
2,62,62,124
2,59,73,4
2,52,82,136
2,62,81,124
2,59,74,4
2,50,87,128
2,62,69,136
2,59,84,0
2,58,64,244
2,59,68,32
2,60,96,48
2,59,82,148
2,58,89,20
2,57,78,112
2,45,78,8
2,53,90,384
2,41,65,0
2,54,94,8
2,42,91,0
2,55,84,0
2,43,79,0
2,45,56,4
2,49,60,0
2,55,94,0
2,54,84,0
2,50,71,0
2,53,71,28
2,43,56,4
2,52,72,52
2,48,55,12
2,48,66,584
2,59,73,68
2,48,62,12
2,57,67,20
2,48,67,0
2,53,73,104
2,48,64,4
2,48,71,12
2,60,100,0
2,59,93,12
2,48,75,20
2,57,90,12
2,48,67,0
2,53,84,0
2,48,69,16
2,48,84,240
2,55,75,136
2,43,73,148
2,55,77,164
2,48,85,152
2,55,81,140
2,43,80,132
2,55,77,128
2,46,81,160
2,53,81,140
2,46,64,160
2,53,58,148
2,41,78,152
2,53,59,140
2,41,74,140
2,53,70,152
2,48,78,148
2,55,64,128
2,43,75,148
2,55,58,128
2,48,80,152
2,55,75,144
2,43,77,136
2,55,78,124
2,46,78,144
2,53,79,132
2,46,81,132
2,53,82,132
2,43,74,132
2,53,82,108
2,45,74,144
2,47,73,192
2,48,89,188
2,55,75,124
2,43,67,156
2,55,62,144
2,48,77,152
2,55,68,156
2,43,74,152
2,55,75,128
2,46,74,160
2,53,45,148
2,46,65,160
2,53,65,156
2,41,74,160
2,53,64,152
2,41,65,156
2,53,68,152
2,53,62,156
2,41,58,4
2,42,66,0
2,54,85,0
2,55,86,0
2,43,79,8
2,55,81,0
2,49,81,0
2,45,81,0
2,50,78,0
2,54,78,0
2,53,90,0
2,43,70,0
2,48,87,0
2,52,95,4
2,52,91,320
2,48,82,8
2,55,75,288
2,57,58,136
2,58,56,148
2,59,61,156
2,60,75,144
2,59,64,0
2,55,58,32
2,60,64,332
2,62,59,136
2,63,61,152
2,64,58,164
2,65,81,152
2,64,65,192
2,65,82,144
2,64,72,16
2,55,64,148
2,57,48,120
2,58,55,132
2,59,55,152
2,60,63,156
2,59,73,12
2,55,69,8
2,53,78,144
2,52,75,0
2,50,75,404
2,48,77,96
2,36,99,288
2,48,92,0
2,55,68,312
2,57,57,128
2,58,72,132
2,59,73,136
2,60,60,152
2,59,48,40
2,55,42,192
2,60,73,248
2,62,60,120
2,63,63,124
2,64,77,156
2,65,81,140
2,64,73,16
2,65,81,132
2,64,77,24
2,41,45,148
2,53,70,0
2,54,76,36
2,42,60,0
2,55,79,52
2,43,56,0
2,55,93,0
2,49,88,8
2,45,79,4
2,55,72,220
2,49,91,0
2,45,76,4
2,50,87,156
2,54,94,4
2,54,78,4
2,50,78,0
2,43,78,96
2,53,78,0
2,52,76,152
2,48,78,0
2,48,89,288
2,52,84,4
2,41,92,272
2,53,92,8
2,42,93,0
2,54,97,0
2,43,84,52
2,55,95,4
2,49,86,0
2,45,78,4
2,55,103,4
2,55,92,88
2,49,87,4
2,50,89,128
2,54,95,8
2,54,99,188
2,50,87,0
2,53,98,140
2,43,91,4
2,48,98,24
2,52,95,4
2,48,114,280
2,36,109,4
3,72,81,2612
3,60,53,8
3,67,64,96
3,72,81,72
3,60,68,92
3,67,65,92
3,72,74,68
3,60,60,0
3,67,68,96
3,72,82,60
3,60,78,88
3,67,72,76
3,72,83,48
3,60,67,68
3,67,73,28
3,72,88,24
3,60,78,40
3,65,71,60
3,72,82,4
3,60,79,92
3,65,81,88
3,72,82,44
3,60,76,72
3,65,75,68
3,72,85,40
3,60,80,68
3,65,79,52
3,72,87,52
3,60,74,80
3,65,84,68
3,72,90,84
3,72,96,52
3,84,100,96
3,72,79,60
3,79,83,88
3,84,93,24
3,72,84,72
3,79,86,84
3,84,98,56
3,72,93,76
3,79,95,60
3,84,88,16
3,72,88,76
3,79,87,24
3,84,91,24
3,72,94,72
3,79,93,76
3,84,92,28
3,72,97,76
3,77,84,76
3,84,91,8
3,72,90,84
3,77,93,60
3,84,92,56
3,72,91,72
3,77,91,40
3,84,97,52
3,72,87,68
3,77,89,52
3,84,97,52
3,72,97,72
3,77,95,56
3,84,101,44
3,72,97,64
3,60,97,108
3,67,92,100
3,62,93,0
3,60,91,4
3,62,96,80
3,67,92,4
3,64,90,76
3,60,95,32
3,67,94,24
3,62,98,0
3,60,89,4
3,67,92,8
3,62,97,0
3,60,92,8
3,67,91,88
3,62,103,0
3,64,90,80
3,60,95,0
3,61,92,84
3,62,104,88
3,74,97,188
3,70,72,4
3,74,98,148
3,70,85,0
3,70,83,152
3,74,91,0
3,69,79,164
3,72,84,0
3,67,82,96
3,65,85,88
3,72,90,132
3,65,85,0
3,60,82,156
3,67,90,8
3,64,86,0
3,60,90,88
3,67,52,4
3,62,84,4
3,60,79,8
3,67,91,100
3,62,92,0
3,64,83,84
3,60,82,48
3,62,94,96
3,67,88,0
3,60,78,4
3,67,79,80
3,62,87,0
3,60,81,4
3,62,93,84
3,67,87,4
3,64,88,88
3,60,89,4
3,61,86,76
3,62,95,88
3,65,86,52
3,62,88,0
3,62,89,156
3,65,89,0
3,65,87,148
3,62,91,0
3,62,91,160
3,59,79,0
3,57,75,0
3,55,84,100
3,62,90,108
3,55,77,0
3,67,89,232
3,64,84,4
3,60,84,0
3,62,91,56
3,67,82,0
3,60,77,8
3,62,90,4
3,67,84,4
3,64,84,4
3,60,82,52
3,62,89,24
3,67,86,0
3,60,79,8
3,67,81,92
3,62,89,0
3,60,81,12
3,67,83,88
3,62,95,0
3,64,84,84
3,60,91,8
3,61,89,4
3,62,95,8
3,74,92,192
3,70,78,0
3,70,68,152
3,74,93,0
3,74,96,144
3,70,91,0
3,72,93,152
3,69,84,4
3,67,84,8
3,65,80,68
3,72,92,64
3,65,87,0
3,69,79,192
3,68,81,8
3,69,81,0
3,71,89,96
3,74,101,76
3,72,93,84
3,71,93,76
3,69,90,68
3,67,91,68
3,66,94,88
3,67,84,80
3,68,84,88
3,69,95,64
3,67,81,80
3,65,93,76
3,64,87,80
3,62,86,80
3,61,86,4
3,62,88,100
3,64,86,84
3,67,93,88
3,65,95,88
3,64,88,72
3,62,90,96
3,60,97,68
3,72,104,212
3,67,91,0
3,64,97,0
3,71,77,284
3,72,67,148
3,73,83,156
3,74,71,164
3,76,82,176
3,74,87,188
3,71,85,0
3,67,84,132
3,76,81,156
3,77,84,144
3,78,89,164
3,79,82,160
3,81,85,160
3,79,82,192
3,81,84,160
3,79,80,188
3,71,78,160
3,72,89,140
3,73,86,160
3,74,90,164
3,76,89,172
3,74,84,12
3,71,66,28
3,67,66,164
3,69,87,164
3,67,90,0
3,60,69,0
3,72,98,168
3,69,84,0
3,60,78,0
3,65,88,4
3,72,103,4
3,60,87,4
3,67,95,0
3,64,88,0
3,72,88,168
3,76,102,16
3,79,107,8
3,84,104,32
3,71,77,308
3,72,80,144
3,73,79,164
3,74,89,164
3,76,93,148
3,74,82,192
3,71,84,4
3,67,75,160
3,76,87,164
3,77,84,152
3,78,95,172
3,79,93,152
3,81,89,152
3,79,85,192
3,81,84,164
3,79,85,192
3,81,99,132
3,72,90,96
3,69,87,72
3,81,100,0
3,78,97,32
3,72,87,76
3,69,82,80
3,79,95,8
3,72,87,24
3,67,89,0
3,81,103,104
3,73,91,0
3,67,87,0
3,73,102,4
3,81,104,8
3,76,100,8
3,66,97,0
3,69,85,84
3,72,81,56
3,66,100,16
3,76,99,0
3,72,84,0
3,74,107,4
3,65,97,0
3,64,87,36
3,72,94,0
3,84,110,272
3,72,95,0
3,79,101,0
3,76,97,0
3,81,53,308
3,77,51,20
3,72,82,4
3,77,89,8
3,79,79,48
3,73,77,68
3,69,73,8
3,73,86,96
3,77,91,52
3,74,65,76
3,69,70,8
3,74,91,4
3,75,84,32
3,72,82,80
3,67,73,12
3,72,68,96
3,74,83,0
3,70,71,0
3,65,79,92
3,72,85,72
3,69,66,72
3,65,70,0
3,71,89,64
3,67,82,0
3,65,77,88
3,67,74,92
3,70,86,16
3,67,74,40
3,64,69,4
3,67,80,96
3,81,85,52
3,77,85,16
3,72,87,0
3,79,95,16
3,73,81,4
3,69,77,0
3,73,93,100
3,77,94,44
3,74,91,60
3,69,84,0
3,74,89,60
3,75,92,12
3,72,81,68
3,67,78,4
3,72,84,92
3,74,89,28
3,70,60,4
3,77,91,24
3,70,79,24
3,74,94,0
3,77,100,28
3,72,78,40
3,76,95,0
3,70,79,0
3,77,94,128
3,69,68,4
3,72,85,0
3,76,81,4
3,72,71,96
3,67,67,68
3,72,73,92
3,74,89,16
3,68,70,4
3,64,72,16
3,68,81,96
3,72,93,20
3,69,54,20
3,64,65,8
3,69,76,96
3,70,77,16
3,67,73,4
3,64,72,96
3,67,77,80
3,69,81,88
3,65,77,76
3,60,68,8
3,65,68,96
3,67,70,0
3,64,69,12
3,60,62,12
3,64,75,92
3,66,80,32
3,62,72,4
3,60,73,0
3,62,74,92
3,65,81,4
3,62,77,0
3,59,73,92
3,76,86,8
3,72,69,96
3,67,77,4
3,74,93,4
3,68,73,8
3,64,69,8
3,68,75,92
3,72,89,8
3,69,68,84
3,64,71,60
3,69,58,92
3,70,73,12
3,67,72,28
3,64,73,92
3,67,77,0
3,65,67,20
3,69,83,0
