track,note,velocity,time
1,78,100,24776
1,78,100,120
1,78,102,120
1,74,105,20
1,74,105,132
1,74,110,156
1,69,95,24
1,69,107,144
1,69,105,136
1,67,110,28
1,66,102,36
1,67,105,24
1,71,110,28
1,76,100,2336
1,76,102,124
1,76,100,124
1,73,85,36
1,73,105,124
1,73,113,132
1,69,95,60
1,69,100,124
1,69,107,140
1,73,107,60
1,71,95,28
1,69,102,60
1,69,107,80
1,78,105,2160
1,78,105,112
1,78,110,128
1,74,102,16
1,74,105,120
1,74,110,148
1,69,89,28
1,69,102,132
1,69,107,152
1,67,107,20
1,66,102,200
1,67,107,16
1,71,107,40
1,76,102,2452
1,76,102,120
1,76,105,112
1,73,87,28
1,73,102,120
1,73,110,128
1,69,89,24
1,69,102,108
1,73,110,60
1,74,98,40
1,74,100,108
1,74,105,108
1,78,100,10996
1,78,110,120
1,78,113,132
1,74,102,12
1,74,107,120
1,74,110,132
1,69,100,28
1,69,102,120
1,69,107,120
1,67,107,0
1,66,105,8
1,67,105,24
1,71,116,36
1,76,100,2504
1,76,100,116
1,76,100,124
1,73,85,36
1,73,102,116
1,73,113,136
1,69,89,28
1,69,98,124
1,73,107,136
1,71,100,44
1,69,100,52
1,69,110,80
1,78,107,2332
1,78,113,136
1,78,116,124
1,74,105,36
1,74,107,112
1,74,105,112
1,69,110,32
1,69,98,100
1,69,105,104
1,67,102,408
1,66,107,192
1,67,105,20
1,71,105,40
1,76,87,2352
1,76,89,108
1,76,89,144
1,73,64,60
1,73,76,144
1,73,100,140
1,69,74,40
1,69,89,120
1,73,110,124
1,74,98,52
1,74,95,104
1,74,102,120
1,74,52,136
1,74,35,132
1,74,56,124
1,74,70,104
1,71,48,44
1,71,66,128
1,71,68,132
1,71,87,104
1,66,76,32
1,64,82,12
1,62,64,20
1,64,95,32
1,66,95,4
1,66,107,244
1,67,91,96
1,66,93,72
1,62,64,2524
1,74,72,8
1,74,85,124
1,74,87,116
1,71,62,4
1,71,64,132
1,71,82,128
1,71,80,132
1,66,63,0
1,64,76,28
1,62,63,16
1,64,98,92
1,66,85,36
1,62,74,24
1,64,102,56
1,62,95,16
1,67,105,2080
1,69,107,36
1,71,110,0
1,69,105,20
1,70,110,1496
1,71,107,16
1,73,105,0
1,74,110,4
1,64,107,1304
1,71,105,368
1,73,105,0
1,74,98,196
1,76,100,544
1,73,113,4
1,71,107,208
1,71,110,88
1,69,107,16
1,71,105,724
1,73,107,772
1,78,102,436
1,78,105,144
1,78,107,128
1,74,102,12
1,74,100,120
1,74,105,124
1,69,95,380
1,69,102,116
1,69,107,124
1,67,100,12
1,66,85,28
1,67,107,4
1,71,119,20
1,76,102,2420
1,76,98,120
1,76,102,128
1,73,82,32
1,73,105,132
1,73,107,132
1,69,87,36
1,69,107,128
1,69,91,120
1,73,110,36
1,71,95,16
1,69,98,20
1,69,100,80
1,78,95,2152
1,78,102,124
1,78,102,120
1,74,102,28
1,74,107,128
1,74,105,136
1,69,100,36
1,69,102,104
1,69,105,128
1,67,98,20
1,66,85,40
1,67,105,0
1,71,110,32
1,76,95,2456
1,76,100,120
1,76,102,128
1,73,95,20
1,73,105,116
1,73,107,152
1,69,87,40
1,69,100,104
1,73,110,112
1,74,95,36
1,74,102,128
1,74,102,108
1,78,91,11224
1,78,102,116
1,78,107,128
1,74,102,28
1,74,105,128
1,74,107,148
1,69,85,8
1,69,98,124
1,69,105,144
1,67,98,16
1,66,95,208
1,67,102,28
1,71,107,8
1,76,100,2364
1,76,105,128
1,76,102,120
1,73,98,28
1,73,107,120
1,73,107,136
1,69,95,32
1,69,100,104
1,73,113,92
1,71,102,20
1,69,102,24
1,69,113,100
1,78,107,1924
1,78,110,128
1,78,105,112
1,74,107,24
1,74,107,124
1,74,107,148
1,69,95,20
1,69,107,120
1,69,110,128
1,67,102,20
1,66,105,0
1,67,102,12
1,71,105,12
1,76,89,2344
1,76,100,128
1,76,102,140
1,73,102,16
1,73,105,128
1,73,107,128
1,69,105,40
1,69,89,312
1,74,78,12
1,74,85,124
1,74,91,124
1,74,110,144
1,74,64,176
1,74,87,120
1,74,78,112
1,74,87,120
1,71,64,180
1,71,82,132
1,71,85,116
1,71,93,112
1,66,85,200
1,68,47,4
1,64,87,8
1,62,80,0
1,64,100,84
1,66,93,200
1,66,107,288
1,67,85,92
1,66,89,76
1,62,62,2604
1,74,85,192
1,74,98,128
1,74,100,128
1,71,72,0
1,71,85,124
1,71,85,120
1,71,98,120
1,66,85,0
1,64,78,40
1,62,60,20
1,64,95,92
1,66,91,76
1,62,91,20
1,64,100,44
1,62,102,20
1,67,107,1948
1,69,107,28
1,71,107,8
1,69,105,12
1,70,113,1560
1,71,107,12
1,73,105,0
1,74,105,192
1,64,98,1324
1,71,107,376
1,73,100,384
1,74,105,16
1,73,53,4
1,76,102,520
1,73,116,8
1,71,110,272
1,71,110,92
1,69,100,8
1,71,107,8
1,73,107,8
1,78,95,196
1,78,102,116
1,78,113,112
1,74,100,12
1,74,107,128
1,74,107,128
1,69,89,12
1,69,107,120
1,69,105,128
1,67,105,16
1,66,102,200
1,67,100,24
1,71,110,12
1,76,95,2284
1,76,105,120
1,76,102,112
1,73,95,36
1,73,102,120
1,73,107,124
1,69,102,40
1,78,110,244
1,76,105,32
1,74,107,44
1,74,113,108
1,77,98,172
1,74,89,8
1,82,78,4
1,74,98,164
1,77,98,0
1,82,80,4
1,74,100,160
1,77,102,4
1,82,87,4
1,74,100,164
1,77,102,4
1,82,91,0
1,82,100,116
1,77,105,8
1,74,105,8
1,75,98,88
1,72,93,8
1,81,91,8
1,75,110,132
1,72,102,32
1,81,105,4
1,74,100,92
1,70,105,8
1,77,87,4
1,77,102,3748
1,74,95,4
1,82,85,4
1,77,102,124
1,74,98,4
1,82,85,0
1,74,98,140
1,77,102,0
1,82,89,8
1,74,95,128
1,77,102,8
1,82,87,4
1,74,100,136
1,77,102,8
1,82,93,0
1,81,100,124
1,75,100,8
1,72,98,0
1,75,110,168
1,72,102,0
1,81,105,4
1,74,98,164
1,70,91,4
1,77,87,4
1,77,98,3916
1,74,89,8
1,82,78,4
1,74,98,164
1,77,98,0
1,82,80,4
1,74,100,160
1,77,102,4
1,82,87,4
1,74,100,164
1,77,102,4
1,82,91,0
1,82,100,116
1,77,105,8
1,74,105,8
1,75,98,88
1,72,93,8
1,81,91,8
1,75,110,132
1,72,102,32
1,81,105,4
1,74,100,92
1,70,105,8
1,77,87,4
1,77,102,3748
1,74,95,4
1,82,85,4
1,77,102,124
1,74,98,4
1,82,85,0
1,74,98,136
1,77,102,0
1,82,89,8
1,74,95,128
1,77,102,8
1,82,87,4
1,74,100,136
1,77,102,8
1,82,93,0
1,81,100,124
1,75,100,8
1,72,98,0
1,75,110,168
1,72,102,0
1,81,105,4
1,74,98,164
1,70,91,4
1,77,87,4
2,50,85,4
2,62,68,20
2,50,66,32
2,62,72,24
2,50,62,16
2,62,64,24
2,50,63,20
2,62,68,12
2,50,66,16
2,62,64,4
2,50,68,24
2,62,72,0
2,50,62,192
2,62,66,188
2,50,62,188
2,62,68,8
2,50,66,12
2,62,68,192
2,50,66,184
2,62,60,4
2,50,70,0
2,62,60,16
2,50,68,192
2,62,64,12
2,50,59,196
2,62,60,4
2,50,66,196
2,62,82,160
2,62,64,184
2,50,68,196
2,62,68,20
2,50,63,196
2,62,66,4
2,50,64,192
2,62,72,12
2,50,64,192
2,62,66,8
2,50,66,192
2,62,60,160
2,50,63,184
2,62,66,16
2,50,66,8
2,62,74,36
2,50,72,16
2,62,80,36
2,50,68,192
2,62,78,12
2,50,70,192
2,62,85,24
2,50,68,8
2,62,80,16
2,50,68,192
2,62,70,8
2,50,66,196
2,62,78,16
2,50,68,192
2,62,72,4
2,50,70,192
2,62,80,4
2,50,66,0
2,62,72,20
2,50,76,192
2,62,87,184
2,50,93,16
2,50,82,168
2,50,87,104
2,50,66,100
2,50,89,52
2,49,80,188
2,48,70,32
2,48,82,176
2,48,82,104
2,48,72,84
2,43,78,4
2,42,66,16
2,41,66,16
2,53,100,72
2,53,91,84
2,41,78,36
2,48,80,4
2,46,87,12
2,55,98,220
2,45,85,12
2,57,80,24
2,44,89,16
2,56,64,0
2,50,95,192
2,50,78,168
2,50,78,88
2,50,68,124
2,50,82,52
2,49,78,188
2,48,68,28
2,55,76,36
2,60,76,32
2,60,85,120
2,55,80,4
2,54,80,184
2,53,64,12
2,48,85,136
2,41,78,196
2,48,85,16
2,46,85,196
2,53,80,148
2,48,78,28
2,60,87,8
2,49,93,24
2,61,89,16
2,50,93,12
2,50,80,236
2,50,87,88
2,52,85,8
2,53,68,8
2,54,78,8
2,54,78,248
2,54,78,104
2,54,87,108
2,55,72,16
2,55,89,92
2,55,87,96
2,50,82,576
2,43,72,8
2,43,91,104
2,43,82,92
2,45,87,80
2,45,76,176
2,45,82,116
2,55,102,124
2,45,82,36
2,45,87,180
2,45,85,116
2,50,85,180
2,62,62,188
2,50,85,8
2,62,66,4
2,50,82,20
2,62,64,4
2,50,82,16
2,62,64,188
2,50,82,24
2,62,63,184
2,50,80,28
2,62,62,12
2,50,80,20
2,62,62,188
2,50,80,24
2,62,54,192
2,50,85,32
2,50,78,180
2,50,82,84
2,45,82,8
2,42,76,0
2,42,87,108
2,42,70,112
2,42,63,84
2,43,78,32
2,43,85,212
2,43,64,112
2,55,98,24
2,55,85,128
2,54,89,236
2,52,93,216
2,50,91,84
2,45,85,252
2,45,89,176
2,45,85,96
2,45,89,152
2,45,85,104
2,45,93,176
2,45,78,112
2,45,87,184
2,50,93,12
2,50,82,168
2,50,87,104
2,50,66,100
2,50,89,52
2,49,80,188
2,48,70,32
2,48,82,176
2,48,82,104
2,48,72,84
2,43,78,4
2,42,66,16
2,41,66,16
2,53,100,72
2,53,91,84
2,41,78,36
2,48,80,4
2,46,87,12
2,55,98,220
2,45,85,12
2,57,80,24
2,44,89,16
2,56,64,0
2,50,95,192
2,50,78,168
2,50,78,88
2,50,68,124
2,50,82,52
2,49,78,188
2,48,68,28
2,55,76,36
2,60,76,32
2,60,85,120
2,55,80,4
2,54,80,184
2,53,64,12
2,48,85,136
2,41,78,196
2,48,85,16
2,46,85,196
2,53,80,148
2,48,78,28
2,60,87,8
2,49,93,24
2,61,89,16
2,50,93,12
2,50,80,236
2,50,87,88
2,52,85,8
2,53,68,8
2,54,78,8
2,54,78,248
2,54,78,104
2,54,87,108
2,55,72,16
2,55,89,92
2,55,87,96
2,50,82,576
2,43,72,8
2,43,91,104
2,43,82,92
2,45,87,80
2,45,76,176
2,45,82,116
2,55,102,124
2,45,82,36
2,45,87,180
2,45,85,116
2,50,85,180
2,62,62,188
2,50,85,8
2,62,66,4
2,50,82,20
2,62,64,4
2,50,82,16
2,62,64,188
2,50,82,20
2,62,63,188
2,50,80,28
2,62,62,12
2,50,80,20
2,62,62,188
2,50,80,24
2,62,54,192
2,50,85,32
2,50,78,180
2,50,82,84
2,45,82,8
2,42,76,0
2,42,87,108
2,42,70,112
2,42,63,84
2,43,78,32
2,43,85,212
2,43,64,112
2,55,98,24
2,55,85,128
2,54,89,236
2,52,93,216
2,50,91,84
2,45,85,252
2,45,89,176
2,45,85,96
2,45,89,152
2,45,85,104
2,45,68,156
2,45,72,96
2,45,82,120
2,47,82,16
2,59,82,12
2,59,100,108
2,49,82,1536
2,61,107,12
2,61,95,104
2,50,80,16
2,62,89,8
2,62,100,96
2,50,85,12
2,52,85,0
2,62,89,236
2,64,87,192
2,40,102,108
2,40,89,224
2,42,100,188
2,43,105,28
2,43,74,108
2,43,93,104
2,43,85,128
2,42,100,196
2,42,85,136
2,42,78,100
2,49,85,12
2,54,100,4
2,42,98,24
2,42,89,144
2,42,98,96
2,54,102,384
2,49,70,32
2,47,89,12
2,47,66,188
2,47,82,100
2,47,87,160
2,40,70,28
2,40,80,144
2,40,82,116
2,40,82,120
2,40,78,124
2,40,85,132
2,40,80,128
2,42,87,8
2,44,93,12
2,40,82,0
2,45,93,20
2,50,93,100
2,50,80,236
2,50,87,88
2,52,85,8
2,53,68,8
2,54,78,8
2,54,78,248
2,54,78,104
2,54,87,108
2,55,72,16
2,55,89,92
2,55,87,96
2,50,82,576
2,43,72,8
2,43,91,104
2,43,82,92
2,45,87,80
2,45,76,176
2,45,82,116
2,55,102,124
2,45,82,36
2,45,87,180
2,45,85,116
2,50,85,180
2,62,62,188
2,50,85,8
2,62,66,4
2,50,82,20
2,62,64,4
2,50,82,16
2,62,64,188
2,50,82,20
2,62,63,188
2,50,80,28
2,62,62,12
2,50,80,20
2,62,62,188
2,50,80,24
2,62,54,192
2,50,85,32
2,50,78,180
2,50,82,84
2,45,82,8
2,42,76,0
2,42,87,108
2,42,70,112
2,42,63,84
2,43,78,32
2,43,85,212
2,43,64,112
2,55,98,24
2,55,85,128
2,54,89,236
2,52,93,216
2,50,91,88
2,45,85,252
2,45,89,176
2,45,85,96
2,45,89,152
2,45,89,20
2,45,80,192
2,45,93,108
2,45,80,220
2,50,93,8
2,50,100,212
2,45,78,120
2,50,100,8
2,49,85,16
2,48,82,24
2,48,78,204
2,48,85,112
2,48,68,64
2,43,87,0
2,42,85,20
2,41,80,192
2,41,72,140
2,41,82,88
2,48,87,572
2,46,89,0
2,46,95,260
2,45,85,20
2,57,82,20
2,44,87,16
2,56,64,192
2,50,87,12
2,50,76,200
2,50,82,100
2,45,62,16
2,50,89,100
2,49,80,4
2,48,78,16
2,48,85,192
2,48,87,104
2,55,91,12
2,60,76,20
2,55,85,4
2,53,91,12
2,53,74,208
2,53,70,104
2,48,89,204
2,46,95,12
2,46,93,240
2,48,80,192
2,60,80,20
2,49,100,0
2,61,100,28
2,50,87,8
2,42,102,28
2,42,80,192
2,43,91,24
2,43,70,44
2,43,68,92
2,45,80,1536
2,50,95,876
2,62,105,112
2,50,100,388
2,50,87,84
2,54,93,1536
2,55,80,1524
2,55,95,172
2,54,91,212
2,52,98,136
2,50,93,64
2,45,98,204
2,45,89,136
2,45,85,96
2,45,89,136
2,45,91,104
2,45,82,136
2,45,82,96
2,52,105,20
2,47,82,32
2,59,82,12
2,59,100,108
2,49,82,1536
2,61,107,12
2,61,95,104
2,50,80,16
2,62,89,8
2,62,100,96
2,50,85,12
2,52,85,4
2,62,89,236
2,64,87,192
2,40,102,108
2,40,89,224
2,42,100,188
2,43,105,28
2,43,74,108
2,43,93,104
2,43,85,128
2,42,100,196
2,42,85,136
2,42,78,100
2,49,85,12
2,54,100,4
2,42,98,24
2,42,89,144
2,42,98,96
2,54,102,384
2,49,70,36
2,47,89,12
2,47,66,188
2,47,82,100
2,47,87,160
2,40,70,28
2,40,80,144
2,40,82,116
2,40,82,120
2,40,78,124
2,40,85,132
2,40,80,128
2,42,87,8
2,44,93,12
2,40,82,0
2,45,93,20
2,45,87,4
2,50,95,16
2,50,93,144
2,50,95,116
2,45,100,0
2,42,102,0
2,42,89,156
2,42,85,88
2,42,98,92
2,43,100,16
2,43,100,180
2,43,100,112
2,43,98,160
2,43,98,128
2,43,95,176
2,43,102,120
2,43,89,112
2,45,89,12
2,45,91,176
2,45,89,104
2,45,98,160
2,45,89,100
2,45,89,148
2,45,87,108
2,45,91,212
2,50,74,192
2,62,78,20
2,50,78,12
2,62,72,4
2,50,70,24
2,62,80,188
2,50,82,24
2,62,78,188
2,50,78,24
2,62,89,188
2,50,85,28
2,62,87,188
2,50,82,24
2,62,89,8
2,50,68,28
2,62,82,16
2,50,87,192
2,50,89,184
2,50,85,80
2,54,98,204
2,54,91,56
2,54,93,52
2,54,93,120
2,54,91,116
2,54,100,116
2,55,95,12
2,55,98,184
2,55,85,104
2,50,105,112
2,55,102,24
2,54,107,228
2,52,100,140
2,50,102,16
2,45,100,188
2,45,98,164
2,45,89,88
2,52,85,144
2,57,102,16
2,45,93,176
2,45,95,124
2,45,95,232
2,42,76,92
2,50,85,16
2,50,87,128
2,50,85,124
2,45,76,284
2,50,91,92
2,49,72,4
2,48,85,0
