track,note,velocity,time
1,34,112,1536
1,34,98,36
1,46,102,26
1,34,112,36
1,46,94,0
1,34,112,384
1,46,90,2
1,33,102,8
1,33,86,74
1,45,92,24
1,33,95,0
1,45,99,20
1,33,102,192
1,45,95,158
1,45,83,44
1,33,105,96
1,36,108,20
1,36,81,8
1,36,88,40
1,36,108,126
1,36,102,118
1,31,108,20
1,36,108,18
1,31,95,38
1,36,99,44
1,36,105,128
1,36,118,138
1,31,105,192
1,36,115,18
1,34,107,42
1,34,94,48
1,46,102,22
1,34,112,24
1,46,102,16
1,34,102,384
1,46,94,0
1,33,99,8
1,33,92,102
1,45,99,20
1,33,95,8
1,45,97,14
1,33,92,192
1,45,88,32
1,45,74,28
1,33,105,96
1,36,97,34
1,31,95,16
1,36,99,52
1,36,105,112
1,36,108,114
1,31,102,22
1,36,111,32
1,31,102,6
1,36,90,38
1,36,115,128
1,36,115,128
1,31,99,192
1,36,108,36
1,36,102,92
1,36,83,108
1,36,102,112
1,48,86,0
1,36,95,192
1,36,78,80
1,36,102,116
1,36,97,100
1,36,88,106
1,36,102,120
1,48,90,2
1,36,97,8
1,36,95,116
1,36,105,122
1,36,102,168
1,36,92,110
1,40,92,84
1,40,88,100
1,41,99,108
1,41,92,144
1,41,108,120
1,41,90,108
1,41,108,116
1,41,102,166
1,41,111,136
1,41,102,134
1,36,105,68
1,36,90,100
1,36,105,118
1,34,112,216
1,34,94,146
1,34,107,132
1,33,102,106
1,33,99,100
1,33,99,128
1,31,111,120
1,31,95,128
1,31,111,130
1,30,107,78
1,30,98,128
1,30,102,134
1,31,99,140
1,31,90,98
1,31,105,122
1,31,97,150
1,36,118,8
1,36,121,184
1,34,112,938
1,34,98,36
1,46,102,26
1,34,112,36
1,46,94,0
1,34,112,384
1,46,90,2
1,33,102,8
1,33,86,74
1,45,92,24
1,33,95,0
1,45,99,20
1,33,102,192
1,45,95,158
1,45,83,44
1,33,105,96
1,36,108,20
1,36,81,8
1,36,88,40
1,36,108,126
1,36,102,118
1,31,108,20
1,36,108,18
1,31,95,38
1,36,99,44
1,36,105,128
1,36,118,138
1,31,105,192
1,36,115,18
1,34,107,42
1,34,94,48
1,46,102,22
1,34,112,24
1,46,102,16
1,34,102,384
1,46,94,0
1,33,99,8
1,33,92,102
1,45,99,20
1,33,95,8
1,45,97,14
1,33,92,192
1,45,88,32
1,45,74,28
1,33,105,96
1,36,97,34
1,31,95,16
1,36,99,52
1,36,105,112
1,36,108,114
1,31,102,22
1,36,111,32
1,31,102,6
1,36,90,38
1,36,115,128
1,36,115,128
1,31,99,192
1,36,108,36
1,34,112,92
1,34,94,130
1,34,107,132
1,34,102,130
1,33,105,98
1,33,97,104
1,33,102,120
1,38,105,92
1,38,83,126
1,38,111,138
1,40,115,28
1,41,78,30
1,41,99,136
1,41,108,118
1,34,112,242
1,34,107,202
1,34,112,118
1,34,102,98
1,33,97,54
1,33,99,136
1,33,111,124
1,33,86,110
1,36,111,20
1,36,118,154
1,36,118,140
1,36,121,144
1,31,105,22
1,36,115,10
1,36,108,182
1,36,121,136
1,36,102,210
1,36,83,108
1,36,102,112
1,48,86,0
1,36,95,192
1,36,78,80
1,36,102,116
1,36,97,100
1,36,88,106
1,36,102,120
1,48,90,2
1,36,97,8
1,36,95,116
1,36,105,122
1,36,102,168
1,36,92,110
1,40,92,84
1,40,88,100
1,41,99,108
1,41,92,144
1,41,108,120
1,41,90,108
1,41,108,116
1,41,102,166
1,41,111,136
1,41,102,134
1,36,105,68
1,36,90,100
1,36,105,118
1,34,112,216
1,34,94,146
1,34,107,132
1,33,102,106
1,33,99,100
1,33,99,128
1,31,111,120
1,31,95,128
1,31,111,130
1,30,107,78
1,30,98,128
1,30,102,134
1,31,99,140
1,31,90,98
1,31,105,122
1,31,97,150
1,36,118,8
1,36,121,184
1,34,112,938
1,34,98,36
1,46,102,26
1,34,112,36
1,46,94,0
1,34,112,384
1,46,90,2
1,33,102,8
1,33,86,74
1,45,92,24
1,33,95,0
1,45,99,20
1,33,102,192
1,45,95,158
1,45,83,44
1,33,105,96
1,36,108,20
1,36,81,8
1,36,88,40
1,36,108,126
1,36,102,118
1,31,108,20
1,36,108,18
1,31,95,38
1,36,99,44
1,36,105,128
1,36,118,138
1,31,105,192
1,36,115,18
1,34,107,42
1,34,94,48
1,46,102,22
1,34,112,24
1,46,102,16
1,34,102,384
1,46,94,0
1,33,99,8
1,33,92,102
1,45,99,20
1,33,95,8
1,45,97,14
1,33,92,192
1,45,88,32
1,45,74,28
1,33,105,96
1,36,97,34
1,31,95,16
1,36,99,52
1,36,105,112
1,36,108,114
1,31,102,22
1,36,111,32
1,31,102,6
1,36,90,38
1,36,115,128
1,36,115,128
1,31,99,192
1,36,108,36
1,34,112,92
1,34,94,130
1,34,107,132
1,34,102,130
1,33,105,98
1,33,97,104
1,33,102,120
1,38,105,92
1,38,83,126
1,38,111,138
1,40,115,28
1,41,78,30
1,41,99,136
1,41,108,118
1,34,112,242
1,34,107,202
1,34,112,118
1,34,102,98
1,33,97,54
1,33,99,136
1,33,111,124
1,33,86,110
1,36,111,20
1,36,118,154
1,36,118,140
1,36,121,144
1,31,105,22
1,36,115,10
1,36,108,182
1,36,121,136
1,38,111,210
1,38,86,64
1,38,73,54
1,38,84,82
1,34,87,40
1,34,87,76
1,34,87,100
1,34,94,92
1,41,99,48
1,41,81,64
1,41,81,76
1,41,95,62
1,36,97,40
1,36,88,74
1,36,77,72
1,36,83,56
1,38,102,104
1,38,81,76
1,38,81,78
1,38,80,54
1,34,82,44
1,34,87,68
1,34,84,80
1,34,82,68
1,41,83,58
1,41,78,86
1,41,88,72
1,41,88,96
1,41,88,90
1,41,88,78
1,41,88,108
1,41,88,68
1,33,105,98
1,33,88,56
1,33,66,82
1,33,88,72
1,29,86,48
1,29,80,52
1,29,83,88
1,29,84,98
1,36,88,54
1,36,84,58
1,36,81,98
1,36,92,80
1,31,92,56
1,31,92,76
1,31,105,98
1,31,102,88
1,38,97,78
1,38,86,56
1,38,90,68
1,38,88,64
1,34,82,48
1,34,84,72
1,34,90,94
1,34,87,72
1,41,86,48
1,41,81,64
1,41,88,88
1,41,102,80
1,36,121,144
1,36,118,160
1,34,112,916
1,34,98,36
1,46,102,26
1,34,112,36
1,46,94,0
1,34,112,384
1,46,90,2
1,33,102,8
1,33,86,74
1,45,92,24
1,33,95,0
1,45,99,20
1,33,102,192
1,45,95,158
1,45,83,44
1,33,105,96
1,36,108,20
1,36,81,8
1,36,88,40
1,36,108,126
1,36,102,118
1,31,108,20
1,36,108,18
1,31,95,38
1,36,99,44
1,36,105,128
1,36,118,138
1,31,105,192
1,36,115,18
1,34,107,42
1,34,94,48
1,46,102,22
1,34,112,24
1,46,102,16
1,34,102,384
1,46,94,0
1,33,99,8
1,33,92,102
1,45,99,20
1,33,95,8
1,45,97,14
1,33,92,192
1,45,88,32
1,45,74,28
1,33,105,96
1,36,97,34
1,31,95,16
1,36,99,52
1,36,105,112
1,36,108,114
1,31,102,22
1,36,111,32
1,31,102,6
1,36,90,38
1,36,115,128
1,36,115,128
1,31,99,192
1,36,108,36
1,34,112,92
1,34,94,130
1,34,107,132
1,34,102,130
1,33,105,98
1,33,97,104
1,33,102,120
1,38,105,92
1,38,83,126
1,38,111,138
1,40,115,28
1,41,78,30
1,41,99,136
1,41,108,118
1,34,112,242
1,34,107,202
1,34,112,118
1,34,102,98
1,33,97,54
1,33,99,136
1,33,111,124
1,33,86,110
1,36,111,20
1,36,118,154
1,36,118,140
1,36,121,144
1,31,105,22
1,36,115,10
1,36,108,182
1,36,121,136
1,34,112,210
1,34,107,202
1,34,112,118
1,34,102,98
1,33,97,54
1,33,99,136
1,33,111,124
1,33,86,110
1,36,111,20
1,36,118,154
1,36,118,140
1,36,121,144
1,31,105,22
1,36,115,10
1,36,108,182
1,36,121,136
1,34,112,210
1,34,107,202
1,34,112,118
1,34,102,98
1,33,97,54
1,33,99,136
1,33,111,124
1,33,86,110
1,36,111,20
1,36,118,154
1,36,118,140
1,36,121,144
1,31,105,22
1,36,115,10
1,36,108,182
1,36,121,136
1,34,112,210
1,34,94,130
1,34,107,132
1,34,102,130
1,33,105,98
1,33,97,104
1,33,102,120
1,38,105,92
1,38,83,126
1,38,111,138
1,40,115,28
1,41,78,30
1,41,99,136
1,41,108,118
1,34,112,242
1,34,107,202
1,34,112,118
1,34,102,98
1,33,97,54
1,33,99,136
1,33,111,124
1,33,86,110
1,36,111,20
1,36,118,154
1,36,118,140
1,36,121,144
1,31,105,22
1,36,123,10
1,36,121,188
1,34,112,934
1,34,98,36
1,46,102,26
1,34,112,36
1,46,94,0
1,34,112,384
1,46,90,2
1,33,102,8
1,33,86,74
1,45,92,24
1,33,95,0
1,45,99,20
1,33,102,192
1,45,95,158
1,45,83,44
1,33,105,96
1,36,108,20
1,36,81,8
1,36,88,40
1,36,108,126
1,36,102,118
1,31,108,20
1,36,108,18
1,31,95,38
1,36,99,44
1,36,105,128
1,36,118,138
1,31,105,192
1,36,115,18
1,34,107,42
1,34,94,48
1,46,102,22
1,34,112,24
1,46,102,16
1,34,102,384
1,46,94,0
1,33,99,8
1,33,92,102
1,45,99,20
1,33,95,8
1,45,97,14
1,33,92,192
1,45,88,32
1,45,74,28
1,33,105,96
1,36,97,34
1,31,95,16
1,36,99,52
1,36,105,112
1,36,108,114
1,31,102,22
1,36,111,32
1,31,102,6
1,36,90,38
1,36,115,128
1,36,115,128
1,31,99,192
1,36,108,36
1,34,112,92
1,34,94,130
1,34,107,132
1,34,102,130
1,33,105,98
1,33,97,104
1,33,102,120
1,38,105,92
1,38,83,126
1,38,111,138
1,40,115,28
1,41,78,30
1,41,99,136
1,41,108,118
1,34,112,242
1,34,107,202
1,34,112,118
1,34,102,98
1,33,97,54
1,33,99,136
1,33,111,124
1,33,86,110
1,36,111,20
1,36,118,154
1,36,118,140
1,36,121,144
1,31,105,22
1,36,115,10
1,36,108,182
1,36,121,136
1,36,123,210
2,60,118,768
2,72,127,0
2,74,115,110
2,62,118,0
2,64,125,114
2,76,118,0
2,58,101,120
2,65,117,0
2,53,97,0
2,60,97,0
2,50,97,0
2,46,101,0
2,64,117,142
2,60,117,12
2,45,97,120
2,65,117,0
2,60,99,0
2,57,112,0
2,53,97,0
2,64,117,90
2,62,117,94
2,55,99,70
2,60,117,0
2,48,95,0
2,64,93,0
2,67,109,0
2,72,99,0
2,64,102,76
2,67,118,0
2,72,112,0
2,55,104,76
2,67,106,0
2,64,99,0
2,48,109,0
2,72,102,0
2,60,117,338
2,62,117,172
2,64,117,210
2,58,101,112
2,65,117,0
2,53,97,0
2,60,97,0
2,50,97,0
2,46,101,0
2,64,117,132
2,60,117,20
2,45,97,120
2,65,117,0
2,60,99,0
2,57,112,0
2,53,97,0
2,64,117,122
2,62,117,90
2,55,93,72
2,60,117,0
2,48,97,0
2,67,104,0
2,64,95,0
2,72,99,0
2,64,117,0
2,55,109,88
2,64,78,14
2,55,104,56
2,60,84,384
2,48,72,74
2,60,93,72
2,48,109,72
2,60,122,48
2,48,118,50
2,60,115,54
2,48,118,66
2,60,127,48
2,55,97,224
2,60,109,0
2,64,97,0
2,65,102,126
2,57,99,0
2,60,106,0
2,57,93,8
2,60,104,0
2,67,102,0
2,67,99,154
2,57,78,0
2,62,95,0
2,60,87,0
2,55,93,2
2,60,93,0
2,64,90,0
2,55,97,104
2,64,99,0
2,60,102,0
2,57,99,320
2,65,102,0
2,60,102,0
2,62,95,10
2,67,102,0
2,57,88,0
2,60,95,0
2,55,97,24
2,64,99,0
2,60,106,0
2,46,119,112
2,62,112,0
2,58,97,0
2,65,97,0
2,62,109,434
2,65,99,0
2,58,97,0
2,53,93,10
2,60,85,0
2,57,91,0
2,65,93,0
2,69,99,0
2,60,90,60
2,72,78,40
2,69,91,0
2,65,77,0
2,65,109,100
2,72,106,0
2,69,118,0
2,48,95,300
2,60,97,0
2,67,97,0
2,64,104,0
2,55,112,424
2,60,93,8
2,62,115,104
2,67,109,0
2,54,89,294
2,57,95,0
2,62,85,0
2,54,97,150
2,62,102,0
2,57,109,0
2,55,104,12
2,48,109,0
2,60,104,0
2,67,102,0
2,64,115,0
2,59,109,584
2,55,93,0
2,62,97,0
2,43,106,0
2,55,115,20
2,48,115,0
2,60,104,0
2,64,115,0
2,67,102,0
2,36,127,210
2,55,122,0
2,64,122,0
2,48,118,0
2,60,109,0
2,67,102,0
2,58,101,66
2,65,117,0
2,53,97,0
2,60,97,0
2,50,97,0
2,46,101,0
2,64,117,142
2,60,117,12
2,45,97,120
2,65,117,0
2,60,99,0
2,57,112,0
2,53,97,0
2,64,117,90
2,62,117,94
2,55,99,70
2,60,117,0
2,48,95,0
2,64,93,0
2,67,109,0
2,72,99,0
2,64,102,76
2,67,118,0
2,72,112,0
2,55,104,76
2,67,106,0
2,64,99,0
2,48,109,0
2,72,102,0
2,60,117,338
2,62,117,172
2,64,117,210
2,58,101,112
2,65,117,0
2,53,97,0
2,60,97,0
2,50,97,0
2,46,101,0
2,64,117,132
2,60,117,20
2,45,97,120
2,65,117,0
2,60,99,0
2,57,112,0
2,53,97,0
2,64,117,122
2,62,117,90
2,55,93,72
2,60,117,0
2,48,97,0
2,67,104,0
2,64,95,0
2,72,99,0
2,64,117,0
2,55,109,88
2,64,78,14
2,55,104,56
2,60,84,384
2,48,72,74
2,60,93,72
2,48,109,72
2,60,122,48
2,48,118,50
2,60,115,54
2,48,118,66
2,60,127,48
2,55,106,224
2,58,94,0
2,62,112,0
2,67,95,0
2,55,99,72
2,58,94,0
2,67,102,0
2,62,109,0
2,61,109,152
2,57,99,0
2,67,93,0
2,57,90,88
2,61,97,0
2,67,80,0
2,53,71,332
2,57,91,0
2,50,95,0
2,69,91,0
2,65,97,0
2,62,87,0
2,62,85,148
2,69,91,0
2,65,104,0
2,62,99,12
2,69,102,0
2,65,112,0
2,57,115,192
2,69,99,88
2,62,93,0
2,65,112,0
2,68,49,108
2,65,109,148
2,72,104,0
2,60,80,0
2,53,84,0
2,68,109,0
2,60,64,28
2,72,90,0
2,68,84,0
2,65,90,0
2,68,94,108
2,65,91,0
2,72,93,0
2,60,80,192
2,53,90,0
2,65,99,0
2,68,105,0
2,72,102,0
2,58,94,168
2,60,109,0
2,65,95,0
2,64,99,86
2,58,94,0
2,60,112,0
2,60,97,48
2,58,91,0
2,62,104,0
2,65,93,70
2,57,91,0
2,60,99,0
2,64,102,76
2,57,87,0
2,60,93,0
2,62,112,58
2,57,95,0
2,60,97,0
2,55,93,178
2,60,90,0
2,48,97,0
2,64,95,0
2,67,88,0
2,55,84,14
2,48,91,0
2,67,71,36
2,60,83,0
2,64,88,0
2,60,102,146
2,67,99,0
2,64,109,0
2,48,87,204
2,55,85,0
2,64,84,2
2,60,81,0
2,67,91,0
2,55,84,124
2,48,79,0
2,55,90,122
2,48,85,0
2,67,65,192
2,72,78,0
2,67,68,50
2,72,84,0
2,67,93,48
2,72,106,0
2,67,112,120
2,72,115,0
2,67,122,132
2,72,127,0
2,52,91,134
2,55,115,0
2,48,115,0
2,55,97,96
2,60,109,0
2,64,97,0
2,65,102,126
2,57,99,0
2,60,106,0
2,57,93,8
2,60,104,0
2,67,102,0
2,67,99,154
2,57,78,0
2,62,95,0
2,60,87,0
2,55,93,2
2,60,93,0
2,64,90,0
2,55,97,104
2,64,99,0
2,60,102,0
2,57,99,320
2,65,102,0
2,60,102,0
2,62,95,10
2,67,102,0
2,57,88,0
2,60,95,0
2,55,97,24
2,64,99,0
2,60,106,0
2,46,119,112
2,62,112,0
2,58,97,0
2,65,97,0
2,62,109,434
2,65,99,0
2,58,97,0
2,53,93,10
2,60,85,0
2,57,91,0
2,65,93,0
2,69,99,0
2,60,90,60
2,72,78,40
2,69,91,0
2,65,77,0
2,65,109,100
2,72,106,0
2,69,118,0
2,48,95,300
2,60,97,0
2,67,97,0
