track,note,velocity,time
1,59,120,0
1,57,120,80
1,57,120,5
1,57,120,80
1,57,120,80
1,57,120,80
1,55,120,5
1,52,120,5
1,50,120,5
1,59,120,245
1,59,120,5
1,59,120,5
1,57,120,80
1,57,120,5
1,57,120,5
1,57,120,0
1,57,120,80
1,55,120,5
1,52,120,5
1,62,120,5
1,57,120,5
1,59,120,5
1,57,120,320
1,57,120,5
1,57,120,5
1,57,120,5
1,57,120,80
1,57,120,5
1,57,120,5
1,55,120,5
1,52,120,5
1,59,120,5
1,59,120,5
1,59,120,80
1,59,120,5
1,59,120,5
1,57,120,5
1,55,120,5
1,57,120,5
1,55,120,5
1,59,120,1520
1,57,120,80
1,57,120,5
1,57,120,5
1,57,120,5
1,57,120,5
1,57,120,5
1,57,120,5
1,57,120,5
1,55,120,5
1,52,120,5
1,50,120,5
1,59,120,5
1,59,120,5
1,59,120,5
1,57,120,5
1,57,120,5
1,57,120,5
1,57,120,5
1,57,120,80
1,57,120,80
1,55,120,5
1,52,120,5
1,62,120,5
1,59,120,5
1,57,120,320
1,57,120,5
1,57,120,5
1,57,120,5
1,57,120,80
1,57,120,5
1,57,120,5
1,55,120,5
1,52,120,5
1,59,120,5
1,59,120,80
1,59,120,80
1,57,120,5
1,55,120,5
1,57,120,5
1,55,120,5
1,59,120,1280
1,59,120,5
1,59,120,5
1,59,120,5
1,59,120,5
1,59,120,5
1,59,120,5
1,59,120,5
1,57,120,80
1,59,120,485
1,57,120,5
1,57,120,245
1,62,120,5
1,60,120,80
1,59,120,80
1,60,120,80
1,59,120,5
1,60,120,5
1,59,120,5
1,57,120,5
1,59,120,320
1,59,120,5
1,59,120,5
1,59,120,5
1,59,120,5
1,59,120,5
1,57,120,80
1,59,120,485
1,57,120,5
1,62,120,80
1,60,120,80
1,59,120,80
1,60,120,80
1,59,120,5
1,57,120,5
1,57,120,5
1,55,120,5
1,59,120,320
1,59,120,5
1,59,120,5
1,59,120,5
1,59,120,5
1,59,120,5
1,57,120,80
1,59,120,485
1,57,120,5
1,57,120,245
1,62,120,5
1,60,120,80
1,59,120,80
1,60,120,80
1,59,120,5
1,60,120,5
1,59,120,5
1,57,120,5
1,57,120,320
1,57,120,5
1,57,120,5
1,57,120,5
1,57,120,5
1,57,120,5
1,55,120,80
1,57,120,485
1,55,120,5
1,55,120,245
1,57,120,5
1,59,120,5
1,59,120,5
1,59,120,5
1,59,120,5
1,57,120,80
1,59,120,485
1,57,120,5
1,59,120,80
1,57,120,5
1,55,120,5
1,57,120,5
1,55,120,5
1,59,120,13040
1,57,120,120
1,57,120,5
1,57,120,5
1,57,120,80
1,57,120,80
1,55,120,5
1,52,120,5
1,50,120,5
1,59,120,245
1,59,120,5
1,59,120,5
1,57,120,80
1,57,120,5
1,57,120,5
1,57,120,80
1,57,120,80
1,55,120,5
1,52,120,5
1,62,120,5
1,57,120,5
1,59,120,5
1,57,120,320
1,57,120,5
1,57,120,5
1,57,120,5
1,57,120,80
1,57,120,5
1,57,120,5
1,55,120,5
1,52,120,5
1,59,120,5
1,59,120,5
1,59,120,80
1,59,120,5
1,59,120,5
1,57,120,5
1,55,120,5
1,57,120,5
1,55,120,5
1,59,120,1520
1,57,120,80
1,57,120,5
1,57,120,5
1,57,120,5
1,57,120,5
1,57,120,5
1,57,120,5
1,57,120,5
1,55,120,5
1,52,120,5
1,50,120,5
1,59,120,5
1,59,120,5
1,59,120,5
1,57,120,5
1,57,120,5
1,57,120,5
1,57,120,5
1,57,120,80
1,57,120,80
1,55,120,5
1,52,120,5
1,62,120,5
1,59,120,5
1,57,120,320
1,57,120,5
1,57,120,5
1,57,120,5
1,57,120,80
1,57,120,5
1,57,120,5
1,55,120,5
1,52,120,5
1,59,120,5
1,59,120,80
1,59,120,80
1,57,120,5
1,55,120,5
1,57,120,5
1,55,120,5
1,59,120,1280
1,59,120,5
1,59,120,5
1,59,120,5
1,59,120,5
1,59,120,5
1,59,120,5
1,59,120,5
1,57,120,80
1,59,120,485
1,57,120,5
1,57,120,245
1,62,120,5
1,60,120,80
1,59,120,80
1,60,120,80
1,59,120,5
1,60,120,5
1,59,120,5
1,57,120,5
1,59,120,320
1,59,120,5
1,59,120,5
1,59,120,5
1,59,120,5
1,59,120,5
1,57,120,80
1,59,120,485
1,57,120,5
1,62,120,80
1,60,120,80
1,59,120,80
1,60,120,80
1,59,120,5
1,57,120,5
1,57,120,5
1,55,120,5
1,59,120,320
1,59,120,5
1,59,120,5
1,59,120,5
1,59,120,5
1,59,120,5
1,57,120,80
1,59,120,485
1,57,120,5
1,57,120,245
1,62,120,5
1,60,120,80
1,59,120,80
1,60,120,80
1,59,120,5
1,60,120,5
1,59,120,5
1,57,120,5
1,57,120,320
1,57,120,5
1,57,120,5
1,57,120,5
1,57,120,5
1,57,120,5
1,55,120,80
1,57,120,485
1,55,120,5
1,55,120,245
1,57,120,5
1,59,120,5
1,59,120,5
1,59,120,5
1,59,120,5
1,57,120,80
1,59,120,485
1,57,120,5
1,57,120,80
1,59,120,5
1,60,120,800
1,65,120,245
1,62,120,245
1,64,120,5
1,60,120,5
1,62,120,5
1,60,120,5
1,59,120,1280
1,64,120,245
1,59,120,245
1,62,120,5
1,57,120,5
1,59,120,5
1,60,120,5
1,59,120,5
1,57,120,5
1,57,120,320
1,60,120,245
1,65,120,245
1,62,120,245
1,64,120,5
1,60,120,5
1,62,120,5
1,60,120,5
1,55,120,800
1,59,120,245
1,64,120,245
1,59,120,245
1,62,120,5
1,57,120,5
1,57,120,320
1,57,120,5
1,57,120,5
1,57,120,5
1,57,120,5
1,55,120,5
1,59,120,5
1,59,120,5
1,59,120,5
1,57,120,5
1,57,120,5
1,57,120,5
1,57,120,5
1,57,120,5
1,57,120,5
1,55,120,5
1,52,120,5
1,62,120,5
1,57,120,5
1,59,120,5
1,62,120,800
1,62,120,5
1,62,120,5
1,64,120,5
1,64,120,5
1,64,120,5
1,64,120,5
1,62,120,5
1,62,120,5
1,62,120,5
1,67,120,5
1,57,120,5
1,57,120,5
1,57,120,5
1,57,120,5
1,57,120,5
1,57,120,5
1,55,120,5
1,59,120,320
1,59,120,5
1,59,120,5
1,59,120,5
1,59,120,5
1,59,120,5
1,59,120,5
1,59,120,5
1,59,120,5
1,59,120,5
1,59,120,5
1,59,120,5
1,57,120,80
1,57,120,6005
1,57,120,80
1,55,120,80
1,57,120,6725
1,55,120,80
1,59,120,10565
1,57,120,80
1,57,120,6005
1,57,120,80
1,55,120,80
1,57,120,6725
1,55,120,80
1,59,120,10565
1,57,120,80
1,57,120,6005
1,57,120,0
1,55,120,80
1,57,120,0
1,55,120,80
2,57,100,0
2,62,100,0
2,57,100,80
2,62,100,0
2,55,100,5
2,57,100,5
2,62,100,0
2,55,100,5
2,52,100,5
2,50,100,5
2,50,100,245
2,55,100,0
2,50,100,245
2,55,100,0
2,57,100,120
2,62,100,0
2,57,100,80
2,62,100,0
2,55,100,5
2,57,100,5
2,62,100,0
2,55,100,5
2,52,100,5
2,50,100,5
2,50,100,245
2,55,100,0
2,50,100,725
2,55,100,0
2,57,100,485
2,62,100,0
2,57,100,80
2,62,100,0
2,55,100,5
2,57,100,5
2,62,100,0
2,55,100,5
2,52,100,5
2,50,100,5
2,61,100,245
2,65,100,0
2,62,100,5
2,66,100,0
2,62,100,5
2,66,100,0
2,71,100,0
2,60,100,120
2,64,100,0
2,67,100,0
2,60,100,80
2,65,100,0
2,69,100,0
2,60,100,245
2,65,100,0
2,69,100,0
2,60,100,5
2,65,100,0
2,69,100,0
2,60,100,5
2,64,100,0
2,67,100,0
2,59,100,1520
2,64,100,0
2,69,100,0
2,59,100,80
2,64,100,0
2,69,100,0
2,59,100,80
2,64,100,0
2,69,100,0
2,67,100,5
2,64,100,5
2,62,100,5
2,62,100,240
2,67,100,0
2,71,100,0
2,62,100,5
2,67,100,0
2,71,100,0
2,62,100,5
2,67,100,0
2,71,100,0
2,59,100,0
2,64,100,0
2,69,100,0
2,59,100,0
2,64,100,0
2,69,100,0
2,59,100,80
2,64,100,0
2,69,100,0
2,67,100,5
2,64,100,5
2,62,100,5
2,62,100,240
2,67,100,0
2,71,100,0
2,59,100,1040
2,64,100,0
2,69,100,0
2,59,100,80
2,64,100,0
2,69,100,0
2,59,100,5
2,64,100,0
2,69,100,0
2,59,100,5
2,64,100,0
2,69,100,0
2,67,100,5
2,64,100,5
2,62,100,5
2,66,100,0
2,71,100,0
2,62,100,80
2,66,100,0
2,71,100,0
2,62,100,5
2,66,100,0
2,71,100,0
2,62,100,5
2,66,100,0
2,71,100,0
2,69,100,5
2,67,100,5
2,60,100,5
2,65,100,0
2,69,100,0
2,60,100,5
2,65,100,0
2,69,100,0
2,60,100,5
2,64,100,0
2,67,100,0
2,60,100,5
2,65,100,0
2,69,100,0
2,60,100,245
2,65,100,0
2,69,100,0
2,60,100,245
2,65,100,0
2,69,100,0
2,60,100,5
2,64,100,0
2,67,100,0
2,59,100,0
2,64,100,0
2,69,100,0
2,59,100,5
2,64,100,0
2,69,100,0
2,59,100,5
2,64,100,0
2,69,100,0
2,59,100,5
2,64,100,0
2,69,100,0
2,59,100,5
2,64,100,0
2,69,100,0
2,67,100,5
2,64,100,5
2,62,100,5
2,62,100,0
2,67,100,0
2,71,100,0
2,62,100,5
2,67,100,0
2,71,100,0
2,62,100,5
2,67,100,0
2,71,100,0
2,69,100,0
2,69,100,0
2,69,100,0
2,59,100,0
2,64,100,0
2,69,100,0
2,59,100,80
2,64,100,0
2,69,100,0
2,59,100,80
2,64,100,0
2,69,100,0
2,67,100,0
2,64,100,0
2,74,100,0
2,62,100,0
2,67,100,0
2,71,100,0
2,59,100,1040
2,64,100,0
2,69,100,0
2,59,100,80
2,64,100,0
2,69,100,0
2,59,100,5
2,64,100,0
2,69,100,0
2,59,100,5
2,64,100,0
2,69,100,0
2,67,100,0
2,64,100,0
2,62,100,0
2,66,100,0
2,71,100,0
2,62,100,80
2,66,100,0
2,71,100,0
2,62,100,80
2,66,100,0
2,71,100,0
2,69,100,0
2,67,100,0
2,60,100,0
2,65,100,0
2,69,100,0
2,60,100,5
2,64,100,0
2,67,100,0
2,60,100,5
2,65,100,0
2,69,100,0
2,60,100,245
2,65,100,0
2,69,100,0
2,60,100,245
2,65,100,0
2,69,100,0
2,60,100,5
2,64,100,0
2,67,100,0
2,62,100,5
2,67,100,0
2,71,100,0
2,62,100,5
2,67,100,0
2,71,100,0
2,62,100,5
2,67,100,0
2,71,100,0
2,62,100,5
2,67,100,0
2,71,100,0
2,62,100,5
2,67,100,0
2,71,100,0
2,62,100,5
2,67,100,0
2,71,100,0
2,62,100,5
2,67,100,0
2,71,100,0
2,62,100,5
2,67,100,0
2,71,100,0
2,62,100,80
2,67,100,0
2,71,100,0
2,62,100,485
2,67,100,0
2,71,100,0
2,60,100,5
2,65,100,0
2,69,100,0
2,60,100,245
2,65,100,0
2,69,100,0
2,67,100,5
2,71,100,0
2,74,100,0
2,65,100,80
2,69,100,0
2,72,100,0
2,62,100,80
2,67,100,0
2,71,100,0
2,64,100,80
2,69,100,0
2,72,100,0
2,62,100,5
2,67,100,0
2,71,100,0
2,64,100,5
2,69,100,0
2,72,100,0
2,62,100,5
2,67,100,0
2,71,100,0
2,60,100,5
2,65,100,0
2,69,100,0
2,62,100,320
2,67,100,0
2,71,100,0
2,62,100,5
2,67,100,0
2,71,100,0
2,62,100,5
2,67,100,0
2,71,100,0
2,62,100,5
2,67,100,0
2,71,100,0
2,62,100,5
2,67,100,0
2,71,100,0
2,62,100,5
2,67,100,0
2,71,100,0
2,62,100,80
2,67,100,0
2,71,100,0
2,62,100,485
2,67,100,0
2,71,100,0
2,60,100,5
2,65,100,0
2,69,100,0
2,67,100,80
2,71,100,0
2,74,100,0
2,64,100,80
2,69,100,0
2,72,100,0
2,62,100,80
2,67,100,0
2,71,100,0
2,64,100,80
2,69,100,0
2,72,100,0
2,62,100,5
2,67,100,0
2,71,100,0
2,60,100,5
2,65,100,0
2,69,100,0
2,60,100,5
2,65,100,0
2,69,100,0
2,60,100,5
2,64,100,0
2,67,100,0
2,62,100,320
2,67,100,0
2,71,100,0
2,62,100,5
2,67,100,0
2,71,100,0
2,62,100,5
2,67,100,0
2,71,100,0
2,62,100,5
2,67,100,0
2,71,100,0
2,62,100,5
2,67,100,0
2,71,100,0
2,62,100,5
2,67,100,0
2,71,100,0
2,60,100,80
2,65,100,0
2,69,100,0
2,62,100,485
2,67,100,0
2,71,100,0
2,60,100,5
2,65,100,0
2,69,100,0
2,60,100,245
2,65,100,0
2,69,100,0
2,67,100,5
2,71,100,0
2,74,100,0
2,64,100,80
2,69,100,0
2,72,100,0
2,62,100,80
2,67,100,0
2,71,100,0
2,64,100,80
2,69,100,0
2,72,100,0
2,62,100,5
2,67,100,0
2,71,100,0
2,64,100,5
2,69,100,0
2,72,100,0
2,62,100,5
2,67,100,0
2,71,100,0
2,60,100,5
2,65,100,0
2,69,100,0
2,60,100,320
2,65,100,0
2,69,100,0
2,60,100,5
2,65,100,0
2,69,100,0
2,60,100,5
2,65,100,0
2,69,100,0
2,60,100,5
2,65,100,0
2,69,100,0
2,60,100,5
2,65,100,0
2,69,100,0
2,60,100,5
2,65,100,0
2,69,100,0
2,60,100,80
2,64,100,0
2,67,100,0
2,60,100,485
2,65,100,0
2,69,100,0
2,60,100,5
2,64,100,0
2,67,100,0
2,62,100,245
2,67,100,0
2,62,100,5
2,69,100,0
2,62,100,5
2,67,100,0
2,71,100,0
2,62,100,5
2,67,100,0
2,71,100,0
2,62,100,5
2,67,100,0
2,71,100,0
2,62,100,5
2,67,100,0
2,71,100,0
2,62,100,80
2,66,100,0
2,69,100,0
2,62,100,485
2,67,100,0
2,71,100,0
2,62,100,5
2,66,100,0
2,69,100,0
2,57,100,1040
2,62,100,0
2,57,100,80
2,62,100,0
2,55,100,5
2,57,100,5
2,62,100,0
2,55,100,5
2,52,100,5
2,50,100,5
2,50,100,240
2,55,100,0
2,50,100,245
2,55,100,0
2,57,100,120
2,62,100,0
2,57,100,80
2,62,100,0
2,55,100,5
2,57,100,5
2,62,100,0
2,55,100,5
2,52,100,5
2,50,100,5
2,50,100,240
2,55,100,0
2,50,100,725
2,55,100,0
2,57,100,485
2,62,100,0
2,57,100,80
2,62,100,0
2,55,100,5
2,57,100,5
2,62,100,0
2,55,100,5
2,52,100,5
2,50,100,5
2,61,100,240
2,65,100,0
2,62,100,5
2,66,100,0
2,62,100,5
2,66,100,0
2,71,100,0
2,60,100,120
2,64,100,0
2,67,100,0
2,60,100,80
2,65,100,0
2,69,100,0
2,60,100,245
2,65,100,0
2,69,100,0
2,60,100,5
2,65,100,0
2,69,100,0
2,60,100,5
2,64,100,0
2,67,100,0
2,59,100,1520
2,64,100,0
2,69,100,0
2,59,100,80
2,64,100,0
2,69,100,0
2,59,100,80
2,64,100,0
2,69,100,0
2,67,100,5
2,64,100,5
2,62,100,5
2,62,100,240
2,67,100,0
2,71,100,0
2,62,100,5
2,67,100,0
2,71,100,0
2,62,100,5
2,67,100,0
2,71,100,0
2,59,100,560
2,64,100,0
2,69,100,0
2,59,100,80
2,64,100,0
2,69,100,0
2,59,100,80
2,64,100,0
2,69,100,0
2,67,100,5
2,64,100,5
2,62,100,5
2,62,100,240
2,67,100,0
2,71,100,0
2,59,100,1040
2,64,100,0
2,69,100,0
2,59,100,80
2,64,100,0
2,69,100,0
2,59,100,5
2,64,100,0
2,69,100,0
2,59,100,5
2,64,100,0
2,69,100,0
2,67,100,5
2,64,100,5
2,62,100,5
2,66,100,0
2,71,100,0
2,62,100,80
2,66,100,0
2,71,100,0
2,62,100,5
2,66,100,0
2,71,100,0
2,62,100,5
2,66,100,0
2,71,100,0
2,69,100,5
2,67,100,5
2,60,100,5
2,65,100,0
2,69,100,0
2,60,100,5
2,65,100,0
2,69,100,0
2,60,100,5
2,64,100,0
2,67,100,0
2,60,100,5
2,65,100,0
