track,note,velocity,time
1,60,96,17
1,64,87,0
1,57,94,0
1,33,104,0
1,69,86,2
1,69,0,308
1,64,0,6
1,57,0,2
1,60,0,2
1,33,0,2
1,31,106,20
1,55,109,4
1,59,114,0
1,67,92,0
1,62,102,0
1,59,0,92
1,55,0,2
1,62,0,1
1,67,0,3
1,31,0,10
1,33,99,10
1,57,97,4
1,60,106,2
1,64,106,1
1,69,92,2
1,33,0,330
1,29,96,24
1,31,89,57
1,29,0,27
1,69,0,6
1,57,0,7
1,64,0,18
1,60,0,0
1,31,0,1
1,60,97,10
1,64,92,2
1,57,102,1
1,33,127,1
1,69,90,1
1,69,0,334
1,64,0,5
1,33,0,4
1,57,0,1
1,60,0,1
1,31,111,15
1,59,104,4
1,55,89,1
1,62,89,2
1,67,77,1
1,65,76,0
1,65,0,40
1,55,0,45
1,62,0,3
1,67,0,2
1,59,0,0
1,31,0,4
1,57,94,18
1,33,111,0
1,60,106,1
1,64,104,0
1,69,104,2
1,64,0,27
1,69,0,4
1,60,0,1
1,57,0,0
1,33,0,2
1,64,104,438
1,60,97,1
1,67,99,0
1,72,92,1
1,36,104,2
1,72,0,92
1,60,0,21
1,67,0,1
1,64,0,1
1,64,94,14
1,60,81,2
1,67,96,0
1,72,102,0
1,36,0,17
1,36,104,39
1,67,0,4
1,72,0,4
1,64,0,0
1,60,0,5
1,36,0,29
1,59,89,27
1,55,84,1
1,31,109,0
1,62,75,0
1,67,57,2
1,55,0,76
1,62,0,5
1,67,0,2
1,59,0,8
1,59,96,21
1,55,86,2
1,67,97,2
1,62,83,1
1,31,0,10
1,62,0,8
1,55,0,27
1,62,49,3
1,67,0,6
1,59,0,1
1,62,0,1
1,31,104,1
1,31,0,26
1,57,82,4
1,60,92,1
1,64,92,2
1,69,87,0
1,33,84,2
1,69,0,18
1,57,0,3
1,64,0,2
1,60,0,2
1,60,99,28
1,69,92,1
1,57,94,1
1,64,90,0
1,33,0,272
1,33,94,28
1,57,0,4
1,64,0,3
1,60,0,3
1,69,0,21
1,35,99,25
1,33,0,15
1,64,90,47
1,35,0,1
1,60,87,0
1,72,87,0
1,67,89,0
1,36,102,6
1,72,0,70
1,60,0,12
1,67,0,3
1,64,0,5
1,64,99,26
1,60,92,1
1,72,102,1
1,67,102,0
1,36,0,23
1,67,0,32
1,36,102,0
1,72,0,4
1,64,0,3
1,60,0,9
1,36,0,43
1,59,106,19
1,31,99,1
1,55,94,0
1,62,82,2
1,67,71,0
1,65,79,2
1,65,0,33
1,55,0,39
1,67,0,6
1,62,0,1
1,59,0,1
1,67,94,28
1,59,102,0
1,55,94,0
1,62,94,3
1,31,0,16
1,62,0,10
1,31,89,20
1,67,0,13
1,59,0,10
1,55,0,10
1,31,0,12
1,29,106,18
1,57,96,4
1,53,87,1
1,65,99,0
1,60,96,2
1,55,92,0
1,55,0,18
1,65,0,35
1,53,0,14
1,60,0,0
1,57,0,4
1,53,78,21
1,57,87,0
1,65,90,2
1,60,86,1
1,65,0,232
1,53,0,17
1,60,0,5
1,57,0,2
1,57,83,16
1,65,75,2
1,60,84,1
1,53,81,0
1,29,0,18
1,29,83,27
1,53,0,29
1,65,0,1
1,60,0,4
1,57,0,1
1,57,109,37
1,53,102,0
1,65,102,0
1,60,106,0
1,65,0,84
1,53,0,0
1,57,0,9
1,60,0,3
1,57,102,17
1,53,99,1
1,60,92,0
1,65,106,0
1,29,0,12
1,60,0,19
1,53,0,5
1,57,0,3
1,29,78,7
1,65,0,18
1,29,0,57
1,64,102,6
1,67,102,2
1,72,92,1
1,60,109,0
1,36,114,4
1,72,0,74
1,60,0,8
1,67,0,5
1,64,0,3
1,64,99,23
1,60,96,1
1,67,102,1
1,72,104,0
1,36,0,16
1,36,114,31
1,60,0,5
1,64,0,4
1,72,0,2
1,67,0,1
1,36,0,15
1,62,99,13
1,65,109,0
1,69,106,0
1,38,117,0
1,74,97,3
1,62,0,32
1,65,0,4
1,74,0,0
1,69,0,2
1,65,104,23
1,62,97,1
1,74,96,1
1,69,104,0
1,74,0,405
1,69,0,2
1,62,0,5
1,65,0,1
1,38,0,1
1,36,109,20
1,64,82,2
1,67,90,1
1,60,94,0
1,72,86,0
1,72,0,82
1,60,0,10
1,67,0,3
1,64,0,4
1,64,81,23
1,67,96,0
1,65,89,0
1,72,97,0
1,60,96,2
1,36,0,8
1,65,0,31
1,72,0,14
1,36,109,2
1,67,0,1
1,64,0,5
1,60,0,7
1,36,0,50
1,59,90,8
1,57,86,0
1,67,78,0
1,65,78,0
1,53,82,3
1,55,86,0
1,61,47,2
1,60,62,1
1,31,106,4
1,60,0,11
1,61,0,1
1,53,0,2
1,57,0,7
1,65,0,35
1,67,0,4
1,55,0,7
1,59,0,1
1,59,104,34
1,55,97,1
1,67,96,1
1,62,92,0
1,31,0,31
1,31,90,20
1,67,0,17
1,62,0,0
1,55,0,3
1,59,0,8
1,31,0,24
1,29,96,9
1,57,102,4
1,60,92,2
1,53,102,0
1,65,92,1
1,65,0,58
1,53,0,0
1,60,0,6
1,57,0,3
1,57,99,23
1,65,90,1
1,53,94,0
1,60,99,0
1,60,0,29
1,65,0,0
1,53,0,7
1,57,0,0
1,52,106,43
1,48,97,1
1,55,99,1
1,60,78,0
1,55,0,18
1,48,0,3
1,52,0,1
1,60,0,1
1,57,104,46
1,53,102,0
1,60,99,2
1,65,94,1
1,53,0,176
1,65,0,10
1,60,0,4
1,57,0,5
1,29,0,8
1,57,106,21
1,53,102,0
1,60,102,2
1,65,83,0
1,64,90,1
1,29,106,0
1,64,0,5
1,53,0,93
1,65,0,1
1,60,0,3
1,57,0,2
1,57,90,22
1,65,92,2
1,53,82,0
1,60,92,0
1,29,0,40
1,53,0,6
1,57,0,7
1,60,0,1
1,65,0,6
1,31,87,6
1,59,106,18
1,55,102,0
1,62,99,2
1,67,97,1
1,67,0,145
1,62,0,3
1,55,0,1
1,59,0,2
1,59,104,15
1,55,96,1
1,62,104,1
1,67,104,2
1,31,0,23
1,55,0,12
1,59,0,7
1,31,75,0
1,62,0,2
1,67,0,19
1,64,111,47
1,60,109,0
1,67,109,2
1,72,97,0
1,72,0,61
1,60,0,4
1,67,0,13
1,64,0,0
1,72,82,30
1,64,94,4
1,67,89,1
1,60,86,0
1,67,0,12
1,64,0,1
1,72,0,0
1,60,0,2
1,56,96,53
1,52,97,2
1,59,90,1
1,64,61,2
1,31,0,6
1,59,0,2
1,64,0,1
1,52,0,1
1,56,0,1
1,53,94,19
1,57,96,2
1,60,99,0
1,65,89,2
1,29,86,0
1,31,102,1
1,31,0,167
1,60,0,34
1,57,0,13
1,65,0,1
1,53,0,1
1,29,0,3
1,29,106,31
1,57,106,4
1,53,104,1
1,60,102,0
1,65,97,1
1,53,0,84
1,57,0,2
1,60,0,1
1,65,0,6
1,57,90,23
1,65,79,0
1,53,82,0
1,60,86,3
1,53,0,33
1,57,0,8
1,60,0,8
1,29,0,4
1,65,0,1
1,31,104,26
1,62,97,1
1,55,102,0
1,59,109,0
1,67,84,3
1,67,0,137
1,62,0,4
1,59,0,3
1,55,0,2
1,59,106,19
1,55,89,0
1,67,102,2
1,62,102,1
1,62,0,35
1,31,0,0
1,55,0,14
1,59,0,6
1,31,99,2
1,67,0,8
1,31,0,27
1,60,114,18
1,57,106,0
1,69,99,1
1,64,109,0
1,33,124,0
1,69,0,76
1,57,0,7
1,64,0,2
1,60,0,2
1,60,106,25
1,57,99,0
1,69,109,2
1,64,102,0
1,33,0,16
1,64,0,11
1,57,0,17
1,69,0,2
1,60,0,6
1,33,99,1
1,59,117,26
1,33,0,1
1,67,102,0
1,55,111,0
1,62,111,0
1,31,94,6
1,29,96,0
1,55,0,27
1,62,0,2
1,67,0,0
1,59,0,2
1,29,0,9
1,59,114,13
1,55,106,1
1,67,102,0
1,62,106,0
1,31,0,56
1,31,74,12
1,67,0,86
1,62,0,0
1,59,0,7
1,55,0,0
1,31,0,29
1,57,99,20
1,53,104,1
1,60,92,0
1,29,111,0
1,65,75,0
1,64,83,3
1,64,0,29
1,53,0,67
1,60,0,0
1,65,0,2
1,57,0,2
1,65,81,20
1,57,92,0
1,53,87,0
1,60,90,0
1,29,0,20
1,53,0,23
1,29,79,4
1,57,0,3
1,60,0,2
1,65,0,7
1,29,0,15
1,55,102,13
1,59,102,0
1,62,96,0
1,67,94,2
1,31,102,1
1,67,0,127
1,62,0,3
1,55,0,0
1,59,0,2
1,67,94,24
1,59,111,1
1,55,102,0
1,62,102,0
1,31,0,22
1,59,0,28
1,62,0,1
1,55,0,0
1,67,0,1
1,31,97,4
1,31,0,39
1,28,114,27
1,56,70,2
1,52,99,1
1,64,89,1
1,59,87,0
1,52,0,88
1,64,0,1
1,29,53,5
1,56,0,2
1,59,0,1
1,29,0,11
1,56,87,10
1,64,87,3
1,59,94,0
1,52,106,0
1,28,0,10
1,28,92,31
1,52,0,2
1,64,0,6
1,59,0,2
1,56,0,3
1,28,0,13
1,29,117,9
1,53,90,1
1,57,99,0
1,60,102,3
1,65,96,2
1,65,0,208
1,53,0,21
1,60,0,0
1,29,0,3
1,57,0,4
1,57,97,22
1,60,99,2
1,53,99,1
1,65,97,0
1,29,104,0
1,65,0,81
1,53,0,2
1,57,0,9
1,60,0,2
1,57,87,25
1,65,87,2
1,53,87,0
1,60,81,0
1,29,0,11
1,60,0,16
1,53,0,10
1,57,0,7
1,65,0,4
1,29,102,1
1,29,0,28
1,55,94,4
1,31,106,2
1,59,111,1
1,62,99,0
1,67,87,0
1,67,0,126
1,59,0,5
1,62,0,4
1,55,0,0
1,59,99,28
1,62,94,0
1,55,89,0
1,67,90,3
1,31,0,16
1,31,99,32
1,55,0,3
1,59,0,9
1,67,0,17
1,62,0,0
1,31,0,17
1,33,114,22
1,60,114,2
1,64,106,0
1,57,106,0
1,69,94,1
1,69,0,75
1,57,0,6
1,60,0,4
1,64,0,3
1,60,104,27
1,57,96,0
1,64,102,0
1,69,97,3
1,33,0,14
1,57,0,21
1,60,0,7
1,69,0,1
1,64,0,0
1,63,103,35
1,59,104,1
1,66,99,0
1,35,120,0
1,71,81,0
1,69,92,2
1,69,0,11
1,59,0,108
1,71,0,0
1,63,0,13
1,66,0,1
1,63,103,30
1,59,99,1
1,66,96,1
1,71,106,0
1,35,0,14
1,59,0,39
1,35,106,0
1,71,0,15
1,63,0,5
1,66,0,10
1,35,0,29
1,64,104,5
1,60,109,1
1,67,104,0
1,72,97,2
1,36,120,2
1,72,0,75
1,60,0,5
1,64,0,9
1,67,0,1
1,64,104,25
1,60,102,1
1,67,109,0
1,72,86,2
1,36,0,24
1,67,0,28
1,72,0,4
1,60,0,1
1,64,0,0
1,36,102,3
1,36,0,42
1,29,94,27
1,31,106,0
1,59,120,3
1,67,97,1
1,62,109,0
1,55,117,0
1,29,0,29
1,67,0,53
1,55,0,1
1,59,0,5
1,62,0,1
1,59,109,26
1,55,99,1
1,62,97,1
1,67,99,1
1,31,0,14
1,55,0,34
1,31,106,4
1,59,0,4
1,62,0,2
1,67,0,5
1,31,0,20
1,60,106,12
1,57,83,0
1,55,89,1
1,64,72,2
1,62,76,1
1,33,76,0
1,69,78,1
1,67,76,0
1,62,0,12
1,67,0,3
1,64,0,1
1,55,0,1
1,57,0,1
1,69,0,1
1,60,0,3
1,60,106,37
1,57,99,0
1,64,99,1
1,69,94,1
1,33,0,250
1,60,0,37
1,57,0,0
1,33,92,2
1,64,0,3
1,69,0,21
1,35,90,40
1,33,0,17
1,64,104,37
1,60,96,0
1,35,0,2
1,67,97,0
1,72,83,1
1,71,79,1
1,36,114,0
1,71,0,29
1,60,0,54
1,72,0,2
1,64,0,5
1,67,0,1
1,64,104,26
1,67,102,1
1,60,96,0
1,72,102,0
1,36,0,20
1,72,0,33
1,67,0,0
1,64,0,2
1,36,90,4
1,60,0,4
1,36,0,40
1,59,106,26
1,55,102,0
1,31,111,2
1,67,90,0
1,62,96,0
1,55,0,76
1,67,0,2
1,62,0,4
1,59,0,2
1,59,102,36
1,55,92,1
1,62,90,0
1,67,92,0
1,31,0,23
1,62,0,23
1,55,0,8
1,67,0,2
1,31,90,0
1,59,0,5
1,31,0,39
1,29,109,18
1,57,109,1
1,53,102,2
1,65,90,0
1,60,102,1
1,65,0,304
1,53,0,5
1,60,0,2
1,57,0,4
1,57,83,36
1,53,86,2
1,65,89,1
1,60,83,2
1,29,0,30
1,29,94,37
1,65,0,10
1,53,0,1
1,60,0,1
1,57,0,4
1,57,104,40
1,53,99,1
1,65,102,0
1,60,102,1
1,53,0,68
1,65,0,2
1,60,0,8
1,57,0,2
1,53,82,32
1,57,89,0
1,65,94,3
1,60,74,3
1,29,0,13
1,60,0,2
1,53,0,19
1,57,0,5
1,29,60,13
1,31,60,2
1,65,0,8
1,31,0,36
1,36,104,17
1,64,111,1
1,60,111,0
1,29,0,2
1,67,79,1
1,71,75,1
1,72,86,0
1,65,83,0
1,65,0,11
1,67,0,8
1,67,9,34
1,71,0,9
1,72,0,1
1,60,0,3
1,64,0,10
1,67,0,2
1,60,83,29
1,64,94,0
1,72,92,2
1,67,86,2
1,36,0,9
1,67,0,7
1,36,96,25
1,35,89,2
1,60,0,7
1,67,52,1
1,64,0,2
1,35,0,3
1,72,0,0
1,67,0,2
1,36,0,14
1,38,109,14
1,62,76,0
1,65,87,1
1,69,83,1
1,74,78,3
1,74,0,19
1,69,0,3
1,62,0,3
1,65,0,4
1,65,90,30
1,62,81,1
1,74,90,0
1,69,87,0
1,69,0,354
1,62,0,45
1,74,0,6
1,65,0,17
1,38,0,7
1,64,76,17
1,67,81,1
1,60,92,0
1,72,77,0
1,36,89,0
1,38,81,3
1,38,0,40
1,72,0,34
1,67,0,8
1,64,0,5
1,60,0,1
1,64,102,29
1,60,94,0
1,67,99,2
1,72,99,0
1,36,0,20
1,67,0,35
1,72,0,1
1,64,0,3
1,36,92,2
1,60,0,5
1,36,0,58
1,59,111,10
1,67,89,1
1,55,109,0
1,62,97,0
1,31,99,9
1,55,0,59
1,67,0,4
1,59,0,2
1,62,0,2
1,67,94,32
1,55,97,1
1,59,109,0
1,62,96,1
1,62,0,20
1,31,0,20
1,31,71,11
1,62,41,6
1,67,0,20
1,55,0,3
1,59,0,4
1,62,0,2
1,31,0,6
1,29,106,26
1,57,104,2
1,65,90,0
1,53,104,0
1,60,104,0
1,60,0,139
1,65,0,3
1,57,0,2
1,53,0,5
1,52,102,41
1,55,87,2
1,60,67,0
1,48,92,0
1,48,0,19
1,55,0,1
1,52,0,2
1,60,0,3
1,57,96,42
1,53,94,0
1,60,92,2
1,65,73,2
1,53,0,167
1,65,0,5
1,57,0,2
1,60,0,2
1,29,0,8
1,57,111,36
1,53,111,1
1,65,99,1
1,60,111,0
1,29,114,1
1,65,0,81
1,53,0,1
1,57,0,5
1,60,0,6
1,57,109,24
1,65,99,2
1,60,109,0
1,53,109,0
1,29,0,15
1,60,0,11
1,60,28,11
1,53,0,5
1,65,0,8
1,57,0,5
1,29,97,2
1,60,0,5
1,59,109,25
1,62,102,0
1,55,109,0
1,67,102,0
1,31,102,8
1,29,0,6
1,67,0,109
1,55,0,5
1,62,0,2
1,59,0,1
1,59,120,27
1,55,117,2
1,62,111,1
1,67,106,0
1,31,0,20
1,31,104,35
1,55,0,22
1,59,0,10
1,62,0,6
1,67,0,5
1,60,106,27
1,64,109,0
1,67,106,0
1,36,104,1
1,31,0,1
1,71,59,4
1,69,54,1
1,69,0,3
1,71,0,0
1,60,0,60
1,67,0,4
1,64,0,4
1,72,90,31
1,64,87,1
1,67,102,1
1,60,90,0
1,36,0,3
1,60,0,12
1,67,0,1
1,64,0,2
1,72,0,0
1,36,106,16
1,36,0,34
1,52,89,7
1,56,62,0
1,53,97,0
1,57,94,3
1,60,77,0
1,65,86,0
1,64,84,0
1,59,92,0
1,59,0,10
1,60,0,1
1,56,0,0
1,53,0,2
1,57,0,0
1,52,0,0
