track,note,velocity,time
1,71,116,10304
1,71,0,50
1,71,116,10
1,71,0,70
1,72,116,50
1,72,0,105
1,71,116,15
1,71,0,75
1,71,116,45
1,71,0,265
1,71,116,155
1,71,0,57
1,76,116,3
1,76,0,108
1,79,116,12
1,79,0,66
1,83,116,54
1,83,0,101
1,81,116,19
1,81,0,110
1,79,116,10
1,79,0,55
1,81,116,5
1,81,0,175
1,83,116,65
1,83,0,110
1,81,116,10
1,81,0,45
1,81,116,15
1,81,0,106
1,79,116,14
1,79,0,80
1,79,116,40
1,79,0,115
1,78,116,5
1,78,0,45
1,78,116,15
1,78,0,76
1,78,116,44
1,78,0,155
1,83,116,85
1,83,0,70
1,81,116,50
1,81,0,45
1,81,116,15
1,81,0,60
1,79,116,60
1,79,0,61
1,79,116,59
1,79,0,115
1,78,116,5
1,78,0,55
1,76,116,5
1,76,0,100
1,78,116,20
1,78,0,70
1,78,116,50
1,78,0,65
1,76,116,55
1,76,0,100
1,71,116,140
1,71,0,50
1,71,116,10
1,71,0,70
1,72,116,50
1,72,0,115
1,71,116,5
1,71,0,60
1,69,116,0
1,71,116,60
1,69,0,1
1,71,0,275
1,71,116,144
1,71,0,60
1,76,116,0
1,76,0,90
1,79,116,30
1,79,0,100
1,83,116,20
1,83,0,95
1,81,116,25
1,81,0,41
1,81,116,19
1,81,0,250
1,83,116,110
1,83,0,95
1,81,116,25
1,81,0,45
1,81,116,15
1,81,0,70
1,79,116,50
1,79,0,75
1,79,116,45
1,79,0,105
1,78,116,15
1,78,0,45
1,78,116,15
1,78,0,80
1,78,116,40
1,78,0,155
1,79,116,145
1,79,0,50
1,81,116,10
1,81,0,45
1,81,116,15
1,81,0,150
1,79,116,30
1,79,0,26
1,81,116,4
1,81,0,25
1,83,116,5
1,83,0,190
1,83,116,50
1,83,0,20
1,83,116,40
1,81,116,60
1,83,0,10
1,81,0,50
1,79,116,0
1,79,0,25
1,83,116,35
1,83,0,185
1,79,116,355
1,79,0,40
1,79,116,20
1,79,0,25
1,79,116,35
1,79,0,15
1,79,116,45
1,79,0,155
1,79,116,25
1,79,0,30
1,79,116,30
1,79,0,105
1,78,116,15
1,78,0,310
1,78,116,110
1,78,0,45
1,78,116,15
1,78,0,35
1,78,116,25
1,78,0,30
1,78,116,30
1,78,0,120
1,76,116,0
1,76,0,56
1,78,116,4
1,78,0,60
1,79,116,0
1,79,0,145
1,79,116,395
1,79,0,46
1,79,116,14
1,79,0,40
1,79,116,20
1,79,0,40
1,79,116,20
1,79,0,115
1,81,116,5
1,81,0,56
1,79,116,4
1,79,0,50
1,79,116,10
1,79,0,115
1,78,116,5
1,78,0,290
1,78,116,130
1,78,0,41
1,78,116,19
1,78,0,40
1,78,116,20
1,78,0,40
1,78,116,20
1,78,0,115
1,76,116,5
1,76,0,56
1,78,116,4
1,79,116,60
1,78,0,5
1,79,0,20
1,78,116,5
1,78,0,16
1,76,116,14
1,76,0,151
1,79,116,269
1,79,0,100
1,79,116,20
1,79,0,45
1,79,116,15
1,79,0,36
1,79,116,24
1,79,0,115
1,81,116,5
1,81,0,55
1,79,116,5
1,79,0,41
1,79,116,19
1,79,0,115
1,78,116,5
1,78,0,45
1,78,116,15
1,78,0,260
1,78,116,100
1,78,0,50
1,78,116,10
1,78,0,40
1,78,116,20
1,78,0,45
1,78,116,15
1,78,0,110
1,76,116,10
1,78,116,60
1,76,0,5
1,78,0,55
1,79,116,0
1,79,0,306
1,79,116,234
1,79,0,60
1,76,116,0
1,78,116,60
1,76,0,5
1,78,0,55
1,79,116,0
1,79,0,155
1,79,116,25
1,79,0,45
1,79,116,15
1,79,0,105
1,78,116,15
1,78,0,296
1,78,116,124
1,78,0,45
1,78,116,15
1,78,0,41
1,78,116,19
1,78,0,55
1,79,116,5
1,79,0,111
1,78,116,9
1,78,0,60
1,76,116,0
1,78,116,30
1,76,0,1
1,78,0,89
1,76,116,0
1,76,0,471
1,71,116,5529
1,71,0,50
1,71,116,10
1,71,0,70
1,72,116,50
1,72,0,105
1,71,116,15
1,71,0,75
1,71,116,45
1,71,0,265
1,71,116,155
1,71,0,57
1,76,116,3
1,76,0,71
1,79,116,49
1,79,0,66
1,83,116,54
1,83,0,101
1,81,116,19
1,81,0,110
1,79,116,10
1,79,0,55
1,81,116,5
1,81,0,175
1,83,116,65
1,83,0,110
1,81,116,10
1,81,0,45
1,81,116,15
1,81,0,106
1,79,116,14
1,79,0,80
1,79,116,40
1,79,0,115
1,78,116,5
1,78,0,45
1,78,116,15
1,78,0,76
1,78,116,44
1,78,0,155
1,83,116,85
1,83,0,70
1,81,116,50
1,81,0,45
1,81,116,15
1,81,0,60
1,79,116,60
1,79,0,61
1,79,116,59
1,79,0,115
1,78,116,5
1,78,0,55
1,76,116,5
1,76,0,100
1,78,116,20
1,78,0,70
1,78,116,50
1,78,0,65
1,76,116,55
1,76,0,100
1,71,116,140
1,71,0,50
1,71,116,10
1,71,0,70
1,72,116,50
1,72,0,115
1,71,116,5
1,71,0,60
1,69,116,0
1,71,116,60
1,69,0,1
1,71,0,275
1,71,116,144
1,71,0,60
1,76,116,0
1,76,0,90
1,79,116,30
1,79,0,100
1,83,116,20
1,83,0,95
1,81,116,25
1,81,0,41
1,81,116,19
1,81,0,250
1,83,116,110
1,83,0,95
1,81,116,25
1,81,0,45
1,81,116,15
1,81,0,70
1,79,116,50
1,79,0,75
1,79,116,45
1,79,0,105
1,78,116,15
1,78,0,45
1,78,116,15
1,78,0,80
1,78,116,40
1,78,0,155
1,79,116,145
1,79,0,50
1,81,116,10
1,81,0,45
1,81,116,15
1,81,0,150
1,79,116,30
1,79,0,26
1,81,116,4
1,81,0,25
1,83,116,5
1,83,0,190
1,83,116,50
1,83,0,20
1,83,116,40
1,81,116,60
1,83,0,10
1,81,0,50
1,79,116,0
1,79,0,55
1,83,116,5
1,83,0,185
1,79,116,355
1,79,0,40
1,79,116,20
1,79,0,25
1,79,116,35
1,79,0,15
1,79,116,45
1,79,0,155
1,79,116,25
1,79,0,30
1,79,116,30
1,79,0,105
1,78,116,15
1,78,0,310
1,78,116,110
1,78,0,45
1,78,116,15
1,78,0,35
1,78,116,25
1,78,0,30
1,78,116,30
1,78,0,120
1,76,116,0
1,76,0,56
1,78,116,4
1,78,0,60
1,79,116,0
1,79,0,145
1,79,116,395
1,79,0,46
1,79,116,14
1,79,0,40
1,79,116,20
1,79,0,40
1,79,116,20
1,79,0,115
1,81,116,5
1,81,0,56
1,79,116,4
1,79,0,50
1,79,116,10
1,79,0,115
1,78,116,5
1,78,0,290
1,78,116,130
1,78,0,41
1,78,116,19
1,78,0,40
1,78,116,20
1,78,0,40
1,78,116,20
1,78,0,115
1,76,116,5
1,76,0,56
1,78,116,4
1,79,116,60
1,78,0,5
1,79,0,20
1,78,116,5
1,78,0,16
1,76,116,14
1,76,0,151
1,79,116,269
1,79,0,100
1,79,116,20
1,79,0,45
1,79,116,15
1,79,0,36
1,79,116,24
1,79,0,115
1,81,116,5
1,81,0,55
1,79,116,5
1,79,0,41
1,79,116,19
1,79,0,115
1,78,116,5
1,78,0,45
1,78,116,15
1,78,0,260
1,78,116,100
1,78,0,50
1,78,116,10
1,78,0,40
1,78,116,20
1,78,0,45
1,78,116,15
1,78,0,110
1,76,116,10
1,78,116,60
1,76,0,5
1,78,0,55
1,79,116,0
1,79,0,306
1,79,116,234
1,79,0,60
1,76,116,0
1,78,116,60
1,76,0,5
1,78,0,55
1,79,116,0
1,79,0,155
1,79,116,25
1,79,0,45
1,79,116,15
1,79,0,105
1,78,116,15
1,78,0,296
1,78,116,124
1,78,0,45
1,78,116,15
1,78,0,41
1,78,116,19
1,78,0,55
1,79,116,5
1,79,0,111
1,78,116,9
1,78,0,60
1,76,116,0
1,78,116,30
1,76,0,1
1,78,0,89
1,76,116,0
1,76,0,471
1,79,116,13449
1,79,0,40
1,79,116,20
1,79,0,25
1,79,116,35
1,79,0,15
1,79,116,45
1,79,0,155
1,79,116,25
1,79,0,30
1,79,116,30
1,79,0,105
1,78,116,15
1,78,0,310
1,78,116,110
1,78,0,45
1,78,116,15
1,78,0,35
1,78,116,25
1,78,0,30
1,78,116,30
1,78,0,120
1,76,116,0
1,76,0,56
1,78,116,4
1,78,0,60
1,79,116,0
1,79,0,145
1,79,116,395
1,79,0,46
1,79,116,14
1,79,0,40
1,79,116,20
1,79,0,40
1,79,116,20
1,79,0,115
1,81,116,5
1,81,0,56
1,79,116,4
1,79,0,50
1,79,116,10
1,79,0,115
1,78,116,5
1,78,0,290
1,78,116,130
1,78,0,41
1,78,116,19
1,78,0,40
1,78,116,20
1,78,0,40
1,78,116,20
1,78,0,115
1,76,116,5
1,76,0,56
1,78,116,4
1,79,116,60
1,78,0,5
1,79,0,20
1,78,116,5
1,78,0,16
1,76,116,14
1,76,0,151
1,79,116,269
1,79,0,100
1,79,116,20
1,79,0,45
1,79,116,15
1,79,0,36
1,79,116,24
1,79,0,115
1,81,116,5
1,81,0,55
1,79,116,5
1,79,0,41
1,79,116,19
1,79,0,115
1,78,116,5
1,78,0,45
1,78,116,15
1,78,0,260
1,78,116,100
1,78,0,50
1,78,116,10
1,78,0,40
1,78,116,20
1,78,0,45
1,78,116,15
1,78,0,110
1,76,116,10
1,78,116,60
1,76,0,5
1,78,0,55
1,79,116,0
1,79,0,306
1,79,116,234
1,79,0,60
1,76,116,0
1,78,116,60
1,76,0,5
1,78,0,55
1,79,116,0
1,79,0,155
1,79,116,25
1,79,0,45
1,79,116,15
1,79,0,105
1,78,116,15
1,78,0,296
1,78,116,124
1,78,0,45
1,78,116,15
1,78,0,41
1,78,116,19
1,78,0,55
1,79,116,5
1,79,0,111
1,78,116,9
1,78,0,60
1,76,116,0
1,78,116,30
1,76,0,1
1,78,0,89
1,76,116,0
1,76,0,471
1,76,116,1149
1,83,116,60
1,76,0,25
1,83,0,60
1,76,116,5
1,76,0,60
1,76,116,30
1,76,0,45
1,76,116,15
1,76,0,71
1,79,116,409
1,79,0,40
1,79,116,20
1,79,0,25
1,79,116,35
1,79,0,15
1,79,116,45
1,79,0,155
1,79,116,25
1,79,0,30
1,79,116,30
1,79,0,105
1,78,116,15
1,78,0,310
1,78,116,110
1,78,0,45
1,78,116,15
1,78,0,35
1,78,116,25
1,78,0,30
1,78,116,30
1,78,0,120
1,76,116,0
1,76,0,56
1,78,116,4
1,78,0,60
1,79,116,0
1,79,0,145
1,79,116,395
1,79,0,46
1,79,116,14
1,79,0,40
1,79,116,20
1,79,0,40
1,79,116,20
1,79,0,115
1,81,116,5
1,81,0,56
1,79,116,4
1,79,0,50
1,79,116,10
1,79,0,115
1,78,116,5
1,78,0,290
1,78,116,130
1,78,0,41
1,78,116,19
1,78,0,40
1,78,116,20
1,78,0,40
1,78,116,20
1,78,0,115
1,76,116,5
1,76,0,56
1,78,116,4
1,79,116,60
1,78,0,5
1,79,0,20
1,78,116,5
1,78,0,16
1,76,116,14
1,76,0,151
1,79,116,269
1,79,0,100
1,79,116,20
1,79,0,45
1,79,116,15
1,79,0,36
1,79,116,24
1,79,0,115
1,81,116,5
1,81,0,55
1,79,116,5
1,79,0,41
1,79,116,19
1,79,0,115
1,78,116,5
1,78,0,45
1,78,116,15
1,78,0,12
1,78,116,15
1,78,0,30
1,78,116,10
1,78,0,6
1,78,116,17
1,78,0,36
1,78,116,2
1,78,0,87
1,76,106,10
1,78,106,56
1,76,0,5
1,78,0,46
1,79,106,0
1,79,0,7
1,79,106,5
1,79,0,60
1,76,106,0
1,78,96,51
1,76,0,5
1,78,0,50
1,79,96,0
1,79,0,4
1,79,96,25
1,79,0,25
1,79,96,15
1,79,0,67
1,78,96,8
1,78,0,33
1,78,86,60
1,78,0,14
1,78,86,15
1,78,0,41
1,78,86,19
1,78,0,30
1,79,86,5
1,79,0,19
1,78,76,9
1,78,0,23
1,76,76,0
1,78,76,18
1,76,0,1
1,78,0,51
1,76,76,0
1,76,0,162
2,28,112,464
2,28,0,445
2,28,112,35
2,28,0,415
2,28,112,65
2,28,0,445
2,28,112,35
2,28,0,170
2,40,112,5
2,40,0,25
2,40,112,5
2,40,0,85
2,28,112,5
2,28,0,430
2,28,112,50
2,28,0,390
2,40,112,30
2,40,0,15
2,40,112,45
2,40,0,765
2,40,112,45
2,40,0,20
2,40,112,10
2,40,0,25
2,40,112,35
2,40,0,55
2,28,112,5
2,28,0,430
2,28,112,50
2,28,0,415
2,40,112,5
2,40,0,15
2,40,112,45
2,40,0,460
2,45,112,0
2,43,112,60
2,45,0,10
2,45,112,50
2,43,0,10
2,45,0,45
2,47,112,65
2,47,0,60
2,45,112,0
2,47,112,60
2,45,0,6
2,47,0,64
2,40,112,50
2,40,0,25
2,40,112,35
2,40,0,15
2,40,112,45
2,40,0,16
2,40,112,44
2,40,0,16
2,40,112,44
2,40,0,20
2,40,112,40
2,40,0,15
2,40,112,45
2,40,0,65
2,40,112,55
2,40,0,16
2,40,112,44
2,40,0,15
2,40,112,45
2,40,0,20
2,40,112,40
2,40,0,15
2,40,112,45
2,40,0,20
2,40,112,40
2,40,0,20
2,38,112,40
2,38,0,75
2,36,112,45
2,36,0,20
2,36,112,40
2,36,0,15
2,36,112,45
2,36,0,15
2,36,112,45
2,36,0,15
2,36,112,45
2,36,0,15
2,36,112,45
2,36,0,15
2,36,112,45
2,36,0,50
2,35,112,10
2,35,0,55
2,33,112,5
2,33,0,15
2,33,112,45
2,33,0,15
2,33,112,45
2,33,0,16
2,33,112,44
2,33,0,15
2,35,112,45
2,35,0,20
2,35,112,40
2,35,0,15
2,35,112,45
2,35,0,15
2,35,112,45
2,35,0,20
2,40,112,40
2,40,0,25
2,40,112,35
2,40,0,15
2,40,112,45
2,40,0,16
2,40,112,44
2,40,0,16
2,40,112,44
2,40,0,20
2,40,112,40
2,40,0,15
2,40,112,45
2,40,0,65
2,40,112,55
2,40,0,16
2,40,112,44
2,40,0,15
2,40,112,45
2,40,0,20
2,40,112,40
2,40,0,15
2,40,112,45
2,40,0,20
2,40,112,40
2,40,0,20
2,38,112,40
2,38,0,75
2,36,112,45
2,36,0,20
2,36,112,40
2,36,0,15
2,36,112,45
2,36,0,15
2,36,112,45
2,36,0,15
2,36,112,45
2,36,0,15
2,36,112,45
2,36,0,15
2,36,112,45
2,36,0,50
2,35,112,10
2,35,0,55
2,33,112,5
2,33,0,15
2,33,112,45
2,33,0,15
2,33,112,45
2,33,0,16
2,33,112,44
2,33,0,15
2,35,112,45
2,35,0,20
2,35,112,40
2,35,0,15
2,35,112,45
2,35,0,15
2,35,112,45
2,35,0,20
2,28,112,40
2,28,0,30
2,28,112,30
2,28,0,25
2,28,112,95
2,28,0,21
2,28,112,39
2,28,0,20
2,28,112,40
2,28,0,16
2,28,112,44
2,28,0,85
2,30,112,35
2,30,0,21
2,30,112,39
2,30,0,31
2,30,112,89
2,30,0,20
2,30,112,40
2,30,0,30
2,30,112,30
2,28,112,60
2,30,0,1
2,28,0,59
2,30,112,0
2,30,0,45
2,31,112,15
2,31,0,30
2,31,112,30
2,31,0,40
2,31,112,80
2,31,0,20
2,31,112,40
2,31,0,30
2,31,112,30
2,30,112,60
2,31,0,5
2,30,0,50
2,28,112,5
2,28,0,50
2,33,112,10
2,33,0,40
2,33,112,20
2,33,0,30
2,33,112,90
2,33,0,25
2,33,112,35
2,33,0,60
2,35,112,0
2,36,112,60
2,35,0,10
2,36,0,35
2,37,112,15
2,37,0,60
2,38,112,0
2,38,0,95
2,38,112,25
2,38,0,60
2,45,112,0
2,50,112,60
2,45,0,1
2,45,112,59
2,50,0,10
2,45,0,46
2,50,112,4
2,38,112,60
2,50,0,5
2,38,0,135
2,38,112,40
2,45,112,60
2,38,0,10
2,50,112,50
2,45,0,5
2,45,112,55
2,50,0,5
2,45,0,55
2,50,112,0
2,33,112,60
2,50,0,5
2,33,0,111
2,40,112,4
2,45,112,60
2,40,0,1
2,45,0,79
