track,note,velocity,time
0,42,68,232
0,38,111,0
0,38,99,0
0,50,92,0
0,42,71,16
0,50,78,0
0,62,93,0
0,36,113,16
0,42,71,0
0,38,110,0
0,38,99,0
0,50,92,0
0,42,70,16
0,50,79,0
0,62,91,0
0,42,68,16
0,38,108,0
0,38,98,0
0,50,92,0
0,42,70,16
0,50,78,0
0,62,92,0
0,36,116,16
0,42,70,0
0,38,111,0
0,38,98,0
0,50,91,0
0,42,70,16
0,50,79,0
0,62,91,0
0,42,70,16
0,38,109,0
0,38,97,0
0,71,109,0
0,74,111,0
0,79,111,0
0,50,89,0
0,42,67,16
0,50,80,0
0,62,89,0
0,36,116,16
0,42,67,0
0,38,111,0
0,38,97,0
0,69,110,0
0,74,110,0
0,78,108,0
0,50,92,0
0,42,69,16
0,50,81,0
0,71,111,0
0,74,109,0
0,79,109,0
0,62,90,0
0,42,69,16
0,38,109,0
0,38,98,0
0,50,91,0
0,38,113,16
0,42,71,0
0,50,78,0
0,62,93,0
0,36,114,16
0,38,112,0
0,42,71,0
0,38,111,0
0,38,98,0
0,67,107,0
0,71,107,0
0,76,108,0
0,50,91,0
0,38,112,16
0,42,71,0
0,50,79,0
0,69,107,0
0,74,110,0
0,78,111,0
0,62,89,0
0,36,114,16
0,42,71,0
0,38,110,0
0,38,99,0
0,50,91,0
0,42,71,16
0,50,79,0
0,62,89,0
0,38,116,16
0,42,68,0
0,38,111,0
0,38,97,0
0,50,92,0
0,62,111,0
0,42,69,16
0,50,77,0
0,62,93,0
0,36,113,16
0,42,70,0
0,38,109,0
0,38,99,0
0,50,93,0
0,42,67,16
0,50,80,0
0,62,92,0
0,38,113,16
0,42,67,0
0,38,107,0
0,38,100,0
0,50,89,0
0,62,110,0
0,42,67,16
0,50,80,0
0,62,89,0
0,36,113,16
0,42,70,0
0,38,110,0
0,38,98,0
0,71,107,0
0,74,110,0
0,79,111,0
0,50,93,0
0,42,71,16
0,50,81,0
0,62,92,0
0,38,116,16
0,42,71,0
0,38,109,0
0,38,99,0
0,69,107,0
0,74,111,0
0,78,107,0
0,50,89,0
0,42,70,16
0,50,78,0
0,71,107,0
0,74,110,0
0,79,108,0
0,62,89,0
0,36,114,16
0,42,69,0
0,38,111,0
0,38,100,0
0,50,93,0
0,42,67,16
0,41,115,0
0,50,80,0
0,62,89,0
0,38,115,16
0,42,71,0
0,41,114,0
0,38,107,0
0,38,101,0
0,67,108,0
0,71,107,0
0,76,111,0
0,50,90,0
0,42,71,16
0,41,113,0
0,50,81,0
0,69,107,0
0,74,109,0
0,78,107,0
0,62,89,0
0,36,114,16
0,42,70,0
0,49,116,0
0,38,107,0
0,38,98,0
0,42,67,16
0,50,78,0
0,38,113,16
0,42,69,0
0,38,108,0
0,38,98,0
0,74,110,0
0,78,110,0
0,83,108,0
0,42,69,16
0,50,80,0
0,72,109,0
0,76,109,0
0,81,110,0
0,62,91,0
0,66,91,0
0,69,93,0
0,36,116,16
0,42,68,0
0,38,108,0
0,38,99,0
0,42,70,16
0,50,81,0
0,38,109,92
0,38,114,0
0,42,71,0
0,38,108,0
0,38,100,0
0,42,67,16
0,37,111,0
0,50,77,0
0,76,111,0
0,79,111,0
0,82,108,0
0,86,108,0
0,64,91,0
0,70,89,0
0,74,89,0
0,36,112,16
0,42,71,0
0,36,107,0
0,36,98,0
0,42,69,16
0,48,77,0
0,38,113,16
0,42,67,0
0,36,110,0
0,36,97,0
0,42,71,16
0,48,78,0
0,36,114,16
0,42,67,0
0,36,107,0
0,36,97,0
0,67,114,0
0,42,67,16
0,48,78,0
0,36,108,16
0,38,114,0
0,42,67,0
0,36,111,0
0,36,99,0
0,36,114,16
0,42,67,0
0,48,78,0
0,36,112,16
0,42,69,0
0,41,108,0
0,41,99,0
0,75,108,0
0,79,108,0
0,82,107,0
0,86,111,0
0,70,93,0
0,74,91,0
0,42,70,16
0,53,80,0
0,75,107,0
0,79,111,0
0,82,107,0
0,86,107,0
0,70,91,0
0,74,93,0
0,38,113,16
0,42,71,0
0,41,100,0
0,75,109,0
0,79,109,0
0,82,108,0
0,86,110,0
0,70,90,0
0,74,93,0
0,42,71,16
0,29,108,0
0,53,80,0
0,75,108,0
0,79,107,0
0,82,107,0
0,86,110,0
0,70,92,0
0,74,90,0
0,36,116,16
0,42,69,0
0,29,108,0
0,41,99,0
0,75,111,0
0,79,111,0
0,82,107,0
0,86,107,0
0,70,90,0
0,74,89,0
0,42,68,16
0,53,79,0
0,38,113,16
0,42,71,0
0,41,110,0
0,41,97,0
0,75,109,0
0,79,108,0
0,84,107,0
0,42,67,16
0,41,110,0
0,53,79,0
0,75,111,0
0,79,107,0
0,84,110,0
0,72,90,0
0,36,114,16
0,42,69,0
0,34,111,0
0,34,99,0
0,42,68,16
0,46,78,0
0,74,111,0
0,77,109,0
0,82,110,0
0,62,89,0
0,65,93,0
0,70,91,0
0,38,113,16
0,42,67,0
0,34,98,0
0,42,69,16
0,34,107,0
0,46,80,0
0,36,113,16
0,46,112,0
0,36,111,0
0,36,98,0
0,48,81,16
0,38,114,16
0,38,113,16
0,37,108,0
0,37,97,0
0,38,113,16
0,49,78,0
0,36,113,16
0,42,69,0
0,38,108,0
0,57,90,0
0,62,90,0
0,66,90,0
0,42,69,188
0,66,111,0
0,38,114,16
0,42,67,0
0,57,93,0
0,66,110,0
0,42,69,112
0,38,108,0
0,57,91,0
0,62,90,0
0,66,92,0
0,66,111,0
0,36,116,16
0,42,70,0
0,38,109,0
0,57,89,20
0,42,69,8
0,62,113,0
0,38,113,16
0,42,71,0
0,62,93,0
0,66,92,0
0,62,111,0
0,42,67,16
0,30,111,0
0,62,113,0
0,36,114,16
0,42,71,0
0,30,108,0
0,54,92,0
0,62,91,0
0,66,92,0
0,42,67,0
0,57,113,0
0,38,112,16
0,42,69,0
0,54,90,0
0,57,111,0
0,42,71,112
0,30,109,0
0,54,90,0
0,62,92,0
0,66,90,0
0,57,112,0
0,36,116,16
0,42,67,0
0,30,110,0
0,42,71,16
0,54,90,0
0,57,112,0
0,38,116,16
0,42,69,0
0,62,93,0
0,54,114,0
0,42,69,16
0,31,107,0
0,55,114,0
0,36,112,16
0,42,68,0
0,31,107,0
0,55,92,0
0,62,89,0
0,42,68,188
0,38,115,188
0,42,70,0
0,42,71,112
0,31,109,0
0,62,89,0
0,36,115,16
0,42,68,0
0,31,107,0
0,50,89,0
0,55,92,0
0,59,113,0
0,42,71,36
0,38,115,16
0,42,67,0
0,42,70,188
0,36,116,188
0,42,70,0
0,31,109,0
0,50,90,0
0,55,90,0
0,62,92,0
0,42,71,188
0,67,109,0
0,69,107,0
0,74,109,0
0,38,115,16
0,42,69,0
0,42,69,112
0,31,108,0
0,50,93,0
0,55,89,0
0,59,89,0
0,62,92,0
0,36,116,16
0,42,68,0
0,31,111,0
0,67,109,0
0,69,108,0
0,74,110,0
0,42,69,16
0,38,112,16
0,42,70,0
0,67,108,0
0,69,109,0
0,74,108,0
0,46,115,16
0,31,108,0
0,36,115,16
0,42,68,0
0,33,108,0
0,52,92,0
0,61,91,0
0,64,93,0
0,42,68,188
0,64,111,0
0,38,113,16
0,42,68,0
0,64,110,0
0,42,71,108
0,33,108,0
0,52,90,0
0,61,89,0
0,64,91,0
0,64,110,0
0,36,113,16
0,42,71,0
0,33,111,0
0,42,70,4
0,61,112,0
0,38,112,16
0,42,67,0
0,61,110,0
0,42,70,16
0,33,108,0
0,61,110,0
0,36,112,16
0,42,69,0
0,33,107,0
0,52,89,0
0,61,90,0
0,64,91,0
0,42,70,48
0,57,110,0
0,38,115,108
0,42,71,0
0,57,114,0
0,42,68,96
0,33,107,0
0,52,93,0
0,61,91,0
0,64,89,0
0,61,111,0
0,36,113,16
0,42,68,0
0,33,110,0
0,42,70,0
0,59,112,0
0,38,113,92
0,38,116,28
0,42,71,0
0,57,111,0
0,36,115,16
0,38,116,0
0,42,71,0
0,57,113,0
0,36,113,16
0,42,67,0
0,38,109,0
0,50,90,0
0,54,92,0
0,42,70,16
0,50,110,0
0,57,90,0
0,62,91,0
0,38,112,16
0,42,70,0
0,38,110,0
0,50,91,0
0,42,70,16
0,50,108,0
0,57,91,0
0,62,91,0
0,36,112,16
0,42,68,0
0,38,109,0
0,50,93,0
0,42,71,16
0,50,108,0
0,57,91,0
0,62,89,0
0,38,116,16
0,42,68,0
0,38,108,0
0,50,92,0
0,42,71,16
0,50,111,0
0,57,92,0
0,62,90,0
0,36,113,16
0,42,70,0
0,38,111,0
0,71,107,0
0,74,110,0
0,79,108,0
0,50,92,0
0,57,93,0
0,62,90,0
0,42,70,16
0,50,108,0
0,38,115,16
0,42,70,0
0,38,108,0
0,50,89,0
0,42,68,16
0,50,110,0
0,71,111,0
0,74,107,0
0,79,111,0
0,55,90,0
0,59,89,0
0,62,90,0
0,36,112,16
0,42,71,0
0,38,111,0
0,42,70,16
0,50,107,0
0,38,112,16
0,42,70,0
0,38,109,0
0,46,114,16
0,50,109,0
0,69,108,0
0,74,108,0
0,78,110,0
0,54,90,0
0,57,90,0
0,62,90,0
0,36,115,16
0,42,68,0
0,38,108,0
0,57,92,0
0,62,93,0
0,66,92,0
0,42,71,16
0,66,111,0
0,38,113,16
0,42,69,0
0,66,113,0
0,42,68,16
0,38,111,0
0,57,93,0
0,62,92,0
0,66,90,0
0,66,113,0
0,36,115,16
0,42,71,0
0,38,107,0
0,42,71,8
0,62,111,0
0,38,114,16
0,42,69,0
0,62,91,0
0,66,89,0
0,62,112,0
0,42,67,120
0,30,108,0
0,54,92,0
0,62,112,0
0,36,115,16
0,42,71,0
0,30,108,0
0,54,91,0
0,62,93,0
0,66,90,0
0,42,70,4
0,57,111,0
0,38,114,16
0,42,67,0
0,57,114,0
0,42,71,112
0,30,107,0
0,54,90,0
0,62,91,0
0,66,92,0
0,57,114,0
0,36,114,16
0,42,71,0
0,30,111,0
0,42,70,188
0,55,111,0
0,38,113,4
0,42,67,0
0,54,90,0
0,62,91,0
0,54,111,0
0,42,71,28
0,31,109,0
0,55,113,0
0,36,115,16
0,42,67,0
0,31,109,0
0,55,92,0
0,59,90,0
0,62,93,0
0,42,67,188
0,38,113,112
0,42,67,0
0,55,93,0
0,42,69,112
0,31,109,0
0,55,91,0
0,59,90,0
0,62,90,0
0,36,115,0
0,42,71,0
0,31,107,0
0,59,113,0
0,42,68,64
0,38,114,16
0,42,69,0
0,55,92,0
0,46,112,16
0,55,90,0
0,36,116,16
0,42,67,0
0,31,108,0
0,62,110,0
0,71,107,0
0,74,109,0
0,55,91,0
0,59,93,0
0,62,90,0
0,42,71,112
0,38,114,16
0,42,71,0
0,42,69,112
0,31,110,0
0,62,110,0
0,71,107,0
0,74,111,0
0,55,90,0
0,59,93,0
0,62,92,0
0,36,112,16
0,42,69,0
0,31,109,0
0,42,71,16
0,55,89,0
0,38,112,112
0,42,67,0
0,62,109,0
0,71,110,0
0,74,111,0
0,59,93,0
0,62,93,0
0,42,71,16
0,31,107,0
0,64,107,0
0,73,111,0
0,76,110,0
0,52,91,0
0,61,93,0
0,64,89,0
0,36,114,16
0,42,68,0
0,33,109,0
0,42,68,16
0,64,112,0
0,38,112,16
0,42,70,0
0,52,93,0
0,64,110,0
0,42,68,104
0,33,107,0
0,57,91,0
0,61,91,0
0,64,91,0
0,64,114,0
0,36,114,16
0,42,67,0
0,33,107,0
0,42,70,0
0,61,114,0
0,38,115,16
0,42,67,0
0,61,110,0
0,42,67,16
0,33,111,0
0,52,90,0
0,61,111,0
0,36,115,16
0,42,69,0
0,33,111,0
0,52,91,0
0,61,89,0
0,64,92,0
0,42,70,8
0,57,111,0
0,38,115,12
0,42,67,0
0,52,90,0
0,57,111,0
0,42,70,84
0,33,108,0
0,52,89,0
0,57,93,0
0,61,91,0
0,64,93,0
0,61,113,0
0,36,113,16
0,46,115,0
0,33,111,0
0,62,110,0
0,38,114,16
0,38,112,92
0,57,91,0
0,61,93,0
0,64,90,0
0,62,114,0
0,36,114,16
0,38,114,0
0,52,92,0
0,62,113,0
0,36,113,16
0,42,68,0
0,49,116,0
0,38,110,0
0,38,100,0
0,42,67,16
0,50,81,0
0,38,116,16
0,42,68,0
0,38,107,0
0,38,98,0
0,74,109,0
0,78,110,0
0,83,110,0
0,42,68,16
0,50,80,0
0,72,108,0
0,76,107,0
0,81,109,0
0,62,93,0
0,66,91,0
0,69,89,0
0,36,115,16
0,42,71,0
0,38,111,0
0,38,100,0
0,42,70,16
0,50,77,0
0,38,111,92
0,38,113,0
0,42,67,0
0,38,107,0
0,38,98,0
0,42,69,16
0,37,111,0
0,50,81,0
0,76,107,0
0,79,108,0
0,82,111,0
0,86,109,0
0,64,93,0
0,70,91,0
0,74,89,0
0,36,112,16
0,42,67,0
0,36,108,0
0,36,99,0
0,42,69,16
0,48,79,0
0,38,113,16
0,42,70,0
0,36,110,0
0,36,98,0
0,42,70,16
0,48,78,0
0,36,114,16
0,42,67,0
0,36,110,0
0,36,100,0
0,42,68,16
0,48,79,0
0,36,110,16
0,38,114,0
0,42,67,0
0,36,111,0
0,36,98,0
0,36,112,16
0,42,70,0
0,48,81,0
0,36,112,16
0,42,68,0
0,41,111,0
0,41,101,0
0,75,108,0
0,79,107,0
0,82,111,0
0,86,111,0
0,70,90,0
0,74,93,0
0,42,69,16
0,53,80,0
0,75,107,0
0,79,111,0
0,82,108,0
0,86,107,0
0,70,89,0
0,74,89,0
0,38,113,16
0,42,71,0
0,41,99,0
0,75,107,0
0,79,111,0
0,82,111,0
0,86,108,0
0,70,89,0
0,74,90,0
0,42,68,16
0,53,79,0
0,75,111,0
0,79,107,0
0,82,110,0
0,86,108,0
0,70,89,0
0,74,90,0
0,41,108,16
0,36,115,16
0,42,69,0
0,29,109,0
0,41,97,0
0,75,111,0
0,79,109,0
0,82,111,0
0,86,109,0
0,70,90,0
0,74,90,0
0,42,70,16
0,53,79,0
0,38,113,16
0,42,70,0
0,41,109,0
0,41,99,0
0,75,108,0
0,79,108,0
0,84,108,0
0,42,68,16
0,41,111,0
0,53,81,0
0,75,110,0
0,79,109,0
0,84,110,0
0,72,92,0
0,36,115,16
0,42,68,0
0,34,109,0
0,34,98,0
0,42,68,16
0,46,77,0
0,74,107,0
0,77,108,0
0,82,107,0
0,62,92,0
0,65,91,0
0,70,92,0
0,38,114,16
0,42,71,0
0,34,101,0
0,42,70,16
0,34,110,0
0,46,79,0
0,36,113,16
0,36,109,0
0,36,101,0
0,41,116,16
0,48,81,0
0,38,115,16
0,46,114,0
0,41,113,0
0,37,111,0
0,37,97,0
0,42,70,16
0,41,114,0
0,49,79,0
0,36,112,16
0,42,70,0
0,49,114,0
0,38,107,0
0,57,89,0
0,62,92,0
0,66,89,0
0,42,69,188
0,66,111,0
0,38,113,16
0,42,70,0
0,57,92,0
0,66,112,0
0,42,68,112
0,38,109,0
0,57,89,0
0,62,89,0
0,66,90,0
0,66,114,0
0,36,113,16
0,42,68,0
0,38,108,0
0,57,91,16
0,42,69,20
0,62,110,0
0,38,116,16
0,42,71,0
0,40,111,0
0,62,92,0
0,66,89,0
0,62,110,0
0,42,67,16
0,41,110,0
0,62,112,0
0,36,116,16
0,42,69,0
0,42,108,0
0,54,89,0
0,62,92,0
0,66,92,0
0,42,67,32
0,57,110,0
0,38,112,16
0,42,70,0
0,54,92,0
0,57,114,0
0,42,69,112
0,42,111,0
0,54,91,0
0,62,90,0
0,66,89,0
0,57,110,0
0,36,116,16
0,42,71,0
0,42,108,0
0,42,70,16
0,54,93,0
0,55,113,0
0,38,114,20
0,42,71,0
0,62,93,0
0,54,111,0
0,42,70,16
0,43,109,0
0,55,111,0
0,36,116,16
0,42,69,0
0,43,110,0
0,55,92,0
0,62,92,0
0,42,69,188
0,38,115,188
0,42,67,0
0,42,70,112
0,43,108,0
0,62,89,0
0,36,114,16
0,42,69,0
0,43,107,0
0,50,93,0
0,55,93,0
0,59,112,0
0,42,70,116
