track,note,velocity,time
7,67,102,480
7,67,0,61
7,67,109,59
7,67,0,208
7,67,106,32
7,67,0,47
7,67,109,13
7,67,0,142
7,65,105,38
7,65,0,117
7,64,103,3
7,64,0,112
7,65,110,8
7,64,106,60
7,65,0,2
7,64,0,57
7,60,106,1
7,60,0,167
7,60,102,613
7,60,0,35
7,60,111,25
7,60,0,44
7,60,107,16
7,60,0,23
7,60,114,37
7,60,0,38
7,60,104,22
7,60,0,135
7,62,110,45
7,62,0,41
7,62,101,19
7,62,0,26
7,62,113,34
7,62,0,156
7,67,98,444
7,67,0,47
7,67,104,13
7,67,0,21
7,67,111,39
7,67,0,95
7,67,110,25
7,67,0,197
7,65,104,283
7,65,0,52
7,64,86,8
7,64,0,48
7,65,105,12
7,65,0,117
7,64,108,3
7,64,0,54
7,60,109,6
7,60,0,147
7,57,107,270
7,57,0,34
7,57,95,27
7,57,0,29
7,57,107,30
7,57,0,156
7,65,105,87
7,65,0,42
7,65,96,18
7,65,0,30
7,65,110,30
7,64,99,60
7,65,0,5
7,64,0,102
7,60,103,13
7,60,0,123
7,60,104,57
7,60,0,231
7,79,105,3909
7,79,0,34
7,79,109,26
7,79,0,48
7,79,111,72
7,79,0,104
7,79,110,16
7,79,0,75
7,79,109,45
7,79,0,28
7,79,111,32
7,79,0,164
7,77,109,16
7,77,0,143
7,77,105,37
7,77,0,26
7,77,117,34
7,77,0,59
7,76,102,1
7,76,0,56
7,72,106,4
7,72,0,271
7,72,112,209
7,72,0,71
7,72,111,49
7,72,0,69
7,72,109,51
7,72,0,43
7,72,98,17
7,72,0,29
7,72,110,31
7,72,0,220
7,74,114,140
7,74,0,31
7,74,101,29
7,74,0,34
7,74,110,26
7,74,0,220
7,76,109,380
7,76,0,60
7,77,113,0
7,77,0,57
7,79,109,3
7,79,0,139
7,79,110,41
7,79,0,89
7,79,101,31
7,79,0,36
7,79,110,24
7,79,0,114
7,77,113,6
7,77,0,54
7,76,109,6
7,76,0,128
7,77,112,52
7,77,0,57
7,76,106,3
7,76,0,35
7,76,116,25
7,76,0,81
7,76,110,39
7,76,0,177
7,72,105,243
7,72,0,32
7,72,112,28
7,72,0,72
7,72,110,48
7,72,0,110
7,76,108,10
7,77,104,60
7,76,0,2
7,77,0,131
7,76,105,47
7,76,0,59
7,72,111,1
7,72,0,131
7,72,110,49
7,72,0,287
7,69,107,433
7,69,0,215
7,69,114,25
7,69,0,29
7,69,110,31
7,69,0,285
7,71,108,15
7,71,0,57
7,72,98,3
7,72,0,57
7,71,109,3
7,71,0,114
7,69,102,6
7,69,0,345
7,69,110,495
7,69,0,41
7,69,110,19
7,69,0,255
7,71,107,45
7,71,0,56
7,72,102,4
7,71,113,60
7,72,0,4
7,71,0,646
7,69,103,10
7,69,0,56
7,67,105,4
7,67,0,641
7,79,111,799
7,79,0,104
7,79,110,16
7,79,0,75
7,79,109,45
7,79,0,28
7,79,111,32
7,79,0,164
7,77,109,16
7,77,0,143
7,77,105,37
7,77,0,26
7,77,109,34
7,77,0,59
7,76,102,1
7,76,0,56
7,72,106,4
7,72,0,256
7,72,112,224
7,72,0,71
7,72,111,49
7,72,0,69
7,72,109,51
7,72,0,43
7,72,111,17
7,72,0,238
7,74,114,182
7,74,0,31
7,74,114,23
7,74,0,220
7,76,109,446
7,76,0,60
7,77,113,0
7,77,0,57
7,79,109,3
7,79,0,94
7,79,110,26
7,79,0,89
7,79,101,28
7,79,0,36
7,79,110,33
7,79,0,169
7,77,110,5
7,77,0,54
7,76,103,6
7,76,0,128
7,77,108,52
7,77,0,57
7,76,106,3
7,72,111,60
7,76,0,4
7,72,0,213
7,67,105,323
7,67,0,32
7,69,112,28
7,69,0,113
7,72,110,7
7,72,0,50
7,72,110,9
7,72,0,120
7,77,104,1
7,77,0,158
7,76,105,22
7,76,0,59
7,72,111,1
7,72,0,131
7,72,110,49
7,72,0,287
7,67,109,5353
7,67,0,73
7,67,109,47
7,67,0,102
7,67,106,18
7,67,0,35
7,67,109,25
7,67,0,25
7,67,108,35
7,67,0,170
7,65,108,130
7,65,0,55
7,64,103,5
7,64,0,50
7,65,111,10
7,65,0,120
7,64,99,0
7,64,0,22
7,64,107,38
7,64,0,181
7,60,108,359
7,60,0,27
7,60,110,33
7,60,0,80
7,60,108,40
7,60,0,51
7,60,109,69
7,60,0,72
7,60,110,48
7,60,0,129
7,62,109,111
7,62,0,30
7,62,106,30
7,62,0,185
7,64,103,475
7,65,108,60
7,64,0,4
7,65,0,49
7,67,108,7
7,67,0,107
7,67,107,13
7,67,0,38
7,67,96,22
7,67,0,25
7,67,114,35
7,67,0,149
7,65,104,151
7,64,105,60
7,65,0,1
7,64,0,44
7,65,109,15
7,65,0,99
7,64,108,21
7,64,0,97
7,64,99,23
7,64,0,27
7,64,106,33
7,64,0,147
7,64,103,153
7,64,0,27
7,64,101,33
7,64,0,108
7,65,104,12
7,65,0,91
7,65,106,29
7,65,0,80
7,65,104,40
7,65,0,31
7,65,105,29
7,64,101,120
7,65,0,5
7,64,0,148
7,60,107,27
7,60,0,37
7,60,109,23
7,60,0,245
7,79,109,1015
7,79,0,30
7,79,114,30
7,79,0,120
7,79,114,60
7,79,0,80
7,79,111,40
7,79,0,80
7,79,110,40
7,79,0,34
7,79,114,26
7,79,0,128
7,77,106,52
7,77,0,35
7,77,111,25
7,77,0,69
7,77,112,111
7,77,0,50
7,76,105,10
7,76,0,43
7,76,111,17
7,76,0,154
7,74,114,206
7,74,0,101
7,72,109,19
7,72,0,28
7,72,110,32
7,72,0,220
7,72,105,80
7,72,0,37
7,72,105,23
7,72,0,31
7,72,108,29
7,72,0,141
7,74,114,99
7,74,0,31
7,74,105,29
7,74,0,24
7,74,114,36
7,74,0,222
7,76,109,258
7,76,0,58
7,77,107,2
7,77,0,174
7,79,114,6
7,79,0,102
7,79,99,18
7,79,0,25
7,79,107,35
7,79,0,143
7,79,109,37
7,79,0,96
7,77,108,24
7,77,0,87
7,77,106,33
7,77,0,36
7,77,109,24
7,77,0,118
7,76,102,2
7,76,0,52
7,72,111,8
7,72,0,195
7,69,108,345
7,69,0,30
7,69,108,30
7,69,0,108
7,72,106,12
7,72,0,100
7,77,110,20
7,77,0,32
7,77,105,28
7,77,0,123
7,76,108,57
7,76,0,41
7,72,109,19
7,72,0,73
7,72,111,47
7,72,0,234
7,71,108,366
7,71,0,156
7,69,107,24
7,69,0,215
7,69,114,25
7,69,0,29
7,69,110,31
7,69,0,255
7,71,108,45
7,71,0,51
7,72,98,9
7,72,0,54
7,71,109,6
7,71,0,114
7,69,102,6
7,69,0,345
7,69,110,495
7,69,0,41
7,69,110,19
7,69,0,283
7,71,107,17
7,71,0,56
7,72,102,4
7,71,113,60
7,72,0,4
7,71,0,646
7,69,103,10
7,69,0,56
7,67,105,4
7,67,0,667
7,67,102,653
7,67,0,58
7,67,105,62
7,67,0,154
7,65,107,86
7,65,0,27
7,65,102,33
7,65,0,44
7,67,108,16
7,67,0,52
7,65,106,8
7,65,0,76
7,65,107,44
7,65,0,115
7,65,105,65
7,64,96,60
7,65,0,1
7,64,0,35
7,64,107,24
7,64,0,136
7,62,97,404
7,62,0,42
7,60,109,18
7,60,0,36
7,60,96,24
7,60,0,25
7,60,107,35
7,60,0,31
7,60,103,29
7,60,0,178
7,60,102,242
7,60,0,29
7,60,98,31
7,60,0,34
7,62,105,26
7,62,0,199
7,64,102,401
7,64,0,55
7,65,105,5
7,65,0,55
7,67,105,5
7,67,0,56
7,67,96,4
7,67,0,61
7,67,103,59
7,67,0,29
7,67,110,31
7,65,96,60
7,67,0,2
7,65,0,45
7,65,105,253
7,65,0,77
7,65,106,43
7,65,0,47
7,65,105,16
7,65,0,84
7,65,99,33
7,65,0,35
7,65,111,25
7,65,0,105
7,64,98,15
7,64,0,111
7,65,103,129
7,65,0,72
7,65,104,48
7,65,0,75
7,65,107,45
7,65,0,27
7,65,103,33
7,65,0,124
7,65,103,56
7,65,0,112
7,64,103,8
7,64,0,110
7,60,100,10
7,60,0,42
7,60,101,18
7,60,0,211
7,79,107,3929
7,79,0,81
7,79,112,39
7,79,0,32
7,79,106,28
7,79,0,138
7,79,110,42
7,79,0,73
7,79,109,47
7,79,0,59
7,79,115,61
7,79,0,98
7,77,109,22
7,77,0,41
7,77,105,19
7,77,0,143
7,77,115,37
7,76,106,60
7,77,0,2
7,76,0,36
7,76,117,22
7,76,0,139
7,74,111,221
7,74,0,107
7,72,107,13
7,72,0,30
7,72,112,30
7,72,0,103
7,72,105,17
7,72,0,30
7,72,111,30
7,72,0,121
7,72,102,119
7,72,0,111
7,74,105,9
7,74,0,91
7,74,109,29
7,74,0,40
7,74,109,20
7,74,0,179
7,76,108,361
7,76,0,101
7,77,114,19
7,77,0,117
7,79,107,3
7,79,0,49
7,79,112,11
7,79,0,83
7,79,107,37
7,79,0,29
7,79,111,31
7,79,0,148
7,77,110,32
7,77,0,114
7,77,108,66
7,77,0,92
7,77,110,25
7,77,0,101
7,76,116,22
7,76,0,34
7,76,108,26
7,76,0,131
7,76,104,229
7,76,0,31
7,76,108,29
7,76,0,89
7,77,116,31
7,77,0,31
7,77,110,29
7,77,0,140
7,77,110,40
7,77,0,89
7,77,105,31
7,77,0,114
7,76,106,6
7,76,0,107
7,72,111,13
7,72,0,32
7,72,115,28
7,72,0,623
7,79,114,5917
7,79,0,50
7,79,111,10
7,79,0,119
7,79,110,61
7,79,0,34
7,79,114,26
7,79,0,128
7,77,106,52
7,77,0,56
7,76,111,4
7,76,0,125
7,77,112,55
7,77,0,50
7,76,105,10
7,76,0,56
7,72,111,4
7,72,0,218
7,69,106,382
7,72,107,60
7,69,0,5
7,72,0,123
7,72,108,52
7,72,0,31
7,72,107,29
7,72,0,189
7,74,114,111
7,74,0,53
7,74,110,7
7,74,0,212
7,76,109,328
7,76,0,59
7,77,107,1
7,79,114,120
7,77,0,1
7,79,0,150
7,79,106,29
7,79,0,25
7,79,107,35
7,79,0,100
7,79,109,26
7,79,0,142
7,77,108,32
7,77,0,106
7,76,106,14
7,76,0,58
7,77,109,2
7,77,0,118
7,76,102,2
7,76,0,52
7,72,111,8
7,72,0,195
7,69,108,345
7,69,0,30
7,69,108,30
7,69,0,108
7,72,106,12
7,72,0,100
7,72,110,20
7,72,0,52
7,77,105,8
7,77,0,123
7,76,108,57
7,76,0,45
7,72,109,15
7,72,0,73
7,72,111,47
7,72,0,297
7,67,106,5403
7,67,0,34
7,67,91,26
7,67,0,29
7,67,105,31
7,67,0,30
7,67,97,30
7,67,0,32
7,67,108,28
7,67,0,80
7,67,104,40
7,67,0,164
7,64,100,136
7,64,0,41
7,64,106,19
7,64,0,47
7,65,104,13
7,64,111,60
7,65,0,5
7,64,0,28
7,64,98,27
7,64,0,177
7,64,108,363
7,64,0,50
7,62,102,10
7,62,0,47
7,60,108,13
7,60,0,104
7,60,108,16
7,60,0,25
7,60,101,35
7,60,0,137
7,60,108,43
7,60,0,95
7,62,104,25
7,62,0,104
7,62,106,16
7,62,0,35
7,62,104,25
7,62,0,157
7,64,103,503
7,65,112,60
7,64,0,4
7,65,0,45
7,67,109,11
7,67,0,131
7,67,106,49
7,67,0,39
7,67,107,21
7,67,0,35
7,67,111,25
7,67,0,151
7,65,106,29
7,65,0,107
7,64,107,13
7,64,0,48
7,65,109,12
7,64,102,120
7,65,0,3
7,64,0,31
7,64,109,26
7,64,0,28
7,64,104,32
7,64,0,166
7,64,105,254
7,64,0,40
7,64,95,20
7,64,0,30
7,65,108,30
7,65,0,46
7,65,97,14
7,65,0,26
7,65,105,34
7,65,0,169
7,65,111,71
7,65,0,161
7,60,104,19
7,60,0,43
7,60,108,17
7,60,0,32
7,60,106,28
7,60,0,296
7,79,112,904
7,79,0,141
7,79,116,39
7,79,0,32
7,79,112,28
7,79,0,149
7,79,114,31
7,79,0,170
7,79,112,70
7,79,0,187
7,77,113,53
7,77,0,53
7,76,99,7
7,76,0,46
7,77,113,14
7,76,107,60
7,77,0,8
7,76,0,20
7,76,116,32
7,76,0,145
7,74,115,215
7,74,0,110
7,72,108,10
7,72,0,30
7,72,116,30
7,72,0,107
7,72,105,13
7,72,0,27
7,72,120,33
7,72,0,161
7,72,112,79
7,72,0,200
7,74,117,40
7,74,0,41
7,74,106,22
7,74,0,28
7,74,114,29
7,74,0,216
7,76,112,264
7,76,0,108
7,77,116,12
7,77,0,116
7,79,117,4
7,79,0,30
7,79,118,30
7,79,0,111
7,79,102,9
7,79,0,30
7,79,117,30
7,79,0,204
7,77,114,36
7,77,0,68
7,77,110,52
7,77,0,64
7,77,115,56
7,77,0,60
7,76,102,0
7,76,0,45
7,76,114,15
7,76,0,82
7,76,115,38
7,76,0,186
7,76,108,54
7,76,0,61
7,76,113,59
7,76,0,113
7,77,109,7
7,77,0,204
7,77,115,36
7,77,0,29
7,77,107,31
7,77,0,24
7,77,112,36
7,72,114,120
7,77,0,5
7,72,0,100
7,72,108,15
7,72,0,29
7,72,110,31
7,72,0,348
7,72,108,192
7,71,104,120
7,72,0,2
7,69,107,118
7,71,0,5
7,69,0,210
7,69,114,25
7,69,0,29
7,69,110,31
7,69,0,255
7,71,108,45
7,71,0,51
7,72,98,9
7,72,0,54
7,71,109,6
7,71,0,114
7,69,102,6
7,69,0,345
7,69,110,495
7,69,0,41
7,69,110,19
7,69,0,283
7,71,107,17
7,71,0,56
7,72,102,4
7,71,113,60
7,72,0,4
7,71,0,646
7,69,103,10
7,69,0,56
7,67,105,4
7,67,0,667
7,79,114,773
7,79,0,50
7,79,111,10
7,79,0,119
7,79,110,61
7,79,0,34
7,79,114,26
7,79,0,128
7,77,106,52
7,77,0,56
7,76,111,4
7,76,0,125
7,77,112,55
7,77,0,50
7,76,105,10
7,76,0,56
7,72,111,4
7,72,0,218
7,69,106,382
7,72,107,60
7,69,0,5
7,72,0,123
7,72,108,52
7,72,0,31
7,72,107,29
7,72,0,189
7,74,114,111
7,74,0,53
7,74,110,7
7,74,0,212
7,76,109,328
7,76,0,59
7,77,107,1
7,79,114,120
7,77,0,1
7,79,0,150
7,79,106,29
7,79,0,25
7,79,107,35
7,79,0,100
7,79,109,26
7,79,0,142
7,77,108,32
7,77,0,106
7,76,106,14
7,76,0,58
7,77,109,2
7,77,0,118
7,76,102,2
7,76,0,39
7,76,111,21
7,76,0,195
7,69,108,345
7,69,0,30
7,69,108,30
7,69,0,108
7,72,106,12
7,72,0,100
7,72,110,20
7,72,0,52
7,77,105,8
7,77,0,123
7,76,108,57
7,72,109,60
7,76,0,1
7,72,0,93
7,72,111,26
7,72,0,297
8,36,62,6620
8,36,0,346
8,48,65,14
8,48,0,300
8,48,66,60
8,48,0,307
8,41,63,53
8,41,0,109
8,40,58,11
8,40,0,116
8,38,54,4
8,38,0,108
8,36,60,12
8,36,0,331
8,48,65,29
8,48,0,300
8,48,66,60
8,48,0,307
8,41,63,53
8,41,0,109
8,40,58,11
8,40,0,116
8,38,54,4
8,38,0,108
8,36,61,12
8,36,0,332
8,35,60,28
8,35,0,338
8,33,59,22
8,33,0,332
8,31,62,28
8,31,0,311
8,29,60,51
8,29,0,311
8,40,60,47
8,40,0,331
8,38,60,29
8,38,0,331
8,31,59,29
8,31,0,110
8,33,60,10
8,33,0,105
8,35,61,15
8,35,0,97
8,36,61,23
8,36,0,332
8,35,60,28
8,35,0,338
8,33,59,22
8,33,0,332
8,31,62,28
8,31,0,311
8,29,60,51
8,29,0,311
8,31,60,47
8,31,0,215
8,31,60,27
8,31,0,51
8,36,68,67
8,36,0,298
8,36,65,62
8,31,66,120
8,36,0,8
8,31,0,28
8,31,60,24
8,31,0,42
8,35,63,18
8,35,0,97
8,36,61,23
8,36,0,332
8,35,60,28
8,35,0,227
8,35,60,13
8,35,0,65
8,33,59,55
8,33,0,332
8,31,62,28
8,31,0,227
8,36,60,13
8,36,0,65
8,29,60,55
8,29,0,311
8,31,60,49
8,31,0,221
