track,note,velocity,time
1,64,110,33412
1,67,105,60
1,71,98,96
1,69,105,116
1,67,93,4
1,71,105,120
1,64,102,276
1,67,100,56
1,69,105,76
1,69,105,100
1,69,107,108
1,67,87,92
1,71,105,108
1,64,113,116
1,64,100,80
1,67,102,20
1,69,105,64
1,69,107,120
1,69,107,108
1,67,87,4
1,71,105,144
1,69,105,124
1,69,113,124
1,67,107,36
1,69,105,40
1,69,119,112
1,71,102,120
1,74,110,20
1,71,119,136
1,69,98,20
1,64,102,208
1,67,107,40
1,71,105,104
1,69,102,16
1,69,105,212
1,67,102,16
1,71,116,212
1,64,105,40
1,67,100,36
1,69,107,64
1,69,105,100
1,69,105,100
1,67,85,4
1,71,105,136
1,64,105,132
1,64,105,64
1,67,105,40
1,69,105,16
1,69,102,92
1,69,110,100
1,67,93,4
1,71,107,132
1,69,105,108
1,67,113,124
1,64,107,20
1,69,107,100
1,67,107,40
1,64,87,36
1,62,100,24
1,64,107,40
1,64,119,132
1,64,110,4672
1,67,113,68
1,71,107,32
1,69,116,84
1,67,113,76
1,71,107,40
1,64,102,224
1,67,100,32
1,69,105,108
1,69,107,88
1,69,116,96
1,67,95,4
1,71,102,112
1,64,105,104
1,64,107,68
1,67,102,36
1,69,100,36
1,69,110,104
1,69,110,104
1,67,89,12
1,71,107,108
1,69,113,120
1,69,113,120
1,67,110,4
1,69,113,72
1,69,105,104
1,71,116,88
1,74,102,20
1,71,102,24
1,69,107,36
1,64,107,204
1,67,105,32
1,71,113,80
1,69,107,16
1,69,119,208
1,67,102,92
1,71,113,132
1,64,110,272
1,67,105,28
1,69,107,116
1,69,107,100
1,69,107,88
1,67,87,8
1,71,107,140
1,64,102,116
1,64,102,80
1,67,100,24
1,69,102,28
1,69,105,104
1,69,107,96
1,67,100,12
1,71,107,92
1,69,110,112
1,67,107,80
1,64,105,36
1,69,110,44
1,67,110,136
1,64,91,4
1,62,89,20
1,64,107,36
1,71,107,968
1,71,102,108
1,73,105,40
1,74,100,4
1,74,107,172
1,74,107,60
1,76,100,40
1,78,93,4
1,78,113,440
1,78,102,172
1,79,102,36
1,81,102,4
1,78,87,28
1,78,110,400
1,78,107,80
1,79,91,96
1,81,102,80
1,78,107,4
1,79,105,380
1,78,110,12
1,71,105,312
1,71,107,104
1,73,105,0
1,74,102,4
1,74,105,88
1,74,113,84
1,76,105,48
1,78,98,16
1,78,113,392
1,78,113,112
1,79,100,28
1,81,100,92
1,78,98,4
1,78,113,368
1,78,107,136
1,79,102,0
1,81,95,24
1,78,100,8
1,78,100,20
1,64,116,600
1,67,105,8
1,71,105,28
1,69,110,128
1,67,102,12
1,71,102,4
1,64,113,312
1,67,102,20
1,69,102,16
1,69,107,88
1,69,105,112
1,67,100,92
1,71,105,104
1,64,116,108
1,64,110,136
1,67,105,16
1,69,105,16
1,69,107,92
1,69,107,80
1,67,95,92
1,71,107,112
1,69,107,88
1,64,110,24
1,67,102,24
1,69,116,216
1,69,107,92
1,71,113,84
1,74,98,8
1,71,107,28
1,69,107,24
1,64,105,180
1,67,105,16
1,71,100,44
1,69,102,36
1,69,110,136
1,67,102,4
1,71,105,104
1,64,105,124
1,64,110,68
1,67,105,28
1,69,105,104
1,69,113,92
1,69,113,88
1,67,105,24
1,71,105,4
1,64,113,56
1,64,107,76
1,67,102,32
1,69,110,76
1,69,105,48
1,69,105,96
1,67,100,24
1,71,102,196
1,69,100,4
1,67,105,24
1,64,102,12
1,69,105,24
1,67,105,288
1,64,102,60
1,62,100,16
1,64,105,32
1,64,102,5332
1,67,105,0
1,71,107,20
1,69,110,108
1,67,105,188
1,71,102,12
1,64,110,160
1,67,102,4
1,69,107,16
1,69,110,92
1,69,107,100
1,67,102,188
1,71,100,88
1,64,102,184
1,64,105,104
1,67,102,16
1,69,105,20
1,69,105,96
1,69,105,76
1,67,82,40
1,71,91,96
1,69,105,180
1,69,105,92
1,67,102,36
1,69,105,44
1,69,105,60
1,71,107,76
1,74,91,12
1,71,102,32
1,69,98,16
1,64,105,264
1,67,102,16
1,71,105,76
1,69,102,20
1,69,110,200
1,67,100,4
1,71,105,100
1,64,102,180
1,67,95,24
1,69,107,60
1,69,107,104
1,69,122,116
1,67,95,4
1,71,107,136
1,64,105,128
1,64,107,44
1,67,102,32
1,69,102,24
1,69,110,100
1,69,110,104
1,67,100,4
1,71,105,136
1,69,105,188
1,67,107,64
1,64,102,20
1,69,116,48
1,67,110,36
1,67,116,88
1,64,89,4
1,62,95,4
1,64,98,16
1,71,105,1320
1,71,107,124
1,73,102,36
1,74,102,20
1,74,107,136
1,74,98,60
1,76,95,32
1,78,89,12
1,78,116,416
1,78,110,116
1,79,98,28
1,81,100,92
1,78,105,4
1,78,116,380
1,78,110,76
1,79,100,24
1,81,93,92
1,78,105,4
1,79,100,220
1,78,107,24
1,71,107,256
1,71,107,104
1,73,102,32
1,74,100,4
1,74,107,72
1,74,102,92
1,76,102,40
1,78,100,16
1,78,116,408
1,78,100,72
1,79,91,96
1,81,91,88
1,78,100,60
1,78,113,372
1,78,110,68
1,79,91,0
1,81,89,96
1,78,95,16
1,78,102,28
1,64,113,580
1,67,102,12
1,71,98,20
1,69,107,176
1,67,105,12
1,71,102,16
1,64,110,324
1,67,100,28
1,69,110,52
1,69,110,96
1,69,110,96
1,67,95,16
1,71,100,8
1,64,105,192
1,64,110,188
1,67,105,20
1,69,100,56
1,69,110,92
1,69,102,84
1,67,98,92
1,71,105,124
1,69,107,120
1,64,105,0
1,67,102,36
1,69,105,44
1,69,105,96
1,71,105,88
1,74,100,12
1,71,105,8
1,69,105,20
1,64,105,140
1,67,105,8
1,71,102,80
1,69,102,184
1,69,102,108
1,67,91,16
1,71,100,20
1,64,107,104
1,64,107,76
1,67,116,24
1,69,102,12
1,69,107,80
1,69,110,88
1,67,98,4
1,71,107,108
1,64,105,120
1,64,105,64
1,67,100,28
1,69,105,44
1,69,107,52
1,69,105,184
1,67,100,40
1,71,102,8
1,69,105,4
1,67,102,20
1,64,100,24
1,69,113,56
1,67,105,20
1,67,107,96
1,64,80,16
1,62,89,96
1,64,100,8
2,64,64,4
2,62,64,28
2,60,64,12
2,59,64,8
2,60,64,380
2,52,64,200
2,54,64,20
2,56,64,0
2,57,64,20
2,55,64,344
2,54,64,168
2,52,64,268
2,50,64,32
2,51,64,12
2,52,64,0
2,40,64,1152
2,48,64,12
2,47,64,32
2,48,64,1536
2,50,64,20
2,51,64,96
2,52,64,80
2,54,64,12
2,56,64,12
2,57,64,16
2,55,64,768
2,54,64,36
2,52,64,340
2,51,64,216
2,49,64,12
2,47,64,0
2,45,64,8
2,40,64,16
2,52,88,308
2,48,88,16
2,40,82,1536
2,48,93,1524
2,50,113,8
2,52,80,12
2,64,100,40
2,52,80,124
2,64,90,28
2,52,90,124
2,52,90,36
2,64,90,40
2,52,90,216
2,52,90,28
2,52,90,28
2,45,80,28
2,57,100,48
2,57,80,220
2,45,80,24
2,45,90,28
2,52,120,28
2,64,90,40
2,64,90,216
2,45,90,224
2,57,100,44
2,57,80,220
2,45,80,24
2,45,80,28
2,48,80,28
2,60,100,44
2,60,100,216
2,48,80,28
2,48,80,28
2,50,80,32
2,62,100,44
2,62,100,220
2,47,80,124
2,47,80,28
2,47,80,44
2,50,100,84
2,52,80,44
2,64,100,40
2,64,100,220
2,52,80,24
2,52,80,24
2,52,80,36
2,64,100,40
2,64,100,216
2,52,80,28
2,52,80,24
2,45,80,28
2,57,100,44
2,57,100,220
2,45,100,24
2,45,100,28
2,52,80,28
2,64,100,40
2,64,100,216
2,52,90,28
2,52,80,24
2,45,80,28
2,57,100,52
2,57,100,220
2,45,100,24
2,45,90,28
2,50,80,28
2,62,100,40
2,62,100,216
2,50,90,28
2,50,80,32
2,47,80,32
2,59,100,44
2,59,80,220
2,47,120,44
2,52,80,28
2,64,100,40
2,52,80,128
2,64,100,24
2,52,80,40
2,52,80,28
2,64,100,40
2,52,100,216
2,50,80,40
2,48,80,28
2,60,100,40
2,60,100,216
2,48,80,24
2,48,80,24
2,48,80,32
2,60,100,40
2,48,100,216
2,50,100,28
2,52,80,124
2,64,100,40
2,52,80,120
2,64,100,28
2,52,80,44
2,52,80,28
2,64,100,40
2,52,100,216
2,50,80,40
2,48,80,28
2,60,100,40
2,60,100,220
2,48,80,24
2,48,80,32
2,48,80,28
2,60,100,40
2,48,100,220
2,50,100,28
2,52,80,96
2,64,100,44
2,52,80,124
2,64,90,24
2,52,90,124
2,52,90,36
2,64,90,40
2,52,90,216
2,52,90,28
2,52,90,28
2,45,80,28
2,57,100,48
2,57,80,220
2,45,80,24
2,45,90,28
2,52,120,28
2,64,90,40
2,64,90,216
2,45,90,224
2,57,100,44
2,57,80,220
2,45,80,24
2,45,80,28
2,48,80,28
2,60,100,44
2,60,100,216
2,48,80,28
2,48,80,24
2,50,80,32
2,62,100,44
2,62,100,220
2,47,80,124
2,47,80,28
2,47,80,44
2,50,100,84
2,52,80,44
2,64,100,40
2,64,100,220
2,52,80,24
2,52,80,28
2,52,80,36
2,64,100,40
2,64,100,220
2,52,80,28
2,52,80,24
2,45,80,32
2,57,100,44
2,57,100,220
2,45,100,24
2,45,100,28
2,52,80,28
2,64,100,40
2,64,100,216
2,52,90,28
2,52,80,24
2,45,80,28
2,57,100,52
2,57,100,220
2,45,100,24
2,45,90,28
2,50,80,28
2,62,100,40
2,62,100,216
2,50,90,28
2,50,80,36
2,47,80,32
2,59,100,40
2,59,80,220
2,47,120,44
2,52,80,20
2,64,100,40
2,64,100,216
2,52,100,124
2,52,80,28
2,64,100,40
2,64,100,220
2,43,100,124
2,43,106,4
2,43,91,120
2,43,97,60
2,43,106,152
2,43,99,116
2,43,108,60
2,43,95,112
2,42,84,56
2,42,88,148
2,42,93,56
2,42,80,36
2,50,108,28
2,50,99,112
2,50,108,60
2,50,76,56
2,43,106,20
2,43,101,120
2,43,91,48
2,50,104,76
2,55,88,36
2,55,108,140
2,55,99,56
2,55,106,88
2,54,104,36
2,54,91,132
2,54,106,56
2,54,106,116
2,57,99,8
2,50,104,16
2,43,99,124
2,43,93,140
2,43,93,60
2,43,95,100
2,43,91,60
2,43,91,96
2,43,97,60
2,43,88,124
2,42,88,48
2,42,93,120
2,42,95,48
2,42,88,84
2,48,93,20
2,48,95,156
2,48,104,56
2,48,91,104
2,47,93,44
2,47,86,124
2,47,91,48
2,47,93,136
2,46,93,28
2,46,95,132
2,46,95,56
2,45,97,192
2,45,97,120
2,45,111,100
2,45,97,40
2,47,104,76
2,47,113,92
2,50,116,260
2,51,113,20
2,52,80,16
2,64,100,40
2,52,80,124
2,64,90,24
2,52,90,124
2,52,90,36
2,64,90,40
2,52,90,216
2,52,90,28
2,52,90,28
2,45,80,32
2,57,100,48
2,57,80,220
2,45,80,24
2,45,90,28
2,52,120,28
2,64,90,40
2,64,90,220
2,45,90,224
2,57,100,44
2,57,80,220
2,45,80,24
2,45,80,28
2,48,80,28
2,60,100,44
2,60,100,220
2,48,80,24
2,48,80,28
2,50,80,32
2,62,100,44
2,62,100,220
2,47,80,124
2,47,80,28
2,47,80,36
2,50,100,88
2,52,80,44
2,64,100,40
2,64,100,216
2,52,80,24
2,52,80,24
2,52,80,36
2,64,100,40
2,64,100,216
2,52,80,24
2,52,80,24
2,45,80,28
2,57,100,44
2,57,100,216
2,45,100,28
2,45,100,28
2,52,80,28
2,64,100,40
2,64,100,216
2,52,90,28
2,52,80,24
2,45,80,28
2,57,100,48
2,57,100,216
2,45,100,28
2,45,90,24
2,50,80,28
2,62,100,44
2,62,100,216
2,50,90,28
2,50,80,36
2,47,80,32
2,59,100,44
2,59,80,220
2,47,120,44
2,52,111,8
2,52,104,96
2,52,104,60
2,52,106,184
2,52,104,112
2,52,108,64
2,48,104,68
2,48,97,96
2,48,104,64
2,48,104,148
2,48,97,108
2,48,106,60
2,50,91,8
2,52,91,20
2,52,104,108
2,52,106,60
2,52,106,144
2,52,97,136
2,52,113,56
2,48,106,44
2,48,91,104
2,48,101,60
2,48,106,144
2,48,104,120
2,48,99,64
2,50,108,12
2,52,80,68
2,64,100,40
2,52,80,124
2,64,90,24
2,52,90,124
2,52,90,36
2,64,90,40
2,52,90,216
2,52,90,28
2,52,90,28
2,45,80,28
2,57,100,48
2,57,80,216
2,45,80,28
2,45,90,28
2,52,120,28
2,64,90,40
2,64,90,216
2,45,90,224
2,57,100,44
2,57,80,216
2,45,80,28
2,45,80,28
2,48,80,28
2,60,100,44
2,60,100,216
2,48,80,28
2,48,80,24
2,50,80,32
2,62,100,44
2,62,100,220
2,47,80,124
2,47,80,28
2,47,80,44
2,50,100,84
2,52,80,44
2,64,100,40
2,64,100,220
2,52,80,24
2,52,80,28
2,52,80,36
2,64,100,40
2,64,100,220
2,52,80,28
2,52,80,24
2,45,80,28
2,57,100,44
2,57,100,220
2,45,100,24
2,45,100,28
2,52,80,28
2,64,100,40
2,64,100,216
2,52,90,28
2,52,80,24
2,45,80,28
2,57,100,52
2,57,100,220
2,45,100,24
2,45,90,28
2,50,80,28
2,62,100,40
2,62,100,216
2,50,90,28
2,50,80,32
2,47,80,32
2,59,100,44
2,59,80,220
2,47,120,44
2,52,80,28
2,64,100,36
2,64,100,216
2,52,100,124
2,52,80,28
2,64,100,40
2,64,100,220
2,43,100,124
2,43,106,4
2,43,91,120
2,43,97,60
2,43,106,152
2,43,99,116
2,43,108,60
2,43,95,112
2,42,84,56
2,42,88,148
2,42,93,56
2,42,80,36
2,50,108,28
2,50,99,112
2,50,108,60
2,50,76,56
2,43,106,20
2,43,101,120
2,43,91,48
2,50,104,76
2,55,88,36
2,55,108,140
2,55,99,56
2,55,106,88
2,54,104,36
2,54,91,132
2,54,106,56
2,54,106,116
2,57,99,8
2,50,104,16
2,43,99,124
2,43,93,140
2,43,93,60
2,43,95,100
2,43,91,60
2,43,91,96
2,43,97,60
2,43,88,124
2,42,88,48
2,42,93,120
2,42,95,48
2,42,88,84
2,48,93,20
2,48,95,156
2,48,104,56
2,48,91,108
2,47,93,44
2,47,86,124
2,47,91,48
2,47,93,136
2,46,93,28
2,46,95,132
2,46,95,56
2,45,97,192
2,45,97,120
2,45,111,100
2,45,97,40
2,47,104,80
2,47,113,92
2,50,116,260
2,51,113,20
2,52,80,16
2,64,100,40
2,52,80,124
2,64,90,24
2,52,90,124
2,52,90,36
2,64,90,40
2,52,90,216
2,52,90,28
2,52,90,28
2,45,80,28
2,57,100,48
2,57,80,216
2,45,80,28
2,45,90,28
2,52,120,28
2,64,90,40
2,64,90,220
2,45,90,224
2,57,100,44
2,57,80,220
2,45,80,24
2,45,80,28
2,48,80,28
2,60,100,44
2,60,100,216
2,48,80,28
2,48,80,28
2,50,80,32
2,62,100,44
2,62,100,220
2,47,80,124
2,47,80,28
2,47,80,44
2,50,100,84
2,52,80,44
2,64,100,40
2,64,100,216
2,52,80,24
2,52,80,24
2,52,80,36
2,64,100,40
2,64,100,216
2,52,80,24
2,52,80,24
2,45,80,28
2,57,100,44
2,57,100,220
2,45,100,24
2,45,100,28
2,52,80,28
2,64,100,40
2,64,100,220
2,52,90,28
2,52,80,24
2,45,80,28
2,57,100,48
2,57,100,216
2,45,100,28
2,45,90,24
2,50,80,28
2,62,100,44
2,62,100,216
2,50,90,28
2,50,80,32
2,47,80,32
2,45,90,64
2,47,90,28
2,50,90,68
2,52,80,28
2,64,100,40
2,52,80,124
2,64,100,16
2,64,100,40
2,52,80,28
2,52,80,24
2,64,90,24
2,52,90,44
2,52,90,24
2,50,90,28
2,50,90,24
2,48,80,28
2,60,100,40
2,60,100,216
2,48,100,24
2,48,100,28
2,48,100,28
2,48,80,24
2,60,100,96
2,48,80,44
2,48,80,28
2,50,90,28
2,52,80,44
2,64,100,40
2,64,100,216
2,52,100,24
2,52,100,24
2,52,80,28
2,64,100,40
2,52,100,136
2,50,90,24
2,48,80,44
2,60,100,44
2,60,100,220
2,48,100,24
