track,note,velocity,time
2,73,50,3168
2,73,50,2
2,73,50,2
2,73,50,2
2,73,50,2
2,73,50,2
2,72,50,2
2,73,50,2
2,75,50,2
2,73,50,2
2,63,50,2
2,63,50,2
2,65,50,2
2,65,50,2
2,66,50,2
2,65,50,2
2,66,50,2
2,66,50,2
2,68,50,2
2,66,50,2
2,65,50,2
2,63,50,2
2,70,50,866
2,70,50,2
2,70,50,2
2,70,50,2
2,72,50,2
2,73,50,2
2,73,50,2
2,72,50,2
2,72,50,2
2,70,50,2
2,70,50,2
2,68,50,2
2,68,50,2
2,68,50,2
2,66,50,2
2,65,50,2
2,66,50,2
2,65,50,2
2,73,50,674
2,73,50,2
2,73,50,2
2,73,50,2
2,73,50,2
2,73,50,2
2,72,50,2
2,73,50,2
2,75,50,2
2,73,50,2
2,65,50,2
2,63,50,2
2,65,50,2
2,66,50,2
2,65,50,2
2,66,50,2
2,65,50,2
2,66,50,2
2,68,50,2
2,66,50,2
2,63,50,2
2,70,50,674
2,70,50,2
2,70,50,2
2,70,50,2
2,72,50,2
2,73,50,2
2,73,50,2
2,72,50,2
2,72,50,2
2,70,50,2
2,70,50,2
2,68,50,2
2,68,50,2
2,68,50,2
2,68,50,2
2,68,50,2
2,68,50,2
2,78,50,674
2,78,50,2
2,78,50,2
2,78,50,2
2,78,50,2
2,78,50,2
2,78,50,2
2,77,50,2
2,75,50,2
2,77,50,2
2,73,50,0
2,78,50,290
2,78,50,2
2,78,50,2
2,78,50,2
2,78,50,2
2,78,50,2
2,78,50,2
2,77,50,2
2,75,50,2
2,77,50,2
2,73,50,0
2,75,50,290
2,75,50,2
2,75,50,2
2,75,50,2
2,73,50,2
2,73,50,2
2,72,50,2
2,73,50,2
2,75,50,2
2,73,50,2
2,73,50,2
2,73,50,2
2,72,50,2
2,73,50,2
2,75,50,2
2,73,50,2
2,63,50,2
2,63,50,2
2,65,50,2
2,65,50,2
2,66,50,2
2,66,50,2
2,65,50,2
2,66,50,2
2,68,50,2
2,66,50,2
2,63,50,0
2,70,50,866
2,70,50,2
2,70,50,2
2,70,50,2
2,72,50,2
2,73,50,2
2,73,50,2
2,72,50,2
2,72,50,2
2,70,50,2
2,70,50,2
2,70,50,2
2,68,50,2
2,68,50,2
2,66,50,2
2,66,50,2
2,66,50,2
2,65,50,2
2,73,50,674
2,73,50,2
2,73,50,2
2,73,50,2
2,72,50,2
2,73,50,2
2,72,50,2
2,73,50,2
2,75,50,2
2,73,50,2
2,65,50,2
2,63,50,2
2,65,50,2
2,65,50,2
2,66,50,2
2,66,50,2
2,65,50,2
2,66,50,2
2,65,50,2
2,68,50,2
2,66,50,2
2,63,50,2
2,70,50,674
2,70,50,2
2,70,50,2
2,70,50,2
2,72,50,2
2,73,50,2
2,73,50,2
2,72,50,2
2,72,50,2
2,70,50,2
2,70,50,2
2,70,50,2
2,68,50,2
2,68,50,2
2,78,50,2
2,77,50,2
2,75,50,2
2,75,50,2
2,73,50,0
2,73,50,1346
2,85,50,2
2,82,50,290
2,82,50,2
2,80,50,2
2,82,50,2
2,82,50,2
2,80,50,0
2,78,50,0
2,82,50,194
2,82,50,2
2,84,50,2
2,80,50,2
2,73,50,2402
2,73,50,2
2,73,50,2
2,73,50,2
2,73,50,2
2,73,50,2
2,72,50,2
2,73,50,2
2,75,50,2
2,73,50,2
2,63,50,2
2,63,50,2
2,65,50,2
2,65,50,2
2,66,50,2
2,65,50,2
2,66,50,2
2,66,50,2
2,68,50,2
2,66,50,2
2,65,50,2
2,63,50,2
2,70,50,866
2,70,50,2
2,70,50,2
2,70,50,2
2,72,50,2
2,73,50,2
2,73,50,2
2,72,50,2
2,72,50,2
2,72,50,2
2,70,50,2
2,70,50,2
2,70,50,2
2,68,50,2
2,68,50,2
2,68,50,2
2,66,50,2
2,65,50,2
2,66,50,2
2,65,50,2
2,73,50,674
2,73,50,2
2,73,50,2
2,73,50,2
2,73,50,2
2,73,50,2
2,72,50,2
2,73,50,2
2,75,50,2
2,73,50,2
2,65,50,2
2,63,50,2
2,65,50,2
2,65,50,2
2,66,50,2
2,65,50,2
2,66,50,2
2,66,50,2
2,68,50,2
2,66,50,2
2,63,50,2
2,70,50,674
2,70,50,2
2,70,50,2
2,70,50,2
2,72,50,2
2,73,50,2
2,73,50,2
2,72,50,2
2,72,50,2
2,70,50,2
2,70,50,2
2,68,50,2
2,68,50,2
2,68,50,2
2,68,50,2
2,68,50,2
2,68,50,2
2,78,50,674
2,78,50,2
2,78,50,2
2,78,50,2
2,78,50,2
2,78,50,2
2,78,50,2
2,77,50,2
2,75,50,2
2,77,50,2
2,73,50,0
2,78,50,290
2,78,50,2
2,78,50,2
2,78,50,2
2,78,50,2
2,78,50,2
2,78,50,2
2,77,50,2
2,75,50,2
2,77,50,2
2,73,50,0
2,75,50,290
2,75,50,2
2,75,50,2
2,75,50,2
2,73,50,2
2,73,50,2
2,72,50,2
2,73,50,2
2,75,50,2
2,73,50,2
2,73,50,2
2,73,50,2
2,72,50,2
2,73,50,2
2,75,50,2
2,73,50,2
2,63,50,2
2,63,50,2
2,65,50,2
2,65,50,2
2,66,50,2
2,66,50,2
2,65,50,2
2,66,50,2
2,68,50,2
2,66,50,2
2,63,50,0
2,70,50,866
2,70,50,2
2,70,50,2
2,70,50,2
2,72,50,2
2,73,50,2
2,73,50,2
2,72,50,2
2,72,50,2
2,72,50,2
2,70,50,2
2,70,50,2
2,70,50,2
2,68,50,2
2,68,50,2
2,68,50,2
2,66,50,2
2,66,50,2
2,66,50,2
2,65,50,2
2,73,50,674
2,73,50,2
2,73,50,2
2,73,50,2
2,72,50,2
2,73,50,2
2,72,50,2
2,73,50,2
2,75,50,2
2,73,50,2
2,65,50,2
2,63,50,2
2,65,50,2
2,65,50,2
2,66,50,2
2,66,50,2
2,65,50,2
2,66,50,2
2,68,50,2
2,66,50,2
2,63,50,2
2,70,50,674
2,70,50,2
2,70,50,2
2,70,50,2
2,72,50,2
2,73,50,2
2,73,50,2
2,72,50,2
2,72,50,2
2,72,50,2
2,70,50,2
2,70,50,2
2,70,50,2
2,68,50,2
2,68,50,2
2,78,50,2
2,77,50,2
2,75,50,2
2,75,50,2
2,73,50,0
2,73,50,1346
2,85,50,2
2,82,50,290
2,82,50,2
2,80,50,2
2,82,50,2
2,82,50,2
2,80,50,0
2,78,50,0
2,82,50,194
2,82,50,2
2,84,50,2
2,80,50,2
2,77,50,290
2,78,50,2
2,77,50,2
2,75,50,2
2,73,50,2
2,68,50,2
2,78,50,1058
2,78,50,2
2,78,50,2
2,78,50,2
2,78,50,2
2,78,50,2
2,78,50,2
2,78,50,2
2,77,50,2
2,75,50,2
2,77,50,2
2,75,50,0
2,73,50,0
2,78,50,290
2,78,50,2
2,78,50,2
2,78,50,2
2,78,50,2
2,78,50,2
2,78,50,2
2,80,50,2
2,77,50,2
2,75,50,2
2,77,50,2
2,75,50,0
2,73,50,0
2,75,50,1826
2,75,50,2
2,75,50,2
2,75,50,2
2,73,50,2
2,72,50,2
2,72,50,2
2,73,50,2
2,75,50,2
2,73,50,2
2,73,50,2
2,73,50,2
2,72,50,2
2,73,50,2
2,75,50,2
2,73,50,2
2,63,50,2
2,63,50,2
2,65,50,2
2,65,50,2
2,66,50,2
2,66,50,2
2,65,50,2
2,66,50,2
2,68,50,2
2,66,50,2
2,63,50,0
2,70,50,866
2,70,50,2
2,70,50,2
2,70,50,2
2,72,50,2
2,73,50,2
2,73,50,2
2,72,50,2
2,72,50,2
2,72,50,2
2,70,50,2
2,70,50,2
2,70,50,2
2,68,50,2
2,68,50,2
2,66,50,2
2,66,50,2
2,66,50,2
2,65,50,2
2,73,50,674
2,73,50,2
2,73,50,2
2,73,50,2
2,72,50,2
2,73,50,2
2,72,50,2
2,73,50,2
2,75,50,2
2,73,50,2
2,65,50,2
2,63,50,2
2,65,50,2
2,65,50,2
2,66,50,2
2,66,50,2
2,65,50,2
2,66,50,2
2,65,50,2
2,68,50,2
2,66,50,2
2,63,50,2
2,70,50,674
2,70,50,2
2,70,50,2
2,70,50,2
2,72,50,2
2,73,50,2
2,73,50,2
2,72,50,2
2,72,50,2
2,72,50,2
2,70,50,2
2,70,50,2
2,70,50,2
2,68,50,2
2,68,50,2
2,78,50,2
2,77,50,2
2,75,50,2
2,75,50,2
2,73,50,0
2,73,50,1346
2,85,50,2
2,82,50,290
2,82,50,2
2,80,50,2
2,82,50,2
2,82,50,2
2,80,50,0
2,78,50,0
2,82,50,194
2,82,50,2
2,84,50,2
2,80,50,2
2,77,50,290
2,78,50,2
2,77,50,2
2,75,50,2
2,73,50,2
2,75,50,2
2,73,50,2
2,68,50,2
2,68,50,386
2,73,50,2
2,77,50,2
2,75,50,2
3,49,50,3168
3,49,50,2
3,49,50,2
3,49,50,2
3,49,50,2
3,49,50,2
3,48,50,2
3,49,50,2
3,51,50,2
3,49,50,2
3,39,50,2
3,39,50,2
3,41,50,2
3,41,50,2
3,42,50,2
3,41,50,2
3,42,50,2
3,42,50,2
3,44,50,2
3,42,50,2
3,41,50,2
3,39,50,2
3,46,50,866
3,46,50,2
3,46,50,2
3,46,50,2
3,48,50,2
3,49,50,2
3,49,50,2
3,48,50,2
3,48,50,2
3,46,50,2
3,46,50,2
3,44,50,2
3,44,50,2
3,44,50,2
3,42,50,2
3,41,50,2
3,42,50,2
3,41,50,2
3,49,50,674
3,49,50,2
3,49,50,2
3,49,50,2
3,49,50,2
3,49,50,2
3,48,50,2
3,49,50,2
3,51,50,2
3,49,50,2
3,41,50,2
3,39,50,2
3,41,50,2
3,42,50,2
3,41,50,2
3,42,50,2
3,41,50,2
3,42,50,2
3,44,50,2
3,42,50,2
3,39,50,2
3,46,50,674
3,46,50,2
3,46,50,2
3,46,50,2
3,48,50,2
3,49,50,2
3,49,50,2
3,48,50,2
3,48,50,2
3,46,50,2
3,46,50,2
3,44,50,2
3,44,50,2
3,44,50,2
3,44,50,2
3,44,50,2
3,44,50,2
3,54,50,674
3,54,50,2
3,54,50,2
3,54,50,2
3,54,50,2
3,54,50,2
3,54,50,2
3,53,50,2
3,51,50,2
3,53,50,2
3,49,50,0
3,54,50,290
3,54,50,2
3,54,50,2
3,54,50,2
3,54,50,2
3,54,50,2
3,54,50,2
3,53,50,2
3,51,50,2
3,53,50,2
3,49,50,0
3,51,50,290
3,51,50,2
3,51,50,2
3,51,50,2
3,49,50,2
3,49,50,2
3,48,50,2
3,49,50,2
3,51,50,2
3,49,50,2
3,49,50,2
3,49,50,2
3,48,50,2
3,49,50,2
3,51,50,2
3,49,50,2
3,39,50,2
3,39,50,2
3,41,50,2
3,41,50,2
3,42,50,2
3,42,50,2
3,41,50,2
3,42,50,2
3,44,50,2
3,42,50,2
3,39,50,0
3,46,50,866
3,46,50,2
3,46,50,2
3,46,50,2
3,48,50,2
3,49,50,2
3,49,50,2
3,48,50,2
3,48,50,2
3,46,50,2
3,46,50,2
3,46,50,2
3,44,50,2
3,44,50,2
3,42,50,2
3,42,50,2
3,42,50,2
3,41,50,2
3,49,50,674
3,49,50,2
3,49,50,2
3,49,50,2
3,48,50,2
3,49,50,2
3,48,50,2
3,49,50,2
3,51,50,2
3,49,50,2
3,41,50,2
3,39,50,2
3,41,50,2
3,41,50,2
3,42,50,2
3,42,50,2
3,41,50,2
3,42,50,2
3,41,50,2
3,44,50,2
3,42,50,2
3,39,50,2
3,46,50,674
3,46,50,2
3,46,50,2
3,46,50,2
3,48,50,2
3,49,50,2
3,49,50,2
3,48,50,2
3,48,50,2
3,46,50,2
3,46,50,2
3,46,50,2
3,44,50,2
3,44,50,2
3,54,50,2
3,53,50,2
3,51,50,2
3,51,50,2
3,49,50,0
3,49,50,1346
3,61,50,2
3,58,50,290
3,58,50,2
3,56,50,2
3,58,50,2
3,58,50,2
3,56,50,0
3,54,50,0
3,58,50,194
3,58,50,2
3,60,50,2
3,56,50,2
3,49,50,2402
3,49,50,2
3,49,50,2
3,49,50,2
3,49,50,2
3,49,50,2
3,48,50,2
3,49,50,2
3,51,50,2
3,49,50,2
3,39,50,2
3,39,50,2
3,41,50,2
3,41,50,2
3,42,50,2
3,41,50,2
3,42,50,2
3,42,50,2
3,44,50,2
3,42,50,2
3,41,50,2
3,39,50,2
3,46,50,866
3,46,50,2
3,46,50,2
3,46,50,2
3,48,50,2
3,49,50,2
3,49,50,2
3,48,50,2
3,48,50,2
3,48,50,2
3,46,50,2
3,46,50,2
3,46,50,2
3,44,50,2
3,44,50,2
3,44,50,2
3,42,50,2
3,41,50,2
3,42,50,2
3,41,50,2
3,49,50,674
3,49,50,2
3,49,50,2
3,49,50,2
3,49,50,2
3,49,50,2
3,48,50,2
3,49,50,2
3,51,50,2
3,49,50,2
3,41,50,2
3,39,50,2
3,41,50,2
3,41,50,2
3,42,50,2
3,41,50,2
3,42,50,2
3,42,50,2
3,44,50,2
3,42,50,2
3,39,50,2
3,46,50,674
3,46,50,2
3,46,50,2
3,46,50,2
3,48,50,2
3,49,50,2
3,49,50,2
3,48,50,2
3,48,50,2
3,46,50,2
3,46,50,2
3,44,50,2
3,44,50,2
3,44,50,2
3,44,50,2
3,44,50,2
3,44,50,2
3,54,50,674
3,54,50,2
3,54,50,2
3,54,50,2
3,54,50,2
3,54,50,2
3,54,50,2
3,53,50,2
3,51,50,2
3,53,50,2
3,49,50,0
3,54,50,290
3,54,50,2
3,54,50,2
3,54,50,2
3,54,50,2
3,54,50,2
3,54,50,2
3,53,50,2
3,51,50,2
3,53,50,2
3,49,50,0
3,51,50,290
3,51,50,2
3,51,50,2
3,51,50,2
3,49,50,2
3,49,50,2
3,48,50,2
3,49,50,2
3,51,50,2
3,49,50,2
3,49,50,2
3,49,50,2
3,48,50,2
3,49,50,2
3,51,50,2
3,49,50,2
3,39,50,2
3,39,50,2
3,41,50,2
3,41,50,2
3,42,50,2
3,42,50,2
3,41,50,2
3,42,50,2
3,44,50,2
3,42,50,2
3,39,50,0
3,46,50,866
3,46,50,2
3,46,50,2
3,46,50,2
3,48,50,2
3,49,50,2
3,49,50,2
3,48,50,2
3,48,50,2
3,48,50,2
3,46,50,2
3,46,50,2
3,46,50,2
3,44,50,2
3,44,50,2
3,44,50,2
3,42,50,2
3,42,50,2
3,42,50,2
3,41,50,2
3,49,50,674
3,49,50,2
3,49,50,2
3,49,50,2
3,48,50,2
3,49,50,2
3,48,50,2
3,49,50,2
3,51,50,2
3,49,50,2
3,41,50,2
3,39,50,2
3,41,50,2
3,41,50,2
3,42,50,2
3,42,50,2
3,41,50,2
3,42,50,2
3,44,50,2
3,42,50,2
3,39,50,2
3,46,50,674
3,46,50,2
3,46,50,2
3,46,50,2
3,48,50,2
3,49,50,2
3,49,50,2
3,48,50,2
3,48,50,2
3,48,50,2
3,46,50,2
3,46,50,2
3,46,50,2
3,44,50,2
3,44,50,2
3,54,50,2
3,53,50,2
3,51,50,2
3,51,50,2
3,49,50,0
3,49,50,1346
3,61,50,2
3,58,50,290
3,58,50,2
3,56,50,2
3,58,50,2
3,58,50,2
3,56,50,0
3,54,50,0
3,58,50,194
3,58,50,2
3,60,50,2
3,56,50,2
3,53,50,290
3,54,50,2
3,53,50,2
3,51,50,2
3,49,50,2
3,44,50,2
3,54,50,1058
3,54,50,2
3,54,50,2
3,54,50,2
3,54,50,2
3,54,50,2
3,54,50,2
3,54,50,2
3,53,50,2
3,51,50,2
3,53,50,2
3,51,50,0
3,49,50,0
3,54,50,290
3,54,50,2
3,54,50,2
3,54,50,2
3,54,50,2
3,54,50,2
3,54,50,2
3,56,50,2
3,53,50,2
3,51,50,2
3,53,50,2
3,51,50,0
3,49,50,0
3,51,50,1826
3,51,50,2
3,51,50,2
3,51,50,2
3,49,50,2
3,48,50,2
3,48,50,2
3,49,50,2
3,51,50,2
3,49,50,2
3,49,50,2
3,49,50,2
3,48,50,2
3,49,50,2
3,51,50,2
3,49,50,2
3,39,50,2
3,39,50,2
3,41,50,2
