track,note,velocity,time
7,79,113,480
7,79,0,19
7,79,103,41
7,79,0,19
7,79,109,41
7,79,0,2
7,75,114,13
7,75,0,23
7,75,100,37
7,75,0,18
7,75,112,42
7,75,0,2
7,70,109,24
7,70,0,24
7,70,91,38
7,70,0,21
7,70,115,41
7,70,0,36
7,68,107,2
7,67,115,55
7,68,0,12
7,68,115,105
7,67,0,1
7,70,109,245
7,68,0,2
7,70,0,55
7,77,114,603
7,77,0,23
7,77,115,34
7,77,0,19
7,77,117,41
7,77,0,4
7,74,116,18
7,74,0,21
7,74,103,39
7,74,0,19
7,74,112,41
7,70,93,6
7,74,0,1
7,70,0,15
7,70,112,31
7,70,0,60
7,74,111,0
7,74,0,89
7,72,114,31
7,70,103,60
7,72,0,6
7,70,0,27
7,70,94,27
7,70,0,123
7,79,113,957
7,79,0,19
7,79,103,41
7,79,0,19
7,79,109,41
7,79,0,2
7,75,114,13
7,75,0,23
7,75,100,37
7,75,0,18
7,75,112,42
7,75,0,6
7,70,109,21
7,70,0,24
7,70,91,35
7,70,0,21
7,70,115,41
7,70,0,1
7,70,107,28
7,70,0,52
7,68,115,13
7,68,0,55
7,67,115,9
7,68,115,53
7,67,0,2
7,70,109,244
7,68,0,2
7,70,0,55
7,77,114,603
7,77,0,23
7,77,106,34
7,77,0,19
7,77,117,41
7,77,0,4
7,74,116,18
7,74,0,21
7,74,103,39
7,74,0,19
7,74,112,41
7,74,0,6
7,70,99,4
7,70,0,15
7,70,112,31
7,70,0,43
7,74,111,17
7,74,0,89
7,75,114,31
7,75,0,29
7,75,108,31
7,75,0,29
7,75,99,31
7,75,0,223
7,79,113,3737
7,79,0,19
7,79,103,41
7,79,0,19
7,79,109,41
7,79,0,2
7,75,114,13
7,75,0,23
7,75,100,37
7,75,0,18
7,75,112,42
7,75,0,2
7,70,109,23
7,70,0,24
7,70,91,42
7,70,0,21
7,70,115,38
7,70,0,38
7,68,107,0
7,67,115,55
7,68,0,2
7,68,115,115
7,67,0,1
7,70,109,245
7,68,0,2
7,70,0,55
7,77,114,603
7,77,0,23
7,77,115,34
7,77,0,19
7,77,117,41
7,77,0,4
7,74,116,18
7,74,0,21
7,74,103,39
7,74,0,19
7,74,112,41
7,70,112,1
7,74,0,6
7,70,0,10
7,70,112,36
7,70,0,60
7,74,111,0
7,72,114,120
7,74,0,6
7,72,0,54
7,70,103,0
7,70,0,33
7,70,94,27
7,70,0,120
7,79,113,960
7,79,0,19
7,79,103,41
7,79,0,19
7,79,109,41
7,79,0,2
7,75,114,13
7,75,0,23
7,75,100,37
7,75,0,18
7,75,112,42
7,75,0,2
7,70,109,24
7,70,0,24
7,70,91,38
7,70,0,21
7,70,115,41
7,68,107,38
7,70,0,3
7,67,115,52
7,68,0,5
7,68,115,112
7,67,0,1
7,70,109,245
7,68,0,2
7,70,0,55
7,77,114,603
7,77,0,23
7,77,106,34
7,77,0,19
7,77,117,41
7,77,0,4
7,74,116,18
7,74,0,21
7,74,103,39
7,74,0,19
7,74,112,41
7,74,0,6
7,70,99,4
7,70,0,15
7,70,112,31
7,70,0,43
7,74,111,17
7,75,114,120
7,74,0,6
7,75,0,23
7,75,108,31
7,75,0,29
7,75,99,31
7,75,0,143
7,75,86,217
7,75,0,16
7,75,99,44
7,75,0,27
7,75,104,25
7,75,0,104
7,72,96,24
7,72,0,21
7,72,88,33
7,72,0,23
7,72,98,46
7,72,0,106
7,67,77,4
7,65,97,66
7,67,0,7
7,63,95,54
7,65,0,5
7,63,0,58
7,65,83,1
7,67,100,53
7,65,0,9
7,67,0,75
7,67,100,42
7,68,106,119
7,67,0,4
7,67,94,54
7,68,0,6
7,67,0,99
7,75,97,847
7,75,0,27
7,75,96,35
7,75,0,34
7,77,103,27
7,75,106,65
7,77,0,4
7,75,0,42
7,75,106,11
7,75,0,46
7,72,102,17
7,70,94,119
7,72,0,4
7,67,85,50
7,70,0,3
7,63,106,60
7,67,0,10
7,65,96,53
7,63,0,1
7,67,98,128
7,65,0,5
7,63,78,49
7,67,0,8
7,63,0,120
7,68,103,766
7,60,78,6
7,70,108,118
7,60,0,3
7,68,0,0
7,62,89,0
7,63,70,116
7,62,0,1
7,72,108,0
7,70,0,8
7,72,0,49
7,70,107,6
7,62,81,0
7,63,0,2
7,62,0,208
7,70,0,0
7,62,72,444
7,71,99,1
7,72,113,119
7,63,72,4
7,71,0,5
7,62,0,4
7,63,0,106
7,74,108,1
7,65,73,1
7,72,0,2
7,67,68,57
7,74,0,2
7,75,99,0
7,65,0,5
7,75,0,202
7,67,0,0
7,72,104,450
7,65,70,3
7,72,0,117
7,74,106,0
7,67,66,5
7,65,0,9
7,67,0,110
7,74,0,0
7,68,67,0
7,75,95,3
7,68,0,58
7,69,75,0
7,77,109,2
7,75,0,3
7,75,105,171
7,70,77,0
7,69,0,3
7,77,0,6
7,74,105,53
7,75,0,1
7,72,76,0
7,70,0,10
7,72,0,166
7,72,112,9
7,74,0,1
7,75,78,0
7,72,0,107
7,75,0,10
7,74,74,2
7,72,107,1
7,74,0,220
7,72,0,14
7,74,74,0
7,70,110,0
7,70,0,240
7,72,110,1
7,74,0,2
7,75,75,0
7,77,78,227
7,74,96,6
7,72,0,4
7,75,0,6
7,77,0,104
7,74,0,3
7,79,113,187
7,79,0,19
7,79,103,41
7,79,0,19
7,79,109,41
7,79,0,2
7,75,114,13
7,75,0,23
7,75,100,37
7,75,0,18
7,75,112,42
7,75,0,2
7,70,109,27
7,70,0,24
7,70,91,35
7,70,0,21
7,70,115,41
7,70,0,38
7,68,107,0
7,67,115,55
7,68,0,5
7,68,115,112
7,67,0,1
7,70,109,245
7,68,0,6
7,70,0,55
7,77,114,603
7,77,0,23
7,77,115,34
7,77,0,19
7,77,117,41
7,77,0,4
7,74,116,18
7,74,0,21
7,74,103,39
7,74,0,19
7,74,112,41
7,74,0,7
7,70,112,46
7,70,0,60
7,74,111,0
7,74,0,116
7,72,114,4
7,72,0,60
7,70,103,0
7,70,0,33
7,70,94,27
7,70,0,123
7,79,113,957
7,79,0,19
7,79,103,41
7,79,0,19
7,79,109,41
7,79,0,2
7,75,114,13
7,75,0,23
7,75,100,37
7,75,0,18
7,75,112,42
7,75,0,2
7,70,109,24
7,70,0,24
7,70,91,34
7,70,0,21
7,70,115,45
7,68,107,38
7,70,0,3
7,67,115,52
7,68,0,5
7,68,115,112
7,67,0,5
7,70,109,241
7,68,0,5
7,70,0,55
7,77,114,603
7,77,0,23
7,77,106,34
7,77,0,19
7,77,117,41
7,77,0,13
7,74,116,5
7,74,0,21
7,74,103,39
7,74,0,19
7,74,112,41
7,74,0,4
7,70,99,0
7,70,0,15
7,70,112,31
7,70,0,60
7,74,111,0
7,74,0,120
7,75,114,0
7,75,0,29
7,75,108,31
7,75,0,29
7,75,99,31
7,75,0,136
7,79,106,3824
7,79,0,19
7,79,97,41
7,79,0,19
7,79,102,41
7,79,0,2
7,75,107,13
7,75,0,23
7,75,94,37
7,75,0,18
7,75,105,42
7,75,0,2
7,70,102,26
7,70,0,24
7,70,86,29
7,70,0,21
7,70,108,48
7,68,101,38
7,70,0,3
7,67,108,52
7,68,0,5
7,68,108,112
7,67,0,8
7,70,102,238
7,68,0,5
7,70,0,55
7,77,107,603
7,77,0,23
7,77,108,34
7,77,0,19
7,77,110,41
7,77,0,4
7,74,109,18
7,74,0,21
7,74,97,39
7,74,0,19
7,74,105,41
7,70,105,3
7,74,0,4
7,70,0,15
7,70,105,31
7,70,0,60
7,74,104,0
7,72,107,120
7,74,0,3
7,70,97,57
7,72,0,3
7,70,0,30
7,70,89,27
7,70,0,103
7,79,109,977
7,79,0,19
7,79,100,41
7,79,0,19
7,79,105,41
7,79,0,2
7,75,110,13
7,75,0,23
7,75,97,37
7,75,0,18
7,75,108,42
7,75,0,2
7,70,105,26
7,70,0,24
7,70,88,36
7,70,0,21
7,70,111,41
7,70,0,1
7,68,104,38
7,67,111,55
7,68,0,8
7,68,111,109
7,67,0,5
7,70,105,241
7,68,0,2
7,70,0,55
7,77,114,603
7,77,0,23
7,77,106,34
7,77,0,19
7,77,117,41
7,74,116,18
7,77,0,3
7,74,0,18
7,74,103,39
7,74,0,19
7,74,112,41
7,70,99,4
7,74,0,3
7,70,0,15
7,70,112,31
7,70,0,43
7,74,111,17
7,75,114,120
7,74,0,6
7,75,0,23
7,75,108,31
7,75,0,29
7,75,99,31
7,75,0,130
7,75,86,233
7,75,0,16
7,75,99,41
7,75,0,27
7,75,104,28
7,75,0,101
7,72,96,24
7,72,0,21
7,72,88,33
7,72,0,23
7,72,98,46
7,67,77,110
7,72,0,3
7,65,97,63
7,67,0,7
7,63,95,54
7,65,0,5
7,63,0,58
7,65,83,1
7,67,100,57
7,65,0,5
7,67,0,79
7,67,100,38
7,68,106,119
7,67,0,8
7,67,94,50
7,68,0,3
7,67,0,127
7,75,97,822
7,75,0,27
7,75,96,35
7,77,103,61
7,75,0,1
7,75,106,64
7,77,0,4
7,75,0,49
7,75,106,8
7,75,0,53
7,72,102,6
7,70,94,119
7,72,0,4
7,70,0,50
7,67,85,0
7,67,0,60
7,63,106,3
7,63,0,60
7,65,96,3
7,67,98,129
7,65,0,5
7,63,78,49
7,67,0,8
7,63,0,93
7,68,103,793
7,60,78,6
7,60,0,118
7,68,0,0
7,70,108,0
7,62,89,3
7,62,0,107
7,63,70,9
7,72,108,1
7,70,0,8
7,72,0,49
7,70,107,6
7,62,81,0
7,63,0,2
7,70,0,168
7,62,0,7
7,62,72,477
7,79,99,1
7,79,0,112
7,62,0,6
7,63,72,5
7,79,113,2
7,79,0,107
7,63,0,3
7,79,108,4
7,65,73,1
7,67,68,59
7,79,0,2
7,75,99,0
7,65,0,5
7,75,0,182
7,67,0,4
7,72,104,466
7,65,70,3
7,74,106,117
7,72,0,2
7,67,66,3
7,65,0,9
7,74,0,101
7,67,0,3
7,68,67,6
7,75,95,3
7,68,0,58
7,69,75,0
7,77,109,2
7,75,0,3
7,69,0,148
7,77,0,9
7,75,105,14
7,70,77,0
7,74,105,62
7,72,76,1
7,70,0,10
7,75,0,3
7,72,0,149
7,74,0,4
7,72,112,19
7,75,78,1
7,72,0,104
7,75,0,6
7,74,74,9
7,72,107,1
7,74,0,211
7,72,0,6
7,74,74,17
7,70,110,0
7,74,0,219
7,70,0,5
7,72,110,17
7,75,75,2
7,72,0,227
7,77,78,0
7,75,0,6
7,74,116,0
7,77,0,145
7,74,0,5
7,79,113,3994
7,79,0,19
7,79,103,41
7,79,0,19
7,79,109,41
7,79,0,2
7,75,114,13
7,75,0,23
7,75,100,37
7,75,0,18
7,75,112,42
7,75,0,2
7,70,109,34
7,70,0,24
7,70,91,38
7,70,0,21
7,70,115,31
7,70,0,28
7,68,107,10
7,67,115,55
7,68,0,8
7,68,115,109
7,67,0,5
7,70,109,241
7,68,0,2
7,70,0,55
7,77,114,603
7,77,0,23
7,77,106,34
7,77,0,19
7,77,117,41
7,77,0,4
7,74,116,18
7,74,0,21
7,74,103,39
7,74,0,19
7,74,112,41
7,74,0,6
7,70,99,4
7,79,111,106
7,70,0,10
7,77,114,110
7,79,0,3
7,77,0,47
7,75,108,10
7,75,0,29
7,75,99,31
7,75,99,0
7,75,0,320
7,75,0,0
8,39,40,589
8,39,0,58
8,51,46,2
8,39,45,60
8,51,0,11
8,51,47,49
8,39,0,4
8,39,50,56
8,51,0,6
8,51,51,54
8,39,0,3
8,39,41,57
8,51,0,7
8,39,0,53
8,51,55,0
8,39,39,60
8,51,0,1
8,51,58,59
8,39,0,6
8,51,0,54
8,39,46,0
8,51,57,60
8,39,0,8
8,51,0,49
8,39,51,3
8,51,63,60
8,39,0,10
8,51,0,48
8,39,50,2
8,51,61,60
8,39,0,9
8,51,0,48
8,39,44,3
8,51,67,60
8,39,0,1
8,39,53,59
8,51,0,4
8,51,64,56
8,39,0,9
8,39,47,51
8,51,0,1
8,51,73,59
8,39,0,7
8,39,55,53
8,51,0,1
8,51,69,59
8,39,0,6
8,39,53,54
8,51,0,2
8,51,70,58
8,39,0,5
8,51,0,53
8,39,57,2
8,51,81,60
8,39,0,6
8,39,55,54
8,51,0,3
8,51,73,57
8,39,0,8
8,39,67,52
8,51,0,1
8,39,0,58
8,51,78,1
8,51,0,42
8,39,70,18
8,39,0,58
8,51,84,2
8,39,63,60
8,51,0,11
8,51,82,49
8,39,0,4
8,39,68,56
8,51,0,6
8,51,82,54
8,39,0,3
8,39,64,57
8,51,0,7
8,39,0,53
8,51,85,0
8,39,58,60
8,51,0,1
8,51,86,59
8,39,0,6
8,51,0,54
8,39,64,0
8,51,82,60
8,39,0,8
8,51,0,49
8,39,63,3
8,51,82,60
8,39,0,10
8,51,0,48
8,39,67,2
8,51,84,60
8,39,0,9
8,51,0,48
8,39,56,3
8,51,85,60
8,39,0,1
8,39,67,59
8,51,0,4
8,51,84,56
8,39,0,9
8,39,57,51
8,51,0,1
8,51,80,59
8,39,0,7
8,39,64,53
8,51,0,1
8,51,78,59
8,39,0,6
8,39,61,54
8,51,0,2
8,51,84,58
8,39,0,5
8,51,0,53
8,39,64,2
8,51,82,60
8,39,0,6
8,39,58,54
8,51,0,3
8,51,80,57
8,39,0,8
8,39,69,52
8,51,0,1
8,39,0,58
8,51,79,1
8,51,0,42
8,39,57,18
8,51,87,60
8,39,0,5
8,51,0,53
8,39,59,2
8,51,86,60
8,39,0,6
8,39,55,54
8,51,0,3
8,51,81,57
8,39,0,8
8,39,64,52
8,51,0,1
8,39,0,58
8,51,81,1
8,51,0,42
8,37,84,18
8,37,0,95
8,37,68,25
8,37,0,34
8,37,73,26
8,37,0,40
8,37,84,20
8,37,0,101
8,37,61,19
8,37,0,32
8,37,70,28
8,37,0,48
8,42,84,12
8,42,0,97
8,42,68,23
8,42,0,28
8,42,79,32
8,42,0,34
8,42,86,26
8,42,0,105
8,42,75,15
8,42,0,31
8,42,69,29
8,42,0,39
8,47,85,21
8,47,0,74
8,47,76,46
8,47,0,34
8,47,76,26
8,47,0,42
8,46,87,18
8,46,0,60
8,46,58,30
8,42,80,30
8,46,0,3
8,41,68,57
8,42,0,4
8,41,0,44
8,39,73,12
8,51,82,60
8,39,0,5
8,51,0,53
8,39,68,2
8,51,84,60
8,39,0,6
8,39,55,54
8,51,0,3
8,51,80,57
8,39,0,8
8,39,64,52
8,51,0,1
8,39,0,58
8,51,82,1
8,51,0,42
8,37,82,18
8,37,0,95
8,37,55,25
8,37,0,34
8,37,73,26
8,37,0,40
8,37,82,20
8,37,0,101
8,37,61,19
8,37,0,32
8,37,70,28
8,37,0,48
8,42,85,12
8,42,0,97
8,42,68,23
8,42,0,28
8,42,79,32
8,42,0,34
8,42,86,26
8,42,0,105
8,42,75,15
8,42,0,31
8,42,67,29
8,42,0,39
8,47,84,21
8,47,0,105
8,47,58,15
8,47,0,35
8,47,56,25
8,47,0,41
8,49,84,19
8,49,0,100
8,49,61,20
8,49,0,36
8,49,64,24
8,49,0,37
8,39,91,23
8,39,0,149
8,39,73,31
8,39,0,31
8,39,82,29
8,39,0,142
8,39,79,38
8,39,0,28
8,43,86,32
8,43,0,145
8,43,87,35
8,43,0,28
8,43,93,32
8,43,0,147
8,43,74,33
8,43,0,31
8,44,92,29
8,44,0,152
8,44,68,28
8,44,0,30
8,44,84,30
8,44,0,171
8,44,69,9
8,44,0,31
8,44,86,29
8,44,0,160
8,44,62,20
8,44,0,29
8,44,85,31
8,44,0,142
8,44,68,38
8,44,0,33
8,34,84,27
8,34,0,151
8,34,67,29
8,34,0,29
8,34,86,31
8,34,0,148
8,34,63,32
8,34,0,29
8,34,85,31
8,34,0,148
8,34,61,32
8,34,0,28
8,34,86,32
8,34,0,154
8,34,72,26
8,34,0,28
8,39,70,32
8,39,0,58
8,51,84,2
8,39,63,60
8,51,0,11
8,51,82,49
8,39,0,4
8,39,68,56
8,51,0,6
8,51,82,54
8,39,0,3
8,39,64,57
