track,note,velocity,time
1,43,7,84
1,62,41,88
1,55,31,2
1,67,45,4
1,71,42,4
1,55,0,46
1,62,0,12
1,71,0,10
1,67,0,4
1,55,60,52
1,62,81,0
1,67,80,0
1,71,72,4
1,62,0,58
1,71,0,4
1,55,0,2
1,67,0,18
1,51,52,36
1,69,83,2
1,60,81,4
1,67,55,0
1,60,0,74
1,51,0,4
1,69,0,6
1,67,0,8
1,51,62,8
1,69,88,6
1,60,81,0
1,67,12,4
1,51,0,50
1,60,0,2
1,67,0,32
1,69,0,2
1,67,66,0
1,62,78,2
1,50,54,4
1,71,68,4
1,50,0,60
1,67,0,24
1,62,0,0
1,71,0,6
1,62,70,36
1,71,72,0
1,67,82,0
1,50,53,2
1,43,0,4
1,71,0,26
1,67,0,4
1,62,0,4
1,50,0,30
1,55,57,92
1,64,72,0
1,52,26,2
1,48,40,2
1,60,53,8
1,52,0,44
1,48,0,10
1,60,0,6
1,55,0,6
1,64,0,4
1,64,42,90
1,55,36,6
1,52,16,4
1,60,38,6
1,48,15,0
1,55,0,206
1,60,0,10
1,52,0,6
1,64,0,6
1,48,0,8
1,31,87,12
1,31,0,10
1,55,79,86
1,62,91,4
1,67,90,2
1,71,81,2
1,55,0,56
1,71,0,14
1,62,0,2
1,67,0,6
1,62,96,40
1,55,90,2
1,67,93,0
1,71,87,2
1,55,0,60
1,62,0,6
1,71,0,2
1,67,0,20
1,51,81,34
1,67,87,2
1,60,92,0
1,69,95,0
1,60,0,10
1,51,0,4
1,69,0,0
1,51,71,30
1,60,87,2
1,69,95,2
1,51,0,50
1,60,0,6
1,69,0,28
1,67,0,2
1,62,84,40
1,50,81,0
1,67,82,2
1,71,79,4
1,50,0,12
1,62,0,16
1,71,0,8
1,67,0,6
1,67,93,36
1,62,88,4
1,71,79,0
1,50,86,0
1,71,0,12
1,62,0,22
1,67,0,2
1,50,0,18
1,52,67,96
1,48,72,2
1,64,80,2
1,55,81,2
1,52,0,72
1,48,0,4
1,55,0,8
1,64,0,4
1,52,82,80
1,48,79,2
1,64,82,0
1,55,82,0
1,55,0,518
1,52,0,4
1,48,0,26
1,64,0,8
1,43,1,32
1,62,35,4
1,55,40,0
1,71,51,2
1,67,41,4
1,71,0,62
1,62,0,2
1,55,0,2
1,67,0,6
1,62,69,48
1,55,47,2
1,67,62,0
1,71,62,4
1,62,0,56
1,71,0,4
1,55,0,4
1,67,0,14
1,69,66,38
1,51,51,2
1,60,41,4
1,67,39,4
1,60,0,50
1,51,0,10
1,69,0,10
1,67,0,16
1,51,28,14
1,69,57,8
1,60,61,4
1,67,1,10
1,60,0,28
1,51,0,18
1,69,0,14
1,62,49,44
1,50,46,2
1,71,48,2
1,62,0,12
1,71,0,4
1,50,0,4
1,67,0,10
1,62,68,42
1,67,62,0
1,71,51,4
1,50,18,2
1,71,0,14
1,67,0,6
1,62,0,4
1,50,0,4
1,63,46,18
1,51,46,2
1,60,32,2
1,72,53,6
1,67,18,8
1,51,0,12
1,60,0,2
1,72,0,10
1,67,0,2
1,63,0,2
1,63,33,62
1,51,27,6
1,60,26,4
1,72,51,2
1,67,21,12
1,51,0,10
1,72,0,16
1,67,0,14
1,60,0,12
1,63,0,6
1,67,28,108
1,62,45,2
1,71,40,6
1,50,29,0
1,50,0,58
1,62,0,2
1,67,0,2
1,71,0,0
1,62,43,40
1,50,23,4
1,67,46,0
1,71,49,6
1,55,37,98
1,62,0,2
1,71,0,72
1,67,0,32
1,62,40,6
1,55,0,6
1,50,0,10
1,43,0,12
1,62,0,104
1,67,22,2
1,67,0,84
1,38,29,54
1,60,38,100
1,69,50,0
1,66,30,8
1,50,1,14
1,69,0,44
1,66,0,2
1,50,0,0
1,60,0,2
1,66,49,62
1,60,57,2
1,50,16,2
1,69,61,2
1,38,0,24
1,50,0,18
1,60,0,10
1,69,0,2
1,66,0,8
1,40,47,48
1,66,37,6
1,59,44,10
1,69,60,2
1,59,0,10
1,66,0,2
1,69,0,6
1,52,38,24
1,66,52,6
1,59,37,6
1,69,66,2
1,69,0,76
1,52,0,4
1,59,0,6
1,66,0,4
1,59,27,20
1,67,65,4
1,52,35,8
1,64,55,0
1,52,0,22
1,59,0,16
1,64,0,4
1,67,0,6
1,40,0,4
1,59,62,62
1,64,78,0
1,67,63,2
1,59,0,12
1,64,0,2
1,67,0,2
1,66,47,106
1,36,20,8
1,48,21,4
1,62,42,6
1,57,26,0
1,48,0,32
1,57,0,12
1,62,0,4
1,66,0,6
1,66,34,60
1,48,31,10
1,57,24,4
1,62,38,0
1,48,0,52
1,62,0,6
1,57,0,20
1,66,0,4
1,48,19,118
1,60,25,8
1,64,28,2
1,57,9,4
1,48,0,50
1,57,0,8
1,60,0,10
1,64,0,8
1,48,23,74
1,60,18,6
1,64,13,8
1,55,25,2
1,48,0,88
1,50,13,104
1,50,0,88
1,36,0,20
1,55,0,4
1,60,0,38
1,64,0,12
1,31,89,6
1,31,0,10
1,67,76,102
1,62,79,0
1,71,71,4
1,55,42,0
1,43,21,2
1,55,0,54
1,62,0,6
1,71,0,6
1,67,0,8
1,55,83,46
1,67,82,0
1,62,92,0
1,71,82,2
1,62,0,56
1,71,0,8
1,55,0,16
1,51,76,34
1,60,85,2
1,69,86,0
1,51,0,64
1,60,0,0
1,69,0,14
1,67,0,20
1,51,69,20
1,60,91,2
1,69,87,2
1,67,36,6
1,60,0,46
1,51,0,4
1,69,0,26
1,67,0,12
1,67,32,18
1,62,90,2
1,50,77,0
1,71,80,4
1,62,0,48
1,50,0,2
1,71,0,4
1,67,0,12
1,67,78,44
1,62,91,2
1,50,74,2
1,71,79,0
1,62,0,30
1,71,0,6
1,50,0,4
1,67,0,6
1,51,60,78
1,60,58,2
1,63,62,0
1,72,72,2
1,67,51,6
1,51,0,38
1,60,0,8
1,63,0,12
1,72,0,8
1,67,0,2
1,63,49,56
1,72,53,0
1,51,28,2
1,60,22,6
1,67,45,0
1,51,0,70
1,72,0,4
1,60,0,10
1,67,0,12
1,63,0,4
1,55,27,124
1,62,26,8
1,71,36,6
1,67,11,0
1,55,0,18
1,71,0,18
1,62,0,6
1,67,0,16
1,62,58,0
1,71,56,6
1,67,39,2
1,50,32,12
1,62,0,22
1,55,38,34
1,71,0,2
1,67,0,30
1,62,103,100
1,55,0,44
1,50,0,16
1,43,0,24
1,67,101,36
1,62,0,18
1,67,0,32
1,38,89,66
1,66,86,24
1,50,77,0
1,60,93,2
1,69,92,2
1,50,0,68
1,60,0,4
1,69,0,0
1,66,0,4
1,60,88,46
1,66,78,2
1,69,96,0
1,50,66,2
1,38,0,26
1,50,0,26
1,60,0,10
1,69,0,4
1,66,0,8
1,40,79,32
1,66,77,10
1,59,78,0
1,69,94,2
1,59,0,76
1,66,0,4
1,69,0,0
1,52,81,30
1,66,81,2
1,59,78,0
1,69,95,2
1,69,0,80
1,59,0,2
1,66,0,8
1,67,90,24
1,59,75,2
1,64,86,4
1,52,0,12
1,59,0,36
1,67,0,10
1,64,0,2
1,40,0,2
1,59,76,58
1,67,94,2
1,64,91,0
1,59,0,40
1,64,0,10
1,67,0,14
1,66,80,56
1,64,55,58
1,66,0,2
1,64,0,14
1,33,69,76
1,66,74,0
1,45,57,2
1,57,59,10
1,45,0,36
1,57,0,34
1,57,53,30
1,62,80,0
1,62,0,46
1,57,0,26
1,66,0,24
1,57,68,28
1,64,85,2
1,61,79,2
1,45,32,10
1,57,0,34
1,61,0,2
1,45,0,6
1,64,0,40
1,45,60,34
1,64,75,4
1,61,85,0
1,57,87,4
1,45,0,64
1,57,0,30
1,45,66,60
1,55,96,6
1,57,88,0
1,61,0,6
1,55,0,78
1,57,0,14
1,59,82,26
1,64,0,40
1,45,0,10
1,33,0,14
1,59,0,46
2,33,90,13422
2,45,56,114
2,72,75,2
2,60,58,2
2,64,62,0
2,69,55,4
2,72,0,4
2,60,0,4
2,69,0,4
2,45,0,2
2,64,0,0
2,33,0,12
2,33,55,38
2,60,84,8
2,72,87,0
2,45,62,2
2,64,78,2
2,69,70,6
2,33,0,24
2,72,0,10
2,69,0,4
2,60,0,2
2,45,0,0
2,64,0,0
2,35,58,0
2,71,73,6
2,59,71,0
2,47,54,0
2,62,59,6
2,67,53,2
2,62,0,16
2,59,0,2
2,47,0,6
2,35,0,4
2,71,0,6
2,67,0,8
2,62,99,28
2,59,77,2
2,71,75,0
2,67,80,2
2,35,60,0
2,47,82,0
2,71,0,10
2,59,0,2
2,67,0,2
2,62,0,10
2,35,0,12
2,47,0,8
2,36,77,68
2,69,84,0
2,64,85,0
2,48,74,2
2,60,81,0
2,57,60,2
2,60,0,6
2,57,0,0
2,48,0,2
2,64,0,8
2,69,0,10
2,36,0,4
2,60,95,26
2,64,85,2
2,69,84,0
2,57,82,0
2,36,22,2
2,48,88,0
2,36,0,18
2,60,0,4
2,0,54,2
2,0,0,4
2,0,59,0
2,48,0,14
2,50,87,80
2,38,83,2
2,62,84,0
2,71,79,0
2,59,66,2
2,67,79,2
2,59,0,40
2,62,0,10
2,50,0,4
2,71,0,16
2,67,0,0
2,38,0,4
2,38,70,38
2,71,78,4
2,50,84,2
2,62,91,0
2,67,76,0
2,59,69,2
2,71,0,40
2,67,0,0
2,62,0,22
2,59,0,0
2,50,0,2
2,38,0,6
2,38,46,68
2,50,26,16
2,50,0,22
2,69,71,70
2,66,52,4
2,57,47,2
2,62,62,0
2,50,43,4
2,50,0,30
2,62,0,24
2,69,0,4
2,57,0,0
2,66,0,6
2,50,45,46
2,66,59,2
2,57,60,2
2,69,78,0
2,62,74,2
2,50,0,16
2,62,0,16
2,60,54,8
2,48,27,6
2,48,0,46
2,57,0,16
2,38,0,4
2,60,0,4
2,69,0,6
2,66,0,0
2,35,59,78
2,47,74,20
2,62,94,2
2,59,77,4
2,71,80,0
2,67,80,4
2,47,0,4
2,35,0,12
2,59,0,10
2,62,0,6
2,71,0,6
2,67,0,6
2,33,82,24
2,62,87,0
2,45,81,0
2,71,82,4
2,67,90,0
2,59,78,0
2,45,0,38
2,33,0,14
2,59,0,10
2,62,0,14
2,71,0,4
2,67,0,4
2,43,75,22
2,31,77,0
2,62,88,0
2,59,79,6
2,67,77,0
2,71,78,0
2,43,0,34
2,31,0,14
2,67,0,0
2,62,0,12
2,59,0,12
2,71,0,0
2,29,83,6
2,62,100,2
2,65,98,0
2,41,77,2
2,71,87,0
2,59,85,2
2,59,0,10
2,62,0,10
2,65,0,6
2,71,0,6
2,41,0,14
2,74,102,30
2,62,107,2
2,62,0,44
2,74,0,2
2,41,49,68
2,41,0,16
2,29,0,28
2,55,94,58
2,67,93,0
2,64,92,2
2,40,73,2
2,60,92,0
2,28,78,2
2,40,0,10
2,40,73,32
2,28,0,46
2,40,0,10
2,55,0,112
2,60,0,4
2,40,42,66
2,55,18,28
2,64,0,12
2,55,0,12
2,55,38,62
2,52,28,0
2,60,46,4
2,52,0,20
2,60,0,2
2,55,0,2
2,55,70,2
2,52,41,2
2,60,66,0
2,52,0,46
2,67,0,90
2,55,0,8
2,60,0,6
2,50,27,24
2,50,0,34
2,65,75,82
2,59,52,2
2,62,60,0
2,53,41,2
2,55,57,4
2,50,53,0
2,55,0,16
2,53,0,2
2,65,0,2
2,59,0,4
2,62,0,2
2,40,0,2
2,59,74,30
2,62,85,0
2,53,77,2
2,55,85,2
2,65,85,0
2,53,0,12
2,55,0,2
2,59,0,16
2,62,0,8
2,65,0,12
2,38,49,76
2,71,68,2
2,67,32,12
2,67,0,36
2,71,0,4
2,50,0,34
2,67,86,24
2,62,94,0
2,71,78,2
2,59,72,2
2,50,71,6
2,59,0,18
2,71,0,2
2,67,0,2
2,62,0,2
2,59,12,16
2,62,28,4
2,67,47,2
2,71,67,10
2,59,0,40
2,62,0,8
2,71,0,10
2,67,0,8
2,67,78,44
2,59,80,0
2,62,91,2
2,71,78,2
2,62,0,20
2,59,0,4
2,67,0,14
2,71,0,8
2,74,90,80
2,62,91,2
2,50,0,38
2,62,0,8
2,74,0,4
2,50,55,68
2,50,0,16
2,38,0,22
2,36,40,76
2,55,54,0
2,67,61,0
2,64,59,4
2,48,37,0
2,60,65,2
2,48,0,24
2,60,0,28
2,55,0,8
2,64,0,4
2,67,0,0
2,67,90,74
2,64,94,2
2,55,91,0
2,48,80,0
2,48,0,46
2,55,0,20
2,64,0,20
2,67,0,2
2,36,0,16
2,47,69,16
2,62,92,0
2,67,84,0
2,55,83,2
2,47,0,30
2,55,0,38
2,62,0,20
2,67,0,4
2,45,64,12
2,60,97,8
2,55,85,2
2,67,66,0
2,45,0,38
2,60,0,14
2,55,0,14
2,67,0,6
2,35,46,14
2,67,73,0
2,59,69,4
2,55,74,0
2,47,38,2
2,62,71,0
2,55,0,52
2,59,0,6
2,62,0,10
2,67,0,14
2,71,78,164
2,59,73,0
2,71,0,14
2,59,0,4
2,47,0,38
2,35,0,56
2,45,78,18
2,55,77,2
2,64,91,0
2,60,59,10
2,33,78,16
2,60,0,40
2,55,0,12
2,64,0,10
2,64,66,54
2,55,22,6
2,61,56,4
2,57,44,2
2,57,0,48
2,61,0,0
2,64,0,2
2,55,0,2
2,61,65,54
2,64,80,2
2,55,40,2
2,57,60,4
2,57,0,88
2,55,0,4
2,64,0,12
2,61,0,8
2,62,81,6
2,45,0,42
2,62,0,26
2,61,57,50
2,64,64,2
2,45,45,4
2,55,37,4
2,57,41,0
2,45,0,40
2,61,0,30
2,55,0,6
2,57,0,2
2,64,0,14
2,45,24,74
2,67,67,0
2,61,56,4
2,57,37,8
2,55,37,0
2,33,0,22
2,45,0,18
2,55,0,46
2,57,0,4
2,61,0,8
2,67,0,12
2,50,37,154
2,64,59,4
2,55,47,0
2,38,35,2
2,60,35,10
2,64,0,62
2,55,0,0
2,60,0,8
2,50,0,22
2,38,0,34
2,38,7,88
2,62,56,60
2,54,28,2
2,57,37,4
2,62,0,60
2,38,0,4
2,54,0,4
2,57,0,8
2,38,11,64
2,62,62,20
2,54,33,2
2,57,30,10
2,50,18,6
2,60,60,152
2,62,0,64
2,50,0,16
2,38,0,14
2,54,0,8
2,60,0,12
2,57,0,6
2,0,0,144
2,69,0,0
2,64,0,0
2,57,0,0
3,43,34,20
3,50,36,132
3,62,43,12
3,67,45,2
3,71,54,10
3,62,0,46
3,71,0,12
3,67,0,4
3,67,78,42
3,62,81,2
3,71,75,0
3,62,0,68
3,67,0,2
3,71,0,0
3,50,0,34
3,55,85,2
3,69,95,12
3,60,91,4
3,67,75,2
3,55,0,26
3,60,0,16
3,69,0,12
3,67,0,12
3,51,83,36
3,60,92,2
3,69,94,0
3,67,71,4
3,60,0,46
3,51,0,6
3,43,0,10
3,67,0,2
3,69,0,2
3,62,86,46
3,67,83,4
3,71,77,0
3,50,87,0
3,62,0,58
3,71,0,6
3,50,0,2
3,67,0,8
3,43,81,42
3,62,95,0
3,67,90,2
3,71,80,2
3,62,0,38
3,43,0,8
3,71,0,0
3,67,0,14
3,51,69,48
3,60,66,0
3,63,71,4
3,72,82,2
3,67,63,4
3,60,0,52
3,51,0,2
3,63,0,8
3,67,0,8
3,72,0,6
3,63,56,38
3,72,81,2
3,60,56,2
3,51,36,0
3,67,44,8
3,51,0,52
3,55,48,136
3,60,0,56
3,55,0,6
3,72,0,6
3,67,0,2
3,63,0,6
3,62,86,44
3,67,73,4
3,71,71,0
3,51,50,0
3,51,0,42
3,62,0,4
3,67,0,14
3,71,0,2
3,55,42,66
3,62,75,0
3,71,71,4
3,67,76,0
3,43,38,4
3,55,0,126
3,50,100,36
3,43,0,32
3,50,0,10
3,71,0,204
3,67,0,0
3,38,94,8
3,62,0,8
3,50,91,14
3,66,85,0
3,60,94,0
3,69,95,2
3,60,0,48
3,50,0,6
3,69,0,2
3,66,0,2
3,50,86,38
3,60,90,2
3,66,82,2
3,69,95,2
3,38,0,32
3,50,0,18
3,60,0,8
3,66,0,14
3,69,0,2
3,40,82,30
3,66,74,2
