track,note,velocity,time
2,40,119,153425
2,40,122,940
2,40,120,940
2,40,117,940
2,40,121,940
2,40,121,940
2,40,122,940
2,40,119,940
2,40,119,940
2,40,122,940
2,40,117,940
2,40,120,940
2,40,122,940
2,40,121,940
2,40,121,940
2,40,117,940
3,65,73,3095
3,53,79,20
3,58,81,20
3,60,72,20
3,65,72,20
3,53,73,20
3,58,75,20
3,60,79,20
3,65,73,20
3,53,73,20
3,58,73,20
3,60,81,20
3,65,76,20
3,53,77,20
3,58,80,20
3,60,74,20
3,65,79,20
3,55,76,20
3,57,75,20
3,60,75,20
3,65,79,20
3,60,78,20
3,57,72,20
3,65,77,20
3,60,78,20
3,57,79,20
3,67,80,20
3,65,77,20
3,60,74,20
3,57,75,20
3,65,76,20
3,67,72,20
3,55,82,20
3,63,74,20
3,60,79,20
3,67,82,20
3,63,77,20
3,60,82,20
3,62,76,20
3,60,77,20
3,67,82,20
3,60,78,20
3,62,74,20
3,60,76,20
3,63,77,20
3,60,74,20
3,55,72,20
3,60,73,20
3,62,78,20
3,67,79,20
3,62,78,20
3,58,77,20
3,55,76,20
3,58,74,20
3,62,79,20
3,67,73,20
3,62,78,20
3,58,75,20
3,55,81,20
3,58,76,20
3,62,76,20
3,67,72,20
3,62,76,20
3,58,74,20
3,65,80,20
3,53,80,20
3,58,72,20
3,60,73,20
3,65,76,20
3,53,76,20
3,58,75,20
3,60,76,20
3,65,74,20
3,53,74,20
3,58,75,20
3,60,82,20
3,65,79,20
3,53,77,20
3,58,79,20
3,60,80,20
3,65,79,20
3,55,72,20
3,57,78,20
3,60,81,20
3,65,74,20
3,60,79,20
3,57,78,20
3,65,81,20
3,60,72,20
3,57,78,20
3,67,81,20
3,65,81,20
3,60,74,20
3,57,74,20
3,65,75,20
3,67,78,20
3,55,73,20
3,63,72,20
3,60,72,20
3,67,72,20
3,63,74,20
3,60,80,20
3,62,82,20
3,60,74,20
3,67,75,20
3,60,80,20
3,62,74,20
3,60,81,20
3,63,76,20
3,60,73,20
3,55,78,20
3,60,73,20
3,62,81,20
3,67,72,20
3,62,80,20
3,58,78,20
3,55,79,20
3,58,77,20
3,62,79,20
3,67,77,20
3,62,76,20
3,58,73,20
3,55,75,20
3,58,73,20
3,62,77,20
3,67,81,20
3,62,79,20
3,58,82,20
3,55,82,20
3,58,81,20
3,63,73,20
3,65,73,20
3,58,74,20
3,55,77,20
3,58,72,20
3,63,73,20
3,55,77,20
3,58,77,20
3,63,72,20
3,65,77,20
3,58,81,20
3,55,81,20
3,58,78,20
3,63,82,20
3,58,81,20
3,53,79,20
3,60,78,20
3,62,72,20
3,65,73,20
3,53,79,20
3,58,79,20
3,60,82,20
3,53,73,20
3,58,77,20
3,60,82,20
3,65,72,20
3,60,75,20
3,58,78,20
3,53,75,20
3,58,75,20
3,56,78,20
3,63,82,20
3,60,75,20
3,68,72,20
3,63,78,20
3,58,73,20
3,60,72,20
3,68,75,20
3,63,82,20
3,58,82,20
3,60,78,20
3,68,77,20
3,63,78,20
3,58,72,20
3,60,81,20
3,58,75,20
3,58,73,20
3,65,72,20
3,67,74,20
3,58,80,20
3,55,80,20
3,58,72,20
3,65,78,20
3,63,77,20
3,57,81,20
3,60,76,20
3,67,73,20
3,65,74,20
3,60,78,20
3,57,74,20
3,60,75,20
3,65,79,20
3,65,78,20
3,53,72,20
3,58,73,20
3,60,82,20
3,65,73,20
3,53,81,20
3,58,82,20
3,60,82,20
3,65,74,20
3,53,74,20
3,58,80,20
3,60,78,20
3,65,82,20
3,53,76,20
3,58,77,20
3,60,76,20
3,65,73,20
3,55,78,20
3,57,82,20
3,60,80,20
3,65,79,20
3,60,79,20
3,57,78,20
3,65,78,20
3,60,72,20
3,57,74,20
3,67,78,20
3,65,78,20
3,60,81,20
3,57,82,20
3,65,81,20
3,67,75,20
3,55,79,20
3,63,76,20
3,60,77,20
3,67,73,20
3,63,73,20
3,60,78,20
3,62,73,20
3,60,75,20
3,67,76,20
3,60,79,20
3,62,73,20
3,60,80,20
3,63,80,20
3,60,80,20
3,55,75,20
3,60,72,20
3,62,72,20
3,67,79,20
3,62,77,20
3,58,76,20
3,55,79,20
3,58,75,20
3,62,76,20
3,67,76,20
3,62,81,20
3,58,79,20
3,55,78,20
3,58,82,20
3,62,79,20
3,67,77,20
3,62,76,20
3,58,78,20
3,55,79,20
3,58,74,20
3,63,79,20
3,65,78,20
3,58,80,20
3,55,78,20
3,58,77,20
3,63,80,20
3,55,75,20
3,58,78,20
3,63,73,20
3,65,76,20
3,58,81,20
3,55,76,20
3,58,74,20
3,63,79,20
3,58,79,20
3,53,80,20
3,60,74,20
3,62,72,20
3,65,74,20
3,53,80,20
3,58,74,20
3,60,81,20
3,53,74,20
3,58,82,20
3,60,75,20
3,65,82,20
3,60,74,20
3,58,79,20
3,53,78,20
3,58,80,20
4,34,120,3005
4,38,119,20
4,39,118,20
4,41,116,20
4,36,121,20
4,29,121,20
4,33,118,20
4,34,116,20
4,36,117,20
4,39,119,20
4,41,116,20
4,43,120,20
4,38,116,20
4,31,119,20
4,31,118,10
4,34,117,20
4,38,121,20
4,39,118,20
4,41,116,20
4,41,119,20
4,36,117,10
4,39,117,20
4,41,117,20
4,43,121,20
4,38,116,20
4,31,117,20
4,39,119,20
4,39,118,20
4,34,119,10
4,34,117,20
4,32,117,20
4,39,116,20
4,44,88,20
4,39,88,20
4,29,121,20
4,36,121,20
4,41,88,20
4,36,88,20
4,34,117,20
4,38,119,20
4,39,116,20
4,41,118,20
4,41,118,20
4,36,121,10
4,39,119,20
4,41,118,20
4,43,116,20
4,31,121,20
4,39,116,10
4,39,116,20
4,34,117,10
4,34,121,20
5,32,109,37475
5,32,110,20
5,32,109,20
5,32,108,20
5,32,111,20
5,32,110,20
5,32,108,20
5,32,108,20
5,32,111,20
5,29,110,20
5,29,109,20
5,29,108,20
5,29,109,20
5,29,109,20
5,29,108,20
5,29,110,20
5,29,110,20
5,34,108,20
5,34,109,20
5,34,108,20
5,26,109,20
5,27,110,20
5,29,111,20
5,29,109,20
5,29,111,20
5,33,108,20
5,34,111,20
5,36,110,20
5,36,111,20
5,36,111,20
5,27,108,20
5,29,110,20
5,31,110,20
5,31,109,20
5,31,108,20
5,31,110,20
5,29,111,20
5,27,111,20
5,27,110,20
5,27,111,20
5,31,110,20
5,33,111,20
5,34,108,20
5,34,110,20
5,34,108,20
5,34,111,20
5,29,110,20
5,32,109,20
5,32,110,20
5,32,109,20
5,32,109,20
5,32,110,20
5,29,110,20
5,29,111,20
5,29,109,20
5,29,111,20
5,29,111,260
5,31,111,20
5,43,110,20
5,31,111,20
5,29,109,20
5,41,110,20
5,29,110,20
5,27,111,20
5,39,111,20
5,27,111,20
5,27,109,20
5,39,109,20
5,31,108,260
5,31,110,20
5,43,108,20
5,31,109,20
5,29,108,20
5,41,109,20
5,29,110,20
5,27,110,20
5,39,108,20
5,27,108,20
5,27,110,20
5,41,111,20
5,34,108,260
5,34,108,20
5,34,108,20
5,36,111,260
5,36,109,20
5,36,111,20
5,36,111,260
5,38,111,20
5,38,110,20
5,39,108,260
5,39,108,20
5,39,110,20
5,27,108,20
5,29,111,20
5,41,111,20
5,29,108,20
5,29,109,20
5,41,109,20
5,29,111,20
5,41,111,20
5,29,108,20
5,29,109,20
5,31,108,260
5,31,111,20
5,43,111,20
5,31,109,20
5,29,110,20
5,41,109,20
5,29,108,20
5,27,111,20
5,39,111,20
5,27,110,20
5,27,109,20
5,41,110,20
5,31,110,260
5,31,109,20
5,43,111,20
5,31,110,20
5,29,111,20
5,41,111,20
5,29,110,20
5,27,110,20
5,39,108,20
5,27,111,20
5,27,110,20
5,41,110,20
5,34,110,260
5,34,111,20
5,34,111,20
5,36,108,260
5,36,109,20
5,36,108,20
5,36,109,260
5,38,109,20
5,38,110,20
5,39,109,260
5,39,110,20
5,27,108,20
5,29,108,20
5,41,109,20
5,29,111,20
5,29,111,20
5,41,109,20
5,29,108,20
5,41,109,20
5,29,110,20
5,29,111,20
5,41,109,20
5,34,108,20
5,34,110,260
5,34,111,20
5,26,109,20
5,27,111,20
5,29,108,20
5,29,109,260
5,29,111,20
5,33,110,20
5,34,110,20
5,36,109,20
5,36,109,260
5,36,111,20
5,27,109,20
5,29,111,20
5,31,110,20
5,31,110,260
5,31,111,20
5,31,108,20
5,29,108,20
5,27,109,20
5,27,110,260
5,27,108,20
5,31,108,20
5,33,110,20
5,34,111,20
5,34,110,260
5,34,111,20
5,34,108,20
5,29,111,20
5,32,108,20
5,32,110,20
5,32,110,20
5,32,110,20
5,32,108,20
5,29,111,20
5,29,109,20
5,29,109,20
5,29,111,20
5,29,108,260
5,34,109,20
5,34,109,20
5,34,110,20
5,26,110,20
5,27,108,20
5,29,108,20
5,29,108,20
5,29,110,20
5,33,108,20
5,34,111,20
5,36,108,20
5,36,109,20
5,36,110,20
5,27,108,20
5,29,111,20
5,31,111,20
5,31,108,20
5,31,109,20
5,31,108,20
5,29,109,20
5,27,111,20
5,27,109,20
5,27,111,20
5,31,109,20
5,33,111,20
5,34,109,20
5,34,110,20
5,34,110,20
5,34,108,20
5,29,111,20
5,32,110,20
5,32,108,20
5,32,111,20
5,32,110,20
5,32,111,20
5,29,110,20
5,29,111,20
5,29,111,20
5,29,108,20
5,29,110,260
5,31,111,20
5,43,108,20
5,31,111,20
5,29,111,20
5,41,108,20
5,29,111,20
5,27,111,20
5,39,110,20
5,27,108,20
5,27,110,20
5,39,111,20
5,31,111,260
5,31,110,20
5,43,109,20
5,31,110,20
5,29,108,20
5,41,109,20
5,29,111,20
5,27,108,20
5,39,109,20
5,27,108,20
5,27,111,20
5,41,108,20
5,34,108,260
5,34,109,20
5,34,109,20
5,36,111,260
5,36,108,20
5,36,108,20
5,36,110,260
5,38,110,20
5,38,109,20
5,39,109,260
5,39,111,20
5,39,110,20
5,27,108,20
5,29,108,20
5,41,108,20
5,29,110,20
5,29,109,20
5,41,111,20
5,29,111,20
5,41,109,20
5,29,108,20
5,29,110,20
5,31,111,260
5,31,108,20
5,43,110,20
5,31,108,20
5,29,109,20
5,41,111,20
5,29,110,20
5,27,111,20
5,39,109,20
5,27,108,20
5,27,111,20
5,41,110,20
5,31,111,260
5,31,109,20
5,43,109,20
5,31,108,20
5,29,110,20
5,41,109,20
5,29,110,20
5,27,108,20
5,39,109,20
5,27,110,20
5,27,108,20
5,41,111,20
5,34,109,260
5,34,108,20
5,34,111,20
5,36,109,260
5,36,111,20
5,36,108,20
5,36,109,260
5,38,111,20
5,38,110,20
5,39,109,260
5,39,111,20
5,27,109,20
5,29,110,20
5,41,109,20
5,29,109,20
5,29,108,20
5,41,111,20
5,29,108,20
5,41,110,20
5,29,109,20
5,29,108,20
5,41,111,20
5,32,108,20
5,32,108,20
5,44,109,260
5,32,108,20
5,32,111,20
5,44,110,260
5,32,108,20
5,32,110,20
5,44,108,260
5,32,108,20
5,32,109,20
5,44,111,260
5,29,108,20
5,29,111,20
5,41,110,260
5,29,108,20
5,29,108,20
5,41,109,260
5,29,108,20
5,29,109,20
5,41,110,260
5,29,110,20
5,29,110,20
5,41,110,260
5,32,110,20
5,32,108,20
5,44,109,260
5,32,109,20
5,32,108,20
5,44,111,260
5,32,111,20
5,32,108,20
5,44,109,260
5,32,110,20
5,32,110,20
5,44,108,260
5,29,111,20
5,29,110,20
5,41,111,260
5,29,110,20
5,29,111,20
5,41,108,260
5,29,110,20
5,29,108,20
5,41,109,260
5,29,108,20
5,29,109,20
5,31,108,260
5,31,108,20
5,31,108,20
5,31,109,740
5,31,111,20
5,27,109,260
5,27,110,20
5,27,108,20
5,29,108,500
5,29,110,20
5,31,108,260
5,31,108,20
5,31,110,740
5,31,110,20
5,27,108,260
5,27,110,20
5,27,108,20
5,29,108,500
5,29,109,20
5,34,111,260
5,34,111,20
5,36,109,260
5,36,110,20
5,36,109,20
5,36,111,260
5,38,108,20
5,38,111,20
5,39,108,260
5,39,110,20
5,27,109,20
5,29,111,20
5,41,109,20
5,29,108,20
5,29,109,20
5,41,109,20
5,29,111,20
5,29,109,20
5,41,110,20
5,29,108,20
5,29,109,20
5,41,108,20
5,31,111,20
5,31,110,20
5,31,109,20
5,43,109,20
5,31,109,20
5,29,109,20
5,29,109,20
5,41,111,20
5,29,109,20
5,27,111,20
5,27,109,20
5,39,109,20
5,27,109,20
5,29,109,20
5,29,108,20
5,41,108,20
5,31,109,20
5,31,111,20
5,31,109,20
5,43,108,20
5,31,111,20
5,29,109,20
5,29,108,20
5,41,110,20
5,29,110,20
5,27,109,20
5,27,109,20
5,39,108,20
5,27,109,20
5,29,110,20
5,29,110,20
5,41,108,20
5,31,110,20
5,31,109,20
5,31,108,20
5,43,111,20
5,31,109,20
5,29,109,20
5,29,111,20
5,41,111,20
5,29,108,20
5,27,110,20
5,27,108,20
5,39,109,20
5,27,108,20
5,29,109,20
5,29,108,20
5,41,109,20
5,31,111,20
5,31,110,20
5,31,109,20
5,43,109,20
5,31,109,20
5,29,109,20
5,29,109,20
5,41,111,20
5,29,109,20
5,27,108,20
5,27,110,20
5,39,111,20
5,27,110,20
5,29,110,20
5,29,109,20
5,41,110,20
5,31,111,20
5,31,108,20
5,31,108,20
5,26,109,20
5,29,110,20
5,31,110,20
5,26,109,20
5,29,108,20
5,34,108,20
5,34,110,20
6,74,95,2825
6,72,95,20
6,70,93,20
6,72,92,20
6,72,91,20
6,74,91,20
6,75,94,20
6,74,94,20
6,72,93,20
6,74,94,20
6,74,93,80660
6,75,94,20
6,72,94,20
6,72,94,20
6,74,96,20
6,75,93,20
6,77,92,20
6,74,94,20
6,72,94,20
6,70,94,20
6,79,93,20
6,77,93,20
6,75,93,20
6,77,92,20
6,75,92,20
6,74,92,20
6,72,96,20
6,75,95,20
6,74,91,20
6,72,93,20
7,68,87,37775
7,72,85,0
7,63,85,0
7,72,86,30
7,68,86,0
7,63,86,0
7,70,86,30
7,67,87,0
7,63,87,0
7,70,88,30
7,63,88,0
7,67,85,0
7,67,85,30
7,70,86,0
7,63,88,0
7,63,87,270
7,68,88,0
7,72,87,0
7,68,86,30
7,72,87,0
7,63,85,0
7,63,86,510
7,67,85,0
7,70,86,0
7,70,86,30
7,67,86,0
7,63,87,0
7,63,88,30
7,70,86,0
7,67,87,0
7,63,87,270
7,70,88,0
7,67,87,0
7,65,88,270
7,72,86,0
7,69,85,0
7,65,87,30
7,72,88,0
7,69,85,0
7,63,86,30
7,70,86,0
7,67,86,0
7,72,87,30
7,65,86,0
7,69,86,0
7,65,87,30
7,72,87,0
7,69,86,0
7,72,87,12030
7,63,85,0
7,68,85,0
7,70,86,30
7,63,85,0
7,67,87,0
7,68,88,30
7,63,87,0
7,72,87,0
7,72,85,30
7,68,87,0
7,63,87,0
7,75,85,510
7,67,86,0
7,70,86,0
7,72,88,30
7,69,87,0
7,77,85,0
7,72,85,30
7,69,88,0
7,77,86,0
7,62,87,990
7,67,88,0
7,70,87,0
7,62,86,30
7,70,86,0
7,67,85,0
7,69,87,30
7,65,86,0
7,60,87,0
7,69,88,30
7,65,87,0
7,60,88,0
7,69,86,30
7,65,87,0
7,60,86,0
7,63,86,270
7,67,87,0
7,58,87,0
7,63,87,30
7,58,85,0
7,67,85,0
7,60,87,270
7,69,87,0
7,65,87,0
7,70,88,270
7,62,86,0
7,67,87,0
7,62,85,30
7,67,88,0
7,70,85,0
7,67,85,30
7,62,87,0
7,70,88,0
7,69,86,30
7,60,87,0
7,65,85,0
7,69,88,30
7,60,87,0
7,65,85,0
7,60,88,30
7,69,86,0
7,65,88,0
7,67,85,270
7,58,87,0
7,63,88,0
7,63,86,30
7,67,87,0
7,58,85,0
7,60,85,270
7,69,87,0
7,65,87,0
7,62,85,270
7,70,87,0
7,65,86,0
7,67,87,30
7,70,86,0
7,63,87,0
7,65,86,30
7,62,88,0
7,70,87,0
7,67,87,30
7,70,85,0
7,63,85,0
7,65,85,30
