track,note,velocity,time
7,64,110,480
7,64,0,55
7,67,113,5
7,71,116,60
7,67,0,2
7,71,0,108
7,69,113,10
7,69,0,54
7,67,111,6
7,67,0,26
7,71,116,4
7,71,0,47
7,64,108,103
7,64,0,56
7,67,111,4
7,67,0,48
7,69,113,12
7,69,0,49
7,69,107,11
7,69,0,20
7,69,117,10
7,69,0,72
7,67,97,18
7,67,0,27
7,71,111,3
7,64,107,60
7,71,0,7
7,64,0,48
7,64,106,35
7,67,106,60
7,64,0,4
7,67,0,36
7,67,107,20
7,69,103,60
7,67,0,4
7,69,0,7
7,69,113,19
7,69,0,56
7,67,103,34
7,71,109,60
7,67,0,1
7,69,110,29
7,71,0,1
7,69,0,41
7,69,108,18
7,69,0,58
7,67,94,62
7,67,0,24
7,69,111,6
7,69,0,52
7,69,107,8
7,71,111,30
7,69,0,4
7,71,0,46
7,74,112,10
7,74,0,55
7,69,113,35
7,69,0,66
7,64,111,54
7,67,113,30
7,64,0,4
7,67,0,70
7,71,111,16
7,71,0,18
7,71,109,12
7,71,0,67
7,69,109,23
7,69,0,57
7,67,103,3
7,71,108,30
7,67,0,6
7,71,0,46
7,64,100,128
7,67,114,30
7,64,0,5
7,67,0,47
7,67,110,8
7,67,0,60
7,69,112,0
7,69,0,41
7,69,109,19
7,67,108,60
7,69,0,3
7,67,0,57
7,71,111,0
7,64,110,30
7,71,0,3
7,64,0,54
7,64,107,33
7,64,0,90
7,67,98,0
7,67,0,25
7,69,111,5
7,69,0,45
7,69,107,15
7,69,0,30
7,69,107,30
7,67,103,60
7,69,0,3
7,71,110,27
7,67,0,6
7,71,0,54
7,69,98,0
7,69,0,51
7,67,111,39
7,67,0,44
7,64,105,16
7,64,0,28
7,69,114,2
7,69,0,61
7,67,112,29
7,64,110,30
7,67,0,1
7,64,0,39
7,64,105,20
7,64,0,41
7,64,111,19
7,64,0,154
7,64,96,1674
7,64,0,34
7,67,111,3
7,67,0,76
7,71,116,9
7,71,0,110
7,69,113,10
7,69,0,54
7,67,111,6
7,67,0,26
7,71,116,4
7,71,0,71
7,64,108,79
7,64,0,56
7,67,111,4
7,67,0,48
7,69,113,12
7,69,0,49
7,69,107,11
7,69,0,20
7,69,117,10
7,69,0,72
7,67,97,18
7,67,0,27
7,71,111,3
7,64,107,60
7,71,0,7
7,64,0,48
7,64,106,35
7,67,106,60
7,64,0,4
7,67,0,36
7,67,107,20
7,69,103,60
7,67,0,4
7,69,0,7
7,69,113,19
7,69,0,56
7,67,103,4
7,71,109,60
7,67,0,1
7,69,110,59
7,71,0,1
7,69,0,41
7,64,94,76
7,64,0,24
7,67,110,2
7,67,0,52
7,69,111,14
7,69,0,52
7,69,107,8
7,69,0,49
7,71,111,8
7,74,112,33
7,71,0,1
7,74,0,54
7,69,113,2
7,69,0,66
7,64,111,87
7,67,113,63
7,64,0,1
7,71,111,56
7,67,0,4
7,71,0,87
7,69,109,29
7,69,0,57
7,67,103,3
7,71,108,30
7,67,0,6
7,71,0,46
7,64,100,128
7,67,114,30
7,64,0,5
7,67,0,47
7,67,110,8
7,69,112,30
7,67,0,1
7,69,0,60
7,69,109,29
7,67,108,60
7,69,0,3
7,67,0,57
7,71,111,0
7,64,110,30
7,71,0,3
7,64,0,54
7,64,107,33
7,67,98,57
7,64,0,4
7,67,0,51
7,67,111,8
7,69,107,33
7,67,0,4
7,69,0,54
7,69,107,29
7,67,103,60
7,69,0,3
7,71,110,27
7,67,0,6
7,71,0,54
7,69,98,0
7,69,0,51
7,69,111,39
7,67,105,60
7,69,0,1
7,67,0,27
7,69,114,2
7,67,112,63
7,69,0,4
7,64,110,53
7,67,0,1
7,64,0,66
7,64,105,14
7,64,0,67
7,64,107,29
7,64,0,118
7,71,108,395
7,71,0,34
7,71,106,26
7,71,0,85
7,73,101,5
7,73,0,28
7,74,110,2
7,74,0,49
7,74,100,20
7,74,0,37
7,74,109,14
7,74,0,88
7,76,99,2
7,78,110,30
7,76,0,1
7,78,0,94
7,78,106,145
7,78,0,47
7,78,97,13
7,79,107,60
7,78,0,4
7,81,109,26
7,79,0,1
7,81,0,87
7,78,106,2
7,78,0,109
7,78,106,131
7,78,0,47
7,78,97,13
7,79,107,60
7,78,0,4
7,81,109,26
7,79,0,1
7,81,0,87
7,78,106,2
7,78,0,109
7,79,97,131
7,78,101,90
7,79,0,1
7,78,0,87
7,74,90,2
7,74,0,54
7,71,104,66
7,71,0,43
7,71,111,17
7,73,107,30
7,71,0,1
7,73,0,26
7,74,103,63
7,74,0,40
7,74,107,20
7,74,0,38
7,74,107,22
7,76,104,60
7,74,0,7
7,78,111,23
7,76,0,1
7,78,0,109
7,78,106,160
7,78,0,47
7,78,97,13
7,79,107,60
7,78,0,4
7,81,109,56
7,79,0,5
7,78,106,85
7,81,0,5
7,78,0,104
7,78,108,106
7,78,0,52
7,78,102,12
7,79,107,30
7,78,0,1
7,79,0,56
7,81,106,0
7,81,0,135
7,78,108,2
7,78,0,148
7,64,104,158
7,64,0,59
7,67,111,1
7,67,0,52
7,71,116,9
7,71,0,110
7,69,113,10
7,69,0,54
7,67,111,6
7,67,0,26
7,71,116,4
7,71,0,77
7,64,108,73
7,64,0,56
7,67,111,4
7,67,0,48
7,69,113,12
7,69,0,49
7,69,107,11
7,69,0,20
7,69,117,10
7,69,0,72
7,67,97,18
7,67,0,27
7,71,111,3
7,64,107,60
7,71,0,7
7,64,0,48
7,64,106,35
7,67,106,60
7,64,0,4
7,67,0,36
7,67,107,20
7,69,103,60
7,67,0,4
7,69,0,7
7,69,113,19
7,69,0,56
7,67,103,34
7,71,109,60
7,67,0,1
7,69,110,29
7,71,0,1
7,69,0,41
7,64,94,82
7,67,105,29
7,64,0,4
7,67,0,48
7,69,111,5
7,69,0,52
7,69,107,8
7,71,111,30
7,69,0,4
7,71,0,46
7,74,112,10
7,74,0,55
7,69,113,5
7,69,0,66
7,64,111,84
7,67,113,30
7,64,0,4
7,67,0,70
7,71,111,16
7,71,0,46
7,71,109,14
7,69,109,60
7,71,0,1
7,69,0,56
7,67,103,3
7,71,108,30
7,67,0,6
7,71,0,55
7,64,107,4
7,64,0,25
7,64,100,90
7,67,114,30
7,64,0,5
7,67,0,47
7,69,110,8
7,69,0,42
7,69,112,18
7,69,0,41
7,69,109,19
7,67,108,60
7,69,0,3
7,67,0,57
7,71,111,0
7,64,110,30
7,71,0,3
7,64,0,39
7,64,107,48
7,64,0,57
7,67,98,0
7,67,0,57
7,69,111,6
7,69,0,24
7,69,107,9
7,69,0,60
7,69,107,27
7,67,103,60
7,69,0,3
7,71,110,27
7,67,0,6
7,71,0,54
7,69,98,0
7,69,0,51
7,67,111,39
7,67,0,44
7,64,105,16
7,64,0,28
7,69,114,2
7,69,0,61
7,67,112,29
7,64,110,30
7,67,0,1
7,64,0,39
7,62,105,20
7,62,0,41
7,64,111,19
7,64,0,109
7,64,106,1720
7,64,0,61
7,67,108,0
7,67,0,48
7,71,116,12
7,71,0,110
7,69,113,10
7,69,0,54
7,67,111,6
7,71,116,30
7,67,0,1
7,71,0,70
7,64,108,79
7,64,0,56
7,67,111,4
7,67,0,48
7,69,113,12
7,69,0,49
7,69,107,11
7,69,0,20
7,69,117,10
7,69,0,72
7,67,97,18
7,67,0,27
7,71,111,3
7,64,107,60
7,71,0,7
7,64,0,48
7,64,106,35
7,67,106,60
7,64,0,4
7,67,0,36
7,69,107,20
7,69,0,43
7,69,103,17
7,69,0,43
7,69,113,11
7,67,103,36
7,69,0,4
7,71,109,56
7,67,0,1
7,69,110,59
7,71,0,1
7,69,0,41
7,64,94,76
7,64,0,24
7,67,110,2
7,67,0,52
7,69,111,14
7,69,0,52
7,69,107,8
7,69,0,49
7,71,111,8
7,74,112,33
7,71,0,1
7,74,0,54
7,69,113,2
7,69,0,66
7,64,111,87
7,67,113,63
7,64,0,1
7,71,111,56
7,67,0,4
7,71,0,87
7,69,109,29
7,69,0,57
7,67,103,3
7,71,108,30
7,67,0,6
7,71,0,46
7,64,100,128
7,67,114,30
7,64,0,5
7,67,0,47
7,67,110,8
7,69,112,30
7,67,0,1
7,69,0,60
7,69,109,29
7,67,108,60
7,69,0,3
7,67,0,57
7,71,111,0
7,64,110,30
7,71,0,3
7,64,0,36
7,64,107,51
7,67,98,57
7,64,0,4
7,67,0,51
7,67,111,8
7,69,107,33
7,67,0,4
7,69,0,54
7,69,107,29
7,67,103,60
7,69,0,3
7,71,110,27
7,67,0,6
7,71,0,54
7,69,98,0
7,69,0,51
7,69,111,39
7,67,105,60
7,69,0,1
7,67,0,27
7,69,114,2
7,67,112,63
7,69,0,4
7,64,110,53
7,67,0,1
7,64,0,66
7,64,105,14
7,64,0,67
7,64,107,29
7,64,0,118
7,71,108,395
7,71,0,34
7,71,106,26
7,71,0,85
7,73,101,5
7,73,0,28
7,74,110,2
7,74,0,49
7,74,100,20
7,74,0,37
7,74,109,14
7,74,0,88
7,76,99,2
7,78,110,30
7,76,0,1
7,78,0,94
7,78,106,145
7,78,0,47
7,78,97,13
7,79,107,60
7,78,0,4
7,81,109,26
7,79,0,1
7,81,0,87
7,78,106,2
7,78,0,109
7,78,106,131
7,78,0,47
7,78,97,13
7,79,107,60
7,78,0,4
7,81,109,26
7,79,0,1
7,81,0,87
7,78,106,2
7,78,0,109
7,79,97,131
7,78,101,90
7,79,0,1
7,78,0,87
7,74,90,2
7,74,0,54
7,71,104,66
7,71,0,43
7,71,111,17
7,73,107,30
7,71,0,1
7,73,0,26
7,74,103,63
7,74,0,40
7,74,107,20
7,74,0,38
7,74,107,22
7,76,104,60
7,74,0,7
7,78,111,23
7,76,0,1
7,78,0,109
7,78,106,160
7,78,0,47
7,78,97,13
7,79,107,60
7,78,0,4
7,81,109,56
7,79,0,5
7,78,106,85
7,81,0,5
7,78,0,104
7,78,110,99
7,78,0,27
7,78,107,9
7,78,0,84
7,79,114,2
7,81,114,59
7,79,0,4
7,78,103,117
7,81,0,4
7,78,0,132
7,64,104,163
7,64,0,59
7,67,111,1
7,67,0,52
7,71,116,9
7,71,0,33
7,69,116,0
7,69,0,60
7,69,113,27
7,69,0,54
7,67,111,6
7,67,0,26
7,71,116,4
7,71,0,77
7,64,108,73
7,64,0,56
7,67,111,4
7,67,0,48
7,69,113,12
7,69,0,49
7,69,107,11
7,69,0,20
7,69,117,10
7,69,0,72
7,67,97,18
7,67,0,27
7,71,111,3
7,64,107,60
7,71,0,7
7,64,0,48
7,64,106,35
7,67,106,60
7,64,0,4
7,67,0,36
7,67,107,20
7,69,103,60
7,67,0,4
7,69,0,7
7,69,113,19
7,69,0,56
7,67,103,34
7,71,109,60
7,67,0,1
7,69,110,29
7,71,0,1
7,69,0,41
7,64,94,82
7,67,105,29
7,64,0,4
7,67,0,48
7,69,111,5
7,69,0,52
7,69,107,8
7,71,111,30
7,69,0,4
7,71,0,46
7,74,112,10
7,74,0,55
7,69,113,5
7,69,0,66
7,64,111,84
7,67,113,30
7,64,0,4
7,67,0,70
7,71,111,16
7,71,0,46
7,71,109,14
7,69,109,60
7,71,0,1
7,69,0,56
7,67,103,3
7,71,108,30
7,67,0,6
7,71,0,55
7,64,107,4
7,64,0,25
7,64,100,90
7,67,114,30
7,64,0,5
7,67,0,47
7,69,110,8
7,69,0,42
7,69,112,18
7,69,0,41
7,69,109,19
7,67,108,60
7,69,0,3
7,67,0,57
7,71,111,0
7,64,110,30
7,71,0,3
7,64,0,39
7,64,107,48
7,64,0,57
7,67,98,0
7,67,0,57
7,69,111,6
7,69,0,24
7,69,107,9
7,69,0,60
7,69,107,27
7,67,103,60
7,69,0,3
7,71,110,27
7,67,0,6
7,71,0,54
7,69,98,0
7,69,0,51
7,69,111,39
7,67,105,60
7,69,0,4
7,67,0,24
7,69,114,2
7,69,0,61
7,67,112,29
7,64,110,30
7,67,0,1
7,62,105,59
7,64,0,4
7,64,111,29
7,62,0,4
7,64,0,105
8,40,46,4460
8,40,0,210
8,38,45,30
8,38,0,210
8,36,45,30
8,36,0,450
8,35,45,30
8,35,0,450
8,36,50,30
8,36,0,386
8,38,56,14
8,38,0,36
8,39,56,4
8,39,0,32
8,40,56,8
8,40,0,210
8,42,44,30
8,42,0,118
8,44,48,2
8,44,0,57
8,45,53,63
8,45,0,222
8,43,48,18
8,43,0,215
8,42,53,25
8,42,0,222
8,40,48,18
8,40,0,215
8,39,53,25
8,39,0,222
8,37,48,18
8,37,0,215
8,35,49,25
8,35,0,222
8,33,48,18
8,33,0,215
8,28,45,25
8,28,0,443
8,40,72,37
8,40,0,437
8,36,73,43
8,36,0,473
8,28,74,7
8,28,0,439
8,36,73,41
8,36,0,406
8,38,65,44
8,38,0,18
8,40,76,12
8,52,61,60
8,52,0,12
8,52,61,78
8,52,0,11
8,40,0,30
8,40,65,19
8,40,0,18
8,40,75,12
8,52,60,60
8,52,0,10
8,40,0,72
8,52,64,8
8,40,65,0
8,40,0,8
8,52,0,1
8,40,55,21
8,40,0,23
8,35,67,7
8,35,0,19
8,33,76,11
8,45,61,60
8,45,0,12
8,45,61,78
8,45,0,11
8,33,0,30
8,33,65,19
8,33,0,18
8,28,75,12
8,52,60,60
8,52,0,10
8,52,64,80
8,52,0,9
8,28,0,43
8,31,67,8
8,31,0,19
8,33,76,11
8,45,61,60
8,45,0,12
8,45,61,78
8,45,0,11
8,33,0,30
8,35,65,19
8,35,0,18
8,36,75,12
8,48,60,60
8,48,0,10
8,48,64,80
8,36,0,4
8,48,0,5
8,36,55,21
8,36,0,23
8,36,67,7
8,36,0,19
8,38,76,11
8,50,67,60
8,50,0,12
8,50,65,78
8,50,0,11
8,38,0,108
8,35,75,31
8,35,0,110
8,38,55,10
8,38,0,23
8,39,67,7
8,39,0,19
8,40,76,11
8,52,61,60
8,52,0,12
8,52,61,78
8,52,0,11
8,40,0,30
8,40,65,19
8,40,0,18
8,40,75,12
8,52,60,60
8,52,0,10
8,40,0,72
8,52,64,8
8,52,0,9
8,40,55,21
8,40,0,23
8,35,67,7
8,35,0,19
8,33,76,11
8,45,61,60
8,45,0,12
8,45,61,78
8,45,0,11
8,33,0,30
8,33,65,19
8,33,0,18
8,28,75,12
8,52,60,60
8,52,0,10
8,52,64,80
8,52,0,9
8,28,0,43
8,31,67,8
8,31,0,19
8,33,76,11
8,45,61,60
8,45,0,12
8,45,61,78
8,45,0,11
8,33,0,30
8,33,65,19
8,33,0,18
8,38,75,12
8,50,60,60
8,50,0,10
8,50,64,80
8,38,0,4
8,50,0,5
8,38,55,21
8,38,0,23
8,38,67,7
8,38,0,19
8,35,76,11
8,47,61,60
8,47,0,12
8,47,61,78
8,47,0,11
8,35,0,11
8,35,65,8
8,35,0,43
8,40,76,17
8,50,61,60
8,50,0,12
8,52,61,78
8,52,0,11
8,40,0,30
8,40,65,19
8,40,0,18
8,40,75,12
8,52,60,60
8,52,0,10
8,52,64,80
8,52,0,9
8,40,0,8
8,40,55,13
8,40,0,23
8,38,67,7
8,38,0,19
8,36,76,11
8,48,61,60
8,48,0,12
8,48,61,78
8,48,0,11
8,36,0,30
8,36,65,19
8,36,0,18
8,36,75,12
8,48,60,60
8,48,0,10
8,36,0,55
8,36,67,25
8,36,0,19
8,38,67,11
8,38,0,50
8,40,76,10
8,52,61,60
8,52,0,12
8,52,61,78
8,52,0,11
8,40,0,30
8,40,65,19
8,40,0,18
8,40,75,12
8,52,60,60
8,52,0,10
8,52,64,80
8,52,0,9
8,40,0,8
8,40,55,13
8,40,0,23
8,38,67,7
8,38,0,19
8,36,76,11
8,48,61,60
8,48,0,12
8,48,61,78
8,48,0,11
8,36,0,30
8,36,65,19
8,36,0,18
8,36,75,12
8,48,60,60
8,48,0,10
8,36,0,70
8,36,67,10
8,36,0,19
8,38,67,11
8,38,0,50
8,40,76,10
8,52,61,60
8,52,0,12
8,52,61,78
8,52,0,11
8,40,0,30
8,40,65,19
8,40,0,18
8,40,75,12
8,52,60,60
