track,note,velocity,time
0,60,45,2
0,72,51,46
0,60,0,17
0,76,48,4
0,72,0,35
0,79,56,7
0,76,51,47
0,76,0,20
0,72,54,20
0,79,0,16
0,76,0,24
0,72,0,0
0,59,51,12
0,71,51,36
0,59,0,49
0,76,51,0
0,71,0,36
0,79,59,9
0,76,47,49
0,76,0,31
0,71,51,12
0,79,0,18
0,76,0,11
0,57,63,14
0,69,63,11
0,71,0,29
0,76,51,19
0,57,0,35
0,79,60,8
0,69,0,6
0,76,0,20
0,76,46,22
0,79,0,35
0,69,51,6
0,76,0,27
0,55,62,22
0,67,61,44
0,72,62,52
0,69,0,3
0,55,0,15
0,79,59,27
0,67,0,19
0,76,48,29
0,72,54,43
0,72,0,2
0,79,0,8
0,76,0,12
0,72,0,10
0,53,62,15
0,77,68,0
0,72,57,11
0,53,0,25
0,77,0,10
0,69,63,9
0,72,0,9
0,72,46,38
0,69,39,48
0,65,46,46
0,69,0,2
0,72,0,17
0,69,0,14
0,60,63,16
0,65,0,14
0,65,48,41
0,67,37,2
0,60,0,16
0,65,0,13
0,60,54,14
0,67,0,37
0,57,66,6
0,60,0,21
0,57,0,7
0,38,51,67
0,38,0,26
0,31,66,16
0,60,61,4
0,57,50,8
0,43,50,22
0,31,0,12
0,53,52,11
0,60,0,13
0,57,61,33
0,57,0,10
0,43,0,35
0,60,42,4
0,53,0,28
0,53,47,13
0,57,0,11
0,43,44,1
0,60,0,19
0,53,0,15
0,31,68,3
0,59,59,2
0,43,0,36
0,53,42,1
0,31,0,7
0,59,0,27
0,33,59,6
0,45,38,6
0,60,44,2
0,53,0,14
0,33,0,3
0,45,0,18
0,60,0,9
0,35,37,42
0,47,51,1
0,35,0,9
0,67,76,5
0,47,0,6
0,67,0,31
0,43,56,4
0,43,0,38
0,36,72,7
0,67,79,3
0,43,64,42
0,36,0,8
0,67,0,23
0,48,56,10
0,43,0,10
0,52,79,30
0,55,74,46
0,48,0,10
0,52,0,7
0,55,0,7
0,60,74,5
0,60,0,31
0,64,53,1
0,67,78,11
0,64,0,5
0,67,0,12
0,67,94,4
0,35,74,0
0,47,44,52
0,59,68,47
0,67,0,7
0,35,0,27
0,47,54,7
0,47,0,30
0,65,60,15
0,47,51,33
0,59,0,12
0,47,0,1
0,64,69,0
0,65,0,1
0,47,0,9
0,64,0,2
0,33,60,25
0,65,65,9
0,45,54,35
0,64,66,11
0,33,0,14
0,65,0,24
0,60,57,6
0,45,0,25
0,45,51,23
0,64,0,20
0,57,51,18
0,60,0,44
0,45,36,3
0,45,0,11
0,31,66,31
0,57,0,1
0,55,47,60
0,43,44,89
0,45,0,5
0,31,0,6
0,55,0,71
0,29,56,7
0,41,43,5
0,43,0,2
0,53,67,20
0,57,87,0
0,29,0,30
0,41,0,5
0,60,82,3
0,53,0,25
0,57,0,19
0,60,0,1
0,60,90,5
0,60,0,27
0,60,62,19
0,52,57,1
0,28,51,1
0,40,48,2
0,55,59,1
0,60,0,37
0,52,54,59
0,52,0,1
0,28,0,20
0,40,0,23
0,40,49,46
0,55,0,30
0,52,0,3
0,57,66,0
0,40,0,9
0,60,69,14
0,57,0,2
0,60,0,18
0,26,70,4
0,62,65,4
0,38,42,1
0,26,0,10
0,62,0,6
0,54,16,39
0,38,0,29
0,54,36,63
0,57,57,2
0,54,0,10
0,54,0,7
0,31,57,12
0,59,55,2
0,43,49,1
0,53,34,2
0,57,0,33
0,31,0,2
0,59,0,8
0,43,0,42
0,53,0,2
0,33,63,0
0,60,69,1
0,45,52,2
0,57,54,1
0,33,0,6
0,60,0,1
0,45,0,1
0,57,0,11
0,64,80,69
0,47,64,0
0,60,67,1
0,35,54,1
0,64,0,11
0,47,0,0
0,60,0,16
0,35,0,2
0,65,74,10
0,65,0,23
0,36,67,8
0,67,86,4
0,48,52,10
0,36,0,4
0,64,62,38
0,67,48,3
0,55,42,1
0,60,53,1
0,67,0,20
0,48,0,9
0,48,40,35
0,64,0,17
0,67,0,6
0,55,0,4
0,60,0,1
0,55,58,7
0,48,0,11
0,55,57,78
0,62,51,0
0,35,56,1
0,59,49,2
0,47,37,1
0,55,0,23
0,55,0,20
0,55,67,19
0,62,0,29
0,35,0,22
0,59,0,13
0,47,0,2
0,65,86,26
0,47,75,4
0,55,0,23
0,65,0,7
0,47,0,2
0,64,71,4
0,64,0,30
0,57,62,12
0,60,60,2
0,33,59,0
0,65,58,2
0,45,58,18
0,57,0,27
0,60,0,12
0,64,74,13
0,33,0,2
0,60,60,37
0,65,0,9
0,45,48,3
0,45,0,5
0,64,0,5
0,31,58,5
0,43,50,1
0,55,57,1
0,60,0,36
0,45,0,43
0,43,47,12
0,31,0,1
0,43,0,5
0,55,0,6
0,43,53,72
0,60,77,8
0,43,0,1
0,43,0,4
0,60,0,7
0,60,63,28
0,60,0,10
0,41,51,0
0,29,56,1
0,57,67,12
0,53,61,1
0,41,0,38
0,29,0,14
0,41,56,31
0,57,0,1
0,53,0,24
0,60,94,65
0,41,57,3
0,41,0,14
0,60,0,11
0,65,76,14
0,41,0,17
0,65,0,14
0,31,70,10
0,60,87,1
0,65,87,2
0,43,60,50
0,31,0,9
0,60,0,9
0,65,0,18
0,64,86,6
0,60,83,45
0,43,0,2
0,43,60,0
0,64,0,4
0,60,0,11
0,43,0,7
0,43,52,23
0,43,0,26
0,36,64,1
0,60,71,1
0,52,70,5
0,48,53,9
0,36,0,8
0,52,64,40
0,60,0,27
0,55,63,19
0,52,0,21
0,48,0,11
0,52,0,2
0,60,58,3
0,55,0,30
0,36,65,3
0,53,60,20
0,57,61,6
0,48,49,8
0,60,0,38
0,53,50,23
0,36,0,10
0,53,0,24
0,48,49,15
0,57,0,20
0,48,0,17
0,53,54,0
0,53,0,36
0,36,58,7
0,48,0,24
0,48,54,5
0,59,60,3
0,55,60,2
0,53,49,41
0,53,0,11
0,36,0,19
0,48,47,23
0,48,0,18
0,59,0,12
0,53,41,9
0,55,0,27
0,53,0,30
0,36,57,1
0,48,0,14
0,57,63,8
0,53,45,0
0,41,59,9
0,53,0,3
0,36,0,37
0,57,0,4
0,55,67,1
0,53,0,3
0,40,60,1
0,41,0,3
0,55,0,1
0,38,56,88
0,64,79,18
0,40,0,30
0,38,0,4
0,64,0,1
0,65,84,0
0,43,52,7
0,65,0,19
0,43,0,8
0,67,90,11
0,36,60,2
0,43,56,47
0,55,74,31
0,48,52,5
0,60,82,37
0,67,0,3
0,36,0,13
0,43,0,8
0,64,88,21
0,55,0,13
0,48,0,8
0,60,0,2
0,64,0,1
0,67,87,18
0,67,0,23
0,35,64,18
0,67,92,1
0,47,42,46
0,55,77,40
0,35,0,16
0,67,0,6
0,47,52,28
0,47,0,14
0,55,73,22
0,59,68,2
0,65,64,1
0,55,0,2
0,47,0,27
0,47,60,6
0,55,0,2
0,59,0,0
0,64,73,1
0,65,0,1
0,47,0,13
0,64,0,16
0,33,66,4
0,65,71,10
0,57,70,0
0,60,66,1
0,45,52,29
0,64,76,16
0,33,0,4
0,65,0,4
0,60,70,40
0,57,0,3
0,60,0,6
0,57,56,61
0,45,48,4
0,45,0,10
0,64,0,1
0,60,0,31
0,31,67,42
0,43,60,60
0,55,54,8
0,57,0,16
0,45,0,10
0,31,0,14
0,43,46,47
0,43,0,20
0,55,0,2
0,43,0,0
0,60,75,21
0,60,0,42
0,29,64,1
0,57,69,4
0,53,63,0
0,41,50,28
0,29,0,22
0,60,74,29
0,57,0,13
0,53,0,0
0,41,0,6
0,41,63,24
0,60,82,1
0,60,0,12
0,41,0,1
0,60,0,18
0,52,70,6
0,60,70,0
0,28,51,2
0,40,56,0
0,55,65,1
0,52,0,35
0,40,64,46
0,60,0,17
0,28,0,1
0,40,0,1
0,55,0,64
0,40,70,8
0,57,86,3
0,40,0,25
0,40,0,5
0,57,0,7
0,60,79,3
0,60,0,25
0,62,87,1
0,26,55,1
0,38,57,2
0,62,0,41
0,57,57,27
0,54,44,0
0,38,44,8
0,26,0,4
0,38,0,3
0,57,0,3
0,54,49,71
0,57,59,3
0,54,0,2
0,38,53,2
0,38,0,7
0,54,0,0
0,57,0,7
0,31,70,6
0,53,66,1
0,59,69,1
0,43,66,1
0,38,0,12
0,31,0,28
0,53,0,1
0,59,0,7
0,45,69,33
0,60,80,1
0,33,69,1
0,43,0,6
0,45,0,3
0,60,0,6
0,33,0,4
0,35,68,18
0,47,68,1
0,64,86,2
0,35,0,16
0,47,0,9
0,64,0,16
0,65,79,3
0,65,0,21
0,67,87,2
0,36,60,1
0,48,59,2
0,67,0,1
0,64,73,44
0,60,67,2
0,55,64,0
0,67,58,3
0,36,0,3
0,48,0,35
0,64,0,32
0,60,0,6
0,48,71,3
0,55,69,3
0,55,0,16
0,67,0,1
0,48,0,9
0,55,0,16
0,55,77,43
0,35,59,3
0,62,66,0
0,47,59,1
0,59,58,1
0,67,59,1
0,55,0,29
0,55,69,43
0,35,0,2
0,62,0,8
0,47,62,70
0,65,63,22
0,47,0,4
0,59,0,2
0,67,0,18
0,64,79,8
0,55,0,1
0,47,0,1
0,65,0,1
0,64,0,27
0,33,59,3
0,65,63,2
0,60,56,1
0,57,43,3
0,45,42,1
0,33,0,43
0,45,53,18
0,65,0,24
0,60,0,9
0,64,72,8
0,57,0,1
0,45,66,44
0,60,58,2
0,45,0,4
0,45,0,5
0,64,0,5
0,31,61,13
0,55,57,2
0,43,50,1
0,45,0,26
0,60,0,38
0,31,0,0
0,43,48,17
0,55,0,11
0,43,56,72
0,43,0,20
0,43,0,0
0,43,0,2
0,60,55,29
0,60,0,4
0,29,49,4
0,57,69,3
0,41,51,0
0,53,57,1
0,29,0,29
0,41,63,41
0,57,0,13
0,41,0,18
0,53,0,7
0,60,85,0
0,41,0,17
0,65,92,31
0,41,66,0
0,60,0,21
0,65,0,25
0,41,0,6
0,41,58,0
0,41,0,28
0,65,85,4
0,31,75,1
0,60,83,1
0,43,50,21
0,65,0,28
0,31,0,5
0,60,0,8
0,64,86,18
0,60,77,45
0,43,0,2
0,43,67,0
0,64,0,5
0,60,0,2
0,43,0,14
0,43,53,27
0,43,0,29
0,60,63,7
0,55,72,1
0,52,62,0
0,36,61,2
0,43,53,38
0,60,0,36
0,48,53,11
0,55,0,37
0,52,63,9
0,52,0,43
0,55,70,4
0,36,0,19
0,48,53,30
0,43,0,87
0,52,65,7
0,48,0,42
0,55,62,1
0,52,0,3
0,52,56,46
0,48,53,4
0,55,0,12
0,48,0,6
0,52,0,7
0,55,0,5
0,52,0,14
0,57,75,39
0,33,50,3
0,45,55,8
0,48,0,44
0,52,50,0
0,57,0,37
0,45,60,17
0,33,0,19
0,45,0,4
0,52,0,4
0,52,67,7
0,45,0,25
0,52,26,15
0,57,82,1
0,31,67,2
0,43,58,3
0,52,0,8
0,52,0,23
0,52,67,7
0,57,0,59
0,31,0,4
0,43,0,5
0,43,66,17
0,59,77,2
0,52,0,4
0,43,0,16
0,59,0,6
0,60,80,17
0,60,0,27
0,30,62,12
0,59,77,2
0,54,53,87
0,57,51,6
0,42,38,70
0,30,0,15
0,59,0,0
0,54,0,7
0,57,0,21
0,57,72,51
0,53,54,0
0,42,0,1
0,29,58,1
0,57,0,6
0,53,0,43
0,53,66,1
0,29,0,20
0,53,0,74
0,52,47,0
0,41,48,4
0,52,0,7
0,41,0,6
0,50,55,21
0,50,0,9
0,33,71,43
0,45,64,26
0,52,67,20
0,33,0,36
0,55,71,0
0,45,0,32
0,57,93,23
0,52,54,6
0,52,0,8
0,55,0,6
0,57,0,12
0,57,87,6
0,52,0,1
0,57,0,27
0,43,68,25
0,57,92,2
0,52,77,0
0,31,75,1
0,43,0,42
0,57,0,11
0,43,70,27
0,52,0,19
0,31,0,47
0,43,76,21
0,59,90,2
0,43,0,8
0,43,0,7
0,59,0,12
0,60,80,13
0,60,0,29
0,59,81,7
0,26,81,1
0,54,68,94
0,38,58,46
0,50,61,12
0,59,0,7
0,26,0,77
0,38,64,13
0,54,0,87
0,50,67,2
0,38,0,47
0,50,0,8
0,38,70,0
0,38,0,7
0,50,0,21
0,57,71,7
0,38,0,9
0,57,0,0
0,38,59,37
0,38,0,33
0,31,74,14
0,43,67,1
0,53,73,1
0,57,77,4
0,59,47,1
0,31,0,38
0,43,60,14
0,43,0,10
0,53,0,14
0,57,0,61
0,53,42,6
0,59,0,5
0,43,52,5
0,43,0,9
0,53,0,17
0,43,0,29
0,43,60,20
0,57,82,2
0,53,78,0
0,60,75,1
0,62,78,1
0,31,67,4
0,43,0,28
0,57,0,1
0,43,58,33
0,53,0,25
0,60,0,4
0,53,73,10
0,43,70,44
0,57,80,4
0,62,0,7
0,31,0,1
0,43,0,2
0,53,0,3
0,43,0,2
0,43,63,24
0,57,0,11
0,43,0,11
0,64,87,23
0,59,80,2
0,53,82,1
0,31,77,1
0,43,65,2
0,64,0,28
0,59,0,23
0,43,62,10
0,53,0,24
0,53,79,18
0,31,0,29
0,43,0,6
0,43,0,2
0,43,78,10
0,53,0,21
0,38,70,24
0,43,0,10
0,38,0,20
0,55,87,10
0,60,83,1
0,65,87,0
0,31,77,1
0,43,75,3
0,55,0,46
0,55,82,42
0,60,0,11
0,65,0,5
0,31,0,53
0,43,0,13
0,43,72,8
0,64,82,2
0,60,67,2
0,55,0,1
0,43,0,5
0,64,0,2
0,60,0,5
0,36,59,3
0,48,66,1
0,64,85,1
0,55,81,1
0,67,77,1
0,36,0,47
0,48,0,49
0,67,76,3
0,64,0,55
0,48,79,26
0,55,0,21
0,67,0,5
0,67,0,13
0,67,77,7
0,48,0,22
0,67,0,0
0,47,67,1
0,67,82,0
0,62,80,1
0,35,62,1
0,59,59,1
0,47,0,39
0,67,0,37
0,62,0,1
0,47,57,1
0,35,0,11
0,59,0,55
0,65,82,26
0,47,66,1
0,47,0,22
0,65,0,1
0,47,0,6
0,64,61,18
0,64,0,24
0,57,69,9
0,60,66,1
0,65,69,1
0,33,53,0
0,45,50,2
0,57,0,41
0,64,77,0
0,60,0,2
0,60,67,34
0,65,0,14
0,33,0,73
0,45,64,7
0,45,0,9
0,64,0,4
0,60,0,9
0,60,56,10
0,55,51,0
0,31,54,3
0,43,47,1
0,45,0,32
0,43,51,47
0,60,0,11
0,55,0,37
0,31,0,3
0,43,62,41
0,43,0,14
0,43,0,2
0,43,0,1
0,53,79,67
0,57,81,1
0,29,66,1
0,41,71,1
0,60,78,29
0,53,0,8
0,57,0,7
0,29,0,3
0,41,57,23
0,41,0,10
0,60,0,9
0,41,83,67
0,34,34,10
0,41,0,12
0,41,0,7
0,34,0,3
0,60,84,19
0,60,0,17
0,60,84,6
0,55,91,0
0,28,74,1
0,40,77,0
0,60,0,35
0,55,0,23
0,40,69,10
0,28,0,20
0,40,0,37
0,40,71,23
0,40,0,38
0,62,85,5
0,40,0,1
0,62,0,13
0,62,93,4
0,38,64,3
0,26,67,1
0,62,0,68
0,54,57,19
0,57,66,2
0,38,0,10
0,26,0,5
0,57,74,75
0,54,57,1
0,54,0,3
0,38,69,0
0,57,0,15
0,57,0,6
0,54,0,35
0,53,79,10
0,59,82,0
0,43,70,1
0,31,72,1
0,38,0,20
0,53,0,28
0,59,0,11
0,43,0,3
0,33,73,16
0,57,87,1
0,60,90,1
0,45,60,2
0,31,0,6
0,33,0,4
0,57,0,4
0,60,0,7
0,45,0,6
0,60,91,15
0,64,97,1
0,47,74,2
0,35,68,0
0,60,0,5
0,64,0,9
0,47,0,5
0,35,0,2
0,65,86,7
0,65,0,25
0,36,59,14
0,67,95,0
0,48,63,4
0,36,0,9
0,67,0,18
0,60,79,23
0,55,83,1
0,64,82,0
0,67,77,1
0,48,0,61
0,60,0,15
0,55,0,2
0,48,73,5
0,55,83,5
0,64,0,10
0,67,0,7
0,48,0,18
0,55,0,21
0,55,85,21
0,67,77,1
0,62,82,1
0,59,74,0
0,35,72,4
0,47,71,0
0,55,0,37
0,55,84,41
0,67,0,11
0,62,0,2
