track,note,velocity,time
3,48,43,463
3,48,0,142
3,47,52,114
3,47,0,158
3,45,64,1
3,45,0,130
3,52,59,31
3,52,0,39
3,43,70,8
3,52,65,30
3,43,0,57
3,52,0,68
3,41,56,7
3,41,0,145
3,40,50,9
3,40,0,149
3,38,48,94
3,38,0,72
3,43,49,3
3,43,0,71
3,48,55,0
3,48,0,132
3,47,67,55
3,47,0,147
3,45,70,9
3,45,0,29
3,43,65,15
3,52,62,98
3,43,0,72
3,52,0,42
3,41,60,9
3,48,58,27
3,41,0,33
3,48,0,49
3,43,56,6
3,43,0,12
3,48,58,4
3,52,54,0
3,48,0,23
3,52,0,5
3,57,69,1
3,48,62,1
3,48,0,85
3,57,0,18
3,59,59,88
3,48,57,1
3,48,0,33
3,59,0,104
3,53,60,16
3,53,0,17
3,52,57,10
3,52,0,16
3,50,57,59
3,50,0,35
3,48,76,5
3,48,0,170
3,47,60,81
3,47,0,2
3,45,76,5
3,45,0,74
3,52,79,23
3,52,0,92
3,43,71,4
3,52,65,31
3,43,0,39
3,52,0,126
3,41,64,26
3,41,0,118
3,40,59,1
3,40,0,126
3,38,58,88
3,38,0,110
3,43,68,90
3,43,0,80
3,48,68,3
3,48,0,76
3,47,59,2
3,47,0,15
3,52,67,16
3,52,0,172
3,45,63,19
3,45,0,206
3,43,67,2
3,43,0,53
3,41,57,3
3,41,0,111
3,43,64,132
3,43,0,67
3,48,80,107
3,48,0,155
3,43,71,10
3,43,0,26
3,45,76,10
3,45,0,46
3,43,83,193
3,43,0,6
3,42,68,191
3,42,0,155
3,41,71,0
3,41,0,99
3,45,73,27
3,45,0,147
3,43,67,122
3,43,0,213
3,42,60,17
3,42,0,88
3,38,60,7
3,38,0,23
3,40,67,14
3,40,0,88
3,42,59,8
3,42,0,10
3,43,65,7
3,43,0,153
3,41,71,52
3,41,0,181
3,40,71,62
3,40,0,223
3,38,57,14
3,38,0,203
3,36,71,3
3,36,0,91
3,47,61,9
3,47,0,194
3,45,79,4
3,45,0,141
3,43,69,4
3,43,0,186
3,41,64,3
3,41,0,136
3,40,61,3
3,40,0,89
3,38,57,149
3,38,0,185
3,43,69,23
3,43,0,132
3,48,67,94
3,48,0,153
3,47,64,81
3,47,0,117
3,45,67,8
3,45,0,48
3,43,54,5
3,43,0,145
3,41,63,82
3,41,0,192
3,43,59,33
3,43,0,89
3,48,51,125
3,48,0,127
3,48,64,87
3,48,0,84
3,59,65,126
3,48,57,1
3,55,51,1
3,55,0,82
3,48,0,0
3,59,0,5
3,43,64,11
3,53,68,1
3,53,0,49
3,52,77,45
3,52,0,34
3,50,67,11
3,43,0,70
3,50,0,1
3,48,73,24
3,48,0,143
3,47,82,114
3,47,0,158
3,45,94,1
3,45,0,130
3,52,89,30
3,52,0,38
3,43,100,8
3,52,95,30
3,43,0,57
3,52,0,68
3,41,86,7
3,41,0,145
3,40,80,8
3,40,0,149
3,38,78,93
3,38,0,72
3,43,79,3
3,43,0,71
3,48,85,0
3,48,0,131
3,47,97,56
3,47,0,148
3,45,100,9
3,45,0,28
3,43,95,14
3,52,92,98
3,43,0,71
3,52,0,43
3,41,90,9
3,48,88,27
3,41,0,35
3,48,0,57
3,43,86,5
3,43,0,12
3,48,88,4
3,52,84,0
3,48,0,23
3,52,0,5
3,57,94,2
3,48,87,1
3,48,0,86
3,57,0,18
3,59,84,88
3,48,82,1
3,48,0,34
3,59,0,104
3,53,85,16
3,53,0,19
3,52,82,9
3,52,0,17
3,50,82,57
3,50,0,35
3,48,101,5
3,48,0,170
3,47,85,80
3,47,0,1
3,45,101,6
3,45,0,74
3,52,104,23
3,52,0,91
3,43,96,3
3,52,90,31
3,43,0,38
3,52,0,127
3,41,89,25
3,41,0,118
3,40,84,1
3,40,0,126
3,38,83,88
3,38,0,110
3,43,93,90
3,43,0,80
3,48,93,2
3,48,0,76
3,47,84,2
3,47,0,14
3,52,92,17
3,52,0,172
3,45,88,19
3,45,0,206
3,43,92,1
3,43,0,52
3,41,82,3
3,41,0,111
3,43,89,132
3,43,0,67
3,48,105,107
3,48,0,84
3,43,96,111
3,43,0,26
3,45,101,10
3,45,0,46
3,43,108,193
3,43,0,7
3,42,93,191
3,42,0,155
3,41,96,1
3,41,0,100
3,45,98,27
3,45,0,147
3,43,92,121
3,43,0,212
3,42,85,18
3,42,0,88
3,38,85,7
3,38,0,22
3,40,92,15
3,40,0,88
3,42,84,7
3,42,0,10
3,43,90,7
3,43,0,153
3,41,96,52
3,41,0,180
3,40,96,63
3,40,0,223
3,38,82,13
3,38,0,203
3,36,96,26
3,36,0,92
3,47,86,11
3,47,0,193
3,45,104,4
3,45,0,141
3,43,94,4
3,43,0,186
3,41,89,3
3,41,0,137
3,40,86,3
3,40,0,89
3,38,82,149
3,38,0,185
3,43,94,23
3,43,0,132
3,48,92,94
3,48,0,153
3,47,89,81
3,47,0,117
3,45,92,7
3,45,0,48
3,43,79,5
3,43,0,145
3,41,88,81
3,41,0,193
3,43,84,7
3,43,0,89
3,48,76,125
3,48,0,126
3,48,89,87
3,48,0,83
3,59,90,126
3,48,82,2
3,55,76,1
3,55,0,82
3,48,0,0
3,59,0,5
3,43,89,11
3,53,93,1
3,53,0,49
3,52,102,45
3,52,0,33
3,50,92,10
3,43,0,71
3,50,0,1
3,48,53,25
3,48,0,143
3,47,62,114
3,47,0,158
3,45,74,1
3,45,0,130
3,52,69,30
3,52,0,38
3,43,80,8
3,52,75,30
3,43,0,57
3,52,0,68
3,41,66,7
3,41,0,145
3,40,60,9
3,40,0,149
3,38,58,93
3,38,0,73
3,43,59,2
3,43,0,71
3,48,65,0
3,48,0,132
3,47,77,55
3,47,0,147
3,45,80,9
3,45,0,29
3,43,75,15
3,52,72,97
3,43,0,71
3,52,0,43
3,41,70,9
3,48,68,26
3,41,0,37
3,48,0,56
3,43,66,5
3,43,0,13
3,48,68,4
3,52,64,0
3,48,0,23
3,52,0,5
3,57,74,1
3,48,102,1
3,48,0,85
3,57,0,18
3,59,99,88
3,48,97,1
3,48,0,33
3,59,0,105
3,53,100,14
3,53,0,15
3,52,97,11
3,52,0,15
3,50,97,56
3,50,0,35
3,48,116,2
3,48,0,167
3,47,100,83
3,47,0,1
3,45,116,6
3,45,0,75
3,52,119,23
3,52,0,91
3,43,111,4
3,52,105,31
3,43,0,38
3,52,0,127
3,41,104,26
3,41,0,118
3,40,99,1
3,40,0,125
3,38,98,88
3,38,0,110
3,43,108,90
3,43,0,80
3,48,108,3
3,48,0,76
3,47,99,2
3,47,0,15
3,52,107,16
3,52,0,172
3,45,103,19
3,45,0,206
3,43,107,2
3,43,0,52
3,41,97,3
3,41,0,111
3,43,104,132
3,43,0,67
3,48,120,107
3,48,0,84
3,43,111,112
3,43,0,26
3,45,116,11
3,45,0,47
3,43,123,193
3,43,0,6
3,42,108,191
3,42,0,156
3,41,111,1
3,41,0,99
3,45,113,27
3,45,0,147
3,43,107,121
3,43,0,212
3,42,100,18
3,42,0,89
3,38,100,7
3,38,0,22
3,40,107,15
3,40,0,88
3,42,99,7
3,42,0,10
3,43,105,6
3,43,0,153
3,41,111,52
3,41,0,179
3,40,111,63
3,40,0,223
3,38,97,13
3,38,0,203
3,36,111,27
3,36,0,92
3,47,101,13
3,47,0,193
3,45,119,5
3,45,0,141
3,43,109,5
3,43,0,186
3,41,104,3
3,41,0,137
3,40,101,3
3,40,0,89
3,38,97,149
3,38,0,185
3,43,109,23
3,43,0,132
3,48,107,94
3,48,0,153
3,47,104,81
3,47,0,117
3,45,107,7
3,45,0,48
3,43,94,5
3,43,0,145
3,41,103,81
3,41,0,192
3,43,99,33
3,43,0,89
3,48,91,123
3,48,0,127
3,48,104,87
3,48,0,83
3,59,105,127
3,48,97,1
3,55,91,1
3,55,0,82
3,48,0,0
3,59,0,4
3,43,104,11
3,53,108,0
3,53,0,50
3,52,117,45
3,52,0,34
3,50,107,10
3,43,0,70
3,50,0,1
3,48,78,24
3,48,0,143
3,47,87,114
3,47,0,158
3,45,97,1
3,45,0,130
3,52,94,30
3,52,0,39
3,43,97,9
3,52,97,30
3,43,0,57
3,52,0,68
3,41,91,19
3,41,0,146
3,40,85,9
3,40,0,150
3,38,83,93
3,38,0,72
3,43,84,3
3,43,0,71
3,48,90,1
3,48,0,131
3,47,97,56
3,47,0,147
3,45,97,10
3,45,0,28
3,43,97,14
3,52,97,98
3,43,0,71
3,52,0,42
3,41,95,9
3,48,93,26
3,41,0,36
3,48,0,57
3,43,91,5
3,43,0,13
3,48,93,3
3,52,89,1
3,48,0,23
3,52,0,5
3,57,97,1
3,48,122,2
3,48,0,86
3,57,0,18
3,59,119,88
3,48,117,0
3,48,0,34
3,59,0,104
3,53,120,12
3,53,0,14
3,52,117,10
3,52,0,13
3,50,117,58
3,50,0,35
3,48,127,59
3,48,0,166
3,47,120,84
3,47,0,2
3,45,127,5
3,45,0,75
3,52,127,23
3,52,0,91
3,43,127,3
3,52,125,31
3,43,0,38
3,52,0,127
3,41,124,25
3,41,0,118
3,40,119,1
3,40,0,126
3,38,118,88
3,38,0,110
3,43,127,91
3,43,0,81
3,48,127,2
3,48,0,76
3,47,119,2
3,47,0,14
3,52,127,17
3,52,0,172
3,45,123,19
3,45,0,205
3,43,127,1
3,43,0,53
3,41,117,3
3,41,0,111
3,43,124,131
3,43,0,67
3,48,127,107
3,48,0,84
3,43,127,111
3,43,0,25
3,45,127,11
3,45,0,47
3,43,127,192
3,43,0,6
3,42,127,192
3,42,0,156
3,41,127,1
3,41,0,100
3,45,127,26
3,45,0,147
3,43,127,121
3,43,0,212
3,42,120,18
3,42,0,89
3,38,120,7
3,38,0,23
3,40,127,15
3,40,0,88
3,42,119,7
3,42,0,10
3,43,125,6
3,43,0,154
3,41,127,52
3,41,0,180
3,40,127,63
3,40,0,223
3,38,117,13
3,38,0,204
3,36,127,27
3,36,0,92
3,47,121,140
3,47,0,194
3,45,127,5
3,45,0,141
3,43,127,5
3,43,0,186
3,41,124,3
3,41,0,136
3,40,121,4
3,40,0,88
3,38,117,150
3,38,0,185
3,43,127,22
3,43,0,131
3,48,127,95
3,48,0,153
3,47,124,81
3,47,0,116
3,45,127,7
3,45,0,48
3,43,114,5
3,43,0,146
3,41,123,81
3,41,0,193
3,43,119,33
3,43,0,89
3,48,111,125
3,48,0,127
3,48,124,87
3,48,0,83
3,48,117,125
3,55,111,1
3,59,125,0
3,55,0,79
3,48,0,0
3,59,0,7
3,53,104,12
3,43,104,0
3,53,0,2
3,52,107,44
3,52,0,32
3,50,100,11
3,43,0,18
3,50,0,30
3,48,107,8
3,48,0,1
4,67,79,361
4,67,0,55
4,67,66,41
4,67,0,39
4,64,47,25
4,64,0,85
4,67,82,9
4,67,0,44
4,67,71,53
4,64,62,1
4,64,0,71
4,67,0,13
4,65,77,5
4,65,0,115
4,64,64,17
4,64,0,36
4,65,80,2
4,65,0,43
4,64,77,3
4,64,0,46
4,60,77,4
4,60,0,14
4,60,89,125
4,60,0,51
4,60,81,8
4,60,0,16
4,60,84,39
4,57,72,3
4,60,0,58
4,57,0,27
4,60,78,56
4,60,0,17
4,60,78,9
4,60,0,4
4,60,68,48
4,55,55,2
4,60,0,42
4,62,83,4
4,55,0,66
4,62,0,6
4,62,86,70
4,54,62,82
4,60,80,86
4,54,0,18
4,60,0,2
4,59,81,0
4,62,0,8
4,59,0,11
4,55,67,2
4,67,85,96
4,67,0,18
4,67,69,29
4,55,0,20
4,67,0,3
4,67,77,2
4,67,0,42
4,67,78,52
4,64,63,0
4,60,32,4
4,64,0,42
4,60,0,12
4,64,64,37
4,60,68,1
4,64,0,35
4,60,0,14
4,64,62,77
4,59,59,1
4,67,0,79
4,64,0,13
4,65,91,2
4,65,0,38
4,64,81,8
4,65,94,9
4,64,0,4
4,59,0,0
4,64,89,2
4,65,0,6
4,60,83,4
4,64,0,13
4,60,0,100
4,57,67,94
4,57,0,13
4,57,87,35
4,57,0,16
4,57,80,11
4,57,0,108
4,65,86,13
4,65,0,12
4,65,73,34
4,65,0,19
4,65,73,5
4,57,71,1
4,65,0,82
4,57,0,11
4,64,83,1
4,64,0,87
4,60,78,3
4,60,0,19
4,60,83,2
4,64,87,18
4,67,92,45
4,64,0,27
4,60,0,9
4,72,87,16
4,67,0,8
4,72,0,6
4,65,82,91
4,72,81,95
4,65,0,66
4,72,0,19
4,67,79,3
4,67,0,88
4,72,87,6
4,72,0,13
4,69,76,0
4,69,0,16
4,67,84,8
4,79,82,48
4,79,0,21
4,79,98,6
4,67,0,3
4,79,0,11
4,79,91,4
4,76,85,1
4,76,0,32
4,79,0,2
4,79,82,56
4,76,57,1
4,79,0,36
4,76,0,5
4,76,81,56
4,79,88,1
4,76,0,52
4,79,0,3
4,76,78,40
4,79,79,0
4,76,0,82
4,77,90,10
4,79,0,4
4,77,0,86
4,76,94,3
4,76,0,1
4,77,94,7
4,76,87,1
4,77,0,13
4,72,82,23
4,69,60,1
4,76,0,3
4,72,0,19
4,69,0,48
4,72,87,126
4,72,0,53
4,72,89,44
4,69,77,2
4,69,0,48
4,72,0,6
4,72,91,38
4,69,74,1
4,69,0,43
4,72,0,3
4,72,92,47
4,69,84,0
4,69,0,42
4,72,0,6
4,72,97,1
4,67,69,20
4,72,0,33
4,74,92,64
4,74,0,24
4,74,90,24
4,67,0,6
4,74,0,18
4,74,94,25
4,66,73,7
4,72,89,97
4,66,0,49
4,72,0,43
4,71,88,3
4,74,0,8
4,71,0,4
4,67,85,5
4,76,85,94
4,77,92,48
4,76,0,6
4,77,0,16
4,79,92,2
4,76,81,0
4,67,0,4
4,76,0,50
4,79,0,1
4,79,88,32
4,76,86,2
4,79,0,67
4,76,0,14
4,79,82,58
4,79,0,13
4,79,91,1
4,76,82,1
4,76,0,92
4,79,0,16
4,77,89,19
4,77,0,43
4,76,91,4
4,77,92,49
4,76,0,1
4,77,0,4
4,72,85,37
4,76,97,0
4,76,0,19
4,72,0,29
4,72,82,47
4,76,87,0
4,76,0,28
4,72,0,8
4,76,84,1
4,76,0,85
4,67,67,10
4,64,56,0
4,64,0,54
4,67,0,8
4,72,92,26
4,72,0,42
4,72,97,1
4,72,0,14
4,72,89,36
4,69,65,2
4,69,0,72
4,72,0,58
4,76,81,9
4,76,0,22
4,77,85,28
4,77,0,74
4,72,62,9
4,69,49,1
4,72,0,24
4,69,0,1
4,76,86,1
4,72,88,51
4,76,0,3
4,69,44,0
4,69,0,26
4,72,0,6
4,72,89,63
4,67,69,77
4,64,44,1
4,64,0,26
4,67,0,6
4,67,75,62
4,64,57,1
4,67,0,70
4,64,0,5
4,67,68,27
4,64,50,1
4,67,0,22
4,64,0,9
4,72,0,34
4,67,57,30
4,64,59,0
4,67,0,6
4,64,0,13
4,69,86,11
4,69,0,27
4,64,52,20
4,60,58,0
4,60,0,58
4,64,0,5
4,69,87,32
4,69,0,20
4,69,85,28
4,60,87,7
4,69,0,2
4,64,55,1
4,60,0,11
4,71,90,80
4,64,0,1
4,71,0,18
4,72,87,27
4,72,0,17
4,60,70,34
4,71,79,1
4,69,85,37
4,60,0,7
4,71,0,5
4,62,47,112
4,60,82,1
4,69,0,3
4,60,0,42
4,62,0,2
4,69,82,48
4,65,81,36
4,60,76,95
4,65,0,23
4,69,0,1
4,60,0,13
4,60,82,27
4,64,78,75
4,64,0,50
4,60,0,14
4,69,85,32
4,69,0,20
4,69,79,26
4,69,0,25
4,69,71,25
4,64,73,37
4,60,69,1
4,69,0,23
4,71,89,74
4,71,0,18
4,64,0,0
4,72,86,28
4,72,0,17
4,60,0,13
4,71,86,20
4,62,73,14
4,60,53,1
4,66,85,6
4,71,0,55
4,60,0,17
4,67,96,22
4,62,0,80
4,67,0,9
4,66,0,4
4,69,87,2
4,67,89,46
4,69,0,13
4,62,76,10
4,59,62,2
4,59,0,31
4,62,0,4
4,59,74,62
4,62,79,0
4,67,0,4
4,62,0,9
4,59,0,50
