track,note,velocity,time
2,74,79,720
2,74,79,165
2,78,79,165
2,78,79,80
2,76,79,80
2,74,79,0
2,74,79,40
2,78,95,4160
2,78,95,80
2,78,95,40
2,79,95,40
2,78,95,40
2,76,95,40
2,78,95,40
2,76,95,40
2,74,95,40
2,69,95,440
2,78,95,40
2,78,95,40
2,78,95,40
2,78,95,40
2,79,95,40
2,78,95,40
2,76,95,40
2,74,95,40
2,73,95,40
2,71,95,40
2,66,95,40
2,69,95,40
2,73,95,40
2,69,95,420
2,71,95,40
2,73,95,40
2,73,95,80
2,71,95,40
2,73,95,40
2,71,95,40
2,69,95,40
2,73,95,40
2,69,95,420
2,71,95,40
2,73,95,40
2,73,95,40
2,73,95,40
2,73,95,40
2,73,95,40
2,74,95,40
2,76,95,40
2,78,95,40
2,78,95,0
2,78,95,80
2,78,95,40
2,79,95,40
2,78,95,40
2,76,95,40
2,78,95,40
2,76,95,40
2,74,95,40
2,69,95,440
2,78,95,40
2,78,95,40
2,78,95,40
2,78,95,40
2,79,95,40
2,78,95,40
2,76,95,40
2,74,95,40
2,73,95,40
2,71,95,40
2,66,95,40
2,69,95,40
2,73,95,40
2,69,95,680
2,73,95,40
2,73,95,80
2,73,95,80
2,71,95,40
2,69,95,40
2,73,95,40
2,69,95,300
2,69,95,40
2,71,95,40
2,73,95,40
2,73,95,40
2,73,95,40
2,73,95,40
2,73,95,40
2,74,95,40
2,76,95,40
2,78,95,40
2,76,95,0
2,74,95,0
2,78,95,3920
2,78,95,80
2,78,95,40
2,79,95,40
2,78,95,40
2,76,95,40
2,78,95,40
2,76,95,40
2,74,95,0
2,69,95,300
2,78,95,40
2,78,95,40
2,78,95,40
2,78,95,40
2,79,95,40
2,78,95,40
2,76,95,40
2,74,95,40
2,73,95,40
2,71,95,40
2,66,95,40
2,69,95,40
2,73,95,40
2,73,95,660
2,73,95,80
2,71,95,40
2,73,95,40
2,71,95,40
2,69,95,40
2,73,95,40
2,69,95,420
2,71,95,40
2,73,95,40
2,73,95,40
2,73,95,40
2,73,95,40
2,73,95,40
2,74,95,40
2,76,95,40
2,78,95,40
2,78,95,0
2,78,95,80
2,78,95,40
2,79,95,40
2,78,95,40
2,76,95,40
2,78,95,40
2,76,95,40
2,74,95,40
2,69,95,440
2,78,95,40
2,78,95,40
2,78,95,40
2,78,95,40
2,79,95,40
2,78,95,40
2,76,95,40
2,74,95,40
2,73,95,40
2,71,95,40
2,66,95,40
2,69,95,40
2,73,95,40
2,69,95,540
2,73,95,40
2,73,95,80
2,73,95,80
2,71,95,40
2,69,95,40
2,73,95,40
2,69,95,560
2,71,95,40
2,73,95,40
2,73,95,40
2,73,95,40
2,74,95,40
2,76,95,80
2,76,95,80
2,74,95,120
2,73,95,80
2,76,95,80
2,74,95,120
2,73,95,80
2,76,95,80
2,74,95,120
2,73,95,80
2,73,95,80
2,74,95,120
2,76,95,80
2,74,95,80
2,73,95,120
2,71,95,80
2,73,95,0
2,69,95,0
2,71,95,40
2,73,95,40
2,73,95,80
2,73,95,80
2,74,95,40
2,73,95,40
2,71,95,40
2,78,95,885
2,78,95,80
2,79,95,40
2,78,95,40
2,76,95,40
2,78,95,40
2,76,95,40
2,74,95,40
2,78,95,560
2,78,95,40
2,78,95,40
2,78,95,40
2,79,95,40
2,78,95,40
2,76,95,40
2,74,95,40
2,73,95,40
2,71,95,40
2,66,95,40
2,69,95,40
2,73,95,40
2,71,95,540
2,73,95,40
2,73,95,80
2,71,95,40
2,73,95,40
2,71,95,40
2,69,95,40
2,73,95,40
2,69,95,420
2,71,95,40
2,73,95,40
2,73,95,40
2,73,95,40
2,73,95,40
2,73,95,40
2,74,95,40
2,76,95,40
2,78,95,40
2,78,95,0
2,78,95,80
2,78,95,40
2,79,95,40
2,78,95,40
2,76,95,40
2,78,95,40
2,76,95,40
2,74,95,40
2,69,95,440
2,78,95,40
2,78,95,40
2,78,95,40
2,78,95,40
2,79,95,40
2,78,95,40
2,76,95,40
2,74,95,40
2,73,95,40
2,71,95,40
2,66,95,40
2,69,95,40
2,73,95,40
2,69,95,540
2,73,95,40
2,73,95,80
2,71,95,40
2,73,95,40
2,71,95,40
2,69,95,40
2,73,95,40
2,69,95,440
2,69,95,40
2,71,95,40
2,73,95,40
2,73,95,40
2,73,95,40
2,73,95,40
2,73,95,40
2,74,95,40
2,76,95,0
2,78,95,0
2,76,95,0
2,74,111,0
2,76,95,7140
2,76,95,80
2,74,95,120
2,73,95,80
2,76,95,80
2,74,95,120
2,78,95,80
2,76,95,80
2,74,95,120
2,73,95,80
2,73,95,80
2,74,95,120
2,76,95,80
2,74,95,80
2,73,95,120
2,71,95,80
2,73,95,80
2,69,95,405
2,71,95,40
2,73,95,40
2,73,95,80
2,73,95,40
2,73,95,40
2,74,95,40
2,73,95,40
2,71,95,40
2,78,95,885
2,78,95,80
2,78,95,40
2,79,95,40
2,78,95,40
2,76,95,40
2,78,95,40
2,76,95,40
2,74,95,40
2,69,95,440
2,78,95,40
2,78,95,40
2,78,95,40
2,78,95,40
2,79,95,40
2,78,95,40
2,76,95,40
2,74,95,40
2,73,95,40
2,71,95,40
2,66,95,40
2,69,95,40
2,73,95,40
2,69,95,560
2,71,95,40
2,73,95,40
2,73,95,80
2,71,95,40
2,73,95,40
2,71,95,40
2,69,95,40
2,73,95,40
2,69,95,560
2,71,95,40
2,73,95,40
2,73,95,40
2,73,95,40
2,73,95,40
2,73,95,40
2,74,95,40
2,76,95,40
2,78,95,40
2,78,95,80
2,78,95,80
2,78,95,40
2,79,95,40
2,78,95,40
2,76,95,40
2,78,95,40
2,76,95,40
2,74,95,40
2,69,95,440
2,78,95,40
2,78,95,40
2,78,95,40
2,78,95,40
2,79,95,40
2,78,95,40
2,76,95,40
2,74,95,40
2,73,95,40
2,71,95,40
2,66,95,40
2,69,95,40
2,73,95,40
2,69,95,680
2,73,95,40
2,73,95,80
2,73,95,80
2,71,95,40
2,69,95,40
2,73,95,40
2,69,95,440
2,69,95,40
2,71,95,40
2,73,95,40
2,73,95,40
2,73,95,40
2,73,95,40
2,73,95,40
2,74,95,40
2,76,95,40
2,78,95,40
2,76,95,0
2,74,95,0
2,78,95,1040
2,76,95,40
2,78,95,40
2,76,95,40
2,74,95,40
2,78,95,40
2,69,95,2600
2,78,95,40
2,78,95,40
2,78,95,40
2,79,95,40
2,78,95,40
2,76,95,40
2,74,95,40
2,74,95,40
2,74,95,1760
2,78,95,1040
2,76,95,40
2,78,95,40
2,76,95,40
2,74,95,40
2,78,95,40
2,69,95,0
2,78,95,0
2,78,95,30
2,78,95,30
2,79,95,40
2,78,95,40
2,76,95,40
2,74,95,0
2,74,95,40
2,74,95,30
2,78,95,60
2,76,95,40
2,78,95,0
2,76,95,0
2,74,95,30
2,78,95,30
2,69,95,60
2,78,95,40
2,78,95,40
2,78,95,0
2,79,95,0
2,78,95,30
2,76,95,30
2,74,95,40
2,74,95,40
3,81,95,3490
3,88,95,0
3,83,95,0
3,90,95,0
3,76,95,160
3,81,95,0
3,78,95,80
3,81,95,0
3,64,95,280
3,69,95,0
3,66,95,0
3,69,95,0
3,69,95,20
3,74,95,0
3,69,95,40
3,74,95,0
3,71,95,40
3,76,95,0
3,69,95,0
3,74,95,0
3,66,95,20
3,69,95,0
3,74,95,0
3,71,95,30
3,71,95,0
3,81,95,0
3,88,95,0
3,83,95,0
3,88,95,0
3,76,95,160
3,81,95,0
3,78,95,80
3,81,95,0
3,78,95,40
3,81,95,0
3,66,95,40
3,66,95,20
3,64,95,20
3,69,95,40
3,74,95,0
3,69,95,40
3,74,95,0
3,71,95,40
3,76,95,0
3,69,95,0
3,74,95,0
3,66,95,20
3,69,95,40
3,74,95,0
3,69,95,40
3,74,95,0
3,69,79,0
3,62,79,0
3,74,79,0
3,69,79,40
3,62,79,0
3,74,79,0
3,69,79,40
3,62,79,0
3,74,79,0
3,69,79,40
3,62,79,0
3,74,79,0
3,69,79,40
3,62,79,0
3,74,79,0
3,69,79,40
3,62,79,0
3,74,79,0
3,69,79,40
3,62,79,0
3,74,79,0
3,69,79,40
3,62,79,0
3,74,79,0
3,66,79,40
3,59,79,0
3,71,79,0
3,66,79,40
3,59,79,0
3,71,79,0
3,66,79,40
3,59,79,0
3,71,79,0
3,66,79,40
3,59,79,0
3,71,79,0
3,66,79,40
3,59,79,0
3,71,79,0
3,66,79,40
3,59,79,0
3,71,79,0
3,66,79,40
3,59,79,0
3,71,79,0
3,66,79,40
3,59,79,0
3,71,79,0
3,69,79,40
3,62,79,0
3,74,79,0
3,69,79,40
3,62,79,0
3,74,79,0
3,69,79,40
3,62,79,0
3,74,79,0
3,69,79,40
3,62,79,0
3,74,79,0
3,69,79,40
3,62,79,0
3,74,79,0
3,69,79,40
3,62,79,0
3,74,79,0
3,69,79,40
3,62,79,0
3,74,79,0
3,69,79,40
3,62,79,0
3,74,79,0
3,66,79,40
3,59,79,0
3,71,79,0
3,66,79,40
3,59,79,0
3,71,79,0
3,66,79,40
3,59,79,0
3,71,79,0
3,66,79,40
3,59,79,0
3,71,79,0
3,66,79,40
3,59,79,0
3,71,79,0
3,66,79,40
3,59,79,0
3,71,79,0
3,66,79,40
3,59,79,0
3,71,79,0
3,66,79,40
3,59,79,0
3,71,79,0
3,66,79,40
3,61,79,0
3,69,79,0
3,66,79,40
3,61,79,0
3,69,79,0
3,66,79,40
3,61,79,0
3,69,79,0
3,66,79,40
3,61,79,0
3,69,79,0
3,66,79,40
3,61,79,0
3,69,79,0
3,66,79,40
3,61,79,0
3,69,79,0
3,66,79,40
3,61,79,0
3,69,79,0
3,66,79,40
3,61,79,0
3,69,79,0
3,66,79,40
3,61,79,0
3,69,79,0
3,66,79,40
3,61,79,0
3,69,79,0
3,66,79,40
3,61,79,0
3,69,79,0
3,66,79,40
3,61,79,0
3,69,79,0
3,66,79,40
3,61,79,0
3,69,79,0
3,66,79,40
3,61,79,0
3,69,79,0
3,66,79,40
3,61,79,0
3,69,79,0
3,66,79,40
3,61,79,0
3,69,79,0
3,64,79,40
3,57,79,0
3,69,79,0
3,64,79,40
3,57,79,0
3,69,79,0
3,64,79,40
3,57,79,0
3,69,79,0
3,64,79,40
3,57,79,0
3,69,79,0
3,64,79,40
3,57,79,0
3,69,79,0
3,64,79,40
3,57,79,0
3,69,79,0
3,64,79,40
3,57,79,0
3,69,79,0
3,64,79,40
3,57,79,0
3,69,79,0
3,64,79,40
3,57,79,0
3,69,79,0
3,64,79,40
3,57,79,0
3,69,79,0
3,64,79,40
3,57,79,0
3,69,79,0
3,64,79,40
3,57,79,0
3,69,79,0
3,64,79,40
3,57,79,0
3,69,79,0
3,64,79,40
3,57,79,0
3,69,79,0
3,64,79,40
3,57,79,0
3,69,79,0
3,64,79,40
3,57,79,0
3,69,79,0
3,69,79,40
3,62,79,0
3,74,79,0
3,69,79,40
3,62,79,0
3,74,79,0
3,69,79,40
3,62,79,0
3,74,79,0
3,69,79,40
3,62,79,0
3,74,79,0
3,69,79,40
3,62,79,0
3,74,79,0
3,69,79,40
3,62,79,0
3,74,79,0
3,69,79,40
3,62,79,0
3,74,79,0
3,69,79,40
3,62,79,0
3,74,79,0
3,66,79,40
3,59,79,0
3,71,79,0
3,66,79,40
3,59,79,0
3,71,79,0
3,66,79,40
3,59,79,0
3,71,79,0
3,66,79,40
3,59,79,0
3,71,79,0
3,66,79,40
3,59,79,0
3,71,79,0
3,66,79,40
3,59,79,0
3,71,79,0
3,66,79,40
3,59,79,0
3,71,79,0
3,66,79,40
3,59,79,0
3,71,79,0
3,69,79,40
3,62,79,0
3,74,79,0
3,69,79,40
3,62,79,0
3,74,79,0
3,69,79,40
3,62,79,0
3,74,79,0
3,69,79,40
3,62,79,0
3,74,79,0
3,69,79,40
3,62,79,0
3,74,79,0
3,69,79,40
3,62,79,0
3,74,79,0
3,69,79,40
3,62,79,0
3,74,79,0
3,69,79,40
3,62,79,0
3,74,79,0
3,66,79,40
3,59,79,0
3,71,79,0
3,66,79,40
3,59,79,0
3,71,79,0
3,66,79,40
3,59,79,0
3,71,79,0
3,66,79,40
3,59,79,0
3,71,79,0
3,66,79,40
3,59,79,0
3,71,79,0
3,66,79,40
3,59,79,0
3,71,79,0
3,66,79,40
3,59,79,0
3,71,79,0
3,66,79,40
3,59,79,0
3,71,79,0
3,66,79,40
3,61,79,0
3,69,79,0
3,66,79,40
3,61,79,0
3,69,79,0
3,66,79,40
3,61,79,0
3,69,79,0
3,66,79,40
3,61,79,0
3,69,79,0
3,66,79,40
3,61,79,0
3,69,79,0
3,66,79,40
3,61,79,0
3,69,79,0
3,66,79,40
3,61,79,0
3,69,79,0
3,66,79,40
3,61,79,0
3,69,79,0
3,66,79,40
3,61,79,0
3,69,79,0
3,66,79,40
3,61,79,0
3,69,79,0
3,66,79,40
3,61,79,0
3,69,79,0
3,66,79,40
3,61,79,0
3,69,79,0
3,66,79,40
3,61,79,0
3,69,79,0
3,66,79,40
3,61,79,0
3,69,79,0
3,66,79,40
3,61,79,0
3,69,79,0
3,66,79,40
3,61,79,0
3,69,79,0
3,64,79,40
3,57,79,0
3,69,79,0
3,64,79,40
3,57,79,0
3,69,79,0
3,64,79,40
3,57,79,0
3,69,79,0
3,64,79,40
3,57,79,0
3,69,79,0
3,64,79,40
3,57,79,0
3,69,79,0
3,64,79,40
3,57,79,0
3,69,79,0
3,64,79,40
3,57,79,0
3,69,79,0
3,64,79,40
3,57,79,0
3,69,79,0
3,64,79,40
3,57,79,0
3,69,79,0
3,64,79,40
3,57,79,0
3,69,79,0
3,64,79,40
3,57,79,0
3,69,79,0
3,64,79,40
3,57,79,0
3,69,79,0
3,64,79,40
3,57,79,0
3,69,79,0
3,64,79,40
3,57,79,0
3,69,79,0
3,64,79,40
3,57,79,0
3,69,79,0
3,64,79,40
3,57,79,0
3,69,79,0
3,76,111,180
3,81,111,0
3,78,111,0
3,83,111,0
3,76,111,160
3,81,111,0
3,78,111,80
3,81,111,0
3,71,111,20
3,74,111,20
3,64,111,160
3,66,111,0
3,69,111,20
3,74,111,0
3,69,111,40
3,74,111,0
3,71,111,40
3,69,111,0
3,66,111,20
3,69,111,40
3,74,111,0
3,71,111,40
3,76,111,220
3,81,111,0
3,78,111,0
3,83,111,0
3,76,111,160
3,81,111,0
3,78,111,80
3,81,111,0
3,71,111,20
3,69,111,0
3,64,111,40
3,69,111,0
3,64,111,40
3,66,111,0
3,69,111,20
3,74,111,0
3,69,111,40
3,74,111,0
3,71,111,0
3,69,111,40
3,74,111,0
3,64,111,40
3,66,111,40
3,64,111,0
3,69,79,0
3,62,79,0
3,74,79,0
3,69,79,40
3,62,79,0
3,74,79,0
3,69,79,40
3,62,79,0
3,74,79,0
3,69,79,40
3,62,79,0
3,74,79,0
3,69,79,40
3,62,79,0
3,74,79,0
3,69,79,40
3,62,79,0
3,74,79,0
3,69,79,40
3,62,79,0
3,74,79,0
3,69,79,40
3,62,79,0
3,74,79,0
3,66,79,40
3,59,79,0
3,71,79,0
3,66,79,40
3,59,79,0
3,71,79,0
3,66,79,40
3,59,79,0
3,71,79,0
3,66,79,40
3,59,79,0
3,71,79,0
3,66,79,40
3,59,79,0
3,71,79,0
3,66,79,40
3,59,79,0
3,71,79,0
3,66,79,40
3,59,79,0
3,71,79,0
3,66,79,40
3,59,79,0
3,71,79,0
3,69,79,40
3,62,79,0
3,74,79,0
3,69,79,40
3,62,79,0
3,74,79,0
3,69,79,40
3,62,79,0
3,74,79,0
3,69,79,40
3,62,79,0
3,74,79,0
3,69,79,40
3,62,79,0
3,74,79,0
3,69,79,40
3,62,79,0
3,74,79,0
3,69,79,40
3,62,79,0
3,74,79,0
3,69,79,40
3,62,79,0
3,74,79,0
3,66,79,40
3,59,79,0
3,71,79,0
3,66,79,40
3,59,79,0
3,71,79,0
3,66,79,40
3,59,79,0
3,71,79,0
3,66,79,40
3,59,79,0
3,71,79,0
3,66,79,40
