track,note,velocity,time
1,48,53,1876
1,47,51,4
1,45,53,4
1,43,47,4
1,41,59,4
1,40,55,4
1,38,60,8
1,43,45,8
1,48,59,4
1,47,56,32
1,45,56,44
1,43,53,20
1,41,60,4
1,43,74,8
1,31,93,20
1,36,93,12
1,36,105,20
1,36,76,64
1,36,82,92
1,36,63,52
1,36,76,64
1,36,76,84
1,36,54,52
1,35,87,4
1,33,78,32
1,33,72,16
1,31,62,16
1,29,82,4
1,28,93,4
1,26,82,4
1,26,89,72
1,31,82,4
1,31,82,52
1,36,63,8
1,35,91,28
1,33,85,16
1,31,72,8
1,29,85,40
1,31,87,48
1,31,74,80
1,36,76,4
1,36,64,68
1,35,68,4
1,33,89,4
1,40,91,12
1,31,98,456
1,40,87,12
1,30,98,412
1,38,87,4
1,29,100,352
1,36,72,4
1,33,93,408
1,40,85,4
1,31,93,376
1,40,85,4
1,30,105,400
1,38,78,24
1,26,102,328
1,38,98,4
1,31,102,320
1,31,95,96
1,29,100,4
1,29,95,60
1,28,102,16
1,28,95,144
1,31,107,4
1,36,127,180
1,35,127,12
1,33,127,68
1,31,110,4
1,29,119,44
1,28,116,52
1,38,113,44
1,33,113,4
1,31,113,24
1,33,91,4
1,35,105,16
1,36,113,28
1,36,89,40
1,35,122,64
1,33,113,48
1,40,91,12
1,31,113,192
1,40,96,4
1,29,110,296
1,31,119,72
1,31,122,96
1,36,113,44
1,36,110,76
1,31,105,44
1,36,100,156
1,36,89,64
1,35,95,40
1,33,98,84
1,33,82,72
1,31,87,8
1,29,89,24
1,29,89,56
1,28,87,28
1,28,89,84
1,38,87,28
1,33,89,28
1,31,95,36
1,36,91,8
1,36,93,40
1,35,98,40
1,33,93,76
1,33,87,72
1,31,98,52
1,29,91,44
1,29,98,64
1,31,91,52
1,31,91,116
1,36,85,32
1,24,87,4
1,36,85,32
1,24,95,4
1,36,93,44
1,29,100,20
1,31,93,4
1,31,93,60
1,36,91,8
1,35,110,56
1,33,102,44
1,31,110,72
1,29,113,56
1,28,110,52
1,38,91,12
1,33,102,28
1,31,105,28
1,33,100,24
1,35,100,16
1,36,95,24
1,35,100,52
1,33,100,36
1,31,105,48
1,31,98,44
1,29,95,40
1,29,98,52
1,31,93,32
1,31,95,100
1,36,82,20
1,36,93,60
1,35,105,92
1,33,102,32
1,31,105,44
1,30,85,4
1,29,87,4
1,33,93,16
1,31,102,36
1,30,107,52
1,26,102,32
1,28,93,24
1,30,100,16
1,31,105,8
1,29,105,36
1,28,100,4
1,26,107,24
1,36,107,40
1,35,105,60
1,33,105,72
1,31,107,60
1,29,110,48
1,28,102,44
1,30,105,52
1,31,113,40
1,36,98,32
1,35,113,40
1,33,107,68
1,31,107,68
1,29,105,60
1,31,113,60
1,31,102,20
1,36,95,40
1,36,110,68
1,36,113,52
1,31,119,60
1,36,100,136
1,36,89,64
1,35,95,40
1,33,98,84
1,33,82,72
1,31,87,8
1,29,89,24
1,29,89,56
1,28,87,28
1,28,89,88
1,38,87,28
1,33,89,28
1,31,95,36
1,36,91,8
1,36,93,40
1,35,98,40
1,33,93,76
1,33,87,72
1,31,98,56
1,29,91,44
1,29,98,64
1,31,91,52
1,31,91,116
1,36,85,32
1,24,87,4
1,36,85,32
1,24,95,4
1,36,93,44
1,29,100,20
1,31,93,4
1,31,93,60
1,36,91,8
1,35,110,56
1,33,102,44
1,31,110,76
1,29,113,52
1,28,110,52
1,38,91,16
1,33,102,28
1,31,105,28
1,33,100,24
1,35,100,16
1,36,95,24
1,35,100,52
1,33,100,36
1,31,105,44
1,31,98,48
1,29,95,40
1,29,98,52
1,31,93,32
1,31,95,100
1,36,82,20
1,36,93,60
1,35,105,92
1,33,102,32
1,31,105,44
1,30,85,4
1,29,87,4
1,33,93,16
1,31,102,36
1,30,107,48
1,26,102,32
1,28,93,24
1,30,100,16
1,31,105,8
1,29,105,40
1,28,100,4
1,26,107,28
1,36,107,40
1,35,105,60
1,33,105,72
1,31,107,64
1,29,110,48
1,28,102,44
1,30,105,52
1,31,113,40
1,36,98,32
1,35,113,40
1,33,107,68
1,31,107,68
1,29,105,60
1,31,113,60
1,31,102,16
1,36,95,40
1,36,110,64
1,36,113,52
1,31,119,60
1,36,100,136
1,36,89,60
1,35,95,40
1,33,98,84
1,33,82,72
1,31,87,12
1,29,89,24
1,29,89,56
1,28,87,28
1,28,89,84
1,38,87,28
1,33,89,28
1,31,95,36
1,36,91,8
1,36,93,40
1,35,98,36
1,33,93,76
1,33,87,68
1,31,98,52
1,29,91,48
1,29,98,64
1,31,91,52
1,31,91,112
1,36,85,28
1,24,87,4
1,36,85,32
1,24,95,4
1,36,93,40
1,29,100,20
1,31,93,384
1,31,93,60
1,36,91,8
1,35,110,56
1,33,102,44
1,31,110,72
1,29,113,56
1,28,110,52
1,38,91,16
1,33,102,28
1,31,105,28
1,33,100,24
1,35,100,16
1,36,95,24
1,35,100,52
1,33,100,36
1,31,105,44
1,31,98,44
1,29,95,44
1,29,98,52
1,31,93,32
1,31,95,100
1,36,82,24
1,36,93,60
1,35,105,92
1,33,102,32
1,31,105,40
1,30,85,4
1,29,87,4
1,33,93,16
1,31,102,36
1,30,107,48
1,26,102,32
1,28,93,24
1,30,100,16
1,31,105,8
1,29,105,36
1,28,100,4
1,26,107,24
1,36,107,40
1,35,105,56
1,33,105,72
1,31,107,64
1,29,110,48
1,28,102,48
1,30,105,52
1,31,113,40
1,36,98,32
1,35,113,40
1,33,107,68
1,31,107,68
1,29,105,60
1,31,113,60
1,31,102,20
1,36,95,40
1,36,110,64
1,36,113,52
1,31,119,64
1,36,127,128
2,48,43,1856
2,47,52,456
2,45,64,4
2,52,59,124
2,43,70,32
2,52,65,120
2,41,56,28
2,40,50,36
2,38,48,376
2,43,49,12
2,48,55,0
2,47,67,220
2,45,70,36
2,43,65,60
2,52,62,392
2,41,60,36
2,48,58,108
2,43,56,24
2,48,58,16
2,52,54,0
2,57,69,4
2,48,62,4
2,59,59,352
2,48,57,4
2,53,60,64
2,52,57,40
2,50,57,236
2,48,76,20
2,47,60,324
2,45,76,20
2,52,79,92
2,43,71,16
2,52,65,124
2,41,64,104
2,40,59,4
2,38,58,352
2,43,68,360
2,48,68,12
2,47,59,8
2,52,67,64
2,45,63,76
2,43,67,8
2,41,57,12
2,43,64,528
2,48,80,428
2,43,71,40
2,45,76,40
2,43,83,772
2,42,68,764
2,41,71,0
2,45,73,108
2,43,67,488
2,42,60,68
2,38,60,28
2,40,67,56
2,42,59,32
2,43,65,28
2,41,71,208
2,40,71,248
2,38,57,56
2,36,71,12
2,47,61,36
2,45,79,16
2,43,69,16
2,41,64,12
2,40,61,12
2,38,57,596
2,43,69,92
2,48,67,376
2,47,64,324
2,45,67,32
2,43,54,20
2,41,63,328
2,43,59,132
2,48,51,500
2,48,64,348
2,59,65,504
2,48,57,4
2,55,51,4
2,43,64,44
2,53,68,4
2,52,77,180
2,50,67,44
2,48,73,96
2,47,82,456
2,45,94,4
2,52,89,120
2,43,100,32
2,52,95,120
2,41,86,28
2,40,80,32
2,38,78,372
2,43,79,12
2,48,85,0
2,47,97,224
2,45,100,36
2,43,95,56
2,52,92,392
2,41,90,36
2,48,88,108
2,43,86,20
2,48,88,16
2,52,84,0
2,57,94,8
2,48,87,4
2,59,84,352
2,48,82,4
2,53,85,64
2,52,82,36
2,50,82,228
2,48,101,20
2,47,85,320
2,45,101,24
2,52,104,92
2,43,96,12
2,52,90,124
2,41,89,100
2,40,84,4
2,38,83,352
2,43,93,360
2,48,93,8
2,47,84,8
2,52,92,68
2,45,88,76
2,43,92,4
2,41,82,12
2,43,89,528
2,48,105,428
2,43,96,444
2,45,101,40
2,43,108,772
2,42,93,764
2,41,96,4
2,45,98,108
2,43,92,484
2,42,85,72
2,38,85,28
2,40,92,60
2,42,84,28
2,43,90,28
2,41,96,208
2,40,96,252
2,38,82,52
2,36,96,104
2,47,86,44
2,45,104,16
2,43,94,16
2,41,89,12
2,40,86,12
2,38,82,596
2,43,94,92
2,48,92,376
2,47,89,324
2,45,92,28
2,43,79,20
2,41,88,324
2,43,84,28
2,48,76,500
2,48,89,348
2,59,90,504
2,48,82,8
2,55,76,4
2,43,89,44
2,53,93,4
2,52,102,180
2,50,92,40
2,48,53,100
2,47,62,456
2,45,74,4
2,52,69,120
2,43,80,32
2,52,75,120
2,41,66,28
2,40,60,36
2,38,58,372
2,43,59,8
2,48,65,0
2,47,77,220
2,45,80,36
2,43,75,60
2,52,72,388
2,41,70,36
2,48,68,104
2,43,66,20
2,48,68,16
2,52,64,0
2,57,74,4
2,48,102,4
2,59,99,352
2,48,97,4
2,53,100,56
2,52,97,44
2,50,97,224
2,48,116,8
2,47,100,332
2,45,116,24
2,52,119,92
2,43,111,16
2,52,105,124
2,41,104,104
2,40,99,4
2,38,98,352
2,43,108,360
2,48,108,12
2,47,99,8
2,52,107,64
2,45,103,76
2,43,107,8
2,41,97,12
2,43,104,528
2,48,120,428
2,43,111,448
2,45,116,44
2,43,123,772
2,42,108,764
2,41,111,4
2,45,113,108
2,43,107,484
2,42,100,72
2,38,100,28
2,40,107,60
2,42,99,28
2,43,105,24
2,41,111,208
2,40,111,252
2,38,97,52
2,36,111,108
2,47,101,52
2,45,119,20
2,43,109,20
2,41,104,12
2,40,101,12
2,38,97,596
2,43,109,92
2,48,107,376
2,47,104,324
2,45,107,28
2,43,94,20
2,41,103,324
2,43,99,132
2,48,91,492
2,48,104,348
2,59,105,508
2,48,97,4
2,55,91,4
2,43,104,44
2,53,108,0
2,52,117,180
2,50,107,40
2,48,78,96
2,47,87,456
2,45,97,4
2,52,94,120
2,43,97,36
2,52,97,120
2,41,91,76
2,40,85,36
2,38,83,372
2,43,84,12
2,48,90,4
2,47,97,224
2,45,97,40
2,43,97,56
2,52,97,392
2,41,95,36
2,48,93,104
2,43,91,20
2,48,93,12
2,52,89,4
2,57,97,4
2,48,122,8
2,59,119,352
2,48,117,0
2,53,120,48
2,52,117,40
2,50,117,232
2,48,127,236
2,47,120,336
2,45,127,20
2,52,127,92
2,43,127,12
2,52,125,124
2,41,124,100
2,40,119,4
2,38,118,352
2,43,127,364
2,48,127,8
2,47,119,8
2,52,127,68
2,45,123,76
2,43,127,4
2,41,117,12
2,43,124,524
2,48,127,428
2,43,127,444
2,45,127,44
2,43,127,768
2,42,127,768
2,41,127,4
2,45,127,104
2,43,127,484
2,42,120,72
2,38,120,28
2,40,127,60
2,42,119,28
2,43,125,24
2,41,127,208
2,40,127,252
2,38,117,52
2,36,127,108
2,47,121,560
2,45,127,20
2,43,127,20
2,41,124,12
2,40,121,16
2,38,117,600
2,43,127,88
2,48,127,380
2,47,124,324
2,45,127,28
2,43,114,20
2,41,123,324
2,43,119,132
2,48,111,500
2,48,124,348
2,48,117,500
2,55,111,4
2,59,125,0
2,53,104,48
2,43,104,0
2,52,107,176
2,50,100,44
2,48,107,32
3,67,79,1448
3,67,66,164
3,64,47,100
3,67,82,36
3,67,71,212
3,64,62,4
3,65,77,20
3,64,64,68
3,65,80,8
3,64,77,12
3,60,77,16
3,60,89,500
3,60,81,32
3,60,84,156
3,57,72,12
3,60,78,224
3,60,78,36
3,60,68,192
3,55,55,8
3,62,83,16
3,62,86,280
3,54,62,328
3,60,80,344
3,59,81,0
3,55,67,8
3,67,85,384
3,67,69,116
3,67,77,8
3,67,78,208
3,64,63,0
3,60,32,16
3,64,64,148
3,60,68,4
3,64,62,308
3,59,59,4
3,65,91,8
3,64,81,32
3,65,94,36
3,64,89,8
3,60,83,16
3,57,67,376
3,57,87,140
3,57,80,44
3,65,86,52
3,65,73,136
3,65,73,20
3,57,71,4
3,64,83,4
3,60,78,12
3,60,83,8
3,64,87,72
3,67,92,180
3,72,87,64
3,65,82,364
3,72,81,380
3,67,79,12
3,72,87,24
3,69,76,0
3,67,84,32
3,79,82,192
3,79,98,24
3,79,91,16
3,76,85,4
3,79,82,224
3,76,57,4
3,76,81,224
3,79,88,4
3,76,78,160
3,79,79,0
3,77,90,40
3,76,94,12
3,77,94,28
3,76,87,4
3,72,82,92
3,69,60,4
3,72,87,504
3,72,89,176
3,69,77,8
3,72,91,152
3,69,74,4
3,72,92,188
3,69,84,0
3,72,97,4
3,67,69,80
3,74,92,256
3,74,90,96
3,74,94,100
3,66,73,28
3,72,89,388
3,71,88,12
3,67,85,20
3,76,85,376
3,77,92,192
3,79,92,8
3,76,81,0
3,79,88,128
3,76,86,8
3,79,82,232
3,79,91,4
3,76,82,4
3,77,89,76
3,76,91,16
3,77,92,196
3,72,85,148
3,76,97,0
3,72,82,188
3,76,87,0
3,76,84,4
3,67,67,40
3,64,56,0
3,72,92,104
3,72,97,4
3,72,89,144
3,69,65,8
3,76,81,36
3,77,85,112
3,72,62,36
3,69,49,4
3,76,86,4
3,72,88,204
3,69,44,0
3,72,89,252
3,67,69,308
3,64,44,4
3,67,75,248
3,64,57,4
3,67,68,108
3,64,50,4
3,67,57,120
3,64,59,0
3,69,86,44
3,64,52,80
3,60,58,0
3,69,87,128
3,69,85,112
3,60,87,28
3,64,55,4
3,71,90,320
3,72,87,108
3,60,70,136
3,71,79,4
3,69,85,148
3,62,47,448
3,60,82,4
3,69,82,192
3,65,81,144
3,60,76,380
3,60,82,108
3,64,78,300
3,69,85,128
3,69,79,104
3,69,71,100
3,64,73,148
3,60,69,4
3,71,89,296
3,72,86,112
3,71,86,80
3,62,73,56
3,60,53,4
3,66,85,24
3,67,96,88
3,69,87,8
3,67,89,184
3,62,76,40
3,59,62,8
3,59,74,248
3,62,79,0
3,74,89,140
3,71,66,8
3,74,81,128
3,71,67,4
3,74,88,136
3,71,75,0
3,76,91,196
3,67,85,4
3,76,82,96
3,67,73,4
3,76,94,160
3,67,72,8
3,77,89,96
3,71,84,12
3,77,74,84
3,71,76,4
3,77,89,152
3,71,76,4
3,79,90,12
3,76,62,4
3,79,101,152
3,76,94,0
3,79,87,260
3,79,97,24
3,76,77,8
3,77,86,12
3,76,85,20
3,77,91,16
3,72,55,196
3,76,90,0
3,64,55,100
3,72,86,0
3,67,76,148
3,64,47,8
3,67,79,116
3,64,47,4
3,69,76,12
3,72,90,132
3,69,71,0
3,72,92,244
3,72,96,8
3,67,69,180
3,60,60,8
3,74,85,116
3,66,73,232
3,74,89,4
3,69,76,60
3,72,95,24
3,71,94,44
3,76,95,120
3,67,82,4
3,77,90,172
3,71,86,0
3,79,94,176
3,79,90,140
3,76,74,8
3,79,92,176
3,79,92,116
3,76,79,4
3,77,94,4
3,77,89,244
3,77,87,24
3,76,89,188
3,72,82,8
3,69,67,0
3,64,62,16
3,60,58,0
3,60,65,152
3,64,61,0
3,67,87,68
3,69,87,220
3,72,103,84
3,69,67,4
3,72,89,132
3,69,62,8
3,77,89,256
3,69,88,0
3,76,99,80
3,72,94,12
3,69,50,12
3,72,92,288
3,64,58,96
3,67,76,384
3,65,79,72
3,69,69,20
3,71,87,92
3,67,86,36
3,64,60,12
3,69,89,44
3,60,82,0
3,67,99,172
3,67,98,32
3,60,84,4
3,65,90,4
3,67,96,44
3,64,77,100
3,67,112,40
3,67,101,212
3,64,92,4
3,65,107,16
3,64,94,68
3,65,110,8
3,64,107,12
3,60,107,16
3,60,119,500
3,60,111,32
3,60,114,156
3,57,102,8
3,60,108,220
3,60,108,32
3,60,98,196
3,55,85,8
3,62,113,12
3,62,116,280
3,54,92,328
3,60,110,344
3,59,111,0
3,55,97,8
3,67,115,388
3,67,99,116
3,67,107,8
3,67,108,208
3,64,93,0
3,60,62,12
3,64,94,148
3,60,98,4
3,64,92,312
3,59,89,4
3,65,121,8
3,64,111,32
3,65,124,36
3,64,119,12
3,60,113,16
3,57,97,376
3,57,117,140
3,57,110,44
3,65,116,52
3,65,103,136
3,65,103,20
3,57,101,4
3,64,113,8
3,60,108,12
3,60,113,8
3,64,112,72
3,67,117,180
3,72,112,64
3,65,107,364
3,72,106,384
