track,note,velocity,time
1,60,99,384
1,60,0,17
1,60,99,6
1,60,0,18
1,60,99,6
1,60,0,18
1,60,99,5
1,60,0,19
1,64,99,6
1,60,99,24
1,64,0,0
1,60,0,17
1,60,99,6
1,60,0,17
1,60,99,7
1,60,0,18
1,60,99,4
1,60,0,19
1,60,99,6
1,60,0,18
1,64,99,6
1,60,99,24
1,64,0,0
1,60,0,17
1,60,99,7
1,60,0,17
1,60,99,6
1,60,0,18
1,60,99,6
1,60,0,17
1,60,99,6
1,60,0,18
1,65,99,7
1,60,99,24
1,65,0,0
1,60,0,17
1,60,99,6
1,60,0,18
1,60,99,6
1,60,0,17
1,60,99,6
1,60,0,18
1,60,99,6
1,60,0,18
1,65,99,6
1,60,99,25
1,65,0,0
1,60,0,17
1,60,99,5
1,60,0,19
1,60,99,6
1,60,0,17
1,60,99,6
1,60,0,18
1,60,99,6
1,60,0,17
1,65,99,7
1,60,99,23
1,65,0,0
1,60,0,18
1,60,99,6
1,60,0,18
1,60,99,6
1,60,0,17
1,59,99,7
1,60,99,24
1,59,0,0
1,60,0,17
1,60,99,7
1,60,0,17
1,60,99,6
1,60,0,18
1,67,99,6
1,60,99,25
1,67,0,0
1,60,0,16
1,60,99,6
1,60,0,18
1,60,99,6
1,60,0,18
1,60,99,6
1,60,0,18
1,60,99,6
1,60,0,17
1,67,99,6
1,60,99,24
1,67,0,0
1,60,0,18
1,60,99,6
1,60,0,17
1,60,99,6
1,60,0,18
1,60,99,6
1,60,0,17
1,60,99,7
1,60,0,18
1,72,99,6
1,60,99,24
1,72,0,0
1,60,0,17
1,60,99,6
1,60,0,18
1,60,99,6
1,60,0,18
1,60,99,6
1,60,0,18
1,60,99,6
1,60,0,17
1,64,99,6
1,60,99,24
1,64,0,0
1,60,0,17
1,60,99,7
1,60,0,18
1,60,99,6
1,60,0,17
1,60,99,6
1,60,0,18
1,60,99,6
1,60,0,17
1,59,99,7
1,60,99,24
1,59,0,0
1,60,0,17
1,60,99,6
1,60,0,18
1,60,99,6
1,60,0,12
1,60,99,12
1,60,0,18
1,60,99,6
1,60,0,18
1,60,99,6
1,60,0,17
1,60,99,6
1,60,0,18
1,64,99,6
1,60,99,24
1,64,0,0
1,60,0,18
1,60,99,6
1,60,0,17
1,60,99,6
1,60,0,18
1,60,99,6
1,60,0,18
1,60,99,6
1,60,0,18
1,64,99,6
1,60,99,23
1,64,0,0
1,60,0,18
1,60,99,6
1,60,0,19
1,60,99,4
1,60,0,18
1,60,99,6
1,60,0,18
1,60,99,6
1,60,0,18
1,65,99,7
1,60,99,23
1,65,0,0
1,60,0,18
1,60,99,6
1,60,0,18
1,60,99,6
1,60,0,17
1,60,99,6
1,60,0,18
1,60,99,6
1,60,0,18
1,65,99,6
1,60,99,24
1,65,0,0
1,60,0,17
1,60,99,6
1,60,0,18
1,60,99,6
1,60,0,18
1,60,99,6
1,60,0,17
1,60,99,7
1,60,0,18
1,65,99,5
1,60,99,24
1,65,0,0
1,60,0,18
1,60,99,6
1,60,0,17
1,60,99,6
1,60,0,18
1,59,99,7
1,60,99,24
1,59,0,0
1,60,0,17
1,60,99,6
1,60,0,17
1,60,99,7
1,60,0,18
1,67,99,6
1,60,99,24
1,67,0,0
1,60,0,17
1,60,99,6
1,60,0,17
1,60,99,6
1,60,0,19
1,60,99,6
1,60,0,17
1,60,99,6
1,60,0,18
1,67,99,6
1,60,99,24
1,67,0,0
1,60,0,18
1,60,99,5
1,60,0,18
1,60,99,6
1,60,0,18
1,60,99,6
1,60,0,18
1,60,99,6
1,60,0,17
1,72,99,8
1,60,99,23
1,72,0,0
1,60,0,18
1,60,99,5
1,60,0,18
1,60,99,6
1,60,0,17
1,60,99,7
1,60,0,18
1,60,99,5
1,60,0,18
1,64,99,6
1,60,99,24
1,64,0,0
1,60,0,18
1,60,99,7
1,60,0,16
1,60,99,6
1,60,0,19
1,60,99,5
1,60,0,18
1,60,99,6
1,60,0,18
1,59,99,6
1,60,99,23
1,59,0,0
1,60,0,18
1,60,99,6
1,60,0,18
1,60,99,6
1,60,0,12
1,60,99,12
1,60,0,18
1,60,99,6
1,60,0,18
1,60,99,5
1,60,0,18
1,60,99,7
1,60,0,17
1,64,99,6
1,60,99,25
1,64,0,0
1,60,0,16
1,60,99,6
1,60,0,18
1,60,99,6
1,60,0,18
1,60,99,6
1,60,0,18
1,60,99,6
1,60,0,18
1,64,99,6
1,60,99,23
1,64,0,0
1,60,0,18
1,60,99,6
1,60,0,18
1,60,99,6
1,60,0,17
1,60,99,6
1,60,0,18
1,60,99,6
1,60,0,18
1,65,99,8
1,60,99,23
1,65,0,0
1,60,0,17
1,60,99,6
1,60,0,18
1,60,99,6
1,60,0,18
1,60,99,6
1,60,0,18
1,60,99,5
1,60,0,18
1,65,99,6
1,60,99,24
1,65,0,0
1,60,0,18
1,60,99,6
1,60,0,17
1,60,99,6
1,60,0,18
1,60,99,6
1,60,0,18
1,60,99,5
1,60,0,19
1,65,99,6
1,60,99,23
1,65,0,0
1,60,0,18
1,60,99,6
1,60,0,18
1,60,99,6
1,60,0,17
1,59,99,7
1,60,99,24
1,59,0,0
1,60,0,17
1,60,99,7
1,60,0,18
1,60,99,5
1,60,0,18
1,67,99,6
1,60,99,24
1,67,0,0
1,60,0,18
1,60,99,5
1,60,0,18
1,60,99,7
1,60,0,17
1,60,99,6
1,60,0,18
1,60,99,6
1,60,0,17
1,67,99,6
1,60,99,24
1,67,0,0
1,60,0,17
1,60,99,7
1,60,0,17
1,60,99,6
1,60,0,19
1,60,99,5
1,60,0,18
1,60,99,6
1,60,0,18
1,72,99,6
1,60,99,24
1,72,0,0
1,60,0,18
1,60,99,6
1,60,0,17
1,60,99,6
1,60,0,18
1,60,99,6
1,60,0,18
1,60,99,6
1,60,0,18
1,64,99,5
1,60,99,26
1,64,0,0
1,60,0,17
1,60,99,5
1,60,0,17
1,60,99,7
1,60,0,17
1,60,99,6
1,60,0,19
1,60,99,5
1,60,0,18
1,59,99,6
1,60,99,24
1,59,0,0
1,60,0,18
1,60,99,5
1,60,0,18
1,60,99,6
1,60,0,12
1,60,99,12
1,60,0,18
1,60,99,6
1,60,0,19
1,60,99,5
1,60,0,18
1,60,99,5
1,60,0,18
1,64,99,7
1,60,99,23
1,64,0,0
1,60,0,18
1,60,99,5
1,60,0,19
1,60,99,6
1,60,0,17
1,60,99,6
1,60,0,18
1,60,99,6
1,60,0,18
1,64,99,5
1,60,99,25
1,64,0,0
1,60,0,17
1,60,99,6
1,60,0,18
1,60,99,6
1,60,0,18
1,60,99,6
1,60,0,17
1,60,99,7
1,60,0,17
1,65,99,8
1,60,99,23
1,65,0,0
1,60,0,17
1,60,99,6
1,60,0,17
1,60,99,7
1,60,0,18
1,60,99,5
1,60,0,18
1,60,99,6
1,60,0,18
1,65,99,6
1,60,99,23
1,65,0,0
1,60,0,19
1,60,99,6
1,60,0,17
1,60,99,6
1,60,0,18
1,60,99,6
1,60,0,18
1,60,99,6
1,60,0,17
1,65,99,7
1,60,99,25
1,65,0,0
1,60,0,16
1,60,99,6
1,60,0,18
1,60,99,6
1,60,0,18
1,59,99,6
1,60,99,24
1,59,0,0
1,60,0,17
1,60,99,6
1,60,0,18
1,60,99,6
1,60,0,18
1,67,99,7
1,60,99,24
1,67,0,0
1,60,0,16
1,60,99,6
1,60,0,18
1,60,99,6
1,60,0,18
1,60,99,6
1,60,0,17
1,60,99,6
1,60,0,18
1,67,99,6
1,60,99,24
1,67,0,0
1,60,0,18
1,60,99,6
1,60,0,17
1,60,99,6
1,60,0,18
1,60,99,6
1,60,0,18
1,60,99,6
1,60,0,18
1,72,99,6
1,60,99,24
1,72,0,0
1,60,0,18
1,60,99,5
1,60,0,18
1,60,99,6
1,60,0,18
1,60,99,6
1,60,0,18
1,60,99,6
1,60,0,17
1,64,99,6
1,60,99,24
1,64,0,0
1,60,0,18
1,60,99,6
1,60,0,18
1,60,99,6
1,60,0,17
1,60,99,7
1,60,0,18
1,60,99,5
1,60,0,18
1,59,99,6
1,60,99,26
1,59,0,0
1,60,0,16
1,60,99,6
1,60,0,17
1,60,99,6
1,60,0,12
1,60,99,16
1,60,0,44
1,67,99,48
1,67,0,140
1,70,99,2
1,70,0,140
1,69,99,3
1,69,0,140
1,65,99,2
1,65,0,140
1,65,99,2
1,65,0,93
1,65,99,98
1,65,0,109
1,65,99,34
1,67,99,143
1,65,0,0
1,67,0,106
1,67,99,35
1,67,0,107
1,67,99,37
1,67,0,95
1,74,99,95
1,74,0,140
1,77,99,2
1,77,0,141
1,76,99,1
1,76,0,142
1,72,99,1
1,72,0,141
1,67,99,1
1,67,0,94
1,67,99,98
1,69,99,140
1,67,0,0
1,69,0,143
1,74,99,1
1,74,0,141
1,74,99,2
1,74,0,140
1,74,99,3
1,74,0,93
1,69,99,0
1,71,99,47
1,69,0,0
1,79,99,46
1,71,0,0
1,71,99,51
1,79,0,0
1,72,99,46
1,71,0,0
1,79,99,47
1,72,0,0
1,69,99,51
1,79,0,0
1,71,99,45
1,69,0,0
1,79,99,47
1,71,0,0
1,71,99,48
1,79,0,0
1,72,99,47
1,71,0,0
1,79,99,47
1,72,0,0
1,69,99,48
1,79,0,0
1,71,99,47
1,69,0,0
1,71,0,35
1,71,99,12
1,72,99,24
1,71,0,0
1,79,99,23
1,72,0,0
1,67,99,54
1,79,0,0
1,69,99,43
1,67,0,0
1,77,99,48
1,69,0,0
1,69,99,48
1,77,0,0
1,70,99,47
1,69,0,0
1,77,99,47
1,70,0,0
1,67,99,48
1,77,0,0
1,69,99,47
1,67,0,0
1,77,99,47
1,69,0,0
1,69,99,48
1,77,0,0
1,70,99,48
1,69,0,0
1,77,99,48
1,70,0,0
1,77,0,46
1,67,99,2
1,69,99,47
1,67,0,0
1,69,0,34
1,69,99,12
1,70,99,24
1,69,0,0
1,77,99,24
1,70,0,0
1,69,99,52
1,77,0,0
1,71,99,44
1,69,0,0
1,79,99,46
1,71,0,0
1,71,99,49
1,79,0,0
1,72,99,47
1,71,0,0
1,79,99,48
1,72,0,0
1,69,99,47
1,79,0,0
1,71,99,48
1,69,0,0
1,79,99,47
1,71,0,0
1,71,99,47
1,79,0,0
1,72,99,48
1,71,0,0
1,79,99,48
1,72,0,0
1,69,99,47
1,79,0,0
1,71,99,47
1,69,0,0
1,71,0,36
1,71,99,12
1,72,99,24
1,71,0,0
1,79,99,23
1,72,0,0
1,60,99,50
1,79,0,0
1,67,99,47
1,60,0,0
1,88,99,48
1,67,0,0
1,86,99,145
1,88,0,0
1,84,99,140
1,86,0,0
1,81,99,142
1,84,0,0
1,79,99,143
1,81,0,0
1,72,99,97
1,79,0,0
1,67,99,46
1,72,0,0
1,60,99,48
1,67,0,0
1,72,99,47
1,60,0,0
1,67,99,51
1,72,0,0
1,60,99,44
1,67,0,0
1,72,99,47
1,60,0,0
1,67,99,49
1,72,0,0
1,60,99,47
1,67,0,0
1,72,99,48
1,60,0,0
1,67,99,47
1,72,0,0
1,60,99,47
1,67,0,0
1,72,99,48
1,60,0,0
1,67,99,47
1,72,0,0
1,60,99,48
1,67,0,0
1,72,99,47
1,60,0,0
1,72,0,48
1,67,99,1
1,67,0,46
1,60,99,3
1,72,99,46
1,60,0,0
1,67,99,48
1,72,0,0
1,60,99,46
1,67,0,0
1,72,99,47
1,60,0,0
1,72,0,48
1,67,99,4
1,60,99,43
1,67,0,0
1,72,99,48
1,60,0,0
1,71,99,47
1,72,0,0
1,67,99,47
1,71,0,0
1,62,99,49
1,67,0,0
1,72,99,48
1,62,0,0
1,71,99,46
1,72,0,0
1,67,99,50
1,71,0,0
1,62,99,45
1,67,0,0
1,72,99,50
1,62,0,0
1,67,99,47
1,72,0,0
1,60,99,49
1,67,0,0
1,72,99,46
1,60,0,0
1,67,99,46
1,72,0,0
1,60,99,48
1,67,0,0
1,72,99,47
1,60,0,0
1,72,0,48
1,67,99,3
1,67,0,44
1,60,99,3
1,72,99,45
1,60,0,0
1,67,99,47
1,72,0,0
1,60,99,48
1,67,0,0
1,72,99,47
1,60,0,0
1,67,99,48
1,72,0,0
1,60,99,47
1,67,0,0
1,72,99,48
1,60,0,0
1,67,99,47
1,72,0,0
1,60,99,48
1,67,0,0
1,72,99,47
1,60,0,0
1,60,99,48
1,72,0,0
1,67,99,48
1,60,0,0
1,60,99,47
1,67,0,0
1,65,99,47
1,60,0,0
1,65,0,47
1,67,99,1
1,67,0,47
1,60,99,3
1,67,99,47
1,60,0,0
1,72,99,48
1,67,0,0
1,60,99,47
1,72,0,0
1,67,99,47
1,60,0,0
1,72,99,49
1,67,0,0
1,60,99,46
1,72,0,0
1,67,99,48
1,60,0,0
1,72,99,49
1,67,0,0
1,67,99,47
1,72,0,0
1,60,99,47
1,67,0,0
1,72,99,48
1,60,0,0
1,67,99,47
1,72,0,0
1,60,99,48
1,67,0,0
1,72,99,50
1,60,0,0
1,67,99,45
1,72,0,0
1,60,99,47
1,67,0,0
1,72,99,48
1,60,0,0
1,67,99,47
1,72,0,0
1,60,99,49
1,67,0,0
1,72,99,47
1,60,0,0
1,67,99,47
1,72,0,0
1,60,99,47
1,67,0,0
1,72,99,47
1,60,0,0
1,67,99,49
1,72,0,0
1,60,99,46
1,67,0,0
1,72,99,48
1,60,0,0
1,67,99,48
1,72,0,0
1,60,99,47
1,67,0,0
1,72,99,47
1,60,0,0
1,67,99,48
1,72,0,0
1,60,99,47
1,67,0,0
1,72,99,49
1,60,0,0
1,71,99,46
1,72,0,0
1,67,99,48
1,71,0,0
1,62,99,47
1,67,0,0
1,72,99,49
1,62,0,0
1,71,99,46
1,72,0,0
1,67,99,48
1,71,0,0
1,62,99,47
1,67,0,0
1,72,99,53
1,62,0,0
1,67,99,44
1,72,0,0
1,60,99,48
1,67,0,0
1,72,99,47
1,60,0,0
1,67,99,49
1,72,0,0
1,60,99,46
1,67,0,0
1,72,99,48
1,60,0,0
1,67,99,47
1,72,0,0
1,60,99,47
1,67,0,0
1,72,99,47
1,60,0,0
1,67,99,48
1,72,0,0
1,60,99,49
1,67,0,0
1,72,99,46
1,60,0,0
1,67,99,48
1,72,0,0
1,60,99,47
1,67,0,0
1,72,99,49
1,60,0,0
1,67,99,47
1,72,0,0
1,60,99,47
1,67,0,0
1,72,99,47
1,60,0,0
1,60,99,48
1,72,0,0
1,67,99,48
1,60,0,0
1,60,99,47
1,67,0,0
1,65,99,47
1,60,0,0
1,67,99,48
1,65,0,0
1,60,99,49
1,67,0,0
1,79,99,47
1,60,0,0
1,77,99,48
1,79,0,0
1,76,99,47
1,77,0,0
1,74,99,48
1,76,0,0
1,72,99,47
1,74,0,0
1,71,99,48
1,72,0,0
1,69,99,47
1,71,0,0
1,71,99,48
1,69,0,0
1,74,99,48
1,71,0,0
1,71,99,48
1,74,0,0
1,79,99,47
1,71,0,0
1,79,0,83
1,78,99,12
1,78,0,83
1,74,99,10
1,74,0,85
1,76,99,11
1,76,0,84
1,71,99,11
1,71,0,84
1,72,99,11
1,72,0,48
1,74,99,3
1,74,0,80
1,76,99,17
1,76,0,34
1,76,99,12
1,76,0,36
1,76,99,10
1,76,0,37
1,76,99,10
1,76,0,36
1,76,99,12
1,76,0,83
1,76,99,12
1,76,0,35
1,76,99,12
1,76,0,37
1,76,99,11
1,74,99,47
1,76,0,0
1,78,99,96
1,74,0,0
1,71,99,238
1,78,0,0
1,74,99,49
1,71,0,0
1,71,99,47
1,74,0,0
1,79,99,47
1,71,0,0
1,79,0,83
1,78,99,12
1,78,0,83
1,74,99,12
1,74,0,82
1,76,99,13
1,76,0,82
1,71,99,12
1,71,0,83
1,72,99,12
1,74,99,49
1,72,0,0
1,74,0,83
1,79,99,13
1,79,0,129
1,79,99,12
1,79,0,83
1,79,99,12
1,74,99,146
1,79,0,0
1,74,0,127
1,74,99,12
1,74,0,83
1,74,99,12
1,60,99,144
1,74,0,0
1,60,0,18
