track,note,velocity,time
7,55,97,480
7,55,0,29
7,57,101,1
7,59,107,30
7,57,0,2
7,59,0,24
7,59,102,4
7,59,0,21
7,59,94,9
7,59,0,21
7,59,103,9
7,59,0,56
7,60,104,4
7,59,102,30
7,60,0,4
7,59,0,20
7,59,108,6
7,59,0,57
7,57,102,3
7,57,0,23
7,57,105,7
7,57,0,42
7,57,102,18
7,57,0,54
7,57,97,6
7,57,0,29
7,59,88,1
7,60,101,30
7,59,0,3
7,60,0,26
7,64,93,1
7,64,0,18
7,64,102,12
7,64,0,44
7,64,98,16
7,64,0,53
7,64,98,7
7,64,0,21
7,64,104,9
7,64,0,24
7,64,104,6
7,62,100,30
7,64,0,2
7,62,0,22
7,62,93,6
7,62,0,21
7,62,105,9
7,62,0,56
7,55,91,34
7,55,0,26
7,57,100,4
7,57,0,24
7,59,107,6
7,59,0,26
7,59,102,4
7,59,0,21
7,59,94,9
7,59,0,21
7,59,103,9
7,59,0,54
7,59,104,6
7,60,102,30
7,59,0,4
7,60,0,25
7,59,108,1
7,59,0,57
7,57,102,3
7,57,0,23
7,57,105,7
7,57,0,24
7,57,102,6
7,57,0,54
7,57,97,36
7,57,0,29
7,59,88,1
7,60,101,30
7,59,0,3
7,60,0,26
7,64,93,1
7,64,0,18
7,64,102,12
7,64,0,26
7,64,98,4
7,64,0,48
7,64,104,12
7,64,0,26
7,64,98,4
7,64,0,21
7,64,104,9
7,64,0,43
7,62,100,17
7,62,0,24
7,62,93,6
7,62,0,21
7,62,105,9
7,62,0,68
7,62,91,22
7,64,100,30
7,62,0,2
7,64,0,27
7,65,98,1
7,65,0,17
7,65,101,13
7,65,0,25
7,65,97,5
7,65,0,21
7,65,101,9
7,65,0,59
7,64,90,1
7,64,0,29
7,62,98,1
7,62,0,27
7,62,98,3
7,62,0,49
7,60,94,11
7,60,0,24
7,60,98,6
7,60,0,19
7,60,98,11
7,60,0,62
7,64,93,28
7,66,91,30
7,64,0,2
7,66,0,23
7,67,105,5
7,67,0,24
7,67,88,6
7,67,0,15
7,67,97,15
7,67,0,20
7,67,105,10
7,67,0,51
7,66,101,9
7,66,0,29
7,64,96,1
7,64,0,24
7,64,102,6
7,64,0,54
7,62,93,6
7,62,0,26
7,62,103,4
7,62,0,21
7,62,103,9
7,62,0,52
7,55,101,38
7,57,97,30
7,55,0,2
7,57,0,25
7,59,106,3
7,59,0,18
7,59,93,12
7,59,0,14
7,59,105,16
7,59,0,14
7,59,101,16
7,59,0,55
7,60,96,5
7,60,0,28
7,59,106,2
7,59,0,20
7,59,101,10
7,59,0,55
7,57,99,5
7,57,0,20
7,57,98,10
7,57,0,58
7,55,97,2
7,55,0,162
7,55,97,1698
7,55,0,29
7,57,101,1
7,59,107,30
7,57,0,2
7,59,0,24
7,59,102,4
7,59,0,21
7,59,94,9
7,59,0,21
7,59,103,9
7,59,0,56
7,60,104,4
7,59,102,30
7,60,0,4
7,59,0,20
7,59,108,6
7,59,0,57
7,57,102,3
7,57,0,23
7,57,105,7
7,57,0,42
7,57,102,18
7,57,0,54
7,57,97,6
7,57,0,29
7,59,88,1
7,60,101,30
7,59,0,3
7,60,0,26
7,64,93,1
7,64,0,18
7,64,102,12
7,64,0,22
7,64,98,8
7,64,0,53
7,64,98,7
7,64,0,21
7,64,104,9
7,64,0,24
7,64,104,6
7,64,0,51
7,62,100,9
7,62,0,24
7,62,93,6
7,62,0,21
7,62,105,9
7,62,0,56
7,55,91,34
7,55,0,26
7,57,100,4
7,57,0,24
7,59,107,6
7,59,0,26
7,59,102,4
7,59,0,21
7,59,94,9
7,59,0,21
7,59,103,9
7,59,0,54
7,59,104,6
7,60,102,30
7,59,0,4
7,60,0,25
7,59,108,1
7,59,0,57
7,57,102,3
7,57,0,23
7,57,105,7
7,57,0,24
7,57,102,6
7,57,0,54
7,57,97,36
7,57,0,29
7,59,88,1
7,60,101,30
7,59,0,3
7,60,0,26
7,64,93,1
7,64,0,18
7,64,102,12
7,64,0,26
7,64,98,4
7,64,0,48
7,64,104,12
7,64,0,26
7,64,98,4
7,64,0,21
7,64,104,9
7,64,0,43
7,62,100,17
7,62,0,24
7,62,93,6
7,62,0,21
7,62,105,9
7,62,0,68
7,62,91,22
7,64,100,30
7,62,0,2
7,64,0,27
7,65,98,1
7,65,0,17
7,65,101,13
7,65,0,25
7,65,97,5
7,65,0,21
7,65,101,9
7,65,0,59
7,64,90,1
7,64,0,29
7,62,98,1
7,62,0,27
7,62,98,3
7,62,0,49
7,60,94,11
7,60,0,24
7,60,98,6
7,60,0,19
7,60,98,11
7,60,0,62
7,64,93,28
7,66,91,30
7,64,0,2
7,66,0,23
7,67,105,5
7,67,0,24
7,67,88,6
7,67,0,15
7,67,97,15
7,67,0,20
7,67,105,10
7,67,0,51
7,66,101,9
7,66,0,29
7,64,96,1
7,64,0,24
7,64,102,6
7,64,0,54
7,62,93,6
7,62,0,26
7,62,103,4
7,62,0,21
7,62,103,9
7,62,0,52
7,55,101,38
7,57,97,30
7,55,0,2
7,57,0,25
7,59,106,3
7,59,0,24
7,59,93,6
7,59,0,24
7,59,105,6
7,59,0,24
7,59,101,6
7,59,0,55
7,60,96,5
7,60,0,28
7,59,106,2
7,59,0,20
7,59,101,10
7,59,0,55
7,57,99,5
7,57,0,20
7,57,98,10
7,57,0,58
7,55,97,2
7,55,0,162
7,57,87,858
7,57,0,22
7,57,99,8
7,57,0,17
7,57,97,13
7,57,0,42
7,57,95,18
7,57,0,57
7,58,96,3
7,58,0,41
7,58,97,19
7,58,0,22
7,58,97,8
7,58,0,85
7,58,85,39
7,62,98,26
7,58,0,1
7,62,0,45
7,62,86,14
7,62,0,25
7,62,97,5
7,62,0,44
7,62,97,16
7,62,0,74
7,62,97,16
7,60,90,60
7,62,0,2
7,60,0,42
7,60,97,16
7,60,0,63
7,60,90,27
7,60,0,25
7,60,101,5
7,60,0,73
7,60,94,17
7,60,0,16
7,60,103,14
7,60,0,53
7,60,89,37
7,60,0,22
7,60,102,8
7,58,94,60
7,60,0,5
7,58,0,99
7,57,89,16
7,57,0,24
7,57,95,6
7,57,0,24
7,57,100,6
7,57,0,87
7,55,93,3
7,55,0,24
7,55,97,6
7,55,0,139
7,59,98,251
7,59,0,24
7,59,88,6
7,59,0,24
7,59,98,6
7,59,0,13
7,59,94,17
7,59,0,45
7,59,95,15
7,59,0,59
7,60,101,1
7,60,0,54
7,60,85,6
7,60,0,21
7,60,100,9
7,60,0,88
7,55,89,32
7,55,0,28
7,64,98,2
7,64,0,46
7,64,94,14
7,64,0,40
7,64,100,20
7,64,0,48
7,64,91,12
7,64,0,41
7,64,100,19
7,64,0,57
7,62,101,3
7,62,0,24
7,62,97,6
7,62,0,72
7,62,97,48
7,62,0,22
7,62,106,8
7,62,0,54
7,62,94,6
7,62,0,19
7,62,104,11
7,62,0,70
7,62,97,20
7,62,0,47
7,62,104,13
7,62,0,76
7,60,89,14
7,60,0,10
7,60,102,20
7,60,0,57
7,59,98,3
7,59,0,19
7,59,97,11
7,59,0,27
7,57,101,3
7,57,0,47
7,57,98,13
7,57,0,20
7,57,97,10
7,57,0,140
7,62,88,250
7,57,73,0
7,62,0,293
7,57,0,6
7,57,94,118
7,59,104,30
7,57,0,2
7,59,0,46
7,59,94,15
7,59,0,21
7,59,103,9
7,59,0,27
7,59,103,3
7,59,0,44
7,60,104,16
7,59,102,30
7,60,0,2
7,59,0,22
7,59,108,6
7,59,0,57
7,57,102,0
7,57,0,23
7,57,105,10
7,57,0,48
7,57,102,12
7,57,0,37
7,57,97,23
7,57,0,29
7,59,88,1
7,60,101,30
7,59,0,3
7,60,0,26
7,64,93,1
7,64,0,18
7,64,102,12
7,64,0,22
7,64,98,8
7,64,0,53
7,64,98,7
7,64,0,21
7,64,104,9
7,64,0,24
7,64,104,6
7,64,0,51
7,62,100,9
7,62,0,24
7,62,93,6
7,62,0,21
7,62,105,9
7,62,0,56
7,55,91,34
7,55,0,26
7,57,100,4
7,57,0,24
7,59,107,6
7,59,0,26
7,59,102,4
7,59,0,21
7,59,94,9
7,59,0,21
7,59,103,9
7,59,0,54
7,59,104,6
7,60,102,30
7,59,0,4
7,60,0,25
7,59,108,1
7,59,0,57
7,57,102,3
7,57,0,23
7,57,105,7
7,57,0,24
7,57,102,6
7,57,0,54
7,57,97,36
7,57,0,29
7,59,88,1
7,60,101,30
7,59,0,3
7,60,0,26
7,64,93,1
7,64,0,18
7,64,102,12
7,64,0,26
7,64,98,4
7,64,0,48
7,64,104,12
7,64,0,26
7,64,98,4
7,64,0,21
7,64,104,9
7,64,0,43
7,62,100,17
7,62,0,24
7,62,93,6
7,62,0,21
7,62,105,9
7,62,0,68
7,62,91,22
7,64,100,30
7,62,0,2
7,64,0,27
7,65,98,1
7,65,0,17
7,65,101,13
7,65,0,25
7,65,97,5
7,65,0,21
7,65,101,9
7,65,0,59
7,64,90,1
7,64,0,29
7,62,98,1
7,62,0,27
7,62,98,3
7,62,0,49
7,60,94,11
7,60,0,24
7,60,98,6
7,60,0,19
7,60,98,11
7,60,0,62
7,64,93,28
7,66,91,30
7,64,0,2
7,66,0,23
7,67,105,5
7,67,0,24
7,67,88,6
7,67,0,15
7,67,97,15
7,67,0,20
7,67,105,10
7,67,0,51
7,66,101,9
7,66,0,29
7,64,96,1
7,64,0,24
7,64,102,6
7,64,0,54
7,62,93,6
7,62,0,26
7,62,103,4
7,62,0,21
7,62,103,9
7,62,0,52
7,55,101,38
7,57,97,30
7,55,0,2
7,57,0,25
7,59,106,3
7,59,0,24
7,59,93,6
7,59,0,24
7,59,105,6
7,59,0,24
7,59,101,6
7,59,0,55
7,60,96,5
7,60,0,28
7,59,106,2
7,59,0,20
7,59,101,10
7,59,0,55
7,57,99,5
7,57,0,20
7,57,98,10
7,57,0,58
7,55,97,2
7,55,0,162
7,55,97,5058
7,55,0,29
7,57,101,1
7,59,107,30
7,57,0,2
7,59,0,24
7,59,102,4
7,59,0,21
7,59,94,9
7,59,0,21
7,59,103,9
7,59,0,56
7,60,104,4
7,59,102,30
7,60,0,4
7,59,0,20
7,59,108,6
7,59,0,57
7,57,102,3
7,57,0,23
7,57,105,7
7,57,0,42
7,57,102,18
7,57,0,54
7,57,97,6
7,57,0,29
7,59,88,1
7,60,101,30
7,59,0,3
7,60,0,26
7,64,93,1
7,64,0,18
7,64,102,12
7,64,0,22
7,64,98,8
7,64,0,53
7,64,98,7
7,64,0,21
7,64,104,9
7,64,0,24
7,64,104,6
7,64,0,51
7,62,100,9
7,62,0,24
7,62,93,6
7,62,0,21
7,62,105,9
7,62,0,56
7,55,91,34
7,55,0,26
7,57,100,4
7,57,0,24
7,59,107,6
7,59,0,26
7,59,102,4
7,59,0,21
7,59,94,9
7,59,0,21
7,59,103,9
7,59,0,54
7,59,104,6
7,60,102,30
7,59,0,4
7,60,0,25
7,59,108,1
7,59,0,57
7,57,102,3
7,57,0,23
7,57,105,7
7,57,0,24
7,57,102,6
7,57,0,54
7,57,97,36
7,57,0,29
7,59,88,1
7,60,101,30
7,59,0,3
7,60,0,26
7,64,93,1
7,64,0,18
7,64,102,12
7,64,0,26
7,64,98,4
7,64,0,48
7,64,104,12
7,64,0,26
7,64,98,4
7,64,0,21
7,64,104,9
7,64,0,43
7,62,100,17
7,62,0,24
7,62,93,6
7,62,0,21
7,62,105,9
7,62,0,68
7,62,91,22
7,64,100,30
7,62,0,2
7,64,0,27
7,65,98,1
7,65,0,17
7,65,101,13
7,65,0,25
7,65,97,5
7,65,0,21
7,65,101,9
7,65,0,59
7,64,90,1
7,64,0,29
7,62,98,1
7,62,0,27
7,62,98,3
7,62,0,49
7,60,94,11
7,60,0,24
7,60,98,6
7,60,0,19
7,60,98,11
7,60,0,62
7,64,93,28
7,66,91,30
7,64,0,2
7,66,0,23
7,67,105,5
7,67,0,24
7,67,88,6
7,67,0,15
7,67,97,15
7,67,0,20
7,67,105,10
7,67,0,51
7,66,101,9
7,66,0,29
7,64,96,1
7,64,0,24
7,64,102,6
7,64,0,54
7,62,93,6
7,62,0,26
7,62,103,4
7,62,0,21
7,62,103,9
7,62,0,52
7,55,101,38
7,57,97,30
7,55,0,2
7,57,0,25
7,59,106,3
7,59,0,24
7,59,93,6
7,59,0,24
7,59,105,6
7,59,0,24
7,59,101,6
7,59,0,55
7,60,96,5
7,60,0,28
7,59,106,2
7,59,0,20
7,59,101,10
7,59,0,55
7,57,99,5
7,57,0,20
7,57,98,10
7,57,0,58
7,55,97,2
7,55,0,162
8,59,70,21911
8,59,0,29
8,60,74,1
8,62,80,30
8,60,0,2
8,62,0,24
8,62,75,4
8,62,0,21
8,62,67,9
8,62,0,21
8,62,76,9
8,62,0,56
8,64,77,4
8,62,75,30
8,64,0,4
8,62,0,20
8,62,81,6
8,62,0,57
8,60,75,3
8,60,0,23
8,60,78,7
8,60,0,42
8,60,75,18
8,60,0,54
8,60,70,6
8,60,0,29
8,64,61,1
8,64,0,25
8,64,74,5
8,64,0,29
8,67,66,1
8,67,0,25
8,67,75,5
8,67,0,44
8,67,71,16
8,67,0,53
8,67,71,7
8,67,0,21
8,67,77,9
8,67,0,17
8,67,77,13
8,66,73,30
8,67,0,2
8,66,0,22
8,66,66,6
8,66,0,21
8,66,78,9
8,66,0,56
8,59,64,34
8,59,0,26
8,60,73,4
8,60,0,24
8,62,80,6
8,62,0,26
8,62,75,4
8,62,0,21
8,62,67,9
8,62,0,21
8,62,76,9
8,62,0,54
8,62,77,6
8,64,75,30
8,62,0,4
8,64,0,25
8,62,81,1
8,62,0,57
8,60,75,3
8,60,0,23
8,60,78,7
8,60,0,24
8,60,75,6
8,60,0,54
8,60,70,36
8,60,0,29
8,62,61,1
8,64,74,30
8,62,0,3
8,64,0,26
8,67,66,1
8,67,0,18
8,67,75,12
8,67,0,26
8,67,71,4
8,67,0,48
8,67,77,12
8,67,0,26
8,67,71,4
8,67,0,21
8,67,77,9
8,67,0,43
8,66,73,17
8,66,0,24
8,66,66,6
8,66,0,21
8,66,78,9
8,66,0,68
8,65,64,22
8,67,73,30
8,65,0,2
8,67,0,27
8,69,71,1
8,69,0,17
8,69,74,13
8,69,0,25
8,69,70,5
8,69,0,21
8,69,74,9
8,69,0,59
8,67,63,1
8,67,0,29
8,65,71,1
8,65,0,27
8,65,71,3
8,65,0,49
8,64,67,11
8,64,0,24
8,64,71,6
8,64,0,19
8,64,71,11
8,64,0,62
8,67,66,28
8,69,64,30
8,67,0,2
8,69,0,23
8,71,78,5
8,71,0,24
8,71,61,6
8,71,0,15
8,71,70,15
8,71,0,20
8,71,78,10
8,71,0,51
8,69,74,9
8,69,0,29
8,67,69,1
8,67,0,24
8,67,75,6
8,67,0,54
8,66,66,6
8,66,0,26
8,66,76,4
8,66,0,21
8,66,76,9
8,66,0,52
8,59,74,38
8,60,70,30
8,59,0,2
8,60,0,25
8,62,79,3
8,62,0,22
8,62,66,8
8,62,0,14
8,62,78,16
8,62,0,14
8,62,74,16
8,62,0,55
8,64,69,5
8,64,0,28
8,62,79,2
8,62,0,20
8,62,74,10
8,62,0,55
8,62,72,5
8,62,0,20
8,62,71,10
8,62,0,58
8,59,70,2
8,59,0,162
8,59,70,1698
8,59,0,29
8,60,74,1
8,62,80,30
8,60,0,2
8,62,0,24
8,62,75,4
8,62,0,21
8,62,67,9
8,62,0,21
8,62,76,9
8,62,0,56
8,64,77,4
8,62,75,30
8,64,0,4
8,62,0,20
8,62,81,6
8,62,0,57
8,60,75,3
8,60,0,23
8,60,78,7
8,60,0,42
8,60,75,18
8,60,0,54
8,60,70,6
8,60,0,29
8,64,61,1
8,64,0,25
8,64,74,5
8,64,0,29
8,67,66,1
8,67,0,25
8,67,75,5
8,67,0,23
8,67,71,7
8,67,0,53
8,67,71,7
8,67,0,21
8,67,77,9
8,67,0,17
8,67,77,13
8,67,0,50
8,66,73,10
8,66,0,24
8,66,66,6
8,66,0,21
