track,note,velocity,time
1,28,120,6720
1,33,124,36
1,33,114,94
1,33,120,148
1,33,120,102
1,33,114,72
1,33,120,148
1,33,120,78
1,33,117,174
1,33,114,140
1,33,117,96
1,33,110,110
1,33,114,174
1,33,124,148
1,33,117,160
1,33,117,160
1,33,120,88
1,33,110,138
1,33,117,154
1,28,110,10
1,31,120,0
1,33,117,20
1,33,117,84
1,33,117,160
1,33,114,160
1,33,120,152
1,33,117,144
1,33,120,132
1,38,117,196
1,39,101,174
1,40,117,4
1,28,114,80
1,28,107,164
1,28,104,154
1,28,114,138
1,28,104,138
1,28,107,154
1,38,117,8
1,35,117,148
1,35,114,192
1,35,114,122
1,35,110,170
1,35,114,122
1,35,104,170
1,35,114,122
1,35,120,26
1,33,117,100
1,31,124,72
1,31,110,168
1,31,120,122
1,31,110,144
1,31,120,118
1,31,124,154
1,31,120,118
1,31,117,30
1,28,114,80
1,28,110,168
1,28,114,122
1,28,107,128
1,28,114,122
1,28,114,168
1,28,114,122
1,28,107,148
1,33,120,96
1,33,117,126
1,33,120,122
1,33,117,154
1,33,117,118
1,33,117,136
1,33,120,118
1,28,104,26
1,31,120,192
1,33,120,20
1,33,120,26
1,33,117,174
1,33,114,140
1,33,117,96
1,33,110,110
1,33,114,174
1,33,124,148
1,33,117,160
1,33,117,160
1,33,120,88
1,33,110,138
1,33,117,154
1,28,110,10
1,31,120,0
1,33,117,20
1,33,117,84
1,33,117,160
1,33,114,160
1,33,120,152
1,33,117,144
1,33,120,132
1,38,117,196
1,39,101,174
1,40,117,4
1,28,114,80
1,28,107,164
1,28,104,154
1,28,114,138
1,28,104,138
1,28,107,154
1,38,117,8
1,35,117,148
1,35,114,192
1,35,114,122
1,35,110,170
1,35,114,122
1,35,104,170
1,35,114,122
1,35,120,26
1,33,117,100
1,31,124,72
1,31,110,168
1,31,120,122
1,31,110,144
1,31,120,118
1,31,124,154
1,31,120,118
1,31,117,30
1,28,114,80
1,28,110,168
1,28,114,122
1,28,107,128
1,28,114,122
1,28,114,168
1,28,114,122
1,28,107,148
1,33,120,96
1,33,117,126
1,33,120,122
1,33,117,154
1,33,117,118
1,28,114,1352
1,28,110,42
1,32,117,72
1,28,110,38
1,35,117,68
1,28,110,48
1,32,120,58
1,35,117,32
1,28,114,62
1,33,117,1304
1,33,114,70
1,37,120,64
1,33,117,14
1,28,107,48
1,28,110,32
1,31,124,30
1,28,110,10
1,33,120,36
1,40,120,1332
1,40,124,222
1,40,124,112
1,40,117,106
1,38,124,112
1,38,120,142
1,38,120,128
1,38,117,106
1,30,117,136
1,30,120,154
1,30,117,132
1,30,114,128
1,33,124,116
1,28,117,1300
1,28,107,46
1,32,120,90
1,28,117,48
1,35,117,64
1,28,110,62
1,32,120,56
1,35,120,52
1,28,110,60
1,33,120,1310
1,33,117,80
1,37,110,52
1,33,120,58
1,28,117,62
1,28,110,58
1,31,120,32
1,28,114,20
1,33,124,58
1,38,120,170
1,38,114,148
1,38,117,132
1,38,117,84
1,40,120,118
1,40,120,102
1,40,124,122
1,40,127,138
1,33,124,30
1,33,114,94
1,33,120,148
1,33,120,102
1,33,114,72
1,33,120,148
1,33,124,78
1,33,114,94
1,33,120,148
1,33,120,102
1,33,114,72
1,28,120,148
1,28,120,16
1,31,120,16
1,33,120,16
1,33,120,16
1,33,117,174
1,33,114,140
1,33,117,96
1,33,110,110
1,33,114,174
1,33,124,148
1,33,117,160
1,33,117,160
1,33,120,88
1,33,110,138
1,33,117,154
1,28,110,10
1,31,120,0
1,33,117,20
1,33,117,84
1,33,117,160
1,33,114,160
1,33,120,152
1,37,120,0
1,38,124,192
1,39,124,148
1,40,124,110
1,28,114,42
1,28,107,164
1,28,104,154
1,28,114,138
1,28,104,138
1,28,107,154
1,38,117,8
1,35,124,150
1,35,117,138
1,42,120,92
1,42,114,80
1,47,117,96
1,42,117,88
1,47,124,116
1,45,124,74
1,43,127,80
1,43,120,94
1,38,124,102
1,38,114,52
1,31,120,106
1,31,117,112
1,43,124,90
1,42,120,96
1,40,120,100
1,40,120,64
1,35,124,106
1,35,124,100
1,28,114,72
1,28,110,136
1,28,117,132
1,31,120,48
1,32,124,52
1,33,124,94
1,33,117,104
1,33,120,122
1,33,117,154
1,33,117,118
1,33,117,136
1,33,120,118
1,28,104,26
1,31,120,192
1,33,120,20
1,33,120,26
1,33,117,174
1,33,114,140
1,33,117,96
1,33,110,110
1,33,114,174
1,33,124,148
1,33,117,160
1,33,117,160
1,33,120,88
1,33,110,138
1,33,117,154
1,28,110,10
1,31,120,0
1,33,117,20
1,33,117,84
1,33,117,160
1,33,114,160
1,33,120,152
1,33,117,144
1,33,120,132
1,38,117,196
1,39,101,174
1,40,117,4
1,28,114,80
1,28,107,164
1,28,104,154
1,28,114,138
1,28,104,138
1,28,107,154
1,38,117,8
1,35,124,150
1,35,117,138
1,42,120,92
1,42,114,80
1,47,117,96
1,42,117,88
1,47,124,116
1,45,124,74
1,43,127,80
1,43,120,94
1,38,124,102
1,38,114,52
1,31,120,106
1,31,117,112
1,43,124,90
1,42,120,96
1,40,120,100
1,40,120,64
1,35,124,106
1,35,124,100
1,28,114,72
1,28,110,136
1,28,117,132
1,31,120,48
1,32,124,52
1,33,120,94
1,33,117,122
1,33,120,122
1,33,117,154
1,33,117,118
1,28,114,1348
1,28,110,42
1,32,117,72
1,28,110,38
1,35,117,68
1,28,110,48
1,32,120,58
1,35,117,32
1,28,114,62
1,33,117,1304
1,33,114,70
1,37,120,64
1,33,117,14
1,28,107,48
1,28,110,32
1,31,124,30
1,28,110,10
1,33,120,36
1,40,120,1332
1,40,124,222
1,40,124,112
1,40,117,106
1,38,124,112
1,38,120,142
1,38,120,128
1,38,117,106
1,30,117,136
1,30,120,154
1,30,117,132
1,30,114,128
1,33,124,116
1,28,117,1300
1,28,107,46
1,32,120,90
1,28,117,48
1,35,117,64
1,28,110,62
1,32,120,56
1,35,120,52
1,28,110,60
1,33,120,1310
1,33,117,80
1,37,110,52
1,33,120,58
1,28,117,62
1,28,110,58
1,31,120,32
1,28,114,20
1,33,124,58
1,38,120,176
1,38,114,140
1,38,117,132
1,38,117,84
1,40,120,118
1,40,120,102
1,40,124,122
1,40,127,138
1,33,124,30
1,33,114,94
1,33,120,148
1,33,120,102
1,33,114,72
1,33,120,148
1,33,120,78
1,33,117,174
1,33,114,140
1,33,117,96
1,33,110,110
1,33,114,174
1,33,124,148
1,33,117,160
1,33,117,160
1,33,120,88
1,33,110,138
1,33,117,154
1,28,110,10
1,31,120,0
1,33,117,20
1,33,117,84
1,33,117,160
1,33,114,160
1,33,120,152
1,33,117,144
1,33,120,132
1,38,117,196
1,39,101,174
1,40,117,4
1,28,114,80
1,28,107,164
1,28,104,154
1,28,114,138
1,28,104,138
1,28,107,154
1,38,117,8
1,35,124,150
1,35,117,138
1,42,120,92
1,42,114,80
1,47,117,96
1,42,117,88
1,47,124,116
1,45,124,74
1,43,127,80
1,43,120,94
1,38,124,102
1,38,114,52
1,31,120,106
1,31,117,112
1,43,124,90
1,42,120,96
1,40,120,100
1,40,120,64
1,35,124,106
1,35,124,100
1,28,114,72
1,28,110,136
1,28,117,132
1,31,120,48
1,32,124,52
1,33,120,94
1,33,117,122
1,33,120,122
1,33,117,154
1,33,117,118
1,28,114,1096
1,28,110,42
1,32,117,72
1,28,110,38
1,35,117,68
1,28,110,48
1,32,120,58
1,35,117,32
1,28,114,62
1,33,117,1304
1,33,114,70
1,37,120,64
1,33,117,14
1,28,107,48
1,28,110,32
1,31,124,30
1,28,110,10
1,33,120,36
1,40,120,1332
1,40,124,222
1,40,124,112
1,40,117,106
1,38,124,112
1,38,120,142
1,38,120,128
1,38,117,106
1,30,117,136
1,30,120,154
1,30,117,132
1,30,114,128
1,33,124,116
1,28,117,1300
1,28,107,46
1,32,120,90
1,28,117,48
1,35,117,64
1,28,110,62
1,32,120,56
1,35,120,52
1,28,110,60
1,33,120,1310
1,33,117,80
1,37,110,52
1,33,120,58
1,28,117,62
1,28,110,58
1,31,120,32
1,28,114,20
1,33,124,58
1,38,120,176
1,38,114,140
1,38,117,132
1,38,117,84
1,40,120,118
1,40,120,102
1,40,124,122
1,40,127,138
1,33,117,30
1,33,110,96
1,33,114,118
1,33,114,90
1,33,117,112
1,33,114,106
1,33,117,92
1,33,117,84
1,33,120,80
1,33,114,84
1,33,117,100
1,33,120,90
1,33,120,96
1,33,120,96
1,33,120,104
1,33,120,106
1,33,117,16
1,33,110,96
1,33,114,118
1,33,114,90
1,33,117,112
1,33,114,106
1,33,117,92
1,33,117,84
1,33,120,80
1,33,114,84
1,33,117,100
1,33,120,90
1,33,120,96
1,33,120,96
1,33,120,104
1,33,120,106
1,33,117,88
1,33,110,96
1,33,114,118
1,33,114,90
1,33,117,112
1,33,114,106
1,33,117,92
1,33,117,84
1,33,120,80
1,33,114,84
1,33,117,100
1,33,120,90
1,33,120,96
1,33,120,96
1,33,120,104
1,33,120,106
1,33,117,88
1,33,110,96
1,33,114,118
1,33,114,90
1,33,117,112
1,33,114,106
1,33,117,92
1,33,117,84
1,33,120,80
1,33,114,84
1,33,117,100
1,33,120,90
1,33,120,96
1,33,120,96
1,33,120,104
1,33,120,106
1,33,120,94
1,33,114,154
2,69,124,172608
2,71,124,36
2,74,117,72
2,74,120,104
2,74,114,44
2,74,120,128
2,74,117,100
2,74,114,112
2,74,114,116
2,76,117,116
2,74,107,84
2,74,120,96
2,69,120,46
2,71,120,48
2,74,117,72
2,74,120,84
2,74,110,62
2,74,120,128
2,74,110,90
2,74,110,112
2,74,114,96
2,76,114,92
2,74,104,84
2,71,124,74
2,74,114,42
2,76,124,74
2,76,120,102
2,76,114,42
2,76,120,128
2,76,117,42
2,76,114,74
2,76,117,74
2,76,120,46
2,81,124,50
2,78,117,4
2,76,117,10
2,71,114,20
2,69,114,12
2,66,117,12
2,69,120,56
3,69,124,1152
3,79,120,384
3,78,124,106
3,74,124,112
3,76,124,6
3,69,124,72
3,79,124,144
3,78,120,88
3,74,124,84
3,76,120,30
3,69,120,384
3,79,120,202
3,78,117,62
3,74,124,40
3,76,127,14
3,69,124,276
3,79,120,42
3,78,120,56
3,74,124,90
3,76,124,14
3,69,120,136
3,79,120,208
3,78,117,62
3,74,124,40
3,76,127,14
3,69,124,282
3,79,120,58
3,78,120,40
3,74,124,90
3,76,124,14
3,57,107,214
3,64,110,0
3,57,107,82
3,64,104,6
3,64,90,308
3,74,114,192
3,73,104,38
3,69,120,52
3,71,117,6
3,64,110,10
3,74,117,192
3,59,120,328
3,66,117,0
3,55,120,84
3,62,114,0
3,52,120,100
3,59,124,0
3,69,124,180
3,79,117,384
3,78,114,12
3,74,124,74
3,76,124,10
3,69,120,356
3,79,124,168
3,78,114,26
3,74,120,22
3,76,120,0
3,57,107,218
3,64,110,6
3,57,107,82
3,64,104,6
3,64,90,308
3,74,114,192
3,73,104,38
3,69,120,52
3,71,117,6
3,64,110,10
3,74,117,192
3,59,120,328
3,66,117,0
3,55,120,84
3,62,114,0
3,52,120,100
3,59,124,0
3,64,124,180
3,57,124,0
3,57,110,84
3,64,104,0
3,52,120,1350
3,52,120,90
3,55,124,74
3,56,117,78
3,59,120,80
3,52,120,56
3,61,120,68
3,59,120,80
3,52,120,78
3,57,120,1316
3,57,114,100
3,60,124,80
3,61,117,76
3,64,120,96
3,57,117,62
3,60,124,72
3,61,117,74
3,57,124,76
3,64,120,1280
3,71,120,0
3,64,117,32
3,71,117,0
3,69,120,110
3,62,110,0
3,69,120,66
3,62,107,0
3,54,117,150
3,61,120,0
3,54,114,58
3,61,110,2
3,64,117,52
3,57,114,0
3,52,120,1312
3,52,120,94
3,55,127,80
3,56,117,74
3,59,124,84
3,52,117,64
3,61,120,64
3,59,117,72
3,52,120,72
3,57,120,1344
3,57,120,104
3,60,124,64
3,61,114,76
3,64,120,62
3,57,117,64
3,66,117,64
3,64,110,78
3,69,120,62
3,57,120,36
3,60,127,48
3,61,114,192
3,64,117,70
3,57,124,26
3,60,127,76
3,61,120,40
3,62,114,106
3,69,124,0
3,69,110,62
3,62,110,0
3,64,117,80
3,71,124,0
3,71,107,26
3,64,107,0
3,69,124,122
3,79,120,384
3,78,124,106
3,74,124,112
3,76,124,6
3,69,124,72
3,79,124,144
3,78,120,88
3,74,124,84
3,76,120,30
3,69,120,384
3,79,120,202
3,78,117,62
3,74,124,40
3,76,127,14
3,69,124,276
3,79,120,42
3,78,120,56
3,74,124,90
3,76,124,14
3,57,107,214
3,64,110,0
3,57,107,82
3,64,104,6
3,64,90,308
3,74,114,192
3,73,104,38
3,69,120,52
3,71,117,6
3,64,110,10
3,74,117,192
3,59,120,328
3,66,117,0
3,55,120,84
3,62,114,0
3,52,120,100
3,59,124,0
3,69,124,180
3,79,117,384
3,78,114,12
3,74,124,74
3,76,124,10
3,69,120,356
3,79,124,168
3,78,114,26
3,74,120,22
3,76,120,0
3,57,107,218
3,64,110,6
3,57,107,82
3,64,104,6
3,64,90,308
3,74,114,192
3,73,104,38
3,69,120,52
3,71,117,6
3,64,110,10
3,74,117,192
3,59,120,328
3,66,117,0
3,55,120,84
3,62,114,0
3,52,120,100
3,59,124,0
3,64,124,180
3,57,124,0
3,57,110,84
3,64,104,0
3,52,120,1350
3,52,120,90
3,55,124,74
3,56,117,78
3,59,120,80
3,52,120,56
3,61,120,68
3,59,120,80
3,52,120,78
3,57,120,1316
3,57,114,100
3,60,124,80
3,61,117,76
3,64,120,96
3,57,117,62
3,60,124,72
3,61,117,74
3,57,124,76
3,64,120,1280
3,71,120,0
3,64,117,32
3,71,117,0
3,69,120,110
3,62,110,0
3,69,120,66
3,62,107,0
3,54,117,150
3,61,120,0
3,54,114,58
3,61,110,2
3,64,117,52
3,57,114,0
3,52,120,1312
3,52,120,94
3,55,127,80
3,56,117,74
3,59,124,84
3,52,117,64
3,61,120,64
3,59,117,72
3,52,120,72
3,57,120,1344
3,57,120,104
3,60,124,64
3,61,114,76
3,64,120,62
3,57,117,64
3,66,117,64
3,64,110,78
3,69,120,62
3,57,120,36
3,60,127,48
3,61,114,192
3,64,117,70
3,57,124,26
3,60,127,76
3,61,120,40
3,62,114,106
3,69,124,0
3,69,110,62
3,62,110,0
3,64,117,80
3,71,124,0
3,71,107,26
3,64,107,0
3,69,124,122
3,79,120,384
3,78,124,106
3,74,124,112
3,76,124,6
3,69,124,72
3,79,124,144
3,78,120,88
3,74,124,84
3,76,120,30
3,59,120,12296
3,66,117,0
3,55,120,84
3,62,114,0
3,52,120,100
3,59,124,0
3,64,124,180
3,57,124,0
3,57,110,84
3,64,104,0
3,52,120,1350
3,52,120,90
3,55,124,74
3,56,117,78
3,59,120,80
3,52,120,56
3,61,120,68
3,59,120,80
3,52,120,78
3,57,120,1316
3,57,114,100
3,60,124,80
3,61,117,76
3,64,120,96
3,57,117,62
3,60,124,72
3,61,117,74
3,57,124,76
3,64,120,1280
3,71,120,0
3,64,117,32
3,71,117,0
3,69,120,110
3,62,110,0
3,69,120,66
3,62,107,0
3,54,117,150
3,61,120,0
3,54,114,58
3,61,110,2
3,64,117,52
3,57,114,0
3,52,120,1312
3,52,120,94
3,55,127,80
3,56,117,74
3,59,124,84
3,52,117,64
3,61,120,64
3,59,117,72
3,52,120,72
3,57,120,1344
3,57,120,104
3,60,124,64
3,61,114,76
3,64,120,62
3,57,117,64
3,66,117,64
3,64,110,78
3,69,120,62
3,57,120,36
3,60,127,48
3,61,114,192
3,64,117,70
3,57,124,26
3,60,127,76
3,61,120,40
3,62,114,106
3,69,124,0
3,69,110,62
3,62,110,0
3,64,117,80
3,71,124,0
3,71,107,26
3,64,107,0
3,69,124,122
3,79,120,384
3,78,124,106
3,74,124,112
3,76,124,6
3,69,124,72
3,79,124,144
3,78,120,88
3,74,124,84
3,76,120,30
3,69,124,186
3,79,120,384
3,78,124,106
3,74,124,112
3,76,124,6
3,69,124,72
3,79,124,144
3,78,120,88
3,74,124,84
3,76,120,30
