track,note,velocity,time
1,75,100,5256
1,75,0,24
1,77,100,0
1,77,0,48
1,77,100,0
1,77,0,24
1,77,100,0
1,77,0,24
1,75,100,72
1,75,0,24
1,77,100,0
1,77,0,48
1,77,100,0
1,77,0,24
1,77,100,0
1,77,0,24
1,72,100,72
1,72,0,24
1,74,100,0
1,74,0,48
1,74,100,0
1,74,0,48
1,72,100,0
1,72,0,48
1,74,100,0
1,74,0,24
1,72,100,0
1,72,0,24
1,70,100,0
1,70,0,96
1,72,100,72
1,72,0,24
1,74,100,0
1,74,0,24
1,75,100,0
1,75,0,24
1,75,100,0
1,75,0,48
1,75,100,0
1,75,0,48
1,72,100,0
1,72,0,24
1,72,100,0
1,72,0,24
1,74,100,0
1,74,0,48
1,74,100,0
1,74,0,24
1,74,100,0
1,74,0,72
1,67,100,0
1,67,0,24
1,67,100,0
1,67,0,24
1,67,100,0
1,67,0,72
1,65,100,0
1,65,0,24
1,74,100,0
1,74,0,72
1,72,100,0
1,72,0,24
1,72,100,0
1,72,0,96
1,72,100,24
1,72,0,24
1,74,100,0
1,74,0,24
1,77,100,0
1,77,0,72
1,72,100,72
1,72,0,24
1,74,100,0
1,74,0,24
1,77,100,0
1,77,0,72
1,72,100,96
1,72,0,24
1,74,100,0
1,74,0,24
1,74,100,0
1,74,0,48
1,74,100,0
1,74,0,48
1,77,100,0
1,77,0,72
1,72,100,0
1,72,0,24
1,74,100,0
1,74,0,24
1,72,100,0
1,72,0,24
1,70,100,0
1,70,0,96
1,74,100,0
1,74,0,24
1,74,100,0
1,74,0,24
1,75,100,0
1,75,0,48
1,75,100,0
1,75,0,48
1,75,100,0
1,75,0,24
1,74,100,0
1,74,0,24
1,74,100,0
1,74,0,24
1,74,100,0
1,74,0,24
1,74,100,0
1,74,0,48
1,77,100,0
1,77,0,48
1,77,100,0
1,77,0,24
1,69,100,0
1,69,0,24
1,69,100,0
1,69,0,24
1,69,100,0
1,69,0,24
1,67,100,0
1,67,0,48
1,65,100,0
1,65,0,48
1,74,100,0
1,74,0,72
1,72,100,0
1,72,0,24
1,72,100,0
1,72,0,192
1,79,100,96
1,79,0,48
1,77,100,0
1,77,0,24
1,77,100,0
1,77,0,72
1,74,100,0
1,74,0,24
1,74,100,0
1,74,0,72
1,65,100,0
1,65,0,48
1,67,100,0
1,67,0,48
1,67,100,0
1,67,0,336
1,79,100,96
1,79,0,48
1,77,100,0
1,77,0,48
1,77,100,0
1,77,0,24
1,74,100,0
1,74,0,72
1,69,100,0
1,69,0,48
1,65,100,0
1,65,0,24
1,67,100,0
1,67,0,312
1,77,100,192
1,77,0,48
1,74,100,0
1,74,0,48
1,74,100,0
1,74,0,48
1,72,100,0
1,72,0,48
1,69,100,0
1,69,0,48
1,65,100,0
1,65,0,48
1,67,100,0
1,67,0,48
1,67,100,0
1,67,0,336
1,79,100,96
1,79,0,24
1,77,100,0
1,77,0,72
1,77,100,0
1,77,0,24
1,74,100,0
1,74,0,72
1,67,100,0
1,67,0,48
1,65,100,0
1,65,0,24
1,67,100,0
1,67,0,216
1,72,100,24
1,72,0,24
1,74,100,0
1,74,0,48
1,74,100,0
1,74,0,48
1,69,100,0
1,69,0,24
1,72,100,0
1,72,0,408
1,63,100,360
1,63,0,24
1,77,100,0
1,77,0,48
1,77,100,0
1,77,0,24
1,77,100,0
1,77,0,24
1,75,100,72
1,75,0,24
1,77,100,0
1,77,0,48
1,77,100,0
1,77,0,24
1,77,100,0
1,77,0,24
1,72,100,72
1,72,0,24
1,74,100,0
1,74,0,48
1,74,100,0
1,74,0,48
1,72,100,0
1,72,0,48
1,74,100,0
1,74,0,24
1,72,100,0
1,72,0,24
1,70,100,0
1,70,0,96
1,72,100,72
1,72,0,24
1,74,100,0
1,74,0,24
1,75,100,0
1,75,0,24
1,75,100,0
1,75,0,48
1,75,100,0
1,75,0,48
1,72,100,0
1,72,0,24
1,72,100,0
1,72,0,24
1,74,100,0
1,74,0,48
1,74,100,0
1,74,0,24
1,74,100,0
1,74,0,72
1,67,100,0
1,67,0,24
1,67,100,0
1,67,0,24
1,67,100,0
1,67,0,72
1,65,100,0
1,65,0,24
1,74,100,0
1,74,0,72
1,72,100,0
1,72,0,24
1,72,100,0
1,72,0,96
1,72,100,24
1,72,0,24
1,74,100,0
1,74,0,24
1,77,100,0
1,77,0,72
1,72,100,72
1,72,0,24
1,74,100,0
1,74,0,24
1,77,100,0
1,77,0,72
1,72,100,96
1,72,0,24
1,74,100,0
1,74,0,24
1,74,100,0
1,74,0,48
1,74,100,0
1,74,0,48
1,77,100,0
1,77,0,72
1,72,100,0
1,72,0,24
1,74,100,0
1,74,0,24
1,72,100,0
1,72,0,24
1,70,100,0
1,70,0,96
1,74,100,0
1,74,0,24
1,74,100,0
1,74,0,24
1,75,100,0
1,75,0,48
1,75,100,0
1,75,0,48
1,75,100,0
1,75,0,24
1,74,100,0
1,74,0,24
1,74,100,0
1,74,0,24
1,74,100,0
1,74,0,24
1,74,100,0
1,74,0,48
1,77,100,0
1,77,0,48
1,77,100,0
1,77,0,24
1,69,100,0
1,69,0,24
1,69,100,0
1,69,0,24
1,69,100,0
1,69,0,24
1,67,100,0
1,67,0,48
1,65,100,0
1,65,0,48
1,74,100,0
1,74,0,72
1,72,100,0
1,72,0,24
1,72,100,0
1,72,0,192
1,79,100,96
1,79,0,48
1,77,100,0
1,77,0,24
1,77,100,0
1,77,0,72
1,74,100,0
1,74,0,24
1,74,100,0
1,74,0,72
1,65,100,0
1,65,0,48
1,67,100,0
1,67,0,48
1,67,100,0
1,67,0,336
1,79,100,96
1,79,0,48
1,77,100,0
1,77,0,48
1,77,100,0
1,77,0,24
1,74,100,0
1,74,0,72
1,69,100,0
1,69,0,48
1,65,100,0
1,65,0,24
1,67,100,0
1,67,0,312
1,77,100,192
1,77,0,48
1,74,100,0
1,74,0,48
1,74,100,0
1,74,0,48
1,72,100,0
1,72,0,48
1,69,100,0
1,69,0,48
1,65,100,0
1,65,0,48
1,67,100,0
1,67,0,48
1,67,100,0
1,67,0,336
1,79,100,96
1,79,0,24
1,77,100,0
1,77,0,72
1,77,100,0
1,77,0,24
1,74,100,0
1,74,0,72
1,67,100,0
1,67,0,48
1,65,100,0
1,65,0,24
1,67,100,0
1,67,0,216
1,72,100,24
1,72,0,24
1,74,100,0
1,74,0,48
1,74,100,0
1,74,0,48
1,69,100,0
1,69,0,24
1,72,100,0
1,72,0,408
1,74,100,144
1,74,0,24
1,77,100,0
1,77,0,72
1,80,100,0
1,80,0,48
1,79,100,0
1,79,0,48
1,77,100,0
1,77,0,48
1,77,100,0
1,77,0,48
1,75,100,9720
1,75,0,24
1,77,100,0
1,77,0,48
1,77,100,0
1,77,0,24
1,77,100,0
1,77,0,24
1,75,100,72
1,75,0,24
1,77,100,0
1,77,0,48
1,77,100,0
1,77,0,24
1,77,100,0
1,77,0,24
1,72,100,72
1,72,0,24
1,74,100,0
1,74,0,48
1,74,100,0
1,74,0,48
1,72,100,0
1,72,0,48
1,74,100,0
1,74,0,24
1,72,100,0
1,72,0,24
1,70,100,0
1,70,0,96
1,72,100,72
1,72,0,24
1,74,100,0
1,74,0,24
1,75,100,0
1,75,0,24
1,75,100,0
1,75,0,48
1,75,100,0
1,75,0,48
1,72,100,0
1,72,0,24
1,72,100,0
1,72,0,24
1,74,100,0
1,74,0,48
1,74,100,0
1,74,0,24
1,74,100,0
1,74,0,72
1,67,100,0
1,67,0,24
1,67,100,0
1,67,0,24
1,67,100,0
1,67,0,72
1,65,100,0
1,65,0,24
1,74,100,0
1,74,0,72
1,72,100,0
1,72,0,24
1,72,100,0
1,72,0,96
1,72,100,24
1,72,0,24
1,74,100,0
1,74,0,24
1,77,100,0
1,77,0,72
1,72,100,72
1,72,0,24
1,74,100,0
1,74,0,24
1,77,100,0
1,77,0,72
1,72,100,96
1,72,0,24
1,74,100,0
1,74,0,24
1,74,100,0
1,74,0,48
1,74,100,0
1,74,0,48
1,77,100,0
1,77,0,72
1,72,100,0
1,72,0,24
1,74,100,0
1,74,0,24
1,72,100,0
1,72,0,24
1,70,100,0
1,70,0,96
1,74,100,0
1,74,0,24
1,74,100,0
1,74,0,24
1,75,100,0
1,75,0,48
1,75,100,0
1,75,0,48
1,75,100,0
1,75,0,24
1,74,100,0
1,74,0,24
1,74,100,0
1,74,0,24
1,74,100,0
1,74,0,24
1,74,100,0
1,74,0,48
1,77,100,0
1,77,0,48
1,77,100,0
1,77,0,24
1,69,100,0
1,69,0,24
1,69,100,0
1,69,0,24
1,69,100,0
1,69,0,24
1,67,100,0
1,67,0,48
1,65,100,0
1,65,0,48
1,74,100,0
1,74,0,72
1,72,100,0
1,72,0,24
1,72,100,0
1,72,0,192
1,79,100,96
1,79,0,48
1,77,100,0
1,77,0,24
1,77,100,0
1,77,0,72
1,74,100,0
1,74,0,24
1,74,100,0
1,74,0,72
1,65,100,0
1,65,0,48
1,67,100,0
1,67,0,48
1,67,100,0
1,67,0,336
1,79,100,96
1,79,0,48
1,77,100,0
1,77,0,48
1,77,100,0
1,77,0,24
1,74,100,0
1,74,0,72
1,69,100,0
1,69,0,48
1,65,100,0
1,65,0,24
1,67,100,0
1,67,0,312
1,77,100,192
1,77,0,48
1,74,100,0
1,74,0,48
1,74,100,0
1,74,0,48
1,72,100,0
1,72,0,48
1,69,100,0
1,69,0,48
1,65,100,0
1,65,0,48
1,67,100,0
1,67,0,48
1,67,100,0
1,67,0,336
1,79,100,96
1,79,0,24
1,77,100,0
1,77,0,72
1,77,100,0
1,77,0,24
1,74,100,0
1,74,0,72
1,67,100,0
1,67,0,48
1,65,100,0
1,65,0,24
1,67,100,0
1,67,0,216
1,72,100,24
1,72,0,24
1,74,100,0
1,74,0,48
1,74,100,0
1,74,0,48
1,69,100,0
1,69,0,24
1,72,100,0
1,72,0,408
2,50,100,336
2,50,0,24
2,53,100,0
2,53,0,6
2,55,100,0
2,55,0,6
2,58,100,0
2,58,0,6
2,60,100,0
2,60,0,6
2,62,100,0
2,62,0,48
2,62,100,0
2,62,0,24
2,62,100,0
2,62,0,96
2,62,100,0
2,62,0,24
2,62,100,0
2,62,0,48
2,64,100,0
2,64,0,24
2,65,100,0
2,65,0,120
2,61,100,0
2,61,0,6
2,62,100,0
2,62,0,42
2,62,100,0
2,62,0,24
2,62,100,0
2,62,0,96
2,62,100,0
2,62,0,24
2,61,100,0
2,61,0,6
2,62,100,0
2,62,0,42
2,64,100,0
2,64,0,24
2,65,100,0
2,65,0,96
2,53,100,0
2,53,0,6
2,55,100,0
2,55,0,6
2,58,100,0
2,58,0,6
2,60,100,0
2,60,0,6
2,62,100,0
2,62,0,48
2,62,100,0
2,62,0,24
2,62,100,0
2,62,0,96
2,62,100,0
2,62,0,24
2,62,100,0
2,62,0,48
2,64,100,0
2,64,0,48
2,65,100,0
2,65,0,192
2,64,100,0
2,64,0,192
2,62,100,0
2,62,0,432
2,65,100,20112
2,65,0,96
2,62,100,0
2,62,0,72
2,62,100,0
2,62,0,24
2,62,100,0
2,62,0,72
2,62,100,0
2,62,0,24
2,62,100,0
2,62,0,48
2,64,100,0
2,64,0,24
2,65,100,0
2,65,0,120
2,62,100,0
2,62,0,72
2,62,100,0
2,62,0,24
2,62,100,0
2,62,0,72
2,62,100,0
2,62,0,24
2,62,100,0
2,62,0,48
2,64,100,0
2,64,0,24
2,65,100,0
2,65,0,120
2,62,100,0
2,62,0,72
2,62,100,0
2,62,0,24
2,62,100,0
2,62,0,72
2,62,100,0
2,62,0,24
2,62,100,0
2,62,0,48
2,64,100,0
2,64,0,48
2,65,100,0
2,65,0,192
2,64,100,0
2,64,0,192
2,65,100,0
2,65,0,96
2,62,100,0
2,62,0,72
2,62,100,0
2,62,0,24
2,62,100,0
2,62,0,72
2,62,100,0
2,62,0,24
2,62,100,0
2,62,0,48
2,64,100,0
2,64,0,24
2,65,100,0
2,65,0,120
2,62,100,0
2,62,0,72
2,62,100,0
2,62,0,24
2,62,100,0
2,62,0,72
2,62,100,0
2,62,0,24
2,62,100,0
2,62,0,48
2,64,100,0
2,64,0,24
2,65,100,0
2,65,0,120
2,62,100,0
2,62,0,72
2,62,100,0
2,62,0,24
2,62,100,0
2,62,0,72
2,62,100,0
2,62,0,24
2,62,100,0
2,62,0,48
2,64,100,0
2,64,0,48
2,65,100,0
2,65,0,192
2,64,100,0
2,64,0,192
2,62,100,0
2,62,0,432
2,50,100,9984
2,50,0,24
2,52,100,0
2,52,0,6
2,55,100,0
2,55,0,6
2,57,100,0
2,57,0,6
2,58,100,0
2,58,0,6
2,62,100,0
2,62,0,48
2,62,100,0
2,62,0,24
2,62,100,0
2,62,0,96
2,62,100,0
2,62,0,24
2,62,100,0
2,62,0,48
2,64,100,0
2,64,0,24
2,65,100,0
2,65,0,120
2,62,100,0
2,62,0,48
2,62,100,0
2,62,0,24
2,62,100,0
2,62,0,96
2,62,100,0
2,62,0,24
2,62,100,0
2,62,0,48
2,64,100,0
2,64,0,24
2,65,100,0
2,65,0,120
2,62,100,0
2,62,0,48
2,62,100,0
2,62,0,24
2,62,100,0
2,62,0,96
2,62,100,0
2,62,0,24
2,62,100,0
2,62,0,48
2,64,100,0
2,64,0,48
2,65,100,0
2,65,0,192
2,64,100,0
2,64,0,192
2,62,100,0
2,62,0,432
3,57,105,288
3,53,105,0
3,62,105,0
3,57,0,288
3,53,0,0
3,62,0,0
3,55,105,0
3,52,105,0
3,55,0,96
3,52,0,0
3,58,105,0
3,62,105,0
3,53,105,0
3,58,0,288
3,62,0,0
3,53,0,0
3,52,105,0
3,57,105,0
3,52,0,96
3,57,0,0
3,59,105,0
3,62,105,0
3,53,105,0
3,59,0,384
3,62,0,0
3,53,0,0
3,53,105,0
3,58,105,0
3,65,105,0
3,62,105,0
3,53,0,192
3,58,0,0
3,65,0,0
3,62,0,0
3,55,105,0
3,61,105,0
3,64,105,0
3,55,0,192
3,61,0,0
3,64,0,0
3,53,127,0
3,62,127,0
3,58,127,0
3,46,127,0
3,46,0,288
3,39,110,72
3,53,0,24
3,62,0,0
3,58,0,0
3,39,0,0
3,41,110,0
3,41,0,48
3,41,110,0
3,41,0,48
3,39,110,72
3,39,0,24
3,41,110,0
3,41,0,48
3,41,110,0
3,41,0,48
3,39,110,72
3,39,0,24
3,41,110,0
3,41,0,48
3,41,110,0
3,41,0,48
3,39,110,72
3,39,0,24
3,41,110,0
3,41,0,48
3,41,110,0
3,41,0,48
3,39,110,72
3,39,0,24
3,41,110,0
3,41,0,48
3,41,110,0
3,41,0,48
3,39,110,72
3,39,0,24
3,41,110,0
3,41,0,48
3,41,110,0
3,41,0,48
3,39,110,72
3,39,0,24
3,41,110,0
3,41,0,48
3,41,110,0
3,41,0,48
3,39,110,72
3,39,0,24
3,41,110,0
3,41,0,48
3,41,110,0
3,41,0,48
3,39,110,72
3,39,0,1
3,41,110,0
3,68,80,0
3,75,80,0
3,72,80,0
3,80,80,0
3,68,0,17
3,75,0,0
3,72,0,0
3,80,0,0
3,81,80,7
3,69,80,0
3,72,80,0
3,75,80,0
3,81,0,17
3,69,0,0
3,72,0,0
3,75,0,0
3,41,0,7
3,69,80,0
3,81,80,0
3,75,80,0
3,72,80,0
3,41,110,0
3,69,0,17
3,81,0,0
3,75,0,0
3,72,0,0
3,81,80,7
3,72,80,0
3,75,80,0
3,69,80,0
3,81,0,17
3,72,0,0
3,75,0,0
3,69,0,0
3,41,0,7
3,81,80,0
3,75,80,0
3,72,80,0
3,69,80,0
3,81,0,17
3,75,0,0
3,72,0,0
3,69,0,0
3,69,80,7
3,72,80,0
3,75,80,0
3,81,80,0
3,69,0,17
3,72,0,0
3,75,0,0
3,81,0,0
3,81,80,7
3,69,80,0
3,75,80,0
3,72,80,0
3,81,0,17
3,69,0,0
3,75,0,0
3,72,0,0
3,81,80,7
3,72,80,0
3,69,80,0
3,39,110,0
3,75,80,0
3,81,0,17
