track,note,velocity,time
3,48,78,479
3,48,0,119
3,48,78,1
3,48,0,119
3,48,68,1
3,48,0,119
3,48,75,1
3,48,0,119
3,48,70,1
3,48,0,119
3,48,63,1
3,48,0,119
3,48,58,1
3,48,0,119
3,48,70,1
3,48,0,119
3,48,70,1
3,48,0,119
3,48,68,1
3,48,0,119
3,48,65,1
3,48,0,119
3,48,63,1
3,48,0,119
3,48,72,1
3,48,0,119
3,48,63,1
3,48,0,119
3,48,75,1
3,48,0,119
3,48,68,1
3,48,0,119
3,48,78,1
3,48,0,119
3,48,70,1
3,48,0,119
3,48,68,1
3,48,0,119
3,48,75,1
3,48,0,119
3,40,88,1
3,40,0,119
3,40,78,1
3,40,0,119
3,40,63,1
3,40,0,119
3,40,81,1
3,40,0,119
3,46,85,1
3,46,0,119
3,46,79,1
3,46,0,119
3,46,88,1
3,46,0,119
3,46,86,1
3,46,0,119
3,41,92,1
3,41,0,119
3,41,72,1
3,41,0,119
3,41,68,1
3,41,0,119
3,41,92,1
3,41,0,119
3,48,78,1
3,48,0,119
3,48,68,1
3,48,0,119
3,48,81,1
3,48,0,119
3,48,78,1
3,48,0,119
3,40,88,1
3,40,0,119
3,40,88,1
3,40,0,119
3,40,78,1
3,40,0,119
3,40,88,1
3,40,0,119
3,46,92,1
3,46,0,119
3,46,87,1
3,46,0,119
3,46,92,1
3,46,0,119
3,46,92,1
3,46,0,119
3,41,88,1
3,41,0,119
3,41,85,1
3,41,0,119
3,41,92,1
3,41,0,119
3,41,102,1
3,41,0,119
3,40,88,1
3,40,0,119
3,40,81,1
3,40,0,119
3,40,75,1
3,40,0,119
3,40,88,1
3,40,0,119
3,45,81,1
3,45,0,119
3,45,70,1
3,45,0,119
3,45,68,1
3,45,0,119
3,45,88,1
3,45,0,119
3,40,88,1
3,40,0,119
3,40,81,1
3,40,0,119
3,40,92,1
3,40,0,119
3,40,85,1
3,40,0,119
3,50,92,1
3,50,0,119
3,50,70,1
3,50,0,119
3,43,81,1
3,43,0,119
3,43,88,1
3,43,0,119
3,48,56,1
3,48,0,119
3,48,81,1
3,48,0,119
3,40,88,1
3,40,0,119
3,40,78,1
3,40,0,119
3,46,88,1
3,46,0,119
3,46,88,1
3,46,0,119
3,41,78,1
3,41,0,119
3,41,72,1
3,41,0,119
3,45,85,1
3,45,0,119
3,45,85,1
3,45,0,119
3,43,78,1
3,43,0,119
3,43,78,1
3,43,0,119
3,48,72,1
3,48,0,119
3,48,78,1
3,48,0,119
3,48,68,1
3,48,0,119
3,48,78,1
3,48,0,119
3,48,78,1
3,48,0,119
3,48,75,1
3,48,0,119
3,48,78,1
3,48,0,119
3,48,85,1
3,48,0,119
3,48,85,1
3,48,0,119
3,48,81,1
3,48,0,119
3,48,65,1
3,48,0,119
3,48,72,1
3,48,0,119
3,40,88,1
3,40,0,119
3,40,81,1
3,40,0,119
3,40,85,1
3,40,0,119
3,40,78,1
3,40,0,119
3,46,92,1
3,46,0,119
3,46,85,1
3,46,0,119
3,46,85,1
3,46,0,119
3,46,92,1
3,46,0,119
3,41,85,1
3,41,0,119
3,41,85,1
3,41,0,119
3,41,75,1
3,41,0,119
3,41,88,1
3,41,0,119
3,48,68,1
3,48,0,119
3,48,61,1
3,48,0,119
3,48,65,1
3,48,0,119
3,48,75,1
3,48,0,119
3,40,88,1
3,40,0,119
3,40,72,1
3,40,0,119
3,40,78,1
3,40,0,119
3,40,88,1
3,40,0,119
3,46,86,1
3,46,0,119
3,46,81,1
3,46,0,119
3,46,85,1
3,46,0,119
3,46,88,1
3,46,0,119
3,41,70,1
3,41,0,119
3,41,78,1
3,41,0,119
3,41,72,1
3,41,0,119
3,41,75,1
3,41,0,119
3,40,92,1
3,40,0,119
3,40,88,1
3,40,0,119
3,40,81,1
3,40,0,119
3,40,88,1
3,40,0,119
3,45,88,1
3,45,0,119
3,45,85,1
3,45,0,119
3,45,68,1
3,45,0,119
3,45,88,1
3,45,0,119
3,40,92,1
3,40,0,119
3,40,85,1
3,40,0,119
3,40,92,1
3,40,0,119
3,40,81,1
3,40,0,119
3,50,78,1
3,50,0,119
3,50,102,1
3,50,0,119
3,43,92,1
3,43,0,119
3,43,92,1
3,43,0,119
3,48,60,1
3,48,0,119
3,48,63,1
3,48,0,119
3,40,92,1
3,40,0,119
3,40,92,1
3,40,0,119
3,46,92,1
3,46,0,119
3,46,88,1
3,46,0,119
3,41,75,1
3,41,0,119
3,41,70,1
3,41,0,119
3,45,85,1
3,45,0,119
3,45,92,1
3,45,0,119
3,43,78,1
3,43,0,119
3,43,75,1
3,43,0,119
3,48,75,1
3,48,0,119
3,48,72,1
3,48,0,119
3,48,72,1
3,48,0,119
3,48,81,1
3,48,0,119
3,48,72,1
3,48,0,119
3,48,70,1
3,48,0,119
3,48,72,1
3,48,0,119
3,48,78,1
3,48,0,119
3,43,63,1
3,43,0,119
3,43,56,1
3,43,0,119
3,43,58,1
3,43,0,119
3,43,65,1
3,43,0,119
3,41,65,1
3,41,0,119
3,41,68,1
3,41,0,119
3,41,60,1
3,41,0,119
3,41,53,1
3,41,0,119
3,40,75,1
3,40,0,119
3,40,78,1
3,40,0,119
3,40,85,1
3,40,0,119
3,40,78,1
3,40,0,119
3,45,63,1
3,45,0,119
3,45,56,1
3,45,0,119
3,45,65,1
3,45,0,119
3,45,60,1
3,45,0,119
3,43,61,1
3,43,0,119
3,43,63,1
3,43,0,119
3,43,60,1
3,43,0,119
3,43,56,1
3,43,0,119
3,41,70,1
3,41,0,119
3,41,52,1
3,41,0,119
3,41,58,1
3,41,0,119
3,41,48,1
3,41,0,119
3,40,72,1
3,40,0,119
3,40,70,1
3,40,0,119
3,40,78,1
3,40,0,119
3,40,70,1
3,40,0,119
3,44,81,1
3,44,0,119
3,44,81,1
3,44,0,119
3,44,75,1
3,44,0,119
3,44,75,1
3,44,0,119
3,39,68,1
3,39,0,119
3,39,78,1
3,39,0,119
3,39,70,1
3,39,0,119
3,39,81,1
3,39,0,119
3,41,61,1
3,41,0,119
3,41,60,1
3,41,0,119
3,41,58,1
3,41,0,119
3,41,52,1
3,41,0,119
3,43,70,1
3,43,0,119
3,48,102,361
3,48,0,119
3,48,78,1
3,48,0,119
3,48,75,1
3,48,0,119
3,48,85,1
3,48,0,119
3,40,88,1
3,40,0,119
3,40,81,1
3,40,0,119
3,40,87,1
3,40,0,119
3,40,88,1
3,40,0,119
3,46,88,1
3,46,0,119
3,46,88,1
3,46,0,119
3,46,88,1
3,46,0,119
3,46,88,1
3,46,0,119
3,41,85,1
3,41,0,119
3,41,78,1
3,41,0,119
3,41,81,1
3,41,0,119
3,41,75,1
3,41,0,119
3,48,79,1
3,48,0,119
3,48,55,1
3,48,0,119
3,48,51,1
3,48,0,119
3,48,81,1
3,48,0,119
3,40,97,1
3,40,0,119
3,40,88,1
3,40,0,119
3,40,85,1
3,40,0,119
3,40,81,1
3,40,0,119
3,46,81,1
3,46,0,119
3,46,97,1
3,46,0,119
3,46,88,1
3,46,0,119
3,46,97,1
3,46,0,119
3,41,97,1
3,41,0,119
3,41,97,1
3,41,0,119
3,41,92,1
3,41,0,119
3,41,102,1
3,41,0,119
3,40,92,1
3,40,0,119
3,40,88,1
3,40,0,119
3,40,85,1
3,40,0,119
3,40,85,1
3,40,0,119
3,45,81,1
3,45,0,119
3,45,72,1
3,45,0,119
3,45,70,1
3,45,0,119
3,45,85,1
3,45,0,119
3,40,92,1
3,40,0,119
3,40,85,1
3,40,0,119
3,40,81,1
3,40,0,119
3,40,88,1
3,40,0,119
3,50,88,1
3,50,0,119
3,50,65,1
3,50,0,119
3,43,85,1
3,43,0,119
3,43,92,1
3,43,0,119
3,48,81,1
3,48,0,119
3,48,88,1
3,48,0,119
3,40,88,1
3,40,0,119
3,40,92,1
3,40,0,119
3,46,97,1
3,46,0,119
3,46,88,1
3,46,0,119
3,41,78,1
3,41,0,119
3,41,75,1
3,41,0,119
3,45,92,1
3,45,0,119
3,45,88,1
3,45,0,119
3,43,85,1
3,43,0,119
3,43,85,1
3,43,0,119
3,48,65,1
3,48,0,119
3,48,75,1
3,48,0,119
3,48,75,1
3,48,0,119
3,48,70,1
3,48,0,119
3,48,88,1
3,48,0,119
3,48,81,1
3,48,0,119
3,48,75,1
3,48,0,119
3,48,88,1
3,48,0,119
3,43,72,1
3,43,0,119
3,43,65,1
3,43,0,119
3,43,65,1
3,43,0,119
3,43,65,1
3,43,0,119
3,41,68,1
3,41,0,119
3,41,52,1
3,41,0,119
3,41,63,1
3,41,0,119
3,41,53,1
3,41,0,119
3,40,61,1
3,40,0,119
3,40,70,1
3,40,0,119
3,40,78,1
3,40,0,119
3,40,85,1
3,40,0,119
3,45,53,1
3,45,0,119
3,45,52,1
3,45,0,119
3,45,68,1
3,45,0,119
3,45,72,1
3,45,0,119
3,43,72,1
3,43,0,119
3,43,75,1
3,43,0,119
3,43,63,1
3,43,0,119
3,43,65,1
3,43,0,119
3,41,61,1
3,41,0,119
3,41,61,1
3,41,0,119
3,41,56,1
3,41,0,119
3,41,63,1
3,41,0,119
3,40,78,1
3,40,0,119
3,40,68,1
3,40,0,119
3,40,75,1
3,40,0,119
3,40,72,1
3,40,0,119
3,44,88,1
3,44,0,119
3,44,78,1
3,44,0,119
3,44,75,1
3,44,0,119
3,44,78,1
3,44,0,119
3,39,78,1
3,39,0,119
3,39,78,1
3,39,0,119
3,39,78,1
3,39,0,119
3,39,78,1
3,39,0,119
3,41,58,1
3,41,0,119
3,41,65,1
3,41,0,119
3,41,56,1
3,41,0,119
3,41,52,1
3,41,0,119
3,43,85,1
3,43,0,119
3,48,85,841
3,48,0,119
3,48,70,1
3,48,0,119
3,48,60,1
3,48,0,119
3,48,81,1
3,48,0,119
3,40,81,1
3,40,0,119
3,40,85,1
3,40,0,119
3,40,78,1
3,40,0,119
3,40,85,1
3,40,0,119
3,46,88,1
3,46,0,119
3,46,88,1
3,46,0,119
3,46,85,1
3,46,0,119
3,46,92,1
3,46,0,119
3,41,88,1
3,41,0,119
3,41,97,1
3,41,0,119
3,41,85,1
3,41,0,119
3,41,88,1
3,41,0,119
3,48,78,1
3,48,0,119
3,48,92,1
3,48,0,119
3,48,53,1
3,48,0,119
3,48,72,1
3,48,0,119
3,40,85,1
3,40,0,119
3,40,75,1
3,40,0,119
3,40,81,1
3,40,0,119
3,40,88,1
3,40,0,119
3,46,92,1
3,46,0,119
3,46,81,1
3,46,0,119
3,46,85,1
3,46,0,119
3,46,88,1
3,46,0,119
3,41,78,1
3,41,0,119
3,41,72,1
3,41,0,119
3,41,88,1
3,41,0,119
3,41,102,1
3,41,0,119
3,40,78,1
3,40,0,119
3,40,88,1
3,40,0,119
3,40,85,1
3,40,0,119
3,40,92,1
3,40,0,119
3,45,92,1
3,45,0,119
3,45,88,1
3,45,0,119
3,45,97,1
3,45,0,119
3,45,92,1
3,45,0,119
3,40,85,1
3,40,0,119
3,40,85,1
3,40,0,119
3,40,88,1
3,40,0,119
3,40,85,1
3,40,0,119
3,50,78,1
3,50,0,119
3,50,97,1
3,50,0,119
3,43,85,1
3,43,0,119
3,43,88,1
3,43,0,119
3,48,88,1
3,48,0,119
3,48,78,1
3,48,0,119
3,40,88,1
3,40,0,119
3,40,88,1
3,40,0,119
3,46,88,1
3,46,0,119
3,46,88,1
3,46,0,119
3,41,78,1
3,41,0,119
3,41,81,1
3,41,0,119
3,45,92,1
3,45,0,119
3,45,78,1
3,45,0,119
3,43,78,1
3,43,0,119
3,43,65,1
3,43,0,119
3,48,61,1
3,48,0,119
3,48,70,1
3,48,0,119
3,48,70,1
3,48,0,119
3,48,85,1
3,48,0,119
3,48,92,1
3,48,0,119
3,40,97,121
3,40,0,119
3,46,97,121
3,46,0,119
3,41,88,121
3,41,0,119
3,43,102,121
3,43,0,119
3,48,102,601
3,48,0,1679
4,48,78,485
4,48,0,65
4,48,78,51
4,48,0,82
4,48,68,36
4,48,0,90
4,48,75,34
4,48,0,86
4,48,70,33
4,48,0,80
4,48,63,39
4,48,0,79
4,48,58,36
4,48,0,74
4,48,70,49
4,48,0,75
4,48,70,43
4,48,0,84
4,48,68,40
4,48,0,79
4,48,65,43
4,48,0,74
4,48,63,44
4,48,0,73
4,48,72,46
4,48,0,75
4,48,63,44
4,48,0,73
4,48,75,48
4,48,0,76
4,48,68,45
4,48,0,78
4,48,78,46
4,48,0,81
4,48,70,37
4,48,0,69
4,48,68,45
4,48,0,75
4,48,75,47
4,48,0,79
4,40,88,42
4,40,0,94
4,40,78,35
4,40,0,81
4,40,63,30
4,40,0,90
4,40,81,32
4,40,0,85
4,46,85,35
4,46,0,83
4,46,79,35
4,46,0,85
4,46,88,36
4,46,0,94
4,46,86,34
4,46,0,78
4,41,92,41
4,41,0,82
4,41,72,32
4,41,0,80
4,41,68,41
4,41,0,78
4,41,92,42
4,41,0,69
4,48,78,49
4,48,0,80
4,48,68,39
4,48,0,87
4,48,81,37
4,48,0,82
4,48,78,39
4,48,0,82
4,40,88,37
4,40,0,85
4,40,88,36
4,40,0,82
4,40,78,37
4,40,0,83
4,40,88,35
4,40,0,90
4,46,92,30
4,46,0,83
4,46,87,31
4,46,0,86
4,46,92,33
4,46,0,96
4,46,92,34
4,46,0,76
4,41,88,45
4,41,0,89
4,41,85,32
4,41,0,79
4,41,92,40
4,41,0,71
4,41,102,49
4,41,0,70
4,40,88,55
4,40,0,73
4,40,81,46
4,40,0,67
4,40,75,49
4,40,0,74
4,40,88,45
4,40,0,69
4,45,81,46
4,45,0,75
4,45,70,46
4,45,0,69
4,45,68,48
4,45,0,72
4,45,88,51
4,45,0,75
4,40,88,46
4,40,0,79
4,40,81,43
4,40,0,75
4,40,92,43
4,40,0,80
4,40,85,47
4,40,0,71
4,50,92,43
4,50,0,76
4,50,70,41
4,50,0,77
4,43,81,45
4,43,0,79
4,43,88,39
4,43,0,74
4,48,56,52
4,48,0,69
4,48,81,49
4,48,0,73
4,40,88,48
4,40,0,72
4,40,78,44
4,40,0,78
4,46,88,42
4,46,0,83
4,46,88,39
4,46,0,72
4,41,78,50
4,41,0,67
4,41,72,53
4,41,0,64
4,45,85,52
4,45,0,71
4,45,85,52
4,45,0,75
4,43,78,43
4,43,0,77
4,43,78,49
4,43,0,72
4,48,72,42
4,48,0,74
4,48,78,47
4,48,0,66
4,48,68,55
4,48,0,65
4,48,78,53
4,48,0,63
4,48,78,57
4,48,0,57
4,48,75,62
4,48,0,61
4,48,78,60
4,48,0,70
4,48,85,58
4,48,0,60
4,48,85,58
4,48,0,79
4,48,81,41
4,48,0,74
4,48,65,42
4,48,0,78
4,48,72,41
4,48,0,79
4,40,88,35
4,40,0,93
4,40,81,35
4,40,0,84
4,40,85,32
4,40,0,88
4,40,78,32
4,40,0,91
4,46,92,32
4,46,0,85
4,46,85,32
4,46,0,88
4,46,85,25
4,46,0,97
4,46,92,34
4,46,0,79
4,41,85,38
4,41,0,85
4,41,85,34
4,41,0,83
4,41,75,38
4,41,0,78
4,41,88,43
4,41,0,68
4,48,68,55
4,48,0,86
4,48,61,40
4,48,0,63
4,48,65,42
4,48,0,80
4,48,75,43
4,48,0,81
4,40,88,39
4,40,0,87
4,40,72,34
4,40,0,75
4,40,78,47
4,40,0,76
4,40,88,47
4,40,0,68
4,46,86,50
4,46,0,77
4,46,81,39
4,46,0,74
4,46,85,36
4,46,0,90
4,46,88,40
4,46,0,70
4,41,70,49
4,41,0,83
4,41,78,39
4,41,0,76
4,41,72,49
4,41,0,70
4,41,75,48
4,41,0,76
4,40,92,48
4,40,0,69
4,40,88,48
4,40,0,75
4,40,81,38
4,40,0,84
4,40,88,42
4,40,0,75
4,45,88,45
4,45,0,78
4,45,85,44
4,45,0,70
4,45,68,47
4,45,0,69
4,45,88,46
4,45,0,77
4,40,92,47
4,40,0,74
4,40,85,43
4,40,0,78
4,40,92,46
4,40,0,72
4,40,81,46
4,40,0,69
