track,note,velocity,time
1,60,124,1536
1,60,121,20
1,60,127,28
1,60,123,20
1,64,104,12
1,67,105,0
1,60,117,16
1,60,120,12
1,60,114,28
1,60,117,28
1,60,118,8
1,64,115,12
1,67,103,0
1,60,108,20
1,60,108,12
1,60,111,20
1,60,112,32
1,60,113,28
1,69,115,20
1,65,115,0
1,60,110,20
1,60,116,20
1,60,115,24
1,60,113,12
1,60,120,20
1,65,115,8
1,69,107,0
1,60,110,12
1,60,111,20
1,60,109,12
1,60,110,28
1,60,117,20
1,65,117,16
1,69,113,0
1,60,111,20
1,60,110,20
1,60,116,20
1,59,115,8
1,60,116,24
1,60,115,12
1,60,117,28
1,67,114,28
1,71,118,0
1,60,114,16
1,60,118,12
1,60,120,24
1,60,121,20
1,60,118,24
1,67,120,12
1,71,117,0
1,60,117,24
1,60,120,20
1,60,117,24
1,60,116,24
1,60,118,16
1,72,113,16
1,76,103,0
1,60,116,20
1,60,117,20
1,60,118,20
1,60,116,20
1,60,117,20
1,64,115,20
1,67,113,0
1,60,117,20
1,60,114,20
1,60,116,20
1,60,116,20
1,60,120,20
1,59,122,20
1,60,116,20
1,60,116,20
1,60,121,20
1,60,124,20
1,60,121,20
1,60,127,28
1,60,123,20
1,64,104,12
1,67,105,0
1,60,117,16
1,60,120,12
1,60,114,28
1,60,117,28
1,60,118,8
1,64,115,12
1,67,103,0
1,60,108,20
1,60,108,12
1,60,111,20
1,60,112,32
1,60,113,28
1,69,115,20
1,65,115,0
1,60,110,20
1,60,116,20
1,60,115,24
1,60,113,12
1,60,120,20
1,65,115,8
1,69,107,0
1,60,110,12
1,60,111,20
1,60,109,12
1,60,110,28
1,60,117,20
1,65,117,16
1,69,113,0
1,60,111,20
1,60,110,20
1,60,116,20
1,59,115,8
1,60,116,24
1,60,115,12
1,60,117,28
1,67,114,28
1,71,118,0
1,60,114,16
1,60,118,12
1,60,120,24
1,60,121,20
1,60,118,24
1,67,120,12
1,71,117,0
1,60,117,24
1,60,120,20
1,60,117,24
1,60,116,24
1,60,118,16
1,72,113,16
1,76,103,0
1,60,116,20
1,60,117,20
1,60,118,20
1,60,116,20
1,60,117,20
1,64,115,20
1,67,113,0
1,60,117,20
1,60,114,20
1,60,116,20
1,60,116,20
1,60,120,20
1,59,122,20
1,60,116,20
1,60,116,20
1,60,121,20
1,60,124,20
1,60,121,20
1,60,127,28
1,60,123,20
1,64,104,12
1,67,105,0
1,60,117,16
1,60,120,12
1,60,114,28
1,60,117,28
1,60,118,8
1,64,115,12
1,67,103,0
1,60,108,20
1,60,108,12
1,60,111,20
1,60,112,32
1,60,113,28
1,69,115,20
1,65,115,0
1,60,110,20
1,60,116,20
1,60,115,24
1,60,113,12
1,60,120,20
1,65,115,8
1,69,107,0
1,60,110,12
1,60,111,20
1,60,109,12
1,60,110,28
1,60,117,20
1,65,117,16
1,69,113,0
1,60,111,20
1,60,110,20
1,60,116,20
1,59,115,8
1,60,116,24
1,60,115,12
1,60,117,28
1,67,114,28
1,71,118,0
1,60,114,16
1,60,118,12
1,60,120,24
1,60,121,20
1,60,118,24
1,67,120,12
1,71,117,0
1,60,117,24
1,60,120,20
1,60,117,24
1,60,116,24
1,60,118,16
1,72,113,16
1,76,103,0
1,60,116,20
1,60,117,20
1,60,118,20
1,60,116,20
1,60,117,20
1,64,115,20
1,67,113,0
1,60,117,20
1,60,114,20
1,60,116,20
1,60,116,20
1,60,120,20
1,59,122,20
1,60,116,20
1,60,116,20
1,60,121,20
1,60,124,20
1,60,121,20
1,60,127,28
1,60,123,20
1,64,104,12
1,67,105,0
1,60,117,16
1,60,120,12
1,60,114,28
1,60,117,28
1,60,118,8
1,64,115,12
1,67,103,0
1,60,108,20
1,60,108,12
1,60,111,20
1,60,112,32
1,60,113,28
1,69,115,20
1,65,115,0
1,60,110,20
1,60,116,20
1,60,115,24
1,60,113,12
1,60,120,20
1,65,115,8
1,69,107,0
1,60,110,12
1,60,111,20
1,60,109,12
1,60,110,28
1,60,117,20
1,65,117,16
1,69,113,0
1,60,111,20
1,60,110,20
1,60,116,20
1,59,115,8
1,60,116,24
1,60,115,12
1,60,117,28
1,67,114,28
1,71,118,0
1,60,114,16
1,60,118,12
1,60,120,24
1,60,121,20
1,60,118,24
1,67,120,12
1,71,117,0
1,60,117,24
1,60,120,20
1,60,117,24
1,60,116,24
1,60,118,16
1,72,113,16
1,76,103,0
1,60,116,20
1,60,117,20
1,60,118,20
1,60,116,20
1,60,117,20
1,64,115,20
1,67,113,0
1,60,117,20
1,60,114,20
1,60,116,20
1,60,116,20
1,60,120,20
1,59,122,20
1,60,116,20
1,60,116,20
1,60,121,20
1,63,117,408
1,58,118,4
1,67,112,0
1,36,112,0
1,48,110,0
1,62,113,152
1,67,119,0
1,51,109,4
1,70,112,0
1,39,115,0
1,60,114,92
1,69,115,4
1,65,113,0
1,41,112,0
1,53,108,0
1,57,110,96
1,60,118,4
1,65,114,0
1,41,114,0
1,53,112,0
1,57,103,40
1,60,121,0
1,41,107,0
1,53,114,0
1,56,115,512
1,60,110,0
1,34,115,0
1,65,114,0
1,46,115,0
1,56,107,96
1,60,103,0
1,65,114,0
1,38,113,0
1,50,115,4
1,63,117,136
1,58,118,0
1,67,113,0
1,39,115,0
1,51,112,0
1,67,114,96
1,39,115,0
1,58,120,0
1,63,118,0
1,51,117,0
1,58,119,108
1,63,105,0
1,39,110,0
1,51,114,0
1,67,116,0
1,74,121,552
1,31,115,4
1,43,112,0
1,70,105,188
1,67,108,8
1,77,121,16
1,34,114,0
1,46,112,0
1,74,101,188
1,70,108,176
1,69,62,4
1,76,113,88
1,36,115,0
1,48,108,4
1,72,104,188
1,67,103,20
1,36,116,72
1,48,114,0
1,72,118,0
1,67,110,0
1,64,109,0
1,48,108,104
1,36,115,0
1,60,119,0
1,64,120,0
1,67,108,0
1,63,122,536
1,29,114,0
1,60,116,0
1,67,115,0
1,41,109,0
1,63,112,68
1,60,110,0
1,69,113,0
1,33,99,4
1,45,102,0
1,35,98,0
1,46,106,128
1,34,114,0
1,65,115,0
1,70,118,0
1,74,120,0
1,46,107,84
1,34,110,0
1,65,114,4
1,70,118,0
1,74,114,0
1,46,120,124
1,74,112,0
1,70,120,0
1,70,107,56
1,69,113,80
1,55,108,0
1,62,107,0
1,71,103,184
1,79,115,4
1,71,112,176
1,64,109,8
1,72,107,140
1,79,112,4
1,69,116,4
1,62,108,8
1,71,107,188
1,79,109,48
1,71,119,176
1,64,110,8
1,72,103,164
1,79,108,0
1,69,116,8
1,62,108,4
1,71,106,52
1,71,108,56
1,64,108,40
1,72,110,76
1,79,108,64
1,60,106,32
1,67,114,4
1,53,103,4
1,69,108,184
1,77,94,16
1,69,112,24
1,62,107,8
1,70,105,180
1,77,112,8
1,60,110,164
1,67,118,8
1,69,105,188
1,77,114,44
1,69,115,168
1,62,114,12
1,70,108,168
1,77,109,0
1,67,116,136
1,60,110,0
1,69,108,172
1,69,104,48
1,62,109,36
1,70,113,24
1,77,114,48
1,69,115,24
1,62,109,4
1,55,112,8
1,71,109,184
1,79,110,156
1,71,118,164
1,64,109,8
1,72,103,192
1,79,109,168
1,62,105,152
1,69,118,4
1,71,105,188
1,79,112,32
1,71,116,156
1,64,110,12
1,72,102,168
1,79,110,148
1,69,116,12
1,62,112,4
1,71,110,172
1,71,102,56
1,64,112,48
1,72,108,28
1,79,116,28
1,48,114,140
1,55,105,184
1,60,103,44
1,79,108,0
1,88,112,4
1,77,118,76
1,86,115,4
1,57,99,4
1,76,113,76
1,84,116,4
1,55,101,4
1,81,113,80
1,77,119,4
1,52,104,0
1,50,106,60
1,76,113,8
1,79,116,4
1,48,118,112
1,72,123,4
1,67,96,176
1,60,109,4
1,72,115,4
1,67,105,192
1,60,113,20
1,72,115,4
1,67,109,184
1,57,112,12
1,60,105,12
1,55,114,64
1,72,118,12
1,67,102,196
1,60,113,32
1,72,120,20
1,67,108,4
1,60,114,36
1,72,115,8
1,52,108,20
1,67,112,4
1,60,114,4
1,55,116,8
1,72,114,20
1,67,109,20
1,60,115,16
1,57,112,4
1,72,109,16
1,67,110,56
1,55,103,4
1,60,110,20
1,52,113,12
1,72,101,16
1,71,115,36
1,50,115,24
1,67,110,176
1,62,109,24
1,72,119,8
1,71,102,192
1,67,113,136
1,62,103,12
1,48,118,4
1,72,116,0
1,67,105,184
1,60,112,20
1,72,115,8
1,67,108,4
1,60,110,20
1,72,115,12
1,67,109,176
1,57,114,8
1,60,108,32
1,72,114,76
1,55,118,8
1,67,104,20
1,60,113,24
1,72,118,36
1,67,107,16
1,60,113,36
1,72,116,24
1,67,109,0
1,52,106,20
1,60,113,32
1,55,115,16
1,72,115,20
1,67,109,20
1,60,112,32
1,52,112,12
1,67,102,4
1,50,112,24
1,65,113,8
1,67,115,48
1,48,118,4
1,60,112,24
1,67,112,20
1,72,113,28
1,60,113,4
1,67,115,28
1,72,113,16
1,60,107,212
1,67,109,4
1,48,113,40
1,84,118,4
1,83,99,8
1,79,104,8
1,72,120,16
1,84,121,36
1,79,114,36
1,72,118,32
1,84,119,16
1,79,115,0
1,57,118,8
1,72,108,32
1,55,120,68
1,84,120,4
1,79,107,24
1,72,115,36
1,84,118,20
1,79,112,28
1,72,115,52
1,84,115,16
1,79,112,12
1,52,112,4
1,72,114,4
1,55,115,4
1,84,112,40
1,79,110,20
1,57,106,24
1,72,118,28
1,84,106,0
1,55,113,12
1,79,112,12
1,72,115,28
1,52,115,4
1,84,99,184
1,83,121,72
1,50,110,8
1,79,108,196
1,74,120,28
1,84,121,40
1,83,114,192
1,79,110,144
1,74,114,152
1,48,116,180
1,84,119,4
1,79,99,196
1,77,96,20
1,72,114,28
1,84,114,8
1,79,114,196
1,72,110,32
1,84,115,12
1,57,107,4
1,79,113,4
1,72,105,32
1,55,118,60
1,84,115,12
1,79,102,12
1,72,114,32
1,84,114,28
1,79,107,0
1,72,112,44
1,84,115,28
1,52,109,20
1,79,114,8
1,72,110,12
1,55,114,12
1,84,109,16
1,79,109,4
1,72,116,12
1,52,112,4
1,79,105,4
1,50,112,16
1,77,114,12
1,79,116,56
1,48,119,4
1,72,110,4
1,79,115,52
1,77,113,56
1,76,109,4
1,74,113,192
1,72,108,108
1,71,119,180
1,69,116,64
1,43,123,68
1,71,123,4
1,74,123,52
1,47,118,16
1,71,116,20
1,43,114,12
1,79,119,48
1,52,123,12
1,78,122,136
1,50,120,8
1,74,124,148
1,47,115,8
1,76,123,128
1,48,116,8
1,71,123,128
1,43,121,4
1,72,116,40
1,45,103,4
1,74,127,52
1,47,121,8
1,72,118,200
1,36,118,8
1,67,115,4
1,76,110,4
1,48,120,4
1,67,107,88
1,72,106,4
1,76,102,4
1,48,107,4
1,36,113,12
1,48,97,92
1,36,102,4
1,67,98,4
1,72,100,4
1,76,93,4
1,36,107,92
1,48,106,4
1,67,103,4
1,72,104,8
1,76,100,4
1,67,116,96
1,72,116,4
1,76,116,4
1,36,120,4
1,48,120,4
1,67,100,80
1,72,97,4
1,36,105,0
1,76,98,4
1,48,103,12
1,67,97,76
1,36,101,4
1,72,96,4
1,48,99,0
1,76,98,4
1,67,104,92
1,72,106,4
1,76,105,4
1,36,106,4
1,48,108,4
1,71,119,96
1,74,119,4
1,67,116,4
1,35,121,4
1,47,119,4
1,38,119,156
1,50,118,4
1,69,115,8
1,74,116,4
1,78,121,4
1,71,120,208
1,43,119,16
1,74,114,40
1,47,110,20
1,71,110,12
1,43,107,12
1,79,112,12
1,52,116,8
1,50,116,140
1,78,117,4
1,74,118,144
1,47,114,4
1,48,113,128
1,76,120,4
1,43,115,120
1,71,121,8
1,45,98,56
1,72,112,4
1,47,120,68
1,74,125,4
1,76,125,220
1,79,119,12
1,36,116,4
1,48,118,0
1,77,97,20
1,76,112,188
1,74,119,216
1,72,123,212
1,79,123,0
1,74,118,148
1,71,120,4
1,31,110,4
1,43,109,4
1,69,103,200
1,67,109,20
1,74,50,16
1,74,115,72
1,65,119,4
1,74,123,220
1,62,125,4
1,60,124,108
1,60,121,20
1,60,127,28
1,60,123,20
1,64,104,12
1,67,105,0
1,60,117,16
1,60,120,12
1,60,114,28
1,60,117,28
1,60,118,8
1,64,115,12
1,67,103,0
1,60,108,20
1,60,108,12
1,60,111,20
1,60,112,32
1,60,113,28
1,69,115,20
1,65,115,0
1,60,110,20
1,60,116,20
1,60,115,24
1,60,113,12
1,60,120,20
1,65,115,8
1,69,107,0
1,60,110,12
1,60,111,20
1,60,109,12
1,60,110,28
1,60,117,20
1,65,117,16
1,69,113,0
1,60,111,20
1,60,110,20
1,60,116,20
1,59,115,8
1,60,116,24
1,60,115,12
1,60,117,28
1,67,114,28
1,71,118,0
1,60,114,16
1,60,118,12
1,60,120,24
1,60,121,20
1,60,118,24
1,67,120,12
1,71,117,0
1,60,117,24
1,60,120,20
1,60,117,24
1,60,116,24
1,60,118,16
1,72,113,16
1,76,103,0
1,60,116,20
1,60,117,20
1,60,118,20
1,60,116,20
1,60,117,20
1,64,115,20
1,67,113,0
1,60,117,20
1,60,114,20
1,60,116,20
1,60,116,20
1,60,120,20
1,59,122,20
1,60,116,20
1,60,116,20
1,60,121,20
1,60,124,20
1,60,121,20
1,60,127,28
1,60,123,20
1,64,104,12
1,67,105,0
1,60,117,16
1,60,120,12
1,60,114,28
1,60,117,28
1,60,118,8
1,64,115,12
1,67,103,0
1,60,108,20
1,60,108,12
1,60,111,20
1,60,112,32
1,60,113,28
1,69,115,20
1,65,115,0
1,60,110,20
1,60,116,20
1,60,115,24
1,60,113,12
1,60,120,20
1,65,115,8
1,69,107,0
1,60,110,12
1,60,111,20
1,60,109,12
1,60,110,28
1,60,117,20
1,65,117,16
1,69,113,0
1,60,111,20
1,60,110,20
1,60,116,20
1,59,115,8
1,60,116,24
1,60,115,12
1,60,117,28
1,67,114,28
1,71,118,0
1,60,114,16
1,60,118,12
1,60,120,24
1,60,121,20
1,60,118,24
1,67,120,12
1,71,117,0
1,60,117,24
1,60,120,20
1,60,117,24
1,60,116,24
1,60,118,16
1,72,113,16
1,76,103,0
1,60,116,20
1,60,117,20
1,60,118,20
1,60,116,20
1,60,117,20
1,64,115,20
1,67,113,0
1,60,117,20
1,60,114,20
1,60,116,20
1,60,116,20
1,60,120,20
1,59,122,20
1,60,116,20
1,60,116,20
1,60,121,20
1,58,121,440
1,67,115,4
1,63,115,0
1,36,114,12
1,48,110,4
1,62,116,108
1,67,116,4
1,70,117,4
1,39,118,20
1,51,111,0
1,60,114,108
1,65,119,0
1,69,116,4
1,41,114,12
1,53,112,4
1,60,120,108
1,57,115,4
1,53,116,4
1,65,112,4
1,41,116,4
1,60,118,56
1,57,103,8
1,41,118,8
1,53,116,4
1,56,121,524
1,60,113,4
1,65,115,4
1,34,118,4
1,46,118,4
1,56,108,68
1,38,113,4
1,50,119,4
1,60,104,4
1,65,112,4
1,58,122,132
1,67,114,4
1,51,114,4
1,39,117,4
1,63,112,4
1,58,120,104
1,67,114,4
1,51,112,4
1,63,112,0
1,39,113,4
1,51,118,92
1,67,119,4
1,39,119,4
1,58,122,4
1,63,109,4
1,74,123,560
1,31,116,8
1,43,113,4
1,70,111,180
1,67,113,0
1,77,123,36
1,34,117,4
1,46,117,4
1,74,108,172
1,70,108,8
1,76,114,92
1,36,119,8
1,48,116,4
1,72,107,176
1,67,104,92
1,67,115,92
1,72,115,4
1,64,123,4
1,36,115,8
1,48,115,4
1,64,121,80
1,60,120,4
1,48,107,0
1,67,116,4
1,36,114,12
1,60,120,536
1,67,119,4
1,63,122,4
1,29,115,4
1,41,112,4
1,33,116,84
1,45,112,4
1,60,118,4
1,63,115,4
1,69,115,4
1,34,113,112
1,65,116,0
1,74,120,4
1,70,117,4
1,46,108,116
1,70,121,4
1,65,120,4
1,74,115,4
1,34,114,4
1,70,121,4
1,65,118,4
1,74,116,4
1,46,119,8
1,72,120,20
1,84,127,4
