track,note,velocity,time
2,48,78,1536
2,48,78,4
2,48,68,4
2,48,75,4
2,48,70,4
2,48,63,4
2,48,58,4
2,48,70,4
2,48,70,4
2,48,68,4
2,48,65,4
2,48,63,4
2,48,72,4
2,48,63,4
2,48,75,4
2,48,68,4
2,48,78,4
2,48,70,4
2,48,68,4
2,48,75,4
2,40,88,4
2,40,78,4
2,40,63,4
2,40,81,4
2,46,85,4
2,46,79,4
2,46,88,4
2,46,86,4
2,41,92,4
2,41,72,4
2,41,68,4
2,41,92,4
2,48,78,4
2,48,68,4
2,48,81,4
2,48,78,4
2,40,88,4
2,40,88,4
2,40,78,4
2,40,88,4
2,46,92,4
2,46,87,4
2,46,92,4
2,46,92,4
2,41,88,4
2,41,85,4
2,41,92,4
2,41,102,4
2,40,88,4
2,40,81,4
2,40,75,4
2,40,88,4
2,45,81,4
2,45,70,4
2,45,68,4
2,45,88,4
2,40,88,4
2,40,81,4
2,40,92,4
2,40,85,4
2,50,92,4
2,50,70,4
2,43,81,4
2,43,88,4
2,48,56,4
2,48,81,4
2,40,88,4
2,40,78,4
2,46,88,4
2,46,88,4
2,41,78,4
2,41,72,4
2,45,85,4
2,45,85,4
2,43,78,4
2,43,78,4
2,48,72,4
2,48,78,4
2,48,68,4
2,48,78,4
2,48,78,4
2,48,75,4
2,48,78,4
2,48,85,4
2,48,85,4
2,48,81,4
2,48,65,4
2,48,72,4
2,40,88,4
2,40,81,4
2,40,85,4
2,40,78,4
2,46,92,4
2,46,85,4
2,46,85,4
2,46,92,4
2,41,85,4
2,41,85,4
2,41,75,4
2,41,88,4
2,48,68,4
2,48,61,4
2,48,65,4
2,48,75,4
2,40,88,4
2,40,72,4
2,40,78,4
2,40,88,4
2,46,86,4
2,46,81,4
2,46,85,4
2,46,88,4
2,41,70,4
2,41,78,4
2,41,72,4
2,41,75,4
2,40,92,4
2,40,88,4
2,40,81,4
2,40,88,4
2,45,88,4
2,45,85,4
2,45,68,4
2,45,88,4
2,40,92,4
2,40,85,4
2,40,92,4
2,40,81,4
2,50,78,4
2,50,102,4
2,43,92,4
2,43,92,4
2,48,60,4
2,48,63,4
2,40,92,4
2,40,92,4
2,46,92,4
2,46,88,4
2,41,75,4
2,41,70,4
2,45,85,4
2,45,92,4
2,43,78,4
2,43,75,4
2,48,75,4
2,48,72,4
2,48,72,4
2,48,81,4
2,48,72,4
2,48,70,4
2,48,72,4
2,48,78,4
2,43,63,4
2,43,56,4
2,43,58,4
2,43,65,4
2,41,65,4
2,41,68,4
2,41,60,4
2,41,53,4
2,40,75,4
2,40,78,4
2,40,85,4
2,40,78,4
2,45,63,4
2,45,56,4
2,45,65,4
2,45,60,4
2,43,61,4
2,43,63,4
2,43,60,4
2,43,56,4
2,41,70,4
2,41,52,4
2,41,58,4
2,41,48,4
2,40,72,4
2,40,70,4
2,40,78,4
2,40,70,4
2,44,81,4
2,44,81,4
2,44,75,4
2,44,75,4
2,39,68,4
2,39,78,4
2,39,70,4
2,39,81,4
2,41,61,4
2,41,60,4
2,41,58,4
2,41,52,4
2,43,70,4
2,48,102,1156
2,48,78,4
2,48,75,4
2,48,85,4
2,40,88,4
2,40,81,4
2,40,87,4
2,40,88,4
2,46,88,4
2,46,88,4
2,46,88,4
2,46,88,4
2,41,85,4
2,41,78,4
2,41,81,4
2,41,75,4
2,48,79,4
2,48,55,4
2,48,51,4
2,48,81,4
2,40,97,4
2,40,88,4
2,40,85,4
2,40,81,4
2,46,81,4
2,46,97,4
2,46,88,4
2,46,97,4
2,41,97,4
2,41,97,4
2,41,92,4
2,41,102,4
2,40,92,4
2,40,88,4
2,40,85,4
2,40,85,4
2,45,81,4
2,45,72,4
2,45,70,4
2,45,85,4
2,40,92,4
2,40,85,4
2,40,81,4
2,40,88,4
2,50,88,4
2,50,65,4
2,43,85,4
2,43,92,4
2,48,81,4
2,48,88,4
2,40,88,4
2,40,92,4
2,46,97,4
2,46,88,4
2,41,78,4
2,41,75,4
2,45,92,4
2,45,88,4
2,43,85,4
2,43,85,4
2,48,65,4
2,48,75,4
2,48,75,4
2,48,70,4
2,48,88,4
2,48,81,4
2,48,75,4
2,48,88,4
2,43,72,4
2,43,65,4
2,43,65,4
2,43,65,4
2,41,68,4
2,41,52,4
2,41,63,4
2,41,53,4
2,40,61,4
2,40,70,4
2,40,78,4
2,40,85,4
2,45,53,4
2,45,52,4
2,45,68,4
2,45,72,4
2,43,72,4
2,43,75,4
2,43,63,4
2,43,65,4
2,41,61,4
2,41,61,4
2,41,56,4
2,41,63,4
2,40,78,4
2,40,68,4
2,40,75,4
2,40,72,4
2,44,88,4
2,44,78,4
2,44,75,4
2,44,78,4
2,39,78,4
2,39,78,4
2,39,78,4
2,39,78,4
2,41,58,4
2,41,65,4
2,41,56,4
2,41,52,4
2,43,85,4
2,48,85,2692
2,48,70,4
2,48,60,4
2,48,81,4
2,40,81,4
2,40,85,4
2,40,78,4
2,40,85,4
2,46,88,4
2,46,88,4
2,46,85,4
2,46,92,4
2,41,88,4
2,41,97,4
2,41,85,4
2,41,88,4
2,48,78,4
2,48,92,4
2,48,53,4
2,48,72,4
2,40,85,4
2,40,75,4
2,40,81,4
2,40,88,4
2,46,92,4
2,46,81,4
2,46,85,4
2,46,88,4
2,41,78,4
2,41,72,4
2,41,88,4
2,41,102,4
2,40,78,4
2,40,88,4
2,40,85,4
2,40,92,4
2,45,92,4
2,45,88,4
2,45,97,4
2,45,92,4
2,40,85,4
2,40,85,4
2,40,88,4
2,40,85,4
2,50,78,4
2,50,97,4
2,43,85,4
2,43,88,4
2,48,88,4
2,48,78,4
2,40,88,4
2,40,88,4
2,46,88,4
2,46,88,4
2,41,78,4
2,41,81,4
2,45,92,4
2,45,78,4
2,43,78,4
2,43,65,4
2,48,61,4
2,48,70,4
2,48,70,4
2,48,85,4
2,48,92,4
2,40,97,388
2,46,97,388
2,41,88,388
2,43,102,388
2,48,102,1924
3,48,78,1552
3,48,78,164
3,48,68,116
3,48,75,108
3,48,70,104
3,48,63,124
3,48,58,116
3,48,70,160
3,48,70,136
3,48,68,128
3,48,65,140
3,48,63,140
3,48,72,144
3,48,63,144
3,48,75,152
3,48,68,144
3,48,78,144
3,48,70,120
3,48,68,144
3,48,75,152
3,40,88,132
3,40,78,112
3,40,63,96
3,40,81,104
3,46,85,112
3,46,79,112
3,46,88,116
3,46,86,112
3,41,92,132
3,41,72,104
3,41,68,132
3,41,92,136
3,48,78,156
3,48,68,124
3,48,81,120
3,48,78,124
3,40,88,120
3,40,88,112
3,40,78,120
3,40,88,112
3,46,92,96
3,46,87,100
3,46,92,104
3,46,92,108
3,41,88,144
3,41,85,104
3,41,92,128
3,41,102,156
3,40,88,176
3,40,81,144
3,40,75,156
3,40,88,144
3,45,81,144
3,45,70,148
3,45,68,156
3,45,88,164
3,40,88,148
3,40,81,140
3,40,92,136
3,40,85,152
3,50,92,140
3,50,70,128
3,43,81,144
3,43,88,124
3,48,56,164
3,48,81,160
3,40,88,152
3,40,78,140
3,46,88,132
3,46,88,124
3,41,78,160
3,41,72,168
3,45,85,164
3,45,85,168
3,43,78,136
3,43,78,156
3,48,72,136
3,48,78,152
3,48,68,176
3,48,78,168
3,48,78,184
3,48,75,196
3,48,78,192
3,48,85,184
3,48,85,188
3,48,81,132
3,48,65,136
3,48,72,132
3,40,88,112
3,40,81,112
3,40,85,100
3,40,78,100
3,46,92,104
3,46,85,100
3,46,85,80
3,46,92,108
3,41,85,120
3,41,85,108
3,41,75,120
3,41,88,140
3,48,68,176
3,48,61,128
3,48,65,136
3,48,75,136
3,40,88,124
3,40,72,108
3,40,78,152
3,40,88,148
3,46,86,160
3,46,81,124
3,46,85,112
3,46,88,128
3,41,70,160
3,41,78,124
3,41,72,156
3,41,75,156
3,40,92,156
3,40,88,152
3,40,81,124
3,40,88,136
3,45,88,144
3,45,85,140
3,45,68,152
3,45,88,148
3,40,92,152
3,40,85,140
3,40,92,148
3,40,81,148
3,50,78,160
3,50,102,156
3,43,92,144
3,43,92,144
3,48,60,172
3,48,63,140
3,40,92,124
3,40,92,132
3,46,92,104
3,46,88,104
3,41,75,156
3,41,70,132
3,45,85,160
3,45,92,148
3,43,78,128
3,43,75,144
3,48,75,164
3,48,72,144
3,48,72,152
3,48,81,192
3,48,72,164
3,48,70,192
3,48,72,204
3,48,78,196
3,43,63,264
3,43,56,124
3,43,58,128
3,43,65,128
3,41,65,148
3,41,68,128
3,41,60,152
3,41,53,168
3,40,75,160
3,40,78,176
3,40,85,140
3,40,78,136
3,45,63,132
3,45,56,144
3,45,65,168
3,45,60,160
3,43,61,152
3,43,63,140
3,43,60,140
3,43,56,144
3,41,70,160
3,41,52,144
3,41,58,172
3,41,48,160
3,40,72,148
3,40,70,160
3,40,78,144
3,40,70,152
3,44,81,176
3,44,81,120
3,44,75,132
3,44,75,136
3,39,68,128
3,39,78,132
3,39,70,132
3,39,81,136
3,41,61,156
3,41,60,128
3,41,58,152
3,41,52,152
3,43,70,176
3,48,102,1360
3,48,78,164
3,48,75,160
3,48,85,144
3,40,88,144
3,40,81,132
3,40,87,128
3,40,88,128
3,46,88,124
3,46,88,108
3,46,88,100
3,46,88,120
3,41,85,132
3,41,78,100
3,41,81,116
3,41,75,144
3,48,79,188
3,48,55,116
3,48,51,124
3,48,81,144
3,40,97,128
3,40,88,144
3,40,85,132
3,40,81,160
3,46,81,104
3,46,97,116
3,46,88,120
3,46,97,132
3,41,97,156
3,41,97,132
3,41,92,140
3,41,102,164
3,40,92,284
3,40,88,120
3,40,85,140
3,40,85,144
3,45,81,148
3,45,72,132
3,45,70,156
3,45,85,156
3,40,92,160
3,40,85,132
3,40,81,152
3,40,88,164
3,50,88,180
3,50,65,124
3,43,85,160
3,43,92,140
3,48,81,152
3,48,88,136
3,40,88,136
3,40,92,148
3,46,97,136
3,46,88,124
3,41,78,152
3,41,75,144
3,45,92,148
3,45,88,140
3,43,85,144
3,43,85,156
3,48,65,176
3,48,75,184
3,48,75,204
3,48,70,216
3,48,88,240
3,48,81,264
3,48,75,216
3,48,88,236
3,43,72,264
3,43,65,140
3,43,65,144
3,43,65,160
3,41,68,160
3,41,52,156
3,41,63,176
3,41,53,172
3,40,61,152
3,40,70,164
3,40,78,140
3,40,85,152
3,45,53,148
3,45,52,140
3,45,68,152
3,45,72,132
3,43,72,140
3,43,75,144
3,43,63,120
3,43,65,156
3,41,61,164
3,41,61,164
3,41,56,160
3,41,63,188
3,40,78,164
3,40,68,176
3,40,75,160
3,40,72,144
3,44,88,180
3,44,78,128
3,44,75,136
3,44,78,136
3,39,78,132
3,39,78,128
3,39,78,136
3,39,78,148
3,41,58,148
3,41,65,132
3,41,56,152
3,41,52,164
3,43,85,180
3,48,85,2948
3,48,70,200
3,48,60,164
3,48,81,176
3,40,81,160
3,40,85,140
3,40,78,140
3,40,85,140
3,46,88,160
3,46,88,120
3,46,85,140
3,46,92,136
3,41,88,140
3,41,97,124
3,41,85,148
3,41,88,160
3,48,78,184
3,48,92,168
3,48,53,144
3,48,72,144
3,40,85,160
3,40,75,148
3,40,81,152
3,40,88,172
3,46,92,172
3,46,81,124
3,46,85,132
3,46,88,148
3,41,78,160
3,41,72,136
3,41,88,228
3,41,102,212
3,40,78,216
3,40,88,136
3,40,85,136
3,40,92,128
3,45,92,148
3,45,88,136
3,45,97,140
3,45,92,148
3,40,85,136
3,40,85,144
3,40,88,144
3,40,85,156
3,50,78,172
3,50,97,152
3,43,85,152
3,43,88,140
3,48,88,180
3,48,78,144
3,40,88,144
3,40,88,148
3,46,88,136
3,46,88,140
3,41,78,176
3,41,81,140
3,45,92,180
3,45,78,156
3,43,78,176
3,43,65,168
3,48,61,176
3,48,70,180
3,48,70,216
3,48,85,200
3,48,92,224
3,40,97,428
3,46,97,488
3,41,88,520
3,43,102,484
3,48,102,2016
4,64,67,20336
4,67,79,8
4,71,79,4
4,64,67,720
4,67,67,8
4,71,67,16
4,64,63,728
4,69,66,20
4,72,95,4
4,64,63,736
4,69,65,8
4,72,79,4
4,64,67,712
4,67,79,16
4,71,67,0
4,64,63,720
4,67,79,8
4,71,66,16
4,65,59,732
4,69,79,12
4,72,79,4
4,62,67,708
4,67,79,12
4,71,69,0
4,64,67,720
4,67,66,16
4,72,95,0
4,62,63,704
4,67,79,12
4,71,63,8
4,62,65,692
4,65,79,8
4,70,79,8
4,65,63,728
4,69,67,8
4,60,85,4
4,64,55,704
4,69,79,8
4,72,85,8
4,62,55,728
4,67,67,12
4,71,67,12
4,64,63,708
4,67,69,16
4,72,79,8
4,64,55,720
4,72,85,20
4,67,55,0
4,64,69,728
4,67,69,8
4,72,79,12
4,64,69,728
4,67,66,8
4,72,79,4
4,64,67,736
4,67,67,12
4,72,87,0
4,64,63,684
4,67,63,12
4,72,79,8
4,64,63,744
4,67,69,12
4,71,63,12
4,64,63,708
4,67,70,12
4,71,79,4
4,62,55,720
4,65,79,8
4,70,69,8
4,62,63,720
4,70,79,16
4,65,59,0
4,65,63,728
4,72,85,8
4,69,70,4
4,65,55,720
4,72,79,16
4,69,67,0
4,64,59,704
4,67,63,4
4,72,79,8
4,64,55,740
4,67,63,12
4,72,79,4
4,64,63,704
4,67,79,12
4,71,79,12
4,64,63,716
4,67,67,12
4,71,85,4
4,62,67,700
4,65,67,8
4,70,79,12
4,62,63,704
4,65,67,12
4,70,85,12
4,65,63,720
4,72,85,12
4,69,79,0
4,65,59,700
4,72,79,16
4,69,66,0
4,64,45,740
4,67,43,4
4,71,39,24
4,71,47,20
4,67,54,12
4,64,59,4
4,64,63,460
4,67,55,16
4,71,55,0
4,64,46,716
4,69,63,4
4,72,67,12
4,64,51,728
4,69,55,16
4,72,65,8
4,64,55,712
4,67,55,20
4,71,55,12
4,76,55,564
4,67,47,48
4,64,63,0
4,71,55,32
4,65,55,700
4,72,70,16
4,69,63,4
4,62,55,720
4,67,63,12
4,71,67,12
4,64,69,716
4,67,69,16
4,72,79,4
4,62,63,704
4,67,79,12
4,71,67,12
4,62,55,700
4,65,63,12
4,70,79,8
4,65,65,688
4,69,79,8
4,72,85,8
4,64,69,708
4,69,70,12
4,72,79,8
4,62,55,720
4,67,67,8
4,71,79,16
4,64,66,692
4,67,65,8
4,72,79,4
4,64,63,688
4,67,65,0
4,72,85,8
4,64,59,736
4,67,65,4
4,72,85,4
4,64,63,696
4,67,55,4
4,72,79,4
4,67,55,576
4,74,63,12
4,71,55,0
4,79,66,4
4,67,51,228
4,79,59,16
4,74,55,0
4,71,47,0
4,67,55,236
4,71,53,12
4,74,55,0
4,79,54,4
4,67,55,248
4,79,47,8
4,71,55,0
4,74,53,8
4,69,34,240
4,72,55,4
4,77,53,4
4,81,55,8
4,72,54,240
4,69,32,0
4,77,54,12
4,81,55,8
4,69,39,260
4,72,51,4
4,77,53,8
4,81,55,0
4,68,45,236
4,71,51,4
4,76,59,8
4,80,63,4
4,68,46,232
4,71,47,4
4,76,51,4
4,80,63,8
4,71,54,240
4,68,52,4
4,76,54,8
4,80,63,4
4,71,47,232
4,68,46,0
4,80,63,12
4,76,31,0
4,72,47,232
4,69,54,0
4,81,54,12
4,76,46,0
4,69,39,220
4,72,55,0
4,76,35,20
4,81,55,0
4,69,45,220
4,72,52,4
4,81,63,12
4,76,43,8
4,69,46,236
4,72,55,4
4,81,55,12
4,76,43,12
4,69,47,204
4,72,55,8
4,81,55,8
4,76,39,4
4,67,55,232
4,71,55,8
4,74,46,12
4,79,63,4
4,67,51,232
4,71,53,12
4,74,55,4
4,79,69,8
4,67,51,240
4,71,47,12
4,74,55,4
4,79,67,8
4,67,47,196
4,71,55,12
4,74,45,0
4,72,59,208
4,69,39,0
4,77,63,8
4,81,55,8
4,72,55,240
4,69,38,0
4,77,55,8
4,81,54,12
4,69,43,244
4,72,59,4
4,77,51,8
4,81,55,4
4,69,39,212
4,72,55,4
4,77,47,8
4,81,54,0
4,68,39,200
