track,note,velocity,time
1,69,79,2880
1,69,0,480
1,65,73,0
1,65,0,240
1,62,70,0
1,62,0,1440
1,65,72,0
1,65,0,240
1,69,77,0
1,69,0,360
1,74,78,0
1,74,0,120
1,72,77,0
1,72,0,1320
1,70,75,0
1,70,0,120
1,69,70,0
1,69,0,720
1,69,77,600
1,69,0,120
1,69,77,0
1,69,0,480
1,65,63,120
1,62,63,36
1,65,0,4
1,62,0,24
1,64,63,0
1,64,0,28
1,65,63,0
1,65,0,28
1,64,72,0
1,64,0,240
1,62,72,0
1,62,0,240
1,65,70,720
1,65,0,240
1,69,72,0
1,69,0,240
1,74,76,0
1,74,0,360
1,77,77,0
1,77,0,120
1,76,79,0
1,76,0,1320
1,74,79,0
1,74,0,120
1,69,79,0
1,69,0,360
1,69,57,0
1,69,0,60
1,71,57,0
1,71,0,60
1,72,58,0
1,72,0,60
1,71,58,0
1,71,0,60
1,72,59,0
1,72,0,60
1,71,59,0
1,71,0,60
1,72,60,0
1,72,0,60
1,71,60,0
1,71,0,60
1,72,61,0
1,72,0,60
1,71,61,0
1,71,0,60
1,72,62,0
1,72,0,60
1,71,62,0
1,71,0,60
1,72,63,0
1,72,0,60
1,71,63,0
1,71,0,60
1,72,63,0
1,72,0,60
1,71,63,0
1,71,0,60
1,69,64,0
1,69,0,60
1,71,64,0
1,71,0,60
1,72,79,0
1,72,0,720
1,70,78,0
1,70,0,480
1,69,73,0
1,69,0,240
1,67,60,0
1,67,0,60
1,69,61,0
1,69,0,60
1,67,61,0
1,67,0,60
1,69,62,0
1,69,0,60
1,67,63,0
1,67,0,60
1,69,63,0
1,69,0,60
1,67,63,0
1,67,0,60
1,69,64,0
1,69,0,60
1,67,64,0
1,67,0,60
1,69,65,0
1,69,0,60
1,65,66,0
1,65,0,60
1,67,67,0
1,67,0,60
1,69,78,0
1,69,0,480
1,65,78,120
1,65,0,120
1,60,72,0
1,60,0,1440
1,60,72,0
1,60,0,144
1,62,61,0
1,62,0,48
1,60,62,0
1,60,0,48
1,59,63,0
1,59,0,48
1,60,63,0
1,60,0,48
1,62,63,0
1,62,0,48
1,64,64,0
1,64,0,48
1,65,64,0
1,65,0,48
1,67,65,0
1,67,0,48
1,69,66,0
1,69,0,48
1,70,66,0
1,70,0,48
1,72,67,0
1,72,0,48
1,74,68,0
1,74,0,48
1,76,69,0
1,76,0,48
1,77,69,0
1,77,0,48
1,79,70,0
1,79,0,48
1,81,71,0
1,81,0,48
1,82,71,0
1,82,0,48
1,84,72,0
1,84,0,48
1,86,72,0
1,86,0,48
1,88,72,0
1,88,0,48
1,89,73,0
1,89,0,48
1,91,74,0
1,91,0,48
1,93,75,0
1,93,0,48
1,94,75,0
1,94,0,48
1,96,76,0
1,96,0,48
1,98,77,0
1,98,0,48
1,100,77,0
1,100,0,48
1,101,90,0
1,101,0,480
1,71,64,960
1,71,0,60
1,72,64,0
1,72,0,60
1,71,64,0
1,71,0,60
1,72,64,0
1,72,0,60
1,71,64,0
1,71,0,60
1,72,64,0
1,72,0,60
1,71,65,0
1,71,0,60
1,72,65,0
1,72,0,60
1,71,65,0
1,71,0,60
1,72,65,0
1,72,0,60
1,69,65,0
1,69,0,60
1,71,65,0
1,71,0,60
1,72,77,0
1,72,0,480
1,69,77,120
1,69,0,120
1,64,76,0
1,64,0,480
1,89,87,0
1,89,0,276
1,88,74,0
1,88,0,57
1,84,73,0
1,84,0,57
1,81,72,0
1,81,0,57
1,77,72,0
1,77,0,57
1,76,72,0
1,76,0,57
1,72,72,0
1,72,0,57
1,69,71,0
1,69,0,57
1,65,70,0
1,65,0,57
1,64,70,0
1,64,0,57
1,60,69,0
1,60,0,57
1,57,68,0
1,57,0,57
1,53,68,0
1,53,0,57
1,52,85,0
1,52,0,480
1,52,64,0
1,52,0,96
1,53,65,0
1,53,0,32
1,52,66,0
1,52,0,32
1,51,67,0
1,51,0,32
1,52,67,0
1,52,0,32
1,54,68,0
1,54,0,32
1,56,68,0
1,56,0,32
1,57,68,0
1,57,0,32
1,59,69,0
1,59,0,32
1,60,69,0
1,60,0,32
1,62,70,0
1,62,0,32
1,64,70,0
1,64,0,32
1,66,71,0
1,66,0,32
1,68,71,0
1,68,0,32
1,69,72,0
1,69,0,32
1,71,72,0
1,71,0,32
1,72,72,0
1,72,0,32
1,74,72,0
1,74,0,32
1,76,73,0
1,76,0,32
1,78,74,0
1,78,0,32
1,80,74,0
1,80,0,32
1,81,75,0
1,81,0,32
1,83,75,0
1,83,0,32
1,84,76,0
1,84,0,32
1,86,76,0
1,86,0,32
1,88,77,0
1,88,0,32
1,90,77,0
1,90,0,32
1,92,78,0
1,92,0,32
1,93,85,0
1,93,0,480
1,64,77,2400
1,64,0,480
1,60,70,0
1,60,0,240
1,57,67,0
1,57,0,1440
1,60,72,0
1,60,0,240
1,64,77,0
1,64,0,360
1,69,78,0
1,69,0,120
1,67,77,0
1,67,0,1320
1,65,75,0
1,65,0,120
1,64,70,0
1,64,0,720
1,64,77,600
1,64,0,120
1,64,77,0
1,64,0,480
1,60,63,120
1,57,63,36
1,60,0,4
1,57,0,24
1,59,63,0
1,59,0,28
1,60,63,0
1,60,0,28
1,59,72,0
1,59,0,240
1,57,72,0
1,57,0,240
1,60,70,720
1,60,0,240
1,64,72,0
1,64,0,240
1,69,76,0
1,69,0,360
1,72,77,0
1,72,0,120
1,71,79,0
1,71,0,1320
1,69,79,0
1,69,0,120
1,64,79,0
1,64,0,360
1,64,57,0
1,64,0,60
1,66,57,0
1,66,0,60
1,67,58,0
1,67,0,60
1,66,58,0
1,66,0,60
1,67,59,0
1,67,0,60
1,66,59,0
1,66,0,60
1,67,60,0
1,67,0,60
1,66,60,0
1,66,0,60
1,67,61,0
1,67,0,60
1,66,61,0
1,66,0,60
1,67,62,0
1,67,0,60
1,66,62,0
1,66,0,60
1,67,63,0
1,67,0,60
1,66,63,0
1,66,0,60
1,67,63,0
1,67,0,60
1,66,63,0
1,66,0,60
1,64,64,0
1,64,0,60
1,66,64,0
1,66,0,60
1,67,79,0
1,67,0,720
1,65,78,0
1,65,0,480
1,64,77,0
1,64,0,240
1,62,60,0
1,62,0,60
1,64,61,0
1,64,0,60
1,62,61,0
1,62,0,60
1,64,62,0
1,64,0,60
1,62,63,0
1,62,0,60
1,64,63,0
1,64,0,60
1,62,63,0
1,62,0,60
1,64,64,0
1,64,0,60
1,62,64,0
1,62,0,60
1,64,65,0
1,64,0,60
1,60,66,0
1,60,0,60
1,62,67,0
1,62,0,60
1,64,78,0
1,64,0,480
1,60,78,120
1,60,0,120
1,55,72,0
1,55,0,1440
1,55,72,0
1,55,0,144
1,57,61,0
1,57,0,48
1,55,62,0
1,55,0,48
1,54,63,0
1,54,0,48
1,55,63,0
1,55,0,48
1,57,63,0
1,57,0,48
1,59,64,0
1,59,0,48
1,60,64,0
1,60,0,48
1,62,65,0
1,62,0,48
1,64,66,0
1,64,0,48
1,65,66,0
1,65,0,48
1,67,67,0
1,67,0,48
1,69,68,0
1,69,0,48
1,71,69,0
1,71,0,48
1,72,69,0
1,72,0,48
1,74,70,0
1,74,0,48
1,76,71,0
1,76,0,48
1,77,71,0
1,77,0,48
1,79,72,0
1,79,0,48
1,81,72,0
1,81,0,48
1,83,72,0
1,83,0,48
1,84,73,0
1,84,0,48
1,86,74,0
1,86,0,48
1,88,75,0
1,88,0,48
1,89,75,0
1,89,0,48
1,91,76,0
1,91,0,48
1,93,77,0
1,93,0,48
1,95,77,0
1,95,0,48
1,96,90,0
1,96,0,480
1,66,64,960
1,66,0,60
1,67,64,0
1,67,0,60
1,66,64,0
1,66,0,60
1,67,64,0
1,67,0,60
1,66,64,0
1,66,0,60
1,67,64,0
1,67,0,60
1,66,65,0
1,66,0,60
1,67,65,0
1,67,0,60
1,66,65,0
1,66,0,60
1,67,65,0
1,67,0,60
1,64,65,0
1,64,0,60
1,66,65,0
1,66,0,60
1,67,77,0
1,67,0,480
1,64,77,120
1,64,0,120
1,59,76,0
1,59,0,480
1,84,87,0
1,84,0,288
1,83,74,0
1,83,0,56
1,79,73,0
1,79,0,56
1,76,72,0
1,76,0,56
1,72,72,0
1,72,0,56
1,71,72,0
1,71,0,56
1,67,72,0
1,67,0,56
1,64,71,0
1,64,0,56
1,60,70,0
1,60,0,56
1,59,70,0
1,59,0,56
1,55,69,0
1,55,0,56
1,52,68,0
1,52,0,56
1,48,68,0
1,48,0,56
1,47,90,0
1,47,0,792
1,48,60,0
1,48,0,36
1,51,62,0
1,51,0,36
1,54,63,0
1,54,0,36
1,57,63,0
1,57,0,36
1,60,64,0
1,60,0,36
1,63,65,0
1,63,0,36
1,66,67,0
1,66,0,36
1,69,68,0
1,69,0,36
1,72,69,0
1,72,0,36
1,75,71,0
1,75,0,36
1,78,72,0
1,78,0,36
1,81,72,0
1,81,0,36
1,84,73,0
1,84,0,36
1,87,75,0
1,87,0,36
1,90,76,0
1,90,0,36
1,93,77,0
1,93,0,36
1,96,78,0
1,96,0,36
1,99,79,0
1,99,0,36
1,100,90,0
1,100,0,480
1,67,79,240
1,67,0,1200
1,67,78,0
1,67,0,160
1,67,72,0
1,67,0,40
1,70,72,0
1,70,0,40
1,68,80,0
1,68,0,480
1,67,78,120
1,67,0,120
1,67,77,0
1,67,0,480
1,63,80,0
1,63,0,240
1,60,78,0
1,60,0,1440
1,63,76,0
1,63,0,240
1,67,78,0
1,67,0,360
1,72,81,0
1,72,0,120
1,70,81,0
1,70,0,480
1,68,79,0
1,68,0,240
1,63,79,0
1,68,81,960
1,63,0,36
1,68,0,324
1,68,78,0
1,68,0,120
1,68,74,0
1,65,76,120
1,65,0,120
1,66,78,0
1,66,0,120
1,63,80,0
1,63,0,120
1,66,81,0
1,66,0,120
1,56,82,0
1,56,0,120
1,68,0,0
1,68,84,0
1,68,0,480
1,65,82,0
1,65,0,240
1,61,82,0
1,61,0,1200
1,65,77,0
1,65,0,240
1,68,79,0
1,68,0,240
1,73,81,0
1,73,0,360
1,77,82,0
1,77,0,120
1,75,79,0
1,75,0,480
1,73,77,0
1,73,0,240
1,68,72,0
1,68,0,720
1,65,54,480
1,65,0,240
1,68,56,0
1,68,0,240
1,73,58,0
1,73,0,360
1,77,61,0
1,77,0,120
1,75,60,0
1,75,0,480
1,73,59,0
1,73,0,240
1,69,52,0
1,69,0,960
1,69,60,0
1,69,0,240
1,69,58,0
1,69,0,240
1,69,62,0
1,69,0,240
1,65,55,0
1,65,0,240
1,67,62,120
1,67,0,120
1,69,62,0
1,69,0,1680
1,69,62,0
1,81,62,0
1,81,0,240
1,69,0,0
1,81,64,0
1,69,64,0
1,69,0,240
1,81,0,0
1,69,67,0
1,81,67,0
1,81,0,180
1,69,0,0
1,84,60,0
1,72,60,0
1,72,0,60
1,84,0,0
1,82,66,0
1,70,66,0
1,70,0,360
1,82,0,0
1,69,72,0
1,81,72,0
1,81,0,120
1,69,0,0
1,69,68,0
1,81,68,0
1,81,0,480
1,69,0,0
1,65,66,0
1,77,66,0
1,77,0,240
1,65,0,0
1,74,66,0
1,62,66,0
1,74,0,1160
1,62,0,20
1,65,70,20
1,77,70,0
1,77,0,240
1,65,0,0
1,81,72,0
1,69,72,0
1,69,0,240
1,81,0,0
1,86,75,0
1,74,75,0
1,74,0,360
1,86,0,0
1,89,79,0
1,77,79,0
1,77,0,120
1,89,0,0
1,88,81,0
1,76,81,0
1,76,0,480
1,88,0,0
1,86,76,0
1,74,76,0
1,74,0,240
1,86,0,0
1,67,80,0
1,79,80,0
1,79,0,240
1,67,0,0
1,86,83,0
1,74,83,0
1,74,0,360
1,86,0,0
1,89,84,0
1,77,84,0
1,77,0,120
1,89,0,0
1,76,84,0
1,88,84,0
1,88,0,480
1,76,0,0
1,86,82,0
1,74,82,0
1,74,0,240
1,86,0,0
1,80,78,0
1,68,78,0
1,68,0,240
1,80,0,0
1,74,81,0
1,86,81,0
1,86,0,240
1,74,0,0
1,89,83,0
1,77,83,0
1,77,0,240
1,89,0,0
1,98,72,0
1,101,72,0
1,101,0,80
1,98,0,0
1,100,72,0
1,97,72,0
1,97,0,80
1,100,0,0
1,96,72,0
1,99,72,0
1,99,0,80
1,96,0,0
1,98,71,0
1,95,71,0
1,95,0,80
1,98,0,0
1,97,71,0
1,94,71,0
1,94,0,80
1,97,0,0
1,93,71,0
1,96,71,0
1,96,0,80
1,93,0,0
1,95,70,0
1,92,70,0
1,92,0,80
1,95,0,0
1,91,70,0
1,94,70,0
1,94,0,80
1,91,0,0
1,93,70,0
1,90,70,0
1,90,0,80
1,93,0,0
1,92,69,0
1,89,69,0
1,89,0,80
1,92,0,0
1,88,69,0
1,91,69,0
1,91,0,80
1,88,0,0
1,87,69,0
1,90,69,0
1,90,0,80
1,87,0,0
1,89,68,0
1,86,68,0
1,86,0,80
1,89,0,0
1,85,68,0
1,88,68,0
1,88,0,80
1,85,0,0
1,84,68,0
1,87,68,0
1,87,0,80
1,84,0,0
1,83,67,0
1,86,67,0
1,86,0,80
1,83,0,0
1,85,67,0
1,82,67,0
1,82,0,80
1,85,0,0
1,84,67,0
1,81,67,0
1,81,0,80
1,84,0,0
1,80,66,0
1,83,66,0
1,83,0,80
1,80,0,0
1,82,66,0
1,79,66,0
1,79,0,80
1,82,0,0
1,78,66,0
1,81,66,0
1,81,0,80
1,78,0,0
1,80,65,0
1,77,65,0
1,77,0,80
1,80,0,0
1,79,65,0
1,76,65,0
1,76,0,80
1,79,0,0
1,75,65,0
1,78,65,0
1,78,0,80
1,75,0,0
1,77,64,0
1,74,64,0
1,74,0,80
1,77,0,0
1,73,64,0
1,76,64,0
1,76,0,80
1,73,0,0
1,75,64,0
1,72,64,0
1,72,0,80
1,75,0,0
1,74,64,0
1,71,64,0
1,71,0,80
1,74,0,0
1,70,64,0
1,73,64,0
1,73,0,80
1,70,0,0
1,72,64,0
1,69,64,0
1,69,0,80
1,72,0,0
1,68,63,0
1,71,63,0
1,71,0,80
1,68,0,0
1,70,63,0
1,67,63,0
1,67,0,80
1,70,0,0
1,69,63,0
1,66,63,0
1,66,0,80
1,69,0,0
1,65,63,0
1,68,63,0
1,68,0,80
1,65,0,0
1,64,63,0
1,67,63,0
1,67,0,80
1,64,0,0
1,62,63,0
1,67,63,0
1,67,0,80
1,62,0,0
1,57,85,0
1,57,0,480
1,69,83,120
1,69,0,120
1,69,86,0
1,69,0,960
1,67,81,0
1,67,0,360
1,65,78,0
1,65,0,120
1,64,76,0
1,64,0,120
1,65,78,0
1,65,0,100
1,64,78,0
1,64,0,100
1,62,78,0
1,62,0,100
1,64,78,0
1,64,0,100
1,65,78,0
1,65,0,100
1,62,73,0
1,62,0,100
1,69,78,0
1,57,78,0
1,57,0,240
1,69,0,0
1,81,84,240
1,69,84,0
1,69,0,120
1,81,0,0
1,93,84,120
1,81,84,0
1,81,0,960
1,93,0,0
1,91,85,0
1,79,85,0
1,79,0,360
1,91,0,0
1,89,87,0
1,77,87,0
1,77,0,120
1,89,0,0
1,88,80,0
1,76,80,0
1,76,0,120
1,88,0,0
1,89,82,0
1,77,82,0
1,77,0,100
1,89,0,0
1,88,82,0
1,76,82,0
1,76,0,100
1,88,0,0
1,86,82,0
1,74,82,0
1,74,0,100
1,86,0,0
1,88,82,0
1,76,82,0
1,76,0,100
1,88,0,0
1,89,82,0
1,77,82,0
1,77,0,100
1,89,0,0
1,86,82,40
1,74,82,0
1,74,0,60
1,86,0,0
1,82,89,0
1,94,89,0
1,94,0,240
1,82,0,0
1,88,84,0
1,76,84,0
1,76,0,240
1,88,0,0
1,77,84,0
1,89,84,0
1,89,0,240
1,77,0,0
1,93,87,0
1,81,87,0
1,81,0,240
1,93,0,0
1,91,84,0
1,79,84,0
1,79,0,240
1,91,0,0
1,70,84,0
1,82,84,0
1,82,0,240
1,70,0,0
1,74,88,0
1,86,88,0
1,86,0,240
1,74,0,0
1,79,83,0
1,67,83,0
1,67,0,240
1,79,0,0
