track,note,velocity,time
0,56,86,96
0,59,83,0
0,63,88,0
0,56,89,0
0,59,91,0
0,63,87,0
0,32,99,0
0,54,45,0
0,35,118,0
0,42,47,0
0,49,72,0
0,63,99,0
0,68,99,0
0,71,97,0
0,54,42,0
0,42,46,0
0,54,40,6
0,61,95,24
0,66,94,0
0,70,102,0
0,54,47,0
0,38,122,0
0,42,40,0
0,59,95,24
0,63,98,0
0,68,101,0
0,56,81,0
0,59,79,0
0,63,88,0
0,56,92,0
0,59,92,0
0,63,87,0
0,32,101,0
0,54,42,0
0,35,88,0
0,42,40,0
0,54,47,0
0,56,79,48
0,59,81,0
0,63,79,0
0,56,91,0
0,59,90,0
0,63,91,0
0,32,101,0
0,54,47,0
0,35,116,0
0,42,38,0
0,56,101,72
0,59,102,0
0,63,97,0
0,54,40,0
0,42,39,0
0,54,47,24
0,56,91,48
0,59,87,0
0,63,92,0
0,32,100,0
0,54,45,0
0,38,115,0
0,42,38,0
0,51,99,24
0,56,99,0
0,59,94,0
0,56,82,0
0,59,80,0
0,63,79,0
0,56,94,0
0,59,92,0
0,63,87,0
0,32,102,0
0,54,41,0
0,42,39,0
0,54,40,0
0,56,102,0
0,61,101,0
0,64,98,0
0,56,79,0
0,61,85,0
0,64,88,0
0,56,88,0
0,61,89,0
0,64,89,0
0,37,106,0
0,54,47,0
0,35,117,0
0,42,40,0
0,56,98,24
0,59,102,0
0,63,103,0
0,54,42,0
0,42,46,0
0,54,47,92
0,56,102,0
0,61,94,0
0,64,98,0
0,54,42,0
0,38,121,0
0,42,46,0
0,56,103,24
0,59,99,0
0,63,102,0
0,56,84,0
0,59,86,0
0,63,85,0
0,56,93,0
0,59,87,0
0,63,89,0
0,32,97,0
0,54,44,0
0,35,90,0
0,42,40,0
0,54,40,0
0,54,46,92
0,42,40,0
0,54,48,0
0,35,113,0
0,42,46,0
0,54,41,24
0,54,94,0
0,58,98,0
0,61,96,0
0,54,80,0
0,58,80,0
0,61,83,0
0,54,94,0
0,58,86,0
0,61,89,0
0,30,105,0
0,54,48,0
0,35,118,0
0,42,44,0
0,56,97,24
0,59,96,0
0,63,99,0
0,54,48,0
0,42,44,0
0,54,43,92
0,54,102,24
0,58,99,0
0,61,103,0
0,54,48,0
0,38,121,0
0,42,45,0
0,56,99,24
0,59,99,0
0,63,99,0
0,51,80,0
0,56,84,0
0,59,88,0
0,51,92,0
0,56,88,0
0,59,90,0
0,32,105,0
0,54,48,0
0,35,121,0
0,49,71,0
0,54,46,92
0,32,102,0
0,54,48,0
0,35,117,0
0,42,47,0
0,54,46,188
0,42,42,0
0,54,42,0
0,54,43,92
0,38,116,0
0,42,47,0
0,51,94,48
0,56,102,0
0,59,99,0
0,51,84,0
0,56,80,0
0,59,84,0
0,51,87,0
0,56,94,0
0,59,85,0
0,32,105,0
0,54,40,0
0,35,119,0
0,42,45,0
0,54,45,0
0,32,99,48
0,54,41,0
0,35,113,0
0,42,44,0
0,54,48,0
0,42,45,0
0,54,47,24
0,56,96,0
0,59,97,0
0,63,101,0
0,51,87,0
0,56,85,0
0,59,85,0
0,51,85,0
0,56,88,0
0,59,93,0
0,54,48,0
0,38,122,0
0,42,46,0
0,51,90,0
0,56,89,0
0,59,94,0
0,32,103,0
0,54,45,0
0,42,44,0
0,54,44,24
0,56,85,48
0,59,91,0
0,63,86,0
0,32,106,0
0,54,47,0
0,35,120,0
0,42,47,0
0,56,92,120
0,59,93,0
0,63,94,0
0,54,43,0
0,42,47,0
0,54,45,24
0,56,93,92
0,59,94,0
0,63,94,0
0,54,46,0
0,38,118,0
0,42,43,0
0,56,85,48
0,59,88,0
0,63,85,0
0,32,103,0
0,54,46,0
0,35,115,0
0,42,38,0
0,54,49,24
0,54,88,48
0,58,94,0
0,61,94,0
0,30,98,0
0,54,46,0
0,35,117,0
0,42,42,0
0,59,97,120
0,63,103,0
0,68,102,0
0,54,85,0
0,58,82,0
0,61,79,0
0,54,42,0
0,42,47,0
0,45,84,0
0,54,41,0
0,61,98,24
0,66,103,0
0,70,94,0
0,54,80,0
0,58,83,0
0,61,84,0
0,54,86,0
0,58,90,0
0,61,92,0
0,54,45,0
0,42,40,0
0,45,90,0
0,63,95,0
0,68,100,0
0,71,101,0
0,51,88,0
0,56,88,0
0,59,82,0
0,54,92,0
0,58,89,0
0,61,88,0
0,30,102,0
0,54,41,0
0,57,72,0
0,54,49,6
0,56,90,48
0,59,91,0
0,63,90,0
0,32,103,0
0,54,45,0
0,35,119,0
0,42,44,0
0,61,102,72
0,66,96,0
0,70,99,0
0,54,46,0
0,42,42,0
0,54,47,92
0,54,48,92
0,38,119,0
0,42,45,0
0,59,96,48
0,63,98,0
0,68,100,0
0,51,86,0
0,56,80,0
0,59,80,0
0,56,91,0
0,59,88,0
0,63,88,0
0,32,99,0
0,54,45,0
0,35,114,0
0,42,45,0
0,54,45,24
0,56,87,48
0,59,90,0
0,63,93,0
0,32,103,0
0,54,43,0
0,35,116,0
0,42,40,0
0,56,98,72
0,59,96,0
0,63,101,0
0,51,86,0
0,56,84,0
0,59,80,0
0,54,45,0
0,42,47,0
0,54,40,24
0,56,85,48
0,59,86,0
0,63,92,0
0,32,99,0
0,54,43,0
0,38,120,0
0,42,39,0
0,51,95,48
0,56,96,0
0,59,100,0
0,51,87,0
0,56,80,0
0,59,86,0
0,56,90,0
0,59,87,0
0,63,88,0
0,32,101,0
0,54,49,0
0,42,40,0
0,54,41,0
0,56,98,0
0,61,97,0
0,64,95,0
0,52,80,0
0,56,79,0
0,61,82,0
0,56,94,0
0,61,94,0
0,64,88,0
0,37,102,0
0,54,46,0
0,35,121,0
0,42,45,0
0,56,94,24
0,59,98,0
0,63,95,0
0,54,40,0
0,42,44,0
0,54,49,92
0,56,99,0
0,61,94,0
0,64,103,0
0,54,48,0
0,38,119,0
0,42,43,0
0,56,97,24
0,59,95,0
0,63,97,0
0,56,83,0
0,59,85,0
0,63,85,0
0,56,89,0
0,59,86,0
0,63,93,0
0,32,97,0
0,54,47,0
0,35,116,0
0,42,47,0
0,54,47,0
0,54,48,92
0,42,43,0
0,54,42,0
0,35,85,0
0,42,45,0
0,54,48,24
0,54,97,0
0,58,102,0
0,61,99,0
0,54,82,0
0,58,79,0
0,61,87,0
0,54,87,0
0,58,87,0
0,61,93,0
0,30,100,0
0,54,41,0
0,35,120,0
0,42,39,0
0,56,98,24
0,59,98,0
0,63,101,0
0,54,48,0
0,42,38,0
0,54,47,92
0,54,101,24
0,58,103,0
0,61,101,0
0,54,47,0
0,38,113,0
0,42,38,0
0,52,102,24
0,56,98,0
0,59,96,0
0,52,80,0
0,56,83,0
0,59,86,0
0,52,89,0
0,56,91,0
0,59,93,0
0,28,101,0
0,54,43,0
0,35,83,0
0,42,44,0
0,49,73,0
0,54,47,92
0,28,98,0
0,54,46,0
0,35,122,0
0,42,40,0
0,54,47,188
0,42,45,0
0,54,41,0
0,28,105,48
0,54,47,0
0,38,118,0
0,42,44,0
0,56,98,0
0,59,102,0
0,64,98,0
0,52,83,0
0,56,87,0
0,59,88,0
0,52,91,0
0,56,89,0
0,59,87,0
0,40,100,0
0,54,41,0
0,35,91,0
0,42,44,0
0,54,40,0
0,40,100,48
0,54,40,0
0,35,115,0
0,42,38,0
0,35,104,0
0,54,42,0
0,42,40,0
0,54,43,24
0,56,99,48
0,59,96,0
0,63,101,0
0,56,84,0
0,59,81,0
0,63,79,0
0,56,88,0
0,59,93,0
0,63,87,0
0,35,102,0
0,54,46,0
0,38,113,0
0,42,38,0
0,40,103,48
0,54,47,0
0,42,42,0
0,54,42,24
0,64,86,48
0,56,94,0
0,59,88,0
0,63,91,0
0,28,105,0
0,54,43,0
0,35,119,0
0,42,43,0
0,63,86,0
0,54,41,0
0,42,45,0
0,54,43,32
0,54,40,0
0,38,119,0
0,42,43,0
0,59,94,0
0,28,103,0
0,54,49,0
0,35,85,0
0,42,46,0
0,54,41,32
0,28,102,0
0,54,49,0
0,35,115,0
0,42,47,0
0,54,46,0
0,42,47,0
0,54,43,32
0,54,46,0
0,38,121,0
0,42,46,0
0,28,101,0
0,54,42,0
0,42,40,0
0,54,49,32
0,28,99,0
0,54,40,0
0,35,122,0
0,42,45,0
0,54,45,0
0,42,43,0
0,54,48,32
0,35,100,0
0,54,44,0
0,42,46,0
0,45,88,0
0,37,97,0
0,54,41,0
0,35,92,0
0,42,39,0
0,45,86,0
0,54,43,24
0,52,85,0
0,56,81,0
0,59,88,0
0,52,43,0
0,56,90,0
0,59,89,0
0,64,92,0
0,28,97,0
0,35,114,0
0,42,46,0
0,59,34,1
0,64,34,47
0,56,38,4
0,64,118,5
0,52,34,0
0,42,47,0
0,59,34,1
0,64,43,17
0,56,40,4
0,64,114,5
0,52,42,0
0,38,117,0
0,42,38,0
0,59,34,1
0,64,43,17
0,56,39,4
0,64,122,5
0,52,37,0
0,40,97,0
0,35,91,0
0,42,39,0
0,59,41,1
0,64,42,17
0,56,40,4
0,64,113,5
0,52,38,0
0,28,100,0
0,35,116,0
0,42,42,0
0,59,34,1
0,64,42,17
0,56,39,4
0,64,114,5
0,52,43,0
0,42,41,0
0,59,38,1
0,64,42,17
0,56,38,4
0,64,120,5
0,52,38,0
0,28,101,0
0,38,122,0
0,42,43,0
0,59,34,1
0,64,39,17
0,56,36,4
0,64,116,5
0,52,40,0
0,42,41,0
0,59,43,1
0,64,35,39
0,56,41,4
0,66,120,0
0,52,35,0
0,35,122,0
0,42,43,0
0,59,39,1
0,64,35,43
0,56,40,4
0,52,36,0
0,35,99,0
0,42,45,0
0,59,41,1
0,64,36,9
0,56,36,4
0,64,117,5
0,52,40,0
0,40,98,0
0,38,122,0
0,42,38,0
0,59,34,1
0,64,41,43
0,56,43,4
0,64,120,5
0,52,39,0
0,35,90,0
0,42,45,0
0,59,40,1
0,64,43,23
0,56,34,4
0,52,38,0
0,56,85,0
0,28,98,0
0,35,116,0
0,42,40,0
0,59,39,1
0,64,38,50
0,56,37,4
0,59,79,5
0,64,80,0
0,68,80,0
0,52,37,0
0,59,91,0
0,42,47,0
0,59,37,1
0,44,75,0
0,64,37,39
0,56,40,4
0,52,34,0
0,64,88,0
0,32,99,0
0,38,118,0
0,42,40,0
0,59,43,1
0,64,37,39
0,56,37,4
0,52,34,0
0,35,100,0
0,42,41,0
0,59,37,1
0,64,42,9
0,56,43,4
0,52,36,5
0,56,86,0
0,61,86,0
0,64,94,0
0,37,101,0
0,35,115,0
0,42,40,0
0,61,41,5
0,64,42,46
0,56,37,4
0,68,114,0
0,52,36,0
0,42,40,0
0,61,37,5
0,64,43,17
0,56,35,4
0,68,122,5
0,52,42,0
0,38,119,0
0,42,43,0
0,61,36,5
0,64,43,17
0,56,43,4
0,66,121,5
0,52,38,0
0,37,101,0
0,35,85,0
0,42,40,0
0,61,43,5
0,64,43,17
0,56,43,4
0,66,119,5
0,52,35,0
0,37,100,0
0,35,116,0
0,42,46,0
0,61,39,5
0,64,36,17
0,56,42,4
0,64,118,5
0,52,34,0
0,42,42,0
0,61,41,5
0,64,41,17
0,56,35,4
0,64,119,5
0,52,36,0
0,38,122,0
0,42,46,0
0,61,37,5
0,64,42,17
0,56,42,4
0,64,118,5
0,52,35,0
0,32,106,0
0,42,44,0
0,61,36,5
0,64,35,39
0,56,35,4
0,52,41,5
0,35,117,0
0,42,44,0
0,61,36,5
0,64,37,15
0,56,43,4
0,68,119,0
0,52,35,0
0,68,93,0
0,37,102,0
0,42,42,0
0,61,35,5
0,64,34,43
0,56,38,4
0,52,34,5
0,38,115,0
0,42,44,0
0,61,37,5
0,64,34,39
0,56,35,4
0,68,119,5
0,52,35,0
0,32,106,0
0,35,91,0
0,42,44,0
0,61,42,5
0,64,38,13
0,56,37,4
0,66,115,5
0,52,35,0
0,64,93,0
0,32,97,0
0,35,116,0
0,42,38,0
0,61,41,5
0,64,40,17
0,56,39,4
0,66,117,5
0,61,74,0
0,64,78,0
0,68,78,0
0,52,35,0
0,42,43,0
0,61,42,5
0,44,73,0
0,64,42,7
0,56,43,4
0,64,119,5
0,52,42,0
0,61,90,0
0,37,98,0
0,38,116,0
0,42,43,0
0,61,34,5
0,64,37,17
0,56,37,4
0,64,113,5
0,52,35,0
0,28,104,0
0,42,40,0
0,61,43,5
0,44,76,87
0,64,35,39
0,54,35,4
0,54,93,5
0,57,90,0
0,61,88,0
0,64,91,0
0,30,105,0
0,35,114,0
0,42,40,0
0,57,37,3
0,61,42,2
0,64,35,46
0,54,34,4
0,64,122,5
0,42,39,0
0,57,34,3
0,61,36,2
0,64,35,17
0,54,34,4
0,64,118,5
0,38,121,0
0,42,42,0
0,57,42,3
0,61,34,2
0,64,37,17
0,54,43,4
0,64,120,5
0,30,99,0
0,35,89,0
0,42,45,0
0,57,40,3
0,61,39,2
0,64,38,17
0,54,35,4
0,64,117,5
0,30,100,0
0,35,116,0
0,42,45,0
0,57,43,3
0,61,42,2
0,64,43,17
0,54,42,4
0,64,113,5
0,42,40,0
0,57,42,3
0,61,34,2
0,64,39,23
0,54,34,4
0,38,113,5
0,42,43,0
0,57,36,3
0,61,41,2
0,64,37,39
0,54,36,4
0,68,116,5
0,37,99,0
0,42,47,0
0,57,34,3
0,61,38,2
0,64,38,25
0,54,35,4
0,68,114,5
0,42,97,0
0,35,116,0
0,42,44,0
0,57,39,3
0,61,35,2
0,64,39,3
0,54,43,4
0,69,120,0
0,66,87,0
0,42,98,0
0,42,38,0
0,57,34,3
0,61,43,2
0,64,36,11
0,54,43,4
0,68,115,5
0,64,93,0
0,42,105,0
0,38,115,0
0,42,40,0
0,57,42,3
0,61,35,2
0,64,36,9
0,54,43,4
0,66,115,5
0,61,88,0
0,37,103,0
0,35,90,0
0,42,40,0
0,57,36,3
0,61,35,2
0,64,41,39
0,54,37,4
0,42,102,0
0,35,117,0
0,42,44,0
0,57,36,3
0,61,40,2
0,64,38,9
0,54,36,4
0,64,122,5
0,57,79,0
0,61,76,0
0,64,75,0
0,54,90,0
0,42,44,0
0,57,35,3
0,61,37,2
0,44,75,0
0,64,39,39
0,54,38,4
0,57,94,5
0,30,99,0
0,38,117,0
0,42,41,0
0,57,35,3
0,61,35,2
0,64,43,9
0,54,43,3
0,61,89,5
0,30,101,0
0,42,43,0
0,57,43,3
0,61,34,2
0,64,43,39
0,54,34,4
0,54,94,5
0,57,92,0
0,61,86,0
0,64,89,0
0,30,105,0
0,35,115,0
0,42,46,0
0,57,34,3
0,61,34,2
0,64,42,46
0,54,36,4
0,64,119,5
0,42,42,0
0,57,35,3
0,61,38,2
0,64,36,17
0,54,34,4
0,64,122,5
0,38,115,0
0,42,39,0
0,57,39,3
0,61,36,2
0,64,34,17
0,54,39,4
0,64,118,5
0,30,104,0
0,35,83,0
0,42,39,0
0,57,42,3
0,61,34,2
0,64,36,34
0,54,42,4
0,64,116,5
0,30,98,0
0,35,116,0
0,42,45,0
0,57,40,3
0,61,41,2
0,64,40,17
0,54,36,4
0,61,118,5
0,42,41,0
0,57,35,3
0,61,35,2
0,64,43,17
0,54,34,4
0,61,122,5
0,54,88,0
0,57,85,0
0,61,94,0
0,64,87,0
0,38,122,0
0,42,42,0
0,57,35,3
0,61,42,2
0,64,41,17
0,54,43,4
0,61,119,5
0,35,102,0
0,42,39,0
0,57,34,3
0,61,34,2
0,54,40,21
0,54,93,5
0,59,85,0
0,63,87,0
0,66,85,0
0,35,102,0
0,35,120,0
0,42,40,0
0,59,42,1
0,63,38,4
0,54,34,43
0,61,118,0
0,42,102,0
0,42,44,0
0,59,38,1
0,63,37,4
0,54,39,21
0,59,115,5
0,38,121,0
0,42,45,0
0,59,34,1
0,63,42,4
0,54,38,43
0,59,116,0
0,47,100,0
0,35,90,0
0,42,43,0
0,59,40,1
0,63,35,4
0,54,34,43
0,35,106,5
0,35,122,0
0,42,41,0
0,59,35,1
0,63,39,4
0,54,38,13
0,59,74,5
0,63,77,0
