track,note,velocity,time
1,72,110,3024
1,72,0,96
1,72,110,0
1,72,0,48
1,72,110,0
1,72,0,96
1,72,110,0
1,72,0,48
1,72,110,0
1,72,0,96
1,74,110,0
1,74,0,48
1,71,110,0
1,71,0,144
1,69,110,0
1,69,0,144
1,69,110,0
1,69,0,96
1,67,110,0
1,67,0,48
1,67,110,0
1,67,0,96
1,67,110,0
1,67,0,48
1,70,110,0
1,70,0,144
1,70,110,0
1,70,0,96
1,70,110,0
1,70,0,48
1,70,110,0
1,70,0,144
1,72,110,0
1,72,0,96
1,69,110,0
1,69,0,24
1,67,110,0
1,67,0,24
1,65,110,0
1,65,0,144
1,72,110,576
1,72,0,96
1,72,110,0
1,72,0,48
1,72,110,0
1,72,0,96
1,72,110,0
1,72,0,48
1,72,110,0
1,72,0,96
1,74,110,0
1,74,0,48
1,71,110,0
1,71,0,144
1,69,110,0
1,69,0,144
1,69,110,0
1,69,0,96
1,67,110,0
1,67,0,48
1,67,110,0
1,67,0,96
1,67,110,0
1,67,0,48
1,70,110,0
1,70,0,144
1,70,110,0
1,70,0,96
1,70,110,0
1,70,0,48
1,70,110,0
1,70,0,144
1,72,110,0
1,72,0,96
1,69,110,0
1,69,0,24
1,67,110,0
1,67,0,24
1,65,110,0
1,65,0,144
1,64,110,576
1,64,0,96
1,64,110,0
1,64,0,48
1,67,110,0
1,67,0,96
1,67,110,0
1,67,0,48
1,71,110,0
1,71,0,96
1,71,110,0
1,71,0,48
1,72,110,0
1,72,0,144
1,69,110,0
1,69,0,96
1,64,110,0
1,64,0,48
1,67,110,0
1,67,0,96
1,69,110,0
1,69,0,48
1,64,110,96
1,64,0,48
1,64,110,0
1,64,0,144
1,64,110,0
1,64,0,144
1,67,110,0
1,67,0,96
1,67,110,0
1,67,0,48
1,71,110,0
1,71,0,96
1,71,110,0
1,71,0,48
1,72,110,0
1,72,0,96
1,67,110,0
1,67,0,48
1,69,110,0
1,69,0,96
1,64,110,0
1,64,0,48
1,67,110,0
1,67,0,96
1,69,110,0
1,69,0,48
1,72,110,144
1,72,0,96
1,72,110,0
1,72,0,48
1,72,110,0
1,72,0,96
1,72,110,0
1,72,0,48
1,71,110,0
1,71,0,96
1,71,110,0
1,71,0,48
1,71,110,0
1,71,0,96
1,67,110,0
1,67,0,48
1,70,110,0
1,70,0,144
1,70,110,0
1,70,0,144
1,69,110,0
1,69,0,96
1,69,110,0
1,69,0,48
1,69,110,0
1,69,0,96
1,65,110,0
1,65,0,48
1,69,110,0
1,69,0,144
1,67,110,0
1,67,0,96
1,62,110,0
1,62,0,48
1,64,110,0
1,64,0,144
1,62,110,0
1,62,0,96
1,62,110,0
1,62,0,144
1,60,110,0
1,60,0,96
1,72,110,1104
1,72,0,96
1,72,110,0
1,72,0,48
1,72,110,0
1,72,0,96
1,72,110,0
1,72,0,48
1,72,110,0
1,72,0,96
1,74,110,0
1,74,0,48
1,71,110,0
1,71,0,144
1,69,110,0
1,69,0,144
1,69,110,0
1,69,0,96
1,67,110,0
1,67,0,48
1,67,110,0
1,67,0,96
1,67,110,0
1,67,0,48
1,70,110,0
1,70,0,144
1,70,110,0
1,70,0,96
1,70,110,0
1,70,0,48
1,70,110,0
1,70,0,144
1,72,110,0
1,72,0,96
1,69,110,0
1,69,0,24
1,67,110,0
1,67,0,24
1,65,110,0
1,65,0,144
1,72,110,576
1,72,0,96
1,72,110,0
1,72,0,48
1,72,110,0
1,72,0,96
1,72,110,0
1,72,0,48
1,72,110,0
1,72,0,96
1,74,110,0
1,74,0,48
1,71,110,0
1,71,0,144
1,69,110,0
1,69,0,144
1,69,110,0
1,69,0,96
1,67,110,0
1,67,0,48
1,67,110,0
1,67,0,96
1,67,110,0
1,67,0,48
1,70,110,0
1,70,0,96
1,70,110,0
1,70,0,48
1,70,110,0
1,70,0,96
1,70,110,0
1,70,0,48
1,70,110,0
1,70,0,96
1,70,110,0
1,70,0,48
1,72,110,0
1,72,0,96
1,69,110,0
1,69,0,24
1,67,110,0
1,67,0,24
1,65,110,0
1,65,0,144
1,64,110,576
1,64,0,96
1,64,110,0
1,64,0,48
1,67,110,0
1,67,0,96
1,67,110,0
1,67,0,48
1,71,110,0
1,71,0,96
1,71,110,0
1,71,0,48
1,72,110,0
1,72,0,144
1,69,110,0
1,69,0,96
1,64,110,0
1,64,0,48
1,67,110,0
1,67,0,96
1,69,110,0
1,69,0,48
1,64,110,96
1,64,0,48
1,64,110,0
1,64,0,144
1,64,110,0
1,64,0,96
1,64,110,0
1,64,0,48
1,67,110,0
1,67,0,96
1,67,110,0
1,67,0,48
1,71,110,0
1,71,0,96
1,71,110,0
1,71,0,48
1,72,110,0
1,72,0,144
1,69,110,0
1,69,0,96
1,64,110,0
1,64,0,48
1,67,110,0
1,67,0,96
1,69,110,0
1,69,0,48
1,72,110,144
1,72,0,96
1,72,110,0
1,72,0,48
1,72,110,0
1,72,0,96
1,72,110,0
1,72,0,48
1,71,110,0
1,71,0,96
1,71,110,0
1,71,0,48
1,71,110,0
1,71,0,96
1,67,110,0
1,67,0,48
1,70,110,0
1,70,0,96
1,70,110,0
1,70,0,48
1,70,110,0
1,70,0,96
1,70,110,0
1,70,0,48
1,69,110,0
1,69,0,96
1,69,110,0
1,69,0,48
1,69,110,0
1,69,0,96
1,65,110,0
1,65,0,48
1,69,110,0
1,69,0,144
1,67,110,0
1,67,0,96
1,62,110,0
1,62,0,48
1,64,110,0
1,64,0,144
1,62,110,0
1,62,0,96
1,62,110,0
1,62,0,144
1,60,110,0
1,60,0,96
1,74,110,672
1,74,0,384
1,74,110,0
1,74,0,48
1,74,110,0
1,74,0,96
1,74,110,0
1,74,0,48
1,74,110,0
1,74,0,96
1,74,110,0
1,74,0,48
1,74,110,0
1,74,0,96
1,72,110,0
1,72,0,48
1,74,110,0
1,74,0,144
1,72,110,0
1,72,0,96
1,69,110,0
1,69,0,48
1,72,110,0
1,72,0,96
1,74,110,0
1,74,0,48
1,74,110,0
1,74,0,96
1,74,110,0
1,74,0,48
1,76,110,0
1,76,0,96
1,74,110,0
1,74,0,48
1,74,110,0
1,74,0,96
1,72,110,0
1,72,0,48
1,74,110,0
1,74,0,96
1,72,110,0
1,72,0,144
1,74,110,0
1,74,0,24
1,72,110,0
1,72,0,24
1,69,110,0
1,69,0,96
1,73,110,336
1,73,0,96
1,73,110,0
1,73,0,48
1,74,110,0
1,74,0,144
1,74,110,0
1,74,0,96
1,74,110,0
1,74,0,48
1,74,110,0
1,74,0,144
1,74,110,0
1,74,0,96
1,74,110,0
1,74,0,48
1,74,110,0
1,74,0,144
1,74,110,0
1,74,0,96
1,72,110,0
1,72,0,48
1,72,110,0
1,72,0,144
1,72,110,0
1,72,0,96
1,72,110,0
1,72,0,48
1,76,110,0
1,76,0,96
1,74,110,0
1,74,0,48
1,74,110,0
1,74,0,96
1,72,110,0
1,72,0,48
1,74,110,0
1,74,0,144
1,72,110,0
1,72,0,96
1,72,110,0
1,72,0,624
1,70,110,0
1,70,0,144
1,70,110,0
1,70,0,96
1,67,110,0
1,67,0,48
1,70,110,0
1,70,0,96
1,67,110,0
1,67,0,48
1,67,110,0
1,67,0,96
1,67,110,0
1,67,0,336
1,72,110,1008
1,72,0,96
1,72,110,0
1,72,0,48
1,72,110,0
1,72,0,96
1,72,110,0
1,72,0,48
1,72,110,0
1,72,0,96
1,72,110,0
1,72,0,48
1,71,110,0
1,71,0,144
1,69,110,0
1,69,0,144
1,69,110,0
1,69,0,96
1,67,110,0
1,67,0,48
1,67,110,0
1,67,0,96
1,64,110,0
1,64,0,48
1,70,110,0
1,70,0,144
1,70,110,0
1,70,0,96
1,70,110,0
1,70,0,48
1,70,110,0
1,70,0,144
1,70,110,0
1,70,0,96
1,69,110,0
1,69,0,24
1,67,110,0
1,67,0,24
1,65,110,0
1,65,0,144
1,60,110,528
1,60,0,48
1,72,110,0
1,72,0,96
1,72,110,0
1,72,0,48
1,72,110,0
1,72,0,96
1,72,110,0
1,72,0,48
1,72,110,0
1,72,0,96
1,72,110,0
1,72,0,48
1,71,110,0
1,71,0,144
1,69,110,0
1,69,0,96
1,69,110,0
1,69,0,48
1,69,110,0
1,69,0,96
1,67,110,0
1,67,0,48
1,67,110,0
1,67,0,96
1,64,110,0
1,64,0,48
1,70,110,0
1,70,0,144
1,70,110,0
1,70,0,96
1,70,110,0
1,70,0,48
1,70,110,0
1,70,0,144
1,70,110,0
1,70,0,96
1,69,110,0
1,69,0,24
1,67,110,0
1,67,0,24
1,65,110,0
1,65,0,144
1,64,110,528
1,64,0,48
1,64,110,0
1,64,0,96
1,64,110,0
1,64,0,48
1,67,110,0
1,67,0,96
1,67,110,0
1,67,0,48
1,71,110,0
1,71,0,96
1,71,110,0
1,71,0,48
1,72,110,0
1,72,0,144
1,69,110,0
1,69,0,96
1,64,110,0
1,64,0,48
1,67,110,0
1,67,0,96
1,69,110,0
1,69,0,48
1,64,110,96
1,64,0,48
1,64,110,0
1,64,0,144
1,64,110,0
1,64,0,144
1,67,110,0
1,67,0,96
1,67,110,0
1,67,0,48
1,71,110,0
1,71,0,96
1,71,110,0
1,71,0,48
1,72,110,0
1,72,0,144
1,69,110,0
1,69,0,96
1,64,110,0
1,64,0,48
1,67,110,0
1,67,0,96
1,69,110,0
1,69,0,48
1,72,110,144
1,72,0,144
1,72,110,0
1,72,0,144
1,71,110,0
1,71,0,144
1,71,110,0
1,71,0,144
1,70,110,0
1,70,0,144
1,70,110,0
1,70,0,144
1,69,110,0
1,69,0,96
1,69,110,0
1,69,0,48
1,69,110,0
1,69,0,96
1,67,110,0
1,67,0,48
1,69,110,0
1,69,0,144
1,67,110,0
1,67,0,96
1,62,110,0
1,62,0,48
1,64,110,0
1,64,0,144
1,62,110,0
1,62,0,96
1,62,110,0
1,62,0,144
1,60,110,0
1,60,0,96
1,76,110,6720
1,76,0,1152
1,72,110,144
1,72,0,96
1,72,110,0
1,72,0,48
1,72,110,0
1,72,0,96
1,72,110,0
1,72,0,48
1,72,110,0
1,72,0,96
1,72,110,0
1,72,0,48
1,71,110,0
1,71,0,144
1,69,110,0
1,69,0,144
1,69,110,0
1,69,0,96
1,67,110,0
1,67,0,48
1,67,110,0
1,67,0,96
1,64,110,0
1,64,0,48
1,70,110,0
1,70,0,144
1,70,110,0
1,70,0,96
1,70,110,0
1,70,0,48
1,70,110,0
1,70,0,144
1,70,110,0
1,70,0,96
1,69,110,0
1,69,0,24
1,67,110,0
1,67,0,24
1,65,110,0
1,65,0,144
1,60,110,528
1,60,0,48
1,72,110,0
1,72,0,96
1,72,110,0
1,72,0,48
1,72,110,0
1,72,0,96
1,72,110,0
1,72,0,48
1,72,110,0
1,72,0,96
1,72,110,0
1,72,0,48
1,71,110,0
1,71,0,144
1,69,110,0
1,69,0,96
1,69,110,0
1,69,0,48
1,69,110,0
1,69,0,96
1,67,110,0
1,67,0,48
1,67,110,0
1,67,0,96
1,64,110,0
1,64,0,48
1,70,110,0
1,70,0,144
1,70,110,0
1,70,0,96
1,70,110,0
1,70,0,48
1,70,110,0
1,70,0,144
1,70,110,0
1,70,0,96
1,69,110,0
1,69,0,24
1,67,110,0
1,67,0,24
1,65,110,0
1,65,0,144
1,64,110,576
1,64,0,96
1,64,110,0
1,64,0,48
1,67,110,0
1,67,0,96
1,67,110,0
1,67,0,48
1,71,110,0
1,71,0,96
1,71,110,0
1,71,0,48
1,72,110,0
1,72,0,144
1,69,110,0
1,69,0,96
1,64,110,0
1,64,0,48
1,67,110,0
1,67,0,96
1,69,110,0
1,69,0,48
1,64,110,144
1,64,0,96
1,64,110,0
1,64,0,48
1,64,110,0
1,64,0,96
1,64,110,0
1,64,0,48
1,67,110,0
1,67,0,96
1,67,110,0
1,67,0,48
1,71,110,0
1,71,0,96
1,71,110,0
1,71,0,48
1,72,110,0
1,72,0,144
1,69,110,0
1,69,0,96
1,64,110,0
1,64,0,48
1,67,110,0
1,67,0,96
1,69,110,0
1,69,0,48
1,67,110,0
1,67,0,96
1,67,110,0
1,67,0,48
1,72,110,0
1,72,0,144
1,72,110,0
1,72,0,144
1,71,110,0
1,71,0,144
1,71,110,0
1,71,0,144
1,70,110,0
1,70,0,144
1,70,110,0
1,70,0,144
1,69,110,0
1,69,0,96
1,69,110,0
1,69,0,48
1,69,110,0
1,69,0,96
1,67,110,0
1,67,0,48
1,69,110,0
1,69,0,144
1,67,110,0
1,67,0,96
1,62,110,0
1,62,0,48
1,64,110,0
1,64,0,144
1,62,110,0
1,62,0,96
1,62,110,0
1,62,0,144
1,60,110,0
1,60,0,96
1,72,110,384
1,72,0,96
1,72,110,0
1,72,0,48
1,72,110,0
1,72,0,96
1,72,110,0
1,72,0,48
1,71,110,0
1,71,0,96
1,71,110,0
1,71,0,48
1,71,110,0
1,71,0,96
1,67,110,0
1,67,0,48
1,70,110,0
1,70,0,144
1,70,110,0
1,70,0,144
1,69,110,0
1,69,0,96
1,67,110,0
1,67,0,48
1,69,110,0
1,69,0,96
1,67,110,0
1,67,0,48
1,69,110,0
1,69,0,144
1,67,110,0
1,67,0,96
1,69,110,0
1,69,0,48
1,64,110,0
1,64,0,144
1,62,110,0
1,62,0,96
1,64,110,0
1,64,0,24
1,62,110,0
1,62,0,24
1,60,110,0
1,60,0,96
2,64,100,7488
2,67,100,0
2,52,100,0
2,59,100,0
2,64,0,575
2,67,0,0
2,52,0,0
2,59,0,0
2,64,100,1
2,60,100,0
2,64,0,575
2,60,0,0
2,67,100,1
2,59,100,0
2,67,0,575
2,59,0,0
2,62,100,1
2,66,100,0
2,62,0,287
2,66,0,0
2,59,100,1
2,62,100,0
2,59,0,287
2,62,0,0
2,67,100,1
2,64,100,0
2,67,0,287
2,64,0,0
2,67,100,1
2,64,100,0
2,67,0,287
2,64,0,0
2,65,100,1
2,62,100,0
2,65,0,287
2,62,0,0
2,65,100,1
2,60,100,0
2,65,0,287
2,60,0,0
2,64,100,1
2,60,100,0
2,64,0,287
2,60,0,0
2,67,100,1
2,59,100,0
2,67,0,287
2,59,0,0
2,64,100,1
2,67,100,0
2,64,0,575
2,67,0,0
2,64,100,5185
2,67,100,0
2,52,100,0
2,59,100,0
2,64,0,575
2,67,0,0
2,52,0,0
2,59,0,0
2,64,100,1
2,60,100,0
2,64,0,575
2,60,0,0
2,67,100,1
2,59,100,0
2,67,0,575
2,59,0,0
2,62,100,1
2,66,100,0
2,62,0,287
2,66,0,0
2,59,100,1
2,62,100,0
2,59,0,287
2,62,0,0
2,67,100,1
2,64,100,0
2,67,0,287
2,64,0,0
2,67,100,1
2,64,100,0
2,67,0,287
2,64,0,0
2,65,100,1
2,62,100,0
2,65,0,287
2,62,0,0
2,65,100,1
2,60,100,0
2,65,0,287
2,60,0,0
2,64,100,1
2,60,100,0
2,64,0,287
2,60,0,0
2,67,100,1
2,59,100,0
2,67,0,287
2,59,0,0
2,64,100,1
2,67,100,0
2,64,0,863
2,67,0,0
2,64,100,1
2,67,100,0
2,64,0,287
2,67,0,0
2,67,100,97
2,62,100,0
2,67,0,47
2,62,0,0
2,67,100,1
2,64,100,0
2,67,0,95
2,64,0,0
2,67,100,1
2,64,100,0
2,67,0,47
2,64,0,0
2,67,100,1
2,62,100,0
2,67,0,95
2,62,0,0
2,67,100,1
2,62,100,0
2,67,0,47
2,62,0,0
2,67,100,1
2,64,100,0
2,67,0,143
2,64,0,0
2,69,100,1
2,65,100,0
2,69,0,143
2,65,0,0
2,69,100,1
2,65,100,0
2,69,0,95
2,65,0,0
2,65,100,1
2,65,0,47
2,69,100,1
2,65,100,0
2,69,0,95
2,65,0,0
2,69,100,1
2,65,100,0
2,69,0,47
2,65,0,0
2,69,100,1
2,65,100,0
2,69,0,95
2,65,0,0
2,68,100,1
2,64,100,0
2,68,0,47
2,64,0,0
2,68,100,1
2,64,100,0
2,68,0,95
2,64,0,0
2,68,100,1
2,64,100,0
2,68,0,47
2,64,0,0
