track,note,velocity,time
1,67,64,32
1,67,0,44
1,67,64,1
1,67,0,45
1,67,64,0
1,67,0,45
1,67,64,2
1,67,0,45
1,67,64,0
1,67,0,46
1,67,64,0
1,67,0,92
1,67,64,0
1,67,0,92
1,67,64,1
1,67,0,45
1,67,64,1
1,67,0,45
1,67,64,0
1,67,0,46
1,67,64,0
1,67,0,45
1,67,64,0
1,67,0,47
1,67,64,0
1,67,0,46
1,67,64,0
1,67,0,45
1,67,64,2
1,67,0,44
1,67,64,1
1,67,0,45
1,67,64,2
1,67,0,44
1,67,64,0
1,67,0,46
1,67,64,0
1,67,0,47
1,67,64,0
1,67,0,91
1,67,64,1
1,67,0,91
1,67,64,1
1,67,0,46
1,67,64,0
1,67,0,46
1,67,64,0
1,67,0,45
1,67,64,0
1,67,0,46
1,67,64,1
1,67,0,45
1,67,64,0
1,67,0,46
1,67,64,1
1,67,0,45
1,67,64,1
1,67,0,45
1,67,64,1
1,67,0,45
1,67,64,1
1,67,0,45
1,67,64,1
1,67,0,45
1,67,64,0
1,67,0,46
1,67,64,0
1,67,0,139
1,67,64,0
1,67,0,45
1,67,64,0
1,67,0,92
1,67,64,0
1,67,0,138
1,64,64,0
1,64,0,45
1,66,64,1
1,66,0,45
1,67,64,4
1,67,0,43
1,67,64,1
1,67,0,45
1,67,64,1
1,67,0,45
1,69,64,1
1,69,0,45
1,66,64,0
1,66,0,46
1,64,64,0
1,64,0,92
1,62,64,0
1,62,0,230
1,69,64,93
1,69,0,44
1,71,64,1
1,71,0,46
1,72,64,1
1,72,0,45
1,72,64,1
1,72,0,45
1,72,64,1
1,72,0,45
1,74,64,1
1,74,0,46
1,71,64,0
1,71,0,45
1,69,64,1
1,69,0,44
1,67,64,2
1,67,0,44
1,67,64,1
1,67,0,230
1,71,64,93
1,71,0,44
1,73,64,1
1,73,0,47
1,74,64,0
1,74,0,45
1,74,64,1
1,74,0,44
1,74,64,2
1,74,0,45
1,76,64,0
1,76,0,45
1,71,64,4
1,71,0,43
1,73,64,0
1,73,0,92
1,74,64,0
1,74,0,229
1,73,64,3
1,73,0,44
1,73,64,0
1,73,0,45
1,73,64,1
1,73,0,45
1,73,64,0
1,73,0,48
1,71,64,0
1,71,0,183
1,69,64,0
1,69,0,45
1,69,64,1
1,69,0,46
1,66,64,0
1,66,0,46
1,66,64,1
1,66,0,91
1,64,64,0
1,64,0,92
1,64,64,138
1,64,0,45
1,66,64,1
1,66,0,45
1,67,64,2
1,67,0,44
1,67,64,1
1,67,0,45
1,67,64,1
1,67,0,45
1,69,64,1
1,69,0,45
1,66,64,1
1,66,0,45
1,64,64,1
1,64,0,45
1,62,64,1
1,62,0,45
1,62,64,0
1,62,0,232
1,69,64,91
1,69,0,45
1,71,64,1
1,71,0,45
1,72,64,2
1,72,0,44
1,72,64,1
1,72,0,45
1,76,64,1
1,76,0,46
1,76,64,0
1,76,0,45
1,74,64,0
1,74,0,46
1,69,64,1
1,69,0,45
1,67,64,1
1,67,0,45
1,67,64,49
1,67,0,89
1,71,64,185
1,71,0,45
1,73,64,1
1,73,0,45
1,74,64,3
1,74,0,43
1,74,64,1
1,74,0,45
1,74,64,1
1,74,0,45
1,76,64,1
1,76,0,45
1,71,64,1
1,71,0,46
1,73,64,0
1,73,0,91
1,74,64,0
1,74,0,231
1,73,64,1
1,73,0,44
1,73,64,2
1,73,0,44
1,73,64,1
1,73,0,45
1,73,64,0
1,73,0,47
1,71,64,0
1,71,0,137
1,71,64,0
1,71,0,47
1,71,64,1
1,71,0,45
1,69,64,0
1,69,0,45
1,66,64,1
1,66,0,45
1,66,64,0
1,66,0,93
1,64,64,0
1,64,0,93
1,64,64,136
1,64,0,46
1,66,64,1
1,66,0,45
1,67,64,0
1,67,0,46
1,67,64,1
1,67,0,45
1,71,64,1
1,71,0,45
1,69,64,1
1,69,0,45
1,69,64,1
1,69,0,45
1,66,64,1
1,66,0,45
1,64,64,1
1,64,0,45
1,62,64,1
1,62,0,138
1,71,64,184
1,71,0,45
1,71,64,1
1,71,0,45
1,72,64,1
1,72,0,45
1,72,64,1
1,72,0,45
1,72,64,1
1,72,0,45
1,74,64,1
1,74,0,45
1,71,64,0
1,71,0,45
1,69,64,1
1,69,0,45
1,67,64,2
1,67,0,44
1,67,64,2
1,67,0,229
1,72,64,92
1,72,0,45
1,74,64,1
1,74,0,45
1,76,64,2
1,76,0,45
1,76,64,0
1,76,0,45
1,76,64,1
1,76,0,45
1,76,64,1
1,76,0,45
1,76,64,1
1,76,0,45
1,74,64,1
1,74,0,45
1,72,64,1
1,72,0,45
1,79,64,0
1,79,0,93
1,78,64,1
1,78,0,44
1,76,64,1
1,76,0,47
1,74,64,0
1,74,0,90
1,72,64,2
1,72,0,44
1,71,64,2
1,71,0,45
1,71,64,1
1,71,0,90
1,72,64,1
1,72,0,45
1,71,64,1
1,71,0,45
1,69,64,0
1,69,0,92
1,67,64,1
1,67,0,47
1,66,64,0
1,66,0,44
1,67,64,0
1,67,0,231
1,67,64,185
1,67,0,46
1,67,64,0
1,67,0,44
1,67,64,1
1,67,0,45
1,67,64,2
1,67,0,44
1,67,64,0
1,67,0,45
1,67,64,2
1,67,0,45
1,67,64,0
1,67,0,46
1,67,64,0
1,67,0,46
1,67,64,1
1,67,0,91
1,67,64,0
1,67,0,46
1,67,64,1
1,67,0,45
1,67,64,1
1,67,0,45
1,67,64,0
1,67,0,46
1,67,64,0
1,67,0,92
1,67,64,1
1,67,0,91
1,67,64,1
1,67,0,45
1,67,64,0
1,67,0,46
1,67,64,0
1,67,0,46
1,67,64,0
1,67,0,45
1,67,64,0
1,67,0,46
1,67,64,0
1,67,0,47
1,67,64,3
1,67,0,42
1,67,64,2
1,67,0,44
1,67,64,1
1,67,0,45
1,67,64,0
1,67,0,46
1,67,64,1
1,67,0,46
1,67,64,0
1,67,0,45
1,67,64,1
1,67,0,137
1,67,64,1
1,67,0,46
1,67,64,0
1,67,0,91
1,67,64,0
1,67,0,138
1,64,64,1
1,64,0,45
1,66,64,0
1,66,0,46
1,67,64,2
1,67,0,44
1,67,64,1
1,67,0,45
1,67,64,1
1,67,0,45
1,69,64,1
1,69,0,45
1,66,64,0
1,66,0,46
1,64,64,1
1,64,0,90
1,62,64,0
1,62,0,231
1,69,64,93
1,69,0,45
1,71,64,1
1,71,0,45
1,72,64,1
1,72,0,45
1,72,64,1
1,72,0,45
1,72,64,1
1,72,0,45
1,74,64,1
1,74,0,46
1,71,64,0
1,71,0,45
1,69,64,1
1,69,0,45
1,67,64,1
1,67,0,45
1,67,64,0
1,67,0,230
1,71,64,93
1,71,0,45
1,73,64,1
1,73,0,45
1,74,64,0
1,74,0,46
1,74,64,1
1,74,0,45
1,74,64,0
1,74,0,46
1,76,64,1
1,76,0,45
1,71,64,0
1,71,0,46
1,73,64,1
1,73,0,92
1,74,64,0
1,74,0,229
1,73,64,1
1,73,0,45
1,73,64,0
1,73,0,45
1,73,64,1
1,73,0,46
1,73,64,0
1,73,0,47
1,71,64,0
1,71,0,184
1,69,64,0
1,69,0,45
1,69,64,0
1,69,0,45
1,66,64,2
1,66,0,45
1,66,64,1
1,66,0,92
1,64,64,0
1,64,0,91
1,64,64,139
1,64,0,44
1,66,64,1
1,66,0,45
1,67,64,2
1,67,0,45
1,67,64,1
1,67,0,44
1,67,64,1
1,67,0,45
1,69,64,1
1,69,0,45
1,66,64,2
1,66,0,45
1,64,64,0
1,64,0,45
1,62,64,1
1,62,0,45
1,62,64,1
1,62,0,231
1,69,64,91
1,69,0,45
1,71,64,1
1,71,0,45
1,72,64,2
1,72,0,44
1,72,64,1
1,72,0,45
1,76,64,1
1,76,0,46
1,76,64,0
1,76,0,46
1,74,64,0
1,74,0,45
1,69,64,1
1,69,0,45
1,67,64,1
1,67,0,46
1,67,64,47
1,67,0,91
1,71,64,184
1,71,0,45
1,73,64,1
1,73,0,45
1,74,64,2
1,74,0,45
1,74,64,1
1,74,0,45
1,74,64,1
1,74,0,44
1,76,64,2
1,76,0,44
1,71,64,4
1,71,0,43
1,73,64,0
1,73,0,92
1,74,64,0
1,74,0,230
1,73,64,0
1,73,0,45
1,73,64,1
1,73,0,45
1,73,64,1
1,73,0,45
1,73,64,2
1,73,0,46
1,71,64,0
1,71,0,137
1,71,64,0
1,71,0,46
1,71,64,1
1,71,0,44
1,69,64,2
1,69,0,44
1,66,64,1
1,66,0,45
1,66,64,1
1,66,0,93
1,64,64,0
1,64,0,92
1,64,64,137
1,64,0,45
1,66,64,1
1,66,0,46
1,67,64,0
1,67,0,45
1,67,64,1
1,67,0,45
1,71,64,1
1,71,0,45
1,69,64,1
1,69,0,45
1,69,64,0
1,69,0,46
1,66,64,1
1,66,0,45
1,64,64,1
1,64,0,45
1,62,64,1
1,62,0,139
1,71,64,183
1,71,0,45
1,71,64,2
1,71,0,44
1,72,64,2
1,72,0,44
1,72,64,1
1,72,0,45
1,72,64,1
1,72,0,45
1,74,64,0
1,74,0,46
1,71,64,1
1,71,0,45
1,69,64,1
1,69,0,45
1,67,64,1
1,67,0,44
1,67,64,1
1,67,0,230
1,72,64,93
1,72,0,45
1,74,64,0
1,74,0,46
1,76,64,1
1,76,0,45
1,76,64,1
1,76,0,45
1,76,64,1
1,76,0,44
1,76,64,2
1,76,0,44
1,76,64,0
1,76,0,46
1,74,64,1
1,74,0,45
1,72,64,1
1,72,0,45
1,79,64,1
1,79,0,92
1,78,64,1
1,78,0,45
1,76,64,1
1,76,0,45
1,74,64,0
1,74,0,91
1,72,64,1
1,72,0,46
1,71,64,0
1,71,0,45
1,71,64,0
1,71,0,92
1,72,64,1
1,72,0,45
1,71,64,1
1,71,0,45
1,69,64,1
1,69,0,91
1,67,64,1
1,67,0,45
1,66,64,1
1,66,0,45
1,67,64,0
1,67,0,230
1,67,64,188
1,67,0,43
1,67,64,0
1,67,0,46
1,67,64,1
1,67,0,45
1,67,64,0
1,67,0,45
1,67,64,2
1,67,0,45
1,67,64,0
1,67,0,45
1,67,64,0
1,67,0,46
1,67,64,1
1,67,0,45
1,67,64,1
1,67,0,91
1,67,64,1
1,67,0,45
1,67,64,0
1,67,0,46
1,67,64,1
1,67,0,45
1,67,64,0
1,67,0,46
1,67,64,0
1,67,0,92
1,69,64,231
1,69,0,45
1,69,64,0
1,69,0,46
1,69,64,1
1,69,0,91
1,71,64,0
1,71,0,46
1,71,64,0
1,71,0,46
1,71,64,0
1,71,0,46
1,72,64,0
1,72,0,46
1,72,64,0
1,72,0,92
1,72,64,1
1,72,0,91
1,69,64,139
1,69,0,44
1,69,64,0
1,69,0,47
1,69,64,1
1,69,0,45
1,69,64,1
1,69,0,45
1,71,64,0
1,71,0,46
1,71,64,0
1,71,0,47
1,71,64,0
1,71,0,45
1,71,64,0
1,71,0,46
1,74,64,0
1,74,0,46
1,74,64,0
1,74,0,92
1,74,64,1
1,74,0,91
1,69,64,139
1,69,0,45
1,69,64,0
1,69,0,46
1,69,64,1
1,69,0,45
1,69,64,1
1,69,0,45
1,69,64,0
1,69,0,46
1,69,64,0
1,69,0,46
1,71,64,0
1,71,0,45
1,71,64,0
1,71,0,47
1,72,64,0
1,72,0,46
1,72,64,1
1,72,0,90
1,72,64,2
1,72,0,92
1,69,64,138
1,69,0,45
1,69,64,0
1,69,0,46
1,69,64,0
1,69,0,45
1,69,64,2
1,69,0,44
1,71,64,0
1,71,0,47
1,71,64,0
1,71,0,46
1,71,64,0
1,71,0,46
1,71,64,0
1,71,0,46
1,76,64,0
1,76,0,45
1,76,64,1
1,76,0,92
1,76,64,1
1,76,0,275
1,67,64,93
1,67,0,45
1,67,64,0
1,67,0,46
1,67,64,1
1,67,0,45
1,67,64,0
1,67,0,45
1,67,64,0
1,67,0,47
1,67,64,0
1,67,0,45
1,67,64,1
1,67,0,45
1,67,64,1
1,67,0,46
1,67,64,1
1,67,0,45
1,67,64,1
1,67,0,45
1,67,64,1
1,67,0,45
1,67,64,1
1,67,0,45
1,67,64,0
1,67,0,46
1,67,64,1
1,67,0,91
1,67,64,1
1,67,0,91
1,67,64,1
1,67,0,45
1,67,64,1
1,67,0,45
1,67,64,1
1,67,0,44
1,67,64,2
1,67,0,45
1,67,64,1
1,67,0,45
1,67,64,3
1,67,0,43
1,67,64,0
1,67,0,92
1,67,64,0
1,67,0,46
1,67,64,1
1,67,0,45
1,67,64,1
1,67,0,45
1,67,64,0
1,67,0,46
1,67,64,3
1,67,0,135
1,67,64,0
1,67,0,46
1,67,64,3
1,67,0,90
1,72,64,0
1,72,0,92
1,67,64,0
1,67,0,137
1,64,64,0
1,64,0,45
1,66,64,1
1,66,0,46
1,67,64,2
1,67,0,43
1,67,64,1
1,67,0,45
1,67,64,1
1,67,0,45
1,69,64,1
1,69,0,45
1,66,64,2
1,66,0,44
1,64,64,1
1,64,0,91
1,62,64,0
1,62,0,231
1,69,64,92
1,69,0,45
1,71,64,1
1,71,0,46
1,72,64,0
1,72,0,45
1,72,64,1
1,72,0,45
1,72,64,1
1,72,0,45
1,74,64,1
1,74,0,45
1,71,64,0
1,71,0,46
1,69,64,1
1,69,0,91
1,71,64,0
1,71,0,24
1,69,64,0
1,69,0,22
1,67,64,0
1,67,0,230
1,72,64,92
1,72,0,45
1,74,64,1
1,74,0,45
1,76,64,3
1,76,0,43
1,76,64,1
1,76,0,45
1,76,64,1
1,76,0,45
1,76,64,1
1,76,0,45
1,76,64,0
1,76,0,92
1,74,64,1
1,74,0,45
1,79,64,1
1,79,0,93
1,78,64,0
1,78,0,46
1,76,64,0
1,76,0,46
1,74,64,0
1,74,0,92
1,72,64,0
1,72,0,46
1,71,64,0
1,71,0,45
1,69,64,0
1,69,0,139
1,72,64,0
1,72,0,45
1,69,64,0
1,69,0,92
1,67,64,0
1,67,0,47
1,66,64,0
1,66,0,46
1,67,64,0
1,67,0,23
1,69,64,0
1,69,0,23
1,67,64,0
1,67,0,23
1,69,64,0
1,69,0,23
1,67,64,0
1,67,0,23
1,69,64,0
1,69,0,23
1,67,64,0
1,67,0,92
1,67,64,184
1,67,0,45
1,67,64,1
1,67,0,45
1,67,64,0
1,67,0,46
1,67,64,0
1,67,0,46
1,67,64,0
1,67,0,45
1,67,64,1
1,67,0,45
1,67,64,1
1,67,0,46
1,67,64,0
1,67,0,45
1,67,64,2
1,67,0,45
1,67,64,1
1,67,0,45
1,67,64,1
1,67,0,44
1,67,64,2
1,67,0,45
1,67,64,0
1,67,0,46
1,67,64,0
1,67,0,91
1,65,64,94
1,65,0,45
1,65,64,0
1,65,0,46
1,65,64,1
1,65,0,45
1,65,64,0
1,65,0,46
1,65,64,1
1,65,0,47
1,65,64,0
1,65,0,43
1,67,64,0
1,67,0,93
1,69,64,1
1,69,0,44
1,69,64,0
1,69,0,276
1,72,64,62
1,72,0,61
1,72,64,0
1,72,0,61
1,72,64,0
1,72,0,61
1,74,64,0
1,74,0,62
1,74,64,0
1,74,0,61
1,74,64,3
1,74,0,58
1,77,64,0
1,77,0,62
1,77,64,0
1,77,0,61
1,77,64,0
1,77,0,61
1,77,64,0
1,77,0,61
1,77,64,0
1,77,0,62
1,72,64,47
1,72,0,46
1,72,64,0
1,72,0,45
1,72,64,2
1,72,0,43
1,72,64,2
1,72,0,45
1,77,64,1
1,77,0,69
1,72,64,22
1,72,0,45
1,77,64,2
1,77,0,34
1,77,64,11
1,77,0,35
1,77,64,104
1,77,0,68
1,77,64,69
1,77,0,139
1,81,64,0
1,81,0,47
1,81,64,0
1,81,0,44
1,81,64,0
1,81,0,46
1,83,64,0
1,83,0,47
1,83,64,0
1,83,0,45
1,83,64,0
1,83,0,46
1,83,64,1
1,83,0,45
1,84,64,1
1,84,0,45
1,84,64,1
1,84,0,92
1,84,64,0
1,84,0,368
1,67,64,0
1,67,0,45
1,67,64,0
1,67,0,46
1,67,64,1
1,67,0,45
1,67,64,0
1,67,0,46
1,67,64,0
1,67,0,46
