track,note,velocity,time
2,74,79,288
2,74,0,126
2,74,79,66
2,74,0,126
2,78,79,66
2,78,0,64
2,78,79,32
2,78,0,64
2,76,79,32
2,76,0,48
2,74,79,0
2,74,0,32
2,74,79,16
2,74,0,64
2,78,95,1664
2,78,0,64
2,78,95,32
2,78,0,32
2,78,95,16
2,78,0,32
2,79,95,16
2,79,0,32
2,78,95,16
2,78,0,32
2,76,95,16
2,76,0,32
2,78,95,16
2,78,0,32
2,76,95,16
2,76,0,32
2,74,95,16
2,74,0,112
2,69,95,176
2,69,0,32
2,78,95,16
2,78,0,32
2,78,95,16
2,78,0,32
2,78,95,16
2,78,0,32
2,78,95,16
2,78,0,32
2,79,95,16
2,79,0,32
2,78,95,16
2,78,0,32
2,76,95,16
2,76,0,32
2,74,95,16
2,74,0,32
2,73,95,16
2,73,0,32
2,71,95,16
2,71,0,80
2,66,95,16
2,66,0,32
2,69,95,16
2,69,0,32
2,73,95,0
2,73,0,4
2,69,95,168
2,69,0,32
2,71,95,16
2,71,0,32
2,73,95,16
2,73,0,64
2,73,95,32
2,73,0,32
2,71,95,16
2,71,0,32
2,73,95,16
2,73,0,32
2,71,95,16
2,71,0,32
2,69,95,16
2,69,0,32
2,73,95,0
2,73,0,4
2,69,95,168
2,69,0,32
2,71,95,16
2,71,0,32
2,73,95,16
2,73,0,32
2,73,95,16
2,73,0,32
2,73,95,16
2,73,0,32
2,73,95,16
2,73,0,32
2,73,95,16
2,73,0,32
2,74,95,16
2,74,0,32
2,76,95,16
2,76,0,32
2,78,95,0
2,78,0,4
2,78,95,0
2,78,0,40
2,78,95,32
2,78,0,32
2,78,95,16
2,78,0,32
2,79,95,16
2,79,0,32
2,78,95,16
2,78,0,32
2,76,95,16
2,76,0,32
2,78,95,16
2,78,0,32
2,76,95,16
2,76,0,32
2,74,95,16
2,74,0,112
2,69,95,176
2,69,0,32
2,78,95,16
2,78,0,32
2,78,95,16
2,78,0,32
2,78,95,16
2,78,0,32
2,78,95,16
2,78,0,32
2,79,95,16
2,79,0,32
2,78,95,16
2,78,0,32
2,76,95,16
2,76,0,32
2,74,95,16
2,74,0,32
2,73,95,16
2,73,0,32
2,71,95,16
2,71,0,80
2,66,95,16
2,66,0,32
2,69,95,16
2,69,0,32
2,73,95,16
2,73,0,112
2,69,95,272
2,69,0,32
2,73,95,16
2,73,0,64
2,73,95,32
2,73,0,64
2,73,95,32
2,73,0,32
2,71,95,16
2,71,0,32
2,69,95,16
2,69,0,32
2,73,95,0
2,73,0,4
2,69,95,120
2,69,0,32
2,69,95,16
2,69,0,32
2,71,95,16
2,71,0,32
2,73,95,16
2,73,0,32
2,73,95,16
2,73,0,32
2,73,95,16
2,73,0,32
2,73,95,16
2,73,0,32
2,73,95,16
2,73,0,32
2,74,95,16
2,74,0,32
2,76,95,16
2,76,0,32
2,78,95,16
2,78,0,24
2,76,95,0
2,76,0,24
2,74,95,0
2,74,0,64
2,78,95,1568
2,78,0,64
2,78,95,32
2,78,0,32
2,78,95,16
2,78,0,32
2,79,95,16
2,79,0,32
2,78,95,16
2,78,0,32
2,76,95,16
2,76,0,32
2,78,95,16
2,78,0,32
2,76,95,16
2,76,0,32
2,74,95,0
2,74,0,112
2,69,95,120
2,69,0,32
2,78,95,16
2,78,0,32
2,78,95,16
2,78,0,32
2,78,95,16
2,78,0,32
2,78,95,16
2,78,0,32
2,79,95,16
2,79,0,32
2,78,95,16
2,78,0,32
2,76,95,16
2,76,0,32
2,74,95,16
2,74,0,32
2,73,95,16
2,73,0,32
2,71,95,16
2,71,0,80
2,66,95,16
2,66,0,32
2,69,95,16
2,69,0,32
2,73,95,0
2,73,0,4
2,73,95,264
2,73,0,64
2,73,95,32
2,73,0,32
2,71,95,16
2,71,0,32
2,73,95,16
2,73,0,32
2,71,95,16
2,71,0,32
2,69,95,16
2,69,0,32
2,73,95,0
2,73,0,4
2,69,95,168
2,69,0,32
2,71,95,16
2,71,0,32
2,73,95,16
2,73,0,32
2,73,95,16
2,73,0,32
2,73,95,16
2,73,0,32
2,73,95,16
2,73,0,32
2,73,95,16
2,73,0,32
2,74,95,16
2,74,0,32
2,76,95,16
2,76,0,32
2,78,95,0
2,78,0,4
2,78,95,0
2,78,0,40
2,78,95,32
2,78,0,32
2,78,95,16
2,78,0,32
2,79,95,16
2,79,0,32
2,78,95,16
2,78,0,32
2,76,95,16
2,76,0,32
2,78,95,16
2,78,0,32
2,76,95,16
2,76,0,32
2,74,95,16
2,74,0,112
2,69,95,176
2,69,0,32
2,78,95,16
2,78,0,32
2,78,95,16
2,78,0,32
2,78,95,16
2,78,0,32
2,78,95,16
2,78,0,32
2,79,95,16
2,79,0,32
2,78,95,16
2,78,0,32
2,76,95,16
2,76,0,32
2,74,95,16
2,74,0,32
2,73,95,16
2,73,0,32
2,71,95,16
2,71,0,80
2,66,95,16
2,66,0,32
2,69,95,16
2,69,0,32
2,73,95,0
2,73,0,4
2,69,95,216
2,69,0,32
2,73,95,16
2,73,0,64
2,73,95,32
2,73,0,64
2,73,95,32
2,73,0,32
2,71,95,16
2,71,0,32
2,69,95,16
2,69,0,32
2,73,95,16
2,73,0,112
2,69,95,224
2,69,0,32
2,71,95,16
2,71,0,32
2,73,95,16
2,73,0,32
2,73,95,16
2,73,0,32
2,73,95,16
2,73,0,32
2,74,95,16
2,74,0,112
2,76,95,32
2,76,0,64
2,76,95,32
2,76,0,96
2,74,95,48
2,74,0,112
2,73,95,32
2,73,0,64
2,76,95,32
2,76,0,96
2,74,95,48
2,74,0,112
2,73,95,32
2,73,0,64
2,76,95,32
2,76,0,96
2,74,95,48
2,74,0,112
2,73,95,32
2,73,0,64
2,73,95,32
2,73,0,96
2,74,95,48
2,74,0,112
2,76,95,32
2,76,0,64
2,74,95,32
2,74,0,96
2,73,95,48
2,73,0,112
2,71,95,32
2,71,0,64
2,73,95,0
2,73,0,6
2,69,95,0
2,69,0,8
2,71,95,16
2,71,0,32
2,73,95,16
2,73,0,64
2,73,95,32
2,73,0,64
2,73,95,32
2,73,0,32
2,74,95,16
2,74,0,32
2,73,95,16
2,73,0,32
2,71,95,16
2,71,0,174
2,78,95,354
2,78,0,64
2,78,95,32
2,78,0,80
2,79,95,16
2,79,0,32
2,78,95,16
2,78,0,32
2,76,95,16
2,76,0,32
2,78,95,16
2,78,0,32
2,76,95,16
2,76,0,32
2,74,95,16
2,74,0,112
2,78,95,224
2,78,0,32
2,78,95,16
2,78,0,32
2,78,95,16
2,78,0,32
2,78,95,16
2,78,0,32
2,79,95,16
2,79,0,32
2,78,95,16
2,78,0,32
2,76,95,16
2,76,0,32
2,74,95,16
2,74,0,32
2,73,95,16
2,73,0,32
2,71,95,16
2,71,0,80
2,66,95,16
2,66,0,32
2,69,95,16
2,69,0,32
2,73,95,0
2,73,0,4
2,71,95,216
2,71,0,32
2,73,95,16
2,73,0,64
2,73,95,32
2,73,0,32
2,71,95,16
2,71,0,32
2,73,95,16
2,73,0,32
2,71,95,16
2,71,0,32
2,69,95,16
2,69,0,32
2,73,95,0
2,73,0,4
2,69,95,168
2,69,0,32
2,71,95,16
2,71,0,32
2,73,95,16
2,73,0,32
2,73,95,16
2,73,0,32
2,73,95,16
2,73,0,32
2,73,95,16
2,73,0,32
2,73,95,16
2,73,0,32
2,74,95,16
2,74,0,32
2,76,95,16
2,76,0,32
2,78,95,0
2,78,0,4
2,78,95,0
2,78,0,40
2,78,95,32
2,78,0,32
2,78,95,16
2,78,0,32
2,79,95,16
2,79,0,32
2,78,95,16
2,78,0,32
2,76,95,16
2,76,0,32
2,78,95,16
2,78,0,32
2,76,95,16
2,76,0,32
2,74,95,16
2,74,0,112
2,69,95,176
2,69,0,32
2,78,95,16
2,78,0,32
2,78,95,16
2,78,0,32
2,78,95,16
2,78,0,32
2,78,95,16
2,78,0,32
2,79,95,16
2,79,0,32
2,78,95,16
2,78,0,32
2,76,95,16
2,76,0,32
2,74,95,16
2,74,0,32
2,73,95,16
2,73,0,32
2,71,95,16
2,71,0,80
2,66,95,16
2,66,0,32
2,69,95,16
2,69,0,32
2,73,95,0
2,73,0,4
2,69,95,216
2,69,0,32
2,73,95,16
2,73,0,64
2,73,95,32
2,73,0,32
2,71,95,16
2,71,0,32
2,73,95,16
2,73,0,32
2,71,95,16
2,71,0,32
2,69,95,16
2,69,0,32
2,73,95,16
2,73,0,112
2,69,95,176
2,69,0,32
2,69,95,16
2,69,0,32
2,71,95,16
2,71,0,32
2,73,95,16
2,73,0,32
2,73,95,16
2,73,0,32
2,73,95,16
2,73,0,32
2,73,95,16
2,73,0,32
2,73,95,16
2,73,0,32
2,74,95,16
2,74,0,32
2,76,95,0
2,76,0,8
2,78,95,0
2,78,0,12
2,76,95,0
2,76,0,12
2,74,111,0
2,74,0,4
2,76,95,2856
2,76,0,64
2,76,95,32
2,76,0,96
2,74,95,48
2,74,0,112
2,73,95,32
2,73,0,64
2,76,95,32
2,76,0,96
2,74,95,48
2,74,0,112
2,78,95,32
2,78,0,64
2,76,95,32
2,76,0,96
2,74,95,48
2,74,0,112
2,73,95,32
2,73,0,64
2,73,95,32
2,73,0,96
2,74,95,48
2,74,0,112
2,76,95,32
2,76,0,64
2,74,95,32
2,74,0,96
2,73,95,48
2,73,0,112
2,71,95,32
2,71,0,64
2,73,95,32
2,73,0,126
2,69,95,162
2,69,0,32
2,71,95,16
2,71,0,32
2,73,95,16
2,73,0,64
2,73,95,32
2,73,0,32
2,73,95,16
2,73,0,32
2,73,95,16
2,73,0,32
2,74,95,16
2,74,0,32
2,73,95,16
2,73,0,32
2,71,95,16
2,71,0,174
2,78,95,354
2,78,0,64
2,78,95,32
2,78,0,32
2,78,95,16
2,78,0,32
2,79,95,16
2,79,0,32
2,78,95,16
2,78,0,32
2,76,95,16
2,76,0,32
2,78,95,16
2,78,0,32
2,76,95,16
2,76,0,32
2,74,95,16
2,74,0,112
2,69,95,176
2,69,0,32
2,78,95,16
2,78,0,32
2,78,95,16
2,78,0,32
2,78,95,16
2,78,0,32
2,78,95,16
2,78,0,32
2,79,95,16
2,79,0,32
2,78,95,16
2,78,0,32
2,76,95,16
2,76,0,32
2,74,95,16
2,74,0,32
2,73,95,16
2,73,0,32
2,71,95,16
2,71,0,80
2,66,95,16
2,66,0,32
2,69,95,16
2,69,0,32
2,73,95,16
2,73,0,112
2,69,95,224
2,69,0,32
2,71,95,16
2,71,0,32
2,73,95,16
2,73,0,64
2,73,95,32
2,73,0,32
2,71,95,16
2,71,0,32
2,73,95,16
2,73,0,32
2,71,95,16
2,71,0,32
2,69,95,16
2,69,0,32
2,73,95,16
2,73,0,112
2,69,95,224
2,69,0,32
2,71,95,16
2,71,0,32
2,73,95,16
2,73,0,32
2,73,95,16
2,73,0,32
2,73,95,16
2,73,0,32
2,73,95,16
2,73,0,32
2,73,95,16
2,73,0,32
2,74,95,16
2,74,0,32
2,76,95,16
2,76,0,32
2,78,95,16
2,78,0,112
2,78,95,32
2,78,0,64
2,78,95,32
2,78,0,32
2,78,95,16
2,78,0,32
2,79,95,16
2,79,0,32
2,78,95,16
2,78,0,32
2,76,95,16
2,76,0,32
2,78,95,16
2,78,0,32
2,76,95,16
2,76,0,32
2,74,95,16
2,74,0,112
2,69,95,176
2,69,0,32
2,78,95,16
2,78,0,32
2,78,95,16
2,78,0,32
2,78,95,16
2,78,0,32
2,78,95,16
2,78,0,32
2,79,95,16
2,79,0,32
2,78,95,16
2,78,0,32
2,76,95,16
2,76,0,32
2,74,95,16
2,74,0,32
2,73,95,16
2,73,0,32
2,71,95,16
2,71,0,80
2,66,95,16
2,66,0,32
2,69,95,16
2,69,0,32
2,73,95,16
2,73,0,112
2,69,95,272
2,69,0,32
2,73,95,16
2,73,0,64
2,73,95,32
2,73,0,64
2,73,95,32
2,73,0,32
2,71,95,16
2,71,0,32
2,69,95,16
2,69,0,32
2,73,95,16
2,73,0,112
2,69,95,176
2,69,0,32
2,69,95,16
2,69,0,32
2,71,95,16
2,71,0,32
2,73,95,16
2,73,0,32
2,73,95,16
2,73,0,32
2,73,95,16
2,73,0,32
2,73,95,16
2,73,0,32
2,73,95,16
2,73,0,32
2,74,95,16
2,74,0,32
2,76,95,16
2,76,0,32
2,78,95,16
2,78,0,24
2,76,95,0
2,76,0,24
2,74,95,0
2,74,0,64
2,78,95,416
2,78,0,32
2,76,95,16
2,76,0,32
2,78,95,16
2,78,0,32
2,76,95,16
2,76,0,32
2,74,95,16
2,74,0,32
2,78,95,16
2,78,0,112
2,69,95,1040
2,69,0,32
2,78,95,16
2,78,0,32
2,78,95,16
2,78,0,32
2,78,95,16
2,78,0,32
2,79,95,16
2,79,0,32
2,78,95,16
2,78,0,32
2,76,95,16
2,76,0,32
2,74,95,16
2,74,0,32
2,74,95,16
2,74,0,112
2,74,95,704
2,74,0,64
2,78,95,416
2,78,0,32
2,76,95,16
2,76,0,32
2,78,95,16
2,78,0,32
2,76,95,16
2,76,0,32
2,74,95,16
2,74,0,32
2,78,95,16
2,78,0,16
2,69,95,0
2,69,0,32
2,78,95,0
2,78,0,32
2,78,95,12
2,78,0,32
2,78,95,12
2,78,0,8
2,79,95,16
2,79,0,8
2,78,95,16
2,78,0,20
2,76,95,16
2,76,0,20
2,74,95,0
2,74,0,32
2,74,95,0
2,74,0,28
2,74,95,12
2,74,0,28
2,78,95,24
2,78,0,20
2,76,95,16
2,76,0,20
2,78,95,0
2,78,0,32
2,76,95,0
2,76,0,32
2,74,95,12
2,74,0,32
2,78,95,12
2,78,0,40
2,69,95,24
2,69,0,8
2,78,95,16
2,78,0,20
2,78,95,16
2,78,0,20
2,78,95,0
2,78,0,32
2,79,95,0
2,79,0,32
2,78,95,12
2,78,0,32
2,76,95,12
2,76,0,8
2,74,95,16
2,74,0,8
2,74,95,16
2,74,0,4
3,81,95,1396
3,88,95,0
3,81,0,24
3,88,0,0
3,83,95,0
3,90,95,0
3,83,0,32
3,90,0,0
3,76,95,64
3,81,95,0
3,76,0,64
3,81,0,0
3,78,95,32
3,81,95,0
3,78,0,32
3,81,0,0
3,64,95,112
3,69,95,0
3,64,0,24
3,69,0,0
3,66,95,0
3,69,95,0
3,66,0,16
3,69,0,0
3,69,95,8
3,74,95,0
3,69,0,32
3,74,0,0
3,69,95,16
3,74,95,0
3,69,0,32
3,74,0,0
3,71,95,16
3,76,95,0
3,71,0,24
3,76,0,0
3,69,95,0
3,74,95,0
3,69,0,16
3,74,0,0
3,66,95,8
3,66,0,32
3,69,95,0
3,74,95,0
3,69,0,8
3,74,0,0
3,71,95,0
3,71,0,12
3,71,95,0
3,71,0,8
3,81,95,0
3,88,95,0
3,81,0,24
3,88,0,0
3,83,95,0
3,88,95,0
3,83,0,32
3,88,0,0
3,76,95,64
3,81,95,0
3,76,0,64
3,81,0,0
3,78,95,32
3,81,95,0
3,78,0,32
3,81,0,0
3,78,95,16
3,81,95,0
3,78,0,32
3,81,0,0
3,66,95,16
3,66,0,16
3,66,95,8
3,66,0,16
3,64,95,8
3,64,0,32
3,69,95,16
3,74,95,0
3,69,0,32
3,74,0,0
3,69,95,16
3,74,95,0
3,69,0,32
3,74,0,0
3,71,95,16
3,76,95,0
3,71,0,24
3,76,0,0
3,69,95,0
3,74,95,0
3,69,0,16
3,74,0,0
3,66,95,8
3,66,0,32
3,69,95,16
3,74,95,0
3,69,0,32
3,74,0,0
3,69,95,16
3,74,95,0
3,69,0,32
3,74,0,0
3,69,79,0
3,62,79,0
3,74,79,0
3,62,0,32
3,69,0,0
3,74,0,0
3,69,79,16
3,62,79,0
3,74,79,0
3,62,0,32
3,69,0,0
3,74,0,0
3,69,79,16
3,62,79,0
3,74,79,0
3,62,0,32
3,69,0,0
3,74,0,0
3,69,79,16
3,62,79,0
3,74,79,0
3,62,0,32
3,69,0,0
3,74,0,0
3,69,79,16
3,62,79,0
3,74,79,0
3,62,0,32
3,69,0,0
3,74,0,0
