track,note,velocity,time
1,61,110,4197
1,61,0,111
1,59,110,9
1,59,0,55
1,59,112,5
1,59,0,111
1,57,119,9
1,57,0,111
1,57,119,9
1,57,0,111
1,56,112,9
1,56,0,111
1,54,117,9
1,54,0,55
1,52,115,5
1,52,0,55
1,52,112,5
1,52,0,55
1,61,112,125
1,61,0,111
1,59,105,9
1,59,0,55
1,59,119,5
1,59,0,111
1,57,123,9
1,57,0,111
1,57,115,9
1,57,0,111
1,56,110,9
1,56,0,111
1,54,117,9
1,54,0,55
1,52,119,5
1,52,0,55
1,52,112,5
1,52,0,55
1,61,112,125
1,61,0,111
1,59,112,9
1,59,0,55
1,59,119,5
1,59,0,46
1,57,119,0
1,57,0,111
1,57,115,9
1,57,0,111
1,56,112,9
1,56,0,55
1,54,123,5
1,54,0,46
1,52,112,0
1,52,0,55
1,54,112,5
1,54,0,55
1,56,115,5
1,56,0,111
1,59,115,669
1,59,0,55
1,61,105,5
1,61,0,55
1,62,112,5
1,62,0,46
1,61,107,0
1,61,0,55
1,61,117,5
1,61,0,111
1,59,119,9
1,59,0,111
1,59,112,9
1,59,0,55
1,57,112,5
1,57,0,55
1,54,105,5
1,54,0,55
1,59,119,185
1,59,0,55
1,61,107,5
1,61,0,55
1,62,125,5
1,62,0,46
1,61,99,0
1,61,0,55
1,61,112,5
1,61,0,46
1,59,119,0
1,59,0,55
1,59,105,5
1,59,0,55
1,57,105,5
1,57,0,55
1,54,105,5
1,54,0,55
1,59,115,185
1,59,0,55
1,61,105,5
1,61,0,55
1,62,112,5
1,62,0,46
1,61,112,0
1,61,0,55
1,61,110,5
1,61,0,46
1,59,112,0
1,59,0,55
1,59,119,5
1,59,0,111
1,57,117,9
1,57,0,55
1,57,125,125
1,57,0,111
1,59,123,9
1,59,0,55
1,61,112,5
1,61,0,390
1,61,115,450
1,61,0,55
1,61,115,5
1,61,0,55
1,61,117,5
1,61,0,46
1,59,115,0
1,59,0,55
1,59,115,5
1,59,0,46
1,57,112,0
1,57,0,55
1,57,119,5
1,57,0,111
1,56,117,9
1,56,0,111
1,54,115,9
1,54,0,55
1,52,119,125
1,52,0,111
1,61,105,9
1,61,0,111
1,59,115,9
1,59,0,55
1,59,112,5
1,59,0,111
1,57,115,9
1,57,0,111
1,57,112,9
1,57,0,111
1,56,105,9
1,56,0,55
1,54,123,5
1,54,0,55
1,54,115,5
1,54,0,111
1,52,115,9
1,52,0,55
1,61,110,125
1,61,0,55
1,59,110,5
1,59,0,111
1,59,115,9
1,59,0,46
1,57,119,0
1,57,0,55
1,57,119,5
1,57,0,111
1,56,119,9
1,56,0,46
1,54,115,0
1,54,0,111
1,52,117,9
1,52,0,55
1,54,110,5
1,54,0,166
1,56,112,14
1,56,0,102
1,62,112,0
1,62,0,55
1,62,119,5
1,62,0,55
1,62,115,5
1,62,0,46
1,61,110,0
1,61,0,55
1,61,117,5
1,61,0,46
1,59,107,0
1,59,0,55
1,59,112,5
1,59,0,55
1,57,115,5
1,57,0,55
1,54,97,5
1,54,0,55
1,59,119,185
1,59,0,55
1,61,105,5
1,61,0,55
1,62,112,5
1,62,0,46
1,61,112,0
1,61,0,55
1,61,110,5
1,61,0,46
1,59,117,0
1,59,0,55
1,59,107,5
1,59,0,55
1,57,112,5
1,57,0,55
1,56,110,5
1,56,0,55
1,59,115,185
1,59,0,55
1,61,103,5
1,61,0,55
1,62,119,5
1,62,0,111
1,61,110,9
1,61,0,111
1,61,117,9
1,61,0,46
1,59,112,0
1,59,0,55
1,59,115,5
1,59,0,166
1,57,115,14
1,57,0,55
1,57,119,5
1,57,0,111
1,56,107,9
1,56,0,111
1,59,115,69
1,59,0,166
1,56,101,14
1,56,0,55
1,57,115,5
1,57,0,102
1,61,112,0
1,61,0,55
1,62,123,5
1,62,0,166
1,61,105,14
1,61,0,55
1,64,119,5
1,64,0,46
1,61,117,0
1,61,0,55
1,62,119,5
1,62,0,46
1,61,101,0
1,61,0,55
1,57,112,5
1,57,0,55
1,52,112,5
1,52,0,55
1,52,119,5
1,52,0,55
1,61,110,605
1,61,0,55
1,62,115,5
1,62,0,111
1,64,115,9
1,64,0,111
1,64,115,9
1,64,0,111
1,64,117,9
1,64,0,46
1,64,123,0
1,64,0,55
1,66,105,5
1,66,0,46
1,62,112,0
1,62,0,55
1,61,97,5
1,61,0,111
1,59,119,9
1,59,0,166
1,59,104,14
1,59,0,55
1,61,115,5
1,61,0,111
1,59,115,9
1,59,0,55
1,61,110,5
1,61,0,111
1,61,115,249
1,61,0,55
1,62,105,5
1,62,0,46
1,61,105,0
1,61,0,55
1,64,115,5
1,64,0,166
1,61,115,494
1,61,0,111
1,62,110,9
1,62,0,111
1,61,110,9
1,61,0,55
1,57,119,5
1,57,0,55
1,52,119,5
1,52,0,55
1,52,110,5
1,52,0,55
1,52,107,485
1,52,0,55
1,57,123,5
1,57,0,111
1,61,115,9
1,61,0,111
1,54,107,9
1,54,0,166
1,54,110,14
1,54,0,55
1,59,107,5
1,59,0,111
1,62,119,9
1,62,0,111
1,61,107,9
1,61,0,111
1,57,110,9
1,57,0,55
1,57,112,5
1,57,0,55
1,57,115,5
1,57,0,166
1,56,112,14
1,56,0,55
1,57,119,5
1,57,0,278
1,61,117,1582
1,61,0,55
1,61,123,5
1,61,110,60
1,61,0,51
1,61,0,60
1,59,110,9
1,59,0,55
1,59,112,5
1,59,0,111
1,57,119,9
1,57,0,111
1,57,119,9
1,57,0,111
1,56,112,9
1,56,0,111
1,54,117,9
1,54,0,55
1,52,115,5
1,52,0,55
1,52,112,5
1,52,0,55
1,61,112,125
1,61,0,111
1,59,105,9
1,59,0,55
1,59,119,5
1,59,0,111
1,57,123,9
1,57,0,111
1,57,115,9
1,57,0,111
1,56,110,9
1,56,0,111
1,54,117,9
1,54,0,55
1,52,119,5
1,52,0,55
1,52,112,5
1,52,0,55
1,61,112,125
1,61,0,111
1,59,112,9
1,59,0,55
1,59,119,5
1,59,0,46
1,57,119,0
1,57,0,111
1,57,115,9
1,57,0,111
1,56,112,9
1,56,0,55
1,54,123,5
1,54,0,46
1,52,112,0
1,52,0,55
1,54,112,5
1,54,0,55
1,56,115,5
1,56,0,111
1,59,115,669
1,59,0,55
1,61,105,5
1,61,0,55
1,62,112,5
1,62,0,46
1,61,107,0
1,61,0,55
1,61,117,5
1,61,0,111
1,59,119,9
1,59,0,111
1,59,112,9
1,59,0,55
1,57,112,5
1,57,0,55
1,54,105,5
1,54,0,55
1,59,119,185
1,59,0,55
1,61,107,5
1,61,0,55
1,62,125,5
1,62,0,46
1,61,99,0
1,61,0,55
1,61,112,5
1,61,0,46
1,59,119,0
1,59,0,55
1,59,105,5
1,59,0,55
1,57,105,5
1,57,0,55
1,54,105,5
1,54,0,55
1,59,115,185
1,59,0,55
1,61,105,5
1,61,0,55
1,62,112,5
1,62,0,46
1,61,112,0
1,61,0,55
1,61,110,5
1,61,0,46
1,59,112,0
1,59,0,55
1,59,119,5
1,59,0,111
1,57,117,9
1,57,0,55
1,57,125,125
1,57,0,111
1,59,123,9
1,59,0,55
1,61,112,5
1,61,0,390
1,61,115,450
1,61,0,55
1,61,115,5
1,61,0,55
1,61,117,5
1,61,0,46
1,59,115,0
1,59,0,55
1,59,115,5
1,59,0,46
1,57,112,0
1,57,0,55
1,57,119,5
1,57,0,111
1,56,117,9
1,56,0,111
1,54,115,9
1,54,0,55
1,52,119,125
1,52,0,111
1,61,105,9
1,61,0,111
1,59,115,9
1,59,0,55
1,59,112,5
1,59,0,111
1,57,115,9
1,57,0,111
1,57,112,9
1,57,0,111
1,56,105,9
1,56,0,55
1,54,123,5
1,54,0,55
1,54,115,5
1,54,0,111
1,52,115,9
1,52,0,55
1,61,110,125
1,61,0,55
1,59,110,5
1,59,0,111
1,59,115,9
1,59,0,46
1,57,119,0
1,57,0,55
1,57,119,5
1,57,0,111
1,56,119,9
1,56,0,46
1,54,115,0
1,54,0,111
1,52,117,9
1,52,0,55
1,54,110,5
1,54,0,166
1,56,112,14
1,56,0,102
1,62,112,0
1,62,0,55
1,62,119,5
1,62,0,55
1,62,115,5
1,62,0,46
1,61,110,0
1,61,0,55
1,61,117,5
1,61,0,46
1,59,107,0
1,59,0,55
1,59,112,5
1,59,0,55
1,57,115,5
1,57,0,55
1,54,97,5
1,54,0,55
1,59,119,185
1,59,0,55
1,61,105,5
1,61,0,55
1,62,112,5
1,62,0,46
1,61,112,0
1,61,0,55
1,61,110,5
1,61,0,46
1,59,117,0
1,59,0,55
1,59,107,5
1,59,0,55
1,57,112,5
1,57,0,55
1,56,110,5
1,56,0,55
1,59,115,185
1,59,0,55
1,61,103,5
1,61,0,55
1,62,119,5
1,62,0,111
1,61,110,9
1,61,0,111
1,61,117,9
1,61,0,46
1,59,112,0
1,59,0,55
1,59,115,5
1,59,0,166
1,57,115,14
1,57,0,55
1,57,119,5
1,57,0,111
1,56,107,9
1,56,0,111
1,59,115,69
1,59,0,166
1,56,101,14
1,56,0,55
1,57,115,5
1,57,0,102
1,61,112,0
1,61,0,55
1,62,123,5
1,62,0,166
1,61,105,14
1,61,0,55
1,64,119,5
1,64,0,46
1,61,117,0
1,61,0,55
1,62,119,5
1,62,0,46
1,61,101,0
1,61,0,55
1,57,112,5
1,57,0,55
1,52,112,5
1,52,0,55
1,52,119,5
1,52,0,55
1,61,110,605
1,61,0,55
1,62,115,5
1,62,0,111
1,64,115,9
1,64,0,111
1,64,115,9
1,64,0,111
1,64,117,9
1,64,0,46
1,64,123,0
1,64,0,55
1,66,105,5
1,66,0,46
1,62,112,0
1,62,0,55
1,61,97,5
1,61,0,111
1,59,119,9
1,59,0,46
1,59,104,0
1,59,0,55
1,61,115,5
1,61,0,111
1,59,115,9
1,59,0,55
1,61,110,5
1,61,0,111
1,61,115,249
1,61,0,55
1,62,105,5
1,62,0,46
1,61,105,0
1,61,0,55
1,64,115,5
1,64,0,46
1,61,115,0
1,61,0,111
1,62,110,9
1,62,0,111
1,61,110,9
1,61,0,55
1,57,119,5
1,57,0,55
1,52,119,5
1,52,0,55
1,52,110,5
1,52,0,55
1,52,107,485
1,52,0,55
1,57,123,5
1,57,0,111
1,61,115,9
1,61,0,111
1,54,107,9
1,54,0,46
1,54,110,0
1,54,0,55
1,59,107,5
1,59,0,111
1,62,119,9
1,62,0,111
1,61,107,9
1,61,0,111
1,57,110,9
1,57,0,55
1,57,112,5
1,57,0,55
1,57,115,5
1,57,0,166
1,56,112,14
1,56,0,55
1,57,119,5
1,57,0,98
1,64,119,0
1,64,0,55
1,69,112,5
1,69,0,106
1,66,117,0
1,66,0,55
1,66,115,5
1,66,0,111
1,61,117,0
1,61,0,55
1,62,119,5
1,62,0,46
1,61,101,0
1,61,0,55
1,57,112,5
1,57,0,55
1,52,112,5
1,52,0,55
1,52,119,5
1,52,0,55
1,61,110,605
1,61,0,55
1,62,115,5
1,62,0,111
1,64,115,9
1,64,0,111
1,64,115,9
1,64,0,111
1,64,117,9
1,64,0,46
1,64,123,0
1,64,0,55
1,66,105,5
1,66,0,46
1,62,112,0
1,62,0,55
1,61,97,5
1,61,0,111
1,59,119,9
1,59,0,46
1,59,104,0
1,59,0,55
1,61,115,5
1,61,0,111
1,59,115,9
1,59,0,55
1,61,110,5
1,61,0,111
1,61,115,249
1,61,0,55
1,62,105,5
1,62,0,46
1,61,105,0
1,61,0,55
1,64,115,5
1,64,0,46
1,61,115,0
1,61,0,111
1,62,110,9
1,62,0,111
1,61,110,9
1,61,0,55
1,57,119,5
1,57,0,55
1,52,119,5
1,52,0,55
1,52,110,5
1,52,0,55
1,52,107,485
1,52,0,55
1,57,123,5
1,57,0,111
1,61,115,9
1,61,0,111
1,54,107,9
1,54,0,166
1,54,110,14
1,54,0,55
1,59,107,5
1,59,0,111
1,62,119,9
1,62,0,111
1,61,107,9
1,61,0,111
1,57,110,9
1,57,0,55
1,57,112,5
1,57,0,55
1,57,115,5
1,57,0,106
1,56,112,0
1,56,0,55
1,57,119,5
1,57,0,218
1,57,99,0
1,57,0,55
1,57,119,5
1,57,0,55
1,57,119,5
1,57,0,55
1,57,125,5
1,57,0,111
1,57,119,9
1,57,0,55
1,57,112,5
1,57,0,55
1,57,119,5
1,57,0,111
1,57,125,9
1,57,0,55
1,55,115,5
1,55,0,111
1,57,119,9
1,57,0,55
1,57,99,185
1,57,0,55
1,57,119,5
1,57,0,55
1,57,119,5
1,57,0,55
1,57,125,5
1,57,0,111
1,57,119,9
1,57,0,55
1,57,112,5
1,57,0,55
1,57,119,5
1,57,0,111
1,57,125,9
1,57,0,55
1,55,115,5
1,55,0,111
1,57,99,0
1,57,0,55
1,57,119,5
1,57,0,55
1,57,119,5
1,57,0,55
1,57,125,5
1,57,0,111
1,57,119,9
1,57,0,55
1,57,112,5
1,57,0,55
1,57,119,5
1,57,0,111
1,57,125,9
1,57,0,55
1,55,115,5
1,55,0,111
1,57,119,9
1,57,0,55
1,57,99,185
1,57,0,55
1,57,119,5
1,57,0,55
1,57,119,5
1,57,0,55
1,57,125,5
1,57,0,111
1,57,119,9
1,57,0,55
1,57,112,5
1,57,0,55
1,57,119,5
1,57,0,111
1,57,125,9
1,57,0,55
1,55,115,5
1,55,0,111
2,57,112,21212
2,57,0,59
2,57,117,1
2,57,0,119
2,68,76,1
2,59,94,0
2,59,0,119
2,68,0,0
2,68,87,1
2,59,105,0
2,59,0,119
2,68,0,0
2,59,105,1
2,68,87,0
2,68,0,179
2,59,0,0
2,59,95,1
2,68,91,0
2,68,0,59
2,59,0,0
2,69,85,1
2,62,105,0
2,62,0,179
2,69,0,0
2,66,85,1
2,57,110,0
2,57,0,59
2,66,0,0
2,66,89,1
2,57,110,0
2,57,0,119
2,66,0,0
2,62,99,1
2,57,86,0
2,57,0,179
2,62,0,0
2,62,86,1
2,57,90,0
2,57,0,59
2,62,0,0
2,64,98,1
2,57,89,0
2,57,0,119
2,64,0,0
2,57,95,1
2,64,93,0
2,64,0,179
2,57,0,0
2,61,110,2161
2,61,0,59
2,66,112,1
2,66,0,119
2,64,115,1
2,64,0,119
2,62,117,1
2,62,0,179
2,62,115,1
2,62,0,59
2,66,110,1
2,66,0,119
2,69,127,1
2,69,0,119
2,68,117,1
2,68,0,119
2,62,112,1
2,62,0,59
2,62,119,1
2,62,0,59
2,62,125,1
2,62,0,179
2,59,115,1
2,59,0,59
2,61,112,1
2,61,0,299
2,57,112,18721
2,57,0,59
2,57,117,1
2,57,0,119
2,68,76,1
2,59,94,0
2,59,0,119
2,68,0,0
2,68,87,1
2,59,105,0
2,59,0,119
2,68,0,0
2,59,105,1
2,68,87,0
2,68,0,179
2,59,0,0
2,59,95,1
2,68,91,0
2,68,0,59
2,59,0,0
2,69,85,1
2,62,105,0
2,62,0,179
2,69,0,0
2,66,85,1
2,57,110,0
2,57,0,59
2,66,0,0
2,66,89,1
2,57,110,0
2,57,0,119
2,66,0,0
2,62,99,1
2,57,86,0
2,57,0,179
2,62,0,0
2,62,86,1
2,57,90,0
2,57,0,59
2,62,0,0
2,64,98,1
2,57,89,0
2,57,0,119
2,64,0,0
2,57,95,1
2,64,93,0
2,64,0,179
2,57,0,0
2,61,110,2161
2,61,0,59
2,66,112,1
2,66,0,119
2,64,115,1
2,64,0,119
2,62,117,1
2,62,0,179
2,62,115,1
2,62,0,59
2,66,110,1
2,66,0,119
2,69,127,1
2,69,0,119
2,68,117,1
2,68,0,119
2,62,112,1
2,62,0,59
2,62,119,1
2,62,0,59
2,62,125,1
2,62,0,179
2,59,115,1
2,59,0,59
2,61,112,1
2,61,0,299
2,57,112,10081
2,57,0,59
2,57,117,1
2,57,0,119
2,68,76,1
2,59,94,0
2,59,0,119
2,68,0,0
2,68,87,1
2,59,105,0
2,59,0,119
2,68,0,0
2,59,105,1
2,68,87,0
2,68,0,179
2,59,0,0
2,59,95,1
2,68,91,0
2,68,0,59
2,59,0,0
2,69,85,1
2,62,105,0
