track,note,velocity,time
1,38,80,384
1,38,0,72
1,45,80,0
1,45,0,24
1,45,80,24
1,45,0,24
1,33,80,0
1,33,0,48
1,38,80,0
1,38,0,72
1,45,80,0
1,45,0,24
1,45,80,24
1,45,0,24
1,33,80,0
1,33,0,48
1,38,80,0
1,38,0,72
1,45,80,0
1,45,0,24
1,45,80,24
1,45,0,24
1,33,80,0
1,33,0,48
1,38,80,0
1,38,0,48
1,62,122,0
1,62,0,48
1,66,122,0
1,66,0,48
1,69,122,0
1,69,0,48
1,62,104,0
1,66,104,0
1,71,122,0
1,47,80,0
1,62,0,72
1,66,0,0
1,71,0,0
1,47,0,0
1,61,104,0
1,64,104,0
1,69,122,0
1,45,80,0
1,61,0,120
1,64,0,0
1,69,0,0
1,45,0,0
1,54,104,0
1,59,104,0
1,62,104,0
1,66,122,0
1,40,80,0
1,54,0,96
1,59,0,0
1,62,0,0
1,66,0,0
1,40,0,0
1,57,104,0
1,61,104,0
1,64,122,0
1,45,80,0
1,57,0,96
1,61,0,0
1,64,0,0
1,45,0,0
1,57,104,0
1,62,104,0
1,66,122,0
1,38,80,0
1,38,0,72
1,45,80,0
1,45,0,24
1,45,80,24
1,45,0,24
1,33,80,0
1,57,0,48
1,62,0,0
1,66,0,0
1,33,0,0
1,38,80,0
1,38,0,48
1,62,122,0
1,62,0,48
1,66,122,0
1,66,0,48
1,69,122,0
1,69,0,48
1,62,104,0
1,66,104,0
1,71,122,0
1,47,80,0
1,62,0,72
1,66,0,0
1,71,0,0
1,47,0,0
1,61,104,0
1,64,104,0
1,69,122,0
1,45,80,0
1,61,0,120
1,64,0,0
1,69,0,0
1,45,0,0
1,54,104,0
1,59,104,0
1,62,104,0
1,66,122,0
1,40,80,0
1,54,0,96
1,59,0,0
1,62,0,0
1,66,0,0
1,40,0,0
1,57,104,0
1,61,104,0
1,64,122,0
1,45,80,0
1,57,0,96
1,61,0,0
1,64,0,0
1,45,0,0
1,57,104,0
1,54,104,0
1,62,122,0
1,38,80,0
1,38,0,72
1,45,80,0
1,45,0,24
1,45,80,24
1,45,0,24
1,33,80,0
1,57,0,48
1,54,0,0
1,62,0,0
1,33,0,0
1,38,80,0
1,38,0,48
1,62,122,0
1,62,0,48
1,66,122,0
1,66,0,48
1,69,122,0
1,69,0,48
1,62,104,0
1,66,104,0
1,71,122,0
1,47,80,0
1,62,0,72
1,66,0,0
1,71,0,0
1,47,0,0
1,61,104,0
1,64,104,0
1,69,122,0
1,45,80,0
1,61,0,120
1,64,0,0
1,69,0,0
1,45,0,0
1,54,104,0
1,59,104,0
1,62,104,0
1,66,122,0
1,40,80,0
1,54,0,96
1,59,0,0
1,62,0,0
1,66,0,0
1,40,0,0
1,57,104,0
1,61,104,0
1,64,122,0
1,45,80,0
1,57,0,96
1,61,0,0
1,64,0,0
1,45,0,0
1,59,104,0
1,60,104,0
1,64,104,0
1,67,122,0
1,36,80,0
1,59,0,72
1,60,0,0
1,64,0,0
1,59,104,0
1,60,104,0
1,64,104,0
1,59,0,48
1,60,0,0
1,64,0,0
1,59,104,0
1,60,104,0
1,64,104,0
1,36,0,72
1,59,0,0
1,60,0,0
1,64,0,0
1,59,104,0
1,62,104,0
1,35,80,0
1,67,0,48
1,59,0,0
1,62,0,0
1,59,104,0
1,62,104,0
1,67,122,0
1,67,0,48
1,69,122,0
1,59,0,48
1,62,0,0
1,69,0,0
1,62,104,0
1,67,104,0
1,71,122,0
1,35,0,48
1,62,0,0
1,67,0,0
1,71,0,0
1,61,104,0
1,64,104,0
1,69,122,0
1,33,80,0
1,61,0,48
1,64,0,0
1,57,104,0
1,57,0,24
1,61,104,0
1,61,0,48
1,64,104,0
1,69,0,24
1,69,122,0
1,33,0,48
1,64,0,0
1,62,104,0
1,35,80,0
1,69,0,48
1,71,122,0
1,62,0,48
1,35,0,0
1,71,0,0
1,57,104,0
1,67,122,0
1,37,80,0
1,67,0,48
1,64,122,0
1,57,0,48
1,37,0,0
1,64,0,0
1,57,104,0
1,54,104,0
1,62,122,0
1,38,80,0
1,38,0,72
1,45,80,0
1,45,0,24
1,45,80,24
1,45,0,24
1,33,80,0
1,57,0,48
1,54,0,0
1,62,0,0
1,33,0,0
1,38,80,0
1,38,0,48
1,62,122,0
1,62,0,48
1,66,122,0
1,66,0,48
1,69,122,0
1,69,0,48
1,62,104,0
1,66,104,0
1,71,122,0
1,47,80,0
1,62,0,72
1,66,0,0
1,71,0,0
1,47,0,0
1,61,104,0
1,64,104,0
1,69,122,0
1,45,80,0
1,61,0,120
1,64,0,0
1,69,0,0
1,45,0,0
1,54,104,0
1,59,104,0
1,62,104,0
1,66,122,0
1,40,80,0
1,54,0,96
1,59,0,0
1,62,0,0
1,66,0,0
1,40,0,0
1,57,104,0
1,61,104,0
1,64,122,0
1,45,80,0
1,57,0,96
1,61,0,0
1,64,0,0
1,45,0,0
1,57,104,0
1,62,104,0
1,66,122,0
1,38,80,0
1,38,0,72
1,45,80,0
1,45,0,24
1,45,80,24
1,45,0,24
1,33,80,0
1,57,0,48
1,62,0,0
1,66,0,0
1,33,0,0
1,38,80,0
1,38,0,48
1,62,122,0
1,62,0,48
1,66,122,0
1,66,0,48
1,69,122,0
1,69,0,48
1,62,104,0
1,66,104,0
1,71,122,0
1,47,80,0
1,62,0,72
1,66,0,0
1,71,0,0
1,47,0,0
1,61,104,0
1,64,104,0
1,69,122,0
1,45,80,0
1,61,0,120
1,64,0,0
1,69,0,0
1,45,0,0
1,54,104,0
1,59,104,0
1,62,104,0
1,66,122,0
1,40,80,0
1,54,0,96
1,59,0,0
1,62,0,0
1,66,0,0
1,40,0,0
1,57,104,0
1,61,104,0
1,64,122,0
1,45,80,0
1,57,0,96
1,61,0,0
1,64,0,0
1,45,0,0
1,57,104,0
1,54,104,0
1,62,122,0
1,38,80,0
1,38,0,72
1,45,80,0
1,45,0,24
1,45,80,24
1,45,0,24
1,33,80,0
1,57,0,48
1,54,0,0
1,62,0,0
1,33,0,0
1,38,80,0
1,38,0,48
1,62,122,0
1,62,0,48
1,66,122,0
1,66,0,48
1,69,122,0
1,69,0,48
1,62,104,0
1,66,104,0
1,71,122,0
1,47,80,0
1,62,0,72
1,66,0,0
1,71,0,0
1,47,0,0
1,61,104,0
1,64,104,0
1,69,122,0
1,45,80,0
1,61,0,120
1,64,0,0
1,69,0,0
1,45,0,0
1,54,104,0
1,59,104,0
1,62,104,0
1,66,122,0
1,40,80,0
1,54,0,96
1,59,0,0
1,62,0,0
1,66,0,0
1,40,0,0
1,57,104,0
1,61,104,0
1,64,122,0
1,45,80,0
1,57,0,96
1,61,0,0
1,64,0,0
1,45,0,0
1,59,104,0
1,60,104,0
1,64,104,0
1,67,122,0
1,36,80,0
1,59,0,72
1,60,0,0
1,64,0,0
1,59,104,0
1,60,104,0
1,64,104,0
1,59,0,48
1,60,0,0
1,64,0,0
1,59,104,0
1,60,104,0
1,64,104,0
1,36,0,72
1,59,0,0
1,60,0,0
1,64,0,0
1,59,104,0
1,62,104,0
1,35,80,0
1,67,0,48
1,59,0,0
1,62,0,0
1,59,104,0
1,62,104,0
1,67,122,0
1,67,0,48
1,69,122,0
1,59,0,48
1,62,0,0
1,69,0,0
1,62,104,0
1,67,104,0
1,71,122,0
1,35,0,48
1,62,0,0
1,67,0,0
1,71,0,0
1,61,104,0
1,64,104,0
1,69,122,0
1,33,80,0
1,61,0,48
1,64,0,0
1,57,104,0
1,57,0,24
1,61,104,0
1,61,0,48
1,64,104,0
1,69,0,24
1,69,122,0
1,33,0,48
1,64,0,0
1,62,104,0
1,35,80,0
1,69,0,48
1,71,122,0
1,62,0,48
1,35,0,0
1,71,0,0
1,57,104,0
1,67,122,0
1,37,80,0
1,67,0,48
1,64,122,0
1,57,0,48
1,37,0,0
1,64,0,0
1,57,104,0
1,54,104,0
1,62,122,0
1,38,80,0
1,38,0,72
1,45,80,0
1,45,0,24
1,45,80,24
1,45,0,24
1,33,80,0
1,33,0,48
1,38,80,0
1,57,0,192
1,54,0,0
1,62,0,0
1,38,0,0
1,71,104,0
1,74,104,0
1,79,122,0
1,31,80,0
1,71,0,48
1,74,0,0
1,79,0,0
1,31,0,0
1,74,104,0
1,79,104,0
1,83,122,0
1,43,80,0
1,74,0,48
1,79,0,0
1,83,0,0
1,43,0,0
1,73,104,0
1,76,104,0
1,81,122,0
1,33,80,0
1,73,0,24
1,76,0,0
1,81,0,0
1,33,0,0
1,76,122,0
1,40,80,0
1,76,0,48
1,40,0,0
1,69,104,0
1,74,104,0
1,78,122,0
1,38,80,0
1,38,0,48
1,45,80,0
1,45,0,24
1,50,122,0
1,69,0,144
1,74,0,0
1,78,0,0
1,50,0,0
1,71,104,0
1,74,104,0
1,79,122,0
1,31,80,0
1,71,0,48
1,74,0,0
1,79,0,0
1,31,0,0
1,74,104,0
1,79,104,0
1,83,122,0
1,43,80,0
1,74,0,48
1,79,0,0
1,83,0,0
1,43,0,0
1,73,104,0
1,76,104,0
1,81,122,0
1,33,80,0
1,73,0,24
1,76,0,0
1,81,0,0
1,33,0,0
1,76,122,0
1,40,80,0
1,76,0,48
1,40,0,0
1,69,104,0
1,74,104,0
1,78,122,0
1,38,80,0
1,38,0,48
1,45,80,0
1,45,0,24
1,50,122,0
1,69,0,144
1,74,0,0
1,78,0,0
1,50,0,0
1,71,104,0
1,74,104,0
1,79,122,0
1,31,80,0
1,71,0,48
1,74,0,0
1,79,0,0
1,31,0,0
1,74,104,0
1,79,104,0
1,83,122,0
1,43,80,0
1,74,0,48
1,79,0,0
1,83,0,0
1,43,0,0
1,73,104,0
1,76,104,0
1,81,122,0
1,33,80,0
1,73,0,24
1,76,0,0
1,81,0,0
1,33,0,0
1,76,122,0
1,40,80,0
1,76,0,48
1,40,0,0
1,69,104,0
1,74,104,0
1,78,122,0
1,38,80,0
1,38,0,48
1,45,80,0
1,45,0,24
1,50,122,0
1,69,0,24
1,74,0,0
1,78,0,0
1,69,104,0
1,74,104,0
1,78,122,0
1,74,0,24
1,69,0,24
1,78,0,0
1,72,104,0
1,78,104,0
1,81,122,0
1,50,0,24
1,42,80,0
1,72,0,24
1,78,0,0
1,81,0,0
1,69,104,0
1,72,104,0
1,78,122,0
1,42,0,24
1,69,0,0
1,72,0,0
1,78,0,0
1,71,104,0
1,74,104,0
1,79,122,0
1,31,80,0
1,71,0,48
1,74,0,0
1,79,0,0
1,31,0,0
1,43,80,0
1,43,0,48
1,69,104,0
1,73,104,0
1,79,122,0
1,33,80,0
1,69,0,24
1,73,0,0
1,79,0,0
1,76,122,0
1,76,0,24
1,73,122,0
1,33,0,24
1,73,0,0
1,66,104,0
1,69,104,0
1,74,122,0
1,38,80,0
1,38,0,48
1,38,80,0
1,38,0,24
1,42,80,0
1,42,0,24
1,45,80,0
1,66,0,24
1,69,0,0
1,74,0,0
1,45,0,0
1,48,122,0
1,48,0,24
1,48,122,0
1,48,0,24
1,47,80,0
1,47,0,24
1,45,80,0
1,45,0,24
1,71,104,0
1,74,104,0
1,79,122,0
1,31,80,0
1,71,0,48
1,74,0,0
1,79,0,0
1,31,0,0
1,74,104,0
1,79,104,0
1,83,122,0
1,43,80,0
1,74,0,48
1,79,0,0
1,83,0,0
1,43,0,0
1,73,104,0
1,76,104,0
1,81,122,0
1,33,80,0
1,73,0,24
1,76,0,0
1,81,0,0
1,33,0,0
1,76,122,0
1,40,80,0
1,76,0,48
1,40,0,0
1,69,104,0
1,74,104,0
1,78,122,0
1,38,80,0
1,38,0,48
1,45,80,0
1,45,0,24
1,50,122,0
1,69,0,144
1,74,0,0
1,78,0,0
1,50,0,0
1,71,104,0
1,74,104,0
1,79,122,0
1,31,80,0
1,71,0,48
1,74,0,0
1,79,0,0
1,31,0,0
1,74,104,0
1,79,104,0
1,83,122,0
1,43,80,0
1,74,0,48
1,79,0,0
1,83,0,0
1,43,0,0
1,73,104,0
1,76,104,0
1,81,122,0
1,33,80,0
1,73,0,24
1,76,0,0
1,81,0,0
1,76,122,0
1,33,0,48
1,76,0,0
1,69,104,0
1,74,104,0
1,78,122,0
1,38,80,0
1,38,0,48
1,38,80,0
1,38,0,24
1,42,80,0
1,42,0,24
1,45,80,0
1,45,0,24
1,48,122,0
1,48,0,24
1,48,122,0
1,48,0,24
1,47,80,0
1,47,0,24
1,45,80,0
1,69,0,24
1,74,0,0
1,78,0,0
1,45,0,0
1,71,104,0
1,74,104,0
1,79,122,0
1,31,80,0
1,71,0,48
1,74,0,0
1,79,0,0
1,31,0,0
1,74,104,0
1,79,104,0
1,83,122,0
1,43,80,0
1,74,0,48
1,79,0,0
1,83,0,0
1,43,0,0
1,73,104,0
1,76,104,0
1,81,122,0
1,33,80,0
1,73,0,24
1,76,0,0
1,81,0,0
1,33,0,0
1,76,122,0
1,40,80,0
1,76,0,48
1,40,0,0
1,69,104,0
1,74,104,0
1,78,122,0
1,38,80,0
1,38,0,48
1,45,80,0
1,45,0,24
1,50,122,0
1,69,0,24
1,74,0,0
1,78,0,0
1,69,104,0
1,74,104,0
1,78,122,0
1,74,0,24
1,69,0,24
1,78,0,0
1,72,104,0
1,78,104,0
1,81,122,0
1,50,0,24
1,42,80,0
1,72,0,24
1,78,0,0
1,81,0,0
1,69,104,0
1,72,104,0
1,78,122,0
1,42,0,24
1,69,0,0
1,72,0,0
1,78,0,0
1,71,104,0
1,74,104,0
1,79,122,0
1,31,80,0
1,71,0,48
1,74,0,0
1,79,0,0
1,31,0,0
1,43,80,0
1,43,0,48
1,69,104,0
1,73,104,0
1,79,122,0
1,33,80,0
1,69,0,24
1,73,0,0
1,79,0,0
1,33,0,0
1,76,122,0
1,37,80,0
1,76,0,24
1,37,0,0
1,73,122,0
1,40,80,0
1,73,0,24
1,40,0,0
1,66,104,0
1,69,104,0
1,74,122,0
1,38,80,0
1,66,0,72
1,69,0,0
1,74,0,0
1,64,104,0
1,69,122,0
1,64,0,24
1,69,0,0
1,66,122,0
1,66,0,24
1,64,104,0
1,69,122,0
1,64,0,24
1,69,0,0
1,66,104,0
1,69,122,0
1,66,0,24
1,69,0,0
1,64,104,0
1,69,122,0
1,64,0,24
1,69,0,0
1,62,122,0
1,38,0,24
1,62,0,0
1,59,122,0
1,31,80,0
1,59,0,24
1,62,122,0
1,62,0,24
1,67,122,0
1,67,0,24
1,62,104,0
1,67,104,0
1,69,122,0
1,62,0,48
1,67,0,0
1,69,0,0
1,62,104,0
1,67,104,0
1,71,122,0
1,62,0,48
1,67,0,0
1,71,0,0
1,67,122,0
1,67,0,24
1,59,122,0
1,59,0,24
1,62,122,0
1,62,0,24
1,67,122,0
1,67,0,24
1,62,104,0
1,67,104,0
1,69,122,0
1,62,0,48
1,67,0,0
1,69,0,0
1,62,104,0
1,67,104,0
1,71,122,0
1,62,0,48
1,67,0,0
1,71,0,0
1,69,122,0
1,31,0,24
1,69,0,0
1,62,104,0
1,66,104,0
1,71,122,0
1,38,80,0
1,62,0,24
1,66,0,0
1,71,0,0
1,69,122,0
1,69,0,24
1,66,122,0
1,66,0,24
1,62,122,0
1,62,0,48
1,62,122,0
1,62,0,24
1,62,104,0
1,66,104,0
1,71,122,0
1,62,0,24
1,66,0,0
1,71,0,0
1,69,122,0
1,69,0,24
1,66,122,0
1,66,0,24
1,62,122,0
1,62,0,48
1,62,122,0
1,38,0,24
1,62,0,0
1,62,104,0
1,66,104,0
1,71,122,0
1,36,80,0
1,62,0,24
1,66,0,0
1,71,0,0
1,69,122,0
1,69,0,24
1,66,122,0
1,66,0,24
1,62,122,0
1,36,0,24
1,62,0,0
1,62,122,0
1,34,80,0
1,62,0,24
1,65,122,0
1,65,0,24
1,70,122,0
1,70,0,24
1,65,104,0
1,70,104,0
1,72,122,0
1,65,0,48
1,70,0,0
1,72,0,0
1,65,104,0
1,70,104,0
1,74,122,0
1,65,0,48
1,70,0,0
1,74,0,0
1,62,122,0
1,34,0,24
1,62,0,0
