track,note,velocity,time
1,72,52,2760
1,69,51,0
1,70,49,72
1,74,52,0
1,75,49,656
1,72,52,0
1,70,49,0
1,74,52,0
1,75,49,656
1,72,52,0
1,70,49,0
1,74,52,0
1,75,49,656
1,72,52,0
1,70,49,0
1,74,52,0
1,72,51,890
1,81,52,0
1,82,53,73
1,74,53,0
1,72,51,1190
1,81,52,0
1,82,52,59
1,74,51,0
1,75,49,312
1,84,52,0
1,82,51,81
1,74,51,0
1,72,49,309
1,81,50,0
1,82,51,71
1,74,52,0
1,69,52,630
1,77,52,0
1,69,53,77
1,77,53,0
1,79,51,296
1,70,49,0
1,69,52,1136
1,77,52,0
1,69,52,70
1,77,53,0
1,79,52,29
1,70,48,0
1,65,49,307
1,74,50,0
1,72,51,792
1,81,52,0
1,82,52,61
1,74,51,0
1,72,51,1399
1,81,51,0
1,82,52,67
1,74,50,0
1,75,49,309
1,84,52,0
1,74,51,78
1,82,51,0
1,72,47,302
1,81,50,0
1,82,51,63
1,74,51,0
1,69,51,633
1,77,52,0
1,69,52,68
1,77,52,0
1,70,50,289
1,79,52,0
1,69,51,1143
1,77,52,0
1,69,53,77
1,77,52,0
1,70,49,295
1,79,51,0
1,65,50,320
1,74,51,0
1,86,52,900
1,77,52,0
1,77,54,78
1,86,54,0
1,84,51,291
1,75,49,0
1,75,52,79
1,84,55,0
1,82,47,295
1,74,50,0
1,82,51,80
1,74,51,0
1,84,54,273
1,75,49,0
1,77,49,363
1,86,51,0
1,87,49,4
1,77,51,10
1,86,55,0
1,84,52,256
1,75,49,0
1,75,49,46
1,84,54,0
1,74,50,280
1,82,49,0
1,82,51,57
1,74,51,0
1,72,51,394
1,81,52,0
1,79,51,130
1,70,49,0
1,69,51,133
1,77,51,0
1,79,52,66
1,70,53,0
1,72,49,1107
1,81,49,0
1,74,47,56
1,82,50,0
1,84,51,84
1,75,52,0
1,81,51,204
1,72,52,0
1,70,49,169
1,79,51,0
1,70,52,69
1,79,54,0
1,86,52,981
1,77,52,0
1,77,54,78
1,86,54,0
1,84,51,291
1,75,49,0
1,75,52,79
1,84,55,0
1,82,47,295
1,74,50,0
1,82,51,80
1,74,51,0
1,84,54,273
1,75,49,0
1,77,49,363
1,86,51,0
1,87,49,4
1,77,51,10
1,86,55,0
1,84,52,256
1,75,49,0
1,75,49,46
1,84,54,0
1,74,50,280
1,82,49,0
1,82,51,57
1,74,51,0
1,72,51,394
1,81,52,0
1,79,51,130
1,70,49,0
1,69,51,133
1,77,51,0
1,79,52,66
1,70,53,0
1,72,49,1107
1,81,49,0
1,74,47,56
1,82,50,0
1,84,51,84
1,75,52,0
1,81,51,204
1,72,52,0
1,70,49,169
1,79,51,0
1,70,52,69
1,79,54,0
1,70,49,141
1,79,51,0
1,72,51,156
1,81,51,0
1,82,53,72
1,74,53,0
1,72,51,1190
1,81,52,0
1,82,52,59
1,74,51,0
1,75,49,312
1,84,52,0
1,82,51,81
1,74,51,0
1,72,49,309
1,81,50,0
1,82,51,71
1,74,52,0
1,69,52,630
1,77,52,0
1,69,53,77
1,77,53,0
1,79,51,296
1,70,49,0
1,69,52,1136
1,77,52,0
1,69,52,70
1,77,53,0
1,79,52,29
1,70,48,0
1,65,49,307
1,74,50,0
1,72,51,792
1,81,52,0
1,82,52,61
1,74,51,0
1,72,51,1399
1,81,51,0
1,82,52,67
1,74,50,0
1,75,49,309
1,84,52,0
1,74,51,78
1,82,51,0
1,72,47,302
1,81,50,0
1,82,51,63
1,74,51,0
1,69,51,633
1,77,52,0
1,69,52,68
1,77,52,0
1,70,50,289
1,79,52,0
1,69,51,1143
1,77,52,0
1,69,53,77
1,77,52,0
1,70,49,295
1,79,51,0
1,65,50,320
1,74,51,0
1,86,52,900
1,77,52,0
1,77,54,78
1,86,54,0
1,84,51,291
1,75,49,0
1,75,52,79
1,84,55,0
1,82,47,295
1,74,50,0
1,82,51,80
1,74,51,0
1,84,54,273
1,75,49,0
1,77,49,363
1,86,51,0
1,87,49,4
1,77,51,10
1,86,55,0
1,84,52,256
1,75,49,0
1,75,49,46
1,84,54,0
1,74,50,280
1,82,49,0
1,82,51,57
1,74,51,0
1,72,51,394
1,81,52,0
1,79,51,130
1,70,49,0
1,69,51,133
1,77,51,0
1,79,52,66
1,70,53,0
1,72,49,1107
1,81,49,0
1,74,47,56
1,82,50,0
1,84,51,84
1,75,52,0
1,81,51,204
1,72,52,0
1,70,49,169
1,79,51,0
1,70,52,69
1,79,54,0
1,86,52,981
1,77,52,0
1,77,54,78
1,86,54,0
1,84,51,291
1,75,49,0
1,75,52,79
1,84,55,0
1,82,47,295
1,74,50,0
1,82,51,80
1,74,51,0
1,84,54,273
1,75,49,0
1,77,49,363
1,86,51,0
1,87,49,4
1,77,51,10
1,86,55,0
1,84,52,256
1,75,49,0
1,75,49,46
1,84,54,0
1,74,50,280
1,82,49,0
1,82,51,57
1,74,51,0
1,72,51,394
1,81,52,0
1,79,51,130
1,70,49,0
1,69,51,133
1,77,51,0
1,79,52,66
1,70,53,0
1,72,49,1107
1,81,49,0
1,74,47,56
1,82,50,0
1,84,51,84
1,75,52,0
1,81,51,204
1,72,52,0
1,70,49,169
1,79,51,0
1,70,52,69
1,79,54,0
1,70,49,141
1,79,51,0
1,81,49,3849
1,82,47,120
1,79,49,14
1,81,46,120
1,82,48,237
1,79,51,10
1,81,49,240
1,82,49,104
1,79,51,3
1,81,49,120
1,82,47,4
1,79,49,4
1,81,52,24
1,84,51,735
1,84,52,106
1,86,51,109
1,87,46,0
1,89,51,19
1,87,46,120
1,86,49,116
1,84,49,0
1,82,47,120
1,63,49,35
1,67,52,0
1,70,49,0
1,75,49,0
1,72,55,72
1,70,49,102
1,69,52,113
1,65,49,0
1,63,51,98
1,75,49,0
1,70,49,0
1,67,54,0
1,79,54,751
1,77,51,120
1,75,49,6
1,74,51,7
1,75,46,120
1,72,52,1
1,63,51,192
1,70,51,0
1,67,53,0
1,75,51,0
1,65,52,1142
1,69,49,120
1,72,51,87
1,70,50,28
1,63,49,0
1,67,52,0
1,75,48,0
1,81,51,161
1,82,50,72
1,81,49,74
1,79,52,44
1,77,49,17
1,74,51,120
1,79,51,12
1,79,51,53
1,86,52,0
1,84,51,95
1,79,51,0
1,79,51,75
1,79,49,147
1,79,52,75
1,86,52,0
1,79,51,59
1,86,51,0
1,79,52,76
1,86,52,0
1,79,49,37
1,84,49,0
1,79,49,72
1,84,49,0
1,82,50,161
1,75,52,0
1,86,49,0
1,82,45,38
1,75,47,94
1,84,51,0
1,74,49,4
1,79,52,0
1,82,53,223
1,84,52,76
1,82,51,12
1,77,51,0
1,81,51,27
1,79,51,60
1,81,51,7
1,81,51,74
1,82,47,46
1,81,49,120
1,79,50,114
1,77,49,8
1,82,49,55
1,75,49,0
1,79,52,152
1,77,50,4
1,79,52,120
1,77,51,147
1,79,51,0
1,75,49,2
1,82,50,0
1,79,51,180
1,77,51,5
1,79,52,0
1,77,52,51
1,75,50,41
1,77,51,60
1,86,52,21
1,79,52,0
1,79,50,68
1,84,51,0
1,79,51,185
1,91,51,313
1,86,52,0
1,91,51,84
1,86,54,0
1,91,51,87
1,86,52,0
1,86,54,81
1,91,52,0
1,89,49,61
1,84,50,0
1,89,51,81
1,84,51,0
1,89,51,77
1,84,50,0
1,86,54,79
1,84,51,121
1,79,51,36
1,74,51,0
1,82,49,123
1,77,50,0
1,84,53,18
1,82,52,6
1,77,52,0
1,81,52,15
1,79,49,6
1,81,51,3
1,81,51,89
1,82,52,12
1,81,49,120
1,79,52,73
1,77,49,100
1,79,54,54
1,75,51,0
1,82,50,0
1,77,52,127
1,75,47,150
1,77,53,101
1,79,54,5
1,77,52,11
1,82,51,120
1,79,52,2
1,77,51,120
1,75,49,135
1,77,52,105
1,79,52,38
1,86,52,3
1,79,52,0
1,84,52,86
1,79,51,0
1,79,49,113
1,82,51,0
1,79,47,15
1,86,51,17
1,79,52,0
1,85,51,0
1,79,52,86
1,86,52,0
1,85,49,54
1,82,55,53
1,79,49,19
1,77,52,8
1,86,53,0
1,77,45,60
1,77,49,43
1,84,52,0
1,82,49,49
1,77,49,28
1,75,55,91
1,79,51,61
1,77,50,147
1,79,51,45
1,81,51,53
1,82,55,62
1,84,51,35
1,84,52,19
1,77,52,0
1,81,52,28
1,77,51,69
1,79,52,50
1,81,51,49
1,79,51,58
1,84,52,18
1,81,52,26
1,79,49,24
1,77,51,120
1,79,52,22
1,84,52,77
1,79,52,0
1,75,51,0
1,82,45,21
1,79,54,80
1,75,49,0
1,84,54,0
1,75,50,220
1,79,52,0
1,87,52,0
1,79,51,101
1,87,49,0
1,75,49,0
1,75,47,100
1,75,47,83
1,86,48,98
1,75,49,0
1,86,49,75
1,79,49,120
1,79,50,10
1,86,55,0
1,84,52,76
1,79,52,0
1,79,53,144
1,86,52,300
1,91,52,0
1,91,52,84
1,86,55,0
1,91,51,90
1,86,53,0
1,86,55,92
1,91,54,0
1,89,49,51
1,84,50,0
1,84,52,85
1,89,53,0
1,84,51,80
1,89,52,0
1,86,55,83
1,84,53,176
1,79,54,31
1,74,49,5
1,79,51,120
1,81,49,104
1,81,52,68
1,82,51,120
1,84,52,0
1,82,47,19
1,82,53,50
1,77,51,0
1,81,51,42
1,79,52,43
1,81,52,17
1,79,52,5
1,81,51,59
1,82,51,47
1,77,51,0
1,81,51,42
1,79,49,15
1,81,52,120
1,79,51,6
1,81,49,120
1,82,55,18
1,75,50,0
1,82,55,53
1,81,50,60
1,79,52,6
1,75,49,54
1,82,53,0
1,82,51,68
1,81,51,60
1,79,49,40
1,75,49,87
1,82,55,0
1,82,52,69
1,81,51,60
1,79,49,14
1,86,51,45
1,86,54,63
1,84,52,44
1,82,56,35
1,81,49,30
1,79,51,39
1,79,46,59
1,79,54,48
1,86,52,0
1,84,55,84
1,79,53,0
1,79,54,45
1,74,52,0
1,86,51,199
1,79,51,0
1,86,51,73
1,79,51,0
1,79,52,77
1,86,51,0
1,79,52,84
1,86,52,0
1,79,49,59
1,84,51,0
1,84,51,89
1,79,51,0
1,79,50,86
1,75,56,89
1,86,51,0
1,75,47,129
1,84,52,0
1,82,55,173
1,75,49,106
1,79,54,0
1,75,47,180
1,75,49,90
1,82,55,0
1,84,52,58
1,82,52,38
1,77,51,0
1,81,52,25
1,79,52,36
1,81,52,8
1,79,52,37
1,81,51,46
1,82,52,2
1,77,52,0
1,81,52,55
1,79,51,34
1,81,51,120
1,79,52,32
1,81,49,120
1,82,52,31
1,77,52,0
1,82,51,73
1,81,52,60
1,79,51,57
1,82,55,65
1,82,52,86
1,81,52,60
1,79,52,53
1,82,53,58
1,82,52,77
1,81,50,60
1,79,51,53
1,77,52,45
1,79,51,34
1,81,51,120
1,82,51,112
1,84,51,91
1,86,52,65
1,79,49,29
1,86,51,0
1,85,52,102
1,79,52,0
1,79,52,7
1,86,52,0
1,85,51,25
1,79,50,0
1,79,51,69
1,79,52,77
1,86,52,0
1,85,47,77
1,82,51,80
1,75,55,22
1,86,51,0
1,75,47,63
1,85,51,0
1,75,49,39
1,86,52,0
1,85,55,57
1,75,46,60
1,84,49,31
1,82,53,254
1,79,46,115
1,82,52,40
1,77,51,0
1,81,51,33
1,79,51,72
1,81,51,37
1,79,51,33
1,81,51,67
1,82,55,71
1,77,51,0
1,82,52,39
1,77,52,0
1,77,49,35
1,77,52,72
1,82,51,0
1,82,51,83
1,77,52,0
1,75,52,165
1,84,52,0
1,79,52,0
1,75,51,42
1,84,52,0
1,79,54,0
1,75,49,47
1,79,54,0
1,84,52,0
1,75,49,27
1,84,52,0
1,79,52,0
1,75,47,107
1,75,49,67
1,84,52,0
1,82,52,1
1,79,52,0
1,75,49,37
1,50,51,66
1,43,51,0
1,55,51,0
1,58,49,0
1,62,52,0
2,43,42,2880
2,50,42,0
2,55,39,0
2,57,40,0
2,58,39,0
2,62,40,0
2,57,39,0
2,62,40,0
2,55,39,0
2,57,41,0
2,58,39,0
2,62,39,0
2,57,39,0
2,58,37,0
2,62,39,0
2,50,41,0
2,43,42,0
2,50,42,0
2,55,39,0
2,57,40,0
2,58,39,0
2,62,40,0
2,57,39,0
2,62,40,0
2,55,39,0
2,57,41,0
2,58,39,0
2,62,39,0
2,57,39,0
2,58,37,0
2,62,39,0
2,50,41,0
2,43,42,0
2,50,42,0
2,55,39,0
2,57,40,0
2,58,39,0
2,62,40,0
2,57,39,0
2,62,40,0
2,55,39,0
2,57,41,0
2,58,39,0
2,62,39,0
2,57,39,0
2,58,37,0
2,62,39,0
2,50,41,0
2,43,42,0
2,50,42,0
2,55,39,0
2,57,40,0
2,58,39,0
2,62,40,0
2,57,39,0
2,62,40,0
2,55,40,0
2,57,41,0
2,58,39,0
2,62,39,0
2,57,39,0
2,58,37,0
2,62,39,0
2,50,41,0
2,43,39,0
2,50,37,0
2,55,39,0
2,57,39,0
2,58,39,0
2,62,37,0
2,57,39,0
2,62,39,0
2,55,39,0
2,57,39,0
2,58,36,0
2,62,39,0
2,57,39,0
2,58,39,0
2,62,40,0
2,50,42,0
2,43,39,0
2,50,39,0
2,55,39,0
2,57,39,0
2,58,36,0
2,62,39,0
2,57,38,0
2,62,39,0
2,55,41,0
2,57,41,0
2,62,39,0
2,63,37,0
2,62,39,0
2,58,38,0
2,55,39,0
2,39,39,0
2,46,39,0
2,51,38,0
2,53,40,0
2,55,42,0
2,58,39,0
2,63,39,0
2,58,39,0
2,48,42,0
2,51,39,0
2,55,42,0
2,60,41,0
2,62,42,0
2,63,39,0
2,67,39,0
2,60,39,0
2,43,39,0
2,50,41,0
2,55,37,0
2,57,39,0
2,58,39,0
2,62,39,0
2,57,39,0
2,62,38,0
2,55,39,0
2,57,39,0
2,62,38,0
2,63,38,0
2,62,39,0
2,58,37,0
2,55,41,0
2,43,39,0
2,50,40,0
2,55,39,0
2,57,40,0
2,58,38,0
2,62,39,0
2,57,40,0
2,62,39,0
2,55,39,0
2,57,39,0
2,58,38,0
2,62,39,0
2,57,41,0
2,58,39,0
2,62,39,0
2,50,41,0
2,43,40,0
2,50,41,0
2,55,39,0
2,57,39,0
2,58,39,0
2,62,39,0
2,57,39,0
2,62,39,0
2,55,36,0
2,57,38,0
2,58,39,0
2,62,39,0
2,57,39,0
2,58,36,0
2,62,39,0
2,50,39,0
2,39,35,0
2,46,36,0
2,51,38,0
2,53,39,0
2,55,39,0
2,58,39,0
2,63,39,0
2,58,37,0
2,48,39,0
2,51,37,0
2,55,39,0
2,60,39,0
2,62,38,0
2,63,39,0
2,67,39,0
2,60,39,0
2,43,40,0
2,50,37,0
2,55,39,0
2,58,39,0
2,62,40,0
2,63,39,0
2,62,40,0
2,58,38,0
2,55,38,0
2,50,42,0
2,46,39,0
2,55,39,0
2,43,39,0
2,50,39,0
2,55,39,0
2,43,40,0
2,41,41,0
2,48,42,0
2,53,39,0
2,57,39,0
2,60,39,0
2,65,39,0
2,57,39,0
2,60,41,0
2,53,42,0
2,57,39,0
2,60,39,0
2,65,39,0
2,65,39,0
2,53,39,0
2,57,39,0
2,60,39,0
2,48,40,0
2,51,39,0
2,55,39,0
2,60,34,0
2,62,33,0
2,63,39,0
2,67,39,0
2,62,39,0
2,60,39,0
2,62,39,0
2,63,34,0
2,67,39,0
2,62,39,0
2,63,38,0
2,67,39,0
2,39,38,0
2,46,39,0
2,51,38,0
2,55,39,0
2,58,36,0
2,63,39,0
2,58,36,0
2,55,36,0
2,51,38,0
2,55,40,0
2,58,38,0
2,63,39,0
2,41,39,0
2,48,39,0
2,53,39,0
2,57,41,0
2,39,39,0
2,46,39,0
2,51,39,0
2,55,42,0
2,58,37,0
2,63,37,0
2,58,35,0
2,55,39,0
2,51,36,0
2,55,41,0
2,58,38,0
2,63,36,0
2,62,39,0
2,58,38,0
2,55,39,0
2,51,39,0
2,48,39,0
2,51,35,0
2,55,40,0
2,60,39,0
2,62,39,0
2,63,39,0
2,67,39,0
2,62,39,0
2,60,39,0
