track,note,velocity,time
1,62,127,2
1,62,127,62
1,66,127,260
1,66,127,60
1,64,127,20
1,64,127,44
1,67,127,280
1,67,127,56
1,71,127,276
1,71,127,50
1,69,127,16
1,69,127,44
1,62,127,328
1,62,127,58
1,66,127,264
1,66,127,48
1,64,127,28
1,64,127,50
1,67,127,256
1,67,127,60
1,71,127,4
1,71,127,48
1,69,127,14
1,69,127,58
1,69,127,432
1,69,127,62
1,74,127,260
1,74,127,56
1,67,127,10
1,67,127,54
1,66,127,232
1,66,127,44
1,71,127,12
1,71,127,46
1,66,127,444
1,66,127,68
1,69,127,2
1,69,127,48
1,67,127,16
1,67,127,52
1,66,127,16
1,66,127,54
1,62,127,16
1,62,127,52
1,66,127,24
1,66,127,54
1,64,127,12
1,64,127,136
1,62,127,6
1,62,127,116
1,62,127,92
1,62,127,70
1,66,127,32
1,66,127,56
1,64,127,8
1,64,127,56
1,67,127,268
1,67,127,72
1,71,127,6
1,71,127,60
1,69,127,16
1,69,127,52
1,62,127,378
1,62,127,60
1,66,127,24
1,66,127,52
1,64,127,12
1,64,127,48
1,67,127,370
1,67,127,64
1,71,127,4
1,71,127,52
1,69,127,42
1,69,127,44
1,69,127,344
1,69,127,56
1,74,127,188
1,74,127,40
1,67,127,4
1,67,127,44
1,66,127,316
1,66,127,54
1,71,127,12
1,71,127,36
1,66,127,636
1,66,127,52
1,69,127,4
1,69,127,48
1,67,127,16
1,67,127,74
1,66,127,272
1,66,127,64
1,62,127,2
1,66,127,200
1,66,127,52
1,64,127,14
1,64,127,52
1,62,127,16
1,62,127,48
1,74,127,1236
1,74,127,24
1,74,127,32
1,74,127,28
1,74,127,36
1,74,127,44
1,74,127,64
1,74,127,68
1,74,127,28
1,74,127,68
1,74,127,48
1,74,127,40
1,72,127,4
1,69,127,4
1,72,127,82
1,72,127,38
1,72,127,88
1,72,127,44
1,72,127,44
1,71,127,4
1,67,127,12
1,69,127,68
1,69,127,40
1,69,127,52
1,69,127,82
1,71,127,6
1,73,127,28
1,74,127,486
1,74,127,20
1,74,127,24
1,74,127,48
1,74,127,28
1,74,127,40
1,74,127,44
1,74,127,16
1,74,127,18
1,74,127,40
1,74,127,40
1,74,127,48
1,72,127,0
1,69,127,4
1,72,127,88
1,72,127,28
1,72,127,24
1,72,127,74
1,72,127,52
1,72,127,52
1,71,127,12
1,67,127,18
1,69,127,96
1,69,127,88
1,67,127,188
1,64,127,8
1,62,127,1108
1,62,127,54
1,66,127,28
1,66,127,40
1,64,127,0
1,67,127,320
1,71,127,4
1,71,127,66
1,69,127,12
1,69,127,52
1,62,127,402
1,66,127,188
1,66,127,58
1,64,127,12
1,67,127,196
1,67,127,140
1,71,127,12
1,71,127,40
1,69,127,36
1,69,127,56
1,69,127,364
1,74,127,168
1,74,127,48
1,67,127,16
1,67,127,46
1,66,127,208
1,66,127,132
1,71,127,68
1,71,127,36
1,66,127,404
1,66,127,118
1,67,127,32
1,69,127,12
1,67,127,8
1,66,127,6
1,62,127,412
1,62,127,40
1,66,127,48
1,64,127,56
1,64,127,86
1,62,127,280
1,62,127,64
1,74,127,1234
1,74,127,12
1,74,127,20
1,74,127,52
1,74,127,16
1,74,127,16
1,74,127,60
1,74,127,24
1,74,127,64
1,74,127,28
1,74,127,94
1,72,127,4
1,69,127,4
1,72,127,102
1,72,127,36
1,72,127,56
1,72,127,32
1,72,127,60
1,71,127,4
1,67,127,4
1,69,127,52
1,69,127,16
1,69,127,128
1,69,127,112
1,71,127,200
1,73,127,26
1,74,127,328
1,74,127,128
1,74,127,32
1,74,127,32
1,74,127,34
1,74,127,22
1,74,127,64
1,74,127,44
1,74,127,44
1,74,127,134
1,74,127,54
1,72,127,194
1,69,127,0
1,72,127,12
1,72,127,52
1,72,127,108
1,72,127,54
1,72,127,112
1,71,127,112
1,67,127,172
1,69,127,94
1,69,127,84
1,67,127,112
1,64,127,4
1,62,127,1344
1,66,127,4
1,66,127,48
1,64,127,12
1,64,127,48
1,67,127,292
1,67,127,56
1,71,127,4
1,71,127,40
1,69,127,8
1,62,127,302
1,62,127,66
1,66,127,6
1,66,127,52
1,64,127,10
1,67,127,242
1,67,127,132
1,71,127,4
1,71,127,40
1,69,127,20
1,69,127,188
1,69,127,102
1,74,127,8
1,74,127,40
1,67,127,18
1,66,127,244
1,66,127,114
1,71,127,66
1,71,127,40
1,66,127,538
1,67,127,28
1,69,127,12
1,69,127,52
1,67,127,40
1,67,127,66
1,66,127,12
1,66,127,60
1,62,127,88
1,66,127,100
1,64,127,6
1,64,127,112
1,62,127,12
2,38,85,6144
2,38,85,96
2,38,85,0
2,38,85,96
2,38,85,96
2,38,85,0
2,38,85,96
2,38,85,192
2,38,85,0
2,38,85,96
2,38,85,0
2,38,85,96
2,38,85,0
2,36,85,96
2,36,85,96
2,35,85,0
2,33,85,96
2,33,85,96
2,32,85,0
2,33,85,96
2,33,85,96
2,34,85,0
2,35,85,96
2,35,85,96
2,31,85,0
2,33,85,0
2,38,85,0
2,38,85,96
2,38,85,96
2,38,85,96
2,38,85,96
2,38,85,0
2,38,85,96
2,38,85,96
2,38,85,0
2,38,85,96
2,38,85,96
2,38,85,0
2,37,85,0
2,36,85,0
2,36,85,96
2,35,85,0
2,33,85,96
2,33,85,96
2,32,85,0
2,28,85,0
2,33,85,0
2,33,85,96
2,34,85,0
2,35,85,96
2,35,85,96
2,31,85,0
2,33,85,0
2,38,85,0
2,38,85,96
2,38,85,0
2,38,85,96
2,38,85,96
2,38,85,0
2,33,85,96
2,33,85,96
2,33,85,0
2,31,85,96
2,31,85,96
2,31,85,0
2,33,85,96
2,33,85,96
2,33,85,0
2,33,85,96
2,35,85,0
2,38,85,0
2,38,85,96
2,38,85,0
2,40,85,96
2,41,85,0
2,33,85,0
2,33,85,96
2,33,85,0
2,31,85,96
2,31,85,96
2,31,85,0
2,33,85,96
2,33,85,96
2,33,85,0
2,38,85,768
2,38,85,96
2,38,85,0
2,38,85,96
2,38,85,96
2,38,85,0
2,38,85,192
2,38,85,96
2,38,85,0
2,38,85,384
2,38,85,96
2,38,85,0
2,37,85,0
2,36,85,0
2,36,85,96
2,35,85,0
2,33,85,0
2,33,85,96
2,32,85,0
2,28,85,0
2,33,85,0
2,33,85,96
2,34,85,0
2,35,85,96
2,35,85,96
2,28,85,0
2,33,85,0
2,38,85,0
2,38,85,96
2,38,85,0
2,38,85,96
2,38,85,96
2,38,85,0
2,40,85,96
2,41,85,0
2,33,85,0
2,33,85,96
2,33,85,0
2,31,85,96
2,31,85,96
2,31,85,0
2,33,85,96
2,33,85,96
2,33,85,0
2,33,85,96
2,35,85,0
2,38,85,0
2,38,85,96
2,38,85,0
2,40,85,96
2,41,85,0
2,33,85,0
2,33,85,96
2,33,85,0
2,31,85,96
2,31,85,96
2,31,85,0
2,33,85,96
2,33,85,96
2,33,85,0
2,38,85,672
2,38,85,96
2,38,85,0
2,38,85,96
2,38,85,96
2,38,85,0
2,38,85,96
2,38,85,96
2,38,85,0
2,38,85,96
2,38,85,96
2,38,85,0
2,37,85,0
2,36,85,0
2,36,85,96
2,35,85,0
2,33,85,96
2,33,85,96
2,32,85,0
2,28,85,0
2,33,85,0
2,33,85,96
2,34,85,0
2,35,85,96
2,35,85,96
2,28,85,0
2,33,85,0
2,38,85,0
2,38,85,96
2,38,85,0
2,28,85,0
2,33,100,0
2,33,100,96
2,33,100,0
2,30,100,96
2,35,100,0
2,35,100,96
2,35,100,0
2,38,100,96
2,38,100,96
2,37,100,0
2,37,100,96
2,35,100,0
2,35,100,96
2,32,100,0
2,28,100,0
2,33,100,0
2,33,100,96
2,33,100,0
2,30,100,0
2,35,100,0
2,35,100,96
2,35,100,0
2,38,100,96
2,38,100,96
2,37,100,0
2,37,100,96
2,35,100,0
2,35,100,96
2,32,100,0
2,28,100,0
2,30,100,0
2,26,100,0
2,28,100,0
2,40,100,0
2,33,100,0
3,74,94,4
3,76,94,0
3,74,94,0
3,72,94,0
3,69,94,0
3,67,94,0
3,69,94,0
3,71,94,0
3,73,94,0
3,74,94,0
3,72,94,0
3,69,94,0
3,67,94,0
3,69,94,0
3,76,94,13728
3,74,94,0
3,74,94,0
3,72,94,0
3,69,94,0
3,67,94,0
3,69,94,0
3,71,94,0
3,73,94,0
3,74,94,0
3,72,94,0
3,69,94,0
3,67,94,0
3,69,94,0
3,71,94,0
3,73,94,0
3,69,104,1536
3,73,104,0
3,68,104,0
3,71,104,0
3,69,104,0
3,73,104,0
3,73,104,0
3,76,104,0
3,68,104,0
3,71,104,0
3,70,104,0
3,73,104,0
3,71,104,0
3,74,104,0
3,70,104,0
3,73,104,0
3,71,104,0
3,74,104,0
3,74,104,0
3,78,104,0
3,70,104,0
3,73,104,0
3,74,104,288
3,78,104,0
3,74,104,0
3,80,104,0
3,74,104,0
3,81,104,0
3,73,104,0
3,81,104,0
3,73,104,0
3,76,104,0
3,71,104,192
3,74,104,0
3,71,104,0
3,76,104,0
3,71,104,0
3,78,104,0
3,78,104,0
3,76,104,0
3,76,104,0
3,74,104,0
3,69,104,0
3,73,104,0
3,68,104,0
3,71,104,0
3,69,104,0
3,73,104,0
3,73,104,0
3,76,104,0
3,68,104,0
3,71,104,0
3,70,104,0
3,73,104,0
3,71,104,0
3,74,104,0
3,70,104,0
3,73,104,0
3,71,104,0
3,74,104,0
3,74,104,0
3,78,104,0
3,70,104,0
3,73,104,0
3,74,104,288
3,78,104,0
3,74,104,0
3,80,104,0
3,74,104,0
3,81,104,0
3,73,104,0
3,81,104,0
3,73,104,0
3,76,104,0
3,71,104,192
3,74,104,0
3,71,104,0
3,76,104,0
3,78,104,0
3,78,104,0
3,76,104,0
3,76,104,0
3,74,104,0
3,74,104,0
3,73,104,0
3,73,104,0
3,71,104,0
3,71,104,0
3,69,104,0
3,69,104,0
3,68,104,0
3,61,104,96
3,69,104,0
4,72,80,47716
4,74,80,0
4,78,80,88
4,81,80,0
4,78,80,0
4,74,80,6
4,72,80,88
4,71,80,8
4,74,80,2
4,79,80,0
4,83,80,84
4,79,80,80
4,74,80,88
4,71,80,0
4,74,80,112
4,79,80,86
4,78,80,4
4,74,80,86
4,69,80,4
4,74,80,86
4,68,80,0
4,71,80,0
4,74,80,4
4,76,80,92
4,68,80,0
4,71,80,4
4,74,80,4
4,69,80,90
4,74,80,4
4,78,80,82
4,81,80,80
4,78,80,0
4,74,80,0
4,69,80,74
4,70,80,4
4,73,80,0
4,76,80,4
4,79,80,92
4,76,80,8
4,73,80,4
4,70,80,78
4,71,80,12
4,73,80,44
4,74,80,4
4,71,80,174
4,67,80,12
4,76,80,6
4,67,80,8
4,73,80,8
4,66,80,178
4,74,80,8
4,62,100,1112
4,61,100,112
4,59,100,6
4,56,100,186
4,52,100,0
4,62,100,2972
4,61,100,174
4,59,100,4
4,56,100,190
4,52,100,186
4,54,100,4
4,50,100,190
4,52,100,136
4,45,100,6
5,54,60,0
5,57,60,0
5,62,60,0
5,55,60,0
5,59,60,0
5,64,60,0
5,62,60,0
5,57,60,0
5,61,60,0
5,64,60,0
5,54,60,0
5,57,60,0
5,62,60,0
5,55,60,0
5,59,60,0
5,64,60,0
5,62,60,0
5,57,60,0
5,61,60,0
5,64,60,0
5,49,60,384
5,54,60,0
5,62,60,0
5,66,60,0
5,55,60,0
5,67,60,0
5,57,60,0
5,66,60,96
5,59,60,0
5,64,60,0
5,50,60,0
5,57,60,0
5,62,60,0
5,66,60,0
5,54,60,0
5,55,60,0
5,61,60,0
5,64,60,0
5,54,60,0
5,62,60,0
5,66,60,0
5,55,60,0
5,59,60,0
5,64,60,0
5,55,60,0
5,57,60,0
5,61,60,0
5,54,60,0
5,57,60,0
5,62,60,0
5,69,60,0
5,65,60,0
5,74,60,0
5,64,60,0
5,60,60,0
5,72,60,0
5,57,60,0
5,62,60,0
5,67,60,0
5,71,60,0
5,64,60,0
5,69,60,0
5,61,60,0
5,65,60,0
5,74,60,0
5,64,60,0
5,60,60,0
5,72,60,0
5,62,60,0
5,67,60,0
5,71,60,0
5,62,60,0
5,64,60,0
5,69,60,0
5,61,60,0
5,67,60,0
5,55,60,0
5,54,60,0
5,52,60,0
5,54,60,0
5,57,60,0
5,62,60,0
5,55,60,0
5,59,60,0
5,64,60,0
5,62,60,0
5,57,60,0
5,61,60,0
5,64,60,0
5,54,60,0
5,62,60,0
5,55,60,0
5,59,60,0
5,64,60,0
5,62,60,0
5,57,60,0
5,61,60,0
5,64,60,0
5,49,60,0
5,54,60,0
5,62,60,0
5,66,60,0
5,55,60,0
5,67,60,0
5,57,60,0
5,66,60,0
5,50,60,0
5,56,60,0
5,59,60,0
5,64,60,0
5,57,60,0
5,62,60,0
5,66,60,0
5,55,60,0
5,61,60,0
5,64,60,0
5,54,60,0
5,62,60,0
5,66,60,0
5,55,60,0
5,59,60,0
5,64,60,0
5,57,60,0
5,61,60,0
5,54,60,0
5,57,60,0
5,62,60,0
5,69,60,192
5,65,60,0
5,74,60,0
5,64,60,0
5,72,60,0
5,62,60,0
5,67,60,0
5,71,60,96
5,64,60,0
5,69,60,0
5,61,60,0
5,65,60,0
5,69,60,0
5,74,60,0
5,64,60,0
5,62,60,96
5,72,60,0
5,55,60,0
5,62,60,0
5,67,60,0
5,57,60,0
5,64,60,0
5,69,60,0
5,61,60,0
5,55,60,0
5,54,60,0
5,52,60,0
5,54,60,0
5,57,60,0
5,62,60,0
5,55,60,0
5,59,60,0
5,64,60,0
5,62,60,0
5,57,60,0
5,61,60,0
5,64,60,0
5,54,60,0
5,57,60,0
5,62,60,0
5,55,60,0
5,59,60,0
5,64,60,0
5,62,60,0
5,57,60,0
5,61,60,0
5,64,60,0
5,49,60,0
5,54,60,0
5,62,60,0
5,66,60,0
5,59,60,0
5,67,60,0
5,55,60,192
5,57,60,0
5,66,60,0
5,56,60,0
5,59,60,0
5,64,60,0
5,45,60,0
5,57,60,0
5,62,60,0
5,66,60,0
5,55,60,0
5,61,60,0
5,64,60,0
5,47,60,0
5,54,60,0
5,59,60,0
5,62,60,0
5,55,60,0
5,64,60,0
5,57,60,0
5,61,60,0
5,54,60,0
5,57,60,0
5,62,60,0
5,56,60,0
5,59,60,0
5,69,100,0
5,73,100,0
5,71,100,0
5,69,100,0
5,73,100,0
5,76,100,96
5,68,100,0
5,71,100,0
5,70,100,96
5,73,100,0
5,66,100,0
5,71,100,0
5,74,100,0
5,73,100,0
5,66,100,0
5,71,100,0
5,74,100,0
5,78,100,96
5,66,100,0
5,70,100,0
5,66,100,0
5,70,100,0
5,74,100,0
5,78,100,0
5,74,100,0
5,80,100,0
5,74,100,0
5,81,100,0
5,73,100,0
5,81,100,0
5,73,100,0
5,76,100,0
5,71,100,96
5,74,100,0
5,71,100,0
5,76,100,0
5,78,100,0
5,78,100,0
5,76,100,0
5,76,100,0
5,74,100,0
5,64,100,0
5,69,100,0
5,73,100,0
5,71,100,0
5,64,100,0
5,69,100,0
5,73,100,0
5,76,100,96
5,64,100,0
5,68,100,0
5,71,100,0
5,66,100,96
5,70,100,0
5,73,100,0
5,66,100,0
5,71,100,0
5,74,100,0
5,73,100,0
5,66,100,0
5,71,100,0
5,74,100,0
5,78,100,96
5,66,100,0
5,70,100,0
5,73,100,0
5,69,100,192
5,74,100,0
5,78,100,0
5,74,100,0
5,80,100,0
5,81,100,0
5,73,100,0
5,81,100,0
5,73,100,0
5,76,100,0
5,71,100,0
5,74,100,0
5,71,100,0
5,76,100,0
5,78,100,0
5,78,100,0
5,76,100,0
5,76,100,96
5,74,100,0
5,74,100,0
5,73,100,0
5,73,100,0
5,71,100,0
5,71,100,0
5,69,100,0
5,69,100,0
5,68,100,0
5,69,100,0
6,50,106,2
6,57,93,0
6,62,101,0
6,66,93,0
6,49,97,0
6,57,97,0
6,61,97,0
6,64,80,0
6,50,101,0
6,57,97,0
6,62,101,0
6,66,93,0
6,42,86,96
6,57,75,0
6,62,83,0
6,66,80,0
