track,note,velocity,time
1,59,120,0
1,59,0,640
1,57,120,80
1,57,0,235
1,57,120,5
1,57,0,400
1,57,120,80
1,57,0,400
1,57,120,80
1,57,0,400
1,57,120,80
1,57,0,235
1,55,120,5
1,55,0,235
1,52,120,5
1,52,0,235
1,50,120,5
1,50,0,235
1,59,120,245
1,59,0,235
1,59,120,5
1,59,0,235
1,59,120,5
1,59,0,640
1,57,120,80
1,57,0,235
1,57,120,5
1,57,0,235
1,57,120,5
1,57,0,480
1,57,120,0
1,57,0,400
1,57,120,80
1,57,0,235
1,55,120,5
1,55,0,235
1,52,120,5
1,52,0,235
1,62,120,5
1,62,0,235
1,57,120,5
1,57,0,235
1,59,120,5
1,59,0,640
1,57,120,320
1,57,0,235
1,57,120,5
1,57,0,235
1,57,120,5
1,57,0,235
1,57,120,5
1,57,0,400
1,57,120,80
1,57,0,235
1,57,120,5
1,57,0,235
1,57,120,5
1,57,0,235
1,55,120,5
1,55,0,235
1,52,120,5
1,52,0,235
1,59,120,5
1,59,0,235
1,59,120,5
1,59,0,400
1,59,120,80
1,59,0,235
1,59,120,5
1,59,0,235
1,59,120,5
1,59,0,235
1,57,120,5
1,57,0,235
1,55,120,5
1,55,0,235
1,57,120,5
1,57,0,475
1,55,120,5
1,55,0,640
1,59,120,1520
1,59,0,640
1,57,120,80
1,57,0,235
1,57,120,5
1,57,0,235
1,57,120,5
1,57,0,235
1,57,120,5
1,57,0,235
1,57,120,5
1,57,0,235
1,57,120,5
1,57,0,235
1,57,120,5
1,57,0,235
1,57,120,5
1,57,0,235
1,55,120,5
1,55,0,235
1,52,120,5
1,52,0,235
1,50,120,5
1,50,0,235
1,59,120,5
1,59,0,235
1,59,120,5
1,59,0,475
1,59,120,5
1,59,0,475
1,57,120,5
1,57,0,235
1,57,120,5
1,57,0,235
1,57,120,5
1,57,0,235
1,57,120,5
1,57,0,400
1,57,120,80
1,57,0,400
1,57,120,80
1,57,0,235
1,55,120,5
1,55,0,235
1,52,120,5
1,52,0,235
1,62,120,5
1,62,0,475
1,59,120,5
1,59,0,640
1,57,120,320
1,57,0,235
1,57,120,5
1,57,0,235
1,57,120,5
1,57,0,235
1,57,120,5
1,57,0,400
1,57,120,80
1,57,0,235
1,57,120,5
1,57,0,235
1,57,120,5
1,57,0,235
1,55,120,5
1,55,0,235
1,52,120,5
1,52,0,235
1,59,120,5
1,59,0,640
1,59,120,80
1,59,0,400
1,59,120,80
1,59,0,235
1,57,120,5
1,57,0,235
1,55,120,5
1,55,0,235
1,57,120,5
1,57,0,475
1,55,120,5
1,55,0,640
1,59,120,1280
1,59,0,235
1,59,120,5
1,59,0,235
1,59,120,5
1,59,0,235
1,59,120,5
1,59,0,235
1,59,120,5
1,59,0,235
1,59,120,5
1,59,0,235
1,59,120,5
1,59,0,235
1,59,120,5
1,59,0,640
1,57,120,80
1,57,0,235
1,59,120,485
1,59,0,715
1,57,120,5
1,57,0,235
1,57,120,245
1,57,0,235
1,62,120,5
1,62,0,400
1,60,120,80
1,60,0,400
1,59,120,80
1,59,0,400
1,60,120,80
1,60,0,235
1,59,120,5
1,59,0,475
1,60,120,5
1,60,0,235
1,59,120,5
1,59,0,235
1,57,120,5
1,57,0,640
1,59,120,320
1,59,0,235
1,59,120,5
1,59,0,235
1,59,120,5
1,59,0,235
1,59,120,5
1,59,0,235
1,59,120,5
1,59,0,235
1,59,120,5
1,59,0,640
1,57,120,80
1,57,0,235
1,59,120,485
1,59,0,715
1,57,120,5
1,57,0,640
1,62,120,80
1,62,0,400
1,60,120,80
1,60,0,400
1,59,120,80
1,59,0,400
1,60,120,80
1,60,0,235
1,59,120,5
1,59,0,475
1,57,120,5
1,57,0,475
1,57,120,5
1,57,0,235
1,55,120,5
1,55,0,400
1,59,120,320
1,59,0,235
1,59,120,5
1,59,0,235
1,59,120,5
1,59,0,235
1,59,120,5
1,59,0,235
1,59,120,5
1,59,0,235
1,59,120,5
1,59,0,640
1,57,120,80
1,57,0,235
1,59,120,485
1,59,0,715
1,57,120,5
1,57,0,235
1,57,120,245
1,57,0,235
1,62,120,5
1,62,0,400
1,60,120,80
1,60,0,400
1,59,120,80
1,59,0,400
1,60,120,80
1,60,0,235
1,59,120,5
1,59,0,475
1,60,120,5
1,60,0,235
1,59,120,5
1,59,0,235
1,57,120,5
1,57,0,640
1,57,120,320
1,57,0,235
1,57,120,5
1,57,0,235
1,57,120,5
1,57,0,235
1,57,120,5
1,57,0,235
1,57,120,5
1,57,0,235
1,57,120,5
1,57,0,640
1,55,120,80
1,55,0,235
1,57,120,485
1,57,0,715
1,55,120,5
1,55,0,235
1,55,120,245
1,55,0,235
1,57,120,5
1,57,0,235
1,59,120,5
1,59,0,235
1,59,120,5
1,59,0,235
1,59,120,5
1,59,0,235
1,59,120,5
1,59,0,640
1,57,120,80
1,57,0,235
1,59,120,485
1,59,0,715
1,57,120,5
1,57,0,640
1,59,120,80
1,59,0,235
1,57,120,5
1,57,0,235
1,55,120,5
1,55,0,235
1,57,120,5
1,57,0,475
1,55,120,5
1,55,0,640
1,59,120,13040
1,59,0,840
1,57,120,120
1,57,0,235
1,57,120,5
1,57,0,235
1,57,120,5
1,57,0,400
1,57,120,80
1,57,0,400
1,57,120,80
1,57,0,235
1,55,120,5
1,55,0,235
1,52,120,5
1,52,0,235
1,50,120,5
1,50,0,235
1,59,120,245
1,59,0,235
1,59,120,5
1,59,0,235
1,59,120,5
1,59,0,640
1,57,120,80
1,57,0,235
1,57,120,5
1,57,0,235
1,57,120,5
1,57,0,400
1,57,120,80
1,57,0,400
1,57,120,80
1,57,0,235
1,55,120,5
1,55,0,235
1,52,120,5
1,52,0,235
1,62,120,5
1,62,0,235
1,57,120,5
1,57,0,235
1,59,120,5
1,59,0,640
1,57,120,320
1,57,0,235
1,57,120,5
1,57,0,235
1,57,120,5
1,57,0,235
1,57,120,5
1,57,0,400
1,57,120,80
1,57,0,235
1,57,120,5
1,57,0,235
1,57,120,5
1,57,0,235
1,55,120,5
1,55,0,235
1,52,120,5
1,52,0,235
1,59,120,5
1,59,0,235
1,59,120,5
1,59,0,400
1,59,120,80
1,59,0,235
1,59,120,5
1,59,0,235
1,59,120,5
1,59,0,235
1,57,120,5
1,57,0,235
1,55,120,5
1,55,0,235
1,57,120,5
1,57,0,475
1,55,120,5
1,55,0,640
1,59,120,1520
1,59,0,640
1,57,120,80
1,57,0,235
1,57,120,5
1,57,0,235
1,57,120,5
1,57,0,235
1,57,120,5
1,57,0,235
1,57,120,5
1,57,0,235
1,57,120,5
1,57,0,235
1,57,120,5
1,57,0,235
1,57,120,5
1,57,0,235
1,55,120,5
1,55,0,235
1,52,120,5
1,52,0,235
1,50,120,5
1,50,0,235
1,59,120,5
1,59,0,235
1,59,120,5
1,59,0,475
1,59,120,5
1,59,0,475
1,57,120,5
1,57,0,235
1,57,120,5
1,57,0,235
1,57,120,5
1,57,0,235
1,57,120,5
1,57,0,400
1,57,120,80
1,57,0,400
1,57,120,80
1,57,0,235
1,55,120,5
1,55,0,235
1,52,120,5
1,52,0,235
1,62,120,5
1,62,0,475
1,59,120,5
1,59,0,640
1,57,120,320
1,57,0,235
1,57,120,5
1,57,0,235
1,57,120,5
1,57,0,235
1,57,120,5
1,57,0,400
1,57,120,80
1,57,0,235
1,57,120,5
1,57,0,235
1,57,120,5
1,57,0,235
1,55,120,5
1,55,0,235
1,52,120,5
1,52,0,235
1,59,120,5
1,59,0,640
1,59,120,80
1,59,0,400
1,59,120,80
1,59,0,235
1,57,120,5
1,57,0,235
1,55,120,5
1,55,0,235
1,57,120,5
1,57,0,475
1,55,120,5
1,55,0,640
1,59,120,1280
1,59,0,235
1,59,120,5
1,59,0,235
1,59,120,5
1,59,0,235
1,59,120,5
1,59,0,235
1,59,120,5
1,59,0,235
1,59,120,5
1,59,0,235
1,59,120,5
1,59,0,235
1,59,120,5
1,59,0,640
1,57,120,80
1,57,0,235
1,59,120,485
1,59,0,715
1,57,120,5
1,57,0,235
1,57,120,245
1,57,0,235
1,62,120,5
1,62,0,400
1,60,120,80
1,60,0,400
1,59,120,80
1,59,0,400
1,60,120,80
1,60,0,235
1,59,120,5
1,59,0,475
1,60,120,5
1,60,0,235
1,59,120,5
1,59,0,235
1,57,120,5
1,57,0,640
1,59,120,320
1,59,0,235
1,59,120,5
1,59,0,235
1,59,120,5
1,59,0,235
1,59,120,5
1,59,0,235
1,59,120,5
1,59,0,235
1,59,120,5
1,59,0,640
1,57,120,80
1,57,0,235
1,59,120,485
1,59,0,715
1,57,120,5
1,57,0,640
1,62,120,80
1,62,0,400
1,60,120,80
1,60,0,400
1,59,120,80
1,59,0,400
1,60,120,80
1,60,0,235
1,59,120,5
1,59,0,475
1,57,120,5
1,57,0,475
1,57,120,5
1,57,0,235
1,55,120,5
1,55,0,400
1,59,120,320
1,59,0,235
1,59,120,5
1,59,0,235
1,59,120,5
1,59,0,235
1,59,120,5
1,59,0,235
1,59,120,5
1,59,0,235
1,59,120,5
1,59,0,640
1,57,120,80
1,57,0,235
1,59,120,485
1,59,0,715
1,57,120,5
1,57,0,235
1,57,120,245
1,57,0,235
1,62,120,5
1,62,0,400
1,60,120,80
1,60,0,400
1,59,120,80
1,59,0,400
1,60,120,80
1,60,0,235
1,59,120,5
1,59,0,475
1,60,120,5
1,60,0,235
1,59,120,5
1,59,0,235
1,57,120,5
1,57,0,640
1,57,120,320
1,57,0,235
1,57,120,5
1,57,0,235
1,57,120,5
1,57,0,235
1,57,120,5
1,57,0,235
1,57,120,5
1,57,0,235
1,57,120,5
1,57,0,640
1,55,120,80
1,55,0,235
1,57,120,485
1,57,0,715
1,55,120,5
1,55,0,235
1,55,120,245
1,55,0,235
1,57,120,5
1,57,0,235
1,59,120,5
1,59,0,235
1,59,120,5
1,59,0,235
1,59,120,5
1,59,0,235
1,59,120,5
1,59,0,640
1,57,120,80
1,57,0,235
1,59,120,485
1,59,0,715
1,57,120,5
1,57,0,640
1,57,120,80
1,57,0,235
1,59,120,5
1,59,0,640
1,60,120,800
1,60,0,235
1,65,120,245
1,65,0,235
1,62,120,245
1,62,0,235
1,64,120,5
1,64,0,235
1,60,120,5
1,60,0,235
1,62,120,5
1,62,0,235
1,60,120,5
1,60,0,640
1,59,120,1280
1,59,0,235
1,64,120,245
1,64,0,235
1,59,120,245
1,59,0,235
1,62,120,5
1,62,0,235
1,57,120,5
1,57,0,235
1,59,120,5
1,59,0,235
1,60,120,5
1,60,0,235
1,59,120,5
1,59,0,235
1,57,120,5
1,57,0,640
1,57,120,320
1,57,0,235
1,60,120,245
1,60,0,235
1,65,120,245
1,65,0,235
1,62,120,245
1,62,0,235
1,64,120,5
1,64,0,235
1,60,120,5
1,60,0,235
1,62,120,5
1,62,0,235
1,60,120,5
1,60,0,640
1,55,120,800
1,55,0,235
1,59,120,245
1,59,0,235
1,64,120,245
1,64,0,235
1,59,120,245
1,59,0,235
1,62,120,5
1,62,0,235
1,57,120,5
1,57,0,640
1,57,120,320
1,57,0,475
1,57,120,5
1,57,0,475
1,57,120,5
1,57,0,475
1,57,120,5
1,57,0,475
1,57,120,5
1,57,0,235
1,55,120,5
1,55,0,235
1,59,120,5
1,59,0,475
1,59,120,5
1,59,0,475
1,59,120,5
1,59,0,475
1,57,120,5
1,57,0,235
1,57,120,5
1,57,0,235
1,57,120,5
1,57,0,475
1,57,120,5
1,57,0,235
1,57,120,5
1,57,0,235
1,57,120,5
1,57,0,235
1,55,120,5
1,55,0,235
1,52,120,5
1,52,0,235
1,62,120,5
1,62,0,235
1,57,120,5
1,57,0,235
1,59,120,5
1,59,0,400
1,62,120,800
1,62,0,235
1,62,120,5
1,62,0,235
1,62,120,5
1,62,0,235
1,64,120,5
1,64,0,235
1,64,120,5
1,64,0,235
1,64,120,5
1,64,0,235
1,64,120,5
1,64,0,475
1,62,120,5
1,62,0,235
1,62,120,5
1,62,0,235
1,62,120,5
1,62,0,235
1,67,120,5
1,67,0,235
1,57,120,5
1,57,0,235
1,57,120,5
1,57,0,235
1,57,120,5
1,57,0,475
1,57,120,5
1,57,0,235
1,57,120,5
1,57,0,235
1,57,120,5
1,57,0,475
1,55,120,5
1,55,0,640
1,59,120,320
1,59,0,235
1,59,120,5
1,59,0,235
1,59,120,5
1,59,0,235
1,59,120,5
1,59,0,235
1,59,120,5
1,59,0,235
1,59,120,5
1,59,0,235
1,59,120,5
1,59,0,235
1,59,120,5
1,59,0,235
1,59,120,5
1,59,0,235
1,59,120,5
1,59,0,235
1,59,120,5
1,59,0,235
1,59,120,5
1,59,0,640
1,57,120,80
1,57,0,235
1,57,120,6005
1,57,0,640
1,57,120,80
1,57,0,640
1,55,120,80
1,55,0,235
1,57,120,6725
1,57,0,640
1,55,120,80
1,55,0,235
1,59,120,10565
1,59,0,640
1,57,120,80
1,57,0,235
1,57,120,6005
1,57,0,640
1,57,120,80
1,57,0,640
1,55,120,80
1,55,0,235
1,57,120,6725
1,57,0,640
1,55,120,80
1,55,0,235
1,59,120,10565
1,59,0,640
1,57,120,80
1,57,0,235
1,57,120,6005
1,57,0,640
1,57,120,0
1,57,0,640
1,55,120,80
1,55,0,235
1,57,120,0
1,57,0,640
1,55,120,80
1,55,0,235
2,57,100,0
2,62,100,0
2,62,0,400
2,57,0,0
2,57,100,80
2,62,100,0
2,62,0,235
2,57,0,0
2,55,100,5
2,55,0,235
2,57,100,5
2,62,100,0
2,62,0,235
2,57,0,0
2,55,100,5
2,55,0,235
2,52,100,5
2,52,0,235
2,50,100,5
2,50,0,235
2,50,100,245
2,55,100,0
2,55,0,235
2,50,0,0
2,50,100,245
2,55,100,0
2,55,0,1080
2,50,0,0
2,57,100,120
2,62,100,0
2,62,0,400
2,57,0,0
2,57,100,80
2,62,100,0
2,62,0,235
2,57,0,0
2,55,100,5
2,55,0,235
2,57,100,5
2,62,100,0
2,62,0,235
2,57,0,0
2,55,100,5
2,55,0,235
2,52,100,5
2,52,0,235
2,50,100,5
2,50,0,235
2,50,100,245
2,55,100,0
2,55,0,235
2,50,0,0
2,50,100,725
2,55,100,0
2,55,0,235
2,50,0,0
2,57,100,485
2,62,100,0
2,62,0,400
2,57,0,0
2,57,100,80
2,62,100,0
2,62,0,235
2,57,0,0
2,55,100,5
2,55,0,235
2,57,100,5
2,62,100,0
2,62,0,235
2,57,0,0
2,55,100,5
2,55,0,235
2,52,100,5
2,52,0,235
2,50,100,5
2,50,0,235
2,61,100,245
2,65,100,0
2,65,0,235
2,61,0,0
2,62,100,5
2,66,100,0
2,66,0,235
2,62,0,0
2,62,100,5
2,66,100,0
2,71,100,0
2,71,0,1080
2,66,0,0
2,62,0,0
2,60,100,120
2,64,100,0
2,67,100,0
2,67,0,640
2,64,0,0
2,60,0,0
2,60,100,80
2,65,100,0
2,69,100,0
2,69,0,235
2,65,0,0
2,60,0,0
2,60,100,245
2,65,100,0
2,69,100,0
2,69,0,475
2,65,0,0
2,60,0,0
2,60,100,5
2,65,100,0
2,69,100,0
2,69,0,235
2,65,0,0
2,60,0,0
2,60,100,5
2,64,100,0
2,67,100,0
2,67,0,400
2,64,0,0
2,60,0,0
2,59,100,1520
2,64,100,0
2,69,100,0
2,69,0,400
2,64,0,0
2,59,0,0
2,59,100,80
2,64,100,0
2,69,100,0
2,69,0,400
2,64,0,0
2,59,0,0
2,59,100,80
2,64,100,0
2,69,100,0
2,69,0,235
2,64,0,0
2,59,0,0
2,67,100,5
2,67,0,235
2,64,100,5
2,64,0,235
2,62,100,5
2,62,0,235
2,62,100,240
2,67,100,0
2,71,100,0
2,71,0,235
2,67,0,0
2,62,0,0
2,62,100,5
2,67,100,0
2,71,100,0
2,71,0,235
2,67,0,0
2,62,0,0
2,62,100,5
2,67,100,0
2,71,100,0
2,71,0,640
2,67,0,0
2,62,0,0
2,59,100,0
2,64,100,0
2,69,100,0
2,69,0,480
2,64,0,0
2,59,0,0
2,59,100,0
2,64,100,0
