track,note,velocity,time
1,34,127,2644
1,34,95,156
1,34,127,156
1,34,127,324
1,34,107,168
1,34,127,136
1,32,119,320
1,32,82,128
1,32,119,160
1,27,116,284
1,29,116,184
1,34,122,132
1,34,105,208
1,34,127,144
1,34,127,160
1,34,100,92
1,34,127,132
1,32,119,272
1,32,105,112
1,32,119,136
1,27,127,56
1,27,89,128
1,27,127,144
1,26,127,260
1,33,87,92
1,38,113,96
1,37,127,196
1,37,87,156
1,37,127,148
1,36,116,272
1,36,72,164
1,36,113,148
1,36,127,296
1,29,127,100
1,27,127,216
1,27,59,156
1,27,122,144
1,34,127,332
1,34,93,160
1,34,127,144
1,36,113,212
1,36,87,144
1,36,110,128
1,36,110,268
1,36,110,256
1,29,116,36
1,34,119,148
1,34,91,212
1,34,127,152
1,34,127,264
1,34,87,140
1,34,127,148
1,32,116,220
1,32,113,136
1,32,127,124
1,27,127,240
1,29,113,60
1,34,127,228
1,34,113,164
1,34,127,136
1,34,127,264
1,34,87,140
1,34,127,148
1,32,119,192
1,32,105,92
1,32,122,144
1,27,127,140
1,27,78,100
1,27,119,128
1,26,127,248
1,33,105,52
1,38,113,96
1,26,105,388
1,37,127,76
1,37,66,160
1,37,127,164
1,36,119,308
1,36,98,144
1,36,127,148
1,36,127,256
1,29,127,116
1,27,122,204
1,27,53,168
1,27,119,156
1,34,127,324
1,34,98,180
1,34,127,152
1,36,116,256
1,36,122,368
1,36,122,356
1,36,119,336
1,29,122,92
1,29,72,124
1,29,119,140
1,29,107,320
1,29,68,192
1,29,122,144
1,31,122,80
1,33,127,72
1,33,82,204
1,33,119,148
1,33,127,308
1,33,70,176
1,33,105,148
1,36,116,172
1,33,110,72
1,38,122,60
1,38,70,212
1,38,122,156
1,36,122,292
1,36,74,172
1,36,110,152
1,31,127,216
1,33,122,80
1,34,127,72
1,35,98,72
1,36,127,16
1,29,122,72
1,29,85,152
1,29,116,136
1,29,119,428
1,29,93,216
1,29,110,136
1,31,127,40
1,33,127,68
1,33,93,184
1,33,127,128
1,33,122,368
1,33,76,208
1,33,127,152
1,36,127,44
1,33,110,72
1,38,116,56
1,38,102,180
1,38,127,136
1,36,110,196
1,36,89,92
1,36,127,136
1,31,122,76
1,33,98,52
1,34,127,40
1,35,105,36
1,36,127,52
1,29,122,1732
2,53,52,2632
2,62,65,0
2,58,45,0
2,53,34,412
2,58,28,0
2,62,54,0
2,58,38,400
2,53,51,4
2,62,64,0
2,58,41,408
2,62,64,0
2,53,38,4
2,56,38,76
2,51,50,0
2,60,71,4
2,60,68,340
2,51,31,0
2,56,39,0
2,55,48,72
2,58,58,0
2,51,44,4
2,57,54,32
2,60,54,0
2,53,54,4
2,53,60,440
2,58,60,4
2,62,60,0
2,58,50,356
2,62,65,0
2,53,39,0
2,58,57,408
2,62,71,0
2,53,46,4
2,62,77,392
2,58,58,0
2,53,43,0
2,51,51,52
2,60,71,4
2,56,49,0
2,56,39,280
2,60,66,4
2,51,44,0
2,58,60,72
2,51,43,4
2,55,42,4
2,58,55,340
2,51,43,4
2,55,40,8
2,60,31,68
2,53,41,4
2,57,44,0
2,50,32,0
2,53,56,372
2,60,41,0
2,50,43,0
2,57,59,4
2,60,45,4
2,53,69,0
2,56,53,0
2,49,54,4
2,60,61,372
2,49,51,4
2,56,52,0
2,53,59,8
2,48,81,472
2,50,66,376
2,51,61,20
2,52,81,20
2,53,72,44
2,41,81,28
2,51,57,828
2,60,30,0
2,54,60,0
2,54,61,328
2,60,71,4
2,51,51,0
2,58,64,4
2,53,58,0
2,50,52,4
2,58,61,136
2,50,40,0
2,53,36,4
2,51,41,412
2,58,62,0
2,48,57,0
2,51,26,288
2,48,37,0
2,58,49,8
2,48,78,88
2,50,72,152
2,51,76,128
2,53,66,184
2,53,54,340
2,58,48,0
2,62,68,0
2,62,61,400
2,58,43,0
2,53,42,4
2,58,42,368
2,53,49,0
2,62,52,8
2,58,42,368
2,53,49,4
2,62,55,4
2,51,38,504
2,60,54,4
2,56,30,0
2,60,57,308
2,51,46,8
2,56,18,0
2,55,30,48
2,51,40,8
2,58,54,0
2,60,63,4
2,53,42,0
2,57,35,4
2,62,68,8
2,58,49,0
2,53,33,4
2,62,73,336
2,58,48,4
2,53,51,0
2,62,70,360
2,58,52,0
2,53,46,4
2,62,71,464
2,58,46,4
2,53,42,8
2,51,45,52
2,56,45,0
2,60,64,0
2,60,63,256
2,51,48,0
2,56,36,0
2,58,60,44
2,51,41,8
2,55,47,0
2,58,65,328
2,51,46,4
2,55,45,0
2,53,31,8
2,57,34,0
2,60,60,0
2,50,49,8
2,60,65,328
2,50,60,0
2,53,45,4
2,57,47,0
2,60,74,376
2,56,54,0
2,53,48,8
2,49,55,8
2,60,77,312
2,49,51,4
2,53,54,0
2,56,45,0
2,48,66,308
2,50,75,340
2,51,77,336
2,52,73,216
2,53,83,144
2,41,66,0
2,51,52,592
2,60,72,4
2,54,47,8
2,60,64,304
2,54,37,4
2,51,50,0
2,58,66,268
2,53,53,4
2,50,57,4
2,58,60,52
2,50,63,0
2,53,60,4
2,58,72,32
2,51,56,4
2,48,65,4
2,58,78,260
2,51,64,4
2,48,51,12
2,58,98,8
2,48,70,12
2,58,91,268
2,48,77,8
2,57,78,144
2,60,79,0
2,53,75,0
2,57,64,260
2,53,77,0
2,60,70,0
2,60,64,40
2,57,60,0
2,53,68,4
2,57,66,396
2,60,63,0
2,53,72,4
2,53,76,264
2,60,71,4
2,57,63,0
2,60,71,288
2,53,78,0
2,57,54,4
2,57,69,336
2,60,70,4
2,52,70,4
2,57,74,244
2,60,77,0
2,52,66,8
2,60,77,296
2,57,66,4
2,52,73,4
2,60,81,344
2,52,71,4
2,57,79,0
2,60,76,268
2,52,71,4
2,57,37,4
2,60,67,308
2,57,71,0
2,52,68,4
2,53,73,356
2,50,74,0
2,57,72,0
2,57,75,264
2,50,70,0
2,53,64,4
2,57,63,300
2,50,65,4
2,53,55,4
2,57,72,288
2,48,81,4
2,53,56,0
2,57,74,252
2,48,69,0
2,53,67,4
2,57,70,308
2,48,79,0
2,53,64,4
2,43,79,368
2,45,62,368
2,46,69,0
2,47,82,0
2,48,77,0
2,48,73,344
2,36,61,0
2,53,59,104
2,57,61,4
2,60,61,4
2,53,59,192
2,60,61,0
2,57,59,4
2,53,77,196
2,60,67,4
2,57,58,0
2,53,81,332
2,57,75,0
2,60,60,8
2,53,78,272
2,57,68,4
2,60,70,0
2,60,64,284
2,57,59,0
2,53,71,4
2,57,76,408
2,52,74,0
2,60,73,0
2,60,55,292
2,57,41,4
2,52,53,4
2,57,69,32
2,60,67,4
2,52,66,8
2,52,81,408
2,57,71,4
2,60,31,4
2,60,76,280
2,52,75,0
2,57,69,0
2,60,69,4
2,57,59,0
2,52,61,8
2,53,77,348
2,50,77,4
2,57,62,0
2,57,75,276
2,53,73,4
2,50,83,0
2,57,76,280
2,53,68,4
2,50,84,0
2,57,74,408
2,48,69,0
2,53,67,0
2,57,70,260
2,48,78,0
2,53,62,4
2,57,65,276
2,48,63,0
2,53,51,4
2,43,66,40
2,45,75,388
2,46,80,316
2,47,80,0
2,48,85,12
2,48,80,0
2,36,78,44
2,41,76,0
3,74,73,2612
3,74,71,108
3,74,80,124
3,74,79,176
3,74,79,32
3,74,73,80
3,74,71,124
3,74,63,80
3,74,67,88
3,74,58,68
3,74,81,40
3,75,80,384
3,72,76,16
3,70,79,192
3,67,74,144
3,70,80,176
3,70,75,132
3,72,87,196
3,70,73,168
3,74,84,188
3,74,80,76
3,74,80,84
3,74,76,84
3,74,76,60
3,74,78,52
3,74,84,92
3,72,73,188
3,74,79,184
3,72,77,368
3,74,84,188
3,75,87,20
3,72,77,384
3,70,80,348
3,72,79,168
3,70,67,576
3,74,91,236
3,75,88,192
3,72,83,24
3,77,95,0
3,77,95,16
3,72,81,0
3,77,84,0
3,72,79,0
3,74,85,0
3,74,89,92
3,72,76,168
3,77,91,0
3,77,84,88
3,72,73,4
3,77,85,148
3,72,69,4
3,73,86,0
3,70,65,28
3,75,79,0
3,67,61,4
3,70,45,0
3,67,52,4
3,70,73,284
3,67,70,0
3,69,78,580
3,65,33,12
3,72,80,144
3,74,82,12
3,75,85,192
3,75,70,96
3,72,82,20
3,70,70,4
3,75,88,0
3,74,85,88
3,72,76,384
3,70,69,176
3,74,84,180
3,74,86,72
3,72,79,392
3,70,64,160
3,72,75,188
3,74,85,332
3,63,53,0
3,67,69,0
3,72,87,104
3,63,52,0
3,70,75,128
3,67,60,4
3,63,53,0
3,72,85,44
3,67,47,0
3,63,48,4
3,74,75,264
3,74,75,92
3,74,73,136
3,74,85,132
3,74,88,0
3,74,82,68
3,74,79,100
3,74,74,76
3,74,79,96
3,74,68,88
3,74,73,104
3,75,79,12
3,72,73,4
3,70,68,192
3,67,69,4
3,70,73,188
3,70,75,108
3,72,84,196
3,70,73,0
3,74,88,184
3,74,71,104
3,74,82,112
3,74,76,32
3,74,71,96
3,74,84,284
3,74,69,92
3,72,58,28
3,74,75,196
3,72,78,352
3,74,78,168
3,75,80,540
3,72,81,352
3,70,64,384
3,72,74,160
3,70,54,0
3,74,86,144
3,75,88,188
3,77,89,24
3,72,78,4
3,77,82,20
3,72,69,0
3,77,90,20
3,72,80,0
3,74,92,384
3,74,84,56
3,72,80,184
3,77,88,4
3,77,91,84
3,72,84,0
3,77,89,120
3,72,84,4
3,73,88,384
3,75,86,36
3,70,67,0
3,67,75,0
3,70,69,248
3,67,63,0
3,70,73,260
3,67,69,0
3,69,57,8
3,65,50,12
3,72,81,96
3,74,84,184
3,75,87,164
3,75,81,180
3,72,82,24
3,70,64,192
3,75,82,0
3,74,84,568
3,72,77,0
3,70,58,196
3,74,80,148
3,74,89,76
3,72,72,388
3,70,75,0
3,72,75,196
3,65,78,44
3,62,64,0
3,67,75,200
3,64,63,4
3,74,102,308
3,72,89,660
3,69,85,380
3,72,87,176
3,74,87,548
3,72,87,0
3,74,89,192
3,76,89,168
3,74,86,84
3,74,91,84
3,72,79,384
3,74,84,148
3,72,72,372
3,69,75,128
3,74,87,1140
3,72,82,320
3,72,90,88
3,69,81,188
3,67,79,580
3,65,86,12
3,67,85,4
3,69,80,380
3,70,87,376
3,65,79,0
3,62,81,0
3,69,84,136
3,60,75,0
3,64,77,4
3,67,89,228
3,62,81,0
3,58,67,0
3,65,84,324
3,69,85,144
3,62,82,4
3,58,69,0
3,67,79,396
3,65,83,68
3,67,82,84
3,58,62,0
3,62,73,0
3,74,93,396
3,72,81,760
3,69,79,0
3,72,87,200
3,74,87,532
3,72,82,516
3,74,93,176
3,76,91,0
3,74,89,568
3,74,86,12
3,72,82,100
3,74,83,12
3,72,91,388
3,69,73,144
3,74,88,1096
3,72,83,336
3,72,89,136
3,69,83,0
3,67,82,592
3,65,81,20
3,67,81,376
3,69,82,332
3,65,75,356
3,70,83,0
3,62,71,4
3,69,80,12
3,60,69,4
3,64,54,0
3,67,78,0
3,58,62,0
3,62,67,4
3,65,87,228
3,58,67,180
3,62,87,4
3,69,85,0
3,67,84,352
3,65,82,144
3,67,81,108
3,62,66,4
3,58,59,0
3,72,89,520
3,69,70,0
3,67,65,0
4,58,127,2604
4,58,66,192
4,58,116,156
4,55,82,384
4,53,74,28
4,58,122,96
4,58,105,208
4,58,110,132
4,55,82,8
4,53,57,36
4,58,122,120
4,58,85,176
4,58,127,156
4,55,89,388
4,53,72,24
4,58,116,84
4,58,87,220
4,58,116,160
4,55,93,388
4,53,64,44
4,58,116,88
4,58,107,200
4,58,116,136
4,55,91,8
4,53,76,56
4,58,127,76
4,58,110,204
4,58,122,152
4,55,91,396
4,53,80,44
4,58,122,100
4,58,105,212
4,58,116,140
4,55,89,4
4,53,59,52
4,58,113,112
4,58,110,208
4,58,113,136
4,55,93,388
4,53,89,68
4,57,127,84
4,57,107,228
4,57,119,140
4,55,82,88
4,53,64,100
4,56,116,136
4,56,107,156
4,56,127,136
4,55,119,236
4,55,93,156
4,55,116,136
4,55,116,248
4,57,122,60
4,57,116,76
4,54,127,140
4,54,70,168
4,54,113,136
4,56,89,0
4,58,113,164
4,58,107,232
4,58,127,148
4,55,119,220
4,55,91,172
4,55,119,144
4,55,119,196
4,55,94,116
4,53,127,192
4,58,127,88
4,58,91,164
4,58,127,164
4,55,80,8
4,53,66,32
4,58,119,96
4,58,110,172
4,58,127,148
4,55,110,52
4,53,95,88
4,58,127,104
4,58,93,184
4,58,127,156
4,55,110,68
4,53,95,76
4,58,127,92
4,58,93,188
4,58,127,152
4,55,102,72
4,53,85,76
4,58,119,124
4,58,105,176
4,58,127,164
4,55,95,392
4,53,76,68
4,58,127,104
4,58,89,216
4,58,127,168
4,55,93,32
4,53,76,16
4,58,119,84
4,58,110,216
4,58,122,144
4,55,100,32
4,53,70,68
4,58,116,112
4,58,100,196
4,58,116,156
4,55,105,32
4,53,76,76
4,57,122,88
4,57,107,188
4,57,127,132
4,55,91,48
4,53,76,76
4,56,127,100
4,56,102,164
4,56,119,144
4,55,119,96
4,55,91,180
4,55,119,148
4,55,122,276
4,53,127,168
4,54,119,236
4,54,110,128
4,54,127,144
4,54,87,112
4,54,105,136
4,58,127,140
4,58,110,192
4,58,127,152
4,58,85,64
4,55,122,304
4,55,105,164
4,55,127,160
4,53,127,240
4,55,127,224
5,58,68,2580
5,53,74,4
5,62,89,0
5,51,70,216
5,60,98,0
5,56,76,4
5,51,61,180
5,55,91,4
5,58,82,0
5,53,91,0
5,60,102,0
5,57,87,4
5,62,89,20
5,58,78,0
5,53,87,0
5,51,70,52
5,60,95,4
5,56,64,0
5,58,70,84
5,55,91,4
5,51,63,0
5,62,91,276
5,60,91,0
5,57,85,4
5,53,76,0
5,61,76,100
5,56,70,0
5,60,93,4
5,53,59,0
5,63,78,248
5,58,74,4
5,55,76,0
5,57,92,12
5,65,92,0
5,60,93,8
5,63,70,16
5,60,87,4
5,54,57,0
5,62,98,52
5,58,61,0
5,53,66,0
5,60,89,244
5,51,53,4
5,55,78,0
5,60,93,292
5,51,61,0
5,55,82,4
5,53,82,260
5,62,91,4
5,58,74,0
5,51,61,256
5,60,95,4
5,56,62,0
5,51,60,100
5,58,78,0
5,55,87,4
5,53,78,68
5,60,91,0
5,57,85,0
5,58,61,0
5,62,87,4
5,53,68,0
5,51,70,20
5,60,95,4
5,56,66,0
5,55,87,72
5,51,60,0
5,58,64,4
5,57,78,176
5,62,87,0
5,53,70,4
5,60,91,4
5,61,80,192
5,56,66,4
5,60,98,4
5,63,70,24
5,58,62,0
5,55,70,4
5,60,77,2088
5,57,78,4
5,65,78,0
5,54,63,20
5,63,66,0
5,60,89,0
5,62,70,144
5,53,59,0
5,58,57,4
5,60,89,216
5,55,89,4
5,51,55,4
5,52,82,4
5,53,78,96
5,60,93,0
5,57,89,4
5,60,72,48
5,52,70,0
5,57,82,4
5,57,68,136
5,62,87,4
5,53,62,0
5,60,89,1532
5,62,60,24
5,58,60,4
5,55,72,4
5,60,89,104
5,55,68,0
5,58,64,4
5,53,72,80
5,57,85,4
5,60,98,0
5,60,89,36
5,52,76,8
5,62,70,44
5,53,70,4
5,60,89,20
5,55,72,324
5,58,87,0
5,62,85,0
5,60,91,112
5,55,85,4
5,57,58,76
6,58,76,27108
6,62,89,8
6,60,95,3064
6,56,85,12
6,58,66,8
6,55,74,4
6,58,80,92
6,62,89,4
6,56,62,4
6,60,89,4
6,58,82,0
6,55,80,8
6,57,89,0
6,53,89,16
6,60,91,824
6,56,74,744
6,55,87,8
6,51,113,1564
6,53,110,24
6,51,101,12
6,58,101,0
6,53,89,1516
6,60,91,16
6,51,82,8
6,53,127,32
6,52,116,44
6,74,68,12
6,72,93,728
6,69,85,312
6,72,102,8
6,74,91,480
6,72,105,96
6,74,105,176
6,76,105,180
6,74,87,172
6,74,82,44
6,72,95,372
6,74,89,156
6,72,100,368
6,69,87,156
6,74,107,332
6,72,98,8
6,72,105,80
6,69,89,200
