track,note,velocity,time
3,31,81,901
3,33,81,49
3,31,83,43
3,36,92,2
3,36,97,31
3,31,81,5
3,36,87,47
3,38,81,47
3,38,92,32
3,33,84,4
3,38,84,0
3,40,86,50
3,40,99,36
3,36,81,2
3,40,81,1
3,41,97,48
3,29,87,29
3,31,84,49
3,31,84,21
3,36,94,47
3,36,81,46
3,31,81,5
3,36,81,0
3,38,81,7
3,38,81,32
3,33,81,5
3,38,81,2
3,40,81,3
3,40,104,34
3,36,81,0
3,40,81,5
3,41,97,3
3,29,94,36
3,31,90,1
3,36,87,192
3,36,83,46
3,31,92,1
3,36,87,3
3,38,81,50
3,38,92,32
3,33,86,5
3,38,81,3
3,40,92,48
3,40,97,32
3,36,84,10
3,40,81,4
3,41,90,1
3,29,90,41
3,31,83,7
3,31,92,17
3,36,104,10
3,36,86,38
3,31,90,2
3,36,92,3
3,38,87,0
3,38,90,29
3,33,86,8
3,38,81,3
3,40,94,3
3,40,92,35
3,36,81,145
3,40,88,10
3,41,101,49
3,29,92,33
3,31,81,1
3,31,81,26
3,36,94,49
3,36,90,32
3,31,86,0
3,36,87,47
3,38,81,46
3,38,90,29
3,33,87,3
3,38,87,1
3,40,99,49
3,40,94,32
3,36,81,145
3,40,101,43
3,41,104,24
3,29,97,97
3,31,97,0
3,31,94,27
3,32,93,5
3,32,85,21
3,32,92,22
3,44,97,97
3,41,104,88
3,41,105,25
3,36,92,4
3,34,95,2
3,34,81,32
3,29,90,49
3,34,85,3
3,39,104,95
3,39,81,42
3,39,101,31
3,27,105,96
3,32,95,5
3,32,101,23
3,44,95,145
3,41,105,81
3,41,97,30
3,36,94,3
3,41,87,1
3,34,83,3
3,34,93,34
3,34,88,14
3,41,101,97
3,34,81,43
3,36,101,45
3,36,87,38
3,31,86,0
3,36,94,38
3,29,86,7
3,29,81,36
3,29,92,19
3,41,87,98
3,38,99,90
3,38,86,27
3,33,92,49
3,38,84,12
3,31,92,9
3,31,87,33
3,38,92,1
3,43,97,12
3,31,83,7
3,31,104,28
3,43,105,4
3,38,87,48
3,36,105,2
3,36,101,30
3,31,101,2
3,36,99,48
3,38,94,0
3,38,87,33
3,33,94,1
3,38,87,47
3,40,90,48
3,40,105,31
3,36,94,1
3,40,94,10
3,41,99,49
3,41,99,28
3,43,104,2
3,31,94,5
3,36,105,96
3,36,84,41
3,31,94,1
3,36,99,49
3,38,94,41
3,38,99,31
3,33,104,2
3,38,92,1
3,40,94,48
3,40,105,28
3,36,81,144
3,40,101,1
3,29,104,5
3,29,101,27
3,31,90,2
3,31,105,14
3,31,105,34
3,32,105,0
3,32,90,26
3,44,101,0
3,41,105,97
3,41,105,34
3,36,99,145
3,34,97,7
3,34,81,33
3,34,81,10
3,29,104,99
3,39,105,6
3,39,101,38
3,34,90,145
3,39,105,43
3,32,95,5
3,32,105,28
3,44,101,144
3,41,101,86
3,41,104,37
3,36,81,48
3,41,105,95
3,34,90,1
3,34,85,40
3,34,90,29
3,34,81,24
3,36,102,4
3,36,105,34
3,36,104,29
3,36,105,24
3,29,94,8
3,29,99,34
3,41,105,50
3,29,87,84
3,41,94,1
3,38,87,48
3,38,94,29
3,33,97,49
3,38,87,7
3,31,99,5
3,31,97,37
3,38,94,2
3,43,105,23
3,38,84,2
3,43,105,7
3,43,105,9
3,40,105,30
3,38,105,0
3,36,105,14
3,36,105,27
3,31,101,1
3,36,105,49
3,38,101,46
3,38,105,30
3,33,105,2
3,38,90,49
3,40,99,47
3,40,105,37
3,36,97,3
3,40,94,47
3,41,101,15
3,29,105,21
3,31,94,2
3,33,105,3
3,35,105,48
3,36,105,46
3,36,104,38
3,31,97,1
3,36,97,48
3,38,86,47
3,38,99,42
3,33,94,3
3,38,84,4
3,40,99,3
3,40,101,36
3,36,94,144
3,40,92,2
3,41,83,48
3,29,81,96
3,31,94,50
3,31,97,20
3,27,93,34
3,27,90,11
3,27,105,20
3,29,105,3
3,29,90,22
3,36,81,8
3,29,83,48
3,29,87,19
3,30,97,47
3,30,97,30
3,38,87,47
3,30,97,42
3,30,105,35
3,31,104,49
3,31,87,27
3,29,105,49
3,29,105,21
3,29,105,41
3,27,105,49
3,27,105,31
3,27,105,13
3,34,90,95
3,27,95,39
3,29,105,0
3,29,105,29
3,36,94,49
3,29,94,8
3,36,99,48
3,30,81,7
3,30,105,29
3,38,83,49
3,30,85,4
3,38,84,49
3,31,94,0
3,31,101,34
3,31,97,25
3,31,97,22
3,33,90,47
3,35,104,41
3,36,105,43
3,36,94,37
3,31,81,0
3,36,92,48
3,38,97,45
3,38,97,30
3,33,84,144
3,38,92,46
3,40,104,46
3,40,105,30
3,36,94,144
3,40,105,0
3,29,99,1
3,29,105,32
3,31,101,0
3,31,105,29
3,36,105,6
3,36,97,32
3,31,99,4
3,36,97,48
3,38,104,0
3,38,104,26
3,33,99,0
3,38,92,48
3,40,99,3
3,40,105,27
3,36,92,144
3,40,105,41
3,29,105,48
3,29,105,16
3,31,104,48
3,31,97,18
3,31,97,27
3,27,105,10
3,27,101,33
3,34,105,145
3,27,105,38
3,29,105,45
3,29,105,31
3,29,99,23
3,36,105,49
3,29,105,4
3,30,93,48
3,30,105,26
3,30,105,22
3,38,104,47
3,30,93,45
3,31,97,43
3,31,99,26
3,31,104,30
3,29,99,49
3,29,105,26
3,29,105,36
3,27,95,48
3,27,105,34
3,27,88,21
3,34,101,49
3,27,105,2
3,29,104,48
3,29,105,28
3,36,104,0
3,29,81,12
3,41,105,49
3,29,104,6
3,30,101,48
3,38,97,5
3,30,88,6
3,42,105,6
3,30,101,1
3,31,92,11
3,43,104,11
3,43,105,13
3,40,104,49
3,38,105,3
3,40,92,48
3,36,105,5
3,36,105,45
3,31,94,2
3,36,101,0
3,38,90,1
3,38,87,31
3,33,101,144
3,38,94,47
3,40,87,45
3,40,105,35
3,36,99,1
3,40,101,1
3,41,99,2
3,29,105,49
3,29,105,34
3,31,94,48
3,31,101,19
3,31,104,29
3,36,104,48
3,36,99,38
3,31,87,0
3,36,97,2
3,38,87,49
3,38,92,36
3,33,86,3
3,38,81,1
3,40,101,31
3,40,94,25
3,40,81,2
3,36,81,55
3,40,92,29
3,41,104,23
3,29,101,14
3,31,99,4
3,33,105,31
3,35,101,6
3,36,92,0
3,36,105,26
3,31,94,6
3,36,99,4
3,38,87,11
3,38,97,4
3,33,86,2
3,38,94,49
3,33,87,2
3,40,92,2
3,40,92,7
3,36,94,1
3,31,86,0
3,40,81,19
3,41,104,0
3,29,97,70
3,31,99,11
3,33,99,24
3,35,101,42
3,36,97,0
3,36,105,29
3,31,90,42
3,36,92,44
3,38,92,2
3,38,97,17
3,33,99,1
3,38,86,0
3,40,104,45
3,40,101,33
3,40,97,29
3,36,94,4
3,40,101,2
3,29,105,51
3,29,104,28
3,31,105,49
3,31,101,15
3,36,99,47
4,60,67,1042
4,55,57,3
4,60,69,49
4,62,68,2
4,55,68,3
4,55,69,15
4,59,70,48
4,60,66,3
4,55,69,1
4,60,70,47
4,62,62,6
4,55,59,0
4,60,73,26
4,55,62,12
4,55,65,26
4,55,64,25
4,62,64,48
4,57,65,191
4,60,68,0
4,55,56,1
4,55,71,24
4,55,65,26
4,53,63,20
4,57,63,0
4,60,63,0
4,53,63,24
4,55,63,0
4,59,63,0
4,48,57,24
4,52,57,0
4,55,57,0
4,55,74,2
4,55,67,17
4,60,61,48
4,62,64,5
4,57,55,31
4,60,62,32
4,55,58,14
4,55,70,26
4,55,61,20
4,53,51,6
4,57,64,0
4,60,47,0
4,55,50,23
4,62,62,0
4,59,55,0
4,60,73,9
4,55,62,12
4,55,65,26
4,55,64,25
4,62,64,48
4,57,65,191
4,60,68,0
4,55,56,1
4,55,71,24
4,55,65,26
4,53,63,20
4,57,63,0
4,60,63,0
4,53,63,24
4,55,63,0
4,59,63,0
4,48,57,24
4,52,57,0
4,55,57,0
4,55,74,2
4,55,67,17
4,60,61,48
4,62,64,5
4,57,55,31
4,60,62,32
4,55,58,14
4,55,70,26
4,55,61,20
4,53,51,6
4,57,64,0
4,60,47,0
4,62,62,23
4,59,55,0
4,55,56,0
4,55,52,13
4,56,70,6
4,56,65,27
4,60,67,16
4,53,59,0
4,53,68,27
4,60,72,0
4,58,76,15
4,53,67,3
4,53,65,28
4,58,68,50
4,51,77,20
4,51,73,29
4,51,72,24
4,51,68,28
4,56,64,49
4,56,67,34
4,53,71,38
4,60,69,8
4,60,73,24
4,53,62,4
4,55,67,28
4,55,66,26
4,55,59,27
4,55,70,25
4,48,57,9
4,48,67,34
4,52,67,52
4,55,67,33
4,53,67,46
4,53,74,30
4,50,73,27
4,50,72,26
4,50,70,24
4,50,56,26
4,55,68,1
4,55,67,29
4,50,56,9
4,50,66,28
4,55,63,3
4,60,73,94
4,55,62,12
4,55,65,26
4,55,64,25
4,62,64,48
4,57,65,191
4,60,68,0
4,55,56,1
4,55,71,24
4,55,65,26
4,53,63,20
4,57,63,0
4,60,63,0
4,53,63,24
4,55,63,0
4,59,63,0
4,48,57,24
4,52,57,0
4,55,57,0
4,55,74,2
4,55,67,17
4,60,61,48
4,62,64,5
4,57,55,31
4,60,62,32
4,55,58,14
4,55,70,26
4,55,61,20
4,53,51,6
4,57,64,0
4,60,47,0
4,62,62,23
4,59,55,0
4,55,56,0
4,55,52,13
4,56,70,5
4,56,65,27
4,60,67,16
4,53,59,0
4,53,68,27
4,60,72,0
4,58,76,15
4,53,67,3
4,53,65,28
4,58,68,50
4,51,77,20
4,51,73,29
4,51,72,24
4,51,68,28
4,56,64,49
4,56,67,34
4,53,71,38
4,60,69,8
4,60,73,24
4,53,62,4
4,55,67,28
4,55,66,26
4,55,59,27
4,55,70,25
4,48,57,9
4,48,67,34
4,52,67,52
4,55,67,85
4,53,67,10
4,53,74,30
4,50,73,27
4,50,72,26
4,50,70,24
4,50,56,26
4,55,68,1
4,55,67,29
4,50,56,9
4,50,66,28
4,55,63,3
4,60,73,82
4,55,62,12
4,55,65,26
4,55,64,25
4,62,64,48
4,57,65,191
4,60,68,0
4,55,56,1
4,55,71,24
4,55,65,26
4,53,63,20
4,57,63,0
4,60,63,0
4,53,63,24
4,55,63,0
4,59,63,0
4,48,57,24
4,52,57,0
4,55,57,0
4,55,74,2
4,55,67,17
4,60,61,48
4,62,64,5
4,57,55,31
4,60,62,32
4,55,58,14
4,55,70,26
4,55,61,20
4,53,51,6
4,57,64,0
4,60,47,0
4,62,62,23
4,59,55,0
4,55,56,0
4,55,52,13
4,51,70,6
4,51,68,25
4,53,69,0
4,53,68,17
4,54,69,1
4,54,68,20
4,55,63,3
4,53,68,192
4,51,73,191
4,51,76,27
4,53,77,22
4,53,75,19
4,54,68,192
4,54,69,29
4,55,68,0
4,55,64,31
4,50,67,49
4,55,64,92
4,60,73,5
4,55,62,12
4,55,65,26
4,55,64,25
4,62,64,48
4,57,65,191
4,60,68,0
4,55,56,1
4,55,71,24
4,55,65,26
4,53,63,20
4,57,63,0
4,60,63,0
4,53,63,24
4,55,63,0
4,59,63,0
4,48,57,7
4,52,57,0
4,55,57,0
4,55,74,2
4,55,67,17
4,60,61,48
4,62,64,5
4,57,55,31
4,60,62,32
4,55,58,14
4,55,70,26
4,55,61,20
4,53,51,6
4,57,64,0
4,60,47,0
4,62,62,23
4,59,55,0
4,55,56,0
4,55,52,13
4,51,70,6
4,51,68,25
4,53,69,0
4,53,68,17
4,54,69,1
4,54,68,20
4,55,63,3
4,53,68,192
4,51,73,191
4,51,76,27
4,53,77,22
4,53,75,19
4,54,68,192
4,54,69,29
4,55,68,0
4,55,64,31
4,50,67,49
4,55,64,92
4,60,72,4
4,60,69,23
4,62,69,4
4,65,61,1
4,62,67,27
4,65,59,0
4,60,71,9
4,60,69,54
4,57,56,1
4,53,56,0
4,55,57,1
4,62,69,1
4,59,57,0
4,60,72,3
4,60,69,23
4,62,69,4
4,65,61,1
4,62,67,27
4,65,59,0
4,60,71,9
4,60,69,44
4,57,56,1
4,53,56,0
4,55,57,1
4,62,69,1
4,59,57,0
4,60,72,3
4,60,69,23
4,62,69,4
4,65,61,1
4,62,67,21
4,65,59,0
4,60,71,9
4,60,69,54
4,57,56,1
4,53,56,0
4,55,57,1
4,62,69,1
4,59,57,0
4,60,72,3
4,60,69,23
4,62,69,4
4,65,61,1
4,62,67,27
4,65,59,0
4,60,71,9
4,60,69,54
4,57,56,1
4,53,56,0
4,55,57,1
4,62,69,1
4,59,57,0
5,64,53,1132
5,67,73,0
5,72,85,2
5,71,89,0
5,72,86,1
5,74,90,0
5,65,72,2
5,69,68,0
5,72,90,1
5,71,88,3
5,65,61,0
5,62,56,0
5,69,84,93
5,67,83,8
5,64,76,1
5,76,86,23
5,72,77,0
5,67,74,0
5,74,78,1
5,76,85,92
5,77,93,31
5,72,65,1
5,69,70,0
5,76,84,90
5,74,82,10
5,67,60,2
5,71,74,0
5,69,68,13
5,72,88,0
5,65,59,1
5,72,94,8
5,64,62,1
5,67,50,0
5,67,70,28
5,64,53,1
5,72,90,0
5,72,89,23
5,67,67,2
5,64,55,0
5,65,67,90
5,69,61,0
5,71,79,0
5,72,89,47
5,74,82,2
5,69,68,1
5,65,64,1
5,72,84,48
5,71,81,45
5,69,82,9
5,64,60,10
5,69,77,0
5,67,84,14
5,64,70,4
5,67,79,49
5,65,82,46
5,64,87,0
5,65,76,1
5,67,91,49
5,65,82,46
5,64,90,45
5,62,78,3
5,60,95,6
5,64,61,45
5,72,100,0
5,67,66,1
5,67,67,24
5,64,57,0
5,72,93,2
5,72,91,36
5,69,73,4
5,71,89,0
5,65,56,0
5,72,90,1
5,74,100,45
5,69,67,0
5,65,60,1
5,72,84,46
5,71,89,47
5,69,79,0
5,69,86,23
5,64,69,1
5,67,90,96
5,64,85,43
5,67,82,49
5,65,90,40
5,64,87,48
5,65,80,47
5,67,96,21
5,69,88,16
5,71,85,5
5,64,62,4
5,67,50,0
5,72,95,0
5,72,90,27
5,67,70,1
5,64,53,1
5,72,90,23
5,67,67,2
5,64,55,0
5,72,87,36
5,71,85,2
5,69,67,1
5,65,51,0
5,72,84,2
5,74,86,36
5,69,68,1
5,65,56,1
5,72,81,43
5,71,90,47
5,69,82,1
5,69,88,26
5,64,60,2
5,67,82,12
5,64,76,1
5,67,83,51
5,65,86,44
5,64,82,3
5,65,87,5
5,67,87,1
5,65,82,48
5,64,84,2
5,62,88,47
5,60,97,3
5,72,93,62
5,64,61,1
5,67,66,1
5,74,95,24
5,67,67,0
5,64,57,0
5,72,79,8
5,72,90,35
5,69,73,3
5,65,56,0
5,71,84,1
5,72,90,1
5,74,88,2
5,69,67,2
5,65,60,1
5,72,80,2
5,71,84,49
5,69,77,8
5,69,77,25
5,64,69,2
5,67,87,94
5,64,81,1
5,67,82,50
5,65,74,26
5,64,84,47
5,65,83,46
5,67,89,2
5,68,91,61
5,60,70,1
5,63,80,0
5,63,65,7
5,68,76,0
5,72,83,0
5,77,89,1
5,68,61,1
5,72,65,1
5,75,94,0
5,68,74,1
5,65,58,0
5,72,90,1
5,65,66,19
5,72,87,0
5,68,74,0
5,75,93,1
5,73,90,20
5,65,68,3
5,70,81,0
5,61,59,27
5,65,72,0
5,70,95,0
5,72,83,9
5,67,80,16
5,63,72,1
5,73,85,0
5,72,90,1
5,61,73,4
5,67,67,0
5,70,89,0
5,68,93,51
5,60,67,1
5,63,83,0
5,72,88,6
5,63,75,1
5,68,81,0
5,77,87,5
5,68,80,1
5,72,74,0
5,75,97,21
5,68,65,0
5,72,61,0
5,65,54,21
5,68,79,0
5,72,90,1
5,68,72,14
5,72,70,0
5,75,95,2
5,65,49,8
5,70,80,0
5,73,92,1
5,61,64,29
5,65,68,0
5,70,90,2
5,72,91,3
5,73,91,16
5,64,61,0
5,67,70,0
5,72,85,0
5,70,94,7
5,62,66,2
5,67,72,0
5,69,86,13
5,60,65,2
5,65,70,0
5,65,72,31
5,60,64,0
5,69,82,1
