track,note,velocity,time
2,83,79,0
2,67,79,0
2,91,79,0
2,91,0,10
2,86,79,2
2,86,0,10
2,91,79,2
2,91,0,10
2,86,79,2
2,86,0,10
2,91,79,2
2,91,0,10
2,67,0,2
2,86,79,0
2,86,0,10
2,71,79,2
2,91,79,0
2,83,0,8
2,71,0,2
2,91,0,0
2,72,79,2
2,86,79,0
2,72,0,10
2,86,0,0
2,81,79,2
2,74,79,0
2,90,79,0
2,90,0,10
2,86,79,2
2,86,0,10
2,90,79,2
2,90,0,10
2,86,79,2
2,74,0,4
2,81,0,0
2,86,0,6
2,79,79,2
2,71,79,0
2,90,79,0
2,90,0,10
2,86,79,2
2,86,0,10
2,90,79,2
2,90,0,10
2,86,79,2
2,71,0,4
2,79,0,0
2,86,0,6
2,79,79,2
2,72,79,0
2,88,79,0
2,88,0,10
2,84,79,2
2,84,0,10
2,88,79,2
2,88,0,10
2,84,79,2
2,84,0,10
2,96,79,2
2,72,0,10
2,96,0,0
2,84,79,2
2,84,0,10
2,71,79,2
2,88,79,0
2,71,0,10
2,88,0,0
2,72,79,2
2,84,79,0
2,72,0,10
2,84,0,0
2,74,79,2
2,91,79,0
2,91,0,10
2,84,79,2
2,79,0,10
2,84,0,0
2,88,79,2
2,88,0,10
2,84,79,2
2,74,0,3
2,84,0,7
2,71,79,2
2,91,79,0
2,71,0,10
2,91,0,0
2,74,79,2
2,88,79,0
2,88,0,10
2,91,79,2
2,74,0,3
2,91,0,7
2,90,79,2
2,90,0,10
2,83,79,0
2,67,79,0
2,91,79,0
2,91,0,10
2,86,79,2
2,86,0,10
2,91,79,2
2,91,0,10
2,86,79,2
2,86,0,10
2,91,79,2
2,91,0,10
2,67,0,2
2,86,79,0
2,86,0,10
2,71,79,2
2,91,79,0
2,83,0,8
2,71,0,2
2,91,0,0
2,72,79,2
2,86,79,0
2,72,0,10
2,86,0,0
2,81,79,2
2,74,79,0
2,90,79,0
2,90,0,10
2,86,79,2
2,86,0,10
2,90,79,2
2,90,0,10
2,86,79,2
2,74,0,4
2,81,0,0
2,86,0,6
2,79,79,2
2,71,79,0
2,90,79,0
2,90,0,10
2,86,79,2
2,86,0,10
2,90,79,2
2,90,0,10
2,86,79,2
2,71,0,4
2,79,0,0
2,86,0,6
2,79,79,2
2,72,79,0
2,88,79,0
2,88,0,10
2,84,79,2
2,84,0,10
2,88,79,2
2,88,0,10
2,84,79,2
2,84,0,10
2,96,79,2
2,96,0,10
2,84,79,2
2,84,0,10
2,88,79,2
2,88,0,10
2,84,79,2
2,84,0,10
2,91,79,2
2,91,0,10
2,84,79,2
2,79,0,10
2,84,0,0
2,88,79,2
2,88,0,10
2,84,79,2
2,84,0,10
2,91,79,2
2,91,0,10
2,88,79,2
2,88,0,10
2,90,79,2
2,90,0,20
2,72,0,4
2,77,79,0
2,72,79,0
2,69,79,0
2,81,79,0
2,69,0,180
2,72,0,0
2,77,0,0
2,81,0,0
2,77,79,0
2,72,79,0
2,69,79,0
2,81,79,0
2,69,0,192
2,72,0,0
2,77,0,0
2,81,0,0
2,77,79,0
2,72,79,0
2,69,79,0
2,81,79,0
2,69,0,192
2,72,0,0
2,77,0,0
2,81,0,0
2,77,79,0
2,72,79,0
2,69,79,0
2,81,79,0
2,69,0,192
2,72,0,0
2,77,0,0
2,81,0,0
2,69,79,2736
2,69,0,24
2,71,79,0
2,71,0,24
2,72,79,0
2,72,0,24
2,74,79,0
2,74,0,24
2,76,79,0
2,76,0,24
2,79,79,0
2,79,0,24
2,62,79,0
2,62,0,24
2,64,79,0
2,64,0,24
2,66,79,0
2,66,0,24
2,67,79,0
2,67,0,24
2,69,79,0
2,69,0,24
2,71,79,0
2,71,0,24
2,72,79,0
2,72,0,24
2,74,79,0
2,74,0,24
2,69,79,5040
2,69,0,24
2,71,79,0
2,71,0,24
2,72,79,0
2,72,0,24
2,74,79,0
2,74,0,24
2,76,79,0
2,76,0,24
2,79,79,0
2,79,0,24
2,62,79,0
2,62,0,24
2,64,79,0
2,64,0,24
2,66,79,0
2,66,0,24
2,67,79,0
2,67,0,24
2,69,79,0
2,69,0,24
2,71,79,0
2,71,0,24
2,72,79,0
2,72,0,24
2,74,79,0
2,74,0,24
2,69,79,5040
2,69,0,24
2,71,79,0
2,71,0,24
2,72,79,0
2,72,0,24
2,74,79,0
2,74,0,24
2,76,79,0
2,76,0,24
2,79,79,0
2,79,0,24
2,62,79,0
2,62,0,24
2,64,79,0
2,64,0,24
2,66,79,0
2,66,0,24
2,67,79,0
2,67,0,24
2,69,79,0
2,69,0,24
2,71,79,0
2,71,0,24
2,72,79,0
2,72,0,24
2,74,79,0
2,74,0,24
2,77,79,0
2,72,79,0
2,69,79,0
2,81,79,0
2,69,0,180
2,72,0,0
2,77,0,0
2,81,0,0
2,77,79,0
2,72,79,0
2,69,79,0
2,81,79,0
2,69,0,192
2,72,0,0
2,77,0,0
2,81,0,0
2,77,79,0
2,72,79,0
2,69,79,0
2,81,79,0
2,69,0,192
2,72,0,0
2,77,0,0
2,81,0,0
2,77,79,0
2,72,79,0
2,69,79,0
2,81,79,0
2,69,0,192
2,72,0,0
2,77,0,0
2,81,0,0
3,67,79,0
3,62,79,0
3,71,79,0
3,62,0,12
3,67,0,0
3,71,0,0
3,67,79,0
3,62,79,0
3,71,79,0
3,62,0,12
3,67,0,0
3,71,0,0
3,67,79,0
3,62,79,0
3,71,79,0
3,62,0,12
3,67,0,0
3,71,0,0
3,67,79,0
3,62,79,0
3,71,79,0
3,62,0,12
3,67,0,0
3,71,0,0
3,67,79,0
3,62,79,0
3,71,79,0
3,62,0,12
3,67,0,0
3,71,0,0
3,67,79,0
3,62,79,0
3,71,79,0
3,62,0,12
3,67,0,0
3,71,0,0
3,67,79,0
3,62,79,0
3,71,79,0
3,62,0,12
3,67,0,0
3,71,0,0
3,67,79,0
3,62,79,0
3,71,79,0
3,62,0,12
3,67,0,0
3,71,0,0
3,66,79,0
3,62,79,0
3,69,79,0
3,62,0,12
3,66,0,0
3,69,0,0
3,66,79,0
3,62,79,0
3,69,79,0
3,62,0,12
3,66,0,0
3,69,0,0
3,66,79,0
3,62,79,0
3,69,79,0
3,62,0,12
3,66,0,0
3,69,0,0
3,66,79,0
3,62,79,0
3,69,79,0
3,62,0,12
3,66,0,0
3,69,0,0
3,67,79,0
3,62,79,0
3,71,79,0
3,62,0,12
3,67,0,0
3,71,0,0
3,67,79,0
3,62,79,0
3,71,79,0
3,62,0,12
3,67,0,0
3,71,0,0
3,67,79,0
3,62,79,0
3,71,79,0
3,62,0,12
3,67,0,0
3,71,0,0
3,67,79,0
3,62,79,0
3,71,79,0
3,62,0,12
3,67,0,0
3,71,0,0
3,67,79,0
3,64,79,0
3,72,79,0
3,64,0,12
3,67,0,0
3,72,0,0
3,67,79,0
3,64,79,0
3,72,79,0
3,64,0,12
3,67,0,0
3,72,0,0
3,67,79,0
3,64,79,0
3,72,79,0
3,64,0,12
3,67,0,0
3,72,0,0
3,67,79,0
3,64,79,0
3,72,79,0
3,64,0,12
3,67,0,0
3,72,0,0
3,67,79,0
3,64,79,0
3,72,79,0
3,64,0,12
3,67,0,0
3,72,0,0
3,67,79,0
3,64,79,0
3,72,79,0
3,64,0,12
3,67,0,0
3,72,0,0
3,67,79,0
3,64,79,0
3,72,79,0
3,64,0,12
3,67,0,0
3,72,0,0
3,66,79,0
3,62,79,0
3,69,79,0
3,62,0,12
3,66,0,0
3,69,0,0
3,66,79,0
3,62,79,0
3,69,79,0
3,62,0,12
3,66,0,0
3,69,0,0
3,66,79,0
3,62,79,0
3,69,79,0
3,62,0,12
3,66,0,0
3,69,0,0
3,66,79,0
3,62,79,0
3,69,79,0
3,62,0,12
3,66,0,0
3,69,0,0
3,66,79,0
3,62,79,0
3,69,79,0
3,62,0,12
3,66,0,0
3,69,0,0
3,66,79,0
3,62,79,0
3,69,79,0
3,62,0,12
3,66,0,0
3,69,0,0
3,66,79,0
3,62,79,0
3,69,79,0
3,62,0,12
3,66,0,0
3,69,0,0
3,66,79,0
3,62,79,0
3,69,79,0
3,62,0,12
3,66,0,0
3,69,0,0
3,66,79,0
3,62,79,0
3,69,79,0
3,62,0,12
3,66,0,0
3,69,0,0
3,67,79,0
3,62,79,0
3,71,79,0
3,62,0,12
3,67,0,0
3,71,0,0
3,67,79,0
3,62,79,0
3,71,79,0
3,62,0,12
3,67,0,0
3,71,0,0
3,67,79,0
3,62,79,0
3,71,79,0
3,62,0,12
3,67,0,0
3,71,0,0
3,67,79,0
3,62,79,0
3,71,79,0
3,62,0,12
3,67,0,0
3,71,0,0
3,67,79,0
3,62,79,0
3,71,79,0
3,62,0,12
3,67,0,0
3,71,0,0
3,67,79,0
3,62,79,0
3,71,79,0
3,62,0,12
3,67,0,0
3,71,0,0
3,67,79,0
3,62,79,0
3,71,79,0
3,62,0,12
3,67,0,0
3,71,0,0
3,62,79,0
3,66,79,0
3,69,79,0
3,62,0,12
3,66,0,0
3,69,0,0
3,66,79,0
3,62,79,0
3,69,79,0
3,62,0,12
3,66,0,0
3,69,0,0
3,66,79,0
3,62,79,0
3,69,79,0
3,62,0,12
3,66,0,0
3,69,0,0
3,66,79,0
3,62,79,0
3,69,79,0
3,62,0,12
3,66,0,0
3,69,0,0
3,66,79,0
3,62,79,0
3,69,79,0
3,62,0,12
3,66,0,0
3,69,0,0
3,67,79,0
3,62,79,0
3,71,79,0
3,62,0,12
3,67,0,0
3,71,0,0
3,67,79,0
3,62,79,0
3,71,79,0
3,62,0,12
3,67,0,0
3,71,0,0
3,67,79,0
3,62,79,0
3,71,79,0
3,62,0,12
3,67,0,0
3,71,0,0
3,67,79,0
3,62,79,0
3,71,79,0
3,62,0,12
3,67,0,0
3,71,0,0
3,67,79,0
3,64,79,0
3,72,79,0
3,64,0,12
3,67,0,0
3,72,0,0
3,67,79,0
3,64,79,0
3,72,79,0
3,64,0,12
3,67,0,0
3,72,0,0
3,67,79,0
3,64,79,0
3,72,79,0
3,64,0,12
3,67,0,0
3,72,0,0
3,67,79,0
3,64,79,0
3,72,79,0
3,64,0,12
3,67,0,0
3,72,0,0
3,67,79,0
3,64,79,0
3,72,79,0
3,64,0,12
3,67,0,0
3,72,0,0
3,67,79,0
3,64,79,0
3,72,79,0
3,64,0,12
3,67,0,0
3,72,0,0
3,67,79,0
3,64,79,0
3,72,79,0
3,64,0,12
3,67,0,0
3,72,0,0
3,67,79,0
3,64,79,0
3,72,79,0
3,64,0,12
3,67,0,0
3,72,0,0
3,67,79,0
3,64,79,0
3,72,79,0
3,64,0,12
3,67,0,0
3,72,0,0
3,67,79,0
3,64,79,0
3,72,79,0
3,64,0,12
3,67,0,0
3,72,0,0
3,67,79,0
3,64,79,0
3,72,79,0
3,64,0,12
3,67,0,0
3,72,0,0
3,67,79,0
3,64,79,0
3,72,79,0
3,64,0,12
3,67,0,0
3,72,0,0
3,67,79,0
3,64,79,0
3,72,79,0
3,64,0,12
3,67,0,0
3,72,0,0
3,67,79,0
3,64,79,0
3,72,79,0
3,64,0,12
3,67,0,0
3,72,0,0
3,67,79,0
3,64,79,0
3,72,79,0
3,64,0,12
3,67,0,0
3,72,0,0
3,67,79,0
3,64,79,0
3,72,79,0
3,64,0,12
3,67,0,0
3,72,0,0
3,67,79,0
3,62,79,0
3,71,79,0
3,62,0,12
3,67,0,0
3,71,0,0
3,67,79,0
3,62,79,0
3,71,79,0
3,62,0,12
3,67,0,0
3,71,0,0
3,67,79,0
3,62,79,0
3,71,79,0
3,62,0,12
3,67,0,0
3,71,0,0
3,67,79,0
3,62,79,0
3,71,79,0
3,62,0,12
3,67,0,0
3,71,0,0
3,67,79,0
3,62,79,0
3,71,79,0
3,62,0,12
3,67,0,0
3,71,0,0
3,67,79,0
3,62,79,0
3,71,79,0
3,62,0,12
3,67,0,0
3,71,0,0
3,67,79,0
3,62,79,0
3,71,79,0
3,62,0,12
3,67,0,0
3,71,0,0
3,62,79,0
3,66,79,0
3,69,79,0
3,62,0,12
3,66,0,0
3,69,0,0
3,66,79,0
3,62,79,0
3,69,79,0
3,62,0,12
3,66,0,0
3,69,0,0
3,66,79,0
3,62,79,0
3,69,79,0
3,62,0,12
3,66,0,0
3,69,0,0
3,66,79,0
3,62,79,0
3,69,79,0
3,62,0,12
3,66,0,0
3,69,0,0
3,66,79,0
3,62,79,0
3,69,79,0
3,62,0,12
3,66,0,0
3,69,0,0
3,67,79,0
3,62,79,0
3,71,79,0
3,62,0,12
3,67,0,0
3,71,0,0
3,67,79,0
3,62,79,0
3,71,79,0
3,62,0,12
3,67,0,0
3,71,0,0
3,67,79,0
3,62,79,0
3,71,79,0
3,62,0,12
3,67,0,0
3,71,0,0
3,67,79,0
3,62,79,0
3,71,79,0
3,62,0,12
3,67,0,0
3,71,0,0
3,67,79,0
3,64,79,0
3,72,79,0
3,64,0,12
3,67,0,0
3,72,0,0
3,67,79,0
3,64,79,0
3,72,79,0
3,64,0,12
3,67,0,0
3,72,0,0
3,67,79,0
3,64,79,0
3,72,79,0
3,64,0,12
3,67,0,0
3,72,0,0
3,67,79,0
3,64,79,0
3,72,79,0
3,64,0,12
3,67,0,0
3,72,0,0
3,67,79,0
3,64,79,0
3,72,79,0
3,64,0,12
3,67,0,0
3,72,0,0
3,67,79,0
3,64,79,0
3,72,79,0
3,64,0,12
3,67,0,0
3,72,0,0
3,67,79,0
3,64,79,0
3,72,79,0
3,64,0,12
3,67,0,0
3,72,0,0
3,66,79,0
3,62,79,0
3,69,79,0
3,62,0,12
3,66,0,0
3,69,0,0
3,66,79,0
3,62,79,0
3,69,79,0
3,62,0,12
3,66,0,0
3,69,0,0
3,66,79,0
3,62,79,0
3,69,79,0
3,62,0,12
3,66,0,0
3,69,0,0
3,66,79,0
3,62,79,0
3,69,79,0
3,62,0,12
3,66,0,0
3,69,0,0
3,66,79,0
3,62,79,0
3,69,79,0
3,62,0,12
3,66,0,0
3,69,0,0
3,66,79,0
3,62,79,0
3,69,79,0
3,62,0,12
3,66,0,0
3,69,0,0
3,66,79,0
3,62,79,0
3,69,79,0
3,62,0,12
3,66,0,0
3,69,0,0
3,66,79,0
3,62,79,0
3,69,79,0
3,62,0,12
3,66,0,0
3,69,0,0
3,66,79,0
3,62,79,0
3,69,79,0
3,62,0,12
3,66,0,0
3,69,0,0
3,67,79,0
3,62,79,0
3,71,79,0
3,62,0,12
3,67,0,0
3,71,0,0
3,67,79,0
3,62,79,0
3,71,79,0
3,62,0,12
3,67,0,0
3,71,0,0
3,67,79,0
3,62,79,0
3,71,79,0
3,62,0,12
3,67,0,0
3,71,0,0
3,67,79,0
3,62,79,0
3,71,79,0
3,62,0,12
3,67,0,0
3,71,0,0
3,67,79,0
3,62,79,0
3,71,79,0
3,62,0,12
3,67,0,0
3,71,0,0
3,67,79,0
3,62,79,0
3,71,79,0
3,62,0,12
3,67,0,0
3,71,0,0
3,67,79,0
3,62,79,0
3,71,79,0
3,62,0,12
3,67,0,0
3,71,0,0
3,66,79,0
3,62,79,0
3,69,79,0
3,62,0,12
3,66,0,0
3,69,0,0
3,66,79,0
3,62,79,0
3,69,79,0
3,62,0,12
3,66,0,0
3,69,0,0
3,66,79,0
3,62,79,0
3,69,79,0
3,62,0,12
3,66,0,0
3,69,0,0
3,66,79,0
3,62,79,0
3,69,79,0
3,62,0,12
3,66,0,0
3,69,0,0
3,66,79,0
3,62,79,0
3,69,79,0
3,62,0,12
3,66,0,0
3,69,0,0
3,67,79,0
3,62,79,0
3,71,79,0
3,62,0,12
3,67,0,0
3,71,0,0
3,67,79,0
3,62,79,0
3,71,79,0
3,62,0,12
3,67,0,0
3,71,0,0
3,67,79,0
3,62,79,0
3,71,79,0
3,62,0,12
3,67,0,0
3,71,0,0
3,67,79,0
3,62,79,0
3,71,79,0
3,62,0,12
3,67,0,0
3,71,0,0
3,67,79,0
3,64,79,0
3,72,79,0
3,64,0,12
