track,note,velocity,time
7,60,109,480
7,61,106,126
7,60,0,2
7,60,106,57
7,61,0,6
7,60,0,172
7,61,107,7
7,60,101,61
7,61,0,4
7,58,100,168
7,60,0,12
7,56,98,113
7,58,0,3
7,54,101,109
7,56,0,15
7,56,105,48
7,54,0,7
7,54,111,180
7,56,0,1
7,56,101,52
7,54,0,5
7,56,0,107
7,56,97,312
7,58,107,57
7,56,0,4
7,60,108,57
7,58,0,5
7,61,97,121
7,60,0,7
7,60,106,49
7,61,0,8
7,61,97,170
7,60,0,10
7,60,107,48
7,61,0,8
7,61,100,173
7,60,0,11
7,63,100,56
7,61,0,4
7,65,93,171
7,63,0,2
7,66,86,59
7,65,0,8
7,66,0,161
7,65,91,1087
7,66,93,56
7,65,0,5
7,65,95,59
7,66,0,3
7,65,0,50
7,63,109,1
7,63,0,41
7,63,101,23
7,61,95,67
7,63,0,6
7,61,0,73
7,61,94,34
7,61,0,173
7,56,106,313
7,65,94,55
7,56,0,13
7,65,0,50
7,66,94,1
7,66,0,55
7,65,94,2
7,65,0,62
7,63,94,3
7,63,0,35
7,63,94,22
7,63,0,66
7,61,94,1
7,61,0,89
7,61,94,25
7,65,101,184
7,61,0,1
7,65,0,54
7,61,102,6
7,61,0,238
7,65,98,395
7,63,91,61
7,65,0,10
7,63,0,48
7,61,91,2
7,61,0,74
7,60,109,288
7,61,108,59
7,60,0,3
7,61,0,85
7,60,111,85
7,61,111,114
7,60,0,8
7,61,0,55
7,60,103,0
7,58,103,188
7,60,0,2
7,58,0,68
7,56,107,49
7,56,0,123
7,54,94,1
7,54,0,73
7,56,107,41
7,54,90,127
7,56,0,5
7,56,109,54
7,54,0,7
7,56,0,122
7,56,99,289
7,56,0,58
7,58,102,0
7,58,0,60
7,60,103,2
7,60,0,60
7,61,103,0
7,60,106,182
7,61,0,6
7,60,0,102
7,61,101,6
7,60,103,61
7,61,0,7
7,61,107,170
7,60,0,4
7,61,0,63
7,63,92,63
7,65,95,62
7,63,0,2
7,66,95,110
7,65,0,10
7,66,0,179
7,70,95,471
7,68,87,55
7,70,0,4
7,66,79,176
7,68,0,1
7,66,0,35
7,65,86,330
7,66,97,58
7,65,0,2
7,65,98,55
7,66,0,7
7,65,0,45
7,63,99,5
7,63,0,37
7,63,99,23
7,61,99,63
7,63,0,7
7,61,0,79
7,61,96,41
7,61,0,144
7,56,97,335
7,65,97,52
7,56,0,6
7,66,97,55
7,65,0,2
7,66,0,56
7,65,97,0
7,63,97,62
7,65,0,5
7,63,0,30
7,63,97,31
7,61,96,64
7,63,0,1
7,61,0,49
7,61,96,66
7,61,0,114
7,65,96,60
7,63,95,56
7,65,0,5
7,63,0,537
7,61,100,372
7,61,0,28
7,61,100,32
7,61,0,55
7,56,101,480
7,60,102,52
7,56,0,3
7,60,0,61
7,63,109,3
7,63,0,57
7,68,99,1
7,68,0,75
7,66,97,50
7,66,0,78
7,64,96,32
7,63,101,166
7,64,0,5
7,61,87,19
7,63,0,3
7,61,0,61
7,54,99,298
7,54,0,56
7,57,104,2
7,57,0,58
7,61,103,0
7,64,96,57
7,61,0,6
7,66,103,5
7,64,0,9
7,66,0,93
7,64,102,75
7,63,99,57
7,64,0,1
7,61,110,150
7,63,0,1
7,59,83,20
7,61,0,1
7,59,0,55
7,56,102,310
7,59,105,57
7,56,0,3
7,63,102,64
7,59,0,6
7,66,95,17
7,63,0,9
7,66,0,23
7,64,106,1
7,63,108,128
7,64,0,2
7,63,0,57
7,61,111,117
7,61,0,58
7,59,111,120
7,59,0,58
7,57,109,121
7,57,0,275
7,61,108,206
7,61,0,58
7,59,102,4
7,59,0,195
7,56,93,164
7,64,100,115
7,56,0,3
7,64,0,241
7,63,97,116
7,61,94,121
7,63,0,1
7,61,0,406
7,63,91,437
7,60,91,115
7,63,0,5
7,60,0,429
7,60,98,2683
7,61,93,126
7,60,0,2
7,60,102,57
7,61,0,6
7,60,0,177
7,61,95,2
7,60,101,61
7,61,0,4
7,58,100,168
7,60,0,8
7,58,0,117
7,56,98,0
7,54,87,112
7,56,0,11
7,56,105,52
7,54,0,7
7,54,80,180
7,56,0,1
7,54,0,50
7,56,101,2
7,56,0,112
7,56,97,312
7,58,103,57
7,56,0,1
7,58,0,60
7,60,95,0
7,60,0,126
7,61,97,0
7,60,106,56
7,61,0,1
7,61,97,177
7,60,0,3
7,60,107,55
7,61,0,8
7,61,109,173
7,60,0,1
7,63,100,61
7,61,0,5
7,65,90,175
7,63,0,2
7,66,83,59
7,65,0,8
7,66,0,161
7,65,84,1087
7,66,94,56
7,65,0,5
7,65,94,59
7,66,0,3
7,63,94,51
7,65,0,8
7,63,0,19
7,63,94,37
7,61,95,61
7,63,0,12
7,61,0,67
7,61,95,45
7,61,0,135
7,56,100,348
7,65,100,53
7,56,0,9
7,66,100,55
7,65,0,5
7,65,100,52
7,66,0,2
7,63,99,63
7,65,0,3
7,63,0,32
7,63,99,22
7,61,99,67
7,63,0,9
7,61,0,80
7,61,99,25
7,61,0,112
7,65,98,72
7,65,0,51
7,61,98,10
7,61,0,238
7,65,98,395
7,63,91,61
7,65,0,10
7,63,0,48
7,61,80,2
7,61,0,74
7,60,93,288
7,61,108,59
7,60,0,3
7,61,0,57
7,60,111,113
7,61,111,114
7,60,0,8
7,61,0,55
7,60,104,0
7,58,110,188
7,60,0,5
7,58,0,54
7,56,107,60
7,56,0,123
7,54,93,1
7,54,0,52
7,56,107,62
7,54,93,127
7,56,0,5
7,56,109,54
7,54,0,7
7,56,0,99
7,56,99,312
7,58,102,58
7,56,0,3
7,58,0,57
7,60,115,2
7,60,0,60
7,61,103,0
7,60,106,182
7,61,0,2
7,61,101,112
7,60,0,5
7,60,103,56
7,61,0,7
7,61,107,170
7,60,0,4
7,61,0,63
7,63,94,63
7,65,95,62
7,63,0,2
7,66,92,110
7,65,0,6
7,66,0,183
7,70,88,471
7,70,0,53
7,68,101,2
7,66,82,180
7,68,0,8
7,66,0,28
7,65,96,330
7,66,99,58
7,65,0,2
7,65,99,55
7,66,0,1
7,65,0,51
7,63,94,5
7,63,0,30
7,63,101,30
7,63,0,65
7,61,101,1
7,61,0,86
7,61,93,38
7,61,0,144
7,56,100,334
7,56,0,59
7,65,100,1
7,66,100,59
7,65,0,6
7,66,0,55
7,65,100,2
7,63,100,57
7,65,0,3
7,63,0,32
7,63,101,26
7,61,101,64
7,63,0,1
7,61,0,49
7,61,101,66
7,61,0,114
7,65,91,60
7,63,89,56
7,65,0,5
7,63,0,537
7,61,102,372
7,61,0,28
7,61,100,32
7,61,0,55
7,56,111,480
7,60,111,52
7,56,0,3
7,63,109,64
7,60,0,4
7,63,0,53
7,68,100,1
7,68,0,75
7,66,99,50
7,66,0,78
7,64,92,32
7,63,97,166
7,64,0,5
7,61,92,19
7,63,0,3
7,61,0,61
7,54,99,298
7,54,0,56
7,57,104,2
7,61,112,58
7,57,0,6
7,61,0,54
7,66,94,6
7,66,0,78
7,64,102,101
7,63,99,63
7,64,0,2
7,61,82,138
7,63,0,5
7,59,88,11
7,61,0,6
7,59,0,56
7,56,102,314
7,56,0,57
7,59,105,0
7,63,102,67
7,59,0,6
7,63,0,53
7,66,95,0
7,64,106,27
7,66,0,5
7,64,0,118
7,63,110,28
7,63,0,59
7,61,111,64
7,61,0,58
7,59,106,120
7,59,0,78
7,57,95,101
7,57,0,275
7,61,108,206
7,61,0,58
7,59,102,4
7,59,0,195
7,56,93,164
7,64,100,115
7,56,0,3
7,64,0,241
7,63,97,116
7,61,94,121
7,63,0,1
7,61,0,406
7,63,90,437
7,60,79,115
7,63,0,2
7,60,0,432
7,60,95,9412
7,61,108,59
7,60,0,3
7,61,0,57
7,60,111,113
7,61,101,114
7,60,0,8
7,60,102,55
7,61,0,3
7,58,110,185
7,60,0,5
7,58,0,47
7,56,107,67
7,54,90,124
7,56,0,2
7,54,0,47
7,56,107,65
7,54,89,127
7,56,0,1
7,56,109,58
7,54,0,7
7,56,0,122
7,56,99,349
7,58,102,25
7,56,0,6
7,60,115,29
7,58,0,1
7,60,0,59
7,61,103,0
7,61,0,181
7,60,106,1
7,61,101,114
7,60,0,5
7,60,103,56
7,61,0,7
7,61,107,170
7,60,0,4
7,61,0,63
7,63,101,63
7,65,97,62
7,63,0,2
7,66,94,110
7,65,0,3
7,66,0,186
7,68,66,461
7,70,94,10
7,68,0,3
7,68,80,52
7,70,0,5
7,66,92,175
7,68,0,1
7,66,0,57
7,65,101,308
7,66,94,58
7,65,0,2
7,65,101,55
7,66,0,1
7,65,0,51
7,63,88,5
7,63,0,30
7,63,101,30
7,63,0,65
7,61,100,1
7,61,0,57
7,61,98,74
7,61,0,144
7,56,100,329
7,65,92,58
7,56,0,2
7,66,99,57
7,65,0,4
7,65,99,58
7,66,0,6
7,63,90,52
7,65,0,3
7,63,0,32
7,63,99,26
7,61,100,64
7,63,0,1
7,61,0,49
7,61,100,66
7,61,0,114
7,65,90,60
7,63,95,56
7,65,0,5
7,63,0,537
7,61,98,372
7,61,0,28
7,61,98,32
7,61,0,55
7,56,111,480
7,60,111,52
7,56,0,3
7,60,0,61
7,63,109,3
7,63,0,57
7,68,98,1
7,68,0,56
7,66,97,69
7,66,0,78
7,64,99,32
7,63,101,166
7,64,0,12
7,61,91,12
7,63,0,3
7,61,0,68
7,54,87,291
7,54,0,56
7,57,104,2
7,57,0,58
7,61,96,0
7,64,101,57
7,61,0,3
7,66,89,5
7,64,0,12
7,66,0,46
7,64,102,122
7,63,99,63
7,64,0,5
7,63,0,133
7,61,110,1
7,59,89,17
7,61,0,6
7,59,0,63
7,56,102,307
7,59,105,57
7,56,0,3
7,63,102,64
7,59,0,6
7,63,0,44
7,66,95,2
7,64,106,31
7,66,0,1
7,63,107,145
7,64,0,3
7,63,0,56
7,61,111,72
7,61,0,58
7,59,103,120
7,59,0,58
7,57,98,121
7,57,0,275
7,61,108,206
7,61,0,58
7,59,102,4
7,59,0,195
7,56,93,164
7,64,100,115
7,56,0,3
7,64,0,241
7,63,97,116
7,61,105,121
7,63,0,1
7,61,0,406
7,63,98,437
7,60,90,115
7,60,90,0
7,63,0,8
7,60,0,426
7,60,0,0
8,53,58,554
8,62,52,0
8,59,56,0
8,56,59,0
8,44,58,0
8,56,0,441
8,62,0,2
8,53,0,3
8,59,0,0
8,44,0,130
8,53,79,24
8,65,61,2
8,56,79,1
8,60,76,0
8,65,0,46
8,56,0,2
8,53,0,3
8,60,0,1
8,65,55,58
8,53,61,2
8,60,68,1
8,56,75,2
8,56,0,186
8,60,0,1
8,65,0,1
8,53,0,1
8,49,73,53
8,53,68,0
8,58,49,0
8,60,41,0
8,60,0,82
8,58,0,3
8,49,0,1
8,53,0,2
8,60,48,32
8,49,58,0
8,58,53,0
8,53,49,0
8,49,0,12
8,53,0,1
8,58,0,2
8,60,0,9
8,60,68,36
8,53,58,0
8,49,68,0
8,58,56,0
8,58,0,14
8,49,0,3
8,53,0,4
8,60,0,9
8,58,59,90
8,49,59,0
8,53,59,0
8,60,59,0
8,53,0,126
8,49,0,0
8,58,0,7
8,60,0,0
8,49,73,47
8,53,68,0
8,58,49,0
8,60,41,0
8,60,0,82
8,58,0,3
8,49,0,1
8,53,0,2
8,60,48,32
8,49,58,0
8,58,53,0
8,53,49,0
8,49,0,12
8,53,0,1
8,58,0,2
8,60,0,9
8,60,68,36
8,53,58,0
8,49,68,0
8,58,56,0
8,58,0,14
8,49,0,3
8,53,0,4
8,60,0,9
8,49,57,90
8,53,57,0
8,60,57,0
8,58,57,0
8,53,0,126
8,49,0,0
8,60,0,7
8,58,0,0
8,49,73,47
8,53,68,0
8,58,49,0
8,60,41,0
8,60,0,82
8,58,0,3
8,49,0,1
8,53,0,2
8,60,48,32
8,49,58,0
8,58,53,0
8,53,49,0
8,49,0,12
8,53,0,1
8,58,0,2
8,60,0,9
8,60,68,36
8,53,58,0
8,49,68,0
8,58,56,0
8,58,0,14
8,49,0,3
8,53,0,4
8,60,0,9
8,49,58,90
8,53,58,0
8,60,58,0
8,58,58,0
8,53,0,126
8,49,0,0
8,60,0,7
8,58,0,0
8,49,73,47
8,53,68,0
8,58,49,0
8,60,41,0
8,60,0,82
8,58,0,3
8,49,0,1
8,53,0,2
8,60,48,32
8,49,58,0
8,58,53,0
8,53,49,0
8,49,0,12
8,53,0,1
8,58,0,2
8,60,0,9
8,60,68,36
8,53,58,0
8,49,68,0
8,58,56,0
8,58,0,14
8,49,0,3
8,53,0,4
8,60,0,9
8,49,56,90
8,53,56,0
8,60,56,0
8,58,56,0
8,53,0,126
8,49,0,0
8,60,0,7
8,58,0,0
8,49,73,47
8,53,68,0
8,58,49,0
8,60,41,0
8,60,0,82
8,58,0,3
8,49,0,1
8,53,0,2
8,60,48,32
8,49,58,0
8,58,53,0
8,53,49,0
8,49,0,12
8,53,0,1
8,58,0,2
8,60,0,9
8,60,68,36
8,53,58,0
8,49,68,0
8,58,56,0
8,58,0,14
8,49,0,3
8,53,0,4
8,60,0,9
8,49,58,90
8,53,58,0
8,60,58,0
8,58,58,0
8,53,0,126
8,49,0,0
8,60,0,7
8,58,0,0
8,49,73,47
8,53,68,0
8,58,49,0
8,60,41,0
8,60,0,82
8,58,0,3
8,49,0,1
8,53,0,2
8,60,48,32
8,49,58,0
8,58,53,0
8,53,49,0
8,49,0,12
8,53,0,1
8,58,0,2
8,60,0,9
8,60,68,36
8,53,58,0
8,49,68,0
8,58,56,0
8,58,0,14
8,49,0,3
8,53,0,4
8,60,0,9
8,49,56,90
8,53,56,0
8,60,56,0
8,58,56,0
8,53,0,126
8,49,0,0
8,60,0,7
8,58,0,0
8,58,61,47
8,54,49,0
8,49,55,0
8,49,0,84
8,54,0,4
8,58,0,1
8,58,54,31
8,54,42,0
8,49,53,0
8,49,0,23
8,54,0,3
8,58,0,3
8,58,63,31
8,54,63,0
8,49,63,0
8,49,0,13
8,54,0,5
8,58,0,9
8,54,50,93
8,58,53,0
8,49,51,0
8,49,0,133
8,54,0,17
8,58,0,7
8,49,53,23
8,58,59,0
8,54,51,0
8,54,0,90
8,49,0,0
8,58,0,4
8,58,56,26
8,54,40,0
8,49,46,0
8,49,0,19
8,54,0,6
8,58,0,6
8,58,64,29
8,49,64,0
8,54,64,0
8,49,0,12
8,54,0,1
8,58,0,2
8,58,49,45
8,49,49,0
8,54,49,0
8,54,0,76
8,49,0,11
8,58,0,1
8,58,56,32
8,54,56,0
8,49,56,0
8,58,0,86
8,49,0,1
8,54,0,0
8,49,73,33
8,53,68,0
8,58,49,0
8,60,41,0
8,60,0,82
8,58,0,3
8,49,0,1
8,53,0,2
8,60,48,32
8,49,58,0
8,58,53,0
8,53,49,0
8,49,0,12
8,53,0,1
8,58,0,2
8,60,0,9
8,60,68,36
8,53,58,0
8,49,68,0
8,58,56,0
8,58,0,14
8,49,0,3
8,53,0,4
8,60,0,9
8,49,58,90
8,53,58,0
8,60,58,0
8,58,58,0
8,53,0,126
8,49,0,0
8,60,0,7
8,58,0,0
8,49,73,47
8,53,68,0
8,58,49,0
8,60,41,0
8,60,0,82
8,58,0,3
8,49,0,1
8,53,0,2
8,60,48,32
8,49,58,0
8,58,53,0
8,53,49,0
8,49,0,12
8,53,0,1
8,58,0,2
8,60,0,9
8,60,68,36
8,53,58,0
8,49,68,0
8,58,56,0
8,58,0,14
8,49,0,3
8,53,0,4
8,60,0,9
8,49,56,90
8,53,56,0
8,60,56,0
8,58,56,0
8,53,0,126
8,49,0,0
8,60,0,7
8,58,0,0
8,63,48,47
8,54,57,0
8,59,58,0
8,51,49,0
8,51,0,66
8,54,0,2
8,63,0,9
8,59,0,4
8,63,54,39
8,59,47,0
8,54,59,0
8,51,53,0
8,51,0,18
8,54,0,3
8,59,0,9
8,63,0,8
8,59,45,22
8,63,43,0
8,54,45,0
8,51,54,0
8,51,0,15
8,54,0,4
8,59,0,11
8,63,0,5
8,63,51,25
8,59,48,0
