track,note,velocity,time
3,63,110,760
3,62,95,384
3,63,0,20
3,63,113,172
3,62,0,23
3,60,112,169
3,63,0,8
3,60,0,295
3,62,120,81
3,60,98,96
3,62,0,4
3,60,0,24
3,62,120,68
3,60,98,96
3,62,0,2
3,60,0,27
3,58,116,67
3,58,0,300
3,62,106,84
3,62,0,188
3,63,113,4
3,63,0,184
3,60,106,8
3,60,0,300
3,62,120,84
3,60,95,96
3,62,0,5
3,60,0,23
3,62,120,68
3,60,98,96
3,62,0,5
3,60,0,24
3,51,127,67
3,51,0,165
3,55,104,27
3,55,0,146
3,58,113,46
3,58,0,141
3,62,104,51
3,62,0,133
3,62,110,59
3,62,0,93
3,63,113,3
3,63,0,90
3,60,106,6
3,58,104,96
3,60,0,5
3,58,0,15
3,58,113,76
3,58,0,269
3,51,119,115
3,51,0,172
3,55,98,20
3,55,0,159
3,58,113,33
3,58,0,159
3,62,104,33
3,62,0,135
3,62,114,57
3,63,99,96
3,62,0,5
3,63,0,87
3,60,106,4
3,58,97,96
3,60,0,12
3,58,0,24
3,58,113,60
3,58,0,389
3,55,104,91
3,59,102,96
3,55,0,12
3,59,0,67
3,62,106,17
3,62,0,45
3,65,102,51
3,65,0,175
3,63,101,17
3,63,0,180
3,58,107,108
3,62,95,96
3,58,0,4
3,62,0,86
3,65,85,6
3,65,0,90
3,68,84,6
3,68,0,77
3,67,86,19
3,67,0,69
3,63,107,27
3,61,101,96
3,63,0,2
3,61,0,85
3,56,104,105
3,56,0,93
3,60,90,3
3,63,85,96
3,60,0,2
3,63,0,61
3,67,91,33
3,67,0,85
3,68,91,11
3,68,0,64
3,65,104,32
3,65,0,88
3,63,104,8
3,63,0,42
3,65,110,54
3,63,116,288
3,65,0,8
3,63,0,37
3,63,123,51
3,63,0,255
3,51,116,129
3,51,0,156
3,55,104,36
3,55,0,156
3,58,116,36
3,58,0,149
3,62,102,43
3,62,0,130
3,62,108,62
3,62,0,93
3,63,95,3
3,63,0,85
3,60,100,11
3,58,97,96
3,60,0,2
3,58,0,21
3,58,101,73
3,58,0,269
3,51,116,115
3,51,0,159
3,55,97,33
3,55,0,162
3,58,107,30
3,58,0,135
3,62,102,57
3,62,0,132
3,62,104,60
3,62,0,92
3,63,110,4
3,63,0,85
3,60,100,11
3,58,104,96
3,60,0,5
3,58,0,27
3,58,113,64
3,58,0,378
3,55,104,102
3,59,98,96
3,55,0,15
3,62,102,81
3,59,0,4
3,62,0,36
3,65,108,56
3,65,0,189
3,63,104,3
3,63,0,143
3,58,116,49
3,58,0,55
3,58,110,41
3,58,0,84
3,62,95,12
3,62,0,82
3,65,90,14
3,65,0,40
3,68,89,56
3,68,0,58
3,67,98,38
3,67,0,56
3,63,113,40
3,63,0,92
3,61,101,4
3,61,0,85
3,56,110,107
3,56,0,90
3,60,92,6
3,63,82,96
3,60,0,2
3,63,0,50
3,67,100,44
3,67,0,80
3,68,95,16
3,68,0,56
3,65,110,40
3,65,0,85
3,63,104,11
3,63,0,47
3,65,110,49
3,63,107,288
3,65,0,12
3,63,0,32
3,63,123,52
3,63,0,336
3,63,113,48
3,63,0,364
3,62,102,20
3,63,119,192
3,62,0,18
3,60,108,174
3,63,0,7
3,60,0,289
3,62,120,88
3,60,92,96
3,62,0,5
3,60,0,29
3,62,120,62
3,60,95,96
3,62,0,5
3,60,0,34
3,58,116,57
3,58,0,268
3,62,98,116
3,63,107,192
3,62,0,7
3,60,98,185
3,63,0,8
3,60,0,284
3,62,120,92
3,62,0,92
3,60,97,4
3,60,0,28
3,62,114,68
3,62,0,88
3,60,95,8
3,60,0,13
3,51,127,83
3,51,0,156
3,55,100,36
3,55,0,159
3,58,110,33
3,58,0,133
3,62,106,59
3,62,0,128
3,62,112,64
3,62,0,90
3,63,104,6
3,63,0,88
3,60,100,8
3,58,97,96
3,60,0,12
3,58,0,20
3,58,110,64
3,58,0,277
3,51,119,107
3,51,0,151
3,55,90,41
3,55,0,156
3,58,116,36
3,58,0,151
3,62,100,41
3,62,0,132
3,62,104,60
3,63,113,96
3,62,0,4
3,63,0,84
3,60,102,8
3,58,91,96
3,60,0,12
3,58,0,25
3,58,116,59
3,58,0,389
3,55,110,91
3,59,104,96
3,55,0,13
3,59,0,64
3,62,108,19
3,62,0,45
3,65,102,51
3,65,0,173
3,63,104,19
3,63,0,178
3,58,107,110
3,58,0,96
3,62,97,0
3,62,0,90
3,65,88,6
3,65,0,87
3,68,91,9
3,68,0,74
3,67,97,22
3,67,0,53
3,63,104,43
3,63,0,84
3,61,104,12
3,61,0,74
3,56,113,118
3,56,0,90
3,60,92,6
3,60,0,90
3,63,82,6
3,63,0,52
3,67,92,44
3,67,0,77
3,68,87,19
3,68,0,53
3,65,112,43
3,65,0,87
3,63,99,9
3,63,0,31
3,65,117,65
3,63,113,288
3,65,0,5
3,63,0,43
3,63,113,48
3,63,0,248
3,62,110,136
3,62,0,162
3,62,112,30
3,62,0,167
3,62,122,25
3,62,0,176
3,62,117,16
3,62,0,124
3,62,112,68
3,62,0,159
3,60,100,33
3,60,0,76
3,58,104,20
3,58,0,47
3,60,98,49
3,60,0,258
3,50,90,30
3,50,0,48
3,62,106,48
3,60,97,192
3,62,0,2
3,60,0,30
3,58,113,64
3,58,0,31
3,60,112,65
3,60,0,196
3,50,106,92
3,50,0,60
3,60,104,36
3,60,0,176
3,58,101,16
3,58,0,71
3,57,102,25
3,57,0,85
3,55,102,11
3,55,0,284
3,62,114,100
3,62,0,154
3,62,108,38
3,62,0,149
3,62,112,43
3,62,0,159
3,62,108,33
3,62,0,135
3,62,117,57
3,60,102,192
3,62,0,18
3,60,0,46
3,58,110,32
3,58,0,64
3,60,112,32
3,60,0,210
3,50,106,78
3,50,0,64
3,62,102,32
3,62,0,162
3,60,106,30
3,60,0,42
3,58,107,54
3,58,0,32
3,60,108,64
3,60,0,130
3,53,110,62
3,53,0,26
3,53,102,70
3,53,0,32
3,60,112,64
3,60,0,160
3,58,116,32
3,58,0,24
3,56,116,72
3,56,0,26
3,55,112,70
3,55,0,148
3,53,104,44
3,53,0,98
3,51,123,94
3,51,0,154
3,55,100,38
3,55,0,140
3,58,97,52
3,63,49,48
3,63,0,12
3,58,0,64
3,62,100,68
3,62,0,116
3,62,100,76
3,62,0,60
3,63,93,36
3,63,0,77
3,60,106,19
3,60,0,85
3,58,74,11
3,58,0,60
3,58,99,36
3,58,0,261
3,51,116,123
3,51,0,162
3,55,94,30
3,55,0,157
3,58,110,35
3,58,0,143
3,62,102,49
3,62,0,112
3,62,106,80
3,62,0,82
3,63,99,14
3,63,0,79
3,60,85,17
3,60,0,50
3,58,85,46
3,58,0,18
3,58,116,78
3,58,0,391
3,55,106,89
3,55,0,88
3,59,104,8
3,59,0,64
3,62,110,32
3,62,0,42
3,65,104,54
3,65,0,162
3,63,127,30
3,63,0,149
3,58,116,43
3,58,0,61
3,58,110,35
3,58,0,72
3,62,100,24
3,62,0,74
3,65,90,22
3,65,0,60
3,68,84,36
3,68,0,64
3,67,98,32
3,67,0,55
3,63,113,41
3,63,0,68
3,61,101,28
3,61,0,76
3,56,110,116
3,56,0,76
3,60,94,20
3,60,0,84
3,63,87,12
3,63,0,42
3,67,91,54
3,67,0,79
3,68,82,17
3,68,0,93
3,65,110,3
3,65,0,82
3,63,101,14
3,63,0,31
3,65,117,65
3,65,0,242
3,63,119,46
3,63,0,34
3,63,123,62
3,63,0,301
3,62,125,83
3,62,0,149
3,62,114,43
3,62,0,149
3,62,122,43
3,62,0,141
3,62,122,51
3,62,0,144
3,62,120,48
3,62,0,175
3,60,92,17
3,60,0,79
3,58,101,17
3,58,0,61
3,60,106,35
3,60,0,178
3,50,117,110
3,50,0,52
3,62,110,44
3,62,0,165
3,60,106,27
3,60,0,53
3,58,101,43
3,58,0,16
3,60,110,80
3,60,0,197
3,50,112,91
3,50,0,64
3,60,106,32
3,60,0,165
3,58,110,27
3,58,0,69
3,57,98,27
3,57,0,36
3,55,114,60
3,55,0,260
3,62,114,124
3,62,0,146
3,62,112,46
3,62,0,156
3,62,110,36
3,62,0,154
3,62,110,38
3,62,0,104
3,62,110,88
3,62,0,168
3,60,110,24
3,60,0,60
3,58,113,36
3,58,0,39
3,60,117,57
3,60,0,212
3,50,108,76
3,50,0,52
3,62,108,44
3,62,0,149
3,60,106,43
3,60,0,36
3,58,113,60
3,58,0,13
3,60,117,83
3,60,0,106
3,53,112,86
3,53,0,58
3,53,112,38
3,53,0,58
3,60,112,38
3,60,0,140
3,58,110,52
3,58,0,23
3,56,107,73
3,56,0,18
3,55,114,78
3,55,0,140
3,53,112,52
3,53,0,103
3,51,119,89
3,51,0,144
3,55,100,48
3,55,0,143
3,58,116,49
3,58,0,117
3,62,104,75
3,62,0,116
3,62,108,76
3,62,0,87
3,63,107,9
3,63,0,80
3,60,106,16
3,60,0,95
3,58,101,1
3,58,0,24
3,58,104,72
3,58,0,248
3,51,116,136
3,51,0,132
3,55,95,60
3,55,0,141
3,58,116,51
3,58,0,112
3,62,98,80
3,62,0,112
3,62,104,80
3,62,0,79
3,63,99,17
3,63,0,77
3,60,104,19
3,58,101,96
3,60,0,2
3,58,0,24
3,58,119,70
3,58,0,386
3,55,104,94
3,55,0,60
3,59,102,36
3,59,0,50
3,62,110,46
3,62,0,44
3,65,100,52
3,65,0,175
3,63,110,17
3,63,0,138
3,58,116,54
3,58,0,56
3,58,107,40
3,58,0,50
3,62,100,46
3,62,0,55
3,65,102,41
3,65,0,45
3,68,87,51
3,68,0,53
3,67,104,43
3,67,0,26
3,63,97,70
3,63,0,77
3,61,95,19
3,61,0,64
3,56,110,128
3,56,0,82
3,60,95,14
3,60,0,76
3,63,87,20
3,63,0,24
3,67,88,72
3,67,0,76
3,68,93,20
3,68,0,71
3,65,106,25
3,65,0,71
3,63,113,25
3,63,0,7
3,65,122,89
3,65,0,213
3,63,116,75
3,63,0,12
3,63,127,84
3,63,0,300
3,63,127,84
3,63,0,351
3,62,120,33
3,62,0,117
3,63,116,75
3,63,0,124
3,60,114,68
3,60,0,296
3,62,108,88
3,60,98,96
3,62,0,4
3,60,0,38
3,62,114,54
3,62,0,92
3,60,98,4
3,60,0,40
3,63,123,56
3,63,0,349
3,62,112,35
3,62,0,170
3,63,123,22
3,63,0,156
3,60,112,36
3,60,0,308
3,62,104,76
3,60,95,96
3,62,0,2
3,60,0,32
3,62,114,62
3,62,0,95
3,60,97,1
3,60,0,37
3,63,127,59
3,63,0,316
3,62,120,68
3,62,0,167
3,63,116,25
3,63,0,170
3,60,106,22
3,60,0,306
3,62,112,78
3,60,86,96
3,62,0,4
3,60,0,30
3,62,120,62
3,62,0,93
3,60,106,3
3,60,0,34
3,63,119,62
3,63,0,316
3,62,104,68
3,62,0,143
3,63,113,49
3,63,0,135
3,60,110,57
3,60,0,303
3,62,110,81
3,60,88,96
3,62,0,10
3,60,0,24
3,62,117,62
3,62,0,96
3,60,110,0
3,60,0,40
3,63,119,56
3,63,0,762
4,70,119,764
4,70,0,378
4,70,119,6
4,70,0,180
4,72,100,12
4,72,0,151
4,68,116,41
4,68,0,303
4,70,116,81
4,68,93,96
4,70,0,2
4,68,0,34
4,70,116,60
4,70,0,85
4,68,82,11
4,68,0,21
4,72,102,75
4,72,0,45
4,70,99,3
4,70,0,40
4,67,94,8
4,70,119,48
4,67,0,5
4,70,0,155
4,70,123,80
4,70,0,146
4,72,108,46
4,72,0,127
4,68,116,65
4,68,0,277
4,70,119,107
4,70,0,85
4,68,95,11
4,68,0,23
4,70,113,73
4,70,0,84
4,68,113,12
4,68,0,31
4,63,110,65
4,63,0,272
4,58,95,976
4,70,87,96
4,58,0,5
4,70,0,85
4,67,84,6
4,65,81,48
4,67,0,10
4,67,91,38
4,65,0,5
4,67,0,157
4,65,97,30
4,65,0,122
4,63,107,70
4,63,0,124
4,67,106,68
4,67,0,127
4,65,98,65
4,65,0,485
4,70,110,91
4,70,0,84
4,65,91,12
4,65,0,34
4,67,106,62
4,67,0,301
4,67,112,83
4,67,0,141
4,67,108,51
4,67,0,64
4,72,110,32
4,72,0,47
4,70,119,49
4,70,0,290
4,70,123,94
4,70,0,127
4,67,91,65
4,67,0,36
4,70,116,60
4,70,0,34
4,68,116,62
4,68,0,212
4,67,100,76
4,67,0,31
4,65,104,65
4,65,0,132
4,68,116,60
4,68,0,29
4,68,113,67
4,68,0,26
4,70,116,70
4,70,0,224
4,67,102,64
4,67,0,37
4,67,112,59
4,67,0,300
4,58,89,1332
4,58,0,93
4,70,89,3
4,70,0,80
4,67,84,16
4,65,86,48
4,67,0,2
4,67,90,46
4,65,0,1
4,67,0,191
4,65,91,0
4,65,0,130
4,63,119,62
4,63,0,141
4,67,102,51
4,67,0,127
4,72,94,65
4,72,0,88
4,69,90,8
4,69,0,93
4,65,90,3
4,65,0,50
4,63,107,46
4,63,0,95
4,62,98,1
4,62,0,140
4,70,107,52
4,70,0,72
4,65,91,24
4,65,0,42
4,67,106,54
4,67,0,328
4,67,108,56
4,67,0,132
4,67,100,60
4,67,0,76
4,72,106,20
4,72,0,58
4,70,113,38
4,70,0,280
4,70,107,104
4,70,0,146
4,75,89,46
4,75,0,143
4,72,100,49
4,72,0,221
4,70,113,67
4,70,0,45
4,68,107,51
4,68,0,136
4,68,110,56
4,68,0,24
4,68,107,72
4,68,0,20
4,70,116,76
4,70,0,196
4,67,98,92
4,67,0,29
4,67,110,67
4,67,0,266
4,70,116,118
4,70,0,327
4,70,113,57
4,70,0,144
4,72,106,48
4,72,0,141
4,68,113,51
4,68,0,285
4,70,113,99
4,70,0,88
4,68,81,8
4,68,0,16
4,70,101,80
4,70,0,82
4,68,79,14
4,68,0,18
4,72,108,78
4,72,0,45
4,70,107,3
4,70,0,42
4,67,88,6
4,70,110,48
4,67,0,8
4,70,0,164
4,70,123,68
4,70,0,140
4,72,104,52
4,72,0,130
4,68,113,62
4,68,0,287
4,70,116,97
4,70,0,87
4,68,89,9
4,68,0,16
4,70,110,80
4,70,0,84
4,68,99,12
4,68,0,21
4,63,113,75
4,63,0,199
4,58,99,1049
4,70,87,96
4,58,0,8
4,70,0,82
4,67,83,6
4,65,84,48
4,67,0,16
4,67,87,32
4,65,0,12
4,67,0,180
4,65,92,0
4,65,0,178
4,63,101,14
4,63,0,189
4,67,84,3
4,67,0,178
4,65,90,14
4,65,0,439
4,70,107,137
4,70,0,95
4,65,95,1
4,67,102,96
4,65,0,21
4,67,0,298
4,67,104,65
4,67,0,133
4,67,102,59
4,67,0,84
4,72,106,12
4,72,0,48
4,70,116,48
4,70,0,319
4,70,123,65
4,70,0,136
4,67,94,56
4,67,0,56
4,70,113,40
4,70,0,36
4,68,113,60
4,68,0,236
4,67,98,52
4,67,0,48
4,65,97,48
4,65,0,143
4,68,110,49
4,68,0,34
4,68,113,62
4,68,0,29
4,70,110,67
4,70,0,231
4,67,100,57
4,67,0,42
4,67,108,54
4,67,0,327
4,67,95,6201
4,67,0,1
4,65,106,191
4,65,0,132
4,63,113,60
4,63,0,112
4,62,100,80
4,62,0,117
4,60,108,75
4,60,0,271
4,58,110,113
4,58,0,31
4,58,104,65
4,58,0,56
4,70,93,40
4,70,0,40
4,67,79,56
4,67,0,34
4,65,97,14
4,65,0,24
4,67,117,24
4,67,0,124
4,65,112,68
4,65,0,127
4,63,116,65
4,63,0,104
4,67,102,88
4,67,0,93
4,72,97,99
4,72,0,63
4,68,113,33
4,68,0,71
4,65,94,25
4,65,0,50
4,67,104,46
4,67,0,40
4,65,106,56
4,65,0,132
4,70,107,60
4,70,0,21
4,65,97,75
4,65,0,24
4,67,117,72
4,67,0,288
4,67,108,96
4,67,0,125
4,67,102,67
4,67,0,44
4,72,108,52
4,72,0,37
4,70,119,59
4,70,0,306
4,70,119,78
4,70,0,120
4,67,97,72
4,67,0,39
4,70,113,57
4,70,0,24
4,72,104,72
4,72,0,87
4,70,104,9
4,70,0,24
