track,note,velocity,time
3,62,64,9212
3,62,64,33
3,62,64,52
3,62,64,57
3,62,64,46
3,62,64,33
3,62,64,51
3,62,64,66
3,62,64,133
3,62,64,72
3,62,64,41
3,62,64,48
3,62,64,49
3,62,64,119
3,62,64,47
3,62,64,59
3,62,64,55
3,62,64,49
3,62,64,48
3,62,64,54
3,62,64,71
3,62,64,57
3,62,64,51
3,62,64,48
3,62,64,42
3,62,64,61
3,62,64,185
3,62,64,40
3,62,64,63
3,62,64,44
3,62,64,52
3,62,64,54
3,62,64,38
3,62,64,114
3,62,64,46
3,62,64,64
3,62,64,46
3,62,64,50
3,62,64,44
3,62,64,52
3,62,64,59
3,62,64,52
3,62,64,53
3,62,64,37
3,62,64,51
3,62,64,60
3,62,64,48
3,62,64,43
3,62,64,49
3,62,64,60
3,62,64,38
3,62,64,51
3,62,64,44
3,62,64,98
3,62,64,212
3,62,64,91
3,62,64,64
3,62,64,45
3,62,64,75
3,62,64,54
3,62,64,91
3,62,64,379
3,62,64,46
3,62,64,51
3,62,64,132
3,62,64,52
3,62,64,64
3,62,64,54
3,62,64,71
3,62,64,72
3,62,64,88
3,62,64,63
3,62,64,60
3,62,64,234
3,62,64,93
3,62,64,80
3,62,64,32
3,62,64,144
3,62,64,116
3,62,64,41
3,62,64,50
3,62,64,111
3,62,64,36
3,62,64,50
3,62,64,172
3,62,64,43
3,62,64,80
3,62,64,117
3,62,64,42
3,62,64,54
3,62,64,135
3,62,64,50
3,62,64,52
3,62,64,47
3,62,64,48
3,62,64,39
3,62,64,48
3,62,64,110
3,62,64,49
3,62,64,52
3,62,64,47
3,62,64,69
3,62,64,106
3,62,64,156
3,62,64,44
3,62,64,55
3,62,64,34
3,62,64,44
3,62,64,84
3,62,64,124
3,62,64,24
3,62,64,55
3,62,64,41
3,62,64,45
3,62,64,43
3,62,64,40
3,62,64,43
3,62,64,64
3,62,64,42
3,62,64,49
3,62,64,51
3,62,64,84
3,62,64,113
3,62,64,113
3,62,64,87
3,62,64,67
3,62,64,52
3,62,64,114
3,62,64,49
3,62,64,106
3,62,64,423
3,62,64,47
3,62,64,43
3,62,64,136
3,62,64,54
3,62,64,155
3,62,64,53
3,62,64,59
3,62,64,85
3,62,64,126
3,62,64,43
3,62,64,128
3,62,64,51
3,62,64,199
3,62,64,133
3,62,64,62
3,62,64,77
3,62,64,138
3,62,64,48
3,62,64,127
3,62,64,465
3,62,64,58
3,62,64,70
3,62,64,113
3,62,64,48
3,62,64,137
3,62,64,48
3,62,64,53
3,62,64,64
3,62,64,151
3,62,64,44
3,62,64,137
3,62,64,97
3,62,64,166
3,62,64,48
3,62,64,56
3,62,64,150
3,62,64,37
3,62,64,59
3,62,64,186
3,62,64,67
3,62,64,54
3,62,64,44
3,62,64,51
3,62,64,48
3,62,64,70
3,62,64,150
3,62,64,44
3,62,64,51
3,62,64,143
3,62,64,44
3,62,64,58
3,62,64,48
3,62,64,91
3,62,64,47
3,62,64,52
3,62,64,133
3,62,64,352
3,62,64,119
3,62,64,125
3,62,64,46
3,62,64,57
3,62,64,109
3,62,64,47
3,62,64,56
3,62,64,45
3,62,64,55
3,62,64,144
3,62,64,148
3,62,64,60
3,62,64,54
3,62,64,137
3,62,64,160
3,62,64,149
3,62,64,51
3,62,64,48
3,62,64,36
3,62,64,59
3,62,64,342
3,62,64,59
3,62,64,68
3,62,64,155
3,62,64,138
3,62,64,143
3,62,64,46
3,62,64,52
3,62,64,49
3,62,64,48
3,62,64,56
3,62,64,83
3,62,64,170
3,62,64,50
3,62,64,55
3,62,64,50
3,62,64,84
3,62,64,44
3,62,64,65
3,62,64,131
3,62,64,57
3,62,64,58
3,62,64,70
3,62,64,55
3,62,64,43
3,62,64,53
3,62,64,165
3,62,64,133
3,62,64,140
3,62,64,57
3,62,64,80
3,62,64,149
3,62,64,49
3,62,64,54
3,62,64,47
3,62,64,88
3,62,64,122
3,62,64,157
3,62,64,51
3,62,64,51
3,62,64,147
3,62,64,57
3,62,64,48
3,62,64,160
3,62,64,42
3,62,64,54
3,62,64,57
3,62,64,58
3,62,64,134
3,62,64,144
3,62,64,147
3,62,64,138
3,62,64,128
3,62,64,58
3,62,64,139
3,62,64,446
3,62,64,61
3,62,64,77
3,62,64,138
3,62,64,60
3,62,64,147
3,62,64,51
3,62,64,51
3,62,64,62
3,62,64,127
3,62,64,42
3,62,64,120
3,62,64,59
3,62,64,170
3,62,64,143
3,62,64,58
3,62,64,71
3,62,64,121
3,62,64,59
3,62,64,140
3,62,64,426
3,62,64,59
3,62,64,60
3,62,64,127
3,62,64,52
3,62,64,135
3,62,64,57
3,62,64,50
3,62,64,59
3,62,64,137
3,62,64,62
3,62,64,121
3,62,64,221
3,62,64,57
3,62,64,97
3,62,64,111
3,62,64,44
3,62,64,46
3,62,64,159
3,62,64,45
3,62,64,43
3,62,64,136
3,62,64,55
3,62,64,63
3,62,64,167
3,62,64,57
3,62,64,50
3,62,64,109
3,62,64,39
3,62,64,58
3,62,64,147
3,62,64,47
3,62,64,53
3,62,64,57
3,62,64,51
3,62,64,58
3,62,64,53
3,62,64,140
3,62,64,43
3,62,64,40
3,62,64,145
3,62,64,40
3,62,64,33
3,62,64,153
3,62,64,38
3,62,64,46
3,62,64,46
3,62,64,93
3,62,64,40
3,62,64,31
3,62,64,155
3,62,64,44
3,62,64,46
3,62,64,131
3,62,64,61
3,62,64,51
3,62,64,143
3,62,64,43
3,62,64,56
3,62,64,52
3,62,64,46
3,62,64,39
3,62,64,41
3,62,64,1727
3,62,64,45
3,62,64,55
3,62,64,127
3,62,64,43
3,62,64,57
3,62,64,151
3,62,64,143
3,62,64,45
3,62,64,48
3,62,64,47
3,62,64,59
3,62,64,141
3,62,64,58
3,62,64,216
3,62,64,127
3,62,64,121
3,62,64,46
3,62,64,49
3,62,64,37
3,62,64,47
3,62,64,158
3,62,64,118
3,62,64,135
3,62,64,141
3,62,64,49
3,62,64,58
3,62,64,103
3,62,64,58
3,62,64,47
3,62,64,49
3,62,64,52
3,62,64,46
3,62,64,39
3,62,64,112
3,62,64,51
3,62,64,53
3,62,64,156
3,62,64,147
3,62,64,130
3,62,64,63
3,62,64,65
3,62,64,49
3,62,64,56
3,62,64,146
3,62,64,152
3,62,64,161
3,62,64,65
3,62,64,64
3,62,64,133
3,62,64,66
3,62,64,121
3,62,64,452
3,62,64,80
3,62,64,73
3,62,64,141
3,62,64,68
3,62,64,163
3,62,64,58
3,62,64,43
3,62,64,62
3,62,64,150
3,62,64,75
3,62,64,130
3,62,64,62
3,62,64,161
3,62,64,147
3,62,64,68
3,62,64,57
3,62,64,134
3,62,64,70
3,62,64,129
3,62,64,422
3,62,64,60
3,62,64,77
3,62,64,141
3,62,64,59
3,62,64,130
3,62,64,62
3,62,64,64
3,62,64,77
3,62,64,140
3,62,64,69
3,62,64,117
3,62,64,73
3,62,64,147
3,62,64,45
3,62,64,67
3,62,64,166
3,62,64,152
3,62,64,135
3,62,64,60
3,62,64,64
3,62,64,59
3,62,64,70
3,62,64,146
3,62,64,213
3,62,64,49
3,62,64,66
3,62,64,157
3,62,64,152
3,62,64,153
3,62,64,60
3,62,64,54
3,62,64,63
3,62,64,70
3,62,64,127
3,62,64,152
3,62,64,52
3,62,64,62
3,62,64,56
3,62,64,49
3,62,64,59
3,62,64,56
3,62,64,163
3,62,64,57
3,62,64,56
3,62,64,56
3,62,64,55
3,62,64,63
3,62,64,68
3,62,64,139
3,62,64,158
3,62,64,152
3,62,64,148
3,62,64,134
3,62,64,57
3,62,64,70
3,62,64,131
3,62,64,44
3,62,64,72
3,62,64,151
3,62,64,152
3,62,64,151
3,62,64,60
3,62,64,74
3,62,64,149
3,62,64,64
3,62,64,68
3,62,64,68
3,62,64,70
3,62,64,71
3,62,64,86
3,62,64,148
3,62,64,65
3,62,64,65
3,62,64,159
3,62,64,62
3,62,64,64
3,62,64,151
3,62,64,63
3,62,64,56
3,62,64,69
3,62,64,71
3,62,64,71
3,62,64,84
3,62,64,167
3,62,64,130
3,62,64,66
3,62,64,56
3,62,64,149
3,62,64,70
3,62,64,123
3,62,64,428
3,62,64,75
3,62,64,72
3,62,64,124
3,62,64,74
3,62,64,124
3,62,64,65
3,62,64,69
3,62,64,79
3,62,64,142
3,62,64,55
3,62,64,116
3,62,64,68
3,62,64,185
3,62,64,146
3,62,64,60
3,62,64,67
3,62,64,138
3,62,64,74
3,62,64,134
3,62,64,418
3,62,64,64
3,62,64,68
3,62,64,167
3,62,64,71
3,62,64,109
3,62,64,70
3,62,64,70
3,62,64,68
3,62,64,162
3,62,64,70
3,62,64,145
3,62,64,73
3,62,64,155
3,62,64,53
3,62,64,61
3,62,64,159
3,62,64,48
3,62,64,62
3,62,64,136
3,62,64,46
3,62,64,60
3,62,64,60
3,62,64,71
3,62,64,59
3,62,64,84
3,62,64,148
3,62,64,159
3,62,64,163
3,62,64,131
3,62,64,150
3,62,64,58
3,62,64,69
3,62,64,157
3,62,64,150
3,62,64,156
3,62,64,143
3,62,64,158
3,62,64,140
3,62,64,157
3,62,64,68
3,62,64,79
3,62,64,157
3,62,64,66
3,62,64,56
3,62,64,143
3,62,64,53
3,62,64,75
3,62,64,71
3,62,64,62
3,62,64,161
3,62,64,158
3,62,64,58
3,62,64,53
3,62,64,65
3,62,64,65
3,62,64,61
3,62,64,70
3,62,64,161
3,62,64,63
3,62,64,48
3,62,64,70
3,62,64,62
3,62,64,60
3,62,64,74
3,62,64,139
3,62,64,68
3,62,64,62
3,62,64,58
3,62,64,60
3,62,64,57
3,62,64,59
3,62,64,141
3,62,64,64
3,62,64,63
3,62,64,141
3,62,64,72
3,62,64,0
3,62,64,141
3,62,64,159
3,62,64,155
3,62,64,48
3,62,64,64
3,62,64,155
3,62,64,57
3,62,64,54
3,62,64,67
3,62,64,69
3,62,64,71
3,62,64,70
3,62,64,0
3,62,64,38
3,62,64,61
3,62,64,55
3,62,64,51
3,62,64,73
3,62,64,51
3,62,64,153
3,62,64,55
3,62,64,58
3,62,64,54
3,62,64,51
3,62,64,59
3,62,64,61
3,62,64,155
3,62,64,58
3,62,64,59
3,62,64,59
3,62,64,67
3,62,64,79
3,62,64,51
3,62,64,158
3,62,64,149
3,62,64,56
3,62,64,56
3,62,64,130
3,62,64,59
3,62,64,119
3,62,64,398
3,62,64,47
3,62,64,67
3,62,64,122
3,62,64,50
3,62,64,136
3,62,64,48
3,62,64,68
3,62,64,65
3,62,64,131
3,62,64,57
3,62,64,133
3,62,64,62
3,62,64,147
3,62,64,147
3,62,64,58
3,62,64,61
3,62,64,130
3,62,64,75
3,62,64,142
3,62,64,431
3,62,64,49
3,62,64,54
3,62,64,176
3,62,64,66
3,62,64,158
3,62,64,64
3,62,64,71
3,62,64,65
3,62,64,179
3,62,64,67
3,62,64,136
3,62,64,75
3,62,64,177
3,62,64,164
3,62,64,58
3,62,64,61
3,62,64,167
3,62,64,73
3,62,64,134
3,62,64,486
3,62,64,55
3,62,64,58
3,62,64,152
3,62,64,60
3,62,64,156
3,62,64,68
3,62,64,61
3,62,64,63
3,62,64,156
3,62,64,63
3,62,64,145
3,62,64,55
3,62,64,158
3,62,64,166
3,62,64,60
3,62,64,59
3,62,64,156
3,62,64,54
3,62,64,118
3,62,64,490
3,62,64,56
3,62,64,65
3,62,64,179
3,62,64,67
3,62,64,175
3,62,64,50
3,62,64,56
3,62,64,67
3,62,64,153
3,62,64,70
3,62,64,174
3,62,64,48
3,62,64,155
3,62,64,153
3,62,64,59
3,62,64,61
3,62,64,148
3,62,64,76
3,62,64,132
3,62,64,451
3,62,64,60
3,62,64,66
3,62,64,144
3,62,64,64
3,62,64,155
3,62,64,63
3,62,64,56
3,62,64,59
3,62,64,151
3,62,64,76
3,62,64,150
3,62,64,61
3,62,64,190
3,62,64,140
3,62,64,58
3,62,64,53
3,62,64,134
3,62,64,80
3,62,64,142
3,62,64,449
3,62,64,64
3,62,64,63
3,62,64,162
3,62,64,64
3,62,64,161
3,62,64,64
3,62,64,61
3,62,64,57
3,62,64,158
3,62,64,68
3,62,64,158
3,62,64,64
3,62,64,179
3,62,64,152
3,62,64,56
3,62,64,67
3,62,64,150
3,62,64,62
3,62,64,152
3,62,64,435
3,62,64,52
3,62,64,66
3,62,64,154
3,62,64,61
3,62,64,133
3,62,64,67
3,62,64,61
3,62,64,80
3,62,64,126
3,62,64,56
3,62,64,130
3,62,64,70
3,62,64,166
3,62,64,189
3,62,64,52
3,62,64,56
3,62,64,92
3,62,64,49
3,62,64,64
3,62,64,256
4,72,80,384
4,62,97,1920
4,67,79,0
4,74,70,0
4,69,70,20
4,62,79,0
4,74,61,0
4,64,88,28
4,71,70,0
4,76,61,0
4,72,61,768
4,60,79,0
4,67,79,0
4,62,88,20
4,67,79,0
4,74,70,0
4,62,79,32
4,69,70,0
4,74,79,0
4,71,61,12
4,64,88,0
4,76,61,0
4,72,61,768
4,67,79,0
4,60,79,0
4,67,109,208
4,67,109,272
4,62,100,288
4,62,109,296
4,64,109,284
4,64,109,284
4,60,109,296
4,60,109,288
4,67,109,292
4,67,109,296
4,62,109,300
4,62,109,296
4,64,109,300
4,64,109,296
4,60,100,304
4,60,100,120
4,60,109,120
4,62,97,96
4,67,79,0
4,74,70,0
4,62,79,16
4,69,70,0
4,74,61,0
4,64,88,28
4,71,70,0
4,76,61,0
4,67,79,768
4,60,79,0
4,72,61,0
4,67,109,184
4,67,109,272
4,62,100,292
4,62,109,288
4,64,109,284
4,64,109,288
4,60,109,296
4,60,109,288
4,67,109,288
4,67,109,304
4,62,109,296
4,62,109,296
4,64,109,300
4,64,109,304
4,60,100,308
4,60,100,116
4,60,109,124
4,62,97,96
4,67,79,0
4,74,70,0
4,62,79,20
4,69,70,0
4,74,61,0
4,64,88,28
4,71,70,0
4,76,61,0
4,67,79,768
4,72,61,0
4,60,79,0
4,62,88,20
4,67,79,0
4,74,70,0
4,62,79,32
4,69,70,0
4,74,79,0
4,71,61,12
4,64,88,0
4,76,61,0
4,72,61,768
4,67,79,0
4,60,79,0
4,67,109,208
4,67,109,272
4,62,100,288
4,62,109,296
4,64,109,288
4,64,109,284
4,60,109,296
4,60,109,292
4,67,109,292
4,67,109,272
4,62,100,284
4,62,109,292
4,64,109,288
4,64,109,288
4,60,109,300
4,60,109,288
4,67,109,288
4,67,109,272
4,62,100,284
4,62,109,288
4,64,109,288
4,64,109,288
4,60,109,296
4,60,109,288
4,67,109,288
4,67,109,296
4,62,109,300
4,62,109,292
4,64,109,296
4,64,109,300
4,60,100,304
4,60,100,124
4,60,109,124
4,62,97,96
4,67,79,0
4,74,70,0
4,62,79,20
4,69,70,0
4,74,61,0
4,71,70,28
4,64,88,0
4,76,61,0
4,72,61,768
4,60,79,0
4,67,79,0
4,62,88,20
4,67,79,0
4,74,70,0
4,69,70,32
4,62,79,0
4,74,79,0
4,71,61,16
4,64,88,0
4,76,61,0
4,72,61,768
4,67,79,0
4,60,79,0
4,60,88,20
4,67,79,0
4,72,88,0
4,57,88,28
4,64,79,4
4,69,88,0
4,59,97,60
4,64,70,0
4,71,88,0
4,69,70,52
4,62,97,0
4,74,79,0
4,60,79,32
4,72,79,0
4,67,88,4
4,57,88,36
4,64,79,0
4,69,70,0
4,59,97,48
4,71,79,0
4,64,79,4
4,62,88,52
4,69,88,0
4,74,79,0
4,67,109,1740
4,67,109,272
4,62,100,284
4,62,109,288
4,64,109,288
4,64,109,288
4,60,109,296
4,60,109,288
4,67,109,288
4,67,109,296
4,62,109,296
4,62,109,292
4,64,109,296
4,64,109,296
4,60,100,308
4,60,100,120
4,60,109,120
4,62,97,96
4,67,79,0
4,74,70,0
4,69,70,20
4,62,79,0
4,74,61,0
4,64,88,28
4,71,70,0
4,76,61,0
4,67,79,768
4,72,61,0
4,60,79,0
4,62,88,20
4,67,79,0
4,74,70,0
4,69,70,32
4,62,79,0
4,74,79,0
4,71,61,12
