track,note,velocity,time
2,76,79,4560
2,76,79,80
2,76,79,80
2,75,79,560
2,76,79,40
2,78,79,40
2,76,79,40
2,75,79,40
2,73,79,40
2,73,79,40
2,71,79,80
2,68,79,0
2,71,79,40
2,69,79,440
2,68,79,40
2,69,79,40
2,71,79,40
2,69,79,40
2,68,79,40
2,66,79,40
2,64,79,40
2,76,79,80
2,76,79,80
2,76,79,440
2,75,79,40
2,76,79,40
2,78,79,40
2,76,79,40
2,75,79,40
2,73,79,40
2,73,79,40
2,71,79,0
2,71,79,40
2,68,79,0
2,71,79,40
2,69,79,440
2,68,79,40
2,69,79,40
2,71,79,40
2,73,79,80
2,75,79,40
2,76,79,40
2,76,79,80
2,76,79,80
2,75,79,560
2,76,79,40
2,78,79,40
2,76,79,40
2,75,79,40
2,73,79,40
2,73,79,40
2,71,79,80
2,68,79,0
2,71,79,40
2,69,79,440
2,68,79,40
2,69,79,40
2,71,79,40
2,69,79,40
2,68,79,40
2,66,79,40
2,64,79,40
2,76,79,80
2,78,79,80
2,76,79,0
2,76,79,200
2,75,79,40
2,76,79,40
2,78,79,40
2,76,79,40
2,75,79,40
2,73,79,40
2,73,79,40
2,71,79,80
2,68,79,0
2,71,79,40
2,69,79,440
2,68,79,40
2,69,79,40
2,71,79,40
2,72,79,560
2,76,79,0
2,76,79,40
2,81,79,80
2,79,79,80
2,76,79,0
2,76,79,40
2,79,79,80
2,77,79,0
2,77,79,40
2,74,79,320
2,76,79,80
2,77,79,80
2,76,79,0
2,74,79,0
2,74,79,0
2,72,79,560
2,76,79,0
2,76,79,40
2,81,79,80
2,79,79,80
2,76,79,0
2,76,79,40
2,79,79,80
2,77,79,80
2,74,79,320
2,76,79,80
2,77,79,80
2,76,79,0
2,74,79,0
2,74,79,0
2,73,79,560
2,73,79,80
2,74,79,80
2,76,79,80
2,74,79,80
2,73,79,80
2,74,79,320
2,73,79,80
2,71,79,80
2,75,79,320
2,73,79,80
2,71,79,0
2,71,79,40
2,73,79,80
2,75,79,40
2,76,79,40
2,76,79,80
2,76,79,80
2,76,79,440
2,75,79,40
2,76,79,40
2,78,79,40
2,76,79,40
2,75,79,40
2,73,79,40
2,73,79,40
2,71,79,80
2,68,79,0
2,71,79,40
2,69,79,440
2,68,79,40
2,69,79,40
2,71,79,40
2,69,79,40
2,68,79,40
2,66,79,40
2,64,79,40
2,76,79,80
2,78,79,80
2,76,79,0
2,76,79,200
2,75,79,40
2,76,79,40
2,78,79,40
2,76,79,40
2,75,79,40
2,73,79,40
2,73,79,40
2,71,79,80
2,68,79,0
2,71,79,40
2,69,79,440
2,68,79,40
2,69,79,40
2,71,79,40
2,67,79,560
2,71,79,0
2,74,79,0
2,78,79,0
2,76,79,0
2,81,79,0
2,79,79,0
2,78,79,0
2,76,79,0
2,79,79,0
2,78,79,0
2,76,79,0
2,74,79,0
2,73,79,0
2,71,79,0
2,67,79,320
2,71,79,0
2,74,79,0
2,78,79,0
2,76,79,0
2,81,79,0
2,79,79,0
2,78,79,0
2,76,79,0
2,79,79,0
2,78,79,0
2,76,79,0
2,75,79,0
2,71,79,0
2,76,79,320
2,76,79,80
2,76,79,80
2,76,79,440
2,75,79,40
2,76,79,40
2,78,79,40
2,76,79,40
2,75,79,40
2,73,79,40
2,73,79,40
2,71,79,0
2,71,79,40
2,68,79,0
2,71,79,40
2,69,79,440
2,68,79,40
2,69,79,40
2,71,79,40
2,69,79,40
2,68,79,40
2,66,79,40
2,64,79,40
2,76,79,80
2,78,79,80
2,76,79,0
2,76,79,200
2,75,79,40
2,76,79,40
2,78,79,40
2,76,79,40
2,75,79,40
2,73,79,40
2,73,79,40
2,71,79,0
2,71,79,40
2,68,79,0
2,71,79,40
2,69,79,440
2,68,79,40
2,69,79,40
2,71,79,40
2,72,79,560
2,76,79,0
2,76,79,40
2,81,79,80
2,79,79,80
2,76,79,0
2,76,79,40
2,79,79,80
2,77,79,80
2,74,79,0
2,74,79,40
2,76,79,80
2,77,79,80
2,76,79,0
2,74,79,0
2,74,79,0
2,72,79,560
2,76,79,0
2,76,79,40
2,81,79,80
2,79,79,80
2,76,79,0
2,76,79,40
2,79,79,80
2,77,79,80
2,74,79,0
2,74,79,40
2,76,79,80
2,77,79,80
2,76,79,0
2,74,79,0
2,74,79,0
2,73,79,560
2,73,79,80
2,74,79,80
2,76,79,80
2,74,79,80
2,73,79,80
2,74,79,320
2,73,79,80
2,71,79,80
2,75,79,320
2,73,79,80
2,71,79,0
2,71,79,40
2,73,79,80
2,75,79,40
2,76,79,40
2,76,79,80
2,76,79,80
2,75,79,560
2,76,79,45
2,78,79,45
2,76,79,45
2,75,79,45
2,73,79,45
2,73,79,45
2,71,79,90
2,68,79,0
2,71,79,40
2,69,79,440
2,68,79,40
2,69,79,40
2,71,79,40
2,69,79,40
2,68,79,40
2,66,79,40
2,64,79,40
2,76,79,80
2,78,79,80
2,76,79,0
2,76,79,200
2,75,79,40
2,76,79,40
2,80,79,40
2,78,79,40
2,76,79,40
2,75,79,40
2,73,79,40
2,71,79,80
2,68,79,0
2,71,79,40
2,69,79,440
2,68,79,40
2,69,79,40
2,71,79,40
2,67,79,560
2,71,79,0
2,74,79,0
2,78,79,0
2,76,79,0
2,81,79,0
2,79,79,0
2,78,79,0
2,76,79,0
2,79,79,0
2,78,79,0
2,76,79,0
2,74,79,0
2,73,79,0
2,71,79,0
2,67,79,320
2,71,79,0
2,74,79,0
2,78,79,0
2,76,79,0
2,81,79,0
2,79,79,0
2,78,79,0
2,76,79,0
2,79,79,0
2,78,79,0
2,76,79,0
2,75,79,0
2,71,79,0
2,76,79,320
2,76,79,80
2,78,79,80
2,76,79,0
2,71,79,320
2,71,79,40
2,83,79,40
2,80,79,80
2,80,79,80
2,78,79,0
2,76,79,0
2,68,79,200
2,69,79,40
2,68,79,80
2,69,79,40
2,71,79,40
2,73,79,80
2,75,79,40
2,76,79,40
2,76,79,80
2,78,79,80
2,76,79,0
2,71,79,320
2,83,79,80
2,80,79,80
2,80,79,80
2,78,79,0
2,76,79,0
2,68,79,200
2,69,79,40
2,68,79,80
2,69,79,40
2,71,79,40
2,73,79,80
2,75,79,40
2,76,79,0
2,76,79,60
2,78,79,30
2,76,79,0
2,71,79,0
2,71,79,30
2,83,79,40
2,80,79,30
2,80,79,30
2,78,79,0
2,76,79,0
2,68,79,0
2,69,79,40
2,68,79,30
2,69,79,40
2,71,79,30
2,73,79,0
2,75,79,30
2,76,79,0
2,76,79,60
2,78,79,30
2,76,79,0
2,71,79,0
2,83,79,60
2,80,79,30
2,80,79,30
2,78,79,0
2,76,79,0
2,68,79,0
2,69,79,40
2,68,79,30
2,69,79,40
2,71,79,30
2,73,79,0
2,75,79,30
3,64,79,720
3,68,79,0
3,71,79,0
3,64,79,80
3,68,79,0
3,71,79,0
3,64,79,80
3,68,79,0
3,71,79,0
3,64,79,40
3,68,79,0
3,71,79,0
3,64,79,40
3,68,79,0
3,71,79,0
3,66,79,40
3,69,79,0
3,73,79,0
3,76,79,0
3,66,79,80
3,69,79,0
3,73,79,0
3,76,79,0
3,66,79,80
3,69,79,0
3,73,79,0
3,76,79,0
3,66,79,40
3,69,79,0
3,73,79,0
3,76,79,0
3,66,79,40
3,69,79,0
3,73,79,0
3,76,79,0
3,63,79,40
3,66,79,0
3,68,79,0
3,71,79,0
3,63,79,80
3,66,79,0
3,68,79,0
3,71,79,0
3,63,79,80
3,66,79,0
3,68,79,0
3,71,79,0
3,63,79,40
3,66,79,0
3,68,79,0
3,71,79,0
3,63,79,40
3,66,79,0
3,68,79,0
3,71,79,0
3,57,79,40
3,61,79,0
3,64,79,0
3,57,79,80
3,61,79,0
3,64,79,0
3,57,79,40
3,61,79,0
3,64,79,0
3,59,79,40
3,63,79,0
3,66,79,0
3,59,79,40
3,63,79,0
3,66,79,0
3,59,79,40
3,63,79,0
3,66,79,0
3,64,79,80
3,68,79,0
3,71,79,0
3,64,79,80
3,68,79,0
3,71,79,0
3,64,79,80
3,68,79,0
3,71,79,0
3,64,79,40
3,68,79,0
3,71,79,0
3,64,79,40
3,68,79,0
3,71,79,0
3,66,79,40
3,69,79,0
3,73,79,0
3,76,79,0
3,66,79,80
3,69,79,0
3,73,79,0
3,76,79,0
3,66,79,80
3,69,79,0
3,73,79,0
3,76,79,0
3,66,79,40
3,69,79,0
3,73,79,0
3,76,79,0
3,66,79,40
3,69,79,0
3,73,79,0
3,76,79,0
3,63,79,40
3,66,79,0
3,68,79,0
3,71,79,0
3,63,79,80
3,66,79,0
3,68,79,0
3,71,79,0
3,63,79,80
3,66,79,0
3,68,79,0
3,71,79,0
3,63,79,40
3,66,79,0
3,68,79,0
3,71,79,0
3,63,79,40
3,66,79,0
3,68,79,0
3,71,79,0
3,57,79,40
3,61,79,0
3,64,79,0
3,57,79,80
3,61,79,0
3,64,79,0
3,57,79,40
3,61,79,0
3,64,79,0
3,59,79,40
3,63,79,0
3,66,79,0
3,59,79,40
3,63,79,0
3,66,79,0
3,59,79,40
3,63,79,0
3,66,79,0
3,64,79,80
3,68,79,0
3,71,79,0
3,64,79,80
3,68,79,0
3,71,79,0
3,64,79,80
3,68,79,0
3,71,79,0
3,64,79,40
3,68,79,0
3,71,79,0
3,64,79,40
3,68,79,0
3,71,79,0
3,66,79,40
3,69,79,0
3,73,79,0
3,76,79,0
3,66,79,80
3,69,79,0
3,73,79,0
3,76,79,0
3,66,79,80
3,69,79,0
3,73,79,0
3,76,79,0
3,66,79,40
3,69,79,0
3,73,79,0
3,76,79,0
3,66,79,40
3,69,79,0
3,73,79,0
3,76,79,0
3,63,79,40
3,66,79,0
3,68,79,0
3,71,79,0
3,63,79,80
3,66,79,0
3,68,79,0
3,71,79,0
3,63,79,80
3,66,79,0
3,68,79,0
3,71,79,0
3,63,79,40
3,66,79,0
3,68,79,0
3,71,79,0
3,63,79,40
3,66,79,0
3,68,79,0
3,71,79,0
3,57,79,40
3,61,79,0
3,64,79,0
3,57,79,80
3,61,79,0
3,64,79,0
3,57,79,40
3,61,79,0
3,64,79,0
3,59,79,40
3,63,79,0
3,66,79,0
3,59,79,40
3,63,79,0
3,66,79,0
3,59,79,40
3,63,79,0
3,66,79,0
3,64,79,80
3,68,79,0
3,71,79,0
3,64,79,80
3,68,79,0
3,71,79,0
3,64,79,80
3,68,79,0
3,71,79,0
3,64,79,40
3,68,79,0
3,71,79,0
3,64,79,40
3,68,79,0
3,71,79,0
3,66,79,40
3,69,79,0
3,73,79,0
3,76,79,0
3,66,79,80
3,69,79,0
3,73,79,0
3,76,79,0
3,66,79,80
3,69,79,0
3,73,79,0
3,76,79,0
3,66,79,40
3,69,79,0
3,73,79,0
3,76,79,0
3,66,79,40
3,69,79,0
3,73,79,0
3,76,79,0
3,63,79,40
3,66,79,0
3,68,79,0
3,71,79,0
3,63,79,80
3,66,79,0
3,68,79,0
3,71,79,0
3,63,79,80
3,66,79,0
3,68,79,0
3,71,79,0
3,63,79,40
3,66,79,0
3,68,79,0
3,71,79,0
3,63,79,40
3,66,79,0
3,68,79,0
3,71,79,0
3,57,79,40
3,61,79,0
3,64,79,0
3,57,79,80
3,61,79,0
3,64,79,0
3,57,79,40
3,61,79,0
3,64,79,0
3,59,79,40
3,63,79,0
3,66,79,0
3,59,79,40
3,63,79,0
3,66,79,0
3,59,79,40
3,63,79,0
3,66,79,0
3,64,79,80
3,68,79,0
3,71,79,0
3,64,79,80
3,68,79,0
3,71,79,0
3,64,79,80
3,68,79,0
3,71,79,0
3,64,79,40
3,68,79,0
3,71,79,0
3,64,79,40
3,68,79,0
3,71,79,0
3,66,79,40
3,69,79,0
3,73,79,0
3,76,79,0
3,66,79,80
3,69,79,0
3,73,79,0
3,76,79,0
3,66,79,80
3,69,79,0
3,73,79,0
3,76,79,0
3,66,79,40
3,69,79,0
3,73,79,0
3,76,79,0
3,66,79,40
3,69,79,0
3,73,79,0
3,76,79,0
3,63,79,40
3,66,79,0
3,68,79,0
3,71,79,0
3,63,79,80
3,66,79,0
3,68,79,0
3,71,79,0
3,63,79,80
3,66,79,0
3,68,79,0
3,71,79,0
3,63,79,40
3,66,79,0
3,68,79,0
3,71,79,0
3,63,79,40
3,66,79,0
3,68,79,0
3,71,79,0
3,57,79,40
3,61,79,0
3,64,79,0
3,57,79,80
3,61,79,0
3,64,79,0
3,57,79,40
3,61,79,0
3,64,79,0
3,59,79,40
3,63,79,0
3,66,79,0
3,59,79,40
3,63,79,0
3,66,79,0
3,59,79,40
3,63,79,0
3,66,79,0
3,60,79,80
3,64,79,0
3,67,79,0
3,60,79,80
3,64,79,0
3,67,79,0
3,60,79,40
3,64,79,0
3,67,79,0
3,60,79,40
3,64,79,0
3,67,79,0
3,60,79,40
3,64,79,0
3,67,79,0
3,60,79,40
3,64,79,0
3,67,79,0
3,60,79,40
3,64,79,0
3,67,79,0
3,57,79,40
3,60,79,0
3,64,79,0
3,67,79,0
3,57,79,80
3,60,79,0
3,64,79,0
3,67,79,0
3,57,79,40
3,60,79,0
3,64,79,0
3,67,79,0
3,57,79,40
3,60,79,0
3,64,79,0
3,67,79,0
3,57,79,40
3,60,79,0
3,64,79,0
3,67,79,0
3,57,79,40
3,60,79,0
3,64,79,0
3,67,79,0
3,57,79,40
3,60,79,0
3,64,79,0
3,67,79,0
3,60,79,40
3,62,79,0
3,65,79,0
3,69,79,0
3,60,79,80
3,62,79,0
3,65,79,0
3,69,79,0
3,60,79,40
3,62,79,0
3,65,79,0
3,69,79,0
3,60,79,40
3,62,79,0
3,65,79,0
3,69,79,0
3,60,79,40
3,62,79,0
3,65,79,0
3,69,79,0
3,60,79,40
3,62,79,0
3,65,79,0
3,69,79,0
3,60,79,40
3,62,79,0
3,65,79,0
3,69,79,0
3,55,79,40
3,59,79,0
3,62,79,0
3,65,79,0
3,55,79,80
3,59,79,0
3,62,79,0
3,65,79,0
3,55,79,40
3,59,79,0
3,62,79,0
3,65,79,0
3,55,79,40
3,59,79,0
3,62,79,0
3,65,79,0
3,55,79,40
3,59,79,0
3,62,79,0
3,65,79,0
3,55,79,40
3,59,79,0
3,62,79,0
3,65,79,0
3,55,79,40
3,59,79,0
3,62,79,0
3,65,79,0
3,60,79,40
3,64,79,0
3,67,79,0
3,60,79,80
3,64,79,0
3,67,79,0
3,60,79,40
3,64,79,0
3,67,79,0
3,60,79,40
3,64,79,0
3,67,79,0
3,60,79,40
3,64,79,0
3,67,79,0
3,60,79,40
3,64,79,0
3,67,79,0
3,60,79,40
3,64,79,0
3,67,79,0
3,57,79,40
3,60,79,0
3,64,79,0
3,67,79,0
3,57,79,80
3,60,79,0
3,64,79,0
3,67,79,0
3,57,79,40
3,60,79,0
3,64,79,0
3,67,79,0
3,57,79,40
3,60,79,0
3,64,79,0
3,67,79,0
3,57,79,40
3,60,79,0
3,64,79,0
3,67,79,0
3,57,79,40
3,60,79,0
3,64,79,0
3,67,79,0
3,57,79,40
3,60,79,0
3,64,79,0
3,67,79,0
3,59,79,40
3,62,79,0
3,65,79,0
3,69,79,0
3,59,79,80
3,62,79,0
3,65,79,0
3,69,79,0
3,59,79,40
3,62,79,0
3,65,79,0
3,69,79,0
3,59,79,40
3,62,79,0
3,65,79,0
3,69,79,0
3,59,79,40
3,62,79,0
3,65,79,0
3,69,79,0
3,59,79,40
3,62,79,0
3,65,79,0
3,69,79,0
3,59,79,40
3,62,79,0
3,65,79,0
3,69,79,0
3,64,79,40
3,68,79,0
3,71,79,0
3,74,79,0
3,64,79,80
3,68,79,0
3,71,79,0
3,74,79,0
3,64,79,40
3,68,79,0
3,71,79,0
3,74,79,0
3,64,79,40
3,68,79,0
3,71,79,0
3,74,79,0
3,64,79,40
3,68,79,0
3,71,79,0
3,74,79,0
3,64,79,40
3,68,79,0
3,71,79,0
3,74,79,0
3,64,79,40
3,68,79,0
3,71,79,0
3,74,79,0
3,57,79,40
3,61,79,0
3,64,79,0
