track,note,velocity,time
0,40,73,1900
0,55,73,0
0,53,96,33
0,65,96,0
0,57,85,0
0,60,89,0
0,62,81,0
0,65,81,0
0,35,33,0
0,40,65,0
0,59,37,0
0,57,93,2
0,60,101,0
0,62,89,0
0,65,97,0
0,55,96,0
0,65,96,0
0,35,33,0
0,40,65,0
0,59,77,0
0,57,81,0
0,60,93,0
0,62,89,0
0,65,89,0
0,56,96,0
0,65,96,0
0,35,33,0
0,40,65,0
0,59,37,0
0,60,57,0
0,65,57,0
0,69,57,0
0,29,112,2
0,57,93,0
0,60,101,0
0,62,89,0
0,65,97,0
0,60,96,0
0,69,96,0
0,35,63,0
0,40,70,0
0,55,90,0
0,67,108,10
0,65,112,0
0,72,108,0
0,57,97,0
0,60,105,0
0,62,97,0
0,65,101,0
0,62,100,0
0,72,100,0
0,35,52,0
0,38,60,0
0,51,49,0
0,33,109,40
0,39,102,0
0,59,64,0
0,67,88,40
0,72,92,0
0,65,96,0
0,38,60,8
0,51,49,0
0,67,100,40
0,65,100,0
0,72,100,0
0,36,109,0
0,39,70,0
0,59,64,0
0,35,63,6
0,72,104,13
0,67,104,0
0,65,100,0
0,35,52,0
0,38,60,0
0,51,49,0
0,29,107,40
0,39,102,0
0,59,64,0
0,35,52,40
0,38,61,0
0,51,49,0
0,62,57,0
0,65,57,0
0,68,57,0
0,62,108,15
0,70,108,0
0,34,111,0
0,56,81,0
0,60,97,0
0,62,89,0
0,65,89,0
0,35,63,0
0,39,70,0
0,59,64,0
0,72,92,10
0,67,108,0
0,65,104,0
0,68,112,0
0,56,89,0
0,60,89,0
0,62,77,0
0,65,93,0
0,62,96,0
0,72,96,0
0,35,52,0
0,38,60,0
0,51,49,0
0,34,108,40
0,39,102,0
0,59,64,0
0,67,100,5
0,72,100,0
0,68,108,0
0,65,108,0
0,38,60,15
0,51,49,0
0,61,57,0
0,64,57,0
0,72,57,0
0,61,104,3
0,70,104,0
0,73,112,0
0,70,108,0
0,67,108,0
0,37,107,0
0,53,101,0
0,58,93,0
0,61,101,0
0,39,70,0
0,59,64,0
0,35,63,6
0,73,88,0
0,70,104,0
0,67,84,0
0,55,101,0
0,58,97,0
0,61,101,0
0,64,88,0
0,72,88,0
0,35,52,0
0,38,60,0
0,51,49,0
0,37,108,40
0,39,102,0
0,59,64,0
0,35,52,23
0,38,61,0
0,51,49,0
0,60,57,0
0,65,57,0
0,69,57,0
0,29,108,32
0,57,101,0
0,60,101,0
0,62,97,0
0,65,101,0
0,60,88,0
0,69,88,0
0,35,63,0
0,39,70,0
0,59,64,0
0,57,96,10
0,72,108,0
0,65,108,0
0,67,112,0
0,57,85,0
0,60,93,0
0,62,93,0
0,65,93,0
0,35,52,0
0,38,60,0
0,51,49,0
0,65,96,2
0,41,107,40
0,39,102,0
0,59,64,0
0,38,60,49
0,51,49,0
0,72,108,40
0,65,108,0
0,67,108,0
0,34,109,0
0,39,70,0
0,59,64,0
0,35,63,6
0,72,104,44
0,67,104,0
0,65,100,0
0,35,52,0
0,38,60,0
0,51,49,0
0,35,108,28
0,39,102,0
0,59,64,0
0,79,92,40
0,74,112,0
0,36,107,0
0,38,61,0
0,51,49,0
0,60,57,0
0,63,57,0
0,69,57,0
0,79,100,0
0,72,112,0
0,29,111,0
0,57,93,0
0,60,101,0
0,63,97,0
0,67,101,0
0,69,112,0
0,79,112,0
0,35,63,0
0,39,70,0
0,59,64,0
0,72,116,67
0,79,108,0
0,35,52,0
0,38,60,0
0,51,49,0
0,33,120,40
0,39,102,0
0,59,64,0
0,67,88,0
0,77,88,0
0,65,84,0
0,75,84,0
0,38,60,0
0,51,49,0
0,63,88,0
0,72,88,0
0,34,111,0
0,60,96,0
0,69,96,0
0,39,70,0
0,59,64,0
0,35,63,6
0,35,52,4
0,38,60,0
0,51,49,0
0,39,107,0
0,39,102,0
0,59,64,0
0,69,92,40
0,65,104,0
0,34,107,35
0,57,80,0
0,65,80,0
0,35,52,0
0,38,61,0
0,51,49,0
0,62,57,0
0,65,57,0
0,68,57,0
0,34,117,0
0,56,81,0
0,60,97,0
0,62,89,0
0,65,89,0
0,58,96,0
0,68,96,0
0,35,63,0
0,39,70,0
0,59,64,0
0,65,76,200
0,62,100,0
0,60,108,0
0,56,104,0
0,35,52,0
0,38,60,0
0,51,49,0
0,34,113,0
0,39,102,0
0,59,64,0
0,38,60,200
0,51,49,0
0,60,112,40
0,62,104,0
0,65,100,0
0,56,108,0
0,29,115,0
0,39,70,0
0,59,64,0
0,35,63,6
0,65,96,53
0,62,100,0
0,60,112,0
0,56,112,0
0,35,52,0
0,38,60,0
0,51,49,0
0,34,109,0
0,39,102,0
0,59,64,0
0,65,92,181
0,29,96,0
0,38,61,0
0,51,49,0
0,59,57,0
0,65,57,0
0,68,57,0
0,35,117,0
0,35,63,0
0,39,70,0
0,59,64,0
0,70,124,21
0,70,100,26
0,68,120,53
0,65,112,9
0,62,100,22
0,59,100,0
0,65,100,0
0,56,104,0
0,35,52,0
0,38,60,0
0,51,49,0
0,70,124,2
0,70,108,23
0,35,109,40
0,39,102,0
0,59,64,0
0,68,124,2
0,65,108,3
0,70,124,46
0,70,108,28
0,38,60,69
0,51,49,0
0,68,124,11
0,65,108,3
0,62,108,14
0,59,108,0
0,65,108,0
0,56,108,0
0,29,115,0
0,39,70,0
0,59,64,0
0,35,63,6
0,70,124,27
0,70,108,20
0,68,120,56
0,65,108,55
0,62,92,3
0,59,112,0
0,65,112,0
0,56,116,0
0,35,52,0
0,38,60,0
0,51,49,0
0,70,124,0
0,70,108,23
0,35,109,5
0,39,102,0
0,59,64,0
0,68,124,105
0,65,116,14
0,29,105,0
0,35,52,0
0,38,61,0
0,51,49,0
0,68,124,103
0,60,57,0
0,65,57,0
0,69,57,0
0,69,124,5
0,41,108,0
0,57,97,0
0,60,97,0
0,62,93,0
0,65,93,0
0,57,104,0
0,62,104,0
0,65,100,0
0,35,63,0
0,39,70,0
0,59,64,0
0,74,124,24
0,35,52,15
0,38,60,0
0,51,49,0
0,72,124,40
0,67,120,0
0,65,116,0
0,41,111,0
0,39,102,0
0,59,64,0
0,38,60,4
0,51,49,0
0,72,112,40
0,67,112,0
0,65,108,0
0,36,109,0
0,39,70,0
0,59,64,0
0,35,63,6
0,72,108,65
0,67,108,0
0,65,112,0
0,35,52,0
0,38,60,0
0,51,49,0
0,73,124,26
0,33,113,0
0,74,120,0
0,39,102,0
0,59,64,0
0,73,100,117
0,72,84,35
0,36,109,0
0,53,105,0
0,57,101,0
0,53,112,0
0,57,112,0
0,38,61,0
0,51,49,0
0,71,116,7
0,74,120,12
0,29,107,0
0,35,63,0
0,39,70,0
0,59,64,0
0,72,120,55
0,72,120,200
0,65,116,0
0,67,120,0
0,35,52,0
0,38,60,0
0,51,49,0
0,67,112,1
0,33,113,13
0,39,102,0
0,59,64,0
0,70,120,147
0,38,60,53
0,51,49,0
0,65,92,33
0,68,124,33
0,72,112,0
0,65,108,0
0,67,108,0
0,36,111,0
0,39,70,0
0,59,64,0
0,35,63,6
0,69,120,2
0,65,124,6
0,72,100,19
0,65,108,0
0,67,116,0
0,35,52,0
0,38,60,0
0,51,49,0
0,33,109,40
0,39,102,0
0,59,64,0
0,65,108,167
0,29,109,0
0,35,52,0
0,38,61,0
0,51,49,0
0,55,57,0
0,58,57,0
0,62,57,0
0,65,57,0
0,68,124,26
0,31,107,0
0,35,63,0
0,39,70,0
0,59,64,0
0,62,112,8
0,58,112,0
0,55,108,0
0,53,112,0
0,35,52,0
0,38,60,0
0,51,49,0
0,33,108,40
0,55,89,0
0,58,85,0
0,62,89,0
0,65,89,0
0,55,104,0
0,62,100,0
0,65,108,0
0,39,102,0
0,59,64,0
0,65,108,18
0,35,48,200
0,38,60,0
0,51,49,0
0,53,116,5
0,55,112,0
0,62,120,0
0,58,116,0
0,34,108,0
0,39,70,0
0,59,64,0
0,65,120,2
0,35,63,4
0,58,120,93
0,62,116,0
0,55,108,0
0,53,116,0
0,35,52,0
0,38,60,0
0,51,49,0
0,68,124,16
0,38,113,0
0,39,102,0
0,59,64,0
0,38,61,180
0,51,49,0
0,58,57,0
0,60,57,0
0,64,57,0
0,36,113,40
0,35,63,0
0,39,70,0
0,59,64,0
0,65,104,40
0,62,108,0
0,69,108,0
0,58,108,0
0,35,52,114
0,38,60,0
0,51,49,0
0,65,100,40
0,58,96,0
0,62,108,0
0,67,100,0
0,38,113,0
0,39,102,0
0,59,64,0
0,65,100,11
0,67,100,69
0,70,100,40
0,72,100,54
0,65,104,49
0,67,104,0
0,62,56,0
0,58,108,0
0,75,100,0
0,38,60,0
0,51,49,0
0,76,100,0
0,40,112,40
0,77,112,0
0,39,70,0
0,59,64,0
0,35,63,6
0,75,108,0
0,35,52,0
0,38,60,0
0,51,49,0
0,36,109,0
0,39,102,0
0,59,64,0
0,73,108,0
0,41,112,0
0,57,105,0
0,72,108,0
0,53,112,0
0,57,112,0
0,38,61,0
0,51,49,0
0,53,97,3
0,60,57,0
0,65,57,0
0,69,57,0
0,29,109,0
0,69,120,0
0,35,63,0
0,39,70,0
0,59,64,0
0,65,120,22
0,72,96,0
0,65,120,0
0,67,116,0
0,35,52,0
0,38,60,0
0,51,49,0
0,33,113,40
0,39,102,0
0,59,64,0
0,35,48,148
0,38,60,0
0,51,49,0
0,65,108,40
0,72,116,0
0,67,112,0
0,34,109,0
0,39,70,0
0,59,64,0
0,35,63,6
0,72,96,27
0,65,104,0
0,67,112,0
0,35,52,0
0,38,60,0
0,51,49,0
0,67,124,10
0,35,112,0
0,39,102,0
0,59,64,0
0,70,120,16
0,38,61,69
0,51,49,0
0,55,57,0
0,58,57,0
0,62,57,0
0,65,57,0
0,74,124,18
0,36,105,0
0,35,63,0
0,39,70,0
0,59,64,0
0,58,108,0
0,53,108,0
0,62,112,0
0,41,116,0
0,77,124,0
0,35,52,0
0,38,60,0
0,51,49,0
0,38,108,0
0,39,102,0
0,59,64,0
0,62,112,0
0,53,112,0
0,58,116,0
0,79,124,0
0,33,108,0
0,38,60,0
0,51,49,0
0,58,57,0
0,60,57,0
0,64,57,0
0,31,108,0
0,39,70,0
0,59,64,0
0,74,124,2
0,35,63,4
0,37,111,0
0,57,85,0
0,60,89,0
0,62,81,0
0,65,81,0
0,53,96,0
0,65,96,0
0,35,52,0
0,38,60,0
0,51,49,0
0,72,124,4
0,36,108,0
0,57,93,0
0,60,101,0
0,62,89,0
0,65,97,0
0,55,96,0
0,65,96,0
0,39,102,0
0,59,64,0
0,68,120,3
0,60,124,0
0,64,120,0
0,31,111,0
0,57,81,0
0,60,93,0
0,62,89,0
0,65,89,0
0,56,96,0
0,65,96,0
0,35,52,0
0,38,61,0
0,51,49,0
0,60,57,0
0,65,57,0
0,69,57,0
0,29,112,0
0,57,93,0
0,60,101,0
0,62,89,0
0,65,97,0
0,60,96,0
0,69,96,0
0,35,63,0
0,39,70,0
0,59,64,0
0,67,108,10
0,65,112,0
0,72,108,0
0,57,97,0
0,60,105,0
0,62,97,0
0,65,101,0
0,62,100,0
0,72,100,0
0,35,52,0
0,38,60,0
0,51,49,0
0,33,115,40
0,39,102,0
0,59,64,0
0,67,88,40
0,72,92,0
0,65,96,0
0,38,60,8
0,51,49,0
0,67,100,40
0,65,100,0
0,72,100,0
0,36,113,0
0,39,70,0
0,59,64,0
0,35,63,6
0,72,104,13
0,67,104,0
0,65,100,0
0,35,52,0
0,38,60,0
0,51,49,0
0,29,111,40
0,39,102,0
0,59,64,0
0,38,61,40
0,51,49,0
0,62,57,0
0,65,57,0
0,68,57,0
0,62,108,5
0,70,108,0
0,34,108,0
0,56,81,0
0,60,97,0
0,62,89,0
0,65,89,0
0,35,63,0
0,39,70,0
0,59,64,0
0,72,92,5
0,67,108,0
0,65,104,0
0,68,112,0
0,56,89,0
0,60,89,0
0,62,77,0
0,65,93,0
0,62,96,0
0,72,96,0
0,35,52,0
0,38,60,0
0,51,49,0
0,34,111,40
0,39,102,0
0,59,64,0
0,67,100,5
0,72,100,0
0,68,108,0
0,65,108,0
0,35,48,15
0,38,60,0
0,51,49,0
0,61,57,0
0,64,57,0
0,72,57,0
0,61,104,5
0,70,104,0
0,73,112,0
0,70,108,0
0,67,108,0
0,37,116,0
0,53,101,0
0,58,93,0
0,61,101,0
0,39,70,0
0,59,64,0
0,35,63,6
0,73,88,0
0,70,104,0
0,67,84,0
0,55,101,0
0,58,97,0
0,61,101,0
0,64,88,0
0,72,88,0
0,35,52,0
0,38,60,0
0,51,49,0
0,37,108,40
0,39,102,0
0,59,64,0
0,38,61,54
0,51,49,0
0,60,57,0
0,65,57,0
0,69,57,0
0,29,108,32
0,57,101,0
0,60,101,0
0,62,97,0
0,65,101,0
0,60,88,0
0,69,88,0
0,35,63,0
0,39,70,0
0,59,64,0
0,72,108,5
0,65,108,0
0,67,112,0
0,57,85,0
0,60,93,0
0,62,93,0
0,65,93,0
0,57,96,0
0,35,52,0
0,38,60,0
0,51,49,0
0,65,96,2
0,41,116,40
0,39,102,0
0,59,64,0
0,38,60,49
0,51,49,0
0,72,108,40
0,65,108,0
0,67,108,0
0,34,115,0
0,39,70,0
0,59,64,0
0,35,63,6
0,72,104,44
0,67,104,0
0,65,100,0
0,35,52,0
0,38,60,0
0,51,49,0
0,35,113,28
0,39,102,0
0,59,64,0
0,79,92,40
0,74,112,0
0,36,109,0
0,38,61,0
0,51,49,0
0,60,57,0
0,63,57,0
0,69,57,0
0,79,100,0
0,72,112,0
0,29,113,0
0,57,93,0
0,60,101,0
0,63,97,0
0,67,101,0
0,69,112,0
0,79,112,0
0,35,63,0
0,39,70,0
0,59,64,0
0,72,116,67
0,79,108,0
0,35,52,0
0,38,60,0
0,51,49,0
0,33,115,40
0,39,102,0
0,59,64,0
0,67,88,0
0,77,88,0
0,65,84,0
0,75,84,0
0,38,60,0
0,51,49,0
0,63,88,0
0,72,88,0
0,34,115,0
0,60,96,0
0,69,96,0
0,39,70,0
0,59,64,0
0,35,63,6
0,35,52,4
0,38,60,0
0,51,49,0
0,39,116,0
0,39,102,0
0,59,64,0
0,69,92,40
0,65,104,0
0,34,109,0
0,57,80,0
0,65,80,0
0,35,52,0
0,38,61,0
0,51,49,0
0,62,57,0
0,65,57,0
0,68,57,0
0,34,111,0
0,56,81,0
0,60,97,0
0,62,89,0
0,65,89,0
0,58,96,0
0,68,96,0
0,35,63,0
0,39,70,0
0,59,64,0
0,65,76,200
0,62,100,0
0,60,108,0
0,56,104,0
0,35,52,0
0,38,60,0
0,51,49,0
0,34,115,0
0,39,102,0
0,59,64,0
0,38,60,200
0,51,49,0
0,60,112,40
0,62,104,0
0,65,100,0
0,56,108,0
0,29,111,0
0,39,70,0
0,59,64,0
0,35,63,6
0,65,96,53
0,62,100,0
0,60,112,0
0,56,112,0
0,35,52,0
0,38,60,0
0,51,49,0
0,34,109,0
0,39,102,0
0,59,64,0
0,80,124,130
0,29,103,0
0,38,61,0
0,51,49,0
0,79,100,10
0,77,116,17
0,59,57,0
0,65,57,0
0,68,57,0
0,35,108,0
0,35,63,0
0,39,70,0
0,59,77,0
0,80,124,26
0,62,100,0
0,59,100,0
0,65,100,0
0,56,104,0
0,35,52,0
0,38,60,0
0,51,49,0
0,35,108,3
0,39,102,0
0,59,64,0
0,83,124,74
0,38,60,0
0,51,49,0
0,62,108,40
0,59,108,0
0,65,108,0
0,56,108,0
0,29,104,0
0,39,70,0
0,59,64,0
0,35,63,0
0,62,92,3
0,59,112,0
0,65,112,0
0,56,116,0
0,35,52,0
0,38,60,0
0,51,49,0
0,35,109,40
0,39,102,0
0,59,64,0
0,29,101,0
0,35,52,0
0,38,61,0
0,51,49,0
0,60,57,0
0,65,57,0
0,69,57,0
0,41,111,0
0,57,97,0
0,60,97,0
0,62,93,0
0,65,93,0
0,57,104,0
0,62,104,0
0,65,100,0
0,35,63,0
0,39,70,0
0,59,64,0
0,35,52,200
