track,note,velocity,time
0,42,80,239
0,42,60,93
0,42,60,93
0,42,60,93
0,50,79,93
0,38,80,0
0,57,56,39
0,62,54,48
0,64,52,4
0,67,42,0
0,58,51,0
0,45,54,28
0,38,86,10
0,50,89,2
0,57,64,7
0,62,65,48
0,71,73,48
0,67,73,0
0,69,63,56
0,66,76,0
0,38,65,0
0,50,97,0
0,57,58,17
0,62,69,49
0,67,57,2
0,64,50,0
0,58,58,0
0,45,54,1
0,38,78,2
0,50,87,1
0,57,55,24
0,62,74,48
0,67,43,48
0,71,44,0
0,62,63,21
0,69,54,36
0,67,63,0
0,62,47,0
0,66,73,6
0,64,65,0
0,57,70,6
0,66,51,0
0,50,63,0
0,38,71,0
0,62,76,0
0,50,54,19
0,74,86,16
0,57,66,3
0,62,70,0
0,66,46,0
0,78,74,1
0,50,50,19
0,74,81,5
0,66,59,11
0,56,63,0
0,62,75,1
0,47,71,0
0,71,82,7
0,47,54,8
0,47,58,18
0,56,54,15
0,62,74,0
0,47,66,2
0,62,69,3
0,66,52,0
0,43,69,0
0,59,66,0
0,66,74,134
0,71,94,3
0,43,57,13
0,66,46,0
0,59,64,1
0,62,69,0
0,74,98,0
0,43,66,1
0,71,76,2
0,66,52,5
0,47,79,0
0,59,69,0
0,62,76,0
0,66,101,6
0,47,68,5
0,66,49,13
0,57,67,0
0,60,71,0
0,50,69,2
0,50,73,26
0,66,49,9
0,62,67,1
0,43,78,0
0,59,71,0
0,66,92,12
0,43,57,9
0,67,112,21
0,43,66,3
0,69,90,2
0,58,54,19
0,65,71,0
0,62,79,0
0,43,68,1
0,65,102,0
0,62,82,5
0,43,74,18
0,62,93,2
0,58,34,7
0,65,61,1
0,62,60,0
0,43,65,22
0,57,84,6
0,66,63,16
0,42,56,1
0,57,71,0
0,62,76,0
0,66,112,1
0,42,43,20
0,42,59,26
0,67,112,13
0,60,74,3
0,64,71,0
0,57,73,1
0,45,78,1
0,67,71,0
0,69,86,3
0,57,66,6
0,60,66,0
0,66,51,0
0,50,71,0
0,66,80,4
0,64,78,3
0,66,83,0
0,66,53,11
0,62,69,0
0,59,66,0
0,43,75,0
0,43,69,14
0,62,76,11
0,66,54,0
0,59,68,0
0,66,116,2
0,66,79,12
0,64,90,33
0,65,74,16
0,43,70,0
0,62,79,0
0,58,59,1
0,62,91,7
0,43,66,21
0,62,71,1
0,43,73,31
0,58,87,1
0,58,59,8
0,62,79,0
0,65,69,0
0,57,78,2
0,43,46,1
0,55,69,5
0,57,93,7
0,42,73,1
0,66,54,0
0,62,73,1
0,62,81,18
0,66,83,3
0,57,65,4
0,66,49,0
0,62,75,1
0,69,76,3
0,73,68,7
0,57,70,1
0,66,54,0
0,47,74,0
0,62,74,0
0,74,58,9
0,66,69,1
0,47,67,1
0,69,87,21
0,57,71,5
0,66,49,0
0,62,78,0
0,62,78,19
0,59,76,0
0,69,79,0
0,40,80,0
0,71,86,136
0,71,103,11
0,66,73,0
0,73,78,4
0,69,74,2
0,62,83,4
0,68,68,0
0,59,86,0
0,74,99,0
0,40,86,47
0,76,92,3
0,40,65,16
0,40,80,26
0,73,104,32
0,71,94,4
0,73,69,3
0,71,95,2
0,69,79,3
0,59,79,5
0,67,78,0
0,45,73,1
0,62,82,0
0,45,67,9
0,62,76,24
0,67,74,0
0,45,76,0
0,59,75,0
0,67,66,10
0,62,72,1
0,71,75,0
0,74,71,12
0,71,74,0
0,67,72,1
0,74,90,8
0,57,97,4
0,50,97,0
0,62,97,0
0,66,97,0
0,69,90,0
0,66,71,0
0,50,83,0
0,38,91,0
0,74,96,0
0,70,90,0
0,51,62,0
0,38,81,1
0,70,58,44
0,57,91,1
0,70,58,1
0,62,92,1
0,70,38,9
0,50,74,2
0,38,71,0
0,74,98,3
0,62,24,3
0,66,91,4
0,62,67,2
0,36,78,0
0,57,86,1
0,62,90,0
0,66,66,1
0,38,86,0
0,70,55,2
0,66,97,2
0,78,86,0
0,70,80,14
0,50,70,0
0,71,97,2
0,70,72,0
0,62,97,2
0,66,92,0
0,56,38,3
0,74,96,1
0,35,78,9
0,70,42,1
0,66,79,1
0,56,83,0
0,62,95,1
0,47,91,0
0,71,97,1
0,70,45,0
0,66,68,0
0,71,86,0
0,62,62,2
0,70,23,6
0,66,65,6
0,35,66,1
0,40,75,1
0,47,74,1
0,62,40,4
0,35,78,2
0,71,97,1
0,62,95,1
0,47,78,1
0,36,76,0
0,66,97,1
0,56,53,8
0,70,90,36
0,45,64,4
0,56,74,0
0,62,94,0
0,30,54,3
0,70,33,1
0,47,86,1
0,71,97,3
0,62,97,1
0,55,97,0
0,66,97,0
0,70,86,0
0,31,59,2
0,62,89,0
0,66,72,0
0,43,89,0
0,59,86,0
0,70,50,8
0,66,97,1
0,62,97,1
0,70,35,1
0,66,74,23
0,66,78,1
0,31,72,0
0,71,56,1
0,66,97,3
0,71,97,3
0,36,80,3
0,74,74,1
0,31,78,0
0,71,100,0
0,71,84,6
0,43,77,0
0,70,26,0
0,62,43,2
0,47,38,1
0,66,66,6
0,59,84,1
0,70,65,0
0,62,89,1
0,74,90,0
0,54,97,11
0,71,97,1
0,62,97,0
0,57,97,0
0,70,38,0
0,43,86,0
0,71,95,3
0,66,72,5
0,47,99,0
0,59,89,0
0,62,96,0
0,70,89,0
0,35,86,1
0,71,97,0
0,70,33,0
0,62,97,1
0,66,88,0
0,57,95,1
0,54,71,0
0,66,86,2
0,70,43,5
0,66,69,6
0,40,39,0
0,60,91,1
0,57,87,0
0,66,53,1
0,69,27,0
0,50,89,0
0,38,78,1
0,57,48,3
0,57,84,2
0,50,52,0
0,66,97,1
0,60,97,1
0,36,66,1
0,69,97,1
0,70,80,3
0,57,97,1
0,66,97,1
0,69,97,3
0,33,79,1
0,45,93,3
0,45,75,0
0,70,21,18
0,66,97,0
0,71,97,0
0,62,97,1
0,55,97,0
0,66,69,0
0,50,50,1
0,74,97,0
0,62,87,0
0,43,98,0
0,59,91,0
0,70,84,0
0,31,83,1
0,70,57,1
0,66,97,3
0,70,45,2
0,71,97,1
0,71,68,13
0,66,87,2
0,31,69,3
0,43,77,3
0,66,80,0
0,62,97,2
0,66,97,1
0,55,92,1
0,71,97,2
0,31,88,0
0,74,97,1
0,43,86,1
0,36,84,0
0,67,92,2
0,71,76,0
0,70,28,2
0,69,80,2
0,70,70,20
0,74,29,6
0,70,96,6
0,74,97,0
0,67,97,0
0,70,52,0
0,62,97,2
0,70,89,0
0,31,83,2
0,58,74,0
0,65,91,0
0,62,99,0
0,43,88,0
0,65,95,0
0,70,21,26
0,74,97,0
0,70,87,4
0,67,97,0
0,62,87,1
0,70,31,1
0,62,71,4
0,40,72,16
0,70,88,2
0,67,97,0
0,31,79,0
0,43,94,0
0,62,92,3
0,55,66,0
0,62,82,6
0,74,16,1
0,55,97,1
0,67,97,1
0,31,88,0
0,62,90,1
0,58,54,0
0,65,81,0
0,62,80,0
0,36,70,1
0,74,97,2
0,70,97,0
0,70,78,0
0,74,97,0
0,70,78,1
0,67,97,2
0,38,73,2
0,67,97,1
0,45,68,0
0,43,85,2
0,57,80,0
0,70,23,27
0,66,84,1
0,57,97,10
0,62,97,1
0,66,97,2
0,50,92,1
0,30,81,0
0,66,83,1
0,42,76,0
0,57,91,1
0,62,96,0
0,70,84,0
0,71,72,2
0,70,23,44
0,62,97,1
0,57,97,0
0,70,53,1
0,42,63,20
0,70,8,1
0,30,75,1
0,50,78,19
0,62,97,2
0,57,97,1
0,66,97,1
0,42,79,4
0,30,89,2
0,36,68,0
0,71,53,2
0,71,97,28
0,70,53,8
0,40,36,10
0,70,47,8
0,69,97,3
0,64,92,2
0,60,97,2
0,55,97,1
0,52,94,2
0,70,36,3
0,33,74,6
0,60,94,3
0,64,91,0
0,57,93,0
0,70,90,0
0,45,98,1
0,67,91,0
0,67,92,1
0,69,97,3
0,64,97,0
0,70,32,1
0,60,97,2
0,52,55,1
0,69,84,0
0,70,32,0
0,69,97,1
0,66,90,2
0,40,81,0
0,38,75,1
0,57,86,0
0,60,86,0
0,66,71,0
0,50,91,0
0,60,97,0
0,57,97,0
0,66,69,1
0,50,73,1
0,66,80,1
0,36,68,0
0,69,97,2
0,69,97,3
0,70,78,1
0,60,46,3
0,64,74,4
0,57,97,1
0,33,72,0
0,45,74,0
0,66,74,1
0,55,97,8
0,31,72,1
0,66,73,1
0,62,89,0
0,59,86,0
0,43,95,0
0,66,97,1
0,62,97,1
0,70,80,0
0,74,97,2
0,71,97,0
0,34,52,4
0,70,45,37
0,71,97,1
0,66,97,1
0,70,47,0
0,71,76,12
0,43,89,1
0,31,82,1
0,66,97,1
0,66,83,0
0,70,43,0
0,62,30,3
0,62,88,1
0,62,96,1
0,66,74,0
0,59,88,0
0,66,101,0
0,31,88,1
0,36,90,2
0,66,97,0
0,71,97,0
0,74,97,1
0,45,53,3
0,70,62,0
0,64,77,0
0,70,55,0
0,67,97,1
0,62,84,1
0,52,77,2
0,64,99,3
0,58,63,8
0,65,94,16
0,43,90,0
0,62,99,0
0,31,90,1
0,58,79,0
0,70,93,0
0,31,92,9
0,62,87,1
0,70,8,0
0,67,97,0
0,58,96,3
0,62,79,0
0,52,57,3
0,70,42,2
0,31,83,18
0,67,97,6
0,43,86,1
0,62,77,2
0,58,84,0
0,40,89,0
0,52,32,1
0,62,71,0
0,52,56,0
0,31,83,0
0,43,93,0
0,62,97,1
0,67,97,2
0,36,76,2
0,58,87,1
0,67,97,0
0,70,68,0
0,58,61,2
0,62,97,1
0,38,78,1
0,58,97,1
0,58,79,0
0,62,99,0
0,65,89,0
0,62,97,1
0,57,78,0
0,45,84,0
0,67,97,0
0,43,66,1
0,55,69,5
0,70,20,0
0,61,28,2
0,34,49,2
0,50,97,0
0,66,97,0
0,62,97,0
0,57,97,0
0,30,79,0
0,57,93,1
0,42,93,1
0,66,74,0
0,62,93,1
0,70,77,2
0,70,45,43
0,66,97,4
0,70,82,1
0,62,100,15
0,66,97,0
0,57,27,3
0,62,52,2
0,30,71,0
0,57,97,1
0,66,97,2
0,62,97,1
0,66,95,0
0,30,86,3
0,57,85,1
0,66,69,0
0,36,86,0
0,62,95,1
0,57,88,3
0,70,25,0
0,62,92,2
0,66,97,2
0,69,88,1
0,70,80,1
0,70,43,11
0,73,116,1
0,62,97,18
0,71,97,3
0,66,97,1
0,57,86,0
0,57,90,5
0,70,90,0
0,35,79,1
0,66,74,0
0,47,94,0
0,62,94,0
0,70,60,3
0,74,95,1
0,70,47,5
0,71,97,19
0,66,66,1
0,35,71,2
0,62,60,1
0,40,81,1
0,62,93,1
0,57,64,0
0,66,97,1
0,71,97,2
0,35,86,4
0,36,63,1
0,71,97,0
0,66,84,0
0,62,97,0
0,66,69,1
0,47,87,1
0,70,48,0
0,69,87,0
0,57,91,2
0,66,69,0
0,62,98,0
0,45,73,0
0,30,81,2
0,71,68,1
0,70,23,7
0,52,97,0
0,34,49,0
0,59,97,1
0,66,97,1
0,62,97,1
0,71,97,2
0,70,85,3
0,28,88,1
0,40,85,0
0,59,75,0
0,62,80,0
0,67,78,0
0,70,36,44
0,70,62,3
0,71,97,7
0,66,56,1
0,62,47,1
0,70,50,1
0,71,86,1
0,71,97,4
0,66,89,1
0,62,61,1
0,36,71,1
0,71,106,1
0,71,97,0
0,66,78,0
0,62,76,3
0,70,13,2
0,59,97,2
0,62,97,1
0,66,97,0
0,73,77,4
0,70,31,2
0,64,86,6
0,59,34,2
0,70,31,5
0,59,78,0
0,67,76,0
0,62,75,0
0,74,106,2
0,55,87,17
0,59,97,1
0,67,97,1
0,62,97,1
0,33,72,2
0,45,90,2
0,70,90,2
0,70,28,45
0,78,95,34
0,71,92,30
0,67,97,0
0,40,73,1
0,62,97,1
0,55,97,0
0,45,81,2
0,59,97,1
0,36,42,43
0,70,57,43
0,59,97,3
0,45,75,0
0,62,97,1
0,67,97,1
0,73,77,0
0,70,13,1
0,74,94,2
0,50,97,0
0,50,36,0
0,38,89,0
0,50,127,0
0,38,61,0
0,57,49,0
0,57,97,2
0,57,107,1
0,45,71,1
0,62,65,0
0,50,76,4
0,62,105,0
0,62,97,1
0,64,97,17
0,70,97,3
0,51,57,0
0,74,97,1
0,67,92,0
0,64,103,0
0,58,102,0
0,67,93,0
0,50,82,2
0,45,35,1
0,50,97,3
0,50,66,4
0,38,67,2
0,50,127,1
0,38,96,1
0,57,97,3
0,57,70,1
0,57,115,0
0,45,68,3
0,62,97,12
0,62,71,3
0,62,116,2
0,50,71,1
0,67,97,2
0,71,97,2
0,74,97,2
0,59,71,1
0,67,124,2
0,71,124,0
0,50,75,2
0,71,94,1
0,69,67,0
0,67,127,0
0,69,114,0
0,50,97,8
0,50,71,1
0,38,46,0
0,50,127,0
0,38,91,0
0,57,97,8
0,57,59,0
0,57,109,3
0,45,68,1
0,62,97,14
0,62,74,2
0,50,71,2
0,62,120,0
0,64,97,28
0,70,97,3
0,51,67,1
0,74,97,1
0,64,101,0
0,67,108,0
0,58,109,0
0,67,97,1
0,50,57,1
0,45,35,1
0,50,68,0
0,50,97,7
0,38,59,1
0,50,127,2
0,38,96,0
0,57,65,4
0,57,97,2
0,57,106,2
0,45,70,2
0,62,66,2
0,62,97,4
0,62,125,3
0,50,68,2
0,67,97,26
0,71,97,5
0,50,78,0
0,52,60,0
0,71,95,1
0,67,94,0
0,70,86,1
0,71,83,0
0,74,97,4
0,69,75,7
0,67,114,3
0,69,105,0
0,62,98,48
0,45,69,7
0,50,97,1
0,57,97,0
0,62,97,0
0,38,110,0
0,50,94,0
0,69,62,0
0,34,53,0
0,70,97,0
0,66,84,1
0,57,86,1
0,62,94,0
0,66,97,0
0,70,90,29
0,69,25,0
0,66,74,3
0,62,72,1
0,69,24,0
0,70,54,0
0,66,97,7
0,38,79,3
0,62,82,1
0,66,75,0
0,57,70,0
0,69,49,0
0,70,69,0
0,62,72,1
0,57,58,0
0,62,72,3
0,57,60,0
0,74,99,1
0,36,104,0
0,66,88,1
0,62,88,0
0,57,85,0
0,66,75,0
0,69,71,0
0,38,88,0
0,62,113,2
0,70,52,3
0,69,38,1
0,66,91,1
0,38,101,0
0,78,115,1
0,57,88,2
0,62,97,1
0,70,87,1
0,69,26,0
0,66,97,1
0,74,95,1
0,70,52,0
0,69,30,0
0,35,85,4
0,62,97,1
0,56,80,1
0,56,86,0
0,66,75,0
0,70,98,0
0,71,97,1
0,62,86,0
0,66,97,1
0,47,86,0
0,69,77,0
0,71,103,10
0,70,35,2
0,69,35,1
0,62,96,1
0,71,97,2
0,70,16,0
0,69,36,0
0,66,97,1
0,56,51,13
0,66,58,0
0,71,97,1
0,62,67,0
0,40,105,1
0,69,74,0
0,66,66,0
0,35,86,1
0,62,62,1
0,56,71,0
0,66,66,0
0,62,78,1
0,36,101,0
0,69,73,0
0,66,72,0
0,62,62,0
0,71,97,1
0,35,101,0
0,71,97,0
0,69,46,0
0,66,72,1
0,62,96,0
0,56,33,5
0,56,73,1
0,45,106,0
0,56,68,0
0,69,33,0
0,66,97,0
0,62,81,1
0,62,82,0
0,66,64,0
0,30,96,0
0,69,25,8
0,62,95,9
0,43,76,0
0,66,97,1
0,71,97,4
0,31,97,1
0,69,69,0
0,70,102,0
0,62,80,1
0,66,63,0
0,59,78,0
0,70,49,20
0,69,29,1
0,55,70,1
0,62,70,1
0,70,71,0
0,69,25,0
0,71,97,1
0,70,82,23
0,71,88,1
0,59,61,0
0,66,58,0
0,62,62,0
0,69,72,0
0,31,78,1
0,62,82,1
0,66,48,4
0,71,103,1
0,36,98,1
0,59,79,1
0,62,86,0
0,66,73,0
0,31,88,0
0,69,69,0
0,62,85,0
0,66,82,0
0,71,97,1
0,69,32,0
0,66,97,0
0,71,64,0
0,62,92,2
0,74,99,4
0,62,97,1
0,55,97,0
0,70,60,0
0,69,23,0
0,71,97,1
0,66,97,0
0,70,32,2
0,69,11,2
0,71,103,1
0,54,85,11
