track,note,velocity,time
1,74,103,26492
1,71,84,8
1,69,85,20
1,67,86,0
1,69,78,12
1,71,79,20
1,73,61,20
1,69,72,0
1,71,82,332
1,72,83,48
1,67,86,160
1,69,83,44
1,74,103,1272
1,71,83,32
1,69,70,20
1,67,88,16
1,69,71,24
1,71,78,192
1,73,69,556
1,69,82,8
1,71,93,652
1,72,90,48
1,67,80,172
1,69,83,48
1,72,97,1208
1,70,100,188
1,69,74,32
1,67,81,16
1,69,81,12
1,70,81,204
1,69,89,4
1,65,81,24
1,69,79,1344
1,65,74,196
1,74,98,988
1,76,96,100
1,77,70,20
1,65,85,28
1,65,86,204
1,67,73,12
1,65,66,12
1,65,93,328
1,67,71,384
1,69,88,48
1,70,74,4
1,69,85,16
1,67,76,24
1,65,80,16
1,74,93,20
1,76,86,8
1,77,90,160
1,65,80,148
1,65,93,248
1,67,72,224
1,65,82,20
1,65,98,264
1,67,72,196
1,69,87,40
1,70,74,8
1,69,83,24
1,72,87,604
1,76,93,148
1,77,90,28
1,72,90,200
1,74,108,20
1,76,100,5352
1,77,101,24
1,72,89,184
1,74,101,16
1,74,107,5836
1,71,85,20
1,69,87,596
1,67,84,4
1,69,70,568
1,71,82,180
1,73,70,552
1,69,79,180
1,71,100,428
1,72,92,12
1,67,83,132
1,69,85,24
1,74,101,1232
1,71,77,192
1,69,79,12
1,67,78,16
1,69,69,4
1,71,79,200
1,73,69,536
1,69,78,148
1,71,90,560
1,72,96,28
1,67,85,184
1,69,88,28
1,72,94,1152
1,70,83,192
1,69,72,16
1,67,72,8
1,69,83,576
1,70,75,184
1,69,76,552
1,65,80,176
1,69,94,4
1,65,84,136
1,74,101,984
1,76,76,196
1,77,79,556
1,65,90,20
1,65,94,256
1,67,78,208
1,65,82,24
1,65,93,292
1,67,79,4
1,69,81,0
1,70,69,560
1,69,78,188
1,67,85,332
1,65,81,4
1,74,93,572
1,76,82,364
1,77,88,148
1,65,88,192
1,65,93,200
1,67,72,192
1,65,75,36
1,65,90,480
1,67,75,180
1,69,92,0
1,70,78,8
1,69,86,180
1,72,88,24
1,76,90,172
1,77,93,28
1,72,86,160
1,74,98,20
1,76,92,5460
1,77,96,24
1,72,83,156
1,74,90,28
1,74,105,5444
1,73,99,40
1,71,81,4
1,73,76,8
1,73,74,176
1,74,100,20
1,73,94,4
1,71,81,0
1,73,78,380
1,74,98,240
1,73,94,292
1,71,82,312
1,73,81,112
1,74,100,256
1,73,75,24
1,71,75,380
1,73,75,344
1,72,94,312
1,71,89,772
1,69,86,0
1,71,80,20
1,71,88,192
1,72,76,48
1,71,92,336
1,69,79,316
1,71,80,8
1,72,93,260
1,71,78,0
1,69,72,380
1,71,76,8
1,71,100,356
1,69,84,200
1,67,78,16
1,69,84,4
1,71,89,4824
1,72,86,24
1,67,89,212
1,69,90,20
1,71,89,5436
1,72,96,8
1,67,87,156
1,69,85,32
1,74,98,1268
1,71,80,28
1,69,72,16
1,67,75,0
1,69,67,36
1,71,81,216
1,73,71,0
1,69,63,180
1,71,86,356
1,72,87,36
1,67,80,136
1,69,92,44
1,74,93,1268
1,71,78,32
1,69,68,20
1,67,77,0
1,69,72,12
1,71,74,192
1,73,71,544
1,69,69,172
1,71,86,332
1,72,86,24
1,67,81,172
1,69,90,28
1,72,79,1192
1,70,84,184
1,69,72,24
1,67,76,0
1,69,74,20
1,70,65,0
1,69,65,564
1,65,70,0
1,69,75,12
1,65,69,152
1,74,90,604
1,76,77,24
1,77,82,372
1,65,78,16
1,65,82,108
1,67,70,0
1,65,70,0
1,65,86,212
1,67,75,240
1,69,85,136
1,70,73,520
1,69,76,208
1,67,80,32
1,65,83,0
1,74,93,12
1,76,97,176
1,77,74,392
1,65,98,24
1,65,108,284
1,67,70,212
1,65,97,148
1,65,97,352
1,67,82,4
1,69,89,32
1,70,75,12
1,69,88,192
1,72,87,12
1,76,94,152
1,77,98,12
1,72,88,180
1,74,98,24
1,76,96,5432
1,77,101,8
1,72,88,164
1,74,100,40
1,72,92,17676
1,71,97,772
1,69,83,744
1,71,78,0
1,72,89,112
1,71,87,392
1,69,77,356
1,71,82,348
1,72,90,336
1,71,83,388
1,69,74,372
1,71,78,352
1,69,90,256
1,71,84,32
1,69,82,48
1,67,78,8
1,69,83,20
1,62,63,10844
1,64,65,40
1,65,79,20
1,67,82,4
1,69,87,12
1,71,96,12
1,72,105,4
1,74,107,4
1,76,96,4
1,77,76,12
1,74,97,140
1,72,50,204
1,71,64,8
1,70,83,0
1,69,78,0
1,68,78,0
1,67,82,8
1,66,78,8
1,65,78,0
1,64,76,8
1,62,88,20
1,60,81,8
1,59,123,16
1,57,90,0
1,55,82,0
1,72,92,1088
1,70,91,48
1,69,87,40
1,67,89,20
1,69,90,12
1,70,78,388
1,69,83,8
1,65,92,4
1,69,84,44
1,65,68,16
1,74,103,728
1,76,97,76
1,77,82,12
1,65,100,32
1,65,97,236
1,67,75,0
1,65,100,184
1,65,100,300
1,67,78,32
1,69,96,72
1,70,82,4
1,69,92,28
1,67,92,4
1,65,86,0
1,74,92,592
1,76,84,4
1,77,94,152
1,65,89,152
1,65,93,208
1,67,81,36
1,65,77,28
1,65,94,380
1,67,80,184
1,69,87,12
1,70,72,4
1,69,79,16
1,72,90,16
1,76,92,156
1,77,103,8
1,72,88,196
1,74,110,16
1,76,85,4344
1,77,103,28
1,74,103,132
1,76,96,5224
1,77,105,24
1,74,110,120
1,69,100,3492
1,72,93,160
1,72,85,188
1,74,103,196
1,77,107,220
1,74,112,220
1,72,26,288
1,71,26,36
1,69,26,20
1,67,26,12
1,65,26,24
1,64,26,16
1,62,26,12
1,60,26,12
1,59,26,20
1,57,26,8
1,55,26,16
1,53,26,8
1,52,26,12
1,50,26,4
1,48,26,0
1,47,26,8
2,43,89,1544
2,43,82,76
2,43,77,452
2,43,77,60
2,43,70,460
2,43,72,64
2,43,67,452
2,43,72,68
2,50,82,460
2,50,66,68
2,50,61,476
2,50,69,80
2,50,67,468
2,50,64,76
2,50,62,280
2,48,72,92
2,50,86,268
2,43,67,12
2,43,79,56
2,43,65,468
2,43,71,68
2,43,62,464
2,43,63,76
2,43,69,464
2,43,68,80
2,50,71,456
2,50,70,56
2,50,71,484
2,50,67,80
2,50,76,484
2,50,67,80
2,50,64,272
2,48,67,84
2,50,82,272
2,50,78,272
2,50,83,72
2,50,80,460
2,50,80,76
2,50,78,460
2,50,77,72
2,50,79,452
2,50,77,92
2,48,82,248
2,50,92,112
2,50,81,84
2,50,81,464
2,50,75,88
2,50,77,464
2,50,81,80
2,50,85,464
2,50,89,84
2,50,100,112
2,50,91,4
2,50,87,64
2,50,86,464
2,50,79,84
2,50,92,468
2,50,89,96
2,50,88,460
2,45,81,64
2,50,88,96
2,45,77,44
2,50,86,64
2,50,87,56
2,50,79,468
2,50,79,76
2,50,89,436
2,50,91,92
2,45,66,252
2,50,79,80
2,50,75,92
2,50,81,120
2,45,70,60
2,43,89,108
2,43,82,68
2,43,77,452
2,43,77,60
2,43,70,456
2,43,72,64
2,43,67,452
2,43,72,72
2,50,82,460
2,50,66,68
2,50,61,472
2,50,69,80
2,50,67,468
2,50,64,80
2,50,62,280
2,48,72,96
2,50,86,268
2,43,67,16
2,43,79,52
2,43,65,468
2,43,71,68
2,43,62,464
2,43,63,80
2,43,69,460
2,43,68,80
2,50,71,456
2,50,70,56
2,50,71,484
2,50,67,76
2,50,76,480
2,50,67,80
2,50,64,272
2,48,67,84
2,50,82,272
2,43,86,272
2,43,73,64
2,43,78,452
2,43,76,72
2,43,62,264
2,48,69,60
2,48,67,68
2,48,67,80
2,48,71,80
2,49,80,80
2,49,69,52
2,49,76,80
2,49,73,72
2,50,80,80
2,50,82,64
2,45,76,224
2,50,86,32
2,50,92,88
2,45,81,272
2,50,87,60
2,50,84,72
2,50,86,240
2,48,79,64
2,48,78,76
2,48,76,80
2,48,79,84
2,46,90,68
2,46,65,68
2,46,63,88
2,46,68,64
2,46,68,80
2,46,73,64
2,46,65,72
2,46,65,64
2,45,72,76
2,45,69,60
2,45,71,80
2,45,72,64
2,45,68,84
2,45,67,72
2,45,67,84
2,45,68,96
2,43,77,76
2,43,69,52
2,43,61,68
2,43,63,56
2,43,61,80
2,43,63,76
2,43,69,288
2,52,62,56
2,52,66,72
2,52,63,92
2,52,67,68
2,49,68,76
2,49,66,64
2,49,68,76
2,49,68,84
2,50,104,80
2,50,96,88
2,50,102,236
2,48,92,64
2,48,86,80
2,48,87,236
2,46,93,52
2,46,91,72
2,46,99,244
2,46,84,72
2,46,88,64
2,46,94,280
2,45,87,84
2,45,85,56
2,45,85,84
2,45,84,68
2,45,85,80
2,45,85,80
2,45,83,92
2,45,83,80
2,40,104,80
2,40,92,64
2,40,85,252
2,49,91,72
2,49,87,60
2,49,76,60
2,49,81,56
2,50,89,72
2,50,83,56
2,50,67,456
2,50,69,64
2,50,73,428
2,50,73,84
2,50,72,452
2,50,73,88
2,50,79,460
2,50,73,88
2,50,77,468
2,50,74,84
2,50,80,464
2,50,80,76
2,50,76,456
2,50,86,124
2,50,97,132
2,50,85,12
2,50,81,80
2,50,79,468
2,50,76,100
2,45,78,264
2,50,83,136
2,50,81,76
2,50,73,492
2,45,80,76
2,50,77,104
2,45,77,84
2,50,82,108
2,50,82,76
2,50,77,468
2,50,86,92
2,45,77,260
2,50,86,112
2,50,78,88
2,50,85,476
2,50,81,112
2,50,99,124
2,43,89,16
2,43,82,76
2,43,77,452
2,43,77,60
2,43,70,456
2,43,72,64
2,43,67,452
2,43,72,68
2,50,82,464
2,50,66,68
2,50,61,476
2,50,69,80
2,50,67,468
2,50,64,76
2,50,62,280
2,48,72,92
2,50,86,268
2,43,67,8
2,43,79,60
2,43,65,468
2,43,71,72
2,43,62,464
2,43,63,76
2,43,69,464
2,43,68,80
2,50,71,460
2,50,70,56
2,50,71,484
2,50,67,80
2,50,76,484
2,50,67,80
2,50,64,272
2,48,67,84
2,50,82,268
2,43,86,272
2,43,73,64
2,43,78,452
2,43,76,68
2,43,62,264
2,48,69,60
2,48,67,68
2,48,67,80
2,48,71,80
2,49,80,80
2,49,69,52
2,49,76,80
2,49,73,72
2,50,80,80
2,50,82,64
2,45,76,224
2,50,86,32
2,50,92,88
2,45,81,272
2,50,87,60
2,50,84,72
2,50,86,240
2,48,79,68
2,48,78,76
2,48,76,80
2,48,79,88
2,46,90,68
2,46,65,68
2,46,63,88
2,46,68,64
2,46,68,80
2,46,73,60
2,46,65,76
2,46,65,64
2,45,72,76
2,45,69,60
2,45,71,80
2,45,72,64
2,45,68,80
2,45,67,72
2,45,67,80
2,45,68,92
2,43,77,72
2,43,69,52
2,43,61,68
2,43,63,56
2,43,61,84
2,43,63,76
2,43,69,288
2,52,62,56
2,52,66,72
2,52,63,88
2,52,67,68
2,49,68,80
2,49,66,64
2,49,68,76
2,49,68,80
2,50,104,76
2,50,96,84
2,50,102,236
2,48,92,60
2,48,86,80
2,48,87,236
2,46,93,52
2,46,91,72
2,46,99,244
2,46,84,72
2,46,88,64
2,46,94,280
2,45,87,84
2,45,85,56
2,45,85,80
2,45,84,72
2,45,85,80
2,45,85,80
2,45,83,88
2,45,83,80
2,40,104,80
2,40,92,64
2,40,85,252
2,49,91,72
2,49,87,60
2,49,76,64
2,49,81,56
2,50,89,72
2,50,83,60
2,50,67,460
2,50,69,64
2,50,73,432
2,50,73,88
2,50,72,452
2,50,73,84
2,50,79,460
2,50,73,88
2,50,77,468
2,50,74,84
2,50,80,464
2,50,80,80
2,50,76,460
2,50,86,120
2,50,97,132
2,50,85,16
2,50,81,80
2,50,79,468
2,50,76,100
2,45,78,268
2,50,83,136
2,50,81,76
2,50,73,492
2,45,80,76
2,50,77,104
2,45,77,88
2,50,82,104
2,50,82,72
2,50,77,468
2,50,86,92
2,45,77,260
2,50,63,108
2,50,69,80
2,50,67,272
2,50,63,84
2,50,66,104
2,50,71,104
2,45,80,88
2,43,88,80
2,43,73,116
2,43,61,128
2,43,66,100
2,43,63,92
2,43,69,116
2,43,83,116
2,43,69,140
2,42,65,44
2,42,68,64
2,42,65,112
2,42,69,68
2,42,63,96
2,42,68,80
2,42,65,76
2,42,73,84
2,43,84,52
2,43,66,116
2,43,83,88
2,43,67,112
2,43,68,80
2,43,71,100
2,43,64,100
2,43,69,72
2,42,82,84
2,42,76,60
2,42,72,92
2,42,68,84
2,42,73,80
2,42,67,84
2,42,69,52
2,42,73,76
2,41,78,64
2,41,67,116
2,41,71,100
2,41,73,100
2,41,71,100
2,41,69,124
2,41,69,116
2,41,66,92
2,40,83,20
2,40,66,112
2,40,71,84
2,40,68,132
2,40,77,112
2,40,73,120
2,40,70,124
2,40,71,120
2,39,84,88
2,39,73,72
2,39,77,112
2,39,69,96
2,39,68,100
2,39,68,76
2,39,73,76
2,39,76,64
2,38,73,84
2,38,73,96
2,38,68,100
2,38,69,96
2,38,69,76
2,38,69,128
2,38,76,132
2,38,77,92
2,43,64,152
2,43,69,56
2,43,70,452
2,43,77,72
2,43,75,456
2,43,69,80
2,43,71,452
2,43,77,80
2,50,71,444
2,50,77,56
2,50,67,456
2,50,77,64
2,50,74,440
2,50,73,68
2,50,69,264
2,48,81,80
2,50,92,272
2,43,81,20
2,43,76,64
2,43,73,452
2,43,77,60
2,43,73,456
2,43,74,68
2,43,77,468
2,43,76,64
2,50,82,448
2,50,76,68
2,45,72,272
2,50,81,72
2,50,74,76
2,45,69,288
2,50,86,60
2,50,72,72
2,50,74,264
2,48,78,96
2,50,93,264
2,43,89,20
2,43,82,76
2,43,77,452
2,43,77,64
2,43,70,456
2,43,72,64
2,43,67,452
2,43,72,68
2,50,82,464
2,50,66,72
2,50,61,476
2,50,69,80
2,50,67,468
2,50,64,76
2,50,62,280
2,48,72,92
2,50,86,268
2,43,67,12
2,43,79,56
2,43,65,468
2,43,71,72
2,43,62,464
2,43,63,76
2,43,69,460
2,43,68,80
2,50,71,456
2,50,70,56
2,50,71,480
2,50,67,76
2,50,76,480
2,50,67,80
2,50,64,272
2,48,67,84
2,50,82,268
2,43,86,276
2,43,73,60
2,43,78,452
2,43,76,64
2,43,62,264
2,48,69,60
2,48,67,72
2,48,67,80
2,48,71,80
2,49,80,80
2,49,69,52
2,49,76,80
2,49,73,72
2,50,80,80
2,50,82,64
2,45,76,224
2,50,86,32
2,50,92,88
2,45,81,272
2,50,87,60
2,50,84,76
2,50,86,240
2,48,79,68
2,48,78,76
2,48,76,80
2,48,79,88
2,46,90,68
2,46,65,68
2,46,63,88
2,46,68,64
2,46,68,76
2,46,73,60
2,46,65,76
2,46,65,64
2,45,72,76
2,45,69,60
2,45,71,84
2,45,72,64
2,45,68,84
2,45,67,72
2,45,67,84
2,45,68,96
2,43,77,72
2,43,69,52
2,43,61,68
2,43,63,60
2,43,61,80
2,43,63,76
2,43,69,288
2,52,62,60
2,52,66,68
2,52,63,88
2,52,67,68
2,49,68,80
2,49,66,64
2,49,68,76
2,49,68,80
2,50,104,76
2,50,96,84
2,50,102,236
2,48,92,64
2,48,86,80
2,48,87,236
2,46,93,52
2,46,91,76
2,46,99,248
2,46,84,76
2,46,88,64
2,46,94,284
2,45,87,84
2,45,85,56
2,45,85,80
2,45,84,72
2,45,85,80
2,45,85,80
2,45,83,88
2,45,83,80
2,40,104,80
2,40,92,64
2,40,85,256
2,49,91,72
2,49,87,56
2,49,76,64
2,49,81,56
2,50,89,72
2,50,83,56
2,50,67,460
2,50,69,64
2,50,73,428
2,50,73,88
2,50,72,452
2,50,73,84
2,50,79,460
2,50,73,84
2,50,77,468
2,50,74,84
2,50,80,468
2,50,80,80
2,50,76,456
2,50,86,120
2,50,97,132
2,50,85,12
2,50,81,80
2,50,79,468
2,50,76,100
2,45,78,264
2,50,83,136
2,50,81,76
2,50,73,496
2,45,80,76
2,50,77,104
2,45,77,88
2,50,82,108
2,50,82,72
2,50,77,468
2,50,86,92
2,45,77,260
2,50,63,108
2,50,69,76
