track,note,velocity,time
1,36,120,20
1,39,120,88
1,36,120,40
1,36,120,56
1,39,120,116
1,36,120,136
1,39,120,88
1,36,120,40
1,36,120,56
1,39,120,116
1,36,120,136
1,39,120,88
1,36,120,40
1,36,120,56
1,39,120,116
1,36,120,136
1,39,120,88
1,36,120,40
1,36,120,56
1,39,120,116
1,36,120,136
1,39,120,88
1,36,120,40
1,36,120,56
1,39,120,116
1,36,120,136
1,39,120,88
1,36,120,40
1,36,120,56
1,39,120,116
1,36,120,136
1,39,120,88
1,36,120,40
1,36,120,56
1,39,120,116
1,36,120,136
1,39,120,88
1,36,120,40
1,36,120,56
1,39,120,116
1,36,120,136
1,39,120,88
1,36,120,40
1,36,120,56
1,39,120,116
1,36,120,136
1,39,120,88
1,36,120,40
1,36,120,56
1,39,120,116
1,36,120,136
1,39,120,88
1,36,120,40
1,36,120,56
1,39,120,116
1,36,120,136
1,39,120,88
1,36,120,40
1,36,120,56
1,39,120,116
1,36,120,136
1,39,120,88
1,36,120,40
1,36,120,56
1,39,120,116
1,36,120,136
1,39,120,88
1,36,120,40
1,36,120,56
1,39,120,116
1,36,120,136
1,39,120,88
1,36,120,40
1,36,120,56
1,39,120,116
1,36,120,136
1,39,120,88
1,36,120,40
1,36,120,56
1,39,120,116
1,36,120,136
1,39,120,88
1,36,120,40
1,36,120,56
1,39,120,116
1,36,120,136
1,39,120,88
1,36,120,40
1,36,120,56
1,39,120,116
1,36,120,136
1,39,120,88
1,36,120,40
1,36,120,56
1,39,120,116
1,36,120,136
1,39,120,88
1,36,120,40
1,36,120,56
1,39,120,116
1,36,120,136
1,39,120,88
1,36,120,40
1,36,120,56
1,39,120,116
1,36,120,136
1,39,120,88
1,36,120,40
1,36,120,56
1,39,120,116
1,36,120,136
1,39,120,88
1,36,120,40
1,36,120,56
1,39,120,116
1,36,120,136
1,39,120,88
1,36,120,40
1,36,120,56
1,39,120,116
1,36,120,136
1,39,120,88
1,36,120,40
1,36,120,56
1,39,120,116
1,36,120,136
1,39,120,88
1,36,120,40
1,36,120,56
1,39,120,116
1,36,120,136
1,39,120,88
1,36,120,40
1,36,120,56
1,39,120,116
1,36,120,136
1,39,120,88
1,36,120,40
1,36,120,56
1,39,120,116
1,36,120,136
1,39,120,88
1,36,120,40
1,36,120,56
1,39,120,116
1,36,120,136
1,39,120,88
1,36,120,40
1,36,120,56
1,39,120,116
1,36,120,136
1,39,120,88
1,36,120,40
1,36,120,56
1,39,120,116
1,36,120,136
1,39,120,88
1,36,120,40
1,36,120,56
1,39,120,116
1,36,120,136
1,39,120,88
1,36,120,40
1,36,120,56
1,39,120,116
1,36,120,136
1,39,120,88
1,36,120,40
1,36,120,56
1,39,120,116
1,36,120,136
1,39,120,88
1,36,120,40
1,36,120,56
1,39,120,116
1,36,120,136
1,39,120,88
1,36,120,40
1,36,120,56
1,39,120,116
1,36,120,136
1,39,120,88
1,36,120,40
1,36,120,56
1,39,120,116
1,36,120,136
1,39,120,88
1,36,120,40
1,36,120,56
1,39,120,116
1,36,120,136
1,39,120,88
1,36,120,40
1,36,120,56
1,39,120,116
1,36,120,136
1,39,120,88
1,36,120,40
1,36,120,56
1,39,120,116
1,36,120,136
1,39,120,88
1,36,120,40
1,36,120,56
1,39,120,116
1,36,120,136
1,39,120,88
1,36,120,40
1,36,120,56
1,39,120,116
1,36,120,136
1,39,120,88
1,36,120,40
1,36,120,56
1,39,120,116
1,36,120,136
1,39,120,88
1,36,120,40
1,36,120,56
1,39,120,116
1,36,120,136
1,39,120,88
1,36,120,40
1,36,120,56
1,39,120,116
1,36,120,136
1,39,120,88
1,36,120,40
1,36,120,56
1,39,120,116
1,36,120,136
1,39,120,88
1,36,120,40
1,36,120,56
1,39,120,116
1,36,120,136
1,39,120,88
1,36,120,40
1,36,120,56
1,39,120,116
1,36,120,136
1,39,120,88
1,36,120,40
1,36,120,56
1,39,120,116
1,36,120,136
1,39,120,88
1,36,120,40
1,36,120,56
1,39,120,116
1,36,120,136
1,39,120,88
1,36,120,40
1,36,120,56
1,39,120,116
1,36,120,136
1,39,120,88
1,36,120,40
1,36,120,56
1,39,120,116
1,36,120,136
1,39,120,88
1,36,120,40
1,36,120,56
1,39,120,116
1,36,120,136
1,39,120,88
1,36,120,40
1,36,120,56
1,39,120,116
1,36,120,136
1,39,120,88
1,36,120,40
1,36,120,56
1,39,120,116
1,36,120,136
1,39,120,88
1,36,120,40
1,36,120,56
1,39,120,116
1,36,120,136
1,39,120,88
1,36,120,40
1,36,120,56
1,39,120,116
1,36,120,136
1,39,120,88
1,36,120,40
1,36,120,56
1,39,120,116
1,36,120,136
1,39,120,88
1,36,120,40
1,36,120,56
1,39,120,116
1,36,120,136
1,39,120,88
1,36,120,40
1,36,120,56
1,39,120,116
1,36,120,136
1,39,120,88
1,36,120,40
1,36,120,56
1,39,120,116
1,36,120,136
1,39,120,88
1,36,120,40
1,36,120,56
1,39,120,116
1,36,120,136
1,39,120,88
1,36,120,40
1,36,120,56
1,39,120,116
1,36,120,136
1,39,120,88
1,36,120,40
1,36,120,56
1,39,120,116
1,36,120,136
1,39,120,88
1,36,120,40
1,36,120,56
1,39,120,116
1,36,120,136
1,39,120,88
1,36,120,40
1,36,120,56
1,39,120,116
1,36,120,136
1,39,120,88
1,36,120,40
1,36,120,56
1,39,120,116
1,36,120,136
1,39,120,88
1,36,120,40
1,36,120,56
1,39,120,116
1,36,120,120
1,39,120,116
1,46,120,128
2,58,99,16
2,59,99,0
2,57,99,0
2,58,99,92
2,59,99,124
2,57,99,16
2,58,99,84
2,59,99,0
2,57,99,140
2,58,99,92
2,59,99,136
2,57,99,124
2,58,99,100
2,59,99,0
2,57,99,0
2,58,99,88
2,59,99,148
2,57,99,0
2,59,99,7824
2,57,99,140
2,58,99,92
2,59,99,136
2,57,99,124
2,58,99,100
2,59,99,0
2,57,99,0
2,58,99,88
2,59,99,148
2,57,99,0
2,59,99,7824
2,57,99,140
2,58,99,92
2,59,99,136
2,57,99,124
2,58,99,100
2,59,99,0
2,57,99,0
2,58,99,88
2,59,99,148
2,57,99,0
2,65,99,12
2,69,99,0
2,72,99,0
2,72,99,32
2,65,99,0
2,69,99,0
2,65,99,68
2,69,99,0
2,72,99,0
2,72,99,28
2,65,99,0
2,69,99,0
2,63,99,96
2,70,99,0
2,67,99,8
2,70,99,32
2,63,99,4
2,67,99,0
2,67,99,56
2,63,99,0
2,70,99,0
2,70,99,24
2,67,99,8
2,63,99,0
2,65,99,132
2,69,99,0
2,62,99,0
2,69,99,32
2,65,99,0
2,62,99,8
2,69,99,52
2,62,99,0
2,65,99,0
2,65,99,16
2,62,99,0
2,69,99,8
2,62,99,24
2,62,99,20
2,70,99,8
2,67,99,0
2,74,99,12
2,65,99,0
2,70,99,0
2,74,99,24
2,65,99,0
2,70,99,0
2,67,99,16
2,70,99,0
2,75,99,0
2,75,99,32
2,67,99,4
2,70,99,0
2,70,99,16
2,74,99,8
2,65,99,0
2,70,99,32
2,74,99,0
2,65,99,0
2,75,99,24
2,67,99,0
2,70,99,0
2,65,99,8
2,67,99,36
2,75,99,0
2,70,99,0
2,70,99,8
2,65,99,8
2,74,99,0
2,70,99,32
2,65,99,0
2,74,99,8
2,62,127,60
2,71,127,0
2,67,127,8
2,71,127,24
2,62,127,0
2,67,127,0
2,71,127,40
2,62,127,0
2,67,127,0
2,62,127,24
2,71,127,0
2,67,127,0
2,64,127,76
2,67,127,0
2,72,127,0
2,67,127,24
2,72,127,0
2,64,127,0
2,64,127,52
2,72,127,0
2,67,127,8
2,64,127,24
2,67,127,0
2,72,127,0
2,67,127,88
2,62,127,4
2,71,127,8
2,71,127,24
2,62,127,4
2,67,127,0
2,62,127,56
2,71,127,8
2,67,127,0
2,62,127,24
2,67,127,8
2,71,127,0
2,64,99,216
2,67,99,0
2,72,99,0
2,65,99,36
2,70,99,0
2,62,99,0
2,65,99,24
2,69,99,8
2,60,99,4
2,65,99,0
2,63,99,68
2,60,99,8
2,67,99,16
2,59,99,7848
2,57,99,140
2,58,99,92
2,59,99,136
2,57,99,124
2,58,99,100
2,59,99,0
2,57,99,0
2,58,99,88
2,59,99,148
2,57,99,0
2,72,99,48
2,71,99,92
2,72,99,0
2,71,99,8
2,72,99,0
2,74,99,0
2,72,99,0
2,72,99,32
2,72,99,28
2,70,99,0
2,69,99,12
2,70,99,8
2,74,99,128
2,72,99,0
2,71,99,92
2,72,99,0
2,67,99,16
2,69,99,0
2,72,99,8
2,70,99,0
2,67,99,8
2,67,99,16
2,65,99,0
2,64,99,0
2,65,99,48
2,55,99,224
2,55,99,24
2,55,99,16
2,62,99,60
2,62,99,16
2,62,99,24
2,65,99,8
2,65,99,16
2,65,99,28
2,69,99,64
2,69,99,16
2,69,99,24
2,67,99,52
2,66,99,76
2,67,99,20
2,55,99,92
2,59,99,44
2,55,99,44
2,59,99,32
2,55,99,44
2,59,99,0
2,55,99,48
2,62,99,12
2,59,99,44
2,62,99,4
2,59,99,52
2,65,99,0
2,55,99,44
2,65,99,12
2,59,99,52
2,60,99,28
2,60,99,48
2,51,99,0
2,52,99,8
2,53,99,44
2,55,99,44
2,56,99,40
2,57,99,0
2,59,99,7836
2,57,99,140
2,58,99,92
2,59,99,136
2,57,99,124
2,58,99,100
2,59,99,0
2,57,99,0
2,58,99,88
2,59,99,148
2,57,99,0
2,59,99,160
2,57,99,0
2,58,99,88
2,59,99,148
2,57,99,0
2,59,99,152
2,57,99,0
2,58,99,12
2,62,99,0
3,58,99,4
3,62,99,0
3,62,99,84
3,58,99,4
3,59,99,48
3,63,99,4
3,59,99,24
3,63,99,0
3,61,99,40
3,58,99,12
3,62,99,0
3,62,99,12
3,58,99,4
3,59,99,48
3,63,99,4
3,59,99,20
3,63,99,0
3,61,99,40
3,58,99,12
3,62,99,0
3,62,99,12
3,58,99,4
3,59,99,48
3,63,99,4
3,59,99,20
3,63,99,0
3,61,99,40
3,58,99,12
3,62,99,0
3,62,99,12
3,58,99,4
3,59,99,48
3,63,99,4
3,59,99,20
3,63,99,0
3,61,99,40
3,58,99,12
3,62,99,0
3,62,99,12
3,58,99,4
3,59,99,48
3,63,99,4
3,59,99,20
3,63,99,0
3,61,99,40
3,58,99,12
3,62,99,0
3,62,99,12
3,58,99,4
3,59,99,48
3,63,99,4
3,59,99,20
3,63,99,0
3,61,99,40
3,62,99,28
3,58,99,4
3,62,99,20
3,58,99,0
3,62,99,20
3,62,99,20
3,58,99,0
3,58,99,20
3,62,99,0
3,58,99,20
3,62,99,0
3,58,99,28
3,62,99,0
3,62,99,16
3,58,99,0
3,58,99,56
3,62,99,12
3,64,99,48
3,60,99,0
3,60,99,20
3,64,99,0
3,64,99,12
3,60,99,0
3,60,99,20
3,64,99,0
3,60,99,20
3,64,99,0
3,64,99,24
3,60,99,24
3,64,99,24
3,60,99,8
3,64,99,0
3,60,99,8
3,64,99,0
3,64,99,8
3,60,99,8
3,64,99,8
3,60,99,8
3,60,99,52
3,63,99,0
3,63,99,20
3,60,99,0
3,63,99,8
3,60,99,0
3,60,99,28
3,63,99,0
3,63,99,20
3,60,99,0
3,63,99,20
3,60,99,0
3,63,99,20
3,60,99,0
3,63,99,16
3,60,99,0
3,63,99,56
3,60,99,0
3,60,99,16
3,63,99,12
3,62,99,64
3,58,99,0
3,62,99,20
3,58,99,0
3,58,99,8
3,62,99,16
3,58,99,4
3,58,99,16
3,60,99,64
3,57,99,0
3,57,99,20
3,60,99,0
3,57,99,12
3,60,99,20
3,57,99,8
3,57,99,16
3,60,99,0
3,60,99,8
3,57,99,0
3,62,99,36
3,58,99,4
3,62,99,20
3,58,99,0
3,62,99,20
3,62,99,20
3,58,99,0
3,58,99,20
3,62,99,0
3,58,99,20
3,62,99,0
3,58,99,28
3,62,99,0
3,62,99,16
3,58,99,0
3,58,99,56
3,62,99,12
3,64,99,48
3,60,99,0
3,60,99,20
3,64,99,0
3,64,99,12
3,60,99,0
3,60,99,20
3,64,99,0
3,60,99,20
3,64,99,0
3,64,99,24
3,60,99,24
3,64,99,24
3,60,99,8
3,64,99,0
3,60,99,8
3,64,99,0
3,64,99,8
3,60,99,8
3,64,99,8
3,60,99,8
3,60,99,64
3,63,99,0
3,60,99,48
3,63,99,0
3,60,99,12
3,63,99,0
3,63,99,8
3,60,99,4
3,60,99,8
3,63,99,0
3,60,99,48
3,63,99,0
3,60,99,8
3,63,99,0
3,60,99,28
3,63,99,0
3,60,99,20
3,63,99,0
3,58,99,24
3,62,99,0
3,58,99,16
3,62,99,0
3,58,99,16
3,58,99,20
3,62,99,0
3,62,99,8
3,58,99,12
3,58,99,8
3,62,99,0
3,66,99,20
3,62,99,0
3,66,99,28
3,62,99,0
3,66,99,20
3,66,99,28
3,62,99,8
3,67,99,20
3,62,99,4
3,67,99,20
3,62,99,0
3,62,99,8
3,67,99,0
3,62,99,28
3,67,99,0
3,67,99,12
3,62,99,0
3,62,99,20
3,65,99,0
3,65,99,16
3,62,99,0
3,62,99,8
3,65,99,0
3,62,99,20
3,65,99,0
3,65,99,8
3,62,99,12
3,62,99,56
3,64,99,0
3,60,99,0
3,61,99,4
3,64,99,20
3,60,99,0
3,64,99,20
3,60,99,28
3,64,99,0
3,60,99,20
3,64,99,8
3,60,99,48
3,63,99,8
3,63,99,16
3,60,99,0
3,60,99,16
3,63,99,0
3,60,99,28
3,63,99,0
3,60,99,28
3,63,99,0
3,62,99,28
3,58,99,4
3,59,99,44
3,63,99,4
3,59,99,20
3,63,99,0
3,61,99,40
3,58,99,12
3,62,99,0
3,62,99,12
3,58,99,4
3,59,99,48
3,63,99,4
3,59,99,20
3,63,99,0
3,61,99,40
3,58,99,12
3,62,99,0
3,62,99,12
3,58,99,4
3,59,99,48
3,63,99,4
3,59,99,20
3,63,99,0
3,61,99,40
3,58,99,12
3,62,99,0
3,62,99,12
3,58,99,4
3,59,99,48
3,63,99,4
3,59,99,20
3,63,99,0
3,61,99,40
3,62,99,28
3,58,99,4
3,62,99,20
3,58,99,0
3,62,99,20
3,62,99,20
3,58,99,0
3,58,99,20
3,62,99,0
3,58,99,20
3,62,99,0
3,58,99,28
3,62,99,0
3,62,99,16
3,58,99,0
3,58,99,56
3,62,99,12
3,64,99,48
3,60,99,0
3,60,99,20
3,64,99,0
3,64,99,12
3,60,99,0
3,60,99,20
3,64,99,0
3,60,99,20
3,64,99,0
3,64,99,24
3,60,99,24
3,64,99,24
3,60,99,8
3,64,99,0
3,60,99,8
3,64,99,0
3,64,99,8
3,60,99,8
3,64,99,8
3,60,99,8
3,60,99,52
3,63,99,0
3,63,99,20
3,60,99,0
3,63,99,8
3,60,99,0
3,60,99,28
3,63,99,0
3,63,99,20
3,60,99,0
3,63,99,20
3,60,99,0
3,63,99,20
3,60,99,0
3,63,99,16
3,60,99,0
3,63,99,56
3,60,99,0
3,60,99,16
3,63,99,12
3,62,99,64
3,58,99,0
3,62,99,20
3,58,99,0
3,58,99,8
3,62,99,16
3,58,99,4
3,58,99,16
3,60,99,64
3,57,99,0
3,57,99,20
3,60,99,0
3,57,99,12
3,60,99,20
3,57,99,8
3,57,99,16
3,60,99,0
3,60,99,8
3,57,99,0
3,62,99,36
3,58,99,4
3,62,99,20
3,58,99,0
3,62,99,20
3,62,99,20
3,58,99,0
3,58,99,20
3,62,99,0
3,58,99,20
3,62,99,0
3,58,99,28
3,62,99,0
3,62,99,16
3,58,99,0
3,58,99,56
3,62,99,12
3,64,99,48
3,60,99,0
3,60,99,20
3,64,99,0
3,64,99,12
3,60,99,0
3,60,99,20
3,64,99,0
3,60,99,20
3,64,99,0
3,64,99,24
3,60,99,24
3,64,99,24
3,60,99,8
3,64,99,0
3,60,99,8
3,64,99,0
3,64,99,8
3,60,99,8
3,64,99,8
3,60,99,8
3,60,99,64
3,63,99,0
3,60,99,48
3,63,99,0
3,60,99,12
3,63,99,0
3,63,99,8
3,60,99,4
