track,note,velocity,time
1,64,100,680
1,60,100,8
1,60,100,28
1,64,100,0
1,62,100,48
1,60,100,0
1,62,100,40
1,64,100,44
1,64,100,156
1,62,100,128
1,60,100,32
1,62,100,64
1,60,100,40
1,64,100,0
1,60,100,28
1,64,100,0
1,62,100,52
1,60,100,92
1,62,100,12
1,60,100,24
1,69,100,544
1,60,100,0
1,64,100,8
1,69,100,48
1,60,100,8
1,64,100,0
1,67,100,60
1,65,100,28
1,67,100,48
1,64,100,0
1,62,100,4
1,69,100,44
1,62,100,0
1,64,100,4
1,64,100,32
1,69,100,8
1,61,100,0
1,61,100,80
1,67,100,4
1,65,100,44
1,67,100,140
1,62,100,4
1,62,100,44
1,65,100,0
1,65,100,52
1,62,100,4
1,62,100,180
1,65,100,124
1,62,100,40
1,62,100,156
1,65,100,36
1,62,100,0
1,64,100,36
1,60,100,8
1,60,100,28
1,64,100,4
1,64,100,40
1,60,100,8
1,67,100,120
1,60,100,0
1,69,100,56
1,62,100,64
1,60,100,12
1,60,100,84
1,62,100,40
1,60,100,44
1,60,100,124
1,62,100,288
1,60,100,56
1,60,100,840
1,64,100,12
1,60,100,120
1,62,100,64
1,62,100,32
1,60,100,32
1,62,100,756
1,67,100,356
1,64,100,8
1,64,100,36
1,64,100,284
1,60,100,0
1,60,100,36
1,64,100,0
1,62,100,60
1,62,100,416
1,60,100,40
1,64,100,24
1,60,100,8
1,64,100,28
1,60,100,4
1,62,100,16
1,60,100,92
1,62,100,36
1,64,100,36
1,64,100,148
1,62,100,72
1,60,100,40
1,62,100,40
1,64,100,40
1,60,100,4
1,60,100,36
1,64,100,8
1,62,100,40
1,60,100,24
1,62,100,36
1,60,100,28
1,60,100,28
1,64,100,500
1,69,100,0
1,60,100,8
1,69,100,36
1,60,100,0
1,64,100,4
1,67,100,52
1,65,100,20
1,64,100,44
1,62,100,4
1,67,100,0
1,64,100,36
1,62,100,4
1,69,100,0
1,64,100,36
1,69,100,4
1,61,100,0
1,67,100,56
1,61,100,0
1,65,100,36
1,67,100,136
1,62,100,4
1,62,100,20
1,65,100,0
1,62,100,48
1,65,100,8
1,62,100,196
1,65,100,124
1,62,100,36
1,62,100,168
1,65,100,24
1,62,100,4
1,64,100,28
1,60,100,12
1,64,100,36
1,60,100,4
1,64,100,28
1,60,100,12
1,67,100,72
1,60,100,0
1,69,100,64
1,62,100,56
1,60,100,12
1,60,100,68
1,62,100,32
1,60,100,44
1,60,100,64
1,62,100,256
1,60,100,44
1,60,100,820
1,64,100,12
1,60,100,100
1,62,100,64
1,62,100,36
1,60,100,28
1,62,100,716
1,67,100,352
1,64,100,8
1,64,100,28
1,60,100,304
1,64,100,0
1,64,100,36
1,60,100,4
1,62,100,60
1,60,100,156
1,60,100,44
1,60,100,48
1,60,100,32
1,60,100,52
1,60,100,60
1,72,100,80
1,71,100,80
1,62,100,8
1,66,100,0
1,69,100,48
1,62,100,4
1,67,100,20
1,69,100,56
1,66,100,0
1,62,100,4
1,62,100,40
1,66,100,36
1,71,100,4
1,62,100,0
1,71,100,48
1,62,100,8
1,66,100,0
1,62,100,192
1,62,100,24
1,69,100,0
1,66,100,16
1,67,100,36
1,62,100,12
1,66,100,24
1,62,100,16
1,62,100,32
1,62,100,44
1,69,100,172
1,70,100,156
1,70,100,40
1,64,100,8
1,62,100,48
1,60,100,64
1,60,100,52
1,69,100,0
1,64,100,8
1,67,100,40
1,60,100,16
1,64,100,56
1,67,100,0
1,60,100,8
1,69,100,40
1,60,100,0
1,64,100,4
1,67,100,12
1,69,100,48
1,60,100,8
1,64,100,0
1,60,100,252
1,60,100,20
1,67,100,0
1,64,100,4
1,64,100,36
1,60,100,8
1,60,100,28
1,61,100,280
1,62,100,16
1,74,100,288
1,66,100,8
1,74,100,44
1,66,100,4
1,74,100,44
1,66,100,12
1,74,100,56
1,64,100,12
1,68,100,4
1,68,100,44
1,73,100,8
1,64,100,0
1,68,100,28
1,73,100,8
1,64,100,0
1,71,100,40
1,69,100,32
1,71,100,28
1,68,100,4
1,68,100,76
1,73,100,0
1,64,100,4
1,64,100,60
1,68,100,0
1,73,100,0
1,61,100,284
1,69,100,36
1,61,100,4
1,64,100,48
1,61,100,44
1,60,100,44
1,67,100,128
1,71,100,152
1,72,100,28
1,72,100,52
1,66,100,0
1,62,100,44
1,62,100,56
1,66,100,4
1,62,100,48
1,69,100,20
1,62,100,4
1,67,100,32
1,62,100,8
1,69,100,52
1,62,100,4
1,66,100,4
1,71,100,52
1,67,100,8
1,62,100,4
1,71,100,44
1,67,100,4
1,62,100,0
1,62,100,192
1,69,100,28
1,62,100,0
1,66,100,12
1,66,100,4
1,62,100,36
1,64,100,300
1,60,100,16
1,64,100,28
1,60,100,4
1,64,100,28
1,60,100,4
1,62,100,60
1,60,100,84
1,62,100,36
1,64,100,36
1,64,100,160
1,62,100,64
1,60,100,44
1,62,100,4
1,60,100,200
1,64,100,36
1,60,100,4
1,64,100,32
1,60,100,4
1,62,100,52
1,60,100,12
1,62,100,32
1,60,100,28
1,60,100,32
1,69,100,468
1,60,100,8
1,64,100,0
1,69,100,48
1,60,100,0
1,64,100,0
1,67,100,44
1,65,100,0
1,64,100,36
1,67,100,4
1,62,100,8
1,64,100,32
1,62,100,4
1,69,100,4
1,64,100,16
1,69,100,4
1,61,100,8
1,61,100,72
1,67,100,4
1,65,100,44
1,67,100,128
1,62,100,8
1,62,100,44
1,65,100,8
1,65,100,48
1,62,100,8
1,62,100,184
1,65,100,8
1,62,100,36
1,62,100,164
1,65,100,28
1,62,100,8
1,64,100,36
1,60,100,12
1,64,100,32
1,60,100,8
1,64,100,48
1,60,100,4
1,67,100,100
1,60,100,0
1,69,100,64
1,62,100,52
1,60,100,12
1,60,100,84
1,62,100,40
1,60,100,36
1,60,100,68
1,62,100,292
1,60,100,52
1,60,100,836
1,64,100,8
1,60,100,112
1,62,100,64
1,62,100,32
1,60,100,32
1,62,100,712
1,67,100,380
1,64,100,8
1,64,100,40
1,64,100,296
1,60,100,0
1,64,100,28
1,60,100,4
1,62,100,64
1,60,100,188
1,60,100,40
1,60,100,44
1,60,100,40
1,60,100,56
1,60,100,56
1,72,100,60
1,71,100,112
1,66,100,4
1,62,100,4
1,69,100,40
1,62,100,16
1,67,100,28
1,69,100,76
1,62,100,0
1,66,100,0
1,66,100,40
1,62,100,4
1,71,100,0
1,71,100,44
1,66,100,4
1,62,100,4
1,62,100,232
1,62,100,24
1,69,100,4
1,67,100,20
1,69,100,12
1,66,100,32
1,62,100,12
1,62,100,36
1,62,100,48
1,69,100,208
1,70,100,180
1,64,100,36
1,70,100,4
1,60,100,64
1,60,100,56
1,64,100,4
1,69,100,28
1,60,100,4
1,64,100,12
1,67,100,36
1,60,100,12
1,64,100,8
1,64,100,48
1,60,100,8
1,67,100,4
1,69,100,36
1,60,100,4
1,64,100,0
1,69,100,40
1,60,100,4
1,64,100,4
1,60,100,244
1,67,100,132
1,64,100,0
1,64,100,32
1,60,100,4
1,62,100,424
1,74,100,320
1,66,100,4
1,71,100,0
1,74,100,32
1,71,100,4
1,66,100,0
1,66,100,20
1,71,100,8
1,74,100,0
1,74,100,40
1,71,100,8
1,64,100,4
1,68,100,48
1,64,100,4
1,73,100,4
1,64,100,20
1,68,100,4
1,73,100,0
1,71,100,60
1,69,100,92
1,71,100,28
1,68,100,0
1,64,100,76
1,73,100,0
1,68,100,4
1,73,100,44
1,68,100,8
1,64,100,0
1,61,100,308
1,69,100,20
1,61,100,16
1,64,100,52
1,61,100,40
1,60,100,48
1,67,100,124
1,71,100,160
1,72,100,36
1,72,100,48
1,66,100,4
1,64,100,92
1,62,100,20
1,62,100,44
1,69,100,0
1,66,100,12
1,67,100,36
1,62,100,0
1,62,100,48
1,69,100,0
1,66,100,0
1,62,100,56
1,71,100,4
1,71,100,56
1,62,100,4
1,62,100,208
1,66,100,40
1,62,100,4
1,64,100,456
1,60,100,4
1,60,100,28
1,64,100,4
1,62,100,12
1,60,100,0
1,62,100,44
1,64,100,44
1,62,100,8
1,64,100,148
1,62,100,64
1,60,100,24
1,71,100,52
1,64,100,0
1,60,100,4
1,69,100,24
1,60,100,24
1,67,100,84
1,64,100,88
1,62,100,4
1,60,100,36
1,62,100,20
1,60,100,28
1,60,100,44
1,64,100,480
1,69,100,8
1,60,100,4
1,60,100,36
1,69,100,0
1,64,100,8
1,67,100,52
1,65,100,20
1,64,100,36
1,67,100,12
1,62,100,0
1,64,100,32
1,62,100,4
1,69,100,0
1,64,100,20
1,69,100,8
1,61,100,0
1,61,100,72
1,67,100,8
1,65,100,44
1,67,100,136
1,62,100,4
1,62,100,40
1,65,100,4
1,65,100,44
1,62,100,12
1,62,100,188
1,65,100,124
1,62,100,44
1,62,100,164
1,65,100,32
1,62,100,4
1,64,100,36
1,60,100,4
1,64,100,40
1,60,100,8
1,64,100,44
1,67,100,140
1,69,100,60
1,62,100,56
1,60,100,12
1,60,100,100
1,62,100,28
1,60,100,36
1,60,100,76
1,62,100,300
1,60,100,60
1,60,100,844
1,64,100,8
1,60,100,136
1,62,100,76
1,62,100,32
1,60,100,24
1,62,100,728
1,67,100,340
1,64,100,12
1,64,100,40
1,64,100,300
1,60,100,0
1,64,100,40
1,60,100,4
1,62,100,64
1,60,100,152
1,60,100,48
1,64,100,188
1,60,100,0
1,64,100,48
1,67,100,140
1,69,100,52
1,62,100,96
1,60,100,8
1,60,100,112
1,62,100,28
1,60,100,36
1,60,100,56
1,62,100,328
1,60,100,36
1,60,100,1016
1,64,100,8
1,60,100,168
1,62,100,188
1,62,100,28
1,60,100,100
1,63,100,892
1,60,100,12
1,62,100,40
1,60,100,96
1,60,100,148
1,62,100,4
1,62,100,92
1,62,100,40
1,62,100,296
1,60,100,56
1,60,100,36
1,60,100,160
1,62,100,144
1,62,100,56
1,62,100,188
1,65,100,124
1,62,100,4
1,67,100,36
1,62,100,4
1,72,100,308
1,67,100,0
1,63,100,8
1,67,100,104
1,70,100,4
1,63,100,0
1,63,100,276
1,67,100,4
1,60,100,0
1,60,100,44
1,65,100,0
1,63,100,256
1,67,100,76
1,65,100,40
1,63,100,232
1,60,100,8
1,62,100,824
1,60,100,824
1,62,100,88
1,64,100,80
1,67,100,80
1,71,100,108
1,74,100,112
1,76,100,160
1,79,100,308
2,36,98,1560
2,48,102,4
2,55,86,780
2,55,93,120
2,38,96,32
2,39,106,64
2,40,101,72
2,59,92,8
2,57,86,8
2,47,70,112
2,59,92,36
2,57,86,8
2,52,78,20
2,52,94,28
2,59,92,0
2,56,98,0
2,40,88,4
2,56,100,96
2,45,103,244
2,55,82,160
2,52,84,136
2,55,92,72
2,55,89,76
2,52,81,60
2,55,42,132
2,58,88,80
2,55,86,0
2,43,96,8
2,46,98,112
2,55,92,40
2,50,80,0
2,48,98,96
2,36,96,8
2,55,83,8
2,55,93,80
2,57,92,12
2,58,88,32
2,41,93,36
2,52,98,4
2,57,94,0
2,48,95,0
2,48,100,64
2,53,93,0
2,45,101,4
2,52,87,120
2,57,92,32
2,57,94,72
2,45,90,0
2,57,94,88
2,50,89,8
2,53,89,284
2,57,93,112
2,57,50,76
2,57,86,76
2,46,103,4
2,53,77,116
2,58,97,128
2,57,95,84
2,53,85,84
2,57,88,84
2,53,84,8
2,48,98,36
2,55,86,272
2,47,102,76
2,53,89,368
2,45,105,28
2,57,101,436
2,55,101,56
2,43,90,4
2,50,97,120
2,57,101,52
2,55,98,12
2,53,100,40
2,41,92,4
2,57,96,4
2,55,80,104
2,48,88,76
2,52,97,48
2,40,98,0
2,57,94,4
2,57,89,48
2,52,98,104
2,54,92,88
2,57,86,0
2,38,88,128
2,50,101,12
2,45,89,72
2,52,96,96
2,54,90,128
2,52,93,12
2,45,77,24
2,50,101,24
2,52,90,44
2,45,81,116
2,50,101,12
2,59,89,60
2,52,89,8
2,45,81,8
2,50,101,32
2,57,100,40
2,45,80,36
2,57,79,136
2,41,103,92
2,48,82,560
2,53,105,8
2,57,96,100
2,57,86,92
2,57,87,52
2,59,96,4
2,43,100,8
2,59,92,32
2,57,95,8
2,50,96,208
2,50,102,72
2,57,87,20
2,59,71,12
2,57,96,88
2,57,103,112
2,45,108,8
2,52,106,0
2,48,108,0
2,47,100,4
2,52,100,16
2,48,101,124
2,52,103,16
2,57,95,8
2,57,102,176
2,54,101,8
2,50,105,4
2,38,96,4
2,45,102,188
2,59,100,144
2,50,98,92
2,50,100,64
2,38,98,8
2,59,97,64
2,45,96,8
2,50,100,16
2,55,100,60
2,45,106,12
2,48,97,260
2,52,98,132
2,55,97,68
2,52,93,8
2,57,97,52
2,59,101,0
2,43,103,4
2,50,102,388
2,55,101,140
2,57,95,20
2,59,98,24
2,57,78,12
2,50,93,84
2,57,87,24
2,55,87,8
2,36,96,80
2,43,103,280
2,48,103,300
2,55,96,0
2,55,96,112
2,38,101,40
2,39,108,72
2,57,87,72
2,59,93,0
2,40,98,0
2,47,86,132
2,59,97,40
2,57,94,8
2,52,90,20
2,59,92,24
2,52,100,0
2,56,97,4
2,40,100,4
2,56,102,32
2,45,106,4
2,55,93,144
2,52,94,132
2,55,96,80
2,55,96,96
2,52,95,84
2,55,88,80
2,52,89,56
2,55,55,16
2,58,98,48
2,55,89,8
2,43,100,4
2,46,98,124
2,55,96,44
2,50,87,60
2,48,100,88
2,36,92,0
2,38,94,4
2,55,92,8
2,55,94,40
2,57,94,136
2,58,97,36
2,55,71,8
2,52,106,28
2,48,98,4
2,57,97,8
2,41,102,0
2,48,103,20
2,53,103,12
2,45,103,8
2,52,88,104
2,57,95,28
2,45,98,72
2,57,101,4
2,50,103,0
2,57,98,268
2,53,94,8
2,57,96,64
2,57,51,84
2,46,103,76
2,57,95,4
2,53,83,116
2,58,98,148
2,57,96,88
2,53,90,92
2,57,93,72
2,53,83,56
2,48,101,40
2,55,95,272
2,47,100,64
2,53,92,364
2,45,103,32
2,52,92,384
2,43,103,40
2,50,96,124
2,57,100,136
2,55,93,120
2,57,98,40
2,41,101,4
2,53,95,96
2,52,98,60
2,57,92,4
2,40,96,0
2,57,94,56
2,52,101,80
2,57,87,24
2,54,94,8
2,38,96,104
2,50,102,12
2,45,94,4
2,52,94,128
2,54,96,128
2,54,86,20
2,52,93,4
2,45,77,4
2,50,96,20
2,52,93,44
2,45,86,124
2,50,101,28
2,59,88,64
2,52,89,4
2,45,86,116
2,50,101,32
2,57,101,24
2,45,86,36
2,57,78,116
2,41,103,92
2,48,86,556
2,53,103,0
2,57,100,92
2,57,92,76
2,59,100,68
2,57,94,4
2,43,101,8
2,57,90,36
2,59,100,8
2,50,100,212
2,50,105,76
2,57,83,20
2,57,98,36
2,57,102,68
2,52,105,4
2,48,106,4
2,45,102,0
2,47,92,8
2,52,101,12
2,48,96,112
2,52,103,16
2,57,94,4
2,57,101,180
2,54,106,8
2,38,100,4
2,50,103,4
2,45,101,188
2,59,100,140
2,50,97,16
2,38,97,76
2,50,100,4
2,59,97,64
2,45,100,32
2,50,100,24
2,55,98,72
2,45,106,4
2,48,96,268
2,52,100,124
2,55,94,20
2,52,92,32
2,57,98,68
2,59,101,0
2,43,105,12
2,50,101,384
2,55,101,136
2,57,93,24
2,50,83,32
2,57,94,116
2,55,90,4
2,45,105,16
2,52,86,276
2,57,96,8
2,52,81,252
2,38,100,228
2,50,100,0
2,45,93,128
2,50,89,32
2,50,94,76
2,38,96,0
2,45,100,108
2,50,89,12
2,43,98,28
2,50,81,128
2,55,102,16
2,50,96,392
2,59,92,144
2,59,85,68
2,50,85,40
2,55,98,44
2,59,78,64
2,50,95,24
2,59,85,136
2,55,98,28
2,50,86,120
2,58,101,24
2,43,101,0
2,58,94,64
2,46,106,56
2,50,86,260
2,55,95,164
2,48,101,88
2,36,98,8
2,43,86,376
2,48,93,56
2,48,98,56
2,41,102,116
2,48,87,112
2,53,103,16
2,48,92,388
2,57,94,124
2,57,94,76
2,48,90,28
