track,note,velocity,time
3,38,81,33364
3,38,71,68
3,38,86,116
3,35,78,52
3,35,66,40
3,35,78,88
3,30,54,12
3,31,59,28
3,31,72,96
3,31,78,128
3,35,86,48
3,38,78,44
3,33,79,196
3,31,83,12
3,31,69,96
3,31,88,176
3,31,83,8
3,31,79,136
3,31,88,136
3,38,73,16
3,30,81,12
3,30,75,92
3,30,89,160
3,33,74,24
3,38,75,588
3,33,72,4
3,31,72,36
3,31,82,84
3,31,88,112
3,31,90,196
3,31,92,128
3,31,83,208
3,31,83,216
3,38,78,324
3,30,79,76
3,30,71,100
3,30,86,144
3,35,79,112
3,35,71,88
3,35,86,108
3,30,81,16
3,28,88,44
3,33,72,20
3,38,89,88
3,45,71,192
3,50,76,16
3,50,82,112
3,38,96,960
3,45,68,16
3,50,71,72
3,50,75,156
3,38,91,952
3,45,68,4
3,50,71,72
3,50,57,152
3,38,96,964
3,45,70,56
3,50,68,88
3,50,78,128
3,45,69,52
3,38,110,108
3,38,79,116
3,38,88,156
3,38,101,160
3,35,85,76
3,35,86,124
3,35,101,144
3,30,96,20
3,31,97,72
3,31,78,100
3,31,88,128
3,35,107,72
3,38,94,120
3,33,107,32
3,31,99,76
3,31,85,108
3,31,90,148
3,31,97,84
3,31,94,120
3,31,92,140
3,38,97,24
3,30,100,400
3,30,96,116
3,30,96,160
3,33,107,124
3,38,97,44
3,33,99,12
3,43,101,28
3,43,79,108
3,43,99,156
3,43,85,100
3,43,97,136
3,43,88,84
3,43,90,204
3,38,79,32
3,42,100,4
3,42,96,132
3,42,100,120
3,35,86,28
3,35,85,108
3,35,92,120
3,47,86,24
3,40,104,12
3,40,73,88
3,40,97,140
3,40,90,116
3,40,94,152
3,40,86,92
3,40,97,216
3,35,101,4
3,33,101,28
3,33,83,76
3,33,99,140
3,45,92,12
3,45,74,76
3,45,110,148
3,33,85,36
3,38,110,164
3,38,79,112
3,38,88,164
3,38,101,160
3,35,85,76
3,35,86,128
3,35,101,140
3,30,96,56
3,31,97,72
3,31,78,108
3,31,88,132
3,35,107,72
3,38,94,116
3,33,107,36
3,31,99,76
3,31,85,108
3,31,90,144
3,31,97,88
3,31,94,120
3,31,92,140
3,38,97,24
3,30,100,396
3,30,96,116
3,30,96,160
3,33,107,124
3,38,97,44
3,33,99,12
3,43,101,28
3,43,79,108
3,43,99,152
3,43,85,100
3,43,97,140
3,43,88,88
3,43,90,204
3,38,79,36
3,42,100,0
3,42,96,128
3,42,100,116
3,35,86,28
3,35,85,108
3,35,92,120
3,47,86,24
3,28,110,12
3,28,92,148
3,28,113,164
3,33,107,184
3,33,83,160
3,33,104,156
3,45,97,16
3,26,79,20
3,33,70,192
3,38,90,0
3,38,99,108
3,26,79,24
3,33,71,196
3,38,83,4
3,38,97,128
3,26,88,956
3,33,94,164
3,38,72,8
3,38,82,112
3,26,88,68
3,33,88,196
3,38,62,188
3,38,74,92
3,43,102,176
3,43,84,128
3,43,102,140
3,45,102,32
3,45,76,128
3,45,102,148
3,42,108,28
3,42,99,76
3,42,105,124
3,45,97,20
3,35,98,8
3,35,92,92
3,35,101,132
3,40,101,8
3,40,94,88
3,40,99,120
3,33,97,36
3,33,80,100
3,33,88,100
3,38,109,24
3,38,92,124
3,38,109,140
3,38,101,128
3,50,111,188
3,38,96,264
3,36,111,64
3,48,103,192
3,36,103,244
3,34,124,112
3,34,109,120
3,34,119,132
3,36,107,80
3,36,107,244
3,36,110,236
3,31,117,16
3,36,107,36
3,31,110,64
3,33,117,36
3,33,101,132
3,33,120,168
3,38,110,80
3,38,99,112
3,38,113,132
3,36,101,4
3,34,89,188
3,33,78,40
3,31,110,60
3,33,120,40
3,45,107,20
3,45,117,120
3,40,71,68
3,38,110,248
3,38,79,112
3,38,88,164
3,38,101,160
3,35,85,76
3,35,86,128
3,35,101,140
3,30,96,56
3,31,97,72
3,31,78,108
3,31,88,132
3,35,107,72
3,38,94,116
3,33,107,36
3,31,99,76
3,31,85,108
3,31,90,144
3,31,97,88
3,31,94,116
3,31,92,140
3,38,97,24
3,30,100,396
3,30,96,116
3,30,96,160
3,33,107,124
3,38,97,44
3,33,99,16
3,43,101,28
3,43,79,108
3,43,99,152
3,43,85,100
3,43,97,140
3,43,88,84
3,43,90,204
3,38,79,36
3,42,100,4
3,42,96,132
3,42,100,116
3,35,86,28
3,35,85,108
3,35,92,120
3,47,86,28
3,28,110,12
3,28,92,148
3,28,113,164
3,33,107,184
3,33,83,160
3,33,104,156
3,45,97,16
3,26,79,20
3,33,70,192
3,38,90,0
3,38,99,104
3,26,79,24
3,33,71,196
3,38,83,4
3,38,97,128
3,26,88,956
3,33,94,160
3,38,72,8
3,38,82,108
3,26,88,68
3,33,88,192
3,38,62,192
3,38,74,92
3,38,110,176
3,38,79,116
3,38,88,156
3,38,101,160
3,35,85,72
3,35,86,124
3,35,101,144
3,30,96,56
3,31,97,72
3,31,78,100
3,31,88,128
3,35,107,72
3,38,94,120
3,33,107,32
3,31,99,76
3,31,85,108
3,31,90,148
3,31,97,84
3,31,94,120
3,31,92,136
3,38,97,24
3,30,100,392
3,30,96,116
3,30,96,160
3,33,107,124
3,38,97,44
3,33,99,12
3,43,101,28
3,43,79,108
3,43,99,156
3,43,85,100
3,43,97,136
3,43,88,88
3,43,90,200
3,38,79,32
3,42,100,4
3,42,96,132
3,42,100,120
3,35,86,24
3,35,85,108
3,35,92,120
3,47,86,24
3,40,104,16
3,40,73,88
3,40,97,140
3,40,90,120
3,40,94,152
3,40,86,92
3,40,97,224
3,35,101,4
3,33,101,28
3,33,83,76
3,33,99,140
3,45,92,20
3,45,74,76
3,45,110,144
3,33,85,36
3,38,110,168
3,38,79,120
3,38,88,164
3,38,101,160
3,35,85,72
3,35,86,124
3,35,101,144
3,30,96,56
3,31,97,72
3,31,78,104
3,31,88,128
3,35,107,72
3,38,94,120
3,33,107,36
3,31,99,76
3,31,85,108
3,31,90,148
3,31,97,84
3,31,94,120
3,31,92,140
3,38,97,24
3,30,100,396
3,30,96,116
3,30,96,160
3,33,107,124
3,38,97,44
3,33,99,12
3,31,120,12
3,43,86,28
3,42,100,12
3,35,88,1532
3,40,90,0
3,33,92,0
3,34,86,36
3,34,96,132
3,34,114,144
3,36,97,72
3,48,104,200
3,36,107,428
3,36,104,192
3,33,99,80
3,33,90,128
3,33,99,128
3,38,85,40
3,38,78,148
3,38,88,16
3,33,88,28
3,31,88,24
3,31,97,116
3,31,97,128
3,33,101,144
3,33,94,140
3,33,110,144
3,45,99,8
3,38,117,216
3,38,104,136
3,38,113,156
3,35,101,96
3,35,101,40
3,30,104,48
3,31,107,52
3,31,80,48
3,31,99,64
3,35,107,36
3,38,90,12
3,33,101,32
3,31,107,24
3,31,97,84
3,31,113,124
3,31,113,148
3,31,94,108
3,31,104,132
3,38,107,396
3,30,104,40
3,30,109,120
3,30,114,116
3,30,114,260
3,33,113,44
3,38,97,0
3,33,113,32
3,31,110,48
3,31,99,76
3,31,117,128
3,31,107,100
3,31,101,116
3,31,107,140
3,38,99,380
3,30,104,28
3,30,100,120
3,30,104,148
3,35,104,60
3,35,92,128
3,35,97,120
3,47,88,40
3,40,117,4
3,40,101,116
3,40,110,140
3,28,94,60
3,28,90,104
3,28,99,128
3,40,78,8
3,33,99,16
3,33,101,92
3,33,107,104
3,45,104,8
3,45,104,44
3,45,117,80
3,40,97,64
3,38,117,112
3,38,104,80
3,38,113,104
3,35,101,60
3,35,101,40
3,30,104,8
3,31,107,52
3,31,80,48
3,31,99,64
4,50,79,2636
4,38,80,0
4,57,56,156
4,62,54,192
4,64,52,16
4,67,42,0
4,58,51,0
4,45,54,112
4,38,86,40
4,50,89,8
4,57,64,28
4,62,65,192
4,71,73,192
4,67,73,0
4,69,63,224
4,66,76,0
4,38,65,0
4,50,97,0
4,57,58,68
4,62,69,196
4,67,57,8
4,64,50,0
4,58,58,0
4,45,54,4
4,38,78,8
4,50,87,4
4,57,55,96
4,62,74,192
4,67,43,192
4,71,44,0
4,62,63,84
4,69,54,144
4,67,63,0
4,62,47,0
4,66,73,24
4,64,65,0
4,57,70,24
4,66,51,0
4,50,63,0
4,38,71,0
4,62,76,0
4,50,54,76
4,57,66,76
4,62,70,0
4,66,46,0
4,50,50,76
4,66,59,44
4,56,63,0
4,62,75,4
4,47,71,0
4,47,54,32
4,47,58,72
4,56,54,60
4,62,74,0
4,47,66,8
4,62,69,12
4,66,52,0
4,43,69,0
4,59,66,0
4,43,57,52
4,66,46,60
4,59,64,4
4,62,69,0
4,43,66,56
4,66,52,20
4,47,79,0
4,59,69,0
4,62,76,0
4,47,68,20
4,66,49,52
4,57,67,0
4,60,71,0
4,50,69,8
4,50,73,104
4,66,49,36
4,62,67,4
4,43,78,0
4,59,71,0
4,43,57,84
4,43,66,96
4,58,54,76
4,65,71,0
4,62,79,0
4,43,68,4
4,43,74,72
4,58,34,28
4,65,61,4
4,62,60,0
4,43,65,88
4,66,63,64
4,42,56,4
4,57,71,0
4,62,76,4
4,42,43,80
4,42,59,104
4,60,74,64
4,64,71,0
4,57,73,4
4,45,78,4
4,67,71,0
4,57,66,24
4,60,66,0
4,66,51,0
4,50,71,0
4,66,53,44
4,62,69,0
4,59,66,0
4,43,75,0
4,43,69,56
4,62,76,44
4,66,54,0
4,59,68,0
4,65,74,64
4,43,70,0
4,62,79,0
4,58,59,4
4,43,66,84
4,62,71,4
4,43,73,124
4,58,87,4
4,58,59,32
4,62,79,0
4,65,69,0
4,57,78,8
4,43,46,4
4,55,69,20
4,57,93,28
4,42,73,4
4,66,54,0
4,62,73,4
4,57,65,64
4,66,49,0
4,62,75,4
4,57,70,144
4,66,54,0
4,47,74,0
4,62,74,0
4,66,69,4
4,47,67,4
4,69,87,84
4,57,71,20
4,66,49,0
4,62,78,0
4,62,78,100
4,59,76,0
4,69,79,0
4,40,80,0
4,66,73,0
4,69,74,192
4,62,83,52
4,68,68,0
4,59,86,0
4,40,86,188
4,40,65,64
4,40,80,104
4,59,79,48
4,67,78,0
4,45,73,4
4,62,82,0
4,45,67,36
4,62,76,96
4,67,74,0
4,45,76,0
4,59,75,0
4,67,66,40
4,62,72,4
4,71,75,0
4,74,71,48
4,71,74,0
4,67,72,4
4,69,90,16
4,66,71,0
4,50,83,0
4,38,91,0
4,74,96,0
4,50,74,64
4,57,86,76
4,62,90,0
4,66,66,4
4,50,70,80
4,66,79,44
4,56,83,0
4,62,95,4
4,47,91,0
4,47,74,36
4,47,78,72
4,56,74,60
4,62,94,0
4,47,86,8
4,62,89,8
4,66,72,0
4,43,89,0
4,59,86,4
4,43,77,56
4,66,66,56
4,59,84,4
4,62,89,4
4,43,86,52
4,66,72,20
4,47,99,0
4,59,89,0
4,62,96,0
4,66,69,24
4,60,91,4
4,57,87,0
4,50,89,8
4,45,93,44
4,66,69,32
4,62,87,4
4,43,98,0
4,59,91,0
4,43,77,84
4,43,86,104
4,58,74,76
4,65,91,0
4,62,99,0
4,43,88,4
4,43,94,72
4,58,54,28
4,65,81,0
4,62,80,0
4,43,85,92
4,66,83,64
4,42,76,0
4,57,91,4
4,62,96,0
4,42,63,80
4,42,79,108
4,60,94,68
4,64,91,0
4,57,93,0
4,45,98,4
4,67,91,0
4,57,86,24
4,60,86,0
4,66,71,0
4,50,91,0
4,66,73,44
4,62,89,0
4,59,86,0
4,43,95,0
4,43,89,52
4,62,96,44
4,66,74,0
4,59,88,0
4,65,94,64
4,43,90,0
4,62,99,0
4,58,79,4
4,43,86,92
4,62,71,4
4,43,93,120
4,58,87,4
4,58,79,24
4,62,99,4
4,65,89,0
4,57,78,4
4,43,66,4
4,55,69,20
4,57,93,24
4,42,93,4
4,66,74,0
4,62,93,4
4,57,85,64
4,66,69,0
4,62,95,4
4,57,90,140
4,66,74,4
4,47,94,0
4,62,94,0
4,66,69,4
4,47,87,4
4,69,87,80
4,57,91,28
4,66,69,0
4,62,98,0
4,40,85,96
4,59,75,0
4,62,80,0
4,67,78,0
4,59,78,104
4,67,76,0
4,62,75,0
4,45,90,100
4,50,127,0
4,38,61,0
4,57,107,188
4,62,105,184
4,64,103,16
4,58,102,0
4,67,93,0
4,45,35,116
4,38,67,40
4,50,127,4
4,57,115,0
4,62,116,192
4,67,124,196
4,71,124,0
4,67,127,220
4,69,114,0
4,38,46,44
4,50,127,0
4,57,109,64
4,62,120,192
4,64,101,4
4,67,108,0
4,58,109,0
4,45,35,48
4,38,59,8
4,50,127,8
4,57,106,48
4,62,125,192
4,71,95,192
4,67,94,0
4,67,114,144
4,69,105,0
4,62,98,192
4,50,94,4
4,66,84,4
4,57,86,4
4,62,94,0
4,62,82,168
4,66,75,0
4,57,70,0
4,62,88,144
4,57,85,0
4,66,75,0
4,56,86,140
4,66,75,0
4,62,86,4
4,47,86,4
4,56,51,152
4,66,58,0
4,62,67,4
4,56,71,132
4,66,66,4
4,62,78,4
4,56,68,136
4,62,82,8
4,66,64,0
4,43,76,72
4,62,80,40
4,66,63,0
4,59,78,0
4,59,61,136
4,66,58,0
4,62,62,0
4,59,79,140
4,62,86,0
4,66,73,0
4,47,92,52
4,62,79,16
4,57,75,0
4,59,75,0
4,66,69,4
4,66,71,24
4,60,92,0
4,57,86,0
4,50,86,16
4,43,74,56
4,62,71,40
4,66,56,0
4,59,74,0
4,59,68,132
4,62,73,4
4,66,71,0
4,62,83,152
4,59,76,0
4,66,75,0
4,43,83,100
4,58,69,24
4,62,90,0
4,65,83,0
4,58,60,140
4,62,74,0
4,65,72,8
4,65,80,148
4,62,88,4
4,58,73,0
4,62,88,168
4,57,82,0
4,66,73,0
4,42,92,8
4,57,80,8
4,57,78,88
4,66,69,4
4,62,80,4
4,45,94,168
4,64,99,12
4,60,104,4
4,57,94,0
4,67,99,0
4,43,47,32
4,50,83,80
4,57,94,0
4,60,104,0
4,66,96,4
4,64,69,36
4,66,84,192
4,43,99,92
4,59,85,16
4,62,83,0
4,66,79,4
4,59,76,120
4,66,77,4
4,62,85,0
4,66,86,144
4,62,97,0
4,59,92,4
4,43,92,108
4,58,81,12
4,62,85,4
4,65,82,0
4,62,88,48
4,58,79,0
4,65,85,0
4,58,75,176
4,62,88,0
4,65,90,0
4,62,86,160
4,57,85,0
4,66,79,0
4,42,92,4
4,57,74,104
4,66,66,0
4,62,80,4
4,62,88,148
4,57,86,0
4,66,77,0
4,47,97,232
4,66,79,20
4,59,73,0
4,57,78,0
4,62,90,0
4,62,76,136
4,57,60,0
4,59,57,4
4,66,58,0
4,66,77,152
4,62,88,4
4,59,74,0
4,57,82,0
4,40,75,172
4,62,94,0
4,66,81,4
4,59,80,4
4,57,85,4
4,66,73,104
4,62,86,0
4,59,62,4
4,57,68,0
4,62,92,148
4,66,86,0
4,59,85,4
4,57,92,0
4,59,70,52
4,57,90,0
4,66,81,0
4,62,94,0
4,62,83,64
4,66,77,0
4,59,73,8
4,57,75,4
4,59,107,228
4,64,101,4
4,57,97,0
4,64,86,68
4,59,83,0
4,57,69,0
4,59,97,224
4,57,86,0
4,64,92,8
4,40,94,352
4,45,101,96
4,62,83,0
4,67,107,0
4,59,88,0
4,62,92,36
4,67,88,92
4,62,88,0
4,59,83,0
4,67,90,128
4,62,88,4
4,59,80,0
4,62,99,84
4,59,90,128
4,67,97,0
4,62,94,0
4,59,92,104
4,62,97,4
4,67,99,4
4,62,107,12
4,67,72,204
4,71,72,0
4,74,72,4
4,67,99,120
4,71,104,0
4,62,107,0
4,45,53,28
4,50,94,156
4,66,84,4
4,57,86,0
4,62,94,0
4,62,82,168
4,66,75,0
4,57,70,0
4,62,88,140
4,57,85,4
4,66,75,0
4,56,86,140
4,66,75,0
4,62,86,4
4,47,86,4
4,56,51,152
4,66,58,0
4,62,67,4
4,56,71,136
4,66,66,0
4,62,78,4
4,56,68,136
4,62,82,4
4,66,64,0
4,43,76,72
4,62,80,40
4,66,63,0
4,59,78,0
4,59,61,136
4,66,58,0
