track,note,velocity,time
0,38,108,864
0,38,100,92
0,38,104,92
0,38,101,92
0,38,107,92
0,35,116,92
0,49,85,96
0,35,118,0
0,54,78,0
0,39,81,0
0,28,107,0
0,68,94,0
0,64,98,0
0,59,102,0
0,40,123,0
0,68,69,0
0,64,74,0
0,59,75,0
0,42,74,16
0,38,101,188
0,42,69,0
0,54,79,0
0,39,79,0
0,68,77,0
0,64,78,0
0,59,70,0
0,64,101,0
0,64,100,0
0,42,71,16
0,35,115,16
0,42,69,0
0,54,82,0
0,39,81,0
0,28,109,0
0,59,95,0
0,68,95,0
0,64,95,0
0,68,78,0
0,64,72,0
0,59,74,0
0,63,101,0
0,63,98,0
0,35,116,16
0,42,74,0
0,28,111,0
0,38,107,16
0,42,65,0
0,54,84,0
0,39,85,0
0,28,114,0
0,40,119,0
0,59,97,0
0,68,101,0
0,64,97,0
0,68,71,0
0,64,74,0
0,59,69,0
0,64,97,0
0,64,95,0
0,35,112,16
0,42,71,0
0,29,111,0
0,41,117,0
0,35,111,16
0,42,68,0
0,54,79,0
0,39,80,0
0,30,110,0
0,42,122,0
0,64,101,0
0,69,94,0
0,66,97,0
0,61,94,0
0,66,72,0
0,64,71,0
0,69,69,0
0,66,103,0
0,66,95,0
0,42,74,16
0,38,100,16
0,42,72,0
0,54,83,0
0,39,84,0
0,66,76,0
0,64,72,0
0,69,71,0
0,64,99,0
0,42,65,16
0,35,115,16
0,42,68,0
0,54,78,0
0,39,78,0
0,30,113,0
0,64,102,0
0,66,101,0
0,61,98,0
0,69,100,0
0,69,74,0
0,66,75,0
0,64,71,0
0,63,98,0
0,35,119,16
0,42,71,0
0,30,112,0
0,42,65,16
0,38,100,0
0,54,78,0
0,39,79,0
0,64,99,0
0,66,100,0
0,61,103,0
0,69,100,0
0,66,75,0
0,69,70,0
0,64,77,0
0,61,102,0
0,35,118,16
0,42,74,0
0,30,107,0
0,42,115,0
0,35,114,16
0,42,72,0
0,54,86,0
0,39,84,0
0,32,107,0
0,64,97,0
0,68,97,0
0,59,101,0
0,44,115,0
0,68,75,0
0,59,76,0
0,64,74,0
0,59,96,0
0,42,73,16
0,42,74,188
0,38,108,0
0,54,82,0
0,39,82,0
0,68,75,0
0,64,77,0
0,59,74,0
0,68,98,0
0,42,70,16
0,42,70,16
0,35,113,0
0,54,85,0
0,39,81,0
0,32,114,0
0,68,72,0
0,64,76,0
0,59,74,0
0,66,101,0
0,42,65,16
0,35,118,0
0,32,108,0
0,38,100,16
0,42,65,0
0,54,87,0
0,39,81,0
0,44,119,0
0,64,77,0
0,68,75,0
0,59,75,0
0,64,103,0
0,68,101,0
0,35,118,16
0,42,65,0
0,32,108,0
0,35,112,16
0,42,69,0
0,54,79,0
0,39,80,0
0,33,112,0
0,45,114,0
0,61,94,0
0,64,95,0
0,69,101,0
0,69,78,0
0,64,70,0
0,61,73,0
0,61,103,0
0,69,99,0
0,35,115,16
0,42,68,0
0,42,71,16
0,38,106,0
0,54,82,0
0,39,83,0
0,61,77,0
0,69,72,0
0,64,76,0
0,64,100,0
0,68,100,0
0,42,73,16
0,35,116,0
0,33,109,0
0,42,71,16
0,54,83,0
0,39,82,0
0,35,110,0
0,47,116,0
0,63,96,0
0,71,100,0
0,66,97,0
0,63,74,0
0,66,72,0
0,71,74,0
0,63,100,0
0,66,101,0
0,35,119,16
0,42,69,0
0,33,108,0
0,35,112,16
0,38,100,0
0,42,74,0
0,54,86,0
0,39,79,0
0,32,114,0
0,66,69,0
0,63,69,0
0,71,71,0
0,61,95,0
0,64,102,0
0,35,120,16
0,38,107,0
0,42,66,0
0,30,110,0
0,49,94,0
0,35,118,0
0,54,81,0
0,39,83,0
0,28,111,0
0,68,99,0
0,59,100,0
0,64,103,0
0,68,74,0
0,64,72,0
0,59,72,0
0,59,95,0
0,64,119,0
0,42,69,16
0,42,74,16
0,38,107,0
0,54,84,0
0,39,84,0
0,68,75,0
0,64,69,0
0,59,77,0
0,64,115,0
0,42,65,16
0,59,66,0
0,42,70,16
0,35,114,0
0,54,82,0
0,39,86,0
0,28,114,0
0,68,76,0
0,64,75,0
0,59,74,0
0,64,115,0
0,42,71,16
0,35,113,0
0,28,114,0
0,42,69,16
0,38,105,0
0,54,87,0
0,39,84,0
0,64,100,0
0,40,114,0
0,59,97,0
0,68,103,0
0,68,75,0
0,64,77,0
0,59,78,0
0,42,73,16
0,29,113,0
0,41,115,0
0,59,67,0
0,35,114,16
0,42,68,0
0,54,79,0
0,39,78,0
0,30,113,0
0,64,92,0
0,42,116,0
0,66,86,0
0,69,92,0
0,61,88,0
0,64,70,0
0,69,72,0
0,61,71,0
0,42,67,16
0,38,100,16
0,42,69,0
0,54,83,0
0,39,80,0
0,64,89,0
0,61,88,0
0,66,85,0
0,69,92,0
0,61,70,0
0,69,69,0
0,64,74,0
0,63,114,0
0,42,73,16
0,61,60,0
0,64,115,0
0,35,118,16
0,42,66,0
0,54,82,0
0,39,83,0
0,30,108,0
0,66,90,0
0,64,90,0
0,61,89,0
0,69,89,0
0,69,78,0
0,64,69,0
0,61,69,0
0,66,118,0
0,35,116,16
0,42,71,0
0,30,111,0
0,64,122,0
0,42,72,16
0,38,106,0
0,54,86,0
0,39,87,0
0,66,89,0
0,61,92,0
0,64,85,0
0,69,89,0
0,61,75,0
0,69,75,0
0,64,73,0
0,63,117,0
0,42,74,16
0,30,108,0
0,42,114,0
0,61,59,0
0,61,115,0
0,35,116,16
0,42,67,0
0,54,85,0
0,39,82,0
0,32,113,0
0,64,87,0
0,68,88,0
0,59,85,0
0,44,121,0
0,68,77,0
0,64,75,0
0,59,74,0
0,61,115,0
0,42,65,16
0,38,106,16
0,42,71,0
0,54,87,0
0,39,87,0
0,68,86,0
0,64,91,0
0,59,88,0
0,68,75,0
0,64,70,0
0,59,77,0
0,59,122,0
0,42,66,16
0,59,68,0
0,56,121,0
0,35,113,16
0,42,68,0
0,54,87,0
0,39,83,0
0,32,113,0
0,64,89,0
0,68,89,0
0,59,86,0
0,68,72,0
0,59,78,0
0,64,74,0
0,59,114,0
0,35,116,16
0,42,70,0
0,32,109,0
0,38,102,16
0,42,65,0
0,54,78,0
0,39,81,0
0,64,87,0
0,68,91,0
0,59,90,0
0,64,76,0
0,68,74,0
0,59,69,0
0,42,73,16
0,32,110,0
0,44,121,0
0,59,60,0
0,35,111,16
0,42,70,0
0,54,85,0
0,39,85,0
0,33,110,0
0,45,116,0
0,64,98,0
0,61,103,0
0,69,101,0
0,69,73,0
0,61,72,0
0,64,77,0
0,35,120,16
0,42,68,0
0,57,121,0
0,38,105,16
0,42,68,0
0,54,87,0
0,39,87,0
0,69,71,0
0,64,72,0
0,61,75,0
0,57,115,0
0,35,118,16
0,42,66,0
0,33,108,0
0,61,66,0
0,57,118,0
0,42,71,16
0,54,87,0
0,39,85,0
0,35,113,0
0,66,100,0
0,47,114,0
0,63,99,0
0,71,99,0
0,63,76,0
0,66,76,0
0,71,78,0
0,59,117,0
0,35,114,16
0,42,73,0
0,33,110,0
0,57,114,0
0,35,120,16
0,38,104,0
0,42,71,0
0,54,87,0
0,39,85,0
0,32,112,0
0,66,74,0
0,71,77,0
0,57,82,0
0,56,117,0
0,35,120,16
0,42,65,0
0,30,114,0
0,63,65,0
0,54,123,0
0,35,115,16
0,42,68,0
0,54,85,0
0,39,79,0
0,28,107,0
0,40,115,0
0,68,98,0
0,64,94,0
0,59,97,0
0,68,77,0
0,59,70,0
0,64,74,0
0,56,82,0
0,52,122,0
0,42,70,16
0,42,71,16
0,38,103,0
0,54,80,0
0,39,84,0
0,68,78,0
0,64,76,0
0,59,71,0
0,64,119,0
0,42,65,16
0,59,64,0
0,35,119,16
0,42,70,0
0,54,84,0
0,39,78,0
0,28,112,0
0,68,71,0
0,59,72,0
0,64,75,0
0,64,121,0
0,35,118,16
0,42,74,0
0,28,111,0
0,42,73,16
0,38,106,0
0,54,85,0
0,39,78,0
0,64,99,0
0,68,101,0
0,59,94,0
0,40,118,0
0,68,71,0
0,64,70,0
0,59,78,0
0,59,83,0
0,42,69,16
0,29,108,0
0,41,114,0
0,59,60,0
0,42,72,16
0,35,117,0
0,54,84,0
0,39,79,0
0,30,113,0
0,42,116,0
0,64,97,0
0,69,98,0
0,66,95,0
0,61,98,0
0,64,77,0
0,69,72,0
0,61,71,0
0,57,81,0
0,42,67,16
0,64,115,0
0,42,72,16
0,38,107,0
0,54,80,0
0,39,84,0
0,69,76,0
0,61,69,0
0,64,77,0
0,63,117,0
0,42,73,16
0,61,64,0
0,64,117,0
0,35,120,16
0,42,71,0
0,54,78,0
0,39,82,0
0,30,108,0
0,64,99,0
0,66,101,0
0,61,97,0
0,69,94,0
0,69,75,0
0,64,74,0
0,61,76,0
0,66,114,0
0,35,117,16
0,42,67,0
0,30,107,0
0,64,117,0
0,42,72,16
0,38,102,0
0,54,78,0
0,39,83,0
0,64,73,0
0,69,75,0
0,61,71,0
0,61,86,0
0,64,88,0
0,63,123,0
0,42,72,16
0,30,113,0
0,42,122,0
0,61,66,0
0,61,116,0
0,42,67,16
0,35,116,0
0,54,82,0
0,39,79,0
0,32,107,0
0,64,100,0
0,68,102,0
0,59,95,0
0,44,119,0
0,64,69,0
0,68,73,0
0,59,74,0
0,59,79,0
0,61,123,0
0,42,73,16
0,59,120,0
0,42,72,16
0,38,107,0
0,54,82,0
0,39,79,0
0,68,74,0
0,64,78,0
0,59,70,0
0,59,120,0
0,42,71,16
0,59,67,0
0,56,118,0
0,35,118,16
0,42,68,0
0,54,83,0
0,39,84,0
0,32,112,0
0,64,95,0
0,68,102,0
0,59,102,0
0,59,74,0
0,68,77,0
0,64,71,0
0,59,117,0
0,35,119,16
0,42,69,0
0,32,107,0
0,38,109,16
0,42,68,0
0,54,79,0
0,39,80,0
0,68,72,0
0,64,78,0
0,59,76,0
0,66,88,0
0,42,68,16
0,32,109,0
0,44,123,0
0,59,61,0
0,35,117,16
0,42,70,0
0,54,87,0
0,39,84,0
0,33,109,0
0,69,98,0
0,64,99,0
0,61,94,0
0,45,121,0
0,69,74,0
0,64,74,0
0,61,74,0
0,61,83,0
0,64,79,0
0,42,65,16
0,35,118,0
0,56,121,0
0,42,67,16
0,38,105,0
0,54,86,0
0,39,78,0
0,69,71,0
0,64,76,0
0,61,72,0
0,56,123,0
0,42,66,16
0,35,113,0
0,33,112,0
0,61,59,0
0,57,121,0
0,42,67,16
0,54,80,0
0,39,78,0
0,35,113,0
0,66,99,0
0,71,96,0
0,63,101,0
0,47,114,0
0,63,70,0
0,66,76,0
0,71,77,0
0,63,85,0
0,66,85,0
0,59,118,0
0,35,117,16
0,42,71,0
0,33,110,0
0,38,105,16
0,42,71,0
0,35,120,0
0,54,81,0
0,39,86,0
0,32,107,0
0,63,78,0
0,71,77,0
0,66,76,0
0,61,117,0
0,35,114,16
0,42,68,0
0,30,111,0
0,63,61,0
0,63,114,0
0,49,88,16
0,35,113,0
0,54,80,0
0,39,79,0
0,28,114,0
0,68,102,0
0,64,95,0
0,40,115,0
0,59,96,0
0,64,69,0
0,68,78,0
0,59,78,0
0,64,120,0
0,42,71,16
0,38,101,16
0,42,68,0
0,54,84,0
0,39,81,0
0,68,73,0
0,64,73,0
0,59,69,0
0,64,122,0
0,42,69,16
0,59,61,0
0,35,114,16
0,42,68,0
0,54,84,0
0,39,83,0
0,28,111,0
0,68,74,0
0,59,76,0
0,64,73,0
0,59,87,0
0,68,86,0
0,64,121,0
0,42,73,16
0,35,113,0
0,28,112,0
0,42,67,16
0,38,109,0
0,54,82,0
0,39,80,0
0,68,101,0
0,64,103,0
0,59,97,0
0,40,123,0
0,68,71,0
0,64,75,0
0,59,73,0
0,59,85,0
0,66,88,0
0,42,66,16
0,29,111,0
0,41,118,0
0,59,62,0
0,35,112,16
0,42,68,0
0,54,84,0
0,39,83,0
0,30,112,0
0,42,118,0
0,64,85,0
0,69,85,0
0,66,89,0
0,61,91,0
0,69,71,0
0,64,77,0
0,61,70,0
0,61,81,0
0,64,84,0
0,42,70,16
0,42,71,188
0,38,101,0
0,54,87,0
0,39,81,0
0,64,92,0
0,61,85,0
0,66,87,0
0,69,84,0
0,61,77,0
0,69,76,0
0,64,78,0
0,63,123,0
0,42,66,16
0,61,64,0
0,64,123,0
0,35,117,16
0,42,74,0
0,54,82,0
0,39,87,0
0,30,112,0
0,69,90,0
0,64,93,0
0,66,90,0
0,61,84,0
0,69,78,0
0,61,74,0
0,64,73,0
0,66,119,0
0,42,69,16
0,35,112,0
0,30,113,0
0,64,122,0
0,42,73,16
0,38,108,0
0,54,86,0
0,39,78,0
0,69,89,0
0,64,87,0
0,66,84,0
0,61,86,0
0,69,78,0
0,64,69,0
0,61,78,0
0,63,114,0
0,42,70,16
0,30,114,0
0,42,115,0
0,61,62,0
0,61,116,0
0,35,119,16
0,42,73,0
0,54,79,0
0,39,80,0
0,32,111,0
0,68,84,0
0,64,86,0
0,59,89,0
0,44,121,0
0,68,78,0
0,64,72,0
0,59,77,0
0,61,119,0
0,42,72,16
0,38,101,16
0,42,69,0
0,54,85,0
0,39,84,0
0,68,90,0
0,64,84,0
0,59,91,0
0,68,71,0
0,64,73,0
0,59,78,0
0,59,122,0
0,42,73,16
0,59,59,0
0,56,120,0
0,42,70,16
0,35,117,0
0,54,82,0
0,39,84,0
0,32,110,0
0,64,91,0
0,59,84,0
0,68,84,0
0,68,72,0
0,64,71,0
0,59,71,0
0,59,87,0
0,68,83,0
0,59,116,0
0,42,72,16
0,35,117,0
0,32,108,0
0,38,102,16
0,42,68,0
0,54,81,0
0,39,79,0
0,64,88,0
0,68,87,0
0,59,87,0
0,68,72,0
0,64,78,0
0,59,73,0
0,59,82,0
0,66,81,0
0,42,66,16
0,32,108,0
0,44,116,0
0,59,60,0
0,42,73,16
0,35,118,0
0,54,80,0
0,39,82,0
0,33,112,0
0,45,115,0
0,64,96,0
0,69,97,0
0,61,95,0
0,69,70,0
0,64,70,0
0,61,73,0
0,61,83,0
0,64,80,0
0,42,73,16
0,35,114,0
0,57,115,0
0,38,104,16
0,42,72,0
0,54,82,0
0,39,87,0
0,69,78,0
0,64,76,0
0,61,72,0
0,57,117,0
0,42,70,16
0,35,119,0
0,33,108,0
0,61,62,0
0,57,119,0
0,42,73,16
0,54,78,0
0,39,86,0
0,35,113,0
0,47,116,0
0,66,101,0
0,63,95,0
0,71,97,0
0,66,69,0
0,63,75,0
0,71,74,0
0,63,80,0
0,66,87,0
0,59,121,0
0,42,74,16
0,35,113,0
0,33,113,0
0,57,114,0
0,42,74,16
0,38,106,0
0,35,114,0
0,54,87,0
0,39,85,0
0,32,108,0
0,63,77,0
0,66,77,0
0,71,76,0
0,56,116,0
0,42,69,16
0,35,117,0
0,30,114,0
0,63,67,0
0,54,119,0
0,49,93,16
0,35,114,0
0,54,81,0
0,39,87,0
0,28,109,0
0,40,116,0
0,68,103,0
0,64,96,0
0,59,100,0
0,59,73,0
0,64,75,0
0,68,75,0
0,52,114,0
0,42,67,16
0,42,72,16
0,38,102,0
0,54,84,0
0,39,79,0
0,64,74,0
0,68,70,0
0,59,71,0
0,64,119,0
0,42,67,16
0,28,114,0
0,59,68,0
0,35,116,16
0,42,74,0
0,54,84,0
0,39,84,0
0,28,108,0
0,59,74,0
0,68,72,0
0,64,77,0
0,59,79,0
0,68,87,0
0,66,122,0
0,42,66,16
0,35,116,0
0,28,110,0
0,42,71,16
0,38,101,0
0,54,86,0
0,39,79,0
0,64,100,0
0,68,103,0
0,59,99,0
0,40,120,0
0,64,77,0
0,68,72,0
0,59,76,0
0,59,80,0
0,66,83,0
0,64,118,0
0,42,69,16
0,29,110,0
0,41,118,0
0,59,67,0
0,42,68,16
0,35,111,0
0,54,78,0
0,39,78,0
0,30,111,0
0,42,121,0
0,69,100,0
0,64,94,0
0,66,100,0
0,61,95,0
0,64,73,0
0,69,71,0
0,61,70,0
0,61,83,0
