track,note,velocity,time
0,40,12,2008
0,40,54,20
0,43,100,0
0,67,84,0
0,71,92,0
0,76,100,0
0,43,104,0
0,67,72,0
0,71,92,0
0,76,92,0
0,40,42,0
0,43,108,0
0,67,84,0
0,71,92,0
0,76,100,0
0,40,60,0
0,43,116,0
0,67,100,0
0,71,104,0
0,76,112,0
0,40,88,0
0,43,124,0
0,67,116,0
0,71,116,0
0,76,120,0
0,40,104,0
0,31,108,0
0,43,84,0
0,35,68,0
0,43,68,0
0,31,108,0
0,43,100,0
0,35,80,0
0,43,68,0
0,44,92,0
0,31,108,0
0,43,112,0
0,35,84,0
0,43,80,0
0,31,108,0
0,43,116,0
0,35,80,0
0,43,84,0
0,31,116,0
0,43,124,0
0,35,48,0
0,43,100,0
0,40,27,186
0,43,92,0
0,67,100,0
0,71,100,0
0,76,108,0
0,40,57,0
0,43,108,0
0,67,92,0
0,71,100,0
0,76,112,0
0,40,72,0
0,44,92,0
0,43,104,0
0,67,88,0
0,71,100,0
0,76,104,0
0,40,80,0
0,43,116,0
0,67,96,0
0,71,100,0
0,76,104,0
0,40,88,0
0,76,124,0
0,43,120,0
0,67,108,0
0,71,100,0
0,40,104,0
0,31,104,0
0,43,88,0
0,35,48,0
0,43,48,0
0,31,108,0
0,43,108,0
0,35,60,0
0,43,64,0
0,44,92,0
0,31,108,0
0,43,108,0
0,35,88,0
0,43,76,0
0,31,108,0
0,43,116,0
0,35,88,0
0,43,80,0
0,31,116,0
0,43,124,0
0,35,104,0
0,43,92,0
0,43,108,0
0,67,88,0
0,71,92,0
0,77,100,0
0,40,52,0
0,40,52,13
0,43,100,0
0,67,92,0
0,71,96,0
0,77,112,0
0,40,52,0
0,44,92,0
0,43,108,0
0,67,92,0
0,71,100,0
0,77,104,0
0,40,72,0
0,43,104,0
0,67,96,0
0,71,100,0
0,77,108,0
0,40,88,0
0,43,120,0
0,67,112,0
0,71,112,0
0,76,124,0
0,40,100,0
0,31,104,0
0,43,116,0
0,35,68,0
0,43,72,0
0,31,120,0
0,43,124,0
0,35,100,0
0,43,96,0
0,44,92,0
0,43,112,0
0,67,88,0
0,71,92,0
0,76,100,0
0,40,68,0
0,43,120,0
0,67,92,0
0,71,100,0
0,77,116,0
0,40,104,0
0,31,108,0
0,43,111,0
0,35,60,0
0,43,76,0
0,31,116,0
0,43,113,0
0,35,108,0
0,43,100,0
0,44,92,0
0,43,112,0
0,67,96,0
0,71,92,0
0,77,112,0
0,40,72,0
0,43,120,0
0,67,100,0
0,71,100,0
0,76,116,0
0,40,100,0
0,31,104,0
0,43,72,0
0,31,120,0
0,67,108,0
0,71,108,0
0,77,116,0
0,35,76,0
0,44,92,0
0,31,96,0
0,43,60,0
0,40,48,0
0,31,120,0
0,67,104,0
0,71,104,0
0,76,120,0
0,43,92,0
0,46,73,0
0,43,100,40
0,31,104,0
0,43,107,0
0,40,100,0
0,37,120,0
0,61,120,0
0,63,120,0
0,65,124,0
0,70,116,0
0,43,116,0
0,35,100,0
0,44,76,0
0,43,120,40
0,40,68,0
0,36,120,0
0,60,120,0
0,62,120,0
0,64,124,0
0,69,116,0
0,43,120,0
0,40,100,0
0,36,124,0
0,36,124,0
0,35,78,0
0,49,80,0
0,43,110,40
0,55,92,0
0,55,87,0
0,48,108,0
0,60,103,0
0,60,108,0
0,64,124,0
0,69,120,0
0,33,116,0
0,52,108,0
0,64,108,0
0,64,103,0
0,35,90,0
0,37,75,0
0,42,75,0
0,55,108,0
0,67,91,0
0,67,96,0
0,36,124,0
0,57,109,0
0,69,100,0
0,69,95,0
0,46,16,0
0,62,112,0
0,67,108,0
0,31,113,0
0,55,108,0
0,67,103,0
0,67,108,0
0,35,82,0
0,46,49,0
0,64,120,0
0,69,116,0
0,33,107,0
0,57,116,0
0,69,116,0
0,69,111,0
0,35,94,0
0,37,75,0
0,42,75,0
0,36,116,0
0,31,101,0
0,48,116,0
0,60,114,0
0,60,112,0
0,46,16,0
0,36,113,0
0,35,78,0
0,46,31,0
0,55,116,0
0,60,116,0
0,65,124,0
0,38,116,0
0,35,90,0
0,37,75,0
0,42,75,0
0,63,124,13
0,51,120,0
0,63,120,0
0,63,104,0
0,46,16,0
0,64,120,40
0,39,112,0
0,35,82,0
0,46,49,0
0,41,116,4
0,55,120,2
0,60,120,0
0,40,108,0
0,40,80,0
0,40,104,0
0,39,100,0
0,35,94,0
0,37,75,0
0,42,75,0
0,38,110,15
0,36,116,0
0,43,113,0
0,37,116,0
0,46,16,0
0,36,111,0
0,35,78,0
0,46,31,0
0,36,100,2
0,43,100,40
0,55,100,0
0,55,95,0
0,36,108,0
0,48,88,0
0,60,95,0
0,60,88,0
0,64,124,0
0,69,124,0
0,33,116,0
0,52,108,0
0,64,108,0
0,64,103,0
0,35,90,0
0,37,75,0
0,42,75,0
0,55,100,0
0,67,95,0
0,67,100,0
0,57,92,0
0,69,92,0
0,69,96,0
0,46,16,0
0,62,120,0
0,67,112,0
0,31,115,0
0,55,108,0
0,67,103,0
0,67,108,0
0,35,82,0
0,46,49,0
0,64,112,0
0,69,116,0
0,33,111,0
0,57,108,0
0,69,108,0
0,69,103,0
0,35,94,0
0,37,75,0
0,42,75,0
0,36,120,0
0,48,112,0
0,60,107,0
0,60,112,0
0,46,16,0
0,36,116,40
0,35,78,0
0,46,31,0
0,40,76,200
0,67,116,0
0,72,120,0
0,34,111,0
0,35,90,0
0,37,75,0
0,42,75,0
0,36,112,28
0,67,112,0
0,72,124,0
0,51,108,0
0,63,108,0
0,63,103,0
0,46,16,0
0,33,107,0
0,35,82,0
0,40,76,0
0,46,49,0
0,41,116,0
0,40,108,3
0,62,124,0
0,67,120,0
0,31,120,0
0,39,100,0
0,35,94,0
0,37,75,0
0,42,75,0
0,38,100,15
0,37,116,19
0,40,72,0
0,46,16,0
0,29,116,0
0,29,111,0
0,35,78,0
0,46,31,0
0,55,70,0
0,36,100,2
0,48,108,40
0,60,108,0
0,60,99,0
0,41,116,0
0,53,88,0
0,65,83,0
0,65,88,0
0,69,124,0
0,74,124,0
0,33,115,0
0,57,104,0
0,69,104,0
0,69,99,0
0,35,90,0
0,37,75,0
0,42,75,0
0,60,96,0
0,72,91,0
0,72,96,0
0,62,88,0
0,74,88,0
0,74,83,0
0,46,16,0
0,67,120,0
0,72,124,0
0,36,116,0
0,60,104,0
0,72,93,0
0,72,104,0
0,35,82,0
0,46,49,0
0,69,116,0
0,74,124,0
0,38,113,0
0,62,108,0
0,74,108,0
0,74,96,0
0,35,94,0
0,37,75,0
0,42,75,0
0,29,116,0
0,33,107,0
0,53,108,0
0,65,102,0
0,65,108,0
0,46,16,0
0,41,119,0
0,35,78,0
0,46,31,0
0,63,120,40
0,66,116,0
0,69,88,0
0,72,112,0
0,39,113,0
0,35,90,0
0,37,75,0
0,42,75,0
0,57,116,13
0,63,124,0
0,66,112,0
0,69,120,0
0,72,124,0
0,69,100,0
0,69,116,0
0,46,16,0
0,36,111,2
0,35,82,0
0,46,49,0
0,57,108,0
0,69,108,0
0,69,103,0
0,38,108,0
0,55,112,0
0,67,107,0
0,67,112,0
0,35,94,0
0,37,75,0
0,42,75,0
0,48,120,40
0,43,108,0
0,36,91,0
0,52,111,0
0,64,109,0
0,64,104,0
0,40,68,0
0,46,16,0
0,36,124,0
0,43,116,0
0,35,78,0
0,46,31,0
0,55,96,7
0,55,91,0
0,43,96,0
0,48,96,42
0,60,98,0
0,60,96,0
0,64,124,0
0,69,120,0
0,36,112,0
0,52,108,0
0,64,108,0
0,64,103,0
0,35,90,0
0,37,75,0
0,42,75,0
0,55,96,0
0,67,91,0
0,67,96,0
0,36,124,0
0,57,96,0
0,69,96,0
0,69,96,0
0,46,16,0
0,62,112,0
0,67,108,0
0,45,108,0
0,55,112,0
0,67,107,0
0,67,112,0
0,35,82,0
0,46,49,0
0,64,120,0
0,69,116,0
0,43,111,0
0,57,104,0
0,69,104,0
0,69,99,0
0,35,94,0
0,37,75,0
0,42,75,0
0,36,116,0
0,48,112,0
0,60,105,0
0,60,114,0
0,46,16,0
0,40,107,0
0,35,78,0
0,46,31,0
0,55,116,200
0,60,116,0
0,40,80,0
0,65,124,0
0,38,111,0
0,35,90,0
0,37,75,0
0,42,75,0
0,63,124,13
0,51,116,0
0,63,116,0
0,63,111,0
0,46,16,0
0,64,120,0
0,36,112,0
0,35,82,0
0,40,88,0
0,46,49,0
0,55,120,2
0,60,120,0
0,33,108,0
0,35,94,0
0,37,75,0
0,42,75,0
0,40,96,40
0,39,108,3
0,43,112,0
0,60,107,0
0,60,112,0
0,46,16,0
0,38,116,0
0,38,109,0
0,46,112,0
0,63,115,0
0,63,113,0
0,35,78,0
0,46,31,0
0,45,116,0
0,62,99,0
0,62,104,0
0,60,124,3
0,64,120,0
0,65,124,0
0,69,116,0
0,43,116,0
0,60,116,0
0,60,111,0
0,40,124,0
0,40,116,0
0,35,90,0
0,37,75,0
0,42,75,0
0,46,16,119
0,41,120,0
0,64,124,0
0,69,124,0
0,41,112,0
0,35,82,0
0,46,49,0
0,40,80,48
0,42,124,0
0,59,120,0
0,63,124,0
0,69,120,0
0,42,116,0
0,35,94,0
0,37,75,0
0,42,75,0
0,57,124,0
0,62,108,0
0,67,112,0
0,38,111,0
0,43,116,0
0,60,111,0
0,60,116,0
0,46,16,0
0,43,116,0
0,43,115,0
0,46,114,0
0,63,114,0
0,63,105,0
0,35,78,0
0,40,76,0
0,49,80,0
0,38,108,0
0,45,92,0
0,62,87,0
0,62,92,0
0,31,116,15
0,43,108,0
0,60,108,0
0,60,103,0
0,41,113,0
0,46,124,0
0,63,109,0
0,63,124,0
0,35,90,0
0,37,75,0
0,42,75,0
0,45,76,0
0,62,76,0
0,62,107,0
0,61,108,36
0,63,108,0
0,53,116,7
0,59,108,2
0,43,108,5
0,60,103,0
0,60,108,0
0,46,16,0
0,39,120,40
0,41,120,0
0,58,120,0
0,58,115,0
0,35,82,0
0,46,49,0
0,43,120,40
0,38,108,38
0,57,70,0
0,40,88,1
0,37,120,0
0,37,113,0
0,42,115,0
0,59,110,0
0,59,124,0
0,35,94,0
0,37,75,0
0,42,75,0
0,36,116,4
0,50,124,0
0,55,120,0
0,57,116,0
0,62,112,0
0,48,97,0
0,60,115,0
0,46,16,0
0,60,109,3
0,36,109,0
0,35,78,0
0,46,31,0
0,34,108,0
0,46,124,0
0,34,108,0
0,35,90,0
0,37,75,0
0,40,64,0
0,42,75,0
0,33,112,9
0,45,124,0
0,61,120,0
0,65,104,0
0,67,100,0
0,72,112,0
0,46,16,0
0,33,111,0
0,35,82,0
0,46,49,0
0,40,76,8
0,39,124,0
0,61,124,0
0,63,104,0
0,65,108,0
0,70,104,0
0,37,116,0
0,72,100,0
0,35,94,0
0,37,75,0
0,42,75,0
0,72,107,0
0,38,124,0
0,60,120,0
0,64,112,0
0,65,108,0
0,69,112,0
0,33,111,0
0,46,16,0
0,38,111,0
0,35,78,0
0,40,84,0
0,46,31,0
0,70,100,0
0,32,124,0
0,58,124,0
0,61,124,0
0,63,120,0
0,70,116,0
0,32,124,0
0,35,90,0
0,37,75,0
0,42,75,0
0,67,111,5
0,31,124,2
0,59,120,0
0,62,112,0
0,64,120,0
0,68,112,0
0,46,16,0
0,43,116,0
0,35,82,0
0,46,49,0
0,38,108,27
0,55,107,139
0,31,112,0
0,40,111,0
0,55,120,0
0,43,116,0
0,57,113,16
0,37,112,0
0,49,124,0
0,53,124,0
0,55,124,0
0,59,120,0
0,63,124,0
0,70,116,0
0,37,112,0
0,43,112,0
0,60,124,0
0,35,94,0
0,37,75,0
0,45,124,0
0,60,115,5
0,36,108,0
0,48,124,0
0,52,116,0
0,57,116,0
0,62,108,0
0,69,100,0
0,36,120,0
0,45,124,0
0,62,120,0
0,46,16,0
0,36,112,0
0,36,116,0
0,48,124,0
0,67,124,0
0,64,119,0
0,35,100,0
0,57,70,0
0,57,112,20
0,62,112,0
0,64,108,0
0,67,104,0
0,35,116,105
0,35,100,0
0,40,80,0
0,59,96,0
0,43,104,40
0,36,108,99
0,51,72,0
0,57,100,40
0,62,96,0
0,64,104,0
0,67,108,0
0,34,116,0
0,35,84,0
0,59,92,0
0,57,92,4
0,62,96,0
0,64,88,0
0,43,120,0
0,55,107,0
0,55,108,0
0,33,119,3
0,45,120,0
0,60,120,0
0,35,100,0
0,40,64,0
0,59,92,0
0,57,113,8
0,36,96,0
0,32,117,0
0,48,124,0
0,62,108,0
0,51,56,0
0,60,115,3
0,57,108,0
0,62,108,0
0,64,108,0
0,67,104,0
0,31,119,0
0,51,124,0
0,63,103,0
0,66,119,0
0,66,120,0
0,35,100,0
0,59,88,0
0,52,116,3
0,67,104,0
0,64,103,0
0,67,99,0
0,36,108,0
0,30,112,0
0,51,112,0
0,63,103,0
0,66,107,0
0,66,112,0
0,35,100,0
0,40,84,0
0,59,84,0
0,57,116,7
0,62,104,0
0,64,112,0
0,67,104,0
0,52,110,0
0,67,100,0
0,64,111,0
0,67,95,0
0,29,119,0
0,48,124,0
0,64,119,0
0,64,120,0
0,35,96,0
0,59,84,0
0,57,108,12
0,62,96,0
0,64,96,0
0,67,104,0
0,40,112,0
0,55,108,0
0,55,107,0
0,40,84,0
0,51,84,0
0,31,108,0
0,43,124,0
0,60,104,0
0,35,88,0
0,57,119,8
0,43,104,40
0,36,112,2
0,29,107,0
0,45,124,0
0,62,120,0
0,60,115,3
0,57,70,12
0,57,112,12
0,62,116,0
0,64,112,0
0,67,108,0
0,36,115,0
0,67,122,0
0,35,96,0
0,59,96,0
0,64,111,11
0,57,84,7
0,62,84,0
0,64,84,0
0,67,80,0
0,38,117,0
0,35,100,0
0,40,80,0
0,59,96,0
0,69,112,24
0,51,68,9
0,40,124,3
0,35,92,0
0,59,92,0
0,43,108,0
0,57,116,0
0,62,112,0
0,64,108,0
0,67,104,0
0,39,99,0
0,40,72,0
0,67,114,0
0,41,108,0
0,35,100,0
0,51,84,0
0,40,93,0
0,59,88,0
0,64,115,1
0,36,112,0
0,57,120,0
0,62,112,0
0,64,116,0
0,67,108,0
0,42,108,0
0,35,100,0
0,40,80,0
0,43,111,0
0,51,72,0
0,36,108,0
0,57,104,0
0,62,104,0
0,64,100,0
0,67,100,0
0,38,113,0
0,35,100,0
0,59,104,0
0,36,116,45
0,57,116,0
0,62,124,0
0,64,112,0
0,67,112,0
0,40,84,0
0,36,115,30
0,35,100,0
0,59,84,0
0,36,104,75
0,57,112,0
0,62,120,0
0,64,112,0
0,67,108,0
0,51,88,0
0,34,116,10
0,35,100,0
0,59,64,0
0,40,44,40
0,40,68,40
0,59,68,0
0,29,117,0
0,35,88,0
0,51,68,40
0,59,64,40
0,41,120,0
0,63,120,0
0,67,112,0
0,69,96,0
0,74,104,0
0,31,115,0
0,35,92,0
0,40,88,0
0,55,70,15
0,57,119,2
0,60,119,160
0,41,120,0
0,63,112,0
0,67,108,0
0,69,100,0
0,72,108,0
0,33,117,0
0,35,92,0
0,59,80,0
0,41,124,13
0,63,116,0
0,67,112,0
0,69,104,0
0,74,100,0
0,36,116,0
0,35,100,0
0,40,76,0
0,51,88,0
0,29,109,0
0,59,76,0
0,41,116,0
0,63,116,0
0,67,108,0
0,69,108,0
0,72,112,0
0,39,112,0
0,35,100,0
0,51,76,90
0,41,108,0
0,63,108,0
0,67,96,0
0,69,76,0
0,74,104,0
0,38,117,0
0,35,100,0
0,40,80,0
0,59,88,0
0,55,104,17
0,57,112,41
0,60,116,50
0,51,76,0
0,62,114,37
0,41,116,0
0,63,116,0
0,67,104,0
0,69,96,0
0,72,116,0
0,36,113,0
0,35,100,0
0,40,40,0
0,59,88,0
0,40,76,40
0,41,116,5
0,63,120,0
0,67,92,0
0,69,92,0
0,74,84,0
0,60,113,8
0,38,112,0
0,35,92,0
0,40,72,0
0,59,96,0
0,62,113,43
0,36,105,0
0,51,64,0
0,57,112,2
0,40,113,0
0,35,92,0
