track,note,velocity,time
2,31,89,0
2,31,0,21
2,43,89,3
2,43,0,21
2,31,89,3
2,31,0,21
2,43,89,3
2,43,0,21
2,31,89,3
2,31,0,21
2,43,89,3
2,43,0,21
2,31,89,3
2,31,0,21
2,43,89,3
2,43,0,21
2,31,89,3
2,31,0,21
2,43,89,3
2,43,0,21
2,31,89,3
2,31,0,21
2,43,89,3
2,43,0,21
2,31,89,3
2,31,0,21
2,43,89,3
2,43,0,21
2,31,89,3
2,31,0,21
2,43,89,3
2,43,0,21
2,38,89,3
2,38,0,21
2,50,89,3
2,50,0,21
2,38,89,3
2,38,0,21
2,50,89,3
2,50,0,21
2,38,89,3
2,38,0,21
2,50,89,3
2,50,0,21
2,38,89,3
2,38,0,21
2,50,89,3
2,50,0,21
2,38,89,3
2,38,0,21
2,50,89,3
2,50,0,21
2,38,89,3
2,38,0,21
2,50,89,3
2,50,0,21
2,48,1,3
2,48,0,45
2,50,1,3
2,50,0,45
2,38,89,3
2,38,0,21
2,50,89,3
2,50,0,21
2,38,89,3
2,38,0,21
2,50,89,3
2,50,0,21
2,38,89,3
2,38,0,21
2,50,89,3
2,50,0,21
2,38,89,3
2,38,0,21
2,50,89,3
2,50,0,21
2,38,89,3
2,38,0,21
2,50,89,3
2,50,0,21
2,38,89,3
2,38,0,21
2,50,89,3
2,50,0,21
2,38,89,3
2,38,0,21
2,50,89,3
2,50,0,21
2,38,89,3
2,38,0,21
2,50,89,3
2,50,0,21
2,38,89,3
2,38,0,21
2,50,89,3
2,50,0,21
2,38,89,3
2,38,0,21
2,50,89,3
2,50,0,21
2,38,89,3
2,38,0,21
2,50,89,3
2,50,0,21
2,38,89,3
2,38,0,21
2,50,89,3
2,50,0,21
2,38,89,3
2,38,0,21
2,50,89,3
2,50,0,21
2,38,89,3
2,38,0,21
2,50,89,3
2,50,0,21
2,38,89,3
2,38,0,21
2,50,89,3
2,50,0,21
2,38,89,3
2,38,0,21
2,50,89,3
2,50,0,21
2,38,89,3
2,38,0,21
2,50,89,3
2,50,0,21
2,38,89,3
2,38,0,21
2,50,89,3
2,50,0,21
2,38,89,3
2,38,0,21
2,50,89,3
2,50,0,21
2,38,89,3
2,38,0,21
2,50,89,3
2,50,0,21
2,38,89,3
2,38,0,21
2,50,89,3
2,50,0,21
2,38,89,3
2,38,0,21
2,50,89,3
2,50,0,21
2,38,89,3
2,38,0,21
2,50,89,3
2,50,0,21
2,38,89,3
2,38,0,21
2,50,89,3
2,50,0,21
2,38,89,3
2,38,0,21
2,50,89,3
2,50,0,21
2,38,89,3
2,38,0,21
2,50,89,3
2,50,0,21
2,38,89,3
2,38,0,21
2,50,89,3
2,50,0,21
2,38,89,3
2,38,0,21
2,50,89,3
2,50,0,21
2,38,89,3
2,38,0,21
2,50,89,3
2,50,0,21
2,38,89,3
2,38,0,21
2,50,89,3
2,50,0,21
2,38,89,3
2,38,0,21
2,50,89,3
2,50,0,21
2,38,89,3
2,38,0,21
2,50,89,3
2,50,0,21
2,38,89,3843
2,38,0,21
2,50,89,3
2,50,0,21
2,38,89,3
2,38,0,21
2,50,89,3
2,50,0,21
2,38,89,3
2,38,0,21
2,50,89,3
2,50,0,21
2,38,89,3
2,38,0,21
2,50,89,3
2,50,0,21
2,38,89,3
2,38,0,21
2,50,89,3
2,50,0,21
2,38,89,3
2,38,0,21
2,50,89,3
2,50,0,21
2,38,89,3
2,38,0,21
2,50,89,3
2,50,0,21
2,38,89,3
2,38,0,21
2,50,89,3
2,50,0,21
2,38,89,3
2,38,0,21
2,50,89,3
2,50,0,21
2,38,89,3
2,38,0,21
2,50,89,3
2,50,0,21
2,38,89,3
2,38,0,21
2,50,89,3
2,50,0,21
2,38,89,3
2,38,0,21
2,50,89,3
2,50,0,21
2,38,89,3
2,38,0,21
2,50,89,3
2,50,0,21
2,38,89,3
2,38,0,21
2,50,89,3
2,50,0,21
2,38,89,3
2,38,0,21
2,50,89,3
2,50,0,21
2,38,89,3
2,38,0,21
2,50,89,3
2,50,0,21
2,38,89,3
2,38,0,21
2,50,89,3
2,50,0,21
2,38,89,3
2,38,0,21
2,50,89,3
2,50,0,21
2,38,89,3
2,38,0,21
2,50,89,3
2,50,0,21
2,38,89,3
2,38,0,21
2,50,89,3
2,50,0,21
2,38,89,3
2,38,0,21
2,50,89,3
2,50,0,21
2,38,89,3
2,38,0,21
2,50,89,3
2,50,0,21
2,38,89,3
2,38,0,21
2,50,89,3
2,50,0,21
2,38,89,3
2,38,0,21
2,50,89,3
2,50,0,21
2,38,89,3
2,38,0,21
2,50,89,3
2,50,0,21
2,38,89,3
2,38,0,21
2,50,89,3
2,50,0,21
2,38,89,3
2,38,0,21
2,50,89,3
2,50,0,21
2,38,89,3
2,38,0,21
2,50,89,3
2,50,0,21
2,38,89,3
2,38,0,21
2,50,89,3
2,50,0,21
2,38,89,3
2,38,0,21
2,50,89,3
2,50,0,21
2,38,89,3
2,38,0,21
2,50,89,3
2,50,0,21
2,38,89,3
2,38,0,21
2,50,89,3
2,50,0,21
2,38,89,3843
2,38,0,21
2,50,89,3
2,50,0,21
2,38,89,3
2,38,0,21
2,50,89,3
2,50,0,21
2,38,89,3
2,38,0,21
2,50,89,3
2,50,0,21
2,38,89,3
2,38,0,21
2,50,89,3
2,50,0,21
2,38,89,3
2,38,0,21
2,50,89,3
2,50,0,21
2,38,89,3
2,38,0,21
2,50,89,3
2,50,0,21
2,38,89,3
2,38,0,21
2,50,89,3
2,50,0,21
2,38,89,3
2,38,0,21
2,50,89,3
2,50,0,21
2,38,89,3
2,38,0,21
2,50,89,3
2,50,0,21
2,38,89,3
2,38,0,21
2,50,89,3
2,50,0,21
2,38,89,3
2,38,0,21
2,50,89,3
2,50,0,21
2,38,89,3
2,38,0,21
2,50,89,3
2,50,0,21
2,38,89,3
2,38,0,21
2,50,89,3
2,50,0,21
2,38,89,3
2,38,0,21
2,50,89,3
2,50,0,21
2,38,89,3
2,38,0,21
2,50,89,3
2,50,0,21
2,38,89,3
2,38,0,21
2,50,89,3
2,50,0,21
2,38,89,3
2,38,0,21
2,50,89,3
2,50,0,21
2,38,89,3
2,38,0,21
2,50,89,3
2,50,0,21
2,38,89,3
2,38,0,21
2,50,89,3
2,50,0,21
2,38,89,3
2,38,0,21
2,50,89,3
2,50,0,21
2,38,89,3
2,38,0,21
2,50,89,3
2,50,0,21
2,38,89,3
2,38,0,21
2,50,89,3
2,50,0,21
2,38,89,3
2,38,0,21
2,50,89,3
2,50,0,21
2,38,89,3
2,38,0,21
2,50,89,3
2,50,0,21
2,38,89,3
2,38,0,21
2,50,89,3
2,50,0,21
2,38,89,3
2,38,0,21
2,50,89,3
2,50,0,21
2,38,89,3
2,38,0,21
2,50,89,3
2,50,0,21
2,38,89,3
2,38,0,21
2,50,89,3
2,50,0,21
2,38,89,3
2,38,0,21
2,50,89,3
2,50,0,21
2,38,89,3
2,38,0,21
2,50,89,3
2,50,0,21
2,38,89,3
2,38,0,21
2,50,89,3
2,50,0,21
2,38,89,3
2,38,0,21
2,50,89,3
2,50,0,21
2,31,89,3075
2,31,0,21
2,43,89,3
2,43,0,21
2,31,89,3
2,31,0,21
2,43,89,3
2,43,0,21
2,31,89,3
2,31,0,21
2,43,89,3
2,43,0,21
2,31,89,3
2,31,0,21
2,43,89,3
2,43,0,21
2,31,89,3
2,31,0,21
2,43,89,3
2,43,0,21
2,31,89,3
2,31,0,21
2,43,89,3
2,43,0,21
2,31,89,3
2,31,0,21
2,43,89,3
2,43,0,21
2,31,89,3
2,31,0,21
2,43,89,3
2,43,0,21
2,38,89,3
2,38,0,21
2,50,89,3
2,50,0,21
2,38,89,3
2,38,0,21
2,50,89,3
2,50,0,21
2,38,89,3
2,38,0,21
2,50,89,3
2,50,0,21
2,38,89,3
2,38,0,21
2,50,89,3
2,50,0,21
2,38,89,3
2,38,0,21
2,50,89,3
2,50,0,21
2,38,89,3
2,38,0,21
2,50,89,3
2,50,0,21
2,48,1,3
2,48,0,45
2,50,1,3
2,50,0,45
2,31,89,3
2,31,0,21
2,43,89,3
2,43,0,21
2,31,89,3
2,31,0,21
2,43,89,3
2,43,0,21
2,31,89,3
2,31,0,21
2,43,89,3
2,43,0,21
2,31,89,3
2,31,0,21
2,43,89,3
2,43,0,21
2,31,89,3
2,31,0,21
2,43,89,3
2,43,0,21
2,31,89,3
2,31,0,21
2,43,89,3
2,43,0,21
2,31,89,3
2,31,0,21
2,43,89,3
2,43,0,21
2,31,89,3
2,31,0,21
2,43,89,3
2,43,0,21
2,38,89,3
2,38,0,21
2,50,89,3
2,50,0,21
2,38,89,3
2,38,0,21
2,50,89,3
2,50,0,21
2,38,89,3
2,38,0,21
2,50,89,3
2,50,0,21
2,38,89,3
2,38,0,21
2,50,89,3
2,50,0,21
2,38,89,3
2,38,0,21
2,50,89,3
2,50,0,21
2,38,89,3
2,38,0,21
2,50,89,3
2,50,0,21
2,48,1,3
2,48,0,45
2,50,1,3
2,50,0,45
2,38,89,3843
2,38,0,21
2,50,89,3
2,50,0,21
2,38,89,3
2,38,0,21
2,50,89,3
2,50,0,21
2,38,89,3
2,38,0,21
2,50,89,3
2,50,0,21
2,38,89,3
2,38,0,21
2,50,89,3
2,50,0,21
2,38,89,3
2,38,0,21
2,50,89,3
2,50,0,21
2,38,89,3
2,38,0,21
2,50,89,3
2,50,0,21
2,38,89,3
2,38,0,21
2,50,89,3
2,50,0,21
2,38,89,3
2,38,0,21
2,50,89,3
2,50,0,21
2,38,89,3
2,38,0,21
2,50,89,3
2,50,0,21
2,38,89,3
2,38,0,21
2,50,89,3
2,50,0,21
2,38,89,3
2,38,0,21
2,50,89,3
2,50,0,21
2,38,89,3
2,38,0,21
2,50,89,3
2,50,0,21
2,38,89,3
2,38,0,21
2,50,89,3
2,50,0,21
2,38,89,3
2,38,0,21
2,50,89,3
2,50,0,21
2,38,89,3
2,38,0,21
2,50,89,3
2,50,0,21
2,38,89,3
2,38,0,21
2,50,89,3
2,50,0,21
2,38,89,3
2,38,0,21
2,50,89,3
2,50,0,21
2,38,89,3
2,38,0,21
2,50,89,3
2,50,0,21
2,38,89,3
2,38,0,21
2,50,89,3
2,50,0,21
2,38,89,3
2,38,0,21
2,50,89,3
2,50,0,21
2,38,89,3
2,38,0,21
2,50,89,3
2,50,0,21
2,38,89,3
2,38,0,21
2,50,89,3
2,50,0,21
2,38,89,3
2,38,0,21
2,50,89,3
2,50,0,21
2,38,89,3
2,38,0,21
2,50,89,3
2,50,0,21
2,38,89,3
2,38,0,21
2,50,89,3
2,50,0,21
2,38,89,3
2,38,0,21
2,50,89,3
2,50,0,21
2,38,89,3
2,38,0,21
2,50,89,3
2,50,0,21
2,38,89,3
2,38,0,21
2,50,89,3
2,50,0,21
2,38,89,3
2,38,0,21
2,50,89,3
2,50,0,21
2,38,89,3
2,38,0,21
2,50,89,3
2,50,0,21
2,38,89,3
2,38,0,21
2,50,89,3
2,50,0,21
2,38,89,3
2,38,0,21
2,50,89,3
2,50,0,21
2,38,89,3
2,38,0,21
2,50,89,3
2,50,0,21
2,38,89,3
2,38,0,21
2,50,89,3
2,50,0,21
2,38,89,3
2,38,0,21
2,50,89,3
2,50,0,21
2,38,89,3
2,38,0,21
2,50,89,3
2,50,0,21
2,38,89,3
2,38,0,21
2,50,89,3
2,50,0,21
2,38,89,3
2,38,0,21
2,50,89,3
2,50,0,21
2,38,89,3
2,38,0,21
2,50,89,3
2,50,0,21
2,38,89,3
2,38,0,21
2,50,89,3
2,50,0,21
2,38,89,3
2,38,0,21
2,50,89,3
2,50,0,21
2,38,89,3
2,38,0,21
2,50,89,3
2,50,0,21
2,38,89,3
2,38,0,21
2,50,89,3
2,50,0,21
2,38,89,3
2,38,0,21
2,50,89,3
2,50,0,21
2,38,89,3
2,38,0,21
2,50,89,3
2,50,0,21
2,38,89,3
2,38,0,21
2,50,89,3
2,50,0,21
2,38,89,3
2,38,0,21
2,50,89,3
2,50,0,21
2,38,89,3
2,38,0,21
2,50,89,3
2,50,0,21
2,38,89,3
2,38,0,21
2,50,89,3
2,50,0,21
2,38,89,3
2,38,0,21
2,50,89,3
2,50,0,21
2,38,89,3
2,38,0,21
2,50,89,3
2,50,0,21
2,38,89,3
2,38,0,21
2,50,89,3
2,50,0,21
2,38,89,3
2,38,0,21
2,50,89,3
2,50,0,21
2,38,89,3
2,38,0,21
2,50,89,3
2,50,0,21
2,38,89,3
2,38,0,21
2,50,89,3
2,50,0,21
2,38,89,3
2,38,0,21
2,50,89,3
2,50,0,21
2,38,89,3
2,38,0,21
2,50,89,3
2,50,0,21
2,38,89,3
2,38,0,21
2,50,89,3
2,50,0,21
2,38,89,3
2,38,0,21
2,50,89,3
2,50,0,21
2,38,89,3
2,38,0,21
2,50,89,3
2,50,0,21
2,38,89,3
2,38,0,21
2,50,89,3
2,50,0,21
2,38,89,3
2,38,0,21
2,50,89,3
2,50,0,21
2,38,89,3
2,38,0,21
2,50,89,3
2,50,0,21
2,38,89,3
2,38,0,21
2,50,89,3
2,50,0,21
2,38,89,3
2,38,0,21
2,50,89,3
2,50,0,21
2,38,89,3
2,38,0,21
2,50,89,3
2,50,0,21
2,38,89,3
2,38,0,21
2,50,89,3
2,50,0,21
2,38,89,3
2,38,0,21
2,50,89,3
2,50,0,21
2,38,89,3
2,38,0,21
2,50,89,3
2,50,0,21
2,38,89,3
2,38,0,21
2,50,89,3
2,50,0,21
2,38,89,3
2,38,0,21
2,50,89,3
2,50,0,21
2,38,89,3
2,38,0,21
2,50,89,3
2,50,0,21
2,38,89,3
2,38,0,21
2,50,89,3
2,50,0,21
2,38,89,3
2,38,0,21
2,50,89,3
2,50,0,21
2,38,89,3
2,38,0,21
2,50,89,3
2,50,0,21
2,38,89,3
2,38,0,21
2,50,89,3
2,50,0,21
2,38,89,3
2,38,0,21
2,50,89,3
2,50,0,21
2,38,89,3
2,38,0,21
2,50,89,3
2,50,0,21
2,38,89,3
2,38,0,21
2,50,89,3
2,50,0,21
2,38,89,3
2,38,0,21
2,50,89,3
2,50,0,21
3,50,1,16440
3,50,0,9
3,50,1,14
3,50,0,9
3,50,1,11
3,50,0,8
3,50,1,8
3,50,0,9
3,50,1,7
3,50,0,9
3,50,1,8
3,50,0,61
3,52,1,6444
3,52,0,45
3,50,1,3
3,50,0,93
3,52,1,627
3,52,0,45
3,50,1,3
3,50,0,93
3,52,1,627
3,52,0,45
3,50,1,3
3,50,0,93
3,38,1,435
3,38,0,45
3,38,1,3
3,38,0,45
3,38,1,3
3,38,0,45
3,38,1,3
3,38,0,45
4,71,104,2352
4,67,104,0
4,74,104,0
4,67,0,21
4,71,0,0
4,74,0,0
4,67,104,3
4,62,104,0
4,71,104,0
4,62,0,69
4,67,0,0
4,71,0,0
4,61,104,3
4,69,104,0
4,61,0,21
4,69,0,0
4,59,104,3
4,67,104,0
4,59,0,69
4,67,0,0
4,61,104,3
4,69,104,0
4,61,0,21
4,69,0,0
4,62,104,3
4,71,104,0
4,62,0,69
4,71,0,0
4,64,104,3
4,73,104,0
4,64,0,21
4,73,0,0
4,66,104,3
4,62,104,0
4,69,104,0
4,62,0,117
4,66,0,0
4,69,0,0
4,64,104,99
4,67,104,0
4,72,104,0
4,64,0,45
4,67,0,0
4,72,0,0
4,66,104,3
4,62,104,0
4,69,104,0
4,62,0,93
4,66,0,0
4,69,0,0
4,71,104,99
4,67,104,0
4,74,104,0
4,67,0,21
4,71,0,0
4,74,0,0
4,67,104,3
4,62,104,0
4,71,104,0
4,62,0,69
4,67,0,0
4,71,0,0
4,61,104,3
4,69,104,0
4,61,0,21
4,69,0,0
4,59,104,3
4,67,104,0
4,59,0,69
4,67,0,0
4,61,104,3
4,69,104,0
4,61,0,21
4,69,0,0
4,62,104,3
4,71,104,0
4,62,0,69
4,71,0,0
4,64,104,3
4,73,104,0
4,64,0,21
4,73,0,0
4,66,104,3
4,62,104,0
