track,note,velocity,time
2,69,110,1536
2,53,110,8
2,65,110,0
2,67,110,12
2,71,110,8
2,69,110,8
2,72,110,0
2,71,110,20
2,74,110,0
2,50,110,16
2,65,110,0
2,69,110,0
2,71,110,4
2,67,110,4
2,69,110,4
2,72,110,4
2,71,110,8
2,74,110,4
2,65,110,4
2,69,110,4
2,67,110,20
2,71,110,0
2,69,110,12
2,72,110,0
2,71,110,0
2,74,110,0
2,55,110,12
2,65,110,0
2,69,110,4
2,67,110,8
2,71,110,4
2,69,110,8
2,72,110,8
2,67,110,20
2,71,110,0
2,71,110,0
2,62,110,4
2,65,110,8
2,62,110,8
2,65,110,4
2,69,110,0
2,62,110,8
2,65,110,8
2,71,110,184
2,62,110,4
2,65,110,4
2,72,110,4
2,71,110,8
2,60,110,8
2,64,110,0
2,69,110,8
2,60,110,8
2,64,110,0
2,67,110,0
2,60,110,16
2,64,110,0
2,71,110,184
2,64,110,8
2,67,110,0
2,72,110,0
2,71,110,12
2,71,110,4
2,62,110,12
2,65,110,0
2,62,110,4
2,65,110,0
2,69,110,0
2,62,110,16
2,65,110,0
2,71,110,192
2,62,110,4
2,65,110,8
2,72,110,0
2,71,110,12
2,60,110,8
2,64,110,0
2,69,110,0
2,60,110,12
2,64,110,0
2,67,110,0
2,60,110,12
2,64,110,0
2,76,110,188
2,67,110,12
2,72,110,0
2,77,110,0
2,79,110,8
2,79,110,0
2,67,110,8
2,71,110,4
2,67,110,8
2,71,110,0
2,69,110,4
2,72,110,0
2,76,110,192
2,69,110,8
2,72,110,4
2,77,110,0
2,79,110,20
2,67,110,8
2,71,110,0
2,79,110,0
2,67,110,24
2,71,110,0
2,69,110,0
2,72,110,0
2,72,110,192
2,69,110,8
2,72,110,8
2,74,110,0
2,76,110,8
2,77,110,8
2,50,110,0
2,69,110,0
2,74,110,0
2,77,110,12
2,77,110,12
2,74,110,8
2,77,110,8
2,48,110,8
2,69,110,0
2,74,110,0
2,79,110,12
2,76,110,12
2,62,110,8
2,67,110,0
2,71,110,0
2,74,110,4
2,60,110,4
2,60,110,20
2,71,110,196
2,72,110,180
2,71,110,20
2,62,110,12
2,65,110,4
2,71,110,0
2,62,110,12
2,65,110,0
2,69,110,0
2,62,110,12
2,65,110,0
2,71,110,192
2,62,110,8
2,65,110,8
2,72,110,0
2,71,110,8
2,60,110,8
2,64,110,0
2,69,110,0
2,60,110,8
2,64,110,8
2,67,110,0
2,60,110,0
2,64,110,0
2,71,110,192
2,64,110,12
2,67,110,0
2,72,110,0
2,71,110,12
2,62,110,8
2,65,110,0
2,71,110,0
2,62,110,12
2,65,110,4
2,69,110,0
2,62,110,0
2,65,110,0
2,71,110,196
2,62,110,8
2,65,110,0
2,72,110,0
2,71,110,16
2,60,110,16
2,64,110,0
2,69,110,0
2,60,110,0
2,64,110,0
2,67,110,0
2,64,110,12
2,60,110,0
2,76,110,188
2,67,110,12
2,72,110,0
2,77,110,0
2,79,110,20
2,67,110,0
2,71,110,8
2,79,110,0
2,67,110,4
2,71,110,0
2,69,110,16
2,72,110,0
2,76,110,192
2,69,110,8
2,72,110,0
2,77,110,0
2,79,110,8
2,67,110,16
2,71,110,0
2,79,110,0
2,71,110,4
2,67,110,0
2,72,110,8
2,69,110,4
2,72,110,188
2,69,110,12
2,72,110,8
2,74,110,0
2,76,110,12
2,77,110,0
2,50,110,12
2,69,110,0
2,74,110,0
2,77,110,20
2,77,110,12
2,77,110,16
2,48,110,0
2,69,110,8
2,74,110,0
2,77,110,0
2,79,110,12
2,76,110,12
2,74,110,8
2,70,110,4
2,72,110,20
2,76,110,0
2,77,110,0
2,74,110,8
2,76,110,12
2,79,110,4
2,70,110,16
2,74,110,0
2,72,110,4
2,76,110,4
2,74,110,20
2,77,110,0
2,76,110,12
2,79,110,0
2,81,110,4
2,77,110,0
2,79,110,12
2,83,110,0
2,81,110,4
2,84,110,0
2,83,110,16
2,86,110,0
2,55,110,4
2,65,110,0
2,69,110,0
2,67,110,12
2,71,110,0
2,69,110,16
2,72,110,4
2,67,110,20
2,71,110,0
2,62,110,8
2,65,110,4
2,71,110,0
2,69,110,8
2,62,110,0
2,65,110,0
2,62,110,12
2,65,110,0
2,71,110,184
2,62,110,4
2,65,110,0
2,72,110,0
2,71,110,16
2,60,110,12
2,64,110,0
2,69,110,0
2,60,110,4
2,64,110,0
2,67,110,0
2,60,110,8
2,64,110,4
2,71,110,188
2,64,110,20
2,67,110,0
2,72,110,0
2,71,110,8
2,71,110,4
2,62,110,8
2,65,110,0
2,69,110,0
2,62,110,4
2,65,110,8
2,62,110,0
2,65,110,4
2,71,110,184
2,62,110,12
2,65,110,8
2,72,110,0
2,71,110,180
2,60,110,16
2,64,110,0
2,69,110,0
2,67,110,0
2,60,110,4
2,64,110,0
2,64,110,4
2,60,110,8
2,76,110,184
2,67,110,8
2,72,110,0
2,77,110,0
2,79,110,8
2,79,110,4
2,67,110,8
2,71,110,0
2,67,110,12
2,71,110,0
2,69,110,0
2,72,110,8
2,76,110,196
2,69,110,8
2,72,110,4
2,77,110,0
2,79,110,8
2,67,110,8
2,71,110,8
2,79,110,0
2,71,110,0
2,67,110,0
2,69,110,12
2,72,110,0
2,72,110,200
2,69,110,0
2,72,110,8
2,74,110,0
2,76,110,12
2,50,110,8
2,69,110,4
2,74,110,0
2,77,110,0
2,77,110,8
2,77,110,12
2,74,110,4
2,48,110,4
2,69,110,0
2,74,110,4
2,77,110,4
2,79,110,12
2,76,110,20
2,62,110,20
2,67,110,0
2,71,110,0
2,74,110,0
2,60,110,0
2,60,110,12
2,71,110,188
2,72,110,16
2,71,110,0
2,62,110,4
2,65,110,4
2,71,110,0
2,62,110,12
2,65,110,4
2,69,110,0
2,62,110,8
2,65,110,0
2,71,110,192
2,62,110,16
2,65,110,0
2,72,110,0
2,71,110,8
2,69,110,0
2,60,110,12
2,64,110,0
2,60,110,8
2,64,110,0
2,67,110,0
2,64,110,4
2,60,110,12
2,71,110,184
2,72,110,12
2,64,110,4
2,67,110,0
2,71,110,12
2,62,110,4
2,65,110,0
2,71,110,4
2,62,110,4
2,65,110,4
2,69,110,0
2,62,110,4
2,65,110,4
2,71,110,196
2,62,110,0
2,65,110,4
2,72,110,0
2,71,110,12
2,69,110,0
2,64,110,0
2,60,110,0
2,48,110,0
2,60,110,8
2,64,110,0
2,67,110,0
2,60,110,16
2,64,110,0
2,64,110,20
2,76,110,0
2,65,110,0
2,77,110,4
2,67,110,8
2,79,110,4
2,67,110,4
2,79,110,0
2,64,110,600
2,76,110,0
2,65,110,12
2,77,110,0
2,67,110,12
2,79,110,0
2,67,110,24
2,79,110,0
2,60,110,576
2,72,110,8
2,62,110,12
2,74,110,4
2,64,110,12
2,76,110,0
2,50,110,20
2,65,110,0
2,69,110,0
2,74,110,0
2,77,110,4
2,77,110,0
2,77,110,8
2,50,110,12
2,65,110,0
2,69,110,0
2,74,110,0
2,77,110,0
2,50,110,12
2,76,110,12
2,74,110,12
2,50,110,8
2,65,110,0
2,69,110,0
2,74,110,0
2,77,110,0
2,77,110,8
2,77,110,16
2,50,110,8
2,65,110,0
2,69,110,0
2,74,110,4
2,77,110,0
2,50,110,8
2,76,110,16
2,74,110,16
2,65,110,8
2,70,110,4
2,74,110,0
2,77,110,0
2,77,110,12
2,77,110,16
2,65,110,16
2,72,110,0
2,77,110,0
2,79,110,8
2,76,110,8
2,62,110,4
2,65,110,0
2,70,110,4
2,74,110,0
2,64,110,12
2,67,110,0
2,72,110,0
2,74,110,8
2,76,110,24
2,65,110,4
2,72,110,0
2,77,110,8
2,72,110,0
2,60,110,0
2,65,110,0
2,62,110,12
2,65,110,0
2,74,110,0
2,70,110,12
2,69,110,0
2,48,110,4
2,67,110,12
2,67,110,16
2,64,110,20
2,67,110,0
2,72,110,0
2,74,110,16
2,76,110,16
2,65,110,8
2,72,110,4
2,77,110,0
2,72,110,0
2,60,110,4
2,65,110,8
2,62,110,12
2,65,110,4
2,74,110,0
2,64,110,4
2,76,110,0
2,48,110,8
2,64,110,8
2,67,110,0
2,74,110,0
2,72,110,20
2,72,110,4
2,64,110,0
2,67,110,8
2,74,110,12
2,76,110,16
2,65,110,8
2,72,110,0
2,77,110,0
2,60,110,0
2,65,110,0
2,72,110,0
2,62,110,12
2,65,110,0
2,74,110,0
2,70,110,0
2,65,110,24
2,69,110,0
2,67,110,8
2,71,110,12
2,72,110,8
2,69,110,12
2,71,110,4
2,74,110,8
2,65,110,4
2,69,110,0
2,67,110,24
2,71,110,0
2,69,110,8
2,72,110,0
2,71,110,20
2,74,110,0
2,65,110,12
2,69,110,0
2,67,110,8
2,71,110,4
2,69,110,8
2,72,110,0
2,71,110,4
2,74,110,4
2,69,110,4
2,55,110,4
2,65,110,0
2,67,110,12
2,71,110,4
2,69,110,16
2,72,110,0
2,67,110,12
2,71,110,4
2,62,110,12
2,65,110,0
2,71,110,0
2,69,110,8
2,62,110,4
2,65,110,0
2,62,110,12
2,65,110,4
2,71,110,188
2,62,110,12
2,65,110,0
2,72,110,0
2,71,110,16
2,60,110,16
2,64,110,0
2,69,110,0
2,60,110,4
2,64,110,4
2,67,110,0
2,60,110,12
2,64,110,0
2,71,110,188
2,64,110,12
2,67,110,0
2,72,110,0
2,71,110,12
2,71,110,4
2,62,110,8
2,65,110,0
2,69,110,4
2,62,110,4
2,65,110,0
2,62,110,16
2,65,110,0
2,71,110,180
2,72,110,0
2,62,110,0
2,65,110,0
2,71,110,12
2,69,110,4
2,60,110,12
2,64,110,0
2,60,110,4
2,64,110,0
2,67,110,4
2,60,110,12
2,64,110,8
2,64,110,12
2,76,110,0
2,77,110,4
2,65,110,0
2,67,110,20
2,79,110,4
2,67,110,0
2,79,110,8
2,64,110,584
2,76,110,0
2,65,110,12
2,77,110,4
2,67,110,20
2,79,110,0
2,69,110,4
2,81,110,4
2,79,100,92
2,81,100,52
2,72,110,584
2,60,110,12
2,62,110,16
2,74,110,0
2,76,110,0
2,64,110,8
2,77,110,4
2,50,110,4
2,69,110,0
2,74,110,0
2,77,110,20
2,77,110,12
2,74,110,8
2,48,110,20
2,69,110,0
2,74,110,4
2,77,110,0
2,79,110,8
2,76,110,16
2,74,110,12
2,70,110,12
2,72,110,20
2,76,110,0
2,74,110,12
2,77,110,0
2,76,110,16
2,79,110,0
2,77,110,16
2,81,110,0
2,79,110,12
2,83,110,0
2,81,110,8
2,84,110,0
2,83,110,8
2,86,110,4
2,69,110,0
2,60,110,8
2,64,110,0
2,55,110,12
2,62,110,0
2,71,110,0
2,69,110,0
2,48,110,4
2,55,110,4
2,60,110,4
2,64,110,0
2,50,110,0
2,53,110,0
2,57,110,4
2,62,110,0
2,60,110,12
2,62,110,4
2,52,110,8
2,56,110,4
2,53,110,0
2,57,110,8
2,62,110,0
2,60,110,8
2,52,110,8
2,56,110,8
2,62,110,0
2,62,110,376
2,65,110,0
2,60,110,12
2,64,110,0
2,59,110,16
2,62,110,0
2,69,110,0
2,60,110,8
2,64,110,0
2,60,110,4
2,64,110,0
2,60,110,12
2,64,110,8
2,55,110,4
2,62,110,0
2,67,110,0
2,65,110,8
2,48,110,4
2,55,110,0
2,60,110,0
2,64,110,4
2,64,110,4
2,55,110,8
2,60,110,0
2,55,110,4
2,60,110,0
2,64,110,0
2,50,110,12
2,62,110,0
2,65,110,0
2,74,110,8
2,72,110,4
2,52,110,16
2,64,110,0
2,68,110,0
2,71,110,0
2,64,110,0
2,68,110,0
2,64,110,16
2,68,110,0
2,53,110,8
2,65,110,4
2,69,110,0
2,74,110,4
2,72,110,16
2,72,110,0
2,55,110,4
2,65,110,4
2,69,110,0
2,71,110,8
2,67,110,4
2,69,110,12
2,72,110,0
2,67,110,16
2,71,110,0
2,62,110,8
2,65,110,4
2,71,110,0
2,69,110,4
2,62,110,0
2,65,110,4
2,62,110,4
2,65,110,0
2,71,110,192
2,62,110,20
2,65,110,0
2,72,110,0
2,71,110,276
2,60,110,4
2,64,110,4
2,69,110,0
2,60,110,12
2,64,110,8
2,67,110,0
2,60,110,0
2,64,110,4
2,71,110,196
2,64,110,4
2,67,110,0
2,72,110,4
2,71,110,8
2,71,110,8
2,62,110,4
2,65,110,0
2,69,110,12
2,62,110,0
2,65,110,0
2,62,110,4
2,65,110,8
2,71,110,184
2,62,110,12
2,65,110,0
2,72,110,0
2,71,110,4
2,48,110,4
2,60,110,8
2,64,110,0
2,69,110,0
2,60,110,4
2,64,110,0
2,67,110,0
2,60,110,20
2,64,110,0
2,64,110,0
2,76,110,0
2,65,110,16
2,77,110,8
2,67,110,8
2,79,110,4
2,67,110,8
2,79,110,0
2,64,110,588
2,76,110,0
2,77,110,4
2,65,110,12
2,67,110,8
2,79,110,0
2,67,110,20
2,79,110,4
2,72,110,588
2,60,110,4
2,62,110,8
2,74,110,0
2,64,110,12
2,76,110,0
2,50,110,8
2,65,110,8
2,69,110,0
2,74,110,0
2,77,110,0
2,77,110,8
2,77,110,16
2,50,110,4
2,65,110,0
2,69,110,4
2,74,110,0
2,77,110,0
2,50,110,16
2,76,110,12
2,74,110,4
2,50,110,0
2,65,110,0
2,69,110,8
2,74,110,0
2,77,110,0
2,77,110,12
2,77,110,8
2,50,110,8
2,65,110,0
2,69,110,0
2,74,110,8
2,77,110,0
2,50,110,16
2,76,110,4
2,74,110,12
2,77,110,0
2,74,110,0
2,70,110,0
2,65,110,0
2,77,110,20
2,77,110,12
2,65,110,12
2,72,110,8
2,77,110,0
2,79,110,4
2,76,110,16
2,62,110,4
2,65,110,0
2,70,110,4
2,74,110,0
2,64,110,4
2,67,110,8
2,72,110,0
2,74,110,8
2,76,110,16
2,65,110,4
2,72,110,0
2,77,110,0
2,60,110,8
2,65,110,4
2,72,110,0
2,62,110,4
2,65,110,4
2,74,110,0
2,70,110,4
2,48,110,16
2,69,110,8
2,67,110,12
2,67,110,8
2,64,110,12
2,67,110,0
2,72,110,0
2,74,110,12
2,76,110,16
2,77,110,0
2,65,110,12
2,72,110,0
2,60,110,8
2,65,110,4
2,72,110,0
2,62,110,8
2,65,110,4
2,74,110,0
2,64,110,20
2,76,110,0
2,48,110,0
2,64,110,4
2,67,110,0
2,74,110,0
2,72,110,16
2,64,110,8
2,67,110,8
2,72,110,0
2,74,110,0
2,76,110,12
2,65,110,4
2,72,110,0
2,77,110,0
2,60,110,12
2,65,110,8
2,72,110,0
2,62,110,16
2,65,110,0
2,74,110,0
2,70,110,12
2,65,110,4
2,69,110,4
2,67,110,12
2,71,110,16
2,69,110,28
2,72,110,0
2,74,110,4
2,71,110,0
2,65,110,16
2,69,110,0
2,71,110,20
2,67,110,4
2,69,110,0
2,72,110,8
2,71,110,4
2,74,110,0
2,65,110,8
2,69,110,0
2,67,110,20
2,71,110,0
2,69,110,8
2,72,110,8
2,71,110,16
2,74,110,0
2,69,110,372
2,65,110,8
2,67,110,12
2,71,110,0
2,69,110,12
2,72,110,0
2,71,110,8
2,74,110,0
2,65,110,12
2,69,110,8
2,67,110,0
2,71,110,0
2,72,110,8
2,69,110,0
2,71,110,4
2,74,110,0
2,65,110,24
2,69,110,0
2,67,110,12
2,71,110,4
2,69,110,16
2,72,110,0
2,71,110,12
2,74,110,0
2,69,110,4
2,65,110,0
2,71,110,16
2,67,110,4
2,69,110,12
2,72,110,4
2,71,110,4
2,74,110,0
2,69,110,4
2,65,110,8
2,67,110,8
2,71,110,0
2,69,110,12
2,72,110,4
2,74,110,4
2,71,110,4
2,65,110,16
2,69,110,0
2,67,110,4
2,71,110,8
2,69,110,0
2,72,110,4
2,71,110,20
2,74,110,0
2,69,110,4
2,65,110,4
2,67,110,4
2,71,110,0
2,72,110,8
2,69,110,8
2,71,110,8
2,74,110,4
2,60,110,12
2,64,110,4
2,67,110,0
3,69,110,1536
3,53,110,16
3,65,110,0
3,67,110,8
3,71,110,0
3,69,110,0
3,72,110,0
3,71,110,16
3,74,110,0
3,50,110,16
