track,note,velocity,time
1,43,116,35040
1,36,104,5
1,43,107,245
1,41,108,5
1,41,103,5
1,34,108,5
1,38,104,5
1,43,106,5
1,41,107,5
1,39,86,5
1,43,88,5
1,36,92,5
1,44,90,5
1,44,91,5
1,46,114,5
1,45,114,5
1,43,110,5
1,41,101,5
1,39,105,5
1,38,113,5
1,36,101,5
1,39,84,5
1,41,104,5
1,43,120,5
1,36,104,5
1,43,110,245
1,41,100,5
1,43,116,5
1,36,102,5
1,41,101,5
1,29,101,5
1,41,100,5
1,34,100,5
1,39,114,5
1,39,106,5
1,38,106,5
1,36,106,5
1,34,106,5
1,33,99,5
1,38,99,5
1,31,100,5
1,43,100,5
1,31,108,5
1,36,108,5
1,36,108,5
1,41,83,5
1,41,83,5
1,41,99,5
1,41,99,5
1,36,99,5
1,36,99,5
1,36,105,5
1,36,93,5
1,41,100,5
1,34,114,5
1,38,107,5
1,31,105,5
1,41,95,5
1,39,85,5
1,39,85,5
1,38,85,5
1,43,90,5
1,36,76,5
1,44,106,5
1,44,89,5
1,46,113,0
1,45,113,5
1,43,110,5
1,41,87,5
1,39,97,5
1,38,97,5
1,36,102,5
1,39,84,5
1,41,87,5
1,43,120,25
1,36,112,5
1,43,109,5
1,41,126,5
1,41,127,5
1,41,99,5
1,34,112,5
1,38,101,5
1,43,105,5
1,41,79,5
1,39,94,5
1,43,92,5
1,43,93,5
1,36,96,5
1,44,91,5
1,45,107,5
1,46,109,5
1,45,109,5
1,43,109,5
1,41,96,5
1,39,102,5
1,38,98,5
1,36,96,5
1,39,104,5
1,41,85,5
1,43,120,5
1,36,109,5
1,43,104,5
1,41,102,5
1,43,111,5
1,36,96,5
1,41,113,5
1,41,113,5
1,41,106,5
1,34,106,5
1,39,94,5
1,39,106,5
1,43,109,5
1,45,108,5
1,38,89,5
1,43,86,5
1,43,86,5
1,31,99,5
1,43,99,5
1,36,99,5
1,41,101,5
1,41,111,5
1,41,111,5
1,41,111,5
1,36,104,5
1,41,106,5
1,41,106,5
1,41,106,5
1,34,115,5
1,38,102,5
1,43,102,5
1,41,96,5
1,39,97,5
1,43,96,5
1,36,100,5
1,44,114,5
1,44,104,5
1,46,109,5
1,45,109,5
1,43,104,5
1,41,99,5
1,39,110,5
1,38,112,5
1,36,106,5
1,39,109,5
1,41,113,5
1,43,118,5
1,36,107,5
1,43,110,5
1,41,110,5
1,41,109,0
1,46,115,5
1,45,115,5
1,43,107,5
1,41,100,5
1,39,107,5
1,38,113,5
1,43,99,5
1,39,94,5
1,41,91,5
1,34,96,245
1,38,104,5
1,43,108,5
1,44,76,5
1,37,106,5
1,42,109,5
1,36,94,5
1,35,90,5
1,34,112,5
2,55,93,960
2,62,100,0
2,57,102,0
2,43,103,0
2,62,81,45
2,55,76,0
2,58,89,0
2,58,103,70
2,62,109,0
2,55,108,0
2,53,103,175
2,58,106,0
2,62,109,0
2,55,106,0
2,55,116,165
2,52,94,0
2,58,113,0
2,36,103,0
2,48,93,0
2,62,79,315
2,68,75,105
2,69,105,15
2,74,100,0
2,70,101,120
2,62,100,5
2,58,100,80
2,55,103,40
2,57,109,0
2,43,106,0
2,62,110,0
2,55,49,0
2,58,87,0
2,62,55,0
2,62,116,60
2,58,113,0
2,55,102,0
2,62,106,150
2,55,103,0
2,58,106,0
2,57,113,60
2,60,100,0
2,41,105,0
2,53,106,0
2,53,82,220
2,53,105,45
2,55,109,25
2,58,113,25
2,41,100,25
2,51,121,0
2,58,125,5
2,55,118,0
2,58,96,105
2,53,92,90
2,52,83,35
2,51,91,5
2,34,108,15
2,50,119,5
2,53,107,280
2,74,108,0
2,58,106,0
2,62,96,0
2,74,111,30
2,72,87,45
2,70,94,60
2,72,112,30
2,50,89,0
2,74,112,20
2,74,120,30
2,57,90,20
2,38,103,0
2,60,91,0
2,54,80,0
2,72,89,15
2,70,77,50
2,71,76,50
2,72,90,20
2,43,101,0
2,74,88,0
2,74,93,45
2,62,83,60
2,58,103,0
2,53,94,0
2,72,80,5
2,70,78,15
2,41,82,10
2,56,75,0
2,70,55,10
2,72,92,0
2,70,91,40
2,70,107,40
2,50,105,200
2,58,102,0
2,46,105,0
2,62,106,0
2,56,97,0
2,60,100,160
2,56,90,0
2,58,111,20
2,46,101,0
2,51,95,0
2,55,97,0
2,39,98,0
2,77,109,225
2,51,74,40
2,58,92,5
2,55,85,0
2,79,115,10
2,79,126,40
2,77,90,185
2,75,96,10
2,43,100,10
2,77,118,5
2,79,121,5
2,79,126,50
2,59,74,140
2,50,93,0
2,53,92,0
2,55,98,5
2,77,102,200
2,48,95,30
2,75,98,5
2,76,123,35
2,77,123,25
2,75,106,5
2,75,114,30
2,51,87,60
2,58,94,0
2,55,88,0
2,51,67,200
2,58,72,0
2,54,69,5
2,58,95,0
2,51,93,0
2,44,89,0
2,54,93,0
2,51,92,225
2,44,98,0
2,60,105,0
2,54,88,0
2,54,65,0
2,51,73,0
2,60,85,0
2,53,105,320
2,58,101,0
2,46,103,0
2,62,108,0
2,65,61,170
2,74,91,40
2,54,92,100
2,45,113,5
2,60,95,20
2,65,105,0
2,74,95,160
2,72,86,35
2,70,101,30
2,67,67,10
2,43,98,0
2,55,96,20
2,53,95,5
2,62,96,0
2,69,103,5
2,67,96,0
2,72,109,0
2,62,111,25
2,70,102,0
2,67,113,5
2,41,103,240
2,53,102,5
2,62,101,5
2,58,113,0
2,57,112,5
2,67,108,155
2,65,68,10
2,39,49,5
2,55,81,5
2,63,103,0
2,67,116,5
2,58,111,0
2,70,108,120
2,58,95,0
2,38,50,5
2,53,87,5
2,58,102,5
2,72,95,5
2,70,116,50
2,70,95,185
2,36,101,90
2,48,107,5
2,52,92,0
2,58,109,5
2,62,75,290
2,69,114,110
2,74,97,0
2,70,111,80
2,62,95,40
2,58,111,60
2,39,106,85
2,62,61,5
2,55,78,5
2,65,86,0
2,58,63,0
2,67,102,275
2,70,96,5
2,67,93,15
2,63,95,50
2,41,100,0
2,72,120,5
2,72,121,20
2,63,119,5
2,51,84,330
2,58,105,5
2,55,99,0
2,70,86,125
2,67,102,0
2,43,108,90
2,58,126,15
2,55,115,0
2,61,98,10
2,62,126,0
2,65,113,5
2,67,107,0
2,36,106,310
2,55,119,5
2,48,106,0
2,52,101,5
2,58,112,5
2,62,106,370
2,68,96,90
2,69,116,20
2,74,102,5
2,70,114,95
2,62,110,0
2,58,113,40
2,53,115,90
2,43,103,0
2,57,127,0
2,55,127,5
2,58,116,0
2,59,90,5
2,41,98,100
2,60,100,10
2,53,102,5
2,57,112,0
2,53,82,195
2,53,105,45
2,55,109,40
2,58,113,20
2,41,100,25
2,51,121,5
2,55,118,5
2,58,125,0
2,58,96,105
2,53,92,95
2,52,83,30
2,51,91,5
2,34,108,10
2,50,119,10
2,58,106,305
2,62,108,0
2,46,98,0
2,53,103,0
2,60,98,305
2,57,101,0
2,50,90,0
2,38,99,0
2,54,87,0
2,50,75,260
2,60,93,0
2,57,95,0
2,54,83,0
2,53,101,300
2,43,102,0
2,62,104,0
2,58,102,0
2,53,93,140
2,58,102,0
2,62,102,0
2,56,86,5
2,41,95,0
2,60,92,0
2,51,74,0
2,50,108,255
2,56,100,0
2,46,108,0
2,60,105,140
2,56,96,0
2,55,105,50
2,58,86,0
2,51,88,0
2,39,89,0
2,55,106,190
2,51,96,0
2,58,102,0
2,50,99,35
2,59,88,0
2,43,99,0
2,55,108,0
2,53,101,0
2,59,72,225
2,55,91,0
2,53,85,0
2,50,88,0
2,58,82,280
2,48,76,0
2,51,84,0
2,55,90,0
2,51,103,135
2,58,101,0
2,55,113,0
2,58,113,235
2,51,88,0
2,54,92,0
2,44,88,0
2,60,107,275
2,54,114,0
2,51,100,0
2,44,101,0
2,62,106,360
2,53,82,0
2,46,85,0
2,58,92,0
2,65,109,280
2,60,101,0
2,54,89,0
2,45,113,0
2,62,109,20
2,67,105,0
2,43,107,0
2,53,96,0
2,58,105,280
2,62,100,0
2,57,102,0
2,53,89,0
2,41,89,0
2,55,101,10
2,63,106,0
2,39,103,0
2,58,109,0
2,38,107,280
2,53,94,0
2,58,109,0
2,52,95,30
2,48,103,0
2,58,115,0
2,36,98,0
2,62,76,255
2,74,103,120
2,69,102,0
2,70,94,120
2,62,112,60
2,58,109,45
2,65,116,80
2,58,95,0
2,55,100,0
2,43,95,0
2,62,89,0
2,41,107,30
2,29,97,15
2,51,88,450
2,55,109,0
2,58,100,0
2,67,75,5
2,58,108,0
2,55,86,0
2,43,112,0
2,62,94,0
2,55,117,350
2,58,111,0
2,52,94,0
2,48,99,0
2,36,100,0
2,62,101,340
2,69,111,120
2,74,103,0
2,70,94,0
2,62,109,75
2,58,110,25
2,55,127,80
2,58,127,0
2,53,121,0
2,43,103,0
2,41,104,110
2,60,102,5
2,53,102,5
2,57,110,5
2,53,82,170
2,53,105,40
2,55,109,30
2,58,113,25
2,41,100,20
2,51,121,5
2,58,125,5
2,55,118,0
2,58,96,25
2,53,92,90
2,52,83,20
2,51,91,20
2,34,108,15
2,50,119,5
2,53,101,35
2,58,109,0
2,46,109,0
2,62,102,0
2,60,100,240
2,57,104,0
2,54,87,0
2,50,96,0
2,38,100,0
2,57,101,240
2,50,82,0
2,60,96,0
2,54,92,0
2,62,104,230
2,53,96,0
2,58,103,0
2,43,102,0
2,58,103,145
2,62,102,0
2,53,87,0
2,51,90,40
2,41,103,0
2,60,102,0
2,56,93,0
2,46,109,270
2,50,109,0
2,56,96,0
2,56,78,90
2,60,106,0
2,55,98,60
2,58,106,0
2,51,75,0
2,46,93,0
2,39,82,0
2,55,107,135
2,51,88,0
2,58,106,0
2,53,105,35
2,59,85,0
2,50,84,0
2,55,102,0
2,43,84,0
2,59,92,190
2,53,97,0
2,50,96,0
2,55,95,0
2,55,100,260
2,58,96,0
2,51,79,0
2,48,80,0
2,36,88,0
2,51,90,145
2,58,96,0
2,55,102,0
2,51,69,215
2,54,88,0
2,44,86,0
2,58,102,0
2,51,89,250
2,44,87,0
2,54,85,0
2,60,95,0
2,62,98,340
2,53,94,0
2,58,93,0
2,46,102,0
2,65,99,5
2,45,110,0
2,60,102,0
2,54,88,0
2,67,106,325
2,62,106,0
2,53,96,0
2,43,106,0
2,58,107,5
2,62,108,0
2,53,95,0
2,41,97,0
2,57,100,0
2,55,103,10
2,58,110,0
2,39,101,0
2,63,87,0
2,53,101,290
2,58,113,0
2,38,109,0
2,58,114,20
2,52,98,0
2,36,97,0
2,48,98,0
2,62,72,240
2,74,91,120
2,69,110,0
2,70,110,0
2,62,106,35
2,58,93,25
2,60,84,0
2,42,41,80
2,41,90,0
2,65,103,0
2,58,108,0
2,43,102,0
2,62,118,0
2,55,100,0
2,40,22,0
2,39,80,0
2,41,100,145
2,51,69,0
2,58,90,0
2,55,103,0
2,51,97,210
2,55,102,0
2,58,93,0
2,62,100,355
2,58,106,0
2,55,88,0
2,43,116,0
2,55,116,400
2,48,91,0
2,52,96,0
2,58,113,0
2,36,100,0
2,62,88,340
2,69,100,120
2,74,91,0
2,70,102,120
2,62,106,35
2,58,102,25
2,53,123,10
2,43,106,0
2,58,126,0
2,55,127,0
2,41,96,20
2,60,100,5
2,57,109,0
2,53,99,0
2,53,105,5
2,53,96,40
2,51,83,5
2,55,118,15
2,58,106,30
2,50,108,35
2,54,100,5
2,60,127,5
2,65,127,0
2,63,106,30
2,62,121,50
2,60,113,25
2,53,64,85
2,62,110,0
2,58,112,0
2,43,112,0
2,62,90,240
2,58,102,0
2,53,86,0
2,48,78,10
2,55,96,0
2,52,89,0
2,36,98,0
2,55,95,225
2,52,83,0
2,48,79,0
2,48,92,25
2,53,90,0
2,57,66,0
2,41,97,0
2,48,92,140
2,57,99,0
2,53,102,0
2,57,83,240
2,53,97,0
2,48,92,0
2,60,105,340
2,53,100,0
2,48,108,0
2,55,106,0
2,56,95,30
2,41,96,0
2,60,103,0
2,51,100,0
2,60,102,195
2,51,89,0
2,56,89,0
2,56,83,115
2,46,121,0
2,60,101,0
2,50,93,0
2,60,95,140
2,50,85,0
2,56,82,0
2,58,85,255
2,51,81,0
2,55,88,0
2,39,110,0
2,55,94,145
2,58,94,0
2,51,88,0
2,46,100,0
2,63,108,10
2,51,101,0
2,58,103,0
2,39,102,0
2,67,97,0
2,58,86,10
2,68,70,0
2,65,97,0
2,58,102,175
2,43,102,0
2,70,98,0
2,67,102,0
2,58,103,120
2,55,86,0
2,52,90,35
2,60,101,0
2,45,95,0
2,60,95,265
2,55,103,0
2,57,98,0
2,52,81,0
2,60,91,255
2,50,82,0
2,57,93,0
2,54,75,0
2,38,95,0
2,57,77,190
2,54,73,0
2,50,65,0
2,60,80,0
2,50,62,220
2,59,63,0
2,55,87,0
2,43,96,0
2,59,66,195
2,50,70,0
2,55,95,0
2,50,71,220
2,59,66,0
2,55,91,0
2,59,75,145
2,55,103,0
2,50,93,0
2,65,103,320
2,62,104,0
2,58,98,0
2,43,98,0
2,50,90,340
2,58,102,0
2,53,98,0
2,55,97,0
2,55,102,340
2,36,104,0
2,52,88,0
2,48,82,0
2,36,104,130
2,64,60,150
2,41,79,0
2,60,22,0
2,60,100,320
2,64,93,0
2,57,113,0
2,53,93,0
2,53,105,60
2,64,88,0
2,57,111,0
2,60,103,0
2,41,95,100
2,64,85,240
2,60,91,0
2,57,93,0
2,65,116,35
2,65,99,60
2,64,127,0
2,48,98,195
2,55,101,0
2,63,100,0
2,58,106,0
2,36,101,0
2,51,95,45
2,55,105,0
2,46,113,135
2,51,127,0
2,51,94,0
2,55,100,0
2,58,96,160
2,51,106,0
2,55,111,0
2,41,89,240
2,60,105,200
2,55,109,0
2,51,101,0
2,41,96,110
2,53,68,120
2,52,82,30
2,51,71,15
2,34,110,15
2,50,118,10
2,62,84,255
2,58,102,0
2,53,94,0
2,60,95,305
2,57,103,0
2,38,103,0
2,54,83,0
2,50,90,0
2,50,97,205
2,57,103,0
2,60,100,0
2,54,88,0
2,62,91,180
2,58,97,0
2,53,86,0
2,43,101,0
2,53,95,170
2,58,102,0
2,62,98,0
2,51,79,30
2,60,95,0
2,56,84,0
2,41,91,0
2,58,110,245
2,62,109,0
2,46,102,0
2,60,102,60
2,56,105,0
2,51,76,50
2,58,102,0
2,39,61,0
2,55,85,0
2,46,68,0
2,58,98,130
2,51,71,0
2,55,101,0
2,53,90,20
2,50,81,0
2,59,77,0
2,43,86,0
2,55,85,0
2,55,70,185
2,50,76,0
2,59,61,0
2,53,77,0
2,58,96,30
2,51,90,0
2,36,72,0
2,48,82,0
2,55,92,0
2,55,98,150
2,51,78,0
2,58,90,0
2,51,86,220
2,44,102,0
2,54,89,0
2,58,101,0
2,44,85,220
2,60,102,0
2,51,88,0
2,54,85,0
2,53,93,20
2,58,83,0
2,46,95,0
2,62,95,0
2,60,95,25
2,54,92,0
2,65,102,0
2,45,109,0
2,62,106,35
2,53,93,0
2,67,101,0
2,43,106,0
2,58,103,240
2,53,91,0
2,57,98,0
2,41,83,0
2,62,101,0
2,63,106,120
2,55,102,0
2,58,111,0
2,51,93,0
2,39,93,0
2,53,95,300
2,58,113,0
2,62,81,0
2,38,93,0
2,50,95,0
2,58,116,240
2,43,102,0
2,52,91,0
2,36,98,0
2,48,104,0
2,62,87,335
2,69,100,105
2,74,86,5
2,70,85,95
2,62,98,5
2,60,107,45
2,39,80,85
2,55,120,5
2,62,127,5
2,58,127,0
2,65,119,5
2,63,114,5
2,41,83,150
2,51,85,5
2,55,82,0
2,58,98,5
2,58,102,205
2,55,103,5
2,51,89,0
2,62,107,345
2,43,116,0
2,55,106,5
2,67,101,0
2,58,103,0
2,36,108,300
2,48,96,5
2,52,95,5
2,58,107,0
2,55,118,0
2,62,100,355
2,74,97,115
2,69,105,0
2,70,101,105
2,62,101,25
2,58,97,0
2,43,105,95
2,55,127,0
2,53,115,0
2,58,116,5
2,41,102,65
2,60,101,5
2,53,105,5
2,57,112,5
2,53,76,205
