track,note,velocity,time
1,62,72,1284
1,61,72,468
1,62,72,12
1,65,72,0
1,67,72,0
1,68,72,108
1,67,72,0
1,62,72,0
1,65,72,0
1,62,72,0
1,72,72,0
1,69,72,0
1,67,72,0
1,65,72,0
1,61,72,108
1,62,72,0
1,65,72,0
1,67,72,0
1,66,72,108
1,67,72,0
1,65,72,0
1,74,72,0
1,67,72,0
1,68,72,0
1,67,72,0
1,65,72,0
1,62,72,0
1,61,72,348
1,62,72,0
1,65,72,0
1,67,72,0
1,68,72,108
1,62,72,0
1,69,72,0
1,72,72,0
1,65,72,0
1,68,72,228
1,69,72,0
1,65,72,0
1,62,72,0
1,62,72,120
1,62,72,120
1,69,72,1200
1,65,72,0
1,72,72,0
1,65,72,0
1,72,72,0
1,65,72,0
1,69,72,0
1,65,72,0
1,69,72,120
1,65,72,0
1,68,72,0
1,64,72,0
1,68,72,108
1,69,72,12
1,72,72,0
1,68,72,0
1,64,72,0
1,74,72,0
1,72,72,0
1,72,72,0
1,69,72,0
1,68,72,240
1,64,72,0
1,63,72,0
1,67,72,0
1,68,72,96
1,69,72,24
1,72,72,0
1,63,72,0
1,67,72,0
1,72,72,0
1,69,72,0
1,63,72,0
1,67,72,0
1,66,72,0
1,67,72,0
1,62,72,120
1,74,72,0
1,63,72,0
1,75,72,0
1,73,72,108
1,62,72,0
1,74,72,0
1,69,72,0
1,69,72,0
1,62,72,0
1,72,72,0
1,62,72,0
1,70,72,0
1,62,72,0
1,65,72,240
1,62,72,0
1,67,72,120
1,70,72,0
1,62,72,0
1,67,72,0
1,69,72,108
1,62,72,0
1,70,72,0
1,67,72,0
1,62,72,0
1,70,72,0
1,67,72,0
1,74,72,0
1,62,72,0
1,62,72,0
1,70,72,0
1,67,72,0
1,66,72,0
1,62,72,0
1,69,72,0
1,62,72,0
1,68,72,108
1,69,72,12
1,72,72,0
1,62,72,0
1,69,72,0
1,74,72,0
1,72,72,0
1,66,72,0
1,69,72,0
1,62,72,0
1,66,72,120
1,69,72,0
1,72,72,0
1,62,72,0
1,70,72,0
1,67,72,0
1,69,72,0
1,72,72,0
1,70,72,0
1,74,72,0
1,62,72,0
1,70,72,120
1,62,72,0
1,74,72,0
1,70,72,0
1,74,72,0
1,62,72,0
1,67,72,0
1,62,72,360
1,62,72,0
1,70,72,0
1,65,72,0
1,65,72,0
1,70,72,0
1,66,72,0
1,70,72,0
1,62,72,0
1,64,72,0
1,62,72,0
1,64,72,120
1,76,72,0
1,65,72,0
1,77,72,0
1,64,72,0
1,76,72,0
1,71,72,0
1,65,72,0
1,71,72,0
1,77,72,0
1,68,72,0
1,62,72,0
1,74,72,0
1,68,72,0
1,72,72,0
1,64,72,0
1,74,72,0
1,67,72,0
1,72,72,0
1,64,72,0
1,67,72,0
1,64,72,240
1,66,72,120
1,69,72,0
1,74,72,0
1,62,72,240
1,74,72,0
1,66,72,0
1,69,72,0
1,72,72,0
1,65,72,0
1,62,72,0
1,72,72,0
1,70,72,0
1,62,72,0
1,65,72,0
1,62,72,0
1,64,72,0
1,65,72,0
1,67,72,0
1,61,72,0
1,69,72,0
1,65,72,0
1,61,72,0
1,64,72,0
1,61,72,0
1,63,72,0
1,62,72,0
1,68,72,828
1,69,72,12
1,70,72,0
1,69,72,0
1,69,72,720
1,65,72,0
1,72,72,0
1,65,72,0
1,72,72,0
1,65,72,0
1,69,72,0
1,65,72,0
1,69,72,120
1,65,72,0
1,68,72,0
1,64,72,0
1,68,72,108
1,69,72,12
1,72,72,0
1,68,72,0
1,64,72,0
1,74,72,0
1,72,72,0
1,72,72,0
1,69,72,0
1,68,72,240
1,64,72,0
1,63,72,0
1,67,72,0
1,68,72,96
1,69,72,24
1,72,72,0
1,63,72,0
1,67,72,0
1,72,72,0
1,69,72,0
1,63,72,0
1,67,72,0
1,66,72,0
1,67,72,0
1,62,72,120
1,74,72,0
1,63,72,0
1,75,72,0
1,73,72,108
1,62,72,0
1,74,72,0
1,69,72,0
1,69,72,0
1,62,72,0
1,72,72,0
1,62,72,0
1,70,72,0
1,62,72,0
1,65,72,240
1,62,72,0
1,67,72,120
1,70,72,0
1,62,72,0
1,67,72,0
1,69,72,108
1,62,72,0
1,70,72,0
1,67,72,0
1,62,72,0
1,70,72,0
1,67,72,0
1,74,72,0
1,62,72,0
1,62,72,0
1,70,72,0
1,67,72,0
1,66,72,0
1,62,72,0
1,69,72,0
1,62,72,0
1,68,72,108
1,69,72,12
1,72,72,0
1,62,72,0
1,69,72,0
1,74,72,0
1,72,72,0
1,66,72,0
1,69,72,0
1,62,72,0
1,66,72,120
1,69,72,0
1,72,72,0
1,62,72,0
1,70,72,0
1,67,72,0
1,69,72,0
1,72,72,0
1,70,72,0
1,74,72,0
1,62,72,0
1,70,72,120
1,62,72,0
1,74,72,0
1,70,72,0
1,74,72,0
1,62,72,0
1,67,72,0
1,62,72,360
1,62,72,0
1,70,72,0
1,65,72,0
1,65,72,0
1,70,72,0
1,66,72,0
1,70,72,0
1,62,72,0
1,64,72,0
1,62,72,0
1,64,72,120
1,76,72,0
1,65,72,0
1,77,72,0
1,64,72,0
1,76,72,0
1,71,72,0
1,65,72,0
1,71,72,0
1,77,72,0
1,68,72,0
1,62,72,0
1,74,72,0
1,68,72,0
1,72,72,0
1,64,72,0
1,74,72,0
1,67,72,0
1,72,72,0
1,64,72,0
1,67,72,0
1,64,72,240
1,66,72,120
1,69,72,0
1,74,72,0
1,62,72,240
1,74,72,0
1,66,72,0
1,69,72,0
1,72,72,0
1,72,72,0
1,62,72,0
1,65,72,0
1,70,72,0
1,62,72,0
1,62,72,120
1,65,72,0
1,64,72,0
1,65,72,0
1,67,72,0
1,65,72,0
1,68,72,348
1,69,72,0
1,65,72,0
1,72,72,0
1,77,72,0
1,66,72,0
1,75,72,0
1,66,72,0
1,70,72,0
1,74,72,0
1,62,72,120
1,69,72,0
1,65,72,0
1,62,72,0
1,72,72,0
1,62,72,0
1,72,72,0
1,65,72,0
1,72,72,0
1,67,72,0
1,72,72,0
1,68,72,0
1,68,72,108
1,72,72,0
1,69,72,0
1,69,72,0
1,72,72,0
1,67,72,0
1,69,72,480
1,65,72,0
1,72,72,0
1,65,72,0
1,72,72,0
1,65,72,0
1,69,72,0
1,65,72,0
1,69,72,120
1,65,72,0
1,68,72,0
1,64,72,0
1,68,72,108
1,69,72,12
1,72,72,0
1,68,72,0
1,64,72,0
1,74,72,0
1,72,72,0
1,72,72,0
1,69,72,0
1,68,72,240
1,64,72,0
1,63,72,0
1,67,72,0
1,68,72,96
1,69,72,24
1,72,72,0
1,63,72,0
1,67,72,0
1,72,72,0
1,69,72,0
1,63,72,0
1,67,72,0
1,66,72,0
1,67,72,0
1,62,72,120
1,74,72,0
1,63,72,0
1,75,72,0
1,73,72,108
1,62,72,0
1,74,72,0
1,69,72,0
1,69,72,0
1,62,72,0
1,72,72,0
1,62,72,0
1,70,72,0
1,62,72,0
1,65,72,240
1,62,72,0
1,67,72,120
1,70,72,0
1,62,72,0
1,67,72,0
1,69,72,108
1,62,72,0
1,70,72,0
1,67,72,0
1,62,72,0
1,70,72,0
1,67,72,0
1,74,72,0
1,62,72,0
1,62,72,0
1,70,72,0
1,67,72,0
1,66,72,0
1,62,72,0
1,69,72,0
1,62,72,0
1,68,72,108
1,69,72,12
1,72,72,0
1,62,72,0
1,69,72,0
1,74,72,0
1,72,72,0
1,66,72,0
1,69,72,0
1,62,72,0
1,66,72,120
1,69,72,0
1,72,72,0
1,62,72,0
1,70,72,0
1,67,72,0
1,69,72,0
1,72,72,0
1,70,72,0
1,74,72,0
1,62,72,0
1,70,72,120
1,62,72,0
1,74,72,0
1,70,72,0
1,74,72,0
1,62,72,0
1,67,72,0
1,62,72,360
1,62,72,0
1,70,72,0
1,65,72,0
1,65,72,0
1,70,72,0
1,66,72,0
1,70,72,0
1,62,72,0
1,64,72,0
1,62,72,0
1,64,72,120
1,76,72,0
1,65,72,0
1,77,72,0
1,64,72,0
1,76,72,0
1,71,72,0
1,65,72,0
1,71,72,0
1,77,72,0
1,68,72,0
1,62,72,0
1,74,72,0
1,68,72,0
1,72,72,0
1,64,72,0
1,74,72,0
1,67,72,0
1,72,72,0
1,64,72,0
1,67,72,0
1,64,72,240
1,66,72,120
1,69,72,0
1,74,72,0
1,62,72,240
1,74,72,0
1,66,72,0
1,69,72,0
1,72,72,0
1,72,72,0
1,65,72,0
1,62,72,0
1,70,72,0
1,62,72,0
1,65,72,120
1,62,72,0
1,64,72,0
1,65,72,0
1,67,72,0
1,65,72,0
1,62,72,360
1,61,72,0
1,65,72,960
1,67,72,0
1,62,72,0
1,67,72,0
1,61,72,0
1,64,72,0
1,69,72,240
1,62,72,0
1,74,72,0
1,65,72,0
1,69,72,0
1,61,72,0
1,65,72,0
1,73,72,120
1,69,72,0
1,77,72,0
1,79,72,0
1,77,72,0
1,72,72,0
1,69,72,0
1,76,72,0
1,77,72,0
1,72,72,0
1,69,72,0
1,65,72,120
1,74,72,0
1,62,72,120
1,67,72,0
1,65,72,0
1,62,72,0
1,67,72,0
1,69,72,0
1,69,72,0
1,61,72,0
1,72,72,0
1,67,72,0
1,61,72,0
1,70,72,0
1,69,72,0
1,67,72,0
1,69,72,0
1,65,72,0
1,64,72,0
1,74,72,114
1,69,72,0
1,65,72,0
1,69,72,0
1,65,72,0
1,74,72,0
1,74,72,0
1,65,72,0
1,69,72,0
1,65,72,0
1,61,72,0
1,73,72,0
1,77,72,0
1,69,72,0
1,79,72,0
1,77,72,0
1,72,72,0
1,69,72,0
1,76,72,0
1,77,72,0
1,65,72,0
1,65,72,120
1,67,72,0
1,65,72,0
1,68,72,6
1,63,72,0
1,67,72,0
1,63,72,0
1,67,72,0
1,63,72,0
1,65,72,0
1,65,72,120
1,63,72,0
1,63,72,120
1,62,72,0
1,70,72,0
1,65,72,0
1,62,72,0
1,62,72,120
1,70,72,0
1,72,72,0
1,74,72,0
1,65,72,0
1,70,72,0
1,69,72,0
1,77,72,0
1,69,72,0
1,77,72,0
1,74,72,0
1,70,72,0
1,62,72,120
1,65,72,240
1,69,72,0
1,76,72,0
1,62,72,120
1,69,72,0
1,77,72,0
1,74,72,0
1,79,72,0
1,68,72,0
1,74,72,0
1,77,72,0
1,64,72,0
1,62,72,0
1,68,72,0
1,76,72,0
1,71,72,0
1,64,72,240
1,67,72,0
1,72,72,0
1,74,72,0
1,64,72,0
1,72,72,0
1,67,72,0
1,74,72,0
1,64,72,0
1,72,72,0
1,74,72,0
1,66,72,0
1,72,72,0
1,63,72,120
1,65,72,0
1,68,72,228
1,62,72,0
1,69,72,0
1,67,72,0
1,62,72,0
1,62,72,120
1,69,72,1200
1,65,72,0
1,72,72,0
1,65,72,0
1,72,72,0
1,65,72,0
1,69,72,0
1,65,72,0
1,69,72,120
1,65,72,0
1,68,72,0
1,64,72,0
1,68,72,108
1,69,72,24
1,72,72,0
1,68,72,108
1,64,72,0
1,74,72,0
1,74,72,0
1,74,72,0
1,72,72,0
1,63,72,228
1,67,72,0
1,68,72,108
1,69,72,12
1,72,72,0
1,63,72,0
1,67,72,0
1,72,72,0
1,63,72,0
1,67,72,0
1,63,72,0
1,69,72,0
1,67,72,0
1,66,72,0
1,67,72,0
1,74,72,120
1,75,72,0
1,62,72,0
1,74,72,0
1,69,72,0
1,62,72,0
1,69,72,0
1,72,72,0
1,62,72,0
1,70,72,0
1,62,72,0
1,62,72,0
1,70,72,0
1,67,72,0
1,72,72,0
1,69,72,0
1,70,72,0
1,74,72,0
1,62,72,0
1,62,72,120
1,67,72,0
1,70,72,0
1,70,72,0
1,62,72,0
1,67,72,0
1,62,72,0
1,62,72,120
1,67,72,0
1,70,72,0
1,66,72,0
1,69,72,0
1,62,72,0
1,69,72,120
1,72,72,0
1,66,72,0
1,74,72,0
1,66,72,0
1,72,72,0
1,69,72,0
1,62,72,120
1,66,72,120
1,69,72,0
1,72,72,0
1,70,72,0
1,62,72,0
1,67,72,0
1,69,72,0
1,72,72,0
1,70,72,0
1,74,72,0
1,62,72,0
1,70,72,120
1,74,72,0
1,67,72,0
1,70,72,0
1,74,72,0
1,67,72,0
1,74,72,0
1,70,72,0
1,67,72,0
1,62,72,360
1,76,72,240
1,71,72,0
1,68,72,0
1,64,72,120
1,62,72,0
1,77,72,0
1,74,72,0
1,68,72,0
1,79,72,0
1,77,72,0
1,64,72,120
1,62,72,0
1,68,72,0
1,76,72,0
1,74,72,0
1,74,72,0
1,67,72,0
1,64,72,0
1,72,72,0
1,72,72,0
1,64,72,0
1,66,72,120
1,72,72,0
1,77,72,0
1,62,72,240
1,66,72,0
1,77,72,0
1,72,72,0
1,74,72,0
1,65,72,0
1,62,72,0
1,65,72,0
1,62,72,0
1,62,72,0
1,65,72,0
1,62,72,0
1,64,72,0
1,62,72,200
1,65,72,8
1,67,72,16
1,69,72,16
1,61,72,0
1,65,72,0
1,64,72,0
1,63,72,0
1,64,72,0
1,62,72,0
1,68,72,468
1,69,72,12
1,72,72,0
1,66,72,0
1,74,72,0
1,72,72,0
1,72,72,120
1,68,72,108
1,69,72,0
1,62,72,0
1,69,72,12
1,67,72,0
1,62,72,0
1,65,72,0
1,62,72,0
1,65,72,0
1,62,72,0
1,65,72,0
1,68,72,84
1,69,72,24
1,70,72,4
1,72,72,16
1,69,72,0
1,67,72,0
1,65,72,0
1,61,72,108
1,62,72,0
1,65,72,480
1,65,72,0
1,65,72,0
1,62,72,0
1,61,72,348
1,62,72,0
1,65,72,0
1,67,72,0
1,66,72,108
1,67,72,0
1,62,72,0
1,65,72,0
1,72,72,240
1,69,72,0
1,65,72,0
1,67,72,0
1,65,72,0
1,62,72,0
1,65,72,0
1,67,72,0
1,66,72,108
1,67,72,0
1,65,72,0
1,72,72,240
1,69,72,0
1,65,72,0
1,62,72,0
1,62,72,0
1,65,72,0
1,67,72,0
1,68,72,0
1,72,72,0
1,72,72,120
1,72,72,0
1,70,72,0
1,68,72,0
1,64,72,0
1,63,72,0
1,61,72,0
1,65,72,120
1,65,72,0
1,65,72,0
1,67,72,240
1,79,72,0
1,69,72,0
1,81,72,0
1,71,72,0
1,83,72,0
1,74,72,0
1,86,72,0
1,79,72,0
1,91,72,0
2,34,50,1272
2,46,50,0
2,56,50,0
2,53,50,0
2,35,50,0
2,47,50,0
2,53,50,0
2,57,50,0
2,34,50,0
2,46,50,0
2,33,50,0
2,45,50,0
2,56,50,0
2,60,50,0
2,32,50,0
2,44,50,0
2,53,50,0
2,58,50,0
2,57,50,0
2,31,50,0
2,43,50,0
2,57,50,0
2,58,50,0
2,53,50,0
2,31,50,0
2,43,50,0
2,57,50,0
2,53,50,0
2,58,50,0
2,53,50,0
2,58,50,0
2,48,50,0
2,36,50,0
2,53,50,0
2,58,50,0
2,53,50,0
2,58,50,0
2,56,50,108
2,60,50,0
2,57,50,0
2,24,50,0
2,36,50,0
2,53,50,0
2,56,50,108
2,60,50,0
2,57,50,0
2,59,50,0
2,55,50,0
2,53,50,0
2,58,50,0
2,55,50,0
2,29,50,0
2,41,50,0
2,60,50,0
2,53,50,0
2,57,50,0
2,29,50,0
2,41,50,0
2,60,50,240
2,57,50,0
2,53,50,0
2,60,50,0
2,60,50,120
2,28,50,0
2,60,50,0
2,40,50,0
2,56,50,0
2,52,50,0
2,60,50,0
2,28,50,0
2,40,50,0
2,60,50,0
2,52,50,0
2,56,50,0
2,60,50,120
2,27,50,0
2,57,50,0
2,60,50,0
2,39,50,0
2,51,50,0
2,57,50,0
2,60,50,0
2,55,50,0
2,27,50,0
2,39,50,0
2,51,50,0
2,57,50,0
2,55,50,0
2,60,50,0
2,26,50,0
2,60,50,0
2,38,50,0
2,50,50,0
2,28,50,0
2,60,50,0
2,40,50,0
2,52,50,0
2,30,50,0
2,42,50,0
2,54,50,0
2,26,50,0
2,38,50,0
2,50,50,0
2,31,50,0
2,43,50,0
2,53,50,0
2,58,50,0
