track,note,velocity,time
1,76,127,3648
1,76,127,64
1,76,127,64
1,75,127,448
1,76,127,32
1,78,127,32
1,76,127,32
1,75,127,32
1,73,127,32
1,73,127,32
1,71,127,64
1,68,127,0
1,71,127,32
1,69,127,352
1,68,127,32
1,69,127,32
1,71,127,32
1,69,127,32
1,68,127,32
1,66,127,32
1,64,127,32
1,76,127,64
1,76,127,64
1,76,127,352
1,75,127,32
1,76,127,32
1,78,127,32
1,76,127,32
1,75,127,32
1,73,127,32
1,73,127,32
1,71,127,0
1,71,127,32
1,68,127,0
1,71,127,32
1,69,127,352
1,68,127,32
1,69,127,32
1,71,127,32
1,73,127,64
1,75,127,32
1,76,127,32
1,76,127,64
1,76,127,64
1,75,127,448
1,76,127,32
1,78,127,32
1,76,127,32
1,75,127,32
1,73,127,32
1,73,127,32
1,71,127,64
1,68,127,0
1,71,127,32
1,69,127,352
1,68,127,32
1,69,127,32
1,71,127,32
1,69,127,32
1,68,127,32
1,66,127,32
1,64,127,32
1,76,127,64
1,78,127,64
1,76,127,0
1,76,127,160
1,75,127,32
1,76,127,32
1,78,127,32
1,76,127,32
1,75,127,32
1,73,127,32
1,73,127,32
1,71,127,64
1,68,127,0
1,71,127,32
1,69,127,352
1,68,127,32
1,69,127,32
1,71,127,32
1,72,127,448
1,76,127,0
1,76,127,32
1,81,127,64
1,79,127,64
1,76,127,0
1,76,127,32
1,79,127,64
1,77,127,0
1,77,127,32
1,74,127,256
1,76,127,64
1,77,127,64
1,76,127,0
1,74,127,0
1,74,127,0
1,72,127,448
1,76,127,0
1,76,127,32
1,81,127,64
1,79,127,64
1,76,127,0
1,76,127,32
1,79,127,64
1,77,127,64
1,74,127,256
1,76,127,64
1,77,127,64
1,76,127,0
1,74,127,0
1,74,127,0
1,73,127,448
1,73,127,64
1,74,127,64
1,76,127,64
1,74,127,64
1,73,127,64
1,74,127,256
1,73,127,64
1,71,127,64
1,75,127,256
1,73,127,64
1,71,127,0
1,71,127,32
1,73,127,64
1,75,127,32
1,76,127,32
1,76,127,64
1,76,127,64
1,76,127,352
1,75,127,32
1,76,127,32
1,78,127,32
1,76,127,32
1,75,127,32
1,73,127,32
1,73,127,32
1,71,127,64
1,68,127,0
1,71,127,32
1,69,127,352
1,68,127,32
1,69,127,32
1,71,127,32
1,69,127,32
1,68,127,32
1,66,127,32
1,64,127,32
1,76,127,64
1,78,127,64
1,76,127,0
1,76,127,160
1,75,127,32
1,76,127,32
1,78,127,32
1,76,127,32
1,75,127,32
1,73,127,32
1,73,127,32
1,71,127,64
1,68,127,0
1,71,127,32
1,69,127,352
1,68,127,32
1,69,127,32
1,71,127,32
1,67,127,448
1,71,127,0
1,74,127,0
1,78,127,0
1,76,127,0
1,81,127,0
1,79,127,0
1,78,127,0
1,76,127,0
1,79,127,0
1,78,127,0
1,76,127,0
1,74,127,0
1,73,127,0
1,71,127,0
1,67,127,256
1,71,127,0
1,74,127,0
1,78,127,0
1,76,127,0
1,81,127,0
1,79,127,0
1,78,127,0
1,76,127,0
1,79,127,0
1,78,127,0
1,76,127,0
1,75,127,0
1,71,127,0
1,76,127,256
1,76,127,64
1,76,127,64
1,76,127,352
1,75,127,32
1,76,127,32
1,78,127,32
1,76,127,32
1,75,127,32
1,73,127,32
1,73,127,32
1,71,127,0
1,71,127,32
1,68,127,0
1,71,127,32
1,69,127,352
1,68,127,32
1,69,127,32
1,71,127,32
1,69,127,32
1,68,127,32
1,66,127,32
1,64,127,32
1,76,127,64
1,78,127,64
1,76,127,0
1,76,127,160
1,75,127,32
1,76,127,32
1,78,127,32
1,76,127,32
1,75,127,32
1,73,127,32
1,73,127,32
1,71,127,0
1,71,127,32
1,68,127,0
1,71,127,32
1,69,127,352
1,68,127,32
1,69,127,32
1,71,127,32
1,72,127,448
1,76,127,0
1,76,127,32
1,81,127,64
1,79,127,64
1,76,127,0
1,76,127,32
1,79,127,64
1,77,127,64
1,74,127,0
1,74,127,32
1,76,127,64
1,77,127,64
1,76,127,0
1,74,127,0
1,74,127,0
1,72,127,448
1,76,127,0
1,76,127,32
1,81,127,64
1,79,127,64
1,76,127,0
1,76,127,32
1,79,127,64
1,77,127,64
1,74,127,0
1,74,127,32
1,76,127,64
1,77,127,64
1,76,127,0
1,74,127,0
1,74,127,0
1,73,127,448
1,73,127,64
1,74,127,64
1,76,127,64
1,74,127,64
1,73,127,64
1,74,127,256
1,73,127,64
1,71,127,64
1,75,127,256
1,73,127,64
1,71,127,0
1,71,127,32
1,73,127,64
1,75,127,32
1,76,127,32
1,76,127,64
1,76,127,64
1,75,127,448
1,76,127,36
1,78,127,36
1,76,127,36
1,75,127,36
1,73,127,36
1,73,127,36
1,71,127,72
1,68,127,0
1,71,127,32
1,69,127,352
1,68,127,32
1,69,127,32
1,71,127,32
1,69,127,32
1,68,127,32
1,66,127,32
1,64,127,32
1,76,127,64
1,78,127,64
1,76,127,0
1,76,127,160
1,75,127,32
1,76,127,32
1,80,127,32
1,78,127,32
1,76,127,32
1,75,127,32
1,73,127,32
1,71,127,64
1,68,127,0
1,71,127,32
1,69,127,352
1,68,127,32
1,69,127,32
1,71,127,32
1,67,127,448
1,71,127,0
1,74,127,0
1,78,127,0
1,76,127,0
1,81,127,0
1,79,127,0
1,78,127,0
1,76,127,0
1,79,127,0
1,78,127,0
1,76,127,0
1,74,127,0
1,73,127,0
1,71,127,0
1,67,127,256
1,71,127,0
1,74,127,0
1,78,127,0
1,76,127,0
1,81,127,0
1,79,127,0
1,78,127,0
1,76,127,0
1,79,127,0
1,78,127,0
1,76,127,0
1,75,127,0
1,71,127,0
1,76,127,256
1,76,127,64
1,78,127,64
1,76,127,0
1,71,127,256
1,71,127,32
1,83,127,32
1,80,127,64
1,80,127,64
1,78,127,0
1,76,127,0
1,68,127,160
1,69,127,32
1,68,127,64
1,69,127,32
1,71,127,32
1,73,127,64
1,75,127,32
1,76,127,32
1,76,127,64
1,78,127,64
1,76,127,0
1,71,127,256
1,83,127,64
1,80,127,64
1,80,127,64
1,78,127,0
1,76,127,0
1,68,127,160
1,69,127,32
1,68,127,64
1,69,127,32
1,71,127,32
1,73,127,64
1,75,127,32
1,76,127,0
1,76,127,48
1,78,127,24
1,76,127,0
1,71,127,0
1,71,127,24
1,83,127,32
1,80,127,24
1,80,127,24
1,78,127,0
1,76,127,0
1,68,127,0
1,69,127,32
1,68,127,24
1,69,127,32
1,71,127,24
1,73,127,0
1,75,127,24
1,76,127,0
1,76,127,48
1,78,127,24
1,76,127,0
1,71,127,0
1,83,127,48
1,80,127,24
1,80,127,24
1,78,127,0
1,76,127,0
1,68,127,0
1,69,127,32
1,68,127,24
1,69,127,32
1,71,127,24
1,73,127,0
1,75,127,24
2,76,127,3648
2,76,127,64
2,76,127,64
2,75,127,448
2,76,127,32
2,78,127,32
2,76,127,32
2,75,127,32
2,73,127,32
2,73,127,32
2,71,127,64
2,68,127,0
2,71,127,32
2,69,127,352
2,68,127,32
2,69,127,32
2,71,127,32
2,69,127,32
2,68,127,32
2,66,127,32
2,64,127,32
2,76,127,64
2,76,127,64
2,76,127,352
2,75,127,32
2,76,127,32
2,78,127,32
2,76,127,32
2,75,127,32
2,73,127,32
2,73,127,32
2,71,127,0
2,71,127,32
2,68,127,0
2,71,127,32
2,69,127,352
2,68,127,32
2,69,127,32
2,71,127,32
2,73,127,64
2,75,127,32
2,76,127,32
2,76,127,64
2,76,127,64
2,75,127,448
2,76,127,32
2,78,127,32
2,76,127,32
2,75,127,32
2,73,127,32
2,73,127,32
2,71,127,64
2,68,127,0
2,71,127,32
2,69,127,352
2,68,127,32
2,69,127,32
2,71,127,32
2,69,127,32
2,68,127,32
2,66,127,32
2,64,127,32
2,76,127,64
2,78,127,64
2,76,127,0
2,76,127,160
2,75,127,32
2,76,127,32
2,78,127,32
2,76,127,32
2,75,127,32
2,73,127,32
2,73,127,32
2,71,127,64
2,68,127,0
2,71,127,32
2,69,127,352
2,68,127,32
2,69,127,32
2,71,127,32
2,72,127,448
2,76,127,0
2,76,127,32
2,81,127,64
2,79,127,64
2,76,127,0
2,76,127,32
2,79,127,64
2,77,127,0
2,77,127,32
2,74,127,256
2,76,127,64
2,77,127,64
2,76,127,0
2,74,127,0
2,74,127,0
2,72,127,448
2,76,127,0
2,76,127,32
2,81,127,64
2,79,127,64
2,76,127,0
2,76,127,32
2,79,127,64
2,77,127,64
2,74,127,256
2,76,127,64
2,77,127,64
2,76,127,0
2,74,127,0
2,74,127,0
2,73,127,448
2,73,127,64
2,74,127,64
2,76,127,64
2,74,127,64
2,73,127,64
2,74,127,256
2,73,127,64
2,71,127,64
2,75,127,256
2,73,127,64
2,71,127,0
2,71,127,32
2,73,127,64
2,75,127,32
2,76,127,32
2,76,127,64
2,76,127,64
2,76,127,352
2,75,127,32
2,76,127,32
2,78,127,32
2,76,127,32
2,75,127,32
2,73,127,32
2,73,127,32
2,71,127,64
2,68,127,0
2,71,127,32
2,69,127,352
2,68,127,32
2,69,127,32
2,71,127,32
2,69,127,32
2,68,127,32
2,66,127,32
2,64,127,32
2,76,127,64
2,78,127,64
2,76,127,0
2,76,127,160
2,75,127,32
2,76,127,32
2,78,127,32
2,76,127,32
2,75,127,32
2,73,127,32
2,73,127,32
2,71,127,64
2,68,127,0
2,71,127,32
2,69,127,352
2,68,127,32
2,69,127,32
2,71,127,32
2,67,127,448
2,71,127,0
2,74,127,0
2,78,127,0
2,76,127,0
2,81,127,0
2,79,127,0
2,78,127,0
2,76,127,0
2,79,127,0
2,78,127,0
2,76,127,0
2,74,127,0
2,73,127,0
2,71,127,0
2,67,127,256
2,71,127,0
2,74,127,0
2,78,127,0
2,76,127,0
2,81,127,0
2,79,127,0
2,78,127,0
2,76,127,0
2,79,127,0
2,78,127,0
2,76,127,0
2,75,127,0
2,71,127,0
2,76,127,256
2,76,127,64
2,76,127,64
2,76,127,352
2,75,127,32
2,76,127,32
2,78,127,32
2,76,127,32
2,75,127,32
2,73,127,32
2,73,127,32
2,71,127,0
2,71,127,32
2,68,127,0
2,71,127,32
2,69,127,352
2,68,127,32
2,69,127,32
2,71,127,32
2,69,127,32
2,68,127,32
2,66,127,32
2,64,127,32
2,76,127,64
2,78,127,64
2,76,127,0
2,76,127,160
2,75,127,32
2,76,127,32
2,78,127,32
2,76,127,32
2,75,127,32
2,73,127,32
2,73,127,32
2,71,127,0
2,71,127,32
2,68,127,0
2,71,127,32
2,69,127,352
2,68,127,32
2,69,127,32
2,71,127,32
2,72,127,448
2,76,127,0
2,76,127,32
2,81,127,64
2,79,127,64
2,76,127,0
2,76,127,32
2,79,127,64
2,77,127,64
2,74,127,0
2,74,127,32
2,76,127,64
2,77,127,64
2,76,127,0
2,74,127,0
2,74,127,0
2,72,127,448
2,76,127,0
2,76,127,32
2,81,127,64
2,79,127,64
2,76,127,0
2,76,127,32
2,79,127,64
2,77,127,64
2,74,127,0
2,74,127,32
2,76,127,64
2,77,127,64
2,76,127,0
2,74,127,0
2,74,127,0
2,73,127,448
2,73,127,64
2,74,127,64
2,76,127,64
2,74,127,64
2,73,127,64
2,74,127,256
2,73,127,64
2,71,127,64
2,75,127,256
2,73,127,64
2,71,127,0
2,71,127,32
2,73,127,64
2,75,127,32
2,76,127,32
2,76,127,64
2,76,127,64
2,75,127,448
2,76,127,36
2,78,127,36
2,76,127,36
2,75,127,36
2,73,127,36
2,73,127,36
2,71,127,72
2,68,127,0
2,71,127,32
2,69,127,352
2,68,127,32
2,69,127,32
2,71,127,32
2,69,127,32
2,68,127,32
2,66,127,32
2,64,127,32
2,76,127,64
2,78,127,64
2,76,127,0
2,76,127,160
2,75,127,32
2,76,127,32
2,80,127,32
2,78,127,32
2,76,127,32
2,75,127,32
2,73,127,32
2,71,127,64
2,68,127,0
2,71,127,32
2,69,127,352
2,68,127,32
2,69,127,32
2,71,127,32
2,67,127,448
2,71,127,0
2,74,127,0
2,78,127,0
2,76,127,0
2,81,127,0
2,79,127,0
2,78,127,0
2,76,127,0
2,79,127,0
2,78,127,0
2,76,127,0
2,74,127,0
2,73,127,0
2,71,127,0
2,67,127,256
2,71,127,0
2,74,127,0
2,78,127,0
2,76,127,0
2,81,127,0
2,79,127,0
2,78,127,0
2,76,127,0
2,79,127,0
2,78,127,0
2,76,127,0
2,75,127,0
2,71,127,0
2,76,127,256
2,76,127,64
2,78,127,64
2,76,127,0
2,71,127,256
2,71,127,32
2,83,127,32
2,80,127,64
2,80,127,64
2,78,127,0
2,76,127,0
2,68,127,160
2,69,127,32
2,68,127,64
2,69,127,32
2,71,127,32
2,73,127,64
2,75,127,32
2,76,127,32
2,76,127,64
2,78,127,64
2,76,127,0
2,71,127,256
2,83,127,64
2,80,127,64
2,80,127,64
2,78,127,0
2,76,127,0
2,68,127,160
2,69,127,32
2,68,127,64
2,69,127,32
2,71,127,32
2,73,127,64
2,75,127,32
2,76,127,0
2,76,127,48
2,78,127,24
2,76,127,0
2,71,127,0
2,71,127,24
2,83,127,32
2,80,127,24
2,80,127,24
2,78,127,0
2,76,127,0
2,68,127,0
2,69,127,32
2,68,127,24
2,69,127,32
2,71,127,24
2,73,127,0
2,75,127,24
2,76,127,0
2,76,127,48
2,78,127,24
2,76,127,0
2,71,127,0
2,83,127,48
2,80,127,24
2,80,127,24
2,78,127,0
2,76,127,0
2,68,127,0
2,69,127,32
2,68,127,24
2,69,127,32
2,71,127,24
2,73,127,0
2,75,127,24
3,64,127,576
3,68,127,0
3,71,127,0
3,64,127,64
3,68,127,0
3,71,127,0
3,64,127,64
3,68,127,0
3,71,127,0
3,64,127,32
3,68,127,0
3,71,127,0
3,64,127,32
3,68,127,0
3,71,127,0
3,66,127,32
3,69,127,0
3,73,127,0
3,76,127,0
3,66,127,64
3,69,127,0
3,73,127,0
3,76,127,0
3,66,127,64
3,69,127,0
3,73,127,0
3,76,127,0
3,66,127,32
3,69,127,0
3,73,127,0
3,76,127,0
3,66,127,32
3,69,127,0
3,73,127,0
3,76,127,0
3,63,127,32
3,66,127,0
3,68,127,0
3,71,127,0
3,63,127,64
3,66,127,0
3,68,127,0
3,71,127,0
3,63,127,64
3,66,127,0
3,68,127,0
3,71,127,0
3,63,127,32
3,66,127,0
3,68,127,0
3,71,127,0
3,63,127,32
3,66,127,0
3,68,127,0
3,71,127,0
3,57,127,32
3,61,127,0
3,64,127,0
3,57,127,64
3,61,127,0
3,64,127,0
3,57,127,32
3,61,127,0
3,64,127,0
3,59,127,32
3,63,127,0
3,66,127,0
3,59,127,32
3,63,127,0
3,66,127,0
3,59,127,32
3,63,127,0
3,66,127,0
3,64,127,64
3,68,127,0
3,71,127,0
3,64,127,64
3,68,127,0
3,71,127,0
3,64,127,64
3,68,127,0
3,71,127,0
3,64,127,32
3,68,127,0
3,71,127,0
3,64,127,32
3,68,127,0
3,71,127,0
3,66,127,32
3,69,127,0
3,73,127,0
3,76,127,0
3,66,127,64
3,69,127,0
3,73,127,0
3,76,127,0
3,66,127,64
3,69,127,0
3,73,127,0
3,76,127,0
3,66,127,32
3,69,127,0
3,73,127,0
3,76,127,0
3,66,127,32
3,69,127,0
3,73,127,0
3,76,127,0
3,63,127,32
3,66,127,0
3,68,127,0
3,71,127,0
3,63,127,64
3,66,127,0
3,68,127,0
3,71,127,0
3,63,127,64
3,66,127,0
3,68,127,0
3,71,127,0
3,63,127,32
3,66,127,0
3,68,127,0
3,71,127,0
3,63,127,32
3,66,127,0
3,68,127,0
3,71,127,0
3,57,127,32
3,61,127,0
3,64,127,0
3,57,127,64
3,61,127,0
3,64,127,0
3,57,127,32
3,61,127,0
3,64,127,0
3,59,127,32
3,63,127,0
3,66,127,0
3,59,127,32
3,63,127,0
3,66,127,0
3,59,127,32
3,63,127,0
3,66,127,0
3,64,127,64
3,68,127,0
3,71,127,0
3,64,127,64
3,68,127,0
3,71,127,0
3,64,127,64
3,68,127,0
3,71,127,0
3,64,127,32
