track,note,velocity,time
7,64,98,480
7,66,100,62
7,64,0,2
7,66,0,56
7,67,109,2
7,67,0,46
7,67,101,14
7,67,0,40
7,67,108,21
7,67,0,58
7,69,109,1
7,66,104,61
7,69,0,2
7,66,0,55
7,64,107,2
7,62,101,121
7,64,0,3
7,62,0,168
7,69,100,248
7,69,0,54
7,71,107,4
7,71,0,52
7,72,109,8
7,72,0,50
7,72,102,11
7,72,0,30
7,72,107,31
7,72,0,56
7,74,102,4
7,74,0,59
7,71,111,1
7,71,0,58
7,69,105,3
7,67,100,120
7,69,0,6
7,67,0,141
7,71,107,273
7,71,0,58
7,73,100,0
7,74,103,60
7,73,0,4
7,74,0,42
7,74,103,14
7,74,0,37
7,74,98,23
7,74,0,57
7,76,105,4
7,76,0,59
7,71,110,1
7,71,0,60
7,73,102,1
7,74,105,120
7,73,0,2
7,74,0,181
7,73,102,114
7,73,0,42
7,73,105,18
7,73,0,31
7,73,108,31
7,73,0,55
7,71,101,5
7,71,0,136
7,71,99,161
7,71,0,57
7,69,104,2
7,66,102,61
7,69,0,3
7,66,0,33
7,66,105,25
7,64,99,123
7,66,0,3
7,64,0,148
7,64,100,146
7,66,107,61
7,64,0,7
7,66,0,53
7,67,104,1
7,67,0,45
7,67,98,15
7,67,0,42
7,67,105,19
7,69,104,59
7,67,0,9
7,69,0,48
7,66,104,1
7,66,0,59
7,64,99,0
7,62,107,61
7,64,0,5
7,62,0,39
7,62,96,16
7,62,0,159
7,69,100,263
7,69,0,59
7,71,104,1
7,72,107,60
7,71,0,4
7,72,0,38
7,72,97,18
7,72,0,57
7,76,107,3
7,76,0,81
7,74,96,7
7,74,0,23
7,74,108,7
7,69,103,62
7,74,0,3
7,67,98,115
7,69,0,2
7,67,0,127
7,71,99,293
7,71,0,58
7,73,104,2
7,74,109,59
7,73,0,1
7,74,0,42
7,74,101,16
7,74,0,44
7,74,108,16
7,74,0,59
7,76,98,1
7,71,103,60
7,76,0,3
7,71,0,57
7,73,108,0
7,74,108,119
7,73,0,6
7,73,104,295
7,74,0,2
7,73,0,45
7,73,97,15
7,73,0,35
7,73,104,24
7,71,103,60
7,73,0,4
7,71,0,185
7,71,104,112
7,69,99,60
7,71,0,2
7,69,0,53
7,66,107,5
7,66,0,33
7,66,105,27
7,64,99,121
7,66,0,8
7,64,0,178
7,64,98,113
7,64,0,55
7,66,104,5
7,66,0,60
7,67,105,2
7,67,0,43
7,67,99,17
7,67,0,58
7,71,109,0
7,71,0,57
7,69,98,1
7,69,0,44
7,69,108,17
7,69,0,53
7,64,95,5
7,62,106,60
7,64,0,6
7,62,0,153
7,69,99,322
7,69,0,56
7,71,108,4
7,72,105,62
7,71,0,1
7,72,0,45
7,72,97,12
7,72,0,39
7,72,109,23
7,74,103,59
7,72,0,5
7,74,0,56
7,71,108,1
7,71,0,60
7,69,106,0
7,67,104,60
7,69,0,3
7,67,0,33
7,67,95,23
7,67,0,159
7,72,104,261
7,72,0,60
7,74,98,0
7,74,0,43
7,74,103,17
7,76,101,60
7,74,0,4
7,76,0,36
7,76,106,20
7,76,0,51
7,76,99,9
7,76,0,40
7,76,109,20
7,76,0,96
7,74,102,24
7,79,100,60
7,74,0,4
7,78,97,115
7,79,0,3
7,78,0,51
7,76,100,4
7,74,98,59
7,76,0,3
7,72,101,119
7,74,0,1
7,72,0,56
7,71,97,3
7,71,0,46
7,71,98,14
7,72,98,119
7,71,0,1
7,71,98,59
7,72,0,5
7,69,98,55
7,71,0,5
7,67,99,118
7,69,0,5
7,66,99,55
7,67,0,5
7,66,0,53
7,67,96,0
7,67,0,228
7,64,98,2592
7,66,100,62
7,64,0,2
7,66,0,56
7,67,109,2
7,67,0,46
7,67,101,14
7,67,0,40
7,67,108,21
7,67,0,58
7,69,109,1
7,66,104,61
7,69,0,2
7,66,0,55
7,64,107,2
7,62,101,121
7,64,0,3
7,62,0,168
7,69,100,248
7,69,0,54
7,71,107,4
7,71,0,60
7,72,109,0
7,72,0,50
7,72,102,11
7,72,0,38
7,72,107,23
7,72,0,56
7,74,102,4
7,74,0,59
7,71,111,1
7,71,0,58
7,69,105,3
7,69,0,51
7,67,102,9
7,67,0,36
7,67,100,24
7,67,0,147
7,71,107,273
7,71,0,58
7,73,100,0
7,74,103,60
7,73,0,4
7,74,0,42
7,74,103,14
7,74,0,37
7,74,98,23
7,74,0,57
7,76,105,4
7,76,0,59
7,71,110,1
7,71,0,60
7,73,102,1
7,74,105,120
7,73,0,2
7,74,0,181
7,73,102,114
7,73,0,42
7,73,105,18
7,73,0,31
7,73,108,31
7,73,0,55
7,71,101,5
7,71,0,136
7,71,99,161
7,71,0,57
7,69,104,2
7,66,102,61
7,69,0,3
7,66,0,33
7,66,105,25
7,64,99,123
7,66,0,3
7,64,0,148
7,64,100,146
7,66,107,61
7,64,0,7
7,66,0,53
7,67,104,1
7,67,0,45
7,67,98,15
7,67,0,42
7,67,105,19
7,69,104,59
7,67,0,9
7,69,0,48
7,66,104,1
7,66,0,59
7,64,99,0
7,62,107,61
7,64,0,5
7,62,0,39
7,62,96,16
7,62,0,159
7,69,100,263
7,69,0,59
7,71,104,1
7,72,107,60
7,71,0,4
7,72,0,38
7,72,97,18
7,72,0,45
7,72,107,15
7,74,96,55
7,72,0,2
7,71,108,61
7,74,0,2
7,69,103,60
7,71,0,3
7,69,0,51
7,67,103,6
7,67,0,36
7,67,98,22
7,67,0,129
7,71,99,293
7,71,0,58
7,73,104,2
7,74,109,59
7,73,0,1
7,74,0,42
7,74,101,16
7,74,0,44
7,74,108,16
7,74,0,59
7,76,98,1
7,71,103,60
7,76,0,3
7,71,0,57
7,73,108,0
7,74,108,119
7,73,0,6
7,74,0,102
7,73,104,193
7,73,0,47
7,73,97,15
7,73,0,48
7,73,97,15
7,71,103,56
7,73,0,4
7,71,0,137
7,71,104,160
7,69,99,60
7,71,0,2
7,69,0,53
7,66,107,5
7,66,0,33
7,66,105,27
7,64,99,121
7,66,0,8
7,64,0,101
7,64,98,190
7,64,0,55
7,66,104,5
7,66,0,60
7,67,105,2
7,67,0,43
7,67,99,17
7,67,0,58
7,71,109,0
7,71,0,57
7,69,98,1
7,69,0,44
7,69,108,17
7,69,0,53
7,64,95,5
7,62,106,60
7,64,0,6
7,62,0,153
7,69,99,322
7,69,0,56
7,71,108,4
7,72,105,62
7,71,0,1
7,72,0,45
7,72,97,12
7,72,0,39
7,72,109,23
7,74,103,59
7,72,0,5
7,74,0,56
7,71,108,1
7,71,0,60
7,69,106,0
7,67,104,60
7,69,0,3
7,67,0,33
7,67,95,23
7,67,0,124
7,72,104,296
7,72,0,60
7,74,98,0
7,74,0,43
7,74,103,17
7,76,101,60
7,74,0,4
7,76,0,36
7,76,106,20
7,76,0,51
7,76,99,9
7,76,0,40
7,76,109,20
7,76,0,96
7,74,102,24
7,79,100,60
7,74,0,4
7,78,97,115
7,79,0,3
7,78,0,51
7,76,100,4
7,74,98,59
7,76,0,3
7,72,101,119
7,74,0,1
7,72,0,56
7,71,97,3
7,71,0,46
7,71,98,14
7,72,98,119
7,71,0,1
7,71,98,59
7,72,0,5
7,69,98,55
7,71,0,5
7,67,99,118
7,69,0,5
7,66,99,55
7,67,0,5
7,66,0,53
7,67,96,0
7,67,0,228
7,69,101,1393
7,69,0,35
7,69,99,23
7,69,0,45
7,69,107,16
7,69,0,122
7,71,106,1
7,71,0,44
7,71,96,17
7,71,0,40
7,71,103,19
7,72,102,58
7,71,0,4
7,72,0,24
7,72,106,32
7,72,0,67
7,72,104,55
7,72,0,53
7,69,95,246
7,69,0,42
7,69,105,16
7,69,0,43
7,69,104,17
7,69,0,38
7,69,109,22
7,69,0,57
7,71,96,3
7,71,0,39
7,71,107,21
7,71,0,40
7,71,102,20
7,71,0,52
7,71,109,11
7,71,0,55
7,74,91,4
7,74,0,31
7,74,108,27
7,74,0,75
7,74,102,47
7,74,0,68
7,69,103,293
7,69,0,46
7,69,94,13
7,69,0,44
7,69,102,16
7,69,0,55
7,71,95,5
7,71,0,41
7,71,101,19
7,71,0,47
7,71,103,13
7,71,0,50
7,71,108,11
7,72,104,60
7,71,0,2
7,72,0,41
7,72,108,16
7,72,0,63
7,72,101,57
7,72,0,82
7,69,96,218
7,69,0,36
7,69,107,24
7,69,0,53
7,69,98,7
7,69,0,43
7,69,102,17
7,71,102,60
7,69,0,8
7,71,0,26
7,71,104,26
7,71,0,40
7,71,103,20
7,71,0,49
7,71,103,12
7,71,0,49
7,76,97,9
7,76,0,38
7,76,104,23
7,76,0,88
7,76,101,30
7,76,0,345
7,64,102,2415
7,64,0,57
7,66,97,3
7,67,106,60
7,66,0,3
7,67,0,45
7,67,96,14
7,67,0,40
7,67,102,20
7,69,101,59
7,67,0,2
7,69,0,58
7,66,104,0
7,66,0,59
7,64,102,0
7,62,101,119
7,64,0,4
7,62,0,98
7,69,106,323
7,69,0,53
7,71,105,2
7,71,0,58
7,72,105,5
7,72,0,46
7,72,97,12
7,72,0,39
7,72,109,23
7,74,103,59
7,72,0,5
7,74,0,56
7,71,108,1
7,71,0,60
7,69,106,0
7,67,95,119
7,69,0,1
7,67,0,123
7,72,104,296
7,72,0,60
7,74,98,0
7,74,0,43
7,74,103,17
7,76,101,60
7,74,0,4
7,76,0,36
7,76,106,20
7,76,0,51
7,76,99,9
7,76,0,40
7,76,109,20
7,76,0,60
7,74,102,60
7,79,100,60
7,74,0,4
7,78,97,115
7,79,0,3
7,78,0,51
7,76,100,4
7,74,98,59
7,76,0,3
7,72,101,119
7,74,0,1
7,72,0,56
7,71,97,3
7,71,0,46
7,71,98,14
7,72,98,119
7,71,0,1
7,71,98,59
7,72,0,5
7,69,98,55
7,71,0,5
7,67,99,118
7,69,0,5
7,66,99,55
7,67,0,5
7,66,0,53
7,67,96,0
7,67,0,228
7,71,104,6612
7,74,108,59
7,71,0,7
7,74,0,52
7,76,106,0
7,76,0,64
7,76,106,58
7,76,0,45
7,76,102,14
7,76,0,46
7,76,101,15
7,76,0,49
7,76,108,12
7,76,0,122
7,74,105,1
7,79,110,58
7,74,0,4
7,78,97,115
7,79,0,5
7,78,0,49
7,76,100,4
7,74,98,59
7,76,0,3
7,76,101,119
7,74,0,1
7,76,0,56
7,78,104,3
7,78,0,60
7,79,98,0
7,72,98,119
7,79,0,1
7,71,98,59
7,72,0,5
7,69,98,55
7,71,0,5
7,69,0,83
7,69,99,35
7,71,105,60
7,69,0,5
7,71,0,53
7,72,105,0
7,72,0,99
7,72,102,23
7,72,0,58
7,76,107,2
7,76,0,55
7,74,100,3
7,74,0,39
7,74,107,21
7,74,0,60
7,69,105,0
7,67,98,60
7,69,0,6
7,67,0,181
8,36,81,1100
8,36,0,60
8,40,83,180
8,40,0,33
8,38,80,27
8,38,0,37
8,35,85,83
8,35,0,49
8,31,74,311
8,31,0,46
8,35,82,14
8,35,0,49
8,36,87,11
8,36,0,62
8,40,81,238
8,40,0,32
8,38,82,28
8,38,0,43
8,35,85,77
8,35,0,54
8,31,74,306
8,31,0,46
8,35,82,14
8,35,0,49
8,36,87,11
8,36,0,62
8,40,81,238
8,40,0,32
8,38,82,28
8,38,0,43
8,31,82,137
8,31,0,29
8,31,71,31
8,31,0,27
8,31,79,33
8,31,0,30
8,31,74,30
8,31,0,216
8,28,79,84
8,28,0,118
8,28,60,62
8,28,0,29
8,33,79,31
8,33,0,33
8,33,78,27
8,33,0,127
8,38,81,53
8,38,0,160
8,38,86,80
8,38,0,174
8,33,79,6
8,33,0,24
8,33,82,36
8,33,0,142
8,38,81,98
8,38,0,30
8,38,82,30
8,38,0,112
8,31,66,8
8,31,0,22
8,31,82,38
8,31,0,108
8,31,79,132
8,31,0,28
8,31,79,32
8,31,0,26
8,31,75,34
8,31,0,106
8,28,80,14
8,28,0,29
8,28,79,31
8,28,0,100
8,28,54,20
8,28,0,25
8,33,78,35
8,33,0,31
8,33,77,29
8,33,0,132
8,35,77,48
8,35,0,212
8,33,81,28
8,33,0,211
8,31,80,29
8,31,0,208
8,30,80,32
8,30,0,164
8,30,76,16
8,30,0,21
8,33,81,39
8,33,0,183
8,33,79,57
8,33,0,27
8,33,83,33
8,33,0,96
8,33,69,24
8,33,0,19
8,28,78,41
8,28,0,194
8,33,74,46
8,33,0,23
8,33,80,37
8,33,0,94
8,38,66,26
8,38,0,18
8,38,79,42
8,38,0,175
8,38,75,65
8,38,0,162
8,33,73,18
8,33,0,22
8,33,81,38
8,33,0,145
8,36,68,35
8,36,0,22
8,38,79,38
8,38,0,206
8,31,77,34
8,31,0,195
8,31,80,45
8,31,0,102
8,31,77,18
8,31,0,29
8,30,67,31
8,30,0,42
8,28,80,18
8,28,0,189
8,33,78,51
8,33,0,26
8,33,81,34
8,33,0,124
8,35,79,56
8,35,0,164
8,35,68,16
8,35,0,32
8,33,79,28
8,33,0,96
8,33,72,24
8,33,0,95
8,31,77,25
8,31,0,111
8,26,68,9
8,26,0,50
8,31,74,10
8,31,0,34
8,30,80,26
8,30,0,213
8,33,78,27
8,33,0,189
8,33,76,51
8,33,0,32
8,33,78,28
8,33,0,175
8,28,77,5
8,28,0,160
8,28,72,20
8,28,0,22
8,33,79,38
8,33,0,214
8,38,82,26
8,38,0,30
8,38,75,30
8,38,0,44
8,33,81,16
8,33,0,32
8,38,78,28
8,38,0,279
8,33,79,21
8,33,0,146
8,33,69,34
8,33,0,26
8,35,80,34
8,35,0,150
8,35,71,30
8,35,0,37
8,36,79,23
8,36,0,195
8,36,75,45
8,36,0,95
8,36,79,25
8,36,0,45
8,35,72,15
8,35,0,44
8,33,81,16
8,33,0,146
8,33,74,34
8,33,0,30
8,38,78,30
8,38,0,91
8,38,75,29
8,38,0,93
8,40,77,27
8,40,0,39
8,40,75,81
8,40,0,108
8,35,78,12
8,35,0,39
8,35,75,81
8,35,0,106
8,36,77,14
8,36,0,39
8,36,75,81
8,36,0,94
8,38,78,29
8,38,0,39
8,38,75,78
8,38,0,106
8,36,81,14
8,36,0,60
8,40,83,180
8,40,0,33
8,38,80,27
8,38,0,37
8,35,85,83
8,35,0,49
8,31,74,311
8,31,0,46
8,35,82,14
8,35,0,49
8,36,87,11
8,36,0,62
8,40,81,238
8,40,0,32
8,38,82,28
8,38,0,43
8,35,85,77
8,35,0,54
8,31,74,306
8,31,0,46
8,35,82,14
8,35,0,49
8,36,87,11
8,36,0,47
8,40,81,253
8,40,0,47
8,38,82,13
8,38,0,43
8,31,82,137
8,31,0,29
8,31,71,31
8,31,0,27
8,31,79,33
8,31,0,30
8,31,78,30
8,31,0,216
8,28,79,84
8,28,0,118
8,28,60,62
8,28,0,29
8,33,79,31
8,33,0,200
8,38,81,40
8,38,0,160
8,33,70,20
8,33,0,18
8,38,86,42
8,38,0,174
8,33,79,6
8,33,0,24
8,33,82,36
8,33,0,173
8,38,81,67
8,38,0,30
8,38,82,30
8,38,0,112
8,31,66,8
8,31,0,22
8,31,82,38
8,31,0,108
8,31,79,72
8,31,0,26
8,31,79,34
8,31,0,86
8,31,75,34
8,31,0,106
8,28,80,14
8,28,0,212
8,33,78,28
8,33,0,31
8,33,77,29
8,33,0,155
8,35,77,25
8,35,0,212
8,33,81,28
8,33,0,211
8,31,80,29
8,31,0,208
8,30,80,32
8,30,0,164
8,30,76,16
8,30,0,21
8,33,81,39
8,33,0,183
8,33,79,57
8,33,0,27
8,33,83,33
8,33,0,96
8,33,69,24
8,33,0,39
8,28,78,21
8,28,0,194
8,33,74,46
8,33,0,23
8,33,80,37
8,33,0,159
8,38,79,21
8,38,0,175
8,38,75,65
8,38,0,162
8,33,73,18
8,33,0,22
8,33,81,38
8,33,0,210
8,38,79,30
8,38,0,206
8,31,77,34
8,31,0,195
8,31,80,45
8,31,0,102
8,31,77,18
8,31,0,92
8,28,80,28
8,28,0,189
8,33,78,51
8,33,0,26
8,33,81,34
8,33,0,140
8,35,79,40
8,35,0,164
8,35,68,16
8,35,0,32
