track,note,velocity,time
7,74,102,960
7,76,75,47
7,74,0,6
7,78,111,9
7,76,0,3
7,74,72,222
7,78,0,6
7,71,106,6
7,74,0,6
7,71,0,106
7,71,104,8
7,71,0,207
7,67,93,270
7,69,73,51
7,67,0,6
7,71,106,5
7,69,0,7
7,74,105,110
7,71,0,4
7,71,108,66
7,74,0,3
7,71,0,117
7,66,95,0
7,66,0,213
7,62,99,393
7,67,109,54
7,62,0,1
7,69,103,60
7,67,0,8
7,69,0,136
7,65,84,18
7,64,95,11
7,65,0,7
7,62,106,46
7,64,0,5
7,62,0,78
7,62,105,39
7,62,0,145
7,57,97,32
7,57,0,57
7,66,99,4
7,66,0,285
7,67,101,261
7,67,0,116
7,69,108,4
7,69,0,52
7,64,88,0
7,66,99,7
7,64,0,8
7,64,104,169
7,66,0,5
7,66,102,54
7,64,0,6
7,66,0,165
7,57,91,74
7,57,0,49
7,64,75,3
7,65,107,8
7,64,0,7
7,65,0,103
7,64,101,9
7,64,0,32
7,64,106,28
7,64,0,101
7,64,75,12
7,62,102,8
7,64,0,7
7,62,0,275
7,57,93,315
7,57,0,46
7,66,107,17
7,66,0,118
7,69,105,6
7,73,106,49
7,69,0,3
7,74,102,124
7,73,0,1
7,74,0,262
7,64,92,341
7,64,0,50
7,71,106,3
7,71,0,63
7,73,109,2
7,74,111,117
7,73,0,4
7,76,111,117
7,74,0,6
7,76,0,208
7,73,99,27
7,71,105,57
7,73,0,4
7,71,0,46
7,73,73,3
7,69,99,10
7,73,0,2
7,69,0,477
7,74,108,357
7,74,0,261
7,74,117,40
7,74,0,166
7,78,120,20
7,78,0,236
7,74,118,5
7,71,110,116
7,74,0,2
7,71,0,201
7,62,96,275
7,62,0,53
7,71,117,1
7,71,0,120
7,74,115,3
7,71,116,61
7,74,0,3
7,64,74,114
7,71,0,6
7,66,114,4
7,64,0,5
7,66,0,257
7,67,103,334
7,67,0,28
7,67,112,25
7,69,114,68
7,67,0,3
7,69,0,147
7,64,110,28
7,64,0,60
7,62,112,1
7,62,0,75
7,62,112,46
7,57,113,119
7,62,0,4
7,64,72,102
7,57,0,6
7,66,112,3
7,64,0,3
7,66,0,283
7,66,64,251
7,67,101,7
7,66,0,8
7,69,106,114
7,67,0,6
7,64,64,42
7,69,0,6
7,66,102,0
7,64,0,9
7,64,64,108
7,66,0,6
7,62,95,3
7,64,0,6
7,62,0,127
7,64,104,170
7,64,0,96
7,64,74,9
7,65,111,9
7,64,0,6
7,64,104,117
7,65,0,3
7,64,0,24
7,64,111,25
7,62,102,126
7,64,0,5
7,62,0,204
7,62,98,393
7,62,0,53
7,66,114,8
7,66,0,114
7,69,108,1
7,73,113,58
7,69,0,14
7,74,113,110
7,73,0,2
7,74,0,259
7,64,100,347
7,64,0,31
7,71,112,23
7,73,113,60
7,71,0,2
7,74,115,110
7,73,0,4
7,74,0,134
7,78,103,46
7,71,114,50
7,78,0,12
7,73,111,116
7,71,0,1
7,73,0,105
7,74,107,12
7,74,0,418
7,71,93,1744
7,71,0,36
7,71,113,27
7,71,0,115
7,74,108,0
7,73,111,60
7,74,0,4
7,71,119,126
7,73,0,3
7,71,0,114
7,69,111,1
7,67,113,175
7,69,0,1
7,67,0,63
7,69,116,0
7,73,117,361
7,69,0,3
7,74,75,107
7,73,0,6
7,71,106,2
7,74,0,7
7,71,0,421
7,67,101,293
7,67,0,30
7,67,111,34
7,71,116,54
7,67,0,9
7,69,110,173
7,71,0,4
7,67,105,57
7,69,0,3
7,67,0,144
7,66,115,33
7,64,110,62
7,66,0,1
7,66,111,237
7,64,0,6
7,66,0,357
7,72,72,228
7,74,114,7
7,72,0,5
7,74,0,352
7,74,112,63
7,72,114,60
7,74,0,2
7,72,0,54
7,74,120,4
7,74,0,56
7,77,117,4
7,77,0,101
7,76,116,19
7,76,0,92
7,74,116,28
7,74,0,104
7,72,113,16
7,72,0,107
7,70,115,16
7,70,0,110
7,72,110,4
7,72,0,348
7,74,70,5
7,76,114,9
7,74,0,6
7,77,70,108
7,76,0,3
7,74,108,4
7,77,0,8
7,74,0,301
7,62,89,413
7,70,109,55
7,62,0,1
7,70,0,112
7,74,110,12
7,72,106,58
7,74,0,7
7,70,104,169
7,72,0,5
7,69,111,56
7,70,0,4
7,69,0,84
7,67,71,30
7,67,0,9
7,69,108,3
7,69,0,141
7,69,107,31
7,69,0,392
7,72,74,319
7,72,0,12
7,74,114,0
7,74,0,312
7,74,116,46
7,74,0,110
7,76,74,3
7,78,118,7
7,76,0,5
7,78,0,267
7,74,113,28
7,74,0,119
7,71,111,4
7,71,0,191
7,71,104,286
7,71,0,117
7,74,118,4
7,74,0,116
7,71,113,7
7,64,74,111
7,71,0,3
7,66,107,6
7,64,0,3
7,66,0,270
7,71,114,382
7,69,114,56
7,71,0,6
7,69,0,173
7,64,112,5
7,62,111,59
7,64,0,3
7,62,0,90
7,62,113,31
7,62,0,177
7,57,107,1
7,66,114,54
7,57,0,4
7,66,0,309
7,66,106,233
7,67,103,60
7,66,0,1
7,67,0,59
7,69,112,0
7,69,0,60
7,66,104,0
7,64,109,180
7,66,0,4
7,66,108,50
7,64,0,10
7,66,0,194
7,64,68,31
7,64,0,3
7,65,107,7
7,65,0,110
7,64,109,14
7,64,0,88
7,64,111,25
7,62,106,125
7,64,0,3
7,62,0,249
7,64,68,399
7,64,0,6
7,66,117,7
7,69,118,112
7,66,0,7
7,69,0,50
7,73,114,1
7,73,0,123
7,74,110,1
7,74,0,215
7,71,116,323
7,71,0,31
7,71,109,30
7,71,0,119
7,73,119,5
7,74,113,117
7,73,0,2
7,74,0,77
7,78,110,102
7,71,112,62
7,78,0,4
7,71,0,168
7,73,111,5
7,74,111,65
7,73,0,1
7,74,0,1945
7,73,68,7040
7,74,122,10
7,73,0,2
7,74,0,723
7,74,110,113
7,78,111,126
7,74,0,4
7,78,0,146
7,74,111,86
7,69,68,110
7,74,0,6
7,71,114,5
7,69,0,1
7,71,0,278
7,76,68,73
7,77,109,9
7,76,0,3
7,76,107,55
7,77,0,6
7,74,114,51
7,76,0,5
7,74,0,57
7,74,116,57
7,74,0,84
7,74,114,29
7,64,68,124
7,74,0,3
7,66,114,4
7,64,0,5
7,66,0,269
7,62,99,324
7,62,0,49
7,71,117,13
7,69,103,58
7,71,0,1
7,69,0,114
7,64,68,0
7,65,112,8
7,64,0,4
7,65,0,102
7,62,113,8
7,62,0,88
7,62,114,36
7,62,0,111
7,57,113,9
7,57,0,120
7,66,112,7
7,66,0,281
7,66,70,230
7,66,0,6
7,67,70,6
7,67,0,6
7,69,98,2
7,69,0,123
7,71,109,0
7,64,70,43
7,64,0,6
7,71,0,3
7,65,70,0
7,65,0,6
7,66,108,2
7,64,104,125
7,66,0,6
7,62,105,46
7,64,0,7
7,62,0,78
7,57,91,216
7,57,0,43
7,65,104,20
7,64,104,53
7,65,0,7
7,64,0,144
7,64,105,37
7,62,101,57
7,64,0,5
7,62,0,317
7,62,89,282
7,66,106,59
7,62,0,4
7,69,108,114
7,66,0,4
7,73,110,50
7,69,0,11
7,73,0,113
7,74,103,1
7,74,0,233
7,62,97,374
7,62,0,50
7,71,107,4
7,73,110,65
7,71,0,2
7,74,107,113
7,73,0,4
7,74,0,126
7,78,113,47
7,78,0,58
7,76,112,6
7,74,113,118
7,76,0,2
7,74,0,104
7,74,111,12
7,74,0,424
7,70,100,1
7,72,104,57
7,70,0,8
7,72,0,468
7,72,102,65
7,72,0,460
7,74,92,21
7,72,101,117
7,74,0,8
7,70,97,110
7,72,0,1
7,69,100,119
7,70,0,8
7,67,93,48
7,69,0,9
7,67,0,449
8,38,77,10701
8,38,0,164
8,38,61,16
8,38,0,25
8,38,76,35
8,38,0,209
8,35,72,31
8,35,0,148
8,35,66,32
8,35,0,26
8,35,78,34
8,35,0,110
8,32,65,10
8,32,0,60
8,31,75,60
8,31,0,148
8,31,62,32
8,31,0,26
8,31,77,34
8,31,0,191
8,35,75,49
8,35,0,171
8,38,74,9
8,38,0,160
8,33,70,20
8,33,0,50
8,31,74,70
8,31,0,163
8,31,62,17
8,31,0,18
8,31,76,42
8,31,0,197
8,31,76,43
8,31,0,145
8,31,52,35
8,31,0,25
8,31,76,35
8,31,0,92
8,38,68,28
8,38,0,48
8,30,75,72
8,30,0,137
8,30,62,43
8,30,0,25
8,30,72,35
8,30,0,210
8,33,70,30
8,33,0,148
8,38,74,32
8,38,0,162
8,33,69,18
8,33,0,61
8,31,74,59
8,31,0,139
8,31,62,41
8,31,0,18
8,31,76,42
8,31,0,197
8,31,76,43
8,31,0,145
8,31,52,35
8,31,0,25
8,31,76,35
8,31,0,92
8,38,68,28
8,38,0,48
8,30,75,72
8,30,0,137
8,30,62,43
8,30,0,25
8,30,72,35
8,30,0,178
8,35,76,62
8,35,0,137
8,35,64,43
8,35,0,28
8,35,75,32
8,35,0,76
8,30,66,44
8,30,0,58
8,28,71,62
8,28,0,142
8,28,61,38
8,28,0,25
8,28,73,35
8,28,0,152
8,28,61,28
8,28,0,35
8,33,76,25
8,33,0,139
8,33,63,41
8,33,0,26
8,33,77,34
8,33,0,59
8,33,66,61
8,33,0,65
8,26,69,55
8,26,0,56
8,33,68,4
8,38,73,60
8,33,0,5
8,38,0,340
8,26,74,15
8,26,0,56
8,33,61,4
8,38,73,60
8,33,0,5
8,38,0,340
8,26,71,15
8,26,0,56
8,33,68,4
8,38,73,60
8,33,0,5
8,38,0,340
8,26,74,15
8,26,0,56
8,33,68,4
8,38,73,60
8,33,0,5
8,38,0,270
8,33,70,25
8,33,0,23
8,31,75,37
8,31,0,135
8,31,58,45
8,31,0,23
8,31,75,37
8,31,0,181
8,33,69,59
8,33,0,153
8,33,65,27
8,33,0,26
8,33,74,34
8,33,0,188
8,30,75,52
8,30,0,135
8,30,58,45
8,30,0,23
8,30,75,37
8,30,0,181
8,35,69,59
8,35,0,153
8,35,65,27
8,35,0,26
8,35,74,34
8,35,0,107
8,35,68,13
8,35,0,63
8,28,75,57
8,28,0,135
8,28,58,45
8,28,0,23
8,28,75,37
8,28,0,181
8,33,69,59
8,33,0,153
8,33,65,27
8,33,0,26
8,33,74,34
8,33,0,188
8,38,75,52
8,38,0,135
8,38,58,45
8,38,0,23
8,38,75,37
8,38,0,181
8,26,68,59
8,38,77,60
8,26,0,7
8,26,62,113
8,38,0,8
8,26,0,31
8,36,75,21
8,36,0,33
8,36,81,27
8,36,0,88
8,36,72,32
8,36,0,40
8,34,78,20
8,34,0,139
8,34,65,41
8,34,0,31
8,34,73,29
8,34,0,154
8,36,78,26
8,36,0,37
8,36,81,83
8,36,0,40
8,36,78,80
8,36,0,106
8,31,63,14
8,31,0,31
8,36,78,29
8,36,0,35
8,31,60,25
8,31,0,24
8,33,75,36
8,33,0,139
8,33,68,41
8,33,0,25
8,33,75,35
8,33,0,181
8,38,71,59
8,38,0,152
8,38,75,28
8,38,0,118
8,33,65,2
8,33,0,31
8,33,77,29
8,33,0,31
8,32,73,29
8,32,0,24
8,31,73,36
8,31,0,918
8,33,69,42
8,33,0,397
8,33,61,23
8,33,0,57
8,45,77,3
8,45,0,396
8,38,65,24
8,38,0,27
8,38,77,33
8,38,0,164
8,38,61,16
8,38,0,25
8,38,76,35
8,38,0,209
8,35,72,31
8,35,0,148
8,35,66,32
8,35,0,26
8,35,78,34
8,35,0,110
8,32,65,10
8,32,0,60
8,31,75,60
8,31,0,148
8,31,62,32
8,31,0,26
8,31,77,34
8,31,0,191
8,35,75,49
8,35,0,171
8,38,74,9
8,38,0,160
8,33,70,20
8,33,0,50
8,31,74,70
8,31,0,163
8,31,62,17
8,31,0,18
8,31,76,42
8,31,0,197
8,31,76,43
8,31,0,145
8,31,52,35
8,31,0,25
8,31,76,35
8,31,0,92
8,31,71,28
8,31,0,48
8,30,75,72
8,30,0,137
8,30,62,43
8,30,0,25
8,30,72,35
8,30,0,210
8,33,70,30
8,33,0,148
8,38,74,32
8,38,0,162
8,33,69,18
8,33,0,61
8,31,74,59
8,31,0,139
8,31,62,41
8,31,0,18
8,31,76,42
8,31,0,197
8,31,76,43
8,31,0,145
8,31,64,35
8,31,0,25
8,31,76,35
8,31,0,92
8,38,68,28
8,38,0,68
8,30,75,52
8,30,0,137
8,30,62,43
8,30,0,25
8,30,72,35
8,30,0,178
8,35,76,62
8,35,0,137
8,35,64,43
8,35,0,28
8,35,75,32
8,35,0,76
8,47,66,44
8,47,0,50
8,40,74,70
8,40,0,142
8,40,61,38
8,40,0,25
8,40,73,35
8,40,0,164
8,33,76,76
8,33,0,139
8,33,63,41
8,33,0,26
8,33,77,34
8,33,0,59
8,33,68,61
8,33,0,65
8,26,69,55
8,26,0,56
8,33,68,4
8,38,73,60
8,33,0,5
8,38,0,340
8,26,74,15
8,26,0,56
8,33,61,4
8,38,73,60
8,33,0,5
8,38,0,340
8,26,71,15
8,26,0,56
8,33,68,4
8,38,73,60
8,33,0,5
8,38,0,340
8,26,74,15
8,26,0,56
8,33,68,4
8,38,73,60
8,33,0,5
8,38,0,270
8,33,62,25
8,33,0,23
8,38,77,37
8,38,0,164
8,38,61,16
8,38,0,25
8,38,76,35
8,38,0,209
8,35,72,31
8,35,0,148
8,35,66,32
8,35,0,26
8,35,78,34
8,35,0,110
8,38,65,10
8,38,0,44
8,31,75,76
8,31,0,148
8,31,62,32
8,31,0,26
8,31,77,34
8,31,0,191
8,35,75,49
8,35,0,171
8,38,74,9
8,38,0,32
8,38,76,28
8,38,0,99
8,35,70,21
8,35,0,32
8,33,72,28
8,33,0,29
8,31,74,31
8,31,0,163
8,31,62,17
8,31,0,18
8,31,76,42
8,31,0,197
8,31,76,43
8,31,0,145
8,31,52,35
8,31,0,25
8,31,76,35
8,31,0,92
8,31,71,28
8,31,0,48
8,30,75,72
8,30,0,137
8,30,62,43
8,30,0,25
8,30,72,35
8,30,0,210
8,33,70,30
8,33,0,167
8,38,64,13
8,38,0,29
8,38,74,33
8,38,0,105
8,33,69,13
8,33,0,61
8,31,74,59
8,31,0,139
8,31,62,41
8,31,0,18
8,31,76,42
8,31,0,167
8,31,76,73
8,31,0,145
8,31,64,35
8,31,0,25
8,31,76,35
8,31,0,92
8,31,73,28
8,31,0,53
8,30,75,67
8,30,0,137
8,30,62,43
8,30,0,25
8,30,72,35
8,30,0,178
8,35,76,62
8,35,0,137
8,35,64,43
8,35,0,28
8,35,75,32
8,35,0,76
8,30,66,44
8,30,0,50
8,28,74,70
8,28,0,142
8,28,61,38
8,28,0,25
8,28,73,35
8,28,0,164
8,40,74,76
8,40,0,149
8,40,60,31
8,40,0,25
8,40,74,35
8,40,0,83
8,35,71,37
8,35,0,44
8,33,74,76
8,33,0,151
8,33,63,29
8,33,0,26
8,33,74,34
8,33,0,181
8,33,73,59
8,33,0,150
8,40,69,30
8,40,0,25
8,33,76,35
8,33,0,30
8,40,69,30
8,40,0,33
8,33,70,27
8,33,0,60
8,38,77,60
8,38,0,164
8,38,61,16
8,38,0,25
8,38,76,35
8,38,0,209
8,35,72,31
8,35,0,148
8,35,66,32
8,35,0,26
8,35,78,34
8,35,0,173
8,31,75,67
8,31,0,148
8,31,62,32
8,31,0,26
8,31,77,34
8,31,0,191
8,35,75,49
8,35,0,171
8,38,74,9
8,38,0,160
8,30,70,20
8,30,0,50
8,31,74,70
8,31,0,137
8,31,62,43
8,31,0,18
8,31,76,42
8,31,0,164
8,31,76,76
8,31,0,110
8,31,52,70
8,31,0,25
8,31,76,35
8,31,0,92
8,31,71,28
8,31,0,48
8,30,75,72
8,30,0,137
8,30,62,43
8,30,0,25
8,30,72,35
8,30,0,179
8,33,70,61
8,33,0,148
8,38,74,32
8,38,0,162
8,33,69,18
8,33,0,61
8,31,68,59
8,31,0,430
8,31,70,50
8,31,0,427
8,30,70,53
8,30,0,433
8,35,69,47
8,35,0,424
8,28,68,56
8,28,0,439
8,33,67,41
8,33,0,406
8,34,75,74
8,34,0,150
