track,note,velocity,time
1,74,110,453
1,50,113,1
1,74,0,18
1,50,0,8
1,74,105,21
1,50,111,1
1,74,0,22
1,50,0,3
1,74,112,22
1,50,111,1
1,38,87,95
1,62,92,0
1,102,89,0
1,57,96,1
1,62,98,0
1,66,94,0
1,78,95,0
1,38,0,34
1,57,0,10
1,78,0,0
1,62,0,4
1,66,0,0
1,102,0,0
1,62,0,8
1,38,89,39
1,66,99,0
1,105,95,0
1,57,96,1
1,62,96,0
1,66,94,0
1,81,93,0
1,74,0,34
1,50,0,1
1,105,0,6
1,81,0,2
1,62,0,10
1,57,0,12
1,66,0,0
1,66,0,7
1,38,0,15
1,74,112,8
1,50,113,1
1,74,0,18
1,50,0,6
1,74,108,23
1,50,113,1
1,74,0,22
1,50,0,3
1,74,112,22
1,50,111,1
1,43,89,95
1,62,90,0
1,103,93,0
1,59,96,1
1,62,93,0
1,67,96,0
1,79,91,0
1,67,0,32
1,103,0,5
1,62,0,1
1,43,0,1
1,79,0,0
1,62,0,8
1,59,0,6
1,74,0,36
1,43,89,6
1,67,97,0
1,107,93,0
1,59,98,1
1,62,93,0
1,67,98,0
1,83,88,0
1,50,0,20
1,107,0,17
1,83,0,3
1,67,0,6
1,62,0,5
1,67,0,3
1,59,0,9
1,43,0,22
1,74,108,10
1,50,113,1
1,74,0,23
1,50,0,1
1,74,110,23
1,50,111,1
1,74,0,20
1,50,0,5
1,38,89,22
1,62,99,0
1,74,105,0
1,98,95,0
1,50,109,1
1,54,100,0
1,57,100,0
1,62,98,0
1,86,93,0
1,86,0,23
1,88,86,1
1,98,0,15
1,88,0,8
1,86,86,1
1,86,0,23
1,88,84,1
1,74,0,8
1,72,103,15
1,88,0,0
1,52,109,1
1,86,93,0
1,86,0,1
1,62,0,8
1,50,0,8
1,88,86,7
1,72,0,6
1,38,0,3
1,52,0,10
1,88,0,4
1,86,86,1
1,57,0,23
1,86,0,0
1,88,84,1
1,62,0,5
1,54,0,2
1,69,105,16
1,88,0,0
1,54,107,1
1,86,93,0
1,86,0,23
1,69,0,1
1,88,86,0
1,54,0,20
1,88,0,3
1,86,86,1
1,86,0,23
1,88,84,1
1,66,112,23
1,88,0,0
1,57,111,1
1,86,93,0
1,86,0,1
1,88,86,23
1,57,0,11
1,66,0,0
1,88,0,12
1,86,86,1
1,86,0,23
1,88,84,1
1,62,110,23
1,88,0,0
1,62,111,1
1,86,93,0
1,86,0,1
1,62,0,43
1,62,0,36
1,38,80,15
1,60,97,0
1,38,0,65
1,40,87,31
1,59,83,0
1,60,0,9
1,40,0,52
1,42,85,35
1,57,90,0
1,59,0,6
1,79,70,37
1,81,79,24
1,42,0,3
1,79,0,2
1,57,0,17
1,83,86,2
1,43,78,5
1,107,86,0
1,81,0,16
1,67,97,80
1,71,105,0
1,59,91,1
1,62,93,0
1,62,111,0
1,67,93,0
1,43,0,23
1,62,0,9
1,67,0,0
1,67,0,0
1,71,0,1
1,62,0,4
1,107,0,7
1,59,0,4
1,38,78,47
1,67,95,0
1,71,110,0
1,62,113,1
1,67,0,32
1,62,0,1
1,71,0,1
1,67,95,61
1,71,105,0
1,59,91,1
1,62,100,0
1,62,109,0
1,67,96,0
1,38,0,23
1,71,0,7
1,67,0,1
1,62,0,2
1,62,0,1
1,67,0,3
1,59,0,10
1,83,0,40
1,79,88,3
1,43,78,5
1,67,95,0
1,71,110,0
1,103,91,0
1,62,106,1
1,67,0,31
1,62,0,1
1,71,0,1
1,67,97,62
1,71,108,0
1,59,89,1
1,62,96,0
1,62,113,0
1,67,89,0
1,43,0,20
1,62,0,5
1,103,0,4
1,67,0,6
1,59,0,9
1,38,73,51
1,71,0,24
1,62,0,16
1,67,0,1
1,67,95,55
1,71,110,0
1,59,87,1
1,62,98,0
1,62,109,0
1,67,89,0
1,67,0,29
1,38,0,1
1,71,0,0
1,62,0,1
1,67,0,1
1,62,0,2
1,59,0,8
1,79,0,11
1,74,84,37
1,43,78,5
1,67,95,0
1,71,108,0
1,98,86,0
1,62,111,1
1,62,0,53
1,67,0,6
1,71,0,3
1,98,0,10
1,79,84,18
1,67,95,5
1,71,101,0
1,103,93,0
1,59,91,1
1,62,98,0
1,62,111,0
1,67,91,0
1,74,0,3
1,62,0,24
1,67,0,2
1,43,0,1
1,59,0,10
1,67,0,14
1,62,0,22
1,71,0,4
1,38,75,15
1,67,99,0
1,72,105,0
1,64,106,1
1,67,0,29
1,72,0,3
1,103,0,12
1,64,0,1
1,67,97,50
1,71,112,0
1,59,89,1
1,62,96,0
1,62,109,0
1,67,91,0
1,62,0,27
1,38,0,3
1,67,0,0
1,59,0,9
1,43,73,56
1,67,0,36
1,43,0,12
1,62,0,15
1,74,95,28
1,38,65,5
1,62,97,0
1,59,89,1
1,62,93,0
1,67,91,0
1,71,0,9
1,62,0,14
1,67,0,5
1,59,0,12
1,38,0,15
1,76,88,35
1,62,0,1
1,74,0,3
1,40,66,1
1,64,97,0
1,79,0,50
1,40,0,18
1,74,88,23
1,42,78,5
1,62,95,0
1,64,0,0
1,76,0,0
1,59,89,1
1,62,98,0
1,67,91,0
1,62,0,23
1,67,0,8
1,79,82,11
1,59,0,3
1,81,84,21
1,62,0,6
1,42,0,1
1,79,0,9
1,74,0,4
1,83,88,4
1,43,76,5
1,107,91,0
1,81,0,25
1,43,0,64
1,67,97,7
1,71,108,0
1,59,89,1
1,62,98,0
1,62,106,0
1,67,93,0
1,62,0,25
1,62,0,7
1,67,0,0
1,71,0,1
1,67,0,1
1,59,0,6
1,107,0,17
1,38,75,38
1,67,95,0
1,71,110,0
1,62,111,1
1,71,0,33
1,67,0,2
1,62,0,1
1,67,95,59
1,71,108,0
1,59,89,1
1,62,96,0
1,62,111,0
1,67,91,0
1,62,0,23
1,67,0,6
1,67,0,1
1,71,0,3
1,62,0,3
1,59,0,9
1,38,0,1
1,79,86,44
1,43,76,5
1,67,95,0
1,71,110,0
1,83,0,0
1,103,93,0
1,62,111,1
1,71,0,30
1,67,0,2
1,62,0,4
1,67,95,59
1,71,108,0
1,59,91,1
1,62,96,0
1,62,111,0
1,67,93,0
1,43,0,17
1,62,0,6
1,67,0,6
1,59,0,15
1,103,0,42
1,38,75,9
1,67,0,18
1,71,0,10
1,62,0,5
1,38,0,45
1,43,75,18
1,67,97,0
1,71,105,0
1,59,87,1
1,62,87,0
1,62,111,0
1,67,93,0
1,62,0,23
1,62,0,10
1,67,0,1
1,71,0,5
1,59,0,5
1,67,0,4
1,80,82,18
1,43,0,12
1,79,0,7
1,81,84,5
1,45,75,5
1,66,93,0
1,69,105,0
1,105,95,0
1,62,113,1
1,80,0,7
1,62,0,48
1,105,0,0
1,66,0,16
1,69,0,3
1,81,0,2
1,81,84,14
1,66,99,5
1,69,103,0
1,105,95,0
1,57,87,1
1,62,96,0
1,62,109,0
1,66,92,0
1,45,0,13
1,57,0,24
1,66,0,0
1,62,0,2
1,62,0,1
1,69,0,20
1,66,0,10
1,38,76,25
1,67,95,0
1,71,110,0
1,62,113,1
1,71,0,33
1,62,0,3
1,67,0,7
1,105,0,37
1,66,93,15
1,69,112,0
1,57,91,1
1,62,93,0
1,62,113,0
1,66,92,0
1,38,0,32
1,57,0,7
1,62,0,1
1,66,0,3
1,45,73,52
1,66,0,28
1,45,0,18
1,62,0,12
1,69,0,15
1,74,93,18
1,38,75,5
1,62,88,0
1,57,87,1
1,62,93,0
1,66,94,0
1,62,0,35
1,57,0,4
1,66,0,0
1,62,0,51
1,76,91,0
1,81,0,0
1,38,0,3
1,40,78,2
1,64,90,0
1,74,0,2
1,40,0,68
1,64,0,16
1,74,86,5
1,76,0,3
1,42,78,2
1,62,90,0
1,57,89,1
1,62,89,0
1,66,90,0
1,62,0,36
1,79,75,6
1,57,0,3
1,66,0,1
1,62,0,12
1,81,84,8
1,42,0,5
1,79,0,8
1,74,0,7
1,83,84,4
1,43,78,5
1,107,95,0
1,81,0,19
1,67,97,77
1,71,105,0
1,59,87,1
1,62,91,0
1,62,113,0
1,67,96,0
1,67,0,34
1,62,0,1
1,62,0,1
1,71,0,0
1,43,0,2
1,67,0,2
1,59,0,7
1,107,0,33
1,50,78,15
1,67,95,0
1,71,110,0
1,62,111,1
1,71,0,32
1,67,0,2
1,62,0,1
1,67,90,60
1,71,103,0
1,59,87,1
1,62,91,0
1,62,109,0
1,67,91,0
1,71,0,30
1,62,0,2
1,67,0,0
1,59,0,7
1,62,0,2
1,67,0,2
1,50,0,6
1,79,91,41
1,83,0,1
1,47,78,4
1,67,95,0
1,71,108,0
1,103,93,0
1,62,106,1
1,67,0,32
1,71,0,0
1,62,0,2
1,67,95,61
1,71,105,0
1,59,82,1
1,62,91,0
1,62,113,0
1,65,89,0
1,67,93,0
1,62,0,31
1,67,0,4
1,47,0,5
1,59,0,6
1,65,0,5
1,103,0,20
1,43,80,24
1,71,0,24
1,62,0,3
1,67,0,0
1,43,0,61
1,47,75,8
1,67,95,0
1,71,110,0
1,59,87,1
1,62,87,0
1,62,109,0
1,65,89,0
1,67,93,0
1,62,0,36
1,62,0,3
1,67,0,1
1,65,0,2
1,81,88,0
1,71,0,2
1,67,0,8
1,79,0,1
1,59,0,12
1,83,88,1
1,47,0,20
1,81,0,3
1,84,86,1
1,48,80,5
1,67,97,0
1,72,110,0
1,108,95,0
1,64,113,1
1,83,0,21
1,108,0,24
1,64,0,8
1,67,0,0
1,72,0,3
1,84,0,3
1,84,86,31
1,67,97,5
1,72,108,0
1,108,95,0
1,60,89,1
1,64,91,0
1,64,111,0
1,67,91,0
1,64,0,34
1,72,0,2
1,67,0,4
1,60,0,5
1,48,0,10
1,64,0,0
1,67,0,3
1,43,82,37
1,69,97,0
1,72,105,0
1,65,113,1
1,108,0,19
1,72,0,8
1,65,0,16
1,69,0,3
1,67,99,49
1,72,110,0
1,60,87,1
1,64,93,0
1,64,113,0
1,67,87,0
1,67,0,35
1,64,0,1
1,60,0,5
1,43,0,21
1,48,80,33
1,67,0,58
1,72,0,24
1,60,91,15
1,64,96,0
1,67,87,0
1,64,0,34
1,67,0,2
1,60,0,2
1,48,0,8
1,64,0,4
1,48,78,45
1,84,0,28
1,48,0,47
1,84,86,16
1,40,54,5
1,108,88,0
1,60,87,1
1,64,93,0
1,67,85,0
1,60,0,38
1,64,0,0
1,67,0,2
1,108,0,23
1,40,0,5
1,83,91,22
1,43,84,5
1,62,99,0
1,62,112,0
1,84,0,0
1,107,93,0
1,50,111,1
1,86,88,0
1,86,0,23
1,88,79,1
1,88,0,23
1,86,82,1
1,86,0,23
1,88,73,1
1,88,0,23
1,59,93,1
1,62,91,0
1,67,93,0
1,86,88,0
1,107,0,11
1,86,0,12
1,88,79,1
1,62,0,4
1,67,0,11
1,88,0,8
1,86,82,1
1,43,0,2
1,59,0,6
1,86,0,15
1,88,73,1
1,38,78,23
1,88,0,0
1,86,88,1
1,86,0,23
1,88,79,1
1,88,0,23
1,86,82,1
1,86,0,23
1,88,73,1
1,79,84,18
1,103,88,5
1,88,0,0
1,59,87,1
1,62,87,0
1,67,93,0
1,86,88,0
1,83,0,14
1,62,0,8
1,50,0,1
1,86,0,0
1,88,79,1
1,62,0,15
1,38,0,5
1,59,0,2
1,67,0,0
1,88,0,1
1,86,82,1
1,103,0,3
1,62,0,4
1,86,0,16
1,88,73,1
1,79,0,9
1,81,93,9
1,45,82,5
1,62,97,0
1,62,112,0
1,105,93,0
1,88,0,0
1,50,113,1
1,86,88,0
1,86,0,23
1,88,79,1
1,88,0,23
1,86,82,1
1,86,0,23
1,88,73,1
1,88,0,23
1,57,87,1
1,62,93,0
1,66,94,0
1,86,88,0
1,105,0,3
1,86,0,20
1,88,79,1
1,45,0,3
1,62,0,13
1,66,0,2
1,57,0,1
1,88,0,4
1,86,82,1
1,86,0,23
1,88,73,1
1,38,78,23
1,88,0,0
1,86,88,1
1,86,0,23
1,88,79,1
1,88,0,23
1,86,82,1
1,86,0,23
1,88,73,1
1,78,87,18
1,102,89,5
1,88,0,0
1,57,91,1
1,62,87,0
1,66,92,0
1,86,88,0
1,86,0,23
1,88,79,1
1,81,0,6
1,62,0,4
1,66,0,11
1,88,0,2
1,57,0,1
1,86,82,0
1,102,0,2
1,86,0,21
1,38,0,1
1,88,73,0
1,62,0,10
1,62,0,0
1,78,0,0
1,50,0,8
1,79,88,0
1,43,87,5
1,67,97,0
1,67,112,0
1,103,93,0
1,88,0,0
1,55,111,1
1,59,93,0
1,62,98,0
1,67,100,0
1,91,88,0
1,79,0,57
1,62,0,1
1,67,0,2
1,103,0,6
1,59,0,3
1,91,0,1
1,43,0,15
1,67,0,6
1,67,0,5
1,55,0,4
1,74,95,86
1,62,99,5
1,74,112,0
1,50,109,1
1,62,0,77
1,74,0,0
1,50,0,1
1,74,0,23
1,74,91,37
1,62,99,5
1,74,112,0
1,50,113,1
1,74,0,18
1,62,0,5
1,74,0,0
1,50,0,8
1,74,91,11
1,62,92,5
1,74,105,0
1,50,109,1
1,74,0,31
1,50,0,2
1,62,0,0
1,74,0,0
1,74,91,57
1,38,84,5
1,62,97,0
1,74,110,0
1,50,113,1
1,62,0,29
1,74,0,0
1,74,0,5
1,50,0,4
1,38,0,44
1,74,93,8
1,40,80,5
1,62,99,0
1,74,112,0
1,50,113,1
1,62,0,33
1,74,0,0
1,74,0,1
1,50,0,8
1,40,0,47
1,74,95,1
1,42,81,5
1,62,97,0
1,74,110,0
1,50,111,1
1,62,0,40
1,74,0,0
1,74,0,3
1,50,0,7
1,83,86,40
1,42,0,1
1,43,78,4
1,107,86,0
1,67,97,96
1,71,105,0
1,59,91,1
1,62,93,0
1,62,111,0
1,67,93,0
1,43,0,23
1,62,0,9
1,67,0,0
1,67,0,0
1,71,0,1
1,62,0,4
1,107,0,7
1,59,0,4
1,38,78,47
1,67,95,0
1,71,110,0
1,62,113,1
1,67,0,32
1,62,0,1
1,71,0,1
1,67,95,61
1,71,105,0
1,59,91,1
1,62,100,0
1,62,109,0
1,67,96,0
1,38,0,23
1,71,0,7
1,67,0,1
1,62,0,2
1,62,0,1
1,67,0,3
1,59,0,10
1,83,0,40
1,79,88,3
1,43,78,5
1,67,95,0
1,71,110,0
1,103,91,0
1,62,106,1
1,67,0,31
1,62,0,1
1,71,0,1
1,67,97,62
1,71,108,0
1,59,89,1
1,62,96,0
1,62,113,0
1,67,89,0
1,43,0,20
1,62,0,5
1,103,0,4
1,67,0,6
1,59,0,9
1,38,73,51
1,71,0,24
1,62,0,16
1,67,0,1
1,67,95,55
1,71,110,0
1,59,87,1
1,62,98,0
1,62,109,0
1,67,89,0
1,67,0,29
1,38,0,1
1,71,0,0
1,62,0,1
1,67,0,1
1,62,0,2
1,59,0,8
1,79,0,11
1,74,84,37
1,43,78,5
1,67,95,0
1,71,108,0
1,98,86,0
1,62,111,1
1,62,0,53
1,67,0,6
1,71,0,3
1,98,0,10
1,79,84,18
1,67,95,5
1,71,101,0
1,103,93,0
1,59,91,1
1,62,98,0
1,62,111,0
1,67,91,0
1,74,0,3
1,62,0,24
1,67,0,2
1,43,0,1
1,59,0,10
1,67,0,14
1,62,0,22
1,71,0,4
1,38,75,15
1,67,99,0
1,72,105,0
1,64,106,1
1,67,0,29
1,72,0,3
1,103,0,12
1,64,0,1
1,67,97,50
1,71,112,0
1,59,89,1
1,62,96,0
1,62,109,0
1,67,91,0
1,62,0,27
1,38,0,3
1,67,0,0
1,59,0,9
1,43,73,56
1,67,0,36
1,43,0,12
1,62,0,15
1,74,95,28
1,38,65,5
1,62,97,0
1,59,89,1
1,62,93,0
1,67,91,0
1,71,0,9
1,62,0,14
1,67,0,5
1,59,0,12
1,38,0,15
1,76,88,35
1,62,0,1
1,74,0,3
1,40,66,1
1,64,97,0
1,79,0,50
1,40,0,18
1,74,88,23
1,42,78,5
1,62,95,0
1,64,0,0
1,76,0,0
1,59,89,1
1,62,98,0
1,67,91,0
1,62,0,23
1,67,0,8
