track,note,velocity,time
1,70,127,540
1,70,0,30
1,71,127,0
1,71,0,30
1,73,127,0
1,73,0,180
1,71,127,0
1,71,0,30
1,70,127,0
1,70,0,30
1,75,127,0
1,75,0,30
1,73,127,0
1,73,0,30
1,71,127,0
1,71,0,30
1,70,127,0
1,70,0,30
1,71,127,0
1,71,0,60
1,68,127,0
1,68,0,30
1,70,127,0
1,70,0,30
1,71,127,0
1,71,0,60
1,66,127,0
1,66,0,60
1,62,127,0
1,65,127,0
1,62,0,60
1,65,0,0
1,62,127,0
1,65,127,0
1,62,0,60
1,65,0,0
1,63,127,0
1,66,127,0
1,63,0,60
1,66,0,0
1,65,127,0
1,68,127,0
1,65,0,60
1,68,0,0
1,66,127,0
1,70,127,0
1,66,127,60
1,66,0,30
1,70,0,0
1,66,0,30
1,63,127,0
1,63,0,240
1,63,127,0
1,63,0,60
1,66,127,0
1,66,0,60
1,63,127,0
1,68,127,0
1,63,0,60
1,68,0,0
1,65,127,0
1,65,0,60
1,62,127,0
1,62,0,240
1,63,127,0
1,63,0,60
1,65,127,0
1,65,0,60
1,67,127,0
1,67,0,30
1,67,127,30
1,67,0,30
1,68,127,0
1,68,0,30
1,70,127,0
1,70,0,180
1,68,127,0
1,68,0,30
1,67,127,0
1,67,0,30
1,68,127,0
1,68,0,30
1,67,127,0
1,67,0,30
1,65,127,0
1,65,0,60
1,65,127,60
1,65,0,30
1,67,127,0
1,67,0,30
1,68,127,0
1,68,0,60
1,63,127,0
1,63,0,60
1,62,127,0
1,62,0,60
1,62,127,0
1,62,0,60
1,63,127,0
1,63,0,60
1,65,127,0
1,65,0,60
1,67,127,0
1,67,0,60
1,63,127,0
1,63,0,60
1,60,127,0
1,60,0,180
1,60,127,0
1,60,0,60
1,62,127,0
1,62,0,60
1,63,127,0
1,63,0,60
1,65,127,0
1,65,0,60
1,62,127,0
1,62,0,60
1,59,127,0
1,59,0,240
1,60,127,0
1,60,0,60
1,62,127,0
1,62,0,60
1,64,127,0
1,64,0,120
1,79,127,420
1,80,127,30
1,82,127,30
1,79,0,60
1,80,0,30
1,82,0,30
1,80,127,60
1,79,127,30
1,80,127,30
1,79,127,30
1,80,0,30
1,79,0,0
1,77,127,0
1,79,0,30
1,80,0,30
1,77,0,0
1,77,127,60
1,77,0,30
1,79,127,0
1,79,0,30
1,80,127,0
1,80,0,60
1,75,127,0
1,75,0,60
1,74,127,0
1,74,0,60
1,74,127,0
1,74,0,60
1,75,127,0
1,75,0,60
1,77,127,0
1,77,0,60
1,75,127,0
1,79,127,0
1,75,0,60
1,79,0,0
1,72,127,0
1,75,127,0
1,72,0,60
1,75,0,0
1,72,127,0
1,72,0,180
1,72,127,0
1,72,0,60
1,74,127,0
1,74,0,60
1,75,127,0
1,75,0,60
1,77,127,0
1,77,0,60
1,74,127,0
1,74,0,60
1,71,127,0
1,71,0,240
1,72,127,0
1,72,0,60
1,74,127,0
1,74,0,60
1,67,127,0
1,72,127,0
1,76,127,0
1,67,0,119
1,72,0,0
1,76,0,0
1,76,127,61
1,76,0,60
1,74,127,0
1,74,0,30
1,76,127,0
1,76,0,60
1,71,127,0
1,71,0,90
1,72,127,0
1,72,0,60
1,74,127,0
1,74,0,180
1,67,127,0
1,67,0,60
1,67,127,0
1,67,0,120
1,69,127,0
1,69,0,60
1,73,127,0
1,73,0,30
1,76,127,0
1,76,0,30
1,69,127,0
1,74,127,0
1,77,127,0
1,69,0,15
1,74,0,0
1,77,0,15
1,77,127,30
1,77,0,60
1,77,127,0
1,77,0,60
1,77,127,0
1,77,0,60
1,76,127,0
1,76,0,60
1,74,127,0
1,74,0,60
1,72,127,0
1,72,0,60
1,74,127,0
1,74,0,60
1,67,127,0
1,72,127,0
1,76,127,0
1,67,0,120
1,72,0,0
1,76,0,0
1,69,127,0
1,72,127,0
1,69,0,30
1,72,0,0
1,67,127,0
1,67,0,60
1,64,127,0
1,67,127,0
1,72,127,0
1,64,0,150
1,67,0,0
1,72,0,0
1,76,127,0
1,76,0,60
1,77,127,0
1,77,0,30
1,79,127,0
1,79,0,150
1,79,127,0
1,79,0,60
1,81,127,0
1,81,0,60
1,78,127,0
1,78,0,60
1,76,127,0
1,76,0,60
1,74,127,0
1,74,0,60
1,74,127,0
1,74,0,60
1,81,127,60
1,81,0,60
1,81,127,0
1,81,0,60
1,78,127,0
1,74,127,60
1,71,127,0
1,79,127,0
1,78,0,60
1,74,0,0
1,71,0,0
1,79,0,0
1,78,127,0
1,78,0,30
1,79,127,0
1,79,0,30
1,81,127,0
1,81,0,60
1,83,127,0
1,83,0,60
1,84,127,60
1,84,0,30
1,84,127,0
1,84,0,30
1,84,127,0
1,84,0,60
1,84,127,0
1,84,0,60
1,83,127,0
1,83,0,60
1,81,127,0
1,81,0,60
1,79,127,0
1,79,0,60
1,78,127,0
1,78,0,60
1,81,127,0
1,81,0,60
1,79,127,0
1,79,0,60
1,79,127,0
1,79,127,60
1,79,0,120
1,79,0,180
1,67,127,60
1,67,0,30
1,68,127,0
1,68,0,30
1,70,127,0
1,70,0,180
1,68,127,0
1,68,0,30
1,67,127,0
1,67,0,30
1,68,127,0
1,68,0,30
1,67,127,0
1,67,0,30
1,65,127,0
1,65,0,60
1,65,127,60
1,65,0,30
1,67,127,0
1,67,0,30
1,68,127,0
1,68,0,60
1,63,127,0
1,63,0,60
1,62,127,0
1,62,0,60
1,62,127,0
1,62,0,60
1,63,127,0
1,63,0,60
1,65,127,0
1,65,0,60
1,67,127,0
1,67,0,60
1,63,127,0
1,63,0,60
1,60,127,0
1,60,0,180
1,60,127,0
1,60,0,60
1,62,127,0
1,62,0,60
1,63,127,0
1,63,0,60
1,65,127,0
1,65,0,60
1,62,127,0
1,62,0,60
1,59,127,0
1,59,0,240
1,60,127,0
1,60,0,60
1,62,127,0
1,62,0,60
1,64,127,0
1,64,0,240
1,63,127,0
1,63,0,120
1,63,127,0
1,63,0,60
1,62,127,0
1,62,0,60
1,65,127,60
1,65,0,180
1,62,127,0
1,62,0,60
1,64,127,0
1,64,0,60
1,59,127,0
1,59,0,60
1,60,127,0
1,60,0,60
1,62,127,0
1,62,0,180
1,57,127,0
1,57,0,60
1,57,127,0
1,57,0,30
1,59,127,0
1,59,0,30
1,62,127,0
1,62,0,30
1,67,127,0
1,67,0,30
1,61,127,0
1,65,127,0
1,69,127,0
1,61,0,120
1,65,0,0
1,69,0,0
1,65,127,60
1,65,0,60
1,65,127,0
1,65,0,60
1,65,127,0
1,65,0,60
1,64,127,0
1,64,0,60
1,62,127,0
1,62,0,60
1,60,127,0
1,60,0,60
1,62,127,0
1,62,0,60
1,64,127,0
1,64,0,60
1,60,127,0
1,60,0,60
1,60,127,0
1,60,0,60
1,60,127,0
1,60,0,90
1,64,127,0
1,64,0,30
1,67,127,0
1,67,0,30
1,64,127,0
1,67,127,0
1,72,127,0
1,64,0,150
1,67,0,0
1,72,0,0
1,67,127,60
1,67,0,60
1,67,127,0
1,67,0,60
1,69,127,0
1,69,0,60
1,66,127,0
1,66,0,60
1,64,127,0
1,64,0,30
1,62,127,0
1,62,0,150
1,62,127,60
1,62,0,60
1,69,127,0
1,69,0,60
1,66,127,0
1,66,0,60
1,67,127,0
1,67,0,60
1,74,127,0
1,74,0,30
1,74,127,0
1,71,127,0
1,79,127,0
1,74,0,150
1,71,0,0
1,79,0,0
1,72,127,60
1,72,0,60
1,72,127,0
1,72,0,60
1,72,127,0
1,72,0,60
1,71,127,0
1,71,0,60
1,69,127,0
1,69,0,60
1,67,127,0
1,67,0,60
1,66,127,0
1,66,0,60
1,69,127,0
1,69,0,60
1,67,127,0
1,67,0,60
1,67,127,0
1,67,0,60
1,67,127,0
1,67,0,300
1,67,127,60
1,67,0,30
1,68,127,0
1,68,0,30
1,70,127,0
1,70,0,180
1,68,127,0
1,68,0,30
1,67,127,0
1,67,0,30
1,68,127,0
1,68,0,30
1,67,127,0
1,67,0,30
1,65,127,0
1,65,0,60
1,65,127,60
1,65,0,30
1,67,127,0
1,67,0,30
1,68,127,0
1,68,0,60
1,63,127,0
1,63,0,60
1,62,127,0
1,62,0,60
1,62,127,0
1,62,0,60
1,63,127,0
1,63,0,60
1,65,127,0
1,65,0,60
1,67,127,0
1,67,0,60
1,63,127,0
1,63,0,60
1,60,127,0
1,60,0,180
1,60,127,0
1,60,0,60
1,62,127,0
1,62,0,60
1,63,127,0
1,63,0,60
1,65,127,0
1,65,0,60
1,62,127,0
1,62,0,60
1,59,127,0
1,59,0,240
1,60,127,0
1,60,0,60
1,62,127,0
1,62,0,60
1,64,127,0
1,64,0,120
1,79,127,420
1,80,127,30
1,82,127,30
1,79,0,60
1,80,0,30
1,82,0,30
1,80,127,60
1,79,127,30
1,80,127,30
1,79,127,30
1,80,0,30
1,79,0,0
1,77,127,0
1,79,0,30
1,80,0,30
1,77,0,0
1,77,127,60
1,77,0,30
1,79,127,0
1,79,0,30
1,80,127,0
1,80,0,60
1,75,127,0
1,75,0,60
1,74,127,0
1,74,0,60
1,74,127,0
1,74,0,60
1,75,127,0
1,75,0,60
1,77,127,0
1,77,0,60
1,75,127,0
1,79,127,0
1,75,0,60
1,79,0,0
1,72,127,0
1,75,127,0
1,72,0,60
1,75,0,0
1,72,127,0
1,72,0,180
1,72,127,0
1,72,0,60
1,74,127,0
1,74,0,60
1,75,127,0
1,75,0,60
1,77,127,0
1,77,0,60
1,74,127,0
1,74,0,60
1,71,127,0
1,71,0,240
1,72,127,0
1,72,0,60
1,74,127,0
1,74,0,60
1,67,127,0
1,72,127,0
1,76,127,0
1,67,0,60
1,72,0,0
1,76,0,0
1,76,127,0
1,76,0,30
1,77,127,0
1,77,0,30
1,79,127,0
1,79,0,180
1,77,127,0
1,77,0,30
1,76,127,0
1,76,0,30
1,81,127,0
1,81,0,30
1,79,127,0
1,79,0,30
1,77,127,0
1,77,0,30
1,76,127,0
1,76,0,30
1,77,127,0
1,77,0,60
1,74,127,0
1,74,0,30
1,76,127,0
1,76,0,30
1,77,127,0
1,77,0,60
1,72,127,0
1,72,0,60
1,71,127,0
1,71,0,60
1,68,127,0
1,71,127,0
1,68,0,60
1,71,0,0
1,69,127,0
1,72,127,0
1,69,0,60
1,72,0,0
1,71,127,0
1,74,127,0
1,71,0,60
1,74,0,0
1,76,127,0
1,76,0,60
1,72,127,0
1,76,127,0
1,72,0,30
1,76,0,0
1,69,127,0
1,72,127,0
1,76,127,0
1,69,0,270
1,72,0,0
1,76,0,0
1,71,127,0
1,71,0,60
1,72,127,0
1,72,0,60
1,74,127,0
1,74,0,60
1,71,127,0
1,74,127,0
1,71,0,30
1,74,0,0
1,68,127,0
1,71,127,0
1,74,127,0
1,68,0,270
1,71,0,0
1,74,0,0
1,69,127,0
1,69,0,60
1,71,127,0
1,71,0,60
1,72,127,0
1,72,0,60
1,69,127,0
1,72,127,0
1,69,0,30
1,72,0,0
1,65,127,0
1,69,127,0
1,72,127,0
1,65,0,270
1,69,0,0
1,72,0,0
1,72,127,0
1,72,0,60
1,74,127,0
1,74,0,60
1,64,127,0
1,68,127,0
1,71,127,0
1,77,127,0
1,64,0,480
1,68,0,0
1,71,0,0
1,77,0,480
2,66,127,660
2,66,0,30
2,63,127,0
2,63,0,30
2,71,127,3660
2,71,0,60
2,67,127,0
2,74,127,60
2,67,0,60
2,70,127,0
2,70,0,60
2,77,127,0
2,77,0,60
2,73,127,0
2,74,0,60
2,73,0,0
2,80,127,0
2,80,0,60
2,75,127,0
2,75,0,180
2,75,127,0
2,75,0,30
2,74,127,0
2,74,0,30
2,72,127,0
2,72,0,480
2,71,127,0
2,71,0,240
2,75,127,0
2,75,0,60
2,72,127,0
2,72,0,60
2,67,127,0
2,67,0,60
2,63,127,0
2,63,0,60
2,67,127,0
2,67,0,240
2,74,127,0
2,74,0,60
2,71,127,0
2,71,0,60
2,65,127,0
2,65,0,60
2,62,127,0
2,62,0,60
2,65,127,0
2,65,0,240
2,65,127,1560
2,65,0,60
2,76,127,1260
2,76,0,240
2,72,127,0
2,72,0,420
2,71,127,0
2,71,0,300
2,70,127,1980
2,70,0,60
2,69,127,0
2,69,0,60
2,68,127,0
2,68,0,60
2,67,127,0
2,67,0,60
2,66,127,0
2,66,0,60
2,65,127,0
2,65,0,120
2,71,127,5820
2,71,0,60
2,67,127,0
2,74,127,60
2,67,0,60
2,70,127,0
2,70,0,60
2,77,127,0
2,77,0,60
2,73,127,0
2,74,0,60
2,73,0,0
2,80,127,0
2,80,0,60
2,75,127,0
2,75,0,180
2,75,127,0
2,75,0,30
2,74,127,0
2,74,0,30
2,72,127,0
2,72,0,480
2,71,127,0
2,71,0,240
2,75,127,0
2,75,0,60
2,72,127,0
2,72,0,60
2,67,127,0
2,67,0,60
2,63,127,0
2,63,0,60
2,67,127,0
2,67,0,240
2,74,127,0
2,74,0,60
2,71,127,0
2,71,0,60
2,65,127,0
2,65,0,60
2,62,127,0
2,62,0,60
2,65,127,0
2,65,0,240
2,52,127,2400
2,52,0,960
3,61,127,480
3,61,0,150
3,61,127,0
3,61,0,90
3,63,127,0
3,63,0,480
3,58,127,240
3,58,0,120
3,58,127,0
3,58,0,360
3,59,127,0
3,59,0,120
3,56,127,0
3,56,0,360
3,58,127,0
3,58,0,180
3,63,127,0
3,63,0,30
3,62,127,0
3,62,0,30
3,60,127,0
3,60,0,480
3,59,127,0
3,59,0,240
3,60,127,0
3,60,0,120
3,60,127,360
3,60,0,120
3,67,127,840
3,63,127,0
3,58,127,0
3,58,0,239
3,67,0,1
3,63,0,0
3,56,127,0
3,60,127,0
3,63,127,0
3,56,0,240
3,60,0,0
3,63,0,0
3,62,127,0
3,60,127,0
3,56,127,0
3,62,0,240
3,60,0,0
3,56,0,0
3,65,127,0
3,59,127,0
3,55,127,0
3,65,0,240
3,59,0,0
3,55,0,0
3,63,127,0
3,60,127,0
3,55,127,0
3,63,0,480
3,60,0,0
3,55,0,0
3,62,127,0
3,60,127,0
3,56,127,0
3,53,127,0
3,62,0,240
3,60,0,0
3,56,0,0
3,53,0,0
3,62,127,0
3,59,127,0
3,55,127,0
3,53,127,0
3,62,0,240
3,59,0,0
3,55,0,0
3,53,0,0
3,64,127,0
3,60,127,0
3,55,127,0
3,64,0,240
3,60,0,0
3,55,0,0
3,62,127,0
3,57,127,0
3,54,127,0
3,62,0,240
3,57,0,0
3,54,0,0
3,62,127,0
3,59,127,0
3,55,127,0
3,62,0,240
3,59,0,0
3,55,0,0
3,62,127,0
3,59,127,0
3,55,127,0
3,62,0,120
3,59,0,0
3,55,0,0
3,64,127,0
3,61,127,0
3,57,127,0
3,64,0,120
3,61,0,0
3,57,0,0
3,62,127,0
3,57,127,0
3,53,127,0
3,62,0,240
3,57,0,0
3,53,0,0
3,57,127,0
3,60,127,0
3,53,127,0
3,57,0,60
3,60,0,0
3,53,0,0
3,62,127,0
3,59,127,0
3,55,127,0
3,53,127,0
3,62,0,60
3,59,0,0
3,55,0,0
3,53,0,0
3,64,127,0
3,60,127,0
3,57,127,0
3,53,127,0
3,64,0,60
3,60,0,0
3,57,0,0
3,53,0,0
3,62,127,0
3,59,127,0
3,55,127,0
3,53,127,0
3,62,0,60
3,59,0,0
3,55,0,0
3,53,0,0
3,60,127,0
3,55,127,0
3,52,127,0
3,60,0,120
3,55,0,0
3,52,0,0
3,60,127,0
3,57,127,0
3,53,127,0
3,60,0,90
3,57,0,0
3,53,0,0
3,60,127,0
3,55,127,0
3,52,127,0
3,60,0,270
3,55,0,0
3,52,0,0
3,55,127,30
3,55,0,30
3,55,127,0
3,60,127,0
3,55,0,30
3,60,0,0
3,64,127,0
3,60,127,0
3,55,127,0
3,64,0,150
3,60,0,0
3,55,0,0
3,57,127,30
3,57,0,30
3,62,127,0
3,57,127,0
3,62,0,30
3,57,0,0
3,62,127,0
3,65,127,0
3,57,127,0
3,62,0,30
3,65,0,120
3,57,0,0
3,54,127,0
3,54,0,30
