track,note,velocity,time
0,36,78,2492
0,48,75,0
0,72,92,0
0,67,81,0
0,36,113,0
0,75,40,0
0,64,64,4
0,49,110,0
0,67,72,4
0,64,70,0
0,64,80,60
0,74,100,12
0,75,36,32
0,64,105,4
0,44,105,80
0,74,99,4
0,64,85,32
0,36,66,4
0,72,109,0
0,36,98,0
0,75,44,0
0,64,58,48
0,36,70,80
0,63,95,8
0,36,119,0
0,74,97,4
0,74,63,0
0,64,91,64
0,68,87,8
0,68,80,84
0,67,63,76
0,43,92,4
0,44,105,4
0,75,55,0
0,62,91,4
0,64,64,0
0,67,101,40
0,36,119,16
0,48,92,4
0,75,38,0
0,64,105,0
0,36,72,0
0,72,95,44
0,64,89,4
0,75,26,8
0,72,93,76
0,67,72,4
0,74,108,0
0,72,80,4
0,67,81,0
0,44,107,0
0,76,105,20
0,36,110,0
0,36,63,0
0,75,59,0
0,64,53,16
0,74,106,44
0,36,76,4
0,64,88,0
0,67,97,0
0,74,63,0
0,36,119,0
0,64,58,4
0,60,64,0
0,48,84,0
0,63,91,0
0,67,74,4
0,64,87,28
0,68,90,8
0,68,78,80
0,72,106,44
0,44,110,4
0,73,70,4
0,67,55,0
0,62,110,0
0,67,70,8
0,68,101,96
0,64,70,28
0,67,78,8
0,71,99,12
0,64,87,0
0,75,48,0
0,36,127,0
0,48,81,4
0,67,91,0
0,64,66,4
0,36,78,0
0,72,107,0
0,64,91,28
0,75,28,8
0,72,98,84
0,44,110,4
0,64,82,152
0,36,33,4
0,71,109,4
0,75,55,0
0,36,107,0
0,64,74,36
0,36,59,84
0,74,63,4
0,63,72,0
0,72,109,4
0,36,127,0
0,64,72,144
0,68,74,0
0,68,74,88
0,31,87,64
0,67,87,0
0,62,110,0
0,75,50,0
0,43,88,4
0,44,113,0
0,67,101,16
0,48,94,24
0,36,127,0
0,36,64,0
0,64,82,0
0,75,65,0
0,71,94,44
0,64,93,32
0,75,44,4
0,69,74,28
0,67,60,8
0,72,103,0
0,67,84,0
0,69,88,0
0,44,113,0
0,36,55,4
0,74,109,4
0,36,105,0
0,64,76,0
0,75,61,4
0,64,61,12
0,64,62,52
0,67,62,4
0,36,61,20
0,72,109,0
0,36,127,0
0,67,94,4
0,74,75,0
0,48,84,4
0,63,85,0
0,64,88,0
0,64,85,128
0,68,72,0
0,68,55,12
0,71,97,80
0,73,70,0
0,44,122,0
0,67,76,0
0,62,105,0
0,67,87,44
0,62,107,4
0,68,101,48
0,75,52,0
0,36,64,4
0,48,76,0
0,64,78,0
0,67,91,0
0,64,58,4
0,69,90,0
0,36,113,0
0,67,74,0
0,64,85,0
0,71,94,12
0,64,91,12
0,75,34,8
0,71,94,80
0,44,105,0
0,69,95,24
0,36,62,4
0,64,89,0
0,75,55,0
0,36,98,0
0,64,72,20
0,36,70,4
0,71,97,0
0,74,75,4
0,36,119,0
0,63,85,8
0,64,87,104
0,68,59,4
0,68,33,80
0,31,74,16
0,43,88,4
0,44,105,4
0,75,59,4
0,67,74,4
0,62,107,0
0,67,112,40
0,48,90,60
0,36,119,0
0,64,93,0
0,75,57,0
0,36,72,4
0,69,102,4
0,64,91,92
0,75,44,8
0,71,108,20
0,44,107,0
0,36,76,120
0,72,120,0
0,64,82,0
0,36,110,4
0,75,63,0
0,64,61,24
0,60,70,0
0,66,74,4
0,39,76,40
0,51,88,0
0,66,98,4
0,71,103,0
0,60,90,0
0,74,72,0
0,63,102,0
0,36,119,4
0,68,76,0
0,64,91,0
0,68,76,80
0,69,107,28
0,67,78,0
0,62,110,4
0,44,110,0
0,39,72,4
0,73,72,0
0,67,70,8
0,69,74,4
0,68,101,76
0,62,66,12
0,50,91,8
0,65,78,0
0,38,74,4
0,64,85,0
0,51,113,0
0,57,91,4
0,77,97,0
0,75,55,0
0,36,127,0
0,50,90,4
0,64,85,48
0,75,38,0
0,26,72,84
0,74,92,0
0,69,77,0
0,44,110,0
0,64,78,72
0,51,100,4
0,75,55,4
0,69,89,0
0,36,107,0
0,64,60,72
0,58,113,64
0,63,102,12
0,51,122,4
0,70,105,4
0,36,127,0
0,38,68,0
0,64,85,84
0,75,40,4
0,50,79,176
0,62,113,4
0,75,57,0
0,26,74,4
0,44,113,0
0,51,110,76
0,70,82,8
0,59,89,4
0,38,51,16
0,71,107,0
0,51,122,0
0,64,91,0
0,36,127,0
0,75,61,4
0,68,72,68
0,68,53,52
0,64,95,8
0,75,52,0
0,67,80,0
0,26,54,8
0,50,82,0
0,44,113,0
0,67,83,72
0,71,99,88
0,36,105,8
0,75,57,4
0,64,76,0
0,68,101,0
0,64,64,52
0,58,122,28
0,38,59,32
0,70,103,0
0,36,127,0
0,63,98,8
0,67,104,0
0,51,127,116
0,75,55,0
0,64,95,0
0,41,78,4
0,67,107,84
0,57,107,0
0,26,61,0
0,62,110,0
0,50,84,4
0,69,103,0
0,44,122,0
0,75,70,4
0,62,72,0
0,65,82,0
0,51,127,32
0,41,87,4
0,67,112,16
0,57,91,60
0,50,105,4
0,65,72,4
0,69,70,0
0,69,93,8
0,74,109,0
0,64,85,0
0,38,76,4
0,50,80,0
0,65,91,0
0,75,40,0
0,51,122,0
0,36,113,4
0,76,110,160
0,51,48,4
0,75,36,0
0,64,95,8
0,38,102,76
0,44,105,0
0,76,106,4
0,51,116,0
0,74,106,176
0,51,72,0
0,38,68,0
0,36,98,0
0,64,76,0
0,75,44,4
0,64,70,36
0,38,68,12
0,36,119,0
0,76,103,4
0,74,63,0
0,51,119,4
0,63,107,0
0,51,100,168
0,68,87,0
0,64,89,4
0,68,80,80
0,62,116,4
0,67,63,12
0,45,92,4
0,62,110,0
0,44,105,4
0,75,55,0
0,51,113,0
0,38,110,0
0,67,101,64
0,51,41,8
0,57,85,4
0,38,74,16
0,50,85,4
0,36,119,0
0,51,127,0
0,75,38,0
0,64,93,4
0,74,107,8
0,51,85,0
0,51,91,16
0,64,102,0
0,75,26,4
0,69,70,60
0,69,90,0
0,76,109,0
0,44,107,0
0,72,68,4
0,72,97,0
0,51,113,0
0,38,110,0
0,38,60,4
0,77,113,0
0,36,110,0
0,51,98,0
0,64,85,0
0,75,59,0
0,64,76,0
0,65,78,68
0,69,87,4
0,38,56,8
0,76,105,0
0,65,92,0
0,69,94,0
0,51,122,0
0,38,80,4
0,74,63,0
0,36,119,0
0,63,107,4
0,51,102,164
0,64,95,4
0,68,90,4
0,68,78,60
0,33,68,8
0,74,108,0
0,62,107,4
0,44,110,0
0,73,70,0
0,67,55,0
0,51,116,0
0,38,113,4
0,67,70,52
0,62,105,40
0,51,87,4
0,68,101,4
0,65,72,20
0,69,74,4
0,50,83,0
0,72,99,0
0,65,72,0
0,69,88,0
0,64,107,0
0,51,119,4
0,75,48,0
0,36,127,0
0,69,97,0
0,50,87,4
0,38,63,0
0,57,89,0
0,63,53,172
0,74,100,0
0,51,93,0
0,70,50,0
0,64,107,16
0,75,28,4
0,74,103,80
0,69,97,0
0,51,116,0
0,38,110,0
0,44,110,4
0,64,85,104
0,38,58,20
0,72,104,4
0,51,107,0
0,75,55,0
0,70,49,4
0,36,107,4
0,64,57,4
0,70,34,44
0,38,62,0
0,74,105,4
0,74,63,0
0,51,116,0
0,63,110,4
0,69,90,0
0,36,127,0
0,64,70,104
0,51,105,4
0,68,74,4
0,70,68,0
0,68,74,64
0,62,116,4
0,45,92,12
0,38,113,0
0,62,110,0
0,51,116,0
0,33,72,4
0,67,87,0
0,69,95,0
0,75,50,0
0,44,113,4
0,51,87,84
0,70,62,4
0,67,101,4
0,70,44,84
0,57,82,0
0,50,92,4
0,36,127,0
0,69,90,4
0,38,66,4
0,51,89,0
0,64,105,0
0,75,65,0
0,72,103,16
0,51,89,4
0,70,64,0
0,75,44,20
0,64,107,4
0,69,68,72
0,72,88,0
0,74,110,0
0,44,113,0
0,69,100,0
0,72,74,4
0,69,88,0
0,51,113,0
0,38,110,0
0,76,115,4
0,38,53,4
0,36,105,0
0,51,100,0
0,70,50,0
0,64,93,4
0,75,61,4
0,70,45,8
0,64,74,4
0,65,68,72
0,69,74,4
0,74,105,4
0,38,55,4
0,38,70,0
0,69,97,0
0,65,90,0
0,36,127,0
0,69,95,0
0,51,113,4
0,74,75,0
0,63,110,0
0,69,77,72
0,38,91,4
0,51,110,84
0,70,68,0
0,64,105,4
0,68,72,4
0,68,55,44
0,72,110,80
0,51,116,0
0,33,70,4
0,38,113,0
0,62,113,0
0,73,70,0
0,44,122,0
0,67,76,0
0,69,97,0
0,67,87,28
0,51,98,52
0,70,68,8
0,62,89,0
0,68,101,0
0,70,58,24
0,62,91,4
0,62,68,0
0,51,119,4
0,55,89,4
0,65,87,0
0,31,66,0
0,43,86,0
0,75,52,0
0,71,104,0
0,65,89,0
0,62,81,0
0,69,97,0
0,36,113,0
0,59,119,0
0,64,95,0
0,72,111,4
0,70,50,0
0,51,105,4
0,64,105,28
0,75,34,8
0,69,97,80
0,44,105,0
0,72,97,4
0,38,105,4
0,51,110,0
0,31,53,4
0,71,109,0
0,51,110,0
0,75,55,0
0,36,98,0
0,64,89,0
0,70,49,0
0,64,66,80
0,70,34,4
0,51,116,20
0,31,57,0
0,74,75,0
0,36,119,0
0,72,111,4
0,63,110,0
0,69,90,0
0,51,105,112
0,64,89,4
0,70,68,4
0,68,59,0
0,68,33,8
0,62,95,40
0,44,105,4
0,38,105,0
0,51,116,0
0,38,51,4
0,62,113,0
0,69,95,0
0,31,66,4
0,75,59,0
0,67,74,0
0,70,62,36
0,51,93,0
0,67,112,4
0,70,44,80
0,59,91,32
0,43,88,12
0,36,119,0
0,51,116,4
0,69,90,0
0,64,102,0
0,75,57,4
0,31,72,0
0,71,100,12
0,51,105,0
0,70,64,4
0,64,93,76
0,75,44,8
0,69,85,60
0,72,113,4
0,65,84,0
0,38,110,0
0,69,100,0
0,44,107,4
0,51,116,0
0,69,72,4
0,65,70,0
0,74,118,4
0,36,110,4
0,31,61,0
0,51,107,0
0,75,63,0
0,70,50,0
0,64,89,0
0,70,45,4
0,64,78,4
0,62,78,52
0,65,76,8
0,43,90,20
0,72,105,4
0,63,110,0
0,74,72,0
0,69,95,0
0,31,82,4
0,65,81,0
0,62,84,0
0,51,116,0
0,36,119,0
0,69,77,48
0,64,107,88
0,68,76,0
0,51,110,0
0,70,68,4
0,68,76,12
0,62,89,4
0,71,118,12
0,67,78,0
0,38,110,4
0,51,113,0
0,44,110,4
0,62,113,0
0,73,72,0
0,69,97,0
0,31,95,0
0,67,70,16
0,69,74,4
0,51,102,0
0,70,68,4
0,68,101,0
0,33,72,4
0,70,58,76
0,52,80,16
0,64,58,8
0,60,98,0
0,60,49,4
0,67,62,0
0,79,113,12
0,64,102,0
0,36,70,4
0,67,81,0
0,51,116,0
0,75,55,0
0,36,127,0
0,69,97,0
0,48,85,4
0,76,101,0
0,72,101,0
0,70,50,164
0,51,107,4
0,75,38,40
0,64,107,0
0,69,97,8
0,52,103,4
0,44,110,0
0,51,113,0
0,38,113,4
0,36,80,172
0,55,98,4
0,70,49,0
0,51,102,0
0,75,55,4
0,36,107,0
0,64,87,4
0,64,70,36
0,70,34,0
0,59,116,36
0,36,74,0
0,59,105,0
0,51,119,8
0,69,90,0
0,36,127,0
0,63,113,0
0,51,113,164
0,75,40,8
0,70,68,0
0,64,95,0
0,67,76,144
0,72,94,0
0,76,86,0
0,38,113,4
0,69,95,0
0,51,116,0
0,62,113,0
0,75,57,4
0,44,113,0
0,55,86,72
0,70,62,0
0,51,100,0
0,70,44,40
0,57,122,60
0,36,76,8
0,57,84,0
0,51,116,4
0,36,127,0
0,69,90,0
0,64,107,0
0,75,61,4
0,51,102,8
0,70,64,0
0,68,72,8
0,68,53,68
0,64,116,4
0,75,52,0
0,67,80,4
0,76,76,8
0,72,78,0
0,67,74,0
0,38,113,0
0,44,113,0
0,69,100,0
0,51,116,0
0,67,83,28
0,36,61,88
0,64,113,0
0,52,75,4
0,51,105,0
0,36,105,0
0,70,50,4
0,75,57,0
0,68,101,0
0,70,45,24
0,55,113,20
0,63,113,24
0,51,116,0
0,36,127,4
0,69,95,0
0,36,89,4
0,55,84,0
0,67,104,0
0,69,77,56
0,41,122,76
0,64,102,0
0,75,55,4
0,70,68,0
0,63,110,8
0,67,107,0
0,76,82,80
0,41,110,0
0,36,93,0
0,72,88,0
0,67,65,0
0,44,122,0
0,48,67,4
0,75,70,0
0,69,97,0
0,41,102,4
0,64,102,0
0,31,91,4
0,41,113,0
0,67,112,0
0,24,105,4
0,63,113,4
0,70,68,0
0,70,58,20
0,43,73,28
0,62,113,0
0,55,98,4
0,70,68,0
0,75,40,0
0,69,97,0
0,70,90,4
0,79,109,0
0,74,99,0
0,51,116,0
0,36,113,0
0,74,74,4
0,64,110,0
0,31,110,0
0,70,50,160
0,51,110,4
0,77,104,4
0,75,36,16
0,64,110,8
0,77,105,76
0,69,97,0
0,38,113,4
0,44,105,0
0,51,116,0
0,31,60,20
0,76,105,4
0,51,119,0
0,36,98,4
0,70,49,0
0,75,44,4
0,64,95,0
0,64,72,32
0,70,34,4
0,67,122,28
0,31,91,8
0,76,104,4
0,51,127,4
0,36,119,0
0,63,113,0
0,74,63,0
0,69,90,4
0,38,107,44
0,63,107,0
0,65,116,24
0,51,116,0
0,68,87,0
0,64,93,4
0,70,68,0
0,68,80,44
0,67,82,32
0,70,85,0
0,67,63,0
0,44,105,4
0,38,116,4
0,62,122,0
0,75,55,0
0,69,95,0
0,51,119,0
0,65,119,0
0,64,113,16
0,62,113,0
0,70,62,0
0,51,82,4
0,67,101,0
0,70,44,80
0,64,113,52
0,43,89,4
0,36,119,0
0,31,102,4
0,51,127,0
0,75,38,0
0,69,90,0
0,64,116,0
0,55,20,32
0,70,73,56
0,77,90,0
0,51,116,0
0,74,88,4
0,70,64,0
0,64,116,28
0,75,26,0
0,77,105,80
0,38,116,0
0,69,100,0
0,51,116,0
0,44,107,4
0,62,110,8
0,79,105,24
0,51,119,4
0,36,110,0
0,70,50,0
0,31,89,4
0,75,59,4
0,64,78,0
0,64,80,24
0,70,45,0
0,31,102,76
0,79,105,4
0,70,80,4
0,74,99,0
0,63,113,0
0,51,122,0
0,69,95,0
0,74,63,0
0,36,119,0
0,61,107,0
0,69,77,80
0,38,107,0
0,63,95,0
0,64,68,4
0,77,100,4
0,51,119,0
0,70,68,4
0,68,90,0
0,64,62,32
0,68,78,0
0,62,100,4
0,26,93,28
0,77,98,0
0,38,119,0
0,51,116,0
0,62,107,0
0,44,110,4
0,73,70,0
0,67,55,0
0,69,97,4
0,67,70,76
0,76,94,4
0,51,113,0
0,62,113,0
0,70,68,8
0,68,101,0
0,70,58,0
0,55,85,20
0,61,116,4
0,51,119,8
0,33,89,4
0,75,48,0
0,36,127,0
0,69,97,0
0,73,60,4
0,45,95,0
0,70,69,0
0,79,102,0
0,73,92,0
0,64,113,0
0,51,110,12
0,70,50,0
0,77,102,4
0,75,28,24
0,64,107,4
0,69,97,76
0,38,122,4
0,44,110,0
0,77,102,4
0,51,116,0
0,63,51,8
0,33,73,32
0,76,100,0
0,51,116,0
0,64,89,0
0,75,55,0
0,70,49,0
0,36,107,4
0,64,74,12
0,70,34,0
0,67,105,40
0,63,107,36
0,74,63,0
0,76,94,0
0,51,122,0
0,69,90,0
0,33,102,4
0,36,127,0
0,38,110,60
0,63,91,0
0,65,107,68
0,51,116,8
0,68,74,0
0,70,68,0
0,64,59,72
0,68,74,0
0,65,98,32
0,38,119,16
0,62,110,0
0,73,86,4
0,70,72,0
0,51,122,0
0,67,87,0
0,69,95,0
0,75,50,4
0,44,113,0
0,64,91,4
0,62,119,28
0,51,113,4
0,70,62,0
0,67,101,4
0,70,44,20
0,64,93,32
0,45,88,36
0,51,119,0
0,33,110,4
0,64,110,0
0,36,127,0
0,69,90,0
0,75,65,0
0,77,98,44
0,63,63,0
0,51,113,0
0,70,64,0
0,64,116,68
0,75,44,0
0,77,102,72
