track,note,velocity,time
0,60,57,2476
0,69,70,0
0,64,60,4
0,76,78,12
0,81,76,0
0,72,75,4
0,69,70,204
0,64,59,4
0,60,57,4
0,57,74,0
0,60,72,4
0,45,91,8
0,45,77,4
0,72,76,4
0,81,73,0
0,76,74,0
0,62,76,0
0,47,72,4
0,47,73,0
0,64,61,4
0,69,62,0
0,60,60,0
0,64,87,0
0,48,89,4
0,48,81,4
0,81,77,4
0,76,74,0
0,72,73,8
0,62,76,4
0,47,74,0
0,47,88,0
0,69,64,72
0,64,59,4
0,60,53,0
0,64,82,4
0,48,87,0
0,81,81,0
0,48,90,4
0,76,80,0
0,72,81,0
0,69,61,112
0,60,60,0
0,64,60,0
0,81,86,8
0,72,75,4
0,76,73,0
0,69,61,176
0,64,54,4
0,60,63,0
0,62,80,4
0,47,79,0
0,47,85,4
0,81,75,0
0,72,70,0
0,76,75,0
0,69,58,128
0,64,57,4
0,60,60,0
0,60,76,0
0,81,77,0
0,72,69,0
0,76,80,0
0,45,74,4
0,45,77,0
0,69,64,16
0,60,60,4
0,64,54,4
0,62,80,0
0,47,67,0
0,81,83,0
0,72,75,0
0,76,76,0
0,47,80,0
0,60,89,4
0,45,74,0
0,45,77,4
0,64,74,0
0,71,60,0
0,52,82,0
0,67,57,0
0,43,80,0
0,59,76,8
0,79,89,0
0,71,66,0
0,76,66,0
0,43,83,4
0,60,78,0
0,45,87,4
0,45,88,8
0,71,62,4
0,64,68,0
0,67,58,0
0,62,87,4
0,47,89,0
0,79,88,4
0,76,70,4
0,71,66,0
0,47,82,4
0,64,85,4
0,48,74,0
0,48,89,8
0,71,60,164
0,64,61,4
0,67,57,0
0,62,85,4
0,47,76,0
0,79,84,4
0,47,81,4
0,71,64,0
0,76,66,0
0,64,64,172
0,71,63,4
0,67,62,0
0,79,76,16
0,71,66,0
0,76,70,4
0,71,62,220
0,67,61,0
0,64,59,4
0,79,70,16
0,71,65,0
0,76,71,8
0,64,68,208
0,67,66,0
0,71,64,4
0,60,91,0
0,45,87,4
0,79,82,4
0,71,65,0
0,45,80,0
0,76,66,4
0,64,74,4
0,67,60,0
0,71,70,0
0,43,87,4
0,59,74,4
0,43,79,4
0,79,81,4
0,71,70,0
0,76,72,4
0,71,72,0
0,67,62,0
0,64,76,0
0,60,89,0
0,45,72,4
0,45,86,4
0,79,88,4
0,76,70,0
0,71,70,0
0,43,86,0
0,59,87,0
0,43,85,4
0,65,68,144
0,72,64,4
0,69,63,0
0,57,87,0
0,41,89,4
0,53,80,0
0,41,83,0
0,81,84,0
0,72,77,4
0,77,82,0
0,69,57,136
0,72,62,0
0,65,74,4
0,43,89,4
0,59,89,4
0,43,83,0
0,81,81,0
0,72,71,4
0,77,76,0
0,65,72,196
0,72,66,0
0,69,61,0
0,60,91,4
0,45,89,0
0,45,92,0
0,81,75,4
0,77,73,0
0,72,67,0
0,69,60,0
0,72,60,0
0,65,70,0
0,65,89,4
0,48,78,0
0,48,95,4
0,81,68,4
0,77,70,0
0,72,62,4
0,69,66,188
0,65,72,0
0,72,70,4
0,53,85,4
0,81,72,0
0,69,95,4
0,53,86,0
0,77,68,0
0,72,64,0
0,69,64,172
0,72,70,0
0,65,74,4
0,77,63,16
0,81,67,0
0,72,64,0
0,65,89,4
0,48,82,0
0,48,88,0
0,69,64,12
0,72,64,4
0,65,74,0
0,45,91,4
0,60,74,4
0,81,73,0
0,72,72,0
0,77,71,0
0,45,86,12
0,72,68,0
0,65,70,0
0,69,63,0
0,43,82,4
0,59,85,4
0,81,81,0
0,43,81,4
0,77,72,0
0,72,79,0
0,57,72,0
0,41,95,0
0,41,85,4
0,71,70,160
0,68,55,0
0,64,55,4
0,56,68,0
0,52,85,0
0,40,97,0
0,40,91,4
0,80,81,0
0,71,53,4
0,76,65,4
0,68,58,160
0,71,63,0
0,64,60,0
0,57,82,0
0,42,80,4
0,42,85,8
0,80,75,0
0,71,64,0
0,76,67,12
0,71,61,192
0,68,54,4
0,64,45,0
0,59,82,0
0,44,89,0
0,44,91,0
0,80,70,4
0,71,55,4
0,76,64,0
0,68,56,16
0,71,61,4
0,64,60,0
0,64,68,8
0,47,78,4
0,47,75,0
0,80,70,0
0,71,61,4
0,76,72,0
0,68,57,196
0,71,61,4
0,64,45,4
0,68,66,0
0,52,85,4
0,80,70,4
0,52,94,0
0,71,64,0
0,76,72,0
0,68,58,196
0,71,70,0
0,64,59,0
0,80,72,24
0,71,64,4
0,76,76,4
0,69,85,4
0,53,74,0
0,53,98,0
0,68,53,168
0,71,64,0
0,64,52,4
0,68,72,4
0,52,82,0
0,52,97,4
0,80,78,0
0,71,64,0
0,76,80,4
0,71,68,60
0,68,57,4
0,64,57,4
0,80,70,24
0,76,69,4
0,71,55,4
0,69,76,16
0,72,72,0
0,76,60,4
0,81,99,8
0,76,87,0
0,57,93,4
0,72,94,0
0,69,72,156
0,72,64,0
0,76,64,4
0,60,87,0
0,45,80,4
0,45,97,8
0,72,86,4
0,81,85,0
0,76,89,4
0,62,87,0
0,47,99,0
0,47,89,4
0,72,60,0
0,69,70,0
0,76,57,0
0,64,89,0
0,48,80,0
0,48,102,4
0,81,86,4
0,76,84,4
0,72,84,0
0,62,91,0
0,50,74,0
0,50,96,0
0,69,66,0
0,76,60,0
0,72,62,0
0,48,78,4
0,64,89,4
0,48,94,0
0,81,85,4
0,76,85,4
0,72,80,0
0,62,85,0
0,47,97,0
0,47,87,4
0,69,72,12
0,72,70,0
0,76,61,0
0,60,87,0
0,45,76,4
0,45,95,0
0,81,84,4
0,76,89,0
0,72,83,0
0,62,91,0
0,47,90,0
0,47,82,4
0,69,70,0
0,76,61,4
0,72,62,0
0,48,76,0
0,64,87,4
0,48,97,4
0,81,82,4
0,76,85,0
0,72,71,4
0,72,60,48
0,69,70,0
0,76,60,0
0,81,84,12
0,72,77,8
0,76,82,0
0,76,60,232
0,69,64,0
0,72,61,0
0,47,74,4
0,62,85,4
0,47,91,4
0,81,86,4
0,72,80,0
0,76,81,4
0,45,87,4
0,60,78,4
0,45,93,0
0,55,91,108
0,74,72,0
0,71,61,0
0,59,76,4
0,43,89,0
0,67,64,4
0,43,98,0
0,79,91,0
0,71,82,0
0,74,93,4
0,74,62,96
0,71,60,0
0,67,60,8
0,79,89,4
0,74,86,4
0,71,77,4
0,45,98,0
0,45,80,4
0,60,72,8
0,74,60,156
0,71,57,0
0,67,56,0
0,79,91,4
0,71,81,0
0,47,92,4
0,74,90,0
0,62,91,0
0,47,87,4
0,48,102,12
0,64,89,4
0,48,85,0
0,71,61,4
0,74,58,4
0,67,62,0
0,79,86,8
0,74,90,0
0,71,76,0
0,62,89,8
0,50,96,0
0,50,89,4
0,64,89,4
0,48,80,0
0,48,99,0
0,74,59,28
0,71,66,4
0,67,64,4
0,79,88,4
0,71,81,0
0,74,87,4
0,62,89,4
0,47,95,0
0,47,95,4
0,74,61,136
0,71,61,4
0,67,60,0
0,79,89,8
0,74,91,4
0,71,81,0
0,60,85,8
0,45,91,12
0,45,87,8
0,71,61,4
0,67,60,0
0,43,87,0
0,74,60,4
0,79,87,0
0,71,77,0
0,59,87,4
0,43,95,0
0,74,83,0
0,74,60,4
0,45,87,0
0,71,68,0
0,67,70,0
0,45,93,8
0,79,85,0
0,60,87,4
0,71,73,0
0,74,86,0
0,43,82,4
0,43,102,16
0,59,91,4
0,53,93,140
0,72,61,20
0,77,60,0
0,69,61,0
0,65,60,0
0,57,89,0
0,41,89,4
0,41,93,12
0,72,92,4
0,81,87,0
0,77,87,0
0,69,55,148
0,72,60,0
0,77,62,0
0,65,59,0
0,59,87,0
0,43,91,4
0,81,94,4
0,43,88,0
0,72,84,0
0,77,89,4
0,60,91,12
0,72,58,4
0,77,64,0
0,65,55,0
0,69,57,0
0,81,92,0
0,45,89,4
0,45,100,0
0,72,89,0
0,77,89,0
0,72,58,164
0,69,57,4
0,65,61,0
0,77,66,0
0,65,87,4
0,48,101,0
0,81,84,0
0,48,89,4
0,72,68,8
0,77,64,0
0,69,53,128
0,72,60,4
0,77,68,0
0,65,58,0
0,69,91,4
0,53,95,0
0,81,90,0
0,72,89,4
0,77,85,0
0,53,87,0
0,55,103,56
0,71,89,0
0,55,89,4
0,69,57,24
0,72,57,4
0,77,63,0
0,65,58,0
0,69,91,16
0,53,101,0
0,81,92,0
0,77,89,0
0,72,87,0
0,53,89,4
0,72,66,108
0,69,60,0
0,77,68,4
0,65,60,0
0,81,91,16
0,72,86,4
0,77,83,4
0,77,60,4
0,69,52,0
0,72,56,0
0,55,93,0
0,65,59,4
0,71,89,0
0,81,87,0
0,55,98,4
0,72,87,0
0,77,86,4
0,53,89,4
0,69,91,4
0,53,93,0
0,52,91,4
0,68,80,4
0,76,70,0
0,71,38,4
0,52,80,0
0,52,105,12
0,71,75,4
0,80,90,0
0,76,91,4
0,71,52,160
0,68,49,0
0,76,72,0
0,80,84,12
0,76,81,0
0,71,64,8
0,50,91,4
0,50,90,4
0,71,53,8
0,68,54,0
0,76,72,0
0,52,91,4
0,64,38,4
0,52,100,4
0,80,85,4
0,76,93,0
0,68,82,4
0,71,76,0
0,71,49,156
0,76,68,4
0,68,59,0
0,64,53,4
0,80,84,12
0,76,90,4
0,71,77,0
0,53,87,4
0,53,104,0
0,71,32,68
0,76,63,0
0,68,39,4
0,52,98,4
0,52,112,8
0,68,93,4
0,80,85,0
0,71,74,4
0,76,86,0
0,64,48,132
0,71,47,0
0,68,50,4
0,76,74,0
0,80,86,16
0,76,87,4
0,71,72,0
0,53,105,4
0,53,93,4
0,71,45,8
0,76,70,4
0,64,39,0
0,68,53,4
0,52,82,4
0,52,121,0
0,80,86,4
0,71,74,4
0,76,91,0
0,50,103,8
0,68,105,4
0,50,89,0
0,48,100,8
0,68,59,12
0,76,64,4
0,71,42,0
0,48,109,0
0,48,82,4
0,80,85,0
0,76,89,0
0,71,84,0
0,69,91,12
0,47,106,8
0,71,105,0
0,47,72,4
0,45,95,104
0,69,85,4
0,72,61,4
0,76,91,0
0,72,100,0
0,45,102,4
0,76,97,4
0,45,101,4
0,76,76,284
0,72,83,28
0,69,78,0
0,72,76,132
0,69,78,4
0,60,62,16
0,72,81,12
0,69,74,4
0,76,82,244
0,72,30,4
0,69,34,0
0,72,78,16
0,69,75,0
0,72,66,156
0,69,85,0
0,69,76,0
0,72,83,4
0,77,89,4
0,77,99,4
0,72,89,0
0,69,80,4
0,76,72,96
0,76,99,0
0,76,89,4
0,69,78,0
0,72,91,0
0,69,89,156
0,72,72,4
0,60,98,12
0,74,91,8
0,74,93,8
0,69,86,0
0,64,56,16
0,76,78,24
0,72,100,4
0,47,85,0
0,72,91,8
0,72,101,4
0,47,83,4
0,69,89,0
0,64,68,0
0,43,102,16
0,45,91,4
0,45,90,4
0,76,85,4
0,43,89,0
0,67,55,0
0,71,68,4
0,65,55,0
0,71,95,4
0,43,93,4
0,76,91,0
0,71,84,4
0,67,80,0
0,55,89,16
0,76,80,128
0,71,84,28
0,67,81,4
0,71,57,204
0,67,74,0
0,67,85,16
0,59,87,4
0,71,81,0
0,76,82,224
0,67,84,16
0,71,78,4
0,71,70,232
0,67,78,4
0,71,81,16
0,67,81,0
0,77,93,16
0,71,84,4
0,67,85,0
0,77,87,4
0,76,80,100
0,76,87,4
0,76,100,4
0,71,87,0
0,67,85,4
0,67,72,48
0,71,70,0
0,59,87,8
0,74,89,4
0,74,106,4
0,71,82,4
0,64,58,8
0,57,100,4
0,69,87,12
0,72,58,0
0,45,74,4
0,72,108,4
0,72,95,4
0,71,87,0
0,45,93,0
0,64,77,0
0,69,95,0
0,43,97,0
0,43,91,4
0,69,89,172
0,65,93,0
0,53,107,0
0,72,93,4
0,41,91,0
0,81,105,0
0,41,90,0
0,81,105,4
0,76,93,4
0,72,84,0
0,69,75,4
0,76,76,176
0,76,93,24
0,72,101,8
0,69,83,0
0,65,76,244
0,60,78,0
0,69,78,8
0,76,87,8
0,72,99,0
0,69,75,4
0,76,85,188
0,76,80,20
0,72,89,0
0,69,75,0
0,65,78,220
0,69,82,0
0,72,102,12
0,76,93,0
0,69,71,4
0,79,89,104
0,79,114,8
0,76,91,0
0,69,80,0
0,72,90,0
0,76,85,96
0,81,93,4
0,81,102,4
0,69,85,0
0,76,103,4
0,72,99,0
0,69,74,0
0,65,76,4
0,72,89,0
0,64,99,12
0,60,89,4
0,72,96,8
0,69,84,0
0,76,85,20
0,74,87,4
0,43,70,0
0,74,109,4
0,72,93,4
0,43,92,0
0,64,84,0
0,69,97,0
0,41,95,0
0,41,91,4
0,68,68,20
0,64,78,4
0,76,91,4
0,40,85,0
0,40,97,8
0,76,110,0
0,71,100,4
0,71,99,0
0,68,78,0
0,52,116,4
0,77,89,4
0,77,114,0
0,76,87,52
0,76,89,4
0,42,87,0
0,42,98,8
0,76,108,0
0,68,74,0
0,71,97,4
0,68,60,92
0,64,70,4
0,68,82,0
0,68,74,0
0,44,89,4
0,44,89,0
0,71,93,0
0,76,87,184
0,47,78,4
0,47,84,8
0,71,90,0
0,68,67,0
0,74,82,4
0,74,102,8
0,68,64,16
0,64,89,0
0,64,89,8
0,76,85,4
0,52,93,0
0,76,101,4
0,68,80,4
0,52,83,4
0,71,97,0
0,76,82,180
0,68,74,28
0,71,86,0
0,68,64,248
0,64,80,0
0,59,70,0
0,68,71,24
0,71,85,0
0,48,105,16
0,76,80,0
0,47,82,4
0,47,84,0
0,71,91,0
0,68,80,4
0,74,98,0
0,52,91,4
0,74,80,4
0,52,87,0
0,69,93,104
0,69,91,0
0,72,93,4
0,45,91,0
0,72,82,4
0,45,95,4
0,45,87,4
0,60,91,0
0,64,96,0
0,69,80,112
0,45,105,0
0,76,87,4
0,45,88,4
0,60,82,0
0,69,98,4
0,64,82,0
0,71,87,4
0,71,102,0
0,69,85,8
0,72,95,0
0,72,93,0
0,57,91,4
0,57,86,4
0,72,95,0
0,69,95,0
0,64,84,4
0,71,85,4
0,71,103,0
0,76,85,108
0,72,93,4
0,72,114,0
0,69,92,8
0,64,84,0
0,74,112,28
0,74,91,4
0,57,85,0
0,57,85,0
0,64,74,4
0,69,82,20
0,72,91,4
0,72,98,0
0,45,93,4
0,60,59,4
0,64,88,0
0,45,83,4
0,72,113,0
0,69,100,0
0,76,74,0
0,71,91,4
0,71,106,0
0,64,96,4
0,60,87,0
0,69,68,28
0,72,80,4
0,57,98,4
0,69,82,4
0,69,105,0
0,60,88,0
0,57,91,4
0,64,90,0
0,76,63,0
0,72,100,4
0,45,89,0
0,71,102,0
0,71,89,4
0,45,88,0
0,60,90,0
0,64,89,0
0,69,91,4
0,69,111,0
0,69,89,4
0,71,74,4
0,67,91,4
0,43,107,16
0,67,80,8
0,67,76,4
0,43,87,0
0,71,91,4
0,67,113,0
0,43,95,4
0,59,85,0
0,64,80,0
0,69,106,4
0,69,91,0
0,76,85,12
0,43,95,0
0,71,102,0
0,67,99,0
0,71,89,4
0,43,88,0
0,64,86,0
0,72,109,76
0,72,91,4
0,71,39,16
0,67,64,4
0,71,91,0
0,55,89,0
0,71,106,0
0,55,77,4
0,64,99,0
0,67,103,0
0,76,76,116
0,67,94,4
0,64,94,4
0,69,91,4
0,43,107,0
0,43,89,0
0,69,95,0
0,67,53,20
0,65,61,0
0,67,76,0
0,59,64,0
0,71,35,4
0,64,87,0
0,43,105,0
0,43,88,8
0,67,109,0
0,59,83,0
0,64,92,4
0,76,89,184
0,64,81,16
0,59,87,0
0,69,106,108
0,69,91,0
0,67,70,8
0,71,64,0
0,55,98,4
0,71,89,4
0,55,98,0
0,64,91,0
0,67,101,0
0,71,107,0
0,76,82,36
0,47,105,68
0,69,89,4
0,67,76,0
0,43,93,0
0,71,91,4
0,69,99,0
0,59,83,0
0,43,73,4
0,64,84,0
0,67,120,8
0,67,78,0
0,69,74,16
0,65,76,0
0,57,119,8
0,65,89,0
0,69,91,0
0,72,98,0
0,41,93,4
