track,note,velocity,time
0,69,75,2284
0,74,53,180
0,53,72,16
0,70,79,0
0,31,76,4
0,62,60,0
0,65,60,4
0,62,68,0
0,51,54,0
0,43,68,12
0,69,72,16
0,44,70,152
0,58,42,0
0,62,45,0
0,53,34,0
0,51,51,4
0,67,81,76
0,65,91,20
0,63,52,20
0,60,51,20
0,64,72,0
0,76,49,0
0,67,81,4
0,36,74,4
0,51,39,0
0,64,78,0
0,58,66,0
0,48,66,4
0,44,66,92
0,36,66,4
0,64,50,4
0,58,39,0
0,55,25,4
0,51,68,0
0,69,86,88
0,51,53,84
0,77,51,8
0,61,59,0
0,65,60,8
0,72,84,8
0,61,74,0
0,31,61,0
0,43,70,0
0,65,69,4
0,51,74,4
0,70,89,12
0,62,48,28
0,58,34,0
0,62,59,0
0,65,52,0
0,51,80,0
0,44,58,8
0,69,79,4
0,67,70,8
0,63,23,40
0,79,45,4
0,60,42,4
0,70,86,4
0,67,81,0
0,64,66,0
0,48,73,4
0,64,76,0
0,36,70,4
0,51,66,8
0,36,80,8
0,44,68,4
0,24,72,4
0,64,43,4
0,58,42,0
0,55,38,0
0,51,87,0
0,70,89,0
0,72,94,168
0,51,54,8
0,68,70,16
0,81,53,20
0,41,71,0
0,69,80,0
0,77,97,4
0,29,74,0
0,69,74,4
0,51,85,0
0,65,63,92
0,76,94,0
0,60,70,56
0,80,50,8
0,44,76,4
0,60,58,0
0,56,40,0
0,68,76,0
0,51,76,0
0,64,43,4
0,48,76,4
0,74,86,32
0,72,99,0
0,51,80,16
0,29,76,4
0,74,91,0
0,41,68,0
0,81,59,328
0,57,35,0
0,60,47,0
0,65,66,0
0,69,69,0
0,51,64,0
0,65,47,4
0,44,85,16
0,51,48,0
0,29,78,8
0,30,70,12
0,42,72,8
0,51,53,0
0,81,62,56
0,54,39,44
0,60,33,0
0,63,36,4
0,57,49,0
0,51,59,0
0,44,89,4
0,63,70,4
0,69,69,0
0,51,48,88
0,82,53,4
0,70,76,8
0,62,54,8
0,65,70,0
0,31,78,4
0,43,76,0
0,51,76,0
0,65,76,0
0,64,65,152
0,44,85,8
0,58,44,4
0,55,44,4
0,62,39,0
0,51,85,0
0,48,62,0
0,64,62,0
0,76,95,16
0,59,60,12
0,83,60,8
0,51,66,24
0,31,70,4
0,43,50,0
0,67,85,4
0,79,102,8
0,71,80,4
0,77,96,164
0,65,74,20
0,51,85,100
0,59,47,8
0,62,44,0
0,53,21,0
0,44,82,16
0,76,81,24
0,64,37,36
0,74,81,4
0,51,38,4
0,62,48,0
0,83,61,28
0,43,74,20
0,51,87,0
0,76,84,4
0,31,74,4
0,71,89,0
0,65,82,8
0,64,91,4
0,44,85,180
0,53,32,4
0,51,89,0
0,62,39,0
0,59,47,0
0,77,94,0
0,65,91,0
0,59,85,60
0,84,58,0
0,36,74,16
0,72,82,0
0,51,107,0
0,48,56,4
0,60,82,8
0,44,70,116
0,62,34,0
0,58,43,4
0,53,30,0
0,51,87,0
0,70,73,4
0,65,64,12
0,62,53,8
0,65,70,100
0,58,68,0
0,51,61,36
0,72,57,76
0,51,102,8
0,36,68,8
0,65,81,8
0,48,66,4
0,58,60,4
0,62,78,0
0,53,85,4
0,59,87,4
0,44,66,40
0,55,74,0
0,59,89,0
0,58,44,4
0,64,53,0
0,55,46,0
0,67,91,16
0,58,45,4
0,64,69,12
0,51,57,56
0,28,82,8
0,56,55,20
0,51,105,0
0,57,91,4
0,29,76,0
0,41,66,12
0,69,87,0
0,72,46,8
0,60,76,12
0,51,45,100
0,64,43,36
0,57,43,4
0,60,55,0
0,51,76,4
0,44,58,4
0,64,72,8
0,60,65,8
0,51,43,0
0,56,68,20
0,57,93,28
0,60,110,4
0,29,76,4
0,51,93,0
0,48,76,0
0,62,102,24
0,60,91,24
0,65,85,36
0,44,68,80
0,51,89,0
0,57,42,4
0,60,54,0
0,62,53,0
0,65,65,0
0,60,65,12
0,62,62,4
0,51,62,104
0,29,72,20
0,41,59,0
0,51,100,0
0,64,79,8
0,56,76,124
0,57,100,28
0,60,78,24
0,60,89,8
0,62,70,8
0,44,76,24
0,51,100,0
0,57,37,4
0,60,52,0
0,65,91,0
0,64,53,4
0,67,102,36
0,64,87,20
0,51,60,0
0,67,28,0
0,68,41,20
0,67,60,4
0,65,57,12
0,77,49,0
0,51,85,0
0,62,82,4
0,48,74,4
0,29,82,0
0,57,57,4
0,60,65,0
0,62,87,8
0,65,91,20
0,53,52,16
0,76,60,92
0,41,65,12
0,60,53,12
0,62,47,0
0,57,47,0
0,59,74,0
0,44,85,0
0,69,83,76
0,30,70,8
0,53,49,0
0,74,39,24
0,62,72,0
0,65,78,0
0,31,82,12
0,51,95,4
0,70,82,4
0,62,81,0
0,53,61,12
0,43,65,8
0,69,85,20
0,51,87,88
0,62,48,4
0,58,51,0
0,53,48,0
0,44,89,0
0,67,86,0
0,58,61,16
0,62,91,4
0,65,91,56
0,51,53,0
0,65,87,0
0,62,85,12
0,76,59,28
0,67,79,4
0,51,110,0
0,36,68,4
0,64,70,0
0,60,78,0
0,64,76,0
0,48,70,4
0,58,69,4
0,44,85,84
0,55,45,4
0,64,47,4
0,58,47,0
0,51,68,0
0,36,71,0
0,69,84,68
0,51,52,28
0,77,43,0
0,65,87,0
0,61,105,4
0,72,94,4
0,31,87,4
0,43,70,0
0,65,77,0
0,61,60,0
0,51,110,0
0,70,84,12
0,61,53,88
0,58,47,0
0,51,66,0
0,65,44,4
0,44,82,16
0,58,87,20
0,61,68,4
0,69,81,16
0,65,89,16
0,67,86,0
0,51,45,28
0,79,54,64
0,70,84,12
0,64,62,4
0,64,80,4
0,48,65,0
0,67,72,4
0,36,80,4
0,51,100,0
0,36,78,72
0,53,93,8
0,60,89,4
0,64,54,0
0,44,85,0
0,58,50,4
0,55,49,0
0,53,54,8
0,72,92,44
0,53,43,36
0,28,87,8
0,81,55,12
0,41,63,12
0,77,96,8
0,29,89,4
0,69,80,0
0,51,100,4
0,56,87,0
0,57,48,8
0,60,93,92
0,76,108,28
0,80,55,104
0,68,79,8
0,44,70,0
0,51,102,8
0,48,70,0
0,56,47,4
0,60,70,0
0,64,49,0
0,62,82,8
0,74,93,4
0,60,64,4
0,72,92,8
0,51,48,24
0,65,78,0
0,81,46,8
0,29,82,4
0,51,110,0
0,74,94,4
0,41,60,0
0,69,72,48
0,44,66,0
0,57,42,4
0,60,57,4
0,65,54,0
0,65,69,0
0,51,93,8
0,51,36,60
0,42,65,40
0,30,70,4
0,51,95,8
0,81,53,32
0,63,74,36
0,60,53,4
0,54,44,0
0,57,60,0
0,51,102,4
0,69,64,4
0,44,58,8
0,62,98,0
0,65,91,8
0,67,100,24
0,30,76,36
0,51,53,4
0,67,85,40
0,68,87,16
0,82,44,16
0,70,71,0
0,31,82,0
0,65,73,0
0,43,71,4
0,51,107,4
0,67,76,4
0,65,76,28
0,67,74,16
0,53,113,76
0,68,64,0
0,69,80,8
0,44,68,4
0,62,49,4
0,58,59,0
0,55,48,4
0,64,78,0
0,51,28,0
0,48,62,8
0,71,49,0
0,72,87,4
0,76,76,4
0,74,76,4
0,51,48,56
0,72,85,0
0,77,93,12
0,83,55,8
0,79,108,4
0,51,110,4
0,31,72,4
0,79,88,8
0,43,65,0
0,71,65,8
0,77,93,88
0,77,87,8
0,44,76,120
0,62,37,8
0,53,40,0
0,59,55,0
0,55,39,0
0,51,85,0
0,75,46,40
0,76,95,20
0,76,82,32
0,74,80,24
0,51,57,0
0,74,80,4
0,76,113,72
0,76,70,24
0,51,107,0
0,43,71,4
0,31,76,4
0,71,74,8
0,65,74,0
0,53,100,60
0,77,98,0
0,51,56,4
0,62,33,4
0,59,29,0
0,77,85,0
0,55,36,4
0,53,36,0
0,44,85,12
0,73,95,168
0,34,68,4
0,51,52,0
0,74,107,4
0,82,47,52
0,36,74,8
0,72,95,4
0,51,116,0
0,48,52,4
0,72,102,4
0,74,127,60
0,62,38,12
0,70,70,0
0,58,48,4
0,53,40,0
0,51,66,4
0,44,89,0
0,62,55,4
0,65,68,0
0,67,80,192
0,51,87,8
0,68,68,8
0,69,85,4
0,77,53,8
0,72,80,0
0,62,78,0
0,65,87,4
0,58,65,4
0,36,57,0
0,48,71,0
0,51,82,0
0,74,119,44
0,72,113,36
0,59,122,52
0,65,95,24
0,74,56,36
0,44,85,0
0,53,38,8
0,58,41,0
0,62,35,0
0,69,93,20
0,68,87,0
0,67,32,12
0,64,58,12
0,65,97,12
0,67,107,28
0,59,72,0
0,69,66,20
0,77,53,12
0,65,96,0
0,51,113,0
0,29,78,8
0,41,67,0
0,67,74,4
0,65,80,20
0,51,72,180
0,60,82,8
0,57,52,0
0,60,42,0
0,53,51,0
0,57,54,0
0,44,82,8
0,62,87,4
0,65,91,16
0,67,87,24
0,51,48,36
0,68,102,4
0,69,74,16
0,70,87,8
0,34,68,12
0,65,76,0
0,62,63,0
0,51,113,0
0,46,64,8
0,72,87,0
0,69,57,28
0,68,93,4
0,67,63,4
0,73,91,68
0,65,77,4
0,70,69,4
0,44,85,0
0,61,60,4
0,34,72,0
0,56,43,0
0,51,95,0
0,65,91,4
0,53,42,0
0,46,64,0
0,67,78,0
0,65,87,16
0,51,66,0
0,62,74,16
0,72,96,8
0,41,65,12
0,29,87,0
0,51,113,0
0,77,45,4
0,81,55,0
0,65,87,0
0,44,70,148
0,53,89,4
0,53,44,0
0,60,53,0
0,57,55,0
0,69,81,4
0,65,48,8
0,65,107,68
0,29,76,8
0,51,87,0
0,41,62,4
0,69,68,4
0,65,65,0
0,63,61,0
0,75,47,0
0,79,68,0
0,67,95,16
0,51,54,0
0,63,72,4
0,77,74,88
0,74,52,0
0,53,53,0
0,44,66,4
0,62,89,0
0,65,97,0
0,62,87,0
0,60,64,4
0,57,46,0
0,33,78,0
0,51,105,0
0,63,64,4
0,45,76,0
0,75,66,28
0,72,82,0
0,60,105,16
0,63,86,0
0,60,93,0
0,51,52,4
0,77,58,0
0,62,102,0
0,34,70,0
0,51,116,0
0,89,53,4
0,74,57,0
0,62,87,0
0,65,94,0
0,46,72,4
0,67,86,16
0,82,47,20
0,51,107,4
0,62,42,4
0,53,42,0
0,58,48,4
0,44,58,16
0,65,82,24
0,51,48,36
0,89,55,24
0,65,85,8
0,51,110,16
0,34,64,4
0,46,67,0
0,74,89,4
0,70,66,0
0,65,71,0
0,53,28,20
0,82,53,76
0,44,68,32
0,74,90,4
0,51,51,0
0,53,29,0
0,58,37,0
0,62,39,0
0,51,60,88
0,37,76,0
0,93,48,56
0,66,107,0
0,74,88,4
0,38,76,4
0,50,72,0
0,66,72,0
0,51,122,0
0,72,86,8
0,75,101,196
0,59,82,28
0,86,53,40
0,44,76,24
0,60,48,8
0,54,30,0
0,62,49,0
0,57,51,0
0,53,38,4
0,74,87,20
0,62,70,64
0,73,91,16
0,51,102,0
0,93,58,60
0,66,89,16
0,51,113,16
0,74,95,8
0,38,65,0
0,59,87,128
0,33,74,4
0,86,49,12
0,54,38,0
0,62,45,4
0,60,53,0
0,57,42,4
0,26,74,0
0,53,82,0
0,72,85,4
0,66,61,0
0,44,85,12
0,62,74,72
0,66,95,76
0,51,85,36
0,74,55,0
0,67,72,8
0,31,82,4
0,67,90,8
0,51,127,4
0,62,78,4
0,58,57,0
0,43,68,4
0,76,44,0
0,69,88,28
0,58,51,128
0,62,36,0
0,55,39,0
0,44,89,4
0,51,110,0
0,78,48,12
0,67,100,8
0,62,68,32
0,51,59,8
0,67,93,0
0,51,116,4
0,31,80,4
0,74,94,0
0,43,72,4
0,67,80,4
0,70,76,4
0,79,63,16
0,59,78,36
0,44,85,108
0,81,74,8
0,55,49,0
0,58,56,0
0,62,49,0
0,53,68,0
0,74,95,4
0,67,87,4
0,70,87,8
0,82,64,12
0,67,53,8
0,51,95,16
0,31,76,8
0,83,60,72
0,74,93,0
0,71,81,8
0,65,65,0
0,71,113,4
0,51,122,0
0,44,63,4
0,32,80,4
0,67,53,32
0,89,66,52
0,76,96,24
0,62,39,92
0,59,52,4
0,65,40,0
0,56,46,0
0,59,72,0
0,44,82,12
0,88,68,16
0,74,89,8
0,51,60,28
0,73,92,4
0,91,59,0
0,51,116,4
0,44,63,4
0,74,105,0
0,59,87,56
0,89,54,100
0,71,72,12
0,44,85,4
0,53,55,4
0,56,34,4
0,59,45,0
0,62,55,0
0,65,60,0
0,32,82,0
0,65,57,0
0,51,95,104
0,81,53,0
0,69,87,16
0,65,91,4
0,51,127,4
0,38,68,8
0,65,69,0
0,62,66,4
0,69,85,0
0,50,71,12
0,89,66,12
0,65,87,24
0,70,96,0
0,88,68,68
0,44,70,4
0,65,51,8
0,57,46,0
0,62,60,0
0,59,82,0
0,69,82,0
0,86,70,8
0,69,81,36
0,65,54,0
0,51,70,4
0,94,53,0
0,34,68,0
0,51,113,0
0,68,110,8
0,65,54,0
0,77,94,12
0,46,68,0
0,68,75,0
0,74,82,4
0,65,95,8
0,59,87,4
0,44,66,104
0,77,95,0
0,56,52,4
0,65,47,8
0,62,57,0
0,53,60,0
0,68,76,112
0,51,85,12
0,65,80,4
0,77,87,0
0,66,105,0
0,31,82,4
0,73,77,0
0,51,113,4
0,67,107,0
0,70,68,0
0,43,73,4
0,94,59,44
0,70,119,8
0,76,93,0
0,58,55,92
0,53,51,0
0,59,72,4
0,61,46,4
0,44,58,12
0,68,85,52
0,69,93,0
0,77,76,28
0,67,85,28
0,76,99,0
0,51,82,0
0,67,89,36
0,79,92,0
0,31,74,0
0,51,116,0
0,71,69,4
0,91,50,4
0,43,68,0
0,62,85,8
0,67,93,4
0,59,85,220
0,76,87,12
0,44,68,4
0,65,98,0
0,62,46,4
0,59,57,0
0,53,46,0
0,53,74,0
0,93,60,4
0,51,70,12
0,94,68,4
0,62,91,12
0,70,100,8
0,31,55,0
0,74,84,8
0,65,72,0
0,70,69,4
0,51,113,0
0,43,65,0
0,70,98,144
0,67,53,8
0,65,60,0
0,93,66,36
0,44,76,12
0,62,47,8
0,58,41,0
0,53,38,0
0,53,74,0
0,74,94,12
0,91,70,8
0,51,91,0
0,30,91,92
0,51,122,0
0,90,51,4
0,74,89,0
0,66,68,0
0,66,79,4
0,63,68,4
0,63,68,0
0,42,64,8
0,63,61,8
0,74,93,8
0,66,60,8
0,69,86,0
0,59,89,116
0,57,53,4
0,54,38,0
0,63,41,0
0,60,33,4
0,44,85,12
0,69,80,120
0,51,66,24
0,60,34,0
0,59,40,4
0,66,61,4
0,91,50,4
0,72,93,0
0,31,74,4
0,70,76,0
0,64,46,4
0,64,78,0
0,51,113,0
0,43,78,0
0,67,105,0
0,31,82,0
0,53,89,116
0,58,50,4
0,64,51,4
0,55,46,0
0,24,85,0
0,36,86,0
0,44,89,0
0,51,53,40
0,26,85,0
0,62,59,0
0,38,79,0
0,51,113,0
0,88,59,4
0,59,87,4
0,40,74,108
0,44,85,8
0,51,87,4
0,28,89,4
0,84,49,0
0,60,60,0
0,69,92,136
0,55,107,68
0,74,51,28
0,51,62,16
0,58,85,0
0,62,95,0
0,31,68,0
0,62,72,0
0,70,78,0
0,53,65,4
0,43,61,0
0,69,88,24
0,53,70,144
0,62,31,4
0,58,47,0
0,55,43,0
0,44,82,16
0,67,88,76
0,65,88,12
0,51,72,12
0,63,58,12
0,76,54,8
0,60,89,4
0,64,91,0
0,51,113,12
0,36,70,4
0,67,96,4
0,48,76,0
0,58,72,0
0,64,83,4
0,70,45,72
0,44,85,0
0,24,72,4
0,53,85,0
0,58,41,4
0,55,45,0
0,64,53,0
0,36,77,0
0,69,86,0
0,51,72,36
0,61,58,4
0,43,73,0
0,72,97,0
0,65,83,0
0,65,87,0
0,73,60,0
0,61,78,8
0,51,113,0
0,31,82,4
0,70,91,0
0,77,74,56
0,44,70,44
0,61,38,0
0,58,31,0
0,53,102,0
0,65,43,4
0,58,68,84
0,61,93,0
0,69,87,12
0,65,107,24
0,67,85,8
0,51,68,8
