track,note,velocity,time
0,72,100,960
0,63,92,0
0,48,83,0
0,79,116,0
0,79,116,0
0,67,116,0
0,63,92,0
0,48,0,76
0,79,0,5
0,79,0,0
0,67,0,0
0,72,0,16
0,63,0,5
0,63,0,0
0,39,86,138
0,72,94,0
0,63,83,0
0,48,88,0
0,79,110,0
0,79,110,0
0,67,110,0
0,63,83,0
0,48,0,61
0,39,0,3
0,79,0,11
0,79,0,0
0,67,0,0
0,72,0,11
0,63,0,6
0,63,0,0
0,72,83,28
0,60,90,0
0,48,73,0
0,77,73,0
0,77,73,0
0,65,73,0
0,60,90,0
0,77,0,63
0,77,0,0
0,65,0,0
0,48,0,4
0,72,0,8
0,60,0,2
0,60,0,0
0,72,94,43
0,65,80,0
0,41,92,0
0,80,104,0
0,80,104,0
0,68,104,0
0,65,80,0
0,41,0,78
0,80,0,9
0,80,0,0
0,68,0,0
0,72,0,8
0,65,0,0
0,65,0,0
0,74,102,25
0,62,92,0
0,41,83,0
0,77,86,0
0,77,86,0
0,65,86,0
0,62,92,0
0,77,0,80
0,77,0,0
0,65,0,0
0,62,0,1
0,62,0,0
0,41,0,5
0,74,0,21
0,39,94,13
0,39,0,57
0,72,98,63
0,63,98,0
0,43,104,0
0,79,108,0
0,79,108,0
0,67,108,0
0,63,98,0
0,79,0,64
0,79,0,0
0,67,0,0
0,43,0,23
0,72,0,7
0,63,0,5
0,63,0,0
0,67,104,141
0,59,104,0
0,43,98,0
0,74,96,0
0,74,96,0
0,62,96,0
0,59,104,0
0,74,0,63
0,74,0,0
0,62,0,0
0,43,0,10
0,59,0,27
0,59,0,0
0,67,0,7
0,39,102,13
0,39,0,58
0,67,100,62
0,59,88,0
0,43,83,0
0,74,88,0
0,74,88,0
0,62,88,0
0,59,88,0
0,43,0,66
0,74,0,0
0,74,0,0
0,62,0,0
0,59,0,4
0,59,0,0
0,67,0,18
0,68,94,32
0,62,100,0
0,41,84,0
0,77,102,0
0,77,102,0
0,65,102,0
0,62,100,0
0,77,0,193
0,77,0,0
0,65,0,0
0,62,0,3
0,62,0,0
0,41,0,7
0,68,0,1
0,39,100,36
0,68,82,0
0,62,102,0
0,41,71,0
0,77,88,0
0,77,88,0
0,65,88,0
0,62,102,0
0,39,0,56
0,77,0,26
0,77,0,0
0,65,0,0
0,41,0,6
0,62,0,4
0,62,0,0
0,68,0,1
0,72,62,27
0,63,88,0
0,43,86,0
0,79,80,0
0,79,80,0
0,67,80,0
0,63,88,0
0,63,0,69
0,63,0,0
0,43,0,9
0,79,0,4
0,79,0,0
0,67,0,0
0,72,0,1
0,67,104,37
0,60,104,0
0,48,86,0
0,75,104,0
0,75,104,0
0,63,104,0
0,60,104,0
0,48,0,92
0,67,0,97
0,60,0,11
0,60,0,0
0,75,0,14
0,75,0,0
0,63,0,0
0,39,100,26
0,63,88,0
0,55,102,0
0,48,83,0
0,72,86,0
0,72,86,0
0,60,86,0
0,55,102,0
0,39,0,57
0,48,0,23
0,55,0,11
0,55,0,0
0,72,0,7
0,72,0,0
0,60,0,0
0,63,0,32
0,65,106,230
0,56,100,0
0,41,86,0
0,77,88,0
0,77,88,0
0,65,88,0
0,56,100,0
0,77,0,54
0,77,0,0
0,65,0,0
0,41,0,15
0,65,0,9
0,56,0,1
0,56,0,0
0,39,98,41
0,65,86,0
0,56,98,0
0,41,69,0
0,77,80,0
0,77,80,0
0,65,80,0
0,56,98,0
0,39,0,58
0,77,0,15
0,77,0,0
0,65,0,0
0,41,0,7
0,65,0,1
0,56,0,5
0,56,0,0
0,67,100,34
0,55,108,0
0,43,96,0
0,74,104,0
0,74,104,0
0,62,104,0
0,55,108,0
0,74,0,68
0,74,0,0
0,62,0,0
0,55,0,3
0,55,0,0
0,43,0,11
0,67,0,7
0,65,78,151
0,67,108,0
0,55,104,0
0,43,106,0
0,71,94,0
0,71,94,0
0,59,94,0
0,55,104,0
0,65,0,25
0,43,0,53
0,71,0,4
0,71,0,0
0,59,0,0
0,55,0,3
0,55,0,0
0,67,0,20
0,39,102,15
0,65,98,0
0,65,0,22
0,65,104,38
0,39,0,5
0,65,0,2
0,65,106,9
0,65,0,21
0,65,119,23
0,65,0,30
0,65,108,90
0,65,0,28
0,65,82,92
0,65,0,31
0,39,98,89
0,65,112,0
0,65,0,33
0,39,0,27
0,65,120,60
0,65,0,36
0,69,106,84
0,54,104,0
0,74,76,0
0,72,104,0
0,63,98,0
0,48,84,0
0,79,117,0
0,79,117,0
0,67,117,0
0,63,98,0
0,54,0,45
0,69,0,3
0,48,0,33
0,63,0,21
0,63,0,0
0,79,0,2
0,79,0,0
0,67,0,0
0,72,0,5
0,69,40,11
0,54,33,0
0,69,0,29
0,54,0,17
0,74,0,31
0,39,106,43
0,69,104,0
0,54,102,0
0,73,78,0
0,72,98,0
0,63,82,0
0,48,86,0
0,79,108,0
0,79,108,0
0,67,108,0
0,63,82,0
0,69,0,44
0,54,0,1
0,73,0,5
0,39,0,10
0,48,0,5
0,72,0,23
0,79,0,1
0,79,0,0
0,67,0,0
0,63,0,8
0,63,0,0
0,69,32,23
0,54,29,0
0,73,69,0
0,72,90,0
0,60,80,0
0,48,75,0
0,77,62,0
0,77,62,0
0,65,62,0
0,60,80,0
0,54,0,42
0,73,0,9
0,77,0,1
0,77,0,0
0,65,0,0
0,60,0,1
0,60,0,0
0,69,0,2
0,48,0,13
0,72,0,11
0,69,96,41
0,54,106,0
0,74,84,0
0,72,88,0
0,65,88,0
0,41,78,0
0,80,102,0
0,80,102,0
0,68,102,0
0,65,88,0
0,69,0,48
0,54,0,2
0,41,0,19
0,80,0,13
0,80,0,0
0,68,0,0
0,72,0,4
0,65,0,3
0,65,0,0
0,69,38,31
0,54,32,0
0,74,90,0
0,62,90,0
0,41,84,0
0,77,84,0
0,77,84,0
0,65,84,0
0,62,90,0
0,54,0,42
0,69,0,1
0,74,0,17
0,77,0,13
0,77,0,0
0,65,0,0
0,62,0,7
0,62,0,0
0,41,0,2
0,74,0,11
0,39,100,27
0,69,106,0
0,54,110,0
0,73,78,0
0,69,0,51
0,54,0,2
0,73,0,2
0,39,0,4
0,69,41,61
0,54,32,0
0,73,60,0
0,72,98,0
0,63,88,0
0,43,96,0
0,79,112,0
0,79,112,0
0,67,112,0
0,63,88,0
0,69,0,43
0,54,0,0
0,73,0,10
0,43,0,20
0,79,0,5
0,79,0,0
0,67,0,0
0,72,0,15
0,63,0,7
0,63,0,0
0,69,102,20
0,54,114,0
0,74,84,0
0,69,0,43
0,54,0,3
0,69,31,74
0,54,42,0
0,67,98,0
0,59,98,0
0,43,92,0
0,74,104,0
0,74,104,0
0,62,104,0
0,59,98,0
0,69,0,36
0,54,0,4
0,74,0,2
0,74,0,32
0,74,0,0
0,62,0,0
0,43,0,7
0,59,0,13
0,59,0,0
0,67,0,3
0,39,104,23
0,69,104,0
0,54,110,0
0,73,80,0
0,69,0,41
0,54,0,4
0,39,0,10
0,73,0,8
0,69,48,57
0,54,34,0
0,73,50,0
0,67,88,0
0,59,88,0
0,43,86,0
0,74,84,0
0,74,84,0
0,62,84,0
0,59,88,0
0,69,0,44
0,73,0,0
0,54,0,10
0,74,0,8
0,74,0,0
0,62,0,0
0,59,0,5
0,59,0,0
0,43,0,13
0,67,0,17
0,69,106,23
0,54,114,0
0,74,80,0
0,68,92,0
0,62,100,0
0,41,86,0
0,77,102,0
0,77,102,0
0,65,102,0
0,62,100,0
0,69,0,44
0,69,45,56
0,54,38,0
0,74,0,29
0,54,0,13
0,69,0,1
0,77,0,34
0,77,0,0
0,65,0,0
0,68,0,5
0,62,0,2
0,62,0,0
0,41,0,1
0,39,108,35
0,69,102,0
0,54,110,0
0,73,65,0
0,68,65,0
0,62,90,0
0,41,71,0
0,77,88,0
0,77,88,0
0,65,88,0
0,62,90,0
0,69,0,41
0,54,0,8
0,73,0,4
0,39,0,8
0,77,0,24
0,77,0,0
0,65,0,0
0,41,0,2
0,62,0,8
0,62,0,0
0,68,0,1
0,69,40,24
0,54,32,0
0,73,56,0
0,72,58,0
0,63,82,0
0,43,83,0
0,79,67,0
0,79,67,0
0,67,67,0
0,63,82,0
0,54,0,42
0,69,0,5
0,73,0,7
0,79,0,11
0,79,0,0
0,67,0,0
0,63,0,4
0,63,0,0
0,43,0,19
0,72,0,6
0,69,106,26
0,54,116,0
0,74,80,0
0,67,100,0
0,60,96,0
0,48,83,0
0,75,102,0
0,75,102,0
0,63,102,0
0,60,96,0
0,69,0,40
0,54,0,11
0,48,0,31
0,69,55,38
0,54,41,0
0,74,0,24
0,69,0,15
0,67,0,0
0,54,0,6
0,60,0,36
0,60,0,0
0,75,0,13
0,75,0,0
0,63,0,0
0,39,106,26
0,69,102,0
0,54,112,0
0,73,69,0
0,63,90,0
0,55,88,0
0,48,84,0
0,72,79,0
0,72,79,0
0,60,79,0
0,55,88,0
0,69,0,36
0,54,0,12
0,73,0,10
0,39,0,7
0,48,0,13
0,55,0,5
0,55,0,0
0,63,0,23
0,72,0,13
0,72,0,0
0,60,0,0
0,69,48,1
0,54,35,0
0,73,55,0
0,73,0,12
0,54,0,27
0,69,0,8
0,69,106,73
0,54,114,0
0,74,83,0
0,69,0,38
0,54,0,16
0,69,56,66
0,54,35,0
0,65,104,0
0,56,98,0
0,41,82,0
0,77,83,0
0,77,83,0
0,65,83,0
0,56,98,0
0,69,0,35
0,74,0,4
0,54,0,9
0,77,0,10
0,77,0,0
0,65,0,0
0,56,0,13
0,56,0,0
0,41,0,2
0,65,0,10
0,39,102,37
0,69,106,0
0,54,114,0
0,73,73,0
0,65,84,0
0,56,88,0
0,41,84,0
0,77,78,0
0,77,78,0
0,65,78,0
0,56,88,0
0,69,0,37
0,73,0,23
0,39,0,4
0,54,0,8
0,77,0,1
0,77,0,0
0,65,0,0
0,56,0,4
0,41,0,0
0,56,0,0
0,65,0,8
0,69,48,35
0,54,34,0
0,73,53,0
0,67,100,0
0,55,102,0
0,43,88,0
0,74,114,0
0,74,114,0
0,62,114,0
0,55,102,0
0,54,0,41
0,69,0,1
0,73,0,22
0,74,0,10
0,74,0,0
0,62,0,0
0,55,0,1
0,55,0,0
0,67,0,4
0,43,0,2
0,69,102,39
0,54,114,0
0,74,83,0
0,69,0,38
0,54,0,25
0,69,43,57
0,54,31,0
0,65,24,0
0,67,102,0
0,55,88,0
0,43,98,0
0,71,98,0
0,71,98,0
0,59,98,0
0,55,88,0
0,74,0,10
0,69,0,31
0,65,0,0
0,54,0,14
0,55,0,20
0,55,0,0
0,43,0,7
0,71,0,7
0,71,0,0
0,59,0,0
0,67,0,11
0,39,108,20
0,69,102,0
0,54,110,0
0,65,36,0
0,73,76,0
0,69,0,35
0,65,0,4
0,39,0,20
0,73,0,0
0,54,0,5
0,69,61,56
0,54,32,0
0,65,48,0
0,73,57,0
0,69,0,38
0,65,0,9
0,54,0,15
0,73,0,6
0,69,104,52
0,54,112,0
0,65,100,0
0,74,84,0
0,69,0,37
0,65,0,1
0,54,0,26
0,69,53,56
0,54,30,0
0,65,118,0
0,74,110,0
0,59,116,0
0,47,108,0
0,79,119,0
0,79,119,0
0,67,119,0
0,59,116,0
0,74,0,22
0,39,112,26
0,69,104,0
0,54,112,0
0,65,112,0
0,73,78,0
0,65,0,29
0,39,0,13
0,69,0,9
0,54,0,21
0,73,0,1
0,69,100,47
0,54,62,0
0,73,64,0
0,54,0,32
0,69,0,11
0,73,0,23
0,69,106,54
0,49,119,0
0,35,112,0
0,42,83,0
0,67,98,0
0,60,99,0
0,63,103,0
0,79,100,0
0,79,100,0
0,63,98,0
0,60,106,0
0,42,0,30
0,35,0,0
0,69,0,18
0,49,0,2
0,42,75,10
0,60,0,18
0,63,0,2
0,79,0,1
0,79,0,0
0,60,0,13
0,63,0,2
0,67,0,0
0,42,0,21
0,69,40,3
0,46,73,0
0,69,0,29
0,46,0,77
0,69,104,14
0,35,112,0
0,42,78,0
0,67,96,0
0,60,93,0
0,63,92,0
0,79,100,0
0,79,100,0
0,63,92,0
0,60,94,0
0,42,0,28
0,35,0,4
0,69,0,12
0,42,84,16
0,79,0,25
0,79,0,0
0,60,0,3
0,63,0,2
0,60,0,2
0,63,0,11
0,67,0,3
0,42,0,3
0,69,32,11
0,46,78,0
0,69,0,55
0,46,0,41
0,69,96,24
0,35,106,0
0,42,80,0
0,42,0,33
0,35,0,0
0,69,0,15
0,42,58,12
0,42,0,59
0,69,38,1
0,46,80,0
0,65,102,0
0,60,104,0
0,68,110,0
0,80,98,0
0,80,98,0
0,65,98,0
0,60,96,0
0,69,0,43
0,80,0,40
0,80,0,0
0,65,0,3
0,65,0,3
0,60,0,0
0,60,0,2
0,68,0,6
0,46,0,21
0,69,106,2
0,35,100,0
0,42,83,0
0,35,0,32
0,42,0,1
0,69,0,18
0,42,62,9
0,69,41,60
0,46,82,0
0,62,110,0
0,67,118,0
0,59,114,0
0,79,100,0
0,79,100,0
0,62,102,0
0,59,110,0
0,42,0,4
0,69,0,39
0,79,0,31
0,79,0,0
0,59,0,4
0,67,0,5
0,62,0,4
0,62,0,4
0,59,0,3
0,46,0,14
0,69,102,12
0,35,112,0
0,42,83,0
0,42,0,30
0,35,0,0
0,69,0,13
0,42,75,17
0,42,0,57
0,69,31,3
0,46,73,0
0,62,112,0
0,59,118,0
0,67,120,0
0,79,100,0
0,79,100,0
0,62,96,0
0,59,100,0
0,69,0,36
0,79,0,34
0,79,0,0
0,62,0,6
0,62,0,2
0,59,0,2
0,59,0,6
0,67,0,5
0,46,0,15
0,69,104,14
0,35,112,0
0,42,78,0
0,42,0,28
0,35,0,4
0,69,0,9
0,42,84,19
0,42,0,49
0,69,48,11
0,46,78,0
0,74,88,0
0,74,88,0
0,59,94,0
0,55,90,0
0,69,0,44
0,59,0,27
0,55,0,1
0,74,0,15
0,74,0,0
0,46,0,9
0,69,106,24
0,35,106,0
0,42,80,0
0,65,112,0
0,62,112,0
0,59,118,0
0,77,82,0
0,77,82,0
0,62,92,0
0,59,98,0
0,42,0,33
0,35,0,0
0,69,0,11
0,42,58,16
0,42,0,59
0,69,45,1
0,46,80,0
0,62,0,1
0,59,0,5
0,65,0,9
0,69,0,28
0,77,0,32
0,77,0,0
0,62,0,28
0,59,0,3
0,46,0,12
0,69,102,2
0,35,100,0
0,42,83,0
0,62,102,0
0,59,110,0
0,67,116,0
0,80,98,0
0,80,98,0
0,65,83,0
0,62,94,0
0,35,0,32
0,42,0,1
0,69,0,8
0,42,62,19
0,59,0,55
0,62,0,3
0,69,40,2
0,46,82,0
0,42,0,4
0,67,0,11
0,69,0,32
0,80,0,32
0,80,0,0
0,62,0,0
0,65,0,9
0,46,0,20
0,69,106,12
0,35,112,0
0,42,83,0
0,63,100,0
0,60,102,0
0,67,114,0
0,79,102,0
0,79,102,0
0,63,96,0
0,60,92,0
0,42,0,30
0,35,0,0
0,69,0,10
0,42,75,20
0,79,0,8
0,79,0,0
0,60,0,8
0,63,0,6
0,67,0,4
0,63,0,1
0,60,0,6
0,42,0,24
0,69,55,3
0,46,73,0
0,69,0,39
0,46,0,67
0,69,102,14
0,35,112,0
0,42,78,0
0,63,103,0
0,60,106,0
0,67,116,0
0,79,102,0
0,79,102,0
0,63,94,0
0,60,88,0
0,42,0,28
0,35,0,4
0,69,0,4
0,42,84,24
0,79,0,18
0,79,0,0
0,63,0,9
0,60,0,0
0,60,0,9
0,67,0,4
0,63,0,1
0,42,0,8
0,69,48,11
0,46,78,0
0,69,0,47
0,46,0,49
0,69,106,24
0,35,106,0
0,42,80,0
0,42,0,33
0,35,0,0
0,69,0,5
0,42,58,22
0,42,0,59
0,69,56,1
0,46,80,0
0,65,108,0
0,60,110,0
0,68,108,0
0,80,100,0
0,80,100,0
0,65,102,0
0,60,100,0
0,69,0,35
0,65,0,38
0,65,0,8
0,68,0,1
0,60,0,0
0,60,0,4
0,80,0,13
0,80,0,0
0,46,0,19
0,69,106,2
