track,note,velocity,time
3,29,116,13068
3,29,0,188
3,32,116,4
3,32,0,188
3,36,116,4
3,36,0,92
3,48,114,4
3,48,0,92
3,36,114,4
3,36,0,92
3,48,118,4
3,48,0,92
3,29,118,4
3,29,0,92
3,41,116,4
3,41,0,92
3,29,120,4
3,29,0,92
3,31,118,4
3,31,0,188
3,43,114,4
3,43,0,92
3,31,116,4
3,31,0,92
3,43,118,4
3,43,0,92
3,29,122,4
3,29,0,188
3,32,118,4
3,32,0,188
3,36,120,4
3,36,0,92
3,48,112,4
3,48,0,92
3,36,118,4
3,36,0,92
3,48,116,4
3,48,0,92
3,32,114,4
3,32,0,92
3,44,114,4
3,44,0,92
3,32,116,4
3,32,0,92
3,31,114,4
3,31,0,188
3,43,114,4
3,43,0,92
3,31,120,4
3,31,0,92
3,43,118,4
3,43,0,92
3,31,120,4
3,31,0,92
3,29,118,4
3,29,0,92
3,32,116,4
3,32,0,92
3,34,116,4
3,34,0,92
3,36,114,4
3,36,0,134
3,36,114,58
3,36,0,74
3,27,114,22
3,27,0,164
3,29,114,28
3,29,0,88
3,32,114,8
3,32,0,84
3,31,118,12
3,31,0,148
3,31,114,44
3,31,0,98
3,31,118,94
3,31,0,86
3,29,118,10
3,29,0,48
3,29,116,48
3,29,0,84
3,31,118,12
3,31,0,62
3,31,104,34
3,31,0,68
3,24,120,28
3,24,0,122
3,24,116,70
3,24,0,36
3,24,112,60
3,24,0,68
3,27,114,28
3,27,0,80
3,31,112,16
3,31,0,76
3,32,112,20
3,32,0,80
3,31,114,16
3,31,0,132
3,31,116,60
3,31,0,82
3,31,118,110
3,31,0,88
3,29,118,8
3,29,0,48
3,29,116,48
3,29,0,84
3,31,118,12
3,31,0,110
3,36,114,82
3,36,0,134
3,36,114,58
3,36,0,74
3,27,114,22
3,27,0,164
3,29,114,28
3,29,0,88
3,32,114,8
3,32,0,84
3,31,118,12
3,31,0,148
3,31,114,44
3,31,0,98
3,31,118,94
3,31,0,86
3,29,118,10
3,29,0,48
3,29,116,48
3,29,0,84
3,31,118,12
3,31,0,62
3,31,104,34
3,31,0,68
3,24,120,28
3,24,0,122
3,24,116,70
3,24,0,36
3,24,112,60
3,24,0,68
3,27,114,28
3,27,0,80
3,31,112,16
3,31,0,76
3,32,112,20
3,32,0,80
3,31,114,16
3,31,0,84
3,31,116,108
3,31,0,82
3,31,118,110
3,31,0,88
3,29,118,8
3,29,0,48
3,29,116,48
3,29,0,84
3,31,118,12
3,31,0,110
3,36,118,82
3,36,0,106
3,36,122,86
3,36,0,124
3,29,118,68
3,29,0,98
3,29,116,94
3,29,0,88
3,31,118,8
3,31,0,128
3,31,120,64
3,31,0,88
3,31,122,104
3,31,0,60
3,29,118,36
3,29,0,188
3,31,112,4
3,31,0,188
3,36,116,4
3,36,0,120
3,36,118,72
3,36,0,140
3,29,124,52
3,29,0,104
3,29,120,88
3,29,0,88
3,31,116,8
3,31,0,126
3,31,116,66
3,31,0,94
3,31,118,98
3,31,0,84
3,29,118,12
3,29,0,188
3,31,112,4
3,31,0,188
3,36,118,4
3,36,0,106
3,36,122,86
3,36,0,124
3,29,118,68
3,29,0,98
3,29,116,94
3,29,0,88
3,31,118,8
3,31,0,128
3,31,120,64
3,31,0,88
3,31,122,104
3,31,0,60
3,29,118,36
3,29,0,180
3,31,112,12
3,31,0,130
3,36,116,62
3,36,0,120
3,36,118,72
3,36,0,188
3,29,124,4
3,29,0,104
3,29,120,88
3,29,0,88
3,31,116,8
3,31,0,126
3,31,116,66
3,31,0,94
3,31,118,98
3,31,0,84
3,29,118,12
3,29,0,168
3,31,112,24
3,31,0,138
3,36,114,54
3,36,0,134
3,36,114,58
3,36,0,74
3,27,114,22
3,27,0,164
3,29,114,28
3,29,0,88
3,32,114,8
3,32,0,84
3,31,118,12
3,31,0,148
3,31,114,44
3,31,0,98
3,31,118,94
3,31,0,86
3,29,118,10
3,29,0,48
3,29,116,48
3,29,0,84
3,31,118,12
3,31,0,62
3,31,104,34
3,31,0,68
3,24,120,28
3,24,0,122
3,24,116,70
3,24,0,36
3,24,112,60
3,24,0,68
3,27,114,28
3,27,0,80
3,31,112,16
3,31,0,76
3,32,112,20
3,32,0,80
3,31,114,16
3,31,0,132
3,31,116,60
3,31,0,82
3,31,118,110
3,31,0,88
3,29,118,8
3,29,0,48
3,29,116,48
3,29,0,84
3,31,118,12
3,31,0,110
3,36,114,82
3,36,0,134
3,36,114,58
3,36,0,74
3,27,114,22
3,27,0,164
3,29,114,28
3,29,0,88
3,32,114,8
3,32,0,84
3,31,118,12
3,31,0,148
3,31,114,44
3,31,0,98
3,31,118,94
3,31,0,86
3,29,118,10
3,29,0,48
3,29,116,48
3,29,0,84
3,31,118,12
3,31,0,62
3,31,104,34
3,31,0,68
3,31,118,1276
3,32,116,96
3,31,0,4
3,32,0,82
3,31,112,10
3,31,0,96
3,36,118,0
3,36,0,106
3,36,122,86
3,36,0,124
3,29,118,68
3,29,0,98
3,29,116,94
3,29,0,88
3,31,118,8
3,31,0,128
3,31,120,64
3,31,0,88
3,31,122,104
3,31,0,60
3,29,118,36
3,29,0,188
3,31,112,4
3,31,0,188
3,36,116,4
3,36,0,120
3,36,118,72
3,36,0,140
3,29,124,52
3,29,0,104
3,29,120,88
3,29,0,88
3,31,116,8
3,31,0,126
3,31,116,66
3,31,0,94
3,31,118,98
3,31,0,84
3,29,118,12
3,29,0,188
3,31,112,4
3,31,0,188
3,36,118,4
3,36,0,106
3,36,122,86
3,36,0,124
3,29,118,68
3,29,0,98
3,29,116,94
3,29,0,88
3,31,118,8
3,31,0,128
3,31,120,64
3,31,0,88
3,31,122,104
3,31,0,60
3,29,118,36
3,29,0,188
3,31,112,4
3,31,0,188
3,36,116,4
3,36,0,120
3,36,118,72
3,36,0,140
3,29,124,52
3,29,0,104
3,29,120,88
3,29,0,88
3,31,116,8
3,31,0,126
3,31,116,66
3,31,0,94
3,31,118,98
3,31,0,84
3,29,118,12
3,29,0,188
3,31,112,4
3,31,0,188
3,36,116,4
3,36,0,92
3,48,114,4
3,48,0,92
3,36,112,4
3,36,0,92
3,48,116,4
3,48,0,92
3,29,114,4
3,29,0,92
3,41,114,4
3,41,0,92
3,29,118,4
3,29,0,92
3,31,116,4
3,31,0,188
3,43,116,4
3,43,0,92
3,31,112,4
3,31,0,92
3,43,116,4
3,43,0,92
3,29,114,4
3,29,0,92
3,41,114,4
3,41,0,92
3,31,116,4
3,31,0,92
3,43,116,4
3,43,0,92
3,36,112,4
3,36,0,92
3,48,110,4
3,48,0,92
3,36,114,4
3,36,0,92
3,48,114,4
3,48,0,92
3,32,116,4
3,32,0,92
3,44,116,4
3,44,0,92
3,32,114,4
3,32,0,92
3,31,110,4
3,31,0,188
3,43,114,4
3,43,0,92
3,31,116,4
3,31,0,92
3,43,116,4
3,43,0,92
3,29,112,4
3,29,0,188
3,32,118,4
3,32,0,188
3,36,114,4
3,36,0,92
3,48,114,4
3,48,0,92
3,36,116,4
3,36,0,92
3,48,118,4
3,48,0,92
3,29,116,4
3,29,0,92
3,41,112,4
3,41,0,92
3,29,116,4
3,29,0,92
3,31,120,4
3,31,0,188
3,43,114,4
3,43,0,92
3,31,118,4
3,31,0,92
3,43,114,4
3,43,0,92
3,29,118,4
3,29,0,92
3,41,114,4
3,41,0,92
3,31,122,4
3,31,0,92
3,43,112,4
3,43,0,92
3,36,112,4
3,36,0,92
3,48,112,4
3,48,0,92
3,36,112,4
3,36,0,92
3,48,114,4
3,48,0,92
3,32,116,4
3,32,0,92
3,44,114,4
3,44,0,92
3,32,116,4
3,32,0,92
3,31,112,4
3,31,0,150
3,31,116,42
3,31,0,82
3,31,118,110
3,31,0,88
3,41,114,8
3,39,116,128
3,41,0,0
3,39,0,126
3,38,118,2
3,38,0,102
3,24,112,26
3,24,0,264
3,29,116,24
3,29,0,40
3,29,118,56
3,29,0,180
3,31,112,12
3,43,63,384
3,43,0,32
3,31,0,36
3,43,100,28
3,43,0,48
3,43,114,48
3,43,0,190
3,35,108,2
3,35,0,164
3,36,108,28
3,36,0,256
3,41,94,32
3,41,0,28
3,41,110,68
3,41,0,158
3,43,104,34
3,43,0,410
3,43,104,70
3,43,0,70
3,38,104,26
3,38,0,176
3,31,102,16
3,31,0,126
3,36,118,66
3,36,0,186
3,36,116,102
3,36,0,80
3,29,118,16
3,29,0,94
3,29,116,98
3,29,0,88
3,32,116,8
3,31,112,96
3,32,0,2
3,31,0,190
3,31,114,96
3,31,0,76
3,29,116,20
3,29,0,158
3,31,110,34
3,31,0,118
3,36,118,74
3,36,0,186
3,36,116,102
3,36,0,80
3,29,118,16
3,29,0,94
3,29,116,98
3,29,0,88
3,32,116,8
3,31,112,96
3,32,0,2
3,31,0,190
3,31,114,96
3,31,0,76
3,29,116,20
3,29,0,158
3,31,110,34
3,31,0,118
3,36,120,74
3,48,120,96
3,36,0,20
3,48,0,54
3,48,114,118
3,48,0,26
3,29,118,70
3,41,116,96
3,29,0,62
3,41,0,20
3,32,120,110
3,32,0,76
3,31,110,20
3,43,116,96
3,31,0,14
3,43,0,46
3,43,116,132
3,43,0,40
3,29,120,56
3,29,0,82
3,41,116,14
3,41,0,80
3,31,120,16
3,31,0,78
3,43,116,18
3,43,0,52
3,36,120,44
3,50,116,96
3,50,0,46
3,36,0,10
3,48,114,136
3,48,0,34
3,29,118,62
3,41,116,96
3,29,0,24
3,41,0,32
3,32,118,136
3,32,0,74
3,31,114,22
3,31,0,92
3,43,114,4
3,43,0,66
3,43,116,126
3,43,0,34
3,29,120,62
3,41,116,96
3,29,0,2
3,41,0,72
3,31,116,22
3,43,114,96
3,31,0,10
3,43,0,30
3,36,114,6200
3,36,0,134
3,36,114,58
3,36,0,74
3,27,114,22
3,27,0,164
3,29,114,28
3,29,0,88
3,32,114,8
3,32,0,84
3,31,118,12
3,31,0,148
3,31,114,44
3,31,0,98
3,31,118,94
3,31,0,86
3,29,118,10
3,29,0,48
3,29,116,48
3,29,0,84
3,31,118,12
3,31,0,62
3,31,104,34
3,31,0,68
3,24,120,28
3,24,0,122
3,24,116,70
3,24,0,36
3,24,112,60
3,24,0,68
3,27,114,28
3,27,0,80
3,31,112,16
3,31,0,76
3,32,112,20
3,32,0,80
3,31,114,16
3,31,0,84
3,31,116,108
3,31,0,82
3,31,118,110
3,31,0,88
3,29,118,8
3,29,0,48
3,29,116,48
3,29,0,84
3,31,118,12
3,31,0,110
3,36,114,82
3,36,0,134
3,36,114,58
3,36,0,74
3,27,114,22
3,27,0,164
3,29,114,28
3,29,0,88
3,32,114,8
3,32,0,84
3,31,118,12
3,31,0,148
3,31,114,44
3,31,0,98
3,31,118,94
3,31,0,86
3,29,118,10
3,29,0,48
3,29,116,48
3,29,0,84
3,31,118,12
3,31,0,62
3,31,104,34
3,31,0,68
3,24,120,28
3,24,0,122
3,24,116,70
3,24,0,36
3,24,112,60
3,24,0,68
3,27,114,28
3,27,0,80
3,31,112,16
3,31,0,76
3,32,112,20
3,32,0,80
3,31,114,16
3,31,0,84
3,31,116,108
3,31,0,82
3,31,118,110
3,31,0,88
3,29,118,8
3,29,0,48
3,29,116,48
3,29,0,84
3,31,118,12
3,31,0,110
3,36,118,82
3,36,0,106
3,36,122,86
3,36,0,124
3,29,118,68
3,29,0,98
3,29,116,94
3,29,0,88
3,31,118,8
3,31,0,128
3,31,120,64
3,31,0,88
3,31,122,104
3,31,0,60
3,29,118,36
3,29,0,188
3,31,112,4
3,31,0,188
3,36,116,4
3,36,0,120
3,36,118,72
3,36,0,140
3,29,124,52
3,29,0,104
3,29,120,88
3,29,0,88
3,31,116,8
3,31,0,126
3,31,116,66
3,31,0,94
3,31,118,98
3,31,0,84
3,29,118,12
3,29,0,188
3,31,112,4
3,31,0,188
3,36,118,4
3,36,0,106
3,36,122,86
3,36,0,124
3,29,118,68
3,29,0,98
3,29,116,94
3,29,0,88
3,31,118,8
3,31,0,128
3,31,120,64
3,31,0,88
3,31,122,104
3,31,0,60
3,29,118,36
3,29,0,188
3,31,112,4
3,31,0,188
3,36,116,4
3,36,0,120
3,36,118,72
3,36,0,140
3,29,124,52
3,29,0,104
3,29,120,88
3,29,0,88
3,31,116,8
3,31,0,126
3,31,116,66
3,31,0,94
3,31,118,98
3,31,0,84
3,29,118,12
3,29,0,188
3,31,112,4
3,31,0,188
3,36,116,4
3,36,0,92
3,48,114,4
3,48,0,92
3,36,112,4
3,36,0,92
3,48,116,4
3,48,0,92
3,29,114,4
3,29,0,92
3,41,114,4
3,41,0,92
3,29,118,4
3,29,0,92
3,31,116,4
3,31,0,188
3,43,116,4
3,43,0,92
3,31,112,4
3,31,0,92
3,43,116,4
3,43,0,92
3,29,114,4
3,29,0,92
3,41,114,4
3,41,0,92
3,31,116,4
3,31,0,92
3,43,116,4
3,43,0,92
3,36,112,4
3,36,0,92
3,48,110,4
3,48,0,92
3,36,114,4
3,36,0,92
3,48,114,4
3,48,0,92
3,32,116,4
3,32,0,92
3,44,116,4
3,44,0,92
3,32,114,4
3,32,0,92
3,31,110,4
3,31,0,188
3,43,114,4
3,43,0,92
3,31,116,4
3,31,0,92
3,43,116,4
3,43,0,92
3,29,112,4
3,29,0,188
3,32,118,4
3,32,0,188
3,36,114,4
3,36,0,92
3,48,114,4
3,48,0,92
3,36,116,4
3,36,0,92
3,48,118,4
3,48,0,92
3,29,116,4
3,29,0,92
3,41,112,4
3,41,0,92
3,29,116,4
3,29,0,92
3,31,120,4
3,31,0,188
3,43,114,4
3,43,0,92
3,31,118,4
3,31,0,92
3,43,114,4
3,43,0,92
3,29,118,4
3,29,0,92
3,41,114,4
3,41,0,92
3,31,122,4
3,31,0,92
3,43,112,4
3,43,0,92
3,36,112,4
3,36,0,92
3,48,112,4
3,48,0,92
3,36,112,4
3,36,0,92
3,48,114,4
3,48,0,92
3,32,116,4
3,32,0,92
3,44,114,4
3,44,0,92
3,32,116,4
3,32,0,92
3,31,112,4
3,41,120,192
3,31,0,6
3,41,108,2
3,39,116,88
3,41,0,0
3,39,0,176
3,38,114,16
3,34,118,96
3,38,0,3
3,34,0,84
3,31,114,9
3,31,0,86
3,36,118,10
3,36,0,126
3,48,114,12066
3,48,0,92
3,36,116,4
3,36,0,92
3,48,114,4
3,48,0,92
3,36,112,4
3,36,0,92
3,48,116,4
3,48,0,92
3,29,114,4
3,29,0,92
3,41,114,4
3,41,0,92
3,29,118,4
3,29,0,92
3,31,116,4
3,31,0,188
3,43,116,4
3,43,0,92
3,31,112,4
3,31,0,92
3,43,116,4
3,43,0,92
3,29,114,4
3,29,0,92
3,41,114,4
3,41,0,92
3,31,116,4
3,31,0,92
3,43,116,4
3,43,0,92
3,36,112,4
3,36,0,92
3,48,110,4
3,48,0,92
3,36,114,4
3,36,0,92
3,48,114,4
3,48,0,92
3,32,116,4
3,32,0,92
3,44,116,4
3,44,0,92
3,32,114,4
3,32,0,92
3,31,110,4
3,31,0,188
3,43,114,4
3,43,0,92
3,31,116,4
3,31,0,92
3,43,116,4
3,43,0,92
3,29,112,4
3,29,0,188
3,32,118,4
3,32,0,188
3,36,114,4
3,36,0,92
3,48,114,4
3,48,0,92
3,36,116,4
3,36,0,92
3,48,118,4
3,48,0,92
3,29,116,4
3,29,0,92
3,41,112,4
3,41,0,92
3,29,116,4
3,29,0,92
3,31,120,4
3,31,0,188
3,43,114,4
3,43,0,92
3,31,118,4
3,31,0,92
3,43,114,4
3,43,0,92
3,29,118,4
3,29,0,92
3,41,114,4
3,41,0,92
3,31,122,4
3,31,0,92
3,43,112,4
3,43,0,92
3,36,116,4
3,36,0,92
3,48,114,4
3,48,0,92
3,36,112,4
3,36,0,92
3,48,116,4
3,48,0,92
3,29,114,4
3,29,0,92
3,41,114,4
3,41,0,92
3,29,118,4
3,29,0,92
3,31,116,4
3,31,0,188
3,41,114,292
3,39,116,128
3,41,0,0
3,39,0,126
3,38,118,2
