track,note,velocity,time
0,42,90,16
0,42,0,15
0,42,90,177
0,42,0,14
0,41,77,178
0,64,33,0
0,60,33,0
0,57,33,0
0,53,33,0
0,42,66,0
0,42,0,0
0,35,66,0
0,35,0,0
0,72,79,1
0,72,0,39
0,42,66,56
0,42,0,0
0,72,79,1
0,72,0,37
0,72,79,57
0,72,77,1
0,76,77,0
0,65,77,0
0,42,66,0
0,42,0,0
0,54,66,0
0,54,0,0
0,69,77,1
0,40,66,2
0,40,0,0
0,72,0,35
0,69,0,21
0,76,0,2
0,72,0,0
0,65,0,2
0,41,0,8
0,72,79,24
0,42,66,1
0,42,0,0
0,72,0,32
0,41,77,16
0,69,79,0
0,35,66,7
0,35,0,0
0,41,0,31
0,64,0,9
0,57,0,0
0,53,0,0
0,60,0,0
0,69,0,1
0,40,77,0
0,72,79,0
0,62,33,0
0,59,33,0
0,55,33,0
0,52,33,0
0,35,66,0
0,35,0,0
0,42,66,0
0,42,0,0
0,72,0,45
0,40,0,36
0,72,79,15
0,42,66,0
0,42,0,0
0,35,66,0
0,35,0,0
0,72,0,33
0,69,79,15
0,69,0,48
0,72,79,0
0,71,77,0
0,67,77,0
0,74,77,0
0,64,77,0
0,54,66,0
0,54,0,0
0,42,66,0
0,42,0,0
0,40,66,3
0,40,0,0
0,72,0,30
0,67,0,29
0,64,0,4
0,74,0,1
0,71,0,0
0,76,79,29
0,42,66,0
0,42,0,0
0,40,77,48
0,40,0,38
0,62,0,9
0,55,0,0
0,59,0,0
0,52,0,0
0,33,77,1
0,55,33,0
0,64,33,0
0,57,33,0
0,60,33,0
0,72,77,0
0,76,77,0
0,79,77,0
0,69,77,0
0,42,66,0
0,42,0,0
0,35,66,0
0,35,0,0
0,76,0,2
0,42,66,1
0,42,0,0
0,69,79,0
0,42,66,95
0,42,0,0
0,54,66,0
0,54,0,0
0,40,66,3
0,40,0,0
0,69,0,12
0,76,0,37
0,69,0,0
0,79,0,0
0,72,0,0
0,33,0,41
0,42,66,3
0,42,0,0
0,67,80,49
0,35,66,6
0,35,0,0
0,67,0,11
0,57,0,29
0,64,0,0
0,60,0,0
0,55,0,0
0,38,77,1
0,77,79,0
0,62,33,0
0,57,33,0
0,53,33,0
0,69,77,0
0,42,66,0
0,42,0,0
0,35,66,0
0,35,0,0
0,77,0,68
0,69,0,28
0,67,77,0
0,35,66,0
0,35,0,0
0,42,66,0
0,42,0,0
0,76,79,1
0,76,0,52
0,38,0,43
0,67,0,0
0,38,77,0
0,69,77,0
0,54,66,0
0,54,0,0
0,42,66,0
0,42,0,0
0,74,80,1
0,40,66,2
0,40,0,0
0,38,0,29
0,38,77,16
0,74,0,1
0,38,0,32
0,69,0,15
0,40,77,0
0,67,77,0
0,42,66,0
0,42,0,0
0,72,80,1
0,40,0,88
0,62,0,6
0,57,0,0
0,53,0,0
0,67,0,1
0,31,77,0
0,59,33,0
0,62,33,0
0,55,33,0
0,67,33,0
0,55,66,0
0,62,77,0
0,59,77,0
0,67,77,0
0,46,78,0
0,46,0,0
0,40,66,0
0,40,0,0
0,62,66,94
0,76,66,1
0,59,0,1
0,62,0,0
0,67,0,0
0,35,66,0
0,35,0,0
0,42,66,0
0,42,0,0
0,31,0,1
0,76,0,2
0,74,66,0
0,35,66,1
0,35,0,0
0,74,0,1
0,76,66,10
0,31,77,1
0,69,77,0
0,40,66,0
0,40,0,0
0,46,79,0
0,46,0,0
0,69,66,1
0,69,0,9
0,76,0,5
0,69,0,1
0,67,77,0
0,35,66,0
0,35,0,0
0,42,66,0
0,42,0,0
0,72,66,2
0,67,66,1
0,31,0,1
0,31,77,3
0,35,66,1
0,35,0,0
0,31,0,15
0,67,0,1
0,55,0,6
0,62,0,6
0,67,0,13
0,31,77,0
0,79,66,0
0,74,66,0
0,71,66,0
0,67,66,0
0,46,81,0
0,46,0,0
0,40,66,0
0,40,0,0
0,55,66,2
0,72,0,1
0,72,0,46
0,40,66,42
0,40,0,0
0,76,66,4
0,62,66,0
0,69,80,1
0,42,66,0
0,42,0,0
0,40,66,0
0,40,0,0
0,69,0,27
0,67,79,20
0,76,0,1
0,72,66,2
0,67,0,24
0,69,66,19
0,69,79,1
0,76,77,2
0,42,66,0
0,42,0,0
0,76,66,2
0,40,66,1
0,40,0,0
0,72,0,4
0,69,0,27
0,40,66,14
0,40,0,0
0,67,81,1
0,69,0,29
0,76,0,5
0,67,66,10
0,72,66,1
0,76,0,2
0,72,77,0
0,42,66,0
0,42,0,0
0,40,66,0
0,40,0,0
0,40,66,48
0,40,0,0
0,31,0,1
0,72,0,3
0,67,0,14
0,79,0,5
0,67,0,0
0,74,0,0
0,71,0,0
0,55,0,2
0,62,0,1
0,67,0,11
0,55,0,11
0,59,0,0
0,67,0,0
0,62,0,0
0,72,0,0
0,64,99,0
0,49,66,0
0,49,0,0
0,35,117,0
0,35,0,0
0,42,88,0
0,42,0,0
0,28,99,1
0,64,66,0
0,69,66,3
0,69,0,0
0,64,0,61
0,81,77,30
0,72,99,0
0,42,88,1
0,42,0,0
0,69,66,2
0,69,0,0
0,28,0,10
0,82,66,38
0,82,0,0
0,81,0,4
0,72,0,13
0,64,99,28
0,54,77,1
0,54,0,0
0,42,88,0
0,42,0,0
0,79,77,1
0,37,114,2
0,37,0,0
0,79,0,44
0,42,88,1
0,42,0,0
0,64,0,36
0,64,0,4
0,42,88,8
0,42,0,0
0,59,66,1
0,28,99,46
0,42,88,1
0,42,0,0
0,35,99,5
0,35,0,0
0,28,0,15
0,69,66,27
0,69,0,0
0,28,99,1
0,42,88,0
0,42,0,0
0,35,116,0
0,35,0,0
0,59,0,93
0,42,88,3
0,42,0,0
0,81,77,1
0,64,67,0
0,69,66,1
0,69,0,0
0,28,0,8
0,81,0,17
0,82,66,19
0,82,0,0
0,54,77,50
0,54,0,0
0,42,88,0
0,42,0,0
0,79,77,1
0,37,114,2
0,37,0,0
0,79,0,40
0,42,88,5
0,42,0,0
0,64,0,13
0,67,68,4
0,67,66,0
0,64,66,0
0,42,88,0
0,42,0,0
0,28,99,14
0,42,88,1
0,42,0,0
0,35,99,4
0,35,0,0
0,28,0,19
0,64,0,2
0,67,0,0
0,67,0,0
0,67,68,2
0,67,66,0
0,33,99,1
0,64,66,0
0,42,88,0
0,42,0,0
0,35,117,0
0,35,0,0
0,52,99,0
0,69,66,2
0,69,0,0
0,52,0,9
0,52,99,11
0,52,0,27
0,67,0,3
0,33,0,20
0,52,99,0
0,64,70,1
0,42,88,0
0,42,0,0
0,69,66,2
0,69,0,0
0,52,0,48
0,82,66,0
0,82,0,0
0,64,0,29
0,67,0,0
0,64,0,1
0,52,99,15
0,57,70,1
0,54,77,0
0,54,0,0
0,42,88,0
0,42,0,0
0,79,77,1
0,37,114,2
0,37,0,0
0,79,0,36
0,42,88,9
0,42,0,0
0,81,77,1
0,52,0,19
0,81,0,9
0,84,77,18
0,67,66,1
0,64,66,0
0,42,88,0
0,42,0,0
0,84,0,31
0,81,77,17
0,42,88,0
0,42,0,0
0,35,99,5
0,35,0,0
0,81,0,25
0,64,0,7
0,67,0,0
0,64,99,9
0,69,66,1
0,69,0,0
0,24,99,1
0,84,77,0
0,60,67,0
0,42,88,0
0,42,0,0
0,49,66,0
0,49,0,0
0,35,116,0
0,35,0,0
0,57,0,21
0,64,0,42
0,24,0,25
0,72,99,5
0,42,88,3
0,42,0,0
0,81,77,2
0,69,66,0
0,69,0,0
0,84,0,20
0,81,0,9
0,82,66,15
0,82,0,0
0,72,0,19
0,60,0,19
0,64,99,9
0,26,99,3
0,60,67,0
0,42,88,0
0,42,0,0
0,35,99,0
0,35,0,0
0,57,66,0
0,57,0,0
0,79,77,2
0,79,0,33
0,42,88,13
0,42,0,0
0,64,0,38
0,26,0,0
0,72,99,10
0,42,88,0
0,42,0,0
0,42,88,48
0,42,0,0
0,72,0,20
0,60,0,27
0,64,99,1
0,35,117,0
0,35,0,0
0,42,88,0
0,42,0,0
0,49,66,0
0,49,0,0
0,52,99,0
0,28,99,1
0,64,66,0
0,69,66,3
0,69,0,0
0,52,0,10
0,52,99,31
0,64,0,20
0,52,0,7
0,81,77,23
0,72,99,0
0,52,99,0
0,42,88,1
0,42,0,0
0,69,66,2
0,69,0,0
0,28,0,10
0,52,0,38
0,82,66,0
0,82,0,0
0,81,0,4
0,72,0,13
0,64,99,28
0,52,99,0
0,54,77,1
0,54,0,0
0,42,88,0
0,42,0,0
0,79,77,1
0,37,114,2
0,37,0,0
0,79,0,44
0,42,88,1
0,42,0,0
0,52,0,20
0,64,0,16
0,64,0,4
0,42,88,8
0,42,0,0
0,59,66,1
0,28,99,46
0,42,88,1
0,42,0,0
0,35,99,5
0,35,0,0
0,28,0,15
0,69,66,27
0,69,0,0
0,28,99,1
0,35,116,0
0,35,0,0
0,42,88,0
0,42,0,0
0,59,0,93
0,42,88,3
0,42,0,0
0,81,77,1
0,64,67,0
0,69,66,1
0,69,0,0
0,28,0,8
0,81,0,17
0,82,66,19
0,82,0,0
0,42,88,50
0,42,0,0
0,54,77,0
0,54,0,0
0,79,77,1
0,37,114,2
0,37,0,0
0,79,0,40
0,42,88,5
0,42,0,0
0,64,0,13
0,67,68,4
0,67,66,0
0,64,66,0
0,42,88,0
0,42,0,0
0,28,99,14
0,42,88,1
0,42,0,0
0,35,99,4
0,35,0,0
0,28,0,19
0,64,0,2
0,67,0,0
0,67,0,0
0,67,68,2
0,67,66,0
0,33,99,1
0,64,66,0
0,42,88,0
0,42,0,0
0,35,117,0
0,35,0,0
0,52,99,0
0,69,66,2
0,69,0,0
0,52,0,9
0,52,99,11
0,52,0,27
0,67,0,3
0,33,0,20
0,52,99,0
0,64,70,1
0,42,88,0
0,42,0,0
0,69,66,2
0,69,0,0
0,52,0,48
0,82,66,0
0,82,0,0
0,64,0,29
0,67,0,0
0,64,0,1
0,52,99,15
0,45,99,1
0,57,70,0
0,42,88,0
0,42,0,0
0,54,77,0
0,54,0,0
0,79,77,1
0,37,114,2
0,37,0,0
0,79,0,36
0,42,88,9
0,42,0,0
0,81,77,1
0,52,0,19
0,81,0,9
0,84,77,18
0,64,66,1
0,67,66,0
0,42,88,0
0,42,0,0
0,84,0,31
0,81,77,17
0,42,88,0
0,42,0,0
0,35,99,5
0,35,0,0
0,81,0,25
0,67,0,7
0,64,0,0
0,45,0,7
0,69,66,3
0,69,0,0
0,24,99,1
0,89,77,0
0,60,67,0
0,35,116,0
0,35,0,0
0,42,88,0
0,42,0,0
0,49,66,0
0,49,0,0
0,57,0,21
0,88,77,75
0,42,88,0
0,42,0,0
0,69,66,2
0,69,0,0
0,89,0,20
0,88,0,7
0,82,66,17
0,82,0,0
0,60,0,38
0,24,0,8
0,26,99,4
0,84,77,0
0,60,67,0
0,35,99,0
0,35,0,0
0,42,88,0
0,42,0,0
0,57,66,0
0,57,0,0
0,84,0,33
0,42,88,15
0,42,0,0
0,42,88,48
0,42,0,0
0,42,88,48
0,42,0,0
0,26,0,42
0,60,0,5
0,64,99,1
0,49,66,0
0,49,0,0
0,42,88,0
0,42,0,0
0,35,117,0
0,35,0,0
0,52,99,0
0,28,99,1
0,64,66,0
0,69,66,3
0,69,0,0
0,52,0,10
0,52,99,31
0,64,0,20
0,52,0,7
0,81,77,23
0,72,99,0
0,52,99,0
0,42,88,1
0,42,0,0
0,69,66,2
0,69,0,0
0,28,0,10
0,52,0,38
0,82,66,0
0,82,0,0
0,81,0,4
0,72,0,13
0,64,99,28
0,52,99,0
0,42,88,1
0,42,0,0
0,54,77,0
0,54,0,0
0,79,77,1
0,37,114,2
0,37,0,0
0,79,0,44
0,42,88,1
0,42,0,0
0,52,0,20
0,64,0,16
0,64,0,4
0,42,88,8
0,42,0,0
0,59,66,1
0,28,99,46
0,42,88,1
0,42,0,0
0,35,99,5
0,35,0,0
0,28,0,15
0,69,66,27
0,69,0,0
0,28,99,1
0,42,88,0
0,42,0,0
0,35,116,0
0,35,0,0
0,59,0,93
0,42,88,3
0,42,0,0
0,81,77,1
0,64,67,0
0,69,66,1
0,69,0,0
0,28,0,8
0,81,0,17
0,82,66,19
0,82,0,0
0,42,88,50
0,42,0,0
0,54,77,0
0,54,0,0
0,79,77,1
0,37,114,2
0,37,0,0
0,79,0,40
0,42,88,5
0,42,0,0
0,64,0,13
0,67,68,4
0,67,66,0
0,64,66,0
0,42,88,0
0,42,0,0
0,28,99,14
0,42,88,1
0,42,0,0
0,35,99,4
0,35,0,0
0,28,0,19
0,64,0,2
0,67,0,0
0,67,0,0
0,67,68,2
0,67,66,0
0,33,99,1
0,64,66,0
0,35,117,0
0,35,0,0
0,42,88,0
0,42,0,0
0,52,99,0
0,69,66,2
0,69,0,0
0,52,0,9
0,52,99,11
0,52,0,27
0,67,0,3
0,33,0,20
0,52,99,0
0,64,70,1
0,42,88,0
0,42,0,0
0,69,66,2
0,69,0,0
0,52,0,48
0,82,66,0
0,82,0,0
0,64,0,29
0,67,0,0
0,64,0,1
0,52,99,15
0,57,70,1
0,54,77,0
0,54,0,0
0,42,88,0
0,42,0,0
0,79,77,1
0,37,114,2
0,37,0,0
0,79,0,36
0,42,88,9
0,42,0,0
0,81,77,1
0,52,0,19
0,81,0,9
0,84,77,18
0,64,66,1
0,67,66,0
0,42,88,0
0,42,0,0
0,84,0,31
0,81,77,17
0,42,88,0
0,42,0,0
0,35,99,5
0,35,0,0
0,81,0,25
0,67,0,7
0,64,0,0
0,64,99,9
0,69,66,1
0,69,0,0
0,24,99,1
0,84,77,0
0,60,67,0
0,49,66,0
0,49,0,0
0,35,116,0
0,35,0,0
0,42,88,0
0,42,0,0
0,57,0,21
0,64,0,42
0,24,0,25
0,72,99,5
0,42,88,3
0,42,0,0
0,81,77,2
0,69,66,0
0,69,0,0
0,84,0,20
0,81,0,9
0,82,66,15
0,82,0,0
0,72,0,19
0,60,0,19
0,64,99,9
0,26,99,3
0,60,67,0
0,35,99,0
0,35,0,0
0,42,88,0
0,42,0,0
0,57,66,0
0,57,0,0
0,79,77,2
0,79,0,33
0,42,88,13
0,42,0,0
0,64,0,38
0,26,0,0
0,72,99,10
0,42,88,0
0,42,0,0
0,42,88,48
0,42,0,0
0,72,0,20
0,60,0,27
0,64,99,1
0,42,88,0
0,42,0,0
0,35,117,0
0,35,0,0
0,49,66,0
0,49,0,0
0,52,99,0
0,28,99,1
0,64,66,0
0,69,66,3
0,69,0,0
0,52,0,10
0,52,99,31
0,64,0,20
0,52,0,7
0,81,77,23
0,72,99,0
0,52,99,0
0,42,88,1
0,42,0,0
0,69,66,2
0,69,0,0
0,28,0,10
0,52,0,38
0,82,66,0
0,82,0,0
0,81,0,4
0,72,0,13
0,64,99,28
0,52,99,0
0,42,88,1
0,42,0,0
0,54,77,0
0,54,0,0
0,79,77,1
0,37,114,2
0,37,0,0
0,79,0,44
0,42,88,1
0,42,0,0
0,52,0,20
0,64,0,16
0,64,0,4
0,42,88,8
0,42,0,0
0,59,66,1
0,28,99,46
0,42,88,1
0,42,0,0
0,35,99,5
0,35,0,0
0,28,0,15
0,69,66,27
0,69,0,0
0,28,99,1
0,42,88,0
0,42,0,0
0,35,116,0
0,35,0,0
0,59,0,93
0,42,88,3
0,42,0,0
0,81,77,1
0,64,67,0
0,69,66,1
0,69,0,0
0,28,0,8
0,81,0,17
0,82,66,19
0,82,0,0
0,54,77,50
0,54,0,0
0,42,88,0
0,42,0,0
0,79,77,1
0,37,114,2
0,37,0,0
0,79,0,40
0,42,88,5
0,42,0,0
0,64,0,13
0,67,68,4
0,67,66,0
0,64,66,0
0,42,88,0
0,42,0,0
0,28,99,14
0,42,88,1
0,42,0,0
0,35,99,4
0,35,0,0
0,28,0,19
0,64,0,2
0,67,0,0
0,67,0,0
0,67,68,2
0,67,66,0
0,33,99,1
0,64,66,0
0,35,117,0
0,35,0,0
0,42,88,0
0,42,0,0
0,69,66,2
0,69,0,0
0,67,0,41
0,33,0,20
