track,note,velocity,time
1,84,86,41664
1,79,86,0
1,81,86,0
1,86,86,0
1,79,86,0
1,84,86,0
1,86,86,192
1,81,86,0
1,84,86,174
1,79,86,0
1,81,86,0
1,86,86,0
1,79,86,0
1,84,86,0
1,86,86,0
1,81,86,0
1,65,86,192
1,67,86,336
1,69,86,8
1,71,86,0
1,72,86,8
1,74,86,8
1,70,86,336
1,72,87,184
1,67,86,192
1,69,86,0
1,70,86,0
1,72,86,192
1,71,86,0
1,70,86,8
1,69,86,16
1,60,85,192
1,67,85,576
1,74,85,576
1,62,87,918
1,69,85,120
1,77,85,576
1,60,85,192
1,67,85,576
1,74,85,576
1,62,87,952
1,69,85,120
1,77,85,576
1,86,87,188
1,84,87,44
1,86,87,36
1,84,87,44
1,86,87,44
1,84,87,52
1,86,82,48
1,88,86,48
1,84,86,288
1,86,86,12
1,88,86,44
1,84,86,288
1,86,86,36
1,88,86,288
1,84,86,88
1,86,86,170
1,86,86,128
1,88,86,0
1,89,86,0
1,88,86,8
1,86,86,16
1,82,86,192
1,86,86,16
1,81,86,0
1,86,87,1344
1,84,87,44
1,86,87,36
1,84,87,44
1,86,87,44
1,84,87,52
1,86,86,48
1,88,86,0
1,84,86,40
1,86,86,0
1,88,86,0
1,91,86,8
1,89,86,0
1,88,86,24
1,86,86,0
1,86,86,0
1,88,86,0
1,89,86,0
1,88,86,0
1,86,86,0
1,86,86,24
1,89,86,582
1,88,86,0
1,89,86,768
1,86,86,8
1,88,86,0
1,65,86,186
1,67,86,336
1,69,86,8
1,71,86,0
1,72,86,8
1,74,86,8
1,70,86,336
1,72,87,184
1,67,86,192
1,69,86,0
1,70,86,0
1,72,86,192
1,71,86,0
1,70,86,8
1,69,86,16
1,72,86,288
1,74,82,192
1,76,86,48
1,72,86,288
1,74,86,12
1,76,86,44
1,72,86,288
1,74,86,36
1,76,86,8
1,72,86,192
1,74,86,178
1,74,86,128
1,76,86,0
1,77,86,0
1,76,86,8
1,74,86,16
1,70,86,192
1,74,86,16
1,69,86,0
1,74,86,1536
1,72,86,96
1,74,86,96
1,76,86,0
1,72,86,40
1,74,86,0
1,76,86,0
1,79,86,8
1,77,86,0
1,76,86,24
1,74,86,0
1,74,86,0
1,74,86,64
1,76,86,0
1,77,86,0
1,76,86,0
1,74,86,0
1,74,86,24
1,77,86,582
1,76,86,0
1,77,86,376
1,74,86,16
1,69,24,0
1,72,87,176
1,72,87,96
1,74,87,96
1,76,87,48
1,72,86,288
1,74,86,12
1,76,86,44
1,72,86,288
1,74,86,36
1,76,86,8
1,72,86,192
1,74,86,178
1,74,86,128
1,76,86,0
1,77,86,0
1,76,86,8
1,74,86,16
1,70,86,192
1,74,86,16
1,69,86,0
1,74,86,1536
1,72,86,96
1,74,86,96
1,76,86,0
1,72,86,40
1,74,86,0
1,76,86,0
1,79,86,8
1,77,86,0
1,76,86,24
1,74,86,0
1,74,86,0
1,74,86,64
1,76,86,0
1,77,86,0
1,76,86,0
1,74,86,0
1,74,86,24
1,77,86,582
1,76,86,0
1,77,86,376
1,74,86,0
2,38,127,960
2,38,127,384
2,38,127,96
2,38,127,96
2,38,127,384
2,38,127,96
2,38,127,96
2,38,127,384
2,38,127,96
2,38,127,96
2,38,127,168
2,38,127,96
2,38,127,96
2,38,127,384
2,38,127,96
2,38,127,96
2,38,127,384
2,38,127,96
2,38,127,96
2,38,127,384
2,38,127,96
2,38,127,96
2,38,127,384
2,46,127,0
2,38,127,64
2,36,127,64
2,38,127,64
2,41,127,96
2,38,127,64
2,38,127,80
2,38,127,96
2,38,127,96
2,38,127,384
2,38,127,96
2,38,127,96
2,38,127,384
2,38,127,96
2,38,127,96
2,38,127,384
2,38,127,96
2,38,127,96
2,36,127,112
2,38,127,64
2,36,127,16
2,38,127,64
2,36,127,64
2,38,127,64
2,36,127,64
2,38,127,64
2,38,127,160
2,38,127,96
2,38,127,96
2,38,127,384
2,38,127,96
2,38,127,96
2,38,127,384
2,38,127,96
2,38,127,96
2,38,127,384
2,38,127,96
2,38,127,96
2,38,127,384
2,46,127,0
2,38,127,64
2,36,127,64
2,38,127,64
2,41,127,16
2,38,127,64
2,38,127,272
2,38,127,96
2,38,127,96
2,38,127,384
2,38,127,96
2,38,127,96
2,38,127,384
2,38,127,96
2,38,127,96
2,38,127,384
2,38,127,96
2,38,127,96
2,36,127,112
2,38,127,64
2,36,127,16
2,38,127,64
2,36,127,64
2,38,127,64
2,36,127,64
2,38,127,64
2,51,127,576
2,52,127,0
2,48,127,0
2,43,127,0
2,55,127,0
2,52,127,0
2,48,127,0
2,38,127,0
2,52,127,0
2,53,127,0
2,50,127,0
2,45,127,0
2,57,127,0
2,53,127,0
2,50,127,0
2,36,127,0
2,51,127,1344
2,52,127,0
2,48,127,0
2,43,127,0
2,55,127,0
2,52,127,0
2,48,127,0
2,38,127,0
2,52,127,0
2,53,127,0
2,50,127,0
2,45,127,0
2,57,127,0
2,53,127,0
2,50,127,0
2,36,127,2
2,31,127,70
2,36,127,24
2,36,127,40
2,35,127,48
2,36,127,48
2,37,127,48
2,38,127,48
2,33,127,24
2,38,127,56
2,41,127,24
2,38,127,40
2,36,127,32
2,34,127,32
2,46,127,0
2,34,127,104
2,34,127,192
2,34,127,48
2,36,127,32
2,38,127,32
2,33,127,384
2,38,127,32
2,33,127,384
2,36,127,0
2,37,127,0
2,38,127,0
2,41,127,40
2,38,127,16
2,41,127,16
2,40,127,0
2,38,127,0
2,36,127,2
2,31,127,70
2,36,127,24
2,36,127,40
2,35,127,48
2,36,127,48
2,37,127,48
2,38,127,48
2,33,127,24
2,38,127,56
2,41,127,24
2,38,127,40
2,36,127,32
2,34,127,32
2,46,127,0
2,34,127,104
2,34,127,192
2,34,127,48
2,36,127,0
2,38,127,192
2,38,127,96
2,38,127,96
2,33,127,576
2,36,127,48
2,38,127,72
2,38,127,88
2,41,127,96
2,40,127,32
2,38,127,32
2,43,127,30
2,41,127,64
2,40,127,64
2,38,127,64
2,38,127,96
2,38,127,96
2,33,127,576
2,36,127,70
2,38,127,88
2,38,127,144
2,38,127,32
2,33,127,224
2,36,127,64
2,37,127,64
2,38,127,64
2,41,127,96
2,38,127,96
2,33,127,0
2,36,127,64
2,37,127,64
2,38,127,64
2,40,127,32
2,41,127,32
2,43,127,64
2,41,127,256
2,40,127,64
2,38,127,64
2,38,127,64
2,33,127,96
2,38,127,96
2,33,127,56
2,36,127,64
2,37,127,64
2,38,127,64
2,41,127,112
2,38,127,160
2,33,127,96
2,36,127,64
2,37,127,64
2,38,127,64
2,46,127,0
2,38,127,64
2,33,127,32
2,41,127,64
2,40,127,64
2,38,127,64
2,41,127,16
2,38,127,64
2,33,127,32
2,41,127,64
2,40,127,64
2,38,127,64
2,38,127,96
2,38,127,96
2,33,127,576
2,36,127,48
2,38,127,72
2,38,127,88
2,41,127,96
2,40,127,32
2,38,127,32
2,43,127,30
2,41,127,64
2,40,127,64
2,38,127,64
2,38,127,96
2,38,127,96
2,33,127,576
2,36,127,70
2,38,127,88
2,38,127,144
2,38,127,32
2,33,127,224
2,36,127,64
2,37,127,64
2,38,127,64
2,41,127,96
2,38,127,96
2,33,127,0
2,36,127,64
2,37,127,64
2,38,127,64
2,40,127,32
2,41,127,32
2,43,127,64
2,41,127,256
2,40,127,64
2,38,127,64
2,38,127,64
2,33,127,96
2,38,127,96
2,33,127,56
2,36,127,64
2,37,127,64
2,38,127,64
2,36,127,16
2,38,127,64
2,36,127,64
2,38,127,64
2,36,127,64
2,38,127,64
2,36,127,64
2,38,127,64
2,36,127,64
2,36,127,2
2,31,127,66
2,36,127,24
2,36,127,40
2,35,127,48
2,36,127,48
2,37,127,48
2,38,127,48
2,33,127,24
2,38,127,56
2,41,127,24
2,38,127,40
2,36,127,32
2,34,127,32
2,46,127,0
2,34,127,104
2,34,127,192
2,34,127,48
2,36,127,32
2,38,127,32
2,33,127,384
2,38,127,32
2,33,127,384
2,36,127,0
2,37,127,0
2,38,127,0
2,41,127,40
2,38,127,16
2,41,127,16
2,40,127,0
2,38,127,0
2,36,127,2
2,31,127,70
2,36,127,24
2,36,127,40
2,35,127,48
2,36,127,48
2,37,127,48
2,38,127,48
2,33,127,24
2,38,127,56
2,41,127,24
2,38,127,40
2,36,127,32
2,34,127,32
2,46,127,0
2,34,127,104
2,34,127,192
2,34,127,48
2,36,127,0
2,36,127,32
2,38,127,64
2,36,127,64
2,38,127,64
2,36,127,64
2,38,127,64
2,36,127,64
2,38,127,64
2,36,127,64
2,38,127,64
2,36,127,64
2,38,127,64
2,36,127,64
2,38,127,64
2,36,127,64
2,38,127,64
2,36,127,64
2,31,127,80
2,36,127,24
2,36,127,40
2,35,127,48
2,36,127,48
2,37,127,48
2,38,127,48
2,33,127,24
2,38,127,56
2,41,127,24
2,38,127,40
2,36,127,32
2,34,127,32
2,46,127,0
2,34,127,104
2,34,127,192
2,34,127,48
2,36,127,32
2,38,127,32
2,33,127,384
2,38,127,32
2,33,127,384
2,36,127,0
2,37,127,0
2,38,127,0
2,41,127,40
2,38,127,16
2,41,127,16
2,40,127,0
2,38,127,0
2,36,127,2
2,31,127,70
2,36,127,24
2,36,127,40
2,35,127,48
2,36,127,48
2,37,127,48
2,38,127,48
2,33,127,24
2,38,127,56
2,41,127,24
2,38,127,40
2,36,127,32
2,34,127,32
2,46,127,0
2,34,127,104
2,34,127,192
2,34,127,48
2,36,127,0
3,65,115,384
3,69,115,0
3,62,115,0
3,57,115,0
3,50,115,0
3,69,115,184
3,57,115,0
3,62,115,0
3,50,115,0
3,65,115,0
3,64,115,184
3,61,115,0
3,67,115,0
3,50,115,0
3,55,115,0
3,38,115,0
3,64,115,160
3,61,115,0
3,50,115,0
3,55,115,0
3,67,115,0
3,61,115,192
3,64,115,0
3,67,115,0
3,50,115,0
3,55,115,0
3,65,115,72
3,57,115,0
3,38,115,0
3,53,115,0
3,62,115,0
3,50,115,0
3,65,115,246
3,62,115,0
3,57,115,0
3,50,115,0
3,69,115,0
3,69,115,192
3,57,115,0
3,65,115,0
3,50,115,0
3,62,115,0
3,64,115,192
3,50,115,0
3,55,115,0
3,67,115,0
3,61,115,0
3,38,115,0
3,64,115,160
3,50,115,0
3,57,115,0
3,61,115,0
3,67,115,0
3,61,115,192
3,50,115,0
3,64,115,0
3,57,115,0
3,50,115,72
3,53,115,0
3,62,115,0
3,38,115,0
3,57,115,0
3,64,115,31488
3,61,115,0
3,62,115,24
3,65,115,0
3,64,115,24
3,67,115,0
3,64,115,280
3,61,115,0
3,65,115,24
3,62,115,0
3,64,115,24
3,67,115,0
3,65,115,1728
3,62,115,0
3,67,115,24
3,64,115,0
3,65,115,24
3,69,115,0
3,62,115,288
3,65,115,0
3,67,115,24
3,64,115,0
3,69,115,24
3,65,115,0
3,67,115,1728
3,64,115,0
3,65,115,24
3,69,115,0
3,67,115,24
3,70,115,0
3,67,115,288
3,64,115,0
3,65,115,24
3,69,115,0
3,67,115,24
3,70,115,0
3,70,115,1728
3,74,115,0
3,72,115,24
3,76,115,0
3,74,115,24
3,77,115,0
3,74,115,286
3,70,115,0
3,76,115,24
3,72,115,0
3,74,115,24
3,77,115,0
3,74,115,0
3,70,115,0
3,67,115,16
3,70,115,0
3,72,106,0
3,70,106,24
3,69,98,24
3,67,94,24
3,69,98,24
3,67,102,24
3,65,98,24
3,64,94,24
3,65,102,24
3,64,90,24
3,62,94,24
3,60,94,24
3,62,94,24
3,60,90,24
3,58,86,24
3,57,78,24
3,58,82,24
3,57,74,24
3,55,78,24
3,53,70,24
3,55,70,24
3,53,62,24
3,52,66,24
3,50,115,16
3,52,115,384
3,53,115,0
3,55,115,576
3,57,115,160
3,60,115,560
3,62,115,168
3,61,115,1608
3,64,115,0
3,62,115,24
3,65,115,0
3,67,115,24
3,64,115,0
3,61,115,288
3,64,115,0
3,62,115,24
3,65,115,0
3,64,115,24
3,67,115,0
3,65,115,1728
3,62,115,0
3,67,115,24
3,64,115,0
3,65,115,24
3,69,115,0
3,65,115,296
3,62,115,0
3,67,115,24
3,64,115,0
3,65,115,24
3,69,115,0
3,67,115,1744
3,64,115,0
3,69,115,24
3,65,115,0
3,70,115,24
3,67,115,0
3,67,115,288
3,64,115,0
3,65,115,24
3,69,115,0
3,70,115,24
3,67,115,0
3,72,115,1528
3,67,115,0
3,64,115,0
3,69,115,96
3,65,115,0
3,74,115,0
3,48,115,0
3,67,115,0
3,55,115,0
3,72,115,0
3,64,115,0
3,74,115,96
3,50,115,0
3,57,115,0
3,69,115,0
3,65,115,0
3,55,115,0
3,48,115,0
3,64,115,0
3,67,115,0
3,72,115,0
3,50,115,96
3,57,115,0
3,65,115,0
3,74,115,0
3,69,115,0
3,72,115,0
3,67,115,0
3,55,115,0
3,48,115,0
3,64,115,0
3,69,115,96
3,50,115,0
3,74,115,0
3,57,115,0
3,65,115,0
3,74,98,380
3,65,98,0
3,72,94,0
3,64,94,0
3,70,90,0
3,62,90,0
3,58,90,0
3,67,90,0
3,70,90,384
3,62,90,0
3,65,90,0
3,57,90,0
3,74,86,4704
3,65,86,0
3,64,78,16
3,72,78,0
3,62,78,8
3,70,78,0
3,70,78,32
3,62,78,0
3,74,90,592
3,65,90,0
3,72,82,0
3,64,82,0
3,74,78,768
3,65,78,0
3,69,74,0
3,62,74,0
3,64,70,576
3,61,115,2
3,64,115,0
3,65,115,24
3,62,115,0
3,67,115,24
3,64,115,0
3,64,115,280
3,61,115,0
3,65,115,24
3,62,115,0
3,67,115,24
3,64,115,0
3,65,115,1728
3,62,115,0
3,67,115,24
3,64,115,0
3,69,115,24
3,65,115,0
3,65,115,288
3,62,115,0
3,64,115,24
3,67,115,0
3,65,115,24
3,69,115,0
3,64,115,1728
3,67,115,0
3,65,115,24
3,69,115,0
3,70,115,24
3,67,115,0
3,67,115,288
3,64,115,0
3,69,115,24
3,65,115,0
3,67,115,24
3,70,115,0
3,70,115,1728
3,74,115,0
3,72,115,24
3,76,115,0
3,74,115,24
3,77,115,0
3,70,115,286
3,74,115,0
3,76,115,24
3,72,115,0
3,77,115,24
3,74,115,0
3,74,115,0
3,70,115,0
3,67,115,16
3,70,115,0
3,72,106,0
3,70,106,24
3,69,98,24
3,67,94,24
3,69,98,24
3,67,102,24
3,65,98,24
3,64,94,24
3,65,102,24
3,64,90,24
3,62,94,24
3,60,94,24
3,62,94,24
3,60,90,24
3,58,86,24
3,57,78,24
3,58,82,24
3,57,74,24
3,55,78,24
3,53,70,24
3,55,70,24
3,53,62,24
3,52,66,24
3,50,115,16
3,52,115,384
3,53,115,0
3,55,115,576
3,57,115,160
3,60,115,560
3,62,115,168
3,64,115,1608
3,61,115,0
3,62,115,24
3,65,115,0
3,64,115,24
3,67,115,0
3,64,115,288
3,61,115,0
3,65,115,24
3,62,115,0
3,64,115,24
3,67,115,0
3,62,115,1728
3,65,115,0
3,67,115,24
3,64,115,0
3,69,115,24
3,65,115,0
3,65,115,296
3,62,115,0
3,67,115,24
3,64,115,0
3,65,115,24
3,69,115,0
3,64,115,1744
3,67,115,0
3,69,115,24
3,65,115,0
3,70,115,24
3,67,115,0
3,64,115,288
3,67,115,0
3,69,115,24
3,65,115,0
3,70,115,24
3,67,115,0
3,67,114,1528
3,64,114,0
3,72,114,0
3,69,110,96
3,74,110,0
3,65,110,0
3,55,106,0
3,64,106,0
3,67,106,0
3,48,106,0
3,72,106,0
3,65,110,96
3,57,110,0
3,74,110,0
3,69,110,0
3,50,110,0
3,48,114,0
3,72,114,0
3,64,114,0
3,67,114,0
3,55,114,0
3,50,106,96
3,65,106,0
3,69,106,0
3,74,106,0
3,57,106,0
3,55,102,0
3,48,102,0
3,67,102,0
3,72,102,0
3,64,102,0
3,50,98,96
3,65,98,0
3,74,98,0
3,57,98,0
3,69,98,0
3,55,98,0
3,67,98,0
3,48,98,0
3,64,98,0
3,72,98,0
3,65,94,96
3,74,94,0
3,69,94,0
3,50,94,0
3,57,94,0
