track,note,velocity,time
4,46,127,7680
4,46,127,247
4,46,127,154
4,46,127,170
4,46,127,272
4,44,127,119
4,44,127,247
4,44,127,154
4,44,127,170
4,44,127,272
4,41,127,119
4,41,127,247
4,41,127,154
4,41,127,170
4,41,127,272
4,42,127,138
4,42,127,160
4,42,127,192
4,41,127,96
4,42,127,103
4,41,127,84
4,44,127,93
4,46,127,116
4,46,127,247
4,46,127,154
4,46,127,170
4,46,127,272
4,44,127,119
4,44,127,247
4,44,127,154
4,44,127,170
4,44,127,272
4,41,127,119
4,41,127,247
4,41,127,154
4,41,127,170
4,41,127,272
4,42,127,138
4,42,127,160
4,42,127,192
4,41,127,96
4,42,127,103
4,41,127,84
4,44,127,93
4,46,127,116
4,46,127,247
4,46,127,154
4,46,127,170
4,46,127,272
4,44,127,119
4,44,127,247
4,44,127,154
4,44,127,170
4,44,127,272
4,41,127,119
4,41,127,247
4,41,127,154
4,41,127,170
4,41,127,272
4,42,127,138
4,42,127,160
4,42,127,192
4,41,127,96
4,42,127,103
4,41,127,84
4,44,127,93
4,46,127,116
4,46,127,247
4,46,127,154
4,46,127,170
4,46,127,272
4,44,127,119
4,44,127,247
4,44,127,154
4,44,127,170
4,44,127,272
4,41,127,119
4,41,127,247
4,41,127,154
4,41,127,170
4,41,127,272
4,42,127,138
4,42,127,256
4,42,127,189
4,41,127,0
4,42,127,103
4,41,127,84
4,44,127,93
4,46,127,116
4,46,127,247
4,46,127,154
4,46,127,170
4,46,127,272
4,44,127,119
4,44,127,247
4,44,127,154
4,44,127,170
4,44,127,272
4,41,127,119
4,41,127,247
4,41,127,154
4,41,127,170
4,41,127,272
4,42,127,138
4,42,127,160
4,42,127,192
4,46,127,864
4,46,127,247
4,46,127,154
4,46,127,170
4,46,127,272
4,44,127,119
4,44,127,247
4,44,127,154
4,44,127,170
4,44,127,272
4,41,127,119
4,41,127,247
4,41,127,154
4,41,127,170
4,41,127,272
4,42,127,138
4,42,127,160
4,42,127,192
4,41,127,96
4,42,127,103
4,41,127,84
4,44,127,93
4,46,127,116
4,46,127,247
4,46,127,154
4,46,127,170
4,46,127,272
4,44,127,119
4,44,127,247
4,44,127,154
4,44,127,170
4,44,127,272
4,41,127,119
4,41,127,247
4,41,127,154
4,41,127,170
4,41,127,272
4,42,127,138
4,46,127,13696
4,46,127,247
4,46,127,154
4,46,127,170
4,46,127,272
4,44,127,119
4,44,127,247
4,44,127,154
4,44,127,170
4,44,127,272
4,41,127,119
4,41,127,247
4,41,127,154
4,41,127,170
4,41,127,272
4,42,127,138
4,42,127,160
4,42,127,192
4,41,127,96
4,42,127,103
4,41,127,84
4,44,127,93
4,46,127,116
4,46,127,247
4,46,127,154
4,46,127,170
4,46,127,272
4,44,127,119
4,44,127,247
4,44,127,154
4,44,127,170
4,44,127,272
4,41,127,119
4,41,127,247
4,41,127,154
4,41,127,170
4,41,127,272
4,42,127,138
4,42,127,166
4,42,127,195
4,41,127,84
4,42,127,103
4,41,127,84
4,44,127,93
4,46,127,116
4,46,127,247
4,46,127,154
4,46,127,170
4,46,127,272
4,44,127,119
4,44,127,247
4,44,127,154
4,44,127,170
4,44,127,272
4,41,127,119
4,41,127,247
4,41,127,154
4,41,127,170
4,41,127,272
4,42,127,138
4,42,127,160
4,42,127,192
4,46,127,864
4,46,127,247
4,46,127,154
4,46,127,170
4,46,127,272
4,44,127,119
4,44,127,247
4,44,127,154
4,44,127,170
4,44,127,272
4,41,127,119
4,41,127,247
4,41,127,154
4,41,127,170
4,41,127,272
4,42,127,138
4,42,127,160
4,42,127,192
4,41,127,96
4,42,127,103
4,41,127,84
4,44,127,93
4,46,127,116
4,46,127,247
4,46,127,154
4,46,127,170
4,46,127,272
4,44,127,119
4,44,127,247
4,44,127,154
4,44,127,170
4,44,127,272
4,41,127,119
4,41,127,247
4,41,127,154
4,41,127,170
4,41,127,272
4,42,127,138
4,46,127,25984
4,46,127,247
4,46,127,154
4,46,127,170
4,46,127,272
4,44,127,119
4,44,127,247
4,44,127,154
4,44,127,170
4,44,127,272
4,41,127,119
4,41,127,247
4,41,127,154
4,41,127,170
4,41,127,272
4,42,127,138
4,42,127,160
4,42,127,192
4,41,127,96
4,42,127,103
4,41,127,84
4,44,127,93
4,46,127,116
4,46,127,247
4,46,127,154
4,46,127,170
4,46,127,272
4,44,127,119
4,44,127,247
4,44,127,154
4,44,127,170
4,44,127,272
4,41,127,119
4,41,127,247
4,41,127,154
4,41,127,170
4,41,127,272
4,42,127,138
4,42,127,160
4,42,127,192
4,41,127,96
4,42,127,103
4,41,127,84
4,44,127,93
4,46,127,116
4,46,127,247
4,46,127,154
4,46,127,170
4,46,127,272
4,44,127,119
4,44,127,247
4,44,127,154
4,44,127,170
4,44,127,272
4,41,127,119
4,41,127,247
4,41,127,154
4,41,127,170
4,41,127,272
4,42,127,138
4,42,127,160
4,42,127,192
4,41,127,96
4,42,127,103
4,41,127,84
4,44,127,93
4,46,127,116
4,46,127,247
4,46,127,154
4,46,127,170
4,46,127,272
4,44,127,119
4,44,127,247
4,44,127,154
4,44,127,170
4,44,127,272
4,41,127,119
4,41,127,247
4,41,127,154
4,41,127,170
4,41,127,272
4,42,127,138
4,42,127,160
4,42,127,192
4,41,127,96
4,42,127,103
4,41,127,84
4,44,127,93
4,46,127,116
4,46,127,247
4,46,127,154
4,46,127,170
4,46,127,272
4,44,127,119
4,44,127,247
4,44,127,154
4,44,127,170
4,44,127,272
4,41,127,119
4,41,127,247
4,41,127,154
4,41,127,170
4,41,127,272
4,42,127,138
4,42,127,160
4,42,127,192
4,41,127,96
4,42,127,103
4,41,127,84
4,44,127,93
4,46,127,116
4,46,127,247
4,46,127,154
4,46,127,170
4,46,127,272
4,44,127,119
4,44,127,247
4,44,127,154
4,44,127,170
4,44,127,272
4,41,127,119
4,41,127,247
4,41,127,154
4,41,127,170
4,41,127,272
4,42,127,138
4,42,127,160
4,42,127,192
4,41,127,96
4,42,127,103
4,41,127,84
4,44,127,93
4,46,127,6260
4,46,127,247
4,46,127,154
4,46,127,170
4,46,127,272
4,44,127,119
4,44,127,247
4,44,127,154
4,44,127,170
4,44,127,272
4,41,127,119
4,41,127,247
4,41,127,154
4,41,127,170
4,41,127,272
4,42,127,138
4,42,127,160
4,42,127,192
5,61,127,5952
5,63,127,0
5,61,127,0
5,63,127,192
5,61,127,192
5,60,127,17856
5,60,127,96
5,60,127,0
5,61,127,288
5,61,127,96
5,60,127,192
5,60,127,288
5,60,127,96
5,60,127,0
5,61,127,0
5,61,127,96
5,60,127,0
5,60,127,384
5,61,127,0
5,61,127,96
5,60,127,96
5,60,127,96
5,56,127,96
5,60,127,96
5,60,127,192
5,58,127,0
5,60,127,864
5,60,127,96
5,60,127,0
5,61,127,0
5,61,127,96
5,60,127,192
5,60,127,384
5,60,127,96
5,60,127,0
5,61,127,288
5,61,127,0
5,60,127,192
5,60,127,384
5,61,127,96
5,61,127,96
5,60,127,96
5,61,127,0
5,60,127,96
5,56,127,96
5,60,127,96
5,60,127,96
5,58,127,0
5,65,127,480
5,61,127,0
5,63,127,288
5,65,127,0
5,61,127,0
5,63,127,0
5,65,127,0
5,61,127,0
5,63,127,192
5,65,127,0
5,61,127,288
5,65,127,0
5,61,127,96
5,63,127,0
5,65,127,0
5,61,127,0
5,63,127,0
5,65,127,0
5,61,127,0
5,63,127,96
5,58,127,192
5,65,127,384
5,61,127,0
5,63,127,96
5,65,127,0
5,61,127,0
5,63,127,192
5,65,127,0
5,61,127,0
5,63,127,192
5,65,127,0
5,65,127,480
5,61,127,0
5,63,127,0
5,68,127,0
5,66,127,96
5,65,127,0
5,65,127,192
5,65,127,96
5,63,127,0
5,58,127,192
5,61,127,0
5,63,127,0
5,65,127,0
5,68,127,0
5,70,127,864
5,68,127,0
5,70,127,0
5,61,127,960
5,68,127,0
5,66,127,288
5,65,127,96
5,63,127,0
5,61,127,0
5,61,127,96
5,63,127,0
5,58,127,480
5,61,127,192
5,63,127,96
5,65,127,0
5,68,127,0
5,72,127,864
5,70,127,192
5,70,127,96
5,68,127,0
5,61,127,768
5,68,127,96
5,66,127,0
5,65,127,288
5,63,127,0
5,61,127,0
5,61,127,96
5,63,127,0
5,65,127,480
5,63,127,0
5,61,127,0
5,63,127,0
5,58,127,96
5,61,127,1152
5,60,127,0
5,61,127,0
5,60,127,0
5,58,127,0
5,61,127,288
5,60,127,0
5,61,127,0
5,60,127,0
5,63,127,0
5,63,127,0
5,63,127,0
5,61,127,0
5,60,127,0
5,58,127,0
5,60,127,1440
5,60,127,96
5,60,127,0
5,61,127,288
5,61,127,96
5,60,127,192
5,60,127,288
5,60,127,96
5,60,127,0
5,61,127,0
5,61,127,96
5,60,127,0
5,60,127,384
5,61,127,0
5,61,127,96
5,60,127,96
5,60,127,96
5,56,127,96
5,60,127,96
5,60,127,192
5,58,127,0
5,60,127,864
5,60,127,96
5,60,127,0
5,61,127,0
5,61,127,96
5,60,127,192
5,60,127,384
5,60,127,96
5,60,127,0
5,61,127,288
5,60,127,0
5,65,127,192
5,60,127,384
5,61,127,96
5,61,127,96
5,60,127,96
5,61,127,0
5,60,127,96
5,56,127,96
5,60,127,96
5,60,127,96
5,58,127,0
5,65,127,480
5,61,127,0
5,63,127,288
5,65,127,0
5,61,127,0
5,63,127,0
5,65,127,0
5,61,127,0
5,63,127,192
5,65,127,0
5,61,127,288
5,65,127,0
5,61,127,96
5,63,127,0
5,65,127,0
5,61,127,0
5,63,127,0
5,65,127,0
5,61,127,0
5,63,127,96
5,58,127,192
5,65,127,384
5,61,127,0
5,63,127,96
5,65,127,0
5,61,127,0
5,63,127,192
5,65,127,0
5,61,127,0
5,63,127,192
5,65,127,0
5,65,127,480
5,61,127,0
5,63,127,0
5,68,127,0
5,66,127,96
5,65,127,0
5,65,127,192
5,65,127,96
5,63,127,0
5,58,127,192
5,61,127,0
5,63,127,0
5,65,127,0
5,68,127,0
5,70,127,864
5,68,127,0
5,70,127,0
5,61,127,960
5,68,127,0
5,66,127,288
5,65,127,96
5,63,127,0
5,61,127,0
5,61,127,96
5,63,127,0
5,58,127,480
5,61,127,192
5,63,127,96
5,65,127,0
5,68,127,0
5,72,127,864
5,70,127,192
5,70,127,96
5,68,127,0
5,61,127,768
5,68,127,96
5,66,127,0
5,65,127,288
5,63,127,0
5,61,127,0
5,61,127,96
5,63,127,0
5,58,127,480
5,61,127,0
5,63,127,0
5,65,127,0
5,68,127,0
5,70,127,864
5,68,127,0
5,70,127,0
5,61,127,960
5,68,127,0
5,66,127,288
5,65,127,96
5,63,127,0
5,61,127,0
5,61,127,96
5,63,127,0
5,58,127,480
5,61,127,192
5,63,127,96
5,65,127,0
5,68,127,0
5,72,127,864
5,70,127,192
5,70,127,96
5,68,127,0
5,61,127,768
5,68,127,96
5,66,127,0
5,65,127,288
5,63,127,0
5,61,127,0
5,61,127,96
5,63,127,0
5,65,127,480
5,63,127,0
5,61,127,0
5,63,127,0
5,58,127,96
5,61,127,1152
5,60,127,0
5,61,127,0
5,60,127,0
5,58,127,0
5,61,127,288
5,60,127,0
5,61,127,0
5,60,127,0
5,63,127,0
5,63,127,0
5,63,127,0
5,61,127,0
5,60,127,0
5,58,127,0
5,61,127,864
5,60,127,0
5,61,127,0
5,60,127,0
5,58,127,0
5,61,127,384
5,60,127,0
5,61,127,0
5,60,127,0
5,58,127,0
5,61,127,288
5,60,127,0
5,61,127,0
5,60,127,0
5,63,127,0
5,63,127,0
5,63,127,0
5,61,127,0
5,60,127,0
5,58,127,0
5,61,127,864
5,60,127,192
5,61,127,0
5,60,127,0
5,58,127,0
5,61,127,288
5,60,127,0
5,61,127,0
5,60,127,0
5,58,127,0
5,61,127,288
5,60,127,0
5,61,127,0
5,60,127,0
5,63,127,0
5,63,127,0
5,63,127,0
5,61,127,0
5,60,127,0
5,58,127,0
5,61,127,864
5,60,127,0
5,61,127,0
5,60,127,0
5,58,127,0
5,61,127,384
5,60,127,0
5,61,127,0
5,60,127,0
5,58,127,0
5,61,127,288
5,60,127,0
5,61,127,0
5,60,127,0
5,63,127,0
5,63,127,0
5,63,127,0
5,61,127,0
5,60,127,0
5,58,127,0
5,65,127,1056
5,61,127,0
5,63,127,288
5,65,127,0
5,61,127,0
5,63,127,0
5,65,127,0
5,61,127,0
5,63,127,192
5,65,127,0
5,61,127,288
5,65,127,0
5,61,127,96
5,63,127,0
5,65,127,0
5,61,127,0
5,63,127,0
5,65,127,0
5,61,127,0
5,63,127,96
5,58,127,192
5,65,127,384
5,61,127,0
5,63,127,96
5,65,127,0
5,61,127,0
5,63,127,192
5,65,127,0
5,61,127,0
5,63,127,192
5,65,127,0
5,65,127,480
5,61,127,0
5,63,127,0
5,68,127,0
5,66,127,96
5,65,127,0
5,65,127,192
5,65,127,96
5,63,127,0
5,58,127,192
5,61,127,0
5,63,127,0
5,65,127,0
5,68,127,0
5,70,127,864
5,68,127,0
5,70,127,0
5,61,127,960
5,68,127,0
5,66,127,288
5,65,127,96
5,63,127,0
5,61,127,0
5,61,127,96
5,63,127,0
5,58,127,480
5,61,127,192
5,63,127,96
5,65,127,0
5,68,127,0
5,72,127,864
5,70,127,192
5,70,127,96
5,68,127,0
5,61,127,768
5,68,127,96
5,70,127,96
5,66,127,0
5,65,127,288
5,63,127,0
5,61,127,0
5,61,127,0
5,72,127,0
5,63,127,0
5,70,127,0
5,72,127,0
5,70,127,0
5,58,127,384
5,61,127,0
5,63,127,192
5,65,127,0
5,68,127,0
5,70,127,96
5,72,127,96
5,70,127,0
5,68,127,0
5,70,127,96
5,68,127,0
5,70,127,0
5,68,127,96
5,70,127,0
5,68,127,288
5,65,127,0
5,61,127,288
5,68,127,0
5,66,127,288
5,65,127,96
5,63,127,0
5,61,127,0
5,61,127,96
5,63,127,0
5,58,127,480
5,61,127,192
5,63,127,96
5,65,127,0
5,68,127,0
5,70,127,96
5,72,127,0
5,73,127,0
5,70,127,0
5,68,127,0
5,72,127,96
5,70,127,0
5,70,127,96
5,68,127,0
5,73,127,288
5,70,127,96
5,61,127,384
5,68,127,96
5,66,127,0
5,65,127,288
5,63,127,0
5,61,127,0
5,61,127,96
5,63,127,0
5,58,127,480
5,61,127,0
5,63,127,192
5,65,127,0
5,68,127,0
5,68,100,96
5,68,80,192
5,68,60,192
5,68,40,192
5,68,20,192
6,58,127,1536
6,61,127,96
6,65,127,96
6,58,127,48
6,61,127,96
6,65,127,96
6,56,127,48
6,60,127,96
6,63,127,96
6,58,127,288
6,61,127,96
6,65,127,96
6,58,127,48
6,61,127,96
6,65,127,96
6,58,127,48
6,61,127,96
6,65,127,96
6,56,127,48
6,60,127,96
6,63,127,96
6,58,127,288
6,61,127,96
6,65,127,96
6,58,127,48
6,61,127,96
6,65,127,96
6,58,127,48
6,61,127,96
6,65,127,96
6,56,127,48
6,60,127,96
6,63,127,96
6,58,127,288
6,61,127,96
6,65,127,96
6,58,127,48
6,61,127,96
6,65,127,96
6,58,127,48
6,61,127,96
6,65,127,96
6,56,127,48
6,60,127,96
6,63,127,96
6,58,127,288
6,61,127,96
6,65,127,96
6,58,127,48
6,61,127,96
6,65,127,96
6,58,127,48
6,61,127,96
6,65,127,96
6,56,127,48
6,60,127,96
6,63,127,96
6,58,127,288
6,61,127,96
6,65,127,96
6,58,127,48
6,61,127,96
6,65,127,96
6,58,127,48
6,61,127,96
6,65,127,96
6,56,127,48
6,60,127,96
6,63,127,96
6,58,127,288
6,61,127,96
6,65,127,96
6,58,127,48
6,61,127,96
6,65,127,96
6,58,127,48
6,61,127,96
6,65,127,96
6,56,127,48
6,60,127,96
6,63,127,96
6,58,127,288
6,61,127,96
6,65,127,96
6,58,127,48
6,61,127,96
6,65,127,96
6,58,127,48
6,61,127,96
6,65,127,96
6,56,127,48
6,60,127,96
6,63,127,96
6,58,127,288
6,61,127,96
6,65,127,96
6,58,127,48
6,61,127,96
6,65,127,96
6,58,127,48
