track,note,velocity,time
1,36,110,4992
1,36,0,144
1,48,89,0
1,48,0,48
1,48,90,0
1,48,0,46
1,28,91,2
1,28,0,96
1,31,89,0
1,31,0,48
1,33,111,0
1,33,0,142
1,36,89,2
1,36,0,96
1,38,88,0
1,38,0,96
1,40,89,0
1,40,0,48
1,38,108,0
1,38,0,144
1,38,88,0
1,38,0,94
1,36,91,2
1,36,0,96
1,33,90,0
1,33,0,48
1,31,109,0
1,31,0,144
1,31,90,0
1,31,0,94
1,33,90,2
1,33,0,48
1,35,90,0
1,35,0,96
1,38,111,0
1,38,0,144
1,50,89,0
1,50,0,48
1,40,91,0
1,40,0,192
1,33,108,0
1,33,0,144
1,45,91,0
1,45,0,48
1,45,89,0
1,45,0,46
1,36,91,2
1,36,0,96
1,40,88,0
1,40,0,48
1,38,110,0
1,38,0,144
1,38,90,0
1,38,0,48
1,29,89,0
1,29,0,192
1,31,108,0
1,31,0,144
1,31,89,0
1,31,0,48
1,31,89,0
1,31,0,192
1,36,111,0
1,36,0,144
1,36,90,0
1,36,0,48
1,33,88,0
1,33,0,192
1,38,108,0
1,38,0,144
1,38,88,0
1,38,0,48
1,31,90,0
1,31,0,192
1,36,110,0
1,36,0,144
1,36,88,0
1,36,0,48
1,33,91,0
1,33,0,192
1,38,110,0
1,38,0,144
1,38,89,0
1,38,0,48
1,31,91,0
1,31,0,192
1,36,110,0
1,36,0,144
1,36,90,0
1,36,0,48
1,33,91,0
1,33,0,192
1,38,109,0
1,38,0,144
1,38,91,0
1,38,0,48
1,29,88,0
1,29,0,192
1,36,108,0
1,36,0,144
1,36,91,0
1,36,0,48
1,33,91,0
1,33,0,192
1,29,108,0
1,29,0,144
1,29,88,0
1,29,0,48
1,31,90,0
1,31,0,192
1,29,110,0
1,29,0,144
1,29,91,0
1,29,0,48
1,31,90,0
1,31,0,192
1,36,109,0
1,36,0,144
1,48,88,0
1,48,0,48
1,48,91,0
1,48,0,94
1,31,88,2
1,31,0,96
1,33,109,0
1,33,0,144
1,33,89,0
1,33,0,48
1,33,88,0
1,33,0,142
1,36,88,2
1,36,0,48
1,38,109,0
1,38,0,144
1,38,88,0
1,38,0,48
1,38,88,0
1,38,0,94
1,33,91,2
1,33,0,96
1,29,109,0
1,29,0,144
1,29,90,0
1,29,0,48
1,31,89,0
1,31,0,192
1,36,109,0
1,36,0,144
1,36,90,0
1,36,0,48
1,36,90,0
1,36,0,142
1,31,90,2
1,31,0,48
1,33,111,0
1,33,0,144
1,33,89,0
1,33,0,48
1,33,89,0
1,33,0,46
1,31,89,2
1,31,0,48
1,33,89,0
1,33,0,48
1,36,91,0
1,36,0,48
1,38,111,0
1,38,0,144
1,38,89,0
1,38,0,48
1,38,89,0
1,38,0,142
1,31,91,2
1,31,0,48
1,29,109,0
1,29,0,144
1,41,88,0
1,41,0,48
1,43,88,0
1,43,0,192
1,39,108,0
1,39,0,144
1,39,91,0
1,39,0,48
1,39,89,0
1,39,0,46
1,31,91,2
1,31,0,48
1,34,91,0
1,34,0,96
1,36,110,0
1,36,0,142
1,36,90,2
1,36,0,96
1,34,88,0
1,34,0,96
1,31,91,0
1,31,0,48
1,29,111,0
1,29,0,144
1,29,90,0
1,29,0,48
1,29,88,0
1,29,0,142
1,29,89,2
1,29,0,48
1,32,110,0
1,32,0,144
1,44,90,0
1,44,0,48
1,46,89,0
1,46,0,192
1,39,111,0
1,39,0,144
1,39,90,0
1,39,0,94
1,31,89,2
1,31,0,96
1,34,91,0
1,34,0,48
1,36,111,0
1,36,0,144
1,36,88,0
1,36,0,48
1,36,88,0
1,36,0,94
1,31,89,2
1,31,0,96
1,29,108,0
1,29,0,142
1,39,90,2
1,39,0,96
1,36,89,0
1,36,0,96
1,34,88,0
1,34,0,48
1,32,111,0
1,32,0,144
1,32,91,0
1,32,0,48
1,34,88,0
1,34,0,192
1,36,111,0
1,36,0,144
1,48,88,0
1,48,0,94
1,28,89,2
1,28,0,96
1,31,89,0
1,31,0,48
1,33,110,0
1,33,0,144
1,33,90,0
1,33,0,48
1,33,90,0
1,33,0,94
1,36,89,2
1,36,0,96
1,38,111,0
1,38,0,144
1,38,88,0
1,38,0,48
1,38,91,0
1,38,0,94
1,31,89,2
1,31,0,96
1,29,108,0
1,29,0,144
1,41,90,0
1,41,0,48
1,43,88,0
1,43,0,192
1,32,109,0
1,32,0,144
1,32,89,0
1,32,0,48
1,34,89,0
1,34,0,192
1,39,109,0
1,39,0,144
1,39,89,0
1,39,0,48
1,39,89,0
1,39,0,142
1,34,91,2
1,34,0,48
1,36,108,0
1,36,0,142
1,36,88,2
1,36,0,96
1,34,88,0
1,34,0,96
1,31,90,0
1,31,0,48
1,29,110,0
1,29,0,144
1,29,91,0
1,29,0,94
1,29,90,2
1,29,0,96
1,32,91,0
1,32,0,48
1,34,111,0
1,34,0,144
1,46,91,0
1,46,0,48
1,46,91,0
1,46,0,142
1,29,88,2
1,29,0,48
1,32,108,0
1,32,0,144
1,32,91,0
1,32,0,48
1,29,91,0
1,29,0,192
1,36,109,0
1,36,0,144
1,36,90,0
1,36,0,94
1,36,91,2
1,36,0,96
1,31,88,0
1,31,0,48
1,29,110,0
1,29,0,144
1,29,88,0
1,29,0,48
1,32,91,0
1,32,0,192
1,34,109,0
1,34,0,144
1,34,89,0
1,34,0,94
1,41,88,2
1,41,0,96
1,38,91,0
1,38,0,48
1,36,108,0
1,36,0,144
1,36,89,0
1,36,0,48
1,33,89,0
1,33,0,192
1,38,109,0
1,38,0,144
1,38,89,0
1,38,0,48
1,31,90,0
1,31,0,192
1,36,110,0
1,36,0,144
1,36,89,0
1,36,0,48
1,33,89,0
1,33,0,192
1,38,108,0
1,38,0,144
1,38,90,0
1,38,0,48
1,31,90,0
1,31,0,192
1,36,109,0
1,36,0,144
1,36,90,0
1,36,0,48
1,33,88,0
1,33,0,192
1,38,108,0
1,38,0,144
1,38,90,0
1,38,0,48
1,29,91,0
1,29,0,192
1,36,108,0
1,36,0,144
1,48,88,0
1,48,0,48
1,45,90,0
1,45,0,192
1,38,109,0
1,38,0,144
1,38,89,0
1,38,0,48
1,31,88,0
1,31,0,192
1,36,108,0
1,36,0,144
1,48,90,0
1,48,0,46
1,28,91,2
1,28,0,96
1,31,90,0
1,31,0,96
1,33,110,0
1,33,0,144
1,33,90,0
1,33,0,94
1,33,90,2
1,33,0,96
1,36,90,0
1,36,0,48
1,38,111,0
1,38,0,144
1,38,91,0
1,38,0,94
1,33,89,2
1,33,0,96
1,31,91,0
1,31,0,48
1,29,110,0
1,29,0,144
1,29,90,0
1,29,0,48
1,31,88,0
1,31,0,192
1,39,111,0
1,39,0,144
1,39,91,0
1,39,0,48
1,39,89,0
1,39,0,46
1,31,89,2
1,31,0,96
1,34,89,0
1,34,0,48
1,36,109,0
1,36,0,142
1,39,91,2
1,39,0,96
1,36,89,0
1,36,0,96
1,31,88,0
1,31,0,48
1,29,108,0
1,29,0,144
1,29,91,0
1,29,0,48
1,29,91,0
1,29,0,94
1,29,91,2
1,29,0,96
1,32,109,0
1,32,0,144
1,32,89,0
1,32,0,48
1,34,90,0
1,34,0,192
1,36,108,0
1,36,0,190
1,28,91,2
1,28,0,96
1,31,88,0
1,31,0,96
1,33,110,0
1,33,0,144
1,33,89,0
1,33,0,94
1,33,89,2
1,33,0,96
1,36,88,0
1,36,0,48
1,38,111,0
1,38,0,144
1,38,89,0
1,38,0,94
1,41,91,2
1,41,0,48
1,38,89,0
1,38,0,48
1,33,90,0
1,33,0,48
1,29,108,0
1,29,0,144
1,29,89,0
1,29,0,48
1,31,90,0
1,31,0,192
1,39,111,0
1,39,0,144
1,39,91,0
1,39,0,48
1,39,89,0
1,39,0,46
1,31,89,2
1,31,0,96
1,34,89,0
1,34,0,48
1,36,109,0
1,36,0,142
1,39,91,2
1,39,0,96
1,36,89,0
1,36,0,96
1,31,88,0
1,31,0,48
1,29,108,0
1,29,0,144
1,29,91,0
1,29,0,48
1,29,91,0
1,29,0,94
1,29,91,2
1,29,0,96
1,32,109,0
1,32,0,144
1,32,89,0
1,32,0,48
1,34,90,0
1,34,0,192
1,36,108,0
1,36,0,190
1,28,91,2
1,28,0,96
1,31,88,0
1,31,0,96
1,33,110,0
1,33,0,144
1,33,89,0
1,33,0,94
1,33,89,2
1,33,0,96
1,36,88,0
1,36,0,48
1,38,111,0
1,38,0,144
1,38,89,0
1,38,0,94
1,41,91,2
1,41,0,48
1,38,89,0
1,38,0,48
1,33,90,0
1,33,0,48
1,29,108,0
1,29,0,144
1,29,89,0
1,29,0,48
1,31,90,0
1,31,0,192
1,39,111,0
1,39,0,144
1,39,91,0
1,39,0,48
1,39,89,0
1,39,0,46
1,31,89,2
1,31,0,96
1,34,89,0
1,34,0,48
1,36,109,0
1,36,0,142
1,39,91,2
1,39,0,96
1,36,89,0
1,36,0,96
1,31,88,0
1,31,0,48
1,29,108,0
1,29,0,144
1,29,91,0
1,29,0,48
1,29,91,0
1,29,0,94
1,29,91,2
1,29,0,96
1,32,109,0
1,32,0,144
1,32,89,0
1,32,0,48
1,34,90,0
1,34,0,192
1,36,108,0
1,36,0,190
1,28,91,2
1,28,0,96
1,31,88,0
1,31,0,96
1,33,110,0
1,33,0,144
1,33,89,0
1,33,0,94
1,33,89,2
1,33,0,96
1,36,88,0
1,36,0,48
1,38,111,0
1,38,0,144
1,38,89,0
1,38,0,94
1,41,91,2
1,41,0,48
1,38,89,0
1,38,0,48
1,33,90,0
1,33,0,48
1,29,108,0
1,29,0,144
1,29,89,0
1,29,0,48
1,31,90,0
1,31,0,192
1,39,111,0
1,39,0,144
1,39,91,0
1,39,0,48
1,39,89,0
1,39,0,46
1,31,89,2
1,31,0,96
1,34,89,0
1,34,0,48
1,36,109,0
1,36,0,142
1,39,91,2
1,39,0,96
1,36,89,0
1,36,0,96
1,31,88,0
1,31,0,48
1,29,108,0
1,29,0,144
1,29,91,0
1,29,0,48
1,29,91,0
1,29,0,94
1,29,91,2
1,29,0,96
1,32,109,0
1,32,0,144
1,32,89,0
1,32,0,48
1,34,90,0
1,34,0,192
1,36,108,0
1,36,0,190
1,28,91,2
1,28,0,96
1,31,88,0
1,31,0,96
1,33,110,0
1,33,0,144
1,33,89,0
1,33,0,94
1,33,89,2
1,33,0,96
1,36,88,0
1,36,0,48
1,38,111,0
1,38,0,144
1,38,89,0
1,38,0,94
1,41,91,2
1,41,0,48
1,38,89,0
1,38,0,48
1,33,90,0
1,33,0,48
1,29,108,0
1,29,0,144
1,29,89,0
1,29,0,48
1,31,90,0
1,31,0,192
1,39,111,0
1,39,0,144
1,39,91,0
1,39,0,48
1,39,89,0
1,39,0,46
1,31,89,2
1,31,0,96
1,34,89,0
1,34,0,48
1,36,109,0
1,36,0,24
1,39,91,2
1,39,0,30
1,36,89,0
1,36,0,2
1,31,88,0
1,31,0,19
1,29,108,0
1,29,0,10
1,29,91,0
1,29,0,27
1,29,91,0
1,29,0,28
1,29,91,0
1,29,0,3
1,32,109,0
1,32,0,24
1,32,89,0
1,32,0,10
1,34,90,0
1,34,0,18
1,36,108,0
1,36,0,24
1,28,91,2
1,28,0,29
1,31,88,0
1,31,0,2
1,33,110,0
1,33,0,23
1,33,89,0
1,33,0,24
1,33,89,2
1,33,0,30
1,36,88,0
1,36,0,17
1,38,111,0
1,38,0,7
1,38,89,0
1,38,0,8
1,41,91,2
1,41,0,28
1,38,89,0
1,38,0,14
1,33,90,0
1,33,0,1
1,29,108,0
1,29,0,22
1,29,89,0
1,29,0,8
1,31,90,0
1,31,0,15
2,62,91,390
2,48,66,3
2,60,91,71
2,62,0,4
2,60,46,58
2,60,0,1
2,59,82,2
2,48,0,8
2,60,79,93
2,59,0,5
2,60,0,41
2,62,87,2
2,55,64,4
2,60,0,1
2,64,79,36
2,48,64,6
2,62,0,3
2,55,0,4
2,48,0,27
2,64,0,6
2,62,87,3
2,45,71,6
2,60,73,67
2,62,0,8
2,60,0,54
2,59,76,2
2,60,69,101
2,59,0,6
2,62,87,45
2,60,0,5
2,64,73,38
2,45,0,2
2,43,64,2
2,62,0,3
2,43,0,39
2,41,71,3
2,62,87,2
2,64,0,6
2,60,82,69
2,62,0,7
2,60,0,55
2,53,53,0
2,59,71,1
2,41,0,2
2,60,76,99
2,59,0,5
2,62,79,46
2,60,0,6
2,64,76,40
2,48,51,5
2,62,0,3
2,53,0,21
2,43,73,20
2,62,91,1
2,48,0,1
2,64,0,3
2,43,0,88
2,62,0,32
2,64,73,94
2,36,67,1
2,55,5,52
2,48,24,39
2,62,84,48
2,64,0,10
2,55,0,1
2,55,20,38
2,48,0,9
2,48,31,33
2,60,79,49
2,55,0,11
2,48,0,2
2,62,0,2
2,36,0,30
2,48,60,2
2,48,0,24
2,45,66,1
2,52,14,52
2,57,43,41
2,62,79,48
2,60,0,5
2,57,0,17
2,52,0,3
2,57,38,21
2,52,53,53
2,62,0,46
2,64,66,0
2,57,0,9
2,52,0,11
2,45,0,9
2,57,31,7
2,38,62,3
2,65,63,3
2,64,0,6
2,57,0,12
2,45,42,26
2,50,52,53
2,57,79,48
2,53,26,48
2,62,64,39
2,65,0,6
2,50,0,8
2,38,0,27
2,50,42,5
2,45,0,2
2,50,0,2
2,53,0,1
2,43,56,2
2,57,0,3
2,50,36,42
2,62,0,48
2,55,55,2
2,62,71,45
2,59,43,46
2,55,0,4
2,55,53,35
2,67,67,44
2,55,0,22
2,50,0,5
2,59,0,12
2,50,52,6
2,50,0,13
2,43,0,1
2,38,67,5
2,62,0,5
2,67,0,15
2,45,46,26
2,50,57,53
2,62,79,44
2,53,42,49
2,50,0,2
2,50,47,39
2,57,79,45
2,50,0,2
2,53,0,17
2,38,0,12
2,45,0,11
2,50,53,3
2,50,0,15
2,45,53,3
2,57,0,3
2,62,0,5
2,52,55,44
2,57,55,50
2,64,66,48
2,57,0,18
2,52,0,6
2,52,40,25
2,57,52,42
2,60,71,51
2,57,0,7
2,52,0,11
2,45,0,26
2,38,64,50
2,60,0,5
2,45,53,38
2,50,52,56
2,38,0,11
2,45,0,1
2,41,64,36
2,50,0,6
2,48,40,45
2,53,55,44
2,60,73,51
2,53,0,5
2,41,0,36
2,53,57,0
2,48,0,6
2,64,0,13
2,43,64,16
2,53,0,2
2,50,56,44
2,55,64,53
2,60,0,42
2,64,69,3
2,62,71,49
2,64,0,1
2,55,0,37
2,50,0,23
2,43,0,28
2,62,0,74
2,64,67,5
2,36,64,1
2,43,53,36
2,48,50,47
2,62,79,50
2,64,0,4
2,48,0,24
2,55,24,21
2,48,38,52
2,60,84,46
2,62,0,7
2,55,0,3
2,48,0,6
2,36,0,15
2,43,0,4
2,48,40,1
2,48,0,23
2,45,57,22
2,62,67,0
2,60,0,3
2,52,45,47
2,57,62,46
2,60,79,52
2,62,0,8
2,57,0,0
2,52,0,20
2,57,32,14
2,52,51,50
2,64,64,48
2,57,0,4
2,52,0,4
2,45,0,8
2,57,52,18
2,64,0,7
2,38,66,0
2,65,67,1
2,60,0,2
2,57,0,14
2,45,46,29
2,50,56,58
2,65,0,38
2,64,79,2
2,50,0,20
2,45,0,4
2,57,26,22
2,50,48,50
2,62,91,44
2,64,0,3
2,57,0,5
2,50,0,10
2,38,0,14
2,50,55,1
2,50,0,16
2,43,62,4
2,50,48,49
2,55,56,46
2,60,69,47
2,62,0,6
2,50,0,11
2,55,0,1
2,50,46,28
2,55,52,51
2,59,68,48
2,60,0,2
2,50,0,17
2,55,0,1
2,50,58,25
2,43,0,10
2,50,0,4
2,65,55,14
2,38,52,0
2,57,42,47
2,59,32,2
2,59,0,2
2,59,0,20
2,50,52,28
2,38,0,19
2,62,79,29
2,65,0,8
2,57,0,2
2,62,0,26
2,62,76,8
2,40,68,0
2,50,0,1
2,47,47,51
2,55,64,4
2,59,82,46
2,55,0,10
2,55,56,14
2,52,55,2
2,40,0,1
2,47,0,7
2,55,0,34
2,52,0,2
