track,note,velocity,time
1,37,100,1474
1,42,100,16
1,41,100,2
1,39,100,2
1,35,100,6
1,37,100,2
1,42,100,2
1,37,100,32
1,42,100,18
1,41,100,2
1,39,100,2
1,35,100,8
1,37,100,2
1,30,100,2
1,37,100,2
1,37,100,50
1,32,100,48
1,32,100,50
1,37,100,368
1,32,100,10
1,34,100,2
1,35,100,2
1,35,100,50
1,30,100,48
1,30,100,50
1,35,100,368
1,30,100,12
1,30,100,2
1,30,100,2
1,30,100,126
1,34,100,10
1,34,100,126
1,37,100,12
1,37,100,2
1,32,100,2
1,30,100,98
1,30,100,50
1,30,100,48
1,30,100,320
1,34,100,12
1,34,100,126
1,37,100,12
1,37,100,50
1,32,100,52
1,32,100,50
1,37,100,368
1,32,100,10
1,34,100,2
1,35,100,2
1,35,100,50
1,30,100,52
1,30,100,50
1,35,100,368
1,30,100,10
1,30,100,2
1,30,100,2
1,30,100,126
1,34,100,10
1,34,100,126
1,37,100,12
1,37,100,2
1,32,100,2
1,27,100,2
1,30,100,14
1,32,100,14
1,32,100,50
1,27,100,48
1,27,100,126
1,32,100,12
1,32,100,50
1,27,100,48
1,27,100,50
1,37,100,50
1,37,100,50
1,32,100,52
1,32,100,50
1,25,100,432
1,30,100,50
1,30,100,2
1,32,100,2
1,32,100,50
1,27,100,52
1,27,100,126
1,32,100,16
1,30,100,50
1,29,100,48
1,27,100,50
1,37,100,50
1,35,100,50
1,34,100,52
1,32,100,50
1,29,100,432
1,30,100,2
1,30,100,50
1,34,100,94
1,39,100,50
1,35,100,98
1,35,100,50
1,30,100,94
1,37,100,100
1,37,100,50
1,32,100,48
1,32,100,50
1,29,100,482
1,30,100,2
1,30,100,50
1,34,100,94
1,39,100,50
1,35,100,98
1,35,100,50
1,30,100,94
1,37,100,100
1,37,100,50
1,32,100,48
1,32,100,50
1,29,100,482
1,30,100,2
1,30,100,50
1,34,100,94
1,39,100,50
1,35,100,98
1,35,100,50
1,30,100,94
1,37,100,100
1,37,100,50
1,32,100,48
1,32,100,50
1,34,100,480
1,35,100,2
1,27,100,98
1,27,100,32
1,30,100,12
1,30,100,98
1,27,100,96
1,30,100,192
1,30,100,98
1,30,100,98
1,34,100,478
1,35,100,98
1,27,100,98
1,27,100,32
1,30,100,12
1,30,100,98
1,27,100,96
1,30,100,196
1,34,100,702
1,37,100,14
1,37,100,50
1,32,100,50
1,32,100,50
1,37,100,368
1,32,100,10
1,34,100,2
1,35,100,2
1,35,100,50
1,30,100,50
1,30,100,50
1,35,100,368
1,30,100,12
1,30,100,2
1,30,100,2
1,30,100,126
1,34,100,12
1,34,100,126
1,37,100,12
1,37,100,2
1,32,100,2
1,30,100,98
1,30,100,50
1,30,100,48
1,30,100,320
1,34,100,10
1,34,100,126
1,37,100,14
1,37,100,50
1,32,100,50
1,32,100,50
1,37,100,368
1,32,100,12
1,34,100,2
1,35,100,2
1,35,100,50
1,30,100,50
1,30,100,50
1,35,100,368
1,30,100,10
1,30,100,2
1,30,100,2
1,30,100,126
1,34,100,10
1,34,100,126
1,37,100,12
1,37,100,2
1,32,100,2
1,27,100,2
1,30,100,14
1,32,100,12
1,32,100,50
1,27,100,48
1,27,100,126
1,32,100,12
1,32,100,50
1,27,100,48
1,27,100,52
1,37,100,50
1,37,100,50
1,32,100,48
1,32,100,50
1,25,100,434
1,30,100,52
1,30,100,2
1,32,100,2
1,32,100,50
1,27,100,48
1,27,100,126
1,32,100,12
1,30,100,50
1,29,100,48
1,27,100,52
1,37,100,50
1,35,100,50
1,34,100,48
1,32,100,50
1,29,100,438
1,30,100,4
1,30,100,50
1,34,100,94
1,39,100,50
1,35,100,98
1,35,100,50
1,30,100,94
1,37,100,100
1,37,100,50
1,32,100,48
1,32,100,50
1,29,100,482
1,30,100,2
1,30,100,50
1,34,100,94
1,39,100,50
1,35,100,98
1,35,100,50
1,30,100,94
1,37,100,100
1,37,100,50
1,32,100,48
1,32,100,50
1,29,100,482
1,30,100,2
1,30,100,50
1,34,100,94
1,39,100,50
1,35,100,98
1,35,100,50
1,30,100,94
1,37,100,100
1,37,100,50
1,32,100,48
1,32,100,50
1,34,100,482
1,35,100,2
1,27,100,98
1,27,100,32
1,30,100,14
1,30,100,98
1,27,100,98
1,30,100,192
1,30,100,98
1,30,100,98
1,34,100,480
1,35,100,98
1,27,100,98
1,27,100,32
1,30,100,14
1,30,100,98
1,27,100,98
1,30,100,190
1,30,100,98
1,30,100,98
1,30,100,240
1,34,100,2
1,37,100,96
1,39,100,98
1,27,100,102
1,27,100,98
1,34,100,98
1,37,100,52
1,27,100,48
1,27,100,100
1,34,100,98
1,37,100,52
1,27,100,58
1,27,100,98
1,34,100,98
1,37,100,52
1,27,100,48
1,27,100,98
1,34,100,98
1,37,100,50
1,27,100,58
1,27,100,98
1,34,100,98
1,39,100,50
1,27,100,48
1,27,100,98
1,39,100,98
1,42,100,52
1,32,100,58
1,32,100,126
1,27,100,10
1,27,100,126
1,32,100,12
1,32,100,100
1,27,100,94
1,30,100,50
1,32,100,58
1,32,100,126
1,27,100,12
1,27,100,126
1,32,100,12
1,32,100,98
1,27,100,98
1,30,100,50
1,32,100,58
1,32,100,126
1,27,100,12
1,27,100,126
1,32,100,12
1,32,100,98
1,27,100,98
1,30,100,52
1,32,100,58
1,32,100,126
1,27,100,12
1,27,100,124
1,32,100,12
1,30,100,100
1,29,100,98
1,27,100,100
1,37,100,108
1,35,100,50
1,34,100,50
1,32,100,50
1,29,100,434
1,30,100,4
1,30,100,50
1,34,100,94
1,39,100,50
1,35,100,98
1,35,100,50
1,30,100,94
1,37,100,100
1,37,100,50
1,32,100,48
1,32,100,50
1,29,100,482
1,30,100,2
1,30,100,50
1,34,100,94
1,39,100,50
1,35,100,98
1,35,100,50
1,30,100,94
1,37,100,100
1,37,100,50
1,32,100,48
1,32,100,50
1,29,100,482
1,30,100,4
1,30,100,50
1,34,100,94
1,39,100,50
1,35,100,98
1,35,100,50
1,30,100,94
1,37,100,100
1,37,100,50
1,32,100,48
1,32,100,50
1,34,100,478
1,35,100,98
1,27,100,98
1,27,100,32
1,30,100,12
1,30,100,98
1,27,100,96
1,30,100,192
1,30,100,98
1,30,100,98
1,34,100,478
1,35,100,98
1,27,100,98
1,27,100,32
1,30,100,12
1,30,100,98
1,27,100,96
1,30,100,192
1,30,100,98
1,30,100,98
1,34,100,478
1,35,100,98
1,27,100,98
1,27,100,32
1,30,100,12
1,30,100,98
1,27,100,96
1,30,100,192
1,30,100,98
1,30,100,98
1,34,100,478
1,35,100,98
1,27,100,98
1,27,100,32
1,30,100,12
1,30,100,98
1,27,100,96
1,37,100,194
1,37,100,50
1,35,100,48
1,35,100,50
1,34,100,48
1,34,100,50
1,32,100,48
1,32,100,50
1,30,100,50
1,30,100,50
1,34,100,94
1,39,100,50
1,35,100,98
1,35,100,50
1,30,100,94
1,37,100,100
1,37,100,50
1,32,100,48
1,32,100,50
1,29,100,482
1,30,100,2
1,30,100,50
1,34,100,94
1,39,100,50
1,35,100,98
1,35,100,50
1,30,100,94
1,37,100,100
1,37,100,50
1,32,100,48
1,32,100,50
1,29,100,482
1,30,100,2
1,30,100,50
1,34,100,94
1,39,100,50
1,35,100,98
1,35,100,50
1,30,100,94
1,37,100,100
1,37,100,50
1,32,100,48
1,32,100,50
1,34,100,480
1,35,100,2
1,27,100,98
1,27,100,32
1,30,100,12
1,30,100,98
1,27,100,96
1,30,100,190
1,30,100,98
1,30,100,98
1,34,100,478
1,35,100,96
1,27,100,98
1,27,100,32
1,30,100,12
1,30,100,98
1,27,100,96
1,30,100,192
1,30,100,98
1,30,100,98
1,34,100,478
1,35,100,98
1,27,100,98
1,27,100,32
1,30,100,12
1,30,100,98
1,27,100,96
1,30,100,192
1,30,100,98
1,30,100,98
1,34,100,478
1,35,100,96
1,27,100,98
1,27,100,32
1,30,100,12
1,30,100,98
1,27,100,98
1,37,100,192
1,37,100,52
1,35,100,50
1,35,100,52
1,34,100,50
1,34,100,52
1,32,100,50
1,32,100,52
1,42,100,54
1,41,100,2
1,39,100,2
1,35,100,8
1,37,100,384
1,42,100,376
1,37,100,42
1,42,100,10
1,41,100,30
1,39,100,12
1,35,100,12
1,37,100,12
1,30,100,12
1,42,100,38
2,63,88,3082
2,66,89,0
2,71,87,2
2,75,89,0
2,65,91,2
2,68,88,0
2,73,90,0
2,77,86,2
2,66,92,0
2,70,88,0
2,73,92,2
2,78,91,0
2,63,90,1570
2,66,92,0
2,71,91,2
2,75,92,0
2,65,87,2
2,68,93,0
2,73,87,2
2,77,92,0
2,66,91,2
2,70,91,0
2,73,93,0
2,78,88,2
2,65,87,7322
2,68,92,2
2,73,86,0
2,77,90,0
2,63,91,1150
2,66,93,2
2,71,87,0
2,75,87,0
2,65,89,4222
2,68,91,2
2,73,88,0
2,77,89,2
2,63,89,1150
2,68,87,2
2,71,86,0
2,75,87,0
2,65,92,1150
2,68,90,2
2,73,89,0
2,77,90,0
2,66,90,768
2,70,86,0
2,73,88,2
2,63,87,478
2,66,86,2
2,71,86,0
2,73,89,480
2,77,88,0
2,80,93,0
2,85,90,2
2,65,91,672
2,66,92,0
2,65,92,48
2,63,93,0
2,61,93,50
2,59,91,0
2,66,88,50
2,70,87,0
2,73,93,2
2,63,93,478
2,66,93,2
2,71,92,0
2,73,91,480
2,77,89,0
2,80,89,0
2,85,93,2
2,65,93,672
2,66,87,2
2,65,87,46
2,63,91,2
2,61,90,48
2,59,87,0
2,66,93,50
2,70,88,0
2,73,87,2
2,63,88,478
2,66,87,2
2,71,87,0
2,73,86,480
2,77,92,0
2,80,91,0
2,85,87,2
2,75,91,1440
2,66,87,2
2,66,92,1342
2,70,93,2
2,73,87,0
2,75,92,1056
2,66,89,2
2,66,88,962
2,70,86,0
2,73,89,0
2,73,92,382
2,77,93,2
2,80,90,0
2,71,88,1150
2,75,92,2
2,78,89,0
2,80,86,4222
2,85,93,2
2,89,93,0
2,83,91,1150
2,87,93,2
2,90,92,0
2,68,91,1918
2,65,89,2
2,70,90,0
2,66,89,2
2,71,92,0
2,63,86,2
2,71,86,48
2,63,86,2
2,66,92,2
2,70,92,0
2,65,86,2
2,68,89,0
2,68,88,112
2,65,92,2
2,66,92,2
2,70,92,0
2,63,93,2
2,71,89,0
2,71,90,46
2,63,93,2
2,70,86,0
2,66,92,2
2,68,91,0
2,65,86,2
2,73,91,0
2,77,93,0
2,80,91,2
2,85,91,0
2,75,93,2
2,78,90,0
2,83,91,0
2,66,87,2
2,70,93,0
2,73,88,0
2,63,87,478
2,66,88,2
2,71,91,0
2,73,93,480
2,77,89,0
2,80,87,0
2,85,88,2
2,65,87,672
2,66,93,2
2,65,90,46
2,63,86,0
2,61,91,50
2,59,91,0
2,66,91,50
2,70,91,0
2,73,88,2
2,63,89,478
2,66,88,2
2,71,91,0
2,73,90,480
2,77,88,0
2,80,90,0
2,85,92,2
2,65,88,672
2,66,91,2
2,65,88,46
2,63,89,2
2,61,88,48
2,59,92,2
2,66,90,48
2,70,89,0
2,73,87,2
2,63,88,478
2,66,86,2
2,71,86,0
2,73,90,480
2,77,87,0
2,80,87,0
2,85,87,2
2,65,89,672
2,66,86,0
2,65,90,48
2,63,87,0
2,61,88,50
2,59,86,0
2,66,89,50
2,75,93,190
2,66,86,0
2,75,91,384
2,66,90,0
2,73,91,2
2,66,87,0
2,66,87,384
2,70,86,2
2,73,89,0
2,78,90,0
2,75,86,572
2,66,91,0
2,66,88,384
2,75,92,190
2,66,88,0
2,73,91,0
2,66,88,0
2,66,93,384
2,70,92,2
2,73,92,0
2,78,91,0
2,61,87,576
2,66,88,0
2,70,87,0
2,73,89,190
2,73,91,124
2,74,90,98
2,63,90,2
2,75,91,0
2,73,92,0
2,68,86,2
2,61,88,0
2,63,91,4
2,66,86,0
2,70,91,0
2,73,90,186
2,73,89,124
2,74,88,98
2,75,91,0
2,73,92,0
2,68,90,2
2,61,92,0
2,63,90,2
2,66,89,2
2,70,90,0
2,73,88,184
2,73,92,124
2,74,90,98
2,75,92,0
2,73,93,0
2,68,91,2
2,61,91,0
2,68,88,2
2,71,92,0
2,75,90,2
2,73,89,568
2,68,89,4
2,71,91,0
2,75,92,2
2,73,86,184
2,73,87,124
2,74,91,98
2,73,91,0
2,66,86,0
2,63,91,0
2,61,90,0
2,68,91,2
2,71,87,2
2,75,93,0
2,73,92,184
2,73,91,124
2,74,87,98
2,73,91,0
2,66,91,0
2,63,92,0
2,61,93,0
2,68,93,4
2,71,90,0
2,75,88,0
2,73,94,186
2,73,92,124
2,74,90,98
2,73,90,0
2,66,87,0
2,63,91,0
2,61,88,0
2,61,90,2
2,65,88,0
2,68,88,2
2,73,86,0
2,77,93,374
2,80,87,384
2,85,90,384
2,66,87,0
2,70,88,2
2,73,88,0
2,63,86,478
2,66,86,2
2,71,87,0
2,73,93,480
2,77,86,0
2,80,89,0
2,85,89,2
2,65,89,672
2,66,89,2
2,65,90,46
2,63,91,2
2,61,87,48
2,59,87,2
2,66,90,48
2,70,93,0
2,73,90,2
2,63,88,478
2,66,89,2
2,71,89,0
2,73,91,480
2,77,91,0
2,80,88,0
2,85,88,2
2,65,87,672
2,66,88,0
2,65,89,48
2,63,86,0
2,61,87,50
2,59,87,0
2,66,90,50
2,70,89,0
2,73,88,0
2,63,87,478
2,66,87,2
2,71,87,0
2,73,90,480
2,77,90,0
2,80,86,0
2,85,87,2
2,75,90,1440
2,66,92,2
2,66,90,1342
2,70,92,2
2,73,88,0
2,75,88,1056
2,66,90,2
2,66,86,1342
2,70,91,2
2,73,92,0
2,75,88,1056
2,66,89,2
2,66,89,1342
2,70,90,2
2,73,92,0
2,75,93,1056
2,66,89,2
2,68,86,960
2,73,87,0
2,77,93,0
2,66,90,1246
2,70,92,2
2,73,89,0
2,63,90,478
2,66,90,2
2,71,87,0
2,73,92,480
2,77,87,0
2,80,90,0
2,85,92,2
2,65,87,672
2,66,91,2
2,65,93,46
2,63,86,2
2,61,86,48
2,59,91,2
2,66,93,48
2,70,88,0
2,73,86,2
2,63,86,478
2,66,87,2
2,71,88,0
2,73,90,478
2,77,88,2
2,80,91,0
2,85,88,0
2,65,90,672
2,66,89,0
2,65,86,48
2,63,92,0
2,61,88,50
2,59,92,0
2,66,89,50
2,70,87,0
2,73,90,2
2,63,90,478
2,66,88,2
2,71,87,0
2,73,91,480
2,77,93,0
2,80,93,0
2,85,93,2
2,75,91,1440
2,66,86,2
2,66,91,1342
2,70,87,2
2,73,92,0
2,75,89,1056
2,66,93,2
2,66,87,1342
2,70,92,2
2,73,93,0
2,75,86,1056
2,66,91,2
2,66,87,1342
2,70,86,2
2,73,87,0
2,75,92,1056
2,66,91,2
2,66,92,574
2,71,86,2
2,75,88,0
2,68,91,192
2,73,90,0
2,77,90,0
2,68,90,126
2,73,86,0
2,77,88,0
2,68,89,122
2,73,93,2
2,77,86,0
2,68,91,126
2,73,91,0
2,77,93,0
2,68,90,122
2,73,89,2
2,77,93,0
2,68,87,126
2,73,93,0
2,77,86,2
2,68,88,122
2,73,93,2
2,77,86,0
2,68,91,126
2,73,88,0
2,77,93,2
2,63,87,1666
2,66,91,2
2,71,87,0
2,75,88,0
2,65,88,0
2,68,86,0
2,73,89,2
2,77,92,0
2,66,90,0
2,70,87,0
2,73,86,2
2,78,91,0
2,63,93,1570
2,66,86,0
2,71,92,2
2,75,91,0
2,65,91,2
2,68,87,0
2,73,92,0
2,77,92,2
2,66,92,0
2,70,90,0
2,73,89,2
2,78,87,0
3,58,60,1540
3,61,60,0
3,66,60,0
3,56,60,0
3,61,60,2
3,65,60,0
3,59,60,0
3,63,60,2
3,66,60,0
3,59,60,2
3,63,60,0
3,66,60,2
3,56,60,0
3,61,60,2
3,65,60,0
3,58,60,0
3,61,60,2
3,66,60,0
3,58,60,2
3,61,60,0
3,66,60,0
3,56,60,0
3,61,60,2
3,65,60,0
3,59,60,0
3,63,60,2
3,66,60,0
3,59,60,2
3,63,60,0
