track,note,velocity,time
1,26,94,0
1,26,90,120
1,26,88,84
1,26,92,164
1,26,88,92
1,26,92,92
1,26,92,152
1,26,88,40
1,26,94,144
1,26,86,192
1,31,98,0
1,31,90,80
1,31,88,80
1,33,94,96
1,33,94,52
1,33,92,64
1,36,94,0
1,36,100,96
1,36,86,80
1,31,104,96
1,31,104,52
1,31,94,68
1,28,98,0
1,28,96,80
1,28,92,72
1,28,96,84
1,26,90,384
1,28,90,0
1,28,96,84
1,28,92,88
1,28,94,68
1,30,98,384
1,31,92,32
1,35,116,96
1,35,92,60
1,35,98,52
1,35,100,44
1,35,98,72
1,36,100,12
1,36,98,48
1,36,96,52
1,36,98,52
1,36,96,80
1,28,98,0
1,28,98,92
1,28,100,80
1,28,96,60
1,26,94,88
1,28,98,40
1,28,100,128
1,28,100,52
1,28,100,120
1,28,98,100
1,31,100,192
1,31,84,100
1,31,92,36
1,33,94,96
1,33,98,40
1,33,96,72
1,36,104,0
1,36,106,100
1,36,90,52
1,31,86,96
1,31,96,48
1,31,94,72
1,28,100,192
1,28,100,124
1,28,100,64
1,28,98,76
1,26,96,40
1,28,98,0
1,28,92,96
1,28,94,64
1,28,100,104
1,30,88,288
1,31,98,80
1,35,98,0
1,35,104,100
1,35,104,48
1,35,100,68
1,35,94,108
1,36,104,0
1,36,106,72
1,36,106,80
1,36,98,32
1,36,104,96
1,28,98,0
1,28,96,80
1,28,104,64
1,28,98,72
1,26,96,28
1,28,100,192
1,28,96,80
1,28,94,52
1,28,98,48
1,28,104,100
1,36,106,4
1,36,106,80
1,36,104,64
1,36,100,60
1,36,94,104
1,36,104,56
1,36,104,64
1,36,96,68
1,36,94,48
1,36,88,80
1,36,100,48
1,36,98,52
1,36,98,84
1,36,104,60
1,36,88,80
1,36,100,36
1,36,98,48
1,36,100,56
1,36,94,48
1,36,98,100
1,29,104,0
1,29,98,92
1,29,100,36
1,29,98,44
1,29,92,116
1,27,106,192
1,27,100,92
1,27,94,68
1,27,92,64
1,27,88,88
1,34,110,0
1,34,100,92
1,34,104,100
1,26,98,96
1,26,98,44
1,26,100,80
1,26,94,48
1,26,96,52
1,26,106,84
1,26,104,68
1,26,96,96
1,26,104,60
1,26,96,84
1,26,96,80
1,26,98,108
1,26,96,72
1,26,94,80
1,26,92,88
1,26,88,48
1,26,94,72
1,26,84,100
1,26,96,84
1,26,98,84
1,26,96,64
1,26,98,52
1,26,96,104
1,31,100,0
1,31,96,92
1,31,110,76
1,33,86,96
1,33,98,76
1,33,100,100
1,36,96,12
1,36,106,100
1,36,104,44
1,31,104,96
1,31,106,32
1,31,100,88
1,28,94,192
1,28,94,80
1,28,104,84
1,28,100,44
1,26,96,44
1,28,92,32
1,28,100,76
1,28,104,68
1,28,106,100
1,30,94,288
1,31,90,4
1,35,104,4
1,35,104,96
1,35,104,64
1,35,98,40
1,35,106,72
1,36,106,12
1,36,106,96
1,36,106,56
1,36,104,60
1,36,106,80
1,28,100,192
1,28,100,84
1,28,104,80
1,28,106,108
1,26,94,16
1,28,94,0
1,28,106,88
1,28,100,72
1,28,98,60
1,28,104,120
1,36,106,20
1,36,98,64
1,36,106,92
1,36,104,36
1,36,106,76
1,36,104,84
1,36,104,72
1,36,98,68
1,36,96,52
1,36,92,108
1,36,110,72
1,36,96,60
1,36,104,68
1,36,100,60
1,36,96,92
1,36,100,60
1,36,104,84
1,36,98,92
1,36,106,72
1,36,104,128
1,29,94,0
1,29,104,76
1,29,98,72
1,29,90,52
1,29,96,84
1,27,94,192
1,27,100,72
1,27,100,76
1,27,100,80
1,27,110,80
1,34,100,32
1,34,98,72
1,34,96,68
1,26,100,96
1,26,104,56
1,26,98,60
1,26,100,80
1,26,98,68
1,26,98,100
1,26,106,72
1,26,104,148
1,31,100,0
1,31,96,92
1,31,110,76
1,33,86,96
1,33,98,76
1,33,100,100
1,36,96,12
1,36,106,100
1,36,104,44
1,31,104,96
1,31,106,32
1,31,100,88
1,28,94,192
1,28,94,80
1,28,104,84
1,28,100,44
1,26,96,44
1,28,92,32
1,28,100,76
1,28,104,68
1,28,106,100
1,30,94,288
1,31,90,4
1,35,104,4
1,35,104,96
1,35,104,64
1,35,98,40
1,35,106,72
1,36,106,12
1,36,106,96
1,36,106,56
1,36,104,60
1,36,106,80
1,28,100,192
1,28,100,84
1,28,104,80
1,28,106,108
1,26,94,16
1,28,94,0
1,28,106,88
1,28,100,72
1,28,98,60
1,28,104,120
1,36,106,20
1,36,98,64
1,36,106,92
1,36,104,36
1,36,106,76
1,36,104,84
1,36,104,72
1,36,98,68
1,36,96,52
1,36,92,108
1,36,110,72
1,36,96,60
1,36,104,68
1,36,100,60
1,36,96,92
1,36,100,60
1,36,104,84
1,36,98,92
1,36,106,72
1,36,104,128
1,29,94,0
1,29,104,76
1,29,98,72
1,29,90,52
1,29,96,84
1,27,94,192
1,27,100,72
1,27,100,76
1,27,100,80
1,27,110,80
1,34,100,32
1,34,98,72
1,34,96,68
1,26,100,96
1,26,104,56
1,26,98,60
1,26,100,80
1,26,98,68
1,26,98,100
1,26,106,72
1,26,104,148
1,35,106,0
1,35,106,124
1,35,104,80
1,35,106,92
1,30,86,128
1,35,96,4
1,35,106,80
1,35,110,64
1,35,100,112
1,35,100,44
1,34,84,96
1,32,96,84
1,30,94,172
1,30,116,104
1,30,106,60
1,30,104,76
1,30,106,104
1,30,104,80
1,30,106,92
1,30,104,76
1,30,110,92
1,30,98,56
1,32,106,192
1,33,96,28
1,33,104,48
1,33,104,64
1,33,110,72
1,33,106,96
1,33,104,84
1,33,106,92
1,33,106,96
1,33,98,124
1,33,92,24
1,33,76,36
1,33,96,12
1,28,98,192
1,28,106,92
1,28,106,72
1,28,106,64
1,28,106,100
1,28,106,88
1,28,106,128
1,28,106,88
1,28,106,24
1,28,106,64
1,30,86,0
1,33,94,96
1,35,106,60
1,35,106,108
1,35,100,92
1,35,106,88
1,35,94,124
1,35,98,68
1,35,98,96
1,35,98,80
1,35,104,96
1,34,98,288
1,32,92,4
1,30,84,20
1,30,104,116
1,30,106,76
1,30,106,88
1,30,96,84
1,30,110,80
1,30,104,80
1,30,98,84
1,30,110,112
1,30,106,128
1,32,82,96
1,33,96,0
1,33,110,48
1,33,100,76
1,33,110,80
1,33,92,104
1,33,98,104
1,33,104,84
1,33,104,100
1,33,106,100
1,33,92,28
1,32,88,96
1,30,88,8
1,28,100,96
1,28,110,108
1,28,100,80
1,28,110,76
1,28,104,64
1,28,106,72
1,28,104,72
1,28,98,84
1,28,100,88
1,28,96,108
1,30,82,96
1,33,94,60
1,35,100,184
1,35,104,84
1,35,106,96
1,35,104,104
1,35,96,92
1,35,106,76
1,35,98,108
1,35,96,104
1,35,104,92
1,35,94,108
1,35,110,64
1,35,106,96
1,35,104,88
1,35,106,84
1,35,110,80
1,35,98,76
1,35,106,88
1,35,104,72
1,35,110,80
1,35,98,104
1,35,112,88
2,55,64,3072
2,59,60,0
2,62,60,0
2,61,62,0
2,64,72,0
2,57,62,0
2,60,62,60
2,55,60,672
2,59,60,0
2,62,66,0
2,55,60,48
2,64,62,0
2,59,62,0
2,62,62,52
2,66,64,0
2,65,78,0
2,66,64,128
2,55,58,68
2,64,60,0
2,60,60,0
2,59,60,1480
2,59,70,52
2,62,74,0
2,55,74,0
2,64,74,0
2,61,64,0
2,57,64,0
2,60,86,60
2,59,64,68
2,62,68,0
2,55,68,0
2,64,64,0
2,59,68,0
2,62,78,12
2,66,64,0
2,59,68,0
2,60,66,0
2,64,76,0
2,55,70,0
2,59,62,0
2,64,64,0
2,55,56,0
2,64,74,3072
2,60,66,0
2,55,64,0
2,56,68,0
2,60,58,16
2,57,70,0
2,65,76,0
2,58,66,0
2,63,66,0
2,55,76,0
2,58,60,0
2,62,68,0
2,53,68,0
2,57,64,72
2,54,64,0
2,71,76,4592
2,62,66,0
2,59,72,0
2,55,70,0
2,69,84,4
2,61,68,0
2,57,70,0
2,64,80,0
2,76,86,0
2,60,80,0
2,74,86,12
2,55,76,0
2,59,70,0
2,62,72,0
2,71,84,548
2,69,78,0
2,64,68,0
2,59,72,0
2,71,90,192
2,74,84,12
2,66,68,0
2,59,76,0
2,62,86,0
2,73,90,56
2,74,80,192
2,76,84,0
2,60,80,0
2,64,84,0
2,55,78,0
2,69,84,0
2,64,74,0
2,59,72,0
2,55,78,0
2,71,72,192
2,64,86,8
2,55,76,0
2,60,84,0
2,56,92,0
2,65,84,36
2,57,80,0
2,55,78,64
2,58,72,0
2,63,68,0
2,62,84,12
2,53,78,0
2,54,74,4
2,57,66,0
2,71,96,64
2,62,66,0
2,59,72,0
2,55,70,0
2,69,90,8
2,61,68,0
2,57,70,0
2,64,80,0
2,72,106,0
2,60,80,0
2,71,100,576
2,55,76,12
2,59,70,0
2,62,72,0
2,76,86,0
2,64,68,0
2,59,72,0
2,74,92,12
2,66,68,0
2,59,76,0
2,62,86,0
2,73,100,0
2,74,110,192
2,76,86,0
2,60,80,0
2,64,84,0
2,55,78,0
2,69,84,0
2,71,90,0
2,64,74,0
2,59,72,0
2,55,78,0
2,64,86,8
2,55,76,0
2,60,84,0
2,56,92,0
2,65,84,36
2,57,80,0
2,55,78,64
2,58,72,0
2,63,68,0
2,62,84,12
2,53,78,0
2,54,74,4
2,57,66,0
2,59,78,64
2,54,92,0
2,63,74,0
2,83,70,576
2,82,66,12
2,61,74,0
2,58,76,0
2,54,96,0
2,81,66,16
2,52,76,0
2,61,84,0
2,57,68,0
2,83,70,12
2,80,62,0
2,59,90,0
2,56,64,0
2,52,92,0
2,83,62,0
2,59,78,0
2,63,76,0
2,54,100,0
2,82,60,12
2,54,92,0
2,61,70,0
2,58,70,0
2,81,64,0
2,52,76,0
2,57,62,0
2,61,76,0
2,83,64,44
2,80,60,4
2,56,64,0
2,59,84,0
2,52,78,0
2,83,60,0
2,63,74,0
2,59,84,0
2,54,106,0
3,47,106,3456
3,47,106,132
3,45,96,192
3,45,92,116
3,48,100,16
3,48,96,56
3,47,106,192
3,47,92,120
3,45,100,192
3,43,100,172
3,35,86,360
3,35,62,2276
3,36,72,24
3,38,92,0
3,36,76,8
3,42,90,484
3,43,86,28
3,54,100,0
3,52,100,4
3,47,92,384
3,47,86,30992
3,47,110,140
3,45,106,192
3,45,92,140
3,48,106,192
3,48,100,92
3,47,106,192
3,47,86,168
3,45,100,192
3,43,110,148
3,35,80,360
3,47,106,20276
3,47,106,116
3,45,106,4
3,45,92,124
3,48,106,192
3,48,96,108
3,47,106,192
3,47,84,172
3,45,106,192
3,43,110,148
3,35,90,8
3,35,100,1796
3,36,106,0
3,38,106,192
3,36,110,368
3,42,96,552
3,43,100,192
3,54,106,188
3,52,100,20
3,47,100,384
3,42,110,15192
3,47,106,8
3,49,106,1636
3,46,100,192
3,54,100,24
3,46,100,576
3,45,96,372
3,40,100,372
3,45,106,192
3,47,92,1612
3,44,100,192
3,47,100,72
3,44,74,576
3,47,96,0
3,42,100,236
3,47,96,12
3,49,90,1544
3,46,106,0
3,54,106,16
3,46,106,8
3,45,100,384
3,40,100,352
3,45,106,192
3,47,96,1520
3,44,106,192
3,47,92,8
3,44,92,576
3,47,92,320
4,81,76,7104
4,83,80,192
4,88,74,4
4,90,80,192
4,88,92,172
4,83,64,8
4,81,58,4124
4,83,80,192
4,88,76,156
4,90,74,188
4,88,86,184
4,83,70,360
4,81,70,10204
4,83,80,192
4,88,80,172
4,90,78,176
4,88,78,188
4,83,76,4
4,81,86,20976
4,83,76,192
4,88,80,164
4,90,80,0
4,88,84,192
4,83,72,340
4,81,68,4072
4,83,92,192
4,88,80,168
4,90,96,172
4,88,92,184
4,83,84,344
4,81,76,16516
4,83,86,192
4,88,78,176
4,90,92,156
4,88,92,172
4,83,86,344
4,81,76,4128
4,83,96,0
4,88,78,192
4,90,86,160
4,88,92,188
4,83,92,336
5,59,88,15364
5,59,96,64
5,57,88,352
5,57,88,84
5,60,96,24
5,60,94,88
5,59,68,372
5,59,82,72
5,59,90,92
5,59,88,64
5,57,90,204
5,55,100,156
5,47,68,16
5,47,76,1900
5,48,78,4
5,50,68,180
5,48,66,68
5,54,94,396
5,55,90,12
5,66,90,8
5,64,80,184
5,59,88,8
5,64,104,1748
5,65,96,304
5,64,96,264
5,62,94,156
5,64,78,240
5,64,104,868
5,65,100,268
5,67,94,260
5,64,94,184
5,65,104,420
5,64,104,276
5,62,94,232
5,60,74,160
5,62,100,72
5,63,110,196
5,62,100,256
5,60,84,4
5,58,96,224
5,60,90,96
5,62,90,212
5,60,78,248
5,58,90,212
5,54,94,4
5,57,78,244
5,59,90,1860
5,59,88,56
5,57,68,348
5,57,90,112
5,57,90,80
5,57,70,60
5,60,94,204
5,60,88,80
5,59,90,396
5,59,90,52
5,59,84,76
5,59,84,68
5,57,90,216
5,55,100,160
5,47,64,8
5,47,84,5192
5,48,88,188
5,50,66,160
5,48,60,12
5,54,94,512
5,55,94,0
5,66,96,188
5,64,80,216
5,59,88,356
5,64,104,1596
5,65,100,296
5,64,100,232
5,62,88,4
5,64,78,244
5,64,96,624
5,65,110,288
5,67,88,244
5,64,90,196
5,65,104,264
5,64,96,304
5,62,94,208
5,60,78,200
5,62,94,16
5,63,104,208
5,62,88,268
5,60,84,4
5,58,82,204
5,60,76,32
5,62,88,196
5,60,80,264
5,58,84,228
5,54,70,216
5,57,66,252
5,47,78,7084
5,48,68,12
5,50,70,28
5,48,62,24
5,54,72,164
5,55,90,176
5,66,84,4
5,64,82,216
5,59,64,316
5,64,96,1136
5,65,96,292
5,64,94,280
5,62,94,152
5,64,78,176
5,64,100,840
5,65,100,252
5,67,80,244
5,64,96,200
5,65,94,332
5,64,104,296
5,62,94,220
5,60,84,204
5,62,96,560
5,63,100,184
5,62,88,260
5,60,84,0
5,58,84,220
5,60,78,20
5,62,90,44
5,60,80,268
5,58,74,188
5,54,74,220
5,57,72,252
5,59,100,712
5,59,96,72
5,59,96,80
5,59,96,72
5,56,68,184
5,54,72,36
5,59,90,324
5,59,94,88
5,58,94,204
5,58,104,72
5,58,96,64
5,56,82,296
5,54,66,28
5,57,104,344
5,57,100,76
5,57,96,84
5,57,90,76
5,57,94,152
5,59,90,204
5,52,88,8
5,52,80,64
5,52,88,88
5,59,104,384
5,59,96,76
5,59,100,84
5,59,100,76
5,56,68,220
5,54,66,44
5,59,110,656
5,59,94,84
5,58,100,232
5,58,96,72
5,58,96,84
5,56,76,248
5,54,68,44
5,57,104,404
5,57,100,84
5,57,94,88
5,57,96,80
5,57,96,316
5,59,94,192
5,52,96,12
5,52,96,96
5,52,94,96
5,66,100,5528
5,64,78,552
5,63,76,72
5,59,72,84
6,36,70,0
6,42,44,0
6,42,42,4
6,42,44,4
6,42,46,4
6,42,44,4
6,38,64,0
6,42,44,4
6,42,44,4
6,42,38,4
6,36,54,0
6,36,60,4
6,42,44,0
6,42,48,4
6,36,64,4
6,42,50,0
6,42,42,4
6,42,48,4
6,38,70,0
6,42,42,4
6,42,42,4
6,36,54,0
6,42,52,4
6,36,68,4
6,42,44,0
6,42,38,4
6,42,40,4
6,42,40,4
6,38,68,4
6,42,46,0
6,42,36,4
6,42,40,4
6,40,58,4
6,42,46,0
6,36,72,4
6,42,38,0
6,40,66,4
6,42,42,0
6,36,74,4
6,42,40,0
6,42,32,4
6,40,72,4
6,38,68,0
6,42,46,0
6,42,36,4
6,40,66,4
6,42,42,0
6,40,70,4
6,42,42,0
6,36,70,4
6,42,44,0
6,42,42,4
6,42,44,4
6,42,46,4
6,42,44,4
6,38,64,0
6,42,44,4
6,42,44,4
6,42,38,4
6,36,54,0
6,36,60,4
6,42,44,0
6,42,48,4
6,36,64,4
6,42,50,0
6,42,42,4
6,42,48,4
6,38,70,0
6,42,42,4
6,42,42,4
6,36,54,0
6,42,52,4
6,36,68,4
6,42,44,0
6,42,38,4
6,42,40,4
6,42,40,4
6,38,68,4
6,42,46,0
6,42,36,4
6,42,40,4
6,40,58,4
6,42,46,0
