track,note,velocity,time
1,33,121,4608
1,33,109,74
1,33,106,46
1,38,95,104
1,38,106,70
1,40,94,60
1,40,95,96
1,40,107,88
1,38,126,140
1,40,103,14
1,38,119,192
1,33,119,4
1,33,105,60
1,33,110,90
1,38,110,192
1,38,127,118
1,40,101,56
1,40,117,122
1,40,117,120
1,38,127,146
1,40,95,192
1,45,117,44
1,33,126,192
1,33,115,94
1,38,110,168
1,38,117,116
1,40,93,66
1,40,95,90
1,40,117,110
1,38,124,186
1,38,115,88
1,38,107,72
1,33,119,74
1,33,105,60
1,33,110,90
1,38,110,192
1,38,127,118
1,40,101,56
1,40,117,122
1,40,117,120
1,38,127,146
1,40,95,192
1,45,117,44
1,33,126,192
1,33,115,94
1,38,110,168
1,38,117,116
1,40,93,66
1,40,95,90
1,40,117,110
1,38,124,186
1,38,115,88
1,38,107,72
1,33,124,74
1,33,127,338
1,38,121,192
1,38,126,360
1,40,117,24
1,38,127,156
1,38,117,54
1,45,109,34
1,38,127,20
1,33,127,20
1,33,127,380
1,38,117,192
1,38,126,194
1,40,106,8
1,40,121,118
1,40,115,144
1,38,124,192
1,38,102,122
1,45,119,28
1,43,110,32
1,33,127,32
1,33,127,380
1,38,107,192
1,38,117,82
1,38,127,214
1,40,110,34
1,38,127,202
1,43,126,60
1,38,127,192
1,40,112,158
1,33,126,0
1,33,127,368
1,38,119,0
1,38,126,410
1,40,98,28
1,40,126,104
1,38,121,84
1,45,115,72
1,40,117,192
1,38,127,178
1,33,119,72
1,33,105,60
1,33,110,90
1,38,110,192
1,38,127,118
1,40,101,56
1,40,117,122
1,40,117,120
1,38,127,146
1,40,95,192
1,45,117,44
1,33,126,192
1,33,115,94
1,38,110,168
1,38,117,116
1,40,93,66
1,40,95,90
1,40,117,110
1,38,124,186
1,38,115,88
1,38,107,72
1,33,119,74
1,33,105,60
1,33,110,90
1,38,110,192
1,38,127,118
1,40,101,56
1,40,117,122
1,40,117,120
1,38,127,146
1,40,95,192
1,45,117,44
1,33,126,192
1,33,115,94
1,38,110,168
1,38,117,116
1,40,93,66
1,40,95,90
1,40,117,110
1,38,124,186
1,38,115,88
1,38,107,72
1,33,124,74
1,33,127,338
1,38,121,192
1,38,126,360
1,40,117,24
1,38,127,156
1,38,117,54
1,45,109,34
1,38,127,20
1,33,127,20
1,33,127,380
1,38,117,192
1,38,126,194
1,40,106,8
1,40,121,118
1,40,115,144
1,38,124,192
1,38,102,122
1,45,119,28
1,43,110,32
1,33,127,32
1,33,127,380
1,38,107,192
1,38,117,82
1,38,127,214
1,40,110,34
1,38,127,202
1,43,126,60
1,38,127,192
1,40,112,158
1,33,126,0
1,33,127,368
1,38,119,0
1,38,126,410
1,40,98,28
1,40,126,104
1,38,121,84
1,45,115,72
1,40,117,192
1,38,127,178
1,33,119,72
1,33,105,60
1,33,110,90
1,38,110,192
1,38,127,118
1,40,101,56
1,40,117,122
1,40,117,120
1,38,127,146
1,40,95,192
1,45,117,44
1,33,126,192
1,33,115,94
1,38,110,168
1,38,117,116
1,40,93,66
1,40,95,90
1,40,117,110
1,38,124,186
1,38,115,88
1,38,107,72
1,33,119,74
1,33,105,60
1,33,110,90
1,38,110,192
1,38,127,118
1,40,101,56
1,40,117,122
1,40,117,120
1,38,127,146
1,40,95,192
1,45,117,44
1,33,126,192
1,33,115,94
1,38,110,168
1,38,117,116
1,40,93,66
1,40,95,90
1,40,117,110
1,38,124,186
1,38,115,88
1,38,107,72
1,33,119,74
1,33,105,60
1,33,110,90
1,38,110,192
1,38,127,118
1,40,101,56
1,40,117,122
1,40,117,120
1,38,127,146
1,40,95,192
1,45,117,44
1,33,126,192
1,33,115,94
1,38,110,168
1,38,117,116
1,40,93,66
1,40,95,90
1,40,117,110
1,38,124,186
1,38,115,88
1,38,107,72
1,33,119,74
1,33,105,60
1,33,110,90
1,38,110,192
1,38,127,118
1,40,101,56
1,40,117,122
1,40,117,120
1,38,127,146
1,40,95,192
1,45,117,44
1,33,126,192
1,33,115,94
1,38,110,168
1,38,117,116
1,40,93,66
1,40,95,90
1,40,117,110
1,38,124,186
1,38,115,88
1,38,107,72
1,33,119,74
1,33,105,60
1,33,110,90
1,38,110,192
1,38,127,118
1,40,101,56
1,40,117,122
1,40,117,120
1,38,127,146
1,40,95,192
1,45,117,44
1,33,126,192
1,33,115,94
1,38,110,168
1,38,117,116
1,40,93,66
1,40,95,90
1,40,117,110
1,38,124,186
1,38,115,88
1,38,107,72
1,33,119,74
1,33,105,60
1,33,110,90
1,38,110,192
1,38,127,118
1,40,101,56
1,40,117,122
1,40,117,120
1,38,127,146
1,40,95,192
1,45,117,44
1,33,126,192
1,33,115,94
1,38,110,168
1,38,117,116
1,40,93,66
1,40,95,90
1,40,117,110
1,38,124,186
1,38,115,88
1,38,107,72
1,33,124,74
1,33,127,338
1,38,121,192
1,38,126,360
1,40,117,24
1,38,127,156
1,38,117,54
1,45,109,34
1,38,127,20
1,33,127,20
1,33,127,380
1,38,117,192
1,38,126,194
1,40,106,8
1,40,121,118
1,40,115,144
1,38,124,192
1,38,102,122
1,45,119,28
1,43,110,32
1,33,127,32
1,33,127,380
1,38,107,192
1,38,117,82
1,38,127,214
1,40,110,34
1,38,127,202
1,43,126,60
1,38,127,192
1,40,112,158
1,33,126,0
1,33,127,368
1,38,119,0
1,38,126,410
1,40,98,28
1,40,126,104
1,38,121,84
1,45,115,72
1,40,117,192
1,38,127,178
1,33,126,72
1,33,127,368
1,38,119,0
1,38,126,410
1,40,98,28
1,40,126,104
1,38,121,84
1,45,115,72
1,40,117,192
1,38,127,178
1,33,119,72
1,33,105,60
1,33,110,90
1,38,110,192
1,38,127,118
1,40,101,56
1,40,117,122
1,40,117,120
1,38,127,146
1,40,95,192
1,45,117,44
1,33,126,192
1,33,115,94
1,38,110,168
1,38,117,116
1,40,93,66
1,40,95,90
1,40,117,110
1,38,124,186
1,38,115,88
1,38,107,72
1,33,119,74
1,33,105,60
1,33,110,90
1,38,110,192
1,38,127,118
1,40,101,56
1,40,117,122
1,40,117,120
1,38,127,146
1,40,95,192
1,45,117,44
1,33,126,192
1,33,115,94
1,38,110,168
1,38,117,116
1,40,93,66
1,40,95,90
1,40,117,110
1,38,124,186
1,38,115,88
1,38,107,72
1,33,119,74
1,33,105,60
1,33,110,90
1,38,110,192
1,38,127,118
1,40,101,56
1,40,117,122
1,40,117,120
1,38,127,146
1,40,95,192
1,45,117,44
1,33,126,192
1,33,115,94
1,38,110,168
1,38,117,116
1,40,93,66
1,40,95,90
1,40,117,110
1,38,124,186
1,38,115,88
1,38,107,72
1,33,127,74
2,64,117,1152
2,57,113,48
2,57,110,100
2,57,120,108
2,66,92,452
2,57,90,0
2,62,97,0
2,57,97,88
2,62,104,0
2,66,100,0
2,67,99,232
2,64,88,0
2,71,86,0
2,64,86,72
2,67,94,0
2,71,85,0
2,64,94,92
2,67,104,0
2,71,90,0
2,62,82,472
2,69,88,0
2,66,84,0
2,62,88,82
2,69,97,0
2,66,100,0
2,69,86,278
2,61,81,0
2,64,90,0
2,69,86,96
2,64,92,0
2,61,73,0
2,61,81,104
2,64,99,0
2,69,94,0
2,62,78,452
2,69,82,0
2,66,81,0
2,62,86,96
2,69,88,0
2,66,86,0
2,67,80,228
2,71,74,0
2,64,72,0
2,64,71,96
2,67,82,0
2,71,75,0
2,67,86,96
2,71,78,0
2,64,74,0
2,69,78,442
2,62,71,0
2,66,79,0
2,62,76,108
2,69,83,0
2,66,81,0
2,69,86,254
2,61,81,0
2,64,90,0
2,69,86,96
2,64,92,0
2,61,73,0
2,61,81,104
2,64,99,0
2,69,94,0
2,62,78,452
2,69,82,0
2,66,81,0
2,62,86,96
2,69,88,0
2,66,86,0
2,67,80,228
2,71,74,0
2,64,72,0
2,64,71,96
2,67,82,0
2,71,75,0
2,67,86,96
2,71,78,0
2,64,74,0
2,69,78,442
2,62,71,0
2,66,79,0
2,62,76,108
2,69,83,0
2,66,81,0
2,69,86,254
2,61,81,0
2,64,90,0
2,69,86,96
2,64,92,0
2,61,73,0
2,61,81,104
2,64,99,0
2,69,94,0
2,62,78,452
2,69,82,0
2,66,81,0
2,62,86,96
2,69,88,0
2,66,86,0
2,67,80,228
2,71,74,0
2,64,72,0
2,64,71,96
2,67,82,0
2,71,75,0
2,67,86,96
2,71,78,0
2,64,74,0
2,69,78,442
2,62,71,0
2,66,79,0
2,62,76,108
2,69,83,0
2,66,81,0
2,69,86,254
2,61,81,0
2,64,90,0
2,69,86,96
2,64,92,0
2,61,73,0
2,61,81,104
2,64,99,0
2,69,94,0
2,62,78,452
2,69,82,0
2,66,81,0
2,62,86,96
2,69,88,0
2,66,86,0
2,67,80,228
2,71,74,0
2,64,72,0
2,64,71,96
2,67,82,0
2,71,75,0
2,67,86,96
2,71,78,0
2,64,74,0
2,69,78,442
2,62,71,0
2,66,79,0
2,62,76,108
2,69,83,0
2,66,81,0
2,69,86,254
2,61,81,0
2,64,90,0
2,69,86,96
2,64,92,0
2,61,73,0
2,61,81,104
2,64,99,0
2,69,94,0
2,62,78,452
2,69,82,0
2,66,81,0
2,62,86,96
2,69,88,0
2,66,86,0
2,67,80,228
2,71,74,0
2,64,72,0
2,64,71,96
2,67,82,0
2,71,75,0
2,67,86,96
2,71,78,0
2,64,74,0
2,69,78,442
2,62,71,0
2,66,79,0
2,62,76,108
2,69,83,0
2,66,81,0
2,45,85,254
2,57,83,0
2,52,76,0
2,64,83,0
2,61,86,0
2,61,86,500
2,57,78,0
2,64,80,0
2,69,85,118
2,62,76,0
2,66,89,0
2,50,85,0
2,62,74,488
2,69,79,0
2,66,77,0
2,67,82,116
2,64,74,0
2,71,75,0
2,52,74,0
2,67,88,124
2,71,82,0
2,64,79,0
2,52,74,0
2,67,88,130
2,64,78,0
2,71,82,0
2,69,82,288
2,62,78,0
2,50,85,0
2,66,79,0
2,57,76,0
2,62,82,136
2,69,88,0
2,66,86,0
2,45,82,302
2,64,80,0
2,57,82,0
2,61,81,0
2,52,68,0
2,61,84,504
2,57,75,0
2,64,79,0
2,69,83,106
2,62,74,0
2,66,77,0
2,62,66,512
2,69,78,0
2,66,77,0
2,67,79,122
2,64,72,0
2,71,74,0
2,52,72,0
2,67,88,132
2,71,80,0
2,64,82,0
2,67,86,124
2,64,78,0
2,71,79,0
2,50,75,376
2,62,71,0
2,69,78,0
2,66,75,0
2,57,68,0
2,62,82,136
2,69,83,0
2,66,84,0
2,62,78,124
2,69,79,0
2,66,75,0
2,45,62,136
2,57,79,0
2,64,80,0
2,61,79,0
2,52,66,0
2,61,66,512
2,57,68,0
2,64,72,0
2,69,79,114
2,62,76,0
2,66,77,0
2,62,73,522
2,69,78,0
2,66,77,0
2,67,75,122
2,71,70,0
2,64,69,0
2,52,74,0
2,67,88,138
2,71,80,0
2,64,82,0
2,52,78,0
2,67,86,136
2,64,82,0
2,71,80,0
2,50,82,432
2,66,81,0
2,69,82,0
2,57,70,0
2,62,74,0
2,69,70,120
2,66,64,0
2,62,69,0
2,52,70,104
2,64,75,120
2,57,76,0
2,61,79,0
2,57,72,496
2,61,75,0
2,64,74,0
2,69,70,114
2,62,73,0
2,66,75,0
2,50,86,0
2,69,76,510
2,62,75,0
2,66,79,0
2,71,76,104
2,67,85,0
2,64,72,0
2,67,82,124
2,64,74,0
2,71,75,0
2,67,86,108
2,71,79,0
2,64,76,0
2,50,82,394
2,69,79,0
2,66,81,0
2,62,75,0
2,57,76,0
2,62,79,120
2,69,85,0
2,66,81,0
2,50,92,0
2,57,78,0
2,69,86,270
2,61,81,0
2,64,90,0
2,69,86,96
2,64,92,0
2,61,73,0
2,61,81,104
2,64,99,0
2,69,94,0
2,62,78,452
2,69,82,0
2,66,81,0
2,62,86,96
2,69,88,0
2,66,86,0
2,67,80,228
2,71,74,0
2,64,72,0
2,64,71,96
2,67,82,0
2,71,75,0
2,67,86,96
2,71,78,0
2,64,74,0
2,69,78,442
2,62,71,0
2,66,79,0
2,62,76,108
2,69,83,0
2,66,81,0
2,69,86,254
2,61,81,0
2,64,90,0
2,69,86,96
2,64,92,0
2,61,73,0
2,61,81,104
2,64,99,0
2,69,94,0
2,62,78,452
2,69,82,0
2,66,81,0
2,62,86,96
2,69,88,0
2,66,86,0
2,67,80,228
2,71,74,0
2,64,72,0
2,64,71,96
2,67,82,0
2,71,75,0
2,67,86,96
2,71,78,0
2,64,74,0
2,69,78,442
2,62,71,0
2,66,79,0
2,62,76,108
2,69,83,0
2,66,81,0
2,69,86,254
2,61,81,0
2,64,90,0
2,69,86,96
2,64,92,0
2,61,73,0
2,61,81,104
2,64,99,0
2,69,94,0
2,62,78,452
2,69,82,0
2,66,81,0
2,62,86,96
2,69,88,0
2,66,86,0
2,67,80,228
2,71,74,0
2,64,72,0
2,64,71,96
2,67,82,0
2,71,75,0
2,67,86,96
2,71,78,0
2,64,74,0
2,69,78,442
2,62,71,0
2,66,79,0
2,62,76,108
2,69,83,0
2,66,81,0
2,69,86,254
2,61,81,0
2,64,90,0
2,69,86,96
2,64,92,0
2,61,73,0
2,61,81,104
2,64,99,0
2,69,94,0
2,62,78,452
2,69,82,0
2,66,81,0
2,62,86,96
2,69,88,0
2,66,86,0
2,67,80,228
2,71,74,0
2,64,72,0
2,64,71,96
2,67,82,0
2,71,75,0
2,67,86,96
2,71,78,0
2,64,74,0
2,69,78,442
2,62,71,0
2,66,79,0
2,62,76,108
2,69,83,0
2,66,81,0
2,45,85,254
2,57,83,0
2,52,76,0
2,64,83,0
2,61,86,0
2,61,86,500
2,57,78,0
2,64,80,0
2,69,85,118
2,62,76,0
2,66,89,0
2,50,85,0
2,62,74,488
2,69,79,0
2,66,77,0
2,67,82,116
2,64,74,0
2,71,75,0
2,52,74,0
2,67,88,124
2,71,82,0
2,64,79,0
2,52,74,0
2,67,88,130
2,64,78,0
2,71,82,0
2,69,82,288
2,62,78,0
2,50,85,0
2,66,79,0
2,57,76,0
2,62,82,136
2,69,88,0
2,66,86,0
2,45,82,302
2,64,80,0
2,57,82,0
2,61,81,0
2,52,68,0
2,61,84,504
2,57,75,0
2,64,79,0
2,69,83,106
2,62,74,0
2,66,77,0
2,62,66,512
2,69,78,0
2,66,77,0
2,67,79,122
2,64,72,0
2,71,74,0
2,52,72,0
2,67,88,132
2,71,80,0
2,64,82,0
2,67,86,124
2,64,78,0
2,71,79,0
2,50,75,376
2,62,71,0
2,69,78,0
2,66,75,0
2,57,68,0
2,62,82,136
2,69,83,0
2,66,84,0
2,62,78,124
2,69,79,0
2,66,75,0
2,45,62,136
2,57,79,0
2,64,80,0
2,61,79,0
2,52,66,0
2,61,66,512
2,57,68,0
2,64,72,0
2,69,79,114
2,62,76,0
2,66,77,0
2,62,73,522
2,69,78,0
2,66,77,0
2,67,75,122
2,71,70,0
2,64,69,0
2,52,74,0
2,67,88,138
2,71,80,0
2,64,82,0
2,52,78,0
2,67,86,136
2,64,82,0
2,71,80,0
2,50,82,432
2,66,81,0
2,69,82,0
2,57,70,0
2,62,74,0
2,69,70,120
2,66,64,0
2,62,69,0
2,52,70,104
2,64,75,120
2,57,76,0
2,61,79,0
2,57,72,496
2,61,75,0
2,64,74,0
2,69,70,114
2,62,73,0
2,66,75,0
2,50,86,0
2,69,76,510
2,62,75,0
2,66,79,0
2,71,76,104
2,67,85,0
2,64,72,0
2,67,82,124
2,64,74,0
2,71,75,0
2,67,86,108
2,71,79,0
2,64,76,0
2,50,82,394
2,69,79,0
2,66,81,0
2,62,75,0
2,57,76,0
2,62,79,120
2,69,85,0
2,66,81,0
2,50,92,0
2,57,78,0
2,69,86,270
2,61,81,0
2,64,90,0
2,69,86,96
2,64,92,0
2,61,73,0
2,61,81,104
2,64,99,0
2,69,94,0
2,62,78,452
2,69,82,0
2,66,81,0
2,62,86,96
2,69,88,0
2,66,86,0
2,67,80,228
2,71,74,0
2,64,72,0
2,64,71,96
2,67,82,0
