track,note,velocity,time
0,60,0,0
0,60,0,0
0,60,0,0
0,60,0,0
0,60,0,0
0,60,0,0
0,60,0,0
0,60,0,0
0,60,0,267
0,60,0,0
0,60,0,0
0,60,0,0
0,60,0,0
0,60,0,0
0,60,0,0
0,60,0,0
0,62,0,23
0,62,0,0
0,62,0,0
0,62,0,0
0,62,0,0
0,62,0,0
0,62,0,0
0,62,0,0
0,62,0,413
0,62,0,0
0,62,0,0
0,62,0,0
0,62,0,0
0,62,0,0
0,62,0,0
0,62,0,0
0,64,0,31
0,64,0,0
0,64,0,0
0,64,0,0
0,64,0,0
0,64,0,0
0,64,0,0
0,64,0,0
0,42,127,20
0,36,90,0
0,61,74,1
0,57,56,0
0,52,57,0
0,42,0,20
0,44,127,39
0,36,0,9
0,44,0,7
0,36,78,44
0,46,127,0
0,46,0,99
0,42,127,21
0,40,127,0
0,42,0,79
0,42,29,41
0,40,0,13
0,40,127,47
0,64,0,1
0,64,0,0
0,64,0,0
0,64,0,0
0,64,0,0
0,64,0,0
0,64,0,0
0,64,0,0
0,42,0,5
0,36,0,7
0,65,0,36
0,65,0,0
0,65,0,0
0,65,0,0
0,65,0,0
0,65,0,0
0,65,0,0
0,65,0,0
0,42,127,11
0,64,88,1
0,36,47,59
0,42,0,9
0,36,0,15
0,42,31,36
0,36,99,0
0,42,0,29
0,40,0,14
0,42,28,17
0,42,0,23
0,42,127,37
0,40,127,0
0,42,0,78
0,44,88,42
0,36,0,8
0,44,0,36
0,46,127,16
0,36,55,0
0,65,0,6
0,65,0,0
0,65,0,0
0,65,0,0
0,65,0,0
0,65,0,0
0,65,0,0
0,65,0,0
0,36,0,22
0,46,0,11
0,67,0,6
0,67,0,0
0,67,0,0
0,67,0,0
0,67,0,0
0,67,0,0
0,67,0,0
0,67,0,0
0,44,127,15
0,36,86,0
0,69,57,1
0,44,0,37
0,36,0,22
0,46,127,0
0,44,127,30
0,46,0,29
0,36,92,1
0,36,0,71
0,40,0,0
0,44,0,12
0,42,127,37
0,40,127,0
0,42,0,68
0,42,27,52
0,40,0,4
0,42,0,39
0,40,127,17
0,40,0,18
0,42,127,42
0,42,0,33
0,50,124,24
0,50,0,25
0,48,115,3
0,48,0,28
0,47,88,0
0,45,112,36
0,47,0,2
0,45,0,14
0,42,127,15
0,36,70,0
0,42,127,0
0,36,0,3
0,42,0,5
0,42,0,6
0,42,127,16
0,36,105,0
0,42,0,13
0,36,0,5
0,40,124,8
0,42,127,4
0,40,127,0
0,40,0,7
0,42,0,9
0,69,0,3
0,40,0,1
0,64,0,9
0,52,0,12
0,61,0,0
0,42,127,19
0,57,0,19
0,42,0,2
0,44,127,39
0,67,0,4
0,67,0,0
0,67,0,0
0,67,0,0
0,67,0,0
0,67,0,0
0,67,0,0
0,67,0,0
0,44,0,44
0,46,127,12
0,46,0,44
0,45,68,8
0,61,67,4
0,69,67,0
0,64,68,0
0,59,66,0
0,57,112,3
0,36,108,1
0,42,127,0
0,33,127,1
0,73,66,0
0,69,68,0
0,64,73,0
0,57,54,0
0,45,48,0
0,57,42,0
0,59,47,0
0,61,36,0
0,52,43,0
0,64,51,0
0,57,124,1
0,61,127,1
0,52,69,0
0,45,124,0
0,57,0,47
0,42,0,28
0,36,0,11
0,42,35,31
0,52,25,5
0,49,35,4
0,33,0,7
0,42,0,17
0,64,127,25
0,42,34,2
0,36,62,0
0,33,127,1
0,49,0,12
0,42,0,12
0,69,0,11
0,52,0,13
0,64,0,10
0,40,127,1
0,42,127,0
0,61,0,2
0,36,0,3
0,59,0,2
0,45,0,8
0,33,0,15
0,61,0,13
0,45,0,11
0,45,127,7
0,57,0,10
0,42,0,3
0,45,0,2
0,64,0,3
0,57,0,0
0,45,0,6
0,57,0,1
0,61,0,0
0,69,0,3
0,73,0,1
0,56,88,1
0,44,112,14
0,59,127,2
0,56,108,2
0,64,81,3
0,59,99,0
0,44,79,0
0,56,83,0
0,42,27,8
0,36,105,0
0,32,127,1
0,72,45,0
0,68,54,0
0,71,44,0
0,44,67,0
0,64,72,0
0,56,43,0
0,42,0,24
0,72,0,27
0,44,0,0
0,42,31,8
0,42,0,20
0,32,0,37
0,42,127,3
0,36,0,1
0,36,35,59
0,32,127,1
0,32,0,3
0,42,0,10
0,36,0,5
0,51,27,41
0,42,29,0
0,36,105,0
0,32,127,1
0,32,63,0
0,32,0,3
0,52,0,10
0,42,0,17
0,64,0,12
0,40,0,3
0,52,64,13
0,64,127,60
0,42,127,1
0,40,127,0
0,59,0,15
0,51,0,16
0,32,0,5
0,59,108,21
0,27,115,4
0,56,0,1
0,59,0,3
0,27,0,4
0,56,0,0
0,64,0,6
0,42,0,9
0,36,0,7
0,56,115,27
0,42,27,2
0,30,127,1
0,56,0,41
0,30,0,2
0,59,0,8
0,59,0,4
0,44,0,3
0,36,51,1
0,32,127,1
0,44,0,1
0,42,0,13
0,52,0,0
0,36,0,14
0,56,0,0
0,68,0,0
0,42,62,2
0,64,0,2
0,32,0,2
0,61,57,17
0,54,61,0
0,42,61,0
0,69,69,0
0,66,50,0
0,42,102,2
0,57,127,0
0,61,127,0
0,64,0,2
0,56,0,0
0,52,115,1
0,42,127,3
0,36,115,0
0,52,0,1
0,30,127,0
0,54,83,0
0,66,94,0
0,69,94,0
0,57,70,0
0,61,39,0
0,71,0,3
0,64,0,6
0,42,0,68
0,36,0,40
0,42,51,2
0,52,0,36
0,61,0,2
0,57,0,1
0,30,0,11
0,61,0,7
0,52,105,1
0,57,105,0
0,61,115,0
0,36,94,2
0,42,127,1
0,69,0,4
0,40,0,0
0,42,0,3
0,66,0,4
0,52,0,6
0,54,0,2
0,42,0,1
0,42,0,2
0,57,0,0
0,61,0,8
0,54,0,5
0,42,0,19
0,42,127,5
0,40,127,0
0,36,0,43
0,57,0,4
0,61,0,12
0,30,75,2
0,49,49,0
0,69,0,5
0,42,0,3
0,30,0,3
0,42,0,17
0,49,90,2
0,59,61,0
0,49,58,16
0,68,61,4
0,64,72,0
0,66,0,1
0,59,99,0
0,49,74,5
0,37,54,0
0,68,112,0
0,59,108,0
0,64,119,0
0,42,42,3
0,36,97,0
0,25,127,1
0,64,92,0
0,59,62,0
0,68,124,0
0,64,90,0
0,68,49,0
0,25,0,45
0,37,127,15
0,42,0,9
0,42,127,50
0,32,124,1
0,37,0,4
0,36,0,9
0,32,0,25
0,71,102,21
0,36,34,0
0,28,127,1
0,42,0,23
0,36,0,1
0,28,0,22
0,42,41,13
0,36,92,0
0,25,127,1
0,59,0,20
0,42,0,35
0,68,0,5
0,40,0,3
0,59,60,0
0,42,127,56
0,40,127,0
0,68,127,4
0,25,0,18
0,64,0,4
0,49,0,30
0,64,105,3
0,25,124,2
0,49,0,7
0,25,0,1
0,59,0,8
0,59,0,8
0,42,0,0
0,68,0,4
0,64,0,10
0,59,92,21
0,44,127,0
0,25,127,1
0,49,0,28
0,44,0,15
0,49,37,11
0,37,0,1
0,36,0,3
0,46,119,1
0,71,0,4
0,25,0,1
0,68,0,5
0,68,0,4
0,59,0,2
0,68,0,4
0,59,0,4
0,64,0,4
0,64,0,9
0,46,0,3
0,49,0,1
0,64,0,1
0,38,92,8
0,49,0,1
0,57,97,4
0,62,127,0
0,66,124,0
0,50,61,3
0,57,59,0
0,66,44,0
0,64,50,0
0,62,61,0
0,42,127,2
0,36,74,0
0,26,127,1
0,50,94,0
0,66,105,0
0,62,108,0
0,50,66,0
0,62,67,0
0,57,66,0
0,66,29,0
0,59,0,10
0,42,0,55
0,50,42,49
0,42,30,5
0,36,0,9
0,42,0,10
0,26,0,0
0,57,0,15
0,66,0,4
0,62,0,3
0,40,0,13
0,66,112,5
0,62,99,0
0,57,112,0
0,42,24,1
0,36,86,0
0,26,127,1
0,42,0,15
0,50,0,23
0,66,0,7
0,50,0,7
0,57,0,4
0,62,0,1
0,26,0,2
0,42,127,0
0,40,127,0
0,30,112,1
0,64,0,2
0,66,0,34
0,36,0,11
0,62,0,1
0,30,0,1
0,66,0,7
0,50,49,2
0,33,75,2
0,57,79,0
0,38,0,2
0,50,0,6
0,42,0,2
0,33,0,5
0,62,0,6
0,66,0,3
0,57,0,5
0,42,32,0
0,64,84,1
0,62,0,4
0,50,0,2
0,64,61,13
0,49,72,0
0,61,73,0
0,57,70,0
0,69,69,0
0,61,102,8
0,64,124,0
0,57,105,0
0,37,119,0
0,36,102,2
0,50,0,1
0,42,0,0
0,37,127,0
0,69,90,0
0,71,97,0
0,61,40,0
0,49,38,0
0,64,66,0
0,57,0,4
0,73,40,26
0,42,25,29
0,42,0,20
0,42,127,40
0,37,0,26
0,33,112,35
0,69,127,6
0,42,0,2
0,36,0,1
0,33,0,2
0,36,59,48
0,42,22,0
0,37,127,1
0,57,0,5
0,36,0,20
0,42,0,2
0,36,94,32
0,64,0,3
0,57,57,1
0,49,0,10
0,40,0,12
0,40,127,34
0,42,127,0
0,64,127,4
0,64,0,16
0,61,0,2
0,57,0,4
0,37,0,3
0,61,127,31
0,36,0,6
0,61,0,2
0,49,0,9
0,57,0,2
0,57,99,39
0,33,72,3
0,37,0,3
0,64,0,5
0,69,0,4
0,71,0,13
0,42,0,3
0,73,0,8
0,69,0,5
0,64,0,0
0,33,0,9
0,37,124,10
0,59,67,0
0,54,54,0
0,47,47,0
0,57,83,0
0,61,0,1
0,64,0,1
0,57,0,5
0,57,0,4
0,37,0,10
0,40,0,4
0,69,79,5
0,62,90,0
0,61,0,5
0,47,112,21
0,59,88,1
0,62,112,0
0,66,124,0
0,42,127,2
0,36,81,0
0,35,127,1
0,74,108,0
0,66,86,0
0,69,0,15
0,42,0,12
0,78,39,3
0,36,0,84
0,54,0,4
0,40,124,1
0,54,40,3
0,35,0,9
0,47,0,5
0,48,124,36
0,42,112,7
0,42,127,0
0,54,0,1
0,35,127,0
0,69,127,4
0,42,0,3
0,42,0,8
0,35,0,5
0,47,0,6
0,42,115,3
0,42,0,8
0,47,124,19
0,40,0,2
0,44,127,1
0,48,0,7
0,78,0,7
0,74,0,5
0,44,0,9
0,47,0,9
0,59,0,12
0,81,127,3
0,69,0,7
0,66,0,0
0,36,61,1
0,46,127,0
0,62,0,8
0,78,127,2
0,40,108,2
0,57,0,8
0,36,0,4
0,57,102,5
0,74,127,1
0,52,64,1
0,66,54,0
0,74,53,0
0,52,63,0
0,40,66,0
0,62,0,5
0,59,0,3
0,46,0,5
0,81,0,3
0,62,127,1
0,66,0,2
0,69,105,5
0,78,0,3
0,57,92,1
0,42,127,1
0,36,105,0
0,28,127,1
0,62,68,0
0,66,59,0
0,57,88,0
0,66,115,1
0,74,0,8
0,69,0,8
0,74,127,105
0,36,0,6
0,69,124,12
0,66,127,20
0,57,0,1
0,64,102,21
0,42,0,2
0,42,24,55
0,42,0,25
0,59,119,33
0,42,26,2
0,59,0,7
0,59,124,10
0,42,0,4
0,59,0,5
0,59,124,12
0,59,0,11
0,59,127,8
0,42,127,3
0,59,0,20
0,42,0,29
0,59,64,3
0,59,0,24
0,59,119,37
0,59,0,8
0,40,0,5
0,66,0,34
0,66,0,6
0,74,0,1
0,69,0,3
0,52,0,22
0,62,0,1
0,57,0,0
0,69,14,0
0,40,0,11
0,28,0,2
0,52,0,3
0,57,0,17
0,62,0,5
0,66,0,1
0,64,0,2
0,69,0,1
0,66,0,0
0,74,0,2
0,45,86,2
0,70,119,1
0,64,105,2
0,59,94,2
0,69,0,10
0,61,30,43
0,70,0,28
0,59,0,7
0,70,24,28
0,60,26,0
0,82,22,0
0,82,0,20
0,60,0,5
0,70,0,15
0,61,0,6
0,64,0,7
0,61,78,5
0,64,60,1
0,57,79,0
0,70,24,1
0,60,52,0
0,82,13,0
0,82,0,18
0,70,0,7
0,60,0,26
0,82,92,9
0,70,88,0
0,52,36,59
0,64,0,3
0,45,0,2
0,57,0,13
0,70,0,9
0,82,0,4
0,61,0,1
0,52,0,22
0,45,92,1
0,61,99,3
0,66,119,0
0,57,67,0
0,82,23,3
0,70,23,0
0,64,38,0
0,70,0,28
0,64,0,6
0,62,83,20
0,61,0,2
0,64,81,4
0,82,0,33
0,64,0,15
0,82,41,12
0,70,49,0
0,70,0,29
0,57,0,18
0,62,0,3
0,57,61,9
0,62,69,0
0,70,25,1
0,70,0,26
0,70,18,34
0,60,24,0
0,70,0,23
0,60,0,2
0,45,0,14
0,45,45,20
0,70,26,1
0,60,36,0
0,82,0,18
0,70,0,1
0,60,0,4
0,62,0,21
0,66,0,1
0,57,0,7
0,62,102,7
0,66,94,1
0,82,84,0
0,70,115,0
0,60,102,0
0,57,30,5
0,57,0,13
0,70,0,12
0,57,83,27
0,70,27,3
0,70,0,26
0,82,0,7
0,45,0,2
0,45,50,18
0,60,0,2
0,82,23,5
0,64,33,0
0,64,0,30
0,64,108,30
0,70,1,0
0,70,0,14
0,57,0,3
0,66,0,8
0,45,0,3
0,82,0,1
0,62,0,4
0,45,84,25
0,64,115,1
0,59,108,0
0,82,41,1
0,70,47,0
0,70,0,29
0,61,112,25
0,70,28,6
0,59,0,5
0,70,0,25
0,70,26,30
0,60,32,0
0,60,0,23
0,70,0,0
0,82,0,12
0,61,0,10
0,64,0,4
0,64,0,4
0,64,74,2
0,61,70,0
0,57,84,0
0,82,25,5
0,70,29,0
0,60,86,0
0,70,0,24
0,82,0,1
0,82,90,35
0,70,88,0
0,45,0,19
0,70,0,11
0,45,43,19
0,70,29,11
0,64,25,0
0,60,0,11
0,64,0,9
0,57,0,3
0,45,0,7
0,70,0,4
0,64,0,0
0,61,0,1
0,82,0,3
0,66,112,17
0,61,92,0
0,57,92,0
0,45,94,0
0,82,23,5
0,70,26,0
0,64,60,0
0,70,0,29
0,61,0,29
0,62,94,0
0,70,25,2
0,70,0,28
0,82,0,6
0,82,37,26
0,70,41,0
0,70,0,30
0,70,28,30
0,70,0,26
0,70,29,34
0,60,45,0
0,70,0,21
0,60,0,4
0,70,29,35
0,60,102,0
0,64,0,6
0,66,0,14
0,82,0,0
0,70,0,0
0,66,127,38
0,82,75,2
0,70,75,0
0,62,0,21
0,62,92,31
0,57,0,16
0,70,0,22
0,57,55,24
0,70,27,6
0,64,36,0
0,60,0,11
0,45,0,9
0,70,0,8
0,64,0,7
0,45,75,18
0,70,28,7
0,64,92,0
0,66,0,14
0,57,0,5
0,70,0,7
0,82,0,5
0,45,0,3
0,62,0,14
0,59,99,12
0,64,127,0
0,82,33,0
0,70,44,0
0,45,92,3
0,70,0,26
0,61,97,29
0,59,0,28
0,60,31,34
0,60,0,25
0,64,0,8
0,57,105,24
0,64,94,0
0,70,29,3
0,60,92,0
0,70,0,20
0,64,0,1
0,82,0,0
0,82,88,39
0,70,92,0
0,45,0,7
0,70,0,23
0,45,60,23
0,60,0,1
0,70,27,6
0,64,25,0
0,61,0,2
0,57,0,5
0,64,0,14
0,70,0,8
0,64,0,2
0,45,0,0
0,44,97,21
0,64,88,0
0,59,97,0
0,56,115,0
0,70,26,8
0,64,81,0
0,70,0,29
0,70,24,31
0,70,0,19
0,82,0,16
0,82,20,25
0,70,36,0
0,70,0,25
0,56,0,21
0,70,24,14
0,70,0,21
0,64,0,35
0,70,27,4
0,60,84,0
0,70,0,21
0,64,0,36
0,60,0,3
0,56,73,0
0,70,29,0
0,62,119,0
0,70,0,21
0,82,0,5
0,64,108,27
0,82,84,7
0,70,86,0
0,59,0,16
0,70,0,13
0,82,0,10
0,59,69,9
0,82,29,12
0,70,35,0
0,56,0,4
0,44,0,9
0,70,0,15
0,82,0,11
0,56,53,16
0,82,18,5
0,70,25,0
0,64,37,0
0,59,0,13
0,62,0,1
0,64,0,4
0,70,0,2
0,64,0,11
0,44,35,22
0,70,22,7
0,64,84,0
0,56,0,10
0,70,0,10
0,82,0,10
0,44,0,8
0,61,108,15
0,57,108,1
0,66,62,1
0,42,102,0
0,54,97,2
0,61,40,1
0,82,51,2
0,70,70,0
0,70,0,29
0,61,0,17
0,62,32,11
