track,note,velocity,time
1,28,127,2160
1,28,0,120
1,27,127,0
1,27,0,90
1,26,127,30
1,26,0,360
1,31,127,0
1,31,0,120
1,28,127,0
1,28,0,360
1,31,127,0
1,31,0,120
1,28,127,0
1,28,0,690
1,28,127,30
1,28,0,120
1,27,127,0
1,27,0,120
1,26,127,0
1,26,0,360
1,31,127,0
1,31,0,120
1,28,127,0
1,28,0,360
1,31,127,0
1,31,0,120
1,28,127,0
1,23,127,776
1,28,0,4
1,25,127,51
1,23,0,9
1,25,0,48
1,28,127,12
1,28,0,30
1,28,127,30
1,28,0,30
1,28,127,30
1,28,0,30
1,28,127,30
1,28,0,30
1,28,127,30
1,28,0,30
1,28,127,30
1,28,0,30
1,28,127,30
1,28,0,30
1,28,127,30
1,28,0,30
1,28,127,30
1,28,0,30
1,28,127,30
1,28,0,30
1,28,127,30
1,28,0,30
1,28,127,30
1,28,0,30
1,28,127,30
1,28,0,30
1,28,127,30
1,28,0,30
1,28,127,30
1,28,0,30
1,28,127,30
1,28,0,30
1,28,127,30
1,28,0,30
1,28,127,30
1,28,0,30
1,28,127,30
1,28,0,30
1,28,127,30
1,28,0,30
1,28,127,30
1,28,0,30
1,28,127,30
1,28,0,30
1,28,127,30
1,28,0,30
1,28,127,30
1,28,0,30
1,28,127,30
1,28,0,30
1,28,127,30
1,28,0,30
1,28,127,30
1,28,0,30
1,28,127,30
1,28,0,30
1,28,127,30
1,28,0,30
1,28,127,30
1,28,0,30
1,23,127,26
1,23,0,39
1,25,127,17
1,25,0,55
1,28,127,13
1,28,0,30
1,28,127,30
1,28,0,30
1,28,127,30
1,28,0,30
1,28,127,30
1,28,0,30
1,28,127,30
1,28,0,30
1,28,127,30
1,28,0,30
1,28,127,30
1,28,0,30
1,28,127,30
1,28,0,30
1,28,127,30
1,28,0,30
1,28,127,30
1,28,0,30
1,28,127,30
1,28,0,30
1,28,127,30
1,28,0,30
1,28,127,30
1,28,0,30
1,28,127,30
1,28,0,30
1,28,127,30
1,28,0,30
1,28,127,30
1,28,0,30
1,28,127,30
1,28,0,30
1,28,127,30
1,28,0,30
1,28,127,30
1,28,0,30
1,28,127,30
1,28,0,30
1,28,127,30
1,28,0,30
1,28,127,30
1,28,0,30
1,28,127,30
1,28,0,30
1,28,127,30
1,28,0,30
1,28,127,30
1,28,0,30
1,28,127,30
1,28,0,30
1,28,127,30
1,28,0,30
1,28,127,30
1,28,0,30
1,28,127,30
1,28,0,30
1,28,127,30
1,28,0,30
1,28,127,30
1,28,0,30
1,28,127,30
1,28,0,30
1,28,127,30
1,28,0,30
1,33,127,30
1,33,0,60
1,33,127,0
1,33,0,30
1,33,127,30
1,33,0,30
1,33,127,30
1,33,0,30
1,33,127,30
1,33,0,30
1,33,127,30
1,33,0,30
1,33,127,30
1,33,0,30
1,33,127,30
1,33,0,30
1,33,127,30
1,33,0,30
1,33,127,30
1,33,0,30
1,33,127,30
1,33,0,30
1,33,127,30
1,33,0,30
1,33,127,30
1,33,0,30
1,33,127,30
1,33,0,30
1,33,127,30
1,33,0,30
1,33,127,30
1,33,0,30
1,33,127,30
1,33,0,30
1,33,127,30
1,33,0,30
1,33,127,30
1,33,0,30
1,33,127,30
1,33,0,30
1,33,127,30
1,33,0,30
1,33,127,30
1,33,0,30
1,33,127,30
1,33,0,30
1,33,127,30
1,33,0,30
1,35,127,30
1,35,0,30
1,35,127,30
1,35,0,30
1,35,127,30
1,35,0,30
1,35,127,30
1,35,0,30
1,35,127,30
1,35,0,30
1,35,127,30
1,35,0,30
1,34,127,30
1,34,0,90
1,33,127,30
1,33,0,30
1,33,127,30
1,33,0,30
1,33,127,30
1,33,0,30
1,33,127,30
1,33,0,30
1,33,127,30
1,33,0,30
1,33,127,30
1,33,0,30
1,33,127,30
1,33,0,30
1,33,127,30
1,33,0,30
1,33,127,30
1,33,0,30
1,33,127,30
1,33,0,30
1,33,127,30
1,33,0,30
1,33,127,30
1,33,0,30
1,33,127,30
1,33,0,30
1,33,127,30
1,33,0,30
1,33,127,30
1,33,0,30
1,33,127,30
1,33,0,30
1,33,127,30
1,33,0,30
1,33,127,30
1,33,0,30
1,33,127,30
1,33,0,30
1,33,127,30
1,33,0,30
1,33,127,30
1,33,0,30
1,33,127,30
1,33,0,30
1,33,127,30
1,33,0,30
1,33,127,30
1,33,0,30
1,35,127,30
1,35,0,30
1,35,127,30
1,35,0,30
1,35,127,30
1,35,0,30
1,35,127,30
1,35,0,30
1,35,127,30
1,35,0,30
1,35,127,30
1,35,0,30
1,35,127,30
1,35,0,30
1,35,127,30
1,35,0,30
1,28,127,30
1,28,0,30
1,28,127,30
1,28,0,30
1,28,127,30
1,28,0,30
1,28,127,30
1,28,0,30
1,28,127,30
1,28,0,30
1,28,127,30
1,28,0,30
1,28,127,30
1,28,0,30
1,35,127,30
1,35,0,60
1,28,127,0
1,28,0,30
1,28,127,30
1,28,0,30
1,28,127,30
1,28,0,30
1,28,127,30
1,28,0,30
1,28,127,30
1,28,0,30
1,28,127,30
1,28,0,30
1,28,127,30
1,28,0,60
1,35,127,0
1,35,0,60
1,28,127,0
1,28,0,30
1,28,127,30
1,28,0,30
1,28,127,30
1,28,0,30
1,28,127,30
1,28,0,30
1,28,127,30
1,28,0,30
1,28,127,30
1,28,0,30
1,28,127,30
1,28,0,30
1,28,127,30
1,28,0,30
1,35,127,30
1,35,0,90
1,35,127,30
1,35,0,30
1,35,127,30
1,35,0,30
1,35,127,30
1,35,0,60
1,35,127,60
1,35,0,60
1,28,127,0
1,28,0,60
1,28,127,60
1,28,0,30
1,28,127,30
1,28,0,30
1,28,127,30
1,28,0,30
1,28,127,30
1,28,0,90
1,28,127,30
1,28,0,30
1,28,127,30
1,28,0,120
1,28,127,0
1,28,0,30
1,28,127,30
1,28,0,90
1,28,127,30
1,28,0,30
1,28,127,30
1,28,0,90
1,28,127,30
1,28,0,90
1,28,127,30
1,28,0,30
1,28,127,30
1,28,0,90
1,28,127,30
1,28,0,30
1,28,127,30
1,28,0,30
1,28,127,90
1,28,0,60
1,35,127,0
1,35,0,120
1,35,127,60
1,35,0,90
1,35,127,30
1,35,0,60
1,35,127,60
1,35,0,90
1,35,127,30
1,35,0,90
1,35,127,30
1,33,127,0
1,33,0,30
1,35,0,0
1,35,127,30
1,35,0,120
1,34,127,0
1,26,127,120
1,34,0,30
1,26,0,330
1,31,127,0
1,31,0,120
1,28,127,0
1,28,0,360
1,31,127,0
1,31,0,120
1,28,127,0
1,28,0,690
1,28,127,30
1,28,0,120
1,27,127,0
1,27,0,120
1,26,127,0
1,26,0,360
1,31,127,0
1,31,0,120
1,28,127,0
1,28,0,360
1,31,127,0
1,31,0,120
1,28,127,0
1,23,127,776
1,28,0,4
1,25,127,51
1,23,0,9
1,25,0,48
1,28,127,12
1,28,0,30
1,28,127,30
1,28,0,30
1,28,127,30
1,28,0,30
1,28,127,30
1,28,0,30
1,28,127,30
1,28,0,30
1,28,127,30
1,28,0,30
1,28,127,30
1,28,0,30
1,28,127,30
1,28,0,30
1,28,127,30
1,28,0,30
1,28,127,30
1,28,0,30
1,28,127,30
1,28,0,30
1,28,127,30
1,28,0,30
1,28,127,30
1,28,0,30
1,28,127,30
1,28,0,30
1,28,127,30
1,28,0,30
1,28,127,30
1,28,0,30
1,28,127,30
1,28,0,30
1,28,127,30
1,28,0,30
1,28,127,30
1,28,0,30
1,28,127,30
1,28,0,30
1,28,127,30
1,28,0,30
1,28,127,30
1,28,0,30
1,28,127,30
1,28,0,30
1,28,127,30
1,28,0,30
1,28,127,30
1,28,0,30
1,28,127,30
1,28,0,30
1,28,127,30
1,28,0,30
1,28,127,30
1,28,0,30
1,28,127,30
1,28,0,30
1,28,127,30
1,28,0,30
1,23,127,26
1,23,0,39
1,25,127,17
1,25,0,55
1,28,127,13
1,28,0,30
1,28,127,30
1,28,0,30
1,28,127,30
1,28,0,30
1,28,127,30
1,28,0,30
1,28,127,30
1,28,0,30
1,28,127,30
1,28,0,30
1,28,127,30
1,28,0,30
1,28,127,30
1,28,0,30
1,28,127,30
1,28,0,30
1,28,127,30
1,28,0,30
1,28,127,30
1,28,0,30
1,28,127,30
1,28,0,30
1,28,127,30
1,28,0,30
1,28,127,30
1,28,0,30
1,28,127,30
1,28,0,30
1,28,127,30
1,28,0,30
1,28,127,30
1,28,0,30
1,28,127,30
1,28,0,30
1,28,127,30
1,28,0,30
1,28,127,30
1,28,0,30
1,28,127,30
1,28,0,30
1,28,127,30
1,28,0,30
1,28,127,30
1,28,0,30
1,28,127,30
1,28,0,30
1,28,127,30
1,28,0,30
1,28,127,30
1,28,0,30
1,28,127,30
1,28,0,30
1,28,127,30
1,28,0,30
1,28,127,30
1,28,0,30
1,28,127,30
1,28,0,30
1,28,127,30
1,28,0,30
1,28,127,30
1,28,0,30
1,28,127,30
1,28,0,30
1,33,127,30
1,33,0,60
1,33,127,0
1,33,0,30
1,33,127,30
1,33,0,30
1,33,127,30
1,33,0,30
1,33,127,30
1,33,0,30
1,33,127,30
1,33,0,30
1,33,127,30
1,33,0,30
1,33,127,30
1,33,0,30
1,33,127,30
1,33,0,30
1,33,127,30
1,33,0,30
1,33,127,30
1,33,0,30
1,33,127,30
1,33,0,30
1,33,127,30
1,33,0,30
1,33,127,30
1,33,0,30
1,33,127,30
1,33,0,30
1,33,127,30
1,33,0,30
1,33,127,30
1,33,0,30
1,33,127,30
1,33,0,30
1,33,127,30
1,33,0,30
1,33,127,30
1,33,0,30
1,33,127,30
1,33,0,30
1,33,127,30
1,33,0,30
1,33,127,30
1,33,0,30
1,33,127,30
1,33,0,30
1,35,127,30
1,35,0,30
1,35,127,30
1,35,0,30
1,35,127,30
1,35,0,30
1,35,127,30
1,35,0,30
1,35,127,30
1,35,0,30
1,35,127,30
1,35,0,30
1,34,127,30
1,34,0,90
1,33,127,30
1,33,0,30
1,33,127,30
1,33,0,30
1,33,127,30
1,33,0,30
1,33,127,30
1,33,0,30
1,33,127,30
1,33,0,30
1,33,127,30
1,33,0,30
1,33,127,30
1,33,0,30
1,33,127,30
1,33,0,30
1,33,127,30
1,33,0,30
1,33,127,30
1,33,0,30
1,33,127,30
1,33,0,30
1,33,127,30
1,33,0,30
1,33,127,30
1,33,0,30
1,33,127,30
1,33,0,30
1,33,127,30
1,33,0,30
1,33,127,30
1,33,0,30
1,33,127,30
1,33,0,30
1,33,127,30
1,33,0,30
1,33,127,30
1,33,0,30
1,33,127,30
1,33,0,30
1,33,127,30
1,33,0,30
1,33,127,30
1,33,0,30
1,33,127,30
1,33,0,30
1,33,127,30
1,33,0,30
1,35,127,30
1,35,0,30
1,35,127,30
1,35,0,30
1,35,127,30
1,35,0,30
1,35,127,30
1,35,0,30
1,35,127,30
1,35,0,30
1,35,127,30
1,35,0,30
1,35,127,30
1,35,0,30
1,35,127,30
1,35,0,30
1,28,127,30
1,28,0,30
1,28,127,30
1,28,0,30
1,28,127,30
1,28,0,30
1,28,127,30
1,28,0,30
1,28,127,30
1,28,0,30
1,28,127,30
1,28,0,30
1,28,127,30
1,28,0,30
1,35,127,30
1,35,0,60
1,28,127,0
1,28,0,30
1,28,127,30
1,28,0,30
1,28,127,30
1,28,0,30
1,28,127,30
1,28,0,30
1,28,127,30
1,28,0,30
1,28,127,30
1,28,0,30
1,28,127,30
1,28,0,60
1,35,127,0
1,35,0,60
1,28,127,0
1,28,0,30
1,28,127,30
1,28,0,30
1,28,127,30
1,28,0,30
1,28,127,30
1,28,0,30
1,28,127,30
1,28,0,30
1,28,127,30
1,28,0,30
1,28,127,30
1,28,0,30
1,28,127,30
1,28,0,30
1,35,127,30
1,35,0,90
1,35,127,30
1,35,0,30
1,35,127,30
1,35,0,30
1,35,127,30
1,35,0,60
1,35,127,60
1,35,0,60
1,28,127,0
1,28,0,60
1,28,127,60
1,28,0,30
1,28,127,30
1,28,0,30
1,28,127,30
1,28,0,30
1,28,127,30
1,28,0,90
1,28,127,30
1,28,0,30
1,28,127,30
1,28,0,120
1,28,127,0
1,28,0,30
1,28,127,30
1,28,0,90
1,28,127,30
1,28,0,30
1,28,127,30
1,28,0,90
1,28,127,30
1,28,0,90
1,28,127,30
1,28,0,30
1,28,127,30
1,28,0,90
1,28,127,30
1,28,0,30
1,28,127,30
1,28,0,30
1,28,127,90
1,28,0,60
1,35,127,0
1,35,0,120
1,35,127,60
1,35,0,90
1,35,127,30
1,35,0,60
1,35,127,60
1,35,0,90
1,35,127,30
1,35,0,90
1,35,127,30
1,33,127,0
1,33,0,30
1,35,0,0
1,35,127,30
1,35,0,120
1,34,127,0
1,34,0,150
1,28,127,3570
1,28,0,120
1,27,127,0
1,27,0,90
1,26,127,30
1,26,0,360
1,31,127,0
1,31,0,120
1,28,127,0
1,28,0,360
1,31,127,0
1,31,0,120
1,28,127,0
1,28,0,690
1,28,127,30
1,28,0,120
1,27,127,0
1,27,0,120
1,26,127,0
1,26,0,360
1,31,127,0
1,31,0,120
1,28,127,0
1,28,0,360
1,31,127,0
1,31,0,120
1,28,127,0
1,28,127,720
1,28,0,60
1,28,0,60
1,27,127,0
1,27,0,90
1,26,127,30
1,26,0,360
1,31,127,0
1,31,0,120
1,28,127,0
1,28,0,360
1,31,127,0
1,31,0,120
1,28,127,0
1,28,0,690
1,28,127,30
1,28,0,120
1,27,127,0
1,27,0,120
1,26,127,0
1,26,0,360
1,31,127,0
1,31,0,120
1,28,127,0
1,28,0,360
1,31,127,0
1,31,0,120
1,28,127,0
1,28,127,720
1,28,0,60
1,28,0,60
1,27,127,0
1,27,0,90
1,26,127,30
1,26,0,42
1,31,127,0
1,31,0,120
1,28,127,0
1,28,0,37
1,31,127,0
1,31,0,27
1,28,127,0
1,28,0,57
1,28,127,10
1,28,0,12
1,27,127,0
1,27,0,30
1,26,127,0
1,26,0,5
1,31,127,0
1,31,0,3
1,28,127,0
1,28,0,87
1,31,127,0
1,31,0,6
1,28,127,0
1,28,0,437
2,40,127,1734
2,39,127,110
2,40,0,6
2,38,127,102
2,39,0,2
2,38,0,373
2,43,127,3
2,43,0,116
2,40,127,0
2,43,127,356
2,40,0,6
2,43,0,115
2,40,127,0
2,40,0,6
2,40,127,96
2,39,127,119
2,40,0,4
2,38,127,107
2,39,0,6
2,38,0,353
2,43,127,12
2,43,0,102
2,40,127,13
2,40,0,332
2,43,127,25
2,43,0,107
2,40,127,5
2,40,0,9
2,35,127,138
2,38,127,57
2,35,0,7
2,40,127,50
2,38,0,4
2,40,0,45
2,40,127,16
2,40,0,6
2,35,127,412
2,47,94,10
2,35,120,3
2,37,120,48
2,38,127,2
2,35,0,2
2,35,0,2
2,50,94,1
2,47,0,5
2,52,94,44
2,40,120,2
2,50,0,1
2,37,0,2
2,40,127,3
2,38,0,1
2,52,0,40
2,40,0,10
2,52,94,7
2,40,0,1
2,40,127,5
2,52,0,5
2,40,0,1
2,40,127,895
2,52,94,2
2,40,120,1
2,52,0,50
2,55,94,6
2,40,0,3
2,43,120,2
2,43,127,0
2,40,0,10
2,43,0,31
2,45,120,6
2,57,94,1
2,55,0,3
2,43,0,8
2,45,127,0
2,57,0,42
2,45,0,3
2,57,94,15
2,45,127,1
2,45,0,8
2,57,0,7
2,45,0,6
2,35,127,986
2,47,94,14
2,47,0,94
2,34,127,5
2,35,0,6
2,46,94,8
2,46,0,101
2,34,0,5
2,33,127,1
2,45,94,10
2,45,0,36
2,33,0,4
2,47,94,847
2,50,94,59
2,47,0,4
2,50,0,53
2,52,94,0
2,52,0,50
2,52,94,18
2,48,94,1
2,48,0,30
2,52,0,49
2,52,94,41
2,52,0,60
2,47,94,120
2,47,0,30
2,50,94,30
2,50,0,60
2,52,94,0
2,52,0,30
2,52,94,30
2,52,0,30
2,52,94,30
2,52,0,60
2,52,94,30
2,52,0,90
2,47,94,30
2,47,0,90
2,50,94,0
2,50,0,30
2,52,94,30
2,52,0,30
2,52,94,30
2,52,0,30
