track,note,velocity,time
1,31,102,3360
1,31,102,134
1,26,102,34
1,28,96,26
1,31,102,30
1,31,108,150
1,26,102,14
1,28,96,34
1,36,90,30
1,36,108,126
1,31,102,26
1,33,96,10
1,36,102,10
1,36,108,150
1,31,96,26
1,33,96,42
1,31,114,70
1,31,114,150
1,26,96,10
1,31,102,42
1,38,102,34
1,38,108,146
1,38,108,150
1,33,102,10
1,31,108,18
1,31,108,150
1,26,102,30
1,28,102,34
1,31,102,30
1,31,102,150
1,26,102,38
1,31,108,26
1,31,102,118
1,31,114,142
1,26,108,14
1,28,102,26
1,31,102,38
1,31,102,130
1,26,108,34
1,31,102,34
1,36,102,26
1,36,90,130
1,31,96,34
1,33,102,22
1,36,96,38
1,36,96,126
1,31,102,10
1,36,90,30
1,31,108,26
1,31,108,138
1,26,102,34
1,31,108,46
1,31,96,30
1,31,108,126
1,26,102,34
1,31,108,26
1,36,34,26
1,38,50,0
1,38,96,150
1,33,90,10
1,35,90,10
1,38,108,58
1,38,108,130
1,35,102,10
1,33,102,30
1,31,102,94
1,31,114,142
1,26,108,14
1,28,102,26
1,31,102,38
1,31,102,130
1,26,108,34
1,31,102,34
1,36,102,26
1,36,90,130
1,31,96,34
1,33,102,22
1,36,96,38
1,36,96,126
1,31,102,10
1,36,90,30
1,33,108,26
1,33,108,206
1,38,96,182
1,26,108,30
1,33,102,10
1,38,96,22
1,31,108,74
1,31,108,146
1,26,96,14
1,28,96,10
1,31,102,22
1,31,108,146
1,26,90,10
1,31,108,30
1,31,102,94
1,31,108,150
1,26,102,10
1,28,90,26
1,31,108,26
1,31,108,142
1,31,108,130
1,28,96,10
1,28,96,126
1,35,96,42
1,40,90,50
1,28,102,142
1,28,96,74
1,36,90,30
1,36,96,150
1,31,86,10
1,33,102,26
1,36,96,26
1,36,90,150
1,36,96,98
1,31,102,38
1,31,108,146
1,26,90,10
1,28,96,10
1,31,102,10
1,31,108,142
1,26,96,10
1,31,102,30
1,31,102,102
1,31,102,126
1,31,90,130
1,31,102,150
1,31,108,142
1,26,90,10
1,28,90,30
1,28,108,82
1,35,90,154
1,40,102,150
1,35,102,150
1,28,96,10
1,36,102,58
1,36,102,150
1,31,96,10
1,33,82,10
1,36,90,10
1,36,108,150
1,31,102,10
1,33,90,26
1,38,102,50
1,38,102,142
1,33,102,18
1,35,86,18
1,38,90,10
1,38,96,150
1,33,96,10
1,35,78,42
1,33,108,86
1,33,114,150
1,31,102,10
1,33,96,18
1,38,90,30
1,38,102,150
1,33,96,38
1,38,102,14
1,35,102,26
1,35,102,142
1,33,96,10
1,35,96,42
1,40,96,18
1,40,102,146
1,35,96,34
1,40,82,34
1,36,102,26
1,36,102,150
1,31,102,10
1,33,96,46
1,36,102,10
1,36,108,150
1,31,96,22
1,36,102,38
1,31,108,42
1,31,102,134
1,26,86,26
1,28,90,26
1,31,102,10
1,31,102,138
1,28,102,10
1,31,108,22
1,35,114,106
1,35,102,150
1,30,102,30
1,35,102,30
1,28,108,10
1,28,108,142
1,31,96,38
1,35,102,22
1,35,78,90
1,35,102,138
1,30,96,50
1,35,102,18
1,28,114,46
1,28,102,138
1,31,102,34
1,35,90,18
1,36,102,26
1,36,90,150
1,31,108,10
1,33,96,26
1,36,96,14
1,36,102,142
1,31,102,10
1,33,102,26
1,38,108,74
1,38,96,134
1,33,102,14
1,35,96,26
1,38,96,38
1,38,102,138
1,33,102,10
1,35,102,30
1,38,102,42
1,38,102,138
1,33,102,10
1,35,102,38
1,38,96,26
1,26,82,74
1,31,102,10
1,33,102,22
1,31,102,50
1,31,114,142
1,26,108,14
1,28,102,26
1,31,102,38
1,31,102,130
1,26,108,34
1,31,102,34
1,36,102,26
1,36,90,130
1,31,96,34
1,33,102,22
1,36,96,38
1,36,96,126
1,31,102,10
1,36,90,30
1,31,108,26
1,31,108,138
1,26,102,34
1,31,108,46
1,31,96,30
1,31,108,126
1,26,102,34
1,31,108,26
1,38,50,26
1,38,96,150
1,33,90,10
1,35,90,10
1,38,108,58
1,38,108,130
1,35,102,10
1,33,102,30
1,31,102,94
1,31,114,142
1,26,108,14
1,28,102,26
1,31,102,38
1,31,102,130
1,26,108,34
1,31,102,34
1,36,102,26
1,36,90,130
1,31,96,34
1,33,102,22
1,36,96,38
1,36,96,126
1,31,102,10
1,36,90,30
1,33,108,26
1,33,108,206
1,38,96,182
1,26,108,30
1,33,102,10
1,38,96,22
1,31,108,74
1,31,108,146
1,26,96,14
1,28,96,10
1,31,102,22
1,31,108,146
1,26,90,10
1,31,108,30
1,31,102,94
1,31,114,142
1,26,108,14
1,28,102,26
1,31,102,38
1,31,102,130
1,26,108,34
1,31,102,34
1,36,102,26
1,36,90,130
1,31,96,34
1,33,102,22
1,36,96,38
1,36,96,126
1,31,102,10
1,36,90,30
1,31,108,26
1,31,108,138
1,26,102,34
1,31,108,46
1,31,96,30
1,31,108,126
1,26,102,34
1,31,108,26
1,38,50,26
1,38,96,150
1,33,90,10
1,35,90,10
1,38,108,58
1,38,108,130
1,35,102,10
1,33,102,30
1,31,102,94
1,31,114,142
1,26,108,14
1,28,102,26
1,31,102,38
1,31,102,130
1,26,108,34
1,31,102,34
1,36,102,26
1,36,90,130
1,31,96,34
1,33,102,22
1,36,96,38
1,36,96,126
1,31,102,10
1,36,90,30
1,33,108,26
1,33,108,206
1,38,96,182
1,26,108,30
1,33,102,10
1,38,96,22
1,31,108,74
1,31,108,150
1,26,102,18
1,28,96,14
1,31,108,14
1,31,108,142
1,26,102,22
1,28,102,26
1,33,108,102
1,33,114,190
1,26,108,206
1,38,102,30
1,26,108,22
1,38,108,34
1,33,114,10
1,33,114,170
1,26,102,186
1,38,96,10
1,26,108,22
1,38,102,34
1,33,108,10
1,33,108,170
1,26,108,182
1,38,102,10
1,26,102,30
1,38,102,10
1,31,102,14
1,31,102,198
1,26,108,26
1,28,90,26
1,31,108,10
1,28,102,50
1,33,102,26
1,33,102,166
1,26,96,98
1,38,102,22
1,26,102,18
1,38,108,22
1,33,102,30
1,33,108,178
1,26,90,70
1,38,102,22
1,26,96,34
1,38,108,30
1,33,96,38
1,33,102,166
1,33,102,166
1,33,114,166
1,38,102,54
1,26,102,10
1,38,102,10
1,26,90,14
1,38,96,26
1,26,102,14
1,38,102,10
1,26,102,14
1,28,102,10
1,40,96,30
1,28,102,10
1,40,96,10
1,28,102,10
1,40,86,10
1,28,96,10
1,40,90,22
1,33,102,42
1,33,102,134
1,28,102,34
1,30,96,26
1,33,102,30
1,33,108,150
1,28,102,14
1,30,96,34
1,38,90,30
1,38,108,126
1,33,102,26
1,35,96,10
1,38,102,10
1,38,108,150
1,33,96,26
1,35,96,42
1,33,96,70
1,33,108,150
1,28,96,18
1,30,96,38
1,33,102,10
1,33,102,150
1,37,96,50
1,38,102,26
1,40,108,10
1,40,108,134
1,35,102,26
1,37,96,38
1,40,102,18
1,40,102,134
1,37,102,18
1,35,96,38
1,33,102,98
1,33,102,134
1,28,102,34
1,30,96,26
1,33,102,30
1,33,108,150
1,28,102,14
1,30,96,34
1,38,90,30
1,38,108,126
1,33,102,26
1,35,96,10
1,38,102,10
1,38,108,150
1,33,96,26
1,35,96,42
1,35,102,70
1,35,108,142
1,30,102,14
1,35,102,22
1,28,102,26
1,28,96,142
1,35,102,14
1,40,102,46
1,33,108,86
1,33,108,150
1,28,102,10
1,30,96,34
1,33,96,10
1,33,114,150
1,28,96,10
1,30,102,26
1,38,102,11598
1,40,102,10
1,33,102,106
1,33,114,142
1,28,108,14
1,30,102,26
1,33,102,38
1,33,102,130
1,28,108,34
1,33,102,34
1,38,102,26
1,38,90,130
1,33,96,34
1,35,102,22
1,38,96,38
1,38,96,126
1,33,102,10
1,38,90,30
1,33,108,26
1,33,108,138
1,28,102,34
1,33,108,46
1,33,96,30
1,33,108,126
1,28,102,34
1,33,108,26
1,40,50,26
1,40,96,150
1,35,90,10
1,37,90,10
1,40,108,58
1,40,108,130
1,37,102,10
1,35,102,30
1,33,102,94
1,33,114,142
1,28,108,14
1,30,102,26
1,33,102,38
1,33,102,130
1,28,108,34
1,33,102,34
1,38,102,26
1,38,90,130
1,33,96,34
1,35,102,22
1,38,96,38
1,38,96,126
1,33,102,10
1,38,90,30
1,35,108,26
1,35,108,206
1,40,96,182
1,28,108,30
1,35,102,10
1,40,96,22
1,33,108,74
1,33,108,150
1,28,102,18
1,30,96,14
1,33,108,14
1,33,108,142
1,28,102,22
1,30,102,26
1,33,102,102
1,33,114,142
1,28,108,14
1,30,102,26
1,33,102,38
1,33,102,130
1,28,108,34
1,33,102,34
1,38,102,26
1,38,90,130
1,33,96,34
1,35,102,22
1,38,96,38
1,38,96,126
1,33,102,10
1,38,90,30
1,33,108,26
1,33,108,138
1,28,102,34
1,33,108,46
1,33,96,30
1,33,108,126
1,28,102,34
1,33,108,26
1,40,50,26
1,40,96,150
1,35,90,10
1,37,90,10
1,40,108,58
1,40,108,130
1,37,102,10
1,35,102,30
1,33,102,94
1,33,114,142
1,28,108,14
1,30,102,26
1,33,102,38
1,33,102,130
1,28,108,34
1,33,102,34
1,38,102,26
1,38,90,130
1,33,96,34
1,35,102,22
1,38,96,38
1,38,96,126
1,33,102,10
1,38,90,30
1,35,108,26
1,35,108,206
1,40,96,182
1,28,108,30
1,35,102,10
1,40,96,22
1,33,108,74
1,37,108,18
1,33,108,30
1,30,108,122
1,30,102,138
1,37,90,22
1,30,108,22
1,35,108,74
1,35,108,206
1,40,96,182
1,28,108,30
1,35,102,10
1,40,96,22
1,33,108,74
1,37,108,18
1,33,108,30
1,30,108,122
1,30,102,138
1,37,90,22
1,30,108,22
1,35,108,74
1,35,108,206
1,40,96,182
1,28,108,30
1,35,102,10
1,40,96,22
1,33,102,74
1,33,102,134
1,28,102,34
1,30,96,26
1,33,102,30
1,33,108,150
1,28,102,14
1,30,96,34
1,38,90,30
1,38,108,126
1,33,102,26
1,35,96,10
1,38,102,10
1,38,108,150
1,33,96,26
1,35,96,42
1,33,114,70
1,33,114,150
1,28,96,10
1,33,102,42
1,40,102,34
1,40,108,146
1,40,108,150
1,35,102,10
1,33,108,18
1,33,108,150
1,28,102,30
1,30,102,34
1,33,102,30
1,33,102,150
1,28,102,38
1,33,108,26
1,33,102,118
2,62,102,3168
2,71,102,30
2,72,108,18
2,71,114,14
2,67,102,10
2,62,102,50
2,67,114,18
2,64,108,2
2,67,108,54
2,64,102,14
2,67,108,18
2,69,108,50
2,71,126,94
2,72,114,38
2,71,102,6
2,67,108,14
2,64,114,26
2,62,102,22
2,69,94,22
2,67,102,34
2,64,120,75632
2,62,114,14
2,61,102,58
2,62,94,14
2,61,114,26
2,57,114,42
2,54,102,26
2,52,114,18
2,73,108,82
2,74,102,2
2,73,114,6
2,69,108,26
2,64,114,14
2,69,114,10
2,66,102,22
2,69,114,10
2,64,114,96
2,73,108,6
2,74,90,50
2,73,108,14
2,69,94,122
2,64,94,288
2,73,108,126
2,71,108,14
2,64,114,80
2,73,108,98
2,74,102,2
2,73,114,6
2,69,108,26
2,64,114,14
2,69,114,10
2,66,102,22
2,69,108,10
2,66,108,18
2,69,108,38
2,71,102,34
2,73,114,22
2,74,90,26
2,73,102,14
2,69,108,18
2,66,102,22
2,64,108,18
2,71,114,18
2,69,114,30
2,64,114,41648
2,73,102,142
2,74,108,18
2,73,114,14
2,69,102,10
2,64,102,50
2,69,114,18
2,66,108,2
2,69,108,54
2,66,102,14
2,69,108,18
2,71,108,50
2,73,126,94
2,74,114,38
2,73,102,6
2,69,108,14
2,66,114,26
2,64,102,22
2,71,94,22
2,69,102,34
3,62,106,9312
3,71,109,32
3,71,104,104
3,71,106,112
3,71,109,120
3,69,109,2
3,67,106,48
3,64,102,20
3,67,112,16
3,62,102,1076
3,71,109,132
3,71,109,128
3,71,109,124
3,71,106,116
3,69,106,24
3,67,109,28
3,69,104,16
3,62,102,896
3,71,104,148
3,71,100,128
3,71,102,136
3,71,102,124
3,69,104,16
3,67,106,28
3,64,98,20
3,67,112,8
3,64,115,1088
3,64,106,152
3,67,102,32
3,71,104,8
3,69,104,2
3,67,100,2
3,66,100,28
3,67,104,24
3,62,109,1240
3,71,104,120
3,69,100,32
3,69,109,132
3,67,85,40
3,67,106,100
3,66,85,28
3,66,100,136
3,64,83,32
3,64,112,108
3,67,112,144
3,69,104,4
3,67,100,24
3,62,89,48
3,67,100,152
3,67,85,36
3,67,104,88
3,67,104,64
3,67,109,68
3,64,109,44
3,62,102,284
3,62,98,136
3,71,104,136
3,69,102,48
3,69,104,124
3,67,95,36
3,67,104,128
3,66,97,44
3,66,95,140
3,64,96,52
3,64,109,112
3,67,109,148
3,69,109,16
3,67,102,32
3,62,89,24
3,62,83,108
3,64,100,88
3,67,102,16
3,67,106,132
3,64,91,24
3,67,106,120
3,67,95,136
3,71,100,16
3,69,91,32
3,62,102,1072
3,67,109,152
3,67,104,148
3,67,100,52
3,66,102,16
3,62,102,20
3,62,91,124
3,66,106,108
3,67,102,2
3,69,100,20
3,67,93,28
3,67,100,224
3,67,106,156
3,67,109,136
3,64,100,24
3,67,109,2
3,71,100,8
3,71,93,116
3,69,95,2
3,67,102,28
3,62,102,136
3,66,109,144
3,67,100,16
3,69,102,16
3,67,98,40
3,62,98,72
3,66,104,128
3,67,91,28
3,69,98,2
3,67,102,16
3,62,100,28
3,62,95,140
3,64,112,100
3,67,102,16
3,67,109,116
3,64,98,16
3,67,104,28
3,71,109,12
3,69,106,236
3,62,109,352
3,71,109,140
3,71,104,104
3,71,106,112
3,71,109,120
3,69,109,2
3,67,106,48
3,64,102,20
3,67,112,16
3,62,102,1076
3,71,109,132
3,71,109,128
3,71,109,124
3,71,106,116
3,69,106,24
3,67,109,28
3,69,104,16
3,62,102,896
3,71,104,148
3,71,100,128
3,71,102,136
3,71,102,124
3,69,104,16
3,67,106,28
3,64,98,20
3,67,112,8
3,64,115,1088
3,64,106,152
3,67,102,32
3,71,104,8
3,69,104,2
3,67,100,2
3,66,100,28
3,67,104,24
3,62,109,1240
3,71,109,120
3,71,104,104
3,71,106,112
3,71,109,120
3,69,109,2
3,67,106,48
3,64,102,20
3,67,112,16
3,62,102,1076
3,71,109,132
3,71,109,128
3,71,109,124
3,71,106,116
3,69,106,24
3,67,109,28
3,69,104,16
3,62,102,896
3,71,104,148
3,71,100,128
3,71,102,136
3,71,102,124
3,69,104,16
3,67,106,28
3,64,98,20
3,67,112,8
3,64,115,1088
3,64,106,152
3,67,102,32
3,71,104,8
3,69,104,2
3,67,100,2
3,66,100,28
3,67,104,24
3,62,100,1240
3,64,112,156
3,67,102,56
3,67,112,136
3,69,112,108
3,71,109,52
3,62,109,36
3,64,109,128
3,67,106,36
3,67,112,120
3,69,112,108
3,71,91,24
3,62,109,4
3,64,112,116
3,67,104,64
3,67,112,124
3,64,98,16
3,69,109,108
3,67,100,56
3,69,109,100
3,71,112,128
3,69,112,32
3,67,109,40
3,62,106,148
3,64,115,144
3,67,95,40
3,67,109,148
3,69,106,128
3,71,93,44
3,62,102,4
3,64,112,116
3,67,98,44
3,67,106,136
3,69,109,120
3,71,93,56
3,62,100,12
3,64,106,120
3,67,100,36
3,67,109,112
3,69,100,48
3,71,109,128
3,69,93,32
3,67,102,56
3,69,104,56
3,64,106,7612
3,64,106,5984
3,73,109,32
3,73,104,104
3,73,106,112
3,73,109,120
3,71,109,2
3,69,106,48
3,66,102,20
3,69,112,16
3,64,102,1076
3,73,109,132
3,73,109,128
3,73,109,124
3,73,106,116
3,71,106,24
3,69,109,28
3,71,104,16
3,64,102,896
3,73,104,148
3,73,100,128
3,73,102,136
3,73,102,124
3,71,104,16
3,69,106,28
3,66,98,20
3,69,112,8
3,66,115,1088
3,66,106,152
3,69,102,32
3,73,104,8
3,71,104,2
3,69,100,2
3,68,100,28
3,69,104,24
3,64,109,1240
3,73,109,120
3,73,104,104
3,73,106,112
3,73,109,120
3,71,109,2
3,69,106,48
3,66,102,20
