track,note,velocity,time
0,36,66,624
0,49,48,0
0,41,88,12
0,53,64,0
0,53,68,6
0,57,101,6
0,60,104,6
0,65,110,4
0,65,56,4
0,60,50,0
0,57,77,0
0,53,52,2
0,42,40,52
0,53,68,4
0,57,83,0
0,60,89,0
0,65,30,2
0,53,56,0
0,57,104,0
0,60,117,0
0,65,117,8
0,57,52,0
0,53,52,4
0,57,83,6
0,60,92,0
0,65,62,16
0,37,88,150
0,42,40,0
0,57,89,0
0,60,104,0
0,65,104,2
0,36,88,94
0,36,48,6
0,48,86,44
0,36,66,0
0,41,88,0
0,53,98,0
0,57,110,0
0,60,98,6
0,65,86,8
0,60,54,6
0,65,60,6
0,60,60,0
0,57,54,2
0,53,65,0
0,42,40,0
0,57,54,6
0,60,83,10
0,65,80,2
0,53,80,0
0,57,98,0
0,60,117,0
0,65,115,8
0,65,30,2
0,60,62,2
0,57,60,2
0,53,65,2
0,57,77,0
0,60,89,0
0,65,89,10
0,57,95,0
0,60,117,0
0,36,56,2
0,42,40,0
0,65,110,8
0,36,88,110
0,36,48,4
0,41,83,104
0,48,54,0
0,53,96,0
0,57,98,0
0,36,66,10
0,42,40,0
0,49,48,0
0,60,105,4
0,29,88,2
0,65,99,10
0,57,91,454
0,60,91,102
0,53,91,18
0,36,66,152
0,36,88,0
0,48,53,0
0,49,48,0
0,55,73,0
0,84,40,0
0,52,72,10
0,55,59,2
0,60,63,8
0,60,56,0
0,64,60,2
0,67,60,0
0,64,66,2
0,42,48,156
0,42,72,80
0,37,84,64
0,42,40,0
0,60,41,4
0,36,88,146
0,36,40,10
0,42,48,0
0,55,59,0
0,60,72,10
0,64,78,4
0,36,62,156
0,42,56,0
0,42,48,160
0,60,78,10
0,64,81,0
0,37,84,0
0,42,56,0
0,64,45,6
0,60,61,0
0,55,118,2
0,31,88,130
0,42,80,18
0,36,66,4
0,36,88,0
0,42,64,0
0,48,53,0
0,52,84,0
0,58,75,6
0,60,84,6
0,64,75,2
0,42,48,158
0,42,72,64
0,37,84,64
0,42,40,0
0,36,88,156
0,36,40,4
0,42,48,0
0,36,62,160
0,42,56,0
0,48,53,0
0,52,93,0
0,42,56,2
0,58,87,0
0,60,93,8
0,64,102,4
0,55,91,76
0,36,88,6
0,37,84,4
0,42,56,0
0,35,88,0
0,84,40,2
0,46,64,6
0,57,82,0
0,58,60,18
0,34,88,4
0,62,64,0
0,53,69,2
0,65,60,0
0,36,66,6
0,49,48,0
0,58,63,4
0,82,40,0
0,62,78,8
0,58,60,8
0,65,69,0
0,42,48,160
0,42,72,64
0,37,84,64
0,42,40,0
0,62,82,4
0,34,88,110
0,46,41,2
0,36,40,8
0,42,48,0
0,53,84,2
0,58,66,6
0,62,57,6
0,36,62,160
0,42,56,0
0,46,51,8
0,53,78,8
0,60,73,0
0,42,48,6
0,58,75,0
0,62,81,8
0,65,78,6
0,65,45,6
0,37,84,4
0,42,56,0
0,62,61,0
0,58,118,4
0,53,82,46
0,38,88,18
0,42,80,4
0,81,40,30
0,57,73,6
0,60,73,4
0,57,60,2
0,53,69,2
0,65,60,2
0,36,66,2
0,42,64,0
0,57,63,6
0,41,88,8
0,60,72,0
0,65,69,8
0,42,48,160
0,42,72,64
0,37,84,64
0,42,40,0
0,48,55,148
0,36,40,2
0,42,48,0
0,41,88,4
0,53,78,2
0,57,78,6
0,60,75,6
0,65,69,4
0,36,62,160
0,42,56,0
0,48,41,4
0,84,40,6
0,53,78,2
0,42,56,2
0,57,72,0
0,60,72,6
0,65,53,2
0,77,40,12
0,37,84,2
0,42,56,0
0,36,88,2
0,72,40,20
0,38,88,4
0,46,64,2
0,41,55,80
0,48,59,12
0,60,52,10
0,65,52,0
0,69,56,2
0,53,78,0
0,57,75,12
0,77,40,0
0,36,66,0
0,49,48,0
0,60,78,6
0,29,88,6
0,65,72,4
0,57,82,158
0,60,82,84
0,72,40,2
0,74,40,2
0,77,40,22
0,42,56,24
0,79,40,8
0,42,32,32
0,81,40,22
0,53,91,18
0,36,48,6
0,46,56,0
0,82,40,32
0,52,75,14
0,36,88,6
0,55,63,2
0,36,66,2
0,55,82,0
0,57,48,0
0,64,73,6
0,67,64,0
0,60,60,2
0,60,75,0
0,76,40,2
0,84,40,0
0,64,66,4
0,42,48,160
0,42,72,64
0,37,84,64
0,42,40,0
0,36,88,68
0,36,40,12
0,42,48,0
0,55,75,0
0,60,87,0
0,64,90,0
0,36,62,80
0,42,56,0
0,60,41,4
0,42,48,6
0,55,90,4
0,37,84,160
0,42,56,0
0,52,75,0
0,55,45,6
0,31,88,150
0,42,80,0
0,36,66,4
0,42,64,0
0,52,72,4
0,36,88,0
0,58,66,6
0,60,66,6
0,64,57,4
0,42,48,78
0,42,72,64
0,37,84,64
0,42,40,0
0,52,78,10
0,36,88,4
0,58,81,0
0,36,40,4
0,42,48,0
0,60,90,2
0,64,55,2
0,60,60,74
0,64,60,4
0,36,62,4
0,42,56,0
0,52,57,10
0,88,40,2
0,58,31,4
0,42,56,8
0,91,40,80
0,55,91,2
0,36,88,4
0,58,90,0
0,37,84,4
0,42,56,0
0,60,105,0
0,64,96,6
0,64,41,4
0,84,40,10
0,35,88,2
0,57,82,2
0,46,64,0
0,60,63,2
0,58,73,6
0,62,73,0
0,34,88,0
0,36,66,0
0,49,48,0
0,65,60,4
0,86,40,0
0,53,87,0
0,58,75,8
0,62,69,6
0,65,59,2
0,42,48,158
0,42,72,64
0,62,73,58
0,37,84,6
0,42,40,0
0,34,88,6
0,53,81,0
0,36,40,6
0,42,48,0
0,58,84,0
0,62,84,6
0,65,61,4
0,36,62,160
0,42,56,0
0,53,41,4
0,58,69,8
0,42,48,4
0,62,72,4
0,60,64,4
0,65,69,2
0,62,52,12
0,65,60,0
0,70,60,6
0,65,59,6
0,37,84,4
0,42,56,0
0,62,69,0
0,58,90,0
0,53,91,38
0,42,80,90
0,34,88,4
0,48,53,20
0,57,73,0
0,53,72,8
0,60,60,6
0,65,64,0
0,69,56,0
0,36,66,2
0,42,64,0
0,60,66,2
0,84,40,2
0,65,48,2
0,41,88,14
0,42,48,160
0,42,72,64
0,37,84,64
0,42,40,0
0,53,102,12
0,41,88,4
0,36,40,4
0,42,48,0
0,57,90,0
0,60,81,6
0,65,61,4
0,36,62,160
0,42,56,0
0,53,72,10
0,42,56,2
0,57,66,2
0,89,40,2
0,60,75,6
0,65,78,6
0,65,48,4
0,81,40,16
0,37,84,6
0,42,56,0
0,60,81,4
0,36,88,76
0,46,64,4
0,84,40,6
0,57,64,0
0,48,63,0
0,69,33,4
0,77,40,0
0,36,66,0
0,49,48,0
0,53,99,0
0,57,102,0
0,29,88,4
0,60,105,4
0,65,99,4
0,48,31,2
0,29,88,4
0,53,81,6
0,50,64,0
0,57,69,0
0,60,78,6
0,65,78,4
0,50,64,64
0,31,88,42
0,36,56,8
0,48,80,0
0,70,30,2
0,79,40,0
0,67,56,0
0,58,56,8
0,65,102,24
0,60,84,4
0,48,48,8
0,57,87,2
0,72,32,4
0,81,40,0
0,60,84,2
0,50,64,0
0,65,81,4
0,69,73,0
0,33,88,2
0,60,73,4
0,50,40,64
0,65,91,54
0,36,48,10
0,47,64,0
0,34,88,12
0,36,66,0
0,49,48,0
0,70,46,0
0,74,54,0
0,74,73,0
0,82,35,0
0,46,48,14
0,53,54,8
0,58,48,8
0,62,50,4
0,65,18,6
0,42,48,36
0,70,46,0
0,74,50,4
0,74,60,8
0,42,72,64
0,40,84,0
0,42,40,0
0,46,43,6
0,53,73,6
0,58,85,0
0,62,82,6
0,65,70,2
0,34,88,4
0,36,40,10
0,42,48,0
0,65,56,2
0,62,76,4
0,58,67,0
0,36,62,12
0,42,56,0
0,29,88,2
0,65,36,6
0,42,48,16
0,62,111,2
0,77,63,90
0,74,72,4
0,77,73,2
0,29,88,2
0,40,84,0
0,42,56,0
0,53,70,0
0,58,61,8
0,62,73,6
0,65,64,0
0,77,54,38
0,74,54,4
0,42,80,4
0,77,60,2
0,62,43,4
0,34,88,56
0,46,50,8
0,36,66,0
0,42,64,0
0,77,60,2
0,53,70,6
0,74,50,0
0,77,54,4
0,58,67,2
0,62,54,6
0,77,35,144
0,42,48,16
0,42,72,64
0,53,67,0
0,58,67,10
0,72,46,4
0,76,46,0
0,82,35,0
0,40,84,2
0,42,40,0
0,76,60,0
0,62,76,2
0,65,79,8
0,34,88,6
0,65,36,0
0,36,40,8
0,42,48,0
0,72,46,0
0,76,50,0
0,86,35,0
0,62,56,4
0,76,73,6
0,58,111,2
0,36,62,160
0,42,56,0
0,65,26,4
0,38,88,22
0,42,56,0
0,62,61,2
0,70,50,38
0,74,50,0
0,40,84,0
0,42,56,0
0,53,50,0
0,58,64,0
0,74,64,0
0,82,35,2
0,62,67,6
0,65,58,4
0,38,88,88
0,46,64,4
0,81,35,6
0,60,60,2
0,69,64,0
0,69,42,2
0,36,66,2
0,42,56,0
0,72,60,0
0,72,50,2
0,48,46,6
0,41,88,2
0,53,61,8
0,57,61,10
0,60,64,4
0,65,67,8
0,42,48,148
0,42,72,64
0,40,84,8
0,42,40,0
0,48,40,0
0,53,58,0
0,57,58,0
0,60,67,0
0,65,61,2
0,65,36,6
0,41,88,6
0,36,40,4
0,42,48,0
0,60,67,4
0,57,113,2
0,53,54,0
0,36,88,60
0,36,62,8
0,42,56,0
0,60,43,4
0,77,35,0
0,42,48,0
0,57,113,4
0,72,54,36
0,76,50,2
0,76,64,0
0,79,35,6
0,40,84,0
0,42,56,0
0,72,64,0
0,64,48,4
0,36,88,0
0,53,73,0
0,57,73,0
0,65,48,0
0,60,76,8
0,65,82,0
0,76,50,6
0,64,73,4
0,72,50,0
0,81,35,0
0,72,60,2
0,76,64,2
0,42,80,8
0,53,67,0
0,84,35,4
0,36,66,2
0,42,64,0
0,72,46,0
0,76,50,0
0,57,70,0
0,64,64,0
0,76,64,0
0,29,88,4
0,72,82,0
0,60,76,0
0,65,94,6
0,42,48,160
0,42,72,32
0,72,46,24
0,76,46,2
0,48,43,2
0,40,84,4
0,42,40,0
0,53,52,2
0,76,64,0
0,57,50,4
0,62,60,2
0,60,58,4
0,70,64,2
0,65,70,6
0,74,50,12
0,29,88,2
0,70,42,2
0,36,40,6
0,42,48,0
0,82,35,0
0,65,82,0
0,74,64,2
0,60,67,2
0,62,56,0
0,70,73,2
0,57,106,2
0,53,54,2
0,36,62,160
0,42,56,0
0,48,43,8
0,53,58,8
0,57,54,6
0,60,58,6
0,65,56,4
0,33,88,86
0,42,56,4
0,69,46,4
0,72,46,0
0,81,35,4
0,48,40,2
0,40,84,8
0,42,56,0
0,53,61,0
0,60,64,0
0,72,73,0
0,69,73,2
0,34,88,2
0,57,61,0
0,60,67,6
0,65,50,4
0,35,88,38
0,46,64,10
0,64,42,0
0,67,38,2
0,67,60,10
0,36,88,0
0,48,48,4
0,36,66,6
0,42,64,0
0,52,61,2
0,79,35,0
0,58,67,6
0,60,73,2
0,67,73,4
0,60,73,2
0,64,70,6
0,42,48,160
0,42,72,64
0,64,60,4
0,40,84,10
0,42,40,0
0,52,58,0
0,58,61,4
0,60,73,6
0,64,67,4
0,60,43,4
0,36,88,6
0,36,40,6
0,42,48,0
0,58,70,4
0,52,113,2
0,36,62,78
0,42,56,0
0,42,56,82
0,77,35,24
0,65,73,10
0,40,84,8
0,42,56,0
0,48,64,4
0,29,88,4
0,53,85,6
0,57,73,6
0,60,79,8
0,65,50,140
0,46,64,20
0,65,44,2
0,82,35,14
0,62,60,6
0,70,42,0
0,74,50,0
0,36,66,0
0,57,48,0
0,34,88,2
0,65,52,2
0,70,73,2
0,46,48,8
0,74,73,4
0,53,73,4
0,58,76,6
0,62,97,2
0,65,103,6
0,40,48,152
0,42,48,0
0,40,48,64
0,42,72,0
0,40,84,6
0,42,40,0
0,81,35,6
0,69,46,8
0,72,50,4
0,72,56,4
0,29,88,2
0,36,56,0
0,42,48,0
0,49,48,0
0,48,54,2
0,60,56,2
0,69,64,2
0,53,97,2
0,65,64,2
0,57,100,4
0,60,103,6
0,65,85,4
0,42,56,160
0,42,48,64
0,36,40,64
0,42,48,0
0,84,35,0
0,65,63,10
0,65,64,2
0,36,40,4
0,40,84,0
0,42,56,0
0,89,35,6
0,40,72,22
0,42,80,0
0,33,88,14
0,40,48,18
0,82,35,4
0,74,73,2
0,65,60,2
0,70,60,0
0,74,73,0
0,36,66,2
0,57,48,0
0,46,50,6
0,74,50,4
0,34,88,4
0,53,61,0
0,70,46,0
0,58,85,6
0,62,94,6
0,65,94,0
0,42,48,160
0,48,56,0
0,42,72,64
0,48,40,0
0,42,40,2
0,48,72,0
0,69,46,20
0,81,35,0
0,72,46,4
0,41,40,4
0,29,88,2
0,72,56,0
0,65,44,4
0,36,66,2
0,42,48,0
0,49,40,0
0,48,48,2
0,72,56,4
0,69,48,2
0,77,73,4
0,57,73,4
0,60,73,8
0,65,54,4
0,42,56,160
0,50,80,0
0,48,56,64
0,36,56,12
0,42,56,0
0,47,72,0
0,41,88,8
0,89,35,2
0,65,64,0
0,65,63,2
0,31,88,8
0,84,35,8
0,36,72,4
0,40,56,0
0,42,56,0
0,65,56,18
0,69,64,8
0,81,35,10
0,65,54,2
0,65,60,8
0,33,88,10
0,47,88,0
0,77,35,22
0,45,72,8
0,62,56,48
0,74,54,2
0,70,60,4
0,70,42,0
0,74,73,2
0,36,66,4
0,49,48,0
0,53,58,4
0,82,35,2
0,34,88,2
0,58,61,0
0,62,58,8
0,74,50,34
0,42,48,2
0,70,46,0
0,74,73,20
0,42,72,64
0,46,50,2
0,40,84,2
0,42,40,0
0,53,61,2
0,58,56,4
0,62,56,6
0,65,40,6
0,34,88,2
0,36,40,8
0,42,48,0
0,62,85,4
0,65,91,6
0,36,62,72
0,42,56,0
0,29,88,4
0,42,48,0
0,58,31,4
0,53,54,0
0,40,84,0
0,42,56,0
0,58,61,4
0,74,64,0
0,77,35,0
0,29,88,4
0,77,54,2
0,65,73,2
0,77,73,0
0,62,73,0
0,74,50,0
0,65,76,6
0,42,80,42
0,74,46,2
0,77,46,0
0,77,56,0
0,46,48,2
0,36,66,0
0,42,64,0
0,34,88,2
0,86,35,0
0,53,64,4
0,77,60,0
0,74,50,2
0,77,54,0
0,58,54,4
0,62,64,6
0,65,40,2
0,74,52,0
0,65,60,0
0,42,48,160
0,42,72,64
0,40,84,0
0,42,40,0
0,58,70,0
0,62,73,0
0,65,67,6
0,72,50,2
0,34,88,2
0,76,54,2
0,53,76,0
0,64,56,2
0,72,64,0
0,36,40,0
0,42,48,0
0,76,73,2
0,84,35,0
0,58,67,4
0,62,85,6
0,65,76,6
0,36,62,84
0,42,56,0
0,29,88,2
0,65,52,12
0,62,88,10
0,42,56,4
0,58,50,0
0,53,61,4
0,70,50,0
0,62,60,2
0,70,60,2
0,74,50,0
0,34,88,2
0,46,52,0
0,40,84,8
0,42,56,0
0,53,79,0
0,74,64,0
0,82,35,4
0,58,76,2
0,62,76,6
0,65,54,4
0,46,64,160
0,81,35,0
0,53,76,0
0,36,66,2
0,42,56,0
0,60,56,0
0,69,42,0
0,69,60,2
0,57,67,2
0,72,46,0
0,72,56,0
0,29,88,2
0,60,88,4
0,65,73,4
0,42,48,160
0,42,72,64
0,40,84,0
0,42,40,0
0,48,43,2
0,53,67,0
0,57,64,0
0,60,85,0
0,65,88,4
0,65,52,12
0,36,40,0
0,42,48,0
0,29,88,2
0,60,76,8
0,57,100,4
0,53,113,4
0,36,88,50
0,36,62,4
0,42,56,0
0,60,43,4
0,77,35,4
0,42,48,0
0,57,113,2
0,72,50,90
0,76,54,2
0,79,35,0
0,40,84,2
0,42,56,0
0,76,64,0
0,36,88,0
0,48,58,0
0,53,88,0
0,57,79,6
0,60,79,8
0,65,76,4
0,76,50,18
0,72,50,2
0,81,35,16
0,42,80,4
0,76,60,4
0,48,50,0
0,36,66,6
0,42,72,0
0,49,48,0
0,72,50,2
