track,note,velocity,time
1,43,109,6384
1,42,72,2
1,41,66,2
1,40,58,2
1,39,54,2
1,38,94,2
1,39,111,2
1,40,99,2
1,43,107,2
1,38,105,2
1,43,107,2
1,43,104,90
1,38,107,2
1,40,107,2
1,31,107,2
1,43,107,2
1,38,107,2
1,43,107,2
1,43,104,90
1,36,107,2
1,37,88,2
1,38,107,2
1,45,107,2
1,50,96,2
1,50,90,98
1,42,107,2
1,45,100,2
1,38,107,2
1,33,107,2
1,38,96,2
1,38,90,98
1,33,96,2
1,36,96,2
1,38,107,2
1,45,107,2
1,50,96,2
1,50,90,98
1,42,107,2
1,45,100,2
1,38,107,2
1,33,107,2
1,38,96,2
1,38,90,98
1,36,96,2
1,38,96,2
1,31,107,2
1,38,105,2
1,43,107,2
1,43,104,90
1,38,107,2
1,40,107,2
1,43,107,2
1,50,54,6
1,52,95,2
1,50,77,2
1,52,85,2
1,50,97,2
1,47,93,2
1,45,85,50
1,47,89,2
1,43,107,2
1,38,105,2
1,43,107,2
1,43,104,90
1,47,107,2
1,45,107,2
1,41,107,2
1,35,107,2
1,41,107,2
1,41,104,90
1,40,107,2
1,38,88,2
1,36,107,2
1,43,105,2
1,45,105,2
1,43,105,2
1,45,105,2
1,48,105,2
1,45,105,2
1,43,107,2
1,36,107,2
1,43,107,2
1,48,107,2
1,48,96,98
1,40,107,2
1,42,88,2
1,43,107,2
1,38,105,2
1,43,107,2
1,43,104,90
1,36,107,2
1,37,107,2
1,38,107,2
1,38,107,2
1,42,107,2
1,45,107,2
1,38,104,2
1,43,107,2
1,55,90,2
1,52,107,72
1,50,97,2
1,47,97,2
1,45,97,2
1,43,107,2
1,40,90,2
1,38,107,72
1,35,96,2
1,33,100,2
1,43,107,2
1,38,105,2
1,43,107,2
1,43,104,90
1,38,107,2
1,40,107,2
1,31,107,2
1,43,107,2
1,38,107,2
1,43,107,2
1,43,104,90
1,36,107,2
1,37,88,2
1,38,107,2
1,45,107,2
1,50,96,2
1,50,90,98
1,42,107,2
1,45,100,2
1,38,107,2
1,33,107,2
1,38,96,2
1,38,90,98
1,33,96,2
1,36,96,2
1,38,107,2
1,45,107,2
1,50,96,2
1,50,90,98
1,42,107,2
1,45,100,2
1,38,107,2
1,33,107,2
1,38,96,2
1,38,90,98
1,36,96,2
1,38,96,2
1,31,107,2
1,38,105,2
1,43,107,2
1,43,104,90
1,38,107,2
1,40,107,2
1,43,107,2
1,50,54,6
1,52,95,2
1,50,77,2
1,52,85,2
1,50,97,2
1,47,93,2
1,45,85,50
1,47,89,2
1,43,107,2
1,38,105,2
1,43,107,2
1,43,104,90
1,47,107,2
1,45,107,2
1,41,107,2
1,35,107,2
1,41,107,2
1,41,104,90
1,40,107,2
1,38,88,2
1,36,107,2
1,43,105,2
1,45,105,2
1,43,105,2
1,45,105,2
1,48,105,2
1,45,105,2
1,43,107,2
1,36,107,2
1,43,107,2
1,48,107,2
1,48,96,98
1,40,107,2
1,42,88,2
1,43,107,2
1,38,105,2
1,43,107,2
1,43,104,90
1,36,107,2
1,37,107,2
1,38,107,2
1,38,107,2
1,42,107,2
1,45,107,2
1,38,104,2
1,43,107,2
1,38,107,2
1,43,107,2
1,43,97,98
1,52,97,2
1,55,107,2
1,52,88,2
1,50,88,2
1,52,107,2
1,50,96,2
1,47,96,2
1,50,96,2
1,43,107,2
1,38,105,2
1,43,107,2
1,43,104,90
1,38,107,2
1,40,107,2
1,31,107,2
1,43,107,2
1,38,107,2
1,43,107,2
1,43,104,90
1,36,107,2
1,37,88,2
1,38,107,2
1,45,107,2
1,50,96,2
1,50,90,98
1,42,107,2
1,45,100,2
1,36,107,2
1,43,107,2
1,48,107,2
1,48,96,98
1,40,107,2
1,42,88,2
1,43,107,2
1,38,105,2
1,43,107,2
1,43,104,90
1,36,107,2
1,37,107,2
1,38,107,2
1,38,107,2
1,42,107,2
1,45,107,2
1,38,104,2
1,43,107,2
1,55,90,2
1,52,107,72
1,50,97,2
1,47,97,2
1,45,97,2
1,43,107,2
1,40,90,2
1,38,107,72
1,35,96,2
1,33,100,2
1,43,107,2
1,38,105,2
1,43,107,2
1,43,104,90
1,38,107,2
1,40,107,2
1,31,107,2
1,43,107,2
1,38,107,2
1,43,107,2
1,43,104,90
1,36,107,2
1,37,88,2
1,38,107,2
1,45,107,2
1,50,96,2
1,50,90,98
1,42,107,2
1,45,100,2
1,38,107,2
1,33,107,2
1,38,96,2
1,38,90,98
1,33,96,2
1,36,96,2
1,38,107,2
1,45,107,2
1,50,96,2
1,50,90,98
1,42,107,2
1,45,100,2
1,38,107,2
1,33,107,2
1,38,96,2
1,38,90,98
1,36,96,2
1,38,96,2
1,31,107,2
1,38,105,2
1,43,107,2
1,43,104,90
1,38,107,2
1,40,107,2
1,43,107,2
1,50,54,6
1,52,95,2
1,50,77,2
1,52,85,2
1,50,97,2
1,47,93,2
1,45,85,50
1,47,89,2
1,43,107,2
1,38,105,2
1,43,107,2
1,43,104,90
1,47,107,2
1,45,107,2
1,41,107,2
1,35,107,2
1,41,107,2
1,41,104,90
1,40,107,2
1,38,88,2
1,36,107,2
1,43,105,2
1,45,105,2
1,43,105,2
1,45,105,2
1,48,105,2
1,45,105,2
1,43,107,2
1,36,107,2
1,43,107,2
1,48,107,2
1,48,96,98
1,40,107,2
1,42,88,2
1,43,107,2
1,38,105,2
1,43,107,2
1,43,104,90
1,36,107,2
1,37,107,2
1,38,107,2
1,38,107,2
1,42,107,2
1,45,107,2
1,38,104,2
1,43,107,2
1,55,90,2
1,52,107,72
1,50,97,2
1,47,97,2
1,45,97,2
1,43,107,2
1,40,90,2
1,38,107,72
1,35,96,2
1,33,100,2
1,43,107,2
1,38,105,2
1,43,107,2
1,43,104,90
1,38,107,2
1,40,107,2
1,31,107,2
1,43,107,2
1,38,107,2
1,43,107,2
1,43,104,90
1,36,107,2
1,37,88,2
1,43,107,2
1,38,105,2
1,43,107,2
1,43,104,90
1,38,107,2
1,40,107,2
1,31,107,2
1,43,107,2
1,38,107,2
1,43,107,2
1,43,104,90
1,36,107,2
1,37,88,2
1,31,107,2
2,71,109,6560
2,71,110,48
2,72,108,34
2,72,110,40
2,71,110,8
2,69,106,4712
2,69,108,44
2,71,109,34
2,71,109,38
2,69,103,8
2,71,109,4766
2,71,109,40
2,72,109,30
2,72,109,24
2,71,104,8
2,72,103,7784
2,72,101,32
2,72,100,42
2,72,99,40
2,71,98,8
2,71,109,1880
2,71,110,48
2,72,108,34
2,72,110,40
2,71,110,8
2,71,107,872
2,71,104,48
2,72,107,38
2,72,106,46
2,71,102,6
2,71,104,28
2,71,97,42
2,72,106,32
2,71,105,26
2,69,106,22
2,78,93,8
2,69,106,1632
2,69,108,44
2,71,109,34
2,71,109,38
2,69,103,8
2,69,109,926
2,69,108,46
2,71,111,36
2,71,107,38
2,69,107,90
2,69,109,76
2,69,108,46
2,71,111,36
2,69,108,20
2,67,108,30
2,71,111,8
2,71,109,1488
2,71,109,40
2,72,109,30
2,72,109,24
2,71,104,8
2,70,103,776
2,71,103,8
2,72,103,8
2,74,104,8
2,76,103,32
2,77,103,8
2,76,103,8
2,74,104,8
2,72,102,12
2,76,103,8
2,72,108,280
2,72,110,42
2,74,109,8
2,78,109,8
2,76,106,12
2,74,109,8
2,72,105,32
2,72,110,36
2,71,106,10
2,67,104,232
2,69,105,8
2,72,106,8
2,71,105,24
2,69,104,8
2,67,105,8
2,67,100,56
2,69,101,104
2,66,99,8
2,72,103,426
2,72,101,32
2,72,100,42
2,72,99,40
2,71,98,8
2,71,109,14168
2,71,110,48
2,72,108,34
2,72,110,40
2,71,110,8
2,71,107,872
2,71,104,48
2,72,107,38
2,72,106,46
2,71,102,6
2,71,104,28
2,71,97,42
2,72,106,32
2,71,105,26
2,69,106,22
2,78,93,8
2,69,106,1632
2,69,108,44
2,71,109,34
2,71,109,38
2,69,103,8
2,69,109,926
2,69,108,46
2,71,111,36
2,71,107,38
2,69,107,90
2,69,109,76
2,69,108,46
2,71,111,36
2,69,108,20
2,67,108,30
2,71,111,8
2,71,109,1488
2,71,109,40
2,72,109,30
2,72,109,24
2,71,104,8
2,70,103,776
2,71,103,8
2,72,103,8
2,74,104,8
2,76,103,32
2,77,103,8
2,76,103,8
2,74,104,8
2,72,102,12
2,76,103,8
2,72,108,280
2,72,110,42
2,74,109,8
2,78,109,8
2,76,106,12
2,74,109,8
2,72,105,32
2,72,110,36
2,71,106,10
2,67,104,232
2,69,105,8
2,72,106,8
2,71,105,24
2,69,104,8
2,67,105,8
2,67,100,56
2,69,101,104
2,66,99,8
2,72,103,426
2,72,101,32
2,72,100,42
2,72,99,40
2,71,98,8
2,72,120,1880
2,72,119,38
2,72,120,44
2,72,118,44
2,74,114,8
2,72,117,1634
2,72,116,44
2,72,120,44
2,72,117,44
2,71,113,18
3,62,116,6540
3,62,117,42
3,64,115,28
3,64,117,34
3,62,113,2
3,62,115,806
3,62,112,42
3,64,115,32
3,64,114,40
3,62,110,76
3,62,112,22
3,62,105,36
3,64,114,26
3,62,113,20
3,60,114,16
3,69,116,2
3,60,113,1818
3,60,115,38
3,62,116,28
3,62,116,32
3,60,110,2
3,60,112,920
3,60,111,40
3,62,114,30
3,62,110,32
3,60,110,84
3,60,111,70
3,62,114,38
3,60,111,14
3,59,111,24
3,67,114,2
3,62,116,1482
3,62,116,34
3,64,116,24
3,64,116,18
3,62,111,2
3,61,112,770
3,62,112,2
3,64,112,2
3,65,113,2
3,67,112,26
3,69,112,2
3,67,112,2
3,65,113,2
3,64,111,6
3,72,112,2
3,64,114,658
3,64,116,36
3,66,115,2
3,69,115,2
3,67,112,6
3,66,115,2
3,64,111,26
3,64,116,30
3,62,112,4
3,59,110,226
3,60,111,2
3,64,112,2
3,62,111,18
3,60,110,2
3,59,111,2
3,59,106,50
3,60,107,6
3,57,105,2
3,57,110,420
3,57,108,26
3,57,107,36
3,57,106,34
3,55,105,2
3,62,116,1874
3,62,117,42
3,64,115,28
3,64,117,34
3,62,113,2
3,62,115,806
3,62,112,42
3,64,115,32
3,64,114,40
3,62,110,76
3,62,112,22
3,62,105,36
3,64,114,26
3,62,113,20
3,60,114,16
3,69,116,2
3,60,113,1530
3,60,115,38
3,62,116,28
3,62,116,32
3,60,110,2
3,60,112,920
3,60,111,40
3,62,114,30
3,62,110,32
3,60,110,84
3,60,112,70
3,60,111,40
3,62,114,30
3,60,111,14
3,59,111,24
3,67,114,2
3,62,116,1482
3,62,116,34
3,64,116,24
3,64,116,18
3,62,111,2
3,61,112,770
3,62,112,2
3,64,112,2
3,65,113,2
3,67,112,26
3,69,112,2
3,67,112,2
3,65,113,2
3,64,111,6
3,72,112,2
3,64,114,274
3,64,116,36
3,66,115,2
3,69,115,2
3,67,112,6
3,66,115,2
3,64,111,26
3,64,116,30
3,62,112,4
3,59,110,226
3,60,111,2
3,64,112,2
3,62,111,18
3,60,110,2
3,59,111,2
3,59,106,50
3,60,107,6
3,57,105,2
3,57,110,420
3,57,108,26
3,57,107,36
3,57,106,34
3,55,105,2
3,62,116,14162
3,62,117,42
3,64,115,28
3,64,117,34
3,62,113,2
3,62,115,806
3,62,112,42
3,64,115,32
3,64,114,40
3,62,110,76
3,62,112,22
3,62,105,36
3,64,114,26
3,62,113,20
3,60,114,16
3,69,116,2
3,60,113,1530
3,60,115,38
3,62,116,28
3,62,116,32
3,60,110,2
3,60,112,920
3,60,111,40
3,62,114,30
3,62,110,32
3,60,110,84
3,60,112,70
3,60,111,40
3,62,114,30
3,60,111,14
3,59,111,24
3,67,114,2
3,62,116,1482
3,62,116,34
3,64,116,24
3,64,116,18
3,62,111,2
3,61,112,770
3,62,112,2
3,64,112,2
3,65,113,2
3,67,112,26
3,69,112,2
3,67,112,2
3,65,113,2
3,64,111,6
3,72,112,2
3,64,114,274
3,64,116,36
3,66,115,2
3,69,115,2
3,67,112,6
3,66,115,2
3,64,111,26
3,64,116,30
3,62,112,4
3,59,110,226
3,60,111,2
3,64,112,2
3,62,111,18
3,60,110,2
3,59,111,2
3,59,106,50
3,60,107,6
3,57,105,2
3,57,110,420
3,57,108,26
3,57,107,36
3,57,106,34
3,55,105,2
3,57,109,1874
3,57,108,32
3,57,109,38
3,57,107,38
3,59,103,2
3,57,106,1628
3,57,105,38
3,57,109,38
3,57,106,38
3,55,102,12
4,67,40,31472
4,71,40,0
4,69,40,8
4,72,40,0
4,69,40,8
4,72,40,0
4,67,40,8
4,71,40,0
4,67,40,8
4,71,40,0
4,74,40,8
4,72,40,8
4,76,40,0
4,71,40,8
4,74,40,0
4,69,40,8
4,72,40,0
4,67,40,584
4,71,40,0
4,67,40,8
4,71,40,0
4,69,40,8
4,72,40,0
4,67,40,8
4,71,40,8
4,74,40,0
4,69,40,8
4,72,40,0
4,67,40,3656
4,71,40,0
4,86,40,0
4,69,40,8
4,72,40,0
4,84,40,0
4,69,40,8
4,72,40,0
4,84,40,0
4,67,40,8
4,71,40,0
4,86,40,0
4,67,40,8
4,71,40,0
4,86,40,0
4,74,40,8
4,72,40,8
4,76,40,0
4,88,40,0
4,71,40,8
4,74,40,0
4,86,40,0
4,69,40,8
4,72,40,0
4,84,40,0
4,67,40,584
4,71,40,0
4,86,40,0
4,67,40,8
4,71,40,0
4,86,40,0
4,67,40,8
4,71,40,0
4,86,40,0
4,67,40,8
4,71,40,0
4,86,40,0
5,67,40,32494
5,76,100,60
5,67,80,2
5,72,88,0
5,67,92,34
5,76,80,0
5,72,88,2
5,67,80,2
5,67,66,42
5,74,72,6
5,71,57,18
5,71,56,124
5,74,71,6
5,67,64,2
5,62,40,2070
5,71,100,60
5,62,80,2
5,67,88,0
5,62,92,34
5,71,80,0
5,67,88,2
5,62,80,2
5,62,66,42
5,69,72,6
5,66,57,18
5,66,56,124
5,69,71,6
5,62,64,2
5,62,40,2070
5,71,100,60
5,62,80,2
5,67,88,0
5,62,92,34
5,71,80,0
5,67,88,2
5,62,80,2
5,62,66,42
5,69,72,6
5,66,57,18
5,66,56,124
5,69,71,6
5,62,64,2
5,67,40,2070
5,76,100,60
5,67,80,2
5,72,88,0
5,67,92,34
5,76,80,0
5,72,88,2
5,67,80,2
5,67,66,42
5,74,72,6
5,71,57,18
5,71,56,124
5,74,71,6
5,67,64,2
5,67,40,2070
5,76,100,60
5,67,80,2
5,72,88,0
5,67,92,34
5,76,80,0
5,72,88,2
5,67,80,2
5,67,66,42
5,74,72,6
5,71,57,18
5,71,56,124
5,74,71,6
5,67,64,2
5,67,40,23574
5,76,100,60
5,67,80,2
5,72,88,0
5,67,92,34
5,76,80,0
5,72,88,2
5,67,80,2
5,67,66,42
5,74,72,6
5,71,57,18
5,71,56,124
5,74,71,6
5,67,64,2
5,62,40,2070
5,71,100,60
5,62,80,2
5,67,88,0
5,62,92,34
5,71,80,0
5,67,88,2
5,62,80,2
5,62,66,42
5,69,72,6
5,66,57,18
5,66,56,124
5,69,71,6
5,62,64,2
5,62,40,2070
5,71,100,60
5,62,80,2
5,67,88,0
5,62,92,34
5,71,80,0
5,67,88,2
5,62,80,2
5,62,66,42
5,69,72,6
5,66,57,18
5,66,56,124
5,69,71,6
5,62,64,2
5,67,40,2070
5,76,100,60
5,67,80,2
5,72,88,0
5,67,92,34
5,76,80,0
5,72,88,2
5,67,80,2
5,67,66,42
5,74,72,6
5,71,57,18
5,71,56,124
5,74,71,6
5,67,64,2
5,67,40,2070
5,76,100,60
5,67,80,2
5,72,88,0
5,67,92,34
5,76,80,0
5,72,88,2
5,67,80,2
5,67,66,42
5,74,72,6
5,71,57,18
5,71,56,124
5,74,71,6
5,67,64,2
5,67,40,11286
5,76,100,60
5,67,80,2
5,72,88,0
5,67,92,34
5,76,80,0
5,72,88,2
5,67,80,2
5,67,66,42
5,74,72,6
5,71,57,18
5,71,56,124
5,74,71,6
5,67,64,2
5,67,40,2070
5,76,100,60
5,67,80,2
5,72,88,0
5,67,92,34
5,76,80,0
5,72,88,2
5,67,80,2
5,67,66,42
