track,note,velocity,time
3,59,55,0
3,62,75,15
3,66,85,17
3,59,72,30
3,64,55,23
3,68,58,23
3,59,52,74
3,62,75,16
3,66,72,31
3,58,42,98
3,61,70,30
3,66,58,17
3,59,61,105
3,62,69,16
3,66,75,35
3,57,61,96
3,61,72,15
3,64,83,40
3,57,44,6304
3,62,61,9
3,66,55,15
3,58,45,330
3,61,48,16
3,66,58,6
3,59,55,355
3,62,63,12
3,60,43,354
3,62,65,7
3,66,52,3
3,59,30,363
3,67,57,10
3,62,65,0
3,59,53,336
3,62,61,10
3,67,75,10
3,59,56,337
3,62,68,8
3,67,74,2
3,59,38,350
3,62,58,13
3,67,56,8
3,57,24,325
3,61,53,11
3,64,64,6
3,57,47,358
3,61,40,4
3,64,74,11
3,57,33,345
3,61,41,4
3,64,62,6
3,64,54,1128
3,57,53,0
3,61,45,3
3,61,59,748
3,64,65,0
3,61,49,751
3,64,26,5
3,59,68,351
3,62,57,8
3,57,57,182
3,66,48,0
3,62,68,0
3,59,66,714
3,62,75,5
3,67,71,14
3,57,79,735
3,62,87,4
3,66,78,8
3,59,68,728
3,62,75,6
3,67,79,14
3,57,69,727
3,62,71,6
3,66,70,20
3,59,71,712
3,62,72,3
3,67,81,22
3,57,69,709
3,62,75,13
3,66,81,3
3,59,61,709
3,62,69,13
3,67,81,8
3,57,44,914
3,62,61,11
3,66,55,13
3,58,45,330
3,61,48,16
3,66,58,8
3,59,55,354
3,62,63,13
3,60,43,349
3,62,65,9
3,66,52,3
3,59,30,363
3,67,57,10
3,62,65,0
3,59,53,334
3,62,61,10
3,67,75,11
3,59,56,337
3,62,68,8
3,67,74,2
3,59,38,350
3,62,58,13
3,67,56,8
3,57,24,326
3,61,53,10
3,64,64,6
3,57,47,359
3,61,40,2
3,64,74,10
3,57,33,346
3,61,41,2
3,64,62,7
3,64,54,1128
3,57,53,0
3,61,45,4
3,61,59,749
3,64,65,0
3,57,57,562
3,66,48,0
3,62,68,0
3,59,66,713
3,62,75,5
3,67,71,14
3,57,79,735
3,62,87,4
3,66,78,5
3,59,68,728
3,62,75,7
3,67,79,13
3,57,69,727
3,62,71,8
3,66,70,0
3,59,71,712
3,62,72,3
3,67,81,21
3,57,69,707
3,62,75,12
3,66,81,4
3,59,61,708
3,62,69,12
3,67,81,6
3,57,44,5522
3,62,61,10
3,66,55,15
3,58,45,330
3,61,48,16
3,66,58,6
3,59,55,353
3,62,63,14
3,60,43,351
3,62,65,6
3,66,52,4
3,59,30,365
3,67,57,8
3,62,65,0
3,59,53,14
3,62,61,11
3,67,75,8
3,59,56,46
3,62,68,7
3,67,74,3
3,59,38,20
3,62,58,13
3,67,56,4
3,57,24,21
3,61,53,10
3,64,64,3
3,57,47,34
3,61,40,3
3,64,74,2
3,57,33,35
3,61,41,3
3,64,62,5
3,64,54,908
3,57,53,1
3,61,45,3
4,71,35,59
4,66,24,0
4,74,22,19
4,76,52,0
4,68,32,1
4,66,28,76
4,74,52,15
4,73,45,105
4,70,40,2
4,74,47,692
4,71,60,7
4,73,43,85
4,69,31,4
4,64,32,1
4,74,43,6145
4,78,39,0
4,76,53,375
4,73,39,2
4,71,38,369
4,74,59,0
4,72,48,15
4,71,46,387
4,69,44,1519
4,73,41,0
4,67,41,21
4,71,38,8
4,73,23,5
4,69,52,7
4,76,24,1212
4,78,43,49
4,74,57,0
4,69,39,0
4,79,48,105
4,71,35,0
4,78,20,167
4,69,35,0
4,79,47,91
4,71,41,0
4,69,33,76
4,78,39,0
4,71,37,101
4,79,49,0
4,69,20,70
4,78,33,0
4,79,40,79
4,71,40,0
4,74,43,16
4,78,39,0
4,76,53,373
4,73,39,3
4,71,38,369
4,74,59,0
4,72,48,16
4,71,46,387
4,69,44,1519
4,73,41,0
4,67,41,20
4,71,38,8
4,67,51,7
4,71,59,0
4,69,53,269
4,73,47,0
4,71,58,6
4,67,46,0
4,69,40,4
4,73,41,0
4,67,50,10
4,71,61,0
4,78,43,11
4,74,57,0
4,69,39,2
4,79,48,106
4,71,35,0
4,78,20,167
4,69,35,0
4,79,47,93
4,71,41,0
4,69,33,75
4,78,39,0
4,71,37,99
4,79,49,0
4,69,20,68
4,78,33,0
4,79,40,78
4,71,40,0
4,82,106,784
4,86,80,0
4,79,63,7
4,83,92,0
4,74,43,3050
4,78,39,0
4,76,53,375
4,73,39,2
4,71,38,370
4,74,59,0
4,72,48,16
4,71,46,386
4,69,44,34
4,73,41,0
4,67,41,20
4,71,38,7
4,67,51,7
4,71,59,0
4,69,53,270
4,73,47,0
4,71,58,4
4,67,46,0
5,35,55,670
5,95,60,1438
5,98,65,0
5,97,68,96
5,35,55,373
6,47,44,1
6,52,47,768
6,47,58,742
6,42,45,752
6,47,50,750
6,45,46,755
6,78,80,6114
6,74,88,0
6,78,80,167
6,74,76,1
6,73,86,171
6,76,77,0
6,73,83,165
6,76,84,0
6,71,77,166
6,74,84,0
6,71,74,165
6,74,86,0
6,72,76,161
6,74,84,0
6,74,82,167
6,72,82,0
6,74,86,169
6,71,86,0
6,71,86,172
6,74,86,0
6,71,82,165
6,74,86,0
6,74,82,173
6,71,82,0
6,71,80,171
6,67,79,0
6,71,86,170
6,67,86,0
6,71,88,161
6,67,86,0
6,71,84,164
6,67,82,0
6,73,90,169
6,69,82,0
6,73,100,168
6,69,95,0
6,69,88,166
6,73,90,0
6,73,95,171
6,69,80,1
6,73,100,174
6,69,80,0
6,73,86,174
6,69,77,0
6,69,82,171
6,73,95,0
6,69,86,171
6,73,90,0
6,69,79,174
6,73,83,0
6,73,75,173
6,69,76,0
6,67,79,168
6,71,73,0
6,67,77,163
6,71,76,0
6,73,106,125
6,74,86,11
6,73,126,97
6,71,106,16
6,69,100,14
6,69,74,131
6,73,58,4
6,73,83,176
6,69,86,0
6,69,80,169
6,73,80,0
6,73,83,168
6,69,71,1
6,69,84,173
6,73,71,2
6,67,79,168
6,71,82,1
6,78,80,164
6,74,92,0
6,78,95,167
6,74,95,0
6,74,103,166
6,78,86,0
6,78,90,173
6,74,92,0
6,71,86,170
6,74,100,0
6,71,90,159
6,74,97,0
6,74,95,170
6,71,84,0
6,74,88,167
6,71,82,0
6,74,80,165
6,78,75,0
6,78,90,171
6,74,76,0
6,78,86,166
6,74,86,0
6,78,83,170
6,74,88,0
6,71,79,163
6,74,88,0
6,71,79,164
6,74,88,0
6,74,88,163
6,71,74,0
6,71,80,168
6,74,86,0
6,74,84,170
6,78,77,0
6,74,86,167
6,78,83,0
6,74,88,174
6,78,77,0
6,78,83,170
6,74,76,0
6,74,84,174
6,71,82,0
6,74,92,170
6,71,79,0
6,74,88,171
6,71,73,0
6,71,80,174
6,74,88,0
6,74,88,166
6,78,80,0
6,78,77,170
6,74,86,0
6,74,95,174
6,78,80,0
6,74,88,170
6,78,73,0
6,71,88,175
6,74,84,0
6,71,95,170
6,74,65,0
6,71,88,168
6,74,84,0
6,74,90,170
6,71,90,0
6,78,80,174
6,74,88,0
6,78,80,166
6,74,76,1
6,73,86,171
6,76,77,0
6,73,83,164
6,76,84,0
6,71,77,167
6,74,84,0
6,74,86,164
6,71,74,1
6,72,76,160
6,74,84,0
6,74,82,166
6,72,82,0
6,74,86,170
6,71,86,0
6,71,86,172
6,74,86,0
6,71,82,165
6,74,86,0
6,71,82,171
6,74,82,1
6,71,80,170
6,67,79,0
6,71,86,170
6,67,86,0
6,71,88,162
6,67,86,0
6,71,84,163
6,67,82,0
6,73,90,169
6,69,82,0
6,73,100,167
6,69,95,0
6,69,88,166
6,73,90,0
6,69,80,174
6,73,95,0
6,69,80,174
6,73,100,2
6,73,86,173
6,69,77,0
6,69,82,170
6,73,95,0
6,69,86,172
6,73,90,0
6,78,80,2094
6,74,92,0
6,78,95,168
6,74,95,0
6,74,103,166
6,78,86,0
6,78,90,171
6,74,92,0
6,71,86,170
6,74,100,0
6,71,90,160
6,74,97,0
6,74,95,172
6,71,84,0
6,74,88,166
6,71,82,0
6,74,80,165
6,78,75,0
6,78,90,170
6,74,76,0
6,78,86,167
6,74,86,0
6,78,83,170
6,74,88,0
6,71,79,163
6,74,88,0
6,71,79,164
6,74,88,0
6,74,88,162
6,71,74,0
6,71,80,169
6,74,86,0
6,74,84,169
6,78,77,0
6,74,86,166
6,78,83,0
6,74,88,173
6,78,77,0
6,78,83,169
6,74,76,0
6,74,84,173
6,71,82,0
6,74,92,171
6,71,79,0
6,74,88,171
6,71,73,0
6,71,80,174
6,74,88,0
6,74,88,166
6,78,80,0
6,78,77,171
6,74,86,0
6,74,95,172
6,78,80,0
6,74,88,170
6,78,73,0
6,71,88,173
6,74,84,0
6,71,95,170
6,74,65,0
6,71,88,167
6,74,84,0
6,74,90,170
6,71,90,0
6,78,80,4783
6,74,88,0
6,78,80,166
6,74,76,2
6,73,86,170
6,76,77,0
6,73,83,164
6,76,84,0
6,71,77,167
6,74,84,0
6,71,74,165
6,74,86,0
6,72,76,161
6,74,84,0
6,74,82,166
6,72,82,0
6,74,86,170
6,71,86,0
6,71,86,172
6,74,86,0
6,71,82,166
6,74,86,0
6,71,82,171
6,74,82,1
6,71,80,32
6,67,79,0
6,71,86,103
6,67,86,0
6,71,88,42
6,67,86,0
6,71,84,4
6,67,82,0
6,73,90,27
6,69,82,0
6,73,100,4
6,69,95,0
6,69,88,54
6,73,90,0
6,69,80,11
6,73,95,0
6,73,100,4
6,69,80,0
6,73,86,11
6,69,77,0
6,69,82,36
6,73,95,0
6,69,86,13
6,73,90,0
7,50,63,4607
7,66,66,0
7,57,65,10
7,62,27,95
7,66,64,44
7,49,63,97
7,61,74,0
7,54,65,0
7,58,67,0
7,61,65,15
7,62,27,18
7,47,27,0
7,54,54,16
7,59,71,28
7,62,27,45
7,66,80,60
7,45,27,0
7,60,68,61
7,62,27,62
7,66,60,14
7,67,86,0
7,43,57,0
7,59,61,12
7,62,27,17
7,71,84,30
7,67,76,10
7,62,27,7
7,59,78,15
7,55,80,49
7,43,64,17
7,59,79,0
7,50,59,0
7,55,69,40
7,62,27,53
7,55,83,59
7,59,67,35
7,62,27,44
7,67,77,47
7,45,74,30
7,61,65,0
7,57,63,0
7,61,61,38
7,57,63,61
7,52,48,43
7,57,67,43
7,61,68,47
7,64,73,43
7,45,53,4
7,61,55,0
7,52,64,5
7,57,70,13
7,61,82,67
7,57,67,65
7,61,62,16
7,64,74,37
7,69,69,54
7,45,65,27
7,64,69,0
7,57,63,22
7,61,60,41
7,64,79,52
7,57,70,34
7,57,84,38
7,61,80,31
7,64,80,35
7,59,81,3
7,43,72,0
7,55,73,14
7,59,81,20
7,62,27,51
7,45,79,38
7,61,90,0
7,52,72,53
7,57,75,44
7,61,87,57
7,73,113,17241
7,74,102,83
7,73,119,79
7,71,110,91
7,69,87,0
7,73,119,0
7,71,120,97
8,62,30,4607
8,64,68,9
8,66,61,384
8,67,64,373
8,69,67,190
8,71,66,179
8,69,65,659
8,67,70,34
8,62,20,44
8,64,20,762
8,62,42,1
8,64,61,1
8,66,49,193
9,102,71,4607
9,98,57,3
9,93,52,2
9,98,59,12
9,102,57,0
9,97,49,21
9,102,61,97
9,106,57,8
9,107,79,3
9,102,43,97
9,98,51,14
9,102,38,4
9,107,76,6
9,102,53,52
9,98,53,5
9,102,44,14
9,103,57,24
9,98,52,10
9,95,40,17
9,98,57,21
9,103,86,8
9,98,50,20
9,95,66,41
9,98,67,98
9,103,71,73
9,98,57,15
9,95,45,13
9,98,49,20
9,107,70,11
9,103,65,14
9,98,46,7
9,95,50,14
9,100,74,7
9,97,50,6
9,93,41,25
9,97,51,32
9,105,76,42
9,100,54,10
9,97,43,28
9,93,56,96
9,100,70,21
9,97,47,18
9,93,54,20
9,88,56,65
9,100,58,62
9,97,53,34
9,93,44,24
9,97,43,33
9,105,76,21
9,100,48,15
9,97,47,11
9,93,48,22
9,97,48,44
9,93,44,11
9,91,62,129
9,95,57,23
9,98,58,31
9,91,40,62
9,97,83,80
9,93,58,28
9,97,58,42
9,100,61,40
10,34,98,7681
10,34,88,1409
10,34,88,69
11,57,70,10754
11,66,49,0
11,74,65,0
11,64,54,9
11,73,57,0
11,58,48,2
11,71,58,382
11,59,57,0
11,62,44,0
11,66,40,0
11,60,64,366
11,69,62,0
11,67,46,3
11,59,41,0
11,62,45,0
11,66,90,5092
11,74,90,0
11,74,85,149
11,67,85,0
11,71,85,0
11,74,90,74
11,69,90,0
11,66,90,0
11,74,85,131
11,71,85,0
11,67,85,0
11,66,90,129
11,74,90,0
11,69,90,0
11,71,80,129
11,74,86,0
11,67,80,0
11,66,85,72
11,69,85,0
11,74,85,0
11,71,82,86
11,74,80,0
11,67,82,0
11,57,70,146
11,66,49,0
11,74,65,0
11,64,54,11
11,73,57,0
11,58,48,0
11,71,58,0
11,59,57,0
11,62,44,0
11,66,40,0
11,60,64,367
11,69,62,0
11,67,46,3
11,59,41,0
11,62,45,0
11,62,77,4225
11,67,79,0
11,71,74,0
11,62,86,115
11,66,77,0
11,69,84,0
11,66,83,43
11,69,88,0
11,62,86,1
11,71,84,896
11,67,86,2
11,62,74,0
11,71,82,46
11,67,80,0
11,71,80,32
11,67,73,0
11,66,65,32
11,69,76,0
11,71,82,933
11,67,82,0
11,62,84,0
11,62,86,51
11,67,77,0
11,71,84,0
11,62,79,7
11,69,65,2
11,66,59,0
11,62,80,14
11,69,88,0
11,66,73,0
11,62,74,1032
11,67,74,0
11,71,79,0
11,62,80,40
11,67,73,0
11,71,80,0
11,62,76,22
11,66,61,1
11,69,72,0
11,69,74,4
11,62,68,0
11,66,63,1
11,55,86,2624
11,64,84,0
11,60,95,3
11,61,126,362
11,64,106,1
11,73,118,7
11,76,106,0
11,59,97,7
11,62,92,5
11,74,84,3
11,71,100,0
11,61,112,18
11,57,95,0
11,73,118,6
11,69,100,0
11,69,97,8
11,73,112,0
11,61,106,8
11,57,97,1
11,74,95,9
11,71,90,0
11,62,103,9
11,59,97,0
11,76,95,13
11,73,118,0
11,64,100,8
11,61,118,0
11,62,92,53
11,65,90,0
11,74,122,0
11,77,109,0
11,78,126,4
11,75,112,32
11,63,95,0
11,66,86,0
11,59,90,0
11,79,122,334
11,67,82,0
11,64,84,0
11,76,113,1
11,61,118,353
11,69,100,352
11,57,97,0
11,81,106,0
11,57,70,4
11,66,49,0
11,74,65,0
11,64,54,8
11,73,57,0
11,58,48,2
11,71,58,382
11,59,57,0
11,62,44,0
11,66,40,0
11,60,64,368
11,69,62,0
11,67,46,0
11,59,41,0
11,62,45,0
12,42,90,9889
12,48,71,0
12,55,65,0
12,42,64,20
12,42,49,30
12,48,70,0
12,52,62,0
12,42,69,38
12,42,86,19
12,45,72,0
12,55,64,0
12,42,95,50
12,45,74,0
12,57,75,0
12,42,73,23
12,43,45,24
12,42,64,0
12,41,75,4
12,42,94,33
12,41,98,0
12,42,67,52
12,42,71,28
12,42,90,25
12,54,110,0
12,35,110,0
12,42,48,86
12,42,64,39
12,42,77,40
12,54,110,0
12,42,73,87
12,35,110,0
12,42,71,39
12,42,86,39
12,54,110,0
12,42,52,87
12,42,75,38
12,42,95,39
12,54,110,0
12,38,115,0
12,42,67,86
12,42,53,39
12,42,90,39
12,54,110,0
12,35,110,0
12,42,64,86
12,42,49,38
12,54,110,41
12,42,69,40
12,42,86,40
12,35,110,0
12,42,95,87
12,54,110,0
12,42,73,40
12,42,64,40
12,42,106,89
12,54,110,0
12,38,115,0
12,42,67,87
12,42,71,39
12,42,100,42
12,54,110,0
12,35,110,0
12,42,59,87
12,42,69,41
12,42,100,40
12,54,110,0
12,42,61,87
12,35,110,0
12,42,71,40
12,42,95,40
12,54,110,0
12,42,69,87
12,42,75,38
12,42,100,41
12,54,110,0
12,38,115,0
12,42,64,86
12,42,86,39
12,42,95,40
12,54,110,0
12,35,110,0
12,42,67,88
12,42,86,39
12,42,83,39
12,54,110,0
12,42,73,88
12,35,110,0
12,42,86,38
12,42,83,39
12,54,110,0
12,42,75,87
12,42,83,38
