track,note,velocity,time
0,55,78,0
0,59,83,0
0,43,75,4
0,50,78,0
0,74,103,236
0,73,94,94
0,72,95,12
0,71,94,20
0,55,83,14
0,40,75,2
0,47,82,0
0,52,75,0
0,76,98,0
0,74,97,124
0,73,101,2
0,72,103,34
0,71,101,12
0,79,101,14
0,52,77,26
0,60,84,2
0,45,78,2
0,79,102,136
0,78,103,16
0,77,100,32
0,76,102,2
0,53,75,2
0,83,100,6
0,83,103,134
0,81,95,8
0,79,94,6
0,78,102,6
0,54,83,6
0,45,75,2
0,60,82,0
0,88,101,130
0,82,102,14
0,83,103,128
0,43,75,0
0,50,75,0
0,55,79,2
0,59,84,2
0,38,50,1
0,74,102,2
0,38,45,135
0,38,40,11
0,77,103,1
0,50,75,2
0,44,78,0
0,59,80,0
0,53,82,4
0,95,95,218
0,92,102,16
0,89,98,30
0,86,96,8
0,38,41,7
0,83,98,27
0,80,102,22
0,77,99,38
0,74,99,26
0,71,95,32
0,68,94,28
0,65,103,6
0,62,95,8
0,64,100,12
0,38,42,0
0,45,78,0
0,60,79,0
0,52,83,4
0,57,77,0
0,64,98,100
0,38,43,10
0,64,98,124
0,38,48,100
0,44,82,8
0,70,97,2
0,54,84,0
0,60,77,0
0,63,75,0
0,82,98,188
0,38,45,115
0,72,94,9
0,75,103,88
0,78,98,72
0,82,102,28
0,38,38,0
0,43,80,0
0,55,78,0
0,50,78,6
0,59,76,0
0,81,94,0
0,74,96,56
0,38,38,153
0,67,80,3
0,71,76,4
0,62,76,4
0,73,101,0
0,72,101,2
0,71,95,4
0,38,38,82
0,55,80,0
0,40,78,2
0,52,76,0
0,47,82,2
0,76,100,0
0,75,94,2
0,74,94,18
0,73,98,32
0,38,50,71
0,72,96,5
0,67,82,4
0,59,78,2
0,64,80,2
0,71,94,36
0,79,102,10
0,78,97,6
0,38,46,66
0,60,76,6
0,52,81,2
0,45,78,2
0,77,102,6
0,76,97,18
0,83,98,68
0,82,103,4
0,53,77,78
0,60,81,0
0,45,78,2
0,38,48,1
0,81,102,1
0,80,97,20
0,79,100,0
0,78,96,8
0,38,50,92
0,60,75,2
0,45,76,0
0,54,75,4
0,88,101,0
0,66,82,136
0,38,38,131
0,72,75,3
0,69,78,4
0,62,82,2
0,82,96,76
0,38,47,9
0,83,101,1
0,43,82,2
0,53,79,64
0,59,84,14
0,38,45,1
0,77,96,5
0,80,101,182
0,79,100,14
0,80,96,6
0,38,51,6
0,79,98,0
0,48,79,8
0,75,96,6
0,38,48,5
0,60,80,1
0,55,76,2
0,63,78,2
0,72,97,2
0,77,95,198
0,38,46,182
0,65,100,154
0,38,44,115
0,70,94,25
0,73,102,160
0,72,103,4
0,73,103,32
0,72,101,14
0,38,43,6
0,51,84,0
0,57,82,2
0,41,81,0
0,75,94,188
0,38,40,2
0,66,96,8
0,78,101,2
0,54,118,0
0,38,47,4
0,56,98,3
0,53,114,0
0,46,98,0
0,61,95,0
0,68,97,10
0,36,99,20
0,63,102,348
0,38,49,6
0,60,97,28
0,46,94,0
0,38,39,5
0,38,48,3
0,56,121,200
0,68,94,0
0,38,42,10
0,63,94,0
0,60,120,0
0,42,97,0
0,72,94,2
0,63,113,15
0,38,50,1
0,66,118,0
0,68,94,0
0,41,95,0
0,71,97,6
0,67,95,6
0,74,97,0
0,65,112,15
0,38,36,5
0,42,99,0
0,66,100,0
0,70,103,0
0,64,121,0
0,40,97,0
0,58,94,2
0,70,101,6
0,73,96,4
0,69,101,328
0,38,46,8
0,39,94,6
0,69,103,4
0,65,96,4
0,65,94,0
0,43,94,2
0,61,99,12
0,63,115,15
0,38,46,11
0,60,121,0
0,44,97,0
0,63,99,0
0,75,97,0
0,55,116,15
0,62,94,162
0,38,48,11
0,70,102,7
0,59,98,6
0,43,96,28
0,60,102,0
0,58,97,6
0,67,102,10
0,44,98,0
0,38,42,0
0,39,99,0
0,63,100,6
0,38,50,363
0,53,115,15
0,56,97,0
0,71,97,8
0,38,49,4
0,56,118,0
0,75,95,0
0,44,97,0
0,48,97,2
0,69,96,2
0,60,120,15
0,70,98,0
0,55,97,2
0,38,38,0
0,63,116,0
0,43,102,0
0,65,101,6
0,74,99,2
0,47,98,4
0,62,120,15
0,67,100,162
0,46,96,2
0,73,99,2
0,67,100,0
0,38,46,4
0,61,114,0
0,42,101,0
0,54,95,14
0,53,98,0
0,62,95,2
0,41,101,0
0,72,101,1
0,38,50,0
0,62,101,2
0,45,99,2
0,60,112,15
0,60,103,2
0,67,102,2
0,65,121,0
0,46,94,0
0,38,50,1
0,50,101,0
0,34,95,0
0,53,121,15
0,38,40,188
0,38,37,136
0,46,96,0
0,38,44,3
0,55,113,15
0,56,96,4
0,38,44,0
0,56,116,0
0,39,102,0
0,72,96,14
0,61,99,8
0,77,103,6
0,60,120,15
0,38,48,3
0,63,117,0
0,60,120,15
0,61,103,120
0,57,103,3
0,38,42,5
0,63,117,0
0,39,102,0
0,54,98,12
0,40,102,10
0,60,121,15
0,38,46,188
0,38,39,3
0,44,102,0
0,63,118,0
0,60,102,26
0,55,95,8
0,70,94,9
0,38,37,2
0,55,114,0
0,51,101,12
0,70,97,12
0,44,97,0
0,38,45,1
0,38,40,372
0,54,100,4
0,38,37,4
0,63,115,0
0,45,102,0
0,71,100,2
0,51,103,0
0,33,96,0
0,63,103,2
0,71,96,0
0,54,112,8
0,38,41,176
0,38,48,139
0,45,94,0
0,38,46,377
0,53,95,32
0,65,98,0
0,38,36,10
0,60,100,2
0,68,100,0
0,53,118,0
0,46,101,0
0,34,97,0
0,56,98,8
0,38,48,358
0,63,97,36
0,60,94,172
0,38,44,136
0,46,100,0
0,38,39,378
0,56,119,143
0,58,94,0
0,38,51,8
0,75,98,0
0,60,115,0
0,42,98,0
0,42,94,2
0,63,114,0
0,66,118,8
0,71,100,2
0,38,49,5
0,63,99,3
0,41,103,6
0,57,95,0
0,41,103,12
0,65,116,15
0,59,101,2
0,56,99,0
0,73,94,0
0,40,94,0
0,64,115,0
0,40,97,0
0,38,40,0
0,38,48,4
0,55,98,0
0,63,113,8
0,39,96,0
0,69,97,12
0,61,95,6
0,39,98,2
0,60,121,0
0,44,103,0
0,38,40,0
0,55,121,15
0,53,101,170
0,70,100,10
0,38,36,0
0,62,98,18
0,38,95,20
0,38,38,10
0,63,96,2
0,70,103,6
0,65,99,0
0,44,96,0
0,60,95,4
0,55,100,2
0,39,102,4
0,38,41,349
0,53,119,15
0,69,95,14
0,38,44,4
0,71,95,0
0,56,115,0
0,44,102,0
0,44,100,0
0,75,100,2
0,60,96,4
0,60,113,15
0,38,36,4
0,59,98,0
0,74,99,3
0,63,121,0
0,43,100,0
0,68,98,2
0,43,102,6
0,70,97,4
0,62,115,0
0,42,96,164
0,67,103,0
0,58,94,3
0,38,49,6
0,61,118,0
0,73,101,0
0,42,98,0
0,69,94,0
0,66,96,336
0,57,103,1
0,38,47,5
0,68,100,1
0,41,101,3
0,41,97,4
0,72,99,6
0,34,95,6
0,38,49,0
0,60,99,0
0,60,120,0
0,46,100,0
0,62,94,2
0,50,96,6
0,67,99,6
0,56,97,2
0,65,116,0
0,38,41,33
0,53,113,15
0,38,36,141
0,46,95,0
0,38,43,370
0,55,113,15
0,38,48,1
0,75,103,3
0,56,117,0
0,39,103,0
0,58,96,4
0,44,103,4
0,65,100,4
0,70,102,2
0,80,97,0
0,61,96,2
0,60,114,15
0,63,121,15
0,38,40,0
0,60,112,15
0,42,100,9
0,57,95,2
0,38,44,0
0,63,99,1
0,63,120,0
0,39,101,0
0,64,100,2
0,69,96,6
0,60,114,8
0,38,43,188
0,38,48,1
0,44,98,0
0,65,101,328
0,60,94,10
0,39,102,1
0,70,95,2
0,38,38,1
0,63,114,0
0,55,95,2
0,56,96,10
0,38,43,1
0,53,114,0
0,44,100,0
0,51,116,15
0,38,39,8
0,56,116,3
0,60,97,2
0,38,49,6
0,41,101,0
0,53,99,16
0,67,101,2
0,38,100,2
0,38,47,257
0,38,102,0
0,38,48,2
0,43,101,0
0,68,101,1
0,53,97,0
0,59,102,4
0,38,49,366
0,55,99,0
0,52,98,2
0,69,98,0
0,36,103,2
0,38,38,0
0,36,98,0
0,59,98,2
0,38,47,334
0,55,121,10
0,52,118,15
0,62,103,1
0,57,100,0
0,38,50,3
0,45,96,0
0,57,100,6
0,52,101,138
0,60,103,18
0,57,113,0
0,38,49,8
0,52,112,3
0,57,101,2
0,53,98,2
0,38,43,3
0,38,102,0
0,60,97,18
0,33,101,0
0,38,51,261
0,60,112,6
0,57,120,15
0,55,94,166
0,59,102,1
0,38,51,3
0,37,94,1
0,64,116,0
0,43,94,0
0,61,96,4
0,59,119,15
0,38,49,181
0,69,113,0
0,36,100,22
0,62,96,4
0,55,97,0
0,38,40,10
0,36,102,0
0,50,100,20
0,63,117,15
0,38,43,11
0,64,120,0
0,33,97,4
0,66,94,0
0,38,46,7
0,57,114,0
0,45,103,0
0,58,101,10
0,54,103,0
0,53,96,46
0,65,102,2
0,38,46,59
0,64,98,70
0,52,96,30
0,45,96,38
0,36,101,104
0,52,95,0
0,64,95,6
0,38,43,1
0,56,95,0
0,38,98,0
0,38,47,323
0,57,120,8
0,53,103,10
0,65,102,14
0,65,116,15
0,67,101,24
0,55,99,0
0,58,94,0
0,51,98,2
0,38,37,5
0,56,113,0
0,37,101,0
0,63,94,12
0,35,98,12
0,38,43,353
0,59,102,34
0,69,103,2
0,38,41,9
0,36,101,0
0,40,99,22
0,55,99,0
0,55,114,360
0,38,43,0
0,52,114,15
0,62,94,168
0,52,98,12
0,57,98,4
0,45,102,0
0,38,39,1
0,57,115,24
0,60,96,4
0,38,44,179
0,52,120,24
0,33,99,34
0,48,99,0
0,38,42,2
0,38,100,0
0,53,101,2
0,60,95,20
0,38,48,259
0,60,117,8
0,57,119,15
0,55,94,0
0,49,97,0
0,38,36,1
0,53,100,0
0,64,114,0
0,43,102,0
0,31,103,4
0,61,94,0
0,59,116,15
0,38,50,187
0,38,36,2
0,69,121,0
0,36,102,0
0,60,94,4
0,64,94,4
0,59,98,32
0,63,112,15
0,62,101,4
0,38,51,5
0,64,112,6
0,58,96,11
0,58,113,15
0,62,119,23
0,55,102,72
0,60,99,0
0,38,47,1
0,60,118,0
0,41,98,0
0,56,113,15
0,54,96,4
0,38,42,4
0,53,114,7
0,53,99,0
0,38,48,3
0,61,98,0
0,46,103,0
0,55,95,2
0,43,99,20
0,55,118,143
0,38,37,11
0,58,112,0
0,46,103,0
0,61,119,15
0,38,38,1
0,54,103,0
0,60,97,0
0,64,113,0
0,45,94,0
0,45,100,8
0,60,113,15
0,63,114,15
0,38,36,5
0,54,113,6
0,45,95,0
0,41,96,53
0,61,103,2
0,75,98,4
0,38,46,2
0,46,96,0
0,57,95,12
0,38,49,365
0,53,119,3
0,56,98,2
0,72,101,6
0,38,46,2
0,46,99,0
0,38,45,367
0,56,115,207
0,38,47,2
0,60,113,0
0,36,100,0
0,58,103,8
0,52,99,16
0,62,96,8
0,63,121,15
0,66,119,0
0,51,95,2
0,38,36,8
0,29,101,6
0,61,94,0
0,57,99,2
0,65,120,15
0,50,99,8
0,56,100,9
0,64,120,0
0,46,100,0
0,38,50,1
0,60,95,3
0,63,115,6
0,39,95,0
0,38,39,1
0,59,96,3
0,55,99,4
0,49,101,4
0,38,36,4
0,60,120,0
0,39,94,0
0,40,100,342
0,75,101,8
0,64,101,2
0,38,38,5
0,65,95,2
0,55,118,6
0,55,95,8
0,59,99,4
0,56,95,4
0,39,98,2
0,38,39,7
0,63,95,0
0,60,103,0
0,67,97,0
0,32,101,0
0,70,96,14
0,38,46,16
0,53,120,0
0,39,99,0
0,56,117,15
0,60,121,15
0,39,99,0
0,63,103,0
0,38,46,3
0,63,114,0
0,44,102,0
0,56,97,6
0,63,102,8
0,60,98,2
0,73,96,8
0,62,97,0
0,38,95,4
0,67,100,0
0,38,47,4
0,59,97,2
0,62,117,7
0,43,100,0
0,53,103,4
0,78,94,3
0,52,103,4
0,68,102,0
0,58,102,0
0,38,37,1
0,61,120,0
0,42,95,0
0,61,101,6
0,37,102,2
0,51,102,2
0,79,103,5
0,38,43,3
0,36,100,3
0,41,97,3
0,65,100,2
0,60,99,6
0,57,96,0
0,38,50,4
0,60,112,0
0,46,95,0
0,65,115,15
0,68,101,7
0,50,97,4
0,34,94,4
0,77,97,0
0,56,94,2
0,53,121,4
0,58,94,10
0,38,48,106
0,75,63,278
0,74,51,29
0,73,45,2
0,34,101,0
0,62,100,4
0,50,100,2
0,38,48,4
0,46,100,0
0,72,100,4
0,56,96,1
0,38,46,84
0,55,116,10
0,56,114,15
0,61,101,110
0,38,41,6
0,60,120,0
0,46,94,0
0,65,100,6
0,56,101,18
0,63,114,15
0,38,50,6
0,60,120,5
0,55,97,352
0,61,97,1
0,64,95,4
0,63,117,0
0,39,98,0
0,38,45,1
0,60,112,15
0,38,39,126
0,44,98,0
0,38,39,1
0,63,80,273
0,60,82,6
0,67,83,0
0,72,80,0
0,63,121,100
0,38,45,5
0,75,101,147
0,79,95,44
0,80,103,68
0,65,114,0
0,39,96,0
0,38,45,1
0,82,102,1
0,38,46,113
0,79,103,99
0,63,119,15
0,80,100,64
0,82,98,12
0,38,50,18
0,44,102,0
0,83,103,0
0,87,98,56
0,87,103,46
0,71,79,82
0,53,78,4
0,63,83,2
0,59,77,8
0,83,100,0
0,65,80,6
0,38,38,3
0,68,118,0
0,83,101,0
0,80,102,6
0,80,98,52
0,75,102,12
0,40,95,0
0,75,100,0
0,38,47,0
0,71,99,8
0,71,95,58
0,68,95,18
0,38,46,13
0,33,97,3
0,68,97,0
0,63,101,30
0,63,102,46
0,60,95,12
0,49,94,18
0,75,96,6
0,34,95,0
0,38,50,1
0,72,96,3
0,65,97,17
0,38,37,352
0,38,51,16
0,29,96,0
0,67,99,0
0,46,99,2
0,72,100,18
0,63,95,4
0,75,102,6
0,38,40,0
0,72,99,8
0,67,95,26
0,50,97,4
0,74,95,124
0,69,97,12
0,77,99,2
0,49,103,18
0,70,96,126
0,75,97,0
0,78,96,0
0,36,94,0
0,38,49,0
0,48,94,0
0,42,97,0
0,38,43,11
0,29,95,0
0,68,100,6
0,64,97,12
0,71,95,4
0,40,95,8
0,38,48,1
0,72,94,3
0,34,99,0
0,70,95,1
0,62,94,8
0,38,38,1
0,67,97,1
0,76,98,2
0,39,97,4
0,72,96,6
0,49,96,2
0,70,95,4
0,77,94,12
0,68,97,5
0,51,97,4
0,67,95,4
0,44,101,0
0,38,37,0
0,38,39,371
0,38,36,13
0,39,103,0
0,47,95,150
0,67,98,24
0,64,100,4
0,71,99,10
0,48,99,2
0,65,97,18
0,38,38,2
0,72,96,0
0,68,103,10
0,51,99,130
0,68,97,4
0,75,99,10
0,70,98,0
0,53,102,10
0,38,36,3
0,72,100,3
0,44,102,0
0,80,94,10
0,75,95,4
0,46,100,4
0,68,101,2
0,38,47,7
0,65,97,2
0,36,102,3
0,73,99,12
0,74,97,52
0,64,100,12
0,42,96,0
0,38,45,8
0,70,102,0
0,38,98,0
0,63,96,16
0,80,100,10
0,41,94,10
0,73,100,6
0,38,37,0
0,41,100,0
0,46,96,14
0,72,96,4
0,68,97,2
0,75,97,0
0,38,36,8
0,61,98,0
0,46,102,0
0,65,103,6
0,38,41,1
0,46,98,143
0,41,100,20
0,38,37,16
0,34,100,0
0,41,102,96
0,65,97,2
0,60,99,16
0,62,100,6
0,46,97,2
0,65,98,8
0,38,45,15
0,62,97,3
0,68,100,20
0,67,95,124
0,64,99,6
0,72,97,34
0,48,95,2
0,69,96,116
0,75,101,0
0,38,46,7
0,39,98,0
0,67,95,4
0,49,99,18
0,38,41,339
0,39,94,0
0,38,51,0
0,59,96,14
0,64,101,6
0,59,96,16
0,40,98,2
0,38,50,12
0,67,97,6
0,64,95,16
0,62,99,10
0,67,102,14
0,63,103,14
0,43,97,8
0,72,100,0
0,48,91,10
