track,note,velocity,time
1,64,100,2879
1,57,100,0
1,60,100,1
1,64,100,0
1,53,100,192
1,62,100,0
1,60,100,0
1,52,100,0
1,65,100,384
1,57,100,20
1,64,100,1
1,62,100,0
1,65,100,3
1,64,100,192
1,55,100,0
1,62,100,0
1,53,100,0
1,64,100,383
1,52,100,20
1,56,100,3
1,65,100,0
1,62,100,0
1,60,100,192
1,64,100,0
1,62,100,7
1,59,100,0
1,57,100,192
1,60,100,0
1,55,100,2
1,59,100,0
1,57,100,192
1,60,100,44
1,64,100,7
1,67,100,0
1,66,100,128
1,64,100,12284
1,57,100,18
1,60,100,192
1,64,100,3
1,62,100,0
1,53,100,0
1,60,100,384
1,52,100,0
1,65,100,379
1,57,100,21
1,62,100,192
1,65,100,3
1,55,100,192
1,64,100,0
1,53,100,2
1,62,100,0
1,64,100,384
1,52,100,19
1,56,100,192
1,62,100,2
1,65,100,0
1,60,100,192
1,64,100,0
1,62,100,3
1,59,100,0
1,60,100,192
1,57,100,0
1,55,100,0
1,59,100,0
1,57,100,192
1,60,100,17
1,64,100,8
1,67,100,128
1,66,100,127
1,64,100,12288
1,57,100,20
1,60,100,0
1,64,100,2
1,62,100,192
1,53,100,0
1,52,100,378
1,60,100,0
1,65,100,383
1,57,100,21
1,62,100,192
1,65,100,2
1,55,100,0
1,64,100,0
1,62,100,384
1,53,100,0
1,64,100,382
1,52,100,21
1,56,100,192
1,65,100,7
1,62,100,0
1,64,100,192
1,60,100,0
1,59,100,188
1,62,100,0
1,60,100,2
1,57,100,0
1,55,100,1
1,59,100,0
1,57,100,191
1,60,100,18
1,64,100,6
1,67,100,2
1,66,100,128
1,64,100,12283
1,76,100,0
1,57,100,22
1,69,100,0
1,60,100,192
1,72,100,0
1,64,100,0
1,76,100,0
1,53,100,192
1,62,100,0
1,74,100,0
1,65,100,0
1,52,100,0
1,60,100,0
1,72,100,0
1,64,100,0
1,65,100,384
1,77,100,0
1,57,100,18
1,69,100,0
1,62,100,192
1,74,100,0
1,65,100,4
1,77,100,0
1,55,100,192
1,64,100,0
1,76,100,0
1,67,100,0
1,53,100,383
1,62,100,0
1,74,100,0
1,65,100,0
1,64,100,381
1,76,100,0
1,52,100,21
1,64,100,0
1,56,100,192
1,68,100,0
1,62,100,4
1,65,100,0
1,77,100,0
1,74,100,0
1,64,100,192
1,60,100,0
1,72,100,0
1,76,100,0
1,59,100,0
1,62,100,0
1,74,100,0
1,71,100,0
1,57,100,192
1,60,100,0
1,72,100,0
1,69,100,0
1,59,100,4
1,55,100,0
1,67,100,0
1,71,100,0
1,57,100,192
1,69,100,0
2,45,100,181
2,47,100,1
2,45,100,1
2,48,100,192
2,45,100,4
2,50,100,192
2,48,100,0
2,45,100,192
2,45,100,48
2,47,100,0
2,45,100,1
2,48,100,192
2,45,100,7
2,50,100,192
2,48,100,3
2,45,100,192
2,45,100,50
2,47,100,192
2,45,100,5
2,48,100,192
2,45,100,3
2,50,100,192
2,48,100,4
2,45,100,192
2,45,100,12
2,47,100,192
2,45,100,4
2,48,100,192
2,45,100,4
2,50,100,192
2,48,100,188
2,50,100,190
2,50,100,20
2,52,100,192
2,50,100,4
2,53,100,192
2,50,100,2
2,55,100,2
2,53,100,192
2,52,100,191
2,52,100,19
2,53,100,192
2,52,100,5
2,56,100,192
2,52,100,5
2,59,100,192
2,56,100,1
2,45,100,192
2,45,100,20
2,47,100,192
2,45,100,2
2,48,100,192
2,45,100,2
2,50,100,192
2,48,100,0
2,45,100,192
2,45,100,16
2,47,100,192
2,45,100,4
2,48,100,192
2,45,100,0
2,50,100,0
2,48,100,192
2,50,100,191
2,50,100,20
2,52,100,192
2,50,100,2
2,53,100,192
2,50,100,8
2,55,100,192
2,53,100,2
2,52,100,192
2,52,100,21
2,53,100,192
2,52,100,6
2,56,100,192
2,52,100,5
2,59,100,192
2,56,100,2
2,45,100,192
2,45,100,20
2,47,100,192
2,45,100,5
2,48,100,192
2,45,100,0
2,50,100,192
2,48,100,1
2,50,100,192
2,50,100,21
2,52,100,192
2,50,100,2
2,53,100,192
2,50,100,7
2,55,100,192
2,53,100,3
2,52,100,192
2,52,100,19
2,53,100,192
2,52,100,4
2,56,100,192
2,52,100,6
2,59,100,192
2,56,100,0
2,45,100,192
2,45,100,21
2,47,100,192
2,45,100,4
2,48,100,192
2,45,100,1
2,50,100,192
2,48,100,2
2,45,100,192
2,45,100,21
2,47,100,192
2,45,100,5
2,48,100,192
2,45,100,4
2,50,100,192
2,48,100,2
2,45,100,192
2,45,100,19
2,47,100,192
2,45,100,3
2,48,100,192
2,45,100,4
2,50,100,192
2,48,100,2
2,45,100,192
2,45,100,17
2,47,100,192
2,45,100,6
2,48,100,192
2,45,100,0
2,50,100,1
2,48,100,192
2,50,100,191
2,50,100,19
2,52,100,1
2,50,100,4
2,53,100,192
2,50,100,8
2,55,100,192
2,53,100,4
2,52,100,192
2,52,100,20
2,53,100,192
2,52,100,4
2,56,100,192
2,52,100,4
2,59,100,192
2,56,100,0
2,45,100,192
2,45,100,21
2,47,100,192
2,45,100,5
2,48,100,192
2,45,100,1
2,50,100,1
2,48,100,192
2,45,100,190
2,45,100,17
2,47,100,192
2,45,100,6
2,48,100,192
2,45,100,4
2,50,100,192
2,48,100,2
2,50,100,192
2,50,100,19
2,52,100,192
2,50,100,0
2,53,100,192
2,50,100,7
2,55,100,192
2,53,100,1
2,52,100,192
2,52,100,21
2,53,100,192
2,52,100,5
2,56,100,192
2,52,100,0
2,59,100,1
2,56,100,0
2,45,100,192
2,45,100,21
2,47,100,0
2,45,100,2
2,48,100,192
2,45,100,6
2,50,100,192
2,48,100,3
2,50,100,192
2,50,100,20
2,52,100,192
2,50,100,1
2,53,100,0
2,50,100,3
2,55,100,192
2,53,100,2
2,52,100,192
2,52,100,20
2,53,100,192
2,52,100,6
2,56,100,192
2,52,100,190
2,59,100,2
2,56,100,192
2,45,100,191
2,45,100,21
2,47,100,192
2,45,100,4
2,48,100,192
2,45,100,4
2,50,100,192
2,48,100,3
2,45,100,192
2,45,100,21
2,47,100,192
2,45,100,1
2,48,100,192
2,45,100,5
2,50,100,192
2,48,100,0
2,57,100,56
2,57,100,27
2,59,100,192
2,57,100,4
2,60,100,192
2,57,100,2
2,62,100,0
2,60,100,192
2,57,100,190
2,57,100,15
2,59,100,192
2,57,100,5
2,60,100,192
2,57,100,4
2,62,100,192
2,60,100,1
2,62,100,192
2,62,100,21
2,64,100,192
2,62,100,2
2,65,100,192
2,62,100,6
2,67,100,192
2,65,100,0
2,64,100,192
2,64,100,20
2,65,100,192
2,64,100,4
2,68,100,192
2,64,100,2
2,71,100,0
2,68,100,192
2,57,100,191
2,57,100,22
2,59,100,192
2,57,100,3
2,60,100,192
2,57,100,5
2,62,100,192
2,60,100,3
2,57,100,192
2,57,100,15
2,59,100,192
2,57,100,3
2,60,100,192
2,57,100,5
2,62,100,192
2,60,100,1
2,62,100,192
2,62,100,22
2,64,100,192
2,62,100,3
2,65,100,192
2,62,100,3
2,67,100,0
2,65,100,1
2,64,100,192
2,64,100,21
2,65,100,192
2,64,100,4
2,68,100,192
2,64,100,4
2,71,100,192
2,68,100,6
2,57,100,192
2,57,100,20
2,59,100,192
2,57,100,1
2,60,100,192
2,57,100,6
2,62,100,192
2,60,100,4
2,62,100,192
2,62,100,20
2,64,100,192
2,62,100,6
2,65,100,192
2,62,100,0
2,67,100,192
2,65,100,3
2,64,100,192
2,64,100,19
2,65,100,192
2,64,100,6
2,68,100,192
2,64,100,1
2,71,100,192
2,68,100,6
2,57,100,192
2,57,100,20
2,59,100,192
2,57,100,4
2,60,100,192
2,57,100,4
2,62,100,192
2,60,100,1
2,57,100,192
2,57,100,12
2,59,100,192
2,57,100,4
2,60,100,192
2,57,100,0
2,62,100,192
2,60,100,191
2,57,100,189
2,57,100,17
2,59,100,192
2,57,100,3
2,60,100,192
2,57,100,5
2,62,100,192
2,60,100,4
2,62,100,192
2,62,100,20
2,64,100,192
2,62,100,3
2,65,100,192
2,62,100,6
2,67,100,192
2,65,100,1
2,62,100,192
2,62,100,13
2,64,100,192
2,62,100,7
2,65,100,192
2,62,100,1
2,67,100,0
2,65,100,0
2,57,100,192
2,57,100,24
2,59,100,192
2,57,100,2
2,60,100,192
2,57,100,6
2,62,100,192
2,60,100,2
2,62,100,192
2,62,100,24
2,64,100,192
2,62,100,4
2,65,100,192
2,62,100,4
2,67,100,192
2,65,100,4
2,57,100,192
2,57,100,18
2,59,100,192
2,57,100,2
2,60,100,192
2,57,100,6
2,62,100,192
2,60,100,190
2,62,100,191
2,62,100,29
2,64,100,1
2,62,100,4
2,65,100,192
2,62,100,3
2,67,100,192
2,65,100,3
2,57,100,192
2,57,100,22
2,59,100,192
2,57,100,1
2,60,100,192
2,57,100,7
2,62,100,192
2,60,100,190
2,62,100,0
2,62,100,0
2,64,100,0
2,62,100,0
2,65,100,0
2,62,100,0
2,67,100,0
2,65,100,6
2,57,100,0
2,57,100,0
2,59,100,0
2,57,100,0
2,60,100,0
2,57,100,0
2,62,100,96
2,60,100,0
2,62,100,0
2,62,100,0
2,64,100,0
2,62,100,0
2,65,100,0
2,62,100,0
2,67,100,0
2,65,100,0
2,57,100,96
2,57,100,0
2,59,100,0
2,57,100,0
2,60,100,0
2,57,100,0
2,62,100,0
2,60,100,0
3,60,100,75255
3,69,100,0
3,64,100,0
3,69,100,45
3,64,100,0
3,60,100,0
3,69,100,0
3,60,100,0
3,64,100,0
3,64,100,0
3,60,100,0
3,69,100,0
3,77,100,192
3,76,100,7
3,76,100,96
3,74,100,1
3,74,100,96
3,72,100,3
3,72,100,96
3,71,100,4
3,62,100,96
3,59,100,0
3,67,100,0
3,59,100,24
3,62,100,0
3,67,100,0
3,62,100,0
3,59,100,0
3,67,100,0
3,59,100,2
3,62,100,0
3,67,100,0
3,76,100,0
3,74,100,6
3,74,100,96
3,72,100,4
3,72,100,96
3,71,100,2
3,71,100,0
3,69,100,3
3,69,100,96
3,64,100,0
3,60,100,0
3,69,100,16
3,60,100,0
3,64,100,0
3,64,100,0
3,60,100,0
3,69,100,0
3,64,100,1
3,69,100,0
3,60,100,0
3,77,100,192
3,76,100,9
3,76,100,96
3,74,100,4
3,74,100,96
3,72,100,6
3,72,100,96
3,71,100,4
3,62,100,96
3,67,100,0
3,59,100,0
3,62,100,26
3,67,100,0
3,59,100,0
3,59,100,1
3,62,100,0
3,67,100,0
3,67,100,3
3,59,100,0
3,62,100,0
3,76,100,192
3,74,100,5
3,74,100,96
3,72,100,6
3,72,100,96
3,71,100,2
3,71,100,96
3,69,100,4
3,60,100,96
3,64,100,0
3,69,100,0
3,60,100,22
3,69,100,0
3,64,100,0
3,69,100,0
3,64,100,0
3,60,100,0
3,64,100,0
3,69,100,0
3,60,100,0
3,77,100,191
3,76,100,13
3,76,100,96
3,74,100,4
3,74,100,96
3,72,100,7
3,72,100,96
3,71,100,7
3,59,100,0
3,62,100,0
3,67,100,0
3,62,100,0
3,59,100,0
3,67,100,0
3,62,100,0
3,59,100,0
3,67,100,0
3,62,100,0
3,67,100,0
3,59,100,0
3,76,100,96
3,74,100,0
3,74,100,0
3,72,100,0
3,72,100,0
3,71,100,0
3,71,100,0
3,69,100,0
3,69,100,0
3,64,100,0
3,60,100,0
3,60,100,0
3,64,100,0
3,69,100,0
3,64,100,0
3,69,100,0
3,60,100,0
3,69,100,0
3,60,100,0
3,64,100,0
3,77,100,0
3,76,100,0
3,76,100,0
3,74,100,0
3,74,100,0
3,72,100,0
3,72,100,0
3,71,100,0
3,62,100,0
3,59,100,0
3,67,100,0
3,67,100,0
3,59,100,0
3,62,100,0
3,67,100,0
3,62,100,0
3,59,100,0
3,59,100,0
3,67,100,0
3,62,100,0
3,76,100,0
3,74,100,0
3,74,100,0
3,72,100,0
3,72,100,0
3,71,100,0
3,71,100,0
3,69,100,7
3,60,100,96
3,64,100,0
3,69,100,0
3,69,100,16
3,64,100,0
3,60,100,0
3,60,100,192
3,69,100,0
3,64,100,0
3,64,100,2
3,60,100,0
3,69,100,0
3,77,100,96
3,76,100,12
3,76,100,96
3,74,100,4
3,74,100,96
3,72,100,1
3,72,100,0
3,71,100,5
4,76,100,1546
4,76,100,41
4,76,100,52
4,76,100,47
4,77,100,277
4,76,100,165
4,76,100,47
4,76,100,48
4,76,100,54
4,76,100,58
4,76,100,48
4,77,100,4
4,76,100,89
4,76,100,30
4,76,100,30
4,74,100,117
4,74,100,32
4,74,100,36
4,74,100,40
4,76,100,273
4,74,100,0
4,74,100,57
4,74,100,49
4,74,100,72
4,74,100,42
4,74,100,46
4,74,100,31
4,76,100,195
4,74,100,190
4,74,100,56
4,77,100,0
4,76,100,212
4,76,100,48
4,77,100,0
4,76,100,190
4,76,100,45
4,76,100,35
4,76,100,57
4,76,100,54
4,77,100,0
4,76,100,0
4,76,100,32
4,76,100,53
4,74,100,0
4,74,100,48
4,76,100,0
4,74,100,15
4,74,100,68
4,74,100,50
4,74,100,50
4,74,100,63
4,76,100,212
4,74,100,168
4,72,100,181
4,71,100,173
4,69,100,187
4,76,100,6145
4,76,100,26
4,76,100,54
4,76,100,27
4,77,100,223
4,76,100,71
4,76,100,46
4,76,100,52
4,76,100,73
4,76,100,32
4,76,100,54
4,76,100,30
4,77,100,0
4,76,100,71
4,76,100,45
4,76,100,46
4,74,100,28
4,74,100,40
4,74,100,39
4,74,100,32
4,76,100,293
4,74,100,136
4,74,100,77
4,74,100,53
4,74,100,67
4,74,100,45
4,74,100,61
4,74,100,55
4,76,100,178
4,74,100,166
4,74,100,47
4,77,100,36
4,76,100,0
4,76,100,93
4,77,100,25
4,76,100,71
4,76,100,45
4,76,100,62
4,76,100,71
4,76,100,49
4,77,100,2
4,76,100,88
4,76,100,47
4,76,100,58
4,74,100,189
4,74,100,65
4,76,100,0
4,74,100,16
4,74,100,61
4,74,100,68
4,74,100,70
4,74,100,63
4,76,100,232
4,74,100,175
4,72,100,161
4,71,100,143
4,69,100,210
4,76,100,6144
4,76,100,9
4,76,100,57
4,76,100,57
4,76,100,34
4,77,100,0
4,76,100,88
4,76,100,44
4,76,100,52
4,76,100,84
4,76,100,46
4,76,100,48
4,76,100,50
4,77,100,24
4,76,100,167
4,76,100,56
4,76,100,56
4,74,100,12
4,74,100,49
4,74,100,56
4,74,100,50
4,76,100,253
4,74,100,166
4,74,100,53
4,74,100,58
4,74,100,83
4,74,100,28
4,74,100,86
4,74,100,68
4,76,100,40
4,74,100,0
4,74,100,74
4,77,100,1
4,76,100,16
4,76,100,258
4,77,100,0
4,76,100,70
4,76,100,62
4,76,100,58
4,76,100,44
4,76,100,136
4,77,100,0
4,76,100,77
4,76,100,43
4,76,100,75
4,74,100,0
4,74,100,132
4,76,100,0
4,74,100,0
4,74,100,61
4,74,100,279
4,74,100,142
4,76,100,195
4,74,100,146
4,72,100,174
4,71,100,165
4,69,100,202
4,81,100,5314
4,81,100,55
4,81,100,97
4,84,100,5
4,83,100,189
4,81,100,159
4,81,100,72
4,79,100,755
4,79,100,54
4,79,100,69
4,83,100,19
4,81,100,0
4,79,100,5
4,79,100,76
5,83,100,5929
5,81,100,148
5,81,100,1001
5,81,100,48
5,81,100,960
5,79,100,195
5,79,100,918
5,80,100,192
5,83,100,14772
5,81,100,209
5,81,100,959
5,81,100,54
5,81,100,909
5,79,100,212
5,79,100,916
5,80,100,193
5,81,100,8765
5,81,100,57
5,81,100,57
5,84,100,34
5,83,100,0
5,81,100,88
5,81,100,44
5,81,100,52
5,81,100,84
5,81,100,46
5,81,100,48
5,84,100,50
5,83,100,24
5,81,100,167
5,81,100,56
5,81,100,56
5,79,100,24
5,79,100,49
5,79,100,56
5,83,100,50
5,81,100,253
5,79,100,166
5,79,100,53
5,79,100,58
5,79,100,83
5,79,100,28
5,79,100,86
5,83,100,68
5,81,100,40
5,79,100,0
5,79,100,74
5,83,100,1
5,81,100,16
5,81,100,1004
