track,note,velocity,time
0,42,108,154
0,42,0,8
0,42,103,184
0,42,0,8
0,42,108,184
0,42,0,8
0,42,51,88
0,42,0,8
0,42,117,88
0,42,0,8
0,42,51,88
0,42,0,8
0,42,32,40
0,42,0,8
0,46,107,40
0,46,0,8
0,69,90,3
0,69,0,56
0,69,97,3
0,69,0,55
0,69,100,3
0,69,0,53
0,69,103,3
0,69,0,56
0,66,88,3
0,66,0,39
0,69,100,3
0,38,101,99
0,62,102,0
0,69,0,11
0,69,106,3
0,38,89,1
0,50,93,0
0,69,0,4
0,38,100,1
0,62,102,0
0,38,83,13
0,50,84,0
0,38,100,18
0,62,105,0
0,38,86,17
0,50,94,0
0,38,104,17
0,62,99,0
0,38,90,26
0,54,97,0
0,31,98,25
0,55,99,0
0,31,89,39
0,55,76,0
0,67,107,3
0,31,102,8
0,55,97,0
0,67,0,3
0,66,95,3
0,31,97,9
0,55,79,0
0,66,0,45
0,64,103,3
0,33,95,4
0,57,97,0
0,33,97,39
0,57,84,0
0,64,0,39
0,69,111,3
0,33,89,10
0,57,88,0
0,33,83,45
0,57,76,0
0,69,0,30
0,66,100,3
0,38,97,15
0,62,92,0
0,38,82,45
0,50,84,0
0,38,92,31
0,62,97,0
0,38,82,45
0,50,90,0
0,38,86,17
0,62,92,0
0,38,81,35
0,50,94,0
0,38,89,44
0,62,102,0
0,66,0,6
0,38,89,29
0,54,82,0
0,31,102,31
0,55,105,0
0,31,87,45
0,55,78,0
0,31,98,45
0,55,88,0
0,31,100,45
0,55,76,0
0,33,88,40
0,57,86,0
0,33,83,44
0,57,78,0
0,33,80,40
0,57,94,0
0,33,88,34
0,57,78,0
0,71,111,3
0,31,102,4
0,55,94,0
0,31,88,39
0,55,72,0
0,31,95,44
0,55,86,0
0,31,92,45
0,55,78,0
0,31,95,44
0,55,84,0
0,71,0,17
0,31,92,28
0,55,81,0
0,71,108,3
0,31,92,45
0,55,84,0
0,31,92,45
0,55,105,0
0,71,0,19
0,69,111,3
0,30,95,1
0,54,92,0
0,30,83,45
0,54,75,0
0,30,85,45
0,54,88,0
0,30,85,45
0,54,67,0
0,30,89,45
0,54,88,0
0,69,0,0
0,66,110,3
0,30,85,8
0,54,71,0
0,30,95,45
0,54,92,0
0,30,91,45
0,54,85,0
0,66,0,5
0,64,107,3
0,31,104,13
0,55,86,0
0,31,88,44
0,55,74,0
0,31,91,44
0,55,97,0
0,54,118,0
0,31,98,44
0,55,74,0
0,31,98,44
0,55,92,0
0,31,91,45
0,55,82,0
0,31,106,45
0,55,99,0
0,54,119,0
0,31,98,45
0,55,81,0
0,64,0,24
0,33,100,45
0,57,102,0
0,35,124,0
0,54,119,0
0,35,0,8
0,69,92,3
0,69,0,55
0,69,95,3
0,69,0,57
0,69,99,3
0,69,0,60
0,69,105,3
0,69,0,52
0,69,108,3
0,69,0,50
0,66,97,3
0,66,0,63
0,69,108,3
0,38,104,13
0,62,97,0
0,35,122,0
0,69,0,20
0,69,100,3
0,38,86,1
0,50,81,0
0,69,0,5
0,38,104,26
0,62,105,0
0,35,123,0
0,38,85,12
0,50,84,0
0,38,108,16
0,62,94,0
0,35,126,0
0,38,88,22
0,50,81,0
0,38,107,36
0,62,86,0
0,35,125,0
0,38,100,17
0,50,84,0
0,31,110,26
0,55,97,0
0,35,125,0
0,31,92,40
0,55,64,0
0,67,113,35
0,31,104,3
0,55,78,0
0,35,123,0
0,67,0,10
0,66,102,3
0,31,108,4
0,55,82,0
0,66,0,1
0,64,108,3
0,33,104,2
0,57,97,0
0,35,126,0
0,33,97,44
0,57,71,0
0,64,0,41
0,69,115,3
0,33,95,13
0,57,74,0
0,35,126,0
0,33,91,45
0,57,75,0
0,69,0,39
0,66,100,3
0,38,87,10
0,62,75,0
0,35,125,0
0,38,81,40
0,50,86,0
0,38,98,26
0,62,94,0
0,35,122,0
0,38,94,26
0,50,108,0
0,38,97,21
0,62,94,0
0,35,126,0
0,38,92,12
0,50,90,0
0,38,95,45
0,62,84,0
0,35,121,0
0,38,80,22
0,54,88,0
0,66,0,51
0,31,106,31
0,55,84,0
0,35,124,0
0,31,91,45
0,55,75,0
0,31,107,45
0,55,92,0
0,35,121,0
0,31,87,45
0,55,97,0
0,33,109,36
0,57,88,0
0,35,125,0
0,33,88,40
0,57,76,0
0,33,110,40
0,57,82,0
0,35,123,0
0,33,102,36
0,57,72,0
0,31,108,2
0,55,94,0
0,35,124,0
0,71,116,1
0,31,94,31
0,55,64,0
0,31,108,45
0,55,75,0
0,35,123,0
0,31,98,44
0,55,63,0
0,31,106,44
0,55,81,0
0,35,123,0
0,31,100,45
0,55,78,0
0,71,0,10
0,71,108,3
0,31,106,13
0,55,84,0
0,35,121,0
0,31,98,45
0,55,102,0
0,71,0,0
0,69,95,3
0,30,107,1
0,54,79,0
0,35,126,0
0,30,95,45
0,54,67,0
0,30,108,45
0,54,63,0
0,35,122,0
0,30,95,45
0,54,77,0
0,30,108,45
0,54,79,0
0,35,121,0
0,30,108,45
0,54,71,0
0,69,0,12
0,66,110,3
0,30,108,10
0,54,77,0
0,35,121,0
0,30,108,45
0,54,108,0
0,66,0,6
0,64,115,3
0,31,107,12
0,55,99,0
0,35,125,0
0,31,100,45
0,55,72,0
0,31,110,44
0,55,105,0
0,35,123,0
0,54,113,0
0,54,0,0
0,31,106,45
0,55,75,0
0,31,107,45
0,55,75,0
0,35,123,0
0,31,102,45
0,55,102,0
0,31,113,40
0,55,72,0
0,35,123,0
0,54,117,0
0,54,0,0
0,31,98,45
0,55,73,0
0,64,0,7
0,33,114,45
0,57,94,0
0,44,111,0
0,40,102,1
0,44,0,7
0,40,66,9
0,33,100,37
0,57,71,0
0,40,109,5
0,40,85,1
0,33,113,40
0,57,102,0
0,44,106,0
0,50,106,0
0,54,121,0
0,44,0,8
0,50,0,0
0,54,0,0
0,50,63,4
0,50,0,7
0,33,102,38
0,57,76,0
0,48,87,4
0,48,0,8
0,48,120,3
0,48,0,8
0,33,110,34
0,57,108,0
0,44,111,0
0,47,73,0
0,69,100,3
0,44,0,2
0,47,0,0
0,47,115,42
0,47,0,7
0,69,0,8
0,57,76,1
0,69,118,2
0,47,87,2
0,47,0,8
0,45,101,7
0,69,0,2
0,45,0,6
0,69,118,3
0,57,105,4
0,44,101,0
0,54,117,0
0,43,111,2
0,44,0,6
0,54,0,0
0,43,0,2
0,40,75,40
0,40,0,8
0,57,88,36
0,40,95,4
0,40,0,8
0,69,0,36
0,40,118,7
0,40,0,8
0,50,96,0
0,54,62,5
0,38,113,3
0,66,115,0
0,57,102,0
0,66,47,0
0,69,53,0
0,74,58,0
0,35,123,0
0,49,106,0
0,62,106,8
0,38,97,35
0,54,76,0
0,35,117,0
0,42,68,0
0,35,0,8
0,42,0,0
0,38,114,34
0,57,85,0
0,40,107,0
0,42,108,0
0,54,113,0
0,54,0,0
0,38,95,30
0,62,108,0
0,35,125,0
0,42,69,0
0,66,0,4
0,62,121,3
0,38,108,9
0,57,80,0
0,35,125,0
0,42,108,0
0,38,94,35
0,54,87,0
0,42,57,0
0,62,0,14
0,69,126,3
0,74,105,10
0,38,113,6
0,57,90,0
0,62,68,0
0,40,111,0
0,42,112,0
0,54,113,0
0,54,0,0
0,69,0,6
0,74,0,9
0,66,115,3
0,69,94,2
0,38,108,5
0,54,87,0
0,42,51,0
0,55,67,7
0,66,0,7
0,74,0,8
0,69,0,0
0,57,60,1
0,66,0,5
0,69,0,3
0,59,50,1
0,67,125,3
0,71,109,9
0,31,115,1
0,43,78,0
0,62,93,0
0,67,56,0
0,71,60,0
0,74,47,0
0,35,122,0
0,42,112,0
0,31,103,1
0,55,88,0
0,35,117,0
0,42,52,0
0,35,0,8
0,71,0,0
0,67,0,10
0,31,115,44
0,59,112,0
0,40,111,0
0,42,112,0
0,54,117,0
0,54,0,0
0,31,108,45
0,62,106,0
0,35,125,0
0,42,63,0
0,71,0,7
0,67,0,2
0,74,0,0
0,69,111,6
0,33,114,8
0,45,83,0
0,61,64,0
0,64,88,0
0,69,52,0
0,73,57,0
0,76,59,0
0,35,126,0
0,42,112,0
0,33,100,40
0,57,88,0
0,42,68,0
0,54,113,0
0,54,0,0
0,69,0,2
0,69,117,3
0,33,108,40
0,61,112,0
0,40,106,0
0,42,112,0
0,54,109,0
0,54,0,0
0,69,0,5
0,69,120,3
0,33,98,8
0,64,100,0
0,42,61,0
0,76,0,7
0,73,0,5
0,69,0,4
0,69,0,6
0,38,114,20
0,50,87,0
0,62,74,0
0,66,93,0
0,66,47,0
0,69,53,0
0,74,60,0
0,35,124,0
0,42,101,0
0,42,0,0
0,66,120,3
0,38,100,40
0,57,78,0
0,35,116,0
0,42,68,0
0,35,0,8
0,42,0,0
0,38,114,44
0,62,77,0
0,40,111,0
0,42,103,0
0,54,113,0
0,54,0,0
0,38,106,39
0,66,111,0
0,35,126,0
0,42,53,0
0,66,0,46
0,62,114,3
0,38,113,14
0,62,79,0
0,35,124,0
0,42,103,0
0,38,103,26
0,57,93,0
0,42,55,0
0,62,0,10
0,66,122,3
0,66,103,1
0,38,110,5
0,62,78,0
0,40,111,0
0,42,112,0
0,54,109,0
0,54,0,0
0,57,80,40
0,66,0,2
0,66,0,13
0,69,97,14
0,38,105,7
0,42,61,0
0,69,120,3
0,62,76,12
0,69,0,13
0,69,0,4
0,69,0,2
0,74,0,3
0,66,0,1
0,31,115,20
0,43,98,0
0,55,82,0
0,59,83,0
0,67,52,0
0,71,58,0
0,74,60,0
0,35,122,0
0,42,103,0
0,67,113,1
0,67,124,3
0,67,0,23
0,31,100,16
0,55,87,0
0,35,121,0
0,42,56,0
0,35,0,8
0,67,0,14
0,31,113,45
0,59,114,0
0,40,111,0
0,42,112,0
0,54,117,0
0,54,0,0
0,31,99,44
0,62,104,0
0,35,123,0
0,42,68,0
0,74,0,19
0,67,0,3
0,71,0,0
0,69,119,3
0,33,110,2
0,45,100,0
0,61,83,0
0,64,59,0
0,69,50,0
0,73,55,0
0,76,59,0
0,35,121,0
0,42,112,0
0,69,107,4
0,33,100,45
0,57,87,0
0,42,59,0
0,54,117,0
0,69,0,1
0,54,0,0
0,69,0,3
0,69,119,3
0,69,99,10
0,33,110,35
0,61,111,0
0,40,111,0
0,42,112,0
0,54,109,0
0,54,0,0
0,69,0,7
0,69,0,1
0,69,116,3
0,69,102,15
0,33,98,3
0,64,88,0
0,42,66,0
0,69,0,4
0,69,0,7
0,73,0,1
0,69,0,3
0,76,0,2
0,38,110,18
0,50,100,0
0,62,70,0
0,66,89,0
0,66,46,0
0,69,57,0
0,74,59,0
0,35,125,0
0,42,111,0
0,66,119,3
0,42,0,0
0,66,89,7
0,38,94,30
0,57,69,0
0,35,117,0
0,42,77,0
0,35,0,8
0,42,0,0
0,38,110,39
0,62,71,0
0,40,111,0
0,42,112,0
0,54,117,0
0,54,0,0
0,38,92,30
0,62,79,0
0,66,108,0
0,35,127,0
0,42,60,0
0,38,113,30
0,62,75,0
0,35,125,0
0,42,112,0
0,38,91,18
0,57,87,0
0,42,53,0
0,66,0,18
0,66,0,26
0,62,93,22
0,62,124,3
0,38,110,3
0,62,81,0
0,66,110,0
0,40,111,0
0,42,112,0
0,54,117,0
0,54,0,0
0,57,87,37
0,38,87,31
0,64,83,0
0,42,56,0
0,62,0,17
0,62,0,8
0,60,73,0
0,66,0,13
0,74,0,0
0,69,0,5
0,64,124,3
0,64,93,0
0,48,108,2
0,36,117,8
0,64,102,0
0,64,59,0
0,67,63,0
0,72,62,0
0,35,121,0
0,42,108,0
0,36,91,30
0,55,74,0
0,35,117,0
0,42,64,0
0,35,0,8
0,36,113,30
0,60,106,0
0,40,111,0
0,42,112,0
0,54,113,0
0,54,0,0
0,36,94,35
0,64,113,0
0,35,123,0
0,42,52,0
0,48,100,28
0,36,106,7
0,60,81,0
0,35,123,0
0,42,112,0
0,36,100,34
0,55,82,0
0,40,111,0
0,42,50,0
0,40,0,4
0,40,39,9
0,40,0,8
0,36,114,30
0,60,96,0
0,64,88,0
0,40,87,0
0,44,115,0
0,54,113,0
0,44,0,0
0,54,0,0
0,40,77,17
0,40,0,8
0,36,106,16
0,55,86,0
0,40,101,0
0,40,0,8
0,40,111,40
0,40,0,8
0,64,0,1
0,72,0,11
0,67,0,4
0,64,0,8
0,33,114,2
0,45,108,0
0,57,75,0
0,61,96,0
0,64,58,0
0,69,63,0
0,73,65,0
0,35,126,0
0,46,109,0
0,49,106,0
0,54,117,0
0,46,0,0
0,49,0,0
0,54,0,0
0,64,0,14
0,64,0,68
0,73,0,6
0,69,0,1
0,69,127,3
0,69,107,2
0,69,0,56
0,69,0,4
0,69,119,3
0,69,99,2
0,69,0,57
0,69,0,4
0,69,122,3
0,69,102,2
0,69,0,58
0,69,0,4
0,69,122,3
0,69,107,2
0,69,0,67
0,69,0,4
0,69,113,3
0,69,93,2
0,69,0,76
0,69,0,4
0,69,127,3
0,69,107,3
0,38,113,27
0,62,100,0
0,66,49,0
0,69,59,0
0,74,65,0
0,73,81,0
0,35,121,0
0,42,111,0
0,42,0,0
0,69,0,26
0,69,0,1
0,73,0,15
0,38,98,1
0,50,81,0
0,74,87,0
0,35,112,0
0,42,87,0
0,69,127,3
0,69,107,5
0,35,0,0
0,74,0,10
0,69,0,10
0,69,0,1
0,38,104,15
0,62,105,0
0,74,83,0
0,40,111,0
0,42,112,0
0,54,117,0
0,74,0,32
0,38,90,12
0,50,84,0
0,69,96,0
0,35,124,0
0,42,69,0
0,69,0,18
0,38,108,16
0,62,94,0
0,73,89,0
0,35,126,0
0,42,112,0
0,73,0,4
0,38,88,18
0,50,81,0
0,74,102,0
0,42,76,0
0,74,0,2
0,38,113,34
0,62,86,0
0,74,96,0
0,40,111,0
0,42,112,0
0,54,118,0
0,74,0,9
0,38,100,8
0,50,84,0
0,69,93,0
0,42,76,0
0,69,0,48
0,66,0,2
0,74,0,0
0,69,0,9
0,31,110,17
0,55,97,0
0,67,58,0
0,71,58,0
0,74,52,0
0,71,87,0
0,35,125,0
0,42,112,0
0,71,0,34
0,31,92,6
0,55,64,0
0,73,87,0
0,35,117,0
0,42,72,0
0,35,0,8
0,73,0,29
0,67,117,5
0,67,93,0
0,31,110,8
0,55,78,0
0,74,87,0
0,40,111,0
0,42,112,0
0,54,118,0
0,67,0,19
0,67,0,6
0,74,0,8
0,66,115,3
0,66,91,0
0,31,113,8
0,55,82,0
0,71,96,0
0,35,122,0
0,42,68,0
0,67,0,11
0,74,0,6
0,71,0,2
0,71,0,1
0,66,0,0
0,66,0,6
0,64,111,3
0,64,87,0
0,33,104,3
0,57,97,0
0,69,50,0
0,73,55,0
0,76,55,0
0,73,87,0
0,35,126,0
0,42,112,0
0,73,0,33
0,33,97,11
0,57,71,0
0,74,89,0
0,42,80,0
0,64,0,34
0,64,0,2
0,74,0,33
0,69,123,3
0,69,99,0
0,33,95,6
0,57,74,0
0,76,93,0
0,40,114,0
0,42,112,0
0,54,119,0
0,76,0,16
0,33,91,15
0,57,75,0
0,73,89,0
0,46,110,0
0,69,0,10
0,69,0,6
0,73,0,5
0,69,0,2
0,73,0,3
0,76,0,0
0,69,117,3
0,69,93,0
0,66,73,6
0,38,98,4
0,62,75,0
0,66,52,0
0,69,58,0
0,74,59,0
0,73,87,0
0,35,126,0
0,42,112,0
0,73,0,30
0,38,85,10
0,50,86,0
0,74,89,0
0,35,117,0
0,42,81,0
0,54,113,0
0,35,0,8
0,54,0,0
0,74,0,6
0,38,98,26
0,62,94,0
0,74,91,0
0,40,107,0
0,42,112,0
0,54,119,0
0,74,0,1
0,38,90,18
0,50,108,0
0,69,82,0
0,35,124,0
0,42,68,0
0,69,0,9
0,69,0,5
0,69,0,9
0,66,0,5
0,69,0,1
0,38,103,1
0,62,94,0
0,70,113,0
0,70,58,0
0,73,99,0
0,70,89,0
0,35,122,0
0,42,112,0
0,66,70,2
0,73,0,27
0,38,92,12
