track,note,velocity,time
3,38,86,42
3,38,0,806
3,33,86,106
3,33,0,43
3,33,86,53
3,33,0,40
3,33,86,56
3,33,0,33
3,33,86,15
3,33,0,576
3,33,86,336
3,33,0,43
3,33,86,53
3,33,0,40
3,33,86,56
3,33,0,33
3,33,86,15
3,33,0,576
3,33,86,1488
3,33,0,58
3,33,86,38
3,33,0,38
3,33,86,58
3,33,0,34
3,33,86,14
3,33,0,768
3,33,86,144
3,33,0,58
3,33,86,38
3,33,0,38
3,33,86,58
3,33,0,34
3,33,86,14
3,33,0,768
3,33,86,1296
3,33,0,58
3,33,86,38
3,33,0,38
3,33,86,58
3,33,0,34
3,33,86,14
3,33,0,768
3,33,86,144
3,33,0,58
3,33,86,38
3,33,0,38
3,33,86,58
3,33,0,34
3,33,86,14
3,33,0,191
3,33,86,1
3,33,0,98
3,40,86,46
3,40,0,32
3,40,86,16
3,40,0,191
3,40,86,1
3,40,0,123
3,31,86,69
3,31,0,173
3,31,86,19
3,31,0,84
3,31,86,60
3,31,0,47
3,31,86,1
3,31,0,191
3,31,86,1
3,31,0,95
3,38,86,1
3,38,0,95
3,33,86,1
3,33,0,191
3,33,86,1
3,33,0,117
3,28,86,27
3,28,0,32
3,28,86,16
3,28,0,191
3,28,86,1
3,28,0,158
3,31,86,34
3,31,0,56
3,31,86,40
3,31,0,95
3,31,86,1
3,31,0,95
3,26,86,1
3,26,0,69
3,38,86,27
3,38,0,95
3,23,86,1
3,23,0,63
3,35,86,33
3,35,0,95
3,26,86,1
3,26,0,48
3,38,86,48
3,38,0,95
3,31,86,1
3,31,0,48
3,43,86,48
3,43,0,95
3,26,86,1
3,26,0,69
3,38,86,27
3,38,0,95
3,23,86,1
3,23,0,95
3,35,86,1
3,35,0,107
3,31,86,85
3,31,0,56
3,31,86,40
3,31,0,95
3,31,86,1
3,31,0,95
3,26,86,1
3,26,0,95
3,38,86,1
3,38,0,95
3,23,86,1
3,23,0,95
3,35,86,1
3,35,0,95
3,26,86,1
3,26,0,95
3,38,86,1
3,38,0,95
3,31,86,1
3,31,0,95
3,43,86,1
3,43,0,95
3,21,86,1
3,21,0,95
3,33,86,1
3,33,0,87
3,21,86,9
3,21,0,95
3,33,86,1
3,33,0,97
3,33,86,47
3,33,0,47
3,33,86,1
3,33,0,191
3,33,86,1
3,33,0,96
3,37,86,48
3,37,0,137
3,37,86,7
3,37,0,71
3,37,86,25
3,37,0,93
3,31,86,3
3,31,0,84
3,31,86,12
3,31,0,168
3,31,86,24
3,31,0,116
3,38,86,28
3,38,0,116
3,38,86,28
3,38,0,67
3,38,86,29
3,38,0,133
3,38,86,11
3,38,0,109
3,33,86,35
3,33,0,74
3,33,86,22
3,33,0,123
3,33,86,21
3,33,0,130
3,38,86,14
3,38,0,71
3,38,86,25
3,38,0,113
3,38,86,31
3,38,0,41
3,38,86,7
3,38,0,171
3,38,86,21
3,38,0,1
3,33,86,14
3,33,0,162
3,33,86,30
3,33,0,143
3,40,86,1
3,40,0,47
3,40,86,1
3,40,0,91
3,40,86,5
3,40,0,63
3,40,86,33
3,40,0,120
3,31,86,24
3,31,0,45
3,31,86,3
3,31,0,175
3,31,86,17
3,31,0,143
3,38,86,1
3,38,0,136
3,38,86,8
3,38,0,64
3,38,86,32
3,38,0,143
3,38,86,1
3,38,0,1
3,33,86,143
3,33,0,90
3,33,86,6
3,33,0,143
3,33,86,1
3,33,0,7
3,38,86,137
3,38,0,70
3,38,86,26
3,38,0,141
3,38,86,3
3,38,0,135
3,38,86,9
3,38,0,63
3,38,86,33
3,38,0,143
3,33,86,1
3,33,0,47
3,33,86,1
3,33,0,175
3,33,86,17
3,33,0,114
3,40,86,30
3,40,0,137
3,40,86,7
3,40,0,64
3,40,86,32
3,40,0,143
3,31,86,1
3,31,0,196
3,31,86,44
3,31,0,139
3,31,86,5
3,31,0,104
3,31,86,40
3,31,0,67
3,31,86,29
3,31,0,95
3,38,86,1
3,38,0,68
3,33,86,28
3,33,0,177
3,33,86,15
3,33,0,126
3,40,86,18
3,40,0,109
3,40,86,35
3,40,0,80
3,40,86,16
3,40,0,143
3,31,86,1
3,31,0,39
3,31,86,9
3,31,0,166
3,31,86,26
3,31,0,95
3,26,86,1
3,26,0,93
3,38,86,3
3,38,0,95
3,23,86,1
3,23,0,90
3,35,86,6
3,35,0,95
3,26,86,1
3,26,0,84
3,38,86,12
3,38,0,95
3,31,86,1
3,31,0,81
3,43,86,15
3,43,0,95
3,26,86,1
3,26,0,89
3,38,86,7
3,38,0,95
3,28,86,1
3,28,0,95
3,26,86,1
3,26,0,95
3,28,86,1
3,28,0,81
3,31,86,15
3,31,0,89
3,31,86,7
3,31,0,95
3,31,86,1
3,31,0,95
3,26,86,1
3,26,0,95
3,38,86,1
3,38,0,95
3,23,86,1
3,23,0,95
3,35,86,1
3,35,0,95
3,26,86,1
3,26,0,95
3,38,86,1
3,38,0,95
3,31,86,1
3,31,0,95
3,43,86,1
3,43,0,95
3,26,86,1
3,26,0,69
3,38,86,27
3,38,0,95
3,28,86,1
3,28,0,95
3,26,86,1
3,26,0,95
3,28,86,1
3,28,0,76
3,38,86,20
3,38,0,173
3,38,86,19
3,38,0,143
3,38,86,1
3,38,0,1
3,33,86,143
3,33,0,93
3,33,86,3
3,33,0,132
3,33,86,12
3,33,0,143
3,38,86,1
3,38,0,79
3,38,86,17
3,38,0,170
3,38,86,22
3,38,0,95
3,33,86,1
3,33,0,91
3,33,86,5
3,33,0,147
3,31,86,45
3,31,0,69
3,31,86,27
3,31,0,72
3,31,86,24
3,31,0,95
3,26,86,1
3,26,0,78
3,38,86,18
3,38,0,95
3,23,86,1
3,23,0,74
3,35,86,22
3,35,0,95
3,26,86,1
3,26,0,79
3,38,86,17
3,38,0,95
3,31,86,1
3,31,0,70
3,43,86,26
3,43,0,95
3,26,86,1
3,26,0,78
3,38,86,18
3,38,0,95
3,28,86,1
3,28,0,95
3,26,86,1
3,26,0,95
3,28,86,1
3,28,0,86
3,31,86,10
3,31,0,75
3,31,86,21
3,31,0,54
3,31,86,42
3,31,0,95
3,26,86,1
3,26,0,89
3,38,86,7
3,38,0,92
3,23,86,4
3,23,0,70
3,35,86,26
3,35,0,95
3,26,86,1
3,26,0,77
3,38,86,19
3,38,0,95
3,31,86,1
3,31,0,84
3,43,86,12
3,43,0,95
3,26,86,1
3,26,0,78
3,38,86,18
3,38,0,95
3,28,86,1
3,28,0,95
3,26,86,1
3,26,0,95
3,28,86,1
3,28,0,95
3,21,86,1
3,21,0,191
3,33,86,1
3,33,0,73
3,33,86,23
3,33,0,66
3,33,86,30
3,33,0,720
3,33,86,576
3,33,0,234
3,33,86,6
3,33,0,141
3,33,86,3
3,33,0,41
3,31,86,7
3,31,0,93
3,31,86,3
3,31,0,91
3,31,86,5
3,31,0,139
3,31,86,5
3,31,0,43
3,38,86,5
3,38,0,93
3,38,86,3
3,38,0,89
3,38,86,7
3,38,0,139
3,38,86,5
3,38,0,43
3,38,86,5
3,38,0,77
3,33,86,19
3,33,0,90
3,33,86,6
3,33,0,141
3,33,86,3
3,33,0,43
3,33,86,5
3,33,0,95
3,38,86,1
3,38,0,89
3,38,86,7
3,38,0,138
3,38,86,6
3,38,0,40
3,38,86,8
3,38,0,91
3,38,86,5
3,38,0,90
3,38,86,6
3,38,0,135
3,33,86,57
3,33,0,180
3,33,86,12
3,33,0,125
3,40,86,19
3,40,0,39
3,40,86,9
3,40,0,92
3,40,86,4
3,40,0,87
3,40,86,9
3,40,0,137
3,40,86,7
3,40,0,47
3,31,86,1
3,31,0,179
3,31,86,13
3,31,0,141
3,38,86,3
3,38,0,41
3,38,86,7
3,38,0,90
3,38,86,6
3,38,0,87
3,38,86,9
3,38,0,141
3,38,86,3
3,38,0,39
3,38,86,9
3,38,0,95
3,33,86,1
3,33,0,88
3,33,86,8
3,33,0,136
3,33,86,8
3,33,0,37
3,33,86,11
3,33,0,95
3,38,86,1
3,38,0,87
3,38,86,9
3,38,0,134
3,38,86,10
3,38,0,40
3,38,86,8
3,38,0,89
3,38,86,7
3,38,0,83
3,38,86,13
3,38,0,180
3,33,86,12
3,33,0,84
3,33,86,12
3,33,0,48
3,40,86,240
3,40,0,73
3,40,86,23
3,40,0,69
3,31,86,219
3,31,0,78
3,31,86,18
3,31,0,65
3,31,86,223
3,31,0,68
3,31,86,28
3,31,0,95
3,38,86,1
3,38,0,78
3,38,86,18
3,38,0,92
3,33,86,4
3,33,0,77
3,33,86,19
3,33,0,91
3,40,86,197
3,40,0,79
3,40,86,17
3,40,0,77
3,43,86,211
3,43,0,86
3,43,86,10
3,43,0,75
3,43,86,21
3,43,0,83
3,38,86,13
3,38,0,45
3,40,86,3
3,40,0,44
3,40,86,4
3,40,0,79
3,35,86,17
3,35,0,92
3,35,86,4
3,35,0,82
3,40,86,14
3,40,0,78
3,40,86,18
3,40,0,77
3,43,86,19
3,43,0,76
3,43,86,20
3,43,0,84
3,38,86,12
3,38,0,80
3,38,86,16
3,38,0,83
3,40,86,13
3,40,0,72
3,40,86,24
3,40,0,81
3,35,86,15
3,35,0,68
3,40,86,28
3,40,0,77
3,43,86,19
3,43,0,76
3,43,86,20
3,43,0,84
3,38,86,12
3,38,0,80
3,38,86,16
3,38,0,83
3,40,86,13
3,40,0,72
3,40,86,24
3,40,0,81
3,35,86,15
3,35,0,68
3,40,86,28
3,40,0,77
3,43,86,19
3,43,0,76
3,43,86,20
3,43,0,84
3,38,86,12
3,38,0,80
3,38,86,16
3,38,0,83
3,40,86,13
3,40,0,72
3,40,86,24
3,40,0,81
3,35,86,15
3,35,0,68
3,40,86,28
3,40,0,77
3,43,86,19
3,43,0,76
3,43,86,20
3,43,0,84
3,38,86,12
3,38,0,80
3,38,86,16
3,38,0,83
3,40,86,13
3,40,0,72
3,40,86,24
3,40,0,81
3,35,86,15
3,35,0,68
3,40,86,28
3,40,0,77
3,43,86,19
3,43,0,76
3,43,86,20
3,43,0,84
3,38,86,12
3,38,0,80
3,38,86,16
3,38,0,83
3,40,86,13
3,40,0,72
3,40,86,24
3,40,0,81
3,35,86,15
3,35,0,68
3,40,86,28
3,40,0,77
3,43,86,19
3,43,0,76
3,43,86,20
3,43,0,84
3,38,86,12
3,38,0,80
3,38,86,16
3,38,0,83
3,40,86,13
3,40,0,72
3,40,86,24
3,40,0,81
3,35,86,15
3,35,0,68
3,40,86,28
3,40,0,77
3,43,86,19
3,43,0,76
3,43,86,20
3,43,0,84
3,38,86,12
3,38,0,80
3,38,86,16
3,38,0,83
3,40,86,13
3,40,0,72
3,40,86,24
3,40,0,81
3,35,86,15
3,35,0,68
3,40,86,28
3,40,0,77
3,43,86,19
3,43,0,76
3,43,86,20
3,43,0,84
3,38,86,12
3,38,0,80
3,38,86,16
3,38,0,83
3,40,86,13
3,40,0,72
3,40,86,24
3,40,0,81
3,35,86,15
3,35,0,68
3,40,86,28
3,40,0,77
3,43,86,19
3,43,0,76
3,43,86,20
3,43,0,84
3,38,86,12
3,38,0,80
4,69,56,190
4,74,56,0
4,79,78,0
4,79,0,574
4,78,78,2
4,79,78,576
4,78,0,6
4,78,78,570
4,79,0,15
4,78,0,531
4,69,0,2
4,74,0,0
4,64,66,28
4,69,66,0
4,73,85,0
4,73,0,628
4,64,0,24
4,69,0,4
4,62,66,16
4,67,66,0
4,71,85,0
4,71,0,462
4,67,0,1
4,62,0,2
4,69,56,15
4,74,56,0
4,79,78,0
4,79,0,574
4,78,78,2
4,79,78,576
4,78,0,6
4,78,78,570
4,79,0,15
4,78,0,531
4,69,0,2
4,74,0,0
4,64,66,28
4,69,66,0
4,73,85,0
4,73,0,628
4,64,0,24
4,69,0,4
4,62,66,16
4,67,66,0
4,71,85,0
4,71,0,462
4,67,0,1
4,62,0,2
4,69,56,15
4,74,56,0
4,79,78,0
4,79,0,574
4,78,78,2
4,79,78,576
4,78,0,6
4,78,78,570
4,79,0,15
4,78,0,531
4,69,0,2
4,74,0,0
4,76,69,28
4,81,69,0
4,85,69,0
4,85,0,731
4,81,0,18
4,76,0,1
4,74,69,18
4,79,69,0
4,83,69,0
4,74,0,717
4,79,0,2
4,83,0,19
4,76,69,30
4,81,69,0
4,85,69,0
4,85,0,699
4,76,0,32
4,81,0,4
4,74,69,33
4,79,69,0
4,83,69,0
4,74,0,334
4,76,69,50
4,86,69,0
4,86,0,344
4,76,0,13
4,79,0,2
4,83,0,1
4,74,69,24
4,79,69,0
4,83,69,0
4,74,0,338
4,79,0,18
4,83,0,4
4,76,69,24
4,79,69,0
4,83,69,0
4,86,69,0
4,86,0,348
4,76,0,6
4,79,0,6
4,83,0,6
4,74,69,18
4,79,69,0
4,83,69,0
4,74,0,346
4,79,0,13
4,83,0,7
4,76,69,18
4,79,69,0
4,83,69,0
4,86,69,0
4,86,0,339
4,76,0,11
4,79,0,8
4,83,0,5
4,74,69,21
4,79,69,0
4,83,69,0
4,74,0,345
4,79,0,26
4,76,69,13
4,79,69,0
4,86,69,0
4,86,0,353
4,79,0,5
4,76,0,1
4,83,0,3
4,64,66,22
4,69,66,0
4,73,85,0
4,73,0,628
4,64,0,24
4,69,0,4
4,62,66,16
4,67,66,0
4,71,85,0
4,71,0,462
4,67,0,1
4,62,0,2
4,69,66,15
4,74,66,0
4,79,66,0
4,78,66,384
4,79,0,5
4,78,0,359
4,79,66,20
4,79,0,362
4,78,66,22
4,78,0,357
4,69,0,8
4,74,0,2
4,64,66,17
4,69,66,0
4,73,85,0
4,73,0,628
4,64,0,24
4,69,0,4
4,62,66,16
4,67,66,0
4,71,85,0
4,71,0,462
4,67,0,1
4,62,0,2
4,69,66,15
4,74,66,0
4,79,66,0
4,78,66,384
4,79,0,5
4,78,0,359
4,79,66,20
4,79,0,362
4,78,66,22
4,78,0,357
4,69,0,8
4,74,0,2
4,76,69,17
4,81,69,0
4,85,69,0
4,85,0,731
4,81,0,18
4,76,0,1
4,74,69,18
4,79,69,0
4,83,69,0
4,74,0,717
4,79,0,2
4,83,0,19
4,76,69,30
4,81,69,0
4,85,69,0
4,85,0,699
4,76,0,32
4,81,0,4
4,74,69,33
4,79,69,0
4,83,69,0
4,74,0,334
4,76,69,50
4,86,69,0
4,86,0,344
4,76,0,13
4,79,0,2
4,83,0,1
4,74,69,24
4,79,69,0
4,83,69,0
4,74,0,338
4,79,0,18
4,83,0,4
4,76,69,24
4,79,69,0
4,83,69,0
4,86,69,0
4,86,0,348
4,76,0,6
4,79,0,6
4,83,0,6
4,74,69,18
4,79,69,0
4,83,69,0
4,74,0,346
4,79,0,13
4,83,0,7
4,76,69,18
4,79,69,0
4,83,69,0
4,86,69,0
4,86,0,339
4,76,0,11
4,79,0,8
4,83,0,5
4,74,69,21
4,79,69,0
4,83,69,0
4,74,0,345
4,79,0,26
4,76,69,13
4,79,69,0
4,86,69,0
4,86,0,353
4,79,0,5
4,76,0,1
4,83,0,3
4,69,66,22
4,74,66,0
4,79,66,0
4,78,66,384
4,79,0,5
4,78,0,359
4,79,66,20
4,79,0,362
4,78,66,22
4,78,0,357
4,69,0,8
4,74,0,2
4,74,69,17
4,79,69,0
4,83,69,0
4,74,0,334
4,76,69,50
4,86,69,0
4,86,0,344
4,76,0,13
4,79,0,2
4,83,0,1
4,74,69,24
4,79,69,0
4,83,69,0
4,74,0,338
4,79,0,18
4,83,0,4
4,76,69,24
4,79,69,0
4,83,69,0
4,86,69,0
4,86,0,348
4,76,0,6
4,79,0,6
4,83,0,6
4,74,69,18
4,79,69,0
4,83,69,0
4,74,0,346
4,79,0,13
4,83,0,7
4,76,69,18
4,79,69,0
4,83,69,0
4,86,69,0
4,86,0,339
4,76,0,11
4,79,0,8
4,83,0,5
4,74,69,21
4,79,69,0
4,83,69,0
4,74,0,345
4,79,0,26
4,76,69,13
4,79,69,0
4,86,69,0
4,86,0,353
4,79,0,5
4,76,0,1
4,83,0,3
4,64,66,1750
4,69,66,0
