track,note,velocity,time
0,38,127,600
0,50,104,0
0,79,96,0
0,82,72,0
0,71,127,3
0,38,117,1
0,55,92,0
0,59,108,0
0,62,90,0
0,82,40,36
0,82,40,36
0,82,44,36
0,82,72,36
0,82,34,36
0,82,44,36
0,82,38,36
0,82,64,36
0,82,32,36
0,82,34,36
0,82,44,36
0,82,62,36
0,82,42,36
0,82,42,36
0,82,26,36
0,78,90,3
0,82,60,0
0,69,120,2
0,50,106,1
0,54,98,0
0,57,90,0
0,82,42,36
0,82,32,36
0,82,54,36
0,82,76,36
0,82,42,36
0,82,42,36
0,82,44,36
0,82,64,36
0,82,30,36
0,82,34,36
0,38,127,36
0,82,42,0
0,82,70,18
0,38,127,36
0,82,38,0
0,82,46,20
0,38,127,36
0,82,62,0
0,38,127,3
0,82,40,0
0,83,100,0
0,67,127,2
0,52,86,1
0,55,92,0
0,59,94,0
0,82,40,33
0,82,36,36
0,82,40,36
0,82,74,27
0,82,36,36
0,82,34,36
0,82,46,36
0,82,66,36
0,82,34,36
0,82,44,36
0,82,26,36
0,82,72,36
0,82,38,36
0,82,40,36
0,82,40,36
0,81,96,36
0,82,66,0
0,66,118,0
0,50,108,4
0,54,98,0
0,57,100,0
0,82,38,33
0,82,42,36
0,82,38,36
0,82,62,36
0,82,34,36
0,82,40,36
0,82,32,36
0,82,56,36
0,82,36,36
0,82,28,36
0,38,127,36
0,82,46,0
0,82,54,13
0,38,127,36
0,82,46,0
0,82,42,13
0,38,127,36
0,82,34,0
0,69,114,1
0,38,127,1
0,45,127,0
0,61,82,0
0,82,60,0
0,69,117,2
0,45,106,3
0,57,92,0
0,61,104,0
0,64,98,0
0,82,38,36
0,69,108,20
0,82,38,0
0,82,44,36
0,82,70,32
0,69,112,2
0,82,26,36
0,82,34,4
0,73,106,1
0,82,32,36
0,82,64,16
0,73,106,3
0,82,28,36
0,82,28,36
0,82,34,36
0,82,66,36
0,82,28,36
0,82,44,8
0,71,88,24
0,82,22,0
0,43,127,3
0,59,74,0
0,82,64,0
0,71,110,2
0,43,106,3
0,55,106,0
0,59,98,0
0,62,96,0
0,82,44,36
0,82,30,24
0,71,108,1
0,82,44,36
0,82,56,31
0,71,114,1
0,82,30,36
0,82,32,11
0,74,106,1
0,82,30,36
0,86,115,2
0,79,84,4
0,38,127,7
0,57,62,0
0,67,62,0
0,82,66,0
0,74,108,2
0,38,117,0
0,50,96,0
0,57,98,0
0,62,94,0
0,82,44,26
0,82,28,36
0,82,34,36
0,82,64,36
0,82,32,36
0,86,94,0
0,82,32,5
0,82,30,35
0,82,62,36
0,82,30,36
0,82,34,36
0,82,36,36
0,82,64,36
0,82,28,36
0,78,88,1
0,82,30,3
0,82,34,28
0,66,72,36
0,82,64,0
0,82,34,36
0,82,32,36
0,82,34,36
0,82,62,36
0,82,40,36
0,82,24,36
0,82,38,20
0,82,64,36
0,82,32,36
0,82,40,36
0,38,127,36
0,82,38,0
0,82,64,7
0,38,127,3
0,82,38,0
0,82,36,1
0,69,70,1
0,38,127,9
0,82,34,0
0,38,127,1
0,45,127,0
0,61,78,0
0,82,64,0
0,69,110,1
0,45,117,1
0,61,80,0
0,63,88,0
0,64,94,0
0,82,38,32
0,82,42,19
0,69,112,1
0,82,38,36
0,82,66,12
0,69,108,1
0,82,34,36
0,82,42,15
0,73,117,1
0,82,34,36
0,82,62,15
0,73,117,1
0,82,44,36
0,82,34,36
0,82,36,36
0,82,56,36
0,82,44,36
0,82,36,11
0,71,92,1
0,82,32,36
0,43,127,6
0,59,100,0
0,82,60,0
0,71,110,2
0,43,116,2
0,55,88,0
0,59,92,0
0,62,84,0
0,82,34,36
0,82,36,27
0,71,106,1
0,82,38,36
0,82,64,32
0,71,106,3
0,82,46,36
0,82,38,7
0,74,94,1
0,82,34,36
0,86,115,2
0,79,84,9
0,38,127,2
0,57,62,0
0,67,68,0
0,82,64,0
0,74,117,2
0,38,117,2
0,50,94,0
0,57,100,0
0,62,92,0
0,82,48,26
0,82,40,36
0,82,42,36
0,82,64,36
0,82,42,36
0,86,94,0
0,82,38,5
0,82,34,35
0,82,64,36
0,82,34,36
0,82,40,36
0,82,44,36
0,82,68,36
0,82,40,36
0,78,88,1
0,82,36,3
0,82,36,28
0,66,64,36
0,82,64,0
0,82,36,26
0,82,38,36
0,82,32,36
0,82,62,36
0,82,38,36
0,82,32,36
0,82,38,36
0,82,64,36
0,82,34,36
0,82,36,36
0,38,127,36
0,82,34,0
0,82,62,8
0,38,127,3
0,82,38,0
0,82,42,1
0,74,106,1
0,38,127,9
0,82,40,0
0,38,127,3
0,45,127,0
0,82,60,0
0,76,110,2
0,45,106,5
0,57,86,0
0,61,92,0
0,64,100,0
0,81,98,36
0,82,38,0
0,73,112,5
0,82,38,0
0,76,96,1
0,76,78,2
0,82,44,0
0,82,70,16
0,74,110,1
0,81,110,36
0,82,26,0
0,73,100,28
0,82,34,0
0,74,100,1
0,76,96,6
0,82,32,0
0,57,66,27
0,82,64,0
0,73,108,1
0,81,106,7
0,82,28,0
0,73,92,36
0,82,28,0
0,76,80,24
0,82,34,0
0,82,66,36
0,81,102,23
0,82,28,0
0,73,106,15
0,82,44,0
0,71,102,1
0,76,90,36
0,82,22,0
0,43,127,10
0,48,127,0
0,79,92,0
0,82,64,0
0,74,106,3
0,67,105,0
0,43,117,3
0,55,84,0
0,59,92,0
0,62,64,0
0,79,112,36
0,82,44,0
0,71,100,36
0,82,30,0
0,71,110,2
0,74,80,33
0,74,100,0
0,82,44,0
0,62,105,1
0,82,56,28
0,79,106,26
0,82,30,0
0,71,102,7
0,79,90,0
0,82,32,0
0,67,105,1
0,74,100,24
0,82,30,0
0,55,76,36
0,82,66,0
0,83,96,0
0,76,105,0
0,79,100,29
0,82,44,0
0,71,92,36
0,82,28,0
0,74,110,36
0,82,34,0
0,81,92,36
0,82,64,0
0,74,100,2
0,79,108,36
0,82,32,0
0,71,102,36
0,74,94,0
0,82,32,0
0,74,106,36
0,82,30,0
0,61,92,3
0,45,127,9
0,48,127,0
0,76,76,0
0,82,62,0
0,76,106,2
0,69,90,1
0,45,117,3
0,57,94,0
0,64,86,0
0,81,100,36
0,82,30,0
0,73,100,27
0,76,100,0
0,82,34,0
0,76,92,29
0,82,36,0
0,82,64,28
0,74,114,0
0,81,108,28
0,82,28,0
0,73,96,35
0,82,30,0
0,74,112,1
0,76,74,36
0,82,34,0
0,57,80,34
0,82,64,0
0,73,117,4
0,81,90,21
0,82,34,0
0,73,92,36
0,82,32,0
0,76,86,36
0,82,34,0
0,82,62,36
0,81,88,24
0,82,40,0
0,73,80,36
0,82,24,0
0,71,112,2
0,76,86,10
0,82,38,0
0,43,127,4
0,48,127,0
0,55,110,0
0,55,92,0
0,82,64,0
0,74,114,2
0,43,117,2
0,55,92,0
0,59,100,0
0,62,98,0
0,55,127,1
0,55,102,25
0,67,88,0
0,82,32,0
0,55,127,1
0,50,114,3
0,74,98,0
0,79,88,0
0,82,40,0
0,71,112,2
0,50,116,1
0,50,108,13
0,74,82,0
0,79,78,0
0,82,38,0
0,50,106,2
0,48,127,8
0,55,127,0
0,55,90,0
0,82,64,0
0,55,127,3
0,74,110,0
0,43,117,1
0,55,114,20
0,67,90,0
0,82,38,0
0,55,127,1
0,50,120,6
0,74,84,0
0,79,84,0
0,82,36,0
0,76,114,1
0,50,116,2
0,50,102,16
0,74,92,0
0,79,78,0
0,82,34,0
0,50,116,1
0,40,127,7
0,45,123,0
0,52,127,0
0,52,98,0
0,82,64,0
0,78,96,2
0,52,127,1
0,40,117,1
0,64,114,0
0,52,106,19
0,64,90,0
0,82,38,0
0,52,127,3
0,47,104,7
0,71,80,0
0,76,90,0
0,82,42,0
0,47,110,1
0,76,108,0
0,47,108,13
0,76,80,0
0,82,38,0
0,47,127,1
0,74,102,1
0,52,127,4
0,52,104,0
0,82,66,0
0,52,127,2
0,76,106,1
0,52,110,18
0,64,86,0
0,82,34,0
0,52,127,1
0,71,84,1
0,47,98,9
0,71,78,0
0,76,90,0
0,82,42,0
0,47,112,1
0,74,98,0
0,47,102,17
0,71,74,0
0,76,82,0
0,82,34,0
0,47,118,1
0,43,127,2
0,48,127,0
0,55,127,0
0,55,86,0
0,82,62,0
0,74,110,2
0,55,127,1
0,43,117,3
0,62,110,0
0,55,108,24
0,67,92,0
0,82,44,0
0,55,127,1
0,50,112,7
0,74,94,0
0,79,86,0
0,82,34,0
0,50,112,1
0,71,98,1
0,50,112,20
0,74,82,0
0,79,74,0
0,82,36,0
0,50,114,3
0,48,127,6
0,55,127,0
0,55,84,0
0,82,56,0
0,74,116,2
0,43,117,1
0,55,127,0
0,55,124,15
0,67,82,0
0,82,44,0
0,55,126,1
0,50,108,7
0,74,90,0
0,79,80,0
0,82,36,0
0,50,106,2
0,76,110,0
0,50,100,15
0,74,88,0
0,79,80,0
0,82,32,0
0,50,120,3
0,40,127,1
0,45,127,0
0,52,127,0
0,52,104,0
0,82,60,0
0,78,90,0
0,52,127,1
0,40,117,2
0,64,104,0
0,52,114,11
0,64,84,0
0,82,34,0
0,52,118,2
0,47,124,9
0,71,92,0
0,76,96,0
0,82,36,0
0,47,112,3
0,76,96,0
0,47,114,23
0,71,70,0
0,76,88,0
0,82,38,0
0,47,112,1
0,74,102,1
0,52,127,19
0,52,102,0
0,82,64,0
0,52,127,2
0,76,90,2
0,52,127,7
0,64,90,0
0,82,46,0
0,74,72,2
0,52,124,1
0,47,108,19
0,71,80,0
0,76,92,0
0,82,38,0
0,47,106,3
0,76,90,0
0,47,104,25
0,71,68,0
0,76,94,0
0,82,34,0
0,47,112,1
0,43,127,2
0,48,127,0
0,55,127,0
0,55,84,0
0,67,86,0
0,82,64,0
0,55,127,3
0,62,127,0
0,74,122,0
0,71,117,1
0,43,117,2
0,62,98,0
0,55,122,19
0,67,88,0
0,82,48,0
0,55,127,2
0,50,94,16
0,50,86,0
0,59,102,0
0,82,40,0
0,71,114,0
0,74,94,0
0,79,90,0
0,50,112,16
0,74,84,0
0,79,80,0
0,82,42,0
0,50,98,3
0,48,127,15
0,55,127,0
0,55,82,0
0,82,64,0
0,55,127,3
0,62,127,0
0,74,124,0
0,43,117,1
0,55,108,19
0,67,86,0
0,82,42,0
0,55,120,3
0,50,114,4
0,74,92,0
0,79,84,0
0,82,38,0
0,50,110,2
0,64,127,0
0,76,122,0
0,50,106,17
0,74,92,0
0,79,84,0
0,82,34,0
0,50,114,2
0,40,127,5
0,45,127,0
0,52,127,0
0,52,92,0
0,82,64,0
0,52,127,2
0,66,122,0
0,78,124,0
0,40,117,3
0,64,106,0
0,52,114,16
0,64,90,0
0,82,34,0
0,52,127,2
0,47,96,11
0,71,80,0
0,76,88,0
0,82,40,0
0,47,112,1
0,64,120,0
0,76,114,0
0,71,80,14
0,76,86,0
0,82,44,0
0,47,116,2
0,62,120,0
0,74,108,0
0,52,127,8
0,52,92,0
0,82,68,0
0,52,127,2
0,64,127,0
0,76,120,0
0,52,122,20
0,64,90,0
0,82,40,0
0,52,127,2
0,59,126,0
0,71,112,0
0,47,124,7
0,71,80,0
0,76,96,0
0,82,36,0
0,47,116,4
0,62,127,0
0,74,116,0
0,47,100,16
0,71,60,0
0,76,80,0
0,82,36,0
0,47,122,4
0,43,127,6
0,48,127,0
0,55,127,0
0,55,86,0
0,82,64,0
0,83,102,0
0,43,117,4
0,62,100,0
0,55,127,1
0,62,127,0
0,74,127,0
0,55,118,21
0,67,82,0
0,82,36,0
0,55,127,2
0,50,127,1
0,74,92,0
0,79,92,0
0,81,92,0
0,82,38,0
0,50,108,2
0,59,118,0
0,71,116,0
0,50,110,17
0,74,86,0
0,79,76,0
0,82,32,0
0,50,108,2
0,48,127,3
0,55,127,0
0,55,84,0
0,79,108,0
0,82,62,0
0,55,127,2
0,62,127,0
0,74,124,0
0,43,117,1
0,55,110,18
0,67,86,0
0,82,38,0
0,55,126,2
0,50,127,4
0,74,90,0
0,78,106,0
0,79,80,0
0,82,32,0
0,50,108,1
0,64,127,0
0,76,118,0
0,50,114,17
0,74,86,0
0,79,78,0
0,82,38,0
0,50,108,3
0,40,127,10
0,45,127,0
0,52,127,0
0,52,92,0
0,76,110,0
0,82,64,0
0,40,117,1
0,52,127,0
0,66,118,0
0,78,112,0
0,64,108,0
0,52,120,12
0,64,80,0
0,82,34,0
0,52,127,4
0,47,124,15
0,71,80,0
0,76,108,0
0,76,90,0
0,82,36,0
0,47,127,2
0,64,116,0
0,76,108,0
0,38,127,3
0,47,102,0
0,71,78,0
0,74,106,0
0,76,96,0
0,82,34,0
0,47,116,3
0,62,114,0
0,74,106,0
0,52,127,6
0,52,100,0
0,76,106,0
0,82,62,0
0,52,127,1
0,64,127,0
0,76,120,0
0,38,127,12
0,52,106,0
0,64,76,0
0,74,92,0
0,82,38,0
0,52,127,2
0,62,127,0
0,74,108,0
0,47,127,3
0,71,110,0
0,71,80,0
0,76,84,0
0,82,42,0
0,47,116,1
0,59,127,0
0,71,106,0
0,38,127,24
0,69,98,0
0,71,76,0
0,76,100,0
0,82,40,0
0,47,118,3
0,69,117,0
0,38,127,1
0,45,127,0
0,61,82,0
0,69,108,0
0,82,60,0
0,57,116,1
0,69,112,0
0,45,106,5
0,57,92,0
0,61,104,0
0,64,98,0
0,69,90,36
0,82,38,0
0,61,78,20
0,82,38,0
0,69,108,3
0,64,100,2
0,82,44,0
0,82,70,32
0,69,112,1
0,69,90,36
0,82,26,0
0,61,106,2
0,73,106,0
0,82,34,0
0,64,100,3
0,82,32,0
0,82,64,16
0,73,106,2
0,69,102,36
0,82,28,0
0,61,98,5
0,82,28,0
0,64,102,2
0,82,34,0
0,82,66,6
0,69,80,36
0,82,28,0
0,61,94,9
0,82,44,0
0,69,80,5
0,82,22,0
0,71,88,1
0,43,127,3
0,59,74,0
0,82,64,0
0,71,110,1
0,43,106,5
0,55,106,0
0,59,98,0
0,62,96,0
0,67,102,36
0,82,44,0
0,59,100,23
0,82,30,0
0,71,108,1
0,62,106,36
0,82,44,0
0,82,56,30
0,71,114,2
0,67,90,36
0,82,30,0
0,59,94,5
0,74,106,0
0,82,32,0
0,82,30,36
0,62,100,0
0,86,115,2
0,79,84,2
0,38,127,7
0,67,62,0
0,74,108,0
0,82,66,0
0,38,117,3
0,50,96,0
0,57,98,0
0,62,94,0
0,57,62,29
0,62,90,0
0,82,44,0
0,69,92,7
0,74,102,0
0,82,28,0
0,69,90,16
0,74,102,0
0,82,34,0
0,82,64,5
0,62,94,36
0,82,32,0
0,86,94,0
0,82,32,5
0,69,74,0
0,74,82,0
0,69,80,27
0,74,92,0
0,82,30,0
0,82,62,36
0,62,90,36
0,82,30,0
0,69,74,12
0,74,88,0
0,82,34,0
0,69,82,19
0,74,86,0
0,82,36,0
0,82,64,6
0,62,86,36
0,82,28,0
0,78,88,1
0,69,98,3
0,74,96,0
0,82,30,0
0,69,74,16
0,74,84,0
0,82,34,0
0,66,72,5
0,82,64,0
0,62,84,36
0,82,34,0
0,69,102,9
0,74,94,0
0,82,32,0
0,69,78,16
0,74,92,0
0,82,34,0
0,82,62,4
0,62,86,36
0,82,40,0
0,69,90,10
0,74,94,0
0,82,24,0
0,69,84,20
0,74,90,0
0,82,38,0
0,82,64,36
0,62,90,36
0,82,32,0
0,69,100,5
0,74,106,0
0,82,40,0
0,38,127,23
0,69,80,0
0,74,98,0
0,82,38,0
0,82,64,9
0,38,127,3
0,69,96,0
0,82,38,0
0,61,82,1
0,82,36,0
0,69,70,2
0,38,127,9
0,64,106,0
0,82,34,0
0,38,127,3
0,45,127,0
0,61,78,0
0,82,64,0
0,69,110,1
0,45,117,5
0,61,80,0
0,64,94,0
0,69,80,27
0,82,38,0
0,69,112,18
0,61,100,1
0,82,42,0
0,64,106,36
0,82,38,0
0,82,66,11
0,69,108,1
0,69,84,28
0,82,34,0
0,61,102,4
0,82,42,0
0,73,117,1
0,82,34,36
