track,note,velocity,time
4,40,109,1922
4,40,108,97
4,40,113,95
4,40,109,110
4,39,109,100
4,39,109,98
4,39,110,110
4,39,108,115
4,37,110,100
4,37,113,113
4,37,112,102
4,37,113,107
4,35,109,120
4,35,113,95
4,35,109,110
4,35,110,112
4,34,109,115
4,34,112,110
4,34,112,117
4,34,113,115
4,35,108,102
4,35,110,107
4,35,112,113
4,35,112,112
4,33,113,115
4,33,109,107
4,33,108,120
4,33,113,107
4,33,108,112
4,33,110,120
4,33,110,100
4,35,109,120
4,37,112,95
4,39,113,102
4,28,109,15
4,28,108,117
4,28,110,112
4,30,112,958
4,30,110,155
4,35,110,240
4,35,109,113
4,37,109,117
4,39,108,105
4,40,110,0
4,40,110,72
4,28,112,20
4,30,110,958
4,30,110,82
4,35,108,17
4,35,108,62
4,33,108,43
4,33,109,93
4,33,113,95
4,33,110,95
4,35,113,88
4,35,109,63
4,35,113,67
4,35,110,70
4,40,112,52
4,40,113,85
4,39,112,65
4,39,108,80
4,37,108,93
4,37,109,70
4,35,112,70
4,35,110,67
4,33,113,65
4,33,109,75
4,33,113,67
4,33,110,65
4,35,108,50
4,35,112,87
4,35,112,75
4,35,109,75
4,40,109,40
4,40,110,98
4,39,112,80
4,39,112,78
4,37,112,72
4,39,110,5
4,37,109,77
4,35,112,77
4,35,112,75
4,33,112,83
4,33,108,65
4,33,112,72
4,33,113,75
4,35,110,62
4,35,109,77
4,35,109,80
4,35,110,75
4,40,108,48
4,40,108,98
4,40,113,100
4,40,109,82
4,39,108,87
4,39,110,93
4,39,113,90
4,39,109,90
4,37,113,95
4,37,110,77
4,37,110,92
4,37,110,85
4,35,113,55
4,35,112,82
4,35,112,95
4,35,108,90
4,34,112,75
4,34,113,80
4,34,113,87
4,34,108,87
4,34,109,88
4,34,113,85
4,34,110,85
4,34,110,85
4,33,109,68
4,33,113,90
4,33,112,80
4,33,110,93
4,35,112,73
4,35,112,83
4,35,112,113
4,28,112,25
4,40,113,233
4,40,108,112
4,40,110,85
4,40,112,108
4,40,108,112
4,40,108,107
4,40,110,105
4,40,108,105
4,33,113,95
4,33,109,97
4,33,113,105
4,33,113,110
4,35,113,85
4,35,110,75
4,35,112,92
4,35,110,90
4,28,112,85
4,28,112,117
4,28,113,112
4,30,109,958
4,30,110,155
4,35,112,240
4,35,108,113
4,37,108,117
4,39,113,105
4,40,108,0
4,40,113,72
4,28,110,20
4,30,110,958
4,30,113,82
4,35,108,17
4,35,113,62
4,33,108,43
4,33,110,93
4,33,113,95
4,33,110,95
4,35,113,88
4,35,108,63
4,35,108,67
4,35,110,70
4,40,108,52
4,40,108,85
4,39,109,65
4,39,110,80
4,37,113,93
4,37,113,70
4,35,110,70
4,35,112,67
4,33,108,65
4,33,112,75
4,33,112,67
4,33,112,65
4,35,112,50
4,35,112,87
4,35,110,75
4,35,108,75
4,40,108,40
4,40,110,98
4,39,112,80
4,39,109,78
4,37,113,72
4,39,109,5
4,37,113,77
4,35,113,77
4,35,108,75
4,33,110,83
4,33,108,65
4,33,110,72
4,33,113,75
4,35,113,62
4,35,113,77
4,35,108,80
4,35,109,75
4,40,109,48
4,40,109,98
4,40,113,100
4,40,112,82
4,39,110,87
4,39,112,93
4,39,113,90
4,39,109,90
4,37,109,95
4,37,113,77
4,37,110,92
4,37,108,85
4,35,109,55
4,35,109,82
4,35,109,95
4,35,113,90
4,34,108,75
4,34,109,80
4,34,110,87
4,34,109,87
4,34,110,88
4,34,110,85
4,34,112,85
4,34,110,85
4,33,109,68
4,33,108,90
4,33,112,80
4,33,108,93
4,35,110,73
4,35,108,83
4,35,113,113
4,28,110,25
4,40,112,15
4,40,112,97
4,40,113,95
4,40,109,112
4,39,109,100
4,39,108,97
4,39,108,110
4,39,110,115
4,37,113,97
4,37,113,115
4,37,108,100
4,37,110,107
4,35,108,120
4,35,112,95
4,35,112,110
4,35,113,112
4,34,108,115
4,34,109,110
4,34,108,117
4,34,110,115
4,35,109,102
4,35,109,107
4,35,108,115
4,35,113,110
4,33,113,117
4,33,112,105
4,33,112,120
4,33,110,107
4,33,113,112
4,33,110,120
4,33,110,100
4,35,113,120
4,37,110,95
4,39,113,102
4,40,113,10
4,40,113,150
4,40,110,123
4,40,113,125
4,40,110,125
4,40,113,123
4,40,113,122
4,40,112,120
4,35,110,130
4,35,112,118
4,35,113,120
4,35,109,128
4,35,109,130
4,32,110,358
4,35,110,28
4,33,110,250
4,33,109,93
4,33,112,95
4,33,112,95
4,35,112,88
4,35,113,63
4,35,113,67
4,35,109,70
4,40,108,52
4,40,113,85
4,39,112,65
4,39,112,80
4,37,112,93
4,37,110,70
4,35,113,70
4,35,113,67
4,33,109,65
4,33,108,75
4,33,109,67
4,33,109,65
4,35,112,50
4,35,112,87
4,35,110,75
4,35,109,75
4,40,110,40
4,40,108,98
4,39,110,80
4,39,109,78
4,37,112,72
4,39,108,5
4,37,109,77
4,35,108,77
4,35,109,75
4,33,109,83
4,33,108,65
4,33,109,72
4,33,108,75
4,35,110,62
4,35,109,77
4,35,109,80
4,35,110,75
4,40,108,48
4,40,110,98
4,40,108,100
4,40,113,82
4,39,113,87
4,39,108,93
4,39,108,90
4,39,112,90
4,37,110,95
4,37,108,77
4,37,112,92
4,37,112,85
4,35,110,55
4,35,112,82
4,35,110,95
4,35,113,90
4,34,110,75
4,34,113,80
4,34,112,87
4,34,110,87
4,34,113,88
4,34,110,85
4,34,110,85
4,34,110,85
4,33,113,68
4,33,108,90
4,33,108,80
4,33,109,93
4,35,112,73
4,35,109,83
4,35,109,113
4,28,109,25
4,40,108,13
4,40,112,95
4,40,110,85
4,40,113,83
4,39,109,113
4,39,109,85
4,39,109,105
4,39,108,103
4,37,109,110
4,37,113,98
4,37,112,95
4,37,108,105
4,37,112,110
4,37,109,105
4,35,108,100
4,35,109,100
4,33,108,97
4,33,108,75
4,33,112,83
4,33,110,72
4,35,112,57
4,35,112,107
4,35,110,72
4,35,113,80
4,40,112,40
4,40,112,100
4,39,109,93
4,39,109,82
4,37,110,98
4,37,113,85
4,35,108,97
4,35,110,82
4,33,109,105
4,33,110,95
4,33,113,100
4,33,113,97
4,35,109,82
4,35,110,110
4,35,110,87
4,35,108,90
4,40,112,70
4,40,110,102
4,39,113,90
4,39,110,95
4,37,113,108
4,37,113,83
4,35,109,102
4,35,112,77
4,33,113,95
4,33,108,92
4,33,109,92
4,33,110,92
4,35,108,92
4,35,109,92
4,35,112,95
4,35,110,95
4,40,108,95
4,40,109,100
4,40,109,102
4,40,112,110
4,39,108,107
4,39,108,100
4,39,109,117
4,39,110,117
4,37,112,108
4,37,110,102
4,37,108,100
4,37,110,108
4,35,112,102
4,35,108,103
4,35,113,108
4,35,109,115
4,34,108,110
4,34,110,95
4,34,112,105
4,34,109,80
4,34,110,110
4,34,109,112
4,34,112,105
4,34,108,100
4,33,113,107
4,33,110,117
4,33,110,115
4,33,112,110
4,35,113,70
4,35,110,112
4,35,110,113
4,28,110,113
4,40,112,232
4,40,108,105
4,40,112,122
4,40,109,115
4,40,110,110
4,40,109,115
4,40,113,127
4,40,110,132
4,33,109,115
4,33,109,107
4,33,109,105
4,33,113,110
4,35,112,110
4,35,109,122
4,35,110,107
4,35,110,115
4,40,110,117
4,40,113,112
4,40,112,132
4,40,108,122
4,40,108,115
4,40,109,125
4,40,112,128
4,40,112,115
4,33,108,110
4,33,112,120
4,33,112,105
4,33,112,115
4,35,113,80
4,35,113,115
4,35,110,115
4,35,113,127
4,28,109,40
5,71,78,9830
5,71,79,49
5,71,79,55
5,76,76,257
5,73,78,721
5,73,80,48
5,71,77,233
5,71,80,58
5,71,79,55
5,68,79,1081
5,68,79,41
5,73,78,239
5,73,79,63
5,68,79,8
5,68,78,46
5,66,78,246
5,66,79,39
5,66,80,437
5,64,80,257
5,76,77,460
5,73,76,184
5,75,77,128
5,73,77,602
5,71,76,118
5,71,77,41
5,68,78,492
5,66,78,99
5,64,80,2
5,64,78,64
5,64,79,50
5,76,77,472
5,73,78,193
5,75,76,128
5,73,78,0
5,71,80,136
5,73,76,243
5,71,76,8
5,68,80,251
5,66,79,207
5,64,77,2
5,64,79,86
5,64,77,70
5,75,80,438
5,76,80,35
5,73,79,198
5,75,76,0
5,73,77,860
5,71,80,230
5,71,80,56
5,72,79,365
5,81,76,448
5,80,79,367
5,78,77,316
5,76,80,311
5,76,79,49
5,76,80,513
5,66,77,231
5,75,76,252
5,73,78,282
5,73,77,38
5,71,79,474
5,68,79,458
5,66,78,110
5,64,80,136
5,71,77,459
5,71,78,3005
5,71,77,39
5,71,78,57
5,76,78,120
5,73,78,845
5,73,78,56
5,71,79,242
5,71,78,43
5,71,78,49
5,68,78,752
5,68,80,42
5,68,80,59
5,73,80,131
5,73,78,56
5,68,80,528
5,68,79,47
5,66,80,260
5,66,78,34
5,66,77,56
5,66,80,274
5,64,78,0
5,75,79,479
5,76,79,6
5,73,77,4
5,75,78,6
5,73,78,607
5,71,77,96
5,71,78,43
5,68,76,469
5,66,76,179
5,64,77,161
5,64,80,84
5,64,78,49
5,75,78,433
5,76,76,5
5,73,77,203
5,75,79,105
5,73,78,608
5,71,76,121
5,73,79,236
5,71,79,5
5,68,80,238
5,66,80,2
5,64,79,131
5,64,78,105
5,64,78,52
5,75,77,443
5,76,80,9
5,73,80,220
5,75,80,0
5,73,77,835
5,71,80,3
5,71,76,65
5,72,78,367
5,81,78,451
5,80,77,399
5,78,80,299
5,76,79,316
5,76,76,48
5,76,80,614
5,66,76,251
5,75,80,236
5,73,77,291
5,73,77,45
5,71,79,0
5,68,78,483
5,66,79,72
5,64,79,136
5,71,79,5
5,66,80,10328
5,64,77,253
5,75,80,440
5,76,79,4
5,73,79,193
5,75,80,0
5,73,79,635
5,71,79,105
5,71,80,41
5,68,78,472
5,66,78,164
5,64,79,181
5,64,79,68
5,64,76,59
5,75,77,446
5,76,77,3
5,73,79,216
5,75,79,3
5,73,79,597
5,71,78,116
5,73,76,231
5,71,78,13
5,68,77,238
5,66,79,0
5,64,79,179
5,64,77,49
5,64,79,52
5,75,78,428
5,76,78,4
5,73,78,205
5,75,76,3
5,73,80,879
5,71,80,226
5,71,77,76
5,72,76,374
5,80,76,422
5,81,79,15
5,80,79,348
5,78,79,303
5,76,77,325
5,76,76,33
5,76,77,329
5,66,79,237
5,75,78,242
5,73,78,927
5,73,76,43
5,71,79,461
5,68,79,465
5,66,77,79
5,64,80,152
5,71,78,8
5,66,80,2800
5,64,80,1
5,75,77,456
5,76,80,22
5,73,76,205
5,75,79,113
5,73,76,574
5,71,76,125
5,71,79,38
5,68,77,566
5,66,78,110
5,64,78,7
5,64,80,53
5,64,80,39
5,75,79,431
5,76,76,6
5,73,76,190
5,75,76,105
5,73,76,592
5,71,80,131
5,73,80,232
5,71,77,325
5,68,79,240
5,66,76,112
5,64,77,0
5,64,80,55
5,64,80,53
5,75,79,461
5,76,79,10
5,73,77,202
5,75,80,92
5,73,77,833
5,71,78,4
5,71,78,56
5,72,78,382
5,80,79,444
5,81,76,1
5,80,76,330
5,78,78,327
5,76,78,345
5,76,77,44
5,76,80,430
5,66,79,274
5,75,79,218
5,73,79,315
5,73,78,35
5,71,78,475
5,68,76,464
5,66,76,94
5,64,77,100
5,71,79,443
6,68,111,20636
6,71,114,0
6,76,113,0
6,71,113,21
6,66,113,1
6,75,114,0
6,68,114,3322
6,71,110,0
6,76,111,0
6,66,112,38
6,71,113,0
6,75,110,0
6,69,111,8622
6,76,111,0
6,73,113,3
6,69,111,175
6,73,110,0
6,76,111,0
6,68,111,47
6,71,114,0
6,76,112,0
6,68,113,13446
6,71,110,0
6,76,113,0
6,71,111,21
6,66,114,1
6,75,110,0
6,68,114,3322
6,71,114,0
6,76,110,0
6,66,113,38
6,71,112,0
6,75,114,0
6,69,111,8622
6,76,114,0
6,73,114,3
6,69,110,175
6,73,114,0
6,76,111,0
6,68,114,47
6,71,112,0
6,76,112,0
6,71,113,9125
6,83,114,0
6,75,111,3
6,78,114,0
6,71,110,38
6,75,114,0
6,78,112,0
6,83,112,0
6,75,113,40
6,78,113,0
6,83,114,0
6,71,110,2
6,68,113,3383
6,71,113,0
6,76,112,0
6,71,114,21
6,66,110,1
6,75,114,0
6,68,112,3322
6,71,112,0
6,76,111,0
6,66,113,38
6,71,110,0
6,75,113,0
6,69,114,8622
6,76,113,0
6,73,110,3
6,69,111,175
6,73,114,0
6,76,112,0
6,68,110,47
6,71,110,0
6,76,114,0
6,68,111,1781
6,71,111,1
6,76,113,0
6,66,113,31
6,71,114,0
6,75,111,0
6,68,111,3403
6,71,114,0
6,76,112,0
6,71,110,21
6,66,111,1
6,75,112,0
6,68,113,3322
6,71,110,0
6,76,114,0
6,66,112,38
6,71,112,0
6,75,110,0
6,69,111,8622
6,76,113,0
6,73,111,3
6,69,113,175
6,73,112,0
6,76,110,0
6,68,113,47
6,71,111,0
6,76,114,0
6,68,111,1928
6,71,114,0
6,76,114,0
6,66,114,23
6,71,111,0
6,75,111,0
6,64,111,2866
6,69,113,0
6,73,111,0
6,76,112,0
6,64,110,52
6,68,112,0
6,71,110,0
6,76,113,0
7,79,89,10556
7,82,88,0
7,85,88,0
7,78,90,837
7,83,87,0
7,87,90,0
7,80,87,121
7,83,87,0
7,88,88,0
7,79,88,65
7,82,87,1
7,88,89,0
7,78,87,749
7,83,89,0
7,87,87,0
7,76,89,467
7,81,90,0
7,85,88,0
7,83,87,112
7,87,88,0
7,90,88,0
7,80,89,1433
7,83,89,0
7,88,90,0
7,78,88,40
7,83,88,0
7,87,90,0
7,76,88,58
7,81,87,0
7,85,88,2
7,83,88,122
7,87,88,0
7,90,90,1
7,83,88,1414
7,88,89,1
7,92,89,0
7,83,88,48
7,87,88,0
7,90,90,0
7,81,88,61
7,85,90,0
7,88,89,0
7,83,87,75
7,87,87,1
7,90,88,0
7,85,90,6731
7,88,88,0
7,81,89,2
7,81,88,192
7,88,90,0
7,85,89,1
7,80,88,80
7,83,89,0
7,88,88,0
7,79,90,3815
7,82,90,0
7,85,88,0
7,78,88,837
7,83,88,0
7,87,88,0
7,80,89,121
7,83,88,0
7,88,89,0
7,79,89,65
7,82,88,1
7,88,89,0
7,78,87,749
7,83,88,0
7,87,88,0
7,76,89,467
7,81,88,0
7,85,88,0
7,83,90,112
7,87,88,0
7,90,90,0
7,80,89,1433
7,83,90,0
7,88,88,0
7,78,88,40
7,83,89,0
7,87,87,0
7,76,87,58
7,81,89,0
7,85,89,2
7,83,88,122
7,87,87,0
7,90,87,1
7,83,90,1414
7,88,88,1
7,92,89,0
7,83,90,48
7,87,90,0
7,90,87,0
7,81,88,61
7,85,89,0
7,88,89,0
7,83,90,75
7,87,87,1
7,90,88,0
7,85,88,6731
7,88,90,0
7,81,88,2
7,81,90,192
7,88,90,0
7,85,87,1
7,80,90,80
7,83,89,0
7,88,87,0
7,76,89,10539
7,81,90,0
7,85,87,0
7,83,89,112
7,87,87,0
7,90,89,0
7,80,88,1433
7,83,88,0
7,88,90,0
7,78,89,40
7,83,88,0
7,87,89,0
7,76,88,58
7,81,89,0
7,85,88,2
7,83,88,122
7,87,88,0
7,90,90,1
7,83,89,1414
7,88,89,1
7,92,89,0
7,83,88,48
7,87,87,0
7,90,89,0
7,81,88,61
7,85,88,0
7,88,90,0
7,83,87,75
7,87,87,1
7,90,89,0
7,85,88,6731
7,88,87,0
7,81,89,2
7,81,88,192
7,88,88,0
7,85,88,1
7,80,88,80
7,83,88,0
7,88,88,0
7,80,89,1893
7,83,88,0
7,88,88,0
7,87,87,34
7,78,89,4
7,83,87,0
7,88,88,65
7,81,89,2
7,85,87,0
7,83,87,214
7,87,88,1
7,90,88,0
7,83,88,1581
7,88,90,0
7,92,88,0
7,87,89,44
7,90,88,0
7,83,88,2
7,81,89,60
7,85,87,0
7,88,89,0
7,83,88,70
7,87,87,0
7,90,88,2
7,83,90,1533
7,88,90,0
7,92,88,0
7,83,88,57
7,87,89,0
7,90,90,0
