track,note,velocity,time
1,28,127,6140
1,28,127,88
1,28,127,4
1,28,127,84
1,28,122,4
1,28,127,88
1,28,120,4
1,28,121,88
1,28,127,4
1,28,121,84
1,28,127,4
1,28,127,84
1,28,123,4
1,28,127,88
1,28,126,4
1,28,127,88
1,28,120,4
1,28,127,84
1,28,127,4
1,28,127,84
1,28,127,4
1,28,127,88
1,28,123,4
1,28,127,88
1,28,127,4
1,28,127,84
1,28,127,4
1,28,127,84
1,28,127,4
1,28,123,88
1,28,127,4
1,28,127,88
1,28,127,4
1,28,127,84
1,28,127,4
1,28,121,84
1,28,127,4
1,28,120,88
1,28,127,4
1,28,127,88
1,28,127,254
1,28,127,4
1,28,127,84
1,28,121,4
1,28,127,88
1,28,127,8
1,28,127,88
1,28,127,4
1,28,127,84
1,28,126,4
1,28,127,84
1,28,127,4
1,28,127,88
1,28,127,8
1,28,127,88
1,28,124,8
1,28,127,84
1,28,121,4
1,28,127,84
1,28,123,4
1,28,127,88
1,28,124,4
1,28,127,88
1,28,127,8
1,28,124,84
1,28,127,4
1,28,127,84
1,28,127,4
1,28,127,88
1,28,127,8
1,28,127,88
1,28,127,8
1,28,127,84
1,28,127,4
1,28,127,84
1,28,127,4
1,28,121,88
1,28,127,4
1,28,127,88
1,28,127,4
1,28,127,84
1,28,127,4
1,28,127,84
1,28,127,4
1,28,127,88
1,28,127,4
1,28,126,88
1,28,127,4
1,28,120,84
1,28,121,4
1,28,127,84
1,28,127,4
1,28,127,88
1,28,127,4
1,28,127,88
1,28,127,4
1,28,127,84
1,28,122,4
1,28,127,84
1,28,127,4
1,28,127,84
1,28,126,4
1,28,124,84
1,28,121,4
1,28,127,84
1,28,121,4
1,28,127,84
1,28,127,4
1,28,127,84
1,28,127,4
1,28,123,84
1,28,127,4
1,28,127,84
1,28,124,4
1,28,120,84
1,28,127,4
1,28,127,84
1,28,127,4
1,28,127,84
1,28,127,4
1,28,127,84
1,28,127,4
1,28,121,84
1,28,123,4
1,28,127,84
1,28,127,4
1,28,127,84
1,28,127,4
1,28,126,84
1,28,127,4
1,28,127,84
1,28,127,4
1,28,127,84
1,28,127,4
1,28,121,84
1,28,127,8
1,28,127,84
1,28,127,4
1,28,127,84
1,28,121,4
1,28,127,88
1,28,127,4
1,28,127,88
1,28,127,4
1,28,127,84
1,28,127,4
1,28,127,84
1,28,127,4
1,28,126,88
1,28,127,4
1,28,126,88
1,28,121,8
1,28,127,84
1,28,127,4
1,28,127,84
1,28,127,4
1,28,127,88
1,28,127,4
1,28,127,88
1,28,127,8
1,28,125,84
1,28,127,4
1,28,121,84
1,28,125,4
1,28,127,88
1,28,127,4
1,28,125,88
1,28,127,4
1,28,124,84
1,28,127,4
1,28,127,84
1,28,127,4
1,28,127,88
1,28,121,4
1,28,127,88
1,28,124,8
1,28,127,84
1,28,127,4
1,28,127,84
1,28,127,4
1,28,122,88
1,28,127,4
1,28,126,88
1,28,127,8
1,28,127,84
1,28,127,4
1,28,126,84
1,28,125,4
1,28,120,88
1,28,127,4
1,28,127,88
1,28,127,8
1,28,127,84
1,28,127,4
1,28,127,84
1,28,121,4
1,28,127,88
1,28,127,4
1,28,127,88
1,28,123,254
1,28,127,4
1,28,127,84
1,28,127,4
1,28,127,84
1,28,127,4
1,28,127,84
1,28,127,4
1,28,127,84
1,28,127,4
1,28,127,84
1,28,127,4
1,28,127,84
1,28,127,4
1,28,127,84
1,28,127,4
1,28,127,84
1,28,127,4
1,28,127,84
1,28,127,4
1,28,127,84
1,28,127,4
1,28,127,84
1,28,123,4
1,28,124,84
1,28,125,4
1,28,127,84
1,28,127,4
1,28,127,84
1,28,127,4
1,28,127,84
1,28,127,4
1,28,127,84
1,28,127,4
1,28,123,84
1,28,127,4
1,28,126,84
1,28,127,4
1,28,127,84
1,28,127,4
1,28,121,84
1,28,127,4
1,28,127,84
1,28,127,4
1,28,127,84
1,28,127,4
1,28,127,84
1,28,127,4
1,28,127,84
1,28,127,4
1,28,127,84
1,28,127,4
1,28,121,84
1,28,127,4
1,28,127,84
1,28,123,4
1,28,127,84
1,28,122,4
1,28,127,84
1,28,127,4
1,28,127,84
1,28,127,4
1,28,127,84
1,28,121,4
1,28,121,84
1,28,127,4
1,28,127,84
1,28,127,4
1,28,127,84
1,28,127,4
1,28,127,84
1,28,127,4
1,28,125,84
1,28,127,4
1,28,127,84
1,28,127,4
1,28,127,84
1,28,127,4
1,28,127,84
1,28,127,4
1,28,127,84
1,28,122,4
1,28,127,84
1,28,127,4
1,28,127,84
1,28,127,4
1,28,127,84
1,28,127,4
1,28,127,84
1,28,127,4
1,28,127,84
1,28,127,4
1,28,127,84
1,28,127,4
1,28,123,84
1,28,127,4
1,28,127,84
1,28,127,4
1,28,127,84
1,28,127,4
1,28,123,84
1,28,127,4
1,28,127,84
1,28,127,4
1,28,127,84
1,28,127,4
1,28,127,84
1,28,127,4
1,28,127,84
1,28,127,4
1,28,125,84
1,28,127,4
1,28,126,84
1,28,127,4
1,28,122,84
1,28,127,4
1,28,120,84
1,28,125,4
1,28,127,84
1,28,123,8
1,28,127,84
1,28,127,8
1,28,124,88
1,28,127,8
1,28,127,88
1,28,127,4
1,28,127,88
1,28,127,4
1,28,127,852
1,31,127,4
1,28,127,132
1,31,127,4
1,28,127,4
1,28,121,84
1,28,127,4
1,28,127,84
1,28,127,4
1,28,127,88
1,28,127,4
1,28,122,88
1,28,127,8
1,28,121,84
1,28,127,4
1,28,120,84
1,28,127,4
1,28,125,88
1,28,127,4
1,28,127,88
1,28,127,8
1,28,127,84
1,28,127,4
1,28,124,84
1,28,125,4
1,28,127,88
1,28,127,4
1,28,127,88
1,28,120,4
1,28,127,84
1,28,127,4
1,28,127,84
1,28,120,4
1,28,127,88
1,28,121,4
1,28,127,88
1,28,127,4
1,28,127,84
1,28,127,4
1,28,127,84
1,28,121,4
1,28,127,88
1,28,127,4
1,28,126,88
1,28,127,4
1,28,126,84
1,28,127,4
1,28,127,84
1,28,121,4
1,28,126,88
1,28,127,4
1,28,126,88
1,28,123,4
1,28,127,84
1,28,127,4
1,28,127,84
1,28,127,4
1,28,124,88
1,28,123,8
1,28,120,88
1,28,127,4
1,28,127,84
1,28,127,4
1,28,127,84
1,28,127,4
1,28,120,84
1,28,127,4
1,28,127,84
1,28,127,4
1,28,126,84
1,28,127,4
1,28,127,84
1,28,127,4
1,28,127,84
1,28,127,4
1,28,127,84
1,28,127,4
1,28,127,84
1,28,125,4
1,28,127,84
1,28,127,4
1,28,127,84
1,28,127,4
1,28,127,84
1,28,126,4
1,28,127,84
1,28,127,4
1,28,121,84
1,28,127,4
1,28,127,84
1,28,121,4
1,28,127,84
1,28,127,4
1,28,127,84
1,28,127,4
1,28,127,84
1,28,121,4
1,28,127,84
1,28,127,4
1,28,127,84
1,28,122,4
1,28,121,84
1,28,127,4
1,28,127,84
1,28,125,4
1,28,123,84
1,28,127,4
1,28,127,84
1,28,125,4
1,28,127,84
1,28,127,4
1,28,127,84
1,28,121,4
1,28,127,84
1,28,120,4
1,28,123,84
1,28,127,4
1,28,123,84
1,28,127,4
1,28,127,84
1,28,127,4
1,28,127,84
1,28,127,4
1,28,127,84
1,28,127,4
1,28,123,84
1,28,127,4
1,28,124,84
1,28,127,4
1,28,127,84
1,28,127,4
1,28,127,84
1,28,127,4
1,28,127,84
1,28,127,4
1,28,127,84
1,28,127,4
1,28,127,84
1,28,126,4
1,28,127,84
1,28,127,4
1,28,127,84
1,28,127,4
1,28,127,84
1,28,127,4
1,28,127,84
1,28,127,4
1,28,120,84
1,28,127,4
1,28,127,84
1,28,127,4
1,28,127,84
1,28,127,4
1,28,125,84
1,28,121,4
1,28,127,84
1,28,127,8
1,28,127,84
1,28,127,8
1,28,127,84
1,28,127,4
1,28,127,88
1,28,127,8
1,28,120,88
1,28,127,4
1,28,127,84
1,28,121,8
1,28,121,88
1,28,127,4
1,28,122,88
1,28,122,4
1,28,127,88
1,28,127,4
1,28,127,88
1,28,127,8
1,28,126,88
1,28,127,8
1,28,125,88
1,28,121,4
1,28,127,88
1,28,127,4
1,28,127,88
1,28,127,8
1,28,127,88
1,28,127,8
1,28,127,88
1,28,127,4
1,28,127,88
1,28,127,4
1,28,126,84
1,28,127,8
1,28,120,84
1,28,127,4
1,28,127,88
1,28,127,8
1,28,127,88
1,28,127,8
1,28,127,84
1,28,127,4
1,28,127,84
1,28,127,4
1,28,127,88
1,28,127,8
1,28,127,88
1,28,127,8
1,28,126,84
1,28,127,8
1,28,120,84
1,28,123,4
1,28,127,88
1,28,127,8
1,28,123,88
1,28,123,8
1,28,122,84
1,28,127,4
1,28,121,84
1,28,120,8
1,28,127,88
1,28,127,4
1,28,127,88
1,28,127,4
1,28,127,84
1,28,126,4
1,28,127,84
1,28,127,4
1,28,127,88
1,28,126,8
1,28,122,88
1,28,127,8
1,28,127,84
1,28,127,4
1,28,127,84
1,28,123,4
1,28,125,88
1,28,127,8
1,28,126,88
1,28,127,8
1,28,127,84
1,28,127,4
1,28,127,84
1,28,127,4
1,28,127,88
1,28,127,4
1,28,127,88
1,28,123,4
1,28,125,84
1,28,127,4
1,28,127,84
1,28,127,4
1,28,127,84
1,28,127,8
1,28,127,84
1,28,127,8
1,28,127,84
1,28,127,4
1,28,127,84
1,28,127,4
1,28,127,84
1,28,127,4
1,28,127,88
1,28,123,8
1,28,127,84
1,28,122,4
1,28,127,88
1,28,127,4
1,28,127,84
1,28,127,4
1,28,123,84
1,28,127,8
1,28,127,84
1,28,127,4
1,28,121,84
1,28,127,4
1,28,127,84
1,28,127,4
1,28,127,88
1,28,126,8
1,28,127,84
1,28,121,4
1,28,127,84
1,28,127,4
1,28,127,84
1,28,127,4
1,28,127,84
1,28,127,8
1,28,127,84
1,28,127,4
1,28,127,84
1,28,127,4
1,28,120,84
1,28,127,4
1,28,127,84
1,28,127,8
1,28,127,84
1,28,127,4
1,28,127,84
1,28,127,4
1,28,127,84
1,28,125,4
1,28,124,88
1,28,125,4
1,28,127,84
1,28,122,4
1,28,121,88
1,28,127,4
1,28,125,88
1,28,127,0
1,28,127,84
1,28,127,4
1,28,121,84
1,28,127,4
1,28,127,88
1,28,127,4
1,28,127,88
1,28,127,4
1,28,124,88
1,28,127,4
1,28,125,84
1,28,123,4
1,28,127,84
1,28,127,8
1,28,125,88
1,28,122,4
1,28,127,88
1,28,127,4
1,28,127,84
1,28,127,4
1,28,127,84
1,28,127,8
1,28,127,88
1,28,127,8
1,28,127,88
1,28,127,8
1,28,127,84
1,28,127,4
1,28,127,84
1,28,127,4
1,28,127,88
1,28,121,4
1,28,127,88
1,28,127,254
1,28,127,4
1,28,122,84
1,28,127,4
1,28,127,84
1,28,124,4
1,28,127,84
1,28,127,4
1,28,127,84
1,28,127,4
1,28,126,84
1,28,127,4
1,28,127,84
1,28,127,4
1,28,120,84
1,28,127,4
1,28,125,84
1,28,127,4
1,28,127,84
1,28,127,8
1,28,125,84
1,28,127,0
1,28,127,84
1,28,127,8
1,28,123,84
1,28,127,4
1,28,127,84
1,28,125,8
1,28,127,88
1,28,127,4
1,28,127,88
1,28,127,4
1,28,127,84
1,28,127,4
1,28,121,84
1,28,127,4
1,28,123,88
1,28,127,4
1,28,127,88
1,28,127,4
1,28,127,84
1,28,127,4
1,28,127,84
1,28,124,4
1,28,124,88
1,28,124,4
1,28,127,88
1,28,127,254
1,28,127,4
1,28,127,84
1,28,127,4
1,28,127,84
1,28,124,0
1,28,124,84
1,28,127,1534
1,28,127,84
1,28,124,4
1,28,127,84
1,28,122,4
1,28,121,84
1,28,127,4
1,28,127,84
1,28,127,4
1,28,127,84
1,28,127,4
1,28,127,84
1,28,127,4
1,28,127,84
1,28,127,4
1,28,125,84
1,28,127,4
1,28,127,84
1,28,127,4
1,28,127,84
1,28,127,4
1,28,120,84
1,28,121,4
1,28,127,84
1,28,127,4
1,28,127,84
1,28,127,4
1,28,127,84
1,28,127,4
1,28,127,84
1,28,127,4
1,28,126,84
1,28,127,8
1,28,125,84
1,28,127,4
1,28,127,84
1,28,127,4
1,28,127,84
1,28,127,8
1,28,127,84
1,28,127,8
1,28,127,84
1,28,127,4
1,28,127,84
1,28,127,4
1,28,127,84
1,28,127,8
1,28,127,84
1,28,127,8
1,28,127,84
1,28,127,4
1,28,127,84
1,28,127,4
1,28,127,84
1,28,123,8
1,28,127,84
1,28,127,8
1,28,127,84
1,28,126,4
1,28,127,84
1,28,127,4
1,28,127,84
1,28,122,8
1,28,122,84
1,28,127,8
1,28,127,84
1,28,127,4
1,28,127,84
1,28,127,4
1,28,127,84
1,28,125,8
1,28,127,84
1,28,127,8
1,28,126,84
1,28,127,4
1,28,124,84
1,28,127,4
1,28,127,84
1,28,127,8
1,28,125,84
1,28,127,8
1,28,123,84
1,28,127,4
1,28,127,84
1,28,127,4
1,28,127,84
1,28,127,8
1,28,127,84
1,28,126,8
1,28,125,84
1,28,127,4
1,28,127,84
1,28,127,4
1,28,127,84
1,28,127,8
1,28,127,84
1,28,126,8
1,26,127,212
1,28,127,84
1,28,127,44
1,28,127,4
1,28,127,88
1,28,127,4
1,26,121,212
1,28,123,84
1,28,124,44
1,28,127,4
1,28,127,88
1,26,126,382
1,28,123,84
1,28,127,44
1,28,127,4
1,28,127,88
1,28,127,4
1,26,127,212
1,28,127,84
1,28,127,44
1,28,127,4
1,28,125,88
1,28,124,254
1,26,120,4
1,26,127,84
1,25,127,4
1,25,120,84
1,24,127,4
1,26,127,84
1,23,127,8
1,25,127,84
1,27,127,8
1,28,127,4
1,28,127,252
2,40,68,892
2,47,68,0
2,40,68,4
2,47,68,0
2,45,68,4
2,52,68,0
2,40,68,4
2,47,68,4
2,43,68,4
2,47,68,0
2,40,68,4
2,47,68,4
2,47,68,772
2,40,68,0
2,47,68,4
2,40,68,0
2,45,68,4
2,40,68,0
2,40,68,4
2,47,68,0
2,43,68,4
2,47,68,0
2,40,68,4
2,47,68,4
2,40,68,772
2,47,68,0
2,40,68,4
2,47,68,0
2,45,68,4
2,40,68,0
2,40,68,4
2,47,68,4
2,43,68,4
2,47,68,0
2,40,68,4
2,47,68,4
2,40,68,900
2,47,68,4
2,45,68,4
2,40,68,4
2,40,68,4
2,47,68,4
2,43,68,0
2,47,68,4
2,40,68,0
2,47,68,4
2,40,68,900
2,47,68,4
2,45,68,4
2,40,68,4
2,40,68,0
2,47,68,0
2,43,68,4
2,47,68,4
2,40,68,0
2,47,68,4
2,40,68,900
2,47,68,4
2,45,68,4
2,40,68,4
2,40,68,4
2,47,68,0
2,43,68,4
2,47,68,4
2,40,68,4
2,47,68,4
2,40,68,900
2,47,68,4
2,45,68,4
2,40,68,4
2,40,68,4
2,47,68,0
2,43,68,4
2,47,68,4
2,40,68,4
2,47,68,4
2,40,68,900
2,47,68,4
2,45,68,4
2,40,68,4
2,40,68,4
2,47,68,0
2,43,68,4
2,47,68,4
2,40,68,4
2,47,68,4
2,40,68,900
2,47,68,4
2,45,68,4
2,40,68,4
2,40,68,4
2,47,68,0
2,43,68,4
2,47,68,4
2,40,76,8
2,47,76,0
2,40,68,5484
2,40,68,8
2,47,68,0
2,45,68,4
2,40,68,0
2,40,68,0
2,47,68,4
2,43,68,8
2,47,68,0
2,40,68,0
2,47,68,4
2,40,68,900
2,47,68,4
2,45,68,4
2,40,68,4
2,40,68,0
2,47,68,4
2,43,68,0
2,47,68,4
2,40,68,4
2,47,68,4
2,40,68,900
2,47,68,4
2,45,68,4
2,40,68,4
2,40,68,0
2,47,68,4
2,43,68,0
2,47,68,4
2,40,68,4
2,47,68,4
2,40,68,900
2,47,68,4
2,45,68,4
2,40,68,4
2,40,68,0
2,47,68,4
2,43,68,4
2,47,68,4
2,40,68,4
2,47,68,4
2,40,68,900
2,47,68,4
2,45,68,4
2,40,68,4
2,40,68,4
2,47,68,4
2,43,68,4
2,47,68,0
2,40,76,4
2,47,76,0
2,40,68,11524
