track,note,velocity,time
1,36,100,768
1,36,100,353
1,36,87,314
1,36,100,22
1,36,100,266
1,36,100,74
1,36,100,357
1,36,100,353
1,36,87,314
1,36,100,22
1,36,100,266
1,36,100,74
1,36,100,357
1,36,100,353
1,36,87,314
1,36,100,22
1,36,100,266
1,36,100,74
1,36,100,357
1,36,100,353
1,36,87,314
1,36,100,22
1,36,100,266
1,36,100,74
1,36,100,357
1,36,100,264
1,36,100,72
1,36,100,360
1,36,100,360
1,36,100,353
1,36,87,314
1,36,100,22
1,36,100,266
1,36,100,74
1,36,100,357
1,36,100,353
1,36,87,314
1,36,100,22
1,36,100,266
1,36,100,74
1,36,100,357
1,36,100,353
1,36,87,314
1,36,100,22
1,36,100,266
1,36,100,74
1,36,100,357
1,36,100,353
1,36,87,314
1,36,100,22
1,36,100,266
1,36,100,74
1,36,100,357
1,36,100,353
1,36,87,314
1,36,100,22
1,36,100,266
1,36,100,74
1,36,100,357
1,36,100,353
1,36,87,314
1,36,100,22
1,36,100,266
1,36,100,74
1,36,100,357
1,36,100,353
1,36,87,314
1,36,100,22
1,36,100,266
1,36,100,74
1,36,100,357
1,36,100,353
1,36,87,314
1,36,100,22
1,36,100,266
1,36,100,74
1,36,100,357
1,36,100,353
1,36,87,314
1,36,100,22
1,36,100,266
1,36,100,74
1,36,100,357
1,36,100,264
1,36,100,72
1,36,100,360
1,36,100,360
1,36,100,353
1,36,87,314
1,36,100,22
1,36,100,266
1,36,100,74
1,36,100,357
1,36,100,353
1,36,87,314
1,36,100,22
1,36,100,266
1,36,100,74
1,36,100,357
1,36,100,353
1,36,87,314
1,36,100,22
1,36,100,266
1,36,100,74
1,36,100,357
1,36,100,353
1,36,87,314
1,36,100,22
1,36,100,266
1,36,100,74
1,36,100,357
1,36,100,353
1,36,87,314
1,36,100,22
1,36,100,266
1,36,100,74
1,36,100,357
1,36,100,353
1,36,87,314
1,36,100,22
1,36,100,266
1,36,100,74
1,36,100,357
1,36,100,353
1,36,87,314
1,36,100,22
1,36,100,266
1,36,100,74
1,36,100,357
1,36,100,353
1,36,87,314
1,36,100,22
1,36,100,266
1,36,100,74
1,36,100,357
1,36,100,353
1,36,87,314
1,36,100,22
1,36,100,266
1,36,100,74
1,36,100,357
1,36,100,353
1,36,87,314
1,36,100,22
1,36,100,266
1,36,100,74
1,36,100,357
1,36,100,353
1,36,87,314
1,36,100,22
1,36,100,266
1,36,100,74
1,36,100,357
1,36,100,264
1,36,100,72
1,36,100,360
1,36,100,360
1,36,100,353
1,36,87,314
1,36,100,22
1,36,100,266
1,36,100,74
1,36,100,357
1,36,100,353
1,36,87,314
1,36,100,22
1,36,100,266
1,36,100,74
1,36,100,357
1,36,100,353
1,36,87,314
1,36,100,22
1,36,100,266
1,36,100,74
1,36,100,357
1,36,100,353
1,36,87,314
1,36,100,22
1,36,100,266
1,36,100,74
1,36,100,357
1,36,100,353
1,36,87,314
1,36,100,22
1,36,100,266
1,36,100,74
1,36,100,357
1,36,100,353
1,36,87,314
1,36,100,22
1,36,100,266
1,36,100,74
1,36,100,357
1,36,100,353
1,36,87,314
1,36,100,22
1,36,100,266
1,36,100,74
1,36,100,357
1,36,100,353
1,36,87,314
1,36,100,22
1,36,100,266
1,36,100,74
1,36,100,357
1,36,100,353
1,36,87,314
1,36,100,22
1,36,100,266
1,36,100,74
1,36,100,357
1,36,100,353
1,36,87,314
1,36,100,22
1,36,100,266
1,36,100,74
1,36,100,357
1,36,100,353
1,36,87,314
1,36,100,22
1,36,100,266
1,36,100,74
2,40,120,960
2,40,120,364
2,40,120,367
2,40,120,364
2,40,120,370
2,40,120,364
2,40,120,367
2,40,120,364
2,40,120,370
2,40,120,364
2,40,120,367
2,40,120,364
2,40,120,370
2,40,120,364
2,40,120,367
2,40,120,364
2,40,120,370
2,40,120,360
2,40,120,360
2,40,120,24
2,40,120,312
2,40,120,364
2,40,120,367
2,40,120,364
2,40,120,370
2,40,120,364
2,40,120,367
2,40,120,364
2,40,120,370
2,40,120,364
2,40,120,367
2,40,120,364
2,40,120,370
2,40,120,364
2,40,120,367
2,40,120,364
2,40,120,370
2,40,120,364
2,40,120,367
2,40,120,364
2,40,120,370
2,40,120,364
2,40,120,367
2,40,120,364
2,40,120,370
2,40,120,364
2,40,120,367
2,40,120,364
2,40,120,370
2,40,120,364
2,40,120,367
2,40,120,364
2,40,120,370
2,40,120,364
2,40,120,367
2,40,120,364
2,40,120,370
2,40,120,360
2,40,120,360
2,40,120,24
2,40,120,312
2,40,120,364
2,40,120,367
2,40,120,364
2,40,120,370
2,40,120,364
2,40,120,367
2,40,120,364
2,40,120,370
2,40,120,364
2,40,120,367
2,40,120,364
2,40,120,370
2,40,120,364
2,40,120,367
2,40,120,364
2,40,120,370
2,40,120,364
2,40,120,367
2,40,120,364
2,40,120,370
2,40,120,364
2,40,120,367
2,40,120,364
2,40,120,370
2,40,120,364
2,40,120,367
2,40,120,364
2,40,120,370
2,40,120,364
2,40,120,367
2,40,120,364
2,40,120,370
2,40,120,364
2,40,120,367
2,40,120,748
2,40,120,364
2,40,120,367
2,40,120,364
2,40,120,370
2,40,120,364
2,40,120,367
2,40,120,364
2,40,120,370
2,40,120,360
2,40,120,360
2,40,120,24
2,40,120,312
2,40,120,364
2,40,120,367
2,40,120,364
2,40,120,370
2,40,120,364
2,40,120,367
2,40,120,364
2,40,120,370
2,40,120,364
2,40,120,367
2,40,120,364
2,40,120,370
2,40,120,364
2,40,120,367
2,40,120,364
2,40,120,370
2,40,120,364
2,40,120,367
2,40,120,364
2,40,120,370
2,40,120,364
2,40,120,367
2,40,120,364
2,40,120,370
2,40,120,364
2,40,120,367
2,40,120,364
2,40,120,370
2,40,120,364
2,40,120,367
2,40,120,364
2,40,120,370
2,40,120,364
2,40,120,367
2,40,120,364
2,40,120,370
2,40,120,364
2,40,120,367
2,40,120,364
2,40,120,370
2,40,120,364
2,40,120,367
2,40,120,364
3,42,80,768
3,42,86,21
3,42,59,33
3,42,90,15
3,42,86,30
3,42,80,18
3,42,69,23
3,42,75,17
3,42,77,17
3,42,67,26
3,42,64,29
3,42,71,16
3,42,67,36
3,42,71,17
3,42,63,23
3,42,71,21
3,42,73,21
3,42,50,23
3,42,67,29
3,42,52,16
3,42,75,26
3,42,59,19
3,42,71,21
3,42,63,17
3,42,71,23
3,42,56,22
3,42,58,21
3,42,73,17
3,42,75,28
3,42,54,16
3,42,63,24
3,42,77,14
3,42,80,24
3,42,86,21
3,42,59,33
3,42,90,15
3,42,86,30
3,42,80,18
3,42,69,23
3,42,75,17
3,42,77,17
3,42,67,26
3,42,64,29
3,42,71,16
3,42,67,36
3,42,71,17
3,42,63,23
3,42,71,21
3,42,73,21
3,42,50,23
3,42,67,29
3,42,52,16
3,42,75,26
3,42,59,19
3,42,71,21
3,42,63,17
3,42,71,23
3,42,56,22
3,42,58,21
3,42,73,17
3,42,75,28
3,42,54,16
3,42,63,24
3,42,77,14
3,42,80,24
3,42,86,21
3,42,59,33
3,42,90,15
3,42,86,30
3,42,80,18
3,42,69,23
3,42,75,17
3,42,77,17
3,42,67,26
3,42,64,29
3,42,71,16
3,42,67,36
3,42,71,17
3,42,63,23
3,42,71,21
3,42,73,21
3,42,50,23
3,42,67,29
3,42,52,16
3,42,75,26
3,42,59,19
3,42,71,21
3,42,63,17
3,42,71,23
3,42,56,22
3,42,58,21
3,42,73,17
3,42,75,28
3,42,54,16
3,42,63,24
3,42,77,14
3,42,80,24
3,42,86,21
3,42,59,33
3,42,90,15
3,42,86,30
3,42,80,18
3,42,69,23
3,42,75,17
3,42,77,17
3,42,67,26
3,42,64,29
3,42,71,16
3,42,67,36
3,42,71,17
3,42,63,23
3,42,71,21
3,42,73,21
3,42,50,23
3,42,67,29
3,42,52,16
3,42,75,26
3,42,59,19
3,42,71,21
3,42,63,17
3,42,71,23
3,42,56,22
3,42,58,21
3,42,73,17
3,42,75,28
3,42,54,16
3,42,63,24
3,42,77,14
3,42,73,24
3,42,50,23
3,42,67,29
3,42,52,16
3,42,75,26
3,42,59,19
3,42,71,21
3,42,63,17
3,42,71,23
3,42,56,22
3,42,58,21
3,42,73,17
3,42,75,28
3,42,54,16
3,42,63,24
3,42,77,14
3,42,73,24
3,42,50,23
3,42,67,29
3,42,52,16
3,42,75,26
3,42,59,19
3,42,71,21
3,42,63,17
3,42,80,23
3,42,86,21
3,42,59,33
3,42,90,15
3,42,86,30
3,42,80,18
3,42,69,23
3,42,75,17
3,42,77,17
3,42,67,26
3,42,64,29
3,42,71,16
3,42,67,36
3,42,71,17
3,42,63,23
3,42,71,21
3,42,73,21
3,42,50,23
3,42,67,29
3,42,52,16
3,42,75,26
3,42,59,19
3,42,71,21
3,42,63,17
3,42,71,23
3,42,56,22
3,42,58,21
3,42,73,17
3,42,75,28
3,42,54,16
3,42,63,24
3,42,77,14
3,42,80,24
3,42,86,21
3,42,59,33
3,42,90,15
3,42,86,30
3,42,80,18
3,42,69,23
3,42,75,17
3,42,77,17
3,42,67,26
3,42,64,29
3,42,71,16
3,42,67,36
3,42,71,17
3,42,63,23
3,42,71,21
3,42,73,21
3,42,50,23
3,42,67,29
3,42,52,16
3,42,75,26
3,42,59,19
3,42,71,21
3,42,63,17
3,42,71,23
3,42,56,22
3,42,58,21
3,42,73,17
3,42,75,28
3,42,54,16
3,42,63,24
3,42,77,14
3,42,80,24
3,42,86,21
3,42,59,33
3,42,90,15
3,42,86,30
3,42,80,18
3,42,69,23
3,42,75,17
3,42,77,17
3,42,67,26
3,42,64,29
3,42,71,16
3,42,67,36
3,42,71,17
3,42,63,23
3,42,71,21
3,42,73,21
3,42,50,23
3,42,67,29
3,42,52,16
3,42,75,26
3,42,59,19
3,42,71,21
3,42,63,17
3,42,71,23
3,42,56,22
3,42,58,21
3,42,73,17
3,42,75,28
3,42,54,16
3,42,63,24
3,42,77,14
3,42,80,24
3,42,86,21
3,42,59,33
3,42,90,15
3,42,86,30
3,42,80,18
3,42,69,23
3,42,75,17
3,42,77,17
3,42,67,26
3,42,64,29
3,42,71,16
3,42,67,36
3,42,71,17
3,42,63,23
3,42,71,21
3,42,73,21
3,42,50,23
3,42,67,29
3,42,52,16
3,42,75,26
3,42,59,19
3,42,71,21
3,42,63,17
3,42,71,23
3,42,56,22
3,42,58,21
3,42,73,17
3,42,75,28
3,42,54,16
3,42,63,24
3,42,77,14
3,42,80,24
3,42,86,21
3,42,59,33
3,42,90,15
3,42,86,30
3,42,80,18
3,42,69,23
3,42,75,17
3,42,77,17
3,42,67,26
3,42,64,29
3,42,71,16
3,42,67,36
3,42,71,17
3,42,63,23
3,42,71,21
3,42,73,21
3,42,50,23
3,42,67,29
3,42,52,16
3,42,75,26
3,42,59,19
3,42,71,21
3,42,63,17
3,42,71,23
3,42,56,22
3,42,58,21
3,42,73,17
3,42,75,28
3,42,54,16
3,42,63,24
3,42,77,14
3,42,80,24
3,42,86,21
3,42,59,33
3,42,90,15
3,42,86,30
3,42,80,18
3,42,69,23
3,42,75,17
3,42,77,17
3,42,67,26
3,42,64,29
3,42,71,16
3,42,67,36
3,42,71,17
3,42,63,23
3,42,71,21
3,42,73,21
3,42,50,23
3,42,67,29
3,42,52,16
3,42,75,26
3,42,59,19
3,42,71,21
3,42,63,17
3,42,71,23
3,42,56,22
3,42,58,21
3,42,73,17
3,42,75,28
3,42,54,16
3,42,63,24
3,42,77,14
3,42,80,24
3,42,86,21
3,42,59,33
3,42,90,15
3,42,86,30
3,42,80,18
3,42,69,23
3,42,75,17
3,42,77,17
3,42,67,26
3,42,64,29
3,42,71,16
3,42,67,36
3,42,71,17
3,42,63,23
3,42,71,21
3,42,73,21
3,42,50,23
3,42,67,29
3,42,52,16
3,42,75,26
3,42,59,19
3,42,71,21
3,42,63,17
3,42,71,23
3,42,56,22
3,42,58,21
3,42,73,17
3,42,75,28
3,42,54,16
3,42,63,24
3,42,77,14
3,42,80,24
3,42,86,21
3,42,59,33
3,42,90,15
3,42,86,30
3,42,80,18
3,42,69,23
3,42,75,17
3,42,77,17
3,42,67,26
3,42,64,29
3,42,71,16
3,42,67,36
3,42,71,17
3,42,63,23
3,42,71,21
3,42,73,21
3,42,50,23
3,42,67,29
3,42,52,16
3,42,75,26
3,42,59,19
3,42,71,21
3,42,63,17
3,42,71,23
3,42,56,22
3,42,58,21
3,42,73,17
3,42,75,28
3,42,54,16
3,42,63,24
3,42,77,14
3,42,80,24
3,42,86,21
3,42,59,33
3,42,90,15
3,42,86,30
3,42,80,18
3,42,69,23
3,42,75,17
3,42,77,17
3,42,67,26
3,42,64,29
3,42,71,16
3,42,67,36
3,42,71,17
3,42,63,23
3,42,71,21
3,42,73,21
3,42,50,23
3,42,67,29
3,42,52,16
3,42,75,26
3,42,59,19
3,42,71,21
3,42,63,17
3,42,71,23
3,42,56,22
3,42,58,21
3,42,73,17
3,42,75,28
3,42,54,16
3,42,63,24
3,42,77,14
3,42,73,24
3,42,50,23
3,42,67,29
3,42,52,16
3,42,75,26
3,42,59,19
3,42,71,21
3,42,63,17
3,42,71,23
3,42,56,22
3,42,58,21
3,42,73,17
3,42,75,28
3,42,54,16
3,42,63,24
3,42,77,14
3,42,73,24
3,42,50,23
3,42,67,29
3,42,52,16
3,42,75,26
3,42,59,19
3,42,71,21
3,42,63,17
3,42,80,23
3,42,86,21
3,42,59,33
3,42,90,15
3,42,86,30
3,42,80,18
3,42,69,23
3,42,75,17
3,42,77,17
3,42,67,26
3,42,64,29
3,42,71,16
3,42,67,36
3,42,71,17
3,42,63,23
3,42,71,21
3,42,73,21
3,42,50,23
3,42,67,29
3,42,52,16
3,42,75,26
3,42,59,19
3,42,71,21
3,42,63,17
3,42,71,23
3,42,56,22
3,42,58,21
3,42,73,17
3,42,75,28
3,42,54,16
3,42,63,24
3,42,77,14
3,42,80,24
3,42,86,21
3,42,59,33
3,42,90,15
3,42,86,30
3,42,80,18
3,42,69,23
3,42,75,17
3,42,77,17
3,42,67,26
3,42,64,29
3,42,71,16
3,42,67,36
3,42,71,17
3,42,63,23
3,42,71,21
3,42,73,21
3,42,50,23
3,42,67,29
3,42,52,16
3,42,75,26
3,42,59,19
3,42,71,21
3,42,63,17
3,42,71,23
3,42,56,22
3,42,58,21
3,42,73,17
3,42,75,28
3,42,54,16
3,42,63,24
3,42,77,14
3,42,80,24
3,42,86,21
3,42,59,33
3,42,90,15
3,42,86,30
3,42,80,18
3,42,69,23
3,42,75,17
3,42,77,17
3,42,67,26
3,42,64,29
3,42,71,16
3,42,67,36
3,42,71,17
3,42,63,23
3,42,71,21
3,42,73,21
3,42,50,23
3,42,67,29
3,42,52,16
3,42,75,26
3,42,59,19
3,42,71,21
3,42,63,17
3,42,71,23
3,42,56,22
3,42,58,21
3,42,73,17
3,42,75,28
3,42,54,16
3,42,63,24
3,42,77,14
3,42,80,24
3,42,86,21
3,42,59,33
3,42,90,15
3,42,86,30
3,42,80,18
3,42,69,23
3,42,75,17
3,42,77,17
3,42,67,26
3,42,64,29
3,42,71,16
3,42,67,36
3,42,71,17
3,42,63,23
3,42,71,21
3,42,73,21
3,42,50,23
3,42,67,29
3,42,52,16
3,42,75,26
3,42,59,19
3,42,71,21
3,42,63,17
3,42,71,23
3,42,56,22
3,42,58,21
3,42,73,17
3,42,75,28
3,42,54,16
3,42,63,24
3,42,77,14
3,42,80,24
3,42,86,21
3,42,59,33
3,42,90,15
3,42,86,30
3,42,80,18
3,42,69,23
3,42,75,17
3,42,77,17
3,42,67,26
3,42,64,29
3,42,71,16
3,42,67,36
3,42,71,17
3,42,63,23
3,42,71,21
3,42,73,21
3,42,50,23
3,42,67,29
3,42,52,16
3,42,75,26
3,42,59,19
3,42,71,21
3,42,63,17
3,42,71,23
3,42,56,22
3,42,58,21
3,42,73,17
3,42,75,28
3,42,54,16
3,42,63,24
3,42,77,14
3,42,80,24
3,42,86,21
3,42,59,33
