track,note,velocity,time
0,43,100,835
0,43,84,0
0,59,88,0
0,62,100,0
0,64,96,0
0,69,84,0
0,83,50,720
0,81,38,45
0,78,50,32
0,76,50,1
0,83,62,2
0,81,39,43
0,43,96,0
0,59,44,0
0,78,50,2
0,76,38,0
0,83,54,0
0,81,37,40
0,78,50,32
0,76,42,1
0,83,58,17
0,81,39,36
0,78,58,26
0,76,50,39
0,83,46,23
0,51,47,0
0,38,84,0
0,58,80,0
0,62,92,0
0,64,96,0
0,68,84,0
0,38,108,0
0,59,46,480
0,84,50,120
0,51,32,0
0,82,41,40
0,80,50,40
0,78,50,0
0,84,50,15
0,82,45,40
0,38,104,0
0,59,46,0
0,80,50,20
0,78,50,15
0,89,78,20
0,86,66,48
0,82,66,33
0,84,66,55
0,53,40,17
0,79,50,40
0,80,78,21
0,43,84,0
0,59,88,0
0,62,100,0
0,64,96,0
0,69,84,0
0,43,104,0
0,88,50,720
0,86,38,40
0,83,50,40
0,81,50,15
0,59,44,28
0,88,62,17
0,86,39,38
0,43,92,8
0,83,50,4
0,81,38,11
0,88,54,8
0,86,38,42
0,83,50,40
0,81,42,34
0,88,58,1
0,86,43,49
0,83,42,34
0,81,50,20
0,88,46,7
0,51,44,160
0,38,84,0
0,58,80,0
0,62,92,0
0,64,96,0
0,68,84,0
0,38,100,0
0,59,54,0
0,89,44,200
0,86,48,47
0,84,48,38
0,80,68,31
0,94,64,104
0,89,68,140
0,38,100,115
0,39,24,240
0,39,80,94
0,40,96,0
0,41,80,120
0,60,108,10
0,42,112,0
0,54,68,0
0,58,68,0
0,60,68,0
0,64,68,0
0,68,68,0
0,44,64,0
0,42,100,4
0,44,32,317
0,44,72,80
0,62,100,16
0,61,92,86
0,60,100,0
0,41,100,0
0,53,68,0
0,57,68,0
0,59,68,0
0,63,68,0
0,67,68,0
0,59,92,96
0,44,32,298
0,44,92,3
0,41,96,14
0,44,32,239
0,44,72,80
0,42,105,0
0,61,68,0
0,58,68,0
0,64,68,0
0,68,68,0
0,44,92,480
0,60,108,13
0,60,108,31
0,42,104,48
0,60,96,47
0,44,32,282
0,44,72,80
0,62,100,5
0,41,96,0
0,53,68,0
0,59,68,0
0,63,68,0
0,67,68,0
0,59,84,85
0,71,84,273
0,44,32,0
0,83,80,23
0,44,92,0
0,71,56,78
0,79,1,44
0,41,97,33
0,44,32,400
0,44,72,15
0,40,104,0
0,65,68,0
0,62,68,0
0,56,68,0
0,60,68,0
0,60,112,0
0,44,32,308
0,44,92,80
0,39,106,0
0,61,68,0
0,59,68,0
0,65,68,0
0,55,68,0
0,44,92,0
0,63,80,18
0,77,80,2
0,78,76,21
0,77,56,4
0,62,92,3
0,76,28,4
0,75,84,11
0,61,100,19
0,74,72,24
0,60,100,3
0,38,109,0
0,57,68,0
0,60,68,0
0,54,68,0
0,64,68,0
0,73,72,33
0,59,84,18
0,60,100,131
0,61,84,109
0,44,32,4
0,44,72,80
0,62,96,12
0,73,36,117
0,74,84,7
0,75,108,2
0,38,111,0
0,57,68,0
0,60,68,0
0,54,68,0
0,63,68,0
0,76,80,7
0,77,84,113
0,78,108,108
0,44,32,24
0,79,104,13
0,44,92,2
0,62,104,7
0,80,92,6
0,64,88,21
0,81,88,84
0,59,88,10
0,82,92,5
0,58,88,42
0,43,108,0
0,64,68,0
0,62,68,0
0,59,68,0
0,57,68,0
0,83,80,3
0,57,82,29
0,55,68,0
0,62,68,0
0,57,68,0
0,59,68,0
0,44,48,3
0,86,80,2
0,60,68,0
0,58,68,0
0,56,68,0
0,64,68,0
0,83,72,5
0,38,112,5
0,60,68,0
0,58,68,0
0,56,68,0
0,62,68,0
0,87,88,37
0,88,92,34
0,86,80,38
0,44,76,27
0,81,84,60
0,64,68,0
0,59,68,0
0,57,68,0
0,86,72,12
0,43,108,19
0,83,76,19
0,59,68,0
0,57,68,0
0,62,68,0
0,55,68,0
0,57,108,0
0,55,88,80
0,54,108,77
0,38,48,0
0,44,76,0
0,55,92,2
0,57,96,40
0,58,76,40
0,54,68,0
0,59,80,0
0,62,92,77
0,64,100,77
0,38,108,28
0,66,100,0
0,67,100,77
0,69,100,77
0,55,68,0
0,65,68,0
0,67,100,0
0,66,93,77
0,44,56,0
0,62,82,77
0,44,104,40
0,82,84,11
0,81,100,9
0,39,68,0
0,79,56,21
0,40,84,0
0,41,100,0
0,62,100,10
0,39,92,30
0,42,108,0
0,54,68,0
0,58,68,0
0,60,68,0
0,64,68,0
0,68,68,0
0,59,46,0
0,71,104,1
0,40,74,2
0,59,47,0
0,75,68,125
0,78,100,92
0,42,106,12
0,59,51,0
0,77,84,107
0,76,64,4
0,40,74,5
0,59,52,0
0,75,80,23
0,44,100,3
0,39,32,40
0,73,97,10
0,41,109,0
0,53,68,0
0,57,68,0
0,59,68,0
0,63,68,0
0,67,68,0
0,59,59,0
0,74,80,1
0,70,96,4
0,40,74,10
0,59,57,0
0,69,84,41
0,74,80,12
0,41,100,30
0,59,60,0
0,73,108,5
0,72,96,11
0,71,92,11
0,70,96,19
0,39,36,23
0,69,100,1
0,68,88,4
0,67,100,21
0,40,74,34
0,59,52,0
0,66,68,10
0,65,84,10
0,64,92,15
0,40,92,47
0,65,88,0
0,41,92,0
0,66,44,7
0,64,108,19
0,72,88,0
0,42,100,0
0,61,68,0
0,58,68,0
0,64,68,0
0,68,68,0
0,67,92,0
0,59,62,0
0,71,96,20
0,72,100,17
0,59,65,17
0,70,52,176
0,67,80,1
0,39,36,38
0,42,100,23
0,40,74,0
0,59,60,0
0,72,92,6
0,59,52,360
0,74,92,7
0,44,92,5
0,41,104,0
0,53,68,0
0,59,68,0
0,63,68,0
0,67,68,0
0,59,58,0
0,71,91,5
0,59,58,135
0,71,68,91
0,83,108,5
0,39,64,5
0,83,88,7
0,41,100,23
0,40,74,0
0,59,60,0
0,83,108,36
0,71,100,1
0,51,64,47
0,71,88,28
0,53,62,120
0,71,72,11
0,83,100,55
0,41,100,24
0,39,97,0
0,60,106,17
0,40,99,0
0,65,68,0
0,62,68,0
0,56,68,0
0,60,68,0
0,59,52,0
0,72,97,22
0,40,74,12
0,59,50,0
0,39,84,20
0,39,90,0
0,61,68,0
0,59,68,0
0,65,68,0
0,55,68,0
0,59,48,0
0,40,74,360
0,59,46,0
0,74,87,0
0,39,81,0
0,72,96,0
0,41,88,0
0,38,64,40
0,71,104,70
0,38,101,0
0,57,68,0
0,60,68,0
0,54,68,0
0,64,68,0
0,59,55,0
0,74,104,1
0,62,95,175
0,59,52,164
0,83,48,8
0,38,68,0
0,78,88,2
0,74,120,0
0,88,84,0
0,38,106,0
0,57,68,0
0,60,68,0
0,54,68,0
0,63,68,0
0,39,84,0
0,59,60,0
0,86,96,45
0,38,68,0
0,81,92,54
0,39,92,0
0,59,56,0
0,74,88,10
0,38,92,18
0,39,80,0
0,71,92,58
0,40,92,0
0,70,100,43
0,43,100,0
0,55,46,0
0,69,100,6
0,82,100,83
0,83,68,35
0,86,72,8
0,50,72,67
0,57,72,0
0,55,72,0
0,62,72,0
0,40,74,0
0,59,50,0
0,81,104,6
0,59,84,120
0,52,84,0
0,57,84,0
0,64,84,0
0,80,84,23
0,79,96,52
0,78,100,0
0,38,104,0
0,50,80,0
0,57,80,0
0,55,80,0
0,62,80,0
0,59,48,0
0,81,76,120
0,59,84,0
0,52,84,0
0,57,84,0
0,64,84,0
0,62,90,14
0,38,100,0
0,50,68,0
0,57,68,0
0,55,68,0
0,62,68,0
0,40,74,0
0,59,44,0
0,76,88,16
0,66,100,0
0,67,92,47
0,59,84,72
0,52,84,0
0,57,84,0
0,64,84,0
0,69,96,0
0,67,92,39
0,66,92,57
0,62,92,57
0,43,100,0
0,59,52,0
0,74,76,1
0,50,60,84
0,57,60,0
0,55,60,0
0,62,60,0
0,40,74,0
0,59,50,0
0,71,80,53
0,59,80,67
0,52,80,0
0,57,80,0
0,64,80,0
0,74,84,5
0,75,100,61
0,76,96,4
0,78,104,0
0,38,104,0
0,50,72,0
0,57,72,0
0,55,72,0
0,62,72,0
0,59,49,0
0,51,49,8
0,62,96,2
0,79,96,6
0,81,100,3
0,59,80,0
0,52,80,0
0,57,80,0
0,64,80,0
0,53,50,23
0,78,100,45
0,67,94,20
0,38,104,0
0,59,52,0
0,76,92,0
0,71,92,5
0,51,46,25
0,78,84,0
0,38,100,0
0,74,97,5
0,53,47,14
0,40,103,0
0,77,92,5
0,77,84,0
0,37,104,0
0,55,59,0
0,42,76,20
0,51,76,0
0,58,76,0
0,43,78,0
0,52,78,0
0,59,78,0
0,59,60,0
0,44,75,0
0,53,75,0
0,60,75,0
0,37,105,0
0,59,52,0
0,68,76,11
0,70,88,124
0,69,104,33
0,59,60,105
0,68,112,13
0,76,86,18
0,75,91,36
0,78,97,145
0,36,106,17
0,59,68,0
0,51,86,15
0,61,86,0
0,65,86,0
0,50,88,75
0,60,88,0
0,64,88,0
0,49,84,95
0,59,84,0
0,63,84,0
0,40,66,0
0,59,62,0
0,48,76,120
0,58,76,0
0,62,76,0
0,38,80,72
0,38,100,80
0,36,104,3
0,59,55,0
0,39,108,40
0,77,96,15
0,66,84,1
0,78,95,3
0,40,66,5
0,59,56,0
0,65,88,1
0,77,72,6
0,78,69,2
0,77,78,39
0,78,83,17
0,77,76,39
0,78,83,35
0,77,86,0
0,67,76,1
0,35,104,0
0,49,84,0
0,57,84,0
0,61,84,0
0,68,84,0
0,38,96,0
0,59,53,0
0,40,66,93
0,59,60,0
0,67,88,113
0,50,60,46
0,69,96,6
0,49,88,30
0,70,108,23
0,48,88,28
0,71,104,12
0,35,105,35
0,38,92,0
0,59,60,0
0,47,72,10
0,72,80,7
0,73,84,6
0,74,84,15
0,75,108,0
0,76,84,7
0,77,108,12
0,40,66,12
0,59,52,0
0,77,88,12
0,75,81,83
0,78,93,5
0,34,106,0
0,56,101,0
0,58,101,0
0,62,101,0
0,70,101,0
0,38,76,0
0,59,57,0
0,80,112,150
0,40,66,0
0,59,50,0
0,67,76,107
0,52,76,0
0,60,76,0
0,75,44,0
0,66,84,15
0,51,84,12
0,59,84,0
0,65,84,4
0,50,84,9
0,58,84,0
0,46,80,14
0,49,80,0
0,57,80,0
0,64,80,0
0,78,100,38
0,34,104,0
0,38,60,0
0,59,60,0
0,50,82,360
0,56,82,0
0,58,82,0
0,65,82,0
0,40,66,0
0,59,52,0
0,77,104,10
0,82,108,2
0,81,88,14
0,78,104,32
0,80,104,4
0,79,100,7
0,78,108,0
0,33,104,0
0,45,92,0
0,38,96,0
0,59,54,0
0,77,100,1
0,77,112,9
0,56,93,15
0,58,93,0
0,62,93,0
0,66,93,0
0,73,93,0
0,40,66,0
0,59,48,0
0,63,92,0
0,55,91,0
0,57,91,0
0,61,91,0
0,65,91,0
0,69,91,0
0,33,104,27
0,38,92,0
0,59,53,0
0,75,112,11
0,77,92,10
0,73,100,142
0,40,66,113
0,59,52,0
0,75,108,15
0,77,98,18
0,72,92,1
0,75,94,74
0,73,100,20
0,78,101,1
0,32,100,0
0,44,96,0
0,50,93,0
0,54,78,0
0,57,96,0
0,38,76,0
0,59,57,0
0,74,92,12
0,44,92,0
0,46,92,0
0,58,92,0
0,40,66,0
0,59,58,0
0,32,104,0
0,47,92,0
0,59,92,0
0,38,92,0
0,59,60,0
0,48,76,40
0,60,76,0
0,49,76,0
0,61,76,0
0,50,88,160
0,62,88,0
0,40,66,0
0,59,52,0
0,77,96,1
0,37,100,0
0,80,96,0
0,38,76,0
0,51,55,0
0,58,91,18
0,60,91,0
0,68,91,0
0,75,91,0
0,87,116,0
0,40,66,0
0,59,61,0
0,56,80,0
0,58,80,0
0,66,80,0
0,73,80,0
0,80,112,0
0,37,104,4
0,53,91,0
0,56,91,0
0,65,91,0
0,72,91,0
0,38,84,0
0,59,60,0
0,51,90,120
0,54,90,0
0,63,90,0
0,70,90,0
0,59,60,0
0,59,64,35
0,49,86,40
0,53,86,0
0,61,86,0
0,68,86,0
0,59,54,0
0,78,80,13
0,77,92,1
0,48,86,14
0,51,86,0
0,60,86,0
0,66,86,0
0,53,69,0
0,78,124,2
0,80,100,0
0,37,100,0
0,48,94,0
0,49,94,0
0,58,94,0
0,65,94,0
0,59,71,0
0,75,112,12
0,47,95,0
0,48,95,0
0,57,95,0
0,64,95,0
0,46,92,63
0,47,92,0
0,56,92,0
0,63,92,0
0,45,92,77
0,46,92,0
0,55,92,0
0,62,92,0
0,43,97,65
0,47,97,0
0,55,97,0
0,61,97,0
0,51,64,0
0,73,112,1
0,75,88,9
0,73,88,25
0,72,88,6
0,59,48,29
0,53,48,9
0,71,96,1
0,70,88,66
0,59,59,3
0,69,92,3
0,59,52,13
0,68,84,36
0,59,48,18
0,59,64,8
0,67,84,6
0,59,67,40
0,66,92,0
0,59,67,35
0,59,69,0
0,65,92,8
0,64,84,3
0,63,72,3
0,62,72,103
0,60,68,0
0,42,98,0
0,54,68,0
0,58,68,0
0,60,68,0
0,64,68,0
0,68,68,0
0,40,66,0
0,38,111,5
0,40,66,0
0,78,89,5
0,39,56,40
0,60,97,80
0,39,52,32
0,61,93,60
0,42,101,0
0,40,66,0
0,62,100,81
0,38,111,254
0,40,66,0
0,74,100,16
0,39,84,3
0,71,97,17
0,41,103,0
0,53,68,0
0,57,68,0
0,59,68,0
0,63,68,0
0,67,68,0
0,40,66,0
0,38,111,55
0,40,66,0
0,92,48,15
0,92,100,75
0,41,104,13
0,40,66,0
0,39,56,15
0,92,44,2
0,92,80,36
0,85,100,141
0,38,111,5
0,40,66,0
0,39,84,40
0,87,104,6
0,40,92,0
0,86,84,46
0,41,96,0
0,39,76,40
0,42,109,0
0,61,68,0
0,58,68,0
0,64,68,0
0,68,68,0
0,40,66,0
0,72,100,8
0,84,100,9
0,38,111,3
0,40,66,0
0,39,52,40
0,42,100,120
0,38,111,0
0,39,96,0
0,38,111,40
0,39,72,120
0,38,111,80
0,40,74,0
0,74,90,0
0,39,84,32
0,41,108,0
0,53,68,0
0,59,68,0
0,63,68,0
0,67,68,0
0,38,111,0
0,40,74,0
0,71,89,91
0,39,84,9
0,40,74,49
0,80,120,35
0,77,100,49
0,74,84,35
0,71,100,34
0,41,105,30
0,38,111,0
0,40,74,0
0,83,116,39
0,40,74,360
0,41,84,23
0,60,95,66
0,42,100,0
0,72,99,112
0,77,92,0
0,40,105,0
0,65,68,0
0,62,68,0
0,56,68,0
0,60,68,0
0,38,111,0
0,40,74,0
0,39,84,9
0,40,74,63
0,69,48,265
0,39,108,0
0,61,68,0
0,59,68,0
0,65,68,0
0,55,68,0
0,38,111,0
0,40,74,0
0,75,76,3
0,74,84,128
0,40,74,229
0,73,96,2
0,74,91,9
0,39,92,55
0,72,93,21
0,41,92,0
0,71,92,0
0,72,92,0
0,38,111,0
0,57,68,0
0,60,68,0
0,54,68,0
0,64,68,0
0,40,74,0
0,74,89,72
0,62,89,0
0,59,58,7
0,51,36,35
0,72,76,21
0,73,68,15
0,74,92,36
0,75,96,0
0,38,104,0
0,57,68,0
0,60,68,0
0,54,68,0
0,63,68,0
0,53,51,0
0,59,58,120
0,74,100,0
0,73,100,15
0,62,96,8
0,38,88,29
0,74,100,7
0,74,95,44
0,40,96,0
0,69,93,95
0,79,100,0
0,43,103,0
0,43,68,0
0,62,60,240
0,66,60,3
0,57,60,0
0,59,58,4
0,39,64,5
0,40,74,4
0,74,84,75
0,81,108,0
0,62,60,4
0,66,60,1
0,57,60,0
0,59,58,4
0,79,68,11
0,38,101,19
0,59,51,0
0,62,60,88
0,66,60,3
0,57,60,0
0,59,58,4
0,62,93,5
0,39,104,2
0,66,84,11
0,67,100,35
0,69,92,3
0,39,104,0
0,67,88,43
0,62,60,17
0,66,60,3
0,57,60,0
0,59,58,4
0,66,92,30
0,39,55,28
0,62,88,28
0,66,88,4
0,43,103,0
0,59,77,20
0,62,60,214
0,66,60,3
0,57,60,0
0,59,58,4
0,39,76,103
