track,note,velocity,time
1,64,100,2864
1,61,100,0
1,69,100,0
1,69,100,364
1,64,100,0
1,61,100,0
1,69,100,364
1,64,100,0
1,61,100,0
1,69,100,364
1,61,100,0
1,64,100,0
1,59,100,364
1,68,100,0
1,64,100,0
1,59,100,364
1,68,100,0
1,64,100,0
1,64,100,364
1,68,100,0
1,59,100,0
1,59,100,364
1,64,100,0
1,68,100,0
1,57,100,364
1,62,100,0
1,66,100,0
1,57,100,364
1,66,100,0
1,62,100,0
1,64,100,364
1,68,100,0
1,59,100,0
1,59,100,364
1,64,100,0
1,68,100,0
1,69,100,364
1,64,100,0
1,61,100,0
1,69,100,364
1,64,100,0
1,61,100,0
1,69,100,364
1,64,100,0
1,61,100,0
1,69,100,364
1,64,100,0
1,61,100,0
1,64,100,364
1,61,100,0
1,69,100,0
1,69,100,364
1,64,100,0
1,61,100,0
1,69,100,364
1,64,100,0
1,61,100,0
1,69,100,364
1,61,100,0
1,64,100,0
1,59,100,364
1,68,100,0
1,64,100,0
1,59,100,364
1,68,100,0
1,64,100,0
1,64,100,364
1,68,100,0
1,59,100,0
1,59,100,364
1,64,100,0
1,68,100,0
1,57,100,364
1,62,100,0
1,66,100,0
1,57,100,364
1,66,100,0
1,62,100,0
1,64,100,364
1,68,100,0
1,59,100,0
1,59,100,364
1,64,100,0
1,68,100,0
1,69,100,364
1,64,100,0
1,61,100,0
1,69,100,364
1,64,100,0
1,61,100,0
1,69,100,364
1,64,100,0
1,61,100,0
1,69,100,364
1,64,100,0
1,61,100,0
1,64,100,364
1,61,100,0
1,69,100,0
1,69,100,364
1,64,100,0
1,61,100,0
1,69,100,364
1,64,100,0
1,61,100,0
1,69,100,364
1,61,100,0
1,64,100,0
1,59,100,364
1,68,100,0
1,64,100,0
1,59,100,364
1,68,100,0
1,64,100,0
1,64,100,364
1,68,100,0
1,59,100,0
1,59,100,364
1,64,100,0
1,68,100,0
1,57,100,364
1,62,100,0
1,66,100,0
1,57,100,364
1,66,100,0
1,62,100,0
1,64,100,364
1,68,100,0
1,59,100,0
1,59,100,364
1,64,100,0
1,68,100,0
1,69,100,364
1,64,100,0
1,61,100,0
1,69,100,364
1,64,100,0
1,61,100,0
1,69,100,364
1,64,100,0
1,61,100,0
1,69,100,364
1,64,100,0
1,61,100,0
1,64,100,364
1,61,100,0
1,69,100,0
1,69,100,364
1,64,100,0
1,61,100,0
1,69,100,364
1,64,100,0
1,61,100,0
1,69,100,364
1,61,100,0
1,64,100,0
1,59,100,364
1,68,100,0
1,64,100,0
1,59,100,364
1,68,100,0
1,64,100,0
1,64,100,364
1,68,100,0
1,59,100,0
1,59,100,364
1,64,100,0
1,68,100,0
1,38,53,172
1,26,54,0
1,57,100,30
1,62,100,0
1,66,100,0
1,57,100,364
1,66,100,0
1,62,100,0
1,38,52,0
1,26,46,0
1,28,52,52
1,40,48,0
1,64,100,74
1,68,100,0
1,59,100,0
1,28,42,364
1,40,47,0
1,59,100,0
1,64,100,0
1,68,100,0
1,69,100,326
1,64,100,0
1,61,100,0
1,69,100,364
1,64,100,0
1,61,100,0
1,69,100,364
1,64,100,0
1,61,100,0
1,69,100,364
1,64,100,0
1,61,100,0
1,64,100,364
1,61,100,0
1,69,100,0
1,69,100,364
1,64,100,0
1,61,100,0
1,69,100,364
1,64,100,0
1,61,100,0
1,69,100,364
1,61,100,0
1,64,100,0
1,59,100,364
1,68,100,0
1,64,100,0
1,59,100,364
1,68,100,0
1,64,100,0
1,64,100,364
1,68,100,0
1,59,100,0
1,59,100,364
1,64,100,0
1,68,100,0
1,57,100,364
1,62,100,0
1,66,100,0
1,57,100,364
1,66,100,0
1,62,100,0
1,68,100,172
1,64,100,0
1,59,100,0
1,64,100,2476
1,61,100,0
1,69,100,0
1,69,100,364
1,64,100,0
1,61,100,0
1,69,100,364
1,64,100,0
1,61,100,0
1,69,100,364
1,61,100,0
1,64,100,0
1,59,100,364
1,68,100,0
1,64,100,0
1,59,100,364
1,68,100,0
1,64,100,0
1,64,100,364
1,68,100,0
1,59,100,0
1,59,100,364
1,64,100,0
1,68,100,0
1,57,100,364
1,62,100,0
1,66,100,0
1,57,100,364
1,66,100,0
1,62,100,0
1,64,100,364
1,68,100,0
1,59,100,0
1,59,100,364
1,64,100,0
1,68,100,0
1,69,100,364
1,64,100,0
1,61,100,0
1,69,100,364
1,64,100,0
1,61,100,0
1,69,100,364
1,64,100,0
1,61,100,0
1,69,100,364
1,64,100,0
1,61,100,0
1,64,100,364
1,61,100,0
1,69,100,0
1,69,100,364
1,64,100,0
1,61,100,0
1,69,100,364
1,64,100,0
1,61,100,0
1,69,100,364
1,61,100,0
1,64,100,0
1,59,100,364
1,68,100,0
1,64,100,0
1,59,100,364
1,68,100,0
1,64,100,0
1,64,100,364
1,68,100,0
1,59,100,0
1,59,100,364
1,64,100,0
1,68,100,0
1,57,100,364
1,62,100,0
1,66,100,0
1,57,100,364
1,66,100,0
1,62,100,0
1,64,100,364
1,68,100,0
1,59,100,0
1,59,100,364
1,64,100,0
1,68,100,0
1,69,100,364
1,64,100,0
1,61,100,0
1,69,100,364
1,64,100,0
1,61,100,0
1,69,100,364
1,64,100,0
1,61,100,0
1,69,100,364
1,64,100,0
1,61,100,0
1,57,100,364
1,66,100,0
1,62,100,0
1,66,100,364
1,57,100,0
1,62,100,0
1,57,100,364
1,62,100,0
1,66,100,0
1,62,100,364
1,57,100,0
1,66,100,0
1,59,100,364
1,64,100,0
1,68,100,0
1,59,100,364
1,64,100,0
1,68,100,0
1,59,100,364
1,64,100,0
1,68,100,0
1,59,100,364
1,64,100,0
1,68,100,0
1,66,100,364
1,62,100,0
1,57,100,0
1,62,100,364
1,57,100,0
1,66,100,0
1,66,100,364
1,62,100,0
1,57,100,0
1,62,100,364
1,57,100,0
1,66,100,0
1,68,100,364
1,64,100,0
1,59,100,0
1,59,100,364
1,64,100,0
1,68,100,0
1,64,100,1132
1,61,100,0
1,69,100,0
1,69,100,364
1,64,100,0
1,61,100,0
1,69,100,364
1,64,100,0
1,61,100,0
1,69,100,364
1,61,100,0
1,64,100,0
1,59,100,364
1,68,100,0
1,64,100,0
1,59,100,364
1,68,100,0
1,64,100,0
1,64,100,364
1,68,100,0
1,59,100,0
1,59,100,364
1,64,100,0
1,68,100,0
1,57,100,364
1,62,100,0
1,66,100,0
1,57,100,364
1,66,100,0
1,62,100,0
1,64,100,364
1,68,100,0
1,59,100,0
1,59,100,364
1,64,100,0
1,68,100,0
1,69,100,364
1,64,100,0
1,61,100,0
1,69,100,364
1,64,100,0
1,61,100,0
1,69,100,364
1,64,100,0
1,61,100,0
1,69,100,364
1,64,100,0
1,61,100,0
1,64,100,364
1,61,100,0
1,69,100,0
1,69,100,364
1,64,100,0
1,61,100,0
1,69,100,364
1,64,100,0
1,61,100,0
1,69,100,364
1,61,100,0
1,64,100,0
1,59,100,364
1,68,100,0
1,64,100,0
1,59,100,364
1,68,100,0
1,64,100,0
1,64,100,364
1,68,100,0
1,59,100,0
1,59,100,364
1,64,100,0
1,68,100,0
1,38,53,172
1,26,54,0
1,57,100,30
1,62,100,0
1,66,100,0
1,57,100,364
1,66,100,0
1,62,100,0
1,38,52,0
1,26,46,0
1,28,52,52
1,40,48,0
1,64,100,74
1,68,100,0
1,59,100,0
1,28,42,364
1,40,47,0
1,59,100,0
1,64,100,0
1,68,100,0
1,69,100,326
1,64,100,0
1,61,100,0
1,69,100,364
1,64,100,0
1,61,100,0
1,69,100,364
1,64,100,0
1,61,100,0
1,69,100,364
1,64,100,0
1,61,100,0
1,64,100,364
1,61,100,0
1,69,100,0
1,69,100,364
1,64,100,0
1,61,100,0
1,69,100,364
1,64,100,0
1,61,100,0
1,69,100,364
1,61,100,0
1,64,100,0
1,59,100,364
1,68,100,0
1,64,100,0
1,59,100,364
1,68,100,0
1,64,100,0
1,64,100,364
1,68,100,0
1,59,100,0
1,59,100,364
1,64,100,0
1,68,100,0
1,57,100,364
1,62,100,0
1,66,100,0
1,57,100,364
1,66,100,0
1,62,100,0
1,64,100,364
1,68,100,0
1,59,100,0
1,59,100,364
1,64,100,0
1,68,100,0
1,69,100,364
1,64,100,0
1,61,100,0
1,69,100,364
1,64,100,0
1,61,100,0
1,64,100,1132
1,61,100,0
1,69,100,0
1,69,100,364
1,64,100,0
1,61,100,0
1,69,100,364
1,64,100,0
1,61,100,0
1,69,100,364
1,61,100,0
1,64,100,0
1,59,100,364
1,68,100,0
1,64,100,0
1,59,100,364
1,68,100,0
1,64,100,0
1,64,100,364
1,68,100,0
1,59,100,0
1,59,100,364
1,64,100,0
1,68,100,0
1,57,100,364
1,62,100,0
1,66,100,0
1,57,100,364
1,66,100,0
1,62,100,0
1,64,100,364
1,68,100,0
1,59,100,0
1,59,100,364
1,64,100,0
1,68,100,0
1,69,100,364
1,64,100,0
1,61,100,0
1,69,100,364
1,64,100,0
1,61,100,0
1,69,100,364
1,64,100,0
1,61,100,0
1,69,100,364
1,64,100,0
1,61,100,0
1,64,100,364
1,61,100,0
1,69,100,0
1,69,100,364
1,64,100,0
1,61,100,0
1,69,100,364
1,64,100,0
1,61,100,0
1,69,100,364
1,61,100,0
1,64,100,0
1,59,100,364
1,68,100,0
1,64,100,0
1,59,100,364
1,68,100,0
1,64,100,0
1,64,100,364
1,68,100,0
1,59,100,0
1,59,100,364
1,64,100,0
1,68,100,0
1,57,100,364
1,62,100,0
1,66,100,0
1,57,100,364
1,66,100,0
1,62,100,0
1,64,100,364
1,68,100,0
1,59,100,0
1,59,100,364
1,64,100,0
1,68,100,0
1,69,100,364
1,64,100,0
1,61,100,0
1,69,100,364
1,64,100,0
1,61,100,0
1,69,100,364
1,64,100,0
1,61,100,0
1,69,100,364
1,64,100,0
1,61,100,0
1,33,46,172
1,64,100,58
1,61,100,0
1,69,100,0
1,69,100,364
1,64,100,0
1,61,100,0
1,69,100,364
1,64,100,0
1,61,100,0
1,69,100,364
1,61,100,0
1,64,100,0
1,28,49,172
1,59,100,54
1,68,100,0
1,64,100,0
1,59,100,364
1,68,100,0
1,64,100,0
1,64,100,364
1,68,100,0
1,59,100,0
1,59,100,364
1,64,100,0
1,68,100,0
1,26,51,172
1,57,88,0
1,54,62,0
1,62,78,0
1,28,58,650
1,56,68,0
1,59,86,0
1,64,73,0
1,57,76,648
1,64,79,0
1,61,89,0
1,33,52,0
1,64,83,202
1,61,89,0
1,57,83,0
1,64,86,200
1,57,83,0
1,61,89,0
1,57,100,1078
1,66,100,0
1,62,100,0
1,66,100,364
1,57,100,0
1,62,100,0
1,57,100,364
1,62,100,0
1,66,100,0
1,62,100,364
1,57,100,0
1,66,100,0
1,59,100,364
1,64,100,0
1,68,100,0
1,59,100,364
1,64,100,0
1,68,100,0
1,59,100,364
1,64,100,0
1,68,100,0
1,59,100,364
1,64,100,0
1,68,100,0
1,66,100,364
1,62,100,0
1,57,100,0
1,62,100,364
1,57,100,0
1,66,100,0
1,66,100,364
1,62,100,0
1,57,100,0
1,62,100,364
1,57,100,0
1,66,100,0
1,68,100,364
1,64,100,0
1,59,100,0
1,59,100,364
1,64,100,0
1,68,100,0
1,64,100,1132
1,61,100,0
1,69,100,0
1,69,100,364
1,64,100,0
1,61,100,0
1,69,100,364
1,64,100,0
1,61,100,0
1,69,100,364
1,61,100,0
1,64,100,0
1,59,100,364
1,68,100,0
1,64,100,0
1,59,100,364
1,68,100,0
1,64,100,0
1,64,100,364
1,68,100,0
1,59,100,0
1,59,100,364
1,64,100,0
1,68,100,0
1,57,100,364
1,62,100,0
1,66,100,0
1,57,100,364
1,66,100,0
1,62,100,0
1,64,100,364
1,68,100,0
1,59,100,0
1,59,100,364
1,64,100,0
1,68,100,0
1,69,100,364
1,64,100,0
1,61,100,0
1,69,100,364
1,64,100,0
1,61,100,0
1,69,100,364
1,64,100,0
1,61,100,0
1,69,100,364
1,64,100,0
1,61,100,0
1,64,100,364
1,61,100,0
1,69,100,0
1,69,100,364
1,64,100,0
1,61,100,0
1,69,100,364
1,64,100,0
1,61,100,0
1,69,100,364
1,61,100,0
1,64,100,0
1,59,100,364
1,68,100,0
1,64,100,0
1,59,100,364
1,68,100,0
1,64,100,0
1,64,100,364
1,68,100,0
1,59,100,0
1,59,100,364
1,64,100,0
1,68,100,0
1,57,100,364
1,62,100,0
1,66,100,0
1,57,100,364
1,66,100,0
1,62,100,0
1,64,100,364
1,68,100,0
1,59,100,0
1,59,100,364
1,64,100,0
1,68,100,0
1,69,100,364
1,64,100,0
1,61,100,0
1,69,100,364
1,64,100,0
1,61,100,0
1,69,100,364
1,64,100,0
1,61,100,0
1,69,100,364
1,64,100,0
1,61,100,0
1,57,100,364
1,62,100,0
1,66,100,0
1,57,100,364
1,66,100,0
1,62,100,0
1,64,100,364
1,68,100,0
1,59,100,0
1,59,100,364
1,64,100,0
1,68,100,0
1,69,100,364
1,64,100,0
1,61,100,0
1,69,100,364
1,64,100,0
1,61,100,0
1,69,100,364
1,64,100,0
1,61,100,0
1,69,100,364
1,64,100,0
1,61,100,0
1,57,100,364
1,62,100,0
1,66,100,0
1,57,100,364
1,66,100,0
1,62,100,0
1,64,100,364
1,68,100,0
1,59,100,0
1,59,100,364
1,64,100,0
1,68,100,0
2,33,94,2652
2,28,82,70
2,33,101,78
2,28,60,64
2,35,78,80
2,33,104,0
2,33,90,76
2,28,78,62
2,33,99,72
2,33,85,68
2,28,97,34
2,28,86,64
2,28,92,70
2,28,72,60
2,28,97,72
2,28,101,100
2,28,80,64
2,28,92,74
2,28,85,60
2,26,90,24
2,26,88,58
2,26,80,74
2,26,83,66
2,26,90,72
2,28,97,84
2,28,97,182
2,28,97,68
2,33,97,32
2,28,86,70
2,33,92,78
2,28,83,68
2,33,99,72
2,33,60,50
2,28,78,60
2,33,101,58
2,33,66,74
2,28,83,52
2,32,96,36
2,33,94,52
2,28,82,70
2,33,101,78
2,28,60,64
2,35,78,80
2,33,104,0
2,33,90,76
2,28,78,62
2,33,99,72
2,33,85,68
2,28,97,34
2,28,86,64
2,28,92,70
2,28,72,60
2,28,97,72
2,28,101,100
2,28,80,64
2,28,92,74
2,28,85,60
2,26,90,24
2,26,88,58
2,26,80,74
2,26,83,66
2,26,90,72
2,28,97,84
2,28,97,182
2,28,97,68
2,33,97,32
2,28,86,70
2,33,92,78
2,28,83,68
2,33,99,72
2,33,60,50
2,28,78,60
2,33,101,58
2,33,66,74
2,28,83,52
2,32,96,36
2,33,94,52
2,28,82,70
2,33,101,78
2,28,60,64
2,35,78,80
2,33,104,0
2,33,90,76
2,28,78,62
2,33,99,72
2,33,85,68
2,28,97,34
2,28,86,64
2,28,92,70
2,28,72,60
2,28,97,72
2,28,101,100
2,28,80,64
2,28,92,74
2,28,85,60
2,26,90,24
2,26,88,58
2,26,80,74
2,26,83,66
2,26,90,72
2,28,97,84
2,28,97,182
2,28,97,68
2,33,97,32
2,28,86,70
2,33,92,78
2,28,83,68
2,33,99,72
2,33,60,50
2,28,78,60
2,33,101,58
2,33,66,74
2,28,83,52
2,32,96,36
2,33,94,52
2,28,82,70
2,33,101,78
2,28,60,64
2,35,78,80
2,33,104,0
2,33,90,76
2,28,78,62
2,33,99,72
2,33,85,68
2,28,97,34
2,28,86,64
2,28,92,70
2,28,72,60
2,28,97,72
2,28,101,100
2,28,80,64
2,28,92,74
2,28,85,60
2,26,90,24
2,26,88,58
2,26,80,74
2,26,83,66
2,26,90,72
2,28,97,84
2,28,97,182
2,28,97,68
2,33,97,32
2,28,86,70
2,33,92,78
2,28,83,68
2,33,99,72
2,33,60,50
2,28,78,60
2,33,101,58
2,33,66,74
2,28,83,52
2,32,96,36
2,33,94,52
2,33,73,30
2,30,84,96
2,33,78,78
2,33,94,5700
2,28,82,70
2,33,101,78
2,28,60,64
2,35,78,80
2,33,104,0
2,33,90,76
2,28,78,62
2,33,99,72
2,33,85,68
2,28,97,34
2,28,86,64
2,28,92,70
