track,note,velocity,time
1,60,127,14208
1,60,127,114
1,61,104,26
1,56,94,80
1,58,94,10
1,56,104,68
1,56,86,128
1,53,104,68
1,53,104,88
1,56,104,24
1,58,104,68
1,60,94,64
1,56,94,90
1,58,94,0
1,53,94,12
1,53,104,22
1,60,115,456
1,60,115,228
1,61,115,92
1,56,104,136
1,58,86,14
1,56,104,288
1,56,104,470
1,54,86,192
1,54,115,164
1,53,94,28
1,53,115,124
1,56,104,166
1,58,104,82
1,56,104,96
1,60,104,110
1,59,73,0
1,58,94,0
1,56,73,220
1,58,104,0
1,53,104,38
1,53,115,32
1,61,104,708
1,61,115,118
1,63,94,82
1,56,104,106
1,58,94,26
1,56,104,288
1,61,115,412
1,61,115,116
1,63,104,576
1,56,115,108
1,58,86,18
1,56,104,288
1,58,104,90
1,60,86,82
1,61,115,114
1,58,104,6
1,61,127,130
1,63,115,54
1,65,115,130
1,61,115,400
1,68,115,102
1,68,104,94
1,66,115,104
1,66,94,76
1,65,104,16
1,63,104,8
1,61,115,84
1,63,115,52
1,65,115,154
1,66,115,82
1,63,127,74
1,56,104,136
1,58,94,32
1,61,104,46
1,70,115,122
1,65,94,144
1,64,104,0
1,61,115,48
1,68,127,1914
1,65,115,146
1,61,127,208
1,58,104,194
1,56,104,0
1,56,94,58
1,56,104,76
1,58,104,76
1,61,104,84
1,70,104,126
1,65,94,114
1,64,115,0
1,61,115,38
1,58,104,1442
1,61,104,54
1,66,115,82
1,65,115,94
1,63,104,76
1,65,104,14
1,65,79,108
1,63,104,0
1,63,104,30
1,63,104,328
1,58,94,16
1,61,104,84
1,68,115,360
1,65,115,26
1,61,115,66
1,58,104,46
1,56,104,48
1,56,115,174
1,54,104,44
1,54,104,38
1,53,104,96
1,53,115,110
1,56,104,70
1,58,104,54
1,60,104,128
1,59,86,0
1,56,86,528
1,58,79,0
1,53,115,12
1,53,104,122
1,65,127,468
1,65,115,88
1,66,104,62
1,68,115,118
1,65,86,142
1,63,115,192
1,63,115,120
1,65,86,120
1,63,104,0
1,63,115,86
1,65,115,390
1,70,104,178
1,65,104,148
1,63,104,96
1,65,115,16
1,63,104,8
1,61,115,12
1,65,104,404
1,68,104,102
1,65,73,42
1,65,104,150
1,63,104,128
1,61,104,12
1,58,94,538
1,61,115,124
1,61,127,112
1,61,104,116
1,66,115,112
1,65,86,68
1,61,115,80
1,61,115,148
1,58,104,60
1,61,115,122
1,63,115,86
1,65,127,152
1,63,104,410
1,68,115,112
1,68,115,90
1,66,115,102
1,66,104,102
1,64,86,40
1,65,115,0
1,63,115,34
1,61,127,192
1,58,104,28
1,63,104,550
1,63,115,138
1,65,115,92
1,66,104,82
1,68,115,96
1,56,94,186
1,58,104,26
1,61,115,52
1,70,104,124
1,68,104,0
1,65,104,124
1,64,115,0
1,61,115,36
1,68,104,1898
1,64,94,154
1,65,115,0
1,61,127,164
1,58,115,132
1,56,94,0
1,56,115,36
1,56,115,110
1,58,104,54
1,61,115,84
1,70,115,112
1,68,94,0
1,65,104,130
1,61,127,62
1,58,104,1364
1,61,115,70
1,66,115,76
1,64,94,102
1,65,104,0
1,63,127,60
1,65,115,6
1,65,73,90
1,63,104,0
1,63,115,36
1,58,127,912
1,61,115,82
1,63,115,76
1,61,115,66
1,65,104,84
1,64,104,0
1,58,115,224
1,61,115,164
1,63,115,40
1,56,104,38
1,58,104,26
1,63,115,210
1,61,115,38
1,61,104,102
1,63,104,102
1,61,115,22
1,70,127,118
1,65,104,170
1,64,104,0
1,61,104,28
1,61,115,102
1,63,115,68
1,61,104,36
1,70,127,110
1,65,127,174
1,65,115,82
1,61,115,154
1,63,115,20
1,63,127,98
1,68,115,6614
1,70,127,100
1,68,115,22
1,73,115,120
1,70,115,256
1,68,115,0
1,68,127,38
1,68,127,274
1,70,127,116
1,68,115,20
1,73,127,130
1,70,104,56
1,68,104,0
1,68,115,56
1,68,115,6484
1,71,26,112
1,70,127,0
1,68,115,88
1,73,115,116
1,70,94,248
1,68,104,0
1,68,115,28
1,68,115,264
1,70,127,90
1,68,104,6
1,74,127,122
1,69,115,26
1,57,79,28
1,71,127,20
1,59,104,8
1,69,127,44
1,62,115,4
1,71,127,8
1,66,104,250
1,64,94,0
1,62,104,66
1,59,115,96
1,62,115,34
1,66,115,160
1,64,115,0
1,64,127,36
1,62,127,192
1,71,127,852
1,69,127,0
1,69,115,130
1,71,127,0
1,69,127,92
1,66,115,96
1,69,115,288
1,71,115,0
1,69,127,112
1,69,115,128
1,66,115,96
1,64,127,454
1,62,127,30
1,67,127,728
1,67,115,98
1,69,127,108
1,67,127,134
1,66,115,70
1,64,127,36
1,57,104,20
1,59,115,40
1,62,115,54
1,71,115,102
1,66,104,156
1,64,104,0
1,62,127,78
1,66,104,144
1,64,115,0
1,64,94,2
1,62,115,12
1,62,55,576
1,69,127,576
1,66,104,162
1,64,94,0
1,66,41,8
1,62,127,182
1,59,104,106
1,57,94,0
1,57,115,38
1,57,115,106
1,59,115,28
1,62,104,34
1,71,127,92
1,66,115,120
1,64,79,0
1,64,104,88
1,62,115,96
1,59,104,84
1,62,127,20
1,67,127,1096
1,66,115,88
1,64,115,72
1,66,115,58
1,66,104,92
1,64,115,0
1,64,127,0
1,71,127,198
1,69,104,0
1,71,104,50
1,69,115,0
1,69,127,190
1,66,104,24
1,71,115,544
1,69,115,0
1,69,115,10
1,69,104,52
1,66,104,18
1,69,127,1992
1,69,127,160
1,69,127,132
1,66,115,58
1,67,115,100
1,69,94,8
1,66,104,180
1,69,94,30
1,66,104,96
1,71,115,296
1,69,115,0
1,69,104,94
1,67,115,192
1,66,127,20
1,64,127,96
1,62,115,26
1,64,86,72
1,67,127,878
1,66,115,58
1,64,127,102
1,66,104,36
1,66,94,108
1,64,127,0
1,64,115,66
2,27,104,1536
2,27,86,490
2,27,104,60
2,27,68,506
2,34,127,96
2,34,94,514
2,46,104,28
2,41,104,288
2,34,104,24
2,32,34,288
2,31,55,0
2,27,94,16
2,27,63,480
2,27,104,74
2,27,63,508
2,34,115,96
2,37,104,400
2,38,115,64
2,27,59,288
2,39,127,10
2,34,104,20
2,27,86,96
2,27,55,354
2,27,94,44
2,27,55,540
2,34,127,96
2,34,115,416
2,37,68,10
2,32,94,60
2,37,104,14
2,39,73,6
2,32,115,192
2,32,104,174
2,27,63,240
2,32,104,2
2,32,104,116
2,32,86,82
2,34,104,6
2,37,104,26
2,34,47,0
2,39,104,2
2,27,104,192
2,30,115,564
2,31,115,20
2,32,127,0
2,27,79,528
2,32,115,34
2,33,115,22
2,34,127,6
2,29,86,528
2,34,115,16
2,29,86,574
2,34,115,12
2,37,104,440
2,39,104,30
2,34,127,96
2,34,104,162
2,37,127,40
2,39,104,10
2,27,115,2
2,30,104,570
2,31,115,28
2,32,115,24
2,27,79,526
2,32,115,28
2,33,115,24
2,34,115,10
2,29,86,504
2,34,115,16
2,34,59,516
2,46,104,24
2,41,86,576
2,32,68,44
2,34,115,6
2,37,104,14
2,34,115,20
2,32,115,110
2,34,115,20
2,32,104,96
2,30,115,84
2,30,104,276
2,30,104,68
2,29,127,324
2,29,115,266
2,29,127,58
2,35,115,204
2,35,127,216
2,35,127,52
2,32,115,140
2,32,115,88
2,32,94,88
2,32,104,90
2,32,94,48
2,39,127,50
2,41,127,76
2,39,44,192
2,42,115,28
2,39,115,2118
2,41,127,40
2,42,127,130
2,42,47,288
2,43,115,90
2,44,127,0
2,39,79,864
2,32,127,30
2,27,104,158
2,27,86,490
2,27,104,60
2,27,68,506
2,34,127,96
2,34,94,514
2,46,104,28
2,41,104,288
2,34,104,24
2,32,34,288
2,31,55,0
2,27,94,16
2,27,63,480
2,27,104,74
2,27,63,508
2,34,115,96
2,37,104,400
2,38,115,64
2,27,59,288
2,39,127,10
2,34,104,20
2,27,86,96
2,27,55,354
2,27,94,44
2,27,55,540
2,34,127,96
2,34,115,416
2,37,68,10
2,32,94,60
2,37,104,14
2,39,73,6
2,32,115,192
2,32,104,174
2,27,63,240
2,32,104,2
2,32,104,116
2,32,86,82
2,34,104,6
2,37,104,26
2,34,47,0
2,39,104,2
2,27,115,192
2,30,104,568
2,31,104,6
2,32,115,2
2,27,94,476
2,32,115,20
2,33,104,28
2,34,115,8
2,29,79,532
2,34,127,30
2,34,44,12
2,29,86,564
2,34,127,12
2,29,55,552
2,46,104,56
2,44,115,0
2,44,104,42
2,42,115,10
2,41,104,32
2,39,127,192
2,30,94,610
2,31,94,20
2,32,115,18
2,27,73,522
2,32,104,96
2,33,104,14
2,34,115,32
2,29,86,548
2,34,115,8
2,34,86,514
2,46,115,42
2,41,104,672
2,34,115,12
2,30,30,158
2,32,115,0
2,34,115,4
2,32,115,12
2,30,115,10
2,30,104,276
2,30,104,68
2,29,127,324
2,29,115,266
2,29,127,58
2,35,115,204
2,35,127,216
2,35,127,52
2,32,115,140
2,32,115,88
2,32,94,88
2,32,104,90
2,32,94,48
2,39,127,50
2,41,127,76
2,39,44,192
2,42,115,28
2,39,115,2118
2,41,127,40
2,42,127,130
2,42,47,288
2,43,115,90
2,44,127,0
2,39,79,864
2,32,127,30
2,27,104,158
2,27,86,490
2,27,104,60
2,27,68,506
2,34,127,96
2,34,94,514
2,46,104,28
2,41,104,288
2,34,104,24
2,32,34,288
2,31,55,0
2,27,94,16
2,27,63,480
2,27,104,74
2,27,63,508
2,34,115,96
2,37,104,400
2,38,115,64
2,27,59,288
2,39,127,10
2,34,104,20
2,27,86,96
2,27,55,354
2,27,94,44
2,27,55,540
2,34,127,96
2,34,115,416
2,37,68,10
2,32,94,60
2,37,104,14
2,39,73,6
2,32,115,192
2,32,104,174
2,27,63,240
2,32,104,2
2,32,104,116
2,32,86,82
2,34,104,6
2,37,104,26
2,34,47,0
2,39,104,2
2,34,127,192
2,29,86,502
2,34,127,96
2,41,79,424
2,34,104,66
2,49,115,44
2,48,127,94
2,46,127,130
2,34,86,192
2,46,115,46
2,41,104,6
2,32,68,0
2,34,127,34
2,32,44,288
2,31,79,0
2,30,94,0
2,27,104,32
2,27,63,496
2,27,104,52
2,47,104,216
2,53,115,0
2,30,127,74
2,30,94,256
2,42,115,48
2,37,86,8
2,30,115,16
2,29,127,56
2,29,104,260
2,29,115,58
2,29,104,62
2,41,115,2
2,36,104,192
2,33,79,24
2,35,115,96
2,35,115,250
2,35,115,50
2,31,94,258
2,32,115,8
2,32,104,96
2,32,86,70
2,44,104,50
2,44,104,80
2,44,115,106
2,39,115,94
2,34,86,18
2,27,127,96
2,27,127,492
2,27,127,44
2,29,55,530
2,34,127,46
2,34,55,482
2,34,115,0
2,46,115,82
2,41,104,288
2,34,127,30
2,30,94,288
2,26,104,34
2,27,127,0
2,27,104,514
2,27,115,54
2,32,94,526
2,34,127,2
2,34,55,384
2,35,115,0
2,37,115,174
2,32,79,288
2,38,127,24
2,34,94,0
2,39,104,24
2,34,104,96
2,27,115,32
2,31,115,90
2,31,68,78
2,27,104,180
2,27,115,48
2,32,94,544
2,34,127,50
2,36,127,60
2,37,127,74
2,41,94,2688
2,41,104,166
2,37,115,70
2,44,127,14
2,46,104,192
2,32,115,74
2,27,26,0
2,27,115,56
2,27,104,538
2,27,115,60
2,32,94,526
2,34,127,36
2,34,104,468
2,34,44,52
2,46,94,84
2,34,44,126
2,34,79,0
2,41,127,84
2,39,104,192
2,34,115,32
2,27,94,96
2,27,104,520
2,27,104,48
2,32,104,520
2,34,115,24
2,37,127,414
2,34,94,6
2,38,127,48
2,27,73,10
2,39,104,8
2,34,104,2
2,27,127,18
2,39,115,156
2,27,104,168
2,27,115,50
2,34,127,644
2,36,127,62
2,37,127,82
2,38,127,144
2,28,104,136
2,28,86,538
2,28,104,36
2,28,68,482
2,35,127,44
2,35,94,490
2,47,104,4
2,42,104,288
2,35,104,72
2,33,34,288
2,32,55,0
2,28,94,8
2,28,63,456
2,28,104,122
2,28,63,484
2,35,115,72
2,38,104,400
2,39,115,64
2,28,59,288
2,40,127,58
2,35,104,72
2,28,86,68
2,28,55,378
2,28,94,20
2,28,55,588
2,35,127,72
2,35,115,416
2,38,68,360
2,33,94,108
2,38,104,72
2,40,73,30
2,33,115,144
2,33,104,174
2,28,63,240
2,33,104,50
2,33,104,116
2,33,86,82
2,35,104,72
2,38,104,50
2,35,47,0
2,40,104,132
2,28,104,146
2,28,86,538
2,28,104,36
2,28,68,482
2,35,127,44
2,35,94,490
2,47,104,4
2,42,104,288
2,35,104,72
2,33,34,288
2,32,55,0
2,28,94,8
2,28,63,456
2,28,104,122
2,28,63,484
2,35,115,72
2,38,104,400
2,39,115,64
2,28,59,288
2,40,127,58
2,35,104,72
2,28,86,68
2,28,55,378
2,28,94,20
2,28,55,588
2,35,127,72
2,35,115,416
2,38,68,360
2,33,94,108
2,38,104,72
2,40,73,30
2,33,115,144
2,33,104,174
2,28,63,240
2,33,104,50
2,33,104,116
2,33,86,82
2,35,104,72
2,38,104,50
2,35,47,0
2,40,104,132
2,28,104,146
2,28,86,538
2,28,104,36
2,28,68,482
2,35,127,44
2,35,94,490
2,47,104,4
2,42,104,288
2,35,104,72
2,33,34,288
2,32,55,0
2,28,94,8
2,28,63,456
2,28,104,122
2,28,63,484
2,35,115,72
2,38,104,400
2,39,115,64
2,28,59,288
2,40,127,58
2,35,104,72
2,28,86,68
2,28,55,378
2,28,94,20
2,28,55,588
2,35,127,72
2,35,115,416
2,38,68,360
2,33,94,108
2,38,104,72
2,40,73,30
2,33,115,144
2,33,104,174
2,28,63,240
2,33,104,50
2,33,104,116
2,33,86,82
2,35,104,72
2,38,104,50
2,35,47,0
2,40,104,132
2,28,104,146
3,58,38,13728
3,70,38,0
3,54,55,0
3,61,73,96
3,65,59,0
3,73,31,96
3,70,68,92
3,65,63,72
3,73,13,288
3,77,68,48
3,73,51,2
3,70,68,216
3,61,63,0
3,66,44,0
3,73,51,0
3,58,59,0
3,54,63,0
3,63,55,0
3,66,36,48
3,66,32,68
3,63,44,142
3,66,41,192
3,70,27,0
3,75,36,126
3,73,55,0
3,63,38,0
3,56,41,68
3,72,73,0
3,65,68,0
3,60,13,40
3,68,18,192
3,63,68,0
3,75,13,104
3,68,38,0
3,65,44,78
3,72,79,192
3,65,51,62
3,80,73,192
3,75,55,192
3,60,73,322
3,63,25,36
3,73,55,2
3,77,79,220
3,61,59,0
3,65,68,0
3,58,31,0
3,54,29,0
3,70,32,26
3,54,41,154
3,58,44,192
3,61,79,94
3,70,13,0
3,58,29,132
3,61,68,12
3,66,38,0
3,63,63,0
3,54,68,0
3,58,51,0
3,73,55,0
3,70,59,0
3,63,59,28
3,66,41,14
3,70,55,72
3,75,55,0
3,66,19,0
3,58,29,56
3,73,68,4
3,63,44,0
3,60,59,198
3,65,44,0
3,63,55,0
3,68,34,0
3,56,44,0
3,72,73,0
3,65,55,48
3,68,31,22
3,72,63,384
3,60,73,2
3,80,94,346
3,78,90,384
3,65,47,132
3,77,86,0
3,63,55,0
3,65,79,86
3,75,79,0
3,54,36,56
3,58,34,20
3,65,73,96
3,61,55,0
3,77,79,0
3,70,51,0
3,54,51,0
3,73,55,0
3,65,59,34
3,58,33,384
3,70,68,10
3,61,68,146
3,73,68,0
3,75,63,84
3,72,51,100
3,75,33,0
3,53,68,0
3,60,63,0
3,56,44,0
3,63,38,0
3,68,44,72
3,63,59,18
3,72,73,192
3,73,68,44
3,63,44,192
3,72,86,0
3,75,31,224
3,66,55,0
3,58,47,0
3,70,68,0
3,63,41,0
3,54,33,0
3,75,33,36
3,66,47,66
3,63,51,174
3,66,55,118
3,58,29,52
3,66,24,0
3,63,55,0
3,70,73,0
3,75,59,46
3,66,59,92
3,70,63,0
3,73,68,0
3,54,59,0
3,61,51,0
3,58,47,0
3,73,17,60
3,66,59,0
3,61,63,0
3,54,59,0
3,66,68,96
3,58,59,0
3,66,34,74
3,70,68,0
3,73,47,0
3,61,79,68
3,66,86,0
3,70,59,0
3,75,59,0
3,51,31,100
