track,note,velocity,time
0,1,1,0
0,1,1,0
0,64,127,772
0,63,127,188
0,64,127,20
0,63,127,192
0,64,127,20
0,42,87,28
0,60,127,4
0,42,50,132
0,42,68,40
0,71,127,24
0,42,83,56
0,72,127,4
0,71,127,44
0,42,55,68
0,72,127,4
0,42,66,48
0,71,127,4
0,57,127,64
0,42,83,0
0,69,127,8
0,42,62,24
0,69,127,40
0,42,64,0
0,71,127,16
0,42,80,8
0,72,127,16
0,42,62,40
0,71,127,0
0,57,127,4
0,44,91,0
0,72,127,16
0,71,127,12
0,62,127,20
0,42,80,0
0,69,127,4
0,69,127,40
0,42,58,36
0,42,60,44
0,69,127,4
0,42,80,40
0,69,127,4
0,72,127,0
0,44,83,4
0,42,74,24
0,74,127,4
0,42,71,52
0,55,127,60
0,44,80,0
0,42,66,64
0,55,127,52
0,42,59,0
0,40,127,56
0,44,95,0
0,49,70,0
0,60,75,0
0,55,75,0
0,64,75,0
0,36,127,8
0,42,72,0
0,60,127,4
0,60,109,0
0,72,127,0
0,76,125,0
0,36,127,0
0,55,127,0
0,60,127,0
0,42,91,0
0,55,127,0
0,60,127,0
0,64,127,0
0,64,127,0
0,71,127,4
0,42,57,0
0,72,127,0
0,40,127,0
0,42,55,0
0,67,119,4
0,43,127,0
0,71,127,32
0,67,84,4
0,43,127,0
0,60,127,20
0,36,127,0
0,42,83,0
0,67,86,4
0,43,127,0
0,60,127,0
0,64,127,0
0,55,127,0
0,64,127,0
0,55,127,0
0,72,127,4
0,67,96,36
0,42,68,0
0,71,127,4
0,57,75,20
0,36,127,4
0,42,64,0
0,69,127,4
0,57,109,0
0,69,127,0
0,33,127,0
0,69,121,16
0,60,127,28
0,57,127,0
0,42,91,0
0,57,127,4
0,81,119,0
0,76,127,0
0,60,127,0
0,57,127,0
0,64,127,0
0,64,127,0
0,42,71,4
0,71,127,4
0,45,127,0
0,40,127,0
0,42,63,0
0,64,119,4
0,69,116,0
0,67,75,0
0,72,127,4
0,69,116,32
0,45,127,0
0,42,76,0
0,71,127,4
0,69,127,0
0,60,127,4
0,57,127,0
0,44,91,0
0,72,127,4
0,76,127,0
0,79,127,0
0,45,127,0
0,60,127,0
0,57,127,0
0,64,127,0
0,64,127,0
0,71,127,12
0,36,127,0
0,36,127,4
0,42,72,0
0,69,127,4
0,62,127,0
0,62,105,0
0,77,127,0
0,74,127,0
0,38,127,0
0,65,75,4
0,62,75,0
0,69,127,36
0,62,127,0
0,65,127,0
0,42,83,0
0,62,127,0
0,65,127,0
0,57,127,0
0,57,127,0
0,42,61,16
0,69,127,4
0,69,127,4
0,40,127,0
0,42,70,0
0,69,127,4
0,38,127,0
0,69,96,44
0,38,127,0
0,72,127,12
0,65,127,4
0,36,127,0
0,44,91,0
0,69,105,4
0,38,127,0
0,65,127,0
0,62,127,0
0,57,127,0
0,62,127,0
0,57,127,0
0,69,98,12
0,74,127,4
0,67,75,0
0,62,75,0
0,36,127,4
0,42,72,0
0,62,105,4
0,67,127,0
0,31,127,0
0,59,75,8
0,67,120,20
0,59,127,24
0,62,127,0
0,44,91,0
0,55,127,4
0,79,127,0
0,74,127,0
0,59,127,0
0,62,127,0
0,67,127,0
0,67,127,0
0,31,127,0
0,36,127,0
0,33,127,16
0,40,127,0
0,42,70,0
0,55,126,4
0,67,123,0
0,36,127,8
0,42,65,0
0,57,127,4
0,67,119,0
0,62,127,16
0,59,127,0
0,36,127,0
0,44,95,0
0,77,127,4
0,74,127,0
0,38,127,0
0,62,127,0
0,59,127,0
0,67,127,0
0,67,127,0
0,55,127,16
0,36,127,4
0,36,127,0
0,42,68,0
0,60,127,4
0,60,84,0
0,72,118,0
0,76,116,0
0,64,126,4
0,55,127,0
0,60,127,0
0,42,95,0
0,64,127,4
0,55,127,0
0,60,127,0
0,42,71,0
0,64,127,0
0,43,127,32
0,40,127,0
0,42,58,0
0,43,127,24
0,62,127,28
0,36,127,0
0,42,87,0
0,43,127,0
0,60,127,0
0,55,127,0
0,64,127,0
0,60,127,0
0,55,127,0
0,64,124,0
0,42,61,20
0,33,127,60
0,36,127,0
0,42,59,0
0,64,127,8
0,60,127,16
0,57,126,0
0,64,123,0
0,42,91,0
0,60,127,4
0,57,127,0
0,64,126,0
0,62,127,4
0,42,67,12
0,60,127,8
0,45,127,64
0,40,127,0
0,42,60,0
0,45,127,16
0,42,70,0
0,60,127,32
0,57,127,0
0,44,95,0
0,45,127,4
0,60,127,0
0,57,127,0
0,64,127,0
0,64,124,0
0,36,127,0
0,57,127,4
0,36,127,36
0,42,67,0
0,38,127,4
0,60,127,4
0,57,127,16
0,62,127,8
0,65,126,0
0,57,127,0
0,42,91,0
0,62,127,4
0,65,127,0
0,57,127,0
0,42,70,20
0,60,127,4
0,38,127,68
0,40,127,0
0,42,60,0
0,38,127,24
0,57,127,4
0,62,127,16
0,57,127,0
0,36,127,0
0,42,95,0
0,38,127,4
0,62,127,0
0,57,127,0
0,65,127,0
0,65,127,0
0,42,66,20
0,57,127,48
0,36,127,4
0,42,63,0
0,31,127,4
0,42,73,4
0,55,126,12
0,62,127,0
0,44,95,0
0,55,127,4
0,62,127,0
0,59,127,0
0,59,127,0
0,31,127,20
0,55,127,4
0,33,127,8
0,40,127,0
0,42,66,0
0,36,127,0
0,42,71,0
0,62,127,12
0,59,127,0
0,44,91,0
0,38,127,4
0,62,127,0
0,59,127,0
0,55,127,0
0,55,127,0
0,36,127,8
0,36,127,48
0,36,127,0
0,42,76,0
0,60,127,156
0,55,127,0
0,42,87,0
0,60,127,0
0,55,127,0
0,64,127,0
0,64,126,0
0,42,64,16
0,64,127,4
0,43,127,72
0,40,127,0
0,42,54,0
0,43,127,8
0,62,127,28
0,60,127,0
0,36,127,0
0,42,87,0
0,43,127,4
0,60,127,0
0,55,127,0
0,64,127,0
0,55,127,0
0,64,126,0
0,42,72,16
0,36,127,68
0,42,55,0
0,64,127,4
0,33,127,0
0,64,127,32
0,60,127,100
0,57,127,0
0,42,87,0
0,60,127,0
0,57,127,0
0,64,127,0
0,64,124,0
0,62,127,4
0,42,51,4
0,60,127,8
0,45,127,72
0,40,127,0
0,42,59,0
0,42,71,28
0,60,127,4
0,64,124,0
0,57,127,0
0,44,80,0
0,45,127,4
0,60,127,0
0,64,127,0
0,57,127,0
0,36,127,20
0,57,127,4
0,36,127,4
0,42,71,0
0,60,127,4
0,38,127,0
0,57,127,48
0,62,127,4
0,57,127,0
0,42,87,0
0,62,127,0
0,57,127,0
0,65,127,0
0,65,127,0
0,42,60,24
0,60,127,16
0,38,127,68
0,40,127,0
0,42,70,0
0,38,127,40
0,57,127,16
0,57,127,8
0,36,127,0
0,42,83,0
0,38,127,4
0,57,127,0
0,62,127,0
0,65,127,0
0,62,127,0
0,65,127,0
0,31,127,44
0,36,127,0
0,42,67,0
0,42,72,0
0,55,127,4
0,62,127,4
0,55,127,0
0,59,127,0
0,44,91,0
0,62,127,4
0,55,127,0
0,59,127,0
0,31,127,24
0,36,127,0
0,33,127,12
0,40,127,0
0,42,70,0
0,36,127,20
0,40,127,0
0,42,54,0
0,62,127,28
0,55,127,0
0,59,127,0
0,44,95,0
0,38,127,4
0,62,127,0
0,55,127,0
0,59,127,0
0,40,127,12
0,36,127,8
0,36,127,0
0,42,80,0
0,64,127,96
0,60,127,0
0,55,127,0
0,42,101,0
0,64,127,4
0,60,127,0
0,55,127,0
0,42,66,8
0,62,127,4
0,64,127,28
0,40,127,0
0,42,64,0
0,43,127,4
0,43,127,48
0,62,127,40
0,64,127,4
0,55,127,0
0,36,127,0
0,42,95,0
0,43,127,4
0,64,127,0
0,55,127,0
0,60,127,0
0,60,127,0
0,64,127,8
0,42,64,0
0,33,127,44
0,36,127,0
0,42,68,0
0,64,127,24
0,57,127,0
0,60,127,0
0,42,95,0
0,64,127,4
0,57,127,0
0,60,127,0
0,42,61,8
0,64,127,28
0,45,127,64
0,40,127,0
0,42,66,0
0,45,127,0
0,42,80,0
0,62,127,4
0,64,127,4
0,57,127,0
0,60,127,0
0,44,95,0
0,60,127,4
0,45,127,0
0,64,127,0
0,57,127,0
0,60,127,0
0,36,127,16
0,36,127,48
0,42,67,0
0,38,127,4
0,57,127,76
0,57,127,68
0,62,127,0
0,42,95,0
0,57,127,4
0,62,127,0
0,65,127,0
0,65,127,0
0,42,66,8
0,60,127,4
0,38,127,60
0,40,127,0
0,42,70,0
0,38,127,48
0,62,127,40
0,36,127,0
0,42,91,0
0,57,127,4
0,38,127,0
0,62,127,0
0,65,127,0
0,57,127,0
0,65,127,0
0,57,127,0
0,42,66,8
0,36,127,52
0,42,63,0
0,31,127,4
0,42,66,4
0,62,127,76
0,59,127,0
0,44,101,0
0,62,127,4
0,59,127,0
0,55,127,0
0,55,126,0
0,55,127,4
0,31,127,12
0,33,127,12
0,40,127,0
0,42,61,0
0,36,127,0
0,42,71,0
0,62,127,36
0,55,127,0
0,44,95,0
0,38,127,4
0,62,127,0
0,55,127,0
0,59,127,0
0,59,127,0
0,36,127,24
0,36,127,36
0,42,74,0
0,36,127,4
0,64,126,96
0,60,127,0
0,42,95,0
0,64,127,4
0,60,127,0
0,55,127,0
0,55,127,0
0,64,127,4
0,42,63,4
0,43,127,64
0,40,127,0
0,42,66,0
0,43,127,48
0,62,127,4
0,60,127,12
0,36,127,0
0,42,95,0
0,43,127,4
0,60,127,0
0,64,125,0
0,55,127,0
0,64,122,0
0,55,127,0
0,42,67,8
0,36,127,44
0,42,71,0
0,64,127,4
0,33,127,0
0,62,127,0
0,64,125,92
0,60,127,0
0,42,91,0
0,64,127,4
0,60,127,0
0,57,127,0
0,57,127,0
0,60,127,16
0,42,71,8
0,45,127,60
0,40,127,0
0,42,73,0
0,45,127,48
0,57,127,12
0,64,126,16
0,57,127,0
0,44,95,0
0,45,127,4
0,64,127,0
0,57,127,0
0,60,127,0
0,60,127,0
0,36,127,8
0,60,127,4
0,38,127,56
0,36,127,0
0,42,74,0
0,62,127,12
0,57,127,0
0,65,127,0
0,42,95,0
0,62,127,4
0,57,127,0
0,65,127,0
0,57,127,4
0,42,68,0
0,60,127,20
0,38,127,16
0,40,127,0
0,42,76,0
0,60,127,32
0,38,127,8
0,57,127,28
0,62,127,4
0,65,127,0
0,57,127,0
0,44,101,0
0,38,127,4
0,62,127,0
0,65,127,0
0,57,127,0
0,63,127,4
0,60,127,24
0,36,127,0
0,40,127,0
0,31,127,0
0,36,127,0
0,42,76,0
0,64,127,8
0,31,127,24
0,42,66,0
0,62,127,12
0,62,127,8
0,55,127,0
0,59,127,0
0,44,108,0
0,62,127,4
0,55,127,0
0,59,127,0
0,31,127,28
0,36,127,0
0,33,127,24
0,40,127,0
0,42,64,0
0,49,70,4
0,36,127,0
0,40,127,0
0,42,87,0
0,36,127,4
0,55,127,16
0,59,127,0
0,36,127,0
0,44,101,0
0,38,127,4
0,55,127,0
0,59,127,0
0,62,127,0
0,62,127,0
0,40,127,16
0,65,127,16
0,74,127,0
0,36,127,4
0,42,83,0
0,72,116,4
0,67,112,0
0,36,127,0
0,72,127,44
0,64,127,0
0,64,127,8
0,60,127,0
0,55,127,0
0,42,87,0
0,64,127,4
0,60,127,0
0,55,127,0
0,42,72,0
0,43,127,20
0,40,127,0
0,42,70,0
0,43,127,44
0,62,127,24
0,71,127,0
0,60,127,4
0,55,127,0
0,36,127,0
0,42,91,0
0,43,127,0
0,60,127,0
0,55,127,0
0,64,127,0
0,64,127,0
0,42,62,20
0,33,127,8
0,36,127,0
0,42,76,0
0,69,102,4
0,60,127,8
0,69,127,0
0,64,127,16
0,57,127,0
0,42,80,0
0,64,127,4
0,57,127,0
0,60,127,0
0,60,127,0
0,42,70,8
0,45,127,44
0,40,127,0
0,42,73,0
0,45,127,20
0,64,127,32
0,60,127,0
0,44,95,0
0,45,127,4
0,64,127,0
0,60,127,0
0,57,127,0
0,57,127,0
0,36,127,8
0,36,127,44
0,42,74,0
0,72,127,4
0,38,127,0
0,62,127,48
0,65,127,0
0,42,91,0
0,69,126,0
0,62,127,0
0,65,127,0
0,57,127,0
0,57,127,0
0,42,67,8
0,38,127,60
0,40,127,0
0,42,71,0
0,72,127,4
0,38,127,48
0,62,127,0
0,36,127,0
0,42,91,0
0,69,126,4
0,38,127,0
0,62,127,0
0,65,127,0
0,57,127,0
0,65,127,0
0,57,127,0
0,42,63,8
0,76,127,8
0,36,127,4
0,42,66,0
0,67,110,4
0,31,127,0
0,67,120,32
0,31,127,0
0,42,72,0
0,76,127,4
0,76,127,4
0,62,127,0
0,44,95,0
0,62,127,4
0,59,127,0
0,55,127,0
0,59,127,0
0,55,125,0
0,67,119,12
0,31,127,0
0,79,127,4
0,33,127,12
0,40,127,0
0,42,70,0
0,76,127,24
0,36,127,0
0,42,73,0
0,76,127,4
0,62,127,0
0,44,91,0
0,38,127,4
0,62,127,0
0,55,127,0
0,59,127,0
0,55,127,0
0,59,127,0
0,36,127,4
0,36,127,16
0,42,70,0
0,74,127,4
0,67,120,0
0,72,118,0
0,36,127,0
0,60,127,40
0,64,126,0
0,42,91,0
0,72,127,4
0,60,127,0
0,64,127,0
0,55,127,0
0,55,127,0
0,42,65,4
0,43,127,36
0,40,127,0
0,42,57,0
0,43,127,40
0,60,127,4
0,36,127,0
0,42,87,0
0,71,127,4
0,43,127,0
0,60,127,0
0,64,127,0
0,55,127,0
0,64,127,0
0,55,127,0
0,42,51,8
0,36,127,44
0,42,68,0
0,69,109,0
0,33,127,0
0,69,127,4
0,64,127,0
0,42,95,0
0,64,127,4
0,60,127,0
0,57,127,0
0,60,127,0
0,57,127,0
0,42,58,12
0,45,127,16
0,40,127,0
0,42,67,0
0,45,127,32
0,42,91,0
0,64,127,0
0,60,127,0
0,57,127,0
0,44,87,0
0,45,127,4
0,64,127,0
0,60,127,0
0,57,127,0
0,36,127,8
0,36,127,48
0,42,68,0
0,72,127,4
0,38,127,0
0,62,127,8
0,65,127,0
0,57,127,0
0,42,95,0
0,69,123,4
0,62,127,0
0,65,127,0
0,57,127,0
0,57,127,0
0,42,64,0
0,60,127,16
0,38,127,12
0,40,127,0
0,42,68,0
0,72,127,4
0,60,127,32
0,65,127,4
0,62,127,0
0,36,127,0
0,42,101,0
0,69,127,4
0,65,127,0
0,62,127,0
0,57,127,0
0,57,127,0
0,57,127,4
0,36,127,20
0,44,91,0
0,62,127,4
0,67,123,0
0,31,127,0
0,48,120,12
0,48,89,0
0,48,67,24
0,48,93,28
0,45,84,24
0,45,77,32
0,43,127,20
0,40,127,0
0,44,108,0
0,41,97,0
0,49,70,4
0,36,127,20
0,42,74,0
0,60,98,4
0,72,90,0
0,60,105,0
0,76,123,0
0,72,119,0
0,36,127,0
0,55,75,4
0,64,75,0
0,60,75,0
0,55,127,4
0,64,127,0
0,42,108,0
0,55,127,4
0,64,127,0
0,60,127,0
0,60,127,0
0,42,73,8
0,72,127,8
0,43,127,8
0,40,127,0
0,42,59,0
0,67,109,4
0,67,86,28
0,43,127,0
0,72,127,4
0,72,127,28
0,60,127,4
0,36,127,0
0,42,101,0
0,67,91,4
0,43,127,0
0,60,127,0
0,55,127,0
0,64,127,0
0,55,127,0
0,64,127,0
0,67,91,8
0,42,63,0
0,72,127,4
0,36,127,12
0,42,68,0
0,72,127,4
0,57,109,0
0,33,127,0
0,57,75,0
0,76,127,4
0,64,127,4
0,57,127,0
0,42,95,0
0,64,127,4
0,57,127,0
0,60,127,0
0,60,127,0
0,60,127,20
0,57,126,0
0,42,68,0
0,74,127,4
0,60,127,0
0,57,127,0
0,64,127,0
0,64,124,0
0,67,75,20
0,45,127,4
0,40,127,0
0,42,62,0
0,76,115,4
0,64,108,0
0,64,109,0
0,76,127,0
0,79,126,0
0,45,127,0
0,42,76,0
0,72,127,0
0,64,127,36
0,60,127,0
0,44,95,0
0,45,127,4
0,64,127,0
0,60,127,0
0,57,127,0
0,57,127,0
0,36,127,4
0,36,127,0
