track,note,velocity,time
3,46,95,0
3,58,95,39
3,46,95,39
3,58,95,39
3,46,95,39
3,58,95,39
3,46,95,39
3,63,95,39
3,58,95,0
3,59,87,4
3,62,87,0
3,67,87,0
3,55,87,2
3,55,87,2
3,50,87,0
3,40,87,0
3,50,87,0
3,52,87,0
3,59,87,0
3,62,87,0
3,67,87,0
3,55,87,4
3,55,87,2
3,50,87,0
3,40,87,0
3,62,87,0
3,69,87,0
3,64,87,0
3,71,87,0
3,50,87,0
3,52,87,0
3,55,87,0
3,57,87,0
3,57,87,0
3,55,87,4
3,55,87,0
3,45,87,0
3,40,87,0
3,43,87,0
3,45,87,0
3,50,87,0
3,52,87,0
3,55,87,0
3,57,87,0
3,67,87,2
3,69,87,0
3,76,87,0
3,55,87,0
3,50,87,0
3,59,87,0
3,62,87,0
3,62,87,0
3,59,43,0
3,64,87,0
3,59,87,0
3,55,87,0
3,50,43,0
3,50,87,2
3,40,95,2
3,67,78,0
3,62,78,0
3,56,78,0
3,52,78,0
3,52,78,0
3,56,78,0
3,62,78,0
3,67,78,0
3,67,78,0
3,62,78,0
3,56,78,0
3,52,78,0
3,52,78,0
3,56,78,0
3,62,78,0
3,67,78,0
3,67,78,0
3,62,78,0
3,56,78,0
3,52,78,0
3,43,78,0
3,43,78,0
3,55,78,0
3,62,78,0
3,59,78,0
3,55,78,0
3,43,78,0
3,43,78,0
3,45,87,0
3,64,78,48
3,61,78,0
3,57,78,0
3,57,78,0
3,61,78,0
3,64,78,0
3,45,78,0
3,57,78,0
3,61,78,0
3,66,78,0
3,64,87,0
3,61,78,0
3,57,78,0
3,45,78,0
3,40,95,0
3,67,78,0
3,62,78,0
3,56,78,0
3,52,78,0
3,64,78,0
3,52,78,0
3,56,78,0
3,62,78,0
3,67,78,0
3,64,78,0
3,67,78,0
3,62,78,0
3,56,78,0
3,52,78,0
3,67,78,0
3,64,78,0
3,62,78,0
3,56,78,0
3,52,78,0
3,62,78,0
3,64,78,0
3,67,78,0
3,56,78,0
3,52,78,0
3,67,78,0
3,64,78,0
3,62,78,0
3,56,78,0
3,52,78,0
3,50,87,2
3,43,87,4
3,43,87,0
3,67,78,0
3,62,78,0
3,55,78,0
3,43,78,0
3,55,78,1
3,43,87,0
3,45,87,0
3,64,78,47
3,61,78,0
3,57,78,0
3,57,78,0
3,61,78,0
3,64,78,0
3,45,78,0
3,57,78,0
3,61,78,0
3,66,78,0
3,64,87,0
3,61,78,0
3,57,78,0
3,45,78,0
3,40,95,0
3,67,78,0
3,62,78,0
3,56,78,0
3,52,78,0
3,52,78,0
3,56,78,0
3,62,78,0
3,67,78,0
3,67,78,0
3,62,78,0
3,56,78,0
3,52,78,0
3,52,78,0
3,56,78,0
3,62,78,0
3,67,78,0
3,56,78,0
3,52,78,0
3,62,78,0
3,67,78,0
3,50,87,1
3,43,87,2
3,43,87,0
3,62,78,0
3,59,78,0
3,55,78,0
3,43,95,0
3,64,78,0
3,61,78,0
3,57,78,0
3,45,87,0
3,45,78,0
3,64,78,0
3,61,78,0
3,57,78,0
3,57,78,0
3,61,78,0
3,64,78,0
3,64,78,0
3,61,78,0
3,57,78,0
3,45,78,0
3,66,78,0
3,64,87,0
3,64,78,0
3,61,78,0
3,57,78,0
3,45,78,0
3,40,95,0
3,67,78,0
3,62,78,0
3,56,78,0
3,52,78,0
3,52,78,0
3,56,78,0
3,62,78,0
3,67,78,0
3,67,78,0
3,62,78,0
3,56,78,0
3,52,78,0
3,52,78,0
3,56,78,0
3,62,78,0
3,67,78,0
3,67,78,0
3,62,78,0
3,56,78,0
3,52,78,0
3,67,78,0
3,62,78,0
3,56,78,0
3,52,78,0
3,43,87,48
3,43,87,0
3,67,78,0
3,62,78,0
3,55,78,0
3,43,78,0
3,55,78,1
3,43,87,0
3,64,78,0
3,61,78,0
3,57,78,0
3,45,78,0
3,45,78,0
3,64,78,0
3,61,78,0
3,57,78,0
3,66,78,0
3,57,78,0
3,61,78,0
3,45,78,0
3,57,78,0
3,61,78,0
3,66,78,0
3,64,87,0
3,64,78,0
3,61,78,0
3,57,78,0
3,45,78,0
3,40,95,0
3,67,78,0
3,62,78,0
3,56,78,0
3,52,78,0
3,52,78,0
3,56,78,0
3,62,78,0
3,67,78,0
3,67,78,0
3,62,78,0
3,56,78,0
3,52,78,0
3,52,78,0
3,56,78,0
3,62,78,0
3,67,78,0
3,52,78,0
3,56,78,0
3,62,78,0
3,67,78,0
3,59,78,0
3,55,78,0
3,43,78,0
3,55,78,0
3,59,78,0
3,43,78,0
3,43,78,0
3,62,78,0
3,59,78,0
3,55,78,0
3,43,87,0
3,64,78,0
3,61,78,0
3,57,78,0
3,45,87,0
3,45,78,0
3,64,78,0
3,61,78,0
3,57,78,0
3,66,78,0
3,57,78,0
3,61,78,0
3,61,78,0
3,57,78,0
3,45,78,0
3,66,78,0
3,64,87,0
3,64,78,0
3,61,78,0
3,57,78,0
3,45,78,0
3,40,95,0
3,74,78,0
3,66,87,12
3,54,87,0
3,64,87,0
3,52,87,0
3,50,87,0
3,62,87,0
3,59,87,2
3,62,87,0
3,67,87,0
3,59,87,2
3,62,87,0
3,67,87,0
3,40,95,2
3,67,78,0
3,62,78,0
3,56,78,0
3,52,78,0
3,67,78,0
3,62,78,0
3,56,78,0
3,52,78,0
3,67,78,24
3,62,78,0
3,56,78,0
3,52,78,0
3,52,78,0
3,56,78,0
3,62,78,0
3,67,78,0
3,52,78,0
3,56,78,0
3,62,78,0
3,67,78,0
3,67,78,0
3,62,78,0
3,56,78,0
3,52,78,0
3,59,78,20
3,64,78,0
3,43,87,0
3,43,87,0
3,59,78,0
3,55,78,0
3,43,78,0
3,62,78,0
3,43,87,0
3,61,78,0
3,57,78,0
3,45,87,0
3,64,78,0
3,61,78,0
3,57,78,0
3,45,87,0
3,59,78,2
3,55,78,0
3,40,95,4
3,67,78,0
3,62,78,0
3,56,78,0
3,52,78,0
3,45,87,0
3,47,87,0
3,50,87,0
3,52,87,0
3,50,87,0
3,47,87,0
3,46,87,0
3,45,87,0
3,43,87,0
3,43,87,0
3,62,78,0
3,59,78,0
3,55,78,0
3,43,87,0
3,45,87,0
3,64,78,0
3,61,78,0
3,57,78,0
3,45,78,0
3,66,78,0
3,57,78,0
3,61,78,0
3,61,78,0
3,57,78,0
3,66,78,0
3,45,87,0
3,64,78,0
3,61,78,0
3,57,78,0
3,61,78,0
3,64,78,0
3,57,78,0
3,57,78,12
3,61,78,0
3,64,78,0
3,40,95,0
3,52,78,0
3,62,78,0
3,56,78,0
3,67,78,0
3,67,78,0
3,62,78,0
3,56,78,0
3,52,78,0
3,45,87,0
3,47,87,0
3,50,87,0
3,52,87,0
3,50,87,0
3,47,87,0
3,46,87,0
3,45,87,0
3,43,87,0
3,43,87,0
3,62,78,0
3,59,78,0
3,55,78,0
3,43,78,0
3,43,87,0
3,64,78,0
3,61,78,0
3,57,78,0
3,45,78,0
3,61,78,0
3,45,78,0
3,57,78,0
3,64,78,0
3,57,78,0
3,61,78,0
3,64,78,0
3,61,78,0
3,57,78,0
3,66,78,0
3,45,78,0
3,64,78,0
3,61,78,0
3,64,78,0
3,57,78,0
3,45,78,0
3,40,95,0
3,66,87,12
3,54,87,0
3,64,87,0
3,52,87,0
3,50,87,0
3,62,87,0
3,59,87,2
3,62,87,0
3,67,87,0
3,59,87,2
3,62,87,0
3,67,87,4
3,59,87,0
3,61,87,4
3,64,87,4
3,71,87,4
3,61,87,2
3,64,87,4
3,71,87,4
3,64,87,2
3,67,87,0
3,79,87,0
3,64,87,2
3,67,87,0
3,79,87,0
3,76,87,0
3,71,87,2
3,74,87,0
3,70,87,2
3,74,87,0
3,74,87,2
3,71,87,0
3,71,87,2
3,74,87,0
3,52,87,2
3,71,87,0
3,74,87,0
3,71,87,48
3,71,87,0
3,73,87,0
3,73,87,0
3,71,87,0
3,71,87,0
3,69,87,0
3,69,87,0
3,71,87,0
3,69,87,0
3,68,87,0
3,69,87,0
3,71,87,2
3,50,60,2
3,78,87,0
3,74,87,0
3,64,87,0
3,67,87,0
3,69,87,0
3,67,87,0
3,64,87,0
3,67,87,0
3,67,87,0
3,66,87,0
3,66,87,0
3,64,87,0
3,62,87,0
3,62,87,48
3,64,87,0
3,62,87,0
3,61,87,0
3,62,87,0
3,59,87,0
3,61,87,0
3,64,87,0
3,66,87,0
3,66,87,0
3,64,87,0
3,62,87,0
3,62,87,0
3,64,87,0
3,64,87,0
3,66,87,0
3,62,87,0
3,66,87,0
3,62,87,0
3,66,87,0
3,62,87,0
3,66,87,0
3,62,87,0
3,76,87,60
3,71,87,0
3,67,87,0
3,62,87,0
3,64,87,0
3,66,87,0
3,67,87,0
3,78,87,48
3,76,87,0
3,78,87,0
3,76,87,0
3,74,87,0
3,76,87,0
3,73,87,0
3,74,87,0
3,73,87,0
3,73,87,0
3,73,87,0
3,71,87,0
3,73,87,0
3,71,87,0
3,69,87,0
3,71,87,0
3,74,87,0
3,69,87,0
3,71,87,0
3,59,87,0
3,62,87,0
3,67,87,0
3,55,87,2
3,55,87,2
3,50,87,0
3,40,87,0
3,50,87,0
3,52,87,0
3,59,87,0
3,62,87,0
3,67,87,0
3,55,87,4
3,55,87,2
3,50,87,0
3,40,87,0
3,50,87,0
3,52,87,0
3,40,87,0
3,52,87,0
3,55,87,0
3,57,87,0
3,58,87,2
3,59,87,2
3,63,87,0
3,55,87,0
3,52,87,0
3,55,87,0
3,57,87,0
3,57,87,0
3,59,87,2
3,57,87,0
3,55,87,0
3,43,87,0
3,55,69,0
3,59,87,2
3,62,87,0
3,67,87,0
3,55,87,2
3,59,69,0
3,55,87,2
3,50,87,0
3,40,87,0
3,50,87,0
3,52,87,0
3,40,87,0
3,45,87,0
3,52,87,0
3,55,87,0
3,40,95,40
3,67,78,0
3,62,78,0
3,56,78,0
3,52,78,0
3,52,78,0
3,56,78,0
3,62,78,0
3,67,78,0
3,67,78,24
3,62,78,0
3,62,78,0
3,67,78,0
3,62,78,0
3,67,78,0
3,62,78,0
3,67,78,0
3,62,78,0
3,67,78,0
3,59,78,0
3,64,78,0
3,43,87,2
3,62,78,0
3,59,78,0
3,55,78,0
3,43,78,0
3,55,78,0
3,59,78,0
3,62,78,0
3,43,78,0
3,43,78,0
3,55,78,0
3,59,78,0
3,62,78,0
3,43,78,0
3,55,78,0
3,59,78,0
3,62,78,0
3,45,78,0
3,61,78,0
3,64,78,0
3,64,87,0
3,61,78,0
3,66,78,0
3,66,78,0
3,64,87,22
3,64,87,0
3,40,95,0
3,67,78,0
3,62,78,0
3,56,78,0
3,52,78,0
3,52,78,0
3,56,78,0
3,62,78,0
3,67,78,0
3,67,78,0
3,62,78,0
3,56,78,0
3,52,78,0
3,52,78,0
3,56,78,0
3,62,78,0
3,67,78,0
3,67,78,0
3,62,78,0
3,56,78,0
3,52,78,0
3,67,78,0
3,62,78,0
3,56,78,0
3,52,78,0
3,40,87,0
3,43,87,0
3,62,78,0
3,59,78,0
3,55,78,0
3,43,78,0
3,43,78,0
3,55,78,0
3,59,78,0
3,62,78,0
3,43,78,0
3,55,78,0
3,59,78,0
3,62,78,0
3,45,78,0
3,61,78,0
3,64,78,0
3,61,78,0
3,64,78,0
3,66,78,0
3,61,78,0
3,61,78,0
3,66,78,0
3,64,78,0
3,61,78,0
3,59,78,0
3,40,95,0
3,67,78,0
3,62,78,0
3,56,78,0
3,52,78,0
3,67,78,0
3,62,78,0
3,56,78,0
3,52,78,0
3,67,78,0
3,62,78,0
3,56,78,0
3,52,78,0
3,67,78,0
3,62,78,0
3,56,78,0
3,52,78,0
3,67,78,0
3,62,78,0
3,56,78,0
3,52,78,0
3,55,87,0
3,52,87,0
3,62,78,2
3,59,78,0
3,55,78,0
3,43,78,0
3,55,78,0
3,59,78,0
3,62,78,0
3,43,78,0
3,55,78,0
3,50,78,0
3,43,78,0
3,64,78,0
3,61,78,0
3,57,78,0
3,45,78,0
3,57,78,0
3,61,78,0
3,67,78,0
3,66,87,0
3,64,87,0
3,40,95,0
3,76,78,0
3,66,87,12
3,54,87,0
3,64,87,0
3,52,87,0
3,50,87,0
3,62,87,0
3,59,87,2
3,62,87,0
3,67,87,0
3,59,87,2
3,62,87,0
3,67,87,4
3,59,87,2
3,62,87,0
3,67,87,0
3,61,87,2
3,64,87,0
3,67,87,0
3,71,87,96
3,73,87,0
3,74,87,0
3,73,87,0
3,73,87,0
3,71,87,0
3,69,87,0
3,67,87,0
3,76,87,2
3,76,87,2
3,76,78,4
3,88,78,0
3,76,78,0
3,88,78,0
3,76,78,0
3,88,78,0
3,76,78,0
3,88,78,0
3,76,78,0
3,88,78,0
3,76,78,0
3,88,78,0
3,76,78,0
3,88,78,0
3,76,78,0
3,88,78,0
3,76,78,0
3,88,78,0
3,76,78,0
3,88,78,0
3,76,78,0
3,88,78,0
3,76,78,0
3,88,78,0
3,76,78,0
3,88,78,0
3,76,78,0
3,88,78,0
3,76,78,0
3,88,78,0
3,76,78,0
3,88,78,0
3,74,78,2
3,86,78,0
3,76,78,2
3,88,78,0
3,76,78,0
3,88,78,0
3,76,78,0
3,88,78,0
3,76,78,0
3,88,78,0
3,76,78,0
3,88,78,0
3,76,78,0
3,88,78,0
3,76,78,0
3,88,78,0
3,76,78,0
3,88,78,0
3,76,78,0
3,88,78,0
3,76,78,0
3,88,78,0
3,76,78,0
3,88,78,0
3,76,78,0
3,88,78,0
3,76,78,0
3,88,78,0
3,76,78,0
3,88,78,0
3,76,78,0
3,88,78,0
3,76,78,0
3,88,78,0
3,76,78,0
3,88,78,0
3,76,78,0
3,88,78,0
3,76,78,0
3,88,78,0
3,76,78,0
3,88,78,0
3,76,78,2
3,88,78,0
3,76,78,0
3,88,78,0
3,76,78,0
3,88,78,0
3,76,78,0
3,88,78,0
3,76,78,0
3,88,78,0
3,76,78,0
3,88,78,0
3,76,78,0
3,88,78,0
3,76,78,0
3,88,78,0
3,76,78,0
3,88,78,0
3,76,78,0
3,88,78,0
3,76,78,2
3,88,78,0
3,76,78,0
3,88,78,0
3,76,78,0
3,88,78,0
3,76,78,0
3,88,78,0
3,76,78,0
3,88,78,0
3,76,78,2
3,88,78,0
3,76,78,0
3,88,78,0
3,76,78,0
3,88,78,0
3,76,78,0
3,88,78,0
3,76,78,0
3,88,78,0
3,76,78,0
3,88,78,0
3,76,78,0
3,88,78,0
3,76,78,0
3,88,78,0
3,76,78,0
3,88,78,0
3,76,87,0
3,79,87,4
3,77,87,2
3,74,78,0
3,86,78,0
3,76,78,2
3,88,78,0
3,77,78,0
3,89,78,0
3,76,78,16
3,88,78,0
3,74,78,0
3,86,78,0
3,74,78,0
3,86,78,0
3,74,78,0
3,86,78,0
3,74,78,0
3,86,78,0
3,76,78,0
3,88,78,0
3,77,78,0
3,89,78,0
3,76,78,0
3,88,78,0
3,74,78,0
3,86,78,0
3,76,78,0
3,88,78,0
3,76,78,0
3,88,78,0
3,76,78,2
3,88,78,0
3,76,78,0
3,88,78,0
3,76,78,0
3,88,78,0
3,76,78,0
3,88,78,0
3,76,78,0
3,88,78,0
3,76,78,0
3,88,78,0
3,76,78,0
3,88,78,0
3,76,78,0
3,88,78,0
3,76,78,0
3,88,78,0
3,76,78,0
3,88,78,0
3,76,78,0
3,88,78,0
3,76,78,0
3,88,78,0
3,76,78,0
3,88,78,0
3,76,78,0
3,88,78,0
3,76,78,0
3,88,78,0
3,76,78,0
3,88,78,0
3,76,78,0
3,88,78,0
3,76,78,0
3,88,78,0
3,76,78,0
3,88,78,0
3,76,78,0
3,88,78,0
3,74,87,0
3,77,87,0
3,76,78,8
3,88,78,0
3,76,78,0
3,88,78,0
3,76,78,0
3,88,78,0
3,76,78,0
3,88,78,0
3,76,78,0
3,88,78,0
3,76,78,0
3,88,78,0
3,76,78,0
3,88,78,0
3,76,78,0
3,88,78,0
3,76,78,0
3,88,78,0
3,76,78,0
3,88,78,0
