track,note,velocity,time
1,68,100,480
1,56,100,0
1,55,100,240
1,67,100,0
1,65,100,1200
1,53,100,0
1,62,100,0
1,50,100,0
1,62,100,0
1,50,100,0
1,68,100,960
1,56,100,0
1,55,100,240
1,67,100,0
1,65,100,1200
1,53,100,0
1,62,100,0
1,50,100,0
1,62,100,0
1,50,100,0
1,45,100,720
1,57,100,0
1,48,100,0
1,60,100,0
1,50,100,0
1,62,100,0
1,50,100,0
1,62,100,0
1,45,100,2880
1,57,100,0
1,48,100,0
1,60,100,0
1,50,100,0
1,62,100,0
1,50,100,0
1,62,100,0
1,45,100,2880
1,57,100,0
1,48,100,0
1,60,100,0
1,50,100,0
1,62,100,0
1,50,100,0
1,62,100,0
1,45,100,2880
1,57,100,0
1,48,100,0
1,60,100,0
1,50,100,0
1,62,100,0
1,50,100,0
1,62,100,0
1,45,100,2880
1,57,100,0
1,48,100,0
1,60,100,0
1,50,100,0
1,62,100,0
1,50,100,0
1,62,100,0
1,45,100,2880
1,57,100,0
1,48,100,0
1,60,100,0
1,50,100,0
1,62,100,0
1,50,100,0
1,62,100,0
1,74,100,1680
1,62,100,0
1,67,100,0
1,62,100,0
1,62,100,0
1,74,100,360
1,74,100,0
1,78,100,0
1,74,100,360
1,79,100,0
1,69,100,960
1,72,100,0
1,74,100,0
1,72,100,0
1,69,100,0
1,72,100,0
1,74,100,0
1,72,100,0
1,69,100,0
1,62,100,0
1,62,100,0
1,74,100,360
1,74,100,0
1,78,100,0
1,69,100,120
1,74,100,0
1,79,100,0
1,69,100,960
1,72,100,0
1,74,100,0
1,76,100,0
1,69,100,0
1,62,100,0
1,62,100,0
1,74,100,360
1,74,100,0
1,78,100,0
1,74,100,360
1,79,100,0
1,69,100,960
1,72,100,0
1,74,100,0
1,72,100,0
1,69,100,0
1,72,100,0
1,74,100,0
1,72,100,0
1,69,100,0
1,62,100,0
1,62,100,0
1,74,100,360
1,74,100,0
1,78,100,0
1,69,100,120
1,74,100,0
1,79,100,0
1,69,100,960
1,72,100,0
1,74,100,0
1,76,100,0
1,69,100,0
1,50,100,0
1,62,100,0
1,45,100,2880
1,57,100,0
1,48,100,0
1,60,100,0
1,50,100,0
1,62,100,0
1,50,100,0
1,62,100,0
1,45,100,2880
1,57,100,0
1,48,100,0
1,60,100,0
1,50,100,0
1,62,100,0
1,50,100,0
1,62,100,0
1,45,100,2880
1,57,100,0
1,48,100,0
1,60,100,0
1,50,100,0
1,62,100,0
1,50,100,0
1,62,100,0
1,45,100,2880
1,57,100,0
1,48,100,0
1,60,100,0
1,50,100,0
1,62,100,0
1,50,100,0
1,62,100,0
1,45,100,2880
1,57,100,0
1,48,100,0
1,60,100,0
1,50,100,0
1,62,100,0
1,50,100,0
1,62,100,0
1,74,100,1680
1,67,100,0
1,62,100,0
1,62,100,0
1,62,100,0
1,74,100,360
1,74,100,0
1,78,100,0
1,74,100,360
1,79,100,0
1,69,100,960
1,72,100,0
1,74,100,0
1,72,100,0
1,69,100,0
1,72,100,0
1,74,100,0
1,72,100,0
1,69,100,0
1,62,100,0
1,62,100,0
1,74,100,360
1,74,100,0
1,78,100,0
1,69,100,120
1,74,100,0
1,79,100,0
1,69,100,960
1,72,100,0
1,74,100,0
1,76,100,0
1,69,100,0
1,62,100,0
1,62,100,0
1,74,100,360
1,74,100,0
1,78,100,0
1,74,100,360
1,79,100,0
1,69,100,960
1,72,100,0
1,74,100,0
1,72,100,0
1,69,100,0
1,72,100,0
1,74,100,0
1,72,100,0
1,69,100,0
1,62,100,0
1,62,100,0
1,74,100,360
1,74,100,0
1,78,100,0
1,69,100,120
1,74,100,0
1,79,100,0
1,69,100,960
1,72,100,0
1,74,100,0
1,76,100,0
1,69,100,0
1,62,100,0
1,60,100,0
1,69,100,0
1,60,100,0
1,76,100,0
1,76,100,0
1,76,100,0
1,74,100,0
1,67,100,0
1,76,100,0
1,76,100,0
1,74,100,0
1,69,100,0
1,71,100,0
1,76,100,0
1,76,100,0
1,74,100,0
1,74,100,0
1,67,100,0
1,64,100,0
1,76,100,0
1,76,100,0
1,74,100,0
1,74,100,0
1,71,100,0
1,68,100,0
1,56,100,0
1,55,100,240
1,67,100,0
1,65,100,1200
1,53,100,0
1,62,100,0
1,50,100,0
1,62,100,0
1,50,100,0
1,68,100,960
1,56,100,0
1,55,100,240
1,67,100,0
1,65,100,1200
1,53,100,0
1,62,100,0
1,50,100,0
1,62,100,0
1,50,100,0
1,45,100,720
1,57,100,0
1,48,100,0
1,60,100,0
1,50,100,0
1,62,100,0
1,50,100,0
1,62,100,0
1,45,100,2880
1,57,100,0
1,48,100,0
1,60,100,0
1,50,100,0
1,62,100,0
1,50,100,0
1,62,100,0
1,45,100,2880
1,57,100,0
1,48,100,0
1,60,100,0
1,50,100,0
1,62,100,0
1,50,100,0
1,62,100,0
1,45,100,2880
1,57,100,0
1,48,100,0
1,60,100,0
1,50,100,0
1,62,100,0
1,50,100,0
1,62,100,0
1,45,100,2880
1,57,100,0
1,48,100,0
1,60,100,0
1,50,100,0
1,62,100,0
1,50,100,0
1,62,100,0
1,45,100,2880
1,57,100,0
1,48,100,0
1,60,100,0
1,50,100,0
1,62,100,0
1,50,100,0
1,62,100,0
1,74,100,1680
1,62,100,0
1,67,100,0
1,62,100,0
1,62,100,0
1,74,100,360
1,74,100,0
1,78,100,0
1,74,100,360
1,79,100,0
1,69,100,960
1,72,100,0
1,74,100,0
1,72,100,0
1,69,100,0
1,72,100,0
1,74,100,0
1,72,100,0
1,69,100,0
1,62,100,0
1,62,100,0
1,74,100,360
1,74,100,0
1,78,100,0
1,69,100,120
1,74,100,0
1,79,100,0
1,69,100,960
1,72,100,0
1,74,100,0
1,76,100,0
1,69,100,0
1,62,100,0
1,62,100,0
1,74,100,360
1,74,100,0
1,78,100,0
1,74,100,360
1,79,100,0
1,69,100,960
1,72,100,0
1,74,100,0
1,72,100,0
1,69,100,0
1,72,100,0
1,74,100,0
1,72,100,0
1,69,100,0
1,62,100,0
1,62,100,0
1,74,100,360
1,74,100,0
1,78,100,0
1,69,100,120
1,74,100,0
1,79,100,0
1,69,100,960
1,72,100,0
1,74,100,0
1,76,100,0
1,69,100,0
1,76,100,0
1,76,100,0
1,76,100,0
1,76,100,0
1,76,100,0
1,76,100,0
1,76,100,0
1,76,100,0
1,76,100,0
1,76,100,0
1,76,100,0
1,74,100,0
1,76,100,0
1,74,100,0
1,76,100,0
1,74,100,0
1,76,100,0
1,74,100,0
1,76,100,0
1,76,100,0
1,76,100,0
1,76,100,0
1,76,100,0
1,76,100,0
1,76,100,0
1,76,100,0
1,76,100,0
1,76,100,0
1,74,100,0
1,67,100,0
1,76,100,0
1,76,100,0
1,76,100,0
1,76,100,0
1,76,100,0
1,74,100,0
1,76,100,0
1,74,100,0
1,76,100,0
1,74,100,0
1,76,100,0
1,74,100,0
1,76,100,0
1,76,100,0
1,76,100,0
1,76,100,0
1,76,100,0
1,76,100,0
2,44,100,480
2,43,100,240
2,41,100,1200
2,38,100,0
2,38,100,0
2,44,100,960
2,43,100,240
2,41,100,1200
2,38,100,0
2,38,100,0
2,33,100,720
2,36,100,0
2,38,100,0
2,38,100,0
2,33,100,2880
2,36,100,0
2,38,100,0
2,38,100,0
2,33,100,2880
2,36,100,0
2,38,100,0
2,38,100,0
2,33,100,2880
2,36,100,0
2,38,100,0
2,38,100,0
2,33,100,2880
2,36,100,0
2,38,100,0
2,38,100,0
2,33,100,2880
2,36,100,0
2,38,100,0
2,38,100,0
2,38,100,3600
2,38,100,0
2,30,100,0
2,31,100,0
2,32,100,0
2,33,100,0
2,33,100,0
2,35,100,0
2,35,100,0
2,36,100,0
2,36,100,0
2,37,100,0
2,37,100,0
2,38,100,0
2,38,100,0
2,38,100,0
2,38,100,0
2,30,100,0
2,31,100,0
2,32,100,0
2,33,100,0
2,33,100,0
2,35,100,0
2,35,100,0
2,36,100,0
2,36,100,0
2,37,100,0
2,37,100,0
2,38,100,0
2,38,100,0
2,38,100,0
2,38,100,0
2,30,100,0
2,31,100,0
2,32,100,0
2,33,100,0
2,33,100,0
2,35,100,0
2,35,100,0
2,36,100,0
2,36,100,0
2,37,100,0
2,37,100,0
2,38,100,0
2,38,100,0
2,38,100,0
2,38,100,0
2,30,100,0
2,31,100,0
2,32,100,0
2,33,100,0
2,33,100,0
2,35,100,0
2,35,100,0
2,36,100,0
2,36,100,0
2,37,100,0
2,37,100,0
2,38,100,0
2,33,100,2880
2,36,100,0
2,38,100,0
2,38,100,0
2,33,100,2880
2,36,100,0
2,38,100,0
2,38,100,0
2,33,100,2880
2,36,100,0
2,38,100,0
2,38,100,0
2,33,100,2880
2,36,100,0
2,38,100,0
2,38,100,0
2,33,100,2880
2,36,100,0
2,38,100,0
2,38,100,0
2,38,100,3600
2,38,100,0
2,30,100,0
2,31,100,0
2,32,100,0
2,33,100,0
2,33,100,0
2,35,100,0
2,35,100,0
2,36,100,0
2,36,100,0
2,37,100,0
2,37,100,0
2,38,100,0
2,38,100,0
2,38,100,0
2,38,100,0
2,30,100,0
2,31,100,0
2,32,100,0
2,33,100,0
2,33,100,0
2,35,100,0
2,35,100,0
2,36,100,0
2,36,100,0
2,37,100,0
2,37,100,0
2,38,100,0
2,38,100,0
2,38,100,0
2,38,100,0
2,30,100,0
2,31,100,0
2,32,100,0
2,33,100,0
2,33,100,0
2,35,100,0
2,35,100,0
2,36,100,0
2,36,100,0
2,37,100,0
2,37,100,0
2,38,100,0
2,38,100,0
2,38,100,0
2,38,100,0
2,30,100,0
2,31,100,0
2,32,100,0
2,33,100,0
2,33,100,0
2,35,100,0
2,35,100,0
2,36,100,0
2,36,100,0
2,37,100,0
2,37,100,0
2,38,100,0
2,38,100,0
2,38,100,0
2,38,100,0
2,38,100,0
2,38,100,0
2,38,100,0
2,38,100,0
2,36,100,0
2,36,100,0
2,36,100,0
2,36,100,0
2,36,100,0
2,36,100,0
2,36,100,0
2,36,100,0
2,45,100,0
2,45,100,0
2,45,100,0
2,45,100,0
2,45,100,0
2,45,100,0
2,45,100,0
2,45,100,0
2,36,100,0
2,36,100,0
2,36,100,0
2,36,100,0
2,36,100,0
2,36,100,0
2,36,100,0
2,36,100,0
2,40,100,0
2,40,100,0
2,40,100,0
2,40,100,0
2,32,100,0
2,33,100,0
2,34,100,0
2,35,100,0
2,35,100,0
2,37,100,0
2,37,100,0
2,38,100,0
2,38,100,0
2,39,100,0
2,39,100,0
2,40,100,0
2,40,100,0
2,40,100,0
2,40,100,0
2,32,100,0
2,33,100,0
2,34,100,0
2,35,100,0
2,35,100,0
2,37,100,0
2,37,100,0
2,38,100,0
2,38,100,0
2,39,100,0
2,39,100,0
2,40,100,0
2,40,100,0
2,40,100,0
2,40,100,0
2,32,100,0
2,33,100,0
2,34,100,0
2,35,100,0
2,35,100,0
2,37,100,0
2,37,100,0
2,38,100,0
2,38,100,0
2,39,100,0
2,39,100,0
2,40,100,0
2,40,100,0
2,40,100,0
2,40,100,0
2,32,100,0
2,33,100,0
2,34,100,0
2,35,100,0
2,35,100,0
2,37,100,0
2,37,100,0
2,38,100,0
2,38,100,0
2,39,100,0
2,39,100,0
2,43,100,0
2,41,100,1200
2,38,100,0
2,38,100,0
2,44,100,960
2,43,100,240
2,41,100,1200
2,38,100,0
2,38,100,0
2,33,100,720
2,36,100,0
2,38,100,0
2,38,100,0
2,33,100,2880
2,36,100,0
2,38,100,0
2,38,100,0
2,33,100,2880
2,36,100,0
2,38,100,0
2,38,100,0
2,33,100,2880
2,36,100,0
2,38,100,0
2,38,100,0
2,33,100,2880
2,36,100,0
2,38,100,0
2,38,100,0
2,33,100,2880
2,36,100,0
2,38,100,0
2,38,100,0
2,38,100,3600
2,38,100,0
2,30,100,0
2,31,100,0
2,32,100,0
2,33,100,0
2,33,100,0
2,35,100,0
2,35,100,0
2,36,100,0
2,36,100,0
2,37,100,0
2,37,100,0
2,38,100,0
2,38,100,0
2,38,100,0
2,38,100,0
2,30,100,0
2,31,100,0
2,32,100,0
2,33,100,0
2,33,100,0
2,35,100,0
2,35,100,0
2,36,100,0
2,36,100,0
2,37,100,0
2,37,100,0
2,38,100,0
2,38,100,0
2,38,100,0
2,38,100,0
2,30,100,0
2,31,100,0
2,32,100,0
2,33,100,0
2,33,100,0
2,35,100,0
2,35,100,0
2,36,100,0
2,36,100,0
2,37,100,0
2,37,100,0
2,38,100,0
2,38,100,0
2,38,100,0
2,38,100,0
2,30,100,0
2,31,100,0
2,32,100,0
2,33,100,0
2,33,100,0
2,35,100,0
2,35,100,0
2,36,100,0
2,36,100,0
2,37,100,0
2,37,100,0
2,40,100,0
2,40,100,0
2,40,100,0
2,40,100,0
2,32,100,0
2,33,100,0
2,34,100,0
2,35,100,0
2,35,100,0
2,37,100,0
2,37,100,0
2,38,100,0
2,38,100,0
2,39,100,0
2,39,100,0
2,40,100,0
2,40,100,0
2,40,100,0
2,40,100,0
2,32,100,0
2,33,100,0
2,34,100,0
2,35,100,0
2,35,100,0
2,37,100,0
2,37,100,0
2,38,100,0
2,38,100,0
2,39,100,0
2,39,100,0
2,38,100,0
2,38,100,0
2,38,100,0
2,38,100,0
2,30,100,0
2,31,100,0
2,32,100,0
2,33,100,0
2,33,100,0
2,35,100,0
2,35,100,0
2,36,100,0
2,36,100,0
2,37,100,0
2,37,100,0
2,38,100,0
2,38,100,0
2,38,100,0
2,38,100,0
2,30,100,0
2,31,100,0
2,32,100,0
2,33,100,0
2,33,100,0
2,35,100,0
2,35,100,0
2,36,100,0
2,36,100,0
2,37,100,0
2,37,100,0
2,40,100,0
2,40,100,0
2,40,100,0
2,40,100,0
2,32,100,0
2,33,100,0
2,34,100,0
2,35,100,0
2,35,100,0
2,37,100,0
2,37,100,0
2,38,100,0
2,38,100,0
2,39,100,0
2,39,100,0
2,40,100,0
2,40,100,0
2,40,100,0
2,40,100,0
2,32,100,0
2,33,100,0
2,34,100,0
2,35,100,0
2,35,100,0
2,37,100,0
2,37,100,0
2,38,100,0
2,38,100,0
2,39,100,0
2,39,100,0
2,38,100,0
2,38,100,0
2,38,100,0
2,38,100,0
2,30,100,0
2,31,100,0
2,32,100,0
2,33,100,0
2,33,100,0
2,35,100,0
2,35,100,0
2,36,100,0
2,36,100,0
2,37,100,0
2,37,100,0
2,38,100,0
2,38,100,0
2,38,100,0
2,38,100,0
2,30,100,0
2,31,100,0
2,32,100,0
2,33,100,0
2,33,100,0
2,35,100,0
2,35,100,0
2,36,100,0
2,36,100,0
2,37,100,0
2,37,100,0
3,53,100,15600
3,53,100,0
3,53,100,0
3,53,100,0
3,53,100,0
3,50,100,0
3,50,100,0
3,48,100,0
3,50,100,0
3,48,100,0
3,50,100,0
3,48,100,0
3,53,100,720
3,53,100,0
3,53,100,0
3,53,100,0
3,50,100,0
3,48,100,0
3,50,100,0
3,48,100,0
3,50,100,0
3,48,100,0
3,53,100,960
3,53,100,0
3,53,100,0
3,48,100,0
3,48,100,0
3,48,100,0
3,48,100,0
3,50,100,0
3,50,100,0
3,50,100,0
3,48,100,0
3,48,100,480
3,50,100,0
3,50,100,0
3,48,100,0
3,50,100,0
3,50,100,0
3,50,100,0
3,48,100,0
3,53,100,3840
3,53,100,0
3,53,100,0
3,50,100,0
3,53,100,1920
3,53,100,0
3,53,100,0
3,50,100,0
3,53,100,1920
3,53,100,0
3,53,100,0
3,50,100,0
3,53,100,9840
3,53,100,0
3,53,100,0
3,53,100,0
3,53,100,0
3,53,100,0
3,53,100,0
3,48,100,0
3,50,100,0
3,53,100,0
3,50,100,0
3,50,100,0
3,53,100,480
3,53,100,0
3,53,100,0
3,53,100,0
3,53,100,0
3,48,100,0
3,50,100,0
3,53,100,0
3,50,100,0
3,50,100,0
3,53,100,1200
3,53,100,0
3,53,100,0
3,48,100,0
3,48,100,0
3,48,100,0
3,48,100,0
3,50,100,0
3,50,100,0
3,50,100,0
3,48,100,0
3,48,100,480
3,50,100,0
3,50,100,0
3,48,100,0
3,50,100,0
3,50,100,0
