track,note,velocity,time
1,62,127,1528
1,62,0,28
1,62,127,8
1,62,0,124
1,58,127,20
1,58,0,64
1,51,127,4
1,51,0,156
1,40,127,4
1,59,127,380
1,64,127,8
1,40,0,16
1,40,127,28
1,59,0,64
1,64,0,8
1,40,0,24
1,49,127,4
1,49,0,32
1,47,127,12
1,47,0,64
1,49,127,8
1,49,0,108
1,47,127,8
1,47,0,28
1,49,127,28
1,49,0,168
1,47,127,4
1,47,0,84
1,40,127,8
1,57,127,64
1,40,0,60
1,57,0,4
1,62,127,8
1,57,127,80
1,57,0,80
1,59,127,8
1,59,0,100
1,62,0,4
1,62,127,0
1,59,127,64
1,62,0,8
1,59,0,8
1,44,127,976
1,44,0,32
1,50,127,4
1,47,127,140
1,50,0,28
1,47,0,16
1,50,127,4
1,50,0,188
1,50,127,20
1,50,0,16
1,57,127,8
1,57,0,100
1,62,127,4
1,62,0,4
1,62,127,16
1,62,0,20
1,64,127,4
1,64,0,48
1,59,127,4
1,59,0,16
1,57,127,16
1,57,0,8
1,44,127,0
1,44,0,44
1,50,127,8
1,47,127,176
1,50,0,24
1,47,0,24
1,55,127,0
1,55,0,24
1,52,127,4
1,52,0,36
1,45,127,4
1,45,0,16
1,50,127,4
1,47,127,4
1,50,0,8
1,47,0,16
1,55,127,8
1,55,0,204
1,52,127,4
1,52,0,12
1,62,127,4
1,67,127,4
1,62,0,44
1,64,127,4
1,64,0,136
1,67,0,16
1,62,127,0
1,67,127,4
1,62,0,168
1,67,0,20
1,59,127,0
1,59,0,72
1,52,127,0
1,52,0,4
1,47,127,0
1,47,0,44
1,67,127,10156
1,71,127,8
1,71,0,128
1,67,0,16
1,64,127,0
1,64,0,24
1,67,127,4
1,67,0,52
1,64,127,0
1,64,0,20
1,45,127,4
1,45,0,64
1,50,127,4
1,50,0,44
1,47,127,8
1,47,0,4
1,50,127,12
1,50,0,120
1,50,127,8
1,50,0,16
1,74,127,12
1,74,0,4
1,76,127,24
1,76,0,36
1,74,127,32
1,74,0,80
1,69,127,4
1,69,0,64
1,64,127,0
1,64,0,24
1,67,127,12
1,67,0,4
1,74,127,0
1,74,0,20
1,76,127,20
1,76,0,24
1,74,127,16
1,74,0,68
1,69,127,8
1,69,0,4
1,71,127,4
1,71,0,8
1,69,127,12
1,69,0,4
1,67,127,4
1,67,0,24
1,67,127,4
1,67,0,12
1,64,127,0
1,64,0,8
1,67,127,0
1,67,0,76
1,64,127,0
1,64,0,84
1,67,127,8
1,67,0,8
1,56,127,8
1,56,0,8
1,62,127,4
1,62,0,24
1,64,127,4
1,64,0,88
1,67,127,4
1,67,0,12
1,64,127,0
1,64,0,8
1,74,127,8
1,74,0,12
1,74,127,32
1,74,0,8
1,76,127,4
1,76,0,4
1,74,127,0
1,74,0,44
1,69,127,0
1,69,0,8
1,71,127,4
1,71,0,44
1,76,127,0
1,76,0,96
1,69,127,8
1,69,0,48
1,71,127,4
1,71,0,64
1,62,127,44
1,62,0,108
1,69,127,4
1,69,0,4
1,68,127,0
1,68,0,20
1,69,127,4
1,69,0,36
1,71,127,4
1,76,127,16
1,76,0,76
1,71,0,16
1,79,127,20
1,79,0,108
1,76,127,24
1,76,0,24
1,69,127,16
1,69,0,12
1,71,127,4
1,71,0,28
1,76,127,16
1,76,0,56
1,74,127,4
1,74,0,8
1,69,127,40
1,69,0,32
1,67,127,4
1,67,0,16
1,64,127,0
1,64,0,20
1,53,127,4
1,53,0,4
1,62,127,4
1,62,0,12
1,64,127,4
1,64,0,88
1,67,127,0
1,67,0,44
1,64,127,12
1,64,0,12
1,52,127,4
1,52,0,20
1,44,127,4
1,44,0,12
1,50,127,4
1,47,127,184
1,50,0,8
1,47,0,52
1,55,127,8
1,55,0,20
1,52,127,4
1,52,0,28
1,50,127,0
1,50,0,48
1,69,127,4300
1,69,0,4
1,71,127,4
1,71,0,32
1,74,127,4
1,74,0,4
1,67,127,4116
1,67,0,16
1,67,127,4
1,67,0,28
1,62,127,8
1,62,0,48
1,59,127,0
1,59,0,20
1,62,127,0
1,62,0,8
1,64,127,0
1,64,0,4
1,64,127,4
1,64,0,36
1,62,127,4
1,62,0,4
1,57,127,4
1,57,0,92
1,62,127,0
1,62,0,28
1,59,127,120
1,59,0,64
1,52,127,4
1,52,0,12
1,52,127,4
1,52,0,24
1,47,127,4
1,47,0,4
1,48,127,16
1,48,0,4
1,76,127,4
1,76,0,12
1,74,127,4
1,74,0,16
1,75,127,4
1,75,0,16
1,76,127,4
1,76,0,28
1,74,127,0
1,74,0,8
1,69,127,4
1,69,0,56
1,64,127,0
1,64,0,36
1,62,127,4
1,62,0,24
1,67,127,0
1,67,0,8
1,61,127,4
1,61,0,24
1,67,127,4
1,67,0,72
1,64,127,0
1,64,0,40
1,62,127,4
1,62,0,24
1,57,127,4
1,57,0,72
1,64,127,4
1,58,127,4
1,58,0,16
1,57,127,0
1,64,0,40
1,57,0,4
1,52,127,0
1,52,0,32
1,50,127,0
1,50,0,40
1,52,127,0
1,52,0,28
2,33,100,4960
2,33,0,92
2,35,98,4
2,35,0,92
2,38,97,4
2,38,0,92
2,33,97,4
2,33,0,80
2,35,99,16
2,35,0,76
2,38,97,20
2,38,0,92
2,35,104,4
2,35,0,192
2,36,98,0
2,36,0,556
2,36,98,20
2,36,0,168
2,31,98,24
2,31,0,368
2,36,99,16
2,36,0,172
2,37,99,20
2,37,0,188
2,38,99,4
2,38,0,540
2,38,97,36
2,38,0,176
2,33,97,16
2,33,0,368
2,38,99,16
2,38,0,164
2,39,99,28
2,39,0,148
2,40,102,44
2,40,0,188
2,40,95,4
2,40,0,156
2,40,97,36
2,40,0,380
2,40,101,4
2,40,0,188
2,35,97,4
2,35,0,84
2,38,102,12
2,38,0,172
2,35,98,20
2,35,0,64
2,38,101,32
2,38,0,188
2,38,98,4
2,38,0,36
2,40,97,0
2,40,0,324
2,40,100,24
2,40,0,188
2,28,97,4
2,28,0,188
2,40,102,4
2,40,0,128
2,40,98,64
2,40,0,152
2,40,99,40
2,40,0,96
2,38,102,0
2,38,0,96
2,35,99,0
2,35,0,192
2,36,98,0
2,36,0,556
2,36,98,20
2,36,0,168
2,31,98,24
2,31,0,368
2,36,99,16
2,36,0,172
2,37,99,20
2,37,0,188
2,38,99,4
2,38,0,540
2,38,97,36
2,38,0,176
2,33,97,16
2,33,0,368
2,38,99,16
2,38,0,164
2,39,99,28
2,39,0,148
2,40,102,44
2,40,0,188
2,40,95,4
2,40,0,156
2,40,97,36
2,40,0,380
2,40,101,4
2,40,0,188
2,35,97,4
2,35,0,84
2,38,102,12
2,38,0,172
2,35,98,20
2,35,0,64
2,38,101,32
2,38,0,188
2,38,98,4
2,38,0,36
2,40,97,0
2,40,0,324
2,40,100,24
2,40,0,188
2,28,97,4
2,28,0,188
2,40,102,4
2,40,0,128
2,40,98,64
2,40,0,152
2,40,99,40
2,40,0,96
2,38,102,0
2,38,0,96
2,35,99,0
2,35,0,192
2,36,98,0
2,36,0,556
2,36,98,20
2,36,0,168
2,31,98,24
2,31,0,368
2,36,99,16
2,36,0,172
2,37,99,20
2,37,0,188
2,38,99,4
2,38,0,540
2,38,97,36
2,38,0,176
2,33,97,16
2,33,0,368
2,38,99,16
2,38,0,164
2,39,99,28
2,39,0,148
2,40,102,44
2,40,0,188
2,40,95,4
2,40,0,156
2,40,97,36
2,40,0,380
2,40,101,4
2,40,0,188
2,35,97,4
2,35,0,84
2,38,102,12
2,38,0,172
2,35,98,20
2,35,0,64
2,38,101,32
2,38,0,188
2,38,98,4
2,38,0,36
2,40,97,0
2,40,0,324
2,40,100,24
2,40,0,188
2,28,97,4
2,28,0,188
2,40,102,4
2,40,0,128
2,40,98,64
2,40,0,152
2,40,99,40
2,40,0,96
2,38,102,0
2,38,0,96
2,35,99,0
2,35,0,192
2,36,98,0
2,36,0,556
2,36,98,20
2,36,0,168
2,31,98,24
2,31,0,368
2,36,99,16
2,36,0,172
2,37,99,20
2,37,0,188
2,38,99,4
2,38,0,540
2,38,97,36
2,38,0,176
2,33,97,16
2,33,0,368
2,38,99,16
2,38,0,164
2,39,99,28
2,39,0,148
2,40,102,44
2,40,0,188
2,40,95,4
2,40,0,156
2,40,97,36
2,40,0,380
2,40,101,4
2,40,0,188
2,35,97,4
2,35,0,84
2,38,102,12
2,38,0,172
2,35,98,20
2,35,0,64
2,38,101,32
2,38,0,188
2,38,98,4
2,38,0,36
2,40,97,0
2,40,0,324
2,40,100,24
2,40,0,188
2,28,97,4
2,28,0,188
2,40,102,4
2,40,0,128
2,40,98,64
2,40,0,152
2,40,99,40
2,40,0,96
2,38,102,0
2,38,0,96
2,35,99,0
2,35,0,192
2,36,98,0
2,36,0,556
2,36,98,20
2,36,0,168
2,31,98,24
2,31,0,368
2,36,99,16
2,36,0,172
2,37,99,20
2,37,0,188
2,38,99,4
2,38,0,540
2,38,97,36
2,38,0,176
2,33,97,16
2,33,0,368
2,38,99,16
2,38,0,164
2,39,99,28
2,39,0,148
2,40,102,44
2,40,0,188
2,40,95,4
2,40,0,156
2,40,97,36
2,40,0,380
2,40,101,4
2,40,0,188
2,35,97,4
2,35,0,84
2,38,102,12
2,38,0,172
2,35,98,20
2,35,0,64
2,38,101,32
2,38,0,188
2,38,98,4
2,38,0,36
2,40,97,0
2,40,0,324
2,40,100,24
2,40,0,188
2,28,97,4
2,28,0,188
2,40,102,4
2,40,0,128
2,40,98,64
2,40,0,152
2,40,99,40
2,40,0,96
2,38,102,0
2,38,0,96
2,35,99,0
2,35,0,192
2,36,98,0
2,36,0,556
2,36,98,20
2,36,0,168
2,31,98,24
2,31,0,368
2,36,99,16
2,36,0,172
2,37,99,20
2,37,0,188
2,38,99,4
2,38,0,540
2,38,97,36
2,38,0,176
2,33,97,16
2,33,0,368
2,38,99,16
2,38,0,164
2,39,99,28
2,39,0,148
2,40,102,44
2,40,0,188
2,40,95,4
2,40,0,156
2,40,97,36
2,40,0,380
2,40,101,4
2,40,0,188
2,35,97,4
2,35,0,84
2,38,102,12
2,38,0,172
2,35,98,20
2,35,0,64
2,38,101,32
2,38,0,188
2,38,98,4
2,38,0,36
2,40,97,0
2,40,0,324
2,40,100,24
2,40,0,188
2,28,97,4
2,28,0,188
2,40,102,4
2,40,0,128
2,40,98,64
2,40,0,152
2,40,99,40
2,40,0,96
2,38,102,0
2,38,0,96
2,35,99,0
2,35,0,192
2,36,98,0
2,36,0,556
2,36,98,20
2,36,0,168
2,31,98,24
2,31,0,368
2,36,99,16
2,36,0,172
2,37,99,20
2,37,0,188
2,38,99,4
2,38,0,540
2,38,97,36
2,38,0,176
2,33,97,16
2,33,0,368
2,38,99,16
2,38,0,164
2,39,99,28
2,39,0,148
2,40,102,44
2,40,0,188
2,40,95,4
2,40,0,156
2,40,97,36
2,40,0,380
2,40,101,4
2,40,0,188
2,35,97,4
2,35,0,84
2,38,102,12
2,38,0,172
2,35,98,20
2,35,0,64
2,38,101,32
2,38,0,188
2,38,98,4
2,38,0,36
2,40,97,0
2,40,0,324
2,40,100,24
2,40,0,188
2,28,97,4
2,28,0,188
2,40,102,4
2,40,0,128
2,40,98,64
2,40,0,152
2,40,99,40
2,40,0,96
2,38,102,0
2,38,0,96
2,35,99,0
2,35,0,192
2,36,98,0
2,36,0,556
2,36,98,20
2,36,0,168
2,31,98,24
2,31,0,368
2,36,99,16
2,36,0,172
2,37,99,20
2,37,0,188
2,38,99,4
2,38,0,540
2,38,97,36
2,38,0,176
2,33,97,16
2,33,0,368
2,38,99,16
2,38,0,164
2,39,99,28
2,39,0,148
2,40,102,44
2,40,0,188
2,40,95,4
2,40,0,156
2,40,97,36
2,40,0,380
2,40,101,4
2,40,0,188
2,35,97,4
2,35,0,84
2,38,102,12
2,38,0,172
2,35,98,20
2,35,0,64
2,38,101,32
2,38,0,188
2,38,98,4
2,38,0,36
2,40,97,0
2,40,0,324
2,40,100,24
2,40,0,188
2,28,97,4
2,28,0,188
2,40,102,4
2,40,0,128
2,40,98,64
2,40,0,152
2,40,99,40
2,40,0,96
2,38,102,0
2,38,0,96
2,35,99,0
2,35,0,192
2,36,98,0
2,36,0,556
2,36,98,20
2,36,0,168
2,31,98,24
2,31,0,368
2,36,99,16
2,36,0,172
2,37,99,20
2,37,0,188
2,38,99,4
2,38,0,540
2,38,97,36
2,38,0,176
2,33,97,16
2,33,0,368
2,38,99,16
2,38,0,164
2,39,99,28
2,39,0,148
2,40,102,44
2,40,0,188
2,40,95,4
2,40,0,156
2,40,97,36
2,40,0,380
2,40,101,4
2,40,0,188
2,35,97,4
2,35,0,84
2,38,102,12
2,38,0,172
2,35,98,20
2,35,0,64
2,38,101,32
2,38,0,188
2,38,98,4
2,38,0,36
2,40,97,0
2,40,0,324
2,40,100,24
2,40,0,188
2,28,97,4
2,28,0,188
2,40,102,4
2,40,0,128
2,40,98,64
2,40,0,152
2,40,99,40
2,40,0,96
2,38,102,0
2,38,0,96
2,35,99,0
2,35,0,192
2,36,98,0
2,36,0,556
2,36,98,20
2,36,0,168
2,31,98,24
2,31,0,368
2,36,99,16
2,36,0,172
2,37,99,20
2,37,0,188
2,38,99,4
2,38,0,540
2,38,97,36
2,38,0,176
2,33,97,16
2,33,0,368
2,38,99,16
2,38,0,164
2,39,99,28
2,39,0,148
2,40,102,44
2,40,0,188
2,40,95,4
2,40,0,156
2,40,97,36
2,40,0,380
2,40,101,4
2,40,0,188
2,35,97,4
2,35,0,84
2,38,102,12
2,38,0,172
2,35,98,20
2,35,0,64
2,38,101,32
2,38,0,188
2,38,98,4
2,38,0,36
2,40,97,0
2,40,0,324
2,40,100,24
2,40,0,188
2,28,97,4
2,28,0,188
2,40,102,4
2,40,0,128
2,40,98,64
2,40,0,152
2,40,99,40
2,40,0,96
2,38,102,0
2,38,0,96
2,35,99,0
2,35,0,192
2,36,101,0
2,36,0,164
2,28,98,28
2,28,0,164
2,29,99,28
2,29,0,164
2,30,102,28
2,30,0,164
2,31,101,28
2,31,0,164
2,35,98,28
2,35,0,164
2,36,99,28
2,36,0,164
2,37,101,28
2,37,0,164
2,38,102,28
2,38,0,164
2,30,99,28
2,30,0,164
2,31,101,28
2,31,0,164
2,32,99,28
2,32,0,164
2,33,97,28
2,33,0,164
2,37,101,28
2,37,0,164
2,38,100,28
2,38,0,164
2,39,102,28
2,39,0,164
2,40,102,28
2,40,0,188
2,40,95,4
2,40,0,156
2,40,97,36
2,40,0,380
2,40,101,4
2,40,0,192
2,35,97,0
2,35,0,84
2,38,102,12
2,38,0,172
2,35,98,20
2,35,0,64
2,38,101,32
2,38,0,172
2,38,98,20
2,38,0,60
2,40,97,0
2,40,0,324
2,40,100,0
2,40,0,188
2,40,97,4
2,40,0,188
2,40,102,4
2,40,0,128
2,40,98,64
2,40,0,152
2,40,99,40
2,40,0,92
2,38,102,4
2,38,0,92
2,35,99,4
2,35,0,192
2,36,98,0
2,36,0,556
2,36,98,20
2,36,0,168
2,31,98,24
2,31,0,368
2,36,99,16
2,36,0,172
2,37,99,20
2,37,0,188
2,38,99,4
2,38,0,540
2,38,97,36
2,38,0,176
2,33,97,16
2,33,0,368
2,38,99,16
2,38,0,164
2,39,99,28
2,39,0,148
2,40,102,44
2,40,0,188
2,40,95,4
2,40,0,156
2,40,97,36
2,40,0,380
2,40,101,4
2,40,0,188
2,35,97,4
2,35,0,84
2,38,102,12
2,38,0,172
2,35,98,20
2,35,0,64
2,38,101,32
2,38,0,188
2,38,98,4
2,38,0,36
2,40,97,0
2,40,0,324
2,40,100,24
2,40,0,188
2,28,97,4
2,28,0,188
2,40,102,4
2,40,0,128
2,40,98,64
2,40,0,152
2,40,99,40
2,40,0,96
2,38,102,0
2,38,0,96
2,35,99,0
2,35,0,192
2,36,98,0
2,36,0,556
2,36,98,20
2,36,0,168
2,31,98,24
2,31,0,368
2,36,99,16
2,36,0,172
2,37,99,20
2,37,0,188
2,38,99,4
2,38,0,540
