track,note,velocity,time
1,78,20,16
1,90,23,8
1,66,117,68
1,42,126,44
1,66,118,0
1,69,120,72
1,64,122,1
1,93,127,3
1,88,127,0
1,69,127,44
1,105,127,3
1,78,117,96
1,54,117,72
1,78,126,4
1,93,127,77
1,88,127,0
1,40,127,191
1,76,117,0
1,37,119,15
1,73,122,0
1,30,125,9
1,66,118,12
1,66,127,76
1,42,127,4
1,45,126,460
1,71,119,76
1,47,123,1
1,48,121,75
1,72,127,0
1,93,126,76
1,88,122,0
1,73,122,0
1,49,119,4
1,95,127,44
1,88,125,0
1,52,126,0
1,54,122,24
1,42,127,124
1,93,117,76
1,88,120,0
1,64,127,192
1,100,127,0
1,78,127,76
1,54,126,4
1,54,127,72
1,78,123,3
1,40,125,268
1,76,119,0
1,37,120,64
1,66,120,12
1,30,120,0
1,42,127,4
1,66,127,75
1,42,124,4
1,93,118,77
1,88,127,3
1,69,125,1
1,64,127,3
1,71,123,332
1,72,117,76
1,49,127,73
1,93,125,3
1,88,124,0
1,73,127,0
1,59,127,48
1,95,126,0
1,52,121,45
1,88,126,0
1,54,127,25
1,66,118,12
1,42,123,44
1,69,127,75
1,64,125,1
1,78,127,140
1,78,127,77
1,93,127,77
1,88,122,3
1,40,127,188
1,76,119,0
1,37,124,12
1,73,118,3
1,66,126,12
1,30,127,0
1,42,117,8
1,66,127,0
1,42,127,73
1,66,127,3
1,69,117,76
1,64,120,0
1,93,127,4
1,88,127,0
1,45,124,140
1,69,118,3
1,47,127,76
1,71,127,0
1,72,127,76
1,57,124,73
1,52,127,3
1,49,123,0
1,93,121,4
1,88,126,0
1,73,127,0
1,59,127,44
1,95,126,0
1,52,127,0
1,88,124,0
1,54,118,28
1,90,119,0
1,66,127,12
1,66,127,44
1,69,127,76
1,64,120,1
1,64,127,0
1,100,127,0
1,105,127,52
1,54,117,73
1,78,118,3
1,78,120,76
1,69,124,72
1,64,119,1
1,40,126,192
1,76,126,3
1,37,123,16
1,73,127,0
1,30,127,12
1,66,119,12
1,42,127,4
1,66,127,76
1,69,123,73
1,64,127,3
1,93,127,0
1,88,118,0
1,45,127,144
1,69,121,0
1,71,124,76
1,47,120,4
1,72,127,75
1,48,122,1
1,49,127,76
1,57,127,1
1,52,127,3
1,93,120,0
1,88,127,0
1,73,127,0
1,59,126,44
1,95,127,0
1,52,119,0
1,88,118,0
1,54,127,28
1,90,118,0
1,42,121,12
1,66,124,0
1,66,124,44
1,42,127,4
1,69,124,73
1,64,127,3
1,93,127,4
1,88,127,0
1,100,124,188
1,69,127,45
1,78,127,76
1,54,118,4
1,78,118,76
1,54,127,0
1,69,127,76
1,64,127,0
1,40,127,189
1,37,127,12
1,73,122,3
1,66,122,12
1,30,127,0
1,42,127,4
1,42,126,72
1,66,127,3
1,93,127,76
1,88,127,1
1,45,121,143
1,69,127,0
1,47,127,73
1,71,122,3
1,72,126,76
1,49,123,73
1,57,124,3
1,52,127,0
1,59,127,48
1,95,120,0
1,52,127,0
1,54,127,25
1,42,122,8
1,66,123,47
1,42,127,1
1,93,127,75
1,88,125,0
1,69,119,4
1,64,127,0
1,64,119,0
1,100,127,0
1,69,127,44
1,54,121,72
1,78,120,4
1,54,127,76
1,78,126,0
1,40,127,265
1,76,122,4
1,73,123,63
1,30,123,12
1,66,127,12
1,66,120,76
1,42,127,1
1,69,124,76
1,64,124,0
1,93,127,0
1,88,127,1
1,69,127,143
1,45,125,4
1,47,121,80
1,48,125,73
1,57,127,76
1,52,120,0
1,93,127,0
1,88,127,1
1,73,119,3
1,59,127,41
1,95,123,3
1,88,127,0
1,90,127,28
1,54,95,29
1,61,86,28
1,52,98,184
1,59,80,51
1,71,82,289
1,73,79,3
1,76,76,3
1,72,73,3
1,73,85,3
1,78,75,3
1,54,97,0
1,61,85,48
1,52,81,184
1,59,81,51
1,71,74,289
1,73,79,3
1,76,72,3
1,72,73,3
1,73,80,3
1,78,89,3
1,54,127,0
1,84,126,196
1,85,127,3
1,81,122,3
1,85,120,0
1,85,123,1
1,81,119,100
1,78,118,23
1,42,121,220
1,66,127,47
1,69,123,73
1,64,120,3
1,64,120,0
1,100,127,0
1,105,119,52
1,54,127,73
1,78,127,3
1,54,125,76
1,78,127,0
1,93,121,80
1,88,124,0
1,40,127,185
1,76,122,4
1,37,125,15
1,73,118,0
1,30,119,12
1,42,125,9
1,66,123,3
1,42,118,76
1,66,127,0
1,69,124,73
1,64,119,3
1,93,127,1
1,88,127,0
1,45,126,140
1,69,127,4
1,48,127,268
1,49,127,76
1,57,120,0
1,52,118,0
1,59,122,45
1,95,127,3
1,52,127,0
1,88,119,3
1,90,117,28
1,54,120,0
1,42,127,8
1,66,127,4
1,42,118,41
1,66,127,3
1,69,127,73
1,64,127,3
1,93,117,1
1,88,127,3
1,64,125,0
1,100,119,0
1,105,127,48
1,69,120,0
1,78,127,76
1,54,127,73
1,78,118,3
1,93,127,76
1,88,127,0
1,69,127,4
1,64,120,0
1,40,127,185
1,76,127,3
1,37,127,12
1,30,127,9
1,66,121,3
1,42,127,4
1,66,127,76
1,93,127,76
1,88,122,0
1,69,127,1
1,64,127,3
1,45,127,140
1,69,127,0
1,47,127,76
1,48,127,77
1,49,119,71
1,57,127,4
1,52,117,0
1,93,126,0
1,88,118,0
1,73,127,1
1,88,121,0
1,54,119,25
1,90,126,3
1,42,127,8
1,66,123,4
1,42,121,45
1,93,124,75
1,88,123,0
1,64,127,189
1,100,118,3
1,105,119,47
1,69,120,0
1,54,127,72
1,78,117,4
1,78,122,76
1,54,127,1
1,69,127,76
1,64,127,0
1,93,127,4
1,88,127,0
1,40,127,188
1,76,127,0
1,73,127,12
1,30,121,12
1,42,127,137
1,66,120,3
1,93,124,76
1,88,117,0
1,69,127,4
1,64,127,0
1,69,118,140
1,45,127,1
1,72,123,268
1,49,127,73
1,57,127,3
1,52,127,0
1,93,127,4
1,88,124,0
1,73,119,0
1,59,127,44
1,52,127,0
1,88,127,0
1,66,117,12
1,42,124,0
1,42,124,41
1,66,124,3
1,93,127,76
1,88,124,1
1,100,127,191
1,69,126,47
1,78,127,76
1,54,127,4
1,54,127,76
1,78,127,0
1,73,127,332
1,30,121,61
1,66,118,3
1,42,127,12
1,42,127,76
1,66,125,0
1,69,127,460
1,45,124,4
1,72,127,267
1,57,117,73
1,52,127,3
1,49,119,1
1,93,124,3
1,88,118,0
1,73,126,0
1,59,127,41
1,95,127,3
1,88,127,0
1,66,127,12
1,42,124,41
1,66,123,3
1,93,127,76
1,88,118,0
1,69,127,4
1,64,118,0
1,100,121,188
1,78,127,76
1,78,119,76
1,54,123,1
1,69,118,75
1,64,124,0
1,93,119,0
1,88,127,1
1,40,121,191
1,76,117,0
1,37,127,15
1,73,127,0
1,30,127,9
1,66,127,3
1,66,127,140
1,93,127,77
1,88,119,3
1,69,127,143
1,47,127,76
1,48,127,73
1,72,127,3
1,49,127,72
1,57,119,1
1,52,127,3
1,93,127,1
1,88,119,3
1,73,120,0
1,95,118,44
1,90,121,28
1,54,126,0
1,66,123,60
1,42,121,0
1,66,121,43
1,93,127,76
1,88,127,0
1,69,127,4
1,64,127,0
1,64,125,0
1,105,127,47
1,69,127,0
1,54,127,76
1,78,117,0
1,54,127,76
1,93,120,76
1,88,127,0
1,40,124,189
1,76,118,3
1,37,127,12
1,73,127,3
1,66,124,12
1,30,119,0
1,42,127,4
1,42,117,72
1,66,123,4
1,93,125,76
1,88,124,1
1,69,118,3
1,64,122,0
1,69,127,140
1,47,120,72
1,71,117,4
1,48,126,76
1,93,127,76
1,88,127,0
1,73,120,0
1,59,127,48
1,88,127,0
1,52,125,0
1,90,127,28
1,54,92,29
1,61,89,28
1,52,93,184
1,59,97,51
1,71,90,289
1,73,78,3
1,76,89,3
1,72,91,3
1,73,73,3
1,78,83,3
1,54,82,0
1,61,97,48
1,52,93,184
1,59,94,51
1,71,73,289
1,73,81,3
1,76,91,3
1,72,90,3
1,73,85,3
1,78,89,3
1,54,127,0
1,84,127,196
1,85,122,3
1,81,127,3
1,85,126,0
1,85,120,1
1,81,127,100
1,78,125,23
1,42,127,224
1,42,120,44
1,93,122,75
1,88,127,0
1,100,123,192
1,105,120,47
1,69,121,0
1,54,127,76
1,78,127,0
1,54,122,76
1,78,120,0
1,93,117,76
1,88,122,1
1,40,127,188
1,76,127,4
1,73,126,15
1,30,121,9
1,66,127,3
1,66,127,140
1,69,127,76
1,64,120,0
1,69,117,143
1,47,126,76
1,72,127,76
1,48,127,4
1,49,127,72
1,57,120,3
1,52,120,0
1,59,123,45
1,52,126,0
1,54,127,25
1,90,118,3
1,66,119,12
1,42,127,40
1,66,127,4
1,93,127,76
1,88,124,1
1,64,126,188
1,69,117,44
1,105,122,3
1,54,127,72
1,78,123,4
1,78,127,76
1,69,127,72
1,64,127,1
1,40,127,195
1,76,127,0
1,37,123,13
1,73,127,3
1,66,127,12
1,30,127,0
1,42,127,4
1,93,125,268
1,88,124,0
1,69,124,4
1,64,127,0
1,69,127,140
1,45,127,4
1,71,124,76
1,47,127,4
1,72,120,75
1,48,119,4
1,49,119,73
1,93,127,3
1,88,127,1
1,73,127,3
1,59,127,44
1,52,123,48
1,88,127,0
1,42,127,12
1,66,124,0
1,66,118,44
1,93,123,76
1,88,120,0
1,69,121,1
1,64,122,3
1,100,127,188
1,105,127,44
1,69,127,0
1,54,127,76
1,78,118,0
1,54,127,72
1,78,118,4
1,69,127,73
1,64,127,3
1,93,127,4
1,88,124,0
1,40,121,185
1,76,127,4
1,73,127,16
1,30,122,9
1,66,117,3
1,42,126,4
1,42,127,75
1,66,121,0
1,69,127,76
1,64,120,0
1,93,127,1
1,88,127,3
1,69,117,143
1,47,127,76
1,71,127,0
1,72,122,76
1,49,119,72
1,57,117,1
1,52,127,3
1,93,127,0
1,88,127,0
1,73,120,1
1,59,127,44
1,95,127,3
1,88,127,0
1,54,126,28
1,90,119,0
1,66,127,12
1,42,127,41
1,93,127,76
1,88,127,4
1,64,127,188
1,69,127,44
1,54,127,73
1,54,119,76
1,78,127,0
1,69,127,72
1,64,120,1
1,93,127,3
1,88,127,0
1,37,118,15
1,73,124,0
1,66,127,64
1,30,127,0
1,42,127,4
1,69,119,264
1,64,127,3
1,93,123,0
1,88,122,1
1,45,127,140
1,69,118,4
1,47,119,77
1,48,126,71
1,72,125,4
1,57,117,73
1,52,127,3
1,49,124,0
1,93,117,1
1,88,123,3
1,73,127,0
1,59,127,41
1,95,122,3
1,52,127,0
1,88,127,0
1,90,127,28
1,54,117,0
1,54,84,0
1,61,81,28
1,52,78,184
1,59,92,51
1,71,85,289
1,73,82,3
1,76,80,3
1,72,76,3
1,73,73,3
1,78,85,3
1,54,117,0
1,84,120,196
1,85,127,3
1,81,127,3
1,85,127,0
1,85,123,1
1,81,122,100
1,78,127,23
2,30,72,0
2,42,6,24
2,54,62,24
2,66,127,24
2,24,127,48
2,24,127,0
2,24,127,96
2,24,127,189
2,36,127,192
2,36,127,0
2,36,127,373
2,36,127,100
2,24,127,96
2,24,127,201
2,24,127,820
2,24,127,220
2,24,127,181
2,24,127,100
2,36,127,96
2,36,127,0
2,51,125,0
2,46,127,1
2,46,127,0
2,46,127,239
2,51,118,193
2,46,127,3
2,46,127,0
2,46,127,0
2,29,121,103
2,29,121,0
2,30,117,96
2,30,117,128
2,30,117,172
2,24,127,5
2,24,127,0
2,51,127,7
2,46,118,0
2,46,118,0
2,46,118,99
2,36,127,76
2,36,127,0
2,36,127,128
2,36,127,0
2,24,127,96
2,24,127,0
2,24,127,200
2,29,119,340
2,29,119,289
2,29,119,112
2,24,127,73
2,24,127,0
2,51,117,8
2,46,127,0
2,46,127,0
2,36,121,143
2,51,127,200
2,46,127,0
2,24,121,144
2,24,121,0
2,24,121,96
2,24,121,268
2,24,121,432
2,24,121,97
2,31,127,13
2,31,127,0
2,31,127,28
2,31,127,172
2,31,127,128
2,31,127,73
2,36,126,96
2,36,126,192
2,24,127,25
2,24,127,0
2,51,123,192
2,46,127,0
2,46,127,0
2,46,127,432
2,46,127,112
2,46,127,219
2,46,127,25
2,51,127,8
2,46,124,0
2,46,124,0
2,36,127,144
2,36,127,0
2,36,126,3
2,36,126,0
2,36,126,188
2,36,126,121
2,36,126,388
2,27,127,196
2,27,127,0
2,29,119,96
2,29,119,0
2,29,119,25
2,31,121,13
2,31,121,0
2,54,89,100
2,58,89,0
2,61,89,0
2,54,86,0
2,58,86,0
2,61,86,0
2,54,92,0
2,58,92,0
2,61,92,0
2,58,91,0
2,61,91,0
2,66,91,0
2,58,87,0
2,61,87,0
2,66,87,0
2,61,83,52
2,66,83,0
2,70,83,0
2,52,80,52
2,56,80,0
2,59,80,0
2,56,97,0
2,59,97,0
2,64,97,0
2,59,83,52
2,64,83,0
2,68,83,0
2,54,91,245
2,58,91,3
2,61,91,0
2,54,95,0
2,58,95,0
2,61,95,0
2,54,83,0
2,58,83,0
2,61,83,0
2,58,92,0
2,61,92,0
2,66,92,0
2,58,78,0
2,61,78,0
2,66,78,0
2,61,86,52
2,66,86,0
2,70,86,0
2,52,95,52
2,56,95,0
2,59,95,0
2,56,90,0
2,59,90,0
2,64,90,0
2,59,81,52
2,64,81,0
2,68,81,0
2,48,127,244
2,54,121,12
2,57,127,12
2,63,122,12
2,66,127,12
2,31,121,1140
2,24,127,4
2,24,127,200
2,24,127,241
2,36,127,96
2,36,127,0
2,36,127,124
2,36,127,241
2,36,127,109
2,36,127,412
2,29,121,96
2,29,121,0
2,29,121,96
2,29,121,304
2,29,121,404
2,29,121,120
2,36,127,103
2,36,127,185
2,24,127,144
2,24,127,0
2,24,127,96
2,24,127,208
2,24,127,264
2,30,117,20
2,30,117,0
2,30,117,24
2,30,117,171
2,30,117,97
2,30,117,200
2,30,117,75
2,30,117,27
2,51,120,96
2,46,118,1
2,46,118,0
2,46,118,76
2,24,127,76
2,24,127,0
2,24,127,196
2,27,126,152
2,27,126,0
2,27,126,84
2,30,126,76
2,30,126,0
2,31,127,16
2,24,127,5
2,24,127,0
2,51,127,128
2,46,127,1
2,46,127,428
2,46,127,124
2,46,127,121
2,46,127,88
2,51,122,80
2,46,127,0
2,46,127,0
2,27,127,24
2,27,127,0
2,27,127,112
2,27,127,84
2,31,127,4
2,31,127,0
2,31,127,100
2,31,127,97
2,51,127,80
2,46,127,1
2,46,127,236
2,36,125,0
2,36,125,196
2,36,125,313
2,36,125,124
2,36,125,244
2,29,127,93
2,31,127,199
2,31,127,0
2,24,124,4
2,24,124,96
2,51,123,7
2,46,122,0
2,46,122,0
2,36,123,152
2,36,127,7
2,51,127,3
2,46,122,0
2,46,122,0
2,24,126,145
2,24,126,96
2,24,126,412
2,30,127,181
2,30,127,0
2,30,127,113
2,54,96,20
2,58,96,0
2,61,96,0
2,54,94,0
2,58,94,0
2,61,94,0
2,54,78,0
2,58,78,0
2,61,78,0
2,58,78,0
2,61,78,0
2,66,78,0
2,58,87,0
2,61,87,0
2,66,87,0
2,61,95,52
2,66,95,0
2,70,95,0
2,52,92,52
2,56,92,0
2,59,92,0
2,56,85,0
2,59,85,0
2,64,85,0
2,59,96,52
2,64,96,0
2,68,96,0
2,54,98,245
2,58,98,3
2,61,98,0
2,54,92,0
2,58,92,0
2,61,92,0
2,54,97,0
2,58,97,0
2,61,97,0
2,58,85,0
2,61,85,0
2,66,85,0
2,58,92,0
2,61,92,0
2,66,92,0
2,61,80,52
2,66,80,0
2,70,80,0
2,52,81,52
2,56,81,0
2,59,81,0
2,56,98,0
2,59,98,0
2,64,98,0
2,59,91,52
2,64,91,0
2,68,91,0
2,48,124,244
2,54,123,12
2,57,120,12
2,63,127,12
2,66,119,12
2,24,127,1233
2,24,127,0
2,24,127,200
2,24,127,100
2,24,127,28
2,24,127,208
2,24,127,73
2,24,124,77
2,24,124,0
2,24,124,196
2,24,124,100
2,24,124,99
2,30,127,100
2,30,127,0
2,30,127,24
2,24,121,103
