track,note,velocity,time
1,78,100,23760
1,76,100,0
1,78,100,0
1,73,100,0
1,73,100,0
1,76,100,480
1,73,100,0
1,71,100,0
1,73,100,0
1,69,100,0
1,69,100,0
1,73,100,5280
1,78,100,0
1,76,100,0
1,78,100,0
1,73,100,0
1,73,100,0
1,76,100,480
1,73,100,0
1,73,100,0
1,78,100,0
1,66,100,0
1,66,100,0
1,78,100,3000
1,71,100,1680
1,78,100,0
1,76,100,0
1,78,100,0
1,76,100,0
1,78,100,0
1,81,100,2400
1,78,100,0
1,78,100,0
1,76,100,0
1,73,100,0
1,73,100,0
1,85,100,2640
1,81,100,0
1,78,100,0
1,78,100,0
1,73,100,0
1,85,100,2040
1,66,100,0
1,73,100,18480
1,81,100,0
1,81,100,0
1,73,100,600
1,78,100,0
1,78,100,0
1,78,100,0
1,76,100,0
1,78,100,0
1,76,100,3120
1,73,100,0
1,73,100,1440
1,81,100,0
1,78,100,0
1,78,100,0
1,76,100,16
1,78,100,480
1,76,100,0
1,73,100,0
1,88,80,0
1,87,80,40
1,86,80,4
1,85,80,4
1,84,80,4
1,83,80,4
1,82,80,4
1,81,80,4
1,80,80,4
1,79,80,4
1,78,80,4
1,77,80,4
1,76,80,4
1,76,100,1204
1,73,100,0
1,66,100,0
1,78,100,1440
1,78,100,0
1,76,100,0
1,73,100,960
1,80,100,0
1,78,100,0
1,78,100,0
1,78,100,0
1,73,100,2160
1,78,100,0
1,76,100,0
1,71,100,0
1,71,100,0
1,71,100,0
1,71,100,0
1,73,100,0
1,73,100,0
1,83,100,2160
1,81,100,0
1,78,100,0
1,78,100,0
1,73,100,0
1,71,100,480
1,71,100,0
1,83,100,1200
1,71,100,0
1,73,100,53400
1,78,100,0
1,76,100,0
1,78,100,0
1,76,100,0
1,78,100,0
1,80,100,2400
1,78,100,0
1,78,100,0
1,76,100,0
1,73,100,0
1,73,100,0
1,78,100,2160
1,83,100,0
1,81,100,0
1,78,100,0
1,78,100,0
1,73,100,0
1,85,100,2040
1,73,100,0
1,73,100,4800
1,71,100,0
1,73,100,0
1,66,100,0
1,66,100,0
2,78,80,1920
2,90,90,41560
2,92,90,920
2,85,90,10080
2,83,90,0
2,93,90,0
2,91,90,0
2,90,90,0
2,90,100,876
2,90,100,17352
2,90,100,0
2,79,100,20
3,59,111,120
3,54,127,0
3,55,110,0
3,42,110,0
3,42,95,0
3,54,110,0
3,64,110,0
3,69,110,0
3,69,95,0
3,64,95,0
3,52,95,0
3,54,95,0
3,54,95,0
3,54,110,0
3,64,110,0
3,69,110,0
3,52,95,0
3,42,110,0
3,42,110,0
3,69,110,0
3,64,110,0
3,54,110,0
3,45,95,0
3,45,110,0
3,46,95,0
3,47,110,0
3,48,110,0
3,49,95,0
3,42,110,0
3,42,110,0
3,54,110,0
3,64,110,0
3,69,110,0
3,69,95,0
3,64,95,0
3,52,95,0
3,54,110,0
3,54,110,0
3,69,110,240
3,64,110,0
3,52,95,0
3,49,110,0
3,42,110,0
3,69,110,0
3,64,110,0
3,54,110,0
3,42,95,0
3,42,95,0
3,45,110,0
3,46,95,0
3,59,110,0
3,52,110,0
3,47,110,0
3,48,110,0
3,53,110,0
3,60,110,0
3,49,110,0
3,54,110,0
3,61,110,0
3,57,110,0
3,65,95,0
3,59,95,0
3,65,95,12
3,57,95,8
3,59,95,0
3,60,95,0
3,59,95,0
3,60,95,0
3,59,95,0
3,60,95,0
3,59,95,0
3,61,95,0
3,78,95,0
3,59,95,0
3,52,95,0
3,57,95,0
3,54,95,0
3,59,95,0
3,42,110,0
3,42,110,0
3,42,95,0
3,69,110,0
3,64,110,0
3,54,110,0
3,69,95,0
3,64,95,0
3,54,110,0
3,54,110,0
3,69,110,240
3,64,110,0
3,54,110,0
3,52,95,0
3,49,95,0
3,42,95,0
3,42,95,0
3,49,95,0
3,52,95,0
3,42,95,0
3,49,95,0
3,52,95,0
3,64,95,0
3,61,95,0
3,54,95,0
3,64,95,0
3,61,95,0
3,54,95,0
3,64,95,180
3,61,95,0
3,54,95,0
3,54,95,0
3,61,95,0
3,64,95,0
3,42,110,60
3,42,110,0
3,69,110,0
3,64,110,0
3,54,110,0
3,54,95,0
3,64,95,0
3,69,95,0
3,54,110,0
3,54,110,0
3,69,110,240
3,64,110,0
3,42,110,0
3,42,110,0
3,69,110,0
3,64,110,0
3,54,110,0
3,69,95,0
3,64,95,0
3,45,110,40
3,46,95,0
3,47,110,0
3,48,110,0
3,49,110,0
3,42,110,0
3,42,110,0
3,42,110,0
3,69,110,0
3,64,110,0
3,54,110,0
3,69,95,0
3,64,95,0
3,54,110,0
3,54,110,0
3,54,110,240
3,69,110,0
3,64,110,0
3,52,95,0
3,49,110,0
3,42,110,0
3,69,110,0
3,64,110,0
3,54,110,0
3,55,95,0
3,69,110,0
3,64,110,0
3,54,110,0
3,64,95,0
3,69,95,0
3,61,95,0
3,64,95,0
3,61,95,0
3,57,95,0
3,64,95,0
3,54,95,0
3,59,95,0
3,64,95,0
3,42,110,0
3,42,110,0
3,69,110,0
3,64,110,0
3,54,110,0
3,69,95,0
3,64,95,0
3,54,110,0
3,54,110,0
3,69,110,0
3,64,110,0
3,54,110,0
3,45,95,0
3,42,110,0
3,42,110,0
3,69,110,0
3,64,110,0
3,54,110,0
3,64,95,0
3,69,95,0
3,45,110,0
3,46,95,0
3,47,110,0
3,48,110,0
3,49,95,0
3,42,110,0
3,69,110,0
3,64,110,0
3,54,110,0
3,54,110,0
3,54,110,0
3,69,110,0
3,64,110,0
3,54,110,0
3,52,95,0
3,49,110,0
3,42,110,0
3,69,95,0
3,64,95,0
3,54,95,0
3,59,95,0
3,64,95,0
3,61,114,0
3,61,114,0
3,66,114,0
3,61,114,0
3,61,114,0
3,61,114,0
3,59,114,0
3,57,114,0
3,54,114,0
3,42,110,0
3,42,110,0
3,54,110,0
3,54,95,0
3,42,110,0
3,42,110,0
3,54,110,0
3,41,95,0
3,53,95,0
3,40,110,0
3,59,110,0
3,56,95,8
3,52,95,8
3,47,95,8
3,47,95,0
3,54,95,0
3,47,95,0
3,54,95,0
3,47,95,0
3,56,95,0
3,54,95,0
3,49,95,0
3,51,95,0
3,54,95,0
3,42,110,0
3,42,110,0
3,69,110,0
3,64,110,0
3,54,110,0
3,54,95,0
3,54,95,0
3,42,110,0
3,54,110,0
3,42,110,0
3,69,110,0
3,64,110,0
3,54,110,0
3,52,95,0
3,54,95,0
3,40,110,0
3,40,110,0
3,47,95,0
3,40,95,0
3,45,95,0
3,46,95,0
3,47,110,0
3,45,95,0
3,47,110,0
3,45,95,0
3,47,110,0
3,47,110,0
3,49,95,0
3,42,110,0
3,42,110,0
3,69,110,0
3,64,110,0
3,54,110,0
3,69,95,0
3,64,95,0
3,64,95,0
3,69,95,0
3,42,110,0
3,54,110,0
3,42,110,0
3,54,110,0
3,42,95,0
3,54,95,0
3,69,110,0
3,64,110,0
3,54,110,0
3,69,95,0
3,64,95,0
3,54,95,0
3,69,95,0
3,64,95,0
3,54,95,0
3,69,95,0
3,64,95,0
3,54,95,0
3,40,110,0
3,47,110,0
3,52,110,0
3,52,110,0
3,47,110,0
3,40,110,0
3,47,110,0
3,52,95,8
3,56,95,8
3,59,95,8
3,44,95,0
3,47,95,0
3,61,95,0
3,57,95,0
3,52,95,0
3,45,95,0
3,47,95,0
3,54,95,0
3,59,95,0
3,63,95,0
3,63,95,0
3,59,95,0
3,54,95,0
3,47,95,0
3,63,110,0
3,59,110,0
3,54,110,0
3,47,110,0
3,45,110,0
3,52,110,0
3,57,110,0
3,61,110,0
3,42,110,0
3,49,110,0
3,54,110,0
3,78,30,120
3,80,30,960
3,73,110,12
3,69,110,0
3,75,110,0
3,75,110,0
3,75,110,0
3,69,110,0
3,66,95,0
3,66,95,0
3,42,110,0
3,42,110,0
3,69,110,0
3,64,110,0
3,54,110,0
3,50,95,0
3,56,95,0
3,54,110,40
3,54,110,0
3,69,110,240
3,64,110,0
3,49,95,0
3,42,110,0
3,42,110,0
3,69,110,0
3,64,110,0
3,54,110,0
3,69,95,0
3,64,95,0
3,43,95,40
3,40,95,0
3,43,95,0
3,40,95,0
3,50,95,0
3,52,95,0
3,54,95,0
3,42,110,0
3,42,110,0
3,42,95,0
3,54,110,0
3,69,110,0
3,64,95,0
3,50,95,0
3,45,95,0
3,54,95,40
3,54,95,0
3,69,110,0
3,64,110,0
3,54,110,0
3,52,95,0
3,53,95,0
3,49,95,0
3,42,95,0
3,69,95,0
3,64,95,0
3,54,95,0
3,55,95,0
3,59,95,0
3,64,95,0
3,49,95,0
3,56,95,0
3,49,95,0
3,47,95,0
3,49,95,0
3,61,95,0
3,59,95,0
3,61,95,0
3,59,95,0
3,62,95,0
3,67,95,0
3,66,95,0
3,66,95,0
3,50,95,0
3,61,95,0
3,57,95,0
3,49,95,0
3,54,95,0
3,57,95,0
3,52,95,0
3,47,95,0
3,48,95,0
3,47,95,0
3,45,95,0
3,47,95,0
3,42,110,0
3,42,110,0
3,69,110,0
3,64,110,0
3,69,95,0
3,64,95,0
3,54,95,20
3,54,110,0
3,54,110,0
3,69,110,0
3,64,110,0
3,52,95,0
3,52,95,0
3,49,110,0
3,42,110,0
3,69,110,0
3,64,110,0
3,59,110,0
3,54,110,0
3,45,95,0
3,54,95,0
3,64,95,0
3,69,95,0
3,45,95,0
3,54,95,0
3,64,95,0
3,69,95,0
3,61,110,0
3,64,110,0
3,61,95,0
3,66,110,0
3,64,95,0
3,61,110,0
3,42,110,0
3,42,95,0
3,69,110,0
3,64,110,0
3,54,110,0
3,54,110,0
3,54,110,0
3,64,110,240
3,69,110,0
3,54,95,0
3,42,110,0
3,42,95,0
3,42,110,0
3,69,110,0
3,64,110,0
3,54,110,0
3,54,110,0
3,54,95,0
3,45,110,0
3,50,110,0
3,51,95,0
3,46,95,0
3,47,110,0
3,52,110,0
3,48,110,0
3,52,110,0
3,49,110,0
3,52,110,0
3,42,110,0
3,42,110,0
3,64,95,0
3,69,95,0
3,54,110,0
3,64,110,0
3,69,110,0
3,52,95,0
3,54,110,40
3,54,110,0
3,69,110,0
3,64,110,0
3,54,110,0
3,52,95,0
3,40,110,0
3,42,110,0
3,69,110,0
3,64,110,0
3,54,110,0
3,54,95,0
3,64,95,0
3,69,95,0
3,54,95,0
3,64,95,0
3,69,95,0
3,50,110,0
3,45,110,0
3,57,110,0
3,45,95,0
3,57,95,0
3,40,95,0
3,47,95,0
3,52,95,0
3,59,95,0
3,48,110,0
3,53,110,0
3,60,110,0
3,61,110,0
3,54,110,0
3,49,110,0
3,40,110,0
3,42,110,0
3,69,110,0
3,64,110,0
3,64,95,0
3,69,95,0
3,50,95,0
3,54,110,0
3,54,110,0
3,69,110,0
3,64,110,0
3,54,110,0
3,64,95,0
3,69,95,0
3,64,95,0
3,69,95,0
3,54,110,0
3,42,110,0
3,42,110,0
3,64,110,0
3,69,110,0
3,45,95,0
3,45,110,0
3,46,95,0
3,47,110,0
3,48,110,0
3,49,110,0
3,40,110,0
3,42,110,0
3,54,110,0
3,64,110,0
3,69,110,0
3,52,95,0
3,54,110,0
3,54,110,0
3,69,110,240
3,64,110,0
3,52,95,0
3,52,95,0
3,40,110,0
3,42,110,0
3,54,110,0
3,64,110,0
3,69,110,0
3,54,95,0
3,64,95,0
3,69,95,0
3,45,95,0
3,54,95,0
3,44,110,0
3,45,95,0
3,47,110,0
3,48,110,0
3,49,110,0
3,42,110,0
3,42,110,0
3,69,110,0
3,64,110,0
3,54,95,0
3,64,95,0
3,69,95,0
3,69,95,0
3,64,95,0
3,54,95,0
3,42,110,0
3,42,110,0
3,42,95,0
3,57,110,0
3,69,110,0
3,64,110,0
3,54,110,0
3,57,80,0
3,69,95,0
3,64,95,0
3,54,95,0
3,58,95,0
3,54,95,0
3,40,110,0
3,52,110,0
3,47,110,0
3,40,110,0
3,40,110,0
3,47,110,0
3,52,110,0
3,40,95,0
3,47,95,0
3,52,95,0
3,40,95,0
3,47,95,0
3,52,95,0
3,40,95,0
3,47,95,0
3,52,95,0
3,47,110,0
3,47,95,0
3,54,95,0
3,47,95,0
3,54,95,0
3,59,110,0
3,54,110,0
3,47,110,0
3,59,95,0
3,54,95,0
3,47,95,0
3,45,95,0
3,46,95,0
3,42,110,0
3,42,110,0
3,69,110,0
3,64,110,0
3,54,110,0
3,64,95,0
3,69,95,0
3,64,95,0
3,69,95,0
3,42,110,0
3,42,110,0
3,54,110,0
3,64,110,0
3,69,110,0
3,54,95,0
3,64,95,0
3,69,95,0
3,54,95,0
3,64,95,0
3,69,95,0
3,54,95,0
3,64,110,0
3,59,110,0
3,57,110,0
3,58,95,0
3,64,95,0
3,59,95,0
3,59,110,0
3,64,110,0
3,59,95,16
3,64,95,0
3,57,95,0
3,59,95,0
3,59,95,0
3,64,95,0
3,59,95,16
3,62,110,0
3,64,110,0
3,62,95,0
3,64,95,0
3,62,95,0
3,64,95,0
3,62,95,0
3,64,95,0
3,64,110,0
3,64,110,16
3,61,95,0
3,64,95,0
3,61,95,0
3,64,95,0
3,42,110,0
3,42,110,0
3,69,110,0
3,64,110,0
3,54,110,0
3,54,95,0
3,64,95,0
3,69,95,0
3,69,95,0
3,64,95,0
3,54,95,0
3,54,95,0
3,42,110,0
3,42,95,0
3,69,110,0
3,64,110,0
3,54,110,0
3,40,95,0
3,47,95,0
3,52,95,0
3,40,110,0
3,47,110,0
3,52,110,0
3,52,95,0
3,47,95,0
3,40,95,0
3,40,110,0
3,47,110,0
3,56,110,0
3,52,110,0
3,56,95,0
3,52,95,0
3,47,95,0
3,44,95,0
3,47,95,0
3,47,110,0
3,54,95,0
3,47,95,0
3,59,95,0
3,54,95,0
3,47,95,0
3,61,95,0
3,57,95,0
3,45,95,0
3,52,95,0
3,45,95,0
3,52,95,0
3,61,95,0
3,57,95,0
3,42,110,0
3,54,110,0
3,57,110,1680
3,76,110,0
3,69,110,0
3,76,110,8
3,76,110,0
3,76,110,0
3,69,95,0
3,66,95,0
3,54,95,0
3,76,110,0
3,78,95,0
3,76,95,0
3,78,110,0
3,73,95,0
3,71,95,0
3,73,95,0
3,69,110,0
3,66,110,0
3,66,95,0
3,64,95,0
3,61,95,0
3,59,95,0
3,57,95,0
3,40,95,0
3,61,95,0
3,64,110,0
3,66,110,0
3,67,95,0
3,68,110,0
3,66,110,0
3,64,110,0
3,66,95,0
3,64,95,0
3,61,95,0
3,64,110,0
3,73,95,0
3,73,95,0
3,78,95,0
3,76,95,0
3,77,95,0
3,78,95,0
3,78,95,0
3,77,95,0
3,78,95,0
3,78,95,0
3,78,95,0
3,81,95,0
3,83,95,0
3,84,95,0
3,85,95,0
3,81,110,0
3,78,110,0
3,81,95,0
3,78,95,0
3,76,95,0
3,76,95,0
3,78,95,0
3,78,95,0
3,73,95,4
3,81,95,92
3,78,95,0
3,73,95,0
3,78,95,0
3,81,95,0
3,78,95,0
3,73,95,0
3,78,110,0
3,78,95,0
3,81,95,0
3,78,95,0
3,76,110,0
3,78,95,0
3,81,95,0
3,78,95,0
3,78,110,0
3,76,95,0
3,78,95,0
3,81,95,60
3,82,95,0
3,78,95,0
3,81,95,0
3,78,95,0
3,76,95,0
3,73,95,0
3,76,95,0
3,78,95,0
3,78,110,0
3,76,95,0
3,77,95,0
3,78,110,0
3,76,95,0
3,78,95,0
3,78,110,0
3,76,95,0
3,73,95,0
3,71,95,0
3,73,95,0
3,76,110,0
3,73,95,0
3,71,95,0
3,69,95,0
3,66,95,0
3,69,95,0
3,71,95,4
3,73,95,0
3,76,95,0
3,78,95,0
3,73,95,0
3,72,95,0
3,71,95,0
3,76,95,0
3,73,95,0
3,69,95,0
3,66,95,0
3,69,95,0
3,71,95,0
3,69,95,0
3,66,95,0
3,69,95,0
3,71,95,0
3,69,95,0
3,66,95,0
3,64,95,0
3,64,95,0
3,62,95,0
3,64,95,0
3,50,95,0
3,71,95,0
3,72,95,0
3,71,95,0
3,76,95,0
3,73,110,0
3,76,110,0
