track,note,velocity,time
0,37,84,0
0,37,0,384
0,37,84,384
0,65,127,192
0,58,127,0
0,34,127,0
0,65,0,188
0,58,0,0
0,34,0,0
0,65,127,4
0,58,127,0
0,34,127,0
0,37,0,0
0,65,0,188
0,58,0,0
0,34,0,0
0,67,127,4
0,60,127,0
0,36,127,0
0,67,0,188
0,60,0,0
0,36,0,0
0,67,127,4
0,60,127,0
0,36,127,0
0,37,64,0
0,67,0,188
0,60,0,0
0,36,0,0
0,67,127,4
0,60,127,0
0,36,127,0
0,67,0,188
0,60,0,0
0,36,0,0
0,67,127,4
0,60,127,0
0,36,127,0
0,37,0,0
0,37,84,0
0,67,0,380
0,60,0,0
0,36,0,0
0,37,0,4
0,37,64,0
0,65,127,192
0,58,127,0
0,34,127,0
0,65,0,188
0,58,0,0
0,34,0,0
0,65,127,4
0,58,127,0
0,34,127,0
0,37,0,0
0,37,84,0
0,65,0,188
0,58,0,0
0,34,0,0
0,63,127,4
0,56,127,0
0,32,127,0
0,63,0,188
0,56,0,0
0,32,0,0
0,63,127,4
0,56,127,0
0,32,127,0
0,37,0,0
0,35,90,0
0,42,90,0
0,35,0,80
0,42,0,0
0,63,0,108
0,56,0,0
0,32,0,0
0,63,127,4
0,56,127,0
0,32,127,0
0,35,70,76
0,42,70,0
0,35,0,80
0,42,0,0
0,63,0,32
0,56,0,0
0,32,0,0
0,63,127,4
0,56,127,0
0,32,127,0
0,38,90,0
0,42,100,0
0,37,100,0
0,38,0,80
0,42,0,0
0,37,0,0
0,35,70,188
0,42,70,0
0,35,0,80
0,42,0,0
0,63,0,32
0,56,0,0
0,32,0,0
0,35,90,4
0,42,90,0
0,35,0,80
0,42,0,0
0,65,127,112
0,58,127,0
0,34,127,0
0,35,70,76
0,42,70,0
0,35,0,80
0,42,0,0
0,65,0,32
0,58,0,0
0,34,0,0
0,65,127,4
0,58,127,0
0,34,127,0
0,38,90,0
0,42,100,0
0,37,100,0
0,38,0,80
0,42,0,0
0,37,0,0
0,65,0,108
0,58,0,0
0,34,0,0
0,67,127,4
0,60,127,0
0,36,127,0
0,35,70,76
0,42,70,0
0,35,0,80
0,42,0,0
0,67,0,32
0,60,0,0
0,36,0,0
0,67,127,4
0,60,127,0
0,36,127,0
0,35,90,0
0,42,90,0
0,35,0,80
0,42,0,0
0,67,0,108
0,60,0,0
0,36,0,0
0,67,127,4
0,60,127,0
0,36,127,0
0,35,70,76
0,38,90,0
0,42,70,0
0,35,0,80
0,38,0,0
0,42,0,0
0,67,0,32
0,60,0,0
0,36,0,0
0,67,127,4
0,60,127,0
0,36,127,0
0,42,100,0
0,37,100,0
0,42,0,80
0,37,0,0
0,35,70,188
0,42,70,0
0,35,0,80
0,42,0,0
0,67,0,32
0,60,0,0
0,36,0,0
0,35,90,4
0,42,90,0
0,35,0,80
0,42,0,0
0,65,127,112
0,58,127,0
0,34,127,0
0,35,70,76
0,42,70,0
0,35,0,80
0,42,0,0
0,65,0,32
0,58,0,0
0,34,0,0
0,65,127,4
0,58,127,0
0,34,127,0
0,38,90,0
0,42,100,0
0,37,100,0
0,38,0,80
0,42,0,0
0,37,0,0
0,65,0,108
0,58,0,0
0,34,0,0
0,63,127,4
0,56,127,0
0,32,127,0
0,35,70,76
0,42,70,0
0,35,0,80
0,42,0,0
0,63,0,32
0,56,0,0
0,32,0,0
0,63,127,4
0,56,127,0
0,32,127,0
0,35,90,0
0,42,90,0
0,35,0,80
0,42,0,0
0,63,0,108
0,56,0,0
0,32,0,0
0,63,127,4
0,56,127,0
0,27,127,0
0,35,70,76
0,38,90,0
0,42,70,0
0,27,0,16
0,27,127,4
0,35,0,60
0,38,0,0
0,42,0,0
0,63,0,32
0,56,0,0
0,27,0,0
0,63,127,4
0,56,127,0
0,29,127,0
0,42,100,0
0,37,100,0
0,42,0,80
0,37,0,0
0,63,0,108
0,56,0,0
0,29,0,0
0,63,127,4
0,56,127,0
0,30,127,0
0,35,70,76
0,42,70,0
0,63,0,16
0,56,0,0
0,30,0,0
0,63,127,4
0,56,127,0
0,30,127,0
0,35,0,60
0,42,0,0
0,63,0,32
0,56,0,0
0,30,0,0
0,63,127,4
0,56,127,0
0,30,127,0
0,35,90,0
0,42,90,0
0,35,0,80
0,42,0,0
0,63,0,12
0,56,0,0
0,63,127,4
0,56,127,0
0,63,0,92
0,56,0,0
0,30,0,0
0,58,127,0
0,65,127,0
0,79,127,0
0,31,127,0
0,35,70,76
0,42,70,0
0,35,0,80
0,42,0,0
0,58,0,32
0,65,0,0
0,79,0,0
0,31,0,0
0,65,127,4
0,58,127,0
0,82,127,0
0,34,127,0
0,38,90,0
0,42,100,0
0,37,100,0
0,38,0,80
0,42,0,0
0,37,0,0
0,65,0,108
0,58,0,0
0,82,0,0
0,34,0,0
0,65,127,4
0,58,127,0
0,84,127,0
0,35,127,0
0,35,70,12
0,42,70,0
0,67,127,0
0,60,127,0
0,84,127,0
0,36,127,0
0,35,90,0
0,42,90,0
0,67,127,4
0,60,127,0
0,84,127,0
0,35,70,12
0,38,90,0
0,42,70,0
0,35,0,80
0,38,0,0
0,42,0,0
0,67,0,32
0,60,0,0
0,84,0,0
0,36,0,0
0,67,127,4
0,60,127,0
0,85,127,0
0,36,127,0
0,42,100,0
0,37,100,0
0,67,127,4
0,60,127,0
0,35,70,32
0,42,70,0
0,65,127,4
0,58,127,0
0,29,127,0
0,65,127,4
0,58,127,0
0,34,127,0
0,35,90,0
0,42,90,0
0,35,0,80
0,42,0,0
0,65,0,108
0,58,0,0
0,34,0,0
0,65,127,4
0,58,127,0
0,84,127,0
0,34,127,0
0,35,70,0
0,42,70,0
0,65,127,4
0,58,127,0
0,82,127,0
0,38,90,0
0,42,100,0
0,37,100,0
0,38,0,80
0,42,0,0
0,37,0,0
0,65,0,108
0,58,0,0
0,82,0,0
0,34,0,0
0,65,127,4
0,58,127,0
0,77,127,0
0,34,127,0
0,35,70,48
0,42,70,0
0,34,0,16
0,65,127,4
0,58,127,0
0,34,127,0
0,65,0,28
0,58,0,0
0,35,0,32
0,42,0,0
0,77,0,32
0,34,0,0
0,63,127,4
0,56,127,0
0,77,127,0
0,32,127,0
0,35,90,0
0,42,90,0
0,35,0,80
0,42,0,0
0,63,0,108
0,56,0,0
0,77,0,0
0,32,0,0
0,63,127,4
0,56,127,0
0,77,127,0
0,27,127,0
0,35,70,76
0,42,70,0
0,35,0,80
0,42,0,0
0,63,0,32
0,56,0,0
0,77,0,0
0,27,0,0
0,63,127,4
0,56,127,0
0,77,127,0
0,29,127,0
0,38,90,0
0,42,100,0
0,37,100,0
0,35,70,28
0,42,70,0
0,63,127,4
0,56,127,0
0,29,127,0
0,63,0,28
0,56,0,0
0,65,127,4
0,58,127,0
0,30,127,0
0,35,90,0
0,42,90,0
0,65,127,4
0,58,127,0
0,72,127,0
0,31,127,0
0,35,70,76
0,42,70,0
0,35,0,80
0,42,0,0
0,65,0,32
0,58,0,0
0,72,0,0
0,31,0,0
0,65,127,4
0,58,127,0
0,75,127,0
0,34,127,0
0,38,90,0
0,42,100,0
0,37,100,0
0,38,0,80
0,42,0,0
0,37,0,0
0,65,0,108
0,58,0,0
0,75,0,0
0,34,0,0
0,65,127,4
0,58,127,0
0,77,127,0
0,35,127,0
0,65,0,28
0,58,0,0
0,35,70,48
0,42,70,0
0,65,127,20
0,58,127,0
0,65,0,28
0,58,0,0
0,35,0,32
0,42,0,0
0,77,0,32
0,35,0,0
0,67,127,0
0,60,127,0
0,77,127,0
0,36,127,0
0,35,90,0
0,42,90,0
0,67,127,4
0,60,127,0
0,77,127,0
0,36,127,0
0,35,70,76
0,42,70,0
0,35,0,80
0,42,0,0
0,67,0,32
0,60,0,0
0,77,0,0
0,36,0,0
0,67,127,4
0,60,127,0
0,79,127,0
0,36,127,0
0,38,90,0
0,42,100,0
0,37,100,0
0,67,127,4
0,60,127,0
0,35,70,28
0,42,70,0
0,65,127,4
0,58,127,0
0,32,127,0
0,65,127,4
0,58,127,0
0,34,127,0
0,35,90,0
0,42,90,0
0,65,127,4
0,58,127,0
0,65,127,4
0,58,127,0
0,41,127,0
0,35,70,4
0,42,70,0
0,65,127,4
0,58,127,0
0,75,127,0
0,46,127,0
0,38,90,0
0,42,100,0
0,37,100,0
0,38,0,80
0,42,0,0
0,37,0,0
0,46,0,12
0,46,127,4
0,65,0,92
0,58,0,0
0,75,0,0
0,46,0,0
0,65,127,4
0,58,127,0
0,72,127,0
0,41,127,0
0,65,0,28
0,58,0,0
0,35,70,48
0,42,70,0
0,35,0,80
0,42,0,0
0,72,0,32
0,41,0,0
0,63,127,4
0,56,127,0
0,79,127,0
0,32,127,0
0,35,90,0
0,42,90,0
0,63,127,4
0,56,127,0
0,75,127,0
0,27,127,0
0,35,70,76
0,38,90,0
0,42,70,0
0,35,0,80
0,38,0,0
0,42,0,0
0,63,0,32
0,56,0,0
0,75,0,0
0,27,0,0
0,63,127,4
0,56,127,0
0,83,127,0
0,29,127,0
0,42,100,0
0,37,100,0
0,63,127,4
0,56,127,0
0,35,70,32
0,42,70,0
0,65,127,12
0,58,127,0
0,65,127,4
0,58,127,0
0,30,127,0
0,35,90,0
0,42,90,0
0,65,127,4
0,58,127,0
0,65,127,4
0,58,127,0
0,31,127,0
0,35,70,16
0,42,70,0
0,65,127,4
0,58,127,0
0,83,127,0
0,34,127,0
0,38,90,0
0,42,100,0
0,37,100,0
0,66,127,4
0,59,127,0
0,35,127,0
0,35,70,76
0,42,70,0
0,35,0,80
0,42,0,0
0,67,127,4
0,60,127,0
0,36,127,0
0,35,90,0
0,42,90,0
0,35,0,80
0,42,0,0
0,72,127,0
0,35,70,76
0,38,90,0
0,42,70,0
0,35,0,80
0,38,0,0
0,42,0,0
0,36,0,32
0,72,0,0
0,77,127,0
0,70,127,0
0,42,100,0
0,37,100,0
0,42,0,80
0,37,0,0
0,70,127,0
0,72,127,0
0,35,70,76
0,42,70,0
0,41,127,20
0,35,0,60
0,42,0,0
0,67,0,32
0,60,0,0
0,70,0,0
0,41,0,0
0,72,0,0
0,65,127,0
0,58,127,0
0,34,127,0
0,70,127,0
0,35,90,0
0,42,90,0
0,35,0,80
0,42,0,0
0,34,0,108
0,70,0,0
0,70,127,0
0,65,127,0
0,34,127,0
0,72,127,0
0,35,70,76
0,42,70,0
0,35,0,80
0,42,0,0
0,72,0,32
0,70,127,0
0,38,90,0
0,42,100,0
0,37,100,0
0,38,0,80
0,42,0,0
0,37,0,0
0,65,0,108
0,58,0,0
0,70,0,0
0,65,0,0
0,34,0,0
0,70,0,0
0,65,127,0
0,58,127,0
0,68,127,0
0,63,127,0
0,34,127,0
0,72,127,0
0,35,70,76
0,42,70,0
0,65,0,16
0,58,0,0
0,35,0,64
0,42,0,0
0,68,0,32
0,63,0,0
0,34,0,0
0,72,0,0
0,63,127,0
0,56,127,0
0,68,127,0
0,63,127,0
0,32,127,0
0,75,127,0
0,35,90,0
0,42,90,0
0,35,0,80
0,42,0,0
0,75,0,108
0,70,127,0
0,35,70,76
0,42,70,0
0,35,0,80
0,42,0,0
0,68,0,32
0,63,0,0
0,70,0,0
0,72,127,0
0,38,90,0
0,42,100,0
0,37,100,0
0,38,0,80
0,42,0,0
0,37,0,0
0,72,0,108
0,67,127,0
0,58,127,4
0,35,70,72
0,42,70,0
0,65,127,0
0,44,127,0
0,35,90,0
0,42,90,0
0,65,127,4
0,58,127,0
0,70,127,0
0,34,127,0
0,35,70,16
0,42,70,0
0,34,0,16
0,34,127,4
0,65,127,4
0,58,127,0
0,70,127,0
0,65,127,0
0,34,127,0
0,38,90,0
0,42,100,0
0,37,100,0
0,38,0,80
0,42,0,0
0,37,0,0
0,34,0,12
0,34,127,4
0,65,0,92
0,58,0,0
0,70,0,0
0,65,0,0
0,34,0,0
0,60,127,4
0,67,127,0
0,63,127,0
0,35,127,0
0,35,70,76
0,42,70,0
0,35,0,80
0,42,0,0
0,60,0,32
0,67,0,0
0,63,0,0
0,35,0,0
0,67,127,4
0,60,127,0
0,60,127,0
0,36,127,0
0,35,90,0
0,42,90,0
0,35,0,80
0,42,0,0
0,70,127,0
0,35,70,76
0,38,90,0
0,42,70,0
0,35,0,80
0,38,0,0
0,42,0,0
0,60,0,32
0,70,0,0
0,75,127,0
0,72,127,0
0,42,100,0
0,37,100,0
0,67,127,0
0,75,127,0
0,35,70,76
0,42,70,0
0,36,0,16
0,41,127,4
0,35,0,60
0,42,0,0
0,67,0,32
0,60,0,0
0,67,0,0
0,41,0,0
0,75,0,0
0,65,127,0
0,58,127,0
0,34,127,0
0,70,127,0
0,35,90,0
0,42,90,0
0,35,0,80
0,42,0,0
0,34,0,108
0,70,0,0
0,34,127,0
0,70,127,0
0,35,70,76
0,42,70,0
0,35,0,80
0,42,0,0
0,70,0,32
0,70,127,0
0,65,127,0
0,72,127,0
0,38,90,0
0,42,100,0
0,37,100,0
0,38,0,80
0,42,0,0
0,37,0,0
0,34,0,12
0,41,127,4
0,70,0,92
0,65,0,0
0,41,0,0
0,72,0,0
0,68,127,0
0,63,127,0
0,34,127,0
0,72,127,0
0,35,70,76
0,42,70,0
0,35,0,80
0,42,0,0
0,65,0,32
0,58,0,0
0,63,0,0
0,34,0,0
0,72,0,0
0,63,127,4
0,56,127,0
0,63,127,0
0,32,127,0
0,68,127,0
0,35,90,0
0,42,90,0
0,35,0,80
0,42,0,0
0,32,0,108
0,68,0,0
0,32,127,4
0,35,70,76
0,42,70,0
0,35,0,80
0,42,0,0
0,38,90,36
0,42,100,0
0,37,100,0
0,38,0,80
0,42,0,0
0,37,0,0
0,68,0,108
0,63,0,0
0,68,127,4
0,35,70,28
0,42,70,0
0,32,0,16
0,39,127,4
0,67,127,0
0,44,127,0
0,35,90,0
0,42,90,0
0,35,0,80
0,42,0,0
0,67,0,108
0,44,0,0
0,65,127,4
0,58,127,0
0,70,127,0
0,34,127,0
0,35,70,76
0,42,70,0
0,65,127,4
0,58,127,0
0,34,127,0
0,38,90,0
0,42,100,0
0,37,100,0
0,38,0,80
0,42,0,0
0,37,0,0
0,34,0,12
0,34,127,4
0,65,0,92
0,58,0,0
0,70,0,0
0,34,0,0
0,65,127,4
0,58,127,0
0,67,127,0
0,35,127,0
0,35,70,76
0,42,70,0
0,65,0,16
0,58,0,0
0,35,0,0
0,35,127,4
0,35,0,60
0,42,0,0
0,67,0,32
0,35,0,0
0,60,127,4
0,60,127,0
0,36,127,0
0,35,90,0
0,42,90,0
0,35,0,80
0,42,0,0
0,70,127,0
0,35,70,76
0,42,70,0
0,35,0,80
0,42,0,0
0,70,0,32
0,70,127,0
0,75,127,0
0,70,127,0
0,38,90,0
0,42,100,0
0,37,100,0
0,38,0,80
0,42,0,0
0,37,0,0
0,70,0,108
0,72,127,0
0,35,70,76
0,42,70,0
0,36,0,16
0,41,127,4
0,35,0,60
0,42,0,0
0,60,0,32
0,60,0,0
0,70,0,0
0,75,0,0
0,41,0,0
0,72,0,0
0,65,127,0
0,58,127,0
0,58,127,0
0,34,127,0
0,70,127,0
0,35,90,0
0,42,90,0
0,35,0,80
0,42,0,0
0,58,0,108
0,34,0,0
0,70,0,0
0,58,127,0
0,34,127,0
0,75,127,0
0,35,70,76
0,42,70,0
0,35,0,80
0,42,0,0
0,58,0,32
0,75,0,0
0,74,127,0
0,72,127,0
0,38,90,0
0,42,100,0
0,37,100,0
0,41,127,4
0,41,0,92
0,34,127,4
0,35,70,76
0,42,70,0
0,35,0,80
0,42,0,0
0,65,0,32
0,58,0,0
0,34,0,0
0,72,0,0
0,63,127,4
0,56,127,0
0,32,127,0
0,67,127,0
0,35,90,0
0,42,90,0
0,35,0,80
0,42,0,0
0,67,0,108
0,35,70,80
0,38,90,0
0,42,70,0
0,35,0,80
0,38,0,0
0,42,0,0
0,32,0,32
0,44,127,4
0,67,127,0
0,42,100,0
0,37,100,0
0,42,0,80
0,37,0,0
0,44,0,12
