track,note,velocity,time
2,69,127,6932
2,71,118,6
2,71,127,24
2,79,126,6
2,52,119,38
2,64,127,0
2,51,108,0
2,63,116,4
2,50,101,6
2,62,109,4
2,49,93,8
2,61,101,0
2,46,90,2
2,58,98,4
2,45,84,4
2,57,92,4
2,44,79,2
2,56,87,4
2,43,75,2
2,55,83,4
2,42,71,6
2,54,79,4
2,40,127,4
2,52,115,4
2,59,108,0
2,40,97,8
2,52,97,4
2,59,97,4
2,57,127,2
2,69,94,4
2,52,126,4
2,64,114,4
2,52,118,4
2,59,97,4
2,59,97,54
2,52,118,6
2,44,127,52
2,52,127,4
2,64,127,2
2,69,126,36
2,76,73,4
2,64,127,6
2,69,127,4
2,81,100,30
2,67,126,6
2,62,124,4
2,55,127,10
2,76,127,4
2,69,127,4
2,57,127,0
2,64,127,8
2,69,126,2
2,57,127,38
2,69,127,10
2,40,127,6
2,40,124,2
2,47,123,4
2,52,119,4
2,52,108,28
2,47,105,4
2,40,103,6
2,44,127,48
2,52,127,8
2,74,127,20
2,76,127,4
2,74,127,18
2,76,127,4
2,69,106,2
2,74,112,2
2,69,112,2
2,64,118,2
2,67,127,10
2,74,120,2
2,81,127,2
2,69,117,4
2,69,127,12
2,69,93,4
2,83,127,2
2,67,118,76
2,67,125,8
2,71,123,10
2,59,127,4
2,64,118,2
2,67,127,8
2,72,127,6
2,59,125,16
2,64,127,4
2,40,127,4
2,47,121,0
2,52,116,4
2,52,104,50
2,47,103,6
2,40,98,4
2,40,118,62
2,47,111,6
2,52,107,4
2,52,99,52
2,47,95,6
2,40,107,4
2,55,127,76
2,59,119,0
2,67,103,2
2,72,118,6
2,57,127,10
2,59,121,8
2,62,127,110
2,64,127,14
2,67,117,122
2,64,127,2
2,59,92,102
2,62,116,70
2,64,122,2
2,68,112,650
2,74,127,28
2,71,100,14
2,74,118,104
2,70,120,168
2,69,111,16
2,69,121,50
2,64,127,4
2,74,127,10
2,40,127,98
2,52,110,58
2,62,100,4
2,67,123,6
2,71,116,10
2,71,115,0
2,67,80,0
2,62,88,4
2,52,94,6
2,57,127,0
2,61,127,4
2,52,118,6
2,52,82,96
2,62,73,4
2,67,89,6
2,71,92,10
2,71,72,0
2,67,56,0
2,62,72,4
2,62,127,46
2,64,122,6
2,69,127,110
2,64,102,6
2,69,127,2
2,69,106,6
2,69,126,22
2,69,120,4
2,76,127,6
2,74,127,246
2,71,100,2
2,74,122,56
2,70,127,10
2,67,127,8
2,77,127,700
2,64,115,56
2,59,118,4
2,52,107,2
2,52,127,22
2,59,125,2
2,64,124,4
2,64,105,62
2,59,100,6
2,52,104,2
2,67,127,60
2,55,127,2
2,55,101,8
2,67,61,4
2,70,114,8
2,73,101,0
2,64,69,4
2,67,127,20
2,74,96,0
2,71,87,108
2,74,127,14
2,71,94,10
2,74,93,38
2,71,127,18
2,74,96,20
2,71,105,36
2,74,127,34
2,71,105,18
2,74,127,58
2,74,120,10
2,71,127,34
2,74,127,8
2,73,94,4
2,69,91,92
2,73,126,24
2,69,74,16
2,73,85,30
2,69,77,22
2,73,89,38
2,69,126,20
2,73,106,10
2,69,99,28
2,73,111,32
2,69,123,10
2,73,118,14
2,67,125,58
2,71,123,10
2,59,127,4
2,64,118,2
2,67,127,10
2,72,127,6
2,59,125,16
2,64,127,4
2,40,121,6
2,47,116,0
2,52,118,4
2,52,103,74
2,47,109,6
2,40,107,4
2,40,108,74
2,47,115,6
2,52,116,4
2,52,100,74
2,47,95,6
2,40,96,4
2,55,112,80
2,59,115,0
2,67,101,6
2,72,104,0
2,64,127,0
2,70,94,4
2,67,85,96
2,70,127,28
2,67,94,30
2,70,92,46
2,67,108,12
2,70,127,18
2,70,91,14
2,67,127,70
2,70,98,24
2,67,127,16
2,70,103,32
2,67,127,12
2,72,99,4
2,69,86,92
2,72,127,28
2,72,88,12
2,69,127,16
2,72,97,40
2,69,91,20
2,72,123,28
2,69,105,10
2,72,99,36
2,69,127,16
2,72,98,42
2,69,127,2
2,71,126,6
2,71,120,6
2,69,127,42
2,71,120,0
2,74,126,84
2,74,118,18
2,74,127,8
2,74,127,10
2,69,127,6
2,74,116,4
2,69,107,0
2,64,94,10
2,67,127,2
2,71,123,2
2,57,127,4
2,64,114,6
2,64,107,8
2,59,114,10
2,55,106,2
2,64,118,10
2,59,109,6
2,67,116,6
2,71,105,6
2,74,115,20
2,76,119,2
2,79,127,4
2,79,127,4
2,79,110,40
2,76,127,4
2,76,126,4
2,74,119,6
2,76,109,18
2,74,127,4
2,73,116,2
2,71,123,2
2,74,127,2
2,69,103,2
2,74,127,4
2,74,127,0
2,76,127,4
2,70,127,4
2,67,125,0
2,71,123,10
2,59,127,4
2,64,118,2
2,67,127,8
2,72,113,6
2,59,125,16
2,64,127,4
2,40,127,6
2,47,127,0
2,52,127,4
2,52,127,74
2,47,127,6
2,40,127,4
2,40,127,12
2,47,127,6
2,52,127,4
2,52,127,22
2,47,127,6
2,40,127,4
2,55,127,14
2,59,127,0
2,67,127,6
2,72,127,0
2,69,105,46
2,71,102,4
2,74,108,6
2,69,98,4
2,71,98,4
2,74,116,6
2,69,114,6
2,71,86,4
2,74,107,6
2,69,101,2
2,71,99,0
2,74,121,6
2,69,117,2
2,71,103,2
2,74,100,6
2,69,98,4
2,71,103,4
2,74,111,6
2,69,102,4
2,71,84,6
2,74,108,4
2,69,104,4
2,64,127,4
2,67,95,4
2,69,106,6
2,71,92,2
2,69,104,2
2,71,82,4
2,74,110,6
2,69,114,4
2,71,82,4
2,74,102,14
2,69,98,2
2,71,120,4
2,71,105,2
2,73,90,4
2,76,114,6
2,74,106,4
2,76,116,4
2,79,127,6
2,74,125,4
2,64,124,4
2,69,127,4
2,80,92,4
2,40,76,0
2,47,72,2
2,47,62,24
2,40,56,6
2,44,81,8
2,52,81,2
2,57,91,4
2,69,91,4
2,52,113,4
2,64,81,4
2,40,118,0
2,47,114,2
2,47,96,4
2,40,88,6
2,44,127,44
2,55,127,8
2,62,127,4
2,74,127,4
2,67,113,4
2,79,113,2
3,61,127,38
3,57,117,4
3,62,102,10
3,54,127,2
3,55,112,6
3,55,127,8
3,52,85,14
3,62,124,46
3,62,106,4
3,59,116,66
3,64,123,38
3,64,95,26
3,59,115,8
3,52,95,8
3,47,97,0
3,59,78,6
3,52,110,4
3,64,69,8
3,64,95,8
3,59,115,8
3,52,95,8
3,61,127,4
3,57,120,4
3,62,108,4
3,54,127,112
3,55,127,10
3,57,127,20
3,52,103,6
3,62,127,8
3,62,125,10
3,64,118,36
3,69,127,0
3,70,127,6
3,67,127,2
3,69,121,34
3,69,119,8
3,69,127,14
3,69,121,48
3,70,104,8
3,76,124,0
3,74,127,28
3,69,124,2
3,69,127,2
3,71,110,4
3,67,127,2
3,64,109,0
3,64,123,14
3,62,112,2
3,64,125,2
3,67,126,28
3,57,127,4
3,62,121,4
3,67,111,2
3,69,122,6
3,69,126,26
3,74,115,14
3,70,121,4
3,69,118,18
3,67,105,12
3,64,127,74
3,74,126,0
3,74,124,4
3,74,127,8
3,74,125,4
3,74,109,4
3,74,126,8
3,74,116,4
4,40,118,8
4,28,105,18
4,28,93,30
4,38,110,20
4,40,106,14
4,28,127,176
4,33,121,10
4,28,88,26
4,31,127,44
4,40,112,2
4,38,114,70
4,40,105,18
4,35,98,108
4,38,111,22
4,40,106,12
4,35,91,234
4,40,120,12
4,35,90,38
4,31,126,14
4,43,119,6
4,28,127,6
4,28,117,56
4,28,103,30
4,38,110,30
4,40,106,14
4,28,127,176
4,33,121,10
4,28,88,26
4,31,127,44
4,40,112,2
4,38,114,6
4,40,105,18
4,38,111,6
4,40,106,10
4,31,107,24
4,33,91,24
4,34,90,42
4,35,115,14
4,38,100,6
4,28,127,8
4,40,112,18
4,47,110,4
4,55,127,6
4,31,127,46
4,33,121,8
4,34,127,26
4,35,127,44
4,31,112,20
4,38,114,10
4,40,105,18
4,35,98,108
4,38,111,22
4,40,106,12
4,35,91,234
4,40,120,12
4,35,90,38
4,33,115,14
4,31,100,6
4,28,127,6
4,28,117,56
4,31,103,30
4,28,110,30
4,38,106,18
4,28,127,176
4,33,121,10
4,28,88,26
4,31,127,44
4,40,112,2
4,38,114,6
4,40,105,18
4,40,126,6
4,31,127,114
4,33,91,6
4,34,90,42
4,35,127,14
4,28,127,4
4,38,120,38
4,28,126,6
4,28,93,22
4,38,110,10
4,35,110,14
4,40,127,28
4,28,127,4
4,33,121,10
4,28,88,26
4,31,127,44
4,40,112,2
4,38,114,70
4,40,105,18
4,35,98,108
4,38,111,22
4,40,106,12
4,35,91,234
4,40,120,12
4,35,90,38
4,35,115,110
4,38,100,6
4,28,127,8
4,40,93,20
4,38,110,20
4,40,106,14
4,28,127,176
4,33,121,10
4,28,88,26
4,31,127,44
4,40,112,2
4,38,114,70
4,40,105,18
4,35,98,108
4,38,111,22
4,40,106,12
4,35,91,234
4,40,120,12
4,35,90,38
4,33,115,14
4,31,100,6
4,28,127,14
4,28,117,18
4,31,103,30
4,28,110,30
4,38,106,18
4,28,127,176
4,33,121,10
4,28,88,26
4,31,127,44
4,40,112,2
4,38,114,6
4,40,105,18
4,40,111,6
4,31,114,114
4,33,91,6
4,34,90,42
4,35,127,14
4,28,127,4
4,38,120,38
4,28,127,8
4,28,110,108
4,38,127,20
4,28,117,14
4,28,127,26
4,26,110,42
4,28,121,28
4,31,127,28
4,40,112,2
4,28,114,70
4,40,105,18
4,28,98,108
4,31,111,22
4,28,106,12
4,40,106,24
4,35,91,138
4,40,120,12
4,35,90,38
4,33,115,14
4,31,100,6
4,28,127,6
4,28,117,56
4,31,103,30
4,28,110,30
4,38,106,18
4,28,127,176
4,33,121,10
4,28,88,26
4,31,127,44
4,40,112,2
4,38,114,6
4,40,105,18
4,40,111,6
4,31,114,114
4,33,91,6
4,34,90,42
4,35,127,14
4,28,127,4
4,38,120,38
4,28,127,8
4,28,110,108
4,38,127,20
4,28,117,14
4,28,127,26
4,26,110,42
4,28,121,28
4,31,127,28
4,40,112,2
4,28,114,70
4,40,105,18
4,28,98,108
4,31,111,22
4,28,106,12
4,40,106,24
4,35,91,138
4,40,120,12
4,35,90,38
4,34,115,14
4,33,100,40
4,32,111,8
4,28,127,6
4,28,117,56
4,31,103,30
4,28,110,30
4,38,106,18
4,28,127,176
4,33,121,10
4,28,88,26
4,31,127,44
4,40,112,2
4,38,114,6
4,40,105,18
4,40,111,6
4,31,114,114
4,33,91,6
4,34,90,42
4,35,127,14
4,28,127,4
4,38,120,38
4,36,127,8
4,36,110,108
4,48,127,20
4,28,117,14
4,36,127,26
4,28,110,42
4,36,121,28
4,48,127,28
4,36,112,2
4,38,114,70
4,50,105,18
4,38,98,108
4,48,111,22
4,45,106,12
4,50,106,24
4,33,105,138
4,36,127,12
4,33,107,38
4,38,127,12
4,40,127,114
4,28,127,10
4,28,117,110
4,31,103,30
4,28,110,30
4,38,106,18
4,28,127,102
4,33,121,10
4,28,88,26
4,31,127,44
4,40,112,2
4,38,114,6
4,40,105,18
4,40,111,6
4,52,114,114
4,31,110,12
4,33,114,42
4,35,127,14
4,38,120,38
4,28,127,8
4,28,110,108
4,38,127,12
4,28,117,8
4,31,127,26
4,33,110,12
4,34,121,28
4,35,127,28
4,38,112,4
4,40,105,10
4,31,127,12
4,33,106,24
4,40,106,24
4,35,91,138
4,45,120,12
4,43,90,38
4,47,115,8
4,50,100,6
4,28,127,6
4,28,117,56
4,31,103,30
4,28,110,30
4,33,106,18
4,28,127,98
4,35,121,10
4,28,88,26
4,38,127,44
4,40,112,2
4,38,114,6
4,40,105,18
4,47,111,6
4,43,114,114
4,33,91,6
4,34,90,42
4,35,127,14
4,28,127,4
4,38,120,38
4,28,127,6
4,40,117,56
4,38,103,30
4,35,110,20
4,34,106,18
4,33,127,14
4,31,115,6
4,26,127,8
4,28,112,2
4,43,114,6
4,40,105,18
4,33,127,6
4,28,124,18
4,31,127,24
4,33,124,24
4,35,124,38
4,38,127,14
4,35,119,24
4,40,127,12
4,28,110,14
4,38,127,20
4,28,117,14
4,37,127,26
4,28,110,42
4,35,121,28
4,31,119,28
4,33,127,6
4,28,114,116
4,40,105,18
4,31,98,12
4,33,111,22
4,28,106,12
4,43,106,24
4,35,91,138
4,38,120,12
4,40,90,38
4,45,127,14
4,43,127,6
4,28,127,8
4,40,112,18
4,47,110,4
4,55,127,6
4,31,127,46
4,33,121,8
4,34,127,26
4,35,127,44
4,26,112,20
4,28,114,10
4,31,105,18
4,38,111,6
4,31,114,114
4,33,91,6
4,34,90,42
4,35,127,14
4,28,127,4
4,38,120,38
4,46,127,6
4,45,110,10
4,43,127,2
4,28,127,8
4,26,110,18
4,28,121,28
4,31,127,28
4,40,112,2
4,43,114,38
4,40,105,12
4,43,98,4
4,45,111,22
4,47,106,14
4,50,91,64
4,52,120,12
4,46,90,38
4,45,115,14
4,43,100,2
4,40,127,0
4,28,117,26
4,31,103,4
4,28,110,28
4,38,106,2
4,28,127,40
4,33,121,0
4,28,88,24
4,31,127,30
4,40,112,2
4,38,114,0
4,40,105,18
4,40,111,6
4,31,114,28
4,33,91,6
4,34,90,42
4,35,127,14
4,28,127,4
4,38,120,38
5,61,101,2
5,57,93,14
5,62,87,10
5,54,107,2
5,55,95,6
5,55,107,8
5,52,72,14
5,62,105,46
5,62,91,4
5,59,91,66
5,64,105,38
5,61,102,4
5,57,90,4
5,62,90,4
5,54,102,112
5,55,94,10
5,57,104,20
5,52,81,6
5,62,104,8
5,62,100,10
5,64,95,36
5,50,127,1738
5,70,127,4
5,67,127,2
5,69,121,40
5,69,119,72
5,69,127,14
5,69,121,48
5,70,104,8
5,76,124,0
5,74,127,28
5,69,124,2
5,69,127,2
5,71,110,14
5,67,127,36
5,64,109,0
5,64,123,2004
5,62,112,2
5,64,125,18
5,67,126,56
5,57,127,6
5,62,121,4
5,67,111,2
5,69,122,6
5,69,126,180
5,74,125,14
5,70,121,4
5,69,114,18
5,67,100,12
5,64,127,74
6,40,127,8
6,52,119,4
6,59,108,6
6,40,116,6
6,52,118,6
6,59,117,10
6,40,127,22
6,52,118,196
6,59,97,4
6,59,97,54
6,52,118,6
6,44,117,8
6,52,127,0
6,40,124,68
6,52,118,2
6,59,89,8
6,59,88,54
6,52,86,6
6,40,124,4
6,40,127,38
6,52,105,10
6,59,109,2
6,40,118,30
6,52,112,2
6,59,107,6
6,59,87,40
6,52,96,4
6,40,97,2
6,52,127,10
6,62,120,4
6,67,119,2
6,71,116,8
6,43,127,6
6,52,127,4
6,62,120,4
6,67,119,2
6,71,116,8
6,71,110,0
6,67,100,8
6,62,96,2
6,52,97,4
6,40,116,38
6,52,118,6
6,59,117,10
6,43,105,24
6,55,106,2
6,62,115,8
6,43,105,162
6,55,106,2
6,62,115,8
6,59,108,160
6,52,119,2
6,40,122,8
6,40,105,162
6,52,106,2
6,59,115,8
6,43,124,64
6,55,118,2
6,62,89,8
6,62,88,54
6,55,86,6
6,43,124,4
6,43,127,38
6,55,105,10
6,62,109,2
6,40,127,22
6,52,119,4
6,59,108,6
6,40,116,6
6,52,118,6
6,59,117,10
6,40,127,22
6,59,119,90
6,52,119,10
6,52,127,154
6,62,120,4
6,67,119,2
6,71,116,8
6,52,127,188
6,62,120,4
6,67,119,2
6,71,116,8
6,71,110,0
6,67,100,8
6,62,96,2
6,52,97,4
6,40,124,46
6,52,118,2
6,59,89,8
6,59,88,54
6,52,86,6
6,40,124,4
6,40,127,38
6,52,105,10
6,59,109,2
6,40,118,6
6,52,112,2
6,59,107,6
6,59,117,40
6,52,114,4
6,40,107,2
6,59,108,26
6,52,119,2
6,40,122,8
6,59,108,160
6,52,119,2
6,40,122,8
6,57,108,160
6,50,119,2
6,38,122,8
6,40,127,54
6,52,125,8
6,59,121,8
6,40,124,18
6,47,123,4
6,52,119,4
6,52,108,28
6,47,105,4
6,40,103,6
6,44,127,6
6,52,127,8
6,40,114,20
