track,note,velocity,time
0,42,100,182
0,42,0,3
0,42,70,93
0,42,0,3
0,42,70,93
0,42,0,3
0,42,70,93
0,42,0,3
0,42,100,93
0,42,0,3
0,42,70,93
0,42,0,3
0,42,70,93
0,42,0,3
0,66,83,89
0,61,81,1
0,66,0,22
0,61,0,1
0,66,92,1
0,70,93,0
0,75,98,0
0,70,0,37
0,66,0,0
0,75,0,1
0,74,63,0
0,73,63,4
0,74,0,1
0,72,63,2
0,73,0,3
0,71,63,0
0,72,0,2
0,70,63,1
0,71,0,2
0,69,63,1
0,70,0,1
0,68,63,2
0,69,0,1
0,67,63,1
0,66,51,2
0,68,0,1
0,67,0,2
0,65,51,0
0,66,0,3
0,64,51,0
0,65,0,2
0,63,51,1
0,64,0,3
0,44,82,2
0,39,104,2
0,44,0,1
0,63,0,0
0,39,0,43
0,44,50,2
0,44,0,3
0,65,94,45
0,61,82,0
0,56,82,0
0,65,94,0
0,61,82,0
0,65,0,1
0,61,0,0
0,56,82,0
0,44,70,0
0,56,0,1
0,56,0,2
0,61,0,0
0,65,0,0
0,44,0,0
0,56,82,24
0,56,82,0
0,61,82,1
0,65,82,0
0,65,82,0
0,61,82,0
0,56,0,1
0,65,0,1
0,61,0,0
0,49,82,0
0,49,82,0
0,49,0,2
0,61,0,0
0,56,0,0
0,65,0,0
0,49,0,3
0,44,29,12
0,44,0,3
0,49,71,43
0,44,65,2
0,44,0,3
0,49,0,22
0,51,80,1
0,51,0,18
0,54,70,1
0,44,31,2
0,44,0,3
0,54,0,26
0,63,104,0
0,59,86,0
0,59,0,8
0,61,69,0
0,44,76,12
0,44,0,3
0,61,0,27
0,63,0,0
0,59,81,1
0,59,0,17
0,54,86,0
0,44,31,0
0,44,0,3
0,56,75,2
0,54,0,1
0,54,55,22
0,56,0,2
0,52,55,2
0,54,0,1
0,51,55,2
0,52,0,1
0,49,43,2
0,51,0,1
0,47,43,2
0,49,0,1
0,46,31,2
0,47,0,1
0,44,73,3
0,41,94,0
0,42,86,0
0,41,0,1
0,44,0,2
0,46,0,3
0,44,43,42
0,44,0,3
0,42,0,14
0,42,70,13
0,61,97,16
0,54,92,1
0,66,91,0
0,44,67,1
0,68,109,0
0,44,0,3
0,42,0,1
0,66,0,2
0,68,0,20
0,61,0,1
0,54,0,1
0,61,80,2
0,66,92,0
0,54,67,0
0,54,0,12
0,66,0,1
0,61,0,0
0,61,93,3
0,54,85,0
0,66,91,1
0,44,36,1
0,44,0,3
0,54,0,24
0,42,74,1
0,61,0,1
0,66,0,1
0,58,97,15
0,61,95,0
0,59,93,1
0,44,72,2
0,42,0,1
0,58,0,2
0,44,0,0
0,61,0,36
0,59,0,2
0,61,92,6
0,44,38,0
0,59,93,0
0,44,0,3
0,61,0,18
0,59,0,4
0,58,102,5
0,61,104,0
0,59,81,18
0,58,0,1
0,44,77,0
0,44,0,3
0,59,0,25
0,58,63,1
0,58,0,16
0,54,52,1
0,44,30,1
0,44,0,3
0,61,0,0
0,54,0,27
0,42,57,2
0,43,64,7
0,42,0,2
0,43,0,6
0,44,74,1
0,44,82,1
0,44,0,2
0,44,27,46
0,44,0,3
0,44,0,32
0,63,83,0
0,59,88,4
0,63,0,3
0,54,100,3
0,59,0,2
0,44,106,1
0,44,0,3
0,49,101,1
0,54,0,1
0,49,0,27
0,51,98,1
0,51,0,14
0,44,37,1
0,54,115,1
0,44,0,2
0,54,0,22
0,39,98,7
0,39,0,16
0,59,91,0
0,44,101,0
0,63,104,1
0,61,78,1
0,44,0,1
0,59,0,3
0,63,0,16
0,61,0,1
0,63,109,5
0,59,107,0
0,59,0,14
0,63,0,1
0,54,104,1
0,44,41,4
0,54,0,2
0,56,85,0
0,44,0,1
0,56,0,20
0,56,96,4
0,59,117,0
0,49,83,19
0,44,89,1
0,59,0,1
0,56,0,1
0,44,0,1
0,49,0,10
0,51,86,1
0,51,0,16
0,54,98,0
0,59,106,0
0,63,104,0
0,59,0,15
0,54,0,0
0,63,0,1
0,49,72,1
0,44,38,2
0,44,0,3
0,49,0,9
0,51,80,1
0,51,0,15
0,54,63,0
0,59,71,0
0,59,0,18
0,54,0,0
0,44,90,1
0,39,102,1
0,44,0,2
0,44,38,46
0,44,0,3
0,39,0,24
0,39,113,7
0,44,99,14
0,66,89,0
0,44,0,3
0,61,101,0
0,39,0,1
0,54,102,0
0,66,0,4
0,68,92,3
0,54,0,18
0,61,0,0
0,68,0,1
0,66,97,2
0,61,101,0
0,54,88,1
0,66,0,11
0,54,0,2
0,61,0,0
0,44,31,2
0,66,102,1
0,44,0,2
0,66,0,23
0,54,113,1
0,49,95,1
0,49,0,13
0,54,0,1
0,49,81,6
0,44,99,0
0,44,0,3
0,51,91,0
0,49,0,1
0,51,0,23
0,59,92,2
0,54,84,0
0,54,0,13
0,59,0,0
0,59,98,6
0,56,86,0
0,44,15,0
0,44,0,3
0,56,0,18
0,59,0,1
0,63,83,5
0,59,97,0
0,56,74,1
0,57,117,3
0,59,0,1
0,63,0,1
0,56,0,0
0,57,0,14
0,44,96,1
0,56,84,0
0,44,0,3
0,56,0,23
0,63,91,5
0,59,85,0
0,54,88,1
0,54,0,14
0,59,0,1
0,44,20,1
0,63,0,1
0,44,0,2
0,51,95,0
0,51,0,27
0,44,71,2
0,44,0,15
0,44,99,1
0,46,102,2
0,44,0,1
0,44,26,45
0,44,0,3
0,46,0,36
0,70,117,8
0,44,112,1
0,65,108,1
0,44,0,2
0,72,99,1
0,70,0,1
0,65,0,39
0,72,0,1
0,70,89,3
0,44,38,0
0,44,0,3
0,70,0,12
0,72,89,0
0,72,0,13
0,70,101,2
0,65,92,1
0,70,0,12
0,65,0,1
0,68,119,4
0,44,101,1
0,44,0,3
0,68,0,3
0,65,115,0
0,70,100,1
0,44,32,18
0,44,0,3
0,65,0,26
0,70,0,2
0,68,79,0
0,66,79,3
0,68,0,2
0,64,79,1
0,63,67,2
0,66,0,2
0,61,67,0
0,64,0,1
0,59,67,1
0,63,0,1
0,58,67,1
0,61,0,1
0,56,67,1
0,59,0,1
0,44,97,1
0,54,55,1
0,44,0,2
0,58,0,0
0,56,0,0
0,52,55,2
0,44,55,0
0,54,0,1
0,52,0,4
0,45,55,0
0,44,0,2
0,45,0,18
0,45,99,0
0,45,0,6
0,44,47,12
0,44,0,3
0,69,112,4
0,64,89,0
0,63,78,0
0,63,0,1
0,64,0,19
0,69,0,0
0,40,62,1
0,40,0,7
0,39,2,6
0,39,0,6
0,44,96,1
0,59,104,1
0,68,115,0
0,63,123,0
0,44,0,2
0,68,0,20
0,63,0,1
0,59,0,1
0,56,61,21
0,59,84,0
0,44,39,2
0,44,0,3
0,59,0,18
0,56,0,1
0,59,127,24
0,56,111,0
0,44,86,1
0,44,0,3
0,56,0,15
0,59,0,2
0,56,93,5
0,56,0,12
0,44,39,11
0,54,85,1
0,59,85,1
0,44,0,1
0,54,0,7
0,56,68,0
0,54,67,8
0,56,0,1
0,59,0,2
0,54,0,8
0,51,60,3
0,51,0,15
0,44,93,1
0,59,107,2
0,63,115,0
0,44,0,1
0,59,0,5
0,61,91,1
0,63,0,5
0,59,75,1
0,61,0,1
0,59,0,8
0,56,88,0
0,56,0,18
0,54,92,5
0,44,44,1
0,59,101,0
0,44,0,3
0,54,0,2
0,56,77,0
0,56,0,17
0,54,73,2
0,54,0,21
0,59,0,0
0,44,101,3
0,49,63,1
0,44,0,2
0,49,0,14
0,51,59,1
0,51,0,13
0,54,106,4
0,51,86,0
0,54,0,12
0,51,0,1
0,44,48,1
0,49,49,2
0,44,0,1
0,51,63,14
0,49,0,1
0,51,0,10
0,51,92,5
0,51,0,14
0,44,94,0
0,42,104,1
0,44,0,2
0,44,48,46
0,44,0,3
0,42,0,23
0,42,101,8
0,42,0,14
0,44,93,0
0,54,93,2
0,61,95,0
0,58,97,0
0,68,102,0
0,44,0,1
0,68,0,32
0,61,0,0
0,58,0,1
0,44,60,0
0,54,0,1
0,44,0,2
0,54,95,2
0,61,90,1
0,68,84,0
0,58,89,0
0,54,0,11
0,61,0,3
0,58,0,0
0,68,0,1
0,42,90,0
0,54,101,1
0,42,0,11
0,54,0,1
0,44,101,0
0,66,117,1
0,56,101,0
0,59,115,0
0,44,0,1
0,40,98,16
0,59,0,1
0,66,0,1
0,56,0,0
0,44,46,12
0,66,102,2
0,52,115,0
0,59,115,0
0,56,109,0
0,44,0,1
0,40,0,1
0,44,102,44
0,44,0,3
0,52,0,23
0,59,0,0
0,56,0,0
0,66,0,1
0,66,84,4
0,56,86,0
0,59,98,1
0,44,49,16
0,44,0,3
0,56,0,23
0,59,0,2
0,66,0,0
0,49,117,3
0,58,127,0
0,54,127,0
0,49,0,10
0,54,0,1
0,58,0,1
0,44,99,0
0,47,121,0
0,44,0,3
0,47,0,34
0,47,107,10
0,44,43,1
0,44,0,3
0,47,0,19
0,47,100,9
0,47,0,12
0,59,85,2
0,44,97,3
0,54,80,2
0,44,0,1
0,59,0,1
0,54,0,3
0,47,92,1
0,47,0,5
0,47,104,2
0,47,0,13
0,47,91,4
0,47,0,12
0,44,15,4
0,47,95,1
0,44,0,2
0,47,0,29
0,59,121,2
0,44,101,0
0,47,96,2
0,44,0,1
0,61,95,15
0,47,0,1
0,59,0,0
0,49,82,0
0,49,0,27
0,44,45,2
0,44,0,3
0,49,100,1
0,61,0,7
0,49,0,19
0,49,68,4
0,44,110,14
0,44,0,3
0,61,98,0
0,49,0,1
0,56,101,7
0,61,0,2
0,49,90,4
0,56,0,13
0,49,0,9
0,56,113,7
0,49,96,0
0,44,55,2
0,44,0,3
0,56,0,23
0,49,0,3
0,39,93,0
0,39,0,18
0,58,113,1
0,44,106,0
0,56,100,0
0,61,104,0
0,56,0,3
0,44,0,0
0,61,0,21
0,58,0,2
0,61,104,3
0,58,107,1
0,61,0,10
0,58,0,2
0,61,107,4
0,56,107,0
0,44,45,2
0,44,0,3
0,61,0,20
0,56,0,2
0,61,101,3
0,61,0,12
0,54,111,5
0,61,119,0
0,44,101,2
0,44,0,3
0,54,0,21
0,61,0,2
0,54,102,3
0,54,0,13
0,51,101,4
0,56,117,1
0,44,63,1
0,44,0,3
0,56,0,21
0,51,0,0
0,56,98,4
0,51,100,0
0,61,107,0
0,40,78,4
0,40,0,3
0,51,0,6
0,56,0,1
0,61,0,1
0,44,119,5
0,61,124,1
0,40,37,0
0,56,117,0
0,52,107,1
0,44,0,1
0,40,0,1
0,53,108,0
0,52,0,9
0,56,0,7
0,61,0,1
0,53,0,6
0,45,127,5
0,45,0,3
0,40,67,14
0,40,0,3
0,40,85,13
0,40,0,3
0,45,127,13
0,45,0,3
0,40,68,13
0,40,0,3
0,40,78,13
0,40,0,3
0,46,102,13
0,45,127,1
0,46,0,2
0,45,0,1
0,40,48,12
0,40,0,3
0,40,86,13
0,40,0,3
0,45,127,13
0,45,0,3
0,40,127,13
0,40,0,3
0,47,127,29
0,47,0,3
0,45,119,45
0,45,0,3
0,42,53,44
0,45,61,0
0,45,0,3
0,42,0,11
0,44,47,2
0,43,97,1
0,43,0,3
0,44,0,7
0,44,62,5
0,44,0,12
0,42,55,4
0,42,0,14
0,39,88,3
0,59,117,0
0,35,98,1
0,49,67,1
0,59,0,1
0,35,0,1
0,49,0,6
0,51,67,1
0,51,0,6
0,49,67,0
0,49,0,6
0,51,55,0
0,51,0,5
0,49,55,1
0,49,0,6
0,51,55,0
0,51,0,5
0,49,55,1
0,49,0,5
0,51,55,0
0,44,79,1
0,35,88,2
0,44,0,1
0,35,0,2
0,51,0,0
0,49,55,0
0,49,0,5
0,51,55,1
0,51,0,5
0,49,55,1
0,49,0,4
0,51,55,1
0,51,0,6
0,49,55,0
0,49,0,5
0,51,43,0
0,49,43,5
0,51,0,1
0,49,0,5
0,51,43,1
0,39,0,1
0,44,68,2
0,49,55,1
0,27,83,0
0,51,0,1
0,44,0,1
0,37,106,0
0,37,0,3
0,49,0,1
0,51,55,0
0,51,0,5
0,49,55,0
0,49,0,5
0,51,67,1
0,51,0,5
0,49,67,0
0,49,0,6
0,51,67,0
0,51,0,5
0,49,67,0
0,49,0,6
0,51,67,0
0,51,0,5
0,49,67,0
0,44,70,3
0,44,0,3
0,49,0,0
0,51,67,0
0,51,0,5
0,49,59,1
0,49,0,5
0,51,59,0
0,51,0,5
0,49,59,1
0,49,0,5
0,51,59,1
0,49,59,4
0,51,0,1
0,49,0,5
0,51,59,0
0,49,59,5
0,51,0,1
0,35,57,4
0,49,0,1
0,51,59,0
0,35,0,2
0,27,0,0
0,39,90,0
0,44,64,0
0,63,68,2
0,44,0,1
0,51,0,0
0,49,59,1
0,49,0,6
0,51,59,0
0,51,0,5
0,49,47,0
0,39,0,2
0,49,0,4
0,51,47,0
0,51,0,5
0,49,47,1
0,49,0,5
0,51,47,1
0,51,0,5
0,49,47,0
0,49,0,6
0,51,47,0
0,44,64,3
0,39,80,1
0,49,47,1
0,35,75,0
0,44,0,1
0,51,0,0
0,35,0,2
0,49,0,3
0,51,47,1
0,49,47,4
0,51,0,1
0,49,0,5
0,51,47,1
0,49,47,3
0,51,0,3
0,49,0,5
0,51,47,1
0,49,47,4
0,51,0,1
0,49,0,6
0,51,47,0
0,49,47,5
0,51,0,1
0,44,76,0
0,63,0,1
0,37,88,0
0,44,0,2
0,37,0,1
0,49,0,1
0,51,47,0
0,49,36,5
0,51,0,1
0,49,0,5
0,51,47,1
0,51,0,5
0,49,47,1
0,39,0,1
0,49,0,4
0,51,47,0
0,37,46,4
0,49,47,1
0,51,0,1
0,49,0,5
0,51,47,0
0,51,0,5
0,49,47,1
0,37,0,2
0,44,69,0
0,39,74,1
0,49,0,1
0,51,47,0
0,44,0,1
0,51,0,5
0,49,47,1
0,49,0,4
0,51,47,1
0,51,0,6
0,49,47,0
0,49,0,8
0,39,85,1
0,39,0,1
0,44,62,2
0,41,65,1
0,44,0,2
0,39,0,10
0,44,82,3
0,42,66,1
0,35,85,1
0,44,0,1
0,41,0,1
0,42,67,0
0,35,0,1
0,44,56,43
0,35,59,0
0,35,0,3
0,44,0,0
0,42,0,6
0,44,79,39
0,37,82,1
0,44,0,2
0,37,0,1
0,49,77,23
0,49,0,6
0,51,61,0
0,51,0,13
0,54,84,2
0,44,43,1
0,44,0,3
0,54,0,23
0,51,70,2
0,37,53,4
0,42,0,2
0,51,0,5
0,37,0,8
0,54,82,1
0,44,88,0
0,35,83,0
0,42,76,0
0,59,82,1
0,35,0,2
0,44,0,0
0,56,54,1
0,54,0,4
0,42,0,10
0,59,0,12
0,56,0,2
0,54,65,0
0,54,0,11
0,44,65,4
0,42,72,1
0,44,0,2
0,54,82,0
0,35,73,0
0,59,75,1
0,35,0,2
0,56,67,0
0,54,0,3
0,59,0,25
0,56,0,2
0,54,56,0
0,54,0,11
0,37,75,1
0,44,88,1
0,37,0,2
0,44,0,1
0,54,76,2
0,59,70,0
0,56,76,4
0,54,0,1
0,42,0,17
0,56,0,3
0,59,0,1
0,37,53,1
0,54,66,0
0,54,0,10
0,37,0,6
0,42,75,0
0,44,73,1
0,54,80,1
0,51,78,0
0,44,0,2
0,51,0,24
0,49,66,1
0,42,0,7
0,49,0,10
0,44,81,0
0,54,0,1
0,44,83,0
0,44,57,1
0,44,0,1
0,35,95,0
0,35,0,3
0,35,81,43
0,44,63,0
0,44,0,3
0,35,0,0
0,44,0,18
0,44,76,12
0,44,92,16
0,37,79,0
0,44,0,1
0,37,0,2
0,44,0,0
0,63,97,0
0,68,97,0
0,63,0,23
0,68,0,1
0,70,89,5
0,63,80,1
0,63,0,10
0,70,0,0
0,44,68,5
0,68,100,1
0,63,91,0
0,44,0,2
0,68,0,6
0,70,106,0
0,68,101,8
0,70,0,4
0,63,0,1
0,44,0,3
0,66,121,3
0,68,0,1
0,39,59,3
0,39,0,1
0,66,0,1
0,44,91,1
0,63,104,1
0,68,102,0
0,44,88,0
0,35,91,1
0,44,0,2
