track,note,velocity,time
1,63,100,3900
1,63,0,60
1,74,100,0
1,74,0,48
1,72,100,0
1,72,0,48
1,74,100,0
1,74,0,48
1,72,100,0
1,72,0,48
1,74,100,0
1,74,0,168
1,69,100,60
1,69,0,60
1,67,100,0
1,67,0,60
1,65,100,0
1,65,0,120
1,68,100,0
1,68,0,120
1,65,100,0
1,65,0,180
1,69,100,660
1,69,0,30
1,72,100,0
1,72,0,30
1,74,100,0
1,74,0,240
1,62,100,120
1,62,0,60
1,69,100,0
1,69,0,300
1,67,100,0
1,67,0,120
1,65,100,0
1,65,0,120
1,69,100,0
1,69,0,240
1,69,100,480
1,69,0,120
1,72,100,0
1,72,0,120
1,72,100,0
1,72,0,120
1,74,100,0
1,74,0,80
1,72,100,0
1,72,0,40
1,74,100,0
1,74,0,240
1,69,100,120
1,69,0,60
1,65,100,0
1,65,0,30
1,65,100,0
1,65,0,150
1,68,100,0
1,68,0,120
1,69,100,0
1,69,0,60
1,68,100,0
1,68,0,60
1,69,100,0
1,69,0,240
1,69,100,600
1,69,0,120
1,65,100,0
1,65,0,360
1,67,100,0
1,67,0,120
1,65,100,0
1,65,0,120
1,68,100,120
1,68,0,120
1,62,100,0
1,62,0,240
1,62,100,600
1,62,0,60
1,65,100,0
1,65,0,60
1,69,100,0
1,69,0,80
1,67,100,0
1,67,0,400
1,67,100,0
1,67,0,120
1,65,100,0
1,65,0,240
1,65,100,28
1,65,0,300
1,72,100,1500
1,72,0,60
1,74,100,0
1,74,0,120
1,69,100,0
1,69,0,120
1,74,100,0
1,74,0,60
1,72,100,0
1,72,0,60
1,74,100,0
1,74,0,120
1,68,100,0
1,68,0,120
1,69,100,0
1,69,0,60
1,68,100,0
1,68,0,60
1,69,100,0
1,69,0,60
1,65,100,0
1,65,0,180
1,69,100,560
1,69,0,80
1,72,100,0
1,72,0,80
1,72,100,0
1,72,0,80
1,72,100,0
1,72,0,80
1,74,100,0
1,74,0,200
1,69,100,0
1,69,0,120
1,69,100,0
1,69,0,80
1,65,100,0
1,65,0,40
1,65,100,0
1,65,0,240
1,69,100,0
1,69,0,120
1,74,100,960
1,74,0,80
1,72,100,0
1,72,0,40
1,74,100,0
1,74,0,240
1,70,100,0
1,70,0,120
1,74,100,0
1,74,0,120
1,65,100,0
1,65,0,240
1,65,100,0
1,65,0,120
1,65,100,80
1,65,0,80
1,60,100,0
1,60,0,320
1,69,100,360
1,69,0,120
1,65,100,6
1,65,0,186
1,62,100,54
1,62,0,60
1,69,100,0
1,69,0,60
1,67,100,0
1,67,0,60
1,63,100,0
1,63,0,240
1,67,100,0
1,67,0,120
1,65,100,0
1,65,0,120
1,67,100,0
1,67,0,114
1,62,100,568
1,62,0,60
1,62,100,0
1,62,0,60
1,69,100,0
1,69,0,120
1,62,100,0
1,62,0,120
1,65,100,120
1,65,0,120
1,68,100,0
1,68,0,120
1,62,100,0
1,62,0,240
1,69,100,120
1,69,0,92
1,69,100,28
1,69,0,480
1,72,100,12060
1,72,0,60
1,74,100,0
1,74,0,60
1,72,100,0
1,72,0,60
1,74,100,0
1,74,0,120
1,70,100,0
1,70,0,60
1,72,100,0
1,72,0,120
1,72,100,120
1,72,0,120
1,67,100,0
1,67,0,60
1,69,100,0
1,69,0,120
1,69,100,0
1,69,0,60
1,65,100,0
1,65,0,60
1,72,100,600
1,72,0,120
1,74,100,0
1,74,0,80
1,72,100,0
1,72,0,40
1,74,100,0
1,74,0,80
1,72,100,0
1,72,0,40
1,74,100,0
1,74,0,240
1,69,100,120
1,69,0,60
1,65,100,0
1,65,0,60
1,65,100,80
1,65,0,80
1,65,100,0
1,65,0,80
1,68,100,0
1,68,0,120
1,65,100,0
1,65,0,120
1,69,100,540
1,69,0,60
1,72,100,0
1,72,0,60
1,72,100,0
1,72,0,60
1,74,100,0
1,74,0,120
1,69,100,0
1,69,0,60
1,67,100,0
1,67,0,60
1,70,100,240
1,70,0,240
1,69,100,120
1,69,0,120
1,69,100,60
1,69,0,180
1,62,100,0
1,62,0,120
1,65,100,420
1,65,0,120
1,65,100,0
1,65,0,60
1,69,100,0
1,69,0,120
1,67,100,0
1,67,0,120
1,67,100,0
1,67,0,60
1,65,100,0
1,65,0,120
1,62,100,0
1,62,0,60
1,62,100,300
1,62,0,80
1,65,100,60
1,65,0,200
1,67,100,680
1,67,0,60
1,67,100,0
1,67,0,56
1,67,100,6
1,67,0,356
1,70,100,4
1,70,0,360
1,65,100,120
1,65,0,60
1,60,100,0
1,60,0,60
1,62,100,0
1,62,0,180
1,65,100,0
1,65,0,300
1,67,100,1500
1,67,0,60
1,77,100,0
1,77,0,80
1,74,100,0
1,74,0,80
1,72,100,0
1,72,0,40
1,74,100,0
1,74,0,40
1,69,100,0
1,69,0,120
1,74,100,60
1,74,0,60
1,72,100,0
1,72,0,120
1,72,100,0
1,72,0,60
1,74,100,0
1,74,0,60
1,74,100,0
1,74,0,120
1,69,100,0
1,69,0,180
1,72,100,540
1,72,0,60
1,74,100,0
1,74,0,300
1,69,100,60
1,69,0,120
1,69,100,0
1,69,0,60
1,67,100,0
1,67,0,60
1,65,100,0
1,65,0,180
1,65,100,60
1,65,0,60
1,65,100,0
1,65,0,60
1,67,100,0
1,67,0,60
1,69,100,0
1,69,0,240
1,72,100,540
1,72,0,60
1,74,100,0
1,74,0,60
1,72,100,0
1,72,0,60
1,74,100,0
1,74,0,240
1,72,100,80
1,72,0,80
1,69,100,0
1,69,0,80
1,67,100,0
1,67,0,240
1,65,100,120
1,65,0,60
1,65,100,0
1,65,0,60
1,69,100,0
1,69,0,120
1,62,100,0
1,62,0,120
1,65,100,400
1,65,0,80
1,65,100,0
1,65,0,80
1,65,100,0
1,65,0,80
1,69,100,0
1,69,0,80
1,62,100,0
1,62,0,240
1,67,100,80
1,67,0,80
1,65,100,0
1,65,0,80
1,62,100,0
1,62,0,240
1,65,100,60
1,65,0,60
1,65,100,0
1,65,0,120
1,65,100,0
1,65,0,120
1,63,100,720
1,63,0,60
1,63,100,0
1,63,0,60
1,69,100,0
1,69,0,120
1,67,100,0
1,67,0,360
1,69,100,0
1,69,0,480
1,69,100,0
1,69,0,120
1,65,100,0
1,65,0,480
2,46,100,0
2,51,100,0
2,58,100,0
2,63,100,0
2,63,0,100
2,46,0,0
2,51,0,0
2,58,0,0
2,47,100,0
2,52,100,0
2,59,100,0
2,64,100,0
2,64,0,240
2,47,0,0
2,52,0,0
2,59,0,0
2,48,100,0
2,53,100,0
2,60,100,0
2,65,100,0
2,65,0,600
2,48,0,0
2,53,0,0
2,60,0,0
2,63,100,0
2,58,100,0
2,55,100,0
2,55,0,120
2,58,0,0
2,63,0,0
2,56,100,0
2,59,100,0
2,64,100,0
2,64,0,240
2,59,0,0
2,56,0,0
2,57,100,0
2,60,100,0
2,65,100,0
2,65,0,600
2,60,0,0
2,57,0,0
2,46,100,0
2,51,100,0
2,58,100,0
2,58,0,120
2,51,0,0
2,46,0,0
2,47,100,0
2,52,100,0
2,59,100,0
2,59,0,240
2,52,0,0
2,47,0,0
2,48,100,0
2,53,100,0
2,60,100,0
2,60,0,360
2,53,0,0
2,48,0,0
2,63,100,240
2,58,100,0
2,55,100,0
2,55,0,120
2,58,0,0
2,63,0,0
2,56,100,0
2,59,100,0
2,64,100,0
2,64,0,240
2,59,0,0
2,56,0,0
2,57,100,0
2,60,100,0
2,65,100,0
2,65,0,200
2,60,0,0
2,57,0,0
2,53,100,0
2,53,0,40
2,55,100,0
2,55,0,40
2,57,100,0
2,57,0,40
2,60,100,0
2,60,0,40
2,62,100,0
2,62,0,60
2,60,100,0
2,60,0,60
2,57,100,0
2,57,0,6
2,48,90,8
2,48,0,240
2,60,90,0
2,64,90,0
2,67,90,0
2,67,0,80
2,64,0,0
2,60,0,0
2,46,90,160
2,46,0,240
2,58,90,0
2,62,90,0
2,65,90,0
2,70,90,0
2,70,0,80
2,58,0,0
2,62,0,0
2,65,0,0
2,53,90,340
2,57,90,0
2,57,0,60
2,53,0,0
2,53,90,0
2,57,90,0
2,57,0,120
2,53,0,0
2,41,90,0
2,41,0,80
2,53,90,0
2,53,0,40
2,60,90,0
2,53,90,0
2,57,90,0
2,57,0,60
2,53,0,0
2,60,0,0
2,55,90,0
2,55,0,60
2,60,90,0
2,57,90,0
2,53,90,0
2,53,0,360
2,57,0,0
2,60,0,0
2,48,90,0
2,48,0,240
2,55,90,0
2,60,90,0
2,64,90,0
2,64,0,120
2,60,0,0
2,55,0,0
2,48,90,0
2,48,0,120
2,50,90,0
2,53,90,0
2,53,0,120
2,50,0,0
2,53,90,0
2,53,0,80
2,58,90,0
2,58,0,40
2,55,90,0
2,55,0,120
2,53,90,0
2,53,0,120
2,41,90,0
2,41,0,240
2,55,90,0
2,53,90,0
2,53,0,120
2,55,0,0
2,41,90,0
2,41,0,60
2,48,90,0
2,48,0,60
2,62,90,0
2,65,90,0
2,65,0,120
2,62,0,0
2,65,90,0
2,60,90,0
2,60,0,360
2,65,0,0
2,48,90,0
2,52,90,0
2,55,90,0
2,55,0,120
2,52,0,0
2,48,0,0
2,60,90,0
2,60,0,120
2,52,90,0
2,55,90,0
2,55,0,120
2,52,0,0
2,47,90,0
2,47,0,120
2,46,90,0
2,46,0,180
2,58,90,0
2,53,90,0
2,53,0,60
2,58,0,0
2,53,90,0
2,58,90,0
2,62,90,0
2,62,0,16
2,58,0,0
2,53,0,0
2,41,90,224
2,41,0,120
2,53,90,0
2,53,0,120
2,60,90,0
2,57,90,0
2,53,90,0
2,53,0,120
2,57,0,0
2,60,0,0
2,41,90,0
2,41,0,80
2,48,90,0
2,48,0,40
2,41,90,0
2,41,0,120
2,41,90,0
2,41,0,80
2,53,90,0
2,53,0,40
2,60,90,0
2,57,90,0
2,53,90,0
2,53,0,120
2,57,0,0
2,60,0,0
2,41,90,0
2,41,0,80
2,57,90,0
2,53,90,0
2,53,0,40
2,57,0,0
2,59,90,0
2,55,90,0
2,55,0,60
2,59,0,0
2,55,90,0
2,59,90,0
2,59,0,60
2,55,0,0
2,62,90,0
2,55,90,0
2,59,90,0
2,59,0,60
2,55,0,0
2,62,0,0
2,62,90,0
2,55,90,0
2,59,90,0
2,59,0,60
2,55,0,0
2,62,0,0
2,55,90,0
2,59,90,0
2,64,90,0
2,64,0,60
2,59,0,0
2,55,0,0
2,62,90,0
2,62,0,60
2,55,90,0
2,55,0,60
2,62,90,0
2,59,90,0
2,59,0,52
2,62,0,0
2,46,90,8
2,46,0,34
2,65,90,0
2,62,90,0
2,58,90,0
2,58,0,60
2,62,0,0
2,65,0,0
2,65,90,0
2,62,90,0
2,58,90,0
2,58,0,60
2,62,0,0
2,65,0,0
2,65,90,0
2,62,90,0
2,58,90,0
2,58,0,60
2,62,0,0
2,65,0,0
2,67,90,0
2,58,90,0
2,62,90,0
2,62,0,60
2,58,0,0
2,67,0,0
2,58,90,0
2,62,90,0
2,65,90,0
2,65,0,60
2,62,0,0
2,58,0,0
2,58,90,0
2,62,90,0
2,65,90,0
2,65,0,20
2,62,0,0
2,58,0,0
2,65,90,40
2,62,90,0
2,58,90,0
2,58,0,20
2,62,0,0
2,65,0,0
2,46,100,40
2,51,100,0
2,58,100,0
2,63,100,0
2,63,0,120
2,46,0,0
2,51,0,0
2,58,0,0
2,47,100,0
2,52,100,0
2,59,100,0
2,64,100,0
2,64,0,240
2,47,0,0
2,52,0,0
2,59,0,0
2,48,100,0
2,53,100,0
2,60,100,0
2,65,100,0
2,65,0,480
2,48,0,0
2,53,0,0
2,60,0,0
2,59,90,120
2,43,90,0
2,55,90,0
2,62,90,0
2,62,0,120
2,59,0,0
2,43,0,0
2,55,0,0
2,55,90,0
2,59,90,0
2,62,90,0
2,62,0,60
2,59,0,0
2,55,0,0
2,55,90,0
2,59,90,0
2,62,90,0
2,62,0,60
2,59,0,0
2,55,0,0
2,55,90,0
2,59,90,0
2,64,90,0
2,64,0,60
2,59,0,0
2,55,0,0
2,59,90,0
2,62,90,0
2,55,90,0
2,55,0,60
2,62,0,0
2,59,0,0
2,55,90,0
2,55,0,60
2,59,90,0
2,59,0,52
2,46,90,8
2,62,90,0
2,58,90,0
2,58,0,28
2,62,0,0
2,46,0,0
2,65,90,0
2,65,0,60
2,46,90,0
2,46,0,60
2,65,90,0
2,62,90,0
2,58,90,0
2,58,0,60
2,62,0,0
2,65,0,0
2,58,90,0
2,62,90,0
2,67,90,0
2,67,0,60
2,62,0,0
2,58,0,0
2,65,90,0
2,65,0,60
2,58,90,0
2,62,90,0
2,65,90,0
2,65,0,60
2,62,0,0
2,58,0,0
2,46,100,60
2,51,100,0
2,58,100,0
2,63,100,0
2,63,0,120
2,46,0,0
2,51,0,0
2,58,0,0
2,47,100,0
2,52,100,0
2,59,100,0
2,64,100,0
2,64,0,240
2,47,0,0
2,52,0,0
2,59,0,0
2,48,100,0
2,53,100,0
2,60,100,0
2,65,100,0
2,65,0,360
2,48,0,0
2,53,0,0
2,60,0,0
2,53,100,0
2,60,100,0
2,65,100,0
2,65,0,30
2,60,0,0
2,53,0,0
2,63,100,210
2,58,100,0
2,55,100,0
2,55,0,120
2,58,0,0
2,63,0,0
2,56,100,0
2,59,100,0
2,64,100,0
2,64,0,240
2,59,0,0
2,56,0,0
2,57,100,0
2,60,100,0
2,65,100,0
2,65,0,200
2,60,0,0
2,57,0,0
2,60,100,0
2,60,0,40
2,60,100,0
2,57,100,0
2,57,0,80
2,60,0,0
2,60,100,0
2,60,0,40
2,62,100,0
2,62,0,80
2,65,100,0
2,60,100,0
2,60,0,40
2,65,0,0
2,57,100,0
2,57,0,6
2,48,90,4
2,48,0,236
2,64,90,0
2,60,90,0
2,55,90,0
2,55,0,60
2,60,0,0
2,64,0,0
2,60,90,120
2,60,0,60
2,53,90,0
2,48,90,0
2,48,0,60
2,50,90,0
2,50,0,140
2,53,0,0
2,58,90,0
2,58,0,40
2,53,90,0
2,58,90,0
2,58,0,120
2,53,0,0
2,50,90,0
2,50,0,120
2,41,90,0
2,41,0,240
2,60,90,0
2,57,90,0
2,53,90,0
2,53,0,30
2,57,0,0
2,60,0,0
2,55,90,0
2,55,0,90
2,41,90,0
2,41,0,80
2,53,90,0
2,48,90,0
2,48,0,40
2,53,0,0
2,60,90,0
2,57,90,0
2,53,90,0
2,53,0,120
2,57,0,0
2,60,0,0
2,65,90,0
2,60,90,0
2,57,90,0
2,57,0,240
2,60,0,0
2,65,0,0
2,43,90,0
2,43,0,4
2,48,90,8
2,48,0,120
2,55,90,0
2,55,0,120
2,60,90,0
2,64,90,0
2,64,0,120
2,60,0,0
2,48,90,0
2,55,90,0
2,55,0,80
2,48,0,0
2,60,90,0
2,60,0,40
2,48,90,0
2,53,90,0
2,48,0,60
2,50,90,0
2,50,0,120
2,53,0,0
2,58,90,0
2,53,90,0
2,53,0,60
2,58,0,0
2,53,90,0
2,53,0,60
2,58,90,0
2,58,0,60
2,50,90,0
2,53,90,0
2,53,0,120
2,50,0,0
2,41,90,0
2,41,0,120
2,53,90,0
2,57,90,0
2,57,0,60
2,53,0,0
2,53,90,0
2,57,90,0
2,57,0,60
2,53,0,0
2,60,90,0
2,57,90,0
2,53,90,0
2,53,0,120
2,57,0,0
2,60,0,0
2,41,90,0
2,41,0,60
2,48,90,0
2,48,0,60
2,60,90,0
2,57,90,0
2,53,90,0
2,53,0,120
2,57,0,0
2,60,0,0
2,60,90,0
2,57,90,0
2,53,90,0
2,53,0,240
2,57,0,0
2,60,0,0
2,41,90,0
2,41,0,4
2,67,90,8
2,64,90,0
2,60,90,0
2,48,90,0
2,48,0,360
2,67,0,0
2,64,0,0
2,60,0,0
2,59,90,0
2,63,90,0
2,66,90,0
2,73,90,0
2,73,0,120
2,59,0,0
2,63,0,0
2,66,0,0
2,58,90,0
2,62,90,0
2,65,90,0
2,72,90,0
2,72,0,320
2,58,0,0
2,62,0,0
2,65,0,0
2,58,90,0
2,62,90,0
