track,note,velocity,time
0,38,109,96
0,51,109,0
0,64,110,0
0,55,109,0
0,60,105,0
0,43,99,224
0,60,103,0
0,31,97,16
0,67,102,0
0,72,102,16
0,43,101,16
0,67,102,0
0,31,96,16
0,60,105,0
0,56,110,64
0,61,105,0
0,65,111,0
0,38,107,4
0,51,83,0
0,43,101,272
0,60,105,0
0,31,97,16
0,67,104,0
0,72,101,16
0,43,101,16
0,67,102,0
0,31,99,16
0,60,105,0
0,58,107,64
0,63,107,0
0,67,107,0
0,38,108,4
0,51,82,0
0,43,101,272
0,60,101,0
0,31,101,16
0,67,106,0
0,61,107,16
0,56,105,0
0,65,111,0
0,72,105,0
0,38,108,4
0,51,82,0
0,67,101,16
0,43,100,16
0,60,106,0
0,31,96,16
0,67,103,0
0,36,97,16
0,55,110,0
0,60,110,0
0,64,110,0
0,72,103,0
0,38,106,4
0,51,83,0
0,76,113,272
0,74,115,272
0,72,114,16
0,67,112,16
0,65,113,16
0,64,113,16
0,38,107,4
0,38,109,120
0,36,106,16
0,38,107,0
0,51,109,0
0,36,98,0
0,60,110,0
0,57,108,0
0,64,110,0
0,55,109,0
0,36,108,16
0,38,106,0
0,51,109,0
0,38,96,0
0,62,105,0
0,65,109,0
0,60,106,0
0,57,105,0
0,53,110,0
0,36,107,16
0,38,106,0
0,51,108,0
0,39,99,0
0,58,109,0
0,61,110,0
0,63,107,0
0,66,109,0
0,54,111,0
0,40,97,16
0,64,106,0
0,62,111,0
0,67,108,0
0,59,110,0
0,55,107,0
0,36,107,4
0,38,108,0
0,51,103,0
0,76,113,272
0,74,113,272
0,72,113,16
0,67,114,16
0,65,114,16
0,64,112,16
0,38,109,4
0,38,106,120
0,36,106,16
0,38,109,0
0,51,109,0
0,36,100,0
0,64,110,0
0,62,107,0
0,69,111,0
0,57,109,0
0,60,109,0
0,36,108,16
0,38,106,0
0,51,109,0
0,35,101,0
0,59,105,0
0,56,108,0
0,63,110,0
0,68,106,0
0,66,110,0
0,36,109,16
0,38,109,0
0,51,106,0
0,34,97,0
0,62,110,0
0,55,106,0
0,67,106,0
0,58,106,0
0,33,101,16
0,61,111,0
0,64,108,0
0,57,110,0
0,52,108,0
0,55,106,0
0,36,108,4
0,38,106,0
0,51,84,0
0,67,115,272
0,65,112,272
0,64,112,16
0,37,109,16
0,62,114,0
0,37,106,16
0,60,112,0
0,36,108,144
0,51,107,0
0,38,97,0
0,64,108,0
0,60,107,0
0,50,107,0
0,54,110,0
0,57,108,0
0,72,114,0
0,38,106,16
0,51,107,0
0,40,100,0
0,69,115,144
0,51,85,4
0,36,108,16
0,51,106,0
0,42,100,0
0,60,111,144
0,64,111,0
0,50,111,0
0,57,110,0
0,54,108,0
0,38,107,16
0,51,107,0
0,38,96,0
0,62,110,252
0,65,105,0
0,72,111,0
0,69,109,0
0,55,111,0
0,51,83,4
0,36,108,16
0,51,109,0
0,43,97,0
0,64,114,252
0,38,106,16
0,51,107,0
0,38,98,0
0,65,114,0
0,66,113,16
0,51,82,4
0,36,108,16
0,51,108,0
0,43,101,0
0,69,105,0
0,65,107,0
0,76,109,0
0,72,109,0
0,55,110,0
0,67,115,0
0,38,100,16
0,60,114,0
0,38,108,16
0,51,106,0
0,31,97,0
0,63,113,0
0,64,114,16
0,38,108,4
0,51,84,0
0,38,109,16
0,51,108,0
0,36,99,0
0,60,113,0
0,36,106,16
0,38,106,0
0,51,107,0
0,40,97,0
0,58,111,0
0,70,106,0
0,64,110,0
0,67,105,0
0,62,109,0
0,36,106,16
0,38,109,0
0,51,106,0
0,41,97,0
0,62,108,0
0,57,107,0
0,69,111,0
0,60,108,0
0,65,106,0
0,36,108,16
0,38,108,0
0,51,108,0
0,42,99,0
0,63,105,0
0,68,111,0
0,60,106,0
0,56,106,0
0,66,108,0
0,43,98,16
0,64,109,0
0,67,107,0
0,57,111,0
0,55,106,0
0,60,107,0
0,36,109,4
0,38,109,0
0,51,82,0
0,76,112,272
0,74,112,272
0,72,115,16
0,67,114,16
0,65,112,16
0,64,112,16
0,38,109,4
0,38,106,120
0,36,108,16
0,38,108,0
0,51,106,0
0,36,97,0
0,60,105,0
0,57,106,0
0,64,106,0
0,55,105,0
0,36,106,16
0,38,109,0
0,51,107,0
0,38,98,0
0,62,109,0
0,65,111,0
0,60,110,0
0,57,105,0
0,53,105,0
0,36,107,16
0,38,107,0
0,51,109,0
0,39,101,0
0,58,105,0
0,61,108,0
0,63,107,0
0,66,105,0
0,54,106,0
0,40,96,16
0,64,106,0
0,62,107,0
0,67,109,0
0,59,105,0
0,55,111,0
0,36,108,4
0,38,106,0
0,51,82,0
0,76,112,272
0,74,114,272
0,72,115,16
0,67,112,16
0,65,112,16
0,64,115,16
0,38,107,4
0,38,109,120
0,36,107,16
0,38,107,0
0,51,109,0
0,36,98,0
0,64,111,0
0,62,107,0
0,69,105,0
0,57,105,0
0,60,108,0
0,36,106,16
0,38,106,0
0,51,109,0
0,35,97,0
0,59,107,0
0,56,107,0
0,63,111,0
0,68,109,0
0,66,107,0
0,36,106,16
0,38,109,0
0,51,107,0
0,34,97,0
0,62,108,0
0,55,108,0
0,67,108,0
0,58,106,0
0,33,100,16
0,61,109,0
0,64,107,0
0,57,106,0
0,52,111,0
0,55,110,0
0,36,107,4
0,38,108,0
0,51,85,0
0,67,113,272
0,65,112,272
0,64,112,16
0,37,106,16
0,62,112,0
0,37,108,16
0,60,113,0
0,36,107,144
0,51,109,0
0,38,101,0
0,64,106,0
0,60,111,0
0,50,109,0
0,54,107,0
0,57,108,0
0,72,113,0
0,38,109,16
0,51,107,0
0,40,98,0
0,69,113,144
0,51,85,4
0,36,109,16
0,51,107,0
0,42,96,0
0,60,110,144
0,64,111,0
0,50,107,0
0,57,107,0
0,54,109,0
0,38,106,16
0,51,108,0
0,38,97,0
0,62,109,252
0,65,109,0
0,72,109,0
0,69,111,0
0,55,109,0
0,51,83,4
0,36,109,16
0,51,108,0
0,43,100,0
0,64,112,252
0,38,106,16
0,51,107,0
0,38,98,0
0,65,112,0
0,66,114,16
0,51,84,4
0,36,108,16
0,51,106,0
0,43,96,0
0,69,108,0
0,65,109,0
0,76,110,0
0,72,110,0
0,55,105,0
0,67,113,0
0,38,100,16
0,60,112,0
0,38,107,16
0,51,106,0
0,31,98,0
0,63,112,0
0,64,115,16
0,38,108,4
0,51,85,0
0,38,107,16
0,51,107,0
0,36,98,0
0,60,113,0
0,36,108,16
0,38,107,0
0,51,109,0
0,40,99,0
0,58,106,0
0,70,105,0
0,64,107,0
0,67,110,0
0,62,105,0
0,36,108,16
0,38,108,0
0,51,106,0
0,41,99,0
0,62,110,0
0,57,106,0
0,69,107,0
0,60,106,0
0,65,109,0
0,36,108,16
0,38,108,0
0,51,106,0
0,42,98,0
0,63,106,0
0,68,105,0
0,60,107,0
0,56,107,0
0,66,105,0
0,43,101,16
0,64,106,0
0,67,108,0
0,57,106,0
0,55,111,0
0,60,109,0
0,36,106,4
0,38,107,0
0,51,84,0
0,72,124,272
0,74,124,16
0,72,124,16
0,76,124,16
0,72,124,16
0,75,124,16
0,63,124,0
0,70,124,0
0,73,124,0
0,67,124,0
0,74,124,16
0,62,124,0
0,65,124,0
0,72,124,0
0,69,124,0
0,36,107,128
0,51,106,0
0,41,97,0
0,36,108,16
0,38,109,0
0,51,107,0
0,48,98,0
0,72,124,16
0,69,124,0
0,60,124,0
0,65,124,0
0,62,124,0
0,51,82,4
0,36,109,16
0,51,106,0
0,45,98,0
0,36,107,16
0,38,106,0
0,51,106,0
0,41,100,0
0,69,124,0
0,65,124,0
0,60,124,0
0,57,124,0
0,62,124,0
0,72,124,16
0,68,124,0
0,63,124,0
0,65,124,0
0,60,124,0
0,51,84,4
0,36,108,16
0,51,109,0
0,46,98,0
0,74,124,16
0,70,124,0
0,65,124,0
0,62,124,0
0,67,124,0
0,36,108,16
0,38,106,0
0,51,108,0
0,44,99,0
0,75,124,0
0,68,124,0
0,63,124,0
0,67,124,0
0,72,124,0
0,75,124,16
0,68,124,0
0,72,124,0
0,67,124,0
0,63,124,0
0,51,82,4
0,36,107,16
0,51,108,0
0,43,100,0
0,74,124,144
0,70,124,0
0,65,124,0
0,67,124,0
0,62,124,0
0,36,108,16
0,38,106,0
0,51,106,0
0,41,96,0
0,65,124,0
0,68,124,0
0,63,124,0
0,72,124,0
0,60,124,0
0,62,124,0
0,51,83,20
0,36,109,16
0,51,107,0
0,40,98,0
0,67,124,252
0,71,124,0
0,64,124,0
0,62,124,0
0,74,124,0
0,36,109,16
0,38,108,0
0,51,109,0
0,43,101,0
0,51,83,256
0,36,107,16
0,51,108,0
0,38,99,0
0,65,124,0
0,62,124,0
0,69,124,0
0,72,124,0
0,60,124,0
0,36,106,16
0,38,106,0
0,51,109,0
0,37,96,0
0,63,124,0
0,59,124,0
0,65,124,0
0,67,124,0
0,55,124,0
0,58,124,16
0,64,124,0
0,55,124,0
0,62,124,0
0,52,124,0
0,51,83,4
0,36,107,16
0,51,107,0
0,36,101,0
0,36,106,16
0,38,109,0
0,51,107,0
0,43,97,0
0,51,84,256
0,36,108,16
0,51,106,0
0,40,99,0
0,36,109,16
0,38,108,0
0,51,106,0
0,36,97,0
0,51,82,256
0,36,108,16
0,51,109,0
0,38,101,0
0,71,124,252
0,74,124,0
0,69,124,0
0,66,124,0
0,62,124,0
0,36,106,16
0,38,106,0
0,51,106,0
0,42,100,0
0,51,83,256
0,36,108,16
0,51,109,0
0,45,101,0
0,67,124,0
0,72,124,0
0,69,124,0
0,60,124,0
0,64,124,0
0,36,107,16
0,38,106,0
0,51,109,0
0,48,97,0
0,69,124,0
0,60,124,0
0,67,124,0
0,57,124,0
0,64,124,0
0,69,124,16
0,72,124,0
0,66,124,0
0,64,124,0
0,60,124,0
0,51,82,4
0,36,108,16
0,51,109,0
0,50,98,0
0,38,99,16
0,36,108,16
0,38,107,0
0,51,108,0
0,40,96,0
0,51,85,256
0,36,106,16
0,51,109,0
0,41,98,0
0,36,107,16
0,38,108,0
0,51,106,0
0,42,99,0
0,51,82,20
0,36,107,16
0,51,107,0
0,43,101,0
0,51,109,16
0,62,124,0
0,71,124,0
0,67,124,0
0,59,124,0
0,65,124,0
0,36,107,16
0,38,108,0
0,51,108,0
0,62,124,0
0,59,124,0
0,67,124,0
0,71,124,0
0,65,124,0
0,59,124,16
0,55,124,0
0,62,124,0
0,65,124,0
0,67,124,0
0,51,83,4
0,36,108,16
0,38,109,0
0,51,109,0
0,43,98,0
0,67,124,0
0,65,124,0
0,71,124,0
0,62,124,0
0,59,124,0
0,38,106,16
0,51,106,0
0,67,124,0
0,36,109,16
0,38,108,0
0,51,107,0
0,38,96,0
0,64,124,0
0,66,124,0
0,69,124,0
0,57,124,0
0,60,124,0
0,43,97,16
0,67,124,0
0,59,124,0
0,62,124,0
0,65,124,0
0,55,124,0
0,36,108,4
0,38,109,0
0,51,85,0
0,31,98,272
0,76,115,0
0,32,100,16
0,74,114,0
0,33,97,16
0,72,115,0
0,34,96,16
0,67,113,0
0,35,101,16
0,65,115,0
0,36,97,16
0,64,115,0
0,38,109,4
0,38,109,16
0,36,106,16
0,38,109,0
0,51,106,0
0,36,96,0
0,60,108,0
0,57,109,0
0,64,106,0
0,55,110,0
0,36,108,16
0,38,107,0
0,51,106,0
0,38,99,0
0,62,107,0
0,65,109,0
0,60,110,0
0,57,109,0
0,53,105,0
0,36,109,16
0,38,106,0
0,51,107,0
0,39,97,0
0,58,110,0
0,61,109,0
0,63,106,0
0,66,107,0
0,54,106,0
0,40,97,16
0,64,109,0
0,62,110,0
0,67,106,0
0,59,107,0
0,55,110,0
0,36,109,4
0,38,106,0
0,51,85,0
0,76,115,272
0,74,112,272
0,72,112,16
0,67,113,16
0,65,114,16
0,64,112,16
0,38,106,4
0,38,109,120
0,36,106,16
0,38,109,0
0,51,108,0
0,36,101,0
0,64,111,0
0,62,106,0
0,69,111,0
0,57,106,0
0,60,105,0
0,36,108,16
0,38,107,0
0,51,107,0
0,35,101,0
0,59,107,0
0,56,108,0
0,63,107,0
0,68,107,0
0,66,111,0
0,36,108,16
0,38,106,0
0,51,106,0
0,34,96,0
0,62,106,0
0,55,107,0
0,67,107,0
0,58,110,0
0,33,98,16
0,61,105,0
0,64,108,0
0,57,105,0
0,52,109,0
0,55,107,0
0,36,106,4
0,38,106,0
0,51,83,0
0,67,112,272
0,65,115,272
0,64,115,16
0,62,115,16
0,60,112,16
0,36,107,144
0,51,106,0
0,38,101,0
0,64,106,0
0,60,107,0
0,50,109,0
0,54,105,0
0,57,110,0
0,72,115,0
0,38,107,16
0,51,107,0
0,40,100,0
0,69,115,16
0,51,85,4
0,36,106,16
0,51,108,0
0,42,97,0
0,60,107,144
0,64,110,0
0,50,108,0
0,57,110,0
0,54,109,0
0,38,107,16
0,51,109,0
0,38,96,0
0,62,105,252
0,65,111,0
0,72,105,0
0,69,111,0
0,55,106,0
0,51,85,4
0,36,107,16
0,51,107,0
0,43,99,0
0,64,115,252
0,38,109,16
0,51,106,0
0,38,97,0
0,65,115,0
0,66,112,16
0,51,82,4
0,36,109,16
0,51,109,0
0,43,101,0
0,69,106,0
0,65,106,0
0,76,110,0
0,72,109,0
0,55,110,0
0,67,115,0
0,38,98,16
0,60,112,0
0,38,107,16
0,51,109,0
0,31,96,0
0,63,115,0
0,64,114,16
0,38,107,4
0,51,85,0
0,38,107,16
0,51,106,0
0,36,99,0
0,60,114,0
0,36,107,16
0,38,108,0
0,51,107,0
0,40,101,0
0,58,108,0
0,70,105,0
0,64,109,0
0,67,105,0
0,62,111,0
0,36,109,16
0,38,107,0
0,51,109,0
0,41,99,0
0,62,108,0
0,57,107,0
0,69,105,0
0,60,108,0
0,65,106,0
0,36,108,16
0,38,108,0
0,51,107,0
0,42,99,0
0,63,107,0
0,68,106,0
0,60,107,0
0,56,111,0
0,66,107,0
0,43,101,16
0,64,109,0
0,67,107,0
0,57,111,0
0,55,108,0
0,60,107,0
0,36,106,4
0,38,107,0
0,51,84,0
0,72,106,272
0,69,105,20
0,70,102,12
0,71,102,24
0,74,105,28
0,37,108,8
0,72,104,12
0,37,107,4
0,37,109,124
0,70,106,20
0,37,109,4
0,36,108,16
0,43,101,0
0,62,94,0
0,66,94,0
0,59,94,0
0,55,94,0
0,71,103,0
0,59,105,16
0,37,107,16
0,62,104,0
0,66,106,16
0,36,108,128
0,42,109,0
0,38,99,0
0,37,106,16
0,62,104,0
0,65,103,0
0,36,107,16
0,42,106,0
0,31,96,0
0,65,94,0
0,57,94,0
0,60,94,0
0,62,94,0
0,72,106,244
0,37,106,16
0,42,109,0
0,69,103,8
0,70,105,16
0,38,101,8
0,71,102,12
0,36,109,4
0,42,106,0
0,43,101,0
0,59,94,0
0,62,94,0
0,65,94,0
0,55,94,0
0,74,102,24
0,37,109,16
0,42,107,0
0,31,100,0
0,72,101,8
0,70,105,12
0,71,106,8
0,36,106,8
0,42,109,0
0,36,99,0
0,60,94,0
0,64,94,0
0,57,94,0
0,55,94,0
0,55,104,16
0,37,106,16
0,42,107,0
0,60,106,0
0,64,103,16
0,36,106,128
0,42,106,0
0,36,99,0
0,37,106,16
0,42,106,0
0,55,102,0
0,63,103,16
0,36,106,16
0,42,108,0
0,41,98,0
0,63,94,0
0,60,94,0
0,53,94,0
0,67,94,0
0,72,106,252
0,37,109,16
0,42,106,0
0,69,104,12
0,36,100,12
0,70,102,4
0,36,109,16
0,42,108,0
0,41,101,0
0,71,102,4
0,74,106,28
0,37,107,16
0,42,106,0
0,42,97,0
0,60,94,0
0,54,94,0
0,57,94,0
0,66,94,0
0,72,106,20
0,70,104,20
0,36,108,16
0,42,107,0
0,43,97,0
0,64,94,0
0,59,94,0
0,62,94,0
0,67,94,0
0,71,103,0
0,67,106,8
0,37,109,16
0,42,109,0
0,44,101,0
0,68,94,0
0,62,94,0
0,59,94,0
0,56,94,0
0,62,101,0
