track,note,velocity,time
1,50,100,0
1,51,100,0
1,52,100,0
1,55,100,840
1,56,100,0
1,57,100,0
1,45,100,0
1,57,100,360
1,55,100,0
1,57,100,0
1,55,100,0
1,45,100,0
1,57,100,360
1,55,100,0
1,57,100,0
1,55,100,0
1,45,100,0
1,57,100,360
1,55,100,0
1,57,100,0
1,55,100,0
1,45,100,0
1,57,100,360
1,55,100,0
1,57,100,0
1,55,100,0
1,45,100,0
1,49,100,0
1,52,100,0
1,43,100,0
1,47,100,0
1,50,100,0
1,50,100,0
1,51,100,0
1,52,100,0
1,45,100,0
1,57,100,360
1,55,100,0
1,57,100,0
1,55,100,0
1,45,100,0
1,57,100,360
1,55,100,0
1,57,100,0
1,55,100,0
1,45,100,0
1,57,100,360
1,55,100,0
1,57,100,0
1,55,100,0
1,45,100,0
1,57,100,360
1,55,100,0
1,57,100,0
1,55,100,0
1,45,100,0
1,49,100,0
1,52,100,0
1,43,100,0
1,47,100,0
1,50,100,0
1,50,100,0
1,51,100,0
1,52,100,0
1,45,100,0
1,57,100,360
1,55,100,0
1,57,100,0
1,55,100,0
1,45,100,0
1,57,100,360
1,55,100,0
1,57,100,0
1,55,100,0
1,45,100,0
1,57,100,360
1,55,100,0
1,57,100,0
1,55,100,0
1,45,100,0
1,57,100,360
1,55,100,0
1,57,100,0
1,55,100,0
1,40,100,0
1,44,100,0
1,47,100,0
1,43,100,0
1,47,100,0
1,50,100,0
1,50,100,0
1,48,100,0
1,50,100,0
1,48,100,120
1,50,100,0
1,47,100,0
1,48,100,0
1,47,100,0
1,48,100,0
1,47,100,0
1,43,100,0
1,42,100,0
1,43,100,0
1,42,100,0
1,43,100,0
1,42,100,0
1,43,100,0
1,42,100,0
1,43,100,0
1,48,100,0
1,45,100,0
1,49,100,0
1,52,100,0
1,43,100,0
1,47,100,0
1,50,100,0
1,50,100,0
1,51,100,0
1,52,100,0
1,55,100,1080
1,56,100,0
1,57,100,0
1,45,100,0
1,57,100,360
1,55,100,0
1,57,100,0
1,55,100,0
1,45,100,0
1,57,100,360
1,55,100,0
1,57,100,0
1,55,100,0
1,45,100,0
1,57,100,360
1,55,100,0
1,57,100,0
1,55,100,0
1,45,100,0
1,57,100,360
1,55,100,0
1,57,100,0
1,55,100,0
1,45,100,0
1,49,100,0
1,52,100,0
1,43,100,0
1,47,100,0
1,50,100,0
1,50,100,0
1,51,100,0
1,52,100,0
1,45,100,0
1,57,100,360
1,76,100,0
1,64,100,0
1,55,100,0
1,57,100,0
1,64,100,0
1,76,100,0
1,55,100,0
1,45,100,0
1,57,100,360
1,64,100,0
1,76,100,0
1,55,100,0
1,57,100,0
1,64,100,0
1,76,100,0
1,55,100,0
1,45,100,0
1,57,100,360
1,64,100,0
1,76,100,0
1,55,100,0
1,57,100,0
1,64,100,0
1,76,100,0
1,55,100,0
1,45,100,0
1,57,100,360
1,64,100,0
1,76,100,0
1,55,100,0
1,57,100,0
1,64,100,0
1,76,100,0
1,55,100,0
1,45,100,0
1,49,100,0
1,52,100,0
1,43,100,0
1,47,100,0
1,50,100,0
1,50,100,0
1,51,100,0
1,52,100,0
1,45,100,0
1,57,100,360
1,64,100,0
1,76,100,0
1,55,100,0
1,57,100,0
1,64,100,0
1,76,100,0
1,55,100,0
1,45,100,0
1,57,100,360
1,64,100,0
1,76,100,0
1,55,100,0
1,57,100,0
1,64,100,0
1,76,100,0
1,55,100,0
1,45,100,0
1,57,100,360
1,64,100,0
1,76,100,0
1,55,100,0
1,57,100,0
1,64,100,0
1,76,100,0
1,55,100,0
1,45,100,0
1,57,100,360
1,64,100,0
1,76,100,0
1,55,100,0
1,57,100,0
1,64,100,0
1,76,100,0
1,55,100,0
1,40,100,0
1,44,100,0
1,47,100,0
1,43,100,0
1,47,100,0
1,50,100,0
1,50,100,0
1,48,100,0
1,50,100,0
1,48,100,120
1,50,100,0
1,47,100,0
1,48,100,0
1,47,100,0
1,48,100,0
1,47,100,0
1,43,100,0
1,42,100,0
1,43,100,0
1,42,100,0
1,43,100,0
1,42,100,0
1,43,100,0
1,42,100,0
1,43,100,0
1,48,100,0
1,45,100,0
1,49,100,0
1,52,100,0
1,43,100,0
1,47,100,0
1,50,100,0
1,50,100,0
1,51,100,0
1,52,100,0
1,50,100,1080
1,51,100,0
1,52,100,0
1,55,100,0
1,56,100,0
1,57,100,0
1,69,100,0
1,57,100,0
1,72,100,0
1,60,100,0
1,76,100,0
1,64,100,0
1,81,100,0
1,69,100,0
1,81,100,0
1,69,100,0
1,76,100,0
1,88,100,0
1,69,100,0
1,57,100,0
1,81,100,0
1,79,100,0
1,76,100,0
1,81,100,0
1,79,100,0
1,76,100,0
1,81,100,0
1,79,100,0
1,76,100,0
1,81,100,0
1,79,100,0
1,76,100,0
1,81,100,0
1,79,100,0
1,76,100,0
1,81,100,0
1,79,100,0
1,76,100,0
1,76,100,0
1,88,100,0
1,72,100,0
1,84,100,0
1,81,100,0
1,69,100,0
1,69,100,2160
1,69,100,60
1,69,100,60
1,69,100,60
1,69,100,60
1,69,100,60
1,69,100,60
1,69,100,60
1,69,100,60
1,69,100,60
1,69,100,60
1,69,100,60
1,69,100,60
1,69,100,60
1,69,100,60
1,69,100,60
1,69,100,60
1,69,100,60
1,45,100,0
1,49,100,0
1,52,100,0
1,43,100,0
1,47,100,0
1,50,100,0
1,50,100,0
1,51,100,0
1,52,100,0
1,45,100,0
1,57,100,360
1,76,100,0
1,64,100,0
1,55,100,0
1,57,100,0
1,64,100,0
1,76,100,0
1,55,100,0
1,45,100,0
1,57,100,360
1,64,100,0
1,76,100,0
1,55,100,0
1,57,100,0
1,64,100,0
1,76,100,0
1,55,100,0
1,45,100,0
1,57,100,360
1,64,100,0
1,76,100,0
1,55,100,0
1,57,100,0
1,64,100,0
1,76,100,0
1,55,100,0
1,45,100,0
1,57,100,360
1,64,100,0
1,76,100,0
1,55,100,0
1,57,100,0
1,64,100,0
1,76,100,0
1,55,100,0
1,45,100,0
1,49,100,0
1,52,100,0
1,43,100,0
1,47,100,0
1,50,100,0
1,50,100,0
1,51,100,0
1,52,100,0
1,45,100,0
1,57,100,360
1,64,100,0
1,76,100,0
1,55,100,0
1,57,100,0
1,64,100,0
1,76,100,0
1,55,100,0
1,45,100,0
1,57,100,360
1,64,100,0
1,76,100,0
1,55,100,0
1,57,100,0
1,64,100,0
1,76,100,0
1,55,100,0
1,45,100,0
1,57,100,360
1,64,100,0
1,76,100,0
1,55,100,0
1,57,100,0
1,64,100,0
1,76,100,0
1,55,100,0
1,45,100,0
1,57,100,360
1,64,100,0
1,76,100,0
1,55,100,0
1,57,100,0
1,64,100,0
1,76,100,0
1,55,100,0
1,40,100,0
1,44,100,0
1,47,100,0
1,43,100,0
1,47,100,0
1,50,100,0
1,50,100,0
1,48,100,0
1,50,100,0
1,48,100,120
1,50,100,0
1,47,100,0
1,48,100,0
1,47,100,0
1,48,100,0
1,47,100,0
1,43,100,0
1,42,100,0
1,43,100,0
1,42,100,0
1,43,100,0
1,42,100,0
1,43,100,0
1,42,100,0
1,43,100,0
1,48,100,0
1,45,100,0
1,49,100,0
1,52,100,0
1,43,100,0
1,47,100,0
1,50,100,0
1,50,100,0
1,51,100,0
1,52,100,0
1,55,100,1440
1,56,100,0
1,57,100,0
1,50,100,720
1,51,100,0
1,52,100,0
1,50,100,1080
1,51,100,0
1,52,100,0
1,55,100,0
1,56,100,0
1,57,100,0
1,50,100,0
1,51,100,0
1,52,100,0
1,55,100,0
1,56,100,0
1,57,100,0
1,50,100,0
1,51,100,0
1,52,100,0
1,76,100,0
1,64,100,0
1,55,100,0
1,56,100,0
1,57,100,0
1,69,100,0
1,81,100,0
1,50,100,0
1,51,100,0
1,52,100,0
1,55,100,0
1,56,100,0
1,57,100,0
1,50,100,0
1,51,100,0
1,52,100,0
1,55,100,0
1,56,100,0
1,57,100,0
1,50,100,0
1,51,100,0
1,52,100,0
1,76,100,0
1,64,100,0
1,55,100,0
1,56,100,0
1,57,100,0
1,64,100,0
1,76,100,0
1,50,100,0
1,51,100,0
1,52,100,0
1,76,100,0
1,64,100,0
1,55,100,0
1,56,100,0
1,57,100,0
1,69,100,0
1,81,100,0
1,50,100,0
1,51,100,0
1,52,100,0
1,55,100,0
1,56,100,0
1,57,100,0
1,50,100,0
1,51,100,0
1,52,100,0
1,55,100,0
1,56,100,0
1,57,100,0
1,50,100,0
1,51,100,0
1,52,100,0
1,55,100,0
1,56,100,0
1,57,100,0
1,76,100,0
1,64,100,0
1,79,100,0
1,67,100,0
1,83,100,0
1,71,100,0
1,88,100,0
1,76,100,0
1,88,100,0
1,76,100,0
1,83,100,0
1,95,100,0
1,52,100,0
1,50,100,0
1,55,100,0
1,57,100,0
1,45,100,0
2,38,100,0
2,39,100,0
2,40,100,0
2,43,100,840
2,44,100,0
2,45,100,0
2,33,100,0
2,33,100,0
2,33,100,0
2,33,100,0
2,33,100,0
2,37,100,0
2,40,100,0
2,31,100,0
2,35,100,0
2,38,100,0
2,38,100,0
2,39,100,0
2,40,100,0
2,33,100,0
2,33,100,0
2,33,100,0
2,33,100,0
2,33,100,0
2,37,100,0
2,40,100,0
2,31,100,0
2,35,100,0
2,38,100,0
2,38,100,0
2,39,100,0
2,40,100,0
2,33,100,0
2,33,100,0
2,33,100,0
2,33,100,0
2,28,100,0
2,32,100,0
2,35,100,0
2,31,100,0
2,35,100,0
2,38,100,0
2,38,100,0
2,36,100,0
2,38,100,0
2,36,100,120
2,38,100,0
2,35,100,0
2,36,100,0
2,35,100,0
2,36,100,0
2,35,100,0
2,31,100,0
2,30,100,0
2,31,100,0
2,30,100,0
2,31,100,0
2,30,100,0
2,31,100,0
2,30,100,0
2,31,100,0
2,36,100,0
2,33,100,0
2,37,100,0
2,40,100,0
2,31,100,0
2,35,100,0
2,38,100,0
2,38,100,0
2,39,100,0
2,40,100,0
2,43,100,1080
2,44,100,0
2,45,100,0
2,33,100,0
2,33,100,0
2,33,100,0
2,33,100,0
2,33,100,0
2,37,100,0
2,40,100,0
2,31,100,0
2,35,100,0
2,38,100,0
2,38,100,0
2,39,100,0
2,40,100,0
2,33,100,0
2,33,100,0
2,33,100,0
2,33,100,0
2,33,100,0
2,37,100,0
2,40,100,0
2,31,100,0
2,35,100,0
2,38,100,0
2,38,100,0
2,39,100,0
2,40,100,0
2,33,100,0
2,33,100,0
2,33,100,0
2,33,100,0
2,28,100,0
2,32,100,0
2,35,100,0
2,31,100,0
2,35,100,0
2,38,100,0
2,38,100,0
2,36,100,0
2,38,100,0
2,36,100,120
2,38,100,0
2,35,100,0
2,36,100,0
2,35,100,0
2,36,100,0
2,35,100,0
2,31,100,0
2,30,100,0
2,31,100,0
2,30,100,0
2,31,100,0
2,30,100,0
2,31,100,0
2,30,100,0
2,31,100,0
2,36,100,0
2,33,100,0
2,37,100,0
2,40,100,0
2,31,100,0
2,35,100,0
2,38,100,0
2,38,100,0
2,39,100,0
2,40,100,0
2,38,100,1080
2,39,100,0
2,40,100,0
2,43,100,0
2,44,100,0
2,45,100,0
2,33,100,0
2,45,100,360
2,43,100,0
2,45,100,0
2,43,100,0
2,33,100,0
2,45,100,360
2,43,100,0
2,45,100,0
2,43,100,0
2,33,100,0
2,45,100,360
2,43,100,0
2,45,100,0
2,43,100,0
2,33,100,0
2,45,100,360
2,43,100,0
2,45,100,0
2,43,100,0
2,33,100,0
2,45,100,360
2,43,100,0
2,45,100,0
2,43,100,0
2,33,100,0
2,45,100,360
2,43,100,0
2,45,100,0
2,43,100,0
2,33,100,0
2,45,100,360
2,43,100,0
2,45,100,0
2,43,100,0
2,33,100,0
2,45,100,360
2,43,100,0
2,45,100,0
2,43,100,0
2,33,100,0
2,45,100,360
2,43,100,0
2,45,100,0
2,43,100,0
2,33,100,0
2,45,100,360
2,43,100,0
2,45,100,0
2,43,100,0
2,33,100,0
2,45,100,360
2,43,100,0
2,45,100,0
2,43,100,0
2,33,100,0
2,45,100,360
2,43,100,0
2,45,100,0
2,43,100,0
2,33,100,0
2,45,100,360
2,43,100,0
2,45,100,0
2,43,100,0
2,33,100,0
2,45,100,360
2,43,100,0
2,45,100,0
2,43,100,0
2,33,100,0
2,45,100,360
2,43,100,0
2,45,100,0
2,43,100,0
2,33,100,0
2,45,100,360
2,43,100,0
2,45,100,0
2,43,100,0
2,33,100,0
2,45,100,360
2,43,100,0
2,45,100,0
2,43,100,0
2,33,100,0
2,45,100,360
2,43,100,0
2,45,100,0
2,43,100,0
2,33,100,0
2,45,100,360
2,43,100,0
2,45,100,0
2,43,100,0
2,33,100,0
2,45,100,360
2,43,100,0
2,45,100,0
2,43,100,0
2,33,100,0
2,45,100,360
2,43,100,0
2,45,100,0
2,43,100,0
2,33,100,0
2,37,100,0
2,40,100,0
2,31,100,0
2,35,100,0
2,38,100,0
2,38,100,0
2,39,100,0
2,40,100,0
2,33,100,0
2,33,100,0
2,33,100,0
2,33,100,0
2,33,100,0
2,37,100,0
2,40,100,0
2,31,100,0
2,35,100,0
2,38,100,0
2,38,100,0
2,39,100,0
2,40,100,0
2,33,100,0
2,33,100,0
2,33,100,0
2,33,100,0
2,28,100,0
2,32,100,0
2,35,100,0
2,31,100,0
2,35,100,0
2,38,100,0
2,38,100,0
2,36,100,0
2,38,100,0
2,36,100,120
2,38,100,0
2,35,100,0
2,36,100,0
2,35,100,0
2,36,100,0
2,35,100,0
2,31,100,0
2,30,100,0
2,31,100,0
2,30,100,0
2,31,100,0
2,30,100,0
2,31,100,0
2,30,100,0
2,31,100,0
2,36,100,0
2,33,100,0
2,37,100,0
2,40,100,0
2,31,100,0
2,35,100,0
2,38,100,0
2,38,100,0
2,39,100,0
2,40,100,0
2,43,100,1440
2,44,100,0
2,45,100,0
2,38,100,720
2,39,100,0
2,40,100,0
2,38,100,1080
2,39,100,0
2,40,100,0
2,43,100,0
2,44,100,0
2,45,100,0
2,38,100,0
2,39,100,0
2,40,100,0
2,43,100,0
2,44,100,0
2,45,100,0
2,38,100,0
2,39,100,0
2,40,100,0
2,38,100,0
2,39,100,0
2,40,100,0
2,43,100,0
2,44,100,0
2,45,100,0
2,43,100,0
2,44,100,0
2,45,100,0
2,38,100,0
2,39,100,0
2,40,100,0
2,43,100,0
2,44,100,0
2,45,100,0
2,38,100,0
2,39,100,0
2,40,100,0
2,43,100,0
2,44,100,0
2,45,100,0
2,38,100,0
2,39,100,0
2,40,100,0
2,38,100,0
2,39,100,0
2,40,100,0
2,43,100,0
2,44,100,0
2,45,100,0
2,43,100,0
2,44,100,0
2,45,100,0
2,38,100,0
2,39,100,0
2,40,100,0
2,38,100,0
2,39,100,0
2,40,100,0
2,43,100,0
2,44,100,0
2,45,100,0
2,43,100,0
2,44,100,0
2,45,100,0
2,38,100,0
2,39,100,0
2,40,100,0
2,43,100,0
2,44,100,0
2,45,100,0
2,38,100,0
2,39,100,0
2,40,100,0
2,43,100,0
2,44,100,0
2,45,100,0
2,38,100,0
2,39,100,0
2,40,100,0
2,43,100,0
2,44,100,0
2,45,100,0
2,38,100,0
2,39,100,0
2,40,100,0
2,43,100,0
2,44,100,0
2,45,100,0
2,38,100,0
2,39,100,0
2,40,100,0
2,43,100,0
2,44,100,0
2,45,100,0
2,38,100,0
2,39,100,0
2,40,100,0
2,43,100,0
2,44,100,0
2,45,100,0
2,38,100,0
2,39,100,0
2,40,100,0
2,43,100,0
2,44,100,0
2,45,100,0
2,38,100,0
2,39,100,0
2,40,100,0
2,43,100,0
2,44,100,0
2,45,100,0
2,40,100,0
2,38,100,0
2,43,100,0
2,33,100,0
2,33,100,0
3,61,100,7200
3,59,100,0
3,57,100,0
3,59,100,0
3,55,100,0
3,62,100,0
3,63,100,0
3,64,100,0
3,61,100,0
3,61,100,3960
3,59,100,0
3,57,100,0
3,59,100,0
3,55,100,0
3,62,100,0
3,63,100,0
3,64,100,0
3,61,100,0
3,59,100,3960
3,59,100,0
3,61,100,0
