track,note,velocity,time
2.0,40.0,127.0,1888.0
2.0,52.0,127.0,276.0
2.0,40.0,127.0,208.0
2.0,52.0,127.0,238.0
2.0,40.0,127.0,224.0
2.0,52.0,127.0,280.0
2.0,40.0,127.0,250.0
2.0,52.0,127.0,248.0
2.0,40.0,127.0,296.0
2.0,52.0,127.0,266.0
2.0,40.0,127.0,258.0
2.0,52.0,127.0,256.0
2.0,40.0,127.0,256.0
2.0,52.0,127.0,280.0
2.0,40.0,127.0,326.0
2.0,52.0,127.0,326.0
2.0,40.0,127.0,276.0
2.0,52.0,127.0,246.0
2.0,40.0,127.0,306.0
2.0,52.0,127.0,248.0
2.0,40.0,127.0,300.0
2.0,52.0,127.0,232.0
2.0,40.0,127.0,232.0
2.0,52.0,127.0,206.0
2.0,40.0,127.0,300.0
2.0,52.0,127.0,246.0
2.0,40.0,127.0,306.0
2.0,52.0,127.0,248.0
2.0,40.0,127.0,300.0
2.0,52.0,127.0,232.0
2.0,40.0,127.0,232.0
2.0,52.0,127.0,206.0
2.0,40.0,127.0,300.0
2.0,52.0,127.0,246.0
2.0,40.0,127.0,306.0
2.0,52.0,127.0,248.0
2.0,40.0,127.0,300.0
2.0,52.0,127.0,232.0
2.0,40.0,127.0,232.0
2.0,52.0,127.0,206.0
2.0,40.0,126.0,300.0
2.0,52.0,126.0,18.0
2.0,40.0,124.0,26.0
2.0,40.0,124.0,134.0
2.0,40.0,125.0,20.0
2.0,40.0,125.0,82.0
2.0,31.0,127.0,28.0
2.0,31.0,126.0,128.0
2.0,33.0,127.0,18.0
2.0,33.0,127.0,162.0
2.0,37.0,125.0,240.0
2.0,38.0,124.0,38.0
2.0,40.0,124.0,112.0
2.0,52.0,127.0,18.0
2.0,40.0,124.0,40.0
2.0,40.0,124.0,136.0
2.0,40.0,125.0,116.0
2.0,31.0,127.0,158.0
2.0,31.0,122.0,90.0
2.0,33.0,124.0,18.0
2.0,33.0,127.0,28.0
2.0,37.0,125.0,106.0
2.0,38.0,122.0,8.0
2.0,40.0,126.0,32.0
2.0,52.0,126.0,24.0
2.0,40.0,124.0,26.0
2.0,40.0,124.0,134.0
2.0,40.0,125.0,20.0
2.0,40.0,125.0,82.0
2.0,31.0,127.0,28.0
2.0,31.0,126.0,128.0
2.0,33.0,127.0,18.0
2.0,33.0,127.0,162.0
2.0,37.0,125.0,240.0
2.0,38.0,124.0,38.0
2.0,40.0,124.0,112.0
2.0,52.0,127.0,34.0
2.0,40.0,124.0,36.0
2.0,40.0,124.0,136.0
2.0,40.0,125.0,116.0
2.0,31.0,127.0,158.0
2.0,31.0,122.0,90.0
2.0,33.0,124.0,10.0
2.0,33.0,127.0,28.0
2.0,37.0,125.0,106.0
2.0,38.0,122.0,8.0
2.0,40.0,126.0,32.0
2.0,52.0,126.0,30.0
2.0,40.0,124.0,26.0
2.0,40.0,124.0,134.0
2.0,40.0,125.0,20.0
2.0,40.0,125.0,82.0
2.0,31.0,127.0,28.0
2.0,31.0,126.0,128.0
2.0,33.0,127.0,18.0
2.0,33.0,127.0,162.0
2.0,37.0,125.0,10.0
2.0,38.0,124.0,38.0
2.0,40.0,127.0,124.0
2.0,42.0,127.0,2612.0
2.0,40.0,126.0,20.0
2.0,38.0,127.0,4.0
2.0,45.0,127.0,0.0
2.0,48.0,127.0,2.0
2.0,53.0,126.0,10.0
2.0,45.0,127.0,14.0
2.0,48.0,127.0,6.0
2.0,53.0,125.0,14.0
3.0,46.0,127.0,1872.0
3.0,58.0,127.0,294.0
3.0,46.0,127.0,240.0
3.0,58.0,127.0,236.0
3.0,46.0,127.0,240.0
3.0,58.0,127.0,262.0
3.0,46.0,127.0,240.0
3.0,58.0,127.0,210.0
3.0,57.0,127.0,208.0
3.0,57.0,127.0,32.0
3.0,60.0,127.0,12.0
3.0,65.0,127.0,4.0
3.0,57.0,127.0,2.0
3.0,55.0,126.0,390.0
3.0,50.0,127.0,20.0
3.0,38.0,118.0,192.0
3.0,50.0,127.0,6.0
3.0,57.0,127.0,214.0
3.0,60.0,127.0,2.0
3.0,65.0,127.0,0.0
3.0,57.0,127.0,2.0
3.0,55.0,126.0,390.0
3.0,50.0,127.0,20.0
3.0,38.0,118.0,204.0
3.0,50.0,127.0,6.0
3.0,50.0,126.0,218.0
3.0,55.0,124.0,2.0
3.0,57.0,124.0,46.0
3.0,59.0,124.0,90.0
3.0,53.0,124.0,32.0
3.0,53.0,123.0,48.0
3.0,45.0,126.0,10.0
3.0,40.0,124.0,12.0
3.0,43.0,122.0,10.0
3.0,45.0,127.0,32.0
3.0,45.0,127.0,26.0
3.0,53.0,126.0,58.0
3.0,57.0,126.0,4.0
3.0,55.0,127.0,2.0
3.0,55.0,127.0,10.0
3.0,50.0,127.0,0.0
3.0,57.0,127.0,236.0
3.0,60.0,127.0,26.0
3.0,60.0,127.0,98.0
3.0,62.0,127.0,0.0
3.0,50.0,118.0,2.0
3.0,45.0,118.0,182.0
3.0,40.0,119.0,2.0
3.0,59.0,112.0,440.0
3.0,64.0,112.0,18.0
3.0,67.0,112.0,6.0
3.0,59.0,112.0,54.0
3.0,64.0,112.0,8.0
3.0,67.0,112.0,2.0
3.0,40.0,120.0,36.0
3.0,59.0,112.0,84.0
3.0,64.0,112.0,8.0
3.0,67.0,112.0,4.0
3.0,40.0,120.0,8.0
3.0,59.0,112.0,226.0
3.0,64.0,112.0,24.0
3.0,67.0,112.0,12.0
3.0,43.0,117.0,32.0
3.0,50.0,116.0,8.0
3.0,55.0,116.0,4.0
3.0,43.0,116.0,60.0
3.0,50.0,116.0,8.0
3.0,55.0,116.0,4.0
3.0,45.0,117.0,14.0
3.0,52.0,116.0,108.0
3.0,57.0,116.0,12.0
3.0,45.0,117.0,72.0
3.0,45.0,116.0,52.0
3.0,52.0,116.0,20.0
3.0,57.0,116.0,24.0
3.0,40.0,119.0,0.0
3.0,59.0,112.0,440.0
3.0,64.0,112.0,18.0
3.0,67.0,112.0,6.0
3.0,40.0,120.0,30.0
3.0,59.0,112.0,26.0
3.0,64.0,112.0,8.0
3.0,40.0,120.0,38.0
3.0,59.0,112.0,236.0
3.0,64.0,112.0,24.0
3.0,67.0,112.0,12.0
3.0,43.0,117.0,32.0
3.0,50.0,116.0,8.0
3.0,55.0,116.0,4.0
3.0,43.0,116.0,60.0
3.0,50.0,116.0,8.0
3.0,55.0,116.0,4.0
3.0,45.0,117.0,14.0
3.0,52.0,116.0,108.0
3.0,57.0,116.0,12.0
3.0,45.0,117.0,72.0
3.0,45.0,116.0,48.0
3.0,57.0,116.0,24.0
3.0,52.0,116.0,0.0
3.0,40.0,119.0,2.0
3.0,59.0,112.0,440.0
3.0,64.0,112.0,18.0
3.0,67.0,112.0,6.0
3.0,59.0,112.0,54.0
3.0,40.0,120.0,58.0
3.0,59.0,112.0,154.0
3.0,40.0,120.0,14.0
3.0,59.0,112.0,242.0
3.0,64.0,112.0,24.0
3.0,67.0,112.0,12.0
3.0,43.0,117.0,32.0
3.0,50.0,116.0,8.0
3.0,55.0,116.0,4.0
3.0,43.0,116.0,60.0
3.0,50.0,116.0,8.0
3.0,55.0,116.0,4.0
3.0,45.0,117.0,14.0
3.0,52.0,116.0,108.0
3.0,57.0,116.0,12.0
3.0,45.0,117.0,72.0
3.0,45.0,116.0,52.0
3.0,52.0,116.0,20.0
3.0,57.0,116.0,16.0
3.0,40.0,119.0,0.0
3.0,59.0,112.0,440.0
3.0,64.0,112.0,18.0
3.0,67.0,112.0,6.0
3.0,40.0,120.0,30.0
3.0,59.0,112.0,26.0
3.0,64.0,112.0,8.0
3.0,40.0,120.0,16.0
3.0,59.0,112.0,242.0
3.0,64.0,112.0,24.0
3.0,67.0,112.0,12.0
3.0,43.0,117.0,32.0
3.0,50.0,116.0,8.0
3.0,55.0,116.0,4.0
3.0,43.0,116.0,60.0
3.0,50.0,116.0,8.0
3.0,55.0,116.0,4.0
3.0,45.0,117.0,14.0
3.0,52.0,116.0,108.0
3.0,57.0,116.0,12.0
3.0,45.0,117.0,72.0
3.0,45.0,116.0,52.0
3.0,52.0,116.0,20.0
3.0,57.0,116.0,24.0
3.0,40.0,119.0,0.0
3.0,59.0,112.0,440.0
3.0,64.0,112.0,18.0
3.0,67.0,112.0,6.0
3.0,40.0,120.0,30.0
3.0,59.0,112.0,26.0
3.0,64.0,112.0,8.0
3.0,40.0,120.0,16.0
3.0,59.0,112.0,242.0
3.0,64.0,112.0,24.0
3.0,67.0,112.0,12.0
3.0,43.0,117.0,32.0
3.0,50.0,116.0,8.0
3.0,55.0,116.0,4.0
3.0,43.0,116.0,60.0
3.0,50.0,116.0,8.0
3.0,55.0,116.0,4.0
3.0,45.0,117.0,14.0
3.0,52.0,116.0,108.0
3.0,57.0,116.0,12.0
3.0,45.0,117.0,72.0
3.0,45.0,116.0,52.0
3.0,52.0,116.0,20.0
3.0,57.0,116.0,16.0
3.0,40.0,116.0,0.0
3.0,54.0,127.0,2588.0
3.0,52.0,127.0,20.0
3.0,50.0,127.0,240.0
3.0,57.0,127.0,8.0
3.0,60.0,127.0,118.0
3.0,65.0,127.0,0.0
3.0,57.0,127.0,6.0
3.0,60.0,127.0,152.0
3.0,65.0,127.0,2.0
4.0,46.0,105.0,5514.0
4.0,38.0,119.0,20.0
4.0,40.0,127.0,0.0
4.0,46.0,105.0,400.0
4.0,38.0,119.0,20.0
4.0,40.0,127.0,0.0
4.0,46.0,105.0,400.0
4.0,38.0,119.0,20.0
4.0,40.0,127.0,0.0
4.0,35.0,125.0,180.0
4.0,46.0,105.0,160.0
4.0,38.0,119.0,20.0
4.0,40.0,127.0,0.0
4.0,35.0,126.0,180.0
4.0,46.0,105.0,160.0
4.0,35.0,127.0,0.0
4.0,38.0,119.0,20.0
4.0,40.0,127.0,0.0
4.0,46.0,105.0,400.0
4.0,38.0,119.0,20.0
4.0,40.0,127.0,0.0
4.0,46.0,105.0,400.0
4.0,38.0,119.0,20.0
4.0,40.0,127.0,0.0
4.0,35.0,125.0,180.0
4.0,46.0,105.0,160.0
4.0,38.0,119.0,20.0
4.0,40.0,127.0,0.0
4.0,35.0,127.0,180.0
4.0,46.0,105.0,160.0
4.0,35.0,127.0,0.0
4.0,38.0,119.0,20.0
4.0,40.0,127.0,0.0
4.0,46.0,105.0,400.0
4.0,38.0,119.0,20.0
4.0,40.0,127.0,0.0
4.0,46.0,105.0,400.0
4.0,38.0,119.0,20.0
4.0,40.0,127.0,0.0
4.0,35.0,125.0,180.0
4.0,46.0,105.0,160.0
4.0,38.0,119.0,20.0
4.0,40.0,127.0,0.0
4.0,35.0,127.0,180.0
4.0,46.0,105.0,160.0
4.0,35.0,127.0,0.0
4.0,38.0,119.0,20.0
4.0,40.0,127.0,0.0
4.0,46.0,105.0,400.0
4.0,38.0,119.0,20.0
4.0,40.0,127.0,0.0
4.0,46.0,105.0,400.0
4.0,38.0,119.0,20.0
4.0,40.0,127.0,0.0
4.0,35.0,125.0,180.0
4.0,46.0,105.0,160.0
4.0,38.0,119.0,20.0
4.0,40.0,127.0,0.0
4.0,35.0,127.0,180.0
4.0,46.0,105.0,160.0
4.0,35.0,127.0,0.0
4.0,38.0,119.0,20.0
4.0,40.0,127.0,0.0
4.0,46.0,105.0,400.0
4.0,38.0,119.0,20.0
4.0,40.0,127.0,0.0
4.0,46.0,105.0,400.0
4.0,38.0,119.0,20.0
4.0,40.0,127.0,0.0
4.0,35.0,125.0,180.0
4.0,46.0,105.0,160.0
4.0,38.0,119.0,20.0
4.0,40.0,127.0,0.0
4.0,35.0,127.0,180.0
4.0,46.0,105.0,160.0
4.0,35.0,127.0,0.0
4.0,38.0,119.0,20.0
4.0,40.0,127.0,0.0
4.0,46.0,105.0,400.0
4.0,38.0,119.0,20.0
4.0,40.0,127.0,0.0
4.0,46.0,105.0,400.0
4.0,38.0,119.0,20.0
4.0,40.0,127.0,0.0
4.0,35.0,125.0,180.0
4.0,46.0,105.0,160.0
4.0,38.0,119.0,20.0
4.0,40.0,127.0,0.0
4.0,35.0,127.0,180.0
4.0,46.0,105.0,160.0
4.0,38.0,119.0,20.0
4.0,40.0,127.0,0.0
4.0,46.0,105.0,400.0
4.0,38.0,119.0,20.0
4.0,40.0,127.0,0.0
4.0,46.0,105.0,400.0
4.0,38.0,119.0,20.0
4.0,40.0,127.0,0.0
4.0,35.0,125.0,180.0
4.0,46.0,105.0,160.0
4.0,38.0,119.0,20.0
4.0,40.0,127.0,0.0
4.0,35.0,126.0,180.0
4.0,46.0,105.0,160.0
4.0,35.0,127.0,0.0
4.0,38.0,119.0,20.0
4.0,40.0,127.0,0.0
4.0,46.0,105.0,400.0
4.0,38.0,119.0,20.0
4.0,40.0,127.0,0.0
4.0,46.0,105.0,400.0
4.0,38.0,119.0,20.0
4.0,40.0,127.0,0.0
4.0,35.0,125.0,180.0
4.0,46.0,105.0,160.0
4.0,38.0,119.0,20.0
4.0,40.0,127.0,0.0
4.0,35.0,127.0,180.0
4.0,40.0,127.0,52.0
4.0,38.0,123.0,0.0
4.0,49.0,123.0,48.0
4.0,35.0,127.0,0.0
4.0,44.0,126.0,420.0
4.0,40.0,127.0,0.0
4.0,38.0,118.0,0.0
4.0,35.0,125.0,300.0
4.0,38.0,114.0,12.0
4.0,44.0,125.0,48.0
4.0,38.0,114.0,0.0
4.0,35.0,125.0,0.0
4.0,38.0,114.0,72.0
4.0,38.0,114.0,48.0
4.0,35.0,127.0,0.0
4.0,44.0,125.0,180.0
4.0,38.0,116.0,0.0
4.0,40.0,127.0,0.0
4.0,38.0,114.0,180.0
4.0,35.0,127.0,0.0
4.0,44.0,124.0,180.0
4.0,35.0,127.0,0.0
4.0,44.0,121.0,420.0
4.0,40.0,127.0,0.0
4.0,38.0,117.0,0.0
4.0,38.0,114.0,312.0
4.0,44.0,119.0,48.0
4.0,40.0,127.0,0.0
4.0,38.0,116.0,0.0
4.0,35.0,127.0,0.0
4.0,38.0,115.0,72.0
4.0,40.0,127.0,0.0
4.0,38.0,114.0,180.0
4.0,44.0,115.0,48.0
4.0,38.0,114.0,0.0
4.0,40.0,127.0,0.0
4.0,38.0,114.0,72.0
4.0,38.0,115.0,48.0
4.0,40.0,127.0,0.0
4.0,35.0,127.0,0.0
4.0,40.0,127.0,72.0
4.0,38.0,114.0,0.0
4.0,57.0,121.0,48.0
4.0,44.0,116.0,0.0
4.0,35.0,127.0,0.0
4.0,44.0,116.0,420.0
4.0,40.0,127.0,0.0
4.0,38.0,118.0,0.0
4.0,35.0,125.0,300.0
4.0,38.0,114.0,12.0
4.0,44.0,118.0,48.0
4.0,38.0,114.0,0.0
4.0,35.0,124.0,0.0
4.0,38.0,114.0,72.0
4.0,38.0,114.0,48.0
4.0,35.0,125.0,0.0
4.0,44.0,124.0,180.0
4.0,38.0,116.0,0.0
4.0,40.0,127.0,0.0
4.0,35.0,118.0,60.0
4.0,38.0,114.0,60.0
4.0,35.0,122.0,0.0
4.0,44.0,125.0,180.0
4.0,35.0,127.0,0.0
4.0,44.0,119.0,420.0
4.0,40.0,127.0,0.0
4.0,38.0,117.0,0.0
4.0,38.0,114.0,312.0
4.0,44.0,123.0,48.0
4.0,40.0,127.0,0.0
4.0,38.0,116.0,0.0
4.0,35.0,127.0,0.0
4.0,38.0,115.0,72.0
4.0,40.0,127.0,0.0
4.0,47.0,127.0,48.0
4.0,47.0,125.0,60.0
4.0,45.0,125.0,60.0
4.0,44.0,124.0,0.0
4.0,45.0,120.0,60.0
4.0,43.0,124.0,60.0
4.0,35.0,127.0,0.0
4.0,43.0,115.0,60.0
4.0,49.0,119.0,60.0
4.0,44.0,121.0,0.0
4.0,49.0,123.0,0.0
4.0,35.0,127.0,0.0
4.0,44.0,126.0,420.0
4.0,40.0,127.0,0.0
4.0,38.0,118.0,0.0
4.0,35.0,127.0,300.0
4.0,38.0,114.0,12.0
4.0,44.0,125.0,48.0
4.0,38.0,114.0,0.0
4.0,35.0,125.0,60.0
4.0,38.0,114.0,12.0
4.0,38.0,114.0,48.0
4.0,35.0,123.0,0.0
4.0,44.0,125.0,180.0
4.0,38.0,116.0,0.0
4.0,40.0,127.0,0.0
4.0,38.0,114.0,180.0
4.0,35.0,125.0,0.0
4.0,44.0,124.0,180.0
4.0,35.0,127.0,0.0
4.0,44.0,121.0,420.0
4.0,40.0,127.0,0.0
4.0,38.0,117.0,0.0
4.0,35.0,127.0,180.0
4.0,38.0,114.0,72.0
4.0,44.0,119.0,48.0
4.0,40.0,127.0,0.0
4.0,38.0,116.0,0.0
4.0,35.0,127.0,0.0
4.0,38.0,115.0,72.0
4.0,40.0,127.0,0.0
4.0,38.0,114.0,180.0
4.0,44.0,115.0,48.0
4.0,38.0,114.0,0.0
4.0,40.0,127.0,0.0
4.0,38.0,114.0,72.0
4.0,38.0,115.0,48.0
4.0,40.0,127.0,0.0
4.0,35.0,127.0,0.0
4.0,40.0,127.0,72.0
4.0,38.0,114.0,0.0
4.0,57.0,121.0,48.0
4.0,44.0,116.0,0.0
4.0,35.0,127.0,0.0
4.0,44.0,116.0,420.0
4.0,40.0,127.0,0.0
4.0,38.0,118.0,0.0
4.0,35.0,126.0,180.0
4.0,35.0,125.0,60.0
4.0,38.0,114.0,12.0
4.0,44.0,118.0,48.0
4.0,38.0,114.0,0.0
4.0,35.0,126.0,60.0
4.0,38.0,114.0,12.0
4.0,38.0,114.0,48.0
4.0,35.0,124.0,0.0
4.0,44.0,124.0,180.0
4.0,38.0,116.0,0.0
4.0,40.0,127.0,0.0
4.0,38.0,114.0,180.0
4.0,35.0,127.0,0.0
4.0,44.0,125.0,180.0
4.0,35.0,127.0,0.0
4.0,44.0,119.0,420.0
4.0,40.0,127.0,0.0
4.0,38.0,117.0,0.0
4.0,35.0,127.0,180.0
4.0,38.0,114.0,72.0
4.0,44.0,123.0,48.0
4.0,40.0,127.0,0.0
4.0,38.0,116.0,0.0
4.0,38.0,115.0,72.0
4.0,40.0,127.0,0.0
4.0,47.0,127.0,48.0
4.0,35.0,127.0,0.0
4.0,47.0,125.0,60.0
4.0,45.0,125.0,60.0
4.0,44.0,124.0,0.0
4.0,45.0,120.0,60.0
4.0,43.0,124.0,60.0
4.0,43.0,115.0,60.0
4.0,44.0,121.0,60.0
4.0,57.0,121.0,0.0
4.0,44.0,116.0,0.0
4.0,49.0,119.0,0.0
4.0,35.0,127.0,0.0
4.0,44.0,116.0,420.0
4.0,40.0,127.0,0.0
4.0,38.0,118.0,0.0
4.0,35.0,127.0,300.0
4.0,38.0,114.0,12.0
4.0,44.0,118.0,48.0
4.0,38.0,114.0,0.0
4.0,35.0,125.0,60.0
4.0,38.0,114.0,12.0
4.0,38.0,114.0,48.0
4.0,35.0,123.0,0.0
4.0,44.0,124.0,180.0
4.0,38.0,116.0,0.0
4.0,40.0,127.0,0.0
4.0,38.0,114.0,180.0
4.0,35.0,125.0,0.0
4.0,44.0,125.0,180.0
4.0,35.0,127.0,0.0
4.0,44.0,119.0,420.0
4.0,40.0,127.0,0.0
4.0,38.0,117.0,0.0
4.0,35.0,127.0,180.0
4.0,38.0,114.0,72.0
4.0,44.0,123.0,48.0
4.0,40.0,127.0,0.0
4.0,38.0,116.0,0.0
4.0,35.0,127.0,0.0
4.0,38.0,115.0,72.0
4.0,40.0,127.0,0.0
4.0,38.0,114.0,180.0
4.0,44.0,124.0,48.0
4.0,38.0,114.0,0.0
4.0,40.0,127.0,0.0
4.0,38.0,114.0,72.0
4.0,38.0,115.0,48.0
4.0,40.0,127.0,0.0
4.0,35.0,127.0,0.0
4.0,40.0,127.0,72.0
4.0,38.0,114.0,0.0
4.0,49.0,119.0,48.0
4.0,35.0,127.0,0.0
4.0,44.0,112.0,420.0
4.0,44.0,100.0,420.0
4.0,44.0,108.0,420.0
4.0,44.0,115.0,420.0
4.0,44.0,117.0,420.0
4.0,40.0,127.0,0.0
4.0,38.0,127.0,0.0
4.0,38.0,124.0,60.0
4.0,40.0,124.0,0.0
4.0,38.0,124.0,60.0
4.0,40.0,126.0,0.0
4.0,38.0,126.0,60.0
4.0,40.0,127.0,0.0
4.0,49.0,118.0,60.0
4.0,35.0,127.0,0.0
4.0,57.0,118.0,180.0
4.0,35.0,127.0,0.0
4.0,49.0,118.0,180.0
4.0,35.0,127.0,0.0
4.0,49.0,118.0,420.0
4.0,35.0,127.0,0.0
4.0,57.0,118.0,180.0
4.0,35.0,127.0,0.0
4.0,49.0,118.0,180.0
4.0,35.0,127.0,0.0
4.0,40.0,127.0,312.0
4.0,38.0,127.0,0.0
4.0,38.0,125.0,48.0
4.0,40.0,125.0,0.0
4.0,35.0,127.0,0.0
4.0,48.0,127.0,72.0
4.0,48.0,127.0,48.0
4.0,47.0,127.0,60.0
4.0,47.0,126.0,60.0
4.0,45.0,127.0,60.0
4.0,45.0,127.0,60.0
4.0,35.0,125.0,60.0
0.0,0.0,0.0,0.0
0.0,0.0,0.0,0.0
0.0,0.0,0.0,0.0
0.0,0.0,0.0,0.0
0.0,0.0,0.0,0.0
0.0,0.0,0.0,0.0
0.0,0.0,0.0,0.0
0.0,0.0,0.0,0.0
0.0,0.0,0.0,0.0
0.0,0.0,0.0,0.0
0.0,0.0,0.0,0.0
0.0,0.0,0.0,0.0
0.0,0.0,0.0,0.0
0.0,0.0,0.0,0.0
0.0,0.0,0.0,0.0
0.0,0.0,0.0,0.0
0.0,0.0,0.0,0.0
0.0,0.0,0.0,0.0
0.0,0.0,0.0,0.0
0.0,0.0,0.0,0.0
0.0,0.0,0.0,0.0
0.0,0.0,0.0,0.0
0.0,0.0,0.0,0.0
0.0,0.0,0.0,0.0
0.0,0.0,0.0,0.0
0.0,0.0,0.0,0.0
0.0,0.0,0.0,0.0
0.0,0.0,0.0,0.0
0.0,0.0,0.0,0.0
0.0,0.0,0.0,0.0
0.0,0.0,0.0,0.0
0.0,0.0,0.0,0.0
0.0,0.0,0.0,0.0
0.0,0.0,0.0,0.0
0.0,0.0,0.0,0.0
0.0,0.0,0.0,0.0
0.0,0.0,0.0,0.0
0.0,0.0,0.0,0.0
0.0,0.0,0.0,0.0
0.0,0.0,0.0,0.0
0.0,0.0,0.0,0.0
0.0,0.0,0.0,0.0
0.0,0.0,0.0,0.0
0.0,0.0,0.0,0.0
0.0,0.0,0.0,0.0
0.0,0.0,0.0,0.0
0.0,0.0,0.0,0.0
0.0,0.0,0.0,0.0
0.0,0.0,0.0,0.0
0.0,0.0,0.0,0.0
0.0,0.0,0.0,0.0
0.0,0.0,0.0,0.0
0.0,0.0,0.0,0.0
0.0,0.0,0.0,0.0
0.0,0.0,0.0,0.0
0.0,0.0,0.0,0.0
0.0,0.0,0.0,0.0
0.0,0.0,0.0,0.0
0.0,0.0,0.0,0.0
0.0,0.0,0.0,0.0
0.0,0.0,0.0,0.0
0.0,0.0,0.0,0.0
0.0,0.0,0.0,0.0
0.0,0.0,0.0,0.0
0.0,0.0,0.0,0.0
0.0,0.0,0.0,0.0
0.0,0.0,0.0,0.0
0.0,0.0,0.0,0.0
0.0,0.0,0.0,0.0
0.0,0.0,0.0,0.0
0.0,0.0,0.0,0.0
0.0,0.0,0.0,0.0
0.0,0.0,0.0,0.0
0.0,0.0,0.0,0.0
0.0,0.0,0.0,0.0
0.0,0.0,0.0,0.0
0.0,0.0,0.0,0.0
0.0,0.0,0.0,0.0
0.0,0.0,0.0,0.0
0.0,0.0,0.0,0.0
0.0,0.0,0.0,0.0
0.0,0.0,0.0,0.0
0.0,0.0,0.0,0.0
0.0,0.0,0.0,0.0
0.0,0.0,0.0,0.0
0.0,0.0,0.0,0.0
0.0,0.0,0.0,0.0
0.0,0.0,0.0,0.0
0.0,0.0,0.0,0.0
0.0,0.0,0.0,0.0
0.0,0.0,0.0,0.0
0.0,0.0,0.0,0.0
0.0,0.0,0.0,0.0
0.0,0.0,0.0,0.0
0.0,0.0,0.0,0.0
0.0,0.0,0.0,0.0
0.0,0.0,0.0,0.0
0.0,0.0,0.0,0.0
0.0,0.0,0.0,0.0
0.0,0.0,0.0,0.0
0.0,0.0,0.0,0.0
0.0,0.0,0.0,0.0
0.0,0.0,0.0,0.0
0.0,0.0,0.0,0.0
0.0,0.0,0.0,0.0
0.0,0.0,0.0,0.0
0.0,0.0,0.0,0.0
0.0,0.0,0.0,0.0
0.0,0.0,0.0,0.0
0.0,0.0,0.0,0.0
0.0,0.0,0.0,0.0
0.0,0.0,0.0,0.0
0.0,0.0,0.0,0.0
0.0,0.0,0.0,0.0
0.0,0.0,0.0,0.0
0.0,0.0,0.0,0.0
0.0,0.0,0.0,0.0
0.0,0.0,0.0,0.0
0.0,0.0,0.0,0.0
0.0,0.0,0.0,0.0
0.0,0.0,0.0,0.0
0.0,0.0,0.0,0.0
0.0,0.0,0.0,0.0
0.0,0.0,0.0,0.0
0.0,0.0,0.0,0.0
0.0,0.0,0.0,0.0
0.0,0.0,0.0,0.0
0.0,0.0,0.0,0.0
0.0,0.0,0.0,0.0
0.0,0.0,0.0,0.0
0.0,0.0,0.0,0.0
0.0,0.0,0.0,0.0
0.0,0.0,0.0,0.0
0.0,0.0,0.0,0.0
0.0,0.0,0.0,0.0
0.0,0.0,0.0,0.0
0.0,0.0,0.0,0.0
0.0,0.0,0.0,0.0
0.0,0.0,0.0,0.0
0.0,0.0,0.0,0.0
0.0,0.0,0.0,0.0
0.0,0.0,0.0,0.0
0.0,0.0,0.0,0.0
0.0,0.0,0.0,0.0
0.0,0.0,0.0,0.0
0.0,0.0,0.0,0.0
0.0,0.0,0.0,0.0
0.0,0.0,0.0,0.0
0.0,0.0,0.0,0.0
0.0,0.0,0.0,0.0
0.0,0.0,0.0,0.0
0.0,0.0,0.0,0.0
0.0,0.0,0.0,0.0
0.0,0.0,0.0,0.0
0.0,0.0,0.0,0.0
0.0,0.0,0.0,0.0
0.0,0.0,0.0,0.0
0.0,0.0,0.0,0.0
0.0,0.0,0.0,0.0
0.0,0.0,0.0,0.0
0.0,0.0,0.0,0.0
0.0,0.0,0.0,0.0
0.0,0.0,0.0,0.0
0.0,0.0,0.0,0.0
0.0,0.0,0.0,0.0
0.0,0.0,0.0,0.0
0.0,0.0,0.0,0.0
0.0,0.0,0.0,0.0
0.0,0.0,0.0,0.0
0.0,0.0,0.0,0.0
0.0,0.0,0.0,0.0
0.0,0.0,0.0,0.0
0.0,0.0,0.0,0.0
0.0,0.0,0.0,0.0
0.0,0.0,0.0,0.0
0.0,0.0,0.0,0.0
0.0,0.0,0.0,0.0
0.0,0.0,0.0,0.0
0.0,0.0,0.0,0.0
0.0,0.0,0.0,0.0
0.0,0.0,0.0,0.0
0.0,0.0,0.0,0.0
0.0,0.0,0.0,0.0
0.0,0.0,0.0,0.0
0.0,0.0,0.0,0.0
0.0,0.0,0.0,0.0
0.0,0.0,0.0,0.0
0.0,0.0,0.0,0.0
0.0,0.0,0.0,0.0
0.0,0.0,0.0,0.0
0.0,0.0,0.0,0.0
0.0,0.0,0.0,0.0
0.0,0.0,0.0,0.0
0.0,0.0,0.0,0.0
0.0,0.0,0.0,0.0
0.0,0.0,0.0,0.0
0.0,0.0,0.0,0.0
0.0,0.0,0.0,0.0
0.0,0.0,0.0,0.0
0.0,0.0,0.0,0.0
0.0,0.0,0.0,0.0
0.0,0.0,0.0,0.0
0.0,0.0,0.0,0.0
0.0,0.0,0.0,0.0
0.0,0.0,0.0,0.0
0.0,0.0,0.0,0.0
0.0,0.0,0.0,0.0
0.0,0.0,0.0,0.0
0.0,0.0,0.0,0.0
0.0,0.0,0.0,0.0
0.0,0.0,0.0,0.0
0.0,0.0,0.0,0.0
0.0,0.0,0.0,0.0
0.0,0.0,0.0,0.0
0.0,0.0,0.0,0.0
0.0,0.0,0.0,0.0
0.0,0.0,0.0,0.0
0.0,0.0,0.0,0.0
0.0,0.0,0.0,0.0
0.0,0.0,0.0,0.0
0.0,0.0,0.0,0.0
0.0,0.0,0.0,0.0
0.0,0.0,0.0,0.0
0.0,0.0,0.0,0.0
0.0,0.0,0.0,0.0
0.0,0.0,0.0,0.0
0.0,0.0,0.0,0.0
0.0,0.0,0.0,0.0
0.0,0.0,0.0,0.0
0.0,0.0,0.0,0.0
0.0,0.0,0.0,0.0
0.0,0.0,0.0,0.0
0.0,0.0,0.0,0.0
0.0,0.0,0.0,0.0
0.0,0.0,0.0,0.0
0.0,0.0,0.0,0.0
0.0,0.0,0.0,0.0
0.0,0.0,0.0,0.0
0.0,0.0,0.0,0.0
0.0,0.0,0.0,0.0
0.0,0.0,0.0,0.0
0.0,0.0,0.0,0.0
0.0,0.0,0.0,0.0
0.0,0.0,0.0,0.0
0.0,0.0,0.0,0.0
0.0,0.0,0.0,0.0
0.0,0.0,0.0,0.0
0.0,0.0,0.0,0.0
0.0,0.0,0.0,0.0
0.0,0.0,0.0,0.0
0.0,0.0,0.0,0.0
0.0,0.0,0.0,0.0
0.0,0.0,0.0,0.0
0.0,0.0,0.0,0.0
0.0,0.0,0.0,0.0
0.0,0.0,0.0,0.0
0.0,0.0,0.0,0.0
0.0,0.0,0.0,0.0
0.0,0.0,0.0,0.0
0.0,0.0,0.0,0.0
0.0,0.0,0.0,0.0
0.0,0.0,0.0,0.0
0.0,0.0,0.0,0.0
0.0,0.0,0.0,0.0
0.0,0.0,0.0,0.0
0.0,0.0,0.0,0.0
0.0,0.0,0.0,0.0
0.0,0.0,0.0,0.0
0.0,0.0,0.0,0.0
0.0,0.0,0.0,0.0
0.0,0.0,0.0,0.0
0.0,0.0,0.0,0.0
0.0,0.0,0.0,0.0
0.0,0.0,0.0,0.0
0.0,0.0,0.0,0.0
0.0,0.0,0.0,0.0
0.0,0.0,0.0,0.0
0.0,0.0,0.0,0.0
0.0,0.0,0.0,0.0
0.0,0.0,0.0,0.0
0.0,0.0,0.0,0.0
0.0,0.0,0.0,0.0
0.0,0.0,0.0,0.0
0.0,0.0,0.0,0.0
0.0,0.0,0.0,0.0
0.0,0.0,0.0,0.0
0.0,0.0,0.0,0.0
0.0,0.0,0.0,0.0
0.0,0.0,0.0,0.0
0.0,0.0,0.0,0.0
0.0,0.0,0.0,0.0
0.0,0.0,0.0,0.0
0.0,0.0,0.0,0.0
0.0,0.0,0.0,0.0
0.0,0.0,0.0,0.0
0.0,0.0,0.0,0.0
0.0,0.0,0.0,0.0
0.0,0.0,0.0,0.0
0.0,0.0,0.0,0.0
0.0,0.0,0.0,0.0
0.0,0.0,0.0,0.0
0.0,0.0,0.0,0.0
0.0,0.0,0.0,0.0
0.0,0.0,0.0,0.0
0.0,0.0,0.0,0.0
0.0,0.0,0.0,0.0
0.0,0.0,0.0,0.0
0.0,0.0,0.0,0.0
0.0,0.0,0.0,0.0
0.0,0.0,0.0,0.0
0.0,0.0,0.0,0.0
0.0,0.0,0.0,0.0
0.0,0.0,0.0,0.0
0.0,0.0,0.0,0.0
0.0,0.0,0.0,0.0
0.0,0.0,0.0,0.0
0.0,0.0,0.0,0.0
0.0,0.0,0.0,0.0
0.0,0.0,0.0,0.0
0.0,0.0,0.0,0.0
0.0,0.0,0.0,0.0
0.0,0.0,0.0,0.0
0.0,0.0,0.0,0.0
0.0,0.0,0.0,0.0
0.0,0.0,0.0,0.0
0.0,0.0,0.0,0.0
0.0,0.0,0.0,0.0
0.0,0.0,0.0,0.0
0.0,0.0,0.0,0.0
0.0,0.0,0.0,0.0
0.0,0.0,0.0,0.0
0.0,0.0,0.0,0.0
0.0,0.0,0.0,0.0
0.0,0.0,0.0,0.0
0.0,0.0,0.0,0.0
0.0,0.0,0.0,0.0
0.0,0.0,0.0,0.0
0.0,0.0,0.0,0.0
0.0,0.0,0.0,0.0
0.0,0.0,0.0,0.0
0.0,0.0,0.0,0.0
0.0,0.0,0.0,0.0
0.0,0.0,0.0,0.0
0.0,0.0,0.0,0.0
0.0,0.0,0.0,0.0
