track,note,velocity,time
0,35,127,60
0,35,0,30
0,35,127,0
0,35,0,30
0,40,101,0
0,40,127,6
0,46,101,2
0,40,0,5
0,40,0,8
0,46,0,2
0,50,100,5
0,50,0,15
0,50,100,15
0,50,0,15
0,50,100,15
0,50,0,15
0,50,100,0
0,50,0,15
0,69,100,0
0,69,80,0
0,48,100,0
0,48,0,15
0,48,100,15
0,48,0,15
0,69,0,15
0,69,0,0
0,70,100,0
0,70,80,0
0,47,100,0
0,47,0,15
0,47,100,15
0,47,0,15
0,70,0,0
0,70,0,0
0,29,120,0
0,53,92,0
0,57,98,0
0,60,87,0
0,70,100,0
0,70,80,0
0,77,89,0
0,77,110,0
0,35,110,0
0,57,57,0
0,65,85,0
0,60,90,0
0,65,90,0
0,77,0,1
0,77,0,2
0,65,0,1
0,69,86,7
0,69,110,0
0,53,79,0
0,53,0,15
0,69,0,4
0,69,0,1
0,57,0,8
0,70,0,0
0,70,0,0
0,72,100,0
0,72,80,0
0,65,76,0
0,65,71,0
0,64,41,0
0,54,41,0
0,53,79,0
0,64,0,1
0,65,0,8
0,53,0,5
0,65,0,4
0,54,0,12
0,69,72,0
0,69,110,0
0,53,78,0
0,69,0,11
0,69,0,3
0,60,0,4
0,53,0,0
0,53,0,1
0,57,0,6
0,72,0,5
0,72,0,0
0,35,0,0
0,72,100,0
0,72,80,0
0,77,83,0
0,77,110,0
0,51,70,0
0,38,110,0
0,54,38,0
0,65,85,0
0,77,0,15
0,77,0,1
0,65,0,2
0,51,0,12
0,54,0,0
0,38,0,0
0,69,82,0
0,69,110,0
0,53,72,0
0,29,0,6
0,53,0,6
0,69,0,3
0,69,0,1
0,72,0,14
0,72,0,0
0,29,120,0
0,72,100,0
0,72,80,0
0,65,82,0
0,65,110,0
0,35,110,0
0,54,34,0
0,53,79,0
0,53,0,15
0,65,0,2
0,65,0,6
0,35,0,7
0,54,0,0
0,69,79,0
0,69,110,0
0,53,72,0
0,69,0,3
0,53,0,7
0,69,0,0
0,72,0,11
0,60,0,0
0,65,0,0
0,72,0,0
0,31,120,0
0,58,102,0
0,62,107,0
0,55,94,0
0,72,100,0
0,72,80,0
0,77,83,0
0,77,110,0
0,35,110,0
0,51,76,0
0,54,26,0
0,67,88,0
0,62,90,0
0,67,90,0
0,29,0,1
0,77,0,1
0,77,0,0
0,67,0,2
0,51,0,5
0,54,0,0
0,70,82,0
0,70,110,0
0,55,72,0
0,55,0,11
0,70,0,0
0,70,0,6
0,67,66,2
0,67,99,0
0,54,41,0
0,55,79,0
0,67,0,1
0,67,0,0
0,55,0,0
0,62,0,1
0,55,0,1
0,58,0,1
0,54,0,14
0,70,76,0
0,70,108,0
0,55,78,0
0,70,0,13
0,70,0,3
0,55,0,2
0,72,0,12
0,35,0,0
0,72,0,0
0,70,100,0
0,70,80,0
0,77,83,0
0,77,110,0
0,51,76,0
0,38,110,0
0,54,37,0
0,67,88,0
0,77,0,17
0,67,0,1
0,77,0,0
0,38,0,12
0,51,0,0
0,54,0,0
0,70,83,0
0,70,110,0
0,55,78,0
0,55,0,13
0,70,0,3
0,70,0,2
0,72,100,12
0,72,80,0
0,67,79,0
0,67,104,0
0,54,32,0
0,55,79,0
0,70,0,1
0,70,0,0
0,67,0,11
0,55,0,3
0,67,0,2
0,31,0,4
0,54,0,9
0,70,82,0
0,70,110,0
0,55,79,0
0,70,0,1
0,70,0,1
0,55,0,3
0,67,0,7
0,62,0,0
0,33,120,0
0,57,91,0
0,64,98,0
0,60,94,0
0,77,89,0
0,77,110,0
0,35,110,0
0,51,74,0
0,54,12,0
0,69,90,0
0,64,90,0
0,69,90,0
0,69,0,7
0,77,0,0
0,77,0,1
0,54,0,2
0,51,0,0
0,72,76,0
0,72,104,0
0,57,75,0
0,57,0,8
0,72,0,2
0,72,0,7
0,72,0,11
0,72,0,0
0,69,100,0
0,69,80,0
0,69,69,0
0,69,110,0
0,54,12,0
0,57,79,0
0,57,0,3
0,69,0,2
0,69,0,0
0,54,0,5
0,72,76,0
0,72,110,0
0,57,82,0
0,57,0,17
0,72,0,0
0,72,0,2
0,60,0,6
0,64,0,4
0,35,0,1
0,72,100,0
0,72,80,0
0,77,83,0
0,77,110,0
0,51,69,0
0,38,110,0
0,54,12,0
0,69,98,0
0,57,0,1
0,69,0,3
0,69,0,0
0,69,0,12
0,77,0,1
0,77,0,1
0,33,0,11
0,38,0,1
0,51,0,0
0,54,0,0
0,72,79,0
0,72,108,0
0,57,79,0
0,57,0,14
0,72,0,3
0,72,0,0
0,72,0,3
0,72,0,0
0,33,120,10
0,75,100,0
0,75,80,0
0,69,72,0
0,69,110,0
0,35,110,0
0,54,24,0
0,57,78,0
0,57,0,2
0,69,0,2
0,69,0,3
0,35,0,10
0,54,0,0
0,72,65,0
0,72,110,0
0,57,78,0
0,72,0,11
0,57,0,3
0,72,0,1
0,33,0,5
0,69,0,3
0,64,0,0
0,34,120,0
0,65,88,0
0,58,94,0
0,62,102,0
0,77,89,0
0,77,110,0
0,35,110,0
0,51,79,0
0,54,30,0
0,70,85,0
0,65,90,0
0,70,90,0
0,77,0,3
0,77,0,1
0,70,0,1
0,54,0,5
0,51,0,0
0,70,82,0
0,58,79,0
0,58,0,6
0,70,0,4
0,75,0,2
0,75,0,0
0,65,0,1
0,76,100,1
0,76,80,0
0,65,68,0
0,65,110,0
0,54,24,0
0,58,79,0
0,62,0,1
0,58,0,1
0,65,0,12
0,58,0,1
0,65,0,1
0,54,0,1
0,70,74,0
0,70,110,0
0,58,69,0
0,70,0,8
0,70,0,2
0,58,0,3
0,35,0,11
0,74,100,0
0,74,80,0
0,77,82,0
0,77,110,0
0,51,79,0
0,38,110,0
0,54,23,0
0,70,82,0
0,76,0,7
0,76,0,0
0,77,0,8
0,70,0,0
0,77,0,1
0,38,0,14
0,51,0,0
0,54,0,0
0,70,86,0
0,70,110,0
0,58,79,0
0,58,0,15
0,70,0,5
0,70,0,4
0,74,0,6
0,74,0,0
0,74,100,0
0,74,80,0
0,65,69,0
0,65,110,0
0,54,33,0
0,58,79,0
0,34,0,11
0,65,0,5
0,65,0,1
0,58,0,1
0,54,0,12
0,70,76,0
0,70,110,0
0,58,69,0
0,70,0,9
0,70,0,0
0,58,0,6
0,70,0,1
0,65,0,0
0,31,120,0
0,58,94,0
0,62,98,0
0,55,91,0
0,77,89,0
0,77,110,0
0,35,110,0
0,51,76,0
0,54,31,0
0,67,90,0
0,62,90,0
0,67,90,0
0,77,0,3
0,77,0,1
0,67,0,1
0,54,0,3
0,51,0,0
0,70,82,0
0,70,110,0
0,55,72,0
0,55,0,10
0,70,0,2
0,70,0,0
0,74,0,1
0,74,0,0
0,62,0,0
0,55,0,1
0,58,0,3
0,70,100,0
0,77,100,0
0,70,80,0
0,77,80,0
0,67,79,0
0,67,108,0
0,54,25,0
0,55,82,0
0,55,0,9
0,67,0,7
0,67,0,2
0,54,0,12
0,70,76,0
0,70,110,0
0,55,85,0
0,55,0,13
0,70,0,0
0,70,0,3
0,70,0,14
0,35,0,0
0,70,0,0
0,70,100,0
0,76,100,0
0,70,80,0
0,76,80,0
0,77,89,0
0,77,110,0
0,51,74,0
0,38,110,0
0,54,17,0
0,67,88,0
0,77,0,9
0,77,0,0
0,77,0,8
0,77,0,0
0,67,0,2
0,31,0,4
0,51,0,7
0,38,0,0
0,54,0,0
0,70,75,0
0,70,110,0
0,55,75,0
0,55,0,8
0,70,0,7
0,70,0,9
0,70,0,6
0,70,0,0
0,31,120,0
0,70,100,0
0,77,100,0
0,70,80,0
0,77,80,0
0,67,45,0
0,67,104,0
0,35,110,0
0,54,21,0
0,55,85,0
0,76,0,2
0,76,0,0
0,55,0,11
0,67,0,2
0,67,0,0
0,35,0,15
0,54,0,0
0,69,100,0
0,72,100,0
0,69,80,0
0,72,80,0
0,70,75,0
0,70,110,0
0,55,79,0
0,77,0,8
0,77,0,0
0,70,0,2
0,70,0,0
0,70,0,5
0,70,0,1
0,55,0,7
0,67,0,7
0,62,0,0
0,31,0,0
0,33,120,0
0,57,87,0
0,60,89,0
0,64,91,0
0,77,82,0
0,77,110,0
0,35,110,0
0,51,74,0
0,54,31,0
0,69,85,0
0,69,90,0
0,64,90,0
0,69,0,8
0,77,0,0
0,77,0,7
0,51,0,2
0,54,0,0
0,72,72,0
0,72,104,0
0,57,78,0
0,57,0,6
0,72,0,2
0,72,0,2
0,72,0,7
0,72,0,0
0,77,100,0
0,72,100,0
0,77,80,0
0,72,80,0
0,69,69,0
0,69,110,0
0,54,31,0
0,57,85,0
0,69,0,1
0,69,0,0
0,57,0,1
0,69,0,2
0,69,0,4
0,54,0,6
0,72,73,0
0,72,110,0
0,57,71,0
0,64,0,4
0,57,0,8
0,60,0,5
0,57,0,1
0,72,0,2
0,72,0,1
0,72,0,9
0,35,0,0
0,72,0,0
0,72,100,0
0,76,100,0
0,72,80,0
0,76,80,0
0,77,83,0
0,77,110,0
0,51,74,0
0,38,110,0
0,54,12,0
0,69,85,0
0,77,0,9
0,77,0,0
0,69,0,6
0,77,0,4
0,77,0,1
0,38,0,10
0,51,0,0
0,54,0,0
0,72,75,0
0,72,110,0
0,57,79,0
0,57,0,12
0,72,0,6
0,72,0,4
0,72,0,8
0,72,0,0
0,72,100,0
0,77,100,0
0,72,80,0
0,77,80,0
0,69,72,0
0,69,104,0
0,54,24,0
0,57,85,0
0,76,0,8
0,76,0,0
0,33,0,3
0,57,0,0
0,69,0,8
0,69,0,1
0,54,0,10
0,72,74,0
0,72,104,0
0,57,79,0
0,57,0,17
0,72,0,3
0,72,0,4
0,64,0,4
0,72,0,0
0,69,0,0
0,72,0,0
0,77,0,0
0,77,0,0
0,34,120,0
0,58,94,0
0,62,100,0
0,65,91,0
0,75,100,0
0,79,100,0
0,75,80,0
0,79,80,0
0,77,83,0
0,77,110,0
0,35,110,0
0,51,76,0
0,54,24,0
0,70,85,0
0,70,90,0
0,65,90,0
0,77,0,1
0,70,0,1
0,77,0,1
0,51,0,1
0,54,0,0
0,70,79,0
0,70,110,0
0,58,78,0
0,58,0,4
0,70,0,2
0,70,0,2
0,65,72,0
0,65,110,0
0,54,23,0
0,58,77,0
0,58,0,15
0,65,0,2
0,65,0,2
0,54,0,4
0,70,79,0
0,70,110,0
0,58,69,0
0,65,0,1
0,62,0,1
0,70,0,2
0,70,0,1
0,58,0,2
0,58,0,2
0,75,0,11
0,79,0,0
0,35,0,0
0,75,0,0
0,79,0,0
0,76,100,0
0,79,100,0
0,76,80,0
0,79,80,0
0,77,83,0
0,77,110,0
0,51,74,0
0,38,110,0
0,54,16,0
0,70,79,0
0,77,0,14
0,77,0,0
0,34,0,4
0,70,0,0
0,38,0,12
0,51,0,0
0,54,0,0
0,70,79,0
0,70,110,0
0,58,79,0
0,58,0,14
0,70,0,4
0,79,0,2
0,79,0,0
0,76,0,0
0,76,0,0
0,76,100,0
0,79,100,0
0,76,80,0
0,79,80,0
0,70,0,2
0,34,117,8
0,65,69,0
0,65,102,0
0,35,110,0
0,54,18,0
0,58,79,0
0,65,0,12
0,58,0,4
0,65,0,2
0,35,0,12
0,54,0,0
0,70,72,0
0,70,110,0
0,58,79,0
0,79,0,5
0,76,0,0
0,76,0,0
0,79,0,0
0,74,100,0
0,77,100,0
0,74,80,0
0,77,80,0
0,70,0,5
0,70,0,2
0,58,0,6
0,70,0,7
0,65,0,0
0,36,120,0
0,60,94,0
0,64,94,0
0,55,91,0
0,77,83,0
0,77,110,0
0,35,110,0
0,51,71,0
0,54,22,0
0,72,62,0
0,71,66,0
0,67,90,0
0,64,90,0
0,34,0,2
0,71,0,2
0,72,0,1
0,77,0,3
0,77,0,1
0,51,0,3
0,74,0,0
0,77,0,0
0,77,0,0
0,74,0,0
0,54,0,0
0,74,100,0
0,77,100,0
0,74,80,0
0,77,80,0
0,72,72,0
0,72,110,0
0,60,69,0
0,60,0,7
0,72,0,1
0,72,0,1
0,67,69,9
0,67,104,0
0,54,34,0
0,60,71,0
0,60,0,12
0,67,0,2
0,64,0,1
0,67,0,2
0,55,0,1
0,60,0,2
0,54,0,6
0,72,69,0
0,72,110,0
0,60,79,0
0,60,0,2
0,72,0,1
0,72,0,1
0,74,0,1
0,77,0,0
0,74,0,0
0,77,0,0
0,72,100,0
0,76,100,0
0,72,80,0
0,76,80,0
0,77,83,5
0,77,110,0
0,51,76,0
0,38,110,0
0,54,36,0
0,72,79,0
0,77,0,17
0,77,0,1
0,72,0,0
0,72,0,12
0,76,0,0
0,72,0,0
0,35,0,0
0,51,0,0
0,54,0,0
0,38,0,0
0,76,0,0
0,74,100,0
0,67,100,0
0,74,80,0
0,67,80,0
0,72,72,0
0,72,110,0
0,60,72,0
0,60,0,11
0,72,0,7
0,72,0,2
0,67,67,10
0,67,92,0
0,35,110,0
0,38,110,0
0,54,35,0
0,60,71,0
0,74,0,10
0,67,0,0
0,74,0,0
0,67,0,0
0,76,100,0
0,67,100,0
0,76,80,0
0,67,80,0
0,60,0,4
0,67,0,1
0,36,0,0
0,67,0,2
0,54,0,5
0,35,0,0
0,38,0,0
0,72,67,0
0,72,104,0
0,38,110,0
0,60,71,0
0,38,0,11
0,60,0,5
0,72,0,0
0,72,0,3
0,67,0,7
0,76,0,0
0,67,0,0
0,76,0,0
0,64,0,0
0,67,0,0
0,29,120,0
0,60,98,0
0,57,87,0
0,53,82,0
0,68,100,0
0,77,100,0
0,68,80,0
0,77,80,0
0,77,81,0
0,77,110,0
0,35,110,0
0,52,76,0
0,54,33,0
0,65,85,0
0,65,90,0
0,60,90,0
0,77,0,3
0,77,0,2
0,65,0,2
0,52,0,12
0,54,0,0
0,69,72,0
0,69,110,0
0,53,78,0
0,53,0,1
0,69,0,4
0,69,0,0
0,65,63,1
0,65,108,0
0,54,22,0
0,53,76,0
0,53,0,4
0,65,0,3
0,65,0,0
0,54,0,3
0,69,65,0
0,69,110,0
0,53,79,0
0,69,0,2
0,53,0,4
0,69,0,0
0,35,0,6
0,77,69,0
0,77,110,0
0,51,79,0
0,38,110,0
0,54,31,0
0,65,82,0
0,57,0,3
0,53,0,1
0,77,0,2
0,65,0,1
0,77,0,0
0,60,0,2
0,29,0,5
0,38,0,2
0,51,0,0
0,54,0,0
0,69,65,0
0,69,110,0
0,53,72,0
0,53,0,1
0,69,0,3
0,69,0,2
0,77,0,1
0,68,0,0
0,77,0,0
0,68,0,0
0,29,120,0
0,77,100,0
0,69,100,0
0,77,80,0
0,69,80,0
0,65,65,0
0,65,110,0
0,54,28,0
0,53,27,0
0,53,0,0
0,65,0,2
0,65,0,1
0,29,0,3
0,54,0,3
0,69,72,0
0,69,110,0
0,53,66,0
0,69,0,3
0,53,0,2
0,69,0,1
0,69,0,5
0,77,0,0
0,69,0,0
0,77,0,0
0,29,120,0
0,53,62,0
0,60,86,0
0,57,61,0
0,69,100,0
0,77,100,0
0,69,80,0
0,77,80,0
0,77,63,0
0,77,110,0
0,35,110,0
0,51,71,0
0,54,12,0
0,65,76,0
0,77,0,2
0,65,0,1
0,77,0,1
0,51,0,4
0,54,0,0
0,69,70,0
0,69,108,0
0,53,67,0
0,53,0,1
0,69,0,1
0,69,0,1
0,65,53,2
0,65,100,0
0,54,12,0
0,53,61,0
0,53,0,2
0,65,0,2
0,65,0,2
0,54,0,1
0,69,62,0
0,69,95,0
0,53,65,0
0,69,0,4
0,69,0,2
0,53,0,2
0,35,0,4
0,77,58,0
0,77,85,0
0,51,70,0
0,38,110,0
0,54,37,0
0,65,66,0
0,77,0,2
0,77,0,2
0,65,0,1
0,57,0,4
0,53,0,1
0,38,0,2
0,51,0,0
0,54,0,0
0,69,49,0
0,69,80,0
0,53,56,0
0,60,0,2
0,29,0,1
0,53,0,2
0,69,0,2
0,69,0,4
0,40,120,3
0,65,37,0
0,65,70,0
0,35,110,0
0,54,24,0
0,53,44,0
0,53,0,1
0,65,0,1
0,65,0,1
0,40,0,3
