track,note,velocity,time
1,46,110,0
1,58,110,192
1,46,110,192
1,58,110,192
1,46,110,192
1,58,110,192
1,46,110,192
1,63,110,192
1,58,110,0
1,59,100,16
1,62,100,0
1,67,100,0
1,55,100,8
1,55,100,8
1,50,100,0
1,40,100,0
1,50,100,0
1,52,100,0
1,59,100,0
1,62,100,0
1,67,100,0
1,55,100,16
1,55,100,8
1,50,100,0
1,40,100,0
1,62,100,0
1,69,100,0
1,64,100,0
1,71,100,0
1,50,100,0
1,52,100,0
1,55,100,0
1,57,100,0
1,57,100,0
1,55,100,16
1,55,100,0
1,45,100,0
1,40,100,0
1,43,100,0
1,45,100,0
1,50,100,0
1,52,100,0
1,55,100,0
1,57,100,0
1,67,100,8
1,69,100,0
1,76,100,0
1,55,100,0
1,50,100,0
1,59,100,0
1,62,100,0
1,62,100,0
1,59,50,0
1,64,100,0
1,59,100,0
1,55,100,0
1,50,50,0
1,50,100,8
1,40,110,8
1,67,90,0
1,62,90,0
1,56,90,0
1,52,90,0
1,52,90,0
1,56,90,0
1,62,90,0
1,67,90,0
1,67,90,0
1,62,90,0
1,56,90,0
1,52,90,0
1,52,90,0
1,56,90,0
1,62,90,0
1,67,90,0
1,67,90,0
1,62,90,0
1,56,90,0
1,52,90,0
1,43,90,0
1,43,90,0
1,55,90,0
1,62,90,0
1,59,90,0
1,55,90,0
1,43,90,0
1,43,90,0
1,45,100,0
1,64,90,240
1,61,90,0
1,57,90,0
1,57,90,0
1,61,90,0
1,64,90,0
1,45,90,0
1,57,90,0
1,61,90,0
1,66,90,0
1,64,100,0
1,61,90,0
1,57,90,0
1,45,90,0
1,40,110,0
1,67,90,0
1,62,90,0
1,56,90,0
1,52,90,0
1,64,90,0
1,52,90,0
1,56,90,0
1,62,90,0
1,67,90,0
1,64,90,0
1,67,90,0
1,62,90,0
1,56,90,0
1,52,90,0
1,67,90,0
1,64,90,0
1,62,90,0
1,56,90,0
1,52,90,0
1,62,90,0
1,64,90,0
1,67,90,0
1,56,90,0
1,52,90,0
1,67,90,0
1,64,90,0
1,62,90,0
1,56,90,0
1,52,90,0
1,50,100,8
1,43,100,16
1,43,100,0
1,67,90,0
1,62,90,0
1,55,90,0
1,43,90,0
1,55,90,8
1,43,100,0
1,45,100,0
1,64,90,232
1,61,90,0
1,57,90,0
1,57,90,0
1,61,90,0
1,64,90,0
1,45,90,0
1,57,90,0
1,61,90,0
1,66,90,0
1,64,100,0
1,61,90,0
1,57,90,0
1,45,90,0
1,40,110,0
1,67,90,0
1,62,90,0
1,56,90,0
1,52,90,0
1,52,90,0
1,56,90,0
1,62,90,0
1,67,90,0
1,67,90,0
1,62,90,0
1,56,90,0
1,52,90,0
1,52,90,0
1,56,90,0
1,62,90,0
1,67,90,0
1,56,90,0
1,52,90,0
1,62,90,0
1,67,90,0
1,50,100,8
1,43,100,8
1,43,100,0
1,62,90,0
1,59,90,0
1,55,90,0
1,43,110,0
1,64,90,0
1,61,90,0
1,57,90,0
1,45,100,0
1,45,90,0
1,64,90,0
1,61,90,0
1,57,90,0
1,57,90,0
1,61,90,0
1,64,90,0
1,64,90,0
1,61,90,0
1,57,90,0
1,45,90,0
1,66,90,0
1,64,100,0
1,64,90,0
1,61,90,0
1,57,90,0
1,45,90,0
1,40,110,0
1,67,90,0
1,62,90,0
1,56,90,0
1,52,90,0
1,52,90,0
1,56,90,0
1,62,90,0
1,67,90,0
1,67,90,0
1,62,90,0
1,56,90,0
1,52,90,0
1,52,90,0
1,56,90,0
1,62,90,0
1,67,90,0
1,67,90,0
1,62,90,0
1,56,90,0
1,52,90,0
1,67,90,0
1,62,90,0
1,56,90,0
1,52,90,0
1,43,100,240
1,43,100,0
1,67,90,0
1,62,90,0
1,55,90,0
1,43,90,0
1,55,90,8
1,43,100,0
1,64,90,0
1,61,90,0
1,57,90,0
1,45,90,0
1,45,90,0
1,64,90,0
1,61,90,0
1,57,90,0
1,66,90,0
1,57,90,0
1,61,90,0
1,45,90,0
1,57,90,0
1,61,90,0
1,66,90,0
1,64,100,0
1,64,90,0
1,61,90,0
1,57,90,0
1,45,90,0
1,40,110,0
1,67,90,0
1,62,90,0
1,56,90,0
1,52,90,0
1,52,90,0
1,56,90,0
1,62,90,0
1,67,90,0
1,67,90,0
1,62,90,0
1,56,90,0
1,52,90,0
1,52,90,0
1,56,90,0
1,62,90,0
1,67,90,0
1,52,90,0
1,56,90,0
1,62,90,0
1,67,90,0
1,59,90,0
1,55,90,0
1,43,90,0
1,55,90,0
1,59,90,0
1,43,90,0
1,43,90,0
1,62,90,0
1,59,90,0
1,55,90,0
1,43,100,0
1,64,90,0
1,61,90,0
1,57,90,0
1,45,100,0
1,45,90,0
1,64,90,0
1,61,90,0
1,57,90,0
1,66,90,0
1,57,90,0
1,61,90,0
1,61,90,0
1,57,90,0
1,45,90,0
1,66,90,0
1,64,100,0
1,64,90,0
1,61,90,0
1,57,90,0
1,45,90,0
1,40,110,0
1,74,90,0
1,66,100,56
1,54,100,0
1,64,100,0
1,52,100,0
1,50,100,0
1,62,100,0
1,59,100,8
1,62,100,0
1,67,100,0
1,59,100,8
1,62,100,0
1,67,100,0
1,40,110,8
1,67,90,0
1,62,90,0
1,56,90,0
1,52,90,0
1,67,90,0
1,62,90,0
1,56,90,0
1,52,90,0
1,67,90,120
1,62,90,0
1,56,90,0
1,52,90,0
1,52,90,0
1,56,90,0
1,62,90,0
1,67,90,0
1,52,90,0
1,56,90,0
1,62,90,0
1,67,90,0
1,67,90,0
1,62,90,0
1,56,90,0
1,52,90,0
1,59,90,96
1,64,90,0
1,43,100,0
1,43,100,0
1,59,90,0
1,55,90,0
1,43,90,0
1,62,90,0
1,43,100,0
1,61,90,0
1,57,90,0
1,45,100,0
1,64,90,0
1,61,90,0
1,57,90,0
1,45,100,0
1,59,90,8
1,55,90,0
1,40,110,16
1,67,90,0
1,62,90,0
1,56,90,0
1,52,90,0
1,45,100,0
1,47,100,0
1,50,100,0
1,52,100,0
1,50,100,0
1,47,100,0
1,46,100,0
1,45,100,0
1,43,100,0
1,43,100,0
1,62,90,0
1,59,90,0
1,55,90,0
1,43,100,0
1,45,100,0
1,64,90,0
1,61,90,0
1,57,90,0
1,45,90,0
1,66,90,0
1,57,90,0
1,61,90,0
1,61,90,0
1,57,90,0
1,66,90,0
1,45,100,0
1,64,90,0
1,61,90,0
1,57,90,0
1,61,90,0
1,64,90,0
1,57,90,0
1,57,90,60
1,61,90,0
1,64,90,0
1,40,110,0
1,52,90,0
1,62,90,0
1,56,90,0
1,67,90,0
1,67,90,0
1,62,90,0
1,56,90,0
1,52,90,0
1,45,100,0
1,47,100,0
1,50,100,0
1,52,100,0
1,50,100,0
1,47,100,0
1,46,100,0
1,45,100,0
1,43,100,0
1,43,100,0
1,62,90,0
1,59,90,0
1,55,90,0
1,43,90,0
1,43,100,0
1,64,90,0
1,61,90,0
1,57,90,0
1,45,90,0
1,61,90,0
1,45,90,0
1,57,90,0
1,64,90,0
1,57,90,0
1,61,90,0
1,64,90,0
1,61,90,0
1,57,90,0
1,66,90,0
1,45,90,0
1,64,90,0
1,61,90,0
1,64,90,0
1,57,90,0
1,45,90,0
1,40,110,0
1,66,100,56
1,54,100,0
1,64,100,0
1,52,100,0
1,50,100,0
1,62,100,0
1,59,100,8
1,62,100,0
1,67,100,0
1,59,100,8
1,62,100,0
1,67,100,16
1,59,100,0
1,61,100,16
1,64,100,16
1,71,100,16
1,61,100,8
1,64,100,16
1,71,100,16
1,64,100,8
1,67,100,0
1,79,100,0
1,64,100,8
1,67,100,0
1,79,100,0
1,76,100,0
1,71,100,8
1,74,100,0
1,70,100,8
1,74,100,0
1,74,100,8
1,71,100,0
1,71,100,8
1,74,100,0
1,52,100,8
1,71,100,0
1,74,100,0
1,71,100,240
1,71,100,0
1,73,100,0
1,73,100,0
1,71,100,0
1,71,100,0
1,69,100,0
1,69,100,0
1,71,100,0
1,69,100,0
1,68,100,0
1,69,100,0
1,71,100,8
1,50,70,8
1,78,100,0
1,74,100,0
1,64,100,0
1,67,100,0
1,69,100,0
1,67,100,0
1,64,100,0
1,67,100,0
1,67,100,0
1,66,100,0
1,66,100,0
1,64,100,0
1,62,100,0
1,62,100,240
1,64,100,0
1,62,100,0
1,61,100,0
1,62,100,0
1,59,100,0
1,61,100,0
1,64,100,0
1,66,100,0
1,66,100,0
1,64,100,0
1,62,100,0
1,62,100,0
1,64,100,0
1,64,100,0
1,66,100,0
1,62,100,0
1,66,100,0
1,62,100,0
1,66,100,0
1,62,100,0
1,66,100,0
1,62,100,0
1,76,100,300
1,71,100,0
1,67,100,0
1,62,100,0
1,64,100,0
1,66,100,0
1,67,100,0
1,78,100,240
1,76,100,0
1,78,100,0
1,76,100,0
1,74,100,0
1,76,100,0
1,73,100,0
1,74,100,0
1,73,100,0
1,73,100,0
1,73,100,0
1,71,100,0
1,73,100,0
1,71,100,0
1,69,100,0
1,71,100,0
1,74,100,0
1,69,100,0
1,71,100,0
1,59,100,0
1,62,100,0
1,67,100,0
1,55,100,8
1,55,100,8
1,50,100,0
1,40,100,0
1,50,100,0
1,52,100,0
1,59,100,0
1,62,100,0
1,67,100,0
1,55,100,16
1,55,100,8
1,50,100,0
1,40,100,0
1,50,100,0
1,52,100,0
1,40,100,0
1,52,100,0
1,55,100,0
1,57,100,0
1,58,100,8
1,59,100,8
1,63,100,0
1,55,100,0
1,52,100,0
1,55,100,0
1,57,100,0
1,57,100,0
1,59,100,8
1,57,100,0
1,55,100,0
1,43,100,0
1,55,80,0
1,59,100,8
1,62,100,0
1,67,100,0
1,55,100,8
1,59,80,0
1,55,100,8
1,50,100,0
1,40,100,0
1,50,100,0
1,52,100,0
1,40,100,0
1,45,100,0
1,52,100,0
1,55,100,0
1,40,110,200
1,67,90,0
1,62,90,0
1,56,90,0
1,52,90,0
1,52,90,0
1,56,90,0
1,62,90,0
1,67,90,0
1,67,90,120
1,62,90,0
1,62,90,0
1,67,90,0
1,62,90,0
1,67,90,0
1,62,90,0
1,67,90,0
1,62,90,0
1,67,90,0
1,59,90,0
1,64,90,0
1,43,100,8
1,62,90,0
1,59,90,0
1,55,90,0
1,43,90,0
1,55,90,0
1,59,90,0
1,62,90,0
1,43,90,0
1,43,90,0
1,55,90,0
1,59,90,0
1,62,90,0
1,43,90,0
1,55,90,0
1,59,90,0
1,62,90,0
1,45,90,0
1,61,90,0
1,64,90,0
1,64,100,0
1,61,90,0
1,66,90,0
1,66,90,0
1,64,100,112
1,64,100,0
1,40,110,0
1,67,90,0
1,62,90,0
1,56,90,0
1,52,90,0
1,52,90,0
1,56,90,0
1,62,90,0
1,67,90,0
1,67,90,0
1,62,90,0
1,56,90,0
1,52,90,0
1,52,90,0
1,56,90,0
1,62,90,0
1,67,90,0
1,67,90,0
1,62,90,0
1,56,90,0
1,52,90,0
1,67,90,0
1,62,90,0
1,56,90,0
1,52,90,0
1,40,100,0
1,43,100,0
1,62,90,0
1,59,90,0
1,55,90,0
1,43,90,0
1,43,90,0
1,55,90,0
1,59,90,0
1,62,90,0
1,43,90,0
1,55,90,0
1,59,90,0
1,62,90,0
1,45,90,0
1,61,90,0
1,64,90,0
1,61,90,0
1,64,90,0
1,66,90,0
1,61,90,0
1,61,90,0
1,66,90,0
1,64,90,0
1,61,90,0
1,59,90,0
1,40,110,0
1,67,90,0
1,62,90,0
1,56,90,0
1,52,90,0
1,67,90,0
1,62,90,0
1,56,90,0
1,52,90,0
1,67,90,0
1,62,90,0
1,56,90,0
1,52,90,0
1,67,90,0
1,62,90,0
1,56,90,0
1,52,90,0
1,67,90,0
1,62,90,0
1,56,90,0
1,52,90,0
1,55,100,0
1,52,100,0
1,62,90,8
1,59,90,0
1,55,90,0
1,43,90,0
1,55,90,0
1,59,90,0
1,62,90,0
1,43,90,0
1,55,90,0
1,50,90,0
1,43,90,0
1,64,90,0
1,61,90,0
1,57,90,0
1,45,90,0
1,57,90,0
1,61,90,0
1,67,90,0
1,66,100,0
1,64,100,0
1,40,110,0
1,76,90,0
1,66,100,56
1,54,100,0
1,64,100,0
1,52,100,0
1,50,100,0
1,62,100,0
1,59,100,8
1,62,100,0
1,67,100,0
1,59,100,8
1,62,100,0
1,67,100,16
1,59,100,8
1,62,100,0
1,67,100,0
1,61,100,8
1,64,100,0
1,67,100,0
1,71,100,480
1,73,100,0
1,74,100,0
1,73,100,0
1,73,100,0
1,71,100,0
1,69,100,0
1,67,100,0
1,76,100,8
1,76,100,8
1,76,90,20
1,88,90,0
1,76,90,0
1,88,90,0
1,76,90,0
1,88,90,0
1,76,90,0
1,88,90,0
1,76,90,0
1,88,90,0
1,76,90,0
1,88,90,0
1,76,90,0
1,88,90,0
1,76,90,0
1,88,90,0
1,76,90,0
1,88,90,0
1,76,90,0
1,88,90,0
1,76,90,0
1,88,90,0
1,76,90,0
1,88,90,0
1,76,90,0
1,88,90,0
1,76,90,0
1,88,90,0
1,76,90,0
1,88,90,0
1,76,90,0
1,88,90,0
1,74,90,8
1,86,90,0
1,76,90,8
1,88,90,0
1,76,90,0
1,88,90,0
1,76,90,0
1,88,90,0
1,76,90,0
1,88,90,0
1,76,90,0
1,88,90,0
1,76,90,0
1,88,90,0
1,76,90,0
1,88,90,0
1,76,90,0
1,88,90,0
1,76,90,0
1,88,90,0
1,76,90,0
1,88,90,0
1,76,90,0
1,88,90,0
1,76,90,0
1,88,90,0
1,76,90,0
1,88,90,0
1,76,90,0
1,88,90,0
1,76,90,0
1,88,90,0
1,76,90,0
1,88,90,0
1,76,90,0
1,88,90,0
1,76,90,0
1,88,90,0
1,76,90,0
1,88,90,0
1,76,90,0
1,88,90,0
1,76,90,8
1,88,90,0
1,76,90,0
1,88,90,0
1,76,90,0
1,88,90,0
1,76,90,0
1,88,90,0
1,76,90,0
1,88,90,0
1,76,90,0
1,88,90,0
1,76,90,0
1,88,90,0
1,76,90,0
1,88,90,0
1,76,90,0
1,88,90,0
1,76,90,0
1,88,90,0
1,76,90,8
1,88,90,0
1,76,90,0
1,88,90,0
1,76,90,0
1,88,90,0
1,76,90,0
1,88,90,0
1,76,90,0
1,88,90,0
1,76,90,8
1,88,90,0
1,76,90,0
1,88,90,0
1,76,90,0
1,88,90,0
1,76,90,0
1,88,90,0
1,76,90,0
1,88,90,0
1,76,90,0
1,88,90,0
1,76,90,0
1,88,90,0
1,76,90,0
1,88,90,0
1,76,90,0
1,88,90,0
1,76,100,0
1,79,100,20
1,77,100,8
1,74,90,0
1,86,90,0
1,76,90,8
1,88,90,0
1,77,90,0
1,89,90,0
1,76,90,80
1,88,90,0
1,74,90,0
1,86,90,0
1,74,90,0
1,86,90,0
1,74,90,0
1,86,90,0
1,74,90,0
1,86,90,0
1,76,90,0
1,88,90,0
1,77,90,0
1,89,90,0
1,76,90,0
1,88,90,0
1,74,90,0
1,86,90,0
1,76,90,0
1,88,90,0
1,76,90,0
1,88,90,0
1,76,90,8
1,88,90,0
1,76,90,0
1,88,90,0
1,76,90,0
1,88,90,0
1,76,90,0
1,88,90,0
1,76,90,0
1,88,90,0
1,76,90,0
1,88,90,0
1,76,90,0
1,88,90,0
1,76,90,0
1,88,90,0
1,76,90,0
1,88,90,0
1,76,90,0
1,88,90,0
1,76,90,0
1,88,90,0
1,76,90,0
1,88,90,0
1,76,90,0
1,88,90,0
1,76,90,0
1,88,90,0
1,76,90,0
1,88,90,0
1,76,90,0
1,88,90,0
1,76,90,0
1,88,90,0
1,76,90,0
1,88,90,0
1,76,90,0
1,88,90,0
1,76,90,0
1,88,90,0
1,74,100,0
1,77,100,0
1,76,90,40
1,88,90,0
1,76,90,0
1,88,90,0
1,76,90,0
1,88,90,0
1,76,90,0
1,88,90,0
1,76,90,0
1,88,90,0
1,76,90,0
1,88,90,0
1,76,90,0
1,88,90,0
1,76,90,0
1,88,90,0
1,76,90,0
1,88,90,0
1,76,90,0
1,88,90,0
