track,note,velocity,time
1,60,119,2480
1,62,113,96
1,48,127,0
1,64,127,0
1,55,127,0
1,60,127,0
1,62,127,42
1,55,127,0
1,59,127,0
1,43,112,0
1,60,127,146
1,55,127,32
1,62,127,0
1,46,127,0
1,60,127,8
1,55,100,0
1,55,127,58
1,60,127,0
1,41,127,0
1,65,127,326
1,64,120,96
1,62,127,88
1,60,127,24
1,48,112,24
1,60,127,0
1,55,127,0
1,64,127,0
1,76,107,218
1,72,107,0
1,60,110,152
1,43,90,0
1,67,127,0
1,59,100,0
1,62,112,0
1,55,70,122
1,60,127,78
1,62,100,78
1,55,120,12
1,84,112,8
1,46,77,0
1,79,112,0
1,77,83,0
1,72,87,0
1,58,92,16812
1,60,116,192
1,65,116,96
1,67,116,96
1,72,116,96
1,64,89,3380
1,57,89,0
1,67,89,0
1,60,89,0
1,59,89,0
1,67,89,0
1,64,89,0
1,62,89,0
1,74,89,0
1,65,89,96
1,72,89,0
1,55,127,100
1,64,127,0
1,60,127,0
1,48,127,0
1,57,127,12
1,62,127,0
1,43,127,0
1,55,127,0
1,67,127,206
1,55,127,152
1,57,120,96
1,59,127,84
1,55,120,16
1,62,127,18
1,53,127,0
1,57,127,0
1,38,92,0
1,53,120,62
1,38,127,82
1,53,72,32
1,41,127,24
1,60,127,0
1,57,127,0
1,53,127,0
1,53,76,88
1,53,120,10
1,65,127,96
1,41,127,78
1,53,127,16
1,48,100,24
1,64,127,0
1,60,127,0
1,55,112,0
1,43,97,198
1,62,94,0
1,59,97,0
1,55,100,0
1,57,92,0
1,55,83,20
1,67,92,90
1,62,112,140
1,55,112,0
1,57,94,4
1,55,127,6
1,43,74,56
1,60,112,18
1,62,112,0
1,53,94,0
1,46,106,0
1,46,106,286
1,62,125,288
1,70,125,10
1,62,65,10
1,60,77,60
1,65,77,0
1,62,56,96
1,58,71,10
1,48,94,12
1,64,120,0
1,55,112,0
1,60,127,0
1,60,120,142
1,62,127,0
1,67,127,0
1,48,76,100
1,43,90,18
1,62,120,0
1,55,97,0
1,57,92,0
1,59,94,0
1,43,72,8
1,55,83,2
1,62,120,58
1,55,120,0
1,57,92,4
1,55,112,96
1,43,83,10
1,65,127,22
1,38,97,0
1,57,94,0
1,60,127,0
1,50,85,258
1,41,92,66
1,60,112,0
1,57,112,0
1,53,112,0
1,53,83,84
1,48,87,30
1,55,127,96
1,57,100,96
1,65,127,96
1,60,127,28
1,64,127,0
1,48,112,0
1,55,120,0
1,62,127,58
1,60,127,0
1,67,127,0
1,48,87,92
1,43,90,38
1,62,127,0
1,55,120,0
1,57,120,0
1,55,92,24
1,43,76,48
1,57,87,96
1,55,85,0
1,67,120,30
1,55,112,76
1,43,74,14
1,62,112,46
1,46,127,0
1,53,120,0
1,60,120,0
1,46,127,18
1,65,120,0
1,60,120,0
1,58,96,0
1,52,127,6226
1,55,127,0
1,60,127,0
1,71,50,288
1,67,127,0
1,72,127,0
1,64,127,0
1,67,127,22
1,71,127,0
1,64,127,0
1,55,127,0
1,59,127,0
1,52,127,0
1,53,127,50
1,58,127,0
1,50,97,0
1,65,127,224
1,62,127,0
1,70,127,0
1,65,127,44
1,69,127,0
1,62,127,0
1,53,127,0
1,50,127,0
1,57,127,0
1,60,127,20
1,52,127,0
1,55,127,0
1,72,127,86
1,64,120,0
1,67,127,0
1,55,127,38
1,59,127,0
1,52,127,0
1,71,127,0
1,64,120,0
1,67,120,0
1,65,127,44
1,53,127,0
1,60,127,0
1,58,127,0
1,65,110,480
1,60,110,96
1,70,86,96
1,65,112,8
1,38,94,166
1,53,97,0
1,57,94,0
1,60,112,0
1,64,127,144
1,62,85,48
1,60,87,6
1,38,110,10
1,53,110,0
1,62,110,0
1,57,110,0
1,64,104,96
1,45,120,12
1,64,127,0
1,60,127,0
1,55,127,0
1,55,127,16
1,62,127,0
1,59,127,0
1,43,90,0
1,55,97,42
1,43,94,70
1,62,120,42
1,55,120,0
1,59,120,0
1,43,94,0
1,55,58,58
1,43,70,60
1,64,127,20
1,55,127,0
1,60,127,0
1,41,97,22
1,65,120,0
1,57,90,0
1,60,100,0
1,41,40,150
1,57,33,48
1,65,127,76
1,60,120,0
1,57,97,0
1,60,127,40
1,55,120,0
1,64,97,0
1,55,87,74
1,41,90,24
1,55,127,16
1,59,120,0
1,62,94,0
1,43,127,0
1,55,34,32
1,43,58,0
1,62,30,0
1,59,52,0
1,43,27,74
1,55,104,48
1,62,104,0
1,59,104,0
1,64,125,38
1,60,125,0
1,55,125,0
1,43,90,84
1,79,120,0
1,60,97,0
1,50,76,0
1,38,94,0
1,53,90,0
1,57,85,0
1,74,83,20
1,67,72,8
1,64,120,0
1,62,94,8
1,60,92,0
1,64,120,38
1,50,76,0
1,53,97,0
1,60,120,0
1,57,112,0
1,53,61,8
1,50,63,96
1,55,127,14
1,64,127,0
1,45,97,0
1,60,120,0
1,67,38,42
1,74,85,16
1,59,112,6
1,62,97,0
1,55,100,0
1,43,83,0
1,79,127,0
1,74,74,2
1,67,87,62
1,55,85,34
1,74,90,0
1,59,92,0
1,62,74,0
1,79,112,78
1,50,72,8
1,74,90,0
1,67,94,68
1,55,94,0
1,62,97,0
1,59,94,0
1,60,97,74
1,67,85,48
1,62,97,0
1,74,120,42
1,55,127,0
1,40,90,0
1,64,127,0
1,60,127,0
1,76,120,32
1,67,92,52
1,52,58,96
1,53,90,14
1,57,94,0
1,60,120,0
1,41,120,0
1,76,100,126
1,79,112,52
1,53,81,0
1,57,85,0
1,60,81,0
1,67,85,0
1,48,58,96
1,57,100,96
1,64,127,0
1,60,112,0
1,72,83,20
1,77,83,96
1,53,83,62
1,79,83,0
1,57,83,20
1,79,83,28
1,60,83,0
1,84,83,96
1,64,83,0
1,84,83,50
1,91,83,42
1,64,83,0
1,67,83,0
1,60,83,0
1,57,83,0
1,84,101,4
1,79,115,218
1,67,115,288
1,84,109,0
1,79,90,288
1,72,101,20
1,84,115,20
1,79,109,288
1,67,115,284
1,72,109,0
1,67,109,288
1,72,109,0
1,79,109,288
1,67,115,288
1,84,115,384
1,79,115,74
1,67,115,0
1,84,115,0
1,72,115,0
1,79,115,0
1,65,101,0
1,67,101,96
1,72,115,96
1,65,115,56
1,67,115,46
1,72,115,96
1,84,115,50
1,79,109,276
1,67,101,256
1,72,109,384
1,72,88,86
1,72,101,82
1,84,115,84
1,79,115,66
1,67,115,116
1,67,115,122
1,67,36,128
1,67,115,52
1,84,115,0
1,79,109,288
1,72,88,192
1,79,109,90
1,72,101,358
1,67,115,288
1,72,90,0
1,77,83,0
1,67,88,0
1,52,127,756
1,55,127,0
1,60,127,0
1,59,127,0
1,52,127,0
1,55,127,0
1,67,90,288
1,74,127,96
1,71,100,288
1,67,112,0
1,58,127,0
1,50,127,0
1,53,127,0
1,50,127,0
1,53,127,0
1,57,127,0
1,69,94,288
1,74,94,96
1,77,127,0
1,69,120,0
1,74,97,0
1,69,110,0
1,74,127,0
1,81,127,0
1,77,92,96
1,55,127,0
1,52,127,0
1,60,127,0
1,55,127,0
1,52,127,0
1,59,127,0
1,67,97,384
1,74,120,96
1,71,97,192
1,67,100,74
1,65,127,0
1,53,127,0
1,58,127,0
1,60,127,0
1,65,120,480
1,67,112,96
1,72,127,96
1,65,100,46
1,52,127,0
1,55,127,0
1,60,127,0
1,59,127,0
1,52,127,0
1,55,127,0
1,67,90,288
1,74,127,96
1,71,100,288
1,67,112,0
1,58,127,0
1,50,127,0
1,53,127,0
1,50,127,0
1,53,127,0
1,57,127,0
1,69,94,288
1,74,94,96
1,77,127,0
1,69,120,0
1,74,97,0
1,69,110,0
1,74,127,0
1,81,127,0
1,77,92,96
1,55,127,0
1,52,127,0
1,60,127,0
1,55,127,0
1,52,127,0
1,59,127,0
1,67,97,384
1,74,120,96
1,71,97,192
1,67,100,74
1,65,127,0
1,53,127,0
1,58,127,0
1,60,127,0
1,65,120,480
1,67,112,96
1,72,127,96
1,65,100,46
1,60,127,0
1,55,127,0
1,52,127,0
1,59,127,0
1,52,127,0
1,55,127,0
1,67,90,288
1,74,127,96
1,71,100,288
1,67,112,0
1,58,127,0
1,50,127,0
1,53,127,0
1,50,127,0
1,53,127,0
1,57,127,0
1,69,94,288
1,74,94,96
1,77,127,0
1,69,120,0
1,74,97,0
1,69,110,0
1,74,127,0
1,81,127,0
1,77,92,96
1,55,127,0
1,52,127,0
1,60,127,0
1,55,127,0
1,52,127,0
1,59,127,0
1,67,97,384
1,74,120,96
1,71,97,192
1,67,100,74
1,65,127,0
1,53,127,0
1,58,127,0
1,60,127,0
1,65,120,480
1,67,112,96
1,72,127,96
1,65,100,46
1,81,127,384
1,72,120,0
1,74,112,52
1,83,127,0
1,79,127,0
1,76,120,0
1,84,127,0
1,60,127,0
1,55,127,0
1,52,127,0
1,81,97,56
1,72,97,0
1,76,97,0
1,71,120,0
1,74,100,0
1,79,100,0
1,59,127,0
1,52,127,0
1,55,127,0
1,71,87,98
1,74,52,10
1,58,127,0
1,50,127,0
1,53,127,0
1,77,100,0
1,74,112,0
1,70,127,0
1,72,127,32
1,77,120,0
1,70,127,0
1,69,97,0
1,77,76,0
1,72,81,0
1,50,127,0
1,53,127,0
1,57,127,0
1,69,64,70
1,77,100,50
1,72,127,0
1,69,120,0
1,74,85,96
1,69,74,34
1,55,127,0
1,52,127,0
1,60,127,0
1,55,127,0
1,52,127,0
1,59,127,0
1,67,97,384
1,74,120,96
1,71,97,192
1,67,100,74
1,65,127,0
1,53,127,0
1,58,127,0
1,60,127,0
1,65,120,480
1,67,112,96
1,72,127,96
1,65,100,46
1,52,127,0
1,55,127,0
1,60,127,0
1,59,127,0
1,52,127,0
1,55,127,0
1,67,90,288
1,74,127,96
1,71,100,288
1,67,112,0
1,58,127,0
1,50,127,0
1,53,127,0
1,50,127,0
1,53,127,0
1,57,127,0
1,69,94,288
1,74,94,96
1,77,127,0
1,69,120,0
1,74,97,0
1,69,110,0
1,74,127,0
1,81,127,0
1,77,92,96
1,55,127,0
1,52,127,0
1,60,127,0
1,84,127,0
1,76,120,0
1,81,127,0
1,86,112,24
1,76,112,0
1,81,127,0
1,83,120,0
1,79,127,0
1,76,112,0
1,55,127,0
1,52,127,0
1,59,127,0
1,67,97,384
1,74,120,96
1,71,97,192
1,67,100,48
1,72,91,0
1,77,91,0
1,82,91,0
1,65,91,0
1,53,91,0
1,58,91,0
1,60,91,0
1,65,120,36
1,67,112,96
1,72,127,96
1,65,100,46
1,81,105,384
1,72,105,0
1,74,105,0
1,83,105,0
1,79,105,0
1,76,105,0
1,84,105,0
1,52,105,0
1,55,105,0
1,60,105,0
1,81,97,56
1,72,97,0
1,76,97,0
1,71,120,0
1,74,100,0
1,79,100,0
1,59,127,0
1,52,127,0
1,55,127,0
1,71,87,98
1,74,52,10
1,58,127,0
1,50,127,0
1,53,127,0
1,77,100,0
1,74,112,0
1,70,127,0
1,72,127,32
1,77,120,0
1,70,127,0
1,69,97,0
1,77,76,0
1,72,81,0
1,50,127,0
1,53,127,0
1,57,127,0
1,69,64,0
1,77,100,0
1,72,127,0
1,69,120,0
1,74,85,32
1,69,74,0
1,55,96,0
1,52,96,0
1,60,96,0
1,81,96,0
1,84,96,0
1,76,96,0
1,86,96,30
1,76,96,0
1,81,96,0
1,55,96,0
1,52,96,0
1,59,96,0
1,83,96,0
1,79,96,0
1,76,96,0
1,79,101,18
1,74,101,0
1,81,101,0
1,72,107,0
1,71,107,0
1,76,107,0
1,79,107,0
1,67,107,0
1,74,120,84
1,71,97,32
1,67,100,0
1,65,127,0
1,53,127,0
1,58,127,0
1,60,127,0
1,65,120,32
1,67,112,0
1,72,127,96
1,65,100,0
1,60,127,0
1,55,127,0
1,52,127,0
1,59,127,0
1,52,127,0
1,55,127,0
1,67,90,32
1,74,127,0
1,71,100,32
1,67,112,0
1,58,127,0
1,50,127,0
1,53,127,0
1,50,127,0
1,53,127,0
1,57,127,0
1,69,94,32
1,74,94,0
1,77,127,0
1,69,120,0
1,74,97,0
1,69,110,0
1,74,127,0
1,81,127,0
1,77,92,96
1,55,127,0
1,52,127,0
1,60,127,0
1,84,127,0
1,76,120,0
1,81,127,0
1,86,112,24
1,76,112,0
1,81,127,0
1,83,120,0
1,79,127,0
1,76,112,0
1,55,127,0
1,52,127,0
1,59,127,0
1,67,97,0
1,74,120,96
1,71,97,32
1,67,100,0
1,72,120,0
1,77,120,0
1,82,112,0
1,65,127,0
1,53,127,0
1,58,127,0
1,60,127,0
1,65,120,32
1,67,112,0
1,72,127,96
1,65,100,0
1,81,105,64
1,72,105,0
1,74,105,0
1,83,105,0
2,31,127,26728
2,33,127,96
2,28,127,574
2,31,127,956
2,26,127,28
2,38,127,2
2,31,127,480
2,33,127,6
2,28,127,22
2,34,127,12
2,36,127,8
2,24,127,0
2,36,127,288
2,24,127,16
2,31,127,18
2,38,127,0
2,43,127,14
2,38,127,0
2,26,127,0
2,38,127,288
2,26,127,2
2,29,127,26
2,41,127,8
2,40,127,96
2,38,127,94
2,24,127,14
2,36,127,20
2,24,127,0
2,31,127,22
2,38,127,10
2,43,127,18
2,38,127,60
2,34,127,58
2,34,127,118
2,29,127,192
2,34,127,12
2,36,127,96
2,34,127,90
2,34,127,78
2,24,127,22
2,36,127,288
2,24,127,16
2,31,127,18
2,38,127,0
2,43,127,14
2,38,127,0
2,26,127,0
2,38,127,288
2,26,127,2
2,29,127,26
2,41,127,8
2,40,127,96
2,38,127,94
2,24,127,14
2,36,127,20
2,24,127,0
2,31,127,22
2,38,127,10
2,43,127,18
2,38,127,60
2,34,127,58
2,34,127,118
2,29,127,0
2,33,127,96
2,34,127,82
2,33,127,0
2,45,127,480
2,40,127,4
2,33,127,96
2,28,127,8
2,40,127,0
2,28,127,0
2,31,127,18
2,43,127,480
2,38,127,14
2,31,127,96
2,26,127,88
2,38,127,280
2,26,127,30
2,33,127,2
2,45,127,0
2,40,127,2
2,33,127,12
2,28,127,96
2,40,127,280
2,29,127,46
2,34,127,6
2,41,127,0
2,34,127,96
2,46,127,96
2,34,127,14
2,33,127,0
2,45,127,480
2,40,127,4
2,33,127,96
2,28,127,8
2,40,127,0
2,28,127,0
2,31,127,18
2,43,127,480
2,38,127,14
2,31,127,96
2,26,127,88
2,38,127,280
2,26,127,30
2,33,127,2
2,45,127,0
2,40,127,2
2,33,127,12
2,28,127,96
2,40,127,280
2,29,127,46
2,34,127,6
2,29,120,0
2,34,127,6
2,34,112,58
2,34,127,54
2,26,127,0
2,38,127,480
2,26,127,10
2,33,127,576
2,31,127,372
2,38,127,450
2,43,127,0
2,31,127,0
2,28,127,6
2,29,127,384
2,29,127,86
2,29,127,62
2,33,127,12
2,31,127,384
2,31,127,70
2,31,127,114
2,31,127,70
2,29,127,96
2,31,127,88
2,33,127,2
2,36,127,96
2,26,120,0
2,38,127,576
2,33,127,576
2,26,127,10
2,31,127,96
2,31,127,0
2,28,127,288
2,29,127,4
2,29,127,20
2,29,127,24
2,36,120,864
2,41,94,10
2,33,120,12318
2,45,127,0
2,40,127,192
2,28,127,90
2,28,127,44
2,35,127,96
2,40,127,64
2,35,127,6
2,31,127,26
2,43,127,16
2,38,127,8
2,26,127,96
2,26,127,78
2,28,127,0
2,26,127,8
2,29,127,2
2,26,127,6
2,31,127,8
2,26,127,8
2,33,127,22
2,45,127,14
2,40,127,72
2,28,127,36
2,40,127,288
2,28,127,34
2,28,127,70
2,40,127,96
2,28,127,32
2,34,127,68
2,46,127,4
2,41,127,26
2,34,127,26
2,41,127,24
2,34,127,46
2,34,127,64
2,46,127,10
2,41,127,12
2,34,127,0
2,33,127,42
2,45,127,192
2,45,127,46
2,40,127,6
2,28,127,4
2,40,127,288
2,28,127,68
2,35,127,90
2,40,127,22
2,35,127,14
2,28,127,14
2,31,127,96
2,43,127,272
2,38,127,10
2,26,127,24
2,35,127,24
2,36,127,96
2,37,127,88
2,38,127,10
2,33,127,58
2,47,127,2
