track,note,velocity,time
1,64,127,10368
1,64,127,24
1,64,127,36
1,64,127,32
1,64,127,40
1,64,127,32
1,55,127,4
1,60,127,52
1,62,127,12
1,64,127,24
1,64,127,36
1,64,127,48
1,64,127,16
1,64,127,36
1,64,127,28
1,64,127,64
1,64,127,40
1,55,127,12
1,60,127,40
1,62,127,12
1,64,127,16
1,64,127,56
1,64,127,44
1,64,127,40
1,64,127,32
1,64,127,56
1,57,127,0
1,60,127,8
1,62,127,16
1,64,127,12
1,64,127,400
1,64,127,32
1,64,127,16
1,64,127,20
1,64,127,200
1,62,127,4
1,64,127,76
1,62,127,4
1,60,127,8
1,64,127,1604
1,64,127,44
1,64,127,32
1,64,127,48
1,64,127,40
1,55,127,48
1,60,127,28
1,62,127,28
1,64,127,16
1,64,127,40
1,64,127,64
1,64,127,52
1,64,127,52
1,64,127,48
1,64,127,44
1,55,127,4
1,60,127,28
1,62,127,32
1,64,127,64
1,64,127,64
1,64,127,52
1,64,127,40
1,64,127,32
1,64,127,20
1,64,127,40
1,57,127,12
1,60,127,24
1,62,127,188
1,64,127,24
1,64,127,28
1,64,127,160
1,64,127,56
1,64,127,52
1,64,127,268
1,62,127,28
1,64,127,140
1,62,127,4
1,60,127,12
1,72,127,1796
1,74,127,28
1,74,127,40
1,74,127,436
1,72,127,92
1,74,127,32
1,76,127,36
1,79,127,4
1,74,127,1088
1,74,127,44
1,74,127,96
1,74,127,56
1,74,127,52
1,72,127,8
1,72,127,96
1,76,127,32
1,76,127,52
1,72,127,444
1,72,127,28
1,72,127,28
1,72,127,24
1,72,127,284
1,74,127,16
1,72,127,184
1,74,127,36
1,72,127,12
1,67,127,16
1,67,127,36
1,67,127,52
1,67,127,48
1,67,127,48
1,67,127,32
1,67,127,52
1,67,127,52
1,69,127,56
1,67,127,16
1,67,127,56
1,67,127,64
1,72,127,516
1,74,127,16
1,74,127,32
1,74,127,432
1,72,127,8
1,74,127,36
1,76,127,36
1,79,127,284
1,74,127,988
1,74,127,52
1,74,127,56
1,74,127,44
1,74,127,52
1,72,127,28
1,72,127,72
1,76,127,44
1,76,127,56
1,72,127,112
1,72,127,32
1,72,127,56
1,72,127,52
1,72,127,64
1,72,127,32
1,74,127,68
1,72,127,4
1,72,127,40
1,67,127,440
1,67,127,52
1,67,127,52
1,67,127,40
1,67,127,64
1,67,127,52
1,69,127,32
1,67,127,16
1,60,127,40
1,64,127,1436
1,64,127,24
1,64,127,44
1,64,127,20
1,64,127,8
1,55,127,80
1,60,127,48
1,62,127,36
1,64,127,20
1,64,127,40
1,64,127,56
1,64,127,52
1,64,127,48
1,64,127,36
1,55,127,0
1,58,119,12
1,60,127,132
1,62,127,36
1,64,127,28
1,69,127,136
1,69,127,28
1,69,127,44
1,69,127,28
1,72,127,8
1,74,127,304
1,72,127,20
1,69,127,100
1,69,127,52
1,67,127,20
1,67,127,20
1,67,127,36
1,67,127,44
1,69,127,36
1,67,127,24
1,60,127,32
1,72,127,1788
1,74,127,16
1,74,127,36
1,74,127,448
1,72,127,0
1,74,127,16
1,76,127,28
1,79,127,4
1,74,127,872
1,74,127,52
1,74,127,72
1,74,127,48
1,74,127,52
1,72,127,192
1,72,127,196
1,76,127,28
1,76,127,60
1,72,127,332
1,72,127,52
1,72,127,28
1,72,127,24
1,74,127,44
1,72,127,32
1,74,127,40
1,72,127,36
1,72,127,60
1,67,127,92
1,67,127,64
1,67,127,60
1,67,127,56
1,67,127,36
1,67,127,60
1,69,127,8
1,67,127,8
1,67,127,60
1,72,127,480
1,74,127,20
1,74,127,40
1,74,127,80
1,72,127,88
1,74,127,32
1,76,127,36
1,79,127,292
1,74,127,536
1,74,127,44
1,74,127,64
1,74,127,56
1,74,127,64
1,74,127,64
1,72,127,52
1,72,127,76
1,76,127,28
1,76,127,64
1,72,127,68
1,72,127,52
1,75,109,116
1,72,127,48
1,72,127,60
1,72,127,36
1,72,127,72
1,72,127,20
1,74,127,64
1,72,127,4
1,72,127,72
1,67,127,280
1,67,127,44
1,67,127,60
1,67,127,52
1,67,127,36
1,69,127,64
1,67,127,24
1,67,127,88
1,60,127,156
1,72,127,424
1,74,127,52
1,74,127,48
1,74,127,104
1,72,127,4
1,74,127,28
1,76,127,44
1,79,127,4
1,74,127,484
1,74,127,76
1,74,127,152
1,74,127,56
1,74,127,68
1,74,127,52
1,72,127,64
1,72,127,72
1,72,127,44
1,76,127,24
1,72,127,144
1,72,127,52
1,72,127,52
1,72,127,68
1,74,127,28
1,72,127,28
1,72,127,68
1,67,127,48
1,67,127,60
1,67,127,52
1,67,127,36
1,67,127,56
1,67,127,16
1,67,127,32
1,69,127,60
1,67,127,12
1,67,127,84
1,60,127,72
1,60,127,60
2,31,127,38400
2,43,127,44
2,31,127,16
2,31,127,72
2,43,127,16
2,31,127,44
2,31,127,72
2,36,127,28
2,48,127,380
2,36,127,64
2,36,127,60
2,48,127,4
2,36,127,12
2,36,127,68
2,31,127,84
2,43,127,8
2,31,127,72
2,31,127,64
2,43,127,8
2,31,127,0
2,31,127,60
2,33,127,96
2,36,127,0
2,48,127,16
2,36,127,40
2,36,127,68
2,36,127,56
2,36,127,64
2,48,127,12
2,36,127,192
2,29,127,100
2,41,127,36
2,29,127,32
2,29,127,60
2,41,127,4
2,41,127,60
2,29,127,8
2,29,127,52
2,36,127,40
2,48,127,16
2,48,127,52
2,36,127,192
2,36,127,68
2,36,127,64
2,44,127,0
2,48,127,12
2,36,127,8
2,36,127,64
2,31,127,12
2,31,127,44
2,43,127,12
2,31,127,288
2,31,127,56
2,43,127,288
2,31,127,12
2,33,127,192
2,36,127,20
2,48,127,284
2,48,127,52
2,36,127,12
2,36,127,56
2,48,127,12
2,48,127,60
2,36,127,192
2,33,127,24
2,31,127,12
2,43,127,284
2,43,127,72
2,31,127,12
2,31,127,60
2,43,127,288
2,43,127,44
2,31,127,40
2,36,127,8
2,48,127,284
2,48,127,40
2,36,127,32
2,36,127,64
2,48,127,0
2,48,127,52
2,36,127,32
2,31,127,20
2,43,127,116
2,31,127,8
2,31,127,52
2,43,127,288
2,31,127,164
2,33,127,0
2,36,127,16
2,48,127,28
2,48,127,68
2,36,127,192
2,36,127,64
2,36,127,48
2,36,127,40
2,48,127,96
2,36,127,156
2,29,127,12
2,41,127,48
2,41,127,68
2,29,127,288
2,29,127,60
2,41,127,192
2,41,127,68
2,41,127,72
2,29,127,96
2,29,127,12
2,36,127,100
2,48,127,280
2,48,127,52
2,44,127,0
2,36,127,176
2,36,127,64
2,36,127,60
2,36,127,48
2,48,127,28
2,36,127,40
2,31,127,0
2,43,127,4
2,43,127,72
2,31,127,0
2,31,127,60
2,31,127,52
2,31,127,56
2,43,127,0
2,31,127,4
2,33,127,12
2,36,127,20
2,48,127,4
2,48,127,52
2,36,127,288
2,36,127,64
2,48,127,4
2,48,127,48
2,36,127,72
2,48,127,572
2,50,127,72
2,48,127,36
2,36,127,28
2,48,127,24
2,36,127,4
2,36,127,72
2,48,127,188
2,48,127,148
2,36,127,96
2,43,127,76
2,45,127,12
2,36,127,0
2,36,127,36
2,48,127,96
2,36,127,184
2,36,127,60
2,36,127,20
2,36,127,28
2,48,127,96
2,43,127,180
2,45,127,4
2,36,127,12
2,48,127,284
2,48,127,72
2,36,127,288
2,36,127,60
2,48,127,192
2,48,127,76
2,36,127,192
2,48,127,72
2,36,127,88
2,36,127,56
2,48,127,284
2,48,127,56
2,36,127,192
2,36,127,68
2,36,127,48
2,36,127,56
2,48,127,0
2,36,127,96
2,43,127,8
2,45,127,20
2,29,127,4
2,29,127,60
2,41,127,96
2,29,127,184
2,29,127,72
2,29,127,64
2,41,127,288
2,29,127,180
2,36,127,80
2,38,127,64
2,29,127,92
2,41,127,100
2,29,127,0
2,29,127,68
2,29,127,68
2,41,127,4
2,29,127,192
2,36,127,48
2,38,127,12
2,31,127,16
2,43,127,8
2,43,127,76
2,31,127,288
2,31,127,52
2,43,127,288
2,31,127,184
2,38,127,76
2,40,127,12
2,36,127,12
2,36,127,52
2,48,127,96
2,36,127,180
2,36,127,32
2,48,127,192
2,36,127,56
2,48,127,96
2,36,127,84
2,43,127,12
2,45,127,12
2,36,127,4
2,36,127,60
2,48,127,96
2,36,127,0
2,36,127,84
2,36,127,60
2,48,127,4
2,48,127,72
2,36,127,192
2,43,127,0
2,45,127,20
2,31,127,24
2,43,127,100
2,43,127,52
2,31,127,288
2,31,127,64
2,43,127,192
2,43,127,84
2,31,127,192
2,38,127,4
2,40,127,16
2,36,127,16
2,48,127,16
2,48,127,64
2,36,127,16
2,36,127,72
2,36,127,68
2,48,127,0
2,48,127,76
2,36,127,192
2,43,127,52
2,45,127,8
2,31,127,4
2,43,127,284
2,43,127,64
2,31,127,192
2,31,127,68
2,43,127,192
2,43,127,64
2,43,127,72
2,31,127,8
2,33,127,96
2,36,127,80
2,36,127,20
2,36,127,80
2,48,127,8
2,36,127,8
2,36,127,68
2,48,127,96
2,36,127,172
2,43,127,84
2,45,127,8
2,48,127,0
2,36,127,96
2,29,127,36
2,41,127,40
2,41,127,64
2,29,127,20
2,29,127,76
2,41,127,192
2,29,127,0
2,41,127,96
2,36,127,180
2,38,127,72
2,36,127,0
2,48,127,52
2,48,127,68
2,48,127,68
2,36,127,12
2,36,127,60
2,48,127,288
2,43,127,0
2,45,127,96
2,48,127,0
2,31,127,12
2,43,127,60
2,43,127,68
2,31,127,8
2,31,127,72
2,43,127,8
2,31,127,192
2,38,127,80
2,40,127,12
2,36,127,4
2,48,127,12
2,48,127,56
2,36,127,16
2,36,127,68
2,36,127,60
2,36,127,48
2,36,127,60
2,48,127,96
2,36,127,72
2,36,127,48
2,31,127,4
2,43,127,64
2,43,127,68
2,31,127,12
2,31,127,68
2,31,127,60
2,43,127,192
2,31,127,8
2,31,127,52
2,36,127,12
2,48,127,4
2,48,127,64
2,48,127,56
2,36,127,192
2,36,127,56
2,48,127,20
2,48,127,76
2,36,127,192
2,43,127,4
2,31,127,0
2,43,127,76
2,43,127,64
2,31,127,24
2,31,127,68
2,43,127,8
2,31,127,192
2,33,127,20
2,36,127,4
2,48,127,4
2,48,127,56
2,48,127,52
2,36,127,192
2,36,127,64
2,48,127,288
2,36,127,180
2,36,127,64
2,29,127,4
2,41,127,284
2,41,127,76
2,41,127,60
2,29,127,32
2,29,127,68
2,41,127,4
2,29,127,16
2,36,127,96
2,38,127,0
2,36,127,8
2,48,127,44
2,48,127,68
2,36,127,288
2,36,127,64
2,36,127,56
2,36,127,92
2,48,127,20
2,36,127,96
2,36,127,84
2,31,127,20
2,43,127,24
2,43,127,72
2,31,127,288
2,31,127,56
2,31,127,88
2,38,127,0
2,40,127,96
2,43,127,88
2,40,127,92
2,36,127,20
2,36,127,64
2,48,127,16
2,36,127,8
2,36,127,60
2,48,127,288
2,36,127,184
2,36,127,56
2,31,127,100
2,43,127,8
2,31,127,4
2,43,127,64
2,31,127,12
2,31,127,64
2,43,127,8
2,31,127,192
2,38,127,76
2,40,127,20
2,36,127,0
2,48,127,28
2,48,127,68
2,36,127,4
2,36,127,64
2,48,127,4
2,36,127,188
2,43,127,84
2,45,127,72
2,31,127,96
2,43,127,36
2,43,127,60
2,31,127,8
2,31,127,68
2,31,127,0
2,43,127,80
2,31,127,4
2,33,127,96
2,36,127,92
2,36,127,52
2,36,127,52
2,48,127,96
2,36,127,284
2,36,127,52
2,48,127,96
2,36,127,188
2,48,127,64
2,36,127,80
2,36,127,68
2,29,127,0
2,41,127,12
2,41,127,52
2,29,127,288
2,29,127,60
2,29,127,68
2,36,127,96
2,38,127,88
2,41,127,80
2,36,127,4
2,48,127,60
2,48,127,64
2,48,127,52
2,36,127,192
2,36,127,64
2,48,127,4
2,36,127,192
2,43,127,12
2,31,127,100
2,31,127,76
2,43,127,96
2,31,127,272
2,31,127,52
2,31,127,60
2,31,127,44
2,43,127,4
2,31,127,96
2,33,127,4
2,36,127,12
2,48,127,68
2,48,127,68
2,48,127,52
2,36,127,192
2,36,127,64
2,48,127,12
2,36,127,192
2,43,127,80
2,45,127,56
2,36,127,84
2,48,127,28
2,48,127,64
2,36,127,288
2,36,127,64
2,36,127,56
2,48,127,8
2,48,127,68
2,36,127,96
2,36,127,92
2,48,127,284
2,48,127,64
2,36,127,288
2,36,127,68
2,36,127,56
2,48,127,192
2,36,127,184
2,43,127,76
2,45,127,8
2,36,127,12
2,48,127,56
2,48,127,72
2,36,127,28
2,36,127,60
2,36,127,68
2,31,127,288
2,33,127,76
2,36,127,16
3,48,112,4604
3,55,116,0
3,60,112,4
3,62,108,92
3,60,119,20
3,57,111,192
3,55,124,4
3,52,117,192
3,55,126,184
3,52,119,56
3,55,127,88
3,57,105,0
3,48,121,16
3,55,121,0
3,60,112,0
3,55,114,32
3,62,119,0
3,55,114,48
3,60,116,0
3,57,108,8
3,55,126,28
3,52,110,192
3,55,126,188
3,48,116,36
3,52,121,80
3,55,126,96
3,48,119,48
3,55,127,0
3,60,119,0
3,62,121,32
3,55,111,0
3,55,114,44
3,60,117,0
3,57,106,0
3,55,116,12
3,52,112,192
3,55,117,188
3,48,116,72
3,52,121,0
3,55,114,96
3,60,121,44
3,55,124,0
3,62,124,36
3,55,121,0
3,55,121,44
3,60,121,0
3,57,112,192
3,55,119,0
3,52,110,192
3,55,124,188
3,52,124,172
3,55,117,8
3,57,103,8
3,55,119,44
3,48,110,0
3,60,116,4
3,55,116,36
3,62,121,0
3,55,111,56
3,60,114,0
3,57,108,0
3,55,116,192
3,52,116,184
3,55,121,180
3,52,119,0
3,55,126,96
3,57,106,8
3,48,126,48
3,60,126,0
3,55,121,0
3,48,117,0
3,60,112,0
3,55,119,0
3,55,119,44
3,62,121,0
3,60,121,44
3,57,124,192
3,55,126,68
3,52,112,192
3,55,116,176
3,48,116,68
3,52,117,8
3,55,119,0
3,48,127,48
3,55,119,0
3,60,121,0
3,60,121,0
3,55,127,0
3,62,112,28
3,60,116,24
3,57,114,192
3,55,117,80
3,52,109,192
3,55,111,168
3,48,110,72
3,52,116,4
3,55,116,96
3,48,117,32
3,60,116,0
3,55,117,0
3,55,119,36
3,62,121,0
3,55,117,60
3,60,116,0
3,57,111,192
3,55,117,0
3,52,117,192
3,55,124,184
3,57,107,176
3,55,124,72
3,60,114,0
3,57,104,92
3,57,126,56
3,53,114,4
3,62,126,0
3,57,112,28
3,64,121,0
3,62,112,60
3,57,106,0
3,60,108,192
3,57,111,184
3,53,112,60
3,57,117,16
3,60,124,192
3,62,116,96
3,60,110,0
3,53,127,48
3,57,124,0
3,62,127,4
3,64,111,8
3,62,126,192
3,60,119,36
3,57,117,60
3,53,112,156
3,60,112,100
3,57,116,52
3,60,114,72
3,55,127,36
3,59,121,0
3,62,127,4
3,64,116,8
3,62,126,192
3,59,117,176
3,55,117,116
3,50,101,192
3,52,110,80
3,55,119,168
3,57,127,96
3,48,126,48
3,60,119,0
3,55,127,4
3,62,114,16
3,60,112,192
3,55,124,40
3,52,112,192
3,55,119,72
3,57,106,192
3,48,110,84
3,52,117,84
3,55,116,4
3,48,124,60
3,55,127,4
3,60,114,0
3,55,124,32
3,62,124,0
3,55,121,56
3,60,121,0
3,57,105,192
3,55,126,180
3,52,107,180
3,55,107,176
3,52,117,164
3,55,121,80
3,57,110,68
3,48,119,28
3,60,110,4
3,55,119,0
3,55,112,36
3,62,124,0
3,55,119,72
3,60,116,0
3,57,109,192
3,55,127,0
3,52,117,192
3,55,124,188
3,57,108,156
3,55,121,88
3,52,111,64
3,55,126,44
3,60,116,0
3,48,124,4
3,55,121,32
3,62,127,0
3,55,121,40
3,60,119,0
3,57,105,192
3,55,117,4
3,52,116,0
3,55,126,192
3,57,109,28
3,60,112,0
3,55,119,0
3,57,105,16
3,48,127,16
3,55,127,0
3,60,127,0
3,48,127,0
3,55,127,0
3,60,121,0
3,62,110,28
3,60,112,16
3,57,111,192
3,55,119,68
3,48,111,64
3,52,111,192
