track,note,velocity,time
2,43,96,790
2,43,84,140
2,43,84,268
2,43,95,310
2,43,101,304
2,43,78,70
2,43,94,36
2,43,85,86
2,43,83,64
2,43,88,36
2,43,93,228
2,43,88,70
2,43,88,28
2,45,97,218
2,45,90,198
2,45,97,96
2,45,90,198
2,45,84,96
2,45,88,68
2,40,104,84
2,38,88,22
2,38,86,76
2,43,88,92
2,43,91,60
2,43,86,202
2,43,90,22
2,43,96,84
2,38,98,68
2,43,88,22
2,43,99,60
2,36,90,262
2,36,92,214
2,43,88,54
2,48,88,22
2,48,90,70
2,38,91,278
2,40,79,0
2,43,80,86
2,47,83,98
2,50,74,92
2,38,96,240
2,38,84,188
2,38,88,28
2,38,82,84
2,50,92,22
2,38,87,218
2,38,92,192
2,43,100,20
2,43,96,84
2,43,95,32
2,38,76,54
2,43,94,22
2,43,93,86
2,45,77,20
2,47,86,4
2,48,103,44
2,48,88,70
2,48,94,38
2,43,96,58
2,43,103,214
2,42,91,4
2,40,81,12
2,38,101,48
2,38,94,182
2,38,85,32
2,38,65,76
2,43,103,52
2,43,100,188
2,38,70,26
2,43,88,192
2,45,98,192
2,38,61,106
2,38,103,44
2,38,76,32
2,38,90,42
2,38,88,44
2,40,87,42
2,38,85,32
2,43,103,14
2,43,96,84
2,43,101,32
2,38,76,54
2,43,94,22
2,43,93,86
2,45,77,20
2,47,86,4
2,48,100,44
2,48,88,70
2,48,94,38
2,43,96,58
2,43,103,214
2,42,91,4
2,40,81,12
2,38,101,48
2,38,94,182
2,38,85,32
2,38,45,76
2,43,101,52
2,43,95,188
2,38,70,26
2,43,88,192
2,45,88,192
2,38,88,70
2,38,90,132
2,38,90,134
2,43,88,42
2,40,85,100
2,38,94,70
2,35,77,52
2,43,84,12
2,43,95,308
2,43,101,304
2,43,78,70
2,43,94,36
2,43,85,86
2,43,83,64
2,43,88,36
2,43,93,228
2,43,88,70
2,43,88,28
2,45,97,218
2,45,90,198
2,45,97,96
2,45,90,198
2,45,84,96
2,45,88,68
2,40,104,84
2,38,88,22
2,38,86,76
2,43,88,92
2,43,91,60
2,43,86,202
2,43,90,22
2,43,96,84
2,38,98,68
2,43,88,22
2,43,99,60
2,36,90,262
2,36,92,214
2,43,88,54
2,48,88,22
2,48,90,70
2,38,91,270
2,40,71,4
2,40,86,16
2,43,67,58
2,47,69,12
2,50,77,80
2,50,91,70
2,38,96,262
2,38,84,188
2,38,88,28
2,38,82,84
2,50,92,22
2,38,87,218
2,38,92,192
2,43,100,20
2,43,96,84
2,43,95,32
2,38,76,54
2,43,94,22
2,43,93,86
2,45,77,20
2,47,86,4
2,48,103,44
2,48,88,70
2,48,94,38
2,43,96,58
2,43,103,214
2,42,91,4
2,40,81,12
2,38,101,48
2,38,94,182
2,38,85,32
2,38,65,76
2,43,103,52
2,43,100,188
2,38,70,26
2,43,88,192
2,45,98,192
2,38,61,106
2,38,103,44
2,38,76,32
2,38,90,42
2,38,88,44
2,40,87,42
2,38,85,32
2,43,103,14
2,43,96,84
2,43,101,32
2,38,76,54
2,43,94,22
2,43,93,86
2,45,77,20
2,47,86,4
2,48,100,44
2,48,88,70
2,48,94,38
2,43,96,58
2,43,103,214
2,42,91,4
2,40,81,12
2,38,101,48
2,38,94,182
2,38,85,32
2,38,45,76
2,43,101,52
2,43,95,188
2,38,70,26
2,43,88,192
2,45,88,192
2,38,88,70
2,38,90,132
2,38,90,134
2,43,88,42
2,40,85,100
2,38,94,70
2,35,77,52
2,43,100,12
2,43,96,84
2,43,95,32
2,38,76,54
2,43,94,22
2,43,93,86
2,45,77,20
2,47,86,4
2,48,103,44
2,48,88,70
2,48,94,38
2,43,96,58
2,43,103,214
2,42,91,4
2,40,81,12
2,38,101,48
2,38,94,182
2,38,85,32
2,38,65,76
2,43,103,52
2,43,100,188
2,38,70,26
2,43,88,192
2,45,98,192
2,38,61,106
2,38,103,44
2,38,76,32
2,38,90,42
2,38,88,44
2,40,87,42
2,38,85,32
2,43,103,14
2,43,96,84
2,43,101,32
2,38,76,54
2,43,94,22
2,43,93,86
2,45,77,20
2,47,86,4
2,48,100,44
2,48,88,70
2,48,94,38
2,43,96,58
2,43,103,214
2,42,91,4
2,40,81,12
2,38,101,48
2,38,94,182
2,38,85,32
2,38,45,76
2,43,101,52
2,43,95,188
2,38,70,26
2,43,88,192
2,45,88,192
2,38,88,70
2,38,90,132
2,38,90,134
2,43,88,42
2,40,85,100
2,38,94,70
2,35,77,52
2,43,100,12
2,43,96,84
2,43,95,32
2,38,76,54
2,43,94,22
2,43,93,86
2,45,77,20
2,47,86,4
2,48,103,44
2,48,88,70
2,48,94,38
2,43,96,58
2,43,103,54
2,42,91,4
2,40,81,12
2,38,101,48
2,38,94,182
2,38,85,32
2,38,65,76
2,43,103,52
2,43,100,188
2,38,70,26
2,43,88,192
2,45,98,54
2,38,61,54
2,38,103,44
2,38,76,32
2,38,90,42
2,38,88,44
2,40,87,42
2,38,85,32
3,74,112,2
3,74,107,72
3,76,114,42
3,79,117,22
3,81,112,206
3,74,87,6
3,79,94,38
3,83,122,60
3,74,110,34
3,74,98,52
3,76,110,386
3,79,112,368
3,81,107,170
3,74,70,16
3,79,70,68
3,83,127,48
3,79,117,24
3,79,107,16
3,79,113,20
3,79,102,14
3,79,109,22
3,79,98,10
3,79,100,26
3,79,96,14
3,79,108,22
3,79,102,16
3,79,106,20
3,79,98,14
3,79,113,22
3,79,99,10
3,79,108,26
3,79,102,14
3,79,118,22
3,79,102,16
3,79,113,20
3,79,103,14
3,79,109,22
3,79,98,10
3,79,108,26
3,79,98,14
3,79,116,22
3,79,98,16
3,79,106,20
3,79,99,14
3,79,108,22
3,79,102,10
3,79,108,26
3,79,99,14
3,76,117,22
3,76,99,16
3,76,113,20
3,76,102,14
3,76,109,22
3,76,105,10
3,76,100,26
3,76,98,14
3,76,108,22
3,76,103,16
3,76,110,20
3,76,105,14
3,76,113,22
3,76,105,10
3,76,108,26
3,76,102,14
3,76,118,22
3,76,100,16
3,76,113,20
3,76,102,14
3,76,109,22
3,76,101,10
3,76,108,26
3,76,98,14
3,76,116,22
3,76,105,16
3,76,106,20
3,76,98,14
3,76,108,22
3,76,98,10
3,76,108,26
3,76,99,14
3,75,117,14
3,75,103,16
3,75,113,20
3,75,99,14
3,75,109,22
3,75,102,10
3,75,110,26
3,75,99,14
3,75,108,22
3,75,99,16
3,75,116,20
3,75,102,14
3,75,113,22
3,75,103,10
3,75,108,26
3,75,100,14
3,75,118,22
3,75,106,16
3,75,113,20
3,75,105,14
3,75,109,22
3,75,99,10
3,75,108,26
3,75,100,14
3,75,116,22
3,75,100,16
3,75,106,20
3,75,98,14
3,75,108,22
3,75,99,10
3,75,108,26
3,75,97,14
3,71,117,22
3,71,107,16
3,71,113,20
3,71,102,14
3,71,109,22
3,71,98,10
3,71,100,26
3,71,96,14
3,71,108,22
3,71,102,16
3,71,106,20
3,71,98,14
3,71,113,22
3,71,99,10
3,71,108,26
3,71,102,14
3,71,118,22
3,71,102,16
3,71,113,20
3,71,103,14
3,71,109,22
3,71,98,10
3,71,108,26
3,71,98,14
3,71,116,22
3,71,98,16
3,71,106,20
3,71,99,14
3,71,108,22
3,71,102,10
3,71,108,26
3,71,99,14
3,71,117,22
3,71,107,16
3,71,113,20
3,71,102,14
3,71,109,22
3,71,98,10
3,71,100,26
3,71,96,14
3,71,108,22
3,71,102,16
3,71,106,20
3,71,98,14
3,71,113,22
3,71,99,10
3,71,108,26
3,71,102,14
3,71,118,22
3,71,102,16
3,71,113,20
3,71,103,14
3,71,109,22
3,71,98,10
3,71,108,26
3,71,98,14
3,71,116,22
3,71,98,16
3,71,106,20
3,71,99,14
3,71,108,22
3,71,102,10
3,71,108,26
3,71,99,14
3,69,117,22
3,69,107,16
3,69,113,20
3,69,102,14
3,69,109,22
3,69,98,10
3,69,100,26
3,69,96,14
3,69,108,22
3,69,102,16
3,69,106,20
3,69,98,14
3,69,113,22
3,69,99,10
3,69,108,26
3,69,102,14
3,69,118,22
3,69,102,16
3,69,113,20
3,69,103,14
3,69,109,22
3,69,98,10
3,69,108,26
3,69,98,14
3,69,116,22
3,69,98,16
3,69,106,20
3,69,99,14
3,69,108,22
3,69,102,10
3,69,108,26
3,69,99,14
3,69,117,22
3,69,107,16
3,69,113,20
3,69,102,14
3,69,109,22
3,69,98,10
3,69,100,26
3,69,96,14
3,69,108,22
3,69,102,16
3,69,106,20
3,69,98,14
3,69,113,22
3,69,99,10
3,69,108,0
3,69,102,14
3,69,118,22
3,69,102,16
3,69,113,20
3,69,103,14
3,69,109,22
3,69,98,10
3,69,108,26
3,69,98,14
3,69,116,22
3,69,98,12
3,69,106,20
3,69,99,14
3,69,108,22
3,69,102,10
3,69,108,26
3,69,99,14
3,74,110,24610
3,74,98,52
3,76,110,386
3,79,112,368
3,81,107,170
3,74,70,16
3,79,70,68
3,83,127,48
3,79,117,24
3,79,107,16
3,79,113,20
3,79,102,14
3,79,109,22
3,79,98,10
3,79,100,26
3,79,96,14
3,79,108,22
3,79,102,16
3,79,106,20
3,79,98,14
3,79,113,22
3,79,99,10
3,79,108,26
3,79,102,14
3,79,118,22
3,79,102,16
3,79,113,20
3,79,103,14
3,79,109,22
3,79,98,10
3,79,108,26
3,79,98,14
3,79,116,22
3,79,98,16
3,79,106,20
3,79,99,14
3,79,108,22
3,79,102,10
3,79,108,26
3,79,99,14
3,76,117,22
3,76,99,16
3,76,113,20
3,76,102,14
3,76,109,22
3,76,105,10
3,76,100,26
3,76,98,14
3,76,108,22
3,76,103,16
3,76,110,20
3,76,105,14
3,76,113,22
3,76,105,10
3,76,108,26
3,76,102,14
3,76,118,22
3,76,100,16
3,76,113,20
3,76,102,14
3,76,109,22
3,76,101,10
3,76,108,26
3,76,98,14
3,76,116,22
3,76,105,16
3,76,106,20
3,76,98,14
3,76,108,22
3,76,98,10
3,76,108,26
3,76,99,14
3,75,117,14
3,75,103,16
3,75,113,20
3,75,99,14
3,75,109,22
3,75,102,10
3,75,110,26
3,75,99,14
3,75,108,22
3,75,99,16
3,75,116,20
3,75,102,14
3,75,113,22
3,75,103,10
3,75,108,26
3,75,100,14
3,75,118,22
3,75,106,16
3,75,113,20
3,75,105,14
3,75,109,22
3,75,99,10
3,75,108,26
3,75,100,14
3,75,116,22
3,75,100,16
3,75,106,20
3,75,98,14
3,75,108,22
3,75,99,10
3,75,108,26
3,75,97,14
3,71,117,22
3,71,107,16
3,71,113,20
3,71,102,14
3,71,109,22
3,71,98,10
3,71,100,26
3,71,96,14
3,71,108,22
3,71,102,16
3,71,106,20
3,71,98,14
3,71,113,22
3,71,99,10
3,71,108,26
3,71,102,14
3,71,118,22
3,71,102,16
3,71,113,20
3,71,103,14
3,71,109,22
3,71,98,10
3,71,108,26
3,71,98,14
3,71,116,22
3,71,98,16
3,71,106,20
3,71,99,14
3,71,108,22
3,71,102,10
3,71,108,26
3,71,99,14
3,71,117,22
3,71,107,16
3,71,113,20
3,71,102,14
3,71,109,22
3,71,98,10
3,71,100,26
3,71,96,14
3,71,108,22
3,71,102,16
3,71,106,20
3,71,98,14
3,71,113,22
3,71,99,10
3,71,108,26
3,71,102,14
3,71,118,22
3,71,102,16
3,71,113,20
3,71,103,14
3,71,109,22
3,71,98,10
3,71,108,26
3,71,98,14
3,71,116,22
3,71,98,16
3,71,106,20
3,71,99,14
3,71,108,22
3,71,102,10
3,71,108,26
3,71,99,14
3,69,117,22
3,69,107,16
3,69,113,20
3,69,102,14
3,69,109,22
3,69,98,10
3,69,100,26
3,69,96,14
3,69,108,22
3,69,102,16
3,69,106,20
3,69,98,14
3,69,113,22
3,69,99,10
3,69,108,26
3,69,102,14
3,69,118,22
3,69,102,16
3,69,113,20
3,69,103,14
3,69,109,22
3,69,98,10
3,69,108,26
3,69,98,14
3,69,116,22
3,69,98,16
3,69,106,20
3,69,99,14
3,69,108,22
3,69,102,10
3,69,108,26
3,69,99,14
3,69,117,22
3,69,113,2
3,69,107,16
3,69,102,14
3,69,109,110
3,69,98,10
3,69,100,26
3,69,96,14
3,69,108,22
3,69,102,16
3,69,106,20
3,69,98,14
3,69,113,22
3,69,99,10
3,69,108,26
3,69,102,14
3,69,118,22
3,69,102,16
3,69,113,20
3,69,103,14
3,69,109,22
3,69,98,10
3,69,108,26
3,69,98,14
3,69,116,22
3,69,98,16
3,69,106,20
3,69,99,14
3,69,108,22
3,69,102,10
3,69,108,26
3,69,99,14
4,62,106,6394
4,62,93,60
4,62,92,102
4,62,92,86
4,71,109,54
4,69,87,8
4,69,97,74
4,67,88,8
4,66,103,80
4,67,106,44
4,66,110,8
4,64,101,8
4,64,97,76
4,62,97,8
4,64,101,8
4,62,110,8
4,60,97,8
4,64,87,8
4,64,103,344
4,64,108,74
4,72,96,32
4,71,99,8
4,71,110,74
4,69,97,8
4,69,93,64
4,67,101,106
4,67,111,76
4,66,90,8
4,69,101,8
4,66,97,8
4,64,106,10
4,62,99,24
4,62,95,64
4,62,103,470
4,62,113,96
4,74,122,8
4,72,114,8
4,72,127,96
4,71,108,8
4,72,106,8
4,71,116,8
4,62,117,390
4,64,116,26
4,76,124,8
4,74,110,8
4,74,127,66
4,72,101,8
4,72,101,68
4,71,117,8
4,69,117,8
4,62,107,22
4,71,109,8
4,71,103,54
4,59,115,1132
4,60,117,16
4,69,112,8
4,69,109,64
4,62,118,1536
4,62,103,52
4,62,101,68
4,64,103,8
4,67,108,8
4,71,106,8
4,72,116,502
4,72,108,54
4,72,104,62
4,67,101,8
4,64,99,14
4,62,94,8
4,69,106,646
4,69,99,66
4,69,103,66
4,67,104,8
4,66,119,8
4,64,102,8
4,62,101,12
4,62,99,54
4,69,112,314
4,69,106,74
4,69,101,70
4,64,120,8
4,67,112,8
4,66,120,8
4,62,113,838
4,62,113,8
4,62,106,64
4,62,105,96
4,64,104,8
4,67,105,8
4,71,103,8
4,72,116,358
4,72,115,76
4,72,112,74
4,67,90,8
4,64,101,30
4,62,102,8
4,69,115,572
4,69,107,84
4,69,108,80
4,67,93,8
4,66,106,8
4,64,103,8
4,62,95,8
4,62,90,62
4,72,118,288
4,72,100,52
4,71,95,8
4,66,96,8
4,69,96,8
4,67,104,8
4,62,110,3310
4,62,120,96
4,71,107,8
4,71,109,68
4,69,111,8
4,69,115,68
4,67,88,8
4,67,92,66
4,67,127,198
4,66,105,8
4,66,99,64
4,64,101,8
4,64,99,82
4,62,106,340
4,62,102,86
4,60,92,8
4,64,99,10
4,64,96,254
4,64,111,90
4,72,111,8
4,72,105,86
4,71,97,8
4,71,105,66
4,69,91,8
4,69,91,62
4,67,101,8
4,67,99,64
4,66,108,8
4,66,92,68
4,69,106,8
4,66,114,8
4,64,105,12
4,62,94,8
4,62,93,84
4,62,124,224
4,62,118,88
4,74,127,8
4,74,117,54
4,72,122,8
4,72,127,62
4,71,94,8
4,71,95,62
4,64,127,394
4,76,121,8
4,74,120,8
4,74,124,82
4,72,100,8
4,72,106,70
4,71,125,8
4,69,125,8
4,62,114,32
4,71,117,8
4,71,109,60
4,60,126,976
4,69,110,8
4,69,117,60
4,71,127,8
4,69,126,8
4,67,120,8
4,69,113,8
4,62,127,108
4,62,127,8
4,62,110,58
4,62,124,90
4,64,96,8
4,67,121,8
4,71,111,8
4,72,126,326
4,72,110,84
4,72,113,66
4,67,118,8
4,64,103,8
4,62,101,8
4,69,103,130
4,69,110,78
4,69,106,76
4,67,109,8
4,66,122,8
4,64,110,8
4,62,93,8
4,62,100,56
4,69,127,202
4,69,127,70
4,69,121,82
4,64,115,8
4,67,112,8
4,66,120,8
4,62,120,902
4,62,107,80
4,62,103,78
4,64,107,8
4,67,109,8
4,71,113,8
4,72,125,486
4,72,111,60
4,72,105,74
4,67,103,8
4,64,99,8
4,62,104,8
4,69,113,506
4,69,115,144
4,69,114,86
4,67,109,8
4,66,113,8
4,64,109,8
4,62,97,8
4,62,99,58
