track,note,velocity,time
1,53,127,0
1,53,127,40
1,53,127,44
1,53,127,116
1,53,127,36
1,57,121,36
1,57,127,84
1,57,127,24
1,57,127,44
1,57,127,44
1,57,127,76
1,57,127,68
1,55,127,80
1,55,127,76
1,58,123,44
1,58,127,1418
1,58,127,42
1,58,127,44
1,58,127,60
1,58,127,64
1,58,122,46
1,58,107,68
1,58,117,52
1,58,127,46
1,58,127,92
1,60,119,44
1,58,122,88
1,57,125,40
1,57,125,188
1,53,127,1700
1,53,124,32
1,53,122,44
1,53,114,68
1,53,117,44
1,57,125,32
1,57,127,50
1,57,127,84
1,58,127,10
1,57,127,72
1,55,127,24
1,58,125,56
1,58,122,1504
1,58,122,32
1,58,126,54
1,58,127,50
1,58,115,48
1,58,114,62
1,58,95,56
1,58,127,156
1,58,127,76
1,60,115,120
1,58,126,100
1,57,119,40
1,57,118,108
1,57,119,856
1,57,127,122
1,55,125,68
1,69,127,1850
1,69,127,128
1,70,127,24
1,72,127,36
1,69,127,68
1,69,127,130
1,70,127,76
1,72,127,92
1,70,127,112
1,67,127,16
1,70,127,8
1,70,127,1454
1,70,127,154
1,72,127,24
1,74,127,28
1,70,127,8
1,70,127,128
1,72,127,16
1,74,127,28
1,72,127,104
1,69,127,16
1,72,127,16
1,69,127,1960
1,69,127,68
1,70,127,16
1,72,127,28
1,69,127,8
1,69,127,152
1,70,127,12
1,72,127,32
1,70,127,84
1,67,127,8
1,70,127,16
1,70,127,1462
1,70,127,92
1,72,127,16
1,74,127,8
1,70,127,2
1,70,127,122
1,72,127,6
1,74,127,12
1,72,127,64
1,69,127,8
1,72,127,8
1,69,127,1484
1,69,127,146
1,70,127,32
1,72,127,32
1,69,127,4
1,69,127,108
1,70,127,52
1,72,127,80
1,70,127,92
1,67,127,4
1,70,127,44
1,74,127,736
1,74,127,78
1,74,127,110
1,76,127,8
1,77,127,8
1,74,127,60
1,74,127,88
1,76,127,20
1,77,127,0
1,72,127,84
1,69,127,8
1,72,127,52
1,69,127,404
1,69,127,120
1,67,120,4
1,53,127,2940
1,53,127,40
1,53,127,44
1,53,127,116
1,53,127,36
1,57,121,36
1,57,127,84
1,57,127,24
1,57,127,44
1,57,127,44
1,57,127,78
1,57,127,68
1,55,127,80
1,55,127,76
1,58,123,44
1,58,127,1416
1,58,127,42
1,58,127,44
1,58,127,60
1,58,127,64
1,58,122,46
1,58,107,68
1,58,117,52
1,58,127,46
1,58,127,92
1,60,119,44
1,58,122,88
1,57,125,40
1,57,125,188
1,53,127,1700
1,53,124,34
1,53,122,48
1,53,114,68
1,53,117,44
1,57,125,34
1,57,127,50
1,57,127,84
1,58,127,8
1,57,127,72
1,55,127,24
1,58,125,58
1,58,122,1504
1,58,122,34
1,58,126,52
1,58,127,48
1,58,115,48
1,58,114,60
1,58,95,58
1,58,127,156
1,58,127,78
1,60,115,120
1,58,126,100
1,57,119,42
1,57,118,108
1,57,119,856
1,57,127,122
1,55,125,68
1,69,127,1852
1,69,127,128
1,70,127,24
1,72,127,36
1,69,127,70
1,69,127,130
1,70,127,76
1,72,127,92
1,70,127,114
1,67,127,16
1,70,127,8
1,70,127,1454
1,70,127,154
1,72,127,24
1,74,127,30
1,70,127,10
1,70,127,128
1,72,127,16
1,74,127,28
1,72,127,104
1,69,127,16
1,72,127,18
1,69,127,1960
1,69,127,68
1,70,127,16
1,72,127,28
1,69,127,8
1,69,127,152
1,70,127,14
1,72,127,34
1,70,127,84
1,67,127,8
1,70,127,16
1,70,127,1462
1,70,127,92
1,72,127,16
1,74,127,8
1,70,127,2
1,70,127,120
1,72,127,6
1,74,127,12
1,72,127,64
1,69,127,10
1,72,127,8
1,69,127,1484
1,69,127,146
1,70,127,32
1,72,127,32
1,69,127,4
1,69,127,108
1,70,127,52
1,72,127,80
1,70,127,92
1,67,127,6
1,70,127,46
1,74,127,736
1,74,127,78
1,74,127,110
1,76,127,8
1,77,127,8
1,74,127,62
1,74,127,88
1,76,127,20
1,77,127,0
1,72,127,84
1,69,127,8
1,72,127,52
1,69,127,976
1,69,127,116
1,70,127,16
1,72,127,16
1,69,127,20
1,69,127,100
1,70,127,4
1,72,127,24
1,70,127,76
1,67,127,16
1,70,127,16
1,74,127,696
1,74,127,120
1,74,127,86
1,76,127,2
1,77,127,166
1,74,127,16
1,74,127,76
1,76,127,184
1,77,127,8
1,72,127,24
1,69,127,2
1,72,127,38
1,69,127,2200
1,69,127,172
1,70,127,28
1,72,127,180
1,69,127,28
1,69,127,136
1,70,127,8
1,72,127,32
1,70,127,52
1,67,127,8
1,70,127,216
1,74,127,1088
1,74,127,92
1,74,127,128
1,76,127,16
1,77,127,10
1,74,127,24
1,74,127,100
1,76,127,16
1,77,127,16
1,72,127,44
1,69,127,8
1,72,127,26
1,69,127,1848
1,69,127,136
1,70,127,18
1,72,127,18
1,69,127,188
1,69,127,188
1,70,127,24
1,72,127,16
1,70,127,24
1,67,127,6
1,70,127,200
1,74,127,304
1,74,127,50
1,74,127,120
1,76,127,4
1,77,127,10
1,74,127,16
1,74,127,128
1,76,127,16
1,77,127,18
1,72,127,92
1,69,127,10
1,72,127,36
2,29,127,13828
2,31,127,90
2,34,127,26
2,29,127,82
2,29,127,242
2,31,127,6
2,34,127,3072
2,29,127,3070
2,29,127,162
2,31,127,18
2,34,127,3072
2,29,127,40
2,36,127,2
2,29,127,480
2,29,127,158
2,29,127,118
2,41,127,574
2,41,127,40
2,29,127,2
2,29,127,144
2,29,127,130
2,41,127,574
2,41,127,36
2,31,127,22
2,31,127,144
2,31,127,102
2,43,127,16
2,43,127,48
2,31,127,26
2,31,127,160
2,31,127,114
2,43,127,574
2,43,127,48
2,34,127,54
2,34,127,172
2,34,127,106
2,46,127,574
2,46,127,42
2,34,127,26
2,34,127,174
2,34,127,44
2,34,127,42
2,34,127,40
2,46,127,26
2,46,127,40
2,29,127,34
2,29,127,168
2,29,127,32
2,29,127,30
2,41,127,0
2,41,127,32
2,29,127,2
2,29,127,152
2,29,127,86
2,41,127,384
2,41,127,4
2,29,127,0
2,41,127,96
2,29,127,14
2,29,127,140
2,29,127,28
2,29,127,42
2,41,127,574
2,41,127,40
2,29,127,24
2,29,127,168
2,29,127,114
2,41,127,384
2,41,127,32
2,29,127,84
2,31,127,186
2,31,127,172
2,31,127,82
2,43,127,574
2,43,127,48
2,31,127,28
2,31,127,120
2,31,127,48
2,31,127,38
2,31,127,40
2,43,127,480
2,43,127,42
2,34,127,26
2,34,127,152
2,34,127,120
2,46,127,4
2,46,127,48
2,34,127,14
2,34,127,184
2,34,127,106
2,46,127,382
2,46,127,48
2,34,127,96
2,46,127,8
2,29,127,98
2,29,127,144
2,29,127,94
2,29,127,40
2,41,127,480
2,41,127,40
2,29,127,30
2,29,127,132
2,29,127,106
2,29,127,28
2,41,127,96
2,29,127,260
2,41,127,20
2,29,127,194
2,29,127,156
2,29,127,92
2,41,127,574
2,41,127,36
2,29,127,98
2,29,127,144
2,29,127,40
2,29,127,38
2,29,127,16
2,41,127,480
2,41,127,32
2,31,127,14
2,31,127,176
2,31,127,98
2,43,127,574
2,43,127,40
2,31,127,16
2,31,127,160
2,31,127,40
2,31,127,40
2,31,127,40
2,43,127,290
2,43,127,20
2,31,127,22
2,43,127,96
2,34,127,14
2,34,127,156
2,34,127,146
2,46,127,14
2,46,127,60
2,34,127,26
2,34,127,102
2,34,127,54
2,34,127,58
2,34,127,44
2,46,127,96
2,46,127,60
2,34,127,26
2,46,127,190
2,46,127,20
2,29,127,26
2,29,127,148
2,29,127,138
2,41,127,574
2,41,127,44
2,29,127,18
2,29,127,106
2,29,127,112
2,29,127,40
2,29,127,32
2,41,127,384
2,41,127,48
2,36,127,16
2,36,127,124
2,36,127,134
2,36,127,140
2,29,127,1374
2,31,127,8
2,34,127,3072
2,29,127,3070
2,29,127,162
2,31,127,18
2,34,127,3072
2,29,127,38
2,36,127,2
2,29,127,478
2,29,127,156
2,29,127,118
2,41,127,574
2,41,127,42
2,29,127,2
2,29,127,144
2,29,127,130
2,41,127,574
2,41,127,36
2,31,127,22
2,31,127,144
2,31,127,102
2,43,127,16
2,43,127,48
2,31,127,26
2,31,127,160
2,31,127,114
2,43,127,574
2,43,127,48
2,34,127,54
2,34,127,172
2,34,127,106
2,46,127,574
2,46,127,40
2,34,127,28
2,34,127,174
2,34,127,44
2,34,127,44
2,34,127,40
2,46,127,24
2,46,127,40
2,29,127,34
2,29,127,168
2,29,127,32
2,29,127,30
2,41,127,0
2,41,127,32
2,29,127,2
2,29,127,152
2,29,127,86
2,41,127,384
2,41,127,4
2,29,127,2
2,41,127,94
2,29,127,14
2,29,127,142
2,29,127,28
2,29,127,44
2,41,127,574
2,41,127,40
2,29,127,22
2,29,127,168
2,29,127,114
2,41,127,384
2,41,127,32
2,29,127,84
2,31,127,186
2,31,127,172
2,31,127,80
2,43,127,576
2,43,127,48
2,31,127,26
2,31,127,120
2,31,127,48
2,31,127,40
2,31,127,40
2,43,127,480
2,43,127,42
2,34,127,28
2,34,127,152
2,34,127,122
2,46,127,4
2,46,127,48
2,34,127,14
2,34,127,184
2,34,127,104
2,46,127,386
2,46,127,48
2,34,127,96
2,46,127,8
2,29,127,98
2,29,127,144
2,29,127,96
2,29,127,40
2,41,127,480
2,41,127,40
2,29,127,30
2,29,127,132
2,29,127,106
2,29,127,28
2,41,127,96
2,29,127,260
2,41,127,20
2,29,127,194
2,29,127,156
2,29,127,90
2,41,127,574
2,41,127,36
2,29,127,98
2,29,127,144
2,29,127,40
2,29,127,40
2,29,127,16
2,41,127,480
2,41,127,32
2,31,127,14
2,31,127,176
2,31,127,98
2,43,127,574
2,43,127,40
2,31,127,14
2,31,127,160
2,31,127,42
2,31,127,38
2,31,127,40
2,43,127,290
2,43,127,20
2,31,127,22
2,43,127,94
2,34,127,14
2,34,127,158
2,34,127,146
2,46,127,12
2,46,127,60
2,34,127,26
2,34,127,100
2,34,127,54
2,34,127,58
2,34,127,46
2,46,127,96
2,46,127,60
2,34,127,28
2,46,127,190
2,46,127,20
2,29,127,26
2,29,127,148
2,29,127,138
2,41,127,574
2,41,127,44
2,29,127,18
2,29,127,176
2,29,127,98
2,29,127,40
2,41,127,96
2,29,127,372
2,41,127,76
2,29,127,6
2,29,127,156
2,29,127,40
2,29,127,50
2,41,127,574
2,41,127,40
2,29,127,14
2,29,127,144
2,29,127,86
2,41,127,574
2,41,127,48
2,31,127,12
2,31,127,148
2,31,127,114
2,43,127,72
2,43,127,48
2,31,127,18
2,31,127,148
2,31,127,106
2,31,127,40
2,43,127,290
2,43,127,48
2,31,127,96
2,43,127,84
2,34,127,74
2,34,127,166
2,34,127,94
2,46,127,0
2,46,127,40
2,34,127,2
2,34,127,150
2,34,127,114
2,46,127,8
2,46,127,42
2,29,127,34
2,29,127,152
2,29,127,122
2,41,127,22
2,41,127,40
2,29,127,30
2,29,127,160
2,29,127,138
2,29,127,44
2,41,127,16
2,29,127,384
2,41,127,8
2,29,127,28
2,29,127,152
2,29,127,32
2,29,127,42
2,41,127,12
2,41,127,42
2,29,127,14
2,29,127,124
2,29,127,42
2,41,127,384
2,41,127,48
2,29,127,4
2,41,127,96
2,31,127,2
2,31,127,144
2,31,127,110
2,43,127,24
2,43,127,52
2,31,127,50
2,31,127,156
2,31,127,130
2,43,127,384
2,43,127,48
2,31,127,32
2,43,127,98
2,34,127,28
2,34,127,124
2,34,127,122
2,46,127,574
2,46,127,48
2,34,127,34
2,34,127,168
2,34,127,150
2,46,127,16
2,46,127,52
2,29,127,30
2,29,127,184
2,29,127,122
2,41,127,574
2,41,127,48
2,29,127,2
2,29,127,168
2,29,127,114
2,29,127,28
2,41,127,96
2,29,127,364
2,41,127,4
2,29,127,14
2,29,127,148
2,29,127,44
2,29,127,38
2,41,127,4
2,41,127,32
2,29,127,98
2,29,127,262
2,29,127,46
2,41,127,384
2,41,127,36
2,29,127,92
2,41,127,68
2,31,127,14
2,31,127,266
2,31,127,32
2,43,127,20
2,43,127,32
2,31,127,8
2,31,127,138
2,31,127,86
2,43,127,384
2,43,127,40
2,31,127,96
2,43,127,88
2,34,127,16
2,34,127,134
2,34,127,102
2,46,127,22
2,46,127,48
2,34,127,26
2,34,127,144
2,34,127,130
2,46,127,4
2,46,127,40
2,34,127,96
2,46,127,0
2,29,127,14
2,29,127,148
2,29,127,130
2,41,127,8
2,41,127,42
2,29,127,14
2,29,127,160
2,29,127,136
2,29,127,44
2,41,127,96
2,29,127,376
2,41,127,2
2,29,127,18
3,41,111,53764
3,41,78,22
3,41,78,38
3,41,83,38
3,41,106,46
3,41,70,44
3,41,71,38
3,41,78,52
3,41,98,30
3,41,73,36
3,41,73,38
3,41,78,52
3,41,94,38
3,41,70,36
3,41,69,38
3,41,72,46
3,41,88,30
3,41,69,36
3,41,66,32
3,41,86,52
3,41,90,34
3,41,72,36
3,41,68,38
3,41,75,44
3,41,92,30
3,41,73,16
3,41,66,32
3,41,72,48
3,41,93,24
3,41,74,24
3,41,81,46
3,41,76,44
3,43,93,38
3,43,78,36
3,43,73,36
3,43,71,44
3,43,101,26
3,43,72,36
3,43,68,38
3,43,73,44
3,43,93,30
3,43,73,28
3,43,72,28
3,43,75,36
3,43,98,38
3,43,70,36
3,43,73,24
3,43,73,54
3,43,91,50
3,43,75,44
3,43,75,36
3,43,72,64
3,43,108,38
3,43,71,44
3,43,75,46
3,43,77,52
3,43,90,34
3,43,72,46
3,43,69,44
3,43,89,64
3,43,90,46
3,43,82,48
3,43,86,38
3,43,81,46
3,46,100,32
3,46,82,48
3,46,77,44
3,46,83,44
3,46,102,38
3,46,78,44
3,46,75,50
3,46,72,44
3,46,96,38
3,46,79,32
3,46,73,42
3,46,72,44
3,46,97,34
3,46,69,44
3,46,66,46
3,46,89,60
3,46,100,40
3,46,73,30
3,46,72,48
3,46,77,56
3,46,102,46
3,46,75,36
3,46,74,46
3,46,74,52
3,46,97,38
3,46,70,36
3,46,69,56
3,46,92,52
3,46,90,36
3,46,81,44
3,46,81,48
3,46,95,54
3,41,103,48
3,41,78,22
3,41,73,28
3,41,73,36
3,41,94,30
3,41,72,36
3,41,77,38
3,41,76,44
3,41,92,30
3,41,74,40
3,41,73,36
3,41,73,36
3,41,91,30
3,41,74,36
3,41,76,28
3,41,74,32
3,41,94,30
3,41,76,40
3,41,72,36
3,41,76,36
3,41,94,38
3,41,75,32
3,41,82,32
3,41,73,48
3,41,103,38
3,41,78,38
3,41,74,38
3,41,103,44
3,41,89,30
3,41,72,44
3,41,71,46
3,41,82,58
3,41,103,34
3,41,75,24
3,41,71,36
3,41,74,36
3,41,90,30
3,41,73,24
3,41,74,38
3,41,70,26
3,41,90,26
3,41,75,20
3,41,73,24
3,41,74,44
3,41,93,26
3,41,74,36
3,41,73,36
3,41,77,36
3,41,92,40
3,41,76,36
3,41,72,42
3,41,75,38
3,41,92,28
3,41,70,32
3,41,82,38
3,41,75,44
3,41,99,38
3,41,78,24
3,41,82,36
3,41,78,36
3,41,106,42
3,41,82,38
3,41,82,44
3,41,79,38
3,43,94,42
3,43,82,26
3,43,82,38
3,43,77,36
3,43,98,44
3,43,72,36
3,43,77,34
3,43,75,44
3,43,96,38
3,43,74,36
3,43,78,36
3,43,78,40
3,43,93,38
3,43,78,36
3,43,78,40
3,43,73,44
3,43,106,34
3,43,76,48
3,43,75,36
3,43,72,42
3,43,92,38
3,43,72,36
3,43,79,28
3,43,84,46
3,43,96,26
3,43,77,32
3,43,77,28
3,43,79,48
3,43,98,32
3,43,78,36
3,43,86,38
3,43,82,34
3,46,97,38
3,46,83,24
3,46,80,44
3,46,79,36
3,46,94,38
3,46,79,32
3,46,90,46
3,46,84,44
3,46,94,46
3,46,77,24
3,46,79,48
3,46,77,38
3,46,96,40
3,46,81,32
3,46,84,46
3,46,80,58
3,46,100,50
3,46,83,28
3,46,83,44
3,46,80,36
3,46,97,50
3,46,77,44
3,46,86,46
3,46,75,36
3,46,97,56
