track,note,velocity,time
14,84,87,9476
14,82,84,258
14,80,72,142
14,75,90,43
14,73,87,137
14,72,63,28
14,84,81,753
14,82,65,238
14,80,68,145
14,75,68,39
14,73,68,132
14,72,77,30
14,75,90,721
14,73,66,224
14,72,77,12
14,70,47,25
14,68,87,11
14,80,101,27
14,77,105,13
14,72,105,506
14,73,105,21
14,74,81,0
14,75,84,7
14,68,90,66
14,71,93,38
14,72,63,0
14,68,72,30
14,84,93,981
14,82,101,136
14,80,87,50
14,75,68,39
14,73,65,70
14,72,87,39
14,84,87,749
14,82,87,267
14,80,97,29
14,75,84,64
14,73,63,81
14,72,84,32
14,75,101,679
14,73,84,275
14,72,77,32
14,70,72,33
14,68,110,29
14,80,101,43
14,77,105,21
14,72,97,445
14,73,101,79
14,74,90,34
14,75,110,27
14,68,79,47
14,71,84,56
14,72,101,107
14,68,101,44
14,82,127,2635
14,80,110,37
14,79,121,31
14,82,127,28
14,82,116,741
14,82,110,265
14,79,101,27
14,75,110,20
14,72,110,29
14,82,116,967
14,82,116,285
14,80,105,31
14,77,65,11
14,80,105,29
14,79,121,822
14,79,101,55
14,79,101,63
14,79,105,42
14,77,84,247
14,75,110,22
14,84,127,265
14,82,121,292
14,80,116,31
14,75,116,28
14,73,110,70
14,72,116,29
14,84,97,673
14,82,110,132
14,80,90,30
14,75,101,73
14,73,53,13
14,72,81,18
14,75,110,705
14,73,90,251
14,72,90,21
14,70,101,48
14,68,101,15
14,80,121,51
14,77,97,17
14,72,105,514
14,73,121,38
14,74,87,28
14,75,121,27
14,68,84,38
14,71,110,21
14,72,93,98
14,68,127,26
14,75,110,9653
14,73,79,260
14,72,79,26
14,70,87,21
14,68,90,22
14,80,101,19
14,77,105,11
14,80,121,338
14,80,105,70
14,77,90,18
14,80,105,29
14,80,101,65
14,80,105,83
14,77,97,5
14,82,127,43
14,80,116,33
14,75,121,6543
14,73,90,243
14,72,79,22
14,70,75,7
14,68,97,26
14,80,101,19
14,77,110,21
14,72,101,490
14,73,116,50
14,74,84,22
14,75,105,7
14,68,97,56
14,71,81,247
14,72,93,130
14,68,87,26
14,81,116,2629
14,82,121,9
14,80,121,19
14,79,105,19
14,82,127,27
14,82,121,1013
14,79,101,43
14,75,116,48
14,72,127,28
14,82,121,1047
14,82,105,266
14,80,101,25
14,77,105,16
14,80,121,21
14,79,127,819
14,79,116,46
14,79,110,45
14,79,105,50
14,77,116,60
14,75,127,248
14,84,127,299
14,82,121,280
14,80,97,40
14,75,105,59
14,73,101,152
14,72,105,31
14,84,97,727
14,82,90,46
14,80,84,43
14,75,72,40
14,73,62,61
14,72,93,15
14,75,121,758
14,73,105,235
14,72,87,33
14,70,75,13
14,68,97,16
14,80,97,16
14,77,116,17
14,80,116,458
14,80,105,49
14,80,116,169
14,77,97,57
14,80,105,156
14,77,97,16
14,82,127,21
14,80,127,11
15,40,110,4612
15,49,127,244
15,40,93,0
15,35,93,0
15,40,90,240
15,35,90,0
15,57,127,0
15,40,99,167
15,35,85,39
15,40,74,49
15,49,127,116
15,40,105,0
15,35,103,43
15,35,90,372
15,40,90,0
15,57,127,0
15,40,101,167
15,49,127,295
15,40,108,4
15,35,76,0
15,40,67,39
15,40,104,248
15,49,127,0
15,35,71,8
15,35,103,43
15,40,105,372
15,57,127,0
15,35,105,0
15,40,98,295
15,35,98,0
15,49,127,0
15,40,85,231
15,40,85,0
15,40,90,0
15,35,90,0
15,40,104,167
15,49,127,0
15,35,104,0
15,51,72,1831
15,40,72,0
15,35,64,0
15,51,69,423
15,40,69,0
15,35,60,0
15,40,48,224
15,40,57,0
15,51,65,0
15,40,65,0
15,35,57,0
15,51,72,183
15,40,72,0
15,35,65,0
15,35,64,1821
15,40,72,0
15,51,72,0
15,35,60,423
15,40,69,0
15,51,69,0
15,40,72,160
15,42,108,4
15,35,76,0
15,51,65,116
15,42,67,0
15,51,72,183
15,40,72,0
15,35,71,8
15,45,127,1049
15,35,105,0
15,40,93,124
15,35,112,244
15,49,127,4
15,44,108,508
15,51,80,4
15,51,80,248
15,51,64,120
15,40,58,248
15,44,99,116
15,51,80,4
15,35,85,244
15,57,127,0
15,44,108,504
15,51,80,4
15,51,80,248
15,35,64,120
15,51,64,0
15,44,99,372
15,51,80,4
15,51,76,244
15,35,126,124
15,40,126,0
15,49,127,244
15,35,127,0
15,40,127,0
15,49,127,0
15,35,98,0
15,40,98,0
15,40,85,32
15,40,85,0
15,35,90,0
15,40,90,0
15,35,104,64
15,49,127,0
15,40,104,0
15,35,75,256
15,40,85,0
15,51,85,0
15,35,72,423
15,40,85,0
15,51,85,0
15,40,65,224
15,40,74,0
15,35,70,0
15,40,79,0
15,51,79,0
15,35,79,183
15,40,85,0
15,51,85,0
15,51,85,1821
15,40,85,0
15,35,75,0
15,51,79,423
15,40,79,0
15,35,67,0
15,51,85,167
15,40,85,0
15,42,108,4
15,35,76,0
15,42,67,39
15,51,92,248
15,40,92,0
15,35,71,8
15,35,105,1059
15,45,127,0
15,40,93,124
15,35,112,244
15,49,127,4
15,44,108,508
15,51,80,4
15,51,80,248
15,51,64,120
15,40,58,248
15,44,99,116
15,40,99,0
15,51,80,4
15,57,127,240
15,35,85,4
15,44,108,504
15,51,80,4
15,51,80,248
15,51,64,120
15,35,64,0
15,44,99,372
15,51,80,4
15,51,76,244
15,40,126,124
15,35,126,0
15,40,127,244
15,35,127,0
15,49,127,0
15,35,98,500
15,40,105,0
15,51,105,0
15,40,85,231
15,40,85,0
15,40,90,0
15,35,90,0
15,51,90,0
15,35,104,167
15,51,104,0
15,43,104,0
15,40,126,47
15,40,99,240
15,35,85,0
15,49,127,0
15,40,111,103
15,35,96,0
15,49,127,0
15,40,111,64
15,35,96,0
15,49,127,0
15,45,109,39
15,43,96,36
15,41,114,7
15,40,105,0
15,35,88,0
15,49,127,0
15,40,111,167
15,49,127,0
15,51,85,39
15,51,74,208
15,49,127,32
15,40,114,0
15,35,99,0
15,51,95,304
15,57,127,176
15,35,96,0
15,40,99,0
15,40,127,308
15,44,108,120
15,40,32,0
15,51,80,4
15,40,38,128
15,57,127,105
15,35,88,0
15,40,123,3
15,40,92,183
15,35,76,4
15,44,99,120
15,51,80,4
15,49,127,244
15,40,96,0
15,35,71,4
15,40,96,368
15,51,80,128
15,40,22,108
15,40,57,128
15,51,80,4
15,40,121,116
15,51,64,4
15,40,127,248
15,51,80,120
15,40,57,0
15,40,40,120
15,49,127,116
15,40,96,0
15,35,71,4
15,40,111,368
15,40,105,39
15,44,108,4
15,51,80,4
15,51,80,175
15,40,105,112
15,35,85,0
15,51,64,8
15,40,111,167
15,35,89,0
15,49,127,0
15,40,121,295
15,35,98,0
15,49,127,0
15,51,80,8
15,51,80,72
15,51,64,8
15,40,96,64
15,44,108,4
15,35,76,0
15,40,90,0
15,51,80,0
15,49,127,68
15,35,71,4
15,40,96,64
15,51,105,0
15,40,22,44
15,40,57,68
15,51,84,0
15,40,121,4
15,40,127,72
15,49,127,0
15,40,90,0
15,35,90,0
15,40,104,64
15,49,127,0
15,35,104,0
15,49,127,1792
15,35,89,0
15,40,99,0
15,51,85,256
15,40,85,0
15,35,75,0
15,51,85,423
15,40,85,0
15,35,72,0
15,40,65,224
15,40,74,0
15,51,79,0
15,40,79,0
15,35,70,0
15,51,85,183
15,40,85,0
15,35,79,0
15,44,108,417
15,51,80,4
15,51,80,248
15,35,64,120
15,51,64,0
15,44,99,372
15,51,80,4
15,51,76,244
15,51,85,116
15,40,85,0
15,35,72,0
15,51,68,167
15,40,68,0
15,35,54,0
15,51,53,295
15,51,85,39
15,40,85,0
15,35,74,0
15,40,85,231
15,40,85,0
15,51,90,0
15,35,90,0
15,40,90,0
15,43,104,167
15,35,104,0
15,49,127,0
15,44,108,427
15,51,80,4
15,51,80,248
15,51,64,120
15,44,99,372
15,51,80,4
15,51,76,244
15,51,85,116
15,44,108,299
15,51,80,4
15,51,80,248
15,51,64,120
15,51,90,368
15,44,99,4
15,49,127,167
15,35,104,0
15,40,127,43
15,44,108,376
15,51,80,4
15,51,80,248
15,51,64,120
15,40,43,108
15,47,104,120
15,40,62,120
15,40,69,116
15,40,76,120
15,40,110,132
15,35,93,244
15,40,93,0
15,49,127,0
15,57,127,240
15,35,90,0
15,40,90,0
15,40,99,167
15,57,99,0
15,35,85,39
15,40,74,49
15,40,105,116
15,49,127,0
15,35,103,43
15,40,90,372
15,35,90,0
15,48,99,0
15,40,101,167
15,57,127,0
15,49,127,295
15,35,76,4
15,40,108,0
15,40,67,39
15,49,127,248
15,40,104,0
15,35,71,8
15,57,127,295
15,35,93,0
15,40,90,413
15,35,90,0
15,51,127,0
15,51,99,167
15,40,99,0
15,35,99,0
15,40,104,295
15,49,127,0
15,35,71,8
15,51,99,0
15,35,90,0
15,40,90,0
15,40,101,64
15,35,101,0
15,49,127,0
15,35,92,256
15,40,105,0
15,49,127,0
15,35,92,276
15,40,103,0
15,49,127,0
15,51,103,412
15,51,89,248
15,51,64,120
15,35,64,0
15,49,127,240
15,40,105,0
15,35,92,0
15,49,127,276
15,35,104,0
15,40,103,0
15,49,127,276
15,35,93,0
15,40,53,0
15,40,55,29
15,50,85,0
15,42,79,0
15,40,57,120
15,50,70,0
15,50,48,116
15,40,54,4
15,40,78,120
15,47,95,0
15,40,78,120
15,47,89,0
15,47,103,116
15,40,70,4
15,40,119,120
15,43,120,0
15,40,104,120
15,43,98,0
15,43,127,120
15,40,105,4
15,40,110,4
15,35,99,0
15,35,93,64
15,40,93,0
15,49,127,0
15,51,92,0
15,35,90,0
15,40,90,0
15,35,99,64
15,40,99,0
15,51,99,0
15,57,127,64
15,40,104,0
15,35,71,8
15,44,108,388
15,51,80,4
15,51,80,248
15,51,64,120
15,44,99,372
15,51,80,4
15,51,76,244
15,51,85,116
15,44,108,299
15,51,80,4
15,51,80,248
15,51,64,120
15,44,99,372
15,51,80,4
15,51,76,244
15,51,85,116
15,44,108,299
15,51,80,4
15,51,80,248
15,51,64,120
15,44,99,372
15,51,80,4
15,35,76,244
15,51,76,0
15,35,99,120
15,40,99,244
15,49,127,0
15,35,58,285
15,35,79,58
15,40,105,186
15,49,127,0
15,35,68,295
15,35,99,4
15,49,127,64
15,40,99,0
15,35,49,64
15,35,57,0
15,57,127,167
15,40,105,0
15,35,74,0
15,40,104,295
15,57,127,0
15,35,71,8
15,40,70,295
15,51,70,0
15,40,95,39
15,51,95,0
15,40,111,167
15,35,99,0
15,49,127,0
15,40,69,295
15,51,69,0
15,40,93,39
15,51,93,0
15,40,111,167
15,35,98,0
15,49,127,0
15,47,90,295
15,50,95,48
15,40,95,0
15,50,99,120
15,40,99,0
15,50,103,116
15,40,103,4
15,47,106,120
15,40,106,0
15,47,110,120
15,40,110,0
15,47,116,116
15,40,116,4
15,43,120,120
15,40,119,0
15,43,98,120
15,40,104,0
15,43,127,120
15,40,105,4
15,35,99,120
15,40,110,0
15,49,127,244
15,40,93,0
15,35,93,0
15,49,127,413
15,40,99,0
15,35,85,0
15,40,76,231
15,40,85,0
15,51,106,0
15,40,93,0
15,35,75,0
15,49,127,167
15,40,109,0
15,35,92,0
15,44,108,427
15,51,80,4
15,51,80,248
15,51,64,120
15,44,99,372
15,51,80,4
15,51,76,244
15,51,85,116
15,35,99,4
15,49,127,167
15,40,99,0
15,49,127,285
15,35,99,0
15,40,111,0
15,40,76,359
15,40,85,0
15,35,75,0
15,40,93,0
15,51,106,0
15,35,92,167
15,40,109,0
15,49,127,0
15,44,108,4
15,51,80,4
15,51,80,72
15,51,64,8
15,44,99,4
15,51,80,4
15,51,76,68
15,40,99,4
15,35,99,244
15,40,99,0
15,49,127,0
15,35,64,421
15,51,64,0
15,40,108,244
15,35,76,0
15,51,67,116
15,40,67,0
15,51,104,248
15,40,104,0
15,35,71,8
15,49,127,64
15,40,106,0
15,35,85,0
15,49,127,64
15,40,106,0
15,35,85,0
15,49,127,256
15,40,106,0
15,35,85,0
15,45,109,20
15,43,96,124
15,41,114,116
15,40,105,0
15,35,88,0
15,49,127,0
15,40,111,167
15,49,127,0
15,51,85,39
15,51,74,208
15,49,127,32
15,40,114,0
15,35,99,0
15,51,95,304
15,57,127,176
15,35,96,0
15,40,99,0
15,40,127,308
15,44,108,120
15,40,32,0
15,51,80,4
15,40,38,128
15,57,127,105
15,35,88,0
15,40,123,3
15,40,92,183
15,35,76,4
15,44,99,120
15,51,80,4
15,49,127,244
15,40,96,0
15,35,71,4
15,40,96,368
15,51,80,128
15,40,22,108
15,40,57,128
15,51,80,4
15,40,121,116
15,51,64,4
15,40,127,248
15,51,80,120
15,40,57,0
15,40,40,120
15,49,127,116
15,40,96,0
15,35,71,4
15,40,111,368
15,40,105,39
15,44,108,4
15,51,80,4
15,51,80,175
15,40,105,112
15,35,85,0
15,51,64,8
15,40,111,167
15,35,89,0
15,49,127,0
15,40,121,295
15,35,98,0
15,49,127,0
15,51,80,8
15,51,80,72
15,51,64,8
15,40,96,64
15,44,108,4
15,35,76,0
15,40,90,0
15,51,80,0
15,49,127,68
15,35,71,4
15,40,96,64
15,51,105,0
15,40,22,44
15,40,57,68
15,51,84,0
15,40,121,4
15,40,127,72
15,49,127,0
15,40,90,0
15,35,90,0
15,40,104,64
15,49,127,0
15,35,104,0
15,49,127,1792
15,35,89,0
15,40,99,0
15,51,85,256
15,40,85,0
15,35,75,0
15,51,85,423
15,40,85,0
15,35,72,0
15,40,65,224
15,40,74,0
15,51,79,0
15,40,79,0
15,35,70,0
15,51,85,183
15,40,85,0
15,35,79,0
15,44,108,417
15,51,80,4
15,51,80,248
15,35,64,120
15,51,64,0
15,44,99,372
15,51,80,4
15,51,76,244
15,51,85,116
15,40,85,0
15,35,72,0
15,51,68,167
15,40,68,0
15,35,54,0
15,51,53,295
15,51,85,39
15,40,85,0
15,35,74,0
15,40,85,231
15,40,85,0
15,51,90,0
15,35,90,0
15,40,90,0
15,43,104,167
15,35,104,0
15,49,127,0
15,44,108,427
15,51,80,4
15,51,80,248
15,51,64,120
15,44,99,372
15,51,80,4
15,51,76,244
15,51,85,116
15,49,127,167
15,40,99,0
15,49,127,285
15,35,99,0
15,40,111,0
15,40,76,359
15,40,85,0
15,35,75,0
15,40,93,0
15,51,106,0
15,35,92,167
15,40,109,0
15,49,127,0
15,40,54,679
15,47,95,0
15,40,78,0
15,47,89,32
15,40,78,0
15,47,103,60
15,40,70,4
15,43,120,0
15,40,119,0
15,43,98,32
15,40,104,0
15,43,127,64
15,40,105,4
15,35,88,0
15,49,127,167
15,40,101,0
15,57,127,0
15,35,93,0
15,51,101,413
15,40,90,0
15,35,90,0
15,49,127,167
15,40,99,0
15,35,99,0
15,40,104,295
15,49,127,0
15,35,71,8
15,51,99,0
15,35,90,0
15,40,90,0
15,40,101,64
15,35,101,0
15,49,127,0
15,35,92,256
15,40,105,0
15,49,127,0
15,35,92,276
15,40,103,0
15,49,127,0
15,35,99,276
15,49,127,0
15,40,99,0
15,49,127,285
15,35,99,0
15,40,111,0
15,40,76,359
15,40,85,0
15,35,75,0
15,40,93,0
15,51,106,0
15,35,92,167
15,40,109,0
15,49,127,0
15,40,127,299
15,40,32,120
15,40,38,132
15,49,127,108
15,35,100,0
15,40,123,0
15,57,24,116
15,57,28,0
15,57,32,0
15,57,34,0
15,57,35,0
15,57,37,0
15,57,38,0
15,57,39,0
15,57,40,0
15,57,42,0
15,57,42,0
15,57,43,0
15,57,44,0
15,57,44,0
15,57,46,0
15,57,46,0
15,57,47,0
15,57,47,0
15,57,48,0
15,57,48,0
15,57,48,0
15,57,49,0
15,57,49,0
15,57,49,0
15,57,49,0
15,57,49,0
15,57,49,0
15,57,49,0
15,57,49,0
15,57,49,0
15,57,49,0
15,57,49,0
15,57,51,0
15,57,53,0
15,57,53,0
15,57,53,0
15,57,53,0
15,57,51,0
15,57,51,0
15,57,51,0
15,57,51,0
15,57,49,0
15,57,49,0
15,57,48,0
15,57,48,0
