track,note,velocity,time
1,35,92,13824
1,35,98,214
1,35,89,254
1,35,95,208
1,35,89,214
1,35,95,208
1,35,86,170
1,35,92,208
1,35,89,188
1,35,92,188
1,35,86,184
1,35,89,206
1,35,89,160
1,35,92,178
1,35,95,182
1,35,95,178
1,35,95,206
1,35,95,176
1,35,95,154
1,35,95,174
1,35,92,190
1,35,98,198
1,35,89,184
1,35,92,198
1,35,86,216
1,35,89,178
1,35,86,174
1,35,92,154
1,35,86,194
1,35,86,188
1,35,89,170
1,35,95,184
1,35,95,196
1,35,101,186
1,35,92,190
1,35,89,236
1,35,86,226
1,35,89,194
1,35,86,214
1,35,86,212
1,35,83,234
1,35,86,178
1,35,86,214
1,35,89,196
1,35,86,204
1,35,86,202
1,35,86,204
1,35,86,194
1,35,86,216
1,35,86,216
1,35,86,208
1,35,95,210
1,35,86,248
1,35,86,218
1,35,89,218
1,35,86,216
1,35,86,230
1,35,89,232
1,35,86,222
1,35,89,220
1,35,86,218
1,35,86,218
1,35,86,210
1,35,86,226
1,35,83,236
1,35,92,228
1,35,101,212
1,35,98,204
1,35,95,168
1,35,98,138
1,35,92,154
1,35,98,136
1,35,98,178
1,35,95,132
1,35,92,144
1,35,98,156
1,35,95,148
1,35,95,158
1,35,95,168
1,35,98,154
1,35,95,166
1,35,95,150
1,35,89,140
1,35,89,144
1,35,95,146
1,35,95,152
1,35,95,152
1,35,98,112
1,35,89,138
1,35,98,146
1,35,95,130
1,35,95,136
1,35,89,152
1,35,95,140
1,35,89,128
1,35,101,112
1,35,92,156
1,35,101,124
1,35,98,172
1,35,95,168
1,35,95,188
1,35,98,190
1,35,95,224
1,35,95,232
1,35,95,228
1,35,89,224
1,35,95,186
1,35,98,206
1,35,92,212
1,35,95,164
1,35,95,228
1,35,95,238
1,35,98,206
1,35,95,204
1,35,95,200
1,35,95,230
1,35,89,212
1,35,95,194
1,35,98,232
1,35,95,228
1,35,95,224
1,35,89,192
1,35,92,196
1,35,95,196
1,35,86,240
1,35,92,242
1,35,95,222
1,35,92,220
1,35,92,242
1,35,95,230
1,35,98,242
1,35,95,236
1,35,95,238
1,35,95,254
1,35,95,258
1,35,98,258
1,35,92,256
1,35,95,262
1,35,86,236
1,35,95,234
1,35,86,250
1,35,95,196
1,35,95,256
1,35,98,230
1,35,98,234
1,35,95,224
1,35,86,210
1,35,95,202
1,35,86,224
1,35,95,194
1,35,89,232
1,35,95,228
1,35,89,242
1,35,95,206
1,35,95,228
1,35,95,214
1,35,86,222
1,35,92,188
1,35,95,222
1,35,95,228
1,35,95,212
1,35,95,200
1,35,89,230
1,35,95,208
1,35,89,214
1,35,95,208
1,35,86,170
1,35,92,208
1,35,89,188
1,35,92,188
1,35,86,184
1,35,89,206
1,35,89,160
1,35,92,178
1,35,95,182
1,35,95,178
1,35,95,206
1,35,95,176
1,35,95,154
1,35,95,174
1,35,92,190
1,35,98,198
1,35,89,184
1,35,92,198
1,35,86,216
1,35,89,178
1,35,86,174
1,35,92,154
1,35,86,194
1,35,86,188
1,35,89,170
1,35,95,184
1,35,95,196
1,35,101,186
1,35,92,190
1,35,89,236
1,35,86,226
1,35,89,194
1,35,86,214
1,35,86,212
1,35,83,234
1,35,86,178
1,35,86,214
1,35,89,196
1,35,86,204
1,35,86,202
1,35,86,204
1,35,86,194
1,35,86,216
1,35,86,216
1,35,86,208
1,35,95,210
1,35,86,248
1,35,86,218
1,35,89,218
1,35,86,216
1,35,86,230
1,35,89,232
1,35,86,222
1,35,89,220
1,35,86,218
1,35,86,218
1,35,86,210
1,35,86,226
1,35,83,236
1,35,92,228
1,35,101,212
1,35,98,204
1,35,95,168
1,35,98,138
1,35,92,154
1,35,98,136
1,35,98,178
1,35,95,132
1,35,92,144
1,35,98,156
1,35,95,148
1,35,95,158
1,35,95,168
1,35,98,154
1,35,95,166
1,35,95,150
1,35,89,140
1,35,89,144
1,35,95,146
1,35,95,152
1,35,95,152
1,35,98,112
1,35,89,138
1,35,98,146
1,35,95,130
1,35,95,136
1,35,89,152
1,35,95,140
1,35,89,128
1,35,101,112
1,35,92,156
1,35,101,124
1,35,98,172
1,35,95,168
1,35,95,188
1,35,98,190
1,35,95,224
1,35,95,232
1,35,95,228
1,35,89,224
1,35,95,186
1,35,98,206
1,35,92,212
1,35,95,164
1,35,95,228
1,35,95,238
1,35,98,206
1,35,95,204
1,35,95,200
1,35,95,230
1,35,89,212
1,35,95,194
1,35,98,232
1,35,95,228
1,35,95,224
1,35,89,192
1,35,92,196
1,35,95,196
1,35,86,240
1,35,92,242
1,35,95,222
1,35,92,220
1,35,92,242
1,35,95,230
1,35,98,242
1,35,95,236
1,35,95,238
1,35,95,254
1,35,95,258
1,35,98,258
1,35,92,256
1,35,95,262
1,35,86,236
1,35,95,234
1,35,86,250
1,35,95,196
1,35,95,256
1,35,98,230
1,35,98,234
1,35,95,224
1,35,86,210
1,35,95,202
1,35,86,224
1,35,95,194
1,35,89,232
1,35,95,228
1,35,89,242
1,35,95,206
1,35,95,228
1,35,95,214
1,35,86,222
1,35,92,188
1,35,95,222
1,35,95,228
1,35,95,212
1,35,95,200
1,35,98,230
1,35,95,168
1,35,95,188
1,35,98,190
1,35,95,224
1,35,95,232
1,35,95,228
1,35,89,224
1,35,95,186
1,35,98,206
1,35,92,212
1,35,95,164
1,35,95,228
1,35,95,238
1,35,98,206
1,35,95,204
1,35,95,200
1,35,95,230
1,35,89,212
1,35,95,194
1,35,98,232
1,35,95,228
1,35,95,224
1,35,89,192
1,35,92,196
1,35,95,196
1,35,86,240
1,35,92,242
1,35,95,222
1,35,92,220
1,35,92,242
1,35,95,230
1,35,98,242
1,35,95,236
1,35,95,238
1,35,95,254
1,35,95,258
1,35,98,258
1,35,92,256
1,35,95,262
1,35,86,236
1,35,95,234
1,35,86,250
1,35,95,196
1,35,95,256
1,35,98,230
1,35,98,234
1,35,95,224
1,35,86,210
1,35,95,202
1,35,86,224
1,35,95,194
1,35,89,232
1,35,95,228
1,35,89,242
1,35,95,206
1,35,95,228
1,35,95,214
1,35,86,222
1,35,92,188
1,35,95,222
1,35,95,228
1,35,95,212
1,35,95,200
1,35,89,230
1,35,95,208
1,35,89,214
1,35,95,208
1,35,86,170
1,35,92,208
1,35,89,188
1,35,92,188
1,35,86,184
1,35,89,206
1,35,89,160
1,35,92,178
1,35,95,182
1,35,95,178
1,35,95,206
1,35,95,176
1,35,95,154
1,35,95,174
1,35,92,190
1,35,98,198
1,35,89,184
1,35,92,198
1,35,86,216
1,35,89,178
1,35,86,174
1,35,92,154
1,35,86,194
1,35,86,188
1,35,89,170
1,35,95,184
1,35,95,196
1,35,101,186
1,35,110,62
1,35,110,68
2,38,33,12286
2,38,32,88
2,38,35,68
2,38,38,64
2,38,41,60
2,38,44,56
2,38,47,56
2,38,50,58
2,38,52,58
2,38,55,58
2,38,58,58
2,38,61,60
2,38,64,52
2,38,67,56
2,38,70,60
2,38,72,62
2,38,75,60
2,38,78,64
2,38,95,1214
2,38,98,648
2,38,95,624
2,38,92,634
2,38,98,648
2,38,98,654
2,38,92,664
2,38,95,662
2,38,95,634
2,38,89,636
2,38,98,688
2,38,101,716
2,38,95,664
2,38,95,638
2,38,95,682
2,38,101,670
2,38,86,718
2,38,80,690
2,38,86,704
2,38,86,684
2,38,86,674
2,38,86,676
2,38,77,672
2,38,77,668
2,38,86,672
2,38,89,674
2,38,86,666
2,38,86,678
2,38,89,664
2,38,86,680
2,38,89,652
2,38,89,676
2,38,92,684
2,38,98,648
2,38,95,698
2,38,98,692
2,38,92,642
2,38,95,646
2,38,89,636
2,38,86,656
2,38,92,666
2,38,98,646
2,38,101,632
2,38,98,642
2,38,98,656
2,38,98,648
2,38,92,646
2,38,86,1460
2,38,98,674
2,38,95,634
2,38,89,672
2,38,86,670
2,38,98,666
2,38,92,658
2,38,89,650
2,38,95,664
2,38,86,682
2,38,89,698
2,38,89,660
2,38,86,670
2,38,86,672
2,38,86,674
2,38,86,548
2,38,89,58
2,38,89,668
2,38,89,672
2,38,92,666
2,38,89,666
2,38,95,668
2,38,86,664
2,38,92,662
2,38,92,658
2,38,89,654
2,38,86,664
2,38,92,664
2,38,95,660
2,38,89,672
2,38,86,670
2,38,89,678
2,38,95,1470
2,38,98,648
2,38,95,624
2,38,92,634
2,38,98,648
2,38,98,654
2,38,92,664
2,38,95,662
2,38,95,634
2,38,89,636
2,38,98,688
2,38,101,716
2,38,95,664
2,38,95,638
2,38,95,682
2,38,101,670
2,38,86,718
2,38,80,690
2,38,86,704
2,38,86,684
2,38,86,674
2,38,86,676
2,38,77,672
2,38,77,668
2,38,86,672
2,38,89,674
2,38,86,666
2,38,86,678
2,38,89,664
2,38,86,680
2,38,89,652
2,38,89,676
2,38,92,684
2,38,98,648
2,38,95,698
2,38,98,692
2,38,92,642
2,38,95,646
2,38,89,636
2,38,86,656
2,38,92,666
2,38,98,646
2,38,101,632
2,38,98,642
2,38,98,656
2,38,98,648
2,38,92,646
2,38,86,1460
2,38,98,674
2,38,95,634
2,38,89,672
2,38,86,670
2,38,98,666
2,38,92,658
2,38,89,650
2,38,95,664
2,38,86,682
2,38,89,698
2,38,89,660
2,38,86,670
2,38,86,672
2,38,86,674
2,38,86,548
2,38,89,58
2,38,89,668
2,38,89,672
2,38,92,666
2,38,89,666
2,38,95,668
2,38,86,664
2,38,92,662
2,38,92,658
2,38,89,654
2,38,86,664
2,38,92,664
2,38,95,660
2,38,89,672
2,38,86,670
2,38,89,678
2,38,86,1470
2,38,98,674
2,38,95,634
2,38,89,672
2,38,86,670
2,38,98,666
2,38,92,658
2,38,89,650
2,38,95,664
2,38,86,682
2,38,89,698
2,38,89,660
2,38,86,670
2,38,86,672
2,38,86,674
2,38,86,548
2,38,89,58
2,38,89,668
2,38,89,672
2,38,92,666
2,38,89,666
2,38,95,668
2,38,86,664
2,38,92,662
2,38,92,658
2,38,89,654
2,38,86,664
2,38,92,664
2,38,95,660
2,38,89,672
2,38,86,670
2,38,89,678
2,38,95,1470
2,38,98,648
2,38,95,624
2,38,92,634
2,38,98,648
2,38,98,654
2,38,92,664
2,38,95,662
2,38,95,634
2,38,89,636
2,38,98,688
2,38,101,716
2,38,95,664
2,38,95,638
2,38,95,682
2,38,101,670
3,42,74,3070
3,42,64,276
3,42,60,290
3,42,62,274
3,42,64,276
3,42,71,280
3,42,74,266
3,42,71,276
3,42,71,244
3,42,64,240
3,42,71,232
3,42,74,254
3,42,74,214
3,42,77,252
3,42,71,256
3,42,64,216
3,42,66,228
3,42,68,234
3,42,71,232
3,42,80,238
3,42,71,262
3,42,77,250
3,42,77,164
3,42,80,224
3,42,68,192
3,42,77,252
3,42,77,238
3,42,83,272
3,42,68,266
3,42,67,48
3,42,64,46
3,42,62,36
3,42,66,40
3,42,66,46
3,42,66,48
3,42,64,44
3,42,71,42
3,42,71,38
3,42,64,38
3,42,71,34
3,42,86,54
3,42,80,254
3,42,71,130
3,42,64,44
3,42,77,182
3,42,74,98
3,42,71,44
3,42,60,208
3,42,60,138
3,42,68,44
3,42,77,206
3,42,58,102
3,42,60,34
3,42,60,226
3,42,64,114
3,42,64,40
3,42,60,222
3,42,64,108
3,42,68,54
3,42,74,228
3,42,64,130
3,42,68,44
3,42,71,200
3,42,74,126
3,42,71,44
3,42,74,234
3,42,62,146
3,42,64,44
3,42,71,216
3,42,74,136
3,42,68,42
3,42,71,226
3,42,68,132
3,42,66,40
3,42,68,194
3,42,74,110
3,42,68,44
3,42,71,256
3,42,71,114
3,42,77,36
3,42,62,210
3,42,77,126
3,42,77,46
3,42,77,228
3,42,66,98
3,42,92,48
3,42,89,260
3,42,74,284
3,42,68,274
3,42,66,278
3,42,68,256
3,42,60,270
3,42,74,234
3,42,64,258
3,42,74,216
3,42,86,124
3,42,71,34
3,42,71,262
3,42,71,262
3,42,71,212
3,42,71,236
3,42,71,224
3,42,77,230
3,42,68,106
3,42,64,34
3,42,64,118
3,42,64,28
3,42,68,226
3,42,71,252
3,42,74,222
3,42,68,244
3,42,77,240
3,42,71,202
3,42,68,96
3,42,68,38
3,42,64,112
3,42,66,28
3,42,66,238
3,42,62,252
3,42,68,232
3,42,66,210
3,42,64,202
3,42,66,238
3,42,77,222
3,42,77,96
3,42,64,46
3,42,52,144
3,42,68,34
3,42,58,126
3,42,62,36
3,42,58,144
3,42,62,40
3,42,64,124
3,42,74,48
3,42,50,152
3,42,80,38
3,42,66,144
3,42,74,38
3,42,64,132
3,42,80,46
3,42,66,132
3,42,68,32
3,42,66,138
3,42,80,48
3,42,68,120
3,42,71,36
3,42,68,146
3,42,80,36
3,42,71,122
3,42,77,40
3,42,60,134
3,42,86,40
3,42,74,132
3,42,83,46
3,42,64,138
3,42,89,44
3,42,68,132
3,42,77,44
3,42,64,146
3,42,74,40
3,42,62,118
3,42,66,36
3,42,66,140
3,42,86,40
3,42,74,144
3,42,66,36
3,42,68,150
3,42,77,36
3,42,74,138
3,42,83,46
3,42,77,146
3,42,86,50
3,42,74,126
3,42,71,32
3,42,77,128
3,42,86,56
3,42,71,118
3,42,80,46
3,42,64,128
3,42,86,48
3,42,66,128
3,42,77,34
3,42,68,128
3,42,83,42
3,42,68,134
3,42,80,50
3,42,71,144
3,42,83,50
3,42,74,124
3,42,66,52
3,42,54,136
3,42,77,38
3,42,62,128
3,42,62,30
3,42,56,138
3,42,66,52
3,42,64,120
3,42,64,36
3,42,64,114
3,42,71,44
3,42,64,122
3,42,71,38
3,42,66,128
3,42,71,48
3,42,71,122
3,42,62,42
3,42,71,122
3,42,71,40
3,42,71,132
3,42,77,28
3,42,68,142
3,42,77,34
3,42,71,126
3,42,71,34
3,42,74,120
3,42,77,42
3,42,68,120
3,42,71,34
3,42,71,124
3,42,77,48
3,42,77,114
3,42,68,24
3,42,77,108
3,42,80,46
3,42,71,140
3,42,83,36
3,42,71,126
3,42,74,54
3,42,66,136
3,42,71,44
3,42,71,120
3,42,77,46
3,42,71,126
3,42,74,36
3,42,71,128
3,42,86,40
3,42,77,124
3,42,77,40
3,42,77,128
3,42,77,48
3,42,77,124
3,42,71,38
3,42,77,106
3,42,83,36
3,42,71,118
3,42,77,38
3,42,71,102
3,42,74,34
3,42,77,122
3,42,83,34
3,42,83,118
3,42,80,34
3,42,77,110
3,42,71,30
3,42,66,116
3,42,83,34
3,42,74,130
3,42,86,30
3,42,74,124
3,42,77,40
3,42,71,122
3,42,74,34
3,42,80,116
3,42,83,44
3,42,74,140
3,42,86,24
3,42,77,104
3,42,74,40
3,42,77,86
3,42,74,28
3,42,77,102
3,42,83,36
3,42,74,102
3,42,86,26
3,42,71,146
3,42,74,30
3,42,77,114
3,42,83,36
3,42,74,126
3,42,86,40
3,42,77,130
3,42,74,40
3,42,77,124
3,42,74,38
3,42,80,114
3,42,71,24
3,42,83,116
3,42,77,36
3,42,83,138
3,42,74,30
3,42,77,122
3,42,80,36
3,42,77,138
3,42,83,36
3,42,74,128
3,42,86,46
3,42,80,124
3,42,74,34
3,42,83,124
3,42,80,38
3,42,80,102
3,42,74,24
3,42,71,116
3,42,77,38
3,42,71,130
3,42,80,36
3,42,86,106
3,42,86,46
3,42,80,124
3,42,86,36
3,42,71,142
3,42,86,34
3,42,77,116
3,42,77,40
3,42,80,124
3,42,89,50
3,42,77,124
3,42,86,52
3,42,80,254
3,42,71,130
3,42,64,44
3,42,77,182
3,42,74,98
3,42,71,44
3,42,60,208
3,42,60,138
3,42,68,44
3,42,77,206
3,42,58,102
3,42,60,34
3,42,60,226
3,42,64,114
3,42,64,40
3,42,60,222
3,42,64,108
3,42,68,54
3,42,74,228
3,42,64,130
3,42,68,44
3,42,71,200
3,42,74,126
3,42,71,44
3,42,74,234
3,42,62,146
3,42,64,44
3,42,71,216
3,42,74,136
3,42,68,42
3,42,71,226
3,42,68,132
3,42,66,40
3,42,68,194
3,42,74,110
3,42,68,44
3,42,71,256
3,42,71,114
