track,note,velocity,time
0,60,111,1392
0,64,71,0
0,67,58,0
0,60,75,0
0,36,73,176
0,43,65,16
0,75,92,0
0,48,85,140
0,62,109,16
0,36,54,168
0,43,54,0
0,75,84,0
0,48,66,132
0,60,105,172
0,36,58,136
0,43,61,0
0,75,80,0
0,48,71,132
0,59,108,0
0,36,60,160
0,52,66,0
0,55,65,0
0,59,60,0
0,62,58,0
0,43,51,4
0,75,82,4
0,48,78,132
0,55,66,0
0,59,71,0
0,62,70,4
0,52,60,0
0,60,106,12
0,36,71,140
0,43,68,180
0,75,80,0
0,48,84,132
0,62,109,24
0,36,56,152
0,43,59,180
0,75,75,0
0,48,80,132
0,60,111,24
0,36,66,180
0,43,65,180
0,75,73,0
0,48,78,132
0,59,112,0
0,36,58,208
0,52,65,0
0,62,65,0
0,55,63,4
0,59,65,0
0,43,52,84
0,75,83,0
0,48,71,136
0,52,70,4
0,59,77,0
0,55,72,0
0,62,75,0
0,60,111,12
0,36,101,4
0,64,71,0
0,67,58,0
0,60,75,0
0,36,73,144
0,43,65,16
0,75,92,0
0,48,85,136
0,62,109,16
0,36,54,168
0,43,54,0
0,75,84,0
0,48,66,128
0,60,105,172
0,36,58,136
0,43,61,176
0,75,80,0
0,48,71,132
0,59,108,0
0,36,60,156
0,52,66,4
0,55,65,0
0,59,60,0
0,62,58,0
0,43,51,4
0,75,82,0
0,48,78,132
0,55,66,0
0,59,71,0
0,62,70,4
0,52,60,0
0,60,106,12
0,36,71,140
0,43,68,152
0,75,80,0
0,48,84,132
0,62,109,24
0,36,56,152
0,43,59,180
0,75,75,0
0,48,80,132
0,60,111,24
0,36,66,180
0,43,65,180
0,75,73,0
0,48,78,136
0,59,112,0
0,36,58,208
0,52,65,0
0,62,65,0
0,55,63,4
0,59,65,0
0,43,52,84
0,75,83,0
0,48,71,140
0,52,70,0
0,59,77,0
0,55,72,0
0,62,75,0
0,60,111,12
0,64,71,0
0,67,58,4
0,60,75,0
0,36,73,144
0,64,106,0
0,43,65,8
0,67,82,0
0,75,92,0
0,48,85,136
0,64,94,4
0,62,109,4
0,67,90,0
0,36,54,168
0,43,54,0
0,64,70,0
0,75,84,0
0,48,66,4
0,67,84,4
0,60,105,172
0,36,58,136
0,43,61,0
0,64,97,0
0,75,80,0
0,48,71,132
0,59,108,4
0,36,60,160
0,52,66,0
0,55,65,0
0,59,60,0
0,62,58,0
0,67,95,0
0,43,51,4
0,67,85,0
0,75,82,4
0,48,78,116
0,55,66,0
0,59,71,0
0,62,70,4
0,52,60,0
0,67,63,0
0,60,106,16
0,36,71,112
0,67,80,4
0,43,68,100
0,67,65,0
0,75,80,4
0,48,84,12
0,69,105,0
0,62,109,24
0,36,56,152
0,67,95,0
0,43,59,148
0,75,75,0
0,48,80,132
0,60,95,0
0,60,111,24
0,36,66,176
0,43,65,180
0,75,73,0
0,48,78,132
0,59,112,0
0,36,58,96
0,52,65,4
0,62,65,0
0,55,63,0
0,59,65,0
0,43,52,80
0,75,83,0
0,48,71,136
0,52,70,0
0,59,77,0
0,55,72,0
0,62,75,0
0,60,111,12
0,64,71,4
0,67,58,0
0,60,75,0
0,36,73,144
0,67,90,0
0,43,65,16
0,67,66,0
0,75,92,0
0,48,85,120
0,67,77,0
0,62,109,20
0,67,58,0
0,36,54,112
0,67,89,0
0,43,54,0
0,75,84,0
0,48,66,128
0,67,72,4
0,60,105,8
0,36,58,136
0,67,85,0
0,43,61,0
0,75,80,0
0,48,71,132
0,59,108,0
0,67,77,0
0,36,60,160
0,52,66,0
0,55,65,0
0,59,60,0
0,62,58,0
0,64,79,0
0,43,51,4
0,67,91,0
0,75,82,4
0,48,78,4
0,55,66,0
0,59,71,4
0,62,70,0
0,52,60,0
0,64,75,0
0,60,106,4
0,67,95,0
0,36,71,100
0,67,51,0
0,43,68,12
0,75,80,0
0,48,84,132
0,67,85,0
0,62,109,16
0,36,56,4
0,69,72,0
0,43,59,180
0,75,75,0
0,48,80,132
0,67,70,0
0,60,111,24
0,60,82,4
0,36,66,160
0,43,65,112
0,75,73,0
0,48,78,132
0,59,112,4
0,36,58,208
0,52,65,0
0,62,65,0
0,55,63,0
0,59,65,4
0,43,52,84
0,75,83,0
0,48,71,136
0,52,70,4
0,59,77,0
0,55,72,0
0,62,75,0
0,60,111,16
0,65,80,0
0,60,70,0
0,69,65,0
0,41,70,144
0,72,79,0
0,48,83,12
0,72,65,0
0,75,92,4
0,53,84,128
0,72,59,0
0,62,109,128
0,72,57,0
0,41,53,116
0,48,71,156
0,72,58,0
0,75,84,4
0,53,72,128
0,72,75,0
0,60,105,0
0,41,62,8
0,69,67,0
0,48,75,16
0,75,80,0
0,53,72,132
0,59,108,0
0,41,65,136
0,57,59,0
0,53,60,0
0,60,59,0
0,72,91,4
0,48,69,12
0,72,79,0
0,75,82,0
0,53,74,32
0,53,64,0
0,60,58,0
0,57,57,0
0,69,63,0
0,60,106,52
0,41,65,140
0,72,60,0
0,48,68,12
0,72,93,0
0,75,80,0
0,53,77,20
0,74,60,4
0,62,109,20
0,41,65,136
0,72,81,0
0,48,62,16
0,75,75,0
0,53,86,12
0,65,82,0
0,60,111,60
0,41,70,0
0,67,57,4
0,69,90,88
0,48,74,56
0,75,73,0
0,53,88,132
0,59,112,0
0,41,67,124
0,53,61,0
0,57,66,4
0,60,58,0
0,48,79,0
0,75,83,0
0,53,84,136
0,57,63,0
0,53,59,0
0,60,63,0
0,60,111,12
0,64,71,4
0,67,58,0
0,60,75,0
0,36,73,144
0,67,97,0
0,43,65,16
0,67,77,0
0,75,92,0
0,48,85,108
0,67,90,0
0,62,109,16
0,67,84,0
0,36,54,116
0,67,86,0
0,43,54,0
0,75,84,0
0,48,66,128
0,67,91,4
0,60,105,0
0,36,58,136
0,67,85,0
0,43,61,0
0,75,80,0
0,48,71,132
0,59,108,0
0,69,75,0
0,36,60,0
0,52,66,4
0,55,65,0
0,59,60,0
0,62,58,0
0,67,91,0
0,43,51,4
0,75,82,0
0,48,78,136
0,55,66,0
0,59,71,0
0,62,70,0
0,52,60,0
0,60,106,16
0,36,71,116
0,67,90,4
0,43,68,104
0,67,80,0
0,75,80,0
0,48,84,124
0,67,91,0
0,62,109,20
0,69,86,4
0,36,56,152
0,43,59,48
0,67,71,0
0,75,75,0
0,48,80,48
0,60,88,0
0,60,111,24
0,36,66,180
0,43,65,180
0,75,73,0
0,48,78,132
0,59,112,4
0,36,58,100
0,40,97,0
0,52,65,0
0,62,65,0
0,55,63,0
0,59,65,0
0,43,52,56
0,41,94,4
0,75,83,0
0,43,83,104
0,48,71,32
0,52,70,0
0,59,77,0
0,55,72,4
0,62,75,0
0,50,114,28
0,55,100,20
0,59,86,4
0,62,106,0
0,55,94,0
0,59,118,0
0,43,87,0
0,62,91,0
0,91,81,4
0,43,93,0
0,59,87,0
0,55,79,0
0,62,73,0
0,67,96,4
0,67,89,320
0,75,92,0
0,67,83,92
0,67,80,96
0,67,93,128
0,75,84,0
0,67,76,88
0,75,80,536
0,69,93,144
0,67,97,0
0,75,82,0
0,43,69,28
0,60,106,32
0,48,91,8
0,60,68,4
0,55,90,4
0,64,92,36
0,60,115,44
0,36,95,0
0,67,90,16
0,60,70,0
0,64,54,0
0,55,75,4
0,36,62,164
0,43,52,0
0,75,80,4
0,48,80,136
0,62,106,44
0,36,57,132
0,43,58,0
0,75,75,12
0,48,84,124
0,60,96,44
0,36,58,100
0,43,54,8
0,75,73,20
0,48,75,0
0,59,95,12
0,36,57,100
0,40,100,12
0,43,58,144
0,41,97,4
0,75,83,0
0,43,73,92
0,48,80,0
0,43,82,0
0,50,99,24
0,50,96,0
0,55,100,24
0,59,70,12
0,62,90,4
0,62,106,16
0,55,94,0
0,59,118,0
0,43,87,0
0,43,95,0
0,55,92,0
0,59,93,0
0,91,81,0
0,59,87,0
0,55,79,0
0,62,73,0
0,62,94,8
0,67,94,36
0,67,89,300
0,75,92,0
0,67,89,88
0,67,68,96
0,67,99,100
0,75,84,4
0,69,83,80
0,75,80,536
0,71,108,136
0,72,124,20
0,75,82,0
0,72,89,36
0,60,115,88
0,36,88,0
0,55,86,0
0,64,69,0
0,60,83,0
0,60,70,12
0,64,54,4
0,55,75,0
0,55,86,116
0,64,75,0
0,60,80,0
0,36,62,4
0,43,52,4
0,64,73,0
0,55,83,0
0,60,83,0
0,38,121,0
0,48,80,88
0,64,69,0
0,55,78,0
0,60,79,0
0,62,106,44
0,64,66,0
0,55,81,4
0,60,81,0
0,36,57,96
0,55,83,28
0,64,69,0
0,60,82,0
0,43,58,0
0,55,79,16
0,60,83,0
0,64,66,0
0,38,123,0
0,48,84,92
0,64,65,4
0,55,82,0
0,60,71,0
0,60,96,44
0,60,83,0
0,64,63,0
0,55,76,4
0,36,58,76
0,64,58,44
0,55,77,0
0,60,74,0
0,43,54,12
0,64,58,16
0,55,79,4
0,60,79,0
0,38,121,0
0,48,75,4
0,59,95,8
0,55,79,0
0,60,80,4
0,64,65,0
0,55,77,76
0,60,81,0
0,64,66,0
0,36,57,104
0,31,99,16
0,60,78,0
0,64,65,0
0,55,79,0
0,38,117,0
0,43,58,88
0,64,63,12
0,33,97,4
0,60,80,0
0,55,77,0
0,38,117,0
0,48,80,0
0,31,88,24
0,60,101,0
0,64,81,0
0,55,87,0
0,38,108,4
0,36,95,8
0,64,58,0
0,55,75,0
0,60,75,0
0,60,86,0
0,64,65,0
0,55,63,0
0,60,73,0
0,35,115,0
0,57,106,0
0,60,62,72
0,64,52,4
0,55,64,0
0,67,97,0
0,42,72,0
0,64,48,0
0,60,57,0
0,55,67,0
0,67,97,4
0,38,106,0
0,42,75,0
0,36,105,92
0,64,41,0
0,60,53,0
0,55,48,0
0,67,94,0
0,35,94,4
0,42,80,0
0,55,66,92
0,60,57,0
0,64,42,0
0,67,70,0
0,35,111,0
0,62,79,0
0,42,73,4
0,55,71,72
0,60,68,0
0,64,55,0
0,42,77,4
0,64,56,100
0,60,63,0
0,55,65,0
0,67,106,0
0,38,101,4
0,42,80,0
0,36,111,64
0,64,57,0
0,60,63,0
0,55,66,0
0,67,93,0
0,42,72,4
0,64,57,8
0,55,67,4
0,60,51,0
0,35,111,0
0,42,80,0
0,60,77,0
0,64,58,72
0,55,70,0
0,60,67,0
0,64,106,0
0,42,71,0
0,64,53,108
0,60,65,0
0,55,69,0
0,38,94,0
0,42,69,0
0,64,57,84
0,36,111,4
0,60,58,0
0,55,62,0
0,35,109,0
0,42,66,0
0,59,89,0
0,55,75,0
0,64,66,0
0,60,70,0
0,35,109,4
0,42,83,0
0,31,95,72
0,55,71,0
0,64,62,0
0,60,63,0
0,67,91,0
0,46,82,4
0,64,60,100
0,33,111,0
0,55,65,0
0,60,62,0
0,38,106,0
0,42,86,0
0,60,66,68
0,64,58,0
0,31,84,4
0,55,66,0
0,67,77,0
0,42,84,0
0,36,101,24
0,64,64,0
0,60,77,0
0,55,76,0
0,35,118,4
0,42,86,0
0,60,83,0
0,64,49,64
0,60,63,0
0,55,65,0
0,67,84,0
0,42,84,0
0,60,62,112
0,64,51,4
0,55,68,0
0,38,106,0
0,42,87,0
0,36,103,4
0,64,56,0
0,60,62,0
0,55,62,0
0,69,97,4
0,35,103,0
0,42,79,0
0,64,55,92
0,55,68,0
0,60,56,0
0,35,106,0
0,62,86,0
0,42,80,4
0,64,57,76
0,60,66,4
0,55,67,0
0,67,93,0
0,42,59,0
0,64,43,112
0,55,62,0
0,60,58,0
0,38,108,4
0,42,84,0
0,36,109,36
0,64,56,0
0,55,70,0
0,60,63,0
0,60,118,0
0,42,74,4
0,64,53,4
0,60,61,0
0,55,65,0
0,35,117,0
0,42,84,0
0,60,81,0
0,64,53,60
0,55,65,4
0,60,58,0
0,42,82,0
0,55,63,112
0,64,50,0
0,60,48,0
0,38,103,0
0,42,84,0
0,36,111,84
0,64,65,0
0,60,63,0
0,55,63,0
0,59,91,0
0,35,115,4
0,42,80,0
0,60,57,96
0,55,64,0
0,64,51,4
0,35,114,0
0,42,82,0
0,64,61,84
0,55,69,0
0,60,56,0
0,31,108,4
0,46,91,0
0,33,105,100
0,55,67,0
0,60,57,0
0,64,53,0
0,38,109,0
0,42,91,0
0,60,85,0
0,31,108,4
0,64,71,0
0,55,76,0
0,42,92,0
0,36,95,48
0,64,58,0
0,55,75,0
0,60,75,0
0,64,65,0
0,55,63,0
0,60,73,0
0,35,115,0
0,42,72,0
0,60,86,0
0,60,62,72
0,64,52,0
0,55,64,0
0,67,99,0
0,42,72,0
0,64,48,4
0,60,57,0
0,55,67,0
0,67,96,0
0,38,106,0
0,42,75,0
0,64,41,92
0,60,53,0
0,36,105,4
0,55,48,0
0,67,109,0
0,35,94,0
0,42,80,0
0,55,66,92
0,60,57,0
0,64,42,0
0,67,89,0
0,35,111,4
0,42,73,0
0,62,79,0
0,55,71,72
0,60,68,0
0,64,55,0
0,67,70,0
0,42,77,0
0,64,56,108
0,60,63,4
0,55,65,0
0,38,101,0
0,42,80,0
0,36,111,60
0,64,57,0
0,60,63,0
0,55,66,0
0,67,82,4
0,42,72,0
0,64,57,12
0,55,67,0
0,60,51,0
0,35,111,0
0,60,77,0
0,42,80,4
0,64,58,76
0,55,70,0
0,60,67,0
0,67,76,0
0,42,71,0
0,64,53,104
0,60,65,0
0,55,69,0
0,38,94,4
0,42,69,0
0,36,111,88
0,64,57,0
0,60,58,0
0,55,62,0
0,67,76,4
0,35,109,0
0,42,66,0
0,59,89,0
0,55,75,4
0,64,66,0
0,60,70,0
0,35,109,0
0,42,83,0
0,55,71,72
0,31,95,0
0,64,62,0
0,60,63,0
0,64,111,0
0,46,82,0
0,33,111,100
0,64,60,0
0,55,65,0
0,60,62,0
0,38,106,0
0,42,86,0
0,31,84,72
0,60,66,0
0,64,58,0
0,55,66,0
0,67,75,0
0,42,84,0
0,64,64,24
0,60,77,0
0,36,101,4
0,55,76,0
0,35,118,0
0,42,86,0
0,60,83,0
0,64,49,60
0,60,63,0
0,55,65,0
0,67,75,4
0,42,84,0
0,60,62,104
0,64,51,0
0,55,68,0
0,67,84,0
0,38,106,0
0,42,87,4
0,64,56,88
0,36,103,4
0,60,62,0
0,55,62,0
0,67,84,0
0,35,103,0
0,42,79,0
0,64,55,92
0,55,68,0
0,60,56,4
0,67,77,0
0,35,106,0
0,42,80,0
0,62,86,0
0,64,57,80
0,60,66,0
0,55,67,0
0,69,105,0
0,42,59,0
0,64,43,112
0,55,62,0
0,60,58,0
0,38,108,0
0,42,84,0
0,64,56,56
0,55,70,0
0,36,109,4
0,60,63,0
0,67,90,0
0,42,74,0
0,64,53,4
0,60,61,0
0,55,65,0
0,60,118,0
0,35,117,4
0,42,84,0
0,60,81,0
0,64,53,60
0,55,65,0
0,60,58,0
0,42,82,0
0,55,63,112
0,64,50,0
0,60,48,4
0,38,103,0
0,42,84,0
0,64,65,80
0,60,63,0
0,55,63,0
0,36,111,4
0,35,115,0
0,42,80,0
0,59,91,0
0,60,57,96
0,55,64,0
0,64,51,0
0,35,114,0
0,42,82,0
0,31,108,88
0,64,61,0
0,55,69,0
0,60,56,0
0,46,91,0
0,55,67,96
0,60,57,0
0,64,53,0
0,33,105,4
0,38,109,0
0,42,91,0
0,31,108,4
0,60,85,0
0,64,71,0
0,55,76,0
0,42,92,4
0,41,79,20
0,57,62,0
0,60,60,0
0,65,39,0
0,35,115,0
0,42,72,0
0,60,86,0
0,57,70,4
0,60,93,0
0,65,63,0
0,60,71,72
0,65,65,0
0,57,38,4
0,72,111,0
0,42,72,0
0,60,77,16
0,57,56,0
0,65,51,0
0,72,95,0
0,38,106,4
0,42,75,0
0,41,67,92
0,60,75,0
0,65,52,0
0,57,54,0
0,72,92,0
0,35,94,0
0,42,80,4
0,60,69,88
0,65,56,4
0,57,60,0
0,72,95,0
0,35,111,0
0,42,73,0
0,62,79,0
0,57,69,72
0,60,58,0
0,65,52,0
0,72,112,0
