track,note,velocity,time
1,72,114,26126
1,72,114,88
1,72,114,100
1,72,114,92
1,72,114,0
1,72,114,0
1,72,114,0
1,72,114,0
1,72,114,100
1,72,114,90
1,72,114,90
1,72,114,6
1,72,114,8
1,72,114,8
1,72,114,92
1,72,114,92
1,72,114,84
1,72,114,116
1,74,114,12
1,72,114,96
1,72,114,76
1,72,114,12
1,69,114,72
1,72,114,1832
1,72,114,4
1,72,114,100
1,72,114,100
1,72,114,100
1,72,114,0
1,72,114,0
1,72,114,8
1,72,114,92
1,72,114,100
1,72,114,92
1,72,114,92
1,72,114,98
1,72,114,106
1,72,114,4
1,72,114,0
1,72,114,92
1,72,114,4
1,72,114,16
1,72,114,88
1,72,114,76
1,74,114,32
1,72,114,52
1,72,114,28
1,69,114,96
1,72,114,1640
1,76,114,4
1,74,114,380
1,72,114,192
1,72,114,96
1,72,114,100
1,76,114,0
1,74,114,92
1,74,114,92
1,72,114,92
1,72,114,0
1,76,114,104
1,74,114,92
1,74,114,0
1,76,114,72
1,72,114,110
1,72,114,98
1,69,114,4
1,69,114,284
1,72,114,400
1,76,114,84
1,74,114,4
1,74,114,80
1,72,114,12
1,72,114,4
1,69,114,188
1,72,114,88
1,76,114,100
1,74,114,94
1,72,114,98
1,72,114,0
1,72,114,212
1,76,114,88
1,74,114,92
1,74,114,92
1,72,114,100
1,72,114,88
1,67,114,100
1,69,114,8
1,76,114,764
1,76,114,88
1,76,114,96
1,76,114,100
1,74,114,92
1,74,114,100
1,76,114,0
1,76,114,100
1,76,114,88
1,76,114,100
1,74,114,100
1,74,114,188
1,76,114,108
1,77,114,88
1,79,114,104
1,72,114,176
1,72,114,192
1,76,114,104
1,77,114,184
1,79,114,6
1,72,114,190
1,72,114,92
1,76,114,104
1,77,114,184
1,79,114,4
1,72,114,0
1,72,114,96
1,76,114,1632
1,77,114,8
1,79,114,188
1,72,114,4
1,72,114,72
1,76,114,108
1,77,114,184
1,79,114,0
1,72,114,8
1,72,114,96
1,76,114,96
1,77,114,184
1,79,114,8
1,72,114,16
1,72,114,80
1,76,114,868
1,76,114,84
1,76,114,96
1,76,114,98
1,74,114,90
1,74,114,108
1,67,114,196
1,67,114,92
1,76,114,84
1,74,114,106
1,74,114,96
1,72,114,106
1,72,114,96
1,72,114,11520
1,72,114,88
1,72,114,0
1,72,114,84
1,72,114,102
1,72,114,102
1,72,114,90
1,72,114,0
1,72,114,90
1,72,114,0
1,72,114,100
1,72,114,92
1,72,114,0
1,72,114,88
1,72,114,12
1,72,114,0
1,72,114,12
1,72,114,80
1,72,114,16
1,74,114,104
1,72,114,0
1,72,114,80
1,72,114,22
1,69,114,278
1,72,114,1546
1,72,114,102
1,72,114,84
1,72,114,16
1,72,114,80
1,72,114,16
1,72,114,0
1,72,114,86
1,72,114,86
1,72,114,106
1,72,114,6
1,72,114,0
1,72,114,100
1,72,114,96
1,72,114,88
1,72,114,12
1,72,114,0
1,72,114,0
1,72,114,0
1,72,114,0
1,74,114,92
1,72,114,36
1,72,114,40
1,72,114,28
1,69,114,88
1,72,114,1732
1,76,114,0
1,74,114,4
1,74,114,88
1,72,114,4
1,72,114,90
1,72,114,580
1,76,114,88
1,74,114,4
1,74,114,108
1,72,114,188
1,72,114,0
1,76,114,94
1,74,114,6
1,74,114,92
1,72,114,88
1,72,114,12
1,69,114,188
1,67,114,80
1,69,114,8
1,72,114,1364
1,76,114,88
1,74,114,104
1,74,114,88
1,72,114,180
1,72,114,0
1,72,114,108
1,76,114,88
1,74,114,112
1,74,114,76
1,72,114,6
1,72,114,2
1,72,114,96
1,77,114,8
1,76,114,92
1,74,114,188
1,74,114,100
1,72,114,188
1,72,114,96
1,67,114,100
1,69,114,92
1,76,114,670
1,76,114,98
1,76,114,100
1,76,114,84
1,74,114,112
1,74,114,88
1,76,114,108
1,76,114,92
1,76,114,80
1,76,114,96
1,74,114,96
1,74,114,96
1,76,114,108
1,77,114,172
1,79,114,10
1,72,114,2
1,72,114,100
1,77,114,384
1,79,114,8
1,72,114,0
1,72,114,188
1,76,114,92
1,77,114,0
1,79,114,8
1,72,114,184
1,72,114,100
1,76,114,1532
1,77,114,180
1,79,114,18
1,72,114,2
1,72,114,100
1,76,114,180
1,77,114,190
1,79,114,2
1,72,114,12
1,72,114,84
1,76,114,108
1,77,114,172
1,79,114,6
1,72,114,6
1,72,114,104
1,76,114,1320
1,76,114,100
1,76,114,92
1,76,114,102
1,74,114,106
1,74,114,180
1,67,114,198
1,67,114,102
1,76,114,90
1,74,114,98
1,74,114,192
1,72,114,104
1,72,114,88
1,72,114,100
1,76,114,84
1,77,114,8
1,79,114,0
1,72,114,0
1,72,114,96
1,76,114,100
1,77,114,0
1,79,114,188
1,72,114,0
1,72,114,100
1,76,114,1338
1,77,114,2
1,79,114,8
1,72,114,4
1,72,114,84
1,76,114,100
1,77,114,176
1,79,114,12
1,72,114,8
1,72,114,86
1,76,114,98
1,77,114,0
1,79,114,8
1,72,114,176
1,72,114,108
1,76,114,1248
1,76,114,84
1,76,114,104
1,76,114,104
1,74,114,88
1,74,114,88
1,67,114,104
1,67,114,96
1,76,114,100
1,74,114,96
1,74,114,84
1,72,114,104
1,72,114,96
1,72,114,0
1,72,114,104
1,72,114,92
1,72,114,96
1,72,114,90
1,72,114,8
1,72,114,88
1,72,114,0
1,72,114,200
1,72,114,104
1,72,114,88
1,72,114,8
1,72,114,0
1,72,114,4
1,72,114,0
1,72,114,0
1,72,114,88
1,72,114,0
1,72,114,196
1,74,114,96
1,72,114,8
1,72,114,104
1,69,114,276
1,72,114,2024
1,72,114,82
1,72,114,112
1,72,114,94
1,72,114,6
1,72,114,0
1,72,114,92
1,72,114,4
1,72,114,0
1,72,114,96
1,72,114,100
1,72,114,90
1,72,114,102
1,72,114,106
1,72,114,0
1,72,114,92
1,72,114,4
1,72,114,90
1,72,114,8
1,72,114,88
1,74,114,120
1,72,114,32
1,72,114,40
1,72,114,28
1,69,114,76
1,72,114,1464
1,76,114,88
1,74,114,96
1,74,114,92
1,72,114,180
1,72,114,0
1,72,114,100
1,76,114,8
1,74,114,92
1,74,114,96
1,72,114,190
1,72,114,84
1,76,114,596
1,74,114,2
1,76,114,12
1,72,114,180
1,72,114,104
1,69,114,76
1,67,114,24
1,69,114,12
1,72,114,1236
1,76,114,88
1,74,114,104
1,74,114,88
1,72,114,180
1,72,114,0
1,72,114,96
1,76,114,88
1,74,114,112
1,74,114,100
1,72,114,180
1,72,114,4
1,72,114,200
1,76,114,92
1,74,114,104
1,74,114,86
1,72,114,6
1,72,114,90
1,67,114,200
1,69,114,92
1,76,114,770
1,76,114,102
1,76,114,96
1,76,114,90
1,74,114,98
1,74,114,96
1,76,114,88
1,76,114,104
1,76,114,84
1,76,114,92
1,74,114,116
1,74,114,192
1,76,114,564
1,77,114,0
1,79,114,8
1,72,114,100
1,72,114,92
1,76,114,94
1,77,114,6
1,79,114,0
1,72,114,188
1,72,114,88
1,76,114,108
1,77,114,186
1,79,114,4
1,72,114,10
1,72,114,192
1,76,114,1148
1,77,114,184
1,79,114,4
1,72,114,0
1,72,114,188
1,76,114,94
1,77,114,186
1,79,114,0
1,72,114,8
1,72,114,100
1,76,114,196
1,77,114,184
1,79,114,176
1,72,114,12
1,72,114,196
1,76,114,1052
1,76,114,100
1,76,114,88
1,76,114,96
1,74,114,104
1,74,114,88
1,67,114,196
1,67,114,96
1,76,114,92
1,74,114,12
1,74,114,76
1,72,114,124
1,79,114,280
1,72,114,172
1,72,114,104
1,76,114,84
1,77,114,184
1,79,114,6
1,72,114,12
1,72,114,198
1,76,114,192
1,77,114,176
1,79,114,12
1,72,114,180
1,72,114,120
1,76,114,1148
1,77,114,0
1,79,114,4
1,72,114,0
1,72,114,196
1,76,114,568
1,77,114,176
1,79,114,4
1,72,114,0
1,72,114,100
1,76,114,86
1,77,114,2
1,79,114,4
1,72,114,188
1,72,114,204
1,76,114,1236
1,76,114,96
1,76,114,96
1,76,114,104
1,74,114,188
1,74,114,176
1,67,114,112
1,67,114,92
1,76,114,88
1,74,114,12
1,74,114,180
1,72,114,108
1,72,114,96
2,36,97,1540
2,40,97,2686
2,41,97,2
2,40,97,94
2,36,97,2
2,40,97,2686
2,41,97,2
2,40,97,2686
2,36,97,2
2,36,97,94
2,36,97,96
2,31,97,0
2,36,97,2
2,36,97,670
2,36,97,0
2,36,97,96
2,36,97,0
2,40,97,2
2,36,97,286
2,40,97,0
2,41,97,98
2,41,97,94
2,41,97,96
2,36,97,0
2,41,97,2
2,41,97,766
2,41,97,0
2,41,97,192
2,41,97,0
2,45,97,2
2,41,97,190
2,46,97,0
2,41,97,0
2,48,97,0
2,36,97,2
2,36,97,94
2,36,97,0
2,31,97,0
2,36,97,2
2,36,97,766
2,36,97,0
2,31,97,0
2,36,97,2
2,40,97,286
2,36,97,0
2,41,97,2
2,41,97,94
2,41,97,0
2,36,97,0
2,41,97,2
2,41,97,670
2,41,97,0
2,41,97,96
2,41,97,0
2,45,97,2
2,41,97,190
2,46,97,0
2,41,97,192
2,48,97,0
2,36,97,2
2,36,97,94
2,36,97,96
2,31,97,0
2,36,97,2
2,36,97,766
2,36,97,0
2,36,97,96
2,40,97,2
2,36,97,0
2,41,97,0
2,41,97,94
2,41,97,96
2,36,97,0
2,41,97,2
2,41,97,766
2,41,97,0
2,41,97,192
2,41,97,0
2,45,97,2
2,41,97,190
2,46,97,0
2,41,97,192
2,48,97,0
2,41,97,0
2,36,97,2
2,36,97,94
2,36,97,96
2,31,97,0
2,36,97,2
2,36,97,94
2,36,97,770
2,36,97,0
2,40,97,2
2,36,97,286
2,40,97,0
2,41,97,98
2,41,97,94
2,41,97,96
2,36,97,0
2,41,97,2
2,41,97,670
2,41,97,0
2,41,97,192
2,41,97,0
2,45,97,2
2,41,97,190
2,46,97,0
2,41,97,192
2,48,97,0
2,36,97,2
2,36,97,94
2,36,97,96
2,31,97,0
2,36,97,2
2,36,97,286
2,36,97,386
2,36,97,0
2,36,97,96
2,40,97,2
2,36,97,286
2,40,97,0
2,41,97,2
2,41,97,94
2,41,97,96
2,36,97,0
2,41,97,2
2,41,97,766
2,41,97,0
2,41,97,192
2,41,97,0
2,45,97,2
2,41,97,190
2,46,97,0
2,41,97,192
2,48,97,0
2,36,97,2
2,36,97,94
2,36,97,96
2,31,97,0
2,36,97,2
2,36,97,862
2,36,97,0
2,36,97,96
2,40,97,2
2,36,97,0
2,40,97,190
2,41,97,2
2,41,97,0
2,41,97,190
2,41,97,96
2,36,97,0
2,41,97,2
2,41,97,766
2,41,97,0
2,41,97,192
2,41,97,0
2,45,97,2
2,41,97,190
2,46,97,0
2,41,97,192
2,48,97,0
2,43,97,2
2,43,97,0
2,43,97,190
2,43,97,96
2,38,97,0
2,43,97,0
2,31,97,384
2,31,97,0
2,43,97,2
2,43,97,94
2,43,97,96
2,38,97,0
2,43,97,2
2,31,97,192
2,33,97,190
2,36,97,2
2,36,97,94
2,36,97,96
2,31,97,0
2,36,97,2
2,40,97,382
2,41,97,2
2,41,97,94
2,41,97,96
2,36,97,0
2,45,97,2
2,41,97,190
2,46,97,0
2,41,97,0
2,48,97,0
2,36,97,2
2,36,97,94
2,36,97,96
2,31,97,0
2,36,97,2
2,36,97,576
2,36,97,94
2,36,97,96
2,31,97,0
2,36,97,2
2,40,97,286
2,31,97,2
2,36,97,0
2,36,97,94
2,36,97,96
2,31,97,0
2,36,97,2
2,40,97,382
2,41,97,2
2,41,97,94
2,41,97,96
2,36,97,0
2,45,97,2
2,41,97,190
2,46,97,0
2,41,97,0
2,48,97,0
2,36,97,2
2,36,97,94
2,36,97,0
2,31,97,0
2,36,97,2
2,36,97,576
2,36,97,94
2,36,97,96
2,31,97,0
2,36,97,2
2,40,97,190
2,40,97,96
2,36,97,0
2,43,97,2
2,43,97,94
2,43,97,96
2,38,97,0
2,43,97,2
2,43,97,576
2,43,97,94
2,43,97,96
2,38,97,0
2,43,97,2
2,31,97,190
2,33,97,2
2,31,97,190
2,36,97,2
2,36,97,94
2,36,97,96
2,31,97,0
2,36,97,2
2,36,97,766
2,36,97,0
2,36,97,192
2,40,97,2
2,36,97,0
2,41,97,0
2,41,97,94
2,41,97,96
2,36,97,0
2,41,97,2
2,41,97,670
2,41,97,0
2,41,97,192
2,41,97,0
2,45,97,2
2,41,97,190
2,46,97,0
2,41,97,192
2,48,97,0
2,36,97,2
2,36,97,94
2,36,97,96
2,31,97,0
2,36,97,2
2,36,97,766
2,36,97,0
2,40,97,386
2,36,97,286
2,40,97,0
2,41,97,2
2,41,97,94
2,41,97,96
2,36,97,0
2,41,97,2
2,41,97,670
2,41,97,0
2,41,97,192
2,41,97,0
2,45,97,2
2,41,97,190
2,46,97,0
2,41,97,192
2,48,97,0
2,36,97,2
2,36,97,94
2,36,97,96
2,31,97,0
2,36,97,2
2,36,97,766
2,36,97,0
2,36,97,96
2,40,97,2
2,36,97,0
2,40,97,190
2,41,97,2
2,41,97,94
2,41,97,96
2,36,97,0
2,41,97,2
2,41,97,670
2,41,97,0
2,41,97,192
2,41,97,0
2,45,97,2
2,41,97,190
2,46,97,0
2,41,97,192
2,48,97,0
2,36,97,2
2,36,97,94
2,36,97,96
2,31,97,0
2,36,97,2
2,36,97,766
2,36,97,0
2,36,97,96
2,40,97,2
2,36,97,382
2,40,97,0
2,41,97,2
2,41,97,94
2,41,97,96
2,36,97,0
2,41,97,2
2,41,97,766
2,41,97,0
2,41,97,192
2,41,97,0
2,45,97,2
2,41,97,190
2,46,97,0
2,41,97,0
2,48,97,0
2,36,97,98
2,36,97,94
2,36,97,96
2,31,97,2
2,36,97,0
2,36,97,766
2,36,97,0
2,36,97,192
2,36,97,0
2,40,97,2
2,36,97,0
2,40,97,190
2,41,97,2
2,41,97,94
2,41,97,96
2,36,97,0
2,41,97,2
2,41,97,766
2,41,97,0
2,41,97,192
2,41,97,0
2,45,97,2
2,41,97,190
2,46,97,0
2,41,97,192
2,48,97,0
2,41,97,0
2,36,97,2
2,36,97,94
2,36,97,96
2,31,97,0
2,36,97,2
2,36,97,766
2,36,97,0
2,31,97,192
2,40,97,2
2,36,97,382
2,40,97,0
2,41,97,2
2,41,97,94
2,41,97,96
2,36,97,0
2,41,97,2
2,41,97,766
2,41,97,0
2,41,97,96
2,41,97,0
2,45,97,2
2,41,97,190
2,46,97,0
2,41,97,192
2,48,97,0
2,43,97,2
2,43,97,94
2,43,97,96
2,38,97,0
2,43,97,2
2,31,97,192
2,43,97,0
2,43,97,94
2,43,97,96
2,38,97,0
2,43,97,2
2,31,97,192
2,33,97,0
2,36,97,0
2,36,97,94
2,36,97,96
2,31,97,0
2,36,97,2
2,40,97,192
2,36,97,190
2,41,97,2
2,41,97,0
2,41,97,190
2,41,97,96
2,36,97,0
2,41,97,2
2,45,97,190
2,46,97,0
2,48,97,0
2,36,97,2
2,36,97,94
2,36,97,96
2,31,97,0
2,36,97,2
2,31,97,382
2,36,97,2
2,36,97,94
2,36,97,96
2,31,97,0
2,36,97,2
2,40,97,192
2,31,97,190
2,36,97,2
2,36,97,94
2,36,97,96
2,36,97,98
2,36,97,94
2,40,97,2
2,36,97,190
2,41,97,2
2,41,97,0
2,41,97,190
2,41,97,96
2,36,97,0
2,41,97,2
2,45,97,192
2,46,97,94
2,48,97,0
2,36,97,2
2,36,97,94
2,36,97,96
2,31,97,0
2,36,97,2
2,31,97,382
2,36,97,2
2,36,97,94
2,36,97,96
2,36,97,194
2,40,97,192
2,36,97,190
2,43,97,2
2,43,97,0
2,43,97,190
2,43,97,96
2,38,97,0
2,43,97,2
2,31,97,192
2,33,97,94
2,36,97,0
2,43,97,2
2,43,97,94
2,43,97,96
2,31,97,0
2,43,97,2
2,31,97,192
2,33,97,190
2,36,97,2
2,36,97,94
2,36,97,96
2,31,97,0
2,36,97,2
2,40,97,192
2,36,97,190
2,41,97,2
2,41,97,94
2,41,97,96
2,36,97,0
2,41,97,2
