track,note,velocity,time
3,24,89,15443
3,24,0,4185
3,24,87,3495
3,24,0,2962
3,36,76,398
3,36,0,210
3,29,86,30
3,29,0,2045
3,29,86,2035
3,29,0,1877
3,28,86,43
3,28,0,1790
3,27,86,130
3,27,0,1730
3,26,86,190
3,26,0,700
3,31,86,20
3,31,0,572
3,31,85,148
3,31,0,475
3,24,85,5
3,24,0,3432
3,24,85,168
3,29,85,240
3,24,0,10
3,29,0,917
3,31,85,33
3,31,0,440
3,31,85,40
3,31,0,460
3,36,85,20
3,36,0,720
3,36,85,0
3,36,0,840
3,36,85,120
3,36,0,1080
3,38,79,360
3,38,0,232
3,40,82,8
3,40,0,275
3,41,107,205
3,41,0,715
3,29,107,5
3,29,0,637
3,29,107,83
3,29,0,227
3,31,107,13
3,31,0,835
3,31,102,125
3,31,0,910
3,24,107,50
3,24,0,932
3,36,93,28
3,24,101,480
3,36,0,15
3,24,0,175
3,28,104,50
3,28,0,217
3,29,107,23
3,29,0,1422
3,24,95,18
3,24,0,152
3,29,107,88
3,29,0,227
3,28,106,13
3,26,106,240
3,28,0,0
3,26,0,642
3,26,98,78
3,26,0,420
3,26,104,60
3,26,0,360
3,31,109,120
3,31,0,1080
3,31,102,120
3,31,0,215
3,29,112,25
3,29,0,697
3,36,98,23
3,36,0,832
3,36,93,128
3,36,0,222
3,38,102,18
3,38,0,450
3,40,117,30
3,28,107,960
3,40,0,15
3,29,93,465
3,28,0,2
3,29,0,205
3,31,102,33
3,31,0,355
3,41,107,125
3,41,0,715
3,29,107,5
3,29,0,637
3,29,107,83
3,29,0,227
3,31,107,13
3,31,0,835
3,31,102,125
3,31,0,910
3,24,107,50
3,24,0,932
3,36,93,28
3,24,101,480
3,36,0,15
3,24,0,175
3,28,104,50
3,28,0,217
3,29,107,23
3,29,0,1422
3,24,95,18
3,24,0,152
3,29,107,88
3,29,0,227
3,28,106,13
3,26,106,240
3,28,0,0
3,26,0,642
3,26,98,78
3,26,0,420
3,26,104,60
3,26,0,360
3,31,109,120
3,31,0,1080
3,31,102,120
3,31,0,215
3,29,112,25
3,29,0,697
3,36,89,23
3,36,0,315
3,48,89,1125
3,36,93,240
3,48,0,2
3,36,0,1603
3,48,89,75
3,48,0,210
3,36,93,30
3,36,0,212
3,41,85,28
3,41,0,662
3,41,77,58
3,43,81,240
3,41,0,5
3,43,0,362
3,43,85,113
3,24,89,480
3,43,0,12
3,24,0,4173
3,24,87,3495
3,24,0,2962
3,36,76,398
3,36,0,210
3,29,86,30
3,29,0,2045
3,29,86,2035
3,29,0,1877
3,28,86,43
3,28,0,1790
3,27,86,130
3,27,0,1730
3,26,86,190
3,26,0,700
3,31,86,20
3,31,0,572
3,31,85,148
3,31,0,475
3,24,85,5
3,24,0,3432
3,24,85,168
3,29,85,240
3,24,0,10
3,29,0,917
3,31,85,33
3,31,0,440
3,31,85,40
3,31,0,460
3,36,85,20
3,36,0,720
3,36,85,0
3,36,0,840
3,36,85,120
3,36,0,1080
3,38,79,360
3,38,0,232
3,40,82,8
3,40,0,275
3,41,107,205
3,41,0,715
3,29,107,5
3,29,0,637
3,29,107,83
3,29,0,227
3,31,107,13
3,31,0,835
3,31,112,125
3,31,0,910
3,24,117,50
3,24,0,932
3,36,103,28
3,24,111,480
3,36,0,15
3,24,0,175
3,28,114,50
3,28,0,217
3,29,117,23
3,29,0,1422
3,24,105,18
3,24,0,152
3,29,117,88
3,29,0,227
3,28,116,13
3,26,116,240
3,28,0,0
3,26,0,642
3,26,108,78
3,26,0,420
3,26,114,60
3,26,0,360
3,31,119,120
3,31,0,1080
3,31,112,120
3,31,0,215
3,29,122,25
3,29,0,697
3,36,108,23
3,36,0,832
3,36,103,128
3,36,0,222
3,38,112,18
3,38,0,450
3,40,127,30
3,28,117,960
3,40,0,15
3,29,103,465
3,28,0,2
3,29,0,205
3,31,112,33
3,31,0,355
3,41,107,125
3,41,0,715
3,29,107,5
3,29,0,637
3,29,107,83
3,29,0,227
3,31,107,13
3,31,0,835
3,31,102,125
3,31,0,910
3,24,107,50
3,24,0,932
3,36,93,28
3,24,101,480
3,36,0,15
3,24,0,175
3,28,104,50
3,28,0,217
3,29,107,23
3,29,0,1422
3,24,95,18
3,24,0,152
3,29,107,88
3,29,0,227
3,28,106,13
3,26,106,240
3,28,0,0
3,26,0,642
3,26,98,78
3,26,0,420
3,26,104,60
3,26,0,360
3,31,109,120
3,31,0,1080
3,31,102,120
3,31,0,215
3,29,112,25
3,29,0,697
3,36,98,23
3,36,0,832
3,36,93,128
3,36,0,222
3,38,102,18
3,38,0,450
3,40,117,30
3,28,107,960
3,40,0,15
3,29,93,465
3,28,0,2
3,29,0,205
3,31,102,33
3,31,0,355
3,41,107,125
3,41,0,715
3,29,107,5
3,29,0,637
3,29,107,83
3,29,0,227
3,31,107,13
3,31,0,835
3,31,102,125
3,31,0,910
3,36,107,290
3,36,0,1440
3,48,89,0
3,36,93,240
3,48,0,2
3,36,0,1603
3,48,89,75
3,48,0,210
3,36,93,30
3,36,0,212
3,41,85,28
3,41,0,662
3,41,77,58
3,43,81,240
3,41,0,5
3,43,0,362
3,43,85,113
3,24,89,480
3,43,0,12
3,24,0,1785
4,53,76,48080
4,57,75,240
4,60,78,237
4,65,88,240
4,57,0,423
4,57,75,52
4,53,0,188
4,53,74,57
4,53,0,185
4,50,85,50
4,65,0,8
4,57,0,17
4,60,0,10
4,55,75,450
4,59,73,240
4,67,85,240
4,50,0,423
4,50,83,52
4,55,0,128
4,55,75,117
4,59,0,183
4,59,67,57
4,67,0,3
4,50,0,27
4,55,0,148
4,48,83,62
4,59,0,83
4,55,79,157
4,60,75,240
4,64,81,240
4,55,0,423
4,55,67,57
4,64,0,243
4,64,75,2
4,48,0,143
4,55,0,15
4,64,0,47
4,53,79,35
4,60,0,48
4,57,62,430
4,60,81,237
4,65,83,240
4,53,0,145
4,53,79,90
4,57,0,248
4,57,64,2
4,60,0,178
4,60,69,67
4,65,0,223
4,65,63,12
4,53,0,153
4,50,83,87
4,60,0,40
4,57,0,8
4,65,0,30
4,57,77,157
4,62,70,245
4,65,83,235
4,57,0,423
4,57,70,57
4,65,0,183
4,65,69,62
4,50,0,370
4,57,0,48
4,55,83,62
4,62,0,200
4,65,0,33
4,59,69,7
4,62,81,235
4,67,81,245
4,55,0,298
4,55,70,172
4,67,0,188
4,67,66,62
4,55,0,115
4,59,0,65
4,62,0,258
4,67,0,0
4,48,85,42
4,55,73,240
4,60,77,235
4,64,88,240
4,48,0,363
4,48,78,117
4,55,0,183
4,55,77,57
4,64,0,183
4,64,85,57
4,60,0,400
4,60,64,80
4,55,0,183
4,55,75,57
4,64,0,183
4,64,81,57
4,48,0,183
4,48,83,57
4,55,0,183
4,55,75,57
4,60,0,183
4,60,77,57
4,64,0,238
4,64,75,2
4,64,0,3
4,55,0,57
4,60,0,80
4,48,0,43
4,53,76,60
4,57,75,240
4,60,78,237
4,65,88,240
4,57,0,423
4,57,75,52
4,53,0,188
4,53,74,57
4,53,0,185
4,50,85,50
4,65,0,8
4,57,0,17
4,60,0,10
4,55,75,450
4,59,73,240
4,67,85,240
4,50,0,423
4,50,83,52
4,55,0,128
4,55,75,117
4,59,0,183
4,59,67,57
4,67,0,3
4,50,0,27
4,55,0,148
4,48,83,62
4,59,0,83
4,55,79,157
4,60,75,240
4,64,81,240
4,55,0,423
4,55,67,57
4,64,0,243
4,64,75,2
4,48,0,143
4,55,0,15
4,64,0,47
4,53,79,35
4,60,0,48
4,57,62,430
4,60,81,237
4,65,83,240
4,53,0,145
4,53,79,90
4,57,0,248
4,57,64,2
4,60,0,178
4,60,69,67
4,65,0,223
4,65,63,12
4,53,0,153
4,50,83,87
4,60,0,40
4,57,0,8
4,65,0,30
4,57,77,157
4,62,70,245
4,65,83,235
4,57,0,423
4,57,70,57
4,65,0,183
4,65,69,62
4,50,0,370
4,57,0,48
4,55,83,62
4,62,0,200
4,65,0,33
4,59,69,7
4,62,81,235
4,67,81,245
4,55,0,298
4,55,70,172
4,67,0,188
4,67,66,62
4,55,0,115
4,59,0,65
4,62,0,258
4,67,0,0
4,48,85,42
4,55,73,240
4,60,77,235
4,64,88,240
4,48,0,3003
4,55,0,0
4,64,0,120
4,60,0,120
4,48,92,1800
4,55,79,240
4,60,75,240
4,67,87,240
4,60,0,78
4,60,54,95
4,55,0,102
4,67,0,123
4,55,75,15
4,48,0,215
4,67,87,25
4,55,0,97
4,48,63,143
4,55,79,215
4,60,0,165
4,62,83,13
4,67,0,92
4,67,87,148
4,55,0,112
4,55,64,128
4,60,64,240
4,67,0,102
4,62,0,5
4,67,78,133
4,48,0,185
4,60,0,22
4,62,65,33
4,55,0,37
4,48,83,193
4,53,79,250
4,60,67,230
4,67,0,37
4,65,65,213
4,62,0,27
4,65,0,13
4,60,0,47
4,53,0,333
4,60,73,40
4,53,67,260
4,48,0,197
4,53,0,0
4,65,68,30
4,60,0,60
4,57,67,193
4,64,83,0
4,65,0,5
4,60,57,75
4,64,0,17
4,64,75,223
4,60,0,7
4,60,68,233
4,64,0,57
4,57,0,120
4,60,0,25
4,55,79,38
4,62,83,85
4,55,0,50
4,55,57,70
4,55,0,212
4,62,0,20
4,59,48,8
4,48,87,240
4,59,0,27
4,55,71,193
4,60,71,153
4,67,83,240
4,55,0,147
4,60,0,115
4,60,65,228
4,67,0,125
4,55,67,105
4,48,0,157
4,60,0,70
4,67,75,13
4,55,0,15
4,55,54,225
4,55,0,95
4,55,60,205
4,67,0,150
4,67,87,90
4,55,0,95
4,55,57,145
4,55,0,87
4,67,0,140
4,55,54,13
4,67,79,240
4,62,83,240
4,55,0,5
4,53,83,15
4,62,0,47
4,67,0,28
4,60,68,358
4,65,65,250
4,60,0,230
4,65,0,47
4,53,0,43
4,53,68,142
4,65,79,258
4,53,0,212
4,60,60,28
4,65,0,12
4,60,0,223
4,57,78,5
4,60,71,40
4,64,83,240
4,60,0,70
4,57,0,22
4,55,83,3
4,59,65,247
4,64,0,47
4,59,0,150
4,62,75,8
4,59,64,252
4,62,0,70
4,55,0,43
4,59,0,105
4,55,64,10
4,55,0,140
4,53,102,30
4,57,73,237
4,60,93,222
4,65,106,250
4,53,0,135
4,53,83,108
4,57,0,47
4,60,0,173
4,57,48,12
4,65,0,130
4,60,73,123
4,53,0,140
4,65,81,77
4,52,89,45
4,57,0,43
4,60,0,5
4,55,55,143
4,65,0,80
4,60,77,157
4,64,85,238
4,52,0,85
4,52,67,147
4,55,0,38
4,60,0,145
4,55,45,65
4,64,0,72
4,52,0,125
4,60,45,58
4,64,52,235
4,64,0,85
4,55,0,110
4,60,0,0
4,51,81,30
4,55,81,233
4,60,93,240
4,63,89,242
4,51,0,110
4,51,81,115
4,55,0,60
4,60,0,35
4,55,45,140
4,63,0,82
4,60,77,163
4,51,0,62
4,63,77,165
4,60,0,45
4,55,0,43
4,63,0,22
4,50,93,150
4,57,73,92
4,62,93,243
4,50,0,15
4,57,0,25
4,53,85,5
4,60,97,3
4,62,0,10
4,53,0,80
4,60,0,188
4,55,85,2
4,59,89,3
4,55,0,48
4,59,0,212
4,48,97,103
4,55,89,235
4,60,85,240
4,64,89,242
4,55,0,145
4,55,69,100
4,60,0,148
4,60,74,90
4,55,0,100
4,64,0,40
4,55,64,92
4,48,0,218
4,55,0,5
4,64,81,12
4,55,60,23
4,60,0,87
4,60,70,150
4,64,0,5
4,64,81,123
4,55,0,90
4,55,61,147
4,60,0,85
4,60,64,170
4,55,0,95
4,64,0,33
4,64,97,107
4,55,73,235
4,60,0,65
4,55,0,170
4,60,85,0
4,53,97,28
4,64,0,0
4,60,0,57
4,57,70,73
4,60,89,240
4,65,93,235
4,57,0,20
4,53,0,17
4,60,0,0
4,55,81,38
4,60,93,0
4,65,0,32
4,55,0,118
4,55,77,35
4,59,93,3
4,60,0,32
4,55,0,130
4,59,0,132
4,48,73,90
4,55,81,230
4,60,77,2
4,64,77,243
4,55,0,20
4,55,78,215
4,60,0,90
4,60,67,147
4,64,0,193
4,62,64,57
4,62,0,163
4,64,77,18
4,55,0,75
4,55,67,5
4,60,0,98
4,48,0,120
4,60,77,25
4,64,0,72
4,64,81,163
4,60,0,127
4,60,85,110
4,55,0,48
4,55,77,202
4,60,0,100
4,60,78,140
4,55,0,33
4,60,0,115
4,64,0,7
4,48,89,83
4,48,0,185
4,53,76,243
4,57,75,240
4,60,78,237
4,65,88,240
4,57,0,423
4,57,75,52
4,53,0,188
4,53,74,57
4,53,0,185
4,50,85,50
4,65,0,8
4,57,0,17
4,60,0,10
4,55,75,450
4,59,73,240
4,67,85,240
4,50,0,423
4,50,83,52
4,55,0,128
4,55,75,117
4,59,0,183
4,59,67,57
4,67,0,3
4,50,0,27
4,55,0,148
4,48,83,62
4,59,0,83
4,55,79,157
4,60,75,240
4,64,81,240
4,55,0,423
4,55,67,57
4,64,0,243
4,64,75,2
4,48,0,143
4,55,0,15
4,64,0,47
4,53,79,35
4,60,0,48
4,57,62,430
4,60,81,237
4,65,83,240
4,53,0,145
4,53,79,90
4,57,0,248
4,57,64,2
4,60,0,178
4,60,69,67
4,65,0,223
4,65,63,12
4,53,0,153
4,50,83,87
4,60,0,40
4,57,0,8
4,65,0,30
4,57,77,157
4,62,70,245
4,65,83,235
4,57,0,423
4,57,70,57
4,65,0,183
4,65,69,62
4,50,0,370
4,57,0,48
4,55,83,62
4,62,0,200
4,65,0,33
4,59,69,7
4,62,81,235
4,67,81,245
4,55,0,298
4,55,70,172
4,67,0,188
4,67,66,62
4,55,0,115
4,59,0,65
4,62,0,258
4,67,0,0
4,48,85,42
4,55,73,240
4,60,77,235
4,64,88,240
4,48,0,363
4,48,78,117
4,55,0,183
4,55,77,57
4,64,0,183
4,64,85,57
4,60,0,400
4,60,64,80
4,55,0,183
4,55,75,57
4,64,0,183
4,64,81,57
4,48,0,183
4,48,83,57
4,55,0,183
4,55,75,57
4,60,0,183
4,60,77,57
4,64,0,238
4,64,75,2
4,64,0,3
4,55,0,57
4,60,0,80
4,48,0,43
4,53,76,60
4,57,75,240
4,60,78,237
4,65,88,240
4,57,0,423
4,57,75,52
4,53,0,188
4,53,74,57
4,53,0,185
4,50,85,50
4,65,0,8
4,57,0,17
4,60,0,10
4,55,75,450
4,59,73,240
4,67,85,240
4,50,0,423
4,50,83,52
4,55,0,128
4,55,75,117
4,59,0,183
4,59,67,57
4,67,0,3
4,50,0,27
4,55,0,148
4,48,83,62
4,59,0,83
4,55,79,157
4,60,75,240
4,64,81,240
4,55,0,423
4,55,67,57
4,64,0,243
4,64,75,2
4,48,0,143
4,55,0,15
4,64,0,47
4,53,79,35
4,60,0,48
4,57,62,430
4,60,81,237
4,65,83,240
4,53,0,145
4,53,79,90
4,57,0,248
4,57,64,2
4,60,0,178
4,60,69,67
4,65,0,223
4,65,63,12
4,53,0,153
4,50,83,87
4,60,0,40
4,57,0,8
4,65,0,30
4,57,77,157
4,62,70,245
4,65,83,235
4,57,0,423
4,57,70,57
4,65,0,183
4,65,69,62
4,50,0,370
4,57,0,48
4,55,83,62
4,62,0,200
4,65,0,33
4,59,69,7
4,62,81,235
4,67,81,245
4,55,0,298
4,55,70,172
4,67,0,188
4,67,66,62
4,55,0,115
4,59,0,65
4,62,0,258
4,67,0,0
4,48,85,42
4,55,73,240
4,60,77,235
4,64,88,240
4,48,0,363
4,48,78,117
4,55,0,183
4,55,77,57
4,64,0,183
4,64,85,57
4,60,0,400
4,60,64,80
4,55,0,183
4,55,75,57
4,64,0,183
4,64,81,57
4,48,0,183
4,48,83,57
4,55,0,183
4,55,75,57
4,60,0,183
4,60,77,57
4,64,0,238
4,64,75,2
4,64,0,3
4,55,0,57
4,60,0,80
4,48,0,43
4,53,76,60
4,57,75,240
4,60,78,237
4,65,88,240
4,57,0,423
4,57,75,52
4,53,0,188
4,53,74,57
4,53,0,185
4,50,75,50
4,65,0,8
4,57,0,17
4,60,0,10
4,55,65,450
4,59,63,240
4,67,75,240
