track,note,velocity,time
1,33,119,1584
1,33,115,220
1,33,118,78
1,33,115,194
1,33,117,92
1,33,115,214
1,33,120,120
1,33,115,232
1,30,116,38
1,30,117,212
1,30,119,72
1,30,118,174
1,30,118,100
1,30,117,244
1,30,118,112
1,30,118,240
1,33,119,72
1,33,115,220
1,33,118,78
1,33,115,194
1,33,117,92
1,33,115,214
1,33,120,120
1,33,115,232
1,30,116,38
1,30,117,164
1,30,119,72
1,30,118,174
1,30,118,100
1,30,117,244
1,30,118,112
1,30,118,240
1,33,118,72
1,33,117,240
1,33,118,112
1,33,118,240
1,33,118,72
1,33,117,240
1,33,118,112
1,33,118,240
1,33,114,16602
1,30,114,2
1,35,114,2
1,40,114,2
1,40,114,98
1,40,114,4
1,40,114,2
1,40,114,2
1,33,117,2
1,33,108,50
1,33,114,28
1,42,117,36
1,42,108,50
1,42,114,28
1,35,117,36
1,35,108,50
1,35,114,28
1,40,117,36
1,40,108,50
1,40,114,28
1,40,114,36
1,33,117,2
1,33,108,50
1,33,114,28
1,30,117,36
1,30,108,50
1,30,114,28
1,35,117,36
1,35,108,50
1,35,114,28
1,40,117,36
1,40,108,50
1,40,114,28
1,47,96,10
1,52,114,2
1,47,114,2
1,52,114,2
1,33,119,2
1,33,115,220
1,33,118,78
1,33,115,194
1,33,117,92
1,33,115,214
1,33,120,120
1,33,115,232
1,30,116,38
1,30,117,212
1,30,119,72
1,30,118,174
1,30,118,100
1,30,117,244
1,30,118,112
1,30,118,240
1,35,119,72
1,35,115,220
1,35,118,78
1,35,115,194
1,35,117,92
1,35,115,214
1,35,120,120
1,35,115,232
1,40,116,38
1,40,117,212
1,40,119,72
1,40,118,174
1,40,113,100
1,52,113,2
1,54,117,2
1,52,113,2
1,47,113,2
1,40,109,2
1,33,119,14
1,33,115,220
1,33,118,78
1,33,115,194
1,33,117,92
1,33,115,214
1,33,120,120
1,33,115,232
1,30,116,38
1,30,117,212
1,30,119,72
1,30,118,174
1,30,118,100
1,30,117,244
1,30,118,112
1,30,118,240
1,35,119,72
1,35,115,220
1,35,118,78
1,35,115,194
1,35,117,92
1,35,115,214
1,35,120,120
1,42,115,232
1,40,116,38
1,40,117,212
1,40,119,72
1,40,118,174
1,40,113,100
1,52,113,2
1,54,117,2
1,52,113,2
1,47,113,2
1,40,109,2
1,33,119,14
1,33,115,220
1,33,118,78
1,33,115,194
1,33,117,92
1,33,115,214
1,33,120,120
1,33,115,232
1,30,116,38
1,30,117,212
1,30,119,72
1,30,118,174
1,30,118,100
1,30,117,244
1,30,118,112
1,30,118,240
1,35,119,72
1,35,115,220
1,35,118,78
1,35,115,194
1,35,117,92
1,35,115,214
1,35,120,120
1,42,115,232
1,40,116,38
1,40,117,212
1,40,119,72
1,40,118,174
1,40,113,100
1,52,113,2
1,54,117,2
1,52,113,2
1,47,113,2
1,40,109,2
1,33,119,14
1,33,115,220
1,33,118,78
1,33,115,194
1,33,117,92
1,33,115,214
1,33,120,120
1,33,115,232
1,30,116,38
1,30,117,212
1,30,119,72
1,30,118,174
1,30,118,100
1,30,117,244
1,30,118,112
1,30,118,240
1,35,119,72
1,35,115,220
1,35,118,78
1,35,115,194
1,35,117,92
1,35,115,214
1,35,120,120
1,42,115,232
1,40,116,38
1,40,117,212
1,40,119,72
1,40,118,174
1,40,113,100
1,52,113,2
1,54,117,2
1,52,113,2
1,47,113,2
1,40,109,2
1,33,119,14
1,33,115,220
1,33,118,78
1,33,115,194
1,33,117,92
1,33,115,214
1,33,120,120
1,33,115,232
1,30,116,38
1,30,117,212
1,30,119,72
1,30,118,174
1,30,118,100
1,30,117,244
1,30,118,112
1,30,118,240
1,35,119,72
1,35,115,220
1,35,118,78
1,35,115,194
1,35,117,92
1,35,115,214
1,35,120,120
1,42,115,232
1,40,116,38
1,40,117,212
1,40,119,72
1,40,118,174
1,40,113,100
1,40,117,194
1,40,113,72
1,40,109,194
1,33,119,76
1,33,115,220
1,33,118,78
1,33,115,194
1,33,117,92
1,33,115,214
1,33,120,120
1,33,115,232
1,30,116,38
1,30,117,212
1,30,119,72
1,30,118,174
1,30,118,100
1,30,117,244
1,30,118,112
1,30,118,240
1,35,119,72
1,35,115,220
1,35,118,78
1,35,115,194
1,35,117,92
1,35,115,214
1,35,120,120
1,42,115,232
1,40,116,38
1,40,117,212
1,40,119,72
1,40,118,174
1,40,113,100
1,40,117,194
1,40,113,72
1,40,109,194
1,33,119,76
1,33,115,220
1,33,118,78
1,33,115,194
1,33,117,92
1,33,115,214
1,33,120,120
1,33,115,232
1,30,116,38
1,30,117,212
1,30,119,72
1,30,118,174
1,30,118,100
1,30,117,244
1,30,118,112
1,30,118,240
1,35,119,72
1,35,115,220
1,35,118,78
1,35,115,194
1,35,117,92
1,35,115,214
1,35,120,120
1,42,115,232
1,40,116,38
1,40,117,212
1,40,119,72
1,40,118,174
1,40,113,100
1,40,117,194
1,40,113,72
1,40,109,194
1,33,119,76
1,33,115,220
1,33,118,78
1,33,115,194
1,33,117,92
1,33,115,214
1,33,120,120
1,33,115,232
1,30,116,38
1,30,117,212
1,30,119,72
1,30,118,174
1,30,118,100
1,30,117,244
1,30,118,112
1,30,118,240
1,35,119,72
1,35,115,220
1,35,118,78
1,35,115,194
1,35,117,92
1,35,115,214
1,35,120,120
1,42,115,232
1,40,116,38
1,40,117,212
1,40,119,72
1,40,118,174
1,40,113,100
1,40,117,194
1,40,113,72
1,40,109,194
1,33,119,76
1,33,115,220
1,33,118,78
1,33,115,194
1,33,117,92
1,33,115,214
1,33,120,120
1,33,115,232
1,30,116,38
1,30,117,212
1,30,119,72
1,30,118,174
1,30,118,100
1,30,117,244
1,30,118,112
1,30,118,240
1,35,119,72
1,35,115,220
1,35,118,78
1,35,115,194
1,35,117,92
1,35,115,22
1,35,120,8
1,42,115,36
1,40,116,38
1,40,117,14
1,40,119,12
1,40,118,10
1,40,113,42
1,40,117,32
1,40,113,40
1,40,109,14
2,57,115,40640
2,59,114,334
2,57,106,8
2,61,112,374
2,62,111,8
2,61,110,10
2,57,111,14
2,59,116,370
2,57,111,8
2,61,116,386
2,62,115,8
2,61,115,8
2,59,116,8
2,61,114,388
2,59,111,8
2,61,112,412
2,62,112,8
2,61,114,8
2,59,111,18
2,57,110,8
2,59,112,8
2,61,113,8
2,62,111,8
2,61,115,8
2,59,114,8
2,57,111,14
2,59,112,8
2,61,112,8
2,62,113,12
2,64,111,38
2,69,116,10
2,71,112,354
2,69,111,8
2,73,110,380
2,74,112,8
2,73,115,8
2,69,116,10
2,71,111,378
2,69,111,8
2,73,114,380
2,74,113,8
2,73,115,8
2,71,113,8
2,73,112,376
2,71,112,14
2,69,121,21646
2,71,121,388
2,69,117,8
2,73,120,374
2,74,120,8
2,73,121,8
2,69,120,8
2,71,122,378
2,69,118,8
2,73,119,388
2,74,118,8
2,73,120,8
2,71,120,8
2,73,121,380
2,71,119,32
2,57,117,12480
2,57,114,46
2,57,116,80
2,57,118,96
2,59,116,12
2,57,115,8
2,64,116,26
2,61,113,8
2,57,116,678
2,57,116,106
2,57,117,92
2,57,116,106
2,57,116,100
2,59,117,22
2,57,116,8
2,54,111,8
2,59,117,646
2,59,117,56
2,59,117,86
2,59,115,90
2,59,116,64
2,61,116,46
2,59,117,8
2,54,115,2
2,57,116,758
2,59,117,8
2,61,116,8
2,62,118,8
2,57,116,374
2,59,117,8
2,61,117,8
2,62,118,8
2,61,119,8
2,57,117,8
2,59,117,396
2,57,114,8
2,61,117,410
2,62,114,8
2,61,117,22
2,57,114,18
2,59,116,368
2,57,115,16
2,61,118,366
2,62,116,8
2,61,118,8
2,59,117,18
2,61,117,404
2,59,116,8
2,69,121,3246
2,71,122,332
2,69,120,8
2,73,121,348
2,74,120,8
2,73,121,8
2,69,122,10
2,71,122,362
2,69,120,16
2,73,120,380
2,74,119,8
2,73,120,8
2,71,122,8
2,73,121,408
2,71,122,76
2,57,114,12418
2,59,116,408
2,57,110,8
2,61,118,432
2,62,118,8
2,61,119,8
2,57,120,8
2,59,118,402
2,57,114,22
2,61,119,432
2,62,114,8
2,61,117,8
2,59,115,12
2,61,113,426
2,59,113,30
3,57,127,13068
3,59,127,402
3,57,121,2
3,61,127,400
3,62,127,2
3,61,127,2
3,57,127,12
3,59,127,408
3,57,123,2
3,61,127,382
3,62,127,2
3,61,127,2
3,59,127,4
3,61,127,366
3,59,127,2
3,61,127,392
3,62,127,2
3,61,127,2
3,59,127,20
3,57,127,2
3,59,127,2
3,61,127,2
3,62,127,8
3,61,127,2
3,59,127,22
3,57,127,2
3,59,127,2
3,61,127,2
3,62,127,2
3,61,127,2
3,57,127,2
3,59,127,402
3,57,121,2
3,61,127,400
3,62,127,2
3,61,127,2
3,57,127,12
3,59,127,408
3,57,123,2
3,61,127,382
3,62,127,2
3,61,127,2
3,59,127,4
3,61,127,366
3,59,127,2
3,61,127,392
3,62,127,2
3,61,127,2
3,59,127,20
3,57,127,2
3,59,127,2
3,61,127,2
3,62,127,8
3,61,127,2
3,59,127,22
3,57,127,2
3,59,127,2
3,61,127,2
3,62,127,2
3,64,127,2
3,69,127,2
3,71,127,402
3,69,121,2
3,73,127,400
3,74,127,2
3,73,127,2
3,69,127,12
3,71,127,408
3,69,123,2
3,73,127,382
3,74,127,2
3,73,127,2
3,71,127,4
3,73,127,366
3,71,127,2
3,73,127,392
3,74,127,2
3,73,127,2
3,71,127,20
3,69,127,2
3,71,127,2
3,73,127,2
3,74,127,8
3,73,127,2
3,71,127,22
3,69,127,2
3,71,127,2
3,73,127,2
3,74,127,2
3,73,127,2
3,69,125,2
3,69,125,36
3,69,125,28
3,69,124,36
3,71,125,24
3,69,125,2
3,76,126,32
3,73,97,2
3,69,125,774
3,69,125,36
3,69,125,28
3,69,124,36
3,69,125,24
3,71,125,14
3,69,118,10
3,66,99,2
3,71,125,774
3,71,124,40
3,71,125,56
3,71,125,66
3,71,125,74
3,73,123,12
3,71,117,2
3,69,91,2
3,66,87,2
3,69,124,876
3,71,125,6
3,73,126,38
3,74,127,44
3,69,125,324
3,71,126,18
3,73,125,2
3,74,126,2
3,76,125,28
3,81,127,22
3,81,127,350
3,81,127,118
3,78,98,2
3,81,124,96
3,81,126,102
3,81,127,56
3,81,127,66
3,81,127,370
3,81,125,92
3,76,123,2
3,81,127,56
3,81,127,44
3,81,127,84
3,81,127,66
3,81,127,366
3,81,127,110
3,76,120,2
3,73,121,186
3,74,124,24
3,73,124,2
3,71,122,10
3,69,124,2
3,71,124,12
3,73,123,2
3,74,125,6
3,73,124,2
3,71,124,20
3,69,121,2
3,71,124,2
3,73,123,2
3,74,124,2
3,73,125,2
3,69,125,38
3,69,125,36
3,69,125,28
3,69,124,36
3,71,125,24
3,69,125,2
3,76,126,32
3,73,97,2
3,69,125,774
3,69,125,36
3,69,125,28
3,69,124,36
3,69,125,24
3,71,125,14
3,69,118,10
3,66,99,2
3,71,125,774
3,71,124,40
3,71,125,56
3,71,125,66
3,71,125,74
3,73,123,12
3,71,117,2
3,69,91,2
3,66,87,2
3,69,124,876
3,71,125,6
3,73,126,38
3,74,127,44
3,69,125,324
3,71,126,18
3,73,125,2
3,74,126,2
3,73,125,28
3,69,127,22
3,71,125,350
3,69,124,6
3,73,126,350
3,74,124,2
3,73,126,2
3,69,127,2
3,71,126,370
3,69,121,2
3,73,125,350
3,74,124,2
3,73,127,2
3,71,126,2
3,73,125,378
3,71,125,2
3,73,123,382
3,74,124,2
3,73,126,2
3,71,126,10
3,69,126,8
3,71,125,10
3,73,124,16
3,74,124,8
3,73,126,6
3,71,125,22
3,69,126,2
3,71,125,30
3,73,125,16
3,74,124,8
3,73,127,10
3,69,126,10
3,69,125,56
3,69,126,54
3,69,126,56
3,69,122,70
3,69,124,56
3,76,124,22
3,73,124,2
3,69,124,770
3,69,124,36
3,69,125,58
3,69,123,76
3,69,125,64
3,71,120,2
3,69,119,2
3,64,115,2
3,71,125,530
3,71,126,42
3,71,125,66
3,71,120,64
3,71,119,60
3,73,121,20
3,71,117,2
3,66,110,2
3,69,124,918
3,71,124,18
3,73,125,36
3,74,126,18
3,69,124,394
3,71,125,20
3,73,123,10
3,74,126,4
3,76,126,6
3,81,127,36
3,81,127,350
3,81,127,118
3,78,98,2
3,81,124,96
3,81,126,102
3,81,127,56
3,81,127,66
3,81,127,370
3,81,125,92
3,76,123,2
3,81,127,56
3,81,127,44
3,81,127,84
3,81,127,66
3,81,127,366
3,81,127,110
3,76,120,2
3,81,127,186
3,81,127,14
3,81,127,54
3,80,126,24
3,76,125,8
3,76,127,46
3,78,126,60
3,78,126,68
3,78,126,62
3,80,125,48
3,78,127,34
3,76,125,36
3,76,124,50
3,73,125,36
3,71,126,18
3,69,85,44
3,69,82,46
3,69,84,80
3,69,86,96
3,71,84,12
3,69,83,8
3,76,84,26
3,73,81,8
3,69,84,678
3,69,84,106
3,69,85,92
3,69,84,106
3,69,84,100
3,71,85,22
3,69,84,8
3,66,79,8
3,71,85,646
3,71,85,56
3,71,85,86
3,71,83,90
3,71,84,64
3,73,84,46
3,71,85,8
3,66,83,2
3,69,125,758
3,71,125,14
3,73,124,38
3,74,127,2
3,76,127,288
3,76,126,62
3,76,125,64
3,78,123,4
3,76,124,10
3,76,120,4
3,73,123,2
3,74,127,726
3,73,123,2
3,74,125,1198
3,71,98,2
3,73,98,2
3,73,121,1940
3,74,122,64
3,73,121,2
3,71,121,16
3,69,121,2
3,71,122,18
3,73,121,36
3,74,121,22
3,73,122,8
3,71,121,26
3,69,121,2
3,71,121,20
3,73,119,8
3,74,121,2
3,73,122,2
3,69,126,12
3,69,125,56
3,69,126,54
3,69,126,56
3,69,122,70
3,69,124,56
3,76,124,22
3,73,124,2
3,69,124,770
3,69,124,36
3,69,125,58
3,69,123,76
3,69,125,64
3,71,120,2
3,69,119,2
3,64,115,2
3,71,125,530
3,71,126,42
3,71,125,66
3,71,120,64
3,71,119,60
3,73,121,20
3,71,117,2
3,66,110,2
3,69,124,918
3,71,124,18
3,73,125,36
3,74,126,18
3,69,124,394
3,71,125,20
3,73,123,10
3,74,126,4
3,76,126,6
3,81,127,36
3,81,127,350
3,81,127,118
3,78,98,2
3,81,124,96
3,81,126,102
3,81,127,56
3,81,127,66
3,81,127,370
3,81,125,92
3,76,123,2
3,81,127,56
3,81,127,44
3,81,127,84
3,81,127,66
3,81,127,366
3,81,127,110
3,76,120,2
3,81,127,186
3,81,127,14
3,81,127,54
3,80,126,24
3,76,125,8
3,76,127,46
3,78,126,60
3,78,126,68
3,78,126,62
3,80,125,48
3,78,127,34
3,76,125,36
3,76,124,50
3,73,125,36
3,71,126,18
3,69,125,44
3,71,124,372
3,69,120,2
3,69,124,408
3,73,124,2
3,76,125,48
3,81,127,16
3,81,127,406
3,81,116,72
3,78,121,2
3,81,127,200
3,80,126,2
3,78,125,30
3,71,125,2
3,73,123,360
3,71,122,2
3,71,123,2
3,78,124,2
3,81,125,4
3,80,125,22
3,76,120,2
3,76,122,10
3,78,125,4
3,78,125,2
3,78,125,4
3,80,125,38
3,78,122,2
3,76,122,22
3,76,117,34
3,73,122,10
3,71,124,2
4,81,95,1212
4,83,93,450
4,81,61,8
4,85,83,454
4,86,87,8
4,85,89,8
4,81,82,8
4,83,87,470
4,81,69,18
4,85,83,478
4,86,87,8
4,85,89,8
4,81,74,8
4,83,87,450
4,81,61,8
4,85,83,454
4,86,87,8
4,85,89,8
4,81,82,8
4,83,87,78
4,81,69,18
4,85,83,478
4,86,87,8
4,85,89,8
4,81,71,8
4,57,101,20736
4,56,89,64
4,57,89,40
4,59,101,2088
4,57,92,64
4,59,103,40
4,59,103,2092
4,57,89,64
4,59,97,60
4,59,104,1128
4,59,102,124
4,59,104,316
4,59,96,124
4,57,101,120
4,56,89,64
4,57,89,40
4,57,101,2088
4,56,89,64
4,57,89,40
4,59,101,2088
4,58,92,64
4,59,103,40
4,64,103,2092
4,63,89,64
4,64,97,60
