track,note,velocity,time
1,49,60,4608
1,35,60,0
1,38,30,198
1,59,90,26
1,42,60,0
1,59,60,198
1,59,70,26
1,38,50,0
1,35,60,0
1,38,30,198
1,59,90,26
1,42,60,0
1,59,80,198
1,38,50,0
1,35,60,0
1,59,70,26
1,38,30,198
1,59,90,26
1,42,70,0
1,38,50,0
1,59,60,198
1,38,30,0
1,35,70,0
1,59,70,26
1,38,40,198
1,35,80,0
1,59,90,26
1,42,80,0
1,38,40,198
1,35,80,0
1,59,70,26
1,38,50,0
1,59,90,304
1,42,70,0
1,59,60,198
1,59,70,26
1,38,40,0
1,59,70,198
1,42,80,26
1,59,90,198
1,38,50,0
1,35,60,0
1,59,80,26
1,59,90,304
1,42,70,0
1,59,70,204
1,59,80,20
1,59,90,304
1,42,70,0
1,59,70,204
1,59,70,20
1,35,60,0
1,38,30,201
1,59,90,23
1,42,60,0
1,59,60,201
1,59,80,23
1,38,40,0
1,35,60,0
1,59,90,304
1,42,60,0
1,59,70,201
1,35,60,0
1,59,70,23
1,38,30,198
1,59,90,26
1,42,70,0
1,38,50,0
1,59,60,198
1,38,30,0
1,35,70,0
1,59,70,26
1,59,69,198
1,38,69,42
1,38,81,0
1,35,81,0
1,38,81,0
1,35,81,173
1,38,81,0
1,51,81,276
1,35,69,0
1,51,81,404
1,35,69,0
1,51,81,288
1,35,69,0
1,35,69,173
1,51,81,0
1,51,61,1517
1,38,8,210
1,44,55,82
1,51,75,0
1,51,49,211
1,38,100,82
1,51,72,0
1,36,62,24
1,51,69,162
1,38,69,42
1,38,81,0
1,38,81,0
1,35,81,0
1,38,81,173
1,35,81,0
1,38,8,1684
1,38,42,82
1,44,55,82
1,51,78,0
1,38,18,82
1,38,14,20
1,51,77,17
1,36,67,0
1,38,30,22
1,35,70,0
1,51,67,26
1,38,66,82
1,38,66,68
1,51,69,35
1,35,81,26
1,38,81,0
1,35,81,173
1,38,81,0
1,38,54,1108
1,38,55,0
1,38,61,0
1,35,61,0
1,51,60,204
1,35,60,0
1,38,60,0
1,51,80,20
1,51,90,304
1,42,70,0
1,51,60,204
1,51,80,20
1,51,90,304
1,37,70,0
1,42,70,0
1,51,60,204
1,51,80,20
1,51,100,304
1,42,70,0
1,51,80,304
1,51,100,304
1,37,70,0
1,42,70,0
1,51,80,304
1,51,90,304
1,42,70,0
1,38,81,0
1,35,81,0
1,38,66,288
1,51,66,0
1,35,66,0
1,38,70,173
1,51,70,0
1,35,70,0
1,38,77,288
1,51,77,0
1,35,77,0
1,51,76,404
1,35,76,0
1,51,69,557
1,38,60,28
1,51,52,20
1,35,52,0
1,51,59,39
1,51,69,39
1,38,30,28
1,51,80,20
1,51,90,304
1,42,70,0
1,51,60,201
1,51,80,23
1,51,90,304
1,37,60,0
1,42,70,0
1,51,60,201
1,51,80,23
1,51,100,304
1,42,70,0
1,38,75,0
1,51,80,0
1,38,75,167
1,51,100,39
1,37,70,0
1,42,70,0
1,51,80,304
1,38,75,176
1,51,90,39
1,42,70,0
1,38,75,176
1,51,60,28
1,51,80,20
1,51,90,304
1,37,70,0
1,42,70,0
1,51,60,204
1,38,75,20
1,51,80,0
1,38,75,295
1,51,90,0
1,42,70,0
1,38,75,167
1,51,80,39
1,51,90,304
1,37,70,0
1,42,70,0
1,51,80,304
1,51,90,304
1,42,70,0
1,51,60,204
1,51,80,20
1,51,90,304
1,37,70,0
1,42,70,0
1,51,60,204
1,51,80,20
1,51,100,304
1,42,70,0
1,51,80,304
1,51,100,304
1,37,70,0
1,42,70,0
1,51,80,304
1,51,100,304
1,42,70,0
1,51,80,304
1,51,100,304
1,37,70,0
1,42,70,0
1,51,80,0
1,51,90,116
1,42,70,0
1,51,60,150
1,51,80,0
1,38,20,16
1,51,90,20
1,37,70,0
1,42,70,0
1,38,40,0
1,51,60,150
1,51,80,0
1,51,90,304
1,42,70,0
1,51,60,204
1,51,80,20
1,51,90,304
1,37,70,0
1,42,70,0
1,51,60,204
1,51,80,20
1,51,90,304
1,42,70,0
1,51,60,204
1,51,80,20
1,51,90,304
1,37,70,0
1,42,70,0
1,51,60,204
1,51,80,20
1,51,90,304
1,42,70,0
1,51,60,204
1,51,80,20
1,51,90,304
1,37,70,0
1,42,70,0
1,51,60,204
1,51,80,0
1,40,67,52
1,40,74,0
1,35,90,0
1,40,90,0
1,51,90,0
1,42,70,0
1,51,60,16
1,35,88,0
1,40,88,0
1,51,80,0
1,35,88,122
1,40,88,0
1,51,90,0
1,37,70,0
1,42,70,0
1,40,88,122
1,35,88,0
1,49,88,0
1,51,60,16
1,51,80,0
1,51,90,304
1,42,70,0
1,51,60,204
1,40,74,36
1,40,79,0
1,35,88,0
1,40,88,0
1,51,80,0
1,35,88,167
1,40,88,0
1,51,90,0
1,37,70,0
1,42,70,0
1,40,88,176
1,35,88,0
1,57,88,0
1,51,60,28
1,51,80,20
1,51,90,304
1,42,70,0
1,35,94,304
1,40,94,0
1,51,80,0
1,40,80,224
1,40,85,0
1,35,70,0
1,40,94,0
1,51,90,0
1,37,70,0
1,42,70,0
1,35,94,173
1,40,94,0
1,49,94,0
1,51,80,39
1,51,100,304
1,42,70,0
1,35,94,304
1,40,94,0
1,51,80,0
1,40,94,0
1,35,70,0
1,51,100,0
1,37,70,0
1,42,70,0
1,40,94,173
1,35,94,0
1,51,80,39
1,51,90,304
1,42,70,0
1,51,80,304
1,51,90,304
1,37,70,0
1,42,70,0
1,40,80,240
1,40,84,0
1,40,94,0
1,51,80,0
1,35,88,167
1,57,88,0
1,40,88,0
1,51,100,20
1,42,70,0
1,35,88,304
1,40,88,0
1,51,80,0
1,40,88,173
1,51,100,20
1,37,70,0
1,42,70,0
1,35,88,176
1,40,88,0
1,49,88,0
1,51,80,20
1,51,90,304
1,42,70,0
1,51,60,204
1,35,88,20
1,40,88,0
1,51,80,0
1,40,88,173
1,38,80,64
1,38,84,0
1,38,94,0
1,51,90,0
1,35,70,0
1,42,70,0
1,35,88,173
1,40,88,0
1,57,88,0
1,51,60,28
1,51,80,20
1,51,100,304
1,42,70,0
1,35,88,39
1,40,88,0
1,51,80,0
1,40,88,173
1,38,82,64
1,38,86,0
1,38,94,0
1,51,100,0
1,35,70,0
1,42,70,0
1,38,82,39
1,35,88,39
1,40,88,0
1,49,88,0
1,51,80,23
1,51,90,304
1,42,70,0
1,38,77,93
1,38,81,0
1,35,88,0
1,38,88,0
1,51,80,0
1,38,88,173
1,38,70,20
1,51,90,0
1,35,70,0
1,42,70,0
1,49,88,176
1,57,88,0
1,40,88,0
1,35,88,0
1,51,80,23
1,38,88,304
1,51,90,0
1,42,70,0
1,38,88,29
1,51,60,25
1,51,80,20
1,40,88,176
1,51,90,20
1,37,60,0
1,42,70,0
1,35,88,176
1,49,88,0
1,40,88,0
1,51,60,25
1,51,80,20
1,51,90,304
1,42,70,0
1,51,60,204
1,51,80,0
1,51,90,304
1,37,70,0
1,42,70,0
1,51,60,204
1,51,80,20
1,35,70,304
1,42,70,0
1,40,88,0
1,51,90,0
1,42,70,0
1,35,88,167
1,49,88,0
1,40,88,0
1,51,60,28
1,51,80,20
1,40,79,240
1,40,85,0
1,40,88,0
1,51,90,0
1,35,70,0
1,42,70,0
1,35,88,167
1,38,88,0
1,35,80,0
1,49,80,0
1,51,80,0
1,51,90,304
1,42,70,0
1,51,60,201
1,51,80,23
1,51,90,304
1,37,60,0
1,42,70,0
1,51,60,201
1,51,80,23
1,51,90,304
1,42,70,0
1,51,60,204
1,51,80,20
1,51,90,304
1,37,70,0
1,42,70,0
1,51,60,204
1,51,80,20
1,51,90,304
1,42,70,0
1,51,60,201
1,51,80,23
1,51,90,304
1,37,60,0
1,42,70,0
1,51,60,201
1,51,80,23
1,51,90,304
1,42,70,0
1,51,80,304
1,51,90,304
1,37,70,0
1,42,70,0
1,51,80,304
1,51,90,304
1,42,70,0
1,51,60,204
1,51,80,20
1,51,90,304
1,37,70,0
1,42,70,0
1,51,60,204
1,51,80,20
1,51,90,304
1,42,70,0
1,51,80,304
1,51,90,304
1,37,70,0
1,42,70,0
1,51,80,304
1,51,90,304
1,42,70,0
1,51,60,204
1,51,80,20
1,51,90,304
1,37,70,0
1,42,70,0
1,51,60,204
1,51,80,20
1,51,100,304
1,42,70,0
1,51,80,304
1,51,100,304
1,37,70,0
1,42,70,0
1,51,80,304
1,51,90,304
1,42,70,0
1,51,60,204
1,51,80,20
1,51,90,304
1,37,70,0
1,42,70,0
1,51,60,204
1,51,80,20
1,51,90,304
1,42,70,0
1,51,80,304
1,51,90,304
1,37,70,0
1,42,70,0
1,51,80,304
1,51,100,304
1,42,70,0
1,51,80,304
1,51,100,304
1,37,70,0
1,42,70,0
1,51,80,304
1,51,90,304
1,42,70,0
1,51,80,304
1,51,90,304
1,37,70,0
1,42,70,0
1,51,80,304
1,51,100,304
1,42,70,0
1,51,80,304
1,51,100,304
1,37,70,0
1,42,70,0
1,51,80,304
1,51,90,304
1,42,70,0
1,51,80,304
1,51,90,304
1,37,70,0
1,42,70,0
1,51,80,304
1,51,90,304
1,42,70,0
1,51,60,201
1,51,80,23
1,51,90,304
1,37,60,0
1,42,70,0
1,51,60,201
1,51,80,0
1,51,90,77
1,42,70,0
1,51,60,54
1,51,80,0
1,38,20,131
1,51,90,20
1,37,70,0
1,42,70,0
1,38,40,0
1,51,60,54
1,51,80,0
1,51,90,304
1,42,70,0
1,51,60,204
1,51,80,20
1,51,90,304
1,37,70,0
1,42,70,0
1,51,60,204
1,51,80,20
1,51,90,304
1,42,70,0
1,51,80,304
1,51,90,304
1,37,70,0
1,42,70,0
1,51,80,304
1,51,90,304
1,42,70,0
1,51,60,201
1,51,80,23
1,51,90,304
1,37,60,0
1,42,70,0
1,51,60,201
1,51,80,23
1,51,100,304
1,42,70,0
1,51,80,304
1,51,100,304
1,37,70,0
1,42,70,0
1,51,80,304
1,51,90,304
1,42,70,0
1,51,60,204
1,51,80,20
1,51,90,304
1,37,70,0
1,42,70,0
1,51,60,204
1,51,80,20
1,51,100,304
1,42,70,0
1,51,80,304
1,51,100,304
1,37,70,0
1,42,70,0
1,51,80,304
1,51,100,304
1,42,70,0
1,51,80,304
1,51,100,304
1,37,70,0
1,42,70,0
1,51,80,304
1,51,90,304
1,42,70,0
1,51,80,304
1,51,90,304
1,37,70,0
1,42,70,0
1,51,80,304
1,51,90,304
1,42,70,0
1,51,60,204
1,51,80,20
1,51,90,304
1,37,70,0
1,42,70,0
1,51,60,204
1,51,80,20
1,51,90,304
1,42,70,0
1,51,60,204
1,51,80,20
1,51,90,304
1,37,70,0
1,42,70,0
1,51,60,204
1,51,80,20
1,51,100,304
1,42,70,0
1,51,80,304
1,51,100,304
1,37,70,0
1,42,70,0
1,51,80,304
1,51,90,304
1,42,70,0
1,51,80,304
1,51,90,304
1,37,70,0
1,42,70,0
1,51,80,304
1,51,90,304
1,42,70,0
1,51,60,204
1,51,80,20
1,51,90,304
1,37,70,0
1,42,70,0
1,51,60,204
1,51,80,20
1,51,100,304
1,42,70,0
1,51,80,304
1,51,100,304
1,37,70,0
1,42,70,0
1,51,80,304
1,51,90,304
1,42,70,0
1,51,60,204
1,51,80,20
1,51,90,304
1,37,70,0
1,42,70,0
1,51,60,204
1,51,80,20
1,51,90,304
1,42,70,0
1,51,60,204
1,51,80,20
1,38,20,204
1,51,90,20
1,37,70,0
1,42,70,0
1,38,40,0
1,51,60,204
1,51,80,20
1,51,90,304
1,42,70,0
1,51,60,201
1,51,80,23
1,51,90,304
1,37,60,0
1,42,70,0
1,51,60,201
1,51,80,23
1,51,90,304
1,42,70,0
1,51,60,204
1,51,80,20
1,51,90,304
1,37,70,0
1,42,70,0
1,51,60,204
1,51,80,20
1,51,90,304
1,42,70,0
1,51,60,201
1,51,80,23
1,51,90,304
1,37,60,0
1,42,70,0
1,51,60,201
1,51,80,23
1,51,90,304
1,42,70,0
1,51,80,304
1,51,90,304
1,37,70,0
1,42,70,0
1,51,80,304
1,51,100,304
1,42,70,0
1,51,80,304
1,51,100,304
1,37,70,0
1,42,70,0
1,51,80,304
1,51,90,304
1,42,70,0
1,51,60,204
1,51,80,20
1,51,90,304
1,37,70,0
1,42,70,0
1,51,60,204
1,51,80,20
1,51,100,304
1,42,70,0
1,51,80,304
1,51,100,304
1,37,70,0
1,42,70,0
1,51,80,304
1,51,90,0
1,42,70,0
1,51,60,0
1,51,80,0
1,38,60,0
1,51,90,0
1,42,70,0
1,51,60,0
1,38,30,0
1,51,80,0
1,51,100,304
1,42,70,0
1,51,80,304
1,51,100,304
1,37,70,0
1,42,70,0
1,51,80,304
1,51,90,304
1,42,70,0
1,51,80,304
1,51,90,304
1,37,70,0
1,42,70,0
1,51,80,304
1,51,90,304
1,42,70,0
1,51,60,201
1,51,80,23
1,51,90,304
1,37,60,0
1,42,70,0
1,51,60,201
1,51,80,23
1,51,90,304
1,42,70,0
1,51,60,204
1,51,80,20
1,51,90,304
1,37,70,0
1,42,70,0
1,51,60,204
1,51,80,20
1,51,90,304
1,42,70,0
1,51,60,204
1,51,80,20
1,51,90,304
1,37,70,0
1,42,70,0
1,51,60,204
1,51,80,20
1,51,90,304
1,42,70,0
1,51,60,204
1,51,80,20
1,51,90,304
1,37,70,0
1,42,70,0
1,51,60,204
1,51,80,20
1,51,90,304
1,42,70,0
1,51,60,204
1,51,80,20
1,51,90,304
1,37,70,0
1,42,70,0
1,51,60,204
1,51,80,20
1,51,90,304
1,42,70,0
1,51,60,204
1,51,80,20
1,38,20,204
1,51,90,20
1,37,70,0
1,42,70,0
1,38,40,0
1,51,60,204
1,49,30,20
1,51,80,0
1,51,100,304
1,42,70,0
1,51,80,304
1,51,100,304
1,37,70,0
1,42,70,0
1,51,80,304
1,51,90,304
1,42,70,0
1,51,60,204
1,51,80,20
1,51,90,304
1,37,70,0
1,42,70,0
1,51,60,204
1,51,80,20
1,51,90,304
1,42,70,0
1,51,60,201
1,51,80,23
1,51,90,304
1,37,60,0
1,42,70,0
1,51,60,201
1,51,80,23
1,51,90,304
1,42,70,0
1,51,80,304
1,51,90,304
1,37,70,0
1,42,70,0
1,51,80,304
1,51,100,304
1,42,70,0
1,51,80,304
1,51,100,304
1,37,70,0
1,42,70,0
1,51,80,304
1,51,90,304
1,42,70,0
1,51,60,204
1,51,80,20
1,51,90,304
1,37,70,0
1,42,70,0
1,51,60,204
1,51,80,20
1,51,90,304
1,42,70,0
1,51,60,201
1,51,80,23
1,51,90,304
1,37,60,0
1,42,70,0
1,51,60,201
1,51,80,23
1,51,90,304
1,42,70,0
1,51,60,204
1,51,80,20
1,51,90,304
1,37,70,0
1,42,70,0
1,51,60,204
1,51,80,20
1,51,100,304
1,42,70,0
1,51,80,304
1,51,100,304
1,37,70,0
1,42,70,0
1,51,80,304
1,51,100,304
1,42,70,0
1,51,80,304
1,51,100,304
1,37,70,0
1,42,70,0
1,51,80,304
1,51,90,304
1,42,70,0
1,51,60,201
1,51,80,23
1,51,90,304
1,37,60,0
1,42,70,0
1,51,60,201
1,51,80,23
1,51,90,304
1,42,70,0
1,51,80,304
1,51,90,304
1,37,70,0
1,42,70,0
1,51,80,304
1,51,100,304
1,42,70,0
1,51,80,304
1,51,100,304
1,37,70,0
1,42,70,0
1,51,80,304
1,51,100,304
1,42,70,0
1,51,80,304
1,51,100,304
1,37,70,0
1,42,70,0
1,51,80,304
1,51,90,304
1,42,70,0
1,51,60,201
1,51,80,23
1,51,90,304
1,37,60,0
1,42,70,0
1,51,60,201
1,51,80,0
1,51,90,0
1,42,70,0
1,51,60,92
1,51,80,0
1,38,72,32
1,38,81,0
1,51,90,0
1,35,70,0
1,42,70,0
1,38,90,0
1,49,88,0
1,38,88,0
1,35,88,0
1,51,90,301
1,42,70,0
1,51,60,67
1,51,80,20
1,38,88,0
1,38,86,167
1,35,86,0
1,51,90,39
1,35,70,0
1,42,70,0
1,38,82,167
1,35,82,0
1,51,60,28
