track,note,velocity,time
1,31,127,2251
1,43,127,39
1,31,127,62
1,43,127,40
1,31,127,50
1,43,127,40
1,31,127,52
1,43,127,39
1,28,127,50
1,40,127,37
1,28,127,43
1,40,127,42
1,28,127,50
1,40,127,38
1,28,127,50
1,40,127,40
1,33,127,53
1,45,127,37
1,33,127,44
1,45,127,37
1,33,127,50
1,45,127,40
1,33,127,52
1,45,127,39
1,26,127,53
1,38,127,40
1,26,127,45
1,38,127,42
1,26,127,50
1,38,127,40
1,26,127,50
1,38,127,40
1,31,127,53
1,43,127,38
1,31,127,44
1,43,127,42
1,31,127,48
1,43,127,37
1,31,127,50
1,43,127,39
1,28,127,52
1,40,127,40
1,28,127,45
1,40,127,40
1,28,127,50
1,40,127,37
1,28,127,49
1,40,127,42
1,31,127,55
1,43,127,40
1,31,127,47
1,43,127,42
1,31,127,50
1,43,127,42
1,31,127,50
1,43,127,38
1,28,127,53
1,40,127,40
1,28,127,45
1,40,127,41
1,28,127,48
1,40,127,39
1,28,127,50
1,40,127,43
1,36,127,55
1,48,127,38
1,36,127,46
1,48,127,41
1,38,127,53
1,50,127,37
1,38,127,48
1,50,127,38
1,33,127,53
1,45,127,41
1,33,127,45
1,45,127,38
1,38,127,52
1,50,127,40
1,38,127,53
1,50,127,41
1,31,127,51
1,43,127,39
1,31,127,49
1,43,127,42
1,31,127,50
1,43,127,40
1,31,127,51
1,43,127,42
1,28,127,53
1,40,127,37
1,28,127,42
1,40,127,42
1,28,127,50
1,40,127,40
1,28,127,50
1,40,127,39
1,33,127,52
1,45,127,42
1,35,127,46
1,47,127,41
1,36,127,51
1,48,127,38
1,37,127,52
1,49,127,40
1,38,127,53
1,50,127,38
1,38,127,44
1,50,127,37
1,38,127,48
1,50,127,37
1,38,127,52
1,50,127,38
1,36,127,51
1,48,127,41
1,36,127,46
1,48,127,39
1,38,127,50
1,50,127,38
1,38,127,48
1,50,127,37
1,31,127,53
1,43,127,40
1,36,127,50
1,48,127,40
1,38,127,52
1,50,127,39
1,38,127,46
1,50,127,39
1,31,127,52
1,43,127,42
1,31,127,48
1,43,127,37
1,31,127,52
1,43,127,38
1,31,127,52
1,43,127,44
1,28,127,52
1,40,127,38
1,28,127,44
1,40,127,39
1,28,127,51
1,40,127,41
1,28,127,50
1,40,127,39
1,31,127,52
1,43,127,39
1,31,127,45
1,43,127,39
1,31,127,52
1,43,127,39
1,31,127,52
1,43,127,37
1,28,127,51
1,40,127,41
1,28,127,46
1,40,127,42
1,28,127,50
1,40,127,39
1,28,127,50
1,40,127,40
1,36,127,50
1,48,127,38
1,36,127,45
1,48,127,38
1,38,127,50
1,50,127,38
1,38,127,48
1,50,127,39
1,33,127,54
1,45,127,40
1,33,127,44
1,45,127,38
1,38,127,53
1,50,127,40
1,38,127,52
1,50,127,38
1,31,127,52
1,43,127,37
1,31,127,46
1,43,127,40
1,31,127,52
1,43,127,37
1,31,127,50
1,43,127,39
1,28,127,51
1,40,127,37
1,28,127,45
1,40,127,42
1,28,127,52
1,40,127,41
1,28,127,50
1,40,127,38
1,33,127,54
1,45,127,39
1,35,127,45
1,47,127,40
1,36,127,51
1,48,127,39
1,37,127,52
1,49,127,40
1,38,127,53
1,50,127,37
1,38,127,43
1,50,127,40
1,38,127,48
1,50,127,37
1,38,127,52
1,50,127,38
1,36,127,54
1,48,127,39
1,36,127,42
1,48,127,38
1,38,127,52
1,50,127,38
1,38,127,50
1,50,127,39
1,31,127,52
1,43,127,40
1,36,127,50
1,48,127,41
1,31,127,51
1,43,127,37
1,31,127,50
1,43,127,41
1,39,127,52
1,51,127,39
1,39,127,49
1,51,127,41
1,39,127,50
1,51,127,38
1,39,127,52
1,51,127,40
1,39,127,51
1,51,127,38
1,39,127,44
1,51,127,37
1,39,127,50
1,51,127,39
1,39,127,52
1,51,127,42
1,31,127,52
1,43,127,39
1,31,127,46
1,43,127,37
1,36,127,53
1,48,127,39
1,36,127,48
1,48,127,39
1,31,127,53
1,43,127,40
1,31,127,45
1,43,127,37
1,31,127,49
1,43,127,38
1,31,127,50
1,43,127,42
1,38,127,51
1,50,127,38
1,38,127,42
1,50,127,39
1,38,127,48
1,50,127,38
1,38,127,50
1,50,127,37
1,38,127,52
1,50,127,38
1,38,127,44
1,50,127,38
1,35,127,50
1,47,127,37
1,35,127,49
1,47,127,40
1,40,127,54
1,52,127,42
1,40,127,46
1,52,127,41
1,33,127,52
1,45,127,38
1,33,127,51
1,45,127,37
1,38,127,53
1,50,127,37
1,38,127,42
1,50,127,40
1,38,127,50
1,50,127,37
1,38,127,50
1,50,127,40
1,31,127,52
1,43,127,40
1,31,127,49
1,43,127,39
1,31,127,48
1,43,127,38
1,31,127,50
1,43,127,39
1,28,127,49
1,40,127,42
1,28,127,45
1,40,127,39
1,28,127,51
1,40,127,40
1,28,127,50
1,40,127,39
1,31,127,54
1,43,127,39
1,31,127,44
1,43,127,37
1,31,127,52
1,43,127,38
1,31,127,52
1,43,127,40
1,28,127,53
1,40,127,41
1,28,127,48
1,40,127,40
1,28,127,50
1,40,127,42
1,28,127,52
1,40,127,42
1,36,127,51
1,48,127,38
1,36,127,45
1,48,127,40
1,38,127,53
1,50,127,42
1,38,127,52
1,50,127,42
1,33,127,53
1,45,127,42
1,33,127,46
1,45,127,40
1,38,127,52
1,50,127,40
1,38,127,48
1,50,127,40
1,31,127,51
1,43,127,42
1,31,127,43
1,43,127,42
1,31,127,48
1,43,127,37
1,31,127,51
1,43,127,41
1,28,127,53
1,40,127,37
1,28,127,46
1,40,127,40
1,28,127,48
1,40,127,39
1,28,127,52
1,40,127,41
1,33,127,53
1,45,127,40
1,35,127,45
1,47,127,37
1,36,127,50
1,48,127,39
1,37,127,50
1,49,127,38
1,38,127,53
1,50,127,40
1,38,127,41
1,50,127,38
1,38,127,51
1,50,127,38
1,38,127,48
1,50,127,38
1,36,127,54
1,48,127,41
1,36,127,44
1,48,127,38
1,38,127,52
1,50,127,37
1,38,127,50
1,50,127,38
1,31,127,53
1,43,127,38
1,36,127,49
1,48,127,39
1,38,127,52
1,50,127,37
1,38,127,52
1,50,127,41
1,31,127,50
1,43,127,43
1,31,127,43
1,43,127,41
1,31,127,51
1,43,127,42
1,31,127,47
1,43,127,43
1,28,127,53
1,40,127,43
1,28,127,44
1,40,127,39
1,28,127,50
1,40,127,37
1,28,127,51
1,40,127,42
1,31,127,54
1,43,127,42
1,31,127,44
1,43,127,42
1,31,127,50
1,43,127,43
1,31,127,50
1,43,127,44
1,28,127,54
1,40,127,44
1,28,127,45
1,40,127,38
1,28,127,52
1,40,127,42
1,28,127,53
1,40,127,43
1,36,127,55
1,48,127,43
1,36,127,45
1,48,127,42
1,38,127,53
1,50,127,38
1,38,127,47
1,50,127,39
1,33,127,55
1,45,127,43
1,33,127,43
1,45,127,39
1,38,127,50
1,50,127,36
1,38,127,50
1,50,127,38
1,31,127,57
1,43,127,42
1,31,127,45
1,43,127,42
1,31,127,51
1,43,127,42
1,31,127,50
1,43,127,44
1,28,127,53
1,40,127,43
1,28,127,45
1,40,127,39
1,28,127,50
1,40,127,40
1,28,127,48
1,40,127,39
1,33,127,53
1,45,127,40
1,35,127,49
1,47,127,42
1,36,127,50
1,48,127,41
1,37,127,50
1,49,127,40
1,38,127,51
1,50,127,38
1,38,127,44
1,50,127,40
1,38,127,52
1,50,127,36
1,38,127,48
1,50,127,37
1,36,127,53
1,48,127,40
1,36,127,47
1,48,127,39
1,38,127,52
1,50,127,40
1,38,127,50
1,50,127,39
1,31,127,51
1,43,127,39
1,36,127,49
1,48,127,39
1,31,127,50
1,43,127,38
1,31,127,52
1,43,127,39
1,39,127,50
1,51,127,39
1,39,127,46
1,51,127,40
1,39,127,50
1,51,127,41
1,39,127,50
1,51,127,37
1,39,127,51
1,51,127,41
1,39,127,45
1,51,127,42
1,39,127,50
1,51,127,38
1,39,127,52
1,51,127,40
1,31,127,53
1,43,127,40
1,31,127,46
1,43,127,38
1,36,127,52
1,48,127,39
1,36,127,48
1,48,127,39
1,31,127,52
1,43,127,40
1,31,127,46
1,43,127,39
1,31,127,50
1,43,127,42
1,31,127,50
1,43,127,39
1,38,127,50
1,50,127,38
1,38,127,48
1,50,127,40
1,38,127,50
1,50,127,37
1,38,127,50
1,50,127,40
1,38,127,53
1,50,127,38
1,38,127,41
1,50,127,38
1,35,127,50
1,47,127,37
1,35,127,50
1,47,127,37
1,40,127,52
1,52,127,40
1,40,127,43
1,52,127,37
1,33,127,50
1,45,127,38
1,33,127,53
1,45,127,39
1,38,127,53
1,50,127,38
1,38,127,43
1,50,127,38
1,38,127,50
1,50,127,41
1,38,127,50
1,50,127,41
1,31,127,52
1,43,127,38
1,31,127,43
1,43,127,40
1,31,127,50
1,43,127,38
1,31,127,48
1,43,127,40
1,28,127,53
1,40,127,40
1,28,127,46
1,40,127,41
1,28,127,50
1,40,127,40
1,28,127,50
1,40,127,37
1,31,127,55
1,43,127,40
1,31,127,49
1,43,127,42
1,31,127,50
1,43,127,38
1,31,127,52
1,43,127,39
1,28,127,53
1,40,127,41
1,28,127,45
1,40,127,39
1,28,127,48
1,40,127,40
1,28,127,53
1,40,127,42
1,36,127,51
1,48,127,39
1,36,127,42
1,48,127,38
1,38,127,52
1,50,127,40
1,38,127,48
1,50,127,39
1,33,127,52
1,45,127,42
1,33,127,44
1,45,127,42
1,38,127,50
1,50,127,41
1,38,127,51
1,50,127,40
1,31,127,52
1,43,127,40
1,31,127,46
1,43,127,40
1,31,127,50
1,43,127,40
1,31,127,50
1,43,127,39
1,28,127,52
1,40,127,42
1,28,127,42
1,40,127,42
1,28,127,48
1,40,127,41
1,28,127,48
1,40,127,40
1,33,127,52
1,45,127,37
1,35,127,46
1,47,127,37
1,36,127,52
1,48,127,37
1,37,127,48
1,49,127,38
1,38,127,53
1,50,127,39
1,38,127,45
1,50,127,37
1,38,127,49
1,50,127,38
1,38,127,50
1,50,127,37
1,36,127,52
1,48,127,38
1,36,127,43
1,48,127,40
1,38,127,50
1,50,127,37
1,38,127,50
1,50,127,40
1,43,127,144
1,36,127,49
1,48,127,40
1,31,127,51
1,43,127,37
1,31,127,50
1,43,127,40
1,36,127,51
1,48,127,40
1,36,127,45
1,48,127,38
1,36,127,51
1,48,127,40
1,36,127,50
1,48,127,41
1,38,127,53
1,50,127,39
1,38,127,49
1,50,127,38
1,38,127,49
1,50,127,42
1,38,127,50
1,50,127,39
1,36,127,51
1,48,127,40
1,36,127,46
1,48,127,38
1,36,127,45
1,48,127,38
1,36,127,48
1,48,127,39
1,36,127,50
1,48,127,41
1,36,127,42
1,48,127,39
1,36,127,47
1,48,127,39
1,36,127,50
1,48,127,38
1,55,127,1
1,36,127,46
1,48,127,38
1,36,127,46
1,48,127,40
1,38,127,51
1,50,127,38
1,38,127,46
1,50,127,41
1,31,127,51
1,43,127,39
1,31,127,47
1,43,127,42
1,31,127,49
2,79,127,2245
2,83,127,12
2,86,127,7
2,91,127,0
2,76,127,721
2,79,127,10
2,83,127,7
2,88,127,4
2,81,127,719
2,84,127,13
2,88,127,7
2,93,127,2
2,69,127,721
2,74,127,11
2,78,127,13
2,81,127,1
2,83,127,623
2,81,127,192
2,79,127,192
2,78,127,194
2,76,127,2
2,71,127,175
2,71,127,57
2,83,127,190
2,95,127,0
2,81,127,49
2,93,127,0
2,83,127,6
2,79,127,3
2,91,127,0
2,81,127,145
2,79,127,190
2,78,127,192
2,76,127,1
2,71,127,175
2,71,127,57
2,83,127,190
2,95,127,2
2,81,127,47
2,93,127,1
2,79,127,6
2,91,127,1
2,76,127,49
2,78,127,2
2,76,127,1
2,78,127,1
2,83,127,1
2,81,127,190
2,79,127,194
2,78,127,190
2,76,127,2
2,71,127,177
2,71,127,55
2,76,127,105
2,74,127,195
2,78,127,0
2,81,127,1
2,67,127,1
2,72,127,2
2,76,127,6
2,74,127,191
2,78,127,2
2,81,127,1
2,74,127,47
2,78,127,0
2,81,127,2
2,72,127,335
2,76,127,2
2,79,127,0
2,74,127,119
2,78,127,2
2,81,127,0
2,83,127,2
2,81,127,189
2,79,127,192
2,78,127,192
2,76,127,2
2,71,127,177
2,71,127,55
2,83,127,192
2,95,127,2
2,81,127,48
2,93,127,0
2,79,127,9
2,83,127,0
2,91,127,2
2,81,127,143
2,79,127,194
2,78,127,192
2,76,127,2
2,71,127,177
2,71,127,55
2,83,127,192
2,95,127,0
2,81,127,48
2,93,127,0
2,79,127,10
2,91,127,0
2,76,127,50
2,78,127,1
2,76,127,2
2,78,127,0
2,83,127,1
2,81,127,190
2,79,127,192
2,78,127,192
2,76,127,1
2,71,127,175
2,71,127,55
2,76,127,105
2,74,127,187
2,78,127,1
2,81,127,0
2,67,127,1
2,72,127,2
2,76,127,6
2,74,127,191
2,78,127,2
2,81,127,0
2,74,127,47
2,78,127,0
2,81,127,2
2,72,127,335
2,76,127,2
2,79,127,0
2,71,127,121
2,74,127,0
2,79,127,1
2,75,127,191
2,87,127,0
2,79,127,73
2,91,127,0
2,82,127,72
2,94,127,0
2,82,127,169
2,94,127,0
2,79,127,71
2,91,127,0
2,75,127,71
2,87,127,0
2,75,127,170
2,87,127,0
2,79,127,71
2,91,127,0
2,82,127,74
2,94,127,0
2,82,127,168
2,94,127,0
2,79,127,72
2,91,127,0
2,75,127,71
2,87,127,0
2,79,127,167
2,91,127,0
2,81,127,71
2,93,127,0
2,86,127,71
2,98,127,0
2,86,127,169
2,98,127,1
2,81,127,75
2,93,127,0
2,79,127,72
2,91,127,1
2,79,127,170
2,91,127,0
2,81,127,71
2,93,127,0
2,86,127,74
2,98,127,0
2,86,127,167
2,98,127,0
2,81,127,71
2,93,127,0
2,79,127,71
2,91,127,0
2,74,127,169
2,86,127,0
2,81,127,72
2,93,127,0
2,86,127,71
2,98,127,0
2,86,127,167
2,98,127,0
2,81,127,71
2,93,127,0
2,78,127,71
2,90,127,2
2,74,127,168
2,86,127,0
2,81,127,71
2,93,127,0
2,86,127,71
2,98,127,0
2,86,127,169
2,98,127,0
2,83,127,72
2,95,127,0
2,78,127,71
2,90,127,0
2,76,127,170
2,88,127,0
2,83,127,74
2,95,127,0
2,88,127,72
2,100,127,0
2,88,127,168
2,100,127,2
2,85,127,74
2,97,127,0
2,81,127,71
2,93,127,1
2,78,127,72
2,90,127,2
2,78,127,67
2,90,127,0
2,81,127,74
2,93,127,0
2,78,127,72
2,90,127,2
2,78,127,167
2,90,127,0
2,81,127,72
2,93,127,1
2,78,127,74
2,83,127,0
2,90,127,1
2,81,127,169
2,79,127,192
2,78,127,194
2,76,127,1
2,71,127,176
2,71,127,55
2,83,127,194
2,95,127,0
2,81,127,48
2,93,127,0
2,79,127,10
2,83,127,0
2,91,127,0
2,81,127,144
2,79,127,194
2,78,127,190
2,76,127,2
2,71,127,177
2,71,127,55
2,83,127,192
2,95,127,0
2,81,127,48
2,93,127,0
2,79,127,10
2,91,127,0
2,76,127,48
2,78,127,2
2,76,127,1
2,78,127,2
2,83,127,2
2,81,127,190
2,79,127,192
2,78,127,188
2,76,127,0
2,71,127,175
2,71,127,55
2,76,127,105
2,74,127,191
2,78,127,0
2,81,127,2
2,67,127,1
2,72,127,2
2,76,127,6
2,74,127,193
2,78,127,0
2,81,127,1
2,74,127,49
2,78,127,0
2,81,127,0
2,72,127,335
2,76,127,2
2,79,127,0
2,74,127,121
2,78,127,0
2,81,127,1
2,83,127,2
2,71,127,2
2,95,127,0
2,83,127,23
2,71,127,2
2,95,127,0
2,81,127,2
2,69,127,2
2,93,127,1
2,81,127,23
2,69,127,1
2,93,127,2
2,67,127,1
2,79,127,0
2,91,127,4
2,67,127,22
2,79,127,0
2,91,127,3
2,66,127,2
2,78,127,0
2,90,127,1
2,66,127,23
2,78,127,0
2,90,127,3
2,64,127,2
2,76,127,0
2,88,127,4
2,76,127,23
2,64,127,2
2,88,127,0
2,71,127,2
2,59,127,1
2,83,127,1
