track,note,velocity,time
1,31,127,4397
1,31,127,173
1,40,123,0
1,40,115,159
1,38,90,16
1,40,85,45
1,31,92,384
1,43,106,330
1,31,102,76
1,36,110,2
1,36,98,464
1,34,115,384
1,34,89,376
1,33,94,32
1,33,119,292
1,31,110,384
1,36,98,77
1,40,106,29
1,31,115,384
1,31,110,468
1,40,115,13
1,38,82,28
1,40,98,39
1,32,110,85
1,32,127,82
1,44,119,640
1,32,119,103
1,31,123,384
1,31,119,392
1,43,119,39
1,38,102,384
1,31,110,13
1,31,123,213
1,31,119,151
1,36,123,314
1,34,123,135
1,31,102,2
1,36,115,20
1,31,119,277
1,34,110,60
1,36,119,140
1,36,127,80
1,34,90,48
1,31,119,23
1,36,119,384
1,38,127,268
1,36,123,23
1,31,127,152
1,43,123,26
1,31,119,28
1,33,127,80
1,45,127,1152
1,33,123,61
1,35,127,124
1,35,123,156
1,47,119,384
1,34,123,375
1,46,127,1148
1,34,123,356
1,38,127,343
1,38,119,82
1,33,115,384
1,38,115,5
1,38,127,154
1,39,123,141
1,39,94,96
1,39,98,108
1,31,115,624
1,43,119,28
1,31,106,1152
1,43,106,31
1,36,119,88
1,40,127,52
1,36,115,2
1,31,123,45
1,43,119,384
1,31,123,13
1,43,110,8
1,38,123,92
1,31,127,272
1,31,127,173
1,40,123,0
1,40,115,159
1,38,90,16
1,40,85,45
1,31,92,384
1,43,106,330
1,31,102,76
1,36,110,2
1,36,98,464
1,34,115,384
1,34,89,376
1,33,94,32
1,33,119,292
1,31,110,384
1,36,98,77
1,40,106,29
1,31,115,384
1,31,110,468
1,40,115,13
1,38,82,28
1,40,98,39
1,32,110,85
1,32,127,82
1,44,119,640
1,32,119,103
1,31,123,384
1,31,119,392
1,43,119,39
1,38,102,384
1,31,110,13
1,43,127,384
1,31,123,213
1,31,119,151
1,36,123,314
1,34,123,135
1,31,102,2
1,36,115,20
1,31,119,277
1,34,110,60
1,36,119,140
1,36,127,80
1,34,90,48
1,31,119,23
1,36,119,384
1,38,127,268
1,36,123,23
1,31,127,152
1,43,123,26
1,31,119,28
1,33,127,80
1,45,127,1152
1,33,123,61
1,35,127,124
1,35,123,156
1,47,119,384
1,34,123,375
1,46,127,1148
1,34,123,356
1,38,127,343
1,38,119,82
1,33,115,384
1,38,115,5
1,38,127,154
1,39,123,141
1,39,94,96
1,39,98,108
1,31,115,624
1,43,119,28
1,31,106,1152
1,43,106,31
1,36,119,88
1,40,127,52
1,36,115,2
1,31,123,45
1,43,119,384
1,31,123,13
1,43,110,8
1,38,123,92
1,31,127,272
1,31,127,173
1,40,123,0
1,40,115,159
1,38,90,16
1,40,85,45
1,31,92,384
1,43,106,330
1,31,102,76
1,36,110,2
1,36,98,464
1,34,115,384
1,34,89,376
1,33,94,32
1,33,119,292
1,31,110,384
1,36,98,77
1,40,106,29
1,31,115,384
1,31,110,468
1,40,115,13
1,38,82,28
1,40,98,39
1,32,110,85
1,32,127,82
1,44,119,640
1,32,119,103
1,31,123,384
1,31,119,392
1,43,119,39
1,38,102,384
1,31,110,13
1,43,127,384
1,31,123,213
1,31,119,151
1,36,123,314
1,34,123,135
1,31,102,2
1,36,115,20
1,31,119,277
1,34,110,60
1,36,119,140
1,36,127,80
1,34,90,48
1,31,119,23
1,36,119,384
1,38,127,268
1,36,123,23
1,31,127,152
1,43,123,26
1,31,119,28
1,33,127,80
1,45,127,1152
1,33,123,61
1,35,127,124
1,35,123,156
1,47,119,384
1,34,123,375
1,46,127,1148
1,34,123,356
1,38,127,343
1,38,119,82
1,33,115,384
1,38,115,5
1,38,127,154
1,39,123,141
1,39,94,96
1,39,98,108
1,31,115,624
1,43,119,28
1,31,106,1152
1,43,106,31
1,36,119,88
1,40,127,52
1,36,115,2
1,31,123,45
1,43,119,384
1,31,123,13
1,43,110,8
1,38,123,92
1,31,127,272
1,31,127,173
1,40,123,0
1,40,115,159
1,38,90,16
1,40,85,45
1,31,92,384
1,43,106,330
1,31,102,76
1,36,110,2
1,36,98,464
1,34,115,384
1,34,89,376
1,33,94,32
1,33,119,292
1,31,110,384
1,36,98,77
1,40,106,29
1,31,115,384
1,31,110,468
1,40,115,13
1,38,82,28
1,40,98,39
1,32,110,85
1,32,127,82
1,44,119,640
1,32,119,103
1,31,123,384
1,31,119,392
1,43,119,39
1,38,102,384
1,31,110,13
1,43,127,384
1,31,123,213
1,31,119,151
1,36,123,314
1,34,123,135
1,31,102,2
1,36,115,20
1,31,119,277
1,34,110,60
1,36,119,140
1,36,127,80
1,34,90,48
1,31,119,23
1,36,119,384
1,38,127,268
1,36,123,23
1,31,127,152
1,43,123,26
1,31,119,28
1,33,127,80
1,45,127,1152
1,33,123,61
1,35,127,124
1,35,123,156
1,47,119,384
1,34,123,375
1,46,127,1148
1,34,123,356
1,38,127,343
1,38,119,82
1,33,115,384
1,38,115,5
1,38,127,154
1,39,123,141
1,39,94,96
1,39,98,108
1,31,115,624
1,43,119,28
1,31,106,1152
1,43,106,31
1,36,119,88
1,40,127,52
1,36,115,2
1,31,123,45
1,43,119,384
1,31,123,13
1,43,110,8
1,38,123,92
1,31,127,272
1,31,127,173
1,40,123,0
1,40,115,159
1,38,90,16
1,40,85,45
1,31,92,384
1,43,106,330
1,31,102,76
1,36,110,2
1,36,98,464
1,34,115,384
1,34,89,376
1,33,94,32
1,33,119,292
1,31,110,384
1,36,98,77
1,40,106,29
1,31,115,384
1,31,110,468
1,40,115,13
1,38,82,28
1,40,98,39
1,32,110,85
1,32,127,82
1,44,119,640
1,32,119,103
1,31,123,384
1,31,119,392
1,43,119,39
1,38,102,384
1,31,110,13
1,43,127,384
1,31,123,213
1,31,119,151
1,36,123,314
1,34,123,135
1,31,102,2
1,36,115,20
1,31,119,277
1,34,110,60
1,36,119,140
1,36,127,80
1,34,90,48
1,31,119,23
1,36,119,384
1,38,127,268
1,36,123,23
1,31,127,152
1,43,123,26
1,31,119,28
1,33,127,80
1,45,127,1152
1,33,123,61
1,35,127,124
1,35,123,156
1,47,119,384
1,34,123,375
1,46,127,1148
1,34,123,356
1,38,127,343
1,38,119,82
1,33,115,384
1,38,115,5
1,38,127,154
1,39,123,141
1,39,94,96
1,39,98,108
1,31,115,624
1,43,119,28
1,31,106,1152
1,43,106,31
1,36,119,88
1,40,127,52
1,36,115,2
1,31,123,45
1,43,119,384
1,31,123,13
1,43,110,8
1,38,123,92
1,31,127,272
1,31,127,173
1,40,123,0
1,40,115,159
1,38,90,16
1,40,85,45
1,31,92,384
1,43,106,330
1,31,102,76
1,36,110,2
1,36,98,464
1,34,115,384
1,34,89,376
1,33,94,32
1,33,119,292
1,31,110,384
1,36,98,77
1,40,106,29
1,31,115,384
1,31,110,468
1,40,115,13
1,38,82,28
1,40,98,39
1,32,110,85
1,32,127,82
1,44,119,640
1,32,119,103
1,31,123,384
1,31,119,392
1,43,119,39
1,38,102,384
1,31,110,13
1,43,127,384
1,31,123,213
1,31,119,151
1,36,123,314
1,34,123,135
1,31,102,2
1,36,115,20
1,31,119,277
1,34,110,60
1,36,119,140
1,36,127,80
1,34,90,48
1,31,119,23
1,36,119,384
1,38,127,268
1,36,123,23
1,31,127,152
1,43,123,26
1,31,119,28
1,33,127,80
1,45,127,1152
1,33,123,61
1,35,127,124
1,35,123,156
1,47,119,384
1,34,123,375
1,46,127,1148
1,34,123,356
1,38,127,343
1,38,119,82
1,33,115,384
1,38,115,5
1,38,127,154
1,39,123,141
1,39,94,96
1,39,98,108
1,31,115,624
1,43,119,28
1,31,106,1152
1,43,106,31
1,36,119,88
1,40,127,52
1,36,115,2
1,31,123,45
1,43,119,384
1,31,123,13
1,43,110,8
1,38,123,92
1,43,123,272
1,41,123,16
1,40,106,384
1,38,106,45
1,36,119,0
1,34,123,13
1,33,127,18
1,29,123,20
1,31,123,37
1,33,123,16
1,34,102,12
1,36,123,8
1,36,106,109
1,40,102,76
1,43,115,5
1,46,102,119
1,45,102,28
1,43,106,4
1,41,94,20
1,39,80,39
1,38,102,15
1,36,98,28
1,33,94,10
1,34,110,26
1,31,115,93
1,38,106,31
1,40,90,79
1,43,102,69
1,40,98,384
1,31,106,53
1,32,110,52
1,39,110,384
1,44,106,376
1,39,90,373
1,32,87,354
1,44,110,261
1,31,119,88
1,35,92,26
1,36,98,21
1,38,106,21
1,36,90,384
1,35,98,5
1,31,110,47
1,45,102,384
1,31,119,375
1,43,115,32
1,41,110,15
1,40,119,384
1,36,106,167
1,40,102,76
1,43,115,5
1,46,102,119
1,45,102,28
1,43,106,4
1,41,94,20
1,39,80,39
1,38,102,15
1,36,98,28
1,33,94,10
1,34,110,26
1,36,127,93
1,40,110,0
1,43,119,384
1,46,106,356
1,45,102,333
1,43,102,16
1,41,92,23
1,39,110,40
1,38,115,384
1,36,115,21
1,34,106,23
1,33,123,384
1,31,127,104
1,35,119,8
1,38,106,12
1,43,110,10
1,38,102,384
1,35,119,13
1,33,115,95
1,36,102,7
1,40,106,384
1,45,106,381
1,40,98,52
1,36,92,13
1,35,127,93
1,38,110,384
1,42,90,357
1,45,119,52
1,42,92,384
1,38,115,341
1,34,102,116
1,33,94,4
1,34,106,128
1,33,110,48
1,31,106,12
1,33,110,384
1,31,119,364
1,38,127,159
1,26,119,16
1,33,127,26
1,35,106,7
1,36,106,42
1,38,98,101
1,40,119,125
1,42,102,15
1,43,115,71
1,45,85,12
1,43,89,103
1,42,110,64
1,39,115,133
1,34,102,29
1,31,123,384
1,27,92,365
1,31,102,0
1,34,123,384
1,36,115,140
1,38,115,384
1,39,106,15
1,39,110,114
1,34,127,12
1,27,90,40
1,31,115,114
1,43,119,28
1,31,106,1152
1,43,106,31
1,36,119,88
1,40,127,52
1,36,115,2
1,31,123,45
1,43,119,384
1,31,123,13
1,43,110,8
1,38,123,92
1,31,127,272
1,31,127,173
1,40,123,0
1,40,115,159
1,38,90,16
1,40,85,45
1,31,92,384
1,43,106,330
1,31,102,76
1,36,110,2
1,36,98,464
1,34,115,384
1,34,89,376
1,33,94,32
1,33,119,292
1,31,110,384
1,36,98,77
1,40,106,29
1,31,115,384
1,31,110,468
1,40,115,13
1,38,82,28
1,40,98,39
1,32,110,85
1,32,127,82
1,44,119,640
1,32,119,103
1,31,123,384
1,31,119,392
1,43,119,39
1,38,102,384
1,31,110,13
1,43,127,384
1,31,123,213
1,31,119,151
1,36,123,314
1,34,123,135
1,31,102,2
1,36,115,20
1,31,119,277
1,34,110,60
1,36,119,140
1,36,127,80
1,34,90,48
1,31,119,23
1,36,119,384
1,38,127,268
1,36,123,23
1,31,127,152
1,43,123,26
1,31,119,28
1,33,127,80
1,45,127,1152
1,33,123,61
1,35,127,124
1,35,123,156
1,47,119,384
1,46,115,0
1,41,106,12
1,34,119,44
1,38,127,1536
1,38,127,853
1,38,127,892
1,38,127,914
1,39,127,258
1,31,127,4348
1,31,127,524
1,35,123,18
1,38,106,48
1,43,115,18
1,36,119,384
1,36,119,208
1,36,119,92
1,40,119,2
1,43,115,384
1,40,119,351
1,31,127,61
1,31,127,311
1,36,127,15
1,31,127,31
2,43,81,4493
2,59,81,0
2,53,81,0
2,62,72,0
2,53,94,248
2,64,92,37
2,55,98,0
2,60,110,0
2,55,86,532
2,64,90,0
2,58,92,0
2,55,86,380
2,62,87,0
2,43,110,0
2,59,90,0
2,55,89,180
2,59,102,0
2,62,119,0
2,60,102,32
2,56,87,0
2,44,90,0
2,63,86,0
2,63,115,140
2,56,98,0
2,60,123,0
2,56,102,84
2,43,115,37
2,55,81,384
2,59,74,36
2,55,83,165
2,62,102,0
2,59,98,0
2,55,79,181
2,43,86,237
2,53,78,280
2,62,66,0
2,59,83,0
2,53,102,264
2,59,115,0
2,62,106,0
2,53,119,269
2,59,123,0
2,62,123,0
2,62,119,268
2,59,123,0
2,53,115,0
2,55,87,220
2,64,74,0
2,60,92,0
2,58,92,0
2,48,86,3456
2,55,94,85
2,64,76,156
2,55,98,0
2,60,102,0
2,58,94,0
2,64,71,242
2,55,76,0
2,60,80,0
2,58,92,0
2,48,86,0
2,48,94,525
2,55,92,172
2,60,106,0
2,64,102,0
2,58,98,0
2,55,92,208
2,62,102,0
2,59,102,0
2,43,92,0
2,62,74,140
2,55,119,0
2,59,119,82
2,62,119,0
2,57,94,228
2,64,106,0
2,60,115,0
2,45,94,0
2,57,94,191
2,64,119,0
2,60,123,0
2,57,98,652
2,60,115,0
2,64,115,0
2,66,98,636
2,59,92,0
2,62,106,0
2,47,102,837
2,66,119,104
2,59,119,0
2,62,127,0
2,46,106,21
2,58,92,384
2,62,115,285
2,65,102,236
2,62,110,375
2,58,102,328
2,57,94,184
2,64,98,0
2,45,106,0
2,67,89,0
2,60,94,0
2,57,102,100
2,60,110,140
2,57,102,143
2,67,110,0
2,64,106,0
2,60,119,0
2,67,115,695
2,57,115,0
2,64,119,0
2,60,119,0
2,67,92,980
2,60,110,0
2,55,102,0
2,63,102,0
2,60,102,248
2,55,106,0
2,63,98,0
2,67,102,0
2,55,123,143
2,60,119,220
2,43,102,218
2,55,86,384
2,59,94,0
2,62,102,0
2,55,102,48
2,59,123,108
2,48,106,12
2,55,92,384
2,60,106,0
2,58,119,296
2,43,98,32
2,55,110,384
2,59,102,15
2,62,119,5
2,50,110,333
2,54,98,384
2,58,106,384
2,62,98,384
2,43,81,282
2,59,81,0
2,53,81,0
2,62,72,0
2,53,94,248
2,64,92,37
2,55,98,0
2,60,110,0
2,55,86,532
2,64,90,0
2,58,92,0
2,55,86,380
2,62,87,0
2,43,110,0
2,59,90,0
2,55,89,180
2,59,102,0
2,62,119,0
2,60,102,32
2,56,87,0
2,44,90,0
2,63,86,0
2,63,115,140
2,56,98,0
2,60,123,0
2,56,102,84
2,43,115,37
2,55,81,384
2,59,74,36
2,55,83,165
2,62,102,0
2,59,98,0
2,55,79,181
2,43,86,237
2,67,127,378
2,74,127,0
2,77,127,0
2,53,78,280
2,62,66,0
2,59,83,0
2,53,102,264
2,59,115,0
2,62,106,0
2,53,119,269
2,59,123,0
2,62,123,0
2,62,119,268
2,59,123,0
2,53,115,0
2,55,87,220
2,64,74,0
2,60,92,0
2,58,92,0
2,48,86,3456
2,55,94,85
2,64,76,156
2,55,98,0
2,60,102,0
2,58,94,0
2,64,71,242
2,55,76,0
2,60,80,0
2,58,92,0
2,48,86,0
2,48,94,525
2,55,92,172
2,60,106,0
2,64,102,0
2,58,98,0
2,55,92,208
2,62,102,0
2,59,102,0
2,43,92,0
2,62,74,140
2,55,119,0
2,59,119,82
2,62,119,0
2,57,94,228
2,64,106,0
2,60,115,0
2,45,94,0
2,57,94,191
2,64,119,0
2,60,123,0
2,57,98,652
2,60,115,0
2,64,115,0
2,66,98,636
2,59,92,0
2,62,106,0
2,47,102,837
2,66,119,104
2,59,119,0
2,62,127,0
2,46,106,21
2,58,92,384
2,62,115,285
2,65,102,236
2,62,110,375
2,58,102,328
2,57,94,184
2,64,98,0
2,45,106,0
2,67,89,0
2,60,94,0
2,57,102,100
2,60,110,140
2,57,102,143
2,67,110,0
2,64,106,0
2,60,119,0
2,67,115,695
2,57,115,0
2,64,119,0
2,60,119,0
2,67,92,980
2,60,110,0
2,55,102,0
2,63,102,0
2,60,102,248
2,55,106,0
2,63,98,0
2,67,102,0
2,55,123,143
2,60,119,220
2,43,102,218
2,55,86,384
2,59,94,0
2,62,102,0
2,55,102,48
2,59,123,108
2,48,106,12
2,55,92,384
2,60,106,0
2,58,119,296
2,43,98,32
2,55,110,384
2,59,102,15
2,62,119,5
2,50,110,333
2,54,98,384
2,58,106,384
2,62,98,384
2,43,81,282
2,59,81,0
2,53,81,0
2,62,72,0
2,53,94,248
2,64,92,37
2,55,98,0
2,60,110,0
2,55,86,532
2,64,90,0
2,58,92,0
2,55,86,380
2,62,87,0
2,43,110,0
2,59,90,0
2,55,89,180
2,59,102,0
2,62,119,0
2,60,102,32
2,56,87,0
2,44,90,0
2,63,86,0
2,63,115,140
2,56,98,0
2,60,123,0
