track,note,velocity,time
0,67,93,10
0,67,0,44
0,67,86,37
0,50,54,78
0,53,46,40
0,57,50,77
0,67,0,13
0,60,45,51
0,62,50,72
0,50,0,36
0,65,51,17
0,53,0,28
0,69,28,22
0,57,0,18
0,74,75,36
0,60,0,38
0,77,56,1
0,62,0,30
0,81,54,8
0,65,0,11
0,86,66,26
0,84,61,2
0,69,0,11
0,74,0,18
0,89,51,6
0,77,0,14
0,93,70,3
0,81,0,10
0,98,81,30
0,101,68,25
0,86,0,7
0,84,0,9
0,105,51,7
0,108,91,5
0,89,0,6
0,93,0,7
0,98,0,175
0,101,0,90
0,105,0,1
0,108,0,16
0,62,84,214
0,65,83,2
0,62,0,54
0,65,0,1
0,60,77,19
0,64,79,3
0,60,0,10
0,64,0,0
0,57,68,74
0,53,53,1
0,59,55,0
0,62,62,4
0,31,58,54
0,57,0,24
0,43,56,1
0,53,0,7
0,59,0,7
0,53,44,44
0,43,62,52
0,62,0,43
0,50,69,16
0,31,0,50
0,53,60,7
0,43,0,6
0,53,0,17
0,43,0,26
0,53,47,13
0,50,0,28
0,55,43,35
0,53,0,17
0,59,55,55
0,53,0,30
0,62,82,44
0,55,0,29
0,53,56,38
0,59,0,50
0,64,92,18
0,62,0,33
0,53,54,56
0,53,0,14
0,64,0,15
0,53,0,11
0,57,86,44
0,65,77,0
0,67,71,2
0,60,72,2
0,38,61,60
0,57,0,44
0,45,65,4
0,65,0,17
0,67,0,2
0,60,0,2
0,38,0,23
0,45,0,10
0,50,72,15
0,50,0,11
0,53,78,48
0,69,81,64
0,57,62,66
0,53,0,11
0,69,0,24
0,57,0,11
0,67,66,1
0,67,0,27
0,45,67,37
0,61,61,5
0,57,64,1
0,65,63,2
0,55,61,6
0,45,0,331
0,61,0,28
0,57,0,17
0,65,0,49
0,67,69,10
0,55,0,30
0,66,80,68
0,67,0,3
0,66,0,17
0,65,82,4
0,65,0,13
0,64,67,6
0,63,79,21
0,64,0,8
0,63,0,14
0,62,79,3
0,38,43,53
0,62,0,16
0,45,48,4
0,50,49,57
0,53,54,51
0,57,64,62
0,38,0,7
0,45,0,9
0,50,0,26
0,62,59,19
0,53,0,1
0,50,56,61
0,57,0,41
0,56,59,21
0,43,48,5
0,59,48,3
0,62,0,3
0,53,1,16
0,50,0,29
0,56,0,20
0,43,0,5
0,59,0,4
0,50,44,8
0,53,43,106
0,63,84,112
0,67,82,0
0,59,76,2
0,53,0,23
0,50,0,11
0,53,0,13
0,63,0,106
0,67,0,12
0,59,0,14
0,59,77,73
0,69,83,1
0,63,78,3
0,59,0,8
0,69,0,3
0,63,0,10
0,43,70,47
0,43,0,3
0,59,85,6
0,64,86,2
0,71,76,0
0,36,71,2
0,67,77,0
0,59,0,6
0,64,0,8
0,71,0,4
0,36,0,5
0,48,66,28
0,67,0,1
0,48,0,21
0,74,85,33
0,62,82,1
0,71,76,1
0,67,58,3
0,74,0,10
0,62,0,6
0,71,0,0
0,67,0,4
0,48,60,50
0,72,72,40
0,69,78,1
0,48,0,35
0,52,62,6
0,67,67,58
0,64,64,0
0,71,71,2
0,72,0,3
0,55,70,5
0,59,54,6
0,69,0,8
0,52,0,19
0,67,0,18
0,64,53,6
0,64,0,25
0,67,51,2
0,71,0,31
0,71,63,2
0,55,0,11
0,76,54,34
0,59,0,29
0,79,53,4
0,64,0,27
0,83,53,2
0,67,0,11
0,88,58,27
0,71,0,27
0,91,66,0
0,76,0,13
0,95,56,7
0,79,0,10
0,100,62,35
0,98,53,0
0,83,0,17
0,88,0,0
0,103,70,20
0,91,0,18
0,95,0,465
0,100,0,13
0,98,0,91
0,72,88,9
0,103,0,2
0,72,0,39
0,71,80,17
0,47,56,57
0,51,49,49
0,54,60,10
0,71,0,25
0,57,63,71
0,47,0,40
0,63,66,17
0,51,0,41
0,66,50,16
0,54,0,15
0,69,74,31
0,57,57,12
0,57,0,15
0,75,67,19
0,78,61,31
0,63,0,3
0,66,0,9
0,69,0,21
0,81,61,9
0,57,0,2
0,75,0,16
0,78,0,5
0,81,0,4
0,87,72,7
0,90,70,28
0,87,0,3
0,90,0,14
0,46,69,6
0,53,69,44
0,56,78,4
0,62,61,36
0,46,0,38
0,65,60,10
0,53,0,13
0,70,75,22
0,56,0,10
0,74,63,39
0,62,0,49
0,77,48,1
0,65,0,17
0,82,72,24
0,70,0,10
0,86,61,40
0,89,58,56
0,74,0,2
0,77,0,34
0,94,57,17
0,82,0,10
0,98,56,69
0,86,0,2
0,89,0,2
0,94,0,17
0,98,0,58
0,102,52,1
0,102,0,10
0,101,57,3
0,106,72,94
0,101,0,2
0,106,0,15
0,68,56,281
0,56,49,3
0,68,0,26
0,56,0,12
0,45,55,60
0,38,59,57
0,57,69,2
0,67,51,4
0,45,0,2
0,65,58,1
0,60,61,0
0,45,60,10
0,38,0,55
0,57,0,4
0,50,58,14
0,67,0,11
0,53,80,43
0,65,0,5
0,60,0,31
0,57,87,13
0,45,0,6
0,50,0,29
0,60,71,15
0,65,70,59
0,67,79,60
0,53,0,1
0,57,0,64
0,57,67,3
0,60,0,2
0,65,0,5
0,67,0,3
0,57,0,26
0,53,83,23
0,53,0,21
0,60,88,33
0,62,87,0
0,57,94,2
0,65,90,0
0,60,0,10
0,62,0,9
0,57,0,0
0,65,0,1
0,55,100,60
0,64,95,1
0,60,86,1
0,59,77,1
0,55,0,9
0,64,0,4
0,60,0,3
0,59,0,1
0,59,82,60
0,57,92,1
0,53,86,1
0,62,82,1
0,31,88,59
0,43,86,73
0,59,0,16
0,57,0,51
0,53,0,4
0,53,76,0
0,62,0,14
0,31,0,16
0,43,0,17
0,53,71,33
0,57,82,4
0,59,69,1
0,53,0,15
0,53,0,9
0,57,0,6
0,59,0,1
0,43,91,49
0,62,91,76
0,59,85,0
0,50,77,3
0,43,0,51
0,53,67,25
0,62,0,7
0,59,0,8
0,64,90,4
0,60,77,1
0,62,24,2
0,50,0,2
0,53,0,6
0,64,0,2
0,60,0,1
0,62,0,5
0,67,83,1
0,57,95,1
0,60,85,1
0,65,90,1
0,38,77,3
0,67,0,3
0,57,0,1
0,60,0,2
0,65,0,5
0,50,65,11
0,60,88,5
0,65,92,1
0,69,92,1
0,38,0,28
0,50,0,4
0,60,0,3
0,67,85,91
0,64,84,1
0,59,82,0
0,62,77,2
0,65,0,18
0,69,0,2
0,67,0,1
0,64,0,2
0,59,0,5
0,62,0,12
0,33,68,90
0,61,77,16
0,55,77,2
0,65,77,0
0,45,67,6
0,33,0,16
0,61,0,4
0,55,0,5
0,61,70,23
0,55,69,5
0,67,50,2
0,64,66,1
0,65,0,28
0,45,0,42
0,61,0,2
0,55,0,12
0,45,54,7
0,67,0,13
0,64,0,25
0,45,0,1
0,65,77,15
0,55,72,2
0,61,63,1
0,65,0,66
0,55,0,5
0,61,0,4
0,33,61,24
0,33,0,72
0,62,53,2
0,26,63,0
0,53,56,2
0,57,75,2
0,38,40,4
0,62,0,20
0,26,0,24
0,53,58,4
0,53,0,36
0,57,0,48
0,38,0,7
0,53,46,11
0,57,63,1
0,53,0,125
0,38,48,17
0,53,0,2
0,57,0,130
0,31,58,0
0,56,62,1
0,43,54,1
0,59,48,3
0,53,48,3
0,38,0,63
0,31,0,5
0,56,0,3
0,43,0,15
0,59,0,39
0,43,39,151
0,53,0,39
0,67,97,23
0,43,0,17
0,67,0,87
0,69,92,34
0,43,47,71
0,69,0,34
0,64,69,31
0,71,65,0
0,67,60,2
0,36,54,2
0,43,0,4
0,64,0,4
0,71,0,3
0,43,54,13
0,67,0,4
0,64,64,49
0,74,64,2
0,71,52,1
0,36,0,55
0,43,0,6
0,64,0,3
0,74,0,7
0,48,40,10
0,71,0,13
0,64,61,29
0,72,62,0
0,67,52,4
0,48,0,8
0,48,66,57
0,64,0,10
0,72,0,12
0,67,41,18
0,71,71,1
0,64,64,1
0,67,0,1
0,52,58,28
0,55,63,61
0,48,0,45
0,67,0,3
0,71,0,0
0,59,54,16
0,62,18,63
0,64,0,26
0,67,56,16
0,52,0,12
0,71,57,27
0,55,0,10
0,74,73,25
0,59,0,31
0,79,58,10
0,62,0,26
0,83,60,1
0,67,0,11
0,86,71,20
0,71,0,28
0,91,71,0
0,74,0,12
0,95,52,8
0,79,0,10
0,98,79,25
0,83,0,17
0,103,71,3
0,86,0,10
0,91,0,13
0,107,85,0
0,95,0,16
0,98,0,36
0,69,44,604
0,103,0,20
0,70,50,2
0,107,0,16
0,71,37,26
0,69,0,11
0,70,0,6
0,71,0,2
0,72,64,13
0,72,0,10
0,73,70,44
0,47,29,59
0,51,43,20
0,54,42,31
0,73,0,13
0,47,0,32
0,51,0,11
0,57,39,16
0,54,0,13
0,52,48,28
0,56,56,8
0,59,51,62
0,62,53,12
0,57,0,43
0,52,0,16
0,64,49,1
0,56,0,11
0,59,0,4
0,68,47,45
0,45,58,38
0,52,56,27
0,62,0,22
0,64,0,14
0,55,74,4
0,68,0,11
0,45,0,28
0,52,0,6
0,61,84,13
0,64,77,58
0,67,83,53
0,55,0,5
0,61,0,18
0,64,0,19
0,69,97,17
0,67,0,15
0,69,0,23
0,73,97,16
0,73,0,45
0,73,84,16
0,38,71,21
0,73,0,31
0,26,94,31
0,38,0,43
0,65,76,43
0,26,0,24
0,65,0,8
0,65,98,28
0,69,105,1
0,74,100,1
0,50,100,45
0,65,0,4
0,69,0,3
0,74,0,4
0,53,80,44
0,62,98,35
0,69,95,1
0,72,93,1
0,65,97,0
0,50,0,36
0,53,0,3
0,62,0,5
0,69,0,0
0,57,87,19
0,72,0,27
0,57,91,32
0,65,0,19
0,57,0,11
0,60,102,1
0,69,105,0
0,65,100,1
0,57,0,6
0,60,0,41
0,69,0,4
0,65,0,5
0,48,85,16
0,48,0,55
0,56,96,15
0,67,82,2
0,60,82,1
0,41,78,2
0,63,75,3
0,56,0,66
0,50,82,1
0,67,0,8
0,60,0,14
0,41,0,19
0,56,98,11
0,65,87,1
0,60,87,0
0,63,0,33
0,50,0,32
0,56,0,6
0,50,77,1
0,65,0,13
0,60,0,14
0,50,0,8
0,52,73,52
0,64,93,1
0,56,100,1
0,60,91,2
0,52,0,47
0,64,0,42
0,56,74,3
0,56,0,48
0,60,0,38
0,50,82,0
0,56,0,14
0,56,92,53
0,60,68,7
0,62,76,1
0,50,0,9
0,56,0,4
0,60,0,4
0,62,0,12
0,64,83,65
0,62,74,1
0,59,72,0
0,55,81,2
0,36,76,4
0,67,61,0
0,43,66,73
0,48,74,11
0,64,0,5
0,62,0,2
0,59,0,20
0,55,0,20
0,52,84,19
0,36,0,14
0,67,0,22
0,43,0,6
0,55,82,23
0,59,67,62
0,48,0,49
0,62,68,8
0,52,0,37
0,64,62,34
0,67,66,67
0,55,0,35
0,36,62,33
0,64,66,5
0,59,0,27
0,62,0,17
0,64,0,6
0,48,62,5
0,67,0,7
0,36,0,2
0,58,61,61
0,52,57,88
0,64,0,1
0,48,0,85
0,55,47,0
0,58,0,79
0,52,45,9
0,52,0,11
0,55,0,14
0,58,56,59
0,55,44,1
0,52,0,31
0,58,0,44
0,48,40,12
0,55,0,90
0,41,52,4
0,57,58,1
0,60,59,3
0,48,0,13
0,41,0,24
0,57,0,10
0,48,52,24
0,53,66,89
0,67,92,6
0,62,97,0
0,74,91,2
0,71,87,0
0,60,0,21
0,48,0,11
0,53,0,1
0,67,0,4
0,62,0,3
0,53,75,32
0,69,95,58
0,65,100,0
0,60,98,2
0,72,88,0
0,74,0,16
0,71,0,4
0,53,0,2
0,69,0,2
0,65,0,5
0,53,70,45
0,65,92,65
0,57,100,2
0,69,88,0
0,62,82,4
0,60,77,1
0,60,0,8
0,72,0,4
0,62,40,2
0,53,0,14
0,65,0,3
0,57,0,0
0,69,0,6
0,62,0,3
0,60,0,2
0,62,0,18
0,41,72,23
0,56,93,62
0,50,82,1
0,63,79,1
0,60,72,2
0,67,72,0
0,41,0,106
0,56,0,22
0,50,0,12
0,60,81,20
0,65,77,1
0,56,85,0
0,63,0,5
0,60,0,25
0,50,66,61
0,67,0,15
0,60,0,17
0,65,0,44
0,53,67,21
0,56,0,82
0,50,0,5
0,56,68,1
0,53,0,53
0,56,76,27
0,64,73,3
0,60,67,4
0,52,61,7
0,56,0,5
0,56,0,67
0,50,58,9
0,64,0,1
0,60,0,1
0,62,70,1
0,52,0,8
0,50,0,16
0,62,0,24
0,40,63,48
0,62,68,0
0,67,64,4
0,59,54,1
0,55,58,1
0,47,50,81
0,52,51,88
0,40,0,9
0,62,0,62
0,67,0,2
0,55,77,7
0,59,62,74
0,62,57,63
0,59,0,31
0,55,0,0
0,47,0,1
0,52,0,3
0,55,0,12
0,59,0,4
0,64,66,15
0,62,0,2
0,64,0,31
0,39,68,56
0,66,66,85
0,70,69,1
0,60,59,2
0,46,62,2
0,51,52,77
0,39,0,2
0,66,0,32
0,70,0,4
0,60,0,22
0,60,49,24
0,46,0,16
0,51,0,142
0,60,49,71
0,56,39,2
0,68,48,3
0,60,0,49
0,60,0,69
0,60,31,7
0,56,0,50
0,60,1,117
0,68,0,10
0,60,0,5
0,60,0,12
0,33,43,108
0,33,0,76
0,26,60,6
0,57,53,3
0,65,63,1
0,67,52,0
0,60,60,2
0,26,0,25
0,57,0,71
0,65,0,36
0,50,69,12
0,67,0,10
0,60,0,33
0,53,71,5
0,57,73,26
0,60,74,30
0,65,68,16
0,69,69,26
0,50,0,2
0,53,0,22
0,72,49,4
0,57,0,10
0,77,64,27
0,81,62,19
0,60,0,3
0,65,0,9
0,89,69,44
0,93,69,25
0,69,0,1
0,95,48,4
0,72,0,10
0,77,0,14
0,96,83,0
0,81,0,10
0,89,0,65
0,93,0,119
0,57,69,115
0,95,0,10
0,96,0,12
0,57,0,8
0,62,74,34
0,65,76,2
0,62,0,79
0,60,75,0
0,65,0,1
0,64,75,1
0,60,0,10
0,64,0,2
0,38,49,6
0,38,0,65
0,53,45,16
0,31,62,1
0,59,55,2
0,57,69,1
0,62,56,1
0,43,41,4
0,53,0,35
0,31,0,69
0,59,0,6
0,57,0,2
0,43,46,36
0,62,0,33
0,53,34,46
0,57,53,5
0,43,0,60
0,43,0,0
0,43,51,11
0,53,0,22
0,53,57,65
0,59,33,1
0,31,60,3
0,57,0,11
0,43,0,21
0,53,0,10
0,59,0,61
0,43,83,102
0,31,0,3
0,43,0,18
0,62,98,53
0,74,81,1
0,62,0,17
0,74,0,0
0,76,90,55
0,64,92,0
0,76,0,10
0,64,0,1
0,50,70,17
0,74,91,0
0,67,73,2
0,45,68,0
0,79,66,3
0,38,44,0
0,73,24,3
0,50,0,48
0,74,0,4
0,67,0,5
0,45,0,1
0,79,0,21
0,38,0,7
0,73,0,22
0,69,82,33
0,74,79,2
0,81,71,0
0,77,68,1
0,69,0,8
0,74,0,7
0,81,0,11
0,77,0,2
0,50,74,56
0,67,64,77
0,79,60,0
0,53,58,3
0,74,65,0
0,76,56,2
0,50,0,9
0,67,0,4
0,79,0,1
0,53,0,1
0,57,67,62
0,65,73,95
0,77,61,1
0,60,51,1
0,74,0,20
0,76,0,11
0,57,0,71
0,65,0,10
0,79,59,36
0,67,47,6
0,77,0,6
0,60,0,10
0,57,57,71
0,79,0,12
0,67,0,7
0,57,0,5
0,77,48,58
0,65,47,2
0,77,0,12
0,65,0,3
0,38,52,67
0,38,0,41
0,31,61,33
0,62,60,3
0,68,62,2
0,74,51,0
0,71,52,1
0,43,32,4
0,31,0,15
0,62,0,19
0,43,92,113
0,68,0,39
0,74,0,30
0,50,81,9
0,71,0,3
0,43,0,22
0,43,0,44
0,53,67,7
0,50,0,1
0,53,0,9
0,67,86,77
0,74,93,0
0,79,85,1
0,53,74,3
0,67,0,15
0,74,0,2
0,79,0,10
0,56,66,57
0,59,66,66
0,69,78,93
0,81,74,0
0,77,73,5
0,62,68,2
0,53,0,9
0,56,0,1
0,59,0,4
0,69,0,7
0,81,0,19
0,59,44,48
0,77,0,4
