track,note,velocity,time
1,37,119,1876
1,61,120,0
1,56,117,0
1,49,118,0
1,49,0,108
1,37,0,108
1,61,0,0
1,56,0,0
1,37,119,24
1,61,117,0
1,56,119,0
1,49,120,0
1,37,0,108
1,61,0,0
1,56,0,0
1,49,0,0
1,37,91,12
1,61,95,0
1,56,91,0
1,49,92,0
1,37,0,108
1,61,0,0
1,56,0,0
1,49,0,0
1,37,118,12
1,61,118,0
1,56,118,0
1,49,116,0
1,37,0,108
1,61,0,0
1,56,0,0
1,49,0,0
1,37,75,12
1,61,84,0
1,56,86,0
1,49,72,0
1,49,0,108
1,37,0,108
1,61,0,0
1,56,0,0
1,59,92,24
1,56,92,0
1,51,94,0
1,44,93,0
1,59,0,108
1,56,0,0
1,51,0,0
1,44,0,0
1,59,81,132
1,56,95,0
1,51,94,0
1,44,86,0
1,59,0,108
1,56,0,0
1,51,0,0
1,44,0,0
1,59,117,12
1,56,119,0
1,51,118,0
1,44,116,0
1,59,0,108
1,56,0,0
1,51,0,0
1,44,0,0
1,59,90,12
1,56,96,0
1,51,91,0
1,44,94,0
1,59,0,108
1,56,0,0
1,51,0,0
1,44,0,0
1,59,116,12
1,56,120,0
1,51,118,0
1,44,117,0
1,59,0,108
1,56,0,0
1,51,0,0
1,44,0,0
1,44,116,12
1,51,116,0
1,56,120,0
1,59,118,0
1,44,0,108
1,51,0,0
1,56,0,0
1,59,0,0
1,44,95,132
1,51,81,0
1,56,75,0
1,59,71,0
1,44,0,108
1,51,0,0
1,56,0,0
1,59,0,0
1,57,116,12
1,54,116,0
1,49,120,0
1,42,119,0
1,57,0,216
1,54,0,0
1,49,0,0
1,42,0,0
1,57,119,24
1,54,119,0
1,49,120,0
1,42,120,0
1,54,0,108
1,49,0,0
1,42,0,0
1,57,91,12
1,54,91,0
1,49,96,0
1,42,94,0
1,57,0,96
1,57,0,12
1,54,0,0
1,49,0,0
1,42,0,0
1,57,118,12
1,54,119,0
1,49,120,0
1,42,118,0
1,57,0,108
1,54,0,0
1,49,0,0
1,42,0,0
1,57,96,12
1,54,81,0
1,49,85,0
1,42,85,0
1,57,0,108
1,54,0,0
1,49,0,0
1,42,0,0
1,57,94,132
1,54,95,0
1,49,91,0
1,42,91,0
1,57,0,216
1,54,0,0
1,49,0,0
1,42,0,0
1,57,84,24
1,54,85,0
1,49,84,0
1,42,85,0
1,57,0,108
1,54,0,0
1,49,0,0
1,42,0,0
1,57,118,12
1,54,118,0
1,49,116,0
1,42,118,0
1,57,0,108
1,54,0,0
1,49,0,0
1,42,0,0
1,57,81,12
1,54,81,0
1,49,86,0
1,42,84,0
1,57,0,108
1,54,0,0
1,49,0,0
1,42,0,0
1,57,118,12
1,54,117,0
1,49,118,0
1,42,118,0
1,57,0,108
1,54,0,0
1,49,0,0
1,42,0,0
1,57,82,12
1,54,82,0
1,49,83,0
1,42,83,0
1,57,0,108
1,54,0,0
1,49,0,0
1,42,0,0
1,54,118,12
1,49,118,0
1,42,120,0
1,54,0,108
1,49,0,0
1,42,0,0
1,57,80,12
1,54,81,0
1,57,0,108
1,54,0,0
1,37,120,12
1,61,118,0
1,56,119,0
1,49,120,0
1,49,0,108
1,37,0,108
1,61,0,0
1,56,0,0
1,37,118,24
1,61,116,0
1,56,116,0
1,49,119,0
1,37,0,108
1,61,0,0
1,56,0,0
1,49,0,0
1,37,91,12
1,61,92,0
1,56,90,0
1,49,96,0
1,37,0,108
1,61,0,0
1,56,0,0
1,49,0,0
1,37,120,12
1,61,118,0
1,56,119,0
1,49,120,0
1,37,0,108
1,61,0,0
1,56,0,0
1,49,0,0
1,37,75,12
1,61,84,0
1,56,81,0
1,49,74,0
1,49,0,108
1,37,0,108
1,61,0,0
1,56,0,0
1,59,90,24
1,56,92,0
1,51,94,0
1,44,96,0
1,59,0,108
1,56,0,0
1,51,0,0
1,44,0,0
1,59,81,132
1,56,91,0
1,51,96,0
1,44,86,0
1,59,0,108
1,56,0,0
1,51,0,0
1,44,0,0
1,59,119,12
1,56,117,0
1,51,120,0
1,44,117,0
1,59,0,108
1,56,0,0
1,51,0,0
1,44,0,0
1,59,95,12
1,56,90,0
1,51,90,0
1,44,91,0
1,59,0,108
1,56,0,0
1,51,0,0
1,44,0,0
1,59,119,12
1,56,117,0
1,51,117,0
1,44,116,0
1,59,0,108
1,56,0,0
1,51,0,0
1,44,0,0
1,44,116,12
1,51,117,0
1,56,117,0
1,59,120,0
1,44,0,108
1,51,0,0
1,56,0,0
1,59,0,0
1,44,96,132
1,51,82,0
1,56,75,0
1,59,71,0
1,44,0,108
1,51,0,0
1,56,0,0
1,59,0,0
1,57,116,12
1,54,120,0
1,49,120,0
1,42,116,0
1,57,0,216
1,54,0,0
1,49,0,0
1,42,0,0
1,57,117,24
1,54,117,0
1,49,119,0
1,42,120,0
1,54,0,108
1,49,0,0
1,42,0,0
1,57,93,12
1,54,95,0
1,49,96,0
1,42,96,0
1,57,0,96
1,57,0,12
1,54,0,0
1,49,0,0
1,42,0,0
1,57,120,12
1,54,117,0
1,49,117,0
1,42,120,0
1,57,0,108
1,54,0,0
1,49,0,0
1,42,0,0
1,57,92,12
1,54,80,0
1,49,81,0
1,42,83,0
1,57,0,108
1,54,0,0
1,49,0,0
1,42,0,0
1,57,90,132
1,54,96,0
1,49,91,0
1,42,92,0
1,57,0,216
1,54,0,0
1,49,0,0
1,42,0,0
1,57,83,24
1,54,81,0
1,49,84,0
1,42,84,0
1,57,0,108
1,54,0,0
1,49,0,0
1,42,0,0
1,57,120,12
1,54,116,0
1,49,119,0
1,42,120,0
1,57,0,108
1,54,0,0
1,49,0,0
1,42,0,0
1,57,67,12
1,54,66,0
1,49,64,0
1,42,64,0
1,57,0,108
1,54,0,0
1,49,0,0
1,42,0,0
1,57,117,12
1,54,116,0
1,49,117,0
1,42,117,0
1,57,0,108
1,54,0,0
1,49,0,0
1,42,0,0
1,57,81,12
1,54,83,0
1,49,81,0
1,42,85,0
1,57,0,108
1,54,0,0
1,49,0,0
1,42,0,0
1,54,116,12
1,49,117,0
1,42,119,0
1,54,0,108
1,49,0,0
1,42,0,0
1,57,86,12
1,54,81,0
1,57,0,108
1,54,0,0
1,37,117,12
1,61,116,0
1,56,116,0
1,49,117,0
1,49,0,108
1,37,0,108
1,61,0,0
1,56,0,0
1,37,120,24
1,61,118,0
1,56,119,0
1,49,119,0
1,37,0,108
1,61,0,0
1,56,0,0
1,49,0,0
1,37,90,12
1,61,92,0
1,56,92,0
1,49,93,0
1,37,0,108
1,61,0,0
1,56,0,0
1,49,0,0
1,37,119,12
1,61,119,0
1,56,117,0
1,49,119,0
1,37,0,108
1,61,0,0
1,56,0,0
1,49,0,0
1,37,72,12
1,61,82,0
1,56,86,0
1,49,72,0
1,49,0,108
1,37,0,108
1,61,0,0
1,56,0,0
1,59,93,24
1,56,94,0
1,51,95,0
1,44,94,0
1,59,0,108
1,56,0,0
1,51,0,0
1,44,0,0
1,59,86,132
1,56,92,0
1,51,90,0
1,44,81,0
1,59,0,108
1,56,0,0
1,51,0,0
1,44,0,0
1,59,119,12
1,56,118,0
1,51,116,0
1,44,120,0
1,59,0,108
1,56,0,0
1,51,0,0
1,44,0,0
1,59,94,12
1,56,92,0
1,51,94,0
1,44,91,0
1,59,0,108
1,56,0,0
1,51,0,0
1,44,0,0
1,59,116,12
1,56,116,0
1,51,120,0
1,44,119,0
1,59,0,108
1,56,0,0
1,51,0,0
1,44,0,0
1,44,116,12
1,51,116,0
1,56,116,0
1,59,118,0
1,44,0,108
1,51,0,0
1,56,0,0
1,59,0,0
1,44,90,132
1,51,83,0
1,56,73,0
1,59,71,0
1,44,0,108
1,51,0,0
1,56,0,0
1,59,0,0
1,57,119,12
1,52,116,0
1,49,118,0
1,45,119,0
1,57,0,216
1,52,0,0
1,49,0,0
1,45,0,0
1,57,116,24
1,52,116,0
1,49,118,0
1,45,118,0
1,52,0,108
1,49,0,0
1,45,0,0
1,57,96,12
1,54,93,0
1,49,91,0
1,42,90,0
1,57,0,96
1,57,0,12
1,54,0,0
1,49,0,0
1,42,0,0
1,57,117,12
1,54,117,0
1,49,118,0
1,42,116,0
1,57,0,108
1,54,0,0
1,49,0,0
1,42,0,0
1,57,91,12
1,54,82,0
1,49,85,0
1,42,85,0
1,57,0,108
1,54,0,0
1,49,0,0
1,42,0,0
1,57,92,132
1,54,95,0
1,49,90,0
1,42,92,0
1,57,0,216
1,54,0,0
1,49,0,0
1,42,0,0
1,57,85,24
1,54,83,0
1,49,81,0
1,42,83,0
1,57,0,108
1,54,0,0
1,49,0,0
1,42,0,0
1,57,117,12
1,54,119,0
1,49,120,0
1,42,118,0
1,57,0,108
1,54,0,0
1,49,0,0
1,42,0,0
1,57,85,12
1,54,84,0
1,49,84,0
1,42,86,0
1,57,0,108
1,54,0,0
1,49,0,0
1,42,0,0
1,57,120,12
1,54,120,0
1,49,116,0
1,42,119,0
1,57,0,108
1,54,0,0
1,49,0,0
1,42,0,0
1,57,82,12
1,54,82,0
1,49,84,0
1,42,85,0
1,57,0,108
1,54,0,0
1,49,0,0
1,42,0,0
1,54,117,12
1,49,120,0
1,42,116,0
1,54,0,108
1,49,0,0
1,42,0,0
1,57,81,12
1,54,83,0
1,57,0,108
1,54,0,0
1,37,117,12
1,61,116,0
1,56,116,0
1,49,120,0
1,49,0,108
1,37,0,108
1,61,0,0
1,56,0,0
1,37,117,24
1,61,118,0
1,56,116,0
1,49,117,0
1,37,0,108
1,61,0,0
1,56,0,0
1,49,0,0
1,37,94,12
1,61,95,0
1,56,92,0
1,49,96,0
1,37,0,108
1,61,0,0
1,56,0,0
1,49,0,0
1,37,116,12
1,61,118,0
1,56,120,0
1,49,118,0
1,37,0,108
1,61,0,0
1,56,0,0
1,49,0,0
1,37,73,12
1,61,86,0
1,56,83,0
1,49,74,0
1,49,0,108
1,37,0,108
1,61,0,0
1,56,0,0
1,59,92,24
1,56,96,0
1,51,93,0
1,44,91,0
1,59,0,108
1,56,0,0
1,51,0,0
1,44,0,0
1,59,85,132
1,56,94,0
1,51,93,0
1,44,84,0
1,59,0,108
1,56,0,0
1,51,0,0
1,44,0,0
1,59,116,12
1,56,117,0
1,51,120,0
1,44,119,0
1,59,0,108
1,56,0,0
1,51,0,0
1,44,0,0
1,59,96,12
1,56,92,0
1,51,90,0
1,44,95,0
1,59,0,108
1,56,0,0
1,51,0,0
1,44,0,0
1,59,116,12
1,56,119,0
1,51,118,0
1,44,118,0
1,59,0,108
1,56,0,0
1,51,0,0
1,44,0,0
1,44,119,12
1,51,120,0
1,56,120,0
1,59,116,0
1,44,0,108
1,51,0,0
1,56,0,0
1,59,0,0
1,44,95,132
1,51,82,0
1,56,72,0
1,59,72,0
1,44,0,108
1,51,0,0
1,56,0,0
1,59,0,0
1,47,117,12
1,52,116,24
1,57,116,24
1,61,119,24
1,64,118,24
1,57,0,1392
1,61,0,4
1,64,0,0
1,47,0,20
1,52,0,4
1,37,116,164
1,61,118,0
1,56,119,0
1,49,119,0
1,37,0,432
1,61,0,0
1,56,0,0
1,49,0,0
1,37,120,48
1,61,117,0
1,56,120,0
1,49,119,0
1,37,0,108
1,61,0,0
1,56,0,0
1,49,0,0
1,37,90,12
1,61,94,0
1,56,91,0
1,49,95,0
1,37,0,108
1,61,0,0
1,56,0,0
1,49,0,0
1,37,116,12
1,61,116,0
1,56,120,0
1,49,116,0
1,37,0,108
1,61,0,0
1,56,0,0
1,49,0,0
1,37,74,12
1,61,84,0
1,56,86,0
1,49,75,0
1,49,0,108
1,37,0,108
1,61,0,0
1,56,0,0
1,59,90,24
1,56,93,0
1,51,94,0
1,44,93,0
1,59,0,108
1,56,0,0
1,51,0,0
1,44,0,0
1,59,85,132
1,56,93,0
1,51,91,0
1,44,81,0
1,59,0,108
1,56,0,0
1,51,0,0
1,44,0,0
1,59,120,12
1,56,117,0
1,51,118,0
1,44,118,0
1,59,0,108
1,56,0,0
1,51,0,0
1,44,0,0
1,59,95,12
1,56,93,0
1,51,91,0
1,44,93,0
1,59,0,108
1,56,0,0
1,51,0,0
1,44,0,0
1,59,119,12
1,56,118,0
1,51,119,0
1,44,116,0
1,59,0,108
1,56,0,0
1,51,0,0
1,44,0,0
1,44,116,12
1,51,116,0
1,56,116,0
1,59,116,0
1,44,0,108
1,51,0,0
1,56,0,0
1,59,0,0
1,44,96,132
1,51,86,0
1,56,75,0
1,59,74,0
1,44,0,108
1,51,0,0
1,56,0,0
1,59,0,0
1,57,117,12
1,54,120,0
1,49,120,0
1,42,116,0
1,57,0,216
1,54,0,0
1,49,0,0
1,42,0,0
1,57,117,24
1,54,119,0
1,49,119,0
1,42,118,0
1,54,0,108
1,49,0,0
1,42,0,0
1,57,92,12
1,54,90,0
1,49,96,0
1,42,96,0
1,57,0,96
1,57,0,12
1,54,0,0
1,49,0,0
1,42,0,0
1,57,120,12
1,54,116,0
1,49,119,0
1,42,117,0
1,57,0,108
1,54,0,0
1,49,0,0
1,42,0,0
1,57,93,12
1,54,80,0
1,49,81,0
1,42,82,0
1,57,0,108
1,54,0,0
1,49,0,0
1,42,0,0
1,57,94,132
1,54,94,0
1,49,92,0
1,42,92,0
1,57,0,216
1,54,0,0
1,49,0,0
1,42,0,0
1,57,85,24
1,54,82,0
1,49,84,0
1,42,84,0
1,57,0,108
1,54,0,0
1,49,0,0
1,42,0,0
1,57,119,12
1,54,118,0
1,49,120,0
1,42,119,0
1,57,0,108
1,54,0,0
1,49,0,0
1,42,0,0
1,57,81,12
1,54,86,0
1,49,85,0
1,42,85,0
1,57,0,108
1,54,0,0
1,49,0,0
1,42,0,0
1,57,120,12
1,54,116,0
1,49,117,0
1,42,116,0
1,57,0,108
1,54,0,0
1,49,0,0
1,42,0,0
1,57,86,12
1,54,84,0
1,49,80,0
1,42,84,0
1,57,0,108
1,54,0,0
1,49,0,0
1,42,0,0
1,54,119,12
1,49,116,0
1,42,119,0
1,54,0,108
1,49,0,0
1,42,0,0
1,57,81,12
1,54,80,0
1,57,0,108
1,54,0,0
1,37,118,12
1,61,116,0
1,56,120,0
1,49,116,0
1,49,0,108
1,37,0,108
1,61,0,0
1,56,0,0
1,37,120,24
1,61,116,0
1,56,119,0
1,49,118,0
1,37,0,108
1,61,0,0
1,56,0,0
1,49,0,0
1,37,95,12
1,61,91,0
1,56,91,0
1,49,90,0
1,37,0,108
1,61,0,0
1,56,0,0
1,49,0,0
1,37,119,12
1,61,119,0
1,56,117,0
1,49,119,0
1,37,0,108
1,61,0,0
1,56,0,0
1,49,0,0
1,37,75,12
1,61,82,0
1,56,80,0
1,49,71,0
1,49,0,108
1,37,0,108
1,61,0,0
1,56,0,0
1,59,94,24
1,56,95,0
1,51,94,0
1,44,93,0
1,59,0,108
1,56,0,0
1,51,0,0
1,44,0,0
1,59,81,132
1,56,92,0
1,51,91,0
1,44,80,0
1,59,0,108
1,56,0,0
1,51,0,0
1,44,0,0
1,59,117,12
1,56,118,0
1,51,120,0
1,44,117,0
1,59,0,108
1,56,0,0
1,51,0,0
1,44,0,0
1,59,90,12
1,56,95,0
1,51,91,0
1,44,96,0
1,59,0,108
1,56,0,0
1,51,0,0
1,44,0,0
1,59,120,12
1,56,117,0
1,51,119,0
1,44,117,0
1,59,0,108
1,56,0,0
1,51,0,0
1,44,0,0
1,44,116,12
1,51,119,0
1,56,120,0
1,59,119,0
1,44,0,108
1,51,0,0
1,56,0,0
1,59,0,0
1,44,92,132
1,51,84,0
1,56,72,0
1,59,75,0
1,44,0,108
1,51,0,0
1,56,0,0
1,59,0,0
1,57,120,12
1,54,118,0
1,49,116,0
1,42,117,0
1,57,0,216
1,54,0,0
1,49,0,0
1,42,0,0
1,57,119,24
1,54,120,0
1,49,118,0
1,42,120,0
1,54,0,108
1,49,0,0
1,42,0,0
1,57,91,12
1,54,95,0
1,49,96,0
1,42,95,0
1,57,0,96
1,57,0,12
1,54,0,0
