track,note,velocity,time
4,72,127,1437
4,60,127,0
4,36,112,0
4,52,112,192
4,55,112,1
4,52,112,192
4,76,127,51
4,64,127,0
4,60,112,0
4,79,127,384
4,67,127,0
4,79,127,35
4,67,127,0
4,41,112,0
4,48,112,192
4,81,127,5
4,69,127,0
4,53,112,0
4,77,127,179
4,65,127,0
4,48,112,0
4,57,112,185
4,76,127,7
4,64,127,0
4,74,127,1
4,62,127,0
4,43,112,0
4,74,127,69
4,62,127,0
4,50,112,0
4,74,127,77
4,62,127,0
4,55,112,0
4,74,127,97
4,62,127,0
4,50,112,0
4,76,127,27
4,64,127,0
4,59,112,0
4,77,127,192
4,65,127,0
4,76,127,29
4,64,127,0
4,36,112,25
4,52,112,192
4,55,112,192
4,52,112,15
4,76,127,39
4,64,127,0
4,60,112,0
4,74,127,3
4,62,127,0
4,72,127,21
4,60,127,0
4,45,112,0
4,48,112,192
4,52,112,192
4,72,127,141
4,60,127,0
4,48,112,0
4,74,127,37
4,62,127,0
4,57,112,0
4,76,127,9
4,64,127,0
4,74,127,23
4,62,127,0
4,38,112,0
4,50,112,192
4,76,127,13
4,64,127,0
4,53,112,0
4,74,127,181
4,62,127,0
4,50,112,0
4,57,112,179
4,67,127,384
4,55,127,0
4,69,127,9
4,57,127,0
4,72,127,17
4,60,127,0
4,41,112,0
4,72,127,61
4,60,127,0
4,48,112,0
4,72,127,103
4,60,127,0
4,53,112,0
4,72,127,115
4,60,127,0
4,48,112,0
4,74,127,103
4,62,127,0
4,57,112,0
4,76,127,3
4,64,127,0
4,74,127,5
4,62,127,0
4,43,112,23
4,79,127,384
4,67,127,0
4,71,127,0
4,67,127,0
4,55,127,0
4,59,127,0
4,72,127,45
4,69,127,0
4,79,127,0
4,60,127,0
4,57,127,0
4,67,127,0
4,71,127,61
4,79,127,0
4,74,127,0
4,59,127,0
4,67,127,0
4,62,127,0
4,36,112,97
4,52,112,192
4,55,112,1
4,52,112,192
4,60,112,192
4,41,112,35
4,48,112,192
4,53,112,192
4,48,112,179
4,57,112,192
4,43,112,1
4,50,112,187
4,55,112,192
4,50,112,185
4,59,112,192
4,36,112,25
4,52,112,192
4,55,112,192
4,52,112,187
4,60,112,192
4,45,112,21
4,48,112,192
4,52,112,192
4,48,112,177
4,57,112,192
4,38,112,39
4,50,112,192
4,53,112,192
4,50,112,181
4,57,112,192
4,41,112,17
4,48,112,192
4,53,112,192
4,48,112,191
4,57,112,192
4,43,112,23
4,36,112,99
4,52,112,192
4,55,112,1
4,52,112,192
4,60,112,192
4,41,112,35
4,48,112,192
4,53,112,192
4,48,112,179
4,57,112,192
4,43,112,1
4,50,112,187
4,55,112,192
4,50,112,185
4,59,112,192
4,36,112,25
4,52,112,192
4,55,112,192
4,52,112,187
4,60,112,192
4,45,112,21
4,48,112,192
4,52,112,192
4,48,112,177
4,57,112,192
4,38,112,39
4,50,112,192
4,53,112,192
4,50,112,181
4,57,112,192
4,41,112,17
4,48,112,192
4,53,112,192
4,48,112,191
4,57,112,192
4,43,127,23
4,50,127,192
4,55,127,192
4,59,127,192
4,62,127,192
4,41,127,59
4,60,127,192
4,69,127,192
4,65,127,1
4,62,127,33
4,67,127,192
4,71,127,192
4,67,127,125
4,59,127,223
4,62,127,192
4,69,127,89
4,64,127,15
4,62,127,151
4,65,127,192
4,69,127,192
4,67,127,65
4,71,127,0
4,64,127,449
4,60,127,0
4,62,127,117
4,65,127,0
4,64,127,93
4,67,127,0
4,41,127,93
4,60,127,192
4,69,127,192
4,65,127,0
4,60,127,1
4,71,127,11
4,67,127,0
4,62,127,0
4,64,127,61
4,67,127,192
4,71,127,0
4,64,127,185
4,72,127,61
4,69,127,0
4,64,127,0
4,62,127,139
4,65,127,192
4,69,127,192
4,62,127,157
4,69,127,59
4,65,127,0
4,62,127,0
4,62,127,7
4,71,127,49
4,67,127,0
4,62,127,0
4,71,127,127
4,67,127,0
4,69,127,95
4,72,127,0
4,71,127,67
4,74,127,0
4,84,113,79
4,60,112,0
4,88,113,51
4,64,112,0
4,91,113,384
4,67,112,0
4,91,113,73
4,67,112,0
4,93,113,5
4,69,112,0
4,89,113,192
4,65,112,0
4,88,113,7
4,64,112,0
4,86,113,13
4,62,112,0
4,86,113,69
4,62,112,0
4,86,113,77
4,62,112,0
4,86,113,97
4,62,112,0
4,88,113,27
4,64,112,0
4,89,113,192
4,65,112,0
4,88,113,29
4,64,112,0
4,41,127,7113
4,60,127,192
4,69,127,192
4,65,127,1
4,62,127,33
4,67,127,192
4,71,127,192
4,67,127,125
4,59,127,223
4,62,127,192
4,69,127,89
4,64,127,15
4,62,127,151
4,65,127,192
4,69,127,192
4,67,127,65
4,71,127,0
4,64,127,449
4,60,127,0
4,62,127,117
4,65,127,0
4,64,127,93
4,67,127,0
4,41,127,93
4,60,127,192
4,69,127,192
4,65,127,0
4,60,127,1
4,71,127,11
4,67,127,0
4,62,127,0
4,64,127,61
4,67,127,192
4,71,127,0
4,64,127,185
4,72,127,61
4,69,127,0
4,64,127,0
4,62,127,139
4,65,127,192
4,69,127,192
4,62,127,157
4,69,127,59
4,65,127,0
4,62,127,0
4,62,127,7
4,71,127,49
4,67,127,0
4,62,127,0
4,71,127,127
4,67,127,0
4,69,127,95
4,72,127,0
4,71,127,67
4,74,127,0
4,48,112,79
4,64,112,192
4,67,112,1
4,64,112,192
4,72,112,192
4,53,112,35
4,60,112,192
4,65,112,192
4,60,112,179
4,69,112,192
4,55,112,1
4,62,112,187
4,67,112,192
4,62,112,185
4,71,112,192
4,48,112,25
4,64,112,192
4,67,112,192
4,64,112,187
4,72,112,192
4,57,112,21
4,60,112,192
4,64,112,192
4,60,112,177
4,69,112,192
4,50,112,39
4,62,112,192
4,65,112,192
4,62,112,181
4,69,112,192
4,53,112,17
4,60,112,192
4,65,112,192
4,60,112,191
4,69,112,192
4,55,112,23
4,72,127,99
4,60,127,0
4,36,127,0
4,52,127,192
4,55,127,1
4,52,127,192
4,76,127,51
4,64,127,0
4,60,127,0
4,79,127,384
4,67,127,0
4,79,127,35
4,67,127,0
4,41,127,0
4,48,127,192
4,81,127,5
4,69,127,0
4,53,127,0
4,77,127,179
4,65,127,0
4,48,127,0
4,57,127,185
4,76,127,7
4,64,127,0
4,74,127,1
4,62,127,0
4,43,127,0
4,74,127,69
4,62,127,0
4,50,127,0
4,74,127,77
4,62,127,0
4,55,127,0
4,74,127,97
4,62,127,0
4,50,127,0
4,76,127,27
4,64,127,0
4,59,127,0
4,77,127,192
4,65,127,0
4,76,127,29
4,64,127,0
4,36,127,25
4,52,127,192
4,55,127,192
4,52,127,187
4,60,127,192
4,74,127,384
4,62,127,0
4,45,127,21
4,48,127,192
4,52,127,192
4,48,127,177
4,57,127,192
4,38,127,39
4,50,127,192
4,53,127,192
4,50,127,181
4,57,127,192
4,41,127,17
4,48,127,192
4,53,127,192
4,57,127,0
4,48,127,7
4,43,127,9
4,50,127,0
4,55,127,0
4,59,127,0
4,60,127,109
4,64,127,1
4,67,127,33
4,67,127,115
4,69,127,1
4,65,127,3
4,72,127,960
4,69,127,11
4,67,127,29
4,64,127,192
4,55,127,45
4,48,127,6
4,60,127,28
4,60,127,12
4,64,127,26
5,31,127,23423
5,33,127,33
5,35,127,53
5,36,127,7
5,31,127,21
5,29,127,31
5,31,127,1
5,24,127,37
5,36,127,21
5,35,127,19
5,33,127,59
5,38,127,43
5,26,127,133
5,28,127,96
5,29,127,13
5,31,127,63
5,29,127,269
5,29,127,81
5,29,127,55
5,28,127,21
5,28,127,93
5,33,127,63
5,38,127,87
5,38,127,33
5,31,127,47
5,36,127,169
5,36,127,71
5,38,127,83
5,40,127,81
5,29,127,143
5,29,127,83
5,29,127,67
5,28,127,63
5,28,127,85
5,33,127,61
5,38,127,119
5,38,127,87
5,38,127,71
5,43,127,59
5,31,127,25
5,33,127,49
5,35,127,71
5,36,127,89
5,36,127,85
5,29,127,15
5,29,127,123
5,31,127,53
5,31,127,115
5,24,127,51
5,36,127,768
5,35,127,29
5,33,127,53
5,33,127,93
5,26,127,61
5,26,127,113
5,28,127,41
5,29,127,41
5,29,127,147
5,31,127,65
5,31,127,25
5,31,127,53
5,31,127,65
5,29,127,85
5,29,127,81
5,29,127,55
5,28,127,21
5,28,127,93
5,33,127,63
5,38,127,87
5,38,127,33
5,31,127,47
5,36,127,169
5,36,127,71
5,38,127,83
5,40,127,81
5,29,127,143
5,29,127,83
5,29,127,67
5,28,127,63
5,28,127,85
5,33,127,61
5,38,127,119
5,38,127,87
5,38,127,71
5,43,127,59
5,31,127,25
5,33,127,49
5,35,127,71
5,36,127,89
5,36,127,85
5,29,127,15
5,29,127,123
5,31,127,53
5,31,127,115
5,24,127,51
5,36,127,768
5,35,127,29
5,33,127,53
5,33,127,93
5,26,127,61
5,26,127,113
5,28,127,41
5,29,127,41
5,29,127,147
5,31,127,65
5,59,127,384
5,47,127,32
5,60,127,25
5,48,127,32
5,62,127,111
5,50,127,32
5,48,127,143
5,48,127,20
5,52,127,31
5,52,127,20
5,55,127,364
5,55,127,5
5,55,127,53
5,55,127,20
5,57,127,5
5,57,127,5
5,53,127,172
5,53,127,13
5,52,127,7
5,52,127,7
5,50,127,13
5,50,127,13
5,50,127,49
5,50,127,20
5,50,127,57
5,50,127,20
5,50,127,77
5,50,127,20
5,52,127,7
5,52,127,20
5,53,127,172
5,53,127,11
5,52,127,9
5,52,127,20
6,72,127,1437
6,67,127,0
6,64,127,0
6,36,127,0
6,41,127,21
6,60,127,0
6,69,127,0
6,65,127,0
6,43,127,43
6,67,127,0
6,62,127,0
6,71,127,0
6,36,127,17
6,72,127,0
6,64,127,0
6,64,127,119
6,60,127,0
6,45,127,0
6,69,127,0
6,69,127,33
6,38,127,0
6,65,127,0
6,62,127,0
6,60,127,0
6,41,127,57
6,69,127,0
6,65,127,0
6,60,127,0
6,43,127,1
6,55,127,373
6,59,127,0
6,60,127,31
6,57,127,0
6,59,127,43
6,62,127,0
6,72,127,17
6,67,127,0
6,64,127,0
6,36,127,0
6,41,127,21
6,60,127,0
6,69,127,0
6,65,127,0
6,43,127,43
6,67,127,0
6,62,127,0
6,71,127,0
6,36,127,17
6,72,127,0
6,64,127,0
6,64,127,119
6,60,127,0
6,45,127,0
6,69,127,0
6,69,127,33
6,38,127,0
6,65,127,0
6,62,127,0
6,60,127,0
6,41,127,57
6,69,127,0
6,65,127,0
6,60,127,0
6,43,127,1
6,55,127,373
6,59,127,0
6,60,127,31
6,57,127,0
6,59,127,43
6,62,127,0
6,72,127,17
6,67,127,0
6,64,127,0
6,36,127,0
6,48,127,0
6,52,127,31
6,55,127,15
6,41,127,21
6,60,127,0
6,69,127,0
6,65,127,0
6,55,127,0
6,53,127,363
6,52,127,23
6,53,127,9
6,60,127,384
6,43,127,9
6,67,127,0
6,62,127,0
6,71,127,0
6,59,127,0
6,36,127,15
6,72,127,0
6,64,127,0
6,60,127,0
6,64,127,67
6,55,127,0
6,53,127,384
6,62,127,0
6,64,127,119
6,60,127,0
6,45,127,0
6,69,127,0
6,52,127,0
6,60,127,0
6,69,127,33
6,38,127,0
6,65,127,0
6,62,127,0
6,60,127,0
6,57,127,1152
6,59,127,5
6,41,127,57
6,69,127,0
6,65,127,0
6,60,127,0
6,60,127,0
6,62,127,753
6,60,127,7
6,71,127,1
6,67,127,0
6,62,127,0
6,67,127,0
6,84,109,135
6,83,109,15
6,86,109,29
6,84,109,768
6,86,109,99
6,93,109,121
6,91,109,39
6,88,109,113
6,89,109,384
6,91,109,21
6,93,109,109
6,91,109,768
6,91,109,75
6,93,109,768
6,81,109,7
6,83,109,192
6,84,109,13
6,86,109,3
6,88,109,45
6,89,109,384
6,91,109,29
6,64,127,329
6,60,127,0
6,48,127,0
6,84,127,0
6,55,127,0
6,88,127,51
6,91,127,384
6,57,127,31
6,60,127,0
6,53,127,0
6,41,127,0
6,91,127,0
6,93,127,5
6,89,127,192
6,88,127,7
6,59,127,13
6,62,127,0
6,55,127,0
6,43,127,0
6,86,127,0
6,86,127,69
6,86,127,77
6,86,127,97
6,88,127,27
6,89,127,192
6,88,127,29
6,64,127,45
6,60,127,0
6,36,127,0
6,64,127,77
6,60,127,0
6,55,127,0
6,62,127,24
6,60,127,35
6,64,127,0
6,57,127,0
6,45,127,12
6,53,127,173
6,50,127,0
6,57,127,0
6,38,127,0
6,57,127,3
6,53,127,0
6,48,127,0
6,41,127,0
6,55,127,15
6,59,127,3
6,50,127,2
6,43,127,4
6,84,127,67
6,83,127,15
6,86,127,29
6,84,127,768
6,86,127,99
6,93,127,1152
6,91,127,39
6,88,127,113
6,89,127,384
6,91,127,21
6,93,127,109
6,91,127,768
6,91,127,75
6,93,127,768
6,81,127,7
6,83,127,192
6,84,127,13
6,86,127,3
6,88,127,45
6,89,127,384
6,91,127,29
6,55,127,329
6,64,127,0
6,60,127,0
6,48,127,0
6,84,111,0
6,88,111,25
6,84,111,384
6,57,127,17
6,60,127,0
6,53,127,0
6,41,127,0
6,91,111,0
6,89,111,17
6,88,111,13
6,89,111,5
6,96,111,384
6,59,127,1
6,62,127,0
6,55,127,0
6,43,127,0
6,95,111,0
6,93,111,11
6,91,111,3
6,89,111,384
6,64,127,5
6,60,127,0
6,36,127,0
6,88,111,0
6,88,111,49
6,88,111,0
6,84,111,4
6,84,111,0
6,64,127,24
6,60,127,0
6,55,127,0
6,62,127,9
6,86,97,0
6,83,97,0
6,60,127,35
6,64,127,0
6,57,127,0
6,81,97,0
6,84,97,0
6,76,97,0
6,45,127,313
6,53,127,69
6,50,127,0
6,57,127,0
6,38,127,0
6,77,97,0
6,81,97,0
6,74,97,0
6,57,127,3
6,53,127,0
6,48,127,0
6,41,127,0
6,81,97,0
6,77,97,0
6,72,97,0
6,55,127,15
6,59,127,3
6,50,127,2
6,43,127,4
6,79,97,9
6,83,97,0
6,74,97,0
6,72,127,67
6,67,127,0
6,64,127,0
6,36,127,0
6,41,127,21
6,60,127,0
6,69,127,0
6,65,127,0
6,43,127,43
6,67,127,0
6,62,127,0
6,71,127,0
6,36,127,17
6,72,127,0
6,64,127,0
6,64,127,119
6,60,127,0
6,45,127,0
6,69,127,0
6,45,112,0
6,38,112,25
6,69,127,33
6,38,127,0
6,65,127,0
6,62,127,0
6,60,127,0
6,41,112,15
6,69,127,39
6,60,127,0
6,65,127,0
6,43,112,5
6,71,127,12
6,67,127,2
6,62,127,4
6,55,127,63
6,64,127,0
6,60,127,0
6,48,112,0
6,60,127,5
6,64,127,4
6,57,127,2
6,53,127,4
6,41,127,12
6,60,127,59
6,36,127,0
6,64,127,4
6,55,127,4
7,76,117,15
7,72,117,0
7,67,117,0
7,72,117,3
7,69,117,0
7,65,117,0
7,74,117,3
7,71,117,0
7,67,117,0
7,76,117,3
7,72,117,0
7,67,117,0
7,76,117,3
7,72,117,0
7,69,117,0
7,69,117,3
7,65,117,0
7,62,117,0
7,72,117,3
7,69,117,0
7,65,117,0
7,71,117,291
7,67,117,0
7,72,117,3
7,69,117,0
7,74,117,3
7,71,117,0
7,76,117,3
7,72,117,0
7,67,117,0
7,72,117,3
7,69,117,0
7,65,117,0
7,74,117,3
7,71,117,0
7,67,117,0
7,76,117,3
7,72,117,0
7,67,117,0
7,76,117,3
7,72,117,0
7,69,117,0
7,69,117,3
7,65,117,0
7,62,117,0
7,72,117,3
7,69,117,0
7,65,117,0
7,71,117,3
7,67,117,0
7,62,117,0
7,69,117,3
7,65,117,0
7,60,117,0
7,71,117,3
7,67,117,0
7,62,117,0
7,72,117,3
7,69,117,0
7,64,117,0
7,69,117,3
7,65,117,0
7,62,117,0
7,71,117,3
7,67,117,0
7,62,117,0
7,64,117,3
7,60,117,0
7,65,117,3
7,62,117,0
7,67,117,3
7,64,117,0
7,69,117,3
7,65,117,0
7,60,117,0
7,71,117,3
7,67,117,0
7,62,117,0
7,71,117,3
7,67,117,0
7,64,117,0
7,72,117,3
