track,note,velocity,time
2,58,95,1152
2,62,95,0
2,74,95,384
2,70,95,192
2,62,0,88
2,62,95,296
2,70,0,48
2,74,0,8
2,70,95,136
2,74,95,0
2,62,0,48
2,58,0,24
2,51,95,312
2,74,0,40
2,70,0,8
2,58,95,144
2,63,95,192
2,67,95,0
2,55,95,576
2,63,0,40
2,67,0,8
2,63,95,144
2,67,95,0
2,55,0,24
2,51,0,40
2,58,0,8
2,63,0,312
2,58,95,0
2,62,95,0
2,67,0,8
2,74,95,376
2,70,95,192
2,62,0,128
2,62,95,256
2,70,0,48
2,62,0,144
2,70,95,0
2,58,0,48
2,70,0,336
2,74,0,0
2,51,95,0
2,58,95,0
2,67,95,0
2,67,0,384
2,58,0,0
2,51,0,0
2,60,95,0
2,72,95,192
2,69,95,96
2,75,95,96
2,60,0,400
2,58,95,368
2,62,95,0
2,69,0,8
2,75,0,8
2,72,0,8
2,65,95,552
2,74,95,192
2,70,95,192
2,62,0,248
2,65,0,16
2,58,0,8
2,68,95,112
2,51,95,192
2,70,0,24
2,74,0,8
2,68,0,24
2,58,95,136
2,63,95,192
2,67,95,192
2,55,95,384
2,55,0,184
2,70,95,8
2,58,0,48
2,51,0,16
2,53,95,320
2,63,0,32
2,67,0,16
2,70,0,16
2,60,95,128
2,69,95,192
2,72,95,0
2,65,95,192
2,75,95,192
2,65,0,280
2,75,0,112
2,69,0,8
2,72,0,0
2,63,95,176
2,67,95,0
2,60,0,16
2,53,0,8
2,67,0,136
2,58,95,32
2,62,95,0
2,63,0,56
2,65,95,136
2,65,0,312
2,65,95,72
2,70,95,192
2,74,95,0
2,65,0,288
2,65,95,96
2,62,0,16
2,58,0,32
2,70,0,336
2,74,0,0
2,50,95,0
2,65,0,16
2,69,95,656
2,74,95,96
2,77,95,192
2,74,0,136
2,74,95,56
2,50,0,80
2,69,0,64
2,69,95,48
2,77,0,192
2,51,95,0
2,74,0,40
2,69,0,16
2,58,95,136
2,67,95,192
2,63,95,192
2,70,95,384
2,63,0,120
2,58,0,8
2,51,0,56
2,63,95,8
2,70,0,384
2,48,95,0
2,52,95,0
2,63,0,8
2,67,0,16
2,60,95,168
2,64,95,192
2,67,95,0
2,60,0,104
2,71,95,280
2,72,95,0
2,71,0,72
2,67,0,200
2,67,95,112
2,52,0,40
2,48,0,24
2,72,0,144
2,60,95,80
2,53,95,96
2,57,95,0
2,67,0,24
2,64,0,16
2,60,0,8
2,60,95,144
2,69,95,192
2,72,95,0
2,65,95,192
2,75,95,192
2,65,0,128
2,65,95,64
2,57,0,56
2,60,0,8
2,69,0,48
2,53,0,0
2,69,95,80
2,65,0,112
2,65,95,80
2,69,0,192
2,53,95,0
2,72,0,8
2,75,0,8
2,65,0,24
2,60,95,152
2,69,95,192
2,72,95,0
2,75,95,384
2,65,95,384
2,60,0,72
2,53,0,8
2,58,95,304
2,65,0,16
2,69,0,8
2,75,0,0
2,72,0,8
2,62,95,160
2,65,95,192
2,70,95,192
2,74,95,192
2,70,0,96
2,70,95,288
2,65,0,48
2,62,0,8
2,58,0,32
2,51,95,296
2,70,0,16
2,74,0,0
2,58,95,176
2,67,95,192
2,63,95,96
2,55,95,96
2,70,95,192
2,63,0,80
2,67,0,144
2,67,95,160
2,55,0,24
2,58,0,40
2,51,0,24
2,63,95,104
2,53,95,192
2,63,0,16
2,70,0,40
2,67,0,0
2,65,95,136
2,69,95,192
2,72,95,0
2,65,0,104
2,65,95,88
2,75,95,192
2,65,0,64
2,65,95,320
2,53,0,24
2,65,0,352
2,69,0,0
2,72,0,8
2,75,0,0
2,58,95,0
2,62,95,0
2,74,95,384
2,70,95,192
2,62,0,72
2,62,95,120
2,70,0,128
2,70,95,256
2,62,0,24
2,58,0,32
2,50,95,328
2,70,0,24
2,74,0,8
2,57,95,160
2,62,95,192
2,65,95,192
2,62,0,64
2,62,95,128
2,57,0,32
2,57,95,352
2,50,0,64
2,62,0,88
2,62,95,40
2,51,95,192
2,57,0,32
2,62,0,16
2,65,0,8
2,58,95,136
2,63,95,192
2,67,95,192
2,55,95,192
2,58,0,40
2,67,0,128
2,63,0,24
2,55,0,192
2,64,95,0
2,67,95,0
2,51,0,32
2,53,95,352
2,67,0,48
2,64,0,8
2,58,95,136
2,70,95,192
2,58,0,160
2,58,95,32
2,66,95,384
2,53,0,112
2,58,0,16
2,70,0,16
2,67,95,48
2,71,95,0
2,66,0,40
2,60,95,344
2,71,0,16
2,67,0,16
2,76,95,352
2,64,95,192
2,67,95,192
2,72,95,192
2,76,0,120
2,76,95,72
2,79,95,0
2,67,0,56
2,60,0,8
2,64,0,8
2,72,0,112
2,72,95,8
2,53,95,192
2,79,0,16
2,76,0,16
2,72,0,32
2,60,95,128
2,57,95,384
2,72,95,192
2,75,95,0
2,69,95,384
2,60,0,32
2,57,0,8
2,53,0,16
2,58,95,328
2,72,0,24
2,75,0,0
2,69,0,16
2,62,95,344
2,65,95,192
2,70,95,192
2,74,95,0
2,65,0,88
2,62,0,0
2,58,0,32
2,74,0,232
2,70,0,8
2,62,95,24
2,66,95,0
2,69,95,0
2,72,95,96
2,69,0,208
2,66,0,64
2,62,0,16
2,67,95,0
2,70,95,0
2,72,0,16
2,74,95,368
2,67,0,136
2,67,95,56
2,70,0,144
2,74,0,16
2,57,95,32
2,53,95,0
2,69,95,0
2,67,0,32
2,60,95,352
2,69,0,72
2,53,0,208
2,57,0,32
2,60,0,0
2,51,95,72
2,63,95,0
2,55,95,192
2,67,95,192
2,55,0,96
2,51,0,64
2,50,95,224
2,67,0,72
2,63,0,16
2,62,95,104
2,69,95,192
2,65,95,192
2,50,0,24
2,48,95,168
2,69,0,8
2,65,0,16
2,62,0,8
2,63,95,160
2,67,95,0
2,70,95,192
2,48,0,80
2,60,95,112
2,53,95,192
2,57,95,0
2,67,0,24
2,60,0,8
2,70,0,24
2,63,0,16
2,69,95,312
2,72,95,0
2,75,95,0
2,57,0,80
2,53,0,0
2,65,95,112
2,69,0,184
2,58,95,8
2,65,0,32
2,72,0,16
2,75,0,8
2,62,95,136
2,70,95,192
2,74,95,0
2,62,0,64
2,58,0,48
2,50,95,272
2,74,0,24
2,70,0,8
2,69,95,160
2,72,95,0
2,66,95,384
2,50,0,24
2,55,95,168
2,66,0,56
2,69,0,8
2,72,0,0
2,58,95,128
2,70,95,192
2,74,95,0
2,67,95,192
2,74,0,64
2,70,0,8
2,55,0,16
2,58,0,8
2,70,95,0
2,67,0,64
2,53,95,32
2,70,0,8
2,69,95,88
2,57,95,96
2,60,95,192
2,65,95,192
2,72,95,0
2,57,0,8
2,60,0,8
2,53,0,24
2,51,95,152
2,72,0,32
2,69,0,56
2,65,0,0
2,58,95,104
2,67,95,192
2,63,95,192
2,58,0,112
2,51,0,16
2,50,95,64
2,63,0,120
2,67,0,56
2,62,95,16
2,65,95,96
2,69,95,96
2,50,0,56
2,62,0,96
2,62,95,40
2,48,95,192
2,69,0,8
2,65,0,16
2,62,0,0
2,60,95,168
2,63,95,192
2,67,95,0
2,48,0,72
2,60,0,80
2,60,95,40
2,63,0,88
2,67,0,80
2,64,95,24
2,67,95,0
2,70,95,384
2,70,0,368
2,60,0,16
2,53,95,0
2,57,95,0
2,64,0,8
2,67,0,8
2,60,95,368
2,65,95,96
2,69,95,96
2,72,95,96
2,77,95,96
2,72,0,80
2,65,0,0
2,57,0,48
2,69,0,48
2,72,95,208
2,69,95,96
2,77,0,64
2,60,0,64
2,53,0,24
2,72,0,72
2,69,0,48
2,53,95,16
2,65,95,0
2,69,95,0
2,72,95,0
2,60,95,576
2,77,95,192
2,72,0,32
2,57,95,160
2,75,95,192
2,57,0,96
2,53,0,0
2,60,0,16
2,77,0,48
2,58,95,224
2,69,0,32
2,65,0,16
2,75,0,8
2,65,95,136
2,62,95,192
2,70,95,192
2,74,95,192
2,62,0,24
2,62,95,168
2,70,0,80
2,70,95,112
2,65,0,64
2,62,0,24
2,58,0,24
2,51,95,272
2,74,0,16
2,70,0,32
2,58,95,144
2,63,95,192
2,67,95,192
2,70,95,192
2,67,0,72
2,67,95,312
2,58,0,56
2,51,0,16
2,63,0,88
2,63,95,32
2,53,95,192
2,70,0,64
2,67,0,0
2,63,0,8
2,60,95,120
2,69,95,192
2,72,95,0
2,65,95,192
2,75,95,192
2,65,0,48
2,65,95,336
2,60,0,16
2,53,0,16
2,58,95,352
2,72,0,32
2,69,0,0
2,65,0,8
2,75,0,8
2,62,95,144
2,70,95,192
2,74,95,0
2,65,95,192
2,74,0,312
2,70,0,80
2,70,95,184
2,74,95,0
2,62,0,32
2,65,0,40
2,58,0,16
2,50,95,296
2,74,0,8
2,70,0,8
2,53,95,176
2,65,95,192
2,69,95,0
2,62,95,192
2,69,0,112
2,65,0,16
2,72,95,64
2,65,95,384
2,69,95,0
2,50,0,48
2,53,0,0
2,72,0,24
2,62,0,88
2,62,95,32
2,51,95,192
2,69,0,32
2,65,0,8
2,62,0,8
2,55,95,144
2,63,95,192
2,67,95,0
2,55,0,72
2,58,95,312
2,55,95,192
2,67,0,40
2,63,0,24
2,63,95,128
2,67,95,0
2,55,0,48
2,58,0,40
2,51,0,24
2,48,95,272
2,52,95,0
2,67,0,24
2,63,0,0
2,60,95,168
2,64,95,192
2,67,95,0
2,70,95,384
2,60,0,232
2,70,0,128
2,64,0,8
2,60,95,16
2,64,95,0
2,52,0,40
2,48,0,0
2,64,0,320
2,60,0,0
2,67,0,16
2,53,95,8
2,57,95,0
2,69,95,384
2,72,95,0
2,65,95,192
2,69,0,72
2,72,0,40
2,69,95,80
2,72,95,0
2,75,95,0
2,65,0,200
2,75,0,424
2,65,95,48
2,77,95,96
2,72,0,120
2,69,0,552
2,75,95,96
2,72,95,192
2,69,95,192
2,77,0,16
2,53,0,32
2,57,0,8
2,75,0,0
2,65,0,56
2,65,95,80
2,72,0,192
2,58,95,0
2,69,0,24
2,65,0,8
2,62,95,160
2,65,95,192
2,70,95,192
2,74,95,192
2,70,0,168
2,70,95,216
2,65,0,72
2,62,0,16
2,58,0,40
2,51,95,256
2,74,0,8
2,70,0,32
2,58,95,152
2,67,95,192
2,63,95,192
2,70,95,384
2,63,0,120
2,63,95,72
2,58,0,88
2,51,0,8
2,53,95,288
2,70,0,8
2,63,0,0
2,67,0,24
2,60,95,160
2,65,95,192
2,69,95,192
2,72,95,192
2,75,95,0
2,65,0,280
2,65,95,104
2,60,0,56
2,53,0,8
2,65,0,320
2,58,95,0
2,62,95,0
2,69,0,32
2,75,0,0
2,72,0,8
2,70,95,152
2,74,95,192
2,62,0,144
2,58,0,16
2,58,95,224
2,77,95,0
2,74,0,88
2,62,95,104
2,74,95,192
2,62,0,64
2,58,0,32
2,77,0,288
2,50,95,0
2,70,0,24
2,74,0,16
2,65,95,344
2,69,95,0
2,62,95,192
2,65,0,72
2,69,0,24
2,72,95,96
2,69,95,384
2,65,95,0
2,50,0,72
2,72,0,40
2,62,0,40
2,62,95,40
2,51,95,192
2,65,0,8
2,69,0,0
2,62,0,40
2,58,95,144
2,63,95,192
2,67,95,192
2,70,95,0
2,55,95,192
2,70,0,64
2,67,0,0
2,63,0,48
2,64,95,272
2,67,95,0
2,70,95,0
2,55,0,16
2,58,0,32
2,51,0,16
2,64,0,248
2,67,0,0
2,70,0,16
2,65,95,56
2,72,95,0
2,70,95,384
2,65,0,176
2,65,95,16
2,65,0,352
2,70,0,40
2,72,0,0
2,67,95,184
2,71,95,0
2,74,95,0
2,60,95,384
2,74,0,8
2,67,0,8
2,71,0,24
2,67,95,152
2,76,95,192
2,79,95,0
2,64,95,192
2,82,95,384
2,72,95,192
2,64,0,24
2,67,0,0
2,60,0,16
2,76,0,336
2,53,95,8
2,57,95,0
2,82,0,8
2,79,0,8
2,72,0,0
2,65,95,176
2,69,95,192
2,72,95,0
2,65,0,176
2,75,95,208
2,65,95,384
2,75,0,16
2,57,0,8
2,53,0,8
2,69,0,296
2,72,0,8
2,65,0,8
2,58,95,40
2,62,95,0
2,70,95,384
2,74,95,0
2,62,0,120
2,58,0,16
2,74,0,232
2,70,0,8
2,55,95,8
2,59,95,0
2,71,95,384
2,74,95,0
2,55,0,120
2,59,0,8
2,67,95,64
2,64,95,192
2,60,95,0
2,67,0,16
2,74,0,0
2,71,0,0
2,72,95,176
2,76,95,192
2,64,0,56
2,60,0,8
2,53,95,320
2,57,95,0
2,72,0,24
2,76,0,0
2,65,95,168
2,69,95,192
2,72,95,0
2,75,95,0
2,57,0,88
2,53,0,8
2,65,0,64
2,65,95,32
2,69,0,192
2,58,95,0
2,62,95,0
2,65,0,8
2,75,0,8
2,72,0,0
2,65,95,176
2,70,95,192
2,74,95,0
2,65,0,48
2,62,0,40
2,58,0,24
2,59,95,272
2,55,95,0
2,74,0,16
2,70,0,0
2,67,95,176
2,71,95,96
2,74,95,96
2,55,0,96
2,59,0,8
2,71,0,280
2,67,0,0
2,74,0,0
2,67,95,0
2,60,95,0
2,48,95,0
2,55,95,0
2,72,95,0
2,75,95,0
2,75,0,384
2,60,0,0
2,48,0,0
2,67,0,0
2,72,0,0
2,55,0,0
2,72,95,0
2,67,95,0
2,75,95,0
2,75,0,384
2,67,0,0
2,72,0,0
2,53,95,0
2,60,95,0
2,65,95,0
2,69,95,0
2,69,0,384
2,53,0,0
2,60,0,0
2,65,0,0
2,63,95,0
2,48,95,0
2,41,95,0
2,69,95,0
2,72,95,0
2,72,0,384
2,41,0,0
2,63,0,0
2,48,0,0
2,69,0,0
2,62,95,0
2,53,95,0
2,46,95,0
2,65,95,0
2,65,0,1536
2,62,0,0
2,53,0,0
2,46,0,0
3,46,95,1536
3,53,95,192
3,58,95,192
3,53,0,144
3,53,95,48
3,58,0,88
3,62,95,104
3,53,0,144
3,58,95,48
3,53,95,192
3,58,0,72
3,46,0,40
3,58,95,80
3,53,0,176
3,51,95,16
3,62,0,32
3,58,0,8
3,58,95,152
3,63,95,192
3,58,0,104
3,58,95,88
3,63,0,88
3,67,95,104
3,58,0,104
3,63,95,88
3,67,0,96
3,58,95,96
3,51,0,120
3,63,0,32
3,63,95,40
3,58,0,184
3,46,95,8
3,63,0,48
3,53,95,144
3,58,95,192
3,53,0,112
3,53,95,80
3,58,0,104
3,62,95,88
3,53,0,88
3,58,95,104
3,46,0,136
3,53,95,56
3,58,0,176
3,58,95,16
3,53,0,152
3,58,0,40
3,62,0,0
3,51,95,0
3,58,95,0
3,67,95,0
3,53,95,192
3,57,95,192
3,53,0,120
3,53,95,72
3,67,0,176
3,58,0,0
3,63,95,16
3,57,0,104
3,51,0,256
3,53,0,360
3,63,0,24
3,46,95,24
3,53,95,192
3,58,95,192
3,53,0,104
3,53,95,88
3,58,0,80
3,62,95,112
3,53,0,128
3,58,95,64
3,46,0,88
3,53,95,104
3,58,0,136
3,58,95,56
3,51,95,192
3,53,0,24
3,58,0,16
3,62,0,8
3,55,95,144
3,58,95,192
3,55,0,80
3,51,0,0
3,55,95,112
3,58,0,96
3,63,95,96
3,55,0,144
3,58,95,48
3,55,95,192
3,58,0,56
3,58,95,136
3,55,0,120
3,53,95,72
3,58,0,16
3,63,0,40
3,60,95,136
3,65,95,192
3,60,0,32
3,60,95,160
3,65,0,96
3,65,95,96
3,60,0,96
3,60,95,96
3,65,0,64
3,65,95,128
3,60,0,80
3,53,0,96
3,60,95,16
3,65,0,192
3,46,95,0
3,60,0,32
3,53,95,160
3,58,95,192
3,53,0,64
3,53,95,128
3,58,0,96
3,62,95,96
3,53,0,80
3,58,95,112
3,46,0,160
3,53,95,32
3,58,0,96
3,58,95,96
3,53,0,120
3,50,95,72
3,58,0,8
3,62,0,8
3,57,95,176
3,62,95,192
3,57,0,128
3,57,95,64
3,62,0,96
3,62,95,96
3,57,0,104
3,57,95,88
3,62,0,80
3,62,95,112
3,57,0,112
3,50,0,64
3,57,95,16
3,51,95,192
3,62,0,8
3,57,0,64
3,58,95,120
3,63,95,192
3,58,0,56
