track,note,velocity,time
0,55,62,337
0,83,87,0
0,67,48,60
0,71,60,60
0,74,62,60
0,71,0,10
0,83,0,19
0,67,0,8
0,54,57,23
0,81,95,0
0,55,0,7
0,74,0,23
0,66,45,30
0,69,62,60
0,81,0,46
0,74,62,14
0,79,84,0
0,69,0,14
0,66,0,8
0,79,0,2
0,78,71,6
0,52,62,30
0,79,73,0
0,78,0,1
0,54,0,7
0,74,0,44
0,64,51,8
0,67,57,60
0,71,34,60
0,79,0,8
0,67,0,8
0,64,0,14
0,71,0,8
0,62,55,22
0,45,57,0
0,69,69,0
0,64,63,0
0,74,95,0
0,52,0,6
0,59,74,52
0,62,0,36
0,45,0,6
0,59,0,18
0,61,53,2
0,45,62,0
0,73,79,0
0,74,0,5
0,61,0,107
0,45,0,4
0,64,0,0
0,73,0,1
0,69,0,1
0,50,61,2
0,69,69,0
0,62,62,0
0,38,52,0
0,66,55,0
0,66,0,99
0,62,0,6
0,69,0,0
0,62,62,15
0,69,64,0
0,66,56,0
0,66,110,0
0,66,0,20
0,67,104,0
0,69,0,10
0,66,0,2
0,62,0,3
0,67,0,9
0,62,63,1
0,69,64,0
0,66,56,0
0,69,112,0
0,38,0,27
0,50,0,9
0,38,71,10
0,50,79,60
0,62,0,9
0,69,0,26
0,66,0,14
0,69,0,4
0,67,115,0
0,62,62,1
0,67,0,27
0,66,109,0
0,38,0,1
0,62,0,14
0,66,0,8
0,49,69,8
0,69,66,0
0,64,67,0
0,61,67,0
0,50,0,2
0,66,109,0
0,66,0,0
0,64,97,0
0,61,0,8
0,69,0,3
0,64,0,5
0,64,76,10
0,69,73,0
0,61,64,60
0,64,0,6
0,69,0,4
0,64,64,50
0,61,0,16
0,69,67,32
0,69,0,32
0,64,0,18
0,61,68,10
0,64,76,0
0,69,73,0
0,49,0,32
0,64,0,7
0,49,57,21
0,64,0,27
0,49,0,3
0,69,0,1
0,61,0,6
0,59,66,23
0,47,60,0
0,62,61,0
0,66,45,0
0,66,0,98
0,62,0,5
0,59,0,10
0,59,64,7
0,62,73,0
0,66,69,0
0,62,102,0
0,47,0,0
0,47,31,0
0,62,0,30
0,59,0,2
0,64,117,0
0,66,0,4
0,62,0,6
0,64,0,11
0,57,52,2
0,62,63,0
0,45,63,0
0,66,53,0
0,66,113,0
0,47,0,1
0,64,117,0
0,66,0,1
0,66,0,44
0,62,0,7
0,64,0,3
0,62,66,5
0,66,58,0
0,62,112,0
0,45,0,27
0,62,0,18
0,61,114,0
0,45,58,1
0,61,0,54
0,43,63,6
0,62,81,0
0,45,0,6
0,59,110,0
0,62,0,0
0,66,0,0
0,62,0,1
0,57,0,7
0,55,46,23
0,59,62,60
0,59,0,30
0,62,57,30
0,62,0,49
0,59,0,0
0,55,0,4
0,43,0,3
0,64,76,4
0,45,100,0
0,61,64,60
0,64,0,16
0,57,64,44
0,61,0,9
0,52,76,51
0,57,0,6
0,52,0,52
0,38,46,2
0,50,47,0
0,69,66,0
0,62,63,0
0,66,58,0
0,45,0,0
0,69,0,110
0,66,0,2
0,62,0,1
0,62,66,7
0,66,66,0
0,69,76,0
0,66,101,0
0,67,92,0
0,66,0,3
0,38,0,19
0,50,0,2
0,67,0,3
0,38,84,11
0,69,100,0
0,50,71,57
0,62,0,9
0,69,0,24
0,62,64,27
0,66,0,3
0,69,0,22
0,67,76,0
0,66,52,15
0,67,0,15
0,66,97,0
0,38,0,6
0,66,0,4
0,62,0,2
0,66,0,13
0,50,0,12
0,69,64,2
0,64,64,0
0,49,62,0
0,61,62,0
0,66,95,0
0,66,0,44
0,64,91,0
0,61,0,19
0,69,0,5
0,64,0,4
0,64,64,13
0,69,68,0
0,61,60,0
0,73,84,120
0,71,87,60
0,74,76,0
0,73,0,0
0,69,0,0
0,71,0,0
0,74,0,1
0,73,79,4
0,76,76,0
0,64,0,7
0,73,0,15
0,76,0,3
0,76,79,2
0,81,87,0
0,64,0,2
0,61,0,4
0,49,0,10
0,81,0,38
0,76,0,3
0,47,73,3
0,59,73,0
0,71,73,0
0,74,84,0
0,78,66,0
0,78,0,105
0,74,0,0
0,71,0,2
0,71,68,13
0,74,84,0
0,78,71,0
0,47,0,33
0,59,0,5
0,62,104,0
0,59,62,4
0,47,68,0
0,64,104,0
0,62,0,6
0,59,0,3
0,47,0,1
0,71,0,3
0,78,0,3
0,64,0,3
0,74,0,1
0,74,76,0
0,69,66,0
0,78,66,0
0,57,64,0
0,45,71,0
0,66,103,0
0,78,0,72
0,74,0,1
0,69,0,3
0,69,62,7
0,74,82,0
0,78,67,0
0,45,0,40
0,64,104,0
0,57,0,0
0,66,0,9
0,62,101,0
0,64,0,6
0,61,114,0
0,62,0,7
0,74,0,4
0,78,0,2
0,69,0,2
0,56,66,2
0,71,84,0
0,64,69,0
0,68,58,0
0,44,71,0
0,59,112,0
0,61,0,4
0,71,0,83
0,68,0,1
0,64,0,1
0,64,68,14
0,68,69,0
0,71,82,0
0,44,0,94
0,56,0,6
0,44,84,20
0,56,87,60
0,64,0,1
0,64,67,59
0,68,0,9
0,71,0,3
0,59,0,47
0,71,79,1
0,68,61,0
0,68,0,28
0,71,0,1
0,64,0,2
0,56,0,8
0,44,0,2
0,71,69,19
0,62,63,0
0,55,68,0
0,67,50,0
0,43,61,0
0,67,0,114
0,62,0,2
0,71,0,1
0,71,73,3
0,62,68,0
0,67,69,0
0,67,104,0
0,69,100,0
0,67,0,8
0,43,0,5
0,55,0,3
0,69,0,6
0,43,62,7
0,71,108,0
0,55,57,59
0,71,0,15
0,62,0,11
0,71,73,0
0,71,0,21
0,62,62,11
0,71,110,0
0,67,0,11
0,71,0,0
0,67,62,48
0,43,0,15
0,55,0,0
0,71,0,6
0,69,112,0
0,50,66,29
0,38,63,0
0,67,0,22
0,62,0,11
0,69,0,1
0,69,91,0
0,62,91,0
0,69,0,4
0,62,0,22
0,69,66,3
0,66,46,0
0,62,100,0
0,66,85,0
0,38,0,66
0,50,0,10
0,62,0,12
0,38,82,2
0,69,82,0
0,62,82,0
0,69,0,0
0,67,82,1
0,66,0,0
0,50,84,1
0,62,0,32
0,62,87,2
0,69,0,0
0,67,0,1
0,66,87,2
0,66,0,20
0,50,0,62
0,62,0,0
0,66,0,4
0,38,0,2
0,43,87,8
0,62,87,0
0,71,87,0
0,67,73,0
0,62,0,88
0,71,0,21
0,67,0,3
0,62,84,8
0,64,116,0
0,71,87,5
0,66,115,0
0,64,0,0
0,71,0,15
0,66,0,2
0,62,0,2
0,67,115,0
0,66,95,0
0,69,99,0
0,62,68,0
0,42,64,0
0,43,0,3
0,66,119,0
0,67,0,8
0,69,0,28
0,62,0,4
0,66,0,1
0,64,115,0
0,66,95,0
0,69,95,0
0,66,0,1
0,69,0,35
0,66,0,2
0,64,0,20
0,67,79,2
0,62,118,0
0,67,0,18
0,62,0,0
0,66,82,0
0,66,0,1
0,66,108,0
0,42,0,0
0,67,91,0
0,59,91,0
0,64,91,0
0,40,95,0
0,66,0,34
0,64,115,0
0,64,0,41
0,67,0,0
0,59,0,1
0,64,91,16
0,67,91,0
0,59,73,0
0,40,0,20
0,40,95,40
0,64,0,39
0,59,0,0
0,67,0,1
0,50,87,20
0,62,115,0
0,59,107,0
0,67,99,0
0,40,0,10
0,64,0,85
0,59,0,4
0,67,0,0
0,62,0,2
0,62,103,19
0,59,95,0
0,67,84,0
0,47,95,0
0,50,0,3
0,67,0,91
0,59,0,3
0,62,0,2
0,47,0,19
0,61,87,2
0,64,103,0
0,69,87,0
0,45,87,0
0,61,0,6
0,69,0,2
0,64,0,6
0,64,60,0
0,57,65,0
0,64,99,0
0,61,99,0
0,69,91,0
0,61,67,0
0,64,116,0
0,45,0,13
0,64,0,4
0,64,115,0
0,64,0,17
0,61,0,6
0,57,0,1
0,64,68,6
0,45,103,1
0,57,73,1
0,61,74,1
0,45,0,20
0,64,0,4
0,69,0,3
0,64,0,0
0,61,0,2
0,66,61,27
0,61,0,0
0,64,102,0
0,62,79,0
0,62,91,1
0,45,95,0
0,66,84,0
0,69,87,0
0,59,69,0
0,57,0,2
0,64,0,1
0,66,0,37
0,64,0,8
0,59,0,0
0,62,0,3
0,66,64,6
0,59,70,2
0,64,116,0
0,62,73,1
0,66,0,20
0,62,0,7
0,69,0,1
0,45,0,6
0,64,0,6
0,59,0,3
0,66,105,0
0,67,75,1
0,55,61,1
0,64,95,1
0,67,95,0
0,61,95,0
0,45,99,0
0,64,83,1
0,66,0,3
0,62,0,3
0,66,0,38
0,67,0,3
0,64,0,7
0,55,0,1
0,69,110,0
0,55,70,1
0,64,62,0
0,61,70,2
0,69,0,41
0,45,0,3
0,55,0,0
0,61,0,0
0,64,0,0
0,67,0,0
0,66,62,1
0,57,91,0
0,62,107,0
0,66,87,0
0,50,91,0
0,38,87,0
0,62,73,0
0,69,114,0
0,57,61,0
0,61,0,1
0,64,0,4
0,66,0,0
0,57,0,0
0,62,0,2
0,57,91,4
0,62,99,0
0,66,87,0
0,38,0,20
0,50,0,2
0,38,82,36
0,50,82,0
0,50,0,27
0,66,0,3
0,38,0,0
0,62,0,1
0,57,0,1
0,40,95,15
0,52,84,0
0,64,91,0
0,57,103,0
0,61,99,0
0,40,0,16
0,52,0,3
0,64,0,1
0,57,0,3
0,61,0,0
0,66,61,3
0,62,103,0
0,57,95,0
0,54,95,0
0,42,95,0
0,62,0,106
0,42,0,2
0,57,0,1
0,54,0,0
0,62,0,0
0,66,0,4
0,62,91,7
0,55,76,0
0,43,82,0
0,59,82,0
0,69,0,5
0,66,0,11
0,57,0,3
0,55,0,91
0,62,0,0
0,59,0,1
0,59,87,9
0,55,87,0
0,62,87,0
0,43,0,31
0,64,111,0
0,43,87,5
0,62,0,26
0,55,0,0
0,64,0,1
0,59,0,0
0,64,111,0
0,43,0,18
0,64,0,4
0,55,99,6
0,45,84,0
0,61,99,0
0,64,99,0
0,67,117,0
0,67,0,53
0,67,114,0
0,64,0,36
0,55,0,2
0,61,0,2
0,67,0,8
0,55,71,13
0,64,76,0
0,61,79,0
0,66,101,0
0,45,0,11
0,45,87,48
0,66,0,1
0,64,103,0
0,64,0,38
0,61,0,12
0,45,0,2
0,57,68,2
0,62,79,0
0,66,64,0
0,38,100,0
0,55,0,0
0,64,0,0
0,62,101,0
0,66,0,73
0,62,0,4
0,62,79,13
0,66,79,0
0,57,0,18
0,51,85,41
0,57,69,1
0,51,0,4
0,51,91,15
0,66,0,5
0,62,0,2
0,51,0,2
0,57,0,8
0,51,98,3
0,51,0,5
0,38,0,13
0,55,87,3
0,43,100,0
0,46,102,1
0,46,0,10
0,59,79,49
0,62,76,0
0,55,0,11
0,38,86,39
0,38,0,7
0,59,0,0
0,43,0,1
0,38,101,2
0,57,71,0
0,45,100,0
0,62,0,4
0,38,0,10
0,35,100,46
0,45,100,0
0,64,76,0
0,61,63,0
0,62,0,17
0,57,0,5
0,35,0,7
0,64,0,23
0,61,0,2
0,45,0,4
0,35,100,2
0,42,100,0
0,38,94,0
0,50,61,0
0,69,69,0
0,62,62,0
0,38,52,0
0,66,55,0
0,45,0,2
0,42,0,27
0,35,0,0
0,66,0,70
0,62,0,6
0,69,0,0
0,42,100,15
0,62,62,0
0,69,64,0
0,66,56,0
0,42,0,29
0,66,111,0
0,66,0,12
0,67,108,0
0,69,0,12
0,66,0,2
0,67,0,3
0,62,0,0
0,42,100,10
0,62,63,0
0,69,64,0
0,66,56,0
0,69,118,0
0,42,0,25
0,38,0,12
0,50,0,9
0,38,71,10
0,42,100,60
0,37,100,0
0,50,79,0
0,62,0,9
0,37,0,20
0,42,0,0
0,69,0,6
0,69,0,10
0,66,0,4
0,62,62,11
0,67,119,0
0,38,0,26
0,66,106,0
0,67,0,6
0,38,0,6
0,62,0,1
0,66,0,12
0,35,100,4
0,42,100,0
0,45,102,0
0,49,69,0
0,69,66,0
0,64,67,0
0,61,67,0
0,50,0,2
0,66,112,0
0,42,0,3
0,35,0,0
0,66,0,35
0,64,110,0
0,61,0,9
0,69,0,3
0,64,0,5
0,42,100,10
0,64,76,0
0,69,73,0
0,42,0,29
0,61,64,17
0,64,0,6
0,69,0,4
0,42,100,50
0,64,64,0
0,61,0,16
0,42,0,13
0,69,67,31
0,69,0,32
0,64,0,18
0,42,100,10
0,37,100,0
0,61,68,0
0,64,76,0
0,69,73,0
0,45,0,18
0,37,0,11
0,42,0,0
0,64,0,2
0,49,0,1
0,45,105,28
0,49,57,0
0,45,0,21
0,64,0,6
0,46,99,3
0,49,0,0
0,69,0,1
0,61,0,6
0,46,0,5
0,35,100,18
0,42,100,0
0,47,99,0
0,59,66,0
0,47,60,0
0,62,61,0
0,66,45,0
0,42,0,29
0,35,0,0
0,66,0,69
0,62,0,5
0,59,0,10
0,42,100,7
0,59,64,0
0,62,73,0
0,66,69,0
0,42,0,29
0,62,110,0
0,47,0,0
0,47,31,6
0,62,0,16
0,64,110,0
0,59,0,11
0,47,0,6
0,66,0,0
0,64,0,4
0,62,0,2
0,42,100,13
0,45,102,0
0,57,52,0
0,62,63,0
0,45,63,0
0,66,53,0
0,66,109,0
0,47,0,9
0,42,0,16
0,66,0,24
0,64,111,0
0,64,0,23
0,62,101,0
0,66,0,3
0,62,0,7
0,42,100,8
0,37,100,0
0,62,66,0
0,66,58,0
0,62,0,22
0,37,0,7
0,42,0,0
0,45,0,0
0,61,108,0
0,45,58,22
0,61,0,5
0,59,101,0
0,45,0,5
0,35,100,3
0,42,100,0
0,43,92,0
0,43,63,0
0,45,0,7
0,42,0,22
0,35,0,0
0,66,0,0
0,62,0,1
0,57,0,7
0,55,46,23
0,42,100,60
0,59,62,0
0,42,0,29
0,62,57,31
0,62,0,49
0,59,0,0
0,55,0,4
0,43,0,3
0,42,100,4
0,45,107,0
0,43,0,0
0,64,76,0
0,45,100,0
0,42,0,29
0,59,0,8
0,61,64,23
0,64,0,16
0,42,100,44
0,37,100,0
0,57,64,0
0,61,0,9
0,37,0,20
0,42,0,0
0,45,0,10
0,45,103,21
0,52,76,0
0,57,0,6
0,52,0,52
0,45,0,1
0,35,100,1
0,42,100,0
0,38,107,0
0,38,46,0
0,50,47,0
0,69,66,0
0,62,63,0
0,66,58,0
0,45,0,0
0,42,0,29
0,35,0,0
0,69,0,81
0,66,0,2
0,62,0,1
0,42,100,7
0,62,66,0
0,66,66,0
0,69,76,0
0,42,0,2
0,66,107,0
0,66,0,8
0,67,110,0
0,38,0,19
0,67,0,1
0,50,0,1
0,42,100,14
0,38,84,0
0,69,104,0
0,42,0,26
0,50,71,31
0,62,0,9
0,69,0,24
0,42,100,27
0,37,100,0
0,62,64,0
0,66,0,3
0,37,0,26
0,42,0,0
0,69,0,11
0,67,101,0
0,66,52,3
0,67,0,17
0,38,0,2
0,66,111,0
0,38,0,2
0,66,0,4
0,62,0,2
0,66,0,16
0,50,0,9
0,35,100,2
0,42,100,0
0,45,102,0
0,49,63,0
0,57,64,0
0,61,66,0
0,64,79,0
0,66,104,0
0,42,0,4
0,35,0,0
0,66,0,30
0,64,101,0
0,64,0,35
0,61,0,2
0,57,0,1
0,42,100,17
0,57,63,0
0,61,69,0
0,64,69,0
0,42,0,29
0,49,0,49
0,42,100,42
0,49,84,0
0,57,0,20
0,42,0,9
0,64,0,6
0,57,62,0
0,61,0,5
0,42,100,51
0,37,100,0
0,61,68,0
0,64,73,0
0,45,0,16
0,49,0,7
0,37,0,6
0,42,0,0
0,45,104,31
0,49,67,0
0,64,0,1
0,45,0,5
0,57,0,5
0,64,0,3
0,61,0,0
0,46,100,5
0,46,0,11
0,35,100,19
0,42,100,0
0,47,91,0
0,47,67,0
0,62,58,0
0,66,64,0
0,59,67,0
0,49,0,2
0,42,0,27
0,35,0,0
0,59,0,73
0,66,0,2
0,62,0,2
0,42,100,14
0,59,68,0
0,62,79,0
0,66,68,0
0,42,0,0
0,62,108,0
0,47,0,0
0,62,0,25
0,64,111,0
0,59,0,5
