track,note,velocity,time
0,60,105,240
0,65,105,1
0,67,105,4
0,64,115,14
0,69,118,1
0,65,100,0
0,70,103,2
0,65,100,0
0,70,105,1
0,64,115,9
0,69,120,2
0,65,92,0
0,70,98,3
0,65,88,0
0,70,97,1
0,64,115,11
0,69,120,2
0,65,90,0
0,70,100,2
0,65,100,2
0,70,100,4
0,68,110,3
0,67,102,2
0,65,98,7
0,61,100,4
0,62,95,7
0,58,80,6
0,58,70,7
0,40,35,5
0,40,55,0
0,52,90,0
0,34,110,1
0,35,125,0
0,40,115,0
0,57,100,0
0,53,52,2
0,58,57,2
0,53,62,5
0,58,70,1
0,53,72,5
0,58,77,1
0,53,52,5
0,58,57,1
0,53,67,5
0,58,72,2
0,53,77,5
0,58,87,4
0,58,88,4
0,62,93,1
0,58,93,5
0,62,109,3
0,62,82,3
0,65,98,0
0,62,100,8
0,67,114,1
0,62,80,0
0,65,96,2
0,62,120,4
0,58,95,1
0,55,85,4
0,40,125,2
0,51,70,23
0,82,80,28
0,75,80,0
0,51,75,0
0,35,105,0
0,49,50,0
0,63,115,0
0,51,116,1
0,58,109,2
0,51,106,3
0,58,97,1
0,82,60,5
0,75,60,0
0,51,75,1
0,51,50,7
0,65,121,1
0,75,80,1
0,82,80,0
0,43,110,0
0,40,105,0
0,49,60,0
0,60,119,1
0,51,124,3
0,63,122,2
0,58,99,0
0,51,104,3
0,82,60,2
0,75,60,0
0,46,90,5
0,35,105,0
0,49,50,0
0,75,80,0
0,82,80,0
0,51,119,1
0,58,108,4
0,51,105,4
0,65,110,0
0,58,98,4
0,82,60,5
0,75,60,0
0,48,105,7
0,40,105,0
0,49,60,0
0,63,117,0
0,75,80,0
0,82,80,0
0,51,127,0
0,60,114,4
0,51,108,9
0,58,98,4
0,82,60,3
0,75,60,0
0,51,50,8
0,51,80,0
0,85,80,0
0,89,80,0
0,35,105,0
0,49,50,0
0,65,120,0
0,51,115,1
0,70,127,0
0,58,109,2
0,58,95,3
0,51,104,0
0,63,115,0
0,51,75,4
0,82,60,0
0,40,105,2
0,49,60,0
0,46,110,0
0,87,80,0
0,91,80,0
0,51,124,1
0,60,116,0
0,58,99,2
0,51,106,0
0,65,124,1
0,43,90,4
0,82,60,7
0,51,50,5
0,39,90,6
0,85,80,0
0,89,80,0
0,35,105,0
0,49,50,0
0,63,122,1
0,51,114,2
0,58,109,0
0,51,106,12
0,58,98,2
0,82,60,8
0,43,100,1
0,40,105,0
0,49,60,0
0,65,122,0
0,60,116,3
0,51,124,0
0,45,90,3
0,51,106,0
0,58,97,2
0,82,60,10
0,51,50,5
0,46,90,8
0,86,80,0
0,89,80,0
0,35,105,0
0,49,50,0
0,63,127,1
0,46,117,0
0,53,108,1
0,46,105,9
0,53,95,1
0,82,60,4
0,46,110,0
0,40,105,0
0,49,60,0
0,87,80,0
0,91,80,0
0,46,118,1
0,65,123,2
0,55,127,0
0,46,104,1
0,53,94,1
0,63,121,2
0,82,60,2
0,51,50,1
0,41,90,9
0,86,80,0
0,89,80,0
0,35,105,0
0,49,50,0
0,46,107,1
0,53,119,1
0,46,97,2
0,53,105,1
0,65,123,2
0,82,60,9
0,43,100,9
0,40,105,0
0,49,60,0
0,46,127,0
0,55,119,1
0,63,121,2
0,46,109,13
0,53,95,1
0,82,60,2
0,51,50,5
0,46,90,0
0,86,80,0
0,89,80,0
0,35,105,0
0,49,50,0
0,65,122,0
0,46,117,1
0,53,109,1
0,46,109,0
0,53,94,1
0,63,119,1
0,82,60,2
0,46,110,1
0,40,105,0
0,49,60,0
0,87,80,0
0,91,80,0
0,46,126,1
0,55,118,2
0,46,105,2
0,53,97,2
0,65,120,3
0,82,60,7
0,51,50,5
0,41,90,9
0,86,80,0
0,89,80,0
0,35,105,0
0,49,50,0
0,46,118,1
0,63,117,0
0,53,107,1
0,46,108,3
0,53,96,1
0,82,60,4
0,51,50,5
0,43,100,2
0,46,127,0
0,40,105,0
0,49,60,0
0,65,110,0
0,55,115,1
0,70,120,0
0,46,104,9
0,53,98,1
0,82,60,11
0,51,50,5
0,41,90,11
0,89,80,0
0,94,80,0
0,35,105,0
0,49,50,0
0,63,127,0
0,53,115,1
0,60,106,1
0,53,106,1
0,60,95,2
0,94,60,12
0,89,60,0
0,48,110,0
0,40,105,0
0,49,60,0
0,53,127,0
0,70,127,0
0,62,118,1
0,53,104,3
0,68,105,2
0,60,99,0
0,94,60,12
0,89,60,0
0,51,50,5
0,41,90,2
0,53,118,0
0,35,105,0
0,49,50,0
0,67,100,1
0,60,105,0
0,53,99,2
0,60,107,2
0,65,96,3
0,43,100,10
0,40,105,0
0,49,60,0
0,53,124,0
0,62,118,1
0,72,120,1
0,53,105,1
0,60,98,2
0,70,105,5
0,51,50,12
0,86,80,9
0,89,80,0
0,39,90,0
0,35,105,0
0,49,50,0
0,51,106,1
0,58,118,0
0,68,100,3
0,51,97,0
0,58,105,1
0,67,102,4
0,82,60,7
0,51,50,5
0,46,110,6
0,87,80,0
0,91,80,0
0,40,105,0
0,49,60,0
0,51,117,1
0,65,105,1
0,60,126,0
0,51,94,1
0,58,104,2
0,63,100,2
0,82,60,8
0,39,90,9
0,35,105,0
0,49,50,0
0,61,115,0
0,86,80,0
0,89,80,0
0,51,106,0
0,58,116,2
0,62,80,2
0,51,107,2
0,58,98,2
0,82,60,10
0,65,90,8
0,43,105,7
0,40,105,0
0,49,60,0
0,51,126,1
0,60,118,2
0,70,119,2
0,45,105,0
0,51,109,0
0,58,95,2
0,68,95,2
0,82,60,8
0,51,50,5
0,46,105,9
0,86,100,0
0,89,100,0
0,35,105,0
0,49,50,0
0,46,116,1
0,53,107,2
0,46,107,2
0,65,111,0
0,70,115,1
0,53,98,1
0,82,80,10
0,50,105,3
0,40,105,0
0,49,60,0
0,87,100,0
0,91,100,0
0,63,110,1
0,46,127,0
0,55,116,2
0,51,105,1
0,65,111,0
0,70,115,1
0,46,106,1
0,53,94,2
0,82,80,10
0,51,50,5
0,53,105,5
0,86,100,0
0,89,100,0
0,35,105,0
0,49,50,0
0,63,110,0
0,46,115,1
0,53,109,1
0,41,105,1
0,65,111,0
0,46,106,2
0,70,115,0
0,53,94,2
0,82,80,10
0,40,105,6
0,49,60,0
0,43,105,0
0,63,110,0
0,87,110,0
0,91,110,0
0,46,127,1
0,55,115,1
0,45,105,1
0,61,100,0
0,46,105,2
0,53,99,1
0,82,90,11
0,51,50,5
0,46,105,2
0,89,120,0
0,86,120,0
0,35,105,0
0,49,50,0
0,46,118,1
0,53,109,1
0,58,95,1
0,46,109,8
0,77,100,12
0,70,100,0
0,53,118,11
0,50,105,1
0,40,105,0
0,49,60,0
0,55,119,2
0,51,105,1
0,53,117,3
0,77,100,11
0,70,100,0
0,51,50,5
0,53,105,8
0,35,105,0
0,49,50,0
0,46,119,1
0,53,109,2
0,41,105,1
0,46,108,2
0,53,99,2
0,40,105,7
0,49,60,0
0,43,105,0
0,46,126,1
0,55,117,2
0,45,105,0
0,65,115,0
0,46,107,2
0,53,98,2
0,51,50,9
0,46,90,1
0,35,105,0
0,49,50,0
0,65,115,0
0,46,117,1
0,53,106,1
0,46,105,9
0,53,97,1
0,65,110,1
0,43,110,0
0,40,105,0
0,49,60,0
0,46,119,1
0,65,110,2
0,55,127,0
0,65,107,2
0,46,104,4
0,53,98,1
0,51,50,16
0,41,90,6
0,65,110,0
0,35,105,0
0,49,50,0
0,46,109,1
0,53,115,1
0,65,105,5
0,46,95,6
0,53,109,1
0,43,110,0
0,40,105,0
0,49,60,0
0,46,123,0
0,63,110,0
0,55,117,1
0,62,100,0
0,46,109,2
0,53,97,1
0,51,50,16
0,34,90,6
0,63,110,0
0,35,105,0
0,49,50,0
0,46,115,1
0,53,105,1
0,62,100,3
0,46,108,2
0,53,96,1
0,38,110,1
0,40,105,0
0,49,60,0
0,46,124,1
0,55,114,2
0,63,115,4
0,46,104,2
0,53,94,2
0,51,50,15
0,41,90,2
0,35,105,0
0,49,50,0
0,46,117,1
0,53,108,1
0,46,108,2
0,53,99,1
0,43,110,4
0,40,105,0
0,49,60,0
0,46,127,0
0,55,119,1
0,65,115,9
0,46,108,2
0,53,95,1
0,51,50,16
0,46,90,3
0,65,110,0
0,35,105,0
0,49,50,0
0,46,114,1
0,53,105,1
0,65,101,5
0,46,104,2
0,53,97,1
0,50,110,2
0,40,105,0
0,49,60,0
0,65,110,0
0,46,117,1
0,55,124,2
0,65,100,4
0,46,106,2
0,53,95,1
0,51,50,16
0,53,90,6
0,65,110,0
0,35,105,0
0,49,50,0
0,46,106,1
0,53,115,1
0,62,90,9
0,46,94,2
0,53,108,1
0,41,110,2
0,40,105,0
0,49,60,0
0,63,110,0
0,46,125,0
0,55,117,1
0,62,95,4
0,46,107,2
0,53,97,1
0,51,50,16
0,46,90,6
0,63,100,0
0,35,105,0
0,49,50,0
0,46,116,1
0,53,107,1
0,61,100,3
0,46,108,2
0,53,96,1
0,46,110,1
0,40,105,0
0,49,60,0
0,46,124,1
0,55,114,2
0,58,105,7
0,46,105,2
0,53,95,2
0,51,50,15
0,41,90,9
0,35,105,0
0,49,50,0
0,46,115,1
0,53,108,1
0,46,108,3
0,53,99,1
0,46,110,7
0,40,105,0
0,49,60,0
0,46,127,0
0,55,118,1
0,58,110,9
0,46,105,2
0,53,94,1
0,51,50,16
0,91,73,4
0,87,56,0
0,39,90,0
0,65,110,0
0,35,105,0
0,49,50,0
0,51,118,1
0,58,108,4
0,55,110,0
0,51,127,0
0,61,95,6
0,51,109,2
0,58,98,0
0,91,73,6
0,87,65,0
0,43,110,0
0,40,105,0
0,49,60,0
0,55,110,0
0,51,127,0
0,63,110,0
0,60,115,1
0,51,125,3
0,87,69,8
0,91,69,0
0,58,99,4
0,51,104,2
0,55,110,0
0,51,127,0
0,51,50,3
0,46,90,1
0,87,73,0
0,91,73,0
0,35,105,0
0,49,50,0
0,63,110,0
0,51,119,1
0,58,109,4
0,55,110,0
0,51,127,0
0,61,100,9
0,51,109,2
0,58,96,0
0,87,65,2
0,91,73,0
0,48,110,0
0,40,105,0
0,49,60,0
0,55,110,0
0,51,127,0
0,63,110,0
0,51,125,1
0,60,114,4
0,87,73,8
0,91,73,0
0,61,100,0
0,51,105,2
0,58,94,4
0,55,110,0
0,51,127,0
0,51,50,3
0,51,90,4
0,92,73,0
0,87,69,0
0,63,110,0
0,35,105,0
0,49,50,0
0,51,119,1
0,58,109,2
0,55,110,28
0,51,127,0
0,58,99,12
0,51,105,0
0,43,110,8
0,61,111,0
0,40,105,0
0,49,60,0
0,55,110,0
0,51,127,0
0,51,127,1
0,60,117,0
0,63,110,4
0,58,98,2
0,51,105,0
0,91,56,1
0,87,65,0
0,55,110,0
0,51,127,0
0,51,50,3
0,51,90,9
0,35,105,0
0,49,50,0
0,51,117,3
0,58,105,0
0,51,108,6
0,58,94,2
0,43,110,0
0,40,105,0
0,49,60,0
0,60,117,3
0,51,127,0
0,65,105,8
0,51,105,2
0,58,97,2
0,51,50,15
0,82,60,3
0,80,65,0
0,74,73,0
0,46,90,0
0,65,110,0
0,35,105,0
0,49,50,0
0,46,117,1
0,53,104,1
0,65,101,5
0,46,109,2
0,53,96,1
0,43,110,4
0,40,105,0
0,49,60,0
0,65,110,0
0,46,119,1
0,55,127,2
0,65,95,4
0,46,104,2
0,53,98,1
0,51,50,16
0,89,89,0
0,86,93,0
0,41,90,0
0,65,100,0
0,35,105,0
0,49,50,0
0,46,104,1
0,53,118,1
0,46,94,2
0,53,104,1
0,82,98,11
0,43,110,0
0,40,105,0
0,49,60,0
0,46,124,0
0,87,89,0
0,91,89,0
0,63,102,0
0,55,117,1
0,62,95,5
0,46,105,2
0,53,94,1
0,82,89,11
0,51,50,3
0,34,90,0
0,63,110,0
0,89,89,0
0,86,89,0
0,35,105,0
0,49,50,0
0,46,115,1
0,53,109,1
0,62,110,3
0,46,106,2
0,53,97,1
0,82,80,11
0,38,110,0
0,40,105,0
0,49,60,0
0,58,105,0
0,82,72,0
0,87,80,0
0,46,125,1
0,55,116,2
0,58,105,2
0,46,105,2
0,53,99,2
0,82,89,1
0,86,93,0
0,51,50,3
0,41,90,0
0,35,105,0
0,49,50,0
0,46,115,1
0,53,106,1
0,46,106,6
0,53,95,1
0,43,110,7
0,40,105,0
0,49,60,0
0,46,127,0
0,55,119,1
0,65,110,9
0,46,109,2
0,53,97,1
0,84,56,11
0,81,65,0
0,77,60,0
0,51,50,5
0,48,90,0
0,65,110,0
0,84,56,0
0,81,73,0
0,77,56,0
0,35,105,0
0,49,50,0
0,53,117,1
0,60,106,1
0,62,90,9
0,53,105,0
0,60,94,2
0,77,52,1
0,81,65,0
0,84,52,0
0,50,110,6
0,40,105,0
0,49,60,0
0,63,110,0
0,53,127,0
0,62,116,1
0,62,100,6
0,53,105,0
0,60,94,2
0,51,50,17
0,77,52,2
0,81,60,0
0,84,52,0
0,48,90,0
0,63,110,0
0,53,115,0
0,35,105,0
0,49,50,0
0,60,109,1
0,62,100,6
0,53,95,0
0,60,105,2
0,77,44,1
0,84,52,0
0,81,65,0
0,43,110,10
0,40,105,0
0,49,60,0
0,63,110,0
0,53,127,0
0,62,117,1
0,62,100,8
0,53,109,0
0,60,96,2
0,51,50,17
0,77,48,2
0,81,56,0
0,84,44,0
0,48,90,0
0,63,114,0
0,35,105,0
0,49,50,0
0,53,116,1
0,60,107,1
0,53,106,9
0,60,94,2
0,84,42,0
0,81,65,0
0,77,48,0
0,50,110,0
0,62,104,0
0,40,105,0
0,49,60,0
0,53,127,0
0,62,115,1
0,64,110,9
0,53,108,0
0,60,94,0
0,84,56,1
0,81,69,0
0,77,60,0
0,51,50,5
0,48,90,7
0,53,118,0
0,35,105,0
0,49,50,0
0,60,108,1
0,53,95,12
0,58,95,0
0,60,104,2
0,43,110,2
0,40,105,0
0,49,60,0
0,62,105,0
0,53,126,0
0,62,116,1
0,63,107,2
0,53,109,0
0,60,96,2
0,85,89,12
0,89,80,0
0,86,89,0
0,51,50,3
0,46,90,0
0,65,110,0
0,35,105,0
0,49,50,0
0,46,119,1
0,53,108,1
0,65,108,1
0,46,109,2
0,53,96,1
0,87,89,0
0,91,98,0
0,43,110,0
0,40,105,0
0,49,60,0
0,65,110,0
0,46,115,1
0,55,126,2
0,65,112,2
0,46,104,2
0,53,94,1
0,51,50,16
0,86,89,0
0,89,89,0
0,41,90,0
0,35,105,0
0,49,50,0
0,46,104,1
0,53,119,1
0,62,102,9
0,46,99,2
0,53,106,1
0,38,110,9
0,40,105,0
0,49,60,0
0,63,106,0
0,46,124,0
0,55,114,1
0,62,100,11
0,46,108,2
0,53,99,1
0,85,89,1
0,89,85,0
0,86,89,0
0,51,50,2
0,34,90,6
0,63,109,0
0,35,105,0
0,49,50,0
0,46,117,1
0,53,105,1
0,62,100,8
0,46,107,2
0,53,96,1
0,84,89,1
0,87,76,0
0,38,110,0
0,40,105,0
0,49,60,0
0,58,100,0
0,46,125,0
0,55,119,2
0,58,100,5
0,46,106,2
0,53,99,2
0,82,76,10
0,86,76,0
0,51,50,3
0,41,90,0
0,35,105,0
0,49,50,0
0,46,116,1
0,53,108,1
0,64,105,1
0,46,107,2
0,53,98,1
0,43,110,0
0,40,105,0
0,49,60,0
0,46,126,0
0,55,119,1
0,64,120,0
0,46,104,0
0,53,95,1
0,80,89,2
0,77,98,0
0,51,50,5
0,46,90,11
0,35,105,0
0,49,50,0
0,46,117,1
0,53,107,1
0,64,95,7
0,46,105,2
0,67,100,0
0,53,95,1
0,50,110,0
0,40,105,0
0,49,60,0
0,65,100,0
0,46,119,0
0,68,87,1
0,55,126,1
0,65,100,2
0,46,107,1
0,68,98,1
0,53,97,0
0,51,50,16
0,53,90,0
0,35,105,0
0,49,50,0
0,65,100,0
0,46,105,1
0,53,118,1
0,68,85,2
0,65,100,1
0,46,97,1
0,70,100,1
0,53,109,0
0,41,110,0
0,40,105,0
