track,note,velocity,time
3,71,127,1
3,71,0,2
3,71,127,7
3,72,127,43
3,71,0,4
3,72,0,40
3,69,105,7
3,69,0,40
3,71,127,5
3,71,0,4
3,72,127,2
3,72,0,1
3,72,127,1
3,72,0,11
3,74,126,8
3,74,0,26
3,72,127,69
3,72,0,7
3,74,127,1
3,74,0,2
3,74,127,1
3,74,0,3
3,74,127,20
3,74,0,30
3,74,127,7
3,74,0,47
3,72,127,23
3,72,0,29
3,72,127,65
3,72,0,79
3,74,127,16
3,74,0,26
3,72,127,62
3,72,0,69
3,71,127,15
3,71,0,30
3,71,127,70
3,71,0,25
3,69,113,0
3,67,127,28
3,69,0,8
3,67,0,142
3,71,127,608
3,71,0,40
3,72,127,3
3,72,0,38
3,69,127,11
3,69,0,40
3,71,127,13
3,71,0,70
3,72,113,387
3,72,0,16
3,72,111,29
3,72,0,14
3,72,111,6
3,72,0,34
3,74,105,0
3,74,0,40
3,71,103,4
3,72,113,47
3,71,0,3
3,72,0,84
3,74,115,353
3,74,0,26
3,74,127,28
3,74,0,18
3,74,127,27
3,74,0,47
3,74,127,16
3,74,0,42
3,74,127,1
3,74,0,38
3,72,127,18
3,72,0,36
3,72,127,60
3,72,0,82
3,71,127,15
3,71,0,44
3,71,127,57
3,71,0,82
3,69,127,8
3,69,0,158
3,76,127,1
3,76,0,27
3,78,127,14
3,78,0,32
3,79,127,38
3,79,0,18
3,79,127,31
3,79,0,74
3,74,127,20
3,74,0,18
3,71,127,32
3,71,0,91
3,72,127,6
3,72,0,32
3,74,127,15
3,74,0,127
3,71,127,68
3,71,0,23
3,72,127,22
3,72,0,16
3,74,127,2
3,74,0,12
3,71,127,9
3,71,0,22
3,67,127,81
3,67,0,152
3,76,127,3
3,76,0,30
3,78,127,15
3,78,0,44
3,79,127,25
3,79,0,20
3,79,127,30
3,79,0,77
3,74,127,22
3,74,0,20
3,71,127,31
3,71,0,85
3,72,127,12
3,72,0,27
3,74,127,17
3,74,0,135
3,67,127,56
3,67,0,16
3,67,127,32
3,67,0,18
3,67,127,28
3,67,0,31
3,69,127,15
3,69,0,86
3,71,127,18
3,71,0,95
3,72,127,3
3,71,127,22
3,72,0,5
3,69,127,18
3,71,0,3
3,69,0,91
3,71,93,73
3,71,0,27
3,71,109,24
3,71,0,21
3,71,127,25
3,71,0,25
3,71,127,22
3,72,127,51
3,71,0,7
3,72,0,18
3,69,127,19
3,69,0,36
3,71,127,17
3,71,0,82
3,72,95,311
3,72,0,26
3,72,105,25
3,72,0,20
3,72,127,26
3,72,0,15
3,72,127,33
3,72,0,33
3,74,127,14
3,74,0,85
3,72,127,17
3,72,0,6
3,74,127,398
3,74,0,17
3,74,127,28
3,74,0,26
3,74,127,22
3,74,0,35
3,74,127,1
3,74,0,45
3,72,127,21
3,72,0,24
3,72,127,72
3,72,0,80
3,74,127,13
3,74,0,46
3,72,127,43
3,72,0,82
3,71,127,20
3,71,0,30
3,71,127,2
3,71,0,52
3,69,127,10
3,67,127,23
3,69,0,2
3,67,0,134
3,71,107,353
3,71,0,25
3,71,127,24
3,71,0,28
3,71,127,20
3,71,0,20
3,71,127,26
3,72,127,48
3,71,0,1
3,72,0,42
3,71,127,57
3,71,0,99
3,72,127,334
3,72,0,15
3,72,127,33
3,72,0,15
3,72,127,31
3,72,0,42
3,74,127,6
3,74,0,41
3,72,127,56
3,72,0,2
3,74,127,353
3,74,0,14
3,74,127,33
3,74,0,16
3,74,127,35
3,74,0,25
3,74,127,19
3,74,0,35
3,74,127,68
3,74,0,63
3,72,127,29
3,72,0,44
3,72,127,55
3,72,0,78
3,71,127,17
3,71,0,38
3,71,127,60
3,71,0,80
3,69,127,14
3,69,0,147
3,76,127,6
3,76,0,37
3,78,127,14
3,78,0,45
3,79,127,24
3,79,0,19
3,79,127,27
3,79,0,73
3,74,127,13
3,74,0,32
3,71,127,31
3,71,0,87
3,72,127,9
3,72,0,28
3,74,127,19
3,74,0,22
3,71,127,46
3,71,0,20
3,72,127,25
3,72,0,19
3,74,127,2
3,74,0,13
3,71,127,11
3,71,0,30
3,67,127,74
3,67,0,164
3,76,127,1
3,76,0,35
3,78,127,16
3,78,0,45
3,79,127,22
3,79,0,18
3,79,127,29
3,79,0,75
3,74,127,17
3,74,0,21
3,71,127,35
3,71,0,78
3,72,127,17
3,72,0,28
3,74,127,18
3,74,0,132
3,67,127,62
3,67,0,17
3,67,127,28
3,67,0,18
3,67,127,29
3,67,0,31
3,69,127,16
3,69,0,129
3,71,127,19
3,69,127,199
3,71,0,5
3,69,0,99
3,76,127,155
3,76,0,35
3,78,127,6
3,78,0,34
3,79,127,11
3,79,0,39
3,78,127,13
3,78,0,2
3,74,127,17
3,74,0,14
3,74,127,21
3,74,0,26
3,76,127,5
3,74,127,10
3,76,0,4
3,71,127,11
3,74,0,1
3,71,0,15
3,76,127,2
3,76,0,22
3,74,127,8
3,74,0,11
3,71,127,33
3,71,0,13
3,76,127,2
3,76,0,31
3,74,127,7
3,74,0,9
3,71,123,30
3,71,0,14
3,76,127,1
3,76,0,29
3,74,127,9
3,74,0,83
3,76,127,2
3,76,0,20
3,78,127,11
3,78,0,29
3,79,108,16
3,79,0,24
3,74,124,35
3,74,0,23
3,71,118,8
3,71,0,15
3,71,127,21
3,71,0,37
3,74,103,1
3,74,0,12
3,71,121,2
3,71,0,10
3,67,116,2
3,67,0,54
3,64,125,4
3,67,124,32
3,64,0,3
3,67,0,31
3,67,127,18
3,67,0,28
3,67,126,39
3,67,0,1
3,71,125,2
3,69,123,37
3,71,0,4
3,67,113,39
3,69,0,2
3,67,0,19
3,71,124,4
3,71,0,32
3,74,127,0
3,74,0,84
3,71,127,16
3,69,127,20
3,71,0,3
3,69,0,15
3,67,127,8
3,67,0,219
3,72,127,2
3,72,0,121
3,71,127,1
3,71,0,102
3,71,127,2
3,69,127,5
3,71,0,1
3,69,0,13
3,67,127,7
3,67,0,42
3,74,127,61
3,74,0,81
3,71,127,18
3,71,0,26
3,74,127,22
3,74,0,16
3,71,127,2
3,69,127,19
3,71,0,1
3,69,0,7
3,71,127,244
3,71,0,18
3,71,127,30
3,72,127,46
3,71,0,10
3,72,0,26
3,69,127,11
3,69,0,33
3,71,127,0
3,71,0,5
3,72,127,389
3,72,0,15
3,72,127,34
3,74,127,45
3,72,0,6
3,74,0,42
3,72,127,2
3,72,0,13
3,74,127,396
3,74,0,17
3,74,127,34
3,74,0,20
3,74,127,23
3,74,0,27
3,74,127,2
3,74,0,37
3,72,127,22
3,72,0,29
3,72,127,66
3,72,0,82
3,74,127,10
3,74,0,86
3,72,127,10
3,72,0,85
3,71,127,10
3,71,0,46
3,71,127,59
3,71,0,25
3,69,127,0
3,67,127,29
3,69,0,5
3,67,0,100
3,71,127,553
3,72,127,43
3,71,0,12
3,72,0,29
3,69,127,9
3,69,0,39
3,71,127,13
3,71,0,2
3,72,113,358
3,72,0,29
3,72,127,15
3,72,0,16
3,72,127,36
3,72,0,31
3,74,127,14
3,74,0,42
3,71,115,7
3,71,0,18
3,72,127,30
3,72,0,4
3,74,117,356
3,74,0,28
3,74,127,1
3,74,0,1
3,74,127,1
3,74,0,10
3,74,127,0
3,74,0,8
3,74,127,0
3,74,0,61
3,72,127,14
3,72,0,39
3,72,127,61
3,72,0,84
3,74,127,7
3,74,0,50
3,72,127,2
3,72,0,45
3,71,127,18
3,71,0,43
3,71,127,3
3,71,0,56
3,69,126,10
3,69,0,21
3,67,127,1
3,67,0,4
3,71,127,440
3,71,0,18
3,71,127,30
3,72,127,46
3,71,0,10
3,72,0,26
3,69,127,11
3,69,0,33
3,71,127,0
3,71,0,5
3,72,127,389
3,72,0,15
3,72,127,34
3,74,127,45
3,72,0,6
3,74,0,42
3,72,127,2
3,72,0,13
3,74,127,396
3,74,0,17
3,74,127,34
3,74,0,20
3,74,127,23
3,74,0,27
3,74,127,2
3,74,0,37
3,72,127,22
3,72,0,29
3,72,127,66
3,72,0,82
3,74,127,10
3,74,0,86
3,72,127,10
3,72,0,85
3,71,127,10
3,71,0,46
3,71,127,59
3,71,0,25
3,69,127,0
3,67,127,29
3,69,0,5
3,67,0,100
3,71,127,553
3,72,127,43
3,71,0,12
3,72,0,29
3,69,127,9
3,69,0,39
3,71,127,13
3,71,0,2
3,72,113,358
3,72,0,29
3,72,127,15
3,72,0,16
3,72,127,36
3,72,0,31
3,74,127,14
3,74,0,42
3,71,115,7
3,71,0,18
3,72,127,30
3,72,0,4
3,74,117,2
3,74,0,4
3,74,127,1
3,74,0,1
3,74,127,1
3,74,0,10
3,74,127,0
3,74,0,4
3,74,127,0
3,74,0,45
3,72,127,14
3,72,0,39
3,72,127,61
3,72,0,84
3,74,127,2
3,74,0,1
3,72,127,2
3,72,0,14
3,71,127,3
3,71,0,1
3,71,127,3
3,71,0,9
3,69,126,6
3,69,0,2
3,67,127,1
3,67,0,4
4,42,101,0
4,42,0,4
4,42,91,92
4,42,0,11
4,42,101,85
4,42,0,11
4,42,105,85
4,42,0,12
4,42,101,84
4,42,0,10
4,42,72,38
4,42,0,10
4,42,97,38
4,42,0,14
4,42,28,10
4,42,0,10
4,42,93,14
4,42,0,13
4,42,70,11
4,42,0,13
4,42,97,11
4,42,0,14
4,42,76,10
4,42,0,14
4,42,83,34
4,42,0,13
4,42,97,11
4,42,0,14
4,42,17,10
4,42,0,8
4,42,89,16
4,42,0,14
4,42,97,34
4,42,0,15
4,42,28,9
4,42,0,12
4,42,72,12
4,42,0,11
4,42,28,13
4,42,0,11
4,42,97,13
4,42,0,14
4,42,40,10
4,42,0,9
4,42,89,15
4,42,0,11
4,42,57,13
4,42,0,13
4,42,101,11
4,42,0,14
4,42,64,10
4,42,0,14
4,42,83,34
4,42,0,14
4,42,101,10
4,42,0,15
4,42,89,33
4,42,0,13
4,42,35,11
4,42,0,14
4,42,93,10
4,42,0,15
4,42,28,9
4,42,0,10
4,42,70,14
4,42,0,11
4,42,25,13
4,42,0,14
4,42,101,10
4,42,0,32
4,42,87,16
4,42,0,13
4,42,70,11
4,42,0,14
4,42,101,10
4,42,0,15
4,42,76,9
4,42,0,13
4,42,42,11
4,42,0,6
4,42,83,18
4,42,0,13
4,42,93,11
4,42,0,15
4,42,89,33
4,42,0,14
4,42,93,34
4,42,0,30
4,42,80,18
4,42,0,12
4,42,33,12
4,42,0,13
4,42,93,11
4,42,0,16
4,42,28,8
4,42,0,12
4,42,89,12
4,42,0,13
4,42,43,11
4,42,0,14
4,42,101,10
4,42,0,14
4,42,61,10
4,42,0,14
4,42,87,10
4,42,0,8
4,42,70,16
4,42,0,14
4,42,97,10
4,42,0,13
4,42,87,35
4,42,0,15
4,42,89,33
4,42,0,15
4,42,87,33
4,42,0,14
4,42,97,34
4,42,0,31
4,42,89,17
4,42,0,13
4,42,31,11
4,42,0,11
4,42,97,13
4,42,0,14
4,42,72,10
4,42,0,13
4,42,31,11
4,42,0,6
4,42,72,18
4,42,0,12
4,42,97,12
4,42,0,14
4,42,89,34
4,42,0,15
4,42,89,33
4,42,0,15
4,42,87,33
4,42,0,12
4,42,101,36
4,42,0,15
4,42,89,33
4,42,0,14
4,42,70,10
4,42,0,13
4,42,101,11
4,42,0,15
4,42,83,9
4,42,0,13
4,42,72,35
4,42,0,13
4,42,97,11
4,42,0,14
4,42,89,34
4,42,0,13
4,42,89,35
4,42,0,14
4,42,89,34
4,42,0,12
4,42,97,36
4,42,0,14
4,42,25,10
4,42,0,10
4,42,97,14
4,42,0,13
4,42,67,11
4,42,0,14
4,42,101,10
4,42,0,15
4,42,76,9
4,42,0,12
4,42,76,36
4,42,0,13
4,42,97,11
4,42,0,14
4,42,93,34
4,42,0,14
4,42,93,34
4,42,0,15
4,42,76,33
4,42,0,11
4,42,97,37
4,42,0,15
4,42,93,33
4,42,0,13
4,42,54,11
4,42,0,13
4,42,97,11
4,42,0,14
4,42,89,10
4,42,0,12
4,42,87,36
4,42,0,11
4,42,101,13
4,42,0,14
4,42,97,34
4,42,0,15
4,42,93,33
4,42,0,15
4,42,80,33
4,42,0,10
4,42,97,38
4,42,0,15
4,42,93,33
4,42,0,13
4,42,61,11
4,42,0,12
4,42,101,12
4,42,0,13
4,42,76,11
4,42,0,12
4,42,70,12
4,42,0,6
4,42,87,18
4,42,0,11
4,42,101,13
4,42,0,12
4,42,93,36
4,42,0,15
4,42,89,33
4,42,0,14
4,42,72,34
4,42,0,10
4,42,25,14
4,42,0,8
4,42,101,16
4,42,0,14
4,42,93,34
4,42,0,12
4,42,54,12
4,42,0,13
4,42,101,11
4,42,0,13
4,42,83,11
4,42,0,13
4,42,54,11
4,42,0,5
4,42,83,19
4,42,0,12
4,42,97,12
4,42,0,13
4,42,101,35
4,42,0,21
4,42,97,27
4,36,101,0
4,42,0,11
4,42,97,85
4,40,109,0
4,42,0,13
4,40,0,24
4,42,93,59
4,40,106,0
4,42,0,12
4,40,0,25
4,42,104,59
4,40,104,0
4,42,0,14
4,36,0,0
4,36,112,34
4,40,0,4
4,42,97,44
4,40,106,0
4,42,0,11
4,40,0,34
4,42,97,51
4,40,96,0
4,42,0,13
4,40,0,25
4,42,93,58
4,40,99,0
4,42,0,12
4,40,0,18
4,42,104,66
4,40,106,0
4,42,0,14
4,36,0,8
4,36,112,26
4,40,0,15
4,42,97,33
4,40,109,0
4,42,0,10
4,40,0,40
4,42,97,46
4,40,104,0
4,42,0,12
4,40,0,33
4,42,97,51
4,40,101,0
4,42,0,11
4,40,0,39
4,42,87,46
4,40,101,0
4,42,0,9
4,40,0,10
4,40,101,29
4,40,0,10
4,40,112,14
4,36,0,13
4,42,97,11
4,36,106,0
4,42,0,12
4,40,0,16
4,42,97,68
4,40,106,0
4,42,0,11
4,40,0,28
4,42,97,57
4,40,99,0
4,42,0,11
4,40,0,33
4,42,97,52
4,40,104,0
4,42,0,11
4,36,0,16
4,36,106,21
4,40,0,7
4,42,101,41
4,40,104,0
4,42,0,12
4,40,0,41
4,42,101,43
4,40,106,0
4,42,0,12
4,40,0,33
4,42,101,51
4,40,106,0
4,42,0,13
4,40,0,25
4,42,97,58
4,40,109,0
4,42,0,14
4,36,0,11
4,36,112,23
4,40,0,6
4,42,97,42
4,40,109,0
4,42,0,11
4,40,0,38
4,42,97,47
4,40,104,0
4,42,0,13
4,40,0,25
4,42,93,58
4,40,109,0
4,42,0,12
4,40,0,23
4,42,104,61
4,40,109,0
4,42,0,14
4,36,0,7
4,36,117,27
4,40,0,6
4,42,97,42
4,40,109,0
4,42,0,10
4,40,0,36
4,42,97,50
4,40,109,0
4,42,0,12
4,36,0,12
4,40,0,23
4,36,106,1
4,42,97,48
4,40,109,0
4,42,0,11
4,40,0,37
4,42,87,48
4,40,106,0
4,42,0,9
4,36,0,4
4,40,0,35
4,36,101,0
4,42,97,48
4,40,109,0
4,42,0,12
4,40,0,40
4,42,97,44
4,40,109,0
4,42,0,11
4,36,0,10
4,40,0,23
4,42,97,52
4,45,125,3
4,41,125,0
4,42,0,8
4,45,0,39
4,41,0,2
4,40,122,43
4,42,97,1
4,42,0,11
4,40,0,2
4,40,96,9
4,40,0,14
4,40,106,10
4,40,0,13
4,40,127,12
4,40,0,25
4,42,108,0
4,36,111,0
4,53,90,0
4,49,80,5
4,42,0,7
4,53,0,1
4,49,0,2
4,53,54,31
4,53,0,11
4,42,108,39
4,40,108,0
4,53,98,1
4,42,0,11
4,53,0,6
4,53,63,29
4,53,0,12
4,36,0,5
4,42,108,32
4,36,98,0
4,53,95,1
4,42,0,12
4,53,0,6
4,53,76,31
4,40,0,5
4,53,0,8
4,42,104,33
4,40,105,0
4,53,111,3
4,42,0,11
4,53,0,7
4,53,63,29
4,53,0,11
4,36,0,10
4,53,98,24
4,42,104,1
4,36,98,0
4,42,0,11
4,53,0,6
4,53,74,30
4,40,0,9
4,53,0,5
4,42,104,35
4,40,108,0
4,53,103,0
4,42,0,13
4,53,0,5
