track,note,velocity,time
0,28,127,1344
0,41,127,48
0,41,0,76
0,28,0,68
0,33,127,4
0,41,127,0
0,41,0,88
0,33,112,292
0,39,112,4
0,39,0,92
0,33,0,0
0,33,0,92
0,36,127,196
0,33,112,384
0,39,112,4
0,39,0,92
0,33,0,0
0,36,0,96
0,33,127,192
0,33,112,384
0,39,112,0
0,39,0,96
0,33,0,0
0,33,0,96
0,36,127,96
0,36,0,480
0,33,127,0
0,33,112,4
0,39,112,0
0,39,0,92
0,33,0,0
0,41,116,144
0,41,0,96
0,33,0,48
0,28,127,0
0,41,127,4
0,41,0,92
0,33,112,288
0,39,112,4
0,39,0,92
0,33,0,0
0,28,0,192
0,32,127,96
0,33,112,384
0,39,112,0
0,39,0,96
0,33,0,0
0,32,0,96
0,33,127,96
0,33,0,480
0,33,112,0
0,39,112,0
0,39,0,96
0,33,0,0
0,28,127,672
0,33,112,4
0,39,112,0
0,39,0,92
0,33,0,0
0,41,116,144
0,41,0,96
0,28,0,48
0,33,127,0
0,41,127,4
0,41,0,92
0,33,112,288
0,39,112,4
0,39,0,92
0,33,0,0
0,33,0,96
0,36,127,192
0,33,112,384
0,39,112,0
0,39,0,96
0,33,0,0
0,36,0,96
0,33,127,192
0,33,112,384
0,39,112,4
0,39,0,92
0,33,0,0
0,33,0,96
0,36,127,96
0,36,0,480
0,33,127,0
0,33,112,4
0,39,112,0
0,39,0,92
0,33,0,0
0,41,116,144
0,41,0,96
0,33,0,48
0,28,127,0
0,41,127,0
0,41,0,96
0,33,112,288
0,39,112,0
0,39,0,96
0,33,0,0
0,28,0,92
0,32,127,196
0,33,112,384
0,39,112,0
0,39,0,96
0,33,0,0
0,32,0,96
0,33,127,96
0,33,0,480
0,33,112,0
0,39,112,4
0,39,0,92
0,33,0,0
0,28,127,672
0,33,112,0
0,39,112,4
0,39,0,92
0,33,0,0
0,41,116,144
0,41,0,96
0,28,0,48
0,33,127,0
0,41,112,4
0,41,0,92
0,62,100,0
0,33,112,136
0,39,112,0
0,60,100,0
0,39,0,88
0,33,0,0
0,33,0,96
0,60,0,20
0,62,100,0
0,62,0,116
0,36,127,0
0,60,100,0
0,60,0,208
0,62,100,0
0,62,0,92
0,57,100,0
0,33,112,4
0,39,112,4
0,39,0,92
0,33,0,0
0,36,0,96
0,57,0,12
0,60,100,0
0,60,0,104
0,33,127,0
0,62,100,0
0,62,0,164
0,33,112,220
0,39,112,4
0,39,0,92
0,33,0,0
0,33,0,96
0,41,112,48
0,36,127,48
0,41,0,4
0,41,112,92
0,41,0,96
0,36,0,288
0,40,127,0
0,33,112,0
0,39,112,4
0,39,0,92
0,33,0,0
0,62,100,0
0,33,127,4
0,62,0,232
0,60,100,0
0,60,0,104
0,62,100,0
0,33,112,4
0,39,112,0
0,39,0,92
0,33,0,0
0,33,0,96
0,60,100,0
0,60,0,104
0,62,100,0
0,36,127,4
0,62,0,224
0,60,100,0
0,60,0,96
0,57,100,0
0,33,112,4
0,39,112,0
0,39,0,92
0,33,0,0
0,57,0,80
0,36,0,16
0,57,100,0
0,33,127,144
0,57,0,8
0,33,112,376
0,39,112,0
0,39,0,96
0,33,0,0
0,33,0,96
0,41,112,48
0,36,127,48
0,41,0,4
0,41,112,92
0,41,0,96
0,36,0,288
0,40,127,0
0,33,112,4
0,39,112,0
0,39,0,92
0,33,0,0
0,62,100,0
0,33,127,4
0,60,100,0
0,60,0,108
0,62,100,0
0,33,112,4
0,39,112,0
0,39,0,92
0,33,0,0
0,33,0,96
0,60,100,0
0,60,0,116
0,62,100,0
0,36,127,4
0,62,0,316
0,57,100,0
0,33,112,4
0,39,112,0
0,33,0,88
0,39,0,4
0,36,0,96
0,57,0,28
0,60,100,0
0,33,127,144
0,60,0,168
0,62,100,0
0,33,112,144
0,39,112,0
0,62,0,52
0,39,0,44
0,33,0,0
0,33,0,96
0,36,127,96
0,57,100,0
0,57,0,100
0,57,100,0
0,33,127,4
0,33,112,0
0,39,112,0
0,39,0,92
0,33,0,0
0,57,0,80
0,57,100,0
0,57,0,104
0,62,100,0
0,40,127,4
0,62,0,252
0,60,100,0
0,62,100,0
0,33,112,4
0,39,112,0
0,39,0,92
0,33,0,0
0,40,0,96
0,60,100,0
0,60,0,116
0,62,100,0
0,32,127,4
0,62,0,224
0,60,100,0
0,60,0,100
0,57,100,0
0,33,112,4
0,39,112,0
0,39,0,92
0,33,0,0
0,57,0,84
0,32,0,12
0,57,100,0
0,33,127,48
0,57,0,100
0,57,100,0
0,57,0,88
0,57,100,0
0,33,112,4
0,39,112,0
0,39,0,92
0,33,0,0
0,57,0,8
0,57,100,0
0,57,0,108
0,60,100,0
0,60,0,376
0,57,100,0
0,28,127,4
0,33,112,0
0,39,112,0
0,39,0,92
0,33,0,0
0,57,0,148
0,28,0,140
0,33,127,0
0,41,112,4
0,41,0,92
0,33,112,288
0,39,112,4
0,39,0,92
0,33,0,0
0,33,0,96
0,36,127,192
0,33,112,384
0,39,112,0
0,39,0,96
0,33,0,0
0,36,0,96
0,33,127,192
0,63,100,0
0,33,112,144
0,39,112,4
0,63,0,80
0,39,0,12
0,33,0,0
0,33,0,96
0,60,100,0
0,41,112,4
0,36,127,44
0,41,0,4
0,60,0,60
0,62,100,0
0,41,112,4
0,41,0,92
0,62,0,256
0,60,100,0
0,40,127,4
0,33,112,0
0,39,112,0
0,39,0,92
0,33,0,0
0,60,0,92
0,62,100,0
0,33,127,4
0,62,0,236
0,60,100,0
0,33,112,0
0,60,0,0
0,62,100,0
0,39,112,4
0,39,0,92
0,33,0,0
0,33,0,96
0,62,0,48
0,60,100,0
0,62,100,0
0,36,127,4
0,62,0,236
0,60,100,0
0,57,100,0
0,33,112,4
0,39,112,0
0,39,0,92
0,33,0,0
0,57,0,48
0,36,0,48
0,57,100,0
0,33,127,144
0,57,0,96
0,33,112,288
0,39,112,4
0,39,0,92
0,33,0,0
0,33,0,96
0,41,112,48
0,36,127,48
0,41,0,4
0,41,112,92
0,41,0,96
0,36,0,288
0,40,127,0
0,33,112,4
0,39,112,0
0,39,0,92
0,33,0,0
0,33,127,0
0,68,100,0
0,68,0,196
0,69,100,0
0,33,112,120
0,39,112,0
0,69,0,44
0,39,0,52
0,33,0,0
0,33,0,96
0,36,127,192
0,33,112,384
0,39,112,4
0,39,0,92
0,33,0,0
0,36,0,96
0,63,100,0
0,33,127,4
0,63,0,188
0,60,100,0
0,60,0,112
0,62,100,0
0,33,112,4
0,39,112,0
0,39,0,92
0,33,0,0
0,62,0,92
0,33,0,4
0,60,100,0
0,36,127,24
0,60,0,372
0,36,0,108
0,33,127,0
0,33,112,0
0,39,112,4
0,39,0,92
0,33,0,0
0,62,100,0
0,40,127,4
0,62,0,204
0,60,100,0
0,60,0,96
0,62,100,0
0,33,112,24
0,39,112,0
0,39,0,96
0,33,0,0
0,62,0,92
0,40,0,4
0,60,100,0
0,60,0,84
0,62,100,0
0,32,127,20
0,62,0,212
0,60,100,0
0,60,0,88
0,33,112,0
0,57,100,0
0,39,112,4
0,39,0,92
0,33,0,0
0,57,0,56
0,32,0,40
0,57,100,0
0,33,127,48
0,57,0,84
0,33,0,396
0,33,112,0
0,39,112,4
0,39,0,92
0,33,0,0
0,28,127,672
0,33,112,4
0,39,112,0
0,39,0,92
0,33,0,0
0,28,0,288
0,33,127,0
0,41,112,4
0,41,0,92
0,33,112,288
0,39,112,4
0,62,100,0
0,39,0,64
0,33,0,0
0,33,0,96
0,62,0,124
0,36,127,68
0,60,100,0
0,60,0,240
0,62,100,0
0,33,112,92
0,39,112,4
0,62,0,72
0,39,0,20
0,33,0,0
0,57,100,0
0,36,0,16
0,57,0,168
0,33,127,24
0,60,100,0
0,60,0,272
0,62,100,0
0,33,112,64
0,39,112,0
0,39,0,96
0,33,0,0
0,62,0,8
0,33,0,88
0,41,112,48
0,36,127,48
0,41,0,4
0,41,112,92
0,41,0,96
0,36,0,288
0,40,127,0
0,33,112,4
0,39,112,0
0,39,0,92
0,33,0,0
0,63,100,0
0,33,127,4
0,63,0,288
0,62,100,0
0,33,112,4
0,39,112,0
0,39,0,92
0,33,0,0
0,33,0,96
0,62,0,116
0,60,100,0
0,36,127,4
0,60,0,372
0,33,112,0
0,57,100,0
0,39,112,4
0,39,0,92
0,33,0,0
0,57,0,40
0,36,0,56
0,57,100,0
0,57,0,132
0,33,127,12
0,33,112,384
0,39,112,0
0,39,0,96
0,33,0,0
0,33,0,96
0,41,112,48
0,36,127,48
0,41,0,4
0,41,112,92
0,41,0,96
0,36,0,288
0,40,127,0
0,33,112,4
0,39,112,0
0,39,0,92
0,33,0,0
0,69,100,0
0,33,127,4
0,69,0,308
0,63,100,0
0,33,112,4
0,39,112,0
0,39,0,92
0,33,0,0
0,63,0,60
0,33,0,36
0,63,100,0
0,36,127,144
0,63,0,132
0,63,100,0
0,33,112,144
0,39,112,0
0,63,0,16
0,63,100,0
0,39,0,4
0,36,0,92
0,63,0,68
0,63,100,0
0,33,127,4
0,63,0,204
0,62,100,0
0,33,112,144
0,39,112,0
0,62,0,88
0,60,100,0
0,33,0,96
0,36,127,96
0,60,0,24
0,57,100,0
0,57,0,160
0,57,100,0
0,36,0,144
0,33,127,0
0,33,112,4
0,39,112,0
0,57,0,60
0,39,0,32
0,33,0,0
0,57,100,0
0,57,0,112
0,62,100,0
0,40,127,4
0,62,0,204
0,60,100,0
0,60,0,120
0,62,100,0
0,33,112,4
0,39,112,0
0,39,0,92
0,33,0,0
0,40,0,96
0,60,100,0
0,60,0,124
0,62,100,0
0,32,127,4
0,62,0,228
0,60,100,0
0,60,0,108
0,57,100,0
0,33,112,4
0,39,112,0
0,39,0,92
0,33,0,0
0,57,0,88
0,32,0,8
0,57,100,0
0,33,127,48
0,57,0,84
0,57,100,0
0,57,0,96
0,57,100,0
0,33,112,4
0,39,112,0
0,39,0,92
0,33,0,0
0,57,0,24
0,57,100,0
0,57,0,96
0,60,100,0
0,60,0,324
0,57,100,0
0,28,127,4
0,33,112,0
0,39,112,0
0,39,0,92
0,33,0,0
0,57,0,156
0,28,0,132
0,33,127,0
0,41,112,0
0,41,0,96
0,33,112,288
0,39,112,0
0,39,0,96
0,33,0,0
0,33,0,96
0,36,127,192
0,33,112,384
0,39,112,4
0,39,0,92
0,33,0,0
0,36,0,96
0,33,127,192
0,63,100,0
0,33,112,144
0,39,112,4
0,63,0,64
0,39,0,28
0,33,0,0
0,33,0,96
0,60,100,0
0,41,112,4
0,36,127,44
0,41,0,4
0,60,0,72
0,62,100,0
0,41,112,4
0,41,0,92
0,62,0,232
0,40,127,0
0,60,100,0
0,33,112,4
0,39,112,0
0,39,0,92
0,33,0,0
0,60,0,100
0,33,127,0
0,62,100,0
0,62,0,216
0,60,100,0
0,60,0,92
0,62,100,0
0,33,112,4
0,39,112,0
0,39,0,92
0,33,0,0
0,33,0,96
0,62,0,64
0,60,100,0
0,60,0,120
0,62,100,0
0,36,127,4
0,62,0,248
0,60,100,0
0,60,0,88
0,57,100,0
0,33,112,4
0,39,112,0
0,39,0,92
0,33,0,0
0,57,0,64
0,36,0,32
0,57,100,0
0,33,127,144
0,57,0,68
0,33,112,316
0,39,112,4
0,39,0,92
0,33,0,0
0,33,0,96
0,41,112,48
0,36,127,48
0,41,0,4
0,41,112,92
0,41,0,96
0,36,0,288
0,40,127,0
0,33,112,0
0,39,112,4
0,39,0,92
0,33,0,0
0,68,100,0
0,33,127,4
0,68,0,216
0,69,100,0
0,33,112,120
0,39,112,4
0,69,0,40
0,39,0,52
0,33,0,0
0,33,0,96
0,36,127,192
0,33,112,384
0,39,112,4
0,39,0,92
0,33,0,0
0,36,0,96
0,33,127,0
0,63,100,0
0,63,0,196
0,60,100,0
0,33,112,0
0,60,0,0
0,62,100,0
0,39,112,4
0,39,0,92
0,33,0,0
0,33,0,96
0,62,0,8
0,60,100,0
0,36,127,24
0,36,0,480
0,33,127,0
0,33,112,4
0,39,112,0
0,60,0,8
0,39,0,84
0,33,0,0
0,62,100,0
0,40,127,4
0,62,0,224
0,60,100,0
0,60,0,112
0,62,100,0
0,33,112,4
0,39,112,0
0,39,0,92
0,33,0,0
0,40,0,96
0,62,0,68
0,60,100,0
0,60,0,112
0,62,100,0
0,32,127,4
0,62,0,224
0,60,100,0
0,60,0,108
0,57,100,0
0,33,112,4
0,39,112,0
0,39,0,92
0,33,0,0
0,57,0,76
0,32,0,16
0,57,100,0
0,33,127,52
0,57,0,112
0,33,0,368
0,33,112,0
0,39,112,0
0,39,0,96
0,33,0,0
0,28,127,672
0,33,112,4
0,39,112,0
0,39,0,92
0,33,0,0
0,28,0,284
0,33,127,8
0,41,112,0
0,41,0,92
0,60,100,0
0,60,0,148
0,33,112,16
0,39,112,4
0,39,0,92
0,33,0,0
0,33,0,96
0,57,100,0
0,57,0,72
0,36,127,72
0,57,100,0
0,57,0,344
0,33,112,20
0,39,112,0
0,55,100,0
0,39,0,76
0,33,0,0
0,36,0,92
0,55,0,32
0,33,127,164
0,57,100,0
0,57,0,128
0,33,112,24
0,39,112,4
0,39,0,92
0,33,0,0
0,33,0,96
0,55,100,0
0,41,112,4
0,36,127,44
0,41,0,4
0,55,0,44
0,41,112,48
0,57,100,0
0,41,0,80
0,60,100,0
0,36,0,8
0,40,127,4
0,33,112,4
0,39,112,0
0,39,0,92
0,33,0,0
0,60,0,56
0,40,0,232
0,33,127,0
0,60,100,0
0,60,0,108
0,33,112,32
0,39,112,0
0,39,0,96
0,33,0,0
0,33,0,96
0,57,100,0
0,57,0,92
0,36,127,68
0,57,100,0
0,57,0,372
0,33,112,8
0,39,112,0
0,55,100,0
0,39,0,88
0,33,0,0
0,55,0,88
0,36,0,8
0,57,100,0
0,33,127,4
0,57,0,140
0,55,100,0
0,33,112,144
0,39,112,0
0,55,0,0
0,39,0,96
0,33,0,0
0,57,100,0
0,41,112,48
0,36,127,48
0,41,0,4
0,57,0,76
0,41,112,16
0,41,0,96
0,36,0,288
0,40,127,0
0,33,112,4
0,39,112,0
0,39,0,92
0,33,0,0
0,40,0,288
0,33,127,0
0,60,100,0
0,60,0,124
0,33,112,28
0,39,112,0
0,39,0,96
0,33,0,0
0,33,0,96
0,57,100,0
0,57,0,84
0,36,127,84
0,57,100,0
0,57,0,332
0,55,100,0
0,33,112,4
0,39,112,0
0,39,0,96
0,33,0,0
0,55,0,92
0,36,0,4
0,33,127,192
0,57,100,0
0,57,0,144
0,33,112,20
0,39,112,0
0,39,0,96
0,33,0,0
0,33,0,96
0,55,100,0
0,36,127,64
0,55,0,32
0,57,100,0
0,36,0,388
0,33,127,0
0,33,112,0
0,39,112,4
0,57,0,0
0,60,100,0
0,39,0,88
0,33,0,0
0,60,0,48
0,33,0,240
0,40,127,0
0,62,100,0
0,62,0,192
0,60,100,0
0,60,0,116
0,62,100,0
0,33,112,20
0,39,112,0
0,39,0,96
0,33,0,0
0,40,0,96
0,62,0,12
0,60,100,0
0,60,0,116
0,32,127,36
0,62,100,0
0,62,0,236
0,60,100,0
0,60,0,120
0,33,112,12
0,39,112,4
0,57,100,0
0,39,0,88
0,33,0,0
0,57,0,84
0,32,0,12
0,57,100,0
0,33,127,36
0,57,0,80
0,33,0,400
0,33,112,0
0,39,112,4
0,39,0,92
0,33,0,0
0,28,127,672
0,33,112,4
0,39,112,0
0,39,0,92
0,33,0,0
0,28,0,288
0,34,127,0
0,41,127,4
0,41,0,92
0,33,112,288
0,39,112,0
0,39,0,96
0,33,0,0
0,34,0,96
0,37,127,192
0,33,112,384
0,39,112,4
0,39,0,92
0,33,0,0
0,37,0,96
0,34,127,192
0,33,112,384
0,39,112,0
0,39,0,96
0,33,0,0
0,34,0,96
0,37,127,96
0,37,0,480
0,34,127,0
0,33,112,4
0,39,112,0
0,39,0,92
0,33,0,0
0,41,116,144
0,41,0,96
0,34,0,48
0,29,127,0
0,41,127,4
0,41,0,92
0,33,112,288
0,39,112,4
