track,note,velocity,time
0,49,111,180
0,61,117,0
0,35,107,0
0,40,115,0
0,48,90,48
0,50,88,0
0,47,111,108
0,59,119,0
0,35,106,0
0,47,93,16
0,45,95,1
0,43,108,0
0,55,112,0
0,35,107,0
0,40,114,0
0,45,97,8
0,42,108,0
0,54,115,0
0,45,89,14
0,43,91,1
0,40,110,0
0,52,116,0
0,35,112,0
0,41,89,4
0,43,96,1
0,79,81,115
0,40,68,0
0,35,112,0
0,49,111,0
0,80,81,0
0,88,113,160
0,61,99,31
0,88,100,1
0,73,85,0
0,76,86,0
0,80,80,0
0,68,101,2
0,61,112,6
0,88,101,14
0,88,118,0
0,73,87,0
0,76,83,0
0,80,87,0
0,40,110,0
0,68,98,12
0,61,102,2
0,61,119,15
0,85,94,0
0,85,114,0
0,73,84,0
0,76,84,0
0,80,81,0
0,61,100,6
0,68,99,2
0,61,117,14
0,88,98,0
0,88,117,0
0,69,83,0
0,71,83,0
0,76,84,0
0,37,65,0
0,35,112,0
0,69,95,1
0,64,96,3
0,57,117,8
0,87,115,0
0,89,101,4
0,88,102,9
0,86,115,0
0,85,111,0
0,69,87,0
0,71,83,0
0,73,79,0
0,76,84,0
0,40,111,0
0,69,102,0
0,57,120,5
0,64,98,0
0,85,103,3
0,71,79,64
0,37,71,0
0,88,101,0
0,88,119,0
0,66,83,0
0,70,85,0
0,73,85,0
0,42,70,0
0,35,112,0
0,64,114,5
0,73,97,6
0,64,95,10
0,40,115,0
0,88,102,124
0,88,115,0
0,66,80,0
0,69,81,0
0,73,82,0
0,40,109,0
0,64,119,3
0,73,96,0
0,64,102,41
0,74,84,0
0,75,97,2
0,69,120,9
0,67,101,1
0,91,96,0
0,91,118,0
0,66,78,0
0,69,81,0
0,71,80,0
0,75,83,0
0,35,69,0
0,35,115,0
0,57,113,0
0,76,94,124
0,69,101,8
0,71,111,41
0,75,98,2
0,67,96,15
0,76,99,17
0,93,112,0
0,93,103,7
0,43,89,4
0,69,97,1
0,41,93,0
0,75,96,11
0,69,116,2
0,67,103,9
0,76,96,10
0,91,95,0
0,91,116,0
0,71,119,3
0,69,96,0
0,75,94,13
0,43,89,16
0,41,97,2
0,67,103,0
0,76,97,3
0,69,118,1
0,93,97,0
0,93,118,0
0,69,94,15
0,71,114,3
0,75,97,8
0,91,97,15
0,67,100,3
0,69,120,1
0,76,102,2
0,91,120,0
0,43,96,17
0,41,97,0
0,69,97,0
0,71,119,2
0,93,98,1
0,75,103,1
0,93,116,0
0,67,103,1
0,69,111,4
0,76,98,5
0,91,95,22
0,69,98,1
0,71,113,0
0,75,95,5
0,43,109,0
0,91,113,0
0,43,74,0
0,43,94,17
0,69,112,2
0,41,88,0
0,76,100,4
0,67,95,2
0,71,114,15
0,93,117,0
0,69,101,2
0,75,100,4
0,69,117,3
0,76,100,8
0,67,101,2
0,42,114,0
0,91,115,0
0,42,70,0
0,71,117,10
0,75,97,6
0,41,96,0
0,43,88,1
0,69,100,1
0,89,106,2
0,88,103,4
0,86,99,2
0,69,115,1
0,67,101,5
0,84,97,1
0,83,95,5
0,81,93,2
0,79,90,6
0,77,88,5
0,76,86,3
0,74,84,0
0,40,115,0
0,40,66,0
0,35,113,0
0,49,114,0
0,76,99,237
0,68,96,13
0,76,114,0
0,61,86,0
0,68,87,0
0,76,85,0
0,61,112,4
0,61,99,7
0,76,115,8
0,61,85,0
0,68,86,0
0,76,80,0
0,40,107,0
0,76,101,6
0,61,97,5
0,68,98,1
0,61,119,6
0,61,98,5
0,73,95,1
0,73,116,0
0,61,86,0
0,68,80,0
0,73,80,0
0,40,67,0
0,35,108,0
0,68,103,2
0,61,111,3
0,76,111,0
0,59,81,0
0,64,80,0
0,69,81,0
0,76,87,0
0,37,67,0
0,35,107,0
0,57,114,0
0,76,103,1
0,64,103,1
0,59,118,2
0,69,100,3
0,76,114,25
0,75,102,9
0,75,114,27
0,74,94,5
0,73,101,3
0,74,111,4
0,59,86,0
0,64,81,0
0,69,86,0
0,73,81,0
0,49,72,0
0,40,112,0
0,55,109,0
0,64,95,17
0,59,119,2
0,69,98,1
0,73,117,2
0,40,106,28
0,76,119,4
0,58,84,0
0,66,87,0
0,70,78,0
0,76,84,0
0,42,65,0
0,35,107,0
0,76,101,2
0,58,112,3
0,66,102,1
0,40,111,4
0,70,101,1
0,35,112,112
0,37,70,0
0,35,107,0
0,66,98,119
0,69,103,2
0,69,120,0
0,61,82,0
0,66,79,0
0,69,85,0
0,73,86,0
0,30,74,0
0,35,115,0
0,40,107,0
0,73,101,1
0,61,118,6
0,35,115,117
0,67,96,6
0,67,96,4
0,59,95,5
0,55,117,6
0,67,116,0
0,55,81,0
0,59,81,0
0,67,85,0
0,35,68,0
0,35,113,0
0,40,110,0
0,35,108,124
0,73,83,64
0,76,80,0
0,79,80,0
0,83,85,0
0,35,113,0
0,73,87,0
0,76,83,0
0,79,85,0
0,83,79,0
0,42,70,0
0,35,111,0
0,73,78,0
0,76,80,0
0,79,87,0
0,83,86,0
0,47,74,0
0,35,114,0
0,40,106,0
0,35,66,0
0,35,106,0
0,68,103,19
0,35,112,0
0,70,98,5
0,73,95,16
0,40,106,0
0,59,78,0
0,64,85,0
0,68,79,0
0,40,72,0
0,35,114,0
0,76,103,8
0,71,95,13
0,61,120,220
0,40,114,24
0,61,116,20
0,73,95,20
0,67,99,9
0,40,114,1
0,40,70,0
0,51,80,0
0,71,95,12
0,61,118,8
0,67,94,2
0,37,109,0
0,59,86,0
0,61,80,0
0,64,85,0
0,37,67,0
0,35,109,0
0,51,74,0
0,64,96,11
0,73,100,3
0,59,111,6
0,52,86,5
0,56,80,0
0,59,86,0
0,61,83,0
0,59,113,17
0,64,95,11
0,71,103,4
0,40,114,21
0,51,76,0
0,37,115,0
0,37,71,0
0,51,73,0
0,42,107,0
0,52,78,0
0,54,80,0
0,55,78,0
0,57,87,0
0,61,85,0
0,42,74,0
0,35,106,0
0,51,73,0
0,61,95,11
0,67,102,7
0,55,112,19
0,64,94,11
0,40,112,99
0,51,73,0
0,64,96,16
0,66,95,1
0,54,114,3
0,42,111,32
0,42,68,0
0,51,79,0
0,52,119,2
0,64,96,6
0,47,114,0
0,52,86,0
0,55,84,0
0,59,81,0
0,62,79,0
0,47,69,0
0,35,112,0
0,51,71,0
0,55,118,0
0,67,96,12
0,62,95,5
0,52,117,8
0,64,100,4
0,54,115,31
0,52,86,0
0,54,82,0
0,59,82,0
0,62,84,0
0,66,103,1
0,47,65,64
0,40,106,0
0,51,72,0
0,52,116,1
0,64,97,21
0,49,116,8
0,51,79,0
0,61,97,5
0,40,111,0
0,55,115,0
0,52,84,0
0,55,81,0
0,59,80,0
0,62,87,0
0,40,66,0
0,35,107,0
0,51,75,0
0,55,100,2
0,62,98,10
0,41,95,233
0,97,115,108
0,99,116,16
0,40,106,0
0,47,89,0
0,51,71,0
0,100,82,12
0,52,97,10
0,52,118,9
0,37,110,0
0,49,83,0
0,52,87,0
0,55,84,0
0,59,83,0
0,37,71,0
0,35,113,0
0,45,95,0
0,57,112,0
0,59,97,9
0,97,112,10
0,45,91,0
0,100,113,10
0,45,92,0
0,92,116,58
0,93,113,0
0,40,72,0
0,35,113,0
0,40,114,0
0,45,94,0
0,91,113,0
0,88,115,0
0,37,69,0
0,35,114,0
0,42,109,0
0,91,113,0
0,52,85,0
0,54,81,0
0,42,73,0
0,35,114,0
0,55,113,0
0,64,103,0
0,52,98,8
0,52,118,12
0,88,116,10
0,35,109,0
0,59,96,7
0,47,111,2
0,47,99,5
0,91,117,10
0,40,107,0
0,50,99,2
0,62,95,4
0,50,111,9
0,35,107,7
0,93,78,0
0,47,82,0
0,51,81,0
0,54,86,0
0,57,85,0
0,35,70,0
0,47,114,5
0,59,96,2
0,47,96,7
0,35,118,109
0,40,90,0
0,52,94,0
0,40,67,24
0,40,67,28
0,40,67,28
0,40,68,28
0,40,68,28
0,40,68,28
0,40,68,32
0,40,68,24
0,67,111,0
0,40,69,28
0,40,69,28
0,40,69,24
0,47,70,0
0,40,69,0
0,68,113,0
0,80,78,0
0,42,66,0
0,35,107,0
0,37,70,10
0,35,111,0
0,52,60,29
0,59,60,9
0,64,64,13
0,71,113,0
0,83,83,0
0,40,66,0
0,35,106,0
0,44,112,0
0,51,76,0
0,68,65,1
0,71,59,26
0,59,87,0
0,64,83,0
0,68,85,0
0,37,111,0
0,44,107,0
0,51,80,0
0,68,66,2
0,64,60,2
0,71,66,3
0,59,82,32
0,62,87,0
0,65,81,0
0,40,66,0
0,59,61,110
0,62,65,13
0,41,70,0
0,44,107,0
0,51,74,0
0,65,67,15
0,68,63,24
0,71,63,20
0,56,87,32
0,59,84,0
0,62,87,0
0,65,64,24
0,59,79,0
0,62,83,0
0,65,84,0
0,37,111,0
0,44,113,0
0,51,75,0
0,71,59,1
0,68,61,2
0,67,113,32
0,80,85,0
0,68,111,0
0,76,86,0
0,41,70,0
0,54,67,106
0,61,67,11
0,71,116,0
0,83,82,0
0,42,74,0
0,35,110,0
0,44,113,0
0,51,71,0
0,64,67,1
0,66,61,18
0,69,63,24
0,68,115,0
0,71,116,0
0,37,106,0
0,44,108,0
0,51,74,0
0,69,68,7
0,66,67,2
0,64,61,2
0,49,67,64
0,70,116,0
0,73,84,0
0,76,86,0
0,80,78,0
0,83,81,0
0,48,66,0
0,59,63,90
0,63,65,23
0,69,113,0
0,73,84,0
0,75,86,0
0,78,78,0
0,81,79,0
0,47,67,0
0,44,109,0
0,51,76,0
0,66,62,2
0,69,68,17
0,73,68,11
0,42,66,0
0,69,60,0
0,35,68,0
0,37,109,0
0,44,109,0
0,51,80,0
0,73,59,1
0,66,64,0
0,67,113,64
0,68,115,0
0,39,71,0
0,35,110,0
0,51,79,0
0,52,66,108
0,71,112,0
0,59,65,0
0,40,65,0
0,35,114,0
0,44,113,0
0,51,79,0
0,64,68,9
0,68,67,11
0,71,64,26
0,59,115,0
0,51,77,160
0,83,63,60
0,68,67,0
0,85,60,0
0,37,112,0
0,44,112,0
0,51,75,0
0,64,68,2
0,71,61,1
0,87,58,0
0,88,56,0
0,47,68,0
0,89,67,0
0,90,76,0
0,48,69,0
0,91,85,0
0,59,64,35
0,65,61,19
0,68,64,4
0,92,93,0
0,49,73,0
0,35,111,0
0,44,113,0
0,51,73,0
0,71,59,18
0,74,67,20
0,88,85,0
0,86,85,64
0,74,61,0
0,85,83,0
0,37,70,0
0,37,115,0
0,44,107,0
0,51,74,0
0,71,63,1
0,68,59,5
0,83,78,0
0,80,86,64
0,35,108,0
0,51,71,0
0,57,66,114
0,64,64,2
0,78,80,0
0,42,71,0
0,35,110,0
0,44,110,0
0,51,78,0
0,66,68,9
0,69,62,12
0,73,62,11
0,66,120,156
0,66,113,0
0,64,85,0
0,66,80,0
0,69,79,0
0,73,78,0
0,45,73,0
0,37,115,0
0,44,106,0
0,51,78,0
0,73,68,4
0,66,62,5
0,69,66,1
0,66,119,32
0,78,85,0
0,81,80,0
0,83,79,0
0,87,81,0
0,59,64,32
0,64,62,2
0,47,65,0
0,35,115,0
0,44,112,0
0,51,77,0
0,66,59,4
0,69,66,6
0,73,63,7
0,66,119,32
0,66,112,0
0,75,78,0
0,87,83,0
0,51,74,0
0,37,112,0
0,44,108,0
0,51,77,0
0,69,60,2
0,73,61,1
0,66,64,3
0,64,115,0
0,61,113,0
0,40,87,0
0,52,79,0
0,76,85,0
0,80,79,0
0,83,83,0
0,35,115,0
0,51,76,0
0,52,62,92
0,59,62,16
0,64,65,13
0,64,113,0
0,52,68,0
0,35,115,0
0,44,115,0
0,51,73,0
0,68,62,4
0,71,64,26
0,59,114,0
0,51,75,160
0,47,73,0
0,37,113,0
0,44,107,0
0,51,74,0
0,68,64,5
0,64,63,2
0,71,60,3
0,40,70,0
0,51,76,0
0,71,82,2
0,70,80,30
0,69,86,41
0,59,64,20
0,62,67,13
0,41,69,0
0,35,114,0
0,44,110,0
0,51,75,0
0,68,84,5
0,65,67,8
0,68,64,24
0,71,68,2
0,71,86,190
0,73,85,0
0,76,84,0
0,80,84,0
0,68,83,0
0,71,79,0
0,74,83,0
0,77,86,0
0,37,112,0
0,44,108,0
0,51,76,0
0,65,60,3
0,71,61,0
0,68,64,5
0,73,84,0
0,35,107,0
0,51,74,0
0,54,67,32
0,61,66,11
0,64,63,12
0,69,83,9
0,76,85,0
0,78,78,0
0,42,66,0
0,35,109,0
0,44,106,0
0,51,71,0
0,66,63,8
0,69,66,24
0,57,113,0
0,64,80,0
0,51,76,0
0,73,82,0
0,76,87,0
0,78,80,0
0,83,78,0
0,37,108,0
0,44,111,0
0,51,74,0
0,69,65,1
0,66,63,2
0,64,59,1
0,61,117,0
0,49,74,0
0,64,113,0
0,69,81,0
0,73,78,0
0,75,81,0
0,78,86,0
0,48,69,0
0,59,60,78
0,64,68,29
0,66,67,18
0,67,117,0
0,47,68,0
0,35,106,0
0,44,112,0
0,51,74,0
0,69,66,10
0,72,61,25
0,35,73,0
0,37,106,0
0,44,106,0
0,51,73,0
0,72,59,9
0,66,59,3
0,69,61,4
0,67,115,23
0,59,79,0
0,63,78,0
0,67,79,0
0,51,73,0
0,52,63,86
0,59,68,0
0,64,67,13
0,68,116,0
0,59,84,0
0,64,78,0
0,68,83,0
0,40,69,0
0,35,115,0
0,44,112,0
0,51,75,0
0,68,66,4
0,71,60,26
0,64,119,0
0,62,98,10
0,64,94,0
0,56,82,0
0,59,83,0
0,64,87,0
0,62,113,2
0,76,113,20
0,40,113,10
0,44,113,0
0,51,80,0
0,64,101,2
0,68,59,3
0,62,113,2
0,64,63,0
0,62,96,1
0,71,63,2
0,76,111,15
0,40,72,25
0,35,114,0
0,51,72,0
0,64,99,3
0,62,95,3
0,62,119,2
0,76,117,14
0,57,68,1
0,64,60,5
0,61,82,0
0,64,81,0
0,66,79,0
0,69,80,0
0,37,74,0
0,40,109,0
0,44,107,0
0,51,79,0
0,64,95,4
0,59,99,1
0,59,118,4
0,66,66,1
0,69,62,16
0,76,118,1
0,73,67,0
0,49,81,64
0,35,109,0
0,64,95,14
0,76,120,7
0,66,65,2
0,61,79,0
0,64,81,0
0,66,78,0
0,69,81,0
0,49,65,0
0,35,113,0
0,40,108,0
0,44,106,0
0,51,78,0
0,69,60,2
0,73,66,1
0,59,100,4
0,59,114,4
0,49,87,64
0,35,113,0
0,51,80,0
0,57,67,32
0,63,61,21
0,64,101,4
0,61,99,6
0,61,81,1
0,63,78,0
0,66,87,0
0,69,86,0
0,42,70,0
0,35,108,0
0,40,107,0
0,44,115,0
0,51,79,0
0,57,111,0
0,66,66,0
0,76,111,4
0,69,60,18
0,73,67,18
0,35,108,1
0,35,107,91
0,51,75,0
0,64,120,14
0,40,109,2
0,54,119,2
0,59,61,28
0,64,60,21
0,69,60,13
0,57,86,2
0,62,85,0
0,67,85,0
0,45,69,0
0,35,109,0
0,40,109,0
0,44,106,0
0,55,108,0
0,61,103,2
0,71,68,0
0,66,114,2
0,64,100,0
0,57,111,10
0,47,108,5
0,76,60,1
0,67,120,4
0,66,112,0
0,59,59,6
0,63,94,7
0,42,112,4
0,54,120,0
0,59,102,2
0,63,61,0
0,57,87,0
0,59,87,0
0,63,87,0
0,66,86,0
0,35,66,0
0,35,114,0
0,40,114,0
0,44,108,0
0,57,110,0
0,66,61,7
0,69,60,17
0,71,64,14
0,50,88,214
0,50,95,0
0,48,92,1
0,66,115,0
0,59,83,0
0,48,92,2
0,47,88,0
0,57,78,0
0,48,91,6
0,47,94,2
0,67,119,0
0,75,55,0
0,78,55,0
0,81,52,0
0,83,53,0
0,47,94,4
0,45,95,1
0,68,113,0
0,75,51,0
0,78,53,0
0,81,58,0
0,83,56,0
0,59,82,0
0,39,65,0
0,35,110,0
0,52,66,3
0,52,66,0
0,59,61,3
0,59,68,0
0,64,62,10
0,64,64,0
0,71,120,0
0,74,51,0
0,76,49,0
0,80,49,0
0,83,56,0
