track,note,velocity,time
0,38,45,252
0,38,61,11
0,38,91,11
0,40,122,11
0,40,106,63
0,42,84,31
0,35,105,0
0,43,95,0
0,50,59,0
0,43,60,0
0,43,73,0
0,42,42,10
0,50,67,0
0,43,62,1
0,43,72,0
0,63,99,13
0,56,89,0
0,60,91,0
0,42,107,2
0,48,97,0
0,40,108,0
0,43,78,0
0,52,87,0
0,57,77,0
0,64,96,2
0,62,74,14
0,42,58,1
0,52,78,0
0,43,88,0
0,47,90,0
0,59,81,1
0,55,77,0
0,42,66,4
0,50,78,0
0,43,70,0
0,35,105,0
0,38,88,0
0,42,47,9
0,43,82,0
0,50,70,1
0,43,63,0
0,56,95,7
0,63,105,0
0,42,107,3
0,40,106,0
0,60,95,0
0,38,92,0
0,52,92,0
0,43,77,0
0,48,100,0
0,57,92,0
0,64,85,5
0,63,55,3
0,42,51,6
0,59,84,0
0,62,83,0
0,55,82,0
0,47,85,0
0,52,77,1
0,43,87,0
0,42,81,3
0,43,90,0
0,43,67,0
0,35,105,0
0,50,76,0
0,42,49,7
0,43,79,0
0,50,72,1
0,43,70,1
0,63,103,4
0,42,107,2
0,56,95,0
0,60,92,0
0,48,103,0
0,40,108,0
0,43,90,0
0,43,70,0
0,52,91,0
0,57,92,3
0,64,84,0
0,42,58,15
0,47,93,0
0,62,89,0
0,38,91,1
0,43,84,0
0,52,89,0
0,59,90,1
0,55,84,0
0,35,105,2
0,42,67,0
0,50,87,0
0,43,68,0
0,42,46,15
0,38,88,0
0,43,57,0
0,50,70,0
0,43,86,1
0,63,108,4
0,56,97,0
0,60,99,2
0,42,110,3
0,48,104,0
0,40,106,0
0,43,69,0
0,52,81,0
0,40,92,0
0,57,91,2
0,64,74,3
0,42,58,12
0,38,90,1
0,59,87,0
0,43,80,0
0,52,65,0
0,47,80,0
0,55,82,1
0,62,84,0
0,42,81,2
0,50,83,0
0,35,105,0
0,31,95,0
0,43,72,0
0,43,76,0
0,42,54,8
0,43,81,0
0,74,85,0
0,79,76,0
0,71,79,0
0,50,75,0
0,43,77,0
0,42,110,5
0,63,97,0
0,48,104,0
0,40,108,0
0,81,101,0
0,76,97,0
0,72,104,0
0,52,85,0
0,43,88,0
0,56,77,1
0,60,85,0
0,57,92,0
0,64,84,2
0,52,87,11
0,43,97,0
0,42,58,1
0,47,74,0
0,74,76,0
0,79,74,0
0,71,76,0
0,59,89,5
0,62,84,0
0,55,85,0
0,50,87,6
0,42,74,1
0,43,81,0
0,43,76,0
0,35,105,0
0,38,88,0
0,42,53,9
0,50,77,0
0,43,81,0
0,43,80,0
0,56,93,8
0,63,103,0
0,42,113,2
0,60,96,0
0,52,88,0
0,43,59,0
0,48,98,0
0,40,106,0
0,38,92,0
0,57,106,2
0,64,91,0
0,42,62,5
0,52,84,0
0,43,92,0
0,47,62,0
0,59,85,2
0,62,84,0
0,55,81,1
0,42,93,7
0,43,90,0
0,43,70,0
0,35,105,0
0,43,72,0
0,50,88,0
0,42,54,12
0,43,79,0
0,71,67,0
0,79,76,0
0,74,76,0
0,50,76,1
0,43,81,0
0,63,103,9
0,56,95,0
0,60,96,0
0,42,107,2
0,48,100,0
0,40,108,0
0,81,110,0
0,72,103,0
0,76,110,0
0,52,80,0
0,57,96,0
0,64,92,2
0,59,80,17
0,62,75,0
0,55,80,0
0,42,54,1
0,74,93,0
0,71,86,0
0,79,82,0
0,47,86,0
0,38,91,1
0,43,91,0
0,52,88,0
0,42,73,5
0,35,105,0
0,50,78,0
0,43,81,0
0,43,54,1
0,42,56,17
0,38,88,0
0,50,72,1
0,43,78,0
0,43,65,0
0,56,95,7
0,63,105,0
0,60,89,3
0,42,113,1
0,48,104,0
0,40,106,0
0,64,96,0
0,57,104,0
0,40,92,0
0,52,84,0
0,43,77,0
0,62,87,10
0,59,88,1
0,55,85,0
0,42,59,3
0,47,65,0
0,38,90,1
0,52,92,0
0,43,94,0
0,70,99,0
0,42,84,0
0,35,105,0
0,43,98,0
0,50,92,0
0,43,92,0
0,43,73,0
0,71,104,0
0,42,42,5
0,50,76,0
0,43,76,1
0,43,72,0
0,63,99,11
0,56,89,0
0,60,91,0
0,42,107,3
0,48,97,0
0,40,108,0
0,43,78,0
0,40,94,0
0,52,87,0
0,67,98,0
0,57,77,0
0,64,96,2
0,64,104,0
0,62,74,2
0,42,58,1
0,52,78,0
0,43,88,0
0,47,90,0
0,59,81,1
0,55,77,0
0,42,66,4
0,38,94,0
0,50,78,0
0,43,70,0
0,35,105,0
0,67,100,0
0,62,98,0
0,42,47,3
0,43,82,0
0,50,70,1
0,43,63,0
0,56,95,7
0,63,105,0
0,64,102,0
0,42,107,0
0,40,106,0
0,60,95,0
0,35,95,0
0,52,92,0
0,43,77,0
0,48,100,0
0,57,92,0
0,64,85,5
0,63,55,3
0,62,102,0
0,42,51,0
0,59,84,0
0,62,83,0
0,55,82,0
0,47,85,0
0,52,77,1
0,43,87,0
0,42,81,3
0,43,67,0
0,35,105,0
0,50,76,0
0,31,94,0
0,42,49,7
0,43,79,0
0,50,72,1
0,67,104,0
0,43,70,0
0,63,103,4
0,42,107,0
0,56,95,0
0,60,92,0
0,48,103,0
0,40,108,0
0,40,97,0
0,43,70,0
0,52,91,0
0,57,92,3
0,67,100,0
0,64,84,0
0,42,58,3
0,47,93,0
0,62,89,0
0,69,103,0
0,43,84,0
0,52,89,0
0,59,90,1
0,55,84,0
0,35,105,2
0,42,67,0
0,38,96,0
0,50,87,0
0,43,68,0
0,42,46,0
0,43,57,0
0,50,70,0
0,38,92,1
0,43,86,0
0,63,108,2
0,56,97,0
0,60,99,0
0,42,110,3
0,48,104,0
0,40,106,0
0,43,69,0
0,52,81,0
0,35,92,0
0,57,91,2
0,64,74,3
0,42,58,5
0,38,92,0
0,59,87,1
0,43,80,0
0,52,65,0
0,47,80,0
0,55,82,1
0,62,84,0
0,42,81,3
0,50,83,0
0,70,97,0
0,35,105,0
0,31,95,0
0,43,72,0
0,43,76,0
0,71,104,0
0,42,54,0
0,43,81,0
0,50,75,1
0,43,77,0
0,42,110,2
0,63,97,0
0,48,104,0
0,40,108,0
0,35,94,0
0,52,85,0
0,43,88,0
0,67,100,0
0,56,77,0
0,60,85,0
0,57,92,0
0,64,84,2
0,52,87,11
0,43,97,0
0,42,58,1
0,47,74,0
0,64,99,0
0,59,89,4
0,62,84,0
0,55,85,0
0,50,87,6
0,42,74,1
0,43,81,0
0,43,76,0
0,35,105,0
0,38,94,0
0,67,102,0
0,42,53,11
0,50,77,0
0,43,81,0
0,43,80,0
0,67,103,0
0,56,93,5
0,63,103,0
0,42,113,2
0,60,96,0
0,52,88,0
0,43,59,0
0,48,98,0
0,40,106,0
0,40,91,0
0,69,106,0
0,57,106,2
0,64,91,0
0,42,62,13
0,52,84,0
0,43,92,0
0,47,62,0
0,67,101,0
0,59,85,1
0,62,84,0
0,55,81,1
0,42,93,7
0,43,92,0
0,43,70,0
0,69,106,0
0,35,105,0
0,43,72,0
0,50,88,0
0,67,98,0
0,42,54,0
0,43,98,0
0,43,79,0
0,50,76,1
0,43,81,0
0,63,103,9
0,56,95,0
0,60,96,2
0,42,107,1
0,41,92,0
0,48,100,0
0,40,108,0
0,67,104,0
0,52,80,0
0,57,96,0
0,64,92,2
0,59,80,8
0,62,75,0
0,55,80,0
0,42,54,1
0,47,86,0
0,67,104,0
0,43,91,0
0,52,88,0
0,42,73,5
0,40,91,0
0,35,105,0
0,50,78,0
0,43,81,0
0,43,54,1
0,42,56,12
0,40,95,0
0,62,101,0
0,50,72,0
0,43,78,0
0,43,65,0
0,56,95,1
0,63,105,0
0,60,89,3
0,42,113,1
0,48,104,0
0,40,106,0
0,64,96,0
0,57,104,0
0,64,102,0
0,38,96,0
0,52,84,0
0,43,77,0
0,62,87,5
0,59,88,1
0,55,85,0
0,42,59,3
0,47,65,0
0,67,108,0
0,52,92,0
0,43,94,0
0,42,84,7
0,35,105,0
0,36,90,0
0,36,72,0
0,43,81,0
0,64,74,1
0,67,69,0
0,60,64,0
0,42,42,5
0,79,92,0
0,84,92,0
0,76,82,0
0,43,75,1
0,36,77,0
0,43,82,0
0,68,108,6
0,60,72,0
0,65,95,4
0,42,107,1
0,40,94,0
0,69,95,0
0,40,108,0
0,86,100,0
0,77,100,0
0,81,96,0
0,45,85,0
0,36,88,0
0,45,106,0
0,67,72,8
0,64,77,2
0,60,70,2
0,45,87,2
0,36,97,0
0,42,58,1
0,79,76,0
0,76,76,0
0,84,76,0
0,43,79,0
0,43,87,8
0,42,66,1
0,43,86,0
0,36,81,0
0,35,105,0
0,43,85,0
0,42,47,12
0,64,64,0
0,43,77,0
0,36,81,0
0,43,87,0
0,68,117,7
0,60,67,1
0,65,101,0
0,42,107,1
0,45,94,0
0,45,88,0
0,36,59,0
0,40,106,0
0,45,112,0
0,69,102,0
0,42,51,13
0,45,84,0
0,36,92,0
0,43,89,0
0,67,75,1
0,64,80,0
0,60,70,0
0,42,81,7
0,46,89,0
0,43,91,0
0,35,105,0
0,36,72,0
0,43,88,0
0,70,101,0
0,70,102,0
0,42,49,0
0,43,90,0
0,76,75,0
0,84,87,0
0,79,84,0
0,43,76,1
0,36,81,0
0,64,80,4
0,60,65,2
0,67,68,0
0,42,107,13
0,45,94,0
0,40,108,0
0,77,100,0
0,86,108,0
0,81,106,0
0,68,123,0
0,45,120,0
0,60,80,0
0,65,99,0
0,45,80,0
0,69,99,0
0,42,58,4
0,43,86,0
0,76,83,0
0,79,78,0
0,84,79,0
0,67,102,0
0,36,91,0
0,45,88,0
0,67,81,1
0,60,72,3
0,64,80,2
0,35,105,9
0,42,67,0
0,43,87,0
0,43,78,0
0,36,81,0
0,43,74,0
0,64,101,0
0,42,46,0
0,67,80,0
0,43,84,0
0,64,77,1
0,43,72,0
0,36,78,0
0,60,65,1
0,42,110,1
0,40,95,0
0,68,101,0
0,65,112,0
0,60,81,0
0,69,99,0
0,45,118,0
0,40,106,0
0,67,97,0
0,45,84,0
0,36,77,0
0,42,58,6
0,43,100,0
0,67,87,1
0,45,92,0
0,36,94,0
0,64,91,3
0,60,75,0
0,55,101,0
0,42,81,6
0,35,105,0
0,31,92,0
0,50,93,0
0,43,93,0
0,43,73,0
0,42,54,10
0,50,74,0
0,74,80,0
0,79,85,0
0,83,82,0
0,43,74,1
0,43,72,0
0,63,99,12
0,56,89,0
0,60,91,0
0,42,110,3
0,48,97,0
0,40,108,0
0,84,103,0
0,81,106,0
0,76,92,0
0,43,92,0
0,43,78,0
0,52,87,0
0,57,77,0
0,64,96,2
0,62,74,14
0,42,58,1
0,52,78,0
0,43,88,0
0,47,90,0
0,74,78,0
0,79,77,0
0,83,74,0
0,59,81,1
0,55,77,0
0,42,74,1
0,38,89,0
0,50,78,0
0,43,70,0
0,35,105,0
0,43,78,0
0,42,53,9
0,43,82,0
0,50,70,1
0,43,63,0
0,56,95,7
0,63,105,0
0,42,113,3
0,40,106,0
0,60,95,0
0,35,94,0
0,52,92,0
0,43,77,0
0,48,100,0
0,57,92,0
0,64,85,5
0,63,55,3
0,42,62,11
0,59,84,0
0,62,83,0
0,55,82,0
0,47,85,0
0,52,77,1
0,43,87,0
0,42,93,3
0,43,67,0
0,35,105,0
0,50,76,0
0,31,92,0
0,42,54,7
0,74,76,0
0,79,73,0
0,83,71,0
0,43,79,0
0,50,72,1
0,43,70,1
0,63,103,4
0,42,107,3
0,56,95,0
0,60,92,0
0,48,103,0
0,40,108,0
0,81,114,0
0,76,86,0
0,84,112,0
0,31,95,0
0,43,70,0
0,52,91,0
0,57,92,3
0,64,84,0
0,42,54,15
0,47,93,0
0,79,85,0
0,74,80,0
0,83,76,0
0,62,89,0
0,43,84,1
0,52,89,0
0,59,90,1
0,55,84,0
0,42,73,1
0,35,105,0
0,43,89,0
0,43,87,0
0,50,87,0
0,43,68,0
0,62,103,0
0,42,56,0
0,43,57,0
0,50,70,0
0,38,86,0
0,43,86,1
0,63,108,4
0,56,97,0
0,60,99,2
0,64,101,0
0,42,113,0
0,40,92,0
0,48,104,0
0,40,106,0
0,43,69,0
0,52,81,0
0,57,91,2
0,64,74,3
0,62,99,0
0,42,59,2
0,38,87,0
0,59,87,1
0,43,80,0
0,52,65,0
0,47,80,0
0,55,82,1
0,62,84,0
0,69,102,0
0,42,81,1
0,35,105,0
0,38,96,0
0,38,73,0
0,45,73,0
0,69,103,0
0,42,54,0
0,62,85,0
0,45,75,0
0,38,67,0
0,78,74,0
0,81,79,0
0,74,73,0
0,45,78,1
0,42,107,14
0,66,103,0
0,70,120,0
0,62,84,0
0,38,81,0
0,47,87,0
0,40,108,0
0,83,90,0
0,79,94,0
0,76,94,0
0,50,91,0
0,47,110,0
0,71,104,0
0,67,99,2
0,70,103,0
0,38,88,0
0,47,87,0
0,42,54,1
0,81,103,0
0,78,101,0
0,74,89,0
0,45,90,1
0,69,84,2
0,66,88,0
0,62,77,0
0,42,73,4
0,45,88,0
0,38,78,0
0,35,105,0
0,38,91,0
0,62,84,2
0,42,56,0
0,45,81,0
0,38,80,0
0,45,77,0
0,70,127,7
0,66,108,0
0,62,91,3
0,42,113,4
0,38,85,0
0,47,106,0
0,40,106,0
0,38,97,0
0,47,97,0
0,67,106,0
0,71,114,0
0,42,59,10
0,62,70,0
0,47,77,0
0,38,83,0
0,45,83,0
0,43,97,0
0,43,103,0
0,40,113,1
0,35,112,0
0,76,90,0
0,72,103,0
0,79,108,0
0,36,94,0
0,42,113,0
0,36,107,0
0,64,99,1
0,60,92,0
0,67,99,0
0,70,95,1
0,67,101,0
0,62,99,0
0,64,102,0
0,62,98,0
0,58,108,2
0,42,110,5
0,40,113,0
0,35,109,0
0,43,100,0
0,43,64,0
0,43,103,0
0,55,84,0
0,59,95,2
0,50,82,2
0,62,104,1
0,58,111,24
0,42,110,2
0,40,114,0
0,35,110,0
0,43,97,0
0,50,94,0
0,43,100,0
0,43,96,0
0,55,88,0
0,59,96,0
0,62,104,4
0,67,105,0
0,67,102,0
0,67,102,0
0,38,30,39
0,38,94,2
0,50,95,0
0,38,95,0
0,38,85,0
0,38,46,9
0,38,69,5
0,42,113,5
0,38,92,0
0,38,56,0
0,50,73,0
0,38,92,0
0,40,122,0
0,35,110,0
0,38,26,2
0,38,90,2
0,38,86,0
0,38,83,2
0,50,99,0
0,38,45,7
0,38,59,1
0,42,113,3
0,38,95,0
0,50,76,0
0,38,98,0
0,40,122,0
0,35,109,0
0,38,51,0
0,38,38,3
0,36,94,2
0,38,100,0
0,50,83,2
0,38,89,0
0,38,61,7
0,38,77,1
0,42,110,7
0,40,106,0
0,40,122,0
0,35,110,0
0,40,95,0
0,38,63,0
0,50,75,0
0,38,104,9
0,70,96,0
0,40,56,0
0,38,99,0
0,50,99,0
0,70,101,0
0,42,84,0
0,35,105,0
0,50,95,0
0,43,95,0
0,43,73,0
0,43,89,1
0,71,104,0
0,42,42,5
0,50,84,0
0,74,84,0
0,79,79,0
0,83,85,0
0,43,82,1
0,43,72,0
0,63,99,11
0,56,89,0
0,60,91,0
0,42,107,3
0,48,97,0
0,40,108,0
0,84,98,0
0,81,103,0
0,76,86,0
0,40,91,0
0,43,78,0
0,52,87,0
0,67,98,0
0,57,77,0
0,64,96,2
0,64,104,0
0,62,74,2
0,42,58,1
0,52,78,0
0,43,88,0
0,47,90,0
0,74,86,0
0,83,74,0
0,79,79,0
0,59,81,1
0,55,77,0
0,42,66,4
0,50,78,0
0,43,70,0
0,35,105,0
0,38,90,0
0,67,100,0
0,62,98,0
0,42,47,3
0,43,82,0
0,50,70,1
0,43,63,0
0,56,95,7
0,63,105,0
0,64,102,0
0,42,107,0
0,40,106,0
0,35,93,0
0,60,95,0
0,52,92,0
0,43,77,0
0,48,100,0
0,57,92,0
0,64,85,5
0,63,55,3
0,62,102,0
0,42,51,0
0,59,84,0
0,62,83,0
0,55,82,0
0,47,85,0
0,52,77,1
0,43,87,0
