track,note,velocity,time
1,55,66,4204
1,60,96,0
1,64,95,4
1,55,82,1308
1,60,99,0
1,64,98,4
1,55,67,1300
1,60,96,4
1,64,99,0
1,53,35,2852
1,57,74,4
1,60,91,4
1,65,90,0
1,65,87,0
1,60,94,4
1,57,61,0
1,65,99,216
1,60,94,8
1,57,79,4
1,53,26,0
1,65,99,0
1,60,98,4
1,57,70,0
1,57,85,392
1,60,98,4
1,65,94,0
1,53,37,4
1,65,100,0
1,60,97,0
1,57,78,4
1,65,95,248
1,60,97,0
1,57,81,8
1,53,38,4
1,65,100,0
1,60,100,4
1,52,47,368
1,55,88,4
1,60,99,4
1,64,88,0
1,64,76,4
1,60,79,8
1,64,98,192
1,60,101,8
1,55,83,0
1,64,104,4
1,60,97,0
1,55,80,324
1,52,32,0
1,64,91,4
1,60,100,0
1,64,94,36
1,60,88,4
1,64,101,224
1,60,100,8
1,55,83,0
1,52,41,4
1,64,106,0
1,60,103,4
1,55,16,360
1,59,88,8
1,62,98,0
1,67,97,0
1,67,100,0
1,62,99,0
1,59,85,4
1,67,96,188
1,62,96,0
1,59,82,8
1,55,23,4
1,67,101,0
1,62,97,8
1,59,77,0
1,59,95,12
1,57,61,304
1,60,61,0
1,65,35,0
1,65,90,28
1,60,76,0
1,65,100,232
1,60,97,8
1,57,78,4
1,53,16,0
1,65,100,4
1,60,88,8
1,64,44,196
1,52,54,52
1,55,90,8
1,60,98,0
1,64,66,4
1,64,91,0
1,60,84,0
1,55,47,4
1,64,99,208
1,60,94,8
1,55,73,0
1,64,99,0
1,60,93,0
1,55,74,4
1,64,65,284
1,60,91,8
1,55,78,4
1,60,99,0
1,64,67,4
1,64,80,0
1,60,79,4
1,64,87,256
1,55,54,8
1,60,79,4
1,64,90,8
1,60,96,0
1,55,75,4
1,52,60,360
1,55,101,4
1,60,100,4
1,64,103,0
1,48,16,1284
1,52,75,0
1,55,103,4
1,60,101,0
1,64,105,4
1,52,24,1272
1,55,92,0
1,60,100,4
1,64,105,4
1,53,38,2804
1,57,91,0
1,60,100,0
1,65,103,4
1,65,101,4
1,60,94,0
1,65,103,212
1,60,99,8
1,57,79,0
1,53,26,4
1,65,101,4
1,60,100,0
1,53,50,336
1,57,91,4
1,60,99,4
1,65,97,0
1,65,78,4
1,60,87,0
1,65,99,248
1,60,95,8
1,57,71,0
1,53,19,4
1,65,98,0
1,60,99,0
1,53,40,4
1,52,46,360
1,55,89,8
1,60,99,0
1,64,75,4
1,64,96,0
1,60,97,4
1,55,63,0
1,55,87,12
1,64,101,188
1,60,97,8
1,55,78,0
1,52,33,4
1,64,104,0
1,60,99,4
1,52,43,356
1,55,86,4
1,60,96,0
1,64,76,4
1,64,96,12
1,60,87,4
1,64,105,208
1,60,97,8
1,55,85,0
1,52,28,116
1,64,105,4
1,60,101,0
1,55,92,0
1,52,55,4
1,59,86,356
1,62,100,0
1,67,100,8
1,67,101,4
1,62,99,4
1,59,98,8
1,67,100,188
1,62,97,8
1,59,73,0
1,67,101,4
1,62,97,0
1,59,87,0
1,55,21,4
1,57,101,360
1,60,103,4
1,65,98,0
1,65,98,0
1,60,97,4
1,57,81,80
1,65,98,176
1,60,97,8
1,57,66,4
1,65,84,0
1,60,91,0
1,57,67,4
1,48,16,348
1,52,61,4
1,55,74,4
1,60,101,0
1,64,88,4
1,64,87,8
1,60,76,0
1,64,99,208
1,55,70,8
1,60,91,0
1,52,16,116
1,64,97,4
1,60,87,8
1,64,72,172
1,55,80,132
1,64,72,4
1,60,99,0
1,64,81,28
1,64,103,196
1,55,91,4
1,60,104,8
1,52,41,0
1,64,103,228
1,60,99,8
1,55,71,0
1,52,16,4
1,55,99,0
1,60,104,4
1,64,106,0
1,55,90,120
1,60,101,4
1,64,103,0
1,57,74,5900
1,60,91,4
1,65,90,0
1,65,87,0
1,60,94,4
1,57,61,0
1,65,99,248
1,60,94,8
1,57,79,4
1,53,26,0
1,65,99,0
1,60,98,4
1,57,70,0
1,57,85,392
1,60,98,4
1,65,94,0
1,53,37,4
1,65,100,0
1,60,97,0
1,57,78,4
1,65,95,248
1,60,97,0
1,57,81,8
1,53,38,4
1,65,100,0
1,60,100,4
1,52,47,368
1,55,88,4
1,60,99,4
1,64,88,0
1,64,76,4
1,60,79,8
1,64,98,192
1,60,101,8
1,55,83,0
1,64,104,4
1,60,97,0
1,55,80,324
1,52,32,0
1,64,91,4
1,60,100,0
1,64,94,36
1,60,88,4
1,64,101,224
1,60,100,8
1,55,83,0
1,52,41,4
1,64,106,0
1,60,103,4
1,55,16,360
1,59,88,8
1,62,98,0
1,67,97,0
1,67,100,0
1,62,99,0
1,59,85,4
1,67,96,188
1,62,96,0
1,59,82,8
1,55,23,4
1,67,101,0
1,62,97,8
1,59,77,0
1,59,95,12
1,57,61,304
1,60,61,0
1,65,35,0
1,65,90,28
1,60,76,0
1,65,100,232
1,60,97,8
1,57,78,4
1,53,16,0
1,65,100,4
1,60,88,8
1,64,44,196
1,52,54,52
1,55,90,8
1,60,98,0
1,64,66,4
1,64,91,0
1,60,84,0
1,55,47,4
1,64,99,208
1,60,94,8
1,55,73,0
1,64,99,0
1,60,93,0
1,55,74,4
1,64,65,284
1,60,91,8
1,55,78,4
1,60,99,0
1,64,67,4
1,64,80,0
1,60,79,4
1,64,87,256
1,55,54,8
1,60,79,4
1,64,90,8
1,60,96,0
1,55,75,4
1,52,60,360
1,55,101,4
1,60,100,4
1,64,103,0
1,48,16,1284
1,52,75,0
1,55,103,4
1,60,101,0
1,64,105,4
1,52,24,1272
1,55,92,0
1,60,100,4
1,64,105,4
1,53,38,2804
1,57,91,0
1,60,100,0
1,65,103,4
1,65,101,4
1,60,94,0
1,65,103,212
1,60,99,8
1,57,79,0
1,53,26,4
1,65,101,4
1,60,100,0
1,53,50,336
1,57,91,4
1,60,99,4
1,65,97,0
1,65,78,4
1,60,87,0
1,65,99,248
1,60,95,8
1,57,71,0
1,53,19,4
1,65,98,0
1,60,99,0
1,53,40,4
1,52,46,360
1,55,89,8
1,60,99,0
1,64,75,4
1,64,96,0
1,60,97,4
1,55,63,0
1,55,87,12
1,64,101,188
1,60,97,8
1,55,78,0
1,52,33,4
1,64,104,0
1,60,99,4
1,52,43,356
1,55,86,4
1,60,96,0
1,64,76,4
1,64,96,12
1,60,87,4
1,64,105,208
1,60,97,8
1,55,85,0
1,52,28,116
1,64,105,4
1,60,101,0
1,55,92,0
1,52,55,4
1,59,86,356
1,62,100,0
1,67,100,8
1,67,101,4
1,62,99,4
1,59,98,8
1,67,100,188
1,62,97,8
1,59,73,0
1,67,101,4
1,62,97,0
1,59,87,0
1,55,21,4
1,57,101,360
1,60,103,4
1,65,98,0
1,65,98,0
1,60,97,4
1,57,81,80
1,65,98,176
1,60,97,8
1,57,66,4
1,65,84,0
1,60,91,0
1,57,67,4
1,48,16,348
1,52,61,4
1,55,74,4
1,60,101,0
1,64,88,4
1,64,87,8
1,60,76,0
1,64,99,208
1,55,70,8
1,60,91,0
1,52,16,116
1,64,97,4
1,60,87,8
1,64,72,172
1,55,80,132
1,64,72,4
1,60,99,0
1,64,81,28
1,64,103,196
1,55,91,4
1,60,104,8
1,52,41,0
1,64,103,228
1,60,99,8
1,55,71,0
1,52,16,4
1,55,99,0
1,60,104,4
1,64,106,0
1,55,90,120
1,60,101,4
1,64,103,0
1,48,16,1292
1,52,75,0
1,55,103,4
1,60,101,0
1,64,105,4
1,52,24,1272
1,55,92,0
1,60,100,4
1,64,105,4
1,53,38,2804
1,57,91,0
1,60,100,0
1,65,90,8
1,65,87,0
1,60,94,4
1,57,61,0
1,65,99,228
1,60,94,8
1,57,79,4
1,53,26,0
1,65,99,0
1,60,98,4
1,57,70,0
1,57,85,392
1,60,98,4
1,65,94,0
1,53,37,4
1,65,100,0
1,60,97,0
1,57,78,4
1,65,95,248
1,60,97,0
1,57,81,8
1,53,38,4
1,65,100,0
1,60,100,4
1,52,47,368
1,55,88,4
1,60,99,4
1,64,88,0
1,64,76,4
1,60,79,8
1,64,98,192
1,60,101,8
1,55,83,0
1,64,104,4
1,60,97,0
1,55,80,324
1,52,32,0
1,64,91,4
1,60,100,0
1,64,94,36
1,60,88,4
1,64,101,224
1,60,100,8
1,55,83,0
1,52,41,4
1,64,106,0
1,60,103,4
1,55,16,360
1,59,88,8
1,62,98,0
1,67,97,0
1,67,100,0
1,62,99,0
1,59,85,4
1,67,96,188
1,62,96,0
1,59,82,8
1,55,23,4
1,67,101,0
1,62,97,8
1,59,77,0
1,59,95,12
1,57,61,304
1,60,61,0
1,65,35,0
1,65,90,28
1,60,76,0
1,65,100,232
1,60,97,8
1,57,78,4
1,53,16,0
1,65,100,4
1,60,88,8
1,64,44,196
1,52,54,52
1,55,90,8
1,60,98,0
1,64,66,4
1,64,91,0
1,60,84,0
1,55,47,4
1,64,99,208
1,60,94,8
1,55,73,0
1,64,99,0
1,60,93,0
1,55,74,4
1,64,65,284
1,60,91,8
1,55,78,4
1,60,99,0
1,64,67,4
1,64,80,0
1,60,79,4
1,64,87,256
1,55,54,8
1,60,79,4
1,64,90,8
1,60,96,0
1,55,75,4
1,52,60,360
1,55,101,4
1,60,100,4
1,64,103,0
1,65,103,5892
1,65,101,12
1,60,94,0
1,65,103,212
1,60,99,8
1,57,79,0
1,53,26,4
1,65,101,4
1,60,100,0
1,53,50,336
1,57,91,4
1,60,99,4
1,65,97,0
1,65,78,4
1,60,87,0
1,65,99,248
1,60,95,8
1,57,71,0
1,53,19,4
1,65,98,0
1,60,99,0
1,53,40,4
1,52,46,360
1,55,89,8
1,60,99,0
1,64,75,4
1,64,96,0
1,60,97,4
1,55,63,0
1,55,87,12
1,64,101,188
1,60,97,8
1,55,78,0
1,52,33,4
1,64,104,0
1,60,99,4
1,52,43,356
1,55,86,4
1,60,96,0
1,64,76,4
1,64,96,12
1,60,87,4
1,64,105,208
1,60,97,8
1,55,85,0
1,52,28,116
1,64,105,4
1,60,101,0
1,55,92,0
1,52,55,4
1,59,86,356
1,62,100,0
1,67,100,8
1,67,101,4
1,62,99,4
1,59,98,8
1,67,100,188
1,62,97,8
1,59,73,0
1,67,101,4
1,62,97,0
1,59,87,0
1,55,21,4
1,57,101,360
1,60,103,4
1,65,98,0
1,65,98,0
1,60,97,4
1,57,81,80
1,65,98,176
1,60,97,8
1,57,66,4
1,65,84,0
1,60,91,0
1,57,67,4
1,48,16,348
1,52,61,4
1,55,74,4
1,60,101,0
1,64,88,4
1,64,87,8
1,60,76,0
1,64,99,208
1,55,70,8
1,60,91,0
1,52,16,116
1,64,97,4
1,60,87,8
1,64,72,172
1,55,80,132
1,64,72,4
1,60,99,0
1,64,81,28
1,64,103,196
1,55,91,4
1,60,104,8
1,52,41,0
1,64,103,228
1,60,99,8
1,55,71,0
1,52,16,4
1,55,99,0
1,60,104,4
1,64,106,0
1,55,90,120
1,60,101,4
1,64,103,0
1,48,16,1292
1,52,75,0
1,55,103,4
1,60,101,0
1,64,105,4
1,52,24,1272
1,55,92,0
1,60,100,4
1,64,105,4
1,53,38,2804
1,57,91,0
1,60,100,0
1,65,103,4
1,65,101,4
1,60,94,0
1,65,103,212
1,60,99,8
1,57,79,0
1,53,26,4
1,65,101,4
1,60,100,0
1,53,50,336
1,57,91,4
1,60,99,4
1,65,97,0
1,65,78,4
1,60,87,0
1,65,99,248
1,60,95,8
1,57,71,0
1,53,19,4
1,65,98,0
1,60,99,0
1,53,40,4
1,52,46,360
1,55,89,8
1,60,99,0
1,64,75,4
1,64,96,0
1,60,97,4
1,55,63,0
1,55,87,12
1,64,101,188
1,60,97,8
1,55,78,0
1,52,33,4
1,64,104,0
1,60,99,4
1,52,43,356
1,55,86,4
1,60,96,0
1,64,76,4
1,64,96,12
1,60,87,4
1,64,105,208
1,60,97,8
1,55,85,0
1,52,28,116
1,64,105,4
1,60,101,0
1,55,92,0
1,52,55,4
1,59,86,356
1,62,100,0
1,67,100,8
1,67,101,4
1,62,99,4
1,59,98,8
1,67,100,188
1,62,97,8
1,59,73,0
1,67,101,4
1,62,97,0
1,59,87,0
1,55,21,4
1,57,101,360
1,60,103,4
1,65,98,0
1,65,98,0
1,60,97,4
1,57,81,80
1,65,98,176
1,60,97,8
1,57,66,4
1,65,84,0
1,60,91,0
1,57,67,4
1,48,16,348
1,52,61,4
1,55,74,4
1,60,101,0
1,64,88,4
1,64,87,8
1,60,76,0
1,64,99,208
1,55,70,8
1,60,91,0
1,52,16,116
1,64,97,4
1,60,87,8
1,64,72,172
1,55,80,132
1,64,72,4
1,60,99,0
1,64,81,28
1,64,103,196
1,55,91,4
1,60,104,8
1,52,41,0
1,64,103,228
1,60,99,8
1,55,71,0
1,52,16,4
1,55,99,0
1,60,104,4
1,64,106,0
1,59,100,120
1,62,100,0
1,67,100,0
1,67,101,4
1,62,99,8
1,59,98,128
1,67,100,188
1,62,97,8
1,59,73,0
1,67,101,4
1,62,97,0
1,59,87,0
1,55,21,4
1,57,101,360
1,60,103,4
1,65,98,0
1,65,98,0
1,60,97,4
1,57,81,80
1,65,98,176
1,60,97,8
1,57,66,4
1,65,84,0
1,60,91,0
1,57,67,4
1,59,100,356
1,62,100,0
1,67,100,0
1,67,101,4
1,62,99,8
1,59,98,128
1,67,100,188
1,62,97,8
1,59,73,0
1,67,101,4
1,62,97,0
1,59,87,0
1,55,21,4
1,60,105,384
1,60,83,32
1,58,106,52
1,58,87,24
1,57,80,4
1,57,109,40
1,57,83,28
1,56,105,92
1,56,83,40
1,55,105,40
1,64,96,1912
1,72,87,0
1,67,92,16
2,36,89,4188
2,36,91,1300
2,36,94,1300
2,41,81,2836
2,45,79,52
2,48,81,52
2,45,89,52
2,41,77,52
2,45,86,52
2,48,64,52
2,51,73,52
2,36,89,52
2,40,73,52
2,43,79,52
2,45,66,52
2,48,73,52
2,45,81,52
2,43,77,52
2,40,61,52
2,43,77,52
2,47,77,52
2,50,73,52
2,52,71,52
2,41,77,52
2,45,57,52
2,48,67,52
2,50,64,52
2,36,67,52
2,40,52,52
2,43,67,52
2,45,63,52
2,48,54,52
2,45,69,52
2,43,75,52
2,40,77,52
2,36,73,52
2,36,83,1300
2,36,86,1300
2,41,79,2836
2,45,81,52
2,48,73,52
2,45,86,52
2,41,86,52
2,45,81,52
2,48,79,52
2,51,59,52
2,36,73,52
2,40,73,52
2,43,73,52
2,45,61,52
2,48,69,52
2,45,75,52
2,43,71,52
2,40,56,52
2,43,81,52
2,47,69,52
2,50,73,52
2,52,83,52
2,41,86,52
2,45,64,52
2,48,75,52
2,50,71,52
2,36,71,52
2,40,60,52
2,43,79,52
2,45,67,52
2,48,63,52
2,45,69,52
2,43,81,52
2,40,77,52
2,36,81,52
2,41,81,5812
2,45,79,52
2,48,81,52
2,45,89,52
2,41,77,52
2,45,86,52
2,48,64,52
2,51,73,52
2,36,89,52
2,40,73,52
2,43,79,52
2,45,66,52
2,48,73,52
2,45,81,52
2,43,77,52
2,40,61,52
2,43,77,52
2,47,77,52
2,50,73,52
2,52,71,52
2,41,77,52
2,45,57,52
2,48,67,52
2,50,64,52
2,36,67,52
2,40,52,52
2,43,67,52
2,45,63,52
2,48,54,52
2,45,69,52
2,43,75,52
2,40,77,52
2,36,89,52
2,36,91,1300
2,36,94,1300
2,41,81,2836
2,45,79,52
2,48,81,52
2,45,89,52
2,41,77,52
2,45,86,52
2,48,64,52
2,51,73,52
2,36,89,52
2,40,73,52
2,43,79,52
2,45,66,52
2,48,73,52
2,45,81,52
2,43,77,52
2,40,61,52
2,43,77,52
2,45,77,52
2,46,73,52
2,46,71,52
2,41,77,52
2,43,57,52
2,44,67,52
2,44,64,52
2,36,67,52
2,40,52,52
2,43,67,52
2,45,63,52
2,48,54,52
2,45,69,52
2,43,75,52
2,40,77,52
2,36,73,52
2,36,83,1300
2,36,86,1300
2,41,79,2836
2,45,81,52
2,48,73,52
2,45,86,52
2,41,86,52
2,45,81,52
2,48,79,52
2,51,59,52
2,36,73,52
