track,note,velocity,time
1,70,120,4320
1,70,0,240
1,72,120,0
1,72,0,120
1,74,120,0
1,74,0,80
1,69,120,0
1,69,0,280
1,70,120,0
1,70,0,120
1,72,120,0
1,72,0,80
1,67,120,0
1,67,0,120
1,67,120,0
1,67,0,800
1,69,121,80
1,69,0,240
1,70,121,0
1,70,0,120
1,72,121,0
1,72,0,80
1,67,121,0
1,67,0,280
1,69,121,0
1,69,0,120
1,67,121,0
1,67,0,80
1,65,121,0
1,65,0,880
1,62,121,120
1,62,0,240
1,63,121,0
1,63,0,120
1,65,121,0
1,65,0,120
1,68,121,0
1,68,0,80
1,67,121,0
1,67,0,200
1,62,105,20
1,62,0,89
1,61,77,1
1,61,0,29
1,62,105,1
1,62,0,59
1,65,124,1
1,65,0,80
1,63,121,0
1,63,0,760
1,67,121,120
1,67,0,240
1,69,121,0
1,69,0,120
1,70,121,0
1,70,0,80
1,74,121,0
1,74,0,360
1,72,121,0
1,72,0,80
1,70,121,0
1,70,0,80
1,72,121,0
1,72,0,880
1,70,122,80
1,70,0,240
1,72,122,0
1,72,0,120
1,74,122,0
1,74,0,80
1,69,122,0
1,69,0,280
1,70,122,0
1,70,0,120
1,72,122,0
1,72,0,80
1,67,122,0
1,67,0,120
1,67,122,0
1,67,0,760
1,69,122,120
1,69,0,240
1,70,122,0
1,70,0,120
1,72,122,0
1,72,0,80
1,67,122,0
1,67,0,280
1,69,122,0
1,69,0,120
1,67,122,0
1,67,0,80
1,65,122,0
1,65,0,987
1,62,122,13
1,62,0,240
1,63,122,0
1,63,0,120
1,65,122,0
1,65,0,120
1,68,120,0
1,68,0,80
1,67,121,0
1,67,0,200
1,65,124,40
1,65,0,80
1,64,125,0
1,64,0,39
1,65,126,1
1,65,0,35
1,77,127,5
1,77,0,239
1,77,123,1
1,77,0,120
1,76,123,0
1,76,0,80
1,75,123,0
1,75,0,240
1,70,123,40
1,70,0,120
1,72,123,0
1,72,0,120
1,74,123,0
1,74,0,320
1,72,123,0
1,72,0,80
1,70,123,0
1,70,0,80
1,74,123,0
1,74,0,240
1,74,123,0
1,74,0,240
1,70,123,0
1,70,0,920
1,70,122,7720
1,70,0,240
1,72,122,0
1,72,0,120
1,74,122,0
1,74,0,80
1,69,122,0
1,69,0,280
1,70,122,0
1,70,0,120
1,72,122,0
1,72,0,80
1,67,122,0
1,67,0,120
1,67,122,0
1,67,0,760
1,69,122,120
1,69,0,240
1,70,122,0
1,70,0,120
1,72,122,0
1,72,0,80
1,67,122,0
1,67,0,280
1,69,122,0
1,69,0,120
1,67,122,0
1,67,0,80
1,65,122,0
1,65,0,987
1,62,122,13
1,62,0,240
1,63,122,0
1,63,0,120
1,65,122,0
1,65,0,120
1,68,120,0
1,68,0,80
1,67,121,0
1,67,0,200
1,65,124,40
1,65,0,80
1,64,125,0
1,64,0,39
1,65,126,1
1,65,0,35
1,77,127,5
1,77,0,239
1,77,123,1
1,77,0,120
1,76,123,0
1,76,0,80
1,75,123,0
1,75,0,240
1,70,123,40
1,70,0,120
1,72,123,0
1,72,0,120
1,74,123,0
1,74,0,320
1,72,123,0
1,72,0,80
1,70,123,0
1,70,0,80
1,74,123,0
1,74,0,240
1,74,123,0
1,74,0,240
1,70,123,0
1,70,0,920
1,62,120,40
1,62,0,240
1,63,120,0
1,63,0,120
1,65,120,0
1,65,0,120
1,68,120,0
1,68,0,80
1,67,120,0
1,67,0,200
1,65,121,40
1,65,0,80
1,64,121,0
1,64,0,40
1,65,121,0
1,65,0,40
1,77,121,0
1,77,0,240
1,77,122,0
1,77,0,120
1,76,122,0
1,76,0,80
1,75,122,0
1,75,0,360
1,70,123,0
1,70,0,80
1,72,123,0
1,72,0,80
1,74,123,0
1,74,0,320
1,72,123,0
1,72,0,80
1,70,123,0
1,70,0,80
1,74,124,0
1,74,0,239
1,74,124,1
1,74,0,240
1,70,124,0
1,70,0,1200
2,43,120,480
2,43,0,240
2,50,120,0
2,50,0,240
2,43,120,0
2,43,0,240
2,50,120,0
2,50,0,240
2,48,120,0
2,48,0,240
2,43,120,0
2,43,0,240
2,39,120,0
2,39,0,240
2,46,120,0
2,46,0,240
2,41,120,0
2,41,0,240
2,41,120,0
2,41,0,240
2,41,120,0
2,41,0,240
2,41,120,0
2,41,0,240
2,46,120,0
2,46,0,240
2,41,120,0
2,41,0,240
2,46,120,0
2,46,0,239
2,41,120,1
2,41,0,239
2,46,120,1
2,46,0,240
2,41,120,0
2,41,0,240
2,46,120,0
2,46,0,240
2,41,120,0
2,41,0,240
2,39,120,0
2,39,0,240
2,46,120,0
2,46,0,240
2,39,120,0
2,39,0,240
2,46,120,0
2,46,0,240
2,41,120,0
2,41,0,240
2,48,120,0
2,48,0,240
2,41,120,0
2,41,0,240
2,48,120,0
2,48,0,240
2,46,120,0
2,46,0,240
2,41,121,0
2,41,0,239
2,46,121,1
2,46,0,240
2,45,121,0
2,45,0,120
2,44,121,0
2,44,0,120
2,43,121,0
2,43,0,240
2,50,121,0
2,50,0,240
2,43,121,0
2,43,0,240
2,50,121,0
2,50,0,240
2,48,121,0
2,48,0,240
2,43,121,0
2,43,0,240
2,48,121,0
2,48,0,240
2,43,121,0
2,43,0,240
2,48,121,0
2,48,0,240
2,43,121,0
2,43,0,240
2,48,121,0
2,48,0,240
2,43,121,0
2,43,0,240
2,41,121,0
2,41,0,240
2,48,121,0
2,48,0,240
2,41,121,0
2,41,0,240
2,48,121,0
2,48,0,239
2,46,121,1
2,46,0,240
2,41,121,0
2,41,0,240
2,46,121,0
2,46,0,240
2,41,121,0
2,41,0,240
2,39,121,0
2,39,0,240
2,46,121,0
2,46,0,240
2,39,121,0
2,39,0,240
2,46,121,0
2,46,0,239
2,41,121,1
2,41,0,240
2,48,121,0
2,48,0,240
2,41,121,0
2,41,0,240
2,48,122,0
2,48,0,240
2,46,122,0
2,46,0,240
2,41,122,0
2,41,0,240
2,46,122,0
2,46,0,240
2,45,122,0
2,45,0,120
2,44,122,0
2,44,0,120
2,43,122,0
2,43,0,240
2,50,122,0
2,50,0,240
2,43,122,0
2,43,0,240
2,50,122,0
2,50,0,240
2,48,122,0
2,48,0,240
2,43,122,0
2,43,0,240
2,39,122,0
2,39,0,240
2,46,122,0
2,46,0,240
2,41,122,0
2,41,0,240
2,41,122,0
2,41,0,240
2,41,122,0
2,41,0,240
2,41,122,0
2,41,0,240
2,46,122,0
2,46,0,240
2,41,122,0
2,41,0,240
2,46,122,0
2,46,0,239
2,41,122,1
2,41,0,239
2,46,120,1
2,46,0,240
2,41,120,0
2,41,0,240
2,46,120,0
2,46,0,240
2,41,120,0
2,41,0,240
2,39,120,0
2,39,0,240
2,46,120,0
2,46,0,240
2,39,120,0
2,39,0,240
2,46,120,0
2,46,0,240
2,41,120,0
2,41,0,240
2,48,120,0
2,48,0,240
2,41,120,0
2,41,0,240
2,48,120,0
2,48,0,240
2,46,120,0
2,46,0,240
2,41,121,0
2,41,0,239
2,46,121,1
2,46,0,240
2,45,121,0
2,45,0,120
2,44,121,0
2,44,0,120
2,43,121,0
2,43,0,240
2,50,121,0
2,50,0,240
2,43,121,0
2,43,0,240
2,50,121,0
2,50,0,240
2,48,121,0
2,48,0,240
2,43,121,0
2,43,0,240
2,48,121,0
2,48,0,240
2,43,121,0
2,43,0,240
2,48,121,0
2,48,0,240
2,43,121,0
2,43,0,240
2,48,121,0
2,48,0,240
2,43,121,0
2,43,0,240
2,41,121,0
2,41,0,240
2,48,121,0
2,48,0,240
2,41,121,0
2,41,0,240
2,48,121,0
2,48,0,239
2,46,121,1
2,46,0,240
2,41,121,0
2,41,0,240
2,46,121,0
2,46,0,240
2,41,121,0
2,41,0,240
2,39,121,0
2,39,0,240
2,46,121,0
2,46,0,240
2,39,121,0
2,39,0,240
2,46,121,0
2,46,0,239
2,41,121,1
2,41,0,240
2,48,121,0
2,48,0,240
2,41,121,0
2,41,0,240
2,48,122,0
2,48,0,240
2,46,122,0
2,46,0,240
2,41,122,0
2,41,0,240
2,46,122,0
2,46,0,240
2,45,122,0
2,45,0,120
2,44,122,0
2,44,0,120
2,43,122,0
2,43,0,240
2,50,122,0
2,50,0,240
2,43,122,0
2,43,0,240
2,50,122,0
2,50,0,240
2,48,122,0
2,48,0,240
2,43,122,0
2,43,0,240
2,39,122,0
2,39,0,240
2,46,122,0
2,46,0,240
2,41,122,0
2,41,0,240
2,41,122,0
2,41,0,240
2,41,122,0
2,41,0,240
2,41,122,0
2,41,0,240
2,46,122,0
2,46,0,240
2,41,122,0
2,41,0,240
2,46,122,0
2,46,0,239
2,45,105,1
2,45,0,120
2,44,99,0
2,44,0,120
2,43,122,0
2,43,0,240
2,50,122,0
2,50,0,240
2,43,122,0
2,43,0,240
2,50,122,0
2,50,0,240
2,48,122,0
2,48,0,240
2,43,122,0
2,43,0,240
2,39,122,0
2,39,0,240
2,46,122,0
2,46,0,240
2,41,122,0
2,41,0,240
2,41,122,0
2,41,0,240
2,41,122,0
2,41,0,240
2,41,122,0
2,41,0,240
2,46,122,0
2,46,0,240
2,41,122,0
2,41,0,240
2,46,122,0
2,46,0,120
2,41,107,0
2,41,0,120
2,34,110,0
2,34,0,480
3,74,100,2160
3,86,100,0
3,86,0,120
3,74,0,0
3,75,101,0
3,87,101,0
3,87,0,120
3,75,0,0
3,89,103,0
3,77,103,0
3,77,0,320
3,89,0,0
3,75,107,0
3,87,107,0
3,87,0,80
3,75,0,0
3,86,108,0
3,74,108,0
3,74,0,80
3,86,0,0
3,89,109,0
3,77,109,0
3,77,0,240
3,89,0,0
3,89,112,0
3,77,112,0
3,77,0,239
3,89,0,0
3,74,95,1
3,86,100,0
3,86,0,120
3,74,0,0
3,74,127,0
3,82,100,0
3,94,100,0
3,94,0,120
3,82,0,0
3,74,0,0
3,81,102,0
3,72,102,0
3,93,102,0
3,93,0,120
3,72,0,0
3,81,0,0
3,79,104,0
3,70,104,0
3,91,104,0
3,91,0,120
3,70,0,0
3,79,0,0
3,77,107,0
3,69,107,0
3,89,107,0
3,89,0,120
3,69,0,0
3,77,0,0
3,67,109,0
3,75,109,0
3,87,109,0
3,87,0,120
3,75,0,0
3,67,0,0
3,74,112,0
3,65,112,0
3,86,112,0
3,86,0,120
3,65,0,0
3,74,0,0
3,63,114,0
3,72,114,0
3,84,114,0
3,84,0,120
3,72,0,0
3,63,0,0
3,70,117,0
3,62,117,0
3,82,117,0
3,82,0,6
3,62,0,0
3,70,0,0
3,50,112,6600
3,89,112,0
3,93,112,0
3,93,0,40
3,89,0,0
3,50,0,0
3,51,112,0
3,88,112,0
3,92,112,0
3,92,0,40
3,88,0,0
3,51,0,0
3,52,112,0
3,87,112,0
3,91,112,0
3,91,0,40
3,87,0,0
3,52,0,0
3,53,112,0
3,86,112,0
3,90,112,0
3,90,0,40
3,86,0,0
3,53,0,0
3,54,112,0
3,85,112,0
3,89,112,0
3,89,0,40
3,85,0,0
3,54,0,0
3,55,113,0
3,84,113,0
3,88,113,0
3,88,0,40
3,84,0,0
3,55,0,0
3,56,113,0
3,83,113,0
3,87,113,0
3,87,0,40
3,83,0,0
3,56,0,0
3,57,113,0
3,82,113,0
3,86,113,0
3,86,0,40
3,82,0,0
3,57,0,0
3,58,113,0
3,81,113,0
3,85,113,0
3,85,0,40
3,81,0,0
3,58,0,0
3,59,113,0
3,80,113,0
3,84,113,0
3,84,0,40
3,80,0,0
3,59,0,0
3,60,113,0
3,79,113,0
3,83,113,0
3,83,0,40
3,79,0,0
3,60,0,0
3,61,113,0
3,78,113,0
3,81,113,0
3,81,0,40
3,78,0,0
3,61,0,0
3,62,113,0
3,82,113,0
3,77,113,0
3,77,0,480
3,82,0,0
3,62,0,0
3,81,114,0
3,77,114,0
3,60,114,0
3,60,0,480
3,77,0,0
3,81,0,0
3,58,115,0
3,79,115,0
3,75,115,0
3,75,0,3
3,79,0,0
3,58,0,0
3,94,100,960
3,70,100,0
3,70,0,120
3,94,0,0
3,93,104,0
3,69,104,0
3,69,0,120
3,93,0,0
3,86,108,0
3,62,108,0
3,62,0,80
3,86,0,0
3,89,110,0
3,65,110,0
3,89,0,440
3,65,0,40
3,74,100,1720
3,86,100,0
3,86,0,120
3,74,0,0
3,75,101,0
3,87,101,0
3,87,0,120
3,75,0,0
3,89,103,0
3,77,103,0
3,77,0,320
3,89,0,0
3,75,107,0
3,87,107,0
3,87,0,80
3,75,0,0
3,86,108,0
3,74,108,0
3,74,0,80
3,86,0,0
3,89,109,0
3,77,109,0
3,77,0,240
3,89,0,0
3,89,112,0
3,77,112,0
3,77,0,200
3,89,0,0
3,86,115,0
3,74,115,0
3,74,0,160
3,86,0,0
3,94,127,0
3,86,127,0
3,82,127,0
3,82,0,120
3,86,0,0
3,94,0,0
3,81,120,0
3,84,120,0
3,93,120,0
3,93,0,120
3,84,0,0
3,81,0,0
3,82,121,0
3,79,121,0
3,91,121,0
3,91,0,120
3,79,0,0
3,82,0,0
3,77,121,0
3,81,121,0
3,89,121,0
3,89,0,120
3,81,0,0
3,77,0,0
3,79,122,0
3,75,122,0
3,87,122,0
3,87,0,120
3,75,0,0
3,79,0,0
3,74,123,0
3,77,123,0
3,86,123,0
3,86,0,120
3,77,0,0
3,74,0,0
3,75,123,0
3,72,123,0
3,84,123,0
3,84,0,120
3,72,0,0
3,75,0,0
3,74,124,0
3,70,124,0
3,82,124,0
3,82,0,46
3,70,0,0
3,74,0,0
3,93,112,6600
3,50,112,0
3,89,112,0
3,89,0,40
3,50,0,0
3,93,0,0
3,92,112,0
3,51,112,0
3,88,112,0
3,88,0,40
3,51,0,0
3,92,0,0
3,91,112,0
3,52,112,0
3,87,112,0
3,87,0,40
3,52,0,0
3,91,0,0
3,90,112,0
3,53,112,0
3,86,112,0
3,86,0,40
3,53,0,0
3,90,0,0
3,89,112,0
3,54,112,0
3,85,112,0
3,85,0,40
3,54,0,0
3,89,0,0
3,88,113,0
3,55,113,0
3,84,113,0
3,84,0,40
3,55,0,0
3,88,0,0
3,87,113,0
3,56,113,0
3,83,113,0
3,83,0,40
3,56,0,0
3,87,0,0
3,86,113,0
3,57,113,0
3,82,113,0
3,82,0,40
3,57,0,0
3,86,0,0
3,85,113,0
3,58,113,0
3,81,113,0
3,81,0,40
3,58,0,0
3,85,0,0
3,84,113,0
3,59,113,0
3,80,113,0
3,80,0,40
3,59,0,0
3,84,0,0
3,83,113,0
3,60,113,0
3,79,113,0
3,79,0,40
3,60,0,0
3,83,0,0
3,81,113,0
3,61,113,0
3,78,113,0
3,78,0,40
3,61,0,0
3,81,0,0
3,82,113,0
3,62,113,0
3,77,113,0
3,77,0,480
3,62,0,0
3,82,0,0
3,81,114,0
3,77,114,0
3,60,114,0
3,60,0,480
3,77,0,0
3,81,0,0
3,58,115,0
3,79,115,0
3,75,115,0
3,75,0,3
3,79,0,0
3,58,0,0
3,70,100,960
3,94,100,0
3,94,0,120
3,70,0,0
3,69,104,0
3,93,104,0
3,93,0,120
3,69,0,0
3,62,108,0
3,86,108,0
3,86,0,80
3,62,0,0
3,65,110,0
3,89,110,0
3,89,0,440
3,65,0,40
3,74,100,1720
3,86,100,0
3,86,0,120
3,74,0,0
3,75,101,0
3,87,101,0
3,87,0,120
3,75,0,0
3,89,103,0
3,77,103,0
3,77,0,320
3,89,0,0
3,75,107,0
3,87,107,0
3,87,0,80
3,75,0,0
3,86,108,0
3,74,108,0
3,74,0,80
3,86,0,0
3,89,109,0
3,77,109,0
3,77,0,240
3,89,0,0
3,89,112,0
3,77,112,0
3,77,0,200
3,89,0,0
3,86,115,0
3,74,115,0
3,74,0,560
3,86,0,0
3,58,95,80
3,70,112,0
3,74,105,0
3,74,0,40
3,70,0,0
3,58,0,0
3,59,105,0
3,71,99,0
3,75,99,0
3,75,0,40
3,71,0,0
3,59,0,0
3,60,101,0
3,72,105,0
3,76,105,0
3,76,0,40
3,72,0,0
3,60,0,0
3,61,93,0
3,73,110,0
