track,note,velocity,time
3,34,84,1312
3,34,0,146
3,34,72,34
3,34,0,22
3,34,86,38
3,34,0,224
3,34,81,16
3,34,0,154
3,34,80,26
3,34,0,16
3,34,86,44
3,29,74,180
3,34,0,3
3,29,0,46
3,34,84,11
3,34,0,146
3,34,72,34
3,34,0,22
3,34,86,38
3,34,0,224
3,34,81,16
3,34,0,154
3,34,80,26
3,34,0,16
3,34,86,44
3,29,74,180
3,34,0,3
3,29,0,46
3,34,85,11
3,34,0,152
3,34,66,28
3,34,0,28
3,34,80,32
3,34,0,213
3,34,90,27
3,34,0,163
3,34,68,17
3,34,0,28
3,34,91,32
3,34,0,221
3,41,85,19
3,41,0,152
3,41,66,28
3,41,0,28
3,41,80,32
3,41,0,213
3,41,90,27
3,41,0,163
3,41,68,17
3,41,0,28
3,41,91,32
3,41,0,221
3,41,85,19
3,41,0,152
3,41,66,28
3,41,0,28
3,41,80,32
3,41,0,213
3,41,90,27
3,41,0,163
3,41,68,17
3,41,0,28
3,41,91,32
3,41,0,221
3,34,85,19
3,34,0,152
3,34,66,28
3,34,0,28
3,34,80,32
3,34,0,213
3,34,90,27
3,34,0,163
3,34,68,17
3,34,0,28
3,34,91,32
3,34,0,221
3,39,82,21
3,39,0,145
3,39,85,33
3,39,0,22
3,39,75,35
3,39,0,231
3,41,82,14
3,41,0,145
3,41,85,33
3,41,0,22
3,41,75,35
3,41,0,231
3,38,85,12
3,38,0,154
3,38,82,26
3,38,0,29
3,38,73,31
3,38,0,213
3,38,79,27
3,38,0,160
3,38,71,20
3,38,0,28
3,38,93,32
3,38,0,240
3,39,82,2
3,39,0,145
3,39,85,33
3,39,0,22
3,39,75,35
3,39,0,231
3,41,82,14
3,41,0,145
3,41,85,33
3,41,0,22
3,41,75,35
3,41,0,231
3,34,85,12
3,34,0,154
3,34,82,26
3,34,0,29
3,34,73,31
3,34,0,213
3,34,79,27
3,34,0,160
3,34,71,20
3,34,0,28
3,34,93,32
3,34,0,240
3,34,85,0
3,34,0,154
3,34,82,26
3,34,0,29
3,34,73,31
3,34,0,213
3,34,79,27
3,34,0,160
3,34,71,20
3,34,0,28
3,34,93,32
3,34,0,240
3,41,85,0
3,41,0,152
3,41,66,28
3,41,0,28
3,41,80,32
3,41,0,213
3,41,90,27
3,41,0,163
3,41,68,17
3,41,0,28
3,41,91,32
3,41,0,221
3,41,85,19
3,41,0,152
3,41,66,28
3,41,0,28
3,41,80,32
3,41,0,213
3,41,90,27
3,41,0,163
3,41,68,17
3,41,0,28
3,41,91,32
3,41,0,221
3,34,85,19
3,34,0,154
3,34,82,26
3,34,0,29
3,34,73,31
3,34,0,213
3,34,79,27
3,34,0,160
3,34,71,20
3,34,0,28
3,34,93,32
3,34,0,240
3,39,85,0
3,39,0,154
3,39,82,26
3,39,0,29
3,39,73,31
3,39,0,213
3,41,85,27
3,41,0,154
3,41,82,26
3,41,0,29
3,41,73,31
3,41,0,213
3,38,85,27
3,38,0,154
3,38,82,26
3,38,0,29
3,38,73,31
3,38,0,213
3,38,79,27
3,38,0,160
3,38,71,20
3,38,0,28
3,38,93,32
3,38,0,240
3,39,82,2
3,39,0,145
3,39,85,33
3,39,0,22
3,39,75,35
3,39,0,231
3,41,82,14
3,41,0,145
3,41,85,33
3,41,0,22
3,41,75,35
3,41,0,231
3,34,85,12
3,34,0,154
3,34,82,26
3,34,0,29
3,34,73,31
3,34,0,213
3,34,79,27
3,34,0,160
3,34,71,20
3,34,0,28
3,34,93,32
3,34,0,240
3,36,85,0
3,36,0,154
3,36,82,26
3,36,0,29
3,36,73,31
3,36,0,213
3,32,85,27
3,32,0,154
3,32,82,26
3,32,0,29
3,32,73,31
3,32,0,213
3,31,85,27
3,31,0,152
3,31,66,28
3,31,0,28
3,31,80,32
3,31,0,213
3,31,90,27
3,31,0,163
3,31,68,17
3,31,0,28
3,31,91,32
3,31,0,221
3,36,85,19
3,36,0,154
3,36,82,26
3,36,0,29
3,36,73,31
3,36,0,213
3,32,82,29
3,32,0,145
3,32,85,33
3,32,0,22
3,32,75,35
3,32,0,231
3,38,85,12
3,38,0,154
3,38,82,26
3,38,0,29
3,38,73,31
3,38,0,213
3,41,82,29
3,41,0,145
3,41,85,33
3,41,0,22
3,41,75,35
3,41,0,231
3,33,85,12
3,33,0,154
3,33,82,26
3,33,0,29
3,33,73,31
3,33,0,213
3,33,79,27
3,33,0,160
3,33,71,20
3,33,0,28
3,33,93,32
3,33,0,240
3,40,85,0
3,40,0,152
3,40,66,28
3,40,0,28
3,40,80,32
3,40,0,213
3,40,90,27
3,40,0,163
3,40,68,17
3,40,0,28
3,40,91,32
3,40,0,221
3,40,85,19
3,40,0,154
3,40,82,26
3,40,0,29
3,40,73,31
3,40,0,213
3,40,79,27
3,40,0,160
3,40,71,20
3,40,0,28
3,40,93,32
3,40,0,240
3,33,85,0
3,33,0,154
3,33,82,26
3,33,0,29
3,33,73,31
3,33,0,213
3,33,79,27
3,33,0,160
3,33,71,20
3,33,0,28
3,33,93,32
3,33,0,240
3,38,85,0
3,38,0,154
3,38,82,26
3,38,0,29
3,38,73,31
3,38,0,213
3,40,85,27
3,40,0,154
3,40,82,26
3,40,0,29
3,40,73,31
3,40,0,213
3,37,85,27
3,37,0,152
3,37,66,28
3,37,0,28
3,37,80,32
3,37,0,213
3,37,90,27
3,37,0,163
3,37,68,17
3,37,0,28
3,37,91,32
3,37,0,221
3,38,85,19
3,38,0,154
3,38,82,26
3,38,0,29
3,38,73,31
3,38,0,213
3,40,85,27
3,40,0,154
3,40,82,26
3,40,0,29
3,40,73,31
3,40,0,213
3,33,85,27
3,33,0,152
3,33,66,28
3,33,0,28
3,33,80,32
3,33,0,213
3,33,90,27
3,33,0,163
3,33,68,17
3,33,0,28
3,33,91,32
3,33,0,221
3,33,84,19
3,33,0,146
3,33,72,34
3,33,0,22
3,33,86,38
3,33,0,224
3,33,81,16
3,33,0,154
3,33,80,26
3,33,0,16
3,33,86,44
3,28,74,180
3,33,0,3
3,28,0,46
3,33,85,11
3,33,0,152
3,33,66,28
3,33,0,28
3,33,80,32
3,33,0,213
3,33,90,27
3,33,0,163
3,33,68,17
3,33,0,28
3,33,91,32
3,33,0,221
3,40,85,19
3,40,0,154
3,40,82,26
3,40,0,29
3,40,73,31
3,40,0,213
3,40,79,27
3,40,0,160
3,40,71,20
3,40,0,28
3,40,93,32
3,40,0,240
3,40,85,0
3,40,0,152
3,40,66,28
3,40,0,28
3,40,80,32
3,40,0,213
3,40,90,27
3,40,0,163
3,40,68,17
3,40,0,28
3,40,91,32
3,40,0,221
3,33,85,19
3,33,0,152
3,33,66,28
3,33,0,28
3,33,80,32
3,33,0,213
3,33,90,27
3,33,0,163
3,33,68,17
3,33,0,28
3,33,91,32
3,33,0,221
3,38,82,21
3,38,0,145
3,38,85,33
3,38,0,22
3,38,75,35
3,38,0,231
3,40,85,12
3,40,0,154
3,40,82,26
3,40,0,29
3,40,73,31
3,40,0,213
3,37,85,27
3,37,0,152
3,37,66,28
3,37,0,28
3,37,80,32
3,37,0,213
3,37,90,27
3,37,0,163
3,37,68,17
3,37,0,28
3,37,91,32
3,37,0,221
3,38,82,21
3,38,0,145
3,38,85,33
3,38,0,22
3,38,75,35
3,38,0,231
3,40,82,14
3,40,0,145
3,40,85,33
3,40,0,22
3,40,75,35
3,40,0,231
3,33,85,12
3,33,0,152
3,33,66,28
3,33,0,28
3,33,80,32
3,33,0,213
3,33,90,27
3,33,0,163
3,33,68,17
3,33,0,28
3,33,91,32
3,33,0,221
3,33,85,19
3,33,0,154
3,33,82,26
3,33,0,29
3,33,73,31
3,33,0,213
3,33,79,27
3,33,0,160
3,33,71,20
3,33,0,28
3,33,93,32
3,33,0,240
3,40,85,0
3,40,0,152
3,40,66,28
3,40,0,28
3,40,80,32
3,40,0,213
3,40,90,27
3,40,0,163
3,40,68,17
3,40,0,28
3,40,91,32
3,40,0,221
3,40,85,19
3,40,0,154
3,40,82,26
3,40,0,29
3,40,73,31
3,40,0,213
3,40,79,27
3,40,0,160
3,40,71,20
3,40,0,28
3,40,93,32
3,40,0,240
3,33,85,0
3,33,0,152
3,33,66,28
3,33,0,28
3,33,80,32
3,33,0,213
3,33,90,27
3,33,0,163
3,33,68,17
3,33,0,28
3,33,91,32
3,33,0,221
3,38,85,19
3,38,0,154
3,38,82,26
3,38,0,29
3,38,73,31
3,38,0,213
3,40,82,29
3,40,0,145
3,40,85,33
3,40,0,22
3,40,75,35
3,40,0,231
3,37,85,12
3,37,0,152
3,37,66,28
3,37,0,28
3,37,80,32
3,37,0,213
3,37,90,27
3,37,0,163
3,37,68,17
3,37,0,28
3,37,91,32
3,37,0,221
3,38,82,21
3,38,0,145
3,38,85,33
3,38,0,22
3,38,75,35
3,38,0,231
3,40,85,12
3,40,0,154
3,40,82,26
3,40,0,29
3,40,73,31
3,40,0,213
3,33,85,27
3,33,0,154
3,33,82,26
3,33,0,29
3,33,73,31
3,33,0,213
3,33,79,27
3,33,0,160
3,33,71,20
3,33,0,28
3,33,93,32
3,33,0,240
3,35,82,2
3,35,0,145
3,35,85,33
3,35,0,22
3,35,75,35
3,35,0,231
3,31,82,14
3,31,0,145
3,31,85,33
3,31,0,22
3,31,75,35
3,31,0,231
3,30,85,12
3,30,0,154
3,30,82,26
3,30,0,29
3,30,73,31
3,30,0,213
3,30,79,27
3,30,0,160
3,30,71,20
3,30,0,28
3,30,93,32
3,30,0,240
3,35,85,0
3,35,0,154
3,35,82,26
3,35,0,29
3,35,73,31
3,35,0,213
3,31,82,29
3,31,0,145
3,31,85,33
3,31,0,22
3,31,75,35
3,31,0,231
3,37,82,14
3,37,0,145
3,37,85,33
3,37,0,22
3,37,75,35
3,37,0,231
3,40,82,14
3,40,0,145
3,40,85,33
3,40,0,22
3,40,75,35
3,40,0,231
3,33,85,12
3,33,0,152
3,33,66,28
3,33,0,28
3,33,80,32
3,33,0,213
3,33,90,27
3,33,0,163
3,33,68,17
3,33,0,28
3,33,91,32
3,33,0,221
3,40,85,19
3,40,0,152
3,40,66,28
3,40,0,28
3,40,80,32
3,40,0,213
3,40,90,27
3,40,0,163
3,40,68,17
3,40,0,28
3,40,91,32
3,40,0,221
3,40,85,19
3,40,0,152
3,40,66,28
3,40,0,28
3,40,80,32
3,40,0,213
3,40,90,27
3,40,0,163
3,40,68,17
3,40,0,28
3,40,91,32
3,40,0,221
3,33,85,19
3,33,0,154
3,33,82,26
3,33,0,29
3,33,73,31
3,33,0,213
3,33,79,27
3,33,0,160
3,33,71,20
3,33,0,28
3,33,93,32
3,33,0,240
3,38,82,2
3,38,0,145
3,38,85,33
3,38,0,22
3,38,75,35
3,38,0,231
3,40,85,12
3,40,0,154
3,40,82,26
3,40,0,29
3,40,73,31
3,40,0,213
3,37,85,27
3,37,0,152
3,37,66,28
3,37,0,28
3,37,80,32
3,37,0,213
3,37,90,27
3,37,0,163
3,37,68,17
3,37,0,28
3,37,91,32
3,37,0,221
3,38,82,21
3,38,0,145
3,38,85,33
3,38,0,22
3,38,75,35
3,38,0,231
3,40,85,12
3,40,0,154
3,40,82,26
3,40,0,29
3,40,73,31
3,40,0,213
3,33,85,27
3,33,0,154
3,33,82,26
3,33,0,29
3,33,73,31
3,33,0,213
3,33,79,27
3,33,0,160
3,33,71,20
3,33,0,28
3,33,93,32
3,33,0,240
3,33,85,0
3,33,0,152
3,33,66,28
3,33,0,28
3,33,80,32
3,33,0,213
3,33,90,27
3,33,0,163
3,33,68,17
3,33,0,28
3,33,91,32
3,33,0,221
3,33,84,19
3,33,0,146
3,33,72,34
3,33,0,22
3,33,86,38
3,33,0,120
4,53,59,1427
4,65,62,0
4,62,53,0
4,70,68,600
4,70,0,170
4,53,0,0
4,65,0,0
4,62,0,0
4,53,59,190
4,65,62,0
4,62,53,0
4,70,68,600
4,70,0,170
4,53,0,0
4,65,0,0
4,62,0,0
4,53,59,190
4,65,62,0
4,62,53,0
4,70,68,600
4,70,0,170
4,53,0,0
4,65,0,0
4,62,0,0
4,57,79,10
4,60,48,120
4,63,62,60
4,65,61,60
4,60,0,81
4,63,0,69
4,65,0,4
4,72,54,206
4,57,0,181
4,72,0,11
4,63,60,0
4,60,60,0
4,57,60,0
4,65,60,0
4,65,0,953
4,63,0,0
4,60,0,0
4,57,0,0
4,53,79,7
4,58,48,60
4,62,62,60
4,65,61,60
4,58,0,81
4,62,0,69
4,65,0,4
4,70,54,206
4,53,0,183
4,70,0,9
4,39,62,60
4,55,64,60
4,67,49,60
4,58,70,0
4,58,0,300
4,39,0,0
4,55,0,0
4,67,0,0
4,41,62,60
4,53,64,60
4,65,49,60
4,57,70,0
4,63,55,0
4,63,0,300
4,65,0,0
4,41,0,0
4,53,0,0
4,57,0,0
4,54,79,0
4,57,48,60
4,60,62,60
4,62,61,60
4,57,0,81
4,60,0,69
4,62,0,4
4,69,54,206
4,54,0,183
4,69,0,9
4,39,62,60
4,55,64,60
4,67,49,60
4,58,70,0
4,58,0,300
4,39,0,0
4,55,0,0
4,67,0,0
4,41,62,60
4,53,64,60
4,65,49,60
4,57,70,0
4,63,55,0
4,63,0,230
4,65,0,0
4,41,0,0
4,53,0,0
4,57,0,0
4,58,65,10
4,46,47,0
4,53,45,0
4,50,54,0
4,58,0,59
4,74,73,121
4,70,63,60
4,74,0,24
4,65,62,36
4,62,49,60
4,50,0,404
4,53,0,13
4,46,0,5
4,70,0,11
4,62,0,0
4,65,0,0
4,53,79,0
4,58,48,60
4,62,62,60
4,65,61,60
4,58,0,81
4,62,0,69
4,65,0,4
4,70,54,206
4,70,0,170
4,53,0,0
4,63,60,0
4,60,60,0
4,57,60,0
4,65,60,0
4,65,0,1011
4,63,0,0
4,60,0,0
4,57,0,0
4,57,59,129
4,65,62,0
4,63,53,0
4,72,68,600
4,69,61,120
4,69,0,119
4,57,0,0
4,63,0,0
4,65,0,0
4,72,0,1
4,53,79,0
4,58,48,60
4,62,62,60
4,65,61,60
4,58,0,81
4,62,0,69
4,65,0,4
4,70,54,206
4,70,0,170
4,53,0,0
4,39,62,120
4,55,64,60
4,67,49,60
4,58,70,0
4,58,0,300
4,39,0,0
4,55,0,0
4,67,0,0
4,41,56,0
4,63,61,60
4,65,60,0
4,57,66,0
4,57,0,364
4,41,0,0
4,63,0,0
4,65,0,0
4,38,50,56
4,54,66,0
4,57,64,60
4,60,56,60
4,62,53,60
4,54,0,560
4,54,65,40
4,57,0,6
4,57,68,54
4,38,0,119
4,54,0,0
4,60,0,1
4,62,0,0
4,57,0,0
4,58,62,0
4,67,54,0
4,58,0,126
4,67,0,6
4,55,57,18
4,67,59,60
4,58,71,0
4,58,0,51
4,67,0,2
4,55,0,0
4,63,60,7
4,60,60,0
4,57,60,0
4,65,60,0
4,65,0,538
4,63,0,0
4,60,0,0
4,57,0,0
4,58,65,2
4,46,47,0
4,53,45,0
4,50,54,0
4,58,0,61
4,74,73,119
4,70,63,60
4,74,0,24
4,65,62,36
4,62,49,60
4,50,0,406
4,53,0,13
4,46,0,5
4,70,0,9
4,62,0,0
4,65,0,0
4,48,62,60
4,55,64,60
4,67,49,60
4,60,70,0
4,60,0,230
4,48,0,0
4,55,0,0
4,67,0,0
4,56,62,10
4,63,54,0
4,56,0,124
4,63,0,6
4,51,57,20
4,63,59,60
4,56,71,0
4,56,0,51
4,63,0,2
4,51,0,0
4,50,79,67
4,55,48,60
4,59,62,60
4,62,61,60
4,55,0,81
4,59,0,69
4,62,0,4
4,67,54,206
4,50,0,183
4,67,0,9
4,63,60,0
4,60,60,0
4,55,60,0
4,55,0,480
4,60,0,0
4,63,0,0
4,44,56,0
4,60,61,60
4,63,60,0
4,51,66,0
4,51,0,350
4,44,0,0
4,60,0,0
4,63,0,0
4,38,62,130
4,50,64,60
4,62,49,60
4,54,70,0
4,60,55,0
4,60,0,230
4,62,0,0
4,38,0,0
4,50,0,0
4,54,0,0
