track,note,velocity,time
1,43,100,1136
1,43,97,68
1,59,91,200
1,67,92,0
1,62,95,0
1,43,89,356
1,43,91,88
1,64,100,180
1,60,96,4
1,67,98,4
1,43,88,0
1,43,86,68
1,59,91,196
1,67,92,0
1,62,92,0
1,43,88,12
1,43,91,64
1,60,85,4
1,67,93,4
1,64,89,4
1,43,92,24
1,43,92,64
1,67,102,16
1,59,91,0
1,62,97,0
1,43,88,28
1,43,87,68
1,64,102,4
1,60,92,0
1,67,102,0
1,43,88,16
1,43,89,76
1,59,92,180
1,67,92,4
1,62,93,0
1,43,92,4
1,43,86,80
1,67,92,184
1,60,90,4
1,64,93,0
1,48,87,380
1,48,90,72
1,60,95,0
1,67,103,0
1,64,107,0
1,48,87,20
1,48,87,64
1,69,98,16
1,60,92,0
1,64,98,0
1,48,88,12
1,48,90,64
1,60,92,184
1,64,100,0
1,67,97,0
1,48,91,4
1,48,92,68
1,60,91,188
1,69,92,0
1,64,95,0
1,50,87,4
1,50,90,76
1,62,89,196
1,66,109,4
1,69,100,0
1,50,85,0
1,50,85,76
1,62,95,196
1,66,116,0
1,69,106,0
1,48,85,32
1,48,86,68
1,60,89,32
1,67,98,0
1,64,95,0
1,48,87,392
1,48,87,76
1,60,92,20
1,67,97,0
1,64,102,0
1,43,81,4
1,43,88,80
1,67,97,184
1,59,96,0
1,62,96,0
1,43,82,32
1,43,86,76
1,60,92,20
1,64,99,4
1,67,100,0
1,43,80,0
1,43,87,68
1,59,97,8
1,67,95,0
1,62,97,0
1,43,88,4
1,43,82,76
1,60,99,28
1,64,106,0
1,67,104,0
1,43,85,20
1,43,85,84
1,59,91,36
1,62,99,0
1,67,102,4
1,43,89,24
1,43,88,88
1,60,90,28
1,64,97,4
1,67,95,0
1,43,89,4
1,43,87,76
1,59,92,196
1,62,95,0
1,67,97,0
1,43,90,12
1,43,88,76
1,67,93,192
1,60,92,0
1,64,95,0
1,48,86,0
1,48,87,72
1,60,97,192
1,67,103,0
1,64,106,0
1,48,90,8
1,48,92,76
1,60,92,16
1,69,98,0
1,64,99,0
1,48,88,8
1,48,89,72
1,67,99,28
1,60,96,0
1,64,100,0
1,48,86,8
1,48,92,80
1,69,85,8
1,60,87,4
1,64,99,0
1,50,85,28
1,50,92,96
1,62,81,196
1,66,89,0
1,69,92,0
1,50,80,8
1,50,80,88
1,62,84,192
1,69,96,0
1,66,94,0
1,48,85,48
1,48,86,68
1,60,96,184
1,67,100,0
1,64,100,0
1,48,85,8
1,48,92,96
1,60,96,192
1,64,106,0
1,67,103,0
1,50,87,124
1,50,92,84
1,66,101,200
1,62,90,0
1,69,99,0
1,48,91,16
1,48,87,72
1,67,104,200
1,60,109,0
1,64,110,0
1,47,96,36
1,47,93,72
1,59,92,8
1,62,98,0
1,66,93,0
1,50,96,112
1,62,91,8
1,66,109,4
1,69,82,4
1,50,96,96
1,66,119,0
1,69,116,0
1,62,103,0
1,48,99,64
1,48,92,60
1,67,97,188
1,60,93,4
1,64,97,0
1,48,80,0
1,48,82,92
1,67,98,188
1,60,92,0
1,64,93,4
1,43,82,48
1,43,82,56
1,67,99,196
1,59,95,0
1,62,98,0
1,43,88,376
1,43,88,88
1,67,96,188
1,59,93,4
1,62,96,0
1,47,92,20
1,47,95,48
1,62,92,200
1,66,89,0
1,59,87,0
1,47,86,0
1,47,92,96
1,66,91,184
1,62,95,0
1,59,92,0
1,48,85,4
1,48,85,76
1,67,95,192
1,60,92,0
1,64,95,0
1,50,91,28
1,50,93,76
1,66,101,192
1,62,92,0
1,69,104,0
1,52,92,44
1,52,97,88
1,59,92,184
1,64,96,0
1,67,96,0
1,52,81,12
1,52,91,92
1,59,102,200
1,64,104,0
1,67,107,0
1,47,92,44
1,47,92,72
1,59,96,0
1,66,101,0
1,62,100,0
1,47,87,8
1,47,95,72
1,66,94,0
1,62,99,0
1,59,97,0
1,48,89,12
1,48,85,76
1,60,91,200
1,67,93,0
1,64,97,4
1,48,88,4
1,48,95,80
1,67,102,12
1,60,97,0
1,64,99,0
1,50,96,244
1,67,104,0
1,62,92,0
1,69,99,0
1,66,109,96
1,50,99,0
1,62,96,0
1,69,106,4
1,43,92,188
1,43,82,60
1,67,95,196
1,62,92,4
1,59,93,0
1,43,85,8
1,43,78,68
1,60,86,12
1,67,92,0
1,64,92,0
1,43,86,12
1,43,85,68
1,59,95,0
1,67,96,0
1,62,98,0
1,43,87,44
1,43,85,84
1,60,86,4
1,67,92,0
1,64,98,8
1,48,87,12
1,48,85,72
1,67,92,192
1,60,86,4
1,64,95,0
1,48,82,28
1,48,78,64
1,69,96,8
1,60,89,0
1,64,97,0
1,48,82,12
1,48,75,68
1,60,92,184
1,64,93,0
1,67,98,0
1,48,80,28
1,48,85,64
1,69,93,192
1,60,92,4
1,64,98,0
1,50,87,0
1,50,76,88
1,62,90,188
1,66,107,4
1,69,103,0
1,50,69,364
1,50,70,88
1,66,97,196
1,62,90,0
1,69,100,0
1,48,82,16
1,48,80,72
1,60,88,4
1,67,95,4
1,64,93,0
1,48,83,392
1,48,85,72
1,60,96,196
1,67,106,0
1,64,104,4
1,43,90,32
1,43,90,76
1,67,98,4
1,62,92,0
1,59,92,0
1,43,83,16
1,43,89,68
1,60,93,24
1,67,102,0
1,64,103,0
1,43,85,8
1,43,89,76
1,67,99,20
1,59,93,0
1,62,95,0
1,43,86,36
1,43,92,80
1,67,96,32
1,60,92,0
1,64,96,0
1,43,89,32
1,43,84,64
1,59,92,12
1,67,97,4
1,62,96,0
1,43,82,0
1,43,86,76
1,67,98,20
1,60,96,0
1,64,99,0
1,43,87,16
1,43,87,88
1,67,109,188
1,59,98,0
1,62,104,0
1,43,88,4
1,43,87,72
1,67,104,188
1,60,97,0
1,64,107,4
1,48,92,8
1,48,87,68
1,67,103,16
1,60,97,0
1,64,104,0
1,48,85,4
1,48,81,76
1,60,89,28
1,69,100,0
1,64,95,4
1,48,85,4
1,48,81,92
1,60,96,20
1,64,104,0
1,67,103,0
1,48,82,4
1,48,82,84
1,69,97,192
1,60,92,0
1,64,97,0
1,50,81,0
1,50,83,84
1,66,101,196
1,62,92,0
1,69,103,0
1,50,80,8
1,50,82,84
1,66,103,188
1,62,92,0
1,69,102,0
1,48,82,28
1,48,83,76
1,67,95,20
1,60,92,0
1,64,95,0
1,48,82,388
1,48,85,76
1,67,100,192
1,60,98,0
1,64,104,0
1,50,82,80
1,50,87,92
1,62,96,192
1,66,107,0
1,69,103,0
1,48,82,28
1,48,85,80
1,67,103,196
1,60,103,0
1,64,106,0
1,47,89,20
1,47,91,72
1,59,97,4
1,62,103,4
1,66,96,0
1,50,97,104
1,66,96,24
1,62,76,0
1,69,93,0
1,50,91,84
1,66,109,4
1,69,112,4
1,62,103,0
1,48,103,108
1,48,91,84
1,67,98,192
1,60,92,0
1,64,97,0
1,48,82,352
1,48,103,104
1,64,99,188
1,67,98,0
1,60,96,0
1,43,91,32
1,43,88,68
1,59,90,188
1,67,92,0
1,62,92,0
1,43,87,24
1,43,90,88
1,67,92,16
1,59,92,4
1,62,92,0
1,47,92,32
1,47,95,52
1,62,92,8
1,66,90,4
1,59,87,0
1,47,85,16
1,47,91,76
1,66,87,12
1,59,90,0
1,62,92,0
1,48,83,12
1,48,85,68
1,60,92,0
1,67,97,0
1,64,98,0
1,50,85,48
1,50,89,88
1,62,89,28
1,66,107,0
1,69,103,4
1,52,87,44
1,52,92,84
1,59,90,188
1,67,85,0
1,64,99,0
1,52,88,4
1,52,84,80
1,59,92,192
1,67,99,0
1,64,98,0
1,47,92,72
1,47,93,80
1,59,90,0
1,62,96,0
1,66,91,0
1,47,89,12
1,47,95,64
1,59,91,20
1,62,93,0
1,66,87,0
1,48,87,92
1,48,85,84
1,60,95,0
1,67,96,4
1,64,97,0
1,48,85,388
1,48,91,80
1,60,92,192
1,64,93,0
1,67,99,0
1,47,92,96
1,66,89,4
1,59,87,0
1,64,97,0
1,67,102,100
1,59,92,0
1,47,99,0
1,63,93,4
1,67,79,56
1,64,93,4
1,59,85,0
1,52,92,4
1,59,80,116
1,47,91,4
1,62,92,0
1,66,103,12
1,48,85,120
1,60,85,0
1,67,87,0
1,64,95,0
1,66,91,172
1,69,91,0
1,62,80,4
1,50,86,0
1,52,80,192
1,59,82,0
1,67,81,0
1,64,92,0
1,47,87,120
1,59,83,0
1,62,95,0
1,66,90,0
1,48,80,132
1,60,82,0
1,67,85,4
1,64,90,0
1,66,93,116
1,62,82,4
1,50,92,0
1,69,93,0
1,43,85,60
1,59,86,4
1,67,88,0
1,62,95,0
1,48,92,16
1,67,89,0
1,64,92,0
1,60,88,0
1,43,85,144
1,59,85,0
1,67,88,0
1,62,92,4
1,50,92,140
1,62,106,0
1,50,92,168
1,62,103,0
1,62,100,24
1,50,87,0
1,50,102,64
1,62,106,0
1,43,95,64
1,43,92,68
1,67,93,192
1,59,95,0
1,62,100,4
1,43,80,4
1,43,83,84
1,60,92,188
1,67,97,0
1,64,95,4
1,43,87,28
1,43,85,80
1,67,93,188
1,59,97,0
1,62,98,0
1,43,92,4
1,43,85,84
1,67,91,192
1,60,92,0
1,64,97,0
1,48,86,12
1,48,84,64
1,67,103,4
1,60,99,0
1,64,106,0
1,48,85,16
1,48,85,56
1,69,95,192
1,60,93,0
1,64,99,0
1,48,85,28
1,48,84,60
1,60,95,192
1,67,99,0
1,64,100,0
1,48,89,8
1,48,87,60
1,69,91,192
1,60,93,0
1,64,96,4
1,50,87,20
1,50,90,80
1,62,91,188
1,66,103,0
1,69,100,0
1,50,82,20
1,50,80,80
1,66,99,192
1,62,89,0
1,69,100,0
1,48,81,20
1,48,86,88
1,67,96,4
1,60,91,0
1,64,97,0
1,48,82,392
1,48,88,64
1,60,96,192
1,64,103,0
1,67,102,0
1,43,78,96
1,43,93,68
1,67,91,12
1,59,92,4
1,62,93,0
1,43,87,84
1,43,91,68
1,60,92,8
1,67,96,0
1,64,97,4
1,43,89,12
1,43,90,72
1,67,96,192
1,59,97,0
1,62,95,4
1,43,89,16
1,43,88,72
1,60,100,12
1,67,107,0
1,64,107,0
1,43,92,56
1,43,87,80
1,67,95,44
1,59,90,0
1,62,92,4
1,43,86,12
1,43,86,76
1,60,99,4
1,64,103,0
1,67,103,0
1,43,85,20
1,43,85,76
1,59,92,192
1,62,93,0
1,67,93,0
1,43,82,0
1,43,92,72
1,60,92,0
1,67,99,0
1,64,98,0
1,48,82,308
1,67,110,4
1,60,107,4
1,64,114,0
1,48,78,380
1,48,88,76
1,69,95,12
1,60,92,0
1,64,96,4
1,48,85,4
1,48,89,96
1,67,97,40
1,64,95,0
1,60,91,0
1,48,86,24
1,48,86,76
1,60,93,28
1,69,100,0
1,64,102,0
1,50,92,40
1,50,89,88
1,62,92,192
1,66,109,0
1,69,103,4
1,50,85,8
1,50,82,92
1,62,92,196
1,66,109,0
1,69,100,0
1,48,85,36
1,48,86,88
1,67,97,32
1,60,92,0
1,64,95,0
1,48,85,376
1,48,83,64
1,60,84,196
1,67,92,0
1,64,89,0
1,43,84,52
1,43,85,84
1,67,93,16
1,59,97,0
1,62,92,0
1,43,85,16
1,43,85,88
1,67,95,80
1,60,92,0
1,64,95,0
1,43,86,44
1,43,85,84
1,67,87,60
1,59,92,4
1,62,92,4
1,43,80,60
1,43,85,96
1,60,89,56
1,67,91,4
1,64,97,0
1,43,85,20
1,43,85,84
1,67,92,40
1,59,92,4
1,62,96,0
1,43,82,68
1,43,78,80
1,60,93,32
1,67,95,0
1,64,92,0
1,43,85,24
1,43,77,92
1,67,92,52
1,59,91,4
1,62,93,0
1,43,85,84
1,43,84,88
1,60,89,28
1,67,98,0
1,64,102,8
1,48,86,368
1,48,91,84
1,60,91,4
1,67,103,0
1,64,100,0
1,48,85,8
1,48,82,72
1,69,103,16
1,60,96,0
1,64,106,0
1,48,87,0
1,48,89,68
1,60,84,20
1,64,93,0
1,67,95,0
1,48,91,16
1,48,89,84
1,69,95,188
1,60,95,0
1,64,99,0
1,50,87,24
1,50,86,72
1,62,86,4
1,69,92,4
1,66,86,0
1,50,91,8
1,50,85,84
1,62,92,188
1,66,99,0
1,69,100,0
1,48,85,12
1,48,85,88
1,60,87,16
1,67,91,0
1,64,91,0
1,48,82,380
1,48,91,84
1,60,92,192
1,67,96,0
1,64,96,0
1,43,88,44
1,43,84,52
1,59,93,112
1,67,93,0
1,62,97,0
1,48,85,28
1,48,76,24
1,60,92,24
1,67,89,0
1,64,100,4
1,43,83,8
1,43,86,4
1,67,93,8
1,62,95,0
1,59,95,0
1,43,85,12
1,43,77,88
1,60,92,20
1,67,98,0
1,64,98,0
1,43,85,8
1,43,87,64
1,59,95,40
1,67,98,0
1,62,96,0
1,43,86,4
1,43,85,48
1,60,92,52
1,67,96,0
1,64,97,0
1,43,82,64
1,43,91,8
1,59,91,56
1,67,92,4
1,62,91,0
1,43,91,4
1,43,88,100
1,67,103,44
1,60,100,0
1,64,104,0
1,48,76,32
1,48,88,92
1,67,99,8
1,64,98,0
1,60,98,0
1,48,75,56
1,48,90,64
1,69,97,72
1,60,97,0
1,64,102,4
1,48,91,36
1,48,85,28
1,67,95,76
1,60,92,0
1,64,96,0
1,48,91,8
1,48,87,72
1,69,92,12
1,60,98,4
1,64,104,0
1,50,86,40
1,50,93,72
1,66,107,16
1,62,92,0
1,69,97,4
1,50,82,4
1,50,89,60
1,62,92,120
1,69,100,0
1,66,105,0
1,48,91,48
1,48,85,32
1,64,99,92
1,60,97,0
1,67,99,4
1,48,86,0
1,48,91,4
1,60,106,4
1,64,110,0
1,67,107,0
1,43,91,44
1,43,92,68
1,67,92,32
1,59,85,0
1,62,88,0
1,43,88,0
1,43,86,72
1,64,99,0
1,60,96,0
1,67,98,4
1,43,85,20
1,43,92,48
1,59,96,116
1,62,97,0
1,67,95,4
1,43,87,60
1,43,86,20
1,67,88,16
1,60,90,0
1,64,92,4
2,43,103,1120
2,43,89,112
2,43,96,144
2,43,94,104
2,43,100,132
2,43,97,116
2,43,101,140
2,38,92,104
2,43,96,32
2,43,99,132
2,43,100,128
2,43,90,108
2,43,101,132
2,43,95,128
2,43,100,128
2,38,94,80
2,36,95,80
2,36,94,88
2,36,94,124
2,36,92,64
2,36,97,120
2,36,90,88
2,36,98,120
2,36,96,116
2,38,100,84
2,38,90,96
2,38,99,120
2,38,96,132
2,36,89,80
2,36,91,128
2,36,98,116
2,36,93,128
2,43,96,68
2,43,96,108
2,43,100,124
2,38,96,128
2,43,98,80
2,43,104,100
2,43,94,132
2,38,90,12
2,31,91,0
2,31,94,52
2,38,90,240
2,43,93,0
2,43,92,72
2,38,89,248
2,43,94,0
2,43,94,80
2,38,89,256
2,43,97,0
2,38,89,0
2,43,98,0
2,38,89,0
2,36,93,0
2,36,89,64
2,31,84,232
2,36,91,0
2,36,92,76
2,31,86,248
2,36,92,12
2,36,93,80
2,31,89,260
2,36,92,12
2,31,89,4
2,36,94,0
2,37,93,0
2,38,88,12
2,38,82,68
2,33,89,236
2,38,94,8
2,33,88,0
2,38,94,4
2,33,89,0
2,36,91,0
2,36,94,60
2,31,81,244
2,36,93,40
2,31,89,0
2,36,91,0
2,37,90,0
2,38,96,0
2,38,88,36
2,38,88,12
2,38,92,8
2,36,94,0
2,36,91,8
2,36,91,4
2,36,88,32
2,35,91,48
2,35,91,32
2,35,91,8
2,35,103,8
2,38,99,4
2,38,99,8
2,36,95,72
2,31,85,0
2,36,94,12
2,31,85,0
2,36,97,0
2,35,89,0
2,33,86,0
2,30,94,0
2,31,90,24
2,38,88,0
2,43,96,0
2,38,84,0
2,43,94,0
2,38,92,0
2,33,94,0
2,34,85,0
2,35,93,16
2,30,87,0
2,35,94,12
2,30,85,0
2,35,96,12
2,30,90,0
2,33,94,0
2,35,92,0
2,36,91,36
2,31,91,0
2,36,92,8
2,37,95,0
2,38,94,0
2,33,87,0
2,38,95,0
2,39,90,0
2,40,94,0
