track,note,velocity,time
1,43,108,1472
1,31,108,18
1,43,108,270
1,31,108,14
1,43,108,270
1,31,108,18
1,43,108,268
1,31,108,14
1,43,108,270
1,31,108,12
1,43,108,272
1,31,108,14
1,36,108,12
1,36,108,1804
1,38,108,14
1,39,108,18
1,40,108,18
1,36,108,1814
1,35,108,14
1,34,108,18
1,33,108,18
1,38,108,1550
1,40,108,18
1,42,108,18
1,38,108,18
1,43,108,16
1,38,108,18
1,43,108,18
1,38,108,14
1,31,108,18
1,36,108,14
1,40,108,20
1,41,108,18
1,42,108,18
1,43,108,14
1,36,108,1808
1,38,108,18
1,39,108,18
1,40,108,12
1,36,108,1806
1,35,108,14
1,34,108,18
1,33,108,18
1,38,108,1550
1,40,108,18
1,42,108,18
1,38,108,14
1,43,108,14
1,38,108,16
1,43,108,14
1,38,108,14
1,31,108,18
1,36,108,14
1,40,108,14
1,41,108,14
1,42,108,14
1,43,108,8
1,41,108,1550
1,48,108,18
1,45,108,18
1,41,108,18
1,46,108,14
1,44,108,16
1,43,108,14
1,41,108,14
1,40,108,12
1,43,108,10
1,38,108,18
1,37,108,18
1,36,108,14
1,43,108,14
1,40,108,14
1,36,108,14
1,38,108,14
1,42,108,18
1,45,108,18
1,48,108,16
1,50,108,14
1,38,108,10
1,40,108,18
1,41,108,18
1,42,108,14
1,43,108,14
1,43,108,526
1,38,108,18
1,43,108,18
1,31,108,270
1,32,108,10
1,33,108,14
1,34,108,14
1,35,108,14
1,36,108,14
1,36,108,270
1,38,108,18
1,39,108,18
1,40,108,12
1,36,108,1806
1,35,108,18
1,34,108,14
1,33,108,10
1,38,108,1550
1,40,108,10
1,42,108,14
1,38,108,10
1,43,108,14
1,38,108,18
1,43,108,18
1,38,108,14
1,31,108,14
1,36,108,14
1,40,108,14
1,41,108,14
1,42,108,18
1,43,108,18
1,43,108,1550
1,38,108,526
1,31,108,518
1,38,108,270
1,43,108,14
1,31,108,18
1,36,108,14
1,36,108,530
1,41,108,398
1,36,108,270
1,41,108,18
1,42,108,18
1,43,108,14
1,44,108,18
1,45,108,18
1,40,108,18
1,39,108,14
1,39,108,270
1,38,108,14
1,38,108,402
1,37,108,14
1,36,108,18
1,35,108,14
1,34,108,14
1,33,108,264
1,43,108,1548
1,38,108,530
1,31,108,516
1,38,108,270
1,43,108,12
1,31,108,12
1,36,108,14
1,36,108,530
1,41,108,398
1,36,108,270
1,41,108,18
1,42,108,10
1,43,108,14
1,44,108,18
1,45,108,18
1,40,108,18
1,39,108,14
1,39,108,266
1,38,108,18
1,38,108,398
1,37,108,14
1,36,108,18
1,35,108,18
1,34,108,14
1,33,108,270
1,40,108,270
1,41,108,14
1,34,108,146
1,39,108,270
1,39,108,18
1,38,108,14
1,38,108,18
1,36,108,14
1,36,108,14
1,34,108,14
1,34,108,14
1,39,108,14
1,39,108,18
1,38,108,14
1,38,108,18
1,36,108,14
1,36,108,18
1,34,108,14
1,32,108,14
1,31,108,14
1,43,108,14
1,42,108,14
1,40,108,14
1,38,108,10
1,35,108,14
1,35,108,10
1,34,108,14
1,34,108,18
1,33,108,14
1,45,114,270
1,33,115,14
1,33,119,18
1,38,122,18
1,43,108,1550
1,38,108,402
1,31,108,396
1,38,108,270
1,43,108,18
1,31,108,10
1,36,108,10
1,36,108,402
1,41,108,398
1,36,108,274
1,41,108,14
1,42,108,14
1,43,108,14
1,44,108,14
1,45,108,14
1,40,108,14
1,39,108,14
1,39,108,270
1,38,108,16
1,38,108,272
1,37,108,14
1,36,108,12
1,35,108,12
1,34,108,12
1,33,108,10
1,31,108,14
1,39,108,274
1,40,108,14
1,39,108,270
1,38,108,270
1,38,108,398
1,43,108,18
1,43,108,396
1,38,108,16
1,38,108,268
1,43,108,14
1,41,108,18
1,40,108,16
1,40,108,270
1,33,108,16
1,33,108,264
1,40,108,14
1,40,108,272
1,45,108,18
1,45,108,142
1,38,108,16
1,38,108,270
1,45,108,16
1,38,108,14
1,37,108,14
1,37,108,270
1,44,108,14
1,37,108,18
1,36,108,142
1,36,108,398
1,43,108,18
1,43,108,398
1,36,108,14
1,39,108,270
1,40,108,18
1,39,108,14
1,38,108,16
1,38,108,398
1,43,108,18
1,43,108,400
1,38,108,14
1,38,108,274
1,43,108,20
1,41,108,14
1,40,108,12
1,40,108,276
1,33,108,14
1,33,108,270
1,40,108,16
1,40,108,264
1,45,108,14
1,45,108,142
1,38,108,14
1,38,108,268
1,45,108,18
1,38,108,18
1,37,108,14
1,37,108,266
1,44,108,14
1,37,108,18
1,36,108,142
1,36,108,268
1,43,108,18
1,35,108,14
1,33,108,14
1,45,108,18
1,44,108,14
1,32,108,10
1,31,108,140
1,38,108,10
1,36,108,16
1,48,108,8
1,43,108,14
1,38,108,14
1,36,108,14
1,40,108,14
1,41,108,14
1,41,108,12
1,43,108,14
1,44,108,16
1,45,108,12
1,43,108,14
1,41,108,12
1,34,108,14
1,33,108,14
1,40,108,12
1,38,108,10
1,42,108,14
1,45,108,12
1,40,108,14
1,38,108,14
1,42,108,12
1,43,108,14
1,38,108,16
1,31,108,8
1,43,108,14
1,40,108,12
1,40,108,14
1,45,108,14
1,33,108,12
1,38,108,142
1,38,108,272
1,43,108,12
1,43,108,270
1,38,108,14
1,38,108,268
1,43,108,14
1,41,108,12
1,40,108,12
1,40,108,270
1,33,108,14
1,33,108,268
1,40,108,14
1,40,108,274
1,45,108,14
1,45,108,266
1,38,108,10
1,38,108,270
1,45,108,18
1,38,108,18
1,37,108,14
1,37,108,270
1,44,108,14
1,37,108,14
1,36,108,14
1,36,108,270
1,48,108,14
1,46,108,18
1,45,108,12
1,33,108,18
1,35,108,12
1,36,108,12
1,37,108,18
1,38,108,14
1,38,108,268
1,45,108,14
1,38,108,18
1,37,108,12
1,37,108,270
1,44,108,12
1,37,108,14
1,36,108,16
1,43,108,268
1,48,108,18
1,46,108,10
1,45,108,14
1,33,108,10
1,35,108,10
1,36,108,14
1,37,108,14
1,38,108,14
1,38,108,270
1,45,108,18
1,38,108,14
1,37,108,14
1,37,108,270
1,44,108,20
1,49,108,18
1,48,108,14
1,48,108,274
1,40,108,14
1,41,108,14
1,42,108,14
1,43,108,14
1,45,108,14
1,47,108,14
1,48,108,10
1,36,108,270
2,64,74,1212
2,55,74,4
2,60,74,4
2,56,74,144
2,61,74,4
2,65,74,4
2,63,74,140
2,58,74,0
2,67,74,4
2,61,74,144
2,56,74,4
2,65,74,4
2,64,74,136
2,60,74,0
2,55,74,0
2,64,74,1798
2,57,74,0
2,60,74,0
2,55,74,10
2,62,74,14
2,65,74,2
2,53,74,4
2,57,74,0
2,60,74,0
2,58,74,4
2,61,74,2
2,63,74,6
2,54,74,4
2,66,74,0
2,62,74,4
2,64,74,0
2,55,74,4
2,59,74,0
2,67,74,0
2,60,74,1804
2,57,74,0
2,69,74,0
2,62,74,0
2,64,74,0
2,59,74,10
2,63,74,2
2,56,74,0
2,66,74,4
2,68,74,0
2,62,74,8
2,67,74,4
2,55,74,0
2,58,74,8
2,57,74,10
2,64,74,0
2,61,74,0
2,52,74,6
2,55,74,0
2,60,74,1548
2,64,74,0
2,54,74,8
2,50,74,0
2,57,74,4
2,60,74,140
2,64,74,4
2,54,74,4
2,57,74,0
2,50,74,0
2,62,74,264
2,65,74,4
2,55,74,4
2,69,74,0
2,72,74,0
2,65,74,136
2,69,74,0
2,55,74,4
2,72,74,0
2,76,74,0
2,70,74,260
2,58,74,0
2,64,74,4
2,67,74,0
2,62,74,4
2,62,74,12
2,69,74,4
2,57,74,0
2,65,74,4
2,60,74,0
2,63,74,144
2,68,74,4
2,66,74,4
2,56,74,0
2,60,74,0
2,67,74,4
2,64,74,0
2,60,74,4
2,55,74,0
2,57,74,0
2,57,74,1810
2,60,74,0
2,55,74,4
2,64,74,0
2,53,74,16
2,57,74,0
2,60,74,0
2,65,74,0
2,62,74,0
2,61,74,4
2,58,74,0
2,54,74,4
2,66,74,0
2,63,74,0
2,62,74,4
2,64,74,0
2,55,74,6
2,59,74,0
2,67,74,0
2,60,74,1796
2,57,74,0
2,69,74,0
2,62,74,0
2,64,74,0
2,59,74,8
2,63,74,4
2,56,74,0
2,66,74,6
2,68,74,0
2,62,74,4
2,67,74,4
2,55,74,0
2,58,74,10
2,64,74,8
2,61,74,0
2,55,74,4
2,52,74,0
2,57,74,0
2,60,74,1540
2,64,74,0
2,50,74,8
2,57,74,4
2,54,74,0
2,64,74,136
2,60,74,0
2,54,74,2
2,57,74,0
2,50,74,0
2,65,74,268
2,62,74,0
2,55,74,4
2,69,74,0
2,72,74,0
2,65,74,140
2,69,74,0
2,55,74,4
2,72,74,0
2,76,74,0
2,62,74,260
2,67,74,0
2,64,74,0
2,70,74,0
2,58,74,0
2,62,74,8
2,57,74,4
2,69,74,4
2,65,74,2
2,60,74,0
2,63,74,146
2,68,74,4
2,60,74,0
2,56,74,4
2,66,74,0
2,64,74,14
2,57,74,6
2,67,74,0
2,60,74,4
2,55,74,0
2,72,89,270
2,74,89,16
2,72,89,16
2,76,89,16
2,72,89,16
2,75,89,16
2,63,89,4
2,67,89,6
2,73,89,0
2,70,89,0
2,62,89,8
2,74,89,0
2,69,89,4
2,72,89,0
2,65,89,0
2,60,89,12
2,69,89,0
2,72,89,0
2,62,89,4
2,65,89,0
2,62,89,12
2,57,89,0
2,60,89,0
2,65,89,0
2,69,89,0
2,72,89,12
2,68,89,4
2,65,89,4
2,63,89,0
2,60,89,4
2,70,89,8
2,74,89,0
2,67,89,4
2,62,89,0
2,65,89,0
2,75,89,4
2,63,89,4
2,68,89,0
2,72,89,8
2,67,89,0
2,72,89,8
2,68,89,0
2,75,89,0
2,63,89,4
2,67,89,0
2,74,89,140
2,70,89,4
2,62,89,4
2,67,89,0
2,65,89,0
2,65,89,16
2,68,89,4
2,62,89,4
2,60,89,0
2,72,89,0
2,63,89,0
2,64,89,392
2,71,89,0
2,67,89,0
2,74,89,4
2,62,89,0
2,65,89,16
2,69,89,4
2,62,89,0
2,60,89,4
2,72,89,0
2,59,89,144
2,63,89,0
2,55,89,4
2,67,89,0
2,65,89,0
2,64,89,8
2,58,89,0
2,52,89,4
2,62,89,0
2,55,89,0
2,74,89,264
2,71,89,0
2,62,89,4
2,66,89,0
2,69,89,0
2,69,89,6
2,72,89,0
2,67,89,0
2,60,89,10
2,64,89,0
2,64,89,140
2,57,89,0
2,67,89,0
2,60,89,0
2,69,89,0
2,66,89,8
2,72,89,0
2,69,89,0
2,60,89,4
2,64,89,0
2,71,89,396
2,62,89,0
2,59,89,4
2,67,89,0
2,65,89,4
2,59,89,12
2,62,89,0
2,67,89,4
2,65,89,4
2,71,89,0
2,55,89,8
2,59,89,0
2,67,89,4
2,65,89,0
2,62,89,0
2,67,89,12
2,71,89,4
2,65,89,0
2,59,89,4
2,62,89,0
2,67,89,6
2,64,89,16
2,69,89,4
2,66,89,0
2,60,89,8
2,57,89,0
2,59,89,8
2,67,89,0
2,55,89,4
2,65,89,0
2,62,89,0
2,64,74,1804
2,57,74,0
2,60,74,0
2,55,74,10
2,62,74,16
2,53,74,4
2,57,74,0
2,60,74,0
2,65,74,0
2,63,74,12
2,61,74,0
2,58,74,0
2,54,74,8
2,66,74,0
2,64,74,16
2,59,74,4
2,67,74,0
2,62,74,0
2,55,74,2
2,69,74,1804
2,62,74,0
2,64,74,0
2,57,74,10
2,60,74,0
2,63,74,16
2,56,74,0
2,59,74,0
2,68,74,10
2,66,74,0
2,67,74,16
2,55,74,0
2,62,74,0
2,58,74,8
2,61,74,12
2,64,74,4
2,57,74,6
2,55,74,2
2,52,74,0
2,60,74,1546
2,64,74,0
2,50,74,8
2,57,74,4
2,54,74,0
2,64,74,144
2,60,74,0
2,54,74,4
2,57,74,0
2,50,74,0
2,72,74,268
2,65,74,0
2,62,74,0
2,55,74,4
2,69,74,0
2,65,74,138
2,69,74,0
2,55,74,4
2,72,74,0
2,76,74,0
2,64,74,272
2,70,74,0
2,58,74,0
2,62,74,8
2,67,74,0
2,65,74,4
2,60,74,0
2,69,74,0
2,57,74,0
2,62,74,0
2,66,74,140
2,56,74,0
2,60,74,0
2,68,74,0
2,63,74,0
2,67,74,4
2,64,74,0
2,60,74,4
2,55,74,0
2,57,74,0
2,62,59,1540
2,66,59,6
2,59,59,2
2,55,59,4
2,57,59,12
2,65,59,0
2,60,59,8
2,62,59,4
2,62,59,12
2,59,59,0
2,65,59,6
2,55,59,0
2,60,59,8
2,64,59,6
2,57,59,2
2,55,59,6
2,63,59,12
2,60,59,4
2,53,59,4
2,67,59,4
2,57,59,16
2,54,59,0
2,60,59,0
2,66,59,8
2,59,59,6
2,64,59,0
2,62,59,10
2,67,59,4
2,59,59,16
2,62,59,0
2,68,59,0
2,56,59,8
2,67,59,14
2,60,59,0
2,64,59,0
2,57,59,4
2,61,59,12
2,58,59,0
2,55,59,0
2,65,59,12
2,67,59,8
2,60,59,0
2,50,59,0
2,64,59,0
2,61,59,16
2,67,59,0
2,59,59,4
2,64,59,0
2,63,59,20
2,60,59,0
2,58,59,0
2,67,59,0
2,59,59,12
2,57,59,0
2,62,59,0
2,66,59,0
2,56,59,14
2,58,59,0
2,65,59,0
2,61,59,0
2,60,59,8
2,57,59,0
2,64,59,0
2,67,59,0
2,62,59,1550
2,66,59,4
2,59,59,4
2,55,59,4
2,65,59,10
2,57,59,6
2,60,59,2
2,62,59,6
2,55,59,10
2,65,59,0
2,62,59,0
2,59,59,0
2,57,59,12
2,64,59,0
2,60,59,0
2,55,59,12
2,63,59,12
2,60,59,4
2,53,59,4
2,67,59,4
2,60,59,16
2,57,59,4
2,54,59,0
2,66,59,4
2,64,59,8
2,59,59,4
2,62,59,4
2,67,59,4
2,68,59,12
2,59,59,4
2,62,59,0
2,56,59,4
2,57,59,8
2,67,59,0
2,60,59,0
2,64,59,0
2,61,59,12
2,58,59,0
2,55,59,0
2,65,59,12
2,50,59,12
2,64,59,0
2,67,59,4
2,60,59,0
2,61,59,8
2,67,59,0
2,59,59,4
2,64,59,0
2,63,59,20
2,60,59,0
2,58,59,0
2,67,59,0
2,62,59,12
2,57,59,4
2,66,59,0
2,59,59,10
2,58,59,22
2,56,59,0
2,61,59,0
2,65,59,0
2,67,59,20
2,60,59,0
2,64,59,0
2,57,59,0
2,67,59,12
2,62,59,0
2,55,59,8
2,59,59,0
2,59,89,272
2,64,89,0
2,62,89,0
2,67,89,0
2,56,89,8
2,67,89,0
2,60,89,0
2,63,89,0
2,59,89,136
2,62,89,4
2,65,89,4
2,67,89,0
2,65,89,140
2,62,89,0
2,70,89,8
2,67,89,4
2,63,89,136
2,60,89,0
2,67,89,8
2,58,89,4
2,60,89,8
2,63,89,0
2,67,89,0
2,70,89,0
2,67,89,8
2,60,89,4
2,63,89,6
2,58,89,2
2,60,89,12
2,63,89,0
2,67,89,0
2,58,89,4
2,67,89,12
2,63,89,4
2,60,89,4
2,58,89,0
2,63,89,20
2,67,89,4
2,58,89,0
2,60,89,4
2,63,89,16
2,67,89,0
2,70,89,4
2,60,89,0
2,60,89,136
2,63,89,0
2,67,89,8
2,58,89,4
2,67,89,16
2,63,89,0
2,60,89,4
2,70,89,0
2,60,89,20
2,63,89,0
2,67,89,0
2,58,89,10
2,63,89,12
2,70,89,0
2,67,89,0
2,60,89,4
2,72,89,16
2,63,89,4
2,67,89,0
2,60,89,4
2,66,89,12
2,71,89,4
2,74,89,4
2,62,89,0
2,62,89,138
2,55,69,16
2,52,66,0
2,59,73,8
2,64,78,4
2,62,76,0
2,67,74,16
2,71,74,8
2,58,74,16
2,58,74,0
2,66,74,4
2,61,74,0
2,67,74,268
2,54,74,8
2,64,74,0
2,57,74,10
2,69,74,2
2,65,77,16
2,66,79,16
2,69,82,8
2,45,82,0
2,62,82,0
2,55,82,0
2,59,82,0
2,70,87,16
2,71,89,20
2,66,92,16
2,62,92,0
2,60,92,4
2,57,92,0
2,74,92,6
2,62,59,1552
2,66,59,4
2,59,59,4
