track,note,velocity,time
1,41,123,4228
1,57,123,4
1,53,119,4
1,60,127,0
1,65,126,4
1,65,126,84
1,60,127,0
1,41,121,4
1,57,117,4
1,53,97,0
1,63,119,1488
1,62,123,40
1,53,117,8
1,58,125,4
1,46,119,16
1,65,124,88
1,53,104,4
1,41,117,0
1,57,113,4
1,60,126,4
1,55,102,16
1,64,123,4
1,58,123,0
1,48,97,12
1,62,113,32
1,46,117,4
1,56,125,0
1,53,115,4
1,41,109,76
1,60,127,4
1,57,115,4
1,65,123,4
1,53,93,12
1,65,88,1036
1,60,90,0
1,62,78,4
1,57,86,4
1,57,93,456
1,60,98,4
1,65,98,0
1,62,93,4
1,60,86,52
1,62,88,0
1,65,83,4
1,57,77,0
1,65,100,456
1,57,97,4
1,60,106,0
1,62,93,4
1,65,107,580
1,60,117,0
1,57,107,4
1,62,106,4
1,58,121,4156
1,53,104,0
1,62,100,4
1,62,100,444
1,58,121,4
1,53,93,0
1,58,115,712
1,62,98,4
1,53,92,0
1,62,90,68
1,53,84,4
1,58,94,4
1,58,127,308
1,53,109,0
1,62,111,4
1,64,123,3900
1,58,127,4
1,55,121,4
1,60,127,0
1,56,127,1344
1,62,117,4
1,60,127,0
1,53,124,4
1,60,127,364
1,57,124,0
1,62,127,4
1,65,124,0
1,60,127,684
1,62,119,4
1,65,119,0
1,56,125,4
1,64,123,676
1,62,117,4
1,58,121,0
1,67,113,4
1,41,123,1200
1,57,123,4
1,53,119,4
1,60,127,0
1,65,126,4
1,65,126,80
1,60,127,4
1,41,121,4
1,57,117,0
1,53,97,4
1,63,119,1488
1,62,123,40
1,53,117,4
1,58,125,4
1,46,119,16
1,65,124,84
1,53,104,0
1,41,117,4
1,57,113,0
1,60,126,4
1,55,102,16
1,64,123,4
1,58,123,0
1,48,97,12
1,62,113,36
1,46,117,0
1,56,125,4
1,53,115,4
1,41,109,76
1,60,127,4
1,57,115,4
1,65,123,4
1,53,93,8
1,41,123,19236
1,57,123,4
1,53,119,0
1,60,127,4
1,65,126,0
1,65,126,84
1,60,127,0
1,41,121,4
1,57,117,0
1,53,97,4
1,63,119,1488
1,62,123,40
1,53,117,8
1,58,125,0
1,46,119,16
1,65,124,80
1,53,104,4
1,41,117,4
1,57,113,4
1,60,126,0
1,55,102,16
1,64,123,4
1,58,123,0
1,48,97,12
1,62,113,36
1,46,117,4
1,56,125,0
1,53,115,4
1,41,109,76
1,60,127,4
1,57,115,4
1,65,123,4
1,53,93,12
1,65,88,1036
1,60,90,0
1,62,78,4
1,57,86,0
1,57,93,456
1,60,98,4
1,65,98,0
1,62,93,4
1,60,86,48
1,62,88,4
1,65,83,4
1,57,77,0
1,65,100,456
1,57,97,4
1,60,106,4
1,62,93,0
1,65,107,580
1,60,117,0
1,57,107,4
1,62,106,0
1,58,121,4156
1,53,104,4
1,62,100,4
1,62,100,444
1,58,121,4
1,53,93,0
1,58,115,712
1,62,98,0
1,53,92,4
1,62,90,68
1,53,84,4
1,58,94,4
1,58,127,304
1,53,109,8
1,62,111,4
1,64,123,3900
1,58,127,0
1,55,121,4
1,60,127,0
1,56,127,1344
1,62,117,0
1,60,127,4
1,53,124,0
1,60,127,364
1,57,124,0
1,62,127,4
1,65,124,0
1,60,127,688
1,62,119,4
1,65,119,4
1,56,125,0
1,64,123,676
1,62,117,4
1,58,121,0
1,67,113,4
1,41,123,1212
1,57,123,4
1,53,119,4
1,60,127,0
1,65,126,4
1,65,126,84
1,60,127,0
1,41,121,4
1,57,117,0
1,53,97,4
1,63,119,1488
1,62,123,40
1,53,117,8
1,58,125,0
1,46,119,16
1,65,124,88
1,53,104,0
1,41,117,4
1,57,113,0
1,60,126,4
1,55,102,16
1,64,123,4
1,58,123,4
1,48,97,8
1,62,113,36
1,46,117,4
1,56,125,0
1,53,115,4
1,41,109,76
1,60,127,4
1,57,115,4
1,65,123,4
1,53,93,8
1,65,88,1036
1,60,90,0
1,62,78,4
1,57,86,0
1,62,93,460
1,65,98,0
1,60,98,4
1,57,93,0
1,60,86,52
1,62,88,0
1,65,83,4
1,57,77,0
1,65,100,452
1,57,97,4
1,60,106,4
1,62,93,0
1,65,107,580
1,60,117,0
1,57,107,4
1,62,106,0
1,58,121,4156
1,53,104,0
1,62,100,4
1,62,100,444
1,58,121,4
1,53,93,0
1,58,115,712
1,62,98,0
1,53,92,4
1,62,90,72
1,53,84,0
1,58,94,4
1,58,127,308
1,53,109,4
1,62,111,4
1,64,123,3900
1,58,127,0
1,55,121,4
1,60,127,0
1,56,127,1336
1,53,100,4
1,62,109,0
1,65,111,336
1,57,106,0
1,60,124,4
1,62,123,148
1,65,98,0
1,56,117,4
1,56,108,260
1,65,121,4
1,62,115,0
1,57,113,244
1,65,119,4
1,60,127,0
2,29,127,4200
2,29,126,112
2,34,127,36
2,29,127,60
2,36,117,308
2,34,125,44
2,29,127,32
2,29,119,808
2,33,106,48
2,36,90,44
2,38,73,28
2,36,71,256
2,41,88,28
2,38,83,384
2,36,83,380
2,33,86,20
2,29,90,24
2,33,92,8
2,36,83,52
2,38,76,40
2,36,65,252
2,41,88,20
2,39,97,388
2,38,92,356
2,36,93,8
2,34,77,8
2,38,77,12
2,41,85,12
2,43,84,388
2,41,83,220
2,34,86,16
2,38,85,384
2,41,81,24
2,38,88,24
2,29,100,28
2,33,92,20
2,36,84,36
2,38,72,28
2,36,66,256
2,41,75,8
2,33,86,388
2,36,90,8
2,38,76,16
2,36,109,4
2,34,110,1168
2,38,89,48
2,41,80,28
2,38,91,392
2,29,111,68
2,33,96,68
2,34,106,52
2,35,109,48
2,36,104,60
2,36,96,64
2,38,96,128
2,39,125,76
2,40,113,12
2,29,127,52
2,29,126,112
2,34,127,36
2,29,127,56
2,36,117,304
2,34,125,44
2,29,127,24
2,29,119,808
2,33,106,48
2,36,90,48
2,38,73,28
2,36,71,252
2,41,88,24
2,38,83,384
2,36,83,384
2,33,86,20
2,29,90,20
2,33,92,8
2,36,83,52
2,38,76,36
2,36,65,256
2,41,88,20
2,39,97,388
2,38,92,356
2,36,93,8
2,34,77,12
2,38,77,12
2,41,85,12
2,43,84,392
2,41,83,224
2,34,86,20
2,38,85,384
2,41,81,24
2,38,88,24
2,29,100,24
2,33,92,20
2,36,84,36
2,38,72,28
2,36,66,256
2,41,75,8
2,33,86,0
2,36,90,12
2,38,76,16
2,36,109,4
2,34,110,1168
2,38,89,48
2,41,80,28
2,38,91,392
2,29,111,68
2,33,96,68
2,34,106,52
2,35,109,48
2,36,104,60
2,36,96,56
2,38,96,132
2,39,125,80
2,40,113,12
2,29,127,52
2,29,126,112
2,34,127,36
2,29,127,56
2,36,117,304
2,34,125,44
2,29,127,24
2,29,119,804
2,33,106,52
2,36,90,48
2,38,73,24
2,36,71,260
2,41,88,24
2,38,83,388
2,36,83,380
2,33,86,24
2,29,90,20
2,33,92,12
2,36,83,52
2,38,76,40
2,36,65,252
2,41,88,20
2,39,97,384
2,38,92,356
2,36,93,40
2,34,77,8
2,38,77,12
2,41,85,12
2,43,84,396
2,41,83,224
2,34,86,16
2,38,85,384
2,41,81,24
2,38,88,24
2,29,100,24
2,33,92,16
2,36,84,40
2,38,72,32
2,36,66,252
2,41,75,8
2,33,86,384
2,36,90,8
2,38,76,16
2,36,109,4
2,34,110,1164
2,38,89,44
2,41,80,28
2,38,91,0
2,29,111,68
2,33,96,64
2,34,106,48
2,35,109,48
2,36,104,56
2,36,96,60
2,38,96,124
2,39,125,72
2,40,113,20
2,29,127,56
2,29,126,112
2,34,127,36
2,29,127,56
2,36,117,304
2,34,125,44
2,29,127,24
2,29,119,808
2,33,106,52
2,36,90,52
2,38,73,28
2,36,71,252
2,41,88,24
2,38,83,0
2,36,83,384
2,33,86,20
2,29,90,20
2,33,92,8
2,36,83,52
2,38,76,36
2,36,65,252
2,41,88,20
2,39,97,388
2,38,92,356
2,36,93,8
2,34,77,12
2,38,77,12
2,41,85,12
2,43,84,396
2,41,83,216
2,34,86,16
2,38,85,384
2,41,81,24
2,38,88,20
2,29,100,24
2,33,92,24
2,36,84,36
2,38,72,32
2,36,66,256
2,41,75,12
2,33,86,384
2,36,90,8
2,38,76,16
2,36,109,4
2,34,101,1176
2,38,90,28
2,41,97,20
2,38,93,380
2,29,104,32
2,33,100,36
2,34,90,32
2,38,95,400
2,29,124,16
3,60,111,59472
3,57,88,0
3,65,104,8
3,60,111,112
3,57,96,0
3,65,109,4
3,57,91,108
3,60,109,0
3,65,106,12
3,65,111,124
3,57,95,4
3,60,117,0
3,57,92,8
3,60,107,116
3,65,115,8
3,57,100,104
3,60,117,4
3,65,109,4
3,57,98,100
3,60,119,0
3,65,109,12
3,57,91,108
3,60,109,0
3,65,107,12
3,60,100,112
3,57,83,0
3,65,101,8
3,60,98,124
3,57,84,0
3,65,107,16
3,57,96,132
3,60,117,0
3,65,107,16
3,60,115,128
3,65,109,4
3,57,92,4
3,60,109,104
3,57,92,12
3,63,121,16
3,60,115,128
3,63,119,8
3,57,97,0
3,60,113,108
3,57,95,8
3,63,121,0
3,60,119,116
3,63,123,4
3,57,96,0
3,58,121,152
3,53,109,4
3,62,101,4
3,58,115,124
3,53,96,0
3,62,96,4
3,53,100,132
3,58,117,4
3,62,100,4
3,58,119,124
3,53,93,12
3,62,106,0
3,58,121,128
3,62,109,4
3,53,100,4
3,58,119,132
3,53,100,0
3,62,101,4
3,58,119,108
3,53,93,4
3,62,101,4
3,58,119,116
3,53,101,4
3,62,104,4
3,57,86,124
3,60,109,12
3,65,113,4
3,57,100,132
3,60,117,0
3,65,117,4
3,60,109,120
3,57,92,4
3,65,104,0
3,60,113,132
3,57,98,4
3,65,102,4
3,60,109,116
3,57,95,12
3,65,102,4
3,57,91,104
3,60,107,20
3,65,91,8
3,57,102,112
3,60,126,4
3,65,119,8
3,57,91,116
3,60,123,0
3,65,121,4
3,55,115,148
3,64,124,4
3,58,127,4
3,53,91,1240
3,56,123,4
3,62,107,4
3,56,121,108
3,53,89,0
3,62,104,4
3,53,93,104
3,56,125,4
3,62,106,8
3,62,104,104
3,53,96,4
3,56,123,4
3,57,90,172
3,60,107,0
3,65,111,4
3,57,97,124
3,60,117,0
3,65,113,4
3,53,97,140
3,56,123,4
3,62,98,8
3,56,125,116
3,53,96,0
3,62,113,4
3,55,111,152
3,64,127,4
3,58,127,0
3,60,111,18420
3,57,88,4
3,65,104,4
3,60,111,112
3,57,96,4
3,65,109,0
3,57,91,104
3,60,109,0
3,65,106,24
3,65,111,124
3,57,95,0
3,60,117,4
3,57,92,8
3,60,107,128
3,65,115,0
3,57,100,104
3,60,117,4
3,65,109,4
3,57,98,100
3,60,119,0
3,65,109,12
3,57,91,104
3,60,109,4
3,65,107,12
3,60,100,112
3,57,83,0
3,65,101,8
3,60,98,124
3,57,84,0
3,65,107,20
3,57,96,132
3,60,117,0
3,65,107,16
3,60,115,124
3,65,109,8
3,57,92,0
3,60,109,104
3,57,92,12
3,63,121,16
3,60,115,132
3,63,119,4
3,57,97,0
3,60,113,108
3,57,95,8
3,63,121,4
3,60,119,112
3,63,123,4
3,57,96,0
3,58,121,152
3,53,109,4
3,62,101,0
3,58,115,124
3,53,96,0
3,62,96,4
3,53,100,140
3,58,117,0
3,62,100,8
3,58,119,128
3,53,93,8
3,62,106,4
3,58,121,128
3,62,109,4
3,53,100,4
3,58,119,128
3,53,100,0
3,62,101,4
3,58,119,112
3,53,93,4
3,62,101,0
3,58,119,116
3,53,101,4
3,62,104,0
3,57,86,128
3,60,109,8
3,65,113,4
3,57,100,128
3,60,117,0
3,65,117,8
3,60,109,120
3,57,92,4
3,65,104,0
3,60,113,132
3,57,98,4
3,65,102,0
3,60,109,116
3,57,95,12
3,65,102,4
3,57,91,100
3,60,107,24
3,65,91,8
3,57,102,116
3,60,126,0
3,65,119,8
3,57,91,116
3,60,123,0
3,65,121,4
3,55,115,160
3,64,124,4
3,58,127,0
3,53,91,1248
3,56,123,4
3,62,107,4
3,56,121,104
3,53,89,0
3,62,104,4
3,53,93,104
3,56,125,4
3,62,106,8
3,62,104,104
3,53,96,0
3,56,123,4
3,57,90,172
3,60,107,0
3,65,111,4
3,57,97,120
3,60,117,4
3,65,113,4
3,53,97,136
3,56,123,8
3,62,98,8
3,56,125,112
3,53,96,4
3,62,113,0
3,55,111,152
3,64,127,4
3,58,127,0
3,60,111,18420
3,57,88,0
3,65,104,8
3,60,111,112
3,57,96,4
3,65,109,0
3,57,91,104
3,60,109,4
3,65,106,20
3,65,111,124
3,57,95,4
3,60,117,0
3,57,92,8
3,60,107,128
3,65,115,0
3,57,100,108
3,60,117,0
3,65,109,4
3,57,98,100
3,60,119,0
3,65,109,12
3,57,91,108
3,60,109,4
3,65,107,8
3,60,100,108
3,57,83,4
3,65,101,8
3,60,98,124
3,57,84,0
3,65,107,16
3,57,96,132
3,60,117,0
3,65,107,12
3,60,115,124
3,65,109,4
3,57,92,4
3,60,109,104
3,57,92,12
3,63,121,16
3,60,115,132
3,63,119,4
3,57,97,0
3,60,113,108
3,57,95,8
3,63,121,0
3,60,119,116
3,63,123,0
3,57,96,4
3,58,121,152
3,53,109,4
3,62,101,4
3,58,115,124
3,53,96,0
3,62,96,8
3,53,100,140
3,58,117,0
3,62,100,8
3,58,119,124
3,53,93,12
3,62,106,0
3,58,121,128
3,62,109,4
3,53,100,0
3,58,119,128
3,53,100,0
3,62,101,4
3,58,119,108
3,53,93,4
3,62,101,4
3,58,119,116
3,53,101,4
3,62,104,0
3,57,86,124
3,60,109,12
3,65,113,4
3,57,100,124
3,60,117,4
3,65,117,8
3,60,109,120
3,57,92,4
3,65,104,0
3,60,113,132
3,57,98,4
3,65,102,4
3,60,109,120
3,57,95,12
3,65,102,4
3,57,91,104
3,60,107,16
3,65,91,12
3,57,102,116
3,60,126,0
3,65,119,12
3,57,91,116
3,60,123,0
3,65,121,4
3,55,115,156
3,64,124,4
3,58,127,4
3,53,88,1248
3,56,123,0
3,62,102,4
3,53,86,68
3,56,108,8
3,62,96,4
3,53,90,0
3,56,119,124
3,62,104,8
3,53,95,84
3,56,125,4
3,62,107,4
3,57,98,432
3,60,123,0
3,65,113,4
3,56,84,184
3,62,107,8
3,65,106,4
3,56,96,212
3,62,98,4
3,65,100,0
3,57,101,248
3,60,121,4
3,65,107,4
4,60,107,4012
4,65,107,36
4,69,93,84
4,60,81,32
4,65,104,68
4,69,93,56
4,60,78,28
4,65,106,76
4,69,95,84
4,60,75,16
4,65,103,52
4,69,104,72
4,60,89,44
4,65,97,68
4,65,101,1424
4,70,105,80
4,74,95,96
4,65,65,16
4,70,107,68
4,74,95,100
4,65,87,44
4,70,105,68
4,74,89,100
4,65,84,16
4,70,105,52
4,74,95,88
4,65,95,20
4,69,101,56
4,72,97,1024
4,74,93,64
4,72,82,20
4,76,107,76
4,76,97,76
4,76,104,76
4,76,104,100
4,76,99,92
4,74,93,64
4,74,104,104
4,65,104,88
4,65,99,68
4,65,107,84
4,65,107,108
4,72,99,1012
4,74,106,72
4,72,95,44
4,77,107,80
4,75,107,96
4,72,107,56
4,69,99,64
4,77,107,72
4,77,99,88
4,75,107,28
4,74,95,80
4,72,107,48
4,65,106,72
4,69,97,80
4,72,107,336
4,72,89,68
4,70,107,80
4,74,99,84
4,77,107,96
4,79,106,76
4,77,87,36
4,80,107,56
4,80,107,68
4,79,104,56
4,77,107,88
4,74,101,56
4,72,106,72
4,72,97,688
4,74,106,88
4,72,87,36
4,79,106,60
4,76,103,40
4,72,107,84
4,74,103,108
4,72,80,248
4,77,89,56
4,65,82,16
4,67,97,132
4,65,78,32
4,68,107,76
4,68,107,144
4,65,107,28
4,60,107,72
4,65,107,28
4,69,93,84
4,60,81,32
4,65,104,68
4,69,93,56
4,60,78,24
4,65,106,76
4,69,95,84
4,60,75,16
4,65,103,48
4,69,104,72
4,60,89,44
4,65,97,64
4,65,101,1428
4,70,105,76
4,74,95,96
4,65,65,16
4,70,107,64
4,74,95,100
4,65,87,44
