track,note,velocity,time
0,46,104,159
0,48,93,32
0,50,104,36
0,48,104,31
0,46,105,33
0,63,127,23
0,58,97,3
0,63,97,1
0,67,97,0
0,39,109,1
0,51,127,1
0,39,116,0
0,49,63,2
0,58,127,0
0,35,112,1
0,70,127,0
0,63,127,0
0,67,127,0
0,75,127,6
0,79,127,5
0,51,83,8
0,42,41,1
0,58,83,0
0,63,83,0
0,67,83,2
0,51,127,15
0,43,114,2
0,42,76,1
0,38,102,0
0,70,98,0
0,75,118,0
0,58,127,0
0,63,127,0
0,67,127,0
0,51,123,7
0,42,40,3
0,70,105,0
0,75,125,0
0,58,123,0
0,63,123,0
0,67,123,2
0,51,127,16
0,46,116,0
0,35,112,1
0,42,81,1
0,58,127,0
0,63,127,0
0,67,127,2
0,42,38,1
0,51,127,3
0,43,104,1
0,42,76,1
0,38,102,0
0,58,127,0
0,63,127,0
0,67,127,1
0,42,40,5
0,51,111,0
0,39,97,0
0,70,80,1
0,72,100,0
0,58,111,1
0,63,111,1
0,67,111,0
0,63,127,4
0,67,127,1
0,63,97,5
0,67,97,1
0,60,97,1
0,55,127,2
0,36,109,1
0,35,112,1
0,67,103,0
0,42,76,1
0,60,127,0
0,72,127,0
0,75,123,1
0,63,127,1
0,67,127,0
0,75,127,0
0,79,127,7
0,55,80,8
0,42,36,1
0,67,96,1
0,60,80,0
0,75,116,1
0,63,80,0
0,67,80,0
0,55,123,15
0,42,79,2
0,39,105,0
0,38,102,1
0,60,123,0
0,63,123,1
0,67,123,1
0,48,123,8
0,55,121,0
0,42,45,1
0,60,121,1
0,63,121,0
0,67,121,1
0,48,112,5
0,55,127,1
0,43,114,1
0,42,87,1
0,35,112,0
0,60,127,0
0,63,127,0
0,67,127,2
0,48,105,9
0,55,104,0
0,42,40,1
0,60,104,0
0,63,104,1
0,67,104,0
0,48,112,1
0,55,127,1
0,39,100,1
0,42,84,1
0,38,102,0
0,60,127,0
0,63,127,0
0,67,127,2
0,48,104,1
0,55,112,0
0,46,52,1
0,36,94,0
0,60,112,1
0,63,112,0
0,67,112,2
0,60,127,0
0,65,127,0
0,65,97,5
0,68,97,1
0,60,97,0
0,41,127,2
0,53,127,1
0,41,105,0
0,42,91,2
0,56,127,0
0,35,112,1
0,68,127,0
0,60,127,0
0,65,127,1
0,72,127,0
0,77,127,7
0,42,41,10
0,53,127,16
0,44,109,1
0,75,127,0
0,42,76,1
0,38,102,0
0,72,107,0
0,56,127,0
0,60,127,1
0,65,127,0
0,42,40,6
0,53,114,0
0,75,123,0
0,72,103,1
0,56,114,0
0,60,114,0
0,65,114,1
0,53,127,17
0,48,101,1
0,42,81,1
0,35,112,0
0,56,127,0
0,60,127,0
0,65,127,1
0,53,82,3
0,42,38,2
0,56,82,0
0,60,82,0
0,65,82,1
0,53,127,2
0,44,107,1
0,42,76,1
0,38,102,0
0,56,127,0
0,60,127,0
0,65,127,1
0,53,104,1
0,75,109,1
0,72,89,0
0,41,93,0
0,42,40,1
0,56,104,0
0,60,104,0
0,65,104,2
0,62,127,2
0,68,127,0
0,58,97,7
0,62,97,0
0,65,97,0
0,53,127,1
0,77,125,1
0,70,105,0
0,46,109,0
0,42,76,1
0,35,112,1
0,58,127,0
0,56,127,0
0,70,127,1
0,62,127,1
0,65,127,1
0,74,127,0
0,77,127,4
0,53,92,0
0,42,36,1
0,77,114,1
0,70,94,0
0,58,92,0
0,56,92,0
0,62,92,1
0,65,92,1
0,53,127,16
0,44,111,1
0,42,79,1
0,38,102,0
0,58,127,0
0,56,127,0
0,62,127,0
0,65,127,1
0,46,112,8
0,53,116,0
0,42,45,2
0,58,116,0
0,56,116,0
0,62,116,0
0,65,116,1
0,46,116,6
0,42,87,1
0,53,127,0
0,43,111,0
0,35,112,1
0,58,127,0
0,56,127,0
0,62,127,0
0,65,127,2
0,46,112,9
0,53,96,0
0,42,40,1
0,58,96,0
0,56,96,1
0,62,96,0
0,65,96,1
0,46,114,5
0,53,127,1
0,41,109,0
0,42,84,1
0,38,102,0
0,58,127,0
0,56,127,0
0,62,127,1
0,65,127,0
0,46,105,8
0,53,105,1
0,42,42,1
0,38,73,0
0,58,105,0
0,56,105,0
0,62,105,0
0,65,105,1
0,63,127,0
0,58,97,7
0,67,97,0
0,63,97,0
0,39,127,0
0,51,127,0
0,39,112,1
0,49,59,1
0,58,127,0
0,35,112,1
0,70,127,0
0,63,127,0
0,67,127,1
0,75,127,1
0,79,127,9
0,51,82,7
0,42,41,3
0,70,109,0
0,58,82,0
0,63,82,1
0,67,82,0
0,51,125,14
0,43,112,1
0,42,76,1
0,38,102,0
0,58,125,0
0,70,112,0
0,63,125,0
0,67,125,1
0,51,121,2
0,42,40,2
0,58,121,0
0,67,87,1
0,63,121,0
0,67,121,1
0,51,127,16
0,42,81,1
0,46,109,0
0,35,112,1
0,58,127,0
0,70,111,1
0,63,127,0
0,67,127,0
0,51,93,2
0,42,38,2
0,58,93,0
0,67,82,1
0,63,93,0
0,67,93,2
0,51,125,13
0,43,107,1
0,42,76,1
0,38,102,0
0,58,125,0
0,70,123,0
0,63,125,0
0,67,125,1
0,51,105,1
0,39,90,1
0,42,40,1
0,58,105,1
0,70,78,0
0,63,105,0
0,67,105,0
0,63,127,5
0,67,127,1
0,63,97,7
0,60,97,0
0,67,97,0
0,55,127,1
0,36,102,0
0,60,127,1
0,42,76,1
0,72,127,0
0,35,112,1
0,72,125,0
0,63,127,0
0,67,127,1
0,75,127,0
0,79,127,1
0,55,58,9
0,42,36,1
0,60,58,0
0,63,58,2
0,67,58,1
0,55,127,15
0,39,105,1
0,42,79,2
0,38,102,0
0,60,127,0
0,63,127,1
0,67,127,1
0,67,114,6
0,55,114,0
0,42,45,2
0,60,114,0
0,63,114,1
0,67,114,1
0,55,127,17
0,43,107,0
0,42,87,1
0,35,112,1
0,60,127,0
0,63,127,0
0,67,127,2
0,55,75,2
0,42,40,1
0,60,75,1
0,63,75,0
0,67,75,0
0,55,125,2
0,39,102,1
0,42,84,2
0,38,102,0
0,60,125,0
0,63,125,0
0,67,125,0
0,48,104,1
0,55,107,1
0,36,91,1
0,42,42,1
0,60,107,0
0,63,107,1
0,67,107,1
0,60,127,5
0,65,127,0
0,60,97,7
0,65,97,0
0,68,97,0
0,41,93,2
0,53,127,1
0,35,112,0
0,41,105,0
0,42,91,1
0,56,127,0
0,68,127,0
0,60,127,0
0,65,127,1
0,72,127,6
0,77,127,7
0,53,82,8
0,68,104,0
0,42,41,1
0,56,82,0
0,60,82,0
0,65,82,2
0,53,127,16
0,68,116,0
0,44,105,1
0,42,76,1
0,38,102,0
0,56,127,0
0,60,127,0
0,65,127,1
0,53,125,2
0,42,40,3
0,68,118,0
0,56,125,0
0,60,125,0
0,65,125,1
0,53,127,2
0,48,100,1
0,35,112,1
0,42,81,0
0,68,116,0
0,56,127,0
0,60,127,1
0,65,127,1
0,53,101,8
0,68,125,1
0,42,38,1
0,56,101,0
0,60,101,0
0,65,101,1
0,53,127,16
0,44,109,1
0,42,76,1
0,38,102,0
0,56,127,0
0,60,127,0
0,65,127,0
0,53,107,1
0,41,94,0
0,42,40,1
0,70,127,1
0,56,107,0
0,60,107,0
0,65,107,1
0,62,127,1
0,68,127,1
0,58,97,3
0,62,97,0
0,65,97,1
0,53,127,2
0,46,104,1
0,35,112,1
0,58,127,0
0,42,76,1
0,56,127,0
0,70,127,0
0,62,127,0
0,65,127,1
0,74,127,0
0,77,127,2
0,53,78,2
0,42,36,1
0,58,78,1
0,56,78,0
0,62,78,1
0,65,78,0
0,53,127,16
0,44,111,0
0,42,79,1
0,38,102,1
0,58,127,0
0,56,127,0
0,62,127,0
0,65,127,1
0,46,112,1
0,53,112,0
0,42,45,2
0,58,112,0
0,56,112,0
0,62,112,0
0,65,112,2
0,46,111,2
0,42,87,1
0,53,127,0
0,43,107,0
0,35,112,1
0,58,127,0
0,56,127,0
0,62,127,0
0,65,127,1
0,48,107,8
0,53,74,0
0,46,58,0
0,58,74,1
0,56,74,0
0,62,74,0
0,65,74,1
0,46,114,15
0,53,127,0
0,41,118,1
0,42,84,1
0,38,102,0
0,58,127,0
0,56,127,0
0,62,127,1
0,65,127,1
0,43,102,0
0,53,112,1
0,46,52,2
0,58,112,0
0,56,112,0
0,62,112,0
0,65,112,0
0,63,127,0
0,67,97,0
0,58,97,1
0,63,97,0
0,39,111,3
0,51,127,0
0,42,91,1
0,39,116,0
0,35,112,1
0,58,127,0
0,70,127,0
0,63,127,1
0,67,127,1
0,75,127,0
0,79,127,7
0,51,91,7
0,58,91,2
0,42,41,1
0,70,112,0
0,63,91,1
0,67,91,0
0,51,125,14
0,43,118,0
0,42,76,1
0,38,102,1
0,58,125,0
0,70,112,0
0,63,125,0
0,67,125,2
0,51,118,5
0,42,40,3
0,58,118,0
0,67,93,0
0,63,118,1
0,67,118,1
0,51,125,11
0,46,98,1
0,35,112,1
0,42,81,0
0,58,125,0
0,70,121,0
0,63,125,1
0,67,125,0
0,42,38,5
0,51,67,0
0,58,67,0
0,67,90,0
0,63,67,0
0,67,67,1
0,51,127,15
0,43,104,1
0,42,76,1
0,38,102,0
0,58,127,0
0,70,121,0
0,63,127,0
0,67,127,0
0,51,98,2
0,39,93,0
0,42,40,1
0,58,98,0
0,63,98,0
0,67,98,1
0,63,127,0
0,67,127,1
0,67,97,2
0,60,97,0
0,63,97,0
0,55,127,3
0,36,107,0
0,72,118,1
0,35,112,1
0,60,127,0
0,42,76,1
0,72,127,0
0,63,127,0
0,67,127,1
0,75,127,0
0,79,127,1
0,55,84,9
0,42,36,1
0,60,84,0
0,63,84,0
0,67,84,1
0,55,127,15
0,42,79,2
0,39,111,0
0,38,102,1
0,60,127,0
0,63,127,0
0,67,127,1
0,55,114,5
0,42,45,2
0,67,111,0
0,60,114,0
0,63,114,0
0,67,114,2
0,55,123,16
0,43,100,1
0,35,112,2
0,42,87,0
0,60,123,0
0,63,123,0
0,67,123,1
0,55,86,4
0,42,40,1
0,60,86,0
0,63,86,0
0,67,86,0
0,55,127,4
0,39,101,1
0,42,84,1
0,38,102,0
0,60,127,0
0,63,127,0
0,67,127,2
0,55,107,0
0,36,97,0
0,42,42,1
0,60,107,0
0,67,123,0
0,63,107,0
0,67,107,2
0,63,127,0
0,63,97,3
0,68,97,0
0,60,97,1
0,51,127,1
0,42,91,1
0,68,123,0
0,44,105,0
0,35,112,1
0,56,127,0
0,68,127,0
0,60,127,0
0,68,127,1
0,72,127,3
0,80,127,4
0,51,101,1
0,42,41,2
0,56,101,0
0,60,101,0
0,68,101,2
0,51,127,16
0,44,123,1
0,42,76,1
0,38,102,0
0,68,116,0
0,56,127,0
0,60,127,0
0,68,127,1
0,51,104,0
0,42,40,1
0,56,104,0
0,60,104,0
0,68,104,1
0,65,127,5
0,68,127,1
0,58,97,2
0,62,97,0
0,65,97,0
0,53,127,3
0,46,102,1
0,35,112,1
0,42,81,0
0,58,127,0
0,56,127,0
0,70,127,1
0,70,123,1
0,62,127,0
0,65,127,0
0,74,127,0
0,77,127,7
0,53,70,8
0,42,38,1
0,38,87,0
0,58,70,0
0,56,70,0
0,70,125,0
0,62,70,1
0,65,70,1
0,53,127,16
0,46,112,1
0,46,58,1
0,38,100,0
0,58,127,0
0,56,127,0
0,62,127,0
0,65,127,1
0,53,102,0
0,58,102,2
0,56,102,1
0,62,102,1
0,65,102,0
0,63,127,0
0,58,97,6
0,63,97,0
0,67,97,0
0,51,127,3
0,67,127,1
0,39,118,0
0,42,88,1
0,58,127,0
0,35,112,1
0,38,100,0
0,70,127,0
0,63,127,0
0,67,127,1
0,75,127,2
0,79,127,11
0,58,111,12
0,60,112,1
0,62,92,4
0,38,82,1
0,60,105,0
0,38,102,2
0,58,109,5
0,38,106,1
0,63,127,3
0,63,97,7
0,68,97,0
0,60,97,0
0,44,107,1
0,51,127,1
0,49,61,1
0,32,112,0
0,35,112,1
0,56,127,0
0,68,127,0
0,60,127,0
0,68,127,1
0,72,127,1
0,80,127,5
0,44,88,8
0,51,105,0
0,42,41,1
0,56,105,0
0,60,105,1
0,68,105,1
0,48,94,16
0,51,127,0
0,36,104,1
0,42,76,1
0,38,102,0
0,56,127,0
0,75,121,1
0,72,101,1
0,60,127,0
0,68,127,0
0,48,90,8
0,51,121,0
0,42,40,1
0,56,121,1
0,75,127,0
0,72,107,0
0,60,121,0
0,68,121,1
0,51,89,16
0,51,127,0
0,39,105,0
0,35,112,1
0,42,81,0
0,56,127,0
0,60,127,0
0,68,127,1
0,51,89,7
0,51,98,1
0,42,38,1
0,56,98,0
0,60,98,0
0,68,98,2
0,48,91,3
0,51,127,0
0,42,76,1
0,44,109,0
0,38,102,1
0,56,127,0
0,60,127,0
0,68,127,1
0,44,98,1
0,51,88,0
0,56,88,1
0,42,40,1
0,75,101,0
0,72,81,0
0,60,88,1
0,68,88,0
0,62,127,5
0,68,127,0
0,58,97,1
0,62,97,0
0,65,97,0
0,46,93,2
0,53,127,0
0,46,92,1
0,35,112,1
0,58,127,0
0,42,76,1
0,56,127,0
0,70,127,0
0,77,125,1
0,74,105,0
0,62,127,1
0,65,127,1
0,74,127,0
0,77,127,1
0,46,94,8
0,53,80,0
0,42,36,1
0,58,80,1
0,56,80,0
0,62,80,0
0,77,127,0
0,74,107,1
0,65,80,1
0,50,91,15
0,53,127,0
0,42,79,1
0,44,112,0
0,38,102,1
0,58,127,0
0,56,127,0
0,62,127,0
0,65,127,2
0,50,86,8
0,53,116,0
0,42,45,2
0,58,116,0
0,56,116,0
0,62,116,0
0,65,116,0
0,53,88,15
0,53,127,0
0,43,107,1
0,42,87,1
0,58,127,0
0,56,127,0
0,35,112,1
0,62,127,0
0,65,127,0
0,53,82,7
0,42,40,3
0,50,88,15
0,53,127,0
0,41,104,1
0,42,84,1
0,58,127,0
0,56,127,0
0,38,102,1
0,62,127,0
0,65,127,1
0,46,87,7
0,53,107,0
0,42,44,1
0,39,88,0
0,58,107,1
0,56,107,0
0,62,107,0
0,65,107,2
0,63,127,0
0,60,97,4
0,63,97,0
0,68,97,0
0,44,89,0
0,51,127,1
0,32,112,1
0,42,91,1
0,56,127,0
0,35,112,1
0,68,127,0
0,60,127,0
0,68,127,1
0,72,127,0
0,80,127,0
0,44,87,8
0,51,94,0
0,42,41,1
0,56,94,1
0,60,94,0
0,68,94,1
0,48,91,4
0,51,127,0
0,36,101,0
0,42,76,1
0,38,102,1
0,75,127,0
0,72,107,0
0,56,127,0
0,60,127,0
0,68,127,1
0,48,85,6
0,51,118,0
0,42,40,1
0,56,118,0
0,60,118,1
0,68,118,2
0,51,91,2
0,51,127,0
0,39,104,1
0,35,112,1
0,42,81,0
0,56,127,0
0,75,127,0
0,72,107,1
0,60,127,1
0,68,127,0
0,51,83,8
0,42,38,2
0,48,92,2
0,51,127,0
0,44,109,1
0,42,76,1
0,38,102,0
0,56,127,0
0,75,123,0
0,72,103,1
0,60,127,1
0,68,127,0
0,44,74,6
0,51,116,0
0,42,40,1
0,56,116,1
0,60,116,1
0,68,116,1
0,62,127,3
0,68,127,0
0,62,97,2
0,65,97,0
0,58,97,0
0,46,96,1
0,53,127,0
0,42,76,0
0,35,112,1
0,46,98,0
0,74,102,0
0,77,122,0
0,58,127,1
0,56,127,0
0,70,127,1
0,62,127,0
0,65,127,1
0,74,127,2
0,77,127,1
0,46,86,9
0,53,73,0
0,42,36,2
0,58,73,0
0,56,73,0
0,62,73,0
0,65,73,0
0,50,91,0
0,53,127,0
0,44,114,1
0,42,79,1
0,38,102,0
0,58,127,0
0,56,127,0
0,62,127,0
0,65,127,1
0,50,88,2
0,53,111,0
0,42,45,1
0,58,111,0
0,56,111,1
0,62,111,0
0,65,111,1
0,53,91,2
0,53,127,1
0,43,111,0
0,42,87,1
0,35,112,0
0,58,127,0
0,56,127,0
0,62,127,0
0,65,127,1
0,53,81,9
0,53,111,1
0,42,40,1
0,58,111,0
