track,note,velocity,time
1,72,80,2676
1,67,86,0
1,64,75,0
1,48,80,4
1,67,53,76
1,64,33,0
1,72,41,4
1,72,66,76
1,64,49,4
1,67,66,0
1,67,85,84
1,64,67,0
1,72,84,4
1,72,49,76
1,64,47,0
1,67,64,0
1,52,70,8
1,64,46,0
1,67,65,4
1,72,60,0
1,55,72,88
1,67,72,4
1,72,75,0
1,64,55,0
1,64,39,76
1,67,60,0
1,72,49,0
1,72,61,84
1,67,65,0
1,64,47,4
1,72,73,4
1,64,59,0
1,67,74,0
1,52,72,4
1,67,62,80
1,64,43,0
1,72,53,0
1,55,57,88
1,67,61,0
1,72,66,0
1,64,46,4
1,69,70,84
1,64,53,0
1,72,74,4
1,45,84,0
1,72,56,72
1,64,35,0
1,69,52,0
1,72,53,80
1,69,48,4
1,64,40,0
1,64,65,84
1,72,80,4
1,69,76,0
1,69,54,72
1,64,35,0
1,72,53,0
1,64,51,84
1,69,63,0
1,72,66,4
1,48,58,0
1,72,73,84
1,69,70,0
1,64,58,0
1,52,75,8
1,69,51,72
1,72,53,4
1,64,36,0
1,69,63,92
1,72,66,0
1,64,48,0
1,64,65,4
1,72,82,0
1,69,76,0
1,48,61,8
1,64,45,80
1,72,61,0
1,69,61,0
1,52,57,80
1,72,69,4
1,64,51,0
1,69,66,0
1,72,81,88
1,65,61,4
1,69,71,0
1,41,80,4
1,72,56,80
1,65,45,4
1,69,53,0
1,72,61,84
1,69,55,0
1,65,46,0
1,65,75,84
1,72,85,0
1,69,85,0
1,69,67,68
1,72,67,4
1,65,52,0
1,45,53,20
1,69,65,0
1,65,55,4
1,72,73,0
1,43,66,92
1,71,85,0
1,74,77,0
1,65,66,0
1,71,58,72
1,74,51,0
1,65,43,0
1,74,52,84
1,71,57,0
1,65,40,4
1,71,89,12
1,74,76,0
1,64,69,4
1,47,62,0
1,74,48,76
1,71,63,0
1,64,39,0
1,50,59,12
1,74,60,0
1,71,67,4
1,64,52,0
1,72,88,84
1,67,59,0
1,76,84,4
1,48,72,4
1,72,57,72
1,67,38,4
1,76,56,0
1,72,63,84
1,67,41,0
1,76,61,0
1,76,81,88
1,72,82,0
1,67,55,4
1,72,59,76
1,76,50,0
1,67,33,0
1,76,67,88
1,67,47,0
1,72,73,0
1,52,61,4
1,72,75,88
1,76,66,0
1,67,50,0
1,55,63,4
1,67,35,84
1,76,51,0
1,72,62,0
1,72,61,88
1,67,37,0
1,76,50,0
1,52,73,8
1,67,55,0
1,76,78,0
1,72,85,4
1,67,33,80
1,72,60,0
1,76,52,0
1,55,52,16
1,76,67,0
1,67,41,4
1,72,66,0
1,72,88,84
1,67,63,0
1,76,85,4
1,48,71,4
1,76,59,72
1,67,33,0
1,72,65,4
1,67,37,84
1,72,65,0
1,76,60,0
1,72,83,84
1,67,53,0
1,76,78,4
1,72,58,76
1,67,29,0
1,76,36,0
1,52,69,4
1,67,38,0
1,76,62,4
1,72,66,0
1,67,59,84
1,76,82,4
1,70,85,0
1,55,76,4
1,70,66,76
1,76,63,0
1,67,36,0
1,70,71,80
1,76,70,4
1,67,45,0
1,70,90,88
1,67,65,0
1,76,89,4
1,52,74,4
1,70,65,68
1,76,61,4
1,67,29,0
1,70,76,12
1,67,47,0
1,76,67,0
1,55,55,4
1,72,83,80
1,69,52,4
1,77,92,0
1,41,60,4
1,72,56,72
1,69,32,4
1,77,54,0
1,72,59,88
1,77,53,0
1,69,30,4
1,69,62,80
1,77,85,4
1,72,88,0
1,72,61,68
1,77,40,0
1,69,27,4
1,72,70,8
1,77,68,4
1,69,43,0
1,45,64,8
1,77,85,76
1,72,89,4
1,69,61,0
1,48,72,8
1,69,35,72
1,77,48,4
1,72,66,0
1,77,70,84
1,69,42,4
1,72,68,0
1,77,86,8
1,72,88,0
1,69,57,4
1,45,61,4
1,77,61,72
1,72,68,0
1,69,37,0
1,72,74,92
1,69,44,4
1,77,68,0
1,48,66,12
1,76,80,0
1,67,60,0
1,72,84,0
1,76,71,68
1,72,70,0
1,67,39,0
1,67,44,80
1,76,65,4
1,72,71,0
1,72,89,88
1,67,59,0
1,76,77,0
1,72,70,72
1,76,54,0
1,67,39,0
1,52,81,8
1,76,71,0
1,67,41,0
1,72,72,0
1,55,77,76
1,71,81,0
1,74,80,0
1,65,58,0
1,71,60,84
1,74,62,0
1,65,46,0
1,74,61,84
1,71,60,0
1,65,45,4
1,71,85,84
1,74,78,0
1,65,58,0
1,43,60,8
1,45,76,4
1,71,53,0
1,74,57,4
1,65,33,0
1,71,61,92
1,74,65,0
1,47,69,4
1,65,36,0
1,72,83,88
1,48,69,4
1,67,70,4
1,64,74,0
1,64,44,68
1,72,80,4
1,67,68,0
1,67,61,80
1,64,43,0
1,72,48,4
1,72,84,88
1,67,83,0
1,64,73,0
1,72,49,68
1,64,38,4
1,67,62,0
1,52,62,88
1,64,45,0
1,72,64,0
1,67,58,0
1,72,85,80
1,64,69,0
1,55,74,4
1,67,84,0
1,67,55,68
1,72,53,4
1,64,28,0
1,72,71,84
1,64,47,0
1,67,64,4
1,64,67,84
1,72,86,4
1,52,82,4
1,67,82,0
1,72,59,68
1,67,61,4
1,64,40,0
1,67,72,12
1,64,54,0
1,72,81,0
1,55,72,8
1,72,80,4
1,67,86,0
1,64,75,4
1,48,80,4
1,67,53,76
1,64,33,0
1,72,41,4
1,72,66,80
1,64,49,0
1,67,66,0
1,67,85,84
1,64,67,0
1,72,84,4
1,72,49,76
1,64,47,0
1,67,64,0
1,52,70,8
1,64,46,0
1,67,65,0
1,72,60,4
1,55,72,88
1,67,72,0
1,72,75,4
1,64,55,0
1,64,39,72
1,67,60,0
1,72,49,0
1,72,61,84
1,67,65,0
1,64,47,4
1,72,73,0
1,64,59,4
1,67,74,0
1,52,72,4
1,67,62,80
1,64,43,0
1,72,53,0
1,55,57,88
1,67,61,0
1,72,66,4
1,64,46,0
1,69,70,84
1,64,53,0
1,72,74,4
1,45,84,0
1,72,56,72
1,64,35,0
1,69,52,0
1,72,53,80
1,69,48,4
1,64,40,0
1,64,65,84
1,72,80,0
1,69,76,4
1,69,54,68
1,64,35,4
1,72,53,0
1,64,51,88
1,69,63,0
1,72,66,0
1,48,58,4
1,72,73,84
1,69,70,0
1,64,58,0
1,52,75,8
1,69,51,72
1,72,53,0
1,64,36,4
1,69,63,92
1,72,66,0
1,64,48,0
1,64,65,4
1,72,82,0
1,69,76,0
1,48,61,8
1,64,45,80
1,72,61,0
1,69,61,0
1,52,57,80
1,72,69,0
1,64,51,4
1,69,66,0
1,72,81,92
1,65,61,0
1,69,71,0
1,41,80,4
1,72,56,84
1,65,45,0
1,69,53,0
1,72,61,84
1,69,55,0
1,65,46,0
1,65,75,84
1,72,85,0
1,69,85,0
1,69,67,76
1,72,67,0
1,65,52,0
1,45,53,20
1,69,65,0
1,65,55,4
1,72,73,0
1,43,66,92
1,71,85,0
1,74,77,0
1,67,66,0
1,67,43,76
1,71,58,0
1,74,51,0
1,67,40,84
1,74,52,0
1,71,57,4
1,71,89,12
1,67,69,0
1,74,76,0
1,47,62,4
1,74,48,80
1,67,39,0
1,71,63,0
1,50,59,12
1,74,60,0
1,71,67,4
1,67,52,0
1,72,88,88
1,67,59,4
1,76,84,0
1,48,72,4
1,72,57,76
1,67,38,0
1,76,56,0
1,72,63,84
1,67,41,0
1,76,61,0
1,76,81,88
1,72,82,0
1,67,55,0
1,72,59,76
1,76,50,0
1,67,33,0
1,76,67,88
1,67,47,0
1,72,73,0
1,52,61,4
1,72,75,80
1,76,66,4
1,67,50,0
1,55,63,4
1,67,35,80
1,76,51,0
1,72,62,0
1,72,61,88
1,67,37,0
1,76,50,0
1,52,73,8
1,67,55,0
1,76,78,0
1,72,85,4
1,67,33,80
1,72,60,4
1,76,52,0
1,55,52,16
1,76,67,0
1,67,41,0
1,72,66,4
1,72,88,84
1,67,63,0
1,76,85,4
1,48,71,4
1,76,59,72
1,67,33,4
1,72,65,0
1,67,37,80
1,72,65,4
1,76,60,0
1,72,83,84
1,67,53,0
1,76,78,4
1,72,58,76
1,67,29,0
1,76,36,4
1,52,69,4
1,67,38,0
1,76,62,4
1,72,66,0
1,67,59,84
1,76,82,0
1,72,85,4
1,55,76,4
1,76,63,76
1,67,36,0
1,72,66,0
1,76,70,80
1,72,71,4
1,67,45,0
1,67,65,88
1,72,90,0
1,76,89,4
1,52,74,4
1,72,65,68
1,76,61,4
1,67,29,0
1,67,47,12
1,76,67,0
1,72,76,4
1,55,55,0
1,72,83,80
1,69,52,0
1,77,92,4
1,41,60,8
1,72,56,72
1,69,32,4
1,77,54,0
1,72,59,88
1,77,53,0
1,69,30,4
1,69,62,80
1,77,85,4
1,72,88,0
1,72,61,68
1,77,40,4
1,69,27,0
1,72,70,8
1,77,68,4
1,69,43,0
1,45,64,8
1,77,85,76
1,72,89,4
1,69,61,0
1,48,72,8
1,69,35,72
1,77,48,0
1,72,66,4
1,77,70,84
1,69,42,4
1,72,68,0
1,77,86,8
1,72,88,4
1,69,57,0
1,45,61,4
1,77,61,76
1,72,68,0
1,69,37,0
1,72,74,88
1,69,44,0
1,77,68,4
1,48,66,16
1,76,80,0
1,67,60,0
1,72,84,4
1,76,71,68
1,72,70,0
1,67,39,0
1,67,44,84
1,76,65,0
1,72,71,0
1,72,89,88
1,67,59,0
1,76,77,4
1,72,70,72
1,76,54,0
1,67,39,0
1,52,81,8
1,76,71,0
1,67,41,0
1,72,72,0
1,55,77,72
1,71,81,4
1,67,58,0
1,74,80,0
1,67,46,84
1,71,60,0
1,74,62,0
1,74,61,84
1,71,60,0
1,67,45,0
1,67,58,84
1,71,85,0
1,74,78,0
1,43,60,8
1,45,76,4
1,71,53,0
1,74,57,0
1,67,33,4
1,71,61,92
1,74,65,0
1,67,36,0
1,47,69,4
1,72,83,0
1,48,69,8
1,67,70,0
1,64,74,4
1,64,44,72
1,72,80,0
1,67,68,0
1,67,61,80
1,64,43,0
1,72,48,4
1,72,84,88
1,67,83,0
1,64,73,4
1,72,49,72
1,64,38,0
1,67,62,0
1,52,62,84
1,64,45,0
1,72,64,0
1,67,58,0
1,72,85,80
1,64,69,0
1,55,74,4
1,67,84,0
1,67,55,72
1,72,53,0
1,64,28,0
1,72,71,84
1,64,47,0
1,67,64,4
1,64,67,84
1,72,86,0
1,52,82,8
1,67,82,0
1,72,59,72
1,67,61,0
1,64,40,4
1,67,72,8
1,64,54,0
1,72,81,4
1,55,72,4
1,65,91,8
1,57,82,0
1,60,96,0
1,41,99,8
1,57,60,80
1,60,82,0
1,65,82,4
1,60,72,80
1,57,45,0
1,65,62,4
1,60,99,92
1,57,86,0
1,65,97,0
1,60,74,72
1,65,70,0
1,57,43,4
1,57,53,12
1,60,80,0
1,65,73,0
1,45,90,12
1,60,96,92
1,65,94,0
1,57,81,4
1,48,88,4
1,57,43,80
1,60,73,0
1,65,59,0
1,65,83,88
1,57,64,0
1,60,83,0
1,45,90,0
1,60,103,4
1,57,83,0
1,65,99,0
1,57,55,76
1,60,81,0
1,65,72,4
1,48,88,88
1,65,72,0
1,57,54,4
1,60,82,0
1,55,87,28
1,64,90,0
1,60,94,4
1,36,97,4
1,64,72,80
1,55,47,0
1,60,75,0
1,55,47,88
1,60,76,4
1,64,65,0
1,64,94,96
1,55,87,0
1,60,99,0
1,60,72,76
1,55,39,0
1,64,63,0
1,40,88,8
1,64,79,0
1,55,72,0
1,60,86,4
1,43,80,4
1,55,80,0
1,60,99,0
1,64,90,0
1,64,53,72
1,60,70,4
1,55,41,0
1,64,82,88
1,55,68,0
1,60,85,0
1,40,86,16
1,64,90,0
1,60,99,0
1,55,80,4
1,60,81,76
1,55,57,4
1,64,73,0
1,64,82,84
1,55,67,0
1,60,85,0
1,43,81,4
1,65,97,4
1,41,97,8
1,60,92,0
1,57,76,0
1,60,72,80
1,57,44,0
1,65,63,0
1,60,76,84
1,65,67,0
1,57,50,4
1,65,92,96
1,57,80,0
1,60,97,0
1,65,54,80
1,57,43,0
1,60,72,0
1,45,90,16
1,60,83,0
1,65,78,4
1,57,64,0
1,60,97,88
1,57,80,4
1,65,94,0
1,48,83,4
1,65,70,80
1,57,57,0
1,60,81,0
1,60,81,88
1,65,71,0
1,57,56,0
1,45,86,8
1,60,99,0
1,57,82,4
1,65,92,0
1,57,47,68
1,65,59,0
1,60,76,0
1,65,68,92
1,57,57,0
1,60,81,4
1,48,87,0
1,64,88,24
1,55,82,0
1,60,88,4
1,36,99,4
1,55,43,72
1,64,59,0
1,60,66,0
1,60,76,80
1,55,51,4
1,64,64,0
1,60,101,88
1,55,85,4
1,64,96,0
1,60,57,68
1,64,39,4
1,55,29,0
1,64,88,88
1,40,99,4
1,55,75,0
1,60,90,0
1,55,76,16
1,60,96,0
1,64,94,0
1,43,87,8
1,64,65,68
1,55,47,0
1,60,75,4
1,60,73,84
1,64,64,4
1,55,38,0
1,40,88,20
1,64,99,4
1,55,86,0
1,60,101,0
1,64,74,80
1,60,76,0
1,55,47,4
1,43,79,92
1,55,51,0
1,64,49,0
1,60,79,0
1,38,94,16
1,60,92,0
1,66,80,4
1,57,70,0
1,66,65,80
1,57,52,4
1,60,75,0
1,60,67,84
1,66,53,4
1,57,38,0
1,60,99,88
1,57,76,0
1,66,92,0
1,57,34,76
1,60,55,0
1,66,53,0
1,42,96,12
1,57,54,0
1,66,67,0
1,60,81,4
1,57,78,88
1,66,89,0
1,60,96,0
1,45,91,4
1,57,36,76
1,60,58,0
1,66,54,0
1,60,73,88
1,57,47,4
1,66,61,0
1,47,78,20
1,66,92,0
1,60,97,0
1,57,76,4
1,45,92,68
1,60,56,4
1,57,29,0
1,66,40,4
1,42,91,8
1,66,66,0
1,60,73,4
1,57,47,0
1,38,87,12
1,60,105,0
1,66,96,4
1,57,83,0
1,60,67,68
1,66,61,4
1,57,45,0
1,66,75,80
1,60,81,0
1,57,51,4
1,60,99,88
1,66,94,4
1,57,79,0
1,60,72,76
1,66,66,4
1,57,33,0
1,57,52,88
1,60,76,0
1,42,82,4
1,66,65,0
1,45,92,84
1,66,94,0
1,60,101,0
1,57,82,4
1,60,61,68
1,66,50,0
1,57,39,4
1,60,72,84
1,57,50,0
1,66,62,0
1,47,79,32
1,57,85,0
1,60,103,0
1,66,98,0
1,45,82,68
1,57,39,4
1,60,65,0
1,66,58,0
1,42,100,0
1,66,65,4
1,60,72,0
1,57,36,0
1,38,92,16
1,60,103,4
1,66,96,0
1,57,78,0
1,66,59,76
1,60,72,0
1,57,35,0
1,57,55,88
1,60,80,4
1,66,66,0
1,60,91,84
1,57,71,0
1,66,87,4
1,60,78,84
1,57,52,4
1,66,72,0
1,42,86,0
1,57,55,4
1,60,79,0
1,66,69,4
1,45,97,76
1,60,91,4
1,66,89,0
1,69,88,0
1,60,64,72
1,69,53,4
1,66,56,0
1,69,51,72
1,60,75,0
1,66,65,4
1,57,75,8
1,60,90,0
1,66,86,4
1,47,82,8
1,45,86,76
1,57,71,4
1,60,87,4
1,66,86,0
1,42,100,8
1,66,84,0
1,60,85,4
1,57,58,0
1,43,90,92
1,59,90,8
1,62,90,0
1,67,81,0
1,65,92,0
1,62,55,80
1,59,53,0
1,65,54,0
1,67,45,0
1,62,55,84
1,67,51,0
1,59,58,0
1,65,65,0
1,59,82,80
1,62,85,4
1,67,76,0
1,65,91,0
1,67,45,72
1,62,64,0
1,65,74,0
1,59,58,0
1,38,70,20
1,65,74,4
1,62,66,0
1,59,63,0
1,67,55,0
1,62,91,84
1,59,88,4
1,67,81,0
1,65,94,0
1,43,97,8
1,45,86,4
1,62,59,4
1,65,70,0
1,59,59,0
1,67,35,4
1,65,66,88
1,59,58,4
1,62,56,0
1,67,39,4
1,43,88,0
1,62,94,8
1,59,91,0
1,67,82,0
1,65,94,4
1,41,97,4
1,40,96,68
1,62,62,4
1,65,70,4
1,59,55,0
1,67,54,0
1,38,78,88
1,65,62,0
1,67,53,0
