track,note,velocity,time
1,36,100,10752
1,49,106,0
1,69,106,0
1,42,100,118
1,60,55,0
1,69,55,0
1,75,95,0
1,42,90,24
1,75,90,0
1,40,97,14
1,42,100,0
1,69,79,0
1,40,100,102
1,42,112,0
1,60,61,0
1,69,76,0
1,75,112,0
1,36,95,12
1,42,95,0
1,69,79,0
1,42,100,118
1,60,61,0
1,69,56,0
1,75,106,0
1,40,103,24
1,42,118,0
1,69,69,0
1,46,106,126
1,60,61,0
1,69,66,0
1,75,112,0
1,36,90,32
1,42,112,0
1,69,100,0
1,42,86,102
1,60,61,0
1,69,70,0
1,75,112,0
1,42,95,32
1,75,86,0
1,40,97,32
1,42,118,0
1,69,60,0
1,40,82,102
1,42,100,0
1,69,63,0
1,75,118,0
1,36,97,136
1,42,100,0
1,69,65,0
1,42,112,128
1,60,68,0
1,69,62,0
1,75,118,0
1,40,103,40
1,42,118,0
1,69,82,0
1,46,95,118
1,60,68,0
1,69,60,0
1,75,118,0
1,36,100,100
1,49,92,0
1,42,106,160
1,60,55,0
1,69,82,0
1,75,106,0
1,42,90,24
1,69,70,0
1,75,95,0
1,40,100,22
1,42,100,0
1,69,82,0
1,40,92,102
1,42,112,0
1,60,61,0
1,69,73,0
1,75,112,0
1,36,95,4
1,42,112,0
1,69,60,0
1,42,95,136
1,60,61,0
1,69,62,0
1,75,118,0
1,40,100,0
1,42,126,0
1,69,69,0
1,46,100,128
1,60,61,0
1,69,72,0
1,75,118,0
1,36,100,126
1,42,106,0
1,69,74,0
1,42,90,118
1,60,61,0
1,69,60,0
1,75,100,0
1,42,86,32
1,75,100,0
1,40,103,40
1,42,112,0
1,69,68,0
1,40,97,110
1,42,95,0
1,69,70,0
1,75,118,0
1,36,90,134
1,42,112,0
1,69,62,0
1,42,106,128
1,60,68,0
1,69,65,0
1,75,106,0
1,40,100,50
1,42,118,0
1,69,71,0
1,46,100,126
1,60,68,0
1,69,72,0
1,75,112,0
1,36,100,98
1,42,112,0
1,69,79,0
1,42,95,136
1,60,72,0
1,69,72,0
1,75,106,0
1,42,77,24
1,69,67,0
1,75,90,0
1,40,100,26
1,42,118,0
1,69,74,0
1,40,86,110
1,42,100,0
1,69,80,0
1,75,112,0
1,36,103,134
1,42,112,0
1,69,62,0
1,42,100,120
1,60,61,0
1,69,56,0
1,75,106,0
1,40,92,50
1,42,126,0
1,69,64,0
1,46,90,102
1,60,64,0
1,69,69,0
1,75,112,0
1,36,97,94
1,42,112,0
1,69,70,0
1,42,83,126
1,60,68,0
1,69,61,0
1,75,106,0
1,42,86,22
1,75,95,0
1,40,88,16
1,42,112,0
1,69,67,0
1,40,86,102
1,42,95,0
1,69,62,0
1,75,106,0
1,36,90,142
1,42,95,0
1,69,68,0
1,42,106,144
1,60,58,0
1,69,72,0
1,75,118,0
1,40,100,2
1,42,112,0
1,69,71,0
1,46,100,144
1,60,61,0
1,69,73,0
1,75,118,0
1,36,92,66
1,42,112,0
1,69,77,0
1,42,86,142
1,60,64,0
1,69,62,0
1,75,106,0
1,42,86,14
1,69,56,0
1,75,95,0
1,40,97,46
1,42,118,0
1,69,92,0
1,40,82,102
1,42,100,0
1,69,70,0
1,75,118,0
1,36,92,142
1,42,106,0
1,69,72,0
1,42,95,152
1,60,61,0
1,69,59,0
1,75,112,0
1,40,97,8
1,42,127,0
1,69,68,0
1,46,100,118
1,60,61,0
1,69,65,0
1,75,112,0
1,36,88,114
1,42,112,0
1,69,70,0
1,42,106,142
1,60,61,0
1,69,58,0
1,75,100,0
1,42,86,22
1,69,58,0
1,75,95,0
1,40,97,0
1,42,118,0
1,69,84,0
1,40,77,102
1,42,100,0
1,69,74,0
1,75,118,0
1,36,95,142
1,42,118,0
1,69,62,0
1,42,112,150
1,60,61,0
1,69,58,0
1,75,112,0
1,40,97,24
1,42,126,0
1,69,76,0
1,46,106,110
1,60,64,0
1,69,61,0
1,75,118,0
1,36,100,48
1,42,112,0
1,69,73,0
1,42,86,136
1,60,68,0
1,69,65,0
1,75,106,0
1,42,86,30
1,69,57,0
1,75,90,0
1,40,92,10
1,42,126,0
1,69,73,0
1,40,82,100
1,42,100,0
1,69,70,0
1,75,118,0
1,36,97,142
1,42,112,0
1,69,71,0
1,42,106,150
1,60,64,0
1,69,47,0
1,75,112,0
1,40,100,8
1,42,126,0
1,69,74,0
1,46,112,110
1,60,72,0
1,69,65,0
1,75,112,0
1,36,95,34
1,42,126,0
1,69,74,0
1,42,100,126
1,60,77,0
1,69,67,0
1,75,95,0
1,42,83,22
1,69,62,0
1,75,77,0
1,40,100,38
1,42,126,0
1,69,88,0
1,40,84,118
1,42,112,0
1,69,73,0
1,75,126,0
1,36,92,78
1,42,118,0
1,69,74,0
1,40,97,4
1,42,106,0
1,60,61,0
1,69,62,0
1,75,112,0
1,42,95,14
1,40,106,46
1,42,127,0
1,69,80,0
1,40,92,118
1,42,126,0
1,60,77,0
1,69,80,0
1,75,118,0
1,40,95,14
1,36,117,6
1,49,90,0
1,69,97,0
1,60,55,124
1,69,86,0
1,75,95,0
1,42,112,24
1,69,70,0
1,75,86,0
1,40,100,30
1,42,95,0
1,69,82,0
1,42,100,14
1,40,109,38
1,42,106,0
1,60,61,0
1,69,74,0
1,75,100,0
1,36,100,44
1,42,95,0
1,69,80,0
1,42,106,68
1,60,61,0
1,69,60,0
1,75,112,0
1,40,109,118
1,42,112,0
1,69,84,0
1,46,100,102
1,60,61,0
1,69,73,0
1,75,112,0
1,36,106,126
1,42,112,0
1,69,86,0
1,42,100,134
1,60,61,0
1,69,67,0
1,75,106,0
1,42,86,32
1,69,66,0
1,75,90,0
1,40,103,22
1,42,126,0
1,69,95,0
1,40,103,110
1,42,95,0
1,69,73,0
1,75,106,0
1,36,100,142
1,42,112,0
1,69,69,0
1,42,112,150
1,60,68,0
1,69,66,0
1,75,106,0
1,40,113,42
1,42,126,0
1,69,69,0
1,46,100,128
1,60,68,0
1,69,64,0
1,75,106,0
1,36,106,100
1,42,118,0
1,69,62,0
1,42,106,134
1,60,72,0
1,69,68,0
1,75,100,0
1,42,83,24
1,69,72,0
1,75,80,0
1,40,113,32
1,42,118,0
1,69,64,0
1,40,106,104
1,42,106,0
1,69,67,0
1,75,112,0
1,36,97,152
1,42,106,0
1,69,58,0
1,42,106,152
1,60,61,0
1,69,62,0
1,75,112,0
1,40,109,66
1,42,126,0
1,69,73,0
1,46,95,136
1,60,64,0
1,69,62,0
1,75,112,0
1,36,113,120
1,42,112,0
1,69,70,0
1,42,90,136
1,60,68,0
1,69,63,0
1,75,100,0
1,42,80,22
1,69,55,0
1,75,90,0
1,40,113,18
1,42,118,0
1,69,86,0
1,40,103,116
1,42,100,0
1,69,67,0
1,75,112,0
1,36,100,12
1,42,106,0
1,69,70,0
1,42,106,160
1,60,58,0
1,69,60,0
1,75,106,0
1,40,113,16
1,42,118,0
1,69,77,0
1,46,106,134
1,60,61,0
1,69,61,0
1,75,106,0
1,36,113,102
1,42,112,0
1,69,74,0
1,42,106,134
1,60,64,0
1,69,62,0
1,75,100,0
1,42,80,14
1,69,47,0
1,75,100,0
1,40,109,32
1,42,112,0
1,69,88,0
1,40,103,102
1,42,112,0
1,69,72,0
1,75,112,0
1,36,103,4
1,42,95,0
1,69,63,0
1,42,112,168
1,60,61,0
1,69,69,0
1,75,112,0
1,40,109,24
1,42,126,0
1,69,77,0
1,46,100,120
1,60,61,0
1,69,66,0
1,75,118,0
1,36,113,82
1,42,118,0
1,69,80,0
1,42,86,126
1,60,61,0
1,69,72,0
1,75,112,0
1,42,83,22
1,69,57,0
1,75,75,0
1,40,109,38
1,42,126,0
1,69,90,0
1,40,100,108
1,42,106,0
1,69,68,0
1,75,106,0
1,36,100,4
1,42,112,0
1,69,74,0
1,42,100,134
1,60,61,0
1,69,71,0
1,75,106,0
1,40,109,8
1,42,118,0
1,69,73,0
1,42,118,136
1,60,64,0
1,69,74,0
1,75,112,0
1,36,117,110
1,49,80,0
1,69,82,0
1,60,68,144
1,69,71,0
1,75,95,0
1,69,57,30
1,75,95,0
1,40,106,16
1,42,95,0
1,69,88,0
1,40,103,102
1,42,126,0
1,69,76,0
1,75,112,0
1,36,100,10
1,42,100,0
1,69,76,0
1,42,112,142
1,60,64,0
1,69,71,0
1,75,112,0
1,40,113,24
1,42,112,0
1,69,79,0
1,42,112,150
1,60,72,0
1,69,73,0
1,75,112,0
1,36,126,118
1,40,109,0
1,49,86,0
1,69,84,0
1,75,127,0
1,69,72,4
1,36,126,1304
1,49,95,0
1,60,55,152
1,69,82,0
1,75,106,0
1,42,106,24
1,69,70,0
1,75,95,0
1,40,106,22
1,42,86,0
1,69,82,0
1,42,106,22
1,40,109,38
1,60,61,0
1,69,73,0
1,75,112,0
1,42,112,32
1,36,103,30
1,42,106,0
1,69,60,0
1,42,118,136
1,60,61,0
1,69,62,0
1,75,118,0
1,40,117,118
1,42,118,0
1,69,69,0
1,46,100,118
1,60,61,0
1,69,72,0
1,75,118,0
1,36,97,74
1,42,126,0
1,69,74,0
1,42,83,118
1,60,61,0
1,69,60,0
1,75,100,0
1,42,90,32
1,75,100,0
1,40,106,2
1,42,118,0
1,69,68,0
1,40,106,110
1,42,106,0
1,69,70,0
1,75,118,0
1,36,109,4
1,42,112,0
1,69,62,0
1,42,106,128
1,60,68,0
1,69,65,0
1,75,106,0
1,40,113,120
1,42,126,0
1,69,71,0
1,46,95,126
1,60,68,0
1,69,72,0
1,75,112,0
1,36,113,50
1,42,112,0
1,69,79,0
1,42,106,136
1,60,72,0
1,69,72,0
1,75,106,0
1,42,83,24
1,69,67,0
1,75,90,0
1,40,109,30
1,42,126,0
1,69,74,0
1,40,97,120
1,42,106,0
1,69,80,0
1,75,112,0
1,36,97,134
1,42,112,0
1,69,62,0
1,42,112,120
1,60,61,0
1,69,56,0
1,75,106,0
1,40,106,26
1,42,118,0
1,69,64,0
1,46,95,134
1,60,64,0
1,69,69,0
1,75,112,0
1,36,113,74
1,42,118,0
1,69,70,0
1,42,95,126
1,60,68,0
1,69,61,0
1,75,106,0
1,42,83,22
1,75,95,0
1,40,113,18
1,42,118,0
1,69,67,0
1,40,100,126
1,42,100,0
1,69,62,0
1,75,106,0
1,36,106,142
1,42,106,0
1,69,68,0
1,42,100,144
1,60,58,0
1,69,72,0
1,75,118,0
1,40,117,24
1,42,118,0
1,69,71,0
1,46,95,136
1,60,61,0
1,69,73,0
1,75,118,0
1,36,122,78
1,42,112,0
1,69,77,0
1,42,95,136
1,60,64,0
1,69,62,0
1,75,106,0
1,42,77,14
1,69,56,0
1,75,95,0
1,40,106,26
1,42,118,0
1,69,92,0
1,40,103,94
1,42,106,0
1,69,70,0
1,75,118,0
1,36,97,142
1,42,100,0
1,69,72,0
1,42,100,142
1,60,61,0
1,69,59,0
1,75,112,0
1,40,109,6
1,42,126,0
1,69,68,0
1,46,100,126
1,60,61,0
1,69,65,0
1,75,112,0
1,36,109,32
1,42,118,0
1,69,70,0
1,42,90,126
1,42,80,0
1,60,61,0
1,69,58,0
1,75,100,0
1,69,58,22
1,75,95,0
1,40,106,30
1,42,127,0
1,69,84,0
1,40,106,116
1,42,106,0
1,69,74,0
1,75,118,0
1,36,103,142
1,42,112,0
1,69,62,0
1,42,100,152
1,60,61,0
1,69,58,0
1,75,112,0
1,40,109,0
1,42,126,0
1,69,76,0
1,46,100,128
1,60,64,0
1,69,61,0
1,75,118,0
1,36,117,58
1,42,118,0
1,69,73,0
1,42,100,126
1,60,68,0
1,69,65,0
1,75,106,0
1,42,90,30
1,69,57,0
1,75,90,0
1,40,109,8
1,42,118,0
1,69,73,0
1,40,103,120
1,42,112,0
1,69,70,0
1,75,118,0
1,36,103,44
1,42,106,0
1,69,71,0
1,42,95,152
1,60,64,0
1,69,47,0
1,75,112,0
1,40,109,110
1,42,118,0
1,69,74,0
1,46,100,136
1,60,72,0
1,69,65,0
1,75,112,0
1,36,106,24
1,42,118,0
1,69,74,0
1,42,95,134
1,60,77,0
1,69,67,0
1,75,95,0
1,42,83,22
1,69,62,0
1,75,77,0
1,40,106,16
1,42,112,0
1,69,88,0
1,40,100,126
1,42,112,0
1,69,73,0
1,75,126,0
1,36,103,30
1,42,112,0
1,69,74,0
1,36,69,54
1,40,106,0
1,42,106,0
1,60,61,0
1,69,62,0
1,75,112,0
1,42,118,4
1,69,80,0
1,40,113,142
1,42,118,0
1,60,77,0
1,69,80,0
1,75,118,0
1,36,126,14
1,49,100,0
1,69,97,0
1,42,95,124
1,60,55,0
1,69,86,0
1,75,95,0
1,69,70,24
1,75,86,0
1,40,109,18
1,42,90,0
1,69,82,0
1,40,117,118
1,42,100,0
1,60,61,0
1,69,74,0
1,75,100,0
1,42,112,32
1,36,122,32
1,42,95,0
1,69,80,0
1,42,100,134
1,60,61,0
1,69,60,0
1,75,112,0
1,40,122,0
1,42,118,0
1,69,84,0
1,46,100,110
1,60,61,0
1,69,73,0
1,75,112,0
1,36,127,126
1,42,106,0
1,69,86,0
1,42,77,126
1,60,61,0
1,69,67,0
1,75,106,0
1,42,90,32
1,69,66,0
1,75,90,0
1,40,122,22
1,42,112,0
1,69,95,0
1,40,117,102
1,42,95,0
1,69,73,0
1,75,106,0
1,36,117,38
1,42,112,0
1,69,69,0
1,42,106,134
1,60,68,0
1,69,66,0
1,75,106,0
1,40,122,120
1,42,126,0
1,69,69,0
1,46,106,118
1,60,68,0
1,69,64,0
1,75,106,0
1,36,126,100
1,42,118,0
1,69,62,0
1,42,106,126
1,60,72,0
1,69,68,0
1,75,100,0
1,42,75,24
1,69,72,0
1,75,80,0
1,40,117,32
1,42,112,0
1,69,64,0
1,40,117,110
1,42,95,0
1,69,67,0
1,75,112,0
1,36,126,28
1,42,112,0
1,69,58,0
1,42,100,152
1,60,61,0
1,69,62,0
1,75,112,0
1,40,117,110
1,42,126,0
1,69,73,0
1,46,95,142
1,60,64,0
1,69,62,0
1,75,112,0
1,36,122,120
1,42,112,0
1,69,70,0
1,42,100,150
1,60,68,0
1,69,63,0
1,75,100,0
1,42,86,22
1,69,55,0
1,75,90,0
1,40,117,8
1,42,118,0
1,69,86,0
1,40,117,102
1,42,90,0
1,69,67,0
1,75,112,0
1,36,122,144
1,42,112,0
1,69,70,0
1,42,106,160
1,60,58,0
1,69,60,0
1,75,106,0
1,40,117,110
1,42,126,0
1,69,77,0
1,46,100,134
1,60,61,0
1,69,61,0
1,75,106,0
1,36,126,102
1,42,118,0
1,69,74,0
1,42,100,136
1,60,64,0
1,69,62,0
1,75,100,0
1,42,90,14
1,69,47,0
1,75,100,0
1,40,122,0
1,42,112,0
1,69,88,0
1,40,106,110
1,42,106,0
1,69,72,0
1,75,112,0
1,36,117,54
1,42,112,0
1,69,63,0
1,42,86,142
1,60,61,0
1,69,69,0
1,75,112,0
1,40,117,110
1,42,118,0
1,69,77,0
1,46,100,126
1,60,61,0
1,69,66,0
1,75,118,0
1,36,126,24
1,42,126,0
1,69,80,0
1,42,100,126
1,60,61,0
1,69,72,0
1,75,112,0
1,42,100,22
1,69,57,0
1,75,75,0
1,40,117,18
1,42,118,0
1,69,90,0
1,40,117,100
1,42,100,0
1,69,68,0
1,75,106,0
1,36,122,134
1,42,112,0
1,69,74,0
1,42,106,142
1,60,61,0
1,69,71,0
1,75,106,0
1,40,122,104
1,42,112,0
1,69,73,0
1,46,95,118
1,60,64,0
1,69,74,0
1,75,112,0
1,36,127,110
1,42,126,0
1,69,82,0
1,42,95,126
1,60,68,0
1,69,71,0
1,75,95,0
1,42,90,30
1,69,57,0
1,75,95,0
1,40,113,30
1,42,112,0
1,69,88,0
1,40,126,118
1,42,112,0
1,69,76,0
1,75,112,0
1,40,117,118
1,42,118,0
1,69,76,0
1,40,122,118
1,42,95,0
1,60,64,0
1,69,71,0
1,75,112,0
1,40,126,110
1,42,118,0
1,69,79,0
1,40,126,118
1,42,112,0
1,60,72,0
1,69,73,0
