track,note,velocity,time
1,44,118,18
1,44,0,65
1,44,123,168
1,44,0,61
1,44,120,170
1,44,0,69
1,44,118,188
1,44,0,48
2,51,102,2899
2,51,0,32
2,51,98,93
2,51,0,26
2,51,100,35
2,51,0,29
2,51,100,31
2,51,0,41
2,51,103,73
2,51,0,40
2,51,102,89
2,51,0,40
2,51,94,77
2,51,0,43
2,51,98,84
2,51,0,42
2,51,94,82
2,51,0,36
2,51,97,85
2,51,0,35
2,51,92,81
2,51,0,29
2,51,92,44
2,51,0,29
2,51,92,25
2,51,0,44
2,51,97,73
2,51,0,37
2,51,94,91
2,51,0,38
2,51,89,77
2,51,0,38
2,51,94,74
2,51,0,42
2,51,93,76
2,51,0,40
2,51,94,74
2,51,0,38
2,51,93,84
2,51,0,26
2,51,97,38
2,51,0,31
2,51,98,32
2,51,0,43
2,51,100,77
2,51,0,37
2,51,98,88
2,51,0,43
2,51,94,73
2,51,0,43
2,51,89,74
2,51,0,41
2,51,94,68
2,51,0,39
2,51,98,79
2,51,0,44
2,51,94,71
2,51,0,29
2,51,98,34
2,51,0,38
2,51,96,27
2,51,0,39
2,51,96,77
2,51,0,35
2,51,93,95
2,51,0,43
2,51,98,72
2,51,0,39
2,51,93,76
2,51,0,46
2,51,98,77
2,51,0,41
2,51,100,82
2,51,0,37
2,51,95,81
2,51,0,29
2,51,92,39
2,51,0,29
2,51,97,24
2,51,0,44
2,51,93,85
2,51,0,38
2,51,96,76
2,51,0,39
2,51,96,87
2,51,0,44
2,51,97,85
2,51,0,38
2,51,92,68
2,51,0,36
2,51,97,85
2,51,0,33
2,51,93,76
2,51,0,27
2,51,95,35
2,51,0,33
2,51,94,22
2,51,0,46
2,51,101,85
2,51,0,41
2,51,94,77
2,51,0,41
2,51,93,73
2,51,0,41
2,51,94,80
2,51,0,38
2,51,96,71
2,51,0,40
2,51,96,81
2,51,0,37
2,51,93,80
2,51,0,28
2,51,88,30
2,51,0,55
2,51,55,13
2,51,0,46
2,51,94,74
2,51,0,43
2,51,93,85
2,51,0,45
2,51,97,78
2,51,0,36
2,51,100,78
2,51,0,41
2,42,117,203
2,42,0,74
2,51,102,12396
2,51,0,34
2,51,97,93
2,51,0,28
2,51,96,35
2,51,0,27
2,51,96,20
2,51,0,41
2,51,108,98
2,51,0,37
2,51,102,91
2,51,0,36
2,51,100,81
2,51,0,39
2,51,100,85
2,51,0,38
2,51,98,83
2,51,0,33
2,51,96,85
2,51,0,36
2,51,96,78
2,51,0,29
2,51,93,33
2,51,0,109
2,51,103,73
2,51,0,33
2,51,100,89
2,51,0,39
2,51,100,75
2,51,0,35
2,51,96,85
2,51,0,42
2,51,98,78
2,51,0,36
2,51,101,80
2,51,0,38
2,51,98,77
2,51,0,25
2,51,96,44
2,51,0,24
2,51,100,36
2,51,0,35
2,51,100,73
2,51,0,38
2,51,100,93
2,51,0,38
2,51,95,74
2,51,0,34
2,51,97,84
2,51,0,36
2,51,100,81
2,51,0,36
2,51,101,91
2,51,0,32
2,51,96,77
2,51,0,29
2,51,96,36
2,51,0,28
2,51,101,31
2,51,0,42
2,51,101,84
2,51,0,37
2,51,103,89
2,51,0,41
2,51,97,82
2,51,0,38
2,51,97,85
2,51,0,38
2,51,98,77
2,51,0,43
2,51,100,86
2,51,0,35
2,51,96,75
2,51,0,29
2,51,97,32
2,51,0,28
2,51,101,28
2,51,0,41
2,51,100,83
2,51,0,41
2,51,102,86
2,51,0,38
2,51,96,79
2,51,0,44
2,51,96,75
2,51,0,41
2,51,94,75
2,51,0,38
2,51,98,83
2,51,0,32
2,51,98,80
2,51,0,29
2,51,98,40
2,51,0,27
2,51,100,34
2,51,0,41
2,51,101,85
2,51,0,33
2,51,100,75
2,51,0,32
2,51,98,85
2,51,0,43
2,51,98,79
2,51,0,39
2,51,98,83
2,51,0,37
2,51,100,82
2,51,0,34
2,51,94,86
2,51,0,22
2,51,94,38
2,51,0,34
2,51,86,20
2,51,0,40
2,51,103,92
2,51,0,38
2,51,100,91
2,51,0,34
2,51,100,80
2,51,0,32
2,51,105,76
2,51,0,43
2,42,117,210
2,42,0,86
2,51,102,12359
2,51,0,33
2,51,100,97
2,51,0,23
2,51,98,38
2,51,0,24
2,51,102,31
2,51,0,38
2,51,110,92
2,51,0,37
2,51,103,96
2,51,0,40
2,51,101,81
2,51,0,37
2,51,101,85
2,51,0,40
2,51,100,85
2,51,0,35
2,51,101,85
2,51,0,31
2,51,97,86
2,51,0,28
2,51,98,41
2,51,0,32
2,51,95,15
2,51,0,43
2,51,102,81
2,51,0,39
2,51,101,94
2,51,0,40
2,51,100,76
2,51,0,38
2,51,100,79
2,51,0,38
2,51,97,80
2,51,0,37
2,51,100,81
2,51,0,33
2,51,98,87
2,51,0,29
2,51,96,35
2,51,0,24
2,51,100,30
2,51,0,41
2,51,102,84
2,51,0,38
2,51,101,88
2,51,0,36
2,51,96,78
2,51,0,35
2,51,100,88
2,51,0,41
2,51,98,79
2,51,0,36
2,51,101,74
2,51,0,34
2,51,96,84
2,51,0,27
2,51,96,38
2,51,0,27
2,51,101,25
2,51,0,40
2,51,94,80
2,51,0,35
2,51,101,94
2,51,0,39
2,51,100,76
2,51,0,40
2,51,101,77
2,51,0,33
2,51,98,83
2,51,0,38
2,51,101,79
2,51,0,37
2,51,98,79
2,51,0,28
2,51,100,38
2,51,0,30
2,51,100,30
2,51,0,41
2,51,94,76
2,51,0,39
2,51,100,84
2,51,0,38
2,51,100,86
2,51,0,43
2,51,98,80
2,51,0,35
2,51,98,80
2,51,0,36
2,51,100,85
2,51,0,32
2,51,98,84
2,51,0,25
2,51,93,35
2,51,0,29
2,51,98,25
2,51,0,41
2,51,101,92
2,51,0,44
2,51,101,78
2,51,0,33
2,51,98,83
2,51,0,39
2,51,98,82
2,51,0,38
2,51,95,69
2,51,0,33
2,51,100,82
2,51,0,38
2,51,98,81
2,51,0,26
2,51,88,46
2,51,0,17
2,51,98,28
2,51,0,40
2,51,103,96
2,51,0,43
2,51,101,82
2,51,0,39
2,51,100,79
2,51,0,36
2,51,105,71
2,51,0,48
2,42,117,206
2,42,0,94
3,38,101,3136
3,38,0,49
3,38,106,80
3,38,0,57
3,38,110,317
3,38,0,73
3,38,102,393
3,38,0,52
3,38,103,75
3,38,0,70
3,38,103,310
3,38,0,66
3,38,100,392
3,38,0,53
3,38,103,77
3,38,0,64
3,38,106,296
3,38,0,63
3,38,102,401
3,38,0,53
3,38,103,76
3,38,0,66
3,38,110,297
3,38,0,73
3,38,101,399
3,38,0,55
3,38,108,76
3,38,0,77
3,38,106,286
3,38,0,69
3,38,101,380
3,38,0,52
3,38,103,85
3,38,0,73
3,38,106,285
3,38,0,63
3,38,103,401
3,38,0,49
3,38,108,86
3,38,0,73
3,38,106,286
3,38,0,73
3,38,115,161
3,38,0,72
3,38,100,12644
3,38,0,46
3,38,106,85
3,38,0,64
3,38,106,319
3,38,0,66
3,38,101,388
3,38,0,54
3,38,108,79
3,38,0,75
3,38,108,297
3,38,0,65
3,38,102,398
3,38,0,56
3,38,113,73
3,38,0,70
3,38,106,282
3,38,0,69
3,38,101,391
3,38,0,55
3,38,110,76
3,38,0,64
3,38,110,307
3,38,0,70
3,38,103,396
3,38,0,55
3,38,110,75
3,38,0,80
3,38,108,289
3,38,0,72
3,38,102,389
3,38,0,53
3,38,106,73
3,38,0,80
3,38,110,293
3,38,0,74
3,38,102,381
3,38,0,50
3,38,113,83
3,38,0,81
3,38,106,278
3,38,0,73
3,38,113,160
3,38,0,70
3,38,105,12664
3,38,0,47
3,38,110,69
3,38,0,62
3,38,110,309
3,38,0,57
3,38,103,416
3,38,0,52
3,38,108,74
3,38,0,80
3,38,110,290
3,38,0,61
3,38,103,403
3,38,0,60
3,38,110,72
3,38,0,74
3,38,110,290
3,38,0,71
3,38,110,396
3,38,0,56
3,38,113,69
3,38,0,64
3,38,113,290
3,38,0,67
3,38,105,382
3,38,0,51
3,38,113,89
3,38,0,86
3,38,110,290
3,38,0,70
3,38,106,383
3,38,0,53
3,38,113,79
3,38,0,83
3,38,113,277
3,38,0,76
3,38,108,388
3,38,0,50
3,38,110,82
3,38,0,94
3,38,115,266
3,38,0,73
3,38,117,160
3,38,0,72
4,36,102,2908
4,36,0,291
4,36,83,63
4,36,0,59
4,36,101,76
4,36,0,239
4,36,101,240
4,36,0,257
4,36,95,94
4,36,0,52
4,36,106,85
4,36,0,211
4,36,105,273
4,36,0,225
4,36,100,120
4,36,0,49
4,36,108,85
4,36,0,191
4,36,106,284
4,36,0,222
4,36,100,119
4,36,0,50
4,36,110,85
4,36,0,210
4,36,110,271
4,36,0,236
4,36,100,111
4,36,0,52
4,36,105,84
4,36,0,201
4,36,106,269
4,36,0,218
4,36,100,129
4,36,0,52
4,36,108,83
4,36,0,223
4,36,110,247
4,36,0,226
4,36,101,122
4,36,0,50
4,36,110,86
4,36,0,204
4,36,113,267
4,36,0,92
4,36,103,12381
4,46,106,3
4,46,0,65
4,36,0,185
4,36,100,106
4,36,0,47
4,36,103,98
4,36,0,247
4,36,108,237
4,36,0,236
4,36,100,107
4,36,0,50
4,36,105,84
4,36,0,219
4,36,105,273
4,36,0,228
4,36,96,118
4,36,0,48
4,36,106,76
4,36,0,227
4,36,106,249
4,36,0,230
4,36,100,121
4,36,0,44
4,36,108,81
4,36,0,229
4,36,108,255
4,36,0,229
4,36,101,121
4,36,0,48
4,36,108,84
4,36,0,245
4,36,106,235
4,36,0,239
4,36,101,109
4,36,0,50
4,36,108,82
4,36,0,234
4,36,108,244
4,36,0,224
4,36,103,131
4,36,0,45
4,36,108,87
4,36,0,201
4,36,113,273
4,36,0,83
4,36,103,12367
4,46,103,6
4,46,0,107
4,36,0,162
4,36,95,94
4,36,0,44
4,36,106,94
4,36,0,266
4,36,106,225
4,36,0,259
4,36,96,92
4,36,0,52
4,36,108,86
4,36,0,228
4,36,108,252
4,36,0,242
4,36,101,107
4,36,0,48
4,36,110,83
4,36,0,226
4,36,110,252
4,36,0,232
4,36,101,111
4,36,0,51
4,36,108,79
4,36,0,232
4,36,108,242
4,36,0,229
4,36,101,119
4,36,0,50
4,36,108,83
4,36,0,236
4,36,110,240
4,36,0,249
4,36,103,99
4,36,0,50
4,36,108,82
4,36,0,239
4,36,106,234
4,36,0,230
4,36,101,122
4,36,0,46
4,36,108,88
4,36,0,239
4,36,113,227
4,36,0,90
5,41,110,2883
5,53,89,123
5,57,96,122
5,60,100,0
5,53,0,35
5,53,94,85
5,41,0,36
5,41,103,101
5,53,0,29
5,53,88,85
5,60,0,9
5,57,0,12
5,60,93,96
5,57,87,4
5,53,0,25
5,53,94,92
5,41,0,32
5,41,100,95
5,53,0,22
5,53,83,97
5,60,0,16
5,57,0,8
5,60,88,82
5,57,86,4
5,53,0,24
5,53,89,101
5,41,0,21
5,41,100,109
5,53,0,20
5,53,89,93
5,60,0,9
5,57,0,6
5,60,94,97
5,57,92,0
5,53,0,29
5,53,98,94
5,41,0,35
5,41,98,87
5,53,0,19
5,53,86,96
5,60,0,6
5,57,0,7
5,60,88,94
5,57,83,3
5,53,0,27
5,53,94,107
5,41,0,31
5,41,100,99
5,53,0,8
5,53,92,108
5,60,0,8
5,57,0,7
5,57,92,94
5,60,92,0
5,53,0,26
5,53,95,99
5,41,0,28
5,41,101,89
5,53,0,11
5,53,92,107
5,60,0,8
5,57,0,7
5,60,89,97
5,57,87,0
5,53,0,29
5,53,94,97
5,41,0,23
5,41,100,106
5,53,0,9
5,53,89,112
5,60,0,9
5,57,0,1
5,57,93,107
5,60,93,0
5,53,0,23
5,41,0,12
5,53,95,86
5,53,0,103
5,57,0,11
5,46,103,3
5,60,0,5
5,58,87,116
5,62,87,114
5,65,87,5
5,58,0,28
5,58,92,95
5,46,0,22
5,46,101,100
5,58,0,8
5,62,0,77
5,65,0,17
5,58,89,20
5,62,83,108
5,65,79,0
5,58,0,28
5,58,96,87
5,46,0,27
5,46,102,96
5,58,0,18
5,62,0,87
5,65,0,8
5,58,86,6
5,65,87,109
5,62,92,3
5,58,0,26
5,58,96,108
5,46,0,23
5,46,103,99
5,58,0,19
5,58,89,97
5,62,0,11
5,65,0,0
5,65,87,96
5,62,88,5
5,58,0,19
5,46,0,10
5,58,97,92
5,58,0,112
5,48,97,3
5,65,0,6
5,62,0,2
5,60,81,115
5,64,79,115
5,67,82,0
5,60,0,21
5,60,95,107
5,48,0,15
5,48,96,106
5,60,0,24
5,60,90,104
5,67,0,10
5,64,0,7
5,67,92,101
5,64,89,1
5,60,0,21
5,60,100,98
5,48,0,32
5,67,0,4
5,64,0,13
5,60,0,25
5,48,103,42
5,67,95,6
5,60,96,1
5,64,96,0
5,67,0,88
5,60,0,1
5,64,0,3
5,48,0,8
5,41,103,12368
5,53,78,119
5,60,89,117
5,57,86,3
5,53,0,34
5,53,92,97
5,41,0,29
5,41,101,103
5,53,0,22
5,53,86,91
5,60,0,6
5,57,0,9
5,60,87,115
5,57,81,3
5,53,0,26
5,53,95,83
5,41,0,24
5,41,98,101
5,53,0,18
5,53,87,94
5,60,0,11
5,57,0,14
5,60,87,82
5,57,81,5
5,53,0,28
5,53,93,100
5,41,0,26
5,41,98,105
5,53,0,12
5,53,87,103
5,60,0,9
5,57,0,6
5,60,81,104
5,57,79,3
5,53,0,20
5,53,93,90
5,41,0,39
5,41,95,91
5,53,0,9
5,53,86,95
5,60,0,12
5,57,0,10
5,57,81,104
5,60,86,0
5,53,0,23
5,53,89,98
5,41,0,18
5,41,96,108
5,53,0,13
5,53,87,98
5,60,0,10
5,57,0,8
5,57,80,94
5,60,82,0
5,53,0,25
5,53,93,100
5,41,0,37
5,41,96,86
5,53,0,5
5,53,87,107
5,60,0,10
5,57,0,9
5,60,88,99
5,57,86,0
5,53,0,23
5,53,90,105
5,41,0,22
5,41,98,100
5,53,0,16
5,53,89,113
5,60,0,11
5,57,0,9
5,60,89,98
5,57,90,3
5,53,0,22
5,41,0,21
5,53,95,75
5,53,0,101
5,57,0,11
5,60,0,3
5,46,103,4
5,58,87,104
5,62,87,125
5,65,87,2
5,58,0,25
5,58,84,109
5,46,0,21
5,46,100,96
5,58,0,30
5,62,0,33
5,65,0,9
5,58,94,56
5,62,79,107
5,65,78,2
5,58,0,23
5,58,95,92
5,46,0,28
5,46,98,92
5,58,0,15
5,62,0,65
5,65,0,8
5,58,93,36
5,62,86,109
5,65,82,4
5,58,0,21
5,58,94,108
5,46,0,23
5,46,96,92
5,58,0,13
5,62,0,67
5,65,0,24
5,58,93,20
5,62,94,123
5,65,86,0
5,58,0,22
5,46,0,29
5,58,97,68
5,58,0,115
5,48,95,7
5,65,0,3
5,62,0,5
5,60,80,103
5,64,89,119
5,67,92,3
5,60,0,24
5,60,94,103
5,48,0,12
5,48,94,100
5,60,0,4
5,67,0,86
5,64,0,25
5,60,92,7
5,67,90,120
5,64,92,2
5,60,0,17
5,60,97,106
5,48,0,14
5,67,0,7
5,64,0,22
5,60,0,33
5,60,92,38
5,64,89,3
5,67,89,2
5,48,101,0
5,67,0,60
5,60,0,1
5,64,0,2
5,48,0,26
5,41,105,12377
5,53,80,118
5,60,89,117
5,57,84,2
5,53,0,39
5,53,87,93
5,41,0,14
5,41,96,107
5,53,0,16
5,53,80,112
5,60,0,3
5,57,0,12
5,60,78,103
5,57,77,5
5,53,0,25
5,53,89,85
5,41,0,12
5,41,89,116
5,53,0,7
5,60,0,108
5,53,80,0
5,57,0,15
5,60,81,95
5,57,78,4
5,53,0,29
5,53,90,99
5,41,0,20
5,41,87,102
5,53,0,8
5,60,0,92
5,57,0,19
5,53,87,4
5,60,89,114
5,57,89,3
5,53,0,23
5,53,88,104
5,41,0,29
5,41,93,93
5,53,0,4
5,60,0,110
5,53,83,2
5,57,0,19
5,60,81,96
5,57,78,2
5,53,0,25
5,53,93,107
5,41,0,30
5,41,92,87
5,53,0,14
5,53,86,103
5,60,0,4
5,57,0,7
