track,note,velocity,time
0,48,125,742
0,48,0,157
0,50,127,5
0,50,0,317
0,52,127,3
0,53,103,163
0,57,91,0
0,62,89,0
0,50,1,0
0,53,1,0
0,57,1,0
0,62,1,0
0,38,98,5
0,52,0,4
0,50,127,1
0,50,88,10
0,50,0,455
0,50,86,5
0,57,127,5
0,60,111,0
0,38,99,0
0,65,120,2
0,38,0,5
0,65,0,267
0,60,0,28
0,57,0,8
0,60,68,7
0,65,102,0
0,38,111,158
0,50,0,0
0,60,0,4
0,50,127,1
0,57,127,2
0,38,0,0
0,65,0,2
0,60,127,1
0,65,127,5
0,50,0,140
0,60,0,5
0,65,0,5
0,65,78,162
0,57,0,0
0,60,127,3
0,50,82,2
0,57,111,0
0,57,0,120
0,53,0,8
0,59,93,10
0,38,0,0
0,50,0,0
0,38,127,7
0,50,0,0
0,53,0,0
0,57,0,0
0,65,0,0
0,50,0,0
0,43,127,3
0,50,79,0
0,55,100,0
0,55,1,0
0,59,1,0
0,60,0,0
0,43,91,2
0,43,86,0
0,57,0,0
0,38,0,2
0,50,0,146
0,38,89,325
0,38,0,7
0,50,127,3
0,55,127,2
0,59,127,3
0,65,127,2
0,65,0,250
0,59,0,30
0,55,0,17
0,65,93,8
0,59,126,5
0,55,50,3
0,50,0,0
0,50,63,2
0,43,0,135
0,38,89,13
0,50,0,2
0,43,0,5
0,55,0,0
0,38,0,0
0,65,0,2
0,59,0,0
0,50,127,1
0,45,74,2
0,55,127,0
0,59,127,3
0,65,127,0
0,55,0,147
0,59,0,3
0,65,0,0
0,45,0,32
0,59,127,138
0,50,0,0
0,50,68,5
0,55,0,110
0,59,0,5
0,62,0,2
0,62,0,0
0,60,96,8
0,43,0,9
0,36,83,8
0,48,94,0
0,64,92,0
0,38,120,0
0,55,0,0
0,59,0,0
0,60,1,3
0,64,1,0
0,67,1,0
0,67,90,2
0,38,0,2
0,50,0,1
0,43,127,5
0,48,127,2
0,59,0,28
0,48,0,277
0,43,0,10
0,48,94,3
0,43,94,2
0,52,127,0
0,38,85,148
0,48,0,0
0,52,0,2
0,48,63,3
0,52,126,2
0,55,127,0
0,38,0,0
0,60,120,3
0,64,123,2
0,52,0,145
0,48,0,23
0,60,0,130
0,55,0,14
0,60,111,3
0,55,86,3
0,52,86,2
0,60,0,13
0,64,0,4
0,67,0,13
0,48,0,5
0,60,88,75
0,64,100,13
0,67,93,2
0,48,83,3
0,36,0,12
0,38,93,5
0,55,0,3
0,45,64,2
0,52,0,0
0,38,0,2
0,48,127,3
0,52,127,0
0,64,0,0
0,60,0,0
0,55,127,3
0,60,127,2
0,64,127,0
0,62,87,110
0,59,86,3
0,64,0,2
0,48,0,8
0,47,93,2
0,65,77,0
0,60,0,2
0,67,0,3
0,60,0,15
0,64,0,0
0,67,0,0
0,59,1,3
0,62,1,0
0,65,1,0
0,60,0,2
0,45,0,22
0,59,0,63
0,57,77,20
0,60,83,10
0,62,0,2
0,65,0,10
0,64,83,3
0,45,86,5
0,47,0,10
0,55,0,10
0,59,0,0
0,62,0,0
0,65,0,0
0,57,1,3
0,60,1,0
0,64,1,0
0,55,78,7
0,60,105,0
0,57,0,100
0,60,0,22
0,55,92,3
0,64,0,0
0,59,97,5
0,52,0,7
0,45,0,0
0,48,0,3
0,64,0,2
0,62,86,1
0,43,94,2
0,43,84,3
0,38,116,2
0,43,0,0
0,55,0,0
0,55,1,3
0,59,1,0
0,62,1,0
0,57,0,0
0,64,0,0
0,47,127,2
0,60,0,2
0,38,0,0
0,50,103,1
0,60,0,7
0,67,50,305
0,59,114,3
0,55,75,2
0,47,0,127
0,50,0,6
0,38,87,15
0,55,0,2
0,59,0,3
0,50,127,2
0,55,127,0
0,43,0,0
0,67,0,0
0,38,0,0
0,41,90,5
0,59,127,0
0,67,127,0
0,67,0,150
0,59,0,137
0,55,0,13
0,59,123,13
0,55,105,2
0,50,0,0
0,50,120,5
0,55,0,75
0,59,0,0
0,62,0,0
0,52,81,0
0,55,0,4
0,50,0,3
0,41,0,2
0,50,102,1
0,59,0,0
0,55,127,2
0,38,94,0
0,62,0,0
0,59,127,3
0,67,127,2
0,38,0,2
0,38,98,1
0,59,0,7
0,55,0,7
0,43,0,28
0,59,0,103
0,52,0,132
0,55,0,7
0,50,0,11
0,55,78,0
0,59,127,8
0,50,127,2
0,55,123,0
0,38,0,83
0,67,0,77
0,52,72,8
0,55,86,0
0,64,51,0
0,52,1,0
0,55,1,0
0,60,1,0
0,64,1,0
0,36,90,2
0,60,82,0
0,38,81,0
0,55,0,2
0,38,0,5
0,60,89,0
0,50,0,2
0,55,0,5
0,59,0,5
0,60,0,443
0,38,72,15
0,59,61,0
0,38,0,0
0,52,115,3
0,55,115,7
0,60,115,3
0,64,115,2
0,64,0,230
0,60,0,28
0,55,0,17
0,64,85,10
0,60,86,8
0,52,0,2
0,55,86,5
0,52,87,5
0,38,74,150
0,55,0,5
0,38,0,2
0,60,0,1
0,55,100,2
0,64,0,2
0,60,101,1
0,64,101,5
0,60,0,145
0,64,0,5
0,59,0,94
0,60,74,0
0,55,0,2
0,60,69,6
0,55,52,5
0,36,0,47
0,64,0,13
0,60,0,67
0,59,65,15
0,40,83,15
0,64,56,0
0,38,80,0
0,60,0,0
0,64,0,0
0,59,1,3
0,64,1,0
0,60,0,2
0,38,0,2
0,59,78,0
0,52,0,272
0,52,76,25
0,52,0,162
0,47,99,1
0,38,73,2
0,52,99,3
0,55,0,0
0,55,115,2
0,38,0,2
0,59,115,1
0,60,0,2
0,64,115,3
0,52,0,140
0,59,0,167
0,59,101,10
0,55,0,2
0,55,102,6
0,52,102,5
0,59,0,22
0,38,87,120
0,55,0,3
0,59,0,4
0,38,0,0
0,52,0,1
0,64,0,2
0,59,112,3
0,55,113,2
0,64,113,0
0,52,63,0
0,59,0,28
0,64,0,2
0,52,0,100
0,52,0,15
0,55,71,0
0,59,0,12
0,55,0,11
0,64,0,4
0,40,0,113
0,55,0,32
0,52,68,3
0,64,49,0
0,59,82,0
0,57,83,0
0,60,78,0
0,47,0,0
0,45,105,10
0,38,89,0
0,52,0,0
0,55,0,0
0,59,0,0
0,64,0,0
0,55,0,0
0,52,1,3
0,57,1,0
0,60,1,0
0,64,1,0
0,33,83,2
0,38,0,2
0,52,44,303
0,59,0,147
0,57,65,0
0,38,65,0
0,57,108,2
0,64,108,0
0,60,119,5
0,38,0,0
0,60,0,295
0,60,99,18
0,38,58,155
0,64,0,7
0,38,0,0
0,57,0,2
0,60,0,1
0,57,123,2
0,64,82,0
0,60,111,3
0,64,0,147
0,60,0,3
0,57,0,55
0,59,58,0
0,33,0,70
0,59,0,87
0,57,60,0
0,33,80,27
0,45,0,0
0,45,99,5
0,38,73,0
0,52,0,0
0,52,66,5
0,38,0,2
0,52,0,148
0,57,0,305
0,52,116,8
0,57,116,5
0,60,116,2
0,38,74,3
0,64,108,2
0,38,0,5
0,57,0,190
0,60,0,80
0,57,0,25
0,60,90,3
0,57,91,5
0,33,0,39
0,52,0,123
0,33,78,5
0,52,108,0
0,57,0,0
0,60,0,3
0,57,109,2
0,64,0,2
0,60,109,1
0,38,84,0
0,64,109,2
0,38,0,5
0,52,69,0
0,52,0,30
0,57,0,5
0,60,0,3
0,52,0,112
0,55,78,0
0,45,0,42
0,64,0,0
0,52,108,3
0,57,0,2
0,57,109,3
0,60,109,2
0,52,0,0
0,64,109,3
0,64,0,9
0,60,0,0
0,33,0,15
0,55,0,96
0,52,0,27
0,57,0,0
0,60,0,0
0,64,0,0
0,52,0,0
0,36,80,3
0,52,82,0
0,60,58,0
0,52,1,0
0,55,1,0
0,60,1,0
0,64,1,0
0,55,79,2
0,57,0,0
0,60,0,2
0,64,57,1
0,57,86,0
0,52,63,0
0,64,0,0
0,38,90,5
0,38,0,7
0,52,0,281
0,52,82,5
0,57,0,37
0,55,68,0
0,52,0,100
0,52,116,22
0,55,105,5
0,60,105,3
0,64,105,2
0,38,61,0
0,38,0,7
0,52,0,133
0,55,0,337
0,38,62,1
0,52,103,2
0,55,103,3
0,60,0,0
0,64,0,2
0,38,0,0
0,60,103,3
0,64,103,2
0,52,0,140
0,55,0,3
0,60,0,5
0,64,0,2
0,55,0,10
0,57,75,0
0,60,98,15
0,36,0,38
0,58,71,107
0,36,71,13
0,60,0,2
0,58,1,3
0,38,70,2
0,38,0,7
0,43,112,1
0,48,113,5
0,57,0,12
0,55,73,0
0,52,79,268
0,55,0,17
0,53,56,0
0,38,56,127
0,52,0,3
0,38,0,4
0,52,101,1
0,58,101,2
0,60,102,5
0,64,102,5
0,52,0,138
0,60,0,129
0,60,85,26
0,38,75,162
0,38,0,7
0,58,0,3
0,52,113,3
0,64,0,2
0,60,0,0
0,58,113,3
0,60,113,2
0,64,113,3
0,60,0,147
0,53,0,88
0,52,69,0
0,52,0,107
0,55,0,22
0,58,0,0
0,60,0,1
0,36,0,25
0,64,0,2
0,52,0,43
0,57,74,2
0,41,90,0
0,57,82,0
0,52,0,2
0,55,0,0
0,60,0,0
0,64,0,0
0,58,0,0
0,58,0,0
0,64,0,0
0,53,1,3
0,57,1,0
0,60,1,0
0,65,1,0
0,53,74,7
0,65,47,0
0,60,64,8
0,57,113,462
0,60,102,5
0,65,102,3
0,38,58,2
0,38,0,7
0,52,0,446
0,53,115,17
0,57,0,2
0,60,0,0
0,57,115,3
0,38,73,0
0,60,115,3
0,65,0,0
0,38,0,4
0,65,115,1
0,60,0,145
0,65,0,127
0,65,85,35
0,60,86,8
0,57,0,2
0,53,0,2
0,57,87,1
0,53,87,5
0,41,0,15
0,41,83,125
0,43,0,0
0,48,0,2
0,48,102,3
0,57,0,2
0,41,106,3
0,53,0,0
0,53,106,2
0,38,72,0
0,38,0,7
0,57,0,288
0,53,0,20
0,57,84,3
0,53,84,7
0,38,71,148
0,38,0,7
0,53,0,2
0,57,0,3
0,53,98,3
0,57,98,2
0,60,0,0
0,65,0,2
0,60,99,3
0,65,99,3
0,57,0,142
0,60,0,5
0,65,0,3
0,53,0,292
0,60,0,0
0,57,0,2
0,53,0,5
0,57,0,3
0,65,0,0
0,53,75,0
0,38,70,2
0,60,0,0
0,65,0,2
0,38,0,5
0,57,94,11
0,60,94,5
0,65,94,2
0,53,0,130
0,57,80,0
0,41,0,137
0,57,0,23
0,48,0,77
0,41,0,0
0,53,0,0
0,57,0,0
0,60,0,0
0,65,0,0
0,53,72,3
0,55,81,0
0,59,84,0
0,62,75,0
0,53,1,0
0,55,1,0
0,59,1,0
0,62,1,0
0,43,82,2
0,50,102,13
0,47,69,2
0,55,96,0
0,43,114,8
0,60,83,0
0,60,0,222
0,59,80,48
0,59,64,0
0,55,0,152
0,38,65,1
0,59,0,2
0,55,100,3
0,59,100,2
0,38,0,0
0,65,102,15
0,55,0,133
0,65,0,157
0,65,70,5
0,59,0,0
0,59,71,5
0,55,71,3
0,50,0,2
0,50,73,8
0,65,0,132
0,38,67,5
0,59,0,0
0,38,0,7
0,55,0,3
0,55,105,15
0,65,105,0
0,59,105,3
0,59,0,189
0,60,65,0
0,59,0,55
0,59,92,5
0,55,0,9
0,55,92,6
0,50,0,7
0,50,91,5
0,43,0,12
0,60,0,43
0,59,0,68
0,43,0,5
0,43,88,5
0,38,65,2
0,59,66,0
0,55,0,0
0,38,81,2
0,47,0,0
0,38,0,2
0,47,88,3
0,43,0,138
0,47,0,12
0,50,0,312
0,50,113,6
0,38,66,2
0,55,105,3
0,38,0,4
0,59,104,3
0,65,0,2
0,65,104,6
0,50,0,130
0,55,0,5
0,65,0,15
0,59,0,110
0,59,0,24
0,59,78,6
0,55,80,12
0,50,81,5
0,59,0,133
0,55,0,12
0,38,69,10
0,50,0,2
0,38,0,5
0,50,110,3
0,55,111,5
0,59,112,8
0,65,76,7
0,53,70,0
0,53,0,137
0,55,75,0
0,38,0,35
0,59,0,23
0,50,0,4
0,55,0,0
0,59,76,1
0,55,104,5
0,50,104,20
0,55,0,72
0,59,85,0
0,38,68,20
0,59,0,0
0,43,80,2
0,65,0,0
0,55,0,3
0,38,0,2
0,47,103,20
0,50,0,5
0,50,103,10
0,55,110,445
0,38,57,3
0,59,117,5
0,38,0,1
0,65,108,5
0,59,0,14
0,65,0,11
0,65,66,6
0,57,69,0
0,59,0,3
0,59,67,5
0,57,0,109
0,65,0,31
0,59,0,10
0,55,0,32
0,55,90,0
0,65,90,0
0,57,86,0
0,59,91,10
0,38,56,3
0,38,0,7
0,57,0,97
0,59,75,0
0,55,0,10
0,65,0,0
0,59,0,132
0,57,71,0
0,43,0,57
0,47,0,107
0,38,78,3
0,47,90,3
0,38,62,2
0,38,0,7
0,47,0,141
0,65,71,140
0,59,0,7
0,59,72,5
0,50,0,7
0,55,73,3
0,50,73,3
0,65,0,125
0,59,0,12
0,55,0,10
0,50,0,3
0,50,90,12
0,59,90,0
0,55,91,5
0,65,91,0
0,38,61,0
0,38,0,7
0,57,0,128
0,50,0,177
0,59,0,0
0,55,0,5
0,59,83,1
0,55,83,2
0,50,84,13
0,59,0,142
0,65,0,2
0,55,0,0
0,38,53,6
0,38,0,7
0,55,101,8
0,59,102,5
0,65,103,7
0,62,0,93
0,55,0,15
0,53,0,2
0,59,0,0
0,50,73,0
0,50,0,127
0,38,0,3
0,52,79,0
0,59,0,40
0,59,62,5
0,52,0,70
0,53,80,0
0,38,62,5
0,53,68,5
0,62,51,0
0,43,75,2
0,38,0,0
0,55,73,3
0,59,75,2
0,59,0,0
0,43,95,13
0,47,95,30
0,53,0,127
0,55,71,0
0,65,0,12
0,65,81,6
0,59,81,10
0,55,0,2
0,55,94,5
0,65,0,133
0,59,0,10
0,55,0,7
0,38,73,3
0,50,0,2
0,38,0,5
0,50,102,5
0,55,102,5
0,59,103,5
0,65,103,8
0,59,0,302
0,59,69,5
0,55,0,32
0,38,62,108
0,38,0,7
0,59,0,3
0,55,0,7
0,55,86,13
0,65,0,0
0,59,87,5
0,65,87,8
0,43,0,234
0,57,56,0
0,59,0,40
0,59,94,5
0,57,0,130
0,43,0,8
0,43,100,5
0,38,65,0
0,43,79,2
0,59,0,5
0,38,0,0
0,47,0,8
0,47,101,5
0,60,72,0
0,43,0,125
0,47,0,20
0,60,0,155
0,59,65,0
0,55,0,124
0,55,100,6
0,38,46,2
0,59,100,3
0,65,0,2
0,38,0,2
0,65,100,3
0,55,0,138
0,59,0,5
0,65,0,7
0,38,67,308
0,59,0,0
0,50,0,2
0,50,100,5
0,59,100,0
0,38,0,0
0,55,100,8
0,65,100,15
0,50,0,127
0,59,0,0
0,55,59,0
0,43,0,42
0,53,0,120
0,62,0,0
0,55,0,0
0,59,0,0
0,55,0,28
0,53,0,2
0,55,0,0
0,59,0,0
0,62,0,0
0,55,1,3
0,60,1,0
0,64,1,0
0,67,1,0
0,36,86,2
0,64,82,0
0,67,56,0
0,60,71,8
0,48,100,0
0,52,54,0
0,55,64,5
0,52,100,10
0,60,68,305
0,38,70,155
0,55,0,0
0,60,0,2
0,38,0,5
0,55,90,6
0,65,0,2
0,60,91,5
0,64,91,5
0,60,0,275
0,55,0,3
0,60,80,2
0,55,80,3
0,60,0,147
0,55,0,3
0,38,77,15
0,38,0,7
0,55,95,3
0,60,95,7
0,64,0,0
0,64,96,5
0,64,0,150
0,36,0,110
0,60,0,17
0,60,62,6
0,52,0,64
0,60,0,86
0,36,80,15
0,67,0,0
0,67,0,2
0,48,0,0
0,48,92,5
0,52,0,0
0,55,0,0
0,48,1,3
0,52,1,0
0,64,0,0
0,64,0,2
0,52,91,13
0,52,79,0
0,48,79,5
0,48,0,127
0,64,66,153
0,60,65,10
0,55,65,5
0,64,0,142
0,60,0,10
0,55,0,5
0,36,0,8
0,55,109,2
0,38,70,0
0,43,76,3
0,60,109,2
0,38,0,2
0,64,109,6
0,60,0,297
0,60,93,5
0,43,0,130
0,60,0,20
0,55,0,12
0,40,83,3
0,38,77,0
0,38,0,7
0,64,0,3
