track,note,velocity,time
1,65,100,1920
1,57,100,0
1,60,100,0
1,60,0,480
1,57,0,0
1,65,0,0
1,65,100,0
1,60,100,0
1,57,100,0
1,57,0,240
1,60,0,0
1,65,0,0
1,57,100,0
1,60,100,0
1,65,100,0
1,65,0,480
1,60,0,0
1,57,0,0
1,57,100,0
1,60,100,0
1,65,100,0
1,65,0,240
1,60,0,0
1,57,0,0
1,57,100,0
1,60,100,0
1,65,100,0
1,65,0,480
1,60,0,0
1,57,0,0
1,57,100,480
1,53,100,0
1,62,100,0
1,62,0,480
1,53,0,0
1,57,0,0
1,57,100,0
1,53,100,0
1,62,100,0
1,62,0,480
1,53,0,0
1,57,0,0
1,65,100,480
1,57,100,0
1,60,100,0
1,60,0,480
1,57,0,0
1,65,0,0
1,65,100,0
1,60,100,0
1,57,100,0
1,57,0,240
1,60,0,0
1,65,0,0
1,57,100,0
1,60,100,0
1,65,100,0
1,65,0,480
1,60,0,0
1,57,0,0
1,57,100,0
1,60,100,0
1,65,100,0
1,65,0,240
1,60,0,0
1,57,0,0
1,57,100,0
1,60,100,0
1,65,100,0
1,65,0,480
1,60,0,0
1,57,0,0
1,53,100,0
1,57,100,0
1,62,100,0
1,62,0,480
1,57,0,0
1,53,0,0
1,41,38,1760
1,41,0,96
1,65,72,64
1,60,76,0
1,57,61,0
1,69,68,0
1,69,0,180
1,65,0,40
1,60,0,20
1,57,0,8
1,41,36,552
1,41,0,64
1,69,82,96
1,60,80,0
1,65,82,0
1,57,64,0
1,65,0,192
1,69,0,0
1,60,0,8
1,57,0,0
1,65,74,760
1,69,68,0
1,57,58,0
1,62,68,0
1,62,0,264
1,69,0,0
1,57,0,20
1,65,0,0
1,50,51,516
1,50,0,84
1,65,63,76
1,62,80,0
1,69,78,0
1,57,70,0
1,69,0,272
1,57,0,40
1,62,0,0
1,62,49,8
1,57,42,0
1,65,0,36
1,62,0,48
1,57,0,8
1,41,38,388
1,41,0,96
1,65,72,64
1,60,76,0
1,57,61,0
1,69,68,0
1,69,0,180
1,65,0,40
1,60,0,20
1,57,0,8
1,41,36,552
1,41,0,64
1,69,82,96
1,60,80,0
1,65,82,0
1,57,64,0
1,65,0,192
1,69,0,0
1,60,0,8
1,57,0,0
1,65,66,760
1,62,66,0
1,57,66,0
1,57,0,248
1,62,0,0
1,65,0,0
1,50,72,552
1,50,0,144
1,65,70,16
1,62,70,0
1,57,70,0
1,57,0,204
1,62,0,0
1,65,0,0
1,41,38,596
1,41,0,96
1,65,72,64
1,60,76,0
1,57,61,0
1,69,68,0
1,69,0,180
1,65,0,40
1,60,0,20
1,57,0,8
1,41,36,552
1,41,0,64
1,69,82,96
1,60,80,0
1,65,82,0
1,57,64,0
1,65,0,192
1,69,0,0
1,60,0,8
1,57,0,0
1,57,53,440
1,62,68,160
1,57,0,96
1,62,0,44
1,62,55,20
1,57,64,0
1,65,87,0
1,69,82,0
1,69,0,252
1,65,0,8
1,57,0,12
1,62,0,12
1,57,45,36
1,65,74,0
1,62,68,0
1,65,0,104
1,62,0,16
1,57,0,44
1,50,50,316
1,50,0,76
1,62,87,84
1,65,82,0
1,57,70,0
1,65,0,196
1,57,0,16
1,62,0,0
1,57,53,428
1,60,68,160
1,57,0,96
1,60,0,44
1,60,55,20
1,57,64,0
1,65,87,0
1,69,82,0
1,69,0,252
1,65,0,8
1,57,0,12
1,60,0,12
1,57,45,36
1,65,74,0
1,60,68,0
1,65,0,104
1,60,0,16
1,57,0,44
1,41,50,316
1,41,0,76
1,60,87,84
1,65,82,0
1,57,70,0
1,65,0,196
1,57,0,16
1,60,0,0
1,65,66,748
1,62,66,0
1,57,66,0
1,57,0,248
1,62,0,0
1,65,0,0
1,50,72,552
1,50,0,144
1,65,70,16
1,62,70,0
1,57,70,0
1,57,0,204
1,62,0,0
1,65,0,0
1,57,53,436
1,62,68,160
1,57,0,96
1,62,0,44
1,62,55,20
1,57,64,0
1,65,87,0
1,69,82,0
1,69,0,252
1,65,0,8
1,57,0,12
1,62,0,12
1,57,45,36
1,65,74,0
1,62,68,0
1,65,0,104
1,62,0,16
1,57,0,44
1,50,50,316
1,50,0,76
1,62,87,84
1,65,82,0
1,57,70,0
1,65,0,196
1,57,0,16
1,62,0,0
1,46,38,588
1,46,0,96
1,58,100,64
1,62,100,0
1,62,72,0
1,58,76,0
1,53,61,0
1,65,68,0
1,65,0,180
1,62,0,40
1,58,0,20
1,58,0,0
1,62,0,0
1,58,100,0
1,62,100,0
1,53,0,8
1,62,0,472
1,58,0,0
1,58,100,0
1,62,100,0
1,46,36,80
1,46,0,64
1,62,0,96
1,58,0,0
1,58,100,0
1,62,100,0
1,65,82,0
1,58,80,0
1,62,82,0
1,53,64,0
1,65,0,192
1,62,0,0
1,58,0,8
1,53,0,0
1,58,0,280
1,62,0,0
1,58,100,0
1,64,100,0
1,48,38,320
1,48,0,96
1,64,0,64
1,58,0,0
1,64,72,0
1,60,76,0
1,58,61,0
1,67,68,0
1,67,0,180
1,64,0,40
1,60,0,20
1,58,0,8
1,48,36,552
1,48,0,64
1,67,82,96
1,60,80,0
1,64,82,0
1,58,64,0
1,64,0,192
1,67,0,0
1,60,0,8
1,58,0,0
1,57,100,280
1,60,100,0
1,57,53,160
1,60,68,160
1,57,0,96
1,60,0,44
1,57,0,20
1,60,0,0
1,60,100,0
1,57,100,0
1,60,55,0
1,57,64,0
1,65,87,0
1,69,82,0
1,57,0,240
1,60,0,0
1,60,100,0
1,57,100,0
1,69,0,12
1,65,0,8
1,57,0,12
1,60,0,12
1,57,45,36
1,65,74,0
1,60,68,0
1,65,0,104
1,60,0,16
1,57,0,44
1,57,0,236
1,60,0,0
1,60,100,0
1,57,100,0
1,41,50,80
1,41,0,76
1,57,0,84
1,60,0,0
1,60,100,0
1,57,100,0
1,60,87,0
1,65,82,0
1,57,70,0
1,65,0,196
1,57,0,16
1,60,0,0
1,60,0,268
1,57,0,0
1,50,38,320
1,50,0,96
1,53,100,64
1,57,100,0
1,62,100,0
1,65,72,0
1,62,76,0
1,57,61,0
1,69,68,0
1,69,0,180
1,65,0,40
1,62,0,20
1,57,0,8
1,53,0,232
1,62,0,0
1,57,0,0
1,53,100,0
1,57,100,0
1,62,100,0
1,50,36,320
1,50,0,64
1,53,0,96
1,57,0,0
1,62,0,0
1,69,82,0
1,62,80,0
1,65,82,0
1,57,64,0
1,65,0,192
1,69,0,0
1,62,0,8
1,57,0,0
1,65,100,280
1,57,100,0
1,60,100,0
1,57,53,160
1,60,68,160
1,57,0,96
1,60,0,44
1,65,0,20
1,57,0,0
1,60,0,0
1,65,100,0
1,60,100,0
1,57,100,0
1,60,55,0
1,57,64,0
1,65,87,0
1,69,82,0
1,57,0,240
1,65,0,0
1,60,0,0
1,57,100,0
1,60,100,0
1,65,100,0
1,69,0,12
1,65,0,8
1,57,0,12
1,60,0,12
1,57,45,36
1,65,74,0
1,60,68,0
1,65,0,104
1,60,0,16
1,57,0,44
1,57,0,236
1,65,0,0
1,60,0,0
1,57,100,0
1,60,100,0
1,65,100,0
1,41,50,80
1,41,0,76
1,57,0,84
1,60,0,0
1,65,0,0
1,57,100,0
1,60,100,0
1,65,100,0
1,60,87,0
1,65,82,0
1,57,70,0
1,65,0,196
1,57,0,16
1,60,0,0
1,60,0,268
1,65,0,0
1,57,0,0
1,53,100,0
1,57,100,0
1,62,100,0
1,62,0,480
1,57,0,0
1,53,0,0
1,65,74,0
1,69,68,0
1,57,58,0
1,62,68,0
1,62,0,264
1,69,0,0
1,57,0,20
1,65,0,0
1,50,51,516
1,50,0,84
1,65,63,76
1,62,80,0
1,69,78,0
1,57,70,0
1,69,0,272
1,57,0,40
1,62,0,0
1,62,49,8
1,57,42,0
1,65,0,36
1,62,0,48
1,57,0,8
1,65,74,548
1,69,68,0
1,57,58,0
1,60,68,0
1,60,0,264
1,69,0,0
1,57,0,20
1,65,0,0
1,41,51,516
1,41,0,84
1,65,63,76
1,60,80,0
1,69,78,0
1,57,70,0
1,69,0,272
1,57,0,40
1,60,0,0
1,60,49,8
1,57,42,0
1,65,0,36
1,60,0,48
1,57,0,8
1,57,53,228
1,62,68,160
1,57,0,96
1,62,0,44
1,62,55,20
1,57,64,0
1,65,87,0
1,69,82,0
1,69,0,252
1,65,0,8
1,57,0,12
1,62,0,12
1,57,45,36
1,65,74,0
1,62,68,0
1,65,0,104
1,62,0,16
1,57,0,44
1,50,50,316
1,50,0,76
1,62,87,84
1,65,82,0
1,57,70,0
1,65,0,196
1,57,0,16
1,62,0,0
1,65,66,748
1,60,66,0
1,57,66,0
1,57,0,248
1,60,0,0
1,65,0,0
1,41,72,552
1,41,0,144
1,65,70,16
1,60,70,0
1,57,70,0
1,57,0,204
1,60,0,0
1,65,0,0
1,50,49,596
1,50,0,148
1,65,60,12
1,62,60,0
1,57,60,0
1,57,0,212
1,62,0,0
1,65,0,0
1,65,60,108
1,62,60,0
1,57,60,0
1,57,0,100
1,62,0,0
1,65,0,0
1,50,54,380
1,50,0,124
1,65,70,36
1,62,70,0
1,57,70,0
1,57,0,144
1,62,0,0
1,65,0,0
1,41,38,656
1,41,0,96
1,65,72,64
1,60,76,0
1,57,61,0
1,69,68,0
1,69,0,180
1,65,0,40
1,60,0,20
1,57,0,8
1,41,36,552
1,41,0,64
1,69,82,96
1,60,80,0
1,65,82,0
1,57,64,0
1,65,0,192
1,69,0,0
1,60,0,8
1,57,0,0
1,57,53,440
1,62,68,160
1,57,0,96
1,62,0,44
1,62,55,20
1,57,64,0
1,65,87,0
1,69,82,0
1,69,0,252
1,65,0,8
1,57,0,12
1,62,0,12
1,57,45,36
1,65,74,0
1,62,68,0
1,65,0,104
1,62,0,16
1,57,0,44
1,50,50,316
1,50,0,76
1,62,87,84
1,65,82,0
1,57,70,0
1,65,0,196
1,57,0,16
1,62,0,0
1,57,53,428
1,60,68,160
1,57,0,96
1,60,0,44
1,60,55,20
1,57,64,0
1,65,87,0
1,69,82,0
1,69,0,252
1,65,0,8
1,57,0,12
1,60,0,12
1,57,45,36
1,65,74,0
1,60,68,0
1,65,0,104
1,60,0,16
1,57,0,44
1,41,50,316
1,41,0,76
1,60,87,84
1,65,82,0
1,57,70,0
1,65,0,196
1,57,0,16
1,60,0,0
1,50,50,588
1,50,0,160
1,65,72,0
1,69,70,0
1,57,66,0
1,62,70,0
1,62,0,228
1,65,0,0
1,69,0,0
1,57,0,0
1,50,57,572
1,50,0,160
1,65,80,0
1,57,58,0
1,69,68,0
1,62,59,0
1,62,0,240
1,69,0,0
1,57,0,0
1,65,0,28
1,50,57,532
1,50,0,120
1,65,70,40
1,69,68,0
1,57,58,0
1,62,70,0
1,57,0,260
1,69,0,4
1,62,0,4
1,65,0,20
1,65,64,32
1,57,70,0
1,62,82,0
1,69,66,0
1,62,0,56
1,69,0,12
1,57,0,8
1,65,0,24
1,50,60,380
1,50,0,96
1,69,80,64
1,62,87,0
1,57,66,0
1,65,74,0
1,57,0,196
1,62,0,0
1,69,0,16
1,65,0,0
1,46,38,588
1,46,0,96
1,58,100,64
1,62,100,0
1,62,72,0
1,58,76,0
1,53,61,0
1,65,68,0
1,65,0,180
1,62,0,40
1,58,0,20
1,58,0,0
1,62,0,0
1,58,100,0
1,62,100,0
1,53,0,8
1,62,0,472
1,58,0,0
1,58,100,0
1,62,100,0
1,46,36,80
1,46,0,64
1,62,0,96
1,58,0,0
1,58,100,0
1,62,100,0
1,65,82,0
1,58,80,0
1,62,82,0
1,53,64,0
1,65,0,192
1,62,0,0
1,58,0,8
1,53,0,0
1,58,0,280
1,62,0,0
1,58,100,0
1,64,100,0
1,58,53,160
1,60,68,160
1,58,0,96
1,60,0,44
1,58,0,20
1,64,0,0
1,60,55,0
1,58,64,0
1,64,87,0
1,67,82,0
1,67,0,252
1,64,0,8
1,58,0,12
1,60,0,12
1,58,45,36
1,64,74,0
1,60,68,0
1,64,0,104
1,60,0,16
1,58,0,44
1,48,50,316
1,48,0,76
1,60,87,84
1,64,82,0
1,58,70,0
1,64,0,196
1,58,0,16
1,60,0,0
1,57,100,268
1,60,100,0
1,60,0,480
1,57,0,0
1,60,100,0
1,57,100,0
1,65,66,0
1,60,66,0
1,57,66,0
1,57,0,240
1,60,0,0
1,60,100,0
1,57,100,0
1,60,0,8
1,57,0,0
1,65,0,0
1,60,0,472
1,57,0,0
1,60,100,0
1,57,100,0
1,41,72,80
1,41,0,144
1,57,0,16
1,60,0,0
1,60,100,0
1,57,100,0
1,65,70,0
1,60,70,0
1,57,70,0
1,65,0,204
1,60,0,0
1,57,0,0
1,60,0,276
1,57,0,0
1,50,49,320
1,50,0,148
1,53,100,12
1,57,100,0
1,62,100,0
1,65,60,0
1,62,60,0
1,57,60,0
1,65,0,212
1,62,0,0
1,57,0,0
1,65,60,108
1,62,60,0
1,57,60,0
1,65,0,100
1,57,0,0
1,62,0,0
1,53,0,60
1,62,0,0
1,57,0,0
1,53,100,0
1,57,100,0
1,62,100,0
1,50,54,320
1,50,0,124
1,53,0,36
1,57,0,0
1,62,0,0
1,65,70,0
1,62,70,0
1,57,70,0
1,57,0,144
1,62,0,0
1,65,0,0
1,65,100,336
1,57,100,0
1,60,100,0
1,41,38,320
1,41,0,96
1,65,0,64
1,57,0,0
1,60,0,0
1,65,100,0
1,60,100,0
1,57,100,0
1,65,72,0
1,60,76,0
1,57,61,0
1,69,68,0
1,69,0,180
1,65,0,40
1,60,0,20
1,65,0,0
1,60,0,0
1,57,0,0
1,57,100,0
1,60,100,0
1,65,100,0
1,57,0,8
1,57,0,472
1,60,0,0
1,65,0,0
1,57,100,0
1,60,100,0
1,65,100,0
1,41,36,80
1,41,0,64
1,57,0,96
1,60,0,0
1,65,0,0
1,57,100,0
1,60,100,0
1,65,100,0
1,69,82,0
1,60,80,0
1,65,82,0
1,57,64,0
1,69,0,192
1,65,0,0
1,57,0,8
1,60,0,0
1,57,0,280
1,60,0,0
1,65,0,0
1,53,100,480
1,57,100,0
1,62,100,0
1,65,66,0
1,62,66,0
1,57,66,0
1,65,0,248
1,62,0,0
1,57,0,0
1,53,0,232
1,62,0,0
1,57,0,0
1,53,100,0
1,57,100,0
1,62,100,0
1,50,72,320
1,50,0,144
1,53,0,16
1,57,0,0
1,62,0,0
1,65,70,0
1,62,70,0
1,57,70,0
1,57,0,204
1,62,0,0
1,65,0,0
1,48,34,320
1,48,0,140
1,64,74,20
1,60,78,0
1,67,72,0
1,58,57,0
1,67,0,264
1,64,0,0
1,60,0,0
1,67,52,56
1,60,85,0
1,64,62,0
1,60,0,60
1,58,0,0
1,64,0,12
1,67,0,28
1,48,51,380
1,48,0,136
1,52,72,24
1,58,80,0
1,58,0,224
1,52,0,0
1,46,34,320
1,46,0,140
1,62,74,20
1,65,72,0
1,58,57,0
1,65,0,264
1,62,0,0
1,65,52,56
1,62,85,0
1,62,0,60
1,58,0,0
1,65,0,40
1,46,51,380
1,46,0,136
1,50,72,24
1,58,80,0
1,58,0,224
1,50,0,0
1,48,53,576
1,48,0,140
1,64,60,20
1,60,60,0
1,58,60,0
1,67,60,0
1,67,0,220
1,64,0,0
1,60,0,0
1,58,0,0
1,64,66,100
1,60,66,0
1,58,66,0
1,67,66,0
1,67,0,100
1,64,0,0
1,60,0,0
1,58,0,0
1,48,68,380
1,48,0,104
1,64,78,56
1,60,78,0
1,58,78,0
1,67,78,0
1,67,0,96
1,64,0,0
1,60,0,0
1,58,0,0
1,46,59,544
1,46,0,160
1,50,72,0
1,58,52,160
1,62,68,0
1,65,72,0
1,50,0,180
1,65,0,96
1,62,0,28
1,58,0,24
1,58,72,0
1,62,89,0
1,65,64,0
1,65,0,64
1,62,0,0
1,58,0,32
1,46,61,376
1,46,0,136
1,50,70,24
1,62,74,0
1,58,62,0
1,50,0,216
1,62,0,8
1,58,0,4
1,67,80,732
1,64,89,0
1,64,0,88
1,67,0,16
1,60,85,56
1,60,0,100
