track,note,velocity,time
0,62,92,0
0,57,97,10
0,38,104,5
0,66,100,5
0,62,92,0
0,57,97,10
0,38,104,5
0,50,126,5
0,66,100,0
0,40,121,0
0,57,104,10
0,40,0,0
0,50,126,30
0,57,104,10
0,62,104,20
0,66,80,35
0,62,104,5
0,66,80,35
0,44,70,15
0,44,0,10
0,62,0,205
0,57,0,10
0,63,96,0
0,38,0,5
0,58,99,0
0,66,0,5
0,67,97,0
0,39,107,10
0,40,22,75
0,40,0,30
0,57,0,20
0,57,0,40
0,62,0,20
0,50,0,10
0,62,0,20
0,66,0,5
0,57,0,5
0,63,96,0
0,62,0,0
0,38,0,5
0,58,99,0
0,39,51,0
0,51,104,0
0,66,0,0
0,67,97,0
0,44,85,0
0,50,0,0
0,58,104,10
0,39,107,0
0,44,0,0
0,40,126,0
0,63,104,10
0,66,0,5
0,67,71,5
0,40,0,10
0,51,104,0
0,58,104,10
0,63,104,10
0,67,71,10
0,39,51,265
0,44,70,0
0,44,0,10
0,39,0,205
0,39,51,265
0,44,70,0
0,44,0,10
0,39,0,205
0,40,127,105
0,40,0,10
0,39,51,150
0,44,70,0
0,44,0,10
0,39,0,205
0,40,28,105
0,40,0,30
0,51,0,10
0,58,0,10
0,63,0,10
0,67,0,10
0,51,0,10
0,58,0,10
0,63,0,10
0,67,0,10
0,39,51,50
0,44,85,0
0,44,0,10
0,40,126,0
0,40,0,30
0,39,0,175
0,39,51,265
0,44,70,0
0,44,0,10
0,39,0,205
0,39,51,265
0,44,70,0
0,44,0,10
0,38,104,20
0,62,99,5
0,57,98,5
0,66,92,0
0,39,0,145
0,50,126,55
0,57,104,10
0,62,104,20
0,38,104,5
0,62,99,5
0,50,126,0
0,57,98,5
0,66,92,0
0,66,80,5
0,40,110,0
0,57,104,0
0,40,0,10
0,62,104,10
0,66,80,20
0,39,51,120
0,44,70,0
0,44,0,10
0,63,0,95
0,58,0,5
0,67,0,5
0,39,0,10
0,39,0,90
0,38,0,5
0,62,0,5
0,66,0,5
0,57,0,0
0,58,99,0
0,67,99,10
0,39,104,5
0,63,98,0
0,40,28,75
0,63,0,30
0,40,0,0
0,58,0,5
0,67,0,5
0,39,0,10
0,57,0,80
0,38,0,15
0,50,0,5
0,62,0,0
0,66,0,0
0,62,0,0
0,66,0,5
0,57,0,0
0,58,99,0
0,39,51,5
0,51,104,0
0,44,85,0
0,67,99,5
0,58,104,5
0,39,104,0
0,63,98,0
0,44,0,0
0,40,126,0
0,57,0,0
0,63,104,10
0,67,71,10
0,50,0,0
0,62,0,0
0,66,0,0
0,40,0,10
0,51,104,0
0,58,104,10
0,63,104,10
0,67,71,10
0,39,51,265
0,44,70,0
0,44,0,10
0,39,0,205
0,39,51,265
0,44,70,0
0,44,0,10
0,39,0,205
0,40,127,105
0,40,0,10
0,39,51,150
0,44,70,0
0,44,0,10
0,39,0,205
0,40,28,105
0,40,0,30
0,51,0,10
0,58,0,10
0,63,0,10
0,67,0,10
0,51,0,10
0,58,0,10
0,63,0,10
0,67,0,10
0,39,51,50
0,44,85,0
0,44,0,10
0,40,126,0
0,40,0,30
0,39,0,175
0,39,51,265
0,44,70,0
0,44,0,10
0,39,0,205
0,39,51,265
0,44,70,0
0,44,0,10
0,57,94,20
0,62,95,5
0,38,104,10
0,66,96,5
0,39,0,135
0,50,126,55
0,57,104,10
0,62,104,20
0,57,94,5
0,62,95,5
0,50,126,0
0,66,80,10
0,38,104,0
0,40,110,0
0,57,104,0
0,66,96,5
0,40,0,5
0,62,104,10
0,66,80,20
0,39,51,120
0,44,70,0
0,44,0,10
0,58,0,100
0,67,0,10
0,63,0,5
0,39,0,0
0,39,0,90
0,57,0,5
0,39,107,0
0,62,0,5
0,63,91,0
0,38,0,10
0,66,0,5
0,67,97,0
0,58,98,5
0,40,28,75
0,40,0,30
0,58,0,5
0,39,107,0
0,50,0,5
0,62,0,0
0,66,0,0
0,62,0,0
0,63,91,0
0,39,51,10
0,51,104,0
0,38,0,0
0,44,85,0
0,66,0,5
0,67,97,0
0,58,104,5
0,58,98,0
0,66,124,0
0,44,0,0
0,40,126,0
0,57,0,0
0,63,104,10
0,67,71,10
0,50,0,0
0,62,0,0
0,66,0,0
0,40,0,10
0,51,104,0
0,58,104,0
0,66,124,0
0,63,104,0
0,67,71,10
0,39,51,115
0,65,80,0
0,44,70,0
0,44,0,10
0,65,80,30
0,65,0,20
0,66,124,0
0,65,0,40
0,66,124,0
0,39,0,115
0,66,0,140
0,66,0,40
0,39,51,85
0,66,112,0
0,44,70,0
0,44,0,10
0,66,112,0
0,66,90,5
0,40,110,5
0,40,0,10
0,66,0,20
0,66,90,5
0,66,0,20
0,66,0,40
0,39,51,65
0,63,86,0
0,44,70,0
0,44,0,10
0,63,86,30
0,39,0,60
0,63,0,5
0,67,0,15
0,58,0,5
0,39,0,90
0,63,0,45
0,63,0,40
0,40,28,20
0,60,42,10
0,39,0,15
0,63,0,5
0,40,0,0
0,51,0,10
0,67,0,5
0,58,0,5
0,58,0,0
0,60,42,0
0,63,0,10
0,67,0,10
0,51,0,10
0,58,0,10
0,63,0,10
0,67,0,10
0,60,0,40
0,39,51,10
0,44,85,0
0,44,0,10
0,40,126,0
0,63,86,5
0,60,0,15
0,40,0,10
0,63,86,15
0,39,0,160
0,63,0,170
0,63,0,40
0,39,51,55
0,63,124,0
0,44,70,0
0,44,0,10
0,63,124,30
0,63,0,80
0,63,0,40
0,39,0,55
0,60,110,15
0,60,110,30
0,39,51,55
0,44,70,0
0,44,0,10
0,38,109,30
0,66,100,0
0,62,98,0
0,57,97,5
0,39,0,140
0,50,126,10
0,57,104,10
0,62,104,20
0,50,126,0
0,38,109,5
0,66,100,0
0,62,98,0
0,66,80,5
0,57,97,0
0,40,110,0
0,57,104,0
0,40,0,10
0,62,104,10
0,66,80,0
0,39,51,80
0,44,70,0
0,44,0,10
0,67,100,5
0,39,103,5
0,62,0,5
0,38,0,0
0,66,0,0
0,57,0,5
0,58,96,5
0,63,92,5
0,40,28,75
0,40,0,30
0,67,100,10
0,50,0,5
0,62,0,0
0,66,0,0
0,39,103,0
0,62,0,5
0,38,0,0
0,66,0,0
0,39,51,5
0,51,104,0
0,57,0,0
0,66,98,0
0,44,85,0
0,58,96,5
0,58,104,5
0,63,92,0
0,44,0,0
0,40,126,0
0,57,0,0
0,63,104,5
0,67,71,10
0,50,0,0
0,62,0,0
0,66,0,0
0,40,0,10
0,51,104,0
0,66,98,0
0,58,104,0
0,63,104,0
0,67,71,10
0,66,90,40
0,66,0,0
0,66,90,40
0,66,0,40
0,66,0,40
0,39,51,10
0,66,98,0
0,44,70,0
0,44,0,10
0,66,98,30
0,39,0,175
0,66,0,95
0,66,90,30
0,66,0,10
0,66,90,30
0,66,0,30
0,66,0,40
0,39,51,30
0,66,104,0
0,44,70,0
0,44,0,10
0,66,104,0
0,40,110,105
0,40,0,10
0,66,0,75
0,66,0,40
0,63,94,30
0,39,51,5
0,44,70,0
0,44,0,10
0,63,94,25
0,67,0,65
0,39,0,5
0,58,0,15
0,63,0,5
0,39,0,90
0,40,28,85
0,63,0,5
0,60,56,15
0,40,0,10
0,67,0,15
0,63,0,0
0,39,0,5
0,51,0,10
0,60,56,0
0,58,0,5
0,58,0,5
0,63,0,0
0,63,0,10
0,67,0,10
0,40,28,0
0,51,0,10
0,58,0,10
0,40,0,10
0,63,0,0
0,67,0,10
0,39,51,50
0,60,0,0
0,63,91,0
0,44,85,0
0,44,0,10
0,40,126,0
0,40,0,30
0,60,0,0
0,63,91,0
0,39,0,175
0,63,0,145
0,63,0,40
0,39,51,80
0,63,67,0
0,44,70,0
0,44,0,10
0,63,67,30
0,39,0,175
0,60,90,90
0,63,0,5
0,60,90,35
0,63,0,5
0,39,51,25
0,44,70,0
0,44,0,10
0,62,100,10
0,38,104,10
0,66,95,5
0,57,98,5
0,50,126,25
0,57,104,10
0,60,0,5
0,62,104,15
0,62,100,0
0,38,104,10
0,50,126,0
0,66,95,5
0,66,80,5
0,57,98,0
0,40,110,0
0,57,104,0
0,40,0,10
0,62,104,10
0,66,80,20
0,39,51,120
0,44,70,0
0,44,0,10
0,39,0,205
0,62,0,0
0,38,0,10
0,66,0,5
0,57,0,5
0,39,104,0
0,58,98,0
0,67,96,5
0,63,97,0
0,40,28,80
0,40,0,30
0,39,51,5
0,51,104,0
0,57,0,0
0,39,104,0
0,58,98,0
0,66,98,0
0,44,85,0
0,67,96,5
0,63,97,0
0,58,104,5
0,44,0,0
0,40,126,0
0,57,0,0
0,63,104,10
0,67,71,10
0,50,0,0
0,62,0,0
0,66,0,0
0,40,0,10
0,51,104,0
0,66,98,0
0,58,104,10
0,63,104,10
0,67,71,10
0,66,90,10
0,66,90,40
0,66,0,55
0,66,0,40
0,39,51,35
0,66,98,0
0,44,70,0
0,44,0,10
0,66,98,30
0,39,0,175
0,66,0,45
0,66,90,35
0,66,0,5
0,66,90,35
0,66,0,50
0,66,0,40
0,39,51,55
0,66,98,0
0,44,70,0
0,44,0,10
0,66,98,30
0,39,0,175
0,66,0,45
0,66,0,40
0,66,90,10
0,40,110,10
0,40,0,10
0,66,90,20
0,66,0,55
0,66,0,40
0,39,51,35
0,63,94,0
0,44,70,0
0,44,0,10
0,63,94,30
0,58,0,75
0,39,0,0
0,67,0,5
0,63,0,0
0,39,0,95
0,63,0,90
0,60,56,15
0,40,28,0
0,63,0,25
0,40,0,5
0,51,0,10
0,58,0,0
0,39,0,0
0,60,56,0
0,67,0,5
0,63,0,0
0,58,0,5
0,63,0,10
0,67,0,10
0,51,0,10
0,58,0,10
0,63,0,10
0,67,0,10
0,39,51,50
0,60,0,0
0,63,99,0
0,44,85,0
0,44,0,10
0,40,126,0
0,40,0,30
0,60,0,0
0,63,99,0
0,39,51,40
0,60,79,0
0,44,70,0
0,63,0,0
0,44,0,10
0,60,79,30
0,39,0,175
0,66,93,10
0,66,93,5
0,39,51,25
0,44,70,0
0,44,0,10
0,66,99,0
0,62,95,5
0,57,91,0
0,38,110,5
0,50,126,10
0,57,104,10
0,62,104,20
0,50,126,10
0,66,99,5
0,66,80,5
0,62,95,0
0,57,91,0
0,40,110,0
0,57,104,0
0,38,110,5
0,40,0,5
0,62,104,10
0,66,80,20
0,39,51,120
0,44,70,0
0,44,0,10
0,39,0,205
0,66,0,15
0,58,96,0
0,67,99,0
0,62,0,5
0,57,0,0
0,38,0,5
0,39,107,0
0,63,100,0
0,40,28,80
0,40,0,30
0,67,0,60
0,58,0,0
0,39,0,10
0,63,0,0
0,57,0,30
0,58,96,0
0,67,99,0
0,39,51,5
0,51,85,0
0,62,0,0
0,57,0,0
0,66,90,0
0,44,85,0
0,35,79,0
0,38,0,5
0,39,107,0
0,63,100,0
0,58,85,5
0,44,0,0
0,40,99,0
0,57,0,0
0,63,85,10
0,67,59,10
0,35,0,0
0,50,0,0
0,62,0,0
0,66,0,0
0,40,0,10
0,51,85,0
0,66,90,0
0,58,85,10
0,63,85,10
0,67,59,10
0,67,0,105
0,58,0,0
0,39,0,10
0,63,0,0
0,39,0,30
0,51,0,25
0,66,0,0
0,58,0,10
0,63,0,10
0,67,0,10
0,66,90,0
0,51,0,10
0,66,0,0
0,58,0,10
0,63,0,10
0,67,0,10
0,66,90,0
0,66,0,55
0,66,0,40
0,66,90,75
0,66,90,40
0,66,0,130
0,66,0,40
0,66,54,60
0,66,54,40
0,66,0,40
0,66,48,10
0,66,0,30
0,66,48,10
0,66,0,20
0,66,0,40
0,66,90,0
0,66,90,0
0,66,90,270
0,66,90,40
0,66,90,260
0,66,90,40
0,81,61,15
0,87,64,20
0,82,55,0
0,66,0,5
0,81,0,35
0,82,0,45
0,87,0,20
0,75,68,45
0,27,119,5
0,81,61,0
0,66,90,0
0,82,56,5
0,87,61,0
0,87,64,0
0,82,55,0
0,66,90,0
0,75,79,10
0,75,68,5
0,82,56,10
0,87,61,0
0,87,84,0
0,82,72,0
0,66,0,15
0,25,119,45
0,25,0,10
0,75,0,10
0,75,0,5
0,87,0,5
0,82,0,5
0,82,0,0
0,87,0,10
0,27,0,45
0,75,99,75
0,30,96,5
0,75,79,0
0,66,90,0
0,82,74,5
0,87,88,0
0,87,84,10
0,82,72,0
0,66,90,25
0,82,0,55
0,75,0,0
0,75,0,5
0,82,0,10
0,87,0,5
0,87,0,5
0,75,91,115
0,75,99,5
0,82,74,10
0,87,88,0
0,66,0,10
0,87,103,10
0,82,88,0
0,66,0,30
0,25,119,10
0,75,0,20
0,25,0,10
0,82,0,0
0,75,0,0
0,87,0,20
0,66,90,0
0,82,0,10
0,87,0,0
0,40,127,10
0,66,0,10
0,30,0,10
0,66,90,0
0,40,0,10
0,66,0,20
0,40,127,30
0,31,96,20
0,75,91,0
0,66,120,0
0,75,94,5
0,40,0,5
0,87,103,25
0,82,88,0
0,82,96,0
0,87,103,0
0,66,120,0
0,81,111,5
0,75,94,10
0,82,96,20
0,87,103,0
0,82,118,5
0,87,126,0
0,81,0,10
0,81,111,25
0,63,110,0
0,35,75,0
0,46,66,0
0,44,123,0
0,46,0,5
0,32,109,5
0,75,62,10
0,35,0,5
0,63,110,10
0,82,118,10
0,87,126,0
0,81,0,10
0,75,0,65
0,82,0,30
0,44,0,25
0,87,0,10
0,44,108,55
0,46,58,15
0,75,62,10
0,46,0,20
0,48,127,80
0,63,0,0
0,46,88,0
0,36,119,5
0,46,0,5
0,40,126,0
0,40,0,10
0,63,0,20
0,48,0,155
0,77,92,40
0,48,125,10
0,46,58,15
0,78,111,0
0,75,96,0
0,72,81,10
0,46,0,20
0,77,0,5
0,72,0,10
0,36,0,60
0,48,0,35
0,39,96,40
0,77,92,0
0,35,75,0
0,46,70,0
0,51,114,10
0,46,0,0
0,78,111,15
0,75,96,0
0,35,0,5
0,72,81,5
0,78,0,20
0,77,0,5
0,72,0,10
0,72,74,5
0,72,0,110
0,75,0,20
0,51,0,10
0,51,111,35
0,46,58,10
0,75,96,5
0,77,88,0
0,72,72,5
0,46,0,20
0,78,0,10
0,72,74,20
0,72,0,20
0,39,0,20
0,51,0,45
0,72,0,25
0,75,0,45
0,46,88,5
0,77,0,5
0,41,119,5
0,46,0,0
0,53,122,5
0,75,96,15
0,77,88,0
0,40,127,0
0,72,72,5
0,40,0,5
0,72,76,55
0,72,0,10
0,72,0,85
0,53,0,25
0,51,118,5
0,77,92,15
0,75,0,5
0,77,0,10
0,46,58,10
0,75,79,0
0,78,81,15
0,72,69,5
0,46,0,10
0,77,0,5
0,72,0,35
0,72,76,10
0,41,0,30
0,51,0,5
0,75,0,20
0,72,0,40
0,44,126,45
0,77,92,0
0,35,75,0
0,46,66,0
0,32,109,10
0,46,0,0
0,78,0,5
0,75,79,10
0,35,0,5
0,78,81,10
0,72,69,5
0,77,0,15
0,72,0,35
0,72,79,15
0,78,40,35
0,75,34,5
0,75,0,10
0,78,0,15
0,75,0,10
0,44,0,15
0,72,0,5
0,44,126,25
0,78,0,30
0,46,58,0
0,77,88,15
0,75,75,5
0,72,74,0
0,66,87,5
0,66,87,10
0,72,79,5
0,78,40,10
0,75,34,5
0,48,109,10
0,66,93,5
0,46,88,0
0,46,0,10
0,40,126,0
0,36,119,5
0,40,0,5
0,77,88,20
0,66,93,0
0,75,75,5
0,72,74,0
0,75,99,40
0,72,96,0
0,72,0,55
0,75,0,30
0,48,0,25
0,77,0,0
0,48,127,40
0,66,0,25
0,46,58,0
0,46,0,30
0,66,82,5
0,66,0,5
0,75,99,20
0,72,96,0
0,66,82,0
0,51,112,25
0,35,75,10
0,46,39,0
0,39,96,5
0,46,0,5
0,35,0,20
0,51,0,150
0,66,0,60
0,51,127,10
0,46,49,10
0,66,0,20
0,46,0,10
0,63,61,5
0,63,61,40
0,75,0,10
0,39,0,20
0,72,0,0
0,51,0,30
0,63,0,20
0,63,0,40
0,53,120,15
0,66,79,10
0,46,88,0
0,41,119,10
0,46,0,0
