track,note,velocity,time
1,34,100,1536
1,34,100,4
1,34,100,4
1,39,100,4
1,39,100,4
1,39,100,4
1,39,100,4
1,37,100,4
1,32,100,4
1,32,100,4
1,32,100,4
1,32,100,4
1,32,100,4
1,37,100,4
1,37,100,4
1,35,100,4
1,35,100,4
1,34,100,4
1,34,100,4
1,34,100,4
1,39,100,4
1,39,100,4
1,39,100,4
1,39,100,4
1,37,100,4
1,32,100,4
1,32,100,4
1,32,100,4
1,32,100,4
1,32,100,4
1,37,100,4
1,37,100,4
1,35,100,4
1,35,100,4
1,34,100,4
1,34,100,4
1,34,100,4
1,39,100,4
1,39,100,4
1,39,100,4
1,39,100,4
1,37,100,4
1,32,100,4
1,32,100,4
1,32,100,4
1,32,100,4
1,32,100,4
1,37,100,4
1,37,100,4
1,35,100,4
1,35,100,4
1,34,100,4
1,34,100,4
1,34,100,4
1,39,100,4
1,39,100,4
1,39,100,4
1,39,100,4
1,37,100,4
1,32,100,4
1,32,100,4
1,32,100,4
1,32,100,4
1,32,100,4
1,37,100,4
1,37,100,4
1,35,100,4
1,35,100,4
1,34,100,4
1,34,100,4
1,34,100,4
1,39,100,4
1,39,100,4
1,39,100,4
1,39,100,4
1,37,100,4
1,32,100,4
1,32,100,4
1,32,100,4
1,32,100,4
1,32,100,4
1,37,100,4
1,37,100,4
1,35,100,4
1,35,100,4
1,34,100,4
1,34,100,4
1,34,100,4
1,39,100,4
1,39,100,4
1,39,100,4
1,39,100,4
1,37,100,4
1,32,100,4
1,32,100,4
1,32,100,4
1,32,100,4
1,32,100,4
1,37,100,4
1,37,100,4
1,35,100,4
1,35,100,4
1,34,100,4
1,34,100,4
1,34,100,4
1,39,100,4
1,39,100,4
1,39,100,4
1,39,100,4
1,37,100,4
1,32,100,4
1,32,100,4
1,32,100,4
1,32,100,4
1,32,100,4
1,37,100,4
1,37,100,4
1,35,100,4
1,35,100,4
1,34,100,4
1,34,100,4
1,34,100,4
1,39,100,4
1,39,100,4
1,39,100,4
1,39,100,4
1,37,100,4
1,32,100,4
1,32,100,4
1,32,100,4
1,32,100,4
1,32,100,4
1,37,100,4
1,37,100,4
1,35,100,4
1,35,100,4
1,34,100,4
1,34,100,4
1,34,100,4
1,39,100,4
1,39,100,4
1,39,100,4
1,39,100,4
1,37,100,4
1,32,100,4
1,32,100,4
1,32,100,4
1,32,100,4
1,32,100,4
1,37,100,4
1,37,100,4
1,35,100,4
1,35,100,4
1,34,100,4
1,34,100,4
1,34,100,4
1,39,100,4
1,39,100,4
1,39,100,4
1,39,100,4
1,37,100,4
1,32,100,4
1,32,100,4
1,32,100,4
1,32,100,4
1,32,100,4
1,37,100,4
1,37,100,4
1,35,100,4
1,35,100,4
1,34,100,4
1,34,100,4
1,34,100,4
1,39,100,4
1,39,100,4
1,39,100,4
1,39,100,4
1,37,100,4
1,32,100,4
1,32,100,4
1,32,100,4
1,32,100,4
1,32,100,4
1,37,100,4
1,37,100,4
1,35,100,4
1,35,100,4
1,34,100,4
1,34,100,4
1,34,100,4
1,39,100,4
1,39,100,4
1,39,100,4
1,39,100,4
1,37,100,4
1,32,100,4
1,32,100,4
1,32,100,4
1,32,100,4
1,32,100,4
1,37,100,4
1,37,100,4
1,35,100,4
1,35,100,4
1,34,100,4
1,34,100,4
1,34,100,4
1,39,100,4
1,39,100,4
1,39,100,4
1,39,100,4
1,37,100,4
1,32,100,4
1,32,100,4
1,32,100,4
1,32,100,4
1,32,100,4
1,37,100,4
1,37,100,4
1,35,100,4
1,35,100,4
1,34,100,4
1,34,100,4
1,34,100,4
1,39,100,4
1,39,100,4
1,39,100,4
1,39,100,4
1,37,100,4
1,32,100,4
1,32,100,4
1,32,100,4
1,32,100,4
1,32,100,4
1,37,100,4
1,37,100,4
1,35,100,4
1,35,100,4
1,34,100,4
1,34,100,4
1,34,100,4
1,39,100,4
1,39,100,4
1,39,100,4
1,39,100,4
1,37,100,4
1,32,100,4
1,32,100,4
1,32,100,4
1,32,100,4
1,32,100,4
1,37,100,4
1,37,100,4
1,35,100,4
1,35,100,4
1,34,100,4
1,34,100,4
1,34,100,4
1,39,100,4
1,39,100,4
1,39,100,4
1,39,100,4
1,37,100,4
1,32,100,4
1,32,100,4
1,32,100,4
1,32,100,4
1,32,100,4
1,37,100,4
1,37,100,4
1,35,100,4
1,35,100,4
1,34,100,4
1,34,100,4
1,32,100,4
1,30,100,4
1,30,100,4
1,30,100,4
1,30,100,4
1,30,100,4
1,35,100,4
1,35,100,4
1,34,100,4
1,32,100,4
1,32,100,4
1,32,100,4
1,32,100,4
1,32,100,4
1,34,100,4
1,34,100,4
1,32,100,4
1,30,100,4
1,30,100,4
1,30,100,4
1,30,100,4
1,30,100,4
1,35,100,4
1,35,100,4
1,34,100,4
1,32,100,4
1,32,100,4
1,32,100,4
1,32,100,4
1,32,100,4
1,28,100,4
1,28,100,4
1,28,100,4
1,33,100,4
1,33,100,4
1,33,100,4
1,33,100,4
1,33,100,4
1,30,100,4
1,30,100,4
1,30,100,4
1,35,100,4
1,35,100,4
1,35,100,4
1,35,100,4
1,35,100,4
1,34,100,4
1,34,100,4
1,32,100,4
1,30,100,4
1,30,100,4
1,30,100,4
1,30,100,4
1,30,100,4
1,35,100,4
1,35,100,4
1,36,100,4
1,37,100,4
1,34,100,4
1,34,100,4
1,34,100,4
1,39,100,4
1,39,100,4
1,39,100,4
1,39,100,4
1,37,100,4
1,32,100,4
1,32,100,4
1,32,100,4
1,32,100,4
1,32,100,4
1,37,100,4
1,37,100,4
1,35,100,4
1,35,100,4
1,34,100,4
1,34,100,4
1,34,100,4
1,39,100,4
1,39,100,4
1,39,100,4
1,39,100,4
1,37,100,4
1,32,100,4
1,32,100,4
1,32,100,4
1,32,100,4
1,32,100,4
1,37,100,4
1,37,100,4
1,35,100,4
1,35,100,4
1,34,100,4
1,34,100,4
1,34,100,4
1,39,100,4
1,39,100,4
1,39,100,4
1,39,100,4
1,37,100,4
1,32,100,4
1,32,100,4
1,32,100,4
1,32,100,4
1,32,100,4
1,37,100,4
1,37,100,4
1,35,100,4
1,35,100,4
1,34,100,4
1,34,100,4
1,34,100,4
1,39,100,4
1,39,100,4
1,39,100,4
1,39,100,4
1,37,100,4
1,32,100,4
1,32,100,4
1,32,100,4
1,32,100,4
1,32,100,4
1,37,100,4
1,37,100,4
1,35,100,4
1,35,100,4
1,34,100,4
1,34,100,4
1,34,100,4
1,39,100,4
1,39,100,4
1,39,100,4
1,39,100,4
1,37,100,4
1,32,100,4
1,32,100,4
1,32,100,4
1,32,100,4
1,32,100,4
1,37,100,4
1,37,100,4
1,35,100,4
1,35,100,4
1,34,100,4
1,34,100,4
1,34,100,4
1,39,100,4
1,39,100,4
1,39,100,4
1,39,100,4
1,37,100,4
1,32,100,4
1,32,100,4
1,32,100,4
1,32,100,4
1,32,100,4
1,37,100,4
1,37,100,4
1,35,100,4
1,35,100,4
1,34,100,4
1,34,100,4
1,34,100,4
1,39,100,4
1,39,100,4
1,39,100,4
1,39,100,4
1,37,100,4
1,32,100,4
1,32,100,4
1,32,100,4
1,32,100,4
1,32,100,4
1,37,100,4
1,37,100,4
1,35,100,4
1,35,100,4
1,34,100,4
1,34,100,4
1,34,100,4
1,39,100,4
1,39,100,4
1,39,100,4
1,39,100,4
1,37,100,4
1,32,100,4
1,32,100,4
1,32,100,4
1,32,100,4
1,32,100,4
1,37,100,4
1,37,100,4
1,35,100,4
1,35,100,4
1,34,100,4
1,34,100,4
1,34,100,4
1,39,100,4
1,39,100,4
1,39,100,4
1,39,100,4
1,37,100,4
1,32,100,4
1,32,100,4
1,32,100,4
1,32,100,4
1,32,100,4
1,37,100,4
1,37,100,4
1,35,100,4
1,35,100,4
1,34,100,4
1,34,100,4
1,34,100,4
1,39,100,4
1,39,100,4
1,39,100,4
1,39,100,4
1,37,100,4
1,32,100,4
1,32,100,4
1,32,100,4
1,32,100,4
1,32,100,4
1,37,100,4
1,37,100,4
1,35,100,4
1,35,100,4
1,34,100,4
1,34,100,4
1,32,100,4
1,30,100,4
1,30,100,4
1,30,100,4
1,30,100,4
1,30,100,4
1,35,100,4
1,35,100,4
1,34,100,4
1,32,100,4
1,32,100,4
1,32,100,4
1,32,100,4
1,32,100,4
1,34,100,4
1,34,100,4
1,32,100,4
1,30,100,4
1,30,100,4
1,30,100,4
1,30,100,4
1,30,100,4
1,35,100,4
1,35,100,4
1,34,100,4
1,32,100,4
1,32,100,4
1,32,100,4
1,32,100,4
1,32,100,4
1,28,100,4
1,28,100,4
1,28,100,4
1,33,100,4
1,33,100,4
1,33,100,4
1,33,100,4
1,33,100,4
1,30,100,4
1,30,100,4
1,30,100,4
1,35,100,4
1,35,100,4
1,35,100,4
1,35,100,4
1,35,100,4
1,34,100,4
1,34,100,4
1,32,100,4
1,30,100,4
1,30,100,4
1,30,100,4
1,30,100,4
1,30,100,4
1,35,100,4
1,35,100,4
1,36,100,4
1,37,100,4
1,34,100,1536
1,34,100,4
1,34,100,4
1,39,100,4
1,39,100,4
1,39,100,4
1,39,100,4
1,37,100,4
1,32,100,4
1,32,100,4
1,32,100,4
1,32,100,4
1,32,100,4
1,37,100,4
1,37,100,4
1,35,100,4
1,35,100,4
1,34,100,4
1,34,100,4
1,34,100,4
1,39,100,4
1,39,100,4
1,39,100,4
1,39,100,4
1,37,100,4
1,32,100,4
1,32,100,4
1,32,100,4
1,32,100,4
1,32,100,4
1,37,100,4
1,37,100,4
1,35,100,4
1,35,100,4
1,34,100,4
1,34,100,4
1,34,100,4
1,39,100,4
1,39,100,4
1,39,100,4
1,39,100,4
1,37,100,4
1,32,100,4
1,32,100,4
1,32,100,4
1,32,100,4
1,32,100,4
1,37,100,4
1,37,100,4
1,35,100,4
1,35,100,4
1,34,100,4
1,34,100,4
1,34,100,4
1,39,100,4
1,39,100,4
1,39,100,4
1,39,100,4
1,37,100,4
1,32,100,4
1,32,100,4
1,32,100,4
1,32,100,4
1,32,100,4
1,37,100,4
1,37,100,4
1,35,100,4
1,35,100,4
1,34,100,4
1,34,100,4
1,34,100,4
1,39,100,4
1,39,100,4
1,39,100,4
1,39,100,4
1,39,100,4
1,32,100,4
1,32,100,4
1,32,100,4
1,32,100,4
1,32,100,4
1,37,100,4
1,37,100,4
1,35,100,4
1,35,100,4
1,34,100,4
1,34,100,4
1,34,100,4
1,39,100,4
1,39,100,4
1,39,100,4
1,39,100,4
1,39,100,4
1,32,100,4
1,32,100,4
1,32,100,4
1,32,100,4
1,32,100,4
1,37,100,4
1,37,100,4
1,35,100,4
1,35,100,4
1,34,100,4
1,34,100,4
1,34,100,4
1,39,100,4
1,39,100,4
1,39,100,4
1,39,100,4
1,39,100,4
1,32,100,4
1,32,100,4
1,32,100,4
1,32,100,4
1,32,100,4
1,37,100,4
1,37,100,4
1,35,100,4
1,35,100,4
1,34,100,4
1,34,100,4
1,34,100,4
1,39,100,4
1,39,100,4
1,39,100,4
1,39,100,4
1,39,100,4
1,32,100,4
1,32,100,4
1,32,100,4
1,32,100,4
1,32,100,4
1,37,100,4
1,37,100,4
1,35,100,4
1,35,100,4
1,34,100,4
1,34,100,4
1,34,100,4
1,39,100,4
1,39,100,4
1,39,100,4
1,39,100,4
1,39,100,4
1,32,100,4
1,32,100,4
1,32,100,4
1,32,100,4
1,32,100,4
1,37,100,4
1,37,100,4
1,35,100,4
1,35,100,4
1,34,100,4
1,34,100,4
1,34,100,4
1,39,100,4
1,39,100,4
1,39,100,4
1,39,100,4
1,39,100,4
1,32,100,4
1,32,100,4
1,32,100,4
1,32,100,4
1,32,100,4
1,37,100,4
1,37,100,4
1,35,100,4
1,35,100,4
1,34,100,4
1,34,100,4
1,34,100,4
1,39,100,4
1,39,100,4
1,39,100,4
1,39,100,4
1,39,100,4
1,32,100,4
1,32,100,4
1,32,100,4
1,32,100,4
1,32,100,4
1,37,100,4
1,37,100,4
1,35,100,4
1,35,100,4
1,34,100,4
1,34,100,4
1,34,100,4
1,39,100,4
1,39,100,4
1,39,100,4
1,39,100,4
1,39,100,4
1,32,100,4
1,32,100,4
1,32,100,4
1,32,100,4
1,32,100,4
1,37,100,4
1,37,100,4
1,35,100,4
1,35,100,4
1,34,100,6148
1,34,100,4
1,34,100,4
1,39,100,4
1,39,100,4
1,39,100,4
1,39,100,4
1,37,100,4
1,32,100,4
1,32,100,4
1,32,100,4
1,32,100,4
1,32,100,4
1,37,100,4
1,37,100,4
1,35,100,4
1,35,100,4
1,34,100,4
1,34,100,4
1,34,100,4
1,39,100,4
1,39,100,4
1,39,100,4
1,39,100,4
1,37,100,4
1,32,100,4
1,32,100,4
1,32,100,4
1,32,100,4
1,32,100,4
1,37,100,4
1,37,100,4
1,35,100,4
1,35,100,4
1,34,100,4
1,34,100,4
1,34,100,4
1,39,100,4
1,39,100,4
1,39,100,4
1,39,100,4
1,37,100,4
1,32,100,4
1,32,100,4
1,32,100,4
1,32,100,4
1,32,100,4
1,37,100,4
1,37,100,4
1,35,100,4
1,35,100,4
1,34,100,4
1,34,100,4
1,34,100,4
1,39,100,4
1,39,100,4
1,39,100,4
1,39,100,4
1,37,100,4
1,32,100,4
1,32,100,4
1,32,100,4
1,32,100,4
1,32,100,4
1,37,100,4
1,37,100,4
1,35,100,4
1,35,100,4
1,34,100,4
1,34,100,4
1,34,100,4
1,39,100,4
1,39,100,4
1,39,100,4
1,39,100,4
1,37,100,4
1,32,100,4
1,32,100,4
1,32,100,4
1,32,100,4
1,32,100,4
1,37,100,4
1,37,100,4
1,35,100,4
1,35,100,4
1,34,100,4
1,34,100,4
1,34,100,4
1,39,100,4
1,39,100,4
1,39,100,4
1,39,100,4
1,37,100,4
1,32,100,4
1,32,100,4
1,32,100,4
1,32,100,4
1,32,100,4
1,37,100,4
1,37,100,4
1,35,100,4
1,35,100,4
1,34,100,4
1,34,77,192
1,34,77,4
1,34,77,4
1,34,77,4
1,34,77,4
1,39,81,4
1,39,100,4
1,39,100,4
1,39,100,4
1,39,100,4
1,39,100,4
1,39,100,4
1,39,100,4
1,39,100,4
1,39,100,4
1,32,100,4
1,32,100,4
1,32,100,4
1,32,100,4
1,32,100,4
1,32,100,4
1,32,100,4
1,32,100,4
1,37,100,4
1,37,100,192
1,37,100,4
1,37,100,4
1,35,100,4
1,35,100,4
1,35,100,4
1,35,100,4
1,34,100,4
1,34,77,4
1,34,77,4
1,34,77,4
1,34,77,4
1,34,77,4
1,39,81,4
1,39,100,4
1,39,100,4
1,39,100,4
1,39,100,4
1,39,100,4
1,39,100,4
1,39,100,4
1,39,100,4
1,39,100,4
1,32,100,4
1,32,100,4
1,32,100,4
1,32,100,4
1,32,100,4
1,32,100,4
1,32,100,4
1,32,100,4
1,37,100,4
1,37,100,192
1,37,100,4
1,37,100,4
1,35,100,4
1,35,100,4
1,35,100,4
1,35,100,4
1,34,100,4
1,34,77,4
1,34,77,4
1,34,77,4
1,34,77,4
1,34,77,4
1,39,81,4
1,39,100,4
1,39,100,4
1,39,100,4
1,39,100,4
1,39,100,4
1,39,100,4
1,39,100,4
1,39,100,4
1,39,100,4
1,32,100,4
1,32,100,4
1,32,100,4
1,32,100,4
1,32,100,4
1,32,100,4
1,32,100,4
1,32,100,4
1,37,100,4
1,37,100,192
1,37,100,4
1,37,100,4
1,35,100,4
1,35,100,4
1,35,100,4
1,35,100,4
1,34,100,4
1,34,77,4
1,34,77,4
1,34,77,4
1,34,77,4
1,34,77,4
1,39,81,4
1,39,100,4
1,39,100,4
1,39,100,4
1,39,100,4
1,39,100,4
1,39,100,4
1,39,100,4
1,39,100,4
1,39,100,4
1,32,100,4
1,32,100,4
1,32,100,4
1,32,100,4
1,32,100,4
1,32,100,4
1,32,100,4
1,32,100,4
1,37,100,4
1,37,100,192
1,37,100,4
1,37,100,4
1,35,100,4
1,35,100,4
1,35,100,4
1,35,100,4
1,34,100,4
1,34,77,4
1,34,77,4
1,34,77,4
