track,note,velocity,time
0,46,127,0
0,46,0,242
0,45,125,21
0,45,0,130
0,46,121,0
0,46,0,197
0,46,123,0
0,46,0,180
0,48,119,0
0,57,119,0
0,48,0,8
0,41,81,54
0,48,87,0
0,57,99,40
0,60,104,0
0,57,1,0
0,60,1,0
0,65,105,5
0,65,1,0
0,29,96,27
0,57,84,0
0,60,95,0
0,65,98,0
0,42,56,0
0,65,120,3
0,42,0,3
0,29,111,23
0,65,0,18
0,57,0,8
0,60,0,7
0,57,77,49
0,60,84,0
0,65,77,0
0,38,127,2
0,44,115,0
0,38,0,7
0,44,0,0
0,60,0,15
0,65,0,2
0,57,0,5
0,57,69,364
0,60,72,0
0,65,74,0
0,57,0,157
0,65,0,10
0,60,0,18
0,57,0,7
0,29,0,20
0,57,127,0
0,57,77,1
0,60,83,0
0,65,81,0
0,42,50,3
0,41,103,2
0,42,0,5
0,57,0,212
0,60,125,0
0,65,0,79
0,57,0,28
0,60,0,37
0,60,0,88
0,57,127,0
0,57,66,14
0,60,75,0
0,38,112,8
0,44,104,0
0,38,0,4
0,44,0,0
0,57,0,22
0,60,0,1
0,57,0,42
0,53,115,0
0,57,80,14
0,60,82,0
0,65,76,0
0,41,0,14
0,65,0,9
0,60,0,5
0,57,0,5
0,53,0,1
0,57,125,0
0,41,98,9
0,57,77,2
0,60,90,0
0,65,83,0
0,42,49,0
0,42,0,7
0,63,93,2
0,63,1,0
0,65,0,10
0,65,0,0
0,57,0,184
0,60,0,22
0,65,0,0
0,38,119,4
0,44,109,0
0,57,81,5
0,60,86,0
0,63,82,0
0,65,69,0
0,38,0,2
0,44,0,0
0,63,0,18
0,65,0,6
0,60,0,7
0,57,0,8
0,57,69,21
0,60,79,0
0,63,78,0
0,65,59,0
0,41,0,1
0,63,0,50
0,60,0,20
0,65,0,7
0,57,0,3
0,57,86,19
0,60,95,0
0,63,99,0
0,65,82,0
0,41,97,6
0,65,0,334
0,57,0,18
0,60,0,21
0,63,0,0
0,57,0,23
0,57,0,14
0,60,0,0
0,57,0,0
0,60,0,0
0,65,0,0
0,63,0,0
0,63,0,0
0,57,77,10
0,60,82,0
0,63,77,0
0,65,68,0
0,38,109,0
0,44,97,0
0,38,0,3
0,44,0,0
0,63,0,10
0,57,114,0
0,65,0,7
0,60,0,3
0,57,0,10
0,29,0,13
0,48,0,9
0,41,0,8
0,29,95,236
0,57,84,0
0,60,82,0
0,63,82,0
0,65,82,0
0,60,0,19
0,63,0,2
0,57,0,26
0,41,0,19
0,57,0,2
0,55,111,0
0,34,99,17
0,58,75,0
0,62,86,0
0,46,105,6
0,62,91,3
0,46,93,0
0,62,1,0
0,53,79,2
0,58,91,3
0,58,1,0
0,53,84,2
0,53,1,0
0,29,0,21
0,62,108,6
0,55,0,41
0,53,109,0
0,58,0,120
0,62,0,2
0,65,0,30
0,58,85,203
0,62,93,0
0,65,67,0
0,38,99,0
0,44,90,0
0,38,0,7
0,44,0,0
0,65,0,5
0,58,0,15
0,62,0,15
0,58,86,81
0,62,78,0
0,65,75,0
0,46,0,67
0,62,0,13
0,65,0,0
0,58,0,18
0,46,96,4
0,42,42,0
0,58,91,5
0,62,93,0
0,65,78,0
0,42,0,2
0,62,0,18
0,53,0,8
0,58,0,5
0,65,0,7
0,58,88,217
0,44,104,0
0,62,90,2
0,65,66,0
0,38,114,0
0,44,0,5
0,34,0,2
0,38,0,0
0,65,0,5
0,58,0,21
0,62,0,2
0,58,82,41
0,62,86,0
0,65,88,0
0,46,0,15
0,65,0,120
0,62,0,19
0,58,0,20
0,46,95,14
0,46,100,5
0,42,57,0
0,58,93,5
0,62,93,0
0,65,82,0
0,42,0,2
0,58,0,76
0,62,0,0
0,65,0,0
0,58,82,130
0,62,86,0
0,65,82,0
0,38,121,0
0,44,109,0
0,38,0,7
0,44,0,0
0,65,0,28
0,62,0,2
0,58,0,5
0,62,0,108
0,58,77,325
0,62,84,3
0,65,77,0
0,46,0,52
0,62,0,108
0,65,0,7
0,58,0,20
0,46,97,9
0,58,84,0
0,62,86,0
0,65,81,0
0,55,106,0
0,42,46,0
0,42,0,7
0,55,0,308
0,53,100,0
0,65,0,112
0,62,0,37
0,46,0,3
0,53,0,0
0,58,0,0
0,62,0,11
0,62,0,0
0,58,0,0
0,58,0,0
0,53,0,0
0,53,0,0
0,53,0,5
0,58,91,5
0,62,85,0
0,65,81,0
0,38,112,0
0,44,107,0
0,38,0,7
0,44,0,0
0,55,101,0
0,58,0,16
0,62,0,5
0,65,0,0
0,55,0,276
0,53,92,0
0,58,100,22
0,62,93,0
0,65,84,0
0,65,0,37
0,46,0,5
0,62,0,1
0,46,0,6
0,53,0,2
0,52,100,0
0,36,110,9
0,36,84,2
0,55,85,0
0,60,93,0
0,64,97,0
0,42,54,0
0,58,0,0
0,42,0,7
0,48,92,8
0,55,84,0
0,64,78,2
0,64,1,0
0,55,75,2
0,60,84,0
0,55,1,0
0,60,1,0
0,64,0,13
0,55,0,43
0,60,0,37
0,40,105,34
0,55,82,10
0,60,93,0
0,64,75,0
0,38,114,0
0,44,105,0
0,38,0,7
0,44,0,0
0,64,0,10
0,36,0,16
0,55,0,14
0,60,0,5
0,40,0,13
0,36,0,206
0,40,106,73
0,43,89,35
0,55,79,0
0,60,87,0
0,64,75,0
0,64,0,87
0,60,0,30
0,55,0,8
0,52,0,1
0,64,125,0
0,40,0,31
0,43,102,18
0,48,98,0
0,55,84,0
0,60,89,0
0,64,82,0
0,42,57,0
0,42,0,1
0,43,0,20
0,64,0,271
0,64,123,0
0,55,0,14
0,60,0,6
0,64,0,20
0,64,0,103
0,64,119,0
0,43,0,3
0,55,83,3
0,60,88,0
0,64,86,0
0,38,109,5
0,44,105,0
0,38,0,7
0,44,0,0
0,40,100,3
0,64,0,14
0,55,0,10
0,60,0,3
0,64,0,267
0,64,115,0
0,40,0,27
0,55,84,13
0,60,85,0
0,64,79,0
0,43,96,5
0,64,0,65
0,60,0,42
0,55,0,35
0,64,0,38
0,48,0,10
0,67,73,2
0,67,1,0
0,64,121,0
0,36,95,5
0,43,0,2
0,55,86,3
0,60,89,0
0,64,89,0
0,36,109,18
0,64,0,276
0,55,0,18
0,60,0,6
0,55,76,1
0,60,81,0
0,64,84,0
0,38,112,0
0,44,102,0
0,38,0,7
0,44,0,0
0,36,0,3
0,40,109,13
0,64,0,24
0,55,0,10
0,60,0,5
0,40,0,21
0,40,100,44
0,55,58,10
0,58,81,0
0,60,77,0
0,64,73,0
0,64,0,101
0,55,0,15
0,58,0,3
0,60,0,22
0,40,0,38
0,55,77,25
0,58,89,0
0,60,88,0
0,64,86,0
0,42,56,0
0,43,103,3
0,42,0,4
0,64,0,126
0,64,0,47
0,55,0,14
0,62,114,0
0,58,0,33
0,60,0,20
0,43,0,14
0,58,77,10
0,60,76,0
0,64,84,0
0,55,73,2
0,38,114,0
0,44,104,0
0,38,0,6
0,44,0,0
0,45,102,8
0,58,0,21
0,64,0,12
0,60,0,2
0,55,0,2
0,36,0,30
0,64,0,128
0,55,0,0
0,60,0,0
0,67,0,0
0,55,0,27
0,48,0,16
0,55,65,49
0,58,71,0
0,60,75,0
0,64,64,5
0,64,0,22
0,58,0,43
0,55,0,11
0,64,0,1
0,55,0,0
0,60,0,0
0,67,0,0
0,60,0,17
0,45,0,8
0,62,0,26
0,62,115,0
0,29,95,2
0,57,86,0
0,60,79,0
0,65,88,0
0,42,50,0
0,42,0,7
0,41,102,1
0,62,0,91
0,60,101,0
0,41,0,377
0,45,99,8
0,44,107,10
0,38,119,2
0,44,0,5
0,38,0,2
0,57,0,1
0,29,0,1
0,60,0,18
0,65,0,1
0,63,1,0
0,53,87,0
0,59,92,0
0,63,92,0
0,53,1,0
0,59,1,0
0,63,1,0
0,41,92,2
0,51,91,2
0,42,33,0
0,48,102,5
0,42,0,2
0,45,0,9
0,41,0,134
0,51,0,5
0,63,0,6
0,53,0,0
0,63,0,0
0,59,0,3
0,41,83,4
0,63,1,0
0,53,91,0
0,59,85,0
0,63,93,0
0,51,88,0
0,60,0,9
0,38,111,201
0,44,105,0
0,48,0,2
0,38,0,5
0,44,0,0
0,51,100,11
0,41,0,24
0,51,0,6
0,53,0,6
0,59,0,0
0,63,0,9
0,63,0,0
0,63,1,0
0,53,93,0
0,59,91,0
0,63,89,0
0,41,76,2
0,51,83,3
0,38,71,2
0,38,0,7
0,53,0,9
0,59,0,0
0,63,0,2
0,63,0,0
0,51,0,14
0,41,0,10
0,51,0,9
0,24,112,5
0,53,0,17
0,59,0,0
0,63,0,0
0,60,93,3
0,48,82,0
0,52,82,0
0,60,1,0
0,55,87,2
0,58,90,0
0,64,93,0
0,42,58,0
0,55,1,0
0,58,1,0
0,64,1,0
0,42,0,3
0,57,112,0
0,57,0,4
0,44,97,9
0,38,123,5
0,44,0,2
0,48,111,0
0,38,0,2
0,48,0,4
0,52,0,1
0,60,0,4
0,60,0,0
0,58,0,2
0,64,0,0
0,58,0,0
0,64,0,0
0,55,0,16
0,55,0,0
0,48,0,21
0,46,90,24
0,46,0,1
0,45,104,0
0,24,0,4
0,42,50,4
0,42,0,7
0,45,0,76
0,45,83,35
0,46,109,183
0,45,0,19
0,46,0,298
0,47,106,23
0,38,112,35
0,44,104,0
0,38,0,7
0,44,0,0
0,48,111,0
0,47,0,17
0,57,109,0
0,48,0,14
0,65,94,21
0,41,103,7
0,41,97,0
0,57,87,0
0,60,90,0
0,65,114,0
0,57,86,0
0,57,1,0
0,60,92,2
0,42,49,0
0,60,1,0
0,65,91,3
0,65,1,0
0,42,0,4
0,65,0,1
0,60,0,23
0,57,0,5
0,41,0,11
0,45,99,15
0,65,75,14
0,38,119,2
0,44,109,0
0,57,82,3
0,60,82,0
0,38,0,4
0,44,0,0
0,65,0,23
0,60,0,4
0,57,0,15
0,45,0,34
0,45,99,279
0,57,67,37
0,60,74,0
0,65,71,3
0,57,0,87
0,41,0,19
0,57,117,0
0,45,0,1
0,65,0,0
0,57,0,17
0,60,0,3
0,48,100,17
0,38,75,20
0,41,89,2
0,65,82,0
0,60,88,3
0,57,82,2
0,38,0,0
0,57,0,251
0,60,114,0
0,65,0,1
0,57,0,2
0,60,0,5
0,60,0,6
0,57,109,0
0,48,0,26
0,45,91,19
0,57,78,4
0,60,87,0
0,65,81,0
0,38,127,0
0,44,115,0
0,38,0,7
0,44,0,0
0,65,0,9
0,60,0,5
0,57,0,8
0,57,0,6
0,41,0,18
0,53,91,0
0,45,0,18
0,57,69,1
0,60,76,0
0,65,73,0
0,48,94,8
0,57,0,16
0,53,0,3
0,65,0,4
0,57,106,0
0,60,0,8
0,48,0,2
0,63,64,5
0,63,1,0
0,42,50,2
0,41,89,2
0,57,79,0
0,60,93,0
0,65,80,0
0,42,0,5
0,41,95,8
0,57,0,23
0,60,0,15
0,65,0,1
0,41,0,17
0,45,99,22
0,38,112,5
0,44,104,0
0,57,83,5
0,60,89,0
0,63,91,0
0,65,75,0
0,38,0,2
0,44,0,0
0,63,0,29
0,60,0,10
0,65,0,1
0,57,0,5
0,45,0,10
0,45,97,112
0,60,68,17
0,57,67,5
0,63,74,0
0,65,61,0
0,63,0,137
0,65,0,20
0,57,0,15
0,60,0,5
0,45,0,13
0,48,95,50
0,42,49,0
0,57,70,3
0,60,78,0
0,63,85,2
0,65,70,0
0,42,0,2
0,57,0,43
0,65,0,460
0,60,0,60
0,63,0,0
0,57,0,13
0,63,0,25
0,63,0,0
0,65,0,27
0,65,0,0
0,60,0,12
0,60,0,0
0,57,0,8
0,57,0,0
0,48,0,30
0,38,119,26
0,44,109,0
0,41,0,0
0,38,0,6
0,44,0,0
0,57,71,1
0,50,94,2
0,60,73,0
0,57,105,0
0,60,0,8
0,57,0,14
0,41,86,11
0,57,77,5
0,60,81,0
0,63,70,0
0,65,77,3
0,65,0,2
0,60,0,74
0,63,0,20
0,50,0,33
0,57,0,42
0,57,0,6
0,55,90,0
0,46,96,14
0,58,83,0
0,62,84,0
0,38,72,5
0,46,101,3
0,38,0,1
0,58,80,6
0,58,1,0
0,62,84,1
0,62,1,0
0,53,75,3
0,65,71,0
0,53,1,0
0,65,1,0
0,41,0,12
0,62,107,1
0,55,0,49
0,53,89,0
0,62,0,45
0,58,0,7
0,65,0,31
0,46,0,185
0,58,78,15
0,38,127,0
0,44,115,0
0,62,83,2
0,65,81,0
0,38,0,5
0,44,0,0
0,43,97,5
0,58,0,30
0,65,0,0
0,62,0,5
0,46,0,26
0,58,77,24
0,62,81,5
0,65,76,3
0,62,0,54
0,65,0,62
0,58,0,58
0,43,0,25
0,50,87,8
0,58,61,3
0,42,50,0
0,62,84,2
0,65,72,3
0,42,0,2
0,41,101,18
0,65,0,17
0,62,0,17
0,58,0,28
0,41,0,2
0,38,95,22
0,58,75,8
0,62,84,2
0,65,78,3
0,38,112,0
0,44,104,0
0,38,0,4
0,44,0,0
0,53,0,12
0,65,0,8
0,62,0,12
0,58,0,3
0,50,0,102
0,38,0,533
0,34,100,30
0,46,88,10
0,58,71,0
0,42,49,0
0,62,81,5
0,42,0,2
0,65,74,1
0,65,0,477
0,62,0,20
0,58,0,12
0,34,0,163
0,38,119,35
0,44,109,0
0,58,86,5
0,38,0,2
0,44,0,0
0,62,85,1
0,38,99,2
0,65,76,0
0,65,0,27
0,58,0,25
0,62,0,1
0,38,0,32
0,46,0,120
0,38,98,240
0,50,78,23
0,38,0,8
0,58,88,4
0,62,86,0
0,55,108,0
0,65,86,2
0,38,78,5
0,41,99,3
0,38,0,4
0,62,0,46
0,65,0,152
0,62,0,35
0,58,0,13
0,53,87,0
0,55,0,17
0,58,63,23
0,58,0,12
0,41,0,27
0,53,0,0
0,55,100,0
0,38,127,3
0,44,115,0
0,46,96,5
0,58,73,0
0,62,70,2
0,38,0,0
0,44,0,0
0,38,99,5
0,50,0,12
0,62,0,9
0,58,0,3
0,58,0,0
0,53,0,3
0,53,0,0
0,62,0,2
0,62,0,0
0,65,0,0
0,65,0,0
0,58,0,5
0,53,91,0
0,55,0,7
0,58,80,5
0,62,73,8
0,62,0,35
0,38,0,19
0,46,0,9
0,58,0,57
0,53,0,1
0,52,90,0
0,48,96,3
0,64,86,2
0,55,74,2
0,60,107,0
0,60,94,1
0,42,50,3
0,42,0,7
0,36,102,5
0,60,85,8
0,60,1,0
0,55,88,1
0,64,88,0
0,55,1,0
0,64,1,0
0,55,0,2
0,64,0,7
0,60,0,14
0,36,0,1
0,55,78,14
0,60,89,0
0,64,82,0
0,40,102,3
0,38,112,0
0,44,104,0
0,38,0,7
0,44,0,0
0,60,0,19
0,64,0,2
0,55,0,5
0,40,0,8
0,52,0,29
0,40,100,176
0,62,98,0
0,55,72,17
0,60,74,3
0,64,78,0
0,64,0,135
0,55,0,4
0,60,0,43
0,40,0,17
0,43,97,38
0,55,69,10
0,60,82,0
0,42,49,0
0,64,79,5
0,42,0,2
0,62,0,72
0,62,98,0
0,64,0,12
0,55,0,58
0,60,0,25
0,62,0,26
0,43,0,11
0,48,0,23
0,60,86,0
0,62,93,0
0,55,77,3
0,64,82,0
0,38,119,2
0,44,109,0
0,45,97,3
0,38,0,4
0,44,0,0
0,64,0,6
0,55,0,8
0,60,0,12
0,62,0,114
0,62,93,0
0,43,86,43
0,60,79,2
0,55,73,3
0,64,71,2
0,64,0,52
0,60,0,33
0,55,0,5
0,62,0,18
0,45,0,9
0,67,46,18
0,67,1,0
0,36,98,0
0,55,77,0
0,60,83,0
0,62,82,0
0,64,82,3
0,43,0,0
0,36,95,2
0,64,0,182
0,55,0,6
0,60,0,13
0,36,0,48
0,40,102,175
0,55,78,13
0,60,82,0
0,38,127,0
0,44,115,0
0,64,76,2
0,38,0,5
0,44,0,0
0,64,0,11
0,55,0,23
0,60,0,4
0,40,0,13
0,40,104,19
0,55,68,14
0,60,81,0
0,64,71,4
0,64,0,16
0,55,0,27
0,60,0,16
0,40,0,19
0,43,96,42
