track,note,velocity,time
0,67,95,1040
0,74,100,0
0,71,94,0
0,76,101,0
0,79,97,0
0,65,97,0
0,43,114,0
0,55,83,0
0,40,106,0
0,55,94,64
0,65,80,0
0,67,90,0
0,79,82,0
0,71,85,0
0,76,83,0
0,74,84,0
0,43,85,0
0,40,73,8
0,54,92,40
0,66,107,0
0,75,101,0
0,73,97,0
0,70,97,0
0,78,85,0
0,42,89,0
0,40,80,0
0,64,86,4
0,54,83,52
0,64,93,0
0,70,71,0
0,66,81,0
0,73,80,0
0,75,78,0
0,78,71,0
0,42,81,0
0,40,68,0
0,69,78,36
0,74,93,0
0,77,97,0
0,72,89,0
0,65,85,0
0,40,86,0
0,41,106,4
0,63,83,4
0,53,105,0
0,77,88,68
0,69,82,0
0,74,83,0
0,72,78,0
0,65,76,0
0,41,75,0
0,40,77,0
0,63,82,4
0,53,88,0
0,66,95,68
0,73,99,0
0,75,94,0
0,78,92,0
0,70,89,0
0,40,88,0
0,54,94,4
0,64,89,0
0,42,112,0
0,54,85,60
0,70,80,0
0,66,77,0
0,73,78,0
0,78,85,0
0,75,78,0
0,42,86,0
0,40,95,0
0,64,77,4
0,71,95,72
0,76,104,0
0,79,101,0
0,74,100,0
0,67,100,0
0,40,104,0
0,65,90,4
0,55,97,0
0,43,114,0
0,43,75,48
0,43,77,112
0,43,88,92
0,43,94,100
0,43,74,104
0,43,90,84
0,43,87,108
0,36,102,0
0,67,104,0
0,42,84,0
0,36,89,0
0,36,98,4
0,72,90,248
0,76,86,0
0,69,80,0
0,79,83,0
0,67,86,0
0,48,90,0
0,60,91,0
0,64,96,0
0,55,95,0
0,57,85,0
0,42,49,4
0,39,84,24
0,40,104,4
0,40,112,4
0,42,101,0
0,67,88,0
0,67,60,8
0,40,76,0
0,64,73,12
0,42,59,0
0,60,69,0
0,55,78,0
0,48,71,0
0,57,73,0
0,43,87,16
0,72,83,4
0,79,78,0
0,76,78,0
0,43,99,0
0,69,75,0
0,67,94,0
0,42,51,0
0,36,88,0
0,67,80,4
0,48,78,0
0,55,85,0
0,64,73,0
0,57,71,4
0,60,78,0
0,43,65,12
0,42,56,4
0,39,82,0
0,45,99,4
0,40,114,0
0,42,97,0
0,64,66,0
0,60,73,0
0,69,81,0
0,55,81,8
0,57,71,0
0,48,69,0
0,40,68,0
0,67,85,0
0,42,55,0
0,48,96,20
0,42,59,4
0,36,89,0
0,36,87,4
0,72,89,12
0,76,81,0
0,79,83,0
0,69,78,0
0,67,81,0
0,48,90,4
0,60,91,4
0,64,96,0
0,55,95,0
0,57,85,0
0,48,27,0
0,60,27,0
0,64,28,0
0,57,25,0
0,42,51,0
0,39,87,32
0,45,97,4
0,40,112,0
0,42,97,0
0,67,60,28
0,40,69,4
0,64,21,4
0,57,21,0
0,60,20,0
0,48,21,0
0,64,73,4
0,42,60,0
0,60,69,0
0,55,78,0
0,48,71,0
0,57,73,0
0,72,79,44
0,76,69,0
0,69,74,0
0,79,67,0
0,67,78,0
0,43,102,4
0,43,85,4
0,64,21,0
0,48,23,0
0,60,23,0
0,57,21,0
0,42,62,0
0,36,88,0
0,55,85,4
0,64,73,0
0,48,78,0
0,57,71,4
0,60,78,0
0,43,73,12
0,42,56,4
0,39,95,0
0,40,97,0
0,64,19,4
0,60,21,0
0,57,21,0
0,48,20,0
0,40,114,0
0,42,95,0
0,64,66,4
0,60,73,0
0,55,81,8
0,57,71,0
0,48,69,0
0,40,67,0
0,67,60,0
0,42,61,4
0,36,94,0
0,69,88,0
0,42,52,4
0,36,89,0
0,36,97,4
0,72,90,216
0,79,78,0
0,76,79,0
0,69,77,0
0,67,80,0
0,48,90,0
0,60,91,4
0,64,96,0
0,55,95,0
0,57,85,0
0,42,61,4
0,39,91,32
0,40,99,4
0,72,84,0
0,40,112,0
0,42,95,0
0,67,62,16
0,40,67,8
0,64,73,0
0,42,67,0
0,60,69,4
0,55,78,0
0,48,71,0
0,57,73,0
0,72,80,0
0,79,75,0
0,76,74,0
0,69,76,0
0,67,80,0
0,43,102,0
0,72,88,0
0,42,67,4
0,36,88,0
0,55,85,4
0,64,73,0
0,48,78,0
0,43,90,4
0,57,71,0
0,60,78,0
0,43,90,76
0,42,60,8
0,45,97,4
0,40,114,4
0,42,99,0
0,39,87,0
0,64,66,0
0,60,73,0
0,69,94,0
0,55,81,8
0,57,71,0
0,48,69,0
0,40,69,0
0,67,88,0
0,42,50,0
0,48,94,8
0,42,74,4
0,36,89,0
0,36,83,0
0,72,93,220
0,79,83,0
0,69,83,0
0,76,81,0
0,67,90,0
0,48,90,0
0,60,91,4
0,64,96,0
0,55,95,0
0,57,85,0
0,48,27,0
0,60,27,0
0,64,28,0
0,57,25,0
0,42,44,4
0,39,85,32
0,46,89,0
0,40,112,0
0,42,87,0
0,67,55,32
0,40,67,0
0,64,21,4
0,57,21,0
0,60,20,0
0,48,21,0
0,64,73,4
0,42,54,0
0,60,69,4
0,55,78,0
0,48,71,0
0,57,73,0
0,72,88,4
0,79,83,4
0,69,74,0
0,76,80,0
0,67,89,0
0,43,93,0
0,45,102,0
0,64,21,4
0,48,23,0
0,60,23,0
0,57,21,0
0,42,55,0
0,36,88,0
0,55,85,4
0,64,73,0
0,48,78,0
0,57,71,4
0,60,78,0
0,42,62,252
0,43,99,36
0,64,19,4
0,60,21,0
0,57,21,0
0,48,20,0
0,40,114,0
0,42,82,0
0,44,99,4
0,64,66,0
0,60,73,0
0,55,81,8
0,57,71,0
0,48,69,0
0,45,80,12
0,42,79,0
0,41,96,88
0,42,84,0
0,36,89,0
0,41,98,0
0,69,88,0
0,69,86,248
0,77,89,0
0,74,89,0
0,72,83,0
0,41,90,0
0,57,95,4
0,60,85,0
0,62,91,0
0,65,96,0
0,42,49,4
0,44,84,24
0,45,104,4
0,72,88,0
0,40,112,0
0,42,101,0
0,45,76,8
0,65,93,4
0,65,73,8
0,42,59,0
0,57,78,4
0,60,73,0
0,62,69,0
0,41,71,0
0,48,87,16
0,77,90,4
0,74,86,0
0,69,83,0
0,72,81,0
0,48,89,0
0,42,51,4
0,36,88,0
0,57,85,4
0,41,78,0
0,65,73,0
0,60,71,0
0,62,78,0
0,72,88,0
0,42,56,252
0,44,82,0
0,50,88,0
0,40,114,4
0,42,97,0
0,62,73,4
0,65,66,0
0,57,81,8
0,60,71,0
0,41,69,0
0,48,59,0
0,69,87,0
0,45,68,0
0,42,55,4
0,41,90,20
0,42,59,4
0,36,89,0
0,41,98,0
0,72,92,0
0,74,94,184
0,69,83,0
0,72,85,0
0,77,90,0
0,41,90,4
0,57,95,4
0,60,85,0
0,62,91,0
0,65,96,0
0,42,51,4
0,44,84,32
0,45,93,4
0,40,112,4
0,42,97,0
0,74,88,0
0,45,76,8
0,72,88,0
0,65,85,4
0,65,73,0
0,42,60,0
0,57,78,4
0,60,73,0
0,62,69,0
0,41,71,0
0,48,87,16
0,48,86,4
0,74,91,4
0,72,83,0
0,42,62,0
0,36,88,0
0,69,85,4
0,77,89,0
0,57,85,0
0,41,78,0
0,65,73,0
0,60,71,4
0,62,78,0
0,42,56,252
0,44,82,0
0,50,89,0
0,40,114,4
0,42,95,0
0,62,73,4
0,65,66,0
0,57,81,8
0,60,71,0
0,41,69,0
0,48,87,56
0,45,68,0
0,69,96,0
0,42,61,0
0,72,96,0
0,42,52,0
0,36,89,0
0,41,98,4
0,41,110,0
0,69,90,248
0,74,94,0
0,72,89,0
0,77,93,0
0,41,90,0
0,57,95,4
0,60,85,0
0,62,91,0
0,65,96,0
0,42,61,4
0,44,84,32
0,74,85,0
0,45,104,4
0,40,112,0
0,42,95,16
0,45,76,8
0,65,74,8
0,65,73,0
0,42,67,0
0,57,78,4
0,60,73,0
0,62,69,0
0,41,71,0
0,48,87,16
0,77,96,0
0,69,87,0
0,74,93,0
0,48,92,0
0,72,90,0
0,72,86,4
0,42,67,0
0,36,88,0
0,57,85,4
0,41,78,0
0,65,73,0
0,60,71,4
0,62,78,0
0,42,60,252
0,44,82,0
0,50,92,0
0,69,92,0
0,40,114,4
0,42,99,0
0,62,73,4
0,65,66,0
0,57,81,8
0,60,71,0
0,41,69,0
0,67,96,0
0,45,68,0
0,42,50,4
0,36,99,24
0,42,74,0
0,36,89,0
0,36,98,4
0,72,90,124
0,76,86,0
0,69,80,0
0,79,83,0
0,67,86,0
0,48,90,0
0,60,91,4
0,64,96,0
0,55,95,0
0,57,85,0
0,42,44,4
0,39,84,24
0,40,94,4
0,40,112,4
0,42,87,16
0,67,60,0
0,40,76,0
0,67,90,0
0,64,73,12
0,42,54,0
0,60,69,0
0,55,78,0
0,48,71,0
0,57,73,0
0,43,87,16
0,72,83,0
0,79,78,0
0,76,78,0
0,69,92,0
0,69,75,4
0,42,55,0
0,36,88,0
0,67,80,4
0,43,89,0
0,48,78,0
0,55,85,0
0,64,73,0
0,57,71,4
0,60,78,0
0,42,62,252
0,45,82,0
0,67,87,0
0,45,92,4
0,40,114,0
0,42,82,0
0,64,66,4
0,60,73,0
0,55,81,8
0,57,71,0
0,48,69,0
0,43,68,0
0,42,79,0
0,71,81,0
0,38,110,8
0,42,84,0
0,36,89,0
0,38,104,4
0,42,49,256
0,40,106,8
0,55,102,4
0,40,100,0
0,42,101,0
0,62,93,4
0,60,83,0
0,57,88,0
0,65,90,0
0,40,97,0
0,42,59,112
0,41,107,16
0,41,102,0
0,57,110,0
0,42,51,0
0,36,88,0
0,57,90,248
0,62,98,4
0,60,93,0
0,65,100,0
0,55,102,0
0,42,56,4
0,42,93,24
0,40,100,0
0,42,97,0
0,42,92,4
0,59,110,0
0,42,55,4
0,62,91,64
0,59,93,0
0,65,89,0
0,57,86,0
0,53,85,0
0,43,116,0
0,43,106,0
0,42,59,4
0,36,89,0
0,55,84,0
0,57,65,0
0,60,67,0
0,36,104,0
0,60,80,0
0,42,52,4
0,36,89,0
0,36,98,4
0,72,90,248
0,76,86,0
0,69,80,0
0,79,83,0
0,67,86,0
0,48,90,0
0,60,91,4
0,64,96,0
0,55,95,0
0,57,85,0
0,48,27,0
0,60,27,0
0,64,28,0
0,57,25,0
0,42,61,4
0,39,84,24
0,40,112,0
0,42,95,0
0,40,100,4
0,67,60,8
0,40,76,0
0,64,21,8
0,57,21,0
0,60,20,0
0,48,21,0
0,64,73,4
0,42,67,0
0,60,69,0
0,55,78,0
0,48,71,0
0,57,73,0
0,43,87,16
0,72,83,4
0,79,78,0
0,76,78,0
0,43,96,0
0,42,67,0
0,69,75,4
0,64,21,0
0,48,23,0
0,60,23,0
0,57,21,0
0,36,88,0
0,67,80,4
0,48,78,0
0,55,85,0
0,64,73,0
0,57,71,4
0,60,78,0
0,43,65,12
0,42,60,4
0,39,82,0
0,45,96,0
0,64,19,4
0,60,21,0
0,57,21,0
0,48,20,0
0,40,114,0
0,42,99,0
0,64,66,4
0,60,73,0
0,55,81,8
0,57,71,0
0,48,69,0
0,40,68,0
0,42,50,4
0,36,94,20
0,42,74,4
0,36,89,0
0,36,98,4
0,72,90,248
0,76,86,0
0,69,80,0
0,79,83,0
0,67,86,0
0,48,90,0
0,60,91,4
0,64,96,0
0,55,95,0
0,57,85,0
0,48,27,0
0,60,27,0
0,64,28,0
0,57,25,0
0,42,44,4
0,39,84,24
0,40,112,0
0,42,87,0
0,40,99,4
0,67,60,8
0,40,76,0
0,64,21,8
0,57,21,0
0,60,20,0
0,48,21,0
0,64,73,4
0,42,54,0
0,60,69,0
0,55,78,0
0,48,71,0
0,57,73,0
0,43,87,16
0,72,83,4
0,79,78,0
0,76,78,0
0,43,100,0
0,69,75,4
0,64,21,0
0,48,23,0
0,60,23,0
0,57,21,0
0,42,55,0
0,36,88,0
0,67,80,4
0,55,85,0
0,64,73,0
0,48,78,0
0,57,71,4
0,60,78,0
0,43,65,12
0,42,62,4
0,36,82,0
0,45,108,0
0,64,19,4
0,60,21,0
0,57,21,0
0,48,20,0
0,40,114,0
0,42,82,0
0,64,66,4
0,60,73,0
0,55,81,8
0,57,71,0
0,48,69,0
0,67,87,0
0,42,79,0
0,29,96,24
0,29,97,0
0,42,84,0
0,36,89,0
0,69,78,0
0,42,49,252
0,41,59,64
0,57,51,0
0,60,58,0
0,65,56,0
0,62,59,0
0,59,16,0
0,65,16,0
0,62,17,0
0,57,15,0
0,40,112,0
0,42,101,0
0,60,84,0
0,62,89,0
0,57,87,0
0,53,81,0
0,29,84,0
0,69,74,0
0,29,93,8
0,69,58,0
0,42,59,0
0,29,89,0
0,65,78,0
0,60,73,0
0,57,73,0
0,41,73,0
0,62,76,0
0,69,75,0
0,62,25,0
0,57,23,0
0,59,16,0
0,65,21,0
0,42,51,0
0,36,88,0
0,29,83,4
0,42,56,4
0,40,114,0
0,42,97,0
0,29,87,0
0,69,76,0
0,29,94,8
0,71,71,0
0,42,55,0
0,31,77,40
0,42,59,0
0,36,89,0
0,31,93,4
0,71,68,0
0,31,79,8
0,31,60,0
0,42,51,0
0,62,101,24
0,59,107,0
0,57,107,0
0,53,98,0
0,35,96,0
0,59,57,0
0,57,53,0
0,43,65,0
0,62,58,0
0,65,55,0
0,59,16,0
0,65,16,0
0,62,17,0
0,57,15,0
0,40,112,0
0,42,97,0
0,35,90,8
0,59,80,4
0,65,71,0
0,43,78,0
0,57,78,0
0,62,84,0
0,59,16,0
0,65,21,0
0,57,23,0
0,62,25,0
0,59,116,4
0,53,107,0
0,62,116,0
0,57,120,0
0,35,61,0
0,42,60,0
0,35,83,4
0,38,97,4
0,42,62,0
0,36,88,0
0,38,82,4
0,38,100,40
0,38,60,8
0,42,56,0
0,31,100,12
0,40,114,0
0,42,95,0
0,31,94,8
0,67,81,0
0,42,61,4
0,29,96,0
0,29,97,0
0,69,80,0
0,42,52,0
0,36,89,0
0,42,61,256
0,69,66,0
0,62,89,4
0,41,59,0
0,57,51,0
0,60,58,0
0,65,56,0
0,62,59,0
0,59,16,0
0,65,16,0
0,62,17,0
0,57,15,0
0,40,112,0
0,42,95,0
0,57,90,4
0,60,83,0
0,53,82,0
0,29,84,0
0,29,93,8
0,42,67,0
0,69,75,0
0,42,67,0
0,29,89,4
0,65,78,0
0,60,73,0
0,57,73,0
0,41,73,0
0,62,76,0
0,62,25,0
0,57,23,0
0,59,16,0
0,65,21,0
0,36,88,0
0,29,83,4
0,42,60,4
0,40,114,0
0,42,99,0
0,29,87,0
0,69,75,0
0,29,94,8
0,42,50,248
0,31,77,40
0,42,74,0
0,36,89,0
0,31,93,0
0,71,74,0
0,31,79,44
0,31,60,0
0,42,44,0
0,35,96,24
0,59,57,0
0,57,53,0
0,43,65,0
0,62,58,0
0,65,55,0
0,59,16,0
0,57,15,0
0,62,17,0
0,65,16,0
0,40,112,0
0,42,87,0
0,57,75,8
0,35,90,0
0,62,78,4
0,59,72,0
0,53,70,0
0,59,80,4
0,65,71,0
0,43,78,0
0,57,78,0
0,62,84,0
0,59,24,0
0,65,21,0
0,57,23,0
0,62,25,0
0,35,61,4
0,42,54,0
0,62,73,4
0,57,78,4
0,59,79,0
0,53,72,0
0,35,83,0
0,38,97,4
0,42,55,0
0,36,88,0
0,38,82,4
0,38,100,40
0,38,60,8
0,42,62,0
0,31,100,12
0,40,114,0
0,42,82,0
0,31,94,8
0,42,79,248
0,67,70,0
0,29,96,52
0,29,97,0
0,42,84,0
0,36,89,0
0,69,73,0
0,42,49,252
0,69,70,0
0,41,59,4
0,57,51,0
0,60,58,0
0,65,56,0
0,62,59,0
0,59,16,0
0,65,16,0
0,62,17,0
0,57,15,0
0,40,112,0
0,42,101,0
0,53,66,4
0,62,70,0
0,60,75,0
0,57,78,0
0,29,84,0
0,29,93,8
0,69,69,0
0,42,59,0
0,29,89,4
0,65,78,0
0,60,73,0
0,57,73,0
0,41,73,0
0,62,76,0
0,62,25,0
0,57,23,0
0,59,16,0
0,65,21,0
0,42,51,0
0,36,88,0
0,29,83,4
0,69,64,0
0,42,56,4
0,40,114,0
