track,note,velocity,time
1,36,97,0
1,36,86,504
1,36,97,56
1,36,86,504
1,36,97,56
1,36,86,504
1,36,97,56
1,36,86,504
1,36,97,56
1,36,86,504
1,36,97,56
1,36,86,504
1,36,97,56
1,36,86,504
1,36,97,56
1,36,86,504
1,36,97,56
1,36,86,504
1,36,97,56
1,36,86,504
1,36,97,56
1,36,86,504
1,36,97,56
1,36,86,504
1,36,97,56
1,36,86,504
1,36,97,56
1,36,86,504
1,36,97,56
1,36,86,504
1,36,97,56
1,36,86,504
1,36,97,56
1,36,86,504
1,36,97,56
1,36,86,504
1,36,97,56
1,36,86,504
1,36,97,56
1,36,86,504
1,36,97,56
1,36,86,504
1,36,97,56
1,36,86,504
1,36,97,56
1,36,86,504
1,36,97,56
1,36,86,504
1,36,97,56
1,36,86,504
1,36,97,56
1,36,86,504
1,36,97,56
1,36,86,504
1,36,97,56
1,36,86,504
1,36,97,56
1,36,86,504
1,36,97,56
1,36,86,504
1,36,97,56
1,36,86,504
1,36,97,56
1,36,86,504
1,36,97,56
1,36,86,504
1,36,97,56
1,36,86,504
1,36,97,56
1,36,86,504
1,36,97,56
1,36,86,504
1,36,97,56
1,36,86,504
1,36,97,56
1,36,86,504
1,36,97,56
1,36,86,504
1,36,97,56
1,36,86,504
1,36,97,56
1,36,86,504
1,36,97,56
1,36,86,504
1,36,97,56
1,36,86,504
1,36,97,56
1,36,86,504
1,36,97,56
1,36,86,504
1,36,97,56
1,36,86,504
1,36,97,56
1,36,86,504
1,36,97,56
1,36,86,504
1,36,97,56
1,36,86,504
1,36,97,56
1,36,86,504
1,36,97,56
1,36,86,504
1,36,97,56
1,36,86,504
1,36,97,56
1,36,86,504
1,36,97,56
1,36,86,504
1,36,97,56
1,36,86,504
1,36,97,56
1,36,86,504
1,36,97,56
1,36,86,504
1,36,97,56
1,36,86,504
1,36,97,56
1,36,86,504
1,36,97,56
1,36,86,504
1,36,97,56
1,36,86,504
1,36,97,56
1,36,86,504
1,36,97,56
1,36,86,504
1,36,97,56
1,36,86,504
1,36,97,56
1,36,86,504
1,36,97,56
1,36,86,504
1,36,97,56
1,36,86,504
1,36,97,56
1,36,86,504
1,36,97,56
1,36,86,504
1,36,97,56
1,36,86,504
1,36,97,56
1,36,86,504
1,36,97,56
1,36,86,504
1,36,97,56
1,36,86,504
1,36,97,56
1,36,86,504
1,36,97,56
1,36,86,504
1,36,97,56
1,36,86,504
1,36,97,56
1,36,86,504
1,36,97,56
1,36,86,504
1,36,97,56
1,36,86,504
1,36,97,56
1,36,86,504
1,36,97,56
1,36,86,504
1,36,97,56
1,36,86,504
1,36,97,56
1,36,86,504
1,36,97,56
1,36,86,504
1,36,97,56
1,36,86,504
1,36,97,56
1,36,86,504
1,36,97,56
1,36,86,504
1,36,97,56
1,36,86,504
1,36,97,56
1,36,86,504
1,36,97,56
1,36,86,504
1,36,97,56
1,36,86,504
1,36,97,56
1,36,86,504
1,36,97,56
1,36,86,504
1,36,97,56
1,36,86,504
1,36,97,56
1,36,86,504
1,36,97,56
1,36,86,504
1,36,97,56
1,36,86,504
1,36,97,56
1,36,86,504
1,36,97,56
1,36,86,504
1,36,97,56
1,36,86,504
1,36,97,56
1,36,86,504
1,36,97,56
1,36,86,504
1,36,97,56
1,36,86,504
1,36,97,56
1,36,86,504
1,36,97,56
1,36,86,504
1,36,97,56
1,36,86,504
1,36,97,56
1,36,86,504
1,36,97,56
1,36,86,504
2,37,92,192
2,37,92,568
2,37,92,568
2,37,96,184
2,37,92,376
2,37,96,184
2,37,92,376
2,37,96,184
2,37,92,376
2,37,96,184
2,37,92,376
2,37,96,184
2,37,92,376
2,37,96,184
2,37,92,376
2,37,96,184
2,37,92,376
2,37,96,184
2,37,92,376
2,37,96,184
2,37,92,376
2,37,96,184
2,37,92,376
2,37,96,184
2,37,92,376
2,37,96,184
2,37,92,376
2,37,96,184
2,37,92,376
2,37,96,184
2,37,92,376
2,37,96,184
2,37,92,376
2,37,96,184
2,37,92,376
2,37,96,184
2,37,92,376
2,37,96,184
2,37,92,376
2,37,96,184
2,37,92,376
2,37,96,184
2,37,92,376
2,37,96,184
2,37,92,376
2,37,96,184
2,37,92,376
2,37,96,184
2,37,92,376
2,37,96,184
2,37,92,376
2,37,96,184
2,37,92,376
2,37,96,184
2,37,92,376
2,37,96,184
2,37,92,376
2,37,96,184
2,37,92,376
2,37,96,184
2,37,92,376
2,37,96,184
2,37,92,376
2,37,96,184
2,37,92,376
2,37,96,184
2,37,92,376
2,37,96,184
2,37,92,376
2,37,96,184
2,37,92,376
2,37,96,184
2,37,92,376
2,37,96,184
2,37,92,376
2,37,96,184
2,37,92,376
2,37,96,184
2,37,92,376
2,37,96,184
2,37,92,376
2,37,96,184
2,37,92,376
2,37,96,184
2,37,92,376
2,37,96,184
2,37,92,376
2,37,96,184
2,37,92,376
2,37,96,184
2,37,92,376
2,37,96,184
2,37,92,376
2,37,96,184
2,37,92,376
2,37,96,184
2,37,92,376
2,37,96,184
2,37,92,376
2,37,96,184
2,37,92,376
2,37,96,184
2,37,92,376
2,37,96,184
2,37,92,376
2,37,96,184
2,37,92,376
2,37,96,184
2,37,92,376
2,37,96,184
2,37,92,376
2,37,96,184
2,37,92,376
2,37,96,184
2,37,92,376
2,37,96,184
2,37,92,376
2,37,96,184
2,37,92,376
2,37,96,184
2,37,92,376
2,37,96,184
2,37,92,376
2,37,96,184
2,37,92,376
2,37,96,184
2,37,92,376
2,37,96,184
2,37,92,376
2,37,96,184
2,37,92,376
2,37,96,184
2,37,92,376
2,37,96,184
2,37,92,376
2,37,96,184
2,37,92,376
2,37,96,184
2,37,92,376
2,37,96,184
2,37,92,376
2,37,96,184
2,37,92,376
2,37,96,184
2,37,92,376
2,37,96,184
2,37,92,376
2,37,96,184
2,37,92,376
2,37,96,184
2,37,92,376
2,37,96,184
2,37,92,376
2,37,96,184
2,37,92,376
2,37,96,184
2,37,92,376
2,37,96,184
2,37,92,376
2,37,96,184
2,37,92,376
2,37,96,184
2,37,92,376
2,37,96,184
2,37,92,376
2,37,96,184
2,37,92,376
2,37,96,184
2,37,92,376
2,37,96,184
2,37,92,376
2,37,96,184
2,37,92,376
2,37,96,184
2,37,92,376
2,37,96,184
2,37,92,376
2,37,96,184
2,37,92,376
2,37,96,184
2,37,92,376
2,37,96,184
2,37,92,376
2,37,96,184
2,37,92,376
2,37,96,184
2,37,92,376
2,37,96,184
2,37,92,376
2,37,96,184
2,37,92,376
2,37,96,184
2,37,92,376
2,37,96,184
2,37,92,376
2,37,96,184
2,37,92,376
2,37,96,184
2,37,92,376
2,37,96,184
2,37,92,376
2,37,96,184
2,37,92,376
2,37,96,184
2,37,92,376
2,37,96,184
2,37,92,376
2,37,96,184
2,37,92,376
2,37,96,184
3,42,92,192
3,42,104,184
3,42,92,376
3,42,104,184
3,42,92,376
3,42,104,184
3,42,92,376
3,42,104,184
3,42,92,376
3,42,104,184
3,42,92,376
3,42,104,184
3,42,92,376
3,42,104,184
3,42,92,376
3,42,104,184
3,42,92,376
3,42,104,184
3,42,92,376
3,42,104,184
3,42,92,376
3,42,104,184
3,42,92,376
3,42,104,184
3,42,92,376
3,42,104,184
3,42,92,376
3,42,104,184
3,42,92,376
3,42,104,184
3,42,92,376
3,42,104,184
3,42,92,376
3,42,104,184
3,42,92,376
3,42,104,184
3,42,92,376
3,42,104,184
3,42,92,376
3,42,104,184
3,42,92,376
3,42,104,184
3,42,92,376
3,42,104,184
3,42,92,376
3,42,104,184
3,42,92,376
3,42,104,184
3,42,92,376
3,42,104,184
3,42,92,376
3,42,104,184
3,42,92,376
3,42,104,184
3,42,92,376
3,42,104,184
3,42,92,376
3,42,104,184
3,42,92,376
3,42,104,184
3,42,92,376
3,42,104,184
3,42,92,376
3,42,104,184
3,42,92,376
3,42,104,184
3,42,92,376
3,42,104,184
3,42,92,376
3,42,104,184
3,42,92,376
3,42,104,184
3,42,92,376
3,42,104,184
3,42,92,376
3,42,104,184
3,42,92,376
3,42,104,184
3,42,92,376
3,42,104,184
3,42,92,376
3,42,104,184
3,42,92,376
3,42,104,184
3,42,92,376
3,42,104,184
3,42,92,376
3,42,104,184
3,42,92,376
3,42,104,184
3,42,92,376
3,42,104,184
3,42,92,376
3,42,104,184
3,42,92,376
3,42,104,184
3,42,92,376
3,42,104,184
3,42,92,376
3,42,104,184
3,42,92,376
3,42,104,184
3,42,92,376
3,42,104,184
3,42,92,376
3,42,104,184
3,42,92,376
3,42,104,184
3,42,92,376
3,42,104,184
3,42,92,376
3,42,104,184
3,42,92,376
3,42,104,184
3,42,92,376
3,42,104,184
3,42,92,376
3,42,104,184
3,42,92,376
3,42,104,184
3,42,92,376
3,42,104,184
3,42,92,376
3,42,104,184
3,42,92,376
3,42,104,184
3,42,92,376
3,42,104,184
3,42,92,376
3,42,104,184
3,42,92,376
3,42,104,184
3,42,92,376
3,42,104,184
3,42,92,376
3,42,104,184
3,42,92,376
3,42,104,184
3,42,92,376
3,42,104,184
3,42,92,376
3,42,104,184
3,42,92,376
3,42,104,184
3,42,92,376
3,42,104,184
3,42,92,376
3,42,104,184
3,42,92,376
3,42,104,184
3,42,92,376
3,42,104,184
3,42,92,376
3,42,104,184
3,42,92,376
3,42,104,184
3,42,92,376
3,42,104,184
3,42,92,376
3,42,104,184
3,42,92,376
3,42,104,184
3,42,92,376
3,42,104,184
3,42,92,376
3,42,104,184
3,42,92,376
3,42,104,184
3,42,92,376
3,42,104,184
3,42,92,376
3,42,104,184
3,42,92,376
3,42,104,184
3,42,92,376
3,42,104,184
3,42,92,376
3,42,104,184
3,42,92,376
3,42,104,184
3,42,92,376
3,42,104,184
3,42,92,376
3,42,104,184
3,42,92,376
3,42,104,184
3,42,92,376
3,42,104,184
3,42,92,376
3,42,104,184
3,42,92,376
3,42,104,184
3,42,92,376
3,42,104,184
3,42,92,376
3,42,104,184
3,42,92,376
3,42,104,184
3,42,92,376
3,42,104,184
3,42,92,376
3,42,104,184
3,42,92,376
3,42,104,184
3,42,92,376
3,42,104,184
3,42,92,376
3,42,104,184
3,42,92,376
3,42,104,184
3,42,92,376
3,42,104,184
3,42,92,376
3,42,104,184
3,42,92,376
3,42,104,184
3,42,68,64
3,42,55,30
4,46,109,0
4,46,109,568
4,46,109,568
4,46,109,568
4,46,109,568
4,46,109,568
4,46,109,568
4,46,109,568
4,46,109,568
4,46,109,568
4,46,109,568
4,46,109,568
4,46,109,568
4,46,109,568
4,46,109,568
4,46,109,568
4,46,109,568
4,46,109,568
4,46,109,568
4,46,109,568
4,46,109,568
4,46,109,568
4,46,109,568
4,46,109,568
4,46,109,568
4,46,109,568
4,46,109,568
4,46,109,568
4,46,109,568
4,46,109,568
4,46,109,568
4,46,109,568
4,46,109,568
4,46,109,568
4,46,109,568
4,46,109,568
4,46,109,568
4,46,109,568
4,46,109,568
4,46,109,568
4,46,109,568
4,46,109,568
4,46,109,568
4,46,109,568
4,46,109,568
4,46,109,568
4,46,109,568
4,46,109,568
4,46,109,568
4,46,109,568
4,46,109,568
4,46,109,568
4,46,109,568
4,46,109,568
4,46,109,568
4,46,109,568
4,46,109,568
4,46,109,568
4,46,109,568
4,46,109,568
4,46,109,568
4,46,109,568
4,46,109,568
4,46,109,568
4,46,109,568
4,46,109,568
4,46,109,568
4,46,109,568
4,46,109,568
4,46,109,568
4,46,109,568
4,46,109,568
4,46,109,568
4,46,109,568
4,46,109,568
4,46,109,568
4,46,109,568
4,46,109,568
4,46,109,568
4,46,109,568
4,46,109,568
4,46,109,568
4,46,109,568
4,46,109,568
4,46,109,568
4,46,109,568
4,46,109,568
4,46,109,568
4,46,109,568
4,46,109,568
4,46,109,568
4,46,109,568
4,46,109,568
4,46,109,568
4,46,109,568
4,46,109,568
4,46,109,568
4,46,109,568
4,46,109,568
4,46,109,568
4,46,109,568
4,46,109,568
4,46,109,568
4,46,109,568
4,46,109,568
4,46,109,568
4,46,109,568
4,46,109,568
4,46,86,568
5,48,79,0
5,48,78,82
5,43,78,0
5,48,86,108
5,53,88,72
5,53,92,96
5,48,66,80
5,53,85,16
5,46,100,72
5,46,104,94
5,41,72,50
5,46,75,110
5,53,90,0
5,41,12,158
5,46,104,46
5,46,96,106
5,41,67,48
5,43,71,122
5,46,100,12
5,46,114,100
5,41,83,42
5,43,79,120
5,46,109,64
5,46,92,110
5,41,75,54
5,43,80,124
5,46,109,60
5,46,81,100
5,41,79,52
5,43,78,114
5,46,114,54
5,46,104,118
5,41,70,2
5,46,89,0
5,47,85,28
5,47,92,102
5,42,69,64
5,47,62,106
5,48,80,28
5,43,82,114
5,48,107,78
5,48,79,12
5,48,86,134
5,43,79,2
5,46,104,110
5,48,113,58
5,48,101,118
5,43,86,4
5,48,101,102
5,53,110,6
5,53,97,106
5,48,90,74
5,53,86,6
5,48,104,74
5,48,94,110
5,43,80,56
5,46,100,114
5,47,82,24
5,53,90,20
5,53,101,106
5,48,80,74
5,53,79,12
5,48,97,78
5,48,97,102
5,43,72,72
5,48,85,106
5,53,99,6
5,53,99,102
5,48,83,70
5,53,88,24
5,46,114,84
5,46,79,110
5,41,70,74
5,43,75,134
5,46,100,58
5,46,77,14
5,46,119,122
5,41,86,58
5,43,83,106
5,46,114,62
5,46,100,118
5,41,83,58
5,43,78,118
5,46,114,54
5,46,60,10
5,46,119,144
5,41,72,78
5,46,104,102
5,51,100,12
5,51,92,112
5,46,89,78
5,49,104,100
5,51,96,0
5,51,79,22
5,51,92,154
5,46,104,40
5,51,84,2
5,48,79,2
5,43,75,164
5,46,89,118
5,48,110,2
5,48,110,138
5,43,83,0
5,48,107,106
5,53,107,0
5,53,92,108
5,48,83,76
5,51,69,90
5,53,97,0
5,53,92,120
5,48,86,70
5,53,82,6
5,46,109,0
5,46,104,122
5,41,62,70
5,43,73,102
5,46,96,52
5,46,109,104
5,41,76,2
5,46,92,120
5,48,86,2
5,48,107,120
5,43,79,4
5,46,96,102
5,48,99,2
5,48,74,14
5,48,107,142
5,43,83,50
5,46,114,112
5,48,104,0
5,48,110,110
5,43,86,2
5,48,94,106
5,53,94,78
5,53,104,114
5,48,82,74
5,53,82,4
5,46,104,84
5,46,114,90
5,41,86,44
5,45,78,112
5,41,82,16
5,41,82,112
5,48,80,82
5,41,72,2
5,46,100,60
5,46,109,104
5,41,85,6
5,43,73,120
5,46,109,58
5,46,119,112
5,41,73,4
5,43,88,114
5,46,109,62
5,46,100,120
5,41,76,64
5,43,71,112
5,46,100,68
5,46,104,120
5,41,75,70
5,43,67,116
5,46,114,62
5,46,114,106
5,41,73,70
5,46,100,96
5,47,82,30
5,47,113,100
5,47,99,36
5,47,86,40
5,48,82,26
5,48,99,92
5,43,82,4
5,43,80,28
5,48,107,10
5,48,94,126
5,43,82,52
5,46,104,126
5,48,110,10
5,48,113,118
5,43,88,2
5,48,113,102
5,53,104,78
5,53,97,110
5,48,73,70
5,53,82,10
5,48,101,82
5,48,97,106
5,43,79,70
5,46,96,98
5,53,101,6
5,53,101,102
5,48,88,70
5,53,85,10
5,48,99,82
5,48,97,102
5,43,76,78
5,46,92,102
5,53,94,0
5,53,90,108
5,48,78,76
5,53,82,10
5,46,109,90
5,46,92,120
5,41,73,76
5,43,73,104
5,46,104,72
5,46,68,128
5,41,79,2
5,43,74,112
5,46,114,68
5,46,92,108
5,41,80,58
5,43,82,108
5,46,100,54
5,46,100,92
5,41,71,84
5,46,109,88
5,51,96,72
5,51,81,110
5,46,49,86
5,49,84,100
5,51,114,0
5,51,104,148
5,46,62,70
5,51,92,110
5,48,107,50
5,48,92,108
5,43,74,74
5,46,96,100
5,48,107,2
5,48,113,116
5,43,90,0
5,48,101,96
5,53,101,10
5,53,90,108
5,48,71,88
5,51,40,92
5,53,74,70
5,53,90,90
5,48,83,76
5,53,80,4
5,46,104,94
5,46,109,100
5,41,76,70
5,43,83,102
5,46,114,58
5,46,109,94
