track,note,velocity,time
1,36,127,1440
1,36,0,180
1,31,127,0
1,31,0,150
1,29,127,30
1,29,0,29
1,31,127,31
1,31,0,60
1,32,127,0
1,32,0,180
1,39,127,0
1,39,0,180
1,31,127,0
1,31,0,60
1,34,127,0
1,34,0,60
1,36,127,0
1,36,0,180
1,31,127,0
1,31,0,150
1,29,127,30
1,29,0,29
1,31,127,31
1,31,0,60
1,32,127,0
1,32,0,180
1,39,127,0
1,39,0,180
1,31,127,0
1,31,0,60
1,34,127,0
1,34,0,60
1,36,127,9
1,36,0,166
1,31,127,4
1,31,0,79
1,29,127,38
1,29,0,34
1,31,127,30
1,31,0,114
1,32,127,6
1,32,0,72
1,39,127,107
1,39,0,238
1,36,127,63
1,36,0,180
1,31,127,0
1,31,0,150
1,29,127,30
1,29,0,29
1,31,127,31
1,31,0,60
1,32,127,0
1,32,0,180
1,39,127,0
1,39,0,180
1,31,127,0
1,31,0,60
1,34,127,0
1,34,0,60
1,36,127,0
1,36,0,180
1,31,127,0
1,31,0,150
1,29,127,30
1,29,0,29
1,31,127,31
1,31,0,60
1,32,127,0
1,32,0,180
1,39,127,0
1,39,0,180
1,31,127,0
1,31,0,60
1,34,127,0
1,34,0,60
1,36,127,0
1,36,0,180
1,31,127,0
1,31,0,150
1,29,127,30
1,29,0,29
1,31,127,31
1,31,0,60
1,32,127,0
1,32,0,180
1,39,127,0
1,39,0,180
1,31,127,0
1,31,0,60
1,34,127,0
1,34,0,60
1,36,127,0
1,36,0,180
1,31,127,0
1,31,0,150
1,29,127,30
1,29,0,29
1,31,127,31
1,31,0,60
1,32,127,0
1,32,0,180
1,39,127,0
1,39,0,180
1,31,127,0
1,31,0,60
1,34,127,0
1,34,0,60
1,36,127,9
1,36,0,166
1,31,127,4
1,31,0,79
1,29,127,38
1,29,0,34
1,31,127,30
1,31,0,114
1,32,127,6
1,32,0,72
1,39,127,107
1,39,0,238
1,36,127,63
1,36,0,180
1,31,127,0
1,31,0,150
1,29,127,30
1,29,0,29
1,31,127,31
1,31,0,60
1,32,127,0
1,32,0,180
1,39,127,0
1,39,0,180
1,31,127,0
1,31,0,60
1,34,127,0
1,34,0,60
1,36,127,0
1,36,0,180
1,31,127,0
1,31,0,150
1,29,127,30
1,29,0,29
1,31,127,31
1,31,0,60
1,32,127,0
1,32,0,180
1,39,127,0
1,39,0,180
1,31,127,0
1,31,0,60
1,34,127,0
1,34,0,60
1,36,127,0
1,36,0,180
1,31,127,0
1,31,0,150
1,29,127,30
1,29,0,29
1,31,127,31
1,31,0,60
1,32,127,0
1,32,0,180
1,39,127,0
1,39,0,180
1,31,127,0
1,31,0,60
1,34,127,0
1,34,0,60
1,36,127,0
1,36,0,29
1,36,127,31
1,36,0,60
1,31,127,120
1,31,0,29
1,31,127,31
1,31,0,29
1,32,127,151
1,32,0,29
1,32,127,31
1,32,0,29
1,39,127,91
1,39,0,90
1,39,127,30
1,39,0,29
1,39,127,31
1,39,0,29
1,39,127,31
1,39,0,29
1,36,127,31
1,36,0,29
1,36,127,31
1,36,0,60
1,31,127,120
1,31,0,29
1,31,127,31
1,31,0,29
1,32,127,151
1,32,0,29
1,32,127,31
1,32,0,29
1,39,127,91
1,39,0,90
1,39,127,30
1,39,0,29
1,39,127,31
1,39,0,29
1,39,127,31
1,39,0,29
1,36,127,31
1,36,0,29
1,36,127,31
1,36,0,60
1,31,127,120
1,31,0,29
1,31,127,31
1,31,0,29
1,32,127,151
1,32,0,29
1,32,127,31
1,32,0,29
1,39,127,91
1,39,0,90
1,39,127,30
1,39,0,29
1,39,127,31
1,39,0,29
1,39,127,31
1,39,0,29
1,36,127,31
1,36,0,29
1,36,127,31
1,36,0,60
1,31,127,120
1,31,0,29
1,31,127,31
1,31,0,29
1,32,127,151
1,32,0,29
1,32,127,31
1,32,0,29
1,39,127,91
1,39,0,90
1,39,127,30
1,39,0,29
1,39,127,31
1,39,0,29
1,39,127,31
1,39,0,29
1,36,127,31
1,36,0,180
1,31,127,0
1,31,0,150
1,29,127,30
1,29,0,29
1,31,127,31
1,31,0,60
1,32,127,0
1,32,0,180
1,39,127,0
1,39,0,180
1,31,127,0
1,31,0,60
1,34,127,0
1,34,0,60
1,36,127,9
1,36,0,166
1,31,127,4
1,31,0,79
1,29,127,38
1,29,0,34
1,31,127,30
1,31,0,114
1,32,127,6
1,32,0,72
1,39,127,107
1,39,0,238
1,36,127,63
1,36,0,180
1,31,127,0
1,31,0,150
1,29,127,30
1,29,0,29
1,31,127,31
1,31,0,60
1,32,127,0
1,32,0,180
1,39,127,0
1,39,0,180
1,31,127,0
1,31,0,60
1,34,127,0
1,34,0,60
1,36,127,0
1,36,0,180
1,31,127,0
1,31,0,150
1,29,127,30
1,29,0,29
1,31,127,31
1,31,0,60
1,32,127,0
1,32,0,180
1,39,127,0
1,39,0,180
1,31,127,0
1,31,0,60
1,34,127,0
1,34,0,60
1,36,127,0
1,36,0,180
1,31,127,0
1,31,0,150
1,29,127,30
1,29,0,29
1,31,127,31
1,31,0,60
1,32,127,0
1,32,0,180
1,39,127,0
1,39,0,180
1,31,127,0
1,31,0,60
1,34,127,0
1,34,0,60
1,36,127,0
1,36,0,180
1,31,127,0
1,31,0,150
1,29,127,30
1,29,0,29
1,31,127,31
1,31,0,60
1,32,127,0
1,32,0,180
1,39,127,0
1,39,0,180
1,31,127,0
1,31,0,60
1,34,127,0
1,34,0,60
1,36,127,0
1,36,0,29
1,36,127,31
1,36,0,60
1,31,127,120
1,31,0,29
1,31,127,31
1,31,0,29
1,32,127,151
1,32,0,29
1,32,127,31
1,32,0,29
1,39,127,91
1,39,0,90
1,39,127,30
1,39,0,29
1,39,127,31
1,39,0,29
1,39,127,31
1,39,0,29
1,36,127,31
1,36,0,29
1,36,127,31
1,36,0,60
1,31,127,120
1,31,0,29
1,31,127,31
1,31,0,29
1,32,127,151
1,32,0,29
1,32,127,31
1,32,0,29
1,39,127,91
1,39,0,90
1,39,127,30
1,39,0,29
1,39,127,31
1,39,0,29
1,39,127,31
1,39,0,29
1,36,127,31
1,36,0,29
1,36,127,31
1,36,0,60
1,31,127,120
1,31,0,29
1,31,127,31
1,31,0,29
1,32,127,151
1,32,0,29
1,32,127,31
1,32,0,29
1,39,127,91
1,39,0,90
1,39,127,30
1,39,0,29
1,39,127,31
1,39,0,29
1,39,127,31
1,39,0,29
1,36,127,31
1,36,0,29
1,36,127,31
1,36,0,60
1,31,127,120
1,31,0,29
1,31,127,31
1,31,0,29
1,32,127,151
1,32,0,29
1,32,127,31
1,32,0,29
1,39,127,91
1,39,0,90
1,39,127,30
1,39,0,29
1,39,127,31
1,39,0,29
1,39,127,31
1,39,0,29
1,46,127,31
1,46,0,38
1,46,127,20
1,46,0,52
1,46,127,72
1,45,127,57
1,46,0,1
1,45,0,45
1,45,127,14
1,45,0,47
1,45,127,70
1,39,127,59
1,45,0,6
1,39,0,35
1,39,127,17
1,39,0,54
1,39,127,69
1,39,0,58
1,42,127,1
1,42,0,40
1,42,127,19
1,42,0,37
1,42,127,23
1,42,0,40
1,42,127,20
1,42,0,44
1,46,127,22
1,46,0,38
1,46,127,20
1,46,0,52
1,46,127,72
1,45,127,57
1,46,0,1
1,45,0,45
1,45,127,14
1,45,0,47
1,45,127,70
1,39,127,59
1,45,0,6
1,39,0,35
1,39,127,17
1,39,0,54
1,39,127,69
1,39,0,58
1,42,127,1
1,42,0,40
1,42,127,19
1,42,0,37
1,42,127,23
1,42,0,40
1,42,127,20
1,42,0,44
1,46,127,22
1,46,0,38
1,46,127,20
1,46,0,52
1,46,127,72
1,45,127,57
1,46,0,1
1,45,0,45
1,45,127,14
1,45,0,47
1,45,127,70
1,39,127,59
1,45,0,6
1,39,0,35
1,39,127,17
1,39,0,54
1,39,127,69
1,39,0,58
1,42,127,1
1,42,0,40
1,42,127,19
1,42,0,37
1,42,127,23
1,42,0,40
1,42,127,20
1,42,0,44
1,46,127,22
1,46,0,38
1,46,127,20
1,46,0,52
1,46,127,72
1,45,127,57
1,46,0,1
1,45,0,45
1,45,127,14
1,45,0,47
1,45,127,70
1,39,127,59
1,45,0,6
1,39,0,35
1,39,127,17
1,39,0,54
1,39,127,69
1,39,0,58
1,42,127,1
1,42,0,40
1,42,127,19
1,42,0,37
1,42,127,23
1,42,0,40
1,42,127,20
1,42,0,44
1,36,127,22
1,36,0,29
1,36,127,31
1,36,0,60
1,36,127,60
1,36,0,60
1,31,127,0
1,31,0,29
1,31,127,31
1,31,0,29
1,31,127,91
1,31,0,60
1,32,127,0
1,32,0,29
1,32,127,31
1,32,0,29
1,39,127,91
1,39,0,90
1,39,127,30
1,39,0,29
1,39,127,31
1,39,0,29
1,39,127,31
1,39,0,29
1,36,127,31
1,36,0,29
1,36,127,31
1,36,0,60
1,36,127,60
1,36,0,60
1,31,127,0
1,31,0,29
1,31,127,31
1,31,0,29
1,31,127,91
1,31,0,60
1,32,127,0
1,32,0,29
1,32,127,31
1,32,0,29
1,39,127,91
1,39,0,90
1,39,127,30
1,39,0,29
1,39,127,31
1,39,0,29
1,39,127,31
1,39,0,29
1,36,127,31
1,36,0,29
1,36,127,31
1,36,0,60
1,36,127,60
1,36,0,60
1,31,127,0
1,31,0,29
1,31,127,31
1,31,0,29
1,31,127,91
1,31,0,60
1,32,127,0
1,32,0,29
1,32,127,31
1,32,0,29
1,39,127,91
1,39,0,90
1,39,127,30
1,39,0,29
1,39,127,31
1,39,0,29
1,39,127,31
1,39,0,29
1,36,127,31
1,36,0,29
1,36,127,31
1,36,0,60
1,36,127,60
1,36,0,60
1,31,127,0
1,31,0,29
1,31,127,31
1,31,0,29
1,31,127,91
1,31,0,60
1,32,127,0
1,32,0,29
1,32,127,31
1,32,0,29
1,39,127,91
1,39,0,90
1,39,127,30
1,39,0,29
1,39,127,31
1,39,0,29
1,39,127,31
1,39,0,29
1,36,127,31
1,36,0,29
1,36,127,31
1,36,0,60
1,36,127,60
1,36,0,60
1,31,127,0
1,31,0,29
1,31,127,31
1,31,0,29
1,31,127,91
1,31,0,60
1,32,127,0
1,32,0,29
1,32,127,31
1,32,0,29
1,39,127,91
1,39,0,90
1,39,127,30
1,39,0,29
1,39,127,31
1,39,0,29
1,39,127,31
1,39,0,29
1,36,127,31
1,36,0,29
1,36,127,31
1,36,0,60
1,36,127,60
1,36,0,60
1,31,127,0
1,31,0,29
1,31,127,31
1,31,0,29
1,31,127,91
1,31,0,60
1,32,127,0
1,32,0,29
1,32,127,31
1,32,0,29
1,39,127,91
1,39,0,90
1,39,127,30
1,39,0,29
1,39,127,31
1,39,0,29
1,39,127,31
1,39,0,29
1,36,127,31
1,36,0,29
1,36,127,31
1,36,0,60
1,36,127,60
1,36,0,60
1,31,127,0
1,31,0,29
1,31,127,31
1,31,0,29
1,31,127,91
1,31,0,60
1,32,127,0
1,32,0,29
1,32,127,31
1,32,0,29
1,39,127,91
1,39,0,90
1,39,127,30
1,39,0,29
1,39,127,31
1,39,0,29
1,39,127,31
1,39,0,29
1,36,127,31
1,36,0,29
1,36,127,31
1,36,0,60
1,36,127,60
1,36,0,60
1,31,127,0
1,31,0,29
1,31,127,31
1,31,0,29
1,31,127,91
1,31,0,60
1,32,127,0
1,32,0,29
1,32,127,31
1,32,0,29
1,39,127,91
1,39,0,90
2,48,125,483
2,60,127,89
2,51,126,0
2,53,118,0
2,58,121,0
2,55,122,1
2,55,0,6
2,48,0,0
2,58,0,1
2,53,0,2
2,51,0,0
2,60,0,1
2,43,127,83
2,50,127,3
2,55,115,1
2,43,0,90
2,50,0,24
2,43,115,1
2,55,0,10
2,50,123,49
2,55,94,30
2,43,0,26
2,59,84,1
2,50,0,6
2,55,0,3
2,59,0,12
2,58,123,8
2,58,0,23
2,44,111,7
2,48,127,92
2,51,102,0
2,56,127,0
2,51,0,10
2,48,0,2
2,44,0,2
2,56,0,0
2,51,127,79
2,46,127,1
2,55,127,0
2,46,0,94
2,51,0,6
2,55,0,1
2,51,127,13
2,51,0,60
2,53,127,0
2,55,127,26
2,53,0,2
2,58,127,28
2,55,0,1
2,58,0,39
2,48,125,27
2,60,127,89
2,51,126,0
2,53,118,0
2,58,121,0
2,55,122,1
2,55,0,6
2,48,0,0
2,58,0,1
2,53,0,2
2,51,0,0
2,60,0,1
2,43,127,83
2,50,127,3
2,55,115,1
2,43,0,90
2,50,0,24
2,43,115,1
2,55,0,10
2,50,123,49
2,55,94,30
2,43,0,26
2,59,84,1
2,50,0,6
2,55,0,3
2,59,0,12
2,58,123,8
2,58,0,23
2,44,111,7
2,48,127,92
2,51,102,0
2,56,127,0
2,51,0,10
2,48,0,2
2,44,0,2
2,56,0,0
2,51,127,79
2,46,127,1
2,55,127,0
2,46,0,94
2,51,0,6
2,55,0,1
2,51,127,13
2,51,0,60
2,53,127,0
2,55,127,26
2,53,0,2
2,58,127,28
2,55,0,1
2,58,0,39
2,48,125,27
2,60,127,89
2,51,126,0
2,53,118,0
2,58,121,0
2,55,122,1
2,55,0,6
2,48,0,0
2,58,0,1
2,53,0,2
2,51,0,0
2,60,0,1
2,43,127,83
2,50,127,3
2,55,115,1
2,43,0,90
2,50,0,24
2,43,115,1
2,55,0,10
2,50,123,49
2,55,94,30
2,43,0,26
2,59,84,1
2,50,0,6
2,55,0,3
2,59,0,12
2,58,123,8
2,58,0,23
2,44,111,7
2,48,127,92
2,51,102,0
2,56,127,0
2,51,0,10
2,48,0,2
2,44,0,2
2,56,0,0
2,51,127,79
2,46,127,1
2,55,127,0
2,46,0,94
2,51,0,6
2,55,0,1
2,51,127,13
2,51,0,60
2,53,127,0
2,55,127,26
2,53,0,2
2,58,127,28
2,55,0,1
2,58,0,39
2,48,125,27
2,60,127,89
2,51,126,0
2,53,118,0
2,58,121,0
2,55,122,1
2,55,0,6
2,48,0,0
2,58,0,1
2,53,0,2
2,51,0,0
2,60,0,1
2,43,127,83
2,50,127,3
2,55,115,1
2,43,0,90
2,50,0,24
2,43,115,1
2,55,0,10
2,50,123,49
2,55,94,30
2,43,0,26
2,59,84,1
2,50,0,6
2,55,0,3
2,59,0,12
2,58,123,8
2,58,0,23
2,44,111,7
2,48,127,92
2,51,102,0
2,56,127,0
2,51,0,10
2,48,0,2
2,44,0,2
2,56,0,0
2,51,127,79
2,46,127,1
2,55,127,0
2,46,0,94
2,51,0,6
2,55,0,1
2,48,125,196
2,60,127,89
2,51,126,0
2,53,118,0
2,58,121,0
2,55,122,1
2,55,0,6
2,48,0,0
2,58,0,1
2,53,0,2
2,51,0,0
2,60,0,1
2,43,127,83
2,50,127,3
2,55,115,1
2,43,0,90
2,50,0,24
2,43,115,1
2,55,0,10
2,50,123,49
2,55,94,30
2,43,0,26
2,59,84,1
2,50,0,6
2,55,0,3
2,59,0,12
2,58,123,8
2,58,0,23
2,44,111,7
2,48,127,92
2,51,102,0
2,56,127,0
2,51,0,10
2,48,0,2
2,44,0,2
2,56,0,0
2,51,127,79
2,46,127,1
2,55,127,0
2,46,0,94
2,51,0,6
2,55,0,1
2,51,127,13
2,51,0,60
2,53,127,0
2,55,127,26
2,53,0,2
2,58,127,28
2,55,0,1
2,58,0,39
2,48,125,27
2,60,127,89
2,51,126,0
2,53,118,0
2,58,121,0
2,55,122,1
2,55,0,6
2,48,0,0
2,58,0,1
2,53,0,2
2,51,0,0
2,60,0,1
2,43,127,83
2,50,127,3
2,55,115,1
2,43,0,90
2,50,0,24
2,43,115,1
2,55,0,10
2,50,123,49
2,55,94,30
2,43,0,26
2,59,84,1
2,50,0,6
2,55,0,3
2,59,0,12
2,58,123,8
2,58,0,23
2,44,111,7
2,48,127,92
2,51,102,0
2,56,127,0
2,51,0,10
2,48,0,2
2,44,0,2
2,56,0,0
2,51,127,79
2,46,127,1
2,55,127,0
2,46,0,94
2,51,0,6
2,55,0,1
2,51,127,13
2,51,0,60
2,53,127,0
2,55,127,26
2,53,0,2
2,58,127,28
