track,note,velocity,time
3,43,78,832
3,43,0,149
3,43,78,31
3,43,0,29
3,43,84,31
3,43,0,184
3,38,61,0
3,38,0,40
3,43,91,16
3,43,0,154
3,43,78,26
3,43,0,28
3,43,91,32
3,43,0,164
3,43,94,16
3,43,0,34
3,43,91,26
3,43,0,146
3,43,71,34
3,43,0,22
3,43,91,38
3,43,0,155
3,43,58,25
3,43,0,18
3,43,81,42
3,43,0,158
3,43,68,22
3,43,0,24
3,43,94,36
3,43,0,163
3,43,97,17
3,43,0,24
3,43,91,36
3,43,0,157
3,43,63,23
3,43,0,29
3,43,84,31
3,43,0,218
3,33,91,22
3,33,0,157
3,33,63,23
3,33,0,29
3,33,84,31
3,33,0,218
3,38,87,22
3,38,0,153
3,38,91,27
3,38,0,36
3,38,87,24
3,38,0,180
3,38,65,0
3,38,0,37
3,43,78,23
3,43,0,149
3,43,78,31
3,43,0,29
3,43,81,31
3,43,0,120
3,43,81,0
3,43,0,120
3,36,91,0
3,36,0,146
3,36,71,34
3,36,0,22
3,36,91,38
3,36,0,155
3,36,58,25
3,36,0,18
3,43,91,42
3,43,0,157
3,43,63,23
3,43,0,29
3,43,84,31
3,43,0,218
3,33,87,22
3,33,0,144
3,33,68,36
3,33,0,34
3,33,78,26
3,33,0,163
3,33,87,17
3,33,0,34
3,38,87,26
3,38,0,144
3,38,68,36
3,38,0,34
3,38,78,26
3,38,0,163
3,38,87,17
3,38,0,34
3,43,87,26
3,43,0,153
3,43,91,27
3,43,0,36
3,43,87,24
3,43,0,180
3,43,65,0
3,43,0,37
3,36,91,23
3,36,0,146
3,36,71,34
3,36,0,22
3,38,81,38
3,38,0,140
3,38,56,40
3,38,0,22
3,43,81,38
3,43,0,140
3,43,56,40
3,43,0,22
3,43,71,38
3,43,0,202
3,33,87,38
3,33,0,153
3,33,91,27
3,33,0,36
3,33,87,24
3,33,0,180
3,33,65,0
3,33,0,37
3,38,81,23
3,38,0,140
3,38,56,40
3,38,0,22
3,38,71,38
3,38,0,202
3,43,81,38
3,43,0,140
3,43,56,40
3,43,0,22
3,43,87,38
3,43,0,120
3,43,91,0
3,43,0,120
3,36,91,0
3,36,0,141
3,36,63,39
3,36,0,29
3,36,87,31
3,36,0,151
3,36,54,29
3,36,0,18
3,43,87,42
3,43,0,153
3,43,91,27
3,43,0,36
3,43,87,24
3,43,0,180
3,43,65,0
3,43,0,37
3,33,91,23
3,33,0,157
3,33,63,23
3,33,0,29
3,33,84,31
3,33,0,218
3,38,91,22
3,38,0,146
3,38,71,34
3,38,0,22
3,38,91,38
3,38,0,155
3,38,58,25
3,38,0,18
3,43,78,42
3,43,0,149
3,43,78,31
3,43,0,29
3,43,84,31
3,43,0,184
3,38,61,0
3,38,0,40
3,43,78,16
3,43,0,149
3,43,78,31
3,43,0,29
3,43,84,31
3,43,0,184
3,38,61,0
3,38,0,40
3,36,87,16
3,36,0,153
3,36,91,27
3,36,0,36
3,38,87,24
3,38,0,144
3,38,68,36
3,38,0,34
3,43,91,26
3,43,0,157
3,43,63,23
3,43,0,29
3,43,84,31
3,43,0,218
3,36,87,22
3,36,0,153
3,36,91,27
3,36,0,36
3,38,78,24
3,38,0,149
3,38,78,31
3,38,0,29
3,43,87,31
3,43,0,144
3,43,68,36
3,43,0,34
3,43,78,26
3,43,0,163
3,43,87,17
3,43,0,34
3,36,91,26
3,36,0,157
3,36,63,23
3,36,0,29
3,38,87,31
3,38,0,144
3,38,68,36
3,38,0,34
3,43,87,26
3,43,0,153
3,43,91,27
3,43,0,36
3,40,78,24
3,40,0,149
3,40,78,31
3,40,0,29
3,33,87,31
3,33,0,144
3,33,68,36
3,33,0,34
3,33,78,26
3,33,0,163
3,33,87,17
3,33,0,34
3,38,91,26
3,38,0,157
3,38,63,23
3,38,0,29
3,38,84,31
3,38,0,218
3,43,87,22
3,43,0,153
3,43,91,27
3,43,0,36
3,43,87,24
3,43,0,180
3,43,65,0
3,43,0,37
3,33,91,23
3,33,0,157
3,33,63,23
3,33,0,29
3,33,84,31
3,33,0,218
3,38,87,22
3,38,0,144
3,38,68,36
3,38,0,34
3,38,78,26
3,38,0,163
3,38,87,17
3,38,0,34
3,43,87,26
3,43,0,144
3,43,68,36
3,43,0,34
3,43,91,26
3,43,0,120
3,43,91,0
3,43,0,120
3,36,87,0
3,36,0,144
3,36,68,36
3,36,0,34
3,36,78,26
3,36,0,163
3,36,87,17
3,36,0,34
3,43,91,26
3,43,0,147
3,43,71,33
3,43,0,29
3,43,91,31
3,43,0,161
3,43,81,19
3,43,0,35
3,33,87,25
3,33,0,144
3,33,68,36
3,33,0,34
3,33,78,26
3,33,0,163
3,33,87,17
3,33,0,34
3,38,87,26
3,38,0,153
3,38,91,27
3,38,0,36
3,38,87,24
3,38,0,180
3,38,65,0
3,38,0,37
3,43,87,23
3,43,0,144
3,43,68,36
3,43,0,34
3,43,78,26
3,43,0,163
3,43,87,17
3,43,0,34
3,36,81,26
3,36,0,140
3,36,56,40
3,36,0,22
3,38,91,38
3,38,0,147
3,38,71,33
3,38,0,29
3,43,81,31
3,43,0,140
3,43,56,40
3,43,0,22
3,43,71,38
3,43,0,202
3,33,91,38
3,33,0,146
3,33,71,34
3,33,0,22
3,33,91,38
3,33,0,155
3,33,58,25
3,33,0,18
3,38,81,42
3,38,0,140
3,38,56,40
3,38,0,22
3,38,71,38
3,38,0,202
3,43,78,38
3,43,0,149
3,43,78,31
3,43,0,29
3,43,87,31
3,43,0,120
3,43,78,0
3,43,0,120
3,36,91,0
3,36,0,157
3,36,63,23
3,36,0,29
3,36,84,31
3,36,0,218
3,43,91,22
3,43,0,147
3,43,71,33
3,43,0,29
3,43,91,31
3,43,0,161
3,43,81,19
3,43,0,35
3,33,91,25
3,33,0,147
3,33,71,33
3,33,0,29
3,33,91,31
3,33,0,161
3,33,81,19
3,33,0,35
3,38,91,25
3,38,0,157
3,38,63,23
3,38,0,29
3,38,84,31
3,38,0,218
3,43,91,22
3,43,0,147
3,43,71,33
3,43,0,29
3,43,91,31
3,43,0,161
3,43,81,19
3,43,0,35
3,43,91,25
3,43,0,147
3,43,71,33
3,43,0,29
3,43,91,31
3,43,0,161
3,43,81,19
3,43,0,35
3,36,78,25
3,36,0,149
3,36,78,31
3,36,0,29
3,38,91,31
3,38,0,146
3,38,71,34
3,38,0,22
3,43,78,38
3,43,0,149
3,43,78,31
3,43,0,29
3,43,84,31
3,43,0,184
3,38,61,0
3,38,0,40
3,36,91,16
3,36,0,146
3,36,71,34
3,36,0,22
3,38,91,38
3,38,0,146
3,38,71,34
3,38,0,22
3,43,81,38
3,43,0,140
3,43,56,40
3,43,0,22
3,43,71,38
3,43,0,202
3,36,81,38
3,36,0,140
3,36,56,40
3,36,0,22
3,38,91,38
3,38,0,146
3,38,71,34
3,38,0,22
3,43,78,38
3,43,0,149
3,43,78,31
3,43,0,29
3,40,87,31
3,40,0,153
3,40,91,27
3,40,0,36
3,33,91,24
3,33,0,146
3,33,71,34
3,33,0,22
3,33,91,38
3,33,0,155
3,33,58,25
3,33,0,18
3,38,91,42
3,38,0,146
3,38,71,34
3,38,0,22
3,38,91,38
3,38,0,155
3,38,58,25
3,38,0,18
3,43,81,42
3,43,0,140
3,43,56,40
3,43,0,22
3,43,71,38
3,43,0,202
3,33,81,38
3,33,0,140
3,33,56,40
3,33,0,22
3,33,71,38
3,33,0,202
3,38,91,38
3,38,0,157
3,38,63,23
3,38,0,29
3,38,84,31
3,38,0,218
3,43,87,22
3,43,0,144
3,43,68,36
3,43,0,34
3,43,87,26
3,43,0,120
3,43,81,0
3,43,0,120
3,36,81,0
3,36,0,140
3,36,56,40
3,36,0,22
3,36,71,38
3,36,0,202
3,43,87,38
3,43,0,153
3,43,91,27
3,43,0,36
3,43,87,24
3,43,0,180
3,43,65,0
3,43,0,37
3,33,87,23
3,33,0,153
3,33,91,27
3,33,0,36
3,33,87,24
3,33,0,180
3,33,65,0
3,33,0,37
3,38,91,23
3,38,0,146
3,38,71,34
3,38,0,22
3,38,91,38
3,38,0,155
3,38,58,25
3,38,0,18
3,43,87,42
3,43,0,144
3,43,68,36
3,43,0,34
3,43,78,26
3,43,0,163
3,43,87,17
3,43,0,34
3,43,91,26
3,43,0,157
3,43,63,23
3,43,0,29
3,43,84,31
3,43,0,218
4,62,55,827
4,59,55,0
4,55,55,0
4,55,0,895
4,59,0,0
4,62,0,0
4,62,60,65
4,59,60,0
4,55,60,0
4,55,0,45
4,59,0,0
4,62,0,0
4,62,70,75
4,59,70,0
4,55,70,0
4,43,64,420
4,55,0,35
4,62,0,0
4,59,0,0
4,59,67,25
4,67,55,60
4,62,39,120
4,62,0,172
4,43,0,0
4,59,0,0
4,67,0,0
4,62,70,8
4,59,70,0
4,55,70,0
4,55,0,270
4,59,0,0
4,62,0,0
4,62,67,30
4,59,67,0
4,55,67,0
4,55,0,40
4,59,0,0
4,62,0,0
4,64,43,140
4,60,43,0
4,57,43,0
4,57,0,442
4,60,0,0
4,64,0,0
4,50,70,98
4,57,62,60
4,60,53,60
4,66,67,0
4,66,0,276
4,60,0,0
4,57,0,12
4,50,0,3
4,62,55,69
4,59,55,0
4,55,55,0
4,55,0,180
4,59,0,0
4,62,0,0
4,62,55,0
4,59,55,0
4,55,55,0
4,55,0,120
4,59,0,0
4,62,0,0
4,65,55,0
4,62,55,0
4,59,55,0
4,67,55,0
4,67,0,120
4,65,0,0
4,62,0,0
4,59,0,0
4,64,70,0
4,60,70,0
4,55,70,0
4,55,0,270
4,60,0,0
4,64,0,0
4,64,67,30
4,60,67,0
4,55,67,0
4,55,0,40
4,60,0,0
4,64,0,0
4,67,60,140
4,71,53,0
4,62,32,0
4,43,60,60
4,55,51,60
4,62,0,17
4,59,62,43
4,55,0,12
4,67,0,216
4,71,0,0
4,59,0,3
4,43,0,10
4,64,43,59
4,60,43,0
4,57,43,0
4,57,0,442
4,60,0,0
4,64,0,0
4,62,70,38
4,60,70,0
4,57,70,0
4,66,70,0
4,66,0,270
4,62,0,0
4,60,0,0
4,57,0,0
4,62,67,30
4,60,67,0
4,57,67,0
4,66,67,0
4,66,0,40
4,62,0,0
4,60,0,0
4,57,0,0
4,43,70,200
4,59,62,60
4,62,53,60
4,67,67,0
4,67,0,276
4,62,0,0
4,59,0,12
4,43,0,3
4,64,55,9
4,60,55,0
4,55,55,0
4,55,0,237
4,60,0,0
4,64,0,0
4,66,55,63
4,62,55,0
4,60,55,0
4,69,55,0
4,69,0,180
4,66,0,0
4,62,0,0
4,60,0,0
4,43,49,0
4,62,67,0
4,57,62,0
4,57,0,56
4,59,55,4
4,57,53,60
4,59,0,12
4,57,0,52
4,55,70,0
4,55,0,296
4,62,0,0
4,43,0,0
4,64,70,0
4,60,70,0
4,57,70,0
4,57,0,270
4,60,0,0
4,64,0,0
4,64,67,30
4,60,67,0
4,57,67,0
4,57,0,40
4,60,0,0
4,64,0,0
4,66,60,140
4,69,53,0
4,60,32,0
4,50,60,60
4,54,51,60
4,60,0,17
4,57,62,43
4,54,0,12
4,66,0,216
4,69,0,0
4,57,0,3
4,50,0,10
4,62,55,59
4,59,55,0
4,55,55,0
4,55,0,237
4,59,0,0
4,62,0,0
4,62,55,3
4,59,55,0
4,55,55,0
4,55,0,120
4,59,0,0
4,62,0,0
4,65,55,0
4,62,55,0
4,59,55,0
4,67,55,0
4,67,0,120
4,65,0,0
4,62,0,0
4,59,0,0
4,48,70,60
4,55,62,60
4,60,53,60
4,64,67,0
4,64,0,276
4,60,0,0
4,55,0,12
4,48,0,3
4,43,49,9
4,62,67,0
4,57,62,0
4,57,0,56
4,59,55,4
4,57,53,60
4,59,0,12
4,57,0,52
4,55,70,0
4,55,0,296
4,62,0,0
4,43,0,0
4,60,60,0
4,64,53,0
4,57,32,0
4,45,60,60
4,48,51,60
4,57,0,17
4,52,62,43
4,48,0,12
4,60,0,216
4,64,0,0
4,52,0,3
4,45,0,10
4,50,70,119
4,57,62,60
4,60,53,60
4,66,67,0
4,66,0,276
4,60,0,0
4,57,0,12
4,50,0,3
4,62,70,9
4,59,70,0
4,55,70,0
4,55,0,270
4,59,0,0
4,62,0,0
4,62,67,30
4,59,67,0
4,55,67,0
4,55,0,40
4,59,0,0
4,62,0,0
4,65,43,140
4,62,43,0
4,59,43,0
4,67,43,0
4,67,0,442
4,65,0,0
4,62,0,0
4,59,0,0
4,64,55,38
4,60,55,0
4,55,55,0
4,55,0,237
4,60,0,0
4,64,0,0
4,66,55,63
4,62,55,0
4,60,55,0
4,69,55,0
4,69,0,180
4,66,0,0
4,62,0,0
4,60,0,0
4,62,43,0
4,59,43,0
4,55,43,0
4,55,0,442
4,59,0,0
4,62,0,0
4,64,55,38
4,60,55,0
4,55,55,0
4,55,0,237
4,60,0,0
4,64,0,0
4,66,55,3
4,62,55,0
4,60,55,0
4,69,55,0
4,69,0,237
4,66,0,0
4,62,0,0
4,60,0,0
4,43,70,63
4,59,62,60
4,62,53,60
4,67,67,0
4,67,0,276
4,62,0,0
4,59,0,12
4,43,0,3
4,64,55,69
4,60,55,0
4,55,55,0
4,55,0,180
4,60,0,0
4,64,0,0
4,66,55,0
4,62,55,0
4,60,55,0
4,69,55,0
4,69,0,237
4,66,0,0
4,62,0,0
4,60,0,0
4,62,55,63
4,59,55,0
4,55,55,0
4,55,0,180
4,59,0,0
4,62,0,0
4,64,55,60
4,59,55,0
4,55,55,0
4,55,0,180
4,59,0,0
4,64,0,0
4,61,60,0
4,64,53,0
4,55,32,0
4,45,60,60
4,49,51,60
4,55,0,17
4,52,62,43
4,49,0,12
4,61,0,216
4,64,0,0
4,52,0,3
4,45,0,10
4,66,60,59
4,69,53,0
4,60,32,0
4,50,60,60
4,54,51,60
4,60,0,17
4,57,62,43
4,54,0,12
4,66,0,216
4,69,0,0
4,57,0,3
4,50,0,10
4,67,60,59
4,71,53,0
4,62,32,0
4,43,60,60
4,55,51,60
4,62,0,17
4,59,62,43
4,55,0,12
4,67,0,216
4,71,0,0
4,59,0,3
4,43,0,10
4,64,70,59
4,60,70,0
4,57,70,0
4,57,0,270
4,60,0,0
4,64,0,0
4,64,67,30
4,60,67,0
4,57,67,0
4,57,0,40
4,60,0,0
4,64,0,0
4,66,43,140
4,62,43,0
4,60,43,0
4,69,43,0
4,69,0,442
4,66,0,0
4,62,0,0
4,60,0,0
4,62,55,98
4,59,55,0
4,55,55,0
4,55,0,180
4,59,0,0
4,62,0,0
4,62,55,0
4,59,55,0
4,55,55,0
4,55,0,120
4,59,0,0
4,62,0,0
4,65,55,0
4,62,55,0
4,59,55,0
4,67,55,0
4,67,0,120
4,65,0,0
4,62,0,0
4,59,0,0
4,64,70,0
4,60,70,0
4,55,70,0
4,55,0,270
4,60,0,0
4,64,0,0
4,64,67,30
4,60,67,0
4,55,67,0
4,55,0,40
4,60,0,0
4,64,0,0
4,62,70,140
4,59,70,0
4,55,70,0
4,55,0,270
4,59,0,0
4,62,0,0
4,62,67,30
4,59,67,0
4,55,67,0
4,55,0,40
4,59,0,0
4,62,0,0
4,64,70,140
4,60,70,0
4,57,70,0
4,57,0,270
4,60,0,0
4,64,0,0
4,64,67,30
4,60,67,0
4,57,67,0
4,57,0,40
4,60,0,0
4,64,0,0
4,66,43,140
4,62,43,0
4,60,43,0
4,69,43,0
4,69,0,442
4,66,0,0
4,62,0,0
4,60,0,0
4,67,60,38
4,71,53,0
4,62,32,0
4,43,60,60
4,55,51,60
4,62,0,17
4,59,62,43
4,55,0,12
4,67,0,216
4,71,0,0
4,59,0,3
4,43,0,10
4,64,55,119
4,60,55,0
4,55,55,0
4,55,0,180
4,60,0,0
4,64,0,0
4,66,55,0
4,62,55,0
4,60,55,0
4,69,55,0
4,69,0,237
4,66,0,0
4,62,0,0
4,60,0,0
4,43,49,3
4,62,67,0
4,57,62,0
4,57,0,56
4,59,55,4
4,57,53,60
4,59,0,12
4,57,0,52
