track,note,velocity,time
1,99,101,1136
1,87,89,0
1,39,85,0
1,46,77,0
1,46,57,72
1,39,77,4
1,99,109,36
1,87,87,4
1,39,83,36
1,48,97,8
1,48,75,60
1,39,80,12
1,46,63,36
1,99,83,48
1,87,83,0
1,39,88,116
1,46,56,8
1,99,81,64
1,87,76,8
1,39,103,4
1,48,105,0
1,39,91,84
1,48,69,8
1,99,83,24
1,87,85,0
1,44,60,72
1,92,94,16
1,85,87,0
1,89,101,0
1,37,81,0
1,92,58,88
1,85,54,0
1,89,70,4
1,44,76,60
1,37,91,8
1,92,76,4
1,89,78,8
1,85,57,8
1,37,99,72
1,46,105,0
1,85,88,12
1,92,95,0
1,89,101,0
1,85,72,76
1,92,80,0
1,89,94,8
1,46,69,56
1,37,88,8
1,85,57,16
1,92,63,0
1,89,66,8
1,44,69,36
1,92,73,12
1,85,59,8
1,89,79,0
1,37,80,12
1,85,64,84
1,92,66,0
1,89,76,0
1,44,71,68
1,37,84,8
1,92,75,4
1,85,68,0
1,89,76,12
1,37,94,44
1,46,97,0
1,85,91,24
1,89,103,0
1,92,103,0
1,85,73,56
1,92,82,0
1,89,95,0
1,46,54,36
1,85,68,8
1,89,68,0
1,92,68,0
1,51,97,96
1,44,87,0
1,63,94,32
1,75,88,0
1,68,95,8
1,80,85,0
1,44,75,12
1,51,75,8
1,53,100,52
1,44,105,12
1,53,80,56
1,44,83,0
1,68,107,8
1,75,94,0
1,80,99,0
1,63,99,20
1,51,91,16
1,68,63,4
1,75,63,0
1,80,63,0
1,44,81,12
1,51,71,72
1,44,77,12
1,80,94,28
1,75,99,0
1,68,101,4
1,63,82,0
1,53,102,16
1,44,85,0
1,53,68,68
1,44,59,20
1,51,117,112
1,44,105,0
1,63,94,24
1,68,117,0
1,75,105,0
1,80,99,0
1,51,120,472
1,44,111,0
1,51,83,696
1,44,81,4
1,51,81,64
1,44,88,0
1,44,74,36
1,53,96,8
1,44,91,76
1,53,86,0
1,51,83,44
1,44,92,4
1,51,78,56
1,44,89,8
1,53,97,52
1,44,91,0
1,53,88,72
1,44,89,0
1,51,91,48
1,44,87,8
1,51,77,80
1,44,88,0
1,53,94,72
1,44,82,0
1,53,80,84
1,44,85,0
1,51,88,64
1,44,84,4
1,51,81,68
1,44,83,8
1,44,78,60
1,53,101,0
1,51,82,104
1,44,97,0
1,51,103,24
1,44,58,0
1,51,80,56
1,44,88,0
1,53,90,64
1,44,81,0
1,53,80,72
1,44,91,0
1,51,89,60
1,44,75,4
1,51,80,80
1,44,78,0
1,53,90,72
1,44,85,0
1,51,79,92
1,44,89,0
1,51,68,52
1,44,71,0
1,51,88,88
1,44,85,0
1,53,105,72
1,44,92,0
1,53,83,68
1,44,94,0
1,51,94,48
1,44,84,0
1,44,87,84
1,51,81,0
1,53,104,72
1,44,75,0
1,44,85,104
1,53,77,0
1,37,107,96
1,44,58,0
1,37,101,84
1,44,89,0
1,46,92,44
1,37,99,8
1,37,92,52
1,46,97,0
1,44,87,44
1,37,91,0
1,44,70,72
1,37,83,4
1,46,82,68
1,37,91,0
1,37,99,76
1,46,72,0
1,44,83,64
1,37,88,4
1,44,78,84
1,37,94,0
1,37,95,72
1,46,84,0
1,46,77,84
1,37,91,0
1,44,87,56
1,37,95,4
1,44,83,72
1,37,94,8
1,46,89,56
1,37,97,8
1,37,71,116
1,46,70,4
1,51,77,76
1,44,66,4
1,51,78,108
1,44,89,0
1,53,93,64
1,44,94,0
1,53,86,56
1,44,83,0
1,51,92,64
1,44,83,0
1,44,88,76
1,51,84,0
1,53,100,52
1,44,84,8
1,53,82,64
1,44,84,8
1,51,77,64
1,44,85,4
1,51,82,72
1,44,89,0
1,53,90,64
1,44,81,0
1,44,84,76
1,53,87,0
1,51,95,68
1,44,87,0
1,51,81,76
1,44,84,0
1,53,100,56
1,44,91,4
1,44,81,136
1,46,68,100
1,39,95,0
1,39,101,84
1,46,78,8
1,48,87,52
1,39,99,4
1,39,91,88
1,48,84,8
1,46,95,40
1,39,101,8
1,46,85,80
1,39,103,0
1,48,94,48
1,39,101,8
1,39,89,84
1,48,83,0
1,44,69,68
1,37,97,0
1,37,95,92
1,44,83,0
1,46,88,40
1,37,81,0
1,46,73,80
1,37,105,0
1,44,111,48
1,37,97,8
1,44,80,68
1,37,103,0
1,46,103,44
1,37,84,0
1,37,91,104
1,46,77,0
1,51,97,80
1,44,88,0
1,44,88,64
1,51,81,0
1,53,89,56
1,44,95,12
1,44,83,40
1,53,83,0
1,51,97,32
1,44,81,8
1,51,87,80
1,44,89,0
1,53,95,64
1,44,78,0
1,44,92,124
1,53,85,0
1,51,89,28
1,44,83,8
1,51,111,472
1,44,101,0
1,51,83,724
1,44,81,4
1,51,81,64
1,44,88,0
1,44,74,36
1,53,96,8
1,44,91,76
1,53,86,0
1,51,83,44
1,44,92,4
1,51,78,56
1,44,89,8
1,53,97,52
1,44,91,0
1,53,88,72
1,44,89,0
1,51,91,48
1,44,87,8
1,51,77,80
1,44,88,0
1,53,94,72
1,44,82,0
1,53,80,84
1,44,85,0
1,51,88,64
1,44,84,4
1,51,81,68
1,44,83,8
1,44,78,60
1,53,101,0
1,51,82,104
1,44,97,0
1,51,103,24
1,44,58,0
1,51,80,56
1,44,88,0
1,53,90,64
1,44,81,0
1,53,80,72
1,44,91,0
1,51,89,60
1,44,75,4
1,51,80,80
1,44,78,0
1,53,90,72
1,44,85,0
1,51,79,92
1,44,89,0
1,51,68,52
1,44,71,0
1,51,88,88
1,44,85,0
1,53,105,72
1,44,92,0
1,53,83,68
1,44,94,0
1,51,94,48
1,44,84,0
1,44,87,84
1,51,81,0
1,53,104,72
1,44,75,0
1,44,85,104
1,53,77,0
1,37,107,96
1,44,58,0
1,37,101,84
1,44,89,0
1,46,92,44
1,37,99,8
1,37,92,52
1,46,97,0
1,44,87,44
1,37,91,0
1,44,70,72
1,37,83,4
1,46,82,68
1,37,91,0
1,37,99,76
1,46,72,0
1,44,83,64
1,37,88,4
1,44,78,84
1,37,94,0
1,37,95,72
1,46,84,0
1,46,77,84
1,37,91,0
1,44,87,56
1,37,95,4
1,44,83,72
1,37,94,8
1,46,89,56
1,37,97,8
1,37,71,116
1,46,70,4
1,51,77,76
1,44,66,4
1,51,78,108
1,44,89,0
1,53,93,64
1,44,94,0
1,53,86,56
1,44,83,0
1,51,92,64
1,44,83,0
1,44,88,76
1,51,84,0
1,53,100,52
1,44,84,8
1,53,82,64
1,44,84,8
1,51,77,64
1,44,85,4
1,51,82,72
1,44,89,0
1,53,90,64
1,44,81,0
1,44,84,76
1,53,87,0
1,51,95,68
1,44,87,0
1,51,81,76
1,44,84,0
1,53,100,56
1,44,91,4
1,44,81,136
1,46,68,100
1,39,95,0
1,39,101,84
1,46,78,8
1,48,87,52
1,39,99,4
1,39,91,88
1,48,84,8
1,46,95,40
1,39,101,8
1,46,85,80
1,39,103,0
1,48,94,48
1,39,101,8
1,39,89,84
1,48,83,0
1,44,69,68
1,37,97,0
1,37,95,92
1,44,83,0
1,46,88,40
1,37,81,0
1,46,73,80
1,37,105,0
1,44,111,48
1,37,97,8
1,44,80,68
1,37,103,0
1,46,103,44
1,37,84,0
1,37,91,104
1,46,77,0
1,51,97,80
1,44,88,0
1,44,88,64
1,51,81,0
1,53,89,56
1,44,95,12
1,44,83,40
1,53,83,0
1,51,97,32
1,44,81,8
1,51,87,80
1,44,89,0
1,53,95,64
1,44,78,0
1,44,92,124
1,53,85,0
1,51,89,28
1,44,83,8
1,51,111,472
1,44,101,0
1,75,92,724
1,44,88,0
1,51,92,0
1,80,89,4
1,72,85,0
1,75,70,76
1,80,71,0
1,72,68,0
1,51,73,76
1,44,77,0
1,75,70,0
1,80,72,0
1,72,64,0
1,53,100,56
1,44,78,0
1,75,88,0
1,72,80,0
1,80,87,0
1,75,74,68
1,80,68,0
1,72,72,4
1,75,73,64
1,80,71,0
1,72,72,4
1,44,88,4
1,53,86,0
1,75,77,48
1,72,72,4
1,80,70,0
1,51,78,0
1,44,77,4
1,75,66,76
1,72,69,0
1,80,66,0
1,75,73,48
1,80,71,4
1,72,70,0
1,51,74,0
1,44,91,0
1,75,94,72
1,80,91,0
1,72,85,0
1,44,85,0
1,53,100,0
1,75,88,72
1,80,83,0
1,72,78,4
1,80,77,72
1,75,74,0
1,72,72,0
1,53,75,8
1,44,76,0
1,51,71,60
1,75,92,4
1,44,77,0
1,80,89,4
1,72,85,0
1,75,70,76
1,80,71,0
1,72,68,0
1,75,70,32
1,80,72,0
1,72,64,0
1,51,76,8
1,44,83,0
1,75,88,56
1,72,80,0
1,80,87,0
1,44,81,0
1,53,98,4
1,75,74,68
1,80,68,0
1,72,72,4
1,75,73,64
1,80,71,0
1,44,76,0
1,53,76,0
1,72,72,4
1,51,60,56
1,75,77,0
1,72,72,4
1,80,70,0
1,44,66,4
1,75,66,76
1,72,69,0
1,80,66,0
1,75,73,52
1,80,71,4
1,72,70,0
1,51,64,0
1,44,76,0
1,75,94,68
1,80,91,0
1,72,85,0
1,44,81,0
1,53,96,0
1,75,88,72
1,80,83,0
1,72,78,4
1,80,77,72
1,75,74,0
1,72,72,0
1,44,84,8
1,53,77,0
1,75,92,52
1,80,89,4
1,72,85,0
1,51,66,0
1,44,73,0
1,75,70,76
1,80,71,0
1,72,68,0
1,51,74,76
1,75,70,0
1,80,72,0
1,72,64,0
1,44,81,0
1,53,90,64
1,75,88,0
1,72,80,0
1,80,87,0
1,44,92,4
1,75,74,68
1,80,68,0
1,72,72,4
1,44,87,76
1,75,73,0
1,80,71,0
1,72,72,4
1,53,76,0
1,51,68,60
1,44,77,0
1,75,77,0
1,72,72,4
1,80,70,0
1,75,66,76
1,72,69,0
1,80,66,0
1,51,88,64
1,75,73,4
1,80,71,4
1,72,70,0
1,44,88,0
1,53,91,72
1,44,81,0
1,75,94,4
1,80,91,0
1,72,85,0
1,75,88,72
1,80,84,0
1,72,85,4
1,80,78,64
1,75,69,0
1,72,76,0
1,53,79,8
1,44,79,0
1,51,79,52
1,44,73,0
1,75,92,4
1,80,89,4
1,72,85,0
1,75,70,76
1,80,71,0
1,72,68,0
1,75,70,56
1,80,72,0
1,72,64,0
1,51,78,8
1,44,81,0
1,75,88,76
1,72,80,0
1,80,87,0
1,53,86,0
1,44,87,8
1,75,74,68
1,80,68,0
1,72,72,4
1,75,73,76
1,80,71,0
1,53,78,0
1,44,91,0
1,72,72,4
1,75,77,44
1,51,71,0
1,72,72,4
1,80,70,0
1,44,77,0
1,75,66,76
1,72,69,0
1,80,66,0
1,51,78,76
1,75,73,4
1,80,71,4
1,72,70,0
1,44,81,0
1,75,94,88
1,80,91,0
1,72,85,0
1,53,91,0
1,44,88,0
1,75,88,16
1,80,83,0
1,72,78,4
1,53,80,72
1,44,78,0
1,80,77,0
1,75,74,0
1,72,72,0
1,92,105,88
1,85,107,0
1,39,66,16
1,44,78,84
1,89,104,4
1,85,92,0
1,37,105,0
1,46,89,0
1,37,94,40
1,92,97,44
1,85,92,8
1,37,87,0
1,46,88,8
1,44,87,32
1,37,82,8
1,44,72,72
1,37,91,20
1,37,91,68
1,46,94,0
1,85,89,20
1,89,101,0
1,46,71,40
1,37,91,8
1,44,77,52
1,37,95,4
1,92,94,12
1,85,97,0
1,44,77,36
1,37,91,8
1,46,99,60
1,37,99,0
1,89,104,36
1,85,99,0
1,46,87,36
1,37,95,0
1,44,70,48
1,37,80,8
1,92,105,24
1,85,105,0
1,44,73,60
1,37,88,0
1,85,101,8
1,89,108,4
1,46,97,24
1,37,89,8
1,37,73,56
1,46,78,4
1,44,88,80
1,51,92,0
1,80,82,0
1,87,92,0
1,84,94,0
1,51,78,88
1,44,89,0
1,87,61,4
1,84,61,0
1,80,61,0
1,89,97,56
1,80,88,0
1,85,107,0
1,53,98,16
1,44,94,0
1,89,80,68
1,80,67,0
1,85,71,0
1,44,91,0
1,53,83,12
1,51,87,32
1,80,55,16
1,87,59,0
1,44,78,0
1,84,71,4
1,87,80,56
1,80,61,4
1,84,61,0
1,51,74,8
1,44,83,8
1,80,89,48
1,85,103,0
1,89,100,4
1,44,83,4
1,53,102,12
1,80,72,68
1,89,85,0
1,85,77,0
1,53,77,0
1,44,88,0
1,51,71,24
1,87,68,4
1,80,61,0
1,84,78,0
1,44,76,16
1,51,83,68
1,87,76,12
1,44,85,0
1,80,61,4
1,84,61,0
1,80,87,68
1,85,109,0
1,89,102,0
1,44,83,0
1,53,101,4
1,44,85,64
1,89,80,4
1,85,76,0
1,80,71,0
1,53,82,0
1,51,77,32
1,87,62,4
1,84,75,0
1,80,36,0
1,44,68,8
1,51,87,56
1,44,89,12
1,80,61,24
1,84,61,0
1,87,60,4
1,80,84,84
1,44,85,4
1,53,97,0
1,85,107,4
1,89,100,0
1,44,91,64
1,53,81,0
1,85,80,24
1,80,67,0
1,89,72,0
1,46,91,88
1,39,97,0
1,63,63,0
1,67,76,0
1,61,60,0
1,61,56,64
1,46,63,0
1,39,83,0
1,63,53,0
1,67,50,8
1,67,78,56
1,48,101,0
1,39,91,0
1,61,69,8
1,63,69,0
1,67,76,60
1,63,61,0
1,61,63,0
1,39,99,0
1,48,84,0
1,46,91,40
1,39,89,0
1,63,56,8
1,67,69,0
1,61,60,0
1,46,68,52
1,39,91,4
1,63,60,0
1,61,64,0
1,67,48,0
1,39,99,64
1,48,104,0
1,63,77,8
1,67,87,0
1,61,77,0
1,63,64,64
1,61,64,0
1,48,79,0
1,39,92,0
1,67,59,0
1,61,66,68
1,44,73,0
1,37,92,0
1,59,61,0
1,65,72,4
1,61,66,72
1,65,71,0
1,59,62,0
1,44,71,4
1,37,77,0
1,61,85,60
1,46,87,4
1,37,92,0
1,65,81,0
1,59,75,0
1,46,77,52
1,37,83,0
1,65,78,8
1,61,77,0
1,59,62,0
1,65,76,36
1,61,68,0
1,44,56,4
1,59,64,0
1,44,78,84
1,37,94,0
1,61,72,0
1,65,76,0
1,59,62,0
1,46,94,76
1,37,97,0
1,61,91,0
1,65,91,0
1,59,80,0
1,65,80,112
1,61,64,0
1,59,71,0
1,46,73,0
1,37,65,0
1,51,81,68
1,44,84,0
1,63,50,4
1,60,63,4
1,44,88,76
1,51,78,0
1,60,68,8
1,56,41,0
1,53,98,68
1,44,97,0
1,56,85,8
1,63,77,0
1,60,90,0
1,56,56,28
1,44,87,4
1,53,80,0
1,63,66,0
1,60,74,0
1,51,94,36
1,44,80,0
1,56,59,0
1,63,72,0
1,60,81,0
1,51,71,72
1,44,82,0
1,63,69,0
1,60,70,0
1,56,34,0
1,53,100,72
1,44,84,0
1,56,81,0
1,63,81,0
1,60,86,0
1,53,83,112
1,44,89,0
1,51,105,60
1,56,103,0
1,63,94,0
1,60,105,0
1,44,103,4
1,63,94,452
1,56,111,0
1,44,101,0
1,51,120,0
1,60,96,0
1,73,103,148
1,70,111,0
1,75,101,8
1,67,122,0
1,63,120,0
1,46,95,4
1,39,103,0
1,87,94,16
1,92,101,0
1,51,89,0
1,44,68,0
1,87,72,24
1,92,82,4
1,44,85,4
1,51,72,0
1,51,75,16
1,87,85,4
1,92,94,0
1,44,80,0
1,51,101,12
1,44,83,0
1,87,81,12
1,92,92,0
1,44,80,16
1,51,74,0
1,87,80,8
1,92,83,0
1,51,92,12
1,44,95,4
1,87,84,4
1,92,97,0
1,44,111,16
1,51,117,0
1,87,109,4
1,92,117,12
1,51,107,664
1,44,85,0
1,87,97,8
1,92,103,0
1,92,87,16
1,87,77,0
1,44,85,0
1,51,87,0
1,51,88,12
1,44,94,4
1,87,87,4
1,92,94,0
1,87,87,8
1,92,91,0
1,44,92,4
1,51,103,0
1,87,88,20
1,92,94,0
1,44,80,0
1,51,87,0
1,51,87,8
1,44,87,0
1,87,76,4
1,92,85,0
1,44,111,16
1,51,107,0
1,87,99,4
1,92,107,12
1,51,103,664
1,44,91,0
1,92,84,8
1,87,74,0
1,99,76,0
