track,note,velocity,time
4,65,102,912
4,57,108,1
4,60,116,1
4,41,111,0
4,41,0,11
4,41,0,0
4,41,0,0
4,41,0,0
4,41,126,0
4,41,0,208
4,60,0,26
4,57,0,10
4,65,0,10
4,41,0,123
4,29,122,103
4,41,104,5
4,65,0,83
4,65,0,0
4,65,0,0
4,65,0,0
4,65,80,0
4,57,0,0
4,57,0,0
4,57,0,0
4,57,0,0
4,57,88,0
4,60,0,1
4,60,0,0
4,60,0,0
4,60,0,0
4,60,92,0
4,29,0,2
4,57,0,14
4,60,0,1
4,41,0,5
4,65,0,1
4,33,123,8
4,45,88,6
4,65,0,76
4,65,0,0
4,65,0,0
4,65,0,0
4,65,83,0
4,60,0,1
4,60,0,0
4,60,0,0
4,60,0,0
4,60,84,0
4,57,0,1
4,57,0,0
4,57,0,0
4,57,0,0
4,57,77,0
4,33,0,5
4,60,0,10
4,57,0,0
4,65,0,3
4,45,0,15
4,36,110,3
4,48,97,4
4,65,0,77
4,65,0,0
4,65,0,0
4,65,0,0
4,65,75,0
4,60,0,2
4,60,0,0
4,60,0,0
4,60,0,0
4,60,81,0
4,57,0,0
4,57,0,0
4,57,0,0
4,57,0,0
4,57,79,0
4,36,0,8
4,60,0,10
4,57,0,1
4,65,0,4
4,48,0,3
4,33,120,11
4,45,90,1
4,65,70,76
4,57,71,3
4,60,82,0
4,33,0,3
4,45,0,5
4,60,0,7
4,57,0,1
4,65,0,3
4,41,107,18
4,29,116,3
4,65,68,79
4,60,0,2
4,60,0,0
4,60,0,0
4,60,0,0
4,60,83,0
4,57,0,1
4,57,0,0
4,57,0,0
4,57,0,0
4,57,73,0
4,57,0,17
4,60,0,0
4,65,0,6
4,29,0,6
4,41,0,0
4,33,123,9
4,45,89,6
4,65,67,74
4,60,79,1
4,57,0,1
4,57,0,0
4,57,0,0
4,57,0,0
4,57,72,0
4,33,0,14
4,60,0,2
4,57,0,2
4,65,0,3
4,36,111,17
4,45,0,2
4,48,99,3
4,65,0,74
4,65,0,0
4,65,0,0
4,65,0,0
4,65,56,0
4,60,0,2
4,60,0,0
4,60,0,0
4,60,0,0
4,60,83,0
4,57,0,0
4,57,0,0
4,57,0,0
4,57,0,0
4,57,69,0
4,36,0,15
4,48,0,4
4,57,0,7
4,60,0,1
4,65,0,4
4,33,123,8
4,45,86,1
4,45,0,35
4,65,0,42
4,65,0,0
4,65,0,0
4,65,0,0
4,65,48,0
4,60,79,0
4,57,0,2
4,57,0,0
4,57,0,0
4,57,0,0
4,57,61,0
4,33,0,15
4,65,0,1
4,60,0,5
4,57,0,5
4,36,77,12
4,36,0,2
4,36,0,0
4,36,0,0
4,36,0,0
4,36,117,0
4,64,61,79
4,55,65,2
4,58,75,1
4,60,66,2
4,60,0,12
4,58,0,3
4,55,0,5
4,64,0,5
4,36,0,5
4,40,113,6
4,36,0,6
4,40,0,4
4,40,0,0
4,40,0,0
4,40,0,0
4,40,84,0
4,40,0,67
4,64,55,0
4,55,55,3
4,58,70,0
4,60,71,1
4,58,0,18
4,55,0,4
4,60,0,1
4,40,0,3
4,64,0,3
4,43,110,10
4,43,0,5
4,43,0,0
4,43,0,0
4,43,0,0
4,43,78,0
4,64,33,69
4,60,78,4
4,58,71,0
4,55,0,2
4,55,0,0
4,55,0,0
4,55,0,0
4,55,49,0
4,58,0,18
4,55,0,3
4,60,0,1
4,64,0,7
4,43,0,3
4,43,0,4
4,40,111,4
4,40,0,2
4,40,0,0
4,40,0,0
4,40,0,0
4,40,92,0
4,64,24,69
4,40,0,2
4,58,69,0
4,60,73,2
4,55,49,1
4,58,0,18
4,60,0,1
4,55,0,1
4,64,0,5
4,40,0,3
4,36,113,16
4,36,0,0
4,36,0,0
4,36,0,0
4,36,0,0
4,36,77,0
4,64,29,78
4,58,72,1
4,55,55,1
4,60,78,0
4,58,0,21
4,60,0,2
4,36,0,1
4,55,0,0
4,36,0,2
4,64,0,1
4,40,116,13
4,40,0,2
4,40,0,0
4,40,0,0
4,40,0,0
4,40,90,0
4,64,21,78
4,58,0,5
4,58,0,0
4,58,0,0
4,58,0,0
4,58,66,0
4,55,0,1
4,55,0,0
4,55,0,0
4,55,0,0
4,55,57,0
4,60,0,0
4,60,0,0
4,60,0,0
4,60,0,0
4,60,73,0
4,40,0,14
4,58,0,3
4,40,0,2
4,60,0,1
4,55,0,1
4,64,0,4
4,43,66,5
4,43,0,4
4,43,0,0
4,43,0,0
4,43,0,0
4,43,108,0
4,43,0,81
4,64,0,2
4,64,0,0
4,64,0,0
4,64,0,0
4,64,5,0
4,58,76,0
4,60,0,1
4,60,0,0
4,60,0,0
4,60,0,0
4,60,83,0
4,55,0,0
4,55,0,0
4,55,0,0
4,55,0,0
4,55,73,0
4,58,0,24
4,43,0,2
4,55,0,1
4,60,0,2
4,40,88,1
4,64,0,5
4,40,0,1
4,40,0,0
4,40,0,0
4,40,0,0
4,40,59,0
4,40,0,0
4,40,110,0
4,40,0,38
4,40,0,1
4,40,59,7
4,40,0,0
4,64,32,33
4,55,72,2
4,58,64,2
4,60,77,2
4,58,0,18
4,60,0,1
4,64,0,3
4,55,0,2
4,31,120,11
4,43,53,8
4,55,73,77
4,58,77,2
4,62,69,1
4,58,0,17
4,55,0,1
4,31,0,5
4,62,0,1
4,34,122,8
4,46,85,3
4,43,0,2
4,58,0,80
4,58,0,0
4,58,0,0
4,58,0,0
4,58,77,0
4,62,0,0
4,62,0,0
4,62,0,0
4,62,0,0
4,62,69,0
4,55,0,2
4,55,0,0
4,55,0,0
4,55,0,0
4,55,60,0
4,58,0,19
4,55,0,2
4,34,0,1
4,62,0,3
4,38,111,8
4,46,0,3
4,50,91,2
4,58,0,79
4,58,0,0
4,58,0,0
4,58,0,0
4,58,72,0
4,55,0,0
4,55,0,0
4,55,0,0
4,55,0,0
4,55,55,0
4,62,0,1
4,62,0,0
4,62,0,0
4,62,0,0
4,62,57,0
4,38,0,22
4,58,0,2
4,55,0,1
4,62,0,4
4,50,0,1
4,34,122,5
4,46,82,2
4,46,0,38
4,62,76,33
4,58,80,1
4,55,62,2
4,34,0,15
4,55,0,9
4,58,0,0
4,62,0,4
4,36,90,14
4,36,0,2
4,36,0,0
4,36,0,0
4,36,0,0
4,36,117,0
4,55,63,76
4,64,73,0
4,58,77,0
4,60,86,1
4,58,0,19
4,60,0,1
4,55,0,3
4,64,0,4
4,36,0,3
4,36,0,6
4,40,113,7
4,40,0,19
4,40,0,0
4,40,0,0
4,40,0,0
4,40,28,0
4,40,0,17
4,55,0,47
4,55,0,0
4,55,0,0
4,55,0,0
4,55,64,0
4,64,0,1
4,64,0,0
4,64,0,0
4,64,0,0
4,64,48,0
4,58,76,0
4,60,0,3
4,60,0,0
4,60,0,0
4,60,0,0
4,60,88,0
4,58,0,17
4,40,0,1
4,55,0,1
4,60,0,1
4,64,0,6
4,43,111,7
4,43,0,6
4,43,0,0
4,43,0,0
4,43,0,0
4,43,84,0
4,43,0,63
4,58,61,9
4,64,10,2
4,60,69,1
4,55,39,0
4,58,0,21
4,60,0,4
4,55,0,2
4,43,0,1
4,64,0,7
4,40,111,4
4,40,0,17
4,40,0,0
4,40,0,0
4,40,0,0
4,40,68,0
4,40,0,21
4,55,62,36
4,60,86,3
4,64,33,2
4,64,0,13
4,55,0,5
4,60,0,2
4,40,0,7
4,41,106,14
4,41,0,6
4,41,0,0
4,41,0,0
4,41,0,0
4,41,85,0
4,65,64,74
4,57,65,1
4,60,80,1
4,41,0,12
4,60,0,4
4,57,0,2
4,65,0,6
4,41,0,13
4,45,92,0
4,38,113,1
4,65,63,75
4,57,62,2
4,60,73,1
4,60,0,14
4,57,0,2
4,45,0,2
4,65,0,5
4,38,0,11
4,48,83,7
4,36,108,1
4,48,0,68
4,65,65,6
4,57,51,4
4,57,0,13
4,65,0,5
4,36,0,12
4,33,127,12
4,65,0,81
4,65,0,0
4,65,0,0
4,65,0,0
4,65,79,0
4,60,0,0
4,60,0,0
4,60,0,0
4,60,0,0
4,60,84,0
4,57,0,1
4,57,0,0
4,57,0,0
4,57,0,0
4,57,73,0
4,57,0,15
4,60,0,0
4,65,0,2
4,33,0,15
4,29,126,6
4,65,117,1
4,57,108,2
4,60,117,0
4,60,0,17
4,57,0,2
4,65,0,6
4,29,0,17
4,41,102,433
4,29,125,2
4,65,86,81
4,60,83,1
4,57,72,1
4,57,0,12
4,60,0,1
4,65,0,4
4,41,0,1
4,29,0,6
4,45,96,12
4,33,125,1
4,65,76,79
4,57,71,3
4,60,85,0
4,60,0,17
4,57,0,1
4,65,0,5
4,33,0,2
4,45,0,2
4,48,104,9
4,36,114,2
4,65,0,79
4,65,0,0
4,65,0,0
4,65,0,0
4,65,76,0
4,60,0,3
4,60,0,0
4,60,0,0
4,60,0,0
4,60,85,0
4,57,0,0
4,57,0,0
4,57,0,0
4,57,0,0
4,57,73,0
4,57,0,16
4,60,0,0
4,48,0,1
4,36,0,0
4,65,0,5
4,45,91,15
4,33,119,1
4,45,0,58
4,65,79,15
4,60,84,2
4,57,67,1
4,57,0,15
4,60,0,1
4,65,0,3
4,33,0,5
4,41,102,15
4,29,120,5
4,65,79,73
4,60,83,2
4,57,73,1
4,57,0,18
4,60,0,1
4,65,0,5
4,29,0,2
4,41,0,2
4,45,91,15
4,33,123,1
4,60,74,81
4,65,66,0
4,57,64,1
4,57,0,17
4,33,0,0
4,60,0,1
4,65,0,3
4,45,0,9
4,36,111,8
4,48,90,1
4,65,0,78
4,65,0,0
4,65,0,0
4,65,0,0
4,65,73,0
4,60,0,2
4,60,0,0
4,60,0,0
4,60,0,0
4,60,89,0
4,57,0,1
4,57,0,0
4,57,0,0
4,57,0,0
4,57,68,0
4,48,0,13
4,60,0,6
4,57,0,1
4,36,0,4
4,45,91,1
4,65,0,1
4,33,126,12
4,45,0,24
4,65,70,55
4,60,81,1
4,57,70,1
4,33,0,6
4,65,0,9
4,60,0,2
4,57,0,5
4,36,98,11
4,36,0,6
4,36,0,0
4,36,0,0
4,36,0,0
4,36,116,0
4,64,62,76
4,55,65,0
4,58,71,1
4,60,72,2
4,36,0,16
4,58,0,2
4,60,0,0
4,55,0,1
4,64,0,4
4,36,0,15
4,40,113,3
4,40,0,0
4,40,0,0
4,40,0,0
4,40,0,0
4,40,84,0
4,64,56,73
4,58,78,3
4,55,61,0
4,60,88,1
4,58,0,20
4,55,0,2
4,60,0,0
4,40,0,1
4,64,0,3
4,40,0,6
4,43,90,7
4,43,0,4
4,43,0,0
4,43,0,0
4,43,0,0
4,43,110,0
4,64,61,76
4,55,62,3
4,58,75,0
4,60,83,2
4,58,0,17
4,55,0,2
4,60,0,0
4,64,0,4
4,43,0,1
4,43,0,7
4,40,110,8
4,40,0,0
4,40,0,0
4,40,0,0
4,40,0,0
4,40,90,0
4,64,73,74
4,58,76,3
4,55,63,1
4,60,83,1
4,40,0,3
4,58,0,15
4,60,0,0
4,55,0,1
4,64,0,2
4,40,0,17
4,36,104,3
4,36,0,3
4,36,0,0
4,36,0,0
4,36,0,0
4,36,94,0
4,36,0,63
4,64,62,16
4,58,72,2
4,55,57,1
4,60,83,1
4,55,0,16
4,58,0,0
4,60,0,1
4,36,0,0
4,64,0,3
4,40,110,14
4,40,0,6
4,40,0,0
4,40,0,0
4,40,0,0
4,40,91,0
4,64,38,72
4,58,75,2
4,55,0,3
4,55,0,0
4,55,0,0
4,55,0,0
4,55,50,0
4,60,0,0
4,60,0,0
4,60,0,0
4,60,0,0
4,60,80,0
4,55,0,18
4,58,0,0
4,60,0,2
4,64,0,4
4,40,0,5
4,40,0,4
4,43,113,4
4,43,0,1
4,43,0,0
4,43,0,0
4,43,0,0
4,43,92,0
4,64,0,79
4,64,0,0
4,64,0,0
4,64,0,0
4,64,42,0
4,58,75,1
4,55,0,2
4,55,0,0
4,55,0,0
4,55,0,0
4,55,50,0
4,60,0,0
4,60,0,0
4,60,0,0
4,60,0,0
4,60,80,0
4,43,0,1
4,43,0,19
4,58,0,5
4,55,0,3
4,60,0,0
4,40,103,9
4,64,0,1
4,40,0,8
4,40,0,0
4,40,0,0
4,40,0,0
4,40,94,0
4,40,0,48
4,64,51,19
4,55,63,3
4,58,68,4
4,60,83,0
4,58,0,22
4,64,0,2
4,40,0,1
4,55,0,1
4,60,0,1
4,31,117,10
4,43,73,9
4,62,74,74
4,55,66,1
4,58,78,1
4,58,0,19
4,31,0,1
4,55,0,1
4,62,0,7
4,34,124,7
4,46,88,2
4,43,0,4
4,62,0,77
4,62,0,0
4,62,0,0
4,62,0,0
4,62,69,0
4,58,0,1
4,58,0,0
4,58,0,0
4,58,0,0
4,58,84,0
4,55,0,1
4,55,0,0
4,55,0,0
4,55,0,0
4,55,64,0
4,58,0,21
4,34,0,0
4,55,0,1
4,62,0,6
4,46,0,7
4,50,99,0
4,38,113,0
4,62,0,85
4,62,0,0
4,62,0,0
4,62,0,0
4,62,69,0
4,58,0,0
4,58,0,0
4,58,0,0
4,58,0,0
4,58,84,0
4,55,0,1
4,55,0,0
4,55,0,0
4,55,0,0
4,55,65,0
4,38,0,19
4,58,0,7
4,55,0,1
4,62,0,5
4,34,118,2
4,50,0,5
4,46,95,2
4,46,0,37
4,62,67,36
4,58,80,1
4,55,51,1
4,34,0,19
4,55,0,7
4,58,0,1
4,62,0,3
4,36,110,8
4,36,0,7
4,36,0,0
4,36,0,0
4,36,0,0
4,36,104,0
4,64,74,70
4,58,63,2
4,55,48,2
4,60,83,0
4,58,0,14
4,55,0,4
4,60,0,2
4,64,0,3
4,36,0,7
4,36,0,2
4,40,108,7
4,40,0,4
4,40,0,0
4,40,0,0
4,40,0,0
4,40,96,0
4,64,0,74
4,64,0,0
4,64,0,0
4,64,0,0
4,64,44,0
4,58,0,5
4,58,0,0
4,58,0,0
4,58,0,0
4,58,67,0
4,60,0,0
4,60,0,0
4,60,0,0
4,60,0,0
4,60,80,0
4,55,0,0
4,55,0,0
4,55,0,0
4,55,0,0
4,55,48,0
4,58,0,19
4,60,0,2
4,55,0,1
4,64,0,2
4,40,0,3
4,40,0,6
4,43,91,3
4,43,0,1
4,43,0,0
4,43,0,0
4,43,0,0
4,43,94,0
4,64,30,73
4,58,68,4
4,55,40,2
4,60,73,0
4,43,0,17
4,58,0,4
4,60,0,3
4,55,0,1
4,43,0,8
4,64,0,3
4,40,107,5
4,40,0,7
4,40,0,0
4,40,0,0
4,40,0,0
4,40,90,0
4,40,0,35
4,60,89,38
4,55,48,0
4,64,39,0
4,64,0,17
4,55,0,1
4,60,0,8
4,40,0,7
4,41,107,7
4,41,0,0
4,41,0,0
4,41,0,0
4,41,0,0
4,41,97,0
4,65,99,81
4,57,106,1
4,60,108,1
4,41,0,6
4,41,0,15
4,57,0,11
4,60,0,5
4,36,107,0
4,65,0,4
4,45,103,9
4,45,0,54
4,60,86,15
4,57,75,2
4,65,73,0
4,65,0,18
4,60,0,4
4,57,0,5
4,36,0,3
4,34,122,6
4,46,114,6
4,46,0,37
4,62,86,33
4,58,76,1
4,53,38,5
4,34,0,15
4,53,0,6
4,58,0,0
4,62,0,4
4,46,118,9
4,34,114,4
4,46,0,33
4,62,85,48
4,53,69,1
4,58,72,0
4,34,0,18
4,58,0,6
4,53,0,0
4,62,0,2
4,29,120,12
4,41,114,2
4,41,0,5
4,41,107,0
4,41,0,5
4,41,99,0
4,41,0,38
4,41,107,1
4,41,0,0
4,41,114,13
4,41,0,0
4,29,0,12
4,60,91,6
4,53,57,3
4,60,0,1
4,60,78,0
4,53,0,1
4,57,62,0
4,53,76,0
4,57,0,1
4,57,82,0
4,57,0,19
4,53,0,1
4,57,62,1
4,57,0,0
4,53,57,3
4,53,0,0
4,60,0,2
4,60,91,1
4,60,0,0
4,29,126,5
4,41,103,2
4,41,0,2
4,41,106,0
4,41,0,72
4,60,78,0
4,53,78,1
4,57,78,2
4,41,103,11
4,41,0,0
4,53,0,7
4,57,0,0
