track,note,velocity,time
0,48,125,526
0,48,0,64
0,50,127,1
0,50,0,128
0,52,127,0
0,53,105,65
0,57,93,0
0,62,91,0
0,38,98,2
0,50,127,2
0,52,0,1
0,50,90,3
0,50,0,183
0,50,86,1
0,38,99,2
0,57,127,0
0,60,111,0
0,65,120,1
0,38,0,3
0,65,0,107
0,60,0,11
0,57,0,3
0,60,68,2
0,65,102,0
0,38,111,63
0,50,0,1
0,50,127,1
0,57,127,1
0,60,0,0
0,38,0,1
0,60,127,0
0,65,0,1
0,65,127,1
0,50,0,57
0,60,0,2
0,65,0,2
0,65,78,64
0,57,0,1
0,60,127,0
0,50,82,1
0,57,111,0
0,57,0,49
0,53,0,3
0,59,95,3
0,38,0,1
0,50,0,0
0,38,127,2
0,43,127,1
0,50,0,0
0,50,79,0
0,55,102,0
0,65,0,0
0,43,88,1
0,43,91,0
0,60,0,0
0,57,0,1
0,38,0,1
0,50,0,58
0,38,89,129
0,38,0,4
0,50,127,0
0,55,127,1
0,59,127,1
0,65,127,1
0,65,0,101
0,59,0,12
0,55,0,7
0,65,93,2
0,59,126,2
0,55,50,1
0,50,0,1
0,50,63,0
0,43,0,55
0,38,89,4
0,50,0,2
0,38,0,2
0,43,0,0
0,50,127,0
0,55,0,0
0,45,74,1
0,55,127,0
0,59,0,0
0,65,0,0
0,59,127,1
0,65,127,0
0,55,0,60
0,59,0,1
0,65,0,0
0,45,0,13
0,59,127,54
0,50,0,1
0,50,68,1
0,55,0,45
0,59,0,2
0,62,0,1
0,60,98,2
0,43,0,5
0,36,83,2
0,38,120,0
0,48,96,0
0,64,94,0
0,67,92,2
0,38,0,2
0,50,0,0
0,43,127,1
0,48,127,1
0,59,0,12
0,48,0,111
0,43,0,4
0,48,94,0
0,43,94,1
0,52,127,0
0,38,85,59
0,48,0,1
0,48,63,1
0,52,0,0
0,52,126,1
0,55,127,0
0,38,0,1
0,60,120,0
0,64,123,1
0,52,0,59
0,48,0,9
0,60,0,52
0,55,0,6
0,60,111,0
0,55,86,1
0,52,86,1
0,60,0,6
0,64,0,2
0,67,0,5
0,48,0,2
0,60,90,29
0,64,102,5
0,67,95,1
0,48,85,1
0,36,0,6
0,38,93,1
0,45,64,2
0,55,0,0
0,52,0,1
0,38,0,1
0,48,127,0
0,52,127,0
0,55,127,1
0,60,0,0
0,64,0,0
0,60,127,1
0,64,127,0
0,62,89,44
0,59,88,1
0,64,0,2
0,47,95,3
0,48,0,0
0,65,79,0
0,60,0,2
0,67,0,1
0,60,0,8
0,45,0,9
0,59,0,25
0,57,79,7
0,60,85,4
0,62,0,2
0,64,85,4
0,65,0,0
0,45,88,2
0,47,0,5
0,55,0,4
0,55,78,3
0,60,105,0
0,57,0,41
0,55,94,9
0,60,0,0
0,64,0,1
0,59,99,1
0,45,0,4
0,52,0,0
0,48,0,1
0,62,88,0
0,43,96,1
0,64,0,0
0,43,84,1
0,38,116,1
0,43,0,1
0,55,0,0
0,47,127,1
0,50,103,1
0,38,0,1
0,60,0,0
0,67,50,124
0,59,114,1
0,55,75,1
0,47,0,52
0,50,0,2
0,38,87,5
0,55,0,2
0,50,127,1
0,55,127,0
0,59,0,0
0,38,0,1
0,43,0,0
0,67,0,0
0,41,90,1
0,59,127,0
0,67,127,0
0,67,0,61
0,59,0,55
0,55,0,5
0,59,123,4
0,55,105,1
0,50,0,1
0,50,120,1
0,52,81,57
0,55,0,3
0,50,0,1
0,50,102,0
0,38,94,1
0,41,0,0
0,55,127,0
0,59,0,0
0,59,127,1
0,62,0,0
0,67,127,1
0,38,98,1
0,38,0,1
0,59,0,3
0,55,0,3
0,43,0,11
0,59,0,41
0,52,0,53
0,55,0,3
0,50,0,4
0,55,78,0
0,59,127,3
0,50,127,1
0,55,123,0
0,38,0,34
0,67,0,31
0,52,74,2
0,55,88,0
0,64,53,0
0,36,90,1
0,38,81,0
0,60,84,0
0,55,0,2
0,60,89,1
0,38,0,1
0,50,0,1
0,55,0,2
0,59,0,2
0,60,0,177
0,38,72,5
0,59,61,3
0,38,0,1
0,52,115,0
0,55,115,3
0,60,115,1
0,64,115,1
0,64,0,93
0,60,0,11
0,55,0,7
0,64,85,3
0,60,86,3
0,52,0,2
0,55,86,1
0,52,87,2
0,38,74,60
0,55,0,3
0,38,0,1
0,55,100,0
0,60,0,0
0,60,101,1
0,64,0,1
0,64,101,1
0,60,0,59
0,64,0,2
0,59,0,38
0,60,74,18
0,55,0,2
0,60,69,1
0,55,52,2
0,36,0,20
0,64,0,5
0,60,0,27
0,59,67,5
0,38,80,6
0,40,83,0
0,64,58,0
0,60,0,3
0,38,0,1
0,59,78,3
0,52,0,110
0,52,76,9
0,47,99,65
0,38,73,1
0,52,0,0
0,52,99,1
0,55,0,1
0,55,115,0
0,59,115,1
0,38,0,1
0,60,0,1
0,64,115,0
0,52,0,57
0,59,0,67
0,59,101,3
0,55,0,2
0,55,102,1
0,52,102,2
0,59,0,10
0,38,87,47
0,55,0,2
0,38,0,2
0,52,0,0
0,59,0,0
0,59,112,1
0,64,0,0
0,55,113,1
0,64,113,0
0,52,63,48
0,59,0,12
0,64,0,1
0,52,0,40
0,52,0,6
0,55,71,1
0,59,0,6
0,55,0,4
0,64,0,2
0,40,0,45
0,52,70,13
0,55,0,0
0,64,51,0
0,57,85,2
0,59,82,0
0,60,80,0
0,47,0,1
0,38,89,3
0,45,105,0
0,55,0,1
0,33,83,1
0,38,0,2
0,52,44,120
0,59,0,60
0,38,65,7
0,57,65,0
0,57,108,1
0,64,108,0
0,60,119,2
0,38,0,1
0,60,0,118
0,60,99,6
0,38,58,62
0,38,0,4
0,64,0,0
0,57,0,1
0,57,123,0
0,60,0,0
0,64,82,0
0,60,111,1
0,64,0,60
0,60,0,1
0,57,0,22
0,59,58,26
0,33,0,29
0,59,0,35
0,57,60,5
0,33,80,11
0,45,0,1
0,38,73,1
0,45,99,0
0,52,0,1
0,52,66,1
0,38,0,2
0,52,0,59
0,57,0,122
0,52,116,2
0,57,116,2
0,60,116,1
0,38,74,1
0,64,108,1
0,38,0,3
0,57,0,76
0,60,0,32
0,57,0,10
0,60,90,0
0,57,91,2
0,33,0,17
0,52,0,49
0,33,78,1
0,52,108,0
0,57,0,1
0,57,109,1
0,60,0,0
0,38,84,1
0,60,109,0
0,64,0,1
0,64,109,0
0,38,0,3
0,52,69,41
0,52,0,13
0,57,0,2
0,60,0,1
0,52,0,45
0,55,78,2
0,45,0,18
0,52,108,0
0,64,0,0
0,57,0,2
0,57,109,0
0,60,109,1
0,52,0,1
0,64,109,0
0,60,0,5
0,64,0,0
0,33,0,6
0,55,0,38
0,36,80,11
0,52,0,0
0,52,82,0
0,60,60,0
0,55,81,1
0,57,0,1
0,64,59,0
0,52,65,1
0,57,86,0
0,60,0,0
0,64,0,1
0,38,90,1
0,38,0,4
0,52,0,112
0,52,82,1
0,57,0,16
0,55,68,4
0,52,0,41
0,52,116,8
0,55,105,2
0,60,105,1
0,38,61,1
0,64,105,0
0,38,0,4
0,52,0,53
0,38,62,134
0,52,103,1
0,55,0,0
0,55,103,1
0,60,0,1
0,38,0,1
0,60,103,0
0,64,0,0
0,64,103,1
0,52,0,57
0,55,0,1
0,60,0,2
0,64,0,1
0,55,0,4
0,57,75,49
0,60,98,6
0,36,0,16
0,58,73,42
0,36,71,5
0,60,0,2
0,38,70,1
0,43,112,3
0,38,0,1
0,48,113,1
0,57,0,6
0,55,73,5
0,52,79,107
0,55,0,8
0,53,56,10
0,38,56,51
0,52,0,2
0,52,101,1
0,38,0,1
0,58,101,0
0,60,102,2
0,64,102,2
0,52,0,56
0,60,0,52
0,60,85,9
0,38,75,65
0,38,0,4
0,52,113,1
0,58,0,0
0,58,113,2
0,60,0,0
0,64,0,0
0,60,113,1
0,64,113,1
0,60,0,60
0,53,0,35
0,52,69,5
0,52,0,44
0,55,0,9
0,58,0,0
0,60,0,0
0,36,0,10
0,64,0,1
0,52,0,17
0,57,76,0
0,41,90,1
0,57,82,0
0,58,0,2
0,64,0,0
0,53,76,3
0,65,49,0
0,60,66,3
0,57,113,185
0,60,102,2
0,65,102,1
0,38,58,1
0,38,0,4
0,52,0,178
0,53,115,6
0,38,73,2
0,57,0,0
0,57,115,0
0,60,0,0
0,60,115,1
0,65,0,1
0,65,115,1
0,38,0,1
0,60,0,58
0,65,0,51
0,65,85,13
0,60,86,3
0,57,0,2
0,57,87,0
0,53,0,1
0,53,87,1
0,41,0,7
0,41,83,49
0,43,0,1
0,48,0,1
0,48,102,0
0,41,106,2
0,57,0,0
0,38,72,1
0,53,0,0
0,53,106,0
0,38,0,4
0,57,0,115
0,53,0,8
0,57,84,0
0,53,84,3
0,38,71,59
0,38,0,4
0,53,0,1
0,53,98,1
0,57,0,0
0,57,98,1
0,60,0,1
0,60,99,1
0,65,0,0
0,65,99,1
0,57,0,58
0,60,0,2
0,65,0,1
0,57,0,118
0,53,0,2
0,53,75,1
0,38,70,1
0,60,0,1
0,65,0,1
0,38,0,2
0,57,94,3
0,60,94,2
0,65,94,1
0,53,0,53
0,57,80,32
0,41,0,56
0,57,0,9
0,41,0,31
0,48,0,0
0,53,74,0
0,53,0,0
0,55,83,0
0,57,0,0
0,59,86,0
0,60,0,0
0,62,77,0
0,65,0,0
0,43,82,1
0,50,102,5
0,47,69,1
0,55,96,0
0,43,114,3
0,60,83,14
0,60,0,90
0,59,80,18
0,59,64,1
0,38,65,61
0,55,0,1
0,55,100,1
0,59,0,0
0,59,100,1
0,38,0,1
0,65,102,5
0,55,0,54
0,65,0,63
0,65,70,1
0,59,0,1
0,59,71,1
0,55,71,1
0,50,0,2
0,50,73,2
0,65,0,54
0,38,67,1
0,59,0,1
0,38,0,3
0,55,0,1
0,55,105,5
0,65,105,0
0,59,105,1
0,59,0,77
0,60,65,15
0,59,0,23
0,59,92,1
0,55,0,5
0,55,92,1
0,50,0,4
0,50,91,1
0,43,0,6
0,60,0,17
0,57,64,7
0,59,0,20
0,43,0,2
0,43,88,1
0,38,65,1
0,57,0,0
0,59,66,1
0,38,81,1
0,55,0,0
0,47,0,1
0,38,0,1
0,47,88,0
0,43,0,56
0,47,0,5
0,50,0,125
0,50,113,1
0,38,66,1
0,55,105,1
0,38,0,3
0,59,104,0
0,65,0,2
0,65,104,1
0,50,0,53
0,55,0,2
0,65,0,6
0,59,0,44
0,59,0,10
0,59,78,1
0,55,80,5
0,50,81,2
0,59,0,54
0,55,0,5
0,38,69,3
0,50,0,2
0,38,0,2
0,50,110,0
0,55,111,2
0,59,112,3
0,65,76,3
0,53,70,37
0,53,0,56
0,55,75,1
0,38,0,15
0,59,0,9
0,59,76,1
0,50,0,1
0,55,0,0
0,55,104,1
0,50,104,8
0,55,0,30
0,59,85,12
0,38,68,8
0,43,80,1
0,59,0,0
0,65,0,1
0,55,0,1
0,38,0,1
0,47,103,7
0,50,0,3
0,50,103,3
0,55,110,178
0,38,57,1
0,59,117,0
0,38,0,2
0,65,108,1
0,59,0,7
0,65,0,6
0,65,66,1
0,57,69,1
0,59,0,2
0,59,67,1
0,57,0,45
0,65,0,12
0,59,0,4
0,55,0,13
0,55,90,1
0,57,86,0
0,65,90,0
0,59,91,4
0,38,56,1
0,38,0,4
0,57,0,39
0,59,75,8
0,55,0,5
0,65,0,0
0,59,0,53
0,57,71,11
0,43,0,24
0,38,78,43
0,47,0,0
0,47,90,1
0,38,62,1
0,38,0,4
0,47,0,56
0,65,71,55
0,59,0,4
0,59,72,1
0,50,0,4
0,55,73,0
0,50,73,1
0,65,0,51
0,59,0,5
0,55,0,4
0,50,0,1
0,50,90,4
0,59,90,0
0,38,61,2
0,55,91,0
0,65,91,0
0,38,0,4
0,57,0,51
0,50,0,71
0,59,0,0
0,59,83,1
0,55,0,1
0,55,83,0
0,50,84,5
0,59,0,58
0,55,0,1
0,65,0,0
0,38,53,1
0,38,0,4
0,55,101,2
0,59,102,2
0,65,103,3
0,62,0,38
0,55,0,6
0,53,0,1
0,59,0,0
0,50,73,1
0,50,0,52
0,38,0,1
0,52,79,7
0,59,0,17
0,59,62,1
0,52,0,29
0,53,80,24
0,38,62,2
0,53,70,2
0,62,53,0
0,43,75,1
0,38,0,1
0,55,75,0
0,59,77,1
0,59,0,1
0,43,95,4
0,47,95,12
0,53,0,52
0,55,71,47
0,65,0,6
0,65,81,1
0,59,81,4
0,55,0,2
0,55,94,1
0,65,0,54
0,59,0,4
0,38,73,3
0,55,0,0
0,50,0,2
0,38,0,2
0,50,102,1
0,55,102,2
0,59,103,2
0,65,103,3
0,59,0,122
0,59,69,1
0,55,0,14
0,38,62,42
0,38,0,4
0,59,0,1
0,55,0,3
0,55,86,4
0,65,0,1
0,59,87,1
0,65,87,3
0,43,0,95
0,57,56,6
0,59,0,17
0,59,94,1
0,57,0,53
0,43,0,3
0,38,65,1
0,43,100,0
0,43,79,1
0,38,0,3
0,59,0,0
0,47,0,3
0,47,101,1
0,60,72,2
0,43,0,51
0,47,0,8
0,60,0,62
0,59,65,9
0,55,0,51
0,55,100,1
0,38,46,1
0,59,100,1
0,65,0,2
0,38,0,1
0,65,100,0
0,55,0,56
0,59,0,2
0,65,0,3
0,38,67,122
0,59,0,1
0,50,0,1
0,50,100,1
0,59,100,0
0,38,0,1
0,55,100,2
0,65,100,6
0,50,0,52
0,59,0,0
0,55,59,52
0,43,0,18
0,53,0,48
0,55,0,0
0,59,0,0
0,62,0,0
0,55,0,11
0,36,86,2
0,64,84,0
0,67,58,0
0,60,73,3
0,48,100,1
0,52,54,0
0,55,66,2
0,52,100,4
0,60,68,122
0,38,70,62
0,55,0,1
0,60,0,1
0,38,0,2
0,55,90,1
0,65,0,2
0,60,91,1
0,64,91,2
0,60,0,111
0,55,0,1
0,60,80,0
0,55,80,1
0,60,0,60
0,55,0,1
0,38,77,5
0,38,0,4
0,55,95,0
0,60,95,3
0,64,0,1
0,64,96,1
0,64,0,61
0,36,0,44
0,60,0,7
0,60,62,1
0,52,0,27
0,60,0,34
0,36,80,5
0,48,0,2
0,67,0,0
0,48,92,1
0,52,0,1
0,55,0,0
0,64,0,2
0,52,81,4
0,52,91,0
0,48,81,2
0,48,0,52
0,64,66,60
0,60,65,4
0,55,65,2
0,64,0,58
0,60,0,4
0,55,0,2
0,36,0,3
0,38,70,0
0,55,109,0
0,43,76,1
0,60,109,1
0,38,0,2
0,64,109,1
0,60,0,120
0,60,93,1
0,43,0,53
0,60,0,8
0,38,77,5
0,40,83,0
0,55,0,0
0,38,0,4
0,64,0,1
0,55,110,2
0,60,110,2
0,64,110,3
0,55,71,6
0,55,0,87
0,57,90,1
0,52,0,12
0,48,0,1
0,55,0,4
0,60,0,1
0,60,0,1
0,60,69,0
0,40,0,20
0,60,0,41
0,57,0,1
0,52,0,4
0,55,77,0
0,58,71,0
0,60,69,0
0,64,71,0
0,64,0,0
0,36,94,1
0,58,86,1
0,52,111,1
0,55,0,5
0,58,117,0
0,58,0,175
0,57,78,8
0,38,100,2
0,52,0,2
0,38,0,2
0,52,106,1
0,58,0,2
0,58,106,1
0,60,106,2
0,64,106,3
0,60,0,112
0,60,101,1
0,57,0,59
0,55,69,1
0,60,0,1
0,38,83,2
0,38,0,4
0,52,0,4
0,52,110,3
0,58,0,0
0,60,110,0
0,64,0,2
0,58,110,1
0,64,110,0
0,64,0,61
0,60,0,51
0,60,79,1
0,58,0,4
0,58,81,1
0,52,0,4
0,52,83,1
0,36,0,4
0,55,0,39
0,60,71,1
0,60,0,7
0,36,95,4
0,58,0,1
0,52,0,3
0,52,103,0
0,58,105,6
0,52,0,55
0,64,79,49
0,60,0,4
0,60,80,0
0,57,62,2
0,58,0,0
0,58,81,1
0,64,0,57
0,60,0,1
0,52,96,2
0,58,0,1
0,58,98,4
0,60,98,2
0,38,80,4
0,64,99,0
0,38,0,4
0,52,0,46
0,60,0,68
0,60,72,1
0,58,0,3
0,58,73,1
0,52,73,2
