track,note,velocity,time
1,34,127,1005
1,58,96,128
1,62,112,0
1,65,95,0
1,65,0,40
1,34,0,7
1,62,0,1
1,58,0,6
1,38,107,10
1,58,85,128
1,62,110,0
1,65,103,0
1,65,0,54
1,62,0,3
1,41,109,7
1,58,0,4
1,38,0,10
1,58,75,114
1,62,104,0
1,65,104,0
1,65,0,39
1,62,0,9
1,58,0,8
1,43,116,8
1,41,0,9
1,58,69,119
1,62,101,0
1,65,106,0
1,65,0,38
1,58,0,12
1,62,0,3
1,46,105,11
1,43,0,5
1,58,67,123
1,62,104,0
1,65,104,0
1,65,0,43
1,62,0,16
1,43,104,5
1,46,0,1
1,58,0,1
1,58,73,126
1,62,106,0
1,65,112,0
1,65,0,53
1,62,0,5
1,58,0,5
1,41,110,1
1,43,0,30
1,58,74,98
1,62,107,0
1,65,107,0
1,65,0,47
1,58,0,6
1,62,0,4
1,38,107,7
1,41,0,50
1,58,69,78
1,62,104,0
1,65,107,0
1,58,0,56
1,65,0,2
1,38,0,4
1,62,0,1
1,34,105,1
1,58,73,128
1,62,109,0
1,65,106,0
1,65,0,56
1,58,0,5
1,62,0,2
1,38,104,1
1,34,0,13
1,58,78,115
1,62,113,0
1,65,109,0
1,58,0,50
1,65,0,3
1,62,0,9
1,41,112,2
1,38,0,34
1,58,69,94
1,62,106,0
1,65,107,0
1,65,0,39
1,58,0,6
1,62,0,4
1,41,0,12
1,43,110,3
1,58,81,128
1,62,115,0
1,65,116,0
1,58,0,45
1,62,0,5
1,65,0,1
1,46,93,13
1,43,0,5
1,58,76,123
1,62,112,0
1,65,106,0
1,65,0,49
1,62,0,1
1,58,0,5
1,43,106,9
1,46,0,4
1,58,69,124
1,62,109,0
1,65,106,0
1,65,0,39
1,58,0,6
1,62,0,1
1,43,0,12
1,41,107,6
1,58,74,128
1,62,107,0
1,65,107,0
1,65,0,47
1,62,0,4
1,58,0,4
1,38,106,9
1,41,0,3
1,38,0,70
1,58,75,55
1,62,113,0
1,65,106,0
1,65,0,34
1,58,0,4
1,62,0,6
1,34,127,20
1,53,121,128
1,58,119,0
1,62,115,0
1,62,0,54
1,34,0,3
1,58,0,2
1,38,112,5
1,53,0,16
1,53,109,112
1,58,109,0
1,62,107,0
1,62,0,46
1,58,0,10
1,53,0,0
1,41,115,8
1,38,0,18
1,53,109,110
1,58,113,0
1,62,107,0
1,62,0,51
1,53,0,2
1,58,0,5
1,43,125,6
1,41,0,6
1,53,94,122
1,58,109,0
1,62,106,0
1,53,0,42
1,58,0,5
1,62,0,1
1,46,111,16
1,43,0,21
1,53,106,107
1,58,111,0
1,62,112,0
1,53,0,36
1,58,0,7
1,62,0,4
1,43,118,17
1,46,0,11
1,53,106,117
1,58,116,0
1,62,113,0
1,53,0,37
1,62,0,12
1,58,0,3
1,41,112,12
1,43,0,6
1,53,94,122
1,58,103,0
1,62,107,0
1,53,0,42
1,62,0,5
1,58,0,1
1,38,103,16
1,41,0,40
1,53,103,88
1,58,116,0
1,62,107,0
1,53,0,40
1,62,0,2
1,58,0,2
1,38,0,8
1,34,124,12
1,53,113,128
1,58,121,0
1,62,113,0
1,53,0,46
1,58,0,1
1,62,0,7
1,38,115,10
1,34,0,7
1,53,112,121
1,58,121,0
1,62,113,0
1,53,0,38
1,62,0,7
1,58,0,0
1,41,119,19
1,38,0,24
1,53,104,104
1,58,113,0
1,62,104,0
1,53,0,37
1,58,0,5
1,62,0,2
1,41,0,15
1,43,127,5
1,53,107,128
1,58,121,0
1,62,113,0
1,53,0,38
1,58,0,2
1,62,0,7
1,46,124,17
1,43,0,2
1,53,104,126
1,58,113,0
1,62,107,0
1,58,0,41
1,53,0,1
1,62,0,2
1,43,118,20
1,46,0,6
1,53,115,122
1,58,127,0
1,62,115,0
1,62,0,38
1,58,0,2
1,53,0,1
1,41,94,23
1,43,0,16
1,53,98,112
1,58,111,0
1,62,103,0
1,53,0,33
1,58,0,7
1,62,0,3
1,38,106,21
1,41,0,10
1,53,98,118
1,58,113,0
1,62,107,0
1,53,0,32
1,62,0,6
1,58,0,1
1,34,109,25
1,38,0,11
1,53,109,117
1,58,121,0
1,62,110,0
1,58,0,37
1,62,0,4
1,53,0,1
1,38,110,22
1,34,0,13
1,53,95,115
1,58,109,0
1,62,101,0
1,62,0,36
1,53,0,1
1,58,0,1
1,41,113,26
1,38,0,38
1,53,110,90
1,58,124,0
1,62,110,0
1,62,0,39
1,58,0,0
1,53,0,1
1,43,119,24
1,41,0,1
1,53,96,127
1,58,111,0
1,62,110,0
1,53,0,37
1,58,0,2
1,62,0,1
1,46,116,24
1,43,0,16
1,53,107,112
1,58,119,0
1,62,109,0
1,62,0,36
1,58,0,1
1,53,0,1
1,43,109,26
1,46,0,10
1,53,107,118
1,58,121,0
1,62,112,0
1,62,0,33
1,53,0,1
1,58,0,1
1,41,70,29
1,43,0,22
1,53,101,106
1,58,109,0
1,62,103,0
1,62,0,39
1,53,0,2
1,58,0,1
1,41,0,18
1,38,109,4
1,53,104,128
1,58,113,0
1,62,109,0
1,53,0,39
1,58,0,1
1,62,0,1
1,34,127,23
1,38,0,19
1,34,0,68
1,39,127,1449
1,58,111,128
1,61,105,0
1,63,105,0
1,67,106,0
1,63,0,35
1,61,0,2
1,58,0,2
1,67,0,3
1,39,0,10
1,43,116,12
1,58,101,128
1,61,105,0
1,63,103,0
1,67,89,0
1,67,0,33
1,63,0,3
1,61,0,5
1,58,0,4
1,46,113,19
1,43,0,7
1,58,103,121
1,61,105,0
1,63,103,0
1,67,94,0
1,63,0,30
1,67,0,1
1,58,0,5
1,61,0,7
1,39,127,21
1,46,0,63
1,58,97,65
1,61,97,0
1,63,103,0
1,67,94,0
1,67,0,30
1,61,0,8
1,58,0,1
1,63,0,1
1,39,0,16
1,41,112,8
1,57,104,128
1,60,113,0
1,63,103,0
1,65,107,0
1,57,0,34
1,60,0,4
1,63,0,3
1,65,0,1
1,45,127,22
1,41,0,27
1,57,109,101
1,60,110,0
1,63,101,0
1,65,109,0
1,65,0,36
1,60,0,0
1,57,0,3
1,63,0,1
1,45,0,12
1,48,127,12
1,57,106,128
1,60,118,0
1,63,107,0
1,65,109,0
1,65,0,37
1,60,0,5
1,63,0,3
1,57,0,3
1,45,125,16
1,48,0,4
1,57,90,124
1,60,109,0
1,63,109,0
1,65,107,0
1,45,0,29
1,60,0,2
1,57,0,9
1,65,0,4
1,63,0,11
1,34,127,9
1,58,101,128
1,62,121,0
1,65,113,0
1,58,0,34
1,62,0,9
1,65,0,4
1,37,68,17
1,38,123,0
1,37,0,15
1,34,0,18
1,58,99,95
1,62,115,0
1,65,110,0
1,58,0,38
1,65,0,7
1,62,0,0
1,39,127,19
1,38,0,16
1,58,107,112
1,63,116,0
1,67,116,0
1,58,0,37
1,63,0,3
1,67,0,3
1,39,0,12
1,43,127,9
1,58,107,128
1,63,113,0
1,67,85,0
1,67,0,27
1,58,0,18
1,63,0,7
1,46,127,12
1,43,0,3
1,58,119,125
1,62,123,0
1,65,118,0
1,65,0,45
1,58,0,0
1,62,0,1
1,46,0,15
1,43,118,3
1,58,111,128
1,62,118,0
1,65,116,0
1,58,0,36
1,65,0,11
1,62,0,1
1,41,125,16
1,43,0,11
1,58,89,117
1,62,109,0
1,65,113,0
1,58,0,38
1,65,0,8
1,62,0,2
1,41,0,10
1,38,115,6
1,38,0,97
1,58,107,31
1,62,119,0
1,65,112,0
1,58,0,29
1,65,0,6
1,62,0,0
1,34,127,29
1,53,121,128
1,58,119,0
1,62,115,0
1,62,0,54
1,34,0,3
1,58,0,2
1,38,112,5
1,53,0,16
1,53,109,112
1,58,109,0
1,62,107,0
1,62,0,46
1,58,0,10
1,53,0,0
1,41,115,8
1,38,0,18
1,53,109,110
1,58,113,0
1,62,107,0
1,62,0,51
1,53,0,2
1,58,0,5
1,43,125,6
1,41,0,6
1,53,94,122
1,58,109,0
1,62,106,0
1,53,0,42
1,58,0,5
1,62,0,1
1,46,111,16
1,43,0,21
1,53,106,107
1,58,111,0
1,62,112,0
1,53,0,36
1,58,0,7
1,62,0,4
1,43,118,17
1,46,0,11
1,53,106,117
1,58,116,0
1,62,113,0
1,53,0,37
1,62,0,12
1,58,0,3
1,41,112,12
1,43,0,6
1,53,94,122
1,58,103,0
1,62,107,0
1,53,0,42
1,62,0,5
1,58,0,1
1,38,103,16
1,41,0,40
1,53,103,88
1,58,116,0
1,62,107,0
1,53,0,40
1,62,0,2
1,58,0,2
1,38,0,8
1,34,124,12
1,53,113,128
1,58,121,0
1,62,113,0
1,53,0,46
1,58,0,1
1,62,0,7
1,38,115,10
1,34,0,7
1,53,112,121
1,58,121,0
1,62,113,0
1,53,0,38
1,62,0,7
1,58,0,0
1,41,119,19
1,38,0,24
1,53,104,104
1,58,113,0
1,62,104,0
1,53,0,37
1,58,0,5
1,62,0,2
1,41,0,15
1,43,127,5
1,53,107,128
1,58,121,0
1,62,113,0
1,53,0,38
1,58,0,2
1,62,0,7
1,46,124,17
1,43,0,2
1,53,104,126
1,58,113,0
1,62,107,0
1,58,0,41
1,53,0,1
1,62,0,2
1,43,118,20
1,46,0,6
1,53,115,122
1,58,127,0
1,62,115,0
1,62,0,38
1,58,0,2
1,53,0,1
1,41,94,23
1,43,0,16
1,53,98,112
1,58,111,0
1,62,103,0
1,53,0,33
1,58,0,7
1,62,0,3
1,38,106,21
1,41,0,10
1,53,98,118
1,58,113,0
1,62,107,0
1,53,0,32
1,62,0,6
1,58,0,1
1,34,109,25
1,38,0,11
1,53,109,117
1,58,121,0
1,62,110,0
1,58,0,37
1,62,0,4
1,53,0,1
1,38,110,22
1,34,0,13
1,53,95,115
1,58,109,0
1,62,101,0
1,62,0,36
1,53,0,1
1,58,0,1
1,41,113,26
1,38,0,38
1,53,110,90
1,58,124,0
1,62,110,0
1,62,0,39
1,58,0,0
1,53,0,1
1,43,119,24
1,41,0,1
1,53,96,127
1,58,111,0
1,62,110,0
1,53,0,37
1,58,0,2
1,62,0,1
1,46,116,24
1,43,0,16
1,53,107,112
1,58,119,0
1,62,109,0
1,62,0,36
1,58,0,1
1,53,0,1
1,43,109,26
1,46,0,10
1,53,107,118
1,58,121,0
1,62,112,0
1,62,0,33
1,53,0,1
1,58,0,1
1,41,70,29
1,43,0,22
1,53,101,106
1,58,109,0
1,62,103,0
1,62,0,39
1,53,0,2
1,58,0,1
1,41,0,18
1,38,109,4
1,53,104,128
1,58,113,0
1,62,109,0
1,53,0,39
1,58,0,1
1,62,0,1
1,34,127,23
1,38,0,19
1,34,0,68
1,39,127,1449
1,58,111,128
1,61,105,0
1,63,105,0
1,67,106,0
1,63,0,35
1,61,0,2
1,58,0,2
1,67,0,3
1,39,0,10
1,43,116,12
1,58,101,128
1,61,105,0
1,63,103,0
1,67,89,0
1,67,0,33
1,63,0,3
1,61,0,5
1,58,0,4
1,46,113,19
1,43,0,7
1,58,103,121
1,61,105,0
1,63,103,0
1,67,94,0
1,63,0,30
1,67,0,1
1,58,0,5
1,61,0,7
1,39,127,21
1,46,0,63
1,58,97,65
1,61,97,0
1,63,103,0
1,67,94,0
1,67,0,30
1,61,0,8
1,58,0,1
1,63,0,1
1,39,0,16
1,41,112,8
1,57,104,128
1,60,113,0
1,63,103,0
1,65,107,0
1,57,0,34
1,60,0,4
1,63,0,3
1,65,0,1
1,45,127,22
1,41,0,27
1,57,109,101
1,60,110,0
1,63,101,0
1,65,109,0
1,65,0,36
1,60,0,0
1,57,0,3
1,63,0,1
1,45,0,12
1,48,127,12
1,57,106,128
1,60,118,0
1,63,107,0
1,65,109,0
1,65,0,37
1,60,0,5
1,63,0,3
1,57,0,3
1,45,125,16
1,48,0,4
1,57,90,124
1,60,109,0
1,63,109,0
1,65,107,0
1,45,0,29
1,60,0,2
1,57,0,9
1,65,0,4
1,63,0,11
1,34,127,9
1,58,101,128
1,62,121,0
1,65,113,0
1,58,0,34
1,62,0,9
1,65,0,4
1,37,68,17
1,38,123,0
1,37,0,15
1,34,0,18
1,58,99,95
1,62,115,0
1,65,110,0
1,58,0,38
1,65,0,7
1,62,0,0
1,39,127,19
1,38,0,16
1,58,107,112
1,63,116,0
1,67,116,0
1,58,0,37
1,63,0,3
1,67,0,3
1,39,0,12
1,43,127,9
1,58,107,128
1,63,113,0
1,67,85,0
1,67,0,27
1,58,0,18
1,63,0,7
1,46,127,12
1,43,0,3
1,58,119,125
1,62,123,0
1,65,118,0
1,65,0,45
1,58,0,0
1,62,0,1
1,46,0,15
1,43,118,3
1,58,111,128
1,62,118,0
1,65,116,0
1,58,0,36
1,65,0,11
1,62,0,1
1,41,125,16
1,43,0,11
1,58,89,117
1,62,109,0
1,65,113,0
1,58,0,38
1,65,0,8
1,62,0,2
1,41,0,10
1,38,115,6
1,38,0,97
1,58,107,31
1,62,119,0
1,65,112,0
1,58,0,29
1,65,0,6
1,62,0,0
1,39,119,29
1,61,105,128
1,63,116,0
1,67,116,0
1,70,93,0
1,63,0,47
1,70,0,8
1,39,0,1
1,61,0,2
1,67,0,0
1,43,121,6
1,61,92,128
1,63,113,0
1,67,110,0
1,70,101,0
1,63,0,52
1,61,0,0
1,70,0,4
1,43,0,3
1,67,0,1
1,46,127,4
1,61,103,128
1,63,116,0
1,67,106,0
1,70,107,0
1,63,0,49
1,61,0,1
1,70,0,4
1,67,0,0
1,43,121,10
1,46,0,7
1,61,101,121
1,63,113,0
1,67,110,0
1,70,96,0
1,61,0,44
1,63,0,3
1,70,0,4
1,67,0,4
1,39,124,9
1,43,0,4
1,61,116,124
1,63,121,0
1,67,116,0
1,70,107,0
1,61,0,50
1,67,0,1
1,70,0,4
1,63,0,1
1,43,118,8
1,39,0,12
1,61,105,116
1,63,113,0
1,67,116,0
1,70,105,0
1,61,0,39
1,70,0,7
1,63,0,0
1,67,0,2
1,46,119,16
1,43,0,2
1,61,109,126
1,63,116,0
1,67,119,0
1,70,93,0
1,61,0,36
1,63,0,10
1,67,0,5
1,70,0,7
1,43,119,6
1,46,0,4
1,61,97,124
1,63,111,0
1,67,113,0
1,70,89,0
1,67,0,47
1,63,0,0
1,61,0,0
1,43,0,11
1,70,0,4
1,34,127,2
1,62,106,128
1,65,121,0
1,70,116,0
1,62,0,41
1,65,0,3
1,70,0,9
1,38,115,11
1,34,0,14
1,62,94,114
1,65,118,0
1,70,116,0
1,62,0,39
1,65,0,9
1,70,0,2
1,38,0,4
1,41,125,10
1,65,47,64
1,65,0,20
1,62,104,44
1,65,123,0
1,70,116,0
1,62,0,38
1,70,0,3
1,65,0,2
1,38,119,21
1,41,0,37
1,62,101,91
1,65,121,0
1,70,111,0
1,62,0,39
1,65,0,1
1,38,0,3
1,70,0,1
1,34,127,20
1,62,91,128
1,65,116,0
1,70,107,0
1,62,0,40
1,70,0,2
1,65,0,1
1,38,110,21
1,34,0,1
1,62,95,127
1,65,116,0
1,70,113,0
1,62,0,43
1,70,0,1
1,65,0,0
1,38,0,14
1,41,119,6
1,62,91,128
1,65,119,0
1,70,116,0
1,62,0,39
1,65,0,1
1,70,0,7
1,38,113,17
1,41,0,21
1,62,73,107
1,65,107,0
1,70,86,0
1,62,0,40
1,65,0,2
1,70,0,11
1,38,0,2
1,39,127,9
1,61,103,128
1,63,121,0
1,67,118,0
1,70,97,0
1,61,0,28
1,63,0,12
1,70,0,1
1,67,0,0
1,39,0,16
1,43,127,7
1,61,109,128
1,63,119,0
1,67,116,0
1,70,113,0
1,61,0,33
1,67,0,4
1,63,0,2
1,70,0,6
1,46,127,19
1,43,0,11
1,61,116,117
1,63,127,0
1,67,121,0
1,70,109,0
1,61,0,30
1,63,0,6
1,67,0,5
1,70,0,1
1,46,0,20
1,43,121,2
1,63,68,0
1,63,0,14
1,61,119,114
1,63,127,0
1,67,118,0
1,70,113,0
1,61,0,31
1,70,0,6
1,63,0,1
1,67,0,5
1,39,127,21
1,43,0,18
1,61,101,110
1,63,111,0
1,67,107,0
