track,note,velocity,time
3,34,60,2680
3,58,67,52
3,34,90,4
3,62,75,0
3,53,70,0
3,38,96,40
3,58,66,248
3,53,69,8
3,41,92,60
3,62,76,20
3,53,74,0
3,58,75,0
3,41,76,8
3,43,96,52
3,53,74,248
3,58,71,0
3,62,70,8
3,34,70,40
3,34,81,48
3,58,77,0
3,53,74,4
3,62,71,4
3,38,104,40
3,53,74,248
3,58,74,0
3,62,70,4
3,41,92,60
3,58,82,44
3,41,78,8
3,62,79,0
3,53,79,0
3,43,102,56
3,58,81,248
3,62,82,4
3,53,80,0
3,34,77,0
3,34,76,60
3,62,79,0
3,53,75,0
3,58,77,0
3,38,107,48
3,62,85,256
3,53,82,0
3,58,85,0
3,41,89,52
3,41,81,20
3,62,82,0
3,53,80,0
3,58,86,0
3,43,100,40
3,58,82,252
3,62,78,4
3,53,80,0
3,34,76,32
3,34,70,60
3,62,82,0
3,53,79,0
3,58,81,0
3,38,104,40
3,62,85,256
3,53,82,0
3,58,85,0
3,41,98,32
3,41,81,28
3,62,80,0
3,53,82,0
3,58,86,0
3,43,102,20
3,62,85,24
3,53,89,0
3,58,93,0
3,34,60,68
3,58,67,52
3,34,90,4
3,62,75,0
3,53,70,0
3,38,96,40
3,58,66,248
3,53,69,8
3,41,92,60
3,62,76,20
3,53,74,0
3,58,75,0
3,41,76,8
3,43,96,52
3,53,74,248
3,58,71,0
3,62,70,8
3,34,70,40
3,34,81,48
3,58,77,0
3,53,74,4
3,62,71,4
3,38,104,40
3,53,74,248
3,58,74,0
3,62,70,4
3,41,92,60
3,58,82,44
3,41,78,8
3,62,79,0
3,53,79,0
3,43,102,56
3,58,81,248
3,62,82,4
3,53,80,0
3,34,77,0
3,34,76,60
3,62,79,0
3,53,75,0
3,58,77,0
3,38,107,48
3,62,85,256
3,53,82,0
3,58,85,0
3,41,89,52
3,41,81,20
3,62,82,0
3,53,80,0
3,58,86,0
3,43,100,40
3,58,82,252
3,62,78,4
3,53,80,0
3,34,76,32
3,34,70,60
3,62,82,0
3,53,79,0
3,58,81,0
3,38,104,40
3,62,85,256
3,53,82,0
3,58,85,0
3,41,98,32
3,41,81,28
3,62,80,0
3,53,82,0
3,58,86,0
3,43,102,20
3,62,85,24
3,53,89,0
3,58,93,0
3,34,60,68
3,58,67,52
3,34,90,4
3,62,75,0
3,53,70,0
3,38,96,40
3,58,66,248
3,53,69,8
3,41,92,60
3,62,76,20
3,53,74,0
3,58,75,0
3,41,76,8
3,43,96,52
3,53,74,248
3,58,71,0
3,62,70,8
3,34,70,40
3,34,81,48
3,58,77,0
3,53,74,4
3,62,71,4
3,38,104,40
3,53,74,248
3,58,74,0
3,62,70,4
3,41,92,60
3,58,82,44
3,41,78,8
3,62,79,0
3,53,79,0
3,43,102,56
3,58,81,248
3,62,82,4
3,53,80,0
3,34,77,0
3,39,99,2880
3,55,74,260
3,63,64,0
3,60,77,0
3,58,69,0
3,43,94,36
3,55,68,256
3,60,74,0
3,58,69,0
3,63,70,0
3,46,97,24
3,60,74,264
3,55,81,0
3,58,85,0
3,63,78,0
3,48,88,28
3,63,76,256
3,58,82,0
3,60,77,4
3,55,81,0
3,41,89,36
3,57,78,256
3,63,69,0
3,60,81,0
3,45,98,44
3,57,72,256
3,63,62,0
3,60,75,0
3,48,92,32
3,57,79,252
3,60,82,0
3,63,73,0
3,50,96,52
3,57,74,256
3,60,74,0
3,63,69,0
3,46,92,52
3,53,74,256
3,58,75,0
3,62,76,0
3,43,93,40
3,53,76,256
3,58,78,0
3,62,81,0
3,41,94,32
3,53,78,256
3,62,81,0
3,58,79,0
3,38,93,32
3,53,66,248
3,62,74,0
3,58,70,0
3,34,90,24
3,62,74,248
3,58,67,8
3,53,65,0
3,38,93,28
3,53,77,256
3,62,80,0
3,58,75,0
3,41,93,36
3,58,81,252
3,62,81,4
3,53,77,0
3,43,95,40
3,62,77,248
3,58,69,0
3,53,74,0
3,34,60,68
3,58,67,52
3,34,90,4
3,62,75,0
3,53,70,0
3,38,96,40
3,58,66,248
3,53,69,8
3,41,92,60
3,62,76,20
3,53,74,0
3,58,75,0
3,41,76,8
3,43,96,52
3,53,74,248
3,58,71,0
3,62,70,8
3,34,70,40
3,34,81,48
3,58,77,0
3,53,74,4
3,62,71,4
3,38,104,40
3,53,74,248
3,58,74,0
3,62,70,4
3,41,92,60
3,58,82,44
3,41,78,8
3,62,79,0
3,53,79,0
3,43,102,56
3,58,81,248
3,62,82,4
3,53,80,0
3,34,77,0
3,34,76,60
3,62,79,0
3,53,75,0
3,58,77,0
3,38,107,48
3,62,85,256
3,53,82,0
3,58,85,0
3,41,89,52
3,41,81,20
3,62,82,0
3,53,80,0
3,58,86,0
3,43,100,40
3,58,82,252
3,62,78,4
3,53,80,0
3,34,76,32
3,34,70,60
3,62,82,0
3,53,79,0
3,58,81,0
3,38,104,40
3,62,85,256
3,53,82,0
3,58,85,0
3,41,98,32
3,41,81,28
3,62,80,0
3,53,82,0
3,58,86,0
3,43,102,20
3,62,85,24
3,53,89,0
3,58,93,0
3,34,60,68
3,58,67,52
3,34,90,4
3,62,75,0
3,53,70,0
3,38,96,40
3,58,66,248
3,53,69,8
3,41,92,60
3,62,76,20
3,53,74,0
3,58,75,0
3,41,76,8
3,43,96,52
3,53,74,248
3,58,71,0
3,62,70,8
3,34,70,40
3,34,81,48
3,58,77,0
3,53,74,4
3,62,71,4
3,38,104,40
3,53,74,248
3,58,74,0
3,62,70,4
3,41,92,60
3,58,82,44
3,41,78,8
3,62,79,0
3,53,79,0
3,43,102,56
3,58,81,248
3,62,82,4
3,53,80,0
3,34,77,0
3,39,99,2880
3,55,74,260
3,63,64,0
3,60,77,0
3,58,69,0
3,43,94,36
3,55,68,256
3,60,74,0
3,58,69,0
3,63,70,0
3,46,97,24
3,60,74,264
3,55,81,0
3,58,85,0
3,63,78,0
3,48,88,28
3,63,76,256
3,58,82,0
3,60,77,4
3,55,81,0
3,41,89,36
3,57,78,256
3,63,69,0
3,60,81,0
3,45,98,44
3,57,72,256
3,63,62,0
3,60,75,0
3,48,92,32
3,57,79,252
3,60,82,0
3,63,73,0
3,50,96,52
3,57,74,256
3,60,74,0
3,63,69,0
3,46,92,52
3,53,74,256
3,58,75,0
3,62,76,0
3,43,93,40
3,53,76,256
3,58,78,0
3,62,81,0
3,41,94,32
3,53,78,256
3,62,81,0
3,58,79,0
3,38,93,32
3,53,66,248
3,62,74,0
3,58,70,0
3,34,90,24
3,62,74,248
3,58,67,8
3,53,65,0
3,38,93,28
3,53,77,256
3,62,80,0
3,58,75,0
3,41,93,36
3,58,81,252
3,62,81,4
3,53,77,0
3,43,95,40
3,62,77,248
3,58,69,0
3,53,74,0
3,39,103,64
3,63,66,252
3,55,75,0
3,58,73,0
3,60,66,0
3,43,98,68
3,55,69,248
3,63,66,0
3,58,75,0
3,60,64,0
3,46,79,60
3,55,74,248
3,63,66,0
3,58,78,0
3,60,68,0
3,43,92,64
3,63,64,248
3,58,78,0
3,60,66,0
3,55,75,4
3,39,98,48
3,63,64,252
3,58,77,0
3,60,66,0
3,55,73,4
3,43,95,68
3,63,71,252
3,58,81,0
3,60,71,0
3,55,77,4
3,46,70,56
3,58,77,248
3,63,69,0
3,60,68,0
3,55,77,8
3,43,93,40
3,55,74,252
3,58,73,0
3,63,68,0
3,60,62,0
3,34,85,64
3,62,69,244
3,53,69,0
3,58,63,0
3,38,88,40
3,58,68,248
3,53,73,0
3,62,78,0
3,41,88,32
3,62,71,252
3,53,71,0
3,58,68,0
3,38,92,40
3,53,73,244
3,58,72,0
3,62,80,0
3,34,93,56
3,56,71,248
3,53,71,0
3,62,74,0
3,58,68,0
3,38,87,52
3,62,80,252
3,56,71,0
3,58,71,0
3,53,73,0
3,41,88,48
3,56,73,252
3,58,71,0
3,62,80,0
3,53,76,0
3,38,93,44
3,56,75,252
3,62,80,0
3,58,72,0
3,53,76,0
3,39,96,64
3,55,80,248
3,58,73,0
3,60,71,0
3,63,68,4
3,43,88,48
3,55,78,252
3,63,71,0
3,58,78,0
3,60,71,0
3,46,85,40
3,55,73,256
3,58,69,0
3,63,68,0
3,60,62,0
3,43,92,44
3,55,80,248
3,63,71,0
3,58,79,0
3,60,68,0
3,39,93,32
3,55,76,256
3,63,68,0
3,58,74,0
3,60,63,0
3,43,88,60
3,55,85,252
3,63,78,0
3,58,88,0
3,60,77,0
3,46,80,60
3,55,84,256
3,58,86,0
3,63,77,0
3,60,77,0
3,43,100,20
3,63,88,88
3,53,95,4
3,41,110,4
3,57,85,0
3,60,95,0
3,34,60,2872
3,58,67,52
3,34,90,4
3,62,75,0
3,53,70,0
3,38,96,40
3,58,66,248
3,53,69,8
3,41,92,60
3,62,76,20
3,53,74,0
3,58,75,0
3,41,76,8
3,43,96,52
3,53,74,248
3,58,71,0
3,62,70,8
3,34,70,40
3,34,81,48
3,58,77,0
3,53,74,4
3,62,71,4
3,38,104,40
3,53,74,248
3,58,74,0
3,62,70,4
3,41,92,60
3,58,82,44
3,41,78,8
3,62,79,0
3,53,79,0
3,43,102,56
3,58,81,248
3,62,82,4
3,53,80,0
3,34,77,0
3,34,76,60
3,62,79,0
3,53,75,0
3,58,77,0
3,38,107,48
3,62,85,256
3,53,82,0
3,58,85,0
3,41,89,52
3,41,81,20
3,62,82,0
3,53,80,0
3,58,86,0
3,43,100,40
3,58,82,252
3,62,78,4
3,53,80,0
3,34,76,32
3,34,70,60
3,62,82,0
3,53,79,0
3,58,81,0
3,38,104,40
3,62,85,256
3,53,82,0
3,58,85,0
3,41,98,32
3,41,81,28
3,62,80,0
3,53,82,0
3,58,86,0
3,43,102,20
3,62,85,24
3,53,89,0
3,58,93,0
3,34,60,68
3,58,67,52
3,34,90,4
3,62,75,0
3,53,70,0
3,38,96,40
3,58,66,248
3,53,69,8
3,41,92,60
3,62,76,20
3,53,74,0
3,58,75,0
3,41,76,8
3,43,96,52
3,53,74,248
3,58,71,0
3,62,70,8
3,34,70,40
3,34,81,48
3,58,77,0
3,53,74,4
3,62,71,4
3,38,104,40
3,53,74,248
3,58,74,0
3,62,70,4
3,41,92,60
3,58,82,44
3,41,78,8
3,62,79,0
3,53,79,0
3,43,102,56
3,58,81,248
3,62,82,4
3,53,80,0
3,34,77,0
3,39,99,2880
3,55,74,260
3,63,64,0
3,60,77,0
3,58,69,0
3,43,94,36
3,55,68,256
3,60,74,0
3,58,69,0
3,63,70,0
3,46,97,24
3,60,74,264
3,55,81,0
3,58,85,0
3,63,78,0
3,48,88,28
3,63,76,256
3,58,82,0
3,60,77,4
3,55,81,0
3,41,89,36
3,57,78,256
3,63,69,0
3,60,81,0
3,45,98,44
3,57,72,256
3,63,62,0
3,60,75,0
3,48,92,32
3,57,79,252
3,60,82,0
3,63,73,0
3,50,96,52
3,57,74,256
3,60,74,0
3,63,69,0
3,46,92,52
3,53,74,256
3,58,75,0
3,62,76,0
3,43,93,40
3,53,76,256
3,58,78,0
3,62,81,0
3,41,94,32
3,53,78,256
3,62,81,0
3,58,79,0
3,38,93,32
3,53,66,248
3,62,74,0
3,58,70,0
3,34,90,24
3,62,74,248
3,58,67,8
3,53,65,0
3,38,93,28
3,53,77,256
3,62,80,0
3,58,75,0
3,41,93,36
3,58,81,252
3,62,81,4
3,53,77,0
3,43,83,36
3,62,77,252
3,58,69,0
3,53,74,0
3,39,103,64
3,63,66,252
3,55,75,0
3,58,73,0
3,60,66,0
3,43,98,68
3,55,69,248
3,63,66,0
3,58,75,0
3,60,64,0
3,46,79,60
3,55,74,248
3,63,66,0
3,58,78,0
3,60,68,0
3,43,92,64
3,63,64,248
3,58,78,0
3,60,66,0
3,55,75,4
3,39,98,48
3,63,64,252
3,58,77,0
3,60,66,0
3,55,73,4
3,43,95,68
3,63,71,252
3,58,81,0
3,60,71,0
3,55,77,4
3,46,70,56
3,58,77,248
3,63,69,0
3,60,68,0
3,55,77,8
3,43,93,40
3,55,74,252
3,58,73,0
3,63,68,0
3,60,62,0
3,34,85,64
3,62,69,244
3,53,69,0
3,58,63,0
3,38,88,40
3,58,68,248
3,53,73,0
3,62,78,0
3,41,88,32
3,62,71,252
3,53,71,0
3,58,68,0
3,38,92,40
3,53,73,244
3,58,72,0
3,62,80,0
3,34,93,56
3,53,71,248
3,62,74,0
3,58,68,0
3,38,87,52
3,62,80,252
3,58,71,0
3,53,73,0
3,41,88,48
3,58,71,252
3,62,80,0
3,53,76,0
3,38,93,44
3,62,80,252
3,58,72,0
3,53,76,0
3,39,96,64
3,58,73,248
3,55,80,0
3,60,71,0
3,63,68,4
3,43,88,48
3,55,78,252
3,63,71,0
3,58,78,0
3,60,71,0
3,46,85,40
3,55,73,256
3,58,69,0
3,63,68,0
3,60,62,0
3,43,92,44
3,55,80,248
3,63,71,0
3,58,79,0
3,60,68,0
3,39,93,32
3,55,76,256
3,63,68,0
3,58,74,0
3,60,63,0
3,43,88,60
3,55,85,252
3,63,78,0
3,58,88,0
3,60,77,0
3,46,80,60
3,55,84,256
3,58,86,0
3,63,77,0
3,60,77,0
3,43,100,20
3,63,88,88
3,53,95,4
3,41,110,4
3,57,85,0
3,60,95,0
3,34,81,2872
3,58,67,52
3,34,90,4
3,62,75,0
3,53,70,0
3,38,91,40
3,58,66,248
3,53,69,8
3,41,92,60
3,62,76,20
3,53,74,0
3,58,75,0
3,41,76,8
3,43,96,52
3,53,74,248
3,58,71,0
3,62,70,8
3,34,70,40
3,34,81,48
3,58,77,0
3,53,74,4
3,62,71,4
3,38,88,40
3,53,74,248
3,58,74,0
3,62,70,4
3,41,92,60
3,58,82,44
3,41,78,8
3,62,79,0
3,53,79,0
3,43,88,56
3,58,81,248
3,62,82,4
3,53,80,0
3,34,77,0
3,34,76,60
3,62,79,0
3,53,75,0
3,58,77,0
3,38,91,48
3,62,85,256
3,53,82,0
3,58,85,0
3,41,89,52
3,41,81,20
3,62,82,0
3,53,80,0
3,58,86,0
3,43,100,40
3,58,82,252
3,62,78,4
3,53,80,0
3,34,76,32
3,34,70,60
3,62,82,0
3,53,79,0
3,58,81,0
3,38,104,40
3,62,85,256
3,53,82,0
3,58,85,0
3,41,98,32
3,41,81,28
3,62,80,0
3,53,82,0
3,58,86,0
3,43,102,20
3,62,85,24
3,53,89,0
3,58,93,0
3,34,71,68
3,58,67,52
3,34,90,4
3,62,75,0
3,53,70,0
3,38,89,40
3,58,66,248
3,53,69,8
3,41,92,60
3,62,76,20
3,53,74,0
3,58,75,0
3,41,76,8
3,43,87,52
3,53,74,248
3,58,71,0
3,62,70,8
3,34,70,40
3,34,81,48
3,58,77,0
3,53,74,4
3,62,71,4
3,38,104,40
3,53,74,248
3,58,74,0
3,62,70,4
3,41,92,60
3,58,82,44
3,41,78,8
3,62,79,0
3,53,79,0
3,43,102,56
3,58,81,248
3,62,82,4
3,53,80,0
3,34,77,0
3,39,99,2880
3,55,74,260
3,63,64,0
3,60,77,0
3,58,69,0
3,43,94,36
3,55,68,256
3,60,74,0
3,58,69,0
3,63,70,0
3,46,97,24
3,60,74,264
3,55,81,0
3,58,85,0
3,63,78,0
3,48,88,28
3,63,76,256
3,58,82,0
3,60,77,4
3,55,81,0
3,41,89,36
3,57,78,256
3,63,69,0
3,60,81,0
3,45,98,44
3,57,72,256
3,63,62,0
3,60,75,0
3,48,92,32
3,57,79,252
3,60,82,0
3,63,73,0
3,50,96,52
3,57,74,256
3,60,74,0
3,63,69,0
3,46,92,52
3,53,74,256
3,58,75,0
3,62,76,0
3,43,93,40
3,53,76,256
3,58,78,0
3,62,81,0
3,41,94,32
3,53,78,256
3,62,81,0
3,58,79,0
3,38,93,32
3,53,66,248
3,62,74,0
3,58,70,0
3,34,90,24
3,62,74,248
3,58,67,8
3,53,65,0
3,38,93,28
3,53,77,256
3,62,80,0
3,58,75,0
3,41,93,36
3,58,81,252
3,62,81,4
3,53,77,0
3,43,83,36
3,62,77,252
3,58,69,0
