track,note,velocity,time
0,62,83,0
0,40,23,0
0,51,22,0
0,38,92,0
0,38,85,0
0,50,60,0
0,57,50,32
0,50,56,7
0,62,54,0
0,51,22,30
0,78,41,0
0,38,70,0
0,57,63,0
0,54,63,0
0,62,63,0
0,66,64,0
0,74,47,0
0,57,69,5
0,54,69,0
0,62,69,0
0,62,56,0
0,54,78,3
0,57,78,0
0,62,78,0
0,57,18,0
0,51,21,6
0,38,105,0
0,57,68,0
0,66,64,0
0,54,56,0
0,62,73,0
0,50,57,1
0,40,23,1
0,57,53,3
0,50,61,3
0,62,56,0
0,51,22,30
0,78,47,0
0,38,66,0
0,66,69,0
0,74,47,0
0,57,63,0
0,62,63,0
0,54,63,0
0,62,68,3
0,54,68,0
0,57,68,0
0,62,58,0
0,54,74,10
0,62,74,0
0,57,74,0
0,57,53,0
0,64,79,0
0,45,102,0
0,45,48,0
0,40,23,1
0,51,22,0
0,33,78,0
0,55,48,28
0,61,48,30
0,57,53,2
0,51,22,13
0,76,50,0
0,38,70,0
0,61,47,0
0,55,58,0
0,64,58,0
0,64,72,0
0,73,33,0
0,61,68,1
0,55,70,0
0,64,67,0
0,61,34,2
0,61,80,9
0,64,82,0
0,55,79,0
0,55,58,1
0,51,21,10
0,45,93,0
0,64,69,0
0,61,68,0
0,57,71,0
0,67,70,0
0,45,45,1
0,40,23,1
0,55,56,4
0,57,54,5
0,61,55,0
0,51,22,1
0,55,57,0
0,61,45,0
0,64,75,0
0,73,33,0
0,76,47,0
0,38,66,0
0,64,54,0
0,55,65,8
0,61,66,0
0,64,63,0
0,61,53,0
0,55,84,10
0,64,85,0
0,61,98,0
0,55,43,0
0,38,103,1
0,66,90,0
0,54,54,0
0,62,67,0
0,60,60,0
0,50,63,0
0,57,60,0
0,40,23,0
0,51,22,0
0,38,85,0
0,50,59,0
0,57,50,29
0,50,60,32
0,62,58,1
0,51,22,30
0,54,54,0
0,60,64,0
0,57,69,0
0,78,50,0
0,74,50,0
0,38,70,0
0,66,66,0
0,60,71,10
0,57,72,1
0,54,62,0
0,62,61,1
0,54,59,9
0,60,75,0
0,57,77,0
0,57,55,0
0,64,85,0
0,51,21,0
0,38,96,0
0,50,53,1
0,40,23,1
0,57,47,6
0,50,63,29
0,62,68,2
0,51,22,17
0,54,50,0
0,78,45,0
0,74,52,0
0,62,84,0
0,38,66,0
0,57,56,0
0,60,50,0
0,66,70,0
0,54,59,9
0,57,71,0
0,60,69,0
0,62,66,2
0,60,81,10
0,57,85,0
0,54,72,0
0,57,52,2
0,59,60,1
0,55,71,0
0,43,102,0
0,43,56,0
0,62,70,1
0,67,69,0
0,40,23,0
0,51,22,0
0,43,81,0
0,67,81,0
0,55,56,30
0,55,54,32
0,59,60,2
0,51,22,30
0,62,72,0
0,38,70,0
0,59,60,0
0,62,65,0
0,67,66,0
0,55,65,8
0,59,69,0
0,62,68,0
0,67,70,2
0,59,40,0
0,62,88,6
0,59,88,0
0,55,88,0
0,67,88,0
0,55,50,1
0,51,21,10
0,43,100,0
0,43,56,0
0,40,23,1
0,55,53,29
0,59,57,29
0,51,22,1
0,61,75,0
0,64,85,0
0,38,66,0
0,33,62,0
0,57,73,0
0,45,54,0
0,57,67,0
0,61,60,0
0,69,87,0
0,45,103,0
0,74,87,0
0,40,23,0
0,51,22,0
0,38,102,0
0,50,63,0
0,66,67,1
0,69,67,0
0,74,67,0
0,62,67,0
0,57,67,0
0,50,67,0
0,38,83,0
0,54,46,30
0,57,61,33
0,50,65,1
0,51,22,30
0,38,70,0
0,57,57,0
0,62,65,0
0,66,51,0
0,62,75,0
0,66,72,6
0,57,77,0
0,62,80,0
0,57,63,0
0,66,94,3
0,57,89,0
0,62,97,0
0,54,43,0
0,51,21,10
0,38,100,0
0,69,96,0
0,38,93,0
0,50,30,0
0,40,23,1
0,54,43,29
0,50,70,31
0,57,65,1
0,51,22,3
0,38,66,0
0,66,71,0
0,57,70,0
0,66,88,0
0,62,78,0
0,62,75,0
0,57,75,4
0,66,72,0
0,62,78,0
0,57,64,2
0,57,90,10
0,66,92,0
0,62,99,0
0,54,47,0
0,42,42,9
0,73,68,0
0,66,67,0
0,57,48,0
0,42,87,0
0,42,92,0
0,42,55,0
0,69,60,1
0,61,77,0
0,40,23,0
0,51,22,0
0,69,88,0
0,54,51,10
0,54,59,32
0,57,64,1
0,51,22,31
0,61,70,0
0,66,63,0
0,57,60,0
0,38,70,0
0,61,69,0
0,61,67,3
0,66,72,0
0,57,71,0
0,57,61,1
0,66,84,2
0,61,84,0
0,57,85,0
0,54,45,0
0,51,21,10
0,42,98,0
0,42,89,0
0,42,43,0
0,66,86,0
0,40,23,1
0,54,46,5
0,54,46,30
0,57,62,0
0,66,102,0
0,51,22,0
0,61,53,0
0,66,51,0
0,57,58,0
0,38,66,0
0,61,67,0
0,64,77,10
0,57,69,0
0,61,50,2
0,66,51,0
0,57,58,0
0,62,69,4
0,54,53,0
0,61,87,1
0,66,87,0
0,57,80,0
0,40,96,2
0,40,57,0
0,55,48,1
0,59,62,0
0,62,64,0
0,64,63,0
0,67,70,0
0,71,55,0
0,40,23,0
0,51,22,0
0,64,82,0
0,40,60,0
0,40,65,0
0,55,55,32
0,52,54,30
0,59,63,2
0,51,22,30
0,38,70,0
0,64,43,0
0,55,41,0
0,59,50,0
0,64,71,0
0,64,68,10
0,55,65,0
0,59,73,0
0,59,59,1
0,55,73,12
0,59,76,0
0,64,78,0
0,55,57,1
0,51,21,1
0,40,100,0
0,40,63,0
0,47,100,0
0,40,73,1
0,40,23,1
0,55,60,28
0,52,58,0
0,43,100,0
0,59,64,0
0,51,22,32
0,55,60,0
0,64,63,0
0,59,59,0
0,67,49,0
0,64,66,0
0,38,66,0
0,47,100,0
0,55,74,0
0,59,77,0
0,64,78,0
0,59,66,2
0,55,78,9
0,59,80,1
0,64,82,0
0,55,66,0
0,45,58,0
0,45,100,0
0,64,61,0
0,61,57,0
0,57,63,0
0,69,66,0
0,40,23,0
0,51,22,0
0,45,84,0
0,45,96,0
0,55,60,1
0,52,61,30
0,61,53,0
0,51,22,31
0,61,53,0
0,57,53,0
0,64,57,0
0,64,66,0
0,38,70,0
0,61,67,10
0,64,73,0
0,55,72,0
0,61,43,2
0,61,77,4
0,64,80,0
0,55,78,0
0,55,54,1
0,71,100,0
0,51,21,0
0,45,99,0
0,45,81,0
0,45,53,0
0,40,23,2
0,55,47,4
0,69,90,0
0,52,55,1
0,61,44,1
0,66,81,0
0,51,22,0
0,45,89,0
0,64,73,0
0,38,66,0
0,55,50,0
0,64,49,0
0,61,46,0
0,61,65,8
0,55,71,0
0,64,71,0
0,61,49,0
0,64,70,0
0,45,100,1
0,55,78,0
0,61,96,0
0,64,95,0
0,55,62,0
0,62,61,0
0,40,23,0
0,51,22,0
0,38,97,0
0,38,78,0
0,50,59,0
0,54,41,32
0,54,52,31
0,57,58,1
0,51,22,30
0,38,70,0
0,62,75,0
0,57,79,0
0,62,76,0
0,74,71,0
0,78,59,0
0,57,67,4
0,54,63,4
0,54,49,0
0,51,21,16
0,38,75,0
0,66,48,1
0,50,50,0
0,60,50,0
0,57,46,0
0,38,91,0
0,66,74,0
0,50,62,0
0,40,23,1
0,54,48,15
0,69,69,0
0,54,44,0
0,57,62,2
0,65,88,0
0,51,22,0
0,57,78,0
0,38,66,0
0,60,85,0
0,62,71,0
0,64,54,3
0,57,64,1
0,62,62,0
0,54,45,1
0,54,49,2
0,64,73,0
0,55,42,1
0,59,42,0
0,62,52,0
0,67,55,0
0,43,52,0
0,40,23,0
0,51,22,0
0,31,96,0
0,43,77,0
0,43,68,0
0,55,58,32
0,55,55,30
0,59,53,2
0,51,22,30
0,38,70,0
0,59,75,0
0,64,75,0
0,62,74,0
0,62,68,0
0,55,79,0
0,74,63,0
0,71,63,0
0,59,58,31
0,55,62,20
0,55,61,2
0,51,21,1
0,40,89,1
0,40,74,0
0,55,81,0
0,64,75,0
0,62,78,0
0,59,78,0
0,40,68,0
0,59,66,0
0,40,23,0
0,55,71,3
0,62,75,0
0,59,68,17
0,51,22,0
0,38,66,0
0,45,65,0
0,61,61,0
0,57,75,0
0,64,83,0
0,61,53,0
0,45,67,0
0,57,65,0
0,66,79,0
0,45,85,29
0,38,85,0
0,54,56,1
0,57,68,0
0,62,73,0
0,66,64,0
0,40,23,0
0,51,22,0
0,50,61,0
0,54,34,0
0,62,52,0
0,66,36,0
0,62,73,0
0,57,70,0
0,38,35,0
0,54,45,29
0,57,58,32
0,51,22,1
0,62,72,0
0,38,70,0
0,54,44,0
0,66,44,0
0,62,71,0
0,57,75,0
0,74,60,0
0,78,52,0
0,57,62,1
0,54,49,2
0,51,21,2
0,38,68,1
0,66,34,0
0,62,66,0
0,54,29,0
0,57,64,0
0,50,53,0
0,40,23,1
0,54,45,29
0,57,65,32
0,51,22,2
0,38,66,0
0,66,71,0
0,54,71,0
0,57,71,0
0,62,71,0
0,62,67,0
0,42,112,3
0,41,81,2
0,40,66,2
0,62,51,0
0,55,55,0
0,59,50,0
0,52,55,0
0,40,23,0
0,51,22,0
0,40,89,0
0,40,71,0
0,55,52,32
0,55,49,30
0,59,63,1
0,51,22,3
0,59,65,0
0,64,70,0
0,62,78,0
0,64,70,0
0,38,70,0
0,59,62,9
0,55,54,3
0,55,28,2
0,51,21,1
0,45,66,0
0,64,61,0
0,61,61,0
0,55,60,0
0,45,51,0
0,33,70,0
0,45,71,1
0,40,23,1
0,55,57,27
0,61,35,0
0,55,49,1
0,51,22,30
0,38,66,0
0,64,71,0
0,61,72,0
0,57,70,0
0,64,65,0
0,61,42,2
0,33,70,3
0,55,54,2
0,55,26,1
0,62,82,0
0,40,23,0
0,51,22,0
0,38,92,0
0,38,85,0
0,50,60,0
0,57,50,30
0,50,56,32
0,62,54,0
0,51,22,30
0,78,41,0
0,38,70,0
0,57,63,0
0,54,63,0
0,62,63,0
0,66,64,0
0,74,47,0
0,57,69,5
0,54,69,0
0,62,69,0
0,62,56,0
0,54,78,3
0,57,78,0
0,62,78,0
0,57,18,0
0,51,21,6
0,50,90,0
0,57,68,0
0,66,64,0
0,54,56,0
0,62,73,0
0,50,57,1
0,40,23,1
0,57,53,3
0,50,61,32
0,62,56,0
0,51,22,9
0,78,47,0
0,38,66,0
0,38,105,0
0,66,69,0
0,74,47,0
0,57,63,0
0,62,63,0
0,54,63,0
0,62,68,3
0,54,68,0
0,57,68,0
0,62,58,0
0,54,74,10
0,62,74,0
0,57,74,0
0,57,53,0
0,64,83,0
0,45,102,2
0,45,48,0
0,40,23,1
0,51,22,0
0,33,78,0
0,55,48,28
0,61,48,30
0,57,53,2
0,51,22,1
0,76,50,0
0,38,70,0
0,61,47,0
0,55,58,0
0,64,58,0
0,64,72,0
0,73,33,0
0,61,68,1
0,55,70,0
0,64,67,1
0,61,34,2
0,61,80,9
0,64,82,0
0,55,79,0
0,55,58,1
0,51,21,10
0,45,93,0
0,64,69,0
0,61,68,0
0,57,71,0
0,67,70,0
0,45,45,1
0,40,23,1
0,55,56,4
0,57,54,5
0,61,55,0
0,51,22,1
0,55,57,0
0,61,45,0
0,64,75,0
0,73,33,0
0,76,47,0
0,38,66,0
0,45,93,0
0,64,54,0
0,55,65,8
0,61,66,0
0,64,63,0
0,61,53,0
0,55,84,10
0,64,85,0
0,61,98,0
0,55,43,0
0,66,74,0
0,38,103,1
0,54,54,1
0,62,67,0
0,60,60,0
0,50,63,0
0,57,60,0
0,40,23,0
0,51,22,0
0,38,85,0
0,50,59,0
0,57,50,29
0,50,60,32
0,62,58,1
0,51,22,30
0,54,54,0
0,60,64,0
0,57,69,0
0,78,50,0
0,74,50,0
0,38,70,0
0,66,66,0
0,60,71,10
0,57,72,1
0,54,62,0
0,62,61,1
0,54,59,9
0,60,75,0
0,57,77,0
0,57,55,0
0,51,21,1
0,38,96,0
0,64,85,0
0,50,53,1
0,40,23,1
0,57,47,6
0,50,63,29
0,62,68,2
0,51,22,1
0,54,50,0
0,78,45,0
0,74,52,0
0,38,66,0
0,57,56,0
0,60,50,0
0,66,70,0
0,62,88,0
0,40,105,9
0,54,59,0
0,57,71,0
0,60,69,0
0,62,66,2
0,42,94,0
0,60,81,0
0,57,85,0
0,54,72,0
0,57,52,2
0,67,83,0
0,59,60,1
0,55,71,0
0,43,56,0
0,62,70,1
0,67,69,0
0,40,23,0
0,51,22,0
0,43,102,0
0,43,81,0
0,55,56,30
0,55,54,32
0,59,60,2
0,51,22,30
0,62,72,0
0,38,70,0
0,59,60,0
0,62,65,0
0,67,66,0
0,55,65,8
0,59,69,0
0,62,68,0
0,67,70,2
0,59,40,0
0,62,88,8
0,59,88,0
0,55,88,0
0,67,88,0
0,55,50,1
0,51,21,10
0,31,100,0
0,43,56,0
0,40,23,1
0,55,53,29
0,59,57,29
0,51,22,1
0,61,75,0
0,64,85,0
0,38,66,0
0,33,72,0
0,57,73,0
0,45,54,0
0,57,67,0
0,61,60,0
0,69,90,0
0,45,109,0
0,40,23,1
0,51,22,0
0,38,102,0
0,50,63,0
0,66,67,0
0,69,67,0
0,74,67,0
0,62,67,0
0,57,67,0
0,50,67,0
0,38,83,0
0,74,93,0
0,54,46,27
0,57,61,33
0,50,65,1
0,51,22,30
0,38,70,0
0,57,57,0
0,62,65,0
0,66,51,0
0,62,75,0
0,66,72,10
0,57,77,0
0,62,80,0
0,57,63,0
0,66,94,3
0,57,89,0
0,62,97,0
0,54,43,0
0,69,93,0
0,51,21,3
0,38,100,0
0,38,93,1
0,50,30,0
0,40,23,1
0,54,43,29
0,50,70,31
0,57,65,1
0,51,22,8
0,66,80,0
0,38,66,0
0,66,71,0
0,57,70,0
0,62,78,0
0,62,75,0
0,57,75,4
0,66,72,0
0,62,78,0
0,57,64,2
0,57,90,10
0,66,92,0
0,62,99,0
0,54,47,0
0,69,80,0
0,42,42,9
0,73,68,0
0,66,67,0
0,57,48,0
0,30,87,0
0,42,92,0
0,42,55,0
0,69,60,1
0,61,77,0
0,40,23,0
0,51,22,0
0,54,51,10
0,54,59,32
0,57,64,1
0,51,22,31
0,61,70,0
0,66,63,0
0,57,60,0
0,38,70,0
0,61,69,0
0,61,67,3
0,66,72,0
0,57,71,0
0,57,61,1
0,66,84,2
0,61,84,0
0,57,85,0
0,54,45,0
0,66,77,0
0,51,21,0
0,30,98,0
0,42,89,0
0,42,43,0
0,40,23,1
0,54,46,5
0,54,46,30
0,57,62,0
0,66,84,0
0,51,22,0
0,61,53,0
0,66,51,0
0,57,58,0
0,38,66,0
0,42,98,0
0,61,67,0
0,64,70,1
0,57,69,0
0,61,50,2
0,66,51,0
0,57,58,0
0,62,57,1
0,54,53,0
0,61,87,1
0,66,87,0
0,57,80,0
0,64,74,0
0,40,96,0
0,40,57,0
0,55,48,1
0,59,62,0
0,62,64,0
0,64,63,0
0,67,70,0
0,71,55,0
0,40,23,0
0,51,22,0
0,40,60,1
0,40,65,0
0,55,55,32
0,52,54,30
0,59,63,2
0,51,22,30
0,38,70,0
0,64,43,0
0,55,41,0
0,59,50,0
0,64,71,0
0,64,68,10
0,55,65,0
0,59,73,0
0,59,59,1
0,55,73,12
0,59,76,0
0,64,78,0
0,55,57,1
0,51,21,1
0,40,100,0
0,40,63,0
0,47,98,0
0,40,73,1
0,40,23,1
0,55,60,28
0,52,58,31
0,43,92,0
0,59,64,0
0,51,22,32
0,55,60,0
0,64,63,0
0,59,59,0
0,67,49,0
0,64,66,0
0,38,66,0
0,47,98,0
0,55,74,0
0,59,77,0
0,64,78,0
0,59,66,2
0,55,78,9
0,59,80,1
0,64,82,0
0,55,66,0
0,45,58,0
0,45,85,0
0,64,61,0
0,61,57,0
0,57,63,0
0,69,66,0
0,40,23,0
0,51,22,0
0,45,84,0
0,45,96,0
0,55,60,31
0,52,61,30
0,61,53,0
0,51,22,31
0,61,53,0
0,57,53,0
0,64,57,0
0,64,66,0
0,38,70,0
