track,note,velocity,time
3,51,105,753
3,58,110,0
3,55,115,1
3,51,0,29
3,55,0,2
3,58,0,3
3,51,110,12
3,58,110,0
3,55,117,1
3,55,0,23
3,51,0,8
3,58,0,2
3,60,117,15
3,56,119,0
3,51,104,0
3,51,0,18
3,60,0,10
3,56,0,5
3,51,115,14
3,51,0,39
3,55,117,9
3,58,115,2
3,51,103,1
3,55,0,24
3,51,0,5
3,58,0,5
3,56,121,10
3,60,119,1
3,51,114,2
3,51,0,19
3,60,0,21
3,51,117,9
3,56,0,13
3,51,0,17
3,51,114,19
3,54,119,1
3,58,123,0
3,54,0,35
3,58,0,1
3,51,0,6
3,51,99,5
3,55,114,1
3,58,108,0
3,55,0,29
3,58,0,7
3,51,0,4
3,51,104,8
3,55,119,0
3,58,114,0
3,55,0,24
3,51,0,1
3,58,0,8
3,60,119,12
3,56,121,1
3,51,105,1
3,51,0,13
3,60,0,16
3,56,0,6
3,51,121,11
3,51,0,35
3,55,119,10
3,58,117,1
3,51,99,4
3,51,0,15
3,55,0,7
3,58,0,9
3,60,119,10
3,56,123,1
3,51,112,2
3,51,0,16
3,60,0,18
3,56,0,7
3,51,112,5
3,51,0,28
3,54,121,22
3,58,119,0
3,51,105,1
3,54,0,35
3,58,0,1
3,51,0,2
3,51,105,10
3,58,110,0
3,55,115,1
3,51,0,29
3,55,0,2
3,58,0,3
3,51,110,12
3,58,110,0
3,55,117,1
3,55,0,23
3,51,0,8
3,58,0,2
3,60,117,15
3,56,119,0
3,51,104,0
3,51,0,18
3,60,0,10
3,56,0,5
3,51,115,14
3,51,0,39
3,55,117,9
3,58,115,2
3,51,103,1
3,55,0,24
3,51,0,5
3,58,0,5
3,56,121,10
3,60,119,1
3,51,114,2
3,51,0,19
3,60,0,21
3,51,117,9
3,56,0,13
3,51,0,17
3,51,114,19
3,54,119,1
3,58,123,0
3,54,0,35
3,58,0,1
3,51,0,6
3,51,99,5
3,55,114,1
3,58,108,0
3,55,0,29
3,58,0,7
3,51,0,4
3,51,104,8
3,55,119,0
3,58,114,0
3,55,0,24
3,51,0,1
3,58,0,8
3,60,119,12
3,56,121,1
3,51,105,1
3,51,0,13
3,60,0,16
3,56,0,6
3,51,121,11
3,51,0,35
3,55,119,10
3,58,117,1
3,51,99,4
3,51,0,15
3,55,0,7
3,58,0,9
3,60,119,10
3,56,123,1
3,51,112,2
3,51,0,16
3,60,0,18
3,56,0,7
3,51,112,5
3,51,0,28
3,54,121,22
3,58,119,0
3,51,105,1
3,54,0,35
3,58,0,1
3,51,0,2
3,51,119,7
3,58,121,2
3,58,0,31
3,51,0,3
3,55,112,12
3,51,107,1
3,58,114,1
3,55,0,26
3,51,0,6
3,58,0,4
3,56,121,9
3,51,114,0
3,60,119,1
3,51,0,26
3,60,0,1
3,56,0,4
3,51,107,15
3,54,121,2
3,58,123,1
3,58,0,36
3,54,0,1
3,51,0,1
3,55,121,11
3,51,110,1
3,58,115,1
3,55,0,32
3,58,0,1
3,51,0,1
3,55,117,12
3,51,108,1
3,58,117,1
3,55,0,33
3,58,0,3
3,51,0,4
3,60,117,2
3,51,102,2
3,51,0,24
3,60,0,5
3,56,126,20
3,51,119,1
3,60,121,0
3,51,0,36
3,51,104,15
3,60,0,27
3,56,0,1
3,51,0,1
3,51,117,16
3,56,121,1
3,60,121,0
3,56,0,36
3,60,0,4
3,51,0,1
3,56,115,9
3,51,104,1
3,51,0,19
3,51,115,27
3,51,0,20
3,56,0,9
3,53,119,15
3,58,114,1
3,62,115,1
3,53,0,28
3,58,0,4
3,62,0,2
3,53,114,12
3,62,115,2
3,58,114,0
3,53,0,34
3,53,114,10
3,62,0,16
3,53,0,5
3,58,0,6
3,54,121,26
3,51,121,1
3,58,123,0
3,51,0,34
3,54,0,0
3,58,0,2
3,51,105,11
3,58,110,0
3,55,115,1
3,51,0,29
3,55,0,2
3,58,0,3
3,51,110,12
3,58,110,0
3,55,117,1
3,55,0,23
3,51,0,8
3,58,0,2
3,60,117,15
3,56,119,0
3,51,104,0
3,51,0,18
3,60,0,10
3,56,0,5
3,51,115,14
3,51,0,39
3,55,117,9
3,58,115,2
3,51,103,1
3,55,0,24
3,51,0,5
3,58,0,5
3,56,121,10
3,60,119,1
3,51,114,2
3,51,0,19
3,60,0,21
3,51,117,9
3,56,0,13
3,51,0,17
3,51,114,19
3,54,119,1
3,58,123,0
3,54,0,35
3,58,0,1
3,51,0,6
3,51,99,5
3,55,114,1
3,58,108,0
3,55,0,29
3,58,0,7
3,51,0,4
3,51,104,8
3,55,119,0
3,58,114,0
3,55,0,24
3,51,0,1
3,58,0,8
3,60,119,12
3,56,121,1
3,51,105,1
3,51,0,13
3,60,0,16
3,56,0,6
3,51,121,11
3,51,0,35
3,55,119,10
3,58,117,1
3,51,99,4
3,51,0,15
3,55,0,7
3,58,0,9
3,60,119,10
3,56,123,1
3,51,112,2
3,51,0,16
3,60,0,18
3,56,0,7
3,51,112,5
3,51,0,28
3,54,121,22
3,58,119,0
3,51,105,1
3,54,0,35
3,58,0,1
3,51,0,2
3,58,108,9
3,55,115,0
3,51,112,0
3,55,0,29
3,51,0,6
3,58,0,1
3,58,112,12
3,51,104,1
3,55,114,0
3,55,0,25
3,58,0,7
3,51,0,2
3,60,114,13
3,56,119,1
3,51,100,2
3,51,0,10
3,60,0,15
3,56,0,10
3,51,115,8
3,58,108,5
3,58,0,22
3,51,0,6
3,58,115,14
3,55,119,1
3,51,105,0
3,51,0,27
3,55,0,0
3,58,0,9
3,60,117,8
3,51,108,1
3,56,119,2
3,51,0,21
3,60,0,18
3,56,0,3
3,51,110,5
3,51,0,29
3,51,114,19
3,56,121,2
3,60,115,0
3,60,0,76
3,51,0,3
3,56,0,2
3,51,115,17
3,60,117,1
3,56,115,1
3,56,0,31
3,56,119,18
3,51,0,21
3,60,0,1
3,51,115,26
3,51,0,22
3,56,0,11
3,62,115,12
3,53,115,0
3,58,112,1
3,53,0,24
3,58,0,9
3,62,0,0
3,53,115,15
3,58,117,1
3,62,119,1
3,62,0,59
3,53,0,6
3,58,0,9
3,51,117,19
3,54,119,1
3,58,121,0
3,54,0,38
3,55,114,12
3,51,0,19
3,55,0,9
3,58,0,6
3,55,117,10
3,58,110,1
3,51,108,0
3,51,0,22
3,55,0,2
3,58,0,9
3,56,123,12
3,60,121,1
3,51,117,2
3,51,0,20
3,60,0,11
3,56,0,6
3,51,110,9
3,51,0,22
3,55,121,25
3,58,121,0
3,51,117,0
3,55,0,26
3,58,0,8
3,51,0,2
3,60,115,10
3,56,123,2
3,51,108,2
3,51,0,14
3,60,0,19
3,56,0,6
3,51,114,6
3,51,0,24
3,51,110,23
3,54,121,1
3,58,121,0
3,58,0,34
3,54,0,1
3,51,0,3
3,51,107,12
3,58,110,0
3,55,114,1
3,51,0,25
3,55,0,5
3,58,0,2
3,51,112,15
3,55,119,0
3,58,119,1
3,55,0,28
3,58,0,5
3,51,0,0
3,56,123,14
3,60,119,0
3,51,103,2
3,51,0,12
3,60,0,18
3,56,0,7
3,51,114,10
3,51,0,28
3,55,117,18
3,51,104,0
3,58,115,1
3,55,0,22
3,51,0,8
3,58,0,2
3,60,115,14
3,56,123,1
3,51,105,3
3,51,0,13
3,60,0,18
3,56,0,9
3,51,108,5
3,51,0,28
3,54,121,23
3,51,110,0
3,58,121,1
3,58,0,33
3,54,0,0
3,51,0,7
3,55,117,8
3,58,114,0
3,51,110,0
3,55,0,30
3,51,0,2
3,58,0,2
3,55,121,14
3,51,108,0
3,58,114,1
3,55,0,25
3,58,0,9
3,51,0,1
3,60,115,11
3,56,119,1
3,51,98,4
3,51,0,8
3,60,0,20
3,56,0,6
3,51,114,8
3,51,0,36
3,55,119,11
3,58,115,1
3,51,104,2
3,51,0,19
3,55,0,7
3,58,0,7
3,55,121,12
3,60,119,0
3,51,114,1
3,51,0,22
3,60,0,13
3,55,0,6
3,58,114,6
3,51,104,3
3,51,0,19
3,58,0,3
3,56,123,24
3,51,117,1
3,60,119,0
3,60,0,74
3,51,0,2
3,56,0,4
3,51,115,17
3,56,121,0
3,60,121,0
3,56,0,32
3,56,117,16
3,60,0,12
3,51,0,2
3,51,114,34
3,51,0,19
3,56,0,11
3,58,110,17
3,62,117,1
3,53,114,1
3,53,0,21
3,58,0,4
3,62,0,2
3,53,115,19
3,62,123,1
3,58,123,1
3,53,0,30
3,53,114,16
3,62,0,13
3,53,0,7
3,58,0,3
3,51,119,25
3,54,121,1
3,58,121,0
3,54,0,36
3,51,0,4
3,55,114,9
3,51,101,2
3,51,0,23
3,55,0,4
3,58,0,4
3,55,117,12
3,51,112,1
3,58,115,0
3,55,0,22
3,51,0,11
3,58,0,2
3,60,115,10
3,56,121,1
3,51,112,1
3,51,0,20
3,60,0,11
3,56,0,7
3,51,107,11
3,51,0,30
3,55,119,19
3,51,112,0
3,58,117,0
3,55,0,25
3,51,0,4
3,58,0,7
3,56,123,11
3,60,117,0
3,51,105,2
3,51,0,21
3,60,0,19
3,56,0,7
3,51,108,3
3,51,0,29
3,54,117,17
3,51,107,0
3,58,121,1
3,58,0,34
3,54,0,0
3,51,0,2
3,51,108,12
3,58,112,0
3,55,115,0
3,55,0,29
3,51,0,1
3,58,0,3
3,55,119,13
3,51,108,0
3,58,114,1
3,55,0,23
3,51,0,9
3,58,0,1
3,60,117,14
3,56,123,0
3,51,101,2
3,51,0,13
3,60,0,17
3,56,0,7
3,51,114,8
3,51,0,33
3,55,117,17
3,58,115,0
3,51,107,1
3,55,0,22
3,51,0,6
3,58,0,5
3,56,121,12
3,60,115,0
3,51,104,2
3,51,0,19
3,60,0,16
3,56,0,8
3,51,112,4
3,51,0,30
3,54,121,17
3,51,112,2
3,58,119,0
3,58,0,34
3,54,0,0
3,51,0,5
3,58,110,9
3,55,117,0
3,51,114,0
3,51,0,30
3,55,0,1
3,58,0,2
3,55,121,15
3,51,110,1
3,58,117,1
3,55,0,25
3,58,0,7
3,51,0,1
3,60,119,12
3,51,108,3
3,51,0,20
3,60,0,22
3,51,108,3
3,51,0,31
3,55,117,16
3,51,107,1
3,58,114,0
3,55,0,26
3,58,0,11
3,51,0,0
3,60,119,10
3,51,112,1
3,55,103,7
3,55,0,11
3,51,0,9
3,51,112,21
3,60,0,6
3,51,0,21
3,56,121,22
3,51,117,1
3,60,115,1
3,61,104,1
3,61,0,10
3,60,0,64
3,51,0,0
3,56,0,3
3,60,121,16
3,51,117,0
3,56,119,1
3,56,0,29
3,56,115,19
3,51,0,13
3,60,0,0
3,51,117,33
3,51,0,22
3,56,0,10
3,53,115,14
3,62,117,1
3,58,112,1
3,53,0,24
3,58,0,6
3,62,0,1
3,53,115,15
3,62,117,2
3,58,114,1
3,58,0,30
3,58,119,17
3,62,0,9
3,53,0,10
3,58,0,8
3,51,115,22
3,54,121,0
3,58,123,1
3,54,0,36
3,58,0,6
3,58,101,5
3,55,115,2
3,51,0,27
3,55,0,3
3,58,0,2
3,51,110,14
3,58,117,0
3,55,119,1
3,55,0,21
3,51,0,8
3,58,0,4
3,60,115,10
3,56,123,3
3,51,105,0
3,51,0,15
3,60,0,16
3,56,0,8
3,51,115,8
3,51,0,27
3,55,123,18
3,58,115,1
3,51,104,1
3,55,0,22
3,51,0,7
3,58,0,3
3,60,108,13
3,56,123,1
3,59,102,2
3,51,101,1
3,51,0,11
3,59,0,10
3,60,0,7
3,56,0,14
3,51,112,3
3,51,0,28
3,51,107,20
3,54,121,1
3,58,119,0
3,54,0,34
3,58,0,1
3,51,0,1
3,55,117,11
3,51,108,1
3,58,107,1
3,51,0,26
3,55,0,0
3,58,0,4
3,55,119,17
3,51,108,0
3,58,114,1
3,55,0,21
3,51,0,7
3,58,0,4
3,60,119,13
3,56,121,1
3,51,107,0
3,51,0,20
3,60,0,13
3,56,0,11
3,51,112,5
3,51,0,30
3,55,121,18
3,58,117,1
3,51,108,2
3,55,0,30
3,51,0,1
3,58,0,3
3,60,115,10
3,55,117,1
3,51,105,1
3,51,0,27
3,60,0,11
3,51,104,12
3,58,115,0
3,55,0,22
3,58,0,7
3,51,0,0
3,55,104,12
3,58,115,5
3,55,0,7
3,58,0,11
3,55,119,28
3,60,114,2
3,63,119,0
3,67,123,2
3,60,0,21
3,55,0,13
3,60,90,0
3,55,108,15
3,60,0,12
3,67,0,5
3,63,0,1
3,55,0,10
3,60,121,19
3,63,123,0
3,67,123,1
3,55,114,2
3,55,0,10
3,67,0,25
3,60,0,7
3,55,112,7
3,63,0,10
3,55,0,9
3,58,123,25
3,65,121,0
3,62,121,1
3,58,0,14
3,62,0,1
3,65,0,1
3,58,126,31
3,62,123,1
3,65,121,0
3,58,0,31
3,58,115,16
3,62,0,12
3,58,0,5
3,65,0,2
3,60,123,30
3,56,123,0
3,63,126,1
3,60,0,75
3,63,0,2
3,56,0,1
3,60,121,16
3,56,114,0
3,63,119,1
3,60,0,23
3,63,0,9
3,56,0,1
3,65,121,13
3,61,123,0
3,56,112,3
3,56,0,16
3,65,0,17
3,61,0,8
3,56,115,5
3,56,0,28
3,60,121,21
3,63,123,1
3,56,119,0
3,63,0,32
3,56,0,7
3,60,0,0
3,60,114,11
3,65,115,1
3,56,108,0
3,56,0,25
3,60,0,10
3,56,110,6
3,63,114,1
3,65,0,1
3,56,0,38
3,60,115,9
3,63,0,1
3,60,0,24
3,60,121,21
3,55,119,0
3,63,121,1
3,67,123,0
3,55,0,60
3,67,0,2
3,60,0,6
3,63,0,1
3,60,121,24
3,67,121,1
3,63,121,0
3,55,121,0
3,55,0,24
3,67,0,21
3,60,0,1
3,55,105,4
3,57,108,3
3,63,0,2
3,57,0,7
3,55,0,7
3,58,126,24
3,65,119,1
3,62,119,0
3,62,0,15
3,58,0,0
3,65,0,3
3,65,121,32
3,58,126,1
3,62,121,0
3,62,0,55
3,58,0,7
3,65,0,0
3,61,123,29
3,56,119,1
3,63,126,1
3,61,0,1
3,60,121,0
3,60,0,73
3,63,0,2
3,56,0,2
3,56,115,17
3,60,121,1
3,63,114,1
3,60,0,24
3,63,0,10
3,56,0,0
3,65,119,13
3,61,123,0
3,56,115,2
3,56,0,16
3,65,0,16
3,61,0,8
3,56,114,8
3,56,0,25
3,60,121,23
3,56,117,0
3,63,119,1
3,60,0,32
3,63,0,3
3,56,0,2
3,65,114,10
3,60,117,0
3,56,114,1
3,65,0,35
3,56,0,3
3,60,0,1
3,63,117,9
3,56,103,5
3,56,0,13
3,63,0,13
3,55,114,14
3,55,0,26
3,60,121,21
3,63,121,1
3,67,121,1
3,55,103,46
3,67,0,6
3,60,0,0
3,63,0,1
3,55,0,14
3,60,123,27
3,63,123,1
3,67,126,0
3,67,0,37
3,60,0,6
3,55,112,5
3,63,0,2
3,55,0,15
3,58,126,33
3,62,119,0
3,65,119,1
3,62,0,12
3,58,0,0
3,65,0,1
3,65,123,35
3,58,126,1
3,62,123,0
3,58,0,29
3,58,115,17
3,62,0,13
3,58,0,6
3,65,0,2
3,60,121,29
3,63,121,0
3,56,119,1
3,56,0,38
3,60,0,2
3,56,112,12
3,60,114,2
3,63,0,16
3,60,0,2
3,56,0,2
3,56,119,25
3,60,126,0
3,63,121,1
3,60,0,27
3,56,0,1
3,63,0,2
3,56,108,17
3,63,119,1
3,60,117,1
3,60,0,26
3,63,0,3
3,56,0,2
3,56,112,13
3,60,119,1
3,63,114,1
3,63,0,24
3,60,0,0
3,56,0,3
3,56,112,18
3,60,121,1
3,63,121,0
3,56,0,27
3,60,0,1
3,63,0,2
3,56,110,16
3,60,121,1
3,63,121,0
3,63,0,33
3,60,0,0
3,56,0,2
3,60,117,13
3,63,112,1
3,56,110,0
3,56,0,26
3,60,0,5
3,63,0,2
3,56,114,12
3,63,108,1
3,60,117,0
3,63,0,14
3,60,0,1
3,56,0,5
3,51,119,27
3,58,114,2
3,55,117,1
3,55,0,27
3,58,0,5
3,55,117,14
3,58,115,2
3,51,0,18
