track,note,velocity,time
0,69,101,1869
0,73,114,0
0,73,0,85
0,69,0,10
0,71,95,60
0,74,100,0
0,74,0,52
0,71,0,13
0,69,68,95
0,72,93,0
0,75,106,0
0,69,0,37
0,75,0,0
0,72,0,20
0,33,123,101
0,40,91,0
0,59,95,0
0,57,83,2
0,61,90,0
0,64,88,0
0,69,91,3
0,73,114,0
0,76,121,0
0,40,0,2
0,59,0,0
0,73,0,48
0,69,0,5
0,76,0,5
0,57,0,4
0,64,0,0
0,61,0,3
0,59,75,83
0,57,68,7
0,61,83,0
0,64,70,0
0,73,92,0
0,76,94,0
0,40,54,0
0,59,0,0
0,69,77,3
0,40,0,4
0,73,0,30
0,76,0,10
0,69,0,1
0,61,0,17
0,64,0,0
0,57,0,5
0,59,74,83
0,61,85,7
0,69,82,0
0,73,103,0
0,76,105,0
0,59,0,0
0,57,67,3
0,64,64,2
0,40,50,0
0,40,0,7
0,73,0,38
0,64,0,0
0,69,0,2
0,57,0,3
0,76,0,2
0,61,0,8
0,33,0,23
0,40,66,62
0,59,74,3
0,40,0,4
0,73,110,3
0,76,114,0
0,59,0,0
0,69,89,3
0,57,78,2
0,61,81,0
0,64,77,0
0,31,99,8
0,73,0,49
0,69,0,11
0,57,0,2
0,76,0,5
0,61,0,2
0,64,0,0
0,40,68,63
0,59,73,5
0,40,0,2
0,59,0,5
0,73,98,3
0,76,104,0
0,69,80,3
0,57,70,2
0,61,76,0
0,64,63,0
0,57,0,42
0,64,0,3
0,73,0,2
0,69,0,3
0,76,0,10
0,61,0,2
0,40,71,73
0,59,76,3
0,40,0,4
0,59,0,3
0,69,90,10
0,73,102,0
0,76,108,0
0,57,57,5
0,61,66,0
0,64,58,0
0,69,0,55
0,73,0,0
0,57,0,7
0,64,0,0
0,76,0,3
0,61,0,15
0,31,0,28
0,40,65,35
0,59,73,0
0,40,0,7
0,59,0,0
0,73,104,5
0,76,109,0
0,57,80,5
0,61,85,0
0,64,75,0
0,69,91,0
0,33,105,10
0,73,0,45
0,69,0,0
0,76,0,10
0,61,0,17
0,57,0,5
0,64,0,5
0,40,55,56
0,59,66,0
0,40,0,7
0,59,0,0
0,57,45,5
0,61,66,0
0,64,47,0
0,69,77,0
0,73,82,0
0,76,93,0
0,57,0,30
0,73,0,0
0,61,0,10
0,69,0,0
0,64,0,10
0,76,0,0
0,40,57,95
0,59,71,3
0,40,0,4
0,57,63,3
0,61,69,0
0,64,54,0
0,69,85,0
0,73,93,0
0,76,99,0
0,59,0,0
0,69,0,37
0,61,0,13
0,73,0,2
0,57,0,10
0,64,0,0
0,76,0,15
0,33,0,20
0,40,62,56
0,59,79,0
0,57,82,7
0,61,90,0
0,64,82,0
0,78,121,0
0,40,0,0
0,59,0,0
0,31,88,3
0,74,106,0
0,57,0,59
0,61,0,3
0,64,0,0
0,78,0,0
0,74,0,10
0,59,94,73
0,40,57,7
0,59,0,0
0,74,86,5
0,76,108,0
0,79,111,0
0,40,0,2
0,57,74,3
0,61,78,0
0,64,75,0
0,61,0,32
0,57,0,23
0,74,0,2
0,76,0,5
0,79,0,0
0,64,0,0
0,59,88,86
0,74,75,7
0,77,104,0
0,80,119,0
0,40,56,0
0,59,0,0
0,57,65,5
0,61,73,0
0,64,64,0
0,40,0,2
0,64,0,30
0,74,0,5
0,61,0,5
0,77,0,5
0,80,0,0
0,31,0,36
0,26,100,55
0,59,83,12
0,62,94,5
0,74,92,0
0,78,114,0
0,81,111,0
0,40,66,0
0,59,0,2
0,66,96,3
0,40,0,2
0,74,0,53
0,78,0,5
0,81,0,0
0,66,0,15
0,62,0,5
0,57,0,12
0,59,87,58
0,57,73,5
0,78,89,0
0,81,93,0
0,40,58,0
0,59,0,2
0,62,75,3
0,66,78,0
0,74,78,0
0,40,0,2
0,78,0,28
0,62,0,2
0,81,0,13
0,74,0,0
0,66,0,5
0,59,80,95
0,59,0,7
0,40,59,1
0,74,94,2
0,78,104,0
0,81,104,0
0,62,82,3
0,66,68,2
0,40,0,0
0,66,0,30
0,78,0,12
0,62,0,3
0,74,0,7
0,81,0,0
0,57,0,3
0,26,0,35
0,30,115,50
0,59,87,10
0,40,62,3
0,57,87,2
0,74,91,0
0,78,109,0
0,81,109,0
0,59,0,2
0,62,95,3
0,66,87,0
0,40,0,0
0,78,0,42
0,74,0,10
0,81,0,5
0,62,0,8
0,66,0,2
0,57,0,33
0,40,60,48
0,59,84,0
0,57,70,7
0,74,81,0
0,78,103,0
0,81,100,0
0,40,0,0
0,59,0,0
0,62,74,5
0,66,74,0
0,74,0,30
0,78,0,7
0,81,0,3
0,66,0,7
0,62,0,3
0,57,0,32
0,59,93,63
0,40,60,3
0,59,0,4
0,57,72,3
0,66,74,0
0,74,91,0
0,78,106,0
0,81,105,0
0,40,0,0
0,62,91,5
0,78,0,42
0,74,0,3
0,81,0,10
0,62,0,0
0,66,0,2
0,57,0,15
0,30,0,45
0,59,94,28
0,40,60,5
0,59,0,2
0,57,85,3
0,66,88,0
0,74,91,0
0,78,110,0
0,81,108,0
0,40,0,2
0,62,91,3
0,33,111,15
0,74,0,27
0,78,0,8
0,81,0,5
0,62,0,7
0,66,0,15
0,57,0,30
0,59,90,36
0,40,61,7
0,59,0,0
0,57,46,5
0,78,100,0
0,81,98,0
0,40,0,2
0,62,82,3
0,66,69,0
0,74,70,0
0,74,0,25
0,78,0,10
0,66,0,2
0,81,0,3
0,62,0,2
0,57,0,40
0,59,91,58
0,59,0,7
0,40,58,1
0,57,78,7
0,66,80,0
0,74,88,0
0,78,109,0
0,81,106,0
0,40,0,0
0,62,86,3
0,81,0,44
0,78,0,3
0,74,0,5
0,62,0,3
0,66,0,7
0,57,0,25
0,33,0,15
0,59,93,43
0,40,55,7
0,59,0,0
0,30,90,3
0,57,87,2
0,66,80,0
0,69,99,0
0,73,115,0
0,40,0,2
0,62,88,3
0,73,0,45
0,69,0,10
0,62,0,7
0,66,0,10
0,57,0,15
0,59,90,56
0,40,59,5
0,59,0,2
0,57,77,5
0,66,85,0
0,71,108,0
0,74,112,0
0,40,0,0
0,62,79,5
0,62,0,27
0,74,0,28
0,71,0,2
0,66,0,78
0,59,89,8
0,40,60,2
0,59,0,5
0,40,0,2
0,62,71,3
0,69,76,0
0,72,108,0
0,75,123,0
0,30,0,40
0,69,0,2
0,57,0,5
0,72,0,0
0,75,0,18
0,62,0,60
0,59,95,23
0,40,66,2
0,33,111,3
0,59,0,2
0,40,0,2
0,57,75,3
0,61,87,0
0,64,80,0
0,69,89,0
0,73,115,0
0,76,117,0
0,69,0,57
0,73,0,5
0,76,0,5
0,64,0,3
0,57,0,32
0,59,84,43
0,40,61,5
0,59,0,2
0,40,0,5
0,57,49,3
0,64,77,0
0,73,91,0
0,76,93,0
0,69,63,5
0,69,0,25
0,64,0,2
0,73,0,10
0,76,0,5
0,61,0,8
0,57,0,0
0,59,88,88
0,40,60,5
0,59,0,2
0,40,0,5
0,61,82,3
0,57,77,2
0,64,75,0
0,69,85,0
0,73,109,0
0,76,105,0
0,64,0,50
0,69,0,0
0,73,0,2
0,76,0,3
0,57,0,10
0,33,0,18
0,61,0,5
0,59,91,55
0,40,62,2
0,59,0,5
0,40,0,2
0,31,91,1
0,57,81,7
0,61,87,0
0,64,84,0
0,69,91,0
0,73,114,0
0,76,111,0
0,69,0,55
0,73,0,0
0,76,0,7
0,64,0,8
0,57,0,15
0,61,0,2
0,59,88,53
0,59,0,7
0,40,57,1
0,40,0,7
0,61,75,3
0,57,65,2
0,64,75,0
0,69,66,0
0,73,95,0
0,76,96,0
0,69,0,30
0,73,0,7
0,76,0,5
0,57,0,18
0,64,0,0
0,61,0,8
0,59,82,72
0,59,0,7
0,40,60,1
0,40,0,7
0,57,51,3
0,61,71,0
0,64,59,2
0,69,86,0
0,73,109,0
0,76,108,0
0,64,0,40
0,69,0,12
0,73,0,0
0,76,0,3
0,57,0,5
0,61,0,15
0,31,0,38
0,33,96,32
0,40,64,3
0,59,88,0
0,40,0,7
0,59,0,0
0,57,84,3
0,61,82,0
0,64,75,0
0,69,85,2
0,73,110,0
0,76,109,0
0,69,0,47
0,64,0,6
0,76,0,2
0,73,0,2
0,61,0,18
0,57,0,30
0,40,63,40
0,59,85,0
0,40,0,7
0,59,0,0
0,57,79,6
0,61,82,0
0,73,100,2
0,76,96,0
0,69,61,3
0,69,0,20
0,73,0,14
0,76,0,3
0,61,0,18
0,57,0,22
0,40,63,63
0,59,87,0
0,40,0,7
0,59,0,0
0,57,75,8
0,61,82,2
0,69,87,0
0,73,107,0
0,76,106,0
0,76,0,37
0,73,0,13
0,69,0,5
0,61,0,5
0,57,0,18
0,33,0,34
0,40,67,31
0,59,84,2
0,40,0,5
0,59,0,2
0,57,78,8
0,61,80,0
0,64,69,0
0,66,115,0
0,69,96,0
0,31,81,3
0,64,0,29
0,69,0,8
0,66,0,12
0,61,0,10
0,57,0,20
0,40,64,61
0,59,80,5
0,40,0,2
0,59,0,5
0,57,77,5
0,61,78,0
0,64,64,0
0,66,95,0
0,69,93,0
0,64,0,20
0,61,0,30
0,66,0,12
0,57,0,5
0,69,0,3
0,40,67,70
0,59,82,0
0,40,0,7
0,59,0,0
0,57,80,13
0,61,76,0
0,64,73,0
0,66,103,0
0,69,96,0
0,61,0,40
0,64,0,12
0,69,0,0
0,57,0,3
0,66,0,7
0,31,0,41
0,28,101,35
0,40,71,5
0,59,88,2
0,40,0,5
0,59,0,2
0,52,89,8
0,56,91,0
0,64,109,0
0,68,119,0
0,59,85,5
0,59,0,35
0,64,0,5
0,68,0,22
0,52,0,20
0,56,0,3
0,40,63,50
0,59,74,5
0,40,0,2
0,59,0,5
0,52,68,6
0,56,72,0
0,59,89,2
0,64,93,0
0,68,104,0
0,64,0,55
0,59,0,5
0,52,0,5
0,68,0,7
0,56,0,3
0,40,71,65
0,59,85,5
0,40,0,2
0,59,0,5
0,52,71,6
0,56,88,0
0,64,93,2
0,68,107,0
0,59,88,3
0,64,0,49
0,59,0,6
0,56,0,5
0,52,0,2
0,68,0,0
0,28,0,43
0,40,66,37
0,32,98,3
0,59,83,0
0,40,0,4
0,59,0,3
0,52,81,5
0,56,91,0
0,64,108,0
0,68,114,0
0,59,91,5
0,64,0,60
0,59,0,0
0,56,0,10
0,68,0,2
0,52,0,15
0,40,66,51
0,59,80,2
0,40,0,5
0,59,0,2
0,52,66,8
0,56,85,0
0,68,109,0
0,64,101,3
0,59,84,2
0,59,0,50
0,64,0,5
0,56,0,5
0,68,0,5
0,52,0,12
0,40,74,61
0,59,88,0
0,40,0,7
0,59,0,0
0,52,66,10
0,56,87,0
0,64,111,0
0,68,115,0
0,59,102,5
0,59,0,50
0,64,0,5
0,56,0,5
0,68,0,7
0,52,0,10
0,32,0,26
0,59,91,40
0,40,74,2
0,59,0,5
0,40,0,2
0,52,83,3
0,56,95,0
0,59,96,0
0,64,101,0
0,68,106,0
0,52,0,2
0,59,0,0
0,64,0,0
0,68,0,0
0,35,100,3
0,52,86,0
0,59,112,0
0,64,117,0
0,68,123,0
0,59,0,55
0,64,0,0
0,68,0,15
0,56,0,7
0,52,0,5
0,59,71,63
0,40,52,3
0,59,0,4
0,59,84,3
0,64,95,0
0,68,97,0
0,40,0,0
0,56,82,3
0,52,71,2
0,59,0,55
0,68,0,7
0,64,0,13
0,56,0,5
0,52,0,2
0,66,127,0
0,40,69,17
0,59,89,2
0,40,0,5
0,59,0,2
0,59,81,1
0,64,95,0
0,68,102,0
0,52,71,5
0,56,87,0
0,59,0,9
0,68,0,10
0,64,0,7
0,56,0,3
0,52,0,5
0,66,0,26
0,35,0,19
0,66,114,18
0,52,73,10
0,59,82,0
0,64,96,0
0,68,100,0
0,59,97,0
0,56,91,3
0,59,0,4
0,40,99,1
0,40,0,7
0,40,86,8
0,59,0,39
0,68,0,5
0,64,0,13
0,56,0,0
0,52,0,12
0,52,59,68
0,64,91,0
0,68,87,0
0,59,66,3
0,56,82,2
0,68,0,37
0,59,0,8
0,64,0,12
0,56,0,5
0,52,0,20
0,66,0,10
0,52,78,63
0,56,93,0
0,59,90,0
0,64,99,0
0,68,106,0
0,40,0,0
0,40,71,5
0,52,57,0
0,40,96,3
0,40,0,4
0,40,0,3
0,52,0,5
0,56,0,22
0,64,0,15
0,68,0,0
0,59,0,5
0,52,0,3
0,45,115,6
0,61,78,0
0,45,115,3
0,55,109,0
0,57,115,0
0,61,119,0
0,64,90,2
0,69,80,0
0,42,127,5
0,42,0,7
0,66,127,0
0,55,0,74
0,57,0,7
0,61,0,8
0,61,0,67
0,64,0,2
0,66,0,28
0,69,0,2
0,64,82,0
0,61,95,2
0,61,102,3
0,57,81,2
0,64,81,3
0,57,87,0
0,67,69,2
0,52,60,8
0,64,0,0
0,61,0,2
0,57,0,3
0,52,0,7
0,67,0,5
0,64,0,5
0,61,0,5
0,57,0,7
0,45,0,65
0,45,0,3
0,55,117,48
0,57,119,0
0,62,121,0
0,40,94,2
0,43,115,5
0,62,79,0
0,66,83,0
0,40,0,2
0,43,115,1
0,71,79,0
0,42,112,0
0,42,0,7
0,64,127,0
0,64,0,182
0,55,0,16
0,57,0,17
0,62,0,5
0,62,0,5
0,61,106,48
0,71,0,0
0,57,102,5
0,64,104,0
0,67,88,0
0,42,80,0
0,61,74,0
0,62,99,0
0,57,80,3
0,55,79,2
0,42,0,0
0,66,0,5
0,61,0,2
0,43,0,3
0,43,0,3
0,61,0,30
0,57,0,0
0,64,0,2
0,67,0,3
0,55,0,22
0,57,0,5
0,62,0,32
0,66,125,0
0,61,73,15
0,40,114,3
0,40,114,2
0,64,86,0
0,69,78,0
0,57,99,2
0,61,100,0
0,42,112,0
0,55,93,2
0,42,0,5
0,55,0,83
0,57,0,6
0,61,0,12
0,64,0,62
0,61,0,20
0,69,0,5
0,66,0,18
0,64,111,0
0,57,100,12
0,61,102,0
0,64,96,3
0,67,80,2
0,61,95,3
0,57,77,2
0,55,66,3
0,40,0,2
0,40,0,2
0,57,0,8
0,61,0,5
0,55,0,0
0,61,0,10
0,64,0,3
0,67,0,7
0,57,0,5
0,64,0,78
0,62,76,30
0,66,85,0
0,71,81,0
0,43,106,2
0,43,106,3
0,57,115,5
0,62,117,0
0,42,117,0
0,42,0,7
0,40,101,3
0,64,114,0
0,40,0,5
0,57,0,203
0,62,0,15
0,62,0,5
0,66,0,17
0,64,0,12
0,43,0,10
0,43,0,3
0,71,0,4
0,57,102,10
0,61,106,0
0,64,102,3
0,62,87,0
0,67,83,2
0,52,69,0
0,55,75,0
0,57,82,0
0,42,76,3
0,61,127,0
0,42,0,0
0,52,0,5
0,67,0,17
0,64,0,2
0,61,0,2
0,57,0,5
0,55,0,9
0,57,0,10
0,62,0,2
0,45,112,30
0,61,77,0
0,64,87,2
0,45,112,3
0,69,76,0
0,55,93,7
0,57,101,0
0,61,99,0
0,42,104,3
0,42,0,7
0,61,0,187
0,55,0,0
0,57,0,8
0,61,0,15
0,61,0,5
0,64,0,5
0,61,117,0
0,69,0,15
0,61,0,20
0,57,102,5
0,61,106,0
0,64,104,3
0,67,85,2
0,45,0,8
0,40,82,2
0,61,84,0
0,40,82,3
0,45,0,0
0,57,66,5
0,40,0,9
0,40,0,3
0,57,0,5
0,61,0,12
0,67,0,0
0,61,0,0
0,64,0,3
0,57,0,2
0,42,125,103
0,42,0,7
0,55,99,6
0,57,111,0
0,62,109,0
0,47,115,2
0,47,115,3
0,62,74,0
0,66,81,0
0,71,72,2
0,40,84,5
0,40,0,7
0,55,0,211
0,62,0,10
0,57,0,7
0,62,0,3
0,66,0,15
0,71,0,17
0,42,93,20
0,42,0,7
0,57,75,1
0,61,102,2
0,57,99,3
0,64,101,0
0,67,88,2
0,62,91,3
0,55,74,5
0,57,84,0
0,57,0,5
0,61,0,37
0,64,0,0
0,67,0,2
0,57,0,1
0,47,0,22
0,47,0,3
0,55,0,5
0,57,0,7
0,62,0,19
