track,note,velocity,time
0,67,95,960
0,74,100,0
0,71,94,0
0,76,101,0
0,79,97,0
0,65,97,0
0,43,114,0
0,55,83,0
0,40,106,0
0,55,94,40
0,65,80,0
0,67,90,0
0,79,82,0
0,71,85,0
0,76,83,0
0,74,84,0
0,43,85,0
0,40,73,5
0,54,92,25
0,66,107,0
0,75,101,0
0,73,97,0
0,70,97,0
0,78,85,0
0,42,89,0
0,40,80,0
0,64,86,2
0,54,83,32
0,64,93,0
0,70,71,0
0,66,81,0
0,73,80,0
0,75,78,0
0,78,71,0
0,42,81,0
0,40,68,0
0,69,78,22
0,74,93,0
0,77,97,0
0,72,89,0
0,65,85,0
0,40,86,0
0,41,106,0
0,63,83,2
0,53,105,0
0,77,88,42
0,69,82,0
0,74,83,0
0,72,78,0
0,65,76,0
0,41,75,0
0,40,77,0
0,63,82,2
0,53,88,0
0,66,95,42
0,73,99,0
0,75,94,0
0,78,92,0
0,70,89,0
0,40,88,0
0,54,94,2
0,64,89,0
0,42,112,0
0,54,85,37
0,70,80,0
0,66,77,0
0,73,78,0
0,78,85,0
0,75,78,0
0,42,86,0
0,40,95,0
0,64,77,2
0,67,100,45
0,74,100,0
0,79,101,0
0,76,104,0
0,71,95,0
0,40,104,0
0,65,115,2
0,55,122,0
0,43,114,0
0,43,100,0
0,43,102,70
0,43,113,57
0,43,119,63
0,43,99,65
0,43,115,52
0,43,112,68
0,36,102,60
0,67,127,0
0,42,84,0
0,36,89,0
0,36,98,0
0,72,90,155
0,76,86,0
0,69,80,0
0,79,83,0
0,67,86,0
0,48,90,0
0,60,91,0
0,64,96,0
0,55,95,0
0,57,85,0
0,42,49,2
0,39,84,15
0,40,104,2
0,40,112,3
0,42,101,0
0,67,113,0
0,67,60,5
0,40,76,0
0,64,73,7
0,42,59,0
0,60,69,0
0,55,78,0
0,48,71,0
0,57,73,0
0,43,87,10
0,72,83,2
0,79,78,0
0,76,78,0
0,43,99,0
0,69,75,3
0,67,119,0
0,42,51,0
0,36,88,0
0,67,80,0
0,48,78,0
0,55,85,0
0,64,73,0
0,57,71,3
0,60,78,0
0,43,65,8
0,42,56,2
0,39,82,0
0,45,99,3
0,40,114,0
0,42,97,0
0,64,66,0
0,60,73,0
0,69,106,0
0,55,81,5
0,57,71,0
0,48,69,0
0,40,68,0
0,67,110,2
0,42,55,0
0,48,96,12
0,42,59,3
0,36,89,0
0,36,87,0
0,72,89,8
0,76,81,0
0,79,83,0
0,69,78,0
0,67,81,0
0,48,90,2
0,60,91,0
0,64,96,0
0,55,95,0
0,57,85,0
0,48,52,0
0,60,52,0
0,64,53,0
0,57,50,0
0,42,51,0
0,39,87,20
0,45,97,2
0,40,112,0
0,42,97,0
0,67,60,18
0,40,69,2
0,64,46,3
0,57,46,0
0,60,45,0
0,48,46,0
0,64,73,2
0,42,60,0
0,60,69,0
0,55,78,0
0,48,71,0
0,57,73,0
0,67,78,28
0,79,67,0
0,69,74,0
0,76,69,0
0,72,79,0
0,43,102,0
0,43,85,3
0,64,46,0
0,48,48,0
0,60,48,0
0,57,46,0
0,42,62,0
0,36,88,0
0,55,85,0
0,64,73,0
0,48,78,0
0,57,71,3
0,60,78,0
0,43,73,8
0,42,56,2
0,39,95,0
0,40,97,0
0,64,44,3
0,60,46,0
0,57,46,0
0,48,45,0
0,40,114,0
0,42,95,0
0,64,66,0
0,60,73,0
0,55,81,5
0,57,71,0
0,48,69,0
0,40,67,35
0,67,85,0
0,42,61,2
0,36,94,0
0,69,113,0
0,42,52,3
0,36,89,0
0,36,97,0
0,72,90,135
0,79,78,0
0,76,79,0
0,69,77,0
0,67,80,0
0,48,90,0
0,60,91,3
0,64,96,0
0,55,95,0
0,57,85,0
0,42,61,2
0,39,91,20
0,40,99,2
0,72,109,3
0,40,112,0
0,42,95,0
0,67,62,10
0,40,67,5
0,64,73,0
0,42,67,0
0,60,69,2
0,55,78,0
0,48,71,0
0,57,73,0
0,69,76,0
0,76,74,0
0,79,75,0
0,72,80,0
0,67,80,0
0,43,102,0
0,72,113,0
0,42,67,3
0,36,88,0
0,55,85,0
0,64,73,0
0,48,78,0
0,43,90,3
0,57,71,0
0,60,78,0
0,43,90,47
0,42,60,5
0,45,97,2
0,40,114,3
0,42,99,0
0,39,87,0
0,64,66,0
0,60,73,0
0,69,119,0
0,55,81,5
0,57,71,0
0,48,69,0
0,40,69,2
0,67,113,0
0,42,50,0
0,48,94,5
0,42,74,3
0,36,89,0
0,36,83,0
0,72,93,137
0,79,83,0
0,69,83,0
0,76,81,0
0,67,90,0
0,48,90,0
0,60,91,3
0,64,96,0
0,55,95,0
0,57,85,0
0,48,52,0
0,60,52,0
0,64,53,0
0,57,50,0
0,42,44,2
0,39,85,20
0,46,89,0
0,40,112,0
0,42,87,0
0,67,55,20
0,40,67,0
0,64,46,3
0,57,46,0
0,60,45,0
0,48,46,0
0,64,73,2
0,42,54,0
0,60,69,2
0,55,78,0
0,48,71,0
0,57,73,0
0,72,88,3
0,79,83,0
0,69,74,0
0,76,80,0
0,67,89,0
0,43,93,0
0,45,102,0
0,64,46,3
0,48,48,0
0,60,48,0
0,57,46,0
0,42,55,0
0,36,88,0
0,55,85,0
0,64,73,0
0,48,78,0
0,57,71,3
0,60,78,0
0,42,62,157
0,43,99,0
0,64,44,3
0,60,46,0
0,57,46,0
0,48,45,0
0,40,114,0
0,42,82,0
0,44,99,0
0,64,66,0
0,60,73,0
0,55,81,5
0,57,71,0
0,48,69,0
0,45,80,7
0,42,79,0
0,41,96,55
0,42,84,0
0,36,89,0
0,41,98,0
0,69,113,0
0,69,86,155
0,77,89,0
0,74,89,0
0,72,83,0
0,41,90,0
0,57,95,3
0,60,85,0
0,62,91,0
0,65,96,0
0,42,49,2
0,44,84,15
0,45,104,2
0,72,113,3
0,40,112,0
0,42,101,0
0,45,76,5
0,65,93,2
0,65,73,5
0,42,59,0
0,57,78,2
0,60,73,0
0,62,69,0
0,41,71,0
0,48,87,10
0,72,81,2
0,69,83,0
0,74,86,0
0,77,90,0
0,48,89,0
0,42,51,3
0,36,88,0
0,57,85,0
0,41,78,0
0,65,73,0
0,60,71,3
0,62,78,0
0,72,113,0
0,42,56,157
0,44,82,0
0,50,88,0
0,40,114,3
0,42,97,0
0,62,73,0
0,65,66,0
0,57,81,5
0,60,71,0
0,41,69,0
0,48,59,30
0,69,112,0
0,45,68,0
0,42,55,2
0,41,90,12
0,42,59,3
0,36,89,0
0,41,98,0
0,72,117,0
0,74,94,115
0,69,83,0
0,72,85,0
0,77,90,0
0,41,90,2
0,57,95,3
0,60,85,0
0,62,91,0
0,65,96,0
0,42,51,2
0,44,84,20
0,45,93,2
0,40,112,3
0,42,97,0
0,74,113,0
0,45,76,5
0,72,113,0
0,65,85,2
0,65,73,0
0,42,60,0
0,57,78,2
0,60,73,0
0,62,69,0
0,41,71,0
0,48,87,10
0,48,86,2
0,72,83,3
0,74,91,0
0,42,62,0
0,36,88,0
0,69,85,0
0,77,89,0
0,57,85,0
0,41,78,0
0,65,73,0
0,60,71,3
0,62,78,0
0,42,56,157
0,44,82,0
0,50,89,0
0,40,114,3
0,42,95,0
0,62,73,0
0,65,66,0
0,57,81,5
0,60,71,0
0,41,69,0
0,48,87,35
0,45,68,0
0,69,121,2
0,42,61,0
0,72,121,0
0,42,52,0
0,36,89,0
0,41,98,0
0,41,110,0
0,69,90,155
0,74,94,0
0,72,89,0
0,77,93,0
0,41,90,0
0,57,95,3
0,60,85,0
0,62,91,0
0,65,96,0
0,42,61,2
0,44,84,20
0,74,110,2
0,45,104,3
0,40,112,0
0,42,95,10
0,45,76,5
0,65,74,5
0,65,73,0
0,42,67,0
0,57,78,2
0,60,73,0
0,62,69,0
0,41,71,0
0,48,87,10
0,77,96,2
0,69,87,0
0,74,93,0
0,48,92,0
0,72,115,0
0,72,86,3
0,42,67,0
0,36,88,0
0,57,85,0
0,41,78,0
0,65,73,0
0,60,71,3
0,62,78,0
0,42,60,157
0,44,82,0
0,50,92,0
0,69,117,0
0,40,114,3
0,42,99,0
0,62,73,0
0,65,66,0
0,57,81,5
0,60,71,0
0,41,69,0
0,67,121,2
0,45,68,0
0,42,50,2
0,36,99,15
0,42,74,0
0,36,89,0
0,36,98,0
0,72,90,77
0,76,86,0
0,69,80,0
0,79,83,0
0,67,86,0
0,48,90,0
0,60,91,3
0,64,96,0
0,55,95,0
0,57,85,0
0,42,44,2
0,39,84,15
0,40,94,2
0,40,112,3
0,42,87,10
0,67,60,5
0,40,76,0
0,67,115,0
0,64,73,7
0,42,54,0
0,60,69,0
0,55,78,0
0,48,71,0
0,57,73,0
0,43,87,10
0,72,83,2
0,79,78,0
0,76,78,0
0,69,117,0
0,69,75,3
0,42,55,0
0,36,88,0
0,67,80,0
0,43,89,0
0,48,78,0
0,55,85,0
0,64,73,0
0,57,71,3
0,60,78,0
0,42,62,157
0,45,82,0
0,67,112,0
0,45,92,3
0,40,114,0
0,42,82,0
0,64,66,0
0,60,73,0
0,55,81,5
0,57,71,0
0,48,69,0
0,43,68,0
0,42,79,0
0,71,106,10
0,38,110,5
0,42,84,0
0,36,89,0
0,38,104,0
0,42,49,160
0,40,106,5
0,55,127,3
0,40,100,0
0,42,101,0
0,62,93,0
0,60,83,0
0,57,88,0
0,65,90,0
0,40,97,0
0,42,59,70
0,41,107,10
0,41,102,0
0,57,127,0
0,42,51,0
0,36,88,0
0,57,90,155
0,62,98,0
0,60,93,0
0,65,100,0
0,55,127,0
0,42,56,2
0,42,93,15
0,40,100,0
0,42,97,0
0,42,92,0
0,59,127,0
0,42,55,2
0,43,116,40
0,53,85,0
0,57,86,0
0,65,89,0
0,59,93,0
0,62,91,0
0,43,106,0
0,42,59,3
0,36,89,0
0,55,109,57
0,57,90,0
0,60,92,8
0,36,104,12
0,60,105,0
0,42,52,3
0,36,89,0
0,36,98,0
0,72,90,155
0,76,86,0
0,69,80,0
0,79,83,0
0,67,86,0
0,48,90,0
0,60,91,3
0,64,96,0
0,55,95,0
0,57,85,0
0,48,52,0
0,60,52,0
0,64,53,0
0,57,50,0
0,42,61,2
0,39,84,15
0,40,112,0
0,42,95,0
0,40,100,0
0,67,60,5
0,40,76,0
0,64,46,5
0,57,46,0
0,60,45,0
0,48,46,0
0,64,73,2
0,42,67,0
0,60,69,0
0,55,78,0
0,48,71,0
0,57,73,0
0,43,87,10
0,72,83,0
0,79,78,0
0,76,78,0
0,43,96,0
0,42,67,0
0,69,75,0
0,64,46,0
0,48,48,0
0,60,48,0
0,57,46,0
0,36,88,0
0,67,80,0
0,48,78,0
0,55,85,0
0,64,73,0
0,57,71,3
0,60,78,0
0,43,65,8
0,42,60,2
0,39,82,0
0,45,96,0
0,64,44,3
0,60,46,0
0,57,46,0
0,48,45,0
0,40,114,0
0,42,99,0
0,64,66,0
0,60,73,0
0,55,81,5
0,57,71,0
0,48,69,0
0,40,68,0
0,42,50,2
0,36,94,12
0,42,74,3
0,36,89,0
0,36,98,0
0,72,90,155
0,76,86,0
0,69,80,0
0,79,83,0
0,67,86,0
0,48,90,0
0,60,91,3
0,64,96,0
0,55,95,0
0,57,85,0
0,48,52,0
0,60,52,0
0,64,53,0
0,57,50,0
0,42,44,2
0,39,84,15
0,40,112,0
0,42,87,0
0,40,99,0
0,67,60,5
0,40,76,0
0,64,46,5
0,57,46,0
0,60,45,0
0,48,46,0
0,64,73,2
0,42,54,0
0,60,69,0
0,55,78,0
0,48,71,0
0,57,73,0
0,43,87,10
0,72,83,0
0,79,78,0
0,76,78,0
0,43,100,0
0,69,75,3
0,64,46,0
0,48,48,0
0,60,48,0
0,57,46,0
0,42,55,0
0,36,88,0
0,67,80,0
0,55,85,0
0,64,73,0
0,48,78,0
0,57,71,3
0,60,78,0
0,43,65,8
0,42,62,2
0,36,82,0
0,45,108,0
0,64,44,3
0,60,46,0
0,57,46,0
0,48,45,0
0,40,114,0
0,42,82,0
0,64,66,0
0,60,73,0
0,55,81,5
0,57,71,0
0,48,69,0
0,67,112,2
0,42,79,0
0,29,96,15
0,29,97,0
0,42,84,0
0,36,89,0
0,69,103,3
0,42,49,157
0,41,59,40
0,57,51,0
0,60,58,0
0,65,56,0
0,62,59,0
0,59,41,0
0,65,41,0
0,62,42,0
0,57,40,0
0,40,112,0
0,42,101,0
0,53,81,0
0,57,87,0
0,62,89,0
0,60,84,0
0,29,84,0
0,69,99,0
0,29,93,5
0,69,83,2
0,42,59,0
0,29,89,3
0,65,78,0
0,60,73,0
0,57,73,0
0,41,73,0
0,62,76,0
0,69,100,0
0,62,50,0
0,57,48,0
0,59,41,0
0,65,46,0
0,42,51,0
0,36,88,0
0,29,83,0
0,42,56,2
0,40,114,0
0,42,97,0
0,29,87,0
0,69,101,0
0,29,94,5
0,71,96,37
0,42,55,0
0,31,77,25
0,42,59,0
0,36,89,0
0,31,93,0
0,71,93,22
0,31,79,5
0,31,60,0
0,42,51,0
0,62,101,15
0,59,107,0
0,57,107,0
0,53,98,0
0,35,96,0
0,59,57,0
0,57,53,0
0,43,65,0
0,62,58,0
0,65,55,0
0,59,41,0
0,65,41,0
0,62,42,0
0,57,40,0
0,40,112,0
0,42,97,0
0,35,90,5
0,59,80,3
0,65,71,0
0,43,78,0
0,57,78,0
0,62,84,0
0,59,41,0
0,65,46,0
0,57,48,0
0,62,50,0
0,59,116,2
0,53,107,0
0,62,116,0
0,57,120,0
0,35,61,0
0,42,60,0
0,35,83,2
0,38,97,3
0,42,62,0
0,36,88,0
0,38,82,0
0,38,100,25
0,38,60,5
0,42,56,0
0,31,100,8
0,40,114,0
0,42,95,0
0,31,94,5
0,67,106,153
0,42,61,2
0,29,96,33
0,29,97,0
0,69,105,0
0,42,52,0
0,36,89,0
0,42,61,160
0,69,91,32
0,62,89,3
0,41,59,0
0,57,51,0
0,60,58,0
0,65,56,0
0,62,59,0
0,59,41,0
0,65,41,0
0,62,42,0
0,57,40,0
0,40,112,0
0,42,95,0
0,53,82,0
0,60,83,0
0,57,90,0
0,29,84,0
0,29,93,5
0,42,67,0
0,69,100,0
0,42,67,0
0,29,89,0
0,65,78,0
0,60,73,0
0,57,73,0
0,41,73,0
0,62,76,0
0,62,50,0
0,57,48,0
0,59,41,0
0,65,46,0
0,36,88,0
0,29,83,0
0,42,60,2
0,40,114,0
0,42,99,0
0,29,87,0
0,69,100,0
0,29,94,5
0,42,50,155
0,31,77,25
0,42,74,0
0,36,89,0
0,31,93,0
0,71,99,0
0,31,79,27
0,31,60,0
0,42,44,0
0,35,96,15
0,59,57,0
0,57,53,0
0,43,65,0
0,62,58,0
0,65,55,0
0,59,41,0
0,57,40,0
0,62,42,0
0,65,41,0
0,40,112,0
0,42,87,0
0,57,75,5
0,35,90,0
0,62,78,3
0,59,72,0
0,53,70,0
0,59,80,3
0,65,71,0
0,43,78,0
0,57,78,0
0,62,84,0
0,59,49,0
0,65,46,0
0,57,48,0
0,62,50,0
0,35,61,2
0,42,54,0
0,62,73,0
0,57,78,2
0,59,79,0
0,53,72,0
0,35,83,0
0,38,97,3
0,42,55,0
0,36,88,0
0,38,82,0
0,38,100,25
0,38,60,5
0,42,62,0
0,31,100,8
0,40,114,0
0,42,82,0
0,31,94,5
0,42,79,155
0,67,95,0
0,29,96,33
0,29,97,0
0,42,84,0
0,36,89,0
0,69,98,3
0,42,49,157
0,69,95,37
0,41,59,3
0,57,51,0
0,60,58,0
0,65,56,0
0,62,59,0
0,59,41,0
0,65,41,0
0,62,42,0
0,57,40,0
0,40,112,0
0,42,101,0
0,57,78,0
0,60,75,0
0,62,70,0
0,53,66,0
0,29,84,0
0,29,93,5
0,69,94,2
0,42,59,0
0,29,89,3
0,65,78,0
0,60,73,0
0,57,73,0
0,41,73,0
0,62,76,0
0,62,50,0
0,57,48,0
0,59,41,0
0,65,46,0
0,42,51,0
0,36,88,0
0,29,83,0
0,69,89,3
0,42,56,2
0,40,114,0
