track,note,velocity,time
1,40,127,2560
1,28,127,128
1,40,127,1240
1,28,127,128
1,52,117,1750
1,52,102,152
1,50,109,128
1,50,99,132
1,49,97,128
1,49,95,126
1,48,105,24
1,48,105,120
1,45,113,42
1,40,108,224
1,37,94,48
1,33,111,222
1,33,107,68
1,45,107,12
1,40,103,226
1,37,94,104
1,37,96,148
1,35,83,12
1,37,89,38
1,47,120,24
1,42,97,152
1,39,88,64
1,35,103,102
1,40,105,106
1,44,100,66
1,47,102,76
1,44,91,72
1,40,127,128
1,40,127,856
1,28,127,128
1,40,127,1240
1,28,127,128
1,52,117,1750
1,52,102,152
1,50,109,128
1,50,99,132
1,49,97,128
1,49,95,126
1,48,105,24
1,48,105,120
1,45,113,42
1,40,108,224
1,37,94,48
1,33,111,222
1,33,107,68
1,45,107,12
1,40,103,226
1,37,94,104
1,37,96,148
1,35,83,12
1,37,89,38
1,47,120,24
1,42,97,152
1,39,88,64
1,35,103,102
1,40,105,106
1,44,100,66
1,47,102,76
1,44,91,72
1,40,127,128
1,40,127,856
1,28,127,128
1,40,127,1240
1,28,127,128
1,52,117,1750
1,52,102,152
1,50,109,128
1,50,99,132
1,49,97,128
1,49,95,126
1,48,105,24
1,48,105,120
1,45,113,42
1,40,108,224
1,37,94,48
1,33,111,222
1,33,107,68
1,45,107,12
1,40,103,226
1,37,94,104
1,37,96,148
1,35,83,12
1,37,89,38
1,47,120,24
1,42,97,152
1,39,88,64
1,35,103,102
1,40,105,106
1,44,100,66
1,47,102,76
1,44,91,72
1,40,127,128
1,40,127,856
1,28,127,128
1,40,127,1240
1,28,127,128
1,52,117,1750
1,52,102,152
1,50,109,128
1,50,99,132
1,49,97,128
1,49,95,126
1,48,105,24
1,48,105,120
1,45,113,42
1,40,108,224
1,37,94,48
1,33,111,222
1,33,107,68
1,45,107,12
1,40,103,226
1,37,94,104
1,37,96,148
1,35,83,12
1,37,89,38
1,47,120,24
1,42,97,152
1,39,88,64
1,35,103,102
1,40,105,106
1,44,100,66
1,47,102,76
1,44,91,72
1,28,127,128
1,32,127,26
1,35,127,32
1,37,127,24
1,35,127,24
1,28,127,24
1,32,127,32
1,35,117,30
1,37,127,16
1,35,127,16
1,28,127,26
1,32,127,14
1,35,121,22
1,37,127,26
1,35,127,28
1,28,127,20
1,32,127,16
1,35,127,28
1,37,127,24
1,35,123,8
1,33,127,18
1,37,122,8
1,40,111,40
1,42,113,50
1,40,96,22
1,33,123,16
1,37,116,0
1,40,113,82
1,42,99,50
1,40,100,24
1,35,117,32
1,39,124,14
1,42,118,40
1,42,109,60
1,39,103,128
1,39,107,74
1,28,127,44
1,32,127,16
1,35,124,32
1,35,123,32
1,37,127,0
1,35,127,34
1,40,127,44
1,40,127,856
1,28,127,128
1,40,127,1240
1,28,127,128
1,52,117,1750
1,52,102,152
1,50,109,128
1,50,99,132
1,49,97,128
1,49,95,126
1,48,105,24
1,48,105,120
1,45,113,42
1,40,108,224
1,37,94,48
1,33,111,222
1,33,107,68
1,45,107,12
1,40,103,226
1,37,94,104
1,37,96,148
1,35,83,12
1,37,89,38
1,47,120,24
1,42,97,152
1,39,88,64
1,35,103,102
1,52,127,362
1,50,123,28
1,49,127,150
1,47,123,0
1,43,118,110
1,42,101,128
1,41,117,82
1,40,127,32
1,41,127,254
1,40,127,44
2,52,122,2560
2,76,116,0
2,71,127,0
2,68,116,0
2,59,105,0
2,68,122,30
2,71,127,0
2,76,118,0
2,52,124,0
2,59,103,0
2,52,116,1278
2,59,108,0
2,68,111,0
2,71,127,0
2,76,110,0
2,71,127,40
2,76,118,0
2,68,119,0
2,59,110,0
2,52,124,0
2,52,122,10522
2,76,116,0
2,71,127,0
2,68,116,0
2,59,105,0
2,68,122,30
2,71,127,0
2,76,118,0
2,52,124,0
2,59,103,0
2,52,116,1278
2,59,108,0
2,68,111,0
2,71,127,0
2,76,110,0
2,71,127,40
2,76,118,0
2,68,119,0
2,59,110,0
2,52,124,0
2,45,90,3354
2,55,81,0
2,61,79,0
2,52,87,0
2,64,83,0
2,64,112,60
2,55,103,0
2,61,109,0
2,45,105,568
2,52,91,0
2,45,90,320
2,52,82,0
2,55,85,128
2,61,96,32
2,55,93,0
2,64,101,0
2,61,105,516
2,64,103,0
2,55,100,0
2,45,73,340
2,52,78,0
2,66,94,0
2,63,86,0
2,57,93,0
2,47,97,0
2,66,103,68
2,57,88,0
2,63,94,0
2,47,84,340
2,66,96,128
2,63,84,0
2,59,91,0
2,40,84,210
2,47,80,256
2,52,88,128
2,59,93,0
2,56,87,0
2,47,76,4
2,52,83,128
2,40,79,232
2,52,96,56
2,56,98,0
2,59,106,0
2,47,92,48
2,52,122,1084
2,76,116,0
2,71,127,0
2,68,116,0
2,59,105,0
2,68,122,30
2,71,127,0
2,76,118,0
2,52,124,0
2,59,103,0
2,52,116,1278
2,59,108,0
2,68,111,0
2,71,127,0
2,76,110,0
2,71,127,40
2,76,118,0
2,68,119,0
2,59,110,0
2,52,124,0
2,76,127,1306
2,79,108,128
2,76,118,122
2,79,106,120
2,81,115,0
2,79,105,128
2,76,116,96
2,81,100,0
2,76,109,128
2,83,104,28
2,76,105,128
2,79,103,108
2,76,106,124
2,81,104,126
2,79,108,88
2,76,108,4
2,45,90,16
2,55,81,0
2,61,79,0
2,52,87,0
2,64,83,0
2,64,112,60
2,55,103,0
2,61,109,0
2,45,105,568
2,52,91,0
2,45,90,320
2,52,82,0
2,55,85,128
2,61,96,32
2,55,93,0
2,64,101,0
2,61,105,516
2,64,103,0
2,55,100,0
2,45,73,340
2,52,78,0
2,66,94,0
2,63,86,0
2,57,93,0
2,47,97,0
2,66,103,68
2,57,88,0
2,63,94,0
2,47,84,340
2,66,96,128
2,63,84,0
2,59,91,0
2,40,84,210
2,47,80,256
2,52,88,128
2,59,93,0
2,56,87,0
2,47,76,4
2,52,83,128
2,40,79,232
2,52,96,56
2,56,98,0
2,59,106,0
2,47,92,48
2,52,122,1084
2,76,116,0
2,71,127,0
2,68,116,0
2,59,105,0
2,68,122,30
2,71,127,0
2,76,118,0
2,52,124,0
2,59,103,0
2,52,116,1278
2,59,108,0
2,68,111,0
2,71,127,0
2,76,110,0
2,71,127,40
2,76,118,0
2,68,119,0
2,59,110,0
2,52,124,0
2,88,127,1306
2,91,108,128
2,88,118,122
2,91,106,120
2,93,115,0
2,91,105,128
2,88,116,96
2,93,100,0
2,88,109,128
2,95,104,28
2,88,105,128
2,91,103,108
2,88,106,124
2,93,104,126
2,91,108,88
2,88,108,4
2,86,127,16
2,45,90,0
2,55,81,0
2,61,79,0
2,52,87,0
2,64,83,0
2,86,127,86
2,64,112,56
2,55,103,0
2,61,109,0
2,86,115,56
2,88,80,128
2,88,105,46
2,45,105,256
2,52,91,0
2,45,90,134
2,52,82,0
2,55,85,128
2,93,127,128
2,91,115,128
2,88,108,32
2,61,96,0
2,55,93,0
2,64,101,0
2,88,102,132
2,61,105,384
2,64,103,0
2,55,100,0
2,86,104,104
2,85,90,8
2,45,73,0
2,52,78,0
2,81,96,0
2,66,94,0
2,63,86,0
2,57,93,0
2,47,97,0
2,83,109,88
2,83,103,68
2,66,103,0
2,57,88,0
2,63,94,0
2,83,118,328
2,47,84,0
2,66,96,62
2,63,84,0
2,59,91,0
2,81,101,20
2,40,84,210
2,47,80,256
2,52,88,128
2,59,93,0
2,56,87,0
2,47,76,4
2,52,83,128
2,40,79,232
2,52,96,56
2,56,98,0
2,59,106,0
2,47,92,48
2,40,116,60
2,47,113,0
2,47,115,170
2,40,109,0
2,49,114,128
2,49,109,138
2,40,94,0
2,47,118,48
2,40,105,0
2,47,112,152
2,40,101,0
2,40,108,40
2,49,114,0
2,47,115,42
2,40,99,0
2,47,105,48
2,40,106,0
2,47,116,184
2,40,112,0
2,40,116,56
2,49,119,0
2,47,106,140
2,40,102,0
2,40,113,62
2,47,108,0
2,47,112,178
2,40,112,0
2,49,119,32
2,40,101,0
2,47,109,48
2,40,100,0
2,40,116,62
2,47,110,0
2,47,118,196
2,40,118,0
2,40,115,60
2,49,114,0
2,47,109,166
2,40,109,0
2,40,115,68
2,47,109,0
2,47,113,196
2,40,106,0
2,40,112,50
2,49,111,0
2,47,109,32
2,40,100,0
2,40,113,64
2,47,106,0
2,47,113,192
2,40,113,0
2,40,113,48
2,49,107,0
2,47,109,150
2,40,108,0
2,40,113,64
2,47,105,0
2,47,109,186
2,40,113,0
2,40,113,48
2,49,103,0
2,40,109,28
2,47,113,0
2,49,98,40
2,57,109,0
2,52,115,0
2,86,120,72
2,91,108,6
2,88,127,64
2,88,127,10
2,57,103,0
2,49,94,0
2,52,113,0
2,93,112,32
2,88,124,128
2,95,122,20
2,57,101,0
2,49,86,0
2,52,108,0
2,88,115,78
2,91,118,48
2,93,116,128
2,49,86,0
2,57,100,0
2,52,108,0
2,88,122,78
2,91,115,34
2,57,97,14
2,52,99,0
2,49,84,0
2,88,127,84
2,91,115,42
2,88,127,128
2,57,102,0
2,52,113,0
2,49,96,0
2,93,120,0
2,91,115,128
2,88,127,8
2,57,100,0
2,49,85,0
2,52,105,0
2,49,94,330
2,57,106,0
2,52,116,0
2,90,127,10
2,86,127,30
2,59,99,24
2,51,87,0
2,54,103,0
2,83,127,80
2,87,119,128
2,83,127,114
2,51,92,0
2,59,106,0
2,54,111,0
2,95,113,18
2,83,116,12
2,90,96,22
2,51,87,0
2,59,103,0
2,54,105,0
2,83,110,72
2,87,114,32
2,54,101,128
2,51,94,0
2,59,100,0
2,83,118,64
2,87,122,36
2,88,108,50
2,59,103,0
2,56,101,0
2,52,98,0
2,88,120,96
2,86,124,18
2,52,99,0
2,59,101,0
2,56,99,0
2,86,102,128
2,85,122,24
2,59,98,0
2,52,99,0
2,56,101,0
2,85,105,118
2,83,108,6
2,59,106,0
2,52,104,0
2,56,107,0
2,52,122,1252
2,76,116,0
2,71,127,0
2,68,116,0
2,59,105,0
2,68,122,30
2,71,127,0
2,76,118,0
2,52,124,0
2,59,103,0
2,52,116,1278
2,59,108,0
2,68,111,0
2,71,127,0
2,76,110,0
2,71,127,40
2,76,118,0
2,68,119,0
2,59,110,0
2,52,124,0
2,88,127,1306
2,91,108,128
2,88,118,122
2,91,106,120
2,93,115,0
2,91,105,128
2,88,116,96
2,93,100,0
2,88,109,128
2,95,104,28
2,88,105,128
2,91,103,108
2,88,106,124
2,93,104,126
2,91,108,88
2,88,108,4
2,86,127,16
2,45,90,0
2,55,81,0
2,61,79,0
2,52,87,0
2,64,83,0
2,86,127,86
2,64,112,56
2,55,103,0
2,61,109,0
2,86,115,56
2,88,80,128
2,88,105,46
2,45,105,256
2,52,91,0
2,45,90,134
2,52,82,0
2,55,85,128
2,93,127,128
2,91,115,128
2,88,108,32
2,61,96,0
2,55,93,0
2,64,101,0
2,88,102,132
2,61,105,384
2,64,103,0
2,55,100,0
2,86,104,104
2,85,90,8
2,45,73,0
2,52,78,0
2,81,96,0
2,66,94,0
2,63,86,0
2,57,93,0
2,47,97,0
2,83,109,88
2,83,103,68
2,66,103,0
2,57,88,0
2,63,94,0
2,83,118,328
2,47,84,0
2,66,96,62
2,63,84,0
2,59,91,0
2,81,101,20
2,41,122,2130
2,60,118,0
2,53,116,0
2,57,124,0
2,40,109,32
2,63,105,0
2,59,124,0
2,52,97,0
2,56,109,0
3,71,124,2560
3,52,122,0
3,68,109,0
3,76,112,0
3,68,116,30
3,76,113,0
3,71,127,0
3,52,120,0
3,68,107,1294
3,76,109,0
3,71,120,0
3,52,127,0
3,76,118,48
3,68,111,0
3,52,122,0
3,71,127,0
3,71,124,10516
3,52,122,0
3,68,109,0
3,76,112,0
3,68,116,30
3,76,113,0
3,71,127,0
3,52,120,0
3,68,107,1294
3,76,109,0
3,71,120,0
3,52,127,0
3,76,118,48
3,68,111,0
3,52,122,0
3,71,127,0
3,45,103,3348
3,52,96,0
3,62,103,512
3,64,109,12
3,67,124,48
3,64,120,8
3,62,100,128
3,64,113,60
3,45,99,24
3,52,88,0
3,62,68,66
3,64,127,262
3,67,110,12
3,64,122,50
3,62,110,14
3,64,112,34
3,51,116,46
3,54,111,512
3,64,97,42
3,66,116,12
3,54,114,512
3,64,102,16
3,40,103,40
3,47,108,0
3,47,99,160
3,40,95,0
3,49,109,16
3,49,93,134
3,40,96,0
3,40,98,34
3,50,113,0
3,40,96,162
3,50,106,0
3,49,119,48
3,40,95,56
3,49,109,0
3,71,124,1076
3,52,122,0
3,68,109,0
3,76,112,0
3,68,116,30
3,76,113,0
3,71,127,0
3,52,120,0
3,68,107,1294
3,76,109,0
3,71,120,0
3,52,127,0
3,76,118,48
3,68,111,0
3,52,122,0
3,71,127,0
3,45,103,3348
3,52,96,0
3,62,103,512
3,64,109,12
3,67,124,48
3,64,120,8
3,62,100,128
3,64,113,60
3,45,99,24
3,52,88,0
3,62,68,66
3,64,127,262
3,67,110,12
3,64,122,50
3,62,110,14
3,64,112,34
3,51,116,46
3,54,111,512
3,64,97,42
3,66,116,12
3,54,114,512
3,64,102,16
3,40,103,40
3,47,108,0
3,47,99,160
3,40,95,0
3,49,109,16
3,49,93,134
3,40,96,0
3,40,98,34
3,50,113,0
3,40,96,162
3,50,106,0
3,49,119,48
3,40,95,56
3,49,109,0
3,71,124,1076
3,52,122,0
3,68,109,0
3,76,112,0
3,68,116,30
3,76,113,0
3,71,127,0
3,52,120,0
3,68,107,1294
3,76,109,0
3,71,120,0
3,52,127,0
3,76,118,48
3,68,111,0
3,52,122,0
3,71,127,0
3,45,103,3348
3,52,96,0
3,62,103,512
3,64,109,12
3,67,124,48
3,64,120,8
3,62,100,128
3,64,113,60
3,45,99,24
3,52,88,0
3,62,68,66
3,64,127,262
3,67,110,12
3,64,122,50
3,62,110,14
3,64,112,34
3,51,116,46
3,54,111,512
3,64,97,42
3,66,116,12
3,54,114,512
3,64,102,16
3,40,103,40
3,47,108,0
3,47,99,160
3,40,95,0
3,49,109,16
3,49,93,134
3,40,96,0
3,40,98,34
3,50,113,0
3,40,96,162
3,50,106,0
3,49,119,48
3,40,95,56
3,49,109,0
3,76,127,52
3,71,122,0
3,71,110,64
3,76,113,0
3,71,122,64
3,76,127,0
3,71,127,70
3,76,127,0
3,71,127,32
3,74,127,52
3,74,127,104
3,76,127,184
3,71,122,0
3,71,113,72
3,76,122,0
3,71,102,70
3,76,112,0
3,71,116,68
3,76,127,0
3,71,127,22
3,74,127,40
3,76,127,376
3,71,127,0
3,71,105,68
3,76,109,0
3,71,100,72
3,76,112,0
3,76,127,72
3,71,124,0
3,71,127,28
3,74,127,52
3,76,127,12
3,71,127,32
3,71,120,40
3,76,127,0
3,76,110,30
3,71,72,0
3,71,108,62
3,76,109,0
3,71,127,72
3,76,127,0
3,76,120,58
3,71,110,0
3,71,122,66
3,76,124,0
3,71,127,72
3,76,127,0
3,71,122,70
3,76,127,0
3,71,127,68
3,76,127,0
3,76,127,70
3,71,127,0
3,71,124,70
3,76,127,0
3,71,127,72
3,76,127,0
3,52,105,70
3,45,98,0
3,45,96,136
3,52,108,0
3,54,116,48
3,45,88,0
3,45,97,144
3,54,98,0
3,45,84,44
3,52,102,0
3,45,96,176
3,52,110,0
3,54,103,36
3,45,87,0
3,45,85,56
3,52,96,0
3,45,100,54
3,52,115,0
3,52,112,182
3,45,98,0
3,54,111,26
3,45,80,0
3,52,112,146
3,45,101,0
3,52,112,66
3,45,96,0
3,45,99,154
3,52,110,0
3,54,105,38
3,45,90,0
3,45,92,80
3,52,106,0
3,54,99,48
3,47,105,0
3,54,105,172
3,47,96,0
3,56,109,28
3,47,90,0
3,54,99,158
3,47,100,0
3,47,96,48
3,54,96,0
3,54,101,136
3,47,92,0
3,47,99,68
3,54,107,0
3,47,95,104
3,54,89,0
3,47,97,66
3,40,109,0
3,47,104,164
3,40,108,0
3,40,106,14
3,49,111,0
3,47,103,142
3,40,106,0
3,47,102,48
3,40,112,0
3,47,106,146
3,40,112,0
3,40,112,44
3,49,119,0
3,47,118,92
