track,note,velocity,time
1,34,60,2676
1,58,67,52
1,53,70,4
1,62,75,0
1,34,90,0
1,38,96,40
1,58,66,248
1,53,69,8
1,41,92,60
1,58,75,20
1,53,74,0
1,62,76,0
1,41,76,8
1,43,96,52
1,58,71,248
1,53,74,0
1,62,70,8
1,34,70,40
1,58,77,48
1,34,81,0
1,53,74,4
1,62,71,4
1,38,104,40
1,58,74,248
1,53,74,0
1,62,70,4
1,41,92,60
1,58,82,44
1,53,79,8
1,62,79,0
1,41,78,0
1,43,102,56
1,58,81,248
1,53,80,4
1,62,82,0
1,34,77,0
1,58,77,60
1,53,75,0
1,62,79,0
1,34,76,0
1,38,107,48
1,58,85,256
1,53,82,0
1,62,85,0
1,41,89,52
1,58,86,20
1,53,80,0
1,62,82,0
1,41,81,0
1,43,100,40
1,58,82,252
1,53,80,4
1,62,78,0
1,34,76,32
1,58,81,60
1,53,79,0
1,62,82,0
1,34,70,0
1,38,104,40
1,58,85,256
1,53,82,0
1,62,85,0
1,41,98,32
1,58,86,28
1,53,82,0
1,62,80,0
1,41,81,0
1,43,102,20
1,58,93,24
1,53,89,0
1,62,85,0
1,34,60,68
1,58,67,52
1,53,70,4
1,62,75,0
1,34,90,0
1,38,96,40
1,58,66,248
1,53,69,8
1,41,92,60
1,58,75,20
1,53,74,0
1,62,76,0
1,41,76,8
1,43,96,52
1,58,71,248
1,53,74,0
1,62,70,8
1,34,70,40
1,58,77,48
1,34,81,0
1,53,74,4
1,62,71,4
1,38,104,40
1,58,74,248
1,53,74,0
1,62,70,4
1,41,92,60
1,58,82,44
1,53,79,8
1,62,79,0
1,41,78,0
1,43,102,56
1,58,81,248
1,53,80,4
1,62,82,0
1,34,77,0
1,58,77,60
1,53,75,0
1,62,79,0
1,34,76,0
1,38,107,48
1,58,85,256
1,53,82,0
1,62,85,0
1,41,89,52
1,58,86,20
1,53,80,0
1,62,82,0
1,41,81,0
1,43,100,40
1,58,82,252
1,53,80,4
1,62,78,0
1,34,76,32
1,58,81,60
1,53,79,0
1,62,82,0
1,34,70,0
1,38,104,40
1,58,85,256
1,53,82,0
1,62,85,0
1,41,98,32
1,58,86,28
1,53,82,0
1,62,80,0
1,41,81,0
1,43,102,20
1,58,93,24
1,53,89,0
1,62,85,0
1,34,60,68
1,58,67,52
1,53,70,4
1,62,75,0
1,34,90,0
1,38,96,40
1,58,66,248
1,53,69,8
1,41,92,60
1,58,75,20
1,53,74,0
1,62,76,0
1,41,76,8
1,43,96,52
1,58,71,248
1,53,74,0
1,62,70,8
1,34,70,40
1,58,77,48
1,34,81,0
1,53,74,4
1,62,71,4
1,38,104,40
1,58,74,248
1,53,74,0
1,62,70,4
1,41,92,60
1,58,82,44
1,53,79,8
1,62,79,0
1,41,78,0
1,43,102,56
1,58,81,248
1,53,80,4
1,62,82,0
1,34,77,0
1,39,99,2880
1,58,69,260
1,60,77,0
1,63,64,0
1,55,74,0
1,43,94,36
1,63,70,256
1,58,69,0
1,60,74,0
1,55,68,0
1,46,97,24
1,63,78,264
1,58,85,0
1,55,81,0
1,60,74,0
1,48,88,28
1,58,82,256
1,63,76,0
1,55,81,4
1,60,77,0
1,41,89,36
1,60,81,256
1,63,69,0
1,57,78,0
1,45,98,44
1,60,75,256
1,63,62,0
1,57,72,0
1,48,92,32
1,63,73,252
1,60,82,0
1,57,79,0
1,50,96,52
1,63,69,256
1,60,74,0
1,57,74,0
1,46,92,52
1,62,76,256
1,58,75,0
1,53,74,0
1,43,93,40
1,62,81,256
1,58,78,0
1,53,76,0
1,41,94,32
1,58,79,256
1,62,81,0
1,53,78,0
1,38,93,32
1,58,70,248
1,62,74,0
1,53,66,0
1,34,90,24
1,62,74,248
1,53,65,8
1,58,67,0
1,38,93,28
1,58,75,256
1,62,80,0
1,53,77,0
1,41,93,36
1,58,81,252
1,53,77,4
1,62,81,0
1,43,95,40
1,53,74,248
1,58,69,0
1,62,77,0
1,34,60,68
1,58,67,52
1,53,70,4
1,62,75,0
1,34,90,0
1,38,96,40
1,58,66,248
1,53,69,8
1,41,92,60
1,58,75,20
1,53,74,0
1,62,76,0
1,41,76,8
1,43,96,52
1,58,71,248
1,53,74,0
1,62,70,8
1,34,70,40
1,58,77,48
1,34,81,0
1,53,74,4
1,62,71,4
1,38,104,40
1,58,74,248
1,53,74,0
1,62,70,4
1,41,92,60
1,58,82,44
1,53,79,8
1,62,79,0
1,41,78,0
1,43,102,56
1,58,81,248
1,53,80,4
1,62,82,0
1,34,77,0
1,58,77,60
1,53,75,0
1,62,79,0
1,34,76,0
1,38,107,48
1,58,85,256
1,53,82,0
1,62,85,0
1,41,89,52
1,58,86,20
1,53,80,0
1,62,82,0
1,41,81,0
1,43,100,40
1,58,82,252
1,53,80,4
1,62,78,0
1,34,76,32
1,58,81,60
1,53,79,0
1,62,82,0
1,34,70,0
1,38,104,40
1,58,85,256
1,53,82,0
1,62,85,0
1,41,98,32
1,58,86,28
1,53,82,0
1,62,80,0
1,41,81,0
1,43,102,20
1,58,93,24
1,53,89,0
1,62,85,0
1,34,60,68
1,58,67,52
1,53,70,4
1,62,75,0
1,34,90,0
1,38,96,40
1,58,66,248
1,53,69,8
1,41,92,60
1,58,75,20
1,53,74,0
1,62,76,0
1,41,76,8
1,43,96,52
1,58,71,248
1,53,74,0
1,62,70,8
1,34,70,40
1,58,77,48
1,34,81,0
1,53,74,4
1,62,71,4
1,38,104,40
1,58,74,248
1,53,74,0
1,62,70,4
1,41,92,60
1,58,82,44
1,53,79,8
1,62,79,0
1,41,78,0
1,43,102,56
1,58,81,248
1,53,80,4
1,62,82,0
1,34,77,0
1,39,99,2880
1,58,69,260
1,60,77,0
1,63,64,0
1,55,74,0
1,43,94,36
1,63,70,256
1,58,69,0
1,60,74,0
1,55,68,0
1,46,97,24
1,63,78,264
1,58,85,0
1,55,81,0
1,60,74,0
1,48,88,28
1,58,82,256
1,63,76,0
1,55,81,4
1,60,77,0
1,41,89,36
1,60,81,256
1,63,69,0
1,57,78,0
1,45,98,44
1,60,75,256
1,63,62,0
1,57,72,0
1,48,92,32
1,63,73,252
1,60,82,0
1,57,79,0
1,50,96,52
1,63,69,256
1,60,74,0
1,57,74,0
1,46,92,52
1,62,76,256
1,58,75,0
1,53,74,0
1,43,93,40
1,62,81,256
1,58,78,0
1,53,76,0
1,41,94,32
1,58,79,256
1,62,81,0
1,53,78,0
1,38,93,32
1,58,70,248
1,62,74,0
1,53,66,0
1,34,90,24
1,62,74,248
1,53,65,8
1,58,67,0
1,38,93,28
1,58,75,256
1,62,80,0
1,53,77,0
1,41,93,36
1,58,81,252
1,53,77,4
1,62,81,0
1,43,95,40
1,53,74,248
1,58,69,0
1,62,77,0
1,39,103,64
1,60,66,252
1,58,73,0
1,55,75,0
1,63,66,0
1,43,98,68
1,60,64,248
1,58,75,0
1,63,66,0
1,55,69,0
1,46,79,60
1,60,68,248
1,58,78,0
1,63,66,0
1,55,74,0
1,43,92,64
1,60,66,248
1,58,78,0
1,63,64,0
1,55,75,4
1,39,98,48
1,60,66,252
1,58,77,0
1,63,64,0
1,55,73,4
1,43,95,68
1,60,71,252
1,58,81,0
1,63,71,0
1,55,77,4
1,46,70,56
1,60,68,248
1,63,69,0
1,58,77,0
1,55,77,8
1,43,93,40
1,60,62,252
1,63,68,0
1,58,73,0
1,55,74,0
1,34,85,64
1,58,63,244
1,53,69,0
1,62,69,0
1,38,88,40
1,62,78,248
1,53,73,0
1,58,68,0
1,41,88,32
1,58,68,252
1,53,71,0
1,62,71,0
1,38,92,40
1,62,80,244
1,58,72,0
1,53,73,0
1,34,93,56
1,58,68,248
1,62,74,0
1,53,71,0
1,56,71,0
1,38,87,52
1,53,73,252
1,58,71,0
1,56,71,0
1,62,80,0
1,41,88,48
1,53,76,252
1,62,80,0
1,58,71,0
1,56,73,0
1,38,93,44
1,53,76,252
1,58,72,0
1,62,80,0
1,56,75,0
1,39,96,64
1,60,71,248
1,58,73,0
1,55,80,0
1,63,68,4
1,43,88,48
1,60,71,252
1,58,78,0
1,63,71,0
1,55,78,0
1,46,85,40
1,60,62,256
1,63,68,0
1,58,69,0
1,55,73,0
1,43,92,44
1,60,68,248
1,58,79,0
1,63,71,0
1,55,80,0
1,39,93,32
1,60,63,256
1,58,74,0
1,63,68,0
1,55,76,0
1,43,88,60
1,60,77,252
1,58,88,0
1,63,78,0
1,55,85,0
1,46,80,60
1,60,77,256
1,63,77,0
1,58,86,0
1,55,84,0
1,43,100,20
1,63,88,88
1,53,95,4
1,60,95,4
1,57,85,0
1,41,110,0
1,34,60,2872
1,58,67,52
1,53,70,4
1,62,75,0
1,34,90,0
1,38,96,40
1,58,66,248
1,53,69,8
1,41,92,60
1,58,75,20
1,53,74,0
1,62,76,0
1,41,76,8
1,43,96,52
1,58,71,248
1,53,74,0
1,62,70,8
1,34,70,40
1,58,77,48
1,34,81,0
1,53,74,4
1,62,71,4
1,38,104,40
1,58,74,248
1,53,74,0
1,62,70,4
1,41,92,60
1,58,82,44
1,53,79,8
1,62,79,0
1,41,78,0
1,43,102,56
1,58,81,248
1,53,80,4
1,62,82,0
1,34,77,0
1,58,77,60
1,53,75,0
1,62,79,0
1,34,76,0
1,38,107,48
1,58,85,256
1,53,82,0
1,62,85,0
1,41,89,52
1,58,86,20
1,53,80,0
1,62,82,0
1,41,81,0
1,43,100,40
1,58,82,252
1,53,80,4
1,62,78,0
1,34,76,32
1,58,81,60
1,53,79,0
1,62,82,0
1,34,70,0
1,38,104,40
1,58,85,256
1,53,82,0
1,62,85,0
1,41,98,32
1,58,86,28
1,53,82,0
1,62,80,0
1,41,81,0
1,43,102,20
1,58,93,24
1,53,89,0
1,62,85,0
1,34,60,68
1,58,67,52
1,53,70,4
1,62,75,0
1,34,90,0
1,38,96,40
1,58,66,248
1,53,69,8
1,41,92,60
1,58,75,20
1,53,74,0
1,62,76,0
1,41,76,8
1,43,96,52
1,58,71,248
1,53,74,0
1,62,70,8
1,34,70,40
1,58,77,48
1,34,81,0
1,53,74,4
1,62,71,4
1,38,104,40
1,58,74,248
1,53,74,0
1,62,70,4
1,41,92,60
1,58,82,44
1,53,79,8
1,62,79,0
1,41,78,0
1,43,102,56
1,58,81,248
1,53,80,4
1,62,82,0
1,34,77,0
1,39,99,2880
1,58,69,260
1,60,77,0
1,63,64,0
1,55,74,0
1,43,94,36
1,63,70,256
1,58,69,0
1,60,74,0
1,55,68,0
1,46,97,24
1,63,78,264
1,58,85,0
1,55,81,0
1,60,74,0
1,48,88,28
1,58,82,256
1,63,76,0
1,55,81,4
1,60,77,0
1,41,89,36
1,60,81,256
1,63,69,0
1,57,78,0
1,45,98,44
1,60,75,256
1,63,62,0
1,57,72,0
1,48,92,32
1,63,73,252
1,60,82,0
1,57,79,0
1,50,96,52
1,63,69,256
1,60,74,0
1,57,74,0
1,46,92,52
1,62,76,256
1,58,75,0
1,53,74,0
1,43,93,40
1,62,81,256
1,58,78,0
1,53,76,0
1,41,94,32
1,58,79,256
1,62,81,0
1,53,78,0
1,38,93,32
1,58,70,248
1,62,74,0
1,53,66,0
1,34,90,24
1,62,74,248
1,53,65,8
1,58,67,0
1,38,93,28
1,58,75,256
1,62,80,0
1,53,77,0
1,41,93,36
1,58,81,252
1,53,77,4
1,62,81,0
1,43,83,36
1,53,74,252
1,58,69,0
1,62,77,0
1,39,103,64
1,60,66,252
1,58,73,0
1,55,75,0
1,63,66,0
1,43,98,68
1,60,64,248
1,58,75,0
1,63,66,0
1,55,69,0
1,46,79,60
1,60,68,248
1,58,78,0
1,63,66,0
1,55,74,0
1,43,92,64
1,60,66,248
1,58,78,0
1,63,64,0
1,55,75,4
1,39,98,48
1,60,66,252
1,58,77,0
1,63,64,0
1,55,73,4
1,43,95,68
1,60,71,252
1,58,81,0
1,63,71,0
1,55,77,4
1,46,70,56
1,60,68,248
1,63,69,0
1,58,77,0
1,55,77,8
1,43,93,40
1,60,62,252
1,63,68,0
1,58,73,0
1,55,74,0
1,34,85,64
1,58,63,244
1,53,69,0
1,62,69,0
1,38,88,40
1,62,78,248
1,53,73,0
1,58,68,0
1,41,88,32
1,58,68,252
1,53,71,0
1,62,71,0
1,38,92,40
1,62,80,244
1,58,72,0
1,53,73,0
1,34,93,56
1,58,68,248
1,62,74,0
1,53,71,0
1,38,87,52
1,53,73,252
1,58,71,0
1,62,80,0
1,41,88,48
1,53,76,252
1,62,80,0
1,58,71,0
1,38,93,44
1,53,76,252
1,58,72,0
1,62,80,0
1,39,96,64
1,60,71,248
1,55,80,0
1,58,73,0
1,63,68,4
1,43,88,48
1,60,71,252
1,58,78,0
1,63,71,0
1,55,78,0
1,46,85,40
1,60,62,256
1,63,68,0
1,58,69,0
1,55,73,0
1,43,92,44
1,60,68,248
1,58,79,0
1,63,71,0
1,55,80,0
1,39,93,32
1,60,63,256
1,58,74,0
1,63,68,0
1,55,76,0
1,43,88,60
1,60,77,252
1,58,88,0
1,63,78,0
1,55,85,0
1,46,80,60
1,60,77,256
1,63,77,0
1,58,86,0
1,55,84,0
1,43,100,20
1,63,88,88
1,53,95,4
1,60,95,4
1,57,85,0
1,41,110,0
1,34,81,2872
1,58,67,52
1,53,70,4
1,62,75,0
1,34,90,0
1,38,91,40
1,58,66,248
1,53,69,8
1,41,92,60
1,58,75,20
1,53,74,0
1,62,76,0
1,41,76,8
1,43,96,52
1,58,71,248
1,53,74,0
1,62,70,8
1,34,70,40
1,58,77,48
1,34,81,0
1,53,74,4
1,62,71,4
1,38,88,40
1,58,74,248
1,53,74,0
1,62,70,4
1,41,92,60
1,58,82,44
1,53,79,8
1,62,79,0
1,41,78,0
1,43,88,56
1,58,81,248
1,53,80,4
1,62,82,0
1,34,77,0
1,58,77,60
1,53,75,0
1,62,79,0
1,34,76,0
1,38,91,48
1,58,85,256
1,53,82,0
1,62,85,0
1,41,89,52
1,58,86,20
1,53,80,0
1,62,82,0
1,41,81,0
1,43,100,40
1,58,82,252
1,53,80,4
1,62,78,0
1,34,76,32
1,58,81,60
1,53,79,0
1,62,82,0
1,34,70,0
1,38,104,40
1,58,85,256
1,53,82,0
1,62,85,0
1,41,98,32
1,58,86,28
1,53,82,0
1,62,80,0
1,41,81,0
1,43,102,20
1,58,93,24
1,53,89,0
1,62,85,0
1,34,71,68
1,58,67,52
1,53,70,4
1,62,75,0
1,34,90,0
1,38,89,40
1,58,66,248
1,53,69,8
1,41,92,60
1,58,75,20
1,53,74,0
1,62,76,0
1,41,76,8
1,43,87,52
1,58,71,248
1,53,74,0
1,62,70,8
1,34,70,40
1,58,77,48
1,34,81,0
1,53,74,4
1,62,71,4
1,38,104,40
1,58,74,248
1,53,74,0
1,62,70,4
1,41,92,60
1,58,82,44
1,53,79,8
1,62,79,0
1,41,78,0
1,43,102,56
1,58,81,248
1,53,80,4
1,62,82,0
1,34,77,0
1,39,99,2880
1,58,69,260
1,60,77,0
1,63,64,0
1,55,74,0
1,43,94,36
1,63,70,256
1,58,69,0
1,60,74,0
1,55,68,0
1,46,97,24
1,63,78,264
1,58,85,0
1,55,81,0
1,60,74,0
1,48,88,28
1,58,82,256
1,63,76,0
1,55,81,4
1,60,77,0
1,41,89,36
1,60,81,256
1,63,69,0
1,57,78,0
1,45,98,44
1,60,75,256
1,63,62,0
1,57,72,0
1,48,92,32
1,63,73,252
1,60,82,0
1,57,79,0
1,50,96,52
1,63,69,256
1,60,74,0
1,57,74,0
1,46,92,52
1,62,76,256
1,58,75,0
1,53,74,0
1,43,93,40
1,62,81,256
1,58,78,0
1,53,76,0
1,41,94,32
1,58,79,256
1,62,81,0
1,53,78,0
1,38,93,32
1,58,70,248
1,62,74,0
1,53,66,0
1,34,90,24
1,62,74,248
1,53,65,8
1,58,67,0
1,38,93,28
1,58,75,256
1,62,80,0
1,53,77,0
1,41,93,36
1,58,81,252
1,53,77,4
1,62,81,0
1,43,83,36
1,53,74,252
1,58,69,0
