track,note,velocity,time
1,44,123,0
1,44,0,175
1,44,108,65
1,44,0,150
1,48,127,85
1,48,0,195
1,48,125,50
1,48,0,155
1,51,114,90
1,51,0,205
1,51,111,35
1,51,0,155
1,53,122,90
1,53,0,200
1,51,118,5
1,51,0,155
1,44,126,105
1,44,0,200
1,44,126,30
1,44,0,145
1,48,109,100
1,48,0,200
1,48,127,40
1,48,0,150
1,51,112,85
1,51,0,190
1,51,127,70
1,51,0,145
1,53,120,75
1,53,0,200
1,51,111,65
1,51,0,155
1,39,120,80
1,39,0,190
1,39,122,40
1,39,0,150
1,43,109,85
1,43,0,200
1,43,127,45
1,43,0,160
1,46,118,90
1,46,0,200
1,46,118,35
1,46,0,160
1,48,114,65
1,48,0,200
1,46,109,50
1,46,0,145
1,39,118,95
1,39,0,195
1,39,127,30
1,39,0,155
1,43,117,80
1,43,0,205
1,43,108,60
1,43,0,155
1,46,127,75
1,46,0,210
1,46,80,20
1,46,0,155
1,48,116,105
1,48,0,100
1,46,125,0
1,46,0,205
1,46,111,45
1,46,0,150
1,50,120,60
1,50,0,195
1,50,122,65
1,50,0,160
1,53,120,85
1,53,0,195
1,53,123,35
1,53,0,160
1,55,127,85
1,55,0,190
1,53,84,60
1,53,0,125
1,44,127,105
1,44,0,200
1,44,114,40
1,44,0,155
1,48,120,80
1,48,0,195
1,48,116,65
1,48,0,145
1,51,122,85
1,51,0,210
1,51,124,10
1,51,0,160
1,53,127,90
1,53,0,205
1,51,116,50
1,51,0,150
1,39,122,80
1,39,0,195
1,39,123,30
1,39,0,155
1,43,108,105
1,43,0,205
1,43,126,40
1,43,0,145
1,46,111,100
1,46,0,200
1,46,127,30
1,46,0,150
1,48,125,100
1,48,0,190
1,46,126,40
1,46,0,155
1,39,127,80
1,39,0,200
1,39,117,35
1,39,0,145
1,43,113,100
1,43,0,200
1,43,127,40
1,43,0,195
1,46,118,285
1,46,0,125
1,48,115,100
1,48,0,390
1,44,123,15470
1,44,0,175
1,44,108,65
1,44,0,150
1,48,127,85
1,48,0,195
1,48,125,50
1,48,0,155
1,51,114,90
1,51,0,205
1,51,111,35
1,51,0,155
1,53,122,90
1,53,0,200
1,51,118,5
1,51,0,155
1,44,126,105
1,44,0,200
1,44,126,30
1,44,0,145
1,48,109,100
1,48,0,200
1,48,127,40
1,48,0,150
1,51,112,85
1,51,0,190
1,51,127,70
1,51,0,145
1,53,120,75
1,53,0,200
1,51,111,65
1,51,0,155
1,39,120,80
1,39,0,190
1,39,122,40
1,39,0,150
1,43,109,85
1,43,0,200
1,43,127,45
1,43,0,160
1,46,118,90
1,46,0,200
1,46,118,35
1,46,0,160
1,48,114,65
1,48,0,200
1,46,109,50
1,46,0,145
1,39,118,95
1,39,0,195
1,39,127,30
1,39,0,155
1,43,117,80
1,43,0,205
1,43,108,60
1,43,0,155
1,46,127,75
1,46,0,210
1,46,80,20
1,46,0,155
1,48,116,105
1,48,0,100
1,46,125,0
1,46,0,205
1,46,111,45
1,46,0,150
1,50,120,60
1,50,0,195
1,50,122,65
1,50,0,160
1,53,120,85
1,53,0,195
1,53,123,35
1,53,0,160
1,55,127,85
1,55,0,190
1,53,84,60
1,53,0,125
1,44,127,105
1,44,0,200
1,44,114,40
1,44,0,155
1,48,120,80
1,48,0,195
1,48,116,65
1,48,0,145
1,51,122,85
1,51,0,210
1,51,124,10
1,51,0,160
1,53,127,90
1,53,0,205
1,51,116,50
1,51,0,150
1,39,122,80
1,39,0,195
1,39,123,30
1,39,0,155
1,43,108,105
1,43,0,205
1,43,126,40
1,43,0,145
1,46,111,100
1,46,0,200
1,46,127,30
1,46,0,150
1,48,125,100
1,48,0,190
1,46,126,40
1,46,0,155
1,39,127,80
1,39,0,200
1,39,117,35
1,39,0,145
1,43,113,100
1,43,0,200
1,43,127,40
1,43,0,195
1,46,118,285
1,46,0,125
1,48,115,100
1,48,0,390
1,44,123,15470
1,44,0,175
1,44,108,65
1,44,0,150
1,48,127,85
1,48,0,195
1,48,125,50
1,48,0,155
1,51,114,90
1,51,0,205
1,51,111,35
1,51,0,155
1,53,122,90
1,53,0,200
1,51,118,5
1,51,0,155
1,44,126,105
1,44,0,200
1,44,126,30
1,44,0,145
1,48,109,100
1,48,0,200
1,48,127,40
1,48,0,150
1,51,112,85
1,51,0,190
1,51,127,70
1,51,0,145
1,53,120,75
1,53,0,200
1,51,111,65
1,51,0,155
1,39,120,80
1,39,0,190
1,39,122,40
1,39,0,150
1,43,109,85
1,43,0,200
1,43,127,45
1,43,0,160
1,46,118,90
1,46,0,200
1,46,118,35
1,46,0,160
1,48,114,65
1,48,0,200
1,46,109,50
1,46,0,145
1,39,118,95
1,39,0,195
1,39,127,30
1,39,0,155
1,43,117,80
1,43,0,205
1,43,108,60
1,43,0,155
1,46,127,75
1,46,0,210
1,46,80,20
1,46,0,155
1,48,116,105
1,48,0,100
1,46,125,0
1,46,0,205
1,46,111,45
1,46,0,150
1,50,120,60
1,50,0,195
1,50,122,65
1,50,0,160
1,53,120,85
1,53,0,195
1,53,123,35
1,53,0,160
1,55,127,85
1,55,0,190
1,53,84,60
1,53,0,125
1,44,127,105
1,44,0,200
1,44,114,40
1,44,0,155
1,48,120,80
1,48,0,195
1,48,116,65
1,48,0,145
1,51,122,85
1,51,0,210
1,51,124,10
1,51,0,160
1,53,127,90
1,53,0,205
1,51,116,50
1,51,0,150
1,39,122,80
1,39,0,195
1,39,123,30
1,39,0,155
1,43,108,105
1,43,0,205
1,43,126,40
1,43,0,145
1,46,111,100
1,46,0,200
1,46,127,30
1,46,0,150
1,48,125,100
1,48,0,190
1,46,126,40
1,46,0,155
1,39,127,80
1,39,0,200
1,39,117,35
1,39,0,145
1,43,113,100
1,43,0,200
1,43,127,40
1,43,0,195
1,46,118,285
1,46,0,125
1,48,115,100
1,48,0,390
1,75,127,295
1,66,127,5
1,66,0,170
1,66,127,5
1,75,0,5
1,75,127,15
1,66,0,15
1,75,0,10
1,75,127,245
1,75,0,25
1,59,113,0
1,60,61,0
1,60,0,50
1,59,0,0
1,75,102,365
1,66,122,10
1,66,0,25
1,75,0,0
1,59,113,5
1,59,0,50
1,51,91,110
1,66,122,10
1,75,127,10
1,75,0,10
1,66,0,5
1,51,0,15
1,75,127,270
1,59,113,10
1,66,127,15
1,51,68,0
1,75,0,5
1,66,0,20
1,59,0,10
1,51,0,15
1,75,102,365
1,59,114,5
1,66,127,0
1,59,0,50
1,66,0,110
1,66,127,10
1,75,0,5
1,59,127,0
1,75,127,10
1,66,0,35
1,59,0,5
1,75,0,5
1,75,127,235
1,49,79,20
1,75,0,15
1,49,0,35
1,75,127,395
1,75,0,15
1,66,127,5
1,59,127,15
1,66,0,10
1,59,0,40
1,66,127,95
1,59,114,25
1,75,127,0
1,66,0,10
1,75,0,15
1,59,0,25
1,67,127,750
1,67,0,445
1,67,127,60
1,67,0,410
1,67,125,55
1,67,0,160
1,67,127,30
1,67,0,195
1,67,127,90
1,67,0,135
1,67,114,95
1,67,0,160
1,67,127,20
1,67,0,235
1,67,127,40
1,67,0,435
1,67,125,60
1,67,0,160
1,67,117,25
1,70,113,220
1,46,84,0
1,65,113,5
1,58,112,0
1,53,113,0
1,67,0,20
1,58,0,75
1,53,0,0
1,46,0,5
1,70,0,5
1,65,0,10
1,45,88,10
1,58,99,10
1,46,87,0
1,65,102,5
1,70,88,5
1,45,0,30
1,46,0,125
1,58,0,30
1,65,0,10
1,55,113,15
1,70,0,5
1,59,113,0
1,65,106,10
1,70,85,30
1,59,0,10
1,46,97,110
1,70,0,35
1,65,0,0
1,53,106,80
1,61,113,10
1,58,113,0
1,55,0,10
1,65,113,0
1,70,113,20
1,46,0,5
1,46,97,10
1,61,0,10
1,70,0,165
1,46,0,45
1,58,0,105
1,53,0,10
1,46,112,105
1,53,127,5
1,58,112,10
1,58,0,120
1,53,0,20
1,46,0,5
1,46,127,15
1,53,127,15
1,58,111,5
1,65,0,50
1,58,0,40
1,53,0,100
1,46,0,20
1,44,84,50
1,68,113,0
1,63,113,10
1,51,113,5
1,56,112,0
1,56,0,70
1,51,0,0
1,44,0,5
1,68,0,5
1,63,0,5
1,43,88,10
1,56,99,10
1,44,87,0
1,63,102,5
1,68,88,5
1,43,0,30
1,44,0,125
1,56,0,30
1,63,0,10
1,53,113,15
1,68,0,5
1,57,113,0
1,63,106,10
1,68,85,30
1,57,0,10
1,44,97,110
1,68,0,35
1,63,0,0
1,51,106,80
1,59,113,10
1,56,113,0
1,53,0,10
1,63,113,0
1,68,113,20
1,44,0,5
1,44,97,10
1,59,0,10
1,44,0,40
1,68,0,125
1,56,0,150
1,51,0,10
1,44,112,105
1,51,127,5
1,56,112,10
1,56,0,120
1,51,0,20
1,44,0,5
1,44,127,15
1,51,127,15
1,56,111,5
1,63,0,50
1,56,0,40
1,51,0,100
1,44,0,20
1,58,97,120
1,58,0,50
1,63,127,90
1,67,127,10
1,63,0,170
1,67,0,30
1,58,80,40
1,63,111,10
1,67,117,15
1,58,0,25
1,58,70,35
1,58,0,50
1,63,0,95
1,58,122,0
1,65,123,10
1,68,124,5
1,67,0,10
1,58,0,25
1,65,0,110
1,65,118,95
1,58,109,0
1,68,0,5
1,63,98,0
1,68,127,30
1,58,0,15
1,63,0,5
1,65,0,130
1,68,0,35
1,58,109,5
1,63,127,0
1,67,127,30
1,58,0,20
1,65,127,430
1,63,0,10
1,68,127,0
1,58,127,10
1,67,0,30
1,58,0,25
1,65,0,190
1,58,83,0
1,68,0,5
1,65,127,30
1,68,127,10
1,58,0,5
1,58,96,165
1,67,114,10
1,63,114,0
1,68,0,15
1,65,0,0
1,58,0,205
1,58,96,10
1,67,0,5
1,67,114,5
1,67,0,5
1,63,0,0
1,63,114,15
1,67,114,10
1,58,0,180
1,67,0,20
1,63,0,0
1,58,96,0
1,58,0,5
1,67,114,5
1,63,114,0
1,67,0,5
1,63,0,20
1,58,96,205
1,58,0,5
1,67,114,5
1,63,114,0
1,63,0,5
1,67,0,0
1,44,123,16550
1,44,0,175
1,44,108,65
1,44,0,150
1,48,127,85
1,48,0,195
1,48,125,50
1,48,0,155
1,51,114,90
1,51,0,205
1,51,111,35
1,51,0,155
1,53,122,90
1,53,0,200
1,51,118,5
1,51,0,155
1,44,126,105
1,44,0,200
1,44,126,30
1,44,0,145
1,48,109,100
1,48,0,200
1,48,127,40
1,48,0,150
1,51,112,85
1,51,0,190
1,51,127,70
1,51,0,145
1,53,120,75
1,53,0,200
1,51,111,65
1,51,0,155
1,39,120,80
1,39,0,190
1,39,122,40
1,39,0,150
1,43,109,85
1,43,0,200
1,43,127,45
1,43,0,160
1,46,118,90
1,46,0,200
1,46,118,35
1,46,0,160
1,48,114,65
1,48,0,200
1,46,109,50
1,46,0,145
1,39,118,95
1,39,0,195
1,39,127,30
1,39,0,155
1,43,117,80
1,43,0,205
1,43,108,60
1,43,0,155
1,46,127,75
1,46,0,210
1,46,80,20
1,46,0,155
1,48,116,105
1,48,0,100
1,46,125,0
1,46,0,205
1,46,111,45
1,46,0,150
1,50,120,60
1,50,0,195
1,50,122,65
1,50,0,160
1,53,120,85
1,53,0,195
1,53,123,35
1,53,0,160
1,55,127,85
1,55,0,190
1,53,84,60
1,53,0,125
1,44,127,105
1,44,0,200
1,44,114,40
1,44,0,155
1,48,120,80
1,48,0,195
1,48,116,65
1,48,0,145
1,51,122,85
1,51,0,210
1,51,124,10
1,51,0,160
1,53,127,90
1,53,0,205
1,51,116,50
1,51,0,150
1,39,122,80
1,39,0,195
1,39,123,30
1,39,0,155
1,43,108,105
1,43,0,205
1,43,126,40
1,43,0,145
1,46,111,100
1,46,0,200
1,46,127,30
1,46,0,150
1,48,125,100
1,48,0,190
1,46,126,40
1,46,0,155
1,39,127,80
1,39,0,200
1,39,117,35
1,39,0,145
1,43,113,100
1,43,0,200
1,43,127,40
1,43,0,195
1,46,118,285
1,46,0,125
1,48,115,100
1,48,0,390
1,44,123,15470
1,44,0,175
1,44,108,65
1,44,0,150
1,48,127,85
1,48,0,195
1,48,125,50
1,48,0,155
1,51,114,90
1,51,0,205
1,51,111,35
1,51,0,155
1,53,122,90
1,53,0,200
1,51,118,5
1,51,0,155
1,44,126,105
1,44,0,200
1,44,126,30
1,44,0,145
1,48,109,100
1,48,0,200
1,48,127,40
1,48,0,150
1,51,112,85
1,51,0,190
1,51,127,70
1,51,0,145
1,53,120,75
1,53,0,200
1,51,111,65
1,51,0,155
1,39,120,80
1,39,0,190
1,39,122,40
1,39,0,150
1,43,109,85
1,43,0,200
1,43,127,45
1,43,0,160
1,46,118,90
1,46,0,200
1,46,118,35
1,46,0,160
1,48,114,65
1,48,0,200
1,46,109,50
1,46,0,145
1,39,118,95
1,39,0,195
1,39,127,30
1,39,0,155
1,43,117,80
1,43,0,205
1,43,108,60
1,43,0,155
1,46,127,75
1,46,0,210
1,46,80,20
1,46,0,155
1,48,116,105
1,48,0,100
1,46,125,0
1,46,0,205
1,46,111,45
1,46,0,150
1,50,120,60
1,50,0,195
1,50,122,65
1,50,0,160
1,53,120,85
1,53,0,195
1,53,123,35
1,53,0,160
1,55,127,85
1,55,0,190
1,53,84,60
1,53,0,125
1,44,127,105
1,44,0,200
1,44,114,40
1,44,0,155
1,48,120,80
1,48,0,195
1,48,116,65
1,48,0,145
1,51,122,85
1,51,0,210
1,51,124,10
1,51,0,160
1,53,127,90
1,53,0,205
1,51,116,50
1,51,0,150
1,39,122,80
1,39,0,195
1,39,123,30
1,39,0,155
1,43,108,105
1,43,0,205
1,43,126,40
1,43,0,145
1,46,111,100
1,46,0,200
1,46,127,30
1,46,0,150
1,48,125,100
1,48,0,190
1,46,126,40
1,46,0,155
1,39,102,80
1,39,0,240
1,39,102,45
1,39,0,180
1,43,102,15
1,43,0,240
1,43,102,45
1,43,0,225
1,46,92,255
1,46,0,150
1,48,102,45
1,48,0,465
1,39,102,15
1,39,0,240
1,39,102,45
1,39,0,180
1,43,102,15
1,43,0,240
1,43,102,45
1,43,0,180
1,46,102,15
1,46,0,240
1,46,102,45
1,46,0,180
1,48,102,15
1,48,0,240
1,46,102,45
1,46,0,180
1,39,102,15
1,39,0,240
1,39,102,45
1,39,0,180
1,43,102,15
1,43,0,240
1,43,102,45
1,43,0,180
1,46,102,15
1,46,0,240
1,46,102,45
1,46,0,180
1,48,102,15
1,48,0,240
1,46,102,45
1,46,0,180
1,39,102,15
1,39,0,240
1,39,102,45
1,39,0,180
1,43,102,15
1,43,0,240
1,43,102,45
1,43,0,180
1,46,102,15
1,46,0,240
1,46,102,45
1,46,0,180
1,48,102,15
1,48,0,240
1,46,102,45
1,46,0,180
1,39,102,15
1,39,0,240
1,39,102,45
1,39,0,180
1,43,102,15
1,43,0,240
1,43,102,45
1,43,0,180
1,46,102,15
1,46,0,240
1,46,102,45
1,46,0,180
1,48,102,15
1,48,0,240
1,46,102,45
1,46,0,180
1,39,102,15
1,39,0,240
1,39,102,45
1,39,0,180
1,43,102,15
1,43,0,240
1,43,102,45
1,43,0,180
1,46,102,15
1,46,0,240
1,46,102,45
1,46,0,180
1,48,102,15
1,48,0,240
1,46,102,45
1,46,0,180
1,39,102,0
1,39,0,50
1,39,102,45
1,39,0,85
1,43,102,15
1,43,0,240
1,43,102,45
1,43,0,35
1,46,102,15
1,46,0,240
1,46,102,45
1,46,0,35
1,48,102,15
1,48,0,240
1,46,102,45
1,46,0,85
1,39,102,15
1,39,0,240
1,39,102,45
1,39,0,180
1,43,102,15
1,43,0,240
1,43,102,45
1,43,0,180
1,46,102,15
1,46,0,145
1,46,102,45
1,46,0,180
1,48,102,15
1,48,0,145
1,46,102,45
1,46,0,180
1,39,102,15
1,39,0,195
1,39,102,45
1,39,0,35
1,43,102,15
1,43,0,240
1,43,102,45
1,43,0,130
1,46,102,15
1,46,0,240
1,46,102,45
1,46,0,180
1,48,102,15
1,48,0,100
1,46,102,45
1,46,0,180
