track,note,velocity,time
1,38,76,3072
1,44,78,640
1,43,85,0
1,31,47,512
1,43,82,42
1,38,85,90
1,26,47,512
1,38,82,42
1,43,82,90
1,40,82,0
1,33,82,0
1,40,85,0
1,28,47,512
1,40,82,42
1,33,82,90
1,38,105,0
1,40,91,26
1,41,87,46
1,42,95,46
1,38,91,0
1,42,102,0
1,44,105,40
1,45,91,52
1,46,82,36
1,37,102,12
1,36,95,24
1,24,105,44
1,36,102,42
1,33,95,58
1,31,102,384
1,36,110,260
1,40,98,0
1,34,105,14
1,33,98,0
1,21,91,268
1,33,100,16
1,38,63,4
1,44,55,512
1,42,70,24
1,43,85,78
1,31,47,512
1,43,82,42
1,38,82,90
1,43,82,0
1,40,82,0
1,33,82,0
1,40,82,0
1,33,82,0
1,39,64,384
1,38,95,40
1,36,102,42
1,35,91,36
1,33,102,0
1,38,102,22
1,42,95,0
1,30,105,44
1,40,102,42
1,39,95,58
1,37,102,384
1,42,110,260
1,52,89,0
1,31,82,268
1,51,82,20
1,50,89,42
1,49,98,52
1,48,91,74
1,43,80,24
1,40,85,74
1,38,87,4
1,36,87,68
1,44,59,32
1,42,80,0
1,55,105,10
1,50,95,0
1,43,91,0
1,37,100,0
1,35,93,0
1,36,100,0
1,36,89,80
1,44,102,268
1,43,87,0
1,31,64,268
1,37,87,14
1,48,105,0
1,43,95,0
1,36,91,0
1,42,100,0
1,40,93,0
1,41,102,0
1,41,98,78
1,36,100,36
1,36,89,80
1,42,102,268
1,41,95,0
1,40,102,42
1,38,91,36
1,36,102,0
1,41,102,22
1,33,98,0
1,36,102,4
1,33,98,26
1,38,98,0
1,42,102,4
1,38,98,26
1,33,98,0
1,21,91,268
1,33,100,16
1,38,102,4
1,38,98,78
1,38,105,36
1,40,105,24
1,41,95,56
1,45,98,26
1,38,95,0
1,43,87,0
1,50,85,384
1,55,91,314
1,50,102,356
1,39,78,252
1,38,82,0
1,43,82,0
1,38,85,0
1,26,55,0
1,43,85,68
1,31,47,512
1,43,82,42
1,40,76,90
1,34,78,640
1,33,85,0
1,21,55,0
1,40,82,68
1,33,82,0
1,38,87,0
1,45,85,384
1,50,91,314
1,45,102,356
1,43,78,252
1,42,105,0
1,44,91,26
1,45,87,46
1,46,95,46
1,42,91,0
1,36,95,0
1,24,82,268
1,36,98,36
1,33,91,32
1,31,89,10
1,41,91,268
1,40,98,0
1,28,91,268
1,40,100,16
1,33,98,4
1,37,102,4
1,33,98,26
1,38,85,0
1,26,55,0
1,43,82,68
1,38,82,0
1,43,85,0
1,31,47,512
1,43,82,42
1,40,85,90
1,28,47,512
1,40,82,42
1,33,82,90
1,40,82,0
1,33,85,0
1,21,47,512
1,33,82,42
1,38,95,90
1,26,82,268
1,36,98,36
1,35,91,32
1,33,89,10
1,43,91,268
1,42,87,0
1,49,85,384
1,54,91,314
1,49,102,356
1,37,78,252
1,36,95,0
1,36,102,42
1,33,91,36
1,31,102,0
1,36,102,22
1,40,98,0
1,34,105,14
1,33,98,0
1,21,91,268
1,33,100,16
1,38,76,4
1,44,78,640
1,43,85,0
1,31,55,0
1,38,82,68
1,43,76,0
1,41,78,640
1,40,76,0
1,34,78,640
1,33,82,0
1,40,85,0
1,28,55,0
1,33,85,68
1,21,55,0
1,38,105,68
1,40,91,26
1,41,87,46
1,42,95,46
1,38,91,0
1,42,95,0
1,40,102,42
1,39,91,36
1,37,102,0
1,42,102,22
1,36,87,0
1,31,64,52
1,24,78,0
1,36,98,0
1,33,91,26
1,31,80,0
1,31,89,64
1,36,87,116
1,31,52,240
1,38,91,0
1,31,37,0
1,39,95,52
1,31,47,268
1,40,100,16
1,43,98,0
1,31,91,268
1,43,100,16
1,48,105,4
1,43,95,0
1,36,91,0
1,44,100,0
1,42,93,0
1,43,98,0
1,37,105,14
1,36,98,0
1,24,98,26
1,42,89,14
1,41,98,0
1,29,98,26
1,37,89,14
1,36,98,0
1,40,102,4
1,36,98,26
1,41,105,0
1,43,91,26
1,44,87,46
1,45,95,46
1,41,91,0
1,33,98,0
1,36,102,4
1,33,98,26
1,38,98,0
1,42,102,4
1,38,98,26
1,45,105,0
1,40,95,0
1,33,91,0
1,39,100,0
1,37,93,0
1,38,98,0
1,42,102,4
1,38,98,26
1,38,98,0
1,40,87,10
1,41,82,30
1,45,100,32
1,44,93,32
1,43,95,0
1,41,102,42
1,40,91,36
1,38,102,0
1,43,102,22
1,38,82,0
1,43,82,0
1,38,76,0
1,44,78,640
1,43,82,0
1,40,82,0
1,33,76,0
1,41,78,640
1,40,82,0
1,33,85,0
1,21,47,512
1,33,82,42
1,38,102,90
1,40,105,40
1,41,91,52
1,42,82,36
1,43,102,12
1,42,95,24
1,40,102,42
1,39,91,36
1,37,102,0
1,42,102,22
1,36,87,0
1,43,85,384
1,48,91,314
1,43,102,356
1,41,78,252
1,40,98,0
1,43,102,4
1,40,98,26
1,39,100,0
1,39,89,80
1,39,102,0
1,38,95,0
1,36,102,42
1,35,91,36
1,33,102,0
1,38,102,22
1,42,105,0
1,44,91,26
1,45,87,46
1,46,95,46
1,42,91,0
1,36,102,0
1,38,105,40
1,39,91,52
1,40,82,36
1,37,102,12
1,36,95,24
1,36,102,42
1,33,91,36
1,31,102,0
1,36,102,22
1,36,85,18
1,40,85,406
1,41,85,332
1,42,72,310
1,43,85,58
1,48,95,88
1,48,91,64
1,36,111,36
2,35,60,3072
2,42,115,0
2,49,70,0
2,42,80,256
2,37,80,0
2,42,50,134
2,42,115,0
2,42,80,256
2,37,80,0
2,42,50,134
2,42,115,0
2,42,80,256
2,37,80,0
2,42,60,134
2,42,115,0
2,42,80,256
2,37,80,0
2,42,70,134
2,42,115,0
2,42,80,256
2,37,80,0
2,42,60,134
2,42,115,0
2,42,80,256
2,37,80,0
2,42,70,134
2,48,90,0
2,48,50,140
2,42,100,0
2,51,80,0
2,38,100,140
2,41,100,0
2,41,70,140
2,42,100,0
2,41,100,0
2,35,70,140
2,51,70,0
2,51,115,0
2,49,90,0
2,42,100,256
2,37,70,0
2,51,90,0
2,38,30,134
2,51,55,0
2,38,40,0
2,51,115,0
2,42,100,256
2,37,70,0
2,51,90,0
2,51,50,134
2,35,54,0
2,51,115,0
2,42,100,256
2,37,70,0
2,51,80,0
2,38,90,134
2,46,90,0
2,51,50,0
2,51,115,0
2,42,100,256
2,51,90,0
2,45,54,0
2,51,60,134
2,45,60,0
2,51,115,0
2,38,70,134
2,42,100,0
2,37,70,0
2,51,90,0
2,38,40,134
2,51,55,0
2,51,115,0
2,46,80,134
2,42,100,0
2,37,70,0
2,51,90,0
2,38,40,134
2,51,60,0
2,35,80,0
2,51,100,0
2,38,90,134
2,51,60,0
2,46,90,0
2,35,40,134
2,51,100,0
2,35,60,0
2,51,90,0
2,38,80,134
2,46,80,0
2,51,60,134
2,35,60,0
2,42,115,0
2,49,70,0
2,42,80,256
2,37,80,0
2,42,50,134
2,42,115,0
2,42,80,256
2,37,80,0
2,42,50,134
2,42,115,0
2,42,80,256
2,37,80,0
2,42,60,136
2,42,115,0
2,42,80,256
2,37,80,0
2,42,50,136
2,42,115,0
2,42,80,256
2,37,80,0
2,42,60,140
2,46,80,0
2,38,70,140
2,35,60,0
2,46,90,0
2,48,90,256
2,48,50,140
2,42,100,0
2,51,80,0
2,38,100,140
2,41,100,0
2,41,70,140
2,42,100,0
2,41,100,0
2,35,70,140
2,51,70,0
2,35,80,0
2,51,115,0
2,49,90,0
2,42,100,256
2,37,70,0
2,51,90,0
2,51,55,134
2,38,40,0
2,51,115,0
2,42,100,256
2,37,70,0
2,51,90,0
2,51,50,134
2,35,80,0
2,51,115,0
2,42,100,256
2,37,70,0
2,51,80,0
2,51,50,134
2,51,115,0
2,42,100,256
2,37,70,0
2,51,90,0
2,35,60,134
2,51,60,0
2,35,60,0
2,51,120,0
2,46,70,136
2,42,100,0
2,37,70,0
2,51,100,0
2,38,40,136
2,51,55,0
2,35,80,0
2,51,115,0
2,38,80,136
2,35,80,0
2,42,100,0
2,37,70,0
2,49,90,0
2,38,100,136
2,51,60,0
2,48,90,0
2,48,50,140
2,42,100,0
2,51,80,0
2,38,100,140
2,41,100,0
2,41,70,140
2,42,100,0
2,41,100,0
2,35,70,140
2,51,70,0
2,51,115,0
2,49,90,0
2,42,100,256
2,37,70,0
2,51,90,0
2,51,55,134
2,38,40,0
2,51,115,0
2,42,100,256
2,37,70,0
2,51,90,0
2,51,50,134
2,35,54,0
2,51,115,0
2,42,100,256
2,37,70,0
2,51,80,0
2,51,50,134
2,51,115,0
2,42,100,256
2,37,70,0
2,51,90,0
2,51,60,134
2,35,80,0
2,51,115,0
2,51,70,140
2,42,100,0
2,37,70,0
2,51,100,0
2,38,40,256
2,51,115,0
2,42,100,256
2,37,70,0
2,51,90,0
2,51,50,140
2,35,80,0
2,51,90,0
2,51,90,256
2,42,80,140
2,42,100,0
2,35,70,140
2,38,90,0
2,38,100,0
2,42,100,0
2,46,90,140
2,51,115,0
2,49,90,0
2,38,70,134
2,42,100,0
2,37,70,0
2,51,90,0
2,51,55,134
2,38,40,0
2,51,115,0
2,51,80,134
2,42,100,0
2,37,70,0
2,51,90,0
2,51,50,134
2,51,115,0
2,51,70,140
2,42,100,0
2,37,70,0
2,51,100,0
2,38,30,140
2,38,40,0
2,51,115,0
2,42,100,256
2,37,70,0
2,51,90,0
2,51,50,140
2,51,115,0
2,42,100,256
2,37,70,0
2,51,90,0
2,38,40,134
2,51,55,0
2,51,115,0
2,46,80,134
2,42,100,0
2,37,70,0
2,51,90,0
2,38,40,134
2,51,60,0
2,38,100,0
2,51,90,0
2,35,90,140
2,42,100,0
2,51,115,0
2,51,60,140
2,38,100,0
2,51,115,0
2,35,90,140
2,42,100,0
2,51,90,0
2,38,100,140
2,35,60,0
2,42,115,0
2,49,70,0
2,42,80,256
2,37,80,0
2,42,50,134
2,42,115,0
2,42,80,256
2,37,80,0
2,35,50,134
2,42,50,0
2,35,60,0
2,42,115,0
2,42,70,134
2,42,80,0
2,37,80,0
2,42,60,134
2,42,115,0
2,42,70,134
2,42,100,0
2,37,80,0
2,42,80,134
2,35,60,0
2,42,115,0
2,42,80,256
2,37,80,0
2,42,60,134
2,42,115,0
2,42,70,134
2,42,100,0
2,37,80,0
2,42,80,134
2,35,90,0
2,51,90,0
2,49,90,0
2,38,70,134
2,42,100,0
2,51,115,0
2,38,60,134
2,51,55,0
2,38,80,0
2,51,100,0
2,35,80,134
2,42,100,0
2,45,90,0
2,45,80,134
2,51,115,0
2,49,90,0
2,38,70,134
2,42,100,0
2,37,70,0
2,51,90,0
2,51,55,134
2,38,40,0
2,51,115,0
2,42,100,256
2,37,70,0
2,51,90,0
2,51,50,134
2,35,80,0
2,51,115,0
2,51,70,140
2,42,100,0
2,37,70,0
2,51,100,0
2,38,40,256
2,51,115,0
2,42,100,256
2,37,70,0
2,51,90,0
2,51,50,140
2,51,115,0
2,42,100,256
2,37,70,0
2,51,90,0
2,38,40,134
2,51,55,0
2,51,115,0
2,42,100,256
2,37,70,0
2,51,90,0
2,38,40,134
2,51,60,0
2,35,90,0
2,51,90,0
2,49,90,0
2,38,70,134
2,42,100,0
2,51,115,0
2,38,60,134
2,51,55,0
2,38,80,0
2,51,100,0
2,35,80,134
2,42,100,0
2,45,90,0
2,45,80,134
2,35,60,0
2,42,115,0
2,49,70,0
2,42,80,256
2,37,80,0
2,42,50,134
2,42,115,0
2,42,80,256
2,37,80,0
2,42,50,134
2,42,115,0
2,42,80,256
2,37,80,0
2,42,60,134
2,42,115,0
2,42,80,256
2,37,80,0
2,42,70,134
2,35,60,0
2,42,115,0
2,42,80,256
2,37,80,0
2,42,60,134
2,42,115,0
2,42,80,256
2,37,80,0
2,35,50,134
2,42,70,0
2,38,100,0
2,51,90,0
2,35,90,140
2,42,100,0
2,51,115,0
2,51,60,140
2,38,100,0
2,51,115,0
2,35,90,140
2,42,100,0
2,51,90,0
2,38,100,140
2,35,80,0
2,51,115,0
2,49,90,0
2,38,70,134
2,42,100,0
2,37,70,0
2,51,90,0
2,51,55,134
2,38,40,0
2,51,115,0
2,42,100,256
2,37,70,0
2,51,90,0
2,51,50,134
2,35,80,0
2,51,115,0
2,42,100,256
2,37,70,0
2,51,100,0
2,38,40,134
2,51,60,0
2,51,115,0
2,38,40,134
2,42,100,0
2,37,70,0
2,51,90,0
2,38,50,134
2,51,50,0
2,35,80,0
2,51,115,0
2,51,70,140
2,42,100,0
2,37,70,0
2,51,100,0
2,38,30,140
2,38,40,0
2,51,115,0
2,42,100,256
2,37,70,0
2,51,90,0
2,51,50,140
2,38,100,0
2,41,100,140
2,42,100,0
2,38,80,140
2,38,90,0
2,41,90,140
2,42,100,0
2,41,100,140
2,35,60,0
2,42,115,0
2,49,70,0
2,42,80,256
2,37,80,0
2,42,50,134
2,42,115,0
2,42,80,256
2,37,80,0
2,46,54,134
2,42,115,0
2,42,80,256
2,37,80,0
2,42,60,136
2,42,115,0
2,46,80,136
2,42,80,0
2,37,80,0
2,42,50,136
2,35,60,0
2,42,115,0
2,42,80,256
2,37,80,0
2,42,60,134
2,42,115,0
2,42,80,256
2,37,80,0
2,42,70,134
2,38,100,0
2,35,100,134
2,42,100,0
2,38,89,134
2,48,90,0
2,48,70,134
2,42,100,0
2,48,90,0
2,38,100,134
2,35,80,0
2,51,115,0
2,49,90,0
2,42,100,256
2,37,70,0
2,51,90,0
2,51,55,134
2,38,40,0
2,51,115,0
2,42,100,256
2,37,70,0
2,51,90,0
2,51,50,134
2,51,115,0
2,42,100,256
2,37,70,0
2,51,100,0
2,38,40,134
2,51,60,0
2,51,115,0
2,38,40,134
2,51,90,0
2,42,100,0
2,37,70,0
2,51,90,0
2,51,50,134
2,35,60,0
2,51,120,0
2,42,100,256
2,37,70,0
2,51,100,0
2,38,40,140
2,51,55,0
2,51,115,0
2,46,85,140
2,42,100,0
2,37,70,0
2,51,100,0
2,38,80,140
2,51,60,0
2,35,80,0
2,51,100,0
2,38,90,134
2,51,60,0
2,46,90,0
2,35,40,134
2,51,100,0
2,35,60,0
2,51,90,0
2,38,80,134
2,46,80,0
2,51,60,134
2,51,115,0
2,49,90,0
2,42,100,256
2,37,70,0
2,51,90,0
2,38,30,134
2,51,55,0
2,38,40,0
2,51,115,0
2,51,80,134
2,42,100,0
2,37,70,0
2,51,90,0
2,51,50,134
2,35,80,0
2,51,115,0
2,51,70,140
2,42,100,0
2,37,70,0
2,51,100,0
2,38,40,256
2,51,115,0
2,42,100,256
2,37,70,0
2,51,90,0
2,51,50,140
2,35,60,0
2,51,120,0
2,46,70,136
2,42,100,0
2,37,70,0
2,51,100,0
2,38,40,136
2,51,55,0
2,35,80,0
2,51,115,0
2,38,80,136
2,35,80,0
2,42,100,0
2,37,70,0
2,49,90,0
2,38,100,136
2,51,60,0
2,35,90,0
2,51,90,0
2,49,90,0
2,38,70,134
2,42,100,0
2,51,115,0
2,38,60,134
2,51,55,0
2,38,80,0
2,51,100,0
2,35,80,134
2,42,100,0
2,45,90,0
2,45,80,134
2,35,80,0
2,51,115,0
2,49,90,0
2,38,70,134
2,42,100,0
2,37,70,0
2,51,90,0
2,51,55,134
2,38,40,0
2,51,115,0
2,51,80,134
2,42,100,0
2,37,70,0
2,51,90,0
2,51,50,134
2,35,80,0
2,51,115,0
2,51,70,140
2,42,100,0
2,37,70,0
2,51,100,0
2,38,40,256
2,51,115,0
2,42,100,256
2,37,70,0
2,51,90,0
2,51,50,140
2,35,60,0
2,51,120,0
2,42,100,256
2,37,70,0
2,51,100,0
2,38,40,140
2,51,55,0
2,51,115,0
2,46,85,140
2,42,100,0
2,37,70,0
2,51,100,0
2,38,80,140
2,51,60,0
2,35,80,0
2,49,90,0
2,38,90,128
2,46,90,0
2,48,50,128
2,48,90,0
2,45,80,128
2,46,70,0
2,41,60,0
2,41,90,0
2,35,60,0
2,42,115,0
2,49,70,0
2,42,80,256
