track,note,velocity,time
1,38,104,1136
1,66,74,240
1,57,67,8
1,62,76,4
1,42,94,24
1,66,76,260
1,57,71,8
1,62,81,0
1,45,96,20
1,66,82,236
1,62,79,8
1,57,68,0
1,47,104,36
1,66,79,216
1,62,78,0
1,57,66,4
1,38,104,24
1,66,82,236
1,62,78,4
1,57,68,0
1,42,90,44
1,66,74,240
1,62,75,0
1,57,53,8
1,45,100,32
1,66,82,240
1,62,81,0
1,57,65,4
1,47,111,20
1,66,83,228
1,62,75,4
1,57,55,8
1,38,108,28
1,66,83,252
1,62,76,4
1,57,70,0
1,42,92,56
1,66,74,260
1,62,64,4
1,57,55,4
1,45,95,44
1,66,76,256
1,62,77,4
1,57,68,4
1,47,115,48
1,66,82,236
1,62,74,4
1,57,67,4
1,38,109,4
1,66,83,256
1,62,79,0
1,57,62,4
1,42,95,52
1,66,85,200
1,62,78,4
1,57,69,4
1,45,104,0
1,66,86,260
1,62,81,4
1,57,74,4
1,47,111,52
1,66,86,228
1,62,80,4
1,57,74,4
1,38,114,8
1,66,80,252
1,62,80,4
1,57,61,8
1,42,95,36
1,66,73,256
1,62,81,0
1,57,64,0
1,45,95,56
1,62,79,252
1,66,72,0
1,57,67,0
1,47,108,72
1,66,83,240
1,62,76,4
1,57,72,0
1,38,107,8
1,66,82,268
1,62,77,0
1,57,69,4
1,42,91,48
1,66,79,216
1,62,81,0
1,57,60,0
1,45,101,72
1,66,82,220
1,62,79,0
1,57,66,4
1,47,100,48
1,66,86,228
1,57,69,0
1,62,74,4
1,38,108,28
1,66,85,264
1,62,74,8
1,57,72,0
1,42,92,32
1,66,82,236
1,62,75,8
1,57,68,0
1,45,94,44
1,66,83,212
1,62,81,4
1,57,74,0
1,47,111,56
1,66,88,220
1,62,78,4
1,57,71,0
1,38,108,48
1,66,76,248
1,62,88,0
1,57,66,8
1,45,102,56
1,66,85,192
1,62,87,0
1,57,67,8
1,47,111,0
1,66,86,244
1,62,81,4
1,57,67,8
1,45,111,52
1,66,78,16
1,62,81,0
1,57,68,4
1,43,121,84
1,67,85,240
1,62,81,4
1,59,74,0
1,50,101,28
1,67,85,256
1,59,74,0
1,62,81,0
1,52,117,52
1,67,82,192
1,59,71,4
1,62,76,0
1,50,112,64
1,67,81,200
1,59,74,0
1,62,76,0
1,43,109,48
1,59,79,256
1,67,81,0
1,62,80,0
1,47,111,8
1,67,88,256
1,59,79,0
1,62,74,4
1,50,111,56
1,67,82,244
1,59,74,4
1,62,74,0
1,52,123,36
1,67,85,204
1,59,81,4
1,62,84,0
1,38,116,60
1,62,80,232
1,66,67,4
1,57,67,0
1,42,98,36
1,66,68,256
1,62,78,0
1,57,64,0
1,45,99,44
1,62,89,244
1,66,69,0
1,57,69,0
1,47,123,56
1,62,86,224
1,66,68,4
1,57,66,0
1,38,126,48
1,62,87,256
1,66,71,0
1,57,69,4
1,42,98,16
1,57,69,260
1,66,68,0
1,62,86,4
1,45,111,20
1,66,74,268
1,57,71,0
1,62,85,4
1,42,112,32
1,66,73,248
1,62,86,4
1,57,65,4
1,40,110,56
1,64,74,240
1,55,64,8
1,59,72,0
1,64,81,208
1,55,74,4
1,59,76,0
1,40,104,24
1,64,87,260
1,55,82,4
1,59,84,0
1,55,81,152
1,64,87,0
1,59,77,4
1,45,101,24
1,61,76,272
1,57,79,0
1,64,86,0
1,61,86,72
1,64,89,4
1,57,76,4
1,45,108,44
1,61,60,272
1,64,81,0
1,57,72,0
1,64,91,40
1,61,88,0
1,57,86,0
1,38,121,56
1,66,74,248
1,57,73,4
1,62,77,4
1,42,101,16
1,66,83,248
1,57,69,8
1,62,77,0
1,47,104,48
1,66,85,240
1,62,71,8
1,57,68,0
1,45,104,28
1,66,92,264
1,57,85,4
1,62,85,4
1,38,110,4
1,66,86,256
1,57,77,4
1,62,85,0
1,42,92,32
1,66,88,264
1,62,87,4
1,57,87,0
1,47,111,0
1,66,83,260
1,57,81,4
1,62,79,4
1,45,102,16
1,66,88,260
1,62,79,8
1,57,81,0
1,38,118,48
1,66,85,244
1,62,81,4
1,57,81,0
1,42,98,52
1,66,80,240
1,57,79,4
1,62,79,4
1,45,104,8
1,66,85,252
1,57,81,8
1,62,80,0
1,47,104,16
1,66,83,244
1,57,71,8
1,62,79,0
1,38,108,4
1,66,92,244
1,62,89,4
1,57,86,4
1,42,92,44
1,66,85,200
1,57,79,4
1,62,81,0
1,45,101,68
1,66,90,232
1,62,88,4
1,57,80,0
1,47,108,44
1,66,88,232
1,57,82,4
1,62,85,0
1,38,111,16
1,66,94,244
1,57,86,4
1,62,91,0
1,42,89,36
1,66,90,224
1,57,86,8
1,62,88,0
1,45,97,32
1,66,85,252
1,62,84,4
1,57,80,0
1,47,104,56
1,66,86,224
1,57,71,4
1,62,67,8
1,38,112,24
1,66,88,236
1,57,71,8
1,62,81,0
1,45,103,52
1,66,90,240
1,57,81,4
1,62,82,0
1,47,125,32
1,66,92,248
1,57,69,0
1,62,79,4
1,45,110,36
1,66,90,232
1,57,81,0
1,62,85,0
1,43,115,56
1,67,82,256
1,59,72,0
1,62,85,4
1,50,105,12
1,67,85,256
1,59,80,0
1,62,82,4
1,52,110,20
1,59,85,260
1,67,93,4
1,62,89,0
1,50,104,36
1,67,89,224
1,59,82,0
1,62,86,4
1,43,106,16
1,67,87,264
1,59,81,0
1,62,81,4
1,47,106,20
1,59,81,216
1,67,89,0
1,62,81,4
1,50,99,16
1,67,91,228
1,59,82,0
1,62,84,4
1,52,114,12
1,67,88,28
1,59,91,0
1,62,89,8
1,38,112,52
1,57,75,240
1,66,86,0
1,62,95,0
1,45,98,4
1,66,80,252
1,57,73,4
1,62,86,0
1,47,104,48
1,57,78,212
1,66,82,4
1,62,96,0
1,45,97,56
1,66,83,192
1,57,77,0
1,62,98,0
1,38,104,32
1,66,83,256
1,57,80,0
1,62,93,0
1,42,91,20
1,66,83,248
1,57,74,0
1,62,93,0
1,45,106,8
1,57,78,252
1,66,86,0
1,62,103,0
1,42,113,28
1,66,86,48
1,57,84,0
1,62,103,0
1,40,106,52
1,64,84,260
1,59,79,4
1,55,71,0
1,55,82,292
1,64,95,4
1,59,89,0
1,40,111,28
1,64,96,276
1,55,87,0
1,59,88,0
1,64,93,288
1,55,88,0
1,59,85,4
1,45,102,28
1,61,85,272
1,64,93,0
1,57,91,0
1,61,76,36
1,64,92,0
1,57,77,8
1,45,107,16
1,61,85,256
1,64,98,0
1,57,86,0
1,61,83,280
1,64,91,0
1,57,84,0
1,38,111,48
1,66,86,248
1,57,81,8
1,62,82,0
1,45,101,24
1,66,66,200
1,57,68,4
1,62,74,4
1,47,105,52
1,66,78,244
1,62,81,4
1,57,78,0
1,45,97,40
1,66,92,240
1,57,87,0
1,62,81,0
1,50,101,48
1,66,96,248
1,57,89,0
1,62,91,4
1,48,111,36
1,66,88,232
1,62,89,4
1,57,84,0
1,47,112,4
1,66,88,260
1,62,92,4
1,57,87,0
1,45,109,40
1,66,96,232
1,57,96,0
1,62,93,0
1,43,106,56
1,67,84,256
1,59,75,8
1,62,81,0
1,67,81,148
1,59,66,0
1,62,71,0
1,43,111,44
1,67,78,260
1,59,69,0
1,62,69,8
1,67,86,308
1,59,78,0
1,62,80,0
1,45,103,48
1,61,72,260
1,69,79,0
1,64,85,4
1,61,67,28
1,69,80,4
1,64,80,0
1,45,111,72
1,61,71,252
1,69,77,0
1,64,76,4
1,61,82,76
1,69,87,4
1,64,85,0
1,43,105,72
1,62,88,260
1,59,75,0
1,67,86,4
1,62,87,176
1,67,80,0
1,59,71,4
1,43,115,60
1,67,91,260
1,59,88,4
1,62,86,4
1,67,86,132
1,59,82,8
1,62,88,0
1,45,101,40
1,61,68,268
1,69,76,4
1,64,82,0
1,61,85,88
1,69,86,8
1,64,86,0
1,45,101,60
1,61,85,264
1,69,88,4
1,64,89,0
1,61,92,96
1,69,91,0
1,64,92,4
1,38,111,76
1,57,60,256
1,66,73,0
1,62,81,0
1,45,107,52
1,62,91,264
1,66,65,4
1,57,64,0
1,47,117,36
1,66,90,236
1,62,101,0
1,57,81,0
1,45,110,56
1,66,90,256
1,62,101,0
1,57,81,8
1,38,112,48
1,66,79,256
1,62,91,4
1,57,65,4
1,45,106,56
1,57,81,252
1,66,80,0
1,62,91,4
1,47,118,56
1,57,79,252
1,66,79,4
1,62,92,0
1,45,108,48
1,66,86,248
1,57,81,0
1,62,93,4
1,38,118,56
1,66,85,244
1,62,81,4
1,57,81,0
1,42,98,52
1,66,80,240
1,57,79,4
1,62,79,4
1,45,104,8
1,66,85,252
1,57,81,8
1,62,80,0
1,47,104,16
1,66,83,244
1,57,71,8
1,62,79,0
1,38,108,4
1,66,92,244
1,62,89,4
1,57,86,4
1,42,92,44
1,66,85,200
1,57,79,4
1,62,81,0
1,45,101,68
1,66,90,232
1,62,88,4
1,57,80,0
1,47,108,44
1,66,88,232
1,57,82,4
1,62,85,0
1,38,111,16
1,66,94,244
1,57,86,4
1,62,91,0
1,42,89,36
1,66,90,224
1,57,86,8
1,62,88,0
1,45,97,32
1,66,85,252
1,62,84,4
1,57,80,0
1,47,104,56
1,66,86,224
1,57,71,4
1,62,67,8
1,38,112,24
1,66,88,236
1,57,71,8
1,62,81,0
1,45,103,52
1,66,90,240
1,57,81,4
1,62,82,0
1,47,125,32
1,66,92,248
1,57,69,0
1,62,79,4
1,45,110,36
1,66,90,232
1,57,81,0
1,62,85,0
1,43,115,56
1,67,82,256
1,59,72,0
1,62,85,4
1,50,105,12
1,67,85,256
1,59,80,0
1,62,82,4
1,52,110,20
1,59,85,260
1,67,93,4
1,62,89,0
1,50,104,36
1,67,89,224
1,59,82,0
1,62,86,4
1,43,106,16
1,67,87,264
1,59,81,0
1,62,81,4
1,47,106,20
1,59,81,216
1,67,89,0
1,62,81,4
1,50,99,16
1,67,91,228
1,59,82,0
1,62,84,4
1,52,114,12
1,67,88,28
1,59,91,0
1,62,89,8
1,38,112,52
1,57,75,240
1,66,86,0
1,62,95,0
1,45,98,4
1,66,80,252
1,57,73,4
1,62,86,0
1,47,104,48
1,57,78,212
1,66,82,4
1,62,96,0
1,45,97,56
1,66,83,192
1,57,77,0
1,62,98,0
1,38,104,32
1,66,83,256
1,57,80,0
1,62,93,0
1,42,91,20
1,66,83,248
1,57,74,0
1,62,93,0
1,45,106,8
1,57,78,252
1,66,86,0
1,62,103,0
1,42,113,28
1,66,86,48
1,57,84,0
1,62,103,0
1,40,106,52
1,64,84,260
1,59,79,4
1,55,71,0
1,47,86,8
1,55,82,228
1,64,95,4
1,59,89,0
1,40,111,28
1,64,96,276
1,55,87,0
1,59,88,0
1,64,93,288
1,55,88,0
1,59,85,4
1,45,102,28
1,61,85,272
1,64,93,0
1,57,91,0
1,45,86,16
1,61,76,236
1,64,92,0
1,57,77,8
1,45,107,16
1,61,85,256
1,64,98,0
1,57,86,0
1,61,83,280
1,64,91,0
1,57,84,0
1,38,111,48
1,66,86,248
1,57,81,8
1,62,82,0
1,45,101,24
1,66,66,200
1,57,68,4
1,62,74,4
1,47,105,52
1,66,78,244
1,62,81,4
1,57,78,0
1,45,97,40
1,66,92,240
1,57,87,0
1,62,81,0
1,50,101,48
1,66,96,248
1,57,89,0
1,62,91,4
1,48,111,36
1,66,88,232
1,62,89,4
1,57,84,0
1,47,112,4
1,66,88,260
1,62,92,4
1,57,87,0
1,45,109,40
1,66,96,232
1,57,96,0
1,62,93,0
1,43,106,56
1,67,84,256
1,59,75,8
1,62,81,0
1,47,106,0
1,67,81,260
1,59,66,0
1,62,71,0
1,43,111,44
1,67,78,236
1,59,69,0
1,62,69,8
1,43,97,8
1,67,86,232
1,59,78,0
1,62,80,4
1,45,103,48
1,61,72,204
1,69,79,0
1,64,85,4
1,45,103,4
1,61,67,220
1,69,80,4
1,64,80,0
1,45,111,20
1,61,71,244
1,69,77,0
1,64,76,4
1,61,82,68
1,69,87,4
1,64,85,0
1,43,105,72
1,62,88,260
1,59,75,0
1,67,86,4
1,38,105,72
1,62,87,236
1,67,80,0
1,59,71,4
1,43,115,60
1,67,91,224
1,59,88,4
1,62,86,4
1,43,115,8
1,67,86,248
1,59,82,8
1,62,88,0
1,45,101,40
1,61,68,240
1,69,76,4
1,64,82,0
1,45,101,16
1,61,85,232
1,69,86,8
1,64,86,0
1,45,101,28
1,61,85,264
1,69,88,4
1,64,89,0
1,61,92,96
1,69,91,0
1,64,92,4
1,38,111,76
1,57,60,256
1,66,73,0
1,62,81,0
1,45,107,52
1,62,91,264
1,66,65,4
1,57,64,0
1,47,117,36
1,66,90,236
1,62,101,0
1,57,81,0
1,45,110,56
1,66,90,256
1,62,101,0
1,57,81,8
1,38,112,48
1,66,79,256
1,62,91,4
1,57,65,4
1,45,106,56
1,57,81,252
1,66,80,0
1,62,91,4
1,47,118,56
1,57,79,252
1,66,79,4
1,62,92,0
1,45,108,48
1,66,86,248
1,57,81,0
1,62,93,4
1,38,118,56
1,66,85,244
1,62,81,4
1,57,81,0
1,42,98,52
1,66,80,240
1,57,79,4
1,62,79,4
1,45,104,8
1,66,85,252
1,57,81,8
1,62,80,0
1,47,104,16
1,66,83,244
1,57,71,8
1,62,79,0
1,38,108,4
1,66,92,244
1,62,89,4
1,57,86,4
1,42,92,44
1,66,85,200
1,57,79,4
1,62,81,0
1,45,101,68
1,66,90,232
1,62,88,4
1,57,80,0
1,47,108,44
1,66,88,232
1,57,82,4
1,62,85,0
1,38,111,16
1,66,94,244
1,57,86,4
1,62,91,0
1,42,89,36
1,66,90,224
1,57,86,8
1,62,88,0
1,45,97,32
1,66,85,252
1,62,84,4
1,57,80,0
1,47,104,56
1,66,86,224
1,57,71,4
1,62,67,8
1,38,112,24
1,66,88,236
1,57,71,8
1,62,81,0
1,45,103,52
1,66,90,240
1,57,81,4
1,62,82,0
1,47,125,32
1,66,92,248
1,57,69,0
1,62,79,4
1,45,110,36
1,66,90,232
1,57,81,0
1,62,85,0
1,43,115,56
1,67,82,256
1,59,72,0
1,62,85,4
1,50,105,12
1,67,85,256
1,59,80,0
1,62,82,4
1,52,110,20
1,59,85,260
1,67,93,4
1,62,89,0
1,50,104,36
1,67,89,224
1,59,82,0
1,62,86,4
1,43,106,16
1,67,87,264
1,59,81,0
1,62,81,4
1,47,106,20
1,59,81,216
1,67,89,0
1,62,81,4
1,50,99,16
1,67,91,228
1,59,82,0
1,62,84,4
1,52,114,12
1,67,88,28
1,59,91,0
1,62,89,8
1,38,112,52
1,57,75,240
1,66,86,0
1,62,95,0
1,45,98,4
1,66,80,252
1,57,73,4
1,62,86,0
1,47,104,48
1,57,78,212
1,66,82,4
1,62,96,0
1,45,97,56
1,66,83,192
1,57,77,0
1,62,98,0
1,38,104,32
1,66,83,256
1,57,80,0
1,62,93,0
1,42,91,20
1,66,83,248
1,57,74,0
1,62,93,0
1,45,106,8
1,57,78,252
1,66,86,0
1,62,103,0
1,42,113,28
1,66,86,48
1,57,84,0
1,62,103,0
1,40,106,52
1,64,84,260
1,59,79,4
1,55,71,0
1,47,86,8
1,55,82,228
1,64,95,4
1,59,89,0
1,40,111,28
1,64,96,276
1,55,87,0
1,59,88,0
1,64,93,288
1,55,88,0
1,59,85,4
1,45,102,28
1,61,85,272
1,64,93,0
1,57,91,0
1,45,86,16
1,61,76,236
1,64,92,0
1,57,77,8
1,45,107,16
1,61,85,256
1,64,98,0
1,57,86,0
1,61,83,280
1,64,91,0
1,57,84,0
1,38,111,48
1,66,86,248
1,57,81,8
1,62,82,0
1,45,101,24
1,66,66,200
1,57,68,4
1,62,74,4
1,47,105,52
1,66,78,244
1,62,81,4
1,57,78,0
1,45,97,40
1,66,92,240
1,57,87,0
1,62,81,0
1,50,101,48
1,66,96,248
1,57,89,0
1,62,91,4
1,48,111,36
1,66,88,232
1,62,89,4
1,57,84,0
1,47,112,4
1,66,88,260
1,62,92,4
1,57,87,0
1,45,109,40
1,66,96,232
