track,note,velocity,time
1,36,104,2680
1,55,98,248
1,64,106,4
1,60,111,4
1,40,104,64
1,64,95,56
1,60,107,0
1,55,73,4
1,43,97,52
1,64,96,248
1,55,100,0
1,60,117,4
1,45,97,40
1,60,109,52
1,64,104,0
1,55,76,4
1,43,88,36
1,62,100,248
1,55,101,0
1,59,126,4
1,40,89,36
1,62,92,36
1,59,107,4
1,55,54,0
1,38,96,40
1,62,109,248
1,55,102,4
1,59,124,0
1,40,92,76
1,62,101,48
1,55,80,4
1,59,117,4
1,38,59,0
1,36,97,32
1,64,121,244
1,55,102,4
1,60,117,0
1,40,96,12
1,64,109,28
1,55,78,0
1,60,115,4
1,43,91,64
1,55,106,252
1,64,117,4
1,60,121,0
1,45,92,56
1,55,81,72
1,64,107,4
1,60,109,0
1,43,88,52
1,55,90,252
1,62,102,4
1,59,119,0
1,40,95,52
1,55,59,56
1,62,88,4
1,59,100,4
1,38,96,40
1,62,104,244
1,55,97,4
1,59,119,4
1,40,92,32
1,55,72,4
1,62,92,4
1,59,107,0
1,38,44,4
1,36,95,16
1,64,107,244
1,55,93,4
1,60,109,4
1,40,92,16
1,55,83,68
1,64,109,4
1,60,113,0
1,43,88,32
1,55,93,256
1,60,111,4
1,64,113,0
1,45,81,52
1,55,82,72
1,64,109,0
1,60,109,4
1,43,88,92
1,55,89,228
1,62,101,4
1,59,117,4
1,40,86,8
1,55,71,76
1,62,92,4
1,59,109,4
1,38,90,44
1,55,95,252
1,62,104,4
1,59,119,4
1,35,98,20
1,55,82,76
1,62,101,4
1,59,117,0
1,33,102,40
1,64,97,256
1,55,82,4
1,61,117,0
1,35,101,40
1,64,97,80
1,61,110,4
1,55,76,4
1,36,92,56
1,64,111,252
1,55,93,4
1,61,123,4
1,37,115,64
1,55,85,56
1,64,107,4
1,61,123,0
1,38,101,52
1,62,96,244
1,66,101,4
1,57,88,0
1,60,102,4
1,40,96,32
1,62,96,36
1,66,97,4
1,57,84,4
1,60,98,0
1,41,89,36
1,66,119,252
1,57,101,4
1,62,113,4
1,60,119,0
1,42,101,60
1,60,111,56
1,57,97,0
1,66,115,4
1,62,107,4
1,43,89,32
1,64,119,256
1,59,119,0
1,62,109,4
1,67,109,4
1,40,83,40
1,64,117,4
1,62,109,4
1,67,104,4
1,59,111,4
1,38,86,0
1,67,101,72
1,64,124,0
1,62,117,4
1,59,115,4
1,35,100,0
1,62,101,44
1,64,107,4
1,58,96,4
1,67,95,4
1,36,107,0
1,64,117,68
1,62,102,4
1,58,106,0
1,67,93,4
1,40,100,48
1,58,94,244
1,67,95,0
1,64,111,4
1,62,106,4
1,43,84,64
1,64,115,72
1,67,101,4
1,58,112,0
1,62,111,4
1,45,90,4
1,67,93,52
1,62,101,0
1,64,104,4
1,59,117,4
1,43,84,60
1,67,109,252
1,62,115,4
1,64,117,4
1,59,121,0
1,40,89,32
1,38,84,56
1,71,113,4
1,79,115,0
1,74,121,4
1,76,127,4
1,64,119,28
1,59,119,0
1,67,113,4
1,62,113,4
1,40,91,40
1,43,89,36
1,67,107,4
1,64,115,4
1,62,107,4
1,59,111,4
1,40,89,12
1,76,127,4
1,74,124,4
1,79,121,0
1,71,115,4
1,64,124,32
1,62,121,0
1,59,123,4
1,67,121,4
1,38,100,28
1,37,110,52
1,36,104,32
1,64,115,248
1,62,106,4
1,58,104,4
1,67,107,0
1,40,95,48
1,67,96,40
1,64,111,4
1,62,101,4
1,58,94,0
1,43,85,4
1,64,106,72
1,62,89,0
1,58,89,4
1,67,89,4
1,45,90,20
1,62,102,48
1,64,109,4
1,58,94,4
1,67,97,4
1,46,97,4
1,64,107,52
1,62,91,4
1,58,93,4
1,67,85,0
1,45,93,28
1,64,104,248
1,62,104,4
1,67,93,0
1,58,108,4
1,43,91,32
1,58,112,36
1,64,119,0
1,62,115,4
1,67,104,4
1,40,96,0
1,67,101,68
1,59,121,0
1,64,117,4
1,62,111,4
1,43,102,60
1,62,107,244
1,64,115,4
1,59,113,0
1,67,107,4
1,40,98,60
1,38,97,56
1,71,115,4
1,76,127,4
1,74,123,0
1,79,119,4
1,67,113,4
1,59,117,4
1,62,115,0
1,64,124,4
1,40,88,56
1,38,62,24
1,43,90,64
1,64,124,4
1,67,115,4
1,59,123,4
1,62,119,4
1,40,89,24
1,76,127,4
1,74,127,0
1,71,121,4
1,79,126,4
1,67,121,8
1,59,124,4
1,62,123,0
1,64,126,4
1,38,96,8
1,37,108,56
1,36,102,64
1,79,119,248
1,74,104,4
1,73,119,0
1,79,69,40
1,74,63,4
1,40,81,4
1,74,61,80
1,79,64,4
1,74,73,88
1,79,96,4
1,73,127,28
1,74,113,4
1,79,123,4
1,43,90,0
1,79,74,68
1,74,73,4
1,74,78,76
1,79,85,4
1,79,100,44
1,74,92,0
1,45,85,4
1,79,76,84
1,74,73,0
1,79,88,100
1,74,83,0
1,40,58,4
1,79,124,56
1,74,121,4
1,43,96,4
1,73,104,116
1,72,90,28
1,70,127,32
1,40,92,4
1,71,91,12
1,67,111,72
1,64,127,44
1,38,92,0
1,62,127,52
1,37,97,44
1,36,98,28
1,79,119,252
1,74,111,4
1,73,127,0
1,74,76,24
1,79,84,4
1,40,93,4
1,79,72,80
1,74,73,4
1,79,96,88
1,74,83,4
1,74,104,52
1,79,117,4
1,73,127,4
1,43,86,0
1,74,40,80
1,74,77,60
1,79,90,4
1,79,93,44
1,74,83,0
1,45,71,4
1,74,68,88
1,79,83,4
1,74,84,96
1,79,93,4
1,40,66,4
1,74,115,60
1,79,123,4
1,73,127,4
1,43,86,4
1,73,115,92
1,72,97,36
1,70,125,52
1,40,89,4
1,71,98,52
1,67,111,68
1,64,124,88
1,38,92,0
1,67,127,44
1,40,92,60
1,39,93,260
1,62,104,24
1,64,111,0
1,57,109,4
1,66,110,4
1,38,89,0
1,42,90,32
1,45,88,52
1,42,98,60
1,38,85,148
1,42,96,28
1,62,115,256
1,58,123,4
1,64,121,4
1,67,113,0
1,36,91,48
1,40,86,384
1,59,121,52
1,67,100,4
1,62,117,4
1,64,123,4
1,43,98,64
1,59,127,248
1,67,121,0
1,62,127,4
1,64,127,4
1,40,101,44
1,38,98,24
1,76,119,4
1,74,117,4
1,71,109,0
1,79,109,4
1,59,127,76
1,62,127,4
1,67,124,4
1,64,127,0
1,35,113,4
1,31,104,56
1,74,121,4
1,76,121,4
1,71,113,0
1,79,109,4
1,62,127,48
1,59,127,4
1,64,127,4
1,67,127,4
1,35,97,0
1,74,127,92
1,76,127,4
1,71,123,4
1,79,117,0
1,38,91,64
1,40,102,60
1,36,104,52
1,64,106,248
1,55,98,4
1,60,111,0
1,40,104,56
1,60,107,56
1,55,73,4
1,64,95,4
1,43,97,48
1,64,96,252
1,60,117,4
1,55,100,0
1,45,97,44
1,55,76,52
1,64,104,0
1,60,109,4
1,43,88,36
1,59,126,248
1,55,101,4
1,62,100,0
1,40,89,36
1,59,107,40
1,55,54,4
1,62,92,0
1,38,96,40
1,59,124,248
1,55,102,4
1,62,109,0
1,40,92,68
1,38,59,52
1,59,117,4
1,62,101,8
1,55,80,4
1,36,97,24
1,60,117,240
1,55,102,4
1,64,121,4
1,40,96,8
1,55,78,36
1,64,109,0
1,60,115,4
1,43,91,60
1,60,121,256
1,64,117,4
1,55,106,0
1,45,92,56
1,55,81,72
1,60,109,0
1,64,107,4
1,43,88,48
1,59,119,252
1,62,102,4
1,55,90,0
1,40,95,48
1,62,88,56
1,59,100,4
1,55,59,4
1,38,96,40
1,59,119,248
1,55,97,0
1,62,104,4
1,40,92,28
1,59,107,4
1,38,44,4
1,62,92,4
1,55,72,0
1,36,95,16
1,60,109,236
1,55,93,4
1,64,107,4
1,40,92,20
1,64,109,60
1,60,113,4
1,55,83,8
1,43,88,28
1,64,113,256
1,60,111,4
1,55,93,0
1,45,81,52
1,55,82,72
1,60,109,4
1,64,109,4
1,43,88,88
1,59,117,224
1,62,101,4
1,55,89,0
1,40,86,8
1,55,71,80
1,59,109,4
1,62,92,0
1,38,90,36
1,62,104,252
1,55,95,0
1,59,119,4
1,35,98,16
1,59,117,72
1,62,101,4
1,55,82,8
1,33,102,44
1,64,97,252
1,61,117,4
1,55,82,4
1,35,101,40
1,61,110,76
1,64,97,4
1,55,76,4
1,36,92,44
1,64,111,256
1,61,123,0
1,55,93,4
1,37,115,56
1,55,85,56
1,64,107,0
1,61,123,4
1,38,101,48
1,60,102,252
1,57,88,4
1,66,101,0
1,62,96,4
1,40,96,32
1,60,98,36
1,57,84,4
1,66,97,0
1,62,96,4
1,41,89,40
1,62,113,252
1,57,101,4
1,66,119,0
1,60,119,4
1,42,101,52
1,60,111,56
1,57,97,4
1,66,115,4
1,62,107,0
1,43,89,32
1,67,109,260
1,62,109,4
1,59,119,0
1,64,119,4
1,40,83,44
1,38,86,12
1,67,104,8
1,62,109,4
1,64,117,4
1,59,111,0
1,35,100,68
1,67,101,8
1,59,115,4
1,62,117,4
1,64,124,0
1,36,107,44
1,64,107,16
1,62,101,4
1,67,95,0
1,58,96,4
1,67,93,68
1,58,106,4
1,64,117,0
1,62,102,4
1,40,100,40
1,62,106,260
1,64,111,0
1,67,95,4
1,58,94,4
1,43,84,64
1,62,111,56
1,58,112,4
1,67,101,4
1,64,115,0
1,45,90,12
1,59,117,40
1,64,104,4
1,62,101,4
1,67,93,16
1,43,84,60
1,62,115,256
1,67,109,0
1,59,121,4
1,64,117,4
1,40,89,28
1,38,84,60
1,76,127,12
1,74,121,4
1,79,115,4
1,71,113,0
1,62,113,28
1,67,113,0
1,59,119,4
1,64,119,4
1,40,91,36
1,43,89,40
1,59,111,16
1,62,107,4
1,64,115,4
1,67,107,0
1,40,89,20
1,76,127,4
1,74,124,4
1,79,121,4
1,71,115,0
1,67,121,32
1,59,123,0
1,62,121,4
1,64,124,4
1,38,100,32
1,37,110,52
1,36,104,28
1,58,104,256
1,67,107,4
1,64,115,0
1,62,106,4
1,40,95,48
1,43,85,36
1,58,94,16
1,62,101,0
1,64,111,4
1,67,96,4
1,58,89,68
1,67,89,4
1,64,106,0
1,62,89,4
1,45,90,20
1,46,97,48
1,67,97,16
1,58,94,4
1,64,109,0
1,62,102,4
1,62,91,48
1,58,93,4
1,67,85,4
1,64,107,4
1,45,93,24
1,58,108,248
1,62,104,4
1,67,93,0
1,64,104,8
1,43,91,32
1,40,96,28
1,67,104,16
1,62,115,0
1,64,119,4
1,58,112,0
1,62,111,60
1,64,117,4
1,59,121,8
1,67,101,0
1,43,102,56
1,67,107,248
1,59,113,4
1,64,115,4
1,62,107,4
1,40,98,60
1,79,119,44
1,74,123,4
1,76,127,4
1,71,115,4
1,38,97,8
1,62,115,4
1,59,117,4
1,67,113,0
1,64,124,4
1,40,88,44
1,38,62,20
1,43,90,60
1,64,124,8
1,67,115,4
1,59,123,4
1,62,119,4
1,40,89,24
1,79,126,12
1,71,121,4
1,74,127,0
1,76,127,4
1,62,123,12
1,59,124,4
1,67,121,4
1,64,126,4
1,38,96,4
1,37,108,56
1,36,102,60
1,73,119,248
1,74,104,4
1,79,119,0
1,40,81,36
1,74,63,4
1,79,69,12
1,74,61,80
1,79,64,4
1,79,96,92
1,74,73,0
1,43,90,28
1,79,123,12
1,74,113,4
1,73,127,0
1,74,73,64
1,79,74,4
1,74,78,84
1,79,85,0
1,74,92,40
1,79,100,0
1,45,85,4
1,79,76,88
1,74,73,4
1,74,83,100
1,79,88,0
1,40,58,4
1,43,96,48
1,74,121,20
1,79,124,0
1,73,104,108
1,72,90,24
1,40,92,32
1,70,127,12
1,71,91,12
1,67,111,68
1,38,92,36
1,64,127,16
1,62,127,52
1,37,97,40
1,36,98,28
1,73,127,252
1,74,111,4
1,79,119,4
1,40,93,20
1,74,76,16
1,79,84,4
1,74,73,84
1,79,72,0
1,74,83,92
1,79,96,4
1,43,86,52
1,79,117,12
1,74,104,4
1,73,127,0
1,74,40,76
1,74,77,68
1,79,90,0
1,74,83,28
1,79,93,4
1,45,71,0
1,79,83,92
1,74,68,4
1,40,66,96
1,74,84,8
1,79,93,4
1,43,86,60
1,79,123,12
1,74,115,4
1,73,127,0
1,73,115,88
1,72,97,40
1,40,89,52
1,70,125,12
1,71,98,48
1,67,111,68
1,38,92,88
1,64,124,12
1,67,127,48
1,40,92,52
1,39,93,264
1,38,89,16
1,62,104,16
1,64,111,4
1,57,109,0
1,66,110,4
1,42,90,32
1,45,88,52
1,42,98,56
1,39,80,52
1,38,85,8
1,42,96,24
1,62,115,256
1,58,123,4
1,67,113,4
1,64,121,0
1,43,91,48
1,36,91,0
1,40,86,384
1,62,117,60
1,59,121,4
1,67,100,4
1,64,123,0
1,43,98,60
1,59,127,252
1,67,121,0
1,62,127,4
1,64,127,4
1,40,101,40
1,38,98,20
1,76,119,12
1,74,117,4
1,71,109,0
1,79,109,4
1,35,113,72
1,59,127,4
1,62,127,4
1,67,124,4
1,64,127,0
1,31,104,44
1,74,121,20
1,76,121,0
1,71,113,4
1,79,109,0
1,35,97,48
1,62,127,4
1,59,127,4
1,64,127,4
1,67,127,0
1,74,127,96
1,76,127,4
1,71,123,4
1,79,117,4
1,38,91,60
1,40,102,52
1,66,110,68
1,57,109,0
1,64,111,4
1,62,104,4
1,38,101,0
1,42,93,40
1,45,101,392
1,42,108,12
1,38,104,32
1,37,115,40
1,58,123,256
1,62,115,0
1,67,113,4
1,64,121,4
1,36,109,32
1,40,95,28
1,43,88,36
1,62,117,8
1,67,100,4
1,59,121,0
1,64,123,4
1,31,100,36
1,64,127,260
1,62,127,0
1,67,121,4
1,59,127,4
1,35,95,36
1,38,91,20
1,79,109,16
1,71,109,4
1,74,117,0
1,76,119,4
1,64,127,56
1,67,124,0
1,62,127,4
1,59,127,4
1,40,101,4
1,43,81,16
1,31,102,40
1,79,109,12
1,71,113,4
1,76,121,0
1,74,121,4
1,67,127,20
1,64,127,4
1,59,127,4
1,62,127,4
1,35,98,8
1,74,127,100
1,76,127,4
1,71,123,0
1,79,117,4
1,36,97,28
1,37,121,52
1,38,102,48
1,66,102,4
1,57,102,4
1,64,102,0
1,62,102,4
1,42,101,44
1,45,99,56
1,42,98,20
1,38,96,40
1,37,95,64
1,58,94,252
1,62,94,4
1,67,94,4
1,64,94,0
1,36,93,44
1,40,92,16
1,43,91,12
1,62,91,8
1,67,91,4
1,59,91,4
1,64,91,4
1,31,90,12
1,64,89,256
1,62,89,4
1,67,89,4
1,59,89,0
1,35,89,120
1,38,87,24
1,79,87,8
1,71,87,4
1,74,87,0
1,76,87,4
1,40,86,48
1,64,86,4
1,67,86,0
1,62,86,4
1,59,86,4
1,43,85,8
1,31,84,24
1,79,84,8
1,71,84,4
1,76,84,0
1,74,84,4
1,35,83,8
1,67,83,4
1,64,83,0
1,59,83,4
1,62,83,4
1,74,82,104
1,76,82,4
1,71,82,0
1,79,82,4
1,36,81,52
1,37,80,44
1,38,78,40
1,66,78,24
1,57,78,0
1,64,78,4
1,62,78,0
1,42,77,16
1,45,75,24
1,42,74,380
1,38,72,44
1,37,71,32
1,58,70,260
1,62,70,4
1,67,70,4
1,64,70,0
1,36,69,12
1,40,68,28
1,43,67,60
1,62,67,8
1,67,67,4
1,59,67,0
1,64,67,4
1,31,66,28
1,64,65,256
1,62,65,0
1,67,65,4
1,59,65,4
1,35,65,20
1,38,63,20
1,79,63,8
1,71,63,4
1,74,63,0
1,76,63,4
1,40,62,32
1,64,62,4
1,67,62,0
1,62,62,4
1,59,62,4
1,43,61,20
1,31,60,20
1,79,60,4
1,71,60,4
1,76,60,0
1,74,60,4
1,31,59,68
1,35,59,136
1,67,59,0
1,64,59,4
1,59,59,4
1,62,59,4
1,35,58,60
1,74,58,8
1,76,58,4
1,71,58,0
1,79,58,4
1,36,57,64
1,36,56,68
1,37,56,136
1,37,55,80
1,38,54,20
1,66,54,4
1,57,54,4
1,64,54,4
1,62,54,0
1,42,53,44
1,45,51,44
1,38,50,396
