track,note,velocity,time
1,85,120,1920
1,81,120,0
1,76,120,0
1,76,0,160
1,81,0,0
1,85,0,0
1,85,120,0
1,76,120,0
1,81,120,0
1,81,0,160
1,76,0,0
1,85,0,0
1,85,120,0
1,81,120,0
1,76,120,0
1,76,0,160
1,81,0,0
1,85,0,0
1,85,120,0
1,81,120,0
1,76,120,0
1,76,0,160
1,81,0,0
1,85,0,0
1,85,120,0
1,81,120,0
1,76,120,0
1,76,0,160
1,81,0,0
1,85,0,0
1,85,120,0
1,81,120,0
1,76,120,0
1,76,0,160
1,81,0,0
1,85,0,0
1,81,120,0
1,85,120,0
1,76,120,0
1,76,0,160
1,85,0,0
1,81,0,0
1,76,120,0
1,85,120,0
1,81,120,0
1,81,0,160
1,85,0,0
1,76,0,0
1,76,120,0
1,81,120,0
1,85,120,0
1,85,0,160
1,81,0,0
1,76,0,0
1,85,120,0
1,81,120,0
1,76,120,0
1,76,0,160
1,81,0,0
1,85,0,0
1,85,120,0
1,81,120,0
1,76,120,0
1,76,0,160
1,81,0,0
1,85,0,0
1,85,120,0
1,81,120,0
1,76,120,0
1,76,0,160
1,81,0,0
1,85,0,0
1,76,120,0
1,85,120,0
1,81,120,0
1,81,0,160
1,85,0,0
1,76,0,0
1,85,120,0
1,76,120,0
1,81,120,0
1,81,0,160
1,76,0,0
1,85,0,0
1,76,120,0
1,85,120,0
1,81,120,0
1,81,0,160
1,85,0,0
1,76,0,0
1,81,120,0
1,85,120,0
1,76,120,0
1,76,0,160
1,85,0,0
1,81,0,0
1,76,120,0
1,85,120,0
1,81,120,0
1,81,0,160
1,85,0,0
1,76,0,0
1,76,120,0
1,85,120,0
1,81,120,0
1,81,0,160
1,85,0,0
1,76,0,0
1,81,120,0
1,76,120,0
1,85,120,0
1,85,0,160
1,76,0,0
1,81,0,0
1,81,120,0
1,76,120,0
1,85,120,0
1,85,0,160
1,76,0,0
1,81,0,0
1,81,120,0
1,85,120,0
1,76,120,0
1,76,0,160
1,85,0,0
1,81,0,0
1,76,120,0
1,81,120,0
1,85,120,0
1,85,0,160
1,81,0,0
1,76,0,0
1,76,120,0
1,81,120,0
1,85,120,0
1,85,0,160
1,81,0,0
1,76,0,0
1,85,120,0
1,81,120,0
1,76,120,0
1,76,0,160
1,81,0,0
1,85,0,0
1,81,120,0
1,86,120,0
1,78,120,0
1,78,0,160
1,86,0,0
1,81,0,0
1,78,120,0
1,81,120,0
1,86,120,0
1,86,0,160
1,81,0,0
1,78,0,0
1,86,120,0
1,81,120,0
1,78,120,0
1,78,0,160
1,81,0,0
1,86,0,0
1,86,120,0
1,81,120,0
1,78,120,0
1,78,0,160
1,81,0,0
1,86,0,0
1,86,120,0
1,81,120,0
1,78,120,0
1,78,0,160
1,81,0,0
1,86,0,0
1,86,120,0
1,81,120,0
1,78,120,0
1,78,0,160
1,81,0,0
1,86,0,0
1,86,120,0
1,81,120,0
1,78,120,0
1,78,0,160
1,81,0,0
1,86,0,0
1,86,120,0
1,81,120,0
1,78,120,0
1,78,0,160
1,81,0,0
1,86,0,0
1,86,120,0
1,81,120,0
1,78,120,0
1,78,0,160
1,81,0,0
1,86,0,0
1,86,120,0
1,81,120,0
1,78,120,0
1,78,0,160
1,81,0,0
1,86,0,0
1,86,120,0
1,81,120,0
1,78,120,0
1,78,0,160
1,81,0,0
1,86,0,0
1,86,120,0
1,81,120,0
1,78,120,0
1,78,0,160
1,81,0,0
1,86,0,0
1,85,120,0
1,81,120,0
1,76,120,0
1,76,0,160
1,81,0,0
1,85,0,0
1,85,120,0
1,81,120,0
1,76,120,0
1,76,0,160
1,81,0,0
1,85,0,0
1,76,120,0
1,81,120,0
1,85,120,0
1,85,0,160
1,81,0,0
1,76,0,0
1,76,120,0
1,85,120,0
1,81,120,0
1,81,0,160
1,85,0,0
1,76,0,0
1,85,120,0
1,76,120,0
1,81,120,0
1,81,0,160
1,76,0,0
1,85,0,0
1,76,120,0
1,85,120,0
1,81,120,0
1,81,0,160
1,85,0,0
1,76,0,0
1,76,120,0
1,85,120,0
1,81,120,0
1,81,0,160
1,85,0,0
1,76,0,0
1,76,120,0
1,85,120,0
1,81,120,0
1,81,0,160
1,85,0,0
1,76,0,0
1,76,120,0
1,85,120,0
1,81,120,0
1,81,0,160
1,85,0,0
1,76,0,0
1,76,120,0
1,81,120,0
1,85,120,0
1,85,0,160
1,81,0,0
1,76,0,0
1,76,120,0
1,81,120,0
1,85,120,0
1,85,0,160
1,81,0,0
1,76,0,0
1,76,120,0
1,85,120,0
1,81,120,0
1,81,0,160
1,85,0,0
1,76,0,0
1,76,120,0
1,85,120,0
1,81,120,0
1,81,0,160
1,85,0,0
1,76,0,0
1,76,120,0
1,85,120,0
1,81,120,0
1,81,0,160
1,85,0,0
1,76,0,0
1,76,120,0
1,85,120,0
1,81,120,0
1,81,0,160
1,85,0,0
1,76,0,0
1,76,120,0
1,85,120,0
1,81,120,0
1,81,0,160
1,85,0,0
1,76,0,0
1,76,121,0
1,85,121,0
1,81,121,0
1,81,0,160
1,85,0,0
1,76,0,0
1,85,121,0
1,76,121,0
1,81,121,0
1,81,0,160
1,76,0,0
1,85,0,0
1,76,121,0
1,85,121,0
1,81,121,0
1,81,0,160
1,85,0,0
1,76,0,0
1,76,121,0
1,85,121,0
1,81,121,0
1,81,0,160
1,85,0,0
1,76,0,0
1,76,121,0
1,85,121,0
1,81,121,0
1,81,0,160
1,85,0,0
1,76,0,0
1,76,121,0
1,85,121,0
1,81,121,0
1,81,0,160
1,85,0,0
1,76,0,0
1,76,121,0
1,85,121,0
1,81,121,0
1,81,0,160
1,85,0,0
1,76,0,0
1,76,121,0
1,81,121,0
1,85,121,0
1,85,0,160
1,81,0,0
1,76,0,0
1,83,121,0
1,76,121,0
1,80,121,0
1,80,0,160
1,76,0,0
1,83,0,0
1,80,121,0
1,83,121,0
1,76,121,0
1,76,0,160
1,83,0,0
1,80,0,0
1,83,121,0
1,76,121,0
1,80,121,0
1,80,0,160
1,76,0,0
1,83,0,0
1,83,121,0
1,80,121,0
1,76,121,0
1,76,0,160
1,80,0,0
1,83,0,0
1,83,121,0
1,80,121,0
1,76,121,0
1,76,0,160
1,80,0,0
1,83,0,0
1,83,121,0
1,76,121,0
1,80,121,0
1,80,0,160
1,76,0,0
1,83,0,0
1,83,121,0
1,76,121,0
1,80,121,0
1,80,0,160
1,76,0,0
1,83,0,0
1,83,121,0
1,80,121,0
1,76,121,0
1,76,0,160
1,80,0,0
1,83,0,0
1,83,121,0
1,80,121,0
1,76,121,0
1,76,0,160
1,80,0,0
1,83,0,0
1,83,121,0
1,76,121,0
1,80,121,0
1,80,0,160
1,76,0,0
1,83,0,0
1,83,121,0
1,76,121,0
1,80,121,0
1,80,0,160
1,76,0,0
1,83,0,0
1,83,121,0
1,76,121,0
1,80,121,0
1,80,0,160
1,76,0,0
1,83,0,0
1,85,121,0
1,76,121,0
1,81,121,0
1,81,0,160
1,76,0,0
1,85,0,0
1,76,121,0
1,85,121,0
1,81,121,0
1,81,0,160
1,85,0,0
1,76,0,0
1,76,121,0
1,85,121,0
1,81,121,0
1,81,0,160
1,85,0,0
1,76,0,0
1,76,121,0
1,81,121,0
1,85,121,0
1,85,0,160
1,81,0,0
1,76,0,0
1,76,121,0
1,85,121,0
1,81,121,0
1,81,0,160
1,85,0,0
1,76,0,0
1,76,121,0
1,85,121,0
1,81,121,0
1,81,0,160
1,85,0,0
1,76,0,0
1,76,121,0
1,81,121,0
1,85,121,0
1,85,0,160
1,81,0,0
1,76,0,0
1,85,121,0
1,76,121,0
1,81,121,0
1,81,0,160
1,76,0,0
1,85,0,0
1,81,121,0
1,76,121,0
1,85,121,0
1,85,0,160
1,76,0,0
1,81,0,0
1,76,121,0
1,81,121,0
1,85,121,0
1,85,0,160
1,81,0,0
1,76,0,0
1,76,121,0
1,81,121,0
1,85,121,0
1,85,0,160
1,81,0,0
1,76,0,0
1,85,121,0
1,76,121,0
1,81,121,0
1,81,0,160
1,76,0,0
1,85,0,0
1,85,121,0
1,76,121,0
1,81,121,0
1,81,0,160
1,76,0,0
1,85,0,0
1,76,121,0
1,85,121,0
1,81,121,0
1,81,0,160
1,85,0,0
1,76,0,0
1,76,121,0
1,85,121,0
1,81,121,0
1,81,0,160
1,85,0,0
1,76,0,0
1,76,121,0
1,81,121,0
1,85,121,0
1,85,0,160
1,81,0,0
1,76,0,0
1,76,121,0
1,85,121,0
1,81,121,0
1,81,0,160
1,85,0,0
1,76,0,0
1,76,121,0
1,85,121,0
1,81,121,0
1,81,0,160
1,85,0,0
1,76,0,0
1,76,121,0
1,81,121,0
1,85,121,0
1,85,0,160
1,81,0,0
1,76,0,0
1,80,120,0
1,83,120,0
1,76,120,0
1,76,0,160
1,83,0,0
1,80,0,0
1,83,121,0
1,80,121,0
1,76,121,0
1,76,0,160
1,80,0,0
1,83,0,0
1,83,122,0
1,80,122,0
1,76,122,0
1,76,0,160
1,80,0,0
1,83,0,0
1,83,124,0
1,80,124,0
1,76,124,0
1,76,0,160
1,80,0,0
1,83,0,0
1,83,125,0
1,80,125,0
1,76,125,0
1,76,0,160
1,80,0,0
1,83,0,0
1,85,120,0
1,81,120,0
1,76,120,0
1,76,0,160
1,81,0,0
1,85,0,0
1,85,120,0
1,76,120,0
1,81,120,0
1,81,0,160
1,76,0,0
1,85,0,0
1,85,120,0
1,81,120,0
1,76,120,0
1,76,0,160
1,81,0,0
1,85,0,0
1,85,120,0
1,81,120,0
1,76,120,0
1,76,0,160
1,81,0,0
1,85,0,0
1,85,120,0
1,81,120,0
1,76,120,0
1,76,0,160
1,81,0,0
1,85,0,0
1,85,120,0
1,81,120,0
1,76,120,0
1,76,0,160
1,81,0,0
1,85,0,0
1,81,120,0
1,85,120,0
1,76,120,0
1,76,0,160
1,85,0,0
1,81,0,0
1,76,120,0
1,85,120,0
1,81,120,0
1,81,0,160
1,85,0,0
1,76,0,0
1,76,120,0
1,81,120,0
1,85,120,0
1,85,0,160
1,81,0,0
1,76,0,0
1,85,120,0
1,81,120,0
1,76,120,0
1,76,0,160
1,81,0,0
1,85,0,0
1,85,120,0
1,81,120,0
1,76,120,0
1,76,0,160
1,81,0,0
1,85,0,0
1,85,120,0
1,81,120,0
1,76,120,0
1,76,0,160
1,81,0,0
1,85,0,0
1,76,120,0
1,85,120,0
1,81,120,0
1,81,0,160
1,85,0,0
1,76,0,0
1,85,120,0
1,76,120,0
1,81,120,0
1,81,0,160
1,76,0,0
1,85,0,0
1,76,120,0
1,85,120,0
1,81,120,0
1,81,0,160
1,85,0,0
1,76,0,0
1,81,120,0
1,85,120,0
1,76,120,0
1,76,0,160
1,85,0,0
1,81,0,0
1,76,120,0
1,85,120,0
1,81,120,0
1,81,0,160
1,85,0,0
1,76,0,0
1,76,120,0
1,85,120,0
1,81,120,0
1,81,0,160
1,85,0,0
1,76,0,0
1,81,120,0
1,76,120,0
1,85,120,0
1,85,0,160
1,76,0,0
1,81,0,0
1,81,120,0
1,76,120,0
1,85,120,0
1,85,0,160
1,76,0,0
1,81,0,0
1,81,120,0
1,85,120,0
1,76,120,0
1,76,0,160
1,85,0,0
1,81,0,0
1,76,120,0
1,81,120,0
1,85,120,0
1,85,0,160
1,81,0,0
1,76,0,0
1,76,120,0
1,81,120,0
1,85,120,0
1,85,0,160
1,81,0,0
1,76,0,0
1,85,120,0
1,81,120,0
1,76,120,0
1,76,0,160
1,81,0,0
1,85,0,0
1,81,120,0
1,86,120,0
1,78,120,0
1,78,0,160
1,86,0,0
1,81,0,0
1,78,120,0
1,81,120,0
1,86,120,0
1,86,0,160
1,81,0,0
1,78,0,0
1,86,120,0
1,81,120,0
1,78,120,0
1,78,0,160
1,81,0,0
1,86,0,0
1,86,120,0
1,81,120,0
1,78,120,0
1,78,0,160
1,81,0,0
1,86,0,0
1,86,120,0
1,81,120,0
1,78,120,0
1,78,0,160
1,81,0,0
1,86,0,0
1,86,120,0
1,81,120,0
1,78,120,0
1,78,0,160
1,81,0,0
1,86,0,0
1,86,120,0
1,81,120,0
1,78,120,0
1,78,0,160
1,81,0,0
1,86,0,0
1,86,120,0
1,81,120,0
1,78,120,0
1,78,0,160
1,81,0,0
1,86,0,0
1,86,120,0
1,81,120,0
1,78,120,0
1,78,0,160
1,81,0,0
1,86,0,0
1,86,120,0
1,81,120,0
1,78,120,0
1,78,0,160
1,81,0,0
1,86,0,0
1,86,120,0
1,81,120,0
1,78,120,0
1,78,0,160
1,81,0,0
1,86,0,0
1,86,120,0
1,81,120,0
1,78,120,0
1,78,0,160
1,81,0,0
1,86,0,0
1,85,120,0
1,81,120,0
1,76,120,0
1,76,0,160
1,81,0,0
1,85,0,0
1,85,120,0
1,81,120,0
1,76,120,0
1,76,0,160
1,81,0,0
1,85,0,0
1,76,120,0
1,81,120,0
1,85,120,0
1,85,0,160
1,81,0,0
1,76,0,0
1,76,120,0
1,85,120,0
1,81,120,0
1,81,0,160
1,85,0,0
1,76,0,0
1,85,120,0
1,76,120,0
1,81,120,0
1,81,0,160
1,76,0,0
1,85,0,0
1,76,120,0
1,85,120,0
1,81,120,0
1,81,0,160
1,85,0,0
1,76,0,0
1,76,120,0
1,85,120,0
1,81,120,0
1,81,0,160
1,85,0,0
1,76,0,0
1,76,120,0
1,85,120,0
1,81,120,0
1,81,0,160
1,85,0,0
1,76,0,0
1,76,120,0
1,85,120,0
1,81,120,0
1,81,0,160
1,85,0,0
1,76,0,0
1,76,120,0
1,81,120,0
1,85,120,0
1,85,0,160
1,81,0,0
1,76,0,0
1,76,120,0
1,81,120,0
1,85,120,0
1,85,0,160
1,81,0,0
1,76,0,0
1,76,120,0
1,85,120,0
1,81,120,0
1,81,0,160
1,85,0,0
1,76,0,0
1,76,120,0
1,85,120,0
1,81,120,0
1,81,0,160
1,85,0,0
1,76,0,0
1,76,120,0
1,85,120,0
1,81,120,0
1,81,0,160
1,85,0,0
1,76,0,0
1,76,120,0
1,85,120,0
1,81,120,0
1,81,0,160
1,85,0,0
1,76,0,0
1,76,120,0
1,85,120,0
1,81,120,0
1,81,0,160
1,85,0,0
1,76,0,0
1,76,121,0
1,85,121,0
1,81,121,0
1,81,0,160
1,85,0,0
1,76,0,0
1,85,121,0
1,76,121,0
1,81,121,0
1,81,0,160
1,76,0,0
1,85,0,0
1,76,121,0
1,85,121,0
1,81,121,0
1,81,0,160
1,85,0,0
1,76,0,0
1,76,121,0
1,85,121,0
1,81,121,0
1,81,0,160
1,85,0,0
1,76,0,0
1,76,121,0
1,85,121,0
1,81,121,0
1,81,0,160
1,85,0,0
1,76,0,0
1,76,121,0
1,85,121,0
1,81,121,0
1,81,0,160
1,85,0,0
1,76,0,0
1,76,121,0
1,85,121,0
1,81,121,0
1,81,0,160
1,85,0,0
1,76,0,0
1,76,121,0
1,81,121,0
1,85,121,0
1,85,0,160
1,81,0,0
1,76,0,0
1,83,121,0
1,76,121,0
1,80,121,0
1,80,0,160
1,76,0,0
1,83,0,0
1,80,121,0
1,83,121,0
1,76,121,0
1,76,0,160
1,83,0,0
1,80,0,0
1,83,121,0
1,76,121,0
1,80,121,0
1,80,0,160
1,76,0,0
1,83,0,0
1,83,121,0
1,80,121,0
1,76,121,0
1,76,0,160
1,80,0,0
1,83,0,0
1,83,121,0
1,80,121,0
1,76,121,0
1,76,0,160
1,80,0,0
1,83,0,0
1,83,121,0
1,76,121,0
1,80,121,0
1,80,0,160
1,76,0,0
1,83,0,0
1,83,121,0
1,76,121,0
1,80,121,0
1,80,0,160
1,76,0,0
1,83,0,0
1,83,121,0
1,80,121,0
1,76,121,0
1,76,0,160
1,80,0,0
1,83,0,0
1,83,121,0
1,80,121,0
1,76,121,0
1,76,0,160
1,80,0,0
1,83,0,0
1,83,121,0
1,76,121,0
1,80,121,0
1,80,0,160
1,76,0,0
1,83,0,0
1,83,121,0
1,76,121,0
1,80,121,0
1,80,0,160
