track,note,velocity,time
3,70,107,2640
3,70,0,192
3,70,107,48
3,70,0,192
3,72,119,48
3,72,0,192
3,75,94,48
3,75,0,192
3,79,115,48
3,79,0,1180
3,75,108,1700
3,75,0,192
3,77,105,48
3,77,94,0
3,77,0,192
3,77,0,0
3,79,96,48
3,79,0,192
3,77,123,48
3,77,0,192
3,75,109,48
3,75,0,192
3,77,99,48
3,77,0,192
3,75,122,48
3,75,0,192
3,75,104,48
3,75,0,576
3,68,112,144
3,68,0,192
3,72,102,48
3,72,0,192
3,70,107,48
3,70,0,960
3,70,110,240
3,70,107,0
3,70,0,192
3,70,0,0
3,72,106,48
3,72,0,192
3,75,102,48
3,75,0,192
3,79,108,48
3,79,0,768
3,70,112,2112
3,70,0,192
3,79,105,48
3,79,0,192
3,79,111,48
3,79,0,192
3,80,106,48
3,80,0,192
3,79,120,48
3,79,0,192
3,79,114,48
3,79,0,384
3,77,108,96
3,77,0,1920
3,70,101,480
3,70,0,192
3,72,105,48
3,72,0,192
3,75,113,48
3,75,0,192
3,79,104,48
3,79,0,1180
3,75,108,1700
3,75,0,192
3,77,120,48
3,77,0,192
3,79,119,48
3,79,0,192
3,77,102,48
3,77,0,192
3,75,107,48
3,75,0,192
3,77,94,48
3,77,0,192
3,75,108,48
3,75,0,192
3,75,118,48
3,75,0,460
3,68,96,260
3,68,0,192
3,72,106,48
3,72,0,192
3,70,112,48
3,70,0,192
3,70,114,48
3,70,0,768
3,70,114,192
3,70,0,192
3,72,117,48
3,72,0,192
3,75,98,48
3,75,0,192
3,79,109,48
3,79,0,1180
3,70,120,1700
3,70,0,192
3,79,99,48
3,79,0,192
3,77,122,48
3,77,0,192
3,75,119,48
3,75,0,192
3,72,94,48
3,72,0,192
3,75,106,48
3,75,0,192
3,77,99,48
3,77,0,192
3,75,108,48
3,75,0,1420
3,79,117,980
3,79,0,192
3,82,98,48
3,82,0,384
3,82,115,96
3,82,0,576
3,82,107,144
3,82,0,384
3,82,108,96
3,82,0,192
3,82,94,48
3,82,0,384
3,84,113,96
3,84,0,576
3,82,123,144
3,82,0,384
3,79,100,96
3,79,0,192
3,77,117,48
3,77,0,384
3,75,103,96
3,75,0,576
3,75,102,144
3,75,0,384
3,75,106,96
3,75,0,192
3,72,108,48
3,72,0,384
3,80,108,96
3,80,0,1152
3,79,96,288
3,79,0,192
3,82,118,48
3,82,0,192
3,82,110,48
3,82,0,576
3,82,113,144
3,82,0,384
3,82,105,96
3,82,0,192
3,82,116,48
3,82,0,384
3,84,95,96
3,84,0,384
3,82,109,96
3,82,0,700
3,79,117,260
3,79,0,192
3,80,96,48
3,80,0,192
3,79,110,48
3,79,0,192
3,77,108,48
3,77,0,1888
3,79,107,992
3,79,0,192
3,82,105,48
3,82,0,384
3,82,109,96
3,82,0,576
3,82,108,144
3,82,0,384
3,82,107,96
3,82,0,192
3,82,117,48
3,82,0,384
3,84,104,96
3,84,0,384
3,82,108,96
3,82,0,384
3,79,100,96
3,79,0,384
3,77,108,96
3,77,0,192
3,75,101,48
3,75,0,192
3,72,95,48
3,72,0,192
3,75,108,48
3,75,0,384
3,75,99,96
3,75,0,384
3,75,106,96
3,75,0,192
3,72,114,48
3,72,0,384
3,80,106,96
3,80,0,1152
3,79,108,288
3,79,0,192
3,82,105,48
3,82,0,192
3,82,108,48
3,82,0,576
3,79,109,144
3,79,0,384
3,77,113,96
3,77,0,192
3,75,113,48
3,75,0,192
3,72,111,48
3,72,0,192
3,70,95,48
3,70,0,768
3,70,108,192
3,70,0,192
3,79,105,48
3,79,0,192
3,77,107,48
3,77,0,192
3,75,108,48
3,75,0,192
3,77,109,48
3,77,0,576
3,75,108,144
3,75,0,384
3,72,108,96
3,72,0,192
3,70,104,48
3,70,0,192
3,67,103,48
3,67,0,192
3,63,121,48
3,63,0,576
3,70,108,144
3,70,0,384
3,70,109,96
3,70,0,192
3,72,105,48
3,72,0,192
3,75,106,48
3,75,0,384
3,70,121,96
3,75,108,0
3,79,108,0
3,79,0,384
3,75,0,0
3,70,0,0
3,79,108,576
3,79,0,192
3,77,106,48
3,77,0,192
3,75,105,48
3,75,0,192
3,70,109,48
3,74,109,0
3,77,123,0
3,77,0,768
3,74,0,0
3,70,0,0
3,78,108,432
3,78,0,192
3,79,115,48
3,79,0,192
3,78,105,48
3,78,0,192
3,77,102,48
3,77,0,192
3,75,112,48
3,75,0,384
3,73,101,96
3,73,0,192
3,70,108,48
3,70,0,96
3,68,105,144
3,68,0,384
3,66,114,96
3,66,0,384
3,63,110,96
3,63,0,460
3,70,109,500
3,70,0,192
3,72,102,48
3,72,0,192
3,75,109,48
3,75,0,192
3,79,120,48
3,79,0,1180
3,75,103,1700
3,75,0,192
3,77,102,48
3,77,0,192
3,79,95,48
3,79,0,192
3,77,108,48
3,77,0,192
3,75,108,48
3,75,0,192
3,77,102,48
3,77,0,192
3,75,106,48
3,75,0,192
3,75,108,48
3,75,0,460
3,68,102,260
3,68,0,192
3,72,108,48
3,72,0,192
3,70,104,48
3,70,0,960
3,70,111,240
3,70,0,192
3,72,96,48
3,72,0,192
3,75,102,48
3,75,0,192
3,79,107,48
3,79,0,1180
3,70,119,1700
3,70,0,192
3,79,97,48
3,79,0,192
3,79,115,48
3,79,0,192
3,80,101,48
3,80,0,192
3,79,106,48
3,79,0,192
3,79,108,48
3,79,0,384
3,77,106,96
3,77,0,460
3,70,119,1700
3,70,0,192
3,70,103,48
3,70,0,192
3,72,101,48
3,72,0,192
3,75,112,48
3,75,0,192
3,79,98,48
3,79,0,1180
3,75,108,1700
3,75,0,192
3,77,96,48
3,77,0,192
3,79,100,48
3,79,0,192
3,77,103,48
3,77,0,192
3,75,108,48
3,75,0,192
3,77,93,48
3,77,0,192
3,75,101,48
3,75,0,192
3,75,108,48
3,75,0,576
3,68,112,144
3,68,0,192
3,72,104,48
3,72,0,192
3,70,96,48
3,70,0,700
3,70,97,260
3,70,0,192
3,70,96,48
3,70,0,192
3,72,108,48
3,72,0,192
3,75,102,48
3,75,0,192
3,79,103,48
3,79,0,1728
3,70,116,1152
3,70,0,192
3,79,109,48
3,79,0,192
3,75,109,288
3,75,0,192
3,72,109,48
3,72,0,192
3,75,122,48
3,75,0,192
3,77,112,48
3,77,0,192
3,75,110,48
3,75,0,1420
3,79,117,980
3,79,0,192
3,82,119,48
3,82,0,384
3,82,109,96
3,82,0,576
3,82,108,144
3,82,0,384
3,82,104,96
3,82,0,192
3,82,121,48
3,82,0,384
3,84,102,96
3,84,0,576
3,82,113,144
3,82,0,384
3,79,115,96
3,79,0,192
3,77,106,48
3,77,0,384
3,75,107,96
3,75,0,576
3,75,108,144
3,75,0,384
3,75,106,96
3,75,0,192
3,72,108,48
3,72,0,384
3,80,115,96
3,80,0,1152
3,79,113,288
3,79,0,192
3,82,113,48
3,82,0,192
3,82,100,48
3,82,0,576
3,82,121,144
3,82,0,384
3,82,107,96
3,82,0,192
3,82,110,48
3,82,0,384
3,84,108,96
3,84,0,384
3,82,113,96
3,82,0,700
3,79,94,260
3,79,0,192
3,80,108,48
3,80,0,192
3,79,122,48
3,79,0,192
3,77,107,48
3,77,0,1844
3,79,121,1036
3,79,0,192
3,82,107,48
3,82,0,384
3,82,108,96
3,82,0,576
3,82,108,144
3,82,0,384
3,82,118,96
3,82,0,192
3,82,108,48
3,82,0,384
3,84,107,96
3,84,0,384
3,82,93,96
3,82,0,384
3,79,116,96
3,79,0,384
3,77,107,96
3,77,0,192
3,75,99,48
3,75,0,192
3,72,108,48
3,72,0,192
3,75,101,48
3,75,0,384
3,75,97,96
3,75,0,384
3,75,115,96
3,75,0,192
3,72,123,48
3,72,0,384
3,80,105,96
3,80,0,1152
3,79,116,288
3,79,0,192
3,82,106,48
3,82,0,192
3,82,107,48
3,82,0,576
3,79,123,144
3,79,0,384
3,77,114,96
3,77,0,192
3,75,109,48
3,75,0,192
3,72,112,48
3,72,0,192
3,70,109,48
3,70,0,768
3,70,117,192
3,70,0,192
3,79,110,48
3,79,0,192
3,77,104,48
3,77,0,192
3,75,110,48
3,75,0,192
3,77,101,48
3,77,0,576
3,75,119,144
3,75,0,1420
3,79,114,980
3,79,0,192
3,82,117,48
3,82,0,384
3,82,122,96
3,82,0,576
3,82,110,144
3,82,0,384
3,82,115,96
3,82,0,192
3,82,118,48
3,82,0,384
3,84,104,96
3,84,0,576
3,82,100,144
3,82,0,384
3,79,107,96
3,79,0,192
3,77,105,48
3,77,0,384
3,75,102,96
3,75,0,576
3,75,110,144
3,75,0,384
3,75,121,96
3,75,0,192
3,72,109,48
3,72,0,384
3,80,108,96
3,80,0,1152
3,79,119,288
3,79,0,192
3,82,108,48
3,82,0,192
3,82,121,48
3,82,0,576
3,82,113,144
3,82,0,384
3,82,108,96
3,82,0,192
3,82,106,48
3,82,0,384
3,84,110,96
3,84,0,384
3,82,108,96
3,82,0,700
3,79,122,260
3,79,0,192
3,80,98,48
3,80,0,192
3,79,116,48
3,79,0,192
3,77,109,48
3,77,0,1900
3,79,111,980
3,79,0,192
3,82,100,48
3,82,0,384
3,82,121,96
3,82,0,576
3,82,108,144
3,82,0,384
3,82,107,96
3,82,0,192
3,82,117,48
3,82,0,384
3,84,110,96
3,84,0,384
3,82,96,96
3,82,0,384
3,79,111,96
3,79,0,384
3,77,108,96
3,77,0,192
3,75,99,48
3,75,0,192
3,72,106,48
3,72,0,192
3,75,107,48
3,75,0,384
3,75,120,96
3,75,0,384
3,75,96,96
3,75,0,192
3,72,109,48
3,72,0,384
3,80,118,96
3,80,0,1152
3,79,101,288
3,79,0,192
3,82,94,48
3,82,0,192
3,82,107,48
3,82,0,576
3,79,100,144
3,79,0,384
3,77,104,96
3,77,0,192
3,75,109,48
3,75,0,192
3,72,104,48
3,72,0,192
3,70,99,48
3,70,0,768
3,70,99,192
3,70,0,192
3,79,116,48
3,79,0,192
3,77,120,48
3,77,0,192
3,75,116,48
3,75,0,192
3,77,114,48
3,77,0,576
3,75,109,144
3,75,0,1420
3,79,117,980
3,79,0,192
3,82,99,48
3,82,0,384
3,82,108,96
3,82,0,576
3,79,111,144
3,79,0,384
3,77,114,96
3,77,0,192
3,75,111,48
3,75,0,192
3,72,117,48
3,72,0,192
3,70,102,48
3,70,0,768
3,70,105,192
3,70,0,192
3,79,106,48
3,79,0,192
3,82,116,48
3,82,0,192
3,79,95,48
3,79,0,192
3,77,107,48
3,77,0,384
3,75,97,96
3,75,0,3572
4,46,104,2640
4,46,0,192
4,46,120,48
4,46,0,192
4,48,116,48
4,48,0,192
4,51,108,48
4,51,0,192
4,55,110,48
4,55,0,1180
4,51,102,1700
4,51,0,192
4,53,115,48
4,53,112,0
4,53,0,192
4,53,0,0
4,55,108,48
4,55,0,192
4,53,116,48
4,53,0,192
4,51,108,48
4,51,0,192
4,53,108,48
4,53,0,192
4,51,104,48
4,51,0,192
4,51,108,48
4,51,0,576
4,44,108,144
4,44,0,192
4,48,110,48
4,48,0,192
4,46,103,48
4,46,0,960
4,46,96,240
4,46,120,0
4,46,0,192
4,46,0,0
4,48,108,48
4,48,0,192
4,51,109,48
4,51,0,192
4,55,116,48
4,55,0,768
4,46,117,2112
4,46,0,192
4,55,103,48
4,55,0,192
4,55,108,48
4,55,0,192
4,56,111,48
4,56,0,192
4,55,108,48
4,55,0,192
4,55,106,48
4,55,0,384
4,53,107,96
4,53,0,1920
4,46,101,480
4,46,0,192
4,48,113,48
4,48,0,192
4,51,96,48
4,51,0,192
4,55,102,48
4,55,0,1180
4,51,106,1700
4,51,0,192
4,53,101,48
4,53,0,192
4,55,95,48
4,55,0,192
4,53,96,48
4,53,0,192
4,51,96,48
4,51,0,192
4,53,108,48
4,53,0,192
4,51,118,48
4,51,0,192
4,51,108,48
4,51,0,460
4,44,112,260
4,44,0,192
4,48,99,48
4,48,0,192
4,46,122,48
4,46,0,192
4,46,122,48
4,46,0,768
4,46,108,192
4,46,0,192
4,48,109,48
4,48,0,192
4,51,108,48
4,51,0,192
4,55,118,48
4,55,0,1180
4,46,110,1700
4,46,0,192
4,55,101,48
4,55,0,192
4,53,120,48
4,53,0,192
4,51,103,48
4,51,0,192
4,48,104,48
4,48,0,192
4,51,104,48
4,51,0,192
4,53,114,48
4,53,0,192
4,51,98,48
4,51,0,1420
4,55,102,980
4,55,0,192
4,58,119,48
4,58,0,384
4,58,119,96
4,58,0,576
4,58,105,144
4,58,0,384
4,58,93,96
4,58,0,192
4,58,109,48
4,58,0,384
4,60,116,96
4,60,0,576
4,58,103,144
4,58,0,384
4,55,97,96
4,55,0,192
4,53,93,48
4,53,0,384
4,51,117,96
4,51,0,576
4,51,109,144
4,51,0,384
4,51,108,96
4,51,0,192
4,48,109,48
4,48,0,384
4,56,108,96
4,56,0,1152
4,55,106,288
4,55,0,192
4,58,119,48
4,58,0,192
4,58,109,48
4,58,0,576
4,58,108,144
4,58,0,384
4,58,109,96
4,58,0,192
4,58,100,48
4,58,0,384
4,60,114,96
4,60,0,384
4,58,108,96
4,58,0,700
4,55,94,260
4,55,0,192
4,56,111,48
4,56,0,192
4,55,98,48
4,55,0,192
4,53,109,48
4,53,0,1888
4,55,101,992
4,55,0,192
4,58,114,48
4,58,0,384
4,58,122,96
4,58,0,576
4,58,106,144
4,58,0,384
4,58,93,96
4,58,0,192
4,58,120,48
4,58,0,384
4,60,109,96
4,60,0,384
4,58,109,96
4,58,0,384
4,55,113,96
4,55,0,384
4,53,101,96
4,53,0,192
4,51,108,48
4,51,0,192
4,48,115,48
4,48,0,192
4,51,98,48
4,51,0,384
4,51,109,96
4,51,0,384
4,51,122,96
4,51,0,192
4,48,107,48
4,48,0,384
4,56,111,96
4,56,0,1152
4,55,108,288
4,55,0,192
4,58,104,48
4,58,0,192
4,58,98,48
4,58,0,576
4,55,115,144
4,55,0,384
4,53,108,96
4,53,0,192
4,51,115,48
4,51,0,192
4,48,107,48
4,48,0,192
4,46,107,48
4,46,0,768
4,46,106,192
4,46,0,192
4,55,96,48
4,55,0,192
4,53,99,48
4,53,0,192
4,51,93,48
4,51,0,192
4,53,114,48
4,53,0,576
4,51,107,144
4,51,0,384
4,48,101,96
4,48,0,192
4,46,104,48
4,46,0,192
4,43,108,48
4,43,0,192
4,39,119,48
4,39,0,576
4,46,104,144
4,46,0,384
4,46,105,96
4,46,0,192
4,48,100,48
4,48,0,192
4,51,122,48
4,51,0,384
4,46,117,96
4,51,116,0
4,55,102,0
4,55,0,384
4,51,0,0
4,46,0,0
4,55,108,576
4,55,0,192
4,53,95,48
4,53,0,192
4,51,121,48
4,51,0,192
4,46,103,48
4,50,104,0
4,53,108,0
4,53,0,768
4,50,0,0
4,46,0,0
4,54,110,432
4,54,0,192
4,55,110,48
4,55,0,192
4,54,101,48
4,54,0,192
4,53,104,48
4,53,0,192
4,51,122,48
4,51,0,384
4,49,96,96
4,49,0,192
4,46,112,48
4,46,0,96
4,44,103,144
4,44,0,384
4,42,118,96
4,42,0,384
4,39,106,96
4,39,0,460
4,46,100,500
4,46,0,192
4,48,108,48
4,48,0,192
4,51,108,48
4,51,0,192
4,55,120,48
4,55,0,1180
4,51,104,1700
4,51,0,192
4,53,111,48
4,53,0,192
4,55,107,48
4,55,0,192
4,53,108,48
4,53,0,192
4,51,120,48
4,51,0,192
4,53,114,48
4,53,0,192
4,51,108,48
4,51,0,192
4,51,109,48
4,51,0,460
4,44,108,260
4,44,0,192
4,48,107,48
4,48,0,192
4,46,108,48
4,46,0,960
4,46,106,240
4,46,0,192
4,48,102,48
4,48,0,192
4,51,99,48
4,51,0,192
4,55,96,48
4,55,0,1180
4,46,98,1700
4,46,0,192
4,55,96,48
4,55,0,192
4,55,110,48
4,55,0,192
4,56,103,48
4,56,0,192
4,55,103,48
4,55,0,192
4,55,95,48
4,55,0,384
4,53,122,96
4,53,0,460
4,46,121,1700
4,46,0,192
4,46,108,48
4,46,0,192
4,48,108,48
4,48,0,192
4,51,109,48
4,51,0,192
4,55,109,48
4,55,0,1180
4,51,105,1700
4,51,0,192
