track,note,velocity,time
16,49,90,4608
16,51,115,0
16,35,80,0
16,51,115,304
16,42,100,0
16,51,115,188
16,38,30,0
16,51,115,36
16,38,40,0
16,51,115,304
16,42,100,0
16,51,115,188
16,51,127,36
16,51,127,304
16,42,110,0
16,51,110,188
16,51,127,36
16,51,127,304
16,42,110,0
16,51,110,188
16,38,90,0
16,51,127,36
16,51,127,304
16,42,110,0
16,51,127,304
16,51,127,304
16,42,110,0
16,51,127,304
16,51,127,304
16,42,110,0
16,51,110,188
16,38,90,0
16,51,127,36
16,51,127,304
16,42,110,0
16,51,110,188
16,51,127,36
16,49,80,188
16,38,80,0
16,51,127,36
16,42,110,0
16,51,127,304
16,49,80,188
16,38,80,0
16,51,127,36
16,42,110,0
16,51,127,304
16,51,127,304
16,42,110,0
16,51,127,304
16,51,127,304
16,42,110,0
16,49,80,188
16,38,80,0
16,51,127,36
16,51,127,304
16,42,110,0
16,51,110,188
16,51,127,36
16,51,127,304
16,42,110,0
16,51,110,188
16,51,127,36
16,51,127,304
16,42,110,0
16,49,80,188
16,38,80,0
16,51,127,36
16,51,127,304
16,42,110,0
16,51,127,304
16,51,110,188
16,51,127,36
16,42,110,0
16,51,127,304
16,51,110,188
16,51,127,36
16,42,110,0
16,51,110,188
16,51,127,36
16,51,127,304
16,42,110,0
16,51,127,304
16,51,127,304
16,42,110,0
16,51,127,188
16,51,127,36
16,51,127,304
16,42,110,0
16,51,127,304
16,51,127,304
16,42,110,0
16,51,127,188
16,51,127,36
16,49,80,188
16,38,80,0
16,51,127,36
16,42,110,0
16,51,127,304
16,49,80,188
16,38,80,0
16,51,127,36
16,42,110,0
16,51,127,304
16,51,127,304
16,42,110,0
16,51,127,304
16,51,127,304
16,42,110,0
16,51,127,304
16,51,127,304
16,42,110,0
16,51,110,188
16,51,127,36
16,51,127,304
16,42,110,0
16,51,110,188
16,51,127,36
16,51,127,304
16,42,110,0
16,51,110,188
16,38,90,0
16,51,127,36
16,51,127,304
16,42,110,0
16,51,110,188
16,49,90,36
16,35,80,0
16,38,90,176
16,46,90,48
16,48,50,176
16,48,90,48
16,45,80,176
16,46,70,48
16,41,60,48
16,41,90,48
16,49,90,48
16,51,115,0
16,35,80,0
16,51,115,304
16,42,100,0
16,51,115,188
16,51,115,36
16,38,40,0
16,51,115,304
16,42,100,0
16,51,115,188
16,51,127,36
16,51,127,304
16,42,110,0
16,51,110,188
16,38,90,0
16,51,127,36
16,51,127,304
16,42,110,0
16,51,110,188
16,51,127,36
16,51,127,304
16,42,110,0
16,51,110,188
16,51,127,36
16,51,127,304
16,42,110,0
16,51,110,188
16,38,90,0
16,51,127,36
16,51,127,304
16,42,110,0
16,51,127,304
16,49,80,188
16,38,80,0
16,51,127,36
16,42,110,0
16,49,80,188
16,38,80,0
16,51,127,36
16,51,127,304
16,42,110,0
16,51,127,304
16,51,127,304
16,42,110,0
16,51,127,188
16,51,127,36
16,51,127,304
16,42,110,0
16,51,127,304
16,51,127,304
16,42,110,0
16,51,127,188
16,51,127,36
16,51,127,304
16,42,110,0
16,49,80,188
16,38,80,0
16,51,127,36
16,51,127,304
16,42,110,0
16,51,127,304
16,51,127,304
16,42,110,0
16,51,127,304
16,49,80,188
16,38,80,0
16,51,127,36
16,42,110,0
16,51,127,304
16,51,127,304
16,42,110,0
16,51,110,188
16,38,90,0
16,51,127,36
16,51,127,304
16,42,110,0
16,51,110,188
16,51,127,36
16,51,127,304
16,42,110,0
16,51,127,304
16,49,80,188
16,38,80,0
16,51,127,36
16,42,110,0
16,49,80,188
16,38,80,0
16,51,127,36
16,51,127,304
16,42,110,0
16,51,110,188
16,51,127,36
16,51,127,304
16,42,110,0
16,51,110,188
16,51,90,36
16,38,100,0
16,35,90,188
16,51,115,36
16,42,100,0
16,51,60,188
16,51,115,36
16,38,100,0
16,35,90,188
16,51,90,36
16,42,100,0
16,38,100,188
16,49,90,36
16,51,115,0
16,35,80,0
16,51,115,304
16,42,100,0
16,51,115,188
16,51,115,36
16,38,40,0
16,51,80,188
16,51,115,36
16,42,100,0
16,51,115,188
16,51,127,36
16,51,127,304
16,42,110,0
16,51,110,188
16,51,127,36
16,51,127,304
16,42,110,0
16,51,110,188
16,38,90,0
16,51,127,36
16,51,127,304
16,42,110,0
16,51,110,188
16,38,90,0
16,51,127,36
16,51,127,304
16,42,110,0
16,51,110,188
16,51,127,36
16,51,127,304
16,42,110,0
16,49,80,188
16,38,80,0
16,51,127,36
16,51,127,304
16,42,110,0
16,51,127,304
16,51,127,304
16,42,110,0
16,51,110,188
16,38,90,0
16,51,127,36
16,51,127,304
16,42,110,0
16,51,110,188
16,51,127,36
16,51,127,304
16,42,110,0
16,49,80,188
16,38,80,0
16,51,127,36
16,51,127,304
16,42,110,0
16,49,80,188
16,38,80,0
16,51,127,36
16,51,127,304
16,42,110,0
16,51,127,304
16,51,127,304
16,42,110,0
16,51,127,188
16,51,127,36
16,51,110,188
16,51,127,36
16,42,110,0
16,51,127,304
16,51,110,188
16,51,127,36
16,42,110,0
16,51,110,188
16,51,127,36
16,51,127,304
16,42,110,0
16,51,110,188
16,38,90,0
16,51,127,36
16,51,127,304
16,42,110,0
16,51,110,188
16,51,127,36
16,51,127,304
16,42,110,0
16,51,127,304
16,51,127,304
16,42,110,0
16,49,80,188
16,38,80,0
16,51,127,36
16,51,127,304
16,42,110,0
16,51,110,188
16,51,127,36
16,51,127,304
16,42,110,0
16,51,110,188
16,38,90,0
16,51,127,36
16,51,127,304
16,42,110,0
16,51,127,304
16,51,127,304
16,42,110,0
16,51,127,188
16,51,127,36
16,51,127,304
16,42,110,0
16,51,127,304
16,51,127,304
16,42,110,0
16,51,127,304
16,51,127,304
16,42,110,0
16,51,127,304
16,51,127,304
16,42,110,0
16,51,127,304
16,51,127,304
16,42,110,0
16,51,127,304
16,49,80,188
16,38,80,0
16,51,127,36
16,42,110,0
16,49,80,188
16,38,80,0
16,51,90,36
16,38,100,0
16,35,90,188
16,51,115,36
16,42,100,0
16,51,60,188
16,51,115,36
16,38,100,0
16,35,90,188
16,51,90,36
16,42,100,0
16,38,100,188
16,49,90,36
16,51,115,0
16,51,115,304
16,42,100,0
16,51,115,188
16,51,115,36
16,38,40,0
16,51,80,188
16,51,115,36
16,42,100,0
16,51,115,188
16,51,127,36
16,51,127,304
16,42,110,0
16,51,110,188
16,51,127,36
16,51,127,304
16,42,110,0
16,51,110,188
16,51,127,36
16,51,127,304
16,42,110,0
16,51,127,304
16,51,127,304
16,42,110,0
16,51,127,304
16,49,80,188
16,38,80,0
16,51,127,36
16,42,110,0
16,38,100,188
16,49,80,36
16,51,127,0
16,38,80,0
16,51,127,304
16,42,110,0
16,49,80,188
16,38,80,0
16,51,127,36
16,51,127,304
16,42,110,0
16,51,127,304
16,49,80,188
16,38,80,0
16,51,127,36
16,42,110,0
16,51,127,304
16,51,127,304
16,42,110,0
16,51,127,304
16,51,127,304
16,42,110,0
16,51,127,304
16,51,127,304
16,42,110,0
16,51,127,304
16,51,127,304
16,42,110,0
16,51,127,304
16,51,127,304
16,42,110,0
16,51,110,188
16,38,90,0
16,51,127,36
16,49,120,176
16,51,127,128
16,42,110,0
16,51,110,188
16,51,127,36
16,51,127,304
16,42,110,0
16,51,110,188
16,51,127,36
16,51,127,304
16,42,110,0
16,51,110,188
16,38,90,0
16,51,127,36
16,51,127,304
16,42,110,0
16,51,127,304
16,49,80,188
16,38,80,0
16,51,127,36
16,42,110,0
16,51,127,304
16,51,127,304
16,42,110,0
16,51,110,188
16,38,90,0
16,51,127,36
16,51,127,304
16,42,110,0
16,51,110,188
16,51,127,36
16,51,110,188
16,51,127,36
16,42,110,0
16,51,127,304
16,51,110,188
16,51,127,36
16,42,110,0
16,51,110,188
16,51,127,36
16,51,127,304
16,42,110,0
16,51,110,188
16,51,127,36
16,51,127,304
16,42,110,0
16,51,110,188
16,51,127,36
16,51,127,304
16,42,110,0
16,51,127,304
16,49,80,188
16,38,80,0
16,51,127,36
16,42,110,0
16,51,127,304
16,51,127,304
16,42,110,0
16,51,110,188
16,51,127,36
16,51,127,304
16,42,110,0
16,51,110,188
16,49,90,36
16,51,90,0
16,35,90,0
16,38,70,182
16,51,115,42
16,42,100,0
16,51,55,182
16,38,60,0
16,51,100,42
16,38,80,0
16,51,80,182
16,35,80,0
16,45,90,42
16,42,100,0
16,45,80,182
16,49,90,42
16,51,115,0
16,35,80,0
16,51,115,304
16,42,100,0
16,51,115,188
16,51,115,36
16,38,40,0
16,51,115,304
16,42,100,0
16,51,115,188
16,51,127,36
16,51,127,304
16,42,110,0
16,51,110,188
16,51,127,36
16,51,127,304
16,42,110,0
16,51,110,188
16,38,90,0
16,51,127,36
16,51,127,304
16,42,110,0
16,49,80,188
16,38,80,0
16,51,127,36
16,51,127,304
16,42,110,0
16,51,127,304
16,49,80,188
16,38,80,0
16,51,127,36
16,42,110,0
16,49,80,188
16,38,80,0
16,51,127,36
16,51,127,304
16,42,110,0
16,51,127,304
16,51,127,304
16,42,110,0
16,51,110,188
16,51,127,36
16,51,127,304
16,42,110,0
16,51,110,188
16,38,90,0
16,51,127,36
16,51,127,304
16,42,110,0
16,51,127,304
16,51,127,304
16,42,110,0
16,51,127,188
16,51,127,36
16,51,127,304
16,42,110,0
16,49,80,188
16,38,80,0
16,51,127,36
16,51,127,304
16,42,110,0
16,49,90,304
16,51,90,0
16,35,90,0
16,38,70,182
16,51,115,42
16,42,100,0
16,51,101,182
16,38,101,0
16,51,103,42
16,38,103,0
16,35,106,182
16,45,109,42
16,42,109,0
16,45,113,182
16,49,114,42
16,51,114,0
16,35,114,0
16,51,115,304
16,42,100,0
16,51,115,188
16,51,115,36
16,38,40,0
16,51,115,304
16,42,100,0
16,51,115,188
16,51,127,36
16,51,127,304
16,42,110,0
16,51,110,188
16,51,127,36
16,51,127,304
16,42,110,0
16,51,110,188
16,38,90,0
16,51,127,36
16,51,127,304
16,42,110,0
16,51,110,188
16,51,127,36
16,51,127,304
16,42,110,0
16,51,110,188
16,38,90,0
16,51,127,36
16,51,127,304
16,42,110,0
16,49,80,188
16,38,80,0
16,51,127,36
16,51,127,304
16,42,110,0
16,49,80,188
16,38,80,0
16,51,127,36
16,51,127,304
16,42,110,0
16,51,110,188
16,51,127,36
16,51,127,304
16,42,110,0
16,51,110,188
16,51,127,36
16,51,127,304
16,42,110,0
16,49,80,188
16,38,80,0
16,51,127,36
16,51,127,304
16,42,110,0
16,51,120,304
16,35,60,0
16,46,70,188
16,51,100,36
16,37,70,0
16,42,100,0
16,51,55,188
16,38,40,0
16,51,115,36
16,35,80,0
16,38,80,188
16,49,90,36
16,37,70,0
16,42,100,0
16,35,80,0
16,51,60,188
16,38,100,0
16,49,90,36
16,51,90,0
16,35,90,0
16,38,70,182
16,51,115,42
16,42,100,0
16,51,55,182
16,38,60,0
16,51,100,42
16,38,80,0
16,35,80,182
16,45,90,42
16,42,100,0
16,45,80,182
16,49,90,42
16,51,115,0
16,35,80,0
16,51,115,304
16,42,100,0
16,51,115,188
16,51,115,36
16,38,40,0
16,51,80,188
16,51,115,36
16,42,100,0
16,51,115,188
16,51,127,36
16,51,127,304
16,42,110,0
16,51,110,188
16,38,90,0
16,51,127,36
16,51,127,304
16,42,110,0
16,51,110,188
16,51,127,36
16,51,127,304
16,42,110,0
16,51,127,304
16,49,80,188
16,38,80,0
16,51,127,36
16,42,110,0
16,49,80,188
16,38,80,0
16,51,127,36
16,51,127,304
16,42,110,0
16,51,127,304
16,49,80,188
16,38,80,0
16,51,127,36
16,42,110,0
16,49,80,188
16,38,80,0
16,51,127,36
16,51,127,304
16,42,110,0
16,51,110,188
16,51,127,36
16,51,127,304
16,42,110,0
16,51,110,188
16,51,127,36
16,51,127,304
16,42,110,0
16,51,110,188
16,38,90,0
16,51,127,36
16,51,127,304
16,42,110,0
16,51,110,188
16,51,127,36
16,51,127,304
16,42,110,0
16,51,110,188
16,51,127,36
16,51,127,304
16,42,110,0
16,51,110,188
16,38,90,0
16,51,127,36
16,51,127,304
16,42,110,0
16,51,110,188
16,38,90,0
16,51,127,36
16,51,127,304
16,42,110,0
16,51,110,188
16,51,127,36
16,51,127,304
16,42,110,0
16,49,80,188
16,38,80,0
16,51,127,36
16,51,127,304
16,42,110,0
16,51,127,304
16,51,127,304
16,42,110,0
16,51,110,188
16,38,90,0
16,51,127,36
16,51,127,304
16,42,110,0
16,51,110,188
16,51,127,36
16,51,127,304
16,42,110,0
16,51,110,188
16,51,127,36
16,51,127,304
16,42,110,0
16,51,110,188
16,51,127,36
16,51,127,304
16,42,110,0
16,51,110,188
16,51,127,36
16,51,127,304
16,42,110,0
16,51,110,188
16,51,127,36
16,51,127,304
16,42,110,0
16,51,127,304
16,51,127,304
16,42,110,0
16,51,127,304
16,49,80,188
16,38,80,0
16,51,127,36
16,42,110,0
16,51,127,304
16,51,127,304
16,42,110,0
16,51,127,304
16,51,127,304
16,42,110,0
16,51,110,188
16,38,90,0
16,51,127,36
16,51,127,304
16,42,110,0
16,51,110,188
16,51,100,36
16,35,80,0
16,51,60,182
16,38,90,0
16,46,90,42
16,51,100,182
16,35,40,0
16,51,90,42
16,35,60,0
16,38,80,182
16,46,80,42
16,51,60,182
16,49,90,42
16,51,115,0
16,35,80,0
16,38,70,188
16,51,115,36
16,42,100,0
16,51,115,188
16,51,115,36
16,38,40,0
16,51,115,304
16,42,100,0
16,51,115,188
16,51,127,36
16,51,127,304
16,42,110,0
16,51,110,188
16,51,127,36
16,51,127,304
16,42,110,0
16,51,110,188
16,38,90,0
16,51,127,36
16,51,127,304
16,42,110,0
16,51,127,304
16,51,127,304
16,42,110,0
16,51,127,304
16,51,127,304
16,42,110,0
16,51,127,304
16,51,127,304
16,42,110,0
16,51,127,188
16,51,127,36
16,51,127,304
16,42,110,0
16,49,80,188
16,38,80,0
16,51,127,36
16,51,127,304
16,42,110,0
16,49,80,188
16,38,80,0
16,51,127,36
16,51,127,304
16,42,110,0
16,51,127,304
16,51,127,304
16,42,110,0
16,51,127,304
16,51,127,304
16,42,110,0
16,51,127,304
16,51,127,304
16,42,110,0
16,49,80,188
16,38,80,0
16,51,127,36
16,51,127,304
16,42,110,0
16,51,127,304
16,51,127,304
16,42,110,0
16,51,127,188
16,51,127,36
16,49,80,188
16,38,80,0
16,51,127,36
16,42,110,0
16,51,127,304
16,51,127,304
16,42,110,0
16,51,127,304
16,49,80,188
16,38,80,0
16,51,127,36
16,42,110,0
16,51,127,304
16,51,127,304
16,42,110,0
16,51,127,304
16,51,127,304
16,42,110,0
16,51,110,188
16,38,90,0
16,51,127,36
16,51,127,304
16,42,110,0
16,51,110,188
16,51,127,36
16,51,110,188
16,51,127,36
16,42,110,0
16,51,127,304
16,51,110,188
16,51,127,36
16,42,110,0
16,51,110,188
16,51,127,36
16,49,80,188
16,38,80,0
16,51,127,36
16,42,110,0
16,51,127,304
16,51,127,304
16,42,110,0
16,51,127,304
16,51,127,304
16,42,110,0
16,51,127,304
16,49,80,188
16,38,80,0
16,51,127,36
16,42,110,0
16,49,80,188
16,38,80,0
16,51,127,36
16,51,127,304
16,42,110,0
16,51,110,188
16,38,90,0
16,51,127,36
16,51,127,304
16,42,110,0
16,51,110,188
16,51,100,36
16,35,80,0
16,51,60,182
16,38,90,0
16,46,90,42
16,51,100,182
16,35,40,0
16,51,90,42
16,35,60,0
16,38,80,182
16,46,80,42
16,51,60,182
16,49,90,42
16,51,115,0
16,35,80,0
16,51,115,304
16,42,100,0
16,51,115,188
16,38,30,0
16,51,115,36
16,38,40,0
16,51,115,304
16,42,100,0
16,51,115,188
16,51,127,36
16,49,80,188
16,38,80,0
16,51,127,36
16,42,110,0
16,51,127,304
16,49,80,188
16,38,80,0
16,51,127,36
16,42,110,0
16,51,127,304
16,51,127,304
16,42,110,0
16,51,110,188
16,38,90,0
16,51,127,36
16,51,127,304
16,42,110,0
