track,note,velocity,time
1,43,104,2016
1,43,92,58
1,43,104,434
1,43,104,42
1,48,92,1464
1,52,92,10
1,55,90,23
1,57,85,26
1,58,76,37
1,57,97,192
1,55,79,4
1,52,96,192
1,43,85,84
1,47,92,12
1,50,83,16
1,52,77,20
1,55,72,5
1,52,89,192
1,50,78,170
1,47,89,191
1,50,94,74
1,54,84,192
1,57,78,8
1,54,100,192
1,48,85,29
1,52,89,23
1,55,82,2
1,52,92,192
1,43,83,72
1,47,86,16
1,50,78,10
1,52,84,28
1,55,88,10
1,52,100,192
1,50,80,0
1,47,84,31
1,43,101,31
1,43,104,432
1,43,97,31
1,43,104,378
1,43,101,66
1,43,104,432
1,43,97,31
1,43,104,378
1,43,99,66
1,43,97,380
1,43,94,64
1,43,92,440
1,43,99,47
1,48,104,1440
1,52,81,20
1,55,80,12
1,57,92,21
1,58,99,192
1,57,90,191
1,55,80,4
1,52,86,0
1,43,82,66
1,47,79,24
1,50,82,16
1,52,100,44
1,55,94,192
1,52,81,191
1,50,78,16
1,47,79,0
1,50,90,71
1,54,56,12
1,57,73,192
1,54,89,12
1,48,79,40
1,52,81,16
1,55,79,4
1,52,89,16
1,43,75,69
1,47,89,29
1,50,83,16
1,52,92,31
1,55,82,7
1,52,81,192
1,50,90,189
1,47,84,180
1,43,107,47
1,47,96,192
1,50,92,20
1,52,92,32
1,55,83,5
1,52,96,192
1,50,86,8
1,47,89,13
1,43,85,24
1,47,92,192
1,50,82,183
1,52,81,16
1,55,86,0
1,50,82,7
1,47,86,192
1,43,88,0
1,48,101,79
1,52,84,10
1,55,83,192
1,57,85,15
1,58,80,45
1,57,99,192
1,55,73,4
1,52,92,192
1,43,90,66
1,47,92,0
1,50,83,10
1,52,96,12
1,55,83,13
1,52,92,192
1,50,83,16
1,47,92,192
1,50,78,71
1,54,92,192
1,57,76,8
1,54,96,192
1,48,75,15
1,52,84,192
1,55,76,8
1,52,96,192
1,43,82,66
1,47,96,192
1,50,82,16
1,52,92,13
1,55,88,16
1,52,96,192
1,50,74,24
1,47,86,2
1,43,101,26
1,43,104,432
1,43,97,31
1,43,104,378
1,43,101,66
1,43,104,432
1,43,97,31
1,43,104,378
1,43,99,66
1,43,97,380
1,43,94,64
1,43,92,440
1,43,99,47
1,48,104,1440
1,52,81,20
1,55,80,12
1,57,92,21
1,58,99,192
1,57,90,191
1,55,80,4
1,52,86,0
1,43,82,66
1,47,79,24
1,50,82,16
1,52,100,44
1,55,94,192
1,52,81,191
1,50,78,16
1,47,79,0
1,50,90,71
1,54,56,12
1,57,73,192
1,54,89,12
1,48,79,40
1,52,81,16
1,55,79,4
1,52,89,16
1,43,75,69
1,47,89,29
1,50,83,16
1,52,92,31
1,55,82,7
1,52,81,192
1,50,90,189
1,47,84,180
1,43,107,47
1,47,96,192
1,50,92,20
1,52,92,32
1,55,83,5
1,52,96,192
1,50,86,8
1,47,89,13
1,43,85,24
1,47,92,192
1,50,82,183
1,52,81,16
1,55,86,0
1,50,82,7
1,47,86,192
1,43,88,0
1,48,101,79
1,52,84,10
1,55,83,192
1,57,85,15
1,58,80,45
1,57,99,192
1,55,73,4
1,52,92,192
1,43,90,66
1,47,92,0
1,50,83,10
1,52,96,12
1,55,83,13
1,52,92,192
1,50,83,16
1,47,92,192
1,50,78,71
1,54,92,192
1,57,76,8
1,54,96,192
1,48,75,15
1,52,84,192
1,55,76,8
1,52,96,192
1,43,82,66
1,47,96,192
1,50,82,16
1,52,92,13
1,55,88,16
1,52,96,192
1,50,74,24
1,47,86,2
1,43,99,26
1,43,97,380
1,43,94,64
1,43,92,440
1,43,99,47
1,48,104,1440
1,52,81,20
1,55,80,12
1,57,92,21
1,58,99,192
1,57,90,191
1,55,80,4
1,52,86,0
1,43,82,66
1,47,79,24
1,50,82,16
1,52,100,44
1,55,94,192
1,52,81,191
1,50,78,16
1,47,79,0
1,50,90,71
1,54,56,12
1,57,73,192
1,54,89,12
1,48,79,40
1,52,81,16
1,55,79,4
1,52,89,16
1,43,75,69
1,47,89,29
1,50,83,16
1,52,92,31
1,55,82,7
1,52,81,192
1,50,90,189
1,47,84,180
1,43,75,47
1,47,89,29
1,50,83,16
1,52,92,31
1,55,82,7
1,52,81,192
1,50,90,189
1,47,84,180
1,43,75,47
1,47,89,29
1,50,83,16
1,52,92,31
1,55,82,7
1,52,81,192
1,50,90,189
1,47,84,180
1,48,104,47
1,52,81,20
1,55,80,12
1,57,92,21
1,58,99,192
1,57,90,191
1,55,80,4
1,52,86,0
1,43,82,66
1,47,79,24
1,50,82,16
1,52,100,44
1,55,94,192
1,52,81,191
1,50,78,16
1,47,79,0
1,50,90,71
1,54,56,12
1,57,73,192
1,54,89,12
1,48,79,40
1,52,81,16
1,55,79,4
1,52,89,16
1,43,75,69
1,47,89,29
1,50,83,16
1,52,92,31
1,46,101,7
1,45,101,64
1,43,107,5
1,41,107,13
1,43,120,45
2,55,97,1229
2,50,79,0
2,43,88,0
2,53,88,0
2,62,85,0
2,59,92,0
2,62,85,447
2,55,104,0
2,50,86,0
2,43,99,0
2,59,92,0
2,53,94,0
2,55,107,87
2,62,92,0
2,59,100,0
2,43,94,0
2,50,83,0
2,53,92,0
2,43,92,424
2,55,104,0
2,50,79,0
2,62,90,0
2,59,96,0
2,53,92,0
2,59,92,93
2,43,92,0
2,50,80,0
2,55,99,0
2,53,82,0
2,62,83,0
2,58,86,1583
2,67,94,0
2,64,104,0
2,48,83,61
2,55,79,0
2,58,73,128
2,67,85,0
2,64,86,0
2,67,79,52
2,64,84,0
2,58,71,0
2,55,69,5
2,48,83,0
2,67,92,156
2,64,92,0
2,58,78,0
2,55,76,157
2,48,85,0
2,58,66,28
2,64,75,0
2,67,78,0
2,55,71,128
2,48,78,0
2,67,82,31
2,64,79,0
2,58,72,0
2,58,75,47
2,64,81,0
2,67,83,0
2,50,74,148
2,59,84,0
2,43,85,0
2,62,78,0
2,53,76,0
2,43,86,216
2,59,79,0
2,50,75,0
2,53,69,0
2,62,70,0
2,62,75,45
2,53,70,0
2,59,81,0
2,43,68,10
2,50,65,0
2,53,86,157
2,62,86,0
2,59,96,0
2,50,82,154
2,43,92,0
2,62,79,18
2,53,76,0
2,59,84,0
2,43,82,0
2,50,71,0
2,53,80,28
2,62,86,0
2,59,92,0
2,60,72,239
2,50,86,0
2,66,86,0
2,69,80,0
2,57,78,0
2,57,74,216
2,50,83,0
2,66,86,0
2,69,80,0
2,60,75,0
2,60,74,48
2,69,83,0
2,66,79,0
2,48,71,18
2,55,65,0
2,67,90,162
2,64,100,0
2,58,80,0
2,48,92,157
2,55,76,0
2,64,79,20
2,67,79,0
2,58,67,0
2,48,86,128
2,55,75,0
2,67,86,26
2,64,86,0
2,58,71,0
2,43,88,228
2,53,82,0
2,59,86,0
2,62,83,0
2,50,72,0
2,62,72,205
2,53,73,0
2,43,85,0
2,59,79,0
2,50,68,0
2,55,85,0
2,59,84,60
2,53,72,0
2,55,86,0
2,62,78,0
2,50,70,56
2,43,82,0
2,53,85,157
2,55,99,0
2,59,89,0
2,62,85,0
2,43,88,156
2,50,72,0
2,62,73,23
2,53,75,0
2,55,85,0
2,59,81,0
2,50,69,21
2,43,73,0
2,55,86,28
2,59,84,0
2,62,76,0
2,53,75,0
2,53,86,103
2,43,90,0
2,59,89,0
2,55,94,0
2,62,82,0
2,50,78,0
2,55,97,429
2,50,80,0
2,43,90,0
2,62,83,0
2,59,86,0
2,53,90,0
2,59,86,103
2,55,92,0
2,62,83,0
2,43,94,0
2,50,80,0
2,53,79,0
2,59,100,447
2,43,88,0
2,53,88,0
2,62,90,0
2,55,104,0
2,50,78,0
2,43,92,72
2,50,86,0
2,53,83,0
2,55,99,0
2,62,85,0
2,59,92,0
2,43,86,421
2,50,76,0
2,55,99,0
2,53,88,0
2,59,92,0
2,62,85,0
2,50,83,82
2,43,92,0
2,55,97,0
2,59,89,0
2,53,80,0
2,62,82,0
2,62,80,450
2,43,88,0
2,50,74,0
2,59,81,0
2,53,82,0
2,55,94,0
2,43,94,69
2,53,80,0
2,50,83,0
2,59,86,0
2,62,82,0
2,55,94,0
2,50,76,415
2,55,104,0
2,43,88,0
2,62,83,0
2,59,89,0
2,53,90,0
2,55,94,87
2,62,79,0
2,59,86,0
2,53,79,0
2,50,78,0
2,43,90,0
2,53,88,447
2,43,90,0
2,50,78,0
2,59,86,0
2,62,82,0
2,55,97,0
2,50,82,85
2,62,83,0
2,59,96,0
2,43,94,0
2,53,83,0
2,55,104,0
2,48,97,1584
2,60,97,0
2,58,86,0
2,64,96,0
2,67,88,0
2,55,83,0
2,60,83,215
2,67,79,0
2,64,81,0
2,58,73,0
2,55,66,128
2,48,82,0
2,60,83,24
2,67,78,0
2,64,84,0
2,58,65,0
2,55,73,5
2,48,88,0
2,58,76,152
2,67,83,0
2,60,97,0
2,64,96,0
2,55,75,152
2,48,88,0
2,60,79,26
2,64,77,0
2,67,74,0
2,58,67,0
2,48,94,0
2,55,79,0
2,58,72,24
2,67,86,0
2,64,86,0
2,60,88,0
2,59,86,218
2,55,86,0
2,50,75,0
2,62,78,0
2,53,75,0
2,43,90,0
2,62,80,208
2,53,79,0
2,59,86,0
2,55,90,0
2,50,75,128
2,43,90,0
2,59,79,24
2,62,75,0
2,53,69,0
2,55,85,0
2,43,88,10
2,50,78,0
2,53,78,154
2,55,94,0
2,59,92,0
2,62,82,0
2,50,78,157
2,43,88,0
2,55,83,29
2,53,71,0
2,59,77,0
2,62,73,0
2,50,75,8
2,43,82,0
2,62,88,31
2,53,76,0
2,59,96,0
2,55,99,0
2,50,88,237
2,60,76,0
2,66,81,0
2,57,75,0
2,62,86,0
2,69,79,0
2,50,85,215
2,69,78,0
2,66,81,0
2,57,71,0
2,62,85,0
2,60,73,0
2,60,70,4
2,69,76,0
2,62,85,0
2,66,89,0
2,58,72,247
2,55,74,0
2,48,85,0
2,67,80,0
2,55,60,146
2,48,66,0
2,58,78,29
2,64,89,0
2,67,86,0
2,55,82,128
2,48,88,0
2,64,86,24
2,67,88,0
2,58,79,0
2,43,49,34
2,50,66,0
2,62,85,164
2,53,82,0
2,59,92,0
2,43,88,141
2,50,74,0
2,59,79,16
2,62,73,0
2,53,64,0
2,43,74,128
2,50,65,0
2,62,80,21
2,59,86,0
2,53,80,0
2,50,80,26
2,43,88,0
2,47,62,0
2,59,86,154
2,62,86,0
2,53,80,0
2,43,83,144
2,50,83,0
2,53,76,32
2,59,84,0
2,62,79,0
2,43,75,16
2,50,73,0
2,47,57,0
2,53,83,31
2,59,89,0
2,62,85,0
2,50,83,31
2,43,82,0
2,47,77,0
2,59,84,157
2,53,82,0
2,55,88,0
2,62,73,0
2,43,79,152
2,50,72,0
2,53,75,29
2,62,76,0
2,55,88,0
2,59,86,0
2,62,80,88
2,53,78,0
2,55,90,0
2,59,84,0
2,50,79,8
2,43,88,0
2,62,82,159
2,59,89,0
2,53,79,0
2,55,94,0
2,50,71,156
2,43,86,0
2,55,80,21
2,62,69,0
2,53,72,0
2,59,71,0
2,50,69,0
2,43,72,0
2,62,80,28
2,55,88,0
2,53,78,0
2,59,84,0
2,59,92,44
2,55,92,0
2,62,86,0
2,53,78,0
2,55,97,138
2,62,86,0
2,53,86,0
2,59,96,0
2,43,92,141
2,50,78,0
2,53,76,16
2,59,75,0
2,55,83,0
2,62,72,0
2,43,88,0
2,50,78,0
2,53,78,24
2,59,92,0
2,62,83,0
2,55,94,0
2,62,80,207
2,55,97,0
2,59,92,0
2,53,83,0
2,43,88,141
2,50,73,0
2,55,86,24
2,53,71,0
2,62,70,0
2,59,77,0
2,50,73,96
2,43,79,0
2,55,88,34
2,62,83,0
2,53,72,0
2,59,81,0
2,60,82,218
2,48,90,0
2,64,81,0
2,58,73,0
2,55,74,0
2,67,76,0
2,67,83,208
2,64,84,0
2,58,75,0
2,60,88,0
2,55,66,0
2,48,80,0
2,64,75,26
2,67,74,0
2,58,66,0
2,60,79,0
2,64,79,61
2,60,80,0
2,67,76,0
2,58,67,0
2,60,92,140
2,64,92,0
2,58,79,0
2,67,86,0
2,48,90,146
2,55,75,0
2,67,80,28
2,60,85,0
2,64,77,0
2,58,75,0
2,48,79,12
2,55,68,0
2,67,86,24
2,58,74,0
2,64,89,0
2,60,90,0
2,59,84,226
2,55,90,0
2,50,72,0
2,53,79,0
2,43,85,0
2,62,79,0
2,43,76,148
2,50,71,0
2,55,88,28
2,59,84,0
2,53,75,0
2,62,78,0
2,50,82,128
2,43,83,0
2,53,72,20
2,62,78,0
2,59,84,0
2,55,86,0
2,55,90,42
2,59,89,0
2,53,75,0
2,62,83,0
2,62,85,154
2,59,92,0
2,55,97,0
2,53,86,0
2,50,70,152
2,43,86,0
2,59,75,26
2,53,71,0
2,55,83,0
2,62,79,0
2,43,85,0
2,50,75,0
2,59,86,29
2,55,88,0
2,62,83,0
2,53,73,0
2,50,86,263
2,69,80,0
2,57,74,0
2,66,81,0
2,60,74,0
2,66,75,210
2,50,83,0
2,57,68,0
2,69,80,0
2,60,74,0
2,66,86,48
2,69,85,0
2,60,74,0
2,58,79,215
2,48,85,0
2,67,90,0
2,55,73,0
2,64,89,0
2,64,81,205
2,67,83,0
2,58,74,0
2,48,76,128
2,55,66,0
2,64,89,26
2,67,92,0
2,58,82,0
2,53,83,245
2,43,86,0
2,50,75,0
2,62,85,0
2,59,92,0
2,43,92,144
2,50,79,0
2,59,84,18
2,53,76,0
2,62,79,0
2,50,73,128
2,43,85,0
2,62,86,26
2,53,82,0
2,59,86,0
2,53,82,66
2,59,89,0
2,62,83,0
2,62,88,152
2,53,83,0
2,59,92,0
2,43,88,154
2,50,73,0
2,59,81,16
2,53,74,0
2,62,79,0
2,43,80,12
2,50,69,0
2,53,79,18
2,59,89,0
2,62,86,0
2,53,86,135
2,50,78,0
2,62,82,0
2,55,94,0
2,59,89,0
2,43,90,0
2,55,97,429
2,59,86,0
2,53,90,0
2,43,90,0
2,50,80,0
2,62,83,0
2,50,80,103
2,62,83,0
2,55,92,0
2,43,94,0
2,53,79,0
2,59,86,0
2,59,100,447
2,50,78,0
2,62,90,0
2,53,88,0
2,43,88,0
2,55,104,0
2,43,92,72
2,53,83,0
2,59,92,0
2,50,86,0
2,55,99,0
2,62,85,0
2,55,99,421
2,50,76,0
2,43,86,0
2,62,85,0
2,53,88,0
2,59,92,0
2,50,83,82
2,53,80,0
2,62,82,0
2,43,92,0
2,59,89,0
2,55,97,0
2,62,80,450
2,43,88,0
2,59,81,0
2,55,94,0
2,53,82,0
2,50,74,0
2,50,83,69
2,55,94,0
2,53,80,0
2,59,86,0
2,62,82,0
2,43,94,0
2,59,89,415
2,62,83,0
2,55,104,0
2,53,90,0
2,43,88,0
2,50,76,0
2,62,79,87
2,55,94,0
2,43,90,0
2,59,86,0
2,53,79,0
2,50,78,0
2,62,82,447
2,55,97,0
2,43,90,0
2,53,88,0
2,59,86,0
2,50,78,0
2,62,83,85
2,59,96,0
2,50,82,0
2,53,83,0
2,55,104,0
2,43,94,0
2,48,97,1584
2,67,88,0
2,55,83,0
2,64,96,0
2,60,97,0
2,58,86,0
2,58,73,215
2,64,81,0
2,60,83,0
2,67,79,0
2,55,66,128
2,48,82,0
2,64,84,24
2,60,83,0
2,58,65,0
2,67,78,0
2,55,73,5
2,48,88,0
2,58,76,152
2,64,96,0
2,67,83,0
2,60,97,0
2,48,88,152
2,55,75,0
2,60,79,26
2,67,74,0
2,58,67,0
2,64,77,0
2,55,79,0
2,48,94,0
2,67,86,24
2,58,72,0
2,60,88,0
2,64,86,0
2,59,86,218
2,62,78,0
2,43,90,0
2,50,75,0
2,53,75,0
2,55,86,0
2,55,90,208
2,59,86,0
2,53,79,0
2,62,80,0
2,50,75,128
2,43,90,0
2,62,75,24
2,53,69,0
2,59,79,0
2,55,85,0
2,50,78,10
2,43,88,0
2,53,78,154
2,62,82,0
2,59,92,0
2,55,94,0
