track,note,velocity,time
1,55,108,65290
1,86,96,0
1,91,91,0
1,79,102,5
1,55,102,1820
1,86,102,0
1,91,96,5
1,79,73,0
1,55,102,115
1,91,96,0
1,86,86,5
1,79,91,5
1,55,108,2810
1,91,91,5
1,86,96,5
1,79,91,0
1,55,96,155
1,86,96,0
1,91,96,5
1,79,91,0
1,60,96,2710
1,84,96,0
1,91,96,5
1,79,86,0
1,60,102,155
1,91,102,0
1,84,91,5
1,79,77,0
1,55,108,2695
1,91,91,5
1,86,102,0
1,79,96,5
1,55,108,155
1,86,102,5
1,79,96,0
1,91,96,5
1,57,102,580
1,55,91,85
1,54,108,100
1,52,91,105
1,50,82,95
1,60,102,95
1,59,96,90
1,57,96,70
1,55,66,5
1,62,91,165
1,55,77,25
1,79,91,5
1,86,91,0
1,91,96,5
1,64,77,155
1,55,69,25
1,62,73,160
1,86,96,0
1,91,91,5
1,79,77,0
1,55,77,5
1,64,77,110
1,55,69,45
1,62,73,160
1,55,73,20
1,91,91,5
1,86,91,5
1,79,77,0
1,64,77,155
1,55,77,35
1,62,86,160
1,86,91,0
1,91,96,0
1,79,77,5
1,55,73,40
1,64,82,35
1,55,77,65
1,62,77,160
1,55,66,35
1,79,86,0
1,86,102,5
1,91,96,5
1,64,86,155
1,55,66,45
1,62,77,160
1,86,91,0
1,91,91,5
1,79,73,0
1,55,77,40
1,64,77,45
1,55,69,65
1,62,86,160
1,55,77,45
1,79,86,5
1,86,91,0
1,91,96,5
1,64,86,155
1,55,66,65
1,62,86,160
1,91,96,5
1,86,86,0
1,79,77,5
1,55,73,35
1,64,86,115
1,55,73,45
1,62,82,160
1,55,82,35
1,86,102,20
1,91,96,0
1,79,73,5
1,64,82,140
1,55,69,60
1,62,86,155
1,91,91,5
1,86,96,0
1,79,77,5
1,55,77,35
1,64,82,85
1,55,77,55
1,62,91,160
1,55,73,55
1,79,91,5
1,86,91,0
1,91,96,5
1,64,86,155
1,55,66,85
1,62,86,160
1,91,91,0
1,86,96,5
1,79,73,5
1,55,82,85
1,64,91,100
1,60,86,90
1,67,82,175
1,60,126,60
1,69,125,160
1,60,122,50
1,67,121,145
1,60,118,35
1,69,117,175
1,60,114,45
1,67,113,160
1,60,110,25
1,69,109,160
1,60,106,60
1,67,104,160
1,60,102,55
1,69,100,160
1,55,98,165
1,62,96,160
1,55,94,20
1,91,94,15
1,86,94,0
1,79,94,0
1,64,92,160
1,55,90,25
1,62,88,160
1,91,88,0
1,86,88,5
1,79,88,5
1,55,86,55
1,64,84,45
1,55,81,80
1,62,80,160
1,55,77,40
1,91,77,0
1,86,77,5
1,79,77,0
1,64,76,160
1,55,73,105
1,62,72,145
1,91,72,0
1,86,72,5
1,79,71,70
1,55,69,65
1,64,68,0
1,55,65,45
1,57,64,20
1,55,60,60
1,54,56,55
1,52,52,60
1,50,47,60
1,60,43,65
1,59,39,80
1,57,35,80
1,55,33,315
1,62,31,145
1,55,29,45
1,91,28,5
1,86,28,0
1,79,28,5
1,64,27,155
1,55,24,25
1,62,23,160
1,91,23,5
1,86,23,0
1,79,23,5
1,55,20,0
1,64,19,50
1,55,16,15
1,62,15,0
1,55,12,0
1,79,12,5
1,86,12,0
1,91,12,5
1,64,11,155
1,55,8,205
1,62,7,155
1,86,7,0
1,79,7,5
1,91,7,0
1,60,66,375
1,67,86,160
1,60,59,80
1,69,77,160
1,60,62,75
1,67,77,165
1,60,62,50
1,69,77,165
1,62,73,25
1,69,86,165
1,62,73,90
1,71,73,175
1,62,62,80
1,69,86,160
1,62,59,40
1,71,82,165
1,60,62,90
1,67,77,175
1,60,59,35
1,69,91,170
1,60,62,60
1,67,77,170
1,60,59,70
1,69,91,160
1,62,73,40
1,69,73,165
1,62,66,55
1,71,82,150
1,62,56,100
1,69,82,160
1,62,62,70
1,71,86,165
1,55,73,150
1,62,77,165
1,55,62,25
1,64,82,165
1,55,82,70
1,62,73,155
1,55,69,55
1,64,73,165
1,55,77,75
1,62,69,160
1,67,91,0
1,86,96,5
1,91,102,0
1,79,69,5
1,60,91,16935
1,67,102,0
1,60,62,65
1,79,96,0
1,84,82,0
1,72,91,5
1,69,91,155
1,60,62,55
1,67,77,160
1,84,91,5
1,72,69,0
1,79,82,5
1,60,56,50
1,69,96,165
1,62,73,45
1,69,86,160
1,62,62,45
1,81,102,0
1,86,86,5
1,74,86,0
1,71,86,170
1,62,59,60
1,69,82,160
1,74,82,5
1,81,91,0
1,86,82,0
1,62,66,55
1,71,91,30
1,60,66,90
1,67,82,160
1,60,62,50
1,79,91,5
1,84,86,0
1,72,82,0
1,69,82,160
1,60,66,80
1,67,73,165
1,84,91,5
1,79,96,0
1,72,86,5
1,60,56,60
1,69,91,160
1,62,73,45
1,69,86,180
1,62,77,40
1,81,96,0
1,86,96,5
1,74,91,0
1,71,82,155
1,62,62,50
1,69,82,165
1,86,96,0
1,81,96,5
1,74,86,0
1,62,62,45
1,71,91,10
1,55,86,60
1,62,66,245
1,55,62,30
1,91,102,5
1,79,69,0
1,86,91,5
1,64,86,155
1,55,69,60
1,62,73,160
1,91,102,0
1,79,62,5
1,86,86,70
1,55,69,55
1,64,77,240
1,91,96,15
1,55,69,0
1,86,86,0
1,79,66,5
1,62,77,155
1,55,73,50
1,86,91,5
1,91,96,0
1,79,69,5
1,64,66,155
1,55,69,5
1,86,91,85
1,79,69,0
1,91,96,5
1,62,73,155
1,55,69,120
1,86,91,35
1,79,69,5
1,91,102,0
1,64,86,160
1,86,96,70
1,55,66,0
1,79,82,5
1,91,102,0
1,62,77,155
1,79,56,75
1,55,66,45
1,64,91,130
1,91,96,0
1,79,59,5
1,86,86,5
1,55,62,30
1,62,73,160
1,79,62,0
1,86,96,5
1,91,102,5
1,55,62,70
1,64,86,50
1,79,62,0
1,88,91,5
1,86,56,5
1,86,69,85
1,55,66,5
1,62,77,105
1,79,62,5
1,55,62,75
1,86,86,5
1,91,102,5
1,64,86,150
1,55,59,50
1,79,69,0
1,62,73,155
1,91,108,0
1,86,91,0
1,55,66,40
1,64,82,30
1,88,82,0
1,79,77,5
1,86,40,0
1,55,59,45
1,86,77,0
1,62,69,130
1,79,62,0
1,55,69,60
1,86,96,5
1,91,96,0
1,64,86,160
1,55,62,50
1,79,66,0
1,62,77,155
1,91,96,0
1,86,91,5
1,55,69,60
1,64,82,130
1,88,82,0
1,79,69,5
1,86,73,45
1,55,66,0
1,62,77,90
1,79,69,0
1,55,62,60
1,91,102,0
1,86,91,5
1,64,91,155
1,55,73,50
1,79,69,5
1,62,77,150
1,91,96,0
1,86,91,0
1,55,77,50
1,64,86,150
1,79,73,0
1,88,86,0
1,86,69,40
1,60,73,0
1,67,82,105
1,79,62,0
1,60,66,25
1,84,82,0
1,91,96,5
1,69,82,150
1,60,69,30
1,79,59,5
1,67,86,140
1,84,91,5
1,91,102,0
1,60,62,45
1,69,86,60
1,79,73,0
1,84,77,0
1,88,62,5
1,86,73,10
1,60,59,5
1,67,86,100
1,79,53,0
1,60,59,40
1,84,82,0
1,91,96,5
1,69,86,155
1,60,59,55
1,79,73,5
1,67,86,155
1,84,91,5
1,91,102,0
1,60,66,55
1,69,77,45
1,79,62,5
1,88,82,0
1,84,66,5
1,86,69,95
1,55,82,0
1,62,62,120
1,79,73,5
1,55,73,40
1,91,96,20
1,86,91,5
1,64,86,160
1,55,69,0
1,79,69,5
1,62,62,155
1,86,96,0
1,91,102,5
1,55,66,15
1,64,77,90
1,79,77,0
1,88,86,5
1,86,73,45
1,55,66,0
1,62,73,100
1,79,62,0
1,55,59,40
1,86,86,5
1,91,102,0
1,64,91,160
1,55,69,65
1,79,66,0
1,62,73,155
1,86,86,0
1,91,102,5
1,55,62,140
1,64,86,145
1,88,86,5
1,79,69,5
1,86,66,20
1,55,66,5
1,57,82,95
1,81,66,0
1,91,96,230
1,84,86,5
1,55,77,100
1,81,62,45
1,54,91,55
1,84,91,0
1,91,102,5
1,52,82,20
1,88,91,5
1,81,73,0
1,84,91,5
1,86,66,20
1,50,82,55
1,81,59,5
1,86,91,270
1,91,91,5
1,60,96,30
1,81,86,40
1,59,77,20
1,86,91,0
1,91,102,0
1,57,86,50
1,88,86,0
1,81,73,5
1,55,62,310
1,86,77,0
1,62,66,120
1,79,77,5
1,55,69,25
1,86,86,5
1,91,102,5
1,64,77,155
1,55,59,30
1,79,69,0
1,62,73,145
1,86,82,0
1,91,102,5
1,55,62,30
1,64,77,105
1,88,86,0
1,79,69,5
1,55,56,70
1,86,56,5
1,62,86,100
1,79,62,5
1,55,62,55
1,86,91,15
1,91,96,5
1,64,86,160
1,55,66,60
1,79,62,0
1,62,91,155
1,86,96,0
1,91,102,5
1,55,62,5
1,64,86,135
1,79,62,0
1,88,86,5
1,55,73,80
1,86,69,0
1,64,102,90
1,57,91,0
1,81,91,5
1,88,102,5
1,93,91,0
1,57,91,1840
1,64,96,0
1,88,108,5
1,93,91,0
1,81,86,5
1,64,102,85
1,57,86,0
1,93,91,5
1,88,102,0
1,81,86,5
1,57,86,2745
1,64,96,0
1,88,96,5
1,81,86,0
1,93,82,5
1,57,91,85
1,64,96,0
1,88,102,5
1,93,86,0
1,81,82,5
1,69,96,2685
1,62,91,0
1,93,86,0
1,86,96,5
1,81,96,5
1,62,96,160
1,69,91,0
1,86,91,5
1,81,82,0
1,93,82,5
1,64,96,2685
1,57,86,5
1,88,96,0
1,93,102,5
1,81,91,0
1,57,91,80
1,64,96,0
1,88,108,0
1,93,86,5
1,81,86,5
1,59,96,540
1,57,96,55
1,56,102,75
1,54,108,95
1,52,86,105
1,62,91,85
1,61,102,115
1,59,91,55
1,57,96,315
1,64,77,5
1,57,96,55
1,88,96,5
1,93,77,5
1,81,77,0
1,66,102,105
1,57,102,60
1,64,82,70
1,88,96,0
1,93,91,5
1,81,86,0
1,57,91,15
1,66,96,5
1,57,96,70
1,64,82,90
1,57,102,35
1,88,91,0
1,81,77,5
1,93,86,5
1,66,91,65
1,57,91,50
1,64,86,70
1,88,96,5
1,93,91,0
1,81,86,5
1,57,86,15
1,66,108,20
1,62,102,70
1,69,82,0
1,62,102,25
1,86,102,20
1,81,82,0
1,93,96,5
1,71,86,0
1,62,96,5
1,69,96,75
1,86,96,0
1,93,86,5
1,81,86,0
1,62,102,40
1,71,91,65
1,64,102,10
1,71,96,75
1,64,102,70
1,88,96,0
1,95,96,5
1,83,96,5
1,73,96,85
1,64,96,35
1,71,91,75
1,95,102,0
1,88,96,5
1,83,91,5
1,64,91,5
1,73,96,15
1,62,108,320
1,69,86,70
1,62,91,10
1,86,96,5
1,81,91,0
1,93,82,0
1,71,86,155
1,62,91,150
1,69,86,75
1,81,91,0
1,86,96,5
1,93,102,0
1,62,102,310
1,71,86,0
1,64,96,25
1,71,91,80
1,64,96,320
1,83,91,0
1,88,96,5
1,95,96,0
1,73,91,65
1,64,96,5
1,71,91,75
1,95,96,0
1,88,91,5
1,83,86,5
1,64,96,305
1,73,91,75
1,57,102,65
1,64,77,55
1,57,102,315
1,93,82,5
1,88,96,5
1,81,91,0
1,66,102,90
1,57,96,230
1,64,77,65
1,88,96,5
1,93,96,0
1,81,91,5
1,57,96,305
1,66,102,75
1,57,102,110
1,64,73,185
1,62,102,32185
1,74,96,5
1,69,86,30
1,74,74,5
1,86,94,0
1,81,83,5
1,62,86,45
1,71,96,105
1,74,78,5
1,81,74,0
1,86,78,5
1,62,66,5
1,74,61,5
1,69,96,145
1,86,88,0
1,81,94,5
1,62,77,10
1,71,96,140
1,81,88,0
1,86,88,5
1,74,61,0
1,64,73,100
1,74,69,5
1,71,96,75
1,76,88,0
1,88,94,5
1,83,88,0
1,64,73,80
1,73,108,100
1,76,78,0
1,88,83,5
1,83,88,0
1,64,77,5
1,76,65,5
1,71,102,50
1,76,69,0
1,83,88,5
1,88,88,0
1,64,86,5
1,73,102,120
1,88,94,0
1,83,100,5
1,62,91,180
1,76,88,5
1,69,96,85
1,74,74,0
1,86,94,5
1,81,83,5
1,62,86,90
1,71,102,105
1,74,78,5
1,81,74,0
1,86,78,5
1,62,73,5
1,74,61,5
1,69,102,145
1,86,88,5
1,81,94,0
1,62,82,10
1,71,102,125
1,81,88,5
1,86,88,0
1,74,61,5
1,64,82,100
1,74,69,5
1,71,96,60
1,76,88,0
1,88,94,5
1,83,88,0
1,64,82,80
1,73,102,100
1,76,78,0
1,88,83,5
1,83,88,0
1,64,86,5
1,76,65,5
1,71,102,50
1,76,69,0
1,83,88,5
1,88,88,0
1,64,86,5
1,73,91,135
1,88,94,0
1,83,100,5
1,57,91,195
1,76,88,5
1,69,102,85
1,64,86,0
1,93,100,5
1,88,88,5
1,81,94,0
1,69,96,85
1,64,91,0
1,88,88,5
1,93,69,5
1,81,65,0
1,81,69,5
1,57,86,90
1,69,96,5
1,64,82,0
1,93,83,5
1,88,100,0
1,69,82,115
1,57,77,5
1,64,73,0
1,93,94,5
1,81,78,0
1,88,94,0
1,81,83,5
1,69,91,150
1,64,86,5
1,57,86,5
1,93,94,0
1,88,100,5
2,45,100,23050
2,43,100,25
2,42,100,25
2,40,100,20
2,38,91,20
2,48,91,40
2,47,91,20
2,45,91,25
2,43,82,55
2,40,91,55
2,38,100,60
2,40,100,35
2,43,100,25
2,40,100,5
2,38,91,30
2,40,91,30
2,43,109,30
2,40,91,75
2,38,100,80
2,40,100,55
2,43,100,15
2,47,91,15
2,52,100,75
2,50,100,55
2,43,100,15
2,40,91,45
2,38,91,80
2,40,100,55
2,43,100,15
2,47,109,480
2,52,100,90
2,50,100,70
2,48,100,480
2,48,92,45
2,48,92,80
2,48,92,70
2,48,100,100
2,48,92,40
2,48,92,80
2,48,92,70
2,43,91,100
2,40,100,5
2,38,100,60
2,40,100,70
2,43,100,5
2,47,91,20
2,52,91,120
2,50,100,30
2,45,100,55
2,43,100,25
2,42,100,25
2,40,100,30
2,38,91,25
2,48,91,20
2,47,91,20
2,45,91,25
2,43,100,50
2,40,100,80
2,38,91,95
2,40,100,40
2,43,100,30
2,40,100,45
2,38,91,65
2,40,100,35
2,47,109,25
2,48,91,320
2,48,92,60
2,48,99,130
2,48,100,145
2,49,91,325
2,50,100,115
2,45,91,310
2,38,100,155
2,38,100,90
2,50,109,45
2,49,94,15
2,48,100,40
2,48,109,130
2,47,91,65
2,48,91,325
2,48,100,55
2,50,109,100
2,45,92,320
2,38,100,135
2,38,100,120
2,43,109,75
2,40,100,55
2,38,100,60
2,40,100,40
2,43,100,20
2,40,91,60
2,38,100,60
2,40,100,70
2,43,105,25
2,43,109,1560
2,43,100,175
2,43,109,2780
2,43,109,150
2,48,109,2785
2,48,109,145
2,43,109,2800
2,43,109,150
2,45,100,620
2,43,100,25
2,42,100,25
2,40,100,25
2,38,91,35
2,48,91,30
2,47,91,20
2,45,91,25
2,43,100,50
2,45,82,475
2,46,73,100
2,47,82,30
2,43,100,30
2,45,82,425
2,46,73,150
2,47,91,55
2,43,100,70
2,45,82,465
2,46,73,110
2,47,82,50
2,43,100,50
2,45,82,435
2,46,73,150
2,47,91,55
2,43,100,70
2,45,82,465
2,46,73,105
2,47,82,50
2,43,100,40
2,45,82,435
2,46,73,150
2,47,91,55
2,43,100,70
2,45,82,455
2,46,73,105
2,47,82,50
2,43,100,50
2,45,82,435
2,46,73,150
2,47,91,55
2,43,100,70
2,45,82,465
2,46,73,105
2,47,82,50
2,43,100,50
2,45,82,435
2,46,73,150
2,47,91,55
2,43,100,70
2,45,82,465
2,46,73,105
2,47,82,50
2,43,100,50
2,45,82,440
2,46,73,145
2,47,91,55
2,48,100,60
2,47,126,305
2,48,125,35
2,47,122,320
2,48,121,25
2,47,118,325
2,48,117,25
2,47,114,320
2,48,113,20
2,47,110,320
2,48,109,35
2,47,106,320
2,48,104,25
2,47,102,320
2,48,100,25
2,47,98,320
2,43,96,20
2,45,92,480
2,46,91,105
2,47,90,50
2,43,88,50
2,45,84,435
2,46,83,150
2,47,81,55
2,43,80,60
