track,note,velocity,time
3.0,50.0,80.0,285.0
3.0,57.0,78.0,78.0
3.0,62.0,91.0,8.0
3.0,66.0,86.0,10.0
3.0,45.0,90.0,35.0
3.0,57.0,83.0,52.0
3.0,62.0,99.0,7.0
3.0,66.0,92.0,8.0
3.0,50.0,91.0,11.0
3.0,57.0,79.0,64.0
3.0,62.0,94.0,5.0
3.0,66.0,91.0,7.0
3.0,45.0,93.0,96.0
3.0,57.0,88.0,54.0
3.0,62.0,103.0,1.0
3.0,66.0,98.0,3.0
3.0,40.0,87.0,6.0
3.0,47.0,35.0,74.0
3.0,50.0,56.0,6.0
3.0,56.0,80.0,4.0
3.0,59.0,86.0,6.0
3.0,64.0,93.0,12.0
3.0,47.0,97.0,9.0
3.0,50.0,58.0,0.0
3.0,56.0,81.0,0.0
3.0,59.0,94.0,6.0
3.0,64.0,81.0,5.0
3.0,45.0,99.0,14.0
3.0,52.0,72.0,75.0
3.0,55.0,80.0,7.0
3.0,61.0,88.0,5.0
3.0,64.0,81.0,8.0
3.0,45.0,91.0,6.0
3.0,52.0,60.0,80.0
3.0,55.0,81.0,4.0
3.0,61.0,102.0,1.0
3.0,64.0,80.0,1.0
3.0,50.0,88.0,0.0
3.0,57.0,68.0,76.0
3.0,62.0,88.0,3.0
3.0,66.0,85.0,6.0
3.0,45.0,86.0,96.0
3.0,57.0,68.0,1.0
3.0,62.0,87.0,1.0
3.0,66.0,94.0,8.0
3.0,50.0,96.0,1.0
3.0,57.0,74.0,3.0
3.0,62.0,98.0,0.0
3.0,66.0,91.0,8.0
3.0,45.0,97.0,99.0
3.0,50.0,66.0,1.0
3.0,57.0,74.0,11.0
3.0,62.0,93.0,5.0
3.0,66.0,98.0,1.0
3.0,40.0,101.0,15.0
3.0,47.0,55.0,79.0
3.0,50.0,68.0,3.0
3.0,56.0,79.0,7.0
3.0,59.0,94.0,2.0
3.0,64.0,81.0,5.0
3.0,47.0,94.0,0.0
3.0,50.0,53.0,0.0
3.0,56.0,81.0,0.0
3.0,59.0,101.0,3.0
3.0,64.0,91.0,6.0
3.0,45.0,96.0,15.0
3.0,52.0,70.0,63.0
3.0,55.0,83.0,5.0
3.0,61.0,93.0,8.0
3.0,64.0,87.0,6.0
3.0,40.0,96.0,0.0
3.0,52.0,62.0,1.0
3.0,55.0,80.0,8.0
3.0,61.0,90.0,11.0
3.0,64.0,87.0,10.0
3.0,50.0,87.0,9.0
3.0,57.0,82.0,60.0
3.0,62.0,97.0,7.0
3.0,66.0,97.0,8.0
3.0,45.0,103.0,98.0
3.0,57.0,76.0,1.0
3.0,62.0,97.0,0.0
3.0,66.0,97.0,10.0
3.0,50.0,97.0,0.0
3.0,57.0,89.0,0.0
3.0,62.0,96.0,2.0
3.0,66.0,100.0,5.0
3.0,49.0,101.0,10.0
3.0,54.0,69.0,77.0
3.0,58.0,84.0,6.0
3.0,61.0,97.0,8.0
3.0,66.0,87.0,10.0
3.0,47.0,104.0,8.0
3.0,54.0,74.0,75.0
3.0,59.0,90.0,5.0
3.0,62.0,98.0,9.0
3.0,66.0,90.0,8.0
3.0,45.0,106.0,2.0
3.0,50.0,72.0,92.0
3.0,57.0,82.0,6.0
3.0,60.0,96.0,5.0
3.0,66.0,84.0,5.0
3.0,43.0,100.0,7.0
3.0,50.0,60.0,13.0
3.0,55.0,78.0,4.0
3.0,59.0,89.0,6.0
3.0,67.0,87.0,8.0
3.0,43.0,107.0,5.0
3.0,50.0,66.0,65.0
3.0,55.0,61.0,7.0
3.0,58.0,76.0,9.0
3.0,62.0,81.0,11.0
3.0,67.0,80.0,14.0
3.0,50.0,86.0,4.0
3.0,57.0,74.0,86.0
3.0,62.0,84.0,10.0
3.0,66.0,81.0,9.0
3.0,45.0,97.0,91.0
3.0,50.0,49.0,73.0
3.0,57.0,66.0,0.0
3.0,62.0,87.0,0.0
3.0,66.0,83.0,7.0
3.0,50.0,79.0,1.0
3.0,57.0,90.0,2.0
3.0,62.0,100.0,2.0
3.0,66.0,96.0,7.0
3.0,47.0,100.0,13.0
3.0,54.0,53.0,92.0
3.0,57.0,90.0,6.0
3.0,63.0,101.0,4.0
3.0,66.0,102.0,6.0
3.0,40.0,97.0,4.0
3.0,47.0,35.0,78.0
3.0,50.0,54.0,3.0
3.0,56.0,63.0,7.0
3.0,59.0,68.0,2.0
3.0,64.0,78.0,8.0
3.0,47.0,97.0,1.0
3.0,50.0,65.0,58.0
3.0,56.0,76.0,5.0
3.0,59.0,90.0,1.0
3.0,64.0,83.0,12.0
3.0,45.0,94.0,16.0
3.0,52.0,55.0,57.0
3.0,55.0,74.0,9.0
3.0,61.0,87.0,1.0
3.0,64.0,83.0,6.0
3.0,40.0,96.0,88.0
3.0,55.0,79.0,12.0
3.0,61.0,87.0,8.0
3.0,64.0,87.0,9.0
3.0,50.0,90.0,2.0
3.0,57.0,84.0,52.0
3.0,62.0,100.0,5.0
3.0,66.0,95.0,11.0
3.0,45.0,86.0,0.0
3.0,50.0,59.0,78.0
3.0,57.0,66.0,1.0
3.0,62.0,84.0,0.0
3.0,66.0,87.0,13.0
3.0,50.0,87.0,45.0
3.0,57.0,72.0,80.0
3.0,62.0,94.0,8.0
3.0,66.0,95.0,9.0
3.0,45.0,100.0,3.0
3.0,50.0,68.0,80.0
3.0,57.0,79.0,2.0
3.0,62.0,91.0,0.0
3.0,66.0,87.0,8.0
3.0,40.0,99.0,15.0
3.0,47.0,78.0,55.0
3.0,50.0,74.0,4.0
3.0,56.0,74.0,10.0
3.0,59.0,91.0,6.0
3.0,64.0,71.0,11.0
3.0,47.0,94.0,1.0
3.0,50.0,58.0,69.0
3.0,56.0,80.0,1.0
3.0,59.0,93.0,6.0
3.0,64.0,84.0,1.0
3.0,45.0,104.0,11.0
3.0,52.0,76.0,67.0
3.0,55.0,82.0,6.0
3.0,61.0,88.0,8.0
3.0,64.0,81.0,6.0
3.0,40.0,100.0,0.0
3.0,52.0,66.0,1.0
3.0,55.0,81.0,4.0
3.0,61.0,90.0,8.0
3.0,64.0,76.0,1.0
3.0,50.0,97.0,0.0
3.0,57.0,76.0,53.0
3.0,62.0,91.0,5.0
3.0,66.0,89.0,7.0
3.0,45.0,97.0,0.0
3.0,50.0,59.0,82.0
3.0,57.0,65.0,3.0
3.0,62.0,93.0,2.0
3.0,66.0,86.0,5.0
3.0,50.0,94.0,0.0
3.0,57.0,81.0,1.0
3.0,62.0,97.0,0.0
3.0,66.0,101.0,10.0
3.0,45.0,101.0,91.0
3.0,50.0,65.0,71.0
3.0,57.0,74.0,0.0
3.0,62.0,90.0,1.0
3.0,66.0,87.0,10.0
3.0,40.0,99.0,0.0
3.0,47.0,47.0,56.0
3.0,50.0,60.0,4.0
3.0,56.0,76.0,8.0
3.0,59.0,91.0,3.0
3.0,64.0,88.0,9.0
3.0,47.0,99.0,1.0
3.0,50.0,66.0,52.0
3.0,56.0,74.0,1.0
3.0,59.0,91.0,3.0
3.0,64.0,85.0,1.0
3.0,45.0,97.0,16.0
3.0,52.0,68.0,71.0
3.0,55.0,81.0,3.0
3.0,61.0,91.0,8.0
3.0,64.0,81.0,4.0
3.0,45.0,90.0,9.0
3.0,52.0,70.0,1.0
3.0,55.0,80.0,5.0
3.0,61.0,91.0,7.0
3.0,64.0,82.0,1.0
3.0,50.0,94.0,10.0
3.0,57.0,78.0,67.0
3.0,62.0,99.0,3.0
3.0,66.0,96.0,7.0
3.0,45.0,96.0,91.0
3.0,50.0,51.0,70.0
3.0,57.0,69.0,0.0
3.0,62.0,81.0,10.0
3.0,66.0,86.0,7.0
3.0,50.0,100.0,2.0
3.0,57.0,81.0,3.0
3.0,62.0,94.0,0.0
3.0,66.0,88.0,7.0
3.0,49.0,99.0,7.0
3.0,54.0,74.0,78.0
3.0,58.0,72.0,6.0
3.0,61.0,87.0,5.0
3.0,66.0,88.0,10.0
3.0,47.0,94.0,5.0
3.0,54.0,72.0,73.0
3.0,59.0,85.0,6.0
3.0,62.0,94.0,9.0
3.0,66.0,87.0,10.0
3.0,45.0,102.0,7.0
3.0,57.0,83.0,80.0
3.0,60.0,98.0,11.0
3.0,66.0,96.0,11.0
3.0,43.0,102.0,4.0
3.0,50.0,56.0,69.0
3.0,55.0,56.0,8.0
3.0,59.0,74.0,8.0
3.0,62.0,82.0,8.0
3.0,67.0,70.0,10.0
3.0,43.0,101.0,1.0
3.0,55.0,66.0,8.0
3.0,58.0,81.0,2.0
3.0,62.0,96.0,1.0
3.0,67.0,85.0,13.0
3.0,50.0,87.0,5.0
3.0,57.0,65.0,80.0
3.0,62.0,80.0,6.0
3.0,66.0,80.0,8.0
3.0,45.0,90.0,95.0
3.0,50.0,41.0,71.0
3.0,57.0,68.0,1.0
3.0,62.0,91.0,7.0
3.0,66.0,81.0,3.0
3.0,50.0,75.0,0.0
3.0,57.0,83.0,1.0
3.0,62.0,101.0,2.0
3.0,66.0,99.0,6.0
3.0,47.0,101.0,6.0
3.0,54.0,70.0,73.0
3.0,57.0,82.0,10.0
3.0,63.0,91.0,11.0
3.0,66.0,87.0,15.0
3.0,40.0,98.0,4.0
3.0,50.0,49.0,85.0
3.0,47.0,51.0,1.0
3.0,56.0,54.0,7.0
3.0,59.0,84.0,4.0
3.0,64.0,63.0,11.0
3.0,47.0,88.0,1.0
3.0,50.0,46.0,53.0
3.0,56.0,58.0,0.0
3.0,59.0,79.0,7.0
3.0,64.0,81.0,3.0
3.0,45.0,99.0,12.0
3.0,52.0,51.0,50.0
3.0,55.0,74.0,7.0
3.0,61.0,85.0,10.0
3.0,64.0,87.0,9.0
3.0,45.0,80.0,6.0
3.0,52.0,46.0,0.0
3.0,55.0,72.0,6.0
3.0,61.0,83.0,8.0
3.0,64.0,82.0,3.0
3.0,50.0,91.0,15.0
3.0,57.0,55.0,55.0
3.0,62.0,85.0,7.0
3.0,66.0,87.0,10.0
3.0,45.0,94.0,97.0
3.0,50.0,61.0,64.0
3.0,57.0,79.0,1.0
3.0,62.0,87.0,8.0
3.0,66.0,90.0,1.0
3.0,50.0,93.0,0.0
3.0,57.0,76.0,2.0
3.0,62.0,93.0,1.0
3.0,66.0,91.0,10.0
3.0,45.0,91.0,91.0
3.0,50.0,65.0,71.0
3.0,57.0,74.0,1.0
3.0,62.0,88.0,1.0
3.0,66.0,88.0,6.0
3.0,40.0,78.0,7.0
3.0,50.0,56.0,81.0
3.0,56.0,72.0,9.0
3.0,59.0,82.0,6.0
3.0,64.0,69.0,10.0
3.0,47.0,72.0,77.0
3.0,50.0,60.0,1.0
3.0,56.0,76.0,1.0
3.0,59.0,97.0,3.0
3.0,64.0,80.0,6.0
3.0,45.0,99.0,16.0
3.0,52.0,75.0,58.0
3.0,55.0,85.0,3.0
3.0,61.0,85.0,9.0
3.0,64.0,80.0,8.0
3.0,45.0,91.0,9.0
3.0,52.0,66.0,1.0
3.0,55.0,75.0,9.0
3.0,61.0,81.0,0.0
3.0,64.0,85.0,8.0
3.0,50.0,90.0,1.0
3.0,57.0,69.0,64.0
3.0,62.0,88.0,5.0
3.0,66.0,83.0,10.0
3.0,45.0,100.0,92.0
3.0,50.0,68.0,0.0
3.0,57.0,78.0,7.0
3.0,62.0,91.0,1.0
3.0,66.0,85.0,3.0
3.0,50.0,92.0,0.0
3.0,57.0,75.0,70.0
3.0,62.0,97.0,10.0
3.0,66.0,94.0,11.0
3.0,45.0,99.0,90.0
3.0,50.0,55.0,77.0
3.0,57.0,72.0,7.0
3.0,62.0,91.0,6.0
3.0,66.0,85.0,3.0
3.0,40.0,101.0,1.0
3.0,47.0,54.0,66.0
3.0,50.0,58.0,8.0
3.0,56.0,63.0,7.0
3.0,59.0,81.0,9.0
3.0,64.0,62.0,9.0
3.0,47.0,87.0,6.0
3.0,50.0,54.0,79.0
3.0,56.0,72.0,1.0
3.0,59.0,83.0,5.0
3.0,64.0,78.0,4.0
3.0,45.0,94.0,14.0
3.0,52.0,55.0,61.0
3.0,55.0,76.0,4.0
3.0,61.0,81.0,9.0
3.0,64.0,78.0,5.0
3.0,45.0,87.0,5.0
3.0,52.0,46.0,0.0
3.0,55.0,74.0,4.0
3.0,61.0,83.0,1.0
3.0,64.0,76.0,6.0
3.0,50.0,88.0,16.0
3.0,57.0,76.0,81.0
3.0,62.0,92.0,7.0
3.0,66.0,84.0,8.0
3.0,45.0,94.0,92.0
3.0,50.0,33.0,68.0
3.0,57.0,59.0,1.0
3.0,62.0,83.0,8.0
3.0,66.0,77.0,5.0
3.0,50.0,95.0,0.0
3.0,57.0,76.0,3.0
3.0,62.0,91.0,0.0
3.0,66.0,96.0,13.0
3.0,49.0,89.0,4.0
3.0,54.0,74.0,73.0
3.0,58.0,86.0,6.0
3.0,61.0,94.0,9.0
3.0,66.0,81.0,8.0
3.0,47.0,98.0,6.0
3.0,54.0,74.0,72.0
3.0,59.0,85.0,6.0
3.0,62.0,91.0,8.0
3.0,66.0,81.0,8.0
3.0,45.0,97.0,6.0
3.0,50.0,70.0,74.0
3.0,57.0,74.0,9.0
3.0,60.0,91.0,7.0
3.0,66.0,86.0,11.0
3.0,43.0,105.0,6.0
3.0,50.0,56.0,75.0
3.0,55.0,53.0,4.0
3.0,59.0,73.0,7.0
3.0,62.0,87.0,7.0
3.0,67.0,81.0,9.0
3.0,43.0,88.0,7.0
3.0,50.0,37.0,68.0
3.0,55.0,61.0,4.0
3.0,58.0,74.0,8.0
3.0,62.0,78.0,1.0
3.0,67.0,74.0,5.0
3.0,50.0,78.0,5.0
3.0,57.0,68.0,75.0
3.0,62.0,81.0,6.0
3.0,66.0,83.0,9.0
3.0,45.0,87.0,95.0
3.0,57.0,65.0,8.0
3.0,62.0,87.0,6.0
3.0,66.0,85.0,9.0
3.0,50.0,77.0,76.0
3.0,57.0,87.0,6.0
3.0,62.0,97.0,2.0
3.0,66.0,90.0,10.0
3.0,54.0,68.0,8.0
3.0,64.0,68.0,0.0
3.0,69.0,68.0,0.0
3.0,60.0,68.0,0.0
3.0,47.0,63.0,13.0
3.0,54.0,72.0,2.0
3.0,57.0,83.0,8.0
3.0,57.0,81.0,4.0
3.0,63.0,95.0,9.0
3.0,66.0,88.0,9.0
3.0,40.0,93.0,6.0
3.0,47.0,40.0,75.0
3.0,52.0,50.0,5.0
3.0,56.0,63.0,8.0
3.0,59.0,78.0,3.0
3.0,64.0,86.0,11.0
3.0,47.0,83.0,8.0
3.0,50.0,49.0,12.0
3.0,56.0,54.0,2.0
3.0,59.0,76.0,2.0
3.0,64.0,80.0,1.0
3.0,45.0,96.0,27.0
3.0,52.0,60.0,77.0
3.0,55.0,72.0,8.0
3.0,61.0,81.0,8.0
3.0,64.0,67.0,1.0
3.0,45.0,100.0,3.0
3.0,52.0,44.0,23.0
3.0,55.0,77.0,22.0
3.0,61.0,84.0,17.0
3.0,64.0,83.0,17.0
3.0,50.0,87.0,8.0
3.0,57.0,70.0,31.0
3.0,62.0,83.0,11.0
3.0,66.0,83.0,20.0
3.0,57.0,87.0,45.0
3.0,69.0,87.0,2.0
3.0,69.0,87.0,8.0
3.0,66.0,87.0,2.0
4.0,69.0,86.0,664.0
4.0,74.0,87.0,97.0
4.0,73.0,83.0,22.0
4.0,74.0,90.0,47.0
4.0,76.0,89.0,25.0
4.0,71.0,84.0,40.0
4.0,76.0,86.0,32.0
4.0,74.0,89.0,151.0
4.0,76.0,87.0,2.0
4.0,74.0,89.0,12.0
4.0,73.0,77.0,2.0
4.0,71.0,83.0,3.0
4.0,73.0,79.0,8.0
4.0,74.0,82.0,0.0
4.0,69.0,87.0,214.0
4.0,74.0,86.0,52.0
4.0,73.0,86.0,39.0
4.0,74.0,91.0,1.0
4.0,76.0,86.0,37.0
4.0,71.0,84.0,38.0
4.0,76.0,88.0,40.0
4.0,74.0,87.0,57.0
4.0,73.0,82.0,7.0
4.0,71.0,85.0,16.0
4.0,73.0,82.0,39.0
4.0,74.0,81.0,0.0
4.0,78.0,84.0,180.0
4.0,78.0,84.0,9.0
4.0,78.0,86.0,10.0
4.0,78.0,86.0,8.0
4.0,78.0,87.0,50.0
4.0,78.0,83.0,9.0
4.0,78.0,90.0,8.0
4.0,78.0,88.0,85.0
4.0,76.0,88.0,8.0
4.0,74.0,82.0,4.0
4.0,76.0,80.0,13.0
4.0,78.0,84.0,47.0
4.0,78.0,92.0,171.0
4.0,78.0,86.0,10.0
4.0,79.0,89.0,8.0
4.0,78.0,83.0,0.0
4.0,76.0,85.0,20.0
4.0,71.0,84.0,1.0
4.0,76.0,82.0,4.0
4.0,74.0,80.0,99.0
4.0,73.0,81.0,23.0
4.0,71.0,83.0,1.0
4.0,73.0,78.0,65.0
4.0,74.0,83.0,116.0
4.0,69.0,90.0,179.0
4.0,74.0,82.0,70.0
4.0,73.0,86.0,21.0
4.0,74.0,87.0,53.0
4.0,76.0,88.0,11.0
4.0,71.0,82.0,0.0
4.0,76.0,86.0,48.0
4.0,74.0,88.0,74.0
4.0,73.0,83.0,47.0
4.0,71.0,86.0,34.0
4.0,73.0,80.0,51.0
4.0,74.0,85.0,0.0
4.0,69.0,86.0,211.0
4.0,74.0,87.0,12.0
4.0,73.0,83.0,5.0
4.0,74.0,85.0,1.0
4.0,76.0,83.0,45.0
4.0,71.0,88.0,61.0
4.0,76.0,78.0,0.0
4.0,74.0,89.0,87.0
4.0,73.0,87.0,11.0
4.0,71.0,85.0,2.0
4.0,73.0,83.0,34.0
4.0,74.0,84.0,15.0
4.0,78.0,81.0,163.0
4.0,78.0,87.0,9.0
4.0,78.0,93.0,12.0
4.0,78.0,84.0,8.0
4.0,78.0,95.0,66.0
4.0,78.0,87.0,13.0
4.0,78.0,83.0,13.0
4.0,78.0,98.0,49.0
4.0,76.0,91.0,14.0
4.0,74.0,85.0,3.0
4.0,76.0,89.0,8.0
4.0,78.0,84.0,3.0
4.0,78.0,91.0,109.0
4.0,78.0,89.0,10.0
4.0,79.0,88.0,6.0
4.0,78.0,85.0,3.0
4.0,76.0,92.0,46.0
4.0,71.0,84.0,51.0
4.0,76.0,89.0,6.0
4.0,74.0,92.0,77.0
4.0,73.0,87.0,7.0
4.0,71.0,86.0,15.0
4.0,73.0,83.0,52.0
4.0,74.0,79.0,5.0
4.0,69.0,89.0,103.0
4.0,74.0,86.0,6.0
4.0,73.0,84.0,32.0
4.0,74.0,89.0,46.0
4.0,76.0,89.0,60.0
4.0,71.0,87.0,5.0
4.0,76.0,93.0,0.0
4.0,74.0,92.0,84.0
4.0,73.0,86.0,7.0
4.0,71.0,90.0,7.0
4.0,73.0,86.0,1.0
4.0,74.0,87.0,11.0
4.0,69.0,86.0,173.0
4.0,74.0,83.0,6.0
4.0,73.0,84.0,55.0
4.0,74.0,87.0,7.0
4.0,76.0,88.0,53.0
4.0,71.0,80.0,4.0
4.0,76.0,87.0,0.0
4.0,74.0,90.0,113.0
4.0,73.0,84.0,5.0
4.0,71.0,90.0,7.0
4.0,73.0,84.0,1.0
4.0,74.0,89.0,21.0
4.0,78.0,95.0,179.0
4.0,78.0,86.0,9.0
4.0,78.0,91.0,8.0
4.0,78.0,87.0,8.0
4.0,78.0,90.0,56.0
4.0,78.0,84.0,12.0
4.0,78.0,84.0,11.0
4.0,78.0,84.0,43.0
4.0,76.0,83.0,9.0
4.0,74.0,85.0,6.0
4.0,76.0,86.0,16.0
4.0,78.0,83.0,7.0
4.0,78.0,87.0,105.0
4.0,78.0,89.0,13.0
4.0,79.0,90.0,17.0
4.0,78.0,86.0,2.0
4.0,76.0,90.0,49.0
4.0,71.0,82.0,5.0
4.0,76.0,89.0,45.0
4.0,74.0,94.0,94.0
4.0,73.0,84.0,7.0
4.0,78.0,85.0,2.0
4.0,76.0,89.0,89.0
4.0,74.0,84.0,26.0
5.0,62.0,84.0,3728.0
5.0,57.0,84.0,0.0
5.0,54.0,85.0,0.0
5.0,50.0,78.0,0.0
5.0,54.0,69.0,0.0
5.0,61.0,76.0,0.0
5.0,58.0,79.0,1.0
5.0,49.0,79.0,0.0
5.0,47.0,79.0,0.0
5.0,62.0,72.0,0.0
5.0,59.0,78.0,1.0
5.0,54.0,82.0,0.0
5.0,54.0,74.0,1.0
5.0,60.0,77.0,0.0
5.0,57.0,81.0,0.0
5.0,45.0,72.0,0.0
5.0,62.0,79.0,4.0
5.0,55.0,78.0,1.0
5.0,59.0,79.0,0.0
5.0,43.0,78.0,0.0
5.0,55.0,71.0,5.0
5.0,58.0,76.0,0.0
5.0,62.0,79.0,0.0
5.0,50.0,72.0,1.0
5.0,54.0,72.0,0.0
5.0,62.0,72.0,0.0
5.0,57.0,75.0,1.0
5.0,62.0,79.0,79.0
5.0,57.0,75.0,0.0
5.0,54.0,85.0,0.0
5.0,50.0,72.0,2.0
5.0,63.0,77.0,2.0
5.0,57.0,70.0,0.0
5.0,59.0,72.0,1.0
5.0,47.0,73.0,1.0
5.0,64.0,75.0,0.0
5.0,56.0,71.0,0.0
5.0,59.0,72.0,0.0
5.0,40.0,67.0,1.0
5.0,45.0,66.0,83.0
5.0,50.0,74.0,2.0
5.0,55.0,76.0,0.0
5.0,59.0,77.0,0.0
5.0,49.0,64.0,0.0
5.0,52.0,67.0,0.0
5.0,57.0,72.0,2.0
5.0,59.0,71.0,4.0
5.0,62.0,71.0,1.0
5.0,55.0,71.0,0.0
5.0,64.0,72.0,4.0
5.0,57.0,70.0,1.0
5.0,61.0,68.0,0.0
5.0,38.0,78.0,0.0
5.0,54.0,65.0,2.0
5.0,62.0,72.0,0.0
5.0,57.0,65.0,1.0
5.0,62.0,84.0,3160.0
5.0,57.0,82.0,0.0
5.0,54.0,84.0,1.0
5.0,50.0,78.0,0.0
5.0,54.0,73.0,0.0
5.0,61.0,75.0,0.0
5.0,58.0,74.0,1.0
5.0,49.0,85.0,0.0
5.0,47.0,72.0,0.0
5.0,62.0,72.0,0.0
5.0,59.0,78.0,1.0
5.0,54.0,82.0,0.0
5.0,54.0,74.0,1.0
5.0,60.0,77.0,0.0
5.0,57.0,81.0,0.0
5.0,45.0,72.0,0.0
5.0,62.0,79.0,4.0
5.0,55.0,78.0,1.0
5.0,59.0,79.0,0.0
5.0,43.0,78.0,0.0
5.0,55.0,71.0,5.0
5.0,58.0,76.0,0.0
5.0,62.0,79.0,0.0
5.0,50.0,72.0,1.0
5.0,54.0,72.0,0.0
5.0,62.0,72.0,0.0
5.0,57.0,75.0,1.0
5.0,62.0,79.0,79.0
5.0,57.0,75.0,0.0
5.0,54.0,85.0,0.0
5.0,50.0,72.0,2.0
5.0,63.0,77.0,2.0
5.0,57.0,70.0,0.0
5.0,59.0,72.0,1.0
5.0,47.0,73.0,1.0
5.0,64.0,75.0,0.0
5.0,56.0,71.0,0.0
5.0,59.0,72.0,0.0
5.0,40.0,67.0,1.0
5.0,45.0,66.0,83.0
5.0,50.0,74.0,2.0
5.0,55.0,76.0,0.0
5.0,59.0,77.0,0.0
5.0,49.0,64.0,0.0
5.0,52.0,67.0,0.0
5.0,57.0,72.0,2.0
5.0,59.0,71.0,4.0
5.0,62.0,71.0,1.0
5.0,55.0,71.0,0.0
5.0,64.0,72.0,4.0
5.0,57.0,70.0,1.0
5.0,61.0,68.0,0.0
5.0,38.0,78.0,0.0
5.0,54.0,65.0,2.0
5.0,62.0,72.0,0.0
5.0,57.0,65.0,1.0
0.0,0.0,0.0,0.0
0.0,0.0,0.0,0.0
0.0,0.0,0.0,0.0
0.0,0.0,0.0,0.0
0.0,0.0,0.0,0.0
0.0,0.0,0.0,0.0
0.0,0.0,0.0,0.0
0.0,0.0,0.0,0.0
0.0,0.0,0.0,0.0
0.0,0.0,0.0,0.0
0.0,0.0,0.0,0.0
0.0,0.0,0.0,0.0
0.0,0.0,0.0,0.0
0.0,0.0,0.0,0.0
0.0,0.0,0.0,0.0
0.0,0.0,0.0,0.0
0.0,0.0,0.0,0.0
0.0,0.0,0.0,0.0
0.0,0.0,0.0,0.0
0.0,0.0,0.0,0.0
0.0,0.0,0.0,0.0
0.0,0.0,0.0,0.0
0.0,0.0,0.0,0.0
0.0,0.0,0.0,0.0
0.0,0.0,0.0,0.0
0.0,0.0,0.0,0.0
0.0,0.0,0.0,0.0
0.0,0.0,0.0,0.0
0.0,0.0,0.0,0.0
0.0,0.0,0.0,0.0
0.0,0.0,0.0,0.0
0.0,0.0,0.0,0.0
0.0,0.0,0.0,0.0
0.0,0.0,0.0,0.0
0.0,0.0,0.0,0.0
0.0,0.0,0.0,0.0
0.0,0.0,0.0,0.0
0.0,0.0,0.0,0.0
0.0,0.0,0.0,0.0
0.0,0.0,0.0,0.0
0.0,0.0,0.0,0.0
0.0,0.0,0.0,0.0
0.0,0.0,0.0,0.0
0.0,0.0,0.0,0.0
0.0,0.0,0.0,0.0
0.0,0.0,0.0,0.0
0.0,0.0,0.0,0.0
0.0,0.0,0.0,0.0
0.0,0.0,0.0,0.0
0.0,0.0,0.0,0.0
0.0,0.0,0.0,0.0
0.0,0.0,0.0,0.0
0.0,0.0,0.0,0.0
0.0,0.0,0.0,0.0
0.0,0.0,0.0,0.0
0.0,0.0,0.0,0.0
0.0,0.0,0.0,0.0
0.0,0.0,0.0,0.0
0.0,0.0,0.0,0.0
0.0,0.0,0.0,0.0
0.0,0.0,0.0,0.0
0.0,0.0,0.0,0.0
0.0,0.0,0.0,0.0
0.0,0.0,0.0,0.0
0.0,0.0,0.0,0.0
0.0,0.0,0.0,0.0
0.0,0.0,0.0,0.0
0.0,0.0,0.0,0.0
0.0,0.0,0.0,0.0
0.0,0.0,0.0,0.0
0.0,0.0,0.0,0.0
0.0,0.0,0.0,0.0
0.0,0.0,0.0,0.0
0.0,0.0,0.0,0.0
0.0,0.0,0.0,0.0
0.0,0.0,0.0,0.0
0.0,0.0,0.0,0.0
0.0,0.0,0.0,0.0
0.0,0.0,0.0,0.0
0.0,0.0,0.0,0.0
0.0,0.0,0.0,0.0
0.0,0.0,0.0,0.0
0.0,0.0,0.0,0.0
0.0,0.0,0.0,0.0
0.0,0.0,0.0,0.0
0.0,0.0,0.0,0.0
0.0,0.0,0.0,0.0
0.0,0.0,0.0,0.0
0.0,0.0,0.0,0.0
0.0,0.0,0.0,0.0
0.0,0.0,0.0,0.0
0.0,0.0,0.0,0.0
0.0,0.0,0.0,0.0
0.0,0.0,0.0,0.0
0.0,0.0,0.0,0.0
0.0,0.0,0.0,0.0
0.0,0.0,0.0,0.0
0.0,0.0,0.0,0.0
0.0,0.0,0.0,0.0
0.0,0.0,0.0,0.0
0.0,0.0,0.0,0.0
0.0,0.0,0.0,0.0
0.0,0.0,0.0,0.0
0.0,0.0,0.0,0.0
0.0,0.0,0.0,0.0
0.0,0.0,0.0,0.0
0.0,0.0,0.0,0.0
0.0,0.0,0.0,0.0
0.0,0.0,0.0,0.0
0.0,0.0,0.0,0.0
0.0,0.0,0.0,0.0
0.0,0.0,0.0,0.0
0.0,0.0,0.0,0.0
0.0,0.0,0.0,0.0
0.0,0.0,0.0,0.0
0.0,0.0,0.0,0.0
0.0,0.0,0.0,0.0
0.0,0.0,0.0,0.0
0.0,0.0,0.0,0.0
0.0,0.0,0.0,0.0
0.0,0.0,0.0,0.0
0.0,0.0,0.0,0.0
0.0,0.0,0.0,0.0
0.0,0.0,0.0,0.0
0.0,0.0,0.0,0.0
0.0,0.0,0.0,0.0
0.0,0.0,0.0,0.0
0.0,0.0,0.0,0.0
0.0,0.0,0.0,0.0
0.0,0.0,0.0,0.0
0.0,0.0,0.0,0.0
0.0,0.0,0.0,0.0
0.0,0.0,0.0,0.0
0.0,0.0,0.0,0.0
0.0,0.0,0.0,0.0
0.0,0.0,0.0,0.0
0.0,0.0,0.0,0.0
0.0,0.0,0.0,0.0
0.0,0.0,0.0,0.0
0.0,0.0,0.0,0.0
0.0,0.0,0.0,0.0
0.0,0.0,0.0,0.0
0.0,0.0,0.0,0.0
0.0,0.0,0.0,0.0
0.0,0.0,0.0,0.0
0.0,0.0,0.0,0.0
0.0,0.0,0.0,0.0
0.0,0.0,0.0,0.0
0.0,0.0,0.0,0.0
0.0,0.0,0.0,0.0
0.0,0.0,0.0,0.0
0.0,0.0,0.0,0.0
0.0,0.0,0.0,0.0
0.0,0.0,0.0,0.0
0.0,0.0,0.0,0.0
0.0,0.0,0.0,0.0
0.0,0.0,0.0,0.0
0.0,0.0,0.0,0.0
0.0,0.0,0.0,0.0
0.0,0.0,0.0,0.0
0.0,0.0,0.0,0.0
0.0,0.0,0.0,0.0
0.0,0.0,0.0,0.0
0.0,0.0,0.0,0.0
0.0,0.0,0.0,0.0
0.0,0.0,0.0,0.0
0.0,0.0,0.0,0.0
0.0,0.0,0.0,0.0
0.0,0.0,0.0,0.0
0.0,0.0,0.0,0.0
0.0,0.0,0.0,0.0
0.0,0.0,0.0,0.0
0.0,0.0,0.0,0.0
0.0,0.0,0.0,0.0
0.0,0.0,0.0,0.0
0.0,0.0,0.0,0.0
0.0,0.0,0.0,0.0
0.0,0.0,0.0,0.0
0.0,0.0,0.0,0.0
0.0,0.0,0.0,0.0
0.0,0.0,0.0,0.0
0.0,0.0,0.0,0.0
0.0,0.0,0.0,0.0
0.0,0.0,0.0,0.0
0.0,0.0,0.0,0.0
0.0,0.0,0.0,0.0
0.0,0.0,0.0,0.0
0.0,0.0,0.0,0.0
0.0,0.0,0.0,0.0
0.0,0.0,0.0,0.0
0.0,0.0,0.0,0.0
0.0,0.0,0.0,0.0
0.0,0.0,0.0,0.0
0.0,0.0,0.0,0.0
0.0,0.0,0.0,0.0
0.0,0.0,0.0,0.0
0.0,0.0,0.0,0.0
0.0,0.0,0.0,0.0
0.0,0.0,0.0,0.0
0.0,0.0,0.0,0.0
0.0,0.0,0.0,0.0
0.0,0.0,0.0,0.0
0.0,0.0,0.0,0.0
0.0,0.0,0.0,0.0
0.0,0.0,0.0,0.0
0.0,0.0,0.0,0.0
0.0,0.0,0.0,0.0
0.0,0.0,0.0,0.0
0.0,0.0,0.0,0.0
0.0,0.0,0.0,0.0
0.0,0.0,0.0,0.0
0.0,0.0,0.0,0.0
0.0,0.0,0.0,0.0
0.0,0.0,0.0,0.0
0.0,0.0,0.0,0.0
0.0,0.0,0.0,0.0
0.0,0.0,0.0,0.0
0.0,0.0,0.0,0.0
0.0,0.0,0.0,0.0
0.0,0.0,0.0,0.0
0.0,0.0,0.0,0.0
0.0,0.0,0.0,0.0
0.0,0.0,0.0,0.0
0.0,0.0,0.0,0.0
0.0,0.0,0.0,0.0
0.0,0.0,0.0,0.0
0.0,0.0,0.0,0.0
0.0,0.0,0.0,0.0
0.0,0.0,0.0,0.0
0.0,0.0,0.0,0.0
0.0,0.0,0.0,0.0
0.0,0.0,0.0,0.0
0.0,0.0,0.0,0.0
0.0,0.0,0.0,0.0
0.0,0.0,0.0,0.0
0.0,0.0,0.0,0.0
0.0,0.0,0.0,0.0
0.0,0.0,0.0,0.0
0.0,0.0,0.0,0.0
0.0,0.0,0.0,0.0
0.0,0.0,0.0,0.0
0.0,0.0,0.0,0.0
0.0,0.0,0.0,0.0
0.0,0.0,0.0,0.0
0.0,0.0,0.0,0.0
0.0,0.0,0.0,0.0
0.0,0.0,0.0,0.0
0.0,0.0,0.0,0.0
0.0,0.0,0.0,0.0
0.0,0.0,0.0,0.0
0.0,0.0,0.0,0.0
0.0,0.0,0.0,0.0
0.0,0.0,0.0,0.0
0.0,0.0,0.0,0.0
0.0,0.0,0.0,0.0
0.0,0.0,0.0,0.0
0.0,0.0,0.0,0.0
0.0,0.0,0.0,0.0
0.0,0.0,0.0,0.0
0.0,0.0,0.0,0.0
0.0,0.0,0.0,0.0
0.0,0.0,0.0,0.0
0.0,0.0,0.0,0.0
0.0,0.0,0.0,0.0
0.0,0.0,0.0,0.0
0.0,0.0,0.0,0.0
0.0,0.0,0.0,0.0
0.0,0.0,0.0,0.0
