track,note,velocity,time
1.0,50.0,80.0,570.0
1.0,57.0,78.0,156.0
1.0,62.0,91.0,16.0
1.0,66.0,86.0,20.0
1.0,45.0,90.0,70.0
1.0,57.0,83.0,104.0
1.0,62.0,99.0,14.0
1.0,66.0,92.0,16.0
1.0,50.0,91.0,22.0
1.0,57.0,79.0,128.0
1.0,62.0,94.0,10.0
1.0,66.0,91.0,14.0
1.0,45.0,93.0,192.0
1.0,57.0,88.0,108.0
1.0,62.0,103.0,2.0
1.0,66.0,98.0,6.0
1.0,40.0,87.0,12.0
1.0,47.0,35.0,148.0
1.0,50.0,56.0,12.0
1.0,56.0,80.0,8.0
1.0,59.0,86.0,12.0
1.0,64.0,93.0,24.0
1.0,47.0,97.0,18.0
1.0,50.0,58.0,0.0
1.0,56.0,81.0,0.0
1.0,59.0,94.0,12.0
1.0,64.0,81.0,10.0
1.0,45.0,99.0,28.0
1.0,52.0,72.0,150.0
1.0,55.0,80.0,14.0
1.0,61.0,88.0,10.0
1.0,64.0,81.0,16.0
1.0,45.0,91.0,12.0
1.0,52.0,60.0,160.0
1.0,55.0,81.0,8.0
1.0,61.0,102.0,2.0
1.0,64.0,80.0,2.0
1.0,50.0,88.0,0.0
1.0,57.0,68.0,152.0
1.0,62.0,88.0,6.0
1.0,66.0,85.0,12.0
1.0,45.0,86.0,192.0
1.0,57.0,68.0,2.0
1.0,62.0,87.0,2.0
1.0,66.0,94.0,16.0
1.0,50.0,96.0,2.0
1.0,57.0,74.0,6.0
1.0,62.0,98.0,0.0
1.0,66.0,91.0,16.0
1.0,45.0,97.0,198.0
1.0,50.0,66.0,2.0
1.0,57.0,74.0,22.0
1.0,62.0,93.0,10.0
1.0,66.0,98.0,2.0
1.0,40.0,101.0,30.0
1.0,47.0,55.0,158.0
1.0,50.0,68.0,6.0
1.0,56.0,79.0,14.0
1.0,59.0,94.0,4.0
1.0,64.0,81.0,10.0
1.0,47.0,94.0,0.0
1.0,50.0,53.0,0.0
1.0,56.0,81.0,0.0
1.0,59.0,101.0,6.0
1.0,64.0,91.0,12.0
1.0,45.0,96.0,30.0
1.0,52.0,70.0,126.0
1.0,55.0,83.0,10.0
1.0,61.0,93.0,16.0
1.0,64.0,87.0,12.0
1.0,40.0,96.0,0.0
1.0,52.0,62.0,2.0
1.0,55.0,80.0,16.0
1.0,61.0,90.0,22.0
1.0,64.0,87.0,20.0
1.0,50.0,87.0,18.0
1.0,57.0,82.0,120.0
1.0,62.0,97.0,14.0
1.0,66.0,97.0,16.0
1.0,45.0,103.0,196.0
1.0,57.0,76.0,2.0
1.0,62.0,97.0,0.0
1.0,66.0,97.0,20.0
1.0,50.0,97.0,0.0
1.0,57.0,89.0,0.0
1.0,62.0,96.0,4.0
1.0,66.0,100.0,10.0
1.0,49.0,101.0,20.0
1.0,54.0,69.0,154.0
1.0,58.0,84.0,12.0
1.0,61.0,97.0,16.0
1.0,66.0,87.0,20.0
1.0,47.0,104.0,16.0
1.0,54.0,74.0,150.0
1.0,59.0,90.0,10.0
1.0,62.0,98.0,18.0
1.0,66.0,90.0,16.0
1.0,45.0,106.0,4.0
1.0,50.0,72.0,184.0
1.0,57.0,82.0,12.0
1.0,60.0,96.0,10.0
1.0,66.0,84.0,10.0
1.0,43.0,100.0,14.0
1.0,50.0,60.0,26.0
1.0,55.0,78.0,8.0
1.0,59.0,89.0,12.0
1.0,67.0,87.0,16.0
1.0,43.0,107.0,10.0
1.0,50.0,66.0,130.0
1.0,55.0,61.0,14.0
1.0,58.0,76.0,18.0
1.0,62.0,81.0,22.0
1.0,67.0,80.0,28.0
1.0,50.0,86.0,8.0
1.0,57.0,74.0,172.0
1.0,62.0,84.0,20.0
1.0,66.0,81.0,18.0
1.0,45.0,97.0,182.0
1.0,50.0,49.0,146.0
1.0,57.0,66.0,0.0
1.0,62.0,87.0,0.0
1.0,66.0,83.0,14.0
1.0,50.0,79.0,2.0
1.0,57.0,90.0,4.0
1.0,62.0,100.0,4.0
1.0,66.0,96.0,14.0
1.0,47.0,100.0,26.0
1.0,54.0,53.0,184.0
1.0,57.0,90.0,12.0
1.0,63.0,101.0,8.0
1.0,66.0,102.0,12.0
1.0,40.0,97.0,8.0
1.0,47.0,35.0,156.0
1.0,50.0,54.0,6.0
1.0,56.0,63.0,14.0
1.0,59.0,68.0,4.0
1.0,64.0,78.0,16.0
1.0,47.0,97.0,2.0
1.0,50.0,65.0,116.0
1.0,56.0,76.0,10.0
1.0,59.0,90.0,2.0
1.0,64.0,83.0,24.0
1.0,45.0,94.0,32.0
1.0,52.0,55.0,114.0
1.0,55.0,74.0,18.0
1.0,61.0,87.0,2.0
1.0,64.0,83.0,12.0
1.0,40.0,96.0,176.0
1.0,55.0,79.0,24.0
1.0,61.0,87.0,16.0
1.0,64.0,87.0,18.0
1.0,50.0,90.0,4.0
1.0,57.0,84.0,104.0
1.0,62.0,100.0,10.0
1.0,66.0,95.0,22.0
1.0,45.0,86.0,0.0
1.0,50.0,59.0,156.0
1.0,57.0,66.0,2.0
1.0,62.0,84.0,0.0
1.0,66.0,87.0,26.0
1.0,50.0,87.0,90.0
1.0,57.0,72.0,160.0
1.0,62.0,94.0,16.0
1.0,66.0,95.0,18.0
1.0,45.0,100.0,6.0
1.0,50.0,68.0,160.0
1.0,57.0,79.0,4.0
1.0,62.0,91.0,0.0
1.0,66.0,87.0,16.0
1.0,40.0,99.0,30.0
1.0,47.0,78.0,110.0
1.0,50.0,74.0,8.0
1.0,56.0,74.0,20.0
1.0,59.0,91.0,12.0
1.0,64.0,71.0,22.0
1.0,47.0,94.0,2.0
1.0,50.0,58.0,138.0
1.0,56.0,80.0,2.0
1.0,59.0,93.0,12.0
1.0,64.0,84.0,2.0
1.0,45.0,104.0,22.0
1.0,52.0,76.0,134.0
1.0,55.0,82.0,12.0
1.0,61.0,88.0,16.0
1.0,64.0,81.0,12.0
1.0,40.0,100.0,0.0
1.0,52.0,66.0,2.0
1.0,55.0,81.0,8.0
1.0,61.0,90.0,16.0
1.0,64.0,76.0,2.0
1.0,50.0,97.0,0.0
1.0,57.0,76.0,106.0
1.0,62.0,91.0,10.0
1.0,66.0,89.0,14.0
1.0,45.0,97.0,0.0
1.0,50.0,59.0,164.0
1.0,57.0,65.0,6.0
1.0,62.0,93.0,4.0
1.0,66.0,86.0,10.0
1.0,50.0,94.0,0.0
1.0,57.0,81.0,2.0
1.0,62.0,97.0,0.0
1.0,66.0,101.0,20.0
1.0,45.0,101.0,182.0
1.0,50.0,65.0,142.0
1.0,57.0,74.0,0.0
1.0,62.0,90.0,2.0
1.0,66.0,87.0,20.0
1.0,40.0,99.0,0.0
1.0,47.0,47.0,112.0
1.0,50.0,60.0,8.0
1.0,56.0,76.0,16.0
1.0,59.0,91.0,6.0
1.0,64.0,88.0,18.0
1.0,47.0,99.0,2.0
1.0,50.0,66.0,104.0
1.0,56.0,74.0,2.0
1.0,59.0,91.0,6.0
1.0,64.0,85.0,2.0
1.0,45.0,97.0,32.0
1.0,52.0,68.0,142.0
1.0,55.0,81.0,6.0
1.0,61.0,91.0,16.0
1.0,64.0,81.0,8.0
1.0,45.0,90.0,18.0
1.0,52.0,70.0,2.0
1.0,55.0,80.0,10.0
1.0,61.0,91.0,14.0
1.0,64.0,82.0,2.0
1.0,50.0,94.0,20.0
1.0,57.0,78.0,134.0
1.0,62.0,99.0,6.0
1.0,66.0,96.0,14.0
1.0,45.0,96.0,182.0
1.0,50.0,51.0,140.0
1.0,57.0,69.0,0.0
1.0,62.0,81.0,20.0
1.0,66.0,86.0,14.0
1.0,50.0,100.0,4.0
1.0,57.0,81.0,6.0
1.0,62.0,94.0,0.0
1.0,66.0,88.0,14.0
1.0,49.0,99.0,14.0
1.0,54.0,74.0,156.0
1.0,58.0,72.0,12.0
1.0,61.0,87.0,10.0
1.0,66.0,88.0,20.0
1.0,47.0,94.0,10.0
1.0,54.0,72.0,146.0
1.0,59.0,85.0,12.0
1.0,62.0,94.0,18.0
1.0,66.0,87.0,20.0
1.0,45.0,102.0,14.0
1.0,57.0,83.0,160.0
1.0,60.0,98.0,22.0
1.0,66.0,96.0,22.0
1.0,43.0,102.0,8.0
1.0,50.0,56.0,138.0
1.0,55.0,56.0,16.0
1.0,59.0,74.0,16.0
1.0,62.0,82.0,16.0
1.0,67.0,70.0,20.0
1.0,43.0,101.0,2.0
1.0,55.0,66.0,16.0
1.0,58.0,81.0,4.0
1.0,62.0,96.0,2.0
1.0,67.0,85.0,26.0
1.0,50.0,87.0,10.0
1.0,57.0,65.0,160.0
1.0,62.0,80.0,12.0
1.0,66.0,80.0,16.0
1.0,45.0,90.0,190.0
1.0,50.0,41.0,142.0
1.0,57.0,68.0,2.0
1.0,62.0,91.0,14.0
1.0,66.0,81.0,6.0
1.0,50.0,75.0,0.0
1.0,57.0,83.0,2.0
1.0,62.0,101.0,4.0
1.0,66.0,99.0,12.0
1.0,47.0,101.0,12.0
1.0,54.0,70.0,146.0
1.0,57.0,82.0,20.0
1.0,63.0,91.0,22.0
1.0,66.0,87.0,30.0
1.0,40.0,98.0,8.0
1.0,50.0,49.0,170.0
1.0,47.0,51.0,2.0
1.0,56.0,54.0,14.0
1.0,59.0,84.0,8.0
1.0,64.0,63.0,22.0
1.0,47.0,88.0,2.0
1.0,50.0,46.0,106.0
1.0,56.0,58.0,0.0
1.0,59.0,79.0,14.0
1.0,64.0,81.0,6.0
1.0,45.0,99.0,24.0
1.0,52.0,51.0,100.0
1.0,55.0,74.0,14.0
1.0,61.0,85.0,20.0
1.0,64.0,87.0,18.0
1.0,45.0,80.0,12.0
1.0,52.0,46.0,0.0
1.0,55.0,72.0,12.0
1.0,61.0,83.0,16.0
1.0,64.0,82.0,6.0
1.0,50.0,91.0,30.0
1.0,57.0,55.0,110.0
1.0,62.0,85.0,14.0
1.0,66.0,87.0,20.0
1.0,45.0,94.0,194.0
1.0,50.0,61.0,128.0
1.0,57.0,79.0,2.0
1.0,62.0,87.0,16.0
1.0,66.0,90.0,2.0
1.0,50.0,93.0,0.0
1.0,57.0,76.0,4.0
1.0,62.0,93.0,2.0
1.0,66.0,91.0,20.0
1.0,45.0,91.0,182.0
1.0,50.0,65.0,142.0
1.0,57.0,74.0,2.0
1.0,62.0,88.0,2.0
1.0,66.0,88.0,12.0
1.0,40.0,78.0,14.0
1.0,50.0,56.0,162.0
1.0,56.0,72.0,18.0
1.0,59.0,82.0,12.0
1.0,64.0,69.0,20.0
1.0,47.0,72.0,154.0
1.0,50.0,60.0,2.0
1.0,56.0,76.0,2.0
1.0,59.0,97.0,6.0
1.0,64.0,80.0,12.0
1.0,45.0,99.0,32.0
1.0,52.0,75.0,116.0
1.0,55.0,85.0,6.0
1.0,61.0,85.0,18.0
1.0,64.0,80.0,16.0
1.0,45.0,91.0,18.0
1.0,52.0,66.0,2.0
1.0,55.0,75.0,18.0
1.0,61.0,81.0,0.0
1.0,64.0,85.0,16.0
1.0,50.0,90.0,2.0
1.0,57.0,69.0,128.0
1.0,62.0,88.0,10.0
1.0,66.0,83.0,20.0
1.0,45.0,100.0,184.0
1.0,50.0,68.0,0.0
1.0,57.0,78.0,14.0
1.0,62.0,91.0,2.0
1.0,66.0,85.0,6.0
1.0,50.0,92.0,0.0
1.0,57.0,75.0,140.0
1.0,62.0,97.0,20.0
1.0,66.0,94.0,22.0
1.0,45.0,99.0,180.0
1.0,50.0,55.0,154.0
1.0,57.0,72.0,14.0
1.0,62.0,91.0,12.0
1.0,66.0,85.0,6.0
1.0,40.0,101.0,2.0
1.0,47.0,54.0,132.0
1.0,50.0,58.0,16.0
1.0,56.0,63.0,14.0
1.0,59.0,81.0,18.0
1.0,64.0,62.0,18.0
1.0,47.0,87.0,12.0
1.0,50.0,54.0,158.0
1.0,56.0,72.0,2.0
1.0,59.0,83.0,10.0
1.0,64.0,78.0,8.0
1.0,45.0,94.0,28.0
1.0,52.0,55.0,122.0
1.0,55.0,76.0,8.0
1.0,61.0,81.0,18.0
1.0,64.0,78.0,10.0
1.0,45.0,87.0,10.0
1.0,52.0,46.0,0.0
1.0,55.0,74.0,8.0
1.0,61.0,83.0,2.0
1.0,64.0,76.0,12.0
1.0,50.0,88.0,32.0
1.0,57.0,76.0,162.0
1.0,62.0,92.0,14.0
1.0,66.0,84.0,16.0
1.0,45.0,94.0,184.0
1.0,50.0,33.0,136.0
1.0,57.0,59.0,2.0
1.0,62.0,83.0,16.0
1.0,66.0,77.0,10.0
1.0,50.0,95.0,0.0
1.0,57.0,76.0,6.0
1.0,62.0,91.0,0.0
1.0,66.0,96.0,26.0
1.0,49.0,89.0,8.0
1.0,54.0,74.0,146.0
1.0,58.0,86.0,12.0
1.0,61.0,94.0,18.0
1.0,66.0,81.0,16.0
1.0,47.0,98.0,12.0
1.0,54.0,74.0,144.0
1.0,59.0,85.0,12.0
1.0,62.0,91.0,16.0
1.0,66.0,81.0,16.0
1.0,45.0,97.0,12.0
1.0,50.0,70.0,148.0
1.0,57.0,74.0,18.0
1.0,60.0,91.0,14.0
1.0,66.0,86.0,22.0
1.0,43.0,105.0,12.0
1.0,50.0,56.0,150.0
1.0,55.0,53.0,8.0
1.0,59.0,73.0,14.0
1.0,62.0,87.0,14.0
1.0,67.0,81.0,18.0
1.0,43.0,88.0,14.0
1.0,50.0,37.0,136.0
1.0,55.0,61.0,8.0
1.0,58.0,74.0,16.0
1.0,62.0,78.0,2.0
1.0,67.0,74.0,10.0
1.0,50.0,78.0,10.0
1.0,57.0,68.0,150.0
1.0,62.0,81.0,12.0
1.0,66.0,83.0,18.0
1.0,45.0,87.0,190.0
1.0,57.0,65.0,16.0
1.0,62.0,87.0,12.0
1.0,66.0,85.0,18.0
1.0,50.0,77.0,152.0
1.0,57.0,87.0,12.0
1.0,62.0,97.0,4.0
1.0,66.0,90.0,20.0
1.0,54.0,68.0,16.0
1.0,64.0,68.0,0.0
1.0,69.0,68.0,0.0
1.0,60.0,68.0,0.0
1.0,47.0,63.0,26.0
1.0,54.0,72.0,4.0
1.0,57.0,83.0,16.0
1.0,57.0,81.0,8.0
1.0,63.0,95.0,18.0
1.0,66.0,88.0,18.0
1.0,40.0,93.0,12.0
1.0,47.0,40.0,150.0
1.0,52.0,50.0,10.0
1.0,56.0,63.0,16.0
1.0,59.0,78.0,6.0
1.0,64.0,86.0,22.0
1.0,47.0,83.0,16.0
1.0,50.0,49.0,24.0
1.0,56.0,54.0,4.0
1.0,59.0,76.0,4.0
1.0,64.0,80.0,2.0
1.0,45.0,96.0,54.0
1.0,52.0,60.0,154.0
1.0,55.0,72.0,16.0
1.0,61.0,81.0,16.0
1.0,64.0,67.0,2.0
1.0,45.0,100.0,6.0
1.0,52.0,44.0,46.0
1.0,55.0,77.0,44.0
1.0,61.0,84.0,34.0
1.0,64.0,83.0,34.0
1.0,50.0,87.0,16.0
1.0,57.0,70.0,62.0
1.0,62.0,83.0,22.0
1.0,66.0,83.0,40.0
1.0,57.0,87.0,90.0
1.0,69.0,87.0,4.0
1.0,69.0,87.0,16.0
1.0,66.0,87.0,4.0
3.0,69.0,86.0,1328.0
3.0,74.0,87.0,194.0
3.0,73.0,83.0,44.0
3.0,74.0,90.0,94.0
3.0,76.0,89.0,50.0
3.0,71.0,84.0,80.0
3.0,76.0,86.0,64.0
3.0,74.0,89.0,302.0
3.0,76.0,87.0,4.0
3.0,74.0,89.0,24.0
3.0,73.0,77.0,4.0
3.0,71.0,83.0,6.0
3.0,73.0,79.0,16.0
3.0,74.0,82.0,0.0
3.0,69.0,87.0,428.0
3.0,74.0,86.0,104.0
3.0,73.0,86.0,78.0
3.0,74.0,91.0,2.0
3.0,76.0,86.0,74.0
3.0,71.0,84.0,76.0
3.0,76.0,88.0,80.0
3.0,74.0,87.0,114.0
3.0,73.0,82.0,14.0
3.0,71.0,85.0,32.0
3.0,73.0,82.0,78.0
3.0,74.0,81.0,0.0
3.0,78.0,84.0,360.0
3.0,78.0,84.0,18.0
3.0,78.0,86.0,20.0
3.0,78.0,86.0,16.0
3.0,78.0,87.0,100.0
3.0,78.0,83.0,18.0
3.0,78.0,90.0,16.0
3.0,78.0,88.0,170.0
3.0,76.0,88.0,16.0
3.0,74.0,82.0,8.0
3.0,76.0,80.0,26.0
3.0,78.0,84.0,94.0
3.0,78.0,92.0,342.0
3.0,78.0,86.0,20.0
3.0,79.0,89.0,16.0
3.0,78.0,83.0,0.0
3.0,76.0,85.0,40.0
3.0,71.0,84.0,2.0
3.0,76.0,82.0,8.0
3.0,74.0,80.0,198.0
3.0,73.0,81.0,46.0
3.0,71.0,83.0,2.0
3.0,73.0,78.0,130.0
3.0,74.0,83.0,232.0
3.0,69.0,90.0,358.0
3.0,74.0,82.0,140.0
3.0,73.0,86.0,42.0
3.0,74.0,87.0,106.0
3.0,76.0,88.0,22.0
3.0,71.0,82.0,0.0
3.0,76.0,86.0,96.0
3.0,74.0,88.0,148.0
3.0,73.0,83.0,94.0
3.0,71.0,86.0,68.0
3.0,73.0,80.0,102.0
3.0,74.0,85.0,0.0
3.0,69.0,86.0,422.0
3.0,74.0,87.0,24.0
3.0,73.0,83.0,10.0
3.0,74.0,85.0,2.0
3.0,76.0,83.0,90.0
3.0,71.0,88.0,122.0
3.0,76.0,78.0,0.0
3.0,74.0,89.0,174.0
3.0,73.0,87.0,22.0
3.0,71.0,85.0,4.0
3.0,73.0,83.0,68.0
3.0,74.0,84.0,30.0
3.0,78.0,81.0,326.0
3.0,78.0,87.0,18.0
3.0,78.0,93.0,24.0
3.0,78.0,84.0,16.0
3.0,78.0,95.0,132.0
3.0,78.0,87.0,26.0
3.0,78.0,83.0,26.0
3.0,78.0,98.0,98.0
3.0,76.0,91.0,28.0
3.0,74.0,85.0,6.0
3.0,76.0,89.0,16.0
3.0,78.0,84.0,6.0
3.0,78.0,91.0,218.0
3.0,78.0,89.0,20.0
3.0,79.0,88.0,12.0
3.0,78.0,85.0,6.0
3.0,76.0,92.0,92.0
3.0,71.0,84.0,102.0
3.0,76.0,89.0,12.0
3.0,74.0,92.0,154.0
3.0,73.0,87.0,14.0
3.0,71.0,86.0,30.0
3.0,73.0,83.0,104.0
3.0,74.0,79.0,10.0
3.0,69.0,89.0,206.0
3.0,74.0,86.0,12.0
3.0,73.0,84.0,64.0
3.0,74.0,89.0,92.0
3.0,76.0,89.0,120.0
3.0,71.0,87.0,10.0
3.0,76.0,93.0,0.0
3.0,74.0,92.0,168.0
3.0,73.0,86.0,14.0
3.0,71.0,90.0,14.0
3.0,73.0,86.0,2.0
3.0,74.0,87.0,22.0
3.0,69.0,86.0,346.0
3.0,74.0,83.0,12.0
3.0,73.0,84.0,110.0
3.0,74.0,87.0,14.0
3.0,76.0,88.0,106.0
3.0,71.0,80.0,8.0
3.0,76.0,87.0,0.0
3.0,74.0,90.0,226.0
3.0,73.0,84.0,10.0
3.0,71.0,90.0,14.0
3.0,73.0,84.0,2.0
3.0,74.0,89.0,42.0
3.0,78.0,95.0,358.0
3.0,78.0,86.0,18.0
3.0,78.0,91.0,16.0
3.0,78.0,87.0,16.0
3.0,78.0,90.0,112.0
3.0,78.0,84.0,24.0
3.0,78.0,84.0,22.0
3.0,78.0,84.0,86.0
3.0,76.0,83.0,18.0
3.0,74.0,85.0,12.0
3.0,76.0,86.0,32.0
3.0,78.0,83.0,14.0
3.0,78.0,87.0,210.0
3.0,78.0,89.0,26.0
3.0,79.0,90.0,34.0
3.0,78.0,86.0,4.0
3.0,76.0,90.0,98.0
3.0,71.0,82.0,10.0
3.0,76.0,89.0,90.0
3.0,74.0,94.0,188.0
3.0,73.0,84.0,14.0
3.0,78.0,85.0,4.0
3.0,76.0,89.0,178.0
3.0,74.0,84.0,52.0
4.0,62.0,84.0,7456.0
4.0,57.0,84.0,0.0
4.0,54.0,85.0,0.0
4.0,50.0,78.0,0.0
4.0,54.0,69.0,0.0
4.0,61.0,76.0,0.0
4.0,58.0,79.0,2.0
4.0,49.0,79.0,0.0
4.0,47.0,79.0,0.0
4.0,62.0,72.0,0.0
4.0,59.0,78.0,2.0
4.0,54.0,82.0,0.0
4.0,54.0,74.0,2.0
4.0,60.0,77.0,0.0
4.0,57.0,81.0,0.0
4.0,45.0,72.0,0.0
4.0,62.0,79.0,8.0
4.0,55.0,78.0,2.0
4.0,59.0,79.0,0.0
4.0,43.0,78.0,0.0
4.0,55.0,71.0,10.0
4.0,58.0,76.0,0.0
4.0,62.0,79.0,0.0
4.0,50.0,72.0,2.0
4.0,54.0,72.0,0.0
4.0,62.0,72.0,0.0
4.0,57.0,75.0,2.0
4.0,62.0,79.0,158.0
4.0,57.0,75.0,0.0
4.0,54.0,85.0,0.0
4.0,50.0,72.0,4.0
4.0,63.0,77.0,4.0
4.0,57.0,70.0,0.0
4.0,59.0,72.0,2.0
4.0,47.0,73.0,2.0
4.0,64.0,75.0,0.0
4.0,56.0,71.0,0.0
4.0,59.0,72.0,0.0
4.0,40.0,67.0,2.0
4.0,45.0,66.0,166.0
4.0,50.0,74.0,4.0
4.0,55.0,76.0,0.0
4.0,59.0,77.0,0.0
4.0,49.0,64.0,0.0
4.0,52.0,67.0,0.0
4.0,57.0,72.0,4.0
4.0,59.0,71.0,8.0
4.0,62.0,71.0,2.0
4.0,55.0,71.0,0.0
4.0,64.0,72.0,8.0
4.0,57.0,70.0,2.0
4.0,61.0,68.0,0.0
4.0,38.0,78.0,0.0
4.0,54.0,65.0,4.0
4.0,62.0,72.0,0.0
4.0,57.0,65.0,2.0
4.0,62.0,84.0,6320.0
4.0,57.0,82.0,0.0
4.0,54.0,84.0,2.0
4.0,50.0,78.0,0.0
4.0,54.0,73.0,0.0
4.0,61.0,75.0,0.0
4.0,58.0,74.0,2.0
4.0,49.0,85.0,0.0
4.0,47.0,72.0,0.0
4.0,62.0,72.0,0.0
4.0,59.0,78.0,2.0
4.0,54.0,82.0,0.0
4.0,54.0,74.0,2.0
4.0,60.0,77.0,0.0
4.0,57.0,81.0,0.0
4.0,45.0,72.0,0.0
4.0,62.0,79.0,8.0
4.0,55.0,78.0,2.0
4.0,59.0,79.0,0.0
4.0,43.0,78.0,0.0
4.0,55.0,71.0,10.0
4.0,58.0,76.0,0.0
4.0,62.0,79.0,0.0
4.0,50.0,72.0,2.0
4.0,54.0,72.0,0.0
4.0,62.0,72.0,0.0
4.0,57.0,75.0,2.0
4.0,62.0,79.0,158.0
4.0,57.0,75.0,0.0
4.0,54.0,85.0,0.0
4.0,50.0,72.0,4.0
4.0,63.0,77.0,4.0
4.0,57.0,70.0,0.0
4.0,59.0,72.0,2.0
4.0,47.0,73.0,2.0
4.0,64.0,75.0,0.0
4.0,56.0,71.0,0.0
4.0,59.0,72.0,0.0
4.0,40.0,67.0,2.0
4.0,45.0,66.0,166.0
4.0,50.0,74.0,4.0
4.0,55.0,76.0,0.0
4.0,59.0,77.0,0.0
4.0,49.0,64.0,0.0
4.0,52.0,67.0,0.0
4.0,57.0,72.0,4.0
4.0,59.0,71.0,8.0
4.0,62.0,71.0,2.0
4.0,55.0,71.0,0.0
4.0,64.0,72.0,8.0
4.0,57.0,70.0,2.0
4.0,61.0,68.0,0.0
4.0,38.0,78.0,0.0
4.0,54.0,65.0,4.0
4.0,62.0,72.0,0.0
4.0,57.0,65.0,2.0
0.0,0.0,0.0,0.0
0.0,0.0,0.0,0.0
0.0,0.0,0.0,0.0
0.0,0.0,0.0,0.0
0.0,0.0,0.0,0.0
0.0,0.0,0.0,0.0
0.0,0.0,0.0,0.0
0.0,0.0,0.0,0.0
0.0,0.0,0.0,0.0
0.0,0.0,0.0,0.0
0.0,0.0,0.0,0.0
0.0,0.0,0.0,0.0
0.0,0.0,0.0,0.0
0.0,0.0,0.0,0.0
0.0,0.0,0.0,0.0
0.0,0.0,0.0,0.0
0.0,0.0,0.0,0.0
0.0,0.0,0.0,0.0
0.0,0.0,0.0,0.0
0.0,0.0,0.0,0.0
0.0,0.0,0.0,0.0
0.0,0.0,0.0,0.0
0.0,0.0,0.0,0.0
0.0,0.0,0.0,0.0
0.0,0.0,0.0,0.0
0.0,0.0,0.0,0.0
0.0,0.0,0.0,0.0
0.0,0.0,0.0,0.0
0.0,0.0,0.0,0.0
0.0,0.0,0.0,0.0
0.0,0.0,0.0,0.0
0.0,0.0,0.0,0.0
0.0,0.0,0.0,0.0
0.0,0.0,0.0,0.0
0.0,0.0,0.0,0.0
0.0,0.0,0.0,0.0
0.0,0.0,0.0,0.0
0.0,0.0,0.0,0.0
0.0,0.0,0.0,0.0
0.0,0.0,0.0,0.0
0.0,0.0,0.0,0.0
0.0,0.0,0.0,0.0
0.0,0.0,0.0,0.0
0.0,0.0,0.0,0.0
0.0,0.0,0.0,0.0
0.0,0.0,0.0,0.0
0.0,0.0,0.0,0.0
0.0,0.0,0.0,0.0
0.0,0.0,0.0,0.0
0.0,0.0,0.0,0.0
0.0,0.0,0.0,0.0
0.0,0.0,0.0,0.0
0.0,0.0,0.0,0.0
0.0,0.0,0.0,0.0
0.0,0.0,0.0,0.0
0.0,0.0,0.0,0.0
0.0,0.0,0.0,0.0
0.0,0.0,0.0,0.0
0.0,0.0,0.0,0.0
0.0,0.0,0.0,0.0
0.0,0.0,0.0,0.0
0.0,0.0,0.0,0.0
0.0,0.0,0.0,0.0
0.0,0.0,0.0,0.0
0.0,0.0,0.0,0.0
0.0,0.0,0.0,0.0
0.0,0.0,0.0,0.0
0.0,0.0,0.0,0.0
0.0,0.0,0.0,0.0
0.0,0.0,0.0,0.0
0.0,0.0,0.0,0.0
0.0,0.0,0.0,0.0
0.0,0.0,0.0,0.0
0.0,0.0,0.0,0.0
0.0,0.0,0.0,0.0
0.0,0.0,0.0,0.0
0.0,0.0,0.0,0.0
0.0,0.0,0.0,0.0
0.0,0.0,0.0,0.0
0.0,0.0,0.0,0.0
0.0,0.0,0.0,0.0
0.0,0.0,0.0,0.0
0.0,0.0,0.0,0.0
0.0,0.0,0.0,0.0
0.0,0.0,0.0,0.0
0.0,0.0,0.0,0.0
0.0,0.0,0.0,0.0
0.0,0.0,0.0,0.0
0.0,0.0,0.0,0.0
0.0,0.0,0.0,0.0
0.0,0.0,0.0,0.0
0.0,0.0,0.0,0.0
0.0,0.0,0.0,0.0
0.0,0.0,0.0,0.0
0.0,0.0,0.0,0.0
0.0,0.0,0.0,0.0
0.0,0.0,0.0,0.0
0.0,0.0,0.0,0.0
0.0,0.0,0.0,0.0
0.0,0.0,0.0,0.0
0.0,0.0,0.0,0.0
0.0,0.0,0.0,0.0
0.0,0.0,0.0,0.0
0.0,0.0,0.0,0.0
0.0,0.0,0.0,0.0
0.0,0.0,0.0,0.0
0.0,0.0,0.0,0.0
0.0,0.0,0.0,0.0
0.0,0.0,0.0,0.0
0.0,0.0,0.0,0.0
0.0,0.0,0.0,0.0
0.0,0.0,0.0,0.0
0.0,0.0,0.0,0.0
0.0,0.0,0.0,0.0
0.0,0.0,0.0,0.0
0.0,0.0,0.0,0.0
0.0,0.0,0.0,0.0
0.0,0.0,0.0,0.0
0.0,0.0,0.0,0.0
0.0,0.0,0.0,0.0
0.0,0.0,0.0,0.0
0.0,0.0,0.0,0.0
0.0,0.0,0.0,0.0
0.0,0.0,0.0,0.0
0.0,0.0,0.0,0.0
0.0,0.0,0.0,0.0
0.0,0.0,0.0,0.0
0.0,0.0,0.0,0.0
0.0,0.0,0.0,0.0
0.0,0.0,0.0,0.0
0.0,0.0,0.0,0.0
0.0,0.0,0.0,0.0
0.0,0.0,0.0,0.0
0.0,0.0,0.0,0.0
0.0,0.0,0.0,0.0
0.0,0.0,0.0,0.0
0.0,0.0,0.0,0.0
0.0,0.0,0.0,0.0
0.0,0.0,0.0,0.0
0.0,0.0,0.0,0.0
0.0,0.0,0.0,0.0
0.0,0.0,0.0,0.0
0.0,0.0,0.0,0.0
0.0,0.0,0.0,0.0
0.0,0.0,0.0,0.0
0.0,0.0,0.0,0.0
0.0,0.0,0.0,0.0
0.0,0.0,0.0,0.0
0.0,0.0,0.0,0.0
0.0,0.0,0.0,0.0
0.0,0.0,0.0,0.0
0.0,0.0,0.0,0.0
0.0,0.0,0.0,0.0
0.0,0.0,0.0,0.0
0.0,0.0,0.0,0.0
0.0,0.0,0.0,0.0
0.0,0.0,0.0,0.0
0.0,0.0,0.0,0.0
0.0,0.0,0.0,0.0
0.0,0.0,0.0,0.0
0.0,0.0,0.0,0.0
0.0,0.0,0.0,0.0
0.0,0.0,0.0,0.0
0.0,0.0,0.0,0.0
0.0,0.0,0.0,0.0
0.0,0.0,0.0,0.0
0.0,0.0,0.0,0.0
0.0,0.0,0.0,0.0
0.0,0.0,0.0,0.0
0.0,0.0,0.0,0.0
0.0,0.0,0.0,0.0
0.0,0.0,0.0,0.0
0.0,0.0,0.0,0.0
0.0,0.0,0.0,0.0
0.0,0.0,0.0,0.0
0.0,0.0,0.0,0.0
0.0,0.0,0.0,0.0
0.0,0.0,0.0,0.0
0.0,0.0,0.0,0.0
0.0,0.0,0.0,0.0
0.0,0.0,0.0,0.0
0.0,0.0,0.0,0.0
0.0,0.0,0.0,0.0
0.0,0.0,0.0,0.0
0.0,0.0,0.0,0.0
0.0,0.0,0.0,0.0
0.0,0.0,0.0,0.0
0.0,0.0,0.0,0.0
0.0,0.0,0.0,0.0
0.0,0.0,0.0,0.0
0.0,0.0,0.0,0.0
0.0,0.0,0.0,0.0
0.0,0.0,0.0,0.0
0.0,0.0,0.0,0.0
0.0,0.0,0.0,0.0
0.0,0.0,0.0,0.0
0.0,0.0,0.0,0.0
0.0,0.0,0.0,0.0
0.0,0.0,0.0,0.0
0.0,0.0,0.0,0.0
0.0,0.0,0.0,0.0
0.0,0.0,0.0,0.0
0.0,0.0,0.0,0.0
0.0,0.0,0.0,0.0
0.0,0.0,0.0,0.0
0.0,0.0,0.0,0.0
0.0,0.0,0.0,0.0
0.0,0.0,0.0,0.0
0.0,0.0,0.0,0.0
0.0,0.0,0.0,0.0
0.0,0.0,0.0,0.0
0.0,0.0,0.0,0.0
0.0,0.0,0.0,0.0
0.0,0.0,0.0,0.0
0.0,0.0,0.0,0.0
0.0,0.0,0.0,0.0
0.0,0.0,0.0,0.0
0.0,0.0,0.0,0.0
0.0,0.0,0.0,0.0
0.0,0.0,0.0,0.0
0.0,0.0,0.0,0.0
0.0,0.0,0.0,0.0
0.0,0.0,0.0,0.0
0.0,0.0,0.0,0.0
0.0,0.0,0.0,0.0
0.0,0.0,0.0,0.0
0.0,0.0,0.0,0.0
0.0,0.0,0.0,0.0
0.0,0.0,0.0,0.0
0.0,0.0,0.0,0.0
0.0,0.0,0.0,0.0
0.0,0.0,0.0,0.0
0.0,0.0,0.0,0.0
0.0,0.0,0.0,0.0
0.0,0.0,0.0,0.0
0.0,0.0,0.0,0.0
0.0,0.0,0.0,0.0
0.0,0.0,0.0,0.0
0.0,0.0,0.0,0.0
0.0,0.0,0.0,0.0
0.0,0.0,0.0,0.0
0.0,0.0,0.0,0.0
0.0,0.0,0.0,0.0
0.0,0.0,0.0,0.0
0.0,0.0,0.0,0.0
0.0,0.0,0.0,0.0
0.0,0.0,0.0,0.0
0.0,0.0,0.0,0.0
0.0,0.0,0.0,0.0
0.0,0.0,0.0,0.0
0.0,0.0,0.0,0.0
0.0,0.0,0.0,0.0
0.0,0.0,0.0,0.0
0.0,0.0,0.0,0.0
0.0,0.0,0.0,0.0
0.0,0.0,0.0,0.0
0.0,0.0,0.0,0.0
0.0,0.0,0.0,0.0
0.0,0.0,0.0,0.0
0.0,0.0,0.0,0.0
0.0,0.0,0.0,0.0
0.0,0.0,0.0,0.0
0.0,0.0,0.0,0.0
0.0,0.0,0.0,0.0
0.0,0.0,0.0,0.0
0.0,0.0,0.0,0.0
0.0,0.0,0.0,0.0
0.0,0.0,0.0,0.0
