track,note,velocity,time
1,47,77,8
1,52,53,0
1,40,65,0
1,47,77,8
1,52,53,0
1,45,65,0
1,52,73,8
1,57,51,0
1,40,63,0
1,54,73,8
1,59,51,0
1,47,63,0
1,52,54,8
1,73,69,16136
1,79,100,16
1,78,37,172
1,73,73,4
1,78,87,16
1,71,54,100
1,76,79,16
1,67,66,220
1,67,66,4
1,73,78,8
1,79,120,24
1,78,23,224
1,73,79,4
1,78,105,16
1,76,120,56
1,71,59,24
1,73,71,44
1,78,83,24
1,76,120,48
1,71,58,16
1,68,75,628
1,74,85,16
1,68,76,192
1,73,67,16
1,68,65,116
1,71,52,16
1,76,91,232
1,71,31,16
1,74,67,224
1,68,24,24
1,73,90,184
1,68,36,16
1,72,27,8
1,71,48,8
1,74,85,640
1,73,83,48
1,71,64,60
1,72,94,2504
1,76,111,8
1,75,102,296
1,71,81,0
1,73,105,40
1,76,120,8
1,71,82,240
1,73,111,4
1,76,120,24
1,79,120,32
1,78,120,8
1,79,120,8
1,78,120,8
1,79,101,8
1,78,112,8
1,79,120,16
1,76,102,24
1,78,120,32
1,76,120,32
1,73,99,0
1,71,108,12
1,69,101,136
1,71,107,12
1,71,88,20
1,71,103,28
1,73,95,16
1,71,89,12
1,76,89,64
1,79,120,8
1,76,120,8
1,73,73,40
1,71,113,44
1,68,53,24
1,71,106,24
1,76,120,8
1,71,100,16
1,76,120,104
1,71,120,0
1,76,113,68
1,71,120,0
1,73,120,24
1,76,120,8
1,73,120,8
1,76,120,8
1,73,112,232
1,78,120,16
1,73,97,20
1,76,111,8
1,73,120,8
1,76,120,16
1,73,120,48
1,76,120,8
1,73,103,32
1,78,114,16
1,73,103,32
1,76,120,24
1,85,11,64
1,71,115,248
1,73,115,8
1,76,120,12
1,78,120,56
1,78,101,8
1,76,120,64
1,73,120,56
1,73,101,8
1,71,120,64
1,66,120,56
1,66,101,8
1,64,101,64
1,68,118,16
1,71,120,20
1,73,97,36
1,74,120,8
1,74,120,8
1,73,120,40
1,71,105,72
1,73,94,24
1,76,111,36
1,78,120,44
1,73,120,8
1,79,120,16
1,73,120,16
1,78,120,8
1,71,71,188
1,76,120,16
1,76,83,56
1,73,105,108
1,68,101,24
1,71,101,8
1,76,120,16
1,71,95,40
1,74,119,68
1,76,101,16
1,71,63,24
1,73,79,56
1,76,89,16
1,71,55,20
1,74,88,48
1,76,101,8
1,71,55,0
1,73,79,56
1,76,89,16
1,71,55,20
1,74,88,44
1,76,101,8
1,71,55,0
1,73,79,32
1,76,89,16
1,50,120,36
1,40,107,0
1,50,120,896
1,40,107,0
1,50,120,896
1,40,107,0
1,50,120,896
1,40,107,0
1,50,120,896
1,40,107,0
1,50,120,896
1,40,107,0
1,67,120,4856
1,61,69,16
1,64,78,20
1,61,94,116
1,66,120,8
1,64,120,88
1,61,64,8
1,66,34,0
1,61,99,196
1,67,120,16
1,61,120,144
1,67,120,16
1,64,106,60
1,61,107,108
1,66,119,16
1,61,94,24
1,64,120,16
1,67,114,656
1,66,120,120
1,64,99,52
1,66,112,284
1,66,120,104
1,64,111,48
1,61,83,52
1,64,79,12
1,69,120,692
1,63,33,16
1,62,35,56
1,68,60,88
1,63,111,8
1,68,115,12
1,66,120,208
1,61,113,252
1,67,120,16
1,61,83,184
1,66,109,16
1,64,120,44
1,61,88,28
1,64,120,40
1,59,120,32
1,64,120,8
1,64,47,8
1,59,101,8
1,64,65,8
1,59,89,16
1,64,23,0
1,64,58,16
1,59,103,20
1,64,76,20
1,59,78,16
1,59,103,20
1,64,77,16
1,59,101,32
1,64,71,0
1,59,91,16
1,59,83,4
1,64,40,8
1,59,97,20
1,64,66,8
1,59,105,8
1,64,63,16
1,59,94,20
1,64,54,16
1,59,101,8
1,64,61,24
1,59,79,20
1,64,59,8
1,59,91,8
1,64,67,8
1,59,81,8
1,64,52,24
1,59,79,12
1,64,70,12
1,59,67,24
1,59,69,16
1,64,25,0
1,64,43,20
1,59,77,12
1,64,59,12
1,71,120,408
1,71,120,176
1,71,120,16
1,67,101,28
1,72,77,0
1,64,65,24
1,52,113,12
1,40,105,8
1,59,101,108
1,76,120,16
1,71,58,16
1,71,87,48
1,59,71,0
1,73,36,0
1,71,96,48
1,76,120,16
1,71,90,48
1,73,53,8
1,76,120,16
1,71,99,400
1,73,63,0
1,73,83,516
1,79,120,32
1,72,49,36
1,78,120,8
1,76,120,544
1,76,120,8
1,71,89,16
1,71,115,4
1,73,120,40
1,76,120,36
1,73,120,8
1,79,120,16
1,73,120,8
1,78,120,8
1,72,101,32
1,71,120,116
1,76,120,16
1,76,120,48
1,68,120,64
1,73,120,16
1,71,120,8
1,76,120,16
1,71,115,64
1,73,106,0
1,70,120,116
1,75,120,16
1,71,120,0
1,76,103,0
1,71,81,56
1,73,115,16
1,73,120,152
1,72,63,28
1,73,120,80
1,71,120,28
1,73,99,28
1,71,120,72
1,73,120,8
1,79,120,8
1,78,120,136
1,73,94,8
1,76,120,76
1,78,120,4
1,73,45,8
1,72,24,8
1,76,120,48
1,71,96,16
1,68,114,364
1,71,120,16
1,71,120,0
1,68,81,8
1,67,85,32
1,70,109,16
1,67,59,0
1,70,89,16
1,71,115,16
1,68,100,16
1,70,96,24
1,67,76,0
1,71,111,4
1,68,90,4
1,71,111,16
1,68,60,8
1,67,59,0
1,70,102,8
1,71,102,40
1,68,57,8
1,68,57,12
1,71,94,8
1,64,60,0
1,68,63,8
1,71,85,8
1,71,79,12
1,68,59,8
1,67,27,116
1,70,53,4
1,71,77,0
1,68,53,0
1,68,47,4
1,71,66,8
1,70,54,0
1,67,39,8
1,68,47,0
1,71,61,16
1,71,34,4
1,68,41,8
1,67,43,84
1,70,59,0
1,64,65,4616
1,67,70,888
1,64,51,36
1,67,83,748
1,61,30,8
1,64,53,36
1,64,58,268
1,61,23,8
1,76,83,720
1,64,35,264
1,64,35,16
1,74,84,56
1,68,10,24
1,73,59,44
1,70,64,40
1,71,42,8
1,76,84,136
1,74,48,520
1,73,66,36
1,71,41,272
1,71,69,312
1,67,34,104
1,64,33,376
1,62,112,2968
1,68,111,8
1,71,113,16
1,76,120,16
2,40,70,2256
2,44,75,0
2,40,70,0
2,44,70,104
2,40,70,104
2,44,75,0
2,40,70,0
2,44,70,104
2,40,70,104
2,44,75,0
2,40,70,0
2,44,70,104
2,40,70,104
2,44,75,0
2,40,70,0
2,44,70,104
2,45,70,104
2,45,70,132
2,40,71,96
2,45,70,0
2,45,75,176
2,45,71,136
2,40,70,96
2,45,70,0
2,40,70,184
2,44,75,0
2,40,70,0
2,44,70,104
2,40,70,104
2,44,75,0
2,40,70,0
2,44,70,104
2,47,70,104
2,47,70,132
2,42,71,96
2,47,70,0
2,45,75,176
2,45,71,136
2,40,70,96
2,45,70,0
2,40,70,184
2,44,75,0
2,40,70,0
2,44,70,104
2,40,70,104
2,37,75,0
2,35,70,0
2,35,70,104
2,40,93,104
2,40,81,744
2,44,81,0
2,40,93,8
2,40,81,744
2,35,81,0
2,40,93,8
2,40,81,744
2,44,81,0
2,40,93,8
2,40,81,744
2,35,81,0
2,40,93,8
2,40,81,744
2,44,81,0
2,40,93,8
2,40,70,2768
2,44,70,80
2,40,70,80
2,44,70,80
2,45,70,80
2,45,70,132
2,40,71,96
2,45,70,0
2,45,75,176
2,45,71,136
2,40,70,96
2,45,70,0
2,40,70,184
2,44,75,104
2,47,70,104
2,44,70,104
2,40,70,104
2,44,75,104
2,47,70,104
2,44,70,104
2,47,70,104
2,47,70,132
2,42,71,96
2,47,70,0
2,45,75,176
2,45,71,136
2,40,70,96
2,45,70,0
2,40,70,184
2,44,75,104
2,47,70,104
2,44,70,104
2,40,70,104
2,37,75,104
2,35,70,104
2,35,70,104
2,40,70,104
2,44,75,104
2,47,70,104
2,44,70,104
2,40,70,104
2,44,75,104
2,47,70,104
2,44,70,104
2,40,70,104
2,44,75,104
2,47,70,104
2,44,70,104
2,40,70,104
2,37,75,104
2,35,70,104
2,40,70,104
2,45,70,104
2,45,70,132
2,40,71,96
2,45,70,0
2,45,75,176
2,45,71,136
2,40,70,96
2,45,70,0
2,40,70,184
2,44,75,104
2,47,70,104
2,44,70,104
2,40,70,104
2,44,75,104
2,47,70,104
2,44,70,104
2,47,70,104
2,47,70,132
2,42,71,96
2,47,70,0
2,45,75,176
2,45,71,136
2,40,70,96
2,45,70,0
2,40,70,184
2,44,75,104
2,47,70,104
2,44,70,104
2,40,70,104
2,37,75,104
2,35,70,104
2,35,70,104
2,40,93,104
2,40,81,744
2,44,81,0
2,40,93,8
2,40,81,744
2,35,81,0
2,40,93,8
2,40,81,744
2,44,81,0
2,40,93,8
2,40,81,744
2,35,81,0
2,40,93,8
2,40,81,744
2,44,81,0
2,40,93,8
2,40,70,2768
2,44,70,80
2,40,70,80
2,44,70,80
2,45,70,80
2,45,70,132
2,40,71,96
2,45,70,0
2,45,75,176
2,45,71,136
2,40,70,96
2,45,70,0
2,40,70,184
2,44,75,104
2,47,70,104
2,44,70,104
2,40,70,104
2,44,75,104
2,47,70,104
2,44,70,104
2,47,70,104
2,47,70,132
2,42,71,96
2,47,70,0
2,45,75,176
2,45,71,136
2,40,70,96
2,45,70,0
2,40,70,184
2,44,75,104
2,47,70,104
2,44,70,104
2,40,70,104
2,37,75,104
2,35,70,104
2,35,70,104
2,40,70,104
2,44,75,104
2,47,70,104
2,44,70,104
2,40,70,104
2,44,75,104
2,47,70,104
2,44,70,104
2,40,70,104
2,44,75,104
2,47,70,104
2,44,70,104
2,40,70,104
2,37,75,104
2,35,70,104
2,40,70,104
2,45,70,104
2,45,70,132
2,40,71,96
2,45,70,0
2,45,75,176
2,45,71,136
2,40,70,96
2,45,70,0
2,40,70,184
2,44,75,104
2,47,70,104
2,44,70,104
2,40,70,104
2,44,75,104
2,47,70,104
2,44,70,104
2,47,70,104
2,47,70,132
2,42,71,96
2,47,70,0
2,45,75,176
2,45,71,136
2,40,70,96
2,45,70,0
2,40,70,184
2,44,75,104
2,47,70,104
2,44,70,104
2,40,70,104
2,37,75,104
2,35,70,104
2,35,70,104
2,40,70,104
2,44,75,104
2,47,70,104
2,44,70,104
2,40,70,104
2,44,75,104
2,47,70,104
2,44,70,104
2,40,70,104
2,44,75,104
2,47,70,104
2,44,70,104
2,40,70,104
2,37,75,104
2,35,70,104
2,40,70,104
2,45,70,104
2,45,70,132
2,40,71,96
2,45,70,0
2,45,75,176
2,45,71,136
2,40,70,96
2,45,70,0
2,40,70,184
2,44,75,104
2,47,70,104
2,44,70,104
2,40,70,104
2,44,75,104
2,47,70,104
2,44,70,104
2,47,70,104
2,47,70,132
2,42,71,96
2,47,70,0
2,45,75,176
2,45,71,136
2,40,70,96
2,45,70,0
2,40,70,184
2,44,75,104
2,47,70,104
2,44,70,104
2,40,70,104
2,37,75,8
2,35,70,96
2,28,101,72
3,56,53,2632
3,59,48,8
3,64,49,8
3,68,52,8
3,56,61,228
3,59,55,8
3,64,58,8
3,68,64,8
3,56,53,240
3,59,48,8
3,64,49,8
3,68,52,8
3,56,61,224
3,59,55,8
3,64,58,8
3,68,64,8
3,56,53,240
3,59,48,8
3,64,49,8
3,68,52,8
3,56,61,228
3,59,55,8
3,64,58,8
3,68,64,8
3,56,53,240
3,59,48,8
3,64,49,8
3,68,52,8
3,56,61,224
3,59,55,8
3,64,58,8
3,68,64,8
3,56,53,240
3,59,48,8
3,64,49,8
3,68,52,8
3,56,61,228
3,59,55,8
3,64,58,8
3,68,64,8
3,56,53,240
3,59,48,8
3,64,49,8
3,68,52,8
3,56,61,224
3,59,55,8
3,64,58,8
3,68,64,8
3,56,53,240
3,59,48,8
3,64,49,8
3,68,52,8
3,56,61,228
3,59,55,8
3,64,58,8
3,68,64,8
3,56,53,240
3,59,48,8
3,64,49,8
3,68,52,8
3,56,61,224
3,59,55,8
3,64,58,8
3,68,64,8
3,55,54,240
3,61,40,8
3,64,55,8
3,69,53,8
3,55,51,216
3,61,54,8
3,64,61,8
3,69,69,8
3,55,33,220
3,61,60,4
3,64,53,8
3,69,65,8
3,55,28,228
3,61,54,8
3,64,55,4
3,69,83,8
3,55,54,204
3,61,40,8
3,64,55,8
3,69,53,8
3,55,51,216
3,61,54,8
3,64,61,8
3,69,69,8
3,55,33,220
3,61,60,4
3,64,53,8
3,69,65,8
3,55,28,228
3,61,54,8
3,64,55,4
3,69,83,8
3,56,53,204
3,59,48,8
3,64,49,8
3,68,52,8
3,56,61,228
3,59,55,8
3,64,58,8
3,68,64,8
3,56,53,240
3,59,48,8
3,64,49,8
3,68,52,8
3,56,61,224
3,59,55,8
3,64,58,8
3,68,64,8
3,56,53,240
3,59,48,8
3,64,49,8
3,68,52,8
3,56,61,228
3,59,55,8
3,64,58,8
3,68,64,8
3,56,53,240
3,59,48,8
3,64,49,8
3,68,52,8
3,56,61,224
3,59,55,8
3,64,58,8
3,68,64,8
3,57,54,240
3,63,40,8
3,66,55,8
3,71,53,8
3,57,51,216
3,63,54,8
3,66,61,8
3,71,69,8
3,57,33,220
3,63,60,4
3,66,59,8
3,71,85,8
3,57,28,228
3,63,54,8
3,66,55,4
3,71,83,8
3,55,54,204
3,61,40,8
3,64,55,8
3,69,53,8
3,55,51,216
3,61,54,8
3,64,61,8
3,69,69,8
3,55,33,220
3,61,60,4
3,64,53,8
3,69,65,8
3,55,28,228
3,61,54,8
3,64,55,4
3,69,83,8
3,56,53,204
3,59,48,8
3,64,49,8
3,68,52,8
3,56,61,228
3,59,55,8
3,64,58,8
3,68,64,8
3,56,53,240
3,59,48,8
3,64,49,8
3,68,52,8
3,56,61,224
3,59,55,8
3,64,58,8
3,68,64,8
3,56,53,240
3,59,48,8
3,64,49,8
3,68,52,8
3,56,61,228
3,59,55,8
3,64,58,8
3,68,64,8
3,56,53,240
3,59,48,8
3,64,49,8
3,68,52,8
3,56,61,224
3,59,55,8
3,64,58,8
3,68,64,8
3,55,54,12528
3,61,40,8
3,64,55,8
3,69,53,8
3,55,51,216
3,61,54,8
3,64,61,8
3,69,69,8
3,55,33,220
3,61,60,4
3,64,53,8
3,69,65,8
3,55,28,228
3,61,54,8
3,64,55,4
3,69,83,8
3,55,54,204
3,61,40,8
3,64,55,8
3,69,53,8
3,55,51,216
3,61,54,8
3,64,61,8
3,69,69,8
3,55,33,220
3,61,60,4
3,64,53,8
3,69,65,8
3,55,28,228
3,61,54,8
3,64,55,4
3,69,83,8
3,56,53,204
3,59,48,8
3,64,49,8
3,68,52,8
3,56,61,228
3,59,55,8
3,64,58,8
3,68,64,8
3,56,53,240
3,59,48,8
3,64,49,8
3,68,52,8
3,56,61,224
3,59,55,8
3,64,58,8
3,68,64,8
3,56,53,240
3,59,48,8
3,64,49,8
3,68,52,8
3,56,61,228
3,59,55,8
3,64,58,8
3,68,64,8
3,56,53,240
3,59,48,8
3,64,49,8
3,68,52,8
3,56,61,224
3,59,55,8
3,64,58,8
3,68,64,8
3,57,54,240
3,63,40,8
3,66,55,8
3,71,53,8
3,57,51,216
3,63,54,8
3,66,61,8
3,71,69,8
3,57,33,220
3,63,60,4
3,66,59,8
3,71,85,8
3,57,28,228
3,63,54,8
3,66,55,4
3,71,83,8
3,55,54,204
3,61,40,8
3,64,55,8
3,69,53,8
3,55,51,216
3,61,54,8
3,64,61,8
3,69,69,8
3,55,33,220
3,61,60,4
3,64,53,8
3,69,65,8
3,55,28,228
3,61,54,8
3,64,55,4
3,69,83,8
3,56,53,204
3,59,48,8
3,64,49,8
3,68,52,8
3,56,61,228
3,59,55,8
3,64,58,8
3,68,64,8
3,56,53,240
3,59,48,8
3,64,49,8
3,68,52,8
3,56,61,224
3,59,55,8
3,64,58,8
3,68,64,8
3,56,53,240
3,59,48,8
3,64,49,8
3,68,52,8
3,56,61,228
3,59,55,8
3,64,58,8
3,68,64,8
3,56,53,240
3,59,48,8
3,64,49,8
3,68,52,8
3,56,61,224
3,59,55,8
3,64,58,8
3,68,64,8
