track,note,velocity,time
0,68,99,1404
0,68,73,4
0,49,104,20
0,36,108,0
0,29,108,0
0,41,86,4
0,48,72,0
0,68,106,0
0,48,89,0
0,41,91,4
0,68,85,0
0,69,99,0
0,69,62,8
0,65,99,0
0,65,67,4
0,42,125,0
0,62,99,16
0,46,114,4
0,62,64,0
0,65,100,24
0,46,127,4
0,65,78,0
0,67,62,0
0,67,99,0
0,65,99,8
0,65,76,0
0,42,127,8
0,62,63,4
0,62,99,0
0,46,111,8
0,65,78,20
0,65,99,0
0,46,127,0
0,65,78,60
0,65,99,0
0,42,125,8
0,68,80,232
0,68,99,4
0,46,119,0
0,46,119,0
0,28,126,152
0,40,75,4
0,47,86,0
0,40,86,0
0,47,98,0
0,49,127,0
0,36,127,4
0,68,100,168
0,68,77,0
0,41,80,4
0,48,72,0
0,68,87,0
0,29,110,4
0,36,127,0
0,57,126,0
0,41,96,4
0,48,93,0
0,69,67,0
0,69,99,0
0,65,100,20
0,65,76,4
0,42,127,4
0,62,99,16
0,62,64,4
0,46,96,4
0,65,80,0
0,46,127,0
0,65,102,0
0,67,65,8
0,67,99,8
0,65,83,12
0,65,99,0
0,42,127,8
0,62,99,0
0,62,53,0
0,46,125,8
0,65,81,4
0,65,99,0
0,46,127,0
0,67,99,52
0,67,73,4
0,42,125,4
0,65,99,8
0,46,119,4
0,65,78,0
0,46,122,112
0,28,127,156
0,40,74,0
0,47,81,0
0,47,100,4
0,40,87,0
0,49,127,4
0,36,127,0
0,68,82,120
0,68,104,0
0,29,110,0
0,41,81,0
0,48,81,0
0,68,88,0
0,41,95,0
0,48,93,4
0,57,127,0
0,36,127,0
0,69,62,8
0,69,99,0
0,65,99,20
0,65,78,0
0,42,127,0
0,62,70,0
0,62,99,0
0,46,121,0
0,65,78,24
0,65,103,0
0,46,127,0
0,67,99,236
0,67,69,0
0,65,73,20
0,65,99,4
0,42,127,0
0,62,67,0
0,46,127,0
0,62,99,0
0,65,99,32
0,46,127,0
0,65,78,4
0,65,99,76
0,65,79,4
0,42,125,4
0,68,99,232
0,68,87,0
0,46,127,0
0,46,125,8
0,40,80,160
0,47,86,0
0,47,103,0
0,40,86,0
0,36,127,0
0,28,120,0
0,49,127,0
0,68,80,88
0,68,101,0
0,68,90,52
0,29,122,0
0,41,82,0
0,48,80,0
0,48,98,0
0,36,126,0
0,57,123,0
0,41,98,0
0,69,71,12
0,69,99,0
0,65,75,8
0,42,126,0
0,65,99,0
0,62,62,12
0,62,99,0
0,65,83,4
0,65,102,0
0,42,127,0
0,65,67,44
0,65,99,36
0,65,75,0
0,42,127,0
0,65,99,40
0,65,58,0
0,38,72,4
0,38,80,8
0,67,63,32
0,68,105,8
0,68,79,0
0,38,113,0
0,84,96,12
0,89,94,0
0,38,96,44
0,84,77,8
0,89,75,4
0,84,63,16
0,38,100,0
0,89,68,4
0,89,88,60
0,84,90,0
0,67,64,0
0,68,109,8
0,38,111,0
0,68,80,8
0,84,76,40
0,89,76,8
0,38,113,8
0,84,76,8
0,89,73,8
0,65,99,16
0,38,113,0
0,65,76,8
0,84,96,76
0,89,85,4
0,38,127,8
0,84,84,60
0,38,120,4
0,89,74,4
0,84,83,60
0,89,73,4
0,38,127,0
0,65,99,0
0,38,127,24
0,84,102,4
0,68,110,0
0,89,96,4
0,65,81,0
0,84,84,56
0,38,127,4
0,89,75,4
0,38,127,64
0,84,79,4
0,89,58,8
0,65,105,20
0,36,127,8
0,34,104,0
0,34,71,0
0,41,70,0
0,49,107,8
0,89,98,0
0,62,86,0
0,82,96,0
0,68,73,24
0,62,53,20
0,89,80,8
0,82,63,4
0,34,66,40
0,53,95,0
0,62,92,0
0,34,111,0
0,68,74,0
0,58,97,0
0,82,80,4
0,62,62,4
0,89,84,0
0,51,127,4
0,38,98,0
0,37,105,4
0,68,72,0
0,43,68,4
0,37,72,4
0,62,59,4
0,82,100,4
0,89,104,0
0,68,76,40
0,82,80,8
0,89,83,4
0,62,50,0
0,51,125,0
0,68,76,0
0,38,89,4
0,38,66,4
0,82,83,0
0,89,84,4
0,62,62,0
0,68,71,12
0,34,87,0
0,53,97,4
0,58,100,0
0,62,89,0
0,36,120,0
0,41,69,4
0,51,127,0
0,34,72,0
0,62,56,0
0,82,100,4
0,89,102,4
0,68,76,8
0,82,74,0
0,89,79,0
0,62,49,4
0,68,73,0
0,62,57,32
0,51,115,4
0,34,107,0
0,34,66,4
0,82,83,0
0,89,87,0
0,68,78,8
0,62,63,60
0,38,120,8
0,51,127,0
0,37,115,0
0,43,68,4
0,58,90,0
0,37,74,0
0,55,83,0
0,62,88,0
0,68,80,4
0,82,101,0
0,89,106,0
0,62,65,40
0,68,75,20
0,82,84,0
0,89,85,8
0,62,57,40
0,51,127,0
0,38,100,4
0,38,67,4
0,82,77,0
0,68,81,0
0,53,102,0
0,89,80,4
0,62,70,0
0,36,123,20
0,34,107,0
0,51,127,0
0,34,71,0
0,41,70,0
0,82,100,4
0,89,102,0
0,82,79,20
0,89,83,4
0,51,119,36
0,34,104,4
0,89,87,0
0,34,66,0
0,68,114,0
0,82,74,4
0,53,93,0
0,58,94,0
0,62,92,0
0,38,126,52
0,51,127,0
0,37,119,0
0,43,68,0
0,82,103,0
0,37,72,0
0,65,99,0
0,89,103,0
0,82,78,52
0,89,81,0
0,51,127,12
0,68,115,4
0,38,85,0
0,38,66,4
0,89,98,0
0,82,91,0
0,36,120,16
0,34,119,0
0,53,96,0
0,58,93,0
0,62,97,0
0,51,127,0
0,41,69,4
0,34,72,0
0,89,101,8
0,82,103,0
0,82,79,28
0,89,84,4
0,51,125,36
0,34,104,0
0,82,87,0
0,34,66,4
0,89,92,0
0,65,100,0
0,38,108,64
0,51,127,0
0,68,83,4
0,82,93,0
0,43,68,0
0,37,122,0
0,37,74,0
0,68,118,0
0,89,98,4
0,58,95,0
0,53,87,0
0,62,90,0
0,82,87,76
0,89,92,4
0,60,76,16
0,51,127,0
0,57,76,4
0,38,86,4
0,38,67,0
0,82,96,0
0,89,96,4
0,56,67,28
0,65,113,0
0,49,107,0
0,36,117,4
0,29,117,0
0,57,64,0
0,60,74,0
0,62,80,0
0,65,90,0
0,41,71,0
0,48,70,0
0,89,87,4
0,84,93,0
0,84,84,16
0,89,80,0
0,51,122,36
0,84,81,4
0,89,72,0
0,41,66,0
0,29,111,0
0,57,92,0
0,53,89,0
0,60,97,0
0,32,107,52
0,50,68,0
0,84,89,0
0,51,127,0
0,38,120,0
0,44,72,4
0,89,91,0
0,84,72,52
0,89,71,8
0,33,96,12
0,84,81,0
0,89,79,4
0,51,127,0
0,45,66,4
0,29,113,68
0,36,126,4
0,51,127,0
0,48,69,4
0,53,92,0
0,57,91,0
0,60,100,0
0,41,72,0
0,89,85,0
0,84,92,0
0,89,72,28
0,84,77,4
0,89,68,28
0,84,75,4
0,51,127,0
0,29,117,4
0,41,66,4
0,89,91,76
0,38,127,0
0,84,93,0
0,51,127,4
0,50,68,4
0,44,74,0
0,32,111,0
0,58,94,4
0,53,85,0
0,62,91,0
0,89,73,60
0,84,79,4
0,84,77,68
0,89,62,4
0,60,84,0
0,57,81,0
0,51,127,4
0,33,100,0
0,45,67,0
0,89,93,56
0,36,127,0
0,29,117,0
0,84,99,0
0,51,127,0
0,41,71,0
0,48,70,0
0,84,74,60
0,89,60,4
0,51,125,36
0,29,113,4
0,41,66,0
0,84,76,4
0,89,77,0
0,57,89,0
0,53,75,0
0,60,92,0
0,32,107,48
0,51,127,0
0,38,127,0
0,89,89,0
0,84,96,0
0,50,68,4
0,44,72,4
0,84,78,64
0,89,59,4
0,84,81,68
0,51,127,0
0,89,71,4
0,33,103,0
0,45,66,4
0,53,58,4
0,84,99,76
0,89,89,0
0,29,123,0
0,48,69,4
0,51,127,0
0,41,72,0
0,57,87,0
0,36,127,0
0,60,90,0
0,53,81,4
0,84,82,48
0,89,59,0
0,84,92,36
0,29,117,0
0,41,66,4
0,89,70,0
0,51,127,0
0,65,99,4
0,68,80,44
0,50,68,8
0,44,74,0
0,68,114,0
0,32,111,4
0,53,90,0
0,60,97,0
0,57,79,0
0,51,127,0
0,38,127,0
0,84,96,8
0,89,92,0
0,84,93,16
0,89,76,12
0,53,70,4
0,65,65,4
0,33,106,0
0,45,67,4
0,51,125,0
0,65,99,4
0,89,76,0
0,84,77,0
0,68,79,4
0,36,127,4
0,36,71,0
0,43,70,0
0,57,120,0
0,68,114,4
0,36,96,0
0,84,83,0
0,88,85,0
0,84,74,20
0,88,66,8
0,69,63,4
0,51,119,0
0,84,77,4
0,55,98,0
0,60,98,0
0,64,96,0
0,36,91,0
0,36,66,0
0,88,79,0
0,69,99,0
0,65,78,16
0,39,104,8
0,45,68,0
0,65,113,0
0,51,127,0
0,84,101,0
0,38,126,0
0,39,72,4
0,88,94,0
0,88,71,52
0,84,73,4
0,62,66,8
0,40,98,4
0,62,99,0
0,51,127,0
0,40,66,0
0,55,62,0
0,84,91,4
0,88,79,0
0,36,98,24
0,65,77,0
0,43,69,4
0,51,127,0
0,36,72,0
0,36,127,0
0,60,99,0
0,64,99,0
0,55,90,0
0,65,111,0
0,84,86,4
0,88,84,4
0,88,69,24
0,84,76,0
0,51,111,12
0,36,96,4
0,36,66,4
0,84,88,0
0,88,80,0
0,38,127,48
0,51,127,0
0,39,111,0
0,45,68,4
0,65,86,0
0,39,74,0
0,55,93,0
0,60,92,0
0,64,84,4
0,88,89,0
0,84,96,0
0,65,109,0
0,84,83,56
0,88,77,4
0,61,60,8
0,84,92,0
0,88,82,0
0,51,127,0
0,40,89,4
0,40,67,4
0,62,78,0
0,65,70,0
0,68,82,0
0,68,114,4
0,89,98,0
0,36,127,4
0,49,127,0
0,34,89,0
0,82,92,0
0,34,71,0
0,41,70,0
0,82,75,24
0,89,79,4
0,82,85,24
0,89,88,12
0,53,91,4
0,51,125,0
0,58,91,0
0,62,96,0
0,34,89,0
0,34,66,0
0,89,98,56
0,82,98,0
0,38,108,0
0,51,127,4
0,37,100,0
0,43,68,4
0,37,72,4
0,82,83,60
0,89,76,4
0,89,97,16
0,82,88,4
0,51,127,4
0,38,77,0
0,53,70,4
0,38,66,4
0,82,100,76
0,89,104,4
0,51,127,0
0,34,107,4
0,36,127,0
0,41,69,4
0,34,72,0
0,58,104,0
0,53,90,0
0,62,95,0
0,82,87,8
0,89,84,8
0,82,88,20
0,51,125,8
0,89,92,0
0,34,92,4
0,34,66,8
0,82,100,72
0,89,98,4
0,38,127,0
0,51,127,4
0,37,111,0
0,65,106,0
0,43,68,4
0,37,74,0
0,65,79,4
0,53,88,0
0,58,95,0
0,62,98,0
0,82,84,76
0,89,88,0
0,51,115,48
0,65,72,0
0,65,100,4
0,82,85,0
0,89,85,0
0,38,71,4
0,38,67,0
0,57,82,0
0,60,68,0
0,68,84,8
0,68,112,4
0,57,126,0
0,36,127,0
0,29,126,0
0,41,80,4
0,48,73,0
0,84,93,0
0,89,83,4
0,84,87,36
0,89,75,0
0,69,61,12
0,29,103,4
0,51,115,0
0,57,96,8
0,60,103,0
0,69,100,0
0,41,74,0
0,53,90,0
0,84,93,0
0,89,79,0
0,65,73,32
0,32,96,4
0,38,127,0
0,51,127,4
0,44,73,4
0,50,78,0
0,65,99,0
0,89,91,4
0,84,101,0
0,84,88,68
0,89,46,8
0,62,67,4
0,33,100,0
0,51,122,4
0,62,99,4
0,45,68,0
0,84,78,0
0,53,73,4
0,89,67,4
0,56,63,16
0,65,86,4
0,89,97,0
0,82,92,0
0,36,127,4
0,34,111,0
0,51,127,4
0,53,89,0
0,58,99,0
0,62,100,0
0,46,85,0
0,65,111,0
0,82,72,40
0,89,72,4
0,56,63,36
0,65,84,0
0,51,127,4
0,34,127,8
0,65,111,0
0,53,98,4
0,58,100,0
0,62,102,0
0,46,85,0
0,82,97,0
0,89,100,0
0,51,127,44
0,38,127,4
0,82,84,4
0,89,71,0
0,82,70,48
0,89,70,4
0,84,102,0
0,29,123,4
0,49,127,0
0,36,127,4
0,57,69,0
0,60,82,0
0,62,82,0
0,65,88,0
0,65,116,0
0,53,86,0
0,57,85,0
0,60,93,0
0,41,82,4
0,36,71,216
0,48,76,0
0,38,127,0
0,55,88,4
0,36,126,4
0,60,93,0
0,48,97,0
0,38,127,8
0,36,74,4
0,48,79,0
0,48,95,0
0,55,83,0
0,36,126,0
0,60,98,0
0,38,127,24
0,48,86,0
0,60,93,4
0,55,78,0
0,36,127,0
0,36,74,4
0,48,77,0
0,38,127,16
0,28,127,240
0,40,99,4
0,36,127,0
0,47,106,0
0,40,93,4
0,47,93,0
0,49,127,0
0,51,107,0
0,68,101,360
0,68,82,4
0,36,127,4
0,48,100,0
0,57,127,0
0,41,97,4
0,68,109,0
0,29,114,4
0,41,86,0
0,48,72,0
0,68,85,0
0,69,99,40
0,69,62,8
0,65,106,116
0,65,67,4
0,42,127,0
0,62,99,4
0,62,64,0
0,46,127,4
0,65,101,44
0,65,78,0
0,46,127,0
0,67,62,0
0,67,99,4
0,65,76,32
0,65,107,4
0,42,127,4
0,62,63,0
0,62,99,4
0,46,122,4
0,65,78,60
0,46,127,4
0,65,109,0
0,65,78,60
0,65,103,0
0,42,127,4
0,68,80,236
0,68,100,4
0,46,125,0
0,46,127,12
0,28,127,156
0,40,75,0
0,47,86,0
0,40,87,0
0,47,103,0
0,49,127,0
0,36,127,4
0,68,77,168
0,68,110,0
0,41,80,4
0,48,72,0
0,68,87,0
0,57,126,4
0,36,127,0
0,48,97,4
0,29,119,0
0,41,97,0
0,69,67,4
0,69,99,8
0,42,127,4
0,65,76,0
0,65,103,0
0,62,64,8
0,46,124,0
0,62,99,4
0,46,127,0
0,65,80,0
0,65,107,8
0,67,65,8
0,67,99,12
0,65,83,0
0,65,104,8
0,42,127,0
0,62,53,0
0,62,99,0
0,46,125,4
0,46,127,56
0,65,81,4
0,65,106,0
0,67,73,56
0,42,127,0
0,67,102,4
0,46,122,0
0,65,100,0
0,65,78,0
0,46,125,112
0,49,127,184
0,40,74,0
0,47,81,0
0,36,127,0
0,40,91,4
0,47,102,0
0,28,123,0
0,68,113,120
0,68,82,0
0,36,127,28
0,57,126,4
0,29,110,0
0,41,81,0
0,48,81,0
0,68,88,0
0,48,96,4
0,41,95,0
0,69,62,8
0,69,99,4
0,65,78,0
0,65,107,4
0,42,127,0
0,62,70,0
0,62,99,4
0,46,127,0
0,65,78,16
0,46,127,4
0,65,104,0
0,67,69,236
0,67,99,8
0,65,73,16
0,42,127,4
0,65,106,0
0,62,67,0
0,46,104,0
0,62,99,0
0,46,127,60
0,65,78,8
0,65,107,4
0,65,79,80
0,42,127,0
0,65,101,0
0,46,111,8
0,68,87,0
0,68,107,0
0,46,127,4
0,40,80,168
0,47,86,0
0,36,127,0
0,49,127,0
0,28,115,0
0,40,89,0
0,47,106,0
0,68,80,88
0,68,101,8
0,68,90,52
0,29,117,0
0,57,120,0
0,41,82,0
0,48,80,0
0,48,98,0
0,36,127,4
0,41,99,0
0,69,71,12
0,69,99,0
0,65,75,120
0,65,104,0
0,42,127,4
0,62,99,12
0,62,62,0
0,65,83,40
0,65,107,0
0,42,127,4
0,65,67,44
0,65,104,36
0,65,75,0
0,42,127,4
0,65,99,36
0,65,58,4
0,38,76,4
0,38,81,0
0,67,63,32
0,68,115,4
0,68,79,0
0,38,127,0
0,108,114,12
0,107,91,12
0,38,106,0
0,105,75,8
0,103,71,0
0,101,84,0
0,100,83,0
0,38,111,4
0,98,87,0
0,96,87,0
0,95,86,0
0,67,64,16
0,68,115,4
0,38,113,4
0,93,81,0
0,68,80,0
0,91,83,0
0,89,86,24
0,88,77,32
0,38,111,16
0,86,77,0
0,84,78,36
0,83,84,8
0,65,108,16
0,81,82,8
0,38,113,0
0,65,76,4
0,79,91,16
0,77,94,24
0,76,96,28
0,38,113,16
0,74,108,4
0,72,106,12
0,71,111,20
0,69,103,20
0,67,101,20
0,38,120,8
