track,note,velocity,time
3,60,100,24555
3,60,0,1438
3,60,100,15842
3,60,0,1438
3,60,100,13922
3,60,0,1438
3,60,100,42722
3,60,0,1438
3,36,119,39062
3,36,0,478
3,31,119,2
3,31,0,238
3,24,119,2
3,24,0,478
3,43,117,722
3,43,0,478
3,38,119,2
3,38,0,238
3,31,117,2
3,31,0,478
3,48,117,722
3,48,0,478
3,43,117,2
3,43,0,238
3,36,117,2
3,36,0,478
3,55,119,722
3,55,0,478
3,48,119,2
3,48,0,238
3,43,117,2
3,43,0,478
3,60,100,17822
3,60,0,1438
4,28,71,2983
4,28,0,226
4,28,71,14
4,28,0,226
4,40,71,14
4,40,0,226
4,33,72,134
4,33,0,226
4,33,73,14
4,33,0,226
4,35,73,14
4,35,0,237
4,35,73,3
4,35,0,106
4,38,73,14
4,38,0,146
4,28,71,94
4,28,0,226
4,28,71,14
4,28,0,226
4,40,71,14
4,40,0,226
4,33,72,134
4,33,0,226
4,33,73,14
4,33,0,226
4,35,73,14
4,35,0,237
4,35,73,3
4,35,0,106
4,38,73,14
4,38,0,146
4,28,71,94
4,28,0,226
4,28,71,14
4,28,0,226
4,40,71,14
4,40,0,226
4,33,72,134
4,33,0,226
4,33,73,14
4,33,0,226
4,35,73,14
4,35,0,237
4,35,73,3
4,35,0,106
4,38,73,14
4,38,0,146
4,28,71,94
4,28,0,226
4,28,71,14
4,28,0,226
4,40,71,14
4,40,0,226
4,33,72,134
4,33,0,226
4,33,73,14
4,33,0,226
4,35,73,14
4,35,0,237
4,35,73,3
4,35,0,106
4,38,73,14
4,38,0,146
4,28,71,94
4,28,0,226
4,28,71,14
4,28,0,226
4,40,71,14
4,40,0,226
4,33,72,134
4,33,0,226
4,33,73,14
4,33,0,226
4,35,73,14
4,35,0,237
4,35,73,3
4,35,0,106
4,38,73,14
4,38,0,146
4,28,71,94
4,28,0,226
4,28,71,14
4,28,0,226
4,40,71,14
4,40,0,226
4,33,72,134
4,33,0,226
4,33,73,14
4,33,0,226
4,35,73,14
4,35,0,237
4,35,73,3
4,35,0,106
4,38,73,14
4,38,0,146
4,28,71,94
4,28,0,226
4,28,71,14
4,28,0,226
4,40,71,14
4,40,0,226
4,33,72,134
4,33,0,226
4,33,73,14
4,33,0,226
4,35,73,14
4,35,0,237
4,35,73,3
4,35,0,106
4,38,73,14
4,38,0,146
4,28,71,94
4,28,0,226
4,28,71,14
4,28,0,226
4,40,71,14
4,40,0,226
4,33,72,134
4,33,0,226
4,33,73,14
4,33,0,226
4,35,73,14
4,35,0,237
4,35,73,3
4,35,0,106
4,38,73,14
4,38,0,146
4,28,111,94
4,28,0,238
4,28,113,2
4,28,0,238
4,40,112,2
4,40,0,296
4,33,111,64
4,33,0,158
4,33,113,82
4,33,0,238
4,35,113,2
4,35,0,238
4,38,114,2
4,38,0,118
4,40,113,2
4,40,0,238
4,28,111,2
4,28,0,238
4,28,113,2
4,28,0,238
4,40,112,2
4,40,0,296
4,33,111,64
4,33,0,158
4,33,113,82
4,33,0,238
4,35,113,2
4,35,0,238
4,38,114,2
4,38,0,118
4,40,113,2
4,40,0,238
4,28,111,2
4,28,0,238
4,28,113,2
4,28,0,238
4,40,112,2
4,40,0,296
4,33,111,64
4,33,0,158
4,33,113,82
4,33,0,238
4,35,113,2
4,35,0,238
4,38,114,2
4,38,0,118
4,40,113,2
4,40,0,238
4,28,111,2
4,28,0,238
4,28,113,2
4,28,0,238
4,40,112,2
4,40,0,296
4,33,111,64
4,33,0,158
4,33,113,82
4,33,0,238
4,35,113,2
4,35,0,238
4,38,114,2
4,38,0,118
4,40,113,2
4,40,0,238
4,28,111,2
4,28,0,238
4,28,113,2
4,28,0,238
4,40,112,2
4,40,0,296
4,33,111,64
4,33,0,158
4,33,113,82
4,33,0,238
4,35,113,2
4,35,0,238
4,38,114,2
4,38,0,118
4,40,113,2
4,40,0,238
4,28,111,2
4,28,0,238
4,28,113,2
4,28,0,238
4,40,112,2
4,40,0,296
4,33,111,64
4,33,0,158
4,33,113,82
4,33,0,238
4,35,113,2
4,35,0,238
4,38,114,2
4,38,0,118
4,40,113,2
4,40,0,238
4,28,111,2
4,28,0,238
4,28,113,2
4,28,0,238
4,40,112,2
4,40,0,296
4,33,111,64
4,33,0,158
4,33,113,82
4,33,0,238
4,35,113,2
4,35,0,238
4,38,114,2
4,38,0,118
4,40,113,2
4,40,0,238
4,28,111,2
4,28,0,238
4,28,113,2
4,28,0,238
4,40,112,2
4,40,0,296
4,33,111,64
4,33,0,158
4,33,113,82
4,33,0,238
4,35,113,2
4,35,0,238
4,38,114,2
4,38,0,118
4,40,113,2
4,40,0,238
4,28,116,2
4,28,0,238
4,28,117,2
4,28,0,158
4,28,113,82
4,28,0,343
4,31,116,17
4,31,0,238
4,31,115,2
4,31,0,118
4,31,116,122
4,31,0,478
4,33,116,122
4,33,0,238
4,33,119,2
4,33,0,238
4,33,117,2
4,33,0,238
4,33,117,2
4,33,0,238
4,38,119,2
4,38,0,118
4,35,117,2
4,35,0,118
4,38,116,2
4,38,0,158
4,38,116,82
4,38,0,238
4,35,116,2
4,35,0,78
4,28,117,162
4,28,0,238
4,28,113,2
4,28,0,158
4,28,117,82
4,28,0,340
4,35,116,20
4,35,0,238
4,35,117,2
4,35,0,278
4,35,119,82
4,35,0,238
4,35,119,2
4,35,0,160
4,28,111,80
4,28,0,238
4,28,113,2
4,28,0,238
4,40,112,2
4,40,0,296
4,33,111,64
4,33,0,158
4,33,113,82
4,33,0,238
4,35,113,2
4,35,0,238
4,38,114,2
4,38,0,118
4,40,113,2
4,40,0,238
4,28,111,2
4,28,0,238
4,28,113,2
4,28,0,238
4,40,112,2
4,40,0,296
4,33,111,64
4,33,0,158
4,33,113,82
4,33,0,238
4,35,113,2
4,35,0,238
4,38,114,2
4,38,0,118
4,40,113,2
4,40,0,238
4,28,111,2
4,28,0,238
4,28,113,2
4,28,0,238
4,40,112,2
4,40,0,296
4,33,111,64
4,33,0,158
4,33,113,82
4,33,0,238
4,35,113,2
4,35,0,238
4,38,114,2
4,38,0,118
4,40,113,2
4,40,0,238
4,28,111,2
4,28,0,238
4,28,113,2
4,28,0,238
4,40,112,2
4,40,0,296
4,33,111,64
4,33,0,158
4,33,113,82
4,33,0,238
4,35,113,2
4,35,0,238
4,38,114,2
4,38,0,118
4,40,113,2
4,40,0,238
4,28,111,2
4,28,0,238
4,28,113,2
4,28,0,238
4,40,112,2
4,40,0,296
4,33,111,64
4,33,0,158
4,33,113,82
4,33,0,238
4,35,113,2
4,35,0,238
4,38,114,2
4,38,0,118
4,40,113,2
4,40,0,238
4,28,111,2
4,28,0,238
4,28,113,2
4,28,0,238
4,40,112,2
4,40,0,296
4,33,111,64
4,33,0,158
4,33,113,82
4,33,0,238
4,35,113,2
4,35,0,238
4,38,114,2
4,38,0,118
4,40,113,2
4,40,0,238
4,28,111,2
4,28,0,238
4,28,113,2
4,28,0,238
4,40,112,2
4,40,0,296
4,33,111,64
4,33,0,158
4,33,113,82
4,33,0,238
4,35,113,2
4,35,0,238
4,38,114,2
4,38,0,118
4,40,113,2
4,40,0,238
4,28,111,2
4,28,0,238
4,28,113,2
4,28,0,238
4,40,112,2
4,40,0,296
4,33,111,64
4,33,0,158
4,33,113,82
4,33,0,238
4,35,113,2
4,35,0,238
4,38,114,2
4,38,0,118
4,40,113,2
4,40,0,238
4,28,111,2
4,28,0,238
4,28,113,2
4,28,0,238
4,40,112,2
4,40,0,296
4,33,111,64
4,33,0,158
4,33,113,82
4,33,0,238
4,35,113,2
4,35,0,238
4,38,114,2
4,38,0,118
4,40,113,2
4,40,0,238
4,28,111,2
4,28,0,238
4,28,113,2
4,28,0,238
4,40,112,2
4,40,0,296
4,33,111,64
4,33,0,158
4,33,113,82
4,33,0,238
4,35,113,2
4,35,0,238
4,38,114,2
4,38,0,118
4,40,113,2
4,40,0,238
4,28,111,2
4,28,0,238
4,28,113,2
4,28,0,238
4,40,112,2
4,40,0,296
4,33,111,64
4,33,0,158
4,33,113,82
4,33,0,238
4,35,113,2
4,35,0,238
4,38,114,2
4,38,0,118
4,40,113,2
4,40,0,238
4,28,111,2
4,28,0,238
4,28,113,2
4,28,0,238
4,40,112,2
4,40,0,296
4,33,111,64
4,33,0,158
4,33,113,82
4,33,0,238
4,35,113,2
4,35,0,238
4,38,114,2
4,38,0,118
4,40,113,2
4,40,0,238
4,28,111,2
4,28,0,238
4,28,113,2
4,28,0,238
4,40,112,2
4,40,0,296
4,33,111,64
4,33,0,158
4,33,113,82
4,33,0,238
4,35,113,2
4,35,0,238
4,38,114,2
4,38,0,118
4,40,113,2
4,40,0,238
4,28,111,2
4,28,0,238
4,28,113,2
4,28,0,238
4,40,112,2
4,40,0,296
4,33,111,64
4,33,0,158
4,33,113,82
4,33,0,238
4,35,113,2
4,35,0,238
4,38,114,2
4,38,0,118
4,40,113,2
4,40,0,238
4,28,111,2
4,28,0,238
4,28,113,2
4,28,0,238
4,40,112,2
4,40,0,296
4,33,111,64
4,33,0,158
4,33,113,82
4,33,0,238
4,35,113,2
4,35,0,238
4,38,114,2
4,38,0,118
4,40,113,2
4,40,0,238
4,28,111,2
4,28,0,238
4,28,113,2
4,28,0,238
4,40,112,2
4,40,0,296
4,33,111,64
4,33,0,158
4,33,113,82
4,33,0,238
4,35,113,2
4,35,0,238
4,38,114,2
4,38,0,118
4,40,113,2
4,40,0,238
4,28,111,2
4,28,0,238
4,28,113,2
4,28,0,238
4,40,112,2
4,40,0,296
4,33,111,64
4,33,0,158
4,33,113,82
4,33,0,238
4,35,113,2
4,35,0,238
4,38,114,2
4,38,0,118
4,40,113,2
4,40,0,238
4,28,111,2
4,28,0,238
4,28,113,2
4,28,0,238
4,40,112,2
4,40,0,296
4,33,111,64
4,33,0,158
4,33,113,82
4,33,0,238
4,35,113,2
4,35,0,238
4,38,114,2
4,38,0,118
4,40,113,2
4,40,0,238
4,28,116,2
4,28,0,238
4,28,117,2
4,28,0,158
4,28,113,82
4,28,0,343
4,31,116,17
4,31,0,238
4,31,115,2
4,31,0,118
4,31,116,122
4,31,0,478
4,33,116,122
4,33,0,238
4,33,119,2
4,33,0,238
4,33,117,2
4,33,0,238
4,33,117,2
4,33,0,238
4,38,119,2
4,38,0,118
4,35,117,2
4,35,0,118
4,38,116,2
4,38,0,158
4,38,116,82
4,38,0,238
4,35,116,2
4,35,0,78
4,28,117,162
4,28,0,238
4,28,113,2
4,28,0,158
4,28,117,82
4,28,0,340
4,35,116,20
4,35,0,238
4,35,117,2
4,35,0,278
4,35,119,82
4,35,0,238
4,35,119,2
4,35,0,160
4,28,111,80
4,28,0,238
4,28,113,2
4,28,0,238
4,40,112,2
4,40,0,296
4,33,111,64
4,33,0,158
4,33,113,82
4,33,0,238
4,35,113,2
4,35,0,238
4,38,114,2
4,38,0,118
4,40,113,2
4,40,0,238
4,28,111,2
4,28,0,238
4,28,113,2
4,28,0,238
4,40,112,2
4,40,0,296
4,33,111,64
4,33,0,158
4,33,113,82
4,33,0,238
4,35,113,2
4,35,0,238
4,38,114,2
4,38,0,118
4,40,113,2
4,40,0,238
4,28,113,2
4,28,0,1835
4,40,108,85
4,40,0,158
4,34,107,82
4,34,0,118
4,35,107,2
4,35,0,118
4,38,107,2
4,38,0,118
4,42,107,2
4,42,0,238
4,40,108,2
4,40,0,198
4,38,108,42
4,38,0,198
4,34,108,42
4,34,0,238
4,35,110,2
4,35,0,118
4,38,108,2
4,38,0,238
4,28,113,2
4,28,0,1835
4,40,108,85
4,40,0,158
4,34,107,82
4,34,0,118
4,35,107,2
4,35,0,118
4,38,107,2
4,38,0,118
4,42,107,2
4,42,0,238
4,40,108,2
4,40,0,198
4,38,108,42
4,38,0,198
4,34,108,42
4,34,0,238
4,35,110,2
4,35,0,118
4,38,108,2
4,38,0,238
4,28,104,2
4,28,0,238
4,28,105,2
4,28,0,238
4,28,105,2
4,28,0,238
4,28,107,2
4,28,0,238
4,28,107,2
4,28,0,238
4,28,110,2
4,28,0,238
4,28,113,2
4,28,0,238
4,28,113,2
4,28,0,238
4,31,112,2
4,31,0,238
4,31,111,2
4,31,0,238
4,31,112,2
4,31,0,238
4,31,112,2
4,31,0,238
4,31,117,2
4,31,0,238
4,31,112,2
4,31,0,238
4,31,112,2
4,31,0,238
4,31,111,2
4,31,0,238
4,33,112,2
4,33,0,238
4,33,112,2
4,33,0,238
4,33,113,2
4,33,0,238
4,33,113,2
4,33,0,238
4,33,113,2
4,33,0,238
4,33,111,2
4,33,0,238
4,33,115,2
4,33,0,238
4,33,116,2
4,33,0,238
4,35,119,2
4,35,0,238
4,35,117,2
4,35,0,238
4,35,117,2
4,35,0,238
4,35,116,2
4,35,0,238
4,35,116,2
4,35,0,238
4,35,117,2
4,35,0,238
4,35,116,2
4,35,0,238
4,35,116,2
4,35,0,238
4,35,120,2
4,35,0,238
4,35,120,2
4,35,0,238
4,35,120,2
4,35,0,238
4,35,119,2
4,35,0,238
4,35,120,2
4,35,0,238
4,35,121,2
4,35,0,238
4,35,121,2
4,35,0,238
4,35,121,2
4,35,0,238
4,35,116,2
4,35,0,118
4,35,115,2
4,35,0,118
4,35,116,2
4,35,0,118
4,35,120,2
4,35,0,118
4,35,117,2
4,35,0,118
4,35,120,2
4,35,0,118
4,35,116,2
4,35,0,118
4,35,119,2
4,35,0,118
4,35,120,2
4,35,0,118
4,35,115,2
4,35,0,118
4,35,121,2
4,35,0,118
4,35,116,2
4,35,0,118
4,35,116,2
4,35,0,118
4,35,120,2
4,35,0,118
4,35,117,2
4,35,0,118
4,35,121,2
4,35,0,118
4,28,111,2
4,28,0,238
4,28,113,2
4,28,0,238
4,40,112,2
4,40,0,296
4,33,111,64
4,33,0,158
4,33,113,82
4,33,0,238
4,35,113,2
4,35,0,238
4,38,114,2
4,38,0,118
4,40,113,2
4,40,0,238
4,28,111,2
4,28,0,238
4,28,113,2
4,28,0,238
4,40,112,2
4,40,0,296
4,33,111,64
4,33,0,158
4,33,113,82
4,33,0,238
4,35,113,2
4,35,0,238
4,38,114,2
4,38,0,118
4,40,113,2
4,40,0,238
4,28,111,2
4,28,0,238
4,28,113,2
4,28,0,238
4,40,112,2
4,40,0,296
4,33,111,64
4,33,0,158
4,33,113,82
4,33,0,238
4,35,113,2
4,35,0,238
4,38,114,2
4,38,0,118
4,40,113,2
4,40,0,238
4,28,111,2
4,28,0,238
4,28,113,2
4,28,0,238
4,40,112,2
4,40,0,296
4,33,111,64
4,33,0,158
4,33,113,82
4,33,0,238
4,35,113,2
4,35,0,238
4,38,114,2
4,38,0,118
4,40,113,2
4,40,0,238
4,28,116,2
4,28,0,238
4,28,117,2
4,28,0,158
4,28,113,82
4,28,0,343
4,31,116,17
4,31,0,238
4,31,115,2
4,31,0,118
4,31,116,122
4,31,0,478
4,33,116,122
4,33,0,238
4,33,119,2
4,33,0,238
4,33,117,2
4,33,0,238
4,33,117,2
4,33,0,238
4,38,119,2
4,38,0,118
4,35,117,2
4,35,0,118
4,38,116,2
4,38,0,158
4,38,116,82
4,38,0,238
4,35,116,2
4,35,0,78
4,28,117,162
4,28,0,238
4,28,113,2
4,28,0,158
4,28,117,82
4,28,0,340
4,35,116,20
4,35,0,238
4,35,117,2
4,35,0,278
4,35,119,82
4,35,0,238
4,35,119,2
4,35,0,160
4,28,111,80
4,28,0,238
4,28,113,2
4,28,0,238
4,40,112,2
4,40,0,296
4,33,111,64
4,33,0,158
4,33,113,82
4,33,0,238
4,35,113,2
4,35,0,238
4,38,114,2
4,38,0,118
4,40,113,2
4,40,0,238
4,28,111,2
4,28,0,238
4,28,113,2
4,28,0,238
4,40,112,2
4,40,0,296
4,33,111,64
4,33,0,158
4,33,113,82
4,33,0,238
4,35,113,2
4,35,0,238
4,38,114,2
4,38,0,118
4,40,113,2
4,40,0,238
4,28,111,2
4,28,0,238
4,28,113,2
4,28,0,238
4,40,112,2
4,40,0,296
