track,note,velocity,time
3,38,104,1140
3,66,74,240
3,57,67,8
3,62,76,4
3,62,0,64
3,57,0,16
3,66,0,12
3,38,0,4
3,42,94,24
3,66,76,260
3,62,81,8
3,57,71,0
3,57,0,72
3,62,0,4
3,66,0,20
3,45,96,20
3,42,0,16
3,66,82,236
3,57,68,8
3,62,79,0
3,62,0,64
3,57,0,4
3,66,0,32
3,47,104,36
3,45,0,28
3,62,78,216
3,66,79,0
3,57,66,4
3,62,0,76
3,57,0,4
3,66,0,8
3,47,0,24
3,38,104,24
3,66,82,236
3,57,68,4
3,62,78,0
3,62,0,72
3,57,0,8
3,66,0,4
3,38,0,12
3,42,90,44
3,62,75,240
3,66,74,0
3,57,53,8
3,57,0,48
3,62,0,8
3,66,0,16
3,42,0,32
3,45,100,32
3,62,81,240
3,66,82,0
3,57,65,4
3,57,0,60
3,66,0,12
3,62,0,0
3,45,0,56
3,47,111,20
3,66,83,228
3,62,75,4
3,57,55,8
3,62,0,32
3,57,0,16
3,66,0,28
3,47,0,28
3,38,108,28
3,66,83,252
3,57,70,4
3,62,76,0
3,38,0,40
3,62,0,4
3,57,0,24
3,66,0,8
3,42,92,56
3,66,74,260
3,62,64,4
3,57,55,4
3,62,0,40
3,57,0,16
3,66,0,8
3,45,95,44
3,42,0,8
3,66,76,256
3,62,77,4
3,57,68,4
3,62,0,40
3,57,0,20
3,66,0,4
3,47,115,48
3,45,0,24
3,66,82,236
3,62,74,4
3,57,67,4
3,62,0,44
3,57,0,20
3,66,0,8
3,47,0,40
3,38,109,4
3,62,79,256
3,66,83,0
3,57,62,4
3,62,0,44
3,57,0,8
3,66,0,20
3,42,95,52
3,38,0,52
3,66,85,200
3,62,78,4
3,57,69,4
3,62,0,40
3,57,0,16
3,66,0,16
3,42,0,48
3,45,104,0
3,66,86,260
3,62,81,4
3,57,74,4
3,62,0,48
3,57,0,12
3,66,0,12
3,47,111,52
3,45,0,28
3,66,86,228
3,62,80,4
3,57,74,4
3,62,0,48
3,57,0,16
3,66,0,4
3,47,0,48
3,38,114,8
3,66,80,252
3,62,80,4
3,57,61,8
3,62,0,36
3,57,0,12
3,66,0,16
3,38,0,12
3,42,95,36
3,57,64,256
3,62,81,0
3,66,73,0
3,62,0,52
3,57,0,4
3,66,0,8
3,45,95,56
3,42,0,4
3,57,67,252
3,66,72,0
3,62,79,0
3,62,0,56
3,57,0,4
3,66,0,4
3,47,108,72
3,45,0,8
3,66,83,240
3,57,72,4
3,62,76,0
3,62,0,44
3,57,0,20
3,66,0,4
3,47,0,48
3,38,107,8
3,62,77,268
3,66,82,0
3,57,69,4
3,62,0,36
3,57,0,24
3,66,0,4
3,42,91,48
3,38,0,48
3,57,60,216
3,62,81,0
3,66,79,0
3,57,0,52
3,66,0,8
3,62,0,0
3,45,101,72
3,42,0,32
3,62,79,220
3,66,82,0
3,57,66,4
3,62,0,48
3,57,0,16
3,66,0,16
3,47,100,48
3,45,0,28
3,57,69,228
3,66,86,0
3,62,74,4
3,62,0,48
3,57,0,24
3,66,0,4
3,47,0,20
3,38,108,28
3,66,85,264
3,57,72,8
3,62,74,0
3,62,0,36
3,57,0,20
3,66,0,16
3,42,92,32
3,38,0,28
3,66,82,236
3,57,68,8
3,62,75,0
3,62,0,44
3,57,0,20
3,66,0,8
3,45,94,44
3,42,0,32
3,66,83,212
3,57,74,4
3,62,81,0
3,62,0,60
3,57,0,12
3,66,0,8
3,47,111,56
3,45,0,32
3,66,88,220
3,57,71,4
3,62,78,0
3,62,0,48
3,57,0,8
3,66,0,24
3,38,108,48
3,47,0,12
3,62,88,248
3,66,76,0
3,57,66,8
3,57,0,52
3,66,0,12
3,62,0,0
3,45,102,56
3,38,0,64
3,62,87,192
3,66,85,0
3,57,67,8
3,57,0,44
3,62,0,4
3,66,0,20
3,45,0,60
3,47,111,0
3,66,86,244
3,62,81,4
3,57,67,8
3,62,0,48
3,47,0,0
3,57,0,4
3,66,0,20
3,45,111,52
3,45,0,232
3,62,81,16
3,66,78,0
3,57,68,4
3,57,0,44
3,62,0,4
3,66,0,8
3,43,121,84
3,67,85,240
3,59,74,4
3,62,81,0
3,62,0,60
3,59,0,8
3,67,0,8
3,43,0,20
3,50,101,28
3,62,81,256
3,59,74,0
3,67,85,0
3,62,0,68
3,67,0,8
3,59,0,4
3,52,117,52
3,50,0,52
3,67,82,192
3,62,76,4
3,59,71,0
3,62,0,68
3,67,0,8
3,59,0,4
3,50,112,64
3,52,0,48
3,62,76,200
3,59,74,0
3,67,81,0
3,62,0,64
3,50,0,4
3,67,0,0
3,59,0,8
3,43,109,48
3,62,80,256
3,67,81,0
3,59,79,0
3,62,0,72
3,59,0,12
3,67,0,0
3,43,0,36
3,47,111,8
3,59,79,256
3,67,88,0
3,62,74,4
3,62,0,56
3,59,0,8
3,67,0,4
3,50,111,56
3,47,0,8
3,67,82,244
3,62,74,4
3,59,74,0
3,62,0,72
3,59,0,12
3,67,0,8
3,52,123,36
3,50,0,44
3,67,85,204
3,62,84,4
3,59,81,0
3,52,0,64
3,59,0,12
3,62,0,0
3,67,0,4
3,38,116,60
3,62,80,232
3,57,67,4
3,66,67,0
3,38,0,80
3,62,0,8
3,57,0,0
3,66,0,8
3,42,98,36
3,57,64,256
3,62,78,0
3,66,68,0
3,57,0,80
3,66,0,4
3,62,0,0
3,45,99,44
3,42,0,12
3,57,69,244
3,66,69,0
3,62,89,0
3,66,0,80
3,62,0,4
3,57,0,0
3,47,123,56
3,45,0,24
3,62,86,224
3,57,66,4
3,66,68,0
3,47,0,16
3,62,0,64
3,57,0,0
3,66,0,0
3,38,126,48
3,66,71,256
3,62,87,0
3,57,69,4
3,66,0,64
3,62,0,8
3,57,0,4
3,38,0,28
3,42,98,16
3,66,68,260
3,57,69,0
3,62,86,4
3,62,0,72
3,66,0,4
3,57,0,12
3,42,0,8
3,45,111,20
3,57,71,268
3,66,74,0
3,62,85,4
3,62,0,68
3,66,0,0
3,57,0,12
3,42,112,32
3,45,0,8
3,66,73,248
3,62,86,4
3,57,65,4
3,66,0,60
3,57,0,4
3,62,0,0
3,42,0,16
3,40,110,56
3,64,74,240
3,59,72,8
3,55,64,0
3,59,0,60
3,55,0,20
3,64,0,24
3,40,0,68
3,64,81,208
3,59,76,4
3,55,74,0
3,59,0,72
3,55,0,8
3,64,0,12
3,40,104,24
3,64,87,260
3,59,84,4
3,55,82,0
3,59,0,68
3,55,0,12
3,64,0,4
3,40,0,144
3,64,87,152
3,55,81,0
3,59,77,4
3,59,0,68
3,55,0,8
3,64,0,12
3,45,101,24
3,64,86,272
3,57,79,0
3,61,76,0
3,57,0,64
3,61,0,8
3,64,0,4
3,45,0,232
3,61,86,72
3,64,89,4
3,57,76,4
3,57,0,56
3,61,0,8
3,64,0,4
3,45,108,44
3,57,72,272
3,64,81,0
3,61,60,0
3,61,0,72
3,57,0,8
3,64,0,4
3,45,0,256
3,57,86,40
3,61,88,0
3,64,91,0
3,61,0,64
3,57,0,0
3,64,0,12
3,38,121,56
3,66,74,248
3,57,73,4
3,62,77,4
3,62,0,56
3,57,0,20
3,66,0,12
3,38,0,20
3,42,101,16
3,66,83,248
3,62,77,8
3,57,69,0
3,57,0,60
3,62,0,8
3,66,0,16
3,47,104,48
3,42,0,12
3,66,85,240
3,57,68,8
3,62,71,0
3,62,0,52
3,57,0,8
3,66,0,16
3,47,0,16
3,45,104,28
3,66,92,264
3,57,85,4
3,62,85,4
3,62,0,68
3,57,0,0
3,66,0,8
3,45,0,40
3,38,110,4
3,66,86,256
3,62,85,4
3,57,77,0
3,57,0,68
3,62,0,0
3,66,0,0
3,38,0,24
3,42,92,32
3,66,88,264
3,57,87,4
3,62,87,0
3,57,0,60
3,62,0,4
3,66,0,0
3,42,0,52
3,47,111,0
3,66,83,260
3,57,81,4
3,62,79,4
3,62,0,60
3,57,0,0
3,66,0,4
3,47,0,32
3,45,102,16
3,66,88,260
3,57,81,8
3,62,79,0
3,45,0,32
3,66,0,32
3,57,0,0
3,62,0,12
3,38,118,48
3,66,85,244
3,57,81,4
3,62,81,0
3,57,0,64
3,62,0,12
3,66,0,0
3,38,0,12
3,42,98,52
3,66,80,240
3,57,79,4
3,62,79,4
3,57,0,76
3,62,0,12
3,66,0,0
3,42,0,32
3,45,104,8
3,66,85,252
3,62,80,8
3,57,81,0
3,57,0,68
3,62,0,12
3,66,0,4
3,45,0,20
3,47,104,16
3,66,83,244
3,62,79,8
3,57,71,0
3,57,0,80
3,62,0,8
3,66,0,4
3,47,0,36
3,38,108,4
3,66,92,244
3,62,89,4
3,57,86,4
3,57,0,68
3,62,0,0
3,66,0,20
3,42,92,44
3,38,0,48
3,66,85,200
3,62,81,4
3,57,79,0
3,62,0,48
3,57,0,8
3,66,0,20
3,45,101,68
3,42,0,8
3,66,90,232
3,57,80,4
3,62,88,0
3,62,0,64
3,57,0,0
3,66,0,24
3,47,108,44
3,45,0,24
3,66,88,232
3,62,85,4
3,57,82,0
3,62,0,48
3,57,0,16
3,66,0,20
3,47,0,32
3,38,111,16
3,66,94,244
3,62,91,4
3,57,86,0
3,57,0,64
3,62,0,0
3,66,0,24
3,42,89,36
3,38,0,32
3,66,90,224
3,62,88,8
3,57,86,0
3,57,0,68
3,62,0,4
3,66,0,16
3,45,97,32
3,42,0,4
3,66,85,252
3,57,80,4
3,62,84,0
3,62,0,40
3,57,0,20
3,66,0,8
3,47,104,56
3,45,0,32
3,66,86,224
3,57,71,4
3,62,67,8
3,62,0,56
3,57,0,12
3,66,0,8
3,47,0,28
3,38,112,24
3,66,88,236
3,62,81,8
3,57,71,0
3,57,0,72
3,62,0,8
3,66,0,8
3,38,0,4
3,45,103,52
3,66,90,240
3,62,82,4
3,57,81,0
3,57,0,64
3,62,0,4
3,66,0,8
3,45,0,24
3,47,125,32
3,57,69,248
3,66,92,0
3,62,79,4
3,57,0,80
3,62,0,16
3,66,0,4
3,45,110,36
3,47,0,16
3,62,85,232
3,57,81,0
3,66,90,0
3,62,0,56
3,45,0,8
3,57,0,0
3,66,0,4
3,43,115,56
3,59,72,256
3,67,82,0
3,62,85,4
3,62,0,68
3,43,0,24
3,59,0,0
3,67,0,16
3,50,105,12
3,59,80,256
3,67,85,0
3,62,82,4
3,62,0,68
3,59,0,12
3,67,0,4
3,50,0,24
3,52,110,20
3,59,85,260
3,62,89,4
3,67,93,0
3,62,0,64
3,67,0,12
3,59,0,8
3,50,104,36
3,52,0,36
3,59,82,224
3,67,89,0
3,62,86,4
3,50,0,44
3,62,0,28
3,67,0,16
3,59,0,0
3,43,106,16
3,59,81,264
3,67,87,0
3,62,81,4
3,62,0,76
3,59,0,20
3,67,0,4
3,47,106,20
3,43,0,48
3,67,89,216
3,59,81,0
3,62,81,4
3,62,0,80
3,59,0,12
3,67,0,8
3,50,99,16
3,47,0,40
3,59,82,228
3,67,91,0
3,62,84,4
3,59,0,88
3,62,0,4
3,67,0,20
3,52,114,12
3,50,0,68
3,52,0,152
3,59,91,28
3,67,88,0
3,62,89,8
3,62,0,80
3,67,0,4
3,59,0,0
3,38,112,52
3,62,95,240
3,66,86,0
3,57,75,0
3,66,0,80
3,62,0,0
3,57,0,12
3,38,0,40
3,45,98,4
3,66,80,252
3,62,86,4
3,57,73,0
3,62,0,72
3,66,0,0
3,57,0,16
3,47,104,48
3,45,0,32
3,57,78,212
3,62,96,4
3,66,82,0
3,62,0,72
3,66,0,8
3,57,0,4
3,45,97,56
3,47,0,56
3,62,98,192
3,57,77,0
3,66,83,0
3,62,0,72
3,66,0,20
3,57,0,0
3,45,0,4
3,38,104,32
3,62,93,256
3,57,80,0
3,66,83,0
3,62,0,72
3,66,0,16
3,57,0,0
3,38,0,24
3,42,91,20
3,62,93,248
3,57,74,0
3,66,83,0
3,62,0,84
3,66,0,8
3,57,0,4
3,42,0,28
3,45,106,8
3,62,103,252
3,66,86,0
3,57,78,0
3,62,0,88
3,66,0,12
3,57,0,4
3,42,113,28
3,45,0,12
3,42,0,192
3,62,103,48
3,57,84,0
3,66,86,0
3,66,0,52
3,62,0,4
3,57,0,16
3,40,106,52
3,64,84,260
3,55,71,4
3,59,79,0
3,59,0,72
3,55,0,8
3,64,0,4
3,55,82,292
3,59,89,4
3,64,95,0
3,40,0,16
3,59,0,64
3,55,0,8
3,64,0,4
3,40,111,28
3,59,88,276
3,55,87,0
3,64,96,0
3,59,0,64
3,55,0,16
3,64,0,12
3,55,88,288
3,64,93,0
3,59,85,4
3,40,0,40
3,55,0,36
3,59,0,0
3,64,0,4
3,45,102,28
3,57,91,272
3,64,93,0
3,61,85,0
3,61,0,80
3,57,0,0
3,64,0,12
3,45,0,252
3,64,92,36
3,61,76,0
3,57,77,8
3,57,0,72
3,61,0,8
3,64,0,20
3,45,107,16
3,57,86,256
3,64,98,0
3,61,85,0
3,61,0,76
3,57,0,0
3,64,0,20
3,57,84,280
3,64,91,0
3,61,83,0
3,45,0,32
3,57,0,28
3,64,0,20
3,61,0,0
3,38,111,48
3,66,86,248
3,62,82,8
3,57,81,0
3,57,0,72
3,62,0,4
3,66,0,28
3,45,101,24
3,38,0,44
3,66,66,200
3,57,68,4
3,62,74,4
3,62,0,64
3,57,0,12
3,66,0,8
3,47,105,52
3,45,0,4
3,66,78,244
3,57,78,4
3,62,81,0
3,57,0,72
3,62,0,4
3,66,0,12
3,45,97,40
3,47,0,24
3,62,81,240
3,57,87,0
3,66,92,0
3,57,0,68
3,62,0,0
3,45,0,16
3,66,0,4
3,50,101,48
3,57,89,248
3,66,96,0
3,62,91,4
3,62,0,40
3,57,0,24
3,66,0,24
3,48,111,36
3,50,0,24
3,66,88,232
3,57,84,4
3,62,89,0
3,57,0,64
3,62,0,12
3,66,0,8
3,48,0,36
3,47,112,4
3,66,88,260
3,57,87,4
3,62,92,0
3,57,0,64
3,66,0,8
3,62,0,8
3,45,109,40
3,47,0,20
3,62,93,232
3,57,96,0
3,66,96,0
3,45,0,48
3,66,0,12
3,57,0,12
3,62,0,8
3,43,106,56
3,67,84,256
3,62,81,8
3,59,75,0
3,62,0,48
3,67,0,16
3,59,0,4
3,43,0,168
3,62,71,148
3,59,66,0
3,67,81,0
3,62,0,48
3,67,0,12
3,59,0,0
3,43,111,44
3,59,69,260
3,67,78,0
3,62,69,8
3,62,0,48
3,59,0,16
3,67,0,4
3,59,78,308
3,67,86,0
3,43,0,4
3,62,80,0
3,62,0,48
3,59,0,8
3,67,0,8
3,45,103,48
3,69,79,260
3,61,72,0
3,64,85,4
3,64,0,68
3,61,0,4
3,69,0,20
3,45,0,256
3,61,67,28
3,64,80,4
3,69,80,0
3,64,0,52
3,69,0,4
3,61,0,4
3,45,111,72
3,69,77,252
3,61,71,0
3,64,76,4
3,64,0,64
3,69,0,0
3,61,0,20
3,45,0,224
3,61,82,76
3,64,85,4
3,69,87,0
3,69,0,52
3,64,0,0
3,61,0,4
3,43,105,72
3,59,75,260
3,62,88,0
3,67,86,4
3,62,0,60
3,59,0,0
3,67,0,4
3,43,0,140
3,67,80,176
3,62,87,0
3,59,71,4
3,62,0,52
3,59,0,4
3,67,0,8
3,43,115,60
3,67,91,260
3,59,88,4
3,62,86,4
3,62,0,52
3,59,0,12
3,67,0,8
3,43,0,180
3,67,86,132
3,62,88,8
3,59,82,0
3,59,0,52
3,62,0,0
3,67,0,20
3,45,101,40
3,61,68,268
3,64,82,4
3,69,76,0
3,64,0,52
3,69,0,4
3,61,0,0
3,45,0,224
3,61,85,88
3,64,86,8
3,69,86,0
3,64,0,44
3,69,0,4
3,61,0,16
3,45,101,60
3,61,85,264
3,64,89,4
3,69,88,0
3,64,0,56
3,69,0,12
3,61,0,4
3,45,0,196
3,69,91,96
3,61,92,0
3,64,92,4
3,64,0,56
3,61,0,4
3,69,0,0
3,38,111,76
3,62,81,256
3,66,73,0
3,57,60,0
3,38,0,20
3,62,0,32
3,66,0,4
3,57,0,4
