track,note,velocity,time
3,69,109,4
3,69,87,152
3,69,76,88
3,73,98,132
3,73,87,96
3,69,98,376
3,69,67,184
3,69,76,132
3,73,98,132
3,69,87,632
3,69,76,128
3,69,87,84
3,73,57,212
3,73,76,96
3,76,87,4
3,79,98,4
3,76,87,8
3,72,98,4
3,69,87,172
3,72,109,120
3,69,109,252
3,76,87,1036
3,76,87,84
3,74,109,100
3,72,87,88
3,69,87,108
3,69,120,216
3,76,98,2644
3,76,76,96
3,76,76,60
3,76,72,96
3,76,87,48
3,76,87,112
3,64,72,280
3,66,98,44
3,66,72,108
3,69,76,4
3,69,76,88
3,71,109,4
3,73,98,200
3,69,98,4
3,69,98,8
3,69,76,2480
3,69,76,132
3,69,87,84
3,69,87,180
3,73,87,36
3,69,98,468
3,69,62,104
3,69,98,4
3,64,120,56
3,69,109,672
3,69,67,128
3,69,109,88
3,73,109,176
3,69,109,152
3,69,109,268
3,69,72,132
3,69,109,8
3,64,109,92
3,69,98,0
3,69,52,132
3,69,87,88
3,73,98,4
3,69,109,4
3,69,62,224
3,69,109,12
3,69,87,208
3,73,120,8
3,69,98,4
3,69,87,8
3,73,109,4
3,73,72,24
3,76,87,44
3,79,76,0
3,79,76,180
3,76,72,4
3,73,98,0
3,69,98,12
3,72,98,4
3,69,109,8
3,76,87,4
3,76,87,4
3,74,109,4
3,72,87,4
3,69,87,108
3,69,120,216
3,76,98,0
3,76,76,96
3,76,76,60
3,76,72,96
3,76,87,48
3,76,87,112
3,64,72,280
3,66,98,44
3,66,72,108
3,69,76,12
3,69,76,88
3,71,109,8
3,73,98,4
3,69,98,8
3,69,98,4
3,69,76,20792
3,69,87,12
3,69,76,96
3,69,76,48
3,69,87,120
3,72,62,44
3,73,87,84
3,69,109,572
3,69,98,148
3,64,109,48
3,69,98,740
3,69,109,200
3,73,98,204
3,73,98,120
3,69,109,20
3,69,76,136
3,69,98,76
3,69,98,228
3,64,98,88
3,69,87,676
3,69,76,108
3,69,87,84
3,72,76,132
3,73,87,24
3,69,98,196
3,69,48,208
3,69,87,112
3,69,87,172
3,72,72,112
3,73,76,0
3,69,87,732
3,69,87,212
3,73,87,212
3,73,87,104
3,76,87,64
3,79,87,4
3,79,76,196
3,76,87,96
3,72,109,224
3,69,76,196
3,72,109,72
3,69,109,48
3,76,87,1036
3,76,87,84
3,74,109,100
3,72,87,88
3,69,87,108
3,69,120,4
3,76,98,2644
3,76,76,96
3,76,76,60
3,76,72,96
3,76,87,48
3,76,87,112
3,64,72,280
3,66,98,44
3,66,72,108
3,69,76,20
3,69,76,88
3,71,109,76
3,73,98,200
3,69,98,216
3,69,98,8
3,69,87,20800
3,69,87,68
3,69,87,108
3,69,87,296
3,69,87,356
3,69,98,584
3,69,109,208
3,73,87,12
3,69,76,788
3,69,87,352
3,69,98,600
3,69,98,204
3,73,109,8
3,69,109,860
3,69,109,344
3,69,98,556
3,69,87,168
3,72,120,4
3,69,109,808
3,69,98,336
3,69,109,600
3,69,87,240
3,73,98,16
3,76,109,192
3,76,76,84
3,76,87,84
3,76,72,100
3,76,76,76
3,78,98,64
3,64,98,256
3,66,87,152
3,69,87,80
3,69,76,172
3,71,98,84
3,73,98,4
3,69,98,196
3,67,98,12
3,69,87,216
3,69,87,356
3,69,98,584
3,69,109,208
3,69,109,4
4,45,91,1536
4,43,91,960
4,45,91,0
4,43,80,864
4,45,91,0
4,45,91,480
4,45,80,384
4,47,91,0
4,48,70,0
4,49,80,0
4,50,91,16
4,54,80,0
4,57,80,0
4,59,75,0
4,62,80,0
4,59,91,0
4,57,75,0
4,54,80,0
4,45,102,0
4,49,80,0
4,52,91,0
4,54,65,0
4,57,91,0
4,54,75,384
4,52,75,0
4,49,80,0
4,52,80,0
4,56,80,0
4,59,91,0
4,61,50,0
4,64,80,0
4,61,80,0
4,59,80,0
4,56,80,0
4,45,91,96
4,49,91,0
4,52,91,0
4,54,75,0
4,57,75,0
4,54,75,0
4,52,91,0
4,49,80,0
4,45,91,0
4,43,91,960
4,45,91,0
4,43,80,960
4,45,91,0
4,43,80,960
4,45,91,0
4,43,91,960
4,45,91,0
4,43,91,960
4,45,91,0
4,43,80,864
4,45,91,0
4,45,91,480
4,45,80,384
4,47,91,0
4,48,70,0
4,49,80,0
4,50,91,16
4,54,80,0
4,57,80,0
4,59,75,0
4,62,80,0
4,59,91,0
4,57,75,0
4,54,80,0
4,45,102,0
4,49,80,0
4,52,91,0
4,54,65,0
4,57,91,0
4,54,75,384
4,52,75,0
4,49,80,0
4,52,80,0
4,56,80,0
4,59,91,0
4,61,50,0
4,64,80,0
4,61,80,0
4,59,80,0
4,56,80,0
4,45,91,96
4,49,91,0
4,52,91,0
4,54,75,0
4,57,75,0
4,54,75,0
4,52,91,0
4,49,80,0
4,45,102,0
4,49,80,0
4,52,91,0
4,54,75,0
4,57,75,0
4,54,70,384
4,52,91,0
4,49,91,0
4,45,91,0
4,49,80,0
4,52,91,0
4,54,75,0
4,57,80,0
4,54,75,0
4,52,80,0
4,49,91,0
4,50,91,0
4,54,91,0
4,57,80,0
4,59,70,0
4,62,70,0
4,59,75,0
4,57,75,0
4,54,75,0
4,45,65,0
4,49,91,0
4,52,80,0
4,54,75,0
4,57,80,0
4,54,80,0
4,52,91,0
4,49,80,0
4,52,91,0
4,56,80,0
4,59,91,0
4,61,80,0
4,64,80,0
4,61,80,0
4,59,80,0
4,56,80,0
4,45,113,96
4,49,91,0
4,52,91,0
4,54,80,0
4,57,91,0
4,54,70,0
4,52,80,0
4,49,91,0
4,45,91,16
4,43,91,960
4,45,91,0
4,43,80,960
4,45,91,0
4,43,80,960
4,45,91,0
4,43,91,960
4,45,91,0
4,43,91,960
4,45,91,0
4,43,80,864
4,45,91,0
4,45,91,480
4,45,80,384
4,47,91,0
4,48,70,0
4,49,80,0
4,50,91,16
4,54,80,0
4,57,80,0
4,59,75,0
4,62,80,0
4,59,91,0
4,57,75,0
4,54,80,0
4,45,102,0
4,49,80,0
4,52,91,0
4,54,65,0
4,57,91,0
4,54,75,384
4,52,75,0
4,49,80,0
4,52,80,0
4,56,80,0
4,59,91,0
4,61,50,0
4,64,80,0
4,61,80,0
4,59,80,0
4,56,80,0
4,45,91,96
4,49,91,0
4,52,91,0
4,54,75,0
4,57,75,0
4,54,75,0
4,52,91,0
4,49,80,0
4,45,102,0
4,49,80,0
4,52,91,0
4,54,75,0
4,57,75,0
4,54,70,384
4,52,91,0
4,49,91,0
4,45,91,0
4,49,80,0
4,52,91,0
4,54,75,0
4,57,80,0
4,54,75,0
4,52,80,0
4,49,91,0
4,50,91,0
4,54,91,0
4,57,80,0
4,59,70,0
4,62,70,0
4,59,75,0
4,57,75,0
4,54,75,0
4,45,65,0
4,49,91,0
4,52,80,0
4,54,75,0
4,57,80,0
4,54,80,0
4,52,91,0
4,49,80,0
4,52,91,0
4,56,80,0
4,59,91,0
4,61,80,0
4,64,80,0
4,61,80,0
4,59,80,0
4,56,80,0
4,45,113,96
4,49,91,0
4,52,91,0
4,54,80,0
4,57,91,0
4,54,70,0
4,52,80,0
4,49,91,0
4,45,102,16
4,49,80,0
4,52,91,0
4,54,75,0
4,57,75,0
4,54,70,384
4,52,91,0
4,49,91,0
4,45,91,0
4,49,80,0
4,52,91,0
4,54,75,0
4,57,80,0
4,54,75,0
4,52,80,0
4,49,91,0
4,50,91,0
4,54,91,0
4,57,80,0
4,59,70,0
4,62,70,0
4,59,75,0
4,57,75,0
4,54,75,0
4,45,65,0
4,49,91,0
4,52,80,0
4,54,75,0
4,57,80,0
4,54,80,0
4,52,91,0
4,49,80,0
4,52,91,0
4,56,80,0
4,59,91,0
4,61,80,0
4,64,80,0
4,61,80,0
4,59,80,0
4,56,80,0
4,45,102,96
4,49,80,0
4,52,91,0
4,54,75,0
4,57,91,0
4,52,91,64
4,54,102,0
4,57,113,52
5,61,97,0
5,69,114,0
5,64,86,0
5,64,45,0
5,69,114,0
5,64,82,0
5,61,56,0
5,45,79,108
5,57,69,0
5,52,81,0
5,52,55,4
5,61,102,0
5,57,77,0
5,69,74,12
5,64,69,4
5,69,88,760
5,64,91,4
5,61,86,0
5,48,49,0
5,45,114,4
5,52,109,0
5,57,86,4
5,57,80,0
5,61,97,0
5,69,114,0
5,64,86,0
5,45,25,0
5,56,43,0
5,52,64,0
5,57,113,0
5,64,74,0
5,61,114,0
5,69,113,0
5,45,51,428
5,61,75,4
5,52,88,4
5,61,113,0
5,69,113,0
5,67,69,0
5,55,51,0
5,55,66,0
5,61,90,0
5,67,65,0
5,69,32,0
5,61,92,0
5,69,71,4
5,67,71,4
5,51,46,0
5,52,79,4
5,55,64,0
5,61,90,0
5,69,37,0
5,67,40,0
5,69,62,0
5,67,46,4
5,52,45,0
5,52,86,0
5,61,99,0
5,55,77,0
5,67,62,0
5,69,68,0
5,69,87,4
5,67,71,4
5,59,23,0
5,61,114,0
5,55,114,0
5,67,77,0
5,69,60,0
5,69,114,0
5,67,114,0
5,61,114,0
5,55,61,0
5,57,39,0
5,52,114,0
5,57,38,0
5,50,40,0
5,52,44,0
5,50,114,0
5,55,114,4
5,60,23,0
5,58,49,0
5,50,114,0
5,62,23,0
5,57,112,0
5,50,96,0
5,57,61,0
5,63,11,0
5,54,95,0
5,63,23,0
5,50,114,0
5,59,114,0
5,50,113,0
5,57,66,4
5,61,28,0
5,57,103,0
5,50,114,0
5,53,36,0
5,50,88,0
5,57,90,0
5,52,73,0
5,50,114,4
5,59,114,0
5,50,84,0
5,57,28,0
5,50,36,4
5,50,114,0
5,57,105,0
5,50,89,0
5,57,42,0
5,50,114,0
5,59,114,0
5,50,97,0
5,57,50,0
5,50,114,0
5,57,77,0
5,50,114,0
5,57,114,0
5,62,42,0
5,59,114,0
5,50,114,0
5,62,32,0
5,45,26,0
5,50,98,0
5,55,80,16
5,45,82,0
5,52,78,0
5,45,81,0
5,52,95,0
5,45,87,0
5,54,107,4
5,59,60,4
5,48,57,0
5,45,93,0
5,52,82,0
5,53,53,0
5,52,114,0
5,55,114,0
5,61,35,0
5,45,77,0
5,52,76,0
5,57,44,0
5,54,114,0
5,58,54,0
5,45,86,4
5,52,85,0
5,52,114,4
5,58,114,12
5,55,114,0
5,61,39,0
5,46,58,0
5,52,73,0
5,45,66,0
5,58,91,0
5,54,114,0
5,52,59,0
5,45,89,0
5,50,114,0
5,52,114,4
5,61,69,0
5,55,114,0
5,40,68,4
5,55,61,0
5,52,77,0
5,45,67,0
5,45,56,0
5,54,114,0
5,52,114,0
5,57,94,0
5,54,52,0
5,52,110,0
5,59,104,0
5,52,109,0
5,59,93,0
5,62,54,0
5,65,23,0
5,52,114,0
5,61,114,0
5,57,50,0
5,52,114,0
5,59,80,4
5,59,104,0
5,52,103,4
5,64,25,0
5,62,37,0
5,52,107,0
5,59,71,0
5,52,114,0
5,61,114,0
5,52,90,0
5,59,77,0
5,52,113,0
5,59,114,4
5,64,25,0
5,52,104,0
5,59,78,0
5,52,114,0
5,61,114,0
5,56,31,0
5,52,114,4
5,59,86,0
5,52,100,0
5,59,104,4
5,52,110,0
5,59,68,4
5,64,64,0
5,52,114,4
5,61,114,0
5,40,64,92
5,52,86,0
5,45,85,0
5,55,26,0
5,45,66,0
5,52,68,0
5,45,91,0
5,59,56,0
5,58,113,0
5,54,111,0
5,45,93,0
5,52,81,0
5,52,114,0
5,61,32,0
5,55,107,0
5,49,49,0
5,45,84,0
5,52,66,4
5,54,114,0
5,52,80,0
5,45,99,4
5,52,114,0
5,55,114,0
5,61,40,0
5,45,75,0
5,52,40,0
5,45,101,4
5,54,114,0
5,58,60,4
5,48,54,0
5,52,40,0
5,45,82,0
5,52,114,0
5,55,104,0
5,61,59,0
5,61,95,0
5,55,71,0
5,52,43,0
5,45,86,0
5,52,96,0
5,57,64,0
5,69,71,0
5,64,59,0
5,46,114,0
5,63,81,0
5,57,114,0
5,45,77,0
5,52,114,0
5,69,65,0
5,61,114,0
5,64,100,0
5,69,88,852
5,64,91,4
5,61,86,0
5,48,49,0
5,45,114,4
5,52,109,0
5,57,86,4
5,57,80,0
5,61,97,0
5,69,114,0
5,64,86,0
5,69,88,804
5,64,91,4
5,61,86,0
5,48,49,0
5,45,114,4
5,52,109,0
5,57,86,4
5,57,80,0
5,61,97,0
5,69,114,0
5,64,86,0
5,69,88,804
5,64,91,4
5,61,86,0
5,48,49,0
5,45,114,4
5,52,109,0
5,57,86,4
5,57,80,0
5,61,97,0
5,69,114,0
5,64,86,0
5,69,88,804
5,64,91,4
5,61,86,0
5,48,49,0
5,45,114,4
5,52,109,0
5,57,86,4
5,57,80,0
5,61,97,0
5,69,114,0
5,64,86,0
5,69,88,804
5,64,91,4
5,61,86,0
5,48,49,0
5,45,114,4
5,52,109,0
5,57,86,4
5,57,80,0
5,61,97,0
5,69,114,0
5,64,86,0
5,69,88,804
5,64,91,4
5,61,86,0
5,48,49,0
5,45,114,4
5,52,109,0
5,57,86,4
5,57,80,0
5,61,97,0
5,69,114,0
5,64,86,0
5,45,25,0
5,56,43,0
5,52,64,0
5,57,113,0
5,64,74,0
5,61,114,0
5,69,113,0
5,45,51,428
5,61,75,4
5,52,88,4
5,61,113,0
5,69,113,0
5,67,69,0
5,55,51,0
5,55,66,0
5,61,90,0
5,67,65,0
5,69,32,0
5,61,92,0
5,69,71,4
5,67,71,4
5,51,46,0
5,52,79,4
5,55,64,0
5,61,90,0
5,69,37,0
5,67,40,0
5,69,62,0
5,67,46,4
5,52,45,0
5,52,86,0
5,61,99,0
5,55,77,0
5,67,62,0
5,69,68,0
5,69,87,4
5,67,71,4
5,59,23,0
5,61,114,0
5,55,114,0
5,67,77,0
5,69,60,0
5,69,114,0
5,67,114,0
5,61,114,0
5,55,61,0
5,57,39,0
5,52,114,0
5,57,38,0
5,50,40,0
5,52,44,0
5,50,114,0
5,55,114,4
5,60,23,0
5,58,49,0
5,50,114,0
5,62,23,0
5,57,112,0
5,50,96,0
5,57,61,0
5,63,11,0
5,54,95,0
5,63,23,0
5,50,114,0
5,59,114,0
5,50,113,0
5,57,66,4
5,61,28,0
5,57,103,0
5,50,114,0
5,53,36,0
5,50,88,0
5,57,90,0
5,52,73,0
5,50,114,4
5,59,114,0
5,50,84,0
5,57,28,0
5,50,36,4
5,50,114,0
5,57,105,0
5,50,89,0
5,57,42,0
5,50,114,0
5,59,114,0
5,50,97,0
5,57,50,0
5,50,114,0
5,57,77,0
5,50,114,0
5,57,114,0
5,62,42,0
5,59,114,0
5,50,114,0
5,62,32,0
5,45,26,0
5,50,98,0
5,55,80,16
5,45,82,0
5,52,78,0
5,45,81,0
5,52,95,0
5,45,87,0
5,54,107,4
5,59,60,4
5,48,57,0
5,45,93,0
5,52,82,0
5,53,53,0
5,52,114,0
5,55,114,0
5,61,35,0
5,45,77,0
5,52,76,0
5,57,44,0
5,54,114,0
5,58,54,0
5,45,86,4
5,52,85,0
5,52,114,4
5,58,114,12
5,55,114,0
5,61,39,0
5,46,58,0
5,52,73,0
5,45,66,0
5,58,91,0
5,54,114,0
5,52,59,0
5,45,89,0
5,50,114,0
5,52,114,4
5,61,69,0
5,55,114,0
5,40,68,4
5,55,61,0
5,52,77,0
5,45,67,0
5,45,56,0
5,54,114,0
5,52,114,0
5,57,94,0
5,54,52,0
5,52,110,0
5,59,104,0
5,52,109,0
5,59,93,0
5,62,54,0
5,65,23,0
5,52,114,0
5,61,114,0
5,57,50,0
5,52,114,0
5,59,80,4
5,59,104,0
5,52,103,4
5,64,25,0
5,62,37,0
5,52,107,0
5,59,71,0
5,52,114,0
5,61,114,0
5,52,90,0
5,59,77,0
5,52,113,0
5,59,114,4
5,64,25,0
5,52,104,0
5,59,78,0
5,52,114,0
5,61,114,0
5,56,31,0
5,52,114,4
5,59,86,0
5,52,100,0
5,59,104,4
5,52,110,0
5,59,68,4
5,64,64,0
5,52,114,4
5,61,114,0
5,40,64,92
5,52,86,0
