track,note,velocity,time
1,62,127,0
1,57,127,2
1,38,127,1
1,66,127,1
1,62,0,124
1,57,0,2
1,63,127,0
1,38,0,1
1,58,127,0
1,66,0,1
1,67,127,0
1,39,127,2
1,38,127,635
1,62,127,1
1,57,127,1
1,66,127,0
1,63,0,103
1,58,0,1
1,67,0,1
1,39,0,2
1,38,0,19
1,62,0,1
1,66,0,1
1,57,0,0
1,58,127,0
1,67,127,2
1,39,127,1
1,63,127,0
1,57,127,635
1,62,127,1
1,38,127,2
1,66,127,1
1,58,0,102
1,67,0,2
1,63,0,1
1,39,0,0
1,57,0,19
1,39,127,0
1,62,0,1
1,63,127,0
1,38,0,2
1,66,0,1
1,67,127,0
1,58,127,1
1,39,0,333
1,63,0,1
1,67,0,3
1,58,0,1
1,38,127,63
1,66,127,0
1,62,127,0
1,57,127,1
1,67,127,125
1,39,127,1
1,62,0,1
1,38,0,0
1,66,0,0
1,57,0,1
1,58,127,1
1,63,127,1
1,67,0,333
1,39,0,1
1,58,0,3
1,63,0,1
1,62,127,60
1,38,127,2
1,66,127,1
1,57,127,1
1,62,0,124
1,38,0,2
1,66,0,1
1,57,0,1
1,39,127,0
1,58,127,0
1,67,127,1
1,63,127,0
1,58,0,336
1,39,0,0
1,67,0,1
1,63,0,0
1,66,127,63
1,62,127,1
1,57,127,0
1,38,127,1
1,66,0,126
1,58,127,0
1,67,127,0
1,62,0,1
1,57,0,0
1,38,0,1
1,39,127,0
1,63,127,0
1,67,0,34
1,58,0,0
1,39,0,2
1,63,0,0
1,81,127,443
1,87,127,4
1,82,127,0
1,81,0,8
1,82,0,9
1,87,0,4
1,75,127,23
1,82,127,2
1,87,127,0
1,75,0,16
1,87,0,2
1,82,0,1
1,75,127,27
1,87,127,3
1,82,127,0
1,75,0,17
1,82,0,2
1,87,0,2
1,75,127,24
1,82,127,2
1,87,127,0
1,82,0,18
1,75,0,0
1,87,0,4
1,75,127,24
1,87,127,7
1,82,127,0
1,75,0,12
1,82,0,8
1,87,0,0
1,75,127,23
1,82,127,6
1,87,127,0
1,75,0,12
1,82,0,4
1,87,0,4
1,81,127,10
1,82,127,10
1,87,127,0
1,81,0,2
1,82,0,19
1,87,0,7
1,75,127,16
1,75,0,20
1,77,127,118
1,78,127,5
1,75,127,0
1,72,127,2
1,77,0,5
1,72,0,2
1,75,0,27
1,78,0,19
1,72,127,4
1,72,0,22
1,75,127,16
1,77,127,0
1,72,127,1
1,72,0,14
1,75,0,27
1,77,0,2
1,72,127,18
1,72,0,19
1,77,127,9
1,75,127,5
1,78,127,3
1,72,127,1
1,77,0,3
1,72,0,7
1,75,0,13
1,78,0,20
1,72,127,19
1,78,127,7
1,75,127,1
1,78,0,5
1,75,0,2
1,72,0,4
1,77,127,14
1,75,127,1
1,72,127,0
1,72,0,19
1,75,0,6
1,77,0,5
1,75,127,27
1,72,127,0
1,75,0,148
1,72,0,4
1,75,127,218
1,84,127,2
1,75,0,34
1,82,127,8
1,84,0,10
1,80,127,14
1,80,0,18
1,82,0,4
1,75,127,8
1,75,0,20
1,72,127,22
1,72,0,24
1,70,127,38
1,70,0,24
1,77,127,109
1,78,127,5
1,82,127,3
1,79,127,1
1,77,0,16
1,78,0,4
1,82,0,5
1,82,127,31
1,79,0,15
1,79,127,27
1,82,0,20
1,75,127,35
1,72,127,33
1,79,0,6
1,75,0,5
1,70,127,46
1,56,127,7
1,62,127,0
1,72,0,2
1,56,0,20
1,70,0,1
1,62,0,1
1,74,127,44
1,80,127,0
1,76,127,4
1,76,0,8
1,74,0,22
1,80,0,18
1,74,127,10
1,74,0,24
1,74,127,10
1,82,127,0
1,74,0,23
1,82,0,26
1,80,127,11
1,74,127,2
1,74,0,19
1,80,0,9
1,60,127,92
1,54,127,0
1,78,127,98
1,72,127,4
1,82,127,1
1,72,0,33
1,78,0,18
1,82,0,7
1,72,127,34
1,80,127,3
1,72,0,34
1,80,0,8
1,72,127,14
1,78,127,3
1,72,0,23
1,78,0,7
1,54,0,1
1,60,0,0
1,58,127,96
1,63,127,0
1,75,127,64
1,75,0,32
1,78,127,0
1,79,127,6
1,78,0,6
1,82,127,20
1,79,0,6
1,82,0,26
1,84,127,0
1,84,0,32
1,75,127,0
1,87,127,1
1,75,0,34
1,87,0,1
1,75,127,19
1,87,127,1
1,75,0,19
1,87,0,1
1,63,0,20
1,58,0,0
1,75,127,0
1,87,127,1
1,87,0,31
1,75,0,13
1,75,127,10
1,87,127,1
1,87,0,21
1,75,0,1
1,75,127,18
1,87,127,0
1,87,0,36
1,75,0,0
1,73,127,19
1,85,127,0
1,85,0,37
1,73,0,0
1,70,127,4
1,82,127,0
1,82,0,54
1,70,0,0
1,78,127,9
1,66,127,0
1,79,127,35
1,67,127,0
1,66,0,5
1,78,0,0
1,38,127,53
1,66,127,0
1,57,127,1
1,62,127,1
1,79,0,3
1,67,0,0
1,66,0,123
1,38,0,0
1,57,0,1
1,62,0,1
1,67,127,0
1,63,127,2
1,39,127,2
1,58,127,0
1,67,0,334
1,63,0,2
1,39,0,2
1,58,0,0
1,66,127,59
1,62,127,1
1,57,127,0
1,38,127,4
1,66,0,123
1,62,0,1
1,57,0,0
1,39,127,1
1,58,127,2
1,38,0,1
1,63,127,0
1,67,127,2
1,39,0,333
1,58,0,2
1,63,0,1
1,67,0,2
1,57,127,63
1,38,127,0
1,66,127,1
1,62,127,1
1,63,127,124
1,39,127,1
1,38,0,1
1,57,0,0
1,58,127,0
1,66,0,1
1,67,127,0
1,62,0,1
1,63,0,333
1,39,0,1
1,58,0,1
1,67,0,1
1,57,127,63
1,38,127,1
1,62,127,0
1,66,127,0
1,63,127,125
1,39,127,1
1,67,127,0
1,57,0,1
1,66,0,1
1,38,0,0
1,62,0,0
1,58,127,1
1,63,0,32
1,67,0,1
1,39,0,0
1,58,0,3
1,81,127,443
1,87,127,10
1,82,127,0
1,81,0,2
1,82,0,24
1,87,0,2
1,87,127,21
1,82,127,0
1,82,0,24
1,87,0,2
1,82,127,23
1,87,127,0
1,82,0,24
1,87,0,2
1,87,127,20
1,82,127,0
1,82,0,24
1,87,0,2
1,87,127,18
1,82,127,0
1,82,0,25
1,87,0,2
1,82,127,21
1,87,127,0
1,82,0,32
1,87,0,2
1,94,127,102
1,94,0,23
1,90,127,9
1,90,0,21
1,87,127,3
1,82,127,12
1,87,0,12
1,82,0,16
1,94,127,3
1,94,0,24
1,90,127,5
1,90,0,22
1,87,127,2
1,82,127,13
1,87,0,15
1,82,0,8
1,94,127,6
1,94,0,23
1,90,127,9
1,90,0,24
1,87,127,0
1,82,127,6
1,87,0,20
1,82,0,6
1,94,127,5
1,94,0,24
1,90,127,9
1,87,127,22
1,90,0,1
1,82,127,12
1,87,0,8
1,82,0,14
1,94,127,7
1,94,0,27
1,90,127,4
1,87,127,23
1,90,0,3
1,82,127,13
1,87,0,8
1,82,0,18
1,94,127,1
1,94,0,24
1,90,127,5
1,90,0,24
1,87,127,1
1,82,127,9
1,87,0,16
1,82,0,8
1,94,127,10
1,94,0,27
1,90,127,2
1,87,127,22
1,90,0,1
1,82,127,11
1,87,0,11
1,82,0,11
1,96,127,68
1,95,127,3
1,95,0,5
1,94,127,33
1,91,127,7
1,96,0,6
1,94,0,25
1,91,0,2
1,96,127,13
1,94,127,5
1,94,0,12
1,96,0,23
1,94,127,7
1,91,127,2
1,91,0,40
1,94,0,1
1,87,127,8
1,87,0,6
1,94,127,39
1,91,127,0
1,91,0,38
1,94,0,0
1,96,127,12
1,94,127,2
1,94,0,12
1,96,0,20
1,94,127,8
1,91,127,4
1,94,0,46
1,91,0,4
1,91,127,45
1,94,127,0
1,96,127,49
1,94,0,18
1,91,0,4
1,96,0,19
1,94,127,5
1,91,127,4
1,94,0,48
1,91,0,4
1,58,127,36
1,63,127,0
1,63,0,96
1,58,0,0
1,56,127,0
1,62,127,0
1,92,127,106
1,86,127,0
1,88,127,4
1,88,0,8
1,86,0,22
1,92,0,18
1,86,127,10
1,86,0,24
1,94,127,10
1,86,127,0
1,56,0,14
1,62,0,1
1,86,0,8
1,94,0,26
1,92,127,11
1,86,127,2
1,86,0,19
1,92,0,9
1,60,127,92
1,54,127,0
1,90,127,98
1,84,127,4
1,94,127,1
1,84,0,33
1,90,0,18
1,94,0,7
1,84,127,34
1,92,127,3
1,84,0,34
1,92,0,8
1,84,127,14
1,90,127,3
1,84,0,23
1,90,0,7
1,54,0,1
1,60,0,0
1,87,127,198
1,99,127,2
1,87,0,21
1,99,0,2
1,87,127,35
1,99,127,1
1,87,0,18
1,99,0,3
1,87,127,12
1,99,127,1
1,87,0,21
1,99,0,4
1,85,127,27
1,97,127,1
1,97,0,16
1,85,0,0
1,94,127,22
1,82,127,0
1,82,0,19
1,94,0,3
1,80,127,35
1,92,127,4
1,92,0,15
1,80,0,0
1,78,127,24
1,90,127,0
1,79,127,11
1,78,0,3
1,91,127,8
1,90,0,10
1,79,0,5
1,91,0,4
1,87,127,49
1,75,127,0
1,75,0,21
1,87,0,0
1,70,127,49
1,82,127,0
1,70,0,140
1,82,0,2
1,39,127,75
1,58,127,1
1,63,127,1
1,67,127,3
1,39,0,333
1,58,0,1
1,63,0,1
1,67,0,3
1,62,127,61
1,38,127,2
1,66,127,1
1,57,127,0
1,62,0,125
1,38,0,2
1,63,127,0
1,66,0,1
1,57,0,0
1,67,127,0
1,58,127,1
1,39,127,1
1,63,0,335
1,67,0,1
1,58,0,1
1,39,0,1
1,38,127,60
1,62,127,0
1,66,127,1
1,57,127,2
1,62,0,125
1,38,0,0
1,66,0,1
1,67,127,0
1,57,0,2
1,39,127,0
1,58,127,1
1,63,127,2
1,67,0,333
1,39,0,2
1,58,0,1
1,63,0,2
1,62,127,59
1,66,127,4
1,38,127,0
1,57,127,1
1,62,0,123
1,66,0,4
1,38,0,0
1,57,0,1
1,39,127,0
1,58,127,0
1,63,127,0
1,67,127,1
1,39,0,34
1,58,0,1
1,63,0,0
1,67,0,1
1,78,127,731
1,75,127,18
1,72,127,17
1,78,0,18
1,68,127,3
1,75,0,4
1,72,0,11
1,68,0,9
1,78,127,16
1,75,127,18
1,72,127,17
1,78,0,18
1,68,127,3
1,75,0,4
1,72,0,11
1,68,0,9
1,78,127,16
1,75,127,18
1,72,127,17
1,78,0,18
1,68,127,3
1,75,0,4
1,72,0,11
1,68,0,9
1,78,127,16
1,75,127,18
1,72,127,17
1,78,0,18
1,68,127,3
1,75,0,4
1,72,0,11
1,68,0,9
1,75,127,16
1,78,127,5
1,75,0,43
1,75,127,18
1,78,0,10
1,75,0,10
1,78,127,21
1,75,127,2
1,75,0,25
1,78,0,12
1,75,127,18
1,80,127,0
1,75,0,24
1,80,0,3
1,80,127,9
1,82,127,3
1,75,127,1
1,75,0,12
1,80,0,0
1,82,0,25
1,75,127,17
1,75,0,20
1,78,127,22
1,90,127,1
1,90,0,31
1,78,0,8
1,92,127,7
1,80,127,5
1,80,0,29
1,92,0,0
1,78,127,9
1,90,127,2
1,91,127,18
1,90,0,1
1,78,0,1
1,79,127,0
1,91,0,37
1,79,0,9
1,87,127,22
1,75,127,0
1,75,0,47
1,87,0,4
1,75,127,45
1,87,127,0
1,87,0,176
1,75,0,0
1,87,127,82
1,87,0,25
1,91,127,13
1,94,127,5
1,91,0,51
1,96,127,1
1,96,0,27
1,91,127,9
1,91,0,50
1,87,127,0
1,94,0,1
1,87,0,32
1,94,127,13
1,91,127,0
1,91,0,47
1,96,127,5
1,94,0,27
1,96,0,2
1,62,127,10
1,68,127,0
1,91,127,2
1,94,127,0
1,94,0,44
1,91,0,0
1,87,127,15
1,87,0,20
1,94,127,20
1,91,127,0
1,91,0,45
1,96,127,13
1,94,0,20
1,96,0,7
1,94,127,6
1,91,127,5
1,91,0,54
1,94,0,2
1,68,0,33
1,62,0,0
1,60,127,98
1,66,127,0
1,94,127,5
1,84,127,0
1,90,127,1
1,84,0,40
1,90,0,12
1,94,0,5
1,90,127,44
1,94,127,3
1,84,127,2
1,84,0,40
1,94,0,9
1,90,0,15
1,84,127,22
1,92,127,2
1,92,0,77
1,60,0,0
1,66,0,1
1,84,0,2
1,87,127,152
1,99,127,1
1,99,0,22
1,87,0,1
1,85,127,24
1,97,127,1
1,97,0,24
1,85,0,1
1,82,127,22
1,94,127,1
1,94,0,28
1,82,0,0
1,80,127,19
1,92,127,1
1,80,0,25
1,92,0,4
1,78,127,18
1,90,127,1
1,78,0,25
1,90,0,2
1,87,127,20
1,75,127,0
1,75,0,30
1,87,0,0
1,84,127,18
1,72,127,0
1,84,0,17
1,72,0,6
1,82,127,25
1,70,127,0
1,82,0,177
1,70,0,2
1,32,127,205
1,32,0,72
1,36,127,24
1,36,0,72
1,39,127,24
1,60,127,4
1,66,127,0
1,56,127,0
1,39,0,68
1,60,0,5
1,66,0,0
1,56,0,0
1,41,127,19
1,41,0,72
1,42,127,24
1,60,127,8
1,66,127,0
1,56,127,61
1,42,0,3
1,66,0,8
1,60,0,2
1,56,0,12
1,41,127,2
1,41,0,72
1,39,127,24
1,56,127,64
1,39,0,8
1,56,0,14
1,36,127,10
1,63,127,3
1,60,127,0
1,66,127,0
1,60,0,59
1,63,0,8
1,36,0,2
1,66,0,0
1,27,127,24
1,67,127,4
1,63,127,1
1,27,0,67
1,31,127,24
1,31,0,72
1,34,127,24
1,63,0,48
1,67,0,0
1,34,0,24
1,36,127,24
1,36,0,72
1,39,127,22
1,39,0,72
1,36,127,25
1,36,0,72
1,34,127,27
1,34,0,72
1,31,127,21
1,31,0,72
1,62,127,23
1,34,127,0
1,70,127,2
1,65,127,1
1,34,0,69
1,38,127,26
1,38,0,72
1,41,127,23
1,41,0,72
1,43,127,27
1,62,0,30
1,70,0,8
1,65,0,25
1,43,0,9
1,68,127,20
1,32,127,1
1,63,127,0
1,60,127,0
1,32,0,72
1,36,127,22
1,36,0,72
1,39,127,26
1,63,0,48
1,39,0,24
1,41,127,23
1,68,0,10
1,60,0,7
1,41,0,55
1,63,127,24
1,58,127,0
1,67,127,2
1,39,127,2
1,39,0,72
1,36,127,19
1,36,0,72
1,34,127,24
1,34,0,72
1,36,127,26
1,67,0,34
1,63,0,7
1,58,0,4
1,36,0,27
1,39,127,25
1,39,0,72
1,36,127,24
1,36,0,36
1,34,127,27
1,38,127,87
1,66,127,8
1,62,127,0
1,57,127,0
1,34,0,1
1,38,0,123
1,67,127,3
1,39,127,0
1,62,0,1
1,57,0,0
1,66,0,0
1,63,127,3
1,58,127,0
1,67,0,333
1,39,0,0
1,63,0,4
1,58,0,0
1,62,127,60
1,66,127,1
1,38,127,1
1,57,127,2
1,62,0,124
1,66,0,1
1,38,0,1
1,63,127,0
1,57,0,2
1,39,127,0
1,58,127,1
1,67,127,1
1,63,0,334
1,39,0,2
1,58,0,1
1,67,0,1
1,66,127,59
1,38,127,1
1,57,127,2
1,62,127,2
1,66,0,123
1,38,0,1
1,67,127,1
1,39,127,0
1,57,0,1
1,63,127,0
1,62,0,2
1,58,127,0
1,39,0,333
1,67,0,0
1,63,0,1
1,58,0,2
1,57,127,60
1,66,127,3
1,38,127,1
1,62,127,0
1,57,0,124
1,66,0,3
1,67,127,0
1,38,0,1
1,62,0,0
1,63,127,0
1,58,127,0
1,39,127,2
1,67,0,33
1,63,0,1
1,58,0,0
1,39,0,2
1,81,127,639
1,82,127,2
1,87,127,3
1,81,0,13
1,82,0,19
1,87,0,7
1,87,127,16
1,82,127,0
1,82,0,21
1,87,0,2
1,82,127,15
1,87,127,1
1,82,0,29
1,87,0,9
1,87,127,10
1,82,127,2
1,82,0,22
1,87,0,6
1,87,127,14
1,82,127,0
1,82,0,28
1,87,0,5
1,87,127,21
1,82,127,0
1,82,0,22
1,87,0,6
1,78,127,10
1,90,127,0
1,78,0,34
1,90,0,4
1,78,127,21
1,90,127,0
1,78,0,17
1,90,0,2
1,80,127,18
1,92,127,0
1,92,0,23
1,80,0,12
