track,note,velocity,time
1,69,109,1
1,69,0,63
1,69,87,95
1,69,0,89
1,69,76,55
1,73,98,84
1,69,0,2
1,73,0,42
1,73,87,60
1,73,0,104
1,69,98,234
1,69,0,139
1,69,67,113
1,69,0,74
1,69,76,81
1,73,98,84
1,69,0,2
1,73,0,23
1,69,87,397
1,69,0,65
1,69,76,78
1,69,0,42
1,69,87,52
1,69,0,102
1,73,57,133
1,73,0,71
1,73,76,62
1,73,0,56
1,76,87,3
1,76,0,93
1,79,98,2
1,79,0,102
1,76,87,4
1,76,0,116
1,72,98,3
1,72,0,76
1,69,87,106
1,69,0,90
1,72,109,75
1,72,0,96
1,69,109,157
1,69,0,35
1,76,87,649
1,76,0,95
1,76,87,52
1,76,0,109
1,74,109,63
1,74,0,106
1,72,87,55
1,72,0,92
1,69,87,67
1,69,0,88
1,69,120,136
1,69,0,61
1,76,98,1654
1,76,0,99
1,76,76,60
1,76,0,49
1,76,76,38
1,76,0,78
1,76,72,60
1,76,0,50
1,76,87,30
1,76,0,79
1,76,87,72
1,76,0,77
1,64,72,174
1,64,0,63
1,66,98,28
1,66,0,79
1,66,72,67
1,66,0,78
1,69,76,4
1,69,0,48
1,69,76,56
1,69,0,41
1,71,109,2
1,71,0,54
1,73,98,126
1,73,0,29
1,69,98,4
1,69,0,53
1,69,98,4
1,69,0,71
1,69,76,1548
1,69,0,93
1,69,76,83
1,69,0,47
1,69,87,52
1,69,0,104
1,69,87,112
1,69,0,2
1,73,87,22
1,73,0,298
1,69,98,292
1,69,0,75
1,69,62,64
1,69,0,9
1,69,98,4
1,69,0,101
1,64,120,34
1,64,0,149
1,69,109,421
1,69,0,75
1,69,67,81
1,69,0,27
1,69,109,55
1,69,0,113
1,73,109,108
1,73,0,8
1,69,109,94
1,69,0,92
1,69,109,166
1,69,0,6
1,69,72,84
1,69,0,40
1,69,109,6
1,69,0,26
1,64,109,58
1,64,0,119
1,69,98,1
1,69,0,19
1,69,52,82
1,69,0,28
1,69,87,54
1,69,0,81
1,73,98,4
1,73,0,77
1,69,109,1
1,69,0,101
1,69,62,139
1,69,0,29
1,69,109,8
1,69,0,24
1,69,87,130
1,69,0,63
1,73,120,4
1,73,0,76
1,69,98,3
1,69,0,68
1,69,87,6
1,69,0,103
1,73,109,3
1,73,0,92
1,73,72,15
1,73,0,4
1,76,87,27
1,76,0,88
1,79,76,1
1,79,0,113
1,79,76,111
1,79,0,51
1,76,72,3
1,76,0,80
1,73,98,1
1,73,0,63
1,69,98,7
1,69,0,16
1,72,98,2
1,72,0,122
1,69,109,4
1,69,0,87
1,76,87,4
1,76,0,15
1,76,87,3
1,76,0,48
1,74,109,3
1,74,0,41
1,72,87,4
1,72,0,40
1,69,87,67
1,69,0,27
1,69,120,136
1,69,0,126
1,76,98,1
1,76,0,28
1,76,76,60
1,76,0,49
1,76,76,38
1,76,0,78
1,76,72,60
1,76,0,50
1,76,87,30
1,76,0,79
1,76,87,72
1,76,0,77
1,64,72,174
1,64,0,63
1,66,98,28
1,66,0,79
1,66,72,67
1,66,0,78
1,69,76,8
1,69,0,48
1,69,76,56
1,69,0,41
1,71,109,6
1,71,0,46
1,73,98,4
1,73,0,61
1,69,98,6
1,69,0,75
1,69,98,2
1,69,0,21
1,69,76,12993
1,69,0,50
1,69,87,8
1,69,0,36
1,69,76,60
1,69,0,51
1,69,76,29
1,69,0,2
1,69,87,75
1,69,0,4
1,72,62,28
1,73,87,52
1,72,0,8
1,73,0,62
1,69,109,357
1,69,0,148
1,69,98,92
1,69,0,100
1,64,109,30
1,64,0,132
1,69,98,464
1,69,0,108
1,69,109,123
1,69,0,106
1,73,98,127
1,73,0,72
1,73,98,76
1,73,0,77
1,69,109,14
1,69,0,88
1,69,76,86
1,69,0,42
1,69,98,49
1,69,0,111
1,69,98,144
1,69,0,88
1,64,98,57
1,64,0,158
1,69,87,424
1,69,0,60
1,69,76,68
1,69,0,51
1,69,87,52
1,69,0,73
1,72,76,84
1,73,87,14
1,72,0,6
1,73,0,106
1,69,98,122
1,69,0,107
1,69,48,130
1,69,0,26
1,69,87,70
1,69,0,88
1,69,87,108
1,69,0,64
1,72,72,71
1,73,76,19
1,72,0,1
1,73,0,104
1,69,87,459
1,69,0,101
1,69,87,132
1,69,0,100
1,73,87,134
1,73,0,87
1,73,87,64
1,73,0,64
1,76,87,39
1,76,0,3
1,79,87,1
1,79,0,95
1,79,76,122
1,79,0,42
1,76,87,61
1,76,0,100
1,72,109,139
1,72,0,117
1,69,76,121
1,69,0,103
1,72,109,45
1,72,0,104
1,69,109,30
1,69,0,139
1,76,87,649
1,76,0,95
1,76,87,52
1,76,0,109
1,74,109,63
1,74,0,106
1,72,87,55
1,72,0,92
1,69,87,67
1,69,0,88
1,69,120,3
1,69,0,49
1,76,98,1654
1,76,0,99
1,76,76,60
1,76,0,49
1,76,76,38
1,76,0,78
1,76,72,60
1,76,0,50
1,76,87,30
1,76,0,79
1,76,87,72
1,76,0,77
1,64,72,174
1,64,0,63
1,66,98,28
1,66,0,79
1,66,72,67
1,66,0,78
1,69,76,14
1,69,0,96
1,69,76,56
1,69,0,41
1,71,109,49
1,71,0,104
1,73,98,126
1,73,0,105
1,69,98,135
1,69,0,33
1,69,98,4
1,69,0,23
1,69,87,12999
1,69,0,48
1,69,87,42
1,69,0,82
1,69,87,68
1,69,0,41
1,69,109,39
1,69,0,128
1,69,98,118
1,69,0,71
1,69,76,64
1,69,0,64
1,73,98,32
1,73,0,8
1,73,98,4
1,73,0,73
1,69,109,5
1,69,0,71
1,69,87,124
1,69,0,77
1,69,87,76
1,69,0,1
1,73,87,8
1,73,0,3
1,69,87,397
1,69,0,59
1,69,87,88
1,69,0,45
1,69,87,1
1,69,0,56
1,73,76,110
1,73,0,87
1,73,87,61
1,73,0,63
1,76,109,1
1,76,0,78
1,79,76,1
1,79,0,98
1,79,87,64
1,79,0,145
1,79,98,95
1,79,0,179
1,76,87,80
1,76,0,116
1,79,109,44
1,79,0,88
1,69,109,16
1,69,0,67
1,76,87,649
1,76,0,95
1,76,87,52
1,76,0,109
1,74,109,63
1,74,0,106
1,72,87,55
1,72,0,92
1,69,87,67
1,69,0,88
1,69,120,3
1,69,0,5
1,76,98,1627
1,76,0,99
1,76,76,60
1,76,0,49
1,76,76,38
1,76,0,78
1,76,72,60
1,76,0,50
1,76,87,30
1,76,0,79
1,76,87,72
1,76,0,77
1,64,72,174
1,64,0,63
1,66,98,28
1,66,0,79
1,66,72,67
1,66,0,78
1,69,76,14
1,69,0,96
1,69,76,56
1,69,0,41
1,71,109,49
1,71,0,104
1,73,98,126
1,73,0,105
1,69,98,135
1,69,0,121
1,69,98,4
1,69,0,43
1,67,87,1478
1,67,0,94
1,69,67,5
1,69,0,112
1,69,87,255
1,69,0,112
1,69,87,222
1,69,0,115
1,69,98,366
1,69,0,128
1,69,109,130
1,69,0,105
1,73,87,8
1,73,0,68
1,69,76,491
1,69,0,112
1,69,87,220
1,69,0,108
1,69,98,377
1,69,0,113
1,69,98,128
1,69,0,118
1,73,109,5
1,73,0,46
1,69,109,537
1,69,0,116
1,69,109,215
1,69,0,118
1,69,98,348
1,69,0,139
1,69,87,105
1,69,0,119
1,72,120,1
1,72,0,93
1,69,109,504
1,69,0,112
1,69,98,208
1,69,0,120
1,69,109,377
1,69,0,94
1,69,87,150
1,69,0,120
1,73,98,8
1,73,0,7
1,76,109,120
1,76,0,91
1,76,76,54
1,76,0,51
1,76,87,52
1,76,0,89
1,76,72,61
1,76,0,44
1,76,76,47
1,76,0,104
1,78,98,41
1,78,0,76
1,64,98,158
1,66,87,97
1,64,0,17
1,66,0,79
1,69,87,51
1,69,0,125
1,69,76,107
1,69,0,44
1,71,98,54
1,71,0,115
1,73,98,1
1,73,0,33
1,69,98,123
1,69,0,136
1,67,98,8
1,67,0,98
1,69,87,135
1,69,0,112
1,69,87,222
1,69,0,115
1,69,98,366
1,69,0,128
1,69,109,130
1,69,0,9
1,69,109,4
1,69,0,570
2,33,91,960
2,33,0,120
2,31,91,602
2,31,0,240
2,33,91,0
2,33,0,178
2,31,80,540
2,31,0,240
2,33,91,0
2,33,0,180
2,33,91,300
2,33,0,240
2,33,80,240
2,33,0,240
2,35,91,0
2,35,0,240
2,36,70,0
2,36,0,240
2,37,80,0
2,37,0,230
2,38,91,10
2,38,0,240
2,42,80,0
2,42,0,240
2,45,80,0
2,45,0,240
2,47,75,0
2,47,0,240
2,50,80,0
2,50,0,240
2,47,91,0
2,45,75,240
2,47,0,2
2,45,0,240
2,42,80,0
2,42,0,238
2,33,102,2
2,37,80,238
2,33,0,2
2,40,91,238
2,37,0,2
2,40,0,238
2,42,65,0
2,42,0,240
2,45,91,0
2,42,75,240
2,45,0,60
2,42,0,180
2,40,75,0
2,40,0,240
2,37,80,0
2,37,0,240
2,40,80,0
2,40,0,240
2,44,80,0
2,44,0,240
2,47,91,0
2,47,0,242
2,49,50,0
2,49,0,240
2,52,80,0
2,52,0,238
2,49,80,2
2,47,80,238
2,49,0,2
2,47,0,238
2,44,80,2
2,44,0,178
2,33,91,60
2,33,0,240
2,37,91,0
2,37,0,240
2,40,91,0
2,40,0,240
2,42,75,0
2,42,0,240
2,45,75,0
2,45,0,240
2,42,75,0
2,42,0,240
2,40,91,0
2,40,0,240
2,37,80,0
2,37,0,240
2,33,91,0
2,33,0,120
2,31,91,600
2,31,0,240
2,33,91,0
2,33,0,120
2,31,80,602
2,33,91,238
2,31,0,2
2,33,0,118
2,31,80,600
2,31,0,240
2,33,91,0
2,33,0,120
2,31,91,600
2,31,0,240
2,33,91,0
2,33,0,120
2,31,91,600
2,33,91,240
2,31,0,2
2,33,0,178
2,31,80,540
2,33,91,240
2,31,0,2
2,33,0,178
2,33,91,300
2,33,0,240
2,33,80,240
2,33,0,240
2,35,91,0
2,35,0,240
2,36,70,0
2,36,0,240
2,37,80,0
2,37,0,230
2,38,91,10
2,38,0,242
2,42,80,0
2,42,0,238
2,45,80,0
2,45,0,240
2,47,75,0
2,47,0,240
2,50,80,0
2,50,0,240
2,47,91,0
2,47,0,240
2,45,75,0
2,45,0,242
2,42,80,0
2,42,0,240
2,33,102,0
2,37,80,238
2,33,0,2
2,40,91,238
2,37,0,2
2,40,0,238
2,42,65,2
2,42,0,238
2,45,91,0
2,42,75,240
2,45,0,60
2,42,0,180
2,40,75,0
2,40,0,240
2,37,80,0
2,37,0,240
2,40,80,0
2,40,0,240
2,44,80,0
2,44,0,240
2,47,91,0
2,47,0,240
2,49,50,0
2,49,0,240
2,52,80,2
2,52,0,238
2,49,80,2
2,47,80,238
2,49,0,2
2,47,0,238
2,44,80,2
2,44,0,178
2,33,91,60
2,37,91,240
2,33,0,2
2,37,0,238
2,40,91,0
2,40,0,240
2,42,75,0
2,42,0,240
2,45,75,0
2,45,0,240
2,42,75,0
2,42,0,240
2,40,91,0
2,40,0,240
2,37,80,0
2,37,0,240
2,33,102,0
2,33,0,240
2,37,80,0
2,40,91,240
2,37,0,2
2,40,0,240
2,42,75,0
2,42,0,238
2,45,75,0
2,42,70,240
2,45,0,62
2,42,0,178
2,40,91,0
2,40,0,242
2,37,91,0
2,37,0,238
2,33,91,2
2,37,80,238
2,33,0,2
2,40,91,238
2,37,0,2
2,42,75,238
2,40,0,2
2,45,80,238
2,42,0,2
2,45,0,238
2,42,75,0
2,42,0,240
2,40,80,0
2,40,0,240
2,37,91,0
2,37,0,240
2,38,91,0
2,38,0,240
2,42,91,0
2,42,0,240
2,45,80,0
2,45,0,240
2,47,70,0
2,47,0,240
2,50,70,0
2,47,75,240
2,50,0,2
2,47,0,240
2,45,75,0
2,42,75,238
2,45,0,2
2,42,0,238
2,33,65,2
2,37,91,238
2,33,0,2
2,37,0,238
2,40,80,0
2,40,0,240
2,42,75,0
2,42,0,240
2,45,80,0
2,45,0,240
2,42,80,0
2,42,0,240
2,40,91,0
2,40,0,240
2,37,80,0
2,37,0,240
2,40,91,0
2,40,0,240
2,44,80,0
2,44,0,242
2,47,91,0
2,49,80,238
2,47,0,2
2,49,0,240
2,52,80,0
2,52,0,238
2,49,80,2
2,47,80,238
2,49,0,2
2,47,0,238
2,44,80,2
2,44,0,178
2,33,113,62
2,33,0,238
2,37,91,2
2,40,91,238
2,37,0,2
2,42,80,238
2,40,0,2
2,45,91,238
2,42,0,2
2,45,0,238
2,42,70,0
2,42,0,240
2,40,80,0
2,40,0,240
2,37,91,0
2,37,0,230
2,33,91,10
2,33,0,120
2,31,91,600
2,31,0,240
2,33,91,0
2,33,0,120
2,31,80,602
2,33,91,238
2,31,0,2
2,33,0,118
2,31,80,600
2,31,0,240
2,33,91,0
2,33,0,120
2,31,91,600
2,31,0,240
2,33,91,0
2,33,0,120
2,31,91,602
2,33,91,238
2,31,0,2
2,33,0,178
2,31,80,540
2,31,0,240
2,33,91,0
2,33,0,180
2,33,91,302
2,33,0,238
2,33,80,240
2,35,91,240
2,33,0,2
2,35,0,238
2,36,70,0
2,36,0,240
2,37,80,0
2,37,0,230
2,38,91,12
2,38,0,238
2,42,80,0
2,42,0,240
2,45,80,0
2,45,0,240
2,47,75,0
2,47,0,240
2,50,80,0
2,50,0,240
2,47,91,0
2,45,75,240
2,47,0,2
2,45,0,240
2,42,80,0
2,42,0,238
2,33,102,2
2,37,80,238
2,33,0,2
2,40,91,238
2,37,0,2
2,40,0,238
2,42,65,0
2,42,0,240
2,45,91,0
2,42,75,240
2,45,0,60
2,42,0,180
2,40,75,0
2,40,0,240
2,37,80,0
2,37,0,240
2,40,80,0
2,40,0,240
2,44,80,0
2,44,0,240
2,47,91,0
2,47,0,242
2,49,50,0
2,49,0,240
2,52,80,0
2,52,0,238
2,49,80,2
2,47,80,238
2,49,0,2
2,47,0,238
2,44,80,2
2,44,0,178
2,33,91,60
2,33,0,242
2,37,91,0
2,40,91,238
2,37,0,2
2,42,75,238
2,40,0,2
2,45,75,238
2,42,0,2
2,42,75,238
2,45,0,2
2,42,0,238
2,40,91,0
2,40,0,240
2,37,80,0
2,37,0,240
2,33,102,0
2,33,0,240
2,37,80,0
2,37,0,240
2,40,91,0
2,40,0,240
2,42,75,0
2,42,0,240
2,45,75,0
2,42,70,240
2,45,0,60
2,42,0,182
2,40,91,0
2,37,91,238
2,40,0,2
2,37,0,238
2,33,91,2
2,37,80,238
2,33,0,2
2,40,91,238
2,37,0,2
2,42,75,238
2,40,0,2
2,42,0,238
2,45,80,0
2,45,0,240
2,42,75,0
2,42,0,240
2,40,80,0
2,40,0,240
2,37,91,0
2,37,0,240
2,38,91,0
2,38,0,240
2,42,91,0
2,42,0,240
2,45,80,0
2,45,0,240
2,47,70,0
2,50,70,240
2,47,0,2
2,47,75,238
2,50,0,2
2,45,75,238
2,47,0,2
2,42,75,238
2,45,0,2
2,42,0,238
2,33,65,2
2,33,0,238
2,37,91,0
2,37,0,240
2,40,80,0
2,42,75,240
2,40,0,2
2,45,80,238
2,42,0,2
2,42,80,238
2,45,0,2
2,40,91,238
2,42,0,2
2,40,0,238
2,37,80,0
2,37,0,240
2,40,91,0
2,40,0,240
2,44,80,0
2,44,0,240
2,47,91,0
2,47,0,240
2,49,80,0
2,49,0,240
2,52,80,2
2,52,0,238
2,49,80,2
2,47,80,238
2,49,0,2
2,47,0,238
2,44,80,2
2,44,0,178
2,33,113,62
2,33,0,238
2,37,91,2
2,40,91,238
2,37,0,2
2,42,80,238
2,40,0,2
2,42,0,238
2,45,91,0
2,45,0,240
2,42,70,0
2,42,0,240
2,40,80,0
2,40,0,240
2,37,91,0
2,37,0,230
2,33,91,10
2,33,0,120
2,31,91,600
2,31,0,240
2,33,91,0
2,33,0,182
2,31,80,540
2,33,91,238
2,31,0,2
2,33,0,178
2,33,91,302
2,33,0,238
2,33,80,240
2,33,0,240
2,35,91,0
2,35,0,240
2,36,70,0
2,36,0,240
2,37,80,0
2,37,0,232
2,38,91,8
2,38,0,240
