track,note,velocity,time
1,39,112,1774
1,40,112,6
1,39,112,102
1,40,112,6
1,39,112,102
1,40,112,6
1,39,112,102
1,40,112,6
1,39,112,102
1,40,112,6
1,39,112,102
1,40,112,6
1,28,108,1638
1,30,103,6
1,32,106,32
1,33,103,6
1,37,101,6
1,40,106,16
1,42,102,6
1,33,100,6
1,37,94,6
1,40,103,6
1,42,101,6
1,28,104,14
1,32,100,6
1,35,103,6
1,37,99,28
1,28,104,6
1,32,100,6
1,35,100,6
1,37,98,6
1,35,108,36
1,39,106,38
1,42,104,6
1,44,104,36
1,33,103,6
1,37,103,6
1,40,106,6
1,42,103,52
1,28,106,6
1,32,101,6
1,35,105,6
1,37,99,6
1,28,105,10
1,32,103,6
1,35,102,6
1,39,112,6
1,40,112,6
1,39,112,102
1,40,112,6
1,39,112,102
1,40,112,6
1,39,112,102
1,40,112,6
1,28,108,1638
1,30,103,6
1,32,106,32
1,33,103,6
1,37,101,6
1,40,106,16
1,42,102,6
1,33,100,6
1,37,94,6
1,40,103,6
1,42,101,6
1,28,104,14
1,32,100,6
1,35,103,6
1,37,99,28
1,28,104,6
1,32,100,6
1,35,100,6
1,37,98,6
1,35,108,36
1,39,106,38
1,42,104,6
1,44,104,36
1,33,103,6
1,37,103,6
1,40,106,6
1,42,103,52
1,28,106,6
1,32,101,6
1,35,105,6
1,37,99,6
1,28,105,10
1,32,103,6
1,35,102,6
1,39,112,6
1,40,112,6
1,39,112,102
1,40,112,6
1,39,112,102
1,40,112,6
1,39,112,102
1,40,112,6
1,28,108,1638
1,30,103,6
1,32,106,32
1,33,103,6
1,37,101,6
1,40,106,16
1,42,102,6
1,33,100,6
1,37,94,6
1,40,103,6
1,42,101,6
1,28,104,14
1,32,100,6
1,35,103,6
1,37,99,28
1,28,104,6
1,32,100,6
1,35,100,6
1,37,98,6
1,35,108,36
1,39,106,38
1,42,104,6
1,44,104,36
1,33,103,6
1,37,103,6
1,40,106,6
1,42,103,52
1,28,106,6
1,32,101,6
1,35,105,6
1,37,99,6
1,28,105,10
1,32,103,6
1,35,102,6
1,37,102,26
1,33,108,26
1,37,102,38
1,40,104,6
1,42,104,6
1,43,104,6
1,42,102,6
1,40,105,6
1,37,101,6
1,28,103,66
1,32,101,6
1,35,101,6
1,37,102,6
1,38,103,6
1,37,97,10
1,35,99,6
1,32,100,6
1,35,105,16
1,39,101,6
1,42,98,6
1,44,98,6
1,33,103,6
1,37,96,6
1,40,102,6
1,42,98,6
1,28,104,18
1,32,99,6
1,35,99,6
1,37,98,12
1,40,102,6
1,37,98,8
1,35,97,6
1,39,112,6
1,40,112,6
1,39,112,102
1,40,112,6
1,39,112,102
1,40,112,6
1,39,112,102
1,40,112,6
1,28,108,1638
1,30,103,6
1,32,106,32
1,33,103,6
1,37,101,6
1,40,106,16
1,42,102,6
1,33,100,6
1,37,94,6
1,40,103,6
1,42,101,6
1,28,104,14
1,32,100,6
1,35,103,6
1,37,99,28
1,28,104,6
1,32,100,6
1,35,100,6
1,37,98,6
1,35,108,36
1,39,106,38
1,42,104,6
1,44,104,36
1,33,103,6
1,37,103,6
1,40,106,6
1,42,103,52
1,28,106,6
1,32,101,6
1,35,105,6
1,37,99,6
1,28,105,10
1,32,103,6
1,35,102,6
1,39,112,6
1,40,112,6
1,39,112,102
1,40,112,6
1,39,112,102
1,40,112,6
1,39,112,102
1,40,112,6
1,28,108,1638
1,30,103,6
1,32,106,32
1,33,103,6
1,37,101,6
1,40,106,16
1,42,102,6
1,33,100,6
1,37,94,6
1,40,103,6
1,42,101,6
1,28,104,14
1,32,100,6
1,35,103,6
1,37,99,28
1,28,104,6
1,32,100,6
1,35,100,6
1,37,98,6
1,35,108,36
1,39,106,38
1,42,104,6
1,44,104,36
1,33,103,6
1,37,103,6
1,40,106,6
1,42,103,52
1,28,106,6
1,32,101,6
1,35,105,6
1,37,99,6
1,28,106,10
1,32,101,6
1,35,105,6
1,37,99,6
1,28,106,10
1,32,101,6
1,35,105,6
1,37,99,6
1,28,106,10
1,32,101,6
1,35,105,6
1,37,99,6
1,28,106,10
1,32,101,6
1,35,105,6
1,37,99,6
1,28,106,10
1,32,101,6
1,35,105,6
1,37,99,6
1,28,106,10
1,32,101,6
1,35,105,6
1,37,99,6
1,28,106,10
1,32,101,6
1,35,105,6
1,37,99,6
1,28,106,10
2,63,97,1572
2,58,103,10
2,55,100,8
2,51,97,8
2,46,78,8
2,47,78,2
2,52,99,6
2,56,99,8
2,59,99,6
2,64,99,8
2,63,97,14
2,58,103,10
2,55,100,8
2,51,97,8
2,46,78,8
2,47,78,2
2,52,99,6
2,56,99,8
2,59,99,6
2,64,99,8
2,63,97,14
2,58,103,10
2,55,100,8
2,51,97,8
2,46,78,8
2,47,78,2
2,52,99,6
2,56,99,8
2,59,99,6
2,64,99,8
2,63,97,14
2,58,103,10
2,55,100,8
2,51,97,8
2,46,78,8
2,47,78,2
2,52,99,6
2,56,99,8
2,59,99,6
2,64,99,8
2,63,97,14
2,58,103,10
2,55,100,8
2,51,97,8
2,46,78,8
2,47,78,2
2,52,99,6
2,56,99,8
2,59,99,6
2,64,99,8
2,63,97,14
2,58,103,10
2,55,100,8
2,51,97,8
2,46,78,8
2,47,78,2
2,52,99,6
2,56,99,8
2,59,99,6
2,64,99,8
2,45,93,2718
2,45,94,6
2,49,88,6
2,49,90,6
2,52,93,6
2,52,84,6
2,54,93,6
2,52,90,6
2,45,92,6
2,45,92,6
2,49,84,6
2,49,88,6
2,52,90,6
2,52,94,6
2,54,88,6
2,52,90,6
2,40,94,6
2,40,96,6
2,44,76,6
2,44,86,6
2,47,90,6
2,47,86,6
2,49,88,6
2,47,80,6
2,40,94,6
2,40,94,6
2,44,80,6
2,44,86,6
2,47,90,6
2,47,90,6
2,49,88,6
2,47,90,6
2,47,98,6
2,47,92,6
2,51,92,6
2,51,92,6
2,54,90,6
2,54,88,6
2,56,96,6
2,54,82,6
2,45,98,6
2,45,100,6
2,49,88,6
2,49,92,6
2,52,90,6
2,52,90,6
2,54,80,6
2,52,90,6
2,40,96,6
2,40,96,6
2,44,78,6
2,44,84,6
2,47,88,6
2,47,88,6
2,49,88,6
2,47,86,6
2,40,96,6
2,40,96,6
2,44,84,6
2,44,86,6
2,47,94,6
2,63,97,54
2,58,103,10
2,55,100,8
2,51,97,8
2,46,78,8
2,47,78,2
2,52,99,6
2,56,99,8
2,59,99,6
2,64,99,8
2,63,97,14
2,58,103,10
2,55,100,8
2,51,97,8
2,46,78,8
2,47,78,2
2,52,99,6
2,56,99,8
2,59,99,6
2,64,99,8
2,63,97,14
2,58,103,10
2,55,100,8
2,51,97,8
2,46,78,8
2,47,78,2
2,52,99,6
2,56,99,8
2,59,99,6
2,64,99,8
2,63,97,14
2,58,103,10
2,55,100,8
2,51,97,8
2,46,78,8
2,47,78,2
2,52,99,6
2,56,99,8
2,59,99,6
2,64,99,8
2,45,93,2718
2,45,94,6
2,49,88,6
2,49,90,6
2,52,93,6
2,52,84,6
2,54,93,6
2,52,90,6
2,45,92,6
2,45,92,6
2,49,84,6
2,49,88,6
2,52,90,6
2,52,94,6
2,54,88,6
2,52,90,6
2,40,94,6
2,40,96,6
2,44,76,6
2,44,86,6
2,47,90,6
2,47,86,6
2,49,88,6
2,47,80,6
2,40,94,6
2,40,94,6
2,44,80,6
2,44,86,6
2,47,90,6
2,47,90,6
2,49,88,6
2,47,90,6
2,47,98,6
2,47,92,6
2,51,92,6
2,51,92,6
2,54,90,6
2,54,88,6
2,56,96,6
2,54,82,6
2,45,98,6
2,45,100,6
2,49,88,6
2,49,92,6
2,52,90,6
2,52,90,6
2,54,80,6
2,52,90,6
2,40,96,6
2,40,96,6
2,44,78,6
2,44,84,6
2,47,88,6
2,47,88,6
2,49,88,6
2,47,86,6
2,40,96,6
2,40,96,6
2,44,84,6
2,44,86,6
2,47,94,6
2,63,97,54
2,58,103,10
2,55,100,8
2,51,97,8
2,46,78,8
2,47,78,2
2,52,99,6
2,56,99,8
2,59,99,6
2,64,99,8
2,63,97,14
2,58,103,10
2,55,100,8
2,51,97,8
2,46,78,8
2,47,78,2
2,52,99,6
2,56,99,8
2,59,99,6
2,64,99,8
2,63,97,14
2,58,103,10
2,55,100,8
2,51,97,8
2,46,78,8
2,47,78,2
2,52,99,6
2,56,99,8
2,59,99,6
2,64,99,8
2,63,97,14
2,58,103,10
2,55,100,8
2,51,97,8
2,46,78,8
2,47,78,2
2,52,99,6
2,56,99,8
2,59,99,6
2,64,99,8
2,45,93,2718
2,45,94,6
2,49,88,6
2,49,90,6
2,52,93,6
2,52,84,6
2,54,93,6
2,52,90,6
2,45,92,6
2,45,92,6
2,49,84,6
2,49,88,6
2,52,90,6
2,52,94,6
2,54,88,6
2,52,90,6
2,40,94,6
2,40,96,6
2,44,76,6
2,44,86,6
2,47,90,6
2,47,86,6
2,49,88,6
2,47,80,6
2,40,94,6
2,40,94,6
2,44,80,6
2,44,86,6
2,47,90,6
2,47,90,6
2,49,88,6
2,47,90,6
2,47,98,6
2,47,92,6
2,51,92,6
2,51,92,6
2,54,90,6
2,54,88,6
2,56,96,6
2,54,82,6
2,45,98,6
2,45,100,6
2,49,88,6
2,49,92,6
2,52,90,6
2,52,90,6
2,54,80,6
2,52,90,6
2,40,96,6
2,40,96,6
2,44,78,6
2,44,84,6
2,47,88,6
2,47,88,6
2,49,88,6
2,47,86,6
2,40,96,6
2,40,96,6
2,44,78,6
2,44,84,6
2,47,88,6
2,47,82,6
2,49,65,6
2,47,71,6
2,67,107,226
2,76,107,6
2,67,99,38
2,76,106,2
2,67,110,94
2,76,111,12
2,67,108,78
2,76,110,4
2,67,109,52
2,76,109,10
2,67,112,82
2,76,113,4
2,76,106,58
2,67,106,6
2,67,111,76
2,76,115,2
2,67,114,90
2,76,115,0
2,76,109,62
2,67,107,14
2,67,113,76
2,76,113,0
2,68,118,12
2,68,118,2
2,68,112,28
2,68,111,78
2,68,117,82
2,68,109,60
2,68,117,66
2,68,108,72
2,68,113,50
2,68,107,96
2,59,86,206
2,63,86,0
2,69,86,4
2,71,86,6
2,63,97,0
2,69,96,6
2,71,96,8
2,69,94,18
2,63,89,2
2,59,105,18
2,63,99,0
2,69,93,16
2,71,90,12
2,69,81,8
2,63,80,4
2,59,82,8
2,59,85,8
2,63,85,2
2,69,85,12
2,71,85,18
2,59,86,6
2,63,86,2
2,69,86,0
2,71,86,6
2,69,86,0
2,67,86,2
2,61,86,10
2,57,86,6
2,61,97,6
2,67,96,6
2,69,96,6
2,67,94,18
2,61,89,10
2,57,105,6
2,61,99,6
2,67,93,6
2,69,90,6
2,67,81,8
2,61,80,4
2,57,82,8
2,57,85,8
2,61,85,2
2,67,85,12
2,69,85,10
2,57,86,0
2,61,86,6
2,67,86,6
2,69,85,6
2,52,94,4
2,56,92,12
2,64,77,10
2,68,76,12
2,52,85,10
2,52,95,2
2,57,100,0
2,61,78,0
2,69,83,12
2,57,85,8
2,52,92,0
2,56,98,0
2,64,79,10
2,68,86,10
2,56,76,12
2,52,88,8
2,52,95,2
2,57,97,0
2,61,86,0
2,69,88,12
2,61,65,2
2,57,78,14
2,52,91,10
2,52,94,2
2,56,95,2
2,64,80,8
2,68,91,8
2,64,80,12
2,56,71,6
2,52,86,0
2,56,101,2
2,64,85,0
2,68,89,8
2,52,106,0
2,56,94,2
2,64,82,0
2,68,89,10
2,63,97,2
2,58,103,10
2,55,100,4
2,51,97,8
2,46,78,6
2,47,78,2
2,52,99,6
2,56,99,8
2,59,99,6
2,64,99,8
2,63,97,14
2,58,103,10
2,55,100,8
2,51,97,8
2,46,78,8
2,47,78,2
2,52,99,6
2,56,99,8
2,59,99,6
2,64,99,8
2,63,97,14
2,58,103,10
2,55,100,8
2,51,97,8
2,46,78,8
2,47,78,2
2,52,99,6
2,56,99,8
2,59,99,6
2,64,99,8
2,63,97,14
2,58,103,10
2,55,100,8
2,51,97,8
2,46,78,8
2,47,78,2
2,52,99,6
2,56,99,8
2,59,99,6
2,64,99,8
2,45,93,2718
2,45,94,6
2,49,88,6
2,49,90,6
2,52,93,6
2,52,84,6
2,54,93,6
2,52,90,6
2,45,92,6
2,45,92,6
2,49,84,6
2,49,88,6
2,52,90,6
2,52,94,6
2,54,88,6
2,52,90,6
2,40,94,6
2,40,96,6
2,44,76,6
2,44,86,6
2,47,90,6
2,47,86,6
2,49,88,6
2,47,80,6
2,40,94,6
2,40,94,6
2,44,80,6
2,44,86,6
2,47,90,6
2,47,90,6
2,49,88,6
2,47,90,6
2,47,98,6
2,47,92,6
2,51,92,6
2,51,92,6
2,54,90,6
2,54,88,6
2,56,96,6
2,54,82,6
2,45,98,6
2,45,100,6
2,49,88,6
2,49,92,6
2,52,90,6
2,52,90,6
2,54,80,6
2,52,90,6
2,40,96,6
2,40,96,6
2,44,78,6
2,44,84,6
2,47,88,6
2,47,88,6
2,49,88,6
2,47,86,6
2,40,96,6
2,40,96,6
2,44,84,6
2,44,86,6
2,47,94,6
2,63,97,54
2,58,103,10
2,55,100,8
2,51,97,8
2,46,78,8
2,47,78,2
2,52,99,6
2,56,99,8
2,59,99,6
2,64,99,8
2,63,97,14
2,58,103,10
2,55,100,8
2,51,97,8
2,46,78,8
2,47,78,2
2,52,99,6
2,56,99,8
2,59,99,6
2,64,99,8
2,63,97,14
2,58,103,10
2,55,100,8
2,51,97,8
2,46,78,8
2,47,78,2
2,52,99,6
2,56,99,8
2,59,99,6
2,64,99,8
2,63,97,14
2,58,103,10
2,55,100,8
2,51,97,8
2,46,78,8
2,47,78,2
2,52,99,6
2,56,99,8
2,59,99,6
2,64,99,8
2,45,93,2718
2,45,94,6
2,49,88,6
2,49,90,6
2,52,93,6
2,52,84,6
2,54,93,6
2,52,90,6
2,45,92,6
2,45,92,6
2,49,84,6
2,49,88,6
2,52,90,6
2,52,94,6
2,54,88,6
2,52,90,6
2,40,94,6
2,40,96,6
2,44,76,6
2,44,86,6
2,47,90,6
2,47,86,6
2,49,88,6
2,47,80,6
2,40,94,6
2,40,94,6
2,44,80,6
2,44,86,6
2,47,90,6
2,47,90,6
2,49,88,6
2,47,90,6
2,47,98,6
2,47,92,6
2,51,92,6
2,51,92,6
2,54,90,6
2,54,88,6
2,56,96,6
2,54,82,6
2,45,98,6
2,45,100,6
2,49,88,6
2,49,92,6
2,52,90,6
2,52,90,6
2,54,80,6
2,52,90,6
2,40,96,6
2,40,96,6
2,44,78,6
2,44,84,6
2,47,88,6
2,47,88,6
2,49,88,6
2,47,86,6
2,40,96,6
2,40,96,6
2,44,78,6
2,44,84,6
2,47,88,6
2,47,88,6
2,49,88,6
2,47,86,6
2,40,96,6
2,40,96,6
2,44,78,6
2,44,84,6
2,47,88,6
2,47,88,6
2,49,88,6
2,47,86,6
2,40,96,6
2,40,96,6
2,44,78,6
2,44,84,6
2,47,88,6
2,47,88,6
2,49,88,6
2,47,86,6
2,40,96,6
2,40,96,6
2,44,78,6
2,44,84,6
2,47,88,6
2,47,88,6
2,49,88,6
2,47,86,6
2,40,96,6
2,40,96,6
2,44,78,6
2,44,84,6
2,47,88,6
2,47,88,6
2,49,88,6
2,47,86,6
2,40,96,6
2,40,96,6
2,44,78,6
2,44,84,6
2,47,88,6
2,47,88,6
2,49,88,6
2,47,86,6
2,40,96,6
2,40,96,6
2,44,78,6
2,44,84,6
2,47,88,6
2,47,88,6
2,49,88,6
2,47,86,6
2,40,96,6
3,67,113,8460
3,67,111,134
3,67,113,134
3,67,112,6
3,64,109,6
3,62,100,6
3,64,109,6
3,64,109,6
3,59,104,6
3,59,96,378
3,67,110,38
3,67,109,66
3,67,111,70
3,67,108,64
3,67,109,60
3,67,108,60
3,64,109,46
3,62,104,34
3,64,107,62
3,64,107,96
3,59,106,34
3,59,93,376
3,67,110,54
3,67,110,76
3,67,109,66
3,67,111,72
3,67,111,74
3,67,113,88
3,64,109,6
3,62,99,6
3,64,109,42
