track,note,velocity,time
0,60,78,4092
0,62,93,20
0,29,127,16
0,65,93,4
0,49,127,0
0,35,127,0
0,65,92,64
0,65,85,64
0,69,83,16
0,69,89,40
0,41,101,128
0,48,90,0
0,29,127,4
0,53,106,0
0,60,106,0
0,46,127,0
0,65,98,4
0,35,127,0
0,53,99,0
0,42,72,20
0,65,93,148
0,65,95,64
0,65,90,28
0,69,86,20
0,29,123,0
0,41,102,0
0,48,91,0
0,53,104,4
0,46,127,0
0,65,106,4
0,60,111,0
0,53,109,0
0,35,127,0
0,42,72,28
0,65,94,184
0,65,91,52
0,65,81,60
0,69,86,124
0,69,73,60
0,60,62,128
0,72,100,0
0,41,99,0
0,29,127,0
0,48,97,0
0,65,106,0
0,53,106,0
0,60,106,0
0,53,103,4
0,46,127,0
0,35,127,4
0,42,72,116
0,75,94,0
0,72,93,384
0,72,84,72
0,38,71,12
0,38,89,44
0,69,87,44
0,38,126,0
0,38,127,108
0,38,123,36
0,69,86,4
0,38,127,116
0,65,92,4
0,38,127,108
0,38,117,108
0,61,80,44
0,35,127,0
0,49,127,0
0,46,87,4
0,53,81,0
0,65,80,0
0,34,122,0
0,68,84,0
0,62,75,8
0,62,74,20
0,65,74,0
0,68,74,0
0,58,95,4
0,46,80,0
0,53,77,0
0,62,103,0
0,53,94,0
0,58,103,0
0,51,95,4
0,34,107,0
0,51,127,16
0,49,89,4
0,38,100,0
0,37,111,0
0,69,101,0
0,62,75,20
0,65,72,32
0,68,74,0
0,62,70,60
0,50,74,12
0,51,104,0
0,38,93,0
0,69,91,4
0,65,72,4
0,68,67,0
0,62,78,68
0,46,82,12
0,53,80,0
0,34,111,0
0,62,101,0
0,35,121,0
0,51,127,0
0,58,96,0
0,53,92,0
0,58,100,0
0,68,72,16
0,65,67,0
0,62,71,60
0,68,72,4
0,65,70,12
0,62,74,32
0,53,79,8
0,46,79,0
0,51,108,12
0,34,100,0
0,68,76,0
0,65,70,8
0,49,88,48
0,69,96,0
0,62,102,4
0,37,104,4
0,62,74,0
0,58,103,0
0,55,96,0
0,38,100,0
0,51,127,0
0,68,76,12
0,65,68,4
0,62,67,0
0,68,74,0
0,65,66,28
0,50,81,24
0,51,127,4
0,38,86,4
0,69,95,4
0,58,67,0
0,53,84,0
0,62,69,0
0,62,66,0
0,68,71,32
0,65,69,12
0,51,127,0
0,35,121,0
0,46,87,4
0,53,81,0
0,68,90,0
0,72,90,0
0,34,111,0
0,51,110,40
0,46,80,0
0,53,77,0
0,58,98,0
0,53,93,0
0,62,99,0
0,34,107,4
0,58,98,0
0,49,89,16
0,68,87,0
0,37,111,0
0,72,74,0
0,51,127,4
0,69,101,0
0,38,98,0
0,68,84,36
0,72,84,0
0,50,74,4
0,51,127,0
0,69,96,4
0,38,93,0
0,46,82,28
0,53,80,0
0,65,85,4
0,68,88,0
0,34,111,4
0,62,102,0
0,53,96,0
0,58,101,4
0,58,98,0
0,51,127,0
0,35,127,0
0,53,79,40
0,46,79,0
0,51,107,12
0,34,107,0
0,49,88,12
0,69,99,8
0,65,91,0
0,37,122,0
0,56,94,0
0,62,100,0
0,53,93,0
0,38,120,0
0,58,100,0
0,51,127,0
0,50,81,20
0,53,81,8
0,60,98,0
0,69,95,0
0,57,85,0
0,49,127,0
0,35,127,0
0,38,96,0
0,57,84,0
0,60,84,0
0,65,92,0
0,41,87,0
0,48,81,0
0,29,123,4
0,51,125,8
0,41,80,40
0,48,77,0
0,60,98,0
0,57,91,0
0,65,101,0
0,29,111,8
0,65,100,0
0,51,95,0
0,68,88,0
0,44,89,4
0,38,126,4
0,69,101,0
0,32,115,4
0,72,93,0
0,69,89,0
0,51,127,0
0,45,74,12
0,70,93,0
0,74,82,0
0,51,92,4
0,33,88,0
0,69,91,0
0,41,82,12
0,48,80,0
0,68,90,0
0,29,113,4
0,35,127,4
0,57,94,0
0,60,106,0
0,51,127,0
0,72,93,4
0,65,100,0
0,69,89,0
0,65,97,0
0,60,84,36
0,48,79,0
0,41,79,0
0,51,93,4
0,29,117,0
0,44,88,8
0,69,96,0
0,59,93,4
0,64,96,0
0,32,104,0
0,56,93,0
0,70,89,4
0,67,86,0
0,38,127,0
0,62,90,0
0,51,127,0
0,45,81,4
0,60,93,8
0,57,91,0
0,60,86,0
0,60,88,0
0,33,100,4
0,69,95,0
0,65,83,0
0,51,111,0
0,29,111,4
0,41,87,0
0,48,81,0
0,65,98,0
0,69,61,4
0,35,127,0
0,51,127,0
0,41,80,40
0,48,77,0
0,60,107,0
0,65,97,4
0,29,106,0
0,65,97,0
0,57,99,0
0,51,119,0
0,44,89,0
0,32,88,4
0,69,101,0
0,51,127,4
0,38,111,0
0,45,74,220
0,51,107,0
0,33,98,4
0,69,96,0
0,41,82,104
0,48,80,0
0,29,106,8
0,60,104,0
0,65,99,0
0,57,93,0
0,65,98,4
0,35,127,0
0,51,127,0
0,48,79,40
0,41,79,0
0,51,125,8
0,29,106,0
0,44,88,104
0,57,96,4
0,72,90,0
0,60,80,0
0,65,98,0
0,60,101,0
0,69,99,4
0,32,104,0
0,38,127,0
0,51,127,0
0,45,81,24
0,64,93,0
0,55,87,0
0,60,75,0
0,72,92,0
0,51,127,4
0,69,95,0
0,33,103,0
0,60,59,4
0,72,78,0
0,36,93,0
0,64,73,0
0,70,85,0
0,36,87,4
0,43,81,0
0,35,127,0
0,57,120,0
0,64,59,40
0,70,79,0
0,72,68,0
0,64,100,0
0,60,103,0
0,60,98,0
0,36,80,0
0,43,77,0
0,55,102,0
0,51,119,0
0,36,103,8
0,39,89,8
0,64,88,0
0,70,92,0
0,72,87,0
0,69,101,4
0,39,100,4
0,38,123,0
0,51,127,0
0,40,74,0
0,64,82,0
0,70,90,0
0,72,86,0
0,40,93,4
0,51,122,0
0,69,91,4
0,36,82,100
0,43,80,0
0,60,101,4
0,55,99,0
0,64,97,0
0,60,96,0
0,36,108,0
0,35,121,0
0,51,127,0
0,43,79,40
0,36,79,0
0,51,125,8
0,36,103,0
0,39,88,104
0,69,96,0
0,39,119,4
0,60,95,0
0,60,101,0
0,64,93,0
0,38,120,4
0,55,91,0
0,60,89,0
0,51,127,0
0,40,81,4
0,60,76,0
0,40,103,4
0,62,84,0
0,58,90,0
0,51,122,0
0,53,90,0
0,58,87,0
0,69,95,0
0,61,84,16
0,34,119,0
0,35,127,0
0,34,87,0
0,41,81,0
0,62,90,0
0,51,127,0
0,51,100,32
0,58,100,4
0,62,73,0
0,62,104,0
0,58,95,0
0,53,102,4
0,34,80,0
0,41,77,0
0,34,111,0
0,65,92,0
0,37,89,0
0,37,96,0
0,51,127,4
0,38,120,0
0,69,101,0
0,38,74,0
0,51,104,0
0,38,96,0
0,69,96,4
0,34,82,28
0,41,80,0
0,68,89,4
0,34,115,4
0,65,92,4
0,58,97,0
0,58,97,0
0,51,127,0
0,35,127,0
0,62,101,0
0,41,79,40
0,34,79,0
0,34,96,4
0,51,122,0
0,37,88,108
0,37,119,4
0,58,98,4
0,65,91,0
0,69,99,0
0,62,101,0
0,51,127,0
0,38,127,0
0,65,93,0
0,56,97,0
0,38,81,0
0,53,74,4
0,51,122,0
0,38,100,4
0,69,95,0
0,60,88,0
0,57,86,0
0,65,77,4
0,57,80,0
0,60,94,0
0,65,91,0
0,41,87,0
0,48,81,0
0,49,111,0
0,29,120,0
0,35,127,4
0,57,79,8
0,60,76,4
0,65,78,24
0,57,78,8
0,51,111,12
0,41,80,0
0,48,77,0
0,29,117,0
0,60,102,0
0,65,95,0
0,65,94,0
0,57,96,0
0,60,72,32
0,65,79,12
0,57,76,4
0,44,89,8
0,32,111,4
0,69,101,0
0,38,117,0
0,51,127,0
0,65,76,12
0,60,73,12
0,57,77,60
0,60,77,28
0,65,72,12
0,45,74,20
0,51,125,0
0,33,96,0
0,57,80,4
0,69,91,4
0,60,74,28
0,65,66,4
0,41,82,0
0,48,80,0
0,29,120,0
0,68,88,4
0,57,99,0
0,60,109,0
0,65,98,0
0,35,127,0
0,65,99,0
0,51,127,4
0,72,92,0
0,69,90,0
0,60,71,12
0,48,79,4
0,41,79,0
0,51,119,0
0,29,89,4
0,44,88,112
0,69,96,0
0,32,92,4
0,38,127,0
0,51,127,4
0,67,86,0
0,70,90,0
0,64,96,0
0,59,89,0
0,56,96,0
0,62,90,0
0,60,78,0
0,45,81,0
0,33,100,0
0,60,94,4
0,57,91,0
0,51,125,0
0,60,87,0
0,65,84,0
0,69,95,4
0,29,117,0
0,65,93,4
0,69,84,0
0,41,94,4
0,48,81,0
0,35,127,0
0,51,127,0
0,36,120,60
0,60,94,0
0,51,127,8
0,55,91,0
0,64,91,0
0,60,91,0
0,38,127,0
0,60,77,20
0,36,93,4
0,48,93,0
0,36,123,0
0,69,101,0
0,38,127,0
0,51,127,4
0,55,98,4
0,60,101,0
0,64,96,0
0,60,93,36
0,36,93,0
0,48,93,0
0,45,127,4
0,60,100,0
0,36,127,4
0,55,93,0
0,64,99,0
0,51,107,0
0,69,96,0
0,60,81,44
0,45,127,8
0,51,127,4
0,60,86,52
0,60,97,4
0,36,120,4
0,43,127,0
0,51,127,4
0,62,95,0
0,60,88,0
0,43,127,4
0,69,99,4
0,51,127,0
0,36,120,4
0,41,111,112
0,60,93,32
0,36,113,4
0,60,87,0
0,69,95,0
0,51,127,0
0,41,127,4
0,29,120,0
0,41,87,4
0,48,81,0
0,65,100,0
0,35,127,0
0,49,127,0
0,65,96,40
0,41,80,0
0,48,77,0
0,60,107,4
0,29,123,0
0,65,98,0
0,57,98,4
0,65,99,0
0,44,89,8
0,69,101,4
0,32,122,4
0,38,127,0
0,51,127,0
0,68,92,8
0,45,74,0
0,33,103,0
0,69,90,4
0,51,127,0
0,69,91,4
0,41,82,100
0,48,80,0
0,29,123,4
0,60,109,4
0,65,96,0
0,51,127,4
0,65,98,0
0,57,93,0
0,35,127,0
0,48,79,40
0,41,79,0
0,29,113,8
0,51,125,0
0,44,88,104
0,69,96,0
0,64,99,4
0,59,91,0
0,56,90,0
0,38,127,4
0,32,119,0
0,62,95,0
0,51,127,0
0,45,81,0
0,57,89,8
0,33,106,0
0,60,85,0
0,60,92,0
0,51,125,4
0,69,95,0
0,65,84,0
0,29,100,0
0,41,87,4
0,48,81,0
0,35,127,0
0,65,91,0
0,51,127,0
0,51,122,36
0,41,80,0
0,48,77,0
0,65,84,0
0,65,96,0
0,29,113,4
0,60,107,0
0,65,101,4
0,57,101,0
0,44,89,16
0,65,98,0
0,51,127,4
0,38,127,0
0,69,101,0
0,32,107,4
0,45,74,8
0,68,91,0
0,51,127,0
0,69,95,0
0,33,100,0
0,69,96,4
0,41,82,104
0,48,80,0
0,57,98,4
0,29,120,0
0,60,102,0
0,65,100,4
0,65,99,0
0,51,127,4
0,35,117,0
0,48,79,40
0,41,79,0
0,29,113,8
0,51,127,4
0,44,88,12
0,64,100,0
0,59,92,0
0,56,97,4
0,32,119,4
0,69,99,0
0,62,98,0
0,51,127,0
0,38,120,0
0,45,81,8
0,33,108,0
0,57,86,4
0,51,122,0
0,69,95,0
0,60,89,0
0,60,93,4
0,65,91,0
0,29,120,16
0,65,91,0
0,41,87,4
0,48,81,0
0,35,127,0
0,51,127,4
0,65,79,36
0,51,125,4
0,41,80,0
0,48,77,0
0,65,94,0
0,60,104,4
0,29,117,0
0,57,100,0
0,65,99,0
0,65,91,20
0,44,89,4
0,32,107,4
0,69,101,0
0,51,127,4
0,38,111,0
0,45,74,216
0,51,122,0
0,33,106,4
0,69,91,0
0,68,85,4
0,69,89,0
0,41,82,0
0,48,80,0
0,29,117,4
0,35,127,0
0,57,96,4
0,60,102,0
0,65,97,0
0,65,96,0
0,51,127,0
0,48,79,40
0,69,76,0
0,41,79,0
0,51,122,4
0,29,117,8
0,44,88,108
0,65,84,0
0,64,98,0
0,56,97,0
0,59,96,0
0,69,96,0
0,38,123,0
0,62,97,0
0,51,127,0
0,32,100,4
0,65,78,12
0,45,81,4
0,51,127,0
0,33,100,0
0,57,90,0
0,60,89,0
0,60,97,0
0,69,95,4
0,65,87,0
0,65,95,20
0,29,120,0
0,35,127,0
0,51,127,0
0,41,87,4
0,48,81,0
0,51,127,32
0,65,77,4
0,41,80,4
0,48,77,0
0,29,117,0
0,65,99,0
0,65,98,4
0,57,101,0
0,60,104,0
0,38,126,20
0,51,127,0
0,44,89,0
0,32,104,0
0,65,80,4
0,69,101,0
0,61,79,16
0,51,125,8
0,45,74,0
0,33,96,0
0,69,96,4
0,62,86,4
0,41,82,104
0,48,80,0
0,35,127,8
0,29,111,0
0,57,97,0
0,60,106,0
0,51,125,0
0,65,97,0
0,65,99,4
0,48,79,40
0,41,79,0
0,60,95,4
0,49,127,4
0,38,126,0
0,29,117,4
0,44,88,8
0,64,100,0
0,56,95,0
0,59,102,0
0,62,99,4
0,69,99,4
0,32,115,0
0,51,122,0
0,45,81,12
0,60,84,0
0,57,127,0
0,69,95,0
0,38,127,0
0,33,96,0
0,57,93,0
0,60,100,0
0,65,87,0
0,65,92,0
0,41,87,4
0,48,81,0
0,29,113,0
0,35,127,0
0,51,125,36
0,65,86,4
0,41,80,0
0,48,77,0
0,29,120,4
0,60,98,0
0,57,98,4
0,65,92,0
0,65,92,0
0,44,89,4
0,38,117,0
0,51,127,0
0,32,115,4
0,69,101,0
0,65,81,28
0,45,74,4
0,51,122,0
0,33,100,0
0,69,91,0
0,69,89,4
0,41,82,4
0,48,80,0
0,65,98,0
0,35,127,4
0,57,94,0
0,60,102,0
0,65,98,4
0,51,127,0
0,29,113,0
0,48,79,40
0,41,79,0
0,51,127,4
0,29,120,8
0,65,86,0
0,44,88,12
0,69,96,0
0,62,91,0
0,64,92,4
0,51,127,0
0,38,126,0
0,56,93,0
0,59,96,0
0,32,100,4
0,62,97,0
0,45,81,8
0,60,83,0
0,51,127,8
0,33,86,0
0,57,92,0
0,60,89,0
0,69,95,0
0,60,94,0
0,65,92,0
0,65,86,0
0,41,87,4
0,48,81,0
0,29,117,0
0,51,127,0
0,35,127,0
0,65,97,36
0,51,125,4
0,41,80,0
0,48,77,0
0,60,103,4
0,65,99,0
0,57,94,0
0,29,117,0
0,65,96,0
0,44,89,4
0,38,127,4
0,69,101,0
0,32,96,0
0,51,127,4
0,45,74,212
0,69,93,0
0,51,127,0
0,35,104,0
0,33,106,0
0,69,96,4
0,41,82,8
0,48,80,0
0,35,127,8
0,60,106,0
0,57,94,0
0,65,95,0
0,51,127,0
0,29,103,4
0,65,94,0
0,48,79,40
0,41,79,0
0,29,113,8
0,38,127,0
0,51,127,0
0,44,88,104
0,38,126,4
0,56,96,0
0,32,111,0
0,64,96,0
0,51,127,0
0,59,91,4
0,62,99,0
0,69,99,0
0,38,111,36
0,45,81,12
0,38,113,4
0,57,101,4
0,60,89,0
0,69,95,0
0,33,106,0
0,65,97,0
0,60,107,0
0,62,88,0
0,35,127,0
0,29,127,0
0,49,127,4
0,65,100,0
0,41,94,4
0,48,81,0
0,53,100,0
0,51,127,36
0,65,97,8
0,77,101,0
0,68,90,28
0,51,111,4
0,69,95,4
0,69,82,48
0,72,100,4
0,51,107,4
0,63,87,40
0,75,101,0
0,51,127,4
0,47,127,0
0,105,73,28
0,107,73,4
0,103,73,8
0,101,73,24
0,100,73,28
0,98,73,32
0,72,95,0
0,45,127,8
0,96,73,0
0,95,73,48
0,51,127,44
0,70,94,0
0,93,73,0
0,91,73,40
0,89,73,32
0,88,73,24
0,86,73,20
0,84,73,16
0,63,87,8
0,69,93,0
0,38,127,8
0,83,73,0
0,81,73,16
0,79,73,28
0,77,73,16
0,38,120,4
0,51,127,4
0,63,76,0
0,76,73,12
0,74,73,12
0,69,72,4
0,72,73,0
0,63,75,8
0,71,73,8
0,69,73,0
0,69,70,16
0,67,73,16
0,40,91,4
0,65,73,12
0,38,108,0
0,63,75,4
0,41,120,4
0,64,73,16
0,62,73,8
0,69,70,4
0,60,73,8
0,63,75,8
