track,note,velocity,time
3,38,85,1920
3,50,85,0
3,50,85,0
3,50,85,0
3,52,85,0
3,40,85,0
3,52,85,0
3,52,85,0
3,42,85,0
3,54,85,0
3,54,85,0
3,54,85,0
3,62,85,0
3,67,85,0
3,71,85,0
3,43,85,0
3,62,85,0
3,67,85,0
3,71,85,0
3,67,85,0
3,71,85,0
3,62,85,0
3,62,85,0
3,71,85,0
3,67,85,0
3,62,85,0
3,67,85,0
3,71,85,0
3,67,85,0
3,71,85,0
3,62,85,0
3,62,85,0
3,67,85,0
3,71,85,0
3,43,85,0
3,62,85,0
3,67,85,0
3,71,85,0
3,67,85,0
3,71,85,0
3,62,85,0
3,42,85,0
3,62,85,0
3,67,85,0
3,71,85,0
3,71,85,0
3,67,85,0
3,62,85,0
3,62,85,0
3,71,85,0
3,67,85,0
3,64,85,0
3,67,85,0
3,71,85,0
3,40,85,0
3,64,85,0
3,67,85,0
3,71,85,0
3,71,85,0
3,67,85,0
3,64,85,0
3,67,85,0
3,64,85,0
3,71,85,0
3,67,85,0
3,64,85,0
3,71,85,0
3,67,85,0
3,64,85,0
3,71,85,0
3,40,85,0
3,43,85,0
3,67,85,0
3,64,85,0
3,71,85,0
3,67,85,0
3,64,85,0
3,71,85,0
3,67,85,0
3,64,85,0
3,71,85,0
3,47,85,0
3,67,85,0
3,64,85,0
3,71,85,0
3,64,85,0
3,67,85,0
3,71,85,0
3,71,85,0
3,67,85,0
3,64,85,0
3,45,85,0
3,64,85,0
3,69,85,0
3,72,85,0
3,64,85,0
3,69,85,0
3,72,85,0
3,64,85,0
3,69,85,0
3,72,85,0
3,64,85,0
3,69,85,0
3,72,85,0
3,64,85,0
3,69,85,0
3,72,85,0
3,64,85,0
3,69,85,0
3,72,85,0
3,40,85,0
3,45,85,0
3,64,85,0
3,69,85,0
3,72,85,0
3,64,85,0
3,69,85,0
3,72,85,0
3,64,85,0
3,69,85,0
3,72,85,0
3,45,85,0
3,64,85,0
3,69,85,0
3,72,85,0
3,64,85,0
3,69,85,0
3,72,85,0
3,72,85,0
3,69,85,0
3,64,85,0
3,66,85,0
3,69,85,0
3,74,85,0
3,38,85,0
3,66,85,0
3,69,85,0
3,74,85,0
3,74,85,0
3,69,85,0
3,66,85,0
3,66,85,0
3,69,85,0
3,74,85,0
3,66,85,0
3,69,85,0
3,74,85,0
3,74,85,0
3,69,85,0
3,66,85,0
3,66,85,0
3,69,85,0
3,74,85,0
3,40,85,0
3,66,85,0
3,69,85,0
3,74,85,0
3,66,85,0
3,69,85,0
3,74,85,0
3,66,85,0
3,69,85,0
3,74,85,0
3,42,85,0
3,69,85,0
3,66,85,0
3,74,85,0
3,74,85,0
3,66,85,0
3,69,85,0
3,55,85,0
3,67,85,0
3,71,85,0
3,62,85,0
3,67,85,0
3,71,85,0
3,67,85,0
3,71,85,0
3,62,85,0
3,67,85,128
3,52,85,0
3,67,85,0
3,71,85,0
3,59,85,0
3,67,85,0
3,71,85,0
3,67,85,0
3,71,85,0
3,64,85,256
3,67,85,0
3,57,85,128
3,69,85,0
3,72,85,0
3,64,85,0
3,69,85,0
3,72,85,0
3,72,85,0
3,69,85,0
3,57,85,0
3,62,85,128
3,66,85,0
3,69,85,0
3,62,85,0
3,66,85,128
3,69,85,0
3,69,85,0
3,66,85,0
3,62,85,0
3,67,85,128
3,55,85,0
3,67,85,0
3,71,85,0
3,62,85,0
3,67,85,0
3,71,85,0
3,67,85,0
3,71,85,0
3,62,85,0
3,67,85,128
3,52,85,0
3,67,85,0
3,71,85,0
3,59,85,0
3,67,85,0
3,71,85,0
3,67,85,0
3,71,85,0
3,64,85,256
3,67,85,0
3,57,85,128
3,69,85,0
3,72,85,0
3,64,85,0
3,69,85,0
3,72,85,0
3,72,85,0
3,69,85,0
3,57,85,0
3,62,85,128
3,66,85,0
3,69,85,0
3,62,85,0
3,66,85,128
3,69,85,0
3,69,85,0
3,66,85,0
3,62,85,0
3,67,85,128
3,55,85,0
3,62,85,0
3,67,85,0
3,55,85,0
3,62,85,128
3,67,85,0
3,62,85,128
3,67,85,0
3,57,85,128
3,58,85,0
3,59,85,0
3,62,85,0
3,65,85,0
3,55,85,0
3,62,85,128
3,65,85,0
3,62,85,0
3,65,85,0
3,55,85,0
3,59,85,128
3,60,85,0
3,64,85,0
3,55,85,384
3,60,85,0
3,66,85,0
3,62,85,0
3,57,85,128
3,64,85,0
3,59,85,384
3,56,85,128
3,64,85,0
3,59,85,0
3,56,85,0
3,52,85,0
3,45,85,0
3,60,85,0
3,57,85,0
3,52,85,0
3,57,85,128
3,60,85,0
3,52,85,0
3,57,85,0
3,60,85,0
3,57,85,0
3,52,85,0
3,57,85,0
3,54,85,0
3,50,85,0
3,43,85,128
3,50,85,128
3,55,85,128
3,59,85,0
3,55,85,0
3,50,85,0
3,47,85,0
3,54,85,0
3,59,85,128
3,62,85,0
3,59,85,0
3,54,85,0
3,48,85,0
3,52,85,0
3,55,85,0
3,60,85,0
3,55,85,0
3,52,85,0
3,50,85,0
3,54,85,0
3,57,85,0
3,62,85,0
3,57,85,0
3,54,85,0
3,55,85,0
3,67,85,0
3,71,85,0
3,62,85,0
3,67,85,0
3,71,85,0
3,67,85,0
3,71,85,0
3,62,85,0
3,67,85,128
3,52,85,0
3,67,85,0
3,71,85,0
3,59,85,0
3,67,85,0
3,71,85,0
3,67,85,0
3,71,85,0
3,64,85,256
3,67,85,0
3,57,85,128
3,69,85,0
3,72,85,0
3,64,85,0
3,69,85,0
3,72,85,0
3,72,85,0
3,69,85,0
3,57,85,0
3,62,85,128
3,66,85,0
3,69,85,0
3,62,85,0
3,66,85,128
3,69,85,0
3,69,85,0
3,66,85,0
3,62,85,0
3,67,85,128
3,55,85,0
3,67,85,0
3,71,85,0
3,62,85,0
3,67,85,0
3,71,85,0
3,67,85,0
3,71,85,0
3,62,85,0
3,67,85,128
3,52,85,0
3,67,85,0
3,71,85,0
3,59,85,0
3,67,85,0
3,71,85,0
3,67,85,0
3,71,85,0
3,64,85,256
3,67,85,0
3,57,85,128
3,69,85,0
3,72,85,0
3,64,85,0
3,69,85,0
3,72,85,0
3,72,85,0
3,69,85,0
3,57,85,0
3,62,85,128
3,66,85,0
3,69,85,0
3,62,85,0
3,66,85,128
3,69,85,0
3,69,85,0
3,66,85,0
3,62,85,0
3,67,85,128
3,55,85,0
3,62,85,0
3,67,85,0
3,55,85,0
3,62,85,128
3,67,85,0
3,62,85,128
3,67,85,0
3,57,85,128
3,58,85,0
3,59,85,0
3,62,85,0
3,65,85,0
3,55,85,0
3,62,85,128
3,65,85,0
3,62,85,0
3,65,85,0
3,55,85,0
3,59,85,128
3,60,85,0
3,64,85,0
3,55,85,384
3,60,85,0
3,66,85,0
3,62,85,0
3,57,85,128
3,64,85,0
3,59,85,384
3,56,85,128
3,64,85,0
3,59,85,0
3,56,85,0
3,52,85,0
3,45,85,0
3,60,85,0
3,57,85,0
3,52,85,0
3,57,85,128
3,60,85,0
3,52,85,0
3,57,85,0
3,60,85,0
3,57,85,0
3,52,85,0
3,57,85,0
3,54,85,0
3,50,85,0
3,43,85,128
3,50,85,128
3,55,85,128
3,59,85,0
3,55,85,0
3,50,85,0
3,40,85,0
3,47,85,0
3,52,85,128
3,55,85,0
3,52,85,0
3,47,85,0
3,48,85,0
3,52,85,0
3,55,85,128
3,60,85,0
3,52,85,0
3,48,85,0
3,50,85,0
3,54,85,128
3,57,85,0
3,62,85,0
3,57,85,0
3,54,85,0
3,55,85,0
3,67,85,0
3,71,85,0
3,62,85,0
3,67,85,0
3,71,85,0
3,67,85,0
3,71,85,0
3,62,85,0
3,67,85,128
3,52,85,0
3,67,85,0
3,71,85,0
3,59,85,0
3,67,85,0
3,71,85,0
3,67,85,0
3,71,85,0
3,64,85,256
3,67,85,0
3,57,85,128
3,69,85,0
3,72,85,0
3,64,85,0
3,69,85,0
3,72,85,0
3,72,85,0
3,69,85,0
3,57,85,0
3,62,85,128
3,66,85,0
3,69,85,0
3,62,85,0
3,66,85,128
3,69,85,0
3,69,85,0
3,66,85,0
3,62,85,0
3,67,85,128
3,55,85,0
3,67,85,0
3,71,85,0
3,62,85,0
3,67,85,0
3,71,85,0
3,67,85,0
3,71,85,0
3,62,85,0
3,67,85,128
3,52,85,0
3,67,85,0
3,71,85,0
3,59,85,0
3,67,85,0
3,71,85,0
3,67,85,0
3,71,85,0
3,64,85,256
3,67,85,0
3,57,85,128
3,69,85,0
3,72,85,0
3,64,85,0
3,69,85,0
3,72,85,0
3,72,85,0
3,69,85,0
3,57,85,0
3,62,85,128
3,66,85,0
3,69,85,0
3,62,85,0
3,66,85,128
3,69,85,0
3,69,85,0
3,66,85,0
3,62,85,0
3,67,85,128
3,55,85,0
3,62,85,0
3,67,85,0
3,55,85,0
3,62,85,128
3,67,85,0
3,62,85,128
3,67,85,0
3,57,85,128
3,58,85,0
3,59,85,0
3,62,85,0
3,65,85,0
3,55,85,0
3,62,85,128
3,65,85,0
3,62,85,0
3,65,85,0
3,55,85,0
3,59,85,128
3,60,85,0
3,64,85,0
3,55,85,384
3,60,85,0
3,66,85,0
3,62,85,0
3,57,85,128
3,64,85,0
3,59,85,384
3,56,85,128
3,64,85,0
3,59,85,0
3,56,85,0
3,52,85,0
3,45,85,0
3,60,85,0
3,57,85,0
3,52,85,0
3,57,85,128
3,60,85,0
3,52,85,0
3,57,85,0
3,60,85,0
3,57,85,0
3,52,85,0
3,57,85,0
3,54,85,0
3,50,85,0
3,59,85,128
3,55,85,0
3,50,85,0
3,50,85,0
3,55,85,128
3,59,85,0
3,59,85,0
3,55,85,0
3,60,85,0
3,48,85,0
3,52,85,0
3,43,85,0
3,48,85,0
3,51,85,0
3,55,85,0
3,58,85,0
3,58,85,0
3,55,85,0
3,51,85,0
3,55,85,128
3,59,85,0
3,43,85,0
4,43,102,3072
4,38,102,128
4,43,102,0
4,42,102,128
4,40,102,128
4,35,102,128
4,40,102,0
4,35,102,128
4,33,102,128
4,40,102,128
4,45,102,0
4,40,102,128
4,38,102,128
4,38,102,128
4,40,102,128
4,42,102,128
4,31,102,128
4,38,102,128
4,43,102,64
4,42,102,128
4,40,102,128
4,35,102,128
4,40,102,64
4,40,102,128
4,33,102,128
4,40,102,128
4,45,102,64
4,45,102,128
4,38,102,128
4,33,102,128
4,38,102,64
4,38,102,128
4,31,102,64
4,38,102,128
4,43,102,64
4,42,102,128
4,40,102,128
4,35,102,128
4,40,102,64
4,40,102,128
4,33,102,128
4,40,102,128
4,45,102,64
4,45,102,128
4,38,102,128
4,33,102,128
4,38,102,64
4,38,102,128
4,43,102,64
4,38,102,128
4,43,102,64
4,43,102,64
4,35,102,64
4,35,102,128
4,38,102,64
4,31,102,64
4,36,102,64
4,36,102,128
4,38,102,64
4,38,102,64
4,39,102,0
4,40,102,64
4,42,102,64
4,44,102,64
4,40,102,64
4,33,102,64
4,40,102,320
4,45,102,64
4,45,102,128
4,45,102,128
4,38,102,128
4,31,102,192
4,31,102,0
4,35,102,64
4,35,102,0
4,36,102,64
4,36,102,0
4,38,102,64
4,38,102,64
4,31,102,64
4,38,102,128
4,43,102,64
4,42,102,128
4,40,102,128
4,35,102,128
4,40,102,64
4,40,102,128
4,33,102,128
4,40,102,128
4,45,102,64
4,45,102,128
4,38,102,128
4,33,102,128
4,38,102,64
4,38,102,128
4,31,102,64
4,38,102,128
4,43,102,64
4,42,102,128
4,40,102,128
4,35,102,128
4,40,102,64
4,40,102,128
4,33,102,128
4,40,102,128
4,45,102,64
4,45,102,128
4,38,102,128
4,33,102,128
4,38,102,64
4,38,102,128
4,43,102,64
4,38,102,128
4,43,102,64
4,43,102,64
4,35,102,64
4,35,102,128
4,38,102,64
4,31,102,64
4,36,102,64
4,36,102,128
4,38,102,64
4,38,102,64
4,39,102,0
4,40,102,64
4,42,102,64
4,44,102,64
4,40,102,64
4,33,102,64
4,40,102,320
4,45,102,64
4,45,102,128
4,45,102,128
4,38,102,128
4,31,102,192
4,31,102,0
4,28,102,64
4,35,102,256
4,36,102,64
4,36,102,0
4,38,102,64
4,38,102,64
4,31,102,64
4,38,102,128
4,43,102,64
4,42,102,128
4,40,102,128
4,35,102,128
4,40,102,64
4,40,102,128
4,33,102,128
4,40,102,128
4,45,102,64
4,45,102,128
4,38,102,128
4,33,102,128
4,38,102,64
4,38,102,128
4,31,102,64
4,38,102,128
4,43,102,64
4,42,102,128
4,40,102,128
4,35,102,128
4,40,102,64
4,40,102,128
4,33,102,128
4,40,102,128
4,45,102,64
4,45,102,128
4,38,102,128
4,33,102,128
4,38,102,64
4,38,102,128
4,43,102,64
4,38,102,128
4,43,102,64
4,43,102,64
4,35,102,64
4,35,102,128
4,38,102,64
4,31,102,64
4,36,102,64
4,36,102,128
4,38,102,64
4,38,102,64
4,39,102,0
4,40,102,64
4,42,102,64
4,44,102,64
4,40,102,64
4,33,102,64
4,40,102,320
4,45,102,64
4,45,102,128
4,45,102,128
4,38,102,128
4,31,102,192
4,38,102,320
4,43,102,64
4,43,102,64
4,43,102,64
4,36,102,64
4,36,102,0
4,38,102,64
4,39,102,64
4,39,102,64
4,43,102,64
5,50,72,1920
5,52,72,0
5,54,72,0
5,55,72,0
5,55,72,128
5,54,72,128
5,52,72,128
5,52,72,128
5,57,72,64
5,57,72,128
5,50,72,128
5,55,72,12416
5,55,72,64
5,57,72,64
5,59,72,64
5,60,72,192
5,62,72,64
5,60,72,64
5,57,72,128
5,47,72,64
5,52,72,64
5,47,72,128
5,40,72,128
5,45,72,64
5,45,72,64
5,45,72,128
5,45,72,128
5,50,72,128
5,43,72,384
5,43,72,64
5,45,72,64
5,47,72,64
5,48,72,0
5,50,72,64
5,48,72,64
5,48,72,64
5,48,72,64
5,50,72,64
5,50,72,128
5,55,72,12416
5,55,72,64
5,57,72,64
5,59,72,64
5,60,72,128
5,62,72,64
5,60,72,128
5,62,72,64
5,60,72,64
5,57,72,128
5,47,72,64
5,52,72,64
5,47,72,128
5,40,72,128
5,45,72,64
5,45,72,64
5,45,72,128
5,45,72,128
5,50,72,128
5,55,72,384
5,52,72,256
5,60,72,256
5,62,72,256
5,55,72,256
5,55,72,256
5,54,72,128
5,52,72,128
5,45,72,128
5,45,72,192
5,45,72,128
5,50,72,192
5,55,72,192
5,55,72,128
5,54,72,64
5,52,72,64
5,52,72,192
5,52,72,192
5,57,72,192
5,50,72,192
5,55,72,192
5,55,72,64
5,57,72,64
5,59,72,64
5,60,72,64
5,62,72,64
5,60,72,128
5,62,72,64
5,60,72,64
5,57,72,128
5,47,72,64
5,52,72,64
5,47,72,128
5,40,72,128
5,45,72,64
5,45,72,64
5,45,72,128
5,45,72,128
5,50,72,128
5,50,72,64
5,50,72,192
5,50,72,128
5,55,72,128
5,55,72,0
5,50,72,64
5,43,72,64
5,48,72,64
5,51,72,128
5,55,72,128
6,50,85,1536
6,55,72,32
6,55,85,128
6,54,72,128
6,52,72,128
6,52,85,128
6,57,72,64
6,57,72,128
6,50,72,128
6,55,85,12416
6,55,85,64
6,57,72,64
6,59,72,64
6,60,85,64
6,62,72,64
6,60,72,64
6,57,85,128
6,47,72,64
6,52,72,64
6,47,72,128
6,40,85,128
6,45,85,64
6,45,72,64
6,45,72,128
6,45,72,128
6,50,72,128
6,43,72,384
6,43,72,64
6,45,72,64
6,47,72,64
6,48,72,0
6,50,72,64
6,48,72,64
6,48,72,64
6,48,72,64
6,50,72,64
6,50,72,128
6,55,72,12416
6,55,72,64
6,57,72,64
6,59,72,64
6,60,72,64
6,62,72,64
6,60,72,192
6,62,72,64
6,60,72,64
6,57,72,128
6,47,72,64
6,52,72,64
6,47,72,128
6,40,72,128
6,45,72,64
6,45,72,64
6,45,72,128
6,45,72,128
6,50,72,128
6,55,72,384
6,52,72,256
6,60,72,256
6,62,72,256
6,55,72,256
6,55,72,256
6,54,72,128
6,52,72,128
6,45,72,128
6,45,72,192
6,45,72,128
