track,note,velocity,time
1,43,90,960
1,43,87,43
1,59,81,125
1,67,82,0
1,62,85,0
1,43,80,222
1,43,81,55
1,64,90,113
1,60,86,2
1,67,88,3
1,43,79,0
1,43,77,43
1,59,81,122
1,67,82,0
1,62,82,0
1,43,79,7
1,43,81,40
1,60,76,3
1,67,83,2
1,64,80,3
1,43,82,15
1,43,82,40
1,67,91,10
1,59,81,0
1,62,87,0
1,43,79,18
1,43,78,42
1,64,91,2
1,60,82,0
1,67,91,0
1,43,79,10
1,43,80,48
1,59,82,112
1,67,82,3
1,62,83,0
1,43,82,2
1,43,77,50
1,67,82,115
1,64,83,2
1,60,81,0
1,48,78,238
1,48,81,45
1,60,85,0
1,67,92,0
1,64,96,0
1,48,78,12
1,48,78,40
1,60,82,10
1,69,88,0
1,64,88,0
1,48,79,8
1,48,81,40
1,60,82,115
1,64,90,0
1,67,87,0
1,48,81,3
1,48,82,42
1,60,81,118
1,69,82,0
1,64,85,0
1,50,78,2
1,50,81,47
1,62,80,123
1,66,98,2
1,69,90,0
1,50,76,0
1,50,76,48
1,62,85,122
1,66,104,0
1,69,95,0
1,48,76,20
1,48,77,42
1,60,80,20
1,67,88,0
1,64,85,0
1,48,78,245
1,48,78,47
1,64,91,12
1,60,82,0
1,67,87,0
1,43,72,3
1,43,79,50
1,67,87,115
1,59,86,0
1,62,86,0
1,43,73,20
1,43,77,47
1,60,82,13
1,64,89,2
1,67,90,0
1,43,72,0
1,43,78,42
1,59,87,5
1,67,85,0
1,62,87,0
1,43,79,2
1,43,73,48
1,60,89,17
1,64,95,0
1,67,93,0
1,43,76,13
1,43,76,53
1,59,81,22
1,62,89,0
1,67,91,3
1,43,80,15
1,43,79,55
1,60,81,18
1,64,87,2
1,67,85,0
1,43,80,2
1,43,78,47
1,59,82,123
1,62,85,0
1,67,87,0
1,43,81,8
1,43,79,48
1,60,82,120
1,67,83,0
1,64,85,0
1,48,77,0
1,48,78,45
1,60,87,120
1,67,92,0
1,64,95,0
1,48,81,5
1,48,82,47
1,60,82,10
1,69,88,0
1,64,89,0
1,48,79,5
1,48,80,45
1,67,89,18
1,60,86,0
1,64,90,0
1,48,77,5
1,48,82,50
1,69,76,5
1,60,78,3
1,64,89,0
1,50,76,17
1,50,82,60
1,62,72,123
1,66,80,0
1,69,82,0
1,50,72,5
1,50,72,55
1,62,75,120
1,69,86,0
1,66,84,0
1,48,76,30
1,48,77,42
1,60,86,115
1,67,90,0
1,64,90,0
1,48,76,5
1,48,82,60
1,60,86,120
1,64,95,0
1,67,92,0
1,50,78,77
1,50,82,52
1,66,90,125
1,62,81,0
1,69,89,0
1,48,81,10
1,48,78,45
1,67,93,125
1,60,98,0
1,64,99,0
1,47,86,22
1,47,83,45
1,59,82,5
1,62,88,0
1,66,83,0
1,50,86,70
1,62,81,5
1,66,98,2
1,69,73,3
1,50,86,60
1,66,107,0
1,69,104,0
1,62,92,0
1,48,89,40
1,48,82,37
1,67,87,118
1,60,83,2
1,64,87,0
1,48,72,0
1,48,73,57
1,67,88,118
1,60,82,0
1,64,83,2
1,43,73,30
1,43,73,35
1,67,89,123
1,59,85,0
1,62,88,0
1,43,79,235
1,43,79,55
1,67,86,117
1,59,83,3
1,62,86,0
1,47,82,13
1,47,85,30
1,62,82,125
1,66,80,0
1,59,78,0
1,47,77,0
1,47,82,60
1,62,85,115
1,66,81,0
1,59,82,0
1,48,76,2
1,48,76,48
1,67,85,120
1,60,82,0
1,64,85,0
1,50,81,18
1,50,83,47
1,66,90,120
1,62,82,0
1,69,93,0
1,52,82,28
1,52,87,55
1,59,82,115
1,64,86,0
1,67,86,0
1,52,72,7
1,52,81,58
1,59,91,125
1,64,93,0
1,67,96,0
1,47,82,27
1,47,82,45
1,59,86,0
1,66,90,0
1,62,90,0
1,47,78,5
1,47,85,45
1,66,84,0
1,62,89,0
1,59,87,0
1,48,80,8
1,48,76,48
1,60,81,125
1,67,83,0
1,64,87,2
1,48,79,3
1,48,85,50
1,67,91,8
1,60,87,0
1,64,89,0
1,69,89,152
1,62,82,0
1,67,93,0
1,50,86,0
1,66,98,60
1,50,89,0
1,62,86,0
1,69,95,3
1,43,82,118
1,43,73,38
1,67,85,122
1,62,82,3
1,59,83,0
1,43,76,5
1,43,70,42
1,60,77,7
1,67,82,0
1,64,82,0
1,43,77,8
1,43,76,43
1,59,85,0
1,67,86,0
1,62,88,0
1,43,78,28
1,43,76,53
1,67,82,2
1,60,77,0
1,64,88,5
1,48,78,8
1,48,76,45
1,67,82,120
1,60,77,2
1,64,85,0
1,48,73,18
1,48,70,40
1,69,86,5
1,60,80,0
1,64,87,0
1,48,73,7
1,48,67,43
1,60,82,115
1,64,83,0
1,67,88,0
1,48,72,18
1,48,76,40
1,69,83,120
1,60,82,3
1,64,88,0
1,50,78,0
1,50,68,55
1,62,81,117
1,66,96,3
1,69,92,0
1,50,62,227
1,50,63,55
1,69,90,123
1,66,87,0
1,62,81,0
1,48,73,10
1,48,72,45
1,60,79,2
1,67,85,3
1,64,83,0
1,48,74,245
1,48,76,45
1,60,86,123
1,67,95,0
1,64,93,2
1,43,81,20
1,43,81,47
1,67,88,2
1,62,82,0
1,59,82,0
1,43,74,10
1,43,80,43
1,60,83,15
1,67,91,0
1,64,92,0
1,43,76,5
1,43,80,47
1,67,89,13
1,59,83,0
1,62,85,0
1,43,77,22
1,43,82,50
1,67,86,20
1,60,82,0
1,64,86,0
1,43,80,20
1,43,75,40
1,59,82,8
1,67,87,2
1,62,86,0
1,43,73,0
1,43,77,47
1,67,88,13
1,60,86,0
1,64,89,0
1,43,78,10
1,43,78,55
1,67,98,118
1,59,88,0
1,62,93,0
1,43,79,3
1,43,78,45
1,67,93,118
1,60,87,0
1,64,96,2
1,48,82,5
1,48,78,42
1,67,92,10
1,60,87,0
1,64,93,0
1,48,76,2
1,48,72,48
1,60,80,17
1,69,90,0
1,64,85,3
1,48,76,2
1,48,72,58
1,60,86,13
1,64,93,0
1,67,92,0
1,48,73,3
1,48,73,52
1,69,87,120
1,60,82,0
1,64,87,0
1,50,72,0
1,50,74,52
1,66,90,123
1,62,82,0
1,69,92,0
1,50,72,5
1,50,73,52
1,66,92,118
1,62,82,0
1,69,91,0
1,48,73,18
1,48,74,48
1,67,85,13
1,60,82,0
1,64,85,0
1,48,73,242
1,48,76,48
1,67,90,120
1,60,88,0
1,64,93,0
1,50,73,50
1,50,78,57
1,62,86,120
1,66,96,0
1,69,92,0
1,48,73,18
1,48,76,50
1,67,92,122
1,60,92,0
1,64,95,0
1,47,80,12
1,47,81,45
1,59,87,2
1,62,92,3
1,66,86,0
1,50,87,65
1,66,86,15
1,62,68,0
1,69,83,0
1,50,81,52
1,66,98,3
1,69,100,2
1,62,92,0
1,48,92,67
1,48,81,53
1,67,88,120
1,60,82,0
1,64,87,0
1,48,73,220
1,48,92,65
1,64,89,118
1,67,88,0
1,60,86,0
1,43,81,20
1,43,79,42
1,59,81,118
1,67,82,0
1,62,82,0
1,43,78,15
1,43,81,55
1,67,82,10
1,59,82,2
1,62,82,0
1,47,82,20
1,47,85,32
1,62,82,5
1,66,81,2
1,59,78,0
1,47,76,10
1,47,81,48
1,66,78,7
1,59,81,0
1,62,82,0
1,48,74,7
1,48,76,42
1,60,82,0
1,67,87,0
1,64,88,0
1,50,76,30
1,50,80,55
1,62,80,17
1,66,96,0
1,69,92,3
1,52,78,27
1,52,82,53
1,59,81,117
1,67,76,0
1,64,89,0
1,52,79,3
1,52,75,50
1,59,82,120
1,67,89,0
1,64,88,0
1,47,82,45
1,47,83,50
1,59,81,0
1,62,86,0
1,66,81,0
1,47,80,7
1,47,85,40
1,62,83,13
1,59,81,0
1,66,78,0
1,48,78,57
1,48,76,52
1,60,85,0
1,67,86,2
1,64,87,0
1,48,76,243
1,48,81,50
1,60,82,120
1,64,83,0
1,67,89,0
1,47,82,60
1,64,87,3
1,59,78,0
1,66,80,0
1,67,91,62
1,59,82,0
1,47,89,0
1,63,83,3
1,67,71,35
1,64,83,3
1,59,76,0
1,52,82,2
1,59,72,72
1,62,82,3
1,47,81,0
1,66,92,7
1,64,85,75
1,67,78,0
1,60,76,0
1,48,76,0
1,69,81,108
1,66,81,0
1,50,77,2
1,62,72,0
1,64,82,120
1,67,72,0
1,59,73,0
1,52,72,0
1,66,81,75
1,62,85,0
1,59,74,0
1,47,78,0
1,60,73,83
1,48,72,0
1,64,81,2
1,67,76,0
1,66,83,73
1,69,83,2
1,50,82,0
1,62,73,0
1,43,76,38
1,62,85,2
1,67,79,0
1,59,77,0
1,48,82,10
1,67,80,0
1,64,82,0
1,60,79,0
1,67,79,90
1,59,76,0
1,43,76,0
1,62,82,2
1,50,82,88
1,62,95,0
1,50,82,105
1,62,92,0
1,62,90,15
1,50,78,0
1,50,91,40
1,62,95,0
1,43,85,40
1,43,82,43
1,67,83,120
1,59,85,0
1,62,90,2
1,43,72,2
1,43,74,52
1,60,82,118
1,67,87,0
1,64,85,2
1,43,78,18
1,43,76,50
1,67,83,117
1,59,87,0
1,62,88,0
1,43,82,3
1,43,76,53
1,67,81,120
1,60,82,0
1,64,87,0
1,48,77,8
1,48,75,40
1,67,92,2
1,60,89,0
1,64,95,0
1,48,76,10
1,48,76,35
1,64,89,120
1,60,83,0
1,69,85,0
1,48,76,17
1,48,75,38
1,60,85,120
1,67,89,0
1,64,90,0
1,48,80,5
1,48,78,37
1,69,81,120
1,60,83,0
1,64,86,3
1,50,78,13
1,50,81,50
1,62,81,118
1,66,92,0
1,69,90,0
1,50,73,13
1,50,72,50
1,66,89,120
1,62,80,0
1,69,90,0
1,48,72,13
1,48,77,55
1,67,86,3
1,60,81,0
1,64,87,0
1,48,73,245
1,48,79,40
1,60,86,120
1,64,92,0
1,67,91,0
1,43,70,60
1,43,83,43
1,67,81,7
1,59,82,3
1,62,83,0
1,43,78,52
1,43,81,43
1,60,82,5
1,67,86,0
1,64,87,2
1,43,80,8
1,43,81,45
1,67,86,120
1,59,87,0
1,62,85,3
1,43,80,10
1,43,79,45
1,60,90,7
1,67,96,0
1,64,96,0
1,43,82,35
1,43,78,50
1,67,85,28
1,59,81,0
1,62,82,2
1,43,77,7
1,43,77,48
1,60,89,3
1,64,92,0
1,67,92,0
1,43,76,13
1,43,76,48
1,59,82,120
1,62,83,0
1,67,83,0
1,43,73,0
1,43,82,45
1,60,82,0
1,67,89,0
1,64,88,0
1,48,73,193
1,67,99,3
1,60,96,2
1,64,102,0
1,48,70,238
1,48,79,48
1,60,82,8
1,69,85,0
1,64,86,2
1,48,76,3
1,48,80,60
1,67,87,25
1,64,85,0
1,60,81,0
1,48,77,15
1,48,77,47
1,60,83,17
1,69,90,0
1,64,91,0
1,50,82,25
1,50,80,55
1,62,82,120
1,66,98,0
1,69,92,3
1,50,76,5
1,50,73,57
1,62,82,123
1,66,98,0
1,69,90,0
1,48,76,22
1,48,77,55
1,67,87,20
1,60,82,0
1,64,85,0
1,48,76,235
1,48,74,40
1,60,75,123
1,67,82,0
1,64,80,0
1,43,75,33
1,43,76,52
1,67,83,10
1,59,87,0
1,62,82,0
1,43,76,10
1,43,76,55
1,67,85,50
1,60,82,0
1,64,85,0
1,43,77,28
1,43,76,52
1,67,78,38
1,59,82,2
1,62,82,3
1,43,72,38
1,43,76,60
1,60,80,35
1,67,81,2
1,64,87,0
1,43,76,12
1,43,76,52
1,67,82,25
1,59,82,2
1,62,86,0
1,43,73,43
1,43,70,50
1,60,83,20
1,67,85,0
1,64,82,0
1,43,76,15
1,43,69,57
1,67,82,33
1,59,81,2
1,62,83,0
1,43,76,52
1,43,75,55
1,67,88,18
1,60,80,0
1,64,91,5
1,48,77,230
1,48,81,52
1,60,81,3
1,67,92,0
1,64,90,0
1,48,76,5
1,48,73,45
1,64,95,10
1,60,86,0
1,69,92,0
1,48,78,0
1,48,80,43
1,60,75,13
1,64,83,0
1,67,85,0
1,48,81,10
1,48,80,53
1,69,85,117
1,60,85,0
1,64,89,0
1,50,78,15
1,50,77,45
1,62,77,3
1,69,82,2
1,66,77,0
1,50,81,5
1,50,76,52
1,62,82,118
1,66,89,0
1,69,90,0
1,48,76,8
1,48,76,55
1,60,78,10
1,67,81,0
1,64,81,0
1,48,73,237
1,48,81,53
1,60,82,120
1,67,86,0
1,64,86,0
1,43,79,27
1,43,75,53
1,59,83,120
1,67,83,0
1,62,87,0
1,48,76,18
1,48,68,30
1,60,82,15
1,67,80,0
1,64,90,2
1,43,74,5
1,43,77,62
1,67,83,5
1,62,85,0
1,59,85,0
1,43,76,7
1,43,69,55
1,60,82,28
1,67,88,0
1,64,88,0
1,43,76,30
1,43,77,53
1,59,83,25
1,67,86,0
1,62,84,0
1,43,73,2
1,43,72,57
1,60,77,33
1,67,80,0
1,64,81,0
1,43,67,40
1,43,73,62
1,59,72,35
1,67,73,3
1,62,72,0
1,43,70,2
1,43,67,63
1,67,78,28
1,60,76,0
1,64,79,0
1,48,56,20
1,48,64,65
1,67,72,115
1,64,71,0
1,60,71,0
1,48,52,35
1,48,62,55
1,69,66,45
1,60,66,0
1,64,69,3
1,48,59,23
1,48,55,53
1,67,61,115
1,60,59,0
1,64,61,0
1,48,56,5
1,48,53,45
1,69,55,8
1,60,59,2
1,64,63,0
1,50,50,48
1,50,53,45
1,66,60,120
1,62,51,0
1,69,54,2
1,50,44,8
1,50,48,60
1,62,48,120
1,69,53,0
1,66,55,0
1,48,46,30
1,48,42,48
1,64,48,120
1,60,47,0
1,67,48,2
1,48,40,0
1,48,41,45
1,60,47,2
1,64,49,0
1,67,48,0
1,43,38,40
1,43,38,42
1,67,37,123
1,59,34,0
1,62,36,0
1,43,34,0
1,43,33,50
1,60,35,0
1,64,36,0
1,67,36,2
1,43,29,12
1,43,31,52
1,59,31,125
1,62,32,0
1,67,31,3
1,43,27,38
1,43,26,55
1,67,26,10
1,60,26,0
1,64,27,3
1,43,22,43
1,43,23,53
1,59,25,25
1,67,26,0
1,62,25,0
1,43,23,2
1,43,22,57
1,60,24,33
1,67,25,0
1,64,26,0
1,43,21,40
1,43,34,62
1,59,34,35
1,67,34,3
1,62,34,0
1,43,34,2
1,43,33,63
1,67,37,28
1,60,37,0
1,64,37,0
1,48,40,20
1,48,43,65
1,67,46,115
1,64,46,0
1,60,46,0
1,48,40,35
1,48,44,55
1,69,46,45
1,60,46,0
1,64,47,3
1,48,54,23
1,48,52,53
1,67,55,115
1,60,54,0
1,64,55,0
1,48,54,5
1,48,53,45
1,69,54,8
1,60,56,2
1,64,57,0
1,50,63,48
1,50,64,45
1,66,68,120
1,62,64,0
1,69,66,2
1,50,61,8
1,50,64,60
1,62,64,120
1,69,67,0
1,66,68,0
1,48,64,30
1,48,72,48
1,64,76,120
1,60,76,0
1,67,76,2
1,48,73,0
1,48,74,45
1,60,78,2
1,64,79,0
1,67,78,0
1,43,74,40
1,43,84,42
1,67,84,123
1,59,82,0
1,62,83,0
1,43,83,0
1,43,83,50
1,60,85,0
1,64,86,0
1,67,86,2
1,43,82,12
1,43,99,52
1,59,100,125
1,62,101,0
1,67,100,3
1,43,98,38
1,43,98,55
1,67,98,10
1,60,99,0
1,64,99,3
1,43,76,43
1,43,78,53
1,59,85,25
1,67,88,0
1,62,86,0
1,43,77,2
1,43,76,57
1,60,82,33
1,67,86,0
1,64,87,0
1,43,73,40
1,43,81,62
1,59,81,35
1,67,82,3
1,62,81,0
1,43,81,2
1,43,79,63
1,67,92,28
1,60,90,0
1,64,93,0
1,48,68,20
1,48,79,65
1,67,89,115
1,64,88,0
1,60,88,0
1,48,67,35
1,48,81,55
1,69,87,45
1,60,87,0
1,64,91,3
1,48,81,23
1,48,76,53
1,67,85,115
1,60,82,0
1,64,86,0
1,48,81,5
1,48,78,45
1,69,82,8
1,60,88,2
1,64,93,0
1,50,77,48
1,50,83,45
1,66,96,120
1,62,82,0
1,69,87,2
1,50,73,8
1,50,80,60
