track,note,velocity,time
0,50,80,1
0,57,78,78
0,62,91,8
0,66,86,10
0,50,0,62
0,45,90,35
0,57,0,7
0,62,0,18
0,66,0,8
0,57,83,52
0,62,99,7
0,66,92,8
0,45,0,79
0,50,91,0
0,69,86,0
0,57,79,64
0,62,94,5
0,66,91,7
0,74,87,0
0,69,0,9
0,45,93,84
0,50,0,1
0,74,0,23
0,57,0,13
0,73,83,0
0,57,88,45
0,74,90,0
0,62,0,1
0,62,103,1
0,73,0,0
0,66,0,3
0,66,98,3
0,62,0,79
0,45,0,6
0,57,0,0
0,66,0,0
0,40,87,6
0,74,0,32
0,76,89,0
0,47,35,17
0,50,56,6
0,56,80,4
0,59,86,6
0,71,84,0
0,64,93,5
0,76,0,16
0,76,86,0
0,71,0,1
0,47,0,31
0,47,97,9
0,50,0,2
0,40,0,27
0,56,0,52
0,50,58,0
0,59,0,6
0,56,81,0
0,59,94,6
0,64,0,3
0,64,81,5
0,76,0,28
0,47,0,33
0,56,0,3
0,50,0,10
0,45,99,14
0,59,0,7
0,64,0,0
0,52,72,75
0,55,80,7
0,74,89,0
0,61,88,3
0,64,81,8
0,74,0,0
0,76,87,2
0,74,89,0
0,76,0,2
0,74,0,6
0,73,77,2
0,45,0,63
0,45,91,6
0,52,0,6
0,73,0,41
0,71,83,0
0,52,60,36
0,55,0,1
0,55,81,4
0,71,0,0
0,61,0,2
0,61,102,1
0,73,79,0
0,64,80,1
0,52,0,76
0,74,82,0
0,45,0,8
0,55,0,3
0,50,88,0
0,64,0,18
0,57,68,76
0,62,88,3
0,66,85,6
0,45,86,96
0,50,0,3
0,74,0,9
0,57,0,59
0,62,0,10
0,57,68,1
0,66,0,4
0,62,87,1
0,66,94,8
0,45,0,91
0,50,96,1
0,57,0,1
0,69,87,0
0,62,0,32
0,57,74,3
0,66,0,10
0,62,98,0
0,74,86,0
0,66,91,1
0,69,0,3
0,45,97,96
0,50,0,1
0,74,0,55
0,57,0,13
0,50,66,1
0,57,74,11
0,62,0,4
0,62,93,5
0,73,86,0
0,66,0,2
0,66,98,1
0,73,0,40
0,74,91,0
0,66,0,32
0,57,0,3
0,76,86,0
0,74,0,2
0,40,101,13
0,45,0,1
0,50,0,4
0,47,55,79
0,50,68,3
0,56,79,7
0,59,94,2
0,64,81,5
0,76,0,4
0,71,84,0
0,76,88,0
0,47,0,6
0,71,0,0
0,50,0,8
0,47,94,0
0,40,0,8
0,56,0,71
0,50,53,0
0,59,0,9
0,56,81,0
0,59,101,3
0,64,0,3
0,64,91,6
0,76,0,34
0,56,0,35
0,47,0,5
0,45,96,15
0,74,87,0
0,59,0,18
0,64,0,0
0,52,70,63
0,55,83,5
0,61,93,8
0,64,87,6
0,74,0,24
0,73,82,0
0,45,0,55
0,40,96,0
0,73,0,24
0,71,85,0
0,52,0,27
0,55,0,9
0,52,62,1
0,73,82,0
0,71,0,3
0,55,80,3
0,61,0,2
0,61,90,11
0,64,0,1
0,64,87,10
0,52,0,72
0,61,0,0
0,74,81,0
0,50,87,1
0,55,0,1
0,40,0,14
0,64,0,8
0,57,82,60
0,62,97,7
0,66,97,8
0,45,103,98
0,50,0,1
0,74,0,10
0,57,0,50
0,62,0,20
0,57,76,1
0,66,0,9
0,62,97,0
0,66,97,10
0,57,0,89
0,50,97,0
0,78,84,0
0,62,84,2
0,57,84,0
0,54,85,0
0,50,78,0
0,45,0,21
0,78,0,19
0,78,84,0
0,62,0,33
0,57,89,0
0,66,0,7
0,62,96,2
0,66,100,5
0,62,0,77
0,50,0,1
0,57,0,3
0,66,0,0
0,78,0,1
0,54,0,4
0,49,101,5
0,78,86,0
0,50,0,1
0,54,69,0
0,61,76,0
0,58,79,1
0,49,79,0
0,62,0,2
0,57,0,0
0,78,0,38
0,78,86,0
0,54,69,26
0,58,84,6
0,61,97,8
0,66,87,10
0,66,0,73
0,61,0,2
0,54,0,13
0,58,0,0
0,49,0,3
0,54,0,0
0,61,0,1
0,47,79,0
0,49,0,2
0,62,72,0
0,59,78,1
0,54,82,0
0,58,0,3
0,47,104,1
0,78,0,42
0,54,74,33
0,59,90,5
0,62,98,9
0,78,87,0
0,66,90,5
0,78,0,39
0,78,83,0
0,47,0,29
0,54,0,5
0,59,0,2
0,62,0,0
0,66,0,3
0,78,0,0
0,45,106,2
0,54,0,2
0,59,0,2
0,54,74,1
0,60,77,0
0,57,81,0
0,45,72,0
0,78,90,0
0,47,0,4
0,62,0,0
0,50,72,82
0,57,82,6
0,60,96,5
0,78,0,1
0,66,84,4
0,57,0,59
0,66,0,2
0,60,0,2
0,45,0,9
0,78,88,0
0,45,0,1
0,60,0,0
0,54,0,2
0,57,0,0
0,62,79,4
0,43,100,1
0,55,78,0
0,59,79,0
0,43,78,0
0,50,0,67
0,50,60,13
0,55,78,4
0,59,89,6
0,67,87,8
0,78,0,34
0,76,88,0
0,59,0,36
0,55,0,1
0,50,0,4
0,62,0,1
0,67,0,1
0,55,0,1
0,59,0,0
0,43,107,4
0,76,0,1
0,55,71,0
0,58,76,0
0,62,79,0
0,74,82,0
0,50,66,60
0,55,61,7
0,58,76,9
0,62,81,11
0,67,80,14
0,74,0,35
0,76,80,0
0,58,0,21
0,43,0,1
0,50,0,0
0,62,0,2
0,55,0,3
0,43,0,4
0,67,0,1
0,50,86,4
0,58,0,1
0,62,0,1
0,55,0,3
0,50,72,1
0,54,72,0
0,62,72,0
0,57,75,1
0,78,84,0
0,76,0,6
0,57,74,69
0,62,84,10
0,66,81,9
0,45,97,91
0,50,0,2
0,78,0,17
0,50,49,56
0,57,0,1
0,62,0,9
0,57,66,0
0,66,0,6
0,62,87,0
0,66,83,7
0,57,0,3
0,62,0,1
0,50,0,8
0,54,0,1
0,45,0,54
0,50,0,6
0,57,0,4
0,50,79,1
0,62,0,6
0,57,90,2
0,78,92,0
0,62,79,0
0,57,75,0
0,54,85,0
0,62,100,2
0,50,72,0
0,66,96,7
0,78,0,38
0,78,86,0
0,57,0,79
0,66,0,5
0,62,0,2
0,50,0,38
0,57,0,4
0,62,0,3
0,78,0,2
0,54,0,0
0,63,77,2
0,57,70,0
0,59,72,1
0,47,100,1
0,47,73,0
0,50,0,1
0,79,89,0
0,78,83,0
0,54,53,15
0,57,90,6
0,63,101,4
0,66,102,6
0,78,0,68
0,57,0,1
0,47,0,3
0,54,0,5
0,59,0,3
0,63,0,1
0,66,0,0
0,63,0,3
0,40,97,1
0,47,0,1
0,57,0,1
0,64,75,0
0,56,71,0
0,59,72,0
0,76,85,0
0,40,67,0
0,47,35,75
0,50,54,3
0,56,63,7
0,59,68,2
0,76,0,2
0,71,84,0
0,64,78,5
0,71,0,43
0,76,82,0
0,47,0,35
0,50,0,9
0,47,97,1
0,40,0,12
0,50,65,58
0,56,0,5
0,56,76,5
0,59,0,4
0,59,90,1
0,64,0,2
0,64,83,12
0,76,0,1
0,64,0,6
0,56,0,1
0,59,0,0
0,40,0,1
0,56,0,70
0,47,0,4
0,45,66,9
0,50,74,2
0,55,76,0
0,59,77,0
0,45,94,5
0,74,80,0
0,50,0,2
0,59,0,14
0,52,55,57
0,55,74,9
0,64,0,6
0,55,0,0
0,61,87,1
0,59,0,1
0,49,64,0
0,52,67,0
0,57,72,2
0,50,0,1
0,64,83,2
0,74,0,25
0,73,81,0
0,57,0,37
0,40,96,3
0,49,0,1
0,52,0,0
0,45,0,1
0,59,71,3
0,62,71,1
0,55,71,0
0,73,0,4
0,71,83,0
0,55,0,59
0,73,78,0
0,55,79,6
0,61,0,1
0,71,0,0
0,61,87,8
0,64,0,2
0,62,0,1
0,55,0,0
0,59,0,1
0,64,72,4
0,57,70,1
0,61,68,0
0,64,87,2
0,52,0,71
0,61,0,6
0,45,0,8
0,40,0,3
0,50,90,2
0,55,0,1
0,64,0,0
0,57,0,0
0,61,0,0
0,38,78,0
0,54,65,2
0,62,72,0
0,57,65,1
0,74,83,0
0,73,0,3
0,64,0,18
0,57,84,52
0,62,100,5
0,66,95,11
0,50,0,92
0,45,86,0
0,74,0,14
0,50,59,64
0,57,0,2
0,62,0,7
0,57,66,1
0,66,0,5
0,62,84,0
0,57,0,12
0,66,87,1
0,62,0,1
0,54,0,1
0,38,0,2
0,62,0,40
0,57,0,1
0,66,0,0
0,50,0,3
0,45,0,6
0,69,90,0
0,50,87,12
0,74,82,0
0,69,0,3
0,57,72,19
0,62,94,8
0,66,95,9
0,57,0,83
0,45,100,3
0,50,0,4
0,74,0,20
0,73,86,0
0,50,68,39
0,62,0,7
0,57,79,2
0,62,91,0
0,74,87,0
0,73,0,2
0,66,87,6
0,66,0,69
0,57,0,1
0,62,0,4
0,74,0,3
0,76,88,0
0,40,99,1
0,45,0,2
0,50,0,20
0,47,78,55
0,50,74,4
0,56,74,10
0,59,91,6
0,71,82,0
0,64,71,9
0,76,86,0
0,71,0,4
0,47,0,36
0,40,0,14
0,47,94,1
0,50,0,1
0,50,58,69
0,56,0,5
0,56,80,1
0,59,0,2
0,59,93,6
0,64,0,8
0,64,84,1
0,76,0,23
0,56,0,41
0,47,0,5
0,50,0,8
0,45,104,11
0,74,88,0
0,73,83,0
0,74,0,2
0,52,76,18
0,55,82,6
0,61,88,8
0,64,81,6
0,45,0,94
0,40,100,0
0,73,0,18
0,71,86,0
0,52,0,23
0,55,0,8
0,52,66,1
0,55,81,4
0,61,0,2
0,61,90,8
0,64,0,4
0,64,76,0
0,73,80,0
0,71,0,5
0,52,0,69
0,61,0,3
0,64,0,1
0,74,85,0
0,55,0,1
0,50,97,0
0,40,0,35
0,57,76,53
0,62,91,5
0,66,89,7
0,74,0,72
0,57,0,15
0,50,0,4
0,45,97,0
0,50,59,82
0,62,0,7
0,57,65,3
0,66,0,4
0,62,93,2
0,66,86,5
0,50,0,85
0,69,86,0
0,45,0,3
0,57,0,0
0,50,94,0
0,69,0,44
0,74,87,0
0,62,0,21
0,57,81,1
0,66,0,8
0,62,97,0
0,66,101,10
0,45,101,91
0,50,0,2
0,74,0,47
0,73,83,0
0,50,65,19
0,57,0,2
0,62,0,12
0,57,74,0
0,66,0,7
0,62,90,1
0,66,87,10
0,73,0,24
0,74,85,0
0,57,0,41
0,66,0,0
0,62,0,3
0,76,83,0
0,74,0,4
0,45,0,11
0,40,99,0
0,50,0,25
0,47,47,56
0,50,60,4
0,56,76,8
0,59,91,3
0,76,0,0
0,64,88,9
0,71,88,0
0,47,0,31
0,76,78,0
0,50,0,7
0,47,99,1
0,40,0,29
0,50,66,52
0,56,0,2
0,59,0,6
0,56,74,1
0,59,91,3
0,64,0,4
0,64,85,1
0,76,0,8
0,47,0,59
0,56,0,6
0,50,0,7
0,74,89,0
0,45,97,1
0,59,0,8
0,64,0,0
0,52,68,71
0,55,81,3
0,61,91,8
0,64,81,4
0,74,0,48
0,73,87,0
0,45,0,33
0,45,90,9
0,52,0,3
0,73,0,56
0,71,85,0
0,55,0,11
0,52,70,1
0,55,80,5
0,61,0,1
0,61,91,7
0,64,0,3
0,64,82,1
0,73,83,0
0,71,0,5
0,55,0,68
0,52,0,3
0,61,0,2
0,73,0,0
0,45,0,5
0,50,94,0
0,74,84,0
0,64,0,20
0,57,78,67
0,62,99,3
0,66,96,7
0,45,96,91
0,50,0,1
0,74,0,23
0,50,51,47
0,57,0,2
0,62,0,6
0,57,69,0
0,62,81,10
0,66,0,2
0,66,86,7
0,50,0,86
0,78,81,0
0,57,0,5
0,50,100,2
0,62,84,0
0,57,82,0
0,54,84,1
0,50,78,0
0,45,0,11
0,78,0,30
0,78,87,0
0,62,0,30
0,57,81,3
0,66,0,5
0,62,94,0
0,66,88,7
0,57,0,84
0,54,0,3
0,62,0,1
0,66,0,0
0,50,0,2
0,50,0,4
0,54,73,0
0,61,75,0
0,58,74,1
0,49,85,0
0,49,99,2
0,62,0,0
0,57,0,0
0,78,0,38
0,78,93,0
0,54,74,28
0,58,72,6
0,61,87,5
0,78,0,4
0,66,88,6
0,78,84,0
0,49,0,79
0,58,0,1
0,61,0,0
0,78,0,0
0,54,0,4
0,66,0,2
0,54,0,0
0,61,0,1
0,47,72,0
0,49,0,2
0,62,72,0
0,59,78,1
0,54,82,0
0,47,94,1
0,58,0,2
0,78,95,0
0,54,72,18
0,59,85,6
0,62,94,9
0,66,87,10
0,78,0,12
0,78,87,0
0,78,0,47
0,78,83,0
0,66,0,2
0,59,0,1
0,62,0,0
0,54,0,5
0,45,102,2
0,59,0,0
0,54,74,1
0,60,77,0
0,57,81,0
0,45,72,0
0,47,0,5
0,62,0,0
0,57,83,74
0,60,98,11
0,66,96,11
0,78,0,41
0,45,0,33
0,57,0,6
0,45,0,2
0,60,0,2
0,60,0,2
0,66,0,0
0,54,0,0
0,57,0,0
0,43,102,0
0,78,98,0
0,62,79,0
0,55,78,1
0,59,79,0
0,43,78,0
0,50,56,68
0,55,56,8
0,59,74,8
0,62,82,8
0,67,70,10
0,78,0,38
0,76,91,0
0,59,0,24
0,62,0,4
0,55,0,2
0,59,0,0
0,43,0,4
0,43,101,1
0,55,71,0
0,58,76,0
0,62,79,0
0,50,0,1
0,76,0,7
0,74,85,0
0,55,0,64
0,55,66,8
0,62,0,4
0,58,81,2
0,67,0,7
0,62,96,1
0,67,85,13
0,74,0,33
0,76,89,0
0,58,0,20
0,62,0,10
0,43,0,1
0,67,0,2
0,43,0,0
0,55,0,3
0,58,0,3
0,62,0,1
0,50,87,1
0,55,0,2
0,50,72,1
0,54,72,0
0,62,72,0
0,57,75,1
0,76,0,8
0,78,84,0
0,57,65,65
0,62,80,6
0,66,80,8
0,45,90,95
0,50,0,2
0,50,41,71
0,57,0,2
0,62,0,7
0,57,68,1
0,78,0,6
0,62,91,1
0,66,0,3
0,66,81,3
0,57,0,9
0,62,0,1
0,50,0,8
0,54,0,1
0,50,0,54
0,57,0,8
0,50,75,0
0,62,0,7
0,57,83,1
0,66,0,5
0,62,101,2
0,62,79,2
0,57,75,0
0,54,85,0
0,50,72,2
0,66,99,0
0,78,91,0
0,45,0,19
0,78,0,19
0,78,89,0
0,66,0,117
0,57,0,2
0,62,0,1
0,50,0,10
0,57,0,3
0,47,101,3
0,62,0,0
0,54,0,2
0,63,77,2
0,57,70,0
0,59,72,1
0,47,73,1
0,50,0,1
0,78,0,40
0,79,88,0
0,54,70,20
0,57,82,10
0,63,91,11
0,79,0,2
0,78,85,0
0,66,87,10
0,57,0,70
0,47,0,1
0,54,0,4
0,63,0,3
0,66,0,4
0,59,0,3
0,40,98,1
0,63,0,3
0,78,0,1
0,47,0,1
0,57,0,1
0,64,75,0
0,56,71,0
0,59,72,0
0,40,67,1
0,76,92,0
0,50,49,35
0,47,51,1
0,56,54,7
0,59,84,4
0,71,84,0
0,64,63,7
0,76,0,6
0,71,0,31
0,76,89,0
0,47,0,30
0,50,0,7
0,47,88,1
0,40,0,21
0,50,46,53
0,56,0,3
0,59,0,10
0,56,58,0
0,59,79,7
0,64,0,8
0,64,81,3
0,64,0,6
0,56,0,1
0,59,0,0
0,40,0,1
0,76,0,11
0,56,0,51
0,50,0,1
0,47,0,4
0,45,99,12
0,45,66,4
0,50,74,2
0,55,76,0
0,59,77,0
0,74,92,0
0,59,0,14
0,74,0,30
0,73,87,0
0,52,51,13
0,55,74,7
0,61,85,10
0,64,0,1
0,64,87,9
0,55,0,0
0,59,0,2
0,49,64,0
0,52,67,0
0,57,72,2
0,50,0,1
0,57,0,87
0,49,0,4
0,52,0,0
0,45,0,2
0,59,71,2
0,62,71,1
0,55,71,0
0,45,80,3
0,52,0,2
0,73,0,26
0,71,86,0
0,55,0,22
0,52,46,0
0,55,72,6
0,61,0,2
0,61,83,8
0,64,0,4
0,62,0,0
0,55,0,0
0,59,0,1
0,64,82,2
0,64,72,2
0,57,70,1
0,61,68,0
0,73,83,0
0,71,0,1
0,52,0,72
0,61,0,2
0,45,0,1
0,45,0,7
0,64,0,6
0,57,0,0
0,61,0,0
0,38,78,0
