track,note,velocity,time
0,27,81,1536
0,36,127,0
0,44,127,0
0,39,71,2
0,39,91,2
0,40,95,102
0,44,91,0
0,31,81,2
0,39,106,0
0,43,71,2
0,43,60,0
0,44,83,78
0,36,110,64
0,34,81,2
0,44,86,0
0,46,71,2
0,46,91,0
0,40,102,36
0,44,91,0
0,36,81,2
0,39,102,0
0,48,71,2
0,48,74,0
0,34,81,46
0,44,78,0
0,46,71,2
0,46,73,0
0,27,81,8
0,36,110,0
0,44,89,0
0,39,71,2
0,39,81,2
0,40,97,96
0,44,93,0
0,31,81,2
0,39,98,0
0,43,71,2
0,43,67,0
0,44,84,94
0,34,81,72
0,36,110,0
0,44,87,0
0,46,71,2
0,46,77,2
0,40,102,16
0,44,89,0
0,36,81,2
0,39,95,0
0,48,71,2
0,48,65,0
0,44,85,64
0,46,71,2
0,34,81,0
0,46,73,0
0,27,81,30
0,36,110,0
0,44,87,0
0,39,71,2
0,39,85,2
0,40,102,134
0,44,91,0
0,31,81,2
0,39,98,0
0,43,71,2
0,43,81,0
0,44,78,78
0,34,81,66
0,36,110,0
0,44,86,0
0,46,71,2
0,46,68,0
0,40,99,12
0,44,93,0
0,36,81,2
0,39,95,0
0,48,71,2
0,48,69,0
0,34,81,0
0,44,83,0
0,46,71,2
0,46,61,0
0,36,110,2
0,44,89,0
0,39,71,2
0,27,81,0
0,39,81,2
0,40,94,92
0,44,89,0
0,39,102,2
0,43,71,2
0,31,81,0
0,43,69,0
0,44,84,122
0,34,81,30
0,36,110,0
0,44,84,0
0,46,71,2
0,46,77,2
0,40,97,92
0,40,92,20
0,44,89,0
0,39,95,2
0,48,71,2
0,36,81,0
0,48,58,0
0,58,123,102
0,40,97,32
0,44,85,0
0,34,81,2
0,46,71,2
0,46,81,0
0,27,81,18
0,36,110,0
0,44,89,0
0,39,71,2
0,49,107,0
0,39,68,0
0,58,74,42
0,63,72,2
0,67,80,0
0,58,118,10
0,40,102,20
0,44,96,0
0,39,98,2
0,43,71,2
0,31,81,0
0,43,90,0
0,58,84,2
0,55,80,2
0,63,72,0
0,70,93,12
0,63,89,2
0,67,94,2
0,44,84,72
0,58,75,2
0,67,80,0
0,63,67,2
0,34,81,48
0,36,110,0
0,44,85,0
0,46,71,2
0,46,77,2
0,58,122,26
0,58,73,62
0,67,78,2
0,63,68,0
0,60,121,6
0,40,107,16
0,44,87,0
0,39,95,2
0,48,71,2
0,36,81,0
0,48,59,0
0,58,90,2
0,63,80,2
0,55,84,0
0,63,92,8
0,67,98,2
0,70,94,0
0,63,119,58
0,44,84,6
0,46,71,2
0,58,72,0
0,34,81,0
0,67,82,2
0,63,70,0
0,46,68,2
0,27,81,2
0,36,110,0
0,44,87,0
0,39,71,2
0,39,73,2
0,70,94,100
0,58,70,4
0,67,74,0
0,63,63,2
0,58,90,0
0,55,73,0
0,63,90,2
0,63,80,0
0,67,96,2
0,40,97,12
0,31,81,2
0,44,93,0
0,39,95,0
0,43,71,2
0,43,90,0
0,63,67,90
0,44,83,0
0,67,76,2
0,58,67,0
0,36,110,6
0,46,71,2
0,34,81,0
0,44,86,0
0,46,73,2
0,58,90,2
0,63,72,0
0,55,73,0
0,70,98,2
0,63,93,0
0,67,103,2
0,67,74,76
0,44,87,0
0,58,68,2
0,63,64,0
0,40,107,20
0,44,81,0
0,39,98,2
0,48,71,2
0,36,81,0
0,48,60,0
0,46,71,10
0,34,81,0
0,44,85,0
0,58,73,2
0,67,82,0
0,63,67,2
0,46,70,0
0,58,111,2
0,36,110,16
0,27,81,2
0,44,86,0
0,39,71,2
0,39,73,0
0,67,83,74
0,58,74,0
0,63,71,2
0,58,115,4
0,40,99,20
0,44,91,2
0,39,98,0
0,43,71,2
0,31,81,0
0,43,85,2
0,58,61,0
0,63,60,2
0,55,56,0
0,63,91,8
0,70,89,2
0,67,94,0
0,44,81,72
0,67,83,2
0,58,75,0
0,63,75,2
0,58,108,20
0,36,110,4
0,34,81,2
0,44,87,0
0,46,71,2
0,46,70,0
0,60,116,16
0,67,80,64
0,58,74,2
0,63,72,0
0,40,102,20
0,44,91,0
0,39,102,0
0,48,71,2
0,36,81,0
0,48,59,2
0,63,69,0
0,58,80,2
0,55,71,0
0,63,90,38
0,67,95,0
0,70,89,0
0,63,119,36
0,44,83,64
0,46,71,2
0,34,81,0
0,58,73,2
0,63,76,0
0,67,82,0
0,46,68,0
0,27,81,2
0,36,110,0
0,44,84,0
0,39,71,2
0,39,70,2
0,63,92,70
0,67,100,2
0,70,94,0
0,58,76,2
0,63,79,2
0,67,83,0
0,58,90,2
0,55,68,0
0,63,69,0
0,40,94,12
0,44,91,0
0,39,102,0
0,43,71,2
0,31,81,0
0,43,81,2
0,44,69,94
0,58,75,2
0,67,78,0
0,63,76,0
0,63,92,26
0,67,103,0
0,70,96,2
0,36,110,2
0,34,81,2
0,44,78,0
0,46,56,2
0,58,83,0
0,58,84,2
0,63,72,0
0,55,71,0
0,58,72,0
0,63,73,0
0,67,78,2
0,40,97,4
0,44,96,2
0,39,98,0
0,48,71,2
0,36,81,0
0,48,62,0
0,58,91,98
0,34,81,12
0,44,74,0
0,46,71,2
0,63,67,0
0,58,67,0
0,67,69,2
0,46,70,2
0,36,110,18
0,44,91,0
0,44,71,2
0,32,81,0
0,44,73,2
0,60,120,16
0,68,74,74
0,63,80,0
0,60,72,2
0,63,93,26
0,60,114,2
0,68,89,0
0,40,95,2
0,44,85,0
0,48,71,2
0,36,81,0
0,39,102,0
0,48,65,2
0,60,80,2
0,63,67,0
0,56,67,0
0,72,94,2
0,63,82,56
0,44,77,0
0,68,72,2
0,60,71,0
0,60,108,36
0,36,110,4
0,39,81,2
0,44,89,0
0,51,71,2
0,51,70,0
0,68,70,8
0,63,80,2
0,60,69,0
0,40,87,50
0,44,85,0
0,39,98,0
0,53,71,2
0,41,81,0
0,53,72,2
0,63,69,0
0,56,65,2
0,60,94,0
0,60,90,4
0,63,90,2
0,68,92,0
0,72,92,0
0,60,115,62
0,39,81,48
0,44,78,0
0,51,71,2
0,68,71,0
0,63,80,0
0,60,70,2
0,51,70,0
0,36,110,16
0,44,89,2
0,44,71,2
0,32,81,0
0,44,85,0
0,63,93,90
0,72,94,0
0,68,86,2
0,63,80,2
0,68,74,2
0,60,70,0
0,63,69,2
0,56,65,0
0,60,94,0
0,60,110,10
0,40,89,8
0,36,81,2
0,44,89,0
0,39,98,0
0,48,71,2
0,48,81,0
0,60,113,54
0,63,80,62
0,44,79,0
0,68,70,2
0,60,67,0
0,68,94,28
0,63,91,0
0,72,98,2
0,36,110,2
0,39,81,2
0,44,86,0
0,51,71,2
0,51,70,0
0,60,76,2
0,56,63,0
0,63,62,0
0,63,82,74
0,44,87,0
0,68,70,2
0,60,69,0
0,40,95,14
0,44,91,0
0,48,71,2
0,36,81,0
0,39,95,0
0,53,65,2
0,63,75,132
0,44,85,0
0,60,68,2
0,68,67,0
0,51,73,0
0,36,110,30
0,44,89,2
0,39,71,2
0,27,81,0
0,39,77,0
0,58,112,4
0,58,71,102
0,67,72,2
0,63,71,0
0,58,119,26
0,40,88,4
0,44,93,0
0,31,81,2
0,39,102,0
0,43,71,2
0,43,90,0
0,63,65,2
0,58,72,0
0,55,68,0
0,63,92,8
0,70,88,0
0,67,94,2
0,58,72,96
0,44,81,0
0,67,76,2
0,63,73,0
0,36,110,8
0,44,87,2
0,46,71,2
0,34,81,0
0,46,73,0
0,58,113,2
0,60,118,28
0,58,67,32
0,67,74,2
0,63,73,0
0,40,94,20
0,36,81,2
0,44,96,0
0,39,98,0
0,48,71,2
0,48,59,2
0,58,84,0
0,63,69,0
0,55,66,0
0,63,90,12
0,67,91,2
0,70,89,0
0,63,122,12
0,34,81,12
0,44,79,0
0,46,71,2
0,58,66,0
0,67,74,0
0,63,73,2
0,46,77,2
0,27,81,14
0,36,110,0
0,44,84,0
0,39,71,2
0,39,77,2
0,63,89,74
0,58,64,12
0,67,73,2
0,63,71,0
0,58,84,2
0,63,72,0
0,55,71,0
0,67,95,8
0,70,88,2
0,40,95,10
0,31,81,2
0,44,87,0
0,39,102,0
0,43,71,2
0,43,81,2
0,58,55,84
0,44,76,0
0,63,69,2
0,67,70,0
0,55,127,28
0,36,110,4
0,34,81,2
0,44,84,0
0,46,71,2
0,46,68,0
0,63,69,2
0,58,84,0
0,55,73,0
0,63,94,10
0,67,103,2
0,70,93,0
0,44,83,76
0,58,58,2
0,63,69,0
0,67,72,0
0,58,115,2
0,40,90,12
0,44,86,0
0,36,81,2
0,39,98,0
0,48,71,2
0,48,55,0
0,44,86,100
0,46,71,2
0,58,65,0
0,34,81,0
0,67,73,2
0,63,67,0
0,46,73,0
0,53,113,2
0,36,110,12
0,44,86,0
0,41,71,2
0,29,81,0
0,41,67,2
0,65,110,4
0,68,102,0
0,60,113,0
0,60,68,122
0,65,75,2
0,68,72,0
0,40,97,6
0,44,91,0
0,31,81,2
0,39,98,0
0,43,71,2
0,43,85,0
0,68,69,100
0,44,85,0
0,60,62,2
0,65,69,0
0,36,110,54
0,44,85,0
0,44,71,2
0,32,81,0
0,44,81,0
0,68,68,102
0,60,64,2
0,65,71,0
0,40,104,4
0,33,81,2
0,44,87,0
0,39,98,0
0,45,71,2
0,45,85,2
0,44,79,6
0,68,71,2
0,65,69,0
0,60,63,0
0,70,100,28
0,65,121,2
0,62,113,0
0,36,110,4
0,44,86,0
0,46,71,2
0,34,81,0
0,46,77,2
0,55,121,28
0,58,72,28
0,62,73,2
0,65,74,0
0,40,95,2
0,44,89,0
0,48,71,2
0,36,81,0
0,39,86,0
0,48,67,2
0,53,113,28
0,44,86,36
0,58,67,2
0,62,70,0
0,65,68,2
0,36,110,4
0,49,71,2
0,37,81,0
0,44,86,0
0,49,68,2
0,51,110,4
0,58,69,74
0,62,72,0
0,65,68,0
0,53,116,12
0,40,95,8
0,44,93,0
0,38,81,2
0,39,79,0
0,50,71,2
0,50,59,0
0,44,81,38
0,58,65,2
0,62,68,0
0,65,67,2
0,55,93,0
0,39,81,38
0,36,110,0
0,44,86,0
0,51,71,2
0,51,64,2
0,67,105,2
0,63,121,2
0,58,73,122
0,63,71,0
0,67,74,0
0,40,102,8
0,44,89,0
0,36,81,2
0,39,83,0
0,48,71,2
0,48,69,0
0,58,68,86
0,44,84,0
0,63,72,2
0,67,73,0
0,36,110,24
0,46,71,2
0,34,81,0
0,44,84,0
0,46,70,2
0,63,70,154
0,58,67,0
0,67,73,2
0,40,97,24
0,44,93,0
0,39,77,2
0,43,71,2
0,31,81,0
0,43,90,0
0,44,84,102
0,67,72,2
0,63,66,0
0,58,61,0
0,27,81,2
0,36,110,0
0,44,87,0
0,39,71,2
0,39,73,2
0,63,69,94
0,58,65,0
0,67,69,2
0,40,107,4
0,44,93,0
0,39,83,2
0,43,71,2
0,31,81,0
0,43,74,0
0,63,68,118
0,44,84,0
0,58,66,2
0,67,74,0
0,36,110,30
0,46,71,2
0,34,81,0
0,44,84,0
0,46,70,2
0,40,94,88
0,44,86,0
0,63,67,2
0,67,70,0
0,58,65,2
0,40,102,14
0,44,89,2
0,39,77,0
0,48,71,2
0,36,81,0
0,48,60,2
0,58,109,16
0,40,104,6
0,44,89,0
0,46,71,2
0,34,81,0
0,63,67,2
0,67,70,0
0,58,64,2
0,46,70,0
0,36,110,8
0,27,81,2
0,44,93,0
0,39,71,2
0,39,70,0
0,58,95,110
0,63,67,40
0,67,70,2
0,58,65,0
0,40,97,16
0,44,93,0
0,39,91,0
0,43,71,2
0,31,81,0
0,43,74,2
0,58,84,0
0,63,69,2
0,55,73,0
0,63,98,6
0,67,103,0
0,70,96,0
0,58,90,46
0,63,66,46
0,44,87,0
0,67,67,2
0,58,64,0
0,58,112,4
0,36,110,24
0,46,71,2
0,34,81,0
0,44,89,0
0,46,68,2
0,60,99,0
0,67,70,56
0,63,61,0
0,58,63,2
0,40,95,2
0,44,89,0
0,36,81,2
0,39,98,0
0,48,71,2
0,48,57,0
0,58,84,2
0,55,66,0
0,63,72,0
0,63,97,12
0,67,103,2
0,70,98,0
0,63,117,4
0,34,81,2
0,44,81,0
0,46,71,2
0,63,65,0
0,67,71,2
0,58,63,0
0,46,70,0
0,36,110,26
0,27,81,2
0,44,91,0
0,39,71,2
0,39,81,0
0,58,70,92
0,63,71,2
0,67,76,0
0,58,84,0
0,63,72,2
0,55,68,0
0,63,96,4
0,67,105,2
0,70,100,0
0,40,95,10
0,44,93,0
0,39,93,0
0,43,71,2
0,31,81,0
0,43,81,2
0,44,85,102
0,63,66,2
0,67,71,0
0,58,66,0
0,36,110,32
0,46,71,2
0,34,81,0
0,44,89,0
0,46,77,2
0,58,80,2
0,63,67,0
0,55,68,0
0,63,98,2
0,70,102,2
0,67,113,2
0,58,71,86
0,63,73,2
0,67,78,0
0,40,92,16
0,44,86,0
0,39,88,0
0,48,71,2
0,36,81,0
0,48,67,2
0,55,108,78
0,44,85,24
0,46,71,2
0,67,73,0
0,34,81,0
0,63,67,2
0,58,67,0
0,46,68,0
0,58,113,4
0,27,81,26
0,36,110,0
0,44,85,0
0,39,71,2
0,39,77,2
0,63,67,58
0,67,69,0
0,58,65,2
0,58,122,20
0,40,89,16
0,44,91,2
0,39,91,0
0,43,71,2
0,31,81,0
0,43,74,2
0,63,69,0
0,58,80,0
0,55,64,0
0,63,96,8
0,67,95,2
0,70,92,0
0,44,85,64
0,63,69,2
0,67,71,0
0,58,69,2
0,34,81,54
0,36,110,0
0,44,89,0
0,46,71,2
0,46,73,2
0,58,119,4
0,60,116,24
0,63,66,40
0,58,68,0
0,67,70,2
0,40,94,16
0,44,93,2
0,39,95,0
0,48,71,2
0,36,81,0
0,48,64,2
0,58,84,0
0,63,69,2
0,55,71,0
0,63,93,4
0,67,100,2
0,70,92,0
0,63,116,28
0,34,81,12
0,44,80,0
0,46,71,2
0,63,67,0
0,67,68,0
0,58,69,2
0,46,66,0
0,36,110,18
0,44,84,0
0,39,71,2
0,27,81,0
0,39,66,2
0,67,101,38
0,67,71,4
0,63,71,0
0,58,68,2
0,58,84,0
0,63,72,0
0,55,71,2
0,63,92,2
0,70,94,0
0,40,90,8
0,44,87,2
0,39,102,0
0,39,71,2
0,27,81,0
0,43,77,2
0,67,71,118
0,44,84,0
0,63,72,2
0,58,69,0
0,63,96,48
0,70,96,0
0,36,110,4
0,29,81,2
0,44,81,0
0,41,71,2
0,46,70,0
0,58,90,2
0,63,72,0
0,67,105,2
0,55,71,0
0,44,87,76
0,67,71,2
0,58,71,0
0,63,69,0
0,40,95,14
0,44,80,0
0,39,98,0
0,43,71,2
0,31,81,0
0,48,60,2
0,58,106,66
0,58,73,52
0,44,89,0
0,63,70,2
0,67,70,0
0,46,61,0
0,60,116,4
0,36,110,40
0,44,89,2
0,44,71,2
0,32,81,0
0,44,77,0
0,63,66,46
0,60,67,0
0,68,67,2
0,60,116,14
0,40,92,4
0,36,81,2
0,44,87,0
0,39,106,0
0,48,71,2
0,48,69,2
0,63,65,0
0,56,67,0
0,63,96,2
0,60,89,0
0,72,96,2
0,68,90,0
0,63,69,76
0,44,68,0
0,60,68,2
0,68,69,0
0,60,109,0
0,36,110,16
0,39,81,2
0,44,83,0
0,51,71,2
0,51,77,0
0,62,109,16
0,63,69,20
0,68,67,0
0,60,65,2
0,40,97,0
0,44,86,0
0,41,81,2
0,39,98,0
0,53,71,2
0,53,67,0
0,63,63,2
0,56,63,0
0,60,80,0
0,68,96,2
0,72,105,0
0,63,93,0
0,60,118,40
0,44,86,48
0,51,71,2
0,39,81,0
0,63,73,2
0,68,69,0
0,60,71,0
0,51,77,2
0,36,110,22
0,44,85,0
0,44,71,2
0,32,81,0
0,44,58,2
0,68,70,118
0,60,67,2
0,63,70,0
0,60,76,0
0,56,63,2
0,63,63,0
0,68,90,20
0,63,89,2
0,72,93,0
0,40,94,6
0,44,93,0
0,36,81,2
0,39,93,0
0,48,71,2
