track,note,velocity,time
1,45,114,3504
1,45,114,26
1,45,114,1586
1,45,114,56
1,45,114,1968
1,47,113,20
1,48,113,38
1,49,111,18
1,50,114,24
1,48,110,12
1,45,114,10
1,48,112,20
1,50,114,10
1,48,110,22
1,45,114,10
1,43,112,14
1,45,114,24
1,45,103,16
1,40,114,10
1,40,93,16
1,45,114,26
1,45,97,16
1,40,114,20
1,43,104,14
1,40,114,10
1,40,110,12
1,47,114,10
1,50,112,20
1,40,114,10
1,40,110,22
1,47,114,10
1,50,112,14
1,45,114,24
1,43,103,16
1,40,114,10
1,43,93,16
1,45,114,26
1,45,97,16
1,40,114,20
1,43,104,14
1,45,114,10
1,45,114,784
1,45,114,56
1,45,114,816
1,45,114,56
1,45,114,816
1,45,114,56
1,45,114,816
1,45,114,56
1,45,114,816
1,45,114,56
1,45,114,816
1,45,114,56
1,45,114,1200
1,47,113,20
1,48,113,38
1,49,111,18
1,50,114,24
1,48,110,12
1,45,114,10
1,48,112,20
1,50,114,10
1,48,110,22
1,45,114,10
1,43,112,14
1,45,114,24
1,45,103,16
1,40,114,10
1,40,93,16
1,45,114,26
1,45,97,16
1,40,114,20
1,43,104,14
1,40,114,10
1,40,110,12
1,47,114,10
1,50,112,20
1,40,114,10
1,40,110,22
1,47,114,10
1,50,112,14
1,45,114,24
1,43,103,16
1,40,114,10
1,43,93,16
1,45,114,26
1,45,97,16
1,40,114,20
1,43,104,14
1,45,114,10
1,49,103,16
1,52,114,10
1,43,93,16
1,45,114,26
1,49,103,16
1,52,114,10
1,43,93,16
1,45,114,26
1,49,103,16
1,52,114,10
1,43,93,16
1,45,114,26
1,43,103,16
1,40,114,10
1,43,93,16
1,50,114,26
1,48,110,12
1,45,114,10
1,48,112,20
1,50,114,10
1,48,110,22
1,45,114,10
1,43,112,14
1,45,114,24
1,45,103,16
1,40,114,10
1,40,93,16
1,45,114,26
1,45,97,16
1,40,114,20
1,43,104,14
1,40,114,10
1,40,110,12
1,47,114,10
1,50,112,20
1,40,114,10
1,40,110,22
1,47,114,10
1,50,112,14
1,45,114,24
1,43,103,16
1,40,114,10
1,43,93,16
1,45,114,26
1,45,97,16
1,40,114,20
1,43,104,14
1,45,114,10
1,45,114,784
1,45,114,56
1,45,114,816
1,45,114,56
1,45,114,816
1,45,114,56
1,45,114,816
1,45,114,56
1,45,114,816
1,45,114,56
1,45,114,816
1,45,114,56
1,45,114,1200
1,47,113,20
1,48,113,38
1,49,111,18
1,50,114,24
1,48,110,12
1,45,114,10
1,48,112,20
1,50,114,10
1,48,110,22
1,45,114,10
1,43,112,14
1,45,114,24
1,45,103,16
1,40,114,10
1,40,93,16
1,45,114,26
1,45,97,16
1,40,114,20
1,43,104,14
1,40,114,10
1,40,110,12
1,47,114,10
1,50,112,20
1,40,114,10
1,40,110,22
1,47,114,10
1,50,112,14
1,45,114,24
1,43,103,16
1,40,114,10
1,43,93,16
1,45,114,26
1,45,97,16
1,40,114,20
1,43,104,14
1,45,114,10
1,49,103,16
1,52,114,10
1,43,93,16
1,45,114,26
1,49,103,16
1,52,114,10
1,43,93,16
1,45,114,26
1,49,103,16
1,52,114,10
1,43,93,16
1,45,114,26
1,43,103,16
1,40,114,10
1,43,93,16
1,50,114,26
1,48,110,12
1,45,114,10
1,48,112,20
1,50,114,10
1,48,110,22
1,45,114,10
1,43,112,14
1,45,114,24
1,45,103,16
1,40,114,10
1,40,93,16
1,45,114,26
1,45,97,16
1,40,114,20
1,43,104,14
1,40,114,10
1,40,110,12
1,47,114,10
1,50,112,20
1,40,114,10
1,40,110,22
1,47,114,10
1,50,112,14
1,45,114,24
1,43,103,16
1,40,114,10
1,43,93,16
1,45,114,26
1,45,97,16
1,40,114,20
1,43,104,14
1,45,114,10
1,45,114,784
1,45,114,56
1,45,114,816
1,45,114,56
1,45,114,816
1,45,114,22
1,47,113,20
1,48,113,38
1,49,111,18
1,50,114,24
1,48,110,12
1,45,114,10
1,48,112,20
1,50,114,10
1,48,110,22
1,45,114,10
1,43,112,14
1,45,114,24
1,45,103,16
1,40,114,10
1,40,93,16
1,45,114,26
1,45,97,16
1,40,114,20
1,43,104,14
1,40,114,10
1,40,110,12
1,47,114,10
1,50,112,20
1,40,114,10
1,40,110,22
1,47,114,10
1,50,112,14
1,45,114,24
1,43,103,16
1,40,114,10
1,43,93,16
1,45,114,26
1,45,97,16
1,40,114,20
1,43,104,14
1,45,114,10
1,49,103,16
1,52,114,10
1,43,93,16
1,45,114,26
1,49,103,16
1,52,114,10
1,43,93,16
1,45,114,26
1,49,103,16
1,52,114,10
1,43,93,16
1,45,114,26
1,43,103,16
1,40,114,10
1,43,93,16
1,50,114,26
1,48,110,12
1,45,114,10
1,48,112,20
1,50,114,10
1,48,110,22
1,45,114,10
1,43,112,14
1,45,114,24
1,45,103,16
1,40,114,10
1,40,93,16
1,45,114,26
1,45,97,16
1,40,114,20
1,43,104,14
1,40,114,10
1,40,110,12
1,47,114,10
1,50,112,20
1,40,114,10
1,40,110,22
1,47,114,10
1,50,112,14
1,45,114,24
1,43,103,16
1,40,114,10
1,43,93,16
1,45,114,26
1,45,97,16
1,45,114,68
1,45,104,158
2,45,90,3344
2,45,107,6
2,52,107,12
2,57,99,10
2,61,99,6
2,57,80,8
2,52,85,8
2,45,83,6
2,45,106,2
2,52,107,0
2,57,93,8
2,61,99,6
2,45,90,1482
2,45,107,6
2,52,107,12
2,57,99,10
2,61,99,6
2,57,80,8
2,52,85,8
2,45,83,6
2,45,106,2
2,52,107,0
2,57,93,8
2,61,99,6
2,50,88,3538
2,57,89,6
2,62,84,6
2,66,85,6
2,62,82,4
2,57,86,4
2,50,87,4
2,57,96,4
2,62,89,4
2,66,90,4
2,50,82,4
2,50,95,4
2,57,91,4
2,62,84,4
2,62,84,4
2,57,80,4
2,50,83,4
2,50,89,4
2,57,91,4
2,62,84,4
2,66,85,4
2,57,82,4
2,50,84,4
2,50,88,8
2,57,89,6
2,62,84,6
2,66,85,6
2,62,82,4
2,57,86,4
2,50,87,4
2,57,96,4
2,62,89,4
2,66,90,4
2,50,82,4
2,50,95,4
2,57,91,4
2,62,84,4
2,62,84,4
2,57,80,4
2,50,83,4
2,50,89,4
2,57,91,4
2,62,84,4
2,66,85,4
2,57,82,4
2,50,84,4
2,52,88,8
2,57,89,6
2,61,84,6
2,64,85,6
2,61,82,4
2,57,86,4
2,52,87,4
2,57,96,4
2,61,89,4
2,64,90,4
2,52,82,4
2,52,95,4
2,57,91,4
2,61,84,4
2,61,84,4
2,57,80,4
2,52,83,4
2,52,89,4
2,57,91,4
2,61,84,4
2,64,85,4
2,57,82,4
2,52,84,4
2,52,88,8
2,57,89,6
2,61,84,6
2,64,85,6
2,61,82,4
2,57,86,4
2,52,87,4
2,57,96,4
2,61,89,4
2,64,90,4
2,52,82,4
2,52,95,4
2,57,91,4
2,61,84,4
2,61,84,4
2,57,80,4
2,52,83,4
2,52,89,4
2,57,91,4
2,61,84,4
2,64,85,4
2,57,82,4
2,52,84,4
2,52,88,8
2,56,89,6
2,59,84,6
2,64,85,6
2,59,82,4
2,56,86,4
2,52,87,4
2,56,96,4
2,59,89,4
2,64,90,4
2,52,82,4
2,52,95,4
2,56,91,4
2,59,84,4
2,59,84,4
2,56,80,4
2,52,83,4
2,52,89,4
2,56,91,4
2,59,84,4
2,64,85,4
2,56,82,4
2,52,84,4
2,52,88,8
2,56,89,6
2,59,84,6
2,64,85,6
2,59,82,4
2,56,86,4
2,52,87,4
2,56,96,4
2,59,89,4
2,64,90,4
2,52,82,4
2,52,95,4
2,56,91,4
2,59,84,4
2,59,84,4
2,56,80,4
2,52,83,4
2,52,89,4
2,56,91,4
2,59,84,4
2,64,85,4
2,56,82,4
2,52,84,4
2,52,88,8
2,57,89,6
2,61,84,6
2,64,85,6
2,61,82,4
2,57,86,4
2,52,87,4
2,57,96,4
2,61,89,4
2,64,90,4
2,52,82,4
2,52,95,4
2,57,91,4
2,61,84,4
2,61,84,4
2,57,80,4
2,52,83,4
2,52,89,4
2,57,91,4
2,61,84,4
2,64,85,4
2,57,82,4
2,52,84,4
2,52,88,8
2,57,89,6
2,61,84,6
2,64,85,6
2,61,82,4
2,57,86,4
2,52,87,4
2,57,96,4
2,61,89,4
2,64,90,4
2,52,82,4
2,52,95,4
2,57,91,4
2,61,84,4
2,61,84,4
2,57,80,4
2,52,83,4
2,52,89,4
2,57,91,4
2,61,84,4
2,64,85,4
2,57,82,4
2,52,84,4
2,52,88,8
2,57,89,6
2,61,84,6
2,64,85,6
2,61,84,712
2,57,80,8
2,52,83,8
2,52,89,4
2,57,91,4
2,61,84,4
2,64,85,6
2,57,82,4
2,52,84,4
2,52,88,8
2,57,89,6
2,61,84,6
2,64,85,6
2,61,84,712
2,57,80,8
2,52,83,8
2,52,89,4
2,57,91,4
2,61,84,4
2,64,85,6
2,57,82,4
2,52,84,4
2,52,88,8
2,57,89,6
2,61,84,6
2,64,85,6
2,61,84,712
2,57,80,8
2,52,83,8
2,52,89,4
2,57,91,4
2,61,84,4
2,64,85,6
2,57,82,4
2,52,84,4
2,52,88,8
2,57,89,6
2,61,84,6
2,64,85,6
2,61,84,712
2,57,80,8
2,52,83,8
2,52,89,4
2,57,91,4
2,61,84,4
2,64,85,6
2,57,82,4
2,52,84,4
2,52,88,8
2,57,89,6
2,61,84,6
2,64,85,6
2,61,84,712
2,57,80,8
2,52,83,8
2,52,89,4
2,57,91,4
2,61,84,4
2,64,85,6
2,57,82,4
2,52,84,4
2,52,88,8
2,57,89,6
2,61,84,6
2,64,85,6
2,61,84,712
2,57,80,8
2,52,83,8
2,52,89,4
2,57,91,4
2,61,84,4
2,64,85,6
2,57,82,4
2,52,84,4
2,52,88,8
2,57,89,6
2,61,84,6
2,64,85,6
2,50,88,2776
2,57,89,6
2,62,84,6
2,66,85,6
2,62,82,4
2,57,86,4
2,50,87,4
2,57,96,4
2,62,89,4
2,66,90,4
2,50,82,4
2,50,95,4
2,57,91,4
2,62,84,4
2,62,84,4
2,57,80,4
2,50,83,4
2,50,89,4
2,57,91,4
2,62,84,4
2,66,85,4
2,57,82,4
2,50,84,4
2,50,88,8
2,57,89,6
2,62,84,6
2,66,85,6
2,62,82,4
2,57,86,4
2,50,87,4
2,57,96,4
2,62,89,4
2,66,90,4
2,50,82,4
2,50,95,4
2,57,91,4
2,62,84,4
2,62,84,4
2,57,80,4
2,50,83,4
2,50,89,4
2,57,91,4
2,62,84,4
2,66,85,4
2,57,82,4
2,50,84,4
2,52,88,8
2,57,89,6
2,61,84,6
2,64,85,6
2,61,82,4
2,57,86,4
2,52,87,4
2,57,96,4
2,61,89,4
2,64,90,4
2,52,82,4
2,52,95,4
2,57,91,4
2,61,84,4
2,61,84,4
2,57,80,4
2,52,83,4
2,52,89,4
2,57,91,4
2,61,84,4
2,64,85,4
2,57,82,4
2,52,84,4
2,52,88,8
2,57,89,6
2,61,84,6
2,64,85,6
2,61,82,4
2,57,86,4
2,52,87,4
2,57,96,4
2,61,89,4
2,64,90,4
2,52,82,4
2,52,95,4
2,57,91,4
2,61,84,4
2,61,84,4
2,57,80,4
2,52,83,4
2,52,89,4
2,57,91,4
2,61,84,4
2,64,85,4
2,57,82,4
2,52,84,4
2,52,88,8
2,56,89,6
2,59,84,6
2,64,85,6
2,59,82,4
2,56,86,4
2,52,87,4
2,56,96,4
2,59,89,4
2,64,90,4
2,52,82,4
2,52,95,4
2,56,91,4
2,59,84,4
2,59,84,4
2,56,80,4
2,52,83,4
2,52,89,4
2,56,91,4
2,59,84,4
2,64,85,4
2,56,82,4
2,52,84,4
2,52,88,8
2,56,89,6
2,59,84,6
2,64,85,6
2,59,82,4
2,56,86,4
2,52,87,4
2,56,96,4
2,59,89,4
2,64,90,4
2,52,82,4
2,52,95,4
2,56,91,4
2,59,84,4
2,59,84,4
2,56,80,4
2,52,83,4
2,52,89,4
2,56,91,4
2,59,84,4
2,64,85,4
2,56,82,4
2,52,84,4
2,52,88,8
2,57,89,6
2,61,84,6
2,64,85,6
2,61,82,4
2,57,86,4
2,52,87,4
2,57,96,4
2,61,89,4
2,64,90,4
2,52,82,4
2,52,95,4
2,57,91,4
2,61,84,4
2,61,84,4
2,57,80,4
2,52,83,4
2,52,89,4
2,57,91,4
2,61,84,4
2,64,85,4
2,57,82,4
2,52,84,4
2,52,88,8
2,57,89,6
2,61,84,6
2,64,85,6
2,61,82,4
2,57,86,4
2,52,87,4
2,57,96,4
2,61,89,4
2,64,90,4
2,52,82,4
2,52,95,4
2,57,91,4
2,61,84,4
2,61,84,4
2,57,80,4
2,52,83,4
2,52,89,4
2,57,91,4
2,61,84,4
2,64,85,4
2,57,82,4
2,52,84,4
2,52,88,8
2,57,89,6
2,61,84,6
2,64,85,6
2,61,82,4
2,57,86,4
2,52,87,4
2,57,96,4
2,61,89,4
2,64,90,4
2,52,82,4
2,52,95,4
2,57,91,4
2,61,84,4
2,61,84,4
2,57,80,4
2,52,83,4
2,52,89,4
2,57,91,4
2,61,84,4
2,64,85,4
2,57,82,4
2,52,84,4
2,52,88,8
2,57,89,6
2,61,84,6
2,64,85,6
2,61,82,4
2,57,86,4
2,52,87,4
2,57,96,4
2,61,89,4
2,64,90,4
2,52,82,4
2,52,95,4
2,57,91,4
2,61,84,4
2,61,84,4
2,57,80,4
2,52,83,4
2,52,89,4
2,57,91,4
2,61,84,4
2,64,85,4
2,57,82,4
2,52,84,4
2,52,88,8
2,57,89,6
2,61,84,6
2,64,85,6
2,61,82,4
2,57,86,4
2,52,87,4
2,57,96,4
2,61,89,4
2,64,90,4
2,52,82,4
2,52,95,4
2,57,91,4
2,61,84,4
2,61,84,4
2,57,80,4
2,52,83,4
2,52,89,4
2,57,91,4
2,61,84,4
2,64,85,4
2,57,82,4
2,52,84,4
2,52,88,8
2,57,89,6
2,61,84,6
2,64,85,6
2,61,82,4
2,57,86,4
2,52,87,4
2,57,96,4
2,61,89,4
2,64,90,4
2,52,82,4
2,52,95,4
2,57,91,4
2,61,84,4
2,61,84,4
2,57,80,4
2,52,83,4
2,52,89,4
2,57,91,4
2,61,84,4
2,64,85,4
2,57,82,4
2,52,84,4
2,50,88,8
2,57,89,6
2,62,84,6
2,66,85,6
2,62,82,4
2,57,86,4
2,50,87,4
2,57,96,4
2,62,89,4
2,66,90,4
2,50,82,4
2,50,95,4
2,57,91,4
2,62,84,4
2,62,84,4
2,57,80,4
2,50,83,4
2,50,89,4
2,57,91,4
2,62,84,4
2,66,85,4
2,57,82,4
2,50,84,4
2,50,88,8
2,57,89,6
2,62,84,6
2,66,85,6
2,62,82,4
2,57,86,4
2,50,87,4
2,57,96,4
2,62,89,4
2,66,90,4
2,50,82,4
2,50,95,4
2,57,91,4
2,62,84,4
2,62,84,4
2,57,80,4
2,50,83,4
2,50,89,4
2,57,91,4
2,62,84,4
2,66,85,4
2,57,82,4
2,50,84,4
2,52,88,8
2,57,89,6
2,61,84,6
2,64,85,6
2,61,82,4
2,57,86,4
2,52,87,4
2,57,96,4
2,61,89,4
2,64,90,4
2,52,82,4
2,52,95,4
2,57,91,4
2,61,84,4
2,61,84,4
2,57,80,4
2,52,83,4
2,52,89,4
2,57,91,4
2,61,84,4
2,64,85,4
2,57,82,4
2,52,84,4
2,52,88,8
2,57,89,6
2,61,84,6
2,64,85,6
2,61,82,4
2,57,86,4
2,52,87,4
2,57,96,4
2,61,89,4
2,64,90,4
2,52,82,4
2,52,95,4
2,57,91,4
2,61,84,4
2,61,84,4
2,57,80,4
2,52,83,4
2,52,89,4
2,57,91,4
2,61,84,4
2,64,85,4
2,57,82,4
2,52,84,4
2,52,88,8
2,56,89,6
2,59,84,6
2,64,85,6
2,59,82,4
2,56,86,4
2,52,87,4
2,56,96,4
2,59,89,4
2,64,90,4
2,52,82,4
2,52,95,4
2,56,91,4
2,59,84,4
2,59,84,4
2,56,80,4
2,52,83,4
2,52,89,4
