track,note,velocity,time
3,62,80,0
3,57,85,2
3,38,92,1
3,66,88,1
3,63,84,0
3,58,87,0
3,67,85,0
3,39,95,2
3,38,92,635
3,62,87,1
3,57,86,1
3,66,80,0
3,58,87,0
3,67,87,2
3,39,92,1
3,63,86,0
3,57,82,635
3,62,83,1
3,38,92,2
3,66,84,1
3,39,95,0
3,63,79,0
3,67,85,0
3,58,86,1
3,38,97,63
3,66,88,0
3,62,86,0
3,57,85,1
3,67,88,125
3,39,91,1
3,58,84,1
3,63,80,1
3,62,88,60
3,38,92,2
3,66,83,1
3,57,86,1
3,39,92,0
3,58,86,0
3,67,84,1
3,63,85,0
3,66,87,63
3,62,83,1
3,57,79,0
3,38,98,1
3,58,84,0
3,67,87,0
3,39,95,0
3,63,88,0
3,81,49,443
3,87,52,4
3,82,43,0
3,75,56,23
3,82,44,2
3,87,49,0
3,75,67,27
3,87,72,3
3,82,60,0
3,75,87,24
3,82,62,2
3,87,76,0
3,75,79,24
3,87,91,7
3,82,76,0
3,75,82,23
3,82,84,6
3,87,91,0
3,81,99,10
3,82,106,10
3,87,114,0
3,75,50,16
3,77,80,118
3,78,99,5
3,75,84,0
3,72,69,2
3,72,62,4
3,75,84,16
3,77,76,0
3,72,60,1
3,72,64,18
3,77,80,9
3,75,67,5
3,78,69,3
3,72,57,1
3,72,67,19
3,78,28,7
3,75,22,1
3,77,76,14
3,75,63,1
3,72,62,0
3,75,87,27
3,72,84,0
3,75,30,218
3,84,95,2
3,82,90,8
3,80,44,14
3,75,48,8
3,72,24,22
3,70,24,38
3,77,80,109
3,78,84,5
3,82,73,3
3,79,98,1
3,82,102,31
3,79,69,27
3,75,56,35
3,72,52,33
3,70,58,46
3,56,90,7
3,62,90,0
3,74,73,44
3,80,73,0
3,76,61,4
3,74,45,10
3,74,73,10
3,82,90,0
3,80,79,11
3,74,87,2
3,60,61,92
3,54,61,0
3,78,87,98
3,72,79,4
3,82,82,1
3,72,69,34
3,80,82,3
3,72,69,14
3,78,82,3
3,58,61,96
3,63,61,0
3,75,96,64
3,78,101,0
3,79,96,6
3,82,96,20
3,84,96,0
3,75,79,0
3,87,87,1
3,75,76,19
3,87,79,1
3,75,64,0
3,87,87,1
3,75,76,10
3,87,93,1
3,75,87,18
3,87,87,0
3,73,30,19
3,85,30,0
3,70,70,4
3,82,70,0
3,78,102,9
3,66,102,0
3,79,80,35
3,67,80,0
3,38,97,53
3,66,84,0
3,57,80,1
3,62,81,1
3,67,79,0
3,63,82,2
3,39,92,2
3,58,84,0
3,66,88,59
3,62,81,1
3,57,88,0
3,38,94,4
3,39,100,1
3,58,81,2
3,63,82,0
3,67,85,2
3,57,83,63
3,38,91,0
3,66,87,1
3,62,83,1
3,63,81,124
3,39,97,1
3,58,81,0
3,67,84,0
3,57,88,63
3,38,92,1
3,62,79,0
3,66,82,0
3,63,88,125
3,39,100,1
3,67,80,0
3,58,81,1
3,81,48,443
3,87,91,10
3,82,40,0
3,87,101,21
3,82,42,0
3,82,50,23
3,87,101,0
3,87,101,20
3,82,52,0
3,87,101,18
3,82,50,0
3,82,60,21
3,87,101,0
3,94,92,102
3,90,48,9
3,87,34,3
3,82,31,12
3,94,89,3
3,90,52,5
3,87,42,2
3,82,35,13
3,94,86,6
3,90,58,9
3,87,35,0
3,82,34,6
3,94,89,5
3,90,51,9
3,87,40,22
3,82,36,12
3,94,88,7
3,90,48,4
3,87,44,23
3,82,31,13
3,94,89,1
3,90,59,5
3,87,35,1
3,82,25,9
3,94,80,10
3,90,41,2
3,87,38,22
3,82,31,11
3,96,69,68
3,95,71,3
3,94,53,33
3,91,56,7
3,96,69,13
3,94,53,5
3,94,64,7
3,91,64,2
3,87,15,8
3,94,63,39
3,91,62,0
3,96,66,12
3,94,45,2
3,94,82,8
3,91,67,4
3,91,79,45
3,94,71,0
3,96,69,49
3,94,67,5
3,91,58,4
3,58,61,36
3,63,51,0
3,56,72,0
3,62,72,0
3,92,73,106
3,86,73,0
3,88,61,4
3,86,45,10
3,94,90,10
3,86,73,0
3,92,79,11
3,86,87,2
3,60,61,92
3,54,61,0
3,90,87,98
3,84,79,4
3,94,82,1
3,84,69,34
3,92,82,3
3,84,69,14
3,90,82,3
3,87,87,198
3,99,82,2
3,87,61,35
3,99,64,1
3,87,73,12
3,99,66,1
3,85,63,27
3,97,73,1
3,94,69,22
3,82,82,0
3,80,73,35
3,92,61,4
3,78,82,24
3,90,76,0
3,79,79,11
3,91,30,8
3,87,62,49
3,75,63,0
3,70,76,49
3,82,61,0
3,39,81,75
3,58,83,1
3,63,79,1
3,67,79,3
3,62,79,61
3,38,94,2
3,66,87,1
3,57,87,0
3,63,80,0
3,67,87,0
3,58,84,1
3,39,92,1
3,38,94,60
3,62,79,0
3,66,87,1
3,57,83,2
3,67,81,0
3,39,100,0
3,58,84,1
3,63,84,2
3,62,80,59
3,66,85,4
3,38,93,0
3,57,80,1
3,39,96,0
3,58,80,0
3,63,80,0
3,67,86,1
3,78,99,731
3,75,50,18
3,72,33,17
3,68,69,3
3,78,99,16
3,75,50,18
3,72,33,17
3,68,69,3
3,78,99,16
3,75,50,18
3,72,33,17
3,68,69,3
3,78,99,16
3,75,50,18
3,72,33,17
3,68,69,3
3,75,72,16
3,78,98,5
3,75,90,18
3,78,94,21
3,75,76,2
3,75,62,18
3,80,94,0
3,80,72,9
3,82,97,3
3,75,63,1
3,75,60,17
3,78,109,22
3,90,69,1
3,92,58,7
3,80,98,5
3,78,61,9
3,90,53,2
3,91,55,18
3,79,68,0
3,87,46,22
3,75,67,0
3,75,79,45
3,87,51,0
3,87,22,82
3,91,64,13
3,94,53,5
3,96,72,1
3,91,71,9
3,87,31,0
3,94,66,13
3,91,69,0
3,96,80,5
3,62,64,10
3,68,61,0
3,91,76,2
3,94,61,0
3,87,30,15
3,94,66,20
3,91,67,0
3,96,63,13
3,94,63,6
3,91,76,5
3,60,61,98
3,66,52,0
3,94,90,5
3,84,71,0
3,90,78,1
3,90,78,44
3,94,82,3
3,84,82,2
3,84,69,22
3,92,69,2
3,87,73,152
3,99,69,1
3,85,76,24
3,97,73,1
3,82,69,22
3,94,66,1
3,80,82,19
3,92,71,1
3,78,79,18
3,90,64,1
3,87,73,20
3,75,79,0
3,84,67,18
3,72,69,0
3,82,69,25
3,70,76,0
3,32,67,205
3,36,71,24
3,39,61,24
3,60,68,4
3,66,62,0
3,56,64,0
3,41,71,19
3,42,67,24
3,60,76,8
3,66,82,0
3,56,61,61
3,41,71,2
3,39,61,24
3,56,73,64
3,36,71,10
3,63,62,3
3,60,69,0
3,66,66,0
3,27,67,24
3,67,63,4
3,63,64,1
3,31,71,24
3,34,61,24
3,36,71,24
3,39,67,22
3,36,71,25
3,34,61,27
3,31,71,21
3,62,73,23
3,34,67,0
3,70,66,2
3,65,69,1
3,38,71,26
3,41,61,23
3,43,71,27
3,68,84,20
3,32,67,1
3,63,82,0
3,60,71,0
3,36,71,22
3,39,61,26
3,41,71,23
3,63,63,24
3,58,63,0
3,67,64,2
3,39,67,2
3,36,71,19
3,34,61,24
3,36,71,26
3,39,67,25
3,36,71,24
3,34,61,27
3,38,65,87
3,66,85,8
3,62,83,0
3,57,79,0
3,67,79,3
3,39,97,0
3,63,83,3
3,58,80,0
3,62,80,60
3,66,79,1
3,38,100,1
3,57,87,2
3,63,84,0
3,39,98,0
3,58,81,1
3,67,88,1
3,66,85,59
3,38,91,1
3,57,88,2
3,62,84,2
3,67,81,1
3,39,93,0
3,63,86,0
3,58,86,0
3,57,82,60
3,66,86,3
3,38,100,1
3,62,83,0
3,67,87,0
3,63,84,0
3,58,82,0
3,39,94,2
3,81,69,639
3,82,79,2
3,87,63,3
3,87,60,16
3,82,63,0
3,82,76,15
3,87,63,1
3,87,61,10
3,82,67,2
3,87,67,14
3,82,71,0
3,87,63,21
3,82,69,0
3,78,63,10
3,90,62,0
3,78,52,21
3,90,61,0
3,80,76,18
3,92,76,0
3,80,64,24
3,92,69,0
3,81,73,18
3,93,76,0
3,93,63,28
3,81,62,0
3,80,67,21
3,92,71,0
3,92,61,24
3,80,58,0
3,78,67,15
3,90,66,0
3,90,55,21
3,78,52,0
3,75,53,15
3,87,53,2
3,75,51,15
3,87,48,2
3,73,69,14
3,85,60,2
3,73,52,13
3,85,64,2
3,70,82,20
3,80,40,2
3,82,69,0
3,70,53,27
3,82,52,2
3,68,79,17
3,80,61,2
3,78,50,0
3,66,11,21
3,68,60,0
3,80,60,2
3,66,69,16
3,78,64,2
3,67,53,57
3,79,40,2
3,63,79,22
3,75,84,0
3,70,64,13
3,58,82,0
3,58,79,70
3,70,62,2
3,70,47,9
3,58,42,22
3,70,27,8
3,58,25,3
3,70,58,2
3,58,38,3
3,70,62,15
3,58,11,1
3,68,38,13
3,62,53,0
3,87,37,69
3,92,79,25
3,90,69,26
3,94,82,0
3,97,60,0
3,66,47,53
3,60,60,1
3,87,73,87
3,94,87,1
3,87,58,60
3,92,63,1
3,94,52,4
3,87,66,23
3,90,73,1
3,94,51,4
3,58,61,92
3,63,61,0
3,75,96,64
3,78,101,0
3,79,96,6
3,82,96,20
3,84,96,0
3,87,87,1
3,85,79,20
3,82,87,1
3,94,69,1
3,92,74,17
3,80,93,8
3,78,87,14
3,90,69,1
3,79,30,18
3,91,24,1
3,75,70,3
3,87,56,1
3,70,79,15
3,82,67,5
3,70,36,1
3,82,40,23
3,62,88,4
3,38,92,1
3,57,88,1
3,66,85,1
3,70,27,21
3,82,17,25
3,82,19,3
3,39,97,0
3,63,79,0
3,58,83,0
3,67,82,1
3,57,85,62
3,38,100,0
3,62,79,2
3,66,83,0
3,63,83,125
3,67,81,0
3,39,97,0
3,58,79,1
3,62,85,59
3,66,81,2
3,38,96,3
3,57,79,1
3,63,79,0
3,39,93,0
3,67,83,0
3,58,83,1
3,57,80,60
3,38,93,2
3,66,88,2
3,62,86,0
3,67,81,0
3,58,83,0
3,63,87,1
3,39,95,1
3,87,84,734
3,90,102,0
3,90,93,152
3,87,87,1
3,90,96,167
3,87,87,0
3,90,87,113
3,87,82,0
3,90,79,74
3,87,79,0
3,90,87,20
3,87,64,2
3,90,79,28
3,87,55,1
3,90,73,24
3,87,64,2
3,75,68,23
3,87,63,1
3,73,79,27
3,85,76,1
3,78,47,72
3,79,62,0
3,70,69,1
3,82,76,3
3,68,73,64
3,80,69,0
3,66,69,72
3,78,62,1
3,67,50,6
3,79,50,4
3,63,68,26
3,75,67,1
3,70,67,32
3,58,61,2
3,61,11,10
3,70,11,45
3,58,50,5
3,70,17,10
3,63,63,0
3,67,67,0
3,58,82,6
3,70,60,10
3,56,56,0
3,62,60,2
3,86,61,55
3,94,87,17
3,90,71,1
3,86,61,1
3,92,69,0
3,86,63,7
3,94,82,20
3,90,67,1
3,92,69,2
3,86,63,0
3,54,50,84
3,60,56,1
3,94,76,98
3,84,82,0
3,90,61,3
3,84,69,47
3,92,69,3
3,90,38,4
3,84,61,18
3,90,79,0
3,92,69,2
3,67,64,97
3,63,64,0
3,58,64,0
3,39,61,0
3,75,56,69
3,78,60,0
3,82,67,2
3,79,69,1
3,84,62,5
3,82,67,8
3,79,71,1
3,75,50,12
3,78,60,12
3,82,63,4
3,79,64,0
3,84,58,2
3,82,69,14
3,79,67,3
3,38,94,57
3,57,82,3
3,62,87,1
3,66,86,0
3,58,86,2
3,39,93,0
3,63,85,0
3,67,80,3
3,57,81,57
3,62,83,4
3,38,99,0
3,66,87,1
3,63,88,2
3,67,86,0
3,58,83,1
3,39,95,2
3,38,93,61
3,62,79,1
3,57,83,0
3,66,88,0
3,58,81,126
3,39,96,0
3,67,87,0
3,63,79,1
3,62,84,60
3,38,92,0
3,57,88,0
3,66,87,1
3,67,84,0
3,63,82,0
3,39,91,2
3,58,85,2
3,57,79,14
3,66,79,0
3,38,98,2
3,62,83,1
3,58,84,65
3,39,96,1
3,63,88,0
3,67,82,0
3,62,82,59
3,38,96,0
3,57,80,2
3,66,86,3
4,39,39,0
4,39,39,53
4,39,39,53
4,39,39,53
4,39,39,53
4,39,39,53
4,39,39,53
4,39,39,53
4,39,39,53
4,39,39,53
4,39,39,53
4,39,39,53
4,39,39,53
4,39,39,53
4,39,39,53
4,39,39,53
4,39,39,53
4,39,39,53
4,39,39,53
4,39,39,53
4,39,39,53
4,39,39,53
4,39,39,53
4,39,39,53
4,39,39,53
4,39,39,53
4,39,39,53
4,39,39,53
4,39,39,53
4,39,39,53
4,39,39,53
4,39,39,53
4,39,39,53
4,39,39,53
4,39,39,53
4,39,39,53
4,39,39,53
4,39,39,53
4,39,39,53
4,39,39,53
4,39,39,53
4,27,107,10
4,25,107,58
4,30,84,16
4,25,107,62
4,31,84,16
4,32,97,19
4,36,107,22
4,39,84,23
4,41,107,26
4,32,97,24
4,36,107,25
4,39,84,22
4,41,107,25
4,27,97,24
4,31,107,22
4,34,84,25
4,36,107,24
4,39,97,23
4,36,107,24
4,34,84,26
4,31,107,22
4,34,97,24
4,38,107,26
4,41,84,24
4,43,107,22
4,32,97,25
4,36,107,26
4,39,84,23
4,41,107,22
4,27,97,26
4,31,107,24
4,34,84,23
4,36,107,24
4,39,97,23
4,36,107,27
4,34,84,23
4,36,107,16
4,39,58,26
4,38,78,254
4,39,78,6
4,38,78,254
4,39,78,6
4,38,78,254
4,39,39,6
4,27,84,10
4,25,107,58
4,30,84,16
4,25,107,62
4,31,84,16
4,32,97,19
4,36,107,22
4,39,84,23
4,41,107,26
4,32,97,24
4,36,107,25
4,39,84,22
4,41,107,25
4,27,97,24
4,31,107,22
4,34,84,25
4,36,107,24
4,39,97,23
4,36,107,24
4,34,84,26
4,31,107,22
4,34,97,24
4,38,107,26
4,41,84,24
4,43,107,22
4,32,97,25
4,36,107,26
4,39,84,23
4,41,107,22
4,27,97,26
4,31,107,24
4,34,84,23
4,36,107,24
4,39,97,23
4,36,107,27
4,34,84,23
4,36,107,16
4,39,78,26
4,38,78,254
4,39,78,6
4,38,78,254
4,39,78,6
4,38,78,254
4,39,39,6
4,27,84,10
4,25,107,58
4,30,84,16
4,25,107,62
4,31,84,16
4,32,97,19
4,36,107,22
4,39,84,23
4,41,107,26
4,32,97,24
4,36,107,25
4,39,84,22
4,41,107,25
4,27,97,24
4,31,107,22
4,34,84,25
4,36,107,24
4,39,97,23
4,36,107,24
4,34,84,26
4,31,107,22
4,34,97,24
4,38,107,26
4,41,84,24
4,43,107,22
4,32,97,25
4,36,107,26
4,39,84,23
4,41,107,22
4,27,97,26
4,31,107,24
4,34,84,23
4,36,107,24
4,39,97,23
4,36,107,27
4,34,84,23
4,36,107,16
4,32,97,26
4,36,107,24
4,39,84,24
4,41,107,24
4,42,97,24
4,41,107,24
4,39,84,24
4,36,107,24
4,27,97,24
4,31,107,24
4,34,84,24
4,36,107,24
4,39,97,24
4,36,107,24
4,34,84,24
4,31,107,24
4,34,97,24
4,38,107,24
4,41,84,24
4,43,107,24
4,32,97,24
4,36,107,24
4,39,84,24
4,41,107,24
4,39,97,24
4,36,107,24
4,34,84,24
4,36,107,24
4,39,97,24
4,36,107,24
4,34,84,27
4,38,78,6
4,39,78,6
4,38,78,254
4,39,78,6
4,38,78,254
4,39,78,6
4,38,78,254
4,39,39,6
4,27,84,10
4,25,107,58
4,30,84,16
4,25,107,62
4,31,84,16
4,32,97,19
4,36,107,22
4,39,84,23
4,41,107,26
4,32,97,24
4,36,107,25
4,39,84,22
4,41,107,25
4,27,97,24
4,31,107,22
4,34,84,25
4,36,107,24
4,39,97,23
4,36,107,24
4,34,84,26
4,31,107,22
4,34,97,24
4,38,107,26
4,41,84,24
4,43,107,22
4,32,97,25
4,36,107,26
4,39,84,23
4,41,107,22
4,27,97,26
4,31,107,24
4,34,84,23
4,36,107,24
4,39,97,23
4,36,107,27
4,34,84,23
4,36,107,16
4,39,78,26
4,38,78,254
4,39,78,6
4,38,78,254
4,39,78,6
