track,note,velocity,time
0,38,56,0
0,51,26,0
0,38,97,0
0,38,66,0
0,38,25,31
0,57,42,0
0,62,75,30
0,38,44,1
0,51,27,30
0,66,87,0
0,39,76,0
0,38,51,28
0,62,73,0
0,57,69,30
0,38,38,1
0,51,28,4
0,33,102,0
0,33,78,0
0,38,51,0
0,38,27,30
0,57,58,0
0,38,41,31
0,61,63,0
0,51,34,30
0,64,90,0
0,39,69,0
0,61,65,1
0,38,39,1
0,57,66,30
0,38,27,1
0,38,92,1
0,38,78,0
0,38,56,1
0,51,26,0
0,102,41,0
0,98,41,0
0,54,62,30
0,38,25,1
0,57,78,30
0,38,44,1
0,51,27,30
0,62,78,0
0,39,76,0
0,57,69,27
0,38,51,1
0,54,65,11
0,38,38,1
0,51,28,1
0,33,86,0
0,66,96,0
0,38,51,0
0,33,78,0
0,98,41,0
0,93,41,1
0,62,71,28
0,38,27,2
0,57,69,30
0,38,41,1
0,51,34,1
0,33,75,0
0,69,88,0
0,39,69,0
0,35,88,7
0,66,68,0
0,38,39,1
0,62,71,8
0,38,27,1
0,37,93,0
0,62,90,0
0,54,57,0
0,57,75,0
0,66,60,0
0,38,56,0
0,51,26,0
0,38,84,0
0,102,53,0
0,98,50,0
0,50,78,0
0,62,60,1
0,62,61,27
0,38,25,1
0,38,44,31
0,66,72,0
0,51,27,30
0,39,76,0
0,69,91,0
0,38,51,30
0,66,67,0
0,62,59,0
0,38,38,1
0,69,72,0
0,61,77,0
0,51,28,1
0,42,65,0
0,102,53,0
0,105,50,0
0,69,89,0
0,38,51,0
0,30,88,0
0,38,27,30
0,61,63,0
0,66,70,30
0,38,41,1
0,51,34,30
0,39,69,0
0,69,85,0
0,66,64,29
0,38,39,1
0,61,58,7
0,38,27,1
0,62,85,0
0,59,72,0
0,54,73,0
0,47,85,0
0,98,52,0
0,62,79,1
0,38,56,0
0,51,26,0
0,95,42,0
0,35,82,0
0,38,25,31
0,59,68,0
0,38,44,31
0,62,74,0
0,51,27,30
0,39,76,0
0,66,90,0
0,38,51,30
0,62,70,0
0,38,38,30
0,59,72,0
0,51,28,29
0,33,86,0
0,38,51,0
0,45,70,0
0,59,63,1
0,38,27,1
0,62,69,18
0,38,41,1
0,51,34,30
0,66,89,0
0,100,56,0
0,39,69,0
0,62,69,29
0,64,91,0
0,38,39,0
0,102,58,13
0,59,65,1
0,38,27,1
0,66,95,0
0,55,71,1
0,59,71,0
0,67,71,0
0,62,64,0
0,38,56,0
0,51,26,0
0,43,85,0
0,103,60,0
0,31,80,0
0,67,94,0
0,38,25,27
0,59,77,0
0,62,75,30
0,38,44,1
0,51,27,30
0,39,76,0
0,67,92,0
0,38,51,30
0,62,71,0
0,59,73,30
0,38,38,1
0,66,91,0
0,51,28,1
0,30,77,0
0,42,75,0
0,66,64,0
0,38,51,0
0,102,48,0
0,54,64,0
0,57,74,0
0,57,70,28
0,38,27,1
0,62,82,30
0,38,41,1
0,51,34,30
0,39,69,0
0,66,98,0
0,38,39,30
0,62,73,0
0,38,27,2
0,57,71,0
0,52,70,1
0,55,72,1
0,64,92,0
0,61,59,1
0,40,75,1
0,38,56,0
0,51,26,0
0,28,74,0
0,64,71,1
0,100,54,0
0,57,61,29
0,38,25,1
0,61,70,30
0,38,44,1
0,51,27,30
0,64,100,0
0,39,76,0
0,38,51,2
0,61,66,0
0,57,73,30
0,38,38,1
0,51,28,1
0,33,97,0
0,45,76,0
0,38,51,0
0,57,63,1
0,38,27,1
0,61,62,8
0,38,41,1
0,51,34,30
0,64,95,0
0,39,69,0
0,38,39,30
0,61,61,0
0,38,27,2
0,57,61,0
0,57,91,0
0,95,48,0
0,50,70,1
0,55,68,0
0,38,56,0
0,51,26,0
0,31,97,0
0,43,91,0
0,59,92,0
0,59,56,1
0,62,61,1
0,50,43,25
0,50,65,1
0,38,25,1
0,55,81,30
0,55,60,0
0,38,44,1
0,51,27,30
0,59,91,0
0,39,76,0
0,59,59,0
0,55,75,29
0,38,51,1
0,50,65,7
0,38,38,1
0,57,77,2
0,52,68,0
0,61,64,0
0,64,61,0
0,51,28,0
0,45,82,0
0,38,51,0
0,33,97,0
0,97,54,0
0,61,93,0
0,52,53,29
0,38,27,1
0,57,58,0
0,61,57,30
0,38,41,1
0,57,78,0
0,51,34,30
0,39,69,0
0,61,106,0
0,64,62,0
0,38,39,30
0,57,78,0
0,52,70,29
0,38,27,1
0,66,54,0
0,54,62,1
0,59,70,0
0,62,60,0
0,35,88,0
0,47,85,0
0,38,56,1
0,51,26,0
0,62,92,0
0,98,57,0
0,38,25,27
0,66,54,0
0,59,67,0
0,38,44,31
0,71,79,0
0,62,65,0
0,51,27,30
0,39,76,0
0,74,90,0
0,66,50,0
0,38,51,17
0,38,88,0
0,71,78,0
0,38,38,6
0,42,96,0
0,66,71,0
0,51,28,1
0,100,52,0
0,59,85,1
0,55,68,0
0,52,92,0
0,38,51,0
0,43,97,0
0,43,88,0
0,64,92,0
0,38,27,29
0,67,74,0
0,62,60,0
0,102,52,0
0,66,95,0
0,59,66,0
0,62,88,0
0,55,76,0
0,52,92,0
0,38,41,0
0,71,85,0
0,67,62,0
0,51,34,1
0,76,91,0
0,39,69,0
0,40,80,0
0,40,96,0
0,71,62,0
0,71,85,0
0,103,53,0
0,67,98,0
0,59,77,0
0,64,84,0
0,55,80,0
0,52,92,0
0,38,39,0
0,67,81,30
0,38,27,1
0,66,94,0
0,45,78,0
0,57,86,0
0,54,80,0
0,62,75,0
0,38,56,0
0,51,26,0
0,33,86,0
0,33,75,0
0,102,49,0
0,38,25,31
0,62,42,0
0,57,58,0
0,38,44,31
0,66,54,0
0,62,78,0
0,51,27,30
0,39,76,0
0,66,96,0
0,69,66,0
0,38,51,2
0,62,73,0
0,57,73,0
0,38,38,1
0,51,28,0
0,55,80,0
0,45,78,0
0,61,62,0
0,64,65,0
0,38,51,0
0,33,86,0
0,33,78,0
0,64,92,0
0,100,36,0
0,55,73,29
0,38,27,1
0,61,47,0
0,64,58,29
0,61,73,1
0,38,41,1
0,51,34,30
0,64,92,0
0,39,69,0
0,69,58,0
0,61,63,1
0,38,39,1
0,57,67,30
0,38,27,1
0,38,70,0
0,62,70,0
0,54,58,0
0,50,70,0
0,57,70,0
0,38,56,0
0,51,26,0
0,62,83,0
0,38,92,0
0,98,44,0
0,62,58,29
0,54,54,1
0,38,25,1
0,57,70,30
0,66,64,0
0,38,44,1
0,74,73,29
0,51,27,1
0,62,84,0
0,39,76,0
0,57,71,1
0,38,51,1
0,54,64,30
0,38,38,1
0,51,28,1
0,38,51,0
0,45,90,0
0,66,96,0
0,38,27,2
0,62,70,0
0,38,41,28
0,57,70,0
0,51,34,0
0,33,82,0
0,39,69,0
0,69,103,0
0,66,77,29
0,38,39,1
0,62,67,29
0,38,27,1
0,62,90,0
0,54,57,0
0,66,60,0
0,57,75,0
0,38,56,0
0,51,26,0
0,38,84,0
0,50,78,0
0,62,52,0
0,62,60,3
0,57,61,27
0,38,25,1
0,38,44,31
0,62,72,0
0,51,27,30
0,39,76,0
0,66,91,0
0,38,51,30
0,62,67,0
0,57,59,0
0,38,38,1
0,54,77,0
0,69,72,0
0,61,77,0
0,66,60,0
0,51,28,1
0,42,65,0
0,69,89,0
0,38,51,0
0,30,88,0
0,61,53,0
0,38,27,30
0,61,63,0
0,66,70,30
0,38,41,1
0,51,34,30
0,39,69,0
0,69,85,0
0,66,64,29
0,38,39,1
0,61,58,7
0,38,27,1
0,62,85,0
0,54,73,0
0,59,72,0
0,47,85,0
0,59,56,0
0,66,57,1
0,62,79,0
0,38,56,0
0,51,26,0
0,35,82,0
0,38,25,31
0,59,68,0
0,38,44,31
0,62,74,0
0,51,27,30
0,39,76,0
0,66,90,0
0,38,51,30
0,62,70,0
0,38,38,30
0,59,72,0
0,51,28,8
0,35,86,0
0,38,51,0
0,47,70,0
0,59,63,1
0,38,27,1
0,62,69,30
0,38,41,1
0,51,34,7
0,66,89,0
0,39,69,0
0,33,86,0
0,45,70,0
0,62,69,27
0,64,91,0
0,38,39,0
0,59,65,1
0,38,27,1
0,66,95,0
0,55,50,8
0,62,71,1
0,55,64,0
0,59,71,0
0,50,71,0
0,38,56,0
0,51,26,0
0,43,85,0
0,67,50,0
0,31,80,0
0,67,94,0
0,38,25,27
0,59,77,0
0,62,75,30
0,38,44,1
0,51,27,30
0,39,76,0
0,67,92,0
0,38,51,30
0,62,71,0
0,59,73,30
0,38,38,1
0,66,91,0
0,57,60,0
0,51,28,0
0,30,77,0
0,42,75,0
0,54,64,1
0,62,64,0
0,38,51,0
0,69,50,0
0,50,64,0
0,57,74,0
0,57,70,28
0,38,27,1
0,62,82,30
0,38,41,1
0,51,34,30
0,39,69,0
0,66,98,0
0,38,39,30
0,62,73,0
0,38,27,31
0,57,71,0
0,55,70,1
0,52,72,1
0,64,92,0
0,61,59,1
0,57,62,0
0,40,75,1
0,38,56,0
0,51,26,0
0,28,74,0
0,69,50,0
0,57,71,1
0,57,61,29
0,38,25,1
0,61,70,30
0,38,44,1
0,51,27,30
0,64,100,0
0,39,76,0
0,38,51,2
0,61,66,0
0,57,73,30
0,38,38,1
0,51,28,1
0,33,97,0
0,45,76,0
0,38,51,0
0,57,63,1
0,38,27,1
0,61,62,8
0,38,41,1
0,51,34,30
0,64,95,0
0,39,69,0
0,38,39,30
0,61,61,0
0,38,27,2
0,57,61,0
0,57,91,0
0,55,53,0
0,50,70,1
0,55,68,0
0,38,56,0
0,51,26,0
0,31,97,0
0,43,91,0
0,67,53,0
0,59,92,0
0,59,56,1
0,62,61,1
0,62,65,27
0,38,25,1
0,67,81,30
0,38,44,1
0,51,27,30
0,71,91,0
0,39,76,0
0,67,75,29
0,38,51,1
0,62,65,29
0,38,38,1
0,57,60,0
0,57,77,1
0,64,61,0
0,52,68,0
0,61,64,0
0,51,28,0
0,45,82,0
0,38,51,0
0,69,53,0
0,33,97,0
0,61,93,0
0,64,64,29
0,38,27,1
0,38,41,31
0,67,78,0
0,51,34,30
0,39,69,0
0,73,106,0
0,38,39,30
0,67,78,0
0,64,70,29
0,38,27,1
0,66,54,0
0,59,49,0
0,54,62,1
0,59,70,0
0,62,60,0
0,35,88,0
0,47,85,0
0,38,56,1
0,51,26,0
0,71,53,0
0,62,92,0
0,38,25,31
0,66,54,0
0,38,44,31
0,71,79,0
0,51,27,30
0,39,76,0
0,74,90,0
0,38,51,17
0,38,88,0
0,71,78,0
0,38,38,6
0,42,96,0
0,66,71,0
0,55,61,0
0,51,28,1
0,59,85,1
0,55,68,0
0,52,92,0
0,38,51,0
0,43,97,0
0,67,53,0
0,43,88,0
0,64,92,0
0,38,27,29
0,55,74,0
0,66,95,0
0,59,66,0
0,62,88,0
0,55,76,0
0,52,92,0
0,38,41,0
0,59,85,0
0,52,62,0
0,51,34,1
0,64,91,0
0,39,69,0
0,64,53,0
0,40,84,0
0,40,96,0
0,59,85,0
0,67,98,0
0,59,77,0
0,64,84,0
0,55,80,0
0,52,92,0
0,38,39,0
0,55,81,30
0,38,27,1
0,57,62,0
0,66,94,0
0,45,78,0
0,57,86,0
0,54,80,0
0,62,75,0
0,38,56,0
0,51,26,0
0,69,62,0
0,33,86,0
0,33,75,0
0,38,25,31
0,57,58,0
0,38,44,31
0,62,78,0
0,51,27,30
0,39,76,0
0,66,96,0
0,38,51,2
0,62,73,0
0,57,73,0
0,38,38,1
0,57,53,1
0,51,28,0
0,55,80,0
0,45,78,0
0,61,62,0
0,64,65,0
0,38,51,0
0,33,86,0
0,33,78,0
0,69,62,0
0,64,92,0
0,55,73,29
0,38,27,1
0,61,73,30
0,38,41,1
0,51,34,30
0,64,92,0
0,39,69,0
0,61,63,1
0,38,39,1
0,57,67,30
0,38,27,1
0,50,54,0
0,38,70,0
0,62,70,0
0,54,58,0
0,50,70,0
0,57,70,0
0,38,56,0
0,51,26,0
0,62,83,0
0,38,92,0
0,62,54,0
0,54,54,30
0,38,25,1
0,57,70,30
0,38,44,1
0,51,27,30
0,62,84,0
0,39,76,0
0,57,71,1
0,38,51,1
0,54,64,30
0,38,38,1
0,51,28,1
0,38,51,0
0,33,90,0
0,66,96,0
0,38,27,31
0,62,70,0
0,38,41,28
0,57,70,0
0,51,34,0
0,38,82,0
0,39,69,0
0,69,103,0
0,66,77,27
0,38,39,1
0,62,67,29
0,38,27,1
0,49,74,1
0,61,70,0
0,38,56,0
0,51,26,0
0,30,84,0
0,61,91,0
0,30,66,0
0,38,25,31
0,61,51,0
0,66,90,0
0,66,62,3
0,38,44,1
0,51,27,30
0,69,81,0
0,39,76,0
0,69,95,0
0,66,64,1
0,38,51,0
0,73,104,0
0,61,60,2
0,38,38,1
0,51,76,8
0,63,77,0
0,71,95,0
0,51,28,1
0,37,66,0
0,38,51,0
0,37,83,0
0,65,69,29
0,38,27,1
0,68,67,30
0,38,41,1
0,73,90,1
0,65,75,7
0,53,75,0
0,51,34,0
0,71,100,0
0,39,69,0
0,37,80,0
0,68,67,29
0,38,39,1
0,38,27,1
0,65,70,0
0,61,78,10
0,49,81,0
0,61,95,0
0,30,72,0
0,38,56,1
0,51,26,0
0,30,75,0
0,38,25,1
0,61,63,0
0,66,61,3
0,38,44,1
0,66,84,0
0,51,27,1
0,69,88,0
0,39,76,0
0,69,96,0
0,66,65,1
0,38,51,1
0,73,96,0
0,61,66,0
0,38,38,1
0,51,77,9
0,63,80,1
0,71,96,0
0,51,28,1
0,37,84,0
0,37,84,0
0,38,51,0
0,38,27,30
0,65,61,0
0,68,66,30
0,73,96,0
0,38,41,1
0,51,34,12
0,37,85,0
0,71,72,0
0,53,78,1
0,65,76,0
0,39,69,0
0,68,63,2
0,38,39,1
0,65,71,8
0,38,27,1
0,54,61,22
0,57,58,1
0,61,78,0
0,49,81,0
0,30,78,0
0,38,56,1
0,51,26,0
0,30,78,0
0,61,102,0
0,61,63,1
0,38,25,1
0,66,62,3
0,38,44,1
0,66,80,0
0,51,27,1
0,69,85,0
0,39,76,0
0,69,98,0
0,66,65,1
0,38,51,1
0,73,94,0
0,61,63,0
0,38,38,1
0,56,54,1
0,59,42,0
0,51,85,1
0,63,82,0
0,71,94,0
0,51,28,0
0,37,69,0
0,37,79,0
0,38,51,0
0,65,73,30
0,38,27,1
0,68,75,30
0,73,96,0
0,38,41,1
0,65,83,0
0,53,84,2
0,51,34,2
0,37,76,0
0,71,99,0
0,39,69,0
0,68,66,2
0,38,39,1
0,38,27,9
0,65,70,0
0,42,79,1
0,57,70,0
0,54,71,0
0,38,56,0
0,51,26,0
0,30,61,0
0,69,109,0
0,66,64,1
0,61,61,1
0,38,25,2
0,61,49,0
0,66,58,30
0,38,44,1
0,69,94,0
0,51,27,10
0,30,79,0
0,69,88,0
0,39,76,0
0,66,68,2
0,38,51,1
0,61,66,30
0,38,38,1
0,63,63,0
0,51,28,1
0,35,79,0
0,35,73,0
0,59,70,1
0,38,51,0
0,57,77,1
0,57,69,29
0,38,27,1
0,66,89,0
0,63,77,7
0,38,41,1
0,51,34,30
0,69,97,0
0,39,69,0
0,69,106,0
0,39,90,2
0,66,67,0
0,38,39,1
0,66,88,0
0,42,77,0
0,63,68,0
0,38,27,1
0,40,89,2
0,67,89,0
0,55,67,0
0,52,69,0
0,38,56,0
0,51,26,0
0,40,69,0
0,59,73,0
0,59,61,1
0,62,44,0
0,55,75,29
0,38,25,1
0,64,72,30
0,38,44,1
0,51,27,29
0,59,78,0
0,39,76,0
0,38,82,16
0,55,70,0
0,38,51,1
0,35,74,10
0,64,74,0
0,38,38,1
0,61,52,0
0,51,28,0
0,33,88,0
0,45,71,0
0,38,51,0
0,61,66,0
0,57,67,0
0,33,67,0
0,55,79,29
0,38,27,1
0,61,66,29
0,38,41,1
0,51,34,6
0,67,90,0
0,39,69,0
0,45,78,0
0,64,73,0
0,38,39,1
0,57,70,30
0,38,27,1
0,62,103,0
0,54,47,0
0,57,65,0
