track,note,velocity,time
1,41,80,480
1,41,0,156
1,41,91,24
1,41,0,42
1,33,82,18
1,33,0,180
1,33,89,0
1,33,0,31
1,38,91,29
1,38,0,142
1,38,87,38
1,38,0,18
1,38,89,42
1,38,0,169
1,33,74,11
1,33,0,13
1,38,48,17
1,38,0,14
1,34,80,16
1,34,0,156
1,34,91,24
1,34,0,42
1,41,80,18
1,41,0,156
1,41,91,24
1,41,0,42
1,36,89,18
1,36,0,137
1,36,87,43
1,36,0,17
1,36,85,43
1,36,0,176
1,31,91,4
1,31,0,26
1,34,80,34
1,34,0,156
1,34,91,24
1,34,0,42
1,36,80,18
1,36,0,156
1,36,91,24
1,36,0,42
1,41,85,18
1,41,0,174
1,36,80,6
1,36,0,40
1,43,85,20
1,43,0,154
1,43,95,26
1,43,0,43
1,41,85,17
1,41,0,154
1,41,95,26
1,41,0,43
1,36,80,17
1,36,0,156
1,36,91,24
1,36,0,42
1,41,91,18
1,41,0,142
1,41,87,38
1,41,0,18
1,41,89,42
1,41,0,169
1,41,74,11
1,41,0,13
1,41,48,17
1,41,0,14
1,41,80,16
1,41,0,156
1,41,91,24
1,41,0,42
1,33,80,18
1,33,0,156
1,33,91,24
1,33,0,42
1,38,89,18
1,38,0,137
1,38,87,43
1,38,0,17
1,38,85,43
1,38,0,176
1,33,91,4
1,33,0,26
1,34,82,34
1,34,0,180
1,34,89,0
1,34,0,31
1,41,80,29
1,41,0,156
1,41,91,24
1,41,0,42
1,36,85,18
1,36,0,127
1,36,80,53
1,36,0,17
1,36,80,43
1,36,0,181
1,31,76,0
1,31,0,59
1,34,80,0
1,34,0,156
1,34,91,24
1,34,0,42
1,36,80,18
1,36,0,156
1,36,91,24
1,36,0,42
1,41,85,18
1,41,0,174
1,36,80,6
1,36,0,40
1,43,80,20
1,43,0,156
1,43,91,24
1,43,0,42
1,41,85,18
1,41,0,154
1,41,95,26
1,41,0,43
1,36,80,17
1,36,0,156
1,36,91,24
1,36,0,42
1,41,85,18
1,41,0,127
1,41,80,53
1,41,0,17
1,41,80,43
1,41,0,181
1,36,76,0
1,36,0,59
1,33,87,0
1,33,0,191
1,33,85,19
1,33,0,18
1,40,87,12
1,40,0,191
1,40,85,19
1,40,0,18
1,33,87,12
1,33,0,191
1,33,85,19
1,33,0,18
1,40,85,12
1,40,0,17
1,40,76,43
1,40,0,65
1,47,91,0
1,47,0,46
1,40,87,9
1,40,0,12
1,40,80,18
1,40,0,15
1,33,93,15
1,21,72,210
1,33,0,12
1,21,0,2
1,40,93,16
1,28,72,210
1,40,0,12
1,28,0,2
1,33,87,16
1,33,0,191
1,33,85,19
1,33,0,18
1,38,89,16
1,38,0,25
1,38,87,33
1,38,0,56
1,50,98,0
1,38,82,64
1,50,0,2
1,38,0,48
1,43,87,8
1,43,0,120
1,39,85,0
1,39,0,75
1,39,72,15
1,39,0,18
1,36,87,12
1,36,0,191
1,36,85,19
1,36,0,18
1,41,80,12
1,41,0,156
1,41,91,24
1,41,0,42
1,33,85,18
1,33,0,154
1,33,95,26
1,33,0,43
1,38,85,17
1,38,0,127
1,38,80,53
1,38,0,17
1,38,80,43
1,38,0,181
1,33,76,0
1,33,0,59
1,34,82,0
1,34,0,180
1,34,89,0
1,34,0,31
1,41,85,29
1,41,0,154
1,41,95,26
1,41,0,43
1,36,85,17
1,36,0,127
1,36,80,53
1,36,0,17
1,36,80,43
1,36,0,181
1,31,76,0
1,31,0,59
1,34,80,0
1,34,0,156
1,34,91,24
1,34,0,42
1,36,85,18
1,36,0,174
1,31,80,6
1,31,0,40
1,41,80,20
1,41,0,156
1,41,91,24
1,41,0,42
1,43,80,18
1,43,0,156
1,43,91,24
1,43,0,42
1,41,85,18
1,41,0,154
1,41,95,26
1,41,0,43
1,36,80,17
1,36,0,156
1,36,91,24
1,36,0,42
1,41,85,18
1,41,0,127
1,41,80,53
1,41,0,17
1,41,80,43
1,41,0,181
1,36,76,0
1,36,0,59
1,41,87,0
1,41,0,191
1,41,85,19
1,41,0,18
1,33,87,12
1,33,0,191
1,33,85,19
1,33,0,18
1,38,98,12
1,38,0,192
1,38,87,18
1,38,0,12
1,38,102,18
1,38,0,15
1,38,102,45
1,38,0,105
1,38,107,15
1,38,0,13
1,34,93,47
1,22,72,210
1,34,0,12
1,22,0,2
1,41,87,16
1,41,0,191
1,41,85,19
1,41,0,18
1,36,98,12
1,36,0,192
1,36,87,18
1,36,0,12
1,36,102,18
1,36,0,15
1,36,102,45
1,36,0,105
1,36,107,15
1,36,0,13
1,34,93,47
1,22,72,210
1,34,0,12
1,22,0,2
1,36,93,16
1,24,72,210
1,36,0,12
1,24,0,2
1,41,93,16
1,29,72,210
1,41,0,12
1,29,0,2
1,43,89,20
1,43,0,25
1,43,87,33
1,43,0,56
1,55,98,0
1,43,82,64
1,55,0,2
1,43,0,48
1,41,87,8
1,41,0,191
1,41,85,19
1,41,0,18
1,36,93,12
1,24,72,210
1,36,0,12
1,24,0,2
1,41,85,16
1,41,0,193
1,41,85,17
1,41,0,17
1,41,89,13
1,41,0,18
1,41,87,42
1,41,0,117
1,41,89,3
1,41,0,13
1,41,85,17
1,41,0,12
1,41,87,18
1,41,0,191
1,41,85,19
1,41,0,18
1,33,93,12
1,21,72,210
1,33,0,12
1,21,0,2
1,38,82,16
1,38,0,196
1,38,85,14
1,38,0,13
1,38,89,17
1,38,0,14
1,38,87,46
1,38,0,106
1,33,72,44
1,33,0,18
1,34,93,12
1,22,72,210
1,34,0,12
1,22,0,2
1,41,87,16
1,41,0,191
1,41,85,19
1,41,0,18
1,36,85,12
1,36,0,193
1,36,85,17
1,36,0,17
1,36,89,13
1,36,0,18
1,36,87,42
1,36,0,117
1,36,89,3
1,36,0,13
1,36,85,17
1,36,0,12
1,34,93,18
1,22,72,210
1,34,0,12
1,22,0,2
1,36,87,16
1,36,0,191
1,36,85,19
1,36,0,18
1,41,87,12
1,41,0,191
1,41,85,19
1,41,0,18
1,43,89,16
1,43,0,25
1,43,87,33
1,43,0,56
1,55,98,0
1,43,82,64
1,55,0,2
1,43,0,48
1,41,87,8
1,41,0,191
1,41,85,19
1,41,0,18
1,36,87,12
1,36,0,191
1,36,85,19
1,36,0,18
1,41,82,12
1,41,0,196
1,41,85,14
1,41,0,13
1,41,89,17
1,41,0,14
1,41,87,46
1,41,0,106
1,36,72,44
1,36,0,18
1,33,93,12
1,21,72,210
1,33,0,12
1,21,0,2
1,40,87,16
1,40,0,191
1,40,85,19
1,40,0,18
1,33,93,12
1,21,72,210
1,33,0,12
1,21,0,2
1,40,89,20
1,40,0,25
1,40,87,33
1,40,0,56
1,52,98,0
1,40,82,64
1,52,0,2
1,40,0,48
1,33,87,8
1,33,0,191
1,33,85,19
1,33,0,18
1,40,87,12
1,40,0,191
1,40,85,19
1,40,0,18
1,33,93,12
1,21,72,210
1,33,0,12
1,21,0,2
1,38,89,20
1,38,0,25
1,38,87,33
1,38,0,56
1,50,98,0
1,38,82,64
1,50,0,2
1,38,0,48
1,43,87,8
1,43,0,120
1,39,87,0
1,39,0,120
1,36,87,0
1,36,0,191
1,36,85,19
1,36,0,18
1,41,93,12
1,29,72,210
1,41,0,12
1,29,0,2
1,33,87,16
1,33,0,191
1,33,85,19
1,33,0,18
1,38,85,12
1,38,0,193
1,38,85,17
1,38,0,17
1,38,89,13
1,38,0,18
1,38,87,42
1,38,0,117
1,38,89,3
1,38,0,13
1,38,85,17
1,38,0,12
1,34,87,18
1,34,0,191
1,34,85,19
1,34,0,18
1,41,87,12
1,41,0,191
1,41,85,19
1,41,0,18
1,36,76,12
1,36,0,194
1,36,85,16
1,36,0,13
1,36,63,17
1,36,0,17
1,36,87,43
1,36,0,147
1,24,85,3
1,24,0,12
1,34,87,18
1,34,0,191
1,34,85,19
1,34,0,18
1,36,87,12
1,36,0,191
1,36,85,19
1,36,0,18
1,41,87,12
1,41,0,191
1,41,85,19
1,41,0,18
1,43,89,16
1,43,0,25
1,43,87,33
1,43,0,56
1,55,98,0
1,43,82,64
1,55,0,2
1,43,0,48
1,41,87,8
1,41,0,191
1,41,85,19
1,41,0,18
1,36,87,12
1,36,0,191
1,36,85,19
1,36,0,18
1,41,76,12
1,41,0,194
1,41,85,16
1,41,0,13
1,41,63,17
1,41,0,17
1,41,87,43
1,41,0,147
1,29,85,3
1,29,0,12
1,41,85,18
1,41,0,154
1,41,95,26
1,41,0,43
1,33,80,17
1,33,0,156
1,33,91,24
1,33,0,42
1,38,85,18
1,38,0,136
1,38,74,44
1,38,0,21
1,38,87,39
1,38,0,123
1,38,82,0
1,38,0,78
1,34,80,39
1,34,0,156
1,34,91,24
1,34,0,42
1,41,80,18
1,41,0,156
1,41,91,24
1,41,0,42
1,48,105,18
1,48,0,160
1,48,93,20
1,48,0,18
1,48,98,42
1,48,0,96
1,43,68,0
1,43,0,18
1,36,78,6
1,36,0,104
1,34,80,16
1,34,0,156
1,34,91,24
1,34,0,42
1,36,85,18
1,36,0,174
1,31,80,6
1,31,0,40
1,41,82,20
1,41,0,180
1,41,89,0
1,41,0,31
1,43,85,29
1,43,0,154
1,43,95,26
1,43,0,43
1,41,85,17
1,41,0,174
1,36,80,6
1,36,0,40
1,36,85,20
1,36,0,154
1,36,95,26
1,36,0,43
1,53,105,17
1,53,0,160
1,53,93,20
1,53,0,18
1,53,98,42
1,53,0,96
1,48,68,0
1,48,0,18
1,41,78,6
1,41,0,104
1,41,85,16
1,41,0,154
1,41,95,26
1,41,0,43
1,33,85,17
1,33,0,174
1,28,80,6
1,28,0,40
1,38,89,20
1,38,0,137
1,38,87,43
1,38,0,17
1,38,85,43
1,38,0,176
1,33,91,4
1,33,0,26
1,34,80,34
1,34,0,156
1,34,91,24
1,34,0,42
1,41,82,18
1,41,0,180
1,41,89,0
1,41,0,31
1,36,85,29
1,36,0,127
1,36,80,53
1,36,0,17
1,36,80,43
1,36,0,181
1,31,76,0
1,31,0,59
1,34,82,0
1,34,0,180
1,34,89,0
1,34,0,31
1,36,85,29
1,36,0,154
1,36,95,26
1,36,0,43
1,41,82,17
1,41,0,180
1,41,89,0
1,41,0,31
1,43,85,29
1,43,0,154
1,43,95,26
1,43,0,43
1,41,80,17
1,41,0,156
1,41,91,24
1,41,0,42
1,36,80,18
1,36,0,156
1,36,91,24
1,36,0,42
1,41,91,18
1,41,0,142
1,41,87,38
1,41,0,18
1,41,89,42
1,41,0,169
1,41,74,11
1,41,0,13
1,41,48,17
1,41,0,14
1,33,93,16
1,21,72,210
1,33,0,12
1,21,0,2
1,40,93,16
1,28,72,210
1,40,0,12
1,28,0,2
1,33,87,16
1,33,0,191
1,33,85,19
1,33,0,18
1,40,85,12
1,40,0,17
1,40,76,43
1,40,0,65
1,47,91,0
1,47,0,46
1,40,87,9
1,40,0,12
1,40,80,18
1,40,0,15
1,33,87,15
1,33,0,191
1,33,85,19
1,33,0,18
1,40,93,12
1,28,72,210
1,40,0,12
1,28,0,2
1,33,87,16
1,33,0,191
1,33,85,19
1,33,0,18
1,38,85,12
1,38,0,17
1,38,76,43
1,38,0,65
1,45,91,0
1,45,0,46
1,38,87,9
1,38,0,12
1,38,80,18
1,38,0,15
1,43,85,15
1,43,0,75
1,43,72,15
1,43,0,18
1,39,87,12
1,39,0,120
1,36,87,0
1,36,0,191
1,36,85,19
1,36,0,18
1,41,80,12
1,41,0,156
1,41,91,24
1,41,0,42
1,33,82,18
1,33,0,180
1,33,89,0
1,33,0,31
1,50,105,29
1,50,0,160
1,50,93,20
1,50,0,18
1,50,98,42
1,50,0,96
1,45,68,0
1,45,0,18
1,38,78,6
1,38,0,104
1,34,80,16
1,34,0,156
1,34,91,24
1,34,0,42
1,41,80,18
1,41,0,156
1,41,91,24
1,41,0,42
1,36,85,18
1,36,0,136
1,36,74,44
1,36,0,21
1,36,87,39
1,36,0,123
1,36,82,0
1,36,0,78
1,34,85,39
1,34,0,154
1,34,95,26
1,34,0,43
1,36,82,17
1,36,0,180
1,36,89,0
1,36,0,31
1,41,85,29
1,41,0,154
1,41,95,26
1,41,0,43
1,43,80,17
1,43,0,156
1,43,91,24
1,43,0,42
1,41,82,18
1,41,0,180
1,41,89,0
1,41,0,31
1,36,80,29
1,36,0,156
1,36,91,24
1,36,0,42
1,41,85,18
1,41,0,127
1,41,80,53
1,41,0,17
1,41,80,43
1,41,0,181
1,36,76,0
1,36,0,59
1,34,87,0
1,34,0,191
1,34,85,19
1,34,0,18
1,36,93,12
1,24,72,210
1,36,0,12
1,24,0,2
1,41,93,16
1,29,72,210
1,41,0,12
1,29,0,2
1,43,89,20
1,43,0,25
1,43,87,33
1,43,0,56
1,55,98,0
1,43,82,64
1,55,0,2
1,43,0,48
1,41,87,8
1,41,0,191
1,41,85,19
1,41,0,18
1,36,87,12
1,36,0,191
1,36,85,19
1,36,0,18
1,41,98,12
1,41,0,185
1,41,85,23
1,41,0,11
1,41,91,21
1,41,0,206
1,36,85,2
1,36,0,15
1,41,85,16
1,41,0,471
2,35,90,480
2,42,90,0
2,49,60,0
2,35,0,25
2,42,0,0
2,49,0,0
2,42,40,5
2,42,0,25
2,42,90,5
2,62,70,0
2,42,0,25
2,62,0,0
2,42,40,5
2,62,60,0
2,42,0,25
2,62,0,0
2,38,70,5
2,42,90,0
2,54,115,0
2,39,80,0
2,38,0,25
2,42,0,0
2,54,0,0
2,39,0,0
2,42,40,5
2,42,0,25
2,35,80,5
2,42,90,0
2,35,0,25
2,42,0,0
2,42,40,5
2,42,0,25
2,35,90,5
2,42,90,0
2,35,0,25
2,42,0,0
2,42,40,5
2,42,0,25
2,42,90,5
2,42,0,25
2,42,40,5
2,63,80,0
2,42,0,25
2,63,0,0
2,38,70,5
2,42,90,0
2,39,90,0
2,38,0,25
2,42,0,0
2,39,0,0
2,42,40,5
2,63,60,0
2,42,0,25
2,63,0,0
2,42,90,5
2,63,70,0
2,42,0,25
2,63,0,0
2,35,80,5
2,46,72,0
2,63,60,0
2,35,0,25
2,46,0,0
2,63,0,0
2,35,90,5
2,42,90,0
2,35,0,25
2,42,0,0
2,42,40,5
2,42,0,25
2,42,90,5
2,62,70,0
2,42,0,25
2,62,0,0
2,42,50,5
2,62,60,0
2,42,0,25
2,62,0,0
2,38,70,5
2,42,90,0
2,54,115,0
2,39,80,0
2,38,0,25
2,42,0,0
2,54,0,0
2,39,0,0
2,42,50,5
2,42,0,25
2,35,80,5
2,42,90,0
2,35,0,25
2,42,0,0
2,42,40,5
2,42,0,25
2,35,90,5
2,42,90,0
2,35,0,25
2,42,0,0
2,42,40,5
2,42,0,25
2,42,90,5
2,42,0,25
2,42,40,5
2,63,80,0
2,42,0,25
2,63,0,0
2,38,70,5
2,42,90,0
2,39,90,0
2,38,0,25
2,42,0,0
2,39,0,0
2,42,40,5
2,63,60,0
2,42,0,25
2,63,0,0
2,42,90,5
2,63,70,0
2,42,0,25
2,63,0,0
2,38,54,5
2,42,50,0
2,63,60,0
2,38,0,25
2,42,0,0
2,63,0,0
2,35,90,5
2,42,90,0
2,35,0,25
2,42,0,0
2,42,50,5
2,42,0,25
2,42,90,5
2,62,70,0
2,42,0,25
2,62,0,0
2,42,40,5
2,62,60,0
2,42,0,25
2,62,0,0
2,38,70,5
2,42,90,0
2,54,115,0
2,39,80,0
2,38,0,25
2,42,0,0
2,54,0,0
2,39,0,0
2,42,50,5
2,42,0,25
2,35,80,5
2,42,90,0
2,35,0,25
2,42,0,0
2,42,50,5
2,42,0,25
2,35,90,5
2,42,90,0
2,35,0,25
2,42,0,0
2,42,40,5
2,42,0,25
2,42,90,5
2,42,0,25
2,42,50,5
2,63,80,0
2,42,0,25
2,63,0,0
2,38,70,5
2,42,90,0
2,39,90,0
2,38,0,25
2,42,0,0
2,39,0,0
2,42,60,5
2,63,60,0
2,42,0,25
2,63,0,0
2,46,54,5
2,63,70,0
2,46,0,25
2,63,0,0
2,35,80,5
2,42,40,0
