track,note,velocity,time
0,55,79,668
0,60,91,64
0,64,92,40
0,62,78,24
0,64,88,76
0,62,74,4
0,60,84,8
0,55,88,260
0,60,91,36
0,64,90,20
0,55,86,20
0,62,78,52
0,64,87,52
0,65,85,28
0,55,85,52
0,60,75,32
0,64,81,20
0,67,79,24
0,52,103,288
0,50,108,12
0,48,111,12
0,38,98,112
0,38,94,28
0,38,87,12
0,48,74,0
0,48,96,0
0,50,121,0
0,48,112,12
0,38,91,12
0,48,117,0
0,55,93,108
0,60,79,32
0,38,91,48
0,64,75,0
0,38,97,188
0,38,95,92
0,38,83,32
0,48,90,0
0,38,90,16
0,38,80,32
0,55,75,62
0,38,89,32
0,60,81,0
0,67,92,0
0,38,25,20
0,64,88,0
0,38,43,40
0,38,61,40
0,38,71,20
0,38,81,20
0,38,91,0
0,38,94,4
0,38,104,12
0,52,79,0
0,52,97,0
0,38,82,128
0,55,114,0
0,55,121,12
0,55,82,40
0,60,89,32
0,38,92,12
0,55,109,0
0,64,90,12
0,38,90,12
0,55,114,0
0,38,87,12
0,55,104,0
0,38,81,92
0,52,91,0
0,38,94,12
0,52,112,0
0,38,83,92
0,55,77,148
0,38,82,40
0,60,75,0
0,67,89,0
0,38,38,20
0,64,78,0
0,38,50,40
0,38,63,40
0,38,69,20
0,38,76,20
0,38,83,0
0,38,85,4
0,38,92,12
0,41,98,0
0,53,84,0
0,53,109,0
0,60,101,0
0,53,93,0
0,38,87,128
0,57,75,84
0,60,90,40
0,65,90,48
0,38,93,16
0,69,74,20
0,38,93,168
0,57,106,0
0,38,84,92
0,38,81,12
0,57,119,0
0,38,89,92
0,38,82,12
0,57,107,0
0,59,120,12
0,38,98,96
0,38,34,0
0,38,49,8
0,38,63,40
0,38,71,4
0,60,93,12
0,38,79,8
0,38,87,20
0,38,90,4
0,66,93,0
0,38,98,12
0,42,92,0
0,54,89,0
0,69,87,0
0,54,98,0
0,54,104,0
0,60,102,0
0,60,117,0
0,38,88,12
0,60,111,92
0,38,97,96
0,38,85,12
0,59,118,0
0,38,88,92
0,38,93,12
0,57,110,0
0,38,88,92
0,38,96,92
0,38,82,96
0,57,75,0
0,38,6,32
0,60,119,0
0,38,26,4
0,38,46,4
0,62,114,4
0,38,57,4
0,38,68,20
0,55,79,0
0,38,79,20
0,38,83,4
0,60,88,0
0,35,104,0
0,38,94,0
0,43,91,0
0,55,93,0
0,55,108,0
0,55,93,0
0,60,96,0
0,64,116,0
0,62,74,12
0,67,82,24
0,38,99,152
0,38,80,188
0,38,93,188
0,38,84,92
0,38,82,92
0,38,96,92
0,38,92,92
0,38,98,12
0,60,117,0
0,55,116,12
0,38,25,12
0,60,118,0
0,38,40,28
0,38,54,8
0,38,64,8
0,38,70,16
0,38,80,0
0,38,81,0
0,35,99,20
0,45,100,0
0,57,90,0
0,57,106,0
0,57,92,0
0,38,90,0
0,60,89,20
0,38,86,4
0,35,99,20
0,64,93,0
0,38,94,0
0,60,81,20
0,38,95,4
0,38,90,92
0,69,84,20
0,38,82,4
0,38,90,92
0,64,84,20
0,38,91,4
0,60,89,20
0,38,94,4
0,64,89,20
0,52,109,0
0,38,23,4
0,38,41,40
0,38,58,8
0,53,115,0
0,38,67,8
0,38,77,12
0,55,87,12
0,38,86,0
0,38,89,0
0,35,107,12
0,55,96,0
0,55,103,0
0,38,83,0
0,59,93,24
0,62,88,24
0,38,99,140
0,38,86,188
0,38,80,188
0,38,81,92
0,43,99,88
0,38,85,4
0,38,83,92
0,38,90,92
0,65,86,56
0,38,96,4
0,59,87,20
0,50,114,0
0,38,31,4
0,38,46,40
0,38,61,8
0,52,112,0
0,38,70,20
0,38,78,20
0,38,86,20
0,38,89,0
0,35,105,12
0,52,92,0
0,52,121,0
0,38,88,0
0,50,107,12
0,55,84,12
0,48,122,0
0,38,90,4
0,60,81,184
0,38,84,4
0,64,83,184
0,38,93,4
0,38,82,92
0,35,106,88
0,43,103,0
0,52,98,0
0,38,92,0
0,38,89,92
0,53,103,20
0,38,95,4
0,55,108,20
0,38,84,4
0,53,107,20
0,38,90,4
0,38,26,40
0,38,49,40
0,38,61,8
0,38,73,20
0,38,86,20
0,38,90,0
0,35,110,16
0,48,101,0
0,52,101,0
0,38,95,0
0,55,96,184
0,38,98,4
0,60,95,184
0,38,95,4
0,38,94,188
0,38,91,92
0,35,93,84
0,43,99,0
0,38,98,0
0,38,98,92
0,38,99,92
0,55,103,184
0,38,86,4
0,55,95,28
0,38,92,4
0,38,32,40
0,38,53,40
0,38,67,12
0,38,77,16
0,38,90,4
0,38,92,0
0,35,112,16
0,36,100,0
0,55,76,0
0,60,81,0
0,64,76,0
0,52,100,0
0,52,97,0
0,36,106,0
0,43,93,0
0,60,99,0
0,38,94,4
0,38,96,188
0,36,92,16
0,55,92,0
0,48,94,0
0,64,104,0
0,38,94,8
0,38,95,188
0,38,81,92
0,35,107,16
0,40,91,0
0,55,86,0
0,58,82,0
0,64,84,0
0,40,107,0
0,46,104,0
0,55,97,0
0,62,95,0
0,38,89,4
0,38,87,92
0,38,93,92
0,52,96,16
0,40,91,0
0,48,93,0
0,60,105,0
0,38,83,8
0,38,32,124
0,38,43,40
0,38,53,40
0,38,59,12
0,38,65,8
0,38,71,8
0,38,73,0
0,35,86,12
0,41,102,0
0,53,76,0
0,57,80,0
0,60,92,0
0,53,99,0
0,41,94,0
0,48,106,0
0,53,108,0
0,57,102,0
0,38,78,4
0,55,99,20
0,38,98,8
0,57,108,16
0,41,105,0
0,48,102,0
0,53,107,0
0,60,100,0
0,38,96,8
0,59,109,20
0,38,88,8
0,38,99,40
0,60,107,20
0,38,99,8
0,38,83,92
0,38,95,92
0,57,107,20
0,41,105,0
0,48,90,0
0,53,95,0
0,57,100,0
0,38,96,8
0,38,24,188
0,38,38,40
0,38,53,40
0,38,60,12
0,38,68,20
0,38,76,20
0,38,78,0
0,35,94,12
0,42,107,0
0,54,89,0
0,57,82,0
0,60,81,0
0,54,102,0
0,38,105,0
0,54,105,0
0,45,95,0
0,62,104,0
0,38,86,4
0,38,92,188
0,60,100,20
0,38,94,8
0,38,84,188
0,38,91,92
0,57,100,20
0,38,81,8
0,38,91,40
0,38,84,92
0,42,97,28
0,57,94,0
0,38,97,8
0,38,37,188
0,38,49,40
0,38,61,40
0,38,67,12
0,38,73,20
0,38,79,4
0,38,82,0
0,35,96,12
0,43,97,0
0,57,92,0
0,60,82,0
0,57,106,0
0,57,95,0
0,60,93,0
0,43,109,0
0,53,93,0
0,62,98,0
0,38,88,4
0,60,109,20
0,38,92,8
0,62,103,20
0,38,94,8
0,60,99,20
0,38,93,8
0,38,97,92
0,43,98,20
0,55,91,0
0,59,86,0
0,59,110,0
0,55,91,0
0,59,104,0
0,38,82,8
0,38,93,92
0,38,94,92
0,55,94,20
0,38,90,8
0,52,100,0
0,55,104,0
0,38,16,8
0,38,32,40
0,38,48,28
0,38,59,16
0,38,66,16
0,38,76,0
0,38,78,0
0,35,93,12
0,36,97,0
0,55,81,0
0,48,98,0
0,43,99,0
0,36,105,0
0,52,102,0
0,60,104,0
0,38,88,8
0,38,95,188
0,48,96,16
0,36,105,0
0,55,109,0
0,48,90,0
0,64,108,0
0,38,83,12
0,38,99,188
0,38,96,0
0,40,97,16
0,55,88,0
0,52,101,0
0,55,103,0
0,40,107,0
0,46,93,0
0,62,92,0
0,38,86,12
0,38,89,92
0,38,90,92
0,52,109,16
0,48,108,0
0,52,109,0
0,40,95,0
0,60,103,0
0,38,81,12
0,38,36,188
0,38,50,40
0,38,64,40
0,38,72,16
0,38,79,20
0,38,87,0
0,38,90,4
0,35,104,8
0,41,106,0
0,55,84,0
0,53,96,0
0,53,102,0
0,48,106,0
0,41,103,0
0,57,94,0
0,38,98,8
0,38,80,188
0,53,96,16
0,55,91,0
0,50,93,0
0,41,91,0
0,59,105,0
0,38,87,12
0,38,91,188
0,38,82,0
0,35,94,16
0,41,99,0
0,55,76,0
0,53,107,0
0,41,95,0
0,53,97,0
0,48,98,0
0,60,103,0
0,38,99,8
0,38,96,92
0,38,94,92
0,38,93,188
0,53,98,20
0,41,96,0
0,57,106,0
0,38,26,12
0,38,38,40
0,38,51,40
0,38,58,16
0,38,65,20
0,38,72,0
0,38,75,4
0,35,88,8
0,36,98,0
0,55,81,0
0,52,98,0
0,52,106,0
0,36,99,0
0,43,97,0
0,55,91,0
0,38,82,8
0,38,85,188
0,52,100,16
0,36,98,0
0,43,96,0
0,52,98,0
0,55,104,0
0,38,95,12
0,38,92,188
0,38,83,44
0,55,90,16
0,52,97,0
0,43,95,0
0,52,92,0
0,36,109,0
0,60,108,0
0,38,90,12
0,38,81,92
0,38,98,92
0,52,98,16
0,55,104,0
0,36,104,0
0,48,93,0
0,64,106,0
0,38,87,12
0,38,13,188
0,38,30,40
0,38,47,36
0,38,57,16
0,38,66,20
0,38,76,0
0,38,79,4
0,35,94,8
0,43,95,0
0,55,93,0
0,55,97,0
0,55,96,0
0,43,98,0
0,48,109,0
0,64,104,0
0,38,89,8
0,62,94,176
0,38,93,12
0,65,102,16
0,57,92,0
0,43,104,0
0,53,107,0
0,48,104,0
0,62,91,0
0,38,85,12
0,38,83,188
0,38,88,92
0,50,113,20
0,38,81,12
0,38,81,92
0,57,103,80
0,38,84,12
0,62,99,176
0,38,80,12
0,38,32,188
0,38,45,40
0,38,58,40
0,38,66,20
0,38,72,16
0,38,81,4
0,38,82,0
0,35,95,8
0,43,107,0
0,60,83,0
0,50,107,0
0,55,94,0
0,47,99,0
0,38,90,12
0,55,97,172
0,38,88,16
0,62,96,172
0,38,93,16
0,38,90,188
0,38,97,92
0,50,96,20
0,38,91,16
0,38,84,92
0,38,92,92
0,38,97,188
0,43,106,124
0,38,14,16
0,38,32,40
0,38,50,28
0,38,61,20
0,38,71,20
0,38,81,20
0,38,84,4
0,35,97,4
0,36,104,0
0,60,95,0
0,55,105,0
0,52,97,0
0,48,94,0
0,52,80,0
0,48,106,0
0,38,94,12
0,48,118,12
0,60,102,12
0,55,91,0
0,48,116,0
0,38,85,16
0,64,96,20
0,60,92,0
0,38,91,16
0,60,94,20
0,55,81,0
0,38,85,16
0,38,91,92
0,60,84,20
0,64,88,0
0,38,89,16
0,38,97,28
0,60,87,76
0,38,94,16
0,55,81,20
0,38,84,16
0,55,103,0
0,60,74,0
0,38,40,16
0,38,49,40
0,38,58,32
0,38,63,20
0,38,68,4
0,38,73,4
0,38,74,4
0,35,86,4
0,40,94,0
0,52,105,0
0,40,107,0
0,48,94,0
0,52,75,0
0,38,79,12
0,55,88,172
0,43,108,0
0,38,99,16
0,48,111,12
0,55,104,12
0,60,92,0
0,52,118,0
0,38,99,16
0,55,104,12
0,52,92,20
0,55,93,0
0,38,82,16
0,55,118,12
0,38,91,16
0,67,74,20
0,38,96,16
0,38,92,92
0,64,89,20
0,38,96,16
0,55,91,20
0,52,102,0
0,60,85,0
0,67,119,0
0,52,98,0
0,40,113,0
0,38,94,16
0,58,91,20
0,55,107,0
0,55,85,0
0,38,31,16
0,38,45,8
0,38,59,32
0,38,67,20
0,38,74,20
0,38,82,4
0,38,85,4
0,35,97,4
0,41,91,0
0,53,105,0
0,48,102,0
0,57,98,0
0,53,87,0
0,69,110,0
0,57,91,0
0,53,102,0
0,60,108,0
0,41,114,0
0,38,92,12
0,57,78,20
0,38,85,16
0,60,91,20
0,38,97,16
0,57,76,20
0,57,118,0
0,38,80,16
0,55,104,12
0,38,89,16
0,65,75,12
0,57,103,0
0,38,98,16
0,38,90,92
0,60,76,20
0,38,98,16
0,57,87,12
0,59,117,0
0,38,96,16
0,53,83,12
0,60,103,0
0,38,22,16
0,38,33,40
0,38,45,32
0,38,51,20
0,38,57,4
0,38,63,4
0,38,65,4
0,35,77,4
0,42,98,0
0,48,103,0
0,54,102,0
0,57,108,0
0,54,80,0
0,69,116,0
0,54,106,0
0,60,93,0
0,57,98,0
0,42,122,0
0,38,71,12
0,57,85,20
0,38,84,16
0,60,86,12
0,60,108,0
0,38,80,16
0,57,82,12
0,60,108,0
0,38,89,16
0,38,92,92
0,48,76,20
0,38,98,16
0,38,82,92
0,54,93,20
0,38,90,16
0,57,74,20
0,38,93,16
0,60,92,20
0,60,105,0
0,38,19,16
0,38,37,8
0,62,122,12
0,38,54,8
0,38,64,20
0,38,74,20
0,38,83,4
0,38,87,4
0,35,100,4
0,43,100,0
0,48,94,0
0,55,91,0
0,52,81,0
0,43,113,0
0,64,109,0
0,38,96,12
0,55,74,20
0,38,91,16
0,60,91,20
0,38,84,16
0,55,91,20
0,38,91,16
0,38,87,92
0,64,92,20
0,38,92,16
0,38,93,92
0,60,85,20
0,38,86,16
0,55,97,0
0,60,90,0
0,64,104,0
0,55,78,0
0,67,123,0
0,38,94,16
0,55,90,20
0,60,108,0
0,52,87,0
0,60,118,0
0,38,24,16
0,38,37,40
0,55,114,12
0,38,49,8
0,38,56,20
0,38,63,0
0,38,70,4
0,38,72,4
0,35,85,4
0,33,90,0
0,45,98,0
0,57,77,0
0,69,125,0
0,45,91,0
0,45,108,0
0,60,117,0
0,38,79,12
0,57,103,20
0,52,88,0
0,38,98,16
0,60,94,20
0,57,85,0
0,38,86,16
0,57,93,12
0,60,87,0
0,57,120,0
0,38,80,16
0,38,93,92
0,64,98,20
0,64,75,0
0,72,121,0
0,69,98,0
0,38,84,16
0,38,93,92
0,60,86,20
0,38,99,16
0,64,99,12
0,57,89,0
0,38,91,16
0,65,105,20
0,60,79,0
0,52,115,0
0,38,21,16
0,38,38,40
0,53,109,12
0,38,54,8
0,38,63,20
0,38,72,0
0,38,81,4
0,38,84,4
0,35,97,4
0,67,97,0
0,65,104,0
0,62,91,0
0,50,93,0
0,65,122,0
0,60,104,0
0,38,106,0
0,38,119,0
0,55,109,0
0,38,93,12
0,53,92,20
0,38,83,16
0,57,75,20
0,38,95,16
0,60,86,20
0,38,82,16
0,38,93,92
0,43,90,20
0,62,84,0
0,69,114,0
0,65,102,0
0,60,93,0
0,43,99,0
0,43,114,0
0,38,99,16
0,38,81,92
0,57,92,20
0,38,88,16
0,53,82,20
0,38,82,16
0,57,84,20
0,50,117,0
0,38,42,16
0,38,58,40
0,52,116,12
0,38,74,8
0,38,82,20
0,38,90,0
0,38,99,4
0,38,102,4
0,38,105,4
0,35,115,0
0,36,104,0
0,48,105,0
0,55,93,0
0,67,114,0
0,60,93,0
0,64,94,0
0,36,97,0
0,84,92,0
0,36,107,0
0,48,113,0
0,38,40,20
0,52,86,0
0,38,49,28
0,38,59,28
0,38,68,28
0,38,78,28
0,38,87,28
0,38,97,20
0,55,91,0
0,38,36,20
0,60,85,0
0,38,45,28
0,38,55,28
0,38,64,24
0,38,73,28
0,38,83,28
0,38,92,8
0,35,102,0
0,43,105,0
0,64,80,0
0,38,84,20
0,35,107,0
0,55,85,0
0,38,26,20
0,43,106,0
0,64,104,0
0,60,108,0
0,60,79,0
0,64,87,0
0,38,32,8
0,38,38,16
0,38,43,12
0,65,100,0
0,62,93,0
0,62,78,0
0,65,76,0
0,38,49,28
0,38,54,16
0,38,60,12
0,67,92,0
0,64,96,0
0,64,93,0
0,67,74,0
0,38,65,28
0,38,71,28
0,38,77,12
0,65,104,0
0,62,98,0
0,62,91,0
0,65,89,0
0,38,82,28
0,38,88,28
0,38,93,12
0,35,103,0
0,36,108,0
0,60,93,0
0,64,93,0
0,55,82,0
0,38,36,20
0,52,85,0
0,38,45,28
0,38,53,28
0,38,61,28
0,38,70,28
0,38,78,8
0,38,86,20
0,55,91,0
0,69,110,0
0,38,21,20
0,60,82,0
0,38,33,28
0,38,46,28
0,38,58,24
0,38,71,28
0,38,83,8
0,38,95,20
0,35,105,0
0,43,101,0
0,64,82,0
0,71,122,0
0,38,96,20
0,35,93,0
0,55,84,0
0,72,112,0
0,38,19,20
0,43,102,0
0,64,91,0
0,60,97,0
0,60,82,0
0,64,79,0
0,74,116,0
