track,note,velocity,time
1,67,95,1140
1,74,100,0
1,71,94,0
1,76,101,0
1,79,97,0
1,65,97,0
1,55,83,0
1,55,0,116
1,79,0,0
1,74,0,0
1,71,0,0
1,67,0,0
1,65,0,0
1,76,0,0
1,55,94,68
1,65,80,0
1,67,90,0
1,79,82,0
1,71,85,0
1,76,83,0
1,74,84,0
1,74,0,120
1,71,0,0
1,79,0,0
1,67,0,0
1,76,0,0
1,65,0,8
1,55,0,24
1,54,92,40
1,66,107,0
1,75,101,0
1,73,97,0
1,70,97,0
1,78,85,0
1,64,86,8
1,54,0,88
1,64,0,20
1,75,0,4
1,73,0,0
1,66,0,0
1,78,0,0
1,70,0,0
1,54,83,72
1,64,93,0
1,70,71,0
1,66,81,0
1,73,80,0
1,75,78,0
1,78,71,0
1,54,0,116
1,75,0,4
1,70,0,0
1,73,0,0
1,78,0,0
1,66,0,4
1,64,0,32
1,69,78,36
1,74,93,0
1,77,97,0
1,72,89,0
1,65,85,0
1,63,83,8
1,53,105,0
1,53,0,104
1,65,0,8
1,74,0,0
1,77,0,0
1,69,0,0
1,63,0,0
1,72,0,0
1,77,88,72
1,69,82,0
1,74,83,0
1,72,78,0
1,65,76,0
1,63,82,8
1,53,88,0
1,63,0,100
1,53,0,4
1,69,0,8
1,74,0,0
1,77,0,0
1,65,0,0
1,72,0,0
1,66,95,72
1,73,99,0
1,75,94,0
1,78,92,0
1,70,89,0
1,54,94,8
1,64,89,0
1,54,0,68
1,78,0,44
1,73,0,0
1,75,0,0
1,66,0,0
1,70,0,0
1,64,0,12
1,54,85,60
1,70,80,0
1,66,77,0
1,73,78,0
1,78,85,0
1,75,78,0
1,64,77,8
1,54,0,88
1,64,0,16
1,66,0,8
1,73,0,0
1,70,0,0
1,75,0,0
1,78,0,0
1,71,95,72
1,76,104,0
1,79,101,0
1,74,100,0
1,67,100,0
1,65,90,8
1,55,97,0
1,74,0,112
1,65,0,8
1,76,0,4
1,71,0,0
1,79,0,8
1,55,0,4
1,67,0,24
1,43,75,48
1,43,0,56
1,43,77,112
1,43,0,116
1,43,88,92
1,43,0,80
1,43,94,100
1,43,0,104
1,43,74,104
1,43,0,88
1,43,90,84
1,43,0,96
1,43,87,108
1,43,0,88
1,36,98,100
1,72,90,248
1,76,86,0
1,69,80,0
1,79,83,0
1,67,86,0
1,67,0,60
1,36,0,4
1,69,0,8
1,79,0,16
1,76,0,12
1,72,0,0
1,39,84,24
1,39,0,248
1,67,60,8
1,40,76,0
1,67,0,20
1,40,0,92
1,43,87,16
1,72,83,4
1,79,78,0
1,76,78,0
1,69,75,4
1,67,80,4
1,43,0,240
1,43,65,12
1,43,0,124
1,39,82,0
1,39,0,260
1,40,68,0
1,79,0,56
1,67,0,12
1,69,0,4
1,76,0,4
1,72,0,16
1,40,0,12
1,36,87,28
1,36,0,232
1,72,89,12
1,76,81,0
1,79,83,0
1,69,78,0
1,67,81,0
1,67,0,60
1,69,0,8
1,79,0,12
1,76,0,0
1,72,0,4
1,39,87,44
1,39,0,228
1,67,60,28
1,40,69,4
1,67,0,16
1,40,0,64
1,72,79,44
1,76,69,0
1,69,74,0
1,79,67,0
1,67,78,0
1,43,85,8
1,43,0,244
1,43,73,12
1,43,0,124
1,39,95,0
1,39,0,204
1,40,67,56
1,40,0,124
1,36,94,0
1,79,0,16
1,76,0,0
1,67,0,8
1,72,0,16
1,69,0,0
1,72,90,216
1,79,78,0
1,76,79,0
1,69,77,0
1,67,80,0
1,67,0,56
1,76,0,4
1,69,0,0
1,79,0,8
1,36,0,4
1,72,0,4
1,39,91,48
1,39,0,244
1,67,62,16
1,40,67,8
1,67,0,20
1,40,0,100
1,72,80,0
1,79,75,0
1,76,74,0
1,69,76,0
1,67,80,0
1,43,90,12
1,43,0,168
1,43,90,76
1,43,0,124
1,39,87,12
1,39,0,248
1,40,69,8
1,67,0,112
1,76,0,20
1,79,0,0
1,36,83,0
1,40,0,4
1,69,0,4
1,72,0,16
1,72,93,220
1,79,83,0
1,69,83,0
1,76,81,0
1,67,90,0
1,36,0,44
1,79,0,40
1,67,0,0
1,72,0,12
1,69,0,0
1,76,0,0
1,39,85,32
1,39,0,224
1,67,55,32
1,40,67,0
1,67,0,44
1,40,0,76
1,72,88,4
1,79,83,4
1,69,74,0
1,76,80,0
1,67,89,0
1,43,93,0
1,43,0,348
1,44,99,44
1,44,0,200
1,76,0,16
1,79,0,0
1,72,0,12
1,67,0,4
1,69,0,12
1,45,80,12
1,45,0,124
1,41,98,4
1,69,86,248
1,77,89,0
1,74,89,0
1,72,83,0
1,72,0,60
1,74,0,0
1,41,0,4
1,69,0,8
1,77,0,12
1,44,84,40
1,44,0,248
1,45,76,8
1,65,93,4
1,65,0,56
1,45,0,52
1,48,87,16
1,77,90,4
1,74,86,0
1,69,83,0
1,72,81,0
1,48,0,384
1,44,82,0
1,44,0,260
1,45,68,0
1,45,0,104
1,41,98,28
1,69,0,48
1,72,0,0
1,74,0,0
1,77,0,12
1,74,94,184
1,69,83,0
1,72,85,0
1,77,90,0
1,41,0,68
1,77,0,4
1,74,0,12
1,69,0,0
1,72,0,0
1,44,84,44
1,44,0,248
1,45,76,8
1,65,85,12
1,65,0,64
1,45,0,36
1,48,87,16
1,74,91,8
1,72,83,0
1,69,85,4
1,77,89,0
1,48,0,376
1,44,82,0
1,44,0,260
1,45,68,0
1,45,0,104
1,69,0,16
1,74,0,0
1,77,0,0
1,72,0,8
1,41,98,4
1,69,90,248
1,74,94,0
1,72,89,0
1,77,93,0
1,77,0,44
1,72,0,4
1,74,0,4
1,69,0,12
1,41,0,0
1,44,84,60
1,44,0,248
1,45,76,8
1,65,74,12
1,65,0,36
1,45,0,64
1,48,87,16
1,77,96,4
1,69,87,0
1,74,93,0
1,72,86,4
1,48,0,380
1,44,82,0
1,72,0,144
1,74,0,8
1,69,0,0
1,77,0,24
1,44,0,84
1,45,68,0
1,45,0,104
1,36,98,28
1,72,90,248
1,76,86,0
1,69,80,0
1,79,83,0
1,67,86,0
1,67,0,60
1,36,0,4
1,69,0,8
1,79,0,16
1,76,0,12
1,72,0,0
1,39,84,24
1,39,0,248
1,67,60,8
1,40,76,0
1,67,0,20
1,40,0,92
1,43,87,16
1,72,83,4
1,79,78,0
1,76,78,0
1,69,75,4
1,67,80,4
1,43,0,376
1,45,82,0
1,45,0,260
1,43,68,0
1,79,0,56
1,67,0,12
1,69,0,4
1,76,0,4
1,72,0,16
1,43,0,12
1,38,104,28
1,38,0,280
1,62,93,104
1,60,83,0
1,57,88,0
1,65,90,0
1,40,97,0
1,65,0,128
1,60,0,0
1,57,0,12
1,62,0,4
1,40,0,216
1,41,107,16
1,57,90,256
1,62,98,4
1,60,93,0
1,65,100,0
1,41,0,36
1,62,0,40
1,60,0,8
1,65,0,8
1,57,0,12
1,42,92,28
1,42,0,312
1,62,91,64
1,59,93,0
1,65,89,0
1,57,86,0
1,53,85,0
1,43,116,0
1,43,0,244
1,57,0,16
1,53,0,4
1,59,0,8
1,65,0,4
1,62,0,0
1,36,98,1268
1,72,90,248
1,76,86,0
1,69,80,0
1,79,83,0
1,67,86,0
1,67,0,60
1,36,0,4
1,69,0,8
1,79,0,16
1,76,0,12
1,72,0,0
1,39,84,24
1,39,0,248
1,67,60,8
1,40,76,0
1,67,0,20
1,40,0,92
1,43,87,16
1,72,83,4
1,79,78,0
1,76,78,0
1,69,75,4
1,67,80,4
1,43,0,240
1,43,65,12
1,43,0,124
1,39,82,0
1,39,0,260
1,40,68,0
1,79,0,56
1,67,0,12
1,69,0,4
1,76,0,4
1,72,0,16
1,40,0,12
1,36,98,28
1,72,90,248
1,76,86,0
1,69,80,0
1,79,83,0
1,67,86,0
1,67,0,60
1,36,0,4
1,69,0,8
1,79,0,16
1,76,0,12
1,72,0,0
1,39,84,24
1,39,0,248
1,67,60,8
1,40,76,0
1,67,0,20
1,40,0,92
1,43,87,16
1,72,83,4
1,79,78,0
1,76,78,0
1,69,75,4
1,67,80,4
1,43,0,240
1,43,65,12
1,43,0,124
1,36,82,0
1,36,0,260
1,79,0,56
1,67,0,12
1,69,0,4
1,76,0,4
1,72,0,16
1,29,96,36
1,29,0,304
1,60,84,84
1,62,89,0
1,57,87,0
1,53,81,0
1,29,84,0
1,29,0,324
1,29,83,60
1,29,0,296
1,29,87,88
1,29,0,340
1,31,77,40
1,57,0,180
1,53,0,0
1,62,0,0
1,60,0,4
1,31,0,16
1,31,79,60
1,31,0,100
1,62,101,24
1,59,107,0
1,57,107,0
1,53,98,0
1,35,90,12
1,57,0,156
1,53,0,4
1,59,0,0
1,62,0,8
1,35,0,28
1,59,116,52
1,53,107,0
1,62,116,0
1,57,120,0
1,35,83,8
1,35,0,84
1,57,0,4
1,59,0,24
1,53,0,0
1,38,82,8
1,62,0,24
1,38,0,132
1,38,100,92
1,38,0,112
1,31,94,32
1,31,0,268
1,29,96,104
1,29,0,304
1,62,89,80
1,57,90,4
1,60,83,0
1,53,82,0
1,29,84,0
1,29,0,324
1,29,83,60
1,29,0,296
1,29,87,88
1,29,0,340
1,31,77,40
1,31,0,200
1,31,79,60
1,53,0,28
1,60,0,4
1,57,0,8
1,62,0,8
1,31,0,52
1,57,75,36
1,35,90,0
1,62,78,4
1,59,72,0
1,53,70,0
1,53,0,100
1,59,0,0
1,57,0,24
1,62,0,12
1,35,0,56
1,62,73,56
1,57,78,4
1,59,79,0
1,53,72,0
1,35,83,0
1,35,0,84
1,59,0,16
1,57,0,0
1,62,0,12
1,53,0,0
1,38,82,8
1,38,0,156
1,38,100,92
1,38,0,112
1,31,94,32
1,31,0,268
1,29,96,104
1,29,0,304
1,53,66,84
1,62,70,0
1,60,75,0
1,57,78,0
1,29,84,0
1,29,0,324
1,29,83,60
1,29,0,296
1,29,87,88
1,29,0,340
1,31,77,40
1,60,0,164
1,57,0,12
1,62,0,0
1,31,0,24
1,53,0,24
1,31,79,36
1,31,0,100
1,57,76,28
1,62,77,0
1,53,74,0
1,59,78,0
1,35,90,8
1,59,0,112
1,53,0,12
1,57,0,12
1,62,0,12
1,35,0,48
1,53,74,56
1,62,78,0
1,57,76,0
1,59,77,0
1,35,83,4
1,59,0,80
1,35,0,4
1,53,0,8
1,62,0,0
1,57,0,0
1,38,82,28
1,38,0,156
1,38,100,92
1,38,0,112
1,31,94,32
1,31,0,268
1,29,96,104
1,29,0,304
1,60,70,84
1,53,69,0
1,57,69,0
1,62,70,0
1,29,84,0
1,29,0,324
1,29,83,60
1,29,0,296
1,29,87,88
1,29,0,340
1,31,77,40
1,57,0,88
1,62,0,0
1,60,0,12
1,53,0,0
1,31,0,100
1,31,79,60
1,31,0,100
1,57,71,36
1,59,75,0
1,62,76,0
1,53,69,0
1,35,90,0
1,35,0,196
1,35,83,60
1,35,0,84
1,38,82,36
1,38,0,156
1,38,100,92
1,38,0,112
1,31,94,32
1,31,0,268
1,53,0,48
1,59,0,8
1,57,0,8
1,62,0,44
1,36,98,0
1,64,83,248
1,60,90,0
1,57,80,0
1,55,86,0
1,55,0,60
1,36,0,4
1,57,0,8
1,64,0,16
1,60,0,12
1,39,84,24
1,39,0,248
1,55,60,8
1,40,76,0
1,55,0,20
1,40,0,92
1,43,87,16
1,64,78,4
1,60,83,0
1,57,75,4
1,55,80,4
1,43,0,240
1,43,65,12
1,43,0,124
1,39,82,0
1,39,0,260
1,40,68,0
1,64,0,56
1,55,0,12
1,57,0,4
1,60,0,20
1,40,0,12
1,36,98,24
1,64,94,4
1,60,97,0
1,55,90,0
1,57,93,0
1,57,0,252
1,60,0,0
1,55,0,0
1,64,0,40
1,36,0,16
1,36,98,1228
1,72,90,248
1,76,86,0
1,69,80,0
1,79,83,0
1,67,86,0
1,67,0,60
1,36,0,4
1,69,0,8
1,79,0,16
1,76,0,12
1,72,0,0
1,39,84,24
1,39,0,248
1,67,60,8
1,40,76,0
1,67,0,20
1,40,0,92
1,43,87,16
1,72,83,4
1,79,78,0
1,76,78,0
1,69,75,4
1,67,80,4
1,43,0,240
1,43,65,12
1,43,0,124
1,39,82,0
1,39,0,260
1,40,68,0
1,79,0,56
1,67,0,12
1,69,0,4
1,76,0,4
1,72,0,16
1,40,0,12
1,36,87,28
1,36,0,232
1,72,89,12
1,76,81,0
1,79,83,0
1,69,78,0
1,67,81,0
1,67,0,60
1,69,0,8
1,79,0,12
1,76,0,0
1,72,0,4
1,39,87,44
1,39,0,228
1,67,60,28
1,40,69,4
1,67,0,16
1,40,0,64
1,72,79,44
1,76,69,0
1,69,74,0
1,79,67,0
1,67,78,0
1,43,85,8
1,43,0,244
1,43,73,12
1,43,0,124
1,39,95,0
1,39,0,204
1,40,67,56
1,40,0,124
1,36,94,0
1,79,0,16
1,76,0,0
1,67,0,8
1,72,0,16
1,69,0,0
1,72,90,216
1,79,78,0
1,76,79,0
1,69,77,0
1,67,80,0
1,67,0,56
1,76,0,4
1,69,0,0
1,79,0,8
1,36,0,4
1,72,0,4
1,39,91,48
1,39,0,244
1,67,62,16
1,40,67,8
1,67,0,20
1,40,0,100
1,72,80,0
1,79,75,0
1,76,74,0
1,69,76,0
1,67,80,0
1,43,90,12
1,43,0,168
1,43,90,76
1,43,0,124
1,39,87,12
1,39,0,248
1,40,69,8
1,67,0,112
1,76,0,20
1,79,0,0
1,36,83,0
1,40,0,4
1,69,0,4
1,72,0,16
1,72,93,220
1,79,83,0
1,69,83,0
1,76,81,0
1,67,90,0
1,36,0,44
1,79,0,40
1,67,0,0
1,72,0,12
1,69,0,0
1,76,0,0
1,39,85,32
1,39,0,224
1,67,55,32
1,40,67,0
1,67,0,44
1,40,0,76
1,72,88,4
1,79,83,4
1,69,74,0
1,76,80,0
1,67,89,0
1,43,93,0
1,43,0,348
1,44,99,44
1,44,0,200
1,76,0,16
1,79,0,0
1,72,0,12
1,67,0,4
1,69,0,12
1,45,80,12
1,45,0,124
1,41,98,4
1,69,86,248
1,77,89,0
1,74,89,0
1,72,83,0
1,72,0,60
1,74,0,0
1,41,0,4
1,69,0,8
1,77,0,12
1,44,84,40
1,44,0,248
1,45,76,8
1,65,93,4
1,65,0,56
1,45,0,52
1,48,87,16
1,77,90,4
1,74,86,0
1,69,83,0
1,72,81,0
1,48,0,384
1,44,82,0
1,44,0,260
1,45,68,0
1,45,0,104
1,41,98,28
1,69,0,48
1,72,0,0
1,74,0,0
1,77,0,12
1,74,94,184
1,69,83,0
1,72,85,0
1,77,90,0
1,41,0,68
1,77,0,4
1,74,0,12
1,69,0,0
1,72,0,0
1,44,84,44
1,44,0,248
1,45,76,8
1,65,85,12
1,65,0,64
1,45,0,36
1,48,87,16
1,74,91,8
1,72,83,0
1,69,85,4
1,77,89,0
1,48,0,376
1,44,82,0
1,44,0,260
1,45,68,0
1,45,0,104
1,69,0,16
1,74,0,0
1,77,0,0
1,72,0,8
1,41,98,4
1,69,90,248
1,74,94,0
1,72,89,0
1,77,93,0
1,77,0,44
1,72,0,4
1,74,0,4
1,69,0,12
1,41,0,0
1,44,84,60
1,44,0,248
1,45,76,8
1,65,74,12
1,65,0,36
1,45,0,64
1,48,87,16
1,77,96,4
1,69,87,0
1,74,93,0
1,72,86,4
1,48,0,380
1,44,82,0
1,72,0,144
1,74,0,8
1,69,0,0
1,77,0,24
1,44,0,84
1,45,68,0
1,45,0,104
1,36,98,28
1,72,90,248
1,76,86,0
1,69,80,0
1,79,83,0
1,67,86,0
1,67,0,60
1,36,0,4
1,69,0,8
1,79,0,16
1,76,0,12
1,72,0,0
1,39,84,24
1,39,0,248
1,67,60,8
1,40,76,0
1,67,0,20
1,40,0,92
1,43,87,16
1,72,83,4
1,79,78,0
1,76,78,0
1,69,75,4
1,67,80,4
1,43,0,376
1,45,82,0
1,45,0,260
1,43,68,0
1,79,0,56
1,67,0,12
1,69,0,4
1,76,0,4
1,72,0,16
1,43,0,12
1,38,104,28
1,38,0,280
1,62,93,104
1,60,83,0
