track,note,velocity,time
1,80,55,1136
1,84,64,0
1,74,61,0
1,77,70,0
1,80,57,52
1,74,61,0
1,84,61,0
1,77,65,0
1,80,68,40
1,74,68,0
1,84,74,0
1,77,74,0
1,80,84,48
1,77,88,4
1,84,86,0
1,74,79,4
1,80,78,40
1,74,78,0
1,84,86,0
1,77,86,0
1,84,91,52
1,74,87,0
1,77,100,0
1,80,92,4
1,88,84,40
1,77,89,4
1,83,65,0
1,88,72,48
1,83,76,0
1,77,71,0
1,83,95,44
1,77,88,0
1,88,88,0
1,77,88,52
1,83,98,0
1,88,93,0
1,77,94,48
1,83,100,0
1,88,94,0
1,88,82,44
1,83,93,0
1,77,80,0
1,79,91,56
1,84,87,0
1,76,84,0
1,84,74,40
1,79,71,0
1,76,66,0
1,79,78,52
1,76,70,0
1,84,80,4
1,80,90,40
1,84,90,0
1,75,90,0
1,78,88,0
1,75,80,48
1,80,82,0
1,84,89,0
1,78,81,8
1,80,92,44
1,75,92,0
1,78,96,0
1,84,100,0
1,83,98,48
1,74,100,4
1,79,105,0
1,77,113,0
1,64,73,636
1,55,68,0
1,60,75,0
1,64,71,12
1,60,76,0
1,55,68,0
1,64,65,12
1,60,69,0
1,57,67,0
1,64,79,12
1,57,73,0
1,60,76,0
1,65,71,12
1,57,69,0
1,60,70,0
1,65,74,4
1,60,75,0
1,57,73,0
1,62,67,16
1,65,54,0
1,59,64,0
1,55,61,0
1,65,76,8
1,62,86,0
1,55,86,0
1,59,83,0
1,59,69,20
1,64,67,0
1,55,64,0
1,64,71,4
1,55,69,4
1,59,74,0
1,55,70,12
1,58,71,0
1,64,69,0
1,64,76,12
1,58,78,0
1,55,77,0
1,65,70,12
1,57,67,0
1,60,71,0
1,65,77,20
1,57,73,0
1,60,76,0
1,60,64,16
1,65,65,0
1,57,67,0
1,65,83,12
1,60,91,0
1,57,87,4
1,80,76,12
1,84,90,0
1,89,87,0
1,89,69,44
1,80,58,0
1,84,83,0
1,89,69,48
1,80,54,0
1,84,72,0
1,89,77,48
1,80,73,0
1,84,83,0
1,80,69,48
1,89,78,0
1,84,81,0
1,89,80,52
1,80,69,0
1,84,80,0
1,89,76,44
1,86,86,8
1,80,64,0
1,89,69,44
1,86,76,0
1,80,53,0
1,89,71,44
1,80,62,0
1,86,79,0
1,89,74,48
1,86,83,0
1,80,66,0
1,89,83,52
1,80,74,0
1,84,87,4
1,89,76,40
1,80,71,0
1,86,88,8
1,85,71,44
1,81,76,0
1,88,70,0
1,79,65,0
1,81,61,52
1,85,57,0
1,88,49,0
1,79,46,0
1,81,68,40
1,85,61,0
1,79,55,0
1,88,66,0
1,85,87,48
1,88,86,0
1,81,93,0
1,79,86,0
1,88,72,48
1,85,68,0
1,79,66,0
1,81,75,0
1,85,70,48
1,79,65,0
1,88,71,0
1,81,73,0
1,79,62,48
1,85,61,0
1,88,69,0
1,81,73,0
1,85,53,48
1,79,50,0
1,88,58,0
1,81,68,0
1,88,67,48
1,85,59,0
1,79,60,0
1,81,71,0
1,85,85,48
1,88,88,0
1,81,98,0
1,79,88,0
1,85,76,48
1,79,76,0
1,88,79,0
1,81,83,0
1,85,85,48
1,79,81,0
1,88,82,0
1,81,83,0
1,88,68,52
1,78,58,0
1,81,80,0
1,84,84,0
1,78,44,52
1,88,52,0
1,81,70,0
1,84,76,0
1,78,47,40
1,81,71,8
1,88,46,0
1,84,74,0
1,78,62,44
1,88,64,0
1,81,74,0
1,84,76,0
1,78,50,52
1,88,64,0
1,81,69,0
1,84,76,0
1,88,74,40
1,78,59,0
1,81,77,0
1,84,82,0
1,88,75,48
1,78,54,8
1,81,71,0
1,84,77,0
1,88,76,48
1,78,54,0
1,81,71,0
1,84,76,0
1,88,76,40
1,78,58,0
1,81,71,0
1,84,76,0
1,78,64,48
1,81,79,0
1,88,71,0
1,84,77,0
1,88,69,48
1,81,73,0
1,78,53,0
1,84,76,0
1,88,76,48
1,81,76,0
1,78,58,0
1,84,80,0
1,86,76,52
1,81,71,0
1,77,71,0
1,79,61,52
1,76,57,0
1,84,68,0
1,88,83,48
1,79,83,0
1,83,86,0
1,86,71,48
1,81,67,0
1,77,67,0
1,76,52,48
1,79,56,0
1,84,64,0
1,79,87,44
1,83,87,0
1,88,88,0
1,77,64,48
1,86,66,0
1,81,61,0
1,76,54,52
1,79,54,0
1,84,61,0
1,86,76,44
1,77,73,4
1,81,71,0
1,79,88,44
1,83,95,0
1,88,84,0
1,86,69,52
1,81,68,0
1,77,69,0
1,84,62,48
1,79,51,0
1,76,54,0
1,64,73,48
1,55,68,0
1,60,75,0
1,64,71,12
1,60,76,0
1,55,68,0
1,64,65,12
1,60,69,0
1,57,67,0
1,64,79,12
1,57,73,0
1,60,76,0
1,65,71,12
1,57,69,0
1,60,70,0
1,65,74,4
1,60,75,0
1,57,73,0
1,62,67,16
1,65,54,0
1,59,64,0
1,55,61,0
1,65,76,8
1,62,86,0
1,55,86,0
1,59,83,0
1,59,69,20
1,64,67,0
1,55,64,0
1,64,71,4
1,55,69,4
1,59,74,0
1,55,70,12
1,58,71,0
1,64,69,0
1,64,76,12
1,58,78,0
1,55,77,0
1,65,70,12
1,57,67,0
1,60,71,0
1,65,77,20
1,57,73,0
1,60,76,0
1,60,64,16
1,65,65,0
1,57,67,0
1,65,83,12
1,60,91,0
1,57,87,4
1,80,76,12
1,84,90,0
1,89,87,0
1,89,69,44
1,80,58,0
1,84,83,0
1,89,69,48
1,80,54,0
1,84,72,0
1,89,77,48
1,80,73,0
1,84,83,0
1,80,69,48
1,89,78,0
1,84,81,0
1,89,80,52
1,80,69,0
1,84,80,0
1,89,76,44
1,86,86,8
1,80,64,0
1,89,69,44
1,86,76,0
1,80,53,0
1,89,71,44
1,80,62,0
1,86,79,0
1,89,74,48
1,86,83,0
1,80,66,0
1,89,83,52
1,80,74,0
1,84,87,4
1,89,76,40
1,80,71,0
1,86,88,8
1,85,71,44
1,81,76,0
1,88,70,0
1,79,65,0
1,81,61,52
1,85,57,0
1,88,49,0
1,79,46,0
1,81,68,40
1,85,61,0
1,79,55,0
1,88,66,0
1,85,87,48
1,88,86,0
1,81,93,0
1,79,86,0
1,88,72,48
1,85,68,0
1,79,66,0
1,81,75,0
1,85,70,48
1,79,65,0
1,88,71,0
1,81,73,0
1,79,62,48
1,85,61,0
1,88,69,0
1,81,73,0
1,85,53,48
1,79,50,0
1,88,58,0
1,81,68,0
1,88,67,48
1,85,59,0
1,79,60,0
1,81,71,0
1,85,85,48
1,88,88,0
1,81,98,0
1,79,88,0
1,85,76,48
1,79,76,0
1,88,79,0
1,81,83,0
1,85,85,48
1,79,81,0
1,88,82,0
1,81,83,0
1,88,76,52
1,78,57,0
1,81,73,0
1,84,77,0
1,88,43,44
1,81,59,0
1,78,35,0
1,84,73,8
1,78,50,40
1,81,67,0
1,84,71,4
1,88,34,0
1,88,83,44
1,78,74,0
1,84,86,0
1,81,83,0
1,88,80,56
1,78,70,0
1,81,76,0
1,84,78,0
1,78,53,44
1,88,61,4
1,81,71,0
1,84,76,0
1,83,70,40
1,77,64,0
1,81,71,0
1,86,63,4
1,83,61,52
1,77,57,0
1,81,59,0
1,86,42,0
1,86,83,40
1,77,78,4
1,83,83,0
1,81,78,4
1,77,81,48
1,83,81,0
1,86,81,0
1,81,81,0
1,83,81,44
1,77,77,0
1,86,82,4
1,81,76,0
1,83,83,44
1,86,81,4
1,77,76,0
1,81,78,0
1,84,73,48
1,81,73,0
1,79,73,0
1,76,73,0
1,74,62,132
1,73,62,48
1,74,82,16
1,77,83,0
1,76,68,64
1,72,74,0
1,67,71,0
1,72,68,48
1,64,61,0
1,67,67,0
1,76,84,240
1,67,84,8
1,72,82,0
1,58,56,304
1,55,62,0
1,62,70,0
1,58,67,80
1,62,67,0
1,55,67,0
1,62,87,64
1,58,90,0
1,55,82,0
1,58,64,68
1,62,69,0
1,55,62,0
1,60,64,56
1,55,62,0
1,64,58,0
1,55,48,76
1,60,48,0
1,64,35,8
1,64,86,80
1,55,77,0
1,60,89,0
1,60,72,72
1,64,68,0
1,55,62,0
1,57,69,60
1,41,71,4
1,53,63,4
1,60,69,0
1,60,65,28
1,57,67,0
1,53,60,0
1,41,67,4
1,48,63,4
1,58,88,32
1,53,86,0
1,62,98,0
1,50,94,0
1,41,82,8
1,62,76,40
1,58,64,0
1,53,69,0
1,50,83,0
1,41,65,8
1,53,61,12
1,57,69,0
1,60,69,0
1,41,82,0
1,48,65,0
1,62,74,28
1,58,65,0
1,50,95,0
1,53,61,4
1,41,63,0
1,57,98,16
1,53,86,0
1,41,83,0
1,45,83,8
1,41,71,32
1,57,84,8
1,53,71,0
1,58,56,72
1,55,62,0
1,62,70,0
1,58,67,80
1,62,67,0
1,55,67,0
1,62,87,64
1,58,90,0
1,55,82,0
1,58,64,68
1,62,69,0
1,55,62,0
1,60,64,56
1,55,62,0
1,64,58,0
1,55,48,76
1,60,48,0
1,64,35,8
1,64,86,80
1,55,77,0
1,60,89,0
1,60,72,72
1,64,68,0
1,55,62,0
1,57,69,60
1,53,63,8
1,60,69,0
1,41,61,0
1,60,65,64
1,57,67,0
1,53,60,0
1,41,50,0
1,48,63,8
1,58,88,32
1,53,86,0
1,62,98,0
1,50,94,0
1,41,82,4
1,41,59,40
1,62,76,0
1,58,64,0
1,53,69,0
1,50,83,0
1,53,61,12
1,57,69,0
1,60,69,0
1,41,54,0
1,48,65,0
1,41,53,36
1,62,74,0
1,58,65,0
1,50,95,0
1,53,61,4
1,57,98,16
1,53,86,0
1,41,84,0
1,45,83,8
1,41,64,40
1,57,84,8
1,53,71,0
1,57,67,72
1,52,58,0
1,60,60,0
1,45,62,0
1,52,56,72
1,57,67,0
1,45,58,0
1,60,62,0
1,57,88,72
1,60,80,0
1,52,76,0
1,45,78,0
1,57,81,72
1,45,71,0
1,52,73,0
1,60,76,0
1,57,73,44
1,54,63,8
1,60,68,0
1,38,73,0
1,54,50,64
1,60,60,0
1,57,68,0
1,38,64,4
1,54,80,56
1,60,86,0
1,57,90,0
1,38,83,0
1,54,64,72
1,60,71,0
1,38,75,0
1,57,81,0
1,43,60,44
1,50,71,0
1,55,73,0
1,59,61,4
1,55,71,56
1,43,65,4
1,50,71,0
1,59,71,0
1,55,90,60
1,52,90,0
1,59,80,0
1,43,76,4
1,55,73,68
1,52,70,4
1,43,69,0
1,59,64,0
1,59,61,44
1,55,69,0
1,50,62,4
1,43,57,4
1,55,68,64
1,43,68,0
1,50,68,0
1,59,69,0
1,55,91,52
1,59,78,4
1,52,93,0
1,43,76,0
1,55,83,56
1,52,80,0
1,59,76,0
1,43,71,0
1,45,60,60
1,60,45,0
1,52,52,0
1,57,54,4
1,57,66,76
1,52,59,0
1,60,62,0
1,45,68,0
1,57,97,52
1,52,87,0
1,60,84,0
1,45,83,0
1,45,74,68
1,52,80,0
1,57,91,0
1,60,79,0
1,57,78,48
1,54,68,0
1,38,82,0
1,60,70,0
1,45,61,8
1,54,75,68
1,45,77,0
1,57,84,0
1,60,75,0
1,38,79,0
1,54,96,40
1,47,90,0
1,57,105,0
1,60,95,0
1,38,94,0
1,38,88,20
1,54,80,0
1,57,89,0
1,60,83,0
1,45,74,0
1,83,83,32
1,86,80,0
1,77,83,0
1,83,61,68
1,77,57,0
1,86,60,0
1,83,78,96
1,86,78,0
1,77,63,0
1,83,98,76
1,86,94,0
1,77,89,0
1,83,94,60
1,77,82,0
1,86,94,0
1,83,73,76
1,86,74,0
1,77,67,0
1,83,76,88
1,91,69,0
1,77,69,0
1,88,68,8
1,91,58,64
1,88,68,0
1,83,69,0
1,77,57,0
1,88,76,84
1,83,84,0
1,77,80,0
1,91,70,4
1,88,100,88
1,83,113,0
1,91,90,0
1,77,109,0
1,88,95,60
1,77,91,0
1,91,95,0
1,83,103,0
1,88,86,64
1,77,83,0
1,91,83,4
1,83,94,0
1,91,97,72
1,64,73,4
1,55,68,0
1,60,75,0
1,64,71,12
1,60,76,0
1,55,68,0
1,64,65,12
1,60,69,0
1,57,67,0
1,64,79,12
1,57,73,0
1,60,76,0
1,65,71,12
1,57,69,0
1,60,70,0
1,65,74,4
1,60,75,0
1,57,73,0
1,62,67,16
1,65,54,0
1,59,64,0
1,55,61,0
1,65,76,8
1,62,86,0
1,55,86,0
1,59,83,0
1,59,69,20
1,64,67,0
1,55,64,0
1,64,71,4
1,55,69,4
1,59,74,0
1,55,70,12
1,58,71,0
1,64,69,0
1,64,76,12
1,58,78,0
1,55,77,0
1,65,70,12
1,57,67,0
1,60,71,0
1,65,77,20
1,57,73,0
1,60,76,0
1,60,64,16
1,65,65,0
1,57,67,0
1,65,83,12
1,60,91,0
1,57,87,4
1,80,76,12
1,84,90,0
1,89,87,0
1,89,69,44
1,80,58,0
1,84,83,0
1,89,69,48
1,80,54,0
1,84,72,0
1,89,77,48
1,80,73,0
1,84,83,0
1,80,69,48
1,89,78,0
1,84,81,0
1,89,80,52
1,80,69,0
1,84,80,0
1,89,76,44
1,86,86,8
1,80,64,0
1,89,69,44
1,86,76,0
1,80,53,0
1,89,71,44
1,80,62,0
1,86,79,0
1,89,74,48
1,86,83,0
1,80,66,0
1,89,83,52
1,80,74,0
1,84,87,4
1,89,76,40
1,80,71,0
1,86,88,8
1,85,71,44
1,81,76,0
1,88,70,0
1,79,65,0
1,81,61,52
1,85,57,0
1,88,49,0
1,79,46,0
1,81,68,40
1,85,61,0
1,79,55,0
1,88,66,0
1,85,87,48
1,88,86,0
1,81,93,0
1,79,86,0
1,88,72,48
1,85,68,0
1,79,66,0
1,81,75,0
1,85,70,48
1,79,65,0
1,88,71,0
1,81,73,0
1,79,62,48
1,85,61,0
1,88,69,0
1,81,73,0
1,85,53,48
1,79,50,0
1,88,58,0
1,81,68,0
1,88,67,48
1,85,59,0
1,79,60,0
1,81,71,0
1,85,85,48
1,88,88,0
1,81,98,0
1,79,88,0
1,85,76,48
1,79,76,0
1,88,79,0
1,81,83,0
1,85,85,48
1,79,81,0
1,88,82,0
1,81,83,0
1,88,76,52
1,78,57,0
1,81,73,0
1,84,77,0
1,88,43,44
1,81,59,0
1,78,35,0
1,84,73,8
1,78,50,40
1,81,67,0
1,84,71,4
1,88,34,0
1,88,83,44
1,78,74,0
1,84,86,0
1,81,83,0
1,88,80,56
1,78,70,0
1,81,76,0
1,84,78,0
1,78,53,44
1,88,61,4
1,81,71,0
1,84,76,0
1,83,70,40
1,77,64,0
1,81,71,0
1,86,63,4
1,83,61,52
1,77,57,0
1,81,59,0
1,86,42,0
1,86,83,40
1,77,78,4
1,83,83,0
1,81,78,4
1,77,81,48
1,83,81,0
1,86,81,0
1,81,81,0
1,83,81,44
1,77,77,0
1,86,82,4
1,81,76,0
1,83,83,44
1,86,81,4
1,77,76,0
1,81,78,0
1,84,73,48
1,81,73,0
1,79,73,0
1,76,73,0
1,74,62,132
1,73,62,48
1,74,82,16
1,77,83,0
1,76,68,64
1,72,74,0
1,67,71,0
1,72,68,48
1,64,61,0
1,67,67,0
1,91,68,136
1,84,56,0
1,88,98,68
1,91,103,0
1,84,88,0
1,94,102,0
1,96,84,64
1,93,100,8
1,88,93,4
1,84,88,4
1,86,87,44
1,94,100,0
1,89,107,0
1,86,63,44
1,98,74,0
1,89,87,84
1,101,81,0
1,91,95,80
1,94,110,4
1,103,83,4
1,94,61,12
1,103,36,4
1,98,105,88
1,103,109,4
1,94,107,4
1,94,82,56
1,91,94,76
1,84,64,40
1,88,100,72
1,91,90,56
1,96,114,84
1,92,88,44
1,93,93,8
1,98,98,40
1,92,78,44
1,93,68,12
1,96,71,40
1,96,101,64
1,92,100,56
1,93,91,0
1,89,90,28
1,86,78,64
1,89,86,72
1,81,84,4
1,93,80,8
1,96,80,88
1,89,76,8
1,94,92,80
1,91,89,0
1,86,65,0
1,94,107,72
1,98,107,0
1,94,84,40
1,91,76,0
1,91,75,20
1,86,83,8
1,88,94,44
