track,note,velocity,time
1,36,125,3072
1,36,119,268
1,36,125,370
1,36,127,378
1,36,117,370
1,36,125,88
1,36,126,268
1,36,121,368
1,36,118,370
1,36,123,376
1,36,124,76
1,36,119,266
1,36,123,374
1,36,124,370
1,36,119,364
1,36,123,84
1,36,121,268
1,36,126,370
1,36,125,368
1,36,120,366
1,36,120,86
1,36,119,272
1,36,123,382
1,36,119,368
1,36,120,376
1,36,123,80
1,36,124,266
1,36,124,366
1,36,122,370
1,36,117,368
1,36,126,82
1,36,124,270
1,36,121,368
1,36,117,366
1,36,127,372
1,36,126,78
1,36,126,270
1,36,124,364
1,36,123,378
1,36,122,370
1,36,123,78
1,36,126,276
1,36,120,376
1,36,127,372
1,36,124,372
1,36,124,88
1,36,127,264
1,36,124,376
1,36,126,376
1,36,117,370
1,36,120,86
1,36,121,274
1,36,125,374
1,36,123,372
1,36,124,372
1,36,120,88
1,36,120,1514
1,36,117,264
1,36,124,368
1,36,116,366
1,36,124,370
1,36,127,76
1,36,126,274
1,36,127,376
1,36,127,370
1,36,115,374
1,36,118,88
1,36,126,278
1,36,124,370
1,36,127,364
1,36,124,370
1,36,127,84
1,36,122,274
1,36,116,366
1,36,125,364
1,36,124,378
1,36,124,86
1,36,127,270
1,36,121,370
1,36,124,368
1,36,125,376
1,36,126,82
1,36,115,270
1,36,125,368
1,36,118,380
1,36,119,374
1,36,123,82
1,36,126,274
1,36,121,366
1,36,121,346
1,36,125,408
1,36,124,82
1,36,124,274
1,36,119,374
1,36,126,370
1,36,127,374
1,36,120,84
1,36,117,266
1,36,124,372
1,36,124,378
1,36,118,370
1,36,126,88
1,36,125,272
1,36,126,368
1,36,126,376
1,36,124,370
1,36,124,80
1,36,123,274
1,36,33,366
1,36,126,2
1,36,126,376
1,36,127,86
1,36,123,274
1,36,121,366
1,36,126,372
1,36,126,374
1,36,127,88
1,36,120,272
1,36,122,366
1,36,123,374
1,36,125,370
1,36,124,80
1,36,117,274
1,36,127,376
1,36,123,366
1,36,124,370
1,36,118,80
1,36,118,268
1,36,118,370
1,36,124,376
1,36,120,378
1,36,123,78
1,36,126,268
1,36,125,378
1,36,120,364
1,36,127,378
1,36,125,88
1,36,125,272
1,36,115,374
1,36,123,364
1,36,123,374
1,36,123,82
1,36,122,268
1,36,126,378
1,36,127,382
1,36,116,374
1,36,123,76
1,36,124,268
1,36,118,372
1,36,125,366
1,36,125,376
1,36,122,78
1,36,123,266
1,36,125,372
1,36,124,374
1,36,126,370
1,36,127,82
1,36,123,268
1,36,115,366
1,36,126,372
1,36,127,370
1,36,122,90
1,36,124,266
1,36,124,370
1,36,118,378
1,36,119,370
1,36,124,92
1,36,118,272
1,36,123,364
1,36,124,372
1,36,120,378
1,36,127,90
1,36,124,1508
1,36,126,266
1,36,123,364
1,36,122,368
1,36,116,364
1,36,125,88
1,36,122,276
1,36,116,370
1,36,122,366
1,36,118,374
1,36,122,88
1,36,121,274
1,36,125,368
1,36,127,368
1,36,119,364
1,36,127,84
1,36,125,266
1,36,123,376
1,36,126,368
1,36,126,368
1,36,124,82
1,36,119,274
1,36,123,366
1,36,126,374
1,36,116,370
1,36,124,76
1,36,123,270
1,36,117,376
1,36,123,376
1,36,119,372
1,36,124,80
1,36,127,266
1,36,118,368
1,36,126,340
1,36,123,406
1,36,123,82
1,36,122,276
1,36,121,368
1,36,118,370
1,36,121,364
1,36,123,82
1,36,123,272
1,36,123,378
1,36,126,370
1,36,127,364
1,36,118,86
1,36,124,270
1,36,126,372
1,36,121,374
1,36,119,374
1,36,123,88
1,36,125,268
1,36,118,382
1,36,126,374
1,36,118,368
1,36,121,80
1,36,122,268
1,36,122,366
1,36,126,370
1,36,123,370
1,36,123,94
1,36,125,276
1,36,118,370
1,36,124,380
1,36,125,368
1,36,120,82
1,36,127,272
1,36,117,374
1,36,121,378
1,36,124,370
1,36,120,80
1,36,124,3054
1,36,123,268
1,36,121,366
1,36,123,376
1,36,126,368
1,36,123,82
1,36,125,270
1,36,121,370
1,36,126,368
1,36,124,368
1,36,126,86
1,36,124,272
1,36,119,370
1,36,127,360
1,36,122,372
1,36,116,76
1,36,124,270
1,36,127,368
1,36,119,374
1,36,33,374
1,36,117,2
1,36,126,270
1,36,122,370
1,36,127,374
1,36,127,374
1,36,127,86
1,36,122,270
1,36,123,366
1,36,126,374
1,36,123,364
1,36,126,82
1,36,124,270
1,36,124,376
1,36,119,334
1,36,123,396
1,36,123,80
1,36,122,262
1,36,122,368
1,36,126,376
1,36,127,372
1,36,123,74
1,36,125,268
1,36,117,368
1,36,125,374
1,36,122,370
1,36,127,78
1,36,124,272
1,36,123,376
1,36,122,374
1,36,126,360
1,36,124,86
1,36,126,278
1,36,122,370
1,36,123,364
1,36,127,372
1,36,127,80
1,36,123,270
1,36,117,374
1,36,123,370
1,36,124,372
1,36,117,76
1,36,123,282
1,36,117,372
1,36,125,364
1,36,118,370
1,36,121,86
1,36,121,272
1,36,127,370
1,36,122,370
1,36,121,370
1,36,118,84
1,36,124,370
1,36,127,362
1,36,122,364
1,36,126,360
1,36,125,652
2,38,127,3456
2,38,119,758
2,38,119,754
2,38,111,756
2,38,123,758
2,38,123,756
2,38,126,756
2,38,124,758
2,38,126,750
2,38,114,754
2,38,115,754
2,38,126,756
2,38,125,754
2,38,119,758
2,38,125,758
2,38,126,758
2,38,115,750
2,38,112,748
2,38,126,756
2,38,124,756
2,38,120,752
2,38,127,752
2,38,73,268
2,38,83,26
2,38,115,52
2,38,72,1032
2,38,124,74
2,38,124,274
2,38,127,476
2,38,125,750
2,38,114,752
2,38,122,756
2,38,127,758
2,38,118,754
2,38,127,758
2,38,123,752
2,38,118,758
2,38,117,754
2,38,125,752
2,38,123,748
2,38,123,736
2,38,117,750
2,38,116,750
2,38,95,656
2,38,124,88
2,38,127,270
2,38,107,468
2,38,113,752
2,38,110,754
2,38,119,748
2,38,121,748
2,38,116,750
2,38,117,752
2,38,108,754
2,38,121,748
2,38,115,750
2,38,110,748
2,38,108,752
2,38,115,744
2,38,123,752
2,38,76,656
2,38,124,88
2,38,80,272
2,38,122,78
2,38,82,272
2,38,121,88
2,38,124,270
2,38,116,472
2,38,108,748
2,38,117,748
2,38,122,750
2,38,123,754
2,38,116,752
2,38,106,754
2,38,121,748
2,38,114,750
2,38,116,748
2,38,126,750
2,38,120,752
2,38,124,748
2,38,121,750
2,38,83,262
2,38,89,26
2,38,125,54
2,38,85,1034
2,38,112,80
2,38,120,272
2,38,124,458
2,38,114,748
2,38,121,754
2,38,126,752
2,38,113,748
2,38,124,752
2,38,123,750
2,38,116,750
2,38,127,750
2,38,113,750
2,38,124,750
2,38,119,750
2,38,116,748
2,38,118,752
2,38,121,750
2,38,96,664
2,38,113,80
2,38,112,266
2,38,125,466
2,38,117,744
2,38,121,748
2,38,107,748
2,38,115,756
2,38,124,748
2,38,124,750
2,38,122,748
2,38,121,762
2,38,124,748
2,38,126,764
2,38,106,764
2,38,118,372
2,38,73,1812
2,38,110,84
2,38,72,274
2,38,123,76
2,38,80,110
2,38,77,116
2,38,87,112
2,38,123,110
2,38,127,112
2,38,108,502
2,38,125,748
2,38,111,744
2,38,106,748
2,38,121,744
2,38,121,750
2,38,123,752
2,38,107,744
2,38,123,748
2,38,111,754
2,38,117,754
2,38,123,756
2,38,125,750
2,38,106,754
2,38,123,766
2,38,80,664
2,38,124,88
2,38,109,274
2,38,117,464
2,38,110,754
2,38,124,758
2,38,125,750
2,38,112,758
2,38,123,758
2,38,110,750
2,38,114,746
2,38,113,750
2,38,121,752
2,38,124,746
2,38,110,756
2,38,81,368
2,38,88,112
2,38,127,112
2,38,109,106
2,38,123,106
2,38,123,116
2,38,97,106
2,38,85,110
2,38,114,112
2,38,121,108
2,38,124,104
2,38,110,116
2,38,117,114
2,38,123,364
2,38,120,266
3,49,124,21504
3,49,124,12264
3,49,126,24556
3,49,124,12272
3,49,126,12282
3,49,125,12274
3,49,124,10738
3,49,123,658
4,42,115,3072
4,42,65,284
4,42,119,78
4,42,60,266
4,42,78,94
4,42,81,256
4,42,107,88
4,42,76,262
4,42,122,86
4,42,70,274
4,42,110,92
4,42,65,280
4,42,92,80
4,42,91,260
4,42,113,84
4,42,91,274
4,42,117,76
4,42,90,276
4,42,121,92
4,42,79,268
4,42,99,90
4,42,66,280
4,42,89,74
4,42,87,276
4,42,111,90
4,42,99,270
4,42,94,90
4,42,89,272
4,42,113,82
4,42,93,272
4,42,75,90
4,42,65,278
4,42,119,92
4,42,59,260
4,42,110,90
4,42,90,258
4,42,90,62
4,42,52,282
4,42,95,92
4,42,77,284
4,42,96,80
4,42,65,272
4,42,74,80
4,42,86,276
4,42,81,74
4,42,61,284
4,42,75,86
4,42,88,280
4,42,91,74
4,42,89,260
4,42,122,74
4,42,68,268
4,42,100,92
4,42,54,286
4,42,90,74
4,42,91,268
4,42,121,92
4,42,96,286
4,42,125,78
4,42,76,272
4,42,125,92
4,42,92,266
4,42,103,90
4,42,90,278
4,42,87,92
4,42,84,284
4,42,97,94
4,42,98,280
4,42,98,72
4,42,92,282
4,42,79,66
4,42,90,280
4,42,91,92
4,42,100,262
4,42,119,80
4,42,99,266
4,42,121,68
4,42,97,278
4,42,91,92
4,42,69,280
4,42,51,358
4,42,96,80
4,42,61,280
4,42,97,68
4,42,97,268
4,42,126,74
4,42,92,270
4,42,99,92
4,42,100,358
4,42,90,364
4,42,100,354
4,42,111,378
4,42,46,260
4,42,107,92
4,42,73,270
4,42,98,80
4,42,50,258
4,42,95,90
4,42,98,284
4,42,91,62
4,42,86,268
4,42,121,92
4,42,92,258
4,42,87,70
4,42,60,282
4,42,113,76
4,42,97,256
4,42,125,92
4,42,71,270
4,42,106,76
4,42,90,282
4,42,100,76
4,42,72,280
4,42,97,86
4,42,61,260
4,42,90,90
4,42,57,258
4,42,119,82
4,42,69,260
4,42,113,74
4,42,61,284
4,42,99,90
4,42,85,278
4,42,112,72
4,42,63,278
4,42,109,90
4,42,88,258
4,42,86,74
4,42,79,272
4,42,94,74
4,42,98,268
4,42,106,70
4,42,57,262
4,42,96,90
4,42,96,276
4,42,119,92
4,42,97,274
4,42,86,78
4,42,95,258
4,42,114,88
4,42,59,280
4,42,119,70
4,42,57,276
4,42,101,74
4,42,56,252
4,42,92,100
4,42,93,266
4,42,100,66
4,42,66,270
4,42,91,78
4,42,54,276
4,42,81,88
4,42,95,286
4,42,127,92
4,42,56,258
4,42,112,78
4,42,76,282
4,42,83,92
4,42,64,278
4,42,104,92
4,42,83,268
4,42,95,86
4,42,64,284
4,42,104,80
4,42,49,280
4,42,81,70
4,42,81,276
4,42,111,76
4,42,87,284
4,42,121,82
4,42,62,276
4,42,82,72
4,42,76,266
4,42,117,74
4,42,76,280
4,42,108,76
4,42,55,274
4,42,92,94
4,42,95,262
4,42,84,78
4,42,55,274
4,42,113,90
4,42,94,278
4,42,118,92
4,42,46,274
4,42,77,92
4,42,57,284
4,42,105,74
4,42,86,260
4,42,121,68
4,42,79,274
4,42,89,82
4,42,79,260
4,42,94,88
4,42,92,266
4,42,123,74
4,42,63,264
4,42,91,78
4,42,83,280
4,42,101,72
4,42,70,270
4,42,116,92
4,42,94,274
4,42,119,94
4,42,63,270
4,42,101,74
4,42,98,264
4,42,120,80
4,42,69,272
4,42,106,70
4,42,53,282
4,42,118,78
4,42,66,264
4,42,114,92
4,42,68,270
4,42,112,92
4,42,81,266
4,42,104,92
4,42,60,280
4,42,88,92
4,42,86,266
4,42,109,94
4,42,72,270
4,42,108,70
4,42,57,284
4,42,79,92
4,42,91,264
4,42,108,74
4,42,87,266
4,42,112,84
4,42,67,276
4,42,92,90
4,42,62,258
4,42,83,88
4,42,91,274
4,42,113,70
4,42,78,264
4,42,116,80
4,42,95,274
4,42,85,74
4,42,69,256
4,42,91,94
4,42,60,262
4,42,99,76
4,42,87,270
4,42,80,92
4,42,73,284
4,42,105,92
4,42,88,272
4,42,113,78
4,42,56,266
4,42,101,84
4,42,97,262
4,42,104,70
4,42,59,278
4,42,93,60
4,42,46,272
4,42,84,90
4,42,52,270
4,42,111,82
4,42,84,274
4,42,97,78
4,42,80,284
4,42,119,94
4,42,97,274
4,42,114,92
4,42,89,256
4,42,77,382
4,42,111,76
4,42,53,268
4,42,114,74
4,42,61,280
4,42,110,84
4,42,87,264
4,42,91,94
4,42,101,360
4,42,95,356
4,42,121,368
4,42,84,380
4,42,92,266
4,42,119,82
4,42,73,280
4,42,115,74
4,42,80,264
4,42,104,74
4,42,76,252
4,42,86,92
4,42,94,266
4,42,105,70
4,42,81,258
4,42,78,80
4,42,98,250
4,42,89,88
4,42,91,276
4,42,99,88
4,42,79,254
4,42,111,86
4,42,89,268
4,42,92,78
4,42,59,270
4,42,79,82
4,42,51,282
4,42,120,80
4,42,85,274
4,42,104,70
4,42,82,280
4,42,82,88
4,42,89,278
4,42,77,72
4,42,75,268
4,42,99,92
4,42,61,276
4,42,91,70
4,42,96,256
4,42,77,80
4,42,92,270
4,42,102,86
4,42,61,260
4,42,118,80
4,42,45,270
4,42,84,78
4,42,99,258
4,42,94,78
4,42,85,270
4,42,123,74
4,42,62,260
4,42,115,86
4,42,54,268
4,42,120,72
4,42,64,266
4,42,121,92
4,42,69,246
4,42,80,126
4,42,97,260
4,42,121,86
4,42,73,284
4,42,76,72
4,42,53,284
4,42,85,86
4,42,94,266
4,42,119,82
4,42,96,274
4,42,85,74
4,42,57,280
4,42,87,92
4,42,54,266
4,42,92,92
4,42,52,280
4,42,111,72
4,42,53,272
4,42,113,70
4,42,101,260
4,42,113,94
4,42,84,278
4,42,105,84
4,42,89,286
4,42,76,90
4,42,72,280
4,42,105,92
4,42,59,278
4,42,86,86
4,42,98,272
4,42,102,92
4,42,92,270
4,42,79,92
4,42,78,282
4,42,122,74
4,42,72,276
4,42,89,74
4,42,90,272
4,42,110,92
4,42,72,280
4,42,118,70
4,42,48,272
4,42,115,88
4,42,71,272
4,42,79,90
4,42,84,252
4,42,95,84
4,42,61,282
4,42,103,76
4,42,50,278
4,42,105,70
4,42,73,282
4,42,98,82
4,42,88,276
4,42,91,72
4,42,92,272
4,42,99,74
4,42,99,260
4,42,127,74
4,42,99,362
4,42,123,380
4,42,110,372
4,42,121,378
4,42,102,374
4,42,78,1120
4,42,80,268
4,42,75,80
4,42,69,266
4,42,122,94
4,42,68,270
4,42,117,82
4,42,60,274
4,42,90,92
4,42,56,266
4,42,95,76
4,42,64,276
4,42,105,86
4,42,60,256
4,42,86,78
4,42,52,266
4,42,94,72
4,42,71,264
4,42,105,62
4,42,90,278
4,42,98,66
4,42,76,284
4,42,82,80
4,42,94,282
4,42,78,86
4,42,53,278
4,42,94,92
4,42,81,282
4,42,85,78
4,42,95,280
4,42,124,74
4,42,90,266
4,42,125,70
4,42,99,268
4,42,105,86
4,42,94,268
4,42,122,88
4,42,49,256
4,42,123,76
4,42,83,270
4,42,122,92
4,42,83,270
4,42,92,84
4,42,62,262
4,42,109,84
4,42,48,256
4,42,111,90
4,42,92,266
4,42,108,82
4,42,48,262
4,42,107,94
4,42,65,272
4,42,110,90
4,42,68,228
4,42,84,106
4,42,85,268
4,42,118,70
4,42,56,266
4,42,82,90
4,42,50,278
4,42,113,92
4,42,54,270
4,42,105,74
4,42,98,256
4,42,120,70
4,42,62,268
4,42,87,74
4,42,76,276
4,42,79,88
4,42,53,256
4,42,81,70
4,42,53,272
4,42,103,84
4,42,51,284
4,42,125,78
4,42,86,276
4,42,81,78
4,42,84,256
4,42,100,72
4,42,91,260
4,42,93,68
4,42,99,274
4,42,87,82
4,42,58,268
4,42,116,78
4,42,97,278
4,42,84,82
4,42,46,260
4,42,91,82
4,42,76,284
4,42,97,92
4,42,97,276
4,42,85,92
4,42,97,272
4,42,117,88
4,42,52,276
4,42,91,92
4,42,65,284
4,42,84,80
4,42,53,280
4,42,116,92
4,42,72,280
4,42,88,88
4,42,88,278
4,42,94,82
