track,note,velocity,time
1,36,70,10752
1,36,0,11
1,36,96,373
1,36,0,4
1,36,72,380
1,36,0,6
1,36,99,378
1,36,0,4
1,36,70,380
1,36,0,9
1,36,99,375
1,36,0,4
1,36,69,380
1,36,0,4
1,36,94,380
1,36,0,8
1,36,71,376
1,36,0,8
1,36,97,376
1,36,0,5
1,36,71,379
1,36,0,9
1,36,95,375
1,36,0,6
1,36,67,3450
1,36,0,6
1,36,96,378
1,36,0,7
1,36,70,377
1,36,0,6
1,36,98,378
1,36,0,3
1,36,79,381
1,36,0,4
1,36,74,764
1,36,0,11
1,36,79,757
1,36,0,8
1,36,75,760
1,36,0,6
1,36,69,762
1,36,0,8
1,36,96,376
1,36,0,8
1,36,71,376
1,36,0,7
1,36,95,377
1,36,0,6
1,36,74,378
1,36,0,8
1,36,77,760
1,36,0,8
1,36,68,760
1,36,0,9
1,36,98,375
1,36,0,5
1,36,70,379
1,36,0,11
1,36,99,373
1,36,0,8
1,36,67,376
1,36,0,8
1,36,98,376
1,36,0,8
1,36,71,2680
1,36,0,6
1,36,98,378
1,36,0,4
1,36,69,380
1,36,0,10
1,36,96,374
1,36,0,8
1,36,76,376
1,36,0,7
1,36,77,761
1,36,0,4
1,36,79,764
1,36,0,6
1,36,78,762
1,36,0,9
1,36,72,759
1,36,0,6
1,36,96,378
1,36,0,5
1,36,67,379
1,36,0,8
2,38,20,3072
2,38,0,9
2,38,27,87
2,38,0,5
2,38,34,91
2,38,0,5
2,38,39,91
2,38,0,8
2,38,39,88
2,38,0,5
2,38,54,91
2,38,0,5
2,38,41,91
2,38,0,8
2,38,51,88
2,38,0,5
2,38,55,91
2,38,0,6
2,38,43,90
2,38,0,3
2,38,43,93
2,38,0,8
2,38,46,88
2,38,0,10
2,38,45,86
2,38,0,8
2,38,54,88
2,38,0,4
2,38,53,92
2,38,0,6
2,38,47,90
2,38,0,12
2,38,58,84
2,38,0,4
2,38,20,3068
2,38,0,9
2,38,31,87
2,38,0,4
2,38,35,92
2,38,0,7
2,38,43,89
2,38,0,8
2,38,43,88
2,38,0,10
2,38,56,86
2,38,0,8
2,38,42,88
2,38,0,8
2,38,46,88
2,38,0,4
2,38,54,92
2,38,0,9
2,38,45,87
2,38,0,4
2,38,43,92
2,38,0,4
2,38,46,92
2,38,0,8
2,38,47,88
2,38,0,6
2,38,58,90
2,38,0,4
2,38,50,92
2,38,0,8
2,38,42,88
2,38,0,8
2,38,60,88
2,38,0,8
2,38,77,1720
2,38,0,7
2,38,90,377
2,38,0,5
2,38,76,379
2,38,0,8
2,38,85,376
2,38,0,5
2,38,77,379
2,38,0,7
2,38,89,377
2,38,0,4
2,38,80,380
2,38,0,5
2,38,89,379
2,38,0,9
2,38,79,375
2,38,0,7
2,38,88,377
2,38,0,8
2,38,78,376
2,38,0,3
2,38,85,381
2,38,0,9
2,38,81,3447
2,38,0,6
2,38,88,378
2,38,0,5
2,38,90,379
2,38,0,7
2,38,81,377
2,38,0,6
2,38,77,90
2,38,0,6
2,38,77,26
2,38,0,10
2,38,88,22
2,38,0,8
2,38,98,24
2,38,0,6
2,38,60,666
2,38,0,7
2,38,76,25
2,38,0,7
2,38,95,25
2,38,0,7
2,38,106,25
2,38,0,4
2,38,94,956
2,38,0,9
2,38,97,759
2,38,0,5
2,38,77,763
2,38,0,5
2,38,89,379
2,38,0,7
2,38,86,377
2,38,0,8
2,38,76,376
2,38,0,9
2,38,78,87
2,38,0,8
2,38,78,24
2,38,0,10
2,38,89,22
2,38,0,7
2,38,96,25
2,38,0,6
2,38,59,666
2,38,0,8
2,38,81,24
2,38,0,6
2,38,96,26
2,38,0,5
2,38,106,27
2,38,0,4
2,38,79,956
2,38,0,9
2,38,86,375
2,38,0,4
2,38,76,380
2,38,0,6
2,38,86,378
2,38,0,4
2,38,78,380
2,38,0,6
2,38,90,378
2,38,0,7
2,38,80,2681
2,38,0,7
2,38,90,377
2,38,0,5
2,38,90,379
2,38,0,5
2,38,81,379
2,38,0,9
2,38,81,87
2,38,0,7
2,38,77,25
2,38,0,3
2,38,87,29
2,38,0,4
2,38,97,28
2,38,0,4
2,38,62,668
2,38,0,6
2,38,77,26
2,38,0,5
2,38,98,27
2,38,0,9
2,38,103,23
2,38,0,11
2,38,98,949
2,38,0,6
2,38,98,762
2,38,0,7
2,38,76,761
2,38,0,9
2,38,88,375
2,38,0,5
2,38,59,2395
2,38,0,5
2,38,76,27
2,38,0,11
2,38,95,21
2,38,0,9
2,38,96,23
2,38,0,9
2,38,61,663
2,38,0,5
2,38,80,27
2,38,0,3
2,38,99,29
2,38,0,5
2,38,98,27
2,38,0,11
2,38,58,661
2,38,0,8
2,38,76,24
2,38,0,4
2,38,98,28
2,38,0,6
2,38,98,26
2,38,0,9
2,38,58,663
2,38,0,10
2,38,81,22
2,38,0,9
2,38,99,23
2,38,0,6
2,38,98,26
2,38,0,4
2,38,63,668
2,38,0,5
2,38,77,27
2,38,0,11
2,38,97,21
2,38,0,5
2,38,98,27
2,38,0,6
2,38,63,666
2,38,0,8
2,38,81,24
2,38,0,10
2,38,98,22
2,38,0,7
2,38,95,25
2,38,0,6
2,38,60,666
2,38,0,9
2,38,77,23
2,38,0,5
2,38,97,27
2,38,0,8
2,38,95,24
2,38,0,6
2,38,63,666
2,38,0,5
2,38,80,27
2,38,0,4
2,38,95,28
2,38,0,9
2,38,95,23
2,38,0,6
2,38,61,666
2,38,0,10
2,38,80,22
2,38,0,8
2,38,97,24
2,38,0,5
2,38,94,27
2,38,0,6
2,38,63,666
2,38,0,5
2,38,81,27
2,38,0,4
2,38,99,28
2,38,0,5
2,38,96,27
2,38,0,11
2,38,63,661
2,38,0,4
2,38,79,28
2,38,0,6
2,38,95,26
2,38,0,9
2,38,99,23
2,38,0,8
2,38,60,664
2,38,0,5
2,38,78,27
2,38,0,7
2,38,98,25
2,38,0,6
2,38,95,26
2,38,0,10
3,51,96,10752
3,51,0,7
3,51,96,3065
3,51,0,6
3,51,96,4602
3,51,0,7
3,51,96,4601
3,51,0,6
3,51,96,3066
3,51,0,7
3,51,70,2297
3,51,0,8
3,51,87,184
3,51,0,7
3,51,81,185
3,51,0,10
3,51,79,86
3,51,0,4
3,51,85,92
3,51,0,5
3,51,98,1723
3,51,0,8
3,51,96,4600
3,51,0,7
3,51,77,761
3,51,0,6
3,51,88,186
3,51,0,8
3,51,89,184
3,51,0,9
3,51,98,183
3,51,0,9
3,51,104,1911
3,51,0,3
3,51,105,765
3,51,0,7
3,51,103,761
3,51,0,1
3,51,107,767
3,51,0,6
3,51,106,762
3,51,0,5
3,51,103,763
3,51,0,6
3,51,104,762
3,51,0,10
3,51,108,758
3,51,0,4
3,51,104,764
3,51,0,6
3,51,108,762
3,51,0,8
3,51,103,760
3,51,0,6
3,51,103,570
3,51,0,10
4,42,98,192
4,42,0,8
4,42,103,376
4,42,0,6
4,42,95,378
4,42,0,8
4,42,104,376
4,42,0,6
4,42,97,378
4,42,0,8
4,42,104,376
4,42,0,10
4,42,94,374
4,42,0,5
4,42,108,379
4,42,0,4
4,42,96,380
4,42,0,5
4,42,106,379
4,42,0,10
4,42,96,374
4,42,0,3
4,42,105,381
4,42,0,4
4,42,97,380
4,42,0,5
4,42,104,379
4,42,0,8
4,42,96,376
4,42,0,5
4,42,108,379
4,42,0,7
4,42,94,377
4,42,0,10
4,42,104,374
4,42,0,10
4,42,97,374
4,42,0,10
4,42,103,374
4,42,0,4
4,42,94,380
4,42,0,3
4,42,104,381
4,42,0,6
4,42,99,378
4,42,0,8
4,42,103,376
4,42,0,9
4,42,96,375
4,42,0,8
4,42,103,376
4,42,0,7
4,42,95,377
4,42,0,4
4,42,108,380
4,42,0,9
4,42,88,183
4,42,0,9
4,42,38,87
4,42,0,6
4,42,97,90
4,42,0,4
4,42,44,92
4,42,0,11
4,42,104,85
4,42,0,8
4,42,53,88
4,42,0,5
4,42,105,91
4,42,0,4
4,42,88,92
4,42,0,5
4,42,90,91
4,42,0,10
4,42,41,86
4,42,0,5
4,42,99,91
4,42,0,5
4,42,45,91
4,42,0,3
4,42,105,93
4,42,0,4
4,42,52,92
4,42,0,5
4,42,107,91
4,42,0,5
4,42,85,91
4,42,0,4
4,42,90,92
4,42,0,4
4,42,41,92
4,42,0,8
4,42,99,88
4,42,0,5
4,42,43,91
4,42,0,5
4,42,105,91
4,42,0,4
4,42,54,92
4,42,0,5
4,42,108,91
4,42,0,8
4,42,90,88
4,42,0,5
4,42,86,91
4,42,0,8
4,42,40,88
4,42,0,10
4,42,94,86
4,42,0,8
4,42,43,88
4,42,0,10
4,42,103,86
4,42,0,8
4,42,55,88
4,42,0,10
4,42,107,86
4,42,0,5
4,42,90,91
4,42,0,10
4,42,88,86
4,42,0,8
4,42,40,88
4,42,0,6
4,42,95,90
4,42,0,3
4,42,43,93
4,42,0,8
4,42,104,88
4,42,0,7
4,42,55,89
4,42,0,9
4,42,103,87
4,42,0,10
4,42,90,86
4,42,0,5
4,42,89,91
4,42,0,7
4,42,42,89
4,42,0,13
4,42,95,83
4,42,0,6
4,42,42,90
4,42,0,8
4,42,107,88
4,42,0,6
4,42,51,90
4,42,0,4
4,42,105,92
4,42,0,3
4,42,88,93
4,42,0,5
4,42,88,91
4,42,0,6
4,42,97,186
4,42,0,4
4,42,107,188
4,42,0,6
4,42,105,186
4,42,0,4
4,42,85,188
4,42,0,6
4,42,99,186
4,42,0,8
4,42,107,184
4,42,0,6
4,42,77,186
4,42,0,9
4,42,98,375
4,42,0,3
4,42,106,381
4,42,0,5
4,42,96,379
4,42,0,9
4,42,104,375
4,42,0,5
4,42,86,187
4,42,0,6
4,42,41,90
4,42,0,4
4,42,97,92
4,42,0,5
4,42,47,91
4,42,0,5
4,42,108,91
4,42,0,4
4,42,52,92
4,42,0,8
4,42,104,88
4,42,0,9
4,42,90,87
4,42,0,12
4,42,89,84
4,42,0,4
4,42,38,92
4,42,0,5
4,42,99,91
4,42,0,5
4,42,42,91
4,42,0,4
4,42,108,92
4,42,0,5
4,42,55,91
4,42,0,11
4,42,107,85
4,42,0,5
4,42,88,91
4,42,0,5
4,42,96,283
4,42,0,5
4,42,108,379
4,42,0,4
4,42,96,380
4,42,0,7
4,42,108,377
4,42,0,5
4,42,88,187
4,42,0,6
4,42,98,186
4,42,0,5
4,42,108,187
4,42,0,4
4,42,106,188
4,42,0,8
4,42,86,184
4,42,0,8
4,42,94,184
4,42,0,3
4,42,107,189
4,42,0,8
4,42,75,184
4,42,0,5
4,42,88,187
4,42,0,7
4,42,41,89
4,42,0,4
4,42,95,92
4,42,0,6
4,42,42,90
4,42,0,5
4,42,106,91
4,42,0,8
4,42,51,88
4,42,0,10
4,42,108,86
4,42,0,4
4,42,89,92
4,42,0,5
4,42,88,91
4,42,0,6
4,42,40,90
4,42,0,5
4,42,97,91
4,42,0,8
4,42,45,88
4,42,0,5
4,42,105,91
4,42,0,10
4,42,50,86
4,42,0,8
4,42,104,88
4,42,0,7
4,42,85,89
4,42,0,4
4,42,97,284
4,42,0,9
4,42,108,375
4,42,0,6
4,42,98,378
4,42,0,10
4,42,107,374
4,42,0,5
4,42,88,187
4,42,0,4
4,42,41,92
4,42,0,8
4,42,99,88
4,42,0,4
4,42,43,92
4,42,0,6
4,42,103,90
4,42,0,5
4,42,53,91
4,42,0,8
4,42,106,88
4,42,0,7
4,42,88,89
4,42,0,5
4,42,88,91
4,42,0,9
4,42,38,87
4,42,0,10
4,42,95,86
4,42,0,12
4,42,46,84
4,42,0,5
4,42,107,91
4,42,0,5
4,42,53,91
4,42,0,5
4,42,105,91
4,42,0,4
4,42,89,92
4,42,0,8
4,42,87,88
4,42,0,8
4,42,42,88
4,42,0,5
4,42,96,91
4,42,0,10
4,42,44,86
4,42,0,8
4,42,107,88
4,42,0,8
4,42,51,88
4,42,0,5
4,42,105,91
4,42,0,5
4,42,90,91
4,42,0,5
4,42,88,91
4,42,0,7
4,42,94,185
4,42,0,4
4,42,108,188
4,42,0,5
4,42,103,187
4,42,0,5
4,42,96,379
4,42,0,5
4,42,106,379
4,42,0,5
4,42,95,379
4,42,0,9
4,42,108,375
4,42,0,5
4,42,85,187
4,42,0,10
4,42,43,86
4,42,0,8
4,42,97,88
4,42,0,9
4,42,44,87
4,42,0,8
4,42,107,88
4,42,0,9
4,42,52,87
4,42,0,6
4,42,105,90
4,42,0,3
4,42,87,93
4,42,0,5
4,42,87,91
4,42,0,6
4,42,38,90
4,42,0,5
4,42,95,91
4,42,0,3
4,42,42,93
4,42,0,5
4,42,105,91
4,42,0,4
4,42,51,92
4,42,0,9
4,42,103,87
4,42,0,9
4,42,87,87
4,42,0,5
4,42,97,283
4,42,0,10
4,42,103,374
4,42,0,8
4,42,96,376
4,42,0,9
4,42,103,375
4,42,0,6
4,42,86,186
4,42,0,6
4,42,94,186
4,42,0,8
4,42,106,184
4,42,0,10
4,42,104,182
4,42,0,8
4,42,85,184
4,42,0,6
4,42,99,186
4,42,0,4
4,42,103,188
4,42,0,4
4,42,79,188
4,42,0,4
4,42,89,188
4,42,0,7
4,42,40,89
4,42,0,8
4,42,99,88
4,42,0,5
4,42,47,91
4,42,0,11
4,42,108,85
4,42,0,7
4,42,51,89
4,42,0,10
4,42,107,86
4,42,0,5
4,42,87,91
4,42,0,5
4,42,90,91
4,42,0,4
4,42,94,188
4,42,0,3
4,42,107,189
4,42,0,6
4,42,95,570
4,42,0,10
4,42,107,374
4,42,0,6
4,42,98,378
4,42,0,8
4,42,105,376
4,42,0,5
4,42,95,379
4,42,0,11
4,42,105,373
4,42,0,12
4,42,99,372
4,42,0,8
4,42,108,376
4,42,0,10
4,42,98,374
4,42,0,6
4,42,103,378
4,42,0,6
4,42,96,378
4,42,0,8
4,42,107,376
4,42,0,4
4,42,96,380
4,42,0,5
4,42,103,379
4,42,0,8
4,42,97,376
4,42,0,5
4,42,103,379
4,42,0,5
4,42,96,379
4,42,0,6
4,42,103,378
4,42,0,12
4,42,97,372
4,42,0,5
4,42,106,379
4,42,0,4
4,42,97,380
4,42,0,3
4,42,105,381
4,42,0,7
4,42,99,377
4,42,0,3
4,42,103,381
4,42,0,6
4,42,99,378
4,42,0,3
4,42,104,381
4,42,0,8
4,42,96,184
4,42,0,6
5,46,87,0
5,46,0,605
5,46,43,67
5,46,0,18
5,46,48,14
5,46,0,24
5,46,61,8
5,46,0,27
5,46,61,5
5,46,0,686
5,46,72,82
5,46,0,591
5,46,55,81
5,46,0,21
5,46,56,11
5,46,0,28
5,46,46,4
5,46,0,22
5,46,78,10
5,46,0,756
5,50,63,12
5,50,0,350
5,50,56,34
5,55,55,192
5,50,0,14
5,55,0,78
5,53,67,4
5,53,0,95
5,51,58,1
5,55,60,288
5,51,0,1
5,55,0,92
5,53,57,3
5,53,0,214
5,46,54,74
5,46,0,20
5,46,51,12
5,46,0,27
5,46,38,5
5,46,0,22
5,46,76,10
5,46,0,654
5,46,37,18
5,46,0,19
5,46,47,13
5,46,0,20
5,46,51,12
5,46,0,17
5,46,55,15
5,46,0,673
5,46,58,95
5,46,0,593
5,46,25,79
5,46,0,12
5,46,56,20
5,46,0,21
5,46,61,11
5,46,0,32
5,46,70,0
5,46,0,750
5,50,71,18
5,50,0,337
5,50,60,47
5,53,68,288
5,50,0,7
5,51,46,89
5,53,0,5
5,51,0,281
5,55,60,2
5,55,0,87
5,53,58,9
5,46,49,288
5,53,0,2
5,46,0,19
5,46,76,11
5,46,0,7
5,46,55,25
5,46,0,18
5,46,72,14
5,46,0,379
5,46,74,5
5,46,0,195
5,46,44,93
5,46,0,25
5,46,53,7
5,46,0,22
5,46,46,10
5,46,0,21
5,46,90,11
5,46,0,333
5,46,87,51
5,46,0,208
5,51,60,80
5,51,0,43
5,52,56,5
5,52,0,29
5,53,70,19
5,53,0,103
5,53,26,41
5,53,0,6
5,53,81,42
5,53,0,104
5,53,52,40
5,53,0,13
5,53,77,35
5,53,0,47
