track,note,velocity,time
3,48,74,3330
3,57,86,0
3,53,79,0
3,57,0,809
3,57,92,151
3,48,0,29
3,48,81,211
3,53,0,119
3,57,0,60
3,57,82,61
3,53,91,0
3,48,0,59
3,53,0,120
3,57,0,30
3,53,86,31
3,58,88,0
3,50,75,0
3,58,0,2039
3,53,0,60
3,50,0,30
3,48,72,31
3,57,86,0
3,53,79,0
3,57,0,809
3,57,92,151
3,48,0,29
3,48,81,211
3,53,0,119
3,57,0,60
3,57,82,61
3,53,91,0
3,48,0,59
3,53,0,120
3,57,0,30
3,53,86,31
3,50,81,0
3,58,88,0
3,58,0,2039
3,53,0,60
3,50,0,30
3,48,72,31
3,57,86,0
3,53,79,0
3,57,0,809
3,57,92,151
3,48,0,29
3,48,81,211
3,53,0,119
3,57,0,90
3,53,71,31
3,57,73,0
3,48,0,59
3,57,0,120
3,53,0,30
3,53,86,31
3,58,88,0
3,50,74,0
3,65,73,960
3,60,71,240
3,60,0,449
3,58,0,30
3,60,71,1
3,58,52,240
3,53,0,179
3,50,0,30
3,65,0,30
3,48,72,1
3,57,87,0
3,53,79,0
3,60,0,29
3,58,0,0
3,57,0,780
3,57,92,151
3,48,0,29
3,48,81,211
3,53,0,119
3,53,91,121
3,57,0,59
3,48,0,0
3,53,0,180
3,50,74,1
3,58,87,0
3,53,86,0
3,50,0,2039
3,58,0,0
3,53,0,0
3,60,77,121
3,65,69,0
3,57,72,0
3,60,0,419
3,60,64,61
3,65,0,179
3,65,71,61
3,60,0,389
3,60,60,91
3,65,0,179
3,65,78,61
3,69,66,240
3,60,0,179
3,69,0,60
3,60,74,1
3,65,0,209
3,69,56,31
3,64,73,0
3,60,0,389
3,60,73,91
3,57,0,149
3,57,75,91
3,53,64,240
3,57,0,59
3,57,73,181
3,64,0,419
3,53,0,0
3,57,0,0
3,60,0,30
3,69,0,30
3,60,64,1
3,69,63,240
3,64,64,0
3,60,0,449
3,60,61,31
3,64,0,29
3,69,0,30
3,69,69,181
3,64,74,0
3,60,0,359
3,69,0,120
3,64,0,0
3,60,64,1
3,69,69,240
3,64,65,0
3,60,0,359
3,60,54,91
3,69,0,209
3,64,0,0
3,57,60,61
3,64,63,0
3,69,70,0
3,64,0,179
3,64,68,61
3,60,0,149
3,69,0,90
3,60,78,1
3,57,0,149
3,57,64,91
3,53,64,240
3,57,0,29
3,60,0,120
3,64,0,90
3,55,73,1
3,53,0,59
3,55,0,180
3,55,73,1
3,62,74,0
3,58,76,0
3,55,0,629
3,55,77,91
3,50,53,240
3,55,0,59
3,58,0,120
3,58,65,61
3,50,0,29
3,55,65,451
3,62,0,89
3,58,0,90
3,62,82,61
3,58,57,0
3,55,0,179
3,55,65,61
3,58,0,209
3,55,0,30
3,58,79,1
3,62,0,179
3,62,82,61
3,58,0,59
3,58,75,181
3,55,69,240
3,58,0,29
3,62,0,60
3,58,67,151
3,55,0,29
3,60,78,211
3,58,0,89
3,60,0,90
3,60,91,61
3,55,68,0
3,52,69,240
3,55,0,149
3,58,65,91
3,64,91,240
3,60,0,29
3,60,65,211
3,58,0,419
3,60,0,30
3,60,73,31
3,52,0,29
3,52,53,211
3,60,0,59
3,64,0,150
3,58,75,31
3,55,72,0
3,60,85,0
3,52,0,1349
3,48,69,61
3,55,0,119
3,48,0,150
3,50,82,1
3,60,0,149
3,58,0,30
3,50,0,60
3,53,79,1
3,48,72,0
3,57,86,0
3,57,0,809
3,57,92,151
3,48,0,29
3,48,81,211
3,53,0,119
3,57,0,60
3,57,82,61
3,53,91,0
3,48,0,59
3,53,0,120
3,57,0,30
3,50,75,31
3,58,88,0
3,53,86,0
3,58,0,2039
3,53,0,60
3,50,0,30
3,53,79,31
3,57,86,0
3,48,72,0
3,57,0,689
3,57,74,31
3,57,0,299
3,48,0,150
3,53,0,30
3,60,81,1
3,60,0,239
3,62,83,1
3,62,0,209
3,62,85,31
3,58,78,0
3,65,86,0
3,62,0,479
3,58,0,0
3,60,72,1
3,65,0,59
3,60,0,180
3,58,60,1
3,62,68,0
3,65,68,0
3,58,0,479
3,62,0,0
3,60,72,1
3,65,0,29
3,58,60,211
3,65,68,0
3,62,81,0
3,60,0,29
3,60,64,211
3,62,0,29
3,65,0,210
3,62,64,1
3,58,0,29
3,60,0,0
3,57,79,211
3,64,79,0
3,60,70,0
3,53,54,0
3,62,0,29
3,57,0,420
3,57,62,31
3,53,0,119
3,53,70,121
3,60,0,29
3,64,0,30
3,57,0,120
3,60,70,61
3,64,79,0
3,57,70,0
3,53,0,539
3,53,62,181
3,60,0,29
3,64,0,0
3,57,0,30
3,60,79,181
3,57,70,0
3,64,79,0
3,57,0,449
3,57,70,31
3,69,79,480
3,53,0,29
3,69,0,180
3,70,79,151
3,70,0,299
3,72,88,61
3,64,0,179
3,60,0,30
3,57,0,0
3,72,0,0
3,65,58,1
3,69,74,30
3,72,70,30
3,76,72,0
3,65,0,2789
3,69,0,0
3,72,0,0
3,76,0,0
3,69,79,61
3,69,0,209
3,70,79,151
3,70,0,299
3,72,88,61
3,72,0,209
3,65,58,1
3,69,74,30
3,72,70,30
3,75,73,0
3,65,0,3659
3,69,0,0
3,72,0,30
3,75,0,0
3,62,54,61
3,65,79,30
3,70,66,0
3,74,79,30
3,74,0,2729
3,62,0,30
3,65,0,0
3,70,0,0
3,70,70,121
3,70,0,179
3,71,79,61
3,71,0,179
3,72,88,61
3,72,0,209
3,73,88,31
3,65,70,1200
3,65,0,179
3,67,79,61
3,67,0,209
3,70,70,271
3,73,0,239
3,70,0,0
3,69,70,241
3,65,66,240
3,69,0,29
3,61,60,211
3,65,0,59
3,61,0,150
3,73,70,31
3,70,58,0
3,70,0,239
3,65,62,1
3,73,0,29
3,73,79,211
3,70,70,0
3,65,0,29
3,70,0,210
3,65,62,1
3,73,0,59
3,57,70,181
3,65,0,29
3,65,70,211
3,60,70,0
3,57,0,449
3,57,62,31
3,60,0,29
3,65,0,60
3,60,79,151
3,65,79,0
3,60,0,719
3,65,0,0
3,53,62,1
3,57,0,29
3,58,76,211
3,62,80,0
3,58,0,629
3,58,58,91
3,62,0,209
3,65,77,31
3,70,75,480
3,53,0,419
3,65,0,30
3,70,0,0
3,58,0,30
3,69,79,1
3,60,67,0
3,64,70,0
3,53,61,720
3,64,0,179
3,53,0,60
3,64,81,1
3,57,73,0
3,60,0,29
3,69,0,30
3,64,0,180
3,60,61,1
3,57,0,59
3,60,0,180
3,62,77,1
3,62,0,239
3,58,65,1
3,62,77,0
3,65,77,0
3,65,0,899
3,58,0,30
3,62,0,0
3,58,69,31
3,65,69,0
3,62,86,0
3,60,69,240
3,58,0,29
3,65,0,0
3,62,0,0
3,60,0,60
3,58,69,151
3,64,77,0
3,64,0,209
3,62,69,31
3,58,0,149
3,62,0,60
3,57,70,31
3,60,70,0
3,65,70,0
3,60,0,959
3,65,0,0
3,69,70,1
3,64,70,0
3,57,0,89
3,60,62,121
3,69,0,419
3,64,0,0
3,60,0,30
3,69,70,61
3,60,70,0
3,64,79,0
3,69,0,419
3,64,0,0
3,60,0,30
3,58,66,31
3,65,79,0
3,62,70,0
3,65,0,689
3,58,0,30
3,62,0,0
3,53,62,1
3,58,66,240
3,65,70,0
3,62,70,0
3,65,0,389
3,62,0,30
3,65,79,61
3,62,79,0
3,53,0,389
3,65,0,30
3,58,0,30
3,62,0,0
3,60,79,31
3,58,70,0
3,67,79,0
3,64,79,0
3,58,0,659
3,58,66,61
3,67,0,29
3,60,0,30
3,64,0,0
3,58,0,180
3,64,79,1
3,67,70,0
3,60,70,0
3,67,0,389
3,64,0,30
3,60,0,0
3,58,60,61
3,67,70,0
3,64,70,0
3,60,70,0
3,67,0,389
3,64,0,30
3,60,0,0
3,58,0,30
3,67,88,31
3,64,97,0
3,60,88,0
3,58,88,0
3,67,0,149
3,64,0,0
3,58,0,0
3,60,0,30
3,53,79,1741
3,48,72,0
3,57,86,0
3,57,0,809
3,57,92,151
3,48,0,29
3,48,81,211
3,53,0,119
3,57,0,60
3,57,82,61
3,53,91,0
3,48,0,59
3,53,0,120
3,57,0,30
3,53,86,31
3,58,88,0
3,50,75,0
3,58,0,2039
3,53,0,60
3,50,0,30
3,48,72,31
3,57,86,0
3,53,79,0
3,57,0,809
3,57,92,151
3,48,0,29
3,48,81,211
3,53,0,119
3,57,0,60
3,57,82,61
3,53,91,0
3,48,0,59
3,53,0,120
3,57,0,30
3,53,86,31
3,50,75,0
3,58,88,0
3,58,0,2039
3,53,0,60
3,50,0,30
3,57,72,31
3,65,69,0
3,60,77,0
3,60,0,419
3,60,64,61
3,65,0,179
3,65,71,61
3,60,0,389
3,60,60,91
3,65,0,179
3,65,78,61
3,69,66,240
3,60,0,179
3,69,0,60
3,60,74,1
3,65,0,209
3,69,56,31
3,64,73,0
3,60,0,389
3,60,73,91
3,57,0,149
3,57,75,91
3,53,64,240
3,57,0,59
3,57,73,181
3,64,0,419
3,53,0,0
3,57,0,0
3,60,0,30
3,69,0,30
3,60,64,1
3,69,63,240
3,64,64,0
3,60,0,449
3,60,61,31
3,64,0,29
3,69,0,30
3,69,69,181
3,64,74,0
3,60,0,359
3,69,0,120
3,64,0,0
3,60,64,1
3,64,65,240
3,69,69,0
3,60,0,359
3,60,54,91
3,64,0,209
3,69,0,0
3,64,63,61
3,57,60,0
3,69,70,0
3,64,0,179
3,64,68,61
3,60,0,149
3,69,0,90
3,60,78,1
3,57,0,149
3,57,64,91
3,53,64,240
3,57,0,29
3,60,0,120
3,64,0,90
3,55,73,1
3,53,0,59
3,55,0,180
3,58,76,1
3,55,73,0
3,62,74,0
3,55,0,629
3,55,77,91
3,50,53,240
3,55,0,59
3,58,0,120
3,58,65,61
3,50,0,29
3,55,65,451
3,62,0,89
3,58,0,90
3,62,82,61
3,58,57,0
3,55,0,179
3,55,65,61
3,58,0,209
3,55,0,30
3,58,79,1
3,62,0,179
3,62,82,61
3,58,0,59
3,58,75,181
3,55,69,240
3,58,0,29
3,62,0,60
3,58,67,151
3,55,0,29
3,60,78,211
3,58,0,89
3,60,0,90
3,60,91,61
3,55,68,0
3,52,69,240
3,55,0,149
3,58,65,91
3,64,91,240
3,60,0,29
3,60,65,211
3,58,0,419
3,60,0,30
3,60,73,31
3,52,0,29
3,52,53,211
3,60,0,59
3,64,0,150
3,60,85,31
3,58,75,0
3,55,72,0
3,52,0,1349
3,48,69,61
3,55,0,119
3,48,0,150
3,50,82,1
3,60,0,149
3,58,0,30
3,50,0,60
3,48,72,1
3,57,86,0
3,53,79,0
3,57,0,809
3,57,92,151
3,48,0,29
3,48,81,211
3,53,0,119
3,57,0,60
3,57,82,61
3,53,91,0
3,48,0,59
3,53,0,120
3,57,0,30
3,53,86,31
3,50,75,0
3,58,88,0
3,58,0,2039
3,53,0,60
3,50,0,30
3,48,72,31
3,57,86,0
3,53,79,0
3,57,0,689
3,57,74,31
3,57,0,299
3,48,0,150
3,53,0,30
3,60,81,1
3,60,0,239
3,62,83,1
3,62,0,209
3,58,78,31
3,65,86,0
3,62,85,0
3,58,0,479
3,62,0,0
3,60,72,1
3,65,0,59
3,60,0,180
3,58,60,1
3,62,68,0
3,65,68,0
3,58,0,479
3,62,0,0
3,60,72,1
3,65,0,29
3,58,60,211
3,65,68,0
3,62,81,0
3,60,0,29
3,60,64,211
3,62,0,29
3,65,0,210
3,62,64,1
3,58,0,29
3,60,0,0
3,57,79,211
3,64,79,0
3,60,70,0
3,53,54,0
3,62,0,29
3,57,0,420
3,57,62,31
3,53,0,119
3,53,70,121
3,60,0,29
3,64,0,30
3,57,0,120
3,60,70,61
3,57,70,0
3,64,79,0
3,53,0,539
3,53,62,181
3,60,0,29
3,64,0,0
3,57,0,30
3,60,79,181
3,57,70,0
3,64,79,0
3,57,0,449
3,57,70,31
3,69,79,480
3,53,0,29
3,69,0,180
3,70,79,151
3,70,0,299
3,72,88,61
3,64,0,179
3,60,0,30
3,57,0,0
3,72,0,0
3,65,58,1
3,69,74,30
3,72,70,30
3,76,72,0
3,65,0,2789
3,69,0,0
3,72,0,0
3,76,0,0
3,69,79,61
3,69,0,209
3,70,79,151
3,70,0,299
3,72,88,61
3,72,0,209
3,65,58,1
3,69,74,30
3,72,70,30
3,75,73,0
3,65,0,3659
3,69,0,0
3,72,0,30
3,75,0,0
3,62,54,61
3,65,79,30
3,70,66,0
3,74,79,30
3,74,0,2729
3,62,0,30
3,65,0,0
3,70,0,0
3,70,70,121
3,70,0,179
3,71,79,61
3,71,0,179
3,72,88,61
3,72,0,209
3,73,88,31
3,65,70,1200
3,65,0,179
3,67,79,61
3,67,0,209
3,70,70,271
3,73,0,239
3,70,0,0
3,69,70,241
3,65,66,240
3,69,0,29
3,61,60,211
3,65,0,59
3,61,0,150
3,73,70,31
3,70,58,0
3,70,0,239
3,65,62,1
3,73,0,29
3,73,79,211
3,70,70,0
3,65,0,29
3,70,0,210
3,65,62,1
3,73,0,59
3,57,70,181
3,65,0,29
3,60,70,211
3,65,70,0
3,57,0,449
3,57,62,31
3,60,0,29
3,65,0,60
3,60,79,151
3,65,79,0
3,60,0,719
3,65,0,0
3,53,62,1
3,57,0,29
3,62,80,211
3,58,76,0
3,58,0,629
3,58,58,91
3,62,0,209
3,65,77,31
3,70,75,480
3,53,0,419
3,65,0,30
3,70,0,0
3,58,0,30
3,60,67,1
3,69,79,0
3,64,70,0
3,53,61,720
3,64,0,179
3,53,0,60
3,57,73,1
3,64,81,0
3,60,0,29
3,69,0,30
3,64,0,180
3,60,61,1
3,57,0,59
3,60,0,180
3,62,77,1
3,62,0,239
3,58,65,1
3,62,77,0
3,65,77,0
3,65,0,899
3,58,0,30
3,62,0,0
3,58,69,31
3,62,86,0
3,65,69,0
3,60,69,240
3,58,0,29
3,62,0,0
3,65,0,0
3,60,0,60
3,64,77,151
3,58,69,0
3,64,0,209
3,62,69,31
3,58,0,149
3,62,0,60
3,65,70,31
3,60,70,0
3,57,70,0
3,65,0,959
3,60,0,0
3,69,70,1
3,64,70,0
3,57,0,89
3,60,62,121
3,69,0,419
3,64,0,0
3,60,0,30
3,60,70,61
3,64,79,0
3,69,70,0
3,64,0,419
3,69,0,0
3,60,0,30
3,62,70,31
3,58,66,0
3,65,79,0
3,65,0,689
3,62,0,30
3,58,0,0
3,53,62,1
3,62,70,240
3,58,66,0
3,65,70,0
3,65,0,389
3,62,0,30
3,62,79,61
3,65,79,0
3,53,0,389
3,65,0,30
3,58,0,30
3,62,0,0
3,58,70,31
3,64,79,0
3,67,79,0
3,60,79,0
3,58,0,659
3,58,66,61
3,67,0,29
3,64,0,30
3,60,0,0
3,58,0,180
3,67,70,1
3,64,79,0
3,60,70,0
3,67,0,389
3,64,0,30
3,60,0,0
3,58,60,61
3,60,70,0
3,64,70,0
3,67,70,0
3,67,0,389
3,60,0,30
3,64,0,0
3,58,0,30
3,67,88,31
3,58,88,0
3,60,88,0
3,64,97,0
3,67,0,149
3,58,0,0
3,64,0,0
3,60,0,30
3,53,79,1741
3,60,72,0
3,57,86,0
3,57,0,809
3,57,52,151
3,60,0,29
3,57,0,90
3,60,81,121
3,53,0,119
3,60,0,0
3,57,82,121
3,62,91,0
3,62,0,179
3,57,0,30
3,62,75,31
3,58,88,0
3,65,86,0
3,58,0,2039
3,65,0,60
3,62,0,30
3,48,72,31
3,57,86,0
3,53,79,0
3,57,0,809
3,57,92,151
3,48,0,29
3,48,81,211
3,53,0,119
3,57,0,60
3,57,82,61
3,53,91,0
3,48,0,59
3,53,0,120
3,57,0,30
3,53,86,31
3,58,88,0
3,50,75,0
3,67,80,1440
3,67,0,209
3,60,64,31
3,60,0,239
3,62,73,1
3,58,0,119
3,53,0,60
3,50,0,30
3,62,0,30
3,65,82,1
3,60,91,0
3,57,73,0
3,57,0,449
3,65,0,30
3,60,0,0
3,57,73,241
3,65,73,0
3,60,82,0
3,57,0,179
3,65,0,30
3,60,0,0
3,64,79,31
3,60,69,0
3,57,61,0
3,64,0,29
