track,note,velocity,time
3,71,117,3264
3,71,0,190
3,71,115,2
3,71,0,190
3,69,125,2
3,69,0,190
3,64,119,2
3,64,0,766
3,71,117,194
3,71,0,190
3,71,112,2
3,71,0,190
3,69,119,2
3,69,0,190
3,65,127,2
3,65,0,126
3,67,119,2
3,67,0,126
3,64,119,2
3,64,0,126
3,62,117,2
3,62,0,382
3,71,119,194
3,71,0,190
3,71,119,2
3,71,0,190
3,69,123,2
3,69,0,190
3,65,119,2
3,65,0,126
3,67,117,2
3,67,0,126
3,64,119,2
3,64,0,126
3,62,119,2
3,62,0,382
3,62,119,98
3,62,0,94
3,64,119,2
3,64,0,94
3,65,119,2
3,65,0,94
3,69,115,2
3,69,0,286
3,67,117,2
3,67,0,94
3,64,119,2
3,64,0,766
3,71,125,194
3,71,0,190
3,71,125,2
3,71,0,190
3,69,115,2
3,69,0,190
3,64,127,2
3,64,0,766
3,71,115,194
3,71,0,190
3,71,112,2
3,71,0,190
3,69,125,2
3,69,0,190
3,65,119,2
3,65,0,126
3,67,119,2
3,67,0,126
3,64,119,2
3,64,0,126
3,62,115,2
3,62,0,382
3,71,117,194
3,71,0,190
3,71,119,2
3,71,0,190
3,69,125,2
3,69,0,190
3,65,119,2
3,65,0,126
3,67,105,2
3,67,0,126
3,64,119,2
3,64,0,126
3,62,125,2
3,62,0,382
3,62,115,98
3,62,0,94
3,64,115,2
3,64,0,94
3,65,94,2
3,65,0,94
3,69,119,2
3,69,0,286
3,67,119,2
3,67,0,94
3,64,119,2
3,64,0,1150
3,75,117,578
3,75,0,94
3,74,115,2
3,74,0,94
3,72,125,2
3,72,0,286
3,69,119,2
3,69,0,94
3,75,115,2
3,75,0,94
3,72,115,2
3,72,0,94
3,74,119,2
3,74,0,94
3,74,119,2
3,74,0,94
3,72,123,2
3,72,0,382
3,72,119,98
3,72,0,94
3,72,123,2
3,72,0,94
3,72,123,2
3,72,0,190
3,72,123,2
3,72,0,94
3,72,119,2
3,72,0,94
3,69,117,2
3,69,0,94
3,67,119,2
3,67,0,766
3,62,119,2
3,62,0,190
3,66,115,2
3,66,0,190
3,69,112,2
3,69,0,286
3,69,125,2
3,69,0,94
3,74,127,2
3,74,0,94
3,74,123,2
3,74,0,94
3,71,119,2
3,71,0,94
3,69,123,2
3,69,0,382
3,69,123,2
3,69,0,94
3,76,119,2
3,76,0,94
3,72,125,2
3,72,0,94
3,76,117,2
3,76,0,94
3,72,119,2
3,72,0,94
3,76,115,2
3,76,0,94
3,72,119,2
3,72,0,94
3,76,107,2
3,76,0,94
3,72,115,2
3,72,0,94
3,67,119,2
3,67,0,190
3,71,119,2
3,71,0,190
3,71,127,2
3,71,0,190
3,69,123,2
3,69,0,190
3,64,119,2
3,64,0,766
3,71,123,194
3,71,0,190
3,71,119,2
3,71,0,190
3,69,119,2
3,69,0,190
3,65,123,2
3,65,0,126
3,67,119,2
3,67,0,126
3,64,125,2
3,64,0,126
3,62,115,2
3,62,0,382
3,71,117,194
3,71,0,190
3,71,117,2
3,71,0,190
3,69,125,2
3,69,0,190
3,65,115,2
3,65,0,126
3,67,112,2
3,67,0,126
3,64,123,2
3,64,0,126
3,62,125,2
3,62,0,382
3,62,127,98
3,62,0,94
3,64,117,2
3,64,0,94
3,65,119,2
3,65,0,94
3,69,119,2
3,69,0,190
3,62,119,2
3,62,0,190
3,60,119,2
3,60,0,766
3,71,119,194
3,71,0,190
3,71,119,2
3,71,0,190
3,69,115,2
3,69,0,190
3,64,119,2
3,64,0,766
3,71,117,194
3,71,0,190
3,71,112,2
3,71,0,190
3,69,119,2
3,69,0,190
3,65,127,2
3,65,0,126
3,67,119,2
3,67,0,126
3,64,119,2
3,64,0,126
3,62,117,2
3,62,0,382
3,71,119,194
3,71,0,190
3,71,119,2
3,71,0,190
3,69,123,2
3,69,0,190
3,65,119,2
3,65,0,126
3,67,117,2
3,67,0,126
3,64,119,2
3,64,0,126
3,62,119,2
3,62,0,382
3,62,119,98
3,62,0,94
3,64,119,2
3,64,0,94
3,65,119,2
3,65,0,94
3,69,115,2
3,69,0,286
3,67,117,2
3,67,0,94
3,64,119,2
3,64,0,766
3,71,125,194
3,71,0,190
3,71,125,2
3,71,0,190
3,69,115,2
3,69,0,190
3,64,127,2
3,64,0,766
3,71,115,194
3,71,0,190
3,71,112,2
3,71,0,190
3,69,125,2
3,69,0,190
3,65,119,2
3,65,0,126
3,67,119,2
3,67,0,126
3,64,119,2
3,64,0,126
3,62,115,2
3,62,0,382
3,71,117,194
3,71,0,190
3,71,119,2
3,71,0,190
3,69,125,2
3,69,0,190
3,65,119,2
3,65,0,126
3,67,105,2
3,67,0,126
3,64,119,2
3,64,0,126
3,62,125,2
3,62,0,382
3,62,115,98
3,62,0,94
3,64,115,2
3,64,0,94
3,65,94,2
3,65,0,94
3,69,119,2
3,69,0,286
3,67,119,2
3,67,0,94
3,64,119,2
3,64,0,1150
3,75,117,578
3,75,0,94
3,74,115,2
3,74,0,94
3,72,125,2
3,72,0,286
3,69,119,2
3,69,0,94
3,75,115,2
3,75,0,94
3,72,115,2
3,72,0,94
3,74,119,2
3,74,0,94
3,74,119,2
3,74,0,94
3,72,123,2
3,72,0,382
3,72,119,98
3,72,0,94
3,72,123,2
3,72,0,94
3,72,123,2
3,72,0,190
3,72,123,2
3,72,0,94
3,72,119,2
3,72,0,94
3,69,117,2
3,69,0,94
3,67,119,2
3,67,0,766
3,62,119,2
3,62,0,190
3,66,115,2
3,66,0,190
3,69,112,2
3,69,0,286
3,69,125,2
3,69,0,94
3,74,127,2
3,74,0,94
3,74,123,2
3,74,0,94
3,71,119,2
3,71,0,94
3,69,123,2
3,69,0,382
3,69,123,2
3,69,0,94
3,76,119,2
3,76,0,94
3,72,125,2
3,72,0,94
3,76,117,2
3,76,0,94
3,72,119,2
3,72,0,94
3,76,115,2
3,76,0,94
3,72,119,2
3,72,0,94
3,76,107,2
3,76,0,94
3,72,115,2
3,72,0,94
3,67,119,2
3,67,0,190
3,71,119,2
3,71,0,190
3,71,127,2
3,71,0,190
3,69,123,2
3,69,0,190
3,64,119,2
3,64,0,766
3,71,123,194
3,71,0,190
3,71,119,2
3,71,0,190
3,69,119,2
3,69,0,190
3,65,123,2
3,65,0,126
3,67,119,2
3,67,0,126
3,64,125,2
3,64,0,126
3,62,115,2
3,62,0,382
3,71,117,194
3,71,0,190
3,71,117,2
3,71,0,190
3,69,125,2
3,69,0,190
3,65,115,2
3,65,0,126
3,67,112,2
3,67,0,126
3,64,123,2
3,64,0,126
3,62,125,2
3,62,0,382
3,62,127,98
3,62,0,94
3,64,117,2
3,64,0,94
3,65,119,2
3,65,0,94
3,69,119,2
3,69,0,190
3,62,119,2
3,62,0,190
3,60,127,2
3,60,0,1534
4,24,120,3840
4,36,120,192
4,24,0,25
4,36,0,16
4,28,120,87
4,28,0,67
4,31,120,0
4,31,0,189
4,28,120,0
4,31,120,128
4,28,0,11
4,31,0,54
4,24,120,0
4,24,0,181
4,36,120,10
4,36,0,40
4,28,120,88
4,28,0,76
4,31,120,0
4,28,120,180
4,31,0,17
4,31,120,111
4,28,0,12
4,31,0,20
4,26,120,32
4,38,120,192
4,26,0,25
4,38,0,16
4,29,120,87
4,29,0,64
4,31,120,0
4,43,120,192
4,31,0,25
4,43,0,16
4,35,120,87
4,35,0,64
4,31,120,0
4,43,120,192
4,31,0,25
4,43,0,16
4,35,120,87
4,35,0,67
4,38,120,0
4,38,0,189
4,35,120,0
4,38,120,128
4,35,0,11
4,38,0,53
4,26,120,0
4,38,120,192
4,26,0,25
4,38,0,16
4,29,120,87
4,29,0,64
4,31,120,0
4,43,120,192
4,31,0,25
4,43,0,16
4,35,120,87
4,35,0,64
4,26,120,0
4,38,120,192
4,26,0,25
4,38,0,16
4,29,120,87
4,29,0,64
4,31,120,0
4,43,120,192
4,31,0,25
4,43,0,16
4,35,120,87
4,35,0,64
4,24,120,0
4,36,120,192
4,24,0,25
4,36,0,16
4,28,120,87
4,28,0,67
4,31,120,0
4,31,0,189
4,28,120,0
4,31,120,128
4,28,0,11
4,31,0,53
4,24,120,0
4,36,120,192
4,24,0,25
4,36,0,16
4,28,120,87
4,28,0,64
4,31,120,0
4,43,120,192
4,31,0,25
4,43,0,16
4,35,120,87
4,35,0,64
4,24,120,0
4,36,120,192
4,24,0,25
4,36,0,16
4,28,120,87
4,28,0,67
4,31,120,0
4,31,0,189
4,28,120,0
4,31,120,128
4,28,0,11
4,31,0,54
4,24,120,0
4,24,0,181
4,36,120,10
4,36,0,40
4,28,120,88
4,28,0,76
4,31,120,0
4,28,120,180
4,31,0,17
4,31,120,111
4,28,0,12
4,31,0,20
4,26,120,32
4,38,120,192
4,26,0,25
4,38,0,16
4,29,120,87
4,29,0,64
4,31,120,0
4,43,120,192
4,31,0,25
4,43,0,16
4,35,120,87
4,35,0,64
4,31,120,0
4,43,120,192
4,31,0,25
4,43,0,16
4,35,120,87
4,35,0,67
4,38,120,0
4,38,0,189
4,35,120,0
4,38,120,128
4,35,0,11
4,38,0,53
4,26,120,0
4,38,120,192
4,26,0,25
4,38,0,16
4,29,120,87
4,29,0,64
4,31,120,0
4,43,120,192
4,31,0,25
4,43,0,16
4,35,120,87
4,35,0,64
4,26,120,0
4,38,120,192
4,26,0,25
4,38,0,16
4,29,120,87
4,29,0,64
4,31,120,0
4,43,120,192
4,31,0,25
4,43,0,16
4,35,120,87
4,35,0,64
4,24,120,0
4,36,120,192
4,24,0,25
4,36,0,16
4,28,120,87
4,28,0,67
4,31,120,0
4,31,0,189
4,28,120,0
4,31,120,128
4,28,0,11
4,31,0,53
4,24,120,0
4,36,120,192
4,24,0,25
4,36,0,16
4,28,120,87
4,28,0,67
4,31,120,0
4,31,0,189
4,28,120,0
4,31,120,128
4,28,0,11
4,31,0,53
4,29,120,0
4,41,120,192
4,29,0,25
4,41,0,16
4,33,120,87
4,33,0,67
4,36,120,0
4,36,0,189
4,33,120,0
4,36,120,128
4,33,0,11
4,36,0,54
4,29,120,0
4,29,0,181
4,41,120,10
4,41,0,40
4,33,120,88
4,33,0,76
4,36,120,0
4,33,120,180
4,36,0,17
4,36,120,111
4,33,0,12
4,36,0,20
4,24,120,32
4,36,120,192
4,24,0,25
4,36,0,16
4,28,120,87
4,28,0,67
4,31,120,0
4,31,0,189
4,28,120,0
4,31,120,128
4,28,0,11
4,31,0,54
4,24,120,0
4,24,0,181
4,36,120,10
4,36,0,40
4,28,120,88
4,28,0,76
4,31,120,0
4,28,120,180
4,31,0,17
4,31,120,111
4,28,0,12
4,31,0,20
4,26,120,32
4,38,120,192
4,26,0,25
4,38,0,16
4,30,120,87
4,30,0,67
4,33,120,0
4,33,0,189
4,30,120,0
4,33,120,128
4,30,0,11
4,33,0,54
4,26,120,0
4,26,0,181
4,38,120,10
4,38,0,40
4,30,120,88
4,30,0,76
4,33,120,0
4,30,120,180
4,33,0,17
4,33,120,111
4,30,0,12
4,33,0,20
4,24,120,1568
4,36,120,192
4,24,0,25
4,36,0,16
4,28,120,87
4,28,0,67
4,31,120,0
4,31,0,189
4,28,120,0
4,31,120,128
4,28,0,11
4,31,0,54
4,24,120,0
4,24,0,181
4,36,120,10
4,36,0,40
4,28,120,88
4,28,0,76
4,31,120,0
4,28,120,180
4,31,0,17
4,31,120,111
4,28,0,12
4,31,0,20
4,26,120,32
4,38,120,192
4,26,0,25
4,38,0,16
4,29,120,87
4,29,0,64
4,31,120,0
4,43,120,192
4,31,0,25
4,43,0,16
4,35,120,87
4,35,0,64
4,31,120,0
4,43,120,192
4,31,0,25
4,43,0,16
4,35,120,87
4,35,0,67
4,38,120,0
4,38,0,189
4,35,120,0
4,38,120,128
4,35,0,11
4,38,0,53
4,26,120,0
4,38,120,192
4,26,0,25
4,38,0,16
4,29,120,87
4,29,0,64
4,31,120,0
4,43,120,192
4,31,0,25
4,43,0,16
4,35,120,87
4,35,0,64
4,26,120,0
4,38,120,192
4,26,0,25
4,38,0,16
4,29,120,87
4,29,0,64
4,31,120,0
4,43,120,192
4,31,0,25
4,43,0,16
4,35,120,87
4,35,0,64
4,24,120,0
4,36,120,192
4,24,0,25
4,36,0,16
4,28,120,87
4,28,0,64
4,29,120,0
4,41,120,192
4,29,0,25
4,41,0,16
4,33,120,87
4,33,0,64
4,31,120,0
4,43,120,192
4,31,0,25
4,43,0,16
4,35,120,87
4,35,0,67
4,38,120,0
4,38,0,189
4,35,120,0
4,38,120,128
4,35,0,11
4,38,0,53
4,24,120,0
4,36,120,192
4,24,0,25
4,36,0,16
4,28,120,87
4,28,0,67
4,31,120,0
4,31,0,189
4,28,120,0
4,31,120,128
4,28,0,11
4,31,0,54
4,24,120,0
4,24,0,181
4,36,120,10
4,36,0,40
4,28,120,88
4,28,0,76
4,31,120,0
4,28,120,180
4,31,0,17
4,31,120,111
4,28,0,12
4,31,0,20
4,26,120,32
4,38,120,192
4,26,0,25
4,38,0,16
4,29,120,87
4,29,0,64
4,31,120,0
4,43,120,192
4,31,0,25
4,43,0,16
4,35,120,87
4,35,0,64
4,31,120,0
4,43,120,192
4,31,0,25
4,43,0,16
4,35,120,87
4,35,0,67
4,38,120,0
4,38,0,189
4,35,120,0
4,38,120,128
4,35,0,11
4,38,0,53
4,26,120,0
4,38,120,192
4,26,0,25
4,38,0,16
4,29,120,87
4,29,0,64
4,31,120,0
4,43,120,192
4,31,0,25
4,43,0,16
4,35,120,87
4,35,0,64
4,26,120,0
4,38,120,192
4,26,0,25
4,38,0,16
4,29,120,87
4,29,0,64
4,31,120,0
4,43,120,192
4,31,0,25
4,43,0,16
4,35,120,87
4,35,0,64
4,24,120,0
4,36,120,192
4,24,0,25
4,36,0,16
4,28,120,87
4,28,0,67
4,31,120,0
4,31,0,189
4,28,120,0
4,31,120,128
4,28,0,11
4,31,0,53
4,24,120,0
4,36,120,192
4,24,0,25
4,36,0,16
4,28,120,87
4,28,0,64
4,31,120,0
4,43,120,192
4,31,0,25
4,43,0,16
4,35,120,87
4,35,0,64
4,24,120,0
4,36,120,192
4,24,0,25
4,36,0,16
4,28,120,87
4,28,0,67
4,31,120,0
4,31,0,189
4,28,120,0
4,31,120,128
4,28,0,11
4,31,0,54
4,24,120,0
4,24,0,181
4,36,120,10
4,36,0,40
4,28,120,88
4,28,0,76
4,31,120,0
4,28,120,180
4,31,0,17
4,31,120,111
4,28,0,12
4,31,0,20
4,26,120,32
4,38,120,192
4,26,0,25
4,38,0,16
4,29,120,87
4,29,0,64
4,31,120,0
4,43,120,192
4,31,0,25
4,43,0,16
4,35,120,87
4,35,0,64
4,31,120,0
4,43,120,192
4,31,0,25
4,43,0,16
4,35,120,87
4,35,0,67
4,38,120,0
4,38,0,189
4,35,120,0
4,38,120,128
4,35,0,11
4,38,0,53
4,26,120,0
4,38,120,192
4,26,0,25
4,38,0,16
4,29,120,87
4,29,0,64
4,31,120,0
4,43,120,192
4,31,0,25
4,43,0,16
4,35,120,87
4,35,0,64
4,26,120,0
4,38,120,192
4,26,0,25
4,38,0,16
4,29,120,87
4,29,0,64
4,31,120,0
4,43,120,192
4,31,0,25
4,43,0,16
4,35,120,87
4,35,0,64
4,24,120,0
4,36,120,192
4,24,0,25
4,36,0,16
4,28,120,87
4,28,0,67
4,31,120,0
4,31,0,189
4,28,120,0
4,31,120,128
4,28,0,11
4,31,0,53
4,24,120,0
4,36,120,192
4,24,0,25
4,36,0,16
4,28,120,87
4,28,0,67
4,31,120,0
4,31,0,189
4,28,120,0
4,31,120,128
4,28,0,11
4,31,0,53
4,29,120,0
4,41,120,192
4,29,0,25
4,41,0,16
4,33,120,87
4,33,0,67
4,36,120,0
4,36,0,189
4,33,120,0
4,36,120,128
4,33,0,11
4,36,0,54
4,29,120,0
4,29,0,181
4,41,120,10
4,41,0,40
4,33,120,88
4,33,0,76
4,36,120,0
4,33,120,180
4,36,0,17
4,36,120,111
4,33,0,12
4,36,0,20
