track,note,velocity,time
1,48,74,2668
1,57,86,0
1,53,79,0
1,57,92,130
1,48,81,162
1,57,82,50
1,53,91,4
1,58,88,34
1,50,75,0
1,53,86,0
1,48,72,32
1,57,86,0
1,53,79,0
1,57,92,130
1,48,81,162
1,57,82,50
1,53,91,4
1,58,88,34
1,50,81,0
1,53,86,0
1,53,79,32
1,57,86,0
1,48,72,0
1,57,92,130
1,48,81,162
1,57,73,32
1,53,71,2
1,58,88,30
1,50,74,0
1,53,86,0
1,65,73,762
1,60,71,200
1,60,71,22
1,58,52,186
1,48,72,4
1,57,87,0
1,53,79,0
1,57,92,130
1,48,81,162
1,53,91,92
1,58,87,8
1,50,74,0
1,53,86,0
1,65,69,90
1,57,72,0
1,60,77,0
1,60,64,46
1,65,71,54
1,60,60,88
1,65,78,48
1,69,66,182
1,60,74,0
1,69,56,14
1,64,73,8
1,60,73,70
1,57,75,62
1,53,64,196
1,57,73,160
1,60,64,0
1,69,63,198
1,64,64,2
1,60,61,40
1,69,69,134
1,64,74,4
1,60,64,14
1,69,69,186
1,64,65,0
1,60,54,94
1,64,63,36
1,57,60,0
1,69,70,6
1,64,68,58
1,60,78,8
1,57,64,72
1,53,64,194
1,55,73,6
1,62,74,2
1,55,73,0
1,58,76,0
1,55,77,78
1,50,53,188
1,58,65,40
1,55,65,358
1,62,82,46
1,58,57,4
1,55,65,60
1,58,79,6
1,62,82,50
1,58,75,144
1,55,69,192
1,58,67,132
1,60,78,176
1,60,91,32
1,55,68,6
1,52,69,188
1,58,65,72
1,64,91,192
1,60,65,184
1,60,73,26
1,52,53,168
1,60,85,26
1,58,75,0
1,55,72,2
1,48,69,58
1,50,82,110
1,53,79,2
1,57,86,0
1,48,72,0
1,57,92,130
1,48,81,162
1,57,82,50
1,53,91,4
1,58,88,34
1,50,75,0
1,53,86,0
1,48,72,32
1,57,86,0
1,53,79,0
1,57,74,34
1,60,81,22
1,62,83,6
1,65,86,16
1,62,85,0
1,58,78,0
1,60,72,12
1,58,60,138
1,62,68,2
1,65,68,2
1,60,72,2
1,58,60,158
1,65,68,6
1,62,81,4
1,60,64,162
1,62,64,160
1,57,79,176
1,64,79,6
1,60,70,4
1,53,54,2
1,57,62,28
1,53,70,80
1,57,70,48
1,60,70,0
1,64,79,2
1,53,62,130
1,57,70,146
1,60,79,0
1,64,79,4
1,57,70,26
1,69,79,388
1,70,79,108
1,72,88,50
1,65,58,22
1,69,74,14
1,72,70,24
1,76,72,6
1,69,79,32
1,70,79,108
1,72,88,50
1,65,58,170
1,69,74,14
1,72,70,24
1,75,73,6
1,62,54,30
1,65,79,26
1,70,66,14
1,74,79,16
1,70,70,100
1,71,79,48
1,72,88,46
1,73,88,38
1,65,70,954
1,67,79,56
1,70,70,222
1,69,70,194
1,65,66,200
1,61,60,184
1,73,70,14
1,70,58,2
1,65,62,188
1,73,79,176
1,70,70,2
1,65,62,162
1,57,70,140
1,65,70,164
1,60,70,2
1,57,62,36
1,60,79,138
1,65,79,2
1,53,62,2
1,58,76,178
1,62,80,0
1,58,58,86
1,65,77,22
1,70,75,384
1,69,79,6
1,60,67,0
1,64,70,4
1,53,61,586
1,64,81,40
1,57,73,0
1,60,61,4
1,62,77,6
1,58,65,4
1,62,77,10
1,65,77,4
1,58,69,16
1,62,86,4
1,65,69,0
1,60,69,192
1,58,69,108
1,64,77,2
1,62,69,32
1,65,70,16
1,57,70,2
1,60,70,0
1,69,70,2
1,64,70,4
1,60,62,102
1,69,70,54
1,60,70,0
1,64,79,2
1,58,66,38
1,62,70,0
1,65,79,0
1,53,62,2
1,65,70,178
1,58,66,0
1,62,70,0
1,62,79,60
1,65,79,2
1,60,79,36
1,64,79,0
1,67,79,0
1,58,70,0
1,58,66,64
1,64,79,144
1,67,70,0
1,60,70,2
1,58,60,54
1,67,70,4
1,60,70,2
1,64,70,0
1,67,88,26
1,64,97,2
1,58,88,2
1,60,88,0
1,53,79,1398
1,57,86,0
1,48,72,0
1,57,92,130
1,48,81,162
1,57,82,50
1,53,91,4
1,58,88,34
1,50,75,0
1,53,86,0
1,48,72,32
1,57,86,0
1,53,79,0
1,57,92,130
1,48,81,162
1,57,82,50
1,53,91,4
1,58,88,34
1,50,75,0
1,53,86,0
1,65,69,32
1,57,72,0
1,60,77,0
1,60,64,46
1,65,71,54
1,60,60,88
1,65,78,48
1,69,66,182
1,60,74,0
1,69,56,14
1,64,73,8
1,60,73,70
1,57,75,62
1,53,64,196
1,57,73,160
1,60,64,0
1,69,63,198
1,64,64,2
1,60,61,40
1,69,69,134
1,64,74,4
1,60,64,14
1,69,69,186
1,64,65,0
1,60,54,94
1,64,63,36
1,57,60,0
1,69,70,6
1,64,68,58
1,60,78,8
1,57,64,72
1,53,64,194
1,55,73,6
1,62,74,2
1,55,73,0
1,58,76,0
1,55,77,78
1,50,53,188
1,58,65,40
1,55,65,358
1,62,82,46
1,58,57,4
1,55,65,60
1,58,79,6
1,62,82,50
1,58,75,144
1,55,69,192
1,58,67,132
1,60,78,176
1,60,91,32
1,55,68,6
1,52,69,188
1,58,65,72
1,64,91,192
1,60,65,184
1,60,73,26
1,52,53,168
1,60,85,26
1,58,75,0
1,55,72,2
1,48,69,58
1,50,82,110
1,53,79,2
1,57,86,0
1,48,72,0
1,57,92,130
1,48,81,162
1,57,82,50
1,53,91,4
1,58,88,34
1,50,75,0
1,53,86,0
1,48,72,32
1,57,86,0
1,53,79,0
1,57,74,34
1,60,81,22
1,62,83,6
1,65,86,16
1,62,85,0
1,58,78,0
1,60,72,12
1,58,60,138
1,62,68,2
1,65,68,2
1,60,72,2
1,58,60,158
1,65,68,6
1,62,81,4
1,60,64,162
1,62,64,160
1,57,79,176
1,64,79,6
1,60,70,4
1,53,54,2
1,57,62,28
1,53,70,80
1,57,70,48
1,60,70,0
1,64,79,2
1,53,62,130
1,57,70,146
1,60,79,0
1,64,79,4
1,57,70,26
1,69,79,388
1,70,79,108
1,72,88,50
1,65,58,22
1,69,74,14
1,72,70,24
1,76,72,6
1,69,79,32
1,70,79,108
1,72,88,50
1,65,58,170
1,69,74,14
1,72,70,24
1,75,73,6
1,62,54,30
1,65,79,26
1,70,66,14
1,74,79,16
1,70,70,100
1,71,79,48
1,72,88,46
1,73,88,38
1,65,70,954
1,67,79,56
1,70,70,222
1,69,70,194
1,65,66,200
1,61,60,184
1,73,70,14
1,70,58,2
1,65,62,188
1,73,79,176
1,70,70,2
1,65,62,162
1,57,70,140
1,65,70,164
1,60,70,2
1,57,62,36
1,60,79,138
1,65,79,2
1,53,62,2
1,58,76,178
1,62,80,0
1,58,58,86
1,65,77,22
1,70,75,384
1,69,79,6
1,60,67,0
1,64,70,4
1,53,61,586
1,64,81,40
1,57,73,0
1,60,61,4
1,62,77,6
1,58,65,4
1,62,77,10
1,65,77,4
1,58,69,16
1,62,86,4
1,65,69,0
1,60,69,192
1,58,69,108
1,64,77,2
1,62,69,32
1,65,70,16
1,57,70,2
1,60,70,0
1,69,70,2
1,64,70,4
1,60,62,102
1,69,70,54
1,60,70,0
1,64,79,2
1,58,66,38
1,62,70,0
1,65,79,0
1,53,62,2
1,65,70,178
1,58,66,0
1,62,70,0
1,62,79,60
1,65,79,2
1,60,79,36
1,64,79,0
1,67,79,0
1,58,70,0
1,58,66,64
1,64,79,144
1,67,70,0
1,60,70,2
1,58,60,54
1,67,70,4
1,60,70,2
1,64,70,0
1,67,88,26
1,64,97,2
1,58,88,2
1,60,88,0
1,53,79,1398
1,57,86,0
1,60,72,0
1,57,52,130
1,60,81,100
1,57,82,88
1,62,91,4
1,58,88,34
1,62,75,0
1,65,86,0
1,48,72,32
1,57,86,0
1,53,79,0
1,57,92,130
1,48,81,162
1,57,82,50
1,53,91,4
1,58,88,34
1,50,75,0
1,53,86,0
1,67,80,1156
1,60,64,22
1,62,73,8
1,60,91,6
1,65,82,0
1,57,73,2
1,57,73,198
1,60,82,0
1,65,73,0
1,60,69,34
1,64,79,0
1,57,61,4
1,64,73,146
1,57,73,0
1,60,82,0
1,57,82,162
1,64,82,0
1,60,73,0
1,60,81,150
1,64,91,0
1,57,74,0
1,60,86,148
1,64,91,0
1,57,74,0
1,57,82,144
1,60,91,0
1,64,91,0
1,60,73,20
1,61,64,190
1,58,91,0
1,62,82,0
1,55,73,2
1,55,73,198
1,58,82,0
1,62,73,0
1,58,69,34
1,62,79,0
1,55,61,4
1,62,73,146
1,55,73,0
1,58,82,0
1,65,82,162
1,62,73,0
1,58,82,0
1,58,74,150
1,65,91,0
1,62,81,0
1,58,74,148
1,67,91,0
1,62,86,0
1,67,91,144
1,62,91,0
1,58,82,0
1,65,73,20
1,62,64,190
1,60,91,0
1,65,82,0
1,57,73,2
1,57,73,198
1,60,82,0
1,65,73,0
1,60,69,34
1,65,79,0
1,57,61,4
1,65,73,146
1,57,73,0
1,60,82,0
1,57,82,162
1,65,82,0
1,60,73,0
1,60,81,150
1,65,91,0
1,57,74,0
1,60,86,148
1,65,91,0
1,57,74,0
1,57,82,144
1,60,91,0
1,65,91,0
1,60,73,20
1,58,91,34
1,64,82,0
1,55,73,2
1,55,73,198
1,58,82,0
1,64,73,0
1,58,69,34
1,64,79,0
1,55,61,4
1,64,73,146
1,55,73,0
1,58,82,0
1,55,75,162
1,64,75,0
1,58,66,0
1,65,73,12
1,55,73,0
1,62,82,0
1,65,73,30
1,62,73,6
1,55,48,2
1,55,73,236
1,64,82,0
1,60,82,2
1,62,91,216
1,58,73,2
1,55,73,0
1,60,82,78
1,65,79,0
1,57,64,2
1,57,64,40
1,60,83,0
1,57,74,80
1,65,90,10
1,60,81,190
1,57,64,170
1,60,82,6
1,64,78,0
1,55,64,2
1,55,64,40
1,60,83,0
1,67,81,186
1,60,74,52
1,69,87,184
1,64,81,190
1,60,64,170
1,65,82,2
1,62,82,0
1,57,73,0
1,67,73,6
1,62,73,14
1,69,82,8
1,65,73,4
1,69,73,132
1,65,86,4
1,62,83,188
1,60,73,18
1,65,91,26
1,60,73,2
1,57,64,20
1,65,82,0
1,60,82,2
1,57,60,6
1,60,82,34
1,65,91,0
1,53,56,12
1,58,73,8
1,62,82,0
1,58,73,94
1,62,91,0
1,53,64,388
1,62,91,36
1,58,91,0
1,53,64,192
1,60,82,52
1,57,73,0
1,53,60,192
1,58,91,2
1,62,91,0
1,53,56,194
1,58,82,28
1,62,82,0
1,53,56,192
1,58,91,176
1,62,91,0
1,53,64,2
1,58,82,36
1,62,91,0
1,53,64,192
1,64,82,46
1,60,91,0
1,55,56,194
1,58,64,70
1,65,91,0
1,62,82,2
1,55,73,0
1,65,82,46
1,58,82,0
1,62,91,0
1,55,64,0
1,62,91,64
1,58,73,0
1,65,82,0
1,55,73,16
1,55,91,54
1,64,91,0
1,60,91,0
1,58,82,0
1,53,79,1350
1,57,86,0
1,48,72,0
1,57,92,130
1,48,81,162
1,57,82,50
1,53,91,4
1,58,88,34
1,50,75,0
1,53,86,0
1,48,72,32
1,57,86,0
1,53,79,0
1,57,92,130
1,48,81,162
1,57,82,50
1,53,91,4
1,58,88,34
1,50,75,0
1,53,86,0
1,53,79,32
1,57,86,0
1,48,72,0
1,57,92,130
1,48,81,162
1,57,82,50
1,53,91,4
1,58,88,34
1,50,75,0
1,53,86,0
1,48,72,32
1,57,86,0
1,53,79,0
1,57,92,130
1,48,81,162
1,57,82,50
1,53,91,4
1,58,88,34
1,50,75,0
1,53,86,0
1,53,79,32
1,57,86,0
1,48,73,0
1,57,92,130
1,48,81,162
1,57,82,50
1,53,91,4
1,58,88,34
1,50,75,0
1,53,86,0
1,48,72,32
1,57,86,0
1,53,79,0
1,57,92,130
1,48,81,162
1,57,82,50
1,53,91,4
1,58,88,34
1,50,75,0
1,53,86,0
1,48,68,178
1,57,86,0
1,53,77,0
1,48,72,376
1,57,86,0
1,53,79,0
1,57,92,130
1,48,81,162
1,57,82,50
1,53,91,4
1,58,88,34
1,50,75,0
1,53,86,0
1,48,72,32
1,57,86,0
1,53,79,0
1,57,92,130
1,48,81,162
1,57,82,50
1,53,91,4
1,58,88,34
1,50,75,0
1,53,86,0
1,65,69,32
1,57,72,0
1,60,77,0
1,60,64,46
1,65,71,54
1,60,60,88
1,65,78,48
1,69,66,182
1,60,74,0
1,69,56,14
1,64,73,8
1,60,73,70
1,57,75,62
1,53,64,196
1,57,73,160
1,60,64,0
1,69,63,198
1,64,64,2
1,60,61,40
1,69,69,134
1,64,74,4
1,60,64,14
1,69,69,186
1,64,65,0
1,60,54,94
1,64,63,36
1,57,60,0
1,69,70,6
1,64,68,58
1,60,78,8
1,57,64,72
1,53,64,194
1,55,73,6
1,62,74,2
1,55,73,0
1,58,76,0
1,55,77,78
1,50,53,188
1,58,65,40
1,55,65,358
1,62,82,46
1,58,57,4
1,55,65,60
1,58,79,6
1,62,82,50
1,58,75,144
1,55,69,192
1,58,67,132
1,60,78,176
1,60,91,32
1,55,68,6
1,52,69,188
1,58,65,72
1,64,91,192
1,60,65,184
1,60,73,26
1,52,53,168
1,60,85,26
1,58,75,0
1,55,72,2
1,48,69,58
1,50,82,110
1,53,79,2
1,57,86,0
1,48,72,0
1,57,92,130
1,48,81,162
1,57,82,50
1,53,91,4
1,58,88,34
1,50,75,0
1,53,86,0
1,48,72,32
1,57,86,0
1,53,79,0
1,57,74,34
1,60,81,22
1,62,83,6
1,65,86,16
1,62,85,0
1,58,78,0
1,60,72,12
1,58,60,138
1,62,68,2
1,65,68,2
1,60,72,2
1,58,60,158
1,65,68,6
1,62,81,4
1,60,64,162
1,62,64,160
1,57,79,176
1,64,79,6
1,60,70,4
1,53,54,2
1,57,62,28
1,53,70,80
1,57,70,48
1,60,70,0
1,64,79,2
1,53,62,130
1,57,70,146
1,60,79,0
1,64,79,4
1,57,70,26
1,69,79,388
1,70,79,108
1,72,88,50
1,65,58,22
1,69,74,14
1,72,70,24
1,76,72,6
1,69,79,32
1,70,79,108
1,72,88,50
1,65,58,170
1,69,74,14
1,72,70,24
1,75,73,6
1,62,54,30
1,65,79,26
1,70,66,14
1,74,79,16
1,70,70,100
1,71,79,48
1,72,88,46
1,73,88,38
1,65,70,954
1,67,79,56
1,70,70,222
1,69,70,194
1,65,66,200
1,61,60,184
1,73,70,14
1,70,58,2
1,65,62,188
1,73,79,176
1,70,70,2
1,65,62,162
1,57,70,140
1,65,70,164
1,60,70,2
1,57,62,36
1,60,79,138
1,65,79,2
1,53,62,2
1,58,76,178
1,62,80,0
1,58,58,86
1,65,77,22
1,70,75,384
1,69,79,6
1,60,67,0
1,64,70,4
1,53,61,586
1,64,81,40
1,57,73,0
1,60,61,4
1,62,77,6
1,58,65,4
1,62,77,10
1,65,77,4
1,58,69,16
1,62,86,4
1,65,69,0
1,60,69,192
1,58,69,108
1,64,77,2
1,62,69,32
1,65,70,16
1,57,70,2
1,60,70,0
1,69,70,2
1,64,70,4
1,60,62,102
1,69,70,54
1,60,70,0
1,64,79,2
1,58,66,38
1,62,70,0
1,65,79,0
1,53,62,2
1,65,70,178
1,58,66,0
1,62,70,0
1,62,79,60
1,65,79,2
1,60,79,36
1,64,79,0
1,67,79,0
1,58,70,0
1,58,66,64
1,64,79,144
1,67,70,0
1,60,70,2
1,58,60,54
1,67,70,4
1,60,70,2
1,64,70,0
1,67,88,26
1,64,97,2
1,58,88,2
1,60,88,0
1,64,79,1398
1,57,86,0
1,60,82,0
1,57,92,130
1,60,81,162
1,57,82,50
1,64,77,4
1,58,88,34
1,62,85,0
1,65,86,0
1,60,82,32
1,57,86,0
1,64,79,0
1,57,92,130
1,60,81,162
1,57,82,50
1,64,71,4
1,58,88,34
1,62,85,0
1,53,86,0
1,64,79,32
1,57,86,0
1,60,82,0
1,57,92,130
1,60,81,162
1,57,82,50
1,64,77,4
1,58,88,34
1,62,85,0
1,65,86,0
1,60,82,32
1,57,86,0
1,64,79,0
1,57,92,130
1,60,81,162
1,57,82,50
1,64,71,4
