track,note,velocity,time
0,50,81,1148
0,57,84,8
0,62,84,12
0,66,82,8
0,50,79,0
0,57,83,0
0,62,84,4
0,66,82,4
0,50,72,0
0,59,89,0
0,62,85,0
0,66,78,0
0,50,72,0
0,57,82,0
0,62,85,0
0,66,78,0
0,66,82,0
0,50,82,0
0,57,84,0
0,62,84,0
0,50,83,0
0,57,82,0
0,62,84,0
0,66,82,8
0,50,72,0
0,59,89,0
0,62,82,0
0,66,80,0
0,50,78,0
0,57,85,8
0,62,85,12
0,66,83,8
0,38,108,164
0,38,109,0
0,50,78,0
0,57,83,8
0,62,85,12
0,66,82,8
0,38,107,0
0,50,72,0
0,59,89,0
0,62,83,0
0,66,81,0
0,38,109,0
0,50,72,0
0,57,84,0
0,62,84,0
0,66,81,0
0,38,109,0
0,66,82,0
0,50,84,0
0,57,82,0
0,62,84,0
0,33,106,0
0,50,84,0
0,57,84,0
0,62,82,0
0,66,83,8
0,35,109,0
0,50,72,0
0,59,89,8
0,62,82,12
0,66,81,0
0,33,109,0
0,50,81,0
0,57,84,8
0,62,85,0
0,66,83,0
0,38,106,56
0,38,106,0
0,50,81,0
0,57,85,0
0,62,84,11
0,66,82,8
0,40,107,0
0,50,72,0
0,59,89,8
0,62,85,12
0,66,79,8
0,38,108,0
0,50,72,0
0,57,83,0
0,62,82,0
0,66,78,0
0,41,108,0
0,50,84,0
0,66,82,0
0,57,83,0
0,62,83,0
0,42,106,0
0,50,83,0
0,57,85,0
0,62,84,0
0,66,83,8
0,33,108,0
0,50,72,0
0,59,89,0
0,62,85,0
0,66,81,0
0,35,108,0
0,50,78,0
0,57,82,8
0,62,82,12
0,66,82,8
0,40,105,56
0,38,107,0
0,40,105,0
0,38,109,0
0,50,80,0
0,57,83,4
0,62,85,0
0,66,82,0
0,47,115,0
0,40,108,0
0,50,72,0
0,59,89,0
0,62,85,12
0,66,79,8
0,40,84,0
0,38,106,0
0,50,72,0
0,57,84,0
0,62,84,0
0,66,81,0
0,40,83,68
0,40,113,0
0,41,109,0
0,50,83,0
0,66,83,0
0,57,85,0
0,62,83,0
0,40,86,76
0,45,116,0
0,42,108,0
0,50,83,0
0,57,84,0
0,62,82,0
0,66,82,8
0,40,85,68
0,40,113,0
0,33,106,0
0,50,72,0
0,59,89,0
0,62,85,0
0,66,79,0
0,40,115,0
0,35,109,0
0,50,81,0
0,57,84,0
0,62,83,0
0,66,85,0
0,35,109,0
0,49,90,0
0,38,106,0
0,50,65,0
0,66,111,0
0,57,68,0
0,62,68,0
0,66,71,0
0,42,50,0
0,38,106,0
0,50,65,0
0,57,66,4
0,62,69,12
0,66,70,8
0,40,102,0
0,42,95,0
0,35,106,0
0,50,58,0
0,64,105,0
0,59,86,0
0,62,69,0
0,66,65,0
0,35,89,0
0,42,70,0
0,33,107,0
0,50,58,0
0,62,102,0
0,57,71,0
0,62,67,0
0,66,65,0
0,35,109,0
0,42,101,0
0,38,106,0
0,50,66,0
0,66,69,0
0,57,71,0
0,62,69,0
0,42,67,0
0,38,106,0
0,50,69,0
0,57,69,0
0,62,69,0
0,66,66,8
0,40,102,0
0,42,106,0
0,35,108,0
0,50,55,0
0,59,86,0
0,62,70,0
0,66,65,0
0,42,68,0
0,33,107,0
0,50,58,0
0,62,96,0
0,57,69,4
0,62,71,12
0,66,65,8
0,35,109,0
0,42,104,0
0,31,106,0
0,43,65,0
0,59,111,0
0,50,67,4
0,55,67,12
0,59,86,8
0,42,70,0
0,31,109,0
0,43,65,0
0,62,94,0
0,50,68,4
0,55,67,12
0,59,86,8
0,40,102,0
0,42,101,0
0,35,109,0
0,43,57,0
0,62,101,0
0,52,89,4
0,55,71,12
0,59,85,8
0,35,89,0
0,42,67,0
0,38,109,0
0,43,56,0
0,59,109,0
0,50,69,0
0,55,71,0
0,59,85,0
0,35,109,0
0,42,104,0
0,33,108,0
0,45,67,0
0,61,66,0
0,64,112,0
0,52,89,0
0,57,69,0
0,42,70,0
0,33,109,0
0,45,71,0
0,52,89,0
0,57,69,0
0,61,68,8
0,40,102,0
0,42,107,0
0,37,108,0
0,45,57,0
0,62,101,0
0,54,89,0
0,57,68,0
0,61,65,0
0,42,67,0
0,40,109,0
0,45,65,0
0,62,105,0
0,52,89,4
0,57,69,12
0,61,67,8
0,35,109,0
0,42,105,0
0,38,109,0
0,50,65,0
0,57,69,4
0,62,68,12
0,66,71,8
0,42,67,0
0,38,108,0
0,50,65,0
0,57,69,4
0,62,68,12
0,66,67,8
0,40,102,0
0,42,104,0
0,35,106,0
0,50,55,0
0,57,107,0
0,59,86,4
0,62,69,12
0,66,65,8
0,35,89,0
0,42,55,0
0,33,106,0
0,50,58,0
0,57,68,0
0,62,68,0
0,66,65,0
0,35,109,0
0,42,103,0
0,38,108,0
0,66,71,0
0,50,68,0
0,57,68,0
0,62,69,0
0,42,66,0
0,35,107,0
0,50,67,0
0,57,71,0
0,62,71,0
0,66,66,8
0,40,104,0
0,42,104,0
0,33,106,0
0,50,57,0
0,59,86,0
0,62,68,0
0,66,65,0
0,42,63,0
0,38,108,0
0,50,69,0
0,57,71,4
0,62,70,12
0,66,67,8
0,35,109,0
0,42,107,0
0,50,65,0
0,57,66,0
0,62,66,0
0,66,69,0
0,42,66,0
0,38,108,0
0,50,65,0
0,57,68,4
0,62,70,12
0,66,69,8
0,40,102,0
0,42,107,0
0,35,107,0
0,50,58,0
0,59,86,0
0,62,69,0
0,66,65,0
0,35,89,0
0,42,64,0
0,33,109,0
0,50,56,0
0,57,68,0
0,62,66,0
0,66,65,0
0,35,109,0
0,42,105,0
0,38,108,0
0,66,68,0
0,50,69,0
0,57,69,0
0,62,68,0
0,42,73,0
0,35,107,0
0,50,71,0
0,57,71,0
0,62,69,0
0,66,71,8
0,40,99,0
0,42,107,0
0,33,107,0
0,50,58,0
0,59,86,0
0,62,68,0
0,66,65,0
0,46,95,0
0,35,106,0
0,50,65,0
0,64,103,0
0,57,71,0
0,62,68,0
0,66,66,0
0,35,109,0
0,42,101,0
0,38,107,0
0,50,65,0
0,66,105,0
0,57,66,4
0,62,68,8
0,66,66,8
0,42,60,0
0,38,106,0
0,50,65,0
0,57,69,0
0,62,69,0
0,66,71,0
0,40,102,0
0,42,95,0
0,35,108,0
0,50,57,0
0,64,90,0
0,59,86,0
0,62,69,0
0,66,65,0
0,35,89,0
0,42,70,0
0,33,107,0
0,50,57,0
0,62,94,0
0,57,69,0
0,62,66,0
0,66,65,0
0,35,109,0
0,42,101,0
0,38,106,0
0,50,69,0
0,66,68,0
0,57,67,0
0,62,71,0
0,42,67,0
0,38,106,0
0,50,71,0
0,57,66,0
0,62,71,0
0,66,68,8
0,40,102,0
0,42,106,0
0,35,106,0
0,50,56,0
0,59,86,0
0,62,69,0
0,66,65,0
0,42,68,0
0,33,108,0
0,50,56,0
0,62,103,0
0,57,71,4
0,62,66,12
0,66,65,8
0,35,109,0
0,42,103,0
0,31,109,0
0,43,65,0
0,59,110,0
0,50,69,4
0,55,67,12
0,59,86,8
0,42,70,0
0,31,106,0
0,43,65,0
0,62,94,0
0,50,71,4
0,55,71,12
0,59,86,8
0,40,102,0
0,42,101,0
0,35,106,0
0,43,58,0
0,62,101,0
0,52,89,4
0,55,71,12
0,59,85,8
0,35,89,0
0,42,67,0
0,38,107,0
0,43,58,0
0,59,111,0
0,50,71,0
0,55,66,0
0,59,85,0
0,35,109,0
0,42,105,0
0,33,109,0
0,45,67,0
0,61,68,0
0,64,112,0
0,52,89,0
0,57,71,0
0,42,70,0
0,33,108,0
0,45,68,0
0,52,89,0
0,57,70,0
0,61,68,8
0,40,102,0
0,42,107,0
0,37,109,0
0,45,55,0
0,62,101,0
0,54,89,0
0,57,68,0
0,61,65,0
0,42,67,0
0,40,108,0
0,45,65,0
0,62,103,0
0,52,89,4
0,57,69,12
0,61,66,8
0,35,109,0
0,42,106,0
0,38,109,0
0,50,65,0
0,57,66,4
0,62,66,12
0,66,69,8
0,42,67,0
0,38,109,0
0,50,65,0
0,57,67,4
0,62,71,12
0,66,67,8
0,40,102,0
0,42,103,0
0,35,106,0
0,50,56,0
0,59,86,4
0,62,66,12
0,66,65,8
0,35,89,0
0,42,55,0
0,33,109,0
0,50,58,0
0,57,67,0
0,62,69,0
0,66,65,0
0,35,109,0
0,42,106,0
0,38,109,0
0,66,71,0
0,50,71,0
0,57,69,0
0,62,66,0
0,42,66,0
0,35,109,0
0,50,71,0
0,57,69,0
0,62,69,0
0,66,68,4
0,40,104,0
0,42,105,0
0,33,108,0
0,50,55,0
0,59,86,0
0,62,66,0
0,66,65,0
0,42,63,0
0,38,109,0
0,50,71,0
0,57,67,4
0,62,71,12
0,66,68,8
0,35,109,0
0,42,107,0
0,50,65,0
0,57,71,0
0,62,66,0
0,66,69,0
0,42,66,0
0,38,107,0
0,50,65,0
0,57,71,4
0,62,66,12
0,66,69,8
0,40,102,0
0,42,107,0
0,35,108,0
0,50,55,0
0,59,86,0
0,62,71,0
0,66,65,0
0,35,89,0
0,42,64,0
0,33,108,0
0,50,57,0
0,57,68,0
0,62,71,0
0,66,65,0
0,35,109,0
0,42,103,0
0,38,109,0
0,66,68,0
0,50,67,0
0,57,66,0
0,62,69,0
0,42,73,0
0,35,107,0
0,50,67,0
0,57,69,0
0,62,71,0
0,66,68,8
0,40,99,0
0,42,107,0
0,33,106,0
0,50,55,0
0,59,86,0
0,62,68,0
0,66,65,0
0,46,101,0
0,35,109,0
0,50,65,0
0,57,66,0
0,62,67,0
0,66,71,0
0,35,109,0
0,42,106,0
0,38,106,0
0,50,65,0
0,66,107,0
0,57,66,4
0,62,66,12
0,66,69,8
0,42,50,0
0,38,107,0
0,50,65,0
0,57,66,0
0,62,66,0
0,66,66,0
0,40,102,0
0,42,95,0
0,35,109,0
0,50,58,0
0,64,95,0
0,59,86,0
0,62,69,0
0,66,65,0
0,35,89,0
0,42,70,0
0,33,107,0
0,50,57,0
0,62,103,0
0,57,67,0
0,62,71,0
0,66,65,0
0,35,109,0
0,42,101,0
0,38,108,0
0,50,66,0
0,66,67,0
0,57,71,0
0,62,68,0
0,42,67,0
0,38,109,0
0,50,69,0
0,57,68,0
0,62,68,0
0,66,71,7
0,40,102,0
0,42,104,0
0,35,109,0
0,50,56,0
0,59,86,0
0,62,71,0
0,66,65,0
0,42,68,0
0,33,106,0
0,50,55,0
0,62,99,0
0,57,68,4
0,62,66,12
0,66,65,8
0,35,109,0
0,42,103,0
0,31,109,0
0,43,65,0
0,59,110,0
0,50,66,4
0,55,68,12
0,59,86,8
0,42,70,0
0,31,108,0
0,43,65,0
0,62,105,0
0,50,68,4
0,55,69,12
0,59,86,8
0,40,102,0
0,42,101,0
0,35,106,0
0,43,55,0
0,62,106,0
0,52,89,4
0,55,68,12
0,59,85,8
0,35,89,0
0,42,67,0
0,38,107,0
0,43,57,0
0,59,105,0
0,50,69,0
0,55,68,0
0,59,85,0
0,35,109,0
0,42,106,0
0,33,106,0
0,45,71,0
0,61,68,0
0,64,107,0
0,52,89,0
0,57,71,0
0,42,70,0
0,33,108,0
0,45,68,0
0,52,89,0
0,57,67,0
0,61,69,8
0,40,102,0
0,42,107,0
0,37,106,0
0,45,55,0
0,62,96,0
0,54,89,0
0,57,68,0
0,61,65,0
0,42,67,0
0,40,106,0
0,45,65,0
0,62,109,0
0,52,89,4
0,57,68,12
0,61,71,8
0,35,109,0
0,42,105,0
0,38,106,0
0,50,65,0
0,57,68,4
0,62,66,12
0,66,71,8
0,42,67,0
0,38,108,0
0,50,65,0
0,57,69,4
0,62,66,12
0,66,68,8
0,40,102,0
0,42,104,0
0,35,108,0
0,50,57,0
0,57,109,0
0,59,86,4
0,62,67,12
0,66,65,8
0,35,89,0
0,42,55,0
0,33,109,0
0,50,58,0
0,57,66,0
0,62,69,0
0,66,65,0
0,35,109,0
0,42,104,0
0,38,106,0
0,66,68,0
0,50,66,0
0,57,69,0
0,62,71,0
0,42,66,0
0,35,108,0
0,50,69,0
0,57,66,0
0,62,66,0
0,66,71,8
0,40,104,0
0,42,106,0
0,33,108,0
0,50,55,0
0,59,86,0
0,62,71,0
0,66,65,0
0,42,63,0
0,38,106,0
0,50,69,0
0,57,67,4
0,62,67,12
0,66,68,8
0,35,109,0
0,42,107,0
0,50,65,0
0,57,69,0
0,62,69,0
0,66,66,0
0,42,66,0
0,38,106,0
0,50,65,0
0,57,67,4
0,62,71,12
0,66,71,8
0,40,102,0
0,42,107,0
0,35,106,0
0,50,58,0
0,59,86,0
0,62,69,0
0,66,65,0
0,35,89,0
0,42,64,0
0,33,108,0
0,50,55,0
0,57,71,0
0,62,67,0
0,66,65,0
0,35,109,0
0,42,106,0
0,38,109,0
0,66,71,0
0,50,66,0
0,57,69,0
0,62,71,0
0,42,73,0
0,35,107,0
0,50,67,0
0,57,71,0
0,62,69,0
0,66,69,8
0,40,99,0
0,42,107,0
0,33,108,0
0,50,57,0
0,59,86,0
0,62,71,0
0,66,65,0
0,46,101,0
0,35,106,0
0,50,65,0
0,57,71,0
0,62,69,0
0,66,67,0
0,35,109,0
0,49,90,0
0,38,106,0
0,50,65,0
0,66,111,0
0,57,70,4
0,62,69,12
0,66,71,8
0,42,50,0
0,38,107,0
0,50,65,0
0,57,66,0
0,62,67,0
0,66,69,0
0,40,102,0
0,42,95,0
0,35,106,0
0,50,56,0
0,64,105,0
0,59,86,0
0,62,67,0
0,66,65,0
0,35,89,0
0,42,70,0
0,33,106,0
0,50,55,0
0,62,107,0
0,57,66,0
0,62,71,0
0,66,65,0
0,35,109,0
0,42,101,0
0,38,109,0
0,50,71,0
0,66,66,0
0,57,69,0
0,62,68,0
0,42,67,0
0,38,107,0
0,50,68,0
0,57,68,0
0,62,66,0
0,66,71,8
0,40,102,0
0,42,103,0
0,35,109,0
0,50,55,0
0,59,86,0
0,62,71,0
0,66,65,0
0,42,68,0
0,33,107,0
0,50,58,0
0,57,99,0
0,57,68,4
0,62,68,12
0,66,65,8
0,35,109,0
0,42,103,0
0,31,106,0
0,43,65,0
0,59,102,0
0,50,66,4
0,55,66,12
0,59,86,8
0,42,70,0
0,31,106,0
0,43,65,0
0,62,110,0
0,50,66,4
0,55,71,12
0,59,86,8
0,40,102,0
0,42,101,0
0,35,108,0
0,43,58,0
0,62,101,0
0,52,89,4
0,55,67,12
0,59,85,8
0,35,89,0
0,42,67,0
0,38,108,0
0,43,55,0
0,59,111,0
0,50,69,0
0,55,68,0
0,59,85,0
0,35,109,0
0,42,103,0
0,33,109,0
0,45,68,0
0,61,68,0
0,64,111,0
0,52,89,0
0,57,68,0
0,42,70,0
0,33,109,0
0,45,67,0
0,52,89,0
0,57,68,0
0,61,71,8
0,40,102,0
0,42,107,0
0,37,106,0
0,45,58,0
0,62,96,0
0,54,89,0
0,57,68,0
0,61,65,0
0,42,67,0
0,40,107,0
0,45,65,0
0,62,111,0
0,52,89,4
0,57,68,12
0,61,67,8
0,35,109,0
0,42,104,0
0,38,107,0
0,50,65,0
0,57,67,4
0,62,69,12
0,66,69,8
0,42,67,0
0,38,109,0
0,50,65,0
0,57,67,4
0,62,71,12
0,66,68,8
0,40,102,0
0,42,104,0
0,35,108,0
0,50,58,0
0,59,86,4
0,62,67,12
0,66,65,8
0,35,89,0
0,42,55,0
0,33,107,0
0,50,56,0
0,57,68,0
0,62,71,0
0,66,65,0
0,35,109,0
0,42,105,0
0,38,108,0
0,66,71,0
0,50,68,0
0,57,69,0
0,62,69,0
0,42,66,0
0,35,108,0
0,50,70,0
0,57,67,0
0,62,71,0
0,66,70,8
0,40,104,0
0,42,105,0
0,33,106,0
0,50,58,0
0,59,86,0
0,62,71,0
0,66,65,0
0,42,63,0
0,38,107,0
0,50,71,0
0,57,68,4
0,62,69,12
0,66,68,8
0,35,109,0
0,40,111,0
0,42,107,0
0,50,65,0
0,57,68,0
0,62,67,0
0,66,68,0
0,40,112,0
0,42,66,0
0,38,108,0
