track,note,velocity,time
0,34,112,443
0,46,104,0
0,53,101,117
0,62,101,120
0,46,94,7
0,53,104,22
0,62,99,0
0,53,74,10
0,63,74,0
0,46,94,22
0,53,101,10
0,62,101,0
0,53,74,7
0,63,76,0
0,46,121,13
0,46,96,2
0,53,94,10
0,62,87,0
0,48,124,8
0,46,71,13
0,63,80,2
0,53,80,0
0,46,54,18
0,46,69,5
0,46,61,18
0,46,69,10
0,34,112,10
0,46,104,0
0,41,118,15
0,53,101,95
0,62,101,120
0,46,94,10
0,53,104,22
0,62,99,0
0,53,74,10
0,63,74,0
0,46,109,5
0,62,82,5
0,53,82,0
0,63,102,3
0,53,102,0
0,46,91,7
0,62,87,3
0,53,94,0
0,58,81,0
0,60,70,0
0,34,112,5
0,46,104,0
0,62,98,0
0,53,101,5
0,60,87,0
0,62,101,2
0,58,78,0
0,46,94,5
0,53,104,10
0,62,99,0
0,53,74,5
0,63,74,0
0,46,94,22
0,53,101,10
0,62,101,0
0,53,74,7
0,63,76,0
0,46,96,10
0,53,94,2
0,62,87,0
0,46,71,0
0,63,80,2
0,53,80,0
0,46,54,3
0,46,69,5
0,46,61,3
0,46,69,0
0,34,112,10
0,46,104,0
0,53,101,5
0,62,101,2
0,46,94,2
0,53,104,2
0,62,99,0
0,53,74,7
0,63,74,0
0,46,109,5
0,62,82,5
0,53,82,0
0,63,102,3
0,53,102,0
0,46,91,7
0,62,87,3
0,53,94,0
0,58,90,0
0,58,81,0
0,38,112,0
0,62,98,0
0,45,87,0
0,65,40,3
0,65,107,0
0,50,87,7
0,65,17,3
0,53,101,68
0,65,113,0
0,62,106,0
0,65,41,3
0,57,96,30
0,65,102,0
0,65,17,0
0,67,113,0
0,38,112,5
0,45,97,0
0,65,43,3
0,65,108,0
0,50,96,10
0,65,15,3
0,65,105,0
0,53,106,10
0,62,106,5
0,65,41,3
0,41,99,7
0,57,91,0
0,65,95,0
0,65,21,0
0,40,106,15
0,65,84,0
0,39,112,2
0,46,101,0
0,65,105,0
0,65,45,0
0,51,101,17
0,63,90,0
0,65,15,0
0,63,104,0
0,55,102,22
0,63,102,5
0,63,108,0
0,65,41,0
0,43,112,0
0,63,96,0
0,58,92,0
0,65,14,3
0,41,112,0
0,60,104,0
0,48,94,0
0,65,43,3
0,60,91,0
0,53,94,0
0,65,18,3
0,62,101,0
0,57,101,0
0,65,102,5
0,65,41,3
0,41,91,0
0,60,93,0
0,60,87,0
0,65,17,3
0,38,101,0
0,58,74,0
0,34,112,7
0,46,104,0
0,58,92,0
0,35,70,0
0,65,51,0
0,53,101,2
0,62,82,0
0,62,101,62
0,86,101,3
0,89,92,2
0,46,94,7
0,53,104,7
0,62,99,0
0,53,74,5
0,63,74,0
0,46,94,10
0,53,101,2
0,62,101,0
0,53,74,0
0,63,76,0
0,46,96,0
0,70,107,8
0,53,94,0
0,62,87,0
0,72,82,8
0,65,82,0
0,46,71,5
0,63,80,2
0,53,80,0
0,46,54,3
0,72,104,5
0,34,82,5
0,46,69,0
0,70,71,3
0,65,71,0
0,46,61,3
0,46,69,3
0,70,85,2
0,65,85,0
0,34,108,5
0,46,104,0
0,65,106,0
0,74,71,8
0,70,71,0
0,53,101,0
0,62,101,0
0,46,94,10
0,53,104,22
0,62,99,0
0,53,74,0
0,63,74,0
0,46,109,5
0,62,82,0
0,53,82,0
0,63,102,0
0,53,102,0
0,46,91,2
0,62,87,3
0,53,94,0
0,58,84,0
0,60,95,0
0,34,112,2
0,46,104,0
0,62,106,0
0,62,77,0
0,65,77,0
0,53,101,2
0,60,94,0
0,58,87,0
0,62,101,5
0,46,94,5
0,53,104,12
0,62,99,0
0,53,74,10
0,63,74,0
0,46,94,7
0,53,101,2
0,62,101,0
0,53,74,0
0,63,76,0
0,46,96,0
0,53,94,7
0,62,87,0
0,46,71,3
0,63,80,2
0,53,80,0
0,46,54,3
0,46,69,5
0,46,61,3
0,46,69,0
0,34,110,10
0,46,104,0
0,65,109,5
0,53,101,2
0,62,101,5
0,46,94,10
0,53,104,5
0,62,99,0
0,53,74,10
0,63,74,0
0,46,109,5
0,62,82,5
0,53,82,0
0,63,102,3
0,53,102,0
0,46,91,7
0,62,107,3
0,62,87,0
0,53,94,0
0,60,104,7
0,58,82,0
0,58,80,0
0,38,112,0
0,57,104,0
0,62,106,0
0,45,87,0
0,69,76,3
0,65,79,0
0,65,87,0
0,69,108,0
0,65,38,0
0,50,102,2
0,65,102,0
0,50,87,0
0,65,14,3
0,53,101,38
0,65,111,0
0,62,106,2
0,65,41,3
0,65,98,0
0,57,96,0
0,65,13,3
0,38,96,2
0,67,115,0
0,38,108,10
0,45,97,0
0,65,43,3
0,65,102,0
0,50,96,2
0,65,14,3
0,65,111,0
0,53,106,0
0,62,106,5
0,65,41,3
0,65,101,0
0,41,99,2
0,57,91,0
0,65,21,3
0,40,96,0
0,65,90,0
0,65,109,0
0,70,79,2
0,67,76,0
0,58,104,0
0,70,90,0
0,67,73,0
0,39,112,2
0,67,108,0
0,63,73,0
0,46,101,0
0,51,111,3
0,65,45,0
0,63,97,0
0,63,112,0
0,51,101,2
0,65,17,3
0,63,97,0
0,55,102,30
0,63,109,0
0,63,102,2
0,65,41,3
0,43,97,0
0,62,94,0
0,58,92,0
0,65,14,3
0,60,112,0
0,69,71,3
0,72,76,2
0,69,76,0
0,65,73,0
0,60,104,3
0,41,112,0
0,53,104,0
0,48,94,0
0,65,43,3
0,72,106,2
0,69,106,0
0,53,94,30
0,60,88,0
0,65,14,0
0,62,105,0
0,57,101,50
0,65,102,5
0,65,41,3
0,41,87,30
0,41,99,0
0,60,106,0
0,60,87,0
0,65,18,3
0,38,102,7
0,58,88,0
0,58,103,0
0,65,74,0
0,70,74,0
0,58,106,0
0,46,97,0
0,34,111,0
0,65,83,0
0,70,106,0
0,62,71,0
0,46,104,0
0,65,71,3
0,35,75,0
0,65,54,0
0,53,101,5
0,62,95,0
0,62,101,47
0,46,94,5
0,53,104,0
0,62,99,0
0,34,111,2
0,53,74,0
0,63,74,0
0,46,108,3
0,46,94,0
0,53,101,0
0,62,101,0
0,53,74,5
0,63,76,0
0,46,96,0
0,46,106,0
0,53,94,2
0,62,87,0
0,72,77,8
0,65,77,0
0,46,71,0
0,63,80,2
0,53,80,0
0,46,54,0
0,34,102,2
0,46,69,0
0,70,66,3
0,65,66,0
0,46,61,5
0,46,69,0
0,70,80,2
0,65,80,0
0,34,112,5
0,41,108,0
0,46,104,0
0,70,66,3
0,74,66,0
0,53,101,0
0,62,101,2
0,46,94,10
0,53,104,22
0,62,99,0
0,62,106,3
0,34,112,10
0,53,74,0
0,63,74,0
0,46,109,5
0,62,82,5
0,53,82,0
0,63,102,3
0,53,102,0
0,63,103,2
0,46,91,2
0,62,87,3
0,53,94,0
0,62,120,0
0,62,101,0
0,38,102,2
0,65,119,0
0,65,103,5
0,39,112,2
0,62,104,0
0,77,72,2
0,41,112,0
0,41,87,0
0,69,72,0
0,65,125,0
0,35,67,0
0,48,87,17
0,65,102,0
0,69,54,2
0,41,94,0
0,77,56,3
0,35,42,0
0,69,70,13
0,53,101,0
0,77,72,0
0,65,125,0
0,41,112,5
0,60,106,0
0,65,57,3
0,57,96,82
0,41,94,7
0,35,40,3
0,41,112,5
0,41,97,0
0,35,67,3
0,48,96,35
0,69,60,42
0,77,60,3
0,41,94,2
0,65,108,0
0,35,47,0
0,69,79,10
0,77,79,3
0,53,106,2
0,62,86,0
0,41,85,3
0,74,86,0
0,41,92,2
0,60,106,0
0,65,85,0
0,65,57,3
0,77,85,0
0,65,127,0
0,69,74,2
0,77,76,0
0,65,123,0
0,62,93,0
0,43,112,2
0,57,91,0
0,65,95,0
0,74,93,0
0,41,95,3
0,77,95,0
0,69,59,10
0,77,61,3
0,40,101,2
0,35,50,3
0,65,104,0
0,63,124,0
0,79,76,3
0,63,106,0
0,39,127,0
0,75,124,0
0,70,77,2
0,39,112,0
0,46,101,0
0,67,127,0
0,67,127,0
0,35,67,0
0,79,127,0
0,51,101,7
0,39,94,7
0,35,42,3
0,55,102,0
0,39,112,5
0,63,102,0
0,65,58,3
0,72,73,0
0,65,109,0
0,77,74,2
0,38,97,0
0,58,92,0
0,36,104,5
0,35,40,0
0,62,104,0
0,62,127,3
0,65,127,2
0,74,127,0
0,77,127,3
0,70,70,2
0,74,72,3
0,46,127,0
0,34,112,0
0,58,94,0
0,46,94,0
0,35,67,3
0,62,106,2
0,53,94,2
0,34,92,7
0,35,47,0
0,58,101,7
0,34,112,2
0,65,102,0
0,65,95,3
0,65,58,0
0,70,100,0
0,72,100,3
0,62,87,32
0,74,102,3
0,75,107,0
0,34,89,0
0,35,50,3
0,77,118,0
0,67,85,5
0,70,87,0
0,67,106,2
0,75,123,0
0,67,125,0
0,39,112,2
0,46,87,0
0,79,121,0
0,51,93,0
0,55,96,0
0,35,67,0
0,55,104,0
0,67,123,0
0,51,87,0
0,39,94,5
0,67,108,0
0,35,42,0
0,55,101,13
0,67,125,0
0,39,112,2
0,63,106,0
0,65,57,3
0,58,96,82
0,67,108,0
0,44,96,2
0,35,40,3
0,65,107,0
0,69,77,0
0,72,85,0
0,41,112,0
0,67,127,0
0,53,102,0
0,57,107,0
0,41,97,0
0,77,127,0
0,77,120,0
0,35,67,0
0,57,98,2
0,67,115,0
0,65,120,0
0,48,96,0
0,41,90,5
0,35,47,3
0,53,106,15
0,41,112,5
0,60,106,0
0,65,118,0
0,65,57,0
0,29,101,7
0,57,91,0
0,75,120,3
0,63,116,0
0,75,112,0
0,33,101,22
0,35,50,3
0,70,85,2
0,65,77,2
0,58,107,0
0,62,108,0
0,62,106,3
0,34,112,2
0,58,98,0
0,62,104,0
0,46,101,0
0,74,127,0
0,74,121,0
0,35,67,0
0,53,101,5
0,34,87,5
0,35,42,3
0,58,102,7
0,34,99,5
0,65,102,0
0,65,57,3
0,62,92,7
0,34,87,2
0,35,40,0
0,34,103,2
0,46,94,0
0,35,67,3
0,34,112,5
0,53,94,0
0,34,86,2
0,35,47,3
0,58,101,0
0,34,112,5
0,65,102,0
0,62,118,0
0,65,58,0
0,62,104,0
0,65,119,0
0,38,89,2
0,62,87,0
0,39,99,0
0,62,105,0
0,35,50,0
0,81,120,3
0,77,72,0
0,41,112,0
0,65,127,0
0,41,87,0
0,69,72,3
0,69,107,0
0,35,67,0
0,57,127,0
0,77,127,0
0,69,118,2
0,81,127,3
0,48,87,7
0,65,111,0
0,69,54,12
0,41,97,0
0,77,56,3
0,35,42,0
0,69,70,13
0,53,101,0
0,77,72,2
0,65,127,0
0,41,112,2
0,60,106,0
0,65,60,3
0,58,127,0
0,57,96,0
0,70,118,0
0,79,127,0
0,82,120,3
0,82,127,0
0,70,106,2
0,41,97,5
0,35,40,0
0,69,106,2
0,57,127,0
0,41,112,2
0,41,97,0
0,81,114,0
0,35,67,0
0,77,127,0
0,69,118,2
0,81,127,3
0,41,109,10
0,48,96,27
0,69,60,5
0,77,60,0
0,65,105,0
0,41,96,2
0,35,47,3
0,69,79,10
0,77,79,3
0,53,106,2
0,41,112,0
0,67,109,0
0,60,106,0
0,65,58,3
0,70,120,0
0,69,74,5
0,77,76,3
0,41,94,2
0,57,91,0
0,77,127,3
0,57,127,2
0,69,118,3
0,81,127,0
0,40,101,32
0,35,50,3
0,72,127,0
0,55,127,0
0,79,76,3
0,67,118,0
0,70,77,2
0,39,112,0
0,46,101,0
0,75,127,0
0,67,106,3
0,82,114,0
0,55,109,0
0,35,67,0
0,79,127,0
0,63,95,2
0,67,102,0
0,70,122,0
0,51,101,0
0,39,101,57
0,35,42,3
0,55,102,2
0,39,112,5
0,63,102,0
0,61,92,0
0,65,58,0
0,70,119,0
0,58,92,0
0,72,73,3
0,77,74,2
0,39,96,7
0,35,40,3
0,70,70,2
0,74,72,0
0,65,106,0
0,67,127,0
0,65,118,0
0,53,127,0
0,34,112,2
0,65,91,0
0,62,103,0
0,46,111,0
0,46,94,0
0,74,127,0
0,77,118,3
0,35,67,0
0,77,127,0
0,53,94,10
0,65,111,0
0,34,90,42
0,35,47,3
0,58,101,5
0,34,112,2
0,65,102,0
0,77,106,3
0,65,61,0
0,79,106,3
0,81,108,0
0,62,87,2
0,82,111,0
0,84,112,0
0,38,92,5
0,35,50,3
0,86,113,3
0,51,97,0
0,70,83,0
0,51,109,0
0,67,83,0
0,67,126,0
0,55,97,0
0,39,112,2
0,89,117,0
0,51,45,0
0,35,67,0
0,63,91,0
0,67,102,0
0,58,89,0
0,63,90,0
0,67,108,0
0,51,35,0
0,67,122,0
0,67,108,0
0,69,83,3
0,65,83,0
0,50,99,0
0,53,99,0
0,38,112,0
0,62,79,0
0,65,96,0
0,50,108,0
0,35,67,0
0,51,35,0
0,65,119,0
0,57,97,0
0,62,92,5
0,65,99,0
0,65,109,0
0,51,37,0
0,65,94,0
0,67,83,3
0,51,94,0
0,63,80,2
0,55,94,0
0,36,112,2
0,48,106,0
0,35,67,0
0,51,41,0
0,63,111,0
0,63,82,0
0,67,89,0
0,60,92,0
0,63,94,5
0,63,97,0
0,62,94,0
0,51,26,0
0,58,80,0
0,69,86,0
0,65,86,3
0,51,90,0
0,65,75,0
0,69,87,0
0,53,89,0
0,29,112,0
0,60,95,0
0,51,38,0
0,41,108,3
0,35,57,0
0,59,28,0
0,57,94,0
0,60,97,5
0,65,94,0
0,58,98,0
0,60,90,0
0,62,105,0
0,46,104,0
0,63,107,0
0,53,101,5
0,60,98,0
0,62,101,0
0,62,107,8
0,46,94,7
0,58,84,0
0,53,104,22
0,62,99,0
0,53,74,10
0,63,74,0
0,46,94,22
0,53,101,5
0,62,101,0
0,53,74,2
0,63,76,0
0,46,96,0
0,53,94,0
0,62,87,0
0,46,71,3
0,63,80,2
0,53,80,0
0,46,54,3
0,46,69,0
0,46,61,5
0,46,69,3
0,60,104,2
0,34,112,5
0,46,104,0
0,53,101,2
0,58,104,10
0,62,101,20
0,46,94,10
0,53,104,22
0,62,99,0
0,53,74,2
0,63,74,0
0,46,109,5
0,62,82,0
0,53,82,0
0,63,102,3
0,53,102,0
0,46,91,7
0,62,87,0
0,53,94,0
0,34,103,10
0,58,94,0
0,58,80,0
0,38,112,0
0,45,87,0
0,57,110,0
0,62,105,0
0,53,106,2
0,65,106,0
0,50,87,30
0,65,119,0
0,65,105,0
0,53,101,18
0,65,116,0
0,62,106,0
0,65,50,3
0,65,101,0
0,57,96,0
0,65,114,0
0,38,112,0
0,67,118,0
0,45,97,0
0,65,101,0
0,50,96,0
0,65,97,0
0,53,106,20
0,62,106,0
0,65,48,3
0,41,97,5
0,57,91,0
0,40,96,7
0,65,114,0
0,51,105,0
0,39,112,2
0,46,101,0
0,67,106,3
0,63,109,0
0,51,101,0
0,63,92,0
0,55,102,30
0,63,112,0
0,63,102,2
0,65,49,3
0,63,104,0
0,43,97,2
0,58,92,0
0,42,96,0
0,62,88,0
0,60,106,0
0,65,107,3
0,41,112,2
0,48,94,0
0,48,101,8
0,53,94,25
0,60,105,0
0,57,101,7
0,62,121,0
0,65,102,2
0,65,50,3
0,41,97,17
0,60,109,0
0,50,101,2
0,60,87,0
0,38,104,3
0,63,106,0
0,65,39,0
0,65,31,23
0,36,97,0
0,58,82,0
0,51,96,3
0,65,43,15
0,46,105,2
0,34,112,0
0,58,105,0
0,46,104,0
0,65,56,0
0,62,106,5
0,53,101,2
0,62,92,0
0,62,101,65
0,46,94,10
0,53,104,10
0,62,99,0
0,34,112,2
0,53,74,0
0,63,74,0
0,46,94,2
0,53,101,5
0,62,101,0
0,53,74,0
0,63,76,0
0,46,96,2
0,43,105,0
0,53,94,7
0,62,87,0
0,72,82,5
0,65,82,0
0,46,71,5
0,63,80,2
0,53,80,0
0,41,105,0
0,65,38,0
0,46,54,0
0,65,29,0
0,34,97,5
0,46,69,0
0,70,71,3
0,65,71,0
0,46,61,3
0,65,41,5
0,46,69,5
0,70,85,2
