track,note,velocity,time
0,42,72,1122
0,34,81,4
0,35,100,0
0,34,82,0
0,77,50,4
0,74,50,12
0,77,50,44
0,74,50,36
0,77,50,36
0,74,50,44
0,77,50,28
0,42,72,12
0,74,50,12
0,77,50,32
0,85,84,4
0,42,72,4
0,38,86,4
0,74,50,4
0,77,50,28
0,74,50,44
0,77,50,0
0,85,84,20
0,42,72,4
0,41,81,4
0,35,100,0
0,38,86,0
0,41,82,2
0,74,50,4
0,77,50,0
0,74,50,44
0,77,50,16
0,42,72,16
0,46,81,4
0,35,100,0
0,46,82,2
0,74,50,0
0,77,50,8
0,74,50,48
0,77,50,20
0,42,72,24
0,74,50,8
0,77,50,0
0,74,50,0
0,85,84,20
0,42,72,4
0,41,81,4
0,37,115,0
0,41,82,4
0,74,50,0
0,77,50,4
0,74,50,48
0,42,72,28
0,74,50,4
0,77,50,32
0,74,50,4
0,77,50,40
0,42,72,16
0,34,81,4
0,35,100,0
0,34,82,4
0,74,50,4
0,77,50,4
0,74,50,48
0,77,50,4
0,74,50,52
0,77,50,0
0,42,72,16
0,74,50,0
0,85,84,4
0,77,50,0
0,42,72,4
0,38,86,4
0,74,50,24
0,77,50,8
0,74,50,48
0,85,84,24
0,42,72,4
0,41,81,4
0,35,100,0
0,38,86,0
0,41,82,2
0,77,50,0
0,74,50,36
0,77,50,12
0,74,50,4
0,42,72,12
0,46,81,4
0,35,100,0
0,46,82,0
0,77,50,4
0,74,50,44
0,77,50,20
0,74,50,44
0,42,72,12
0,77,50,8
0,74,50,4
0,77,50,4
0,85,84,40
0,42,72,4
0,41,81,4
0,37,115,0
0,41,82,0
0,74,50,0
0,77,50,12
0,74,50,48
0,77,50,12
0,42,72,12
0,74,50,16
0,77,50,8
0,74,50,32
0,42,72,0
0,34,81,4
0,35,100,0
0,34,82,0
0,77,50,4
0,74,50,32
0,77,50,8
0,74,50,44
0,77,50,16
0,74,50,40
0,42,72,12
0,77,50,4
0,74,50,28
0,85,84,4
0,42,72,4
0,38,86,4
0,77,50,4
0,74,50,56
0,77,50,12
0,85,84,36
0,42,72,4
0,41,81,4
0,35,100,0
0,38,86,0
0,41,82,2
0,74,50,6
0,77,50,12
0,74,50,52
0,77,50,8
0,42,72,16
0,46,81,4
0,35,100,0
0,46,82,4
0,74,50,8
0,77,50,8
0,74,50,52
0,42,72,4
0,43,81,4
0,77,50,0
0,43,82,4
0,74,50,36
0,77,50,8
0,74,50,12
0,85,84,12
0,42,72,4
0,41,81,4
0,37,115,0
0,41,82,4
0,77,50,4
0,74,50,44
0,77,50,4
0,74,50,12
0,42,72,12
0,38,81,0
0,38,86,0
0,38,82,4
0,77,50,8
0,42,72,52
0,74,50,0
0,38,86,4
0,77,50,0
0,42,72,36
0,34,81,4
0,35,100,0
0,38,86,0
0,34,82,2
0,74,50,6
0,42,72,1280
0,34,81,4
0,35,100,0
0,34,82,0
0,77,50,8
0,74,50,48
0,77,50,4
0,74,50,48
0,42,72,24
0,77,50,12
0,74,50,52
0,42,72,20
0,77,50,8
0,74,50,40
0,85,84,12
0,42,72,4
0,38,86,2
0,77,50,2
0,74,50,48
0,77,50,4
0,74,50,48
0,85,84,4
0,42,72,4
0,41,81,4
0,35,100,0
0,38,86,0
0,41,82,4
0,77,50,8
0,74,50,52
0,77,50,0
0,74,50,8
0,42,72,4
0,46,81,4
0,35,100,0
0,46,82,0
0,77,50,8
0,74,50,44
0,77,50,12
0,42,72,32
0,74,50,12
0,77,50,8
0,74,50,4
0,77,50,12
0,85,84,8
0,42,72,4
0,41,81,4
0,38,86,0
0,41,82,0
0,74,50,12
0,77,50,8
0,74,50,48
0,42,72,8
0,77,50,0
0,74,50,0
0,77,50,0
0,74,50,48
0,42,72,32
0,34,81,4
0,35,100,0
0,34,82,0
0,77,50,0
0,74,50,44
0,77,50,14
0,74,50,44
0,42,72,16
0,77,50,8
0,74,50,52
0,42,72,8
0,77,50,12
0,85,84,20
0,74,50,0
0,42,72,4
0,38,86,4
0,77,50,4
0,74,50,56
0,77,50,4
0,85,84,40
0,42,72,4
0,41,81,4
0,35,100,0
0,38,86,0
0,41,82,2
0,74,50,2
0,77,50,8
0,74,50,48
0,77,50,0
0,42,72,20
0,46,81,4
0,35,100,0
0,46,82,2
0,74,50,4
0,77,50,4
0,74,50,52
0,77,50,0
0,42,72,12
0,74,50,24
0,77,50,12
0,74,50,36
0,85,84,24
0,42,72,0
0,38,86,4
0,77,50,0
0,41,81,2
0,41,82,0
0,74,50,32
0,77,50,8
0,74,50,56
0,42,72,12
0,77,50,4
0,74,50,60
0,77,50,24
0,42,72,40
0,36,81,4
0,35,100,0
0,36,82,4
0,72,50,32
0,75,50,44
0,72,50,24
0,42,72,36
0,75,50,16
0,72,50,36
0,42,72,24
0,75,50,8
0,72,50,8
0,85,84,12
0,42,72,4
0,38,86,4
0,75,50,8
0,72,50,52
0,75,50,4
0,85,84,40
0,42,72,4
0,41,81,4
0,35,100,0
0,38,86,0
0,41,82,2
0,72,50,2
0,75,50,8
0,72,50,48
0,75,50,8
0,42,72,12
0,45,81,4
0,35,100,0
0,45,82,0
0,72,50,12
0,75,50,8
0,72,50,52
0,42,72,24
0,75,50,8
0,72,50,0
0,75,50,0
0,85,84,52
0,42,72,4
0,72,50,0
0,41,81,4
0,38,86,0
0,41,82,0
0,75,50,0
0,72,50,52
0,75,50,4
0,42,72,24
0,72,50,12
0,75,50,0
0,72,50,48
0,42,72,40
0,36,81,4
0,35,100,0
0,36,82,0
0,75,50,0
0,72,50,44
0,75,50,40
0,72,50,48
0,42,72,16
0,75,50,4
0,72,50,48
0,42,72,0
0,75,50,8
0,85,84,12
0,42,72,4
0,38,86,4
0,72,50,8
0,75,50,0
0,72,50,56
0,75,50,4
0,85,84,4
0,42,72,4
0,41,81,4
0,35,100,0
0,38,86,0
0,41,82,2
0,72,50,24
0,75,50,0
0,72,50,0
0,42,72,16
0,45,81,4
0,35,100,0
0,45,82,0
0,75,50,8
0,72,50,48
0,75,50,8
0,42,72,44
0,72,50,8
0,75,50,8
0,72,50,8
0,75,50,4
0,85,84,4
0,42,72,4
0,41,81,4
0,38,86,0
0,41,82,4
0,72,50,20
0,75,50,4
0,72,50,52
0,42,72,28
0,75,50,0
0,72,50,52
0,75,50,0
0,72,50,52
0,42,72,0
0,36,81,4
0,35,100,0
0,36,82,4
0,75,50,16
0,72,50,52
0,75,50,4
0,42,72,32
0,72,50,4
0,75,50,0
0,42,72,12
0,72,50,20
0,85,84,4
0,75,50,0
0,42,72,0
0,38,86,4
0,72,50,4
0,75,50,8
0,72,50,44
0,85,84,16
0,42,72,4
0,41,81,4
0,35,100,0
0,38,86,0
0,41,82,2
0,75,50,12
0,72,50,48
0,75,50,8
0,42,72,32
0,35,100,4
0,72,50,0
0,45,81,2
0,45,82,0
0,75,50,4
0,72,50,0
0,75,50,16
0,42,72,12
0,72,50,20
0,75,50,12
0,72,50,48
0,85,84,32
0,42,72,4
0,41,81,4
0,38,86,0
0,41,82,0
0,75,50,0
0,72,50,48
0,75,50,8
0,72,50,52
0,42,72,8
0,75,50,8
0,72,50,4
0,75,50,40
0,42,72,20
0,36,81,4
0,35,100,0
0,36,82,0
0,72,50,44
0,75,50,40
0,72,50,32
0,42,72,8
0,75,50,16
0,72,50,48
0,42,72,8
0,75,50,0
0,85,84,36
0,42,72,4
0,38,86,4
0,72,50,4
0,75,50,0
0,72,50,56
0,75,50,0
0,85,84,8
0,42,72,4
0,35,100,2
0,41,81,2
0,38,86,0
0,41,82,4
0,72,50,20
0,75,50,0
0,72,50,4
0,42,72,28
0,45,81,4
0,35,100,0
0,45,82,4
0,75,50,0
0,72,50,40
0,75,50,52
0,42,72,52
0,72,50,4
0,75,50,4
0,72,50,12
0,75,50,52
0,85,84,12
0,42,72,4
0,41,81,4
0,38,86,0
0,41,82,0
0,72,50,16
0,75,50,44
0,72,50,56
0,42,72,40
0,75,50,0
0,72,50,56
0,77,50,4
0,42,72,28
0,34,81,4
0,35,100,0
0,34,82,0
0,74,50,4
0,77,50,52
0,74,50,52
0,42,72,36
0,77,50,4
0,74,50,48
0,42,72,20
0,77,50,4
0,74,50,0
0,85,84,4
0,42,72,4
0,38,86,0
0,77,50,0
0,74,50,40
0,77,50,0
0,85,84,24
0,42,72,4
0,35,100,2
0,41,81,2
0,38,86,0
0,41,82,0
0,74,50,8
0,77,50,0
0,74,50,8
0,42,72,32
0,46,81,4
0,35,100,0
0,46,82,0
0,77,50,8
0,74,50,36
0,77,50,4
0,74,50,52
0,42,72,16
0,77,50,12
0,74,50,0
0,77,50,0
0,85,84,28
0,42,72,4
0,41,81,4
0,38,86,0
0,41,82,0
0,74,50,0
0,77,50,4
0,74,50,52
0,42,72,0
0,77,50,4
0,74,50,36
0,77,50,12
0,74,50,44
0,42,72,8
0,34,81,4
0,35,100,0
0,34,82,0
0,77,50,8
0,74,50,48
0,77,50,8
0,42,72,40
0,74,50,12
0,77,50,0
0,42,72,24
0,74,50,12
0,85,84,4
0,77,50,0
0,42,72,4
0,38,86,4
0,74,50,24
0,77,50,8
0,74,50,52
0,85,84,4
0,42,72,4
0,41,81,4
0,35,100,0
0,38,86,0
0,41,82,4
0,77,50,4
0,74,50,52
0,77,50,12
0,42,72,16
0,46,81,4
0,35,100,0
0,46,82,0
0,74,50,4
0,77,50,12
0,74,50,48
0,77,50,8
0,42,72,16
0,74,50,12
0,77,50,4
0,74,50,36
0,85,84,16
0,42,72,4
0,41,81,4
0,38,86,0
0,41,82,0
0,77,50,0
0,74,50,52
0,77,50,0
0,74,50,60
0,42,72,8
0,77,50,4
0,74,50,4
0,77,50,28
0,70,84,16
0,70,84,0
0,74,84,4
0,74,84,0
0,85,84,24
0,42,72,4
0,35,100,0
0,38,86,0
0,34,81,2
0,34,82,2
0,85,84,48
0,42,72,4
0,34,81,4
0,35,100,0
0,38,86,0
0,34,82,2
0,85,84,204
0,42,72,4
0,41,81,4
0,38,86,0
0,41,82,0
0,85,84,32
0,42,72,4
0,46,81,4
0,35,100,0
0,38,86,0
0,46,82,2
0,85,84,200
0,42,72,4
0,41,81,4
0,38,86,0
0,41,82,0
0,68,84,184
0,68,84,0
0,85,84,12
0,42,72,4
0,34,81,4
0,35,100,0
0,38,86,0
0,34,82,4
0,85,84,44
0,42,72,4
0,34,81,4
0,35,100,0
0,38,86,0
0,34,82,4
0,85,84,208
0,42,72,4
0,41,81,4
0,38,86,0
0,41,82,0
0,85,84,36
0,42,72,4
0,46,81,4
0,35,100,0
0,38,86,0
0,46,82,2
0,85,84,200
0,42,72,4
0,41,81,4
0,38,86,0
0,41,82,0
0,75,84,0
0,75,84,0
0,42,72,4
0,85,84,0
0,67,84,4
0,35,100,0
0,67,84,0
0,39,81,2
0,38,86,0
0,39,82,0
0,85,84,44
0,42,72,4
0,35,100,2
0,39,81,2
0,38,86,0
0,39,82,0
0,85,84,208
0,42,72,4
0,46,81,4
0,38,86,0
0,46,82,0
0,85,84,44
0,42,72,4
0,51,81,4
0,35,100,0
0,38,86,0
0,51,82,2
0,85,84,196
0,42,72,4
0,46,81,4
0,38,86,0
0,46,82,4
0,66,84,104
0,66,84,0
0,85,84,8
0,42,72,4
0,39,81,4
0,35,100,0
0,38,86,0
0,39,82,2
0,85,84,48
0,42,72,4
0,39,81,4
0,35,100,0
0,38,86,0
0,39,82,2
0,85,84,208
0,42,72,4
0,46,81,4
0,38,86,0
0,46,82,2
0,85,84,40
0,42,72,4
0,51,81,4
0,35,100,0
0,38,86,0
0,51,82,2
0,85,84,196
0,42,72,4
0,46,81,4
0,38,86,0
0,46,82,0
0,77,50,52
0,42,72,4
0,34,81,4
0,35,100,0
0,34,82,0
0,74,50,32
0,77,50,4
0,74,50,56
0,42,72,12
0,77,50,28
0,42,72,44
0,74,50,4
0,77,50,0
0,85,84,24
0,42,72,4
0,38,86,4
0,74,50,4
0,77,50,0
0,74,50,4
0,85,84,28
0,42,72,4
0,41,81,4
0,35,100,0
0,38,86,0
0,41,82,4
0,77,50,4
0,74,50,52
0,77,50,4
0,42,72,24
0,46,81,4
0,35,100,0
0,46,82,2
0,74,50,2
0,77,50,32
0,74,50,68
0,77,50,40
0,42,72,8
0,74,50,0
0,77,50,12
0,74,50,4
0,85,84,0
0,42,72,4
0,41,81,4
0,38,86,0
0,41,82,0
0,77,50,4
0,74,50,68
0,77,50,28
0,42,72,24
0,74,50,12
0,77,50,28
0,74,50,48
0,42,72,8
0,36,81,4
0,35,100,0
0,36,82,0
0,75,50,20
0,72,50,60
0,75,50,4
0,42,72,20
0,72,50,20
0,42,72,44
0,75,50,0
0,72,50,52
0,85,84,12
0,42,72,4
0,38,86,4
0,75,50,4
0,72,50,0
0,75,50,40
0,85,84,16
0,42,72,4
0,41,81,4
0,35,100,0
0,38,86,0
0,41,82,2
0,72,50,28
0,75,50,4
0,72,50,36
0,42,72,4
0,45,81,4
0,35,100,0
0,45,82,0
0,75,50,4
0,72,50,0
0,75,50,4
0,42,72,16
0,72,50,28
0,75,50,2
0,72,50,4
0,85,84,8
0,42,72,0
0,41,81,4
0,38,86,0
0,41,82,0
0,75,50,4
0,72,50,64
0,42,72,0
0,75,50,4
0,72,50,48
0,75,50,28
0,75,50,12
0,42,72,8
0,34,81,4
0,35,100,0
0,34,82,0
0,70,50,8
0,74,50,60
0,70,50,68
0,42,72,12
0,74,50,8
0,42,72,64
0,70,50,8
0,74,50,0
0,85,84,32
0,42,72,4
0,38,86,4
0,70,50,12
0,74,50,0
0,70,50,20
0,85,84,8
0,42,72,4
0,41,81,4
0,35,100,0
0,38,86,0
0,41,82,4
0,74,50,0
0,70,50,76
0,74,50,20
0,42,72,20
0,46,81,4
0,35,100,0
0,46,82,0
0,70,50,24
0,74,50,48
0,70,50,8
0,42,72,0
0,43,81,4
0,74,50,0
0,70,50,72
0,74,50,32
0,85,84,8
0,42,72,4
0,41,81,4
0,35,100,0
0,38,86,0
0,41,82,2
0,70,50,32
0,74,50,0
0,70,50,32
0,42,72,8
0,38,81,4
0,38,86,0
0,74,50,20
0,38,86,48
0,70,50,4
0,74,50,8
0,85,84,12
0,42,72,0
0,34,81,4
0,35,100,0
0,38,86,0
0,34,82,2
0,70,50,24
0,42,72,1208
0,34,81,4
0,35,100,0
0,34,82,4
0,77,50,4
0,74,50,48
0,77,50,4
0,74,50,48
0,42,72,24
0,77,50,12
0,74,50,52
0,42,72,20
0,77,50,8
0,74,50,40
0,85,84,12
0,42,72,4
0,38,86,4
0,77,50,0
0,74,50,48
0,77,50,4
0,74,50,48
0,85,84,4
0,42,72,4
0,41,81,4
0,35,100,0
0,38,86,0
0,41,82,0
0,77,50,8
0,74,50,52
0,77,50,0
0,74,50,8
0,42,72,4
0,46,81,4
0,35,100,0
0,46,82,0
0,77,50,8
0,74,50,44
0,77,50,12
0,42,72,32
0,74,50,12
0,77,50,8
0,74,50,4
0,77,50,12
0,85,84,8
0,42,72,4
0,41,81,4
0,38,86,0
0,41,82,0
0,74,50,12
0,77,50,8
0,74,50,48
0,42,72,8
0,77,50,0
0,74,50,0
0,77,50,0
0,74,50,48
0,42,72,32
0,34,81,4
0,35,100,0
0,34,82,0
0,77,50,0
0,74,50,44
0,77,50,12
0,74,50,44
0,42,72,16
0,77,50,8
0,74,50,52
0,42,72,8
0,77,50,12
0,85,84,20
0,74,50,0
0,42,72,4
0,38,86,4
0,77,50,4
0,74,50,56
0,77,50,4
0,85,84,40
0,42,72,4
0,41,81,4
0,35,100,0
0,38,86,0
0,41,82,2
0,74,50,2
0,77,50,8
0,74,50,48
0,77,50,0
0,42,72,20
0,46,81,4
0,35,100,0
0,46,82,4
0,74,50,4
0,77,50,4
0,74,50,52
0,77,50,0
0,42,72,12
0,74,50,24
0,77,50,12
0,74,50,36
0,85,84,24
0,42,72,0
0,41,81,4
0,38,86,0
0,77,50,0
0,41,82,4
0,74,50,32
0,77,50,8
