track,note,velocity,time
0,62,80,0
0,57,85,2
0,38,92,1
0,66,88,1
0,50,114,0
0,40,111,0
0,57,92,2
0,40,0,0
0,62,92,12
0,66,68,7
0,44,60,11
0,44,0,2
0,40,12,62
0,40,0,6
0,57,0,4
0,62,0,12
0,50,0,2
0,62,0,4
0,66,0,1
0,57,0,1
0,63,84,0
0,38,0,1
0,58,87,0
0,66,0,1
0,67,85,0
0,39,39,0
0,51,92,0
0,44,75,0
0,39,95,2
0,58,92,0
0,44,0,0
0,40,116,0
0,63,92,2
0,67,59,2
0,40,0,2
0,39,39,53
0,44,60,0
0,44,0,2
0,39,0,41
0,39,39,53
0,44,60,0
0,44,0,2
0,39,0,41
0,40,118,21
0,40,0,2
0,39,39,30
0,44,60,0
0,44,0,2
0,39,0,41
0,40,18,21
0,40,0,6
0,51,0,2
0,58,0,2
0,63,0,2
0,67,0,2
0,39,39,18
0,44,75,0
0,44,0,2
0,40,116,0
0,40,0,6
0,39,0,35
0,39,39,53
0,44,60,0
0,44,0,2
0,39,0,41
0,39,39,53
0,44,60,0
0,44,0,2
0,39,0,41
0,50,114,11
0,57,92,2
0,62,92,4
0,38,92,1
0,62,87,1
0,57,86,1
0,66,80,0
0,66,68,1
0,40,100,0
0,40,0,2
0,39,39,30
0,44,60,0
0,44,0,2
0,39,0,41
0,40,18,21
0,63,0,6
0,40,0,0
0,58,0,1
0,67,0,1
0,39,0,2
0,57,0,16
0,38,0,3
0,62,0,1
0,50,0,0
0,62,0,0
0,66,0,0
0,57,0,1
0,66,0,0
0,58,87,0
0,39,39,1
0,51,92,0
0,44,75,0
0,67,87,1
0,39,92,1
0,63,86,0
0,58,92,0
0,44,0,0
0,40,116,0
0,63,92,2
0,67,59,2
0,40,0,2
0,39,39,53
0,44,60,0
0,44,0,2
0,39,0,41
0,39,39,53
0,44,60,0
0,44,0,2
0,39,0,41
0,40,118,21
0,40,0,2
0,39,39,30
0,44,60,0
0,44,0,2
0,39,0,41
0,40,18,21
0,40,0,6
0,51,0,2
0,58,0,2
0,63,0,2
0,67,0,2
0,39,39,18
0,44,75,0
0,44,0,2
0,40,116,0
0,40,0,6
0,39,0,35
0,39,39,53
0,44,60,0
0,44,0,2
0,39,0,41
0,39,39,53
0,44,60,0
0,44,0,2
0,39,0,41
0,50,114,11
0,57,92,2
0,62,92,4
0,57,82,1
0,62,83,1
0,38,92,2
0,66,68,0
0,40,100,0
0,66,84,1
0,40,0,1
0,39,39,30
0,44,60,0
0,44,0,2
0,39,0,41
0,40,18,21
0,40,0,6
0,58,0,1
0,67,0,2
0,39,0,1
0,63,0,0
0,57,0,16
0,57,0,3
0,39,95,0
0,62,0,1
0,63,79,0
0,50,0,0
0,62,0,0
0,66,0,0
0,38,0,2
0,39,39,0
0,51,92,0
0,44,75,0
0,66,0,1
0,67,85,0
0,58,86,0
0,66,124,0
0,58,92,0
0,44,0,0
0,40,116,0
0,63,92,2
0,67,59,2
0,40,0,2
0,39,39,0
0,65,80,0
0,44,60,0
0,44,0,2
0,66,124,0
0,39,0,31
0,66,0,28
0,39,39,0
0,66,112,0
0,44,60,0
0,44,0,2
0,66,90,0
0,40,100,1
0,40,0,2
0,66,0,9
0,39,39,0
0,63,86,0
0,44,60,0
0,44,0,2
0,39,0,41
0,63,0,9
0,40,18,12
0,60,42,0
0,39,0,3
0,63,0,1
0,40,0,0
0,51,0,2
0,67,0,1
0,58,0,1
0,58,0,0
0,63,0,2
0,67,0,2
0,60,0,16
0,39,39,2
0,44,75,0
0,44,0,2
0,40,116,0
0,63,86,0
0,40,0,5
0,39,0,35
0,63,0,34
0,39,39,0
0,63,124,0
0,44,60,0
0,44,0,2
0,63,0,22
0,39,0,19
0,60,110,0
0,39,39,0
0,44,60,0
0,44,0,2
0,39,0,41
0,50,114,2
0,57,92,2
0,62,92,4
0,38,97,1
0,66,88,0
0,62,86,0
0,57,85,1
0,66,68,0
0,40,100,0
0,40,0,2
0,39,39,24
0,44,60,0
0,44,0,2
0,60,0,13
0,39,0,28
0,40,18,21
0,40,0,6
0,57,0,20
0,67,88,2
0,39,91,1
0,50,0,0
0,62,0,0
0,66,0,0
0,38,0,1
0,66,0,0
0,62,0,0
0,39,39,0
0,66,98,0
0,51,92,0
0,44,75,0
0,58,84,1
0,63,80,1
0,58,92,0
0,44,0,0
0,40,116,0
0,63,92,2
0,67,59,2
0,40,0,2
0,66,90,0
0,66,0,16
0,39,39,0
0,66,98,0
0,44,60,0
0,44,0,2
0,39,0,41
0,66,0,19
0,66,90,0
0,66,0,14
0,39,39,0
0,66,104,0
0,44,60,0
0,44,0,2
0,40,100,21
0,40,0,2
0,66,0,15
0,63,94,0
0,39,39,1
0,44,60,0
0,44,0,2
0,39,0,41
0,40,18,17
0,63,0,1
0,60,56,0
0,40,0,2
0,67,0,3
0,39,0,1
0,51,0,2
0,58,0,1
0,63,0,1
0,58,0,0
0,63,0,2
0,67,0,2
0,40,18,0
0,40,0,6
0,39,39,0
0,60,0,0
0,63,91,0
0,44,75,0
0,44,0,2
0,40,116,0
0,40,0,6
0,39,0,35
0,63,0,29
0,39,39,0
0,63,67,0
0,44,60,0
0,44,0,2
0,39,0,41
0,60,90,0
0,63,0,1
0,39,39,0
0,44,60,0
0,44,0,2
0,50,114,5
0,57,92,2
0,62,88,4
0,62,92,0
0,38,92,2
0,66,83,1
0,57,86,1
0,66,68,0
0,40,100,0
0,40,0,2
0,39,39,30
0,44,60,0
0,44,0,2
0,39,0,41
0,40,18,21
0,40,0,6
0,39,92,0
0,58,86,0
0,39,39,0
0,66,98,0
0,51,92,0
0,44,75,0
0,67,84,1
0,63,85,0
0,58,92,1
0,44,0,0
0,40,116,0
0,63,92,2
0,67,59,2
0,40,0,2
0,66,90,0
0,66,0,19
0,39,39,0
0,66,98,0
0,44,60,0
0,44,0,2
0,39,0,41
0,66,0,9
0,66,90,0
0,66,0,18
0,39,39,0
0,66,98,0
0,44,60,0
0,44,0,2
0,39,0,41
0,66,0,9
0,66,90,0
0,40,100,2
0,40,0,2
0,66,0,15
0,39,39,0
0,63,94,0
0,44,60,0
0,44,0,2
0,39,0,41
0,63,0,18
0,60,56,0
0,40,18,0
0,40,0,6
0,39,0,2
0,58,0,0
0,51,0,0
0,67,0,1
0,63,0,0
0,58,0,1
0,63,0,2
0,67,0,2
0,39,39,0
0,60,0,0
0,63,99,0
0,44,75,0
0,44,0,2
0,40,116,0
0,40,0,6
0,39,39,0
0,60,79,0
0,44,60,0
0,44,0,2
0,39,0,41
0,66,93,0
0,39,39,0
0,44,60,0
0,44,0,2
0,50,114,10
0,57,92,2
0,62,92,4
0,66,87,3
0,62,83,1
0,57,79,0
0,66,68,0
0,40,100,0
0,38,98,1
0,40,0,1
0,39,39,30
0,44,60,0
0,44,0,2
0,39,0,41
0,40,18,21
0,40,0,6
0,57,0,20
0,58,84,0
0,67,87,0
0,39,39,0
0,66,90,0
0,51,73,0
0,44,75,0
0,35,69,0
0,38,0,1
0,39,95,0
0,63,88,0
0,58,73,1
0,44,0,0
0,40,89,0
0,63,73,2
0,67,47,2
0,35,0,0
0,40,0,2
0,58,0,27
0,67,0,0
0,39,0,2
0,63,0,0
0,39,0,6
0,66,0,5
0,51,0,0
0,58,0,2
0,63,0,2
0,66,90,0
0,67,0,0
0,66,0,19
0,66,90,0
0,66,0,34
0,66,54,0
0,66,0,16
0,66,48,0
0,66,0,12
0,66,90,0
0,66,90,0
0,66,90,0
0,81,49,0
0,27,107,0
0,66,90,0
0,87,52,4
0,82,43,0
0,75,56,3
0,82,44,2
0,87,49,0
0,25,107,12
0,25,0,2
0,75,0,2
0,87,0,2
0,82,0,1
0,27,0,11
0,75,67,16
0,30,84,0
0,66,90,0
0,87,72,3
0,82,60,0
0,75,0,17
0,82,0,2
0,87,0,2
0,75,87,24
0,82,62,2
0,87,76,0
0,66,0,2
0,25,107,10
0,75,0,6
0,82,0,0
0,25,0,0
0,66,90,0
0,40,118,4
0,66,0,2
0,30,0,2
0,40,0,2
0,40,118,10
0,75,79,0
0,31,84,0
0,66,120,0
0,40,0,2
0,87,91,5
0,82,76,0
0,75,82,2
0,82,84,4
0,87,91,0
0,66,0,8
0,75,0,4
0,82,0,4
0,87,0,4
0,31,0,4
0,81,99,5
0,63,110,0
0,35,65,0
0,46,56,0
0,44,111,0
0,46,0,1
0,32,97,1
0,35,0,3
0,82,106,4
0,87,114,0
0,81,0,2
0,82,0,19
0,44,0,5
0,87,0,2
0,44,96,11
0,46,48,3
0,75,50,2
0,46,0,4
0,48,115,17
0,63,0,0
0,46,78,0
0,36,107,1
0,46,0,1
0,40,116,0
0,40,0,2
0,48,0,35
0,48,113,10
0,46,48,3
0,46,0,6
0,36,0,15
0,48,0,7
0,77,80,16
0,39,84,0
0,35,65,0
0,46,60,0
0,51,102,2
0,46,0,0
0,78,99,3
0,75,84,0
0,35,0,1
0,72,69,1
0,77,0,5
0,72,0,2
0,75,0,27
0,51,0,2
0,51,99,7
0,46,48,2
0,46,0,6
0,78,0,2
0,72,62,4
0,39,0,8
0,51,0,9
0,72,0,5
0,46,78,10
0,41,107,2
0,46,0,0
0,53,110,1
0,75,84,3
0,77,76,0
0,40,118,0
0,72,60,1
0,40,0,1
0,72,0,13
0,53,0,22
0,51,106,1
0,75,0,4
0,77,0,2
0,46,48,2
0,46,0,6
0,72,64,10
0,41,0,6
0,51,0,1
0,72,0,12
0,77,80,9
0,44,114,0
0,35,65,0
0,46,56,0
0,32,97,2
0,46,0,0
0,75,67,3
0,35,0,1
0,78,69,2
0,72,57,1
0,77,0,3
0,72,0,7
0,75,0,13
0,44,0,8
0,44,114,6
0,78,0,6
0,46,48,0
0,66,87,0
0,72,67,9
0,78,28,2
0,75,22,1
0,78,0,5
0,66,0,1
0,75,0,1
0,72,0,4
0,48,97,5
0,66,93,0
0,46,78,0
0,46,0,2
0,40,116,0
0,36,107,1
0,40,0,1
0,77,76,4
0,75,63,1
0,72,62,0
0,72,0,19
0,75,0,6
0,77,0,5
0,48,0,0
0,48,118,8
0,66,0,5
0,46,48,0
0,46,0,6
0,66,82,0
0,75,87,4
0,72,84,0
0,51,100,13
0,35,65,2
0,46,29,0
0,39,84,1
0,46,0,1
0,35,0,4
0,51,0,30
0,66,0,12
0,51,118,2
0,46,39,2
0,46,0,6
0,63,61,1
0,39,0,14
0,51,0,6
0,63,0,4
0,53,108,11
0,66,79,0
0,46,78,0
0,41,107,2
0,46,0,0
0,40,118,4
0,40,0,2
0,75,0,14
0,72,0,4
0,53,0,12
0,51,99,13
0,46,48,1
0,46,0,6
0,41,0,16
0,51,0,8
0,66,0,5
0,63,120,0
0,35,65,0
0,46,56,0
0,27,97,2
0,39,108,0
0,46,0,0
0,39,110,8
0,46,48,4
0,46,0,6
0,27,0,16
0,39,0,4
0,63,0,3
0,43,97,14
0,31,107,1
0,46,78,0
0,46,0,2
0,40,116,0
0,40,0,2
0,43,0,35
0,43,117,9
0,75,30,4
0,46,48,0
0,84,95,2
0,46,0,4
0,31,0,14
0,43,0,8
0,75,0,8
0,82,90,8
0,35,65,0
0,46,60,0
0,34,84,1
0,46,106,1
0,46,0,0
0,35,0,4
0,84,0,4
0,80,44,14
0,80,0,18
0,46,0,0
0,82,0,4
0,46,106,3
0,46,48,3
0,75,48,2
0,46,0,4
0,34,0,15
0,75,0,1
0,46,0,7
0,48,102,13
0,72,24,2
0,46,78,0
0,36,107,1
0,46,0,1
0,40,118,4
0,40,0,2
0,72,0,16
0,48,0,14
0,46,97,10
0,46,48,4
0,46,0,6
0,70,24,4
0,36,0,11
0,46,0,4
0,70,0,9
0,39,97,10
0,39,106,0
0,35,65,0
0,46,56,0
0,46,0,2
0,35,0,4
0,39,0,33
0,39,115,6
0,46,48,7
0,46,0,6
0,39,0,14
0,39,0,4
0,43,105,16
0,36,107,4
0,46,78,0
0,46,0,2
0,40,116,0
0,77,80,1
0,40,0,1
0,78,84,4
0,82,73,3
0,79,98,1
0,77,0,16
0,78,0,4
0,82,0,5
0,43,0,0
0,43,96,12
0,46,48,3
0,46,0,6
0,82,102,10
0,36,0,4
0,43,0,8
0,79,0,3
0,46,117,12
0,35,65,1
0,46,60,0
0,34,84,2
0,46,0,0
0,35,0,4
0,79,69,8
0,82,0,20
0,46,0,7
0,46,68,4
0,46,48,7
0,66,113,0
0,75,56,2
0,31,107,20
0,46,78,0
0,48,104,1
0,46,0,1
0,72,52,4
0,40,118,0
0,40,0,2
0,79,0,4
0,75,0,5
0,66,0,13
0,46,48,22
0,46,0,6
0,66,94,0
0,70,58,1
0,56,90,7
0,62,90,0
0,34,97,0
0,46,113,0
0,66,106,0
0,35,65,0
0,46,56,0
0,46,0,2
0,46,99,2
0,46,48,2
0,46,0,6
0,66,89,0
0,50,108,12
0,66,113,0
0,46,78,0
0,38,107,2
0,46,0,0
0,40,116,0
0,40,0,2
0,74,73,6
0,80,73,0
0,76,61,4
0,76,0,8
0,50,0,13
0,66,0,3
0,74,0,6
0,50,110,4
0,46,48,4
0,46,0,6
0,66,113,0
0,80,0,3
0,74,45,10
0,38,0,2
0,50,0,6
0,35,65,0
0,46,60,0
0,53,108,1
0,41,84,1
0,46,0,0
0,35,0,4
0,74,73,4
0,82,90,0
0,66,0,21
0,74,0,2
0,53,0,7
0,53,111,7
0,46,48,5
0,46,0,6
0,82,0,1
0,66,106,0
0,80,79,11
0,74,87,2
0,41,0,2
0,66,0,1
0,53,0,4
0,74,0,12
0,43,107,0
0,55,115,0
0,66,113,0
0,46,78,0
0,46,0,2
0,80,0,2
0,40,118,2
0,40,0,2
0,55,0,30
0,53,72,12
0,46,48,0
0,46,0,6
0,60,61,21
0,54,61,0
0,44,116,0
0,66,90,0
0,35,65,0
0,46,56,0
0,32,97,1
0,46,0,1
0,35,0,4
0,44,0,34
0,44,102,8
0,46,48,4
0,46,0,6
0,32,0,15
0,66,0,2
0,44,0,4
0,48,108,16
0,46,78,1
0,78,87,2
0,46,0,0
0,40,116,0
0,36,107,1
0,40,0,1
0,72,79,2
0,82,82,1
0,48,0,31
0,72,0,2
0,48,104,11
0,46,48,1
0,78,0,6
0,46,0,0
0,82,0,7
0,36,0,10
0,48,0,5
0,35,65,16
0,46,60,0
0,51,110,1
0,39,84,1
0,46,0,0
0,72,69,1
0,80,82,3
0,35,0,0
0,72,0,34
0,51,0,3
0,51,112,2
0,80,0,3
0,46,48,4
0,46,0,6
0,72,69,4
0,78,82,3
0,39,0,9
0,51,0,3
0,72,0,11
0,78,0,7
0,53,121,0
0,41,107,0
0,65,108,0
0,46,78,0
0,46,0,2
0,40,118,4
0,40,0,2
0,65,0,22
0,53,0,10
0,51,104,10
0,46,48,2
0,46,0,6
0,66,96,0
0,41,0,13
0,58,61,1
0,63,61,0
0,39,110,0
0,35,65,0
0,46,56,0
0,27,97,2
0,46,0,0
0,35,0,4
0,39,0,33
0,39,111,6
0,46,48,7
0,66,90,0
0,75,96,2
0,27,0,10
0,66,0,0
0,39,0,2
0,78,101,0
0,63,110,0
0,46,78,0
0,43,96,1
0,31,107,1
0,46,0,0
0,40,116,0
0,40,0,2
0,79,96,2
0,82,96,8
0,79,0,6
0,43,0,4
0,43,114,7
0,46,48,0
0,60,73,0
0,82,0,5
0,84,96,0
0,63,0,5
0,31,0,5
0,60,0,1
0,43,0,4
0,75,79,0
0,63,110,0
0,35,65,0
0,46,60,0
0,87,87,1
0,34,84,0
0,46,0,1
0,46,99,1
0,35,0,3
0,75,0,29
0,87,0,1
0,46,0,7
0,46,118,6
0,46,48,3
0,75,76,3
0,87,79,1
0,46,0,2
0,34,0,15
0,75,0,2
0,87,0,1
0,46,0,3
0,63,0,5
0,75,64,0
0,63,110,0
0,46,78,0
0,87,87,1
0,36,107,0
0,46,0,1
0,48,113,1
0,40,118,3
0,40,0,2
0,87,0,24
0,48,0,9
0,75,0,4
0,46,114,4
0,46,48,3
