track,note,velocity,time
0,37,100,708
0,35,100,26
0,36,110,22
0,49,110,0
0,28,100,0
0,64,100,0
0,56,100,0
0,59,100,0
0,64,100,0
0,36,110,12
0,36,110,6
0,76,91,0
0,64,100,46
0,56,100,0
0,59,100,0
0,59,100,0
0,64,100,0
0,68,100,0
0,61,100,0
0,64,100,0
0,69,100,0
0,36,110,20
0,36,110,22
0,36,110,2
0,37,100,4
0,40,120,0
0,35,100,0
0,28,100,0
0,36,110,4
0,49,110,0
0,64,100,0
0,56,100,0
0,59,100,0
0,64,100,0
0,36,110,32
0,36,110,14
0,64,100,20
0,56,100,0
0,59,100,0
0,59,100,0
0,64,100,0
0,68,100,0
0,61,100,0
0,64,100,0
0,69,100,0
0,36,110,38
0,36,110,74
0,36,110,12
0,40,120,0
0,68,100,0
0,68,100,70
0,36,110,0
0,42,90,0
0,69,90,0
0,52,110,0
0,40,100,0
0,59,100,0
0,64,100,0
0,56,100,0
0,42,90,96
0,68,100,0
0,37,95,0
0,42,90,0
0,64,90,0
0,59,90,0
0,56,90,0
0,36,110,58
0,42,90,0
0,69,90,0
0,40,100,0
0,36,110,0
0,42,90,0
0,69,90,0
0,40,100,0
0,68,100,0
0,42,90,96
0,37,95,50
0,42,90,0
0,56,90,0
0,64,90,0
0,59,90,0
0,68,100,0
0,42,90,44
0,69,100,0
0,36,110,0
0,42,90,0
0,69,90,0
0,40,100,0
0,42,90,36
0,68,100,0
0,37,95,96
0,42,90,0
0,64,90,0
0,56,90,0
0,59,90,0
0,36,110,96
0,42,90,0
0,69,90,0
0,40,100,0
0,36,110,0
0,42,90,0
0,69,90,0
0,40,100,0
0,42,90,96
0,66,100,0
0,37,95,18
0,42,90,0
0,64,90,0
0,59,90,0
0,56,90,0
0,40,100,0
0,64,100,0
0,42,90,10
0,68,100,0
0,36,110,0
0,42,90,0
0,69,90,0
0,32,100,0
0,63,100,0
0,56,100,0
0,59,100,0
0,42,90,80
0,68,100,0
0,37,95,96
0,42,90,0
0,56,90,0
0,59,90,0
0,63,90,0
0,36,110,96
0,42,90,0
0,69,90,0
0,32,100,0
0,36,110,0
0,42,90,0
0,69,90,0
0,32,100,0
0,42,90,68
0,68,100,0
0,37,95,26
0,42,90,0
0,59,90,0
0,56,90,0
0,63,90,0
0,68,100,0
0,42,90,24
0,69,100,0
0,36,110,0
0,42,90,0
0,69,90,0
0,32,100,0
0,42,90,20
0,68,100,0
0,37,95,96
0,42,90,0
0,59,90,0
0,63,90,0
0,56,90,0
0,36,110,96
0,42,90,0
0,69,90,0
0,32,100,0
0,36,110,0
0,42,90,0
0,69,90,0
0,32,100,0
0,42,90,94
0,66,100,0
0,37,95,18
0,42,90,0
0,63,90,0
0,59,90,0
0,56,90,0
0,32,100,0
0,64,100,0
0,42,90,28
0,66,100,0
0,36,110,0
0,42,90,0
0,69,90,0
0,42,100,0
0,61,100,0
0,54,100,0
0,57,100,0
0,42,90,76
0,66,100,0
0,37,95,96
0,42,90,0
0,57,90,0
0,54,90,0
0,61,90,0
0,36,110,96
0,42,90,0
0,69,90,0
0,42,100,0
0,36,110,0
0,42,90,0
0,69,90,0
0,42,100,0
0,66,100,0
0,42,90,26
0,66,100,0
0,37,95,96
0,42,90,0
0,61,90,0
0,57,90,0
0,54,90,0
0,42,90,52
0,68,100,0
0,36,110,0
0,42,90,0
0,69,90,0
0,35,100,0
0,54,100,0
0,57,100,0
0,59,100,0
0,63,100,0
0,42,90,12
0,66,100,0
0,37,95,96
0,42,90,0
0,63,90,0
0,59,90,0
0,54,90,0
0,57,90,0
0,36,110,96
0,42,90,0
0,69,90,0
0,35,100,0
0,36,110,0
0,42,90,0
0,69,90,0
0,35,100,0
0,42,90,96
0,37,95,96
0,42,90,0
0,59,90,0
0,54,90,0
0,57,90,0
0,63,90,0
0,61,100,0
0,42,90,62
0,64,100,0
0,36,110,0
0,42,90,0
0,69,90,0
0,42,100,0
0,57,100,0
0,61,100,0
0,54,100,0
0,66,100,0
0,42,90,96
0,37,95,64
0,42,90,0
0,54,90,0
0,57,90,0
0,61,90,0
0,66,100,0
0,36,110,96
0,42,90,0
0,69,90,0
0,42,100,0
0,36,110,0
0,42,90,0
0,69,90,0
0,42,100,0
0,66,100,0
0,42,90,34
0,66,100,0
0,37,95,96
0,42,90,0
0,57,90,0
0,54,90,0
0,61,90,0
0,42,90,10
0,68,100,0
0,36,110,0
0,42,90,0
0,69,90,0
0,35,100,0
0,59,100,0
0,54,100,0
0,63,100,0
0,57,100,0
0,42,90,10
0,66,100,0
0,37,95,96
0,42,90,0
0,63,90,0
0,54,90,0
0,57,90,0
0,59,90,0
0,36,110,96
0,42,90,0
0,69,90,0
0,35,100,0
0,36,110,0
0,42,90,0
0,69,90,0
0,35,100,0
0,61,100,0
0,42,90,96
0,64,100,0
0,37,95,96
0,42,90,0
0,57,90,0
0,54,90,0
0,63,90,0
0,59,90,0
0,42,90,96
0,61,100,0
0,36,110,0
0,42,90,0
0,69,90,0
0,40,100,0
0,52,100,0
0,56,100,0
0,59,100,0
0,42,90,16
0,59,100,0
0,37,95,96
0,42,90,0
0,64,90,0
0,56,90,0
0,59,90,0
0,36,110,96
0,42,90,0
0,69,90,0
0,40,100,0
0,36,110,0
0,42,90,0
0,69,90,0
0,40,100,0
0,42,90,90
0,37,95,96
0,42,90,0
0,64,90,0
0,59,90,0
0,56,90,0
0,42,90,96
0,36,110,0
0,42,90,0
0,69,90,0
0,40,100,0
0,42,90,96
0,37,95,96
0,42,90,0
0,64,90,0
0,59,90,0
0,56,90,0
0,36,110,96
0,42,90,0
0,69,90,0
0,40,100,0
0,36,110,0
0,42,90,0
0,69,90,0
0,40,100,0
0,42,90,96
0,61,100,0
0,37,95,96
0,42,90,0
0,59,90,0
0,56,90,0
0,64,90,0
0,59,100,0
0,42,90,96
0,52,100,0
0,36,110,0
0,42,90,0
0,69,90,0
0,40,100,0
0,64,100,0
0,56,100,0
0,59,100,0
0,42,90,96
0,37,95,96
0,42,90,0
0,56,90,0
0,59,90,0
0,64,90,0
0,36,110,96
0,42,90,0
0,69,90,0
0,40,100,0
0,36,110,0
0,42,90,0
0,69,90,0
0,40,100,0
0,42,90,96
0,83,100,0
0,71,100,0
0,37,95,96
0,42,90,0
0,56,90,0
0,59,90,0
0,64,90,0
0,85,100,0
0,73,100,0
0,42,90,96
0,88,100,0
0,76,100,0
0,36,110,0
0,42,90,0
0,69,90,0
0,40,100,0
0,42,90,96
0,37,95,6
0,42,90,0
0,59,90,0
0,56,90,0
0,64,90,0
0,36,110,12
0,42,90,0
0,69,90,0
0,40,100,0
0,36,110,0
0,42,90,0
0,69,90,0
0,40,100,0
0,42,90,12
0,40,110,0
0,42,90,0
0,40,110,0
0,56,90,0
0,59,90,0
0,64,90,0
0,71,100,0
0,40,107,0
0,42,90,48
0,40,107,0
0,35,100,0
0,71,100,0
0,36,110,0
0,42,90,0
0,69,90,0
0,49,110,0
0,40,100,0
0,76,91,0
0,42,90,18
0,71,100,0
0,37,95,96
0,42,90,0
0,64,90,0
0,56,90,0
0,59,90,0
0,36,110,96
0,42,90,0
0,69,90,0
0,40,100,0
0,36,110,0
0,42,90,0
0,69,90,0
0,40,100,0
0,71,100,0
0,42,90,96
0,37,95,12
0,42,90,0
0,56,90,0
0,64,90,0
0,59,90,0
0,71,100,0
0,42,90,26
0,73,100,0
0,36,110,0
0,42,90,0
0,69,90,0
0,40,100,0
0,42,90,64
0,71,100,0
0,37,95,4
0,42,90,0
0,64,90,0
0,56,90,0
0,59,90,0
0,36,110,4
0,42,90,0
0,69,90,0
0,40,100,0
0,36,110,0
0,42,90,0
0,69,90,0
0,40,100,0
0,42,90,0
0,78,91,0
0,69,100,0
0,37,95,0
0,42,90,0
0,56,90,0
0,64,90,0
0,59,90,0
0,76,91,0
0,68,100,0
0,42,90,32
0,71,100,0
0,68,91,0
0,63,91,0
0,71,91,0
0,36,110,0
0,42,90,0
0,69,90,0
0,32,100,0
0,42,90,78
0,71,100,0
0,37,95,96
0,42,90,0
0,63,90,0
0,56,90,0
0,59,90,0
0,36,110,96
0,42,90,0
0,69,90,0
0,32,100,0
0,36,110,0
0,42,90,0
0,69,90,0
0,32,100,0
0,71,100,0
0,68,100,14
0,42,90,28
0,37,95,68
0,42,90,0
0,63,90,0
0,59,90,0
0,56,90,0
0,71,100,0
0,42,90,36
0,73,100,0
0,36,110,0
0,42,90,0
0,69,90,0
0,32,100,0
0,42,90,84
0,71,100,0
0,37,95,96
0,42,90,0
0,59,90,0
0,56,90,0
0,63,90,0
0,36,110,96
0,42,90,0
0,69,90,0
0,32,100,0
0,36,110,0
0,42,90,0
0,69,90,0
0,32,100,0
0,42,90,0
0,73,91,0
0,69,100,0
0,37,95,0
0,42,90,0
0,56,90,0
0,63,90,0
0,59,90,0
0,71,91,0
0,68,100,0
0,42,90,56
0,71,100,0
0,71,91,0
0,68,91,0
0,62,91,0
0,36,110,0
0,42,90,0
0,69,90,0
0,32,100,0
0,42,90,10
0,71,100,0
0,37,95,28
0,42,90,0
0,56,90,0
0,59,90,0
0,62,90,0
0,36,110,10
0,42,90,0
0,69,90,0
0,32,100,0
0,36,110,0
0,42,90,0
0,69,90,0
0,32,100,0
0,71,100,0
0,42,90,8
0,37,95,58
0,42,90,0
0,59,90,0
0,62,90,0
0,56,90,0
0,71,100,0
0,42,90,16
0,73,100,0
0,36,110,0
0,42,90,0
0,69,90,0
0,32,100,0
0,42,90,30
0,71,100,0
0,37,95,96
0,42,90,0
0,56,90,0
0,62,90,0
0,59,90,0
0,36,110,6
0,42,90,0
0,69,90,0
0,32,100,0
0,36,110,0
0,42,90,0
0,69,90,0
0,32,100,0
0,69,100,0
0,69,91,0
0,42,90,30
0,68,100,0
0,37,95,0
0,42,90,0
0,56,90,0
0,62,90,0
0,59,90,0
0,71,91,0
0,42,90,86
0,71,100,0
0,64,91,0
0,69,91,0
0,73,91,0
0,36,110,0
0,42,90,0
0,69,90,0
0,33,100,0
0,42,90,44
0,69,100,0
0,37,95,24
0,42,90,0
0,61,90,0
0,52,90,0
0,57,90,0
0,68,100,0
0,36,110,2
0,42,90,0
0,69,90,0
0,33,100,0
0,69,100,0
0,36,110,0
0,42,90,0
0,69,90,0
0,33,100,0
0,42,90,96
0,37,95,96
0,42,90,0
0,52,90,0
0,61,90,0
0,57,90,0
0,42,90,96
0,36,110,0
0,42,90,0
0,69,90,0
0,33,100,0
0,42,90,96
0,37,95,96
0,42,90,0
0,61,90,0
0,57,90,0
0,52,90,0
0,36,110,96
0,42,90,0
0,69,90,0
0,33,100,0
0,36,110,0
0,42,90,0
0,69,90,0
0,33,100,0
0,42,90,96
0,37,95,72
0,42,90,0
0,57,90,0
0,61,90,0
0,52,90,0
0,42,90,96
0,36,110,0
0,42,90,0
0,69,90,0
0,33,100,0
0,60,100,0
0,64,100,0
0,69,100,0
0,42,90,96
0,37,95,96
0,42,90,0
0,52,90,0
0,57,90,0
0,60,90,0
0,36,110,96
0,42,90,0
0,69,90,0
0,33,100,0
0,36,110,0
0,42,90,0
0,69,90,0
0,33,100,0
0,76,100,0
0,42,90,6
0,78,100,0
0,37,95,50
0,42,90,0
0,52,90,0
0,57,90,0
0,60,90,0
0,42,90,96
0,81,100,0
0,36,110,0
0,42,90,0
0,69,90,0
0,33,100,0
0,42,90,96
0,80,100,0
0,37,95,96
0,42,90,0
0,52,90,0
0,57,90,0
0,60,90,0
0,36,110,0
0,42,90,0
0,69,90,0
0,33,100,0
0,76,100,0
0,36,110,0
0,42,90,0
0,69,90,0
0,33,100,0
0,42,90,0
0,64,100,0
0,73,100,0
0,37,95,50
0,42,90,0
0,52,90,0
0,57,90,0
0,60,90,0
0,68,100,0
0,42,90,0
0,69,100,0
0,71,100,0
0,36,110,0
0,42,90,0
0,69,90,0
0,40,100,0
0,64,100,0
0,68,100,0
0,71,100,0
0,42,90,96
0,37,95,96
0,42,90,0
0,64,90,0
0,59,90,0
0,56,90,0
0,68,100,0
0,36,110,84
0,42,90,0
0,69,90,0
0,40,100,0
0,36,110,0
0,42,90,0
0,69,90,0
0,40,100,0
0,68,100,0
0,42,90,96
0,37,95,0
0,42,90,0
0,64,90,0
0,59,90,0
0,56,90,0
0,68,100,0
0,42,90,32
0,69,100,0
0,36,110,0
0,42,90,0
0,69,90,0
0,33,100,0
0,69,100,0
0,42,90,96
0,37,95,42
0,42,90,0
0,52,90,0
0,57,90,0
0,60,90,0
0,68,100,0
0,36,110,96
0,42,90,0
0,69,90,0
0,33,100,0
0,36,110,0
0,42,90,0
0,69,90,0
0,33,100,0
0,64,100,0
0,42,90,20
0,61,100,0
0,37,95,50
0,42,90,0
0,52,90,0
0,57,90,0
0,60,90,0
0,42,90,96
0,59,100,0
0,36,110,0
0,42,90,0
0,69,90,0
0,40,100,0
0,68,91,0
0,71,91,0
0,42,90,96
0,37,95,96
0,42,90,0
0,64,90,0
0,59,90,0
0,56,90,0
0,36,110,96
0,42,90,0
0,69,90,0
0,40,100,0
0,36,110,0
0,42,90,0
0,69,90,0
0,40,100,0
0,42,90,96
0,37,95,50
0,42,90,0
0,64,90,0
0,59,90,0
0,56,90,0
0,42,90,96
0,36,110,0
0,42,90,0
0,69,90,0
0,33,100,0
0,69,91,0
0,73,91,0
0,42,90,96
0,37,95,96
0,42,90,0
0,57,90,0
0,61,90,0
0,52,90,0
0,36,110,96
0,42,90,0
0,69,90,0
0,33,100,0
0,36,110,0
0,42,90,0
0,69,90,0
0,33,100,0
0,42,90,96
0,73,100,0
0,37,95,0
0,42,90,0
0,61,90,0
0,57,90,0
0,52,90,0
0,69,91,0
0,78,91,0
0,71,100,0
0,42,90,38
0,64,100,0
0,36,110,0
0,42,90,0
0,69,90,0
0,40,100,0
0,68,91,0
0,76,91,0
0,76,100,0
0,42,90,96
0,37,95,96
0,42,90,0
0,59,90,0
0,64,90,0
0,71,100,0
0,56,90,0
0,36,110,8
0,42,90,0
0,69,90,0
0,40,100,0
0,36,110,0
0,42,90,0
0,69,90,0
0,40,100,0
0,71,100,0
0,42,90,38
0,71,100,0
0,37,95,96
0,42,90,0
0,56,90,0
0,59,90,0
0,64,90,0
0,42,90,82
0,76,100,0
0,36,110,0
0,42,90,0
0,69,90,0
0,33,100,0
0,85,91,0
0,81,91,0
0,69,100,0
0,81,100,0
0,42,90,96
0,37,95,46
0,42,90,0
0,61,90,0
0,52,90,0
0,57,90,0
0,76,100,0
0,36,110,36
0,42,90,0
0,69,90,0
0,33,100,0
0,36,110,0
0,42,90,0
0,69,90,0
0,33,100,0
0,76,100,0
0,42,90,12
0,71,100,0
0,37,95,96
0,42,90,0
0,61,90,0
0,57,90,0
0,52,90,0
0,42,90,30
0,73,100,0
0,36,110,0
0,42,90,0
0,69,90,0
0,35,100,0
0,87,91,0
0,75,91,0
0,83,100,0
0,71,100,0
0,42,90,10
0,37,95,0
0,42,90,0
0,57,90,0
0,59,90,0
0,63,90,0
0,54,90,0
0,35,100,0
0,36,110,60
0,42,90,0
0,69,90,0
0,75,100,0
0,73,100,0
0,36,110,0
0,42,90,0
0,69,90,0
0,35,100,0
0,71,100,0
0,42,90,26
0,37,95,0
0,42,90,0
0,59,90,0
0,63,90,0
0,54,90,0
0,57,90,0
0,35,100,0
0,42,90,6
0,36,110,0
0,49,110,0
0,57,90,0
0,63,90,0
0,54,90,0
0,59,90,0
0,35,100,0
0,71,100,0
0,83,100,0
0,64,100,76
0,64,100,122
0,64,100,112
0,68,100,0
0,37,100,16
0,64,100,0
0,35,100,26
0,66,100,0
0,36,110,22
0,42,90,0
0,69,90,0
0,49,110,0
0,28,100,0
0,64,100,0
0,56,100,0
0,59,100,0
0,76,91,0
0,64,100,0
0,42,90,96
0,37,95,96
0,42,90,0
0,64,100,0
0,36,110,10
0,42,90,0
0,69,90,0
0,63,100,0
0,36,110,6
0,42,90,0
0,69,90,0
0,64,100,0
