track,note,velocity,time
1,38,89,3072
1,38,80,128
1,38,84,96
1,38,72,96
1,35,80,192
1,33,84,48
1,38,91,16
1,38,84,96
1,35,89,192
1,33,91,48
1,38,100,32
1,38,119,112
1,35,80,48
1,33,108,64
1,38,100,32
1,38,89,96
1,35,91,16
1,33,108,64
1,38,108,64
1,38,108,80
1,35,100,48
1,33,108,80
1,38,89,64
1,38,119,48
1,35,100,64
1,33,119,64
1,31,108,80
1,31,91,96
1,35,89,32
1,38,84,32
1,33,108,48
1,33,108,96
1,37,100,32
1,40,80,64
1,38,119,32
1,38,100,96
1,35,108,48
1,33,119,80
1,38,89,64
1,38,119,64
1,35,100,48
1,33,108,80
1,38,91,48
1,38,108,48
1,35,108,32
1,33,119,80
1,38,100,64
1,38,108,48
1,35,100,64
1,33,119,64
1,38,91,64
1,38,108,48
1,35,108,64
1,33,108,80
1,38,91,48
1,38,127,32
1,35,108,48
1,33,119,80
1,31,108,48
1,31,91,96
1,35,89,32
1,38,84,32
1,33,108,48
1,33,108,96
1,37,100,32
1,40,80,64
1,38,108,32
1,38,108,96
1,35,108,64
1,33,108,64
1,38,91,64
1,38,91,80
1,35,108,64
1,33,119,64
1,38,91,64
1,38,100,80
1,35,108,64
1,33,108,64
1,38,91,64
1,38,89,96
1,35,127,112
1,33,100,48
1,38,100,64
1,38,89,64
1,35,108,32
1,33,100,32
1,38,100,64
1,38,100,96
1,35,119,48
1,33,100,48
1,31,108,96
1,31,91,96
1,35,89,32
1,38,84,32
1,33,108,48
1,33,108,96
1,37,100,32
1,40,80,64
1,38,100,32
1,38,108,96
1,35,100,80
1,33,119,64
1,38,100,80
1,38,119,64
1,35,100,80
1,33,108,48
1,38,91,64
1,38,119,64
1,35,100,80
1,33,119,64
1,38,91,64
1,38,127,64
1,35,91,48
1,33,119,80
1,38,100,80
1,38,108,64
1,35,100,64
1,33,119,48
1,38,91,80
1,38,119,48
1,35,108,64
1,33,119,64
1,31,108,48
1,31,91,96
1,35,89,32
1,38,84,32
1,33,108,48
1,33,108,96
1,37,100,32
1,40,80,64
1,38,119,32
1,38,119,80
1,35,100,64
1,33,108,80
1,38,91,80
1,38,89,112
1,35,127,64
1,33,89,32
1,38,89,64
1,38,91,80
1,35,119,64
1,33,91,48
1,38,119,80
1,38,100,80
1,35,119,64
1,33,100,80
1,35,119,80
1,35,100,80
1,33,91,144
1,33,100,112
1,31,108,48
1,31,100,128
1,35,119,32
1,31,119,0
1,38,91,48
1,38,76,80
1,40,100,64
1,38,100,64
1,35,119,64
1,35,119,80
1,33,100,96
1,33,91,96
1,31,108,32
1,31,91,80
1,35,91,32
1,31,100,0
1,38,91,64
1,38,108,96
1,40,100,64
1,38,91,16
1,35,108,80
1,35,91,96
1,33,91,80
1,33,91,96
1,31,91,32
1,31,91,80
1,31,91,112
1,33,108,48
1,33,119,96
1,38,100,160
1,38,91,96
1,35,100,64
1,33,100,0
1,38,108,64
1,38,89,112
1,35,100,16
1,33,119,16
1,41,100,96
1,42,119,16
1,41,91,16
1,42,108,0
1,40,108,32
1,38,89,16
1,35,89,32
1,33,119,48
1,38,108,32
1,38,108,80
1,35,100,48
1,33,108,80
1,38,89,64
1,38,119,48
1,35,100,64
1,33,119,64
1,31,108,80
1,31,91,96
1,35,89,32
1,38,84,32
1,33,108,48
1,33,108,96
1,37,100,32
1,40,80,64
1,38,119,32
1,38,100,96
1,35,108,48
1,33,119,80
1,38,89,64
1,38,119,64
1,35,100,48
1,33,108,80
1,38,91,48
1,38,108,48
1,35,108,32
1,33,119,80
1,38,100,64
1,38,108,48
1,35,100,64
1,33,119,64
1,38,91,64
1,38,108,48
1,35,108,64
1,33,108,80
1,38,91,48
1,38,127,32
1,35,108,48
1,33,119,80
1,31,108,48
1,31,91,96
1,35,89,32
1,38,84,32
1,33,108,48
1,33,108,96
1,37,100,32
1,40,80,64
1,38,108,32
1,38,108,96
1,35,108,64
1,33,108,64
1,38,91,64
1,38,91,80
1,35,108,64
1,33,119,64
1,38,91,64
1,38,100,80
1,35,108,64
1,33,108,64
1,38,91,64
1,38,89,96
1,35,127,112
1,33,100,48
1,38,100,64
1,38,89,64
1,35,108,32
1,33,100,32
1,38,100,64
1,38,100,96
1,35,119,48
1,33,100,48
1,31,108,96
1,31,91,96
1,35,89,32
1,38,84,32
1,33,108,48
1,33,108,96
1,37,100,32
1,40,80,64
1,38,100,32
1,38,108,96
1,35,100,80
1,33,119,64
1,38,100,80
1,38,119,64
1,35,100,80
1,33,108,48
1,38,91,64
1,38,119,64
1,35,100,80
1,33,119,64
1,38,91,64
1,38,127,64
1,35,91,48
1,33,119,80
1,38,100,80
1,38,108,64
1,35,100,64
1,33,119,48
1,38,91,80
1,38,119,48
1,35,108,64
1,33,119,64
1,31,108,48
1,31,91,96
1,35,89,32
1,38,84,32
1,33,108,48
1,33,108,96
1,37,100,32
1,40,80,64
1,38,119,32
1,38,119,80
1,35,100,64
1,33,108,80
1,38,91,80
1,38,89,112
1,35,127,64
1,33,89,32
1,38,89,64
1,38,91,80
1,35,119,64
1,33,91,48
1,38,119,80
1,38,100,80
1,35,119,64
1,33,100,80
1,35,119,80
1,35,100,80
1,33,91,144
1,33,100,112
1,31,108,48
1,31,100,128
1,35,119,32
1,31,119,0
1,38,91,48
1,38,76,80
1,40,100,64
1,38,100,64
1,35,119,64
1,35,119,80
1,33,100,96
1,33,91,96
1,31,108,32
1,31,91,80
1,35,91,32
1,31,100,0
1,38,91,64
1,38,108,96
1,40,100,64
1,38,91,16
1,35,108,80
1,35,91,96
1,33,91,80
1,33,91,96
1,31,91,32
1,31,91,80
1,31,91,112
1,33,108,48
1,33,119,96
1,38,91,160
1,38,108,80
1,36,84,64
1,35,91,0
1,33,108,64
1,38,84,64
1,38,108,64
1,35,100,48
1,33,108,64
1,38,91,48
1,38,108,96
1,35,100,48
1,33,119,80
1,38,100,48
1,38,119,96
1,35,108,64
1,33,119,80
1,35,119,48
1,35,100,80
1,33,91,144
1,33,100,112
1,31,108,48
1,31,100,128
1,35,119,32
1,31,119,0
1,38,91,48
1,38,76,80
1,40,100,64
1,38,100,64
1,35,119,64
1,35,119,80
1,33,100,96
1,33,91,96
1,31,108,32
1,31,91,80
1,35,91,32
1,31,100,0
1,38,91,64
1,38,108,96
1,40,100,64
1,38,91,16
1,35,108,80
1,35,91,96
1,33,91,80
1,33,91,96
1,31,91,32
1,31,91,80
1,31,91,112
1,33,108,48
1,33,119,96
1,38,100,160
1,38,91,96
1,35,100,64
1,33,100,0
1,38,108,64
1,38,89,112
1,35,100,16
1,33,119,16
1,41,100,96
1,42,119,16
1,41,91,16
1,42,108,0
1,40,108,32
1,38,89,16
1,35,89,32
1,33,119,48
1,38,108,32
1,38,108,80
1,35,100,48
1,33,108,80
1,38,89,64
1,38,119,48
1,35,100,64
1,33,119,64
1,31,108,80
1,31,91,96
1,35,89,32
1,38,84,32
1,33,108,48
1,33,108,96
1,37,100,32
1,40,80,64
1,38,119,32
1,38,100,96
1,35,108,48
1,33,119,80
1,38,89,64
1,38,119,64
1,35,100,48
1,33,108,80
1,38,91,48
1,38,108,48
1,35,108,32
1,33,119,80
1,38,100,64
1,38,108,48
1,35,100,64
1,33,119,64
1,38,91,64
1,38,108,48
1,35,108,64
1,33,108,80
1,38,91,48
1,38,127,32
1,35,108,48
1,33,119,80
1,31,108,48
1,31,91,96
1,35,89,32
1,38,84,32
1,33,108,48
1,33,108,96
1,37,100,32
1,40,80,64
1,38,108,32
1,38,108,96
1,35,108,64
1,33,108,64
1,38,91,64
1,38,91,80
1,35,108,64
1,33,119,64
1,38,91,64
1,38,100,80
1,35,108,64
1,33,108,64
1,38,91,64
1,38,89,96
1,35,127,112
1,33,100,48
1,38,100,64
1,38,89,64
1,35,108,32
1,33,100,32
1,38,100,64
1,38,100,96
1,35,119,48
1,33,100,48
1,31,108,96
1,31,91,96
1,35,89,32
1,38,84,32
1,33,108,48
1,33,108,96
1,37,100,32
1,40,80,64
1,38,100,32
1,38,108,96
1,35,100,80
1,33,119,64
1,38,100,80
1,38,119,64
1,35,100,80
1,33,108,48
1,38,91,64
1,38,119,64
1,35,100,80
1,33,119,64
1,38,91,64
1,38,127,64
1,35,91,48
1,33,119,80
1,38,100,80
1,38,108,64
1,35,100,64
1,33,119,48
1,38,91,80
1,38,119,48
1,35,108,64
1,33,119,64
1,31,108,48
1,31,91,96
1,35,89,32
1,38,84,32
1,33,108,48
1,33,108,96
1,37,100,32
1,40,80,64
1,38,119,32
1,38,119,80
1,35,100,64
1,33,108,80
1,38,91,80
1,38,89,112
1,35,127,64
1,33,89,32
1,38,89,64
1,38,91,80
1,35,119,64
1,33,91,48
1,38,119,80
1,38,100,80
1,35,119,64
1,33,100,80
1,35,119,80
1,35,100,80
1,33,91,144
1,33,100,112
1,31,108,48
1,31,100,128
1,35,119,32
1,31,119,0
1,38,91,48
1,38,76,80
1,40,100,64
1,38,100,64
1,35,119,64
1,35,119,80
1,33,100,96
1,33,91,96
1,31,108,32
1,31,91,80
1,35,91,32
1,31,100,0
1,38,91,64
1,38,108,96
1,40,100,64
1,38,91,16
1,35,108,80
1,35,91,96
1,33,91,80
1,33,91,96
1,31,91,32
1,31,91,80
1,31,91,112
1,33,108,48
1,33,119,96
1,38,100,160
1,38,100,96
1,35,108,64
1,33,119,80
1,38,100,64
1,38,119,80
1,35,91,48
1,33,127,64
1,31,100,32
1,31,100,112
1,35,89,64
1,31,91,0
1,38,89,64
1,35,108,0
1,40,100,64
1,38,91,16
1,38,100,32
1,38,100,96
1,35,108,64
1,33,119,80
1,38,100,64
1,38,119,80
1,35,91,48
1,33,127,64
1,31,100,32
1,31,100,112
1,35,89,64
1,31,91,0
1,38,89,64
1,35,108,0
1,40,100,64
1,38,91,16
1,38,100,32
1,38,100,96
1,35,108,64
1,33,119,80
1,38,100,64
1,38,119,80
1,35,91,48
1,33,127,64
1,31,100,32
1,31,100,112
1,35,89,64
1,31,91,0
1,38,89,64
1,35,108,0
1,40,100,64
1,38,91,16
1,38,100,32
1,38,100,96
1,35,108,64
1,33,119,80
1,38,100,64
1,38,119,80
1,35,91,48
1,33,127,64
1,31,100,32
1,31,100,112
1,35,89,64
1,31,91,0
1,38,89,64
1,35,108,0
1,40,100,64
1,38,91,16
1,38,100,32
1,38,100,96
1,35,108,64
1,33,119,80
1,38,100,64
1,38,119,80
1,35,91,48
1,33,127,64
1,31,100,32
1,31,100,112
1,35,89,64
1,31,91,0
1,38,89,64
1,35,108,0
1,40,100,64
1,38,91,16
1,38,100,32
1,38,100,96
1,35,108,64
1,33,119,80
1,38,100,64
1,38,119,80
1,35,91,48
1,33,127,64
1,31,100,32
1,31,100,112
1,35,89,64
1,31,91,0
1,38,89,64
1,35,108,0
1,40,100,64
1,38,91,16
1,38,100,32
1,38,100,96
1,35,108,64
1,33,119,80
1,38,100,64
1,38,119,80
1,35,91,48
1,33,127,64
1,31,100,32
1,31,100,112
1,35,89,64
1,31,91,0
1,38,89,64
1,35,108,0
1,40,100,64
1,38,91,16
1,38,100,32
1,38,100,96
1,35,108,64
1,33,119,80
1,38,100,64
1,38,119,80
1,35,91,48
1,33,127,64
1,31,100,32
1,31,100,112
1,35,89,64
1,31,91,0
1,38,89,64
1,35,108,0
1,40,100,64
1,38,91,16
1,38,100,32
1,38,100,96
1,35,108,64
1,33,119,80
1,38,100,64
1,38,119,80
1,35,91,48
1,33,127,64
1,31,119,32
1,31,91,96
1,35,127,64
1,31,119,0
1,33,127,96
1,33,119,64
1,38,127,80
2,57,99,1536
2,54,99,0
2,50,88,0
2,57,71,32
2,54,127,0
2,50,71,0
2,59,99,16
2,54,127,0
2,50,71,0
2,57,80,16
2,54,127,0
2,50,71,0
2,57,88,48
2,54,127,0
2,50,71,0
2,57,88,32
2,54,127,0
2,50,80,0
2,59,127,32
2,54,127,0
2,50,88,0
2,57,88,32
2,54,99,0
2,50,80,0
2,57,88,16
2,54,127,0
2,50,88,0
2,54,113,48
2,59,99,64
2,54,127,0
2,50,88,0
2,57,88,48
2,54,99,0
2,50,80,0
2,57,88,32
2,54,127,0
2,50,88,0
2,57,99,32
2,54,99,0
2,50,88,0
2,59,99,64
2,54,127,0
2,50,99,0
2,57,88,32
2,54,127,0
2,50,80,0
2,57,99,32
2,54,99,0
2,50,88,0
2,57,113,16
2,54,99,0
2,50,80,0
2,59,113,16
2,54,127,0
2,50,99,0
2,57,80,48
2,54,99,0
2,50,71,0
2,57,88,48
2,54,127,0
2,50,80,0
2,57,99,32
2,54,99,0
2,59,99,16
2,54,113,0
2,50,88,0
2,57,88,48
2,54,99,0
2,50,88,0
2,57,127,48
2,54,127,0
2,50,99,0
2,57,80,16
2,54,99,0
2,50,88,0
2,59,127,48
2,54,127,0
2,50,88,0
2,57,88,48
2,54,99,0
2,57,99,64
2,54,127,0
2,50,88,0
2,54,113,48
2,59,99,48
2,54,127,0
2,50,99,0
2,57,99,48
2,54,113,0
2,50,88,0
2,66,99,464
2,69,88,0
2,74,80,0
2,66,88,656
2,69,88,0
2,74,88,0
2,67,88,640
2,71,99,0
2,74,80,0
2,73,99,656
2,76,80,0
2,69,80,0
2,69,99,656
2,66,88,0
2,74,80,0
2,69,99,672
2,66,99,0
2,74,80,0
2,69,88,656
2,66,88,0
2,74,71,0
2,69,99,688
2,66,88,0
2,74,88,0
2,69,88,688
2,66,88,0
2,74,71,0
2,66,99,688
2,69,80,0
2,74,71,0
2,74,80,640
2,71,88,0
2,67,71,0
2,73,99,640
2,69,80,0
2,76,88,0
2,69,88,656
2,74,80,0
2,66,88,0
2,69,99,656
2,66,88,0
2,74,71,0
2,69,88,640
2,66,88,0
2,74,71,0
2,66,88,656
2,69,88,0
2,74,69,0
2,66,99,656
2,69,88,0
2,74,71,0
2,66,99,688
2,69,88,0
2,74,80,0
2,74,71,640
2,67,80,0
2,71,80,0
2,73,113,624
2,69,80,0
2,76,80,0
2,69,80,688
2,66,80,0
2,74,69,0
2,69,80,672
2,66,80,0
2,74,71,0
2,69,80,672
2,74,71,0
2,66,71,0
2,69,88,672
2,66,80,0
2,74,69,0
2,69,88,688
2,74,71,0
2,66,80,0
2,66,88,672
2,69,88,0
2,74,71,0
2,71,88,688
2,74,80,0
2,67,71,0
2,73,99,640
2,69,69,0
2,76,71,0
2,69,88,656
2,66,88,0
2,74,71,0
2,69,88,672
2,66,80,0
2,74,64,0
2,69,88,672
2,66,80,0
2,74,80,0
2,69,88,672
2,74,80,0
2,66,80,0
2,47,88,272
2,66,88,0
2,62,88,0
2,59,88,0
2,52,69,128
2,45,80,0
2,61,99,0
2,57,80,0
2,64,80,0
2,55,99,128
2,62,71,0
2,59,88,0
2,50,80,0
2,43,80,0
2,66,99,368
2,47,80,0
2,59,88,0
2,62,80,0
2,52,71,144
2,61,88,0
2,45,71,0
2,57,88,0
2,64,71,0
2,55,99,112
2,62,71,0
2,59,88,0
2,43,88,0
2,66,99,368
2,59,71,0
2,62,80,0
2,47,80,0
2,61,88,192
2,57,71,0
2,64,71,0
2,52,64,0
2,45,80,0
2,62,71,160
2,55,88,0
2,59,99,0
2,43,80,0
2,57,80,160
2,64,80,0
2,61,80,0
2,45,80,0
2,69,88,560
2,66,88,0
2,74,71,0
2,69,88,672
2,66,80,0
2,74,64,0
2,69,88,672
2,66,80,0
2,74,80,0
2,69,88,672
2,74,80,0
2,66,80,0
2,66,99,656
2,69,88,0
2,74,80,0
2,66,88,656
2,69,88,0
2,74,88,0
2,67,88,640
2,71,99,0
2,74,80,0
2,73,99,656
2,76,80,0
2,69,80,0
2,69,99,656
2,66,88,0
2,74,80,0
2,69,99,672
2,66,99,0
2,74,80,0
2,69,88,656
2,66,88,0
2,74,71,0
2,69,99,688
2,66,88,0
2,74,88,0
2,69,88,688
2,66,88,0
2,74,71,0
2,66,99,688
2,69,80,0
2,74,71,0
2,74,80,640
2,71,88,0
