track,note,velocity,time
0,38,76,0
0,38,88,0
0,38,100,1
0,38,0,3
0,57,76,22
0,38,74,0
0,38,0,9
0,57,0,21
0,38,74,0
0,62,84,1
0,38,0,7
0,62,0,22
0,46,70,1
0,38,108,0
0,66,88,1
0,46,0,9
0,38,0,1
0,66,0,19
0,38,84,2
0,62,80,2
0,38,0,6
0,38,0,1
0,38,80,21
0,62,0,3
0,57,84,0
0,38,0,7
0,38,0,21
0,33,88,0
0,57,0,2
0,33,49,0
0,38,100,0
0,59,70,0
0,59,0,11
0,38,0,0
0,57,108,21
0,61,88,30
0,57,0,2
0,61,0,29
0,64,108,1
0,38,88,3
0,38,0,11
0,64,0,18
0,61,84,0
0,38,72,2
0,38,0,10
0,33,0,19
0,57,84,1
0,38,72,0
0,61,0,2
0,38,0,8
0,57,0,21
0,33,0,1
0,102,72,0
0,38,76,1
0,38,92,0
0,38,88,3
0,38,0,10
0,38,72,19
0,54,84,1
0,38,0,11
0,38,72,18
0,57,84,1
0,54,0,9
0,38,0,1
0,62,108,21
0,38,100,0
0,57,0,4
0,38,0,8
0,38,68,21
0,57,84,1
0,62,0,1
0,38,0,8
0,38,0,8
0,54,76,13
0,38,68,0
0,57,0,6
0,38,0,6
0,102,0,16
0,38,0,3
0,66,92,1
0,38,101,0
0,33,80,1
0,98,72,0
0,54,0,5
0,38,0,5
0,38,66,21
0,62,88,1
0,66,0,3
0,38,0,6
0,57,84,22
0,38,66,0
0,62,0,6
0,33,0,2
0,38,0,2
0,69,100,22
0,33,80,1
0,38,110,1
0,57,0,9
0,38,0,4
0,33,0,16
0,35,80,0
0,66,76,1
0,38,76,2
0,69,0,5
0,38,0,6
0,35,0,17
0,62,76,2
0,37,88,0
0,38,76,2
0,66,0,6
0,38,0,3
0,98,0,18
0,37,0,1
0,69,70,0
0,62,127,0
0,38,88,1
0,62,103,0
0,62,0,1
0,62,70,0
0,62,112,0
0,62,112,0
0,57,127,0
0,54,127,0
0,38,118,0
0,66,120,0
0,62,0,2
0,66,0,1
0,38,0,1
0,69,0,1
0,62,0,1
0,62,83,1
0,62,92,1
0,38,90,0
0,66,103,0
0,62,84,1
0,66,100,1
0,69,100,2
0,38,0,2
0,62,0,1
0,62,0,0
0,66,0,1
0,62,83,0
0,62,85,1
0,38,90,0
0,66,103,0
0,66,84,1
0,66,0,1
0,66,86,0
0,69,0,1
0,69,98,0
0,62,0,1
0,38,0,1
0,62,0,2
0,62,0,1
0,66,0,0
0,66,0,0
0,44,114,0
0,69,108,1
0,38,110,0
0,62,103,0
0,66,0,1
0,62,90,0
0,66,113,0
0,69,0,1
0,66,90,1
0,69,100,2
0,44,0,1
0,38,0,0
0,38,0,1
0,62,0,1
0,66,0,0
0,62,0,0
0,66,84,0
0,38,90,0
0,62,83,0
0,66,0,1
0,69,0,0
0,62,90,0
0,66,103,0
0,69,0,1
0,66,90,0
0,69,100,1
0,38,0,4
0,66,0,2
0,62,0,2
0,66,0,0
0,62,0,0
0,62,84,0
0,66,0,1
0,62,83,0
0,69,0,1
0,62,85,0
0,38,86,0
0,66,103,0
0,66,87,1
0,69,92,1
0,38,0,3
0,66,0,1
0,62,0,0
0,57,0,1
0,62,0,1
0,62,0,1
0,30,80,1
0,69,112,0
0,62,0,1
0,66,0,0
0,73,75,0
0,38,118,0
0,102,64,1
0,61,93,0
0,69,0,1
0,66,78,0
0,61,127,0
0,66,113,0
0,61,0,1
0,38,0,0
0,66,0,1
0,73,0,1
0,66,0,2
0,38,90,0
0,61,83,1
0,66,88,1
0,66,103,0
0,61,92,1
0,69,90,1
0,73,90,2
0,38,0,4
0,61,0,1
0,66,0,1
0,66,0,0
0,66,80,0
0,61,83,0
0,69,0,1
0,66,84,0
0,38,90,0
0,66,103,0
0,61,0,1
0,73,0,1
0,69,84,0
0,73,90,0
0,38,0,3
0,66,0,2
0,66,0,0
0,61,0,0
0,69,108,0
0,38,110,0
0,44,106,0
0,66,0,1
0,61,93,0
0,69,0,1
0,66,80,0
0,66,113,0
0,73,0,1
0,69,80,0
0,73,84,1
0,38,0,6
0,44,0,1
0,30,0,8
0,102,0,3
0,61,0,1
0,69,0,1
0,66,0,0
0,66,0,0
0,66,76,0
0,38,90,0
0,69,0,1
0,61,83,0
0,73,0,1
0,66,72,0
0,66,103,0
0,69,80,1
0,73,90,1
0,38,0,6
0,66,0,3
0,66,0,1
0,61,0,0
0,66,0,0
0,61,80,0
0,38,90,0
0,69,0,1
0,61,83,0
0,73,0,1
0,66,76,0
0,66,103,0
0,69,80,1
0,73,91,1
0,38,0,5
0,61,0,4
0,66,0,2
0,69,0,0
0,61,0,1
0,54,0,1
0,47,127,0
0,62,112,1
0,66,0,1
0,35,80,0
0,71,70,0
0,38,110,0
0,69,0,1
0,98,80,0
0,62,103,0
0,73,0,1
0,62,70,0
0,54,100,0
0,66,120,0
0,61,0,1
0,62,0,1
0,38,0,1
0,66,0,0
0,71,0,7
0,62,0,2
0,38,90,0
0,62,83,0
0,59,100,1
0,62,80,1
0,66,93,0
0,66,84,2
0,71,92,2
0,38,0,1
0,62,0,1
0,62,0,1
0,62,96,0
0,59,0,1
0,66,0,0
0,62,93,0
0,66,0,1
0,62,88,0
0,38,90,0
0,66,88,1
0,66,113,0
0,71,0,1
0,71,90,0
0,38,0,4
0,62,0,19
0,62,0,1
0,66,0,0
0,62,0,0
0,66,84,0
0,38,118,0
0,62,93,0
0,44,90,1
0,66,0,1
0,71,0,0
0,62,84,0
0,66,120,0
0,66,84,1
0,71,90,1
0,38,0,7
0,44,0,0
0,62,0,9
0,66,0,1
0,62,0,0
0,66,0,0
0,62,80,0
0,38,90,0
0,62,93,0
0,66,0,1
0,62,80,1
0,66,103,0
0,71,0,1
0,66,83,0
0,35,0,1
0,71,90,0
0,98,0,4
0,38,0,2
0,62,0,18
0,62,0,2
0,62,0,1
0,66,0,1
0,66,0,0
0,59,62,0
0,38,90,0
0,62,93,1
0,71,0,1
0,62,88,0
0,66,103,1
0,66,90,1
0,71,97,1
0,38,0,5
0,59,0,18
0,62,0,4
0,62,0,0
0,33,88,0
0,38,118,0
0,62,103,1
0,66,0,1
0,66,0,0
0,62,86,0
0,66,120,0
0,71,0,1
0,66,90,1
0,71,98,2
0,38,0,5
0,62,0,1
0,62,0,0
0,59,80,0
0,38,102,0
0,66,0,1
0,62,93,0
0,66,0,1
0,62,80,0
0,66,103,0
0,66,82,1
0,71,0,1
0,71,88,0
0,38,0,3
0,62,0,1
0,62,0,0
0,66,0,0
0,62,93,0
0,66,0,1
0,62,93,0
0,71,0,1
0,59,0,0
0,62,88,0
0,38,98,0
0,66,88,1
0,66,103,0
0,71,94,1
0,38,0,1
0,62,0,2
0,44,114,0
0,62,0,1
0,62,0,0
0,62,0,0
0,66,84,0
0,38,118,0
0,100,80,0
0,66,0,1
0,62,103,0
0,66,0,1
0,62,0,0
0,71,0,0
0,62,0,0
0,62,80,0
0,66,86,1
0,66,120,0
0,71,97,1
0,38,0,2
0,44,0,0
0,54,0,1
0,62,0,2
0,66,0,1
0,66,0,0
0,62,0,0
0,62,88,0
0,38,90,0
0,62,93,0
0,71,0,1
0,66,0,0
0,62,80,0
0,64,100,0
0,66,83,1
0,66,103,0
0,71,87,1
0,38,0,1
0,33,0,1
0,100,0,1
0,62,0,1
0,102,64,0
0,62,0,1
0,62,0,0
0,59,76,0
0,38,85,0
0,66,0,1
0,62,93,0
0,71,0,1
0,66,0,0
0,62,84,0
0,66,86,1
0,66,103,0
0,71,90,1
0,47,0,1
0,38,0,2
0,62,0,5
0,66,0,1
0,64,0,1
0,102,0,1
0,71,0,1
0,62,0,0
0,59,0,1
0,31,68,0
0,69,66,0
0,38,116,0
0,62,103,0
0,66,0,2
0,62,70,0
0,67,112,0
0,62,111,0
0,59,127,0
0,55,127,1
0,50,127,0
0,67,120,0
0,103,80,0
0,62,0,2
0,67,0,1
0,38,0,1
0,69,0,2
0,62,0,1
0,59,92,0
0,38,98,0
0,62,93,0
0,62,84,1
0,67,103,0
0,67,86,1
0,71,100,1
0,38,0,1
0,62,0,1
0,62,0,1
0,67,0,0
0,62,95,0
0,59,0,1
0,62,93,0
0,67,0,1
0,62,80,0
0,38,94,0
0,67,103,1
0,71,0,1
0,67,82,0
0,71,92,1
0,38,0,1
0,62,0,3
0,62,0,1
0,67,100,0
0,38,118,0
0,44,106,0
0,62,103,0
0,62,0,1
0,67,0,0
0,67,0,0
0,62,90,0
0,67,120,0
0,71,0,1
0,67,92,0
0,71,100,2
0,31,0,1
0,44,0,1
0,38,0,1
0,103,0,1
0,62,0,1
0,62,0,0
0,62,100,0
0,38,98,0
0,67,0,1
0,67,0,0
0,62,93,0
0,67,0,1
0,62,86,0
0,67,103,0
0,71,0,1
0,67,88,0
0,71,100,1
0,38,0,2
0,62,0,1
0,67,0,1
0,67,0,0
0,62,0,0
0,62,0,0
0,59,90,0
0,62,93,1
0,67,0,1
0,71,0,0
0,62,88,0
0,38,98,0
0,67,103,0
0,67,88,1
0,71,92,1
0,38,0,2
0,62,0,4
0,67,0,1
0,59,0,1
0,55,0,1
0,30,80,1
0,67,0,1
0,62,0,0
0,38,102,0
0,62,103,0
0,71,0,1
0,69,70,0
0,62,70,0
0,66,112,0
0,54,127,0
0,66,120,0
0,102,80,0
0,38,0,2
0,62,0,1
0,66,0,1
0,69,0,5
0,62,0,1
0,57,84,1
0,38,90,0
0,62,93,1
0,62,88,1
0,66,103,0
0,66,88,1
0,69,95,1
0,38,0,2
0,62,0,2
0,62,0,0
0,57,0,0
0,62,95,0
0,66,0,1
0,66,0,0
0,62,93,0
0,69,0,1
0,62,84,0
0,38,90,0
0,66,88,1
0,66,103,0
0,69,90,1
0,38,0,3
0,62,0,4
0,44,106,0
0,62,0,2
0,62,0,0
0,66,96,0
0,38,118,0
0,66,0,1
0,62,103,0
0,66,0,1
0,69,0,0
0,62,80,0
0,66,120,0
0,30,0,1
0,66,85,0
0,69,90,2
0,44,0,3
0,38,0,2
0,102,0,1
0,62,0,8
0,66,0,1
0,62,0,0
0,62,92,0
0,38,102,0
0,66,0,1
0,66,0,0
0,62,83,0
0,62,72,1
0,66,103,0
0,69,0,1
0,66,82,0
0,69,90,1
0,38,0,7
0,62,0,20
0,62,0,1
0,66,0,0
0,62,0,0
0,57,76,0
0,38,102,0
0,66,0,1
0,66,0,0
0,62,83,0
0,69,0,1
0,62,76,0
0,66,80,1
0,66,103,0
0,69,90,1
0,38,0,2
0,62,0,2
0,66,0,2
0,64,100,2
0,54,0,1
0,50,0,0
0,28,80,1
0,45,127,0
0,62,0,1
0,100,80,0
0,66,0,1
0,38,118,0
0,69,0,1
0,57,0,0
0,64,76,0
0,69,76,0
0,52,100,0
0,61,93,0
0,67,113,0
0,38,0,3
0,69,0,10
0,64,0,0
0,67,0,0
0,38,102,0
0,61,0,1
0,57,88,0
0,64,80,1
0,67,113,0
0,67,85,1
0,73,90,1
0,61,93,0
0,38,0,2
0,57,0,1
0,64,0,1
0,67,0,0
0,61,90,0
0,38,97,0
0,67,0,1
0,73,0,1
0,61,0,0
0,64,80,0
0,61,83,0
0,67,86,1
0,73,88,1
0,67,103,0
0,38,0,6
0,61,0,3
0,67,0,2
0,44,82,1
0,64,0,1
0,61,0,0
0,64,108,0
0,38,126,0
0,67,0,1
0,73,0,1
0,64,84,0
0,67,113,0
0,67,87,1
0,73,92,1
0,44,0,2
0,38,0,1
0,64,0,1
0,64,0,0
0,61,62,0
0,38,104,0
0,67,0,1
0,67,0,0
0,61,93,0
0,73,0,1
0,64,80,0
0,67,103,0
0,67,84,1
0,73,90,1
0,38,0,6
0,28,0,4
0,64,0,1
0,61,0,0
0,67,0,0
0,57,84,0
0,38,100,0
0,67,0,1
0,61,83,0
0,73,0,1
0,64,88,0
0,67,103,0
0,61,0,1
0,67,88,0
0,73,90,1
0,38,0,6
0,64,0,1
0,61,0,0
0,57,0,0
0,38,110,0
0,67,0,1
0,67,0,0
0,61,93,0
0,73,0,1
0,33,96,0
0,64,86,0
0,67,113,0
0,67,88,1
0,73,93,1
0,38,0,3
0,61,0,3
0,67,0,1
0,64,0,0
0,100,0,0
0,38,90,0
0,67,0,1
0,61,83,0
0,73,0,1
0,64,85,0
0,67,103,0
0,57,80,1
0,67,86,0
0,73,89,1
0,38,0,1
0,64,0,1
0,61,0,0
0,61,84,0
0,38,90,0
0,57,0,1
0,67,0,0
0,67,0,0
0,61,83,0
0,73,0,1
0,64,88,0
0,67,103,0
0,67,86,1
0,73,90,1
0,38,0,1
0,61,0,1
0,61,0,1
0,64,0,1
0,67,0,0
0,67,0,0
0,64,116,0
0,38,118,0
0,44,98,0
0,61,93,0
0,62,0,1
0,59,0,0
0,73,0,0
0,64,88,0
0,67,113,0
0,67,90,1
0,73,95,1
0,64,0,1
0,44,0,1
0,38,0,1
0,52,0,1
0,64,0,1
0,64,0,1
0,67,0,0
0,61,0,0
0,61,80,0
0,38,100,0
0,67,0,1
0,61,83,0
0,73,0,1
0,64,80,0
0,67,103,0
0,67,84,1
0,73,90,1
0,38,0,1
0,33,0,1
0,57,112,1
0,64,0,1
0,61,0,0
0,57,92,0
0,64,84,0
0,38,100,0
0,67,0,1
0,67,0,0
0,67,86,0
0,73,0,1
0,73,90,0
0,61,83,0
0,67,103,0
0,61,0,1
0,45,0,1
0,38,0,1
0,61,0,1
0,67,0,1
0,57,0,1
0,73,0,1
0,64,0,0
0,57,0,1
0,67,0,0
0,31,88,0
0,38,110,0
0,67,70,1
0,62,74,1
0,59,112,0
0,62,127,0
0,59,127,0
0,55,127,0
0,95,80,0
0,62,93,0
0,50,127,0
0,67,113,0
0,38,0,1
0,67,0,1
0,62,0,1
0,38,94,0
0,62,0,1
0,62,100,1
0,62,86,0
0,62,83,0
0,67,0,1
0,67,88,0
0,71,98,1
0,67,103,0
0,38,0,1
0,62,0,1
0,67,0,1
0,62,0,0
0,67,108,0
0,38,94,0
0,71,0,1
0,67,0,0
0,62,87,0
0,62,83,0
0,62,0,1
0,67,90,0
0,71,94,1
0,59,127,0
0,67,103,0
0,38,0,1
0,44,98,1
0,62,0,1
0,71,108,0
0,38,110,0
0,67,0,1
0,62,0,0
0,67,0,1
0,71,0,0
0,62,87,0
0,62,93,0
0,67,0,1
0,67,90,0
0,59,0,1
0,31,0,0
0,67,113,0
0,71,95,1
0,62,127,1
0,44,0,1
0,38,0,1
0,71,0,1
0,62,0,1
0,62,0,1
0,67,0,0
0,67,0,0
0,67,88,0
0,38,98,0
0,62,83,1
0,62,86,1
0,67,103,0
0,71,0,1
0,67,90,0
0,71,96,1
0,38,0,5
0,95,0,1
0,62,0,1
0,62,0,0
0,67,0,0
0,67,0,0
0,62,92,0
0,38,94,0
0,62,83,1
0,71,0,1
0,62,82,0
0,67,103,0
0,67,84,1
0,67,0,1
0,71,92,0
0,38,0,1
0,50,0,1
0,61,112,2
0,62,0,1
0,59,0,0
0,55,0,1
0,49,127,0
0,62,0,1
0,62,0,0
0,33,80,0
0,38,126,0
0,97,96,0
0,61,93,0
0,67,0,1
0,67,0,0
0,71,0,1
0,57,127,0
0,67,113,0
0,62,0,1
0,38,0,1
0,61,0,1
0,67,0,1
0,64,100,0
0,38,99,0
0,61,83,0
0,64,88,1
0,67,103,0
0,67,90,1
0,73,94,1
0,38,0,1
0,64,0,1
0,61,0,0
0,67,108,0
0,38,95,0
0,67,0,1
0,67,0,0
0,73,0,1
0,64,84,0
0,61,83,0
0,64,0,1
0,67,86,0
0,61,127,0
0,67,103,0
0,73,90,1
0,38,0,2
0,64,0,3
0,44,90,0
0,67,0,1
0,61,0,0
0,73,100,0
0,38,118,0
0,67,0,1
0,73,0,0
0,64,80,0
0,61,93,0
0,67,87,1
0,67,0,1
0,73,90,0
0,67,113,0
0,61,0,2
0,64,127,1
0,44,0,1
0,38,0,1
0,64,0,2
0,73,0,0
0,67,92,0
0,67,0,1
