track,note,velocity,time
0,55,108,5
0,74,114,110
0,62,98,140
0,74,114,100
0,55,108,140
0,74,120,80
0,62,102,150
0,74,114,110
0,55,108,150
0,74,126,90
0,62,98,150
0,74,120,120
0,55,108,160
0,74,114,110
0,62,102,160
0,74,120,120
0,55,98,150
0,74,120,110
0,62,98,5
0,74,114,5
0,55,94,150
0,74,120,110
0,81,109,160
0,62,98,0
0,74,120,80
0,79,103,150
0,55,108,0
0,67,86,80
0,70,78,0
0,70,81,0
0,74,74,0
0,79,60,0
0,82,64,0
0,74,114,0
0,67,92,20
0,74,95,30
0,62,98,0
0,67,92,0
0,70,86,0
0,70,74,100
0,74,81,0
0,79,74,0
0,82,68,0
0,74,114,0
0,67,98,0
0,70,86,0
0,81,109,140
0,55,108,0
0,70,74,80
0,74,81,0
0,79,68,0
0,82,81,0
0,79,103,0
0,74,120,0
0,62,102,110
0,70,81,110
0,74,87,0
0,79,74,0
0,82,68,0
0,74,109,0
0,74,114,0
0,55,108,110
0,67,92,90
0,70,78,0
0,70,74,0
0,74,81,0
0,79,64,0
0,82,68,0
0,74,126,0
0,67,92,30
0,62,98,20
0,67,104,0
0,70,92,0
0,70,74,120
0,74,87,0
0,79,68,0
0,82,74,0
0,74,120,0
0,67,98,0
0,70,98,0
0,55,108,140
0,70,81,110
0,74,81,0
0,79,68,0
0,82,74,0
0,74,114,0
0,81,109,150
0,62,102,0
0,70,68,100
0,74,81,0
0,79,68,0
0,82,68,0
0,74,120,0
0,79,99,150
0,55,98,0
0,67,92,110
0,70,86,0
0,70,81,0
0,74,87,0
0,79,74,0
0,82,74,0
0,74,120,0
0,67,92,20
0,74,109,20
0,62,98,0
0,67,92,0
0,70,92,0
0,70,81,110
0,74,87,0
0,79,74,0
0,82,68,0
0,74,114,0
0,67,104,0
0,70,92,0
0,81,99,140
0,55,94,0
0,70,74,90
0,74,81,0
0,79,68,0
0,82,68,0
0,79,103,0
0,74,120,0
0,62,98,120
0,70,81,120
0,74,81,0
0,79,74,0
0,82,68,0
0,74,109,0
0,74,120,0
0,55,108,110
0,67,92,110
0,70,86,0
0,70,74,0
0,74,87,0
0,79,74,0
0,82,68,0
0,74,114,0
0,67,92,20
0,50,98,20
0,67,92,0
0,70,92,0
0,70,81,100
0,74,87,0
0,79,74,0
0,82,68,0
0,74,114,0
0,67,104,0
0,70,92,0
0,55,108,140
0,70,74,80
0,74,81,0
0,79,64,0
0,82,68,0
0,74,120,0
0,81,115,150
0,50,102,0
0,70,81,110
0,74,81,0
0,79,74,0
0,82,68,0
0,74,114,0
0,79,109,140
0,55,108,0
0,67,92,90
0,70,92,0
0,70,68,0
0,74,81,0
0,79,68,0
0,82,68,0
0,74,126,0
0,67,86,30
0,74,109,40
0,50,98,0
0,67,92,0
0,70,92,0
0,70,74,120
0,74,81,0
0,79,64,0
0,82,68,0
0,74,120,0
0,67,98,0
0,70,98,0
0,81,109,120
0,55,108,0
0,70,74,90
0,74,81,0
0,79,68,0
0,82,68,0
0,79,103,0
0,74,114,0
0,50,102,130
0,70,74,120
0,74,81,0
0,79,68,0
0,82,74,0
0,74,109,0
0,74,120,0
0,55,98,120
0,67,98,110
0,70,92,0
0,70,81,0
0,74,87,0
0,79,68,0
0,82,74,0
0,74,120,0
0,67,104,30
0,74,109,30
0,50,98,0
0,67,86,0
0,70,86,0
0,70,74,120
0,74,87,0
0,79,68,0
0,82,74,0
0,74,115,0
0,74,114,0
0,67,104,0
0,70,98,0
0,55,94,80
0,70,81,110
0,74,87,0
0,79,68,0
0,82,74,0
0,74,120,0
0,74,121,150
0,50,98,0
0,70,87,100
0,74,87,0
0,79,87,0
0,82,81,0
0,75,109,0
0,74,120,0
0,93,80,90
0,57,108,0
0,92,80,120
0,66,92,90
0,69,82,0
0,69,68,0
0,74,74,0
0,78,74,0
0,74,115,0
0,74,126,0
0,91,74,0
0,66,86,20
0,90,80,0
0,50,98,30
0,66,86,0
0,69,82,0
0,89,86,0
0,88,74,0
0,69,68,100
0,74,74,0
0,78,81,0
0,74,120,0
0,66,104,0
0,69,98,0
0,87,74,0
0,86,80,40
0,57,108,100
0,85,74,0
0,84,80,100
0,69,68,100
0,74,74,0
0,78,68,0
0,74,114,0
0,83,80,0
0,82,74,40
0,50,102,100
0,81,80,0
0,80,80,0
0,69,68,100
0,74,74,0
0,78,74,0
0,74,120,0
0,79,74,0
0,78,86,30
0,57,98,100
0,77,74,0
0,76,86,100
0,66,98,100
0,69,82,0
0,69,68,0
0,74,74,0
0,78,74,0
0,74,120,0
0,75,86,0
0,66,82,30
0,74,80,0
0,50,98,5
0,66,98,0
0,69,92,0
0,73,80,0
0,72,80,0
0,69,68,5
0,74,81,0
0,78,81,0
0,74,114,0
0,66,104,0
0,69,98,0
0,71,92,0
0,70,86,30
0,57,94,100
0,69,74,0
0,68,80,100
0,69,74,100
0,74,81,0
0,78,74,0
0,74,120,0
0,67,80,0
0,66,74,40
0,74,103,100
0,50,98,0
0,65,80,0
0,64,80,0
0,69,74,90
0,74,87,0
0,78,81,0
0,74,120,0
0,63,74,0
0,62,74,30
0,55,108,20
0,75,115,0
0,72,86,60
0,75,78,0
0,67,68,0
0,72,74,0
0,75,81,0
0,72,94,0
0,72,86,10
0,72,115,20
0,48,114,0
0,72,92,0
0,75,92,0
0,67,68,60
0,72,81,0
0,75,81,0
0,72,94,0
0,72,110,0
0,75,86,0
0,72,115,50
0,55,102,0
0,67,74,60
0,72,81,0
0,75,81,0
0,72,94,0
0,72,109,110
0,48,108,0
0,67,68,70
0,72,81,0
0,75,81,0
0,75,115,0
0,72,94,0
0,55,108,90
0,72,86,70
0,75,74,0
0,67,64,0
0,72,81,0
0,75,81,0
0,72,115,0
0,72,102,0
0,72,98,40
0,48,108,20
0,72,98,0
0,75,86,0
0,67,64,60
0,72,81,0
0,75,74,0
0,72,102,0
0,72,110,0
0,75,92,0
0,55,114,60
0,67,64,50
0,72,81,0
0,75,74,0
0,72,102,0
0,72,115,160
0,48,108,0
0,67,68,30
0,72,81,0
0,75,81,0
0,72,102,0
0,55,114,20
0,75,115,0
0,72,92,70
0,75,86,0
0,67,68,0
0,72,81,0
0,75,87,0
0,72,98,0
0,72,70,40
0,72,109,30
0,48,108,0
0,72,86,0
0,75,86,0
0,67,68,10
0,72,81,0
0,75,81,0
0,72,98,0
0,72,104,0
0,75,92,0
0,72,115,100
0,55,114,0
0,67,68,80
0,72,81,0
0,75,74,0
0,72,98,0
0,72,115,170
0,48,120,0
0,67,68,30
0,72,81,0
0,75,81,0
0,72,98,0
0,49,91,166
0,39,107,4
0,51,106,0
0,55,106,0
0,58,106,0
0,75,96,0
0,79,107,0
0,82,91,0
0,63,100,0
0,67,100,0
0,70,100,0
0,75,121,0
0,67,82,0
0,70,72,0
0,75,74,0
0,35,117,0
0,75,109,230
0,49,90,0
0,41,113,4
0,53,100,0
0,57,106,0
0,60,106,0
0,77,96,0
0,81,91,0
0,84,91,0
0,65,100,0
0,69,92,0
0,72,100,0
0,69,92,0
0,72,84,0
0,77,82,0
0,77,121,0
0,35,117,0
0,77,115,110
0,41,107,190
0,79,121,0
0,43,104,7
0,50,121,0
0,79,96,4
0,82,86,0
0,86,91,0
0,70,100,0
0,74,100,0
0,70,65,0
0,74,86,0
0,79,67,0
0,35,110,0
0,42,89,0
0,49,74,0
0,43,113,0
0,42,80,230
0,58,119,223
0,62,123,4
0,40,112,4
0,42,99,0
0,67,119,0
0,42,74,130
0,58,99,4
0,62,108,4
0,43,107,4
0,40,70,0
0,67,108,0
0,43,102,1
0,50,116,4
0,38,119,4
0,35,112,0
0,42,83,0
0,58,123,112
0,62,125,4
0,38,119,4
0,35,116,0
0,42,78,0
0,67,116,0
0,43,97,165
0,50,116,4
0,40,118,4
0,42,97,0
0,58,114,120
0,62,123,4
0,41,107,4
0,35,112,0
0,42,75,0
0,67,119,0
0,43,108,62
0,50,125,4
0,43,113,4
0,35,110,0
0,42,89,0
0,58,85,72
0,62,68,4
0,34,119,4
0,42,80,0
0,58,114,2
0,62,123,1
0,40,112,4
0,42,99,0
0,67,121,0
0,36,102,5
0,42,74,0
0,58,91,2
0,62,99,1
0,40,90,4
0,67,99,0
0,43,102,77
0,50,121,4
0,35,112,0
0,40,104,0
0,42,83,0
0,58,116,22
0,62,123,4
0,38,92,4
0,35,116,0
0,40,100,0
0,42,78,0
0,67,116,0
0,43,102,2
0,50,119,4
0,39,107,4
0,42,97,0
0,45,82,0
0,81,109,0
0,40,85,20
0,43,98,0
0,58,114,52
0,62,123,4
0,41,107,4
0,35,112,0
0,42,75,0
0,43,108,0
0,67,119,0
0,43,110,2
0,50,119,4
0,74,91,0
0,79,107,0
0,82,91,0
0,67,66,0
0,70,66,0
0,79,66,0
0,43,107,0
0,35,110,0
0,42,89,0
0,49,80,0
0,79,102,15
0,42,80,133
0,58,112,223
0,62,114,4
0,40,112,4
0,42,99,0
0,67,119,0
0,74,110,15
0,42,74,200
0,58,79,67
0,62,99,4
0,43,89,4
0,40,70,0
0,67,95,0
0,43,99,7
0,50,102,4
0,38,107,4
0,35,112,0
0,42,83,0
0,81,112,8
0,58,123,95
0,62,125,4
0,38,113,0
0,35,116,0
0,42,78,0
0,67,119,0
0,79,104,16
0,43,97,186
0,50,99,4
0,40,118,4
0,42,97,0
0,58,104,12
0,62,106,4
0,41,102,1
0,35,112,0
0,42,75,0
0,67,106,0
0,74,104,11
0,43,108,42
0,50,121,4
0,43,92,4
0,35,110,0
0,42,89,0
0,42,80,155
0,58,116,223
0,62,121,4
0,40,112,4
0,42,99,0
0,67,119,0
0,42,74,13
0,58,106,52
0,62,108,4
0,43,96,4
0,40,70,0
0,67,106,0
0,43,106,42
0,50,110,4
0,38,107,4
0,35,112,0
0,42,83,0
0,58,116,102
0,62,119,4
0,38,107,4
0,35,116,0
0,42,78,0
0,67,119,0
0,43,102,5
0,50,110,4
0,40,118,4
0,42,97,0
0,81,112,11
0,58,110,110
0,62,116,1
0,41,85,4
0,35,112,0
0,42,75,0
0,67,116,0
0,43,108,2
0,50,119,1
0,43,85,4
0,35,110,0
0,42,89,0
0,79,104,28
0,58,93,125
0,42,80,8
0,58,116,153
0,62,121,4
0,40,112,3
0,42,99,0
0,67,119,0
0,74,112,18
0,42,74,20
0,58,102,101
0,62,110,4
0,43,96,4
0,40,70,0
0,67,108,0
0,43,99,5
0,50,106,4
0,38,107,4
0,35,112,0
0,42,83,0
0,81,108,6
0,58,116,20
0,62,119,4
0,38,107,4
0,35,116,0
0,42,78,0
0,67,119,0
0,79,108,21
0,43,99,196
0,50,116,4
0,40,118,4
0,42,97,0
0,58,110,2
0,62,110,4
0,41,89,4
0,35,112,0
0,42,75,0
0,67,114,0
0,74,104,6
0,43,110,193
0,50,119,1
0,43,113,0
0,35,110,0
0,42,89,0
0,34,113,0
0,42,80,0
0,58,116,223
0,62,123,4
0,40,112,4
0,42,99,0
0,67,121,0
0,36,96,5
0,42,74,0
0,58,99,35
0,62,102,4
0,40,70,4
0,67,106,0
0,43,102,2
0,50,106,4
0,35,112,3
0,42,83,0
0,58,116,32
0,62,119,4
0,38,107,4
0,35,116,0
0,42,78,0
0,67,119,0
0,43,108,10
0,50,112,4
0,40,118,4
0,42,97,0
0,81,112,17
0,58,112,2
0,62,116,4
0,41,102,4
0,35,112,0
0,42,75,0
0,67,116,0
0,43,99,12
0,50,119,1
0,43,113,4
0,35,110,0
0,42,89,0
0,79,104,28
0,42,80,140
0,58,114,223
0,62,119,4
0,40,112,4
0,42,99,0
0,67,119,0
0,74,100,18
0,42,74,60
0,58,91,73
0,62,91,4
0,43,113,4
0,40,70,0
0,67,110,0
0,43,91,10
0,50,99,1
0,38,113,4
0,35,112,0
0,42,83,0
0,81,104,5
0,58,119,11
0,62,125,4
0,38,119,4
0,35,116,0
0,42,78,0
0,67,121,0
0,79,106,55
0,43,112,167
0,50,114,4
0,40,118,4
0,42,97,0
0,58,112,52
0,62,119,4
0,41,119,1
0,35,112,0
0,42,75,0
0,67,119,0
0,74,104,25
0,43,110,82
0,50,123,4
0,43,119,4
0,35,102,0
0,42,75,0
0,42,65,152
0,58,114,223
0,62,121,4
0,40,114,4
0,42,75,0
0,67,121,0
0,74,108,83
0,42,65,15
0,58,91,72
0,62,82,4
0,38,102,4
0,40,80,0
0,67,104,0
0,43,108,18
0,50,112,4
0,43,107,4
0,35,114,0
0,42,71,0
0,74,104,11
0,38,107,20
0,58,119,5
0,62,121,4
0,35,114,4
0,42,76,0
0,50,107,0
0,67,121,0
0,74,104,11
0,43,110,27
0,50,119,4
0,40,117,4
0,42,76,0
0,48,96,0
0,74,104,13
0,41,96,30
0,58,112,12
0,62,119,4
0,42,77,4
0,46,96,0
0,67,119,0
0,75,108,11
0,41,98,8
0,50,121,5
0,74,66,4
0,78,66,0
0,86,66,0
0,78,82,0
0,81,86,0
0,86,79,0
0,35,102,0
0,42,75,0
0,38,107,0
0,42,65,33
0,74,100,21
0,57,125,202
0,60,123,4
0,40,114,4
0,42,75,0
0,66,119,0
0,42,65,70
0,57,99,28
0,60,97,4
0,38,102,4
0,40,80,0
0,66,102,0
0,50,116,32
0,33,107,8
0,35,114,0
0,42,71,0
0,57,121,112
0,60,125,4
0,33,92,4
0,35,114,0
0,42,76,0
0,66,119,0
0,50,108,25
0,40,117,8
0,42,76,0
0,57,108,62
0,60,112,4
0,36,89,1
0,42,77,0
0,66,106,0
0,50,123,82
0,38,119,8
0,35,110,0
0,42,89,0
0,57,102,159
0,42,102,5
0,42,80,0
0,57,121,2
0,60,121,1
0,40,112,4
0,42,99,0
0,46,100,0
0,66,119,0
0,43,113,5
0,42,74,0
0,57,106,2
0,60,110,1
0,66,106,1
0,50,112,2
0,35,112,5
0,42,83,0
0,57,125,92
0,60,119,4
0,45,102,4
0,35,116,0
0,40,92,0
0,42,78,0
0,66,116,0
0,50,119,0
0,46,92,5
0,40,116,0
0,42,97,0
0,47,92,50
0,40,104,0
0,81,108,7
0,57,121,10
0,60,123,4
0,48,102,4
0,35,112,0
0,42,75,0
0,66,116,0
0,43,106,20
0,50,125,52
0,57,84,4
0,38,119,4
0,35,110,0
0,42,89,0
0,81,106,2
0,57,95,11
0,42,80,7
0,57,125,158
0,60,125,4
0,40,112,4
0,42,99,0
0,66,121,0
0,66,98,4
0,69,108,0
0,74,98,0
0,42,74,0
0,81,104,1
0,57,99,2
0,60,95,4
0,38,113,4
0,40,70,0
0,66,108,0
0,50,119,25
0,33,113,8
0,35,112,0
0,42,83,0
0,81,110,21
0,57,116,132
0,60,119,4
0,33,119,4
0,35,116,0
0,42,78,0
0,66,119,0
0,50,116,218
0,40,118,8
0,42,97,0
0,57,110,17
0,60,112,4
0,66,108,1
0,69,108,0
0,74,102,0
0,36,107,0
0,35,112,0
0,42,75,0
0,66,108,0
0,79,110,8
0,50,119,62
0,38,107,8
0,35,110,0
0,42,89,0
0,78,102,31
0,57,97,192
0,42,80,8
0,74,90,23
0,57,114,172
0,60,121,4
0,40,112,4
0,42,99,0
0,66,116,0
0,66,108,231
0,69,102,0
0,74,102,0
0,42,74,0
0,57,102,7
0,60,97,4
0,38,113,4
0,40,70,0
0,66,110,0
0,50,106,12
0,33,119,3
0,35,112,0
0,42,83,0
0,57,116,42
0,60,123,4
0,33,119,4
0,35,116,0
0,42,78,0
0,66,121,0
0,50,112,168
0,40,118,8
0,42,97,0
0,57,112,2
0,60,110,4
0,66,108,4
0,69,114,0
0,74,108,0
0,36,102,0
0,35,112,0
0,42,75,0
0,66,116,0
0,81,112,6
0,50,121,37
0,38,102,8
0,35,110,0
0,42,89,0
0,81,106,36
0,57,106,10
0,50,119,8
0,42,80,0
0,57,123,168
0,60,121,4
0,40,112,4
0,42,99,0
0,66,121,0
0,66,108,10
0,69,108,0
0,74,108,0
0,48,119,0
0,42,74,0
0,81,114,6
0,57,99,2
0,60,95,4
0,40,70,0
