track,note,velocity,time
0,78,84,64
0,78,0,30
0,38,102,34
0,38,87,0
0,50,93,0
0,81,90,0
0,35,97,0
0,42,69,0
0,54,74,0
0,54,0,3
0,35,0,0
0,42,0,0
0,57,93,125
0,62,90,0
0,66,84,0
0,57,96,0
0,40,84,0
0,42,90,0
0,54,46,0
0,62,102,1
0,54,0,2
0,42,0,0
0,40,0,0
0,66,90,0
0,50,0,8
0,38,0,25
0,54,98,27
0,50,50,0
0,38,93,0
0,54,0,4
0,57,0,48
0,57,0,0
0,66,0,75
0,54,59,1
0,40,76,0
0,57,74,0
0,57,78,0
0,40,0,4
0,54,0,0
0,50,0,0
0,38,0,30
0,38,0,19
0,33,93,11
0,45,87,0
0,50,66,0
0,35,92,0
0,42,65,0
0,54,76,0
0,54,0,4
0,35,0,0
0,42,0,0
0,57,0,6
0,62,0,2
0,57,0,13
0,66,0,7
0,62,0,3
0,40,49,29
0,40,0,4
0,57,90,60
0,62,90,0
0,66,87,0
0,57,96,0
0,40,66,0
0,42,78,0
0,54,48,0
0,62,99,2
0,54,0,2
0,42,0,0
0,40,0,0
0,66,87,0
0,33,0,14
0,50,0,35
0,81,0,4
0,54,95,7
0,40,105,0
0,78,82,0
0,33,72,0
0,40,0,4
0,54,0,0
0,57,0,18
0,57,0,15
0,50,26,27
0,62,0,30
0,50,0,4
0,66,0,22
0,54,64,8
0,40,78,0
0,57,66,0
0,57,74,0
0,62,38,2
0,40,0,2
0,54,0,0
0,62,0,38
0,66,0,5
0,62,0,4
0,57,0,1
0,33,0,0
0,45,0,5
0,78,0,6
0,38,99,1
0,38,90,0
0,50,82,0
0,74,84,0
0,35,97,0
0,42,69,0
0,54,74,0
0,54,0,4
0,42,0,0
0,57,0,0
0,35,0,0
0,57,93,124
0,62,93,0
0,66,84,0
0,57,90,0
0,40,84,0
0,42,90,0
0,54,46,0
0,62,93,2
0,54,0,2
0,42,0,0
0,40,0,0
0,66,84,0
0,50,0,3
0,38,0,29
0,54,98,28
0,50,74,0
0,38,87,0
0,54,0,4
0,57,0,18
0,57,0,13
0,38,0,88
0,50,0,3
0,54,59,2
0,40,76,0
0,57,66,0
0,57,90,0
0,40,0,4
0,54,0,0
0,57,0,48
0,66,0,2
0,62,0,2
0,38,0,7
0,26,93,1
0,38,87,0
0,50,61,0
0,35,92,0
0,42,65,0
0,54,76,0
0,54,0,4
0,42,0,0
0,35,0,0
0,57,0,23
0,66,0,8
0,62,0,7
0,40,49,22
0,40,0,4
0,50,0,53
0,57,93,7
0,62,99,0
0,66,90,0
0,57,96,0
0,40,66,0
0,42,78,0
0,54,48,0
0,62,105,2
0,54,0,2
0,42,0,0
0,40,0,0
0,66,93,0
0,38,0,18
0,74,0,37
0,26,0,4
0,54,95,2
0,40,105,0
0,86,90,0
0,50,74,0
0,38,84,0
0,38,93,0
0,40,0,3
0,54,0,0
0,57,0,37
0,57,0,22
0,62,0,45
0,38,0,3
0,54,64,18
0,40,78,0
0,57,87,0
0,57,76,0
0,26,96,0
0,62,47,1
0,40,0,2
0,54,0,0
0,86,0,23
0,62,0,28
0,26,0,8
0,57,0,2
0,31,99,0
0,43,96,0
0,43,93,0
0,86,90,0
0,35,97,0
0,42,69,0
0,54,74,0
0,57,0,2
0,35,0,1
0,66,0,0
0,54,0,0
0,42,0,0
0,38,0,3
0,50,0,0
0,66,0,4
0,62,0,6
0,31,0,102
0,59,87,10
0,62,90,0
0,67,90,0
0,59,93,0
0,40,84,0
0,42,90,0
0,54,46,0
0,62,108,1
0,54,0,2
0,42,0,0
0,40,0,0
0,67,90,0
0,43,0,23
0,43,0,8
0,54,98,30
0,43,76,0
0,43,78,0
0,31,90,0
0,54,0,3
0,59,0,21
0,59,0,30
0,43,0,64
0,54,59,10
0,40,76,0
0,59,68,0
0,59,49,0
0,40,0,3
0,54,0,0
0,43,0,5
0,31,0,54
0,43,87,2
0,43,93,0
0,43,90,0
0,35,92,0
0,42,65,0
0,54,76,0
0,54,0,3
0,42,0,0
0,35,0,0
0,62,0,22
0,59,0,5
0,59,0,0
0,67,0,3
0,67,0,5
0,62,0,2
0,40,49,24
0,40,0,3
0,59,90,61
0,62,99,0
0,67,90,0
0,59,96,0
0,40,66,0
0,42,78,0
0,54,48,0
0,62,105,1
0,54,0,2
0,42,0,0
0,40,0,0
0,67,90,0
0,43,0,5
0,43,0,8
0,43,0,30
0,86,0,14
0,54,95,4
0,40,105,0
0,83,96,0
0,43,82,0
0,43,76,0
0,31,90,0
0,40,0,3
0,54,0,0
0,59,0,41
0,59,0,2
0,54,64,82
0,40,78,0
0,59,76,0
0,59,61,0
0,40,0,3
0,54,0,0
0,31,0,47
0,33,84,14
0,45,87,0
0,45,102,0
0,79,93,0
0,35,97,0
0,42,69,0
0,54,74,0
0,67,0,2
0,54,0,1
0,67,0,0
0,42,0,0
0,35,0,0
0,43,0,1
0,62,0,2
0,62,0,2
0,43,0,0
0,83,0,2
0,59,0,4
0,59,0,2
0,55,90,112
0,61,99,0
0,64,93,0
0,57,90,0
0,40,84,0
0,42,90,0
0,54,46,0
0,61,99,1
0,45,0,1
0,45,0,0
0,40,0,1
0,54,0,0
0,42,0,0
0,64,90,0
0,33,0,15
0,54,98,46
0,45,80,0
0,45,52,0
0,33,76,0
0,54,0,3
0,55,0,55
0,57,0,14
0,61,0,37
0,45,0,5
0,54,59,14
0,40,76,0
0,57,66,0
0,55,66,0
0,61,64,1
0,40,0,2
0,54,0,0
0,45,0,9
0,33,0,50
0,40,87,2
0,45,68,0
0,45,96,0
0,35,92,0
0,42,65,0
0,54,76,0
0,54,0,3
0,42,0,0
0,35,0,0
0,61,0,4
0,64,0,5
0,57,0,10
0,61,0,18
0,64,0,2
0,55,0,6
0,40,49,16
0,40,0,3
0,45,0,53
0,55,82,8
0,61,90,0
0,64,90,0
0,55,90,0
0,40,66,0
0,42,78,0
0,54,48,0
0,61,99,1
0,54,0,2
0,42,0,0
0,40,0,0
0,64,93,0
0,45,0,1
0,40,0,38
0,79,0,2
0,54,95,20
0,40,105,0
0,78,84,0
0,45,93,0
0,45,57,0
0,33,90,0
0,40,0,3
0,54,0,0
0,55,0,39
0,55,0,4
0,61,0,54
0,45,0,26
0,54,64,2
0,40,78,0
0,55,78,0
0,61,76,0
0,55,70,0
0,40,0,3
0,54,0,0
0,55,0,55
0,55,0,2
0,61,0,0
0,33,0,2
0,61,0,2
0,45,0,0
0,38,84,0
0,38,102,0
0,50,102,0
0,81,93,0
0,35,97,0
0,42,69,0
0,54,74,0
0,64,0,2
0,54,0,1
0,35,0,0
0,42,0,0
0,78,0,1
0,64,0,6
0,57,90,118
0,62,64,0
0,66,80,0
0,57,93,0
0,40,84,0
0,42,90,0
0,54,46,0
0,62,99,1
0,54,0,2
0,42,0,0
0,40,0,0
0,66,90,0
0,50,0,1
0,38,0,28
0,38,0,2
0,54,98,30
0,50,78,0
0,38,70,0
0,38,87,0
0,54,0,3
0,57,0,43
0,57,0,2
0,66,0,18
0,54,59,62
0,40,76,0
0,57,74,0
0,66,52,0
0,57,55,0
0,40,0,3
0,54,0,0
0,50,0,7
0,38,0,30
0,38,0,22
0,33,84,2
0,45,99,0
0,50,78,0
0,35,92,0
0,42,65,0
0,54,76,0
0,54,0,3
0,42,0,0
0,35,0,0
0,62,0,17
0,57,0,12
0,66,0,7
0,62,0,0
0,66,0,3
0,57,0,4
0,40,49,18
0,40,0,3
0,50,0,57
0,57,87,4
0,62,87,0
0,66,84,0
0,57,93,0
0,40,66,0
0,42,78,0
0,54,48,0
0,62,96,1
0,54,0,2
0,42,0,0
0,40,0,0
0,66,87,0
0,33,0,9
0,45,0,30
0,54,95,22
0,40,105,0
0,78,87,0
0,50,74,0
0,45,74,0
0,33,82,0
0,40,0,3
0,54,0,0
0,81,0,1
0,57,0,36
0,57,0,6
0,62,0,54
0,50,0,18
0,54,64,10
0,40,78,0
0,57,84,0
0,62,33,0
0,57,76,0
0,40,0,3
0,54,0,0
0,62,0,17
0,33,0,24
0,66,0,2
0,45,0,4
0,38,96,14
0,38,90,0
0,50,84,0
0,74,78,0
0,35,97,0
0,42,69,0
0,54,74,0
0,54,0,3
0,35,0,0
0,42,0,0
0,57,0,9
0,57,0,0
0,78,0,4
0,66,0,6
0,62,0,0
0,57,96,106
0,62,96,0
0,66,90,0
0,57,96,0
0,40,84,0
0,42,90,0
0,54,46,0
0,62,93,1
0,54,0,2
0,42,0,0
0,40,0,0
0,66,84,0
0,50,0,5
0,38,0,30
0,54,98,26
0,50,74,0
0,38,87,0
0,54,0,3
0,57,0,29
0,57,0,24
0,50,0,68
0,38,0,2
0,54,59,2
0,40,76,0
0,57,72,0
0,57,90,0
0,40,0,3
0,54,0,0
0,38,0,59
0,26,90,2
0,38,90,0
0,50,70,0
0,35,92,0
0,42,65,0
0,54,76,0
0,54,0,3
0,42,0,0
0,35,0,0
0,57,0,3
0,66,0,2
0,62,0,4
0,74,0,20
0,57,0,2
0,66,0,11
0,62,0,4
0,40,49,15
0,40,0,3
0,26,0,53
0,50,0,8
0,38,93,0
0,57,96,0
0,62,99,0
0,66,93,0
0,57,78,0
0,86,93,0
0,40,66,0
0,42,78,0
0,54,48,0
0,33,84,0
0,62,84,1
0,54,0,2
0,42,0,0
0,40,0,0
0,66,78,0
0,38,0,5
0,33,0,6
0,86,0,10
0,38,0,38
0,33,84,2
0,54,95,0
0,40,105,0
0,86,90,0
0,50,80,0
0,38,76,0
0,26,76,0
0,40,0,3
0,54,0,0
0,57,0,15
0,57,0,4
0,86,0,6
0,26,0,18
0,33,0,0
0,38,0,18
0,38,82,0
0,57,82,0
0,57,90,0
0,88,93,0
0,37,99,0
0,50,0,8
0,88,0,24
0,37,0,6
0,38,0,24
0,40,105,2
0,54,64,0
0,40,78,0
0,86,96,0
0,50,82,0
0,38,96,0
0,26,87,0
0,40,0,3
0,54,0,0
0,57,0,5
0,66,0,11
0,57,0,5
0,62,0,0
0,86,0,8
0,66,0,0
0,62,0,6
0,50,0,14
0,26,0,2
0,38,0,6
0,40,0,2
0,33,87,2
0,57,84,0
0,45,84,0
0,45,96,0
0,85,87,0
0,69,96,0
0,35,97,0
0,42,69,0
0,54,74,0
0,45,102,0
0,54,0,3
0,42,0,0
0,35,0,0
0,85,0,29
0,69,0,4
0,45,0,50
0,33,0,38
0,55,90,4
0,61,99,0
0,64,90,0
0,55,87,0
0,85,93,0
0,69,93,0
0,40,84,0
0,42,90,0
0,54,46,0
0,61,96,1
0,54,0,2
0,40,0,0
0,42,0,0
0,64,90,0
0,45,0,15
0,85,0,6
0,69,0,6
0,40,108,34
0,54,98,0
0,69,105,0
0,85,102,0
0,45,66,0
0,33,87,0
0,54,0,3
0,85,0,25
0,69,0,8
0,57,0,44
0,55,0,4
0,64,0,2
0,55,0,4
0,61,0,2
0,61,0,15
0,64,0,0
0,40,0,1
0,45,0,18
0,54,59,2
0,40,76,0
0,69,96,0
0,85,99,0
0,55,87,0
0,64,68,0
0,61,68,0
0,55,70,0
0,59,87,0
0,61,84,1
0,40,0,2
0,54,0,0
0,64,78,0
0,45,0,1
0,33,0,8
0,69,0,14
0,85,0,0
0,55,0,2
0,55,0,0
0,61,0,4
0,61,0,0
0,64,0,2
0,64,0,8
0,59,0,6
0,33,90,16
0,61,93,0
0,45,84,0
0,45,96,0
0,85,99,0
0,69,99,0
0,35,92,0
0,42,65,0
0,54,76,0
0,45,105,0
0,54,0,3
0,42,0,0
0,35,0,0
0,85,0,37
0,69,0,18
0,40,49,6
0,40,0,3
0,45,0,47
0,55,84,14
0,61,96,0
0,64,80,0
0,55,90,0
0,83,87,0
0,67,87,0
0,40,66,0
0,42,78,0
0,54,48,0
0,61,108,1
0,54,0,2
0,42,0,0
0,40,0,0
0,64,90,0
0,45,0,5
0,45,0,4
0,33,0,12
0,83,0,2
0,67,0,2
0,61,0,14
0,40,111,22
0,54,95,0
0,40,105,0
0,67,90,0
0,83,90,0
0,45,64,0
0,45,55,0
0,62,87,0
0,33,90,0
0,40,0,3
0,54,0,0
0,83,0,25
0,67,0,12
0,85,105,24
0,69,99,0
0,55,0,2
0,55,0,10
0,85,0,12
0,64,0,0
0,64,0,7
0,62,0,5
0,69,0,2
0,61,0,8
0,45,0,8
0,40,0,0
0,54,64,10
0,40,78,0
0,67,99,0
0,83,99,0
0,55,59,0
0,64,72,0
0,61,78,0
0,55,76,0
0,64,84,0
0,64,74,1
0,40,0,2
0,54,0,0
0,83,0,23
0,61,0,12
0,55,0,2
0,67,0,0
0,55,0,4
0,61,0,2
0,64,0,2
0,64,0,2
0,45,0,2
0,33,0,10
0,64,0,1
0,38,90,1
0,66,99,0
0,38,87,0
0,50,93,0
0,81,99,0
0,66,99,0
0,69,99,0
0,35,97,0
0,42,69,0
0,54,74,0
0,50,102,0
0,54,0,3
0,42,0,0
0,35,0,0
0,81,0,17
0,69,0,6
0,66,0,0
0,66,0,10
0,38,0,72
0,50,0,20
0,64,87,0
0,57,93,0
0,62,96,0
0,66,96,0
0,57,90,0
0,81,99,0
0,66,99,0
0,69,90,0
0,40,84,0
0,42,90,0
0,54,46,0
0,62,99,1
0,54,0,2
0,42,0,0
0,40,0,0
0,66,96,0
0,50,0,3
0,38,0,12
0,66,0,6
0,81,0,0
0,69,0,4
0,64,0,14
0,45,87,22
0,54,98,0
0,69,93,0
0,66,102,0
0,81,108,0
0,50,80,0
0,38,74,0
0,62,96,0
0,38,99,0
0,54,0,3
0,81,0,27
0,66,0,2
0,69,0,4
0,62,0,4
0,57,0,24
0,57,0,8
0,62,0,18
0,66,0,14
0,45,0,2
0,50,0,12
0,54,59,10
0,40,76,0
0,69,105,0
0,66,74,0
0,81,90,0
0,57,74,0
0,57,74,0
0,59,102,0
0,62,70,1
0,40,0,2
0,54,0,0
0,66,62,0
0,66,0,9
0,66,0,12
0,81,0,4
0,62,0,2
0,59,0,2
0,62,0,3
0,66,0,0
0,69,0,1
0,57,0,8
0,57,0,10
0,38,0,0
0,38,0,6
0,33,102,4
0,57,96,0
0,45,93,0
0,55,87,0
0,61,78,0
0,64,87,0
0,45,93,0
0,79,102,0
0,71,108,0
0,35,92,0
0,42,65,0
0,54,76,0
0,45,96,0
0,55,102,1
0,54,0,2
0,35,0,0
0,42,0,0
0,61,102,0
0,64,99,1
0,79,0,24
0,71,0,8
0,40,49,28
0,73,105,0
0,81,99,0
0,40,0,3
0,81,0,29
0,73,0,0
0,45,0,8
0,64,0,4
0,61,0,4
0,55,0,6
0,45,0,0
0,79,99,10
0,71,105,0
0,40,66,0
0,42,78,0
0,54,48,0
0,64,0,1
0,40,0,2
0,54,0,0
0,42,0,0
0,55,0,0
0,57,0,13
0,45,0,4
0,61,0,0
0,33,0,2
0,71,0,12
0,79,0,4
0,45,99,26
0,54,95,0
0,40,105,0
0,69,111,0
0,78,105,0
0,45,87,0
0,64,93,0
0,61,93,0
0,55,90,0
0,45,96,0
0,33,93,0
0,55,87,1
0,40,0,2
0,54,0,0
0,61,93,0
0,64,90,1
0,69,0,32
0,78,0,2
0,64,0,42
0,61,0,14
0,45,0,4
0,55,0,2
0,64,0,14
0,45,0,8
0,55,0,0
0,54,64,6
0,40,78,0
0,67,102,0
0,76,99,0
0,61,0,2
0,45,0,0
0,40,0,1
0,54,0,0
0,33,0,11
0,67,0,20
0,76,0,2
0,38,90,28
0,38,90,0
0,50,72,0
0,74,90,0
0,66,84,0
0,35,97,0
0,42,69,0
0,54,74,0
0,50,93,0
0,54,0,3
0,42,0,0
0,35,0,0
0,74,0,109
0,57,96,16
0,62,108,0
0,66,102,0
0,57,90,0
0,40,84,0
0,42,90,0
0,54,46,0
0,62,96,1
0,54,0,2
0,40,0,0
0,42,0,0
0,66,87,0
0,50,0,9
0,38,0,24
0,50,0,28
0,45,105,0
0,54,98,0
0,33,90,0
0,54,0,3
0,57,0,11
0,57,0,32
0,50,24,18
0,66,0,22
