track,note,velocity,time
0,27,127,0
0,35,87,72
0,35,117,0
0,85,127,0
0,54,75,24
0,55,45,0
0,44,89,0
0,27,115,0
0,85,127,0
0,85,127,24
0,35,87,0
0,35,117,0
0,85,127,0
0,27,115,24
0,44,99,0
0,85,127,0
0,55,45,0
0,54,75,0
0,85,127,24
0,35,87,0
0,35,117,0
0,85,127,0
0,85,127,24
0,55,45,0
0,27,115,0
0,44,95,0
0,54,75,0
0,35,117,0
0,85,127,0
0,35,87,0
0,44,99,24
0,20,115,0
0,54,75,0
0,85,127,0
0,55,45,0
0,85,127,0
0,35,117,0
0,35,87,0
0,25,115,0
0,27,115,0
0,55,45,0
0,85,127,0
0,54,75,0
0,44,97,0
0,85,127,0
0,85,127,0
0,35,117,0
0,35,87,0
0,54,75,0
0,85,127,0
0,27,115,0
0,44,101,0
0,55,45,0
0,85,127,24
0,35,117,0
0,35,87,0
0,85,127,24
0,27,115,24
0,55,45,0
0,44,93,0
0,54,75,0
0,85,127,0
0,85,127,0
0,35,87,0
0,35,117,0
0,85,127,0
0,27,115,0
0,54,75,0
0,44,95,0
0,55,45,0
0,35,87,0
0,35,117,0
0,85,127,0
0,54,75,24
0,44,95,0
0,85,127,0
0,27,115,0
0,55,45,0
0,85,127,24
0,35,117,0
0,35,87,0
0,85,127,0
0,55,45,0
0,85,127,0
0,44,101,0
0,27,115,0
0,54,75,0
0,85,127,24
0,35,117,0
0,35,87,0
0,85,127,24
0,27,115,0
0,55,45,0
0,44,101,0
0,85,127,0
0,54,75,0
0,85,127,0
0,35,117,0
0,35,87,0
0,44,99,24
0,20,115,0
0,54,75,0
0,55,45,0
0,85,127,0
0,25,115,0
0,85,127,0
0,35,117,0
0,35,87,0
0,85,127,0
0,44,104,0
0,54,75,0
0,55,45,0
0,27,115,0
0,85,127,24
0,35,117,0
0,85,127,0
0,35,87,0
0,55,45,24
0,27,115,0
0,54,75,0
0,44,95,0
0,85,127,0
0,85,127,0
0,35,87,0
0,35,117,0
0,85,127,24
0,44,101,24
0,85,127,0
0,55,45,0
0,27,115,0
0,54,75,0
0,35,117,0
0,85,127,0
0,35,87,0
0,54,75,24
0,85,127,0
0,44,104,0
0,27,115,0
0,55,45,0
0,35,87,0
0,35,117,0
0,85,127,0
0,55,45,24
0,85,127,0
0,44,104,0
0,54,75,0
0,27,115,0
0,85,127,24
0,85,127,0
0,35,117,0
0,35,87,0
0,44,101,24
0,54,75,0
0,85,127,0
0,55,45,0
0,27,115,0
0,85,127,0
0,35,87,0
0,35,117,0
0,85,127,0
0,85,127,24
0,55,45,0
0,44,110,0
0,54,75,0
0,27,115,0
0,35,87,0
0,35,117,0
0,85,127,0
0,44,107,24
0,85,127,0
0,20,115,0
0,54,75,0
0,55,45,0
0,35,117,0
0,35,87,0
0,85,127,0
0,25,115,0
0,44,104,0
0,85,127,0
0,27,115,0
0,55,45,0
0,54,75,0
0,85,127,0
0,35,117,0
0,35,87,0
0,85,127,0
0,44,107,24
0,27,115,0
0,55,45,0
0,85,127,0
0,54,75,0
0,85,127,24
0,35,87,0
0,35,117,0
0,85,127,24
0,27,115,24
0,55,45,0
0,54,75,0
0,85,127,0
0,44,113,0
0,35,87,0
0,85,127,0
0,35,117,0
0,54,75,24
0,44,110,0
0,27,115,0
0,55,45,0
0,85,127,0
0,35,87,0
0,35,117,0
0,85,127,0
0,85,127,24
0,44,107,0
0,27,115,0
0,55,45,0
0,54,75,0
0,85,127,0
0,85,127,0
0,35,117,0
0,35,87,0
0,85,127,0
0,44,104,0
0,55,45,0
0,54,75,0
0,27,115,0
0,85,127,24
0,35,87,0
0,35,117,0
0,85,127,24
0,44,101,24
0,27,115,0
0,55,45,0
0,54,75,0
0,85,127,0
0,85,127,0
0,35,117,0
0,35,87,0
0,54,75,24
0,20,115,0
0,85,127,0
0,44,107,0
0,55,45,0
0,25,115,0
0,56,109,14
0,27,115,0
0,37,60,0
0,54,75,96
0,44,95,0
0,55,45,0
0,27,115,0
0,56,109,86
0,27,115,10
0,37,60,0
0,55,45,96
0,54,75,0
0,44,93,0
0,27,115,0
0,56,109,86
0,27,115,10
0,37,60,0
0,54,75,96
0,55,45,0
0,39,115,0
0,44,99,0
0,55,109,139
0,37,115,0
0,55,45,96
0,44,101,0
0,54,75,0
0,34,115,4
0,46,1,92
0,27,115,0
0,42,35,0
0,35,87,0
0,35,117,0
0,42,35,72
0,46,1,0
0,63,65,62
0,54,75,9
0,63,65,0
0,39,115,0
0,44,89,0
0,27,45,0
0,55,45,0
0,39,115,47
0,35,117,0
0,35,87,0
0,27,115,0
0,42,35,0
0,46,1,0
0,46,1,72
0,42,35,0
0,63,65,62
0,63,65,10
0,55,45,0
0,27,45,0
0,44,99,0
0,54,75,0
0,39,115,0
0,39,115,64
0,27,115,9
0,42,35,0
0,46,1,0
0,35,117,0
0,35,87,0
0,42,35,72
0,46,1,0
0,63,65,62
0,63,65,10
0,44,95,0
0,27,45,0
0,55,45,0
0,39,115,0
0,54,75,0
0,39,115,53
0,46,1,11
0,35,87,0
0,27,115,0
0,42,35,0
0,35,117,0
0,46,1,72
0,42,35,0
0,61,65,62
0,27,45,10
0,55,45,0
0,44,99,0
0,39,115,0
0,61,65,0
0,54,75,0
0,39,115,4
0,56,109,2
0,37,60,10
0,35,117,0
0,42,35,0
0,35,87,0
0,27,115,0
0,46,1,0
0,46,1,1
0,42,35,0
0,63,65,62
0,54,75,2
0,55,45,0
0,27,45,0
0,39,115,0
0,63,65,0
0,44,97,0
0,39,115,47
0,56,109,0
0,27,115,10
0,37,60,0
0,35,87,0
0,35,117,0
0,42,35,0
0,46,1,0
0,42,35,72
0,46,1,0
0,63,65,62
0,44,101,10
0,63,65,0
0,54,75,0
0,27,45,0
0,55,45,0
0,39,115,0
0,39,115,53
0,56,109,5
0,35,87,10
0,42,35,0
0,46,1,0
0,37,60,0
0,27,115,0
0,35,117,0
0,42,35,72
0,46,1,0
0,63,65,62
0,44,93,10
0,54,75,0
0,63,65,0
0,55,45,0
0,39,115,0
0,27,45,0
0,39,115,39
0,55,109,9
0,46,1,10
0,42,35,0
0,27,115,0
0,35,87,0
0,35,117,0
0,46,1,72
0,42,35,0
0,63,65,62
0,37,115,10
0,63,65,0
0,27,45,0
0,54,75,0
0,44,95,0
0,55,45,0
0,37,115,25
0,27,115,17
0,35,117,0
0,46,1,0
0,35,87,0
0,42,35,0
0,42,35,72
0,46,1,0
0,63,65,62
0,39,115,10
0,55,45,0
0,44,95,0
0,27,45,0
0,63,65,0
0,54,75,0
0,39,115,57
0,35,117,9
0,27,115,0
0,46,1,0
0,35,87,0
0,42,35,0
0,46,1,72
0,42,35,0
0,63,65,62
0,63,65,4
0,44,101,0
0,27,45,0
0,39,115,0
0,54,75,0
0,55,45,0
0,39,115,59
0,35,87,14
0,46,1,0
0,42,35,0
0,35,117,0
0,27,115,0
0,42,35,72
0,46,1,0
0,63,65,62
0,44,101,10
0,27,45,0
0,39,115,0
0,54,75,0
0,63,65,0
0,55,45,0
0,39,115,52
0,35,87,10
0,35,117,0
0,42,35,0
0,46,1,0
0,27,115,0
0,46,1,72
0,42,35,0
0,61,65,62
0,27,45,0
0,54,75,0
0,44,99,0
0,39,115,0
0,61,65,0
0,55,45,0
0,39,115,5
0,46,1,1
0,35,87,0
0,35,117,0
0,42,35,0
0,27,115,0
0,46,1,58
0,42,35,0
0,63,65,62
0,63,65,4
0,39,115,0
0,54,75,0
0,55,45,0
0,44,104,0
0,27,45,0
0,39,115,57
0,42,35,13
0,35,87,0
0,46,1,0
0,27,115,0
0,35,117,0
0,42,35,72
0,46,1,0
0,63,65,62
0,44,95,0
0,39,115,0
0,63,65,0
0,55,45,0
0,27,45,0
0,54,75,0
0,39,115,56
0,35,87,7
0,42,35,0
0,27,115,0
0,46,1,0
0,35,117,0
0,42,35,72
0,46,1,0
0,63,65,62
0,63,65,10
0,27,45,0
0,54,75,0
0,39,115,0
0,44,101,0
0,55,45,0
0,39,115,58
0,35,117,18
0,42,35,0
0,46,1,0
0,35,87,0
0,27,115,0
0,42,35,72
0,46,1,0
0,63,65,62
0,27,45,4
0,63,65,0
0,55,45,0
0,44,104,0
0,54,75,0
0,37,115,0
0,37,115,59
0,35,87,14
0,46,1,0
0,35,117,0
0,27,115,0
0,42,35,0
0,46,1,72
0,42,35,0
0,63,65,1
0,27,45,10
0,55,45,0
0,44,104,0
0,63,65,0
0,39,115,0
0,54,75,0
0,39,115,58
0,42,35,14
0,27,115,0
0,35,87,0
0,46,1,0
0,35,117,0
0,46,1,72
0,42,35,0
0,63,65,62
0,55,45,9
0,27,45,0
0,44,101,0
0,63,65,0
0,39,115,0
0,54,75,0
0,39,115,54
0,46,1,9
0,27,115,0
0,35,117,0
0,42,35,0
0,35,87,0
0,46,1,72
0,42,35,0
0,63,65,62
0,39,115,10
0,55,45,0
0,44,110,0
0,63,65,0
0,27,45,0
0,54,75,0
0,39,115,58
0,46,1,18
0,42,35,0
0,27,115,0
0,35,117,0
0,35,87,0
0,46,1,72
0,42,35,0
0,61,65,62
0,39,115,4
0,27,45,0
0,54,75,0
0,61,65,0
0,55,45,0
0,44,107,0
0,39,115,4
0,35,87,12
0,46,1,0
0,42,35,0
0,35,117,0
0,27,115,0
0,37,60,0
0,42,35,1
0,46,1,0
0,63,65,62
0,55,45,6
0,44,104,0
0,63,65,0
0,27,45,0
0,39,115,0
0,54,75,0
0,39,115,56
0,42,35,18
0,35,87,0
0,35,117,0
0,27,115,0
0,46,1,0
0,42,35,72
0,46,1,0
0,63,65,62
0,39,115,3
0,55,45,0
0,27,45,0
0,63,65,0
0,44,107,0
0,54,75,0
0,39,115,62
0,46,1,19
0,35,117,0
0,27,115,0
0,42,35,0
0,35,87,0
0,42,35,72
0,46,1,0
0,63,65,62
0,63,65,10
0,55,45,0
0,27,45,0
0,39,115,0
0,54,75,0
0,44,113,0
0,39,115,72
0,27,115,25
0,42,35,0
0,46,1,0
0,35,87,0
0,35,117,0
0,46,1,72
0,42,35,0
0,63,65,62
0,44,110,0
0,55,45,0
0,63,65,0
0,37,115,0
0,27,45,0
0,54,75,0
0,37,115,61
0,56,109,10
0,46,1,10
0,27,115,0
0,35,87,0
0,35,117,0
0,42,35,0
0,46,1,72
0,42,35,0
0,63,65,62
0,55,45,9
0,44,107,0
0,63,65,0
0,27,45,0
0,39,115,0
0,54,75,0
0,39,115,36
0,56,109,7
0,35,87,10
0,42,35,0
0,27,115,0
0,35,117,0
0,46,1,0
0,42,35,72
0,46,1,0
0,63,65,62
0,44,104,6
0,54,75,0
0,39,115,0
0,63,65,0
0,27,45,0
0,55,45,0
0,39,115,57
0,56,109,5
0,35,87,10
0,27,115,0
0,35,117,0
0,42,35,0
0,46,1,0
0,46,1,72
0,42,35,0
0,63,65,62
0,27,45,3
0,44,101,0
0,39,115,0
0,54,75,0
0,63,65,0
0,55,45,0
0,39,115,53
0,55,109,1
0,27,115,10
0,35,117,0
0,42,35,0
0,35,87,0
0,46,1,0
0,42,35,72
0,46,1,0
0,55,45,72
0,39,115,0
0,27,45,0
0,54,75,0
0,44,107,0
0,39,115,5
0,38,65,5
0,62,65,0
0,50,65,0
0,63,75,8
0,46,1,10
0,63,75,0
0,42,35,0
0,35,117,0
0,35,87,0
0,27,115,0
0,42,35,72
0,46,1,0
0,27,45,9
0,44,89,0
0,54,75,0
0,39,115,0
0,55,45,0
0,39,115,31
0,63,75,18
0,27,115,0
0,35,117,0
0,46,1,0
0,35,87,0
0,42,35,0
0,63,75,0
0,42,35,41
0,46,1,0
0,63,75,62
0,27,45,10
0,44,99,0
0,63,75,0
0,55,45,0
0,39,115,0
0,54,75,0
0,39,115,47
0,63,75,8
0,42,35,9
0,35,117,0
0,46,1,0
0,35,87,0
0,27,115,0
0,63,75,0
0,46,1,46
0,42,35,0
0,63,75,62
0,39,115,10
0,44,95,0
0,27,45,0
0,63,75,0
0,55,45,0
0,54,75,0
0,39,115,53
0,35,87,11
0,35,117,0
0,46,1,0
0,27,115,0
0,42,35,0
0,42,35,61
0,46,1,0
0,63,75,62
0,39,115,10
0,44,99,0
0,27,45,0
0,63,75,0
0,54,75,0
0,55,45,0
0,39,115,59
0,35,117,12
0,46,1,0
0,42,35,0
0,27,115,0
0,35,87,0
0,42,35,8
0,46,1,0
0,63,75,62
0,63,75,2
0,54,75,0
0,27,45,0
0,44,97,0
0,39,115,0
0,55,45,0
0,39,115,44
0,63,75,0
0,27,115,10
0,35,117,0
0,63,75,0
0,35,87,0
0,42,35,0
0,46,1,0
0,46,1,44
0,42,35,0
0,63,75,62
0,39,115,10
0,54,75,0
0,63,75,0
0,27,45,0
0,44,101,0
0,55,45,0
0,39,115,42
0,63,75,5
0,46,1,10
0,63,75,0
0,35,87,0
0,42,35,0
0,27,115,0
0,35,117,0
0,63,75,62
0,63,75,10
0,46,1,0
0,42,35,0
0,63,75,62
0,54,75,10
0,39,115,0
0,44,93,0
0,27,45,0
0,55,45,0
0,63,75,0
0,39,115,55
0,63,75,9
0,35,87,10
0,27,115,0
0,63,75,0
0,46,1,0
0,42,35,0
0,35,117,0
0,63,75,58
0,63,75,10
0,46,1,0
0,42,35,0
0,63,75,57
0,55,45,10
0,44,95,0
0,63,75,0
0,27,45,0
0,37,115,0
0,54,75,0
0,37,115,44
0,63,75,7
0,27,115,10
0,42,35,0
0,46,1,0
0,35,87,0
0,63,75,0
0,35,117,0
0,42,35,72
0,46,1,0
0,27,45,72
0,55,45,0
0,39,115,0
0,44,95,0
0,54,75,0
0,39,115,26
0,63,75,86
0,35,117,9
0,35,87,0
0,63,75,0
0,27,115,0
0,42,35,0
0,46,1,0
0,46,1,33
0,42,35,0
0,63,75,62
0,54,75,4
0,39,115,0
0,44,101,0
0,55,45,0
0,63,75,0
0,27,45,0
0,39,115,51
0,63,75,4
0,46,1,10
0,35,117,0
0,42,35,0
0,35,87,0
0,27,115,0
0,63,75,0
0,46,1,49
0,42,35,0
0,63,75,62
0,44,101,10
0,55,45,0
0,39,115,0
0,54,75,0
0,27,45,0
0,63,75,0
0,39,115,52
0,35,87,10
0,46,1,0
0,35,117,0
0,42,35,0
0,27,115,0
0,46,1,72
0,42,35,0
0,63,75,62
0,54,75,0
0,39,115,0
0,55,45,0
0,44,99,0
0,27,45,0
0,63,75,0
0,39,115,54
0,27,115,13
0,35,87,0
0,42,35,0
0,35,117,0
0,46,1,0
0,42,35,72
0,46,1,0
0,63,75,62
0,44,104,4
0,39,115,0
0,54,75,0
0,55,45,0
0,27,45,0
0,63,75,0
0,39,115,48
0,63,75,3
0,42,35,10
0,63,75,0
0,27,115,0
0,35,87,0
0,46,1,0
0,35,117,0
0,42,35,48
0,46,1,0
0,63,75,62
0,27,45,0
0,63,75,0
0,44,95,0
0,55,45,0
0,54,75,0
0,39,115,0
0,39,115,48
0,63,75,86
0,27,115,7
0,63,75,0
0,46,1,0
0,35,117,0
0,42,35,0
0,35,87,0
0,46,1,48
0,42,35,0
0,75,75,62
0,44,101,10
0,55,45,0
0,39,115,0
0,27,45,0
0,54,75,0
0,75,75,0
0,39,115,48
0,73,75,8
0,35,87,10
0,35,117,0
0,46,1,0
0,27,115,0
0,73,75,0
0,42,35,0
0,42,35,48
0,46,1,0
0,70,75,62
0,54,75,4
0,44,104,0
0,55,45,0
0,27,45,0
0,70,75,0
0,37,115,0
0,37,115,48
0,63,75,4
0,46,1,10
0,27,115,0
0,35,117,0
0,35,87,0
0,42,35,0
0,63,75,0
0,42,35,72
0,46,1,0
0,27,45,11
0,39,115,0
0,44,104,0
0,55,45,0
0,54,75,0
0,39,115,31
0,63,75,4
0,35,87,10
0,35,117,0
0,63,75,0
0,27,115,0
0,46,1,0
0,42,35,0
0,42,35,41
0,46,1,0
0,63,75,62
0,63,75,9
0,55,45,0
0,54,75,0
0,27,45,0
0,39,115,0
0,44,101,0
0,39,115,47
0,63,75,8
