track,note,velocity,time
0,54,52,13
0,57,73,5
0,62,78,53
0,74,93,4
0,66,82,2
0,38,99,11
0,66,56,0
0,62,53,0
0,57,51,0
0,70,45,0
0,59,101,0
0,35,92,0
0,50,88,9
0,57,124,6
0,62,126,6
0,66,127,6
0,74,77,71
0,39,47,43
0,44,73,46
0,48,75,17
0,44,79,14
0,50,80,2
0,57,98,3
0,62,104,8
0,66,127,7
0,66,127,5
0,42,98,1
0,73,49,0
0,35,78,0
0,62,127,1
0,57,95,7
0,50,95,6
0,50,92,1
0,82,55,2
0,42,34,0
0,57,124,1
0,62,127,5
0,66,126,6
0,66,127,5
0,82,44,1
0,62,106,1
0,57,112,5
0,50,80,6
0,71,82,43
0,78,112,9
0,38,98,5
0,82,47,0
0,44,75,0
0,38,92,0
0,50,87,0
0,57,127,1
0,62,117,5
0,66,115,8
0,74,93,19
0,81,111,9
0,66,127,5
0,82,40,3
0,62,101,2
0,57,92,5
0,50,81,8
0,59,51,47
0,62,65,17
0,83,90,7
0,78,85,3
0,35,100,1
0,66,53,0
0,62,56,0
0,59,64,0
0,70,50,0
0,35,88,0
0,54,119,1
0,59,122,1
0,62,126,6
0,66,125,4
0,66,78,6
0,74,79,83
0,36,57,53
0,41,52,27
0,44,75,32
0,44,78,17
0,48,74,2
0,54,79,2
0,59,88,7
0,62,94,6
0,66,106,3
0,38,97,21
0,73,58,0
0,35,77,0
0,66,119,3
0,62,127,5
0,59,83,5
0,54,79,6
0,82,53,7
0,42,35,0
0,54,88,1
0,59,117,5
0,62,127,5
0,66,118,6
0,66,127,7
0,82,41,4
0,62,89,1
0,59,115,5
0,54,98,10
0,74,87,7
0,78,88,32
0,35,102,3
0,82,45,0
0,44,74,0
0,38,93,0
0,54,100,5
0,59,125,1
0,62,127,6
0,66,125,6
0,82,42,7
0,66,124,0
0,62,119,5
0,59,112,5
0,54,101,8
0,59,49,22
0,62,60,66
0,79,86,5
0,31,101,1
0,67,68,0
0,70,51,0
0,35,90,0
0,67,67,1
0,50,127,1
0,55,126,1
0,59,126,4
0,67,126,6
0,74,76,79
0,37,60,25
0,41,76,46
0,44,76,15
0,44,77,21
0,49,80,0
0,50,62,2
0,55,118,3
0,59,117,8
0,67,124,8
0,67,125,5
0,38,106,2
0,73,50,0
0,35,79,0
0,59,103,3
0,55,101,7
0,50,99,6
0,82,55,3
0,42,30,0
0,50,110,5
0,55,120,5
0,59,126,5
0,67,125,8
0,67,114,5
0,82,40,2
0,59,117,3
0,55,108,5
0,50,98,8
0,71,86,39
0,74,89,1
0,31,102,3
0,82,45,0
0,44,79,0
0,38,93,0
0,50,81,1
0,55,127,1
0,59,102,6
0,67,125,6
0,67,101,7
0,59,124,7
0,82,39,3
0,55,106,2
0,50,90,5
0,57,70,110
0,69,84,32
0,61,65,3
0,73,86,19
0,33,103,7
0,69,61,0
0,64,62,0
0,61,58,0
0,70,50,0
0,35,89,0
0,52,122,0
0,57,124,3
0,61,125,4
0,64,127,4
0,64,79,4
0,74,76,87
0,39,63,53
0,43,71,40
0,46,68,33
0,51,73,23
0,44,78,1
0,57,121,4
0,61,127,7
0,64,126,6
0,71,96,45
0,74,99,5
0,40,104,3
0,73,62,0
0,35,73,0
0,64,123,4
0,61,98,7
0,57,89,6
0,52,91,8
0,73,95,144
0,76,96,5
0,82,56,7
0,42,39,0
0,52,95,1
0,57,127,1
0,61,96,4
0,64,117,6
0,64,122,7
0,82,39,2
0,61,124,1
0,57,100,5
0,52,102,3
0,69,86,11
0,73,92,22
0,33,101,1
0,82,47,0
0,44,74,0
0,38,94,0
0,52,97,1
0,57,123,4
0,61,119,7
0,64,127,4
0,64,126,7
0,82,37,3
0,61,127,1
0,57,116,5
0,52,114,8
0,54,63,50
0,57,70,48
0,57,72,2
0,66,89,48
0,62,87,3
0,74,97,1
0,62,84,0
0,38,97,6
0,66,68,0
0,62,64,0
0,57,69,0
0,70,50,0
0,35,91,0
0,50,123,3
0,57,125,3
0,62,121,4
0,66,123,4
0,66,92,12
0,74,77,41
0,81,79,0
0,39,54,55
0,44,70,38
0,48,61,15
0,44,78,15
0,90,108,0
0,51,81,0
0,50,82,1
0,57,116,6
0,62,127,8
0,66,124,6
0,67,90,91
0,76,114,1
0,42,95,1
0,73,50,0
0,35,76,0
0,81,87,0
0,66,108,1
0,62,125,1
0,57,89,7
0,50,100,6
0,69,90,97
0,78,102,9
0,82,56,3
0,42,33,0
0,88,92,0
0,50,98,1
0,57,125,6
0,62,104,5
0,66,113,6
0,82,41,11
0,81,73,0
0,66,125,5
0,62,109,7
0,57,95,5
0,50,95,8
0,74,86,37
0,81,98,3
0,33,94,6
0,82,45,0
0,44,75,0
0,38,93,0
0,86,82,0
0,50,92,5
0,57,127,1
0,62,119,6
0,66,125,6
0,66,93,5
0,62,106,5
0,82,42,5
0,57,96,2
0,50,106,5
0,59,59,50
0,59,78,46
0,62,68,2
0,62,82,13
0,66,77,7
0,83,87,3
0,78,89,0
0,35,101,4
0,59,72,0
0,70,48,0
0,35,86,0
0,59,125,0
0,54,125,0
0,62,123,3
0,66,125,2
0,66,99,2
0,74,78,73
0,41,54,35
0,44,63,44
0,48,66,1
0,53,90,25
0,54,83,5
0,44,81,4
0,59,127,4
0,62,127,5
0,66,125,6
0,66,123,7
0,38,96,3
0,73,62,0
0,35,72,0
0,62,124,4
0,59,97,5
0,54,95,8
0,82,54,1
0,42,38,0
0,54,101,0
0,59,124,1
0,62,124,6
0,66,126,6
0,66,127,7
0,82,40,5
0,62,124,2
0,59,89,5
0,54,112,8
0,81,94,23
0,30,104,5
0,82,42,0
0,44,77,0
0,38,93,0
0,59,103,1
0,62,127,1
0,66,126,6
0,85,97,2
0,66,127,5
0,82,39,1
0,62,127,1
0,86,99,2
0,59,107,4
0,54,103,6
0,59,51,76
0,59,74,18
0,62,50,7
0,74,76,4
0,62,78,14
0,76,81,18
0,79,86,3
0,55,121,1
0,79,76,2
0,31,102,3
0,67,78,0
0,62,63,0
0,59,59,0
0,70,49,0
0,35,86,0
0,67,72,1
0,67,88,3
0,50,97,0
0,55,123,3
0,59,127,4
0,67,111,4
0,83,97,9
0,74,73,29
0,37,59,47
0,41,77,35
0,44,78,21
0,44,79,21
0,49,86,4
0,50,103,5
0,55,113,1
0,59,125,4
0,67,107,3
0,38,96,1
0,73,50,0
0,35,76,0
0,67,125,7
0,59,102,7
0,55,92,5
0,50,79,5
0,74,89,3
0,78,91,22
0,82,52,5
0,42,30,0
0,50,96,1
0,55,98,4
0,59,123,5
0,67,127,3
0,82,38,5
0,67,124,3
0,59,112,1
0,55,110,6
0,50,87,6
0,31,104,61
0,82,44,0
0,44,81,0
0,38,94,0
0,50,84,3
0,55,107,1
0,59,127,1
0,67,101,6
0,82,42,5
0,67,123,3
0,59,109,5
0,55,82,3
0,50,80,6
0,52,64,38
0,57,59,40
0,57,69,4
0,61,84,46
0,61,59,2
0,73,87,1
0,52,106,5
0,76,97,12
0,33,103,7
0,69,65,0
0,64,68,0
0,61,59,0
0,64,66,0
0,70,49,0
0,35,83,0
0,52,107,3
0,57,98,1
0,64,88,1
0,61,118,4
0,64,127,4
0,71,81,61
0,74,86,8
0,74,80,8
0,39,60,57
0,43,71,28
0,46,78,42
0,73,103,3
0,69,86,0
0,44,79,7
0,52,109,3
0,51,86,6
0,57,117,2
0,61,127,3
0,64,123,6
0,67,80,1
0,71,96,9
0,64,117,5
0,40,101,2
0,73,58,0
0,35,76,0
0,61,118,3
0,57,96,5
0,52,94,6
0,57,106,79
0,66,85,3
0,69,88,1
0,82,54,1
0,42,40,0
0,52,86,4
0,57,114,5
0,61,120,7
0,64,111,6
0,64,88,150
0,67,91,3
0,82,42,7
0,64,98,0
0,61,127,3
0,57,83,3
0,52,68,6
0,62,85,154
0,66,94,1
0,33,100,1
0,82,42,0
0,44,75,0
0,38,95,0
0,52,115,1
0,57,127,1
0,61,108,3
0,64,101,5
0,61,82,61
0,64,89,12
0,64,124,5
0,82,41,1
0,61,124,1
0,57,106,5
0,52,98,5
0,57,67,25
0,62,72,46
0,62,81,3
0,38,104,1
0,66,66,0
0,62,62,0
0,57,66,0
0,66,89,0
0,70,45,0
0,35,89,0
0,66,86,5
0,50,83,4
0,57,115,6
0,62,119,6
0,66,116,6
0,45,85,29
0,74,72,14
0,39,55,9
0,44,68,35
0,48,53,28
0,50,94,3
0,51,83,2
0,44,74,8
0,50,74,2
0,57,86,1
0,62,97,3
0,66,119,8
0,52,101,7
0,66,121,1
0,42,92,1
0,73,50,0
0,35,74,0
0,62,116,1
0,57,86,5
0,50,93,6
0,50,82,1
0,82,53,2
0,42,30,0
0,57,116,1
0,62,116,5
0,66,121,6
0,52,88,1
0,66,119,7
0,82,38,1
0,62,101,1
0,57,108,5
0,50,72,6
0,45,80,1
0,45,97,2
0,82,48,0
0,44,78,0
0,38,96,0
0,50,77,0
0,57,119,1
0,62,109,5
0,66,106,8
0,66,120,5
0,82,41,3
0,62,92,2
0,57,79,5
0,50,73,1
0,38,95,1
0,70,50,0
0,35,83,0
0,50,82,2
0,50,73,5
0,57,110,5
0,62,110,5
0,66,111,6
0,74,81,21
0,39,58,3
0,44,71,9
0,48,57,5
0,51,83,15
0,44,79,1
0,50,70,2
0,57,84,3
0,62,91,8
0,66,111,8
0,66,114,5
0,45,99,1
0,73,61,0
0,35,75,0
0,62,113,1
0,57,81,1
0,50,88,6
0,50,80,1
0,82,56,2
0,42,39,0
0,57,114,1
0,62,110,5
0,66,114,6
0,66,112,7
0,82,39,1
0,62,95,1
0,57,99,5
0,50,67,6
0,38,59,8
0,38,50,51
0,62,107,57
0,33,102,5
0,82,47,0
0,44,77,0
0,38,81,0
0,50,73,0
0,57,116,1
0,62,100,5
0,66,100,1
0,38,60,39
0,64,110,11
0,66,116,5
0,82,43,3
0,38,50,0
0,62,83,2
0,57,76,5
0,50,64,8
0,54,82,37
0,62,91,1
0,57,92,0
0,66,112,5
0,38,89,1
0,70,49,0
0,59,81,0
0,35,89,0
0,45,109,1
0,50,110,10
0,57,110,8
0,62,108,8
0,66,107,8
0,74,72,25
0,66,113,27
0,45,112,3
0,39,39,1
0,50,111,6
0,57,107,5
0,44,60,12
0,62,107,7
0,66,108,9
0,44,80,8
0,48,67,2
0,66,111,7
0,62,109,5
0,57,112,5
0,50,110,1
0,45,90,6
0,73,48,0
0,35,80,0
0,66,106,2
0,45,112,2
0,57,112,3
0,62,110,5
0,42,32,5
0,66,112,0
0,67,107,3
0,66,107,5
0,62,107,5
0,66,109,2
0,57,111,1
0,50,112,10
0,64,106,1
0,33,97,4
0,44,76,0
0,38,94,0
0,50,110,3
0,57,112,3
0,62,109,5
0,66,112,8
0,64,109,7
0,66,109,5
0,62,106,1
0,57,109,5
0,50,110,1
0,45,111,3
0,38,94,3
0,70,49,0
0,35,91,0
0,45,106,2
0,50,111,3
0,57,108,5
0,62,109,7
0,66,112,6
0,74,81,162
0,45,111,3
0,39,41,3
0,50,110,4
0,57,112,5
0,44,63,14
0,62,106,7
0,66,112,5
0,44,81,12
0,48,66,2
0,66,111,5
0,57,109,8
0,62,112,5
0,57,109,3
0,50,110,3
0,45,109,6
0,45,89,4
0,73,58,0
0,35,76,0
0,57,107,19
0,50,112,3
0,57,110,5
0,62,112,5
0,66,106,8
0,62,107,2
0,42,37,0
0,66,110,1
0,62,110,5
0,57,109,5
0,50,106,3
0,45,109,8
0,62,109,74
0,50,110,5
0,38,92,3
0,44,79,0
0,38,94,0
0,57,109,2
0,62,111,5
0,66,108,8
0,59,113,97
0,66,112,3
0,62,108,3
0,57,106,3
0,50,108,6
0,61,93,1
0,57,85,2
0,45,108,0
0,52,79,2
0,33,91,3
0,70,46,0
0,35,88,0
0,52,104,0
0,57,109,1
0,61,111,5
0,61,107,0
0,64,104,8
0,74,76,65
0,40,108,5
0,45,104,5
0,52,105,5
0,39,35,2
0,57,108,5
0,44,58,16
0,61,103,7
0,64,103,20
0,44,74,17
0,48,65,2
0,64,106,5
0,61,105,5
0,57,107,8
0,64,114,16
0,37,91,8
0,73,53,0
0,35,76,0
0,52,105,5
0,57,104,5
0,61,105,5
0,42,28,6
0,64,107,2
0,64,103,5
0,61,106,5
0,57,109,7
0,52,107,6
0,52,103,3
0,40,93,1
0,44,78,0
0,38,94,0
0,57,107,4
0,61,105,7
0,64,108,6
0,64,107,5
0,61,106,5
0,62,102,2
0,57,107,5
0,52,107,6
0,52,109,1
0,33,88,4
0,70,52,0
0,35,89,0
0,57,109,2
0,61,110,3
0,64,108,6
0,74,82,1
0,40,109,5
0,45,108,7
0,52,110,5
0,39,37,8
0,57,108,7
0,44,59,22
0,61,111,5
0,44,81,17
0,64,108,2
0,48,66,0
0,64,109,5
0,61,111,10
0,40,90,12
0,73,63,0
0,35,71,0
0,42,37,3
0,52,109,2
0,57,109,3
0,61,107,5
0,64,107,8
0,64,114,5
0,61,113,5
0,57,113,6
0,33,88,1
0,44,76,0
0,38,95,0
0,52,112,4
0,57,113,5
0,61,112,3
0,64,107,8
0,64,108,5
0,61,113,3
0,62,90,3
0,57,108,0
0,52,113,6
0,31,81,41
0,70,51,0
0,35,86,0
0,55,105,5
0,59,97,3
0,55,86,2
0,59,103,0
0,67,102,8
0,74,73,164
0,43,104,5
0,47,103,5
0,50,104,3
0,39,36,2
0,55,107,7
0,44,63,8
0,59,108,1
0,44,77,16
0,48,67,2
0,67,105,7
0,59,108,79
0,67,107,5
0,59,102,7
0,55,106,8
0,38,92,6
0,73,51,0
0,35,79,0
0,59,107,3
0,50,108,5
0,55,102,5
0,59,105,5
0,42,34,4
0,67,108,4
0,67,105,5
0,59,104,5
0,55,106,3
0,50,106,8
0,61,102,74
0,50,108,5
0,31,93,3
0,44,74,0
0,38,97,0
0,55,105,2
0,59,108,3
0,67,104,8
0,62,106,79
0,67,104,7
0,59,107,5
0,55,104,8
0,61,109,1
0,33,88,1
0,70,53,0
0,35,88,0
0,52,107,2
0,61,95,3
0,57,108,0
0,57,91,1
0,61,112,4
0,64,107,8
0,74,78,111
0,40,109,35
0,39,38,23
0,52,111,2
0,57,112,3
0,44,59,8
0,61,107,7
0,64,113,15
0,44,78,2
0,48,66,2
0,64,108,3
0,61,109,5
0,57,110,6
0,40,94,4
0,73,61,0
0,35,71,0
0,52,109,7
0,57,108,5
0,42,39,2
0,61,113,1
0,64,109,8
0,64,111,3
0,61,107,7
0,57,108,3
0,52,107,4
0,45,108,5
0,33,91,2
0,44,75,0
0,38,92,0
0,52,112,1
0,57,109,7
0,61,108,5
0,64,107,6
0,50,110,132
0,64,108,5
0,55,78,2
0,61,113,5
0,57,109,3
0,52,112,5
0,45,108,8
0,31,87,1
0,70,49,0
0,35,90,0
0,59,107,0
0,55,89,4
0,47,110,1
0,50,110,5
0,55,108,5
0,59,111,5
0,67,110,8
0,74,75,49
0,43,110,7
0,47,112,5
0,50,108,3
0,39,37,4
0,55,108,3
0,44,58,20
0,59,110,5
0,44,77,17
0,67,109,0
0,48,69,2
0,67,112,5
0,59,109,5
0,35,89,4
0,73,54,0
0,35,74,0
0,55,112,2
0,50,112,5
0,55,109,7
0,42,29,3
0,59,108,2
0,67,108,3
0,67,111,5
0,59,111,5
0,55,109,5
0,59,105,6
0,50,108,2
0,47,111,5
0,57,109,2
0,50,111,5
0,33,84,5
0,44,74,0
0,38,93,0
0,55,108,0
0,59,110,1
0,67,111,8
0,57,110,5
0,67,113,0
0,59,109,5
0,55,109,4
0,57,99,12
0,52,115,25
0,50,73,3
0,52,91,1
0,38,106,2
0,70,48,0
0,35,83,0
0,50,114,2
0,57,110,3
0,62,114,5
0,66,112,8
0,54,90,26
0,74,77,83
0,45,114,3
0,50,108,1
0,39,41,2
0,57,114,5
0,44,59,1
0,62,108,1
0,66,107,6
0,44,78,1
0,48,65,2
0,66,113,7
0,66,114,5
0,62,98,5
0,62,110,0
0,42,99,2
0,73,62,0
