track,note,velocity,time
1,53,120,0
1,55,127,60
1,58,127,220
1,55,127,48
1,58,127,232
1,58,127,156
1,55,124,24
1,53,107,36
1,55,124,84
1,55,127,80
1,55,127,204
1,55,127,400
1,53,86,32
1,58,127,152
1,58,127,100
1,55,107,60
1,53,103,108
1,58,127,120
1,55,120,152
1,53,110,56
1,55,124,228
1,55,117,508
1,55,127,132
1,61,68,64
1,53,78,0
1,55,124,132
1,58,127,68
1,55,90,80
1,55,115,128
1,55,127,152
1,55,127,228
1,53,107,16
1,55,127,44
1,58,127,40
1,55,127,16
1,53,117,12
1,55,127,216
1,55,127,384
1,58,127,132
1,55,112,36
1,60,124,112
1,58,127,56
1,55,120,96
1,58,127,112
1,55,127,108
1,55,124,100
1,53,117,256
1,55,127,112
1,55,127,272
1,55,117,52
1,53,120,272
1,55,115,64
1,58,124,80
1,55,120,276
1,58,127,88
1,55,124,100
1,53,120,28
1,55,115,24
1,55,120,252
1,55,99,84
1,55,124,144
1,55,127,120
1,55,127,272
1,58,127,248
1,55,127,260
1,55,70,144
1,58,127,116
1,53,127,48
1,55,127,24
1,55,127,224
1,55,124,248
1,55,124,80
1,53,101,252
1,55,127,328
1,55,91,68
1,58,127,132
1,55,120,116
1,55,107,76
1,53,120,92
1,55,124,88
1,55,86,88
1,55,127,152
1,55,115,96
1,55,124,120
1,55,124,104
1,55,127,264
1,58,127,88
1,55,127,24
1,55,127,284
1,55,127,120
1,58,127,516
1,58,127,116
1,58,127,128
1,58,127,116
1,62,127,124
1,62,127,108
1,60,127,44
1,58,127,384
1,58,127,152
1,58,127,120
1,58,127,108
1,58,127,140
1,60,127,132
1,60,127,128
1,59,127,192
1,60,127,188
1,59,127,144
1,60,127,168
1,59,127,164
1,60,127,12
1,62,127,20
1,55,117,212
1,55,127,80
1,58,127,132
1,60,115,20
1,62,110,24
1,55,127,132
1,58,86,16
1,55,127,132
1,58,90,20
1,60,127,56
1,60,127,148
1,60,117,56
1,60,127,132
1,60,127,80
1,60,127,128
1,62,127,140
1,62,127,104
1,62,127,188
1,64,127,68
1,58,127,14624
1,58,127,152
1,60,127,64
1,58,106,196
1,62,127,124
1,62,127,84
1,60,127,32
1,58,127,368
1,58,127,140
1,58,106,140
1,58,127,164
1,58,127,116
1,58,124,112
1,60,117,92
1,60,127,140
1,59,105,180
1,60,110,188
1,59,127,152
1,60,127,180
1,59,127,164
1,60,127,168
1,62,127,184
1,60,117,176
1,55,127,76
1,55,127,204
1,55,120,132
1,62,127,96
1,60,124,8
1,62,112,80
1,55,120,24
1,55,127,112
1,60,127,36
1,60,127,148
1,60,127,84
1,60,127,120
1,60,80,124
1,62,127,152
1,62,110,76
1,62,120,100
1,62,127,100
1,62,127,76
1,64,127,96
1,55,124,2084
1,58,127,112
1,58,127,256
1,55,127,80
1,53,127,280
1,55,127,44
1,55,87,296
1,55,127,156
1,55,112,80
1,58,127,100
1,53,117,8
1,55,127,48
1,55,127,204
1,55,124,272
1,53,117,36
1,55,120,12
1,58,127,100
1,55,127,272
1,58,127,240
1,55,127,240
1,53,117,20
1,61,81,36
1,55,124,20
1,55,103,152
1,55,127,160
1,55,95,84
1,55,127,140
1,55,127,92
1,58,107,228
1,55,127,268
1,58,92,124
1,58,127,132
1,55,127,276
1,53,115,108
1,55,127,156
1,55,98,160
1,55,127,148
1,58,127,232
1,55,124,68
1,58,116,100
1,60,124,108
1,58,106,40
1,55,124,96
1,53,99,44
1,55,127,56
1,55,124,96
1,53,110,164
1,55,120,48
1,55,124,268
1,55,112,224
1,55,103,84
1,55,127,144
1,53,115,244
1,55,127,36
1,58,127,244
1,55,127,132
1,53,112,44
1,55,127,44
1,55,103,164
1,55,127,176
1,58,127,196
1,55,127,28
1,58,127,88
1,60,124,92
1,58,127,104
1,59,85,36
1,53,117,296
1,56,86,16
1,55,127,232
1,53,127,164
1,55,127,224
1,55,120,132
1,55,127,212
1,55,127,92
1,55,124,272
1,53,112,300
1,55,127,112
1,55,127,204
1,55,127,76
1,55,127,260
1,58,127,80
1,55,127,64
1,53,127,260
1,55,127,120
1,58,127,516
1,55,117,236
1,60,127,100
1,58,113,188
1,55,127,64
1,53,110,92
1,55,124,100
1,58,127,624
1,58,124,64
1,60,127,88
1,58,116,12
1,62,127,100
1,62,127,108
1,60,127,56
1,58,127,24
1,58,127,332
1,58,127,128
1,58,127,88
1,58,116,80
1,60,127,92
1,60,127,100
1,59,105,180
1,60,127,200
1,59,102,176
1,60,127,48
1,59,112,184
1,60,127,64
1,62,115,196
1,55,124,24
1,60,127,84
1,55,127,32
1,58,124,68
1,55,127,24
1,55,127,144
1,55,127,144
1,55,127,108
1,60,127,88
1,60,127,128
1,60,127,204
1,58,120,180
1,60,127,148
1,62,117,36
1,62,127,76
1,62,127,80
1,62,127,84
1,62,127,124
1,64,127,24
1,62,101,20
1,55,127,2244
1,53,124,0
1,55,112,56
1,55,127,120
1,58,127,612
1,55,124,36
1,53,117,120
1,55,127,48
1,55,127,224
1,58,127,244
1,55,124,48
1,60,127,240
1,58,127,160
1,55,127,172
1,53,127,172
1,55,107,68
1,55,127,108
1,55,120,112
1,55,127,272
1,55,110,76
1,58,124,96
1,55,115,100
1,55,124,276
1,58,127,260
1,58,127,120
1,55,124,48
1,53,102,64
1,55,127,60
1,53,127,184
1,55,127,56
1,55,127,228
1,58,127,252
1,55,124,56
1,55,124,260
1,55,102,252
1,53,124,328
1,56,77,20
1,55,127,56
1,58,127,76
1,55,127,80
1,53,115,48
1,55,127,76
1,55,127,248
1,55,108,64
1,55,127,292
1,58,124,224
1,55,127,172
1,55,97,132
1,53,112,132
1,53,120,120
1,55,127,92
1,55,127,120
1,53,117,80
1,55,127,112
1,58,109,48
1,58,127,172
1,55,112,44
1,60,120,132
1,58,124,68
1,55,105,88
1,58,127,112
1,55,127,236
1,53,127,280
1,55,127,208
1,53,120,220
1,55,101,208
1,55,107,288
1,55,107,228
1,55,127,256
1,58,116,56
1,55,120,72
1,53,124,272
1,55,127,140
1,58,111,608
1,58,127,100
1,55,110,52
1,55,105,92
1,58,120,100
1,58,124,108
1,55,120,76
1,60,86,68
1,60,115,120
1,58,116,88
1,55,120,132
1,53,124,240
1,55,127,88
1,55,127,424
1,55,124,120
1,55,120,268
1,55,124,124
1,55,124,308
1,58,127,288
1,58,127,296
1,55,127,120
1,53,124,292
1,55,120,100
1,55,124,300
1,53,115,84
1,55,127,312
1,55,117,304
1,58,127,280
1,55,124,300
1,55,110,108
1,53,124,116
1,53,107,120
1,55,124,100
1,55,120,268
1,55,120,152
1,53,80,108
1,55,120,140
1,55,120,124
1,58,103,488
1,55,124,100
1,55,90,76
1,55,127,144
1,53,105,44
1,55,127,120
1,55,127,244
1,55,95,228
1,58,127,148
1,55,112,108
1,58,127,144
1,55,124,92
1,53,117,100
1,55,120,112
1,55,124,284
1,53,127,296
1,55,124,272
1,55,120,240
1,55,100,252
1,55,127,152
1,55,120,224
1,53,112,56
1,55,127,116
1,58,124,116
1,55,124,300
1,55,127,284
1,53,120,248
1,55,117,84
1,58,111,44
1,55,117,100
1,55,120,256
1,53,110,32
1,55,124,304
1,53,127,272
1,55,127,256
1,55,127,132
1,53,115,80
1,53,120,120
1,55,105,56
1,55,124,116
1,53,117,28
1,58,127,100
1,55,127,184
1,55,120,232
1,53,103,12
1,55,120,276
1,53,127,220
1,55,127,208
1,53,127,204
1,55,124,56
1,53,105,24
1,55,127,92
1,55,124,280
1,55,120,260
1,58,127,76
1,55,127,284
1,60,112,112
1,58,127,76
1,55,117,108
1,53,115,104
1,55,124,100
1,58,109,76
1,55,120,108
1,53,117,76
1,55,124,112
1,55,120,300
1,55,120,100
1,55,117,112
1,55,127,104
1,53,127,1060
1,53,124,120
1,55,127,80
1,55,127,104
2,31,120,13828
2,31,120,172
2,31,120,108
2,29,120,168
2,31,120,68
2,31,120,68
2,31,120,196
2,31,120,100
2,36,120,0
2,34,120,192
2,29,120,24
2,31,120,36
2,31,120,160
2,31,120,92
2,29,120,380
2,31,120,188
2,34,120,80
2,34,120,160
2,36,120,40
2,38,120,188
2,36,120,48
2,29,120,16
2,31,120,28
2,31,120,156
2,31,120,104
2,29,120,156
2,31,120,12
2,31,120,172
2,34,120,188
2,36,120,16
2,34,120,16
2,29,120,16
2,31,120,24
2,31,120,164
2,36,120,8
2,34,120,16
2,31,120,20
2,29,120,24
2,29,120,56
2,29,120,168
2,31,120,16
2,34,120,116
2,31,120,28
2,31,120,172
2,31,120,76
2,29,120,112
2,31,120,40
2,31,120,124
2,31,120,80
2,36,120,8
2,34,120,16
2,31,120,24
2,31,120,148
2,31,120,72
2,29,120,380
2,31,120,188
2,34,120,96
2,34,120,156
2,36,120,28
2,38,120,4
2,36,120,20
2,34,120,28
2,31,120,28
2,31,120,176
2,31,120,84
2,29,120,196
2,31,120,32
2,31,120,152
2,31,120,80
2,36,120,16
2,34,120,12
2,29,120,12
2,31,120,48
2,31,120,148
2,31,120,68
2,34,120,32
2,36,120,16
2,29,120,8
2,29,120,148
2,31,120,16
2,29,120,120
2,31,120,32
2,31,120,180
2,31,120,100
2,29,120,88
2,31,120,12
2,31,120,144
2,31,120,48
2,36,120,192
2,34,120,4
2,29,120,12
2,31,120,8
2,31,120,152
2,31,120,84
2,29,120,20
2,31,120,4
2,34,120,48
2,34,120,136
2,36,120,28
2,38,120,188
2,36,120,40
2,29,120,28
2,31,120,28
2,31,120,164
2,31,120,104
2,29,120,176
2,31,120,16
2,31,120,96
2,31,120,188
2,31,120,96
2,36,120,192
2,34,120,12
2,29,120,12
2,31,120,24
2,31,120,188
2,31,120,104
2,34,120,196
2,36,120,20
2,29,120,4
2,29,120,148
2,31,120,48
2,34,120,384
2,36,120,176
2,27,120,176
2,27,120,164
2,34,120,192
2,39,120,4
2,27,120,12
2,34,120,24
2,34,120,112
2,43,120,380
2,41,120,112
2,34,120,176
2,39,120,176
2,34,120,544
2,27,120,4
2,27,120,124
2,34,120,192
2,39,120,20
2,41,120,68
2,41,120,112
2,36,120,20
2,29,120,92
2,31,120,12
2,31,120,136
2,31,120,84
2,29,120,88
2,31,120,192
2,31,120,144
2,36,120,192
2,34,120,188
2,31,120,8
2,29,120,4
2,36,120,16
2,36,120,108
2,36,120,76
2,36,120,68
2,31,120,0
2,38,120,192
2,38,120,0
2,38,120,108
2,45,120,388
2,50,120,188
2,45,120,188
2,38,120,4
2,40,120,48
2,28,120,4
2,35,120,188
2,40,120,8
2,35,120,388
2,40,120,176
2,40,120,80
2,35,120,8
2,28,120,4
2,31,120,388
2,31,120,200
2,31,120,124
2,29,120,172
2,31,120,8
2,31,120,192
2,36,120,36
2,34,120,16
2,29,120,16
2,31,120,24
2,31,120,176
2,31,120,92
2,29,120,384
2,31,120,184
2,34,120,12
2,34,120,132
2,36,120,20
2,38,120,188
2,36,120,184
2,29,120,4
2,31,120,192
2,31,120,180
2,31,120,80
2,29,120,28
2,31,120,4
2,29,120,132
2,36,120,12
2,34,120,192
2,31,120,12
2,29,120,0
2,31,120,16
2,31,120,200
2,34,120,192
2,36,120,32
2,34,120,196
2,31,120,24
2,29,120,4
2,29,120,156
2,31,120,196
2,31,120,152
2,27,120,4
2,34,120,44
2,39,120,4
2,39,120,136
2,39,120,108
2,34,120,4
2,34,120,100
2,46,120,188
2,41,120,156
2,34,120,16
2,39,120,16
2,34,120,572
2,27,120,8
2,27,120,124
2,27,120,100
2,29,120,28
2,29,120,84
2,36,120,0
2,41,120,192
2,36,120,180
2,29,120,180
2,31,120,20
2,31,120,148
2,31,120,72
2,29,120,120
2,31,120,192
2,29,120,124
2,31,120,192
2,34,120,0
2,31,120,16
2,29,120,0
2,36,120,36
2,36,120,132
2,31,120,0
2,36,120,192
2,38,120,24
2,38,120,104
2,45,120,8
2,50,120,192
2,45,120,188
2,38,120,160
2,40,120,36
2,35,120,8
2,28,120,16
2,28,120,104
2,35,120,380
2,40,120,8
2,35,120,196
2,28,120,16
2,31,120,224
2,31,120,184
2,31,120,100
2,29,120,184
2,31,120,192
2,31,120,184
2,31,120,104
2,34,120,192
2,36,120,32
2,31,120,20
2,31,120,176
2,29,120,4
2,31,120,52
2,34,120,48
2,34,120,128
2,36,120,24
2,38,120,192
2,36,120,176
2,34,120,16
2,31,120,24
2,31,120,160
2,31,120,92
2,29,120,224
2,31,120,16
2,31,120,128
2,31,120,80
2,29,120,80
2,31,120,32
2,31,120,128
2,36,120,4
2,34,120,16
2,31,120,16
2,29,120,24
2,29,120,136
2,31,120,192
2,38,120,0
2,36,120,36
2,34,120,4
2,31,120,20
2,31,120,208
2,31,120,84
2,29,120,228
2,31,120,192
2,31,120,108
2,31,120,156
2,31,120,92
2,36,120,192
2,34,120,16
2,29,120,188
2,31,120,24
2,31,120,172
2,31,120,80
2,29,120,64
2,31,120,192
2,34,120,168
2,34,120,112
2,34,120,96
2,36,120,8
2,36,120,108
2,38,120,8
2,36,120,192
2,31,120,172
2,31,120,240
2,31,120,128
2,29,120,128
2,31,120,12
2,31,120,112
2,31,120,96
2,34,120,196
2,36,120,36
2,31,120,16
2,31,120,164
2,31,120,80
2,31,120,160
2,29,120,136
2,29,120,156
2,31,120,12
2,31,120,140
2,39,120,4
2,27,120,64
2,34,120,380
2,39,120,0
2,27,120,196
2,34,120,24
2,34,120,100
2,43,120,4
2,41,120,196
2,38,120,28
2,34,120,28
2,39,120,48
2,27,120,576
2,39,120,176
2,39,120,120
2,34,120,192
2,27,120,0
2,29,120,88
2,29,120,104
2,29,120,108
2,41,120,4
2,36,120,188
2,29,120,0
2,31,120,36
2,31,120,184
2,31,120,100
2,29,120,144
2,31,120,12
2,31,120,88
2,31,120,144
2,36,120,192
2,34,120,0
2,31,120,192
2,34,120,16
2,36,120,32
2,36,120,140
2,36,120,104
2,36,120,88
2,31,120,72
2,38,120,24
2,38,120,104
2,33,120,48
2,38,120,4
2,38,120,100
2,45,120,384
2,40,120,188
2,47,120,72
2,52,120,192
2,47,120,188
2,40,120,36
2,35,120,44
2,28,120,8
2,31,120,340
2,31,120,164
2,31,120,128
2,29,120,236
2,31,120,4
2,31,120,96
2,31,120,152
2,36,120,8
2,34,120,192
2,31,120,28
2,29,120,12
2,31,120,40
2,31,120,156
2,31,120,108
2,29,120,188
2,34,120,24
2,34,120,128
2,36,120,28
2,38,120,4
2,36,120,36
2,34,120,4
2,31,120,16
2,31,120,0
2,31,120,208
2,31,120,124
2,29,120,160
2,31,120,4
2,31,120,136
2,36,120,24
2,34,120,4
2,29,120,4
2,31,120,8
2,31,120,156
2,31,120,104
2,31,120,140
2,29,120,32
2,29,120,116
2,31,120,192
2,36,120,12
2,34,120,8
2,29,120,196
2,31,120,12
2,31,120,168
2,31,120,100
2,29,120,188
2,31,120,8
2,31,120,152
2,36,120,0
2,34,120,16
2,31,120,8
2,29,120,12
2,31,120,56
2,31,120,176
2,31,120,92
2,29,120,92
2,31,120,52
2,34,120,96
2,34,120,152
2,36,120,8
2,38,120,4
2,36,120,0
2,29,120,4
2,31,120,32
2,31,120,324
2,31,120,60
2,29,120,176
2,31,120,144
2,29,120,152
2,31,120,188
2,36,120,8
2,34,120,8
2,29,120,12
2,31,120,28
2,31,120,144
2,31,120,100
2,31,120,132
2,29,120,4
2,36,120,384
2,29,120,0
2,31,120,28
2,36,120,28
2,34,120,188
2,29,120,176
2,31,120,180
2,31,120,172
2,31,120,68
2,29,120,144
2,31,120,192
2,31,120,164
2,36,120,20
2,34,120,192
2,29,120,16
2,31,120,192
2,31,120,172
2,31,120,72
2,31,120,200
2,34,120,28
2,34,120,164
2,36,120,4
2,38,120,192
2,36,120,184
2,29,120,12
2,31,120,192
2,31,120,232
2,31,120,124
2,29,120,140
2,31,120,16
2,31,120,144
2,31,120,80
2,36,120,192
2,34,120,20
2,29,120,20
2,31,120,48
2,31,120,164
2,31,120,104
2,34,120,76
2,36,120,32
2,29,120,4
2,29,120,160
