track,note,velocity,time
1,38,109,2659
1,38,0,216
1,38,105,72
1,38,0,36
1,38,109,60
1,38,0,228
1,38,105,58
1,38,0,36
1,38,111,62
1,38,0,224
1,38,96,64
1,38,0,44
1,36,111,52
1,36,0,93
1,33,96,2
1,33,0,95
1,36,105,2
1,36,0,119
1,38,109,75
1,38,0,216
1,38,102,71
1,38,0,34
1,38,109,63
1,38,0,220
1,38,96,66
1,38,0,35
1,38,111,63
1,38,0,219
1,38,96,68
1,38,0,25
1,38,109,72
1,38,0,92
1,33,90,1
1,33,0,82
1,36,102,13
1,36,0,142
1,38,111,52
1,38,0,230
1,38,105,60
1,38,0,31
1,38,111,67
1,38,0,211
1,38,96,70
1,38,0,36
1,38,111,62
1,38,0,222
1,38,102,65
1,38,0,96
1,36,102,1
1,36,0,94
1,33,94,1
1,33,0,90
1,36,102,6
1,36,0,130
1,36,106,62
1,36,0,199
1,38,105,48
1,38,0,43
1,38,105,53
1,38,0,219
1,38,102,66
1,38,0,34
1,38,109,63
1,38,0,216
1,38,105,71
1,38,0,93
1,36,100,2
1,36,0,95
1,33,96,1
1,33,0,95
1,36,105,2
1,36,0,105
1,38,109,88
1,38,0,213
1,38,104,76
1,38,0,26
1,38,108,69
1,38,0,223
1,38,104,65
1,38,0,29
1,36,109,67
1,36,0,221
1,36,104,68
1,36,0,28
1,34,108,67
1,34,0,219
1,34,104,70
1,34,0,26
1,33,109,69
1,33,0,223
1,33,104,65
1,33,0,24
1,33,108,72
1,33,0,234
1,33,104,55
1,33,0,21
1,33,109,74
1,33,0,218
1,33,104,69
1,33,0,26
1,33,108,71
1,33,0,230
1,36,104,59
1,36,0,94
1,38,109,2
1,38,0,209
1,38,104,79
1,38,0,24
1,38,108,71
1,38,0,219
1,38,104,69
1,38,0,26
1,36,109,70
1,36,0,231
1,36,104,58
1,36,0,27
1,34,108,69
1,34,0,220
1,34,104,68
1,34,0,26
1,33,109,70
1,33,0,214
1,33,104,73
1,33,0,28
1,33,108,68
1,33,0,223
1,33,104,65
1,33,0,24
1,33,109,72
1,33,0,238
1,33,104,50
1,33,0,24
1,33,108,72
1,33,0,233
1,36,104,56
1,36,0,94
1,41,109,2
1,41,0,223
1,41,107,65
1,41,0,255
1,38,107,33
1,38,0,94
1,36,104,2
1,36,0,94
1,41,109,2
1,41,0,216
1,41,107,72
1,41,0,272
1,31,107,15
1,31,0,95
1,33,104,1
1,33,0,95
1,36,109,1
1,36,0,234
1,36,107,54
1,36,0,287
1,33,107,2
1,33,0,94
1,31,104,2
1,31,0,94
1,36,109,2
1,36,0,236
1,36,107,52
1,36,0,284
1,33,107,3
1,33,0,95
1,31,104,2
1,31,0,94
1,34,109,1
1,34,0,220
1,34,107,69
1,34,0,268
1,31,107,19
1,31,0,94
1,29,104,2
1,29,0,94
1,34,109,2
1,34,0,228
1,34,107,60
1,34,0,231
1,31,107,57
1,31,0,95
1,33,104,1
1,33,0,95
1,38,109,1
1,38,0,211
1,38,104,76
1,38,0,30
1,38,108,66
1,38,0,191
1,36,107,2
1,36,0,95
1,33,104,1
1,33,0,95
1,38,109,1
1,38,0,124
1,38,95,69
1,38,0,6
1,34,104,90
1,34,0,82
1,34,104,110
1,34,0,108
1,34,104,84
1,34,0,94
1,36,109,2
1,36,0,212
1,36,104,76
1,36,0,24
1,36,108,71
1,36,0,201
1,36,104,87
1,36,0,33
1,36,109,64
1,36,0,217
1,36,104,70
1,36,0,35
1,36,108,62
1,36,0,190
1,31,107,1
1,31,0,94
1,33,104,2
1,33,0,96
1,38,109,1
1,38,0,209
1,38,92,79
1,38,0,17
1,38,108,79
1,38,0,224
1,38,104,64
1,38,0,23
1,36,109,73
1,36,0,223
1,36,104,65
1,36,0,23
1,34,108,73
1,34,0,215
1,34,104,72
1,34,0,21
1,33,109,75
1,33,0,219
1,33,92,70
1,33,0,16
1,33,108,80
1,33,0,218
1,33,104,69
1,33,0,19
1,33,109,77
1,33,0,225
1,33,104,63
1,33,0,20
1,33,108,76
1,33,0,149
1,33,107,44
1,33,0,94
1,36,104,1
1,36,0,95
1,38,109,2
1,38,0,220
1,38,92,69
1,38,0,16
1,38,108,79
1,38,0,219
1,38,104,69
1,38,0,18
1,36,109,78
1,36,0,223
1,36,104,65
1,36,0,18
1,34,108,77
1,34,0,222
1,34,104,67
1,34,0,17
1,33,109,78
1,33,0,233
1,33,104,56
1,33,0,21
1,33,108,74
1,33,0,223
1,33,104,65
1,33,0,18
1,33,109,79
1,33,0,185
1,33,104,103
1,33,0,26
1,33,108,69
1,33,0,205
1,36,104,84
1,36,0,94
1,41,109,2
1,41,0,221
1,41,107,67
1,41,0,225
1,38,107,63
1,38,0,95
1,36,104,1
1,36,0,94
1,29,109,1
1,29,0,226
1,29,107,63
1,29,0,238
1,29,107,50
1,29,0,94
1,31,104,1
1,31,0,95
1,36,109,2
1,36,0,216
1,36,107,72
1,36,0,159
1,36,92,33
1,36,0,6
1,34,107,90
1,34,0,93
1,31,104,2
1,31,0,95
1,36,109,2
1,36,0,204
1,36,107,84
1,36,0,230
1,36,107,58
1,36,0,94
1,31,104,1
1,31,0,95
1,34,109,2
1,34,0,223
1,34,107,64
1,34,0,276
1,29,107,12
1,29,0,95
1,31,104,2
1,31,0,94
1,34,109,2
1,34,0,238
1,34,107,50
1,34,0,190
1,34,92,1
1,34,0,14
1,31,107,82
1,31,0,95
1,33,104,1
1,33,0,95
1,38,109,2
1,38,0,222
1,38,107,66
1,38,0,166
1,38,104,26
1,38,0,94
1,36,107,2
1,36,0,94
1,33,104,2
1,33,0,94
1,38,109,1
1,38,0,133
1,34,104,157
1,34,0,97
1,34,104,94
1,34,0,102
1,31,104,90
1,31,0,94
1,36,109,1
1,36,0,217
1,36,104,71
1,36,0,22
1,36,108,74
1,36,0,218
1,36,104,69
1,36,0,31
1,36,109,66
1,36,0,238
1,34,104,51
1,34,0,96
1,34,104,95
1,34,0,99
1,31,104,94
1,31,0,94
1,36,109,1
1,36,0,214
1,36,104,75
1,36,0,18
1,36,108,77
1,36,0,204
1,36,104,84
1,36,0,23
1,36,109,73
1,36,0,221
1,36,104,68
1,36,0,126
1,36,104,66
1,36,0,94
1,31,107,2
1,31,0,93
1,33,104,2
1,33,0,95
1,38,109,2
1,38,0,244
1,38,108,139
1,38,0,94
1,36,104,2
1,36,0,131
1,34,107,61
1,34,0,315
1,34,104,70
1,34,0,94
1,29,108,2
1,29,0,94
1,31,104,1
1,31,0,95
1,34,107,1
1,34,0,151
1,36,109,41
1,36,0,199
1,36,107,89
1,36,0,245
1,33,107,44
1,33,0,94
1,31,104,2
1,31,0,94
1,36,109,2
1,36,0,212
1,36,107,75
1,36,0,251
1,33,107,38
1,33,0,94
1,36,104,2
1,36,0,94
1,38,109,2
1,38,0,224
1,38,92,64
1,38,0,8
1,38,108,87
1,38,0,95
1,36,104,2
1,36,0,138
1,34,107,53
1,34,0,306
1,34,104,78
1,34,0,94
1,29,108,2
1,29,0,94
1,31,104,2
1,31,0,95
1,34,107,1
1,34,0,95
1,33,104,1
1,33,0,95
1,36,109,1
1,36,0,224
1,36,107,65
1,36,0,140
1,36,104,52
1,36,0,23
1,33,107,73
1,33,0,94
1,31,104,1
1,31,0,95
1,36,109,2
1,36,0,222
1,36,107,66
1,36,0,142
1,36,104,49
1,36,0,95
1,33,107,1
1,33,0,94
1,36,104,2
1,36,0,95
1,38,109,2
1,38,0,222
1,38,104,65
1,38,0,23
1,38,108,73
1,38,0,229
1,38,104,59
1,38,0,21
1,36,109,75
1,36,0,227
1,36,104,61
1,36,0,30
1,34,108,66
1,34,0,227
1,34,104,62
1,34,0,19
1,33,109,77
1,33,0,211
1,33,104,77
1,33,0,18
1,33,108,77
1,33,0,231
1,33,104,57
1,33,0,22
1,33,109,74
1,33,0,237
1,33,92,51
1,33,0,16
1,33,108,80
1,33,0,202
1,36,104,87
1,36,0,94
1,38,109,2
1,38,0,222
1,38,104,65
1,38,0,23
1,38,108,73
1,38,0,229
1,38,104,59
1,38,0,21
1,36,109,75
1,36,0,227
1,36,104,61
1,36,0,30
1,34,108,66
1,34,0,227
1,34,104,62
1,34,0,19
1,33,109,77
1,33,0,211
1,33,104,77
1,33,0,18
1,33,108,77
1,33,0,231
1,33,104,57
1,33,0,22
1,33,109,74
1,33,0,237
1,33,92,51
1,33,0,16
1,33,108,80
1,33,0,202
1,36,104,87
1,36,0,94
1,41,109,2
1,41,0,190
1,41,95,2
1,41,0,10
1,41,104,86
1,41,0,243
1,38,107,45
1,38,0,95
1,36,104,1
1,36,0,94
1,29,109,2
1,29,0,190
1,29,95,2
1,29,0,10
1,29,104,86
1,29,0,190
1,29,92,2
1,29,0,10
1,31,107,85
1,31,0,94
1,33,104,1
1,33,0,96
1,36,109,1
1,36,0,221
1,36,107,67
1,36,0,261
1,33,107,28
1,33,0,93
1,31,104,2
1,31,0,95
1,36,109,2
1,36,0,235
1,36,107,53
1,36,0,244
1,36,107,43
1,36,0,95
1,33,104,1
1,33,0,95
1,34,109,1
1,34,0,227
1,34,107,61
1,34,0,191
1,34,92,2
1,34,0,10
1,31,107,86
1,31,0,94
1,29,104,2
1,29,0,94
1,34,109,1
1,34,0,227
1,34,107,61
1,34,0,279
1,31,107,9
1,31,0,95
1,33,104,2
1,33,0,93
1,38,109,2
1,38,0,216
1,38,104,71
1,38,0,30
1,38,108,66
1,38,0,192
1,36,107,1
1,36,0,95
1,33,104,2
1,33,0,94
1,38,109,1
1,38,0,239
1,34,104,50
1,34,0,118
1,34,104,74
1,34,0,116
1,34,104,75
1,34,0,94
1,36,109,2
1,36,0,232
1,36,104,56
1,36,0,22
1,36,108,74
1,36,0,219
1,31,104,70
1,31,0,94
1,36,109,2
1,36,0,201
1,36,104,86
1,36,0,127
1,33,104,64
1,33,0,95
1,31,107,2
1,31,0,95
1,33,104,1
1,33,0,95
1,38,109,2
1,38,0,213
1,38,104,74
1,38,0,23
1,38,108,73
1,38,0,223
1,38,104,65
1,38,0,32
1,36,109,64
1,36,0,232
1,36,104,57
1,36,0,33
1,34,108,63
1,34,0,226
1,34,104,61
1,34,0,24
1,33,109,72
1,33,0,221
1,33,92,68
1,33,0,17
1,33,108,79
1,33,0,218
1,33,104,69
1,33,0,24
1,33,109,72
1,33,0,226
1,33,104,63
1,33,0,23
1,33,108,72
1,33,0,191
1,31,107,1
1,31,0,95
1,33,104,1
1,33,0,94
1,38,109,2
1,38,0,224
1,38,104,65
1,38,0,26
1,38,108,69
1,38,0,227
1,38,104,61
1,38,0,26
1,36,109,70
1,36,0,218
1,36,104,71
1,36,0,36
1,34,108,59
1,34,0,231
1,34,104,58
1,34,0,28
1,33,109,67
1,33,0,231
1,33,104,58
1,33,0,22
1,33,108,74
1,33,0,226
1,33,104,62
1,33,0,27
1,33,109,68
1,33,0,225
1,33,104,64
1,33,0,27
1,33,108,69
1,33,0,154
1,33,107,37
1,33,0,95
1,36,104,2
1,36,0,95
1,41,109,1
1,41,0,205
1,41,107,83
1,41,0,286
1,38,107,2
1,38,0,94
1,36,104,1
1,36,0,95
1,29,109,2
1,29,0,225
1,29,107,61
1,29,0,288
1,31,107,2
1,31,0,94
1,33,104,2
1,33,0,94
1,36,109,2
1,36,0,215
1,36,107,73
1,36,0,154
1,36,104,38
1,36,0,95
1,33,107,1
1,33,0,94
1,31,104,2
1,31,0,94
1,36,109,2
1,36,0,221
1,36,107,67
1,36,0,250
1,36,107,38
1,36,0,94
1,33,104,2
1,33,0,94
1,34,109,2
1,34,0,224
1,34,104,63
1,34,0,156
1,34,104,36
1,34,0,95
1,31,107,1
1,31,0,94
1,29,104,2
1,29,0,95
1,34,109,1
1,34,0,220
1,34,107,68
1,34,0,260
1,31,107,28
1,31,0,94
1,33,104,2
1,33,0,94
1,38,109,2
1,38,0,227
1,38,107,62
1,38,0,136
1,38,104,55
1,38,0,94
1,36,107,2
1,36,0,94
1,33,104,2
1,33,0,94
1,38,109,2
1,38,0,239
1,34,107,51
1,34,0,105
1,34,104,87
1,34,0,113
1,34,104,78
1,34,0,95
1,36,109,1
1,36,0,193
1,36,104,95
1,36,0,191
1,36,92,1
1,36,0,6
1,33,107,90
1,33,0,94
1,31,104,2
1,31,0,94
1,36,109,2
1,36,0,206
1,34,104,82
1,34,0,107
1,34,104,85
1,34,0,114
1,34,104,78
1,34,0,94
1,36,109,1
1,36,0,220
1,36,104,69
1,36,0,111
1,36,104,81
1,36,0,94
1,33,107,2
1,33,0,94
1,31,104,1
1,31,0,95
1,36,109,1
1,36,0,209
1,36,104,80
1,36,0,94
1,33,108,2
1,33,0,38
1,33,104,58
1,33,0,93
1,36,107,2
1,36,0,94
1,33,104,1
1,33,0,96
1,38,109,1
1,38,0,269
1,38,108,115
1,38,0,94
1,36,104,2
1,36,0,123
1,34,107,68
1,34,0,336
1,34,104,50
1,34,0,94
1,29,108,2
1,29,0,93
1,31,104,2
1,31,0,94
1,34,107,2
1,34,0,94
1,33,104,2
1,33,0,94
1,36,109,2
1,36,0,213
1,36,107,75
1,36,0,145
1,36,104,48
1,36,0,94
1,33,107,2
1,33,0,94
1,31,104,1
1,31,0,95
1,36,109,1
1,36,0,229
1,36,107,60
1,36,0,114
1,36,104,77
1,36,0,94
1,33,107,2
1,33,0,94
1,36,104,2
1,36,0,95
1,38,109,2
1,38,0,210
1,38,104,78
1,38,0,32
1,38,108,64
1,38,0,94
1,36,104,2
1,36,0,122
1,34,107,70
1,34,0,303
1,34,104,81
1,34,0,93
1,29,108,2
1,29,0,94
1,31,104,2
1,31,0,95
1,34,107,1
1,34,0,95
1,33,104,1
1,33,0,95
1,36,109,1
1,36,0,223
1,36,107,66
1,36,0,157
1,36,104,35
1,36,0,94
1,33,107,1
1,33,0,95
1,31,104,1
1,31,0,95
1,36,109,2
1,36,0,202
1,36,107,85
1,36,0,27
1,36,108,69
1,36,0,190
1,33,107,1
1,33,0,96
1,36,104,1
1,36,0,96
1,38,109,1
1,38,0,219
1,38,92,69
1,38,0,15
1,38,108,80
1,38,0,235
1,38,104,53
1,38,0,23
1,36,109,73
1,36,0,226
1,36,104,62
1,36,0,25
1,34,108,71
1,34,0,230
1,34,104,58
1,34,0,23
1,33,109,73
1,33,0,228
1,33,104,61
1,33,0,19
1,33,108,77
1,33,0,224
1,33,104,64
1,33,0,20
1,33,109,75
1,33,0,226
1,33,104,63
1,33,0,22
1,33,108,74
1,33,0,158
1,33,107,33
1,33,0,95
1,36,104,2
1,36,0,94
1,38,109,2
1,38,0,221
1,38,104,67
1,38,0,18
1,38,108,78
1,38,0,222
1,38,104,66
1,38,0,22
1,36,109,73
1,36,0,228
1,36,104,61
1,36,0,19
1,34,108,76
1,34,0,227
1,34,104,61
1,34,0,25
1,33,109,71
1,33,0,218
1,33,104,71
1,33,0,22
1,33,108,73
1,33,0,231
1,33,104,58
1,33,0,23
1,33,109,72
1,33,0,218
1,33,104,70
1,33,0,25
1,33,108,71
1,33,0,162
1,33,107,30
1,33,0,95
1,36,104,2
1,36,0,94
1,41,109,2
1,41,0,204
1,41,107,84
1,41,0,285
1,38,107,2
1,38,0,95
1,36,104,2
1,36,0,93
1,29,109,2
1,29,0,224
1,29,107,65
1,29,0,240
1,29,107,47
1,29,0,95
1,31,104,2
1,31,0,94
1,36,109,2
1,36,0,223
1,36,107,65
1,36,0,246
1,34,107,42
1,34,0,94
1,31,104,2
1,31,0,94
1,36,109,2
1,36,0,223
1,36,107,65
1,36,0,219
1,36,107,68
1,36,0,95
1,33,104,1
1,33,0,95
1,34,109,1
1,34,0,217
1,34,107,71
1,34,0,149
1,34,92,44
1,34,0,7
1,31,107,89
1,31,0,94
1,29,104,2
1,29,0,94
1,34,109,2
1,34,0,222
1,34,107,66
1,34,0,134
1,34,104,58
1,34,0,22
1,31,107,73
1,31,0,95
1,33,104,1
1,33,0,95
1,38,109,2
1,38,0,220
1,38,107,67
1,38,0,166
