track,note,velocity,time
1,28,111,25184
1,32,99,2
1,33,99,2
1,37,99,12
1,35,120,16
1,32,117,2
1,33,94,2
1,35,106,2
1,28,90,194
1,35,120,2
1,28,99,2
1,32,112,8
1,33,106,22
1,33,81,16
1,28,89,8
1,28,59,16
1,33,87,12
1,33,76,16
1,28,92,2
1,28,69,208
1,35,102,12
1,35,83,208
1,30,90,12
1,35,104,210
1,35,56,208
1,32,90,12
1,33,109,208
1,33,72,194
1,28,86,6
1,35,96,394
1,33,85,14
1,32,84,198
1,30,62,2
1,28,104,8
1,35,102,16
1,28,53,16
1,28,62,16
1,32,78,12
1,33,117,18
1,33,81,16
1,28,94,12
1,28,66,16
1,33,97,12
1,33,63,18
1,37,99,12
1,37,56,8
1,35,104,8
1,35,66,16
1,30,82,2
1,35,96,18
1,35,94,12
1,35,70,188
1,32,84,2
1,32,45,16
1,33,106,10
1,33,94,18
1,28,97,12
1,28,58,12
1,35,99,12
1,35,54,12
1,32,93,12
1,30,84,16
1,28,111,2
1,35,106,0
1,28,86,16
1,35,102,12
1,28,77,16
1,35,96,2
1,28,83,2
1,35,94,8
1,28,87,16
1,35,97,8
1,28,82,8
1,35,94,8
1,28,81,2
1,35,94,8
1,28,83,2
1,30,82,8
1,32,67,384
1,33,109,14
1,28,97,2
1,33,89,16
1,28,86,6
1,28,86,200
1,28,73,22
1,35,106,12
1,28,94,12
1,35,78,6
1,33,89,208
1,33,79,20
1,28,79,12
1,33,79,16
1,33,75,16
1,28,76,12
1,28,102,194
1,28,84,14
1,28,66,16
1,32,50,12
1,33,74,18
1,35,77,16
1,35,51,16
1,35,70,10
1,35,66,200
1,28,86,8
1,28,61,18
1,35,89,12
1,35,71,10
1,33,82,12
1,33,63,198
1,33,84,12
1,28,77,22
1,28,68,18
1,32,66,12
1,33,74,18
1,35,90,16
1,33,87,208
1,33,70,16
1,30,84,2
1,30,31,10
1,35,89,6
1,33,73,2
1,32,69,2
1,30,64,2
1,28,90,0
1,35,120,386
1,28,99,8
1,32,112,8
1,33,106,22
1,33,81,16
1,28,89,8
1,28,59,16
1,33,87,12
1,33,76,16
1,28,92,2
1,28,69,16
1,35,102,12
1,35,83,16
1,30,90,12
1,35,104,18
1,35,100,2
1,32,90,192
1,33,109,16
1,33,72,12
1,28,86,6
1,35,96,16
1,35,45,8
1,32,84,2
1,30,62,2
1,28,111,8
1,35,106,0
1,28,86,16
1,35,102,12
1,28,77,16
1,35,96,2
1,28,83,2
1,35,94,8
1,28,87,16
1,35,97,8
1,28,82,8
1,35,94,8
1,28,81,2
1,35,94,8
1,28,83,2
1,30,82,8
1,32,67,384
1,33,109,14
1,28,97,2
1,33,89,16
1,28,86,6
1,28,86,200
1,28,73,22
1,35,106,12
1,28,94,12
1,35,78,6
1,33,89,208
1,33,79,20
1,28,100,10
1,33,79,8
1,33,75,16
1,28,76,12
1,28,102,194
1,28,84,14
1,28,66,16
1,32,50,12
1,33,74,18
1,35,77,16
1,35,51,16
1,35,70,12
1,35,66,194
1,28,86,8
1,28,61,18
1,35,89,12
1,35,71,10
1,33,82,12
1,33,63,198
1,33,84,12
1,28,77,22
1,28,68,18
1,32,66,12
1,33,74,18
1,35,90,16
1,33,87,208
1,33,70,16
1,30,84,2
1,30,31,10
1,35,89,6
1,33,73,2
1,32,69,2
1,30,64,2
1,28,100,0
1,35,120,8
1,28,99,8
1,32,112,8
1,33,106,2
1,33,81,16
1,28,89,8
1,28,59,16
1,33,87,12
1,33,76,16
1,28,92,2
1,28,69,16
1,35,102,12
1,35,83,16
1,30,90,12
1,35,104,18
1,35,100,2
1,32,90,192
1,33,109,16
1,33,72,12
1,28,86,6
1,35,96,16
1,35,45,8
1,32,84,2
1,30,62,2
1,28,100,6
1,35,120,8
1,28,99,8
1,32,112,8
1,33,106,22
1,33,81,16
1,28,89,8
1,28,59,16
1,33,87,12
1,33,76,16
1,28,92,2
1,28,69,16
1,35,102,12
1,35,83,16
1,30,90,12
1,35,104,18
1,35,100,2
1,32,90,192
1,33,109,16
1,33,72,12
1,28,86,6
1,35,96,16
1,35,45,8
1,32,84,2
1,30,62,2
1,28,111,8
1,35,106,0
1,28,86,16
1,35,102,12
1,28,77,16
1,35,96,2
1,28,83,2
1,35,94,8
1,28,87,16
1,35,97,8
1,28,82,8
1,35,94,8
1,28,81,2
1,35,94,8
1,28,83,2
1,30,82,8
1,32,67,384
1,33,109,14
1,28,97,2
1,33,89,16
1,28,86,6
1,28,86,200
1,28,73,22
1,35,106,12
1,28,94,12
1,35,78,6
1,33,89,208
1,33,79,20
1,28,79,12
1,33,79,16
1,33,75,16
1,28,76,12
1,28,102,194
1,28,84,14
1,28,66,16
1,32,50,12
1,33,74,18
1,35,77,16
1,35,51,16
1,35,70,10
1,35,66,200
1,28,86,8
1,28,61,18
1,35,89,12
1,35,71,10
1,33,82,12
1,33,63,198
1,33,84,12
1,28,77,22
1,28,68,18
1,32,66,12
1,33,74,18
1,35,90,16
1,33,87,208
1,33,70,16
1,30,84,2
1,30,31,10
1,35,89,6
1,33,73,2
1,32,69,2
1,30,64,2
1,28,100,0
1,35,120,8
1,28,99,8
1,32,112,8
1,33,106,22
1,33,81,16
1,28,89,8
1,28,59,16
1,33,87,12
1,33,76,16
1,28,92,2
1,28,69,16
1,35,102,12
1,35,83,16
1,30,90,12
1,35,104,18
1,35,56,2
1,32,90,190
1,33,109,16
1,33,72,12
1,28,86,6
1,35,96,16
1,35,45,8
1,32,84,2
1,30,62,2
1,28,100,6
1,35,120,8
1,28,99,8
1,32,112,8
1,33,106,22
1,33,81,16
1,28,89,8
1,28,59,16
1,33,87,12
1,33,76,16
1,28,92,2
1,28,69,16
1,35,102,12
1,35,83,16
1,30,90,12
1,35,104,18
1,35,56,2
1,32,90,190
1,33,109,16
1,33,72,12
1,28,86,6
1,35,96,16
1,35,45,8
1,32,84,2
1,30,62,2
1,28,100,6
1,35,120,8
1,28,99,8
1,32,112,8
1,33,106,22
1,33,81,16
1,28,89,8
1,28,59,16
1,33,87,12
1,33,76,16
1,28,92,2
1,28,69,16
1,35,102,12
1,35,83,16
1,30,90,12
1,35,104,18
1,35,56,2
1,32,90,190
1,33,109,16
1,33,72,12
1,28,86,6
1,35,96,16
1,35,45,8
1,32,84,2
1,30,62,2
1,28,86,8
1,35,107,386
1,28,83,8
1,32,87,8
1,33,78,22
1,33,56,16
1,28,60,8
1,28,37,16
1,33,55,12
1,33,45,16
1,28,54,2
1,28,37,16
1,35,54,12
1,35,42,16
1,30,44,12
1,35,46,18
1,35,23,2
1,32,37,190
1,33,40,16
1,33,24,12
1,28,29,6
1,35,29,16
1,35,12,8
1,32,22,2
1,30,16,2
1,28,21,8
1,35,25,386
1,28,18,8
1,32,17,8
1,33,14,22
1,33,9,22
1,28,10,8
1,28,5,20
1,33,8,20
1,33,6,16
1,28,7,4
1,28,4,16
1,33,1,22
2,61,41,74248
2,64,60,0
2,61,53,0
2,64,67,0
2,64,83,1004
2,68,107,0
2,64,64,76
2,66,90,0
2,69,92,0
2,64,63,24
2,68,84,14
2,66,54,8
2,64,67,72
2,68,80,10
2,64,68,70
2,68,72,6
2,66,72,3260
2,69,73,0
2,73,57,0
2,68,52,16
2,71,68,0
2,64,69,4
2,64,26,16
2,68,50,4
2,71,50,0
2,64,62,20
2,68,74,0
2,71,86,0
2,64,69,22
2,68,69,0
2,71,81,0
2,64,54,200
2,68,49,0
2,71,60,0
2,73,54,28
2,66,62,4
2,69,74,0
2,64,63,20
2,68,69,0
2,70,39,0
2,71,75,0
2,64,51,18
2,71,64,0
2,68,52,4
2,64,65,20
2,68,62,0
2,71,76,0
2,63,46,28
2,66,54,0
2,71,65,0
2,64,67,28
2,68,60,0
2,71,68,0
2,69,77,16
2,64,78,4
2,73,78,2
2,64,63,16
2,71,62,0
2,64,97,2
2,68,55,0
2,71,97,0
2,63,80,1538
2,66,66,0
2,63,57,10
2,66,60,0
2,63,64,18
2,66,76,0
2,63,84,18
2,66,93,0
2,64,70,8
2,61,80,4
2,59,86,0
2,63,74,0
2,64,48,16
2,68,34,0
2,71,66,0
2,76,40,68
2,61,93,22352
2,64,84,0
2,63,107,768
2,66,99,0
2,64,64,6
2,68,72,0
2,66,96,6
2,69,92,0
2,64,63,6
2,68,82,0
2,64,60,6
2,68,80,0
2,64,66,6
2,68,93,0
2,61,58,198
2,64,63,0
2,66,72,200
2,69,73,0
2,73,57,0
2,68,52,16
2,71,68,0
2,64,69,4
2,64,26,16
2,68,50,4
2,71,50,0
2,64,62,20
2,68,74,0
2,71,86,0
2,64,69,22
2,68,69,0
2,71,81,0
2,64,54,200
2,68,49,0
2,71,60,0
2,73,54,28
2,66,62,4
2,69,74,0
2,64,63,20
2,68,69,0
2,71,75,0
2,64,51,18
2,71,64,0
2,68,52,4
2,64,65,20
2,68,62,0
2,71,76,0
2,63,46,28
2,66,54,0
2,71,65,0
2,64,67,28
2,68,60,0
2,71,68,0
2,69,77,16
2,64,78,4
2,73,78,2
2,64,63,16
2,71,62,0
2,64,97,2
2,68,55,0
2,71,97,0
2,63,80,1538
2,66,66,0
2,63,57,10
2,66,60,0
2,63,64,18
2,66,76,0
2,63,84,18
2,66,93,0
2,64,70,8
2,61,80,4
2,61,69,38390
2,64,74,0
2,59,56,822
2,64,66,0
2,68,90,0
2,66,78,6
2,69,70,0
2,64,66,6
2,68,49,0
2,64,58,6
2,68,51,0
2,64,70,6
2,68,64,0
2,61,57,198
2,64,66,0
2,66,72,200
2,69,73,0
2,73,57,0
2,68,52,16
2,71,68,0
2,64,69,4
2,64,26,16
2,68,50,4
2,71,50,0
2,64,62,20
2,68,74,0
2,71,86,0
2,64,69,22
2,68,69,0
2,71,81,0
2,64,54,200
2,68,49,0
2,71,60,0
2,73,54,28
2,66,62,4
2,69,74,0
2,64,63,20
2,68,69,0
2,71,75,0
2,64,51,18
2,71,64,0
2,68,52,4
2,64,65,20
2,68,62,0
2,71,76,0
2,63,46,28
2,66,54,0
2,71,65,0
2,64,67,28
2,68,60,0
2,71,68,0
2,69,77,16
2,64,78,4
2,73,78,2
2,68,100,14
2,64,97,6
2,71,97,0
2,63,80,1538
2,66,66,0
2,63,57,10
2,66,60,0
2,63,64,18
2,66,76,0
2,63,84,18
2,66,93,0
2,64,70,8
2,61,80,4
3,54,97,49686
3,52,105,6
3,54,107,412
3,52,95,22
3,47,99,968
3,54,109,16
3,52,101,70
3,56,109,6160
3,59,105,16
3,59,108,24
3,59,103,20
3,59,107,10
3,59,101,10
3,56,113,198
3,59,106,2
3,59,107,18
3,56,94,384
3,56,107,380
3,59,115,14
3,59,101,10
3,59,106,16
3,59,102,16
3,56,107,192
3,59,112,18
3,59,115,16
3,59,102,18
3,56,112,220
3,59,105,12
3,59,111,22
3,59,112,16
3,59,105,6
3,56,117,2
3,59,102,16
3,59,100,16
3,59,112,16
3,59,109,16
3,56,110,396
3,59,104,20
3,59,107,16
3,59,99,16
3,59,102,16
3,59,99,16
3,59,95,16
3,59,89,12
3,61,107,0
3,59,98,8
3,59,107,22
3,59,101,396
3,57,110,182
3,57,115,10
3,57,107,22
3,55,116,2
3,57,91,0
3,57,99,0
3,57,99,18
3,61,117,12
3,59,107,8
3,59,115,600
3,59,116,16
3,56,112,16
3,59,111,12
3,59,84,12
3,61,110,0
3,59,102,0
3,59,103,16
3,59,112,16
3,57,107,594
3,57,100,16
3,57,110,12
3,54,110,0
3,52,95,8
3,54,112,588
3,57,112,12
3,57,112,22
3,59,116,22
3,59,111,16
3,59,115,12
3,59,105,16
3,59,100,16
3,59,101,16
3,59,105,16
3,59,110,18
3,59,107,16
3,59,107,16
3,59,107,16
3,59,102,16
3,61,115,12
3,59,96,196
3,59,98,16
3,59,99,16
3,59,110,16
3,59,103,18
3,59,102,16
3,59,117,12
3,59,109,22
3,59,115,16
3,59,102,16
3,61,115,16
3,59,103,8
3,59,108,16
3,59,104,16
3,59,112,16
3,56,109,378
3,59,102,12
3,59,104,16
3,59,103,16
3,54,106,1932
3,54,97,16
3,54,103,16
3,54,103,16
3,52,100,208
3,56,102,128
3,54,103,8
3,47,93,202
3,47,101,16
3,47,94,16
3,56,113,12
3,56,117,16
3,52,113,8
3,56,109,9618
3,59,105,16
3,59,108,24
3,59,103,20
3,59,107,10
3,59,101,10
3,56,113,198
3,59,106,2
3,59,107,18
3,56,94,384
3,56,107,380
3,59,115,14
3,59,101,10
3,59,106,16
3,59,102,16
3,56,107,192
3,59,112,18
3,59,115,16
3,59,102,18
3,56,112,220
3,59,105,12
3,59,111,22
3,59,112,16
3,59,105,6
3,56,117,2
3,59,102,16
3,59,100,16
3,59,112,16
3,59,109,16
3,56,110,396
3,59,104,20
3,59,107,16
3,59,99,16
3,59,102,16
3,59,99,16
3,59,95,16
3,59,89,12
3,61,107,0
3,59,98,8
3,59,107,22
3,59,101,396
3,57,110,182
3,57,115,10
3,57,107,22
3,55,116,2
3,57,91,0
3,57,99,0
3,57,99,18
3,61,117,12
3,59,107,8
3,59,115,600
3,59,116,16
3,56,112,16
3,59,111,12
3,59,84,12
3,61,110,0
3,59,102,0
3,59,103,16
3,59,112,16
3,57,107,594
3,57,100,16
3,57,110,12
3,54,110,0
3,52,95,8
3,54,112,588
3,57,112,12
3,57,112,22
3,59,116,22
3,59,111,16
3,59,115,12
3,59,105,16
3,59,100,16
3,59,101,16
3,59,105,16
3,59,110,18
3,59,107,16
3,59,107,16
3,59,107,16
3,59,102,16
3,61,115,12
3,59,96,196
3,59,98,16
3,59,99,16
3,59,110,16
3,59,103,18
3,59,102,16
3,59,117,12
3,59,109,22
3,59,115,16
3,59,102,16
3,61,115,16
3,59,103,8
3,59,108,16
3,59,104,16
3,59,112,16
3,56,109,378
3,59,102,12
3,59,104,16
3,59,103,16
3,54,106,1932
3,54,97,16
3,54,103,16
3,54,103,16
3,52,100,208
3,56,102,128
3,54,103,8
3,47,93,202
3,47,101,16
3,47,94,16
3,56,113,12
3,56,117,16
3,52,113,8
3,56,109,21906
3,59,105,16
3,59,108,24
3,59,103,20
3,59,107,10
3,59,101,10
3,56,113,198
3,59,106,2
3,59,107,18
3,56,94,384
3,56,107,380
3,59,115,14
3,59,101,10
3,59,106,16
3,59,102,16
3,56,107,192
3,59,112,18
3,59,115,16
3,59,102,18
3,56,112,220
3,59,105,12
3,59,111,22
3,59,112,16
3,59,105,6
3,56,117,2
3,59,102,16
3,59,100,16
3,59,112,16
3,59,109,16
3,56,110,396
3,59,104,20
3,59,107,16
3,59,99,16
3,59,102,16
3,59,99,16
3,59,95,16
3,59,89,12
3,61,107,0
3,59,98,8
3,59,107,22
3,59,101,396
3,57,110,182
3,57,115,10
3,57,107,22
3,56,116,2
3,57,91,0
3,57,99,0
3,57,99,18
3,61,117,12
3,59,107,8
3,59,115,600
3,59,116,16
3,56,112,16
3,59,111,12
3,59,84,12
3,61,110,0
3,59,102,0
3,59,103,16
3,59,112,16
3,57,107,594
3,57,100,16
3,57,110,12
3,54,110,0
3,52,95,8
3,54,112,588
3,57,112,12
3,57,112,22
3,59,116,22
3,59,111,16
3,59,115,12
3,59,105,16
3,59,100,16
3,59,101,16
3,59,105,16
3,59,110,18
3,59,107,16
3,59,107,16
3,59,107,16
3,59,102,16
3,61,115,12
3,59,96,196
3,59,98,16
3,59,99,16
3,59,110,16
3,59,103,18
3,59,102,16
3,59,117,12
3,59,109,22
3,59,115,16
3,59,102,16
3,61,115,16
3,59,103,8
3,59,108,16
3,59,104,16
3,59,112,16
3,56,109,378
3,59,102,12
3,59,104,16
3,59,103,16
3,54,106,1932
3,54,97,16
3,54,103,16
3,54,103,16
3,52,100,208
3,56,102,128
3,54,103,8
3,47,93,202
3,47,101,16
3,47,94,16
3,56,113,12
3,56,117,16
3,52,113,8
4,71,100,446
4,76,100,0
4,80,100,0
4,75,100,6
4,78,100,0
4,69,100,102
4,73,100,0
4,76,100,0
4,78,100,2166
4,80,100,6
