track,note,velocity,time
1,68,73,19894
1,70,115,9
1,68,0,18
1,70,0,76
1,64,104,99
1,65,94,10
1,64,0,17
1,65,0,70
1,63,115,96
1,63,0,83
1,61,115,104
1,61,0,89
1,63,115,96
1,63,0,103
1,61,115,87
1,61,0,72
1,63,115,115
1,63,0,77
1,61,104,114
1,61,0,70
1,63,104,114
1,65,86,97
1,63,0,19
1,65,0,85
1,63,104,0
1,63,0,70
1,65,115,28
1,65,0,125
1,58,94,1117
1,58,0,30
1,58,104,76
1,58,0,66
1,61,104,27
1,61,0,98
1,63,104,99
1,63,0,99
1,61,115,89
1,61,0,80
1,63,104,83
1,65,86,32
1,63,0,6
1,64,68,0
1,64,0,23
1,63,104,66
1,65,0,11
1,63,0,142
1,61,104,42
1,61,0,39
1,61,104,57
1,61,0,74
1,63,104,20
1,63,0,186
1,61,104,0
1,61,0,35
1,61,104,58
1,61,0,969
1,70,115,566
1,70,0,104
1,64,104,82
1,65,86,16
1,64,0,23
1,65,0,53
1,63,104,112
1,63,0,78
1,61,94,112
1,61,0,76
1,63,104,119
1,63,0,76
1,61,104,110
1,61,0,70
1,63,104,122
1,63,0,100
1,61,115,93
1,61,0,64
1,63,104,105
1,65,79,24
1,63,0,33
1,63,94,49
1,65,0,34
1,61,104,62
1,63,0,18
1,61,0,55
1,58,104,21
1,58,0,511
1,58,94,750
1,58,0,28
1,58,115,76
1,58,0,69
1,61,104,28
1,61,0,90
1,63,115,98
1,63,0,98
1,61,104,104
1,61,0,70
1,65,104,108
1,65,0,145
1,68,115,57
1,68,0,88
1,63,115,98
1,63,0,22
1,65,104,12
1,63,94,62
1,65,0,27
1,63,0,136
1,61,94,27
1,61,0,32
1,61,115,67
1,61,0,647
1,68,104,323
1,68,0,84
1,70,115,92
1,70,0,80
1,70,115,109
1,70,0,86
1,73,94,89
1,75,94,20
1,73,0,26
1,75,0,87
1,73,104,90
1,73,0,88
1,70,115,109
1,70,0,74
1,68,104,122
1,68,0,62
1,75,104,122
1,75,0,99
1,73,115,94
1,73,0,112
1,70,115,83
1,70,0,90
1,68,115,92
1,68,0,74
1,70,104,22
1,70,0,91
1,68,115,104
1,70,94,71
1,68,0,15
1,68,115,89
1,70,0,10
1,68,0,68
1,65,104,10
1,65,0,74
1,61,115,620
1,61,0,81
1,63,115,99
1,63,0,157
1,61,104,35
1,61,0,79
1,63,104,128
1,63,0,84
1,65,79,5
1,65,0,99
1,68,115,5
1,68,0,96
1,70,115,76
1,70,0,87
1,65,73,125
1,63,115,61
1,65,0,22
1,61,115,44
1,63,0,26
1,61,0,38
1,58,104,8
1,58,0,274
1,61,115,101
1,63,104,36
1,61,0,25
1,63,0,125
1,61,104,0
1,61,0,900
1,70,104,173
1,70,0,82
1,70,94,111
1,70,0,54
1,70,115,132
1,70,0,84
1,75,104,100
1,73,86,3
1,73,0,20
1,75,0,76
1,73,104,89
1,73,0,82
1,70,115,108
1,70,0,78
1,68,115,120
1,68,0,77
1,75,115,114
1,75,0,99
1,73,104,100
1,73,0,90
1,70,115,95
1,70,0,168
1,68,115,22
1,68,0,65
1,70,115,36
1,70,0,87
1,68,115,106
1,70,94,72
1,68,0,9
1,68,115,97
1,70,0,10
1,68,0,69
1,65,94,10
1,65,0,96
1,58,104,591
1,58,0,114
1,61,104,81
1,61,0,110
1,63,115,78
1,63,0,66
1,65,104,113
1,65,0,96
1,68,104,110
1,68,0,79
1,70,115,117
1,70,0,79
1,68,104,113
1,70,115,79
1,68,0,17
1,70,0,59
1,73,115,16
1,73,0,314
1,76,115,72
1,77,115,17
1,76,0,8
1,77,0,166
1,75,115,14
1,75,0,290
1,73,127,11
1,73,0,85
1,70,127,16
1,70,0,155
1,70,115,1080
1,70,0,72
1,65,115,119
1,65,0,95
1,63,104,96
1,63,0,185
1,61,104,5
1,61,0,771
1,63,127,95
1,63,0,66
1,61,115,111
1,63,104,36
1,61,0,25
1,63,0,344
1,61,127,0
1,61,0,310
1,58,104,76
1,58,0,74
1,56,104,12
1,56,0,79
1,53,104,23
1,53,0,120
1,58,115,435
1,58,0,56
1,58,104,53
1,58,0,100
1,61,104,106
1,61,0,93
1,63,104,104
1,63,0,93
1,65,115,85
1,65,0,82
1,68,104,116
1,68,0,67
1,65,94,101
1,65,0,98
1,63,104,23
1,61,104,89
1,63,0,12
1,61,0,64
1,58,115,24
1,58,0,593
1,70,127,1046
1,70,0,67
1,63,115,109
1,65,104,13
1,63,0,28
1,65,0,90
1,63,115,66
1,63,0,189
1,61,115,7
1,61,0,720
1,63,115,140
1,63,0,89
1,63,127,93
1,63,0,286
1,63,115,92
1,65,68,34
1,63,0,16
1,63,115,71
1,65,0,24
1,63,0,52
1,61,115,0
1,63,63,27
1,63,0,1
1,61,0,58
1,58,104,0
1,58,0,82
1,70,127,713
1,70,0,97
1,64,115,85
1,65,104,7
1,64,0,28
1,65,0,66
1,63,127,105
1,63,0,92
1,61,127,104
1,61,0,94
1,68,104,91
1,68,0,106
1,70,127,90
1,70,0,89
1,63,115,102
1,63,0,183
1,61,115,6
1,61,0,1011
1,70,127,721
1,70,0,99
1,64,79,100
1,65,115,6
1,64,0,24
1,65,0,65
1,63,115,96
1,63,0,100
1,61,115,89
1,61,0,95
1,63,94,81
1,63,0,164
1,61,115,38
1,61,0,87
1,63,115,99
1,63,0,95
1,61,104,103
1,61,0,68
1,63,115,118
1,63,0,67
1,61,115,10
1,61,0,79
1,58,115,7
1,58,0,130
1,58,94,1191
1,58,0,52
1,58,115,55
1,58,0,110
1,61,127,94
1,61,0,91
1,63,115,103
1,63,0,91
1,65,115,94
1,65,0,106
1,68,115,95
1,68,0,83
1,63,104,95
1,65,104,20
1,63,0,23
1,63,104,31
1,65,0,26
1,63,0,172
1,61,104,3
1,61,0,41
1,61,127,57
1,61,0,1149
1,70,127,236
1,70,0,99
1,64,115,90
1,65,73,16
1,64,0,30
1,65,0,51
1,63,115,100
1,63,0,100
1,61,115,97
1,61,0,93
1,63,115,98
1,63,0,95
1,61,115,108
1,61,0,77
1,63,127,103
1,63,0,95
1,61,115,99
1,61,0,73
1,61,115,108
1,63,115,88
1,61,0,21
1,63,0,41
1,65,104,28
1,65,0,50
1,68,115,35
1,68,0,419
1,70,115,0
1,70,0,139
1,58,127,714
1,58,0,40
1,58,104,64
1,58,0,38
1,58,109,44
1,58,0,70
1,61,106,149
1,61,0,99
1,63,127,83
1,63,0,94
1,64,115,86
1,65,115,13
1,64,0,22
1,65,0,85
1,68,115,84
1,68,0,79
1,63,115,103
1,65,104,4
1,63,0,28
1,63,115,48
1,65,0,23
1,63,0,164
1,61,104,10
1,61,0,38
1,61,127,69
1,61,0,779
1,70,127,204
1,70,0,60
1,70,115,108
1,70,0,79
1,70,127,111
1,70,0,84
1,73,115,97
1,75,94,23
1,73,0,32
1,73,41,16
1,73,0,9
1,75,0,76
1,73,115,49
1,73,0,102
1,70,104,97
1,70,0,102
1,68,104,89
1,68,0,99
1,75,104,89
1,73,115,0
1,73,0,37
1,73,51,13
1,73,0,13
1,75,0,95
1,73,104,34
1,73,0,101
1,70,127,89
1,70,0,74
1,70,127,125
1,70,0,90
1,68,127,97
1,68,0,104
1,70,115,0
1,68,115,87
1,70,0,30
1,68,0,47
1,65,115,19
1,65,0,114
1,65,115,638
1,65,0,116
1,65,115,82
1,63,63,15
1,63,0,6
1,63,115,169
1,65,0,3
1,63,0,149
1,61,115,61
1,63,104,8
1,61,0,44
1,65,94,134
1,63,0,18
1,63,115,64
1,65,0,30
1,63,0,63
1,61,127,19
1,61,0,484
1,68,94,66
1,70,115,26
1,68,0,19
1,70,0,279
1,63,104,86
1,61,94,58
1,63,0,35
1,61,0,50
1,58,104,32
1,58,0,764
1,70,127,288
1,70,0,129
1,70,115,76
1,70,0,100
1,73,115,75
1,75,104,19
1,73,0,34
1,75,0,80
1,73,127,78
1,73,0,100
1,70,115,74
1,70,0,51
1,70,127,71
1,70,0,132
1,70,104,61
1,70,0,45
1,75,104,44
1,73,104,0
1,73,0,41
1,75,0,104
1,73,115,54
1,73,0,148
1,70,115,38
1,70,0,38
1,70,115,59
1,70,0,78
1,68,104,12
1,68,0,78
1,70,115,30
1,70,0,84
1,68,104,89
1,70,115,59
1,68,0,17
1,68,115,128
1,70,0,10
1,68,0,69
1,65,115,6
1,65,0,108
1,58,104,558
1,58,0,48
1,58,86,38
1,58,0,72
1,61,104,28
1,61,0,140
1,63,115,62
1,63,0,91
1,63,104,84
1,65,86,43
1,63,0,8
1,65,0,130
1,68,115,42
1,68,0,139
1,70,115,1
1,70,0,103
1,68,127,90
1,70,127,74
1,68,0,7
1,70,0,66
1,73,115,25
1,73,0,325
1,80,115,79
1,80,0,97
1,73,104,69
1,75,94,47
1,73,0,24
1,73,104,59
1,75,0,31
1,73,0,42
1,70,115,36
1,70,0,492
1,70,115,927
1,70,0,72
1,65,115,119
1,65,0,95
1,63,104,96
1,63,0,185
1,61,104,5
1,61,0,771
1,63,127,95
1,63,0,66
1,61,115,111
1,63,104,36
1,61,0,25
1,63,0,344
1,61,127,0
1,61,0,310
1,58,104,76
1,58,0,74
1,56,104,12
1,56,0,79
1,53,104,23
1,53,0,120
1,58,115,435
1,58,0,56
1,58,104,53
1,58,0,100
1,61,104,106
1,61,0,93
1,63,104,104
1,63,0,93
1,65,115,85
1,65,0,82
1,68,104,116
1,68,0,67
1,65,94,101
1,65,0,98
1,63,104,23
1,61,104,89
1,63,0,12
1,61,0,64
1,58,115,24
1,58,0,593
1,70,127,1046
1,70,0,67
1,63,115,109
1,65,104,13
1,63,0,28
1,65,0,90
1,63,115,66
1,63,0,189
1,61,115,7
1,61,0,720
1,63,115,140
1,63,0,89
1,63,127,93
1,63,0,286
1,63,115,92
1,65,68,34
1,63,0,16
1,63,115,71
1,65,0,24
1,63,0,52
1,61,115,0
1,63,63,27
1,63,0,1
1,61,0,58
1,58,104,0
1,58,0,82
1,70,127,703
1,70,0,83
1,70,127,109
1,70,0,78
1,70,127,116
1,70,0,104
1,70,127,99
1,70,0,100
1,68,115,69
1,70,115,44
1,68,0,15
1,70,0,63
1,70,115,91
1,70,0,94
1,68,104,105
1,68,0,91
1,70,127,0
1,70,0,64
1,73,104,29
1,73,0,320
1,68,104,46
1,70,104,53
1,68,0,2
1,68,104,86
1,70,0,36
1,68,0,36
1,65,115,11
1,65,0,112
1,70,127,1015
1,70,0,104
1,70,115,74
1,70,0,113
1,68,127,93
1,68,0,88
1,70,115,19
1,68,104,75
1,70,0,71
1,68,0,49
1,65,94,0
1,63,104,71
1,65,0,15
1,63,0,106
1,61,127,0
1,61,0,431
1,63,127,134
1,63,0,91
1,63,127,108
1,63,0,287
1,63,94,71
1,65,79,34
1,63,0,28
1,63,86,47
1,65,0,30
1,61,115,44
1,63,0,41
1,61,0,47
1,58,104,4
1,58,0,151
1,58,104,635
1,58,0,101
1,58,104,102
1,58,0,101
1,61,115,94
1,61,0,104
1,63,115,90
1,63,0,82
1,63,104,86
1,63,0,26
1,65,104,0
1,64,63,0
1,64,0,16
1,65,0,89
1,68,104,92
1,68,0,96
1,64,104,90
1,65,73,10
1,64,0,44
1,63,94,90
1,65,0,47
1,61,115,50
1,63,0,25
1,61,0,60
1,58,94,22
1,58,0,107
1,70,127,1462
1,70,0,74
1,63,104,115
1,63,0,95
1,63,104,92
1,63,0,208
1,61,127,0
1,61,0,674
1,63,127,184
1,63,0,92
1,61,115,107
1,63,115,21
1,61,0,31
1,63,0,305
1,61,127,30
1,61,0,314
1,58,115,74
1,58,0,86
1,56,115,0
1,56,0,76
1,53,127,20
1,53,0,125
1,70,127,349
1,70,0,81
1,63,115,93
1,65,86,18
1,62,63,0
1,62,0,9
1,63,0,10
1,65,0,112
1,63,127,61
1,63,0,123
1,61,115,86
1,61,0,104
1,68,127,77
1,68,0,120
1,70,115,68
1,70,0,102
1,61,94,90
1,63,127,11
1,61,0,25
1,61,115,139
1,63,0,2
1,61,0,1076
1,70,127,12557
1,70,0,91
1,70,115,96
1,70,0,84
1,73,104,100
1,75,104,23
1,73,0,30
1,75,0,150
1,73,115,20
1,73,0,80
1,75,104,85
1,76,115,7
1,75,0,32
1,76,0,68
1,75,115,105
1,75,0,80
1,73,115,119
1,75,86,40
1,73,0,21
1,75,0,133
1,73,127,3
1,73,0,87
1,70,127,94
1,70,0,97
1,70,115,90
1,70,0,99
1,68,115,100
1,68,0,74
1,70,115,31
1,70,0,90
1,68,115,0
1,68,0,72
1,65,115,25
1,65,0,174
1,68,86,699
1,70,127,4
1,68,0,21
1,70,0,63
1,63,115,103
1,63,0,82
1,63,115,104
1,63,0,71
1,63,115,114
1,63,0,79
1,61,115,17
1,61,0,656
1,70,127,113
1,70,0,113
1,68,104,77
1,70,115,21
1,68,0,25
1,70,0,143
1,68,115,5
1,68,0,84
1,65,115,9
1,65,0,120
1,70,127,1015
1,70,0,129
1,70,115,76
1,70,0,100
1,73,115,75
1,75,104,19
1,73,0,34
1,75,0,80
1,73,127,78
1,73,0,100
1,70,115,74
1,70,0,51
1,70,127,71
1,70,0,132
1,70,104,61
1,70,0,45
1,75,104,44
1,73,104,0
1,73,0,41
1,75,0,104
1,73,115,54
1,73,0,148
1,70,115,38
1,70,0,38
1,70,115,59
1,70,0,78
1,68,104,12
1,68,0,78
1,70,115,30
1,70,0,84
1,68,104,89
1,70,115,59
1,68,0,17
1,68,115,128
1,70,0,10
1,68,0,69
1,65,115,6
1,65,0,108
1,58,104,558
1,58,0,48
1,58,86,38
1,58,0,72
1,61,104,28
1,61,0,140
1,63,115,62
1,63,0,91
1,63,104,84
1,65,86,43
1,63,0,8
1,65,0,130
1,68,115,42
1,68,0,139
1,70,115,1
1,70,0,103
1,68,127,90
1,70,127,74
1,68,0,7
1,70,0,66
1,73,115,25
1,73,0,325
1,80,115,79
1,80,0,97
1,73,104,69
1,75,94,47
1,73,0,24
1,73,104,59
1,75,0,31
1,73,0,42
1,70,115,36
1,70,0,492
1,63,104,26933
1,63,0,68
1,61,104,119
1,63,86,45
1,61,0,17
1,63,0,322
1,61,94,22
1,61,0,877
1,63,104,76
1,63,0,74
1,61,104,103
1,63,86,30
1,61,0,23
1,63,0,246
1,63,104,69
1,65,79,45
1,63,0,13
1,63,115,72
1,65,0,24
1,63,0,80
1,61,104,0
1,61,0,52
1,58,94,21
1,58,0,156
1,63,104,527
1,63,0,74
1,61,115,107
1,63,94,47
1,61,0,20
1,63,0,250
1,63,115,85
1,61,104,36
1,63,0,18
1,61,0,759
1,63,104,1681
1,63,0,64
1,61,127,130
1,61,0,171
1,61,104,138
1,61,0,739
1,63,115,0
1,63,0,73
1,61,104,101
1,63,104,32
1,61,0,22
1,63,0,248
1,63,104,69
1,61,73,6
1,61,0,32
1,65,86,7
1,63,0,20
1,63,104,53
1,65,0,27
1,61,104,48
1,63,0,39
1,61,0,54
1,58,104,11
1,58,0,504
1,63,115,189
1,63,0,74
1,61,115,124
1,63,86,31
1,61,0,10
1,63,0,320
1,61,104,23
1,61,0,622
1,58,79,45
1,58,0,64
1,61,68,13
1,61,0,90
1,63,104,25
1,63,0,75
1,65,104,22
1,65,0,79
1,70,115,1075
1,70,0,110
1,63,104,275
1,63,0,69
1,61,104,123
1,63,104,38
1,61,0,14
1,63,0,313
1,61,115,22
1,61,0,811
1,63,104,143
1,63,0,66
1,61,104,129
1,63,115,49
1,61,0,6
1,63,0,207
1,63,115,120
1,61,104,66
1,63,0,6
1,61,0,94
1,58,94,0
1,58,0,463
1,63,115,170
1,63,0,93
1,61,115,106
1,63,94,52
1,61,0,5
1,63,0,221
1,63,104,75
1,65,73,39
1,63,0,23
1,63,94,45
1,65,0,29
1,61,115,44
1,63,0,17
1,61,0,74
1,58,104,27
1,58,0,74
1,61,104,18
1,61,0,82
1,63,104,21
1,63,0,67
1,65,115,25
1,65,0,71
1,68,115,140
1,68,0,170
1,70,94,22
1,70,0,55
1,68,104,56
1,68,0,86
