track,note,velocity,time
0,37,120,1536
0,37,70,14
0,37,70,4
0,37,70,26
0,45,82,27
0,47,82,23
0,59,116,11
0,66,63,0
0,62,55,0
0,69,71,0
0,73,63,0
0,35,90,0
0,42,52,0
0,35,78,0
0,38,75,11
0,44,83,0
0,47,60,7
0,42,25,84
0,47,54,3
0,30,87,37
0,42,52,0
0,35,73,0
0,42,29,59
0,38,66,35
0,44,74,0
0,47,67,2
0,47,68,17
0,35,93,73
0,35,68,0
0,42,46,0
0,47,68,187
0,38,64,0
0,44,81,0
0,47,46,7
0,35,79,2
0,42,21,0
0,30,86,43
0,35,70,0
0,42,47,0
0,47,70,1
0,30,77,55
0,38,71,0
0,82,32,0
0,42,29,0
0,47,58,4
0,45,78,45
0,33,86,0
0,44,67,0
0,38,86,0
0,82,63,0
0,42,16,91
0,35,92,25
0,42,52,0
0,35,70,0
0,47,64,7
0,42,15,83
0,38,81,29
0,44,83,0
0,47,66,9
0,42,29,7
0,38,46,0
0,47,67,1
0,30,91,51
0,35,71,0
0,42,52,0
0,42,32,91
0,44,74,91
0,38,65,0
0,47,71,5
0,47,60,5
0,35,86,49
0,42,46,0
0,35,64,0
0,42,18,91
0,47,63,91
0,38,62,0
0,44,81,0
0,47,57,7
0,35,76,2
0,42,25,0
0,47,55,7
0,30,83,0
0,42,47,0
0,35,71,0
0,47,66,9
0,30,77,4
0,38,70,0
0,42,29,0
0,45,75,51
0,33,82,4
0,46,67,0
0,38,87,0
0,35,88,21
0,35,78,0
0,42,52,0
0,47,63,1
0,42,15,91
0,38,75,33
0,44,83,0
0,47,59,5
0,42,29,86
0,47,63,5
0,73,103,57
0,30,91,0
0,42,52,0
0,35,73,0
0,73,78,79
0,42,32,0
0,73,87,79
0,38,66,0
0,44,74,0
0,47,61,5
0,73,77,9
0,47,52,3
0,35,89,53
0,42,46,0
0,35,68,0
0,42,18,91
0,38,64,91
0,44,81,0
0,47,63,1
0,35,80,35
0,42,25,0
0,47,38,3
0,30,89,43
0,35,70,0
0,42,47,0
0,47,56,5
0,38,71,85
0,42,29,0
0,82,32,0
0,47,63,3
0,45,72,35
0,33,87,0
0,38,86,0
0,82,63,0
0,46,67,0
0,35,89,15
0,42,52,0
0,35,70,0
0,47,64,5
0,42,15,85
0,44,83,33
0,38,81,0
0,47,53,9
0,42,29,82
0,38,46,0
0,47,54,9
0,30,91,55
0,42,52,0
0,35,71,0
0,42,32,91
0,38,65,91
0,44,74,0
0,47,60,5
0,47,52,5
0,35,83,55
0,35,64,0
0,42,46,0
0,42,18,91
0,47,58,91
0,44,81,0
0,38,62,0
0,47,54,7
0,35,82,0
0,42,25,0
0,47,57,11
0,30,83,6
0,35,71,0
0,42,47,0
0,47,60,7
0,30,84,6
0,38,70,0
0,42,29,0
0,45,78,53
0,33,79,8
0,38,87,0
0,46,67,0
0,47,63,19
0,57,70,0
0,59,86,0
0,54,52,0
0,61,75,0
0,62,74,0
0,35,90,0
0,42,52,0
0,35,78,0
0,42,15,85
0,54,125,33
0,47,125,0
0,38,75,0
0,44,83,0
0,47,44,7
0,42,29,13
0,47,64,3
0,64,123,51
0,30,87,2
0,35,73,0
0,42,52,0
0,42,32,15
0,38,66,61
0,44,74,0
0,47,68,1
0,47,58,9
0,35,93,23
0,35,68,0
0,42,46,0
0,42,18,91
0,44,81,91
0,38,64,0
0,47,63,2
0,47,46,13
0,35,79,6
0,42,25,0
0,47,62,7
0,30,86,8
0,35,70,0
0,42,47,0
0,47,62,5
0,30,77,6
0,42,29,0
0,82,32,0
0,38,71,0
0,45,78,39
0,33,86,6
0,38,86,0
0,46,67,0
0,82,63,0
0,72,119,1
0,35,92,1
0,42,52,0
0,35,70,0
0,47,62,2
0,42,15,91
0,38,81,43
0,44,83,0
0,64,120,3
0,47,54,0
0,38,46,88
0,42,29,0
0,47,52,3
0,30,91,51
0,35,71,0
0,42,52,0
0,42,32,91
0,47,71,5
0,38,65,0
0,44,74,0
0,47,64,7
0,35,86,37
0,35,64,0
0,42,46,0
0,42,18,35
0,38,62,35
0,44,81,0
0,47,67,3
0,35,76,5
0,42,25,0
0,47,55,2
0,30,83,7
0,35,71,0
0,42,47,0
0,47,44,5
0,30,77,5
0,38,70,0
0,42,29,0
0,47,62,1
0,33,82,17
0,38,87,0
0,46,67,0
0,45,88,4
0,62,96,53
0,59,118,1
0,35,88,1
0,35,78,0
0,42,52,0
0,47,62,9
0,42,15,82
0,38,75,41
0,46,46,0
0,47,62,5
0,42,29,86
0,47,58,5
0,57,114,7
0,73,93,23
0,30,91,0
0,35,73,0
0,42,52,0
0,73,68,79
0,42,32,0
0,73,77,79
0,46,49,0
0,38,66,0
0,47,63,4
0,47,58,9
0,73,56,0
0,42,13,0
0,52,120,23
0,35,89,3
0,42,46,0
0,35,68,0
0,42,18,27
0,38,64,91
0,46,49,0
0,47,70,2
0,50,106,23
0,47,65,7
0,35,80,2
0,42,25,0
0,47,114,17
0,30,89,14
0,42,47,0
0,35,70,0
0,47,66,7
0,38,71,0
0,42,29,0
0,82,32,0
0,33,87,35
0,46,67,0
0,82,63,0
0,38,86,0
0,45,78,2
0,59,114,13
0,35,89,15
0,35,70,0
0,42,52,0
0,47,64,1
0,42,15,63
0,38,81,51
0,46,46,0
0,47,58,3
0,42,29,88
0,38,46,0
0,47,63,3
0,30,91,11
0,35,71,0
0,42,52,0
0,57,97,75
0,42,32,5
0,54,106,53
0,47,68,37
0,38,65,0
0,46,46,0
0,47,58,7
0,42,16,2
0,35,83,67
0,42,46,0
0,35,64,0
0,59,104,2
0,42,18,91
0,47,77,89
0,46,56,2
0,38,62,0
0,35,82,3
0,47,58,2
0,30,83,39
0,42,47,0
0,35,71,0
0,59,118,0
0,47,70,9
0,30,84,0
0,42,29,0
0,65,53,0
0,38,70,0
0,39,85,0
0,45,81,5
0,33,79,10
0,65,59,0
0,39,91,0
0,38,87,0
0,46,67,0
0,59,98,0
0,62,125,0
0,54,53,5
0,59,54,0
0,66,66,0
0,61,68,0
0,35,90,0
0,35,78,0
0,59,83,0
0,42,52,0
0,42,15,91
0,62,125,0
0,44,83,18
0,38,85,0
0,47,47,7
0,38,65,47
0,42,29,0
0,47,41,3
0,30,87,23
0,42,52,0
0,35,73,0
0,42,32,91
0,44,74,91
0,38,76,0
0,47,54,2
0,47,55,17
0,35,93,73
0,35,68,0
0,42,46,0
0,42,18,91
0,47,55,91
0,44,81,0
0,38,74,0
0,57,87,0
0,47,33,5
0,35,79,2
0,42,25,0
0,57,92,0
0,30,86,6
0,35,70,0
0,42,47,0
0,47,57,3
0,59,85,0
0,30,77,12
0,82,32,0
0,42,29,0
0,38,81,0
0,47,45,4
0,59,102,0
0,45,65,8
0,33,86,0
0,82,63,0
0,38,96,0
0,46,67,0
0,59,112,0
0,35,92,25
0,35,70,0
0,42,52,0
0,62,120,0
0,47,51,6
0,42,15,83
0,38,91,9
0,44,83,0
0,47,53,9
0,42,29,7
0,38,56,0
0,47,54,1
0,30,91,51
0,42,52,0
0,35,71,0
0,42,32,91
0,44,74,91
0,38,75,0
0,47,58,5
0,47,47,5
0,35,86,49
0,42,46,0
0,35,64,0
0,42,18,91
0,47,50,91
0,38,72,0
0,44,81,0
0,47,44,7
0,35,76,2
0,42,25,0
0,38,62,0
0,47,27,7
0,30,83,0
0,42,47,0
0,35,71,0
0,57,110,0
0,47,53,9
0,30,77,4
0,38,80,0
0,42,29,0
0,59,98,0
0,45,62,6
0,33,82,4
0,46,67,0
0,38,97,0
0,62,125,0
0,35,88,21
0,42,52,0
0,35,78,0
0,47,50,1
0,42,15,91
0,62,125,0
0,46,46,22
0,38,85,0
0,47,46,5
0,42,29,61
0,38,62,0
0,47,50,5
0,30,91,57
0,35,73,0
0,42,52,0
0,42,32,85
0,46,49,91
0,38,76,0
0,47,48,5
0,42,13,9
0,38,49,0
0,47,39,4
0,35,89,53
0,35,68,0
0,42,46,0
0,42,18,91
0,59,68,0
0,38,74,16
0,46,49,0
0,47,50,2
0,64,125,0
0,35,80,22
0,42,25,0
0,47,38,3
0,30,89,43
0,42,47,0
0,35,70,0
0,47,15,5
0,64,118,0
0,42,29,10
0,38,81,0
0,82,32,0
0,47,50,4
0,45,59,5
0,33,87,0
0,82,63,0
0,46,67,0
0,38,96,0
0,64,102,0
0,35,89,15
0,42,52,0
0,35,70,0
0,62,115,0
0,47,51,5
0,42,15,85
0,46,46,33
0,38,91,0
0,47,40,9
0,38,56,82
0,42,29,0
0,47,41,9
0,30,91,55
0,35,71,0
0,42,52,0
0,42,32,91
0,64,91,59
0,38,75,32
0,46,46,0
0,47,47,5
0,62,81,13
0,42,16,9
0,47,39,5
0,59,95,17
0,35,83,35
0,35,64,0
0,42,46,0
0,42,18,91
0,54,105,0
0,47,45,14
0,46,56,0
0,38,72,0
0,54,105,0
0,47,50,7
0,35,82,0
0,57,120,0
0,47,17,0
0,30,83,6
0,35,71,0
0,42,47,0
0,47,47,7
0,30,84,6
0,38,80,0
0,42,29,0
0,45,65,49
0,59,112,0
0,33,79,4
0,38,97,0
0,46,67,0
0,63,125,0
0,59,83,36
0,57,81,0
0,63,92,0
0,47,50,7
0,59,58,0
0,54,38,0
0,66,48,0
0,35,90,0
0,35,78,0
0,42,52,0
0,42,15,29
0,63,118,0
0,38,85,33
0,44,83,0
0,47,31,7
0,38,65,13
0,42,29,0
0,47,51,4
0,30,87,61
0,35,73,0
0,42,52,0
0,42,32,91
0,38,76,91
0,44,74,0
0,47,55,1
0,47,45,9
0,64,91,5
0,35,93,3
0,35,68,0
0,42,46,0
0,54,85,0
0,42,18,6
0,54,85,0
0,38,74,4
0,44,81,0
0,47,50,2
0,54,91,0
0,47,50,13
0,35,79,6
0,42,25,0
0,47,24,7
0,57,102,0
0,30,86,0
0,35,70,0
0,42,47,0
0,47,49,5
0,30,77,6
0,38,81,0
0,82,32,0
0,42,29,0
0,59,120,0
0,45,65,17
0,59,92,0
0,33,86,0
0,38,96,0
0,46,67,0
0,82,63,0
0,63,114,0
0,35,92,4
0,42,52,0
0,35,70,0
0,47,49,2
0,42,15,91
0,44,83,43
0,38,91,0
0,47,41,3
0,42,29,88
0,38,56,0
0,47,39,3
0,30,91,51
0,35,71,0
0,42,52,0
0,42,32,91
0,47,58,91
0,38,75,0
0,44,74,0
0,47,51,7
0,35,86,57
0,35,64,0
0,42,46,0
0,42,18,91
0,38,72,91
0,44,81,0
0,47,54,4
0,35,76,5
0,42,25,0
0,38,62,0
0,47,42,2
0,57,110,0
0,30,83,4
0,42,47,0
0,35,71,0
0,47,17,5
0,30,77,63
0,42,29,0
0,38,80,0
0,47,49,1
0,59,110,0
0,33,82,24
0,38,97,0
0,46,67,0
0,45,75,4
0,62,115,0
0,63,92,62
0,59,86,0
0,57,81,0
0,35,88,1
0,42,52,0
0,35,78,0
0,47,49,9
0,42,15,15
0,62,102,0
0,38,85,24
0,46,46,0
0,47,49,5
0,42,29,51
0,38,62,0
0,47,45,5
0,30,91,33
0,35,73,0
0,42,52,0
0,42,32,91
0,38,76,91
0,46,49,0
0,47,50,4
0,47,45,9
0,38,49,0
0,42,13,0
0,35,89,59
0,35,68,0
0,42,46,0
0,42,18,91
0,46,49,91
0,38,74,0
0,47,57,2
0,63,94,0
0,47,52,9
0,35,80,2
0,42,25,0
0,64,115,0
0,30,89,20
0,35,70,0
0,42,47,0
0,64,110,0
0,47,53,7
0,38,81,0
0,82,32,0
0,42,29,0
0,33,87,9
0,38,96,0
0,82,63,0
0,46,67,0
0,45,65,2
0,64,87,0
0,54,59,7
0,57,63,5
0,59,72,0
0,62,104,0
0,35,89,15
0,42,52,0
0,35,70,0
0,47,51,5
0,42,15,15
0,38,91,1
0,46,46,0
0,47,45,3
0,42,29,11
0,38,56,0
0,47,50,3
0,30,91,51
0,35,71,0
0,42,52,0
0,42,32,91
0,47,55,91
0,38,75,0
0,46,46,0
0,47,45,7
0,42,16,2
0,35,83,67
0,39,91,0
0,65,38,0
0,42,46,0
0,35,64,0
0,39,74,91
0,65,34,0
0,42,18,0
0,59,84,0
0,47,64,85
0,59,102,0
0,46,56,0
0,38,72,0
0,35,82,3
0,47,45,2
0,30,83,7
0,35,71,0
0,42,47,0
0,62,112,0
0,47,42,9
0,30,84,0
0,38,80,0
0,42,29,0
0,39,77,0
0,65,30,0
0,47,68,23
0,35,79,10
0,38,97,0
0,46,67,0
0,64,118,0
0,64,115,0
0,56,80,13
0,64,79,2
0,62,58,6
0,64,88,14
0,62,58,6
0,64,65,0
0,59,63,0
0,56,63,0
0,40,90,0
0,42,52,0
0,59,85,0
0,35,86,0
0,64,112,0
0,42,15,7
0,44,83,81
0,38,85,0
0,52,47,7
0,38,65,11
0,42,29,0
0,52,41,7
0,64,120,0
0,35,92,37
0,35,81,0
0,42,52,0
0,42,32,53
0,62,102,67
0,62,102,0
0,44,74,24
0,38,76,0
0,52,54,2
0,52,55,17
0,40,97,73
0,42,46,0
0,35,76,0
0,52,84,17
0,59,89,12
0,42,18,62
0,59,100,0
0,52,55,3
0,38,74,0
0,44,81,0
0,59,102,0
0,52,33,7
0,40,82,2
0,42,25,0
0,62,120,0
0,35,82,5
0,35,78,0
0,42,47,0
0,52,57,3
0,62,112,0
0,35,75,7
0,82,32,0
0,38,81,0
0,42,29,0
0,52,45,4
0,50,65,31
0,38,93,0
0,82,63,0
0,38,96,0
0,46,67,0
0,40,85,31
0,35,78,0
0,42,52,0
0,59,123,0
0,59,95,4
0,52,51,2
0,42,15,83
0,44,83,15
0,38,91,0
0,52,53,9
0,42,29,7
0,38,56,0
0,52,54,1
0,35,77,51
0,35,79,0
0,42,52,0
0,42,32,53
0,44,74,91
0,38,75,0
0,52,58,5
0,52,47,5
0,40,87,43
0,42,46,0
0,35,72,0
0,42,18,43
0,59,96,0
0,52,50,28
0,44,81,0
0,38,72,0
0,59,98,0
0,52,44,7
0,40,75,2
0,38,62,0
0,42,25,0
0,62,115,0
0,52,27,7
0,35,75,0
0,42,47,0
0,35,79,0
0,52,53,9
0,38,80,4
0,42,29,0
0,62,110,0
0,47,62,22
0,38,92,4
0,46,67,0
0,38,97,0
0,62,120,0
0,40,90,7
0,35,86,0
0,42,52,0
0,52,50,2
0,42,15,43
0,64,115,0
0,38,85,4
0,46,46,0
0,52,46,5
0,42,29,13
0,38,62,0
0,52,50,5
0,35,77,43
0,42,52,0
0,35,81,0
0,42,32,43
0,38,76,43
0,46,49,0
0,52,48,5
0,42,13,11
0,38,49,0
0,52,39,4
0,40,82,43
0,42,46,0
0,35,76,0
0,42,18,43
0,59,112,0
0,38,74,2
0,46,49,0
0,52,50,2
0,40,72,43
0,42,25,0
0,52,38,3
0,62,108,0
0,35,75,8
0,35,78,0
0,42,47,0
0,47,65,5
0,38,81,43
0,42,29,0
0,82,32,0
0,62,104,0
0,47,46,8
0,38,87,0
0,82,63,0
0,38,96,0
0,46,67,0
0,40,92,13
0,42,52,0
0,35,78,0
0,59,112,0
0,52,51,4
0,42,15,43
0,46,46,33
0,38,91,0
0,52,40,9
0,38,56,43
0,42,29,0
0,52,41,7
0,59,95,31
0,35,82,12
0,35,79,0
0,42,52,0
0,42,32,43
0,38,75,43
0,46,46,0
0,52,47,5
0,42,16,27
0,52,39,5
0,62,100,41
0,40,85,2
0,42,46,0
0,35,72,0
0,42,18,43
0,59,108,0
0,52,45,2
0,46,56,0
0,38,72,0
0,52,50,7
0,40,82,0
0,68,102,1
0,52,17,5
0,35,79,6
0,35,79,0
0,42,47,0
0,62,100,0
0,52,47,7
0,42,29,6
0,38,80,0
0,50,65,1
0,62,104,0
0,38,89,3
0,38,97,0
0,46,67,0
0,62,120,0
0,52,50,2
0,40,88,0
0,35,86,0
0,42,52,0
0,42,15,23
0,64,106,0
0,44,83,6
0,38,85,0
0,52,31,7
0,38,65,13
0,42,29,0
0,52,51,4
0,35,79,61
0,35,81,0
0,42,52,0
0,42,32,91
