track,note,velocity,time
1,62,116,3315
1,62,0,32
1,69,116,16
1,69,0,32
1,65,116,16
1,65,0,32
1,69,116,16
1,69,0,32
1,65,116,16
1,65,0,32
1,67,116,16
1,67,0,32
1,62,116,16
1,62,0,32
1,67,116,16
1,67,0,64
1,65,116,32
1,65,0,32
1,62,116,16
1,62,0,32
1,65,116,16
1,65,0,32
1,60,116,16
1,60,0,32
1,65,116,16
1,65,0,32
1,60,116,16
1,60,0,32
1,65,116,16
1,65,0,64
1,57,116,32
1,57,0,32
1,65,116,16
1,65,0,48
1,64,116,0
1,64,0,32
1,57,116,16
1,57,0,80
1,69,116,688
1,69,0,32
1,69,116,16
1,69,0,32
1,69,116,16
1,69,0,32
1,69,116,16
1,69,0,32
1,67,116,16
1,67,0,32
1,67,116,16
1,67,0,32
1,67,116,16
1,67,0,32
1,67,116,16
1,67,0,32
1,67,116,16
1,67,0,32
1,69,116,16
1,69,0,64
1,69,116,80
1,69,0,32
1,57,116,16
1,57,0,32
1,57,116,16
1,57,0,32
1,57,116,928
1,57,0,32
1,69,116,16
1,69,0,32
1,72,116,16
1,72,0,32
1,72,116,16
1,72,0,32
1,69,116,16
1,69,0,32
1,72,116,16
1,72,0,32
1,69,116,16
1,69,0,80
1,70,116,112
1,70,0,32
1,69,116,16
1,69,0,32
1,67,116,16
1,67,0,80
1,60,116,16
1,60,0,80
1,65,116,688
1,65,0,32
1,67,116,16
1,67,0,32
1,62,116,16
1,62,0,32
1,65,116,16
1,65,0,64
1,65,116,128
1,65,0,32
1,65,116,16
1,65,0,32
1,67,116,16
1,67,0,32
1,62,116,16
1,62,0,32
1,67,116,16
1,67,0,32
1,62,116,16
1,62,0,64
1,62,116,32
1,62,0,80
1,67,116,1360
1,67,0,32
1,69,116,16
1,69,0,32
1,67,116,16
1,67,0,32
1,69,116,16
1,69,0,32
1,69,116,16
1,69,0,64
1,69,116,32
1,69,0,48
1,62,116,0
1,62,0,64
1,67,116,32
1,67,0,32
1,60,116,16
1,60,0,32
1,64,116,16
1,64,0,32
1,64,116,64
1,64,0,32
1,67,116,64
1,67,0,32
1,65,116,16
1,65,0,32
1,64,116,16
1,64,0,32
1,69,116,16
1,69,0,80
1,57,116,16
1,57,0,96
1,69,116,768
1,69,0,16
1,69,116,8
1,69,0,16
1,69,116,8
1,69,0,32
1,67,116,16
1,67,0,16
1,67,116,8
1,67,0,16
1,67,116,8
1,67,0,16
1,67,116,8
1,67,0,104
1,67,116,16
1,67,0,32
1,67,116,16
1,67,0,32
1,65,116,16
1,65,0,16
1,67,116,8
1,67,0,120
1,61,116,48
1,61,0,32
1,57,116,16
1,57,0,64
1,71,116,992
1,71,0,32
1,71,116,16
1,71,0,32
1,72,116,16
1,72,0,32
1,65,116,16
1,65,0,32
1,69,116,64
1,69,0,32
1,70,116,16
1,70,0,32
1,69,116,16
1,69,0,64
1,67,116,32
1,67,0,80
1,64,116,16
1,64,0,112
1,62,116,848
1,62,0,32
1,65,116,16
1,65,0,32
1,62,116,16
1,62,0,32
1,65,116,16
1,65,0,64
1,62,116,80
1,62,0,32
1,65,116,16
1,65,0,32
1,62,116,16
1,62,0,32
1,65,116,16
1,65,0,64
1,65,116,32
1,65,0,48
1,62,116,0
1,62,0,32
1,65,116,928
1,65,0,32
1,67,116,16
1,67,0,32
1,67,116,16
1,67,0,80
1,60,116,16
1,60,0,80
1,67,116,496
1,67,0,32
1,67,116,16
1,67,0,64
1,69,116,32
1,69,0,126
1,67,116,66
1,67,0,64
1,65,116,128
1,65,0,32
1,62,116,16
1,62,0,80
1,57,116,16
1,57,0,80
1,65,116,2704
1,65,0,32
1,70,116,16
1,70,0,32
1,67,116,16
1,67,0,32
1,65,116,64
1,65,0,32
1,65,116,16
1,65,0,64
1,62,116,32
1,62,0,64
1,69,116,368
1,69,0,32
1,57,116,16
1,57,0,64
1,69,116,80
1,69,0,32
1,57,116,16
1,57,0,32
1,57,116,16
1,57,0,80
1,69,116,592
1,69,0,32
1,69,116,16
1,69,0,32
1,69,116,16
1,69,0,32
1,69,116,16
1,69,0,32
1,69,116,16
1,69,0,32
1,69,116,16
1,69,0,32
1,69,116,16
1,69,0,32
1,67,116,16
1,67,0,32
1,65,116,16
1,65,0,32
1,64,116,16
1,64,0,32
1,62,116,16
1,62,0,32
1,67,116,16
1,67,0,32
1,64,116,16
1,64,0,32
1,64,116,64
1,64,0,32
1,61,116,16
1,61,0,64
1,64,116,32
1,64,0,64
1,69,116,848
1,69,0,32
1,69,116,16
1,69,0,32
1,72,116,16
1,72,0,32
1,72,116,16
1,72,0,64
1,72,116,32
1,72,0,32
1,70,116,16
1,70,0,80
1,69,116,16
1,69,0,64
1,67,116,32
1,67,0,80
1,69,116,160
1,69,0,32
1,67,116,16
1,67,0,32
1,65,116,16
1,65,0,32
1,62,116,16
1,62,0,48
1,64,116,0
1,64,0,64
1,65,116,464
1,65,0,16
1,65,116,8
1,65,0,16
1,65,116,8
1,65,0,32
1,65,116,16
1,65,0,32
1,65,116,16
1,65,0,16
1,65,116,8
1,65,0,16
1,62,116,8
1,62,0,32
1,65,116,16
1,65,0,64
1,62,116,80
1,62,0,32
1,65,116,16
1,65,0,32
1,65,116,16
1,65,0,80
1,65,116,16
1,65,0,48
1,62,116,0
1,62,0,32
1,65,116,1648
1,65,0,32
1,72,116,16
1,72,0,32
1,69,116,16
1,69,0,32
1,65,116,16
1,65,0,32
1,62,116,16
1,62,0,32
1,60,116,16
1,60,0,64
1,65,116,128
1,65,0,32
1,65,116,16
1,65,0,32
1,65,116,16
1,65,0,32
1,62,116,16
1,62,0,32
1,64,116,208
1,64,0,32
1,64,116,64
1,64,0,32
1,64,116,16
1,64,0,48
1,57,116,0
1,57,0,64
1,62,116,368
1,62,0,32
1,62,116,16
1,62,0,32
1,62,116,16
1,62,0,32
1,62,116,16
1,62,0,64
1,62,116,32
1,62,0,64
1,60,116,32
1,60,0,32
1,65,116,112
1,65,0,32
1,67,116,16
1,67,0,32
1,65,116,16
1,65,0,32
1,67,116,16
1,67,0,64
1,69,116,32
1,69,0,32
1,69,116,928
1,69,0,32
1,72,116,16
1,72,0,32
1,72,116,16
1,72,0,32
1,69,116,16
1,69,0,32
1,72,116,16
1,72,0,32
1,72,116,64
1,72,0,32
1,70,116,16
1,70,0,80
1,69,116,16
1,69,0,80
1,69,116,16
1,69,0,32
1,67,116,16
1,67,0,48
1,67,116,0
1,67,0,48
1,69,116,0
1,69,0,32
1,65,116,832
1,65,0,32
1,65,116,16
1,65,0,32
1,65,116,16
1,65,0,32
1,65,116,16
1,65,0,32
1,62,116,160
1,62,0,32
1,65,116,16
1,65,0,32
1,62,116,16
1,62,0,32
1,65,116,16
1,65,0,48
1,62,116,0
1,62,0,32
1,67,116,1024
1,67,0,32
1,67,116,16
1,67,0,32
1,69,116,16
1,69,0,32
1,64,116,16
1,64,0,64
1,67,116,608
1,67,0,32
1,67,116,16
1,67,0,32
1,69,116,16
1,69,0,96
1,67,116,48
1,67,0,112
1,67,116,32
1,67,0,64
1,65,116,32
1,65,0,48
1,62,116,0
1,62,0,80
1,67,121,1312
1,67,0,64
1,72,116,1472
1,72,0,32
1,67,116,16
1,67,0,32
1,69,116,16
1,69,0,32
1,67,116,16
1,67,0,32
1,65,116,16
1,65,0,32
1,69,116,16
1,69,0,112
1,69,116,32
1,69,0,64
1,69,116,32
1,69,0,32
1,67,116,16
1,67,0,32
1,65,116,16
1,65,0,32
1,69,116,16
1,69,0,80
1,67,116,16
1,67,0,32
1,67,116,16
1,67,0,32
1,69,116,16
1,69,0,80
1,61,116,16
1,61,0,64
1,69,116,752
1,69,0,32
1,69,116,16
1,69,0,32
1,69,116,16
1,69,0,32
1,69,116,16
1,69,0,16
1,69,116,8
1,69,0,16
1,69,116,8
1,69,0,64
1,67,116,32
1,67,0,64
1,67,116,32
1,67,0,32
1,67,116,16
1,67,0,16
1,65,116,8
1,65,0,16
1,65,116,8
1,65,0,42
1,65,116,22
1,65,0,42
1,65,116,22
1,65,0,42
1,64,116,70
1,64,0,48
1,57,116,0
1,57,0,64
1,65,116,752
1,65,0,32
1,69,116,16
1,69,0,32
1,72,116,16
1,72,0,32
1,72,116,16
1,72,0,32
1,72,116,16
1,72,0,80
1,70,116,160
1,70,0,32
1,70,116,16
1,70,0,32
1,69,116,16
1,69,0,32
1,67,116,64
1,67,0,32
1,67,116,16
1,67,0,32
1,67,116,112
1,67,0,32
1,67,116,16
1,67,0,32
1,62,116,64
1,62,0,48
1,64,116,0
1,64,0,32
1,65,116,496
1,65,0,32
1,65,116,16
1,65,0,64
1,65,116,32
1,65,0,64
1,70,116,32
1,70,0,32
1,62,116,16
1,62,0,80
1,65,116,64
1,65,0,32
1,65,116,16
1,65,0,80
1,65,116,16
1,65,0,48
1,62,116,0
1,62,0,32
1,67,116,976
1,67,0,32
1,67,116,16
1,67,0,32
1,67,116,16
1,67,0,32
1,62,116,16
1,62,0,24
1,64,116,0
1,64,0,48
1,67,116,552
1,67,0,80
1,67,116,16
1,67,0,32
1,69,116,16
1,69,0,96
1,67,116,48
1,67,0,112
1,69,116,32
1,69,0,64
1,69,116,32
1,69,0,32
1,62,116,16
1,62,0,80
1,58,100,880
1,58,0,32
1,55,100,16
1,55,0,64
1,55,100,32
1,55,0,32
1,69,116,12640
1,69,0,32
1,67,116,16
1,67,0,32
1,65,116,16
1,65,0,32
1,69,116,16
1,69,0,112
1,69,116,32
1,69,0,64
1,69,116,32
1,69,0,32
1,67,116,16
1,67,0,32
1,65,116,16
1,65,0,32
1,69,116,16
1,69,0,80
1,67,116,16
1,67,0,32
1,67,116,16
1,67,0,32
1,69,116,16
1,69,0,80
1,61,116,16
1,61,0,64
1,69,116,752
1,69,0,32
1,69,116,16
1,69,0,32
1,69,116,16
1,69,0,32
1,69,116,16
1,69,0,16
1,69,116,8
1,69,0,16
1,69,116,8
1,69,0,64
1,67,116,32
1,67,0,64
1,67,116,32
1,67,0,32
1,67,116,16
1,67,0,16
1,65,116,8
1,65,0,16
1,65,116,8
1,65,0,42
1,65,116,22
1,65,0,42
1,65,116,22
1,65,0,42
1,64,116,70
1,64,0,48
1,57,116,0
1,57,0,64
1,65,116,752
1,65,0,32
1,69,116,16
1,69,0,32
1,72,116,16
1,72,0,32
1,72,116,16
1,72,0,32
1,72,116,16
1,72,0,80
1,70,116,160
1,70,0,32
1,70,116,16
1,70,0,32
1,69,116,16
1,69,0,32
1,67,116,64
1,67,0,32
1,67,116,16
1,67,0,32
1,67,116,112
1,67,0,32
1,67,116,16
1,67,0,32
1,62,116,64
1,62,0,48
1,64,116,0
1,64,0,32
1,65,116,496
1,65,0,32
1,65,116,16
1,65,0,64
1,65,116,32
1,65,0,64
1,70,116,32
1,70,0,32
1,62,116,16
1,62,0,80
1,65,116,64
1,65,0,32
1,65,116,16
1,65,0,80
1,65,116,16
1,65,0,48
1,62,116,0
1,62,0,64
1,64,116,944
1,64,0,32
1,67,116,16
1,67,0,32
1,67,116,16
1,67,0,32
1,67,116,16
1,67,0,32
1,62,116,16
1,62,0,80
1,60,116,496
1,60,0,32
1,64,116,16
1,64,0,32
1,67,116,16
1,67,0,32
1,69,116,16
1,69,0,96
1,67,116,48
1,67,0,112
1,67,116,32
1,67,0,64
1,65,116,32
1,65,0,48
1,62,116,0
1,62,0,80
2,72,111,1132
2,72,0,32
2,69,111,16
2,69,0,32
2,72,111,16
2,72,0,32
2,69,111,16
2,69,0,32
2,72,111,16
2,72,0,32
2,74,111,16
2,74,0,112
2,67,111,464
2,67,0,32
2,69,111,16
2,69,0,32
2,74,111,16
2,74,0,272
2,69,111,16
2,69,0,32
2,77,111,16
2,77,0,32
2,74,111,16
2,74,0,144
2,74,111,48
2,74,0,16
2,77,111,8
2,77,0,16
2,81,111,8
2,81,0,42
2,84,111,22
2,84,0,42
2,81,111,22
2,81,0,42
2,77,111,22
2,77,0,126
2,76,111,66
2,76,0,32
2,77,111,16
2,77,0,32
2,76,111,16
2,76,0,32
2,74,111,16
2,74,0,238
2,65,111,0
2,71,111,0
2,71,0,48
2,65,0,0
2,67,111,0
2,73,111,0
2,73,0,254
2,67,0,0
2,81,111,984
2,73,111,96
2,81,0,16
2,81,111,32
2,81,0,64
2,82,111,32
2,82,0,32
2,81,111,16
2,81,0,80
2,73,0,0
2,73,111,16
2,81,111,0
2,81,0,32
2,73,0,0
2,72,95,1072
2,76,95,0
2,76,0,32
2,72,0,0
2,72,95,112
2,76,95,0
2,76,0,32
2,72,0,0
2,69,111,112
2,77,111,0
2,69,0,32
2,77,0,16
2,67,111,0
2,76,111,0
2,76,0,32
2,67,0,0
2,69,111,16
2,77,111,0
2,69,0,32
2,77,0,16
2,67,111,0
2,76,111,0
2,76,0,32
2,67,0,0
2,67,111,976
2,67,0,48
2,69,111,0
2,69,0,32
2,74,111,16
2,74,0,32
2,69,111,16
2,69,0,32
2,77,111,16
2,77,0,32
2,74,111,16
2,74,0,112
2,65,127,80
2,70,127,0
2,70,0,32
2,65,0,0
2,65,127,64
2,70,127,0
2,70,0,32
2,65,0,0
2,65,111,64
2,70,111,0
2,70,0,32
2,65,0,0
2,65,111,16
2,70,111,0
2,70,0,32
2,65,0,0
2,67,111,16
2,72,111,0
2,72,0,32
2,67,0,0
2,67,111,16
2,72,111,0
2,72,0,32
2,67,0,0
2,67,111,16
2,72,111,0
2,72,0,112
2,67,0,0
2,62,111,104
2,62,0,24
2,64,111,0
2,64,0,32
2,67,111,16
2,67,0,32
2,69,111,16
2,69,0,32
2,72,111,16
2,72,0,112
2,69,111,1184
2,69,0,32
2,73,111,16
2,81,111,48
2,81,0,32
2,82,111,16
2,73,0,48
2,82,0,16
2,73,111,32
2,81,111,0
2,81,0,80
2,73,0,0
2,71,111,16
2,79,111,0
2,79,0,80
2,71,0,0
2,69,111,16
2,77,111,0
2,77,0,174
2,69,0,0
2,86,111,834
2,86,0,32
2,85,111,16
2,85,0,32
2,81,111,16
2,81,0,32
2,76,111,16
2,76,0,32
2,74,111,16
2,74,0,32
2,73,111,16
2,73,0,32
2,69,111,16
2,69,0,32
2,67,111,16
2,67,0,32
2,64,111,16
2,64,0,64
2,72,111,80
2,69,111,0
2,77,111,0
2,77,0,16
2,69,0,0
2,72,0,0
2,72,111,8
2,69,111,0
2,77,111,0
2,77,0,16
2,69,0,0
2,72,0,0
2,72,111,8
2,69,111,0
2,77,111,0
2,77,0,190
2,69,0,0
2,72,0,0
2,72,111,770
2,76,111,0
2,76,0,32
2,72,0,0
2,72,111,112
2,76,111,0
2,76,0,32
2,72,0,0
2,69,111,112
2,77,111,0
2,69,0,32
2,77,0,16
2,67,111,0
2,76,111,0
2,76,0,32
2,67,0,0
2,69,111,16
2,77,111,0
2,69,0,32
2,77,0,16
2,67,111,0
2,76,111,0
2,76,0,32
2,67,0,0
2,77,111,1072
2,86,111,0
2,86,0,32
2,77,0,0
2,76,111,16
2,84,111,0
2,84,0,32
2,76,0,0
2,77,111,64
2,81,111,0
2,81,0,112
2,77,0,0
2,65,127,80
2,70,127,0
2,70,0,32
2,65,0,0
2,65,127,64
2,70,127,0
2,70,0,32
2,65,0,0
2,65,111,64
2,69,111,0
2,69,0,32
2,65,0,0
2,65,111,16
2,70,111,0
2,70,0,32
2,65,0,0
2,67,111,16
2,72,111,0
2,72,0,32
2,67,0,0
2,67,111,16
2,72,111,0
2,72,0,32
2,67,0,0
2,67,111,16
2,72,111,0
2,72,0,112
2,67,0,0
2,70,111,272
2,74,111,0
2,74,0,32
2,70,0,0
2,74,111,64
2,77,111,0
2,77,0,32
2,74,0,0
2,65,111,64
2,70,111,0
2,70,0,32
2,65,0,0
2,65,111,16
2,70,111,0
2,70,0,32
2,65,0,0
2,67,111,16
2,72,111,0
2,72,0,32
2,67,0,0
2,67,111,16
2,72,111,0
2,72,0,32
2,67,0,0
2,67,111,16
2,72,111,0
2,72,0,112
2,67,0,0
