track,note,velocity,time
0,42,55,2615
0,42,0,10
0,42,40,182
0,42,0,10
0,42,42,182
0,42,0,10
0,38,72,162
0,38,0,10
0,38,103,11
0,38,0,10
0,57,85,165
0,62,85,0
0,65,85,0
0,57,65,12
0,50,102,5
0,35,107,0
0,42,74,0
0,51,59,0
0,53,67,0
0,38,109,2
0,53,0,8
0,51,0,0
0,42,0,0
0,35,0,0
0,69,96,81
0,42,54,5
0,42,0,10
0,65,96,18
0,57,0,14
0,62,96,23
0,38,100,31
0,42,65,0
0,42,0,10
0,38,0,0
0,38,0,16
0,69,0,64
0,69,102,1
0,65,0,3
0,65,102,2
0,35,75,0
0,42,49,0
0,38,105,2
0,62,0,1
0,62,102,1
0,42,0,6
0,35,0,0
0,38,0,28
0,69,0,52
0,57,65,1
0,50,0,3
0,65,0,0
0,50,102,2
0,35,107,0
0,42,72,0
0,62,0,2
0,38,109,0
0,42,0,8
0,35,0,0
0,57,0,80
0,69,102,1
0,65,102,5
0,42,47,0
0,62,102,4
0,42,0,6
0,38,100,86
0,42,67,0
0,42,0,10
0,38,0,0
0,38,0,28
0,69,0,52
0,69,105,1
0,65,0,3
0,38,105,2
0,65,105,0
0,35,77,0
0,42,44,0
0,62,0,2
0,62,105,2
0,42,0,6
0,35,0,0
0,38,0,26
0,69,0,28
0,65,0,5
0,62,0,4
0,57,65,18
0,50,0,3
0,50,102,2
0,35,107,0
0,42,74,0
0,38,111,2
0,42,0,8
0,35,0,0
0,69,96,81
0,42,47,5
0,42,0,10
0,65,96,18
0,57,0,14
0,62,96,23
0,38,100,31
0,42,70,0
0,42,0,10
0,38,0,0
0,38,0,24
0,69,0,56
0,69,102,1
0,65,0,3
0,65,102,2
0,42,40,0
0,38,96,2
0,62,0,1
0,62,102,1
0,42,0,6
0,38,0,36
0,69,0,44
0,57,65,1
0,50,0,3
0,65,0,0
0,50,102,2
0,35,97,0
0,42,74,0
0,55,68,1
0,60,94,0
0,62,0,1
0,36,111,0
0,55,54,0
0,60,106,0
0,42,0,8
0,35,0,0
0,55,0,68
0,60,0,0
0,55,0,1
0,60,0,0
0,57,0,11
0,69,102,1
0,36,0,4
0,65,102,1
0,46,45,0
0,33,96,1
0,60,68,0
0,60,54,1
0,60,0,1
0,60,0,1
0,62,102,0
0,46,0,6
0,33,0,86
0,38,100,0
0,42,74,0
0,36,105,2
0,60,63,0
0,55,63,0
0,60,89,0
0,55,45,1
0,60,97,0
0,60,0,1
0,42,0,6
0,38,0,0
0,60,0,78
0,55,0,0
0,55,0,1
0,60,0,0
0,69,0,1
0,69,105,1
0,65,0,3
0,65,105,2
0,35,76,0
0,46,48,0
0,60,68,1
0,62,0,1
0,60,54,0
0,60,0,1
0,60,0,1
0,62,105,0
0,46,0,6
0,35,0,0
0,36,0,15
0,69,0,39
0,65,0,5
0,62,0,4
0,57,65,18
0,50,0,3
0,50,102,2
0,35,107,0
0,42,74,0
0,51,53,0
0,53,71,0
0,60,63,2
0,55,78,1
0,60,104,0
0,60,0,1
0,38,109,0
0,55,74,0
0,60,126,0
0,53,0,6
0,42,0,0
0,51,0,0
0,35,0,0
0,69,96,81
0,42,45,5
0,55,65,0
0,60,95,0
0,42,0,6
0,65,96,18
0,57,0,14
0,62,96,4
0,38,100,31
0,42,55,0
0,42,0,6
0,38,0,0
0,38,0,18
0,69,0,62
0,69,102,1
0,65,0,3
0,65,102,2
0,35,95,0
0,42,47,0
0,62,0,3
0,38,102,0
0,62,102,1
0,42,0,6
0,35,0,0
0,38,0,27
0,69,0,53
0,57,65,1
0,50,0,3
0,65,0,0
0,50,102,2
0,35,107,0
0,42,62,0
0,62,0,2
0,38,109,2
0,42,0,6
0,35,0,0
0,57,0,80
0,69,102,1
0,65,102,5
0,42,45,0
0,62,102,4
0,42,0,6
0,55,0,1
0,60,0,0
0,38,100,0
0,42,66,0
0,55,0,1
0,60,0,0
0,38,0,9
0,42,0,0
0,38,0,22
0,69,0,58
0,69,105,1
0,65,0,3
0,65,105,0
0,42,47,0
0,60,0,1
0,55,0,0
0,62,0,1
0,38,96,0
0,62,105,2
0,42,0,6
0,38,0,27
0,69,0,27
0,65,0,5
0,62,0,4
0,57,65,18
0,50,0,3
0,50,102,2
0,35,107,0
0,42,74,0
0,38,111,4
0,42,0,6
0,35,0,0
0,69,96,81
0,42,47,5
0,42,0,10
0,65,96,18
0,57,0,14
0,62,96,23
0,38,100,31
0,42,66,0
0,42,0,10
0,38,0,0
0,38,0,21
0,69,0,59
0,69,102,1
0,65,0,3
0,65,102,2
0,35,102,0
0,42,54,0
0,62,0,3
0,38,96,0
0,62,102,1
0,42,0,6
0,35,0,0
0,38,0,18
0,69,0,62
0,57,65,1
0,50,0,3
0,65,0,0
0,50,102,2
0,35,107,0
0,42,65,0
0,62,0,2
0,38,109,2
0,42,0,6
0,35,0,0
0,57,0,80
0,69,102,1
0,38,0,5
0,65,102,0
0,46,52,0
0,33,90,1
0,55,94,1
0,55,106,1
0,62,102,1
0,46,0,6
0,33,0,73
0,36,102,13
0,38,100,0
0,42,65,0
0,55,90,0
0,42,0,7
0,38,0,0
0,69,0,80
0,69,105,1
0,65,0,3
0,65,105,2
0,46,51,0
0,62,0,2
0,55,0,1
0,55,0,1
0,62,97,0
0,62,105,0
0,62,112,0
0,46,0,5
0,36,0,36
0,69,0,18
0,65,0,5
0,62,0,4
0,57,65,18
0,50,0,3
0,50,102,2
0,35,103,0
0,42,66,0
0,51,44,0
0,53,60,0
0,38,111,2
0,55,0,2
0,62,94,0
0,51,0,5
0,42,0,0
0,35,0,0
0,53,0,0
0,69,96,28
0,42,47,5
0,42,0,10
0,65,96,18
0,57,0,14
0,62,96,23
0,38,100,31
0,42,61,0
0,42,0,10
0,38,0,0
0,38,0,30
0,69,0,50
0,69,102,1
0,65,0,3
0,65,102,2
0,35,81,0
0,42,47,0
0,62,0,3
0,38,105,1
0,62,102,0
0,35,0,6
0,42,0,0
0,38,0,25
0,69,0,55
0,57,65,1
0,65,0,3
0,50,0,0
0,50,102,2
0,35,107,0
0,42,65,0
0,62,0,2
0,62,0,2
0,62,0,1
0,38,111,1
0,35,0,4
0,42,0,0
0,57,0,80
0,69,102,1
0,57,81,4
0,57,80,1
0,65,102,0
0,42,50,0
0,62,102,4
0,62,0,1
0,42,0,5
0,57,0,84
0,57,0,1
0,57,75,1
0,65,94,0
0,38,100,0
0,42,62,0
0,65,106,1
0,42,0,9
0,38,0,0
0,38,0,15
0,69,0,65
0,69,105,1
0,65,0,3
0,57,0,1
0,38,96,0
0,65,105,1
0,35,93,0
0,42,50,0
0,65,90,1
0,62,0,1
0,62,84,1
0,62,87,1
0,62,105,0
0,35,0,6
0,42,0,0
0,65,0,2
0,65,0,1
0,38,0,22
0,69,0,29
0,65,0,5
0,62,0,4
0,57,65,18
0,50,0,3
0,50,102,2
0,35,107,0
0,42,65,0
0,38,111,1
0,62,79,0
0,42,0,6
0,35,0,0
0,65,0,3
0,69,96,78
0,42,47,5
0,42,0,10
0,65,96,18
0,57,0,14
0,62,96,23
0,38,100,31
0,42,67,0
0,42,0,10
0,38,0,0
0,62,0,1
0,62,0,1
0,38,0,19
0,69,0,59
0,69,102,1
0,65,0,3
0,38,102,2
0,65,102,0
0,35,100,0
0,42,49,0
0,62,0,3
0,62,102,1
0,42,0,6
0,35,0,0
0,62,0,2
0,62,71,57
0,62,61,1
0,65,87,12
0,65,92,1
0,69,0,4
0,57,65,1
0,69,94,2
0,50,0,1
0,65,0,0
0,69,106,0
0,38,0,2
0,50,102,0
0,35,106,0
0,42,67,0
0,36,102,1
0,62,0,1
0,42,0,8
0,35,0,0
0,62,0,54
0,62,0,1
0,62,64,5
0,65,82,13
0,65,0,3
0,65,0,1
0,57,0,3
0,69,102,1
0,69,90,3
0,36,0,1
0,33,94,1
0,65,102,0
0,46,56,0
0,69,0,1
0,69,0,1
0,62,102,2
0,46,0,6
0,72,94,31
0,72,106,1
0,62,0,23
0,65,0,22
0,33,0,3
0,36,102,6
0,38,100,0
0,42,59,0
0,69,0,2
0,42,0,8
0,38,0,0
0,72,0,13
0,72,0,1
0,72,90,18
0,69,0,48
0,69,105,1
0,69,89,2
0,65,0,1
0,69,97,0
0,65,105,2
0,46,56,0
0,62,0,2
0,62,105,2
0,46,0,6
0,72,0,14
0,36,0,10
0,69,0,30
0,65,0,5
0,62,0,4
0,57,65,18
0,65,91,2
0,50,0,1
0,65,101,0
0,69,85,0
0,36,106,2
0,50,102,0
0,35,107,0
0,42,65,0
0,51,54,0
0,53,62,0
0,53,0,10
0,35,0,0
0,51,0,0
0,42,0,0
0,69,0,10
0,69,0,1
0,69,96,63
0,65,87,0
0,42,47,2
0,42,0,10
0,69,0,11
0,65,96,7
0,57,0,14
0,62,96,23
0,38,100,31
0,42,66,0
0,42,0,10
0,38,0,0
0,36,0,25
0,69,0,39
0,69,102,1
0,65,0,3
0,65,102,2
0,35,100,0
0,42,58,0
0,62,0,3
0,38,105,0
0,62,102,1
0,65,0,4
0,65,0,1
0,35,0,1
0,42,0,0
0,38,0,36
0,69,0,44
0,57,65,1
0,64,91,2
0,50,0,1
0,65,0,0
0,64,101,0
0,50,102,2
0,35,107,0
0,42,68,0
0,62,0,2
0,38,105,1
0,65,0,6
0,42,0,1
0,35,0,0
0,57,0,80
0,69,102,1
0,64,87,0
0,65,102,2
0,42,61,0
0,62,102,4
0,42,0,1
0,38,100,86
0,42,68,0
0,42,0,1
0,38,0,0
0,38,0,20
0,69,0,60
0,69,105,1
0,65,0,3
0,38,102,2
0,65,105,0
0,42,48,0
0,62,0,2
0,62,105,2
0,62,94,1
0,62,106,1
0,42,0,2
0,64,0,1
0,64,0,1
0,38,0,22
0,38,68,14
0,38,0,10
0,69,0,6
0,65,0,5
0,62,0,4
0,57,65,18
0,50,0,3
0,50,102,2
0,35,107,0
0,38,95,0
0,42,67,0
0,38,109,1
0,62,90,0
0,42,0,4
0,38,0,0
0,35,0,0
0,64,0,2
0,69,96,79
0,38,100,5
0,42,49,0
0,42,0,10
0,38,0,0
0,65,96,18
0,57,0,14
0,62,96,23
0,38,76,31
0,44,65,0
0,44,0,10
0,38,0,0
0,38,0,15
0,38,100,23
0,38,0,10
0,69,0,32
0,69,102,1
0,65,0,3
0,38,105,2
0,65,102,0
0,41,97,0
0,62,0,3
0,62,102,1
0,41,0,6
0,62,0,8
0,62,0,1
0,69,0,71
0,57,65,1
0,38,0,2
0,50,0,1
0,65,0,0
0,36,100,1
0,50,102,1
0,35,107,0
0,38,89,0
0,44,70,0
0,62,0,2
0,35,0,8
0,44,0,0
0,38,0,0
0,62,0,9
0,57,0,71
0,69,102,1
0,36,0,3
0,33,96,1
0,65,102,1
0,45,94,0
0,62,102,4
0,45,0,6
0,45,84,38
0,45,0,10
0,33,0,36
0,36,105,2
0,41,97,0
0,44,79,0
0,44,0,10
0,41,0,0
0,69,0,16
0,69,105,1
0,65,0,3
0,46,55,2
0,62,97,1
0,62,0,1
0,57,97,3
0,36,0,4
0,46,0,1
0,50,92,1
0,65,0,66
0,62,0,0
0,57,0,0
0,57,85,2
0,62,85,0
0,65,85,0
0,69,0,11
0,65,95,1
0,50,0,3
0,62,0,1
0,35,107,1
0,42,74,0
0,51,59,0
0,38,109,1
0,62,105,0
0,57,0,3
0,57,105,1
0,50,0,4
0,51,0,1
0,42,0,0
0,35,0,0
0,50,100,1
0,65,0,79
0,65,87,1
0,62,0,4
0,42,61,1
0,62,97,1
0,57,0,3
0,57,97,1
0,50,0,4
0,42,0,1
0,50,92,1
0,65,0,79
0,65,85,1
0,62,0,4
0,65,0,1
0,38,100,0
0,42,74,0
0,62,95,1
0,57,0,3
0,62,0,1
0,57,95,0
0,50,0,4
0,57,0,1
0,42,0,0
0,38,0,0
0,50,90,1
0,50,0,4
0,38,0,7
0,65,87,69
0,35,98,5
0,42,44,0
0,62,97,1
0,38,104,1
0,57,97,3
0,42,0,5
0,35,0,0
0,50,92,1
0,38,0,17
0,65,0,62
0,65,85,1
0,62,0,4
0,65,0,1
0,35,107,0
0,42,70,0
0,38,108,1
0,62,95,0
0,57,0,3
0,62,0,1
0,57,95,0
0,50,0,4
0,57,0,1
0,35,0,0
0,42,0,0
0,50,90,1
0,50,0,4
0,65,87,76
0,42,47,5
0,62,97,1
0,57,97,4
0,42,0,5
0,50,92,1
0,65,0,79
0,65,85,1
0,62,0,4
0,65,0,1
0,38,100,0
0,42,66,0
0,62,95,1
0,57,0,3
0,62,0,1
0,57,95,0
0,50,0,4
0,57,0,1
0,42,0,0
0,38,0,0
0,50,90,1
0,50,0,4
0,38,0,17
0,65,87,59
0,46,56,5
0,38,104,1
0,62,97,0
0,57,97,4
0,46,0,5
0,50,92,1
0,38,0,19
0,62,0,47
0,65,0,0
0,57,0,0
0,55,85,2
0,60,85,0
0,64,85,0
0,65,0,11
0,64,95,1
0,62,0,4
0,35,107,1
0,42,65,0
0,51,59,0
0,36,109,1
0,60,105,0
0,57,0,3
0,55,105,1
0,50,0,4
0,51,0,1
0,42,0,0
0,35,0,0
0,48,98,1
0,64,0,79
0,64,87,1
0,60,0,4
0,46,45,1
0,60,97,1
0,55,0,3
0,55,97,1
0,48,0,4
0,46,0,1
0,48,90,1
0,64,0,79
0,64,85,1
0,60,0,4
0,64,0,1
0,38,100,0
0,42,65,0
0,60,95,1
0,55,0,3
0,60,0,1
0,55,95,0
0,48,0,4
0,55,0,1
0,42,0,0
0,38,0,0
0,48,88,1
0,48,0,4
0,36,0,15
0,64,87,61
0,35,95,5
0,46,51,0
0,60,97,1
0,36,104,1
0,55,97,3
0,46,0,5
0,35,0,0
0,48,90,1
0,36,0,19
0,64,0,47
0,55,0,0
0,60,0,0
0,53,85,2
0,58,85,0
0,62,85,0
0,64,0,11
0,62,94,1
0,60,0,4
0,35,107,1
0,42,72,0
0,34,108,1
0,58,104,0
0,55,0,3
0,53,104,1
0,48,0,4
0,42,0,1
0,35,0,0
0,46,95,1
0,62,0,79
0,62,87,1
0,58,0,4
0,46,51,1
0,58,97,1
0,53,0,3
0,53,97,1
0,46,0,4
0,46,0,1
0,46,88,1
0,62,0,79
0,62,85,1
0,58,0,4
0,62,0,1
0,38,100,0
0,42,62,0
0,58,95,1
0,53,0,3
0,58,0,1
0,53,95,0
0,46,0,4
0,53,0,1
0,42,0,0
0,38,0,0
0,46,86,1
0,46,0,4
0,34,0,13
0,62,87,63
0,46,56,5
0,58,97,1
0,34,104,1
0,53,97,3
0,46,0,5
0,46,88,1
0,34,0,17
0,53,0,49
0,62,0,0
0,58,0,0
0,57,85,2
0,61,85,0
0,64,85,0
0,62,0,11
0,61,95,1
0,58,0,4
0,35,107,1
0,42,70,0
0,51,62,0
0,53,62,0
0,33,109,1
0,57,105,0
0,53,0,3
0,52,105,1
0,46,0,4
0,51,0,1
0,42,0,0
0,53,0,0
0,35,0,0
0,45,95,1
0,61,0,79
0,61,87,1
0,57,0,4
0,42,45,1
0,57,97,1
0,52,0,3
0,52,97,1
0,45,0,4
0,42,0,1
0,45,87,1
0,61,0,79
0,61,85,1
0,57,0,4
0,61,0,1
0,38,100,0
0,42,70,0
0,57,95,1
0,52,0,3
0,57,0,1
0,52,95,0
0,45,0,4
0,52,0,1
0,42,0,0
0,38,0,0
0,45,85,1
0,45,0,4
0,33,0,17
0,61,87,59
0,35,98,5
0,42,47,0
0,33,104,1
0,57,97,0
0,52,97,4
0,42,0,5
0,35,0,0
0,45,87,1
0,33,0,14
0,61,0,65
0,61,85,1
0,57,0,4
0,61,0,1
0,35,107,0
0,42,68,0
0,33,108,1
0,57,95,0
0,52,0,3
0,57,0,1
0,52,95,0
0,45,0,4
0,52,0,1
0,35,0,0
0,42,0,0
0,45,85,1
0,45,0,4
0,61,87,76
0,42,52,5
0,57,97,1
0,52,97,4
0,42,0,5
0,45,87,1
0,61,0,79
0,61,85,1
0,57,0,4
0,61,0,1
