track,note,velocity,time
0,57,64,106
0,62,84,0
0,65,102,0
0,38,123,0
0,57,107,0
0,62,117,0
0,65,117,0
0,57,107,0
0,62,117,0
0,38,83,0
0,65,117,1
0,35,102,0
0,59,74,0
0,49,45,0
0,53,64,3
0,50,100,4
0,50,100,2
0,42,28,0
0,57,84,9
0,57,110,1
0,57,110,2
0,62,104,1
0,62,127,0
0,62,127,2
0,65,127,1
0,65,127,2
0,65,127,2
0,42,92,1
0,40,97,0
0,65,100,38
0,57,54,1
0,62,74,1
0,62,100,0
0,65,100,0
0,57,90,1
0,65,92,1
0,38,107,0
0,62,100,0
0,57,90,1
0,38,67,0
0,35,46,1
0,42,25,0
0,57,107,1
0,62,74,1
0,57,54,0
0,62,117,0
0,38,123,1
0,65,117,0
0,57,107,0
0,62,117,1
0,38,83,0
0,65,82,1
0,65,117,0
0,35,102,0
0,42,93,0
0,65,100,3
0,62,100,1
0,57,99,1
0,65,100,0
0,62,100,1
0,42,24,0
0,57,99,1
0,57,117,1
0,62,127,1
0,65,127,1
0,57,117,0
0,62,127,1
0,65,127,1
0,42,92,0
0,40,97,0
0,65,107,11
0,62,107,1
0,57,87,1
0,65,107,0
0,62,107,1
0,38,107,1
0,57,87,0
0,38,67,1
0,35,46,1
0,42,28,0
0,57,107,1
0,62,117,1
0,38,127,1
0,65,117,0
0,57,107,0
0,62,117,1
0,38,87,0
0,65,117,1
0,35,102,0
0,42,90,0
0,65,100,8
0,62,100,1
0,57,99,1
0,50,100,1
0,42,24,0
0,57,110,4
0,62,127,2
0,57,117,2
0,62,127,1
0,65,127,1
0,65,127,1
0,42,93,1
0,40,97,0
0,65,100,39
0,62,100,2
0,65,100,0
0,57,90,1
0,38,109,1
0,62,100,0
0,57,90,1
0,38,69,0
0,35,46,1
0,46,61,2
0,60,127,17
0,55,107,1
0,60,117,1
0,36,127,1
0,64,117,0
0,55,117,0
0,60,127,1
0,36,87,0
0,64,127,1
0,35,102,0
0,42,93,0
0,57,125,2
0,64,95,4
0,33,117,1
0,60,97,0
0,55,97,1
0,64,90,0
0,33,77,0
0,60,90,1
0,46,58,0
0,55,89,1
0,60,121,9
0,55,117,2
0,60,127,1
0,36,126,1
0,64,127,0
0,55,117,0
0,60,127,1
0,36,86,0
0,64,127,1
0,42,91,0
0,40,97,0
0,57,111,1
0,64,107,4
0,60,107,1
0,55,87,1
0,64,107,0
0,60,107,1
0,55,87,1
0,46,62,1
0,62,127,6
0,57,107,2
0,62,117,1
0,38,121,1
0,65,117,0
0,57,107,0
0,62,117,1
0,38,81,0
0,65,117,1
0,35,102,0
0,44,40,0
0,59,74,0
0,49,24,0
0,65,100,8
0,62,100,1
0,57,99,1
0,50,100,1
0,42,28,0
0,57,110,4
0,62,127,2
0,57,117,2
0,62,127,1
0,65,127,1
0,65,127,1
0,42,90,1
0,40,97,0
0,65,100,4
0,62,100,2
0,65,100,0
0,57,90,1
0,38,107,1
0,62,100,0
0,57,90,1
0,38,67,0
0,35,46,1
0,42,25,0
0,57,107,1
0,62,117,1
0,38,127,1
0,65,117,0
0,57,107,0
0,62,117,1
0,38,87,0
0,65,117,1
0,35,102,0
0,42,92,0
0,65,100,6
0,62,100,1
0,57,99,1
0,65,100,0
0,62,100,1
0,42,26,0
0,57,99,1
0,57,117,1
0,62,127,1
0,65,127,1
0,57,117,0
0,62,127,1
0,65,127,1
0,42,90,0
0,40,97,0
0,65,107,22
0,62,107,1
0,57,87,1
0,65,107,0
0,62,107,1
0,38,104,1
0,57,87,0
0,38,64,1
0,35,46,1
0,42,27,0
0,57,107,1
0,62,117,1
0,50,97,0
0,38,126,1
0,65,117,0
0,57,107,0
0,62,117,1
0,38,86,0
0,65,117,1
0,35,102,0
0,42,91,0
0,65,100,6
0,62,100,1
0,57,99,1
0,50,100,1
0,42,24,0
0,57,110,4
0,62,127,2
0,57,117,2
0,62,127,1
0,65,127,1
0,65,127,1
0,42,91,1
0,40,97,0
0,65,100,39
0,62,100,2
0,65,100,0
0,57,90,1
0,38,104,1
0,62,100,0
0,57,90,1
0,38,64,0
0,50,90,1
0,35,46,0
0,42,27,0
0,57,107,1
0,62,117,1
0,50,97,0
0,38,127,1
0,65,117,0
0,57,107,0
0,62,117,1
0,38,87,0
0,65,117,1
0,35,102,0
0,42,91,0
0,57,127,1
0,65,100,3
0,62,100,1
0,57,99,1
0,65,90,0
0,62,90,1
0,46,66,0
0,57,89,1
0,50,80,1
0,60,105,1
0,57,117,0
0,62,127,1
0,50,107,0
0,36,123,1
0,65,127,0
0,57,117,0
0,62,127,1
0,36,83,0
0,65,127,1
0,42,91,0
0,40,97,0
0,65,107,2
0,62,107,1
0,62,127,1
0,57,87,0
0,65,107,0
0,62,107,1
0,33,120,1
0,57,87,0
0,50,97,1
0,33,80,0
0,35,46,1
0,46,66,0
0,57,107,1
0,62,117,1
0,38,127,1
0,65,117,0
0,57,107,0
0,62,117,1
0,38,87,0
0,65,117,1
0,35,102,0
0,44,91,0
0,59,74,0
0,49,14,0
0,65,100,8
0,62,100,1
0,57,99,1
0,50,100,1
0,42,26,0
0,57,110,4
0,62,127,1
0,57,117,2
0,62,127,1
0,65,127,1
0,65,127,1
0,42,91,1
0,40,97,0
0,65,100,3
0,62,100,1
0,65,100,0
0,57,90,1
0,38,114,1
0,62,100,0
0,57,90,1
0,38,74,0
0,35,46,1
0,42,26,0
0,57,107,1
0,62,117,1
0,38,127,1
0,65,117,0
0,57,107,0
0,62,117,1
0,38,87,0
0,65,117,1
0,35,102,0
0,42,92,0
0,57,110,3
0,65,100,3
0,62,100,1
0,57,99,1
0,65,100,0
0,62,100,1
0,42,24,0
0,57,99,1
0,57,117,1
0,62,127,1
0,65,127,1
0,65,127,0
0,57,117,0
0,62,127,1
0,65,127,1
0,42,94,0
0,40,97,0
0,65,107,31
0,62,114,1
0,62,107,0
0,57,87,1
0,65,107,0
0,62,107,1
0,38,109,1
0,57,87,0
0,38,69,1
0,35,46,1
0,42,26,0
0,57,107,1
0,62,117,1
0,38,127,1
0,65,117,0
0,57,107,0
0,62,117,1
0,38,87,0
0,65,117,1
0,35,102,0
0,42,90,0
0,65,100,2
0,62,100,1
0,57,99,1
0,50,100,1
0,42,26,0
0,57,110,4
0,62,127,2
0,57,117,2
0,62,127,1
0,65,127,1
0,65,127,1
0,42,92,1
0,40,97,0
0,65,100,1
0,62,122,2
0,62,100,0
0,65,100,0
0,57,90,1
0,38,111,1
0,62,100,0
0,57,90,1
0,38,71,0
0,35,46,1
0,42,19,2
0,65,117,1
0,55,107,18
0,60,117,1
0,69,107,1
0,36,126,0
0,64,117,0
0,55,117,0
0,60,127,1
0,36,86,0
0,64,127,1
0,35,102,0
0,42,94,0
0,64,95,6
0,33,117,1
0,60,97,0
0,55,97,1
0,64,90,0
0,33,77,0
0,60,90,1
0,46,48,0
0,55,89,1
0,72,127,3
0,55,117,9
0,60,127,1
0,36,127,1
0,64,127,0
0,55,117,0
0,60,127,1
0,36,87,0
0,64,127,1
0,42,90,0
0,40,97,0
0,64,107,5
0,60,107,1
0,69,118,1
0,55,87,0
0,64,107,0
0,60,107,1
0,55,87,1
0,46,49,2
0,57,107,22
0,65,121,1
0,62,117,0
0,38,127,1
0,65,117,0
0,57,107,0
0,62,117,1
0,38,87,0
0,65,117,1
0,35,102,0
0,44,90,0
0,51,70,0
0,57,22,0
0,65,100,8
0,62,100,1
0,57,99,1
0,50,100,1
0,42,27,0
0,57,110,2
0,62,127,2
0,57,117,2
0,62,127,1
0,65,127,1
0,65,127,1
0,42,91,1
0,40,97,0
0,65,120,1
0,65,100,2
0,62,100,1
0,65,100,0
0,57,90,1
0,38,111,1
0,62,100,0
0,57,90,1
0,38,71,0
0,35,46,1
0,42,25,0
0,64,127,1
0,57,107,0
0,62,117,1
0,38,127,1
0,65,117,0
0,57,107,0
0,62,117,1
0,38,87,0
0,65,117,1
0,35,102,0
0,42,93,0
0,65,115,1
0,65,100,6
0,62,100,1
0,57,99,1
0,65,100,0
0,62,100,1
0,42,24,0
0,57,99,1
0,64,110,1
0,57,117,1
0,62,127,1
0,65,127,1
0,57,117,0
0,62,127,1
0,65,127,1
0,46,63,0
0,40,97,0
0,62,127,4
0,65,107,1
0,62,107,1
0,57,87,1
0,65,107,0
0,62,107,1
0,38,107,1
0,57,87,0
0,38,67,1
0,35,46,1
0,42,28,0
0,40,49,0
0,40,65,11
0,57,107,1
0,62,117,1
0,38,127,1
0,65,117,0
0,57,107,0
0,62,117,1
0,38,87,0
0,65,117,1
0,35,102,0
0,44,64,0
0,40,85,0
0,65,100,4
0,62,100,1
0,57,99,1
0,50,100,1
0,40,73,0
0,57,110,4
0,62,127,2
0,57,117,2
0,62,127,1
0,65,127,1
0,65,127,1
0,44,64,1
0,40,65,0
0,40,77,10
0,65,100,9
0,62,100,2
0,65,100,0
0,57,90,1
0,38,107,1
0,62,100,0
0,57,90,1
0,38,67,0
0,35,56,1
0,40,87,0
0,57,107,1
0,62,117,1
0,36,127,1
0,65,117,0
0,57,107,0
0,62,117,1
0,36,87,0
0,65,117,1
0,35,102,0
0,44,64,0
0,40,97,0
0,65,127,4
0,65,100,2
0,33,127,1
0,62,100,0
0,57,99,1
0,65,100,0
0,33,87,0
0,62,100,1
0,45,64,0
0,38,27,0
0,57,99,1
0,57,117,1
0,62,127,1
0,36,127,1
0,65,127,0
0,57,117,0
0,62,127,1
0,36,87,0
0,69,127,1
0,65,127,0
0,44,64,0
0,45,70,0
0,38,37,0
0,65,107,6
0,62,107,1
0,57,87,1
0,65,107,0
0,62,107,1
0,65,127,1
0,57,87,0
0,35,62,2
0,65,107,1
0,62,107,1
0,57,87,1
0,57,107,1
0,62,117,1
0,38,127,1
0,65,117,0
0,57,107,0
0,62,117,1
0,38,87,0
0,69,127,1
0,65,117,0
0,35,102,0
0,59,74,0
0,49,14,0
0,65,100,6
0,65,127,1
0,62,100,0
0,57,99,1
0,50,100,1
0,42,24,0
0,57,110,4
0,62,127,2
0,57,117,2
0,62,127,1
0,65,127,1
0,65,127,1
0,42,92,1
0,40,97,0
0,69,127,1
0,65,100,3
0,65,127,1
0,62,100,1
0,65,100,0
0,57,90,1
0,38,112,1
0,62,100,0
0,57,90,1
0,38,72,0
0,35,46,1
0,42,26,0
0,57,107,1
0,69,127,1
0,62,117,0
0,38,127,1
0,65,117,0
0,57,107,0
0,62,117,1
0,38,87,0
0,65,117,1
0,35,102,0
0,42,94,0
0,65,100,6
0,62,100,1
0,57,99,1
0,65,100,0
0,62,100,1
0,42,27,0
0,57,99,1
0,57,117,1
0,62,127,1
0,69,127,1
0,65,127,0
0,57,117,0
0,62,127,1
0,65,127,1
0,42,90,0
0,40,97,0
0,65,107,12
0,62,107,1
0,65,127,1
0,57,87,0
0,65,107,0
0,62,107,1
0,38,111,1
0,57,87,0
0,38,71,1
0,35,46,1
0,46,56,0
0,55,107,6
0,60,127,1
0,36,127,1
0,64,127,0
0,55,107,0
0,67,127,1
0,60,127,0
0,36,87,0
0,64,127,1
0,35,102,0
0,42,90,0
0,64,127,4
0,64,100,2
0,60,100,1
0,55,99,1
0,64,100,0
0,60,100,1
0,46,54,0
0,55,99,1
0,55,127,1
0,60,127,1
0,67,127,1
0,64,127,0
0,55,127,0
0,60,127,1
0,64,127,1
0,42,90,0
0,40,97,0
0,64,127,7
0,64,100,1
0,60,100,2
0,64,100,0
0,55,90,1
0,36,111,1
0,60,100,0
0,55,90,1
0,36,71,0
0,35,46,1
0,46,58,0
0,58,107,21
0,65,127,1
0,62,127,0
0,34,127,1
0,65,127,0
0,58,107,0
0,62,127,1
0,34,87,0
0,65,127,1
0,35,102,0
0,42,93,0
0,65,100,6
0,62,100,1
0,58,99,1
0,65,100,0
0,62,100,1
0,46,57,0
0,58,99,1
0,58,127,1
0,62,127,1
0,65,127,1
0,65,127,0
0,58,127,0
0,62,127,1
0,65,127,1
0,42,91,0
0,40,97,0
0,65,107,4
0,62,107,1
0,64,127,1
0,58,87,0
0,65,107,0
0,62,107,1
0,34,114,1
0,58,87,0
0,34,74,1
0,35,46,1
0,46,56,0
0,57,107,16
0,61,127,1
0,33,127,1
0,64,127,0
0,57,107,0
0,61,117,1
0,33,87,0
0,64,117,1
0,35,102,0
0,44,56,0
0,57,14,0
0,51,64,0
0,64,127,4
0,64,100,4
0,61,100,1
0,57,99,1
0,52,100,1
0,42,26,0
0,57,110,4
0,61,127,2
0,57,127,2
0,61,127,1
0,64,127,1
0,64,127,1
0,42,94,1
0,40,97,0
0,61,127,1
0,64,107,0
0,61,107,1
0,57,87,1
0,64,100,0
0,33,112,2
0,61,100,0
0,57,90,1
0,33,72,0
0,35,46,1
0,42,27,0
0,33,127,1
0,57,107,0
0,61,117,1
0,33,87,0
0,64,117,1
0,35,102,0
0,42,92,0
0,64,100,6
0,61,100,1
0,57,99,1
0,64,100,0
0,61,100,1
0,42,27,0
0,57,99,1
0,57,127,1
0,61,127,1
0,64,127,1
0,57,117,0
0,61,127,1
0,64,127,1
0,42,93,0
0,40,97,0
0,64,107,31
0,61,107,1
0,57,87,1
0,64,107,0
0,61,107,1
0,57,87,1
0,35,46,2
0,42,24,0
0,64,107,1
0,61,107,1
0,57,87,1
0,57,107,1
0,61,127,1
0,33,127,1
0,64,127,0
0,57,107,0
0,61,117,1
0,33,87,0
0,64,117,1
0,35,102,0
0,42,93,0
0,52,100,4
0,42,26,0
0,57,110,4
0,61,127,2
0,57,127,2
0,61,127,1
0,64,127,1
0,64,127,1
0,42,92,1
0,40,97,0
0,64,107,4
0,61,107,1
0,57,87,1
0,64,100,0
0,33,109,1
0,61,100,0
0,57,90,1
0,33,69,0
0,35,49,1
0,42,25,0
0,33,127,1
0,57,107,0
0,61,117,1
0,33,87,0
0,64,117,1
0,35,97,0
0,42,91,0
0,64,100,6
0,61,100,1
0,57,99,1
0,64,100,0
0,61,100,1
0,42,27,0
0,57,99,1
0,57,127,1
0,61,127,1
0,64,127,1
0,57,117,0
0,61,127,1
0,64,127,1
0,42,94,0
0,40,97,0
0,64,107,33
0,61,107,1
0,57,87,1
0,64,107,0
0,61,107,1
0,33,106,1
0,57,87,0
0,33,66,1
0,35,46,1
0,46,55,0
0,57,107,17
0,62,117,1
0,38,127,1
0,65,117,0
0,57,107,0
0,62,117,1
0,38,87,0
0,65,117,1
0,35,102,0
0,42,94,0
0,69,127,6
0,65,100,1
0,62,100,1
0,57,99,1
0,50,100,1
0,42,27,0
0,57,110,2
0,62,127,1
0,57,117,2
0,62,127,1
0,69,127,1
0,65,127,0
0,65,127,1
0,42,90,1
0,40,97,0
0,69,127,26
0,65,100,0
0,62,100,2
0,65,100,0
0,57,90,1
0,38,107,1
0,62,100,0
0,57,90,1
0,38,67,0
0,35,46,1
0,42,26,0
0,57,107,1
0,69,127,1
0,62,117,0
0,38,127,1
0,65,117,0
0,57,107,0
0,62,117,1
0,38,87,0
0,65,117,1
0,35,102,0
0,42,94,0
0,65,127,4
0,65,100,1
0,62,100,1
0,57,99,1
0,65,100,0
0,62,100,1
0,42,25,0
0,57,99,1
0,57,117,1
0,62,127,1
0,65,127,1
0,57,117,0
0,62,127,1
0,67,127,1
0,65,127,0
0,42,94,0
0,40,97,0
0,67,127,17
0,65,107,0
0,62,107,1
0,57,87,1
0,65,107,0
0,62,107,1
0,38,109,1
0,57,87,0
0,38,69,1
0,35,36,1
0,46,54,0
0,55,107,17
0,60,127,1
0,36,127,1
0,64,127,0
0,55,107,0
0,60,127,1
0,36,87,0
0,64,127,1
0,35,102,0
0,42,91,0
0,67,127,3
0,64,100,3
0,60,100,1
0,55,99,1
0,64,100,0
0,60,100,1
0,46,55,0
0,55,99,1
0,55,127,1
0,67,127,1
0,60,127,0
0,64,127,1
0,55,127,0
0,60,127,1
0,64,127,1
0,42,93,0
0,40,97,0
0,64,100,25
0,67,127,2
0,60,100,0
0,64,100,0
0,55,90,1
