track,note,velocity,time
0,68,49,0
0,52,43,0
0,52,86,1
0,56,43,59
0,56,0,58
0,59,43,2
0,59,0,45
0,56,43,15
0,56,0,58
0,64,43,2
0,64,0,45
0,56,43,15
0,68,0,58
0,56,0,2
0,52,0,0
0,59,43,1
0,59,0,57
0,52,0,0
0,56,43,2
0,56,0,45
0,47,43,15
0,47,86,1
0,66,49,59
0,51,43,1
0,66,0,44
0,51,0,13
0,66,49,2
0,54,43,0
0,66,0,45
0,54,0,13
0,68,49,2
0,51,43,1
0,51,0,43
0,68,0,1
0,69,49,15
0,59,43,0
0,59,0,60
0,69,0,0
0,51,43,0
0,69,49,30
0,69,0,30
0,51,0,0
0,47,0,0
0,69,49,0
0,54,43,1
0,54,0,43
0,47,0,14
0,69,0,2
0,68,49,0
0,51,43,0
0,51,0,45
0,68,0,13
0,68,49,2
0,52,43,1
0,52,86,0
0,56,43,59
0,56,0,60
0,59,43,0
0,59,0,45
0,56,43,15
0,56,0,45
0,64,43,15
0,64,0,60
0,56,43,0
0,52,0,59
0,56,0,1
0,68,0,0
0,59,43,0
0,59,0,45
0,52,0,13
0,56,43,2
0,56,0,60
0,47,43,0
0,47,86,0
0,66,49,60
0,51,43,1
0,66,0,44
0,51,0,14
0,66,49,1
0,54,43,0
0,54,0,60
0,66,0,0
0,68,49,0
0,51,43,1
0,68,0,44
0,51,0,14
0,69,49,1
0,59,43,0
0,59,0,60
0,69,0,0
0,69,49,0
0,51,43,0
0,69,0,28
0,51,0,32
0,47,0,0
0,69,49,0
0,54,43,1
0,69,0,29
0,47,0,28
0,68,49,2
0,51,43,0
0,54,0,29
0,51,0,1
0,68,0,30
0,71,49,0
0,52,43,1
0,52,86,0
0,56,43,59
0,71,0,15
0,71,49,15
0,71,0,30
0,56,0,0
0,71,49,0
0,59,43,1
0,59,0,58
0,56,43,1
0,56,0,60
0,64,43,0
0,64,0,58
0,56,43,2
0,71,0,45
0,52,0,14
0,56,0,1
0,68,49,0
0,59,43,1
0,68,0,57
0,52,0,0
0,66,49,2
0,56,43,0
0,59,0,29
0,56,0,1
0,66,0,28
0,64,52,2
0,45,43,0
0,45,92,1
0,49,43,59
0,64,0,60
0,69,52,0
0,52,43,0
0,45,0,30
0,49,0,30
0,69,0,0
0,71,52,0
0,57,43,0
0,52,0,28
0,45,0,1
0,71,0,29
0,57,0,2
0,73,52,0
0,46,43,0
0,46,97,1
0,73,0,59
0,70,55,0
0,49,43,0
0,70,0,60
0,66,55,0
0,52,43,1
0,46,0,29
0,49,0,30
0,66,0,0
0,64,55,0
0,58,43,0
0,52,0,28
0,46,0,1
0,64,0,29
0,58,0,2
0,63,58,0
0,47,43,1
0,47,103,0
0,51,43,59
0,54,43,60
0,47,0,29
0,51,0,31
0,59,43,0
0,47,0,29
0,54,0,1
0,63,0,28
0,59,0,2
0,64,49,0
0,49,43,0
0,49,97,1
0,56,43,59
0,56,0,60
0,49,0,0
0,59,43,0
0,64,0,45
0,59,0,15
0,64,49,0
0,49,43,0
0,49,0,29
0,49,0,31
0,64,0,0
0,66,49,0
0,51,43,0
0,51,80,1
0,51,0,58
0,51,0,1
0,66,0,0
0,63,49,0
0,47,43,0
0,47,74,1
0,63,0,57
0,59,49,2
0,63,49,60
0,71,49,60
0,47,0,59
0,47,0,61
0,59,0,75
0,63,0,0
0,71,0,1
0,56,46,44
0,64,46,1
0,40,40,0
0,52,40,0
0,40,63,1
0,52,63,0
0,64,0,55
0,59,46,3
0,59,0,57
0,64,46,3
0,52,0,44
0,52,0,1
0,64,0,12
0,66,46,3
0,47,40,1
0,47,63,0
0,47,0,58
0,47,0,0
0,66,0,1
0,68,46,0
0,52,40,0
0,52,63,1
0,68,0,42
0,56,0,17
0,66,46,0
0,66,0,15
0,68,46,5
0,68,0,13
0,66,46,7
0,66,0,15
0,64,46,5
0,64,0,60
0,63,46,0
0,63,0,43
0,40,0,1
0,40,0,1
0,52,0,1
0,52,0,0
0,57,46,14
0,61,46,1
0,45,40,0
0,45,63,0
0,61,0,56
0,57,0,1
0,57,46,2
0,57,0,60
0,61,46,0
0,61,0,43
0,63,46,17
0,66,46,0
0,45,0,29
0,45,0,0
0,47,40,31
0,47,46,0
0,51,40,60
0,51,46,1
0,47,0,14
0,51,0,29
0,66,0,16
0,63,0,0
0,54,40,0
0,54,46,1
0,59,40,59
0,59,46,1
0,54,0,13
0,47,0,31
0,51,0,1
0,54,0,0
0,59,0,0
0,59,0,1
0,64,46,13
0,40,40,0
0,52,40,1
0,40,63,0
0,52,63,0
0,64,0,56
0,59,46,3
0,59,0,57
0,64,46,3
0,52,0,44
0,52,0,0
0,64,0,13
0,66,46,3
0,47,40,0
0,47,63,1
0,47,0,58
0,47,0,1
0,66,0,0
0,68,46,0
0,52,40,1
0,52,63,0
0,68,0,42
0,66,46,17
0,66,0,20
0,68,46,0
0,68,0,20
0,66,46,0
0,66,0,18
0,64,46,2
0,64,0,60
0,63,46,0
0,63,0,43
0,40,0,2
0,52,0,1
0,52,0,0
0,40,0,0
0,57,46,14
0,61,46,1
0,45,40,0
0,45,46,0
0,61,0,42
0,57,0,0
0,45,0,1
0,45,0,2
0,59,46,14
0,63,46,0
0,47,40,1
0,47,46,0
0,63,0,42
0,59,0,0
0,61,46,17
0,64,46,0
0,47,0,1
0,49,40,0
0,47,0,0
0,49,46,1
0,64,0,41
0,61,0,0
0,49,0,16
0,49,0,0
0,59,46,1
0,63,46,1
0,47,40,0
0,47,46,0
0,51,40,59
0,51,46,1
0,47,0,13
0,54,40,46
0,54,46,1
0,51,0,13
0,54,0,30
0,63,0,15
0,59,0,1
0,59,40,0
0,59,46,1
0,47,0,73
0,59,0,0
0,54,0,2
0,51,0,0
0,59,0,1
0,64,46,43
0,40,40,0
0,52,40,1
0,40,63,0
0,52,63,1
0,64,0,58
0,59,46,0
0,59,0,57
0,64,46,3
0,52,0,44
0,52,0,1
0,64,0,12
0,66,46,3
0,47,40,0
0,47,63,1
0,66,0,57
0,47,0,1
0,47,0,1
0,68,46,0
0,52,40,1
0,52,63,0
0,68,0,42
0,66,46,17
0,66,0,20
0,68,46,0
0,68,0,20
0,66,46,0
0,66,0,20
0,64,46,0
0,64,0,60
0,63,46,0
0,63,0,43
0,40,0,2
0,52,0,1
0,52,0,0
0,40,0,0
0,57,46,14
0,61,46,0
0,45,40,1
0,45,63,0
0,61,0,56
0,57,0,0
0,57,46,3
0,61,46,60
0,61,0,43
0,57,0,0
0,63,46,17
0,66,46,1
0,45,0,28
0,45,0,0
0,47,40,31
0,47,46,1
0,47,0,58
0,51,40,1
0,51,46,1
0,66,0,58
0,51,0,0
0,63,0,1
0,54,40,1
0,54,46,0
0,54,0,58
0,59,40,1
0,59,46,0
0,54,0,29
0,51,0,1
0,47,0,0
0,59,0,1
0,64,46,29
0,40,40,0
0,59,0,0
0,52,40,1
0,40,63,0
0,52,63,0
0,64,0,56
0,59,46,3
0,59,0,57
0,64,46,3
0,52,0,44
0,52,0,2
0,64,0,11
0,66,46,3
0,47,40,0
0,47,63,1
0,47,0,58
0,47,0,1
0,66,0,0
0,68,46,0
0,52,40,0
0,52,63,1
0,68,0,42
0,66,46,17
0,66,0,20
0,68,46,0
0,68,0,20
0,66,46,0
0,66,0,20
0,64,46,0
0,64,0,60
0,63,46,0
0,40,0,45
0,52,0,1
0,52,0,0
0,40,0,0
0,63,0,11
0,57,46,3
0,61,46,0
0,45,40,1
0,45,46,0
0,45,0,43
0,45,0,2
0,61,0,11
0,57,0,0
0,59,46,3
0,63,46,1
0,47,40,0
0,47,46,0
0,63,0,42
0,59,0,0
0,47,0,16
0,47,0,0
0,61,46,1
0,64,46,0
0,49,40,1
0,49,46,0
0,64,0,56
0,61,0,0
0,49,0,2
0,49,0,0
0,59,46,1
0,63,46,1
0,47,40,0
0,47,46,0
0,47,0,238
0,63,0,0
0,47,0,0
0,59,0,1
0,57,46,60
0,61,46,1
0,45,40,0
0,45,46,0
0,45,0,43
0,45,0,2
0,61,0,11
0,57,0,0
0,59,46,3
0,63,46,0
0,47,40,1
0,47,46,0
0,63,0,42
0,59,0,0
0,47,0,16
0,47,0,0
0,61,46,1
0,64,46,0
0,49,40,1
0,49,46,0
0,64,0,56
0,61,0,0
0,49,0,2
0,49,0,0
0,59,46,1
0,63,46,0
0,47,40,1
0,47,46,0
0,63,0,179
0,59,0,0
0,47,0,59
0,47,0,0
0,57,46,61
0,61,46,0
0,45,40,1
0,45,46,0
0,57,0,56
0,45,0,1
0,61,0,0
0,45,0,1
0,59,46,2
0,63,46,0
0,47,40,0
0,47,46,0
0,63,0,56
0,59,0,0
0,47,0,2
0,47,0,0
0,61,46,1
0,64,46,0
0,49,40,1
0,49,46,0
0,49,0,658
0,49,0,0
0,47,49,1
0,54,49,0
0,47,46,1
0,54,46,0
0,64,0,72
0,61,0,0
0,88,46,167
0,88,0,60
0,87,46,0
0,87,0,60
0,83,46,0
0,83,0,60
0,81,46,0
0,81,0,60
0,85,46,0
0,85,0,60
0,83,46,0
0,83,0,57
0,78,46,3
0,78,0,30
0,80,46,0
0,80,0,28
0,81,46,2
0,81,0,57
0,76,46,3
0,76,0,43
0,75,46,17
0,75,0,60
0,71,46,0
0,71,0,60
0,69,46,0
0,69,0,60
0,73,46,0
0,47,0,59
0,73,0,1
0,47,0,0
0,71,46,0
0,54,0,1
0,54,0,0
0,71,0,59
0,66,46,0
0,66,0,60
0,68,46,1
0,68,59,0
0,68,25,0
0,40,80,1
0,68,25,13
0,68,0,44
0,56,46,1
0,68,0,0
0,56,25,1
0,68,0,12
0,56,25,2
0,68,0,44
0,56,0,1
0,66,59,0
0,56,0,0
0,59,46,1
0,59,25,0
0,56,0,13
0,59,25,1
0,59,0,44
0,66,0,1
0,64,59,0
0,59,0,0
0,64,46,1
0,64,25,0
0,59,0,12
0,64,25,2
0,64,0,44
0,68,46,1
0,64,0,0
0,64,0,0
0,68,25,1
0,64,0,12
0,68,25,2
0,68,0,45
0,56,46,0
0,68,0,0
0,56,25,1
0,68,0,12
0,56,25,2
0,56,0,45
0,64,46,0
0,56,0,0
0,64,25,1
0,56,0,12
0,64,25,2
0,64,0,43
0,40,0,0
0,56,46,2
0,64,0,0
0,56,25,1
0,64,0,13
0,56,25,1
0,56,0,45
0,63,46,0
0,56,0,0
0,47,80,1
0,63,25,0
0,56,0,12
0,63,25,2
0,63,0,43
0,51,46,2
0,66,59,0
0,63,0,0
0,51,25,1
0,63,0,13
0,51,25,1
0,51,0,45
0,54,46,0
0,66,0,0
0,66,59,0
0,51,0,0
0,54,25,1
0,51,0,12
0,54,25,2
0,54,0,45
0,66,0,0
0,68,59,0
0,54,0,0
0,59,46,1
0,59,25,0
0,54,0,12
0,59,25,2
0,59,0,44
0,63,46,1
0,68,0,0
0,69,59,0
0,59,0,0
0,63,25,1
0,59,0,12
0,63,25,2
0,63,0,45
0,69,0,0
0,69,59,0
0,63,0,0
0,54,46,1
0,54,25,0
0,63,0,12
0,54,25,2
0,54,0,44
0,69,0,1
0,69,59,0
0,54,0,0
0,59,46,1
0,59,25,0
0,54,0,13
0,59,25,1
0,47,0,43
0,59,0,1
0,69,0,1
0,68,59,0
0,59,0,0
0,63,46,1
0,63,25,0
0,59,0,12
0,63,25,2
0,68,0,13
0,68,59,2
0,63,0,29
0,64,46,1
0,63,0,0
0,64,25,0
0,40,80,1
0,63,0,13
0,64,25,1
0,64,0,45
0,56,46,0
0,64,0,0
0,56,25,1
0,64,0,12
0,56,25,2
0,56,0,45
0,59,46,0
0,68,0,0
0,56,0,0
0,59,25,1
0,56,0,12
0,59,25,2
0,59,0,45
0,64,46,0
0,59,0,0
0,64,25,1
0,59,0,12
0,64,25,2
0,64,0,45
0,68,46,0
0,64,0,0
0,68,25,1
0,64,0,12
0,68,25,2
0,68,0,45
0,56,46,0
0,68,0,0
0,56,25,0
0,68,0,14
0,56,25,1
0,56,0,45
0,64,46,0
0,56,0,0
0,64,25,1
0,56,0,12
0,64,25,2
0,64,0,43
0,40,0,0
0,56,46,2
0,64,0,0
0,56,25,1
0,64,0,13
0,56,25,1
0,56,0,45
0,63,46,0
0,56,0,0
0,47,80,1
0,63,25,0
0,56,0,12
0,63,25,2
0,63,0,45
0,51,46,0
0,63,0,0
0,51,25,0
0,63,0,13
0,51,25,2
0,51,0,45
0,54,46,0
0,51,0,0
0,54,25,1
0,51,0,12
0,54,25,2
0,54,0,45
0,69,59,0
0,54,0,0
0,59,46,1
0,59,25,0
0,54,0,12
0,59,25,2
0,59,0,44
0,69,0,1
0,69,59,0
0,59,0,0
0,63,46,1
0,63,25,0
0,59,0,13
0,63,25,1
0,69,0,13
0,69,59,2
0,63,0,28
0,59,46,2
0,63,0,0
0,59,25,1
0,63,0,13
0,59,25,1
0,69,0,15
0,69,59,0
0,59,0,30
0,66,46,0
0,59,0,0
0,66,25,0
0,59,0,14
0,66,25,1
0,47,0,43
0,66,0,2
0,69,0,0
0,68,59,0
0,66,0,0
0,63,46,1
0,63,25,0
0,66,0,12
0,63,25,2
0,63,0,44
0,68,0,1
0,71,59,0
0,63,0,0
0,64,46,1
0,40,80,0
0,64,25,0
0,63,0,12
0,64,25,2
0,64,0,44
0,56,46,1
0,64,0,0
0,56,25,1
0,64,0,12
0,56,25,2
0,56,0,45
0,59,46,0
0,56,0,0
0,59,25,1
0,56,0,12
0,59,25,2
0,59,0,45
0,56,46,0
0,59,0,0
0,56,25,1
0,59,0,13
0,56,25,1
0,56,0,42
0,64,46,3
0,71,0,0
0,56,0,0
0,64,25,1
0,56,0,12
0,64,25,2
0,64,0,43
0,59,46,2
0,64,0,0
0,59,25,1
0,64,0,13
0,59,25,1
0,59,0,45
0,68,46,0
0,59,0,0
0,68,25,1
0,59,0,12
0,68,25,2
0,40,0,43
0,68,0,2
0,66,46,0
0,68,0,0
0,66,25,0
0,68,0,13
0,66,25,2
0,66,0,45
0,64,46,0
0,66,0,0
0,45,80,1
0,64,25,0
0,66,0,12
0,64,25,2
0,64,0,43
0,69,59,2
0,64,0,0
0,57,46,1
0,57,25,0
0,64,0,12
0,57,25,2
0,69,0,13
0,69,59,2
0,57,0,29
0,61,46,1
0,57,0,0
0,61,25,1
0,57,0,13
0,61,25,1
0,45,0,44
0,61,0,1
0,69,0,0
0,71,59,0
0,61,0,0
0,64,46,1
0,45,80,0
0,64,25,0
0,61,0,12
0,64,25,2
0,45,0,13
0,64,0,31
0,71,0,1
0,73,59,0
0,64,0,0
0,66,46,1
0,46,80,0
0,66,25,0
0,64,0,13
0,66,25,1
0,73,0,43
0,66,0,1
0,61,46,1
0,69,59,0
0,66,0,0
0,61,25,1
0,66,0,12
0,61,25,2
0,69,0,13
0,66,59,2
0,61,0,30
0,66,46,0
0,61,0,0
0,66,25,0
0,61,0,14
0,66,25,1
0,46,0,44
0,66,0,1
0,66,0,0
0,64,59,0
0,66,0,0
0,64,46,1
0,46,80,0
0,64,25,0
0,66,0,12
0,64,25,2
0,46,0,13
0,64,0,15
0,64,0,15
0,63,59,2
0,64,0,0
0,63,46,1
0,47,80,0
0,63,25,0
0,64,0,12
0,63,25,2
0,63,0,44
0,54,46,1
0,63,0,0
0,54,25,1
0,63,0,13
0,54,25,1
0,54,0,45
0,59,46,0
0,63,0,0
0,54,0,0
0,59,25,1
0,54,0,12
0,59,25,2
0,47,0,44
0,59,0,1
0,63,46,0
0,59,0,0
0,47,80,1
0,63,25,0
0,59,0,13
0,63,25,1
0,47,0,14
0,63,0,29
0,64,46,2
0,63,0,0
0,49,80,1
0,64,25,0
0,63,0,12
0,64,25,2
0,64,0,43
0,54,46,2
0,64,0,0
0,54,25,0
0,64,0,14
0,54,25,1
0,54,0,45
0,59,46,0
0,54,0,0
0,59,25,1
0,54,0,12
0,59,25,2
0,59,0,45
0,64,46,0
0,59,0,0
0,64,25,1
0,59,0,12
0,64,25,2
0,49,0,13
0,64,0,32
