track,note,velocity,time
0,42,100,960
0,42,85,230
0,42,85,230
0,42,85,230
0,64,61,347
0,62,82,96
0,44,58,2
0,64,56,52
0,64,60,85
0,64,48,93
0,44,58,93
0,63,71,5
0,63,78,86
0,64,61,181
0,62,82,96
0,44,58,2
0,64,56,52
0,64,60,85
0,64,48,93
0,44,58,93
0,63,71,5
0,63,78,86
0,64,61,181
0,62,82,96
0,44,58,2
0,64,56,52
0,64,60,85
0,64,48,93
0,44,58,93
0,63,71,5
0,63,78,86
0,64,61,181
0,62,82,96
0,44,58,2
0,64,56,52
0,64,60,85
0,56,40,82
0,64,48,11
0,61,73,84
0,44,58,8
0,63,71,5
0,63,82,2
0,46,58,2
0,63,78,2
0,64,84,4
0,42,41,6
0,64,73,0
0,61,73,1
0,68,68,0
0,49,60,1
0,64,61,11
0,42,11,3
0,56,54,4
0,62,56,64
0,62,82,6
0,46,49,4
0,63,73,0
0,61,64,49
0,64,73,0
0,59,64,1
0,57,60,0
0,64,56,2
0,45,64,1
0,61,84,1
0,42,37,4
0,64,60,1
0,42,41,4
0,64,48,0
0,63,60,0
0,46,49,1
0,63,71,2
0,64,84,7
0,63,78,17
0,66,73,6
0,42,33,1
0,47,64,0
0,61,64,2
0,63,73,1
0,59,73,1
0,66,60,0
0,64,61,1
0,42,37,4
0,67,48,4
0,66,69,2
0,64,75,6
0,62,82,1
0,46,49,2
0,64,56,52
0,63,73,1
0,64,60,16
0,42,25,1
0,42,33,93
0,64,48,0
0,61,75,2
0,42,40,93
0,63,71,5
0,46,49,84
0,63,78,2
0,59,64,31
0,42,33,15
0,59,82,5
0,56,64,0
0,44,56,1
0,63,64,0
0,66,64,0
0,59,75,3
0,64,61,1
0,42,49,4
0,46,58,1
0,62,82,0
0,64,56,10
0,64,60,2
0,42,15,4
0,42,41,90
0,64,48,3
0,65,82,76
0,46,49,17
0,63,71,5
0,66,64,3
0,63,78,86
0,64,91,4
0,45,60,34
0,42,33,1
0,61,64,5
0,59,73,2
0,57,60,1
0,64,73,0
0,64,61,109
0,42,33,4
0,62,82,3
0,46,49,3
0,63,81,1
0,64,56,3
0,64,60,85
0,42,33,3
0,46,49,90
0,64,48,3
0,44,37,91
0,63,71,7
0,46,54,82
0,63,78,4
0,42,41,34
0,42,56,0
0,66,64,2
0,61,73,0
0,58,60,2
0,64,61,106
0,42,11,6
0,62,82,96
0,46,49,4
0,64,56,50
0,58,73,3
0,54,60,0
0,61,82,0
0,42,37,84
0,64,60,1
0,61,64,2
0,42,41,3
0,64,48,0
0,66,87,2
0,46,49,9
0,63,71,4
0,61,91,74
0,44,41,5
0,63,78,2
0,63,82,6
0,47,64,13
0,54,73,1
0,42,33,1
0,63,70,0
0,66,64,0
0,59,64,2
0,64,61,109
0,42,37,4
0,62,56,9
0,61,60,12
0,62,82,41
0,46,49,2
0,59,81,2
0,64,56,18
0,64,60,4
0,42,25,1
0,46,33,9
0,64,48,0
0,44,40,3
0,55,58,0
0,63,71,3
0,57,46,73
0,63,78,2
0,58,56,5
0,59,73,0
0,60,90,0
0,42,33,9
0,54,64,1
0,56,74,0
0,60,74,0
0,44,56,3
0,63,73,0
0,64,61,110
0,42,49,4
0,63,82,88
0,46,58,2
0,62,82,0
0,64,56,2
0,68,87,1
0,69,73,0
0,64,60,1
0,42,15,3
0,68,81,0
0,66,82,0
0,42,41,5
0,64,48,3
0,64,91,4
0,42,49,8
0,63,71,5
0,66,91,6
0,46,49,12
0,63,78,2
0,54,60,19
0,57,82,1
0,64,82,1
0,60,73,0
0,45,64,0
0,68,90,0
0,64,61,11
0,60,64,4
0,68,90,2
0,50,44,3
0,62,82,13
0,68,87,7
0,50,52,15
0,64,56,5
0,50,91,3
0,60,60,7
0,64,60,2
0,54,73,0
0,63,64,0
0,56,73,0
0,66,82,7
0,47,64,6
0,64,48,5
0,64,82,1
0,45,82,5
0,51,46,4
0,63,71,8
0,43,82,4
0,63,91,2
0,51,60,8
0,63,78,2
0,64,73,11
0,68,68,0
0,61,73,0
0,49,60,0
0,36,91,3
0,51,109,0
0,37,91,0
0,64,91,0
0,85,52,0
0,49,44,2
0,42,57,2
0,56,58,15
0,37,82,5
0,46,49,2
0,63,73,3
0,61,82,0
0,59,75,0
0,61,64,2
0,64,73,0
0,59,64,1
0,57,60,0
0,33,91,2
0,36,32,1
0,45,64,0
0,83,55,0
0,42,37,4
0,36,82,2
0,68,60,2
0,37,91,2
0,61,73,0
0,64,73,0
0,42,41,1
0,59,64,0
0,57,72,0
0,46,49,5
0,63,73,2
0,36,48,29
0,44,41,0
0,64,82,2
0,57,73,0
0,66,90,9
0,59,69,1
0,80,58,0
0,42,33,1
0,47,64,0
0,36,91,2
0,35,91,0
0,63,73,3
0,68,60,0
0,59,73,0
0,54,61,24
0,42,37,4
0,64,72,0
0,59,73,2
0,46,51,5
0,54,48,3
0,63,82,3
0,78,58,2
0,63,73,1
0,37,82,2
0,33,91,0
0,66,73,1
0,59,73,0
0,57,82,0
0,57,73,4
0,42,43,1
0,66,64,3
0,57,73,0
0,42,54,3
0,61,73,22
0,37,91,5
0,46,54,0
0,57,60,0
0,61,64,1
0,36,48,2
0,59,73,52
0,56,73,10
0,75,55,0
0,36,91,4
0,42,41,0
0,32,91,0
0,59,82,0
0,59,82,2
0,56,64,0
0,44,56,1
0,63,64,0
0,66,64,0
0,42,57,1
0,56,60,5
0,63,60,0
0,37,82,3
0,46,49,1
0,63,82,0
0,59,73,0
0,56,64,3
0,59,82,1
0,32,91,3
0,71,73,0
0,66,64,0
0,36,32,1
0,66,82,1
0,71,82,2
0,42,60,5
0,36,82,4
0,63,56,0
0,59,73,2
0,63,91,0
0,59,90,64
0,59,75,13
0,37,91,5
0,42,41,1
0,64,50,71
0,65,57,12
0,54,52,2
0,46,49,5
0,66,87,0
0,64,91,6
0,52,60,15
0,36,48,2
0,44,41,0
0,76,56,14
0,45,60,6
0,42,33,1
0,36,91,2
0,33,91,0
0,59,60,0
0,68,64,3
0,61,73,2
0,59,60,1
0,64,73,0
0,42,37,10
0,59,60,0
0,57,64,0
0,46,51,3
0,63,82,32
0,56,60,0
0,37,82,7
0,33,91,0
0,42,43,5
0,56,73,3
0,56,48,0
0,54,36,1
0,46,54,3
0,68,52,2
0,54,64,2
0,37,91,5
0,42,46,0
0,32,91,0
0,55,60,1
0,67,60,0
0,54,60,3
0,54,56,0
0,66,64,0
0,36,48,2
0,42,51,0
0,28,91,3
0,53,73,5
0,52,64,5
0,52,60,2
0,78,52,0
0,64,56,0
0,61,73,2
0,58,73,0
0,66,64,1
0,36,91,2
0,42,41,0
0,30,91,0
0,42,56,1
0,61,64,4
0,42,57,12
0,73,34,0
0,37,82,10
0,46,49,1
0,78,49,8
0,42,41,2
0,36,32,1
0,62,64,2
0,61,56,35
0,42,60,1
0,58,60,0
0,54,64,2
0,36,82,2
0,34,91,0
0,61,73,1
0,73,55,0
0,64,64,1
0,61,91,65
0,61,40,7
0,37,91,3
0,42,41,1
0,66,91,84
0,61,60,3
0,46,49,8
0,61,82,81
0,36,48,3
0,44,41,0
0,61,82,1
0,63,91,7
0,59,48,11
0,71,52,2
0,47,64,3
0,42,33,2
0,36,91,2
0,35,91,0
0,59,64,3
0,63,60,0
0,66,64,2
0,71,64,3
0,42,37,3
0,61,82,5
0,59,64,5
0,63,60,0
0,46,51,3
0,35,91,0
0,59,73,1
0,63,82,0
0,59,52,0
0,63,73,1
0,37,82,2
0,34,91,0
0,62,56,1
0,58,48,1
0,61,73,3
0,42,43,3
0,33,91,2
0,57,91,1
0,61,82,0
0,61,52,0
0,57,56,1
0,69,49,0
0,57,72,0
0,42,46,3
0,61,56,1
0,37,91,3
0,46,54,0
0,57,73,8
0,36,48,2
0,42,37,0
0,58,69,5
0,42,51,44
0,59,78,7
0,56,56,4
0,54,64,7
0,56,74,0
0,60,74,0
0,75,49,0
0,36,91,2
0,42,41,0
0,32,91,0
0,44,56,1
0,63,73,0
0,60,91,2
0,42,57,1
0,63,73,16
0,54,56,4
0,37,82,2
0,46,49,2
0,68,82,2
0,32,91,8
0,36,32,1
0,69,72,5
0,54,52,3
0,42,60,3
0,36,82,3
0,68,84,3
0,54,52,3
0,66,82,2
0,37,91,2
0,42,41,1
0,60,52,3
0,64,82,4
0,46,49,1
0,60,82,32
0,36,48,5
0,66,91,0
0,54,60,7
0,57,82,1
0,42,73,0
0,64,82,1
0,60,73,0
0,68,87,0
0,54,60,0
0,42,33,1
0,36,91,2
0,30,91,0
0,76,52,1
0,32,91,18
0,42,37,1
0,60,61,0
0,68,90,7
0,54,52,3
0,42,51,2
0,33,91,0
0,37,82,2
0,32,91,0
0,68,81,1
0,60,60,2
0,56,73,1
0,54,73,1
0,63,64,0
0,56,73,0
0,46,57,1
0,44,60,2
0,75,46,0
0,66,73,23
0,56,73,0
0,36,48,4
0,30,91,0
0,68,73,0
0,64,81,0
0,37,91,5
0,32,91,0
0,68,82,0
0,56,64,4
0,30,91,2
0,66,90,0
0,36,48,3
0,56,44,6
0,59,64,3
0,68,100,0
0,76,43,4
0,68,81,1
0,36,91,3
0,51,82,0
0,28,91,0
0,56,70,1
0,64,73,0
0,40,68,1
0,59,82,1
0,64,56,7
0,68,100,0
0,42,57,1
0,37,82,7
0,46,49,2
0,68,98,0
0,36,32,23
0,66,91,0
0,42,37,6
0,36,82,4
0,66,91,0
0,37,91,4
0,42,41,1
0,64,91,0
0,46,49,5
0,64,100,0
0,36,48,10
0,44,41,0
0,52,40,21
0,56,60,0
0,52,60,0
0,56,31,1
0,42,33,1
0,36,91,2
0,59,46,5
0,59,34,2
0,59,56,2
0,42,37,6
0,64,64,96
0,64,56,6
0,64,66,4
0,46,51,3
0,54,60,4
0,69,82,1
0,69,73,0
0,61,64,0
0,66,73,2
0,61,73,1
0,66,73,2
0,61,73,2
0,66,73,0
0,69,73,0
0,37,82,2
0,44,41,0
0,30,91,0
0,42,43,37
0,64,73,0
0,42,54,18
0,64,91,0
0,37,91,17
0,42,31,0
0,68,100,0
0,36,48,10
0,42,54,0
0,54,32,55
0,59,52,3
0,68,101,0
0,54,48,4
0,63,40,4
0,59,40,0
0,54,56,1
0,47,73,2
0,36,91,2
0,42,41,0
0,35,91,0
0,59,73,1
0,63,60,0
0,63,46,2
0,66,91,0
0,42,57,12
0,66,100,0
0,37,82,7
0,46,49,2
0,56,44,5
0,61,52,25
0,49,67,1
0,64,67,2
0,54,58,2
0,59,76,0
0,61,52,0
0,56,56,0
0,64,56,1
0,64,48,0
0,37,91,4
0,36,32,1
0,42,60,23
0,36,82,4
0,66,91,0
0,37,91,32
0,42,41,1
0,66,100,0
0,64,82,0
0,46,49,6
0,59,30,10
0,51,76,4
0,59,52,1
0,66,76,1
0,59,76,0
0,54,54,0
0,66,36,0
0,63,56,1
0,66,100,0
0,36,48,2
0,44,41,0
0,39,91,0
0,63,36,1
0,66,48,1
0,42,33,108
0,36,91,2
0,42,37,113
0,46,51,12
0,61,48,0
0,73,82,19
0,65,73,2
0,37,82,2
0,68,68,0
0,61,67,0
0,41,91,0
0,53,76,1
0,65,60,1
0,68,48,25
0,42,43,2
0,42,46,9
0,37,91,58
0,46,54,0
0,36,48,5
0,42,51,0
0,61,31,3
0,57,48,2
0,66,52,0
0,61,56,1
0,66,60,6
0,69,40,14
0,42,64,3
0,69,73,0
0,36,91,7
0,42,41,0
0,42,91,0
0,42,57,113
0,69,84,0
0,37,82,2
0,46,49,2
0,69,82,0
0,42,41,2
0,36,32,1
0,42,60,30
0,69,100,0
0,36,82,2
0,68,73,0
0,37,91,3
0,42,41,1
0,68,100,0
0,46,49,9
0,66,82,0
0,36,48,7
0,44,41,0
0,68,91,0
0,42,33,17
0,36,91,2
0,30,91,0
0,66,100,0
0,42,37,8
0,46,51,109
0,37,82,110
0,42,82,0
0,61,73,1
0,66,73,1
0,64,73,4
0,42,43,2
0,42,91,2
0,61,64,18
0,42,46,7
0,40,90,0
0,59,40,9
0,37,91,0
0,46,54,0
0,37,91,0
0,66,82,0
0,57,40,0
0,36,48,10
0,42,37,0
0,33,82,0
0,66,82,0
0,60,29,26
0,64,44,32
0,66,40,3
0,64,73,21
0,66,60,1
0,50,73,4
0,71,60,0
0,60,64,0
0,36,91,3
0,42,41,0
0,38,91,0
0,66,100,0
0,71,16,6
0,66,91,0
0,42,57,5
0,54,31,14
0,60,40,10
0,37,82,4
0,68,91,0
0,46,49,1
0,69,100,0
0,36,32,3
0,62,31,0
0,66,68,2
0,42,60,15
0,36,82,4
0,62,73,2
0,66,64,3
0,66,100,0
0,37,91,113
0,42,41,1
0,68,73,26
0,64,64,3
0,46,49,11
0,69,82,28
0,66,91,3
0,36,48,39
0,44,41,0
0,33,91,0
0,64,82,1
0,68,64,0
0,68,73,2
0,71,82,0
0,42,33,2
0,36,91,2
0,38,91,0
0,64,64,6
0,71,60,3
0,60,56,0
0,68,44,0
0,42,37,109
0,69,56,33
0,66,44,6
0,46,51,66
0,68,52,31
0,64,48,3
0,37,82,2
0,42,37,0
0,42,51,1
0,64,56,2
0,60,60,2
0,66,60,2
0,69,60,0
0,62,48,0
0,66,36,2
0,36,48,2
0,46,57,0
0,37,91,5
0,42,37,0
0,42,51,8
0,36,48,2
0,56,27,2
0,59,52,2
0,36,91,2
0,42,49,0
0,40,91,0
0,40,52,3
0,59,64,0
0,56,60,0
0,47,64,3
0,52,56,1
0,64,52,10
0,68,52,0
0,56,21,9
0,42,57,7
0,56,52,13
0,68,75,0
0,64,56,0
0,37,82,5
0,46,49,2
0,64,64,6
0,68,60,5
0,64,64,0
0,59,64,0
0,59,64,0
0,68,100,0
0,28,91,4
0,36,32,1
0,68,82,5
0,42,37,3
0,36,82,4
0,66,82,0
0,54,56,6
0,37,91,2
0,42,41,1
0,56,64,35
0,59,82,13
0,64,82,0
0,66,82,0
0,46,49,4
0,64,82,6
0,64,82,0
0,59,73,1
0,36,48,7
0,44,41,0
0,59,36,1
0,68,61,1
0,66,109,0
0,42,33,1
0,68,49,0
0,36,91,2
0,28,91,0
0,68,43,4
0,68,31,4
0,64,82,4
0,42,37,1
0,64,73,97
0,46,51,4
0,64,49,1
0,61,21,25
0,61,73,6
0,42,64,5
0,66,73,0
0,69,73,2
0,57,73,2
0,37,82,3
0,44,41,0
0,42,91,0
0,66,56,2
0,61,64,0
0,66,73,0
0,69,52,5
0,42,57,37
0,64,52,0
0,42,40,18
0,61,36,1
0,64,82,0
0,68,56,1
0,64,44,3
0,37,91,4
0,42,75,0
0,64,60,2
0,61,52,3
0,68,36,16
0,68,91,0
0,36,48,10
0,42,43,0
0,35,82,0
0,54,28,45
0,68,98,0
0,59,56,5
0,71,52,3
0,63,56,0
0,59,48,1
0,63,64,1
0,59,73,1
0,36,91,2
0,42,41,0
0,47,82,0
0,35,91,0
0,71,73,1
0,63,48,0
0,66,82,0
0,42,57,12
0,66,100,0
0,37,82,3
0,46,49,2
0,56,36,9
0,61,48,16
0,64,60,18
0,71,64,1
0,61,48,1
0,49,64,1
0,64,82,0
0,71,56,2
0,37,90,0
0,36,32,1
0,61,64,0
0,64,48,0
0,42,60,30
0,36,82,4
0,66,100,0
0,37,91,40
0,66,91,0
0,42,41,1
0,64,82,0
0,46,49,8
0,59,26,2
0,66,100,21
0,71,56,0
0,63,48,2
0,63,56,1
0,66,56,1
0,36,48,3
0,44,41,0
0,39,91,0
0,63,60,3
0,66,64,0
0,71,68,0
0,51,64,0
0,66,48,0
0,42,33,108
0,36,91,2
0,42,37,113
0,46,51,12
0,61,28,10
0,68,48,28
0,68,60,7
0,65,73,0
0,37,82,2
0,44,41,0
0,41,91,0
0,53,73,1
0,61,56,0
0,65,56,4
0,68,40,7
0,42,43,30
0,68,91,7
0,42,54,112
0,73,73,24
0,37,91,68
0,46,60,0
0,71,64,35
0,36,48,10
0,57,28,40
0,61,48,2
0,36,91,28
0,42,41,0
0,42,91,0
