track,note,velocity,time
1,68,73,19894
1,70,115,9
1,64,104,99
1,65,94,10
1,63,115,96
1,61,115,104
1,63,115,96
1,61,115,87
1,63,115,115
1,61,104,114
1,63,104,114
1,65,86,97
1,63,104,0
1,65,115,28
1,58,94,1117
1,58,104,76
1,61,104,27
1,63,104,99
1,61,115,89
1,63,104,83
1,65,86,32
1,64,68,0
1,63,104,66
1,61,104,42
1,61,104,57
1,63,104,20
1,61,104,0
1,61,104,58
1,70,115,566
1,64,104,82
1,65,86,16
1,63,104,112
1,61,94,112
1,63,104,119
1,61,104,110
1,63,104,122
1,61,115,93
1,63,104,105
1,65,79,24
1,63,94,49
1,61,104,62
1,58,104,21
1,58,94,750
1,58,115,76
1,61,104,28
1,63,115,98
1,61,104,104
1,65,104,108
1,68,115,57
1,63,115,98
1,65,104,12
1,63,94,62
1,61,94,27
1,61,115,67
1,68,104,323
1,70,115,92
1,70,115,109
1,73,94,89
1,75,94,20
1,73,104,90
1,70,115,109
1,68,104,122
1,75,104,122
1,73,115,94
1,70,115,83
1,68,115,92
1,70,104,22
1,68,115,104
1,70,94,71
1,68,115,89
1,65,104,10
1,61,115,620
1,63,115,99
1,61,104,35
1,63,104,128
1,65,79,5
1,68,115,5
1,70,115,76
1,65,73,125
1,63,115,61
1,61,115,44
1,58,104,8
1,61,115,101
1,63,104,36
1,61,104,0
1,70,104,173
1,70,94,111
1,70,115,132
1,75,104,100
1,73,86,3
1,73,104,89
1,70,115,108
1,68,115,120
1,75,115,114
1,73,104,100
1,70,115,95
1,68,115,22
1,70,115,36
1,68,115,106
1,70,94,72
1,68,115,97
1,65,94,10
1,58,104,591
1,61,104,81
1,63,115,78
1,65,104,113
1,68,104,110
1,70,115,117
1,68,104,113
1,70,115,79
1,73,115,16
1,76,115,72
1,77,115,17
1,75,115,14
1,73,127,11
1,70,127,16
1,70,115,1080
1,65,115,119
1,63,104,96
1,61,104,5
1,63,127,95
1,61,115,111
1,63,104,36
1,61,127,0
1,58,104,76
1,56,104,12
1,53,104,23
1,58,115,435
1,58,104,53
1,61,104,106
1,63,104,104
1,65,115,85
1,68,104,116
1,65,94,101
1,63,104,23
1,61,104,89
1,58,115,24
1,70,127,1046
1,63,115,109
1,65,104,13
1,63,115,66
1,61,115,7
1,63,115,140
1,63,127,93
1,63,115,92
1,65,68,34
1,63,115,71
1,61,115,0
1,63,63,27
1,58,104,0
1,70,127,713
1,64,115,85
1,65,104,7
1,63,127,105
1,61,127,104
1,68,104,91
1,70,127,90
1,63,115,102
1,61,115,6
1,70,127,721
1,64,79,100
1,65,115,6
1,63,115,96
1,61,115,89
1,63,94,81
1,61,115,38
1,63,115,99
1,61,104,103
1,63,115,118
1,61,115,10
1,58,115,7
1,58,94,1191
1,58,115,55
1,61,127,94
1,63,115,103
1,65,115,94
1,68,115,95
1,63,104,95
1,65,104,20
1,63,104,31
1,61,104,3
1,61,127,57
1,70,127,236
1,64,115,90
1,65,73,16
1,63,115,100
1,61,115,97
1,63,115,98
1,61,115,108
1,63,127,103
1,61,115,99
1,61,115,108
1,63,115,88
1,65,104,28
1,68,115,35
1,70,115,0
1,58,127,714
1,58,104,64
1,58,109,44
1,61,106,149
1,63,127,83
1,64,115,86
1,65,115,13
1,68,115,84
1,63,115,103
1,65,104,4
1,63,115,48
1,61,104,10
1,61,127,69
1,70,127,204
1,70,115,108
1,70,127,111
1,73,115,97
1,75,94,23
1,73,41,16
1,73,115,49
1,70,104,97
1,68,104,89
1,75,104,89
1,73,115,0
1,73,51,13
1,73,104,34
1,70,127,89
1,70,127,125
1,68,127,97
1,70,115,0
1,68,115,87
1,65,115,19
1,65,115,638
1,65,115,82
1,63,63,15
1,63,115,169
1,61,115,61
1,63,104,8
1,65,94,134
1,63,115,64
1,61,127,19
1,68,94,66
1,70,115,26
1,63,104,86
1,61,94,58
1,58,104,32
1,70,127,288
1,70,115,76
1,73,115,75
1,75,104,19
1,73,127,78
1,70,115,74
1,70,127,71
1,70,104,61
1,75,104,44
1,73,104,0
1,73,115,54
1,70,115,38
1,70,115,59
1,68,104,12
1,70,115,30
1,68,104,89
1,70,115,59
1,68,115,128
1,65,115,6
1,58,104,558
1,58,86,38
1,61,104,28
1,63,115,62
1,63,104,84
1,65,86,43
1,68,115,42
1,70,115,1
1,68,127,90
1,70,127,74
1,73,115,25
1,80,115,79
1,73,104,69
1,75,94,47
1,73,104,59
1,70,115,36
1,70,115,927
1,65,115,119
1,63,104,96
1,61,104,5
1,63,127,95
1,61,115,111
1,63,104,36
1,61,127,0
1,58,104,76
1,56,104,12
1,53,104,23
1,58,115,435
1,58,104,53
1,61,104,106
1,63,104,104
1,65,115,85
1,68,104,116
1,65,94,101
1,63,104,23
1,61,104,89
1,58,115,24
1,70,127,1046
1,63,115,109
1,65,104,13
1,63,115,66
1,61,115,7
1,63,115,140
1,63,127,93
1,63,115,92
1,65,68,34
1,63,115,71
1,61,115,0
1,63,63,27
1,58,104,0
1,70,127,703
1,70,127,109
1,70,127,116
1,70,127,99
1,68,115,69
1,70,115,44
1,70,115,91
1,68,104,105
1,70,127,0
1,73,104,29
1,68,104,46
1,70,104,53
1,68,104,86
1,65,115,11
1,70,127,1015
1,70,115,74
1,68,127,93
1,70,115,19
1,68,104,75
1,65,94,0
1,63,104,71
1,61,127,0
1,63,127,134
1,63,127,108
1,63,94,71
1,65,79,34
1,63,86,47
1,61,115,44
1,58,104,4
1,58,104,635
1,58,104,102
1,61,115,94
1,63,115,90
1,63,104,86
1,65,104,0
1,64,63,0
1,68,104,92
1,64,104,90
1,65,73,10
1,63,94,90
1,61,115,50
1,58,94,22
1,70,127,1462
1,63,104,115
1,63,104,92
1,61,127,0
1,63,127,184
1,61,115,107
1,63,115,21
1,61,127,30
1,58,115,74
1,56,115,0
1,53,127,20
1,70,127,349
1,63,115,93
1,65,86,18
1,62,63,0
1,63,127,61
1,61,115,86
1,68,127,77
1,70,115,68
1,61,94,90
1,63,127,11
1,61,115,139
1,70,127,12557
1,70,115,96
1,73,104,100
1,75,104,23
1,73,115,20
1,75,104,85
1,76,115,7
1,75,115,105
1,73,115,119
1,75,86,40
1,73,127,3
1,70,127,94
1,70,115,90
1,68,115,100
1,70,115,31
1,68,115,0
1,65,115,25
1,68,86,699
1,70,127,4
1,63,115,103
1,63,115,104
1,63,115,114
1,61,115,17
1,70,127,113
1,68,104,77
1,70,115,21
1,68,115,5
1,65,115,9
1,70,127,1015
1,70,115,76
1,73,115,75
1,75,104,19
1,73,127,78
1,70,115,74
1,70,127,71
1,70,104,61
1,75,104,44
1,73,104,0
1,73,115,54
1,70,115,38
1,70,115,59
1,68,104,12
1,70,115,30
1,68,104,89
1,70,115,59
1,68,115,128
1,65,115,6
1,58,104,558
1,58,86,38
1,61,104,28
1,63,115,62
1,63,104,84
1,65,86,43
1,68,115,42
1,70,115,1
1,68,127,90
1,70,127,74
1,73,115,25
1,80,115,79
1,73,104,69
1,75,94,47
1,73,104,59
1,70,115,36
1,70,104,6190
1,73,115,7
1,75,104,104
1,77,94,112
1,75,94,0
1,75,94,12
1,73,115,192
1,70,127,88
1,63,104,18484
1,61,104,119
1,63,86,45
1,61,94,22
1,63,104,76
1,61,104,103
1,63,86,30
1,63,104,69
1,65,79,45
1,63,115,72
1,61,104,0
1,58,94,21
1,63,104,527
1,61,115,107
1,63,94,47
1,63,115,85
1,61,104,36
1,63,104,1681
1,61,127,130
1,61,104,138
1,63,115,0
1,61,104,101
1,63,104,32
1,63,104,69
1,61,73,6
1,65,86,7
1,63,104,53
1,61,104,48
1,58,104,11
1,63,115,189
1,61,115,124
1,63,86,31
1,61,104,23
1,58,79,45
1,61,68,13
1,63,104,25
1,65,104,22
1,70,115,1075
1,63,104,275
1,61,104,123
1,63,104,38
1,61,115,22
1,63,104,143
1,61,104,129
1,63,115,49
1,63,115,120
1,61,104,66
1,58,94,0
1,63,115,170
1,61,115,106
1,63,94,52
1,63,104,75
1,65,73,39
1,63,94,45
1,61,115,44
1,58,104,27
1,61,104,18
1,63,104,21
1,65,115,25
1,68,115,140
1,70,94,22
1,68,104,56
1,70,86,10
1,63,115,194
1,61,104,103
1,63,86,51
1,63,86,60
1,61,104,37
1,63,115,138
1,61,115,105
1,63,104,43
1,63,115,98
1,61,104,7
1,58,86,1
1,68,115,188
1,65,104,115
1,68,104,11
1,70,115,32
1,68,86,106
1,70,115,32
1,68,115,160
1,64,86,152
1,65,73,4
1,63,104,52
1,61,104,62
1,58,94,5
1,61,104,50
1,63,94,0
1,61,104,100
1,58,68,5
1,58,115,97
1,66,51,7
2,65,90,768
2,61,93,0
2,70,106,0
2,65,80,16561
2,61,83,0
2,70,96,0
2,65,80,5041
2,61,83,0
2,70,96,0
2,65,80,29617
2,61,83,0
2,70,96,0
2,65,80,5041
2,61,83,0
2,70,96,0
2,65,80,41905
2,61,83,0
2,70,96,0
2,65,80,5041
2,61,83,0
2,70,96,0
3,61,115,1920
3,70,104,0
3,65,115,0
3,70,94,111
3,65,104,0
3,61,104,0
3,70,84,104
3,65,93,0
3,61,93,0
3,70,74,111
3,65,82,0
3,61,82,0
3,61,105,17000
3,70,94,0
3,65,105,0
3,61,105,6063
3,70,94,0
3,65,105,0
3,61,105,30639
3,70,94,0
3,65,105,0
3,61,105,6063
3,70,94,0
3,65,105,0
3,61,105,42927
3,70,94,0
3,65,105,0
3,61,105,6063
3,70,94,0
3,65,105,0
3,61,105,33711
3,70,94,0
3,65,105,0
3,61,105,2991
3,70,94,0
3,65,105,0
3,61,105,2991
3,70,94,0
3,65,105,0
3,61,105,2991
3,70,94,0
3,65,105,0
4,61,127,6720
4,58,104,0
4,61,127,57
4,58,94,0
4,61,115,52
4,58,94,0
4,61,127,53
4,58,94,0
4,61,115,54
4,58,86,0
4,61,127,56
4,58,104,0
4,61,127,9
4,58,115,0
4,65,115,798
4,58,104,0
4,65,104,54
4,58,94,0
4,65,115,50
4,61,79,0
4,58,86,0
4,65,94,47
4,61,94,0
4,65,115,47
4,61,104,0
4,65,104,52
4,61,104,0
4,65,104,49
4,61,104,0
4,63,127,41
4,60,115,0
4,61,127,804
4,58,104,0
4,61,115,69
4,58,86,0
4,61,115,53
4,58,94,0
4,61,115,50
4,58,86,0
4,61,115,56
4,58,86,0
4,61,127,58
4,58,115,0
4,61,115,30
4,58,104,0
4,65,127,806
4,58,115,0
4,65,115,52
4,58,86,0
4,65,104,48
4,61,115,0
4,65,104,49
4,61,104,0
4,65,115,49
4,61,104,0
4,65,115,51
4,61,104,0
4,65,115,52
4,61,104,0
4,63,127,39
4,60,127,0
4,61,127,804
4,58,104,0
4,61,127,57
4,58,94,0
4,61,115,52
4,58,94,0
4,61,127,53
4,58,94,0
4,61,115,54
4,58,86,0
4,61,127,56
4,58,104,0
4,61,127,9
4,58,115,0
4,65,115,798
4,58,104,0
4,65,104,54
4,58,94,0
4,65,115,50
4,61,79,0
4,58,86,0
4,65,94,47
4,61,94,0
4,65,115,47
4,61,104,0
4,65,104,52
4,61,104,0
4,65,104,49
4,61,104,0
4,63,127,41
4,60,115,0
4,61,127,804
4,58,104,0
4,61,115,69
4,58,86,0
4,61,115,53
4,58,94,0
4,61,115,50
4,58,86,0
4,61,115,56
4,58,86,0
4,61,127,58
4,58,115,0
4,61,115,30
4,58,104,0
4,65,127,806
4,58,115,0
4,65,115,52
4,58,86,0
4,65,104,48
4,61,115,0
4,65,104,49
4,61,104,0
4,65,115,49
4,61,104,0
4,65,115,51
4,61,104,0
4,65,115,52
4,61,104,0
4,63,127,39
4,60,127,0
4,58,104,12516
4,61,104,0
4,65,104,0
4,68,104,384
4,61,104,0
4,65,104,0
4,70,104,14
4,63,104,0
4,66,104,0
4,68,104,4
4,73,104,0
4,65,115,0
4,75,104,1628
4,72,115,0
4,68,115,0
4,73,104,7
4,77,86,0
4,70,86,0
4,72,86,2
4,68,104,0
4,75,94,0
4,73,104,6
4,68,104,0
4,65,94,0
4,66,94,5
4,70,86,0
4,63,104,0
4,61,115,6
4,65,104,0
4,68,94,0
4,61,104,32
4,68,86,0
4,65,94,0
4,63,94,8
4,70,104,0
4,66,104,0
4,68,104,4
4,65,94,0
4,61,115,0
4,65,104,9
4,61,104,0
4,58,104,0
4,61,94,32
4,65,104,0
4,58,104,0
4,61,104,1660
4,58,104,0
4,65,115,0
4,61,104,4
4,65,94,0
4,68,104,0
4,66,104,4
4,63,127,0
4,70,104,0
4,68,115,20
4,65,115,0
4,73,104,0
4,72,104,1663
4,68,104,0
4,75,104,0
4,73,104,1
4,70,94,0
4,77,79,0
4,72,94,3
4,75,94,0
4,68,104,0
4,68,94,62
4,70,63,0
4,73,104,0
4,65,94,0
4,70,104,69
4,66,94,0
4,63,104,0
4,65,104,25
4,61,104,0
4,68,104,0
4,75,104,358
4,70,115,39
4,67,115,5
4,63,104,5
4,73,104,192
4,68,104,24
4,65,115,18
4,61,115,3
4,58,104,48
4,61,127,250
4,58,104,0
4,61,127,57
4,58,94,0
4,61,115,52
4,58,94,0
4,61,127,53
4,58,94,0
4,61,115,54
4,58,86,0
4,61,127,56
4,58,104,0
4,61,127,9
4,58,115,0
4,65,115,798
4,58,104,0
4,65,104,54
4,58,94,0
4,65,115,50
4,61,79,0
4,58,86,0
4,65,94,47
4,61,94,0
4,65,115,47
4,61,104,0
4,65,104,52
4,61,104,0
4,65,104,49
4,61,104,0
4,63,127,41
4,60,115,0
4,61,127,804
4,58,104,0
4,61,115,69
4,58,86,0
4,61,115,53
4,58,94,0
4,61,115,50
4,58,86,0
4,61,115,56
4,58,86,0
4,61,127,58
4,58,115,0
4,61,115,30
4,58,104,0
4,65,127,806
4,58,115,0
4,65,115,52
4,58,86,0
4,65,104,48
4,61,115,0
4,65,104,49
4,61,104,0
4,65,115,49
4,61,104,0
4,65,115,51
4,61,104,0
4,65,115,52
4,61,104,0
4,63,127,39
4,60,127,0
4,61,127,804
4,58,104,0
4,61,127,57
4,58,94,0
4,61,115,52
4,58,94,0
4,61,127,53
4,58,94,0
4,61,115,54
4,58,86,0
4,61,127,56
4,58,104,0
4,61,127,9
4,58,115,0
4,65,115,798
4,58,104,0
4,65,104,54
4,58,94,0
4,65,115,50
4,61,79,0
4,58,86,0
4,65,94,47
4,61,94,0
4,65,115,47
4,61,104,0
4,65,104,52
4,61,104,0
4,65,104,49
4,61,104,0
4,63,127,41
4,60,115,0
4,61,127,804
4,58,104,0
4,61,115,69
4,58,86,0
4,61,115,53
4,58,94,0
4,61,115,50
4,58,86,0
4,61,115,56
4,58,86,0
4,61,127,58
4,58,115,0
4,61,115,30
4,58,104,0
4,65,127,806
4,58,115,0
4,65,115,52
4,58,86,0
4,65,104,48
4,61,115,0
4,65,104,49
4,61,104,0
4,65,115,49
4,61,104,0
4,65,115,51
4,61,104,0
4,65,115,52
4,61,104,0
4,63,127,39
4,60,127,0
4,58,104,12516
4,61,104,0
4,65,104,0
4,68,104,384
4,61,104,0
4,65,104,0
4,70,104,14
4,63,104,0
4,66,104,0
4,68,104,4
4,73,104,0
4,65,115,0
4,75,104,1628
4,72,115,0
4,68,115,0
4,73,104,7
4,77,86,0
4,70,86,0
4,72,86,2
4,68,104,0
4,75,94,0
4,73,104,6
4,68,104,0
4,65,94,0
4,66,94,5
4,70,86,0
4,63,104,0
4,61,115,6
4,65,104,0
4,68,94,0
4,61,104,32
4,68,86,0
4,65,94,0
4,63,94,8
4,70,104,0
4,66,104,0
4,68,104,4
4,65,94,0
4,61,115,0
4,65,104,9
4,61,104,0
4,58,104,0
4,61,94,32
4,65,104,0
4,58,104,0
4,61,104,1660
4,58,104,0
4,65,115,0
4,61,104,4
4,65,94,0
4,68,104,0
4,66,104,4
4,63,127,0
4,70,104,0
4,68,115,20
4,65,115,0
4,73,104,0
4,72,104,1663
4,68,104,0
4,75,104,0
4,73,104,1
4,70,94,0
4,77,79,0
4,72,94,3
4,75,94,0
4,68,104,0
4,68,94,62
4,70,63,0
4,73,104,0
4,65,94,0
