track,note,velocity,time
0,71,34,6144
0,40,22,0
0,59,16,192
0,64,44,0
0,67,46,0
0,59,66,12
0,71,66,0
0,67,92,16
0,59,38,8
0,64,52,0
0,67,42,8
0,64,52,32
0,71,64,0
0,38,54,0
0,66,42,4
0,59,29,12
0,62,35,0
0,66,31,0
0,71,60,0
0,59,29,44
0,62,54,0
0,66,46,192
0,71,62,0
0,38,62,0
0,59,32,132
0,62,54,0
0,66,52,0
0,66,88,0
0,64,54,8
0,66,102,4
0,71,60,0
0,59,31,0
0,62,46,0
0,69,56,4
0,66,42,4
0,64,29,32
0,69,62,0
0,37,31,0
0,57,18,4
0,61,44,0
0,64,66,0
0,69,58,0
0,57,58,192
0,61,52,0
0,64,38,0
0,67,62,0
0,47,58,0
0,55,37,192
0,59,40,0
0,62,46,0
0,62,80,12
0,62,62,28
0,67,64,28
0,67,56,0
0,71,84,32
0,55,30,4
0,59,46,0
0,67,50,4
0,62,56,0
0,69,80,8
0,69,48,0
0,45,68,0
0,57,34,192
0,60,42,0
0,66,56,16
0,69,56,0
0,57,34,4
0,60,48,0
0,64,62,0
0,63,29,0
0,45,56,0
0,51,42,0
0,54,44,192
0,59,52,0
0,69,88,16
0,67,64,104
0,63,58,0
0,69,97,4
0,57,30,4
0,59,39,0
0,64,54,4
0,67,56,4
0,62,54,0
0,71,66,16
0,67,50,0
0,43,54,0
0,67,66,4
0,52,32,4
0,55,44,0
0,64,54,4
0,59,48,0
0,64,58,0
0,55,32,0
0,59,42,124
0,64,42,0
0,64,58,0
0,43,56,0
0,55,48,88
0,58,40,192
0,61,46,0
0,64,62,0
0,40,56,0
0,57,76,96
0,55,39,96
0,59,58,0
0,60,62,76
0,58,52,0
0,67,46,0
0,66,66,0
0,61,48,0
0,64,38,0
0,59,38,8
0,62,64,4
0,64,40,44
0,69,72,12
0,64,58,0
0,42,48,0
0,57,40,8
0,64,64,4
0,64,36,12
0,60,40,0
0,64,58,0
0,69,56,0
0,64,50,0
0,60,46,0
0,57,40,0
0,47,62,0
0,57,54,192
0,59,37,192
0,63,54,0
0,66,27,28
0,66,46,0
0,66,64,8
0,63,54,0
0,66,46,0
0,67,42,4
0,67,46,0
0,40,58,0
0,59,58,0
0,64,58,0
0,55,58,0
0,64,84,0
0,55,46,0
0,59,46,0
0,64,27,0
0,67,54,0
0,59,40,0
0,64,44,192
0,67,54,0
0,62,46,20
0,67,48,80
0,71,68,44
0,71,66,0
0,67,28,0
0,62,19,0
0,71,16,0
0,40,55,0
0,40,55,0
0,59,34,32
0,64,40,0
0,67,40,8
0,71,66,0
0,59,39,128
0,64,54,0
0,67,48,0
0,62,36,160
0,66,33,28
0,71,68,0
0,66,31,0
0,62,14,0
0,71,13,0
0,38,55,0
0,38,55,0
0,71,56,28
0,59,33,4
0,62,48,0
0,66,42,0
0,71,42,0
0,59,26,192
0,62,46,0
0,66,44,0
0,69,90,0
0,66,35,8
0,71,44,0
0,66,31,0
0,71,27,0
0,38,54,0
0,38,54,0
0,71,56,12
0,59,34,8
0,62,52,0
0,66,50,4
0,71,56,0
0,59,35,192
0,66,48,0
0,67,56,0
0,66,33,0
0,67,64,36
0,69,58,0
0,69,40,0
0,64,54,0
0,37,54,0
0,37,54,0
0,64,36,12
0,69,56,12
0,57,30,8
0,61,44,0
0,64,54,0
0,69,72,0
0,64,56,192
0,61,56,0
0,64,62,0
0,57,44,124
0,69,90,0
0,62,30,88
0,67,48,52
0,67,62,0
0,67,37,0
0,62,35,0
0,35,54,0
0,35,54,0
0,55,31,4
0,59,52,0
0,62,50,0
0,67,58,0
0,55,34,0
0,59,58,0
0,66,92,184
0,66,60,8
0,65,62,0
0,65,26,0
0,60,6,0
0,33,54,0
0,33,54,0
0,65,102,36
0,53,33,4
0,57,52,0
0,60,48,0
0,65,52,0
0,57,26,0
0,65,60,0
0,64,84,0
0,64,46,0
0,69,90,0
0,63,56,120
0,63,50,0
0,57,17,0
0,63,33,0
0,33,53,0
0,33,53,0
0,54,40,0
0,57,48,0
0,59,46,0
0,63,66,0
0,59,58,0
0,57,60,0
0,54,39,0
0,55,22,104
0,59,36,36
0,64,64,4
0,64,64,0
0,64,37,0
0,59,52,0
0,31,53,0
0,31,53,0
0,55,40,8
0,59,46,0
0,55,34,0
0,59,56,172
0,59,42,4
0,67,76,4
0,66,60,120
0,64,58,4
0,69,90,24
0,64,64,0
0,64,36,0
0,59,35,0
0,43,53,0
0,43,53,0
0,55,35,196
0,58,60,92
0,61,76,16
0,58,64,4
0,61,54,4
0,67,58,0
0,66,50,0
0,64,46,0
0,48,32,168
0,64,58,0
0,57,31,0
0,64,25,0
0,42,53,0
0,42,53,0
0,52,32,24
0,70,5,24
0,54,35,0
0,70,8,48
0,61,50,0
0,70,10,48
0,54,35,0
0,70,13,48
0,61,50,0
0,70,15,48
0,54,62,0
0,70,17,48
0,61,84,0
0,70,20,48
0,54,62,0
0,61,84,40
0,70,22,8
0,36,52,0
0,36,52,0
0,63,31,0
0,69,29,0
0,66,39,0
0,66,40,0
0,63,36,0
0,69,37,0
0,35,52,0
0,35,52,0
0,59,52,92
0,60,81,0
0,59,98,0
0,60,87,0
0,59,98,0
0,57,93,0
0,67,58,0
0,55,81,0
0,66,56,0
0,54,52,0
0,59,38,0
0,64,46,0
0,55,25,0
0,59,28,0
0,64,28,0
0,40,55,0
0,40,58,0
0,64,84,0
0,55,46,0
0,59,46,0
0,44,32,0
0,64,27,0
0,67,54,0
0,59,40,0
0,64,44,88
0,44,33,0
0,67,54,0
0,62,46,20
0,67,48,80
0,71,68,44
0,71,66,0
0,67,28,0
0,62,19,0
0,71,16,0
0,40,55,0
0,40,55,0
0,59,34,8
0,59,9,0
0,55,12,0
0,59,14,0
0,55,17,0
0,64,40,0
0,44,33,0
0,59,20,0
0,55,22,0
0,59,25,0
0,55,28,0
0,67,40,48
0,59,30,0
0,55,33,0
0,59,36,0
0,55,39,0
0,71,66,0
0,59,41,0
0,55,41,0
0,59,37,0
0,55,33,0
0,59,39,48
0,59,30,0
0,55,26,0
0,59,22,0
0,55,18,0
0,64,54,0
0,44,33,0
0,59,15,0
0,55,11,0
0,59,7,0
0,67,48,0
0,62,36,160
0,66,33,28
0,71,68,0
0,66,31,0
0,62,14,0
0,71,13,0
0,38,55,0
0,38,55,0
0,71,56,28
0,59,33,76
0,59,9,0
0,54,12,0
0,59,14,0
0,54,17,0
0,62,48,0
0,44,33,0
0,59,20,0
0,54,22,0
0,59,25,0
0,54,28,0
0,66,42,0
0,59,30,0
0,54,33,0
0,59,36,0
0,54,39,0
0,71,42,0
0,59,41,0
0,54,41,0
0,59,37,0
0,54,33,0
0,59,26,48
0,59,30,0
0,54,26,0
0,59,22,0
0,54,18,0
0,62,46,0
0,44,34,0
0,59,15,0
0,54,11,0
0,59,7,0
0,66,44,0
0,69,90,0
0,66,35,8
0,71,44,0
0,66,31,0
0,71,27,0
0,38,54,0
0,38,54,0
0,71,56,12
0,59,34,16
0,59,9,0
0,54,12,0
0,59,14,0
0,54,17,0
0,62,52,0
0,44,34,0
0,59,20,0
0,54,22,0
0,59,25,0
0,54,28,0
0,66,50,4
0,59,30,0
0,54,33,0
0,59,36,0
0,54,39,0
0,71,56,0
0,59,41,0
0,54,41,0
0,59,37,0
0,54,33,0
0,59,35,36
0,59,30,0
0,54,26,0
0,59,22,0
0,54,18,0
0,66,48,0
0,44,34,0
0,59,15,0
0,54,11,0
0,59,7,0
0,67,56,0
0,66,33,0
0,67,64,36
0,69,58,0
0,69,40,0
0,64,54,0
0,37,54,0
0,37,54,0
0,64,36,12
0,69,56,12
0,57,30,140
0,57,9,0
0,52,12,0
0,57,14,0
0,52,17,0
0,61,44,0
0,44,35,0
0,57,20,0
0,52,22,0
0,57,25,0
0,52,28,0
0,64,54,0
0,57,30,0
0,52,33,0
0,57,36,0
0,52,39,0
0,69,72,0
0,57,41,0
0,52,41,0
0,57,37,0
0,52,33,0
0,64,56,48
0,57,30,0
0,52,26,0
0,57,22,0
0,52,18,0
0,61,56,0
0,44,35,0
0,57,15,0
0,64,62,0
0,52,11,0
0,57,7,0
0,57,44,48
0,69,90,0
0,62,30,88
0,67,48,52
0,67,62,0
0,67,37,0
0,62,35,0
0,35,54,0
0,35,54,0
0,55,31,8
0,55,9,0
0,50,12,0
0,55,14,0
0,50,17,0
0,59,52,0
0,44,35,0
0,55,20,0
0,50,22,0
0,55,25,0
0,50,28,0
0,62,50,0
0,55,30,0
0,50,33,0
0,55,36,0
0,50,39,0
0,67,58,0
0,55,41,0
0,50,41,0
0,55,37,0
0,50,33,0
0,55,34,0
0,55,30,0
0,50,26,0
0,55,22,0
0,50,18,0
0,59,58,0
0,44,36,0
0,55,15,0
0,50,11,0
0,55,7,0
0,66,92,40
0,66,60,8
0,65,62,0
0,65,26,0
0,60,6,0
0,33,54,0
0,33,54,0
0,65,102,36
0,53,33,4
0,53,9,0
0,48,12,0
0,53,14,0
0,48,17,0
0,57,52,0
0,44,36,0
0,53,20,0
0,48,22,0
0,53,25,0
0,48,28,0
0,60,48,0
0,53,30,0
0,48,33,0
0,53,36,0
0,48,39,0
0,65,52,0
0,53,41,0
0,48,41,0
0,53,37,0
0,48,33,0
0,57,26,0
0,53,30,0
0,48,26,0
0,53,22,0
0,48,18,0
0,65,60,0
0,44,36,0
0,53,15,0
0,48,11,0
0,53,7,0
0,64,84,0
0,64,46,0
0,69,90,0
0,63,56,120
0,63,50,0
0,57,17,0
0,63,33,0
0,33,53,0
0,33,53,0
0,54,40,0
0,51,9,0
0,47,12,0
0,51,14,0
0,47,17,0
0,57,48,0
0,44,37,0
0,51,20,0
0,47,22,0
0,51,25,0
0,47,28,0
0,59,46,0
0,51,30,0
0,47,33,0
0,51,36,0
0,47,39,0
0,63,66,0
0,51,41,0
0,47,41,0
0,51,37,0
0,47,33,0
0,59,58,0
0,51,30,0
0,47,26,0
0,51,22,0
0,47,18,0
0,57,60,0
0,44,37,0
0,51,15,0
0,47,11,0
0,51,7,0
0,54,39,0
0,55,22,104
0,59,36,36
0,64,64,44
0,64,64,0
0,64,37,0
0,59,52,0
0,31,53,0
0,31,53,0
0,55,40,12
0,52,9,0
0,48,12,0
0,52,14,0
0,48,17,0
0,59,46,0
0,44,37,0
0,52,20,0
0,48,22,0
0,52,25,0
0,48,28,0
0,55,34,0
0,52,30,0
0,48,33,0
0,52,36,0
0,48,39,0
0,59,56,48
0,52,41,0
0,48,41,0
0,52,37,0
0,59,42,40
0,48,33,0
0,52,30,0
0,67,76,4
0,48,26,0
0,52,22,0
0,48,18,0
0,66,60,32
0,44,38,16
0,52,15,0
0,48,11,0
0,52,7,0
0,64,58,24
0,69,90,24
0,64,64,0
0,64,36,0
0,59,35,0
0,43,53,0
0,43,53,0
0,55,35,8
0,58,87,4
0,61,104,4
0,44,38,4
0,58,69,4
0,61,78,0
0,58,93,0
0,67,58,0
0,55,58,4
0,66,50,0
0,44,38,0
0,58,93,0
0,63,93,0
0,64,46,0
0,64,75,0
0,64,58,0
0,57,31,0
0,64,25,0
0,42,53,0
0,42,53,0
0,67,104,0
0,66,81,0
0,44,39,192
0,66,69,0
0,44,39,4
0,36,52,0
0,36,52,0
0,64,32,0
0,63,31,0
0,69,29,0
0,66,39,0
0,66,40,0
0,63,36,0
0,69,37,0
0,35,52,0
0,35,52,0
0,44,39,4
0,50,52,216
0,54,75,48
0,59,98,0
0,60,87,0
0,59,66,0
0,44,40,96
0,66,93,0
0,60,93,0
0,59,55,0
0,67,58,0
0,66,56,0
0,67,93,0
0,55,93,0
0,64,46,0
0,59,18,0
0,40,72,0
0,40,72,0
0,64,112,60
0,55,55,8
0,44,39,12
0,59,72,0
0,64,80,8
0,64,101,0
0,59,75,0
0,67,75,0
0,40,80,0
0,40,80,0
0,67,32,0
0,66,58,0
0,66,31,0
0,64,81,0
0,64,66,0
0,69,127,0
0,62,127,0
0,44,40,0
0,42,64,0
0,42,64,0
0,69,76,0
0,67,58,0
0,67,66,0
0,66,69,0
0,69,87,0
0,67,122,0
0,62,122,0
0,71,122,0
0,71,54,0
0,67,46,0
0,43,80,0
0,43,80,0
0,71,97,0
0,59,52,0
0,62,68,0
0,44,39,0
0,67,92,0
0,43,66,0
0,43,66,0
0,66,72,0
0,67,62,92
0,62,64,0
0,35,56,0
0,35,56,0
0,71,81,0
0,69,81,0
0,67,60,96
0,44,40,172
0,38,84,0
0,38,84,0
0,74,116,0
0,69,81,172
0,62,42,0
0,69,40,0
0,38,80,0
0,38,80,0
0,66,48,0
0,62,48,0
0,44,39,0
0,57,14,8
0,57,32,0
0,62,61,48
0,62,64,0
0,66,92,0
0,67,66,44
0,66,80,88
0,67,68,64
0,66,42,0
0,44,40,0
0,69,76,0
0,68,87,40
0,64,64,0
0,62,68,0
0,69,81,0
0,66,68,0
0,71,104,0
0,72,110,0
0,64,110,0
0,69,66,0
0,64,60,0
0,72,39,0
0,45,92,0
0,45,92,0
0,72,116,0
0,69,75,4
0,64,64,0
0,44,39,0
0,40,66,0
0,40,66,0
0,72,119,0
0,64,119,0
0,45,88,0
0,45,88,0
0,69,97,0
0,69,119,0
0,76,119,0
0,44,40,0
0,76,62,0
0,43,84,0
0,43,84,0
0,72,92,0
0,67,113,0
0,71,113,0
0,67,46,0
0,71,54,0
0,40,72,0
0,40,72,0
0,71,102,0
0,44,39,4
0,67,97,0
0,71,102,0
0,71,107,0
0,67,102,0
0,62,32,172
0,67,66,48
0,67,84,0
0,44,40,0
0,71,102,0
0,69,66,40
0,66,60,0
0,67,80,4
0,64,66,0
0,69,92,0
0,66,72,0
0,59,66,0
0,67,66,0
0,71,66,0
0,71,68,0
0,67,76,0
0,43,68,0
0,43,68,0
0,71,107,0
0,62,72,0
0,44,39,24
0,43,58,0
0,43,58,0
0,47,68,0
0,47,68,0
0,66,78,0
0,67,90,0
0,69,90,0
0,64,90,0
0,44,40,0
0,48,56,0
0,48,56,0
0,67,84,0
0,72,95,0
0,66,113,0
0,62,113,0
0,69,113,0
0,69,64,0
0,66,62,0
0,50,58,0
0,50,58,0
0,69,84,0
0,57,66,24
0,62,78,0
0,44,39,0
0,45,50,0
0,45,50,0
0,38,66,0
0,38,66,0
0,62,97,0
0,66,112,0
0,69,112,0
0,44,40,0
0,69,68,0
0,66,76,0
0,62,95,0
0,60,61,0
0,64,66,0
0,60,102,0
0,64,97,0
0,67,97,0
0,64,72,0
0,67,46,0
0,36,80,0
0,36,80,0
0,67,92,0
0,55,78,0
0,60,95,0
0,44,39,0
0,55,66,0
0,60,102,0
0,44,40,16
0,43,64,0
0,43,64,0
0,64,62,0
0,64,66,0
0,59,52,76
0,62,87,0
0,66,68,0
0,59,64,0
0,59,66,0
0,63,58,0
0,47,68,0
0,47,68,0
0,66,104,4
0,64,68,0
0,64,64,0
0,63,36,0
0,63,54,0
0,42,54,0
0,42,54,0
0,42,58,0
0,42,58,0
0,47,48,0
0,47,48,0
0,35,28,0
0,64,9,0
0,62,27,0
0,71,31,0
0,40,76,0
0,40,76,0
0,67,24,16
0,71,25,52
0,47,21,116
0,52,36,0
0,44,39,0
0,59,58,144
0,67,66,192
0,44,40,8
0,64,84,24
0,59,61,0
0,62,15,24
0,62,72,0
0,66,18,0
0,66,22,0
0,62,24,0
0,38,66,0
0,38,66,0
0,66,95,0
0,38,20,0
0,71,32,44
0,47,10,8
0,50,44,0
0,44,39,0
0,44,40,8
0,62,22,72
0,66,13,0
0,38,20,0
0,38,68,0
0,38,68,0
0,66,88,0
0,71,20,20
0,47,19,172
0,50,38,0
0,44,39,0
0,66,88,136
0,64,66,92
0,66,97,32
0,44,40,48
0,66,88,0
0,67,44,0
0,61,27,68
0,37,29,8
0,66,54,0
0,69,31,0
0,64,48,0
0,69,35,0
0,61,27,0
0,37,64,0
0,37,64,0
0,67,75,0
0,64,24,4
0,49,16,116
0,66,46,0
0,44,39,12
0,64,64,0
