track,note,velocity,time
3,64,122,9397
3,59,124,0
3,68,122,1
3,68,0,27
3,59,0,2
3,64,0,2
3,59,124,111
3,64,124,1
3,68,122,1
3,59,0,30
3,64,0,4
3,68,0,1
3,64,124,109
3,59,124,1
3,68,122,1
3,64,0,47
3,68,0,3
3,59,0,1
3,68,122,92
3,59,124,0
3,64,124,1
3,68,0,167
3,64,0,3
3,59,0,16
3,61,127,147
3,57,124,1
3,64,124,1
3,61,0,31
3,57,0,1
3,64,0,6
3,61,127,103
3,64,122,1
3,57,124,0
3,64,0,54
3,61,0,8
3,57,0,5
3,61,127,80
3,64,124,1
3,57,124,0
3,61,0,71
3,57,0,6
3,64,0,1
3,61,124,63
3,57,124,1
3,64,122,1
3,57,0,23
3,61,0,4
3,64,0,3
3,61,127,63
3,64,122,1
3,57,124,0
3,57,0,103
3,61,0,9
3,64,0,3
3,66,124,124
3,59,124,1
3,63,122,1
3,59,0,36
3,63,0,2
3,66,0,6
3,59,124,97
3,66,122,1
3,63,122,1
3,59,0,33
3,63,0,2
3,66,0,5
3,59,124,105
3,63,124,1
3,66,124,1
3,66,0,63
3,63,0,1
3,59,0,5
3,59,124,72
3,66,122,1
3,63,122,1
3,59,0,21
3,63,0,7
3,66,0,2
3,66,124,63
3,63,124,0
3,59,124,1
3,66,0,120
3,63,0,1
3,59,0,2
3,61,122,116
3,57,119,1
3,64,119,1
3,61,0,33
3,57,0,2
3,64,0,3
3,64,124,103
3,57,124,1
3,61,127,1
3,57,0,50
3,61,0,1
3,64,0,1
3,63,100,42
3,63,0,10
3,66,124,45
3,59,127,1
3,63,124,0
3,59,0,103
3,63,0,2
3,66,0,2
3,63,122,37
3,66,124,1
3,59,124,0
3,59,0,11
3,66,0,4
3,63,0,1
3,63,127,72
3,66,122,0
3,59,127,1
3,66,0,127
3,63,0,7
3,59,0,41
3,59,124,65
3,68,119,1
3,64,122,0
3,59,0,27
3,68,0,2
3,64,0,3
3,64,124,109
3,59,124,0
3,68,122,1
3,59,0,36
3,64,0,3
3,68,0,1
3,59,124,105
3,68,122,1
3,64,127,1
3,64,0,70
3,68,0,3
3,59,0,6
3,59,124,64
3,64,124,1
3,68,119,1
3,59,0,18
3,64,0,2
3,68,0,3
3,64,127,71
3,59,124,1
3,68,122,1
3,64,0,101
3,68,0,1
3,59,0,17
3,57,122,117
3,61,124,1
3,64,124,1
3,57,0,30
3,61,0,1
3,64,0,5
3,57,124,105
3,61,124,1
3,64,122,0
3,61,0,35
3,57,0,1
3,64,0,6
3,64,122,104
3,57,122,1
3,61,127,1
3,61,0,69
3,57,0,4
3,64,0,0
3,57,122,68
3,64,124,0
3,61,127,1
3,57,0,17
3,61,0,3
3,64,0,2
3,64,124,71
3,61,127,1
3,57,124,1
3,57,0,110
3,61,0,7
3,64,0,2
3,66,124,121
3,59,124,1
3,63,124,0
3,63,0,32
3,59,0,0
3,66,0,4
3,59,122,105
3,63,124,1
3,66,122,1
3,59,0,37
3,63,0,2
3,66,0,3
3,59,124,103
3,66,124,1
3,63,124,1
3,59,0,99
3,66,0,5
3,63,0,4
3,59,124,33
3,63,122,1
3,66,124,1
3,59,0,21
3,63,0,3
3,66,0,1
3,65,111,67
3,66,124,1
3,63,122,1
3,59,127,1
3,65,0,1
3,59,0,117
3,63,0,1
3,66,0,1
3,64,122,118
3,61,124,1
3,57,124,1
3,57,0,32
3,61,0,0
3,64,0,5
3,57,122,104
3,64,122,1
3,61,127,1
3,61,0,43
3,57,0,7
3,64,0,2
3,59,124,96
3,66,122,1
3,63,122,1
3,59,0,78
3,63,0,2
3,66,0,4
3,59,124,58
3,66,124,1
3,63,124,1
3,59,0,11
3,63,0,2
3,66,0,3
3,59,124,72
3,63,124,1
3,66,124,1
3,59,0,102
3,66,0,3
3,63,0,0
3,59,122,134
3,68,115,1
3,64,124,1
3,64,0,32
3,59,0,0
3,68,0,2
3,68,119,107
3,59,122,1
3,64,124,0
3,59,0,38
3,64,0,1
3,68,0,1
3,68,115,105
3,59,122,1
3,64,122,1
3,64,0,83
3,68,0,13
3,59,0,1
3,68,115,46
3,59,122,0
3,64,124,0
3,59,0,22
3,68,0,0
3,64,0,1
3,59,119,70
3,64,122,0
3,68,115,1
3,64,0,128
3,68,0,6
3,59,0,2
3,68,119,105
3,59,122,1
3,64,124,0
3,59,0,29
3,68,0,1
3,64,0,2
3,64,124,109
3,59,122,1
3,68,119,0
3,59,0,31
3,64,0,1
3,68,0,2
3,59,119,111
3,64,124,1
3,68,117,1
3,68,0,26
3,68,81,18
3,59,0,43
3,64,0,1
3,68,0,2
3,59,117,52
3,68,119,1
3,64,122,1
3,59,0,15
3,68,0,2
3,64,0,1
3,59,124,74
3,64,124,1
3,68,122,0
3,64,0,123
3,68,0,3
3,59,0,8
3,64,124,106
3,59,122,1
3,68,119,1
3,64,0,31
3,59,0,1
3,68,0,4
3,59,122,104
3,64,124,1
3,68,122,1
3,59,0,27
3,64,0,1
3,68,0,4
3,68,122,113
3,64,124,1
3,59,122,1
3,64,0,104
3,59,0,3
3,68,0,3
3,64,124,32
3,59,122,1
3,68,117,0
3,59,0,17
3,64,0,1
3,68,0,1
3,64,127,74
3,59,122,1
3,68,122,0
3,64,0,126
3,59,0,4
3,68,0,1
3,64,127,106
3,59,122,1
3,68,122,1
3,59,0,25
3,64,0,5
3,68,0,2
3,59,122,112
3,64,122,0
3,68,122,1
3,59,0,22
3,64,0,2
3,68,0,5
3,59,122,116
3,64,124,1
3,68,122,1
3,59,0,27
3,64,0,3
3,68,0,1
3,68,122,111
3,64,127,1
3,59,122,0
3,59,0,16
3,64,0,2
3,68,0,4
3,64,124,71
3,59,124,1
3,68,122,0
3,68,0,121
3,64,0,0
3,59,0,10
3,64,122,109
3,57,124,1
3,61,124,1
3,57,0,32
3,61,0,1
3,64,0,4
3,61,122,104
3,57,122,1
3,64,122,1
3,57,0,22
3,61,0,1
3,64,0,6
3,61,124,116
3,64,122,1
3,57,124,1
3,61,0,19
3,57,0,1
3,64,0,6
3,57,122,115
3,61,124,0
3,64,122,1
3,57,0,16
3,61,0,1
3,64,0,5
3,64,124,72
3,61,127,0
3,57,122,1
3,61,0,149
3,57,0,2
3,64,0,0
3,59,122,88
3,68,119,1
3,64,122,1
3,59,0,31
3,64,0,2
3,68,0,0
3,64,122,107
3,59,122,1
3,68,122,1
3,59,0,24
3,68,0,8
3,64,0,1
3,68,119,112
3,59,119,1
3,64,122,1
3,64,0,95
3,68,0,1
3,59,0,1
3,59,119,45
3,64,122,1
3,68,122,1
3,59,0,17
3,64,0,2
3,68,0,1
3,59,122,72
3,64,124,1
3,68,122,0
3,68,0,121
3,64,0,0
3,59,0,7
3,61,124,112
3,64,124,1
3,57,122,1
3,61,0,28
3,57,0,1
3,64,0,5
3,61,124,107
3,57,122,1
3,64,124,1
3,57,0,23
3,61,0,2
3,64,0,7
3,61,127,113
3,57,122,1
3,64,122,1
3,57,0,24
3,61,0,1
3,64,0,5
3,61,124,111
3,64,122,0
3,57,122,1
3,57,0,16
3,61,0,3
3,64,0,1
3,64,124,73
3,61,127,0
3,57,124,1
3,57,0,42
3,61,0,9
3,64,0,5
3,64,124,90
3,59,122,1
3,68,119,1
3,68,0,356
3,64,0,3
3,59,0,3
3,59,124,498
3,68,122,1
3,64,124,1
3,59,0,26
3,68,0,1
3,64,0,1
3,59,122,113
3,64,124,0
3,68,119,1
3,59,0,30
3,68,0,4
3,64,0,0
3,63,122,114
3,66,122,1
3,59,124,1
3,59,0,18
3,63,0,2
3,66,0,7
3,59,124,113
3,66,122,1
3,63,124,1
3,63,0,19
3,59,0,0
3,66,0,6
3,66,122,67
3,59,124,0
3,63,124,1
3,66,0,130
3,59,0,1
3,63,0,4
3,64,122,104
3,59,122,1
3,68,117,1
3,59,0,28
3,64,0,0
3,68,0,2
3,64,122,111
3,59,122,0
3,68,122,1
3,64,0,30
3,68,0,2
3,59,0,1
3,64,124,115
3,57,124,1
3,61,124,1
3,61,0,22
3,57,0,3
3,64,0,3
3,57,122,111
3,64,124,1
3,61,124,1
3,57,0,17
3,61,0,1
3,64,0,4
3,64,122,71
3,61,127,0
3,57,122,1
3,57,0,99
3,64,0,13
3,61,0,1
3,64,122,126
3,59,122,1
3,68,119,1
3,59,0,20
3,64,0,2
3,68,0,1
3,64,122,118
3,59,122,1
3,68,119,0
3,68,0,61
3,64,0,9
3,59,0,31
3,66,122,47
3,63,122,1
3,59,122,1
3,63,0,18
3,59,0,1
3,66,0,5
3,63,124,66
3,59,124,1
3,66,124,1
3,63,0,111
3,59,0,1
3,66,0,1
3,63,122,28
3,66,122,1
3,59,122,0
3,59,0,32
3,63,0,1
3,66,0,5
3,61,124,110
3,57,122,1
3,64,122,1
3,57,0,14
3,61,0,1
3,64,0,8
3,64,122,67
3,61,124,1
3,57,124,1
3,57,0,113
3,64,0,3
3,61,0,1
3,61,127,24
3,64,122,1
3,57,122,0
3,57,0,28
3,61,0,2
3,64,0,7
3,63,98,59
3,63,0,5
3,59,122,47
3,66,122,1
3,63,122,1
3,59,0,19
3,63,0,4
3,66,0,2
3,59,122,114
3,66,122,1
3,63,122,1
3,59,0,17
3,63,0,2
3,66,0,4
3,66,124,70
3,63,124,1
3,59,124,1
3,66,0,102
3,59,0,3
3,63,0,0
3,59,124,133
3,68,119,1
3,64,122,1
3,59,0,26
3,68,0,3
3,64,0,3
3,64,124,109
3,59,124,0
3,68,122,1
3,59,0,36
3,68,0,3
3,64,0,0
3,59,124,105
3,68,122,1
3,64,127,1
3,64,0,71
3,68,0,2
3,59,0,7
3,59,124,63
3,64,124,1
3,68,119,1
3,59,0,18
3,64,0,3
3,68,0,3
3,64,127,70
3,59,124,1
3,68,122,1
3,64,0,102
3,68,0,1
3,59,0,17
3,57,122,117
3,61,124,1
3,64,124,1
3,61,0,30
3,57,0,0
3,64,0,6
3,57,124,105
3,61,124,1
3,64,122,1
3,61,0,34
3,57,0,1
3,64,0,5
3,64,122,104
3,57,122,1
3,61,127,1
3,61,0,70
3,57,0,4
3,64,0,0
3,57,122,69
3,64,124,0
3,61,127,1
3,57,0,16
3,61,0,3
3,64,0,2
3,64,124,71
3,61,127,1
3,57,124,1
3,57,0,110
3,61,0,7
3,64,0,2
3,66,124,120
3,59,124,1
3,63,124,1
3,63,0,31
3,59,0,0
3,66,0,5
3,59,122,106
3,63,124,1
3,66,122,0
3,59,0,37
3,63,0,2
3,66,0,2
3,59,124,103
3,66,124,1
3,63,124,1
3,59,0,100
3,66,0,5
3,63,0,4
3,59,124,34
3,63,122,1
3,66,124,1
3,59,0,20
3,63,0,3
3,66,0,3
3,65,111,65
3,66,124,1
3,63,122,1
3,59,127,0
3,65,0,2
3,59,0,118
3,63,0,1
3,66,0,0
3,64,122,118
3,61,124,1
3,57,124,1
3,61,0,31
3,57,0,1
3,64,0,5
3,57,122,104
3,64,122,1
3,61,127,1
3,61,0,43
3,57,0,7
3,64,0,2
3,59,124,96
3,66,122,1
3,63,122,1
3,59,0,77
3,63,0,3
3,66,0,4
3,59,124,59
3,66,124,1
3,63,124,1
3,59,0,10
3,63,0,2
3,66,0,4
3,59,124,71
3,63,124,1
3,66,124,1
3,59,0,102
3,66,0,2
3,63,0,3
3,59,122,132
3,68,115,1
3,64,124,1
3,59,0,30
3,64,0,2
3,68,0,3
3,68,119,106
3,59,122,1
3,64,124,1
3,59,0,37
3,64,0,1
3,68,0,1
3,68,115,105
3,59,122,1
3,64,122,0
3,64,0,84
3,68,0,14
3,59,0,1
3,68,115,45
3,59,122,0
3,64,124,1
3,68,0,20
3,59,0,1
3,64,0,1
3,59,119,70
3,64,122,1
3,68,115,0
3,64,0,128
3,68,0,6
3,59,0,1
3,68,119,105
3,59,122,1
3,64,124,1
3,59,0,29
3,68,0,0
3,64,0,3
3,64,124,109
3,59,122,1
3,68,119,1
3,59,0,30
3,64,0,2
3,68,0,1
3,59,119,110
3,64,124,1
3,68,117,1
3,68,0,25
3,68,81,20
3,59,0,43
3,64,0,1
3,68,0,3
3,59,117,51
3,68,119,1
3,64,122,1
3,59,0,15
3,64,0,3
3,68,0,0
3,59,124,73
3,64,124,1
3,68,122,1
3,64,0,123
3,68,0,4
3,59,0,6
3,64,124,107
3,59,122,1
3,68,119,1
3,64,0,30
3,59,0,1
3,68,0,5
3,59,122,105
3,64,124,1
3,68,122,1
3,59,0,26
3,64,0,1
3,68,0,3
3,68,122,113
3,64,124,1
3,59,122,1
3,64,0,105
3,59,0,2
3,68,0,3
3,64,124,33
3,59,122,1
3,68,117,1
3,59,0,16
3,68,0,1
3,64,0,0
3,64,127,74
3,59,122,1
3,68,122,1
3,64,0,126
3,59,0,4
3,68,0,1
3,64,127,110
3,59,122,0
3,68,122,1
3,59,0,21
3,64,0,4
3,68,0,4
3,59,122,111
3,64,122,1
3,68,122,1
3,59,0,23
3,64,0,1
3,68,0,6
3,59,122,115
3,64,124,1
3,68,122,1
3,59,0,27
3,64,0,3
3,68,0,1
3,68,122,112
3,64,127,0
3,59,122,1
3,59,0,16
3,64,0,1
3,68,0,5
3,64,124,70
3,59,124,1
3,68,122,0
3,68,0,121
3,64,0,0
3,59,0,9
3,64,122,110
3,57,124,1
3,61,124,1
3,57,0,32
3,61,0,1
3,64,0,5
3,61,122,103
3,57,122,1
3,64,122,1
3,57,0,22
3,61,0,1
3,64,0,6
3,61,124,115
3,64,122,1
3,57,124,1
3,61,0,20
3,57,0,1
3,64,0,6
3,57,122,116
3,61,124,0
3,64,122,1
3,57,0,15
3,61,0,1
3,64,0,5
3,64,124,71
3,61,127,1
3,57,122,0
3,61,0,150
3,64,0,2
3,57,0,1
3,59,122,87
3,68,119,1
3,64,122,1
3,59,0,31
3,64,0,3
3,68,0,0
3,64,122,106
3,59,122,1
3,68,122,1
3,59,0,24
3,68,0,7
3,64,0,1
3,68,119,112
3,59,119,1
3,64,122,1
3,64,0,96
3,68,0,1
3,59,0,1
3,59,119,46
3,64,122,0
3,68,122,1
3,59,0,17
3,64,0,1
3,68,0,2
3,59,122,71
3,64,124,1
3,68,122,1
3,68,0,122
3,64,0,0
3,59,0,6
3,61,124,112
3,64,124,1
3,57,122,1
3,61,0,28
3,57,0,1
3,64,0,5
3,61,124,108
3,57,122,0
3,64,124,1
3,57,0,24
3,61,0,1
3,64,0,6
3,61,127,112
3,57,122,1
3,64,122,1
3,57,0,26
3,61,0,1
3,64,0,4
3,61,124,112
3,64,122,1
3,57,122,1
3,57,0,14
3,61,0,3
3,64,0,2
3,64,124,74
3,61,127,0
3,57,124,1
3,57,0,40
3,61,0,10
3,64,0,5
3,64,124,90
3,59,122,1
3,68,119,1
3,68,0,356
3,64,0,3
3,59,0,3
3,59,124,498
3,68,122,1
3,64,124,1
3,59,0,25
3,68,0,1
3,64,0,1
3,59,122,114
3,64,124,1
3,68,119,0
3,59,0,30
3,64,0,3
3,68,0,1
3,63,122,114
3,66,122,1
3,59,124,1
3,59,0,18
3,63,0,2
3,66,0,5
3,59,124,115
3,66,122,1
3,63,124,0
3,59,0,20
3,63,0,1
3,66,0,6
3,66,122,65
3,59,124,1
3,63,124,1
3,66,0,130
3,59,0,1
3,63,0,3
3,64,122,105
3,59,122,1
3,68,117,1
3,59,0,27
3,64,0,0
3,68,0,3
3,64,122,111
3,59,122,1
3,68,122,0
3,64,0,30
3,68,0,2
3,59,0,1
3,64,124,115
3,57,124,1
3,61,124,1
3,61,0,22
3,57,0,3
3,64,0,3
3,57,122,112
3,64,124,1
3,61,124,0
3,57,0,16
3,61,0,1
3,64,0,6
3,64,122,69
3,61,127,1
3,57,122,1
3,57,0,99
3,64,0,13
3,61,0,1
3,64,122,126
3,59,122,1
3,68,119,1
3,59,0,19
3,64,0,3
3,68,0,1
3,64,122,118
3,59,122,1
3,68,119,1
3,68,0,59
3,64,0,10
3,59,0,32
3,66,122,46
3,63,122,1
3,59,122,1
3,63,0,18
