track,note,velocity,time
0,65,102,928
0,62,84,0
0,57,64,0
0,38,123,0
0,65,117,0
0,62,117,0
0,57,107,0
0,62,117,0
0,57,107,0
0,65,117,4
0,49,45,0
0,59,74,0
0,35,102,0
0,53,64,12
0,50,100,16
0,50,100,8
0,42,28,0
0,57,84,36
0,57,110,4
0,57,110,8
0,62,104,4
0,62,127,0
0,62,127,8
0,65,127,4
0,65,127,8
0,65,127,0
0,42,92,4
0,65,100,152
0,57,54,4
0,62,74,4
0,62,100,0
0,65,100,0
0,57,90,4
0,65,92,4
0,38,107,0
0,62,100,0
0,57,90,4
0,42,25,4
0,35,46,0
0,57,107,4
0,57,54,4
0,62,74,0
0,62,117,0
0,38,123,4
0,65,117,0
0,57,107,0
0,62,117,4
0,65,82,4
0,65,117,0
0,42,93,0
0,35,102,0
0,65,100,12
0,62,100,4
0,57,99,4
0,65,100,0
0,62,100,4
0,42,24,0
0,57,99,4
0,57,117,80
0,62,127,4
0,65,127,4
0,57,117,0
0,62,127,4
0,65,127,4
0,42,92,0
0,65,107,44
0,62,107,4
0,57,87,4
0,65,107,0
0,62,107,4
0,38,107,0
0,57,87,0
0,42,28,8
0,35,46,0
0,57,107,4
0,62,117,4
0,38,127,4
0,65,117,0
0,57,107,0
0,62,117,4
0,65,117,4
0,42,90,0
0,35,102,0
0,65,100,32
0,62,100,4
0,57,99,4
0,50,100,4
0,42,24,0
0,57,110,16
0,62,127,8
0,57,117,8
0,62,127,4
0,65,127,4
0,65,127,4
0,42,93,4
0,65,100,156
0,62,100,8
0,65,100,0
0,57,90,4
0,38,109,4
0,62,100,0
0,57,90,4
0,35,46,4
0,46,61,8
0,60,127,68
0,55,107,4
0,60,117,4
0,36,127,4
0,64,117,0
0,55,117,0
0,60,127,4
0,64,127,4
0,42,93,0
0,35,102,0
0,57,125,8
0,64,95,16
0,33,117,4
0,60,97,0
0,55,97,4
0,64,90,0
0,60,90,4
0,46,58,0
0,55,89,4
0,60,121,36
0,55,117,8
0,60,127,4
0,36,126,4
0,64,127,0
0,55,117,0
0,60,127,4
0,64,127,4
0,42,91,0
0,57,111,4
0,64,107,16
0,60,107,4
0,55,87,4
0,64,107,0
0,60,107,4
0,55,87,4
0,46,62,4
0,62,127,24
0,57,107,8
0,62,117,4
0,38,121,4
0,65,117,0
0,57,107,0
0,62,117,4
0,65,117,4
0,49,24,0
0,59,74,0
0,44,40,0
0,35,102,0
0,65,100,32
0,62,100,4
0,57,99,4
0,50,100,4
0,42,28,0
0,57,110,16
0,62,127,8
0,57,117,0
0,62,127,4
0,65,127,4
0,65,127,0
0,42,90,4
0,65,100,0
0,62,100,8
0,65,100,0
0,57,90,4
0,38,107,0
0,62,100,0
0,57,90,4
0,42,25,4
0,35,46,0
0,57,107,4
0,62,117,4
0,38,127,4
0,65,117,0
0,57,107,0
0,62,117,0
0,65,117,4
0,42,92,0
0,35,102,0
0,65,100,0
0,62,100,4
0,57,99,4
0,65,100,0
0,62,100,4
0,42,26,0
0,57,99,4
0,57,117,8
0,62,127,4
0,65,127,4
0,57,117,0
0,62,127,4
0,65,127,0
0,42,90,0
0,65,107,88
0,62,107,4
0,57,87,0
0,65,107,0
0,62,107,4
0,38,104,4
0,57,87,0
0,42,27,8
0,35,46,0
0,57,107,0
0,62,117,4
0,50,97,0
0,38,126,4
0,65,117,0
0,57,107,0
0,62,117,4
0,65,117,0
0,42,91,0
0,35,102,0
0,65,100,24
0,62,100,4
0,57,99,4
0,50,100,4
0,42,24,0
0,57,110,16
0,62,127,8
0,57,117,8
0,62,127,4
0,65,127,4
0,65,127,4
0,42,91,4
0,65,100,156
0,62,100,8
0,65,100,0
0,57,90,4
0,38,104,4
0,62,100,0
0,57,90,4
0,50,90,4
0,42,27,0
0,35,46,0
0,57,107,4
0,62,117,4
0,50,97,0
0,38,127,4
0,65,117,0
0,57,107,0
0,62,117,4
0,65,117,4
0,42,91,0
0,35,102,0
0,57,127,4
0,65,100,12
0,62,100,4
0,57,99,4
0,65,90,0
0,62,90,4
0,46,66,0
0,57,89,4
0,50,80,4
0,60,105,4
0,57,117,0
0,62,127,4
0,50,107,0
0,36,123,4
0,65,127,0
0,57,117,0
0,62,127,4
0,65,127,4
0,42,91,0
0,65,107,8
0,62,107,4
0,62,127,4
0,57,87,0
0,65,107,0
0,62,107,4
0,33,120,4
0,57,87,0
0,50,97,4
0,46,66,4
0,35,46,0
0,57,107,4
0,62,117,0
0,38,127,4
0,65,117,0
0,57,107,0
0,62,117,4
0,65,117,4
0,49,14,0
0,59,74,0
0,44,91,0
0,35,102,0
0,65,100,32
0,62,100,4
0,57,99,4
0,50,100,4
0,42,26,0
0,57,110,16
0,62,127,4
0,57,117,8
0,62,127,0
0,65,127,4
0,65,127,4
0,42,91,4
0,65,100,12
0,62,100,4
0,65,100,0
0,57,90,4
0,38,114,4
0,62,100,0
0,57,90,0
0,42,26,4
0,35,46,0
0,57,107,0
0,62,117,4
0,38,127,4
0,65,117,0
0,57,107,0
0,62,117,4
0,65,117,4
0,42,92,0
0,35,102,0
0,57,110,12
0,65,100,12
0,62,100,4
0,57,99,4
0,65,100,0
0,62,100,4
0,42,24,0
0,57,99,4
0,57,117,8
0,62,127,4
0,65,127,4
0,65,127,0
0,57,117,0
0,62,127,4
0,65,127,4
0,42,94,0
0,65,107,124
0,62,114,4
0,62,107,0
0,57,87,4
0,65,107,0
0,62,107,4
0,38,109,4
0,57,87,0
0,42,26,8
0,35,46,0
0,57,107,4
0,62,117,4
0,38,127,4
0,65,117,0
0,57,107,0
0,62,117,4
0,65,117,4
0,42,90,0
0,35,102,0
0,65,100,8
0,62,100,4
0,57,99,4
0,50,100,4
0,42,26,0
0,57,110,16
0,62,127,8
0,57,117,8
0,62,127,4
0,65,127,4
0,65,127,0
0,42,92,4
0,65,100,4
0,62,122,8
0,62,100,0
0,65,100,0
0,57,90,4
0,38,111,0
0,62,100,0
0,57,90,4
0,35,46,4
0,42,19,8
0,65,117,4
0,55,107,72
0,60,117,4
0,69,107,4
0,36,126,0
0,64,117,0
0,55,117,0
0,60,127,4
0,64,127,4
0,42,94,0
0,35,102,0
0,64,95,24
0,33,117,4
0,60,97,0
0,55,97,4
0,64,90,0
0,60,90,4
0,46,48,0
0,55,89,4
0,72,127,12
0,55,117,36
0,60,127,4
0,36,127,4
0,64,127,0
0,55,117,0
0,60,127,4
0,64,127,4
0,42,90,0
0,64,107,20
0,60,107,4
0,69,118,4
0,55,87,0
0,64,107,0
0,60,107,4
0,55,87,4
0,46,49,8
0,57,107,88
0,65,121,0
0,62,117,0
0,38,127,4
0,65,117,0
0,57,107,0
0,62,117,4
0,65,117,4
0,57,22,0
0,51,70,0
0,44,90,0
0,35,102,0
0,65,100,0
0,62,100,4
0,57,99,4
0,50,100,4
0,42,27,0
0,57,110,8
0,62,127,8
0,57,117,8
0,62,127,0
0,65,127,4
0,65,127,4
0,42,91,4
0,65,120,4
0,65,100,0
0,62,100,0
0,65,100,0
0,57,90,4
0,38,111,0
0,62,100,0
0,57,90,4
0,42,25,0
0,35,46,0
0,64,127,4
0,57,107,0
0,62,117,4
0,38,127,4
0,65,117,0
0,57,107,0
0,62,117,4
0,65,117,4
0,42,93,0
0,35,102,0
0,65,115,4
0,65,100,24
0,62,100,4
0,57,99,4
0,65,100,0
0,62,100,4
0,42,24,0
0,57,99,4
0,64,110,8
0,57,117,4
0,62,127,4
0,65,127,4
0,57,117,0
0,62,127,4
0,65,127,4
0,46,63,0
0,62,127,16
0,65,107,4
0,62,107,4
0,57,87,4
0,65,107,0
0,62,107,4
0,38,107,4
0,57,87,0
0,42,28,8
0,35,46,0
0,57,107,4
0,62,117,4
0,38,127,4
0,65,117,0
0,57,107,0
0,62,117,4
0,65,117,4
0,44,64,0
0,35,102,0
0,65,100,0
0,62,100,4
0,57,99,4
0,50,100,4
0,57,110,16
0,62,127,8
0,57,117,8
0,62,127,4
0,65,127,0
0,65,127,4
0,44,64,4
0,65,100,36
0,62,100,8
0,65,100,0
0,57,90,0
0,38,107,4
0,62,100,0
0,57,90,4
0,35,56,4
0,57,107,4
0,62,117,4
0,36,127,4
0,65,117,0
0,57,107,0
0,62,117,4
0,65,117,4
0,44,64,0
0,35,102,0
0,65,127,0
0,65,100,8
0,33,127,4
0,62,100,0
0,57,99,4
0,65,100,0
0,62,100,4
0,45,64,0
0,57,99,4
0,57,117,8
0,62,127,4
0,36,127,4
0,65,127,0
0,57,117,0
0,62,127,4
0,69,127,0
0,65,127,0
0,45,70,0
0,44,64,0
0,65,107,24
0,62,107,4
0,57,87,4
0,65,107,0
0,62,107,4
0,65,127,0
0,57,87,0
0,35,62,8
0,65,107,4
0,62,107,4
0,57,87,4
0,57,107,4
0,62,117,4
0,38,127,4
0,65,117,0
0,57,107,0
0,62,117,4
0,69,127,0
0,65,117,0
0,49,14,0
0,59,74,0
0,35,102,0
0,65,100,24
0,65,127,0
0,62,100,0
0,57,99,4
0,50,100,4
0,42,24,0
0,57,110,16
0,62,127,8
0,57,117,8
0,62,127,4
0,65,127,4
0,65,127,4
0,42,92,4
0,69,127,0
0,65,100,12
0,65,127,0
0,62,100,4
0,65,100,0
0,57,90,4
0,38,112,4
0,62,100,0
0,57,90,4
0,42,26,4
0,35,46,0
0,57,107,4
0,69,127,0
0,62,117,0
0,38,127,4
0,65,117,0
0,57,107,0
0,62,117,4
0,65,117,4
0,42,94,0
0,35,102,0
0,65,100,24
0,62,100,4
0,57,99,4
0,65,100,0
0,62,100,4
0,42,27,0
0,57,99,4
0,57,117,8
0,62,127,4
0,69,127,0
0,65,127,0
0,57,117,0
0,62,127,4
0,65,127,4
0,42,90,0
0,65,107,48
0,62,107,4
0,65,127,0
0,57,87,0
0,65,107,0
0,62,107,4
0,38,111,4
0,57,87,0
0,46,56,8
0,35,46,0
0,55,107,0
0,60,127,4
0,36,127,4
0,64,127,0
0,55,107,0
0,67,127,0
0,60,127,0
0,64,127,4
0,42,90,0
0,35,102,0
0,64,127,0
0,64,100,8
0,60,100,4
0,55,99,4
0,64,100,0
0,60,100,4
0,46,54,0
0,55,99,4
0,55,127,4
0,60,127,4
0,67,127,0
0,64,127,0
0,55,127,0
0,60,127,4
0,64,127,4
0,42,90,0
0,64,127,0
0,64,100,4
0,60,100,8
0,64,100,0
0,55,90,4
0,36,111,4
0,60,100,0
0,55,90,4
0,46,58,4
0,35,46,0
0,58,107,84
0,65,127,0
0,62,127,0
0,34,127,4
0,65,127,0
0,58,107,0
0,62,127,4
0,65,127,4
0,42,93,0
0,35,102,0
0,65,100,24
0,62,100,0
0,58,99,4
0,65,100,0
0,62,100,4
0,46,57,0
0,58,99,4
0,58,127,8
0,62,127,4
0,65,127,0
0,65,127,0
0,58,127,0
0,62,127,4
0,65,127,4
0,42,91,0
0,65,107,16
0,62,107,4
0,64,127,0
0,58,87,0
0,65,107,0
0,62,107,0
0,34,114,4
0,58,87,0
0,46,56,8
0,35,46,0
0,57,107,64
0,61,127,4
0,33,127,4
0,64,127,0
0,57,107,0
0,61,117,4
0,64,117,4
0,51,64,0
0,57,14,0
0,44,56,0
0,35,102,0
0,64,127,0
0,64,100,16
0,61,100,4
0,57,99,4
0,52,100,4
0,42,26,0
0,57,110,16
0,61,127,8
0,57,127,8
0,61,127,4
0,64,127,4
0,64,127,4
0,42,94,4
0,61,127,4
0,64,107,0
0,61,107,0
0,57,87,0
0,64,100,0
0,33,112,8
0,61,100,0
0,57,90,0
0,42,27,4
0,35,46,0
0,33,127,4
0,57,107,0
0,61,117,4
0,64,117,4
0,42,92,0
0,35,102,0
0,64,100,24
0,61,100,4
0,57,99,4
0,64,100,0
0,61,100,4
0,42,27,0
0,57,99,4
0,57,127,8
0,61,127,4
0,64,127,4
0,57,117,0
0,61,127,4
0,64,127,4
0,42,93,0
0,64,107,124
0,61,107,4
0,57,87,4
0,64,107,0
0,61,107,4
0,57,87,4
0,42,24,8
0,35,46,0
0,64,107,4
0,61,107,4
0,57,87,4
0,57,107,4
0,61,127,4
0,33,127,4
0,64,127,0
0,57,107,0
0,61,117,0
0,64,117,4
0,42,93,0
0,35,102,0
0,52,100,0
0,42,26,0
0,57,110,0
0,61,127,0
0,57,127,0
0,61,127,4
0,64,127,4
0,64,127,4
0,42,92,0
0,64,107,16
0,61,107,0
0,57,87,4
0,64,100,0
0,33,109,0
0,61,100,0
0,57,90,4
0,42,25,0
0,35,49,0
0,33,127,4
0,57,107,0
0,61,117,4
0,64,117,0
0,42,91,0
0,35,97,0
0,64,100,24
0,61,100,4
0,57,99,4
0,64,100,0
0,61,100,4
0,42,27,0
0,57,99,4
0,57,127,8
0,61,127,4
0,64,127,0
0,57,117,0
0,61,127,4
0,64,127,4
0,42,94,0
0,64,107,132
0,61,107,4
0,57,87,4
0,64,107,0
0,61,107,4
0,33,106,4
0,57,87,0
0,46,55,8
0,35,46,0
0,57,107,68
0,62,117,4
0,38,127,4
0,65,117,0
0,57,107,0
0,62,117,4
0,65,117,4
0,42,94,0
0,35,102,0
0,69,127,0
0,65,100,4
0,62,100,4
0,57,99,4
0,50,100,4
0,42,27,0
0,57,110,8
0,62,127,4
0,57,117,8
0,62,127,4
0,69,127,0
0,65,127,0
0,65,127,4
0,42,90,4
0,69,127,0
0,65,100,0
0,62,100,8
0,65,100,0
0,57,90,4
0,38,107,4
0,62,100,0
0,57,90,4
0,42,26,4
0,35,46,0
0,57,107,4
0,69,127,0
0,62,117,0
0,38,127,4
0,65,117,0
0,57,107,0
0,62,117,4
0,65,117,4
0,42,94,0
0,35,102,0
0,65,127,0
0,65,100,4
0,62,100,4
0,57,99,4
0,65,100,0
0,62,100,4
0,42,25,0
0,57,99,4
0,57,117,8
0,62,127,4
0,65,127,4
0,57,117,0
0,62,127,4
0,67,127,0
0,65,127,0
0,42,94,0
0,67,127,0
0,65,107,0
0,62,107,4
0,57,87,4
0,65,107,0
0,62,107,4
0,38,109,4
0,57,87,0
0,46,54,8
0,35,36,0
0,55,107,68
0,60,127,4
0,36,127,4
0,64,127,0
0,55,107,0
0,60,127,4
0,64,127,4
0,42,91,0
0,35,102,0
0,67,127,0
0,64,100,12
0,60,100,4
0,55,99,4
0,64,100,0
0,60,100,4
0,46,55,0
0,55,99,4
0,55,127,4
0,67,127,0
0,60,127,0
0,64,127,4
0,55,127,0
0,60,127,4
0,64,127,4
0,42,93,0
0,64,100,100
0,67,127,0
0,60,100,0
0,64,100,0
0,55,90,4
0,36,104,4
0,60,100,0
0,55,90,4
0,46,54,4
0,35,46,0
0,58,107,0
0,62,127,4
0,34,124,4
0,65,127,0
0,58,107,0
0,62,127,4
0,65,127,4
0,42,93,0
0,35,102,0
0,65,100,0
0,62,100,4
0,58,99,0
0,65,100,0
0,62,100,4
0,46,58,0
0,58,99,4
0,58,127,0
0,62,127,4
0,65,127,4
0,58,127,0
0,62,127,0
0,65,127,4
0,42,90,0
0,65,107,0
0,62,107,4
0,58,87,4
0,65,107,0
0,67,127,0
0,62,107,0
0,34,108,4
0,58,87,0
0,46,54,0
0,35,46,0
0,57,107,8
0,61,127,4
0,33,127,0
0,64,127,0
0,64,127,0
0,57,107,0
0,61,117,4
0,64,117,4
0,51,64,0
0,57,14,0
0,44,44,0
0,35,102,0
0,64,127,0
0,64,100,4
0,61,100,4
0,57,99,4
0,52,100,4
0,42,25,0
0,57,110,16
0,61,127,8
0,57,127,8
0,61,127,4
0,64,127,4
0,64,127,4
0,42,91,4
0,64,114,28
0,64,107,4
0,61,107,4
0,57,87,4
0,64,100,0
0,33,111,8
0,61,100,0
0,57,90,4
0,42,26,4
0,35,46,0
0,33,126,4
0,57,107,0
0,61,117,4
0,64,117,4
0,42,91,0
0,35,102,0
0,64,85,4
0,69,105,4
0,64,100,16
0,61,100,4
0,57,99,4
0,64,100,0
0,61,100,0
0,42,27,0
0,57,99,4
0,57,127,12
0,61,127,4
0,64,127,4
