track,note,velocity,time
0,68,79,0
0,52,73,0
0,42,53,0
0,52,116,4
0,42,0,100
0,56,73,136
0,56,0,232
0,59,73,8
0,42,53,0
0,42,0,104
0,59,0,76
0,56,73,60
0,56,0,232
0,64,73,8
0,42,53,0
0,42,0,82
0,64,0,98
0,56,73,60
0,68,0,232
0,56,0,8
0,52,0,0
0,42,53,0
0,59,73,4
0,42,0,67
0,59,0,161
0,52,0,0
0,56,73,8
0,56,0,180
0,47,73,60
0,42,53,0
0,47,116,4
0,42,0,53
0,66,79,183
0,51,73,4
0,66,0,176
0,51,0,52
0,66,79,8
0,54,73,0
0,42,53,0
0,42,0,83
0,66,0,97
0,54,0,52
0,68,79,8
0,51,73,4
0,51,0,172
0,68,0,4
0,69,79,60
0,59,73,0
0,42,53,0
0,42,0,64
0,59,0,176
0,69,0,0
0,51,73,0
0,69,79,120
0,69,0,120
0,51,0,0
0,47,0,0
0,69,79,0
0,42,53,0
0,54,73,4
0,42,0,68
0,54,0,104
0,47,0,56
0,69,0,8
0,68,79,0
0,51,73,0
0,51,0,180
0,68,0,52
0,68,79,8
0,42,53,0
0,52,73,4
0,52,116,0
0,42,0,68
0,56,73,168
0,56,0,240
0,59,73,0
0,42,53,0
0,42,0,65
0,59,0,115
0,56,73,60
0,56,0,180
0,64,73,60
0,42,53,0
0,42,0,64
0,64,0,176
0,56,73,0
0,52,0,236
0,56,0,4
0,68,0,0
0,59,73,0
0,42,53,0
0,42,0,55
0,59,0,125
0,52,0,52
0,56,73,8
0,56,0,240
0,47,73,0
0,47,116,0
0,42,53,0
0,42,53,0
0,42,0,66
0,42,0,38
0,66,79,136
0,51,73,4
0,66,0,176
0,51,0,56
0,66,79,4
0,54,73,0
0,42,53,0
0,42,53,0
0,42,0,81
0,42,0,23
0,54,0,136
0,66,0,0
0,68,79,0
0,51,73,4
0,68,0,176
0,51,0,56
0,69,79,4
0,59,73,0
0,42,53,0
0,42,53,0
0,42,0,75
0,42,0,7
0,59,0,158
0,69,0,0
0,69,79,0
0,51,73,0
0,69,0,112
0,51,0,128
0,47,0,0
0,69,79,0
0,42,53,0
0,42,53,0
0,54,73,4
0,42,0,67
0,42,0,14
0,69,0,35
0,47,0,112
0,68,79,8
0,51,73,0
0,54,0,116
0,51,0,4
0,68,0,120
0,71,79,0
0,42,53,0
0,52,73,4
0,52,116,0
0,42,0,53
0,56,73,183
0,71,0,60
0,71,79,60
0,71,0,120
0,56,0,0
0,71,79,0
0,42,53,0
0,59,73,4
0,42,0,79
0,59,0,153
0,56,73,4
0,56,0,240
0,64,73,0
0,42,53,0
0,42,0,64
0,64,0,168
0,56,73,8
0,71,0,180
0,52,0,56
0,56,0,4
0,68,79,0
0,42,53,0
0,59,73,4
0,42,0,68
0,68,0,160
0,52,0,0
0,66,79,8
0,56,73,0
0,59,0,116
0,56,0,4
0,66,0,112
0,64,82,8
0,45,73,0
0,42,53,0
0,45,122,4
0,42,0,68
0,49,73,168
0,64,0,240
0,69,82,0
0,52,73,0
0,42,53,0
0,42,0,65
0,45,0,55
0,49,0,120
0,69,0,0
0,71,82,0
0,57,73,0
0,52,0,112
0,45,0,4
0,71,0,116
0,57,0,8
0,73,82,0
0,46,73,0
0,42,53,0
0,46,127,4
0,42,0,60
0,73,0,176
0,70,85,0
0,49,73,0
0,70,0,240
0,66,85,0
0,42,53,0
0,52,73,4
0,42,0,51
0,46,0,65
0,49,0,120
0,66,0,0
0,64,85,0
0,58,73,0
0,52,0,112
0,46,0,4
0,64,0,116
0,58,0,8
0,63,88,0
0,42,53,0
0,47,73,4
0,47,127,0
0,42,0,62
0,51,73,174
0,54,73,240
0,42,53,0
0,42,0,81
0,47,0,35
0,51,0,124
0,59,73,0
0,47,0,116
0,54,0,4
0,63,0,112
0,59,0,8
0,64,79,0
0,49,73,0
0,42,53,0
0,49,127,4
0,42,0,71
0,56,73,165
0,56,0,240
0,49,0,0
0,59,73,0
0,42,53,0
0,42,0,85
0,64,0,95
0,59,0,60
0,64,79,0
0,49,73,0
0,49,0,116
0,49,0,124
0,64,0,0
0,66,79,0
0,51,73,0
0,42,53,0
0,51,110,4
0,42,0,100
0,51,0,132
0,51,0,4
0,66,0,0
0,63,79,0
0,47,73,0
0,47,104,4
0,63,0,228
0,59,79,8
0,42,53,0
0,42,0,104
0,63,79,136
0,71,79,240
0,42,53,0
0,42,0,82
0,47,0,154
0,47,0,244
0,42,53,0
0,42,0,71
0,59,0,229
0,63,0,0
0,71,0,4
0,56,76,176
0,42,53,0
0,64,76,4
0,40,70,0
0,52,70,0
0,40,93,4
0,52,93,0
0,42,0,49
0,64,0,171
0,59,76,12
0,59,0,228
0,64,76,12
0,42,53,0
0,42,0,83
0,52,0,93
0,52,0,4
0,64,0,48
0,66,76,12
0,47,70,4
0,47,93,0
0,47,0,232
0,47,0,0
0,66,0,4
0,68,76,0
0,52,70,0
0,42,53,0
0,52,93,4
0,42,0,60
0,68,0,108
0,56,0,68
0,66,76,0
0,66,0,60
0,68,76,20
0,68,0,52
0,66,76,28
0,66,0,60
0,64,76,20
0,42,53,0
0,42,0,72
0,64,0,168
0,63,76,0
0,63,0,172
0,40,0,4
0,40,0,4
0,52,0,4
0,52,0,0
0,57,76,56
0,42,53,0
0,61,76,4
0,45,70,0
0,45,93,0
0,42,0,68
0,61,0,156
0,57,0,4
0,57,76,8
0,57,0,240
0,61,76,0
0,42,53,0
0,42,0,65
0,61,0,107
0,63,76,68
0,66,76,0
0,45,0,116
0,45,0,0
0,47,70,124
0,47,76,0
0,42,53,0
0,42,0,64
0,51,70,176
0,51,76,4
0,47,0,56
0,51,0,116
0,66,0,64
0,63,0,0
0,54,70,0
0,42,53,0
0,54,76,4
0,42,0,51
0,59,70,185
0,59,76,4
0,54,0,52
0,47,0,124
0,51,0,4
0,54,0,0
0,59,0,0
0,59,0,4
0,64,76,52
0,40,70,0
0,42,53,0
0,52,70,4
0,40,93,0
0,52,93,0
0,42,0,62
0,64,0,162
0,59,76,12
0,59,0,228
0,64,76,12
0,42,53,0
0,42,0,81
0,52,0,95
0,52,0,0
0,64,0,52
0,66,76,12
0,47,70,0
0,47,93,4
0,47,0,232
0,47,0,4
0,66,0,0
0,68,76,0
0,42,53,0
0,52,70,4
0,52,93,0
0,42,0,71
0,68,0,97
0,66,76,68
0,66,0,80
0,68,76,0
0,68,0,80
0,66,76,0
0,66,0,72
0,64,76,8
0,42,53,0
0,42,0,85
0,64,0,155
0,63,76,0
0,63,0,172
0,40,0,8
0,52,0,4
0,52,0,0
0,40,0,0
0,57,76,56
0,42,53,0
0,61,76,4
0,45,70,0
0,45,76,0
0,42,0,100
0,61,0,68
0,57,0,0
0,45,0,4
0,45,0,8
0,59,76,56
0,63,76,0
0,47,70,4
0,47,76,0
0,63,0,168
0,59,0,0
0,61,76,68
0,64,76,0
0,42,53,0
0,47,0,4
0,49,70,0
0,47,0,0
0,49,76,4
0,42,0,96
0,64,0,68
0,61,0,0
0,49,0,64
0,49,0,0
0,59,76,4
0,63,76,4
0,47,70,0
0,47,76,0
0,51,70,236
0,42,53,0
0,51,76,4
0,47,0,52
0,42,0,26
0,54,70,158
0,54,76,4
0,51,0,52
0,54,0,120
0,63,0,60
0,59,0,4
0,59,70,0
0,42,53,0
0,59,76,4
0,42,0,67
0,47,0,225
0,59,0,0
0,54,0,8
0,51,0,0
0,59,0,4
0,64,76,172
0,40,70,0
0,42,53,0
0,52,70,4
0,40,93,0
0,52,93,4
0,42,0,49
0,64,0,183
0,59,76,0
0,59,0,228
0,64,76,12
0,42,53,0
0,42,0,83
0,52,0,93
0,52,0,4
0,64,0,48
0,66,76,12
0,47,70,0
0,47,93,4
0,66,0,228
0,47,0,4
0,47,0,4
0,68,76,0
0,42,53,0
0,52,70,4
0,52,93,0
0,42,0,60
0,68,0,108
0,66,76,68
0,66,0,80
0,68,76,0
0,68,0,80
0,66,76,0
0,66,0,80
0,64,76,0
0,42,53,0
0,42,0,72
0,64,0,168
0,63,76,0
0,63,0,172
0,40,0,8
0,52,0,4
0,52,0,0
0,40,0,0
0,57,76,56
0,61,76,0
0,42,53,0
0,45,70,4
0,45,93,0
0,42,0,68
0,61,0,156
0,57,0,0
0,57,76,12
0,61,76,240
0,42,53,0
0,42,0,65
0,61,0,107
0,57,0,0
0,63,76,68
0,66,76,4
0,45,0,112
0,45,0,0
0,47,70,124
0,42,53,0
0,47,76,4
0,42,0,60
0,47,0,172
0,51,70,4
0,51,76,4
0,66,0,232
0,51,0,0
0,63,0,4
0,42,53,0
0,54,70,4
0,54,76,0
0,42,0,51
0,54,0,181
0,59,70,4
0,59,76,0
0,54,0,116
0,51,0,4
0,47,0,0
0,59,0,4
0,64,76,116
0,40,70,0
0,59,0,0
0,42,53,0
0,52,70,4
0,40,93,0
0,52,93,0
0,42,0,62
0,64,0,162
0,59,76,12
0,59,0,228
0,64,76,12
0,42,53,0
0,42,0,81
0,52,0,95
0,52,0,8
0,64,0,44
0,66,76,12
0,47,70,0
0,47,93,4
0,47,0,232
0,47,0,4
0,66,0,0
0,68,76,0
0,52,70,0
0,42,53,0
0,52,93,4
0,42,0,71
0,68,0,97
0,66,76,68
0,66,0,80
0,68,76,0
0,68,0,80
0,66,76,0
0,66,0,80
0,64,76,0
0,42,53,0
0,42,0,85
0,64,0,155
0,63,76,0
0,40,0,180
0,52,0,4
0,52,0,0
0,40,0,0
0,63,0,44
0,57,76,12
0,61,76,0
0,42,53,0
0,45,70,4
0,45,76,0
0,42,0,100
0,45,0,72
0,45,0,8
0,61,0,44
0,57,0,0
0,59,76,12
0,63,76,4
0,47,70,0
0,47,76,0
0,63,0,168
0,59,0,0
0,47,0,64
0,47,0,0
0,61,76,4
0,64,76,0
0,42,53,0
0,49,70,4
0,49,76,0
0,42,0,100
0,64,0,124
0,61,0,0
0,49,0,8
0,49,0,0
0,59,76,4
0,63,76,4
0,47,70,0
0,47,76,0
0,42,53,236
0,42,0,82
0,42,53,398
0,42,0,71
0,47,0,165
0,63,0,0
0,47,0,0
0,59,0,4
0,57,76,240
0,42,53,0
0,61,76,4
0,45,70,0
0,45,76,0
0,42,0,53
0,45,0,119
0,45,0,8
0,61,0,44
0,57,0,0
0,59,76,12
0,63,76,0
0,47,70,4
0,47,76,0
0,63,0,168
0,59,0,0
0,47,0,64
0,47,0,0
0,61,76,4
0,64,76,0
0,42,53,0
0,49,70,4
0,49,76,0
0,42,0,79
0,64,0,145
0,61,0,0
0,49,0,8
0,49,0,0
0,59,76,4
0,63,76,0
0,47,70,4
0,47,76,0
0,42,53,236
0,42,0,64
0,63,0,416
0,59,0,0
0,42,53,0
0,42,0,72
0,47,0,164
0,47,0,0
0,57,76,244
0,61,76,0
0,42,53,0
0,45,70,4
0,45,76,0
0,42,0,68
0,57,0,156
0,45,0,4
0,61,0,0
0,45,0,4
0,59,76,8
0,63,76,0
0,47,70,0
0,47,76,0
0,63,0,224
0,59,0,0
0,47,0,8
0,47,0,0
0,61,76,4
0,64,76,0
0,42,53,0
0,49,70,4
0,49,76,0
0,42,0,61
0,42,53,415
0,42,0,64
0,42,53,416
0,42,0,55
0,42,53,425
0,42,0,66
0,42,53,414
0,42,0,81
0,46,53,399
0,46,0,75
0,49,0,161
0,49,0,0
0,47,79,4
0,54,79,0
0,47,76,4
0,54,76,0
0,42,53,236
0,64,0,52
0,61,0,0
0,42,0,33
0,42,53,395
0,42,0,104
0,88,76,136
0,88,0,240
0,87,76,0
0,42,53,0
0,42,0,104
0,87,0,136
0,83,76,0
0,83,0,240
0,81,76,0
0,42,53,0
0,42,0,82
0,81,0,158
0,85,76,0
0,85,0,240
0,83,76,0
0,42,53,0
0,42,0,71
0,83,0,157
0,78,76,12
0,78,0,120
0,80,76,0
0,80,0,112
0,81,76,8
0,42,53,0
0,42,0,57
0,81,0,171
0,76,76,12
0,76,0,172
0,75,76,68
0,42,53,0
0,42,0,83
0,75,0,157
0,71,76,0
0,71,0,240
0,69,76,0
0,42,53,0
0,42,0,64
0,69,0,176
0,73,76,0
0,47,0,236
0,73,0,4
0,47,0,0
0,71,76,0
0,42,53,0
0,54,0,4
0,54,0,0
0,42,0,68
0,71,0,168
0,66,76,0
0,66,0,240
0,42,53,0
0,68,76,0
0,68,89,0
0,68,55,0
0,40,110,4
0,68,55,52
0,42,0,12
0,68,0,164
0,56,76,4
0,68,0,0
0,56,55,4
0,68,0,48
0,56,55,8
0,68,0,176
0,56,0,0
0,42,53,0
0,66,89,0
0,56,0,0
0,59,76,4
0,59,55,0
0,56,0,52
0,59,55,4
0,42,0,5
0,59,0,171
0,66,0,0
0,64,89,0
0,59,0,0
0,64,76,4
0,64,55,0
0,59,0,48
0,64,55,8
0,64,0,176
0,68,76,4
0,42,53,0
0,64,0,0
0,64,0,0
0,68,55,4
0,64,0,48
0,68,55,8
0,42,0,4
0,68,0,176
0,56,76,0
0,68,0,0
0,56,55,4
0,68,0,48
0,56,55,8
0,56,0,180
0,64,76,0
0,42,53,0
0,56,0,0
0,64,55,4
0,56,0,48
0,42,0,3
0,64,55,5
0,64,0,172
0,40,0,0
0,56,76,8
0,64,0,0
0,56,55,4
0,64,0,52
0,56,55,4
0,56,0,180
0,63,76,0
0,42,53,0
0,56,0,0
0,47,110,4
0,63,55,0
0,56,0,48
0,63,55,8
0,42,0,6
0,63,0,166
0,51,76,0
0,66,89,0
0,63,0,0
0,51,55,4
0,63,0,52
0,51,55,4
0,51,0,0
0,54,76,0
0,42,53,0
0,66,0,0
0,66,89,0
0,51,0,0
0,54,55,4
0,51,0,48
0,54,55,8
0,42,0,21
0,54,0,0
0,66,0,0
0,68,89,0
0,54,0,0
0,59,76,4
0,59,55,0
0,54,0,48
0,59,55,8
0,59,0,176
0,63,76,0
0,42,53,0
0,68,0,0
0,69,89,0
0,59,0,0
0,63,55,4
0,59,0,48
0,63,55,8
0,42,0,15
0,63,0,0
0,69,0,0
0,69,89,0
0,63,0,0
0,54,76,4
0,54,55,0
0,63,0,48
0,54,55,8
0,54,0,176
0,42,53,0
0,69,0,0
0,69,89,0
0,54,0,0
0,59,76,4
0,59,55,0
0,54,0,52
0,59,55,4
0,42,0,25
0,47,0,147
0,59,0,4
0,69,0,0
0,68,89,0
0,59,0,0
0,63,76,4
0,63,55,0
0,59,0,48
0,63,55,8
0,68,0,52
0,68,89,0
0,63,0,116
0,64,76,4
0,42,53,0
0,63,0,0
0,64,55,0
0,40,110,4
0,63,0,52
0,64,55,4
0,42,0,44
0,64,0,136
0,56,76,0
0,64,0,0
0,56,55,4
0,64,0,48
0,56,55,8
0,56,0,180
0,59,76,0
0,42,53,0
0,68,0,0
0,56,0,0
0,59,55,4
0,56,0,48
0,59,55,8
0,42,0,44
0,59,0,136
0,64,76,0
0,59,0,0
0,64,55,4
0,59,0,48
0,64,55,8
0,64,0,180
0,68,76,0
0,42,53,0
0,64,0,0
0,68,55,4
0,64,0,48
0,68,55,8
0,42,0,22
0,68,0,158
0,56,76,0
0,68,0,0
0,56,55,0
0,68,0,56
0,56,55,4
0,56,0,180
0,64,76,0
0,42,53,0
0,56,0,0
0,64,55,4
0,56,0,48
0,64,55,8
0,42,0,11
0,64,0,161
0,40,0,0
0,56,76,8
0,64,0,0
0,56,55,4
0,64,0,52
0,56,55,4
0,56,0,180
0,63,76,0
0,42,53,0
0,56,0,0
0,47,110,4
0,63,55,0
0,56,0,48
0,42,0,5
0,63,55,3
0,63,0,180
0,51,76,0
0,63,0,0
0,51,55,0
0,63,0,52
0,51,55,8
0,51,0,180
0,54,76,0
0,42,53,0
0,51,0,0
0,54,55,4
0,51,0,48
0,54,55,8
0,42,0,23
0,54,0,0
0,69,89,0
0,54,0,0
0,59,76,4
0,59,55,0
0,54,0,48
0,59,55,8
0,59,0,176
0,42,53,0
0,69,0,0
0,69,89,0
0,59,0,0
0,63,76,4
0,63,55,0
0,59,0,52
0,63,55,4
