track,note,velocity,time
4,68,79,0
4,52,73,0
4,56,73,240
4,56,0,232
4,59,73,8
4,59,0,180
4,56,73,60
4,56,0,232
4,64,73,8
4,64,0,180
4,56,73,60
4,68,0,232
4,56,0,8
4,52,0,0
4,59,73,4
4,59,0,228
4,56,73,8
4,56,0,180
4,47,73,60
4,66,79,240
4,51,73,4
4,66,0,176
4,51,0,52
4,66,79,8
4,54,73,0
4,66,0,180
4,54,0,52
4,68,79,8
4,51,73,4
4,51,0,172
4,68,0,4
4,69,79,60
4,59,73,0
4,59,0,240
4,69,0,0
4,51,73,0
4,69,79,120
4,69,0,120
4,51,0,0
4,47,0,0
4,69,79,0
4,54,73,4
4,54,0,172
4,69,0,64
4,68,79,0
4,51,73,0
4,51,0,180
4,68,0,52
4,68,79,8
4,52,73,4
4,56,73,236
4,56,0,240
4,59,73,0
4,59,0,180
4,56,73,60
4,56,0,180
4,64,73,60
4,64,0,240
4,56,73,0
4,52,0,236
4,56,0,4
4,68,0,0
4,59,73,0
4,59,0,180
4,56,73,60
4,56,0,240
4,47,73,0
4,66,79,240
4,51,73,4
4,66,0,176
4,51,0,56
4,66,79,4
4,54,73,0
4,54,0,240
4,66,0,0
4,68,79,0
4,51,73,4
4,68,0,176
4,51,0,56
4,69,79,4
4,59,73,0
4,59,0,240
4,69,0,0
4,69,79,0
4,51,73,0
4,69,0,112
4,51,0,128
4,47,0,0
4,69,79,0
4,54,73,4
4,69,0,116
4,68,79,120
4,51,73,0
4,54,0,116
4,51,0,4
4,68,0,120
4,71,79,0
4,52,73,4
4,56,73,236
4,71,0,60
4,71,79,60
4,71,0,120
4,56,0,0
4,71,79,0
4,59,73,4
4,59,0,232
4,56,73,4
4,56,0,240
4,64,73,0
4,64,0,232
4,56,73,8
4,71,0,180
4,52,0,56
4,56,0,4
4,68,79,0
4,59,73,4
4,68,0,228
4,66,79,8
4,56,73,0
4,59,0,116
4,56,0,4
4,66,0,112
4,64,82,8
4,45,73,0
4,49,73,240
4,64,0,240
4,69,82,0
4,52,73,0
4,45,0,120
4,49,0,120
4,69,0,0
4,71,82,0
4,57,73,0
4,52,0,112
4,71,0,120
4,57,0,8
4,73,82,0
4,46,73,0
4,73,0,240
4,70,85,0
4,49,73,0
4,70,0,240
4,66,85,0
4,52,73,4
4,46,0,116
4,49,0,120
4,66,0,0
4,64,85,0
4,58,73,0
4,52,0,112
4,64,0,120
4,58,0,8
4,63,88,0
4,47,73,4
4,51,73,236
4,54,73,240
4,47,0,116
4,51,0,124
4,59,73,0
4,54,0,120
4,63,0,112
4,59,0,8
4,64,79,0
4,49,73,0
4,56,73,240
4,56,0,240
4,49,0,0
4,59,73,0
4,64,0,180
4,59,0,60
4,64,79,0
4,49,73,0
4,49,0,240
4,64,0,0
4,66,79,0
4,51,73,0
4,51,0,240
4,66,0,0
4,63,79,0
4,47,73,0
4,63,0,232
4,59,79,8
4,63,79,240
4,71,79,240
4,47,0,480
4,59,0,300
4,63,0,0
4,71,0,4
4,56,76,176
4,64,76,4
4,40,70,0
4,52,70,0
4,64,0,224
4,59,76,12
4,59,0,228
4,64,76,12
4,52,0,176
4,64,0,52
4,66,76,12
4,47,70,4
4,47,0,232
4,66,0,4
4,68,76,0
4,52,70,0
4,68,0,172
4,56,0,68
4,66,76,0
4,66,0,60
4,68,76,20
4,68,0,52
4,66,76,28
4,66,0,60
4,64,76,20
4,64,0,240
4,63,76,0
4,63,0,172
4,40,0,4
4,52,0,8
4,57,76,56
4,61,76,4
4,45,70,0
4,61,0,224
4,57,0,4
4,57,76,8
4,57,0,240
4,61,76,0
4,61,0,172
4,63,76,68
4,66,76,0
4,45,0,116
4,47,70,124
4,51,70,240
4,66,0,240
4,63,0,0
4,54,70,0
4,59,70,240
4,47,0,180
4,51,0,4
4,54,0,0
4,59,0,4
4,64,76,52
4,40,70,0
4,52,70,4
4,64,0,224
4,59,76,12
4,59,0,228
4,64,76,12
4,52,0,176
4,64,0,52
4,66,76,12
4,47,70,0
4,47,0,240
4,66,0,0
4,68,76,0
4,52,70,4
4,68,0,168
4,66,76,68
4,66,0,80
4,68,76,0
4,68,0,80
4,66,76,0
4,66,0,72
4,64,76,8
4,64,0,240
4,63,76,0
4,63,0,172
4,40,0,8
4,52,0,4
4,57,76,56
4,61,76,4
4,45,70,0
4,61,0,168
4,57,0,0
4,45,0,4
4,59,76,64
4,63,76,0
4,47,70,4
4,63,0,168
4,59,0,0
4,61,76,68
4,64,76,0
4,47,0,4
4,49,70,0
4,64,0,168
4,61,0,0
4,49,0,64
4,59,76,4
4,63,76,4
4,47,70,0
4,51,70,236
4,54,70,240
4,63,0,236
4,59,0,4
4,59,70,0
4,47,0,296
4,54,0,8
4,51,0,0
4,59,0,4
4,64,76,172
4,40,70,0
4,52,70,4
4,64,0,236
4,59,76,0
4,59,0,228
4,64,76,12
4,52,0,176
4,64,0,52
4,66,76,12
4,47,70,0
4,66,0,232
4,47,0,8
4,68,76,0
4,52,70,4
4,68,0,168
4,66,76,68
4,66,0,80
4,68,76,0
4,68,0,80
4,66,76,0
4,66,0,80
4,64,76,0
4,64,0,240
4,63,76,0
4,63,0,172
4,40,0,8
4,52,0,4
4,57,76,56
4,61,76,0
4,45,70,4
4,61,0,224
4,57,0,0
4,57,76,12
4,61,76,240
4,61,0,172
4,57,0,0
4,63,76,68
4,66,76,4
4,45,0,112
4,47,70,124
4,51,70,240
4,66,0,236
4,63,0,4
4,54,70,4
4,59,70,236
4,54,0,116
4,51,0,4
4,47,0,0
4,59,0,4
4,64,76,116
4,40,70,0
4,52,70,4
4,64,0,224
4,59,76,12
4,59,0,228
4,64,76,12
4,52,0,176
4,64,0,52
4,66,76,12
4,47,70,0
4,47,0,240
4,66,0,0
4,68,76,0
4,52,70,0
4,68,0,172
4,66,76,68
4,66,0,80
4,68,76,0
4,68,0,80
4,66,76,0
4,66,0,80
4,64,76,0
4,64,0,240
4,63,76,0
4,40,0,180
4,52,0,4
4,63,0,44
4,57,76,12
4,61,76,0
4,45,70,4
4,45,0,172
4,61,0,52
4,57,0,0
4,59,76,12
4,63,76,4
4,47,70,0
4,63,0,168
4,59,0,0
4,47,0,64
4,61,76,4
4,64,76,0
4,49,70,4
4,64,0,224
4,61,0,0
4,49,0,8
4,59,76,4
4,63,76,4
4,47,70,0
4,47,0,952
4,63,0,0
4,59,0,4
4,57,76,240
4,61,76,4
4,45,70,0
4,45,0,172
4,61,0,52
4,57,0,0
4,59,76,12
4,63,76,0
4,47,70,4
4,63,0,168
4,59,0,0
4,47,0,64
4,61,76,4
4,64,76,0
4,49,70,4
4,64,0,224
4,61,0,0
4,49,0,8
4,59,76,4
4,63,76,0
4,47,70,4
4,63,0,716
4,59,0,0
4,47,0,236
4,57,76,244
4,61,76,0
4,45,70,4
4,57,0,224
4,45,0,4
4,61,0,0
4,59,76,12
4,63,76,0
4,47,70,0
4,63,0,224
4,59,0,0
4,47,0,8
4,61,76,4
4,64,76,0
4,49,70,4
4,49,0,2632
4,47,79,4
4,54,79,0
4,64,0,292
4,61,0,0
4,88,76,668
4,88,0,240
4,87,76,0
4,87,0,240
4,83,76,0
4,83,0,240
4,81,76,0
4,81,0,240
4,85,76,0
4,85,0,240
4,83,76,0
4,83,0,228
4,78,76,12
4,78,0,120
4,80,76,0
4,80,0,112
4,81,76,8
4,81,0,228
4,76,76,12
4,76,0,172
4,75,76,68
4,75,0,240
4,71,76,0
4,71,0,240
4,69,76,0
4,69,0,240
4,73,76,0
4,73,0,240
4,47,0,0
4,71,76,0
4,54,0,4
4,71,0,236
4,66,76,0
4,66,0,240
4,68,76,4
4,68,0,232
4,56,76,4
4,56,0,240
4,59,76,4
4,59,0,232
4,64,76,8
4,64,0,232
4,68,76,4
4,68,0,240
4,56,76,0
4,56,0,240
4,64,76,0
4,64,0,232
4,56,76,8
4,56,0,240
4,63,76,0
4,63,0,232
4,51,76,8
4,51,0,240
4,54,76,0
4,54,0,240
4,59,76,4
4,59,0,232
4,63,76,4
4,63,0,240
4,54,76,4
4,54,0,232
4,59,76,8
4,59,0,232
4,63,76,8
4,63,0,232
4,64,76,4
4,64,0,240
4,56,76,0
4,56,0,240
4,59,76,0
4,59,0,240
4,64,76,0
4,64,0,240
4,68,76,0
4,68,0,240
4,56,76,0
4,56,0,240
4,64,76,0
4,64,0,232
4,56,76,8
4,56,0,240
4,63,76,0
4,63,0,240
4,51,76,0
4,51,0,240
4,54,76,0
4,54,0,240
4,59,76,4
4,59,0,232
4,63,76,8
4,63,0,228
4,59,76,8
4,59,0,240
4,66,76,0
4,66,0,240
4,63,76,4
4,63,0,232
4,64,76,8
4,64,0,232
4,56,76,4
4,56,0,240
4,59,76,0
4,59,0,240
4,56,76,0
4,56,0,228
4,64,76,12
4,64,0,232
4,59,76,8
4,59,0,240
4,68,76,0
4,68,0,240
4,66,76,0
4,66,0,240
4,64,76,0
4,64,0,232
4,57,76,12
4,57,0,232
4,61,76,4
4,61,0,240
4,64,76,4
4,64,0,232
4,66,76,8
4,66,0,232
4,61,76,4
4,61,0,240
4,66,76,0
4,66,0,240
4,64,76,4
4,64,0,168
4,63,76,72
4,63,0,232
4,54,76,4
4,54,0,240
4,59,76,0
4,59,0,240
4,63,76,0
4,63,0,232
4,64,76,8
4,64,0,232
4,54,76,8
4,54,0,240
4,59,76,0
4,59,0,240
4,64,76,0
4,64,0,240
4,66,76,0
4,63,76,240
4,66,0,240
4,57,76,0
4,63,0,240
4,63,76,0
4,57,0,240
4,71,76,0
4,71,0,720
4,63,0,0
4,56,76,244
4,64,76,0
4,64,0,232
4,56,0,0
4,56,76,4
4,56,0,240
4,59,76,0
4,59,0,240
4,64,76,4
4,64,0,232
4,59,76,4
4,68,76,0
4,68,0,360
4,59,0,0
4,56,76,120
4,64,76,0
4,64,0,360
4,56,0,0
4,63,76,120
4,63,0,240
4,54,76,4
4,54,0,232
4,59,76,8
4,59,0,232
4,63,76,4
4,63,0,240
4,66,76,0
4,66,0,240
4,63,76,4
4,63,0,232
4,59,76,8
4,59,0,228
4,54,76,8
4,54,0,180
4,56,76,60
4,64,76,0
4,64,0,240
4,56,0,0
4,56,76,0
4,56,0,240
4,59,76,0
4,59,0,240
4,64,76,0
4,64,0,184
4,59,76,56
4,68,76,0
4,68,0,360
4,59,0,0
4,56,76,120
4,64,76,4
4,64,0,352
4,56,0,4
4,54,76,120
4,63,76,4
4,54,0,236
4,63,0,4
4,54,76,0
4,54,0,232
4,59,76,8
4,59,0,232
4,63,76,8
4,63,0,232
4,66,76,4
4,66,0,240
4,63,76,4
4,63,0,232
4,59,76,4
4,59,0,240
4,54,76,4
4,54,0,184
4,56,76,56
4,64,76,0
4,64,0,232
4,56,0,0
4,56,76,4
4,56,0,240
4,59,76,0
4,59,0,240
4,64,76,0
4,64,0,240
4,68,76,0
4,68,0,232
4,59,76,8
4,59,0,240
4,68,76,0
4,68,0,240
4,66,76,0
4,66,0,240
4,64,76,0
4,64,0,240
4,61,76,0
4,61,0,240
4,57,76,0
4,57,0,240
4,61,76,4
4,61,0,232
4,66,76,4
4,66,0,240
4,61,76,4
4,61,0,232
4,66,76,4
4,66,0,240
4,64,76,0
4,64,0,184
4,63,76,56
4,63,0,240
4,54,76,4
4,54,0,232
4,59,76,4
4,59,0,240
4,63,76,0
4,63,0,240
4,64,76,0
4,64,0,240
4,56,76,0
4,56,0,240
4,59,76,0
4,59,0,240
4,64,76,0
4,64,0,240
4,66,76,0
4,66,0,240
4,57,76,0
4,57,0,232
4,59,76,8
4,59,0,240
4,63,76,0
4,71,76,240
4,71,0,720
4,63,0,0
4,52,76,244
4,52,73,0
4,52,0,224
4,56,76,12
4,56,0,228
4,59,76,16
4,59,0,224
4,56,76,16
4,56,0,224
4,64,76,12
4,64,0,228
4,59,76,12
4,59,0,228
4,56,76,12
4,56,0,228
4,52,76,12
4,52,0,120
4,52,0,108
4,45,76,12
4,52,73,0
4,45,0,228
4,61,76,12
4,61,0,228
4,57,76,16
4,52,0,116
4,57,0,108
4,61,76,12
4,52,73,4
4,61,0,224
4,52,0,8
4,63,76,4
4,54,73,0
4,63,0,228
4,59,76,12
4,54,0,120
4,59,0,108
4,63,76,16
4,56,73,0
4,63,0,224
4,56,0,8
4,59,76,8
4,57,73,0
4,59,0,168
4,57,0,64
4,56,76,8
4,64,76,0
4,52,73,0
4,56,0,224
4,64,0,4
4,56,76,8
4,56,0,228
4,59,76,12
4,59,0,228
4,56,76,12
4,56,0,228
4,64,76,12
4,64,0,228
4,59,76,12
4,59,0,228
4,56,76,12
4,56,0,228
4,52,0,8
4,52,76,4
4,52,0,228
4,45,76,12
4,52,73,4
4,45,0,224
4,61,76,12
4,61,0,228
4,57,76,16
4,52,0,108
4,57,0,116
4,61,76,12
4,52,73,4
4,61,0,224
4,52,0,4
4,47,76,8
4,63,76,0
4,54,73,4
4,47,0,224
4,63,0,4
4,59,76,12
4,54,0,112
4,59,0,112
4,63,76,16
4,56,73,0
4,63,0,224
4,56,0,8
4,59,76,8
4,57,73,0
4,59,0,168
4,57,0,64
4,52,76,8
4,56,76,0
4,64,76,0
4,52,73,0
4,52,0,224
4,56,0,4
4,64,0,4
4,56,76,4
4,56,0,228
4,59,76,12
4,59,0,228
4,56,76,12
4,56,0,228
4,64,76,12
4,64,0,228
4,59,76,12
4,59,0,228
4,56,76,12
4,56,0,228
4,52,0,8
4,52,76,4
4,52,0,228
4,45,76,12
4,52,73,0
4,45,0,228
4,61,76,16
4,61,0,224
4,57,76,16
4,52,0,116
4,57,0,108
4,61,76,16
4,52,73,0
4,61,0,224
4,52,0,4
4,47,76,8
4,63,76,0
4,54,73,4
4,47,0,224
4,63,0,4
4,59,76,12
4,54,0,108
4,59,0,116
4,63,76,12
4,56,73,4
4,63,0,224
4,56,0,8
4,59,76,8
4,57,73,0
4,59,0,224
4,57,0,8
4,52,76,8
4,64,76,0
4,52,73,0
4,52,0,224
4,64,0,4
4,56,76,8
4,56,0,228
4,59,76,12
4,59,0,228
4,56,76,12
4,56,0,228
4,64,76,12
4,64,0,228
4,59,76,12
4,59,0,228
4,56,76,12
4,56,0,228
4,52,0,8
4,52,76,4
4,52,0,228
4,45,76,12
4,52,73,0
4,45,0,228
4,61,76,16
4,61,0,224
4,57,76,16
4,52,0,116
4,57,0,108
4,61,76,12
4,52,73,0
4,61,0,228
4,52,0,12
4,47,76,0
4,63,76,4
4,54,73,0
4,47,0,224
4,63,0,4
4,59,76,8
4,54,0,112
4,59,0,116
4,63,76,12
4,56,73,4
4,63,0,224
4,56,0,8
4,59,76,4
4,57,73,4
4,59,0,224
4,57,0,8
4,52,76,8
4,68,76,0
4,52,73,0
4,52,0,224
4,68,0,4
4,59,76,8
4,59,0,228
4,64,76,12
4,64,0,228
4,59,76,12
4,59,0,228
4,68,76,12
4,68,0,228
4,59,76,12
4,59,0,228
4,52,0,8
4,64,76,4
4,64,0,228
4,59,76,12
4,52,73,0
4,59,0,172
4,52,0,60
4,45,76,8
4,69,76,0
4,57,73,4
4,45,0,224
4,69,0,4
4,61,76,8
4,61,0,228
4,64,76,12
4,57,0,116
4,64,0,112
4,68,76,12
4,57,73,4
4,68,0,224
4,57,0,8
4,47,76,4
4,66,76,4
4,59,73,0
4,47,0,224
4,66,0,4
4,59,76,8
4,59,0,228
4,63,76,16
4,47,73,0
4,63,0,224
4,59,76,16
4,59,0,112
4,47,0,0
4,59,0,112
4,56,76,20
4,64,76,4
4,40,70,0
4,52,70,0
4,64,0,212
4,59,76,16
4,59,0,228
4,64,76,12
4,52,0,176
4,64,0,52
4,66,76,12
4,47,70,0
4,47,0,240
4,66,0,0
4,68,76,0
4,52,70,0
4,68,0,172
4,56,0,64
4,66,76,4
4,66,0,60
4,68,76,20
4,68,0,60
4,66,76,20
4,66,0,60
4,64,76,20
4,64,0,240
4,63,76,0
4,63,0,172
4,40,0,4
4,52,0,8
