track,note,velocity,time
0,60,105,885
0,69,95,2
0,48,86,0
0,60,96,0
0,65,102,0
0,69,84,0
0,69,89,2
0,69,99,2
0,67,95,2
0,67,84,2
0,48,96,0
0,60,95,0
0,64,106,0
0,67,74,0
0,64,99,2
0,60,87,2
0,62,105,2
0,47,98,0
0,67,98,0
0,55,112,0
0,62,115,0
0,62,96,2
0,64,110,2
0,48,105,0
0,55,92,0
0,60,103,0
0,64,84,0
0,60,108,302
0,60,110,2
0,45,105,0
0,52,105,0
0,57,105,0
0,60,90,0
0,60,98,2
0,60,107,2
0,60,108,2
0,62,108,2
0,47,105,0
0,55,97,0
0,62,94,0
0,62,103,2
0,62,105,2
0,64,109,2
0,48,98,2
0,55,89,0
0,60,101,0
0,64,76,0
0,69,84,2
0,65,102,0
0,60,96,0
0,48,86,0
0,64,99,180
0,67,100,2
0,67,74,0
0,64,106,0
0,60,95,0
0,48,96,0
0,64,97,2
0,60,100,2
0,60,92,2
0,62,101,0
0,62,115,0
0,55,112,0
0,67,98,0
0,47,98,0
0,62,98,2
0,62,89,2
0,62,76,2
0,64,102,0
0,40,100,0
0,57,95,0
0,59,105,0
0,64,84,0
0,45,112,2
0,52,94,0
0,57,103,0
0,60,85,0
0,60,90,180
0,60,96,2
0,64,105,2
0,67,105,2
0,43,109,2
0,64,84,0
0,55,97,0
0,59,102,0
0,41,110,2
0,53,84,0
0,57,100,0
0,60,89,0
0,60,98,180
0,60,103,2
0,60,97,2
0,60,113,2
0,60,98,2
0,55,92,2
0,36,108,0
0,52,97,0
0,55,105,0
0,60,94,0
0,60,86,2
0,41,114,0
0,53,92,0
0,57,105,0
0,60,100,180
0,60,110,2
0,60,106,0
0,60,115,2
0,62,105,0
0,62,114,2
0,64,105,0
0,64,108,2
0,64,114,2
0,43,114,0
0,55,91,0
0,64,66,0
0,60,90,0
0,62,107,2
0,43,109,0
0,55,90,0
0,62,75,0
0,59,100,0
0,64,110,2
0,48,109,0
0,55,84,0
0,60,84,0
0,64,60,0
0,67,104,2
0,67,110,2
0,69,107,2
0,47,115,0
0,55,98,0
0,62,101,0
0,67,88,0
0,67,105,2
0,64,106,2
0,62,106,2
0,60,107,0
0,45,116,0
0,57,98,0
0,60,106,0
0,64,90,0
0,64,109,2
0,64,96,0
0,40,120,0
0,55,98,0
0,59,106,0
0,64,90,0
0,28,70,0
0,60,94,420
0,62,95,2
0,50,110,0
0,57,100,0
0,53,84,0
0,62,83,0
0,62,79,0
0,62,94,2
0,62,78,2
0,62,89,2
0,60,85,2
0,60,91,2
0,46,123,0
0,53,91,0
0,58,89,0
0,62,72,0
0,70,55,0
0,58,45,0
0,62,84,2
0,62,108,2
0,72,75,140
0,79,80,2
0,79,64,2
0,53,83,0
0,57,101,0
0,60,76,0
0,65,58,0
0,57,56,0
0,81,75,2
0,62,102,67
0,62,101,2
0,43,108,0
0,52,98,0
0,55,107,0
0,60,79,0
0,60,63,0
0,55,69,0
0,64,89,2
0,64,98,2
0,60,85,140
0,48,97,0
0,62,79,2
0,48,97,0
0,50,100,40
0,45,110,2
0,52,100,0
0,57,110,0
0,60,95,0
0,52,86,0
0,52,73,0
0,69,109,93
0,69,109,0
0,60,102,2
0,53,96,0
0,65,96,0
0,69,85,0
0,76,92,2
0,76,92,0
0,55,94,2
0,62,108,0
0,71,110,0
0,67,100,0
0,76,79,0
0,57,106,2
0,50,88,0
0,66,92,0
0,69,115,0
0,74,102,0
0,74,104,0
0,74,104,0
0,52,105,0
0,59,95,0
0,64,105,0
0,67,89,0
0,67,102,0
0,67,102,0
0,60,106,0
0,53,103,0
0,65,89,0
0,69,103,0
0,69,110,0
0,69,110,0
0,52,100,2
0,59,105,0
0,62,98,0
0,67,104,0
0,71,75,0
0,71,102,0
0,71,102,0
0,72,94,223
0,72,94,0
0,72,91,2
0,67,102,0
0,62,95,0
0,55,105,0
0,71,97,2
0,71,97,0
0,71,57,0
0,67,104,0
0,62,86,0
0,55,98,0
0,57,107,0
0,64,87,0
0,69,94,0
0,69,97,0
0,69,97,0
0,67,75,222
0,69,94,0
0,64,87,0
0,57,107,0
0,69,97,0
0,69,97,0
0,48,86,0
0,60,96,0
0,65,102,0
0,69,84,0
0,60,105,3
0,69,95,0
0,69,84,0
0,65,102,0
0,60,96,0
0,48,86,0
0,69,99,2
0,67,95,2
0,67,84,2
0,67,74,0
0,64,106,0
0,60,95,0
0,48,96,0
0,48,96,0
0,60,95,0
0,64,106,0
0,67,74,0
0,64,99,2
0,60,87,2
0,55,105,2
0,55,105,0
0,62,115,0
0,55,112,0
0,67,98,0
0,47,98,0
0,47,98,0
0,67,98,0
0,55,112,0
0,62,115,0
0,60,96,2
0,64,110,2
0,64,84,0
0,60,103,0
0,55,92,0
0,48,105,0
0,48,105,0
0,55,92,0
0,60,103,0
0,64,84,0
0,62,65,182
0,60,90,2
0,57,105,0
0,52,105,0
0,45,105,0
0,45,105,0
0,52,105,0
0,57,105,0
0,60,90,0
0,57,66,0
0,60,107,120
0,60,108,2
0,62,108,2
0,62,94,0
0,55,97,0
0,47,105,0
0,47,105,0
0,55,97,0
0,62,94,0
0,62,103,2
0,62,105,2
0,64,109,2
0,64,76,2
0,60,101,0
0,55,89,0
0,48,98,0
0,48,98,0
0,55,89,0
0,60,101,0
0,64,76,0
0,48,86,2
0,60,96,0
0,65,102,0
0,69,84,0
0,69,84,0
0,65,102,0
0,60,96,0
0,48,86,0
0,67,90,60
0,64,99,2
0,67,100,2
0,48,96,0
0,60,95,0
0,64,106,0
0,67,74,0
0,67,74,0
0,64,106,0
0,60,95,0
0,48,96,0
0,64,97,2
0,60,100,2
0,60,92,2
0,62,101,0
0,47,98,0
0,67,98,0
0,55,112,0
0,62,115,0
0,62,115,0
0,55,112,0
0,67,98,0
0,47,98,0
0,62,98,2
0,62,89,2
0,62,76,2
0,64,102,0
0,64,84,0
0,59,105,0
0,57,95,0
0,40,100,0
0,40,100,0
0,57,95,0
0,59,105,0
0,64,84,0
0,76,82,0
0,64,67,0
0,59,80,136
0,62,90,83
0,60,64,2
0,60,85,0
0,57,103,0
0,52,94,0
0,45,112,0
0,45,112,0
0,52,94,0
0,57,103,0
0,60,85,0
0,60,90,2
0,60,90,2
0,60,90,2
0,60,96,2
0,67,90,2
0,67,105,32
0,59,102,2
0,55,97,0
0,64,84,0
0,43,109,0
0,43,109,0
0,64,84,0
0,55,97,0
0,59,102,0
0,60,89,2
0,57,100,0
0,53,84,0
0,41,110,0
0,41,110,0
0,53,84,0
0,57,100,0
0,60,89,0
0,60,107,0
0,60,98,1
0,60,103,2
0,60,97,2
0,64,113,2
0,55,98,2
0,55,92,2
0,60,94,0
0,55,105,0
0,52,97,0
0,36,108,0
0,36,108,0
0,52,97,0
0,55,105,0
0,60,94,0
0,55,63,1
0,60,64,7
0,55,86,2
0,60,78,7
0,62,70,17
0,60,92,3
0,57,105,2
0,53,92,0
0,41,114,0
0,60,86,0
0,60,86,0
0,41,114,0
0,53,92,0
0,57,105,0
0,53,85,0
0,57,107,0
0,57,87,1
0,60,100,1
0,60,110,2
0,60,106,0
0,60,106,0
0,60,115,2
0,62,105,0
0,62,105,0
0,62,114,2
0,64,105,0
0,64,105,0
0,64,108,2
0,64,114,2
0,60,90,0
0,64,66,0
0,55,91,0
0,43,114,0
0,43,114,0
0,55,91,0
0,64,66,0
0,60,90,0
0,48,71,0
0,55,63,5
0,60,60,5
0,64,55,5
0,62,107,2
0,59,100,0
0,62,75,0
0,55,90,0
0,43,109,0
0,43,109,0
0,55,90,0
0,62,75,0
0,59,100,0
0,43,60,0
0,55,65,5
0,59,65,5
0,62,60,5
0,64,110,2
0,64,60,0
0,60,84,0
0,55,84,0
0,48,109,0
0,48,109,0
0,55,84,0
0,60,84,0
0,64,60,0
0,67,104,2
0,67,110,2
0,67,90,30
0,69,107,2
0,67,88,0
0,62,101,0
0,55,98,0
0,47,115,0
0,47,115,0
0,55,98,0
0,62,101,0
0,67,88,0
0,67,105,2
0,64,106,2
0,62,106,2
0,60,107,0
0,64,90,0
0,60,106,0
0,57,98,0
0,45,116,0
0,45,116,0
0,57,98,0
0,60,106,0
0,64,90,0
0,64,109,2
0,64,96,0
0,64,90,0
0,59,106,0
0,55,98,0
0,40,120,0
0,40,120,0
0,55,98,0
0,59,106,0
0,64,90,0
0,74,102,143
0,28,90,0
0,60,94,1
0,62,95,2
0,62,83,0
0,53,84,0
0,57,100,0
0,50,110,0
0,50,110,0
0,57,100,0
0,53,84,0
0,62,83,0
0,62,94,2
0,62,78,2
0,62,89,2
0,60,85,2
0,60,91,2
0,62,72,0
0,58,89,0
0,53,91,0
0,46,123,0
0,46,123,0
0,53,91,0
0,58,89,0
0,62,72,0
0,62,84,2
0,62,108,2
0,72,75,140
0,72,75,0
0,79,80,2
0,79,80,0
0,79,90,2
0,60,76,0
0,57,101,0
0,53,83,0
0,81,75,0
0,53,83,0
0,57,101,0
0,60,76,0
0,81,75,2
0,79,83,150
0,62,102,67
0,62,101,2
0,60,79,0
0,55,107,0
0,52,98,0
0,43,108,0
0,43,108,0
0,52,98,0
0,55,107,0
0,60,79,0
0,64,89,2
0,64,98,2
0,60,85,50
0,60,85,0
0,48,97,0
0,62,79,2
0,62,79,0
0,48,97,0
0,50,100,40
0,60,95,2
0,57,110,0
0,52,100,0
0,45,110,0
0,45,110,0
0,52,100,0
0,57,110,0
0,60,95,0
0,52,86,0
0,69,109,93
0,69,109,0
0,69,85,0
0,65,96,0
0,53,96,0
0,60,102,0
0,60,102,0
0,53,96,0
0,65,96,0
0,69,85,0
0,76,92,2
0,76,92,0
0,76,79,2
0,67,100,0
0,71,110,0
0,62,108,0
0,55,94,0
0,55,94,0
0,62,108,0
0,71,110,0
0,67,100,0
0,76,79,0
0,74,104,2
0,74,104,0
0,74,102,2
0,69,115,0
0,66,92,0
0,50,88,0
0,57,106,0
0,57,106,0
0,50,88,0
0,66,92,0
0,69,115,0
0,74,102,0
0,67,102,2
0,67,102,0
0,67,89,0
0,64,105,0
0,59,95,0
0,52,105,0
0,52,105,0
0,59,95,0
0,64,105,0
0,67,89,0
0,67,92,3
0,69,110,2
0,69,110,0
0,69,103,0
0,65,89,0
0,53,103,0
0,60,106,0
0,60,106,0
0,53,103,0
0,65,89,0
0,69,103,0
0,71,102,2
0,71,102,0
0,71,75,2
0,67,104,0
0,62,98,0
0,59,105,0
0,52,100,0
0,52,100,0
0,59,105,0
0,62,98,0
0,67,104,0
0,71,75,0
0,72,94,2
0,72,94,0
0,55,105,2
0,62,95,0
0,67,102,0
0,72,91,0
0,72,91,0
0,67,102,0
0,62,95,0
0,55,105,0
0,71,97,2
0,71,97,0
0,55,98,0
0,62,86,0
0,67,104,0
0,71,57,0
0,71,57,0
0,67,104,0
0,62,86,0
0,55,98,0
0,69,90,0
0,69,109,2
0,69,109,0
0,60,102,0
0,53,96,0
0,65,96,0
0,69,85,0
0,69,85,0
0,65,96,0
0,53,96,0
0,60,102,0
0,74,98,5
0,76,92,1
0,76,92,0
0,55,94,2
0,62,108,0
0,71,110,0
0,67,100,0
0,76,79,0
0,76,79,0
0,67,100,0
0,71,110,0
0,62,108,0
0,55,94,0
0,74,104,2
0,74,104,0
0,57,106,2
0,50,88,0
0,66,92,0
0,69,115,0
0,74,102,0
0,74,102,0
0,69,115,0
0,66,92,0
0,50,88,0
0,57,106,0
0,67,89,0
0,52,105,0
0,59,95,0
0,64,105,0
0,67,102,0
0,64,105,0
0,59,95,0
0,52,105,0
0,67,89,0
0,67,102,0
0,76,110,64
0,64,100,3
0,64,90,0
0,64,127,0
0,64,100,0
0,67,100,2
0,67,85,0
0,67,127,0
0,67,100,0
0,79,110,13
0,69,110,30
0,69,110,0
0,60,106,0
0,53,103,0
0,65,89,0
0,69,103,0
0,69,103,0
0,65,89,0
0,53,103,0
0,60,106,0
0,79,98,0
0,71,102,1
0,71,102,0
0,52,100,2
0,59,105,0
0,62,98,0
0,67,104,0
0,71,75,0
0,71,75,0
0,67,104,0
0,62,98,0
0,59,105,0
0,52,100,0
0,72,94,2
0,72,94,0
0,55,105,2
0,62,95,0
0,67,102,0
0,72,91,0
0,72,91,0
0,67,102,0
0,62,95,0
0,55,105,0
0,71,97,2
0,71,97,0
0,55,98,2
0,62,86,0
0,67,104,0
0,71,57,0
0,71,57,0
0,67,104,0
0,62,86,0
0,55,98,0
0,57,107,2
0,64,87,0
0,69,94,0
0,57,107,0
0,64,87,0
0,69,94,0
0,69,97,0
0,69,97,1
0,67,98,0
0,60,105,3
0,69,95,0
0,48,86,0
0,60,96,0
0,65,102,0
0,69,84,0
0,69,84,0
0,65,102,0
0,60,96,0
0,48,86,0
0,69,99,2
0,67,84,2
0,48,96,0
0,60,95,0
0,64,106,0
0,67,74,0
0,67,74,0
0,64,106,0
0,60,95,0
0,48,96,0
0,64,99,2
0,60,87,2
0,62,105,2
0,47,98,0
0,67,98,0
0,55,112,0
0,62,115,0
0,62,115,0
0,55,112,0
0,67,98,0
0,47,98,0
0,62,96,2
0,62,64,60
0,60,110,2
0,64,110,0
0,48,105,0
0,55,92,0
0,60,103,0
0,64,84,0
0,64,84,0
0,60,103,0
0,55,92,0
0,48,105,0
0,74,89,118
0,62,65,64
0,60,108,3
0,60,110,2
0,45,105,0
0,52,105,0
0,57,105,0
0,60,90,0
0,60,90,0
0,57,105,0
0,52,105,0
0,45,105,0
0,57,66,0
0,60,98,2
0,60,107,2
0,60,108,1
0,62,108,2
0,47,105,0
0,55,97,0
0,62,94,0
0,62,94,0
0,55,97,0
0,47,105,0
0,62,105,60
0,64,109,2
0,48,98,0
0,55,89,0
0,60,101,0
0,64,76,0
0,64,76,0
0,60,101,0
0,55,89,0
0,48,98,0
0,74,75,0
0,74,70,0
0,74,65,8
0,69,84,2
0,65,102,0
0,60,96,0
0,48,86,0
0,48,86,0
0,60,96,0
0,65,102,0
0,69,84,0
0,74,75,0
0,64,88,45
0,64,98,2
0,64,99,1
0,67,100,2
0,67,74,0
0,64,106,0
0,60,95,0
0,48,96,0
0,48,96,0
0,60,95,0
0,64,106,0
0,67,74,0
0,64,97,2
0,60,100,2
0,60,92,2
0,62,101,0
0,62,115,0
0,55,112,0
0,67,98,0
0,47,98,0
0,47,98,0
0,67,98,0
0,55,112,0
0,62,115,0
0,62,98,2
0,62,89,2
0,62,76,2
0,64,102,0
0,40,100,0
0,57,95,0
0,59,105,0
0,64,84,0
0,64,84,0
0,59,105,0
0,57,95,0
0,40,100,0
0,74,73,122
0,62,71,1
0,45,112,2
0,52,94,0
0,57,103,0
0,60,85,0
0,60,85,0
0,57,103,0
0,52,94,0
0,45,112,0
0,60,90,113
0,60,96,2
0,64,105,2
0,67,105,2
0,43,109,2
0,64,84,0
0,55,97,0
0,59,102,0
0,59,102,0
0,55,97,0
0,64,84,0
0,43,109,0
0,64,44,44
0,64,92,18
0,55,79,0
0,64,58,40
0,64,88,2
0,55,86,0
0,67,77,35
0,64,58,2
0,64,61,35
0,64,80,17
0,62,52,36
0,41,110,2
0,53,84,0
0,57,100,0
0,60,89,0
0,60,89,0
0,57,100,0
0,53,84,0
0,41,110,0
0,53,72,0
0,57,89,0
0,60,98,37
0,60,103,2
0,60,97,2
0,64,113,2
0,55,98,2
0,55,92,2
0,36,108,0
0,52,97,0
0,55,105,0
0,60,94,0
0,60,94,0
0,55,105,0
0,52,97,0
0,36,108,0
0,58,87,0
0,60,69,2
0,55,63,0
0,60,64,4
0,60,73,1
0,55,86,1
0,60,78,7
0,62,70,17
0,62,66,13
0,67,66,63
0,60,92,8
0,60,86,2
0,41,114,0
0,53,92,0
0,57,105,0
0,57,105,0
0,53,92,0
0,41,114,0
0,60,86,0
0,65,85,0
0,67,80,0
0,57,87,1
0,60,100,136
0,60,110,2
0,60,106,0
0,60,106,0
0,60,115,2
0,62,105,0
0,62,105,0
0,62,114,2
0,64,105,0
0,64,105,0
