track,note,velocity,time
0,68,114,82
0,71,114,1
0,76,125,1
0,80,96,1
0,66,114,6
0,64,114,17
0,81,104,1
0,73,125,1
0,68,114,16
0,66,125,1
0,78,104,1
0,75,96,1
0,71,104,1
0,63,104,573
0,64,114,16
0,81,104,1
0,73,114,1
0,76,114,1
0,68,114,22
0,66,114,2
0,75,104,1
0,71,104,1
0,78,104,1
0,68,96,47
0,80,96,1
0,76,125,1
0,71,96,1
0,56,127,1
0,52,127,1
0,59,115,0
0,95,115,1
0,83,115,1
0,83,115,0
0,42,86,86
0,95,115,35
0,83,115,0
0,83,115,1
0,42,86,97
0,90,104,146
0,78,104,1
0,78,104,1
0,42,86,8
0,92,86,2
0,80,86,1
0,80,86,0
0,95,104,20
0,83,104,1
0,83,104,1
0,66,114,4
0,92,68,8
0,80,68,1
0,80,68,1
0,90,115,1
0,78,115,1
0,78,115,1
0,42,86,1
0,88,115,26
0,76,115,1
0,76,115,0
0,64,114,3
0,73,104,1
0,81,104,1
0,57,127,1
0,61,115,1
0,52,127,1
0,42,86,85
0,88,127,24
0,76,127,1
0,76,127,0
0,42,86,92
0,42,86,190
0,68,114,2
0,90,115,41
0,78,115,1
0,78,115,1
0,42,86,1
0,92,79,43
0,80,79,1
0,80,79,0
0,66,125,12
0,78,114,1
0,71,114,1
0,75,114,1
0,51,127,1
0,54,127,1
0,59,127,1
0,95,115,1
0,83,115,0
0,83,115,1
0,42,86,87
0,95,115,23
0,83,115,0
0,83,115,1
0,42,86,94
0,90,115,144
0,78,115,0
0,78,115,1
0,92,86,8
0,80,86,1
0,80,86,0
0,42,86,1
0,95,104,17
0,83,104,1
0,83,104,0
0,63,114,46
0,92,79,3
0,80,79,1
0,80,79,1
0,90,127,5
0,78,127,0
0,78,127,1
0,42,86,4
0,88,115,11
0,76,115,1
0,76,115,0
0,64,114,2
0,81,114,1
0,76,114,1
0,73,114,1
0,57,127,0
0,61,115,1
0,52,115,1
0,42,86,91
0,88,115,24
0,76,115,1
0,76,115,1
0,42,86,100
0,68,114,1
0,66,114,32
0,71,104,1
0,78,114,1
0,75,104,1
0,51,115,0
0,54,115,1
0,59,104,1
0,42,86,86
0,90,104,1
0,78,104,1
0,78,104,0
0,92,73,0
0,80,73,1
0,80,73,0
0,95,104,16
0,83,104,1
0,83,104,0
0,92,104,50
0,80,104,1
0,80,104,0
0,42,86,3
0,90,115,1
0,78,115,1
0,78,115,1
0,88,86,1
0,76,86,0
0,76,86,1
0,40,121,3
0,68,96,1
0,80,104,1
0,76,125,1
0,71,96,0
0,58,94,1
0,56,115,1
0,52,115,1
0,59,115,1
0,95,115,1
0,83,115,1
0,83,115,0
0,76,127,1
0,42,86,85
0,95,115,19
0,83,115,1
0,83,115,0
0,76,127,7
0,42,86,89
0,71,115,146
0,90,104,1
0,78,104,1
0,78,104,0
0,42,86,5
0,73,104,1
0,92,86,1
0,80,86,1
0,80,86,1
0,76,127,17
0,95,104,1
0,83,104,1
0,83,104,0
0,66,125,8
0,73,94,8
0,92,68,2
0,80,68,1
0,80,68,0
0,71,127,0
0,90,115,1
0,78,115,1
0,78,115,1
0,35,101,1
0,42,86,1
0,88,115,34
0,76,115,1
0,76,115,1
0,33,111,2
0,64,114,1
0,73,114,1
0,81,104,1
0,76,125,1
0,52,127,1
0,57,127,1
0,61,115,1
0,69,115,1
0,42,86,80
0,69,127,16
0,88,127,8
0,76,127,1
0,76,127,0
0,42,86,92
0,42,86,191
0,68,114,95
0,90,115,13
0,78,115,1
0,78,115,0
0,42,86,1
0,73,127,4
0,92,79,36
0,80,79,1
0,80,79,0
0,75,73,1
0,35,112,4
0,35,101,0
0,66,125,1
0,71,104,1
0,78,114,1
0,75,114,1
0,54,127,1
0,59,115,1
0,51,115,1
0,95,115,1
0,83,115,1
0,83,115,1
0,78,115,0
0,42,86,86
0,78,115,13
0,95,115,10
0,83,115,0
0,83,115,1
0,35,112,3
0,42,86,93
0,35,112,95
0,90,115,49
0,78,115,1
0,78,115,0
0,73,115,5
0,92,86,7
0,80,86,1
0,80,86,0
0,42,86,1
0,75,86,1
0,95,104,17
0,83,104,1
0,83,104,0
0,78,115,2
0,35,112,44
0,63,114,0
0,75,68,1
0,92,79,3
0,80,79,1
0,80,79,0
0,73,115,6
0,90,127,5
0,78,127,1
0,78,127,0
0,42,86,4
0,69,115,11
0,88,115,3
0,76,115,1
0,76,115,1
0,35,112,0
0,33,109,0
0,64,125,1
0,76,125,1
0,81,114,1
0,73,125,1
0,57,115,1
0,52,127,1
0,61,115,1
0,42,86,88
0,69,115,19
0,88,115,6
0,76,115,1
0,76,115,1
0,35,112,0
0,42,86,7
0,68,114,1
0,35,112,16
0,35,100,1
0,66,114,1
0,78,114,1
0,71,104,1
0,75,114,1
0,58,51,1
0,54,127,1
0,51,127,1
0,59,104,0
0,42,86,83
0,90,104,1
0,78,104,1
0,78,104,0
0,73,127,4
0,92,73,1
0,80,73,1
0,80,73,0
0,75,86,3
0,35,112,15
0,95,104,0
0,83,104,1
0,83,104,0
0,78,104,1
0,92,104,49
0,80,104,0
0,80,104,0
0,75,104,0
0,38,112,2
0,42,86,1
0,73,115,1
0,90,115,1
0,78,115,1
0,78,115,0
0,69,115,3
0,88,86,5
0,76,86,1
0,76,86,1
0,35,112,5
0,49,102,1
0,40,120,1
0,42,54,1
0,68,104,0
0,80,114,1
0,76,125,1
0,71,125,1
0,95,115,0
0,83,115,1
0,83,115,1
0,76,127,2
0,47,94,12
0,40,104,1
0,42,38,0
0,40,115,32
0,38,112,1
0,49,127,0
0,42,54,1
0,64,104,1
0,59,115,0
0,68,104,0
0,47,115,11
0,40,115,1
0,42,38,1
0,35,65,1
0,40,111,1
0,95,115,0
0,83,115,1
0,83,115,0
0,76,127,4
0,47,115,1
0,40,115,1
0,35,112,1
0,54,90,1
0,35,117,0
0,42,54,1
0,47,115,5
0,40,104,1
0,42,38,0
0,59,115,1
0,64,115,1
0,68,104,1
0,40,127,3
0,38,112,2
0,49,115,1
0,42,54,0
0,47,115,10
0,40,104,0
0,42,38,1
0,47,115,9
0,40,115,0
0,35,112,2
0,40,117,0
0,42,54,1
0,64,115,1
0,59,115,1
0,68,104,1
0,47,104,10
0,40,104,1
0,42,38,0
0,71,115,0
0,90,104,1
0,78,104,0
0,78,104,1
0,40,115,4
0,38,112,2
0,49,127,1
0,42,54,0
0,73,104,1
0,92,86,1
0,80,86,1
0,80,86,0
0,47,104,11
0,40,104,1
0,42,38,1
0,35,65,0
0,40,109,1
0,68,104,1
0,59,115,0
0,64,115,1
0,76,127,1
0,95,104,0
0,83,104,1
0,83,104,1
0,47,115,10
0,40,115,1
0,35,112,1
0,54,90,1
0,35,117,0
0,42,54,1
0,66,114,0
0,47,104,8
0,40,104,0
0,73,94,1
0,42,38,1
0,92,68,1
0,80,68,0
0,80,68,1
0,71,127,1
0,40,115,0
0,90,115,1
0,78,115,1
0,78,115,1
0,38,112,1
0,40,117,0
0,49,115,1
0,42,54,1
0,47,115,2
0,40,104,0
0,42,38,0
0,88,115,4
0,76,115,1
0,76,115,1
0,45,127,0
0,35,112,1
0,33,109,1
0,52,127,1
0,42,54,1
0,64,114,1
0,73,114,1
0,81,104,1
0,76,114,1
0,69,115,0
0,45,115,19
0,42,38,1
0,52,115,1
0,45,127,20
0,38,112,1
0,54,115,1
0,42,54,1
0,61,127,0
0,57,115,1
0,64,115,1
0,69,127,5
0,45,104,4
0,42,38,1
0,35,65,1
0,33,109,1
0,52,104,1
0,88,127,0
0,76,127,1
0,76,127,0
0,45,115,17
0,35,112,1
0,54,90,1
0,28,109,1
0,52,115,1
0,42,54,0
0,45,86,18
0,42,38,2
0,52,104,0
0,61,127,1
0,64,104,1
0,57,115,0
0,45,127,21
0,38,112,2
0,54,104,0
0,42,54,1
0,45,94,19
0,42,38,1
0,52,115,1
0,45,127,4
0,35,112,2
0,33,117,1
0,52,127,1
0,42,54,1
0,61,127,1
0,64,115,1
0,57,115,0
0,45,104,15
0,42,38,2
0,52,104,0
0,45,115,10
0,38,112,2
0,54,104,1
0,42,54,1
0,45,94,13
0,42,38,1
0,35,65,1
0,33,109,0
0,52,115,0
0,61,115,1
0,57,115,1
0,64,104,1
0,45,115,11
0,35,112,1
0,54,90,1
0,28,100,1
0,52,104,1
0,42,54,0
0,45,104,18
0,42,38,2
0,52,115,1
0,61,127,1
0,64,104,1
0,57,115,0
0,45,127,8
0,38,112,2
0,33,117,1
0,54,115,1
0,90,115,1
0,78,115,0
0,78,115,1
0,42,54,1
0,68,125,1
0,73,127,1
0,45,94,14
0,92,79,1
0,80,79,1
0,80,79,0
0,42,38,1
0,52,104,1
0,75,73,1
0,47,127,10
0,35,112,1
0,35,117,1
0,54,115,1
0,42,54,1
0,66,125,1
0,71,114,1
0,75,114,1
0,78,114,1
0,95,115,1
0,83,115,0
0,83,115,1
0,78,115,1
0,47,104,14
0,42,38,1
0,54,104,1
0,47,115,12
0,38,112,2
0,56,115,1
0,42,54,1
0,66,115,0
0,59,115,1
0,63,104,1
0,78,115,1
0,47,104,3
0,42,38,1
0,35,65,0
0,35,109,1
0,54,104,0
0,95,115,3
0,83,115,1
0,83,115,0
0,47,127,2
0,35,112,1
0,54,90,1
0,30,109,1
0,54,115,1
0,42,54,1
0,47,104,17
0,42,38,1
0,54,115,0
0,59,115,1
0,66,104,1
0,63,104,1
0,47,115,3
0,38,112,2
0,56,104,0
0,42,54,1
0,47,104,19
0,42,38,1
0,54,115,1
0,47,127,17
0,35,112,2
0,35,117,0
0,54,115,1
0,42,54,1
0,59,115,1
0,63,115,1
0,66,115,1
0,47,94,18
0,42,38,1
0,54,115,1
0,90,115,1
0,78,115,1
0,78,115,1
0,73,115,4
0,47,115,7
0,92,86,1
0,80,86,0
0,80,86,1
0,38,112,1
0,56,115,1
0,42,54,1
0,75,86,0
0,47,104,14
0,42,38,1
0,35,65,1
0,35,117,0
0,54,127,1
0,59,115,0
0,66,104,1
0,63,104,1
0,95,104,1
0,83,104,1
0,83,104,1
0,78,115,0
0,47,115,11
0,35,112,1
0,54,90,0
0,30,111,1
0,54,115,1
0,42,54,1
0,63,114,0
0,75,68,0
0,92,79,3
0,80,79,1
0,80,79,1
0,47,104,0
0,42,38,1
0,54,115,1
0,66,115,1
0,63,115,0
0,59,115,1
0,73,115,4
0,90,127,5
0,78,127,1
0,78,127,1
0,47,115,1
0,38,112,1
0,35,114,1
0,56,115,1
0,42,54,1
0,47,104,1
0,42,38,0
0,54,115,1
0,69,115,8
0,88,115,2
0,76,115,1
0,76,115,0
0,45,115,1
0,35,112,1
0,33,114,0
0,52,115,1
0,42,54,1
0,64,125,1
0,81,114,1
0,73,114,1
0,76,114,1
0,45,104,10
0,42,38,1
0,52,104,1
0,45,115,19
0,38,112,2
0,54,115,0
0,42,54,1
0,61,104,1
0,57,94,1
0,64,94,1
0,69,115,1
0,45,104,4
0,88,115,1
0,76,115,0
0,76,115,1
0,42,38,1
0,35,65,1
0,33,107,0
0,52,127,1
0,45,115,1
0,35,112,1
0,54,90,1
0,28,109,1
0,52,115,0
0,42,54,1
0,45,104,17
0,42,38,0
0,52,115,0
0,64,115,1
0,57,115,1
0,61,127,1
0,45,115,4
0,38,112,0
0,33,120,0
0,54,115,1
0,42,54,1
0,68,114,0
0,45,104,14
0,42,38,1
0,52,115,0
0,63,44,1
0,47,115,16
0,35,112,1
0,35,117,1
0,54,104,1
0,42,54,1
0,66,104,1
0,78,114,1
0,71,104,0
0,75,114,1
0,66,115,1
0,59,127,1
0,63,115,0
0,47,104,15
0,42,38,1
0,54,104,0
0,47,115,11
0,38,112,2
0,56,104,1
0,42,54,1
0,90,104,1
0,78,104,0
0,78,104,1
0,73,127,1
0,47,104,1
0,42,38,0
0,92,73,1
0,80,73,1
0,80,73,0
0,35,65,1
0,37,117,1
0,54,115,1
0,63,104,1
0,66,115,1
0,59,115,0
0,75,86,1
0,47,104,14
0,35,112,1
0,54,90,0
0,54,115,1
0,95,104,1
0,83,104,0
0,83,104,1
0,42,54,1
0,78,104,0
0,47,94,14
0,42,38,1
0,54,104,1
0,63,127,1
0,66,104,0
0,59,127,1
0,92,104,1
0,80,104,1
0,80,104,0
0,75,104,1
0,47,115,1
0,38,112,2
0,39,117,1
0,56,104,1
0,42,54,1
0,73,115,0
0,90,115,1
0,78,115,1
0,78,115,0
0,69,115,4
0,47,115,6
0,42,38,1
0,54,115,1
0,88,86,1
0,76,86,1
0,76,86,1
0,35,112,6
0,40,117,0
0,42,54,1
0,68,104,1
0,80,114,1
0,76,125,1
0,71,125,1
0,95,115,1
0,83,115,1
0,83,115,0
0,76,127,3
0,47,104,13
0,40,104,1
0,42,38,0
0,40,115,18
0,38,112,2
0,49,127,1
0,42,54,1
0,59,115,1
0,68,94,1
0,64,104,0
0,47,115,10
0,40,115,0
0,42,38,1
0,35,65,1
0,40,111,1
0,83,115,1
0,83,115,0
0,95,127,1
0,76,127,4
0,47,115,1
0,40,115,1
0,35,112,1
0,54,90,1
0,35,114,0
0,42,54,0
0,47,115,19
0,40,104,0
0,42,38,1
0,64,115,1
0,59,115,0
0,68,104,1
0,40,115,4
0,38,112,2
0,49,115,1
0,42,54,0
0,47,115,10
0,40,104,1
0,42,38,1
0,47,115,9
0,40,115,0
0,35,112,2
0,40,117,0
0,42,54,1
0,59,115,1
0,68,104,1
0,64,127,1
0,47,104,9
0,40,94,0
0,42,38,1
0,71,115,4
0,78,104,0
0,78,104,1
0,90,115,2
0,40,115,4
0,38,112,2
0,49,115,1
0,42,54,1
0,73,104,0
0,80,86,1
0,80,86,1
0,92,94,0
0,47,115,6
0,40,94,1
0,42,38,0
0,35,65,1
0,40,111,1
0,59,115,1
0,64,115,1
0,68,94,1
0,76,127,0
0,83,104,1
0,83,104,1
0,95,115,0
0,47,115,8
0,40,115,0
0,35,112,1
0,54,90,1
0,35,111,1
0,42,54,1
0,66,114,0
0,47,115,7
0,40,104,0
0,73,94,1
0,42,38,0
0,80,68,1
0,80,68,0
0,64,127,1
0,59,115,1
0,68,104,1
0,92,79,1
0,71,127,1
0,40,115,1
0,78,115,0
0,78,115,1
0,38,112,0
0,40,111,1
0,90,115,1
0,49,104,1
0,42,54,0
0,47,115,2
0,40,104,1
0,42,38,1
0,76,115,9
0,76,115,1
0,45,115,0
0,88,115,1
0,35,112,1
0,33,107,1
0,52,115,1
0,42,54,1
0,64,114,1
0,73,114,1
0,81,104,1
0,76,114,1
0,69,115,1
0,45,94,7
0,42,38,1
0,52,104,1
0,45,127,11
0,38,112,2
0,54,104,1
0,42,54,1
0,57,104,0
0,61,115,1
0,64,115,1
0,69,127,1
0,45,94,6
0,42,38,1
0,35,65,0
0,33,107,0
0,54,79,1
0,52,104,0
0,76,127,1
0,76,127,1
0,88,115,1
0,45,115,15
0,35,112,1
0,54,90,1
0,28,102,1
0,52,115,1
0,42,54,1
0,45,86,15
0,42,38,1
0,52,115,1
0,57,115,1
0,61,115,1
0,64,104,0
0,45,104,2
0,38,112,2
0,54,115,1
0,42,54,0
0,45,86,18
0,42,38,1
0,52,115,1
0,45,115,4
0,35,112,1
0,33,117,0
0,52,115,1
0,42,54,1
0,64,104,1
0,57,104,1
0,61,127,1
0,45,86,14
0,42,38,1
0,52,104,0
0,45,115,15
0,38,112,2
0,54,115,1
0,42,54,0
0,45,79,15
0,42,38,1
0,35,65,0
0,33,107,1
0,52,115,0
0,57,104,1
0,64,115,0
0,61,127,1
0,45,115,10
0,35,112,1
0,54,90,1
0,28,102,1
0,52,104,1
0,42,54,0
0,45,104,10
0,42,38,1
0,52,115,1
0,64,115,0
0,61,127,1
0,57,115,1
0,45,127,7
0,90,115,1
0,38,112,1
0,33,120,1
0,54,115,1
0,78,115,0
0,78,115,1
0,42,54,1
0,68,125,1
0,73,127,1
0,45,86,13
0,92,73,1
0,80,79,1
0,80,79,1
0,42,38,1
0,52,94,1
