track,note,velocity,time
0,50,57,0
0,38,95,0
0,35,111,0
0,42,111,0
0,42,67,47
0,57,57,47
0,62,57,0
0,65,57,0
0,69,57,0
0,38,107,0
0,42,106,0
0,65,57,0
0,69,57,0
0,38,77,0
0,35,83,0
0,42,60,0
0,38,94,0
0,35,111,0
0,42,107,0
0,62,57,0
0,65,57,0
0,69,57,0
0,42,62,0
0,62,57,4
0,65,57,0
0,69,57,0
0,38,108,0
0,42,112,0
0,65,57,1
0,69,57,0
0,38,92,0
0,35,89,0
0,42,79,0
0,50,57,1
0,38,92,0
0,35,111,0
0,42,111,0
0,42,67,47
0,57,57,23
0,62,57,0
0,65,57,16
0,69,57,0
0,38,107,0
0,42,106,0
0,57,72,8
0,62,57,3
0,65,57,0
0,69,57,0
0,38,95,0
0,35,83,0
0,42,60,0
0,60,92,6
0,57,42,2
0,36,88,3
0,35,111,0
0,42,107,0
0,60,62,6
0,62,57,0
0,65,57,0
0,69,57,0
0,33,59,0
0,46,75,0
0,60,88,14
0,62,57,5
0,65,57,0
0,69,57,0
0,36,88,0
0,38,108,0
0,42,112,0
0,60,58,11
0,62,57,0
0,65,57,0
0,69,57,0
0,33,72,0
0,35,89,0
0,46,69,0
0,60,97,1
0,50,57,1
0,38,84,0
0,35,111,0
0,42,111,0
0,60,67,46
0,42,67,1
0,57,57,8
0,62,57,8
0,65,57,0
0,69,57,0
0,38,107,0
0,42,106,0
0,65,57,0
0,69,57,0
0,38,84,0
0,35,83,0
0,42,60,0
0,38,92,0
0,35,111,0
0,42,107,0
0,62,57,0
0,65,57,0
0,69,57,0
0,42,62,0
0,62,57,4
0,65,57,0
0,69,57,0
0,38,108,0
0,42,112,0
0,65,57,1
0,69,57,0
0,38,76,0
0,35,89,0
0,42,79,0
0,50,57,3
0,38,88,0
0,35,111,0
0,42,111,0
0,42,67,29
0,57,57,3
0,62,57,0
0,65,57,4
0,69,57,0
0,38,107,0
0,42,106,0
0,62,57,11
0,65,57,0
0,69,57,0
0,38,88,0
0,35,83,0
0,42,60,0
0,38,95,0
0,35,111,0
0,42,107,0
0,62,57,0
0,65,57,0
0,69,57,0
0,46,72,0
0,55,88,1
0,62,57,5
0,65,57,0
0,69,57,0
0,36,84,0
0,38,108,0
0,42,112,0
0,57,72,1
0,55,58,0
0,62,57,0
0,65,57,0
0,69,57,0
0,33,59,0
0,35,89,0
0,46,60,0
0,57,42,1
0,62,96,2
0,50,57,7
0,38,92,0
0,35,111,0
0,42,111,0
0,62,66,2
0,42,67,0
0,57,57,5
0,62,57,0
0,65,57,0
0,69,57,0
0,38,107,0
0,42,106,0
0,65,57,0
0,69,57,0
0,38,84,0
0,35,83,0
0,42,60,0
0,38,92,0
0,35,111,0
0,42,107,0
0,62,57,0
0,65,57,0
0,69,57,0
0,42,62,0
0,57,74,5
0,62,57,4
0,65,57,0
0,69,57,0
0,38,108,0
0,42,112,0
0,57,44,2
0,65,86,3
0,65,57,1
0,69,57,0
0,38,76,0
0,35,89,0
0,42,79,0
0,65,56,5
0,62,76,1
0,50,57,1
0,38,92,0
0,35,111,0
0,42,111,0
0,62,46,2
0,42,67,10
0,57,57,2
0,62,57,0
0,65,57,6
0,69,57,0
0,38,107,0
0,42,106,0
0,62,57,4
0,65,57,0
0,69,57,0
0,38,95,0
0,35,83,0
0,42,60,0
0,62,60,25
0,65,70,5
0,36,88,9
0,35,111,0
0,42,107,0
0,69,88,2
0,62,30,13
0,65,40,13
0,62,57,0
0,65,57,0
0,69,57,0
0,33,88,0
0,42,62,0
0,69,58,2
0,72,86,7
0,62,57,5
0,65,57,0
0,69,57,0
0,36,92,0
0,38,108,0
0,42,112,0
0,72,56,9
0,62,57,0
0,65,57,0
0,69,57,0
0,33,72,0
0,35,89,0
0,42,79,0
0,69,95,0
0,50,57,1
0,38,92,0
0,35,111,0
0,42,111,0
0,69,65,1
0,65,80,2
0,42,67,1
0,65,50,3
0,57,57,1
0,62,57,4
0,65,57,0
0,69,57,0
0,38,107,0
0,42,106,0
0,65,57,0
0,69,57,0
0,38,84,0
0,35,83,0
0,42,60,0
0,38,92,0
0,35,111,0
0,42,107,0
0,64,97,2
0,62,57,0
0,65,57,0
0,69,57,0
0,42,62,0
0,65,68,1
0,64,67,2
0,64,59,0
0,62,57,4
0,65,57,0
0,69,57,0
0,38,108,0
0,46,82,0
0,65,38,1
0,64,29,4
0,65,57,1
0,69,57,0
0,38,80,0
0,35,89,0
0,38,63,0
0,62,68,1
0,38,88,0
0,50,57,3
0,38,84,0
0,35,111,0
0,38,63,0
0,44,111,0
0,62,38,1
0,38,94,2
0,57,57,2
0,62,57,0
0,65,57,2
0,69,57,0
0,35,74,0
0,44,106,0
0,38,71,0
0,62,57,2
0,65,57,0
0,69,57,0
0,38,95,0
0,35,83,0
0,38,90,0
0,36,84,47
0,35,111,0
0,38,101,0
0,44,107,0
0,62,57,0
0,65,57,0
0,69,57,0
0,33,55,0
0,41,67,0
0,62,116,1
0,69,120,4
0,62,57,1
0,65,57,0
0,69,57,0
0,36,88,0
0,41,84,0
0,46,52,0
0,62,93,3
0,62,57,0
0,65,57,0
0,69,57,0
0,33,55,0
0,35,89,0
0,69,120,0
0,57,34,1
0,62,57,0
0,65,57,0
0,69,57,0
0,38,97,0
0,35,127,0
0,42,106,0
0,42,74,0
0,69,120,5
0,62,63,2
0,65,62,0
0,69,67,0
0,38,110,0
0,42,106,0
0,69,120,1
0,62,47,0
0,65,52,0
0,38,71,0
0,42,71,0
0,38,92,1
0,35,116,0
0,42,106,0
0,65,67,3
0,69,67,0
0,42,71,0
0,62,57,2
0,65,57,0
0,69,57,0
0,38,111,0
0,42,106,0
0,67,120,21
0,65,40,0
0,69,67,0
0,38,92,0
0,42,76,0
0,36,88,1
0,35,121,0
0,42,106,0
0,67,118,29
0,60,57,1
0,64,57,0
0,67,57,0
0,46,88,0
0,38,111,18
0,42,32,0
0,62,112,18
0,58,47,1
0,62,57,0
0,65,57,0
0,36,92,0
0,35,93,0
0,46,88,0
0,34,92,1
0,65,120,0
0,35,111,0
0,42,106,0
0,67,118,8
0,58,57,1
0,62,57,0
0,65,57,0
0,46,88,0
0,65,116,7
0,38,111,3
0,42,97,0
0,58,57,43
0,62,57,0
0,65,57,0
0,34,88,0
0,64,120,0
0,35,93,0
0,46,88,0
0,52,57,1
0,57,57,0
0,61,57,0
0,64,57,0
0,33,92,0
0,35,127,0
0,42,106,0
0,57,113,47
0,42,71,0
0,64,57,6
0,38,110,0
0,42,106,0
0,61,57,1
0,64,57,0
0,33,88,0
0,42,81,0
0,61,106,1
0,33,92,3
0,35,121,0
0,42,106,0
0,61,76,2
0,61,57,3
0,64,57,0
0,42,93,0
0,61,57,4
0,64,57,0
0,38,111,0
0,42,106,0
0,52,57,0
0,61,57,0
0,64,57,0
0,33,92,0
0,35,93,0
0,42,79,0
0,33,92,6
0,35,116,0
0,42,106,0
0,61,57,5
0,42,68,0
0,42,86,12
0,61,57,6
0,64,57,0
0,38,106,0
0,42,106,0
0,61,34,0
0,64,57,0
0,33,92,0
0,35,101,0
0,46,79,0
0,33,101,13
0,35,116,0
0,42,106,0
0,57,57,4
0,64,57,0
0,42,76,0
0,61,57,2
0,64,57,0
0,38,110,0
0,42,106,0
0,36,88,0
0,35,90,0
0,46,59,0
0,57,34,6
0,62,57,0
0,65,57,0
0,69,57,0
0,38,76,0
0,35,127,0
0,42,106,0
0,62,112,8
0,42,74,0
0,69,120,4
0,62,63,3
0,65,62,0
0,69,67,0
0,38,110,0
0,42,106,0
0,62,90,1
0,62,47,0
0,65,52,0
0,38,97,0
0,35,87,0
0,42,71,0
0,69,120,11
0,38,88,2
0,35,116,0
0,42,106,0
0,69,120,2
0,65,67,1
0,69,67,0
0,42,71,0
0,62,57,5
0,65,57,0
0,69,57,0
0,38,111,0
0,42,106,0
0,65,40,0
0,69,67,0
0,38,88,0
0,67,120,0
0,35,74,0
0,42,76,0
0,36,101,2
0,35,121,0
0,42,106,0
0,60,57,34
0,64,57,0
0,67,57,0
0,67,120,0
0,46,88,0
0,38,111,18
0,42,32,0
0,62,94,16
0,58,47,1
0,62,57,0
0,65,57,0
0,36,92,0
0,35,93,0
0,46,78,0
0,65,118,7
0,34,92,1
0,35,111,0
0,42,106,0
0,67,113,7
0,58,57,3
0,62,57,0
0,65,57,0
0,46,78,0
0,65,116,9
0,38,111,0
0,42,97,0
0,64,118,41
0,58,57,2
0,62,57,0
0,65,57,0
0,34,92,0
0,35,93,0
0,46,78,0
0,52,57,7
0,57,57,0
0,61,57,0
0,64,57,0
0,33,88,0
0,35,127,0
0,42,106,0
0,42,71,0
0,64,57,5
0,38,110,0
0,42,106,0
0,61,45,1
0,61,57,1
0,64,57,0
0,33,92,0
0,42,81,0
0,62,44,4
0,63,49,2
0,61,20,3
0,33,101,2
0,35,121,0
0,42,106,0
0,62,20,0
0,63,19,18
0,61,57,3
0,64,57,0
0,42,93,0
0,64,50,0
0,69,92,1
0,61,57,4
0,64,57,0
0,38,111,0
0,42,106,0
0,64,20,0
0,69,62,1
0,52,57,0
0,61,57,0
0,64,57,0
0,33,84,0
0,35,93,0
0,42,62,0
0,42,74,23
0,33,88,13
0,35,116,0
0,42,106,0
0,69,73,6
0,61,57,5
0,42,68,0
0,69,43,6
0,42,86,16
0,61,57,6
0,64,57,0
0,38,106,0
0,42,106,0
0,61,34,0
0,64,57,0
0,33,92,0
0,35,101,0
0,46,79,0
0,69,54,5
0,33,97,13
0,35,116,0
0,42,106,0
0,69,24,5
0,57,57,4
0,64,57,0
0,42,57,0
0,42,68,23
0,61,57,2
0,64,57,0
0,38,110,0
0,42,106,0
0,69,31,2
0,53,57,2
0,60,57,0
0,65,57,0
0,33,97,0
0,35,90,0
0,42,89,0
0,69,20,2
0,57,57,5
0,60,57,0
0,65,57,0
0,57,57,0
0,60,57,0
0,65,57,0
0,41,90,0
0,35,111,0
0,46,80,0
0,51,93,0
0,51,59,47
0,60,57,5
0,65,57,0
0,38,104,0
0,44,74,0
0,51,97,0
0,57,57,0
0,60,57,0
0,65,57,0
0,41,90,0
0,69,108,0
0,35,108,0
0,51,113,0
0,44,64,1
0,51,48,0
0,57,57,3
0,60,57,0
0,65,57,0
0,35,107,0
0,51,75,0
0,72,106,1
0,60,57,1
0,65,57,0
0,36,90,0
0,72,108,0
0,38,103,0
0,44,74,0
0,51,79,0
0,60,57,1
0,65,57,0
0,38,88,0
0,35,89,0
0,51,79,0
0,69,104,1
0,41,90,25
0,35,113,0
0,44,74,0
0,51,92,0
0,72,103,1
0,57,57,2
0,60,57,0
0,65,57,0
0,51,50,0
0,72,109,1
0,57,57,6
0,60,57,0
0,65,57,0
0,38,105,0
0,44,74,0
0,51,75,0
0,53,57,0
0,57,57,0
0,60,57,0
0,65,57,0
0,41,90,0
0,35,112,0
0,51,97,0
0,51,51,21
0,70,113,3
0,57,57,3
0,60,57,0
0,65,57,0
0,35,111,0
0,51,76,0
0,69,106,0
0,57,57,3
0,60,57,0
0,65,57,0
0,38,88,0
0,38,104,0
0,44,74,0
0,51,90,0
0,67,108,2
0,55,57,2
0,64,57,0
0,33,62,0
0,35,91,0
0,51,88,0
0,60,37,17
0,52,57,1
0,55,57,0
0,60,57,0
0,64,57,0
0,36,90,0
0,35,111,0
0,44,74,0
0,51,97,0
0,60,105,6
0,51,79,1
0,60,57,2
0,64,57,0
0,38,104,0
0,44,74,0
0,51,97,0
0,52,57,0
0,60,57,0
0,64,57,0
0,36,70,0
0,35,108,0
0,51,113,0
0,64,99,0
0,36,79,1
0,60,79,0
0,55,69,1
0,51,48,4
0,64,69,1
0,55,57,0
0,60,57,0
0,64,57,0
0,36,69,0
0,60,49,0
0,35,107,0
0,51,75,0
0,55,39,1
0,55,57,4
0,60,57,0
0,64,57,0
0,31,90,0
0,38,103,0
0,44,74,0
0,51,79,0
0,53,58,0
0,60,99,2
0,55,79,1
0,64,95,0
0,60,57,1
0,64,57,0
0,33,80,0
0,35,89,0
0,51,79,0
0,60,69,29
0,55,49,1
0,64,65,0
0,36,90,2
0,35,113,0
0,44,74,0
0,51,92,0
0,55,65,2
0,60,57,1
0,64,57,0
0,51,50,0
0,57,79,4
0,55,35,0
0,60,57,1
0,64,57,0
0,60,99,0
0,65,89,0
0,38,105,0
0,44,74,0
0,51,75,0
0,57,49,3
0,60,57,1
0,64,57,0
0,36,90,0
0,60,69,0
0,65,59,0
0,35,112,0
0,51,97,0
0,57,74,26
0,60,94,0
0,65,104,0
0,44,74,0
0,51,51,21
0,52,33,2
0,55,37,0
0,60,57,0
0,55,74,0
0,64,94,0
0,57,44,0
0,60,64,0
0,65,74,0
0,35,111,0
0,51,76,0
0,52,40,1
0,55,57,0
0,60,57,0
0,64,57,0
0,31,84,0
0,55,44,0
0,64,64,0
0,38,104,0
0,44,74,0
0,51,90,0
0,53,58,0
0,58,89,1
0,62,91,0
0,53,75,1
0,65,57,3
0,33,84,0
0,35,91,0
0,51,88,0
0,58,59,41
0,62,61,0
0,53,45,1
0,53,57,1
0,58,57,0
0,62,57,0
0,65,57,0
0,34,88,0
0,35,111,0
0,44,74,0
0,51,97,0
0,60,93,46
0,51,79,1
0,65,109,6
0,62,57,1
0,65,57,0
0,38,104,0
0,44,74,0
0,51,97,0
0,62,57,0
0,65,57,0
0,34,90,0
0,35,108,0
0,51,113,0
0,65,108,4
0,44,54,0
0,51,48,23
0,35,107,8
0,51,75,0
0,65,101,1
0,62,57,2
0,65,57,0
0,31,88,0
0,38,103,0
0,44,74,0
0,51,79,0
0,53,58,0
0,58,57,47
0,62,57,0
0,65,57,0
0,29,72,0
0,35,89,0
0,51,79,0
0,34,90,1
0,35,113,0
0,44,74,0
0,51,92,0
0,62,57,1
0,65,57,0
0,51,50,0
0,60,88,1
0,58,57,7
0,62,57,0
0,65,57,0
0,38,105,0
0,44,74,0
0,51,75,0
0,65,107,1
0,62,57,0
0,65,57,0
0,34,90,0
0,35,112,0
0,51,97,0
0,60,92,1
0,69,111,0
0,44,54,0
0,51,51,19
0,62,57,3
0,65,57,0
0,34,90,0
0,62,108,0
0,35,111,0
0,51,76,0
0,62,57,5
0,65,57,0
0,38,104,0
0,44,74,0
0,51,90,0
0,53,58,0
0,62,115,2
0,36,90,3
0,35,91,0
0,51,88,0
0,57,57,2
0,62,57,0
0,65,57,0
0,69,57,0
0,38,98,0
0,35,127,0
0,46,96,0
0,60,84,4
0,65,57,2
0,69,57,0
0,55,85,0
0,38,110,0
0,51,38,0
0,59,81,3
0,57,80,3
0,55,83,1
0,57,77,2
0,62,57,0
0,65,57,0
0,69,57,0
0,38,80,0
0,55,55,0
0,35,74,0
0,42,71,0
0,57,47,11
0,38,88,1
0,60,93,0
0,35,116,0
0,42,106,0
0,57,73,3
0,69,57,0
0,60,63,0
0,42,71,0
0,57,43,4
0,62,57,1
0,65,57,0
0,69,57,0
0,36,84,0
0,65,93,0
0,38,111,0
0,42,106,0
0,62,83,2
0,65,57,1
0,69,57,0
0,33,70,0
0,65,63,0
0,35,74,0
0,42,76,0
0,62,53,1
0,38,88,1
0,35,121,0
0,42,106,0
0,69,57,5
0,46,88,0
0,38,111,2
0,42,32,0
0,58,32,9
0,62,57,0
0,65,61,0
0,34,95,0
0,35,93,0
0,46,88,0
0,58,81,1
0,62,83,0
0,53,49,1
0,42,106,5
0,58,51,1
0,62,53,0
0,53,19,1
0,53,47,8
0,58,56,0
0,62,57,0
0,65,57,0
0,34,88,0
0,57,53,0
0,35,120,0
0,46,88,0
0,62,73,1
0,65,93,1
0,57,23,3
0,38,111,0
0,42,97,0
0,62,43,1
0,65,63,0
0,62,57,2
0,65,57,0
0,34,87,0
0,35,93,0
0,46,88,0
0,53,63,1
0,55,62,7
0,60,57,0
0,64,57,0
0,67,57,0
0,36,97,0
0,35,127,0
0,42,106,0
0,58,93,1
0,53,33,0
0,62,93,0
0,59,40,40
