track,note,velocity,time
3,41,42,238
3,69,73,0
3,41,0,144
3,57,54,0
3,57,0,96
3,60,79,0
3,69,0,96
3,60,0,0
3,57,45,0
3,65,86,0
3,65,0,192
3,69,89,0
3,57,0,96
3,60,52,0
3,60,0,96
3,48,50,0
3,69,0,192
3,57,46,0
3,60,53,0
3,65,49,0
3,57,0,96
3,60,0,0
3,65,0,0
3,57,40,0
3,60,42,0
3,65,56,0
3,48,0,48
3,57,0,0
3,60,0,0
3,65,0,0
3,48,46,0
3,67,78,0
3,67,0,48
3,60,87,0
3,60,0,96
3,64,74,0
3,64,0,96
3,67,79,0
3,48,0,48
3,67,0,0
3,62,49,0
3,65,71,0
3,62,0,144
3,53,44,0
3,53,0,96
3,58,80,0
3,65,0,96
3,62,71,0
3,62,0,192
3,65,89,0
3,58,0,96
3,58,55,0
3,58,0,96
3,46,59,0
3,53,52,0
3,65,0,192
3,58,55,0
3,62,45,0
3,58,0,96
3,62,0,0
3,58,56,0
3,62,43,0
3,46,0,48
3,53,0,0
3,58,0,0
3,62,0,0
3,48,43,0
3,48,0,144
3,64,53,0
3,67,78,0
3,64,0,96
3,60,59,0
3,67,0,48
3,60,0,0
3,41,56,0
3,69,82,0
3,41,0,144
3,57,41,0
3,57,0,96
3,60,75,0
3,69,0,96
3,60,0,0
3,57,57,0
3,65,77,0
3,65,0,192
3,69,82,0
3,57,0,96
3,60,57,0
3,69,0,96
3,60,0,0
3,41,55,0
3,41,0,96
3,48,77,0
3,57,80,96
3,57,0,96
3,60,78,0
3,60,0,48
3,65,73,0
3,65,0,48
3,69,74,0
3,48,0,96
3,69,0,0
3,55,55,0
3,67,79,0
3,55,0,96
3,67,0,0
3,60,55,0
3,64,84,0
3,60,0,48
3,64,0,0
3,62,45,0
3,65,78,0
3,62,0,144
3,46,58,0
3,46,0,96
3,58,83,0
3,65,0,96
3,62,83,0
3,62,0,192
3,65,78,0
3,58,0,96
3,58,46,0
3,58,0,96
3,46,59,0
3,65,0,192
3,46,0,0
3,53,55,0
3,58,51,0
3,62,58,0
3,53,0,96
3,58,0,0
3,62,0,0
3,53,41,0
3,58,45,0
3,62,54,0
3,53,0,48
3,58,0,0
3,62,0,0
3,48,52,0
3,55,49,0
3,60,55,0
3,60,0,144
3,60,44,0
3,64,50,0
3,67,56,0
3,48,0,48
3,55,0,0
3,60,0,0
3,64,0,0
3,67,0,0
3,41,51,0
3,69,86,0
3,41,0,144
3,57,44,0
3,57,0,96
3,60,70,0
3,69,0,96
3,60,0,0
3,60,53,0
3,65,82,0
3,65,0,192
3,69,89,0
3,60,0,96
3,60,40,0
3,60,0,96
3,41,48,0
3,69,0,192
3,41,0,0
3,57,40,0
3,60,52,0
3,65,55,0
3,60,0,96
3,65,0,0
3,65,58,0
3,57,0,48
3,65,0,0
3,55,59,0
3,67,85,0
3,55,0,48
3,60,59,0
3,67,0,96
3,64,71,0
3,60,0,48
3,64,0,0
3,62,52,0
3,65,85,0
3,62,0,144
3,53,59,0
3,53,0,96
3,58,84,0
3,65,0,96
3,62,80,0
3,58,0,192
3,62,0,0
3,62,43,0
3,65,74,0
3,62,0,96
3,58,44,0
3,58,0,96
3,46,46,0
3,65,0,192
3,53,57,0
3,58,59,0
3,62,54,0
3,53,0,96
3,58,0,0
3,62,0,0
3,62,56,0
3,46,0,48
3,62,0,0
3,69,80,0
3,69,0,144
3,55,59,0
3,67,80,0
3,55,0,48
3,67,0,0
3,57,52,0
3,69,80,0
3,57,0,144
3,57,47,0
3,57,0,96
3,60,78,0
3,69,0,96
3,60,0,0
3,57,51,0
3,65,84,0
3,65,0,192
3,69,89,0
3,57,0,96
3,48,47,0
3,48,0,96
3,41,65,0
3,41,0,96
3,48,70,0
3,69,0,96
3,57,79,0
3,57,0,96
3,60,77,0
3,60,0,48
3,65,75,0
3,65,0,48
3,69,73,0
3,69,0,96
3,67,84,0
3,67,0,96
3,64,70,0
3,48,0,48
3,64,0,0
3,62,46,0
3,65,76,0
3,62,0,144
3,46,49,0
3,46,0,96
3,58,72,0
3,65,0,96
3,62,83,0
3,62,0,192
3,65,77,0
3,58,0,96
3,58,45,0
3,58,0,96
3,46,59,0
3,65,0,192
3,58,48,0
3,62,50,0
3,65,58,0
3,58,0,96
3,62,0,0
3,65,0,0
3,62,58,0
3,46,0,48
3,62,0,0
3,48,46,0
3,55,44,0
3,60,47,0
3,65,48,0
3,55,0,144
3,60,0,0
3,65,0,0
3,60,51,0
3,65,59,0
3,48,0,48
3,60,0,0
3,65,0,0
3,57,62,0
3,60,52,16
3,65,57,16
3,69,50,16
3,57,0,48
3,60,0,0
3,65,0,0
3,69,0,0
3,50,57,48
3,57,65,16
3,62,61,16
3,65,55,16
3,50,0,48
3,57,0,0
3,62,0,0
3,65,0,0
3,48,55,0
3,52,58,16
3,55,60,16
3,60,67,16
3,67,50,16
3,48,0,48
3,52,0,0
3,55,0,0
3,60,0,0
3,67,0,0
3,57,51,0
3,60,55,16
3,65,61,16
3,69,54,16
3,57,0,144
3,60,0,0
3,65,0,0
3,69,0,0
3,55,5,0
3,60,13,0
3,55,0,24
3,60,0,0
3,55,8,72
3,60,9,0
3,55,0,24
3,60,0,0
3,55,30,48
3,60,29,0
3,55,0,48
3,60,0,0
3,55,54,0
3,60,52,0
3,64,51,0
3,55,0,96
3,60,0,0
3,64,0,0
3,55,67,0
3,60,53,0
3,64,64,0
3,55,0,96
3,60,0,0
3,64,0,0
3,58,55,0
3,62,64,0
3,58,0,48
3,62,0,0
3,50,60,0
3,57,52,0
3,62,65,0
3,65,66,0
3,50,0,48
3,57,0,0
3,62,0,0
3,65,0,0
3,50,27,0
3,57,21,0
3,62,32,0
3,65,28,0
3,50,0,96
3,57,0,0
3,62,0,0
3,65,0,0
3,50,23,0
3,57,28,0
3,62,25,0
3,65,27,0
3,50,0,96
3,57,0,0
3,62,0,0
3,65,0,0
3,50,31,0
3,57,31,0
3,62,36,0
3,65,37,0
3,50,0,48
3,57,0,0
3,62,0,0
3,65,0,0
3,50,66,0
3,57,69,0
3,62,53,0
3,65,53,0
3,50,0,48
3,57,0,0
3,62,0,0
3,65,0,0
3,50,36,0
3,57,32,0
3,62,34,0
3,65,21,0
3,50,0,96
3,57,0,0
3,62,0,0
3,65,0,0
3,50,38,0
3,57,29,0
3,62,31,0
3,65,39,0
3,50,0,96
3,57,0,0
3,62,0,0
3,65,0,0
3,50,29,0
3,57,39,0
3,62,31,0
3,65,21,0
3,50,0,48
3,57,0,0
3,62,0,0
3,65,0,0
3,46,51,0
3,53,51,0
3,58,52,0
3,62,66,0
3,46,0,48
3,53,0,0
3,58,0,0
3,62,0,0
3,46,38,0
3,53,31,0
3,58,23,0
3,62,22,0
3,46,0,96
3,53,0,0
3,58,0,0
3,62,0,0
3,46,31,0
3,53,33,0
3,58,29,0
3,62,37,0
3,46,0,96
3,53,0,0
3,58,0,0
3,62,0,0
3,46,37,0
3,53,33,0
3,58,37,0
3,62,20,0
3,46,0,48
3,53,0,0
3,58,0,0
3,62,0,0
3,46,52,0
3,53,55,0
3,58,62,0
3,62,68,0
3,46,0,48
3,53,0,0
3,58,0,0
3,62,0,0
3,46,28,0
3,53,25,0
3,58,35,0
3,62,38,0
3,46,0,96
3,53,0,0
3,58,0,0
3,62,0,0
3,46,35,0
3,53,28,0
3,58,24,0
3,62,31,0
3,46,0,96
3,53,0,0
3,58,0,0
3,62,0,0
3,46,22,0
3,53,24,0
3,58,28,0
3,62,27,0
3,46,0,48
3,53,0,0
3,58,0,0
3,62,0,0
3,55,68,0
3,60,55,0
3,64,54,0
3,67,53,0
3,55,0,144
3,60,0,0
3,64,0,0
3,67,0,0
3,55,34,0
3,60,29,0
3,64,36,0
3,67,32,0
3,55,0,96
3,60,0,0
3,64,0,0
3,67,0,0
3,55,24,0
3,60,32,0
3,64,21,0
3,67,30,0
3,55,0,48
3,60,0,0
3,64,0,0
3,67,0,0
3,55,50,0
3,60,62,0
3,64,57,0
3,67,68,0
3,55,0,144
3,60,0,0
3,64,0,0
3,67,0,0
3,55,30,0
3,60,28,0
3,64,38,0
3,67,28,0
3,55,0,48
3,60,0,0
3,64,0,0
3,67,0,0
3,55,64,0
3,60,62,0
3,64,60,0
3,67,52,0
3,55,0,144
3,60,0,0
3,64,0,0
3,67,0,0
3,55,32,0
3,60,36,0
3,64,22,0
3,67,21,0
3,55,0,96
3,60,0,0
3,64,0,0
3,67,0,0
3,55,26,0
3,60,24,0
3,64,39,0
3,67,23,0
3,55,0,48
3,60,0,0
3,64,0,0
3,67,0,0
3,55,66,0
3,60,65,0
3,64,63,0
3,67,57,0
3,55,0,48
3,60,0,0
3,64,0,0
3,67,0,0
3,53,25,0
3,58,29,0
3,62,35,0
3,65,31,0
3,53,0,96
3,58,0,0
3,62,0,0
3,65,0,0
3,53,25,0
3,58,28,0
3,62,31,0
3,65,22,0
3,53,0,96
3,58,0,0
3,62,0,0
3,65,0,0
3,53,28,0
3,58,37,0
3,62,34,0
3,65,37,0
3,53,0,48
3,58,0,0
3,62,0,0
3,65,0,0
3,48,64,0
3,52,62,0
3,55,60,0
3,60,55,0
3,64,68,0
3,48,0,144
3,52,0,0
3,55,0,0
3,60,0,0
3,64,0,0
3,48,31,0
3,52,30,0
3,55,23,0
3,60,39,0
3,64,30,0
3,48,0,96
3,52,0,0
3,55,0,0
3,60,0,0
3,64,0,0
3,48,23,0
3,52,38,0
3,55,34,0
3,60,39,0
3,64,33,0
3,48,0,48
3,52,0,0
3,55,0,0
3,60,0,0
3,64,0,0
3,48,56,0
3,52,62,0
3,55,64,0
3,60,62,0
3,64,63,0
3,48,0,144
3,52,0,0
3,55,0,0
3,60,0,0
3,64,0,0
3,48,28,0
3,52,25,0
3,55,34,0
3,60,26,0
3,64,34,0
3,48,0,96
3,52,0,0
3,55,0,0
3,60,0,0
3,64,0,0
3,60,29,0
3,65,30,0
3,60,0,48
3,65,0,0
3,53,63,0
3,57,61,0
3,60,67,0
3,65,61,0
3,53,0,144
3,57,0,0
3,60,0,0
3,65,0,0
3,41,33,0
3,48,21,0
3,53,33,0
3,57,29,0
3,60,22,0
3,65,22,0
3,41,0,96
3,48,0,0
3,53,0,0
3,57,0,0
3,60,0,0
3,65,0,0
3,65,21,0
3,65,0,48
3,41,87,0
3,41,0,48
3,48,79,0
3,48,0,96
3,57,76,0
3,57,0,96
3,60,88,0
3,60,0,48
3,46,84,0
3,62,70,0
3,46,0,144
3,62,0,0
3,53,27,0
3,58,25,0
3,53,0,96
3,58,0,0
3,53,24,0
3,58,29,0
3,53,0,48
3,58,0,0
3,53,62,0
3,58,56,0
3,62,62,0
3,53,0,144
3,58,0,0
3,62,0,0
3,53,37,0
3,58,33,0
3,62,22,0
3,53,0,96
3,58,0,0
3,62,0,0
3,53,31,0
3,58,25,0
3,62,26,0
3,65,27,0
3,53,0,48
3,58,0,0
3,62,0,0
3,65,0,0
3,41,64,0
3,46,59,0
3,53,60,0
3,58,63,0
3,62,68,0
3,41,0,144
3,46,0,0
3,53,0,0
3,58,0,0
3,62,0,0
3,53,28,0
3,58,36,0
3,62,34,0
3,53,0,96
3,58,0,0
3,62,0,0
3,53,23,0
3,58,20,0
3,62,26,0
3,53,0,48
3,58,0,0
3,62,0,0
3,53,57,0
3,58,55,0
3,62,58,0
3,53,0,144
3,58,0,0
3,62,0,0
3,53,20,0
3,58,24,0
3,62,38,0
3,65,21,0
3,53,0,48
3,58,0,0
3,62,0,0
3,65,0,0
3,48,55,0
3,55,67,0
3,60,55,0
3,48,0,144
3,55,0,0
3,60,0,0
3,48,20,0
3,55,24,0
3,60,35,0
3,48,0,96
3,55,0,0
3,60,0,0
3,48,39,0
3,55,30,0
3,60,21,0
3,48,0,48
3,55,0,0
3,60,0,0
3,48,59,0
3,55,67,0
3,60,59,0
3,48,0,48
3,55,0,0
3,60,0,0
3,48,23,0
3,55,28,0
3,60,29,0
3,48,0,96
3,55,0,0
3,60,0,0
3,48,38,0
3,55,27,0
3,60,29,0
3,48,0,96
3,55,0,0
3,60,0,0
3,48,37,0
3,55,32,0
3,60,25,0
3,64,21,0
3,48,0,48
3,55,0,0
3,60,0,0
3,64,0,0
3,64,76,0
3,64,0,144
3,62,82,0
3,62,0,48
3,60,77,0
3,60,0,144
3,58,84,0
3,58,0,48
3,57,77,0
3,57,0,48
3,60,58,0
3,65,64,0
3,69,68,0
3,60,0,48
3,65,0,0
3,69,0,0
3,60,34,0
3,65,21,0
3,69,26,0
3,60,0,96
3,65,0,0
3,69,0,0
3,60,24,0
3,65,35,0
3,69,35,0
3,60,0,96
3,65,0,0
3,69,0,0
3,60,26,0
3,65,22,0
3,69,24,0
3,60,0,48
3,65,0,0
3,69,0,0
3,60,53,0
3,65,67,0
3,69,66,0
3,60,0,48
3,65,0,0
3,69,0,0
3,60,23,0
3,65,35,0
3,69,36,0
3,60,0,96
3,65,0,0
3,69,0,0
3,60,25,0
3,65,20,0
3,69,22,0
3,60,0,96
3,65,0,0
3,69,0,0
3,60,34,0
3,65,30,0
3,69,37,0
3,60,0,48
3,65,0,0
3,69,0,0
3,60,66,0
3,64,52,0
3,67,53,0
3,60,0,144
3,64,0,0
3,67,0,0
3,58,38,0
3,62,35,0
3,65,30,0
3,58,0,48
3,62,0,0
3,65,0,0
3,50,57,0
3,57,68,0
3,62,58,0
3,65,66,0
3,50,0,144
3,57,0,0
3,62,0,0
3,65,0,0
3,50,35,0
3,57,34,0
3,62,30,0
3,65,23,0
3,50,0,96
3,57,0,0
3,62,0,0
3,65,0,0
3,50,34,0
3,57,30,0
3,62,31,0
3,65,20,0
3,50,0,48
3,57,0,0
3,62,0,0
3,65,0,0
3,50,66,0
3,57,55,0
3,62,68,0
3,65,52,0
3,50,0,144
3,57,0,0
3,62,0,0
3,65,0,0
3,50,37,0
3,57,33,0
3,62,31,0
3,65,20,0
3,50,0,96
3,57,0,0
3,62,0,0
3,65,0,0
3,50,20,0
3,57,23,0
3,62,34,0
3,65,32,0
3,50,0,48
3,57,0,0
3,62,0,0
3,65,0,0
3,55,59,0
3,62,55,0
3,55,0,144
3,62,0,0
3,58,35,0
3,62,31,0
3,58,0,48
3,62,0,0
3,55,66,0
3,60,57,0
3,67,65,0
3,55,0,144
3,60,0,0
3,67,0,0
3,55,31,0
3,60,21,0
3,67,32,0
3,55,0,48
3,60,0,0
3,67,0,0
3,53,63,48
3,57,58,16
3,60,57,16
3,65,50,16
3,69,60,16
3,53,0,128
3,57,0,0
3,60,0,0
3,65,0,0
3,69,0,0
3,53,39,0
3,57,35,0
3,60,31,0
3,65,38,0
3,69,30,0
3,53,0,96
3,57,0,0
3,60,0,0
3,65,0,0
3,69,0,0
3,53,39,0
3,57,21,0
3,60,21,0
3,65,38,0
3,69,33,0
3,53,0,48
3,57,0,0
3,60,0,0
3,65,0,0
3,69,0,0
3,53,52,0
3,57,66,0
3,60,55,0
3,65,60,0
3,69,58,0
3,53,0,144
3,57,0,0
3,60,0,0
3,65,0,0
3,69,0,0
3,53,25,0
3,57,34,0
3,60,23,0
3,65,29,0
3,69,36,0
3,53,0,96
3,57,0,0
3,60,0,0
3,65,0,0
3,69,0,0
3,53,39,0
3,57,26,0
3,60,22,0
3,65,28,0
3,69,20,0
3,53,0,48
3,57,0,0
3,60,0,0
3,65,0,0
3,69,0,0
3,53,61,0
3,57,65,0
3,60,68,0
3,65,67,0
3,69,58,0
3,53,0,144
3,57,0,0
3,60,0,0
3,65,0,0
3,69,0,0
3,53,21,0
3,57,30,0
3,60,24,0
3,65,20,0
3,69,30,0
3,53,0,96
3,57,0,0
3,60,0,0
3,65,0,0
3,69,0,0
3,53,21,0
3,57,20,0
3,60,23,0
3,65,33,0
3,69,34,0
3,53,0,48
3,57,0,0
3,60,0,0
3,65,0,0
3,69,0,0
3,55,58,0
3,60,52,0
3,64,52,0
3,55,0,48
3,60,0,0
3,64,0,0
