track,note,velocity,time
0,93,58,1607
0,93,0,93
0,94,43,3
0,94,0,93
0,96,53,3
0,70,51,0
0,96,0,189
0,94,43,3
0,77,58,0
0,77,0,189
0,94,0,0
0,93,46,3
0,81,55,0
0,77,52,0
0,77,0,189
0,81,0,0
0,93,0,0
0,89,56,3
0,84,54,0
0,81,57,0
0,77,49,0
0,70,0,381
0,74,44,1
0,60,55,0
0,62,44,3
0,74,0,93
0,62,0,0
0,77,55,3
0,65,42,0
0,65,0,189
0,81,54,3
0,69,47,0
0,81,0,189
0,77,0,0
0,69,0,0
0,77,0,0
0,81,0,0
0,84,0,0
0,89,0,0
0,79,57,3
0,91,53,0
0,84,54,0
0,67,59,0
0,79,0,189
0,84,0,0
0,91,0,0
0,79,43,3
0,79,57,0
0,79,0,189
0,84,47,3
0,79,0,189
0,84,0,0
0,67,0,0
0,79,50,3
0,86,50,0
0,82,58,0
0,77,59,0
0,74,56,0
0,70,45,0
0,65,46,0
0,84,57,195
0,84,0,93
0,86,43,3
0,79,0,93
0,86,0,0
0,86,54,3
0,81,58,0
0,76,47,0
0,72,48,0
0,69,53,0
0,86,0,45
0,88,51,3
0,88,0,141
0,86,57,3
0,86,0,189
0,84,50,3
0,84,0,189
0,69,0,0
0,72,0,0
0,76,0,0
0,81,0,0
0,91,44,3
0,88,52,0
0,84,41,0
0,79,47,0
0,76,52,0
0,72,40,0
0,69,52,0
0,69,0,381
0,72,0,0
0,76,0,0
0,79,53,3
0,67,46,0
0,67,0,93
0,65,41,3
0,67,57,3
0,81,55,3
0,65,57,0
0,81,0,189
0,65,0,0
0,79,0,0
0,84,0,0
0,88,0,0
0,91,0,0
0,77,56,3
0,89,51,0
0,86,43,0
0,77,56,0
0,74,59,0
0,62,41,0
0,74,0,189
0,77,0,0
0,86,0,0
0,89,0,0
0,81,45,3
0,81,0,189
0,86,58,3
0,86,0,189
0,89,50,3
0,77,0,93
0,76,29,3
0,76,0,45
0,89,0,48
0,62,0,0
0,76,54,3
0,88,43,0
0,84,40,0
0,81,50,0
0,76,41,0
0,64,54,0
0,76,0,189
0,64,0,0
0,77,52,3
0,65,48,0
0,77,0,189
0,65,0,0
0,76,0,0
0,81,0,0
0,84,0,0
0,88,0,0
0,76,44,3
0,64,40,0
0,76,0,189
0,64,0,0
0,72,44,3
0,77,43,0
0,60,59,0
0,77,0,45
0,79,49,3
0,79,0,45
0,81,58,3
0,81,0,45
0,82,47,3
0,82,0,45
0,60,0,0
0,84,48,3
0,81,43,0
0,58,44,0
0,82,46,3
0,79,53,0
0,62,53,0
0,62,0,189
0,79,0,0
0,82,0,0
0,81,46,3
0,77,44,0
0,65,54,0
0,65,0,189
0,77,0,0
0,81,0,0
0,77,46,3
0,74,40,0
0,70,47,0
0,72,0,189
0,74,57,1
0,60,50,0
0,62,45,3
0,74,0,93
0,62,0,0
0,77,47,3
0,65,51,0
0,65,0,189
0,81,51,3
0,69,41,0
0,81,0,189
0,77,0,0
0,69,0,0
0,74,0,0
0,77,0,0
0,79,56,3
0,79,47,0
0,67,40,0
0,60,58,0
0,79,0,189
0,67,0,0
0,79,0,0
0,79,44,3
0,67,58,0
0,67,0,189
0,72,51,3
0,79,0,189
0,72,0,0
0,60,0,0
0,79,54,3
0,74,40,0
0,60,54,0
0,58,52,3
0,67,58,3
0,67,0,189
0,72,50,3
0,72,0,189
0,74,45,3
0,79,0,189
0,74,0,0
0,58,0,0
0,74,45,3
0,64,59,0
0,60,49,0
0,57,57,0
0,74,0,45
0,76,52,3
0,76,0,141
0,74,56,3
0,74,0,189
0,72,44,3
0,72,0,189
0,79,58,3
0,67,44,0
0,67,0,189
0,79,0,0
0,57,0,0
0,60,0,0
0,64,0,0
0,79,44,3
0,67,52,0
0,79,52,192
0,65,41,0
0,65,0,93
0,64,49,3
0,65,58,3
0,81,51,3
0,64,52,0
0,81,0,189
0,64,0,0
0,67,0,0
0,79,0,0
0,77,46,3
0,77,47,0
0,69,56,0
0,50,59,0
0,69,0,189
0,65,56,3
0,65,0,189
0,74,50,3
0,74,0,189
0,50,0,0
0,77,0,0
0,77,57,3
0,69,46,0
0,50,57,0
0,77,0,93
0,72,59,3
0,72,0,45
0,76,43,3
0,76,0,45
0,50,0,0
0,69,0,0
0,77,0,0
0,81,46,3
0,76,42,0
0,48,49,0
0,67,46,192
0,81,0,189
0,67,0,0
0,69,49,3
0,69,0,189
0,48,0,0
0,76,0,0
0,72,57,3
0,48,46,0
0,48,0,189
0,72,0,0
0,84,55,3
0,77,52,0
0,72,51,0
0,46,54,0
0,72,0,189
0,77,0,0
0,84,0,0
0,82,46,3
0,70,43,0
0,50,42,0
0,50,0,189
0,70,0,0
0,82,0,0
0,81,42,3
0,69,47,0
0,53,43,0
0,53,0,189
0,69,0,0
0,81,0,0
0,77,48,3
0,74,46,0
0,65,49,0
0,58,49,0
0,74,50,96
0,74,0,45
0,77,59,3
0,77,0,45
0,58,0,0
0,81,43,3
0,57,58,0
0,81,0,189
0,57,0,0
0,82,48,3
0,58,46,0
0,58,0,93
0,57,40,3
0,82,0,93
0,57,0,0
0,81,59,3
0,58,56,0
0,77,54,3
0,57,50,0
0,57,0,189
0,65,0,0
0,74,0,0
0,77,0,0
0,46,0,0
0,74,41,3
0,67,57,0
0,52,47,0
0,79,49,1
0,55,46,0
0,55,0,189
0,74,0,0
0,72,46,3
0,60,59,0
0,60,0,189
0,72,0,0
0,67,0,0
0,74,43,3
0,64,54,0
0,60,59,0
0,79,0,189
0,60,0,0
0,64,0,0
0,67,44,3
0,64,43,0
0,64,0,189
0,67,0,0
0,74,0,0
0,72,47,3
0,60,41,0
0,60,0,189
0,72,0,0
0,79,59,3
0,74,46,0
0,70,49,0
0,55,57,0
0,79,0,93
0,78,43,3
0,78,0,93
0,55,0,0
0,70,0,0
0,74,0,0
0,52,0,0
0,79,49,3
0,67,41,0
0,60,52,0
0,52,42,0
0,79,0,93
0,52,0,0
0,67,0,0
0,81,54,3
0,69,58,0
0,53,42,0
0,81,0,93
0,53,0,0
0,69,0,0
0,60,0,0
0,82,58,3
0,70,56,0
0,55,45,0
0,70,0,189
0,74,53,3
0,74,0,189
0,70,57,3
0,70,0,189
0,77,47,3
0,74,56,0
0,70,54,0
0,65,41,0
0,82,0,573
0,84,45,3
0,81,56,3
0,86,53,0
0,81,45,0
0,77,51,0
0,74,43,0
0,57,50,0
0,38,51,0
0,84,41,3
0,84,0,189
0,38,0,0
0,57,0,0
0,81,54,3
0,76,51,0
0,72,51,0
0,69,58,0
0,55,50,0
0,33,53,0
0,69,0,573
0,72,0,0
0,76,0,0
0,81,0,0
0,74,59,3
0,74,0,93
0,76,47,3
0,81,0,93
0,76,0,0
0,33,0,0
0,55,0,0
0,77,48,3
0,50,47,0
0,34,50,0
0,77,0,189
0,82,55,3
0,77,41,0
0,74,52,0
0,70,43,0
0,65,58,0
0,65,0,189
0,70,0,0
0,74,0,0
0,77,0,0
0,82,0,0
0,86,41,3
0,82,53,0
0,77,58,0
0,74,46,0
0,62,56,0
0,62,0,189
0,74,0,0
0,77,0,0
0,82,0,0
0,86,0,0
0,91,56,3
0,86,52,0
0,82,43,0
0,79,56,0
0,65,44,0
0,65,0,381
0,74,57,1
0,69,47,0
0,62,55,0
0,79,47,359
0,79,0,189
0,69,0,0
0,74,0,0
0,62,0,0
0,79,0,0
0,82,0,0
0,86,0,0
0,91,0,0
0,34,0,0
0,50,0,0
0,74,58,3
0,52,47,0
0,36,52,0
0,76,59,192
0,64,44,0
0,76,50,1
0,79,52,0
0,67,45,0
0,67,0,189
0,79,0,0
0,84,40,3
0,72,55,0
0,72,0,285
0,84,0,0
0,84,51,3
0,84,0,93
0,84,51,3
0,84,0,93
0,84,52,3
0,84,0,93
0,36,0,0
0,52,0,0
0,96,46,3
0,84,49,0
0,84,0,93
0,96,0,0
0,94,41,3
0,82,55,0
0,82,0,93
0,94,0,0
0,93,40,3
0,81,57,0
0,65,59,0
0,65,0,93
0,81,0,0
0,93,0,0
0,92,58,3
0,79,53,0
0,64,51,0
0,64,0,93
0,79,0,0
0,92,0,0
0,93,45,3
0,81,54,0
0,62,55,0
0,46,47,0
0,62,0,189
0,81,0,0
0,93,0,0
0,89,59,3
0,77,52,0
0,65,45,0
0,76,0,189
0,65,0,0
0,77,0,0
0,89,0,0
0,86,50,3
0,82,49,0
0,77,54,0
0,74,51,0
0,74,0,189
0,77,0,0
0,82,0,0
0,86,0,0
0,77,47,3
0,74,56,0
0,91,53,0
0,86,48,0
0,82,41,0
0,79,58,0
0,74,44,3
0,74,0,45
0,77,25,3
0,77,0,45
0,82,53,3
0,82,0,381
0,79,0,0
0,82,0,0
0,86,0,0
0,91,0,0
0,46,0,0
0,76,44,1
0,84,51,0
0,79,45,0
0,48,59,0
0,43,53,0
0,36,48,0
0,76,58,3
0,72,47,0
0,67,43,0
0,96,47,0
0,91,56,0
0,84,53,0
0,55,43,0
0,91,52,3
0,84,53,0
0,79,43,0
0,62,58,0
0,74,45,3
0,74,0,189
0,62,0,0
0,72,51,3
0,60,52,0
0,72,0,189
0,70,55,3
0,70,0,189
0,60,0,0
0,79,0,0
0,84,0,0
0,91,0,0
0,36,0,0
0,43,0,0
0,48,0,0
0,69,58,3
0,57,49,0
0,77,50,0
0,72,50,0
0,69,50,0
0,77,50,0
0,72,50,0
0,69,50,0
0,65,48,0
0,60,56,0
0,53,53,0
0,45,42,0
0,69,0,189
0,65,59,3
0,65,0,381
0,57,0,0
0,69,0,0
0,72,0,0
0,77,0,0
0,69,0,0
0,72,0,0
0,77,0,0
0,45,0,0
0,53,0,0
0,60,0,0
0,65,0,0
0,60,57,0
0,74,50,0
0,70,52,0
0,58,53,0
0,74,50,0
0,70,50,0
0,65,50,0
0,74,50,0
0,70,50,0
0,65,50,0
0,60,58,0
0,60,52,0
0,53,56,0
0,46,58,0
0,60,57,0
0,60,0,189
0,60,0,0
0,60,0,0
0,60,0,0
0,60,55,0
0,60,60,0
0,60,56,0
0,55,59,0
0,60,55,0
0,60,0,189
0,70,0,0
0,74,0,0
0,60,0,0
0,60,0,0
0,60,0,0
0,62,63,0
0,70,51,0
0,62,55,0
0,62,53,0
0,62,63,0
0,62,0,189
0,62,0,0
0,62,0,0
0,62,0,0
0,65,66,0
0,65,57,0
0,65,43,0
0,65,66,0
0,65,0,189
0,65,0,0
0,65,0,0
0,65,0,0
0,62,69,0
0,62,54,0
0,62,41,0
0,62,69,0
0,62,0,189
0,70,0,0
0,58,0,0
0,65,0,0
0,70,0,0
0,74,0,0
0,65,0,0
0,70,0,0
0,74,0,0
0,62,0,0
0,62,0,0
0,55,0,0
0,46,0,0
0,53,0,0
0,62,0,0
0,65,66,0
0,55,50,0
0,79,50,0
0,74,50,0
0,70,50,0
0,79,50,0
0,74,50,0
0,70,50,0
0,65,53,0
0,65,49,0
0,62,58,0
0,53,59,0
0,43,42,0
0,65,66,0
0,65,0,189
0,65,0,0
0,65,0,0
0,65,0,0
0,65,53,3
0,65,48,0
0,65,51,0
0,67,51,0
0,65,53,0
0,65,0,189
0,65,0,0
0,65,0,0
0,67,0,0
0,65,0,0
0,67,62,0
0,70,50,0
0,67,53,0
0,67,43,0
0,67,62,0
0,67,0,189
0,70,0,0
0,55,0,0
0,70,0,0
0,74,0,0
0,79,0,0
0,70,0,0
0,74,0,0
0,79,0,0
0,67,0,0
0,43,0,0
0,53,0,0
0,62,0,0
0,67,0,0
0,60,55,3
0,76,50,0
0,72,50,0
0,67,50,0
0,76,50,0
0,72,50,0
0,67,50,0
0,60,59,0
0,52,44,0
0,36,55,0
0,60,0,189
0,67,47,3
0,60,49,0
0,67,0,189
0,72,44,3
0,72,0,189
0,76,55,3
0,76,0,189
0,72,48,3
0,72,0,189
0,60,0,0
0,67,0,0
0,72,0,0
0,76,0,0
0,67,0,0
0,72,0,0
0,76,0,0
0,60,0,0
0,36,0,0
0,52,0,0
0,67,0,0
0,70,40,3
0,65,41,0
0,55,50,0
0,77,50,0
0,72,50,0
0,67,50,0
0,77,50,0
0,72,50,0
0,67,50,0
0,65,41,0
0,62,59,0
0,58,41,0
0,53,42,0
0,43,42,0
0,69,63,0
0,69,60,0
0,69,63,0
0,69,0,189
0,55,0,0
0,65,0,0
0,70,0,0
0,67,0,0
0,72,0,0
0,77,0,0
0,67,0,0
0,72,0,0
0,77,0,0
0,69,0,0
0,43,0,0
0,53,0,0
0,58,0,0
0,62,0,0
0,65,0,0
0,69,0,0
0,69,51,0
0,57,52,0
0,77,50,0
0,72,50,0
0,69,50,0
0,77,50,0
0,72,50,0
0,69,50,0
0,69,51,0
0,72,41,0
0,65,44,0
0,60,52,0
0,53,58,0
0,45,59,0
0,69,51,0
0,69,0,93
0,69,0,0
0,69,0,0
0,69,62,0
0,69,63,0
0,69,62,0
0,65,41,96
0,69,0,189
0,65,0,0
0,69,0,0
0,69,0,0
0,67,62,0
0,69,47,0
0,67,50,0
0,67,62,0
0,67,0,93
0,67,0,0
0,67,0,0
0,65,52,0
0,65,65,0
0,65,52,0
0,69,0,93
0,72,57,3
0,65,0,189
0,72,0,0
0,65,0,0
0,65,0,0
0,65,61,0
0,77,55,0
0,65,54,0
0,65,61,0
0,65,0,189
0,77,0,0
0,57,0,0
0,69,0,0
0,72,0,0
0,77,0,0
0,69,0,0
0,72,0,0
0,77,0,0
0,65,0,0
0,45,0,0
0,53,0,0
0,60,0,0
0,65,0,0
0,72,0,0
0,65,0,0
0,65,58,3
0,74,47,0
0,70,53,0
0,65,45,0
0,58,40,0
0,77,50,0
0,72,50,0
0,70,50,0
0,77,50,0
0,72,50,0
0,70,50,0
0,65,53,0
0,77,50,0
0,74,41,0
0,70,51,0
0,65,55,0
0,53,45,0
0,46,58,0
0,65,58,0
0,65,0,93
0,65,0,0
0,65,0,0
0,60,57,0
0,60,56,0
0,60,57,0
0,60,0,93
0,60,0,0
0,60,0,0
0,62,66,3
0,62,66,0
0,62,66,0
0,62,0,189
0,62,0,0
0,62,0,0
0,65,0,192
0,70,0,0
0,74,0,0
0,58,0,96
0,65,58,3
0,65,0,45
0,70,59,3
0,65,0,45
0,70,0,0
0,74,46,3
0,70,49,0
0,74,0,189
0,70,0,0
0,70,0,0
0,72,48,3
0,72,47,0
0,70,49,3
0,70,42,0
0,48,42,0
0,70,0,189
0,70,0,0
0,67,59,3
0,67,49,0
0,67,0,189
0,70,0,0
0,72,0,0
0,77,0,0
0,70,0,0
0,72,0,0
0,77,0,0
0,67,0,0
0,48,0,0
0,74,0,0
0,77,0,0
0,69,57,3
0,53,47,0
0,77,50,0
0,72,50,0
0,69,50,0
0,77,50,0
0,72,50,0
0,69,50,0
0,69,50,0
0,65,52,0
0,60,57,0
0,48,45,0
0,41,54,0
0,69,0,189
0,72,55,3
0,60,64,0
0,60,59,0
0,60,64,0
0,60,0,93
0,53,0,0
0,60,0,0
0,60,0,0
0,65,0,0
0,69,0,0
0,60,0,0
0,70,58,0
0,53,58,0
0,70,68,0
0,69,53,0
0,65,41,0
0,60,52,0
0,70,58,0
0,70,0,189
0,53,0,0
0,72,0,0
0,69,0,0
0,72,0,0
0,77,0,0
0,69,0,0
0,72,0,0
0,77,0,0
0,70,0,0
0,60,0,0
0,65,0,0
0,69,0,0
0,41,0,0
0,48,0,0
0,70,0,0
0,70,58,0
0,70,57,0
0,55,50,0
0,74,50,0
0,70,50,0
0,65,50,0
0,74,50,0
0,70,50,0
0,65,50,0
0,70,56,0
0,70,52,0
0,65,50,0
0,62,52,0
0,50,41,0
0,43,59,0
0,70,58,0
0,70,0,189
0,70,0,0
0,70,0,0
0,69,69,0
0,69,57,0
0,69,69,0
0,70,0,189
0,62,0,0
0,65,0,0
0,70,0,0
0,70,51,3
0,69,52,0
0,65,47,0
0,62,41,0
0,69,0,189
0,55,0,0
0,69,0,0
0,69,0,0
0,55,54,3
0,55,0,189
0,67,52,0
0,57,53,0
