track,note,velocity,time
1,29,97,6586
1,34,82,24
1,36,92,18
1,34,85,6
1,36,85,18
1,29,88,40
1,38,90,132
1,36,83,74
1,29,81,14
1,38,94,112
1,34,94,16
1,36,91,96
1,34,89,48
1,36,98,10
1,29,88,2
1,29,91,68
1,34,90,14
1,34,85,10
1,36,92,2
1,29,88,94
1,38,90,132
1,36,83,74
1,29,81,14
1,38,94,112
1,34,94,16
1,36,91,96
1,34,89,48
1,36,98,10
1,29,88,2
1,29,91,68
1,34,90,14
1,34,85,10
1,36,92,2
1,36,71,2
1,36,60,2
1,36,81,2
1,36,87,2
1,36,87,2
1,31,96,2
1,31,94,66
1,29,113,48
1,29,111,52
1,36,105,18
1,36,103,2
1,33,105,2
1,38,104,2
1,38,107,28
1,36,106,2
1,34,108,34
1,34,103,12
1,36,104,2
1,29,108,2
1,29,105,32
1,36,105,8
1,36,103,2
1,33,103,2
1,38,105,2
1,38,100,40
1,36,105,2
1,34,105,10
1,28,111,20
1,29,107,6
1,36,104,16
1,34,97,2
1,38,94,40
1,34,105,6
1,31,103,46
1,31,97,30
1,31,105,26
1,31,103,20
1,33,105,16
1,34,95,16
1,34,115,76
1,36,98,2
1,38,101,14
1,28,105,2
1,29,97,24
1,34,82,24
1,36,92,18
1,34,85,6
1,36,85,18
1,29,88,40
1,38,90,132
1,36,83,74
1,29,81,14
1,38,94,112
1,34,94,16
1,36,91,96
1,34,89,48
1,36,98,10
1,29,88,2
1,29,91,68
1,34,90,14
1,34,85,10
1,36,92,2
1,29,103,94
1,38,101,132
1,36,96,74
1,29,99,22
1,33,98,2
1,36,95,4
1,38,99,12
1,34,94,12
1,36,91,96
1,34,89,48
1,36,98,10
1,29,88,2
1,29,91,68
1,34,90,14
1,34,85,10
1,36,92,2
1,36,71,2
1,36,60,2
1,36,81,2
1,36,87,2
1,36,87,2
1,31,96,2
1,31,94,66
1,29,113,48
1,29,111,52
1,36,105,18
1,36,103,2
1,33,105,2
1,38,104,2
1,38,107,28
1,36,106,2
1,34,108,34
1,34,103,12
1,36,104,2
1,29,108,2
1,29,105,32
1,36,105,8
1,36,103,2
1,33,103,2
1,38,105,2
1,38,100,40
1,36,105,2
1,34,105,10
1,28,111,20
1,29,107,6
1,36,104,16
1,34,97,2
1,38,94,40
1,34,105,6
1,31,103,46
1,31,97,30
1,31,105,26
1,31,103,20
1,33,105,16
1,34,95,16
1,34,115,76
1,36,98,2
1,38,101,14
1,28,105,2
1,29,97,24
1,34,82,24
1,36,92,18
1,34,85,6
1,36,85,18
1,29,88,40
1,38,90,132
1,36,83,74
1,29,81,14
1,38,94,112
1,34,94,16
1,36,91,96
1,34,89,48
1,36,98,10
1,29,88,2
1,29,91,68
1,34,90,20
1,34,85,8
1,34,71,60
1,36,85,2
1,29,76,2
1,38,81,124
1,36,72,10
1,29,71,2
1,38,72,112
1,34,71,16
1,36,76,96
1,34,74,48
1,36,74,10
1,29,65,2
1,29,67,68
1,34,78,14
1,34,76,10
1,36,81,2
1,36,71,2
1,36,60,2
1,36,81,2
1,36,87,2
1,36,87,2
1,31,96,2
1,31,94,66
1,29,113,48
1,29,111,52
1,36,105,18
1,36,103,2
1,33,105,2
1,38,104,2
1,38,107,28
1,36,106,2
1,34,108,34
1,34,103,12
1,36,104,2
1,29,108,2
1,29,105,32
1,36,105,8
1,36,103,2
1,33,103,2
1,38,105,2
1,38,100,40
1,36,105,2
1,34,105,10
1,28,111,20
1,29,107,6
1,36,104,16
1,34,97,2
1,38,94,40
1,34,105,6
1,31,103,46
1,31,97,30
1,31,105,26
1,31,103,20
1,33,105,16
1,34,95,16
1,34,115,76
1,36,98,2
1,38,101,14
1,28,105,2
1,29,97,24
1,34,82,24
1,36,92,18
1,34,85,6
1,36,85,18
1,29,97,44
1,34,82,24
1,36,92,18
1,34,85,6
1,36,85,18
1,29,76,40
1,38,81,124
1,36,72,10
1,29,71,2
1,38,72,110
1,34,71,16
1,36,76,100
1,34,74,42
1,36,74,10
1,29,65,2
1,29,67,70
1,34,78,24
1,34,76,2
1,36,81,756
1,36,71,2
1,36,60,374
1,36,85,2
1,31,90,2
1,33,90,2
1,34,76,30
1,34,76,18
1,36,81,2
1,36,71,2
1,36,60,374
1,36,81,2
1,36,87,2
1,36,87,2
1,31,87,2
1,33,87,2
1,34,78,2
1,34,76,2
1,36,81,176
1,36,71,2
1,36,60,288
1,36,85,2
1,31,90,2
1,33,90,2
1,34,76,2
1,34,76,18
1,36,81,2
1,36,71,2
1,36,60,192
1,36,81,2
1,36,87,2
2,53,118,408
2,69,117,2
2,57,73,202
2,60,84,102
2,65,86,10
2,53,92,2
2,57,118,4
2,69,105,6
2,60,88,2
2,60,69,12
2,48,67,96
2,57,99,8
2,60,109,10
2,60,80,12
2,67,127,4
2,60,72,2
2,48,72,0
2,60,101,86
2,64,112,2
2,48,71,6
2,67,122,90
2,65,118,4
2,62,58,2
2,58,64,6
2,53,82,184
2,58,95,18
2,62,110,96
2,65,115,14
2,58,96,18
2,46,80,96
2,58,107,14
2,62,121,6
2,58,83,6
2,65,84,0
2,48,89,6
2,60,118,0
2,64,123,10
2,65,91,84
2,67,91,8
2,64,73,6
2,60,72,6
2,67,78,2
2,53,118,40
2,69,117,2
2,57,82,202
2,60,97,102
2,65,86,10
2,53,92,2
2,57,80,4
2,69,105,6
2,60,72,2
2,60,69,12
2,41,126,96
2,48,109,6
2,57,97,8
2,60,47,10
2,60,80,12
2,65,98,12
2,69,104,98
2,67,74,4
2,48,79,6
2,64,86,6
2,65,108,4
2,62,72,2
2,58,64,6
2,46,82,186
2,58,95,18
2,62,110,96
2,65,115,14
2,58,96,6
2,46,80,18
2,58,107,4
2,62,121,6
2,58,83,6
2,65,84,0
2,48,89,6
2,60,118,0
2,55,118,6
2,60,104,8
2,64,63,2
2,60,72,8
2,53,118,40
2,69,117,2
2,57,73,202
2,60,84,102
2,65,86,10
2,53,92,2
2,57,118,4
2,69,105,6
2,60,88,2
2,60,69,12
2,48,67,96
2,57,99,8
2,60,109,10
2,60,80,12
2,67,127,4
2,60,72,2
2,48,72,0
2,60,91,86
2,64,103,2
2,48,71,6
2,67,72,90
2,65,118,4
2,62,58,2
2,58,64,6
2,53,82,184
2,58,95,18
2,62,110,96
2,65,115,14
2,58,96,18
2,46,80,96
2,58,107,14
2,62,121,6
2,58,83,6
2,65,84,0
2,48,89,6
2,60,118,0
2,69,123,10
2,65,61,84
2,67,111,2
2,65,51,6
2,60,118,6
2,69,117,2
2,57,82,202
2,60,97,24
2,65,86,10
2,53,92,2
2,57,80,4
2,69,105,6
2,60,72,2
2,60,69,12
2,41,126,96
2,48,109,6
2,57,97,8
2,60,47,10
2,60,80,12
2,65,98,12
2,69,104,98
2,67,74,4
2,48,79,6
2,64,86,6
2,65,108,4
2,62,72,2
2,58,64,6
2,46,82,186
2,58,95,18
2,62,110,96
2,65,115,14
2,58,96,6
2,46,80,18
2,58,107,4
2,65,90,2
2,62,101,4
2,58,83,6
2,48,89,6
2,60,118,0
2,65,90,0
2,55,118,6
2,60,104,8
2,64,59,2
2,60,72,8
2,53,74,40
2,60,78,4
2,65,78,8
2,69,86,8
2,50,68,60
2,53,64,8
2,57,90,10
2,62,83,14
2,65,52,14
2,55,82,36
2,48,84,4
2,60,80,6
2,64,80,14
2,67,80,6
2,53,70,8
2,57,72,12
2,60,90,8
2,65,90,12
2,57,82,34
2,65,74,2
2,60,50,2
2,60,39,8
2,65,50,94
2,50,82,68
2,53,82,10
2,57,91,14
2,62,83,6
2,46,61,212
2,53,76,12
2,62,80,10
2,58,75,2
2,60,100,6
2,62,66,6
2,65,79,6
2,48,80,22
2,55,68,16
2,60,81,16
2,64,77,16
2,67,73,26
2,53,80,0
2,62,80,0
2,58,57,2
2,46,60,6
2,58,49,52
2,65,59,0
2,62,59,4
2,48,85,20
2,55,88,18
2,60,89,24
2,64,85,18
2,67,85,10
2,53,65,138
2,57,66,30
2,60,74,28
2,65,81,24
2,53,80,198
2,46,55,4
2,58,64,2
2,62,77,2
2,48,68,12
2,55,49,12
2,60,72,0
2,55,69,70
2,64,91,36
2,62,73,4
2,60,84,14
2,58,64,6
2,53,74,70
2,60,78,4
2,65,78,8
2,69,86,8
2,50,68,60
2,53,64,8
2,57,90,10
2,62,83,14
2,65,52,14
2,55,82,36
2,48,84,4
2,60,80,6
2,64,80,14
2,67,80,6
2,53,70,8
2,57,72,12
2,60,90,8
2,65,90,12
2,57,82,34
2,65,74,2
2,60,50,2
2,60,39,8
2,65,50,94
2,50,82,68
2,53,82,10
2,57,91,14
2,62,83,6
2,46,61,212
2,53,76,12
2,62,80,10
2,58,75,2
2,60,100,6
2,62,66,6
2,65,79,6
2,48,80,22
2,55,68,16
2,60,81,16
2,64,77,16
2,67,73,26
2,53,80,0
2,62,80,0
2,58,57,2
2,46,60,6
2,58,49,52
2,65,59,0
2,62,59,4
2,48,85,20
2,55,88,18
2,60,89,24
2,64,85,18
2,67,85,10
2,53,65,138
2,57,66,30
2,60,74,28
2,65,81,24
2,53,80,198
2,46,55,4
2,58,64,2
2,62,77,2
2,48,68,12
2,55,49,12
2,60,72,0
2,55,69,70
2,64,91,36
2,62,73,4
2,60,84,14
2,58,64,6
2,60,85,76
2,69,89,0
2,60,78,38
2,67,80,2
2,57,73,166
2,65,81,0
2,58,64,754
2,69,70,212
2,60,75,2
2,60,63,66
2,67,65,2
2,69,74,52
2,62,78,2
2,65,81,92
2,58,61,4
2,60,79,18
2,67,75,6
2,60,71,26
2,69,76,0
2,58,56,6
2,65,57,0
2,62,86,108
2,57,47,2
2,55,57,186
2,60,118,0
2,62,81,90
2,57,47,6
2,65,112,4
2,67,88,2
2,58,76,2
2,67,98,174
2,69,90,198
2,70,84,8
2,70,93,94
2,72,83,4
2,74,83,18
2,72,86,392
2,41,118,36
2,48,118,0
2,57,118,0
2,41,126,6
2,48,109,98
2,57,97,94
2,60,47,10
2,60,80,12
2,65,98,92
2,69,104,98
2,67,74,4
2,48,79,6
2,64,86,6
2,65,118,2
2,62,58,2
2,58,64,6
2,53,82,184
2,58,95,18
2,62,110,96
2,65,115,14
2,58,96,18
2,46,80,96
2,58,107,14
2,62,121,6
2,58,83,6
2,65,84,0
2,48,89,6
2,60,118,0
2,64,101,0
2,65,68,6
2,67,111,2
2,65,51,8
2,60,118,6
2,69,117,2
2,57,82,202
2,60,97,24
2,65,86,10
2,53,92,2
2,57,80,4
2,69,105,6
2,60,72,2
2,60,69,12
2,41,126,96
2,57,97,8
2,60,47,10
2,65,78,6
2,60,80,2
2,69,105,46
2,67,91,0
2,48,79,6
2,64,46,6
2,65,108,4
2,62,72,2
2,58,64,6
2,46,82,186
2,58,95,18
2,62,110,96
2,65,115,14
2,58,96,6
2,46,80,18
2,58,107,4
2,65,90,2
2,62,101,4
2,58,83,6
2,48,89,6
2,60,98,0
2,65,80,0
2,55,98,6
2,60,94,8
2,64,57,2
2,60,62,8
2,53,74,40
2,60,78,4
2,65,78,8
2,69,86,8
2,50,68,60
2,53,64,8
2,57,90,10
2,62,83,14
2,65,52,14
2,55,82,36
2,48,84,4
2,60,80,6
2,64,80,14
2,67,80,6
2,53,70,8
2,57,72,12
2,60,90,8
2,65,90,12
2,57,82,34
2,65,74,2
2,60,50,2
2,60,39,8
2,65,50,94
2,50,82,68
2,53,82,10
2,57,91,14
2,62,83,6
2,46,61,212
2,53,76,12
2,62,80,10
2,58,75,2
2,60,100,6
2,62,66,6
2,65,79,6
2,48,80,22
2,55,68,16
2,60,81,16
2,64,77,16
2,67,73,26
2,53,80,0
2,62,80,0
2,58,57,2
2,46,60,6
2,58,49,52
2,65,59,0
2,62,59,4
2,48,85,20
2,55,88,18
2,60,89,24
2,64,85,18
2,67,85,10
2,53,65,138
2,57,66,30
2,60,74,28
2,65,81,24
2,53,80,198
2,46,55,4
2,58,64,2
2,62,77,2
2,48,68,12
2,55,49,12
2,60,72,0
2,55,69,70
2,64,91,36
2,62,73,4
2,60,84,14
2,58,64,6
2,48,85,70
2,53,85,0
2,60,101,4
2,41,116,8
2,52,101,6
2,55,68,0
2,50,94,60
2,53,99,8
2,45,84,2
2,55,105,36
2,48,84,4
2,60,80,6
2,64,80,14
2,67,109,6
2,53,111,20
2,57,112,6
2,60,114,6
2,65,116,8
2,45,114,1146
2,48,114,4
2,50,109,16
2,53,109,6
2,57,109,8
2,62,105,4
2,46,107,202
2,53,109,12
2,62,111,10
2,58,114,2
2,48,102,266
2,55,102,10
2,60,101,8
2,64,100,12
2,67,100,16
2,48,102,232
2,55,102,10
2,60,102,14
2,64,102,12
2,67,107,6
2,53,84,172
2,57,89,18
2,60,91,18
2,65,100,12
2,53,102,210
2,46,103,4
2,58,104,2
2,62,105,2
2,48,89,12
2,55,98,12
2,60,98,0
2,60,85,586
2,69,89,0
2,60,78,38
2,67,80,2
2,57,73,166
2,65,81,0
2,58,64,754
2,69,70,212
2,60,75,2
2,60,63,66
2,67,65,2
2,69,74,52
2,62,78,2
2,65,81,92
2,58,61,4
2,60,79,18
2,67,75,6
2,60,71,26
2,69,76,0
2,58,56,6
2,65,57,0
2,62,86,108
2,57,47,2
2,55,57,186
2,60,118,0
2,62,81,90
2,57,47,6
2,65,112,4
2,67,88,2
2,58,76,2
2,67,98,174
2,69,90,198
2,70,84,8
2,70,93,94
2,72,83,4
2,74,83,18
2,72,86,392
2,41,118,36
2,48,118,0
2,57,118,0
2,41,126,6
2,48,109,98
2,57,97,94
2,60,47,10
2,60,80,12
2,65,98,92
2,69,104,98
2,67,74,4
2,48,79,6
2,64,86,6
2,65,118,2
2,62,58,2
2,58,64,6
2,53,82,184
2,58,95,18
2,62,110,96
2,65,115,14
2,58,96,18
2,46,80,96
2,58,107,14
2,62,121,6
2,58,83,6
2,65,84,0
2,48,89,6
2,60,118,0
2,64,101,0
2,65,68,6
2,67,111,2
2,65,51,8
2,60,118,6
2,69,117,2
2,57,82,202
2,60,97,24
2,65,86,10
2,53,92,2
2,57,80,4
2,69,105,6
2,60,72,2
2,60,69,12
2,41,126,96
2,57,97,8
2,60,47,10
2,65,78,6
2,60,80,2
2,69,105,46
2,67,91,0
2,48,79,6
2,64,46,6
2,65,108,4
2,62,72,2
2,58,64,6
2,46,82,186
2,58,95,18
2,62,110,96
2,65,115,14
2,58,96,6
2,46,80,18
2,58,107,4
2,65,90,2
2,62,101,4
2,58,83,6
2,48,89,6
2,60,98,0
2,65,80,0
2,55,98,6
2,60,94,8
2,64,57,2
2,60,62,8
2,53,74,40
2,60,78,4
2,65,78,8
2,69,86,8
2,50,68,60
2,53,64,8
2,57,90,10
2,62,83,14
2,65,52,14
2,55,82,36
2,48,84,4
2,60,80,6
2,64,80,14
2,67,80,6
2,53,70,8
2,57,72,12
2,60,90,8
2,65,90,12
2,57,82,40
2,60,50,2
2,65,74,0
2,60,39,8
2,65,50,94
2,50,82,68
2,53,82,10
2,57,91,14
2,62,83,6
2,46,61,212
2,53,76,12
2,62,80,10
2,58,75,2
2,60,100,6
2,62,66,6
2,65,79,6
2,48,80,22
2,55,68,16
2,60,81,16
2,64,77,16
2,67,73,26
2,53,80,6
2,58,57,0
2,62,80,0
2,46,60,2
2,58,49,52
2,65,59,0
2,62,59,2
2,48,85,38
2,55,88,10
2,60,89,14
2,64,85,12
2,67,85,6
2,53,65,148
2,57,66,30
2,60,74,28
2,65,81,24
2,53,80,198
2,46,55,4
2,58,64,2
2,62,77,2
2,48,68,12
2,55,49,12
2,60,72,0
2,55,69,70
2,64,73,36
2,62,57,4
2,60,64,14
2,58,53,6
2,53,59,70
2,60,63,4
2,65,63,8
2,69,71,8
2,50,53,60
2,53,49,8
2,57,75,10
2,62,68,14
2,65,37,14
2,53,55,8
2,57,57,12
2,60,75,8
2,65,75,12
2,50,67,214
2,53,67,10
2,57,76,14
2,62,68,6
2,46,46,212
2,53,61,12
2,62,65,10
2,58,60,2
