track,note,velocity,time
0,53,90,99
0,75,74,0
0,81,76,0
0,86,82,0
0,75,45,89
0,81,61,29
0,65,58,44
0,86,88,13
0,65,0,39
0,86,0,28
0,75,0,3
0,81,0,5
0,75,0,110
0,81,0,0
0,86,0,0
0,84,104,4
0,77,65,0
0,74,65,0
0,46,63,0
0,84,97,0
0,77,82,0
0,58,77,0
0,53,0,32
0,58,0,203
0,74,46,4
0,65,53,0
0,84,0,218
0,65,0,3
0,74,0,5
0,84,0,10
0,82,120,4
0,82,97,0
0,62,50,0
0,62,0,146
0,77,0,37
0,74,55,57
0,70,65,0
0,82,0,196
0,82,0,17
0,84,115,27
0,84,90,0
0,77,68,0
0,65,56,0
0,70,0,1
0,74,0,17
0,65,0,155
0,77,0,50
0,74,47,17
0,62,48,0
0,84,0,66
0,74,0,58
0,62,0,7
0,46,0,13
0,86,113,24
0,53,78,0
0,86,97,0
0,77,78,0
0,58,83,0
0,82,72,5
0,84,0,13
0,58,0,127
0,65,61,37
0,65,0,183
0,74,43,57
0,70,97,0
0,86,0,41
0,77,0,180
0,70,0,2
0,84,97,17
0,84,87,0
0,62,50,0
0,86,0,16
0,62,0,190
0,84,0,20
0,82,93,14
0,65,54,0
0,84,0,16
0,74,0,85
0,65,0,17
0,82,0,18
0,82,0,95
0,81,105,9
0,81,82,0
0,70,80,0
0,70,0,61
0,81,0,17
0,53,0,30
0,74,0,68
0,79,117,9
0,72,65,0
0,69,73,0
0,53,82,0
0,79,92,0
0,72,84,0
0,53,68,0
0,81,0,1
0,69,40,239
0,60,48,0
0,53,0,117
0,69,0,83
0,60,0,22
0,77,0,8
0,77,107,9
0,77,92,0
0,57,65,0
0,79,0,8
0,79,0,13
0,72,0,185
0,57,0,2
0,69,44,32
0,65,72,0
0,65,0,221
0,77,0,7
0,79,105,12
0,79,90,0
0,72,78,0
0,60,67,0
0,77,0,1
0,69,0,55
0,72,0,162
0,60,0,3
0,69,39,19
0,57,65,0
0,79,0,78
0,57,0,87
0,69,0,38
0,53,0,2
0,81,113,12
0,48,77,0
0,81,90,0
0,72,80,0
0,53,78,0
0,77,85,10
0,79,0,8
0,53,0,175
0,60,67,12
0,60,0,196
0,69,48,44
0,65,78,0
0,81,0,11
0,65,0,175
0,79,99,54
0,79,92,0
0,57,76,0
0,72,0,3
0,81,0,28
0,69,0,77
0,77,0,110
0,77,104,22
0,77,87,0
0,60,72,0
0,79,0,3
0,57,0,5
0,79,0,20
0,60,0,143
0,77,0,12
0,77,0,50
0,76,99,7
0,76,80,0
0,65,70,0
0,76,0,17
0,65,0,103
0,72,0,40
0,69,0,0
0,74,115,9
0,70,70,0
0,46,75,0
0,74,90,0
0,65,74,0
0,58,89,0
0,76,0,1
0,48,0,25
0,58,0,140
0,70,44,67
0,74,0,63
0,65,0,38
0,77,111,139
0,77,90,0
0,58,74,0
0,74,0,8
0,74,86,7
0,70,0,1
0,74,0,0
0,77,0,162
0,74,60,62
0,58,0,46
0,74,0,10
0,82,117,42
0,82,97,0
0,74,78,0
0,62,70,0
0,77,0,1
0,62,0,95
0,82,0,53
0,77,64,9
0,74,0,6
0,77,0,100
0,82,0,75
0,70,0,15
0,81,113,9
0,72,68,0
0,69,73,0
0,53,85,0
0,81,97,0
0,72,90,0
0,60,92,0
0,46,0,3
0,77,42,189
0,72,0,13
0,81,0,10
0,77,0,15
0,60,0,138
0,84,117,64
0,84,97,0
0,65,87,0
0,81,0,18
0,65,0,35
0,77,51,187
0,77,0,15
0,84,0,10
0,89,109,44
0,57,80,0
0,89,92,0
0,81,80,0
0,57,65,0
0,45,58,0
0,84,0,1
0,53,0,12
0,45,0,55
0,57,0,17
0,81,0,110
0,89,0,35
0,77,38,7
0,77,0,63
0,77,64,87
0,72,0,6
0,69,0,0
0,86,115,9
0,74,64,0
0,70,72,0
0,58,81,0
0,86,97,0
0,82,89,0
0,77,74,0
0,58,80,0
0,46,74,0
0,89,0,21
0,57,0,12
0,65,80,77
0,46,0,143
0,58,0,30
0,65,0,10
0,70,89,57
0,70,0,173
0,62,72,67
0,65,78,240
0,62,0,118
0,65,0,103
0,70,67,19
0,58,97,77
0,82,0,10
0,77,0,13
0,86,0,5
0,70,0,120
0,65,62,64
0,65,0,221
0,70,89,19
0,58,0,138
0,62,58,102
0,62,0,166
0,70,0,30
0,65,64,44
0,65,0,136
0,70,80,104
0,70,0,28
0,86,0,158
0,77,0,45
0,78,97,4
0,84,97,1
0,75,93,0
0,84,105,3
0,75,68,0
0,66,76,0
0,54,82,0
0,54,94,2
0,74,0,4
0,58,0,0
0,75,0,137
0,63,64,102
0,84,0,5
0,75,37,10
0,54,0,115
0,75,0,18
0,78,0,53
0,82,123,34
0,82,101,2
0,58,74,0
0,78,35,3
0,63,0,11
0,84,0,10
0,78,0,17
0,75,40,189
0,66,88,13
0,82,0,13
0,58,0,12
0,75,0,140
0,82,0,63
0,78,84,4
0,84,113,3
0,84,99,0
0,63,82,7
0,66,0,56
0,78,0,87
0,84,0,13
0,63,0,40
0,58,90,9
0,75,41,15
0,75,0,56
0,58,0,10
0,54,0,20
0,75,0,13
0,66,0,0
0,84,0,2
0,86,101,4
0,86,104,3
0,74,68,0
0,65,71,0
0,53,82,0
0,77,94,0
0,74,88,0
0,53,95,0
0,62,78,237
0,74,0,166
0,58,92,27
0,62,0,5
0,74,60,10
0,86,0,10
0,77,0,156
0,53,0,25
0,65,87,26
0,84,99,13
0,84,101,5
0,86,0,73
0,58,0,20
0,84,0,48
0,82,101,91
0,82,106,8
0,62,78,12
0,74,0,1
0,65,0,25
0,84,0,8
0,82,0,57
0,62,0,115
0,82,0,8
0,81,88,1
0,60,84,10
0,81,102,3
0,81,0,55
0,65,0,56
0,60,0,92
0,70,0,0
0,74,0,0
0,79,99,1
0,73,93,0
0,58,94,0
0,81,0,1
0,70,81,2
0,79,109,5
0,73,62,0
0,70,76,0
0,49,79,0
0,53,0,8
0,65,75,217
0,79,0,20
0,70,0,58
0,73,0,57
0,79,0,53
0,77,101,11
0,77,117,8
0,65,0,3
0,61,96,4
0,58,0,8
0,65,77,222
0,77,0,101
0,73,97,134
0,70,90,0
0,77,0,1
0,79,101,2
0,79,102,5
0,65,0,3
0,58,88,14
0,61,0,6
0,73,0,22
0,70,0,8
0,79,0,25
0,65,75,157
0,58,0,130
0,65,0,70
0,73,0,10
0,70,0,0
0,81,101,1
0,77,101,0
0,72,99,0
0,79,0,6
0,81,105,2
0,77,92,0
0,72,65,0
0,69,73,0
0,48,77,0
0,57,87,15
0,49,0,21
0,65,77,206
0,57,0,86
0,72,0,27
0,72,62,64
0,81,0,8
0,60,89,2
0,65,0,1
0,77,0,17
0,72,0,33
0,60,0,150
0,65,94,17
0,79,86,10
0,70,81,2
0,79,104,3
0,81,0,21
0,77,0,0
0,70,0,57
0,79,0,3
0,69,72,154
0,77,94,2
0,77,99,3
0,79,0,1
0,60,91,11
0,69,0,124
0,77,0,32
0,77,0,23
0,60,0,9
0,65,0,11
0,76,94,19
0,57,87,7
0,76,92,3
0,76,0,83
0,57,0,35
0,72,0,3
0,69,0,0
0,74,101,6
0,65,88,0
0,74,105,3
0,70,72,0
0,46,72,0
0,58,86,0
0,48,0,23
0,76,0,0
0,65,0,99
0,65,75,7
0,58,0,74
0,65,0,67
0,74,0,45
0,74,0,68
0,77,96,4
0,70,93,0
0,77,111,5
0,62,81,2
0,74,87,13
0,70,0,36
0,77,0,25
0,62,0,137
0,65,92,22
0,82,101,240
0,74,96,0
0,77,0,3
0,82,117,2
0,62,82,10
0,65,0,26
0,82,0,112
0,74,0,18
0,62,0,50
0,58,86,19
0,74,0,70
0,82,0,2
0,58,0,3
0,70,0,10
0,69,78,1
0,46,0,1
0,81,101,2
0,72,96,0
0,81,111,5
0,77,66,0
0,72,65,0
0,69,69,0
0,53,81,0
0,57,91,2
0,65,85,177
0,57,0,68
0,72,0,40
0,81,0,53
0,69,0,77
0,65,0,8
0,77,88,1
0,84,99,3
0,60,94,2
0,84,111,3
0,81,0,21
0,77,0,29
0,84,0,31
0,60,0,124
0,65,89,15
0,65,0,251
0,89,101,4
0,77,99,0
0,57,95,2
0,89,105,3
0,84,0,11
0,77,0,80
0,89,0,110
0,57,0,24
0,60,95,20
0,89,0,20
0,60,0,10
0,77,0,13
0,72,0,0
0,69,0,0
0,72,78,6
0,65,76,0
0,89,115,3
0,77,77,0
0,74,75,0
0,70,83,0
0,58,97,0
0,89,99,1
0,77,99,3
0,89,83,2
0,84,94,0
0,82,92,0
0,77,78,0
0,70,80,0
0,70,29,0
0,53,0,16
0,84,84,6
0,70,0,12
0,77,0,1
0,82,90,6
0,89,0,16
0,72,0,7
0,65,0,5
0,84,0,10
0,82,0,22
0,70,73,17
0,72,80,2
0,65,74,0
0,89,91,10
0,77,96,0
0,84,82,27
0,70,0,20
0,65,0,2
0,72,0,20
0,77,0,2
0,82,87,19
0,70,44,5
0,72,44,5
0,65,40,3
0,89,0,3
0,65,0,33
0,70,0,7
0,72,0,0
0,84,0,18
0,82,0,64
0,72,82,17
0,70,79,0
0,65,74,2
0,89,94,3
0,77,105,2
0,84,82,17
0,77,0,42
0,89,0,0
0,65,0,7
0,82,96,7
0,72,0,1
0,70,0,3
0,82,0,20
0,84,0,15
0,70,69,4
0,72,72,3
0,65,65,2
0,89,97,5
0,77,105,3
0,84,84,14
0,65,0,97
0,70,0,8
0,72,0,13
0,89,0,7
0,82,103,2
0,77,0,1
0,82,0,25
0,84,0,17
0,70,81,2
0,72,86,2
0,65,72,3
0,89,111,5
0,77,104,0
0,84,98,9
0,77,0,48
0,65,0,3
0,82,111,4
0,70,0,6
0,89,0,2
0,72,0,2
0,82,0,8
0,84,0,7
0,70,85,42
0,65,79,2
0,89,104,3
0,72,92,0
0,77,111,2
0,84,98,74
0,65,0,37
0,70,0,13
0,72,0,3
0,77,0,37
0,82,111,57
0,70,77,0
0,72,81,2
0,65,60,5
0,89,0,21
0,65,0,10
0,70,0,7
0,72,0,5
0,82,0,47
0,84,0,12
0,70,106,35
0,89,115,2
0,72,104,0
0,65,100,0
0,77,115,4
0,84,104,2
0,77,0,2
0,65,0,50
0,70,0,10
0,72,0,0
0,89,0,10
0,82,117,7
0,82,0,10
0,84,0,10
0,70,97,56
0,72,96,2
0,65,92,0
0,89,115,12
0,77,115,3
0,84,110,1
0,84,0,191
0,89,0,2
0,77,0,21
0,82,117,6
0,70,0,1
0,65,0,0
0,72,0,5
0,82,0,14
0,70,0,0
0,84,0,2
0,82,0,8
0,57,97,4
0,89,0,2
0,77,0,2
0,89,0,13
0,77,0,0
0,74,0,0
0,70,0,0
0,58,0,0
0,38,121,4
0,86,94,0
0,81,89,0
0,77,80,0
0,86,105,0
0,81,101,0
0,77,91,0
0,74,107,0
0,57,76,0
0,35,108,0
0,86,95,0
0,74,95,0
0,69,95,0
0,65,95,0
0,62,95,0
0,57,0,6
0,35,0,0
0,81,68,157
0,81,0,1
0,81,108,6
0,44,49,8
0,44,0,6
0,74,0,172
0,79,84,14
0,79,0,1
0,79,102,2
0,86,0,13
0,81,0,84
0,86,100,39
0,86,0,1
0,86,98,4
0,74,100,2
0,79,0,45
0,81,104,2
0,81,0,1
0,81,80,6
0,74,0,27
0,79,86,97
0,86,0,3
0,81,0,37
0,44,46,27
0,86,97,5
0,74,100,0
0,44,0,1
0,86,0,0
0,74,0,0
0,86,102,4
0,74,92,2
0,74,0,127
0,81,77,7
0,81,0,1
0,81,105,4
0,86,0,18
0,81,0,95
0,86,107,32
0,86,0,1
0,86,95,4
0,74,95,0
0,79,0,157
0,81,72,55
0,81,0,5
0,81,107,6
0,74,0,53
0,65,0,105
0,69,0,10
0,62,0,0
0,79,102,4
0,44,36,5
0,44,0,6
0,38,0,13
0,86,0,10
0,81,0,79
0,86,0,25
0,57,0,2
0,55,115,2
0,77,0,11
0,81,0,0
0,81,0,3
0,76,81,6
0,84,92,3
0,79,67,7
0,86,95,10
0,74,98,0
0,86,0,1
0,36,113,2
0,84,99,0
0,79,111,0
0,76,94,0
0,49,75,0
0,35,104,0
0,67,95,0
0,64,95,0
0,60,97,0
0,77,0,5
0,49,0,0
0,35,0,0
0,74,0,10
0,79,0,93
0,81,107,109
0,74,0,85
0,79,90,37
0,86,0,38
0,81,0,15
0,44,46,42
0,44,0,6
0,86,97,4
0,74,103,0
0,86,0,0
0,74,0,0
0,86,102,6
0,74,82,0
0,74,0,9
0,86,0,20
0,81,104,2
0,64,0,24
0,67,0,20
0,60,0,0
0,81,0,2
0,36,0,10
0,79,0,0
0,76,0,3
0,84,0,0
0,79,0,2
0,81,73,11
0,86,95,0
0,74,95,0
0,84,0,1
0,38,117,2
0,86,84,0
0,77,77,0
0,86,98,0
0,81,101,0
0,77,97,0
0,57,72,0
0,35,106,0
0,69,95,0
0,65,95,0
0,62,95,0
0,57,0,5
0,35,0,0
0,76,0,2
0,72,124,4
0,79,0,27
0,81,104,16
0,74,0,45
0,44,44,67
0,44,0,6
0,79,90,1
0,86,0,76
0,81,0,115
0,86,96,4
0,74,100,5
0,79,0,2
0,72,0,27
0,69,103,2
0,44,42,5
0,81,82,2
0,44,0,4
0,72,107,191
0,69,0,4
0,79,102,36
0,74,0,4
0,86,0,67
0,81,0,125
0,69,105,17
0,72,0,5
0,86,96,22
0,74,100,0
0,44,38,3
0,44,0,6
0,62,0,182
0,69,0,5
0,67,107,9
0,69,0,1
0,65,0,0
0,74,0,7
0,81,80,5
0,81,0,6
0,81,104,6
0,86,0,2
0,67,0,175
0,81,0,20
0,38,0,3
0,65,105,7
0,82,76,5
0,81,0,3
0,74,94,7
0,74,0,1
0,86,107,4
0,86,0,1
0,74,100,1
0,53,114,0
0,86,95,2
0,34,118,5
0,74,107,0
0,70,89,0
0,45,97,0
0,44,88,0
0,65,95,0
0,62,97,0
0,58,95,0
0,45,0,6
0,44,0,0
0,46,124,6
0,86,0,14
0,79,0,4
0,81,0,23
0,46,0,85
0,53,0,7
0,81,78,52
0,81,0,1
0,81,104,6
0,46,104,0
0,53,99,5
0,46,0,61
0,53,0,5
0,45,82,2
0,45,0,6
0,74,0,99
0,45,97,15
0,44,47,0
0,45,0,6
0,44,0,0
0,79,90,1
0,86,0,46
0,81,0,10
0,35,58,57
0,35,0,6
0,55,0,82
0,53,109,22
0,41,67,10
0,86,95,0
0,74,96,0
0,46,124,2
0,41,0,4
0,62,0,2
0,79,0,10
0,58,0,0
0,65,0,5
0,45,86,17
0,45,0,6
0,74,0,27
0,70,0,10
0,65,0,43
0,76,77,14
0,64,115,2
0,86,0,1
0,77,0,0
0,84,77,4
0,82,0,6
0,79,65,2
0,34,0,1
0,36,110,4
0,79,102,0
0,76,81,0
0,72,99,0
0,44,43,0
0,41,108,0
0,81,104,0
0,64,95,0
0,60,97,0
0,55,96,0
0,44,0,6
0,41,0,0
0,77,0,15
0,46,0,107
0,53,0,28
0,65,105,36
0,74,0,1
0,64,0,2
0,36,0,31
0,79,100,6
0,46,116,0
0,36,99,3
0,41,94,0
0,41,0,6
0,53,105,6
0,86,0,26
0,81,0,20
0,46,0,85
0,53,0,2
0,36,0,11
0,65,0,42
0,64,117,19
0,33,102,23
0,57,47,0
0,55,67,0
0,35,104,0
0,86,98,0
0,74,105,2
0,46,124,3
0,57,0,1
0,55,0,0
0,35,0,0
0,53,124,1
0,79,0,73
0,33,0,96
0,64,0,10
0,55,0,7
0,46,0,8
0,60,0,2
0,81,88,9
0,81,0,1
0,53,0,2
0,81,101,5
0,36,112,9
0,81,0,5
0,74,0,4
0,36,0,0
0,86,0,0
0,64,0,10
0,84,0,15
0,57,82,4
0,79,0,1
0,38,120,2
0,86,95,0
0,81,88,0
0,77,75,0
0,81,95,0
0,77,77,0
0,81,97,0
0,77,88,0
0,74,97,0
0,50,95,0
0,49,67,0
0,42,94,0
0,35,107,0
0,74,92,0
0,69,92,0
0,65,98,0
0,57,124,0
