track,note,velocity,time
0,55,91,16
0,58,91,0
0,62,91,0
0,67,91,0
0,43,105,0
0,82,66,32
0,81,77,16
0,77,81,32
0,82,82,304
0,81,85,48
0,77,88,288
0,74,86,16
0,79,86,544
0,79,81,96
0,94,44,1360
0,86,43,16
0,91,45,0
0,67,68,16
0,62,67,32
0,55,18,0
0,67,68,32
0,62,67,16
0,55,18,16
0,67,68,16
0,62,67,32
0,55,18,0
0,67,68,16
0,62,67,16
0,55,18,32
0,67,68,16
0,62,67,16
0,55,18,32
0,67,54,0
0,67,68,64
0,62,67,32
0,55,18,0
0,67,68,16
0,62,67,16
0,55,18,32
0,69,65,32
0,67,68,32
0,62,67,16
0,70,78,16
0,55,18,0
0,67,68,32
0,72,72,16
0,62,67,16
0,55,18,48
0,67,68,16
0,62,67,64
0,55,18,0
0,82,89,16
0,67,68,32
0,62,67,16
0,55,18,32
0,67,68,0
0,81,83,16
0,62,67,16
0,55,18,32
0,67,68,16
0,62,67,32
0,55,18,16
0,77,81,0
0,67,68,32
0,62,67,0
0,94,46,0
0,86,44,16
0,91,48,0
0,55,18,16
0,98,46,16
0,67,68,16
0,62,67,0
0,55,18,32
0,67,68,32
0,62,67,16
0,55,18,0
0,67,68,32
0,62,67,16
0,55,18,32
0,67,68,32
0,62,67,16
0,55,18,32
0,67,68,16
0,62,67,0
0,55,18,16
0,67,68,16
0,62,67,16
0,55,18,16
0,67,68,16
0,62,67,16
0,55,18,48
0,67,68,32
0,62,67,48
0,55,18,16
0,67,68,16
0,62,67,32
0,55,18,32
0,67,68,96
0,62,67,0
0,55,18,64
0,67,68,128
0,82,85,16
0,62,67,64
0,55,18,64
0,67,68,32
0,62,67,64
0,81,88,0
0,55,18,48
0,67,68,80
0,62,67,64
0,55,18,64
0,77,91,0
0,67,68,128
0,62,67,64
0,55,18,64
0,67,68,160
0,74,78,0
0,62,67,0
0,55,18,64
0,67,68,128
0,62,67,16
0,55,18,64
0,79,79,0
0,67,68,80
0,62,67,64
0,55,18,64
0,67,68,32
0,79,84,32
0,62,67,16
0,55,18,64
0,67,68,160
0,62,67,64
0,55,18,64
0,67,68,16
0,62,67,16
0,55,18,16
0,74,84,0
0,44,103,16
0,67,68,0
0,62,67,16
0,89,44,16
0,92,45,0
0,55,18,48
0,67,68,160
0,62,67,64
0,55,18,64
0,67,68,160
0,62,67,64
0,55,18,32
0,67,68,64
0,62,67,32
0,55,18,16
0,72,84,16
0,67,68,160
0,77,87,0
0,62,67,48
0,55,18,64
0,72,80,16
0,74,87,0
0,67,68,64
0,62,67,64
0,55,18,16
0,67,68,80
0,62,67,16
0,55,18,32
0,67,68,16
0,62,67,48
0,55,18,48
0,67,68,32
0,62,67,48
0,72,85,0
0,55,18,32
0,77,89,0
0,67,68,16
0,62,67,32
0,55,18,16
0,72,82,0
0,74,84,0
0,67,68,16
0,62,67,48
0,55,18,32
0,67,68,32
0,62,67,32
0,55,18,16
0,67,68,16
0,62,67,16
0,55,18,16
0,67,68,16
0,62,67,0
0,55,18,0
0,67,68,16
0,62,67,32
0,55,18,16
0,67,68,16
0,62,67,16
0,55,18,32
0,82,85,0
0,67,68,0
0,62,67,32
0,55,18,32
0,67,68,0
0,81,88,0
0,62,67,16
0,55,18,32
0,67,68,0
0,62,67,48
0,55,18,64
0,77,91,0
0,67,68,128
0,62,67,64
0,55,18,16
0,67,68,160
0,62,67,64
0,55,18,64
0,67,68,160
0,62,67,64
0,55,18,64
0,67,68,112
0,62,67,32
0,55,18,48
0,67,68,80
0,62,67,64
0,55,18,64
0,67,68,64
0,62,67,48
0,55,18,16
0,67,68,32
0,62,67,64
0,55,18,32
0,67,43,16
0,67,68,64
0,62,67,16
0,55,59,0
0,55,18,48
0,67,68,16
0,62,67,48
0,55,18,16
0,67,58,16
0,67,68,64
0,62,67,32
0,55,18,64
0,67,68,16
0,62,67,16
0,55,18,32
0,67,68,160
0,82,90,16
0,62,67,64
0,55,18,64
0,67,68,160
0,62,67,64
0,81,88,0
0,55,18,64
0,67,68,160
0,62,67,64
0,55,18,64
0,77,89,32
0,67,68,112
0,67,45,32
0,62,67,32
0,55,18,64
0,55,60,64
0,67,68,0
0,74,75,16
0,62,67,64
0,55,18,64
0,67,68,160
0,67,57,0
0,62,67,64
0,79,87,0
0,55,18,64
0,67,68,160
0,62,67,64
0,55,18,32
0,79,85,64
0,67,68,80
0,62,67,64
0,55,18,64
0,67,68,32
0,62,67,32
0,55,18,16
0,67,68,16
0,62,67,0
0,55,18,48
0,74,88,64
0,67,68,16
0,62,67,16
0,55,18,16
0,67,68,16
0,62,67,0
0,55,18,16
0,39,103,16
0,67,68,0
0,62,67,0
0,67,40,16
0,55,18,32
0,55,58,0
0,67,68,16
0,62,67,32
0,55,18,16
0,67,68,64
0,87,81,16
0,94,79,0
0,75,82,0
0,62,67,48
0,67,57,0
0,55,18,16
0,72,84,0
0,91,82,32
0,67,68,16
0,62,67,0
0,55,18,32
0,67,68,32
0,62,67,0
0,55,18,16
0,67,68,32
0,62,67,48
0,74,52,16
0,55,18,0
0,75,85,0
0,67,68,48
0,62,67,16
0,74,84,0
0,55,18,48
0,67,68,32
0,62,67,16
0,75,86,16
0,55,18,32
0,67,68,32
0,62,67,16
0,74,81,0
0,55,18,16
0,67,68,16
0,62,67,16
0,55,18,16
0,74,69,32
0,75,81,16
0,67,68,16
0,62,67,16
0,55,18,32
0,72,78,0
0,67,68,32
0,62,67,48
0,55,18,32
0,67,68,16
0,62,67,0
0,55,18,16
0,82,87,16
0,67,68,16
0,62,67,0
0,55,18,32
0,67,68,16
0,62,67,0
0,81,87,0
0,55,18,16
0,67,68,16
0,62,67,32
0,55,18,16
0,67,68,32
0,77,89,0
0,62,67,0
0,55,18,16
0,67,68,32
0,62,67,16
0,55,18,32
0,67,68,32
0,62,67,0
0,55,18,16
0,67,68,16
0,62,67,0
0,55,18,32
0,67,68,16
0,62,67,0
0,55,18,32
0,67,68,16
0,62,67,0
0,55,18,32
0,67,68,32
0,62,67,16
0,55,18,16
0,67,68,16
0,62,67,0
0,55,18,32
0,67,68,16
0,62,67,0
0,55,18,64
0,67,68,160
0,62,67,64
0,55,18,64
0,67,68,96
0,62,67,64
0,55,18,64
0,67,68,160
0,62,67,64
0,55,18,64
0,67,68,160
0,82,91,32
0,62,67,32
0,55,18,64
0,67,68,160
0,62,67,64
0,55,18,32
0,81,87,0
0,67,68,160
0,62,67,64
0,55,18,64
0,67,68,160
0,77,88,0
0,62,67,48
0,55,18,64
0,67,68,160
0,62,67,64
0,55,18,64
0,67,68,48
0,74,84,0
0,62,67,64
0,55,18,64
0,67,68,160
0,62,67,64
0,55,18,64
0,79,85,0
0,67,68,128
0,62,67,64
0,55,18,64
0,67,68,160
0,62,67,64
0,55,18,64
0,81,87,0
0,67,68,112
0,62,67,16
0,55,18,0
0,67,68,16
0,62,67,16
0,55,18,16
0,67,68,64
0,62,67,64
0,55,18,64
0,43,104,16
0,67,68,0
0,62,67,64
0,55,18,64
0,67,68,160
0,62,67,64
0,94,81,48
0,67,78,0
0,55,18,16
0,91,78,16
0,86,79,80
0,67,68,0
0,69,84,16
0,62,67,64
0,55,18,0
0,70,92,16
0,67,68,0
0,72,94,0
0,62,67,64
0,55,18,32
0,67,68,0
0,67,40,16
0,62,67,16
0,55,18,32
0,55,64,16
0,67,68,16
0,62,67,48
0,55,18,48
0,67,60,48
0,67,68,29
0,62,67,48
0,70,87,0
0,55,18,32
0,69,85,0
0,67,68,0
0,62,67,16
0,67,82,0
0,55,18,32
0,67,68,0
0,74,88,16
0,62,67,16
0,55,18,0
0,67,68,0
0,62,67,32
0,55,18,32
0,67,68,64
0,62,67,16
0,55,18,16
0,72,84,0
0,67,68,64
0,62,67,0
0,70,83,0
0,55,18,16
0,67,41,0
0,69,80,16
0,70,82,0
0,67,68,16
0,55,66,16
0,69,80,0
0,62,67,16
0,67,75,0
0,55,18,16
0,72,85,0
0,67,68,32
0,62,67,32
0,67,63,16
0,47,126,16
0,55,18,0
0,47,123,32
0,43,124,16
0,67,68,0
0,62,67,32
0,55,18,16
0,67,68,0
0,62,67,16
0,55,18,0
0,70,84,0
0,67,68,32
0,62,67,64
0,55,18,32
0,69,81,0
0,67,68,112
0,62,67,64
0,47,126,64
0,55,18,0
0,47,123,32
0,43,124,48
0,67,68,0
0,62,67,32
0,43,120,0
0,55,18,0
0,67,77,16
0,67,68,0
0,62,67,64
0,65,76,0
0,55,18,64
0,67,84,16
0,47,126,64
0,67,68,0
0,82,124,16
0,86,125,0
0,79,125,0
0,47,123,16
0,62,67,0
0,69,79,0
0,55,18,16
0,65,75,0
0,47,124,16
0,43,120,32
0,67,68,0
0,67,84,0
0,62,67,16
0,43,120,16
0,55,18,0
0,38,126,0
0,67,68,0
0,96,81,16
0,38,123,16
0,62,67,0
0,38,124,32
0,55,18,0
0,67,68,0
0,62,67,16
0,55,18,16
0,67,68,16
0,62,67,16
0,55,18,32
0,47,126,16
0,67,68,0
0,47,123,16
0,62,67,0
0,55,18,16
0,47,124,16
0,43,120,16
0,67,68,0
0,62,67,16
0,43,121,32
0,55,18,0
0,67,68,16
0,62,67,16
0,55,18,16
0,67,68,0
0,62,67,0
0,55,18,16
0,67,68,0
0,62,67,64
0,72,79,0
0,55,18,48
0,77,84,0
0,74,82,0
0,38,125,32
0,67,68,0
0,43,123,32
0,62,67,0
0,43,122,48
0,55,18,0
0,43,124,48
0,38,125,32
0,67,68,0
0,62,67,32
0,43,122,64
0,55,18,0
0,43,124,48
0,72,82,0
0,38,125,32
0,67,68,0
0,77,90,0
0,43,123,16
0,62,67,0
0,43,122,48
0,55,18,0
0,74,84,0
0,43,124,48
0,38,125,32
0,67,68,0
0,62,67,32
0,55,18,64
0,67,68,80
0,62,67,64
0,55,18,64
0,67,68,96
0,62,67,64
0,55,18,16
0,43,125,16
0,67,68,0
0,94,84,0
0,43,123,32
0,62,67,0
0,55,18,32
0,43,124,16
0,43,125,0
0,67,68,0
0,62,67,16
0,43,122,32
0,55,18,0
0,43,124,16
0,43,125,0
0,67,68,0
0,43,123,16
0,62,67,0
0,43,122,16
0,55,18,0
0,43,124,48
0,43,125,32
0,67,68,0
0,43,123,32
0,62,67,0
0,72,81,16
0,38,125,32
0,55,18,0
0,77,89,16
0,43,125,0
0,67,68,0
0,74,85,16
0,62,67,32
0,38,122,64
0,55,18,0
0,43,124,48
0,43,125,32
0,67,68,0
0,62,67,32
0,55,18,64
0,72,79,16
0,77,88,0
0,67,68,16
0,62,67,16
0,74,85,0
0,55,18,64
0,98,78,16
0,43,100,48
0,50,98,0
0,67,68,0
0,62,67,16
0,55,18,64
0,43,125,16
0,67,68,0
0,43,123,32
0,62,67,0
0,38,125,16
0,55,18,0
0,43,124,16
0,41,96,0
0,48,96,0
0,43,125,0
0,67,68,0
0,43,122,32
0,62,67,0
0,38,125,48
0,55,18,0
0,43,124,16
0,43,80,16
0,50,79,0
0,43,125,0
0,67,68,0
0,62,67,16
0,38,122,32
0,55,18,0
0,43,124,16
0,43,87,16
0,50,94,0
0,43,125,0
0,67,68,0
0,43,122,16
0,62,67,0
0,38,125,32
0,55,18,0
0,43,124,16
0,41,81,16
0,48,80,0
0,43,125,0
0,67,68,0
0,43,123,0
0,62,67,0
0,43,121,16
0,55,18,0
0,79,77,16
0,67,68,48
0,81,88,16
0,62,67,48
0,82,93,0
0,55,18,16
0,84,98,0
0,43,125,144
0,67,68,0
0,38,122,32
0,62,67,0
0,38,121,48
0,55,18,0
0,43,124,48
0,38,125,32
0,67,68,0
0,62,67,32
0,43,125,32
0,55,18,0
0,38,125,96
0,67,68,0
0,62,67,32
0,43,125,64
0,55,18,0
0,103,80,48
0,67,68,48
0,62,67,64
0,55,18,32
0,86,101,0
0,67,68,64
0,89,102,16
0,43,122,48
0,62,67,0
0,91,105,0
0,47,121,48
0,55,18,0
0,47,124,48
0,38,125,32
0,67,68,0
0,62,67,32
0,55,18,16
0,67,68,48
0,62,67,48
0,55,18,0
0,93,106,0
0,94,111,16
0,67,68,32
0,96,111,0
0,43,122,32
0,62,67,0
0,38,121,16
0,55,18,0
0,38,124,16
0,43,125,16
0,67,68,0
0,43,123,16
0,62,67,0
0,43,121,32
0,55,18,0
0,67,68,32
0,62,67,16
0,55,18,48
0,43,121,16
0,67,68,0
0,38,124,16
0,62,67,0
0,38,125,32
0,55,18,0
0,43,123,16
0,38,125,32
0,67,68,0
0,38,123,16
0,62,67,0
0,38,122,16
0,55,18,0
0,38,121,32
0,38,125,16
0,67,68,0
0,38,123,32
0,62,67,0
0,38,122,48
0,55,18,0
0,38,121,32
0,38,126,32
0,67,68,0
0,38,126,32
0,62,67,0
0,38,125,0
0,38,126,32
0,55,18,0
0,38,125,32
0,38,126,32
0,55,112,16
0,62,118,0
0,55,116,304
0,62,120,0
0,55,114,16
0,62,121,0
0,60,120,16
0,55,115,16
0,62,121,0
0,65,119,16
0,55,113,16
0,65,124,0
0,55,116,16
0,62,122,0
0,60,119,32
0,55,111,16
0,60,120,0
0,58,119,16
0,50,111,32
0,55,104,16
0,50,111,128
0,55,106,0
0,50,116,320
0,55,125,0
0,50,113,32
0,55,120,0
0,58,112,32
0,50,106,16
0,50,104,128
0,53,109,128
0,58,127,0
0,55,107,16
0,60,111,0
0,55,117,320
0,60,126,0
0,53,96,16
0,58,112,0
0,55,107,32
0,55,110,96
0,62,121,0
0,55,117,320
0,62,126,0
0,55,115,16
0,62,123,0
0,60,123,16
0,55,115,16
0,62,121,0
0,62,118,16
0,55,115,16
0,62,115,0
0,67,122,16
0,55,111,16
0,60,110,0
0,62,117,32
0,55,114,16
0,60,118,0
0,58,105,16
0,55,113,16
0,55,112,96
0,50,114,112
0,55,119,0
0,50,118,320
0,55,126,0
0,58,112,32
0,55,116,16
0,50,103,16
0,48,117,128
0,53,123,0
0,47,122,0
0,47,124,48
0,43,121,32
0,50,108,16
0,55,119,0
0,47,125,0
0,43,124,128
0,50,117,144
0,55,127,0
0,41,124,0
0,41,125,128
0,38,76,96
0,38,127,16
0,46,127,0
0,55,112,48
0,62,118,0
0,36,124,0
0,42,119,0
0,31,118,0
0,42,101,16
0,55,116,16
0,62,120,0
0,38,123,0
0,42,120,0
0,42,105,128
0,31,97,0
0,55,114,16
0,62,121,0
0,36,125,0
0,42,116,0
0,31,118,0
0,60,120,16
0,42,106,0
0,55,115,16
0,62,121,0
0,38,122,0
0,42,120,0
0,65,119,16
0,42,112,0
0,31,100,0
0,55,113,16
0,65,124,0
0,36,124,0
0,42,117,0
0,31,113,0
0,42,108,32
0,55,116,16
0,62,122,0
0,38,121,0
0,42,118,0
0,60,119,32
0,42,110,0
0,31,114,0
0,55,111,16
0,60,120,0
0,36,124,0
0,42,117,0
0,36,118,0
0,58,119,16
0,42,110,0
0,34,116,0
0,50,111,32
0,38,122,0
0,42,117,0
0,29,117,0
0,55,104,16
0,46,117,0
0,30,117,0
0,50,111,32
0,55,106,0
0,36,123,0
0,42,117,0
0,31,108,0
0,42,110,96
0,50,116,16
0,55,125,0
0,38,123,0
0,42,117,0
0,42,110,112
0,31,114,0
0,50,113,32
0,55,120,0
0,36,125,0
0,42,116,0
0,31,117,0
0,58,112,32
0,42,100,0
0,50,106,0
0,38,123,0
0,42,117,0
0,50,104,96
0,42,105,0
0,31,113,0
0,53,109,96
0,58,127,0
0,36,124,0
0,42,113,0
0,34,118,0
0,42,100,64
0,55,107,16
0,60,111,0
0,38,120,0
0,42,116,0
0,42,103,96
0,34,113,0
0,55,117,48
0,60,126,0
0,36,125,0
0,42,116,0
0,36,120,0
0,42,105,80
0,53,96,16
0,58,112,0
0,38,125,0
0,42,113,0
0,36,113,0
0,55,107,32
0,46,120,0
0,38,97,0
0,55,110,64
0,62,121,0
0,36,123,0
0,42,117,0
0,31,118,0
0,42,108,112
0,55,117,16
0,62,126,0
0,38,121,0
0,42,116,0
