track,note,velocity,time
0,62,84,10
0,62,84,104
0,63,91,0
0,65,91,5
0,55,82,5
0,58,82,0
0,63,82,0
0,67,87,1
0,57,82,4
0,60,82,0
0,65,82,0
0,65,88,1
0,77,83,12
0,74,83,3
0,77,83,3
0,79,83,3
0,62,88,3
0,74,83,5
0,58,82,0
0,62,82,0
0,63,82,3
0,63,93,0
0,65,91,1
0,62,82,3
0,77,84,568
0,74,84,4
0,57,82,1
0,60,82,0
0,77,84,0
0,67,90,4
0,74,84,6
0,69,93,0
0,79,85,5
0,55,82,1
0,58,82,0
0,62,82,0
0,70,90,0
0,77,83,3
0,57,82,0
0,53,82,1
0,69,92,0
0,77,83,139
0,62,89,5
0,74,83,4
0,75,83,3
0,63,96,4
0,77,84,30
0,65,94,0
0,79,84,16
0,63,82,0
0,55,82,0
0,58,82,0
0,67,92,2
0,53,82,0
0,60,82,0
0,65,86,1
0,77,83,575
0,77,83,32
0,77,84,9
0,57,82,8
0,74,83,7
0,67,92,4
0,77,83,0
0,69,91,1
0,79,84,5
0,55,82,0
0,58,82,0
0,62,82,0
0,70,91,1
0,77,84,8
0,69,85,0
0,53,82,5
0,57,82,0
0,77,82,5
0,62,84,3
0,77,83,4
0,62,93,0
0,74,83,3
0,63,92,1
0,77,83,31
0,65,95,0
0,79,83,5
0,58,82,0
0,63,82,0
0,55,82,1
0,67,92,0
0,60,82,763
0,58,82,37
0,65,82,0
0,65,85,0
0,72,83,565
0,72,83,4
0,57,82,0
0,60,87,0
0,74,83,8
0,62,92,0
0,75,83,0
0,63,90,0
0,74,83,0
0,55,82,1
0,58,82,0
0,62,82,0
0,43,70,0
0,55,70,0
0,62,90,0
0,72,83,16
0,60,91,0
0,58,89,0
0,70,83,3
0,39,70,1
0,51,69,0
0,63,82,0
0,75,83,5
0,63,85,0
0,74,82,5
0,62,88,0
0,72,83,4
0,60,82,0
0,41,66,1
0,53,65,0
0,53,82,0
0,60,90,1
0,57,82,83
0,70,82,191
0,69,81,4
0,58,88,0
0,70,82,5
0,62,82,0
0,55,82,1
0,58,82,0
0,43,64,0
0,55,69,0
0,70,84,5
0,57,87,0
0,69,81,33
0,67,83,3
0,63,82,0
0,55,90,1
0,65,80,0
0,67,81,24
0,60,82,573
0,58,82,24
0,62,82,34
0,70,83,164
0,69,80,108
0,67,79,27
0,65,77,17
0,67,80,32
0,63,82,0
0,70,85,7
0,74,81,3
0,72,79,11
0,60,82,102
0,70,81,5
0,62,82,0
0,69,77,4
0,65,80,4
0,67,76,5
0,58,82,0
0,77,83,383
0,74,83,1
0,75,82,0
0,42,63,96
0,41,66,3
0,77,82,27
0,46,127,1
0,27,96,0
0,67,90,1
0,36,95,0
0,42,89,0
0,79,82,3
0,39,70,0
0,55,82,0
0,58,82,0
0,63,82,0
0,42,65,45
0,37,114,137
0,42,88,0
0,79,82,13
0,42,73,0
0,29,91,0
0,36,74,1
0,42,79,0
0,65,86,1
0,77,83,5
0,57,82,0
0,60,82,0
0,65,82,0
0,41,71,1
0,42,66,79
0,37,114,140
0,42,86,0
0,29,86,20
0,42,57,0
0,29,94,92
0,42,74,0
0,36,82,1
0,42,65,100
0,37,114,148
0,42,71,0
0,36,90,0
0,62,86,0
0,42,57,1
0,77,83,3
0,41,89,7
0,36,79,0
0,42,72,0
0,77,83,3
0,42,63,73
0,75,83,16
0,65,92,4
0,29,83,5
0,42,74,0
0,37,114,1
0,74,82,8
0,46,127,0
0,34,89,21
0,62,91,0
0,42,71,0
0,36,75,1
0,74,82,3
0,62,82,0
0,53,82,1
0,58,82,0
0,46,71,1
0,42,61,80
0,37,114,144
0,42,82,0
0,34,92,72
0,42,63,0
0,63,82,36
0,42,78,0
0,36,77,1
0,63,95,4
0,42,59,93
0,29,94,3
0,37,114,1
0,42,77,0
0,42,61,64
0,34,94,3
0,62,82,0
0,65,90,1
0,42,74,0
0,36,79,1
0,42,64,101
0,37,114,120
0,42,78,0
0,42,64,123
0,74,82,5
0,74,83,9
0,33,95,0
0,42,72,1
0,36,79,1
0,45,73,6
0,57,82,0
0,60,82,0
0,42,68,84
0,67,95,0
0,77,83,5
0,29,85,8
0,42,78,0
0,37,114,1
0,74,83,6
0,69,95,0
0,46,127,0
0,31,89,0
0,42,70,0
0,36,72,1
0,79,84,3
0,62,82,0
0,55,82,1
0,58,82,0
0,70,90,0
0,43,72,6
0,42,66,85
0,37,114,139
0,42,78,0
0,31,89,49
0,42,66,0
0,77,83,12
0,38,88,0
0,53,82,1
0,36,75,0
0,42,77,0
0,69,88,2
0,41,71,3
0,57,82,0
0,42,65,101
0,37,114,143
0,42,79,0
0,33,87,21
0,42,68,0
0,26,89,4
0,42,74,0
0,36,82,1
0,26,89,100
0,42,66,0
0,37,114,132
0,42,79,0
0,74,81,4
0,42,66,1
0,62,86,2
0,33,87,0
0,74,82,4
0,74,83,4
0,38,87,0
0,50,70,1
0,42,74,0
0,36,79,1
0,62,90,2
0,38,87,84
0,42,65,0
0,75,83,8
0,63,89,0
0,37,114,92
0,42,77,0
0,46,127,0
0,77,83,4
0,65,89,1
0,27,98,4
0,36,79,0
0,42,72,0
0,67,87,3
0,79,83,4
0,55,82,1
0,58,82,0
0,63,82,0
0,51,72,1
0,42,64,96
0,37,114,116
0,42,78,0
0,34,86,40
0,42,64,0
0,39,90,16
0,42,74,0
0,36,82,1
0,42,67,112
0,27,94,4
0,37,114,1
0,42,79,0
0,42,66,59
0,29,88,4
0,36,84,1
0,42,80,0
0,77,81,1
0,53,71,1
0,60,82,0
0,65,82,0
0,46,67,1
0,65,90,0
0,34,89,8
0,42,63,0
0,36,89,5
0,41,92,0
0,42,81,0
0,37,114,1
0,42,61,84
0,74,83,20
0,36,87,0
0,42,63,0
0,45,67,8
0,57,82,0
0,36,87,24
0,42,70,0
0,75,83,44
0,29,87,0
0,37,114,1
0,42,77,0
0,67,92,4
0,36,67,4
0,46,127,0
0,77,83,5
0,69,95,1
0,31,93,0
0,36,87,1
0,42,74,0
0,70,90,2
0,79,84,5
0,55,82,0
0,58,82,0
0,62,82,0
0,43,72,1
0,42,62,51
0,37,114,141
0,42,81,0
0,77,82,36
0,31,85,0
0,42,65,1
0,38,87,4
0,69,88,0
0,36,77,0
0,42,72,0
0,77,83,4
0,41,73,1
0,53,82,0
0,57,82,0
0,42,65,113
0,37,114,144
0,42,79,0
0,33,87,20
0,42,66,0
0,26,87,4
0,36,75,0
0,42,68,0
0,26,88,105
0,42,63,0
0,37,114,49
0,42,76,0
0,74,83,68
0,42,65,0
0,33,87,0
0,38,85,12
0,62,89,0
0,36,87,1
0,42,73,0
0,74,83,3
0,50,73,0
0,38,87,80
0,42,74,1
0,75,83,0
0,63,96,4
0,37,114,92
0,42,75,0
0,26,84,0
0,65,93,0
0,46,127,0
0,77,83,3
0,27,96,8
0,67,89,0
0,42,68,0
0,36,87,1
0,79,84,2
0,58,82,0
0,63,82,0
0,51,72,1
0,55,82,0
0,42,65,104
0,37,114,136
0,42,81,0
0,27,92,61
0,42,64,1
0,36,90,0
0,60,82,0
0,36,95,1
0,42,76,0
0,42,65,108
0,37,114,136
0,42,71,0
0,36,83,28
0,42,64,0
0,29,88,0
0,58,82,0
0,65,82,0
0,42,74,0
0,36,84,1
0,65,86,2
0,46,68,4
0,53,69,0
0,42,64,108
0,37,114,144
0,42,74,0
0,34,87,9
0,42,61,0
0,72,83,3
0,36,85,3
0,41,87,3
0,60,90,1
0,36,87,0
0,42,70,0
0,72,84,3
0,57,82,0
0,45,66,1
0,29,88,4
0,42,68,0
0,74,84,4
0,62,92,0
0,37,114,93
0,42,75,0
0,29,87,8
0,63,91,0
0,36,68,1
0,46,127,0
0,75,84,3
0,74,83,5
0,31,87,0
0,55,82,0
0,42,65,0
0,36,87,1
0,62,90,2
0,62,82,8
0,43,73,1
0,43,71,0
0,58,82,0
0,42,67,47
0,42,76,144
0,37,114,1
0,29,88,9
0,42,68,0
0,72,83,4
0,60,94,0
0,27,91,0
0,36,87,1
0,42,75,0
0,70,83,2
0,63,82,1
0,39,73,1
0,58,82,0
0,58,90,0
0,75,83,4
0,63,92,0
0,42,68,91
0,37,114,153
0,42,75,0
0,74,84,16
0,27,85,0
0,62,89,0
0,42,70,1
0,29,88,0
0,36,95,1
0,42,74,0
0,72,83,3
0,60,82,0
0,65,82,0
0,41,70,1
0,60,90,3
0,42,70,97
0,37,114,136
0,42,80,0
0,34,88,25
0,42,65,0
0,36,88,3
0,41,92,5
0,36,91,0
0,42,72,0
0,57,82,4
0,29,90,4
0,46,127,0
0,42,61,2
0,37,114,1
0,58,90,6
0,30,87,29
0,36,67,0
0,46,127,0
0,74,83,4
0,31,89,9
0,57,84,0
0,42,75,0
0,36,95,1
0,79,81,7
0,43,72,1
0,55,82,0
0,58,82,0
0,62,82,0
0,42,60,0
0,58,90,4
0,37,114,140
0,42,81,0
0,31,87,0
0,42,62,1
0,77,75,3
0,57,89,0
0,29,87,4
0,27,92,0
0,55,90,0
0,42,70,1
0,36,95,1
0,74,76,2
0,39,74,0
0,63,82,0
0,72,73,12
0,70,76,0
0,42,62,0
0,67,78,0
0,37,114,96
0,42,74,0
0,27,88,24
0,46,127,0
0,36,89,1
0,48,72,0
0,60,82,0
0,36,91,2
0,42,69,0
0,65,73,4
0,42,64,0
0,70,76,8
0,69,73,0
0,42,77,0
0,37,114,1
0,36,83,5
0,42,70,1
0,65,76,3
0,27,91,8
0,36,91,0
0,42,72,0
0,39,74,4
0,58,82,0
0,42,62,1
0,67,73,3
0,37,114,148
0,42,72,0
0,69,78,24
0,27,87,0
0,42,62,1
0,31,88,0
0,36,95,0
0,42,82,0
0,70,77,8
0,43,72,0
0,62,82,0
0,42,66,76
0,37,114,135
0,42,74,0
0,69,78,7
0,29,89,0
0,42,65,1
0,67,76,3
0,65,73,4
0,27,93,5
0,36,84,1
0,42,72,0
0,67,73,4
0,39,73,0
0,63,82,0
0,42,65,96
0,37,114,144
0,42,72,0
0,70,77,28
0,26,86,1
0,42,66,0
0,74,75,3
0,24,88,3
0,36,65,1
0,42,71,0
0,72,73,3
0,48,72,3
0,60,82,0
0,42,76,313
0,26,86,0
0,50,72,3
0,62,82,0
0,31,85,5
0,58,82,3
0,46,76,39
0,43,72,9
0,74,83,188
0,70,83,22
0,72,82,4
0,41,70,1
0,53,82,0
0,57,82,0
0,60,82,0
0,42,68,0
0,74,82,4
0,42,65,64
0,29,89,0
0,46,127,0
0,72,82,4
0,30,90,0
0,70,83,4
0,31,90,0
0,36,79,1
0,42,82,0
0,74,83,7
0,43,69,0
0,55,82,0
0,58,82,0
0,62,82,0
0,42,54,56
0,37,114,152
0,42,79,0
0,31,88,44
0,42,56,1
0,34,91,4
0,36,87,1
0,42,78,0
0,42,57,61
0,38,87,4
0,37,114,0
0,42,74,0
0,42,59,28
0,29,88,0
0,36,84,0
0,42,70,0
0,60,82,8
0,65,82,0
0,41,68,1
0,57,82,0
0,74,83,56
0,42,64,1
0,37,114,145
0,42,76,0
0,72,83,9
0,29,88,0
0,42,55,0
0,42,66,45
0,34,91,0
0,36,87,0
0,42,80,0
0,74,83,4
0,58,82,0
0,62,82,0
0,46,70,1
0,77,84,40
0,42,63,1
0,38,87,1
0,37,114,0
0,42,87,0
0,74,82,2
0,46,127,3
0,72,83,4
0,39,90,5
0,36,82,0
0,42,82,0
0,70,83,7
0,63,82,0
0,55,82,1
0,58,82,0
0,51,71,1
0,42,68,53
0,37,114,153
0,42,83,0
0,42,64,48
0,34,87,29
0,27,88,12
0,36,87,1
0,42,75,0
0,27,91,87
0,42,61,0
0,42,86,151
0,37,114,1
0,27,90,104
0,42,63,0
0,29,89,3
0,42,74,0
0,36,87,1
0,60,82,0
0,65,82,0
0,53,69,1
0,74,83,71
0,42,52,1
0,37,114,157
0,42,82,0
0,74,83,32
0,34,91,0
0,42,65,2
0,36,88,4
0,42,64,0
0,41,88,0
0,42,85,0
0,36,95,1
0,72,83,2
0,57,82,3
0,41,71,1
0,29,90,8
0,42,64,0
0,70,83,4
0,72,83,40
0,42,85,0
0,37,114,1
0,30,90,4
0,36,65,1
0,46,127,0
0,70,83,3
0,42,74,0
0,31,87,4
0,36,95,1
0,42,73,0
0,74,84,4
0,62,82,0
0,62,82,0
0,70,83,0
0,55,82,1
0,55,82,0
0,58,82,0
0,43,72,1
0,42,66,31
0,37,114,140
0,42,86,0
0,42,63,12
0,34,91,132
0,36,95,1
0,42,80,0
0,42,60,60
0,38,87,0
0,37,114,1
0,42,81,0
0,42,61,59
0,42,62,12
0,29,89,12
0,53,82,0
0,36,91,1
0,42,74,0
0,53,83,0
0,57,82,0
0,60,84,0
0,60,82,0
0,69,85,0
0,42,68,108
0,42,81,144
0,37,114,1
0,29,88,60
0,42,62,1
0,72,83,3
0,74,82,0
0,34,91,0
0,36,91,1
0,42,74,0
0,77,82,0
0,58,82,0
0,62,84,0
0,62,82,0
0,70,84,0
0,46,74,1
0,42,57,76
0,77,84,4
0,37,114,139
0,42,81,0
0,34,91,1
0,46,127,0
0,74,84,3
0,39,91,8
0,42,74,0
0,36,82,1
0,75,83,8
0,51,74,0
0,55,77,0
0,55,82,0
0,63,84,0
0,63,82,0
0,42,58,113
0,37,114,145
0,42,74,0
0,42,58,56
0,82,87,4
0,70,86,1
0,34,90,24
0,75,85,0
0,87,88,0
0,42,68,0
0,36,95,1
0,74,83,9
0,86,84,0
0,42,64,1
0,37,114,3
0,42,76,0
0,84,84,5
0,72,86,1
0,34,88,7
0,42,66,1
0,82,87,4
0,70,85,1
0,39,90,8
0,36,91,2
0,42,62,0
0,63,76,7
0,70,75,0
0,75,84,0
0,79,82,0
0,67,83,1
0,51,74,0
0,39,74,0
0,42,65,51
0,37,114,151
0,42,74,0
0,42,61,48
0,34,92,24
0,42,59,0
0,27,98,15
0,36,87,1
0,42,70,0
0,27,96,91
0,42,65,1
0,42,80,137
0,37,114,1
0,29,92,0
0,36,65,1
0,46,127,0
0,31,92,12
0,36,91,1
0,42,81,0
0,62,82,3
0,74,77,0
0,43,73,1
0,42,67,48
0,37,114,144
0,42,85,0
0,67,80,3
0,70,75,5
0,74,73,5
0,29,90,0
0,42,68,0
0,42,68,0
0,77,75,6
0,27,96,4
0,42,79,0
0,36,91,1
0,63,82,3
0,75,82,0
0,39,71,0
0,42,63,79
0,37,114,153
0,42,83,0
0,77,75,61
0,42,70,0
0,75,73,0
0,75,73,16
0,36,89,0
0,60,82,0
0,36,87,0
0,42,79,0
0,48,72,9
0,72,82,0
0,42,66,77
0,37,114,149
0,42,83,0
0,36,87,51
0,46,127,1
0,39,90,0
0,42,78,1
0,36,87,1
0,51,72,3
0,58,82,0
0,70,82,0
0,42,74,101
0,27,91,24
0,37,114,0
0,42,81,0
0,46,127,64
0,31,94,25
0,36,91,0
0,42,74,0
0,79,78,3
0,43,69,1
0,62,82,0
0,74,82,0
0,42,63,92
0,37,114,152
0,42,87,0
0,77,81,41
0,29,89,0
0,42,60,0
0,42,61,0
0,74,73,4
0,77,76,9
0,27,91,0
0,63,82,1
0,36,84,0
0,42,80,0
0,75,80,0
0,39,71,0
0,43,69,0
0,79,73,0
0,42,73,85
0,37,114,160
0,42,82,0
0,34,91,12
0,42,57,1
0,79,76,4
0,81,76,12
0,36,90,0
0,36,91,0
0,42,73,0
0,79,77,8
0,60,82,1
0,72,82,0
0,48,70,0
0,42,55,21
0,37,114,152
0,42,80,0
0,36,87,0
0,42,59,1
0,77,78,3
0,77,77,65
0,36,95,0
0,42,74,0
0,75,74,5
0,34,88,3
0,42,63,1
0,33,89,1
0,37,114,0
0,42,85,0
0,74,77,3
0,72,74,9
0,29,88,0
0,46,127,1
0,31,89,0
0,36,87,0
0,42,79,0
0,74,78,8
0,62,82,0
0,70,78,0
0,74,81,0
0,43,70,2
0,58,82,0
0,77,73,7
0,42,68,5
0,74,74,4
0,37,114,160
0,42,83,0
0,72,73,0
