track,note,velocity,time
3,59,100,180
3,59,0,60
3,59,100,0
3,59,0,60
3,63,100,0
3,63,0,60
3,66,100,0
3,66,0,60
3,68,100,0
3,68,0,240
3,66,100,0
3,66,0,180
3,61,100,300
3,61,0,30
3,61,100,0
3,61,0,30
3,61,100,0
3,61,0,60
3,63,100,0
3,63,0,120
3,66,100,0
3,66,0,60
3,63,100,0
3,63,0,120
3,66,100,540
3,66,0,30
3,66,100,0
3,66,0,30
3,66,100,0
3,66,0,60
3,66,100,0
3,66,0,60
3,66,100,0
3,66,0,60
3,68,100,0
3,68,0,240
3,63,100,0
3,63,0,180
3,63,100,300
3,63,0,60
3,63,100,0
3,63,0,60
3,64,100,0
3,64,0,120
3,66,100,0
3,66,0,60
3,68,100,0
3,68,0,120
3,66,100,540
3,66,0,60
3,66,100,0
3,66,0,60
3,66,100,0
3,66,0,60
3,66,100,0
3,66,0,60
3,68,100,0
3,68,0,240
3,66,100,0
3,66,0,180
3,66,100,300
3,66,0,60
3,66,100,0
3,66,0,60
3,63,100,0
3,63,0,60
3,66,100,0
3,66,0,60
3,63,100,0
3,63,0,60
3,68,100,0
3,68,0,120
3,61,100,480
3,61,0,30
3,61,100,0
3,61,0,30
3,61,100,0
3,63,100,120
3,61,0,60
3,63,0,30
3,66,100,30
3,66,0,60
3,63,100,0
3,63,0,90
3,63,100,0
3,63,0,90
3,59,100,0
3,59,0,60
3,56,100,0
3,56,0,30
3,64,100,30
3,63,100,120
3,63,0,30
3,61,100,0
3,64,0,30
3,61,0,90
3,59,100,2910
3,59,0,60
3,59,100,0
3,59,0,60
3,59,100,0
3,59,0,60
3,63,100,0
3,63,0,120
3,66,100,0
3,66,0,60
3,68,100,0
3,68,0,180
3,66,100,0
3,66,0,180
3,61,100,300
3,61,0,60
3,61,100,0
3,61,0,60
3,63,100,0
3,63,0,60
3,66,100,0
3,66,0,60
3,66,100,0
3,66,0,60
3,63,100,0
3,63,0,120
3,66,100,540
3,66,0,60
3,66,100,0
3,66,0,60
3,66,100,0
3,66,0,60
3,66,100,0
3,66,0,60
3,68,100,0
3,68,0,180
3,63,100,0
3,63,0,60
3,63,100,0
3,63,0,180
3,63,100,300
3,63,0,30
3,63,100,0
3,63,0,30
3,63,100,0
3,63,0,60
3,64,100,0
3,64,0,120
3,66,100,0
3,66,0,60
3,68,100,0
3,68,0,120
3,66,100,540
3,66,0,60
3,66,100,0
3,66,0,60
3,68,100,0
3,68,0,60
3,70,100,0
3,70,0,60
3,71,100,0
3,71,0,60
3,68,100,0
3,68,0,120
3,63,100,0
3,63,0,60
3,70,100,0
3,70,0,180
3,63,100,300
3,63,0,30
3,63,100,0
3,63,0,30
3,63,100,0
3,63,0,60
3,66,100,0
3,66,0,120
3,66,100,0
3,66,0,60
3,68,100,0
3,68,0,120
3,61,100,540
3,61,0,60
3,61,100,0
3,61,0,60
3,63,100,0
3,63,0,120
3,66,100,0
3,66,0,60
3,63,100,0
3,63,0,60
3,61,100,0
3,61,0,60
3,59,100,60
3,59,0,60
3,56,100,0
3,56,0,30
3,64,100,30
3,63,100,120
3,63,0,30
3,61,100,0
3,64,0,30
3,61,0,120
3,75,100,300
3,75,0,60
3,80,100,0
3,80,0,120
3,78,100,30
3,75,100,30
3,78,0,30
3,71,100,0
3,75,0,30
3,70,100,0
3,70,0,30
3,71,0,0
3,68,100,0
3,68,0,30
3,68,100,0
3,68,0,180
3,70,100,420
3,70,0,60
3,73,100,150
3,71,100,30
3,73,0,30
3,70,100,0
3,71,0,30
3,70,100,0
3,70,0,30
3,70,0,0
3,68,100,0
3,68,0,30
3,68,100,0
3,68,0,120
3,71,100,0
3,71,0,60
3,73,100,0
3,73,0,360
3,61,100,660
3,61,0,120
3,59,100,0
3,59,0,60
3,61,100,0
3,61,0,60
3,63,100,0
3,63,0,60
3,59,100,0
3,59,0,60
3,61,100,0
3,61,0,60
3,63,100,0
3,63,0,240
3,63,100,420
3,63,0,60
3,66,100,0
3,66,0,30
3,66,100,0
3,66,0,90
3,63,100,0
3,63,0,60
3,61,100,0
3,61,0,60
3,59,100,0
3,59,0,120
3,54,100,540
3,54,0,60
3,61,100,0
3,61,0,60
3,63,100,0
3,63,0,60
3,59,100,0
3,59,0,60
3,61,100,0
3,61,0,60
3,63,100,0
3,63,0,120
3,63,100,540
3,63,0,30
3,63,100,0
3,63,0,30
3,66,100,0
3,66,0,30
3,66,100,0
3,66,0,90
3,66,100,0
3,66,0,30
3,68,100,0
3,68,0,90
3,59,100,0
3,59,0,120
3,68,100,960
3,68,0,30
3,71,100,0
3,71,0,30
3,75,100,0
3,75,0,30
3,78,100,0
3,78,0,90
3,80,100,0
3,80,0,120
3,78,100,0
3,78,0,30
3,76,100,0
3,76,0,390
3,80,100,120
3,80,0,60
3,78,100,0
3,78,0,60
3,75,100,0
3,75,0,30
3,71,100,0
3,71,0,30
3,75,100,0
3,75,0,30
3,78,100,0
3,78,0,90
3,80,100,0
3,80,0,60
3,80,100,0
3,80,0,60
3,80,100,0
3,80,0,30
3,82,100,0
3,82,0,30
3,80,100,0
3,80,0,180
3,78,100,0
3,78,0,30
3,76,100,0
3,76,0,120
3,75,100,0
3,75,0,30
3,78,100,0
3,78,0,30
3,75,100,0
3,75,0,30
3,78,100,0
3,78,0,30
3,75,100,0
3,75,0,30
3,80,100,0
3,80,0,120
3,78,100,30
3,75,100,30
3,78,0,30
3,71,100,0
3,75,0,30
3,70,100,0
3,70,0,30
3,71,0,0
3,68,100,0
3,68,0,30
3,66,100,0
3,66,0,30
3,68,100,0
3,68,0,120
3,73,100,30
3,73,0,240
3,59,100,840
3,59,0,60
3,59,100,0
3,59,0,60
3,59,100,0
3,59,0,60
3,63,100,0
3,63,0,60
3,66,100,0
3,66,0,60
3,68,100,0
3,68,0,240
3,61,100,0
3,61,0,60
3,61,100,0
3,61,0,60
3,63,100,0
3,63,0,60
3,66,100,0
3,66,0,60
3,66,100,0
3,66,0,60
3,63,100,0
3,63,0,120
3,66,100,540
3,66,0,60
3,66,100,0
3,66,0,60
3,66,100,0
3,66,0,60
3,66,100,0
3,66,0,60
3,68,100,0
3,68,0,180
3,63,100,0
3,63,0,60
3,63,100,0
3,63,0,180
3,63,100,300
3,63,0,30
3,63,100,0
3,63,0,30
3,63,100,0
3,63,0,60
3,64,100,0
3,64,0,120
3,66,100,0
3,66,0,60
3,68,100,0
3,68,0,120
3,66,100,540
3,66,0,60
3,66,100,0
3,66,0,60
3,68,100,0
3,68,0,60
3,70,100,0
3,70,0,60
3,71,100,0
3,71,0,60
3,68,100,0
3,68,0,120
3,63,100,0
3,63,0,60
3,70,100,0
3,70,0,180
3,63,100,300
3,63,0,30
3,63,100,0
3,63,0,30
3,63,100,0
3,63,0,60
3,66,100,0
3,66,0,120
3,66,100,0
3,66,0,60
3,68,100,0
3,68,0,120
3,61,100,540
3,61,0,60
3,61,100,0
3,61,0,60
3,63,100,0
3,63,0,120
3,66,100,0
3,66,0,60
3,63,100,0
3,63,0,60
3,61,100,0
3,61,0,60
3,59,100,60
3,59,0,60
3,56,100,0
3,56,0,30
3,64,100,30
3,63,100,120
3,63,0,30
3,61,100,0
3,64,0,30
3,61,0,120
3,80,100,360
3,80,0,120
3,78,100,30
3,75,100,30
3,78,0,30
3,71,100,0
3,75,0,30
3,70,100,0
3,70,0,30
3,71,0,0
3,68,100,0
3,68,0,30
3,66,100,0
3,66,0,30
3,68,100,0
3,68,0,510
3,75,100,150
3,75,0,30
3,80,100,0
3,80,0,30
3,78,100,0
3,78,0,30
3,80,100,0
3,80,0,60
3,80,100,0
3,80,0,30
3,82,100,0
3,82,0,30
3,80,100,0
3,80,0,30
3,78,100,0
3,78,0,30
3,80,100,0
3,80,0,30
3,78,100,0
3,78,0,90
3,80,100,0
3,80,0,30
3,78,100,0
3,78,0,30
3,76,100,0
3,76,0,30
3,75,100,0
3,75,0,30
3,73,100,0
3,73,0,30
3,73,100,0
3,73,0,60
3,71,100,0
3,71,0,30
3,73,100,0
3,73,0,60
3,75,100,180
3,71,100,0
3,66,100,0
3,66,0,60
3,71,0,0
3,75,0,0
3,66,100,0
3,75,100,0
3,71,100,0
3,71,0,60
3,75,0,0
3,66,0,0
3,73,100,0
3,73,0,60
3,71,100,0
3,71,0,30
3,66,100,0
3,66,0,30
3,66,100,0
3,66,0,60
3,71,100,0
3,71,0,30
3,64,100,0
3,64,0,30
3,71,100,0
3,71,0,180
3,75,100,180
3,75,0,60
3,71,100,0
3,71,0,120
3,73,100,0
3,73,0,120
3,76,100,0
3,76,0,30
3,75,100,0
3,75,0,30
3,73,100,0
3,73,0,60
3,80,100,180
3,80,0,60
3,80,100,0
3,80,0,30
3,83,100,0
3,83,0,30
3,80,100,0
3,80,0,30
3,73,100,0
3,73,0,30
3,64,100,60
3,73,100,0
3,73,0,60
3,64,0,0
3,64,100,0
3,73,100,0
3,73,0,60
3,64,0,0
3,75,100,0
3,75,0,30
3,73,100,0
3,73,0,30
3,71,100,0
3,71,0,30
3,68,100,0
3,68,0,30
3,68,100,0
3,68,0,30
3,71,100,0
3,71,0,90
3,80,100,60
3,80,0,120
3,78,100,30
3,75,100,30
3,78,0,30
3,71,100,0
3,75,0,30
3,70,100,0
3,70,0,30
3,71,0,0
3,68,100,0
3,68,0,30
3,66,100,0
3,66,0,30
3,68,100,0
3,68,0,510
3,75,100,150
3,75,0,30
3,80,100,0
3,80,0,30
3,78,100,0
3,78,0,30
3,80,100,0
3,80,0,60
3,80,100,0
3,80,0,30
3,82,100,0
3,82,0,30
3,80,100,0
3,80,0,30
3,78,100,0
3,78,0,30
3,80,100,0
3,80,0,30
3,78,100,0
3,78,0,90
3,80,100,0
3,80,0,30
3,78,100,0
3,78,0,30
3,76,100,0
3,76,0,30
3,75,100,0
3,75,0,30
3,73,100,0
3,73,0,30
3,73,100,0
3,73,0,60
3,71,100,0
3,71,0,30
3,73,100,0
3,73,0,60
3,75,100,180
3,71,100,0
3,66,100,0
3,66,0,60
3,71,0,0
3,75,0,0
3,66,100,0
3,75,100,0
3,71,100,0
3,71,0,60
3,75,0,0
3,66,0,0
3,73,100,0
3,73,0,60
3,71,100,0
3,71,0,30
3,66,100,0
3,66,0,30
3,66,100,0
3,66,0,60
3,71,100,0
3,71,0,30
3,64,100,0
3,64,0,30
3,71,100,0
3,71,0,180
3,75,100,180
3,75,0,60
3,71,100,0
3,71,0,120
3,73,100,0
3,73,0,120
3,76,100,0
3,76,0,10
3,75,100,0
3,75,0,11
3,73,100,0
3,73,0,1
3,80,100,26
3,80,0,10
3,80,100,0
3,80,0,21
3,83,100,0
3,83,0,24
3,80,100,0
3,80,0,11
3,73,100,0
3,73,0,15
3,64,100,26
3,73,100,0
3,73,0,25
3,64,0,0
3,64,100,0
3,73,100,0
3,73,0,22
3,64,0,0
3,75,100,0
3,75,0,1
3,73,100,0
3,73,0,12
3,71,100,0
3,71,0,7
3,68,100,0
3,68,0,30
3,68,100,0
3,68,0,5
3,71,100,0
3,71,0,46
4,59,100,180
4,59,0,60
4,59,100,0
4,59,0,60
4,63,100,0
4,63,0,120
4,66,100,0
4,66,0,60
4,68,100,0
4,68,0,240
4,66,100,0
4,66,0,420
4,61,100,0
4,61,0,60
4,61,100,0
4,61,0,60
4,63,100,0
4,63,0,120
4,66,100,0
4,66,0,60
4,63,100,0
4,64,100,240
4,64,0,240
4,66,100,0
4,66,0,180
4,66,100,0
4,66,0,60
4,66,100,0
4,66,0,60
4,68,100,0
4,68,0,120
4,70,100,0
4,70,0,60
4,63,0,0
4,71,100,0
4,71,0,240
4,70,100,0
4,70,0,420
4,63,100,0
4,63,0,60
4,63,100,0
4,63,0,60
4,64,100,0
4,64,0,120
4,66,100,0
4,66,0,60
4,68,100,0
4,68,0,480
4,66,100,0
4,59,100,0
4,61,100,0
4,66,0,180
4,66,100,0
4,66,0,60
4,61,0,0
4,59,0,0
4,66,100,0
4,58,100,0
4,61,100,0
4,66,0,60
4,68,100,0
4,68,0,120
4,70,100,0
4,70,0,60
4,61,0,0
4,58,0,0
4,71,100,0
4,71,0,240
4,70,100,0
4,70,0,420
4,63,100,0
4,63,0,60
4,63,100,0
4,63,0,60
4,64,100,0
4,64,0,120
4,66,100,0
4,66,0,60
4,59,100,0
4,68,100,0
4,64,100,0
4,64,0,480
4,68,0,0
4,59,0,0
4,66,100,0
4,61,100,0
4,59,100,0
4,59,0,180
4,61,0,0
4,66,0,0
4,61,100,0
4,61,0,60
4,61,100,0
4,61,0,90
4,63,100,0
4,63,0,90
4,66,100,0
4,66,0,60
4,59,100,0
4,63,100,0
4,63,0,90
4,61,100,0
4,61,0,90
4,59,0,0
4,59,100,0
4,59,0,60
4,56,100,0
4,64,100,60
4,64,0,90
4,63,100,30
4,63,0,60
4,56,0,0
4,61,100,0
4,66,100,0
4,59,100,0
4,59,0,240
4,58,100,0
4,58,0,240
4,66,0,0
4,61,0,0
4,56,100,0
4,59,100,0
4,63,100,0
4,68,100,0
4,63,0,240
4,56,0,0
4,59,0,0
4,56,100,0
4,59,100,0
4,64,100,0
4,64,0,240
4,68,0,0
4,56,0,0
4,59,0,0
4,56,100,0
4,61,100,0
4,64,100,0
4,68,100,0
4,64,0,240
4,56,0,0
4,61,0,0
4,56,100,0
4,59,100,0
4,64,100,0
4,64,0,240
4,68,0,0
4,56,0,0
4,59,0,0
4,56,100,0
4,59,100,0
4,63,100,0
4,68,100,0
4,63,0,240
4,56,0,0
4,59,0,0
4,56,100,0
4,59,100,0
4,64,100,0
4,64,0,240
4,68,0,0
4,56,0,0
4,59,0,0
4,56,100,0
4,61,100,0
4,64,100,0
4,68,100,0
4,68,0,480
4,56,0,0
4,61,0,0
4,64,0,0
4,58,100,0
4,63,100,0
4,68,100,0
4,58,0,240
4,58,100,0
4,58,0,240
4,59,100,0
4,59,0,240
4,68,0,0
4,68,100,0
4,58,100,0
4,58,0,240
4,68,0,0
4,63,0,0
4,54,100,0
4,59,100,0
4,64,100,0
4,64,0,240
4,59,0,0
4,54,0,0
4,58,100,0
4,61,100,0
4,66,100,0
4,66,0,420
4,61,0,0
4,58,0,0
4,61,100,0
4,61,0,60
4,61,100,0
4,61,0,60
4,63,100,0
4,63,0,120
4,66,100,0
4,66,0,60
4,59,100,0
4,63,100,0
4,63,0,240
4,59,0,0
4,59,100,0
4,64,100,0
4,64,0,240
4,59,0,0
4,66,100,0
4,59,100,0
4,63,100,0
4,66,0,180
4,66,100,0
4,66,0,60
4,63,0,0
4,59,0,0
4,66,100,0
4,58,100,0
4,63,100,0
4,66,0,60
4,68,100,0
4,68,0,120
4,70,100,0
4,70,0,60
4,63,0,0
4,58,0,0
4,63,100,0
4,68,100,0
4,71,100,0
4,71,0,240
4,68,0,0
4,63,0,0
4,63,100,0
4,66,100,0
4,70,100,0
4,63,0,420
4,63,100,0
4,63,0,60
4,63,100,0
4,63,0,60
4,64,100,0
4,64,0,120
4,66,100,0
4,66,0,60
4,70,0,0
4,66,0,0
4,59,100,0
4,64,100,0
4,68,100,0
4,64,100,240
4,64,0,240
4,59,0,0
4,64,0,0
4,68,0,0
4,66,100,0
4,59,100,0
4,61,100,0
4,66,0,180
4,66,100,0
4,66,0,60
4,61,0,0
4,59,0,0
4,66,100,0
4,58,100,0
4,61,100,0
4,66,0,60
4,68,100,0
4,68,0,120
4,70,100,0
4,70,0,60
4,61,0,0
4,58,0,0
4,71,100,0
4,68,100,0
4,63,100,0
4,63,0,240
4,68,0,0
4,71,0,0
4,63,100,0
4,66,100,0
4,70,100,0
4,63,0,420
4,63,100,0
4,63,0,60
4,63,100,0
4,63,0,60
4,64,100,0
4,64,0,120
4,66,100,0
4,66,0,60
4,70,0,0
4,66,0,0
4,59,100,0
4,64,100,0
4,68,100,0
4,68,0,240
4,64,0,0
4,59,0,0
4,68,100,0
4,64,100,0
4,61,100,0
4,61,0,240
4,64,0,0
4,68,0,0
