track,note,velocity,time
0,42,68,15
0,45,69,130
0,57,103,0
0,35,74,0
0,54,58,0
0,47,68,0
0,54,72,0
0,59,72,0
0,82,40,0
0,35,121,0
0,47,77,10
0,59,95,0
0,82,31,0
0,47,78,3
0,54,47,0
0,82,51,90
0,44,99,0
0,47,76,3
0,54,41,0
0,47,77,90
0,54,53,0
0,82,36,0
0,54,74,85
0,47,84,0
0,30,75,0
0,82,30,0
0,35,121,10
0,47,82,75
0,54,56,0
0,82,29,0
0,82,51,0
0,47,77,3
0,54,44,0
0,44,99,2
0,47,73,55
0,54,44,0
0,82,36,0
0,35,74,90
0,47,94,0
0,54,64,0
0,82,29,0
0,35,121,10
0,82,26,0
0,54,48,5
0,47,79,0
0,82,51,85
0,44,97,5
0,47,74,0
0,54,51,0
0,82,35,5
0,54,42,3
0,47,67,0
0,30,73,5
0,54,54,3
0,47,78,0
0,35,121,0
0,82,32,0
0,47,65,0
0,54,37,0
0,82,41,0
0,33,74,25
0,47,71,5
0,54,42,0
0,82,53,0
0,44,95,0
0,54,52,3
0,47,71,0
0,82,36,9
0,54,61,15
0,47,90,0
0,35,74,0
0,82,40,0
0,35,121,0
0,47,76,5
0,54,49,0
0,82,31,5
0,54,48,8
0,47,69,0
0,82,51,4
0,44,99,0
0,47,76,45
0,54,48,0
0,82,36,5
0,54,60,3
0,47,85,0
0,30,74,2
0,82,30,0
0,35,121,0
0,54,54,0
0,47,76,0
0,82,29,0
0,47,71,0
0,54,47,0
0,82,51,2
0,44,95,0
0,47,79,15
0,54,47,0
0,82,36,2
0,54,58,25
0,47,81,0
0,35,74,2
0,82,29,0
0,35,121,10
0,54,56,0
0,47,83,0
0,82,26,10
0,54,48,0
0,47,71,0
0,82,51,5
0,44,97,0
0,47,69,0
0,54,45,0
0,82,35,0
0,30,74,0
0,54,42,0
0,47,60,0
0,35,121,0
0,82,32,0
0,54,52,48
0,47,71,0
0,82,41,9
0,45,106,20
0,46,80,0
0,82,53,5
0,33,74,0
0,82,36,95
0,42,81,75
0,35,74,5
0,47,80,0
0,82,40,0
0,35,121,0
0,82,31,85
0,47,62,0
0,82,51,45
0,44,95,0
0,47,50,0
0,54,35,0
0,82,36,0
0,54,42,0
0,47,50,0
0,54,60,3
0,47,56,0
0,73,91,7
0,30,73,0
0,82,30,0
0,35,121,10
0,47,50,18
0,54,33,0
0,82,29,0
0,73,89,0
0,47,49,3
0,54,36,0
0,82,51,0
0,44,93,0
0,73,74,0
0,47,45,18
0,54,24,0
0,73,69,0
0,82,36,5
0,47,66,0
0,54,57,0
0,73,60,0
0,35,74,0
0,82,29,5
0,35,121,0
0,54,48,2
0,47,61,0
0,82,26,0
0,54,47,0
0,47,37,0
0,44,93,5
0,82,51,0
0,54,42,30
0,82,35,10
0,54,63,12
0,47,51,0
0,30,74,2
0,35,121,10
0,82,32,0
0,54,48,28
0,47,45,0
0,82,41,5
0,45,83,5
0,33,74,5
0,44,97,0
0,82,53,0
0,82,36,20
0,47,82,10
0,35,74,5
0,82,40,0
0,35,121,0
0,82,31,0
0,47,58,0
0,82,51,0
0,44,91,0
0,54,28,3
0,47,34,0
0,54,40,5
0,47,41,0
0,82,36,5
0,54,60,18
0,47,63,0
0,30,74,4
0,82,30,0
0,35,121,0
0,54,45,12
0,47,40,0
0,82,29,5
0,47,44,0
0,54,34,0
0,82,51,5
0,44,95,0
0,54,37,0
0,47,46,0
0,82,36,5
0,54,61,5
0,47,72,0
0,35,74,5
0,82,29,0
0,57,72,5
0,35,121,5
0,44,73,0
0,82,26,5
0,54,46,0
0,47,52,0
0,44,87,80
0,82,51,0
0,47,50,0
0,54,38,0
0,54,43,53
0,47,52,0
0,82,35,0
0,30,74,80
0,54,60,8
0,47,65,0
0,35,121,2
0,82,32,0
0,47,59,85
0,54,44,0
0,82,41,2
0,46,80,60
0,82,53,5
0,33,74,0
0,54,42,5
0,47,36,0
0,54,41,20
0,82,36,5
0,54,74,8
0,47,72,0
0,35,74,2
0,82,40,4
0,35,121,0
0,42,77,0
0,61,72,5
0,82,31,2
0,47,47,8
0,54,40,0
0,82,51,90
0,44,101,5
0,54,43,0
0,47,50,0
0,82,36,85
0,54,43,2
0,47,52,0
0,66,105,65
0,30,74,25
0,82,30,0
0,54,63,3
0,47,63,0
0,35,121,4
0,82,29,0
0,47,55,8
0,54,35,0
0,54,43,15
0,47,51,0
0,82,51,0
0,44,99,5
0,54,36,80
0,47,47,0
0,82,36,0
0,54,66,88
0,47,72,0
0,35,74,7
0,82,29,0
0,35,121,10
0,54,45,70
0,47,55,0
0,82,26,7
0,54,48,80
0,47,59,0
0,82,51,2
0,44,97,5
0,47,57,68
0,54,46,0
0,82,35,9
0,54,70,73
0,47,66,0
0,30,74,12
0,35,121,5
0,82,32,0
0,54,48,70
0,47,61,0
0,82,41,17
0,45,97,40
0,33,74,15
0,82,53,0
0,44,93,5
0,82,36,95
0,74,91,20
0,47,82,5
0,54,51,0
0,35,74,0
0,82,40,0
0,35,121,0
0,66,101,65
0,54,37,5
0,82,31,5
0,54,47,25
0,47,57,0
0,82,51,10
0,44,97,0
0,54,52,0
0,47,61,0
0,82,36,5
0,54,70,5
0,47,76,0
0,30,74,10
0,82,30,0
0,35,121,10
0,47,56,3
0,54,52,0
0,82,29,7
0,54,46,2
0,47,60,0
0,44,95,0
0,82,51,0
0,47,54,40
0,54,52,0
0,82,36,0
0,47,72,15
0,54,64,0
0,35,74,0
0,82,29,0
0,35,121,10
0,54,51,0
0,47,61,0
0,82,26,10
0,47,67,0
0,54,57,0
0,44,97,5
0,82,51,0
0,54,52,0
0,47,60,0
0,82,35,10
0,54,61,0
0,47,64,0
0,30,74,5
0,35,121,5
0,82,32,0
0,47,48,0
0,54,44,0
0,82,41,10
0,54,49,0
0,47,50,0
0,33,74,5
0,82,53,0
0,46,80,0
0,54,46,0
0,47,50,0
0,62,94,0
0,82,36,12
0,63,72,35
0,54,82,0
0,47,85,0
0,59,94,0
0,35,74,5
0,82,40,0
0,35,121,0
0,42,76,0
0,82,31,5
0,54,48,5
0,47,59,0
0,82,51,90
0,54,49,0
0,47,52,0
0,44,95,0
0,47,56,85
0,54,52,0
0,82,36,0
0,57,94,15
0,54,80,18
0,47,77,0
0,30,74,2
0,82,30,0
0,35,121,14
0,47,58,75
0,54,44,0
0,82,29,0
0,47,61,0
0,54,44,0
0,82,51,0
0,44,91,0
0,54,51,0
0,47,59,0
0,82,36,0
0,61,72,65
0,35,74,0
0,47,71,0
0,54,66,0
0,82,29,5
0,52,91,0
0,35,121,5
0,47,58,0
0,54,53,0
0,82,26,5
0,47,63,0
0,54,54,0
0,82,51,0
0,44,91,0
0,47,59,65
0,54,51,0
0,82,35,5
0,50,85,0
0,47,64,3
0,54,58,0
0,30,74,4
0,47,81,0
0,35,121,5
0,82,32,0
0,47,66,73
0,54,51,0
0,82,41,12
0,46,80,55
0,82,53,5
0,33,74,0
0,45,97,0
0,82,36,100
0,59,95,0
0,42,74,10
0,59,72,0
0,35,74,0
0,47,75,0
0,82,40,0
0,35,121,0
0,54,53,50
0,47,59,0
0,82,31,5
0,47,61,0
0,54,47,0
0,82,51,5
0,44,89,0
0,54,51,0
0,47,62,0
0,82,36,2
0,47,76,80
0,54,68,0
0,30,74,0
0,82,30,5
0,35,121,15
0,47,55,68
0,54,51,0
0,57,79,2
0,82,29,5
0,54,93,35
0,47,52,0
0,54,51,0
0,44,95,0
0,82,51,5
0,47,58,75
0,54,56,0
0,82,36,5
0,54,70,78
0,47,68,0
0,59,95,7
0,35,74,5
0,82,29,5
0,35,121,0
0,47,64,0
0,54,48,0
0,82,26,0
0,44,66,0
0,54,53,2
0,47,58,0
0,44,75,5
0,82,51,5
0,54,51,75
0,47,56,0
0,82,35,15
0,54,66,70
0,47,66,0
0,30,74,5
0,47,110,13
0,35,121,2
0,82,32,0
0,47,64,0
0,54,54,0
0,82,41,17
0,54,58,29
0,47,70,0
0,33,74,10
0,82,53,5
0,46,80,0
0,47,110,5
0,54,63,5
0,47,68,0
0,50,110,20
0,82,36,5
0,35,74,20
0,54,58,0
0,47,68,0
0,82,40,0
0,35,121,0
0,82,31,85
0,47,78,3
0,54,47,0
0,50,110,68
0,82,51,22
0,44,99,0
0,47,76,3
0,54,41,0
0,47,77,90
0,54,53,0
0,82,36,0
0,30,73,69
0,54,74,0
0,47,94,0
0,82,30,0
0,35,121,15
0,47,82,75
0,54,56,0
0,82,29,0
0,82,51,0
0,47,77,3
0,54,44,0
0,44,99,2
0,47,73,85
0,54,44,0
0,82,36,0
0,35,74,60
0,47,94,0
0,54,64,0
0,82,29,0
0,35,121,10
0,82,26,0
0,54,48,5
0,47,79,0
0,82,51,5
0,44,97,5
0,47,74,0
0,54,51,0
0,82,35,65
0,54,42,3
0,47,67,0
0,45,110,8
0,30,74,20
0,54,54,8
0,47,78,0
0,35,121,2
0,82,32,0
0,47,110,12
0,47,65,40
0,54,37,0
0,82,41,0
0,47,110,20
0,82,53,35
0,44,95,0
0,33,74,0
0,47,71,0
0,54,42,0
0,47,110,3
0,54,52,42
0,47,71,0
0,82,36,9
0,47,110,3
0,54,61,15
0,47,90,0
0,35,74,2
0,82,40,0
0,35,121,0
0,50,110,0
0,47,76,80
0,54,49,0
0,82,31,5
0,54,48,78
0,47,69,0
0,82,51,4
0,44,99,0
0,47,76,25
0,54,48,0
0,82,36,5
0,54,60,3
0,47,85,0
0,30,75,2
0,82,30,0
0,35,121,15
0,54,54,0
0,47,76,0
0,82,29,2
0,47,71,0
0,54,47,0
0,82,51,2
0,44,95,0
0,47,79,85
0,54,47,0
0,82,36,2
0,54,58,75
0,47,81,0
0,35,74,7
0,82,29,0
0,35,121,10
0,54,56,70
0,47,83,0
0,82,26,10
0,54,48,0
0,47,71,0
0,82,51,5
0,44,97,0
0,47,69,0
0,54,45,0
0,82,35,10
0,54,42,0
0,47,60,0
0,30,75,2
0,35,121,5
0,82,32,0
0,45,110,0
0,54,52,78
0,47,71,0
0,82,41,9
0,33,74,25
0,45,106,5
0,46,80,0
0,82,53,5
0,47,110,5
0,82,36,15
0,50,110,20
0,42,81,75
0,35,74,5
0,47,80,0
0,82,40,0
0,35,121,0
0,82,31,85
0,47,62,0
0,50,110,77
0,82,51,0
0,44,95,0
0,47,50,0
0,54,35,0
0,54,42,90
0,47,50,0
0,82,36,0
0,54,60,53
0,47,56,0
0,30,74,2
0,82,30,5
0,35,121,14
0,47,50,68
0,54,33,0
0,82,29,7
0,47,49,78
0,54,36,0
0,82,51,7
0,44,93,0
0,47,45,48
0,54,24,0
0,82,36,7
0,47,66,0
0,54,57,0
0,35,74,12
0,82,29,0
0,35,121,10
0,54,48,2
0,47,61,0
0,82,26,10
0,54,47,0
0,47,37,0
0,44,93,5
0,82,51,0
0,47,110,3
0,54,42,62
0,82,35,10
0,52,110,5
0,54,63,70
0,47,51,0
0,30,74,2
0,35,121,10
0,82,32,0
0,54,48,28
0,47,45,0
0,82,41,14
0,52,110,0
0,45,83,0
0,33,74,5
0,44,97,5
0,82,53,0
0,82,36,100
0,51,110,5
0,50,110,23
0,47,82,22
0,35,74,0
0,82,40,0
0,35,121,0
0,47,58,10
0,82,31,0
0,82,51,0
0,44,91,0
0,54,28,3
0,47,34,0
0,54,40,69
0,47,41,0
0,82,36,5
0,54,60,83
0,47,63,0
0,30,74,2
0,82,30,4
0,66,86,0
0,35,121,15
0,54,45,70
0,47,40,0
0,82,29,5
0,47,44,0
0,54,34,0
0,82,51,5
0,44,95,0
0,54,37,0
0,47,46,0
0,82,36,5
0,62,75,0
0,59,70,60
0,35,74,5
0,54,61,0
0,47,72,0
0,82,29,5
0,35,121,10
0,44,73,0
0,82,26,5
0,54,46,0
0,47,52,0
0,45,110,20
0,44,87,80
0,82,51,5
0,47,50,0
0,54,38,0
0,47,110,3
0,54,43,22
0,47,52,0
0,82,35,0
0,47,110,27
0,30,73,24
0,54,60,8
0,47,65,0
0,35,121,2
0,82,32,0
0,47,110,25
0,47,59,85
0,54,44,0
0,82,41,2
0,46,80,25
0,82,53,5
0,33,74,0
0,54,42,5
0,47,36,0
0,47,110,15
0,50,110,63
0,54,41,0
0,82,36,5
0,54,74,78
0,47,72,0
0,63,72,2
0,35,74,4
0,57,72,0
0,82,40,0
0,35,121,0
0,42,77,0
0,82,31,2
0,47,47,8
0,54,40,0
0,50,110,10
0,82,51,90
0,44,101,5
0,54,43,0
0,47,50,0
0,82,36,24
0,54,43,2
0,47,52,0
0,30,74,90
0,82,30,0
0,54,63,3
0,47,63,0
0,35,121,4
0,82,29,75
0,47,55,8
0,54,35,0
0,54,43,90
0,47,51,0
0,82,51,0
0,44,99,0
0,54,36,50
0,47,47,0
0,82,36,0
0,54,66,88
0,47,72,0
0,82,29,7
0,35,74,5
0,35,121,5
0,64,72,10
0,54,45,35
0,47,55,0
0,82,26,7
0,45,110,0
0,54,48,80
0,47,59,0
0,82,51,2
0,44,97,5
0,47,110,0
0,47,57,48
0,54,46,0
0,82,35,9
0,45,110,5
0,54,70,73
0,47,66,0
0,47,110,10
0,30,74,2
0,35,121,5
0,82,32,0
0,54,48,70
0,47,61,0
0,82,41,17
0,45,97,15
0,33,74,15
0,82,53,0
0,47,110,3
0,44,93,2
0,50,110,19
0,82,36,10
0,47,82,75
0,54,51,0
0,82,40,0
0,35,121,0
0,35,74,5
0,54,37,75
0,82,31,5
0,54,47,80
0,47,57,0
0,82,51,10
0,44,97,0
0,54,52,0
0,47,61,0
0,82,36,7
0,54,70,80
0,47,76,0
0,82,30,10
0,30,75,5
0,35,121,10
0,47,56,3
0,54,52,0
0,82,29,7
0,54,46,0
0,47,60,0
0,44,95,0
0,82,51,5
0,47,54,80
0,54,52,0
0,82,36,5
0,59,72,10
0,47,72,10
0,54,64,0
0,35,74,0
0,82,29,0
0,35,121,10
0,54,51,5
0,47,61,0
0,82,26,10
0,47,67,0
0,54,57,0
0,44,97,5
0,82,51,0
0,54,52,0
0,47,60,0
0,82,35,10
0,54,61,0
0,47,64,0
0,30,74,5
0,35,121,5
0,82,32,0
0,45,110,13
0,47,48,0
0,54,44,0
0,82,41,10
0,33,74,0
0,54,49,0
0,47,50,0
0,82,53,2
0,46,80,0
0,47,110,18
0,54,46,0
0,47,50,0
0,82,36,12
0,50,110,18
0,57,72,60
0,63,72,0
0,54,82,15
0,47,85,0
0,35,74,5
0,82,40,0
0,35,121,0
0,42,76,0
0,82,31,5
0,54,48,5
0,47,59,0
0,50,110,5
0,82,51,85
0,54,49,0
0,47,52,0
0,44,95,0
0,47,56,85
0,54,52,0
0,82,36,0
0,30,74,85
0,54,80,3
0,47,77,0
0,82,30,2
0,35,121,14
0,47,58,75
0,54,44,0
0,82,29,0
0,47,61,0
0,54,44,0
0,82,51,0
0,44,91,0
0,54,51,0
0,47,59,0
0,82,36,0
0,61,72,85
0,35,74,0
0,47,71,0
0,54,66,0
0,82,29,5
0,35,121,10
0,47,58,0
0,54,53,0
0,82,26,5
0,47,63,0
0,54,54,0
0,82,51,0
0,44,91,0
0,47,110,3
0,47,59,65
0,54,51,0
0,82,35,5
0,52,110,20
0,47,64,78
0,54,58,0
0,30,73,4
0,35,121,5
0,82,32,0
0,47,66,38
0,54,51,0
0,82,41,12
0,52,110,10
0,46,80,45
0,82,53,5
0,33,74,0
0,45,97,0
0,82,36,100
0,51,110,3
0,50,110,25
0,42,74,29
0,59,72,0
0,35,74,0
0,47,75,0
0,82,40,0
0,35,121,0
0,54,53,10
0,47,59,0
0,82,31,5
0,47,61,0
0,54,47,0
0,82,51,5
0,44,89,0
0,54,51,0
0,47,62,0
0,82,36,2
0,47,76,80
0,54,68,0
0,30,77,5
0,82,30,0
0,35,121,15
0,47,55,68
0,54,51,0
0,82,29,7
0,47,52,2
0,54,51,0
0,44,95,0
0,82,51,5
0,47,58,75
0,54,56,0
0,82,36,5
0,54,70,78
0,47,68,0
