track,note,velocity,time
0,53,90,79
0,75,74,0
0,81,76,0
0,86,82,0
0,75,45,71
0,81,61,23
0,65,58,35
0,86,88,10
0,46,63,3
0,74,65,0
0,84,104,0
0,77,65,0
0,77,82,0
0,84,97,0
0,58,77,0
0,74,46,3
0,65,53,0
0,84,0,175
0,65,0,2
0,74,0,4
0,84,0,8
0,82,120,3
0,82,97,0
0,62,50,0
0,62,0,117
0,77,0,30
0,74,55,45
0,70,65,0
0,82,0,157
0,82,0,14
0,84,115,21
0,65,56,0
0,77,68,0
0,84,90,0
0,70,0,1
0,74,0,14
0,65,0,124
0,77,0,40
0,74,47,13
0,62,48,0
0,84,0,53
0,86,113,19
0,53,78,0
0,86,97,0
0,58,83,0
0,77,78,0
0,82,72,4
0,84,0,11
0,65,61,29
0,65,0,147
0,70,97,45
0,74,43,0
0,86,0,33
0,77,0,144
0,70,0,2
0,84,97,13
0,62,50,0
0,84,87,0
0,86,0,13
0,62,0,152
0,84,0,16
0,65,54,11
0,82,93,0
0,84,0,13
0,74,0,68
0,65,0,14
0,82,0,14
0,82,0,76
0,81,105,7
0,70,80,0
0,81,82,0
0,70,0,49
0,81,0,14
0,53,0,24
0,69,73,7
0,53,82,0
0,72,65,0
0,79,117,0
0,79,92,0
0,53,68,0
0,72,84,0
0,81,0,1
0,60,48,191
0,69,40,0
0,77,107,7
0,57,65,0
0,77,92,0
0,79,0,7
0,79,0,10
0,72,0,148
0,57,0,2
0,65,72,25
0,69,44,0
0,65,0,177
0,77,0,6
0,79,105,9
0,72,78,0
0,79,90,0
0,60,67,0
0,77,0,1
0,69,0,44
0,72,0,130
0,60,0,2
0,69,39,15
0,57,65,0
0,79,0,63
0,81,113,9
0,48,77,0
0,81,90,0
0,72,80,0
0,53,78,0
0,77,85,8
0,79,0,7
0,60,67,9
0,60,0,157
0,69,48,35
0,65,78,0
0,81,0,9
0,65,0,140
0,79,99,43
0,79,92,0
0,57,76,0
0,72,0,3
0,81,0,22
0,69,0,62
0,77,0,88
0,77,104,17
0,60,72,0
0,77,87,0
0,79,0,3
0,57,0,4
0,79,0,16
0,60,0,114
0,77,0,10
0,77,0,40
0,76,99,5
0,76,80,0
0,65,70,0
0,46,75,7
0,74,115,0
0,70,70,0
0,58,89,0
0,65,74,0
0,74,90,0
0,76,0,1
0,70,44,53
0,74,0,51
0,65,0,30
0,77,111,111
0,58,74,0
0,77,90,0
0,74,0,7
0,74,86,5
0,74,0,1
0,70,0,0
0,77,0,130
0,74,60,49
0,58,0,37
0,74,0,8
0,82,117,33
0,82,97,0
0,74,78,0
0,62,70,0
0,77,0,1
0,77,64,7
0,74,0,5
0,77,0,80
0,81,113,7
0,72,68,0
0,69,73,0
0,53,85,0
0,60,92,0
0,81,97,0
0,72,90,0
0,46,0,3
0,77,42,151
0,72,0,11
0,81,0,8
0,77,0,12
0,60,0,110
0,84,117,51
0,65,87,0
0,84,97,0
0,81,0,15
0,65,0,28
0,77,51,149
0,89,109,35
0,57,80,0
0,81,80,0
0,57,65,0
0,89,92,0
0,45,58,0
0,84,0,1
0,53,0,10
0,45,0,44
0,77,38,5
0,77,0,51
0,77,64,69
0,69,0,5
0,72,0,0
0,86,115,7
0,58,81,0
0,70,72,0
0,74,64,0
0,46,74,0
0,86,97,0
0,58,80,0
0,77,74,0
0,82,89,0
0,89,0,17
0,57,0,10
0,65,80,61
0,46,0,115
0,58,0,24
0,65,0,8
0,70,89,45
0,70,0,139
0,62,72,53
0,65,78,192
0,62,0,95
0,65,0,82
0,70,67,15
0,58,97,61
0,65,62,51
0,65,0,177
0,70,89,15
0,58,0,111
0,62,58,81
0,62,0,133
0,70,0,24
0,65,64,35
0,65,0,109
0,70,80,83
0,70,0,23
0,86,0,126
0,77,0,36
0,78,97,3
0,75,93,1
0,84,97,0
0,75,68,2
0,84,105,0
0,54,82,0
0,66,76,0
0,54,94,2
0,58,0,3
0,74,0,0
0,75,0,110
0,63,64,81
0,84,0,5
0,75,37,7
0,54,0,93
0,75,0,14
0,78,0,42
0,82,123,27
0,58,74,2
0,82,101,0
0,78,35,2
0,63,0,9
0,84,0,8
0,78,0,14
0,75,40,151
0,66,88,10
0,82,0,11
0,58,0,10
0,75,0,112
0,82,0,50
0,78,84,3
0,84,113,2
0,84,99,0
0,63,82,6
0,66,0,45
0,78,0,70
0,84,0,10
0,63,0,32
0,58,90,7
0,75,41,12
0,75,0,45
0,86,101,3
0,86,104,2
0,74,68,0
0,53,82,0
0,65,71,0
0,53,95,0
0,74,88,0
0,77,94,0
0,62,78,190
0,74,0,133
0,58,92,21
0,62,0,5
0,74,60,7
0,86,0,9
0,77,0,124
0,53,0,20
0,65,87,21
0,84,99,10
0,84,101,4
0,86,0,59
0,58,0,16
0,84,0,38
0,82,101,73
0,82,106,6
0,62,78,10
0,74,0,1
0,65,0,20
0,84,0,6
0,82,0,46
0,62,0,92
0,82,0,6
0,81,88,1
0,60,84,8
0,81,102,2
0,81,0,45
0,65,0,44
0,60,0,74
0,74,0,22
0,70,0,0
0,58,94,1
0,73,93,0
0,79,99,0
0,81,0,1
0,70,81,1
0,70,76,4
0,73,62,0
0,49,79,0
0,79,109,0
0,53,0,7
0,65,75,173
0,77,101,9
0,77,117,6
0,65,0,3
0,61,96,3
0,58,0,7
0,65,77,177
0,77,0,81
0,70,90,107
0,73,97,0
0,77,0,1
0,79,101,1
0,79,102,4
0,65,0,3
0,58,88,11
0,61,0,5
0,73,0,18
0,70,0,6
0,79,0,20
0,65,75,125
0,58,0,105
0,81,101,1
0,72,99,0
0,77,101,0
0,79,0,5
0,77,92,1
0,48,77,0
0,69,73,0
0,81,105,0
0,72,65,0
0,57,87,12
0,49,0,17
0,65,77,165
0,57,0,69
0,72,62,51
0,81,0,7
0,60,89,1
0,65,0,1
0,77,0,14
0,72,0,26
0,60,0,120
0,65,94,13
0,79,86,8
0,70,81,2
0,79,104,2
0,81,0,17
0,77,0,0
0,70,0,46
0,79,0,2
0,69,72,123
0,77,94,2
0,77,99,2
0,79,0,1
0,60,91,9
0,69,0,99
0,77,0,26
0,77,0,18
0,60,0,8
0,65,0,8
0,76,94,15
0,57,87,6
0,76,92,2
0,76,0,67
0,65,88,5
0,74,101,0
0,70,72,2
0,46,72,0
0,74,105,0
0,58,86,0
0,76,0,19
0,48,0,0
0,65,75,5
0,58,0,59
0,65,0,54
0,74,0,36
0,74,0,54
0,70,93,3
0,77,96,0
0,77,111,4
0,62,81,2
0,74,87,10
0,70,0,29
0,77,0,20
0,62,0,110
0,65,92,17
0,74,96,192
0,82,101,0
0,77,0,3
0,82,117,1
0,62,82,8
0,65,0,21
0,82,0,90
0,74,0,14
0,62,0,40
0,58,86,15
0,69,78,1
0,46,0,1
0,81,101,1
0,72,96,0
0,53,81,4
0,72,65,0
0,77,66,0
0,69,69,0
0,81,111,0
0,57,91,2
0,65,85,141
0,57,0,55
0,72,0,32
0,81,0,42
0,69,0,62
0,65,0,6
0,77,88,1
0,84,99,2
0,60,94,2
0,84,111,2
0,81,0,17
0,77,0,24
0,84,0,24
0,60,0,100
0,65,89,11
0,65,0,201
0,77,99,3
0,89,101,0
0,57,95,2
0,89,105,2
0,84,0,9
0,77,0,64
0,89,0,88
0,57,0,20
0,60,95,15
0,65,76,5
0,72,78,0
0,70,83,2
0,89,115,0
0,58,97,0
0,77,77,0
0,74,75,0
0,89,99,1
0,77,99,2
0,82,92,2
0,77,78,0
0,89,83,0
0,84,94,0
0,70,80,0
0,70,29,0
0,53,0,13
0,84,84,5
0,82,90,5
0,89,0,13
0,72,0,6
0,65,0,4
0,84,0,8
0,70,73,13
0,65,74,2
0,72,80,0
0,77,96,8
0,89,91,0
0,84,82,21
0,82,87,15
0,70,44,4
0,72,44,4
0,65,40,2
0,89,0,3
0,65,0,26
0,72,0,6
0,70,0,0
0,84,0,14
0,70,79,13
0,72,82,0
0,65,74,2
0,89,94,2
0,77,105,2
0,84,82,13
0,82,96,5
0,72,0,1
0,70,0,2
0,70,69,3
0,72,72,2
0,65,65,2
0,89,97,4
0,77,105,2
0,84,84,11
0,82,103,1
0,77,0,1
0,70,81,1
0,72,86,2
0,65,72,2
0,77,104,4
0,89,111,0
0,84,98,7
0,82,111,3
0,70,0,5
0,89,0,2
0,72,0,2
0,70,85,33
0,65,79,2
0,72,92,2
0,89,104,0
0,77,111,2
0,84,98,59
0,82,111,45
0,70,77,0
0,72,81,1
0,65,60,4
0,89,0,17
0,65,0,8
0,70,0,6
0,72,0,4
0,70,106,27
0,65,100,2
0,72,104,0
0,89,115,0
0,77,115,3
0,84,104,1
0,82,117,5
0,70,97,45
0,65,92,1
0,72,96,0
0,89,115,10
0,77,115,2
0,84,110,1
0,84,0,153
0,89,0,2
0,77,0,16
0,82,117,5
0,70,0,1
0,65,0,0
0,72,0,4
0,57,97,3
0,38,121,3
0,86,94,0
0,77,80,0
0,81,89,0
0,74,107,0
0,77,91,0
0,81,101,0
0,86,105,0
0,57,76,0
0,35,108,0
0,62,95,0
0,69,95,0
0,74,95,0
0,65,95,0
0,86,95,0
0,35,0,5
0,57,0,0
0,81,68,125
0,81,0,1
0,81,108,5
0,44,49,6
0,44,0,5
0,74,0,138
0,79,84,11
0,79,0,1
0,79,102,1
0,86,100,31
0,86,0,1
0,86,98,3
0,74,100,2
0,81,104,1
0,81,0,1
0,81,80,5
0,79,86,77
0,44,46,21
0,86,97,4
0,74,100,0
0,44,0,1
0,74,0,0
0,86,0,0
0,86,102,3
0,74,92,2
0,81,77,5
0,81,0,1
0,81,105,3
0,86,0,15
0,86,107,25
0,86,0,1
0,74,95,3
0,86,95,0
0,81,72,43
0,81,107,5
0,79,102,3
0,44,36,4
0,44,0,5
0,55,115,1
0,77,0,9
0,81,0,2
0,76,81,5
0,84,92,2
0,79,67,6
0,86,95,8
0,74,98,0
0,86,0,1
0,36,113,1
0,76,94,0
0,84,99,0
0,79,111,0
0,35,104,0
0,49,75,0
0,67,95,0
0,64,95,0
0,60,97,0
0,81,107,87
0,79,90,29
0,86,0,31
0,81,0,12
0,44,46,33
0,44,0,5
0,86,97,3
0,74,103,0
0,86,102,5
0,74,82,0
0,81,104,1
0,64,0,19
0,60,0,16
0,67,0,0
0,81,73,9
0,74,95,0
0,86,95,0
0,84,0,1
0,38,117,1
0,86,84,0
0,77,77,0
0,77,97,0
0,86,98,0
0,81,101,0
0,35,106,0
0,57,72,0
0,69,95,0
0,62,95,0
0,65,95,0
0,72,124,3
0,81,104,13
0,44,44,53
0,44,0,5
0,79,90,1
0,86,0,61
0,81,0,92
0,86,96,3
0,74,100,4
0,69,103,1
0,44,42,4
0,81,82,2
0,44,0,3
0,72,107,153
0,69,0,3
0,79,102,29
0,74,0,3
0,86,0,54
0,81,0,100
0,69,105,13
0,72,0,5
0,74,100,17
0,86,96,0
0,44,38,2
0,44,0,5
0,62,0,146
0,69,0,4
0,67,107,7
0,69,0,1
0,65,0,0
0,74,0,6
0,81,80,3
0,81,0,5
0,81,104,5
0,65,105,5
0,82,76,4
0,81,0,3
0,74,94,5
0,74,0,1
0,86,107,3
0,86,0,1
0,74,100,1
0,53,114,0
0,86,95,1
0,34,118,4
0,70,89,0
0,74,107,0
0,44,88,0
0,45,97,0
0,58,95,0
0,65,95,0
0,62,97,0
0,45,0,5
0,44,0,0
0,46,124,5
0,86,0,11
0,81,78,41
0,81,0,1
0,81,104,5
0,46,104,0
0,53,99,4
0,46,0,49
0,53,0,4
0,45,82,1
0,45,0,5
0,74,0,80
0,44,47,11
0,45,97,0
0,45,0,5
0,44,0,0
0,79,90,1
0,86,0,37
0,81,0,8
0,35,58,45
0,35,0,5
0,55,0,66
0,53,109,17
0,41,67,8
0,86,95,0
0,74,96,0
0,46,124,2
0,41,0,3
0,45,86,13
0,45,0,5
0,74,0,22
0,70,0,8
0,65,0,34
0,76,77,11
0,64,115,2
0,86,0,1
0,77,0,0
0,84,77,3
0,82,0,5
0,79,65,1
0,34,0,1
0,36,110,3
0,72,99,0
0,79,102,0
0,76,81,0
0,41,108,0
0,44,43,0
0,64,95,0
0,55,96,0
0,60,97,0
0,81,104,0
0,44,0,5
0,41,0,0
0,65,105,29
0,74,0,1
0,64,0,2
0,36,0,24
0,79,100,5
0,46,116,0
0,36,99,2
0,41,94,0
0,41,0,5
0,53,105,5
0,86,0,21
0,81,0,16
0,46,0,68
0,53,0,2
0,36,0,8
0,65,0,34
0,64,117,15
0,33,102,18
0,57,47,0
0,35,104,0
0,55,67,0
0,86,98,0
0,74,105,2
0,46,124,2
0,55,0,1
0,35,0,0
0,57,0,0
0,53,124,1
0,79,0,59
0,33,0,76
0,64,0,8
0,55,0,6
0,46,0,6
0,60,0,2
0,81,88,7
0,81,0,1
0,53,0,2
0,81,101,3
0,36,112,7
0,57,82,3
0,79,0,1
0,38,120,1
0,81,88,0
0,86,95,0
0,77,75,0
0,81,95,0
0,77,77,0
0,77,88,0
0,74,97,0
0,81,97,0
0,50,95,0
0,42,94,0
0,49,67,0
0,35,107,0
0,65,98,0
0,69,92,0
0,74,92,0
0,57,124,0
0,57,105,5
0,72,0,5
0,50,109,1
0,79,0,1
0,42,42,89
0,42,0,5
0,57,0,132
0,50,0,32
0,40,103,23
0,42,96,0
0,62,103,0
0,50,81,3
0,69,0,11
0,62,0,2
0,74,0,2
0,65,0,0
0,57,76,3
0,38,0,5
0,59,75,1
0,59,0,5
0,50,0,24
0,57,0,2
0,38,117,15
0,46,69,0
0,35,105,0
0,65,91,0
0,69,90,0
0,74,89,0
0,35,0,5
0,46,0,0
0,50,114,3
0,57,111,10
0,42,84,9
0,42,0,5
0,59,72,23
0,59,0,5
0,57,124,57
0,50,114,0
0,42,39,2
0,35,81,0
0,35,0,5
0,42,0,0
0,55,103,1
0,57,0,1
0,38,114,3
0,40,114,0
0,42,98,0
0,55,89,4
0,42,0,1
0,40,0,0
0,59,83,13
0,48,89,7
0,53,97,4
0,50,0,11
0,65,0,2
0,53,91,3
0,55,0,1
0,31,105,3
0,42,40,0
0,69,101,0
0,42,0,5
0,74,0,0
0,69,0,42
0,48,0,8
0,53,101,13
0,48,88,2
0,48,109,2
0,53,114,5
0,29,113,4
0,84,77,0
0,60,115,0
0,42,84,0
0,35,94,0
0,60,101,0
0,72,92,0
0,69,93,0
0,65,93,0
0,59,77,9
0,42,35,65
0,55,97,7
0,31,102,7
0,42,96,0
0,40,114,0
0,40,0,5
0,42,0,0
0,29,0,4
0,59,82,1
0,59,0,5
0,60,109,3
0,81,0,1
0,53,0,0
0,55,105,7
0,48,101,3
0,81,0,5
0,48,111,1
0,55,124,4
0,36,116,1
0,79,75,0
0,76,77,0
0,76,66,0
0,79,83,0
0,42,40,0
0,35,101,0
0,64,96,0
0,72,90,0
0,67,94,0
0,77,0,3
0,35,0,2
0,42,0,0
0,42,81,139
0,42,0,5
0,59,81,7
0,59,0,5
0,42,41,161
0,35,88,0
0,35,0,5
0,42,0,0
0,55,0,112
0,55,109,69
0,42,97,6
0,40,119,0
0,40,0,5
0,42,0,0
0,59,81,13
0,59,0,5
0,48,0,8
0,48,109,9
0,53,80,1
0,33,112,4
0,42,47,0
0,50,97,7
0,79,0,3
0,57,122,1
0,79,0,3
0,38,122,1
0,77,70,0
0,81,80,0
0,86,81,0
0,74,79,0
0,77,82,0
0,35,107,0
0,42,94,0
0,69,94,0
0,74,90,0
0,65,93,0
0,42,0,5
0,35,0,0
0,59,85,1
0,76,0,5
0,59,0,0
0,50,107,29
0,69,124,2
0,42,42,4
0,42,0,5
0,65,113,1
0,57,99,0
0,65,0,65
0,69,0,10
0,50,0,68
0,48,91,37
0,40,103,6
0,42,96,0
0,62,97,0
0,57,0,1
0,42,0,4
0,40,0,0
0,55,99,5
0,59,82,8
0,59,0,5
0,65,0,6
0,62,0,0
0,67,124,13
0,38,120,7
0,46,69,0
0,35,105,0
0,69,95,0
0,74,92,0
0,65,94,0
