track,note,velocity,time
1,59,109,9524
1,59,109,56
1,62,109,36
1,59,109,8
1,57,109,528
1,62,109,128
1,62,109,60
1,59,109,20
1,59,109,32
1,59,109,564
1,59,109,128
1,59,109,76
1,62,109,20
1,59,109,12
1,59,109,268
1,59,109,264
1,64,109,124
1,62,109,44
1,59,109,40
1,57,109,600
1,59,109,128
1,57,107,20
1,59,109,12
1,62,109,44
1,59,109,8
1,57,109,540
1,59,109,8
1,62,109,124
1,62,109,76
1,59,109,12
1,57,109,528
1,59,109,148
1,59,109,116
1,62,109,20
1,59,109,20
1,59,109,676
1,64,109,140
1,62,109,32
1,59,109,24
1,62,109,600
1,62,109,152
1,64,109,112
1,64,109,68
1,62,109,552
1,64,109,52
1,64,109,76
1,59,109,20
1,62,109,828
1,64,109,116
1,62,109,40
1,64,109,32
1,64,109,40
1,62,109,600
1,64,109,12
1,62,109,40
1,59,109,24
1,62,109,780
1,64,109,64
1,62,109,100
1,64,109,24
1,64,109,52
1,62,109,632
1,64,109,116
1,62,109,12
1,59,109,20
1,62,109,692
1,64,109,64
1,62,109,20
1,64,109,36
1,64,109,32
1,62,109,620
1,64,109,44
1,62,109,88
1,66,109,296
1,66,109,140
1,66,109,152
1,64,109,48
1,62,109,24
1,59,109,48
1,59,109,64
1,59,109,572
1,62,109,84
1,62,109,48
1,59,109,0
1,59,109,120
1,57,109,628
1,59,109,84
1,62,109,52
1,64,109,56
1,59,109,8
1,57,109,616
1,62,109,80
1,62,109,32
1,59,109,112
1,57,109,880
1,59,109,44
1,62,109,56
1,62,109,124
1,59,109,56
1,57,109,588
1,62,109,132
1,64,109,76
1,59,109,20
1,59,109,96
1,57,109,656
1,59,109,100
1,62,109,64
1,64,109,120
1,59,109,84
1,59,109,556
1,62,109,128
1,62,109,76
1,59,109,0
1,59,109,64
1,57,109,508
1,59,109,128
1,59,109,32
1,59,109,88
1,59,109,11740
1,59,109,120
1,62,109,136
1,59,109,64
1,57,109,488
1,57,109,96
1,59,109,32
1,57,109,24
1,59,109,144
1,59,109,72
1,59,109,600
1,59,109,128
1,59,109,32
1,59,109,108
1,59,109,64
1,57,109,576
1,57,109,96
1,64,109,0
1,62,109,32
1,59,109,36
1,59,109,108
1,57,109,600
1,59,109,128
1,57,109,12
1,59,109,100
1,59,109,196
1,59,109,484
1,57,109,116
1,59,109,44
1,59,109,44
1,57,109,80
1,59,109,120
1,59,109,96
1,59,109,484
1,59,109,96
1,62,109,24
1,59,109,24
1,64,109,120
1,59,109,32
1,59,109,604
1,57,109,108
1,59,109,20
1,57,109,0
1,59,109,132
1,57,109,32
1,59,109,620
1,62,109,128
1,59,109,108
1,64,109,132
1,64,109,64
1,64,109,492
1,62,109,108
1,64,109,24
1,62,109,88
1,66,109,120
1,64,109,28
1,64,109,676
1,62,109,124
1,64,109,88
1,64,109,64
1,62,109,548
1,64,109,152
1,62,109,12
1,59,109,120
1,59,109,76
1,64,109,656
1,64,109,132
1,62,109,164
1,64,109,112
1,64,109,52
1,64,109,452
1,62,109,40
1,64,109,80
1,62,109,64
1,62,109,1060
1,64,109,140
1,62,109,84
1,64,109,132
1,64,109,64
1,64,109,576
1,64,109,132
1,62,109,8
1,66,109,128
1,66,109,84
1,66,109,316
1,64,109,52
1,62,109,12
1,59,109,72
1,59,109,76
1,59,109,472
1,62,109,140
1,64,109,16
1,59,109,20
1,59,109,88
1,57,109,568
1,59,109,132
1,57,109,20
1,62,109,64
1,59,109,288
1,59,109,644
1,61,109,20
1,62,109,132
1,62,109,80
1,59,109,104
1,59,109,88
1,57,109,560
1,59,109,20
1,59,109,44
1,62,109,116
1,59,109,8
1,64,109,668
1,62,109,32
1,57,109,12
1,59,109,32
1,59,109,52
1,57,109,580
1,59,109,104
1,57,109,68
1,62,109,132
1,59,109,44
1,57,109,476
1,59,109,196
1,57,109,56
1,59,109,108
1,59,109,748
1,59,109,21684
1,59,109,48
1,62,109,48
1,59,109,28
1,57,109,468
1,59,109,32
1,59,109,52
1,59,109,24
1,59,109,64
1,57,109,472
1,57,109,104
1,59,109,32
1,59,109,36
1,57,109,88
1,62,109,64
1,59,109,32
1,59,109,468
1,59,109,96
1,64,109,0
1,62,109,36
1,59,109,32
1,59,109,52
1,57,109,488
1,57,109,96
1,59,109,8
1,57,109,8
1,59,109,120
1,59,109,64
1,57,109,492
1,57,109,108
1,59,109,84
1,57,109,0
1,59,109,100
1,59,109,76
1,59,109,496
1,59,109,64
1,59,109,64
2,35,127,1508
2,30,127,136
2,35,127,120
2,30,127,60
2,35,127,112
2,30,127,108
2,35,127,140
2,30,127,96
2,33,127,76
2,35,127,4
2,30,127,108
2,35,127,132
2,30,127,108
2,35,127,192
2,35,127,48
2,30,127,136
2,35,127,132
2,30,127,100
2,33,127,188
2,35,127,8
2,30,127,136
2,35,127,132
2,30,127,136
2,35,127,192
2,35,127,112
2,30,127,140
2,35,127,176
2,30,127,104
2,33,127,92
2,35,127,16
2,30,127,124
2,35,127,160
2,30,127,120
2,35,127,4
2,35,127,84
2,30,127,124
2,35,127,148
2,30,127,156
2,33,127,192
2,35,127,0
2,30,127,148
2,35,127,152
2,30,127,120
2,35,127,8
2,35,127,112
2,30,127,108
2,35,127,160
2,30,127,48
2,33,127,60
2,35,127,12
2,30,127,128
2,35,127,128
2,30,127,148
2,35,127,32
2,35,127,92
2,30,127,124
2,35,127,140
2,30,127,48
2,33,127,60
2,35,127,196
2,30,127,124
2,35,127,160
2,30,127,144
2,35,127,188
2,35,127,112
2,30,127,152
2,35,127,152
2,30,127,48
2,33,127,60
2,35,127,0
2,30,127,116
2,35,127,136
2,30,127,116
2,35,127,192
2,35,127,112
2,30,127,136
2,35,127,176
2,30,127,140
2,35,127,60
2,40,127,196
2,35,127,140
2,38,127,132
2,35,127,132
2,40,127,116
2,35,127,100
2,38,127,128
2,35,127,116
2,40,127,116
2,35,127,112
2,38,127,120
2,35,127,100
2,40,127,104
2,35,127,104
2,38,127,108
2,35,127,108
2,40,127,132
2,35,127,128
2,38,127,120
2,35,127,96
2,40,127,108
2,35,127,124
2,38,127,132
2,35,127,140
2,40,127,120
2,35,127,128
2,38,127,120
2,35,127,112
2,40,127,40
2,42,127,64
2,37,127,140
2,42,127,132
2,42,127,128
2,40,127,24
2,38,127,16
2,35,127,8
2,30,127,184
2,35,127,152
2,30,127,100
2,35,127,188
2,35,127,112
2,30,127,136
2,35,127,152
2,30,127,140
2,33,127,20
2,35,127,196
2,30,127,148
2,35,127,172
2,30,127,152
2,35,127,188
2,35,127,52
2,30,127,112
2,35,127,152
2,30,127,80
2,33,127,32
2,35,127,192
2,30,127,164
2,35,127,132
2,30,127,140
2,35,127,16
2,35,127,124
2,30,127,92
2,35,127,144
2,30,127,132
2,33,127,68
2,35,127,12
2,30,127,140
2,35,127,164
2,30,127,132
2,35,127,20
2,35,127,140
2,30,127,80
2,35,127,52
2,30,127,120
2,33,127,56
2,35,127,196
2,30,127,108
2,35,127,152
2,30,127,144
2,35,127,80
2,30,127,164
2,35,127,132
2,30,127,156
2,33,127,100
2,35,127,4
2,30,127,128
2,35,127,132
2,30,127,100
2,35,127,48
2,35,127,128
2,30,127,148
2,35,127,144
2,30,127,216
2,33,127,92
2,35,127,16
2,30,127,116
2,35,127,120
2,30,127,132
2,35,127,8
2,35,127,136
2,30,127,108
2,35,127,176
2,30,127,124
2,33,127,36
2,35,127,12
2,30,127,104
2,35,127,120
2,30,127,140
2,35,127,140
2,30,127,152
2,35,127,164
2,30,127,184
2,33,127,76
2,35,127,0
2,30,127,124
2,35,127,148
2,30,127,172
2,35,127,8
2,35,127,116
2,30,127,148
2,35,127,144
2,30,127,176
2,33,127,52
2,35,127,196
2,30,127,136
2,35,127,152
2,30,127,160
2,35,127,16
2,35,127,136
2,30,127,132
2,35,127,152
2,30,127,164
2,33,127,76
2,35,127,16
2,30,127,124
2,35,127,140
2,30,127,164
2,35,127,40
2,35,127,124
2,30,127,148
2,35,127,160
2,30,127,120
2,33,127,48
2,35,127,0
2,30,127,128
2,35,127,172
2,30,127,128
2,35,127,48
2,35,127,104
2,30,127,108
2,35,127,152
2,30,127,136
2,35,127,40
2,40,127,0
2,35,127,148
2,37,127,0
2,38,127,144
2,35,127,112
2,40,127,108
2,35,127,92
2,38,127,128
2,35,127,92
2,40,127,88
2,35,127,104
2,38,127,128
2,35,127,124
2,40,127,132
2,35,127,112
2,38,127,140
2,35,127,152
2,40,127,88
2,35,127,68
2,38,127,116
2,35,127,80
2,40,127,120
2,35,127,108
2,38,127,148
2,35,127,100
2,40,127,136
2,35,127,108
2,38,127,120
2,35,127,128
2,40,127,4
2,42,127,76
2,37,127,152
2,42,127,40
2,42,127,120
2,40,127,40
2,38,127,28
2,35,127,8
2,30,127,196
2,35,127,152
2,30,127,152
2,33,127,0
2,35,127,196
2,30,127,152
2,35,127,164
2,30,127,196
2,33,127,16
2,35,127,196
2,30,127,152
2,35,127,164
2,30,127,152
2,35,127,28
2,35,127,52
2,30,127,136
2,35,127,184
2,30,127,152
2,33,127,60
2,35,127,4
2,30,127,104
2,35,127,152
2,30,127,140
2,35,127,4
2,35,127,136
2,30,127,160
2,35,127,172
2,30,127,132
2,33,127,60
2,35,127,12
2,30,127,148
2,35,127,160
2,30,127,48
2,35,127,188
2,35,127,124
2,30,127,148
2,35,127,152
2,30,127,108
2,33,127,36
2,35,127,12
2,35,127,2912
2,30,127,116
2,35,127,140
2,30,127,100
2,33,127,8
2,35,127,8
2,30,127,128
2,35,127,120
2,30,127,164
2,33,127,4
2,35,127,196
2,30,127,136
2,35,127,160
2,30,127,112
2,35,127,40
2,35,127,124
2,30,127,140
2,35,127,156
2,30,127,184
2,33,127,80
2,35,127,12
2,30,127,120
2,35,127,152
2,30,127,144
2,35,127,16
2,35,127,136
2,30,127,140
2,35,127,152
2,30,127,152
2,33,127,48
2,35,127,8
2,30,127,136
2,35,127,156
2,30,127,80
2,35,127,8
2,35,127,104
2,30,127,140
2,35,127,156
2,30,127,132
2,33,127,48
2,35,127,196
2,30,127,116
2,35,127,48
2,30,127,160
2,35,127,32
2,35,127,96
2,30,127,108
2,35,127,152
2,30,127,124
2,33,127,84
2,35,127,196
2,30,127,148
2,35,127,140
2,30,127,144
2,35,127,40
2,35,127,128
2,30,127,140
2,35,127,152
2,30,127,24
2,33,127,52
2,35,127,196
2,30,127,108
2,35,127,132
2,30,127,148
2,35,127,184
2,30,127,144
2,35,127,172
2,30,127,156
2,35,127,60
2,35,127,116
2,30,127,152
2,35,127,164
2,30,127,128
2,33,127,188
2,35,127,28
2,30,127,120
2,35,127,140
2,30,127,120
2,33,127,48
2,35,127,0
2,30,127,128
2,35,127,144
2,30,127,48
2,35,127,92
2,35,127,92
2,30,127,112
2,35,127,140
2,30,127,92
2,33,127,104
2,35,127,196
2,30,127,120
2,35,127,140
2,30,127,96
2,35,127,72
2,35,127,116
2,30,127,96
2,35,127,128
2,30,127,160
2,33,127,60
2,35,127,196
2,30,127,160
2,35,127,172
2,30,127,144
2,35,127,188
2,35,127,124
2,30,127,160
2,35,127,164
2,30,127,88
2,33,127,72
2,35,127,0
2,30,127,140
2,35,127,152
2,30,127,112
2,35,127,8
2,35,127,128
2,30,127,156
2,35,127,216
2,30,127,128
2,33,127,88
2,35,127,8
2,30,127,132
2,35,127,152
2,30,127,108
2,35,127,188
2,35,127,124
2,30,127,120
2,35,127,164
2,30,127,152
2,33,127,44
2,35,127,8
2,30,127,128
2,35,127,140
2,30,127,124
2,35,127,52
2,35,127,64
2,30,127,140
2,35,127,140
2,30,127,132
2,33,127,60
2,35,127,196
2,30,127,148
2,35,127,164
2,30,127,184
2,35,127,20
2,35,127,116
2,30,127,184
2,35,127,124
2,30,127,112
2,33,127,80
2,35,127,20
2,30,127,112
2,35,127,112
2,30,127,152
2,35,127,28
2,35,127,92
2,30,127,156
2,35,127,152
2,30,127,136
2,33,127,68
2,35,127,28
2,30,127,132
2,35,127,144
2,30,127,160
2,35,127,188
2,35,127,92
2,30,127,128
2,35,127,296
2,30,127,112
2,33,127,92
2,35,127,0
2,30,127,148
2,35,127,8
2,30,127,128
2,35,127,48
2,35,127,96
2,30,127,160
2,35,127,172
2,30,127,256
2,33,127,72
2,35,127,12
2,30,127,132
2,35,127,132
2,30,127,100
2,35,127,108
2,30,127,128
2,35,127,88
2,30,127,128
2,33,127,188
2,35,127,176
2,30,127,136
2,35,127,132
2,30,127,76
2,35,127,4
2,35,127,112
2,30,127,116
2,35,127,140
2,30,127,140
2,33,127,36
2,35,127,0
2,30,127,92
2,35,127,172
2,30,127,48
2,35,127,16
2,35,127,104
2,30,127,104
2,35,127,108
2,30,127,120
2,33,127,40
2,35,127,0
2,30,127,76
2,35,127,112
2,30,127,132
2,35,127,60
2,35,127,128
2,30,127,56
2,35,127,144
2,30,127,92
2,33,127,60
2,35,127,196
2,30,127,84
2,35,127,128
2,30,127,100
2,35,127,52
2,35,127,116
2,30,127,108
2,35,127,120
2,30,127,80
2,33,127,40
2,35,127,12
2,30,127,120
2,35,127,112
2,30,127,80
2,35,127,36
2,35,127,128
2,30,127,76
2,35,127,108
2,30,127,76
2,33,127,60
2,35,127,16
2,30,127,64
2,35,127,152
2,30,127,152
2,35,127,104
2,35,127,108
2,30,127,132
2,35,127,120
2,30,127,56
2,33,127,48
2,35,127,8
2,30,127,68
2,35,127,80
2,30,127,48
2,33,127,8
2,35,127,20
3,71,83,1520
3,59,83,0
3,66,83,4
3,69,83,76
3,71,83,104
3,66,83,0
3,59,83,0
3,54,83,0
3,59,83,0
3,63,83,0
3,54,83,88
3,63,83,0
3,59,83,0
3,64,83,52
3,63,83,1948
3,61,83,8
3,57,83,0
3,62,83,144
3,59,83,0
3,52,83,4
3,52,83,0
3,62,83,0
3,59,83,0
3,54,83,1444
3,58,83,4
3,61,83,0
3,66,83,0
3,54,83,152
3,63,83,0
3,59,83,0
3,63,83,88
3,59,83,0
3,54,83,4
3,64,83,20
3,63,83,8
3,61,83,8
3,57,83,0
3,71,83,188
3,66,83,0
3,59,83,4
3,63,83,0
3,54,83,0
3,59,83,0
3,64,83,4
3,59,83,56
3,63,83,0
3,54,83,80
3,61,83,16
3,57,83,0
3,56,83,116
3,62,83,0
3,52,83,0
3,59,83,3048
3,54,83,200
3,61,83,20
3,66,83,4
3,66,83,132
3,59,83,0
3,71,83,24
3,66,83,2912
3,71,83,0
3,59,83,0
3,54,83,44
3,63,83,0
3,59,83,0
3,64,83,4
3,54,83,88
3,63,83,0
3,59,83,0
3,61,83,32
3,57,83,20
3,59,83,44
3,66,83,0
3,71,83,20
3,59,83,120
3,66,83,20
3,71,83,0
3,78,83,4524
3,81,83,220
3,78,83,8
3,83,83,88
3,85,83,8
3,90,83,1128
3,90,83,116
3,59,83,0
3,71,83,12
3,66,83,0
4,57,122,16
4,59,122,0
4,66,122,0
4,74,98,104
4,66,115,92
4,64,78,480
4,62,85,24
4,59,88,4
4,57,115,12
4,52,101,112
4,50,90,264
4,47,106,80
4,47,103,72
4,59,115,24
4,59,106,112
4,57,94,8
4,54,119,8
4,57,99,216
4,59,94,8
4,52,115,12076
4,55,103,36
4,56,74,88
4,64,90,8
4,62,70,80
4,55,119,6792
4,56,102,12
4,64,80,32
4,62,82,84
4,62,77,0
4,52,82,1688
4,53,85,84
4,54,98,76
4,57,90,64
4,58,95,88
4,61,92,68
4,66,104,28
4,54,87,12700
4,59,80,0
4,47,108,932
4,47,89,304
4,54,98,20
4,59,89,0
4,59,98,304
4,54,111,0
4,47,106,1280
4,54,95,40
4,59,89,0
4,59,75,20
4,54,90,0
4,47,89,1056
4,47,91,144
4,54,97,40
4,59,89,0
4,59,90,56
4,54,92,4
4,59,89,128
4,54,95,0
4,54,58,248
4,47,94,52
4,54,94,20
4,59,92,4
4,59,82,928
4,54,90,0
4,47,92,1100
4,59,87,136
4,54,98,0
4,54,98,252
4,59,84,0
4,54,92,32
4,59,87,4
