track,note,velocity,time
1,70,97,107520
1,70,97,44
1,70,97,44
1,65,97,32
1,67,97,32
1,65,97,4
1,62,89,4
1,70,97,456
1,67,97,0
1,67,97,56
1,60,97,4
1,62,97,20
1,62,91,44
1,62,97,624
1,70,97,44
1,62,97,16
1,70,97,4
1,70,97,68
1,70,97,68
1,62,97,8
1,65,97,48
1,67,97,4
1,67,97,92
1,70,95,0
1,72,97,500
1,67,97,24
1,62,88,40
1,67,92,24
1,70,97,300
1,70,97,64
1,70,97,60
1,67,97,20
1,70,97,24
1,70,97,76
1,70,97,424
1,70,97,100
1,70,97,76
1,70,97,92
1,67,97,32
1,67,97,108
1,67,97,64
1,65,97,24
1,67,97,4
1,67,97,56
1,72,97,856
1,67,97,8
1,65,97,36
1,67,88,0
1,70,97,240
1,70,97,100
1,70,97,68
1,67,97,40
1,70,97,28
1,70,97,48
1,72,97,828
1,67,97,12
1,67,97,24
1,62,97,8
1,62,97,368
1,65,97,36
1,67,97,12
1,70,97,4
1,70,97,328
1,70,97,48
1,70,97,72
1,70,97,84
1,70,97,64
1,70,97,72
1,70,97,60
1,70,97,92
1,70,97,260
1,67,97,44
1,70,97,12
1,67,97,32
1,65,97,1088
1,67,97,24
1,67,97,44
1,65,97,24
1,70,97,20
1,69,97,4
1,67,97,8
1,70,97,4
1,67,97,16
1,70,97,396
1,70,97,84
1,70,97,68
1,70,97,64
1,70,97,32
1,72,97,36
1,70,97,8
1,74,97,0
1,72,97,0
1,70,97,4
1,70,97,836
1,67,97,20
1,70,97,24
1,70,97,48
1,70,97,16
1,70,97,28
1,72,97,76
1,70,97,4
1,72,97,8
1,70,97,4
1,72,97,4
1,70,97,4
1,72,97,8
1,74,97,20
1,74,97,228
1,72,97,4
1,70,97,4
1,74,97,4
1,67,97,16
1,70,97,312
1,70,97,64
1,67,97,20
1,70,97,0
1,67,97,24
1,67,97,620
1,67,97,88
1,67,97,68
1,67,97,72
1,67,97,96
1,69,97,64
1,69,97,48
1,69,97,60
1,69,97,64
1,71,97,56
1,70,97,428
1,70,97,116
1,70,97,64
1,70,97,104
1,70,97,64
1,70,97,72
1,70,97,68
1,70,97,80
1,70,97,80
1,70,97,80
1,70,97,72
1,70,97,92
1,70,97,64
1,70,97,80
1,70,97,824
1,65,97,16
1,67,97,4
1,65,97,424
1,67,97,4
1,70,97,4
1,67,97,12
1,70,97,828
1,70,97,56
1,70,97,60
1,70,97,60
1,70,97,76
1,70,97,72
1,70,97,72
1,70,97,64
1,70,97,68
1,70,97,84
1,70,97,84
1,70,97,256
1,67,97,4
1,65,93,36
1,70,97,248
1,70,97,56
1,70,97,52
1,70,97,72
1,70,97,56
1,70,97,64
1,62,97,16
1,70,97,64
1,67,97,4
1,72,97,4
1,67,97,8
1,70,97,652
1,70,97,84
1,70,97,68
1,70,97,64
1,70,97,32
1,72,97,36
1,70,97,8
1,74,97,0
1,72,97,0
1,70,97,4
1,70,97,836
1,67,97,20
1,70,97,24
1,70,97,48
1,70,97,16
1,70,97,28
1,72,97,76
1,70,97,4
1,72,97,8
1,70,97,4
1,72,97,4
1,70,97,4
1,72,97,8
1,74,97,20
1,74,97,228
1,72,97,4
1,70,97,4
1,74,97,4
1,67,97,16
1,70,97,312
1,70,97,64
1,67,97,20
1,70,97,0
1,67,97,24
1,67,97,620
1,67,97,88
1,67,97,68
1,67,97,72
1,67,97,96
1,69,97,64
1,69,97,48
1,69,97,60
1,69,97,64
1,71,97,56
1,70,97,2540
1,62,97,28
1,62,97,36
1,60,97,44
1,70,97,3120
1,74,97,12316
1,72,97,4
1,70,97,4
1,74,97,4
1,67,97,16
1,70,97,312
1,70,97,64
1,67,97,20
1,70,97,0
1,67,97,24
1,64,97,5232
1,64,97,32
1,64,97,20
1,64,97,76
1,64,97,20
1,67,97,776
1,70,97,48
1,67,97,40
1,70,97,20
1,70,97,32
1,70,97,244
1,67,97,12
1,70,97,24
1,62,97,8
1,67,97,600
1,70,97,24
1,62,97,16
1,62,97,24
1,62,97,40
1,62,97,168
1,65,97,28
1,67,97,36
1,67,97,36
1,70,95,4
1,62,97,220
1,62,97,52
1,62,97,60
1,62,97,60
1,62,97,60
1,62,97,64
1,70,97,296
1,70,97,48
1,70,97,32
1,67,97,32
1,70,97,40
1,65,97,32
1,65,97,48
1,67,97,20
1,69,97,60
1,65,88,520
1,62,84,12
1,70,97,1116
1,67,97,20
1,67,97,92
1,70,97,260
1,67,97,24
1,70,97,456
1,67,97,48
1,67,97,44
1,67,97,28
1,70,97,36
1,70,97,828
1,70,97,80
1,70,97,68
1,70,97,96
1,70,97,84
1,62,97,60
1,65,97,20
1,67,97,20
1,70,97,444
1,70,97,64
1,70,97,88
1,70,97,92
1,70,97,40
1,65,97,4
1,67,97,24
1,70,97,428
1,67,97,44
1,67,97,60
1,62,97,28
1,65,97,64
1,67,97,32
1,70,97,624
1,67,97,24
1,62,97,32
1,67,97,0
1,62,97,12
1,62,97,56
1,62,97,44
1,65,97,32
1,67,97,32
1,67,97,64
1,70,97,660
1,70,97,84
1,70,97,68
1,70,97,64
1,70,97,32
1,72,97,36
1,70,97,8
1,74,97,0
1,72,97,0
1,70,97,4
1,70,97,836
1,67,97,20
1,70,97,24
1,70,97,48
1,70,97,16
1,70,97,28
1,72,97,76
1,70,97,4
1,72,97,8
1,70,97,4
1,72,97,4
1,70,97,4
1,72,97,8
1,74,97,20
1,74,97,228
1,72,97,4
1,70,97,4
1,74,97,4
1,67,97,16
1,70,97,312
1,70,97,64
1,67,97,20
1,70,97,0
1,67,97,24
1,67,97,620
1,67,97,88
1,67,97,68
1,67,97,72
1,67,97,96
1,69,97,64
1,69,97,48
1,69,97,60
1,69,97,64
1,71,97,56
1,67,97,11372
1,62,97,20
1,62,97,24
1,65,97,308
1,67,97,12
1,67,97,20
1,67,97,396
1,62,97,28
1,62,97,16
1,67,97,720
1,62,97,8
1,62,97,24
1,62,97,36
1,62,97,52
1,62,97,1016
1,65,97,44
1,62,97,32
1,65,97,28
1,65,97,28
1,65,97,56
1,62,97,24
1,65,97,16
1,65,97,52
1,62,97,36
1,70,97,480
1,70,97,36
1,65,97,44
1,67,96,8
1,70,97,268
1,70,97,84
1,70,97,88
1,67,97,52
1,70,97,24
1,67,97,4
1,70,97,428
1,70,97,52
1,70,97,52
1,67,97,76
1,70,97,44
1,67,97,20
1,67,97,28
1,67,97,36
1,65,97,28
1,62,97,200
1,62,97,48
1,65,97,416
1,65,97,64
1,62,97,20
1,65,97,20
1,62,97,4
1,65,97,1964
1,67,97,76
1,67,97,72
1,70,97,1968
1,70,97,72
1,67,97,16
1,67,97,56
1,67,97,76
1,69,97,1980
1,65,97,44
1,62,89,4
1,65,97,2156
1,65,97,68
1,62,97,20
1,65,97,8
1,62,97,4
1,65,97,1956
1,67,97,76
1,67,97,80
1,70,97,1968
1,70,97,64
1,70,97,76
1,69,97,24
1,67,97,4
1,70,97,1972
1,67,97,200
1,67,97,56
1,65,97,2148
1,65,97,68
1,62,97,16
1,65,97,20
1,62,97,8
1,65,97,1952
1,67,97,76
1,67,97,76
1,70,97,1968
1,70,97,80
1,67,97,16
1,67,97,44
1,67,97,84
1,69,97,1984
1,65,97,40
1,62,89,8
1,70,97,12704
1,67,97,28
1,67,97,20
1,70,97,208
1,67,97,20
1,67,97,32
2,67,83,103140
2,74,83,0
2,77,83,0
2,67,83,640
2,74,83,0
2,77,83,0
2,67,83,636
2,74,83,0
2,77,83,0
2,67,83,628
2,74,83,0
2,77,83,0
2,67,83,628
2,74,83,0
2,77,83,0
2,67,83,616
2,74,83,0
2,77,83,0
2,55,83,36
2,62,83,0
2,67,83,0
2,55,83,36
2,62,83,0
2,67,83,0
2,55,83,36
2,62,83,0
2,67,83,0
2,55,83,36
2,62,83,0
2,67,83,0
3,55,67,3836
3,58,67,0
3,62,67,0
3,67,67,0
3,67,54,37592
3,74,54,0
3,77,54,0
3,72,67,4
3,67,40,60
3,74,49,0
3,77,39,0
3,72,67,8
3,74,46,8
3,67,56,112
3,70,54,0
3,75,55,0
3,65,58,12
3,74,58,0
3,67,59,8
3,75,57,0
3,69,54,8
3,72,55,0
3,77,56,0
3,67,55,12
3,74,58,0
3,64,57,12
3,67,55,0
3,72,57,0
3,66,60,4
3,69,53,0
3,74,61,0
3,68,59,12
3,71,57,0
3,76,53,0
3,67,67,12
3,74,67,0
3,77,67,0
3,72,67,60
3,74,67,36
3,67,67,36
3,74,67,0
3,77,67,0
3,72,67,60
3,74,67,36
3,67,56,36
3,70,54,0
3,75,55,0
3,65,58,12
3,74,58,0
3,67,59,8
3,75,57,0
3,69,54,8
3,72,55,0
3,77,56,0
3,67,55,12
3,74,58,0
3,64,57,12
3,67,55,0
3,72,57,0
3,66,60,4
3,69,53,0
3,74,61,0
3,68,59,12
3,71,57,0
3,76,53,0
3,67,67,12
3,74,67,0
3,77,67,0
3,72,67,60
3,74,67,36
3,67,67,36
3,74,67,0
3,77,67,0
3,72,67,60
3,74,67,36
3,67,56,36
3,70,54,0
3,75,55,0
3,65,58,12
3,74,58,0
3,67,59,8
3,75,57,0
3,69,54,8
3,72,55,0
3,77,56,0
3,67,55,12
3,74,58,0
3,64,57,12
3,67,55,0
3,72,57,0
3,66,60,4
3,69,53,0
3,74,61,0
3,68,59,12
3,71,57,0
3,76,53,0
3,67,67,12
3,74,67,0
3,77,67,0
3,72,67,60
3,74,67,36
3,67,67,36
3,74,67,0
3,77,67,0
3,72,67,60
3,74,67,36
3,67,67,36
3,74,67,0
3,77,67,0
3,72,67,60
3,74,67,36
3,67,67,36
3,74,67,0
3,77,67,0
3,72,67,60
3,74,67,36
3,67,56,36
3,70,54,0
3,75,55,0
3,65,58,12
3,74,58,0
3,67,59,8
3,75,57,0
3,69,54,8
3,72,55,0
3,77,56,0
3,67,55,12
3,74,58,0
3,64,57,12
3,67,55,0
3,72,57,0
3,66,60,4
3,69,53,0
3,74,61,0
3,68,59,12
3,71,57,0
3,76,53,0
3,67,67,12
3,74,67,0
3,77,64,0
3,79,67,24
3,67,67,12
3,77,67,0
3,72,67,20
3,74,67,16
3,67,67,28
3,74,67,0
3,77,67,0
3,72,67,12
3,76,67,0
3,74,67,20
3,77,67,0
3,67,67,20
3,74,67,0
3,77,64,0
3,79,67,24
3,67,67,12
3,77,67,0
3,72,67,20
3,74,67,16
3,67,67,28
3,74,67,0
3,77,67,0
3,72,67,12
3,74,67,16
3,67,67,40
3,74,67,0
3,77,64,0
3,79,67,24
3,67,67,12
3,77,67,0
3,72,67,20
3,74,67,16
3,67,67,28
3,74,67,0
3,77,67,0
3,72,67,12
3,74,67,16
3,67,67,40
3,74,67,0
3,77,64,0
3,79,67,24
3,67,67,12
3,77,67,0
3,72,67,20
3,74,67,16
3,67,67,28
3,74,67,0
3,77,64,0
3,79,67,24
3,67,67,12
3,77,67,0
3,72,67,20
3,74,67,16
3,67,67,28
3,74,67,0
3,77,64,0
3,79,67,24
3,67,67,12
3,77,67,0
3,72,67,20
3,74,67,16
3,67,67,28
3,74,67,0
3,77,64,0
3,79,67,24
3,67,67,12
3,77,67,0
3,72,67,20
3,74,67,16
3,67,67,28
3,74,67,0
3,77,64,0
3,79,67,24
3,67,67,12
3,77,67,0
3,72,67,20
3,74,67,16
3,67,67,28
3,74,67,0
3,77,67,0
3,72,67,12
3,74,67,16
3,67,67,40
3,74,67,0
3,77,64,0
3,79,67,24
3,67,67,12
3,77,67,0
3,72,67,20
3,74,67,16
3,67,67,28
3,74,67,0
3,77,67,0
4,67,27,15628
4,69,33,28
4,70,40,4
4,72,37,4
4,74,44,168
4,72,44,20
4,77,46,0
4,72,41,4
4,74,46,0
4,72,45,4
4,77,47,0
4,72,43,0
4,74,44,0
4,74,46,60
4,75,43,0
4,72,44,8
4,74,26,4
4,75,45,4
4,74,44,0
4,75,45,4
4,74,42,4
4,74,35,56
4,75,42,4
4,72,40,4
4,67,40,9052
4,69,44,4
4,70,48,4
4,72,48,0
4,70,46,4
4,69,45,12
4,67,43,4
4,74,46,0
4,72,44,8
4,70,43,4
4,69,41,8
4,70,43,0
4,69,41,4
4,67,39,4
4,72,45,0
4,70,44,0
4,69,42,4
4,67,40,32
4,65,40,8
4,67,44,4
4,69,41,0
4,65,39,4
4,67,44,4
4,72,41,392
4,77,44,4
4,74,43,4
4,72,43,4
4,77,48,0
4,74,44,8
4,72,42,372
4,77,47,12
4,74,45,8
4,72,41,16
4,77,46,4
4,74,45,16
4,79,40,444
4,81,46,4
4,82,48,4
4,84,48,0
4,86,48,4
4,89,48,0
4,91,48,0
4,93,48,0
4,94,48,4
4,96,48,4
5,82,58,2052
5,81,79,696
5,77,86,24
5,82,88,308
5,81,93,504
5,77,99,540
5,74,95,12
5,79,95,544
5,79,86,88
5,82,101,296
5,81,90,16
5,77,86,656
5,82,93,1172
5,81,99,468
5,77,104,520
5,74,80,8
5,79,82,568
5,79,92,92
5,82,93,1192
5,81,99,540
5,77,104,0
5,82,103,240
5,81,99,0
5,77,101,520
5,74,75,12
5,79,97,492
5,79,93,60
5,82,97,824
5,81,97,16
5,77,101,4
5,82,104,1652
5,81,97,20
5,77,99,8
5,74,92,32
5,79,93,0
5,81,97,0
5,77,116,54708
5,77,116,64
5,77,116,84
5,74,116,12
5,77,116,4
5,74,84,8
5,75,116,9864
5,75,116,92
5,75,116,76
5,75,116,108
5,75,116,52
5,75,116,60
5,74,116,36
5,77,116,32
5,75,116,24
5,74,116,16
5,75,116,800
5,75,116,52
5,75,116,68
5,75,116,56
5,75,116,44
5,75,116,48
5,77,116,48
5,75,116,4
5,77,116,0
5,75,116,8
5,77,116,4
5,75,116,8
5,77,116,4
5,79,99,4
5,77,116,256
5,77,116,76
5,74,116,64
5,77,116,52
5,74,116,0
5,77,116,348
5,77,116,120
5,74,116,20
5,77,116,4
5,74,112,4
5,72,116,636
5,72,116,76
5,72,116,80
5,72,116,68
5,72,116,72
5,74,116,84
5,74,116,64
5,74,116,68
5,74,116,52
5,76,116,60
5,75,116,12616
5,75,116,92
5,75,116,76
5,75,116,108
5,75,116,52
5,75,116,60
5,74,116,36
5,77,116,32
5,75,116,24
5,74,116,16
5,75,116,800
5,75,116,52
5,75,116,68
5,75,116,56
5,75,116,44
5,75,116,48
5,77,116,48
5,75,116,4
5,77,116,0
5,75,116,8
5,77,116,4
5,75,116,8
5,77,116,4
5,79,99,4
5,77,116,256
5,77,116,76
5,74,116,64
5,77,116,52
5,74,116,0
5,77,116,348
5,77,116,120
5,74,116,20
5,77,116,4
5,74,112,4
5,72,116,636
5,72,116,76
5,72,116,80
5,72,116,68
5,72,116,72
5,74,116,84
5,74,116,64
5,74,116,68
5,74,116,52
5,76,116,60
5,75,116,12804
5,75,116,76
5,75,116,108
5,75,116,52
5,75,116,60
5,74,116,36
5,77,116,32
5,75,116,24
5,74,116,16
5,75,116,800
5,75,116,52
5,75,116,68
5,75,116,56
5,75,116,44
5,75,116,48
5,77,116,48
5,75,116,4
5,77,116,0
5,75,116,8
5,77,116,4
5,75,116,8
5,77,116,4
5,79,99,4
5,77,116,256
5,77,116,76
5,74,116,64
5,77,116,52
5,74,116,0
5,77,116,348
5,77,116,120
5,74,116,20
5,77,116,4
5,74,112,4
5,72,116,636
5,72,116,76
5,72,116,80
5,72,116,68
5,72,116,72
5,74,116,84
5,74,116,64
5,74,116,68
5,74,116,52
5,76,116,60
5,77,116,19916
5,77,116,64
5,77,116,84
5,74,116,12
5,77,116,4
5,74,84,8
5,77,116,648
5,77,116,48
5,74,116,52
5,77,116,52
5,74,116,12
5,74,116,60
5,74,116,104
5,77,116,40
5,74,116,12
5,74,116,56
5,75,116,572
5,75,116,92
5,75,116,76
5,75,116,108
5,75,116,52
5,75,116,60
5,74,116,36
5,77,116,32
5,75,116,24
5,74,116,16
5,75,116,800
5,75,116,52
5,75,116,68
5,75,116,56
5,75,116,44
5,75,116,48
5,77,116,48
5,75,116,4
5,77,116,0
5,75,116,8
5,77,116,4
