track,note,velocity,time
2,60,94,4916
2,55,68,0
2,60,68,36
2,60,89,192
2,55,63,0
2,60,68,16
2,60,104,192
2,55,78,0
2,55,94,1348
2,62,97,0
2,57,81,180
2,65,94,4
2,62,84,196
2,62,71,304
2,65,87,28
2,69,94,20
2,72,94,80
2,69,89,140
2,65,91,192
2,64,91,168
2,62,94,188
2,59,85,5356
2,57,66,140
2,59,77,3496
2,67,80,152
2,59,64,56
2,67,78,8
2,68,67,268
2,64,88,3652
2,60,88,0
2,64,54,336
2,60,54,0
2,64,88,188
2,60,88,0
2,65,83,536
2,57,74,4
2,65,56,140
2,57,49,0
2,57,69,188
2,65,83,8
2,55,59,4
2,64,71,4
2,62,69,264
2,53,62,0
2,55,85,2440
2,60,80,156
2,55,77,192
2,65,80,4
2,62,80,4
2,62,78,156
2,53,73,0
2,58,73,0
2,58,73,312
2,53,73,4
2,65,83,0
2,58,49,340
2,62,54,4
2,53,49,0
2,62,80,144
2,58,75,0
2,53,75,0
2,50,80,412
2,53,71,8
2,55,73,196
2,60,75,4
2,61,62,3444
2,69,65,180
2,61,56,176
2,69,65,0
2,59,77,56
2,67,74,0
2,68,77,192
2,61,64,4
2,69,71,184
2,58,55,20
2,67,74,4
2,57,58,52
2,65,67,8
2,74,83,2924
2,69,77,4
2,64,80,8
2,61,78,8
2,57,66,192
2,55,69,192
2,64,85,3980
2,60,85,0
2,64,85,528
2,60,85,0
2,65,80,536
2,57,71,4
2,65,53,140
2,57,47,0
2,57,66,188
2,65,80,8
2,55,56,4
2,64,68,4
2,62,66,264
2,53,59,0
2,74,84,2824
2,65,77,4
2,72,83,32
2,64,68,0
2,69,76,336
2,65,75,0
2,62,70,200
2,53,64,0
2,58,64,0
2,58,74,312
2,53,74,4
2,65,85,0
2,58,55,340
2,62,60,4
2,53,55,0
2,62,77,144
2,58,72,0
2,53,72,0
2,62,74,1008
2,53,69,0
2,58,69,0
2,58,69,312
2,53,69,4
2,65,79,0
2,58,49,340
2,62,50,4
2,53,49,0
2,62,68,144
2,58,62,0
2,53,62,0
2,65,67,1960
2,57,67,0
2,62,69,0
2,62,77,192
2,57,69,8
2,65,73,0
2,64,70,4
2,60,74,4
2,55,74,4
2,53,74,344
2,62,73,4
2,58,69,0
2,62,77,304
2,57,77,0
2,65,73,4
2,65,74,320
2,62,74,4
2,57,73,0
2,64,77,0
2,60,74,0
2,55,74,0
2,64,66,324
2,60,73,4
2,55,69,0
2,60,63,4
2,69,78,4
2,65,78,4
2,67,77,528
2,64,77,0
2,57,74,328
2,65,69,4
2,62,77,0
2,62,73,252
2,65,73,4
2,57,73,0
2,55,77,4
2,64,77,0
2,60,70,4
2,53,73,320
2,62,74,4
2,58,70,0
2,57,77,292
2,65,80,0
2,62,77,4
2,62,74,336
2,65,77,0
2,57,74,0
2,64,73,24
2,57,67,4
2,60,73,0
2,64,70,332
2,55,73,0
2,60,73,4
2,50,77,244
2,53,68,8
2,55,70,196
2,60,72,4
2,59,74,4392
2,69,80,4
2,73,80,4
2,72,80,512
2,68,77,0
2,73,78,312
2,69,78,0
2,74,62,312
2,65,48,0
2,74,71,4
2,65,57,0
2,62,78,1924
2,64,77,4
2,69,80,196
2,64,77,160
2,67,83,148
2,71,80,160
2,67,80,4
2,71,78,180
2,67,78,152
2,69,61,0
2,65,61,4
2,62,83,2556
2,65,78,136
2,62,78,152
2,65,70,192
2,65,71,4
2,62,67,4
2,62,61,0
2,65,65,4
2,64,80,2112
2,73,73,4
2,72,80,4
2,69,76,272
2,65,64,8
2,62,77,180
2,58,76,0
2,53,77,4
2,65,77,348
2,62,80,4
2,62,66,340
2,58,63,4
2,53,62,0
2,58,69,4
2,62,77,0
2,53,68,0
2,55,77,1008
2,60,77,4
2,57,70,192
2,60,74,0
2,57,70,192
2,60,78,164
2,69,82,3484
2,71,88,2880
2,73,81,4
2,69,80,196
2,64,69,172
2,61,66,140
2,62,76,196
2,61,69,168
2,57,72,144
2,69,68,4
2,67,70,664
2,64,85,2684
2,60,85,0
2,64,52,336
2,60,52,0
2,64,85,188
2,60,85,0
2,65,80,536
2,57,71,4
2,65,53,140
2,57,47,0
2,57,66,188
2,65,80,8
2,55,56,4
2,64,68,4
2,62,66,264
2,53,59,0
2,55,83,2056
2,62,81,4
2,57,70,196
2,65,78,80
2,64,75,92
2,62,70,0
2,62,73,256
2,53,69,0
2,58,69,0
2,53,53,124
2,62,57,0
2,58,53,0
2,58,76,180
2,53,76,4
2,65,84,0
2,58,55,136
2,53,55,4
2,65,57,0
2,58,61,188
2,62,65,4
2,53,61,0
2,62,79,4
2,58,75,0
2,53,75,0
2,62,54,816
2,53,54,0
2,58,54,0
2,62,76,180
2,53,72,0
2,58,72,0
2,62,56,136
2,53,56,0
2,58,56,0
2,58,72,164
2,53,72,4
2,65,80,0
2,58,55,136
2,53,55,4
2,65,55,0
2,58,54,188
2,62,58,4
2,53,54,0
2,62,71,144
2,58,67,0
2,53,67,0
2,65,73,1960
2,57,73,0
2,62,75,0
2,62,79,192
2,57,72,8
2,65,75,0
2,64,73,4
2,60,77,4
2,55,77,4
2,53,77,344
2,62,75,4
2,58,72,0
2,62,79,304
2,57,79,0
2,65,75,4
2,65,77,320
2,62,77,4
2,57,75,0
2,64,79,0
2,60,77,0
2,55,77,0
2,64,69,324
2,60,75,4
2,55,72,0
2,55,69,4
2,69,81,4
2,65,81,4
2,67,79,528
2,64,79,0
2,57,77,328
2,65,72,4
2,62,79,0
2,62,75,252
2,65,75,4
2,57,75,0
2,55,72,4
2,64,72,0
2,60,66,4
2,53,75,320
2,62,77,4
2,58,73,0
2,57,79,292
2,65,83,0
2,62,79,4
2,62,77,336
2,65,79,0
2,57,77,0
2,64,69,24
2,57,63,4
2,60,69,0
2,64,73,332
2,55,75,0
2,60,75,4
2,50,77,244
2,53,68,8
2,55,70,196
2,60,72,4
2,71,77,3628
2,76,77,684
2,73,71,8
2,67,73,340
2,75,75,112
2,76,81,2232
2,73,69,184
2,69,60,188
2,64,73,48
2,62,77,348
2,60,77,188
2,68,73,16
2,69,76,4
2,64,79,3224
2,60,79,0
2,64,52,336
2,60,52,0
2,64,77,188
2,60,79,0
2,65,80,536
2,57,71,4
2,65,53,140
2,57,47,0
2,57,66,188
2,65,80,8
2,55,56,4
2,64,68,4
2,62,66,264
2,53,59,0
2,55,80,2452
2,62,77,4
2,57,69,192
2,65,80,4
2,62,80,188
2,62,69,232
2,53,65,0
2,58,65,0
2,53,50,124
2,62,54,0
2,58,50,0
2,58,72,180
2,53,72,4
2,65,80,0
2,58,52,136
2,53,52,4
2,65,54,0
2,58,57,188
2,62,61,4
2,53,57,0
2,62,75,4
2,58,71,0
2,53,71,0
2,62,51,816
2,53,51,0
2,58,51,0
2,62,72,180
2,53,68,0
2,58,68,0
2,62,53,136
2,53,53,0
2,58,53,0
2,58,68,164
2,53,68,4
2,65,76,0
2,58,52,136
2,53,52,4
2,65,52,0
2,58,50,188
2,62,54,4
2,53,50,0
2,62,72,4
2,58,68,0
2,53,68,0
2,65,69,1960
2,57,69,0
2,62,70,0
2,62,79,192
2,57,72,8
2,65,75,0
2,64,73,4
2,60,77,4
2,55,77,4
2,53,77,344
2,62,75,4
2,58,72,0
2,62,79,304
2,57,79,0
2,65,75,4
2,65,77,320
2,62,77,4
2,57,75,0
2,64,79,0
2,60,77,0
2,55,77,0
2,64,69,324
2,60,75,4
2,55,72,0
2,55,69,4
2,69,81,4
2,65,81,4
2,67,73,4
2,67,79,336
2,64,79,0
2,57,77,328
2,65,72,4
2,62,79,0
2,62,75,252
2,65,75,4
2,57,75,0
2,55,72,4
2,64,72,0
2,60,66,4
2,53,75,320
2,62,77,4
2,58,73,0
2,57,79,292
2,65,83,0
2,62,79,4
2,62,77,336
2,65,79,0
2,57,77,0
2,64,69,24
2,57,63,4
2,60,69,0
2,64,73,332
2,55,75,0
2,60,75,4
2,50,79,244
2,53,70,8
2,55,72,196
2,60,74,4
2,67,95,188
2,67,95,8
2,67,92,4
2,67,92,4
2,65,90,100
2,67,86,84
2,65,86,4
2,64,83,200
2,65,76,80
2,64,85,64
2,57,71,460
2,61,74,256
2,64,85,160
2,69,83,76
2,73,87,268
2,76,91,8
2,74,87,164
2,69,77,180
2,65,78,236
2,62,75,248
2,69,80,168
2,72,103,192
2,70,91,100
2,72,89,12
2,70,85,72
2,69,87,76
2,70,83,8
2,69,79,24
2,57,68,8
2,70,103,188
2,64,69,364
2,67,94,128
2,67,97,292
2,67,94,136
2,67,91,324
2,65,81,196
2,76,91,676
2,76,91,16
2,72,87,260
2,69,81,232
2,67,72,208
2,67,78,152
2,72,69,192
2,72,82,92
2,72,99,168
2,72,97,100
2,70,87,64
2,72,94,148
2,72,94,36
2,69,82,216
2,77,94,192
2,74,85,180
2,69,81,8
2,74,81,0
2,72,94,192
2,74,85,8
2,69,89,4
2,67,82,192
2,65,81,112
2,53,84,4
2,58,86,184
2,62,82,184
2,65,80,192
2,62,77,68
2,55,68,188
2,60,73,36
2,64,97,40
2,65,104,124
2,65,95,20
2,64,90,156
2,67,88,20
2,53,80,136
2,58,76,192
2,62,78,172
2,65,78,124
2,62,80,180
2,55,81,412
2,60,81,196
2,62,83,0
2,62,99,136
2,62,94,168
2,60,89,192
2,62,85,148
2,62,79,4
2,62,85,368
2,57,78,8
2,65,81,0
2,64,79,4
2,60,83,4
2,55,83,4
2,53,83,344
2,62,81,4
2,58,78,0
2,62,85,304
2,57,85,0
2,65,81,4
2,65,83,320
2,62,83,4
2,57,81,0
2,64,85,0
2,60,83,0
2,55,83,0
2,64,75,324
2,60,81,4
2,55,78,0
2,55,75,4
2,69,87,4
2,65,87,4
2,67,79,4
2,67,85,336
2,64,85,0
2,57,83,328
2,65,78,4
2,62,85,0
2,62,81,252
2,65,81,4
2,57,81,0
2,55,78,4
2,64,78,0
2,60,72,4
2,53,81,320
2,62,83,4
2,58,79,0
2,57,85,292
2,65,89,0
2,62,85,4
2,62,83,336
2,65,85,0
2,57,83,0
2,64,75,24
2,57,69,4
2,60,75,0
2,64,79,332
2,55,81,0
2,60,81,4
2,50,80,244
2,53,71,8
2,55,73,196
2,60,75,4
2,59,71,3624
2,62,75,4
2,62,75,380
2,65,80,4
2,65,62,52
2,69,62,48
2,74,64,60
2,64,54,2196
2,69,56,4
2,73,57,4
2,64,67,4
2,73,62,4
2,69,67,0
2,73,77,4
2,69,75,0
2,64,75,0
2,53,58,136
2,57,61,8
2,60,66,12
2,65,67,24
2,62,77,2396
2,65,77,96
2,62,74,148
2,65,78,140
2,53,56,468
2,58,59,80
2,62,61,40
2,65,63,28
2,55,78,1540
2,62,79,4
2,57,75,200
2,65,89,0
2,57,63,176
2,65,85,172
2,62,82,192
2,62,72,336
2,53,67,0
2,58,67,0
2,53,53,124
2,62,56,0
2,58,53,0
2,58,75,180
2,53,75,4
2,65,83,0
2,58,55,136
2,53,55,4
2,65,56,0
2,58,60,188
2,62,64,4
2,53,60,0
2,62,77,4
2,58,73,0
2,53,73,0
2,62,54,816
2,53,54,0
2,58,54,0
2,62,75,180
2,53,71,0
2,58,71,0
2,62,55,136
2,53,55,0
2,58,55,0
2,58,71,164
2,53,71,4
2,65,79,0
2,58,54,136
2,53,54,4
2,65,54,0
2,58,53,188
2,62,56,4
2,53,53,0
2,62,70,144
2,58,66,0
2,53,66,0
2,65,75,1960
2,57,75,0
2,62,77,0
2,62,83,192
2,57,75,8
2,65,79,0
2,64,76,4
2,60,80,4
2,55,80,4
2,53,80,344
2,62,79,4
2,58,75,0
2,62,83,304
2,57,83,0
2,65,79,4
2,65,80,320
2,62,80,4
2,57,79,0
2,64,83,0
2,60,80,0
2,55,80,0
2,64,72,324
2,60,79,4
2,55,75,0
2,55,72,4
2,69,84,4
2,65,84,4
2,67,83,528
2,64,83,0
2,57,80,328
2,65,75,4
2,62,83,0
2,62,79,252
2,65,79,4
2,57,79,0
2,55,76,4
2,64,76,0
2,60,70,4
2,53,79,320
2,62,80,4
2,58,76,0
2,57,83,292
2,65,86,0
2,62,83,4
2,62,80,336
2,65,83,0
2,57,80,0
2,64,72,24
2,57,67,4
2,60,72,0
2,64,76,332
2,55,79,0
2,60,79,4
2,50,80,244
2,53,71,8
2,55,73,196
2,60,75,4
2,67,99,164
2,67,97,128
2,65,87,376
2,67,79,152
2,65,89,140
2,62,76,0
2,62,73,216
2,65,73,168
2,67,94,140
2,67,81,12
2,67,91,132
2,64,86,204
2,67,74,4
2,64,71,0
2,60,77,112
2,62,71,4
2,60,63,4
2,55,74,104
2,57,70,4
2,55,63,4
2,52,74,100
2,53,69,4
2,52,61,0
2,48,71,100
2,50,64,0
2,48,59,4
2,65,79,1244
2,67,81,4
2,69,98,4
2,67,87,4
2,65,78,4
2,67,75,4
2,65,87,4
2,62,82,100
2,62,82,964
2,67,93,4
2,69,87,56
2,67,81,72
2,64,73,56
2,72,90,72
2,69,82,60
2,67,75,44
2,64,67,32
2,72,84,96
2,69,74,40
2,67,71,72
2,64,65,0
2,72,80,88
2,69,73,40
2,67,67,72
2,64,58,88
2,72,76,68
2,69,69,44
2,67,63,68
2,64,54,88
2,72,72,68
2,69,65,44
2,67,59,72
2,64,53,88
2,72,66,68
2,67,94,216
2,69,87,0
2,74,91,4
2,72,94,4
2,69,81,4
2,67,82,4
2,69,87,0
2,67,89,0
2,65,75,4
2,62,69,4
2,60,74,100
2,69,79,100
2,67,94,0
2,60,78,1164
2,64,78,8
2,67,78,16
2,69,99,0
2,60,78,284
2,64,78,4
2,67,78,0
2,70,99,16
2,70,69,196
2,70,90,184
2,74,87,320
2,70,87,0
2,74,85,168
2,69,84,360
2,77,92,20
2,74,80,4
2,69,81,4
2,74,82,4
2,77,87,4
2,74,76,8
2,69,80,4
2,74,80,4
2,77,84,4
2,74,74,4
2,69,78,4
2,74,77,8
2,77,81,4
2,74,71,4
2,69,74,4
2,74,75,4
2,77,79,4
2,74,69,4
2,70,72,4
2,74,73,8
2,77,79,4
2,74,68,0
2,70,71,4
2,74,71,8
2,77,78,4
2,74,69,4
2,70,70,4
2,74,70,8
2,77,77,4
2,74,68,8
2,70,71,4
2,74,71,4
2,79,78,4
2,76,68,8
2,72,71,0
2,76,70,4
2,79,77,4
2,76,68,4
2,72,71,4
2,76,70,4
2,79,77,4
2,76,68,4
2,72,72,4
2,76,72,4
2,79,79,4
2,76,71,4
2,72,73,4
2,76,73,4
2,79,80,4
2,76,73,4
2,72,76,4
2,76,76,4
2,79,83,4
2,76,76,4
2,72,79,4
2,76,79,4
2,79,85,0
2,76,80,4
2,72,82,4
2,76,82,4
2,79,88,4
2,67,82,88
2,69,82,0
2,77,88,0
2,74,79,4
2,69,82,0
2,74,82,4
2,77,87,4
2,74,78,4
2,69,80,4
2,74,80,4
2,77,85,4
2,74,74,4
2,69,77,4
2,74,78,8
2,77,84,4
2,74,74,8
2,69,76,4
2,74,78,4
2,77,82,4
2,74,71,4
2,70,75,4
2,74,76,4
2,77,80,4
2,74,72,4
2,70,72,4
2,74,73,4
2,77,77,4
2,74,69,4
2,70,70,4
2,74,72,4
2,77,76,4
2,74,65,8
2,70,69,4
2,74,70,4
2,79,74,8
2,76,64,8
2,72,67,4
2,76,69,4
2,79,77,4
2,76,66,4
2,72,70,4
2,76,70,4
2,79,78,4
2,76,68,4
2,72,73,4
2,76,72,4
2,79,80,4
2,76,71,8
2,72,74,4
2,76,73,4
2,79,82,4
2,76,72,4
2,72,75,4
2,76,76,8
2,79,85,4
2,76,74,4
2,72,78,4
2,76,79,4
2,79,87,4
2,76,76,4
2,72,81,12
2,76,80,0
2,79,88,4
2,76,78,4
2,72,81,4
2,76,82,4
2,79,95,12
2,79,90,96
2,77,94,116
2,79,82,148
2,77,94,172
2,74,79,176
2,74,87,136
2,77,89,188
2,79,99,8
2,76,86,196
2,79,82,0
2,76,75,4
2,72,79,96
2,74,74,0
2,72,73,4
2,67,73,136
2,69,65,0
2,67,64,4
2,64,64,128
