track,note,velocity,time
3,70,127,0
3,70,0,52
3,70,127,0
3,70,0,48
3,70,127,0
3,70,0,352
3,65,127,0
3,65,0,160
3,67,127,0
3,67,0,96
3,65,127,0
3,65,0,88
3,62,119,0
3,62,0,116
3,70,127,0
3,70,0,192
3,67,127,0
3,67,0,136
3,67,127,0
3,67,0,188
3,60,127,0
3,60,0,176
3,62,127,0
3,62,0,148
3,62,121,0
3,62,0,144
3,62,127,0
3,62,0,148
3,70,127,0
3,70,0,176
3,62,127,0
3,62,0,184
3,70,127,0
3,70,0,124
3,70,127,0
3,70,0,124
3,70,127,0
3,70,0,188
3,62,127,0
3,62,0,140
3,65,127,0
3,65,0,380
3,67,127,0
3,67,0,300
3,67,127,0
3,67,0,188
3,70,125,0
3,70,0,272
3,72,127,0
3,72,0,160
3,67,127,0
3,67,0,352
3,62,118,0
3,62,0,164
3,67,122,0
3,67,0,84
3,70,127,0
3,70,0,324
3,70,127,0
3,70,0,128
3,70,127,0
3,70,0,168
3,67,127,0
3,67,0,168
3,70,127,0
3,70,0,124
3,70,127,0
3,70,0,148
3,70,127,0
3,70,0,92
3,70,127,0
3,70,0,308
3,70,127,0
3,70,0,100
3,70,127,0
3,70,0,160
3,67,127,0
3,67,0,88
3,67,127,0
3,67,0,124
3,67,127,0
3,67,0,164
3,65,127,0
3,65,0,380
3,67,127,0
3,67,0,136
3,67,127,0
3,67,0,492
3,72,127,0
3,72,0,92
3,67,127,0
3,67,0,248
3,65,127,0
3,65,0,188
3,67,118,0
3,67,0,148
3,70,127,0
3,70,0,280
3,70,127,0
3,70,0,128
3,70,127,0
3,70,0,152
3,67,127,0
3,67,0,168
3,70,127,0
3,70,0,136
3,70,127,0
3,70,0,132
3,72,127,0
3,72,0,84
3,67,127,0
3,67,0,72
3,67,127,0
3,67,0,92
3,62,127,0
3,62,0,112
3,62,127,0
3,62,0,344
3,65,127,0
3,65,0,380
3,67,127,0
3,67,0,372
3,70,127,0
3,70,0,440
3,70,127,0
3,70,0,148
3,70,127,0
3,70,0,116
3,70,127,0
3,70,0,116
3,70,127,0
3,70,0,124
3,70,127,0
3,70,0,124
3,70,127,0
3,70,0,124
3,70,127,0
3,70,0,104
3,70,127,0
3,70,0,128
3,70,127,0
3,70,0,336
3,67,127,0
3,67,0,176
3,70,127,0
3,70,0,164
3,67,127,0
3,67,0,260
3,65,127,0
3,65,0,160
3,67,127,0
3,67,0,148
3,67,127,0
3,67,0,168
3,65,127,0
3,65,0,172
3,70,127,0
3,70,0,192
3,69,127,0
3,69,0,188
3,67,127,0
3,67,0,184
3,70,127,0
3,70,0,364
3,67,127,0
3,67,0,380
3,70,127,0
3,70,0,100
3,70,127,0
3,70,0,124
3,70,127,0
3,70,0,136
3,70,127,0
3,70,0,344
3,70,127,0
3,70,0,348
3,72,127,0
3,72,0,192
3,70,127,0
3,70,0,188
3,74,127,0
3,74,0,380
3,72,127,0
3,72,0,192
3,70,127,0
3,70,0,120
3,70,127,0
3,70,0,176
3,67,127,0
3,67,0,172
3,70,127,0
3,70,0,144
3,70,127,0
3,70,0,168
3,70,127,0
3,70,0,168
3,70,127,0
3,70,0,120
3,72,127,0
3,72,0,180
3,70,127,0
3,70,0,188
3,72,127,8
3,72,0,188
3,70,127,4
3,70,0,184
3,72,127,4
3,72,0,188
3,70,127,4
3,70,0,184
3,72,127,8
3,72,0,176
3,74,127,0
3,74,0,156
3,74,127,0
3,74,0,188
3,72,127,0
3,72,0,184
3,70,127,0
3,70,0,188
3,74,127,0
3,74,0,372
3,67,127,0
3,67,0,260
3,70,127,0
3,70,0,136
3,70,127,0
3,70,0,168
3,67,127,0
3,67,0,188
3,70,127,0
3,70,0,172
3,67,127,0
3,67,0,144
3,67,127,0
3,67,0,112
3,67,127,0
3,67,0,124
3,67,127,0
3,67,0,116
3,67,127,0
3,67,0,284
3,67,127,0
3,67,0,320
3,69,127,0
3,69,0,340
3,69,127,0
3,69,0,328
3,69,127,0
3,69,0,320
3,69,127,0
3,69,0,328
3,71,127,0
3,71,0,4
3,70,127,0
3,70,0,76
3,70,127,0
3,70,0,128
3,70,127,0
3,70,0,92
3,70,127,0
3,70,0,132
3,70,127,0
3,70,0,112
3,70,127,0
3,70,0,132
3,70,127,0
3,70,0,104
3,70,127,0
3,70,0,120
3,70,127,0
3,70,0,104
3,70,127,0
3,70,0,120
3,70,127,0
3,70,0,100
3,70,127,0
3,70,0,132
3,70,127,0
3,70,0,112
3,70,127,0
3,70,0,136
3,70,127,0
3,70,0,172
3,65,127,0
3,65,0,188
3,67,127,0
3,67,0,156
3,65,127,0
3,65,0,188
3,67,127,0
3,67,0,380
3,70,127,0
3,70,0,176
3,67,127,0
3,67,0,136
3,70,127,0
3,70,0,136
3,70,127,0
3,70,0,136
3,70,127,0
3,70,0,124
3,70,127,0
3,70,0,124
3,70,127,0
3,70,0,116
3,70,127,0
3,70,0,124
3,70,127,0
3,70,0,120
3,70,127,0
3,70,0,124
3,70,127,0
3,70,0,108
3,70,127,0
3,70,0,112
3,70,127,0
3,70,0,124
3,70,127,256
3,70,0,188
3,67,127,4
3,67,0,160
3,65,123,0
3,65,0,136
3,70,127,0
3,70,0,136
3,70,127,0
3,70,0,136
3,70,127,0
3,70,0,124
3,70,127,0
3,70,0,136
3,70,127,0
3,70,0,124
3,70,127,0
3,70,0,176
3,62,127,0
3,62,0,128
3,70,127,0
3,70,0,192
3,67,127,0
3,67,0,184
3,72,127,0
3,72,0,188
3,67,127,0
3,67,0,504
3,70,127,0
3,70,0,100
3,70,127,0
3,70,0,124
3,70,127,0
3,70,0,136
3,70,127,0
3,70,0,344
3,70,127,0
3,70,0,348
3,72,127,0
3,72,0,192
3,70,127,0
3,70,0,188
3,74,127,0
3,74,0,380
3,72,127,0
3,72,0,192
3,70,127,0
3,70,0,120
3,70,127,0
3,70,0,176
3,67,127,0
3,67,0,172
3,70,127,0
3,70,0,144
3,70,127,0
3,70,0,168
3,70,127,0
3,70,0,168
3,70,127,0
3,70,0,120
3,72,127,0
3,72,0,180
3,70,127,0
3,70,0,188
3,72,127,8
3,72,0,188
3,70,127,4
3,70,0,184
3,72,127,4
3,72,0,188
3,70,127,4
3,70,0,184
3,72,127,8
3,72,0,176
3,74,127,0
3,74,0,156
3,74,127,0
3,74,0,188
3,72,127,0
3,72,0,184
3,70,127,0
3,70,0,188
3,74,127,0
3,74,0,372
3,67,127,0
3,67,0,260
3,70,127,0
3,70,0,136
3,70,127,0
3,70,0,168
3,67,127,0
3,67,0,188
3,70,127,0
3,70,0,172
3,67,127,0
3,67,0,144
3,67,127,0
3,67,0,112
3,67,127,0
3,67,0,124
3,67,127,0
3,67,0,116
3,67,127,0
3,67,0,284
3,67,127,0
3,67,0,320
3,69,127,0
3,69,0,340
3,69,127,0
3,69,0,328
3,69,127,0
3,69,0,320
3,69,127,0
3,69,0,328
3,71,127,0
3,71,0,4
3,70,127,0
3,70,0,168
3,62,127,0
3,62,0,156
3,62,127,0
3,62,0,152
3,60,127,0
3,60,0,144
3,70,127,0
3,70,0,160
3,74,127,0
3,74,0,188
3,72,127,0
3,72,0,184
3,70,127,0
3,70,0,188
3,74,127,0
3,74,0,372
3,67,127,0
3,67,0,260
3,70,127,0
3,70,0,136
3,70,127,0
3,70,0,168
3,67,127,0
3,67,0,188
3,70,127,0
3,70,0,172
3,67,127,0
3,67,0,144
3,64,127,0
3,64,0,64
3,64,127,0
3,64,0,72
3,64,127,0
3,64,0,308
3,64,127,0
3,64,0,76
3,64,127,0
3,64,0,96
3,67,127,0
3,67,0,140
3,70,127,0
3,70,0,152
3,67,127,0
3,67,0,168
3,70,127,0
3,70,0,164
3,70,127,0
3,70,0,140
3,70,127,0
3,70,0,368
3,67,127,0
3,67,0,172
3,70,127,0
3,70,0,184
3,62,127,0
3,62,0,556
3,67,127,0
3,67,0,160
3,70,127,0
3,70,0,80
3,62,127,0
3,62,0,72
3,62,127,0
3,62,0,152
3,62,127,0
3,62,0,412
3,62,127,0
3,62,0,168
3,65,127,0
3,65,0,348
3,67,127,0
3,67,0,340
3,67,127,0
3,67,0,380
3,70,125,0
3,70,0,264
3,62,127,0
3,62,0,48
3,62,127,0
3,62,0,124
3,62,127,0
3,62,0,132
3,62,127,0
3,62,0,136
3,62,127,0
3,62,0,132
3,62,127,0
3,62,0,272
3,70,127,0
3,70,0,148
3,70,127,0
3,70,0,156
3,70,127,0
3,70,0,168
3,67,127,0
3,67,0,144
3,70,127,0
3,70,0,160
3,65,127,0
3,65,0,148
3,65,127,0
3,65,0,168
3,67,127,0
3,67,0,132
3,69,127,0
3,69,0,636
3,65,118,520
3,65,0,176
3,62,114,0
3,62,0,616
3,70,127,0
3,70,0,168
3,67,127,0
3,67,0,100
3,67,100,0
3,67,0,48
3,67,127,0
3,67,0,324
3,70,127,0
3,70,0,164
3,67,127,0
3,67,0,116
3,70,127,0
3,70,0,152
3,67,127,0
3,67,0,144
3,67,127,0
3,67,0,164
3,67,127,0
3,67,0,160
3,70,127,0
3,70,0,128
3,70,127,0
3,70,0,112
3,70,127,0
3,70,0,120
3,70,127,0
3,70,0,100
3,70,127,0
3,70,0,104
3,70,127,0
3,70,0,140
3,62,127,0
3,62,0,168
3,65,127,0
3,65,0,360
3,67,127,0
3,67,0,332
3,70,127,0
3,70,0,120
3,70,127,0
3,70,0,112
3,70,127,0
3,70,0,100
3,70,127,0
3,70,0,144
3,70,127,0
3,70,0,188
3,65,127,0
3,65,0,176
3,67,127,0
3,67,0,140
3,70,127,0
3,70,0,340
3,67,127,0
3,67,0,132
3,67,127,0
3,67,0,168
3,62,127,0
3,62,0,124
3,65,127,0
3,65,0,164
3,67,127,0
3,67,0,140
3,70,127,0
3,70,0,168
3,67,127,0
3,67,0,164
3,62,127,0
3,62,0,188
3,67,127,0
3,67,0,180
3,62,127,0
3,62,0,136
3,62,127,0
3,62,0,148
3,62,127,0
3,62,0,160
3,65,127,0
3,65,0,356
3,67,127,0
3,67,0,128
3,67,127,0
3,67,0,496
3,70,127,0
3,70,0,100
3,70,127,0
3,70,0,124
3,70,127,0
3,70,0,136
3,70,127,0
3,70,0,344
3,70,127,0
3,70,0,348
3,72,127,0
3,72,0,192
3,70,127,0
3,70,0,188
3,74,127,0
3,74,0,380
3,72,127,0
3,72,0,192
3,70,127,0
3,70,0,120
3,70,127,0
3,70,0,176
3,67,127,0
3,67,0,172
3,70,127,0
3,70,0,144
3,70,127,0
3,70,0,168
3,70,127,0
3,70,0,168
3,70,127,0
3,70,0,120
3,72,127,0
3,72,0,180
3,70,127,0
3,70,0,188
3,72,127,8
3,72,0,188
3,70,127,4
3,70,0,184
3,72,127,4
3,72,0,188
3,70,127,4
3,70,0,184
3,72,127,8
3,72,0,176
3,74,127,0
3,74,0,156
3,74,127,0
3,74,0,188
3,72,127,0
3,72,0,184
3,70,127,0
3,70,0,188
3,74,127,0
3,74,0,372
3,67,127,0
3,67,0,260
3,70,127,0
3,70,0,136
3,70,127,0
3,70,0,168
3,67,127,0
3,67,0,188
3,70,127,0
3,70,0,172
3,67,127,0
3,67,0,144
3,67,127,0
3,67,0,112
3,67,127,0
3,67,0,124
3,67,127,0
3,67,0,116
3,67,127,0
3,67,0,284
3,67,127,0
3,67,0,320
3,69,127,0
3,69,0,340
3,69,127,0
3,69,0,328
3,69,127,0
3,69,0,320
3,69,127,0
3,69,0,328
3,71,127,0
3,71,0,4
3,67,127,0
3,67,0,76
3,62,127,0
3,62,0,76
3,62,127,0
3,62,0,268
3,65,127,0
3,65,0,84
3,67,127,0
3,67,0,72
3,67,127,0
3,67,0,180
3,67,127,0
3,67,0,72
3,62,127,0
3,62,0,76
3,62,127,0
3,62,0,244
3,67,127,0
3,67,0,84
3,62,127,0
3,62,0,76
3,62,127,0
3,62,0,152
3,62,127,0
3,62,0,144
3,62,127,0
3,62,0,132
3,62,100,0
3,62,0,48
3,62,127,0
3,62,0,156
3,65,127,0
3,65,0,152
3,62,127,0
3,62,0,168
3,65,127,0
3,65,0,72
3,65,127,0
3,65,0,128
3,65,127,0
3,65,0,268
3,62,127,0
3,62,0,176
3,65,127,0
3,65,0,328
3,65,127,0
3,65,0,352
3,62,127,0
3,62,0,288
3,70,127,0
3,70,0,56
3,70,127,0
3,70,0,628
3,65,127,0
3,65,0,188
3,67,126,0
3,67,0,112
3,70,127,0
3,70,0,300
3,70,127,0
3,70,0,104
3,70,127,0
3,70,0,148
3,67,127,0
3,67,0,168
3,70,127,0
3,70,0,180
3,67,127,0
3,67,0,148
3,70,127,0
3,70,0,140
3,70,127,0
3,70,0,140
3,70,127,0
3,70,0,124
3,67,127,0
3,67,0,144
3,70,127,0
3,70,0,168
3,67,127,0
3,67,0,164
3,67,127,0
3,67,0,156
3,67,127,0
3,67,0,172
3,65,127,0
3,65,0,176
3,62,127,0
3,62,0,152
3,62,127,0
3,62,0,736
3,65,127,0
3,65,0,120
3,65,127,0
3,65,0,172
3,62,127,0
3,62,0,180
3,65,127,0
3,65,0,184
3,62,127,0
3,62,0,152
3,65,127,0
3,65,0,308
3,67,127,0
3,67,0,116
3,67,127,0
3,67,0,532
3,70,127,0
3,70,0,112
3,70,127,0
3,70,0,368
3,67,127,0
3,67,0,140
3,67,127,0
3,67,0,116
3,67,127,0
3,67,0,128
3,69,127,0
3,69,0,340
3,65,127,0
3,65,0,188
3,62,119,0
3,62,0,540
3,65,127,0
3,65,0,120
3,65,127,0
3,65,0,172
3,62,127,0
3,62,0,184
3,65,127,0
3,65,0,184
3,62,127,0
3,62,0,156
3,65,127,0
3,65,0,308
3,67,127,0
3,67,0,116
3,67,127,0
3,67,0,532
3,70,127,0
3,70,0,128
3,70,127,0
3,70,0,300
3,70,127,0
3,70,0,168
3,69,127,0
3,69,0,192
3,67,127,0
3,67,0,144
3,70,127,0
3,70,0,176
3,67,127,0
3,67,0,136
3,67,127,0
3,67,0,548
3,65,127,0
3,65,0,120
3,65,127,0
3,65,0,172
3,62,127,0
3,62,0,180
3,65,127,0
3,65,0,184
3,62,127,0
3,62,0,152
3,65,127,0
3,65,0,308
3,67,127,0
3,67,0,116
3,67,127,0
3,67,0,532
3,70,127,0
3,70,0,112
3,70,127,0
3,70,0,372
3,67,127,0
3,67,0,140
3,67,127,0
3,67,0,116
3,67,127,0
3,67,0,124
3,69,127,0
3,69,0,340
3,65,127,0
3,65,0,188
3,62,119,0
3,62,0,544
3,70,127,0
3,70,0,72
3,67,127,0
3,67,0,72
3,67,127,0
3,67,0,172
3,70,127,0
3,70,0,76
3,67,127,0
3,67,0,64
3,67,127,0
3,67,0,264
4,67,127,101036
4,74,127,0
4,77,127,0
4,67,0,116
4,74,0,4
4,77,0,8
4,67,127,640
4,74,127,0
4,77,127,0
4,74,0,124
4,77,0,8
4,67,0,0
4,67,127,636
4,74,127,0
4,77,127,0
4,67,0,124
4,74,0,12
4,77,0,4
4,67,127,628
4,74,127,0
4,77,127,0
4,74,0,132
4,67,0,0
4,77,0,8
4,67,127,628
4,74,127,0
4,77,127,0
4,67,0,136
4,77,0,4
4,74,0,12
4,67,127,616
4,74,127,0
4,77,127,0
4,77,0,116
4,67,0,0
4,74,0,12
4,55,127,36
4,62,127,0
4,67,127,0
4,67,0,36
4,62,0,20
4,55,0,16
4,55,127,36
4,62,127,0
4,67,127,0
4,67,0,36
4,62,0,20
4,55,0,16
4,55,127,36
4,62,127,0
4,67,127,0
4,67,0,36
4,62,0,20
4,55,0,16
4,55,127,36
4,62,127,0
4,67,127,0
4,67,0,36
4,62,0,20
4,55,0,16
5,31,127,0
5,31,0,376
5,31,127,200
5,31,0,76
5,31,127,116
5,31,0,380
5,31,127,196
5,31,0,100
5,31,127,92
5,31,0,376
5,31,127,200
5,31,0,68
5,36,127,124
5,36,0,152
5,34,127,40
5,34,0,140
5,29,127,52
5,29,0,172
5,30,127,20
5,30,0,176
5,31,127,16
5,31,0,380
