track,note,velocity,time
1,43,79,20598
1,43,76,80
1,43,75,98
1,43,52,30
1,43,77,46
1,43,76,106
1,43,75,100
1,45,82,8
1,45,77,86
1,45,62,36
1,45,78,42
1,45,76,86
1,45,74,84
1,45,72,10
1,43,77,52
1,43,74,20
1,43,72,18
1,43,75,72
1,43,76,66
1,43,78,90
1,43,77,140
1,47,78,30
1,47,76,112
1,47,76,92
1,40,79,2
1,47,80,24
1,52,78,10
1,45,70,154
1,45,68,78
1,45,68,98
1,45,66,72
1,45,69,52
1,45,66,118
1,45,68,92
1,44,70,38
1,42,72,2
1,42,71,70
1,42,69,94
1,42,69,112
1,42,70,80
1,42,69,124
1,42,70,72
1,42,71,98
1,47,70,104
1,47,69,84
1,47,67,112
1,40,70,92
1,38,77,10786
1,38,77,106
1,43,72,148
1,43,71,10
1,43,71,92
1,43,68,42
1,43,71,16
1,43,71,58
1,43,70,76
1,43,70,56
1,45,70,8
1,45,71,2
1,45,70,96
1,45,67,50
1,45,70,32
1,45,67,44
1,45,69,30
1,45,68,78
1,43,72,44
1,43,71,10
1,43,71,92
1,43,68,42
1,43,71,16
1,43,71,58
1,43,70,76
1,43,70,56
1,47,92,8
1,47,92,70
1,47,92,50
1,40,93,70
1,47,93,2
1,52,93,2
1,45,75,22
1,45,71,152
1,45,71,70
1,40,72,2
1,45,71,2
1,45,70,112
1,45,71,92
1,44,72,38
1,42,74,4
1,42,74,112
1,42,76,98
1,37,73,22
1,42,73,2
1,42,76,92
1,42,75,86
1,40,73,42
1,35,72,2
1,42,72,2
1,47,72,2
1,47,71,278
1,40,74,2
1,47,72,2
1,52,74,2
1,45,75,544
1,45,71,152
1,45,71,70
1,40,72,2
1,45,71,2
1,45,70,112
1,45,71,92
1,44,72,38
1,42,74,4
1,42,74,112
1,42,76,98
1,37,73,22
1,42,73,2
1,42,76,92
1,42,75,86
1,40,73,42
1,35,72,2
1,42,72,2
1,47,72,2
1,47,71,278
1,40,74,2
1,47,72,2
1,52,74,2
1,38,74,544
1,45,71,2
1,54,72,38
1,33,73,868
1,40,71,24
1,49,72,46
1,38,73,678
1,45,73,2
1,54,72,32
1,33,73,658
1,40,72,2
1,49,72,2
1,38,74,650
1,45,72,2
1,54,72,16
1,33,73,726
1,40,71,2
1,49,71,2
1,36,75,622
1,43,73,2
1,52,69,2
1,45,75,2008
1,45,71,152
1,45,71,70
1,40,72,2
1,45,71,2
1,45,70,112
1,45,71,92
1,44,72,38
1,42,74,4
1,42,74,112
1,42,76,98
1,37,73,22
1,42,73,2
1,42,76,92
1,42,75,86
1,40,73,42
1,35,72,2
1,42,72,2
1,47,72,2
1,47,71,278
1,40,74,2
1,47,72,2
1,52,74,2
1,45,75,544
1,45,71,152
1,45,71,70
1,40,72,2
1,45,71,2
1,45,70,112
1,45,71,92
1,44,72,38
1,42,74,4
1,42,74,112
1,42,76,98
1,37,73,22
1,42,73,2
1,42,76,92
1,42,75,86
1,40,73,42
1,35,72,2
1,42,72,2
1,47,72,2
1,47,71,278
1,40,74,2
1,47,72,2
1,52,74,2
2,60,96,610
2,58,96,2
2,61,99,2
2,62,86,2
2,60,96,216
2,58,96,2
2,61,99,2
2,64,86,2
2,54,97,33816
2,57,95,16
2,57,97,70
2,59,96,2
2,64,70,34
2,66,70,16
2,66,79,70
2,66,72,70
2,62,98,13826
2,61,94,2
2,59,94,2
2,57,91,2
2,57,93,2
2,52,82,554
2,57,83,2
2,57,84,2
2,57,83,2
2,57,84,2
2,52,82,2
2,52,82,2
2,62,98,1832
2,61,94,2
2,59,94,2
2,57,91,2
2,59,93,2
2,57,99,11882
2,56,100,2
2,56,103,74
2,54,96,40
2,54,99,82
2,52,95,2
2,57,100,6
2,52,95,164
2,54,96,2
2,52,93,6
2,57,97,6
2,56,89,2
2,54,75,2
2,61,99,386
2,59,105,36
2,59,105,32
2,57,98,22
2,61,101,28
2,59,101,2
2,61,101,2
2,61,101,2
2,62,100,2
2,61,100,22
2,56,95,2
2,54,93,2
2,57,99,14580
2,56,100,2
2,56,103,74
2,54,96,40
2,54,99,82
2,52,95,2
2,57,100,6
2,52,95,164
2,54,96,2
2,52,93,6
2,57,97,6
2,56,89,2
2,54,75,2
2,61,99,386
2,59,105,36
2,59,105,32
2,57,98,22
2,61,101,28
2,59,101,2
2,61,101,2
2,61,101,2
2,62,100,2
2,61,100,22
2,56,95,2
2,54,93,2
2,57,99,2292
2,56,100,2
2,56,103,74
2,54,96,40
2,54,99,82
2,52,95,2
2,57,100,6
2,52,95,164
2,54,96,2
2,52,93,6
2,57,97,6
2,56,89,2
2,54,75,2
2,61,99,386
2,59,105,36
2,59,105,32
2,57,98,22
2,61,101,28
2,59,101,2
2,61,101,2
2,61,101,2
2,62,100,2
2,61,100,22
2,56,95,2
2,54,93,2
2,60,96,2292
2,58,96,2
2,61,99,2
2,62,86,2
2,60,96,216
2,58,96,2
2,61,99,2
2,64,86,2
3,52,116,7886
3,59,116,2
3,57,116,20
3,61,120,2
3,59,118,2
3,57,116,2
3,52,117,2
3,61,120,66
3,59,118,4
3,62,117,2
3,61,117,6
3,52,116,568
3,59,116,2
3,57,116,20
3,61,120,2
3,59,118,2
3,57,116,2
3,52,117,2
3,61,120,66
3,59,118,4
3,62,117,2
3,61,117,6
3,57,119,760
3,59,123,2
3,61,127,2
3,62,126,12
3,64,119,2
3,59,120,2
3,62,120,372
3,62,127,2
3,61,127,2
3,62,120,2
3,61,127,12
3,57,127,2
3,57,119,1112
3,59,123,2
3,61,127,2
3,62,126,12
3,64,119,2
3,59,120,2
3,66,123,192
3,64,123,2
3,62,123,2
3,64,123,2
3,64,127,2
3,52,117,22
3,62,120,28
3,64,118,86
3,61,120,48
3,61,117,40
3,57,115,2
3,64,123,22
3,61,124,2
3,61,127,74
3,59,120,40
3,59,123,82
3,57,119,2
3,61,124,6
3,52,119,164
3,59,120,2
3,57,117,6
3,61,121,6
3,59,113,2
3,57,99,2
3,64,123,386
3,61,127,36
3,61,127,32
3,57,122,22
3,66,125,28
3,61,125,2
3,64,125,2
3,64,125,2
3,66,124,2
3,64,124,22
3,59,119,2
3,57,117,2
3,52,122,564
3,52,118,80
3,57,121,0
3,59,120,192
3,52,116,1390
3,59,116,2
3,57,116,20
3,61,120,2
3,59,118,2
3,57,116,2
3,52,117,2
3,61,120,66
3,59,118,4
3,62,117,2
3,61,117,6
3,52,116,568
3,59,116,2
3,57,116,20
3,61,120,2
3,59,118,2
3,57,116,2
3,52,117,194
3,61,120,0
3,62,118,4
3,64,117,2
3,59,117,6
3,57,119,760
3,59,123,2
3,61,127,2
3,62,126,12
3,64,119,2
3,59,120,2
3,62,120,372
3,62,127,2
3,61,127,2
3,62,120,2
3,61,127,12
3,57,127,2
3,57,119,1112
3,59,123,2
3,61,127,2
3,62,126,12
3,64,119,2
3,59,120,2
3,66,123,192
3,64,123,2
3,62,123,2
3,64,123,2
3,64,127,2
3,52,117,22
3,62,120,28
3,64,118,86
3,61,120,48
3,61,117,40
3,57,115,2
3,64,123,22
3,61,124,2
3,61,127,74
3,59,120,40
3,59,123,82
3,57,119,2
3,61,124,6
3,52,119,164
3,59,120,2
3,57,117,6
3,61,121,6
3,59,113,2
3,57,99,2
3,64,123,386
3,61,127,36
3,61,127,32
3,57,122,22
3,66,125,28
3,61,125,2
3,64,125,2
3,64,125,2
3,66,124,2
3,64,124,22
3,59,119,2
3,57,117,2
3,66,127,564
3,66,127,40
3,61,123,24
3,64,123,2
3,64,123,476
3,61,124,2
3,61,127,74
3,59,120,40
3,59,123,82
3,57,119,2
3,61,124,6
3,52,119,164
3,59,120,2
3,57,117,6
3,61,121,6
3,59,113,2
3,57,99,2
3,64,123,386
3,61,127,36
3,61,127,32
3,57,122,22
3,66,125,28
3,61,125,2
3,64,125,2
3,64,125,2
3,66,124,2
3,64,124,22
3,59,119,2
3,57,117,2
3,52,127,564
3,52,127,40
3,57,123,24
3,59,123,2
3,61,125,1052
3,61,126,106
3,59,119,20
3,57,120,12
3,57,123,60
3,52,120,26
3,57,123,192
3,59,120,382
3,61,126,862
3,61,120,52
3,61,121,60
3,59,116,20
3,57,119,66
3,57,118,68
3,64,121,58
3,59,119,2
3,66,122,386
3,66,122,66
3,66,123,66
3,64,118,2
3,61,122,4
3,64,121,2
3,66,122,2
3,61,121,2
3,64,121,2
3,66,120,2
3,64,125,206
3,67,127,14
3,64,118,2
3,64,122,50
3,62,123,12
3,62,123,46
3,60,119,12
3,60,121,44
3,59,117,12
3,59,118,34
3,60,118,2
3,57,117,2
3,60,120,50
3,59,120,2
3,64,123,2
3,61,124,2
3,61,127,74
3,59,120,40
3,59,123,82
3,57,119,2
3,61,124,6
3,52,119,164
3,59,120,2
3,57,117,6
3,61,121,6
3,59,113,2
3,57,99,2
3,64,123,386
3,61,127,36
3,61,127,32
3,57,122,22
3,66,125,28
3,61,125,2
3,64,125,2
3,64,125,2
3,66,124,2
3,64,124,22
3,59,119,2
3,57,117,2
3,64,127,564
3,66,127,40
3,61,123,24
3,64,123,2
3,64,123,476
3,61,124,2
3,61,127,74
3,59,120,40
3,59,123,82
3,57,119,2
3,61,124,6
3,52,119,164
3,59,120,2
3,57,117,6
3,61,121,6
3,59,113,2
3,57,99,2
3,64,123,386
3,61,127,36
3,61,127,32
3,57,122,22
3,66,125,28
3,61,125,2
3,64,125,2
3,64,125,2
3,66,124,2
3,64,124,22
3,59,119,2
3,57,117,2
3,52,127,564
3,52,127,40
3,57,123,24
3,59,123,2
4,56,96,562
4,54,96,2
4,59,99,2
4,58,86,2
4,56,96,2
4,54,96,2
4,59,99,2
4,59,86,2
4,61,62,7682
4,59,70,384
4,62,82,182
4,66,79,30
4,69,78,6
4,69,78,68
4,69,78,70
4,62,80,430
4,62,80,2
4,61,80,20
4,64,84,2
4,62,82,2
4,61,80,2
4,64,81,2
4,64,84,66
4,62,82,4
4,66,81,2
4,64,81,6
4,62,80,568
4,62,80,34
4,61,80,20
4,64,84,2
4,62,82,2
4,61,80,2
4,64,81,194
4,64,84,26
4,66,70,4
4,68,48,2
4,66,98,3078
4,64,94,2
4,62,94,2
4,64,91,2
4,64,93,2
4,57,94,554
4,62,95,2
4,61,96,2
4,62,95,2
4,61,96,2
4,57,94,2
4,59,94,2
4,66,98,1832
4,64,94,2
4,62,94,2
4,64,91,2
4,64,93,2
4,64,99,11882
4,64,100,2
4,64,103,74
4,62,96,40
4,62,99,82
4,61,95,2
4,64,100,6
4,57,95,164
4,62,96,2
4,61,93,6
4,64,97,6
4,62,89,2
4,61,75,2
4,66,99,386
4,64,105,36
4,64,105,32
4,61,98,22
4,66,101,28
4,64,101,2
4,69,87,2
4,69,90,2
4,71,90,2
4,69,86,22
4,62,82,2
4,61,75,2
4,64,99,14580
4,64,100,2
4,64,103,74
4,62,96,40
4,62,99,82
4,61,95,2
4,64,100,6
4,57,95,164
4,62,96,2
4,61,93,6
4,64,97,6
4,62,89,2
4,61,75,2
4,66,99,386
4,64,105,36
4,64,105,32
4,61,98,22
4,66,101,28
4,64,101,2
4,69,87,2
4,69,90,2
4,71,90,2
4,69,86,22
4,62,82,2
4,61,75,2
4,64,99,2292
4,64,100,2
4,64,103,74
4,62,96,40
4,62,99,82
4,61,95,2
4,64,100,6
4,57,95,164
4,62,96,2
4,61,93,6
4,64,97,6
4,62,89,2
4,61,75,2
4,66,99,386
4,64,105,36
4,64,105,32
4,61,98,22
4,66,101,28
4,64,101,2
4,69,87,2
4,69,90,2
4,71,90,2
4,69,86,22
4,62,82,2
4,61,75,2
4,56,96,2292
4,54,96,2
4,59,99,2
4,58,86,2
4,56,96,2
4,54,96,2
4,59,99,2
4,59,86,2
5,71,93,20426
5,69,92,2
5,67,94,2
5,66,91,2
5,64,92,2
5,62,92,2
5,61,92,2
5,62,92,2
5,61,92,2
5,62,92,2
5,64,92,2
5,71,93,2
5,69,92,2
5,67,94,2
5,66,91,2
5,64,92,2
5,62,92,2
5,64,92,2
5,59,76,8066
5,62,78,0
5,66,69,0
5,64,65,2
5,54,80,768
5,57,80,2
5,69,80,2
5,88,72,0
5,64,85,3074
5,66,89,960
5,69,87,162
5,71,87,172
5,73,93,74
5,76,86,46
5,74,86,542
5,73,86,2
5,71,86,368
5,69,86,554
5,73,86,560
5,71,86,368
5,69,86,560
5,68,106,368
5,69,109,176
5,71,113,176
5,73,86,176
5,74,81,560
5,76,69,560
5,71,93,368
5,69,92,2
5,67,94,2
5,66,91,2
5,64,92,2
5,62,92,2
5,61,92,2
5,62,92,2
5,61,92,2
5,62,92,2
5,64,92,2
5,71,93,2
5,69,92,2
5,67,94,2
5,66,91,2
5,64,92,2
5,62,92,2
5,64,92,2
5,64,99,1922
5,61,98,192
5,57,99,370
5,59,102,168
5,57,99,188
5,61,88,160
5,59,76,1900
5,64,68,2304
5,76,106,2
5,73,105,192
5,69,106,370
5,71,109,168
5,69,106,188
5,73,86,160
5,61,95,1912
5,59,76,3052
5,62,78,0
5,66,69,0
5,52,80,2
5,64,65,0
5,76,91,12482
5,73,95,2
5,69,89,2
5,71,85,192
5,69,88,2
5,73,90,192
5,69,90,538
5,71,87,188
5,69,88,162
5,73,97,186
5,69,88,164
5,73,97,162
5,69,87,182
5,69,97,2
5,73,97,0
5,64,87,2
5,69,87,0
5,69,99,2
5,73,99,0
5,64,89,2
5,69,89,0
5,69,99,2
5,73,99,0
5,64,91,2
5,69,91,0
5,69,101,2
5,73,101,0
5,64,89,2
5,69,89,0
5,69,99,2
5,73,99,0
5,64,88,2
5,69,88,0
5,69,101,2
5,73,101,0
5,64,86,2
5,69,86,0
5,69,99,2
5,73,99,0
5,64,85,2
5,69,85,0
5,69,97,2
5,73,97,0
5,64,88,2
5,69,88,0
5,62,97,2
5,71,97,0
5,61,87,2
5,69,87,0
5,62,99,2
5,71,99,0
5,61,89,2
5,69,89,0
5,62,99,2
5,71,99,0
5,61,91,2
5,69,91,0
5,62,101,2
5,71,101,0
5,61,89,2
5,69,89,0
5,62,99,2
5,71,99,0
5,61,88,2
5,69,88,0
5,62,101,2
5,71,101,0
5,61,86,2
5,69,86,0
5,62,99,2
5,71,99,0
5,61,85,2
5,69,85,0
5,62,97,2
5,71,97,0
5,61,88,2
5,73,88,0
5,76,91,192
5,73,95,2
5,69,89,2
5,71,85,192
5,69,88,2
5,73,90,192
5,69,90,538
5,71,87,188
5,69,88,162
5,73,97,186
5,69,88,164
5,73,97,162
5,69,87,182
5,69,97,2
5,73,97,0
5,64,87,2
5,69,87,0
5,69,99,2
5,73,99,0
5,64,89,2
5,69,89,0
5,69,99,2
5,73,99,0
5,64,91,2
5,69,91,0
5,69,101,2
5,73,101,0
5,64,89,2
5,69,89,0
5,69,99,2
5,73,99,0
5,64,88,2
5,69,88,0
5,69,101,2
5,73,101,0
5,64,86,2
5,69,86,0
5,69,99,2
5,73,99,0
5,64,85,2
5,69,85,0
5,69,97,2
5,73,97,0
5,64,88,2
5,69,88,0
5,62,97,2
5,71,97,0
5,61,87,2
5,69,87,0
5,62,99,2
5,71,99,0
5,61,89,2
5,69,89,0
5,62,99,2
5,71,99,0
5,61,91,2
5,69,91,0
5,62,101,2
5,71,101,0
5,61,89,2
5,69,89,0
5,62,99,2
5,71,99,0
5,61,88,2
5,73,88,0
5,62,101,2
5,74,101,0
5,64,86,2
5,76,86,0
5,58,103,2210
5,60,97,2
5,62,99,2
5,63,105,2
5,65,99,2
5,67,101,2
5,68,105,2
5,70,104,2
5,72,101,2
5,73,102,2
5,75,101,2
5,77,97,2
5,78,108,2
5,80,106,2
5,81,71,2
5,52,56,192
5,59,56,0
5,67,56,0
5,74,56,0
5,78,53,0
6,69,92,21934
6,71,90,2
6,69,90,0
6,71,90,0
6,69,90,0
6,71,92,0
6,69,92,0
6,71,92,0
6,69,90,0
6,71,90,0
6,69,89,0
6,71,89,0
6,69,88,0
6,71,89,0
6,69,87,0
6,71,86,0
6,69,86,0
6,69,89,1536
6,71,92,2
6,73,92,0
