track,note,velocity,time
1,59,109,4763
1,59,109,28
1,62,109,18
1,59,109,4
1,57,109,264
1,62,109,64
1,62,109,30
1,59,109,11
1,59,109,16
1,59,109,282
1,59,109,64
1,59,109,38
1,62,109,10
1,59,109,6
1,59,109,134
1,59,109,132
1,64,109,62
1,62,109,22
1,59,109,20
1,57,109,300
1,59,109,64
1,57,107,10
1,59,109,6
1,62,109,23
1,59,109,4
1,57,109,270
1,59,109,4
1,62,109,62
1,62,109,38
1,59,109,6
1,57,109,264
1,59,109,74
1,59,109,58
1,62,109,10
1,59,109,10
1,59,109,338
1,64,109,69
1,62,109,16
1,59,109,12
1,62,109,300
1,62,109,76
1,64,109,56
1,64,109,34
1,62,109,276
1,64,109,26
1,64,109,38
1,59,109,10
1,62,109,414
1,64,109,58
1,62,109,20
1,64,109,16
1,64,109,20
1,62,109,300
1,64,109,6
1,62,109,20
1,59,109,12
1,62,109,390
1,64,109,32
1,62,109,50
1,64,109,12
1,64,109,26
1,62,109,316
1,64,109,58
1,62,109,6
1,59,109,10
1,62,109,346
1,64,109,32
1,62,109,10
1,64,109,18
1,64,109,16
1,62,109,310
1,64,109,22
1,62,109,44
1,66,109,148
1,66,109,70
1,66,109,76
1,64,109,24
1,62,109,12
1,59,109,24
1,59,109,32
1,59,109,286
1,62,109,42
1,62,109,24
1,59,109,0
1,59,109,60
1,57,109,314
1,59,109,42
1,62,109,26
1,64,109,28
1,59,109,4
1,57,109,309
1,62,109,40
1,62,109,17
1,59,109,56
1,57,109,440
1,59,109,22
1,62,109,29
1,62,109,62
1,59,109,28
1,57,109,294
1,62,109,66
1,64,109,39
1,59,109,10
1,59,109,48
1,57,109,328
1,59,109,49
1,62,109,32
1,64,109,60
1,59,109,42
1,59,109,278
1,62,109,64
1,62,109,38
1,59,109,0
1,59,109,32
1,57,109,254
1,59,109,64
1,59,109,17
1,59,109,44
1,59,109,5870
1,59,109,60
1,62,109,68
1,59,109,32
1,57,109,244
1,57,109,48
1,59,109,16
1,57,109,12
1,59,109,72
1,59,109,36
1,59,109,300
1,59,109,63
1,59,109,16
1,59,109,54
1,59,109,33
1,57,109,288
1,57,109,48
1,64,109,0
1,62,109,16
1,59,109,18
1,59,109,54
1,57,109,301
1,59,109,64
1,57,109,6
1,59,109,50
1,59,109,98
1,59,109,242
1,57,109,59
1,59,109,22
1,59,109,22
1,57,109,40
1,59,109,60
1,59,109,48
1,59,109,242
1,59,109,48
1,62,109,12
1,59,109,13
1,64,109,60
1,59,109,17
1,59,109,302
1,57,109,54
1,59,109,10
1,57,109,0
1,59,109,66
1,57,109,16
1,59,109,310
1,62,109,64
1,59,109,54
1,64,109,66
1,64,109,32
1,64,109,246
1,62,109,54
1,64,109,12
1,62,109,44
1,66,109,60
1,64,109,14
1,64,109,338
1,62,109,62
1,64,109,44
1,64,109,32
1,62,109,274
1,64,109,76
1,62,109,6
1,59,109,60
1,59,109,38
1,64,109,328
1,64,109,66
1,62,109,82
1,64,109,56
1,64,109,26
1,64,109,226
1,62,109,20
1,64,109,40
1,62,109,32
1,62,109,530
1,64,109,70
1,62,109,43
1,64,109,66
1,64,109,32
1,64,109,288
1,64,109,66
1,62,109,4
1,66,109,64
1,66,109,42
1,66,109,158
1,64,109,26
1,62,109,6
1,59,109,35
1,59,109,37
1,59,109,236
1,62,109,70
1,64,109,7
1,59,109,10
1,59,109,44
1,57,109,284
1,59,109,65
1,57,109,10
1,62,109,33
1,59,109,144
1,59,109,322
1,61,109,10
1,62,109,66
1,62,109,40
1,59,109,52
1,59,109,44
1,57,109,280
1,59,109,10
1,59,109,22
1,62,109,58
1,59,109,4
1,64,109,335
1,62,109,16
1,57,109,6
1,59,109,16
1,59,109,26
1,57,109,290
1,59,109,52
1,57,109,34
1,62,109,66
1,59,109,22
1,57,109,238
1,59,109,98
1,57,109,28
1,59,109,54
1,59,109,374
1,59,109,10842
1,59,109,24
1,62,109,24
1,59,109,14
1,57,109,234
1,59,109,16
1,59,109,26
1,59,109,13
1,59,109,32
1,57,109,236
1,57,109,52
1,59,109,16
1,59,109,18
1,57,109,44
1,62,109,32
1,59,109,16
1,59,109,235
1,59,109,48
1,64,109,0
1,62,109,19
1,59,109,16
1,59,109,26
1,57,109,244
1,57,109,48
1,59,109,4
1,57,109,4
1,59,109,60
1,59,109,32
1,57,109,246
1,57,109,54
1,59,109,42
1,57,109,0
1,59,109,50
1,59,109,39
1,59,109,248
1,59,109,32
1,59,109,32
2,71,83,761
2,59,83,0
2,66,83,1
2,69,83,38
2,71,83,52
2,66,83,0
2,59,83,0
2,54,83,0
2,59,83,0
2,63,83,1
2,54,83,44
2,63,83,0
2,59,83,1
2,64,83,27
2,63,83,974
2,61,83,4
2,57,83,0
2,62,83,72
2,59,83,0
2,52,83,1
2,52,83,0
2,62,83,0
2,59,83,0
2,54,83,723
2,58,83,2
2,61,83,0
2,66,83,0
2,54,83,75
2,63,83,0
2,59,83,1
2,63,83,44
2,59,83,0
2,54,83,1
2,64,83,10
2,63,83,5
2,61,83,4
2,57,83,0
2,71,83,94
2,66,83,0
2,59,83,2
2,63,83,6141
2,54,83,0
2,59,83,0
2,64,83,2
2,59,83,28
2,63,83,0
2,54,83,40
2,61,83,8
2,57,83,0
2,56,83,58
2,62,83,0
2,52,83,0
2,59,83,1524
2,54,83,100
2,61,83,10
2,66,83,2
2,66,83,66
2,59,83,0
2,71,83,12
2,66,83,1456
2,71,83,0
2,59,83,0
2,54,83,21
2,63,83,1
2,59,83,0
2,64,83,2
2,54,83,44
2,63,83,0
2,59,83,0
2,61,83,16
2,57,83,10
2,59,83,22
2,66,83,0
2,71,83,10
2,59,83,60
2,66,83,10
2,71,83,0
2,78,83,2262
2,81,83,110
2,78,83,4
2,83,83,44
2,85,83,4
2,90,83,564
2,90,83,58
2,59,83,0
2,71,83,6
2,66,83,0
3,57,122,9
3,59,122,1
3,66,122,0
3,74,98,52
3,66,115,46
3,64,78,240
3,62,85,12
3,59,88,2
3,57,115,6
3,52,101,56
3,50,90,132
3,47,106,40
3,47,103,37
3,59,115,12
3,59,106,55
3,57,94,4
3,54,119,4
3,57,99,108
3,59,94,4
3,52,115,6038
3,55,103,18
3,56,74,44
3,64,90,4
3,62,70,40
3,55,119,3396
3,56,102,6
3,64,80,16
3,62,82,42
3,62,77,0
3,52,82,844
3,53,85,42
3,54,98,38
3,57,90,32
3,58,95,44
3,61,92,34
3,66,104,14
3,54,87,6350
3,59,80,0
3,47,108,466
3,47,89,152
3,54,98,10
3,59,89,0
3,59,98,152
3,54,111,0
3,47,106,640
3,54,95,20
3,59,89,0
3,59,75,11
3,54,90,0
3,47,89,528
3,47,91,72
3,54,97,20
3,59,89,0
3,59,90,28
3,54,92,2
3,59,89,64
3,54,95,0
3,54,58,124
3,47,94,26
3,54,94,10
3,59,92,2
3,59,82,464
3,54,90,0
3,47,92,551
3,59,87,68
3,54,98,0
3,54,98,126
3,59,84,0
3,54,92,16
3,59,87,2
3,47,92,445
3,54,88,4
3,59,78,2
3,59,75,17
3,54,85,0
3,54,82,74
3,59,78,0
3,47,94,370
3,47,82,56
3,54,92,16
3,59,83,10
3,54,97,16
3,59,88,0
3,47,88,72
3,62,80,18
3,57,72,8
3,47,88,16
3,54,88,16
3,59,81,0
3,47,94,16
3,47,93,152
3,54,88,10
3,59,89,8
3,55,111,6270
3,56,97,2
3,59,86,40
3,71,82,36
3,64,80,0
3,55,122,2448
3,56,104,32
3,64,73,0
3,62,88,54
3,62,91,138
3,64,77,10
3,62,83,18
3,64,99,138
3,59,108,1
3,64,101,96
3,59,111,0
3,59,101,84
3,64,106,0
3,64,73,2
3,54,119,96
3,61,122,0
3,66,107,0
3,54,119,104
3,61,122,2
3,66,115,0
3,54,122,112
3,66,104,0
3,61,122,1
3,64,90,6
3,62,89,0
3,59,90,17
3,57,99,12
3,59,89,102
3,54,102,0
3,54,96,106
3,59,88,0
3,54,83,108
3,47,77,0
3,59,81,0
3,54,94,246
3,47,89,0
3,59,89,2
3,54,95,110
3,59,85,10
3,47,75,70
3,54,83,34
3,59,81,6
3,54,94,190
3,59,82,0
3,47,89,0
3,54,90,110
3,59,80,0
3,47,83,0
3,54,83,105
3,47,85,0
3,59,83,2
3,59,89,194
3,47,85,0
3,54,95,1
3,54,89,98
3,59,82,0
3,47,85,12
3,47,89,62
3,54,75,7
3,59,71,0
3,59,73,10
3,54,84,2
3,47,91,38
3,54,79,0
3,59,78,0
3,54,92,58
3,59,92,2
3,47,82,11
3,54,98,104
3,59,91,10
3,47,82,70
3,59,82,10
3,54,75,10
3,59,89,236
3,54,95,0
3,47,94,1
3,54,96,104
3,59,89,0
3,47,89,0
3,47,89,72
3,59,86,16
3,54,88,0
3,54,96,204
3,59,82,0
3,47,91,0
3,54,89,102
3,59,86,0
3,47,86,12
3,47,90,112
3,54,78,0
3,59,75,0
3,54,103,190
3,54,99,114
3,59,97,0
3,47,98,66
3,59,97,3
3,54,96,0
3,74,122,151
3,71,122,17
3,69,122,12
3,66,122,12
3,71,115,46
3,69,118,34
3,66,122,46
3,64,115,1
3,65,122,6
3,66,119,48
3,64,122,47
3,62,122,16
3,64,122,47
3,62,122,1
3,59,115,47
3,57,122,45
3,59,122,41
3,62,118,10
3,59,122,10
3,57,122,0
3,59,122,48
3,57,122,46
3,54,122,44
3,53,117,0
3,54,99,1
3,54,122,38
3,57,122,45
3,58,122,43
3,59,122,0
3,58,107,0
3,62,122,0
3,57,122,1
3,59,108,9
3,66,122,116
3,64,108,6
3,64,93,18
3,64,74,2
3,64,103,6
3,62,106,16
3,64,92,46
3,62,94,31
3,64,93,25
3,62,98,18
3,59,98,0
3,71,94,2
3,69,89,20
3,66,92,41
3,71,87,6
3,74,87,6
3,71,90,36
3,74,84,0
3,78,91,2
3,76,98,32
3,74,89,36
3,71,86,4
3,76,85,30
3,74,85,6
3,71,86,39
3,66,100,48
3,59,103,0
3,66,119,38
3,59,101,0
3,66,119,2
3,59,106,0
3,66,119,24
3,59,99,0
3,66,115,38
3,59,108,0
3,59,111,21
3,64,108,0
3,66,77,16
3,47,98,5880
3,47,94,68
3,54,83,14
3,59,83,3
3,47,94,282
3,47,89,72
3,54,75,33
3,47,84,36
3,54,107,36
3,59,90,1
3,47,99,288
3,47,82,84
3,54,95,37
3,59,76,0
3,54,97,18
3,59,84,1
3,62,99,25
3,57,96,1
3,54,98,24
3,59,69,16
3,54,75,0
3,54,64,331
3,47,93,28
3,47,106,76
3,59,91,22
3,54,107,0
3,58,84,0
3,54,100,41
3,59,98,0
3,47,106,308
3,54,83,14
3,59,67,8
3,54,80,26
3,59,75,0
3,47,90,24
3,54,102,28
3,59,92,0
3,47,91,240
3,47,96,68
3,54,97,18
3,54,95,56
3,59,92,8
3,62,89,60
3,57,84,0
3,54,111,35
3,59,96,0
3,54,95,158
3,59,82,0
3,59,79,112
3,54,98,0
3,47,119,66
3,54,98,22
3,59,89,0
3,54,89,24
3,59,84,0
3,47,94,22
3,54,97,18
3,59,94,8
3,47,92,122
3,54,77,4
3,59,79,10
3,59,75,18
3,54,61,0
3,47,85,5
3,57,82,18
3,62,81,0
3,47,85,6
3,59,71,22
3,54,65,0
3,47,67,24
3,62,78,26
3,57,78,2
3,47,90,1
3,54,81,29
3,59,78,0
3,47,108,5
3,58,77,10
3,59,98,0
3,42,104,32
3,47,111,10
3,54,107,10
3,59,99,30
3,47,122,8
3,54,111,7
3,59,122,6
3,66,111,0
3,64,106,1816
3,59,122,0
3,47,91,2
3,52,106,8
3,54,100,2
3,59,90,0
3,54,102,30
3,47,108,7
3,57,108,3110
3,58,107,46
3,59,111,2
3,62,94,20
3,63,94,12
3,66,94,36
3,71,96,40
3,54,102,3
3,47,89,0
3,59,88,2
3,54,95,45
3,59,88,0
3,47,89,9
3,47,84,7
3,59,85,16
3,54,90,0
3,47,73,0
3,59,78,12
3,54,83,8
3,47,85,0
3,54,70,16
3,59,72,0
3,47,88,16
3,54,119,2
3,59,108,0
3,54,119,1
3,59,109,0
3,47,105,1
3,54,118,2
3,59,114,0
3,57,111,2
3,62,110,0
3,74,122,2
3,71,122,1
3,69,122,1
3,66,120,1
3,71,116,1
3,69,115,0
3,66,122,1
3,64,112,0
3,65,122,0
3,66,114,1
3,64,120,1
3,62,122,1
3,64,122,1
3,62,122,1
3,59,122,1
3,57,112,1
3,59,122,1
3,62,121,0
3,59,122,1
3,57,118,0
3,59,122,1
3,57,122,1
3,54,122,1
3,53,122,1
3,54,122,1
3,57,110,1
3,58,122,1
3,59,122,1
3,58,103,0
3,57,122,1
3,62,122,0
3,62,122,1
3,59,122,1
3,57,122,1
3,54,122,1
3,59,109,1
3,57,104,1
3,54,122,1
3,52,111,1
3,53,122,1
3,54,111,1
3,52,122,0
3,54,71,0
3,50,122,1
3,52,122,1
3,50,122,0
3,47,122,1
3,45,122,1
3,47,122,1
3,50,122,1
3,47,122,1
3,45,122,1
3,47,122,1
3,45,122,1
3,42,122,0
3,41,122,0
3,42,97,0
3,42,122,4
3,45,122,40
3,46,122,47
3,47,122,0
3,46,103,0
3,45,118,4
3,50,122,0
3,47,122,48
3,54,122,1
3,59,122,0
4,59,90,754
4,54,97,63
4,59,83,87
4,54,80,65
4,59,80,16
4,59,91,55
4,54,85,37
4,59,71,97
4,54,68,192
4,57,104,5
4,59,92,3
4,54,65,49
4,59,74,99
4,54,71,192
4,59,69,13
4,59,72,49
4,54,69,13
4,59,73,68
4,54,68,13
4,57,99,1
4,59,97,5
4,54,92,29
4,59,77,139
4,54,64,43
4,59,75,27
4,59,74,59
4,54,76,21
4,59,75,77
4,54,78,192
4,57,99,7
4,59,81,7
4,54,84,192
4,59,77,113
4,54,82,192
4,59,72,97
4,54,75,23
4,59,75,93
4,54,88,192
4,57,92,11
4,71,104,3
4,76,101,73
4,81,93,1
4,80,100,109
4,64,75,716
4,68,77,1
4,76,83,48
4,70,90,55
4,66,97,1
4,78,95,0
4,69,104,250
4,71,95,8
4,71,94,34
4,71,95,85
4,69,97,138
4,71,91,2
4,66,94,32
4,71,92,0
4,66,89,80
4,71,89,0
4,69,92,224
4,71,96,14
4,74,92,35
4,71,99,87
4,69,96,206
4,71,91,10
4,71,93,38
4,66,92,91
4,71,91,0
4,69,97,128
4,71,88,8
4,71,97,46
4,71,92,89
4,69,111,164
4,71,95,12
4,71,99,42
4,71,90,87
4,69,96,144
4,71,85,14
4,71,83,62
4,71,88,93
4,69,104,156
4,71,91,8
4,71,94,42
4,71,94,89
4,69,106,73
4,71,99,2
4,71,93,45
4,69,104,13
4,66,95,8
4,68,100,25
4,66,99,19
4,69,97,19
4,71,96,12
4,71,97,42
4,69,96,15
4,66,94,6
4,68,94,12
4,66,92,12
4,69,104,19
4,71,97,12
4,71,96,49
4,69,96,20
4,66,90,6
4,68,98,22
4,66,91,12
4,69,101,19
4,71,96,12
4,71,94,54
4,69,97,19
4,66,95,13
4,68,101,19
4,66,101,13
4,69,97,19
4,71,93,12
4,71,96,45
4,69,102,8
4,66,92,4
4,68,100,23
4,66,95,18
4,69,102,19
4,71,96,12
4,71,94,49
4,69,106,15
4,66,100,6
4,68,101,25
4,66,103,12
4,69,99,20
4,71,94,16
4,71,96,51
4,69,101,13
4,66,101,4
4,68,105,22
4,66,100,18
4,69,101,19
4,71,96,12
4,71,97,48
4,69,102,16
4,66,101,6
4,68,105,19
4,66,100,19
4,73,99,25
4,69,111,1
4,71,93,8
4,75,94,1
4,71,91,51
4,75,98,0
4,69,102,19
4,73,86,0
4,66,93,5
4,68,90,24
4,73,87,1
4,66,87,10
4,69,92,21
4,73,86,0
4,71,89,8
4,75,93,1
4,75,99,48
4,71,93,1
4,69,99,15
4,73,91,0
4,66,89,10
4,68,86,27
4,73,83,0
4,66,91,5
4,69,97,24
4,73,86,0
4,71,92,9
4,75,94,1
4,71,93,43
4,75,98,0
4,69,104,19
4,73,93,1
4,66,88,9
4,68,93,23
