track,note,velocity,time
1,67,127,102572
1,74,127,0
1,77,127,0
1,67,0,116
1,74,0,4
1,77,0,8
1,67,127,640
1,74,127,0
1,77,127,0
1,74,0,124
1,77,0,8
1,67,0,0
1,67,127,636
1,74,127,0
1,77,127,0
1,67,0,124
1,74,0,12
1,77,0,4
1,67,127,628
1,74,127,0
1,77,127,0
1,74,0,132
1,67,0,0
1,77,0,8
1,67,127,628
1,74,127,0
1,77,127,0
1,67,0,136
1,77,0,4
1,74,0,12
1,67,127,616
1,74,127,0
1,77,127,0
1,77,0,116
1,67,0,0
1,74,0,12
1,55,127,36
1,62,127,0
1,67,127,0
1,67,0,36
1,62,0,20
1,55,0,16
1,55,127,36
1,62,127,0
1,67,127,0
1,67,0,36
1,62,0,20
1,55,0,16
1,55,127,36
1,62,127,0
1,67,127,0
1,67,0,36
1,62,0,20
1,55,0,16
1,55,127,36
1,62,127,0
1,67,127,0
1,67,0,36
1,62,0,20
1,55,0,16
2,31,127,0
2,31,0,376
2,31,127,200
2,31,0,76
2,31,127,116
2,31,0,380
2,31,127,196
2,31,0,100
2,31,127,92
2,31,0,376
2,31,127,200
2,31,0,68
2,36,127,124
2,36,0,152
2,34,127,40
2,34,0,140
2,29,127,52
2,29,0,172
2,30,127,20
2,30,0,176
2,31,127,16
2,31,0,380
2,31,127,196
2,31,0,84
2,31,127,108
2,31,0,392
2,31,127,184
2,31,0,104
2,34,127,88
2,34,0,360
2,34,127,216
2,34,0,160
2,36,127,32
2,36,0,300
2,36,127,84
2,36,0,172
2,38,127,20
2,38,0,136
2,31,127,56
2,31,0,376
2,31,127,200
2,31,0,76
2,31,127,116
2,31,0,380
2,31,127,196
2,31,0,100
2,31,127,92
2,31,0,376
2,31,127,200
2,31,0,68
2,36,127,124
2,36,0,152
2,34,127,40
2,34,0,140
2,33,127,52
2,33,0,172
2,32,127,20
2,32,0,176
2,31,127,16
2,31,0,380
2,31,127,196
2,31,0,84
2,31,127,108
2,31,0,392
2,31,127,184
2,31,0,104
2,29,127,88
2,29,0,352
2,31,127,32
2,31,0,12
2,43,127,4
2,43,0,20
2,41,127,4
2,41,0,164
2,38,127,16
2,38,0,188
2,36,127,4
2,36,0,160
2,31,127,32
2,31,0,376
2,31,127,200
2,31,0,76
2,31,127,116
2,31,0,380
2,29,127,196
2,29,0,100
2,31,127,92
2,31,0,376
2,31,127,200
2,31,0,68
2,36,127,124
2,36,0,152
2,34,127,40
2,34,0,140
2,29,127,52
2,29,0,172
2,30,127,20
2,30,0,176
2,31,127,16
2,31,0,380
2,31,127,196
2,31,0,84
2,31,127,108
2,31,0,392
2,31,127,184
2,31,0,104
2,34,127,88
2,34,0,360
2,34,127,216
2,34,0,160
2,36,127,32
2,36,0,300
2,36,127,84
2,36,0,172
2,38,127,20
2,38,0,136
2,31,127,56
2,31,0,376
2,31,127,200
2,31,0,76
2,31,127,116
2,31,0,380
2,29,127,196
2,29,0,100
2,31,127,92
2,31,0,376
2,31,127,200
2,31,0,68
2,36,127,124
2,36,0,152
2,34,127,40
2,34,0,140
2,33,127,52
2,33,0,172
2,32,127,20
2,32,0,176
2,31,127,16
2,31,0,380
2,31,127,196
2,31,0,84
2,31,127,108
2,31,0,392
2,31,127,184
2,31,0,104
2,29,127,88
2,29,0,352
2,31,127,32
2,31,0,12
2,43,127,4
2,43,0,20
2,41,127,4
2,41,0,164
2,38,127,16
2,38,0,188
2,36,127,4
2,36,0,160
2,31,127,32
2,31,0,376
2,31,127,200
2,31,0,76
2,31,127,116
2,31,0,380
2,29,127,196
2,29,0,100
2,31,127,92
2,31,0,376
2,31,127,200
2,31,0,68
2,36,127,124
2,36,0,152
2,34,127,40
2,34,0,140
2,29,127,52
2,29,0,172
2,30,127,20
2,30,0,176
2,31,127,16
2,31,0,380
2,31,127,196
2,31,0,84
2,31,127,108
2,31,0,392
2,31,127,184
2,31,0,104
2,34,127,88
2,34,0,360
2,34,127,216
2,34,0,160
2,36,127,32
2,36,0,300
2,36,127,84
2,36,0,172
2,38,127,20
2,38,0,136
2,31,127,56
2,31,0,376
2,31,127,200
2,31,0,76
2,31,127,116
2,31,0,380
2,29,127,196
2,29,0,100
2,31,127,92
2,31,0,376
2,31,127,200
2,31,0,68
2,36,127,124
2,36,0,152
2,34,127,40
2,34,0,140
2,33,127,52
2,33,0,172
2,32,127,20
2,32,0,176
2,31,127,16
2,31,0,380
2,31,127,196
2,31,0,84
2,31,127,108
2,31,0,392
2,31,127,184
2,31,0,104
2,29,127,88
2,29,0,352
2,31,127,32
2,31,0,12
2,34,127,4
2,34,0,20
2,31,127,4
2,31,0,164
2,34,127,16
2,34,0,188
2,38,127,4
2,38,0,160
2,39,127,32
2,39,0,464
2,39,127,112
2,39,0,92
2,39,127,100
2,39,0,348
2,43,127,36
2,43,0,148
2,34,127,236
2,34,0,468
2,34,127,108
2,34,0,188
2,38,127,4
2,38,0,164
2,34,127,28
2,34,0,188
2,38,127,4
2,38,0,184
2,41,127,8
2,41,0,168
2,39,127,24
2,39,0,464
2,39,127,112
2,39,0,92
2,43,127,100
2,43,0,156
2,39,127,228
2,39,0,340
2,41,127,44
2,41,0,364
2,38,127,20
2,38,0,184
2,36,127,8
2,36,0,164
2,29,127,28
2,29,0,284
2,29,127,100
2,29,0,164
2,30,127,28
2,30,0,124
2,31,127,68
2,31,0,360
2,31,127,216
2,31,0,108
2,31,127,84
2,31,0,416
2,31,127,160
2,31,0,104
2,31,127,88
2,31,0,420
2,31,127,156
2,31,0,144
2,29,127,48
2,29,0,188
2,31,127,4
2,31,0,148
2,34,127,44
2,34,0,180
2,31,127,12
2,31,0,116
2,36,127,76
2,36,0,424
2,36,127,152
2,36,0,156
2,28,127,36
2,28,0,176
2,31,127,16
2,31,0,152
2,36,127,40
2,36,0,368
2,38,127,16
2,38,0,448
2,38,127,128
2,38,0,148
2,30,127,44
2,30,0,184
2,33,127,8
2,33,0,172
2,38,127,20
2,38,0,316
2,40,127,68
2,40,0,472
2,40,127,104
2,40,0,100
2,40,127,92
2,40,0,644
2,40,127,124
2,40,0,480
2,40,127,96
2,40,0,84
2,40,127,108
2,40,0,364
2,30,127,20
2,30,0,320
2,31,127,64
2,31,0,376
2,31,127,200
2,31,0,76
2,31,127,116
2,31,0,380
2,29,127,196
2,29,0,100
2,31,127,92
2,31,0,376
2,31,127,200
2,31,0,68
2,36,127,124
2,36,0,152
2,34,127,40
2,34,0,140
2,29,127,52
2,29,0,172
2,30,127,20
2,30,0,176
2,31,127,16
2,31,0,380
2,31,127,196
2,31,0,84
2,31,127,108
2,31,0,392
2,31,127,184
2,31,0,104
2,34,127,88
2,34,0,360
2,34,127,216
2,34,0,160
2,36,127,32
2,36,0,300
2,36,127,84
2,36,0,172
2,38,127,20
2,38,0,136
2,31,127,56
2,31,0,376
2,31,127,200
2,31,0,76
2,31,127,116
2,31,0,380
2,29,127,196
2,29,0,100
2,31,127,92
2,31,0,376
2,31,127,200
2,31,0,68
2,38,127,124
2,38,0,152
2,36,127,40
2,36,0,140
2,34,127,52
2,34,0,172
2,33,127,20
2,33,0,176
2,31,127,16
2,31,0,380
2,31,127,196
2,31,0,84
2,31,127,108
2,31,0,392
2,31,127,184
2,31,0,104
2,29,127,88
2,29,0,352
2,31,127,32
2,31,0,12
2,34,127,4
2,34,0,20
2,31,127,4
2,31,0,164
2,34,127,16
2,34,0,188
2,38,127,4
2,38,0,160
2,39,127,32
2,39,0,464
2,39,127,112
2,39,0,92
2,43,127,100
2,43,0,200
2,43,127,184
2,43,0,148
2,34,127,236
2,34,0,468
2,34,127,108
2,34,0,188
2,38,127,4
2,38,0,164
2,34,127,28
2,34,0,188
2,38,127,4
2,38,0,184
2,41,127,8
2,41,0,168
2,39,127,24
2,39,0,464
2,39,127,112
2,39,0,92
2,43,127,100
2,43,0,156
2,39,127,228
2,39,0,340
2,41,127,44
2,41,0,364
2,38,127,20
2,38,0,184
2,36,127,8
2,36,0,164
2,29,127,28
2,29,0,284
2,29,127,100
2,29,0,164
2,30,127,28
2,30,0,124
2,31,127,68
2,31,0,360
2,31,127,216
2,31,0,108
2,31,127,84
2,31,0,416
2,31,127,160
2,31,0,104
2,31,127,88
2,31,0,420
2,31,127,156
2,31,0,144
2,29,127,48
2,29,0,188
2,31,127,4
2,31,0,148
2,34,127,44
2,34,0,180
2,31,127,12
2,31,0,116
2,36,127,76
2,36,0,424
2,36,127,152
2,36,0,156
2,28,127,36
2,28,0,176
2,31,127,16
2,31,0,152
2,36,127,40
2,36,0,368
2,38,127,16
2,38,0,448
2,38,127,128
2,38,0,148
2,30,127,44
2,30,0,184
2,33,127,8
2,33,0,172
2,38,127,20
2,38,0,316
2,40,127,68
2,40,0,472
2,40,127,104
2,40,0,100
2,40,127,92
2,40,0,644
2,40,127,124
2,40,0,480
2,35,127,96
2,35,0,84
2,40,127,108
2,40,0,364
2,30,127,20
2,30,0,320
2,31,127,64
2,31,0,376
2,31,127,200
2,31,0,76
2,31,127,116
2,31,0,380
2,29,127,196
2,29,0,100
2,31,127,92
2,31,0,376
2,31,127,200
2,31,0,68
2,36,127,124
2,36,0,152
2,34,127,40
2,34,0,140
2,29,127,52
2,29,0,172
2,30,127,20
2,30,0,176
2,31,127,16
2,31,0,380
2,31,127,196
2,31,0,84
2,31,127,108
2,31,0,392
2,31,127,184
2,31,0,104
2,34,127,88
2,34,0,360
2,34,127,216
2,34,0,160
2,36,127,32
2,36,0,300
2,36,127,84
2,36,0,172
2,38,127,20
2,38,0,136
2,31,127,56
2,31,0,376
2,31,127,200
2,31,0,76
2,31,127,116
2,31,0,380
2,29,127,196
2,29,0,100
2,31,127,92
2,31,0,376
2,31,127,200
2,31,0,68
2,36,127,124
2,36,0,152
2,34,127,40
2,34,0,140
2,33,127,52
2,33,0,172
2,32,127,20
2,32,0,176
2,31,127,16
2,31,0,380
2,31,127,196
2,31,0,84
2,31,127,108
2,31,0,392
2,31,127,184
2,31,0,104
2,29,127,88
2,29,0,352
2,31,127,32
2,31,0,12
2,43,127,4
2,43,0,20
2,41,127,4
2,41,0,164
2,38,127,16
2,38,0,188
2,36,127,4
2,36,0,160
2,39,127,32
2,39,0,464
2,39,127,112
2,39,0,92
2,43,127,100
2,43,0,200
2,43,127,184
2,43,0,148
2,34,127,236
2,34,0,468
2,34,127,108
2,34,0,188
2,38,127,4
2,38,0,164
2,34,127,28
2,34,0,188
2,38,127,4
2,38,0,184
2,41,127,8
2,41,0,168
2,39,127,24
2,39,0,464
2,39,127,112
2,39,0,92
2,43,127,100
2,43,0,156
2,39,127,228
2,39,0,340
2,41,127,44
2,41,0,364
2,38,127,20
2,38,0,184
2,36,127,8
2,36,0,164
2,29,127,28
2,29,0,284
2,29,127,100
2,29,0,164
2,30,127,28
2,30,0,124
2,31,127,68
2,31,0,360
2,31,127,216
2,31,0,108
2,31,127,84
2,31,0,416
2,31,127,160
2,31,0,104
2,31,127,88
2,31,0,420
2,31,127,156
2,31,0,144
2,29,127,48
2,29,0,188
2,31,127,4
2,31,0,148
2,34,127,44
2,34,0,180
2,31,127,12
2,31,0,116
2,36,127,76
2,36,0,424
2,36,127,152
2,36,0,156
2,28,127,36
2,28,0,176
2,31,127,16
2,31,0,152
2,36,127,40
2,36,0,368
2,38,127,16
2,38,0,448
2,38,127,128
2,38,0,148
2,30,127,44
2,30,0,184
2,33,127,8
2,33,0,172
2,38,127,20
2,38,0,316
2,40,127,68
2,40,0,472
2,40,127,104
2,40,0,100
2,40,127,92
2,40,0,644
2,40,127,124
2,40,0,480
2,35,127,96
2,35,0,84
2,40,127,108
2,40,0,364
2,30,127,20
2,30,0,320
2,31,127,64
2,31,0,376
2,31,127,200
2,31,0,76
2,31,127,116
2,31,0,380
2,29,127,196
2,29,0,100
2,31,127,92
2,31,0,376
2,31,127,200
2,31,0,68
2,36,127,124
2,36,0,152
2,34,127,40
2,34,0,140
2,29,127,52
2,29,0,172
2,30,127,20
2,30,0,176
2,31,127,16
2,31,0,380
2,31,127,196
2,31,0,84
2,31,127,108
2,31,0,392
2,31,127,184
2,31,0,104
2,34,127,88
2,34,0,360
2,34,127,216
2,34,0,160
2,36,127,32
2,36,0,300
2,36,127,84
2,36,0,172
2,38,127,20
2,38,0,136
2,31,127,56
2,31,0,376
2,31,127,200
2,31,0,76
2,31,127,116
2,31,0,380
2,29,127,196
2,29,0,100
2,31,127,92
2,31,0,376
2,31,127,200
2,31,0,68
2,38,127,124
2,38,0,152
2,36,127,40
2,36,0,140
2,34,127,52
2,34,0,172
2,33,127,20
2,33,0,176
2,31,127,16
2,31,0,380
2,31,127,196
2,31,0,84
2,31,127,108
2,31,0,392
2,31,127,184
2,31,0,104
2,29,127,88
2,29,0,352
2,31,127,32
2,31,0,12
2,43,127,4
2,43,0,20
2,41,127,4
2,41,0,164
2,38,127,16
2,38,0,188
2,36,127,4
2,36,0,160
2,31,127,32
2,31,0,376
2,31,127,200
2,31,0,76
2,31,127,116
2,31,0,380
2,29,127,196
2,29,0,100
2,31,127,92
2,31,0,376
2,31,127,200
2,31,0,68
2,36,127,124
2,36,0,152
2,34,127,40
2,34,0,140
2,29,127,52
2,29,0,172
2,30,127,20
2,30,0,176
2,31,127,16
2,31,0,380
2,31,127,196
2,31,0,84
2,31,127,108
2,31,0,392
2,31,127,184
2,31,0,104
2,34,127,88
2,34,0,360
2,34,127,216
2,34,0,160
2,36,127,32
2,36,0,300
2,36,127,84
2,36,0,172
2,38,127,20
2,38,0,136
2,31,127,56
2,31,0,376
2,31,127,200
2,31,0,76
2,31,127,116
2,31,0,380
2,29,127,196
2,29,0,100
2,31,127,92
2,31,0,376
2,31,127,200
2,31,0,68
2,38,127,124
2,38,0,152
2,36,127,40
2,36,0,140
2,34,127,52
2,34,0,172
2,33,127,20
2,33,0,176
2,31,127,16
2,31,0,380
2,31,127,196
2,31,0,84
2,31,127,108
2,31,0,392
2,31,127,184
2,31,0,104
2,29,127,88
2,29,0,352
2,31,127,32
2,31,0,12
2,34,127,4
2,34,0,20
2,31,127,4
2,31,0,164
2,34,127,16
2,34,0,188
2,38,127,4
2,38,0,160
2,39,127,32
2,39,0,464
2,39,127,112
2,39,0,92
2,43,127,100
2,43,0,200
2,43,127,184
2,43,0,148
2,34,127,236
2,34,0,468
2,34,127,108
2,34,0,188
2,38,127,4
2,38,0,164
2,34,127,28
2,34,0,188
2,38,127,4
2,38,0,184
2,41,127,8
2,41,0,168
2,39,127,24
2,39,0,464
2,39,127,112
2,39,0,92
2,43,127,100
2,43,0,156
2,39,127,228
2,39,0,340
2,41,127,44
2,41,0,364
2,38,127,20
2,38,0,184
2,36,127,8
2,36,0,164
2,29,127,28
2,29,0,284
2,29,127,100
2,29,0,164
2,30,127,28
2,30,0,124
2,31,127,68
2,31,0,360
2,31,127,216
2,31,0,108
2,31,127,84
2,31,0,416
2,31,127,160
2,31,0,104
2,31,127,88
2,31,0,420
2,31,127,156
2,31,0,144
2,29,127,48
2,29,0,188
2,31,127,4
2,31,0,148
2,34,127,44
2,34,0,180
2,31,127,12
2,31,0,116
2,36,127,76
2,36,0,424
2,36,127,152
2,36,0,156
2,28,127,36
2,28,0,176
2,31,127,16
2,31,0,152
2,36,127,40
2,36,0,368
2,38,127,16
2,38,0,448
2,38,127,128
2,38,0,148
2,30,127,44
2,30,0,184
2,33,127,8
2,33,0,172
2,38,127,20
2,38,0,316
2,40,127,68
2,40,0,472
2,40,127,104
2,40,0,100
2,40,127,92
2,40,0,644
2,40,127,124
2,40,0,480
2,35,127,96
2,35,0,84
2,40,127,108
2,40,0,364
2,30,127,20
2,30,0,320
2,31,127,64
2,31,0,376
2,31,127,200
2,31,0,76
2,31,127,116
2,31,0,380
2,29,127,196
2,29,0,100
2,31,127,92
2,31,0,376
2,31,127,200
2,31,0,68
2,36,127,124
2,36,0,152
2,34,127,40
2,34,0,140
2,29,127,52
2,29,0,172
