track,note,velocity,time
1,65,127,3640
1,62,124,4
1,65,124,272
1,67,126,272
1,62,121,12
1,65,127,1320
1,62,127,204
1,65,127,16
1,62,127,4
1,67,127,24
1,65,127,72
1,65,117,116
1,62,126,4
1,63,127,52
1,65,127,104
1,67,127,52
1,65,127,592
1,65,117,36
1,65,127,36
1,62,124,12
1,65,127,28
1,67,127,32
1,65,127,56
1,65,111,104
1,65,114,56
1,62,119,4
1,65,126,32
1,67,127,4
1,60,124,648
1,60,121,76
1,62,124,12
1,63,125,24
1,62,127,24
1,60,121,8
1,58,127,52
1,63,116,104
1,62,112,432
1,60,117,196
1,65,126,8364
1,62,114,4
1,63,110,280
1,65,108,12
1,67,110,204
1,67,110,48
1,65,114,212
1,65,117,336
1,65,124,104
1,63,118,268
1,62,108,12
1,62,107,88
1,62,107,828
1,62,124,112
1,65,127,44
1,62,121,12
1,67,127,40
1,65,121,12
1,62,91,116
1,62,99,36
1,62,117,64
1,63,116,40
1,65,119,276
1,67,119,8
1,65,93,1532
1,62,119,312
1,63,120,36
1,65,121,88
1,67,127,68
1,65,111,56
1,65,121,44
1,62,121,232
1,62,121,76
1,63,125,52
1,65,127,44
1,67,127,32
1,60,119,568
1,60,127,64
1,62,127,24
1,63,127,40
1,62,127,28
1,60,116,548
1,58,122,8
1,63,118,112
1,62,127,40
1,60,127,4
1,62,117,8096
1,58,116,364
1,60,112,196
1,62,107,160
1,60,108,8
1,58,127,4
1,62,116,196
1,62,127,920
1,60,119,372
1,62,117,32
1,65,127,52
1,62,110,188
1,60,119,168
1,58,120,60
1,62,126,528
1,62,116,52
1,60,119,188
1,58,120,32
1,60,127,44
1,58,122,8
1,62,127,72
1,60,116,1204
1,62,107,112
1,65,112,8
1,65,127,64
1,62,127,392
1,63,127,40
1,58,127,15724
1,60,111,4
1,62,111,180
1,63,114,180
1,65,114,4
1,67,121,200
1,62,121,1208
1,65,126,16
1,67,124,284
1,65,119,20
1,60,117,4
1,62,126,108
1,65,126,972
1,65,127,72
1,65,127,92
1,62,121,4
1,65,127,4
1,62,121,4
1,67,127,32
1,65,124,844
1,67,121,364
1,65,112,12
1,62,124,204
1,60,119,288
1,58,120,52
1,62,127,1676
1,65,127,36
1,62,121,4
1,67,127,20
1,67,114,44
1,65,126,44
1,62,127,196
1,62,121,512
1,62,112,36
1,62,114,72
1,63,127,88
1,65,121,104
1,67,127,60
1,67,112,36
1,65,127,576
1,62,124,4
1,65,124,4
1,62,124,0
1,67,127,16
1,65,127,1252
1,67,124,320
1,65,117,20
1,62,111,100
1,60,116,84
1,62,126,12
1,60,126,36
1,58,125,40
1,63,125,100
1,62,124,28
1,60,126,4
2,27,127,32256
2,29,127,772
2,29,122,52
2,29,127,92
2,36,127,576
2,41,127,188
2,29,117,368
2,34,127,20
2,34,127,68
2,29,127,4
2,34,127,12
2,33,127,32
2,29,121,0
2,31,127,28
2,31,127,144
2,38,126,12
2,33,124,60
2,26,127,192
2,26,127,120
2,33,125,480
2,38,125,16
2,38,124,76
2,27,127,576
2,34,123,108
2,39,127,16
2,27,127,4
2,29,127,4
2,34,127,192
2,36,127,60
2,41,127,80
2,36,125,20
2,29,125,196
2,31,127,368
2,31,121,132
2,38,125,192
2,33,124,16
2,26,124,4
2,26,126,100
2,33,124,480
2,38,120,8
2,38,124,84
2,26,118,384
2,27,127,12
2,27,127,68
2,36,127,192
2,36,116,124
2,29,126,8
2,34,124,576
2,36,120,0
2,41,124,100
2,29,127,160
2,29,124,108
2,31,125,192
2,29,126,128
2,27,127,0
2,27,121,104
2,29,126,12
2,34,127,24
2,36,126,96
2,41,127,4
2,29,127,192
2,30,124,28
2,31,127,196
2,31,124,172
2,29,125,0
2,27,127,16
2,27,126,128
2,36,127,192
2,36,117,124
2,27,127,4
2,27,125,132
2,31,127,192
2,29,127,0
2,27,127,4
2,26,123,20
2,24,127,4
2,26,122,1148
2,31,120,352
2,29,127,1440
2,30,127,192
2,31,127,0
2,31,127,76
2,34,127,192
2,38,125,368
2,29,126,4
2,29,126,132
2,34,127,192
2,38,124,8
2,39,127,384
2,34,125,20
2,27,126,8
2,27,127,116
2,27,127,104
2,29,127,4
2,34,127,28
2,36,127,4
2,41,127,96
2,29,127,0
2,30,127,0
2,31,124,192
2,34,127,348
2,38,125,384
2,29,127,12
2,29,127,124
2,34,127,192
2,34,127,116
2,39,127,192
2,34,127,16
2,34,127,88
2,39,127,192
2,34,127,20
2,27,127,20
2,27,127,116
2,29,127,384
2,31,127,8
2,29,127,72
2,27,127,0
2,36,127,16
2,36,125,144
2,39,127,192
2,27,127,20
2,31,127,20
2,29,127,136
2,27,127,8
2,34,127,576
2,36,127,4
2,36,125,128
2,34,127,384
2,33,127,8
2,29,126,4
2,31,127,192
2,31,120,104
2,29,115,4
2,27,127,4
2,27,127,152
2,36,126,192
2,36,118,164
2,39,127,192
2,27,127,180
2,29,127,8
2,31,127,36
2,31,126,156
2,27,127,8
2,27,123,140
2,36,127,196
2,31,124,20
2,27,127,1736
2,29,127,4
2,29,127,56
2,29,127,100
2,36,127,36
2,41,127,8
2,29,127,192
2,30,114,352
2,34,127,12
2,34,127,140
2,34,127,40
2,29,127,28
2,34,127,192
2,34,127,96
2,33,127,8
2,29,127,0
2,31,127,36
2,31,127,148
2,38,127,16
2,33,127,88
2,26,127,96
2,26,127,116
2,33,127,384
2,38,126,184
2,26,127,16
2,27,127,16
2,27,127,148
2,27,127,96
2,27,127,120
2,29,125,4
2,34,127,188
2,36,127,28
2,41,127,84
2,29,127,564
2,34,127,80
2,36,127,80
2,29,127,172
2,31,127,188
2,31,127,136
2,38,124,192
2,33,127,180
2,26,127,180
2,33,127,12
2,38,124,192
2,33,127,188
2,26,127,8
2,26,124,156
2,27,127,96
2,27,127,104
2,36,127,0
2,36,126,132
2,29,127,192
2,34,127,32
2,36,125,96
2,41,127,84
2,29,124,172
2,30,127,12
2,31,127,12
2,29,124,12
2,27,127,192
2,27,127,100
2,29,127,16
2,34,125,192
2,36,127,0
2,41,127,96
2,29,127,188
2,29,127,172
2,31,127,196
2,29,127,12
2,27,127,0
2,27,127,136
2,36,127,4
2,36,125,192
2,27,127,192
2,29,121,572
2,31,127,172
2,31,109,136
2,29,119,8
2,27,127,96
2,27,124,112
2,36,126,192
2,38,124,172
2,36,127,372
2,34,127,352
2,33,127,0
2,29,127,192
2,31,127,184
2,29,126,24
2,27,127,192
2,27,126,140
2,36,126,192
2,36,124,144
2,39,127,192
2,29,127,368
2,31,127,40
2,29,127,20
2,27,127,4
2,27,127,144
2,36,127,192
2,36,126,132
2,34,127,384
2,33,127,176
2,29,126,0
2,31,127,0
2,29,127,24
2,27,127,8
2,27,127,168
2,36,127,192
2,36,124,156
2,27,127,192
2,29,118,24
2,31,127,16
2,31,127,148
2,27,127,0
2,27,126,132
2,36,127,192
2,38,127,4
2,36,122,384
2,34,127,176
2,33,127,12
2,29,127,96
2,31,127,8
2,29,127,152
2,27,127,8
2,27,127,136
2,36,127,192
2,36,124,108
2,27,127,32
2,29,127,16
2,31,127,20
2,29,124,96
2,27,127,4
2,27,127,144
2,36,127,192
2,38,127,4
2,36,127,384
2,34,127,164
2,33,127,88
2,29,116,80
2,31,127,8
2,29,127,76
2,27,127,8
2,27,127,172
2,36,127,192
2,36,124,164
2,39,127,192
2,27,127,4
2,31,127,384
2,31,121,172
2,27,127,192
2,27,127,164
2,36,127,192
2,34,101,4
2,34,127,8
2,33,127,12
2,29,126,12
2,31,127,192
2,31,127,144
2,29,123,96
2,27,127,12
2,27,127,156
2,36,127,192
2,36,117,140
2,27,127,16
2,29,127,12
2,31,127,40
3,41,48,105852
3,43,60,0
3,38,57,0
3,39,69,20
3,40,50,0
3,45,45,0
3,47,49,20
3,42,29,0
3,48,58,12
3,44,48,0
3,50,60,24
3,46,53,0
3,52,69,0
3,49,61,0
3,53,73,20
3,51,56,0
3,55,70,0
3,57,59,16
3,54,64,0
3,63,76,0
3,67,82,0
3,56,81,0
3,58,51,1476
3,65,62,12
3,57,51,32
3,62,67,80
3,58,62,0
3,63,68,732
3,65,58,8
3,57,55,4
3,37,35,556
3,40,33,8
3,39,38,0
3,41,37,20
3,42,29,0
3,43,38,12
3,38,29,0
3,45,41,16
3,44,29,0
3,47,44,20
3,46,31,8
3,48,45,0
3,50,41,4
3,49,43,0
3,52,40,0
3,51,56,16
3,53,39,8
3,55,61,8
3,61,81,0
3,67,76,0
3,54,54,12
3,62,94,0
3,61,75,0
3,56,73,20
3,57,57,0
3,58,45,20
3,63,66,684
3,60,58,764
3,65,72,4
3,63,69,92
3,62,73,12
3,60,68,0
3,61,72,92
3,67,64,12
3,62,70,12
3,63,59,748
3,63,41,32
3,65,73,32
3,67,63,0
3,65,66,56
3,63,71,80
3,60,59,4
3,67,73,96
3,62,71,0
3,63,67,768
3,58,68,24
3,63,69,8
3,65,71,8
3,60,67,0
3,62,62,4
3,67,49,0
3,63,61,0
3,55,66,4
3,58,67,24
3,62,73,4
3,67,58,20
3,70,73,40
3,73,60,16
3,70,72,8
3,74,68,4
3,77,70,16
3,74,67,36
3,74,59,12
3,77,68,12
3,74,63,16
3,77,68,16
3,74,58,16
3,77,68,20
3,74,58,28
3,77,67,16
3,74,64,24
3,77,63,12
3,74,63,16
3,77,68,12
3,74,59,12
3,77,72,16
3,74,63,16
3,77,66,24
3,74,71,44
3,72,62,48
3,70,82,68
3,72,70,68
3,70,80,44
3,67,78,32
3,70,82,44
3,67,78,32
3,70,83,52
3,67,71,60
3,72,68,44
3,70,81,40
3,67,82,76
3,65,67,68
3,67,78,72
3,70,71,0
3,70,57,24
3,70,73,28
3,67,66,28
3,70,75,24
3,67,61,20
3,70,73,20
3,67,67,36
3,67,79,24
3,63,80,20
3,65,64,836
3,62,60,12
3,60,63,0
3,63,58,0
3,63,84,140
3,67,68,36
3,70,69,4
3,72,68,20
3,75,75,24
3,74,63,4
3,72,62,68
3,70,60,48
3,67,61,40
3,65,63,40
3,67,78,28
3,70,69,4
3,74,68,24
3,67,57,64
3,65,56,52
3,67,70,68
3,65,62,72
3,62,58,52
3,63,52,448
3,67,64,0
3,65,74,20
3,67,72,32
3,65,70,40
3,63,74,80
3,60,66,4
3,62,68,88
3,58,64,96
3,63,59,684
3,63,72,148
3,58,61,0
3,63,67,116
3,58,63,0
3,60,71,4
3,58,63,72
3,60,66,0
3,58,65,80
3,62,63,76
3,63,58,756
3,60,59,4
3,65,57,16
3,62,60,384
3,67,54,0
3,63,52,740
3,62,61,0
3,63,67,760
3,62,74,4
3,60,66,8
3,58,80,0
3,53,69,4
3,55,70,184
3,53,64,72
3,55,74,88
4,62,93,0
4,60,87,8
4,58,89,0
4,60,83,96
4,62,100,4
4,60,93,8
4,57,83,64
4,60,82,8
4,62,81,96
4,62,115,4536
4,57,91,4
4,58,98,5540
4,63,94,12
4,60,86,184
4,58,101,620
4,57,97,12
4,58,100,4
4,58,108,100
4,57,94,28
4,55,102,12
4,53,92,96
4,55,95,20
4,58,104,164
4,57,91,108
4,55,89,28
4,53,81,12
4,55,90,28
4,58,111,40
4,62,94,4
4,60,89,12
4,58,96,128
4,57,78,76
4,53,90,4
4,55,76,192
4,62,110,2648
4,67,107,0
4,60,93,28
4,65,93,0
4,65,107,140
4,60,110,0
4,62,88,8
4,57,83,0
4,62,92,1100
4,63,99,764
4,65,84,16
4,65,127,1944
4,64,107,28
4,62,102,8
4,64,98,52
4,57,107,84
4,67,127,8
4,65,103,16
4,64,97,60
4,65,105,44
4,62,102,64
4,62,86,0
4,58,106,4924
4,63,98,20
4,62,102,24
4,60,105,8
4,62,127,496
4,67,127,12
4,65,110,136
4,62,112,24
4,60,91,12
4,58,115,72
4,55,123,84
4,53,98,4
4,58,115,96
4,57,103,68
4,53,115,188
4,55,93,352
4,57,123,0
4,58,119,12
4,57,123,84
4,55,115,56
4,53,102,32
4,55,94,96
4,58,119,40
4,62,110,36
4,60,100,0
4,43,95,4348
4,46,68,0
4,50,96,0
4,55,115,136
4,58,119,140
4,62,107,128
4,60,92,16
4,57,97,1372
4,58,123,196
4,57,112,0
4,55,110,8
4,58,106,0
4,60,91,8
4,63,119,0
4,62,103,44
4,60,110,32
4,58,119,120
4,62,102,0
4,60,97,4
4,58,108,2368
4,51,115,0
4,55,127,480
4,58,111,36
4,62,97,4
4,65,110,28
4,65,110,20
4,63,98,8
4,63,101,48
4,67,123,408
4,65,127,84
4,62,100,4
4,65,115,24
4,67,102,60
4,67,115,0
4,69,112,12
4,67,119,16
4,65,123,0
4,65,119,64
4,63,104,0
4,62,119,28
4,60,107,52
4,62,123,72
4,65,103,8
4,62,105,4
4,60,100,20
4,62,105,8
4,65,100,8
4,67,103,40
4,65,97,36
4,62,112,0
4,60,96,48
4,58,119,40
4,55,102,164
4,53,112,60
4,55,102,136
4,58,104,60
4,55,105,84
4,58,123,76
4,57,97,24
4,55,86,0
4,53,73,8
4,55,90,96
4,55,119,136
4,62,93,0
4,60,91,4
4,65,95,4328
4,60,88,0
4,65,102,120
4,60,87,0
4,67,96,4
4,62,95,0
4,67,83,0
4,62,91,1576
4,63,94,20
4,65,96,36
4,69,127,0
4,67,115,48
4,65,110,20
4,67,110,44
4,65,105,8
4,62,107,164
4,60,102,4
4,61,101,48
4,62,105,0
4,55,95,4
4,58,108,96
4,62,107,16
4,65,105,4
4,67,112,24
4,65,105,4
4,63,106,32
4,62,107,4
4,60,102,0
4,62,97,20
4,69,115,0
4,67,107,32
4,65,100,96
4,67,103,48
4,67,97,3404
4,62,96,860
4,62,93,0
4,60,102,116
4,58,104,92
4,63,102,92
4,62,98,4
4,60,95,16
4,60,115,244
4,62,74,0
4,62,105,28
4,65,103,40
4,62,123,24
4,67,112,68
4,65,105,32
4,62,107,0
4,58,115,0
4,55,105,12
4,53,107,92
4,55,115,0
4,58,127,36
4,57,112,0
4,58,87,0
4,53,110,8
4,53,112,0
4,55,97,40
4,55,127,72
4,63,77,4
4,58,111,32
4,62,102,8
4,65,112,4
4,62,127,364
4,65,105,12
4,62,115,44
4,60,102,12
4,58,123,36
4,53,103,76
4,55,95,0
4,55,105,8
4,58,119,148
4,62,103,4
4,60,98,48
4,58,115,36
4,57,100,56
4,53,98,16
4,55,90,132
4,55,87,0
4,55,96,4008
4,58,108,96
4,62,105,88
4,65,107,28
4,67,107,52
4,72,100,32
4,70,93,48
4,69,105,0
4,70,86,0
4,65,94,4
4,67,105,44
4,58,79,32
4,62,86,40
4,65,94,88
4,72,107,56
4,70,96,56
4,67,92,64
4,65,93,16
4,70,104,8
4,69,107,8
4,65,103,4
4,67,98,40
4,62,98,8
4,65,95,36
4,67,97,32
4,62,93,32
4,65,91,72
4,67,97,56
4,65,93,28
4,63,104,48
4,62,86,4
4,60,93,32
4,58,108,24
4,57,97,80
4,53,103,4
4,55,96,92
4,60,88,84
4,62,84,8
4,60,83,60
4,58,90,56
4,57,95,120
4,53,93,4
4,55,93,96
4,55,127,120
4,63,81,0
4,58,111,20
4,62,97,4
4,65,112,28
4,62,107,4
4,60,100,32
4,65,100,4
4,63,127,76
4,63,127,152
4,62,93,12
4,60,97,96
4,58,127,36
4,57,112,0
4,53,119,288
4,55,89,12
4,55,110,0
4,58,102,44
4,62,100,76
4,65,100,84
5,43,78,19968
5,55,80,0
5,39,80,28
5,51,76,0
5,41,63,20
5,53,60,0
5,55,75,0
5,43,57,0
5,41,62,3008
5,39,80,12
5,41,84,768
5,46,82,2276
5,45,93,8
5,43,87,0
5,41,85,0
5,50,81,8
5,51,88,16
5,46,66,1536
5,53,83,0
5,45,68,20
5,43,89,8
5,41,92,24
5,50,91,28
5,51,89,28
5,46,73,20
5,53,76,0
5,45,63,0
5,43,83,36
5,43,92,0
5,39,93,92
5,41,79,28
5,43,87,1536
5,39,95,760
5,48,89,32
5,39,97,768
5,43,89,20
5,39,93,768
5,48,89,752
5,50,86,32
5,46,105,36
5,43,88,4
5,41,81,768
5,43,76,744
5,41,71,16
