track,note,velocity,time
1,59,109,5953
1,59,109,35
1,62,109,23
1,59,109,5
1,57,109,330
1,62,109,80
1,62,109,37
1,59,109,14
1,59,109,20
1,59,109,353
1,59,109,80
1,59,109,48
1,62,109,13
1,59,109,7
1,59,109,168
1,59,109,165
1,64,109,77
1,62,109,28
1,59,109,25
1,57,109,375
1,59,109,80
1,57,107,13
1,59,109,7
1,62,109,29
1,59,109,5
1,57,109,337
1,59,109,5
1,62,109,78
1,62,109,47
1,59,109,7
1,57,109,330
1,59,109,92
1,59,109,72
1,62,109,12
1,59,109,13
1,59,109,422
1,64,109,86
1,62,109,20
1,59,109,15
1,62,109,375
1,62,109,95
1,64,109,70
1,64,109,43
1,62,109,345
1,64,109,33
1,64,109,47
1,59,109,12
1,62,109,517
1,64,109,72
1,62,109,25
1,64,109,20
1,64,109,25
1,62,109,375
1,64,109,8
1,62,109,25
1,59,109,15
1,62,109,487
1,64,109,40
1,62,109,62
1,64,109,15
1,64,109,32
1,62,109,395
1,64,109,73
1,62,109,7
1,59,109,12
1,62,109,433
1,64,109,40
1,62,109,13
1,64,109,23
1,64,109,20
1,62,109,388
1,64,109,27
1,62,109,55
1,66,109,185
1,66,109,87
1,66,109,95
1,64,109,30
1,62,109,15
1,59,109,30
1,59,109,40
1,59,109,357
1,62,109,52
1,62,109,30
1,59,109,0
1,59,109,75
1,57,109,393
1,59,109,52
1,62,109,32
1,64,109,35
1,59,109,5
1,57,109,386
1,62,109,50
1,62,109,21
1,59,109,70
1,57,109,550
1,59,109,28
1,62,109,36
1,62,109,77
1,59,109,35
1,57,109,367
1,62,109,82
1,64,109,49
1,59,109,12
1,59,109,60
1,57,109,410
1,59,109,61
1,62,109,40
1,64,109,75
1,59,109,52
1,59,109,348
1,62,109,80
1,62,109,48
1,59,109,0
1,59,109,40
1,57,109,317
1,59,109,80
1,59,109,21
1,59,109,55
1,59,109,7337
1,59,109,75
1,62,109,85
1,59,109,40
1,57,109,305
1,57,109,60
1,59,109,20
1,57,109,15
1,59,109,90
1,59,109,45
1,59,109,375
1,59,109,79
1,59,109,20
1,59,109,67
1,59,109,41
1,57,109,360
1,57,109,60
1,64,109,0
1,62,109,20
1,59,109,23
1,59,109,67
1,57,109,376
1,59,109,80
1,57,109,7
1,59,109,62
1,59,109,123
1,59,109,303
1,57,109,74
1,59,109,27
1,59,109,28
1,57,109,50
1,59,109,75
1,59,109,60
1,59,109,302
1,59,109,60
1,62,109,15
1,59,109,16
1,64,109,75
1,59,109,21
1,59,109,378
1,57,109,67
1,59,109,12
1,57,109,0
1,59,109,82
1,57,109,20
1,59,109,387
1,62,109,80
1,59,109,67
1,64,109,82
1,64,109,40
1,64,109,307
1,62,109,67
1,64,109,15
1,62,109,55
1,66,109,75
1,64,109,17
1,64,109,422
1,62,109,77
1,64,109,55
1,64,109,40
1,62,109,343
1,64,109,95
1,62,109,8
1,59,109,75
1,59,109,48
1,64,109,410
1,64,109,83
1,62,109,102
1,64,109,70
1,64,109,33
1,64,109,282
1,62,109,25
1,64,109,50
1,62,109,40
1,62,109,662
1,64,109,87
1,62,109,53
1,64,109,82
1,64,109,40
1,64,109,360
1,64,109,83
1,62,109,5
1,66,109,80
1,66,109,52
1,66,109,198
1,64,109,32
1,62,109,7
1,59,109,44
1,59,109,46
1,59,109,295
1,62,109,87
1,64,109,9
1,59,109,12
1,59,109,55
1,57,109,355
1,59,109,81
1,57,109,12
1,62,109,41
1,59,109,180
1,59,109,402
1,61,109,13
1,62,109,83
1,62,109,50
1,59,109,65
1,59,109,55
1,57,109,350
1,59,109,13
1,59,109,28
1,62,109,72
1,59,109,5
1,64,109,419
1,62,109,20
1,57,109,7
1,59,109,20
1,59,109,33
1,57,109,363
1,59,109,65
1,57,109,42
1,62,109,83
1,59,109,27
1,57,109,298
1,59,109,122
1,57,109,35
1,59,109,67
1,59,109,467
1,59,109,13553
1,59,109,30
1,62,109,30
1,59,109,17
1,57,109,292
1,59,109,20
1,59,109,32
1,59,109,16
1,59,109,40
1,57,109,295
1,57,109,65
1,59,109,20
1,59,109,22
1,57,109,55
1,62,109,40
1,59,109,20
1,59,109,293
1,59,109,60
1,64,109,0
1,62,109,24
1,59,109,20
1,59,109,32
1,57,109,305
1,57,109,60
1,59,109,5
1,57,109,5
1,59,109,75
1,59,109,40
1,57,109,307
1,57,109,68
1,59,109,52
1,57,109,0
1,59,109,62
1,59,109,49
1,59,109,310
1,59,109,40
1,59,109,40
2,59,83,951
2,71,83,0
2,66,83,1
2,69,83,48
2,59,83,65
2,66,83,0
2,71,83,0
2,54,83,0
2,59,83,0
2,63,83,1
2,54,83,55
2,63,83,0
2,59,83,1
2,64,83,34
2,63,83,1217
2,57,83,5
2,61,83,0
2,59,83,90
2,62,83,0
2,52,83,2
2,52,83,0
2,62,83,0
2,59,83,0
2,54,83,904
2,58,83,2
2,61,83,0
2,66,83,0
2,63,83,94
2,54,83,0
2,59,83,1
2,59,83,55
2,63,83,0
2,54,83,1
2,64,83,12
2,63,83,6
2,57,83,5
2,61,83,0
2,66,83,117
2,71,83,0
2,59,83,3
2,54,83,7676
2,63,83,0
2,59,83,0
2,64,83,3
2,63,83,35
2,59,83,0
2,54,83,50
2,57,83,10
2,61,83,0
2,52,83,72
2,62,83,0
2,56,83,0
2,59,83,1905
2,54,83,125
2,61,83,13
2,66,83,2
2,59,83,83
2,66,83,0
2,71,83,15
2,59,83,1820
2,71,83,0
2,66,83,0
2,54,83,26
2,59,83,1
2,63,83,0
2,64,83,3
2,54,83,55
2,59,83,0
2,63,83,0
2,61,83,20
2,57,83,12
2,66,83,27
2,59,83,0
2,71,83,13
2,59,83,75
2,71,83,13
2,66,83,0
2,78,83,2827
2,81,83,137
2,78,83,5
2,83,83,55
2,85,83,5
2,90,83,705
2,59,83,72
2,90,83,0
2,66,83,8
2,71,83,0
3,57,122,11
3,59,122,1
3,66,122,0
3,74,98,65
3,66,115,57
3,64,78,300
3,62,85,15
3,59,88,2
3,57,115,7
3,52,101,70
3,50,90,165
3,47,106,50
3,47,103,46
3,59,115,15
3,59,106,69
3,57,94,5
3,54,119,5
3,57,99,135
3,59,94,5
3,52,115,7547
3,55,103,22
3,56,74,55
3,64,90,5
3,62,70,50
3,55,119,4245
3,56,102,7
3,64,80,20
3,62,82,52
3,62,77,5
3,52,82,1055
3,53,85,53
3,54,98,48
3,57,90,40
3,58,95,55
3,61,92,42
3,66,104,17
3,54,87,7937
3,59,80,0
3,47,108,582
3,47,89,190
3,54,98,13
3,59,89,0
3,59,98,190
3,54,111,0
3,47,106,800
3,54,95,25
3,59,89,0
3,59,75,14
3,54,90,0
3,47,89,660
3,47,91,90
3,54,97,25
3,59,89,0
3,59,90,35
3,54,92,2
3,59,89,80
3,54,95,0
3,54,58,155
3,47,94,33
3,54,94,12
3,59,92,3
3,59,82,580
3,54,90,0
3,47,92,689
3,59,87,85
3,54,98,0
3,54,98,157
3,59,84,0
3,54,92,20
3,59,87,3
3,47,92,556
3,54,88,5
3,59,78,3
3,59,75,21
3,54,85,0
3,54,82,93
3,59,78,0
3,47,94,462
3,47,82,70
3,54,92,20
3,59,83,13
3,54,97,20
3,59,88,0
3,47,88,90
3,62,80,23
3,57,72,10
3,47,88,20
3,54,88,20
3,59,81,0
3,47,94,20
3,47,93,190
3,54,88,12
3,59,89,10
3,55,111,7837
3,56,97,3
3,59,86,50
3,64,80,45
3,71,82,0
3,55,122,3060
3,56,104,40
3,64,73,0
3,62,88,68
3,62,91,173
3,64,77,12
3,62,83,22
3,64,99,173
3,59,108,1
3,64,101,120
3,59,111,0
3,59,101,105
3,64,106,0
3,64,73,2
3,54,119,120
3,61,122,0
3,66,107,0
3,54,119,130
3,61,122,3
3,66,115,0
3,54,122,140
3,66,104,0
3,61,122,1
3,64,90,8
3,62,89,0
3,59,90,21
3,57,99,15
3,59,89,128
3,54,102,0
3,54,96,133
3,59,88,0
3,54,83,135
3,47,77,0
3,59,81,0
3,54,94,308
3,47,89,0
3,59,89,2
3,54,95,137
3,59,85,13
3,47,75,88
3,54,83,42
3,59,81,7
3,54,94,238
3,59,82,0
3,47,89,0
3,54,90,137
3,59,80,0
3,47,83,0
3,54,83,131
3,47,85,0
3,59,83,3
3,59,89,243
3,47,85,0
3,54,95,1
3,54,89,123
3,59,82,0
3,47,85,15
3,47,89,77
3,54,75,9
3,59,71,0
3,59,73,12
3,54,84,3
3,47,91,47
3,59,78,0
3,54,79,0
3,54,92,73
3,59,92,2
3,47,82,14
3,54,98,130
3,59,91,12
3,47,82,87
3,59,82,13
3,54,75,12
3,59,89,295
3,54,95,0
3,47,94,1
3,54,96,130
3,59,89,0
3,47,89,0
3,47,89,90
3,59,86,20
3,54,88,0
3,54,96,255
3,59,82,0
3,47,91,0
3,54,89,127
3,59,86,0
3,47,86,15
3,59,75,140
3,47,90,0
3,54,78,0
3,54,103,238
3,54,99,143
3,59,97,0
3,47,98,83
3,59,97,4
3,54,96,0
3,74,122,189
3,71,122,21
3,69,122,15
3,66,122,15
3,71,115,58
3,69,118,43
3,66,122,58
3,64,115,1
3,65,122,8
3,66,119,60
3,64,122,59
3,62,122,20
3,64,122,59
3,62,122,1
3,59,115,59
3,57,122,56
3,59,122,51
3,62,118,13
3,59,122,13
3,57,122,0
3,59,122,60
3,57,122,58
3,54,122,55
3,53,117,0
3,54,99,1
3,54,122,48
3,57,122,56
3,58,122,54
3,59,122,0
3,58,107,0
3,62,122,0
3,57,122,1
3,59,108,11
3,66,122,145
3,64,108,7
3,64,93,22
3,64,74,3
3,64,103,7
3,62,106,20
3,64,92,58
3,62,94,39
3,64,93,31
3,62,98,23
3,59,98,30
3,71,94,3
3,69,89,25
3,66,92,51
3,71,87,7
3,74,87,7
3,71,90,45
3,74,84,30
3,78,91,2
3,76,98,40
3,74,89,45
3,71,86,5
3,76,85,37
3,74,85,7
3,71,86,49
3,59,103,60
3,66,100,0
3,66,119,48
3,59,101,0
3,59,106,3
3,66,119,0
3,66,119,30
3,59,99,0
3,66,115,48
3,59,108,0
3,64,108,26
3,59,111,0
3,66,77,20
3,47,98,7350
3,47,94,85
3,54,83,17
3,59,83,4
3,47,94,353
3,47,89,90
3,54,75,41
3,47,84,45
3,54,107,45
3,59,90,1
3,47,99,360
3,47,82,105
3,54,95,46
3,59,76,0
3,54,97,23
3,59,84,1
3,62,99,31
3,57,96,1
3,54,98,30
3,59,69,20
3,54,75,0
3,54,64,414
3,47,93,35
3,47,106,95
3,59,91,28
3,54,107,0
3,58,84,0
3,59,98,51
3,54,100,0
3,47,106,385
3,54,83,17
3,59,67,10
3,54,80,32
3,59,75,0
3,47,90,30
3,59,92,35
3,54,102,0
3,47,91,300
3,47,96,85
3,54,97,22
3,54,95,70
3,59,92,10
3,62,89,75
3,57,84,0
3,54,111,44
3,59,96,0
3,54,95,197
3,59,82,0
3,59,79,140
3,54,98,0
3,47,119,83
3,54,98,27
3,59,89,0
3,54,89,30
3,59,84,0
3,47,94,27
3,54,97,23
3,59,94,10
3,47,92,153
3,54,77,5
3,59,79,12
3,59,75,22
3,54,61,0
3,47,85,6
3,57,82,22
3,62,81,0
3,47,85,7
3,59,71,27
3,54,65,0
3,47,67,30
3,62,78,32
3,57,78,3
3,47,90,1
3,54,81,36
3,59,78,0
3,47,108,6
3,59,98,13
3,58,77,0
3,42,104,40
3,47,111,12
3,54,107,12
3,59,99,38
3,47,122,10
3,54,111,8
3,66,111,8
3,59,122,0
3,59,122,2270
3,64,106,0
3,47,91,2
3,52,106,10
3,54,100,3
3,59,90,0
3,54,102,38
3,47,108,8
3,57,108,3887
3,58,107,58
3,59,111,2
3,62,94,25
3,63,94,15
3,66,94,45
3,71,96,50
3,54,102,3
3,47,89,0
3,59,88,3
3,54,95,56
3,59,88,0
3,47,89,11
3,47,84,8
3,59,85,20
3,54,90,0
3,47,73,0
3,59,78,15
3,54,83,10
3,47,85,0
3,54,70,20
3,59,72,0
3,47,88,20
3,54,119,2
3,59,108,0
3,54,119,1
3,59,109,0
3,47,105,1
3,54,118,2
3,59,114,0
3,57,111,2
3,62,110,0
3,74,122,2
3,71,122,1
3,69,122,1
3,66,120,1
3,71,116,1
3,69,115,0
3,66,122,1
3,64,112,0
3,65,122,0
3,66,114,1
3,64,120,1
3,62,122,1
3,64,122,1
3,62,122,1
3,59,122,1
3,57,112,1
3,59,122,1
3,62,121,0
3,59,122,1
3,57,118,0
3,59,122,1
3,57,122,1
3,54,122,1
3,53,122,1
3,54,122,1
3,57,110,1
3,58,122,1
3,59,122,1
3,58,103,0
3,57,122,1
3,62,122,0
3,62,122,1
3,59,122,1
3,57,122,1
3,54,122,1
3,59,109,1
3,57,104,1
3,54,122,1
3,52,111,1
3,53,122,1
3,54,111,1
3,52,122,0
3,54,71,0
3,50,122,1
3,52,122,1
3,50,122,0
3,47,122,1
3,45,122,1
3,47,122,1
3,50,122,1
3,47,122,1
3,45,122,1
3,47,122,1
3,45,122,1
3,42,122,0
3,41,122,0
3,42,97,0
3,42,122,5
3,45,122,50
3,46,122,59
3,47,122,0
3,46,103,0
3,45,118,5
3,50,122,0
3,47,122,60
3,54,122,1
3,59,122,0
4,59,90,942
4,54,97,79
4,59,83,109
4,54,80,81
4,59,80,20
4,59,91,69
4,54,85,46
4,59,71,121
4,54,68,240
4,57,104,6
4,59,92,4
4,54,65,61
4,59,74,124
4,54,71,240
4,59,69,16
4,59,72,61
4,54,69,16
4,59,73,85
4,54,68,16
4,57,99,1
4,59,97,6
4,54,92,36
4,59,77,174
4,54,64,54
4,59,75,34
4,59,74,74
4,54,76,26
4,59,75,96
4,54,78,240
4,57,99,9
4,59,81,9
4,54,84,240
4,59,77,141
4,54,82,240
4,59,72,121
4,54,75,29
4,59,75,116
4,54,88,240
4,57,92,14
4,71,104,4
4,76,101,91
4,81,93,1
4,80,100,136
4,64,75,895
4,68,77,1
4,76,83,60
4,70,90,69
4,66,97,1
4,78,95,0
4,69,104,313
4,71,95,10
4,71,94,43
4,71,95,106
4,69,97,173
4,71,91,3
4,66,94,40
4,71,92,0
4,66,89,100
4,71,89,0
4,69,92,280
4,71,96,18
4,74,92,44
4,71,99,109
4,69,96,258
4,71,91,13
4,71,93,48
4,66,92,114
4,71,91,0
4,69,97,160
4,71,88,10
4,71,97,58
4,71,92,111
4,69,111,205
4,71,95,15
4,71,99,53
4,71,90,109
4,69,96,180
4,71,85,18
4,71,83,78
4,71,88,116
4,69,104,195
4,71,91,10
4,71,94,53
4,71,94,111
4,69,106,91
4,71,99,3
4,71,93,56
4,69,104,16
4,66,95,10
4,68,100,31
4,66,99,24
4,69,97,24
4,71,96,15
4,71,97,53
4,69,96,19
4,66,94,8
4,68,94,15
4,66,92,15
4,69,104,24
4,71,97,15
4,71,96,61
4,69,96,25
4,66,90,8
4,68,98,28
4,66,91,15
4,69,101,24
4,71,96,15
4,71,94,68
4,69,97,24
4,66,95,16
4,68,101,24
4,66,101,16
4,69,97,24
4,71,93,15
4,71,96,56
4,69,102,10
4,66,92,5
4,68,100,29
4,66,95,23
4,69,102,24
4,71,96,15
4,71,94,61
4,69,106,19
4,66,100,8
4,68,101,31
4,66,103,15
4,69,99,25
4,71,94,20
4,71,96,64
4,69,101,16
4,66,101,5
4,68,105,28
4,66,100,23
4,69,101,24
4,71,96,15
4,71,97,60
4,69,102,20
4,66,101,8
4,68,105,24
4,66,100,24
4,73,99,31
4,69,111,1
4,71,93,10
4,75,94,1
4,71,91,64
4,75,98,0
4,69,102,24
4,73,86,0
4,66,93,6
4,68,90,30
4,73,87,1
4,66,87,13
4,69,92,26
4,73,86,0
4,71,89,10
4,75,93,1
4,75,99,60
4,71,93,1
4,69,99,19
4,73,91,0
4,66,89,13
4,68,86,34
4,73,83,0
4,66,91,6
4,69,97,30
4,73,86,0
4,71,92,11
4,75,94,1
4,71,93,54
4,75,98,0
4,69,104,24
4,73,93,1
4,66,88,11
4,68,93,29
