track,note,velocity,time
0,72,49,956
0,67,49,0
0,76,49,0
0,67,49,0
0,74,49,0
0,71,49,4
0,65,49,708
0,69,49,4
0,72,49,0
0,75,38,2264
0,76,49,52
0,74,49,132
0,67,46,0
0,71,49,8
0,59,52,20
0,69,49,104
0,65,49,0
0,72,49,16
0,60,52,36
0,75,40,1064
0,76,49,60
0,74,49,100
0,71,49,0
0,67,49,8
0,43,85,1352
0,48,91,84
0,52,85,60
0,79,68,24
0,55,85,0
0,72,49,12
0,42,61,0
0,67,49,0
0,76,49,0
0,60,85,36
0,64,85,28
0,79,66,76
0,42,42,36
0,42,43,508
0,74,68,180
0,76,51,128
0,79,63,20
0,67,49,0
0,74,49,0
0,71,49,4
0,42,49,0
0,76,60,4
0,74,57,12
0,41,85,208
0,45,85,68
0,65,49,60
0,69,49,4
0,72,49,0
0,53,85,4
0,48,85,4
0,72,68,20
0,57,85,12
0,42,46,0
0,60,85,52
0,72,71,96
0,42,42,32
0,42,38,580
0,75,38,524
0,76,49,52
0,42,45,4
0,74,85,80
0,76,50,192
0,43,85,60
0,47,85,44
0,50,85,4
0,55,85,0
0,74,49,12
0,67,46,0
0,71,49,8
0,59,85,16
0,79,76,12
0,42,46,12
0,62,85,28
0,79,62,88
0,42,39,36
0,42,37,604
0,74,56,16
0,76,50,192
0,79,68,16
0,42,46,12
0,59,71,8
0,76,61,68
0,74,61,36
0,41,85,44
0,45,85,52
0,69,49,40
0,65,49,0
0,48,85,16
0,72,49,0
0,53,85,8
0,72,62,8
0,42,45,12
0,60,60,8
0,57,85,4
0,60,85,44
0,72,68,164
0,42,42,8
0,75,40,8
0,76,72,60
0,76,49,0
0,43,85,64
0,47,85,16
0,50,85,68
0,74,49,0
0,71,49,0
0,55,85,4
0,67,49,4
0,59,85,4
0,74,58,0
0,42,46,12
0,62,85,8
0,74,54,116
0,76,71,92
0,79,71,68
0,42,49,204
0,76,68,4
0,74,50,24
0,72,54,24
0,43,85,8
0,48,91,84
0,52,85,60
0,79,71,16
0,55,85,0
0,72,49,12
0,36,108,0
0,42,43,0
0,67,49,0
0,76,49,0
0,60,85,36
0,64,85,28
0,53,41,240
0,79,72,76
0,36,95,12
0,42,40,0
0,53,41,248
0,36,111,40
0,42,43,0
0,74,71,36
0,76,51,0
0,53,41,12
0,79,71,180
0,67,49,0
0,74,49,0
0,71,49,4
0,36,111,0
0,42,52,0
0,76,54,24
0,74,56,28
0,53,41,12
0,41,85,0
0,45,85,68
0,65,49,0
0,69,49,4
0,72,49,0
0,53,85,4
0,48,85,4
0,72,72,20
0,57,85,12
0,36,114,0
0,42,56,0
0,60,85,52
0,53,41,212
0,72,63,0
0,36,108,20
0,42,42,0
0,53,41,232
0,36,117,152
0,42,43,0
0,53,41,204
0,75,38,28
0,76,49,52
0,36,117,4
0,42,47,0
0,74,88,236
0,53,41,12
0,43,85,112
0,76,50,8
0,47,85,28
0,50,85,0
0,55,85,0
0,74,49,12
0,67,46,0
0,71,49,8
0,59,85,16
0,79,68,8
0,36,117,12
0,42,40,0
0,62,85,28
0,53,41,244
0,79,56,24
0,36,111,168
0,42,40,0
0,53,41,248
0,36,114,160
0,42,47,0
0,74,79,60
0,76,50,20
0,53,41,12
0,79,71,16
0,36,117,12
0,42,49,0
0,59,71,8
0,76,60,64
0,74,68,32
0,53,41,12
0,41,85,44
0,45,85,52
0,69,49,44
0,65,49,0
0,48,85,16
0,72,49,0
0,53,85,8
0,72,71,8
0,36,111,12
0,42,56,0
0,60,60,8
0,57,85,4
0,60,85,44
0,53,41,252
0,72,76,36
0,36,117,204
0,42,52,0
0,75,40,8
0,76,82,60
0,76,49,0
0,53,41,12
0,43,85,64
0,47,85,16
0,50,85,68
0,74,49,8
0,71,49,0
0,55,85,4
0,67,49,4
0,59,85,4
0,74,71,0
0,36,117,12
0,42,54,0
0,62,85,8
0,74,58,52
0,76,76,64
0,53,41,12
0,79,71,56
0,36,117,20
0,42,52,0
0,76,79,8
0,74,56,28
0,40,124,0
0,38,124,8
0,49,107,0
0,72,66,16
0,43,85,8
0,48,91,84
0,52,85,52
0,79,66,20
0,55,85,0
0,84,29,4
0,36,83,0
0,48,56,0
0,48,93,0
0,52,93,0
0,36,123,0
0,44,124,0
0,57,113,0
0,79,29,0
0,88,29,0
0,60,85,36
0,64,85,28
0,55,46,4
0,52,55,0
0,42,96,0
0,57,54,132
0,52,65,0
0,40,124,0
0,44,114,0
0,54,67,36
0,79,76,68
0,55,52,12
0,52,55,0
0,36,100,0
0,42,96,0
0,31,84,32
0,48,50,0
0,48,73,0
0,52,66,0
0,36,103,0
0,44,104,0
0,55,46,104
0,52,55,0
0,42,94,0
0,57,58,124
0,52,68,0
0,40,124,0
0,44,124,0
0,54,72,0
0,55,46,60
0,52,55,0
0,42,101,0
0,36,84,8
0,48,50,0
0,48,81,0
0,52,67,0
0,36,120,0
0,44,94,0
0,74,76,56
0,55,49,12
0,52,55,0
0,42,94,0
0,76,56,116
0,54,72,4
0,57,58,4
0,52,68,0
0,40,123,0
0,44,114,0
0,79,68,24
0,55,52,12
0,52,55,0
0,36,103,0
0,42,96,0
0,79,29,0
0,86,29,0
0,83,29,4
0,31,82,0
0,48,52,0
0,48,90,0
0,52,77,0
0,36,114,0
0,44,94,0
0,76,68,24
0,55,46,12
0,52,55,0
0,42,94,0
0,74,56,28
0,57,46,12
0,52,71,0
0,40,123,0
0,44,109,0
0,54,59,4
0,55,46,72
0,52,56,0
0,42,92,0
0,41,85,4
0,45,85,48
0,77,29,4
0,81,29,4
0,84,29,0
0,53,85,4
0,48,85,4
0,72,66,20
0,29,78,12
0,57,85,0
0,53,46,0
0,48,87,0
0,53,81,0
0,36,120,0
0,44,90,0
0,60,85,52
0,60,46,64
0,53,55,0
0,42,86,0
0,62,46,120
0,53,67,0
0,40,120,0
0,44,104,0
0,54,72,12
0,72,72,52
0,60,46,12
0,53,55,0
0,36,111,0
0,42,90,0
0,36,81,48
0,53,46,0
0,48,93,0
0,53,68,0
0,36,111,0
0,44,92,0
0,60,46,72
0,53,55,0
0,42,94,0
0,62,57,128
0,53,61,0
0,40,123,0
0,44,104,0
0,54,82,16
0,60,54,80
0,53,55,0
0,42,94,0
0,29,79,52
0,53,52,0
0,48,90,0
0,53,62,0
0,36,120,0
0,44,83,0
0,60,52,64
0,53,55,0
0,42,92,0
0,62,62,128
0,53,63,0
0,40,117,0
0,44,114,0
0,54,87,0
0,60,56,68
0,53,55,0
0,36,111,0
0,42,96,0
0,87,18,52
0,88,29,20
0,36,78,4
0,53,57,0
0,48,87,0
0,53,68,0
0,36,104,0
0,44,94,0
0,60,49,60
0,53,55,0
0,42,104,0
0,74,79,16
0,29,78,12
0,62,49,0
0,53,67,0
0,40,123,0
0,44,109,0
0,54,82,12
0,43,85,44
0,76,54,8
0,60,52,0
0,53,55,0
0,42,104,0
0,47,85,4
0,50,85,4
0,55,85,0
0,86,29,12
0,79,26,0
0,83,29,8
0,59,85,4
0,79,62,12
0,31,78,12
0,55,46,0
0,50,81,0
0,55,68,0
0,36,117,0
0,44,96,0
0,62,85,28
0,62,46,56
0,55,55,0
0,42,92,0
0,64,59,116
0,55,58,0
0,40,124,0
0,44,104,0
0,54,87,28
0,79,63,56
0,62,58,12
0,55,59,0
0,36,103,0
0,42,86,0
0,38,78,48
0,55,54,0
0,50,81,0
0,55,65,0
0,36,104,0
0,44,92,0
0,62,56,52
0,55,55,0
0,42,92,0
0,64,62,116
0,55,59,0
0,40,120,0
0,44,104,0
0,54,82,4
0,62,62,76
0,55,55,0
0,42,85,0
0,31,78,76
0,55,53,0
0,50,96,0
0,55,76,0
0,36,117,0
0,44,92,0
0,74,76,48
0,62,54,12
0,55,55,0
0,42,90,0
0,76,54,12
0,64,64,12
0,55,66,0
0,40,120,0
0,44,94,0
0,54,82,0
0,79,62,40
0,62,64,12
0,55,56,0
0,36,104,0
0,42,85,0
0,38,78,12
0,55,57,0
0,50,96,0
0,55,71,0
0,36,100,0
0,44,86,0
0,71,32,8
0,76,50,20
0,62,52,12
0,55,55,0
0,42,86,0
0,74,58,8
0,31,78,12
0,64,49,0
0,55,63,0
0,40,120,0
0,44,94,0
0,54,82,24
0,62,53,8
0,55,55,0
0,42,85,0
0,41,85,36
0,45,85,0
0,81,29,8
0,77,29,0
0,48,85,16
0,84,29,0
0,53,85,8
0,72,79,8
0,29,78,12
0,53,46,0
0,48,84,0
0,53,71,0
0,36,117,0
0,44,88,0
0,72,32,8
0,57,85,4
0,60,85,8
0,60,50,56
0,53,55,0
0,42,85,0
0,54,82,116
0,62,46,4
0,53,59,0
0,40,123,0
0,44,96,0
0,72,63,52
0,60,52,12
0,53,55,0
0,36,100,0
0,42,82,0
0,36,78,80
0,53,46,0
0,48,93,0
0,53,71,0
0,36,111,0
0,44,92,0
0,60,52,20
0,53,55,0
0,42,90,0
0,87,20,8
0,76,79,60
0,88,29,0
0,62,56,12
0,53,65,0
0,40,124,0
0,44,101,0
0,54,77,4
0,60,52,56
0,53,55,0
0,42,90,0
0,43,85,8
0,47,85,4
0,50,85,28
0,86,29,0
0,83,29,0
0,55,85,4
0,79,29,4
0,59,85,4
0,74,79,0
0,31,78,12
0,55,46,0
0,50,90,0
0,55,73,0
0,36,120,0
0,44,94,0
0,62,85,8
0,74,61,52
0,62,46,12
0,55,55,0
0,42,92,0
0,54,82,84
0,76,72,4
0,64,46,12
0,55,59,0
0,40,120,0
0,44,101,0
0,79,62,48
0,62,53,12
0,55,55,0
0,36,100,0
0,42,88,0
0,38,78,84
0,55,52,0
0,50,87,0
0,55,67,0
0,36,103,0
0,44,90,0
0,76,79,8
0,62,47,12
0,55,55,0
0,42,90,0
0,74,54,8
0,31,81,12
0,64,57,0
0,55,55,0
0,40,120,0
0,44,101,0
0,54,82,4
0,72,56,24
0,43,85,8
0,62,58,4
0,55,59,0
0,42,92,0
0,48,91,0
0,52,85,52
0,79,66,24
0,55,85,0
0,84,29,12
0,36,78,0
0,48,56,0
0,48,87,0
0,52,76,0
0,36,117,0
0,44,96,0
0,49,93,0
0,79,29,0
0,88,29,0
0,60,85,36
0,64,85,12
0,55,46,52
0,52,55,0
0,42,88,0
0,57,54,112
0,52,63,0
0,40,123,0
0,44,90,0
0,54,82,8
0,79,63,36
0,55,52,12
0,52,59,0
0,36,93,0
0,42,94,0
0,31,78,44
0,48,50,0
0,48,93,0
0,52,73,0
0,36,103,0
0,44,90,0
0,55,46,48
0,52,55,0
0,42,90,0
0,57,58,112
0,52,68,0
0,40,120,0
0,44,104,0
0,54,82,16
0,55,46,60
0,52,59,0
0,42,92,0
0,36,78,104
0,48,50,0
0,48,87,0
0,52,73,0
0,36,120,0
0,44,90,0
0,74,76,36
0,55,49,12
0,52,55,0
0,42,92,0
0,76,60,52
0,54,87,4
0,57,58,8
0,52,71,0
0,40,117,0
0,44,101,0
0,79,61,36
0,55,52,12
0,52,62,0
0,36,103,0
0,42,85,0
0,79,29,0
0,86,29,0
0,83,29,4
0,31,78,0
0,48,52,0
0,48,90,0
0,52,66,0
0,36,103,0
0,44,92,0
0,76,76,12
0,55,46,12
0,52,55,0
0,42,88,0
0,74,60,40
0,36,78,8
0,57,46,0
0,52,68,0
0,40,114,0
0,44,96,0
0,54,82,12
0,55,46,60
0,52,67,0
0,42,101,0
0,41,85,4
0,45,85,68
0,77,29,36
0,81,29,0
0,84,29,0
0,53,85,0
0,48,85,4
0,72,68,20
0,29,78,12
0,57,85,0
0,53,46,0
0,48,90,0
0,53,84,0
0,36,117,0
0,44,90,0
0,60,85,0
0,60,46,36
0,53,55,0
0,42,85,0
0,62,46,0
0,53,73,0
0,40,117,0
0,44,96,0
0,54,82,12
0,72,61,52
0,60,46,12
0,53,61,0
0,36,98,0
0,42,81,0
0,36,78,28
0,53,46,0
0,48,90,0
0,53,77,0
0,36,108,0
0,44,86,0
0,60,46,60
0,53,55,0
0,42,78,0
0,54,87,96
0,62,57,4
0,53,68,0
0,40,120,0
0,44,104,0
0,60,54,40
0,53,63,0
0,42,94,0
0,29,78,100
0,53,52,0
0,48,93,0
0,53,71,0
0,36,117,0
0,44,82,0
0,60,52,56
0,53,58,0
0,42,83,0
0,62,62,4
0,53,67,0
0,40,120,0
0,44,104,0
0,54,82,16
0,60,56,40
0,53,56,0
0,36,103,0
0,42,86,0
0,87,18,20
0,88,29,32
0,36,79,4
0,53,57,0
0,48,93,0
0,53,73,0
0,36,100,0
0,44,82,0
0,60,49,52
0,53,56,0
0,42,88,0
0,74,82,32
0,29,78,12
0,62,49,0
0,53,68,0
0,40,120,0
0,44,96,0
0,54,72,20
0,43,85,32
0,76,51,8
0,60,52,0
0,53,55,0
0,42,92,0
0,47,85,12
0,50,85,4
0,55,85,0
0,86,29,12
0,79,26,0
0,83,29,8
0,59,85,4
0,79,66,12
0,31,81,12
0,55,46,0
0,50,84,0
0,55,77,0
0,36,120,0
0,44,78,0
0,62,85,8
0,62,46,32
0,55,55,0
0,42,86,0
0,64,59,12
0,55,61,0
0,40,117,0
0,44,96,0
0,54,82,28
0,79,61,40
0,62,58,12
0,55,56,0
0,36,103,0
0,42,85,0
0,38,78,60
0,55,54,0
0,50,93,0
0,55,77,0
0,36,108,0
0,44,82,0
0,62,56,56
0,55,55,0
0,42,82,0
0,64,62,16
0,55,62,0
0,40,123,0
0,44,101,0
0,54,82,16
0,62,62,52
0,55,56,0
0,42,96,0
0,31,78,32
0,55,53,0
0,50,93,0
0,55,68,0
0,36,120,0
0,44,79,0
0,74,60,40
0,62,54,12
0,55,55,0
0,42,94,0
0,76,63,44
0,64,64,12
0,55,56,0
0,40,117,0
0,44,101,0
0,54,82,12
0,79,66,36
0,62,64,12
0,55,55,0
0,36,108,0
0,42,101,0
0,38,79,12
0,55,57,0
0,50,96,0
0,55,76,0
0,36,95,0
0,44,83,0
0,71,32,8
0,76,72,24
0,62,52,12
0,55,55,0
0,42,94,0
0,74,63,4
0,31,79,12
0,64,49,0
0,55,59,0
0,40,123,0
0,44,101,0
0,54,82,8
0,62,53,8
0,55,56,0
0,42,94,0
0,41,85,36
0,45,85,0
0,81,29,28
0,77,29,0
0,48,85,16
0,84,29,0
0,53,85,4
0,72,79,8
0,29,78,12
0,53,46,0
0,48,93,0
0,53,84,0
0,36,111,0
0,44,90,0
0,72,32,8
0,57,85,4
0,60,85,16
0,60,50,44
0,53,56,0
0,42,90,0
0,62,46,96
0,53,65,0
0,40,120,0
0,44,96,0
0,54,82,12
0,72,72,24
0,60,52,12
0,53,59,0
0,36,108,0
0,42,94,0
0,36,78,80
0,53,46,0
0,48,93,0
0,53,73,0
0,36,103,0
0,44,85,0
0,60,52,20
0,53,55,0
0,42,94,0
0,87,20,8
0,76,85,28
0,88,29,0
0,54,82,8
0,29,78,4
0,62,56,0
0,53,63,0
0,40,120,0
0,44,96,0
0,60,52,56
0,53,58,0
0,42,94,0
0,43,85,8
0,47,85,16
0,50,85,0
0,86,29,4
0,83,29,0
0,55,85,4
0,79,29,4
0,59,85,4
0,74,76,0
0,31,78,0
0,55,46,0
0,50,96,0
0,55,87,0
0,36,120,0
0,44,88,0
0,62,85,8
0,74,60,40
0,62,46,12
0,55,55,0
0,42,90,0
0,76,79,100
0,64,46,12
0,55,61,0
0,40,120,0
0,44,90,0
0,54,77,0
0,79,68,52
0,62,53,12
0,55,56,0
0,36,104,0
0,42,90,0
0,38,78,0
0,55,52,0
0,50,97,0
0,55,81,0
0,36,114,0
0,44,92,0
0,76,79,48
0,62,47,12
0,55,58,0
0,42,104,0
0,74,62,20
0,31,78,0
0,64,57,0
0,55,59,0
0,40,120,0
0,46,114,0
0,54,87,4
0,72,76,32
0,43,85,8
0,62,58,4
0,55,56,0
0,48,91,4
0,52,85,0
0,55,85,32
0,60,59,4
0,64,59,0
0,67,59,0
0,36,92,0
0,48,84,0
0,52,81,0
0,36,120,0
0,44,124,0
0,49,93,0
