track,note,velocity,time
0,57,108,205
0,60,109,0
0,64,110,0
0,55,108,0
0,45,119,0
0,33,123,0
0,60,109,0
0,55,0,50
0,60,0,5
0,57,0,0
0,45,0,1
0,33,0,0
0,64,0,4
0,57,104,60
0,60,102,0
0,62,103,0
0,55,106,0
0,33,118,0
0,45,118,0
0,55,0,55
0,57,0,1
0,62,0,1
0,57,105,60
0,55,110,0
0,60,100,0
0,62,105,0
0,57,90,18
0,60,89,0
0,62,93,0
0,55,102,0
0,45,119,5
0,33,123,0
0,54,112,10
0,60,97,0
0,64,98,0
0,57,93,0
0,26,124,5
0,38,127,0
0,54,115,4
0,57,95,0
0,62,103,0
0,60,93,0
0,38,120,0
0,26,121,0
0,54,117,3
0,62,102,0
0,57,95,0
0,60,91,0
0,38,119,0
0,26,118,0
0,54,108,8
0,57,82,0
0,60,74,0
0,62,90,0
0,38,123,4
0,26,124,0
0,57,105,10
0,60,105,0
0,64,104,0
0,53,110,0
0,43,120,10
0,31,113,0
0,57,102,10
0,60,102,0
0,62,104,0
0,53,106,0
0,43,115,0
0,31,120,0
0,57,102,5
0,60,99,0
0,62,103,0
0,53,111,0
0,31,115,0
0,43,116,0
0,57,81,10
0,53,97,0
0,60,80,0
0,62,94,0
0,31,120,4
0,43,120,0
0,64,109,0
0,55,109,0
0,60,104,0
0,48,113,4
0,36,119,0
0,60,105,9
0,48,113,0
0,55,106,0
0,64,104,0
0,36,119,0
0,48,110,3
0,55,108,0
0,60,108,0
0,64,108,0
0,36,114,0
0,50,127,0
0,45,94,0
0,45,0,1
0,55,98,2
0,60,97,0
0,64,104,0
0,55,127,0
0,45,94,0
0,45,0,1
0,45,94,3
0,45,0,1
0,48,113,3
0,36,119,0
0,57,127,0
0,45,110,0
0,45,0,1
0,60,110,3
0,55,111,0
0,64,108,0
0,57,104,0
0,55,127,0
0,33,119,1
0,45,120,0
0,57,127,0
0,35,97,0
0,35,0,1
0,35,89,6
0,35,0,1
0,45,0,2
0,57,103,6
0,60,103,0
0,62,103,0
0,55,108,0
0,33,119,0
0,45,123,0
0,67,103,0
0,60,103,0
0,62,104,0
0,55,103,0
0,38,127,0
0,44,70,0
0,44,0,1
0,38,0,0
0,35,97,6
0,35,0,1
0,60,103,6
0,62,104,0
0,55,109,0
0,57,103,0
0,33,114,0
0,45,118,0
0,35,104,0
0,35,0,1
0,57,84,1
0,60,82,0
0,62,90,0
0,55,95,0
0,45,127,0
0,35,104,0
0,35,0,1
0,45,0,4
0,33,0,1
0,33,123,0
0,45,124,0
0,52,127,0
0,62,104,0
0,60,104,0
0,67,103,0
0,55,103,0
0,38,127,0
0,44,70,0
0,44,0,1
0,38,0,0
0,54,114,1
0,60,102,0
0,64,102,0
0,57,94,0
0,35,97,0
0,33,0,1
0,35,0,0
0,26,124,6
0,38,125,0
0,54,115,1
0,62,100,0
0,57,91,0
0,60,91,0
0,38,124,0
0,26,125,0
0,60,104,0
0,54,103,0
0,62,103,0
0,38,120,0
0,44,99,0
0,44,0,1
0,38,0,0
0,35,97,11
0,35,0,1
0,54,116,10
0,62,102,0
0,57,92,0
0,60,92,0
0,38,119,0
0,26,123,0
0,35,97,0
0,54,98,10
0,57,82,0
0,60,82,0
0,62,82,0
0,35,94,0
0,38,123,5
0,26,127,0
0,60,104,0
0,62,104,0
0,54,103,0
0,38,120,0
0,44,92,0
0,44,0,1
0,38,0,0
0,53,110,0
0,64,105,0
0,57,103,0
0,60,99,0
0,52,127,0
0,35,89,0
0,53,127,5
0,31,123,5
0,43,124,0
0,55,127,0
0,35,97,5
0,43,0,1
0,53,0,0
0,35,0,0
0,64,0,1
0,57,0,3
0,31,0,1
0,60,0,2
0,57,104,14
0,53,110,0
0,60,104,0
0,62,105,0
0,43,119,0
0,31,120,0
0,60,104,0
0,57,107,0
0,62,103,0
0,53,103,0
0,38,127,0
0,44,92,0
0,44,0,1
0,38,0,0
0,35,104,10
0,35,0,1
0,62,106,5
0,53,113,0
0,57,104,0
0,60,103,0
0,31,120,0
0,43,118,0
0,50,127,0
0,51,127,0
0,52,127,0
0,35,89,0
0,35,0,1
0,50,0,4
0,51,0,5
0,53,0,31
0,60,0,5
0,52,0,2
0,62,0,2
0,57,0,0
0,57,86,4
0,62,89,0
0,60,79,0
0,53,95,0
0,55,127,0
0,35,104,0
0,35,0,1
0,43,0,9
0,31,123,7
0,43,124,0
0,51,127,0
0,50,127,0
0,60,107,0
0,62,104,0
0,57,104,0
0,53,103,0
0,38,127,0
0,44,87,0
0,44,0,1
0,38,0,0
0,60,106,9
0,55,105,0
0,64,104,0
0,48,127,0
0,35,97,0
0,31,0,1
0,35,0,0
0,43,0,5
0,60,0,15
0,48,114,39
0,36,121,0
0,48,0,62
0,55,0,3
0,36,0,3
0,64,0,2
0,60,0,1
0,55,109,34
0,48,113,0
0,60,106,0
0,64,106,0
0,36,116,0
0,64,103,0
0,60,114,0
0,55,103,0
0,38,127,0
0,44,89,0
0,44,0,1
0,38,0,0
0,48,0,15
0,55,0,35
0,60,0,0
0,64,0,0
0,48,0,11
0,55,0,4
0,36,0,2
0,60,0,2
0,64,0,0
0,35,97,20
0,35,0,1
0,48,109,5
0,55,105,0
0,64,106,0
0,60,104,0
0,36,114,0
0,50,127,0
0,52,127,0
0,35,94,0
0,35,0,1
0,50,0,4
0,55,0,32
0,60,0,3
0,64,0,0
0,52,0,10
0,60,95,10
0,55,99,0
0,64,104,0
0,55,127,0
0,35,94,0
0,35,0,1
0,48,0,14
0,36,0,5
0,55,0,37
0,48,111,3
0,36,120,0
0,57,127,0
0,60,107,0
0,64,103,0
0,55,103,0
0,38,127,0
0,35,97,0
0,44,85,0
0,44,0,1
0,35,0,0
0,38,0,0
0,55,0,11
0,64,0,3
0,60,0,0
0,57,0,16
0,55,0,20
0,64,0,0
0,60,0,0
0,48,0,4
0,60,108,5
0,64,106,0
0,55,106,0
0,57,103,0
0,55,127,0
0,35,97,0
0,35,0,1
0,36,0,2
0,55,0,27
0,33,119,4
0,45,120,0
0,57,127,0
0,67,100,0
0,67,105,0
0,67,98,0
0,67,84,0
0,35,64,0
0,35,0,1
0,35,89,24
0,35,0,1
0,45,0,2
0,55,0,3
0,33,0,0
0,57,0,4
0,60,0,2
0,64,0,3
0,57,103,45
0,60,103,0
0,62,103,0
0,55,108,0
0,33,119,0
0,45,123,0
0,67,103,0
0,60,107,0
0,62,120,0
0,55,107,0
0,38,127,0
0,44,88,0
0,44,0,1
0,38,0,0
0,57,0,39
0,55,0,11
0,67,0,0
0,60,0,0
0,62,0,0
0,55,0,6
0,45,0,3
0,62,0,2
0,33,0,1
0,60,0,2
0,57,0,1
0,45,127,24
0,35,94,0
0,35,0,1
0,45,0,4
0,60,103,25
0,62,104,0
0,55,109,0
0,57,103,0
0,33,114,0
0,45,118,0
0,45,127,0
0,35,97,0
0,35,0,1
0,57,0,39
0,55,0,0
0,62,0,1
0,60,0,4
0,45,0,11
0,57,84,4
0,60,82,0
0,62,90,0
0,55,95,0
0,45,127,0
0,35,104,0
0,35,0,1
0,45,0,4
0,33,0,1
0,45,0,29
0,55,0,21
0,62,0,4
0,33,123,0
0,45,124,0
0,52,127,0
0,67,103,0
0,60,114,0
0,62,120,0
0,55,107,0
0,38,120,0
0,44,87,0
0,44,0,1
0,38,0,0
0,57,0,4
0,60,0,0
0,67,0,22
0,67,0,1
0,67,0,17
0,55,0,6
0,67,0,0
0,60,0,0
0,62,0,0
0,45,0,2
0,54,114,7
0,60,102,0
0,64,102,0
0,57,94,0
0,66,104,0
0,66,109,0
0,66,105,0
0,66,103,0
0,35,97,0
0,33,0,1
0,35,0,0
0,26,124,24
0,38,125,0
0,64,0,50
0,54,0,0
0,38,127,4
0,60,0,2
0,38,0,3
0,26,0,1
0,57,0,9
0,38,0,26
0,54,115,19
0,62,100,0
0,57,91,0
0,60,91,0
0,38,124,0
0,26,125,0
0,38,127,0
0,60,114,0
0,62,103,0
0,54,103,0
0,38,127,0
0,44,88,0
0,44,0,1
0,38,0,0
0,54,0,50
0,62,0,0
0,60,0,0
0,38,0,9
0,60,0,1
0,26,0,0
0,54,0,1
0,62,0,3
0,57,0,3
0,35,97,22
0,35,0,1
0,54,116,29
0,62,102,0
0,57,92,0
0,60,92,0
0,38,119,0
0,26,123,0
0,50,127,0
0,35,97,0
0,35,0,1
0,54,0,40
0,60,0,5
0,62,0,0
0,57,0,0
0,50,0,9
0,54,98,5
0,57,82,0
0,60,82,0
0,62,82,0
0,52,127,0
0,35,97,0
0,35,0,1
0,38,0,5
0,38,0,1
0,26,0,4
0,54,0,31
0,57,0,8
0,60,0,0
0,62,0,2
0,52,0,3
0,38,123,5
0,26,127,0
0,55,127,0
0,60,104,0
0,62,103,0
0,54,103,0
0,38,114,0
0,35,97,0
0,44,88,0
0,44,0,1
0,35,0,0
0,38,0,0
0,66,0,1
0,66,0,1
0,66,0,28
0,66,0,0
0,54,0,20
0,62,0,0
0,60,0,0
0,55,0,4
0,26,0,5
0,53,110,0
0,64,105,0
0,57,103,0
0,60,99,0
0,52,127,0
0,65,106,0
0,65,111,0
0,65,97,0
0,65,103,0
0,35,110,0
0,35,0,1
0,31,123,5
0,43,124,0
0,55,127,0
0,43,0,61
0,53,0,0
0,64,0,1
0,57,0,3
0,31,0,1
0,60,0,2
0,57,104,52
0,53,110,0
0,60,104,0
0,62,105,0
0,43,119,0
0,31,120,0
0,60,104,0
0,57,103,0
0,53,103,0
0,62,107,0
0,38,127,0
0,44,85,0
0,44,0,1
0,38,0,0
0,62,0,50
0,60,0,0
0,57,0,0
0,53,0,0
0,53,0,4
0,62,0,5
0,55,0,0
0,50,127,0
0,57,0,1
0,60,0,0
0,43,0,2
0,31,0,2
0,62,106,34
0,53,113,0
0,57,104,0
0,60,103,0
0,31,120,0
0,43,118,0
0,50,0,0
0,55,127,0
0,35,97,0
0,35,0,1
0,53,0,40
0,60,0,5
0,62,0,4
0,57,0,0
0,57,86,10
0,62,89,0
0,60,79,0
0,53,95,0
0,55,0,0
0,52,127,0
0,35,97,0
0,35,0,1
0,43,0,9
0,31,0,5
0,31,123,4
0,43,124,0
0,48,127,0
0,60,103,0
0,62,103,0
0,53,103,0
0,57,103,0
0,38,114,0
0,44,90,0
0,44,0,1
0,38,0,0
0,57,0,2
0,62,0,0
0,65,0,9
0,65,0,0
0,65,0,1
0,65,0,14
0,60,106,5
0,55,105,0
0,64,104,0
0,48,127,0
0,64,116,0
0,64,121,0
0,64,101,0
0,64,104,0
0,38,125,0
0,55,100,0
0,31,0,1
0,55,0,0
0,38,0,0
0,43,0,5
0,48,114,34
0,36,121,0
0,35,97,0
0,44,74,0
0,44,0,1
0,35,0,0
0,35,97,59
0,35,0,1
0,48,0,1
0,55,0,3
0,36,0,3
0,64,0,2
0,60,0,1
0,55,109,49
0,48,113,0
0,60,106,0
0,64,106,0
0,36,116,0
0,64,103,0
0,60,114,0
0,55,103,0
0,45,104,0
0,45,0,1
0,38,60,29
0,38,0,1
0,55,0,20
0,60,0,0
0,64,0,0
0,64,0,2
0,40,109,7
0,40,0,1
0,48,0,1
0,55,0,4
0,36,0,2
0,60,0,2
0,64,0,0
0,64,0,15
0,64,0,1
0,48,0,4
0,40,109,0
0,64,0,1
0,40,0,0
0,48,109,5
0,55,105,0
0,64,106,0
0,60,104,0
0,36,114,0
0,47,127,0
0,64,116,0
0,64,121,0
0,64,107,0
0,64,108,0
0,40,115,0
0,40,0,1
0,60,95,5
0,55,99,0
0,64,104,0
0,47,127,0
0,64,0,0
0,65,116,0
0,64,0,0
0,65,121,0
0,65,100,0
0,65,98,0
0,40,112,0
0,40,0,1
0,48,0,14
0,36,0,5
0,65,0,30
0,65,0,3
0,47,0,2
0,48,111,5
0,36,120,0
0,46,127,0
0,60,114,0
0,55,103,0
0,64,103,0
0,65,0,0
0,66,116,0
0,65,0,0
0,66,121,0
0,66,114,0
0,66,115,0
0,45,104,0
0,35,97,0
0,35,0,1
0,45,0,0
0,55,0,11
0,64,0,3
0,60,0,0
0,64,0,36
0,55,0,0
0,60,0,0
0,48,0,4
0,66,0,0
0,66,0,0
0,60,108,4
0,64,106,0
0,55,106,0
0,57,103,0
0,67,116,0
0,67,121,0
0,66,0,0
0,67,112,0
0,67,105,0
0,45,100,0
0,45,0,1
0,36,0,2
0,66,0,2
0,33,119,0
0,45,120,0
0,33,127,0
0,74,121,0
0,75,127,0
0,35,97,0
0,49,99,0
0,49,0,1
0,35,0,0
0,74,0,15
0,75,0,1
0,76,115,0
0,67,0,0
0,35,97,30
0,67,0,1
0,35,0,0
0,45,0,2
0,55,0,3
0,33,0,0
0,57,0,4
0,60,0,2
0,64,0,3
0,67,0,2
0,67,0,1
0,57,103,0
0,60,103,0
0,62,103,0
0,55,108,0
0,33,119,0
0,45,123,0
0,67,103,0
0,60,104,0
0,62,107,0
0,55,107,0
0,76,0,0
0,77,125,0
0,42,82,0
0,38,120,0
0,38,0,1
0,42,0,0
0,77,0,14
0,55,0,42
0,74,115,0
0,75,127,0
0,76,112,0
0,35,97,0
0,35,0,1
0,62,0,1
0,33,0,1
0,60,0,2
0,57,0,1
0,62,0,9
0,75,0,0
0,74,0,0
0,67,0,5
0,60,0,1
0,55,0,0
0,33,0,4
0,60,103,35
0,62,104,0
0,55,109,0
0,57,103,0
0,33,114,0
0,45,118,0
0,33,127,0
0,42,79,0
0,35,104,0
0,35,0,1
0,42,0,0
0,57,0,39
0,55,0,0
0,62,0,1
0,60,0,4
0,33,0,5
0,57,84,10
0,60,82,0
0,62,90,0
0,55,95,0
0,33,127,0
0,35,97,0
0,35,0,1
0,45,0,4
0,33,0,1
0,33,123,0
0,45,124,0
0,60,104,0
0,62,114,0
0,55,107,0
0,67,103,0
0,76,117,0
0,72,122,0
0,76,111,0
0,72,103,0
0,76,112,0
0,42,74,0
0,38,127,0
0,54,114,7
0,60,102,0
0,64,102,0
0,57,94,0
0,40,127,0
0,35,97,0
0,33,0,1
0,35,0,0
0,72,97,15
0,66,102,0
0,66,111,0
0,72,104,0
0,72,101,0
0,40,0,20
0,26,124,0
0,38,125,0
0,38,127,0
0,74,125,0
0,75,127,0
0,35,97,0
0,42,79,0
0,42,0,1
0,35,0,0
0,75,0,15
0,74,0,1
0,76,117,13
0,64,0,20
0,54,0,0
0,72,0,5
0,74,127,5
0,60,0,2
0,38,0,3
0,26,0,1
0,72,0,0
0,76,0,2
0,74,0,2
0,57,0,5
0,72,0,3
0,66,0,0
0,66,0,2
0,54,115,0
0,62,100,0
0,57,91,0
0,60,91,0
0,38,124,0
0,26,125,0
0,60,104,0
0,62,103,0
0,54,103,0
0,74,127,0
0,42,82,0
0,38,127,0
0,38,0,1
0,42,0,0
0,74,0,10
0,74,117,19
0,74,0,14
0,75,127,0
0,76,107,0
0,35,97,0
0,60,0,1
0,26,0,0
0,35,0,0
0,54,0,1
0,62,0,3
0,62,0,0
0,57,0,3
0,75,0,17
0,38,0,10
0,54,116,25
0,62,102,0
0,57,92,0
0,60,92,0
0,38,119,0
0,26,123,0
0,38,127,0
0,42,79,0
0,35,94,0
0,35,0,1
0,42,0,0
0,54,0,40
0,60,0,5
0,62,0,0
0,57,0,0
0,38,0,4
0,54,98,10
0,57,82,0
0,60,82,0
0,62,82,0
0,38,127,0
0,35,97,0
0,35,0,1
0,38,0,6
0,26,0,4
0,54,0,31
0,38,123,1
0,26,127,0
0,40,127,0
0,60,107,0
0,62,107,0
0,54,103,0
0,76,122,0
0,72,127,0
0,72,105,0
0,76,112,0
0,76,111,0
0,42,82,0
0,38,127,0
0,53,110,0
0,64,105,0
0,57,103,0
0,60,99,0
0,43,127,0
0,54,0,0
0,60,0,0
0,35,89,0
0,35,0,1
0,62,0,4
0,38,0,2
0,76,0,0
0,76,0,3
0,76,0,1
0,76,0,1
0,72,0,0
0,72,0,1
0,74,115,0
0,72,92,0
0,65,97,0
0,65,96,0
