track,note,velocity,time
1,35,100,2652
1,35,100,80
1,35,100,96
1,35,100,112
1,35,100,240
1,35,100,180
1,35,100,188
1,35,100,212
1,35,100,108
1,30,100,48
1,35,100,16
1,35,100,76
1,35,100,104
1,35,100,112
1,35,100,276
1,35,100,232
1,35,100,116
1,30,100,144
1,35,100,192
1,35,100,220
1,35,100,120
1,35,100,96
1,44,100,192
1,44,100,140
1,44,100,128
1,37,100,384
1,38,100,44
1,39,100,0
1,39,100,100
1,39,100,120
1,39,100,264
1,39,100,156
1,39,100,132
1,39,100,156
1,39,100,60
1,44,100,108
1,44,100,140
1,37,100,24
1,37,100,144
1,42,100,32
1,42,100,140
1,35,100,72
1,35,100,96
1,35,100,128
1,42,100,128
1,35,100,96
1,35,80,168
1,35,82,96
1,30,100,0
1,35,100,96
1,35,100,220
1,35,100,120
1,35,100,96
1,44,100,192
1,44,100,140
1,44,100,128
1,37,100,384
1,38,100,44
1,39,100,0
1,39,100,100
1,39,100,120
1,39,100,264
1,39,100,156
1,39,100,132
1,39,100,156
1,39,100,60
1,44,100,108
1,44,100,140
1,37,100,24
1,37,100,144
1,42,100,32
1,42,100,140
1,35,100,72
1,35,100,72
1,35,100,48
1,35,100,132
1,42,100,192
1,43,100,24
1,44,100,96
1,44,100,124
1,37,100,4
1,37,100,160
1,42,100,12
1,42,100,160
1,35,100,12
1,35,100,44
1,35,100,56
1,35,100,112
1,42,100,24
1,35,100,116
1,42,100,44
1,47,100,16
1,42,100,48
1,35,100,20
1,42,100,192
1,40,100,48
1,40,100,128
1,35,100,4
1,28,100,104
1,28,100,116
1,36,100,424
1,40,100,128
1,40,100,128
1,35,100,144
1,28,100,8
1,28,100,136
1,28,100,136
1,35,100,384
1,40,100,0
1,40,100,132
1,35,100,192
1,28,100,84
1,44,100,208
1,39,100,112
1,44,100,12
1,44,100,132
1,32,100,192
1,39,100,24
1,40,100,20
1,28,100,8
1,29,100,192
1,30,100,4
1,30,100,136
1,42,100,192
1,37,100,152
1,35,100,24
1,35,100,136
1,35,100,148
1,35,100,140
1,47,100,192
1,42,100,8
1,46,100,140
1,40,100,84
1,39,100,148
1,39,100,84
1,40,100,88
1,40,100,128
1,35,100,4
1,28,100,104
1,28,100,116
1,36,100,424
1,40,100,128
1,40,100,128
1,35,100,144
1,28,100,8
1,28,100,136
1,28,100,136
1,35,100,384
1,40,100,0
1,40,100,132
1,35,100,192
1,28,100,84
1,44,100,208
1,39,100,112
1,44,100,12
1,44,100,132
1,32,100,192
1,39,100,24
1,40,100,20
1,28,100,8
1,29,100,192
1,30,100,4
1,30,100,136
1,42,100,192
1,37,100,152
1,35,100,24
1,35,100,136
1,35,100,148
1,35,100,140
1,47,100,192
1,42,100,8
1,39,100,140
1,39,100,120
1,42,100,20
1,43,100,384
1,44,100,56
1,39,100,104
1,35,100,4
1,36,100,180
1,37,100,36
1,37,100,124
1,37,100,140
1,37,100,156
1,39,100,76
1,40,100,124
1,43,100,576
1,47,100,564
1,50,100,568
1,52,100,24
1,54,100,8
1,42,100,384
1,42,100,116
1,35,100,0
1,35,100,220
1,35,100,120
1,35,100,96
1,44,100,192
1,44,100,140
1,44,100,128
1,37,100,384
1,38,100,44
1,39,100,0
1,39,100,100
1,39,100,120
1,39,100,264
1,39,100,156
1,39,100,132
1,39,100,156
1,39,100,60
1,44,100,108
1,44,100,140
1,37,100,24
1,37,100,144
1,42,100,32
1,42,100,140
1,35,100,72
1,35,100,220
1,35,100,120
1,44,100,288
1,44,100,140
1,37,100,24
1,37,100,144
1,42,100,32
1,42,100,140
1,35,100,72
1,35,100,96
1,35,100,128
1,42,100,128
1,35,100,96
1,35,100,168
1,35,100,136
1,30,100,296
1,40,100,128
1,40,100,128
1,35,100,4
1,28,100,104
1,28,100,116
1,36,100,424
1,40,100,128
1,40,100,128
1,35,100,144
1,28,100,8
1,28,100,136
1,28,100,136
1,35,100,384
1,40,100,0
1,40,100,132
1,35,100,192
1,28,100,84
1,44,100,208
1,39,100,112
1,44,100,12
1,44,100,132
1,32,100,192
1,39,100,24
1,40,100,20
1,28,100,8
1,29,100,192
1,30,100,4
1,30,100,136
1,42,100,192
1,37,100,152
1,35,100,24
1,35,100,136
1,35,100,148
1,35,100,140
1,47,100,192
1,42,100,8
1,46,100,140
1,40,100,84
1,39,100,148
1,39,100,84
1,40,100,88
1,40,100,128
1,35,100,4
1,28,100,104
1,28,100,116
1,36,100,424
1,40,100,128
1,40,100,128
1,35,100,144
1,28,100,8
1,28,100,136
1,28,100,136
1,35,100,384
1,40,100,0
1,40,100,132
1,35,100,192
1,28,100,84
1,44,100,208
1,39,100,112
1,44,100,12
1,44,100,132
1,32,100,192
1,39,100,24
1,40,100,20
1,28,100,8
1,29,100,192
1,30,100,4
1,30,100,136
1,42,100,192
1,37,100,152
1,35,100,24
1,35,100,136
1,35,100,148
1,35,100,140
1,47,100,192
1,42,100,8
1,39,100,140
1,39,100,120
1,42,100,20
1,43,100,384
1,44,100,56
1,39,100,104
1,35,100,4
1,36,100,180
1,37,100,36
1,37,100,124
1,37,100,140
1,37,100,156
1,39,100,76
1,40,100,124
1,43,100,576
1,47,100,564
1,50,100,568
1,52,100,24
1,54,100,8
1,42,100,384
1,42,100,116
1,35,100,0
1,35,100,220
1,35,100,120
1,35,100,96
1,44,100,192
1,44,100,140
1,44,100,128
1,37,100,384
1,38,100,44
1,39,100,0
1,39,100,100
1,39,100,120
1,39,100,264
1,39,100,156
1,39,100,132
1,39,100,156
1,39,100,60
1,44,100,108
1,44,100,140
1,37,100,24
1,37,100,144
1,42,100,32
1,42,100,140
1,35,100,72
1,35,100,220
1,35,100,120
1,35,100,96
1,44,100,0
1,44,100,140
1,37,100,24
1,37,100,144
1,42,100,32
1,42,100,140
1,35,100,72
1,35,100,80
1,35,100,96
1,35,100,112
1,35,100,240
1,35,100,180
1,35,100,192
1,35,100,212
1,35,100,108
1,30,100,48
1,44,100,16
1,44,100,140
1,37,100,24
1,37,100,144
1,42,100,32
1,42,100,140
1,35,100,72
1,35,100,220
1,35,100,120
1,44,100,288
1,44,100,140
1,37,100,24
1,37,100,144
1,42,100,32
1,42,100,140
1,35,100,72
1,35,100,80
1,35,100,96
1,35,100,112
1,35,100,240
1,35,100,180
1,35,100,188
1,35,100,212
1,35,100,108
1,30,100,48
1,44,100,16
1,44,100,140
1,37,100,24
1,37,100,144
1,42,100,32
1,42,100,140
1,35,100,72
1,35,100,220
1,35,100,120
1,44,100,288
1,44,100,140
1,37,100,24
1,37,100,144
1,42,100,32
1,42,100,140
1,35,100,72
1,35,100,80
1,35,100,96
1,35,100,112
1,35,100,240
1,35,100,180
1,35,100,188
1,35,100,212
1,35,100,108
1,30,100,48
1,44,100,16
1,44,100,140
1,37,100,24
1,37,100,144
1,42,100,32
1,42,100,140
1,35,100,72
1,35,100,220
1,35,100,120
1,44,100,288
1,44,100,140
1,37,100,24
1,37,100,144
1,42,100,32
1,42,100,140
1,35,100,72
1,35,100,80
1,35,100,96
1,35,100,112
1,35,100,240
1,35,100,180
1,35,100,188
1,35,100,212
1,35,100,108
2,59,88,2632
2,63,88,0
2,54,86,0
2,63,79,104
2,59,74,0
2,54,79,0
2,61,91,64
2,58,82,0
2,54,71,0
2,63,81,92
2,59,82,0
2,54,76,0
2,58,85,248
2,61,80,0
2,54,81,0
2,63,92,264
2,59,88,0
2,54,82,0
2,58,80,260
2,54,70,0
2,61,74,0
2,63,78,260
2,54,70,0
2,59,73,0
2,59,86,116
2,63,88,0
2,54,85,0
2,54,85,96
2,63,85,0
2,59,79,0
2,59,85,116
2,63,88,0
2,54,87,0
2,54,80,104
2,61,78,0
2,58,81,0
2,63,90,108
2,54,84,0
2,59,85,0
2,58,86,260
2,54,86,0
2,61,83,0
2,59,81,260
2,54,76,0
2,63,80,0
2,59,95,116
2,54,94,0
2,63,92,0
2,47,74,24
2,63,72,344
2,54,65,0
2,58,61,0
2,47,61,136
2,47,68,0
2,63,72,192
2,54,66,0
2,58,57,0
2,63,73,24
2,58,60,0
2,54,70,0
2,44,89,192
2,63,71,344
2,54,56,0
2,59,69,0
2,44,67,136
2,44,79,0
2,63,73,192
2,54,63,0
2,59,55,0
2,63,67,24
2,59,66,0
2,54,50,0
2,51,84,192
2,70,67,344
2,61,55,0
2,66,64,0
2,51,64,136
2,51,79,0
2,70,58,192
2,61,46,0
2,66,51,0
2,70,59,24
2,61,65,0
2,66,65,0
2,51,82,192
2,70,75,344
2,61,53,0
2,66,68,0
2,51,69,136
2,51,61,0
2,70,73,192
2,61,45,0
2,66,65,0
2,70,61,24
2,61,56,0
2,66,49,0
2,44,96,192
2,54,71,184
2,63,77,192
2,59,79,0
2,49,98,60
2,56,71,192
2,61,80,192
2,65,66,0
2,42,77,132
2,54,56,168
2,58,70,192
2,61,73,0
2,47,74,36
2,54,81,48
2,63,79,0
2,59,62,0
2,54,74,72
2,61,70,0
2,58,70,0
2,42,71,0
2,47,59,76
2,63,71,0
2,59,74,0
2,54,68,0
2,47,74,96
2,63,72,344
2,54,65,0
2,58,61,0
2,47,61,136
2,47,68,0
2,63,72,192
2,54,66,0
2,58,57,0
2,63,73,24
2,58,60,0
2,54,70,0
2,44,89,192
2,63,71,344
2,54,56,0
2,59,69,0
2,44,67,136
2,44,79,0
2,63,73,192
2,54,63,0
2,59,55,0
2,63,67,24
2,59,66,0
2,54,50,0
2,51,84,192
2,70,67,344
2,61,55,0
2,66,64,0
2,51,64,136
2,51,79,0
2,70,58,192
2,61,46,0
2,66,51,0
2,70,59,24
2,61,65,0
2,66,65,0
2,51,82,192
2,70,75,344
2,61,53,0
2,66,68,0
2,51,69,136
2,51,61,0
2,70,73,192
2,61,45,0
2,66,65,0
2,70,61,24
2,61,56,0
2,66,49,0
2,44,96,192
2,54,71,184
2,63,77,192
2,59,79,0
2,49,98,60
2,56,71,192
2,61,80,192
2,65,66,0
2,42,77,132
2,54,56,168
2,58,70,192
2,61,73,0
2,47,100,36
2,63,92,384
2,59,80,0
2,47,98,8
2,47,97,136
2,54,63,192
2,59,94,104
2,63,82,0
2,47,78,12
2,54,80,0
2,44,93,0
2,54,76,192
2,59,84,192
2,63,84,0
2,44,78,152
2,54,78,0
2,49,93,116
2,56,73,192
2,61,87,192
2,65,68,0
2,49,71,108
2,56,73,0
2,42,91,84
2,54,73,192
2,58,86,192
2,61,77,0
2,42,90,24
2,54,78,0
2,47,84,104
2,54,63,192
2,59,60,192
2,63,92,140
2,59,91,0
2,54,81,0
2,47,52,128
2,58,81,192
2,61,80,0
2,54,74,0
2,47,59,160
2,63,86,152
2,59,84,0
2,54,77,0
2,47,66,184
2,54,58,184
2,47,65,164
2,59,78,0
2,47,85,24
2,51,86,148
2,54,83,192
2,47,57,124
2,59,89,0
2,40,82,112
2,56,67,140
2,66,76,192
2,62,62,0
2,47,68,8
2,66,78,0
2,56,71,0
2,62,67,0
2,52,60,4
2,56,58,152
2,66,78,92
2,62,66,0
2,47,56,0
2,52,59,80
2,56,74,0
2,40,87,0
2,56,67,140
2,66,66,192
2,62,61,0
2,47,63,52
2,66,78,0
2,62,69,0
2,52,60,192
2,56,48,0
2,47,61,192
2,66,67,0
2,62,65,0
2,52,58,40
2,56,70,0
2,40,89,8
2,57,57,120
2,64,59,192
2,69,58,0
2,57,67,40
2,69,65,0
2,47,65,0
2,64,64,0
2,52,60,24
2,57,55,132
2,64,64,104
2,47,61,0
2,60,48,0
2,52,65,48
2,57,57,0
2,40,83,60
2,56,61,112
2,68,82,192
2,64,52,0
2,56,68,80
2,68,78,0
2,64,71,0
2,47,62,0
2,52,69,24
2,56,60,160
2,56,76,112
2,47,70,0
2,64,70,0
2,56,68,4
2,52,61,0
2,44,113,0
2,56,71,120
2,63,78,192
2,66,59,0
2,59,32,0
2,66,93,28
2,59,84,0
2,51,65,0
2,51,76,160
2,56,69,8
2,44,83,20
2,59,71,0
2,63,79,0
2,51,64,44
2,56,73,0
2,40,93,0
2,56,62,180
2,64,70,192
2,59,72,0
2,56,76,140
2,42,100,20
2,58,74,192
2,66,74,192
2,61,78,0
2,42,77,124
2,58,76,0
2,47,95,8
2,59,65,160
2,63,73,192
2,47,80,28
2,63,84,0
2,66,85,0
2,47,81,20
2,54,74,108
2,47,63,152
2,63,78,0
2,59,73,0
2,47,70,124
2,54,76,0
2,46,103,64
2,53,67,192
2,63,81,192
2,56,76,0
2,46,83,140
2,39,110,0
2,55,50,192
2,63,89,192
2,58,85,0
2,39,90,120
2,40,82,64
2,56,67,140
2,66,76,192
2,62,62,0
2,47,68,8
2,66,78,0
2,56,71,0
2,62,67,0
2,52,60,4
2,56,58,152
2,66,78,92
2,62,66,0
2,47,56,0
2,52,59,80
2,56,74,0
2,40,87,0
2,56,67,140
2,66,66,192
2,62,61,0
2,47,63,52
2,66,78,0
2,62,69,0
2,52,60,192
2,56,48,0
2,47,61,192
2,66,67,0
2,62,65,0
2,52,58,40
2,56,70,0
2,40,89,8
2,57,57,120
2,64,59,192
2,69,58,0
2,57,67,40
2,69,65,0
2,47,65,0
2,64,64,0
2,52,60,24
2,57,55,132
2,64,64,104
2,47,61,0
2,60,48,0
2,52,65,48
2,57,57,0
2,40,83,60
2,56,61,112
2,68,82,192
2,64,52,0
2,56,68,80
2,68,78,0
2,64,71,0
2,47,62,0
2,52,69,24
2,56,60,160
2,56,76,112
2,47,70,0
2,64,70,0
2,56,68,4
2,52,61,0
2,44,113,0
2,56,71,120
2,63,78,192
2,66,59,0
2,59,32,0
2,66,93,28
2,59,84,0
2,51,65,0
2,51,76,160
2,56,69,8
2,44,83,20
2,59,71,0
2,63,79,0
2,51,64,44
2,56,73,0
2,40,93,0
2,56,62,180
2,64,70,192
2,59,72,0
2,56,76,140
2,42,100,20
2,58,74,192
2,66,74,192
2,61,78,0
2,42,77,124
2,58,76,0
2,47,95,8
2,59,65,160
2,63,73,192
2,47,80,28
2,63,84,0
2,66,85,0
2,47,81,20
2,54,74,108
2,47,63,152
2,63,78,0
2,59,73,0
2,47,70,124
2,54,76,0
2,51,94,64
2,54,78,192
2,58,85,192
2,51,86,156
2,61,89,0
2,51,88,32
2,54,75,124
2,63,67,188
2,44,72,192
2,44,106,140
2,54,67,180
2,59,62,192
2,44,79,152
2,63,87,0
2,44,86,12
2,54,67,120
2,59,81,124
2,54,82,12
2,49,98,32
2,56,73,188
2,61,83,192
2,49,93,144
2,64,80,0
2,49,88,136
2,61,87,96
2,49,81,120
2,56,76,16
2,64,92,24
2,52,78,0
2,59,73,576
2,55,56,512
2,62,68,0
2,47,74,52
2,63,72,344
2,54,65,0
2,58,61,0
2,47,61,136
2,47,68,0
2,63,72,192
2,54,66,0
2,58,57,0
2,63,73,24
2,58,60,0
2,54,70,0
2,44,89,192
2,63,71,344
2,54,56,0
2,59,69,0
2,44,67,136
2,44,79,0
2,63,73,192
2,54,63,0
2,59,55,0
2,63,67,24
2,59,66,0
2,54,50,0
2,51,84,192
2,70,67,344
2,61,55,0
2,66,64,0
2,51,64,136
2,51,79,0
2,70,58,192
2,61,46,0
2,66,51,0
2,70,59,24
2,61,65,0
2,66,65,0
2,51,82,192
2,70,75,344
2,61,53,0
2,66,68,0
2,51,69,136
2,51,61,0
2,70,73,192
2,61,45,0
2,66,65,0
2,70,61,24
2,61,56,0
2,66,49,0
2,44,96,192
2,54,71,184
2,63,77,192
2,59,79,0
2,49,98,60
2,56,71,192
2,61,80,192
2,65,66,0
2,42,77,132
2,54,56,168
2,58,70,192
2,61,73,0
2,47,74,36
2,63,72,344
2,54,65,0
2,58,61,0
2,47,61,136
2,47,68,0
2,63,72,192
2,54,66,0
2,58,57,0
2,63,73,24
2,58,60,0
2,54,70,0
2,44,96,0
2,54,71,192
2,63,77,192
2,59,79,0
2,49,98,60
2,56,71,192
2,61,80,192
2,65,66,0
2,42,77,132
2,54,56,168
2,58,70,192
2,61,73,0
2,47,74,36
