track,note,velocity,time
0,52,97,1
0,56,61,0
0,40,89,6
0,68,81,0
0,59,73,1
0,64,77,2
0,59,69,12
0,64,106,2
0,51,88,3
0,39,68,1
0,68,99,2
0,49,95,1
0,57,65,0
0,69,113,7
0,37,83,1
0,68,80,87
0,66,112,47
0,64,110,86
0,66,104,87
0,51,93,11
0,54,61,0
0,59,59,0
0,39,80,4
0,49,95,4
0,37,79,1
0,59,53,21
0,63,118,52
0,66,85,37
0,48,93,1
0,56,61,0
0,60,53,0
0,36,79,3
0,68,111,7
0,66,77,92
0,64,111,48
0,63,101,3
0,66,73,85
0,64,61,8
0,63,77,9
0,64,0,2
0,64,88,0
0,61,51,4
0,49,96,0
0,56,86,0
0,37,80,5
0,47,96,0
0,35,77,1
0,56,56,0
0,61,110,2
0,64,82,39
0,56,0,30
0,46,105,1
0,54,97,0
0,66,111,5
0,34,79,1
0,64,60,4
0,63,107,49
0,61,102,90
0,54,0,0
0,61,0,0
0,59,99,0
0,47,99,1
0,47,66,2
0,35,71,1
0,59,79,3
0,64,82,0
0,64,84,9
0,59,79,1
0,35,64,10
0,59,43,3
0,63,59,0
0,59,46,4
0,59,0,36
0,52,34,4
0,59,34,0
0,68,34,0
0,40,59,3
0,59,81,0
0,64,91,0
0,68,86,0
0,59,74,9
0,68,84,0
0,64,74,2
0,59,77,13
0,64,76,1
0,68,83,0
0,59,78,24
0,68,87,0
0,64,85,1
0,40,54,7
0,59,83,5
0,64,93,0
0,68,88,0
0,56,106,88
0,52,111,15
0,59,72,4
0,64,81,0
0,68,84,0
0,47,97,85
0,59,69,26
0,68,79,1
0,64,84,1
0,52,95,89
0,44,90,37
0,59,81,1
0,64,84,0
0,68,85,0
0,42,93,5
0,52,34,1
0,59,34,0
0,68,34,0
0,40,88,3
0,40,61,2
0,59,81,0
0,64,91,0
0,68,86,0
0,76,82,10
0,59,74,3
0,68,84,0
0,64,74,2
0,76,68,17
0,76,75,20
0,76,75,19
0,76,75,8
0,59,77,5
0,64,76,1
0,68,83,0
0,76,71,18
0,76,70,18
0,76,68,21
0,59,78,17
0,68,87,0
0,76,84,0
0,64,85,1
0,78,84,1
0,75,85,1
0,56,34,1
0,59,34,0
0,66,34,0
0,63,77,1
0,66,86,0
0,59,65,1
0,44,62,1
0,66,84,14
0,59,58,2
0,63,77,0
0,66,77,10
0,63,77,1
0,59,63,1
0,71,72,152
0,66,86,8
0,59,67,1
0,63,77,0
0,75,87,4
0,76,84,5
0,73,89,1
0,57,76,3
0,61,74,1
0,64,84,0
0,45,62,2
0,57,34,1
0,61,34,0
0,64,34,0
0,64,93,16
0,57,74,1
0,61,83,0
0,57,72,19
0,61,86,0
0,64,88,0
0,57,74,4
0,61,86,0
0,64,88,0
0,45,59,9
0,45,95,0
0,57,82,0
0,73,82,0
0,59,76,1
0,63,80,0
0,45,0,1
0,47,59,1
0,47,93,0
0,59,82,0
0,75,82,0
0,56,34,1
0,61,34,0
0,64,34,0
0,56,81,2
0,49,60,1
0,49,74,0
0,61,74,0
0,47,0,1
0,64,84,0
0,49,89,1
0,61,84,0
0,76,84,0
0,56,70,11
0,64,88,0
0,49,68,1
0,61,79,0
0,54,34,1
0,59,34,0
0,63,34,0
0,47,76,1
0,59,78,0
0,75,78,0
0,47,60,5
0,47,56,0
0,54,58,0
0,59,65,0
0,63,71,3
0,54,64,19
0,47,49,1
0,59,58,0
0,63,69,0
0,52,39,1
0,59,39,0
0,68,39,0
0,40,66,6
0,52,96,0
0,59,86,0
0,64,96,0
0,68,91,0
0,59,79,13
0,68,89,0
0,52,79,2
0,64,79,0
0,76,75,91
0,76,75,19
0,76,75,8
0,59,82,5
0,52,81,1
0,64,81,0
0,68,88,0
0,76,71,18
0,76,70,18
0,76,68,21
0,59,83,17
0,68,92,0
0,76,84,0
0,52,90,1
0,64,90,0
0,78,84,1
0,75,85,1
0,56,39,1
0,59,39,0
0,66,39,0
0,44,73,1
0,63,82,0
0,66,91,0
0,59,70,1
0,32,67,1
0,66,89,14
0,44,70,2
0,59,63,0
0,63,82,0
0,66,82,10
0,44,72,1
0,63,82,0
0,59,68,1
0,66,104,31
0,44,84,1
0,59,85,0
0,63,95,0
0,32,64,14
0,32,0,30
0,57,81,1
0,45,71,1
0,61,79,0
0,64,89,0
0,33,69,2
0,57,39,1
0,61,39,0
0,64,39,0
0,64,98,16
0,45,80,1
0,57,79,0
0,61,88,0
0,57,87,5
0,73,87,0
0,61,84,1
0,76,84,0
0,61,80,7
0,76,80,0
0,45,85,19
0,57,77,0
0,61,91,0
0,64,93,0
0,45,85,4
0,57,79,0
0,61,91,0
0,64,93,0
0,33,64,9
0,45,95,0
0,57,91,0
0,64,91,0
0,73,91,0
0,59,81,5
0,63,85,0
0,33,0,1
0,35,64,1
0,47,93,0
0,59,85,0
0,66,85,0
0,75,85,0
0,56,39,1
0,61,39,0
0,64,39,0
0,56,86,2
0,37,65,1
0,49,79,0
0,61,79,0
0,35,0,1
0,64,89,0
0,49,89,1
0,61,92,0
0,68,92,0
0,76,92,0
0,56,86,0
0,64,93,0
0,32,64,1
0,44,95,0
0,49,90,0
0,61,84,0
0,32,0,2
0,33,64,1
0,45,93,0
0,69,74,0
0,69,0,47
0,68,70,1
0,54,39,1
0,59,39,0
0,63,39,0
0,33,0,2
0,68,0,0
0,47,76,1
0,59,86,0
0,66,86,0
0,75,86,0
0,35,65,5
0,47,61,0
0,54,67,0
0,59,75,0
0,63,81,3
0,54,69,19
0,59,63,1
0,63,97,0
0,49,98,1
0,64,123,0
0,37,70,5
0,49,100,0
0,56,90,0
0,61,100,0
0,64,95,0
0,76,87,0
0,56,88,9
0,64,110,0
0,49,83,2
0,61,98,0
0,68,88,3
0,61,96,3
0,69,94,1
0,54,75,2
0,57,96,0
0,30,71,1
0,57,80,5
0,42,84,1
0,61,87,0
0,57,87,6
0,64,96,0
0,54,94,1
0,61,94,0
0,57,69,6
0,69,69,0
0,57,0,4
0,69,0,0
0,54,69,1
0,59,88,0
0,47,77,0
0,59,86,0
0,64,96,0
0,54,74,1
0,35,73,4
0,59,94,0
0,68,83,0
0,76,94,0
0,59,90,6
0,68,80,0
0,76,90,0
0,59,87,6
0,68,78,0
0,76,87,0
0,59,80,6
0,68,74,0
0,76,80,0
0,57,85,1
0,64,74,0
0,47,59,1
0,54,69,0
0,59,74,0
0,59,85,5
0,68,75,0
0,76,85,0
0,57,65,1
0,63,65,4
0,57,90,1
0,66,80,0
0,75,90,0
0,64,80,0
0,52,70,1
0,59,79,0
0,56,67,1
0,52,62,1
0,56,75,0
0,28,69,3
0,57,83,0
0,64,66,0
0,73,83,0
0,56,77,1
0,64,67,0
0,71,77,0
0,64,98,31
0,52,80,1
0,56,80,0
0,59,88,0
0,44,68,98
0,35,93,1
0,35,0,30
0,49,75,2
0,56,85,0
0,61,83,0
0,64,93,0
0,52,58,4
0,61,75,0
0,37,106,4
0,64,102,16
0,49,84,1
0,56,83,0
0,61,92,0
0,76,90,5
0,76,78,17
0,42,79,19
0,57,75,0
0,61,87,0
0,64,86,0
0,30,92,1
0,76,88,0
0,42,89,25
0,57,89,0
0,61,99,0
0,64,105,0
0,73,88,9
0,69,87,11
0,71,88,1
0,52,55,1
0,59,77,0
0,59,99,1
0,47,90,2
0,64,91,0
0,66,105,1
0,35,92,1
0,59,90,9
0,66,97,0
0,47,94,1
0,64,88,0
0,57,81,101
0,57,0,5
0,51,52,1
0,47,65,5
0,54,71,0
0,57,79,0
0,63,94,3
0,52,101,2
0,56,76,0
0,59,76,0
0,40,93,3
0,52,100,0
0,56,90,0
0,59,100,0
0,64,95,0
0,71,98,10
0,56,88,3
0,64,110,0
0,52,83,2
0,59,98,0
0,76,86,6
0,52,0,39
0,51,90,2
0,39,80,3
0,81,103,0
0,51,71,3
0,56,0,10
0,59,0,0
0,51,0,2
0,49,98,0
0,57,80,0
0,37,88,1
0,57,80,5
0,49,84,1
0,61,87,0
0,64,87,0
0,80,95,1
0,78,95,4
0,57,87,21
0,64,96,0
0,49,94,1
0,61,94,0
0,76,86,9
0,49,0,4
0,57,0,0
0,51,100,1
0,54,76,0
0,59,74,0
0,51,77,1
0,63,98,0
0,66,112,0
0,57,74,1
0,39,91,4
0,78,96,0
0,51,0,2
0,59,0,0
0,49,96,4
0,57,74,2
0,66,109,0
0,49,85,1
0,57,83,0
0,61,101,0
0,37,90,5
0,54,0,10
0,57,0,0
0,49,0,3
0,63,100,1
0,48,92,1
0,60,96,0
0,48,96,1
0,56,76,0
0,56,83,0
0,60,68,0
0,36,90,1
0,60,98,0
0,80,98,0
0,60,88,5
0,81,88,0
0,60,0,19
0,61,86,0
0,63,98,1
0,44,80,1
0,56,80,0
0,60,88,0
0,61,93,4
0,80,93,0
0,61,0,89
0,63,86,1
0,48,71,2
0,63,93,1
0,78,93,0
0,63,100,9
0,78,100,0
0,48,0,14
0,56,0,0
0,49,81,4
0,56,94,0
0,61,93,0
0,64,99,0
0,63,0,3
0,49,98,0
0,56,101,0
0,61,66,0
0,64,66,0
0,37,91,5
0,61,95,19
0,76,95,0
0,61,89,20
0,76,89,0
0,49,0,15
0,47,102,1
0,64,84,0
0,47,77,1
0,56,75,0
0,59,85,0
0,35,88,1
0,47,0,17
0,56,0,0
0,61,0,0
0,64,0,0
0,46,94,1
0,61,70,0
0,66,77,0
0,46,83,1
0,54,88,0
0,61,97,0
0,66,105,0
0,34,90,1
0,46,89,14
0,54,89,0
0,61,99,0
0,66,105,0
0,61,95,9
0,64,78,0
0,80,95,0
0,59,96,30
0,64,78,0
0,80,96,0
0,46,0,30
0,61,0,1
0,59,85,1
0,64,72,0
0,47,103,1
0,59,99,1
0,47,90,2
0,64,96,0
0,66,105,1
0,35,94,1
0,59,91,1
0,64,77,0
0,81,91,0
0,64,0,5
0,63,72,1
0,59,90,5
0,66,97,0
0,59,91,1
0,63,73,0
0,63,95,0
0,78,91,0
0,47,0,4
0,63,0,5
0,66,0,0
0,49,86,1
0,64,91,0
0,37,83,5
0,49,81,5
0,56,76,0
0,59,84,0
0,64,98,3
0,49,0,7
0,64,0,0
0,51,96,1
0,66,97,0
0,39,89,6
0,51,84,5
0,59,83,0
0,63,90,0
0,66,101,3
0,59,0,118
0,51,0,7
0,66,0,0
0,52,101,2
0,59,87,0
0,68,91,0
0,40,93,5
0,52,100,0
0,56,90,0
0,59,100,0
0,64,95,0
0,76,91,96
0,83,103,10
0,56,88,3
0,64,110,0
0,52,83,2
0,59,98,0
0,81,95,14
0,52,0,39
0,51,90,2
0,39,80,3
0,51,71,3
0,59,0,1
0,68,0,0
0,69,64,4
0,51,0,2
0,49,98,0
0,57,119,0
0,37,88,1
0,80,93,0
0,57,80,5
0,49,84,1
0,61,87,0
0,64,87,0
0,78,96,4
0,57,87,11
0,64,96,0
0,76,95,0
0,49,94,1
0,61,94,0
0,78,96,9
0,49,0,4
0,57,0,0
0,69,0,2
0,51,100,1
0,59,117,0
0,66,67,0
0,51,77,1
0,63,98,0
0,66,112,0
0,71,65,0
0,57,74,1
0,39,91,4
0,80,93,6
0,66,109,2
0,49,85,1
0,57,83,0
0,61,101,0
0,37,90,5
0,80,100,0
0,51,0,2
0,59,0,0
0,49,96,4
0,57,95,4
0,80,96,6
0,57,0,7
0,66,0,0
0,49,0,3
0,63,100,1
0,48,92,1
0,60,96,0
0,48,96,1
0,56,95,0
0,56,83,0
0,60,68,0
0,68,65,3
0,36,90,1
0,71,0,2
0,60,0,19
0,78,95,6
0,61,86,2
0,63,98,1
0,48,80,1
0,56,80,0
0,60,88,0
0,61,0,21
0,63,86,1
0,78,95,1
0,44,74,3
0,48,77,3
0,36,80,2
0,48,0,14
0,56,0,0
0,49,81,4
0,56,94,0
0,61,93,0
0,64,99,0
0,68,0,1
0,63,0,2
0,49,98,1
0,56,101,0
0,61,66,0
0,64,66,0
0,37,91,1
0,80,88,1
0,76,89,1
0,49,0,15
0,47,102,1
0,64,84,0
0,47,77,1
0,56,75,0
0,59,85,0
0,35,88,1
0,76,78,13
0,76,76,12
0,47,0,5
0,56,0,0
0,61,0,0
0,64,0,0
0,46,94,1
0,61,70,0
0,66,72,0
0,46,67,1
0,54,77,0
0,61,78,0
0,66,84,0
0,34,85,1
0,75,75,14
0,54,66,18
0,58,64,0
0,61,71,0
0,75,73,1
0,73,71,1
0,71,74,5
0,46,0,9
0,66,0,0
0,61,0,1
0,59,59,1
0,64,46,0
0,66,47,0
0,47,51,1
0,59,79,1
0,47,70,2
0,64,76,0
0,66,85,1
0,35,75,1
0,71,73,15
0,59,70,11
0,66,77,0
0,64,75,1
0,64,0,5
0,63,41,1
0,47,55,1
0,59,55,0
0,64,37,3
0,66,69,0
0,63,54,7
0,47,51,2
0,59,53,0
0,63,57,0
0,66,60,3
0,54,47,11
0,63,0,1
0,59,57,1
0,47,48,2
0,64,54,0
0,66,63,1
0,59,48,4
0,66,55,0
0,64,53,1
0,54,37,13
0,47,39,6
0,59,34,0
0,66,52,3
0,63,38,1
0,59,0,36
0,66,0,0
0,47,0,1
0,52,49,8
0,59,49,0
0,68,49,0
0,28,107,6
0,35,107,0
0,49,47,0
0,56,75,0
0,56,104,0
0,59,102,0
0,64,107,0
0,35,0,4
0,59,84,0
0,64,92,4
0,59,0,40
0,56,0,1
0,42,33,6
0,56,69,0
0,59,79,3
0,56,0,73
0,59,0,5
0,64,0,0
0,64,0,4
0,56,0,6
0,59,0,0
0,42,68,4
0,56,84,0
0,56,103,0
0,59,98,0
0,64,98,1
0,38,101,1
0,59,93,2
0,38,0,2
0,64,95,2
0,59,0,85
0,56,0,1
0,42,34,2
0,56,69,0
0,76,90,0
0,59,79,3
0,64,0,13
0,59,0,2
0,28,97,1
0,56,0,0
0,59,73,0
0,76,63,0
0,56,55,3
0,28,0,10
0,56,0,16
0,59,0,2
0,64,0,5
0,56,0,3
0,28,106,1
0,35,107,0
0,42,53,0
0,56,75,0
0,76,86,0
0,56,103,1
0,59,100,0
0,64,99,0
0,59,0,2
0,35,0,1
0,59,84,0
0,64,92,4
0,76,82,18
0,59,0,4
0,56,0,1
0,42,33,13
0,56,69,0
0,76,81,0
0,59,79,3
0,56,0,51
0,59,0,2
0,64,0,10
0,64,0,7
0,56,0,10
0,59,0,0
0,42,68,4
0,56,84,0
0,56,105,0
0,59,100,0
0,64,104,0
0,76,95,0
0,38,101,2
0,59,93,2
0,38,0,2
0,64,95,2
0,59,0,74
0,56,0,1
0,42,34,1
0,56,69,0
0,78,95,0
0,59,79,3
0,64,0,9
0,30,106,1
0,75,96,0
0,30,0,24
0,59,0,3
0,64,0,9
0,59,0,3
0,56,0,1
0,56,0,0
0,56,49,1
0,59,49,0
0,66,49,0
0,59,94,5
0,63,100,0
0,66,104,0
0,32,107,1
0,35,107,0
0,42,53,0
0,56,75,0
0,35,0,4
0,59,84,0
0,63,92,4
0,59,0,74
0,56,0,1
0,42,33,13
0,56,69,0
0,59,79,3
0,59,0,41
0,63,0,5
0,63,0,2
0,66,0,2
0,56,0,6
0,59,0,0
0,42,68,4
0,56,84,0
0,66,103,0
0,38,101,2
0,59,90,1
0,63,100,0
0,59,93,1
0,38,0,2
0,63,95,2
0,59,0,56
0,56,0,1
0,42,34,2
0,56,69,0
0,59,79,3
0,63,0,41
0,59,0,2
0,30,106,1
0,56,0,0
0,59,69,0
0,56,55,3
0,59,0,6
0,63,0,0
0,30,0,15
0,66,0,4
0,56,0,11
0,63,100,4
0,66,100,0
0,59,93,1
0,32,107,4
0,35,107,0
0,42,53,0
0,56,75,0
0,59,0,3
0,35,0,1
0,59,84,0
0,63,92,4
0,59,0,74
0,56,0,1
0,42,33,13
0,56,69,0
0,71,83,0
0,59,79,3
0,59,0,49
0,66,0,4
0,63,0,2
0,63,0,23
0,56,0,9
0,59,0,0
0,59,95,3
0,63,100,0
0,66,104,0
0,42,68,1
0,56,84,0
0,75,98,0
0,38,101,2
