track,note,velocity,time
3,67,100,480
3,69,100,0
3,72,100,0
3,76,100,0
3,41,100,0
3,41,0,150
3,45,100,0
3,45,0,30
3,48,100,0
3,48,0,30
3,45,100,0
3,67,0,30
3,69,0,0
3,72,0,0
3,76,0,0
3,45,0,0
3,52,100,0
3,55,100,0
3,57,100,0
3,60,100,0
3,50,100,0
3,50,0,60
3,48,100,0
3,52,0,60
3,55,0,0
3,57,0,0
3,60,0,0
3,57,100,0
3,60,100,0
3,64,100,0
3,67,100,0
3,48,0,60
3,45,100,0
3,45,0,30
3,48,100,0
3,57,0,30
3,60,0,0
3,64,0,0
3,67,0,0
3,48,0,0
3,55,100,0
3,57,100,0
3,60,100,0
3,64,100,0
3,41,100,0
3,41,0,150
3,45,100,0
3,45,0,30
3,48,100,0
3,48,0,30
3,45,100,0
3,45,0,30
3,50,100,0
3,50,0,60
3,48,100,0
3,55,0,60
3,57,0,0
3,60,0,0
3,64,0,0
3,48,0,60
3,62,100,0
3,45,100,0
3,62,0,30
3,45,0,0
3,64,100,0
3,48,100,0
3,64,0,30
3,48,0,0
3,57,100,0
3,60,100,0
3,62,100,0
3,65,100,0
3,34,100,0
3,34,0,150
3,38,100,0
3,38,0,30
3,41,100,0
3,41,0,30
3,38,100,0
3,38,0,30
3,43,100,0
3,43,0,60
3,41,100,0
3,41,0,120
3,38,100,0
3,38,0,30
3,41,100,0
3,41,0,30
3,34,100,0
3,34,0,150
3,38,100,0
3,38,0,30
3,41,100,0
3,41,0,30
3,38,100,0
3,38,0,30
3,43,100,0
3,43,0,60
3,41,100,0
3,57,0,60
3,60,0,0
3,62,0,0
3,65,0,0
3,41,0,120
3,55,100,0
3,57,100,0
3,60,100,0
3,64,100,0
3,41,100,0
3,41,0,150
3,45,100,0
3,45,0,30
3,48,100,0
3,48,0,30
3,45,100,0
3,55,0,30
3,57,0,0
3,60,0,0
3,64,0,0
3,45,0,0
3,67,100,0
3,64,100,0
3,69,100,0
3,60,100,0
3,50,100,0
3,50,0,60
3,48,100,0
3,67,0,60
3,64,0,0
3,69,0,0
3,60,0,0
3,76,100,0
3,72,100,0
3,69,100,0
3,67,100,0
3,48,0,60
3,45,100,0
3,45,0,30
3,48,100,0
3,76,0,30
3,72,0,0
3,69,0,0
3,67,0,0
3,48,0,0
3,72,100,0
3,69,100,0
3,67,100,0
3,64,100,0
3,41,100,0
3,41,0,150
3,45,100,0
3,45,0,30
3,48,100,0
3,48,0,30
3,45,100,0
3,45,0,30
3,50,100,0
3,50,0,60
3,48,100,0
3,72,0,60
3,69,0,0
3,67,0,0
3,64,0,0
3,70,100,60
3,70,0,30
3,72,100,0
3,48,0,30
3,72,0,0
3,74,100,0
3,72,100,0
3,69,100,0
3,65,100,0
3,34,100,0
3,34,0,150
3,38,100,0
3,38,0,30
3,41,100,0
3,41,0,30
3,38,100,0
3,38,0,30
3,43,100,0
3,43,0,60
3,41,100,0
3,41,0,120
3,38,100,0
3,38,0,30
3,41,100,0
3,41,0,30
3,34,100,0
3,34,0,150
3,38,100,0
3,38,0,30
3,41,100,0
3,41,0,30
3,38,100,0
3,74,0,30
3,72,0,0
3,69,0,0
3,65,0,0
3,38,0,0
3,43,100,0
3,43,0,60
3,41,100,0
3,69,100,20
3,57,100,0
3,69,0,80
3,57,0,0
3,70,100,0
3,58,100,0
3,41,0,80
3,70,0,0
3,58,0,0
3,60,100,0
3,64,100,0
3,72,100,0
3,41,100,0
3,69,100,60
3,69,0,30
3,69,100,0
3,69,0,30
3,69,100,0
3,41,0,30
3,45,100,0
3,69,0,30
3,45,0,0
3,67,100,0
3,48,100,0
3,67,0,30
3,48,0,0
3,67,100,0
3,45,100,0
3,67,0,30
3,45,0,0
3,67,100,0
3,50,100,0
3,67,0,60
3,50,0,0
3,65,100,0
3,45,100,0
3,65,0,30
3,65,100,0
3,65,0,30
3,65,100,0
3,45,0,60
3,65,0,0
3,64,100,0
3,45,100,0
3,45,0,30
3,48,100,0
3,60,0,30
3,64,0,0
3,72,0,0
3,64,0,0
3,48,0,0
3,64,100,0
3,60,100,0
3,41,100,0
3,64,0,60
3,65,100,0
3,65,0,60
3,67,100,0
3,41,0,30
3,45,100,0
3,67,0,30
3,45,0,0
3,65,100,0
3,48,100,0
3,48,0,30
3,45,100,0
3,65,0,30
3,45,0,0
3,60,100,0
3,50,100,0
3,60,0,60
3,50,0,0
3,62,100,0
3,48,100,0
3,62,0,120
3,48,0,0
3,65,100,0
3,45,100,0
3,65,0,30
3,45,0,0
3,62,100,0
3,48,100,0
3,60,0,30
3,62,0,0
3,48,0,0
3,65,100,0
3,57,100,0
3,34,100,0
3,65,0,60
3,65,100,0
3,65,0,60
3,62,100,0
3,34,0,30
3,38,100,0
3,62,0,30
3,38,0,0
3,65,100,0
3,41,100,0
3,41,0,30
3,38,100,0
3,38,0,30
3,43,100,0
3,43,0,60
3,41,100,0
3,41,0,120
3,38,100,0
3,38,0,30
3,41,100,0
3,57,0,30
3,65,0,0
3,41,0,0
3,34,100,0
3,74,100,60
3,72,100,0
3,69,100,0
3,65,100,0
3,34,0,90
3,38,100,0
3,38,0,30
3,41,100,0
3,41,0,30
3,38,100,0
3,38,0,30
3,43,100,0
3,43,0,60
3,41,100,0
3,41,0,60
3,38,100,0
3,38,0,60
3,41,100,0
3,74,0,60
3,72,0,0
3,69,0,0
3,65,0,0
3,41,0,0
3,60,100,0
3,64,100,0
3,41,100,0
3,69,100,60
3,69,0,30
3,69,100,0
3,69,0,30
3,69,100,0
3,41,0,30
3,45,100,0
3,69,0,30
3,45,0,0
3,67,100,0
3,48,100,0
3,67,0,30
3,48,0,0
3,67,100,0
3,45,100,0
3,67,0,30
3,45,0,0
3,67,100,0
3,50,100,0
3,67,0,60
3,50,0,0
3,65,100,0
3,45,100,0
3,65,0,30
3,65,100,0
3,65,0,30
3,65,100,0
3,45,0,60
3,65,0,0
3,64,100,0
3,45,100,0
3,45,0,30
3,48,100,0
3,60,0,30
3,64,0,0
3,64,0,0
3,48,0,0
3,64,100,0
3,60,100,0
3,41,100,0
3,64,0,60
3,65,100,0
3,65,0,60
3,67,100,0
3,41,0,30
3,45,100,0
3,67,0,30
3,45,0,0
3,65,100,0
3,48,100,0
3,48,0,30
3,45,100,0
3,65,0,30
3,45,0,0
3,60,100,0
3,50,100,0
3,60,0,60
3,50,0,0
3,62,100,0
3,48,100,0
3,62,0,120
3,48,0,0
3,65,100,0
3,45,100,0
3,65,0,30
3,45,0,0
3,62,100,0
3,48,100,0
3,60,0,30
3,62,0,0
3,48,0,0
3,65,100,0
3,57,100,0
3,34,100,0
3,65,0,60
3,65,100,0
3,65,0,60
3,62,100,0
3,34,0,30
3,38,100,0
3,62,0,30
3,38,0,0
3,65,100,0
3,41,100,0
3,41,0,30
3,38,100,0
3,38,0,30
3,43,100,0
3,43,0,60
3,41,100,0
3,41,0,120
3,38,100,0
3,38,0,30
3,41,100,0
3,57,0,30
3,65,0,0
3,41,0,0
3,34,100,0
3,74,100,60
3,72,100,0
3,69,100,0
3,65,100,0
3,34,0,90
3,38,100,0
3,38,0,30
3,41,100,0
3,41,0,30
3,38,100,0
3,74,0,30
3,72,0,0
3,69,0,0
3,65,0,0
3,38,0,0
3,62,100,0
3,43,100,0
3,43,0,60
3,41,100,0
3,62,0,60
3,69,100,0
3,41,0,120
3,69,0,0
3,60,100,0
3,65,100,0
3,37,100,0
3,65,0,60
3,68,100,0
3,65,100,0
3,68,0,30
3,65,0,0
3,68,100,0
3,65,100,0
3,68,0,30
3,65,0,0
3,68,100,0
3,65,100,0
3,37,0,60
3,68,0,0
3,65,0,0
3,68,100,0
3,65,100,0
3,37,100,0
3,68,0,60
3,65,0,0
3,37,0,0
3,70,100,0
3,67,100,0
3,44,100,0
3,70,0,60
3,67,0,0
3,44,0,0
3,65,100,0
3,68,100,0
3,44,100,0
3,65,0,60
3,68,0,0
3,67,100,0
3,63,100,0
3,44,0,60
3,67,0,0
3,63,0,0
3,65,100,0
3,61,100,0
3,44,100,0
3,60,0,60
3,65,0,0
3,61,0,0
3,44,0,0
3,60,100,0
3,37,100,0
3,68,100,60
3,65,100,0
3,68,0,30
3,65,0,0
3,68,100,0
3,65,100,0
3,68,0,30
3,65,0,0
3,68,100,0
3,65,100,0
3,37,0,60
3,68,0,0
3,65,0,0
3,68,100,0
3,65,100,0
3,37,100,0
3,68,0,60
3,65,0,0
3,37,0,0
3,67,100,0
3,70,100,0
3,44,100,0
3,67,0,60
3,70,0,0
3,44,0,0
3,65,100,0
3,68,100,0
3,44,100,0
3,65,0,60
3,68,0,0
3,63,100,0
3,67,100,0
3,44,0,60
3,63,0,0
3,67,0,0
3,61,100,0
3,65,100,0
3,44,100,0
3,60,0,60
3,61,0,0
3,65,0,0
3,44,0,0
3,58,100,0
3,36,100,0
3,67,100,60
3,63,100,0
3,67,0,30
3,63,0,0
3,67,100,0
3,63,100,0
3,67,0,30
3,63,0,0
3,67,100,0
3,63,100,0
3,36,0,60
3,67,0,0
3,63,0,0
3,67,100,0
3,63,100,0
3,36,100,0
3,67,0,60
3,63,0,0
3,36,0,0
3,63,100,0
3,67,100,0
3,43,100,0
3,63,0,60
3,67,0,0
3,43,0,0
3,63,100,0
3,67,100,0
3,43,100,0
3,63,0,60
3,67,0,0
3,62,100,0
3,65,100,0
3,43,0,60
3,62,0,0
3,65,0,0
3,60,100,0
3,63,100,0
3,43,100,0
3,58,0,60
3,60,0,0
3,63,0,0
3,43,0,0
3,67,100,0
3,58,100,0
3,36,100,0
3,67,0,90
3,65,100,0
3,65,0,30
3,63,100,0
3,63,0,90
3,65,100,0
3,65,0,30
3,63,100,0
3,67,100,0
3,36,0,60
3,36,100,0
3,36,0,60
3,36,100,0
3,58,0,120
3,63,0,0
3,67,0,0
3,36,0,0
3,60,100,0
3,37,100,0
3,68,100,60
3,65,100,0
3,68,0,30
3,65,0,0
3,68,100,0
3,65,100,0
3,68,0,30
3,65,0,0
3,68,100,0
3,65,100,0
3,37,0,60
3,68,0,0
3,65,0,0
3,68,100,0
3,65,100,0
3,37,100,0
3,68,0,30
3,65,0,0
3,68,100,0
3,65,100,0
3,37,0,30
3,68,0,0
3,65,0,0
3,70,100,0
3,67,100,0
3,44,100,0
3,70,0,60
3,67,0,0
3,44,0,0
3,68,100,0
3,65,100,0
3,44,100,0
3,68,0,60
3,65,0,0
3,63,100,0
3,67,100,0
3,44,0,60
3,63,0,0
3,67,0,0
3,65,100,0
3,61,100,0
3,44,100,0
3,60,0,60
3,65,0,0
3,61,0,0
3,44,0,0
3,60,100,0
3,37,100,0
3,68,100,60
3,65,100,0
3,68,0,30
3,65,0,0
3,68,100,0
3,65,100,0
3,68,0,30
3,65,0,0
3,68,100,0
3,65,100,0
3,37,0,60
3,68,0,0
3,65,0,0
3,68,100,0
3,65,100,0
3,37,100,0
3,68,0,60
3,65,0,0
3,37,0,0
3,70,100,0
3,65,100,0
3,44,100,0
3,44,0,60
3,44,100,0
3,70,0,120
3,65,0,0
3,65,100,0
3,60,0,60
3,44,0,0
3,65,0,0
3,64,100,0
3,55,100,0
3,45,100,0
3,64,0,150
3,62,100,0
3,62,0,30
3,60,100,0
3,45,0,240
3,45,100,0
3,45,0,60
3,45,100,0
3,45,0,240
3,45,100,0
3,45,0,120
3,45,100,0
3,55,0,120
3,60,0,0
3,45,0,0
3,59,100,0
3,66,100,0
3,43,100,0
3,71,100,60
3,71,0,30
3,71,100,0
3,71,0,30
3,71,100,0
3,43,0,30
3,71,0,0
3,69,100,0
3,47,100,0
3,69,0,30
3,47,0,0
3,69,100,0
3,50,100,0
3,69,0,30
3,50,0,0
3,69,100,0
3,47,100,0
3,69,0,30
3,47,0,0
3,69,100,0
3,52,100,0
3,69,0,60
3,52,0,0
3,67,100,0
3,50,100,0
3,67,0,60
3,66,0,60
3,50,0,0
3,66,100,0
3,47,100,0
3,66,0,30
3,47,0,0
3,66,100,0
3,50,100,0
3,59,0,30
3,66,0,0
3,50,0,0
3,66,100,0
3,59,100,0
3,43,100,0
3,66,0,60
3,67,100,0
3,67,0,60
3,69,100,0
3,43,0,30
3,47,100,0
3,69,0,30
3,47,0,0
3,67,100,0
3,50,100,0
3,50,0,30
3,47,100,0
3,67,0,30
3,47,0,0
3,62,100,0
3,52,100,0
3,62,0,60
3,52,0,0
3,64,100,0
3,50,100,0
3,64,0,120
3,67,100,0
3,67,0,30
3,64,100,0
3,59,0,30
3,50,0,0
3,64,0,0
3,67,100,0
3,36,100,0
3,59,100,0
3,67,0,60
3,67,100,0
3,67,0,60
3,64,100,0
3,36,0,30
3,40,100,0
3,64,0,30
3,40,0,0
3,67,100,0
3,43,100,0
3,43,0,30
3,40,100,0
3,40,0,30
3,45,100,0
3,45,0,60
3,43,100,0
3,43,0,120
3,40,100,0
3,40,0,30
3,43,100,0
3,59,0,30
3,67,0,0
3,43,0,0
3,36,100,0
3,76,100,60
3,74,100,0
3,71,100,0
3,67,100,0
3,36,0,90
3,40,100,0
3,40,0,30
3,43,100,0
3,43,0,30
3,40,100,0
3,40,0,30
3,45,100,0
3,45,0,60
3,43,100,0
3,43,0,60
3,40,100,0
3,40,0,60
3,43,100,0
3,76,0,60
3,74,0,0
3,71,0,0
3,67,0,0
3,43,0,0
3,59,100,0
3,66,100,0
3,43,100,0
3,71,100,30
3,71,0,30
3,71,100,0
3,71,0,30
3,71,100,0
3,71,0,30
3,71,100,0
3,43,0,30
3,47,100,0
3,71,0,30
3,47,0,0
3,69,100,0
3,50,100,0
3,69,0,30
3,50,0,0
3,69,100,0
3,47,100,0
3,69,0,30
3,47,0,0
3,69,100,0
3,52,100,0
3,69,0,60
3,52,0,0
3,67,100,0
3,50,100,0
3,67,0,60
3,66,0,60
3,50,0,0
3,66,100,0
3,47,100,0
3,47,0,30
3,50,100,0
3,59,0,30
3,66,0,0
3,50,0,0
3,66,100,0
3,59,100,0
3,43,100,0
3,66,0,60
3,67,100,0
3,67,0,60
3,69,100,0
3,43,0,30
3,47,100,0
3,69,0,30
3,47,0,0
3,67,100,0
3,50,100,0
3,50,0,30
3,47,100,0
3,67,0,30
3,47,0,0
3,62,100,0
3,52,100,0
3,62,0,60
3,52,0,0
3,64,100,0
3,50,100,0
3,64,0,120
3,67,100,0
3,67,0,30
3,64,100,0
3,59,0,30
3,50,0,0
3,64,0,0
3,67,100,0
3,36,100,0
3,59,100,0
3,67,0,60
3,67,100,0
3,67,0,60
3,64,100,0
3,36,0,30
3,40,100,0
3,64,0,30
3,40,0,0
3,67,100,0
3,43,100,0
3,43,0,30
3,40,100,0
3,40,0,30
3,45,100,0
3,45,0,60
3,43,100,0
3,43,0,120
3,40,100,0
3,40,0,30
3,43,100,0
3,59,0,30
3,67,0,0
3,43,0,0
3,36,100,0
3,76,100,60
3,74,100,0
3,71,100,0
3,67,100,0
3,36,0,90
3,40,100,0
3,40,0,30
3,43,100,0
3,43,0,30
3,40,100,0
3,76,0,30
3,74,0,0
3,71,0,0
3,67,0,0
3,40,0,0
3,64,100,0
3,45,100,0
3,45,0,60
3,43,100,0
3,64,0,60
3,71,100,0
3,43,0,120
3,71,0,0
3,62,100,0
3,67,100,0
3,39,100,0
3,67,0,60
3,70,100,0
3,67,100,0
3,70,0,30
3,67,0,0
3,70,100,0
3,67,100,0
3,70,0,30
3,67,0,0
3,70,100,0
3,67,100,0
3,39,0,60
3,70,0,0
3,67,0,0
3,70,100,0
3,67,100,0
3,39,100,0
3,70,0,60
3,67,0,0
3,39,0,0
3,72,100,0
3,69,100,0
3,46,100,0
3,72,0,60
3,69,0,0
3,46,0,0
3,70,100,0
3,67,100,0
3,46,100,0
3,70,0,60
3,67,0,0
3,69,100,0
3,65,100,0
3,62,0,60
3,46,0,0
3,69,0,0
3,65,0,0
3,67,100,0
3,63,100,0
3,46,100,0
3,67,0,60
3,63,0,0
3,46,0,0
3,62,100,0
3,39,100,0
