track,note,velocity,time
2,26,91,4836
2,38,108,0
2,38,0,12
2,38,81,36
2,38,0,26
2,38,97,214
2,38,0,14
2,38,84,34
2,38,0,22
2,38,108,410
2,38,0,18
2,38,84,30
2,38,0,26
2,38,97,214
2,38,0,10
2,38,91,38
2,38,0,32
2,26,0,270
2,38,102,130
2,38,0,16
2,38,88,32
2,38,0,34
2,38,97,206
2,38,0,14
2,38,88,34
2,38,0,32
2,38,102,400
2,38,0,14
2,38,88,34
2,38,0,28
2,38,102,212
2,38,0,12
2,38,91,36
2,38,0,40
2,26,91,392
2,38,108,0
2,38,0,12
2,38,81,36
2,38,0,26
2,38,97,214
2,38,0,14
2,38,84,34
2,38,0,22
2,38,108,410
2,38,0,18
2,38,84,30
2,38,0,26
2,38,97,214
2,38,0,10
2,38,91,38
2,38,0,32
2,26,0,270
2,38,102,130
2,38,0,16
2,38,88,32
2,38,0,34
2,38,97,206
2,38,0,14
2,38,88,34
2,38,0,32
2,38,102,400
2,38,0,14
2,38,88,34
2,38,0,28
2,38,102,212
2,38,0,12
2,38,91,36
2,38,0,40
2,26,102,392
2,26,0,38
2,38,102,10
2,38,0,42
2,26,97,198
2,26,0,22
2,38,97,26
2,38,0,50
2,26,102,382
2,26,0,40
2,38,91,8
2,38,0,52
2,26,102,188
2,26,0,38
2,38,102,10
2,38,0,58
2,26,81,278
2,26,0,30
2,38,84,18
2,38,0,46
2,26,102,2
2,38,97,48
2,26,0,8
2,38,0,44
2,26,102,188
2,26,0,42
2,38,91,6
2,38,0,58
2,26,102,374
2,26,0,38
2,38,102,10
2,38,0,42
2,26,97,198
2,26,0,22
2,38,97,26
2,38,0,50
2,26,102,382
2,26,0,38
2,38,102,10
2,38,0,42
2,26,97,198
2,26,0,22
2,38,97,26
2,38,0,50
2,26,102,382
2,26,0,40
2,38,91,8
2,38,0,52
2,26,102,188
2,26,0,38
2,38,102,10
2,38,0,58
2,26,81,278
2,26,0,30
2,38,84,18
2,38,0,46
2,26,102,2
2,38,97,48
2,26,0,8
2,38,0,44
2,26,102,188
2,26,0,42
2,38,91,6
2,38,0,58
2,26,102,374
2,26,0,38
2,38,102,10
2,38,0,42
2,26,97,198
2,26,0,22
2,38,97,26
2,38,0,50
2,26,102,382
2,26,0,38
2,38,102,10
2,38,0,42
2,26,97,198
2,26,0,22
2,38,97,26
2,38,0,50
2,26,102,382
2,26,0,40
2,38,91,8
2,38,0,52
2,26,102,188
2,26,0,38
2,38,102,10
2,38,0,58
2,26,81,278
2,26,0,30
2,38,84,18
2,38,0,46
2,26,102,2
2,38,97,48
2,26,0,8
2,38,0,44
2,26,102,188
2,26,0,42
2,38,91,6
2,38,0,58
2,26,102,374
2,26,0,38
2,38,102,10
2,38,0,42
2,26,97,198
2,26,0,22
2,38,97,26
2,38,0,50
2,31,108,382
2,31,0,664
2,26,108,8
2,26,0,28
2,31,88,20
2,33,97,48
2,31,0,2
2,33,0,635
2,38,108,70
2,38,0,102
2,36,97,22
2,36,0,111
2,35,102,4
2,35,0,382
2,34,108,6
2,33,108,138
2,34,0,10
2,33,0,116
2,32,102,2
2,32,0,110
2,31,108,2
2,31,0,664
2,26,108,8
2,26,0,28
2,31,88,20
2,33,97,48
2,31,0,2
2,33,0,696
2,38,102,70
2,26,108,106
2,38,0,500
2,26,0,4
2,38,108,164
2,38,0,128
2,36,108,18
2,36,0,124
2,33,102,14
2,33,0,128
2,31,113,16
2,31,0,38
2,33,108,0
2,33,0,82
2,36,97,10
2,36,0,54
2,31,108,34
2,31,0,664
2,26,108,8
2,26,0,28
2,31,88,20
2,33,97,48
2,31,0,2
2,33,0,696
2,38,108,70
2,38,0,362
2,36,97,22
2,36,0,382
2,35,102,4
2,35,0,382
2,34,108,6
2,33,108,138
2,34,0,10
2,33,0,116
2,32,102,2
2,32,0,110
2,31,108,2
2,31,0,664
2,26,108,8
2,26,0,28
2,31,88,20
2,33,97,48
2,31,0,2
2,33,0,696
2,26,102,70
2,26,0,38
2,38,102,10
2,38,0,42
2,26,97,198
2,26,0,22
2,38,97,26
2,38,0,50
2,26,102,382
2,26,0,40
2,38,91,8
2,38,0,52
2,26,102,188
2,26,0,38
2,38,102,10
2,38,0,58
2,26,81,278
2,26,0,30
2,38,84,18
2,38,0,46
2,26,102,2
2,38,97,48
2,26,0,8
2,38,0,44
2,26,102,188
2,26,0,42
2,38,91,6
2,38,0,58
2,26,102,374
2,26,0,38
2,38,102,10
2,38,0,42
2,26,97,198
2,26,0,22
2,38,97,26
2,38,0,50
2,26,102,382
2,26,0,38
2,38,102,10
2,38,0,42
2,26,97,198
2,26,0,22
2,38,97,26
2,38,0,50
2,26,102,382
2,26,0,40
2,38,91,8
2,38,0,52
2,26,102,188
2,26,0,38
2,38,102,10
2,38,0,58
2,26,81,278
2,26,0,30
2,38,84,18
2,38,0,46
2,26,102,2
2,38,97,48
2,26,0,8
2,38,0,44
2,26,102,188
2,26,0,42
2,38,91,6
2,38,0,58
2,26,102,374
2,26,0,38
2,38,102,10
2,38,0,42
2,26,97,198
2,26,0,22
2,38,97,26
2,38,0,50
2,31,108,382
2,31,0,664
2,26,108,8
2,26,0,28
2,31,88,20
2,33,97,48
2,31,0,2
2,33,0,696
2,38,108,70
2,38,0,362
2,36,97,22
2,36,0,382
2,35,102,4
2,35,0,382
2,34,108,6
2,33,108,138
2,34,0,10
2,33,0,116
2,32,102,2
2,32,0,110
2,31,108,2
2,31,0,664
2,26,108,8
2,26,0,28
2,31,88,20
2,33,97,48
2,31,0,2
2,33,0,696
2,38,102,70
2,26,108,106
2,38,0,500
2,26,0,4
2,38,108,164
2,38,0,128
2,36,108,18
2,36,0,124
2,33,102,14
2,33,0,128
2,31,113,16
2,31,0,38
2,33,108,0
2,33,0,82
2,36,97,10
2,36,0,54
2,31,108,34
2,31,0,664
2,26,108,8
2,26,0,28
2,31,88,20
2,33,97,48
2,31,0,2
2,33,0,696
2,38,108,70
2,38,0,362
2,36,97,22
2,36,0,382
2,35,102,4
2,35,0,382
2,34,108,6
2,33,108,138
2,34,0,10
2,33,0,116
2,32,102,2
2,32,0,110
2,31,108,2
2,31,0,664
2,26,108,8
2,26,0,28
2,31,88,20
2,33,97,48
2,31,0,2
2,33,0,696
2,33,97,70
2,33,0,698
2,31,113,70
2,31,0,656
2,43,97,16
2,43,0,28
2,38,97,20
2,38,0,24
2,31,108,24
2,31,0,682
2,38,102,38
2,38,0,16
2,31,113,80
2,43,97,624
2,31,0,12
2,43,0,10
2,38,84,26
2,38,0,18
2,31,108,30
2,43,97,576
2,31,0,28
2,43,0,62
2,31,102,6
2,31,0,52
2,26,108,44
2,38,88,432
2,26,0,206
2,26,97,34
2,38,0,28
2,26,0,8
2,38,88,12
2,26,108,48
2,38,0,24
2,31,97,360
2,26,0,16
2,26,97,368
2,31,0,2
2,38,91,382
2,26,0,246
2,38,0,38
2,26,108,4
2,26,0,28
2,38,97,20
2,35,102,48
2,38,0,28
2,35,0,430
2,35,97,22
2,35,0,70
2,35,102,26
2,35,0,142
2,31,113,50
2,31,0,656
2,43,97,16
2,43,0,28
2,38,97,20
2,38,0,24
2,31,108,24
2,31,0,682
2,38,102,38
2,38,0,16
2,31,113,80
2,43,97,624
2,31,0,12
2,43,0,10
2,38,84,26
2,38,0,18
2,31,108,30
2,43,97,576
2,31,0,28
2,43,0,62
2,31,102,6
2,31,0,52
2,26,108,44
2,38,88,432
2,26,0,206
2,26,97,34
2,38,0,28
2,26,0,8
2,38,88,12
2,26,108,48
2,38,0,24
2,31,97,360
2,26,0,16
2,26,97,368
2,31,0,2
2,38,91,382
2,26,0,246
2,38,0,38
2,26,108,4
2,26,0,28
2,38,97,20
2,35,102,48
2,38,0,28
2,35,0,430
2,35,97,22
2,35,0,70
2,35,102,26
2,35,0,142
2,33,97,50
2,33,0,376
2,45,88,8
2,45,0,286
2,40,84,2
2,40,0,48
2,45,84,0
2,45,0,46
2,33,102,2
2,33,0,380
2,45,91,4
2,45,0,302
2,40,84,34
2,45,88,0
2,40,0,32
2,45,0,14
2,33,108,2
2,40,102,384
2,33,0,2
2,33,102,190
2,40,0,2
2,33,0,84
2,40,84,10
2,40,0,26
2,33,97,22
2,33,0,18
2,33,102,30
2,33,0,380
2,45,97,4
2,45,0,254
2,45,84,34
2,45,0,36
2,33,108,12
2,33,0,46
2,26,108,2
2,38,88,432
2,26,0,206
2,26,97,34
2,38,0,28
2,26,0,8
2,38,88,12
2,38,0,46
2,52,102,2
2,52,0,10
2,50,97,14
2,50,0,52
2,52,102,52
2,52,0,46
2,52,102,94
2,52,0,24
2,26,102,252
2,26,0,38
2,38,102,10
2,38,0,42
2,26,97,198
2,26,0,22
2,38,97,26
2,38,0,50
2,26,102,382
2,26,0,40
2,38,91,8
2,38,0,52
2,26,102,188
2,26,0,38
2,38,102,10
2,38,0,58
2,26,81,278
2,26,0,30
2,38,84,18
2,38,0,46
2,26,102,2
2,38,97,48
2,26,0,8
2,38,0,44
2,26,102,188
2,26,0,42
2,38,91,6
2,38,0,58
2,26,102,374
2,26,0,38
2,38,102,10
2,38,0,42
2,26,97,198
2,26,0,22
2,38,97,26
2,38,0,50
2,26,102,382
2,26,0,38
2,38,102,10
2,38,0,42
2,26,97,198
2,26,0,22
2,38,97,26
2,38,0,50
2,26,102,382
2,26,0,40
2,38,91,8
2,38,0,52
2,26,102,188
2,26,0,38
2,38,102,10
2,38,0,58
2,26,81,278
2,26,0,30
2,38,84,18
2,38,0,46
2,26,102,2
2,38,97,48
2,26,0,8
2,38,0,44
2,26,102,188
2,26,0,42
2,38,91,6
2,38,0,58
2,26,102,374
2,26,0,38
2,38,102,10
2,38,0,42
2,26,97,198
2,26,0,22
2,38,97,26
2,38,0,50
2,26,102,382
2,26,0,38
2,38,102,10
2,38,0,42
2,26,97,198
2,26,0,22
2,38,97,26
2,38,0,50
2,26,102,382
2,26,0,40
2,38,91,8
2,38,0,52
2,26,102,188
2,26,0,38
2,38,102,10
2,38,0,58
2,26,81,278
2,26,0,30
2,38,84,18
2,38,0,46
2,26,102,2
2,38,97,48
2,26,0,8
2,38,0,44
2,26,102,188
2,26,0,42
2,38,91,6
2,38,0,58
2,26,102,374
2,26,0,38
2,38,102,10
2,38,0,42
2,26,97,198
2,26,0,22
2,38,97,26
2,38,0,50
2,31,108,382
2,31,0,664
2,26,108,8
2,26,0,28
2,31,88,20
2,33,97,48
2,31,0,2
2,33,0,696
2,38,108,70
2,38,0,362
2,36,97,22
2,36,0,382
2,35,102,4
2,35,0,382
2,34,108,6
2,33,108,138
2,34,0,10
2,33,0,116
2,32,102,2
2,32,0,110
2,31,108,2
2,31,0,664
2,26,108,8
2,26,0,28
2,31,88,20
2,33,97,48
2,31,0,2
2,33,0,696
2,38,102,70
2,26,108,106
2,38,0,500
2,26,0,4
2,38,108,164
2,38,0,128
2,36,108,18
2,36,0,124
2,33,102,14
2,33,0,128
2,31,113,16
2,31,0,38
2,33,108,0
2,33,0,82
2,36,97,10
2,36,0,54
2,31,108,34
2,31,0,664
2,26,108,8
2,26,0,28
2,31,88,20
2,33,97,48
2,31,0,2
2,33,0,696
2,38,108,70
2,38,0,362
2,36,97,22
2,36,0,382
2,35,102,4
2,35,0,382
2,34,108,6
2,33,108,138
2,34,0,10
2,33,0,116
2,32,102,2
2,32,0,110
2,31,108,2
2,31,0,664
2,26,108,8
2,26,0,28
2,31,88,20
2,33,97,48
2,31,0,2
2,33,0,696
2,33,97,70
2,33,0,698
2,31,113,70
2,31,0,656
2,43,97,16
2,43,0,28
2,38,97,20
2,38,0,24
2,31,108,24
2,31,0,682
2,38,102,38
2,38,0,16
2,31,113,32
2,31,0,636
2,43,97,36
2,43,0,22
2,38,84,26
2,38,0,18
2,31,108,30
2,43,97,576
2,31,0,28
2,43,0,62
2,31,102,6
2,31,0,52
2,26,108,44
2,38,88,384
2,26,0,254
2,38,0,14
2,26,97,20
2,26,0,36
2,38,88,12
2,38,0,46
2,26,108,2
2,31,97,384
2,26,0,16
2,26,97,368
2,31,0,2
2,38,91,382
2,26,0,246
2,38,0,38
2,26,108,4
2,26,0,28
2,38,97,20
2,35,102,48
2,38,0,28
2,35,0,430
2,35,97,22
2,35,0,70
2,35,102,26
2,35,0,142
2,31,113,50
2,31,0,656
2,43,97,16
2,43,0,28
2,38,97,20
2,38,0,24
2,31,108,24
2,31,0,682
2,38,102,38
2,38,0,16
2,31,113,32
2,31,0,636
2,43,97,36
2,43,0,22
2,38,84,26
2,38,0,18
2,31,108,30
2,43,97,576
2,31,0,28
2,43,0,62
2,31,102,6
2,31,0,52
2,26,108,44
2,38,88,432
2,26,0,206
2,26,97,34
2,38,0,28
2,26,0,8
2,38,88,12
2,26,108,48
2,38,0,24
2,31,97,360
2,26,0,16
2,26,97,368
2,31,0,2
2,38,91,382
2,26,0,246
2,38,0,38
2,26,108,4
2,26,0,28
2,38,97,20
2,35,102,48
2,38,0,28
2,35,0,430
2,35,97,22
2,35,0,70
2,35,102,26
2,35,0,142
2,33,97,50
2,33,0,376
2,45,88,8
2,45,0,286
2,40,84,2
2,40,0,48
2,45,84,0
2,45,0,46
2,33,102,2
2,33,0,380
2,45,91,4
2,45,0,302
2,40,84,34
2,45,88,0
2,40,0,32
2,45,0,14
2,33,108,2
2,40,102,384
2,33,0,2
2,33,102,190
2,40,0,2
2,33,0,84
2,40,84,10
2,40,0,26
2,33,97,22
2,33,0,18
2,33,102,30
2,33,0,380
2,45,97,4
2,45,0,254
2,45,84,34
2,45,0,36
2,33,108,12
2,33,0,46
2,26,108,2
2,38,88,432
2,26,0,206
2,26,97,34
2,38,0,28
2,26,0,8
2,38,88,12
2,38,0,46
2,55,113,2
2,55,0,34
2,50,97,14
2,50,0,32
2,26,108,16
2,26,0,42
2,53,113,6
2,53,0,64
2,50,102,32
2,50,0,30
2,43,108,18
2,43,0,36
2,41,97,12
2,41,0,24
2,38,108,24
2,38,0,62
2,26,102,322
2,26,0,38
2,38,102,10
2,38,0,42
2,26,97,198
2,26,0,22
2,38,97,26
2,38,0,50
2,26,102,382
2,26,0,40
2,38,91,8
2,38,0,52
2,26,102,188
2,26,0,38
2,38,102,10
2,38,0,58
2,26,81,278
2,26,0,30
2,38,84,18
2,38,0,46
2,26,102,2
2,38,97,48
2,26,0,8
2,38,0,44
2,26,102,188
2,26,0,42
2,38,91,6
2,38,0,58
2,26,102,374
2,26,0,38
2,38,102,10
2,38,0,42
2,26,97,198
2,26,0,22
2,38,97,26
2,38,0,50
2,26,102,382
2,26,0,38
2,38,102,10
2,38,0,42
2,26,97,198
2,26,0,22
2,38,97,26
2,38,0,50
2,26,102,382
2,26,0,40
2,38,91,8
2,38,0,52
2,26,102,188
2,26,0,38
2,38,102,10
2,38,0,58
2,26,81,278
2,26,0,30
2,38,84,18
2,38,0,46
2,26,102,2
2,38,97,48
2,26,0,8
2,38,0,44
2,26,102,188
2,26,0,42
2,38,91,6
2,38,0,58
2,26,102,374
2,26,0,38
2,38,102,10
2,38,0,42
2,26,97,198
2,26,0,22
2,38,97,26
2,38,0,50
2,26,102,382
2,26,0,38
2,38,102,10
2,38,0,42
2,26,97,198
2,26,0,22
2,38,97,26
2,38,0,50
2,26,102,382
2,26,0,40
2,38,91,8
2,38,0,52
2,26,102,188
2,26,0,38
2,38,102,10
2,38,0,58
2,26,81,278
2,26,0,30
2,38,84,18
2,38,0,46
2,26,102,2
2,38,97,48
2,26,0,8
2,38,0,44
2,26,102,188
2,26,0,42
2,38,91,6
2,38,0,58
2,26,102,374
2,26,0,38
2,38,102,10
2,38,0,42
2,26,97,198
2,26,0,22
2,38,97,26
2,38,0,50
2,26,102,382
2,26,0,38
2,38,102,10
2,38,0,42
2,26,97,198
2,26,0,22
2,38,97,26
2,38,0,50
2,26,102,382
2,26,0,40
2,38,91,8
2,38,0,52
2,26,102,188
2,26,0,38
2,38,102,10
2,38,0,58
