track,note,velocity,time
0,63,70,177
0,59,67,0
0,63,121,0
0,54,96,0
0,47,92,0
0,54,81,0
0,47,67,0
0,59,115,0
0,63,115,0
0,59,69,12
0,63,70,0
0,63,110,0
0,47,92,0
0,54,98,0
0,47,67,0
0,54,84,0
0,59,113,0
0,63,113,0
0,61,72,2
0,58,70,0
0,54,94,0
0,61,117,0
0,47,88,0
0,47,72,0
0,54,76,0
0,54,115,0
0,61,115,0
0,63,71,6
0,59,68,0
0,63,113,0
0,54,101,0
0,47,86,0
0,54,86,0
0,47,72,0
0,59,117,0
0,63,117,0
0,54,123,35
0,61,74,2
0,58,72,0
0,61,117,0
0,54,103,0
0,47,100,0
0,54,80,0
0,47,95,0
0,61,123,0
0,59,127,26
0,63,127,1
0,63,74,2
0,59,69,0
0,63,121,0
0,47,101,0
0,54,109,0
0,54,92,0
0,47,88,0
0,54,121,38
0,61,121,0
0,61,74,0
0,58,74,0
0,61,123,0
0,54,101,0
0,47,94,0
0,54,95,0
0,47,86,0
0,59,112,20
0,63,112,0
0,63,72,0
0,59,69,0
0,63,127,0
0,54,100,0
0,47,90,0
0,54,96,0
0,47,85,0
0,59,127,16
0,63,127,0
0,59,69,0
0,63,71,0
0,54,101,0
0,47,97,0
0,59,98,0
0,63,127,0
0,47,92,0
0,54,102,0
0,81,111,45
0,54,125,0
0,30,112,2
0,66,127,1
0,75,73,2
0,71,71,0
0,47,109,0
0,63,127,0
0,54,100,0
0,54,91,0
0,47,85,0
0,35,111,0
0,66,127,2
0,75,72,18
0,71,70,0
0,63,112,0
0,54,100,0
0,47,86,0
0,54,77,0
0,47,62,0
0,35,107,0
0,44,77,14
0,73,76,0
0,70,73,0
0,61,113,0
0,47,87,0
0,54,90,0
0,47,64,0
0,54,82,0
0,35,106,0
0,75,73,12
0,71,71,0
0,47,98,0
0,63,127,0
0,54,109,0
0,54,85,0
0,47,88,0
0,35,111,0
0,73,75,42
0,70,76,0
0,61,119,0
0,54,102,0
0,47,110,0
0,47,88,0
0,54,107,0
0,35,110,0
0,44,81,14
0,75,74,44
0,71,71,0
0,63,127,0
0,54,102,0
0,47,110,0
0,54,86,0
0,47,83,0
0,35,107,0
0,47,113,0
0,59,98,0
0,54,85,0
0,63,117,0
0,47,95,0
0,54,96,0
0,35,111,0
0,71,69,0
0,75,73,0
0,44,81,12
0,66,99,0
0,44,89,0
0,30,112,16
0,66,93,0
0,35,54,0
0,54,75,0
0,59,75,0
0,63,103,0
0,47,75,0
0,47,68,0
0,35,113,0
0,73,90,0
0,35,67,0
0,38,66,0
0,54,51,48
0,54,74,0
0,75,93,0
0,40,34,0
0,44,77,0
0,59,34,0
0,59,58,0
0,35,108,16
0,75,99,0
0,38,46,0
0,35,60,0
0,54,67,0
0,63,86,0
0,59,62,0
0,63,72,0
0,35,111,4
0,38,69,0
0,35,69,0
0,54,75,2
0,54,64,0
0,40,47,48
0,44,81,0
0,59,62,0
0,66,95,20
0,35,109,0
0,63,73,0
0,59,59,0
0,54,71,0
0,38,62,0
0,35,47,0
0,54,72,0
0,59,60,0
0,56,78,0
0,73,99,0
0,32,114,0
0,44,81,0
0,35,77,0
0,38,74,0
0,44,82,0
0,71,76,8
0,56,53,0
0,51,77,0
0,40,43,0
0,44,81,0
0,73,97,0
0,56,68,0
0,63,80,0
0,59,66,0
0,59,58,0
0,32,108,0
0,38,66,0
0,35,48,0
0,71,75,0
0,59,67,0
0,56,75,0
0,56,75,0
0,32,111,0
0,35,80,0
0,38,81,0
0,73,97,0
0,51,73,0
0,51,65,0
0,59,74,0
0,56,77,0
0,63,64,0
0,40,47,4
0,44,89,0
0,71,90,0
0,56,73,0
0,51,66,0
0,59,52,30
0,32,110,0
0,38,74,0
0,35,55,0
0,73,101,0
0,59,71,0
0,56,95,0
0,58,65,0
0,66,62,0
0,63,81,0
0,39,112,0
0,35,73,0
0,38,78,0
0,54,68,0
0,58,77,0
0,54,69,0
0,58,75,28
0,75,93,2
0,40,47,0
0,44,77,0
0,58,95,0
0,54,78,0
0,63,90,0
0,63,86,0
0,39,107,0
0,38,60,0
0,35,53,0
0,54,67,0
0,54,83,0
0,75,111,0
0,39,111,0
0,38,82,0
0,35,81,0
0,51,80,0
0,63,92,0
0,58,87,0
0,58,77,0
0,54,64,0
0,40,37,0
0,44,81,0
0,51,51,0
0,58,63,0
0,39,106,0
0,38,68,0
0,35,68,0
0,54,77,0
0,58,74,0
0,54,64,0
0,63,74,0
0,39,111,0
0,35,78,0
0,38,90,0
0,51,82,0
0,51,76,0
0,54,66,2
0,54,55,0
0,40,51,12
0,44,81,0
0,63,60,0
0,58,77,0
0,58,92,30
0,39,110,0
0,38,64,0
0,35,72,0
0,58,71,0
0,54,81,0
0,58,83,0
0,63,90,0
0,38,72,28
0,51,35,0
0,75,99,0
0,39,110,0
0,51,70,0
0,35,80,0
0,54,57,0
0,82,99,2
0,54,78,0
0,40,34,0
0,44,89,0
0,58,82,0
0,63,87,0
0,39,109,10
0,83,101,0
0,58,70,0
0,39,64,0
0,35,53,0
0,51,82,0
0,51,51,8
0,59,65,0
0,63,69,0
0,56,76,0
0,32,114,0
0,44,89,0
0,35,80,0
0,38,93,0
0,44,99,0
0,51,82,24
0,82,103,12
0,40,54,0
0,44,77,0
0,59,90,0
0,51,77,0
0,56,89,0
0,56,74,0
0,32,111,6
0,80,97,0
0,38,66,0
0,35,44,0
0,44,90,0
0,53,66,0
0,53,54,0
0,61,76,0
0,65,68,0
0,56,83,0
0,37,110,0
0,38,78,0
0,35,76,0
0,49,83,0
0,49,87,0
0,78,97,30
0,53,48,0
0,61,66,0
0,40,29,16
0,44,81,0
0,80,99,0
0,56,87,0
0,56,72,0
0,37,109,8
0,38,51,0
0,35,46,0
0,82,109,0
0,58,95,0
0,54,85,0
0,53,71,0
0,66,74,0
0,58,71,0
0,30,114,0
0,38,68,0
0,35,82,0
0,42,95,0
0,42,80,0
0,54,54,0
0,73,93,32
0,54,71,0
0,54,74,0
0,40,48,0
0,44,81,0
0,58,81,0
0,58,77,0
0,30,112,4
0,73,92,0
0,38,60,0
0,35,55,0
0,59,90,0
0,54,76,0
0,54,66,0
0,59,36,0
0,63,61,0
0,35,112,0
0,38,71,0
0,35,82,0
0,47,81,0
0,47,71,0
0,75,95,0
0,54,81,2
0,51,60,0
0,40,51,0
0,44,89,0
0,59,57,0
0,54,66,0
0,35,109,4
0,38,62,0
0,35,56,0
0,54,78,0
0,63,86,0
0,59,66,0
0,59,56,0
0,35,110,2
0,35,78,0
0,38,76,0
0,47,77,0
0,58,76,0
0,54,69,0
0,61,103,0
0,54,95,0
0,58,99,0
0,61,78,0
0,58,69,0
0,40,57,0
0,44,77,0
0,35,106,0
0,59,80,0
0,54,73,0
0,63,111,0
0,54,77,0
0,59,93,0
0,38,70,0
0,35,55,0
0,59,58,0
0,63,86,0
0,35,111,0
0,47,51,0
0,47,54,0
0,35,82,0
0,38,68,0
0,54,55,0
0,54,60,0
0,40,64,2
0,44,81,0
0,59,62,0
0,54,72,0
0,59,71,0
0,35,110,2
0,38,62,0
0,35,51,0
0,63,65,0
0,54,68,0
0,35,110,4
0,38,71,0
0,47,61,0
0,66,78,0
0,51,55,0
0,54,60,0
0,35,111,0
0,40,52,0
0,35,62,0
0,44,81,0
0,66,89,0
0,54,62,0
0,54,62,0
0,30,110,0
0,39,72,0
0,35,75,0
0,66,85,0
0,59,55,0
0,59,61,0
0,63,90,0
0,54,58,0
0,47,82,0
0,35,111,0
0,38,81,0
0,35,83,0
0,73,101,0
0,47,67,0
0,66,47,0
0,58,46,0
0,59,46,0
0,63,43,0
0,75,73,0
0,54,64,0
0,54,65,0
0,63,71,0
0,58,69,0
0,40,66,0
0,44,89,0
0,75,77,0
0,58,74,0
0,35,109,0
0,54,83,0
0,35,53,0
0,38,66,0
0,75,87,0
0,63,81,0
0,35,111,30
0,47,63,0
0,35,63,0
0,38,87,0
0,58,80,6
0,54,74,0
0,40,51,2
0,44,77,0
0,54,75,0
0,63,71,0
0,58,86,0
0,54,81,30
0,66,97,0
0,35,111,0
0,38,58,0
0,35,50,0
0,58,56,0
0,56,29,0
0,56,86,0
0,73,101,0
0,32,113,0
0,38,77,0
0,35,74,0
0,44,71,0
0,44,92,0
0,56,49,0
0,59,51,0
0,63,54,0
0,71,73,0
0,51,60,0
0,40,37,0
0,44,81,0
0,56,74,0
0,51,56,0
0,59,59,0
0,73,95,0
0,59,62,0
0,32,108,4
0,38,71,0
0,35,74,0
0,51,74,0
0,71,81,0
0,56,72,0
0,32,112,6
0,38,78,0
0,44,99,0
0,73,89,0
0,56,66,14
0,63,72,0
0,59,83,0
0,51,80,0
0,56,92,0
0,40,52,0
0,44,81,0
0,71,90,0
0,59,82,0
0,56,77,0
0,44,64,0
0,32,110,2
0,35,76,0
0,38,76,0
0,73,103,0
0,59,74,0
0,56,82,0
0,59,85,0
0,63,87,0
0,54,81,0
0,58,93,0
0,39,111,0
0,38,83,0
0,51,78,0
0,51,93,0
0,63,54,0
0,58,52,0
0,58,74,0
0,75,80,0
0,40,41,0
0,44,89,0
0,54,87,0
0,58,97,0
0,63,101,0
0,54,74,0
0,39,108,14
0,75,107,0
0,38,62,0
0,35,54,0
0,51,62,0
0,63,86,0
0,39,112,0
0,38,86,0
0,35,83,0
0,54,75,0
0,58,83,0
0,54,81,0
0,63,82,0
0,54,76,0
0,40,41,0
0,44,77,0
0,58,99,0
0,58,77,0
0,34,107,0
0,51,82,0
0,38,52,0
0,35,76,0
0,51,58,0
0,54,86,0
0,39,113,0
0,51,92,0
0,38,80,0
0,51,85,0
0,54,80,18
0,58,72,0
0,54,78,0
0,63,74,0
0,40,35,0
0,44,81,0
0,58,81,0
0,63,103,24
0,39,107,0
0,51,76,0
0,38,74,0
0,35,81,0
0,54,66,0
0,39,111,16
0,38,63,0
0,75,101,4
0,66,82,0
0,51,68,0
0,63,74,0
0,35,64,0
0,82,103,0
0,58,97,0
0,54,83,0
0,58,97,0
0,58,76,0
0,40,57,0
0,44,81,0
0,39,108,4
0,83,103,0
0,51,101,0
0,54,83,0
0,38,71,0
0,35,55,0
0,56,50,8
0,63,51,0
0,59,42,0
0,59,71,0
0,56,99,0
0,63,93,0
0,32,113,0
0,44,101,0
0,44,95,0
0,35,71,0
0,38,95,0
0,51,77,28
0,82,95,8
0,59,87,0
0,51,73,0
0,56,82,0
0,40,56,0
0,44,89,0
0,56,72,0
0,32,113,4
0,80,101,0
0,44,101,0
0,38,58,0
0,35,56,0
0,53,41,0
0,56,55,0
0,61,48,0
0,65,51,0
0,56,86,0
0,61,85,0
0,65,75,0
0,37,111,0
0,49,97,0
0,38,77,0
0,35,72,0
0,49,89,0
0,78,92,34
0,61,83,0
0,53,40,0
0,56,71,0
0,56,64,0
0,40,64,0
0,44,77,0
0,80,95,0
0,61,86,0
0,37,109,2
0,53,87,0
0,49,65,0
0,38,41,0
0,35,90,0
0,82,115,0
0,53,48,0
0,66,53,0
0,61,52,0
0,58,52,0
0,66,92,0
0,58,86,0
0,30,111,0
0,42,101,0
0,38,85,0
0,54,82,0
0,73,107,12
0,35,73,0
0,58,85,0
0,61,97,4
0,54,86,0
0,58,92,0
0,40,53,0
0,44,81,0
0,61,69,0
0,30,109,32
0,73,99,0
0,42,99,0
0,35,52,0
0,54,68,0
0,54,76,0
0,63,86,0
0,59,55,0
0,35,111,0
0,47,93,0
0,38,81,0
0,35,82,0
0,47,73,0
0,59,48,0
0,63,54,0
0,75,97,0
0,54,67,12
0,63,89,0
0,59,66,0
0,54,68,0
0,40,69,0
0,44,81,0
0,59,55,0
0,35,109,12
0,47,62,0
0,35,51,0
0,38,52,0
0,63,72,0
0,35,111,0
0,47,90,0
0,38,87,0
0,35,85,0
0,47,66,0
0,54,76,0
0,75,99,0
0,54,67,0
0,39,74,0
0,54,74,0
0,59,73,0
0,82,105,0
0,63,93,0
0,59,78,0
0,40,59,0
0,44,89,0
0,59,64,0
0,35,110,0
0,54,85,0
0,83,107,0
0,47,82,0
0,35,69,0
0,38,32,0
0,58,75,0
0,32,115,0
0,59,66,0
0,56,89,0
0,44,111,0
0,38,82,0
0,35,76,0
0,51,64,0
0,63,54,0
0,59,46,0
0,56,52,0
0,66,55,0
0,56,63,0
0,82,97,6
0,59,95,0
0,51,81,0
0,56,76,0
0,40,51,0
0,44,77,0
0,59,70,0
0,32,111,42
0,80,93,0
0,44,93,0
0,35,71,0
0,63,73,0
0,56,83,2
0,65,73,0
0,61,80,0
0,65,53,0
0,61,54,0
0,37,111,0
0,49,93,0
0,38,78,0
0,49,83,0
0,73,97,16
0,53,60,0
0,53,65,0
0,40,59,16
0,44,81,0
0,53,77,0
0,61,97,0
0,56,87,0
0,56,81,0
0,37,112,28
0,73,99,0
0,38,68,0
0,35,53,0
0,49,81,0
0,61,75,0
0,58,76,4
0,66,82,0
0,58,52,0
0,66,54,0
0,61,51,0
0,30,111,0
0,78,97,0
0,38,92,0
0,35,83,0
0,42,109,0
0,46,87,0
0,80,93,36
0,54,71,0
0,40,46,4
0,44,81,0
0,61,86,0
0,54,85,0
0,58,99,0
0,82,95,0
0,58,86,0
0,30,110,8
0,35,57,0
0,38,36,0
0,42,85,0
0,80,101,0
0,61,78,0
0,59,60,0
0,63,78,0
0,35,112,0
0,35,86,0
0,38,83,0
0,47,92,0
0,47,77,0
0,63,54,0
0,59,47,0
0,54,54,0
0,54,55,0
0,54,75,0
0,78,90,0
0,40,39,0
0,44,89,0
0,63,101,0
0,59,82,0
0,54,85,0
0,59,77,0
0,35,109,0
0,35,85,0
0,47,63,0
0,63,80,0
0,35,111,0
0,38,97,0
0,47,87,0
0,61,74,46
0,58,61,0
0,58,93,0
0,61,97,0
0,58,89,0
0,54,83,0
0,61,57,0
0,58,52,0
0,35,81,0
0,61,111,0
0,58,105,0
0,54,71,0
0,40,47,0
0,44,77,0
0,35,110,0
0,63,103,0
0,59,85,0
0,59,83,0
0,54,82,0
0,63,58,0
0,59,50,0
0,63,109,0
0,59,90,0
0,54,85,0
0,38,77,0
0,35,89,0
0,59,48,0
0,63,72,0
0,35,111,0
0,47,47,0
0,47,71,0
0,38,103,0
0,54,56,0
0,54,64,0
0,40,51,2
0,44,81,0
0,59,51,0
0,59,62,0
0,30,112,2
0,35,66,0
0,38,43,0
0,63,73,0
0,59,82,0
0,54,87,0
0,35,111,0
0,47,75,0
0,38,111,4
0,35,67,0
0,59,58,0
0,30,112,0
0,54,59,0
0,40,60,0
0,44,81,0
0,54,60,0
0,35,111,0
0,59,90,0
0,54,92,0
0,35,47,0
0,59,57,0
0,30,111,0
0,47,65,0
0,62,71,0
0,56,80,0
0,66,90,0
0,59,76,0
0,38,113,0
0,35,87,0
0,47,56,0
0,40,111,0
0,52,80,0
0,56,20,0
0,62,55,0
0,66,51,0
0,52,67,0
0,40,35,0
0,44,89,0
0,62,48,0
0,56,60,0
0,56,77,0
0,38,46,4
0,52,71,0
0,62,41,0
0,38,59,6
0,52,64,0
0,40,107,20
0,56,68,0
0,38,93,0
0,35,73,0
0,56,64,0
0,76,87,4
0,35,110,0
0,54,63,0
0,40,35,0
0,44,77,0
0,62,62,0
0,81,97,4
0,28,112,0
0,59,44,0
0,35,85,0
0,47,63,0
0,47,64,0
0,38,99,0
0,52,76,0
0,80,105,2
0,52,85,0
0,40,38,16
0,44,81,0
0,62,61,0
0,56,66,0
0,56,66,0
0,56,90,4
0,78,103,0
0,38,64,0
0,35,62,0
0,52,59,0
0,62,56,0
0,67,10,0
0,76,87,0
0,38,67,0
0,52,65,0
0,62,66,0
0,56,71,0
0,38,103,0
0,56,78,0
0,76,97,14
0,66,90,0
0,52,64,0
0,40,44,0
0,44,81,0
0,56,81,0
0,62,71,0
0,35,110,12
0,83,92,0
0,56,80,0
0,38,47,0
0,35,62,0
0,57,56,0
0,60,72,0
0,64,89,0
0,57,59,0
0,40,112,0
