track,note,velocity,time
1,36,107,2652
1,33,110,1536
1,35,105,1504
1,33,113,752
1,32,98,32
1,33,113,1536
1,31,102,672
1,30,113,752
1,31,105,0
1,33,110,30768
1,38,91,1552
1,31,95,0
1,36,87,16
1,33,100,1520
1,38,100,1504
1,31,98,0
1,36,98,80
1,33,105,0
1,35,105,1536
1,33,110,0
1,32,89,768
1,33,113,1504
1,31,89,736
1,30,110,0
1,31,95,1536
1,33,107,1504
1,35,107,0
1,36,98,768
1,33,110,1520
1,35,102,1472
1,33,107,0
1,32,85,0
1,33,105,1536
1,31,107,720
1,30,113,736
1,31,87,1520
1,24,107,96
1,24,105,112
1,26,107,0
1,28,116,192
1,26,100,1328
1,28,110,128
1,29,107,0
1,29,122,112
1,31,107,48
1,33,127,384
1,31,102,1488
1,28,110,752
1,26,107,176
1,25,98,336
1,24,91,0
1,26,127,2688
1,28,107,0
1,26,91,1344
1,28,107,112
1,28,113,144
1,29,102,16
1,29,119,144
1,31,107,16
1,33,127,384
1,31,95,0
1,33,107,112
1,28,102,1152
1,27,89,0
1,26,116,192
1,29,91,32
1,30,105,192
1,31,98,16
1,31,100,112
1,36,102,16
1,35,116,768
1,33,110,720
1,28,78,96
1,27,98,0
1,26,116,192
1,29,85,1104
1,30,107,176
1,31,105,16
1,29,93,1344
1,31,113,0
1,29,98,16
1,31,102,192
1,32,95,16
1,33,113,192
1,28,102,112
1,27,87,32
1,26,105,192
1,29,93,0
1,30,105,192
1,31,102,0
1,31,100,112
1,36,98,32
1,35,105,768
1,33,113,736
1,28,107,112
1,27,93,32
1,26,107,192
1,29,100,16
1,30,107,192
1,31,107,32
1,36,122,112
1,35,107,1152
1,33,116,368
1,35,116,1504
1,33,113,752
1,32,102,32
1,33,102,1536
1,31,105,704
1,30,110,720
1,31,102,1472
1,33,113,1504
1,35,119,752
1,36,110,752
1,33,113,1520
1,35,107,16
1,33,116,768
1,32,100,752
1,33,113,0
1,31,105,768
1,30,113,720
1,31,102,0
1,29,110,1536
1,39,127,1504
1,36,122,32
1,38,122,1536
1,36,102,0
1,35,119,768
1,36,119,0
1,34,107,16
1,33,116,768
1,34,116,1504
1,34,116,144
1,36,122,0
1,38,127,576
1,39,116,0
1,36,119,1536
1,38,116,1488
1,36,102,16
1,35,127,768
1,36,107,0
1,34,113,32
1,33,113,768
1,34,116,1520
1,34,116,160
1,36,107,16
1,38,119,576
1,39,119,96
1,36,116,0
1,38,119,1520
1,36,102,0
1,35,122,784
1,36,116,16
1,34,110,752
1,33,113,752
1,32,107,0
1,31,116,768
2,55,91,2612
2,60,87,0
2,64,89,0
2,55,91,32
2,60,85,128
2,64,87,176
2,65,98,128
2,64,66,240
2,62,93,144
2,60,68,16
2,62,76,16
2,55,89,976
2,59,95,160
2,62,98,192
2,64,102,48
2,62,70,304
2,60,72,16
2,62,93,32
2,60,70,0
2,59,107,48
2,60,89,16
2,52,64,224
2,57,74,112
2,60,66,64
2,62,82,32
2,60,74,288
2,59,64,0
2,57,63,0
2,55,70,16
2,60,70,0
2,62,60,0
2,62,68,320
2,60,82,0
2,55,78,16
2,62,68,304
2,59,78,0
2,55,80,16
2,62,70,240
2,59,78,0
2,55,68,0
2,48,85,80
2,55,74,0
2,60,82,0
2,64,72,0
2,55,66,304
2,60,82,0
2,64,61,0
2,55,66,0
2,60,72,0
2,64,63,0
2,55,57,336
2,60,62,0
2,64,60,0
2,55,59,336
2,60,66,0
2,64,58,0
2,55,63,352
2,60,68,0
2,64,63,0
2,55,66,384
2,60,68,0
2,64,63,0
2,55,63,352
2,60,70,0
2,64,63,0
2,48,59,416
2,55,75,0
2,60,75,0
2,64,75,0
2,60,78,320
2,55,64,0
2,64,68,0
2,64,63,320
2,55,68,0
2,60,76,0
2,60,80,368
2,55,68,0
2,64,66,0
2,59,66,16
2,55,70,0
2,52,61,16
2,40,66,0
2,55,70,400
2,52,62,0
2,59,72,16
2,55,72,384
2,52,64,0
2,59,68,16
2,55,66,400
2,52,64,0
2,59,80,0
2,57,63,336
2,60,76,0
2,53,70,0
2,41,64,16
2,60,68,352
2,57,63,0
2,53,66,16
2,60,66,352
2,57,68,0
2,53,70,16
2,41,87,48
2,53,82,0
2,60,89,0
2,57,78,0
2,43,87,16
2,55,87,0
2,59,95,16
2,62,95,0
2,45,85,16
2,64,85,0
2,57,74,0
2,60,78,0
2,57,68,368
2,60,80,0
2,64,64,0
2,59,66,0
2,43,66,0
2,55,70,16
2,62,68,0
2,59,57,336
2,55,60,16
2,62,59,0
2,60,74,0
2,48,68,16
2,55,63,0
2,64,66,0
2,60,66,400
2,64,64,0
2,55,62,0
2,60,76,368
2,55,63,0
2,64,70,0
2,64,64,352
2,60,76,0
2,55,62,16
2,40,66,624
2,55,78,0
2,62,70,0
2,52,61,0
2,59,78,0
2,55,68,384
2,52,57,0
2,59,70,0
2,62,66,0
2,55,70,384
2,52,59,0
2,62,63,0
2,59,70,0
2,55,78,368
2,52,68,16
2,59,76,0
2,62,63,0
2,40,80,16
2,57,66,80
2,60,74,0
2,53,70,0
2,41,68,0
2,60,68,336
2,57,70,0
2,53,70,0
2,53,63,368
2,57,64,0
2,60,68,0
2,60,85,16
2,41,78,0
2,53,80,0
2,57,74,0
2,43,87,16
2,55,89,0
2,62,100,0
2,59,100,0
2,57,74,16
2,64,66,0
2,45,82,0
2,60,87,0
2,57,76,416
2,60,85,0
2,64,64,0
2,43,82,320
2,55,85,0
2,59,80,0
2,62,70,0
2,62,72,352
2,59,87,16
2,55,87,0
2,57,68,16
2,60,85,0
2,64,62,0
2,45,82,0
2,64,64,432
2,57,76,16
2,60,85,0
2,50,59,16
2,60,78,16
2,53,66,0
2,57,68,0
2,38,64,0
2,50,70,400
2,60,89,0
2,53,80,16
2,57,80,0
2,43,82,16
2,55,72,0
2,60,80,0
2,62,72,0
2,62,82,288
2,59,80,0
2,55,82,16
2,64,78,16
2,60,85,0
2,55,85,0
2,48,76,16
2,64,68,192
2,60,85,0
2,55,80,0
2,60,89,288
2,57,72,0
2,64,70,0
2,45,80,0
2,60,87,368
2,64,70,0
2,57,76,16
2,60,64,528
2,50,59,16
2,53,68,16
2,57,70,0
2,38,64,0
2,53,82,368
2,60,85,0
2,50,85,0
2,57,72,0
2,62,70,416
2,55,70,0
2,60,80,0
2,43,74,0
2,60,70,368
2,62,62,16
2,55,66,0
2,43,63,272
2,62,61,336
2,55,57,16
2,59,60,0
2,55,89,0
2,60,87,0
2,64,82,0
2,48,87,0
2,64,85,288
2,55,80,0
2,60,82,16
2,48,66,64
2,45,59,0
2,60,76,0
2,57,70,0
2,53,72,0
2,57,85,400
2,60,82,0
2,53,93,0
2,45,91,0
2,55,82,0
2,59,85,0
2,62,85,0
2,47,68,0
2,45,89,320
2,62,87,0
2,55,85,0
2,59,82,0
2,56,82,320
2,64,78,16
2,59,74,0
2,44,82,0
2,56,78,352
2,64,80,0
2,59,80,0
2,44,78,128
2,57,78,320
2,45,80,0
2,52,62,0
2,60,63,0
2,60,91,0
2,52,93,0
2,57,87,0
2,43,85,0
2,42,76,0
2,54,85,16
2,62,89,0
2,57,82,0
2,62,80,368
2,54,66,0
2,57,78,0
2,42,87,32
2,64,76,0
2,60,85,16
2,55,76,0
2,43,68,0
2,62,72,32
2,59,78,0
2,55,93,0
2,45,78,464
2,67,93,16
2,57,82,0
2,64,80,0
2,60,89,0
2,47,66,0
2,62,72,0
2,59,74,16
2,55,91,0
2,55,64,16
2,60,74,0
2,48,63,16
2,64,70,0
2,64,91,336
2,55,89,16
2,60,87,0
2,45,78,16
2,60,63,0
2,57,64,16
2,53,60,0
2,53,87,400
2,60,89,0
2,57,87,0
2,55,80,16
2,59,76,0
2,47,82,0
2,62,72,0
2,45,87,272
2,59,80,16
2,55,82,0
2,62,80,0
2,64,85,16
2,44,80,0
2,59,85,0
2,56,85,0
2,64,87,304
2,59,82,0
2,56,85,0
2,52,72,16
2,45,76,0
2,57,82,16
2,60,80,0
2,60,80,400
2,57,80,0
2,52,87,0
2,43,80,0
2,42,64,352
2,54,80,0
2,62,87,0
2,57,82,0
2,54,78,368
2,57,70,16
2,62,82,0
2,60,74,304
2,55,64,0
2,43,66,0
2,62,61,0
2,60,64,416
2,62,57,0
2,55,66,16
2,62,58,368
2,59,59,0
2,55,59,16
2,59,58,400
2,62,58,0
2,55,53,16
2,62,54,336
2,60,59,0
2,55,53,0
2,60,47,368
2,62,45,0
2,55,40,0
2,55,46,352
2,62,52,0
2,59,51,16
2,55,80,16
2,60,82,0
2,64,80,16
2,48,82,0
2,64,62,256
2,60,64,16
2,55,57,0
2,60,58,352
2,64,57,16
2,55,56,0
2,64,64,336
2,60,76,16
2,55,60,0
2,59,64,32
2,40,62,0
2,55,72,0
2,52,59,0
2,55,60,416
2,52,57,0
2,59,60,0
2,55,58,480
2,52,52,0
2,59,57,0
2,55,78,400
2,52,62,0
2,59,70,16
2,41,80,0
2,57,63,16
2,60,70,0
2,53,66,0
2,60,59,416
2,57,53,0
2,53,66,0
2,60,59,384
2,57,53,0
2,53,56,0
2,53,74,32
2,60,82,0
2,41,82,0
2,57,66,0
2,55,78,32
2,59,89,0
2,62,95,0
2,43,93,0
2,64,70,16
2,45,91,0
2,57,68,16
2,60,85,0
2,60,89,208
2,57,74,16
2,64,76,0
2,55,64,32
2,59,64,0
2,43,74,0
2,62,72,0
2,59,63,352
2,55,66,0
2,62,60,0
2,55,68,0
2,64,62,0
2,60,70,0
2,48,74,16
2,60,70,352
2,64,62,16
2,55,64,0
2,64,60,368
2,55,60,16
2,60,66,0
2,64,68,336
2,55,68,0
2,60,76,0
2,59,64,512
2,52,63,0
2,40,66,0
2,55,70,0
2,55,70,432
2,62,60,0
2,52,57,0
2,59,63,0
2,55,66,400
2,62,59,0
2,52,59,0
2,59,68,0
2,55,68,400
2,62,68,0
2,52,60,0
2,59,66,0
2,57,66,16
2,53,58,16
2,60,61,0
2,41,68,0
2,60,70,352
2,57,64,0
2,53,66,0
2,60,58,368
2,57,60,0
2,53,66,0
2,41,85,16
2,60,85,0
2,53,82,0
2,57,78,0
2,43,82,32
2,55,87,0
2,62,100,0
2,59,95,0
2,57,68,16
2,64,66,16
2,45,89,0
2,60,87,0
2,57,78,416
2,64,66,0
2,60,85,16
2,43,76,416
2,59,66,16
2,55,66,0
2,62,59,0
2,59,63,320
2,55,64,0
2,62,60,16
2,57,64,32
2,64,66,0
2,60,78,0
2,45,82,16
2,57,78,432
2,64,74,0
2,60,89,0
2,60,61,0
2,38,70,0
2,50,51,0
2,57,64,0
2,53,51,0
2,60,80,384
2,50,63,0
2,53,70,0
2,57,70,0
2,62,72,464
2,60,82,0
2,55,85,0
2,43,70,0
2,62,85,32
2,59,87,0
2,55,78,0
2,55,87,16
2,64,80,0
2,60,85,16
2,48,80,0
2,55,82,304
2,64,78,0
2,60,85,0
2,47,61,32
2,45,68,304
2,64,60,0
2,57,61,0
2,60,68,0
2,64,66,352
2,57,64,0
2,60,76,0
2,50,56,528
2,60,64,0
2,57,61,0
2,53,59,0
2,38,70,0
2,57,68,432
2,60,80,0
2,50,62,16
2,53,68,0
2,43,70,448
2,62,66,0
2,55,78,0
2,60,78,0
2,62,66,384
2,60,76,0
2,55,72,16
2,55,60,16
2,62,59,16
2,59,57,0
2,62,57,368
2,59,47,0
2,55,47,16
2,57,72,160
2,60,87,0
2,64,70,0
2,45,53,16
2,57,78,352
2,60,85,0
2,64,72,0
2,62,70,0
2,53,66,0
2,57,63,0
2,38,68,0
2,57,72,336
2,62,70,16
2,53,76,0
2,59,85,0
2,43,68,0
2,55,80,0
2,62,70,0
2,59,76,304
2,62,89,16
2,55,66,0
2,64,66,0
2,60,78,0
2,55,70,0
2,48,68,0
2,64,82,352
2,60,89,16
2,55,89,0
2,47,66,32
2,64,68,32
2,60,80,0
2,57,66,0
2,45,82,0
2,60,87,352
2,57,76,16
2,64,66,0
2,53,68,496
2,57,78,0
2,38,74,0
2,62,72,0
2,62,82,304
2,57,85,0
2,53,82,16
2,62,98,304
2,59,87,0
2,55,80,0
2,43,70,0
2,62,89,304
2,59,76,0
2,55,78,16
2,65,89,528
2,62,93,0
2,59,91,0
2,55,87,0
2,65,89,320
2,62,93,16
2,59,89,0
2,55,89,0
2,55,89,96
2,60,87,16
2,64,85,0
2,48,68,0
2,64,85,336
2,55,85,0
2,60,85,0
2,60,74,0
2,57,63,0
2,53,68,0
2,45,78,0
2,60,80,336
2,57,85,16
2,53,87,0
2,55,85,16
2,59,85,0
2,62,87,0
2,47,78,0
2,45,93,272
2,55,85,0
2,59,87,16
2,62,87,0
2,64,87,0
2,44,70,0
2,56,82,0
2,59,85,16
2,64,78,336
2,56,68,0
2,59,72,16
2,52,68,64
2,57,78,0
2,60,78,0
2,45,61,0
2,43,89,384
2,57,85,0
2,52,91,0
2,60,85,0
2,42,74,32
2,54,85,0
2,62,85,0
2,57,82,16
2,57,64,336
2,54,58,16
2,62,66,0
2,43,80,0
2,55,89,16
2,64,95,0
2,60,98,0
2,55,78,176
2,59,76,0
2,62,63,0
2,67,91,256
2,64,74,0
2,60,89,16
2,57,87,0
2,45,89,0
2,59,76,368
2,62,82,0
2,47,85,0
2,55,87,0
2,60,78,336
2,55,70,0
2,64,68,0
2,48,68,0
2,64,95,320
2,55,91,16
2,60,93,0
2,45,80,304
2,57,70,0
2,64,70,0
2,60,80,0
2,57,78,416
2,60,76,0
2,53,82,0
2,62,68,320
2,55,72,0
2,59,78,0
2,47,66,0
2,45,87,272
2,55,87,0
2,59,82,0
2,62,85,16
2,44,82,0
2,64,82,0
2,59,78,0
2,56,82,0
2,64,78,272
2,56,78,0
2,59,70,0
2,45,74,464
2,52,76,16
2,57,80,0
2,60,78,0
2,43,82,400
2,57,80,0
2,52,82,0
2,60,85,0
2,62,80,272
2,42,70,0
2,54,74,0
2,57,80,0
2,54,80,384
2,57,72,0
2,62,85,0
2,43,74,0
2,55,89,16
2,60,82,0
2,62,76,0
2,62,85,352
2,55,87,0
2,60,87,0
2,41,98,32
2,62,87,0
2,55,91,0
2,60,89,16
2,62,89,336
2,60,87,0
2,55,91,0
2,51,82,176
2,63,93,16
2,58,91,0
2,67,91,0
2,67,87,304
2,63,98,0
2,58,89,16
2,51,82,192
2,48,85,32
2,56,82,0
2,63,76,0
2,60,85,0
2,67,82,16
2,67,82,320
2,60,82,0
2,56,85,16
2,63,64,0
2,48,82,32
2,65,89,0
2,58,82,0
2,62,93,0
2,50,82,16
2,65,80,320
2,62,78,0
2,58,76,0
2,48,82,0
2,55,82,480
2,62,72,0
2,59,70,0
2,47,87,16
2,55,89,368
2,62,100,0
2,59,95,0
2,47,98,176
2,60,98,16
2,55,95,16
2,48,80,0
2,63,87,0
2,46,80,16
2,63,87,16
2,55,95,0
2,60,98,0
2,45,60,16
2,63,78,16
2,60,76,0
2,53,82,0
2,57,74,0
2,53,70,320
2,60,76,16
2,63,66,0
2,57,58,0
2,45,72,128
2,67,98,16
2,46,72,16
2,58,87,0
2,63,102,0
2,46,66,176
2,62,102,0
2,65,89,16
2,58,98,0
2,70,95,16
2,65,95,0
2,62,102,0
2,58,105,16
2,46,87,0
2,70,89,16
2,60,95,0
2,48,93,0
2,63,105,16
2,67,98,0
2,65,91,192
2,62,91,0
2,58,89,16
2,50,95,0
2,67,68,16
2,58,72,0
2,63,72,0
2,51,66,16
2,67,89,304
2,63,91,0
2,58,85,16
2,51,66,208
2,48,87,0
2,67,78,544
2,56,74,0
2,63,62,16
2,60,78,0
2,48,63,48
2,50,68,224
2,58,74,0
2,65,85,0
2,62,78,0
2,58,80,320
2,62,82,0
2,65,85,0
2,48,68,0
2,47,66,16
2,59,64,16
2,55,70,0
2,62,82,16
2,55,87,336
2,59,102,0
2,62,100,0
2,47,85,240
2,55,80,16
2,60,82,0
2,63,82,0
2,48,74,0
2,63,78,0
2,60,85,16
2,55,93,0
2,46,85,0
2,60,78,16
2,63,72,0
2,57,63,0
2,53,85,0
