track,note,velocity,time
3,62,94,15996
3,71,104,24
3,72,94,224
3,74,115,172
3,72,94,212
3,71,104,152
3,67,104,176
3,62,104,220
3,67,94,212
3,67,115,132
3,72,115,632
3,74,127,212
3,74,115,228
3,72,127,188
3,70,127,244
3,72,79,216
3,74,104,36
3,74,127,112
3,72,127,180
3,70,127,168
3,74,127,244
3,72,94,0
3,74,127,312
3,72,115,232
3,70,115,52
3,74,115,256
3,74,127,256
3,72,127,228
3,70,115,44
3,74,115,232
3,72,115,8
3,74,115,8
3,74,104,156
3,72,104,108
3,70,104,92
3,72,104,44
3,67,104,28
3,75,104,68
3,74,127,160
3,72,104,124
3,74,127,12
3,67,115,1288
3,71,115,60
3,71,104,48
3,71,104,52
3,71,104,48
3,74,115,36
3,72,115,4
3,71,127,116
3,67,104,12
3,67,115,208
3,64,115,8
3,67,104,112
3,69,115,0
3,62,104,752
3,71,115,80
3,71,104,44
3,71,104,52
3,71,104,48
3,74,115,112
3,72,104,108
3,71,115,8
3,67,115,1164
3,71,115,52
3,72,115,236
3,74,115,276
3,72,94,8
3,71,115,0
3,67,104,0
3,67,115,168
3,62,115,984
3,71,115,56
3,72,94,4
3,74,127,276
3,72,104,16
3,71,104,12
3,67,104,24
3,67,115,168
3,62,104,996
3,71,104,36
3,72,104,244
3,74,115,224
3,72,115,252
3,71,104,176
3,67,104,100
3,62,115,184
3,67,115,220
3,67,127,140
3,72,115,820
3,74,127,228
3,74,127,248
3,72,127,160
3,70,115,20
3,72,86,104
3,74,127,0
3,72,104,200
3,74,115,16
3,72,127,204
3,70,115,24
3,73,47,148
3,72,104,132
3,74,115,12
3,72,68,52
3,74,104,44
3,72,115,208
3,70,115,16
3,74,115,164
3,72,104,152
3,74,104,20
3,72,115,152
3,70,104,128
3,73,33,196
3,72,86,88
3,74,115,4
3,72,86,20
3,74,104,8
3,70,115,600
3,75,104,84
3,74,127,172
3,72,86,120
3,74,115,24
3,62,115,1324
3,71,104,64
3,71,94,44
3,71,104,56
3,71,104,44
3,74,86,96
3,72,94,8
3,71,94,140
3,67,115,8
3,67,115,228
3,64,104,0
3,67,115,116
3,69,115,12
3,62,104,720
3,71,115,60
3,71,94,48
3,71,104,52
3,71,86,44
3,74,115,100
3,72,94,4
3,71,104,12
3,62,104,1044
3,71,104,60
3,72,79,240
3,74,127,244
3,72,73,16
3,71,115,24
3,67,115,16
3,67,115,200
3,62,115,1000
3,71,104,56
3,72,115,8
3,74,127,256
3,72,94,24
3,71,115,12
3,67,115,24
3,67,115,172
3,62,104,196
3,64,79,16
3,62,94,32
3,64,94,8
3,62,94,272
3,71,127,84
3,72,104,252
3,74,127,260
3,72,104,240
3,71,104,40
3,67,115,0
3,62,115,128
3,67,115,200
3,67,104,112
3,69,94,4
3,67,94,252
3,70,115,336
3,72,127,44
3,74,127,128
3,74,127,232
3,72,115,216
3,70,115,116
3,74,127,236
3,74,127,236
3,72,127,228
3,70,104,40
3,74,127,220
3,74,127,252
3,72,127,228
3,70,127,228
3,72,94,132
3,74,127,16
3,72,104,88
3,74,127,8
3,72,127,112
3,70,115,92
3,72,104,108
3,74,104,28
3,74,36,20
3,70,115,32
3,67,115,20
3,70,104,116
3,72,104,56
3,70,115,40
3,74,127,184
3,72,104,16
3,74,115,12
3,70,104,272
3,75,104,96
3,74,115,152
3,72,63,12
3,74,115,16
3,77,127,192
3,76,115,264
3,74,104,40
3,74,127,184
3,76,115,0
3,74,104,0
3,71,115,88
3,67,104,632
3,71,104,60
3,71,94,44
3,71,115,56
3,74,104,16
3,72,115,108
3,71,127,96
3,67,115,16
3,67,104,244
3,64,115,20
3,67,115,136
3,69,104,12
3,67,94,136
3,64,115,28
3,64,94,680
3,71,104,84
3,71,94,44
3,71,104,56
3,71,94,40
3,74,104,84
3,72,104,116
3,71,115,4
3,64,94,1296
3,71,115,72
3,72,104,0
3,74,127,240
3,72,94,12
3,71,104,12
3,67,115,8
3,67,115,180
3,62,86,1064
3,71,115,72
3,72,104,224
3,74,115,264
3,72,104,8
3,71,104,4
3,67,104,20
3,69,127,140
3,76,115,2640
3,77,104,28
3,76,127,124
3,74,115,144
3,71,115,16
3,74,115,32
3,74,115,148
3,76,127,0
3,71,115,3348
3,74,115,52
3,74,127,204
3,76,115,20
3,74,94,252
3,76,86,16
3,74,115,124
3,71,104,28
3,71,115,1604
3,74,115,44
3,74,115,220
3,76,115,28
3,71,104,1816
3,74,115,16
3,76,115,252
3,74,86,0
3,74,104,356
3,76,104,60
3,74,94,108
3,71,104,20
4,50,104,15992
4,59,94,48
4,60,104,220
4,62,115,192
4,60,104,240
4,59,104,172
4,55,115,68
4,50,115,132
4,55,104,192
4,55,127,172
4,60,127,1088
4,62,127,200
4,62,127,136
4,60,127,128
4,58,115,220
4,60,104,144
4,62,104,36
4,60,104,92
4,62,115,20
4,60,127,88
4,58,104,88
4,60,104,164
4,62,127,8
4,60,104,292
4,62,115,20
4,60,115,216
4,58,104,16
4,62,127,188
4,62,127,252
4,60,73,8
4,60,127,108
4,58,104,28
4,62,115,100
4,60,94,16
4,62,115,0
4,62,115,172
4,60,104,108
4,58,104,120
4,60,115,32
4,55,115,104
4,63,104,64
4,62,127,176
4,60,115,8
4,62,104,24
4,55,104,1444
4,59,115,76
4,59,104,48
4,59,104,52
4,59,104,48
4,62,115,72
4,60,115,104
4,59,115,8
4,55,104,0
4,55,115,220
4,52,115,164
4,55,115,104
4,57,115,0
4,50,104,724
4,59,115,64
4,59,104,48
4,59,94,48
4,59,104,56
4,62,127,96
4,60,104,124
4,59,127,24
4,55,104,1048
4,59,115,48
4,60,115,244
4,62,127,228
4,60,94,12
4,59,127,4
4,55,104,40
4,55,127,152
4,50,104,1016
4,59,115,52
4,60,127,0
4,62,79,12
4,62,127,228
4,60,104,0
4,59,115,8
4,55,104,28
4,55,127,172
4,50,104,936
4,59,115,48
4,60,115,248
4,62,127,152
4,60,115,172
4,59,104,148
4,55,115,44
4,50,115,100
4,55,115,172
4,55,127,204
4,60,127,1052
4,62,127,228
4,62,127,212
4,60,127,128
4,58,104,32
4,60,94,96
4,62,127,12
4,60,104,184
4,62,127,8
4,60,127,112
4,58,104,28
4,62,127,124
4,60,94,0
4,60,115,120
4,62,127,0
4,60,127,128
4,58,104,20
4,62,127,148
4,60,59,20
4,60,104,132
4,62,104,12
4,60,127,172
4,58,115,220
4,62,127,140
4,60,94,12
4,62,115,0
4,58,104,524
4,63,115,68
4,62,127,188
4,60,115,132
4,62,115,8
4,50,115,1392
4,59,115,68
4,59,104,44
4,59,94,44
4,59,104,52
4,62,104,88
4,60,115,108
4,59,115,8
4,55,104,16
4,55,115,228
4,52,104,12
4,55,86,136
4,57,106,128
4,50,127,788
4,59,115,52
4,59,104,44
4,59,115,60
4,59,104,52
4,62,115,112
4,60,104,0
4,59,127,20
4,50,104,1188
4,59,115,56
4,60,104,228
4,62,127,212
4,60,94,12
4,59,127,12
4,55,104,36
4,55,115,160
4,50,115,1120
4,59,115,56
4,60,94,100
4,60,59,56
4,62,127,124
4,60,104,120
4,59,115,12
4,55,104,24
4,55,115,184
4,50,104,1120
4,59,115,40
4,60,104,20
4,62,115,160
4,60,127,208
4,59,115,164
4,55,115,28
4,50,104,100
4,55,127,196
4,55,127,164
4,57,104,20
4,55,104,260
4,58,104,392
4,60,127,36
4,62,127,136
4,62,127,196
4,60,127,244
4,58,115,108
4,62,127,256
4,60,104,160
4,62,115,12
4,60,127,144
4,58,104,32
4,62,127,212
4,60,104,172
4,62,115,20
4,60,127,196
4,58,104,148
4,61,30,168
4,60,104,120
4,62,127,16
4,60,104,68
4,62,115,20
4,60,127,216
4,58,115,132
4,60,104,152
4,62,127,20
4,58,115,4
4,58,104,80
4,55,104,20
4,58,104,112
4,60,115,76
4,58,104,52
4,59,86,144
4,60,79,12
4,62,127,8
4,60,104,36
4,62,63,12
4,58,104,72
4,63,115,100
4,62,127,120
4,60,94,140
4,62,94,12
4,65,115,176
4,64,127,348
4,62,104,12
4,62,127,180
4,64,115,0
4,62,115,224
4,59,115,16
4,55,104,552
4,59,115,52
4,59,94,40
4,59,104,56
4,59,104,48
4,62,115,44
4,60,127,100
4,59,127,4
4,55,115,16
4,55,127,172
4,52,94,4
4,55,104,96
4,57,104,0
4,55,94,44
4,52,115,4
4,52,104,668
4,59,127,76
4,59,104,44
4,59,104,52
4,62,104,132
4,60,104,12
4,59,127,28
4,55,55,236
4,55,115,136
4,57,73,12
4,55,104,28
4,52,94,136
4,55,104,56
4,52,86,304
4,59,127,80
4,60,115,0
4,59,41,80
4,62,115,188
4,60,115,104
4,59,115,16
4,55,104,20
4,55,115,168
4,50,94,1020
4,59,115,56
4,60,115,0
4,62,127,248
4,60,115,0
4,59,115,20
4,55,115,20
4,57,104,136
4,64,104,2576
4,65,127,4
4,64,127,152
4,62,127,72
4,59,115,24
4,62,127,36
4,62,127,160
4,64,115,0
4,59,127,3380
4,62,127,64
4,62,94,156
4,64,127,16
4,62,104,16
4,64,115,8
4,62,115,24
4,59,115,20
4,59,115,1576
4,62,115,52
4,62,127,208
4,64,104,4
4,59,115,1412
4,62,127,28
4,62,86,100
4,64,115,32
4,62,104,280
4,64,104,0
4,62,104,116
4,59,104,24
5,62,127,33808
5,54,125,4
5,55,104,0
5,64,115,0
5,59,120,1192
5,66,120,4
5,67,115,8
5,60,127,4
5,60,127,468
5,67,127,16
5,62,127,36
5,69,127,12
5,69,127,184
5,60,115,0
5,62,125,116
5,71,127,0
5,67,127,1032
5,62,127,8
5,62,127,16
5,59,127,24
5,64,115,84
5,60,127,24
5,59,115,0
5,62,115,4
5,59,115,4
5,55,127,16
5,62,127,20
5,59,127,28
5,60,115,4
5,64,127,4
5,62,127,20380
5,54,125,4
5,55,104,0
5,64,115,0
5,59,120,1192
5,66,120,4
5,67,115,8
5,60,127,4
5,60,127,468
5,67,127,16
5,62,127,36
5,69,127,12
5,69,127,184
5,60,115,0
5,62,125,116
5,71,127,0
5,67,127,1032
5,62,127,8
5,62,127,16
5,59,127,24
5,64,115,84
5,60,127,24
5,59,115,0
5,62,115,4
5,59,115,4
5,55,127,16
5,62,127,20
5,59,127,28
5,60,115,4
5,64,127,4
5,62,127,20380
5,54,125,4
5,55,104,0
5,64,115,0
5,59,120,1192
5,66,120,4
5,67,115,8
5,60,127,4
5,60,127,468
5,67,127,16
5,62,127,36
5,69,127,12
5,69,127,184
5,60,115,0
5,62,125,116
5,71,127,0
5,67,127,1032
5,62,127,8
5,62,127,16
5,59,127,24
5,64,115,84
5,60,127,24
5,59,115,0
5,62,115,4
5,59,115,4
5,55,127,16
5,62,127,20
5,59,127,28
5,60,115,4
5,64,127,4
5,59,127,5004
5,62,127,16
5,54,125,4
5,55,104,0
5,60,115,0
5,64,115,0
5,59,120,1160
5,62,127,4
5,66,120,0
5,67,115,8
5,60,127,4
5,64,104,4
5,64,127,460
5,60,127,8
5,67,127,16
5,62,127,28
5,69,127,12
5,66,115,4
5,67,115,176
5,69,127,8
5,60,115,0
5,62,125,12
5,66,104,16
5,71,127,0
5,67,127,924
5,62,127,8
5,59,127,24
5,62,127,16
5,59,127,24
5,55,115,0
5,64,115,84
5,60,127,24
5,57,115,0
5,59,115,0
5,62,115,4
5,55,104,0
5,59,115,4
5,52,115,8
5,55,127,8
5,55,127,12
5,62,127,8
5,59,127,28
5,60,115,4
5,64,127,4
5,57,104,0
6,55,104,16
6,62,94,0
6,59,86,0
6,66,73,4
6,59,73,52
6,66,73,20
6,55,94,0
6,62,94,0
6,55,94,96
6,62,94,36
6,59,86,0
6,66,68,4
6,55,79,8
6,55,104,84
6,59,86,40
6,62,94,0
6,66,68,12
6,55,68,0
6,64,86,96
6,55,94,8
6,60,94,0
6,59,86,0
6,55,63,0
6,55,104,148
6,64,94,0
6,60,104,0
6,59,104,0
6,55,86,100
6,64,94,0
6,60,94,0
6,59,86,0
6,55,73,28
6,55,94,20
6,60,94,0
6,64,86,0
6,59,94,0
6,55,79,20
6,55,79,36
6,59,94,48
6,62,94,4
6,66,79,16
6,55,94,4
6,55,86,36
6,62,94,48
6,59,94,8
6,55,86,20
6,66,79,0
6,55,86,60
6,62,94,4
6,59,94,8
6,55,51,8
6,66,73,0
6,55,86,72
6,59,79,0
6,62,104,0
6,66,73,12
6,55,79,0
6,64,94,20
6,59,94,4
6,60,104,0
6,55,94,8
6,55,68,28
6,64,94,88
6,59,104,0
6,60,104,0
6,55,104,8
6,60,104,100
6,59,94,0
6,64,94,0
6,55,104,4
6,55,68,36
6,60,94,48
6,64,86,8
6,59,86,0
6,55,104,4
6,55,94,32
6,59,55,16
6,60,47,0
6,55,104,0
6,59,86,20
6,62,104,4
6,66,79,16
6,55,94,0
6,55,86,64
6,62,94,12
6,59,94,8
6,66,79,4
6,55,86,0
6,55,86,80
6,62,104,8
6,59,94,4
6,55,86,24
6,66,79,0
6,55,94,64
6,62,104,32
6,59,94,4
6,66,73,12
6,55,79,0
6,64,86,28
6,59,86,4
6,60,94,0
6,55,94,4
6,55,68,32
6,59,86,72
6,64,94,0
6,60,104,0
6,55,104,12
6,59,94,72
6,60,94,4
6,64,86,4
6,55,104,8
6,60,104,72
6,55,94,12
6,64,86,0
6,59,86,0
6,55,94,4
6,60,86,0
6,59,86,0
6,61,79,36
6,59,86,8
6,55,104,8
6,62,104,4
6,66,79,8
6,55,86,72
6,62,94,44
6,66,79,8
6,59,94,0
6,55,94,24
6,55,94,72
6,62,94,44
6,55,86,20
6,66,86,0
6,59,94,0
6,55,86,48
6,62,86,32
6,66,73,12
6,59,94,0
6,55,94,0
6,59,86,72
6,64,94,0
6,55,79,12
6,60,86,0
6,55,73,36
6,59,104,64
6,60,104,0
6,64,86,0
6,55,104,4
6,55,79,32
6,60,104,72
6,64,104,4
6,59,86,0
6,55,104,4
6,55,73,56
6,59,55,12
6,64,104,36
6,55,115,8
6,60,104,0
6,59,94,0
6,62,51,16
6,66,104,216
6,57,104,0
6,62,104,0
6,57,115,140
6,62,104,0
6,66,104,0
6,67,104,136
6,59,115,0
6,64,104,0
6,59,115,128
6,64,115,0
6,67,115,0
6,65,115,168
6,60,127,0
6,69,115,0
6,60,115,112
6,65,104,0
6,69,104,0
6,67,104,164
6,59,115,0
6,64,115,0
6,59,115,188
6,64,115,0
6,67,115,0
6,67,104,164
6,62,127,0
6,43,86,0
6,55,104,0
6,59,115,0
6,53,94,64
6,41,94,0
6,57,104,0
6,62,94,0
6,65,94,0
6,60,104,0
6,65,127,68
6,69,115,0
6,46,63,0
6,53,104,0
6,58,86,0
6,50,94,0
6,62,127,32
6,65,115,24
6,69,115,0
6,62,127,24
6,65,104,4
6,69,104,0
6,62,127,4
6,69,115,24
6,65,115,0
6,62,127,8
6,63,115,40
6,67,104,0
6,56,41,0
6,55,94,0
6,51,79,0
6,58,63,0
6,62,115,16
6,63,115,28
6,67,104,0
6,62,115,12
6,63,115,4
6,67,94,0
6,62,115,12
6,62,63,8
6,63,115,0
6,67,94,0
6,46,63,64
6,50,94,0
6,53,94,0
6,58,86,0
6,62,127,0
6,65,115,0
6,69,127,0
6,50,38,4
6,62,86,0
6,62,79,4
6,69,104,0
6,65,104,0
6,58,94,0
6,46,63,12
6,62,104,0
6,53,104,40
6,69,115,0
6,65,115,0
6,62,127,8
6,58,104,4
6,62,59,0
6,65,115,0
6,69,94,0
6,55,94,168
6,54,68,0
6,58,68,0
6,51,68,0
6,62,115,0
6,70,104,0
6,67,94,0
6,62,86,36
6,58,104,72
6,62,104,0
6,70,115,0
6,67,115,0
6,51,44,104
6,62,104,0
6,51,79,44
6,62,115,0
6,70,115,0
6,67,115,0
6,54,34,12
6,55,79,0
6,62,94,0
6,62,104,40
6,58,104,0
6,67,104,0
6,70,115,0
6,58,104,160
6,62,127,0
6,69,115,0
6,46,73,0
6,65,115,0
6,62,94,0
6,65,115,24
6,58,104,0
6,69,115,0
6,62,104,0
6,46,79,16
6,62,115,0
6,62,68,56
6,65,115,0
