track,note,velocity,time
0,57,108,154
0,60,109,0
0,64,110,0
0,60,109,0
0,98,43,0
0,33,123,1
0,45,119,0
0,55,108,0
0,103,67,5
0,55,106,2
0,57,104,0
0,60,102,0
0,62,103,0
0,33,118,1
0,45,118,0
0,79,95,5
0,55,110,6
0,57,105,0
0,60,100,0
0,62,105,1
0,55,102,12
0,57,90,0
0,60,89,0
0,62,93,0
0,45,119,5
0,33,123,1
0,103,62,0
0,54,112,8
0,57,93,0
0,60,97,0
0,64,98,0
0,26,124,1
0,38,127,0
0,98,57,7
0,54,115,2
0,57,95,1
0,60,93,0
0,62,103,0
0,26,121,1
0,38,120,0
0,26,118,2
0,38,119,0
0,54,117,0
0,57,95,0
0,60,91,0
0,62,102,0
0,54,108,2
0,57,82,0
0,60,74,1
0,62,90,0
0,26,124,2
0,38,123,0
0,103,82,20
0,53,110,2
0,57,105,0
0,60,105,0
0,64,104,0
0,31,113,3
0,43,120,0
0,53,106,3
0,57,102,0
0,60,102,0
0,62,104,0
0,43,115,1
0,31,120,1
0,102,57,2
0,31,115,1
0,43,116,0
0,53,111,0
0,57,102,0
0,60,99,0
0,62,103,0
0,103,69,0
0,53,97,5
0,57,81,0
0,60,80,0
0,62,94,0
0,31,120,2
0,43,120,0
0,55,109,7
0,60,104,0
0,64,109,0
0,48,113,2
0,36,119,1
0,98,56,0
0,48,113,5
0,55,106,0
0,60,105,0
0,64,104,1
0,36,119,1
0,105,72,2
0,50,109,4
0,48,110,1
0,45,94,0
0,36,114,1
0,55,108,0
0,60,108,0
0,64,108,0
0,45,94,0
0,55,98,1
0,60,97,0
0,64,104,0
0,55,109,0
0,45,94,1
0,48,113,1
0,45,110,0
0,36,119,1
0,57,109,0
0,55,111,1
0,57,104,0
0,60,110,0
0,64,108,0
0,55,109,1
0,35,104,1
0,33,119,1
0,45,120,0
0,57,109,0
0,35,104,8
0,55,108,4
0,57,103,0
0,60,103,0
0,62,103,0
0,38,127,0
0,44,70,0
0,33,119,1
0,45,123,0
0,67,103,0
0,55,103,1
0,60,103,0
0,62,104,0
0,35,104,3
0,55,109,3
0,57,103,0
0,60,103,0
0,62,104,0
0,35,104,0
0,33,114,1
0,45,118,1
0,55,95,1
0,57,84,0
0,60,82,0
0,62,90,0
0,35,104,0
0,45,109,1
0,38,127,2
0,44,70,0
0,33,123,1
0,45,124,0
0,52,125,0
0,55,103,0
0,60,104,0
0,62,104,0
0,67,103,0
0,54,114,3
0,60,102,0
0,64,102,0
0,35,104,0
0,57,94,1
0,26,124,8
0,38,125,0
0,105,57,11
0,54,115,2
0,57,91,0
0,62,100,0
0,38,124,1
0,60,91,0
0,38,120,0
0,44,99,0
0,26,125,1
0,60,104,0
0,54,103,1
0,62,103,0
0,35,104,2
0,54,116,1
0,38,119,1
0,57,92,0
0,60,92,0
0,62,102,0
0,35,104,0
0,26,123,1
0,54,98,1
0,57,82,1
0,60,82,0
0,62,82,0
0,35,104,0
0,38,123,5
0,38,120,0
0,44,92,0
0,26,127,1
0,60,104,0
0,54,103,1
0,62,104,0
0,53,110,1
0,64,105,0
0,52,109,0
0,35,104,0
0,57,103,1
0,60,99,0
0,53,109,1
0,55,110,2
0,31,123,1
0,43,124,0
0,35,104,1
0,53,110,5
0,57,104,0
0,60,104,0
0,62,105,0
0,38,127,0
0,44,92,0
0,31,120,1
0,43,119,0
0,60,104,0
0,53,103,1
0,57,107,0
0,62,103,0
0,35,104,8
0,50,109,14
0,53,113,3
0,57,104,0
0,60,103,0
0,62,106,0
0,51,107,0
0,35,104,0
0,31,120,1
0,43,118,0
0,52,115,1
0,57,86,7
0,35,104,0
0,53,95,1
0,60,79,0
0,62,89,0
0,55,115,1
0,51,92,2
0,38,127,1
0,44,87,0
0,31,123,1
0,43,124,0
0,53,103,0
0,57,104,0
0,60,107,0
0,62,104,0
0,50,101,2
0,55,105,5
0,60,106,0
0,64,104,0
0,35,104,0
0,48,104,0
0,48,114,8
0,36,121,1
0,48,113,26
0,55,109,0
0,60,106,0
0,64,106,0
0,38,127,0
0,44,89,0
0,36,116,1
0,64,103,0
0,55,103,1
0,60,114,0
0,35,104,8
0,50,109,20
0,48,109,3
0,55,105,0
0,60,104,0
0,64,106,0
0,35,104,0
0,36,114,1
0,52,109,0
0,55,109,6
0,55,99,1
0,60,95,0
0,64,104,0
0,35,104,0
0,48,111,3
0,35,104,0
0,38,127,0
0,44,85,0
0,36,120,1
0,57,109,0
0,55,103,0
0,60,107,0
0,64,103,0
0,55,106,3
0,57,103,0
0,60,108,0
0,64,106,0
0,35,104,0
0,55,109,1
0,67,105,1
0,67,100,1
0,67,98,0
0,67,84,0
0,35,104,0
0,67,84,0
0,33,119,1
0,45,120,0
0,57,109,0
0,35,104,18
0,55,108,35
0,57,103,0
0,60,103,0
0,62,103,0
0,38,127,0
0,44,88,0
0,33,119,1
0,45,123,0
0,55,107,0
0,60,107,0
0,62,120,0
0,67,103,0
0,45,125,18
0,35,104,0
0,55,109,20
0,57,103,0
0,60,103,0
0,62,104,0
0,35,104,0
0,33,114,1
0,45,109,0
0,45,118,1
0,55,95,1
0,57,84,0
0,60,82,0
0,62,90,0
0,35,104,0
0,45,109,1
0,38,120,2
0,44,87,0
0,33,123,1
0,45,124,0
0,52,113,0
0,55,107,0
0,60,114,0
0,62,120,0
0,67,103,0
0,66,109,3
0,54,114,1
0,60,102,0
0,64,102,0
0,66,104,0
0,35,104,0
0,57,94,1
0,66,103,1
0,66,103,0
0,66,105,1
0,26,124,19
0,38,125,0
0,38,110,1
0,54,115,13
0,57,91,0
0,62,100,0
0,38,124,1
0,60,91,0
0,38,126,0
0,38,127,0
0,44,88,0
0,26,125,1
0,54,103,0
0,60,114,0
0,62,103,0
0,35,104,18
0,54,116,22
0,38,119,1
0,57,92,0
0,60,92,0
0,62,102,0
0,35,104,0
0,26,123,1
0,50,109,0
0,54,98,2
0,57,82,1
0,60,82,0
0,62,82,0
0,52,110,0
0,35,104,0
0,38,123,3
0,35,104,0
0,38,114,0
0,44,88,0
0,26,127,1
0,55,110,0
0,54,103,0
0,60,104,0
0,62,103,0
0,65,111,2
0,53,110,1
0,64,105,0
0,65,106,0
0,65,103,0
0,35,104,0
0,65,103,0
0,57,103,1
0,60,99,0
0,52,110,0
0,65,97,3
0,31,123,4
0,43,124,0
0,55,111,0
0,53,110,40
0,57,104,0
0,60,104,0
0,62,105,0
0,38,127,0
0,44,85,0
0,31,120,1
0,43,119,0
0,53,103,0
0,57,103,0
0,60,104,0
0,62,107,0
0,50,109,2
0,53,113,1
0,57,104,0
0,60,103,0
0,62,106,0
0,35,104,0
0,31,120,1
0,43,118,0
0,55,117,0
0,57,86,7
0,35,104,0
0,53,95,1
0,60,79,0
0,62,89,0
0,52,114,0
0,38,114,0
0,44,90,0
0,31,123,1
0,43,124,0
0,48,109,0
0,53,103,0
0,57,103,0
0,60,103,0
0,62,103,0
0,64,121,2
0,64,104,0
0,64,104,0
0,55,105,1
0,60,106,0
0,64,104,0
0,64,116,0
0,38,125,0
0,55,100,0
0,48,115,1
0,64,101,1
0,48,114,26
0,35,104,0
0,44,74,0
0,36,121,1
0,35,104,47
0,48,113,38
0,55,109,0
0,60,106,0
0,64,106,0
0,45,104,0
0,36,116,1
0,55,103,0
0,60,114,0
0,64,103,0
0,38,60,23
0,40,109,2
0,40,109,0
0,64,121,2
0,48,109,1
0,55,105,0
0,60,104,0
0,64,106,0
0,47,111,0
0,64,116,0
0,64,107,0
0,64,108,0
0,40,115,0
0,64,108,0
0,36,114,1
0,65,121,3
0,65,100,0
0,55,99,1
0,60,95,0
0,64,104,0
0,65,116,0
0,40,112,0
0,47,118,1
0,65,98,1
0,65,98,0
0,66,114,1
0,66,121,1
0,48,111,1
0,66,116,0
0,66,115,0
0,35,104,0
0,45,104,0
0,66,115,0
0,36,120,1
0,46,108,0
0,55,103,0
0,60,114,0
0,64,103,0
0,67,121,1
0,55,106,1
0,57,103,0
0,60,108,0
0,64,106,0
0,67,116,0
0,45,100,0
0,67,112,1
0,67,105,0
0,67,105,0
0,86,121,3
0,33,126,0
0,35,104,0
0,49,99,0
0,33,119,1
0,45,120,0
0,87,127,3
0,88,115,5
0,35,104,23
0,89,125,7
0,55,108,4
0,57,103,0
0,60,103,0
0,62,103,0
0,38,120,0
0,42,82,0
0,33,119,1
0,45,123,0
0,55,107,0
0,60,104,0
0,62,107,0
0,67,103,0
0,86,115,32
0,87,127,1
0,35,104,0
0,88,112,1
0,55,109,28
0,57,103,0
0,60,103,0
0,62,104,0
0,33,124,0
0,35,104,0
0,42,79,0
0,33,114,1
0,45,118,1
0,55,95,8
0,57,84,0
0,60,82,0
0,62,90,0
0,33,101,0
0,35,104,0
0,76,111,0
0,72,103,1
0,38,127,0
0,42,74,0
0,33,123,1
0,45,124,0
0,55,107,0
0,60,104,0
0,62,114,0
0,67,103,0
0,76,112,0
0,76,112,0
0,72,122,0
0,76,117,0
0,54,114,4
0,60,102,0
0,64,102,0
0,40,126,0
0,35,104,0
0,57,94,1
0,66,111,13
0,72,104,2
0,66,102,5
0,72,97,1
0,72,101,2
0,72,101,0
0,86,125,4
0,38,124,4
0,35,104,0
0,42,79,0
0,26,124,1
0,38,125,0
0,87,127,5
0,88,117,3
0,86,127,4
0,86,127,21
0,54,115,1
0,57,91,0
0,62,100,0
0,38,124,1
0,60,91,0
0,38,127,0
0,42,82,0
0,26,125,1
0,54,103,0
0,60,104,0
0,62,103,0
0,86,117,31
0,87,127,0
0,35,104,0
0,88,107,6
0,54,116,19
0,38,119,1
0,57,92,0
0,60,92,0
0,62,102,0
0,38,124,0
0,35,104,0
0,42,79,0
0,26,123,1
0,54,98,7
0,57,82,1
0,60,82,0
0,62,82,0
0,38,105,0
0,35,104,0
0,72,105,0
0,76,112,0
0,72,127,2
0,38,123,1
0,40,118,0
0,76,122,0
0,76,111,0
0,38,127,0
0,42,82,0
0,76,111,0
0,26,127,1
0,54,103,0
0,60,107,0
0,62,107,0
0,53,110,8
0,64,105,0
0,43,124,0
0,35,104,0
0,57,103,1
0,60,99,0
0,65,96,6
0,72,104,2
0,65,97,3
0,72,92,1
0,72,105,1
0,72,105,0
0,86,115,2
0,35,104,10
0,42,82,0
0,31,123,1
0,43,124,0
0,87,119,2
0,88,127,4
0,86,125,0
0,86,121,21
0,53,110,2
0,57,104,0
0,60,104,0
0,62,105,0
0,38,127,0
0,42,82,0
0,31,120,1
0,43,119,0
0,60,107,0
0,53,103,1
0,57,107,0
0,62,104,0
0,86,119,2
0,35,104,0
0,87,127,23
0,86,110,7
0,53,113,3
0,57,104,0
0,60,103,0
0,62,106,0
0,31,109,0
0,35,104,0
0,42,79,0
0,31,120,1
0,43,118,0
0,57,86,7
0,35,104,0
0,53,95,1
0,60,79,0
0,62,89,0
0,84,115,1
0,72,105,2
0,38,120,0
0,42,82,0
0,31,123,1
0,43,124,0
0,57,104,0
0,60,107,0
0,62,104,0
0,64,105,0
0,72,108,0
0,72,108,0
0,53,103,1
0,64,115,0
0,72,110,0
0,84,127,18
0,55,105,1
0,60,106,0
0,64,104,0
0,38,124,0
0,35,104,0
0,72,103,12
0,64,121,8
0,64,104,0
0,72,88,1
0,72,103,4
0,72,103,0
0,48,114,8
0,36,118,0
0,38,109,0
0,42,79,0
0,36,121,1
0,48,113,27
0,55,109,0
0,60,106,0
0,64,106,0
0,35,104,0
0,38,127,0
0,42,82,0
0,36,116,1
0,55,103,0
0,60,114,0
0,64,103,0
0,35,104,36
0,64,125,35
0,48,109,1
0,55,105,0
0,60,104,0
0,64,106,0
0,36,124,0
0,42,89,0
0,36,114,1
0,64,105,1
0,64,105,0
0,64,120,1
0,64,110,2
0,55,99,6
0,60,95,0
0,64,104,0
0,36,112,0
0,65,113,0
0,65,98,0
0,65,98,0
0,65,108,1
0,65,94,1
0,48,111,1
0,66,127,0
0,35,104,0
0,38,127,0
0,42,89,0
0,36,120,1
0,55,103,0
0,60,114,1
0,64,103,0
0,66,112,0
0,66,112,0
0,66,111,1
0,66,124,1
0,38,126,11
0,86,125,3
0,55,106,1
0,57,103,0
0,60,108,0
0,64,106,0
0,43,124,0
0,38,97,0
0,67,120,1
0,67,107,0
0,67,107,0
0,87,127,1
0,67,115,0
0,67,104,3
0,88,103,2
0,44,115,2
0,45,112,2
0,55,97,0
0,33,119,1
0,45,120,0
0,55,108,33
0,57,103,0
0,60,103,0
0,62,103,0
0,89,119,0
0,38,127,0
0,42,82,0
0,33,119,1
0,45,123,0
0,55,107,0
0,60,104,0
0,62,107,0
0,67,103,0
0,86,109,28
0,35,104,1
0,87,125,0
0,88,110,2
0,55,109,34
0,57,103,0
0,60,103,0
0,62,104,0
0,35,104,0
0,42,82,0
0,33,114,1
0,45,118,1
0,55,95,12
0,57,84,0
0,60,82,0
0,62,90,0
0,35,104,0
0,72,125,0
0,76,120,1
0,76,114,0
0,72,108,0
0,38,127,0
0,42,82,0
0,33,123,1
0,45,124,0
0,55,107,0
0,60,104,0
0,62,114,0
0,67,103,0
0,76,112,0
0,76,112,0
0,54,114,4
0,60,102,0
0,64,102,0
0,40,124,0
0,57,94,1
0,72,104,8
0,66,107,4
0,66,107,0
0,72,102,1
0,72,110,7
0,72,110,0
0,86,89,2
0,87,117,3
0,38,118,1
0,42,89,0
0,26,124,1
0,38,125,0
0,88,107,3
0,86,119,5
0,86,125,31
0,54,115,3
0,57,91,0
0,62,100,0
0,38,124,1
0,60,91,0
0,35,104,0
0,38,127,0
0,42,82,0
0,26,125,1
0,54,104,0
0,60,114,0
0,62,104,0
0,86,121,14
0,33,112,0
0,35,104,0
0,87,101,0
0,88,115,9
0,54,116,11
0,38,119,1
0,57,92,0
0,60,92,0
0,62,102,0
0,38,126,0
0,42,89,0
0,26,123,1
0,54,98,3
0,57,82,1
0,60,82,0
0,62,82,0
0,38,110,0
0,72,105,1
0,76,114,0
0,38,123,1
0,76,114,0
0,35,104,0
0,38,127,0
0,42,82,0
0,76,114,0
0,26,127,1
0,60,114,0
0,72,123,0
0,54,103,1
0,62,104,0
0,76,118,0
0,53,110,1
0,64,105,0
0,40,118,0
0,35,104,0
0,57,103,1
0,60,99,0
0,41,113,4
0,65,107,4
0,72,101,1
0,65,106,2
0,72,101,1
0,72,105,2
0,72,105,0
0,86,123,3
0,43,124,1
0,42,95,0
0,31,123,1
0,43,124,0
0,88,113,12
0,86,119,3
0,53,110,29
0,57,104,0
0,60,104,0
0,62,105,0
0,38,127,0
0,42,82,0
0,31,120,1
0,43,119,0
0,53,103,0
0,57,103,0
0,60,120,0
0,62,107,0
0,86,112,2
0,43,118,0
0,86,119,0
0,35,104,0
0,87,127,13
0,53,113,3
0,57,104,0
0,60,103,0
0,62,106,0
0,31,117,0
0,35,104,0
0,42,95,0
0,31,120,1
0,43,118,0
0,86,119,2
0,57,86,7
0,35,104,0
0,53,95,1
0,60,79,0
0,62,89,0
0,72,108,0
0,84,123,1
0,64,107,0
0,38,120,0
0,42,82,0
0,31,123,1
0,43,124,0
0,57,107,0
0,60,114,0
0,62,114,0
0,64,120,0
0,72,105,0
0,72,105,0
0,53,103,1
0,72,115,0
0,84,127,13
0,55,105,1
0,60,106,0
0,64,104,0
0,38,120,0
0,72,100,15
0,64,106,1
0,72,101,1
0,64,104,2
0,72,105,2
0,72,105,0
0,48,114,10
0,36,118,0
0,42,82,0
0,36,121,1
0,35,104,0
0,48,113,4
0,55,109,0
0,60,106,0
0,64,106,0
0,38,127,0
0,42,95,0
0,36,116,1
0,55,103,0
0,60,114,0
0,64,103,0
0,36,118,47
0,48,109,12
0,55,105,0
0,60,104,0
0,64,106,0
0,36,124,0
0,35,104,0
0,42,82,0
0,36,114,1
0,48,105,15
0,55,99,0
0,60,103,0
0,64,99,0
0,35,104,0
0,36,116,1
0,35,104,31
0,38,127,0
0,42,95,0
0,60,107,1
0,55,103,1
0,64,103,0
0,35,104,3
