track,note,velocity,time
0,35,100,1536
0,59,88,0
0,63,88,0
0,54,86,0
0,63,75,4
0,59,75,0
0,63,75,72
0,59,75,0
0,35,100,8
0,63,79,0
0,59,74,0
0,54,79,0
0,35,100,64
0,61,91,0
0,58,82,0
0,54,71,0
0,61,75,0
0,58,75,4
0,35,100,92
0,63,81,0
0,59,82,0
0,54,76,0
0,63,75,8
0,59,75,4
0,35,100,240
0,58,85,0
0,61,80,0
0,54,81,0
0,58,75,8
0,61,75,0
0,35,100,180
0,63,92,0
0,59,88,0
0,54,82,0
0,59,75,4
0,63,75,4
0,35,100,188
0,58,80,0
0,54,70,0
0,61,74,0
0,58,75,4
0,61,75,0
0,59,75,200
0,63,75,4
0,35,100,8
0,63,78,0
0,54,70,0
0,59,73,0
0,63,75,100
0,59,75,0
0,35,100,8
0,59,86,0
0,63,88,0
0,54,85,0
0,54,95,20
0,102,96,0
0,30,100,48
0,35,100,0
0,54,85,0
0,63,85,0
0,59,79,0
0,75,64,0
0,66,64,0
0,71,64,0
0,66,95,4
0,35,100,52
0,59,85,0
0,63,88,0
0,54,87,0
0,71,64,0
0,75,64,0
0,66,64,0
0,35,100,104
0,54,80,0
0,61,78,0
0,58,81,0
0,73,64,0
0,66,64,0
0,70,64,0
0,35,100,108
0,63,90,0
0,54,84,0
0,59,85,0
0,71,64,0
0,75,64,0
0,66,64,0
0,35,100,260
0,58,86,0
0,54,86,0
0,61,83,0
0,70,64,0
0,73,64,0
0,66,64,0
0,35,100,232
0,59,81,0
0,54,76,0
0,63,80,0
0,71,64,0
0,66,64,0
0,75,64,0
0,35,100,112
0,59,95,0
0,54,94,0
0,63,92,0
0,71,64,0
0,66,64,0
0,75,64,0
0,66,87,0
0,30,100,48
0,66,89,0
0,35,100,24
0,47,74,0
0,73,89,0
0,82,68,0
0,35,79,0
0,82,28,152
0,63,72,28
0,54,65,0
0,58,61,0
0,75,89,0
0,82,60,0
0,44,89,0
0,35,100,76
0,47,61,0
0,75,92,0
0,82,27,0
0,35,59,0
0,35,100,12
0,47,68,0
0,82,59,0
0,35,79,0
0,63,72,4
0,54,66,0
0,58,57,0
0,82,22,0
0,82,56,4
0,44,91,0
0,66,77,8
0,35,100,4
0,63,73,0
0,58,60,0
0,54,70,0
0,82,28,0
0,44,100,8
0,44,89,0
0,73,91,0
0,82,57,0
0,35,79,0
0,71,71,0
0,82,26,4
0,73,93,184
0,63,71,0
0,54,56,0
0,59,69,0
0,82,59,0
0,44,89,0
0,44,100,92
0,44,67,0
0,71,76,0
0,82,29,0
0,35,59,0
0,44,100,52
0,44,79,0
0,73,84,0
0,82,55,0
0,35,79,0
0,63,73,4
0,54,63,0
0,59,55,0
0,82,29,0
0,37,100,0
0,71,87,0
0,82,58,0
0,44,96,0
0,38,100,24
0,63,67,0
0,59,66,0
0,54,50,0
0,73,93,0
0,82,29,0
0,39,100,0
0,51,84,0
0,82,62,0
0,35,79,0
0,82,35,152
0,70,67,188
0,61,55,0
0,66,64,0
0,75,86,0
0,82,61,0
0,44,97,0
0,39,100,100
0,51,64,0
0,75,81,0
0,82,29,0
0,35,59,0
0,39,100,52
0,51,79,0
0,82,60,0
0,35,79,0
0,70,58,188
0,61,46,0
0,66,51,0
0,82,29,0
0,82,59,4
0,44,96,0
0,70,59,24
0,61,65,0
0,66,65,0
0,82,16,0
0,39,100,16
0,51,82,0
0,82,58,0
0,35,79,0
0,82,33,12
0,70,75,188
0,61,53,0
0,66,68,0
0,82,62,0
0,44,86,0
0,39,100,80
0,51,69,0
0,82,33,0
0,35,59,0
0,39,100,52
0,51,61,0
0,82,60,0
0,35,79,0
0,39,100,156
0,70,73,0
0,61,45,0
0,66,65,0
0,75,94,0
0,82,28,0
0,82,103,32
0,82,60,0
0,44,92,0
0,39,100,20
0,70,61,0
0,61,56,0
0,66,49,0
0,83,95,0
0,82,38,0
0,44,100,88
0,44,96,0
0,82,68,0
0,35,79,0
0,54,71,8
0,82,98,0
0,82,28,0
0,63,77,124
0,59,79,0
0,82,60,0
0,44,89,0
0,44,100,4
0,80,98,0
0,82,27,0
0,35,59,0
0,37,100,8
0,49,98,0
0,82,59,0
0,35,79,0
0,56,71,40
0,82,22,0
0,61,80,4
0,65,66,0
0,78,88,0
0,82,56,0
0,44,91,0
0,37,100,0
0,80,79,0
0,82,28,0
0,42,100,0
0,42,77,0
0,82,85,0
0,82,57,0
0,35,79,0
0,54,56,8
0,82,26,0
0,73,80,0
0,58,70,152
0,61,73,0
0,82,59,0
0,44,89,0
0,42,100,88
0,75,79,0
0,82,29,0
0,35,59,0
0,35,100,0
0,47,74,0
0,82,55,0
0,35,79,0
0,82,29,0
0,54,81,48
0,63,79,0
0,59,62,0
0,82,58,0
0,44,96,0
0,35,100,8
0,82,29,0
0,35,59,0
0,35,100,12
0,82,62,0
0,35,79,0
0,42,100,36
0,54,74,0
0,61,70,0
0,58,70,0
0,42,71,0
0,82,35,0
0,82,61,20
0,44,97,0
0,35,100,76
0,47,59,0
0,63,71,0
0,59,74,0
0,54,68,0
0,82,29,0
0,35,79,0
0,82,60,28
0,82,29,148
0,82,59,188
0,44,96,0
0,35,80,168
0,82,16,0
0,35,59,0
0,35,82,96
0,82,58,0
0,35,79,0
0,82,33,188
0,66,89,188
0,82,62,0
0,44,86,0
0,30,100,0
0,66,88,0
0,82,33,0
0,35,100,36
0,47,74,0
0,73,91,0
0,58,64,0
0,63,64,0
0,66,64,0
0,82,68,0
0,35,79,0
0,82,28,88
0,75,89,0
0,63,72,4
0,54,65,0
0,58,61,0
0,82,60,0
0,44,89,0
0,35,100,116
0,47,61,0
0,75,85,0
0,82,27,0
0,35,59,0
0,35,100,4
0,47,68,0
0,82,59,0
0,35,79,0
0,63,72,4
0,54,66,0
0,58,57,0
0,82,22,0
0,82,56,36
0,44,91,0
0,35,100,24
0,63,73,0
0,58,60,0
0,54,70,0
0,66,75,0
0,82,28,0
0,44,100,36
0,44,89,0
0,73,95,0
0,59,64,0
0,82,57,0
0,35,79,0
0,71,66,8
0,82,26,0
0,63,71,132
0,54,56,0
0,59,69,0
0,73,82,0
0,82,59,0
0,44,89,0
0,71,75,16
0,44,100,4
0,44,67,0
0,82,29,0
0,35,59,0
0,44,100,52
0,44,79,0
0,73,86,0
0,82,55,0
0,35,79,0
0,63,73,36
0,54,63,0
0,59,55,0
0,82,29,0
0,71,80,28
0,37,100,4
0,82,58,0
0,44,96,0
0,38,100,24
0,63,67,0
0,59,66,0
0,54,50,0
0,73,90,0
0,82,29,0
0,39,100,0
0,51,84,0
0,58,64,0
0,61,64,0
0,82,62,0
0,35,79,0
0,82,35,0
0,70,67,12
0,61,55,0
0,66,64,0
0,78,85,0
0,82,61,0
0,44,97,0
0,39,100,20
0,51,64,0
0,75,80,0
0,82,29,0
0,35,59,0
0,39,100,20
0,51,79,0
0,82,60,0
0,35,79,0
0,70,58,56
0,61,46,0
0,66,51,0
0,82,29,0
0,82,59,28
0,44,96,0
0,70,59,24
0,61,65,0
0,66,65,0
0,82,16,0
0,39,100,72
0,51,82,0
0,82,58,0
0,35,79,0
0,82,33,152
0,70,75,188
0,61,53,0
0,66,68,0
0,82,62,0
0,44,86,0
0,39,100,136
0,51,69,0
0,82,33,0
0,35,59,0
0,39,100,52
0,51,61,0
0,82,60,0
0,35,79,0
0,39,100,156
0,70,73,0
0,61,45,0
0,66,65,0
0,75,89,0
0,82,28,0
0,82,99,48
0,82,60,0
0,44,92,0
0,39,100,12
0,70,61,0
0,61,56,0
0,66,49,0
0,83,99,0
0,82,38,0
0,44,100,52
0,44,96,0
0,59,64,0
0,63,64,0
0,66,64,0
0,82,68,0
0,35,79,0
0,54,71,4
0,82,101,0
0,82,28,0
0,63,77,120
0,59,79,0
0,82,60,0
0,44,89,0
0,44,100,8
0,80,95,0
0,82,27,0
0,35,59,0
0,37,100,4
0,49,98,0
0,65,64,0
0,61,64,0
0,82,59,0
0,35,79,0
0,56,71,8
0,82,22,0
0,61,80,32
0,65,66,0
0,78,92,0
0,82,56,0
0,44,91,0
0,37,100,8
0,80,81,0
0,82,28,0
0,42,100,0
0,42,77,0
0,82,92,0
0,58,64,0
0,66,64,0
0,82,57,0
0,35,79,0
0,54,56,148
0,73,90,0
0,82,26,0
0,58,70,156
0,61,73,0
0,82,59,0
0,44,89,0
0,42,100,96
0,75,87,0
0,82,29,0
0,35,59,0
0,35,100,0
0,47,100,0
0,59,64,0
0,63,64,0
0,82,55,0
0,35,79,0
0,82,29,8
0,63,92,84
0,59,80,0
0,82,58,0
0,44,96,0
0,47,98,8
0,82,29,0
0,35,59,0
0,35,100,40
0,35,100,4
0,47,97,0
0,82,62,0
0,35,79,0
0,35,100,16
0,54,63,0
0,75,102,0
0,82,35,0
0,42,100,20
0,59,94,0
0,63,82,0
0,82,101,0
0,82,61,0
0,44,97,0
0,43,100,4
0,47,78,0
0,54,80,0
0,83,92,0
0,82,29,0
0,44,100,0
0,44,93,0
0,82,60,0
0,35,79,0
0,54,76,16
0,82,100,0
0,82,29,0
0,59,84,52
0,63,84,0
0,82,59,0
0,44,96,0
0,44,100,124
0,44,78,0
0,54,78,0
0,80,89,0
0,82,16,0
0,35,59,0
0,37,100,4
0,49,93,0
0,61,64,0
0,65,64,0
0,82,58,0
0,35,79,0
0,56,73,16
0,82,33,0
0,73,88,12
0,61,87,4
0,65,68,0
0,82,62,0
0,44,86,0
0,73,87,104
0,37,100,4
0,49,71,0
0,56,73,0
0,82,33,0
0,78,98,8
0,42,100,0
0,42,91,0
0,58,64,0
0,66,64,0
0,82,60,0
0,44,86,0
0,35,79,0
0,54,73,8
0,80,85,0
0,82,28,0
0,58,86,4
0,61,77,0
0,82,86,0
0,82,60,0
0,44,92,0
0,42,100,24
0,42,90,0
0,54,78,0
0,82,38,0
0,35,59,0
0,63,75,0
0,59,75,4
0,35,100,0
0,47,84,0
0,80,94,0
0,59,64,0
0,63,64,0
0,82,68,0
0,35,79,0
0,63,75,4
0,54,63,4
0,78,73,0
0,59,75,0
0,82,28,0
0,59,60,20
0,58,75,0
0,82,60,0
0,44,89,0
0,61,75,0
0,35,100,28
0,35,100,36
0,63,92,0
0,59,91,0
0,54,81,0
0,82,27,0
0,35,59,0
0,63,75,12
0,59,75,12
0,35,100,36
0,47,52,0
0,82,59,0
0,35,79,0
0,42,100,8
0,58,81,0
0,61,80,0
0,54,74,0
0,82,22,0
0,61,75,20
0,58,75,0
0,47,59,8
0,82,56,0
0,44,91,0
0,63,86,148
0,59,84,0
0,54,77,0
0,82,28,0
0,63,75,8
0,59,75,8
0,35,100,4
0,47,66,0
0,82,57,0
0,35,79,0
0,63,75,4
0,59,75,4
0,82,26,4
0,54,58,12
0,82,59,0
0,44,89,0
0,42,100,44
0,47,65,0
0,59,78,0
0,82,29,0
0,35,59,0
0,47,100,16
0,47,85,0
0,82,55,0
0,35,79,0
0,42,100,48
0,51,86,0
0,82,29,0
0,35,100,20
0,54,83,0
0,82,58,0
0,44,96,0
0,42,100,124
0,47,57,0
0,59,89,0
0,82,29,0
0,40,100,48
0,40,82,0
0,66,64,0
0,56,64,0
0,62,64,0
0,82,62,0
0,35,79,0
0,56,67,140
0,82,35,0
0,66,76,188
0,62,62,0
0,82,61,0
0,44,97,0
0,40,100,8
0,47,68,0
0,66,78,0
0,56,71,0
0,62,67,0
0,82,29,0
0,35,59,0
0,52,60,4
0,82,60,0
0,56,58,152
0,82,29,0
0,35,100,4
0,66,78,0
0,62,66,0
0,47,56,0
0,76,98,0
0,82,59,0
0,44,96,0
0,28,100,80
0,52,59,0
0,56,74,0
0,81,99,0
0,82,16,0
0,35,64,0
0,28,100,0
0,40,87,0
0,82,58,0
0,35,79,0
0,56,67,140
0,80,93,0
0,82,33,0
0,35,59,0
0,66,66,88
0,62,61,0
0,82,62,0
0,44,86,0
0,47,63,52
0,66,78,0
0,62,69,0
0,78,101,0
0,82,33,0
0,52,60,188
0,82,60,0
0,56,48,0
0,82,28,0
0,35,59,0
0,47,61,28
0,66,67,0
0,62,65,0
0,76,81,0
0,82,60,0
0,44,92,0
0,36,100,4
0,52,58,0
0,56,70,0
0,83,103,0
0,82,38,0
0,40,100,8
0,40,89,0
0,69,64,0
0,60,64,0
0,64,64,0
0,82,68,0
0,35,79,0
0,40,100,8
0,57,57,0
0,82,28,0
0,35,59,0
0,81,94,0
0,64,59,4
0,69,58,0
0,82,60,0
0,44,89,0
0,57,67,8
0,69,65,0
0,47,65,0
0,64,64,0
0,76,93,0
0,82,27,0
0,52,60,24
0,82,59,0
0,57,55,16
0,82,22,0
0,35,59,0
0,78,96,100
0,35,100,4
0,64,64,0
0,47,61,0
0,60,48,0
0,82,56,0
0,44,91,0
0,28,100,8
0,52,65,0
0,57,57,0
0,80,85,0
0,82,28,0
0,78,80,0
0,76,82,56
0,28,100,0
0,40,83,0
0,59,64,0
0,68,64,0
0,82,57,0
0,35,79,0
0,28,100,112
0,56,61,0
0,82,26,0
0,35,59,0
0,68,82,188
0,64,52,0
0,82,59,0
0,44,89,0
0,35,100,80
0,56,68,0
0,68,78,0
0,64,71,0
0,47,62,0
0,82,29,0
0,40,100,0
0,52,69,0
0,82,55,0
0,40,100,20
0,56,60,0
0,82,29,0
0,35,59,0
0,35,100,24
0,56,76,0
0,47,70,0
0,64,70,0
0,82,58,0
0,44,96,0
0,28,100,0
0,56,68,4
0,52,61,0
0,82,29,0
0,44,100,0
0,44,113,0
0,63,64,0
0,66,64,0
0,59,64,0
0,82,62,0
0,35,79,0
0,56,71,120
0,82,35,0
0,35,59,0
0,63,78,188
0,66,59,0
0,59,32,0
0,82,61,0
0,44,97,0
0,39,100,28
0,66,93,0
0,59,84,0
0,51,65,0
0,82,29,0
0,75,68,8
0,44,100,4
0,51,76,0
0,78,105,0
0,82,60,0
0,75,73,4
0,44,100,4
0,56,69,0
0,78,104,0
0,82,29,0
0,35,59,0
0,83,96,16
0,80,72,0
0,32,100,4
0,44,83,0
0,59,71,0
0,63,79,0
0,82,59,0
0,44,96,0
0,39,100,24
0,51,64,0
0,56,73,0
0,80,75,0
0,83,106,0
0,82,16,0
0,40,100,0
0,40,93,0
0,64,64,0
0,68,64,0
0,82,58,0
0,35,79,0
0,56,62,12
0,82,33,0
0,35,59,0
0,85,57,0
0,81,52,0
0,83,77,0
0,80,68,4
0,28,100,4
0,64,70,0
0,59,72,0
0,82,62,0
0,44,86,0
0,29,100,24
0,56,76,0
0,78,68,0
0,82,102,0
0,82,33,0
0,30,100,4
0,42,100,0
0,70,64,0
0,66,64,0
0,61,64,0
0,82,60,0
0,30,100,4
0,58,74,0
0,82,28,0
0,35,59,0
0,76,64,4
0,42,100,4
0,66,74,0
0,61,78,0
0,80,98,0
0,82,60,0
0,44,92,0
0,37,100,104
0,42,77,0
0,58,76,0
0,78,61,0
0,83,96,0
0,82,38,0
0,73,56,8
0,76,84,0
0,75,64,4
0,35,100,4
0,47,95,0
0,78,70,0
0,71,64,0
0,63,64,0
0,82,68,0
0,35,79,0
0,59,65,32
0,82,28,0
0,35,59,0
0,63,73,72
0,82,60,0
0,44,89,0
0,35,100,12
0,47,80,0
0,63,84,0
0,66,85,0
0,82,27,0
0,35,100,12
0,47,81,0
0,82,59,0
0,66,90,48
0,35,100,20
0,54,74,0
0,82,22,0
0,35,59,0
0,64,90,16
0,47,100,4
0,47,63,0
0,63,78,0
0,59,73,0
0,82,56,0
0,44,91,0
0,63,90,4
0,42,100,4
0,47,70,0
0,54,76,0
0,82,28,0
0,46,100,4
0,46,103,0
0,73,64,0
0,70,64,0
0,68,64,0
0,82,57,0
0,35,79,0
0,61,90,52
0,53,67,4
0,82,26,0
0,35,59,0
0,63,81,188
0,56,76,0
0,82,59,0
0,44,89,0
0,63,90,60
0,40,100,24
0,46,83,0
0,82,29,0
0,64,90,48
0,63,90,4
0,39,110,0
0,67,64,0
0,75,64,0
0,82,55,0
