track,note,velocity,time
3,60,71,0
3,62,86,0
3,60,0,3
3,69,86,0
3,62,0,3
3,69,0,74
3,60,70,0
3,60,0,23
3,72,77,0
3,72,0,40
3,72,88,0
3,72,0,20
3,70,84,0
3,65,59,0
3,70,0,4
3,65,0,19
3,67,64,0
3,67,0,21
3,69,79,0
3,69,0,45
3,60,75,0
3,60,0,18
3,60,85,0
3,60,0,24
3,69,89,0
3,69,0,22
3,70,75,0
3,70,0,22
3,72,69,0
3,74,74,0
3,72,0,4
3,72,81,0
3,74,0,6
3,70,75,0
3,72,0,1
3,69,71,0
3,70,0,4
3,70,64,8
3,69,0,3
3,69,62,9
3,70,0,4
3,67,58,9
3,69,0,1
3,65,55,12
3,67,0,3
3,65,0,22
3,65,76,0
3,65,0,24
3,67,71,0
3,69,74,0
3,67,0,1
3,69,0,70
3,65,71,0
3,65,0,18
3,67,72,0
3,67,0,20
3,69,82,0
3,67,64,0
3,69,0,4
3,67,0,13
3,67,71,0
3,67,0,20
3,67,76,10
3,67,0,17
3,69,77,0
3,69,0,45
3,72,68,0
3,72,0,15
3,72,85,0
3,69,74,0
3,72,0,1
3,69,0,32
3,72,70,0
3,72,0,18
3,72,71,0
3,72,0,16
3,72,83,0
3,69,69,46
3,72,0,1
3,69,0,34
3,60,71,0
3,72,85,0
3,60,0,1
3,72,0,38
3,72,86,0
3,72,0,19
3,70,82,0
3,70,0,35
3,65,71,0
3,65,0,20
3,67,74,0
3,67,0,20
3,69,86,0
3,69,0,43
3,60,75,0
3,60,0,19
3,69,79,0
3,69,0,21
3,70,76,2
3,70,0,19
3,72,80,5
3,72,0,22
3,74,80,0
3,74,0,42
3,72,83,0
3,72,0,34
3,70,76,1
3,70,0,31
3,69,79,0
3,70,56,12
3,69,0,2
3,69,51,10
3,70,0,3
3,67,48,9
3,69,0,1
3,65,44,0
3,67,0,2
3,65,0,51
3,65,81,0
3,65,0,31
3,67,78,0
3,67,0,29
3,67,77,0
3,67,0,19
3,65,76,0
3,67,75,0
3,65,0,2
3,67,0,18
3,69,75,0
3,67,65,0
3,69,0,1
3,67,0,17
3,67,75,0
3,67,0,1
3,67,72,7
3,67,0,19
3,69,74,0
3,69,0,45
3,72,77,0
3,72,0,21
3,74,78,0
3,74,0,71
3,67,65,0
3,69,61,0
3,67,0,1
3,65,61,0
3,69,0,4
3,65,0,31
3,53,97,0
3,53,0,23
3,53,105,0
3,53,0,25
3,53,99,0
3,53,0,20
3,48,82,0
3,48,0,22
3,50,95,0
3,50,0,18
3,53,95,0
3,53,0,44
3,55,103,4
3,55,0,24
3,57,86,0
3,57,0,17
3,57,93,0
3,57,0,23
3,48,97,0
3,48,0,19
3,53,101,0
3,53,0,22
3,50,77,0
3,50,0,18
3,53,97,0
3,53,0,24
3,50,91,0
3,50,0,17
3,53,99,0
3,55,83,0
3,53,0,2
3,55,0,21
3,57,91,0
3,57,0,18
3,57,99,0
3,57,0,20
3,59,105,0
3,59,0,26
3,59,118,0
3,59,0,23
3,59,113,0
3,54,86,0
3,59,0,3
3,56,90,0
3,54,0,2
3,56,0,17
3,59,103,0
3,61,98,49
3,59,0,2
3,61,0,20
3,63,92,0
3,63,0,18
3,63,114,0
3,63,0,23
3,56,104,0
3,56,0,23
3,59,97,0
3,56,86,0
3,59,0,1
3,59,86,0
3,56,0,1
3,56,92,0
3,59,0,2
3,56,0,20
3,59,99,0
3,61,84,24
3,59,0,1
3,61,0,18
3,63,90,0
3,63,0,17
3,63,114,0
3,63,0,299
3,63,109,0
3,63,0,41
3,63,107,0
3,63,0,53
3,70,98,0
3,70,0,19
3,70,100,0
3,70,0,14
3,70,88,0
3,70,0,18
3,68,104,0
3,68,0,70
3,60,99,0
3,60,0,24
3,61,98,0
3,61,0,36
3,72,103,0
3,72,0,18
3,72,104,0
3,72,0,17
3,72,106,0
3,72,0,20
3,70,107,0
3,70,0,72
3,68,95,0
3,68,0,24
3,70,98,0
3,70,0,30
3,61,88,0
3,61,0,19
3,70,104,0
3,70,0,20
3,70,89,0
3,70,0,16
3,70,91,0
3,70,0,16
3,68,90,0
3,68,0,73
3,66,86,0
3,66,0,19
3,68,92,0
3,68,0,159
3,66,95,0
3,66,0,87
3,68,114,0
3,68,0,80
3,70,110,0
3,70,0,56
3,70,118,0
3,70,0,17
3,70,94,0
3,70,0,15
3,70,101,0
3,70,0,16
3,68,107,0
3,68,0,65
3,60,95,0
3,60,0,23
3,61,101,0
3,61,0,41
3,61,95,0
3,61,0,19
3,72,95,0
3,72,0,18
3,72,93,0
3,72,0,12
3,72,95,0
3,72,0,20
3,70,110,0
3,70,0,69
3,68,100,0
3,68,0,24
3,70,110,0
3,70,0,25
3,61,101,0
3,61,0,15
3,70,110,0
3,70,0,39
3,70,107,0
3,70,0,19
3,68,107,0
3,68,0,69
3,66,90,0
3,66,0,22
3,68,107,0
3,68,0,107
3,72,103,0
3,70,70,0
3,72,0,2
3,70,0,18
3,74,88,0
3,69,88,49
3,74,0,2
3,67,56,34
3,69,0,2
3,69,71,12
3,67,0,3
3,69,0,30
3,60,74,0
3,60,0,22
3,72,92,0
3,72,0,35
3,72,88,0
3,72,0,23
3,70,86,0
3,65,66,0
3,70,0,1
3,65,0,23
3,67,77,0
3,67,0,21
3,69,54,0
3,69,0,51
3,60,59,0
3,60,0,17
3,60,66,0
3,60,0,19
3,69,76,0
3,70,86,25
3,69,0,1
3,72,91,0
3,70,0,3
3,74,86,0
3,72,0,11
3,74,0,60
3,72,85,0
3,72,0,62
3,70,90,0
3,70,0,29
3,69,70,0
3,69,0,60
3,65,89,0
3,65,0,29
3,67,78,0
3,67,0,28
3,67,59,0
3,67,0,24
3,65,90,0
3,67,72,0
3,65,0,1
3,67,0,17
3,69,77,0
3,69,0,44
3,67,86,0
3,67,0,15
3,67,93,0
3,67,0,24
3,67,91,0
3,67,0,18
3,69,67,0
3,69,0,40
3,65,85,8
3,65,0,17
3,65,95,0
3,65,0,22
3,62,79,0
3,62,0,19
3,72,83,0
3,72,0,21
3,69,70,0
3,69,0,14
3,72,85,0
3,69,71,0
3,72,0,3
3,67,61,14
3,69,0,4
3,67,0,12
3,69,54,0
3,69,0,47
3,60,62,0
3,60,0,22
3,72,82,0
3,72,0,43
3,72,81,0
3,72,0,25
3,70,72,0
3,70,0,50
3,65,64,0
3,65,0,20
3,67,74,0
3,67,0,21
3,69,82,0
3,69,0,37
3,77,99,0
3,77,0,71
3,76,94,0
3,74,78,0
3,76,0,1
3,72,72,0
3,74,0,2
3,72,0,21
3,69,86,0
3,69,0,13
3,74,80,0
3,74,0,57
3,69,76,0
3,69,0,35
3,67,72,0
3,65,67,0
3,67,0,4
3,65,0,23
3,50,1,0
3,50,0,16
3,50,1,0
3,50,0,18
3,50,1,0
3,50,0,26
3,65,71,0
3,65,0,24
3,67,78,0
3,67,0,24
3,69,78,0
3,69,0,48
3,67,64,0
3,67,0,21
3,67,81,0
3,67,0,16
3,67,65,0
3,67,0,24
3,69,82,0
3,69,0,48
3,72,75,0
3,72,0,24
3,74,71,0
3,74,0,96
3,53,93,0
3,53,0,24
3,53,95,0
3,53,0,22
3,53,95,0
3,53,0,25
3,48,71,0
3,48,0,21
3,50,97,0
3,50,0,17
3,53,95,0
3,53,0,47
3,55,95,1
3,55,0,23
3,57,86,0
3,57,0,20
3,57,78,0
3,57,0,24
3,53,105,0
3,53,0,24
3,50,82,0
3,50,0,20
3,53,91,0
3,50,79,0
3,53,0,1
3,50,0,21
3,53,88,0
3,53,0,36
3,50,75,0
3,50,0,13
3,50,97,0
3,50,0,25
3,53,111,0
3,53,0,20
3,53,101,0
3,53,0,22
3,53,99,0
3,53,0,21
3,48,85,0
3,48,0,19
3,50,99,0
3,50,0,17
3,53,95,0
3,53,0,43
3,55,85,5
3,55,0,20
3,57,93,0
3,57,0,18
3,57,95,0
3,57,0,22
3,48,101,0
3,48,0,19
3,53,101,0
3,53,0,19
3,55,91,0
3,55,0,20
3,57,93,0
3,57,0,18
3,58,101,0
3,58,0,35
3,57,103,0
3,57,0,20
3,55,87,0
3,55,0,21
3,58,101,0
3,58,0,35
3,71,116,0
3,71,0,26
3,71,111,0
3,71,0,27
3,71,108,0
3,71,0,23
3,66,92,0
3,68,86,0
3,66,0,1
3,68,0,15
3,71,108,0
3,71,0,47
3,73,101,3
3,73,0,18
3,75,107,0
3,75,0,19
3,76,101,0
3,76,0,23
3,66,116,0
3,66,0,83
3,66,110,0
3,66,0,20
3,63,104,0
3,63,0,17
3,61,90,0
3,61,0,22
3,59,103,0
3,59,0,17
3,59,111,0
3,59,0,22
3,61,104,2
3,61,0,21
3,63,98,0
3,63,0,15
3,63,98,0
3,63,0,203
3,63,118,0
3,63,0,42
3,63,104,0
3,63,0,43
3,70,118,0
3,70,0,18
3,70,86,0
3,70,0,14
3,70,98,0
3,70,0,18
3,68,101,0
3,68,0,71
3,60,105,0
3,60,0,20
3,61,98,0
3,61,0,25
3,72,118,0
3,72,0,18
3,72,99,0
3,72,0,15
3,72,101,0
3,72,0,21
3,70,118,0
3,70,0,66
3,68,104,0
3,68,0,21
3,70,107,0
3,70,0,33
3,61,97,0
3,61,0,18
3,70,114,0
3,70,0,20
3,70,90,0
3,70,0,16
3,70,104,0
3,70,0,18
3,68,107,0
3,68,0,65
3,66,104,0
3,66,0,22
3,68,110,0
3,68,0,149
3,66,110,0
3,66,0,86
3,68,118,0
3,68,0,84
3,70,114,0
3,70,0,39
3,70,110,0
3,70,0,17
3,70,80,0
3,70,0,16
3,70,104,0
3,70,0,17
3,68,114,0
3,68,0,70
3,60,105,0
3,60,0,20
3,61,107,0
3,61,0,31
3,61,104,0
3,61,0,22
3,72,108,0
3,72,0,19
3,72,108,0
3,72,0,14
3,72,97,0
3,72,0,20
3,70,118,0
3,70,0,65
3,68,107,0
3,68,0,21
3,70,107,0
3,70,0,26
3,61,92,0
3,61,0,17
3,70,118,0
3,70,0,39
3,70,107,0
3,70,0,16
3,68,107,0
3,68,0,66
3,66,98,0
3,66,0,19
3,68,110,0
3,68,0,164
3,66,118,0
3,66,0,82
3,68,118,0
3,68,0,82
3,70,110,0
3,70,0,81
3,71,116,0
3,71,0,88
3,73,118,0
3,73,0,84
3,75,118,0
3,75,0,39
3,75,118,0
3,75,0,19
3,75,92,0
3,75,0,14
3,75,95,0
3,75,0,22
3,73,111,0
3,73,0,59
3,75,118,0
3,75,0,20
3,77,108,0
3,77,0,25
3,68,110,0
3,68,0,19
3,77,113,0
3,77,0,18
3,77,85,0
3,77,0,16
3,77,118,0
3,77,0,23
3,75,118,0
3,75,0,65
3,73,114,0
3,73,0,19
3,75,110,0
3,75,0,23
3,66,107,0
3,66,0,17
3,75,118,0
3,75,0,41
3,75,118,0
3,75,0,18
3,73,118,0
3,73,0,65
3,71,113,0
3,71,0,20
3,73,118,0
3,73,0,38
3,70,101,0
3,70,0,34
3,66,114,0
3,66,0,50
3,71,118,0
3,71,0,36
3,70,83,12
3,70,0,20
3,71,103,4
3,71,0,21
3,73,118,0
3,73,0,34
3,71,95,14
3,73,110,24
3,71,0,3
3,73,0,16
3,75,118,0
3,75,0,34
3,75,118,0
3,75,0,20
3,75,92,0
3,75,0,18
3,75,107,0
3,75,0,20
3,73,114,0
3,73,0,65
3,75,118,0
3,75,0,20
3,77,113,0
3,77,0,28
3,68,101,0
3,68,0,17
3,77,118,0
3,77,0,18
3,77,89,0
3,77,0,16
3,77,113,0
3,77,0,17
3,75,118,0
3,75,0,61
3,73,114,0
3,73,0,21
3,75,114,0
3,75,0,24
3,66,110,0
3,66,0,15
3,75,118,0
3,75,0,36
3,75,118,0
3,75,0,17
3,73,118,0
3,73,0,55
3,71,113,0
3,71,0,21
3,73,110,0
3,73,0,33
3,70,118,0
3,70,0,30
3,66,118,0
3,66,0,53
3,71,118,0
3,71,0,41
3,70,114,7
3,70,0,21
3,71,95,3
3,71,0,19
3,73,118,0
3,73,0,38
3,71,113,10
3,71,0,18
3,73,114,5
3,73,0,17
3,75,118,0
3,75,0,29
3,75,118,0
3,75,0,19
3,75,92,0
3,75,0,16
3,75,114,0
3,75,0,20
3,73,110,0
3,73,0,61
3,75,118,0
3,75,0,19
3,77,118,0
3,77,0,24
3,68,104,0
3,68,0,19
3,77,118,0
3,77,0,20
3,77,86,0
3,77,0,16
3,77,118,0
3,77,0,19
3,75,118,0
3,75,0,63
3,73,107,0
3,73,0,18
3,75,118,0
3,75,0,19
3,66,107,0
3,66,0,13
3,75,118,0
3,75,0,37
3,75,118,0
3,75,0,17
3,73,118,0
3,73,0,58
3,71,116,0
3,71,0,20
3,73,114,0
3,73,0,33
3,70,118,0
3,70,0,28
3,66,118,0
3,66,0,60
3,71,118,0
3,71,0,38
3,70,110,9
3,70,0,22
3,71,116,4
3,71,0,21
3,73,118,0
3,73,0,36
3,71,108,12
3,71,0,22
3,73,110,1
3,73,0,23
3,75,114,0
3,75,0,26
3,71,118,0
3,71,0,42
3,70,104,6
3,70,0,20
3,71,101,5
3,71,0,23
3,73,114,0
3,73,0,42
3,71,108,6
3,73,104,24
3,71,0,2
3,73,0,20
3,75,114,0
3,75,0,31
3,75,118,0
3,75,0,19
3,75,90,0
3,75,0,16
3,75,95,0
3,75,0,21
3,73,107,0
3,73,0,55
3,75,118,0
3,75,0,19
3,77,113,0
3,77,0,23
3,68,86,0
3,68,0,13
3,77,118,0
3,77,0,19
3,77,103,0
3,77,0,15
3,77,103,0
3,77,0,19
3,75,114,0
3,75,0,58
3,73,107,0
3,73,0,18
3,75,107,0
3,75,0,21
3,66,84,0
3,66,0,13
3,75,118,0
3,75,0,34
3,75,114,0
3,75,0,17
3,73,118,0
3,73,0,53
3,71,105,0
3,71,0,18
3,73,110,0
3,73,0,31
3,70,118,0
3,70,0,23
3,66,118,0
3,66,0,41
3,71,118,0
3,71,0,36
3,70,98,11
3,70,0,22
3,71,116,2
3,71,0,22
3,73,107,0
3,73,0,46
3,71,101,3
3,71,0,18
3,73,107,5
3,73,0,22
3,75,114,0
3,75,0,24
3,75,118,0
3,75,0,20
3,75,88,0
3,75,0,16
3,75,110,0
3,75,0,20
3,73,107,0
3,73,0,53
3,75,118,0
3,75,0,19
3,77,113,0
3,77,0,27
3,68,104,0
3,68,0,10
3,77,113,0
3,77,0,19
3,77,79,0
3,77,0,16
3,77,105,0
3,77,0,18
3,75,118,0
3,75,0,56
3,73,110,0
3,73,0,21
3,75,114,0
3,75,0,24
3,66,107,0
3,66,0,14
3,75,118,0
3,75,0,35
3,75,118,0
3,75,0,17
3,73,118,0
3,73,0,57
3,71,113,0
3,71,0,20
3,73,107,0
3,73,0,35
3,70,107,0
3,70,0,25
3,66,118,0
3,66,0,61
3,71,118,0
3,71,0,41
3,70,114,8
3,70,0,22
3,71,99,2
3,71,0,21
3,73,114,0
3,73,0,41
3,71,99,6
3,71,0,21
3,73,104,2
3,73,0,22
3,75,118,0
3,75,0,28
4,48,50,2113
4,48,0,23
4,50,65,0
4,50,0,24
4,57,65,0
4,57,0,191
4,48,49,0
4,48,0,25
4,60,56,0
4,60,0,45
4,60,67,1
4,60,0,25
4,58,63,0
4,58,0,49
4,53,38,0
4,53,0,24
4,55,43,0
4,55,0,24
4,57,58,0
4,57,0,166
4,48,54,0
4,48,0,23
4,48,64,1
4,48,0,26
4,57,68,0
4,57,0,22
4,58,54,0
4,58,0,24
4,60,48,0
4,60,0,24
4,62,53,0
4,62,0,48
4,60,60,0
4,60,0,24
4,58,54,0
4,58,0,24
4,57,50,0
4,57,0,12
4,58,43,0
4,58,0,12
4,57,41,0
4,57,0,13
4,55,37,0
4,55,0,13
4,53,34,0
4,53,0,93
4,53,55,1
4,53,0,26
4,55,50,0
4,55,0,24
4,57,53,0
4,57,0,142
4,53,50,0
4,53,0,24
4,55,51,0
4,55,0,24
4,57,61,0
4,57,0,72
4,55,43,0
4,55,0,25
4,55,50,1
4,55,0,9
