track,note,velocity,time
1,38,100,2880
1,38,0,120
1,40,100,0
1,40,0,120
1,41,100,0
1,41,0,120
1,43,100,0
1,43,0,120
1,45,100,0
1,45,0,240
1,50,100,0
1,50,0,240
1,45,100,0
1,45,0,240
1,50,100,0
1,50,0,240
1,45,100,0
1,45,0,240
1,50,100,0
1,50,0,240
1,38,100,0
1,38,0,210
1,33,100,0
1,33,0,25
1,34,100,5
1,34,0,120
1,36,100,0
1,36,0,120
1,33,100,0
1,33,0,60
1,33,100,0
1,33,0,25
1,33,100,5
1,33,0,25
1,33,100,5
1,33,0,120
1,38,100,0
1,38,0,120
1,37,100,0
1,37,0,90
1,37,100,0
1,37,0,25
1,38,100,5
1,38,0,60
1,38,100,0
1,38,0,25
1,38,100,5
1,38,0,25
1,38,100,5
1,38,0,90
1,38,100,0
1,38,0,25
1,38,100,5
1,38,0,60
1,33,100,0
1,33,0,60
1,38,100,0
1,38,0,60
1,29,100,0
1,29,0,25
1,31,100,35
1,31,0,55
1,31,100,5
1,31,0,120
1,35,100,0
1,35,0,55
1,36,100,5
1,36,0,120
1,36,100,0
1,36,0,60
1,36,100,0
1,36,0,60
1,38,100,0
1,38,0,210
1,33,100,0
1,33,0,30
1,34,100,0
1,34,0,120
1,36,100,0
1,36,0,120
1,33,100,0
1,33,0,60
1,33,100,0
1,33,0,25
1,33,100,5
1,33,0,25
1,33,100,5
1,33,0,120
1,38,100,0
1,38,0,120
1,37,100,0
1,37,0,90
1,37,100,0
1,37,0,25
1,38,100,5
1,38,0,60
1,38,100,0
1,38,0,25
1,38,100,5
1,38,0,25
1,38,100,5
1,38,0,90
1,38,100,0
1,38,0,25
1,38,100,5
1,38,0,60
1,33,100,0
1,33,0,60
1,38,100,0
1,38,0,60
1,29,100,0
1,29,0,25
1,31,100,35
1,31,0,55
1,31,100,5
1,31,0,120
1,35,100,0
1,35,0,55
1,36,100,5
1,36,0,120
1,36,100,0
1,36,0,60
1,36,100,0
1,36,0,60
1,38,100,0
1,38,0,480
1,50,100,0
1,50,0,150
1,50,100,0
1,50,0,60
1,50,100,0
1,50,0,270
1,50,100,0
1,50,0,150
1,50,100,0
1,50,0,60
1,50,100,0
1,50,0,270
1,50,100,0
1,50,0,150
1,50,100,0
1,50,0,60
1,50,100,0
1,50,0,270
1,38,100,0
1,38,0,120
1,40,100,0
1,40,0,120
1,41,100,0
1,41,0,120
1,43,100,0
1,43,0,120
1,50,100,0
1,50,0,150
1,50,100,0
1,50,0,60
1,50,100,0
1,50,0,270
1,50,100,0
1,50,0,150
1,50,100,0
1,50,0,60
1,50,100,0
1,50,0,270
1,50,100,0
1,50,0,150
1,50,100,0
1,50,0,60
1,50,100,0
1,50,0,270
1,38,100,0
1,38,0,210
1,33,100,0
1,33,0,25
1,34,100,5
1,34,0,120
1,36,100,0
1,36,0,120
1,33,100,0
1,33,0,60
1,33,100,0
1,33,0,25
1,33,100,5
1,33,0,25
1,33,100,5
1,33,0,120
1,38,100,0
1,38,0,120
1,37,100,0
1,37,0,90
1,37,100,0
1,37,0,25
1,38,100,5
1,38,0,60
1,38,100,0
1,38,0,25
1,38,100,5
1,38,0,25
1,38,100,5
1,38,0,90
1,38,100,0
1,38,0,25
1,38,100,5
1,38,0,60
1,33,100,0
1,33,0,60
1,38,100,0
1,38,0,60
1,29,100,0
1,29,0,25
1,31,100,35
1,31,0,55
1,31,100,5
1,31,0,120
1,35,100,0
1,35,0,55
1,36,100,5
1,36,0,120
1,36,100,0
1,36,0,60
1,36,100,0
1,36,0,60
1,38,100,0
1,38,0,210
1,33,100,0
1,33,0,30
1,34,100,0
1,34,0,120
1,36,100,0
1,36,0,120
1,33,100,0
1,33,0,60
1,33,100,0
1,33,0,25
1,33,100,5
1,33,0,25
1,33,100,5
1,33,0,120
1,38,100,0
1,38,0,120
1,37,100,0
1,37,0,90
1,37,100,0
1,37,0,25
1,38,100,5
1,38,0,60
1,38,100,0
1,38,0,25
1,38,100,5
1,38,0,25
1,38,100,5
1,38,0,150
1,50,100,0
1,50,0,30
1,48,100,0
1,48,0,30
1,47,100,0
1,47,0,30
1,45,100,0
1,45,0,30
1,36,100,0
1,36,0,30
1,33,100,0
1,33,0,30
1,32,100,0
1,32,0,30
1,31,100,0
1,31,0,55
1,31,100,5
1,31,0,120
1,35,100,0
1,35,0,55
1,36,100,5
1,36,0,120
1,36,100,0
1,36,0,60
1,36,100,0
1,36,0,60
1,38,100,0
1,38,0,480
1,50,100,0
1,50,0,150
1,50,100,0
1,50,0,60
1,50,100,0
1,50,0,270
1,50,100,0
1,50,0,150
1,50,100,0
1,50,0,60
1,50,100,0
1,50,0,270
1,50,100,0
1,50,0,150
1,50,100,0
1,50,0,60
1,50,100,0
1,50,0,270
1,38,100,0
1,38,0,120
1,40,100,0
1,40,0,150
1,41,100,0
1,41,0,90
1,43,100,0
1,43,0,120
1,50,100,0
1,50,0,150
1,50,100,0
1,50,0,60
1,50,100,0
1,50,0,270
1,50,100,0
1,50,0,150
1,50,100,0
1,50,0,60
1,50,100,0
1,50,0,270
1,50,100,0
1,50,0,150
1,50,100,0
1,50,0,60
1,50,100,0
1,50,0,270
1,38,100,0
1,38,0,210
1,33,100,0
1,33,0,25
1,38,100,5
1,38,0,120
1,36,100,0
1,36,0,120
1,34,100,0
1,34,0,120
1,34,100,0
1,34,0,60
1,35,100,0
1,35,0,60
1,36,100,0
1,36,0,120
1,36,100,0
1,36,0,60
1,37,100,0
1,37,0,60
1,38,100,0
1,38,0,120
1,36,100,0
1,36,0,120
1,34,100,0
1,34,0,120
1,34,100,0
1,34,0,30
1,31,100,0
1,31,0,90
1,29,100,0
1,29,0,60
1,29,100,60
1,29,0,60
1,34,100,60
1,34,0,25
1,29,100,5
1,29,100,90
1,29,0,30
1,29,0,90
1,29,100,0
1,29,0,60
1,29,100,60
1,29,0,60
1,29,100,60
1,29,0,60
1,41,100,60
1,41,0,120
1,34,100,0
1,34,0,90
1,36,100,0
1,36,0,90
1,38,100,0
1,38,0,60
1,36,100,0
1,36,0,90
1,38,100,0
1,38,0,90
1,37,100,0
1,37,0,60
1,38,100,0
1,38,0,90
1,38,100,0
1,38,0,25
1,36,100,5
1,36,0,30
1,36,100,0
1,36,0,30
1,36,100,0
1,36,0,60
1,34,100,0
1,34,0,90
1,33,100,0
1,33,0,90
1,31,100,0
1,31,0,60
1,29,100,0
1,29,0,90
1,31,100,0
1,31,0,90
1,33,100,0
1,33,0,60
1,34,100,0
1,34,0,90
1,36,100,0
1,36,0,90
1,37,100,0
1,37,0,60
1,50,100,0
1,50,0,150
1,50,100,0
1,50,0,60
1,50,100,0
1,50,0,270
1,50,100,0
1,50,0,150
1,50,100,0
1,50,0,60
1,50,100,0
1,50,0,270
1,50,100,0
1,50,0,150
1,50,100,0
1,50,0,60
1,50,100,0
1,50,0,270
1,38,100,0
1,38,0,120
1,40,100,0
1,40,0,150
1,41,100,0
1,41,0,90
1,43,100,0
1,43,0,120
1,50,100,0
1,50,0,150
1,50,100,0
1,50,0,60
1,50,100,0
1,50,0,270
1,50,100,0
1,50,0,150
1,50,100,0
1,50,0,60
1,50,100,0
1,50,0,270
1,50,100,0
1,50,0,150
1,50,100,0
1,50,0,60
1,50,100,0
1,50,0,270
1,38,100,0
1,38,0,210
1,33,100,0
1,33,0,25
1,34,100,5
1,34,0,120
1,36,100,0
1,36,0,120
1,33,100,0
1,33,0,60
1,33,100,0
1,33,0,25
1,33,100,5
1,33,0,25
1,33,100,5
1,33,0,120
1,38,100,0
1,38,0,120
1,37,100,0
1,37,0,90
1,37,100,0
1,37,0,25
1,38,100,5
1,38,0,60
1,38,100,0
1,38,0,25
1,38,100,5
1,38,0,25
1,38,100,5
1,38,0,90
1,38,100,0
1,38,0,25
1,38,100,5
1,38,0,60
1,33,100,0
1,33,0,60
1,38,100,0
1,38,0,60
1,29,100,0
1,29,0,25
1,31,100,35
1,31,0,55
1,31,100,5
1,31,0,120
1,35,100,0
1,35,0,55
1,36,100,5
1,36,0,120
1,36,100,0
1,36,0,60
1,36,100,0
1,36,0,60
1,38,100,0
1,38,0,210
1,33,100,0
1,33,0,30
1,34,100,0
1,34,0,120
1,36,100,0
1,36,0,120
1,33,100,0
1,33,0,60
1,33,100,0
1,33,0,25
1,33,100,5
1,33,0,25
1,33,100,5
1,33,0,120
1,38,100,0
1,38,0,120
1,37,100,0
1,37,0,90
1,37,100,0
1,37,0,25
1,38,100,5
1,38,0,60
1,38,100,0
1,38,0,25
1,38,100,5
1,38,0,25
1,38,100,5
1,38,0,90
1,38,100,0
1,38,0,25
1,38,100,5
1,38,0,60
1,33,100,0
1,33,0,60
1,38,100,0
1,38,0,60
1,29,100,0
1,29,0,25
1,31,100,35
1,31,0,55
1,31,100,5
1,31,0,120
1,35,100,0
1,35,0,55
1,36,100,5
1,36,0,120
1,36,100,0
1,36,0,60
1,36,100,0
1,36,0,60
1,38,100,0
1,38,0,390
1,36,100,0
1,36,0,90
1,34,100,0
1,34,0,55
1,34,100,5
1,34,0,120
1,34,100,0
1,34,0,55
1,36,100,5
1,36,0,120
1,36,100,0
1,36,0,60
1,36,100,0
1,36,0,60
1,38,100,0
1,38,0,390
1,36,100,0
1,36,0,90
1,34,100,0
1,34,0,55
1,34,100,5
1,34,0,120
1,34,100,0
1,34,0,55
1,36,100,5
1,36,0,120
1,36,100,0
1,36,0,60
1,36,100,0
1,36,0,60
1,50,100,0
1,50,0,150
1,50,100,0
1,50,0,60
1,50,100,0
1,50,0,270
1,50,100,0
1,50,0,150
1,50,100,0
1,50,0,60
1,50,100,0
1,50,0,270
1,50,100,0
1,50,0,150
1,50,100,0
1,50,0,60
1,50,100,0
1,50,0,270
1,38,100,0
1,38,0,120
1,40,100,0
1,40,0,120
1,41,100,0
1,41,0,120
1,43,100,0
1,43,0,120
1,50,100,0
1,50,0,150
1,50,100,0
1,50,0,60
1,50,100,0
1,50,0,270
1,50,100,0
1,50,0,150
1,50,100,0
1,50,0,60
1,50,100,0
1,50,0,270
1,50,100,0
1,50,0,150
1,50,100,0
1,50,0,60
1,50,100,0
1,50,0,270
1,38,100,0
1,38,0,90
1,38,100,0
1,38,0,25
1,33,100,5
1,33,0,120
1,38,100,0
1,38,0,480
2,50,15,1440
2,60,15,2
2,65,15,2
2,69,15,2
2,69,0,144
2,65,0,0
2,60,0,0
2,69,23,0
2,65,23,2
2,60,24,2
2,60,0,56
2,65,0,0
2,69,0,0
2,60,27,0
2,65,27,2
2,69,27,2
2,69,0,266
2,50,0,0
2,60,0,0
2,65,0,0
2,68,43,0
2,64,43,2
2,59,43,2
2,50,43,2
2,59,0,84
2,68,0,0
2,64,0,0
2,59,48,0
2,64,48,2
2,68,48,2
2,68,0,26
2,64,0,0
2,59,0,0
2,68,50,0
2,64,50,2
2,59,50,2
2,59,0,26
2,64,0,0
2,68,0,0
2,59,52,0
2,64,52,2
2,68,52,2
2,68,0,56
2,64,0,0
2,59,0,0
2,68,55,0
2,64,55,2
2,59,55,2
2,59,0,266
2,50,0,0
2,68,0,0
2,64,0,0
2,50,71,0
2,58,71,2
2,63,71,2
2,67,72,2
2,67,0,84
2,63,0,0
2,58,0,0
2,67,77,0
2,63,77,2
2,58,77,2
2,58,0,26
2,63,0,0
2,67,0,0
2,58,78,0
2,63,78,2
2,67,79,2
2,67,0,26
2,63,0,0
2,58,0,0
2,67,80,0
2,63,80,2
2,58,80,2
2,58,0,56
2,63,0,0
2,67,0,0
2,67,84,0
2,63,87,60
2,58,89,30
2,67,0,30
2,67,91,0
2,58,0,30
2,63,0,0
2,63,94,30
2,58,96,30
2,67,0,30
2,50,0,30
2,63,0,0
2,58,0,0
2,45,100,0
2,50,100,2
2,57,100,2
2,64,100,86
2,64,0,30
2,57,0,0
2,64,100,0
2,64,0,60
2,65,100,0
2,65,100,60
2,57,100,30
2,65,0,30
2,65,0,60
2,57,0,0
2,67,100,0
2,57,100,30
2,57,0,90
2,45,0,0
2,50,0,0
2,67,0,0
2,69,75,0
2,65,75,2
2,60,75,2
2,50,75,2
2,50,0,144
2,69,0,0
2,65,0,0
2,60,0,0
2,60,75,0
2,65,75,2
2,69,75,2
2,69,0,16
2,65,0,0
2,60,0,0
2,69,75,40
2,65,75,2
2,60,75,2
2,50,75,2
2,60,0,237
2,69,0,27
2,65,0,0
2,50,0,0
2,50,75,0
2,59,75,2
2,64,75,2
2,68,75,2
2,68,0,84
2,64,0,0
2,59,0,0
2,68,75,0
2,64,75,2
2,59,75,2
2,59,0,26
2,64,0,0
2,68,0,0
2,59,75,0
2,64,75,2
2,68,75,2
2,68,0,26
2,64,0,0
2,59,0,0
2,68,75,0
2,64,75,2
2,59,75,2
2,59,0,56
2,64,0,0
2,68,0,0
2,59,75,0
2,64,75,2
2,68,75,2
2,68,0,266
2,50,0,0
2,59,0,0
2,64,0,0
2,67,75,0
2,63,75,2
2,58,75,2
2,50,75,2
2,58,0,84
2,67,0,0
2,63,0,0
2,58,75,0
2,63,75,2
2,67,75,2
2,67,0,26
2,63,0,0
2,58,0,0
2,67,75,0
2,63,75,2
2,58,75,2
2,58,0,26
2,63,0,0
2,67,0,0
2,58,75,0
2,63,75,2
2,67,75,2
2,67,0,56
2,63,0,0
2,58,0,0
2,67,75,0
2,63,75,60
2,58,75,30
2,67,0,30
2,67,75,0
2,58,0,30
2,63,0,0
2,63,75,30
2,58,75,30
2,67,0,30
2,50,0,30
2,63,0,0
2,58,0,0
2,57,100,0
2,50,100,2
2,45,100,2
2,64,100,86
2,64,0,30
2,57,0,0
2,65,100,0
2,62,100,30
2,65,0,30
2,57,100,0
2,57,0,60
2,62,0,0
2,46,100,0
2,46,0,120
2,48,100,0
2,48,0,120
2,45,0,0
2,50,0,0
2,45,100,0
2,52,100,0
2,52,0,120
2,45,0,0
2,52,100,0
2,57,100,0
2,64,100,0
2,61,100,0
2,61,0,120
2,52,0,0
2,57,0,0
2,64,0,0
2,50,100,0
2,57,100,0
2,54,100,30
2,57,100,0
2,62,100,0
2,45,100,60
2,62,0,30
2,57,0,0
2,54,0,0
2,50,0,0
2,57,0,0
2,52,100,0
2,57,100,0
2,61,100,0
2,45,0,90
2,52,0,30
2,57,0,0
2,61,0,0
2,50,100,0
2,57,100,0
2,60,100,0
2,65,100,0
2,57,0,90
2,50,0,0
2,50,100,0
2,60,0,30
2,65,0,0
2,57,100,0
2,60,100,0
2,65,100,0
2,50,0,90
2,50,100,0
2,50,0,30
2,65,0,0
2,60,0,0
2,57,0,0
2,57,100,0
2,50,100,0
2,50,0,20
2,57,0,0
2,57,100,10
2,60,100,0
2,65,100,0
2,65,0,30
2,60,0,0
2,57,0,0
2,50,100,30
2,57,100,30
2,60,100,0
2,65,100,0
2,50,0,90
2,57,0,30
2,60,0,0
2,65,0,0
2,55,100,0
2,53,100,60
2,55,0,60
2,55,100,0
2,58,100,0
2,53,0,60
2,58,0,60
2,55,0,0
2,48,100,0
2,52,100,60
2,52,0,60
2,48,0,0
2,52,100,0
2,48,100,0
2,55,100,0
2,52,100,60
2,52,0,60
2,52,0,0
2,48,0,0
2,55,0,0
2,57,100,0
2,50,100,0
2,62,100,90
2,50,0,30
2,57,0,0
2,65,100,0
2,62,0,90
2,65,0,30
2,46,100,0
2,50,100,60
2,53,100,0
2,53,0,60
2,50,0,0
2,46,0,0
2,48,100,0
2,64,100,60
2,55,100,0
2,55,0,60
2,64,0,0
2,48,0,0
2,45,100,0
2,52,100,0
2,52,0,120
2,45,0,0
2,52,100,0
2,57,100,0
2,64,100,0
2,61,100,0
2,61,0,120
2,52,0,0
2,57,0,0
2,64,0,0
2,50,100,0
2,57,100,0
2,54,100,30
2,57,100,0
2,62,100,0
2,45,100,60
2,62,0,30
2,57,0,0
2,54,0,0
2,50,0,0
2,57,0,0
2,52,100,0
2,57,100,0
2,61,100,0
2,45,0,90
2,52,0,30
2,57,0,0
2,61,0,0
