track,note,velocity,time
1,68,92,960
1,65,100,0
1,60,111,0
1,60,0,218
1,65,0,0
1,68,0,0
1,53,78,31
1,68,100,60
1,65,108,0
1,60,108,0
1,60,0,29
1,53,0,0
1,68,0,0
1,65,0,0
1,53,70,31
1,53,0,4
1,70,87,31
1,67,106,0
1,60,85,0
1,63,96,0
1,48,86,0
1,67,0,98
1,70,0,0
1,63,0,30
1,60,0,0
1,48,0,30
1,70,76,1
1,63,78,0
1,67,91,0
1,60,64,0
1,48,53,0
1,48,0,89
1,67,0,30
1,70,0,0
1,48,83,1
1,63,0,29
1,60,0,0
1,63,107,31
1,67,117,0
1,60,83,0
1,60,0,29
1,48,0,0
1,63,0,0
1,67,0,0
1,48,56,31
1,48,0,29
1,68,89,6
1,65,100,0
1,72,120,0
1,51,111,0
1,61,96,0
1,65,0,3
1,51,71,1
1,51,0,29
1,61,0,0
1,68,0,0
1,72,0,0
1,51,0,120
1,51,87,31
1,68,107,60
1,65,103,0
1,61,82,0
1,61,0,29
1,51,0,0
1,68,0,0
1,65,0,0
1,51,62,1
1,51,0,59
1,56,87,5
1,49,119,0
1,61,94,0
1,68,104,0
1,65,108,0
1,65,0,20
1,61,0,30
1,68,0,0
1,49,0,0
1,73,79,31
1,49,68,0
1,61,5,0
1,56,0,89
1,73,0,30
1,56,100,1
1,61,0,29
1,68,89,31
1,61,96,0
1,61,0,29
1,49,0,0
1,56,0,0
1,68,0,0
1,68,100,4
1,65,103,0
1,53,93,0
1,60,96,0
1,53,0,218
1,68,0,0
1,65,0,0
1,53,78,31
1,60,0,29
1,68,100,31
1,65,108,0
1,60,108,0
1,60,0,29
1,53,0,0
1,68,0,0
1,65,0,0
1,53,70,31
1,53,0,4
1,70,87,31
1,67,106,0
1,60,85,0
1,63,96,0
1,48,86,0
1,67,0,98
1,70,0,0
1,63,0,30
1,60,0,0
1,48,0,30
1,70,76,1
1,63,78,0
1,67,91,0
1,60,64,0
1,48,53,0
1,48,0,89
1,67,0,30
1,70,0,0
1,48,83,1
1,63,0,29
1,60,0,0
1,63,107,31
1,67,117,0
1,60,83,0
1,60,0,29
1,48,0,0
1,63,0,0
1,67,0,0
1,48,56,31
1,48,0,29
1,68,89,6
1,65,100,0
1,72,120,0
1,51,111,0
1,61,96,0
1,65,0,23
1,68,0,30
1,61,0,0
1,72,0,0
1,51,0,30
1,61,35,1
1,68,52,0
1,72,98,0
1,51,75,0
1,72,0,179
1,68,0,0
1,61,0,30
1,51,0,0
1,68,70,31
1,72,106,0
1,51,73,0
1,61,50,0
1,65,60,0
1,51,0,209
1,65,0,30
1,72,0,0
1,51,70,1
1,68,0,29
1,61,0,30
1,61,100,61
1,61,0,29
1,68,115,31
1,65,113,0
1,61,78,0
1,61,0,29
1,51,0,0
1,68,0,0
1,65,0,0
1,51,115,31
1,51,0,29
1,53,86,10
1,68,107,0
1,60,126,0
1,65,93,0
1,65,0,104
1,53,0,0
1,68,0,0
1,60,0,0
1,53,73,31
1,68,78,0
1,65,82,0
1,60,68,0
1,53,0,89
1,53,89,31
1,68,0,29
1,60,0,0
1,65,0,0
1,68,92,31
1,65,100,0
1,60,66,0
1,65,0,29
1,53,0,0
1,68,0,0
1,60,0,30
1,53,83,1
1,53,0,29
1,70,75,13
1,67,91,0
1,63,76,0
1,48,82,0
1,60,66,0
1,60,0,120
1,63,0,0
1,70,0,0
1,67,0,0
1,48,0,0
1,70,75,31
1,48,77,0
1,67,100,0
1,63,70,0
1,60,62,0
1,48,0,89
1,48,82,31
1,63,0,29
1,60,0,0
1,70,0,0
1,67,0,0
1,70,75,31
1,63,78,0
1,60,69,0
1,60,0,29
1,48,0,0
1,70,0,0
1,63,0,0
1,48,71,31
1,48,0,29
1,72,98,9
1,68,104,0
1,65,108,0
1,51,70,0
1,51,0,111
1,72,0,0
1,68,0,0
1,65,0,0
1,51,71,31
1,72,93,0
1,68,76,0
1,65,71,0
1,51,0,119
1,51,63,1
1,72,0,29
1,65,0,0
1,68,0,0
1,68,89,31
1,72,83,0
1,65,78,0
1,65,0,29
1,51,0,0
1,68,0,0
1,72,0,0
1,51,48,31
1,51,0,29
1,68,104,5
1,49,125,0
1,65,113,0
1,61,92,0
1,49,0,10
1,49,48,1
1,49,0,89
1,61,0,0
1,65,0,0
1,68,0,0
1,73,75,31
1,49,84,0
1,61,75,0
1,68,1,60
1,49,0,29
1,73,0,30
1,68,0,0
1,49,79,1
1,61,0,29
1,68,111,31
1,61,111,0
1,65,108,0
1,65,0,29
1,49,0,0
1,68,0,0
1,61,0,0
1,49,92,31
1,49,0,15
1,68,100,1
1,65,98,0
1,53,113,0
1,60,106,0
1,68,117,0
1,65,117,0
1,41,80,0
1,53,85,0
1,60,111,0
1,60,0,29
1,53,0,0
1,68,0,0
1,65,0,0
1,53,106,31
1,60,0,59
1,53,0,30
1,68,0,0
1,65,0,0
1,53,0,30
1,53,55,1
1,68,71,60
1,65,98,0
1,60,89,0
1,60,0,29
1,53,0,0
1,41,0,0
1,65,0,0
1,68,0,30
1,53,67,1
1,53,0,29
1,70,87,18
1,48,82,0
1,67,100,0
1,63,94,0
1,60,89,0
1,60,0,117
1,67,0,0
1,63,0,0
1,70,0,0
1,70,87,31
1,60,77,0
1,67,93,0
1,63,78,0
1,63,0,119
1,70,0,0
1,55,66,1
1,67,0,29
1,60,0,0
1,63,82,31
1,67,98,0
1,60,77,0
1,60,0,29
1,63,0,0
1,67,0,0
1,55,0,0
1,55,73,31
1,48,0,29
1,55,0,30
1,61,82,1
1,68,94,0
1,72,111,0
1,65,86,0
1,51,92,0
1,65,0,89
1,68,0,0
1,72,0,20
1,61,0,30
1,51,0,0
1,68,71,31
1,72,106,0
1,61,57,0
1,51,76,0
1,51,0,89
1,72,0,30
1,51,92,1
1,61,0,29
1,68,0,30
1,61,122,1
1,51,0,29
1,61,0,30
1,51,87,1
1,51,0,2
1,61,70,1
1,65,89,0
1,68,111,0
1,56,89,0
1,49,100,0
1,65,0,33
1,68,0,30
1,61,0,30
1,73,87,1
1,61,47,0
1,56,0,29
1,61,0,90
1,73,0,0
1,56,127,1
1,61,107,60
1,68,84,0
1,65,85,0
1,65,0,29
1,56,0,0
1,49,0,0
1,68,0,0
1,61,0,30
1,49,46,1
1,49,0,13
1,53,91,1
1,68,92,0
1,65,98,0
1,60,83,0
1,60,0,106
1,65,0,0
1,68,0,0
1,41,72,31
1,68,79,0
1,65,89,0
1,60,75,0
1,53,0,119
1,53,66,1
1,65,0,29
1,60,0,0
1,68,0,0
1,60,108,31
1,41,0,29
1,53,0,0
1,53,60,31
1,60,0,29
1,53,0,9
1,70,96,1
1,67,113,0
1,63,94,0
1,60,93,0
1,48,69,0
1,60,0,102
1,63,0,0
1,70,0,0
1,67,0,0
1,67,85,31
1,63,68,0
1,60,62,0
1,60,0,149
1,63,0,0
1,67,0,0
1,67,96,31
1,63,79,0
1,60,75,0
1,60,0,29
1,48,0,0
1,67,0,0
1,63,0,30
1,48,80,1
1,48,0,59
1,61,75,1
1,68,92,0
1,65,85,0
1,51,96,0
1,72,91,0
1,72,0,54
1,65,0,0
1,68,0,0
1,61,0,30
1,51,0,0
1,68,82,31
1,61,66,0
1,72,103,0
1,51,73,0
1,68,0,57
1,61,0,30
1,72,0,0
1,51,0,30
1,68,52,31
1,51,76,0
1,61,76,0
1,72,106,0
1,51,0,89
1,72,0,30
1,61,0,0
1,51,70,1
1,68,0,59
1,61,125,1
1,65,106,60
1,61,0,59
1,68,104,1
1,65,0,29
1,61,1,1
1,61,0,29
1,72,113,61
1,61,82,0
1,65,86,0
1,65,0,29
1,72,0,0
1,51,0,0
1,68,0,0
1,61,0,0
1,51,70,31
1,51,0,59
1,65,113,1
1,60,108,0
1,53,98,0
1,68,119,0
1,68,0,34
1,65,0,0
1,60,0,0
1,53,0,30
1,68,76,1
1,53,83,0
1,65,78,0
1,60,69,0
1,53,0,89
1,68,0,30
1,65,0,0
1,53,78,1
1,60,0,29
1,68,71,31
1,65,91,0
1,60,72,0
1,60,0,29
1,53,0,0
1,68,0,0
1,65,0,0
1,53,82,31
1,53,0,29
1,70,89,16
1,67,108,0
1,63,87,0
1,60,83,0
1,48,82,0
1,48,0,108
1,63,0,0
1,70,0,0
1,67,0,0
1,60,0,0
1,70,82,31
1,48,68,0
1,67,96,0
1,63,87,0
1,60,77,0
1,48,0,89
1,48,78,31
1,63,0,29
1,60,0,0
1,70,0,0
1,67,0,0
1,63,92,31
1,67,96,0
1,60,69,0
1,70,71,0
1,70,0,29
1,67,0,0
1,48,0,0
1,63,0,0
1,60,0,0
1,48,77,31
1,48,0,11
1,61,73,1
1,72,108,0
1,68,92,0
1,51,78,0
1,65,73,0
1,65,0,9
1,61,0,30
1,68,0,0
1,72,0,0
1,51,0,30
1,68,62,31
1,72,103,0
1,61,58,0
1,51,75,0
1,65,30,0
1,51,0,89
1,72,0,0
1,68,0,30
1,65,0,0
1,51,60,1
1,61,0,29
1,65,100,31
1,68,94,0
1,61,75,0
1,61,0,29
1,51,0,0
1,65,0,0
1,68,0,0
1,51,70,1
1,51,0,29
1,68,100,30
1,61,71,0
1,65,96,0
1,56,53,0
1,49,76,0
1,65,0,76
1,68,0,0
1,61,0,0
1,49,0,60
1,56,0,30
1,49,78,1
1,73,127,60
1,56,96,0
1,65,65,0
1,65,0,89
1,73,0,0
1,68,127,31
1,65,100,0
1,65,0,29
1,49,0,0
1,56,0,0
1,68,0,0
1,49,107,31
1,49,0,11
1,53,93,1
1,68,100,0
1,65,111,0
1,60,103,0
1,60,0,97
1,65,0,0
1,68,0,0
1,41,66,31
1,68,82,0
1,65,98,0
1,60,75,0
1,53,0,89
1,41,0,30
1,53,73,1
1,65,0,29
1,60,0,0
1,68,0,0
1,60,103,31
1,65,78,0
1,68,63,0
1,68,0,29
1,65,0,0
1,53,0,0
1,53,72,31
1,53,0,5
1,60,0,0
1,70,92,31
1,48,75,0
1,67,108,0
1,63,96,0
1,60,91,0
1,60,0,86
1,67,0,0
1,63,0,0
1,48,0,0
1,70,0,1
1,48,69,30
1,60,55,0
1,63,71,0
1,67,85,0
1,70,76,0
1,48,0,119
1,67,0,30
1,60,0,0
1,63,0,0
1,70,0,0
1,63,96,31
1,67,106,0
1,70,76,0
1,60,73,0
1,60,0,29
1,70,0,0
1,67,0,0
1,63,0,30
1,48,85,1
1,48,0,10
1,68,100,1
1,72,117,0
1,61,92,0
1,51,119,0
1,65,98,0
1,65,0,1
1,68,0,30
1,72,0,0
1,61,0,30
1,51,0,0
1,68,75,31
1,61,63,0
1,72,103,0
1,51,68,0
1,61,0,149
1,68,0,0
1,72,0,30
1,51,0,0
1,68,76,61
1,61,82,0
1,51,76,0
1,72,91,0
1,65,1,360
1,65,0,59
1,61,0,0
1,72,0,0
1,51,0,19
1,68,0,0
1,65,58,91
1,68,78,0
1,72,108,0
1,49,78,30
1,49,0,115
1,49,79,1
1,65,0,89
1,68,0,0
1,72,0,30
1,65,60,1
1,68,107,60
1,68,0,29
1,65,0,0
1,49,0,0
1,49,46,31
1,49,0,29
1,63,82,31
1,49,76,0
1,67,113,0
1,70,100,0
1,49,0,39
1,49,65,31
1,63,0,89
1,67,0,0
1,70,0,30
1,63,89,61
1,63,0,29
1,49,0,0
1,49,51,31
1,49,0,29
1,63,75,31
1,68,71,0
1,48,69,0
1,60,51,0
1,59,53,0
1,59,0,17
1,68,0,36
1,68,71,31
1,48,0,89
1,48,77,31
1,60,0,29
1,63,0,0
1,68,0,30
1,68,68,1
1,63,89,0
1,60,66,0
1,60,0,29
1,48,0,0
1,63,0,30
1,68,0,0
1,48,41,1
1,48,0,29
1,53,73,3
1,41,62,0
1,60,47,0
1,65,71,0
1,68,70,0
1,41,0,87
1,41,86,1
1,53,0,29
1,53,72,91
1,65,0,29
1,60,0,0
1,68,0,30
1,60,117,1
1,60,0,29
1,53,0,0
1,53,50,31
1,41,0,29
1,53,0,30
1,61,104,1
1,66,78,0
1,58,89,0
1,42,92,0
1,66,0,47
1,68,89,31
1,42,0,89
1,42,68,31
1,58,0,59
1,68,0,60
1,61,0,0
1,42,0,0
1,42,70,31
1,42,0,29
1,61,84,1
1,66,70,0
1,58,56,0
1,42,56,26
1,42,0,105
1,42,78,1
1,58,0,59
1,61,0,30
1,66,0,0
1,58,115,31
1,58,0,59
1,42,0,0
1,42,73,1
1,42,0,29
1,65,93,1
1,56,65,0
1,60,103,0
1,41,72,0
1,53,51,0
1,53,0,26
1,53,70,31
1,56,0,59
1,65,0,30
1,60,0,0
1,56,28,31
1,60,86,60
1,65,83,60
1,41,0,29
1,41,91,31
1,60,0,329
1,65,0,0
1,53,0,7
1,56,0,0
1,41,0,0
1,68,117,121
1,65,117,0
1,41,80,0
1,53,85,0
1,60,111,0
1,53,0,29
1,53,106,31
1,60,0,29
1,65,0,60
1,68,0,0
1,53,0,0
1,53,55,31
1,68,71,60
1,65,98,0
1,60,89,0
1,60,0,29
1,53,0,0
1,41,0,0
1,65,0,0
1,68,0,30
1,53,67,1
1,53,0,29
1,70,87,18
1,48,82,0
1,67,100,0
1,63,94,0
1,60,89,0
1,60,0,117
1,67,0,0
1,63,0,0
1,70,0,0
1,70,87,31
1,60,77,0
1,67,93,0
1,63,78,0
1,63,0,119
1,70,0,0
1,55,66,1
1,67,0,29
1,60,0,0
1,63,82,31
1,67,98,0
1,60,77,0
1,60,0,29
1,63,0,0
1,67,0,0
1,55,0,0
1,55,73,31
1,48,0,29
1,55,0,30
1,61,82,1
1,68,94,0
1,72,111,0
1,65,86,0
1,51,92,0
1,65,0,89
1,68,0,0
1,72,0,20
1,61,0,30
1,51,0,0
1,68,71,31
1,72,106,0
1,61,57,0
1,51,76,0
1,51,0,89
1,72,0,30
1,51,92,1
1,61,0,29
1,68,0,30
1,61,122,1
1,51,0,29
1,61,0,30
1,51,87,1
1,51,0,2
1,61,70,1
1,65,89,0
1,68,111,0
1,56,89,0
1,49,100,0
1,65,0,33
1,68,0,30
1,61,0,30
1,73,87,1
1,61,47,0
1,56,0,29
1,61,0,90
1,73,0,0
1,56,127,1
1,61,107,60
1,68,84,0
1,65,85,0
1,65,0,29
1,56,0,0
1,49,0,0
1,68,0,0
1,61,0,30
1,49,46,1
1,49,0,13
1,53,91,1
1,68,92,0
1,65,98,0
1,60,83,0
1,60,0,106
1,65,0,0
1,68,0,0
1,41,72,31
1,68,79,0
1,65,89,0
1,60,75,0
1,53,0,119
1,53,66,1
1,65,0,29
1,60,0,0
1,68,0,0
1,60,108,31
1,41,0,29
1,53,0,0
1,53,60,31
1,60,0,29
1,53,0,9
1,70,96,1
1,67,113,0
1,63,94,0
1,60,93,0
1,48,69,0
1,60,0,102
1,63,0,0
1,70,0,0
1,67,0,0
1,67,85,31
1,63,68,0
1,60,62,0
1,60,0,149
1,63,0,0
1,67,0,0
1,67,96,31
1,63,79,0
1,60,75,0
1,60,0,29
1,48,0,0
1,67,0,0
1,63,0,30
1,48,80,1
1,48,0,59
1,61,75,1
1,68,92,0
1,65,85,0
1,51,96,0
1,72,91,0
1,72,0,54
1,65,0,0
1,68,0,0
1,61,0,30
1,51,0,0
1,68,82,31
1,61,66,0
1,72,103,0
1,51,73,0
1,68,0,57
1,61,0,30
1,72,0,0
1,51,0,30
1,68,52,31
1,51,76,0
1,61,76,0
1,72,106,0
1,51,0,89
1,72,0,30
1,61,0,0
1,51,70,1
1,68,0,59
1,61,125,1
1,65,106,60
1,61,0,59
1,68,104,1
1,65,0,29
1,61,1,1
1,61,0,29
1,72,113,61
1,61,82,0
1,65,86,0
1,65,0,29
1,72,0,0
1,51,0,0
1,68,0,0
1,61,0,0
1,51,70,31
1,51,0,59
1,65,113,1
1,60,108,0
1,53,98,0
1,68,119,0
1,68,0,34
1,65,0,0
1,60,0,0
1,53,0,30
1,68,76,1
1,53,83,0
1,65,78,0
1,60,69,0
1,53,0,89
1,68,0,30
