track,note,velocity,time
1,48,127,5958
1,53,127,14
1,48,0,2
1,55,127,11
1,53,0,5
1,57,127,12
1,55,0,4
1,57,0,314
1,55,127,10
1,57,127,2
1,55,0,7
1,55,127,28
1,57,0,2
1,53,127,33
1,55,0,4
1,55,127,38
1,53,0,2
1,57,127,1
1,55,0,2
1,57,0,334
1,57,127,8
1,58,127,39
1,57,0,4
1,57,127,23
1,58,0,1
1,58,127,5
1,60,127,2
1,57,0,3
1,58,0,3
1,58,127,37
1,60,0,2
1,53,127,414
1,58,0,2
1,53,0,43
1,55,127,0
1,46,127,345
1,55,0,2
1,60,127,107
1,46,0,3
1,60,0,316
1,63,127,30
1,60,127,38
1,63,0,4
1,56,127,33
1,60,0,3
1,56,0,39
1,58,127,1
1,58,0,322
1,58,127,19
1,58,0,28
1,58,127,12
1,58,0,24
1,58,127,11
1,58,0,44
1,57,127,3
1,57,0,241
1,50,127,24
1,52,127,39
1,50,0,7
1,54,127,28
1,52,0,5
1,54,0,29
1,55,127,1
1,57,127,40
1,55,0,3
1,59,127,39
1,57,0,1
1,59,0,344
1,59,127,5
1,58,127,104
1,59,0,6
1,58,0,272
1,51,127,2
1,53,127,34
1,51,0,5
1,55,127,32
1,53,0,4
1,56,127,32
1,55,0,4
1,56,0,38
1,58,127,0
1,60,127,43
1,58,0,3
1,55,127,116
1,60,0,6
1,55,0,287
1,64,127,49
1,62,127,35
1,64,0,3
1,60,127,31
1,62,0,1
1,58,127,42
1,60,0,2
1,57,127,230
1,58,0,3
1,57,0,114
2,29,86,412
2,29,0,214
2,29,87,17
2,36,87,115
2,29,0,3
2,36,0,112
2,33,89,0
2,33,0,221
2,33,88,10
2,33,0,115
2,36,85,0
2,34,87,115
2,36,0,4
2,34,0,214
2,34,84,12
2,41,90,116
2,34,0,1
2,39,86,114
2,41,0,1
2,39,0,221
2,39,90,8
2,34,87,115
2,39,0,3
2,34,0,112
2,32,86,1
2,32,0,212
2,32,90,18
2,39,87,115
2,32,0,5
2,42,89,110
2,39,0,3
2,42,0,215
2,42,85,13
2,37,85,115
2,42,0,3
2,38,88,112
2,37,0,3
2,38,0,219
2,38,85,9
2,38,0,115
2,42,88,0
2,43,88,115
2,42,0,3
2,43,0,220
2,43,84,7
2,43,0,111
2,38,85,5
2,39,85,115
2,38,0,11
2,39,0,206
2,39,85,13
2,46,87,115
2,39,0,3
2,46,0,111
2,36,87,2
2,36,0,222
2,36,89,8
2,36,0,221
2,36,89,9
2,36,0,218
2,36,85,13
2,36,0,108
2,28,85,7
2,29,89,115
2,28,0,3
2,29,0,219
2,34,84,9
2,36,86,115
2,34,0,5
2,36,0,108
2,29,86,2
2,29,0,218
2,29,87,12
2,29,0,115
2,36,86,1
2,36,0,115
2,33,89,0
2,33,0,218
2,33,85,12
2,36,88,115
2,33,0,3
2,34,87,113
2,36,0,1
2,34,0,215
2,34,84,14
2,41,84,115
2,34,0,3
2,39,89,112
2,41,0,5
2,39,0,214
2,39,87,12
2,34,90,115
2,39,0,1
2,32,89,114
2,34,0,2
2,32,0,214
2,32,88,15
2,39,90,115
2,32,0,5
2,42,87,110
2,39,0,1
2,42,0,220
2,42,86,9
2,42,0,115
2,37,87,1
2,38,88,115
2,37,0,3
2,38,0,217
2,38,87,10
2,42,89,115
2,38,0,3
2,42,0,112
2,43,88,1
2,43,0,220
2,43,85,10
2,43,0,110
2,38,90,5
2,39,84,115
2,38,0,15
2,39,0,199
2,39,84,17
2,46,90,115
2,39,0,1
2,46,0,113
2,36,84,1
2,36,0,226
2,36,90,5
2,36,0,219
2,36,84,11
2,36,0,221
2,36,89,9
2,36,0,108
2,28,88,8
2,29,86,115
2,28,0,3
2,29,0,217
2,34,86,10
2,36,87,115
2,34,0,8
2,36,0,104
2,29,84,4
2,29,0,216
2,29,90,14
2,36,87,115
2,29,0,2
2,33,84,113
2,36,0,3
2,33,0,213
2,33,87,15
2,36,88,115
2,33,0,1
2,34,88,114
2,36,0,3
2,34,0,216
2,34,84,12
2,41,85,115
2,34,0,3
2,39,86,112
2,41,0,3
2,39,0,220
2,39,87,7
2,39,0,116
2,34,87,0
2,32,90,115
2,34,0,1
2,32,0,213
2,32,87,16
2,39,89,115
2,32,0,8
2,39,0,108
2,42,89,0
2,42,0,219
2,42,90,11
2,37,90,115
2,42,0,2
2,38,87,113
2,37,0,7
2,38,0,211
2,38,90,13
2,42,88,115
2,38,0,1
2,43,89,114
2,42,0,2
2,43,0,222
2,43,87,7
2,43,0,110
2,38,90,5
2,39,86,115
2,38,0,12
2,39,0,206
2,39,86,12
2,39,0,116
2,46,90,0
2,46,0,113
2,36,85,2
2,36,0,223
2,36,87,7
2,36,0,222
2,36,87,9
2,36,0,219
2,36,89,11
2,36,0,107
2,28,87,8
2,29,87,115
2,28,0,7
2,29,0,211
2,34,87,13
2,34,0,121
3,53,88,0
3,57,73,36
3,53,0,26
3,60,84,13
3,57,0,40
3,60,0,0
3,64,91,0
3,60,82,38
3,57,76,39
3,60,0,6
3,64,0,1
3,57,0,29
3,53,86,0
3,57,84,39
3,60,82,38
3,60,0,39
3,64,94,0
3,60,79,40
3,57,0,6
3,60,0,30
3,57,86,2
3,53,0,5
3,64,0,0
3,57,0,6
3,53,88,27
3,57,73,36
3,60,84,39
3,53,0,40
3,57,0,0
3,60,0,0
3,64,91,0
3,60,82,38
3,57,76,38
3,60,0,4
3,64,0,3
3,57,0,30
3,53,86,0
3,57,84,39
3,60,82,38
3,60,0,38
3,64,94,0
3,60,79,40
3,57,0,6
3,60,0,31
3,57,86,2
3,64,0,3
3,53,0,1
3,57,0,5
3,52,84,27
3,57,97,39
3,60,82,22
3,60,0,38
3,64,84,0
3,60,79,39
3,57,0,1
3,57,79,37
3,60,0,2
3,52,0,6
3,64,0,0
3,57,0,29
3,52,84,2
3,57,79,38
3,60,76,38
3,60,0,39
3,64,84,0
3,57,0,38
3,60,78,0
3,57,84,39
3,52,0,4
3,64,0,0
3,60,0,2
3,57,0,2
3,53,84,30
3,58,91,16
3,62,77,40
3,65,82,38
3,62,0,2
3,62,78,37
3,58,0,6
3,58,78,32
3,62,0,3
3,65,0,3
3,53,0,2
3,58,0,29
3,53,82,1
3,58,88,37
3,62,76,40
3,62,0,37
3,65,82,2
3,62,79,38
3,58,0,5
3,65,0,3
3,58,84,29
3,62,0,3
3,53,0,1
3,58,0,2
3,55,97,27
3,58,84,27
3,62,76,37
3,65,82,38
3,62,0,2
3,62,76,38
3,58,0,5
3,65,0,0
3,58,82,34
3,62,0,3
3,55,0,1
3,58,0,34
3,55,84,0
3,58,97,39
3,62,76,36
3,65,76,39
3,62,0,1
3,62,81,39
3,58,0,3
3,65,0,3
3,58,88,32
3,62,0,3
3,55,0,7
3,58,0,1
3,56,88,28
3,60,82,37
3,63,79,37
3,63,0,38
3,67,88,0
3,60,0,5
3,63,79,34
3,60,76,40
3,67,0,3
3,56,0,6
3,63,0,1
3,56,91,28
3,60,0,2
3,60,82,36
3,63,68,37
3,63,0,39
3,67,84,0
3,63,76,38
3,60,0,2
3,67,0,6
3,56,0,8
3,60,84,22
3,63,0,7
3,60,0,6
3,54,88,27
3,58,79,22
3,61,76,37
3,61,0,40
3,65,78,0
3,58,0,17
3,61,78,21
3,65,0,21
3,54,0,15
3,58,76,2
3,61,0,2
3,54,84,35
3,58,0,3
3,58,79,37
3,61,75,37
3,61,0,37
3,65,78,3
3,58,0,17
3,61,76,20
3,65,0,37
3,58,82,3
3,61,0,1
3,54,0,1
3,58,0,2
3,54,94,25
3,57,81,24
3,60,77,38
3,64,79,40
3,60,0,7
3,57,0,3
3,54,0,9
3,60,78,20
3,64,0,9
3,60,0,28
3,57,78,0
3,57,0,12
3,54,84,27
3,57,82,27
3,60,76,40
3,54,0,29
3,57,0,8
3,60,0,0
3,62,78,0
3,60,79,40
3,62,0,10
3,57,84,27
3,60,0,2
3,57,0,8
3,55,84,27
3,59,79,29
3,62,79,38
3,62,0,40
3,66,84,0
3,62,79,39
3,59,0,9
3,59,76,29
3,62,0,6
3,66,0,3
3,55,0,3
3,55,88,26
3,59,0,2
3,59,76,37
3,62,79,37
3,66,84,40
3,59,0,5
3,62,0,0
3,62,76,33
3,59,67,38
3,55,0,3
3,62,0,2
3,66,0,0
3,59,0,8
3,55,97,26
3,58,84,22
3,61,73,37
3,61,0,38
3,65,88,0
3,58,0,5
3,61,76,34
3,58,84,40
3,61,0,5
3,55,0,1
3,65,0,0
3,58,0,31
3,55,82,1
3,58,84,37
3,61,68,40
3,61,0,37
3,65,82,0
3,58,0,5
3,61,82,35
3,61,0,38
3,58,91,0
3,65,0,5
3,55,0,5
3,58,0,1
3,55,88,28
3,58,82,35
3,60,73,37
3,60,0,40
3,64,84,0
3,58,0,3
3,60,82,35
3,58,88,39
3,55,0,3
3,60,0,1
3,64,0,3
3,55,84,31
3,58,0,3
3,58,84,35
3,60,75,37
3,60,0,39
3,64,88,0
3,58,0,1
3,60,76,39
3,60,0,32
3,58,84,4
3,55,0,4
3,64,0,0
3,55,88,36
3,58,0,5
3,58,84,32
3,60,73,40
3,60,0,37
3,64,91,0
3,58,0,36
3,60,77,4
3,64,0,6
3,55,0,30
3,58,84,1
3,60,0,3
3,55,84,37
3,58,0,1
3,58,86,37
3,60,77,37
3,64,91,38
3,60,0,2
3,58,0,6
3,60,86,32
3,64,0,8
3,60,0,31
3,58,88,0
3,55,0,2
3,58,0,3
3,53,97,28
3,57,82,32
3,60,76,40
3,60,0,35
3,64,84,2
3,60,82,38
3,57,0,2
3,60,0,37
3,57,78,0
3,64,0,4
3,53,0,4
3,57,0,1
3,53,91,29
3,58,84,28
3,62,84,40
3,53,0,4
3,58,0,0
3,62,0,3
3,55,91,27
3,58,88,14
3,60,86,0
3,60,0,12
3,55,0,1
3,58,0,1
3,53,88,0
3,57,73,37
3,60,84,38
3,64,91,40
3,60,0,2
3,60,82,37
3,57,0,7
3,57,76,31
3,60,0,3
3,53,0,5
3,64,0,1
3,57,0,28
3,53,86,0
3,57,84,38
3,60,82,39
3,60,0,38
3,64,94,0
3,60,79,40
3,57,0,2
3,60,0,35
3,57,86,1
3,64,0,4
3,53,0,1
3,57,0,4
3,52,84,27
3,57,97,38
3,60,82,23
3,60,0,38
3,64,84,0
3,60,79,38
3,57,0,5
3,57,79,34
3,60,0,1
3,52,0,5
3,64,0,2
3,57,0,29
3,52,84,1
3,57,79,39
3,60,76,38
3,60,0,38
3,64,84,0
3,57,0,39
3,60,78,0
3,57,84,38
3,60,0,3
3,64,0,0
3,52,0,5
3,57,0,0
3,53,84,31
3,58,91,15
3,62,77,40
3,65,82,39
3,62,0,1
3,62,78,37
3,58,0,3
3,58,78,36
3,65,0,4
3,62,0,2
3,53,0,0
3,58,0,30
3,53,82,2
3,58,88,37
3,62,76,40
3,62,0,37
3,65,82,1
3,62,79,39
3,58,0,9
3,65,0,2
3,58,84,25
3,62,0,4
3,53,0,5
3,58,0,1
3,55,97,27
3,58,84,27
3,62,76,37
3,65,82,38
3,62,0,2
3,62,76,38
3,58,0,3
3,65,0,2
3,58,82,33
3,55,0,2
3,62,0,2
3,58,0,35
3,55,84,0
3,58,97,38
3,62,76,37
3,65,76,38
3,62,0,2
3,62,81,38
3,58,0,7
3,65,0,0
3,58,88,32
3,62,0,3
3,55,0,4
3,58,0,1
3,56,88,27
3,60,82,37
3,63,79,36
3,63,0,39
3,67,88,0
3,60,0,5
3,63,79,33
3,60,76,40
3,67,0,5
3,63,0,3
3,56,0,5
3,56,91,26
3,60,0,4
3,60,82,34
3,63,68,37
3,63,0,38
3,67,84,0
3,63,76,39
3,60,0,1
3,67,0,5
3,56,0,8
3,60,84,24
3,63,0,8
3,60,0,5
3,54,88,27
3,58,79,22
3,61,76,37
3,61,0,40
3,65,78,0
3,58,0,16
3,61,78,23
3,65,0,23
3,58,76,15
3,54,0,2
3,61,0,0
3,54,84,35
3,58,0,3
3,58,79,37
3,61,75,37
3,61,0,36
3,65,78,4
3,58,0,15
3,61,76,21
3,65,0,37
3,58,82,3
3,61,0,2
3,54,0,5
3,58,0,1
3,54,94,26
3,57,81,24
3,60,77,38
3,64,79,40
3,60,0,6
3,57,0,6
3,54,0,5
3,60,78,21
3,64,0,10
3,60,0,27
3,57,78,0
3,57,0,13
3,54,84,27
3,57,82,27
3,60,76,40
3,54,0,32
3,57,0,5
3,60,0,0
3,62,78,0
3,60,79,40
3,62,0,9
3,57,84,28
3,60,0,1
3,57,0,8
3,55,84,27
3,59,79,28
3,62,79,39
3,62,0,40
3,66,84,0
3,62,79,38
3,59,0,7
3,59,76,32
3,66,0,7
3,62,0,2
3,55,0,0
3,55,88,29
3,59,0,2
3,59,76,36
3,62,79,37
3,66,84,40
3,62,0,3
3,59,0,2
3,62,76,34
3,59,67,38
3,62,0,5
3,55,0,2
3,66,0,1
3,59,0,5
3,55,97,25
3,58,84,22
3,61,73,37
3,61,0,38
3,65,88,0
3,58,0,2
3,61,76,36
3,58,84,40
3,55,0,3
3,61,0,2
3,65,0,2
3,58,0,30
3,55,82,2
3,58,84,37
3,61,68,40
3,61,0,36
3,65,82,0
3,58,0,7
3,61,82,33
3,61,0,39
3,58,91,0
3,65,0,5
3,55,0,2
3,58,0,1
3,55,88,27
3,58,82,35
3,60,73,36
3,60,0,40
3,64,84,0
3,58,0,4
3,60,82,35
3,58,88,38
3,60,0,2
3,55,0,4
3,64,0,1
3,55,84,32
3,58,0,6
3,58,84,32
3,60,75,37
3,60,0,38
3,64,88,0
3,58,0,2
3,60,76,38
3,60,0,32
3,58,84,5
3,55,0,2
3,64,0,0
3,55,88,38
3,58,0,5
3,58,84,32
3,60,73,40
3,60,0,37
3,64,91,0
3,58,0,36
3,60,77,4
3,64,0,8
3,58,84,28
3,55,0,4
3,60,0,0
3,55,84,36
3,58,0,2
3,58,86,37
3,60,77,37
3,64,91,38
3,60,0,2
3,58,0,4
3,60,86,34
3,64,0,8
3,60,0,30
3,55,0,0
3,58,88,0
3,58,0,3
3,53,97,27
3,57,82,32
3,60,76,40
3,60,0,35
3,64,84,1
3,60,82,39
3,57,0,3
3,60,0,35
3,57,78,0
3,64,0,5
3,53,0,1
3,57,0,4
3,53,91,29
3,58,84,29
3,62,84,40
3,58,0,3
3,53,0,2
3,62,0,3
3,55,91,27
3,58,88,14
3,60,86,0
3,58,0,11
3,55,0,2
3,60,0,0
3,53,88,0
3,57,73,36
3,60,84,39
3,64,91,40
3,60,0,1
3,60,82,37
3,57,0,5
3,57,76,34
3,53,0,6
3,60,0,0
3,64,0,1
3,57,0,29
3,53,86,0
3,57,84,39
3,60,82,38
3,60,0,39
3,64,94,0
3,60,79,40
3,57,0,6
3,60,0,30
3,57,86,2
3,53,0,5
3,64,0,0
3,57,0,4
3,52,84,27
3,57,97,39
3,60,82,22
3,60,0,39
3,64,84,0
3,60,79,38
3,57,0,3
3,57,79,35
3,60,0,2
3,52,0,1
3,64,0,5
3,57,0,29
3,52,84,2
3,57,79,38
3,60,76,39
3,60,0,38
3,64,84,0
3,60,78,38
3,57,0,3
3,57,84,36
3,60,0,3
3,64,0,0
3,52,0,3
3,57,0,2
3,53,84,30
3,58,91,16
3,62,77,40
3,65,82,38
3,62,0,2
3,62,78,37
3,58,0,3
3,58,78,35
3,62,0,3
3,65,0,0
3,53,0,7
3,58,0,27
3,53,82,2
3,58,88,36
3,62,76,40
3,62,0,37
3,65,82,2
3,62,79,38
3,58,0,7
3,65,0,1
3,58,84,29
3,53,0,6
3,62,0,0
3,58,0,2
3,55,97,27
3,58,84,27
3,62,76,37
3,65,82,39
3,62,0,1
3,58,0,38
3,62,76,1
3,65,0,6
3,58,82,32
3,62,0,3
3,55,0,2
3,58,0,33
3,55,84,0
3,58,97,39
3,62,76,37
3,65,76,38
3,62,0,2
3,62,81,38
3,58,0,4
3,65,0,2
3,58,88,32
3,62,0,4
3,55,0,1
3,58,0,2
