track,note,velocity,time
3,83,110,10752
3,83,110,8
3,83,110,8
3,83,110,8
3,83,110,8
3,83,110,8
3,83,110,8
3,83,110,8
3,78,110,8
3,76,110,8
3,83,110,3464
3,83,110,8
3,83,110,8
3,83,110,8
3,83,110,8
3,83,110,8
3,83,110,8
3,83,110,8
3,80,110,8
3,82,115,8
3,82,115,8
3,82,115,8
3,83,115,8
3,76,115,8
3,75,115,8
3,73,115,8
3,71,115,8
3,73,115,8
3,67,115,8
3,67,115,8
3,67,115,8
3,67,115,8
3,68,115,8
3,68,115,8
3,68,115,8
3,68,115,8
3,70,115,8
3,70,115,200
3,70,115,8
3,72,115,8
3,74,115,104
3,74,115,8
3,70,118,104
3,79,118,0
3,70,118,8
3,79,118,0
3,70,118,8
3,79,118,0
3,70,118,8
3,79,118,0
3,70,118,8
3,79,118,0
3,70,118,8
3,80,118,0
3,79,118,8
3,82,118,0
3,68,118,8
3,72,118,0
3,68,118,8
3,72,118,0
3,72,118,8
3,75,118,8
3,84,118,0
3,75,118,8
3,82,118,0
3,70,118,8
3,74,118,0
3,70,118,104
3,79,118,0
3,70,118,8
3,79,118,0
3,70,118,8
3,79,118,0
3,70,118,8
3,79,118,0
3,70,118,8
3,79,118,0
3,70,118,8
3,80,118,0
3,79,118,8
3,82,118,0
3,68,118,8
3,75,118,0
3,68,118,8
3,75,118,0
3,72,118,8
3,75,118,8
3,84,118,0
3,75,118,8
3,82,118,0
3,70,118,8
3,74,118,0
3,73,100,392
3,82,100,0
3,73,100,8
3,82,100,0
3,73,100,8
3,82,100,0
3,73,100,8
3,82,100,0
3,73,100,8
3,83,100,0
3,78,100,8
3,85,100,0
3,83,100,200
3,83,100,8
3,83,100,8
3,83,100,8
3,83,100,8
3,83,100,8
3,86,100,8
3,86,100,8
3,83,100,8
3,70,100,392
3,70,100,8
3,70,100,8
3,71,100,8
3,73,100,8
3,71,100,8
3,70,100,8
3,83,100,8
3,85,100,8
3,85,100,8
3,75,127,6536
3,83,127,0
3,75,127,8
3,83,127,0
3,83,127,8
3,75,127,192
3,83,127,8
3,75,127,8
3,83,127,0
3,75,127,8
3,83,127,0
3,75,127,8
3,83,127,0
3,83,127,8
3,78,127,8
3,80,127,8
3,76,127,0
3,75,100,4232
3,83,100,0
3,83,100,8
3,75,100,0
3,75,100,104
3,83,100,0
3,83,100,8
3,75,100,0
3,75,100,8
3,83,100,0
3,75,100,8
3,83,100,0
3,76,100,8
3,83,100,0
3,82,127,1160
3,82,127,104
3,83,127,8
3,73,127,584
3,76,127,0
3,71,127,0
3,76,127,0
3,69,127,0
3,76,127,24
3,68,127,0
3,76,127,96
3,67,127,384
3,67,127,8
3,67,127,8
3,82,127,8
3,67,127,0
3,68,127,8
3,83,127,96
3,68,127,8
3,68,127,8
3,68,127,8
3,78,127,8
3,70,127,0
3,70,127,8
3,70,127,8
3,72,127,8
3,72,127,8
3,72,127,8
3,74,127,8
3,74,127,8
3,70,100,104
3,79,100,0
3,70,100,8
3,79,100,0
3,70,100,8
3,79,100,0
3,70,100,8
3,79,100,0
3,70,100,8
3,79,100,0
3,79,100,8
3,70,100,0
3,80,100,0
3,82,100,8
3,68,100,8
3,75,100,0
3,68,100,8
3,75,100,0
3,84,100,8
3,75,100,8
3,84,100,0
3,75,100,8
3,82,100,0
3,70,100,8
3,74,100,0
3,70,100,104
3,79,100,0
3,70,100,8
3,79,100,0
3,70,100,8
3,79,100,0
3,70,100,8
3,79,100,0
3,70,100,8
3,79,100,0
3,75,100,8
3,70,100,0
3,80,100,0
3,82,100,8
3,68,100,8
3,75,100,0
3,68,100,8
3,75,100,0
3,84,100,8
3,75,100,8
3,84,100,0
3,75,100,8
3,82,100,0
3,70,100,8
3,74,100,0
3,73,105,392
3,82,105,0
3,73,105,8
3,82,105,0
3,73,105,8
3,82,105,0
3,73,105,8
3,82,105,0
3,73,105,8
3,83,105,0
3,85,105,8
3,78,105,0
3,83,105,8
3,83,105,8
3,83,105,8
3,83,105,8
3,83,105,8
3,83,105,8
3,86,105,8
3,86,105,8
3,83,105,8
3,82,105,392
3,82,105,8
3,87,105,8
3,85,105,8
3,83,105,8
3,82,105,8
3,82,105,8072
3,82,105,8
3,82,105,8
3,82,105,8
3,83,105,8
3,85,105,8
3,83,105,200
3,83,105,8
3,83,105,8
3,83,105,8
3,83,105,8
3,83,105,8
3,86,105,8
3,86,105,8
3,83,105,8
3,70,105,392
3,70,105,8
3,70,105,8
3,71,105,8
3,85,105,8
3,83,105,8
3,82,105,8
3,82,105,8
3,85,105,8
3,83,105,8
3,82,105,8
3,72,77,8
3,81,77,0
3,84,77,8
3,93,77,0
3,84,77,8
3,93,77,0
3,84,77,8
3,93,77,0
3,84,77,8
3,93,77,0
3,84,77,8
3,93,77,0
3,93,77,8
3,82,77,8
3,89,77,0
3,82,77,8
3,89,77,0
3,94,77,8
3,86,77,0
3,77,77,8
3,86,77,0
3,77,77,8
3,84,77,0
3,84,77,8
3,88,77,0
3,84,77,296
3,93,77,0
3,84,77,8
3,93,77,0
3,84,77,8
3,93,77,0
3,84,77,8
3,93,77,0
3,84,77,8
3,93,77,0
3,89,77,8
3,84,77,0
3,94,77,0
3,96,77,8
3,82,77,8
3,89,77,0
3,82,77,8
3,89,77,0
3,94,77,8
3,86,77,0
3,77,77,8
3,86,77,0
3,77,77,8
3,84,77,0
3,84,77,8
3,88,77,0
4,84,70,1152
4,68,70,0
4,85,70,8
4,70,70,0
4,87,70,8
4,72,70,0
4,85,70,8
4,70,70,0
4,84,70,8
4,68,70,0
4,87,70,8
4,61,70,0
4,80,70,16
4,68,70,8
4,87,70,8
4,73,70,0
4,80,70,16
4,68,70,8
4,80,70,8
4,63,70,0
4,87,70,8
4,82,70,16
4,70,70,8
4,87,70,8
4,75,70,0
4,82,70,16
4,70,70,8
4,82,70,8
4,68,70,0
4,84,70,8
4,87,70,16
4,75,70,8
4,84,70,8
4,80,70,0
4,87,70,16
4,75,70,8
4,75,105,8
4,72,105,0
4,68,105,0
4,68,105,8
4,72,105,96
4,75,105,80
4,77,105,32
4,73,105,0
4,68,105,0
4,75,105,0
4,70,105,0
4,67,105,0
4,75,105,0
4,79,105,40
4,82,105,96
4,87,105,0
4,82,105,96
4,79,105,0
4,75,87,0
4,71,87,0
4,66,87,0
4,78,100,32
4,75,70,0
4,71,72,0
4,78,100,0
4,75,100,0
4,73,100,0
4,82,100,0
4,73,74,72
4,78,70,96
4,82,91,0
4,78,85,0
4,75,85,0
4,71,85,0
4,80,85,0
4,66,58,8
4,71,80,96
4,75,85,80
4,78,85,0
4,75,85,0
4,71,85,0
4,80,85,0
4,66,58,8
4,71,80,96
4,75,85,80
4,76,87,0
4,71,87,0
4,68,87,0
4,76,87,0
4,71,87,0
4,68,87,0
4,78,87,0
4,73,87,0
4,70,87,0
4,75,93,8
4,71,93,0
4,66,93,0
4,75,91,40
4,71,91,0
4,66,91,0
4,59,82,96
4,75,89,112
4,71,89,0
4,66,89,0
4,78,93,8
4,75,93,0
4,73,93,0
4,82,93,0
4,78,91,40
4,75,91,0
4,73,91,0
4,82,91,0
4,63,82,96
4,78,89,112
4,75,89,0
4,73,89,0
4,82,89,0
4,78,85,0
4,75,85,0
4,71,85,0
4,80,85,0
4,66,58,8
4,71,80,96
4,75,85,80
4,78,85,0
4,75,85,0
4,71,85,0
4,80,85,0
4,66,58,8
4,71,80,96
4,75,85,80
4,76,91,0
4,80,80,96
4,83,82,32
4,76,89,0
4,71,89,0
4,68,89,0
4,76,98,152
4,71,98,0
4,68,98,0
4,83,93,384
4,88,102,8
4,92,89,8
4,73,87,0
4,70,87,0
4,66,87,0
4,85,89,8
4,82,89,8
4,90,80,8
4,82,80,16
4,75,85,0
4,71,85,0
4,66,85,0
4,87,93,0
4,78,80,16
4,83,89,8
4,87,76,8
4,83,76,16
4,66,58,8
4,75,80,96
4,87,85,0
4,76,87,0
4,71,87,0
4,68,87,0
4,88,85,0
4,83,76,16
4,76,76,0
4,83,85,32
4,88,85,16
4,76,87,0
4,80,87,0
4,71,87,0
4,83,87,0
4,92,85,0
4,88,72,16
4,79,85,0
4,75,85,0
4,70,85,0
4,75,58,8
4,79,80,96
4,82,85,80
4,75,87,0
4,71,87,0
4,68,87,0
4,77,87,0
4,73,87,0
4,68,87,0
4,78,87,0
4,73,87,0
4,70,87,0
4,75,87,0
4,70,87,0
4,67,87,0
4,75,87,0
4,72,87,0
4,68,87,0
4,74,87,0
4,70,87,0
4,65,87,0
4,75,87,0
4,70,87,0
4,67,87,0
4,75,87,0
4,70,87,0
4,67,87,0
4,75,85,0
4,72,85,0
4,68,85,0
4,68,85,8
4,72,85,96
4,75,85,80
4,75,87,0
4,70,87,0
4,67,87,0
4,77,87,0
4,74,87,0
4,70,87,0
4,75,87,0
4,70,87,0
4,67,87,0
4,75,87,0
4,70,87,0
4,67,87,0
4,75,87,0
4,72,87,0
4,68,87,0
4,79,87,0
4,75,87,0
4,70,87,0
4,74,87,0
4,70,87,0
4,65,87,0
4,73,87,0
4,70,87,0
4,66,87,0
4,77,85,0
4,73,85,0
4,68,85,0
4,73,85,8
4,77,85,96
4,80,85,80
4,75,85,0
4,71,85,0
4,66,85,0
4,71,85,8
4,75,85,96
4,78,85,80
4,74,85,0
4,71,85,0
4,66,85,0
4,71,85,8
4,74,85,96
4,78,85,80
4,73,87,0
4,70,87,0
4,66,87,0
4,75,87,0
4,71,87,0
4,66,87,0
4,75,85,0
4,71,85,0
4,66,85,0
4,71,85,8
4,75,85,96
4,78,85,80
4,77,87,0
4,73,87,0
4,68,87,0
4,78,93,0
4,73,93,0
4,70,93,0
4,78,95,72
4,73,95,0
4,70,95,0
4,52,85,128
4,78,95,96
4,73,95,0
4,70,95,0
4,75,105,0
4,71,105,0
4,66,105,0
4,59,105,24
4,75,105,16
4,71,105,0
4,66,105,0
4,76,105,0
4,71,105,0
4,68,105,0
4,76,105,8
4,80,105,96
4,83,105,80
4,78,105,0
4,73,105,0
4,70,105,0
4,66,105,8
4,70,105,96
4,73,105,80
4,75,87,0
4,71,87,0
4,66,87,0
4,78,100,32
4,75,85,0
4,71,85,0
4,78,98,0
4,75,98,0
4,73,98,0
4,82,98,0
4,63,85,24
4,78,102,16
4,75,102,0
4,73,102,0
4,82,102,0
4,78,85,0
4,75,85,0
4,71,85,0
4,80,85,0
4,66,85,8
4,71,85,96
4,75,85,80
4,78,85,0
4,75,85,0
4,71,85,0
4,80,85,0
4,66,85,8
4,71,85,96
4,75,85,80
4,76,85,0
4,71,85,0
4,68,85,0
4,76,85,8
4,80,85,96
4,83,85,80
4,76,102,0
4,71,102,0
4,68,102,0
4,82,102,0
4,78,102,0
4,73,102,0
4,75,93,8
4,71,93,0
4,66,93,0
4,75,91,40
4,71,91,0
4,66,91,0
4,59,85,144
4,75,89,112
4,71,89,0
4,66,89,0
4,78,95,0
4,75,95,0
4,73,95,0
4,82,95,0
4,73,85,0
4,75,87,96
4,78,85,40
4,82,85,80
4,87,85,0
4,82,85,96
4,78,85,0
4,78,87,0
4,75,87,0
4,71,87,0
4,80,87,0
4,78,87,0
4,75,87,0
4,71,87,0
4,80,87,0
4,76,98,0
4,71,98,0
4,68,98,0
4,64,102,24
4,76,102,16
4,71,102,0
4,68,102,0
4,78,87,0
4,73,87,0
4,70,87,0
4,75,85,0
4,71,85,0
4,66,85,0
4,71,85,8
4,75,85,96
4,78,85,80
4,76,87,0
4,71,87,0
4,68,87,0
4,76,87,0
4,73,87,0
4,69,87,0
4,83,87,0
4,75,87,0
4,70,87,0
4,67,87,0
4,75,87,0
4,71,87,0
4,68,87,0
4,77,87,0
4,73,87,0
4,68,87,0
4,73,87,0
4,70,87,0
4,66,87,0
4,75,87,0
4,70,87,0
4,67,87,0
4,75,87,0
4,72,87,0
4,68,87,0
4,77,87,0
4,74,87,0
4,70,87,0
4,75,85,0
4,70,85,0
4,67,85,0
4,75,85,8
4,79,85,96
4,82,85,80
4,79,85,0
4,75,85,0
4,70,85,0
4,75,85,8
4,79,85,96
4,82,85,80
4,75,87,0
4,72,87,0
4,68,87,0
4,75,87,0
4,70,87,0
4,67,87,0
4,77,87,0
4,74,87,0
4,70,87,0
4,75,85,0
4,70,85,0
4,67,85,0
4,75,85,8
4,79,85,96
4,82,85,80
4,75,85,0
4,70,85,0
4,67,85,0
4,75,85,8
4,79,85,96
4,82,85,80
4,75,85,0
4,72,85,0
4,68,85,0
4,68,85,8
4,72,85,96
4,75,85,80
4,75,87,0
4,70,87,0
4,67,87,0
4,77,87,0
4,74,87,0
4,70,87,0
4,73,87,0
4,70,87,0
4,66,87,0
4,77,85,0
4,73,85,0
4,68,85,0
4,73,85,8
4,77,85,96
4,80,85,80
4,75,85,0
4,71,85,0
4,66,85,0
4,71,85,8
4,75,85,96
4,78,85,80
4,74,87,0
4,71,87,0
4,66,87,0
4,82,87,0
4,78,87,0
4,73,87,0
4,75,87,0
4,71,87,0
4,66,87,0
4,77,87,0
4,75,87,0
4,71,87,0
4,80,87,0
4,75,85,0
4,71,85,0
4,66,85,0
4,71,85,8
4,75,85,96
4,78,85,80
4,77,87,0
4,74,87,0
4,70,87,0
4,75,102,0
4,70,102,0
4,67,102,0
4,75,102,0
4,70,102,0
4,67,102,0
4,75,102,0
4,72,102,0
4,68,102,0
4,68,102,8
4,72,102,96
4,75,102,80
4,75,102,0
4,70,102,0
4,67,102,0
4,77,102,0
4,74,102,0
4,70,102,0
4,75,102,0
4,70,102,0
4,67,102,0
4,75,102,0
4,70,102,0
4,67,102,0
4,75,102,8
4,79,102,96
4,82,102,80
4,75,102,0
4,72,102,0
4,68,102,0
4,75,102,0
4,70,102,0
4,67,102,0
4,77,102,0
4,74,102,0
4,70,102,0
4,82,85,0
4,78,85,0
4,73,85,0
4,66,85,8
4,70,85,96
4,73,85,80
4,77,85,0
4,73,85,0
4,68,85,0
4,73,85,8
4,77,85,96
4,80,85,80
4,75,85,0
4,71,85,0
4,66,85,0
4,71,85,8
4,75,85,96
4,78,85,80
4,74,85,0
4,71,85,0
4,66,85,0
4,71,85,8
4,74,85,96
4,78,85,80
4,78,87,0
4,73,87,0
4,70,87,0
4,75,85,0
4,71,85,0
4,66,85,0
4,71,85,8
4,75,85,96
4,78,85,80
4,75,87,0
4,71,87,0
4,66,87,0
4,77,87,0
4,73,87,0
4,68,87,0
4,77,87,0
4,74,87,0
4,70,87,0
4,77,87,0
4,72,87,0
4,69,87,0
4,77,85,0
4,72,85,0
4,69,85,0
4,77,102,8
4,81,102,96
4,84,102,80
4,77,85,0
4,74,85,0
4,70,85,0
4,70,85,8
4,74,85,96
4,77,85,80
4,77,87,0
4,72,87,0
4,69,87,0
4,76,87,0
4,72,87,0
4,67,87,0
4,77,87,0
4,72,87,0
4,69,87,0
4,77,85,0
4,74,85,0
4,69,85,0
4,74,102,8
4,77,102,96
4,81,102,80
4,77,87,0
4,74,87,0
4,70,87,0
4,77,87,0
4,72,87,0
4,69,87,0
4,77,87,0
4,74,87,0
4,70,87,0
4,81,87,0
4,76,87,0
4,72,87,0
4,67,87,0
4,77,87,0
4,72,87,0
4,69,87,0
4,77,87,0
4,72,87,0
4,69,87,0
4,77,85,0
4,74,85,0
4,70,85,0
4,70,58,8
4,74,80,96
4,77,85,80
4,77,87,0
4,72,87,0
4,69,87,0
4,76,87,0
4,72,87,0
4,67,87,0
4,77,87,0
4,72,87,0
4,69,87,0
4,77,87,0
4,74,87,0
4,72,87,0
4,81,87,0
4,77,87,0
4,74,87,0
4,70,87,0
4,77,87,0
4,72,87,0
4,69,87,0
4,77,87,0
4,74,87,0
4,70,87,0
4,79,87,0
4,76,87,0
4,72,87,0
4,67,87,0
4,77,85,0
4,72,85,0
4,69,85,0
4,77,58,8
4,81,80,32
4,84,85,80
4,77,85,0
4,72,85,0
4,69,85,0
4,77,102,8
4,81,102,64
4,84,102,80
4,74,87,0
4,70,87,0
