track,note,velocity,time
1,0,0,990
1,0,0,0
1,0,0,0
1,0,0,0
1,0,0,0
1,0,0,0
1,0,0,0
1,0,0,0
9,55,106,9177
9,60,111,60
9,55,0,6
9,60,0,60
9,62,104,54
9,62,0,59
9,64,108,61
9,62,106,60
9,64,0,6
9,60,106,114
9,62,0,6
9,60,0,83
9,63,116,211
9,65,112,120
9,63,0,3
9,65,0,53
9,67,113,4
9,67,0,146
9,65,116,34
9,63,111,60
9,65,0,3
9,63,0,52
9,67,115,5
9,65,112,120
9,67,0,3
9,62,107,57
9,65,0,11
9,60,100,109
9,62,0,1
9,58,108,59
9,60,0,3
9,58,0,32
9,67,110,85
9,67,0,120
9,65,111,0
9,65,0,110
9,62,107,10
9,60,103,120
9,62,0,3
9,60,0,217
9,67,112,380
9,65,111,120
9,67,0,6
9,62,110,114
9,65,0,3
9,62,0,117
9,60,105,0
9,60,0,257
9,55,106,523
9,60,111,60
9,55,0,3
9,60,0,73
9,62,108,44
9,62,0,59
9,64,112,61
9,62,106,60
9,64,0,6
9,60,108,114
9,62,0,6
9,60,0,83
9,63,107,211
9,65,112,120
9,63,0,3
9,65,0,53
9,67,113,4
9,67,0,136
9,65,116,44
9,63,111,60
9,65,0,3
9,67,115,57
9,63,0,3
9,65,112,117
9,67,0,6
9,65,0,54
9,62,107,0
9,60,100,120
9,62,0,1
9,60,0,59
9,58,108,0
9,58,0,35
9,67,110,85
9,67,0,120
9,65,111,0
9,65,0,120
9,62,107,0
9,60,104,120
9,62,0,3
9,60,0,277
9,67,108,320
9,65,104,120
9,67,0,6
9,62,111,114
9,65,0,3
9,60,105,117
9,62,0,6
9,60,0,251
9,62,104,523
9,62,0,60
9,69,115,0
9,69,0,120
9,70,117,0
9,69,117,60
9,70,0,3
9,69,0,110
9,67,113,67
9,67,0,60
9,65,105,0
9,64,103,180
9,65,0,6
9,64,0,75
9,65,114,39
9,65,0,120
9,67,107,0
9,65,114,60
9,67,0,2
9,65,0,124
9,64,108,54
9,62,108,60
9,64,0,1
9,62,0,185
9,62,105,534
9,69,116,60
9,62,0,10
9,69,0,91
9,70,115,19
9,70,0,46
9,69,122,14
9,67,113,120
9,69,0,6
9,65,111,54
9,67,0,3
9,65,0,140
9,64,106,97
9,64,0,96
9,65,118,24
9,65,0,94
9,67,117,26
9,65,117,60
9,67,0,3
9,64,115,117
9,65,0,6
9,64,0,37
9,64,109,7
9,62,112,10
9,64,0,3
9,62,0,277
9,55,106,980
9,60,111,60
9,55,0,3
9,60,0,77
9,62,112,40
9,62,0,59
9,64,108,61
9,62,106,120
9,64,0,6
9,60,106,54
9,62,0,1
9,60,0,88
9,63,116,211
9,63,0,120
9,65,112,0
9,65,0,56
9,67,113,4
9,67,0,120
9,65,116,60
9,63,111,60
9,65,0,3
9,63,0,52
9,67,115,5
9,65,112,120
9,67,0,6
9,62,107,54
9,65,0,11
9,60,100,109
9,62,0,1
9,58,108,59
9,60,0,6
9,58,0,29
9,67,115,85
9,67,0,120
9,65,111,0
9,65,0,120
9,62,105,0
9,60,106,120
9,62,0,3
9,60,0,230
9,67,116,367
9,65,104,120
9,67,0,6
9,62,107,114
9,65,0,6
9,60,102,114
9,62,0,6
9,60,0,251
9,55,106,523
9,55,0,37
9,60,111,23
9,60,0,73
9,62,113,47
9,62,0,59
9,64,108,61
9,62,109,120
9,64,0,1
9,60,106,59
9,62,0,1
9,60,0,88
9,63,116,211
9,63,0,120
9,65,112,0
9,65,0,56
9,67,113,4
9,67,0,106
9,65,116,74
9,63,111,60
9,65,0,3
9,63,0,52
9,67,115,5
9,65,112,120
9,67,0,3
9,62,107,57
9,65,0,11
9,60,100,109
9,62,0,1
9,60,0,59
9,58,108,0
9,58,0,35
9,67,111,85
9,65,111,120
9,67,0,3
9,65,0,117
9,62,105,0
9,62,0,120
9,60,106,0
9,60,0,230
9,67,109,370
9,65,107,120
9,67,0,3
9,65,0,117
9,62,104,0
9,60,102,120
9,62,0,3
9,60,0,254
9,62,104,523
9,62,0,54
9,69,116,6
9,69,0,120
9,70,117,0
9,70,0,54
9,69,117,6
9,69,0,116
9,67,113,64
9,67,0,54
9,65,105,6
9,65,0,133
9,64,103,47
9,65,114,120
9,64,0,3
9,65,0,85
9,67,107,32
9,65,114,60
9,67,0,2
9,65,0,137
9,64,111,41
9,62,108,60
9,64,0,1
9,62,0,238
9,62,109,481
9,62,0,60
9,69,118,0
9,70,115,120
9,69,0,5
9,69,122,55
9,70,0,3
9,67,113,117
9,69,0,3
9,67,0,57
9,65,111,0
9,65,0,153
9,64,106,87
9,64,0,85
9,65,118,35
9,65,0,120
9,67,117,0
9,65,117,60
9,67,0,5
9,65,0,115
9,64,115,0
9,64,0,30
9,64,109,10
9,62,112,20
9,64,0,6
9,62,0,294
9,62,109,780
9,62,0,76
9,64,109,104
9,64,0,79
9,65,109,41
9,65,0,439
9,57,114,10781
9,57,0,68
9,57,107,52
9,61,113,60
9,57,0,3
9,61,0,101
9,69,115,76
9,71,112,60
9,69,0,6
9,71,0,114
9,68,112,0
9,68,0,57
9,66,112,3
9,66,0,56
9,64,112,4
9,64,0,135
9,68,116,405
9,66,117,240
9,68,0,6
9,66,0,114
9,63,107,0
9,63,0,57
9,61,105,3
9,61,0,60
9,59,114,0
9,59,0,138
9,61,109,102
9,61,0,60
9,61,107,60
9,66,112,60
9,61,0,11
9,66,0,143
9,70,115,26
9,68,108,120
9,70,0,3
9,68,0,117
9,65,114,0
9,63,114,60
9,65,0,2
9,61,106,58
9,63,0,12
9,61,0,109
9,57,112,1079
9,61,106,60
9,57,0,5
9,61,0,115
9,64,114,60
9,64,0,120
9,69,118,0
9,69,0,120
9,71,113,0
9,68,112,120
9,71,0,10
9,66,112,50
9,68,0,7
9,64,105,53
9,66,0,6
9,64,0,116
9,68,120,118
9,66,108,120
9,68,0,6
9,66,0,50
9,64,109,4
9,68,116,60
9,64,0,7
9,68,0,104
9,64,104,9
9,66,115,60
9,64,0,10
9,66,0,143
9,73,108,387
9,70,113,120
9,73,0,3
9,68,108,57
9,70,0,11
9,70,116,49
9,68,0,3
9,68,101,57
9,70,0,4
9,66,109,56
9,68,0,4
9,68,113,56
9,66,0,3
9,68,0,176
10,61,91,47401
10,65,91,0
10,61,0,232
10,65,0,3
10,59,89,1
10,63,84,0
10,61,70,241
10,63,0,1
10,57,94,0
10,59,0,1
10,61,0,492
10,57,0,5
10,61,101,2864
10,65,101,0
10,61,0,232
10,65,0,3
10,59,89,1
10,63,84,0
10,61,70,236
10,63,0,6
10,57,94,0
10,59,0,1
10,61,0,492
10,57,0,5
11,69,108,4187
11,69,0,90
11,72,101,90
11,72,0,116
11,71,101,4
11,71,0,1054
11,71,103,86
11,71,0,103
11,72,112,77
11,69,102,120
11,72,0,5
11,69,0,1080
11,64,60,55
11,67,70,0
11,67,0,927
11,64,0,0
11,67,104,513
11,67,0,95
11,64,98,25
11,64,0,80
11,65,108,40
11,67,107,60
11,65,0,10
11,65,98,50
11,67,0,10
11,64,87,50
11,65,0,5
11,64,0,515
11,60,88,3380
11,60,0,840
11,67,114,0
11,67,0,54
11,65,112,6
11,63,93,60
11,65,0,1
11,62,88,479
11,63,0,3
11,62,0,463
11,62,110,614
11,60,111,60
11,62,0,6
11,57,112,54
11,60,0,3
11,55,113,57
11,57,0,10
11,53,114,50
11,55,0,6
11,53,0,50
11,50,116,4
11,50,0,43
11,50,106,17
11,53,88,0
11,53,0,37
11,50,0,4
11,48,97,79
11,53,97,0
11,48,0,46
11,53,0,3
11,48,89,188
11,55,89,0
11,55,0,596
11,48,0,0
11,57,89,7
11,64,89,0
11,64,0,963
11,57,0,0
11,69,113,717
11,64,81,240
11,57,90,0
11,69,0,6
11,64,0,950
11,57,0,14
11,76,104,950
11,74,104,60
11,76,0,3
11,74,0,57
11,72,93,0
11,69,99,60
11,72,0,6
11,67,112,54
11,69,0,3
11,64,107,57
11,67,0,6
11,62,101,52
11,64,0,8
11,60,92,114
11,62,0,6
11,60,0,834
11,67,114,0
11,65,112,60
11,67,0,3
11,63,93,57
11,65,0,1
11,62,88,479
11,63,0,6
11,58,91,474
11,62,0,6
11,58,0,58
11,62,104,53
11,62,0,86
11,65,97,37
11,65,0,80
11,64,96,42
11,62,111,238
11,64,0,2
11,60,111,58
11,62,0,3
11,57,111,57
11,60,0,10
11,55,111,50
11,57,0,6
11,53,111,54
11,55,0,6
11,50,111,54
11,53,0,6
11,50,0,37
11,50,91,17
11,53,91,0
11,53,0,37
11,50,0,4
11,48,96,79
11,53,96,0
11,48,0,46
11,53,0,3
11,48,91,191
11,55,91,0
11,60,80,600
11,55,0,3
11,48,0,3
11,67,100,834
11,60,0,3
11,67,0,51
11,65,112,6
11,63,89,60
11,65,0,1
11,63,0,478
11,62,88,1
11,62,0,486
11,62,104,594
11,62,0,60
11,60,104,0
11,60,0,60
11,57,95,0
11,55,104,60
11,57,0,6
11,53,95,54
11,55,0,6
11,53,0,50
11,50,106,4
11,50,0,46
11,50,106,14
11,53,88,0
11,53,0,37
11,50,0,4
11,48,99,79
11,53,99,0
11,48,0,46
11,53,0,3
11,48,92,188
11,55,92,0
11,55,0,596
11,57,89,7
11,64,89,0
11,48,0,3
11,64,0,963
11,57,0,0
11,69,111,714
11,64,84,240
11,57,84,0
11,69,0,3
11,57,0,957
11,64,0,0
11,69,99,0
11,69,0,90
11,72,101,90
11,71,88,120
11,72,0,3
11,71,0,1051
11,71,103,86
11,71,0,103
11,72,98,77
11,69,90,120
11,72,0,3
11,69,0,1082
11,69,93,55
11,69,0,90
11,72,101,90
11,71,91,120
11,72,0,6
11,71,0,1048
11,71,95,86
11,71,0,103
11,72,103,77
11,69,90,120
11,72,0,16
11,69,0,1124
11,64,60,0
11,67,70,0
11,64,0,953
11,67,0,3
11,68,89,13804
11,68,0,31
11,68,82,29
11,71,92,60
11,68,0,9
11,68,98,111
11,71,0,7
11,68,0,113
11,71,100,0
11,68,101,120
11,71,0,4
11,68,0,116
11,66,97,0
11,66,0,485
11,66,100,115
11,66,0,34
11,66,92,86
11,68,110,60
11,66,0,3
11,68,0,36
11,68,101,381
11,68,0,157
11,68,87,23
11,68,0,40
11,71,110,20
11,71,0,106
11,68,109,14
11,68,0,36
11,71,101,84
11,71,0,119
11,68,110,1
11,68,0,44
11,66,98,76
11,66,0,535
11,66,91,65
11,66,0,34
11,66,82,86
11,66,0,60
11,68,99,0
11,68,0,39
11,68,99,261
11,68,0,28
11,68,95,32
11,68,0,60
11,71,107,0
11,71,0,107
11,68,87,13
11,68,0,24
11,68,80,36
11,71,100,60
11,68,0,3
11,68,89,117
11,71,0,5
11,68,0,18
11,68,80,37
11,68,0,30
11,71,104,30
11,68,104,120
11,71,0,2
11,68,0,54
11,66,96,4
11,66,0,700
11,66,90,80
11,68,111,60
11,66,0,1
11,68,0,32
11,68,91,387
11,68,0,139
11,68,62,41
11,71,92,60
11,68,0,3
11,71,0,113
11,68,77,4
11,68,0,24
11,71,90,96
11,68,100,120
11,71,0,2
11,66,100,58
11,68,0,9
11,66,0,641
11,66,90,10
11,66,0,34
11,66,80,86
11,68,101,60
11,66,0,3
11,68,0,42
11,68,78,255
11,68,0,25
11,68,79,35
11,68,0,32
11,71,103,28
11,68,74,120
11,71,0,4
11,68,0,12
11,68,86,44
11,68,0,22
11,71,101,38
11,68,80,120
11,71,0,7
11,68,0,17
11,68,78,36
11,68,0,31
11,71,98,29
11,71,0,115
11,68,101,5
11,66,99,60
11,68,0,5
11,66,0,952
11,71,92,303
11,68,87,180
11,71,0,8
11,68,0,35
11,71,96,17
11,71,0,180
11,68,90,0
11,68,0,50
11,71,99,10
11,71,0,178
11,68,98,2
11,68,0,57
11,66,99,3
11,66,0,895
11,68,92,185
11,68,0,27
11,68,89,33
11,68,0,60
11,71,106,0
11,71,0,116
11,68,85,4
11,68,0,23
11,68,84,37
11,68,0,26
11,71,101,34
11,68,79,120
11,71,0,11
11,68,0,14
11,68,89,35
11,68,0,36
11,71,96,24
11,68,104,120
11,71,0,5
11,68,0,51
11,66,99,4
11,66,0,1006
11,68,78,134
11,68,0,23
11,68,84,37
11,68,0,26
11,71,101,34
11,71,0,112
11,68,78,8
11,68,0,18
11,68,75,42
11,68,0,15
11,71,96,45
11,68,84,120
11,71,0,6
11,68,0,17
11,71,79,37
11,71,0,13
11,71,100,47
11,71,0,115
11,68,88,5
11,68,0,13
11,68,75,47
11,66,85,60
11,68,0,3
11,66,0,878
11,68,87,199
11,68,0,23
11,68,97,37
11,68,0,39
11,71,96,21
11,71,0,111
11,68,84,9
11,68,0,26
11,68,64,34
11,68,0,22
11,71,100,38
11,68,69,120
11,71,0,10
11,68,0,16
11,68,67,34
11,68,0,33
11,71,98,27
11,68,95,120
11,71,0,13
11,66,89,47
11,68,0,4
11,66,0,992
11,68,87,144
11,68,0,23
11,68,97,37
11,68,0,39
11,71,104,21
11,71,0,111
11,68,84,9
11,68,0,26
11,68,64,34
11,68,0,22
11,71,100,38
11,68,69,120
11,71,0,10
11,68,0,16
11,68,67,34
11,68,0,33
11,71,98,27
11,68,95,120
11,71,0,13
11,66,89,47
11,68,0,4
11,66,0,978
11,68,95,278
11,68,0,240
11,71,95,0
11,71,0,177
11,68,87,3
11,68,0,53
11,71,84,7
11,68,93,180
11,71,0,6
11,66,88,54
11,68,0,10
11,66,0,907
11,80,90,163
11,80,0,28
11,80,91,32
11,80,0,50
11,83,104,10
11,83,0,167
11,80,91,13
11,83,99,60
11,80,0,6
11,80,97,174
11,83,0,18
11,83,87,42
11,80,0,9
11,83,0,171
11,80,92,0
11,78,92,60
11,80,0,6
11,78,0,2
11,68,99,328
11,68,0,133
11,68,75,47
11,68,0,51
11,71,95,9
11,71,0,178
11,68,86,2
11,68,0,53
11,71,81,7
11,68,80,180
11,71,0,12
11,66,80,48
11,68,0,12
11,66,0,6
11,68,98,320
11,68,0,134
11,68,84,46
11,71,96,60
11,68,0,3
11,68,80,177
11,71,0,4
11,71,75,56
11,68,0,4
11,71,0,170
11,68,76,6
11,66,75,60
11,68,0,4
11,66,0,873
11,68,78,203
11,68,0,23
11,68,89,37
11,68,0,30
11,71,104,30
11,71,0,116
11,68,71,4
11,68,0,15
11,68,80,45
11,68,0,13
11,71,103,47
11,68,74,120
11,71,0,9
11,68,0,13
11,68,77,38
11,68,0,28
11,71,99,32
11,68,99,120
11,71,0,6
11,68,0,52
11,66,88,2
11,66,0,971
11,68,84,169
11,68,0,25
11,68,78,35
11,68,0,27
11,71,99,33
11,68,75,120
11,71,0,10
11,68,0,11
11,68,79,39
11,68,0,26
11,71,103,34
11,68,74,120
11,71,0,13
11,68,0,5
11,68,85,42
11,68,0,30
11,71,99,30
11,68,99,120
11,71,0,24
11,68,0,36
11,66,80,0
11,66,0,948
11,68,70,192
11,68,0,21
11,68,69,39
11,68,0,24
11,71,90,36
11,71,0,119
11,68,73,1
11,68,0,25
11,68,67,35
11,68,0,27
11,71,98,33
11,68,67,120
11,71,0,12
11,68,0,7
11,68,69,41
11,68,0,27
11,71,96,33
11,71,0,120
11,68,81,0
11,68,0,60
11,66,71,0
11,66,0,940
11,68,85,200
11,68,0,25
11,68,79,35
11,71,96,60
11,68,0,3
11,68,75,117
11,71,0,12
11,68,0,18
11,68,68,30
11,68,0,36
11,71,102,24
11,68,70,120
11,71,0,8
11,68,0,14
11,68,74,38
11,68,0,40
11,71,98,20
11,68,102,120
11,71,0,12
11,68,0,45
11,66,91,3
11,66,0,961
11,68,64,179
11,68,0,23
11,68,68,37
11,71,77,60
11,68,0,3
11,71,0,113
11,68,63,4
11,68,0,23
11,68,53,37
11,68,0,25
11,71,73,35
11,71,0,119
11,68,53,1
11,68,0,19
11,68,55,41
11,68,0,31
11,71,66,29
11,68,68,120
11,71,0,10
11,66,62,50
11,68,0,5
11,66,0,1008
11,68,35,127
11,68,0,12
11,68,41,48
11,68,0,26
11,71,44,34
11,68,43,120
