track,note,velocity,time
0,42,127,0
0,42,87,368
0,42,87,368
0,42,87,368
0,36,114,144
0,45,94,0
0,49,56,0
0,29,102,0
0,60,116,0
0,53,94,0
0,69,106,0
0,72,104,0
0,41,75,0
0,48,75,0
0,53,84,0
0,65,82,0
0,41,103,4
0,57,96,0
0,48,95,4
0,60,79,7
0,57,72,6
0,53,75,2
0,60,79,96
0,57,84,2
0,65,78,0
0,53,72,1
0,60,82,7
0,57,74,2
0,53,73,5
0,60,77,11
0,57,72,2
0,60,79,51
0,57,79,3
0,53,76,2
0,62,72,60
0,58,75,0
0,53,71,6
0,58,77,56
0,53,79,1
0,62,70,1
0,53,70,6
0,62,75,2
0,58,76,9
0,58,79,51
0,62,74,2
0,58,84,0
0,57,113,0
0,53,71,4
0,62,85,2
0,65,83,0
0,62,70,6
0,58,72,1
0,53,119,5
0,53,76,5
0,38,111,25
0,60,77,10
0,53,75,1
0,36,110,5
0,38,117,0
0,29,98,0
0,57,75,4
0,57,79,102
0,60,81,0
0,65,81,1
0,57,82,1
0,60,75,8
0,53,77,0
0,57,78,20
0,53,77,0
0,60,77,4
0,60,78,50
0,57,72,6
0,53,71,6
0,45,98,26
0,58,76,6
0,62,75,2
0,48,101,4
0,53,75,0
0,53,71,60
0,62,74,2
0,45,102,2
0,58,72,8
0,57,111,0
0,60,114,0
0,53,79,8
0,62,72,6
0,58,71,4
0,53,71,6
0,58,82,1
0,53,119,5
0,57,117,0
0,58,71,0
0,62,81,6
0,62,74,2
0,65,87,0
0,55,114,12
0,48,94,24
0,62,72,2
0,45,97,2
0,53,110,0
0,58,76,0
0,53,78,5
0,41,93,12
0,41,98,53
0,60,75,2
0,57,101,2
0,36,112,2
0,45,96,0
0,49,52,0
0,29,103,0
0,57,115,0
0,60,119,0
0,53,97,2
0,48,102,6
0,57,74,0
0,53,78,0
0,60,71,48
0,57,76,0
0,53,70,8
0,57,78,146
0,53,70,4
0,57,81,2
0,65,86,4
0,60,79,1
0,60,70,1
0,57,76,4
0,60,77,7
0,53,77,5
0,60,79,53
0,53,71,2
0,57,71,2
0,53,75,68
0,58,74,2
0,62,76,2
0,53,73,53
0,58,71,10
0,62,79,3
0,62,75,7
0,53,76,1
0,58,71,12
0,45,101,4
0,58,82,40
0,53,70,2
0,62,87,0
0,65,79,0
0,48,102,6
0,72,112,0
0,62,74,6
0,58,79,0
0,48,101,4
0,45,94,6
0,62,79,6
0,58,72,2
0,45,102,4
0,77,118,0
0,53,74,2
0,41,96,48
0,41,95,46
0,53,76,42
0,57,80,0
0,60,86,0
0,57,76,4
0,36,110,2
0,45,101,0
0,49,58,0
0,29,99,0
0,60,79,5
0,65,81,3
0,46,66,12
0,38,112,0
0,53,113,0
0,58,80,4
0,42,66,2
0,35,110,0
0,34,94,0
0,58,61,0
0,62,117,0
0,62,78,4
0,65,82,2
0,58,71,47
0,42,51,5
0,62,118,0
0,70,79,9
0,42,70,8
0,37,95,0
0,74,78,0
0,60,113,0
0,60,75,6
0,65,75,2
0,42,52,8
0,58,122,0
0,42,58,8
0,35,112,0
0,36,99,0
0,60,55,0
0,60,113,0
0,63,75,8
0,67,77,0
0,42,58,8
0,55,120,0
0,55,73,5
0,60,77,7
0,42,53,4
0,37,96,0
0,75,78,4
0,70,80,4
0,42,64,20
0,63,77,5
0,36,97,8
0,63,76,6
0,42,66,2
0,35,119,0
0,39,99,0
0,63,54,0
0,63,74,78
0,42,50,2
0,63,121,0
0,75,75,12
0,70,80,2
0,42,54,4
0,37,99,0
0,63,76,0
0,63,120,0
0,67,82,2
0,42,58,8
0,62,117,0
0,62,70,8
0,39,100,80
0,70,78,2
0,42,56,6
0,35,119,0
0,41,103,0
0,60,60,0
0,60,117,0
0,60,79,6
0,65,77,4
0,72,75,0
0,42,47,104
0,41,95,0
0,60,114,0
0,60,77,5
0,72,74,42
0,42,62,8
0,37,95,0
0,69,75,6
0,42,51,11
0,41,99,0
0,62,120,0
0,62,79,4
0,43,98,6
0,58,76,38
0,42,58,8
0,35,117,0
0,46,102,0
0,58,52,0
0,65,82,8
0,42,46,82
0,62,77,4
0,70,77,4
0,60,76,2
0,42,69,6
0,37,94,0
0,74,78,10
0,42,50,8
0,58,71,2
0,42,60,12
0,35,114,0
0,36,94,0
0,60,77,0
0,60,53,0
0,67,76,8
0,63,78,2
0,42,64,16
0,55,75,6
0,70,75,65
0,42,71,4
0,37,97,0
0,75,80,6
0,42,61,10
0,63,70,6
0,42,55,12
0,35,119,0
0,39,100,0
0,63,56,0
0,63,82,10
0,42,63,81
0,63,74,8
0,75,73,94
0,67,82,4
0,63,78,4
0,42,64,2
0,37,96,0
0,70,82,2
0,62,71,16
0,42,49,2
0,39,103,80
0,60,77,2
0,42,57,6
0,35,116,0
0,41,96,0
0,65,77,0
0,60,59,0
0,70,79,4
0,72,81,6
0,58,78,14
0,42,57,8
0,41,97,0
0,42,70,24
0,37,90,0
0,72,79,2
0,69,76,4
0,57,70,2
0,42,62,8
0,53,122,0
0,53,79,2
0,58,74,2
0,42,59,6
0,35,112,0
0,46,96,0
0,58,58,0
0,62,115,0
0,65,81,4
0,62,74,46
0,42,55,6
0,62,119,0
0,70,75,110
0,74,77,0
0,62,79,2
0,42,68,6
0,37,96,0
0,60,119,0
0,60,74,14
0,42,63,8
0,58,116,0
0,63,77,6
0,42,69,2
0,35,112,0
0,36,97,0
0,60,53,0
0,60,115,0
0,67,74,10
0,42,57,8
0,55,121,0
0,75,82,118
0,42,61,10
0,37,90,0
0,70,74,8
0,63,74,20
0,42,58,4
0,36,102,24
0,63,74,4
0,42,70,4
0,35,117,0
0,39,95,0
0,63,55,0
0,42,53,96
0,63,121,0
0,63,73,2
0,70,77,18
0,63,78,4
0,42,64,6
0,37,99,0
0,63,120,0
0,75,81,4
0,67,75,6
0,42,63,8
0,62,120,0
0,62,75,2
0,39,103,80
0,70,79,2
0,65,74,0
0,42,55,8
0,35,117,0
0,41,95,0
0,72,76,0
0,60,76,0
0,60,61,0
0,60,120,0
0,58,76,10
0,42,51,6
0,41,102,0
0,60,122,0
0,42,70,60
0,37,90,0
0,69,77,2
0,72,75,8
0,42,63,22
0,62,114,0
0,62,73,5
0,58,82,10
0,42,56,2
0,35,110,0
0,46,100,0
0,58,60,0
0,65,80,8
0,62,74,77
0,42,56,6
0,74,79,12
0,70,79,2
0,60,71,3
0,42,56,5
0,37,93,0
0,58,72,19
0,42,64,2
0,42,63,12
0,35,116,0
0,36,94,0
0,60,61,0
0,60,78,2
0,63,75,8
0,67,75,0
0,42,49,14
0,55,72,2
0,70,79,122
0,42,63,10
0,37,98,0
0,75,73,10
0,42,55,108
0,63,73,2
0,63,74,4
0,42,71,8
0,35,117,0
0,39,101,0
0,63,57,0
0,42,46,14
0,63,72,2
0,67,76,104
0,63,70,0
0,42,69,6
0,37,96,0
0,75,82,2
0,70,79,2
0,62,78,17
0,42,65,5
0,39,98,80
0,72,78,9
0,70,77,4
0,42,56,4
0,35,117,0
0,41,101,0
0,60,54,0
0,60,76,6
0,65,81,2
0,42,59,10
0,41,103,0
0,58,74,2
0,72,81,4
0,42,62,10
0,37,93,0
0,69,80,0
0,57,70,4
0,53,75,4
0,46,51,8
0,41,95,0
0,53,82,0
0,53,115,0
0,42,71,8
0,35,111,0
0,46,95,0
0,53,77,0
0,74,55,0
0,58,83,0
0,62,119,0
0,65,76,2
0,58,76,2
0,86,13,2
0,98,14,8
0,86,18,10
0,98,15,7
0,86,14,5
0,98,20,7
0,86,17,12
0,42,60,7
0,58,87,0
0,62,121,0
0,62,70,2
0,98,12,5
0,86,17,9
0,98,17,8
0,86,20,12
0,98,18,7
0,86,12,5
0,60,78,2
0,70,77,2
0,98,16,3
0,42,65,1
0,37,93,0
0,58,83,0
0,58,121,0
0,74,76,2
0,86,16,8
0,98,12,6
0,86,18,9
0,98,18,10
0,86,14,8
0,98,16,9
0,58,76,16
0,42,48,4
0,46,99,0
0,58,89,0
0,58,117,0
0,86,16,4
0,98,21,7
0,86,19,8
0,98,21,8
0,34,98,8
0,86,14,8
0,98,12,7
0,87,18,5
0,67,79,5
0,63,75,2
0,42,68,1
0,35,116,0
0,36,100,0
0,75,55,0
0,60,88,0
0,55,113,0
0,60,74,4
0,99,14,2
0,87,18,0
0,99,21,7
0,87,20,29
0,99,16,6
0,87,19,8
0,99,18,7
0,42,64,12
0,55,76,0
0,87,20,5
0,99,17,8
0,87,16,8
0,99,13,7
0,87,21,10
0,99,19,9
0,87,15,8
0,75,77,11
0,70,75,2
0,42,71,2
0,37,90,0
0,99,17,8
0,87,15,8
0,99,13,8
0,87,20,0
0,99,15,7
0,87,19,8
0,99,18,0
0,63,73,11
0,42,61,5
0,87,18,0
0,99,16,8
0,87,12,3
0,99,16,11
0,87,14,0
0,99,19,0
0,87,14,0
0,99,14,16
0,63,79,4
0,42,55,4
0,35,112,0
0,39,98,0
0,87,20,9
0,99,16,2
0,87,17,15
0,99,20,6
0,87,17,5
0,99,16,12
0,87,15,8
0,63,79,5
0,42,55,6
0,58,85,0
0,63,119,0
0,99,17,4
0,87,13,8
0,99,13,7
0,87,17,9
0,99,12,11
0,87,19,9
0,63,79,2
0,99,12,4
0,67,77,2
0,75,79,0
0,42,64,2
0,37,96,0
0,58,88,0
0,63,114,0
0,70,82,8
0,87,17,2
0,99,20,6
0,87,19,9
0,99,14,7
0,87,18,3
0,99,14,7
0,62,78,2
0,87,16,2
0,42,46,4
0,57,86,0
0,62,114,0
0,99,20,3
0,87,16,7
0,99,12,1
0,39,94,11
0,87,12,9
0,99,16,0
0,87,17,3
0,65,82,2
0,72,80,0
0,42,60,4
0,35,116,0
0,41,97,0
0,77,58,0
0,55,89,0
0,60,113,0
0,89,20,2
0,70,80,4
0,60,73,2
0,101,17,10
0,89,21,7
0,101,19,8
0,89,18,4
0,101,17,7
0,89,13,6
0,60,75,3
0,101,20,3
0,42,58,1
0,41,99,0
0,55,82,0
0,60,116,0
0,89,15,7
0,101,13,4
0,89,20,3
0,101,18,1
0,89,18,4
0,101,19,4
0,89,20,3
0,69,82,2
0,42,59,10
0,37,90,0
0,72,80,6
0,101,13,2
0,89,21,6
0,101,12,6
0,89,12,6
0,101,14,4
0,89,18,4
0,101,16,4
0,62,71,15
0,42,54,5
0,41,95,0
0,55,85,0
0,62,118,0
0,89,21,4
0,101,12,1
0,89,19,2
0,101,21,3
0,43,98,6
0,89,18,5
0,101,13,5
0,89,18,4
0,58,80,0
0,42,54,7
0,35,110,0
0,46,94,0
0,53,78,0
0,74,56,0
0,53,83,0
0,65,79,2
0,86,15,4
0,98,17,15
0,86,12,16
0,98,15,11
0,86,15,7
0,98,12,7
0,86,13,12
0,42,48,7
0,62,74,8
0,98,16,5
0,86,17,9
0,98,14,8
0,86,20,12
0,98,18,7
0,86,19,5
0,70,81,17
0,74,73,0
0,65,75,4
0,98,20,3
0,42,55,1
0,37,93,0
0,60,75,6
0,86,14,8
0,98,13,6
0,86,21,9
0,98,19,10
0,86,20,8
0,98,21,9
0,58,72,4
0,42,58,4
0,86,14,4
0,98,21,7
0,86,17,8
0,98,17,8
0,86,19,8
0,98,16,8
0,87,18,5
0,63,78,2
0,67,82,2
0,60,70,0
0,42,69,1
0,35,111,0
0,36,100,0
0,55,79,0
0,75,60,0
0,99,15,6
0,87,14,0
0,99,13,7
0,87,18,29
0,99,20,6
0,87,13,8
0,99,13,2
0,42,65,22
0,62,117,0
0,55,71,3
0,87,19,2
0,99,21,4
0,87,17,3
0,99,19,5
0,87,13,1
0,99,21,6
0,87,17,8
0,70,75,3
0,65,81,4
0,42,60,8
0,37,95,0
0,60,122,0
0,75,74,2
0,99,19,0
0,87,18,1
0,99,18,6
0,87,12,6
0,99,20,1
0,87,21,8
0,99,15,4
0,42,54,8
0,58,78,0
0,58,120,0
0,63,71,8
0,63,82,0
0,87,15,0
0,99,13,8
0,87,20,6
0,58,119,8
0,99,20,3
0,87,16,0
0,99,13,0
0,87,15,0
0,99,20,16
0,63,78,6
0,42,54,2
0,35,119,0
0,39,103,0
0,87,14,9
0,99,12,2
0,87,19,15
0,99,13,6
0,87,15,5
0,99,12,12
0,87,18,8
0,63,74,5
0,42,56,6
0,99,21,4
0,87,20,8
0,99,12,1
0,87,20,9
0,99,16,0
0,87,13,9
0,67,75,4
0,99,17,2
0,42,56,4
0,37,90,0
0,75,76,8
0,63,73,0
0,70,79,2
0,87,15,6
0,99,18,6
0,87,21,9
0,99,20,7
0,87,17,6
0,99,13,7
0,87,13,4
0,62,74,2
0,42,57,2
0,63,73,8
0,99,17,9
0,87,17,7
0,99,18,7
0,39,101,2
0,87,15,9
0,99,21,7
0,87,15,3
0,60,71,0
0,42,65,4
0,35,113,0
0,41,96,0
0,77,59,0
0,89,18,2
0,65,73,2
0,70,78,0
0,72,81,0
0,101,16,10
0,89,14,7
0,101,14,8
0,89,20,4
0,101,15,7
0,89,19,6
0,58,71,3
0,101,17,3
0,42,64,1
0,41,99,0
0,89,19,7
0,101,14,4
0,89,21,3
0,101,19,4
0,89,14,4
0,101,20,4
0,72,74,3
0,89,17,0
0,69,81,6
0,57,76,2
0,42,56,4
0,37,90,0
0,65,87,5
0,101,18,2
0,89,19,2
0,101,13,6
0,89,13,6
0,101,17,4
0,89,19,4
0,101,13,4
0,53,75,5
0,42,64,2
0,41,101,0
0,62,82,0
0,53,87,0
0,53,118,0
0,89,18,4
0,101,19,4
0,89,20,6
0,101,12,5
0,89,17,5
0,101,18,1
0,89,14,4
0,65,82,4
0,58,81,3
0,42,59,4
0,35,115,0
0,46,102,0
0,53,77,0
0,74,61,0
0,58,87,0
0,62,121,0
0,86,17,6
0,98,15,15
0,86,18,16
0,98,12,9
0,86,16,7
0,98,21,7
0,86,21,12
0,62,72,3
0,42,62,4
0,58,87,0
0,62,115,0
0,98,12,1
0,86,17,9
0,98,18,7
0,86,14,10
0,98,13,2
0,86,20,5
0,60,73,2
0,65,80,2
0,98,15,3
0,42,55,1
0,37,97,0
0,58,87,0
0,58,122,0
0,70,74,2
0,74,81,4
0,86,19,8
0,98,12,5
0,86,18,9
0,98,18,10
0,86,13,8
0,98,17,9
0,58,79,2
0,42,56,2
0,46,100,0
0,58,90,0
0,58,122,0
0,86,16,4
0,98,12,7
0,86,17,8
0,98,17,8
0,34,102,8
0,86,18,8
0,98,14,5
0,87,17,1
0,60,72,3
0,67,79,1
0,42,54,1
0,35,116,0
0,36,100,0
0,75,58,0
0,60,89,0
0,55,122,0
0,63,82,4
0,99,20,2
0,87,18,0
0,99,15,7
0,87,12,2
0,99,18,6
0,87,13,8
0,99,15,7
0,55,71,17
0,42,60,4
0,60,82,0
0,55,122,0
0,87,20,5
0,99,21,8
0,87,13,8
0,99,19,3
0,87,14,10
0,99,19,9
0,87,14,8
0,75,82,7
0,42,71,8
0,37,93,0
0,70,76,2
0,99,20,8
0,87,12,8
0,99,13,8
0,87,13,7
0,99,12,7
0,87,16,8
0,99,20,4
0,42,47,16
0,63,72,0
0,87,19,0
0,99,16,8
0,87,19,6
0,36,102,8
0,99,20,3
0,87,13,2
0,99,21,0
0,87,21,0
0,99,17,0
0,63,76,6
0,42,54,2
0,35,115,0
0,39,95,0
0,87,21,9
0,99,18,2
0,87,12,15
0,99,20,6
0,87,20,5
0,99,18,12
0,87,16,1
0,63,76,7
0,42,52,4
0,58,86,0
0,63,117,0
0,99,13,4
0,87,20,8
0,99,13,7
0,87,13,9
0,99,14,0
0,87,19,9
0,75,80,2
0,67,76,4
0,70,75,0
0,99,15,0
0,42,65,4
0,37,98,0
0,58,85,0
0,63,121,0
0,63,79,5
0,87,21,2
0,99,13,6
0,87,21,9
0,99,17,7
0,87,14,3
0,99,17,7
0,87,13,4
0,42,57,4
0,58,83,0
0,62,118,0
0,62,73,5
0,63,74,1
0,99,15,9
0,87,16,7
0,99,20,1
0,39,94,11
0,87,18,9
0,99,21,7
