track,note,velocity,time
2,57,64,0
2,57,0,143
2,54,64,1
2,54,0,191
2,50,64,1
2,50,0,191
2,52,64,1
2,52,0,191
2,45,64,1
2,45,0,71
2,45,64,1
2,45,0,23
2,45,64,1
2,45,0,47
2,45,64,1
2,45,0,47
2,42,64,1
2,42,0,71
2,42,64,1
2,42,0,23
2,42,64,1
2,42,0,47
2,42,64,1
2,42,0,47
2,38,64,1
2,38,0,71
2,38,64,1
2,38,0,23
2,38,64,1
2,38,0,47
2,38,64,1
2,38,0,47
2,40,64,1
2,40,0,71
2,40,64,1
2,40,0,23
2,40,64,1
2,40,0,47
2,40,64,1
2,40,0,47
2,45,64,1
2,45,0,71
2,45,64,1
2,45,0,23
2,45,64,1
2,45,0,47
2,45,64,1
2,45,0,47
2,42,64,1
2,42,0,71
2,42,64,1
2,42,0,23
2,42,64,1
2,42,0,47
2,42,64,1
2,42,0,47
2,38,64,1
2,38,0,71
2,38,64,1
2,38,0,23
2,38,64,1
2,38,0,47
2,38,64,1
2,38,0,47
2,40,64,1
2,40,0,71
2,40,64,1
2,40,0,23
2,40,64,1
2,40,0,47
2,40,64,1
2,40,0,47
2,35,64,1
2,35,0,71
2,35,64,1
2,35,0,71
2,35,64,1
2,35,0,47
2,37,64,1
2,37,0,71
2,37,64,1
2,37,0,23
2,37,64,1
2,37,0,47
2,37,64,1
2,37,0,47
2,41,64,1
2,41,0,71
2,41,64,1
2,41,0,71
2,41,64,1
2,41,0,47
2,42,64,1
2,42,0,23
2,42,64,1
2,42,0,47
2,42,64,1
2,42,0,71
2,40,64,1
2,40,0,47
2,38,64,1
2,38,0,71
2,38,64,1
2,38,0,23
2,38,64,1
2,38,0,47
2,38,64,1
2,38,0,47
2,35,64,1
2,35,0,71
2,35,64,1
2,35,0,23
2,35,64,1
2,35,0,47
2,35,64,1
2,35,0,47
2,38,64,1
2,38,0,71
2,38,64,1
2,38,0,23
2,38,64,1
2,38,0,47
2,38,64,1
2,38,0,47
2,40,64,1
2,40,0,23
2,40,64,1
2,40,0,23
2,40,64,1
2,40,0,23
2,40,64,1
2,40,0,23
2,40,64,1
2,40,0,35
2,45,64,61
2,45,0,71
2,45,64,1
2,45,0,23
2,45,64,1
2,45,0,47
2,45,64,1
2,45,0,47
2,38,64,1
2,38,0,71
2,38,64,1
2,38,0,23
2,38,64,1
2,38,0,47
2,38,64,1
2,38,0,47
2,45,64,1
2,45,0,71
2,38,64,1
2,38,0,71
2,38,64,1
2,38,0,47
2,40,64,1
2,40,0,71
2,40,64,1
2,40,0,23
2,40,64,1
2,40,0,23
2,40,64,1
2,40,0,23
2,40,64,1
2,40,0,23
2,40,64,1
2,40,0,23
2,33,64,1
2,33,0,71
2,33,64,1
2,33,0,23
2,33,64,1
2,33,0,47
2,33,64,1
2,33,0,47
2,26,64,1
2,26,0,71
2,26,64,1
2,26,0,23
2,26,64,1
2,26,0,47
2,26,64,1
2,26,0,47
2,33,64,1
2,33,0,71
2,26,64,1
2,26,0,71
2,26,64,1
2,26,0,47
2,28,64,1
2,28,0,71
2,28,64,1
2,28,0,23
2,28,64,1
2,28,0,23
2,28,64,1
2,28,0,23
2,28,64,1
2,28,0,47
2,30,64,1
2,30,0,71
2,30,64,1
2,30,0,23
2,32,64,1
2,32,0,47
2,32,64,1
2,32,0,47
2,23,64,1
2,23,0,71
2,23,64,1
2,23,0,23
2,28,64,1
2,28,0,47
2,28,64,1
2,28,0,47
2,57,64,1
2,57,0,191
2,54,64,1
2,54,0,191
2,50,64,1
2,50,0,191
2,52,64,1
2,52,0,191
2,57,64,1
2,57,0,71
2,57,64,1
2,57,0,23
2,57,64,1
2,57,0,47
2,57,64,1
2,57,0,47
2,54,64,1
2,54,0,71
2,54,64,1
2,54,0,23
2,54,64,1
2,54,0,47
2,54,64,1
2,54,0,47
2,50,64,1
2,50,0,71
2,50,64,1
2,50,0,23
2,50,64,1
2,50,0,47
2,50,64,1
2,50,0,47
2,52,64,1
2,52,0,71
2,52,64,1
2,52,0,23
2,52,64,1
2,52,0,47
2,52,64,1
2,52,0,47
2,57,64,1
2,57,0,71
2,57,64,1
2,57,0,23
2,57,64,1
2,57,0,47
2,57,64,1
2,57,0,47
2,54,64,1
2,54,0,71
2,54,64,1
2,54,0,23
2,54,64,1
2,54,0,47
2,54,64,1
2,54,0,47
2,50,64,1
2,50,0,71
2,50,64,1
2,50,0,23
2,50,64,1
2,50,0,47
2,50,64,1
2,50,0,47
2,52,64,1
2,52,0,71
2,52,64,1
2,52,0,23
2,52,64,1
2,52,0,47
2,52,64,1
2,52,0,47
2,47,64,1
2,47,0,71
2,47,64,1
2,47,0,71
2,47,64,1
2,47,0,47
2,49,64,1
2,49,0,71
2,49,64,1
2,49,0,23
2,49,64,1
2,49,0,47
2,49,64,1
2,49,0,47
2,53,64,1
2,53,0,71
2,53,64,1
2,53,0,71
2,53,64,1
2,53,0,47
2,54,64,1
2,54,0,23
2,54,64,1
2,54,0,47
2,54,64,1
2,54,0,71
2,52,64,1
2,52,0,47
2,50,64,1
2,50,0,71
2,50,64,1
2,50,0,23
2,50,64,1
2,50,0,47
2,50,64,1
2,50,0,47
2,47,64,1
2,47,0,71
2,47,64,1
2,47,0,23
2,47,64,1
2,47,0,47
2,47,64,1
2,47,0,47
2,50,64,1
2,50,0,71
2,50,64,1
2,50,0,23
2,50,64,1
2,50,0,47
2,50,64,1
2,50,0,47
2,52,64,1
2,52,0,23
2,52,64,1
2,52,0,23
2,52,64,1
2,52,0,23
2,52,64,1
2,52,0,23
2,52,64,1
2,52,0,35
2,57,64,61
2,57,0,71
2,57,64,1
2,57,0,23
2,57,64,1
2,57,0,47
2,57,64,1
2,57,0,47
2,50,64,1
2,50,0,71
2,50,64,1
2,50,0,23
2,50,64,1
2,50,0,47
2,50,64,1
2,50,0,47
2,57,64,1
2,57,0,71
2,50,64,1
2,50,0,71
2,50,64,1
2,50,0,47
2,52,64,1
2,52,0,71
2,52,64,1
2,52,0,23
2,52,64,1
2,52,0,23
2,52,64,1
2,52,0,23
2,52,64,1
2,52,0,23
2,52,64,1
2,52,0,23
2,45,64,1
2,45,0,71
2,45,64,1
2,45,0,23
2,45,64,1
2,45,0,47
2,45,64,1
2,45,0,47
2,50,64,1
2,50,0,71
2,50,64,1
2,50,0,23
2,50,64,1
2,50,0,47
2,50,64,1
2,50,0,47
2,57,64,1
2,57,0,71
2,50,64,1
2,50,0,71
2,50,64,1
2,50,0,47
2,52,64,1
2,52,0,71
2,52,64,1
2,52,0,23
2,52,64,1
2,52,0,23
2,52,64,1
2,52,0,23
2,52,64,1
2,52,0,47
2,54,64,1
2,54,0,71
2,54,64,1
2,54,0,23
2,56,64,1
2,56,0,47
2,56,64,1
2,56,0,47
2,47,64,1
2,47,0,71
2,47,64,1
2,47,0,23
2,52,64,1
2,52,0,47
2,52,64,1
2,52,0,47
2,54,64,1
2,54,0,71
2,54,64,1
2,54,0,23
2,56,64,1
2,56,0,47
2,56,64,1
2,56,0,47
2,47,64,1
2,47,0,71
2,47,64,1
2,47,0,23
2,49,64,1
2,49,0,47
2,49,64,1
2,49,0,47
2,47,64,1
2,47,0,71
2,47,64,1
2,47,0,23
2,49,64,1
2,49,0,47
2,49,64,1
2,49,0,47
2,52,64,1
2,52,0,23
2,52,64,1
2,52,0,23
2,52,64,1
2,52,0,23
2,52,64,1
2,52,0,23
2,54,64,1
2,54,0,47
2,54,64,1
2,54,0,47
2,47,64,1
2,47,0,71
2,47,64,1
2,47,0,23
2,47,64,1
2,47,0,47
2,47,64,1
2,47,0,47
2,40,64,1
2,40,0,71
2,40,64,1
2,40,0,23
2,40,64,1
2,40,0,47
2,40,64,1
2,40,0,47
2,47,64,1
2,47,0,71
2,40,64,1
2,40,0,71
2,40,64,1
2,40,0,47
2,42,64,1
2,42,0,71
2,42,64,1
2,42,0,23
2,42,64,1
2,42,0,23
2,42,64,1
2,42,0,23
2,42,64,1
2,42,0,23
2,42,64,1
2,42,0,23
2,35,64,1
2,35,0,71
2,35,64,1
2,35,0,23
2,35,64,1
2,35,0,47
2,35,64,1
2,35,0,47
2,28,64,1
2,28,0,71
2,28,64,1
2,28,0,23
2,28,64,1
2,28,0,47
2,28,64,1
2,28,0,47
2,35,64,1
2,35,0,71
2,28,64,1
2,28,0,71
2,28,64,1
2,28,0,47
2,30,64,1
2,30,0,71
2,30,64,1
2,30,0,23
2,30,64,1
2,30,0,23
2,30,64,1
2,30,0,23
2,30,64,1
2,30,0,47
2,32,64,1
2,32,0,71
2,32,64,1
2,32,0,23
2,34,64,1
2,34,0,47
2,34,64,1
2,34,0,47
2,25,64,1
2,25,0,71
2,25,64,1
2,25,0,23
2,30,64,1
2,30,0,47
2,30,64,1
2,30,0,23
2,42,64,1
2,42,0,23
2,35,64,1
2,35,0,71
2,35,64,1
2,35,0,23
2,35,64,1
2,35,0,47
2,35,64,1
2,35,0,47
2,28,64,1
2,28,0,71
2,28,64,1
2,28,0,23
2,28,64,1
2,28,0,47
2,28,64,1
2,28,0,47
2,35,64,1
2,35,0,71
2,28,64,1
2,28,0,71
2,28,64,1
2,28,0,47
2,30,64,1
2,30,0,71
2,30,64,1
2,30,0,23
2,30,64,1
2,30,0,23
2,30,64,1
2,30,0,23
2,30,64,1
2,30,0,47
2,32,64,1
2,32,0,71
2,32,64,1
2,32,0,23
2,34,64,1
2,34,0,47
2,34,64,1
2,34,0,47
2,25,64,1
2,25,0,71
2,25,64,1
2,25,0,23
2,30,64,1
2,30,0,47
2,30,64,1
2,30,0,47
2,59,64,1
2,59,0,191
2,56,64,1
2,56,0,191
2,52,64,1
2,52,0,191
2,54,64,1
2,54,0,95
2,54,64,1
2,54,0,287
3,69,64,720
3,69,0,191
3,66,64,1
3,66,0,71
3,66,64,1
3,66,0,71
3,62,64,49
3,62,0,23
3,57,64,13
3,57,0,35
3,57,64,25
3,57,0,95
3,57,64,1
3,57,0,23
3,57,64,13
3,57,0,35
3,69,64,121
3,69,0,191
3,66,64,1
3,66,0,23
3,66,64,13
3,66,0,35
3,61,64,25
3,61,0,95
3,57,64,1
3,57,0,23
3,57,64,13
3,57,0,35
3,57,64,25
3,57,0,95
3,62,64,1
3,62,0,95
3,62,64,1
3,62,0,23
3,66,64,1
3,66,0,47
3,68,64,1
3,68,0,23
3,66,64,1
3,66,0,71
3,66,64,1
3,66,0,71
3,69,64,49
3,69,0,35
3,64,64,13
3,64,0,23
3,64,64,13
3,64,0,107
3,68,64,1
3,68,0,83
3,68,64,1
3,68,0,107
3,69,64,1
3,69,0,23
3,69,64,1
3,69,0,47
3,69,64,1
3,69,0,47
3,71,64,1
3,71,0,23
3,71,64,1
3,71,0,23
3,69,64,1
3,69,0,23
3,69,64,1
3,69,0,95
3,69,64,1
3,69,0,83
3,66,64,13
3,66,0,143
3,69,64,49
3,69,0,95
3,69,64,1
3,69,0,83
3,71,64,13
3,71,0,23
3,71,64,1
3,71,0,23
3,71,64,1
3,71,0,23
3,71,64,1
3,71,0,23
3,71,64,1
3,71,0,35
3,73,64,61
3,73,0,23
3,73,64,1
3,73,0,23
3,73,64,1
3,73,0,23
3,73,64,1
3,73,0,23
3,73,64,1
3,73,0,83
3,69,64,13
3,69,0,23
3,69,64,1
3,69,0,23
3,69,64,1
3,69,0,23
3,69,64,1
3,69,0,23
3,74,64,1
3,74,0,83
3,69,64,13
3,69,0,71
3,69,64,1
3,69,0,119
3,69,64,1
3,69,0,95
3,68,64,1
3,68,0,95
3,73,64,1
3,73,0,23
3,73,64,1
3,73,0,23
3,73,64,1
3,73,0,23
3,73,64,1
3,73,0,23
3,73,64,1
3,73,0,71
3,69,64,25
3,69,0,23
3,69,64,1
3,69,0,23
3,69,64,1
3,69,0,23
3,69,64,1
3,69,0,23
3,74,64,1
3,74,0,71
3,69,64,25
3,69,0,71
3,69,64,1
3,69,0,119
3,69,64,1
3,69,0,95
3,68,64,1
3,68,0,47
3,61,64,25
3,61,0,47
3,61,64,1
3,61,0,47
3,64,64,1
3,64,0,95
3,62,64,25
3,62,0,95
3,68,64,1
3,68,0,35
3,68,64,1
3,68,0,35
3,68,64,1
3,68,0,23
3,64,64,1
3,64,0,155
3,69,64,613
3,69,0,191
3,66,64,1
3,66,0,71
3,66,64,1
3,66,0,71
3,62,64,49
3,62,0,23
3,57,64,13
3,57,0,35
3,57,64,25
3,57,0,95
3,57,64,1
3,57,0,23
3,57,64,13
3,57,0,35
3,69,64,121
3,69,0,191
3,66,64,1
3,66,0,23
3,66,64,13
3,66,0,35
3,61,64,25
3,61,0,95
3,57,64,1
3,57,0,23
3,57,64,13
3,57,0,35
3,57,64,25
3,57,0,95
3,62,64,1
3,62,0,95
3,62,64,1
3,62,0,23
3,66,64,1
3,66,0,47
3,68,64,1
3,68,0,23
3,66,64,1
3,66,0,71
3,66,64,1
3,66,0,71
3,69,64,49
3,69,0,35
3,64,64,13
3,64,0,23
3,64,64,13
3,64,0,107
3,68,64,1
3,68,0,83
3,68,64,1
3,68,0,107
3,69,64,1
3,69,0,23
3,69,64,1
3,69,0,47
3,69,64,1
3,69,0,47
3,71,64,1
3,71,0,23
3,71,64,1
3,71,0,23
3,69,64,1
3,69,0,23
3,69,64,1
3,69,0,95
3,69,64,1
3,69,0,83
3,66,64,13
3,66,0,143
3,69,64,49
3,69,0,95
3,69,64,1
3,69,0,83
3,71,64,13
3,71,0,23
3,71,64,1
3,71,0,23
3,71,64,1
3,71,0,23
3,71,64,1
3,71,0,23
3,71,64,1
3,71,0,35
3,73,64,61
3,73,0,23
3,73,64,1
3,73,0,23
3,73,64,1
3,73,0,23
3,73,64,1
3,73,0,23
3,73,64,1
3,73,0,83
3,69,64,13
3,69,0,23
3,69,64,1
3,69,0,23
3,69,64,1
3,69,0,23
3,69,64,1
3,69,0,23
3,74,64,1
3,74,0,83
3,69,64,13
3,69,0,71
3,69,64,1
3,69,0,119
3,69,64,1
3,69,0,95
3,68,64,1
3,68,0,95
3,73,64,1
3,73,0,23
3,73,64,1
3,73,0,23
3,73,64,1
3,73,0,23
3,73,64,1
3,73,0,23
3,73,64,1
3,73,0,71
3,69,64,25
3,69,0,23
3,69,64,1
3,69,0,23
3,69,64,1
3,69,0,23
3,69,64,1
3,69,0,23
3,74,64,1
3,74,0,71
3,69,64,25
3,69,0,71
3,69,64,1
3,69,0,119
3,69,64,1
3,69,0,95
3,68,64,1
3,68,0,47
3,61,64,25
3,61,0,47
3,61,64,1
3,61,0,47
3,64,64,1
3,64,0,95
3,62,64,25
3,62,0,95
3,68,64,1
3,68,0,35
3,68,64,1
3,68,0,35
3,68,64,1
3,68,0,23
3,75,64,769
3,75,0,23
3,75,64,1
3,75,0,23
3,75,64,1
3,75,0,23
3,75,64,1
3,75,0,23
3,75,64,1
3,75,0,83
3,71,64,13
3,71,0,23
3,71,64,1
3,71,0,23
3,71,64,1
3,71,0,23
3,71,64,1
3,71,0,23
3,76,64,1
3,76,0,83
3,71,64,13
3,71,0,71
3,71,64,1
3,71,0,119
3,71,64,1
3,71,0,95
3,70,64,1
3,70,0,71
3,70,64,1
3,70,0,23
3,75,64,1
3,75,0,23
3,75,64,1
3,75,0,23
3,75,64,1
3,75,0,23
3,75,64,1
3,75,0,23
3,75,64,1
3,75,0,71
3,71,64,25
3,71,0,23
3,71,64,1
3,71,0,23
3,71,64,1
3,71,0,23
3,71,64,1
3,71,0,23
3,76,64,1
3,76,0,71
3,71,64,25
3,71,0,71
3,71,64,1
3,71,0,119
3,71,64,1
3,71,0,95
3,70,64,1
3,70,0,47
3,63,64,25
3,63,0,47
3,63,64,1
3,63,0,47
3,66,64,1
3,66,0,95
3,64,64,25
3,64,0,95
3,70,64,1
3,70,0,35
3,70,64,1
3,70,0,35
3,70,64,1
3,70,0,23
3,75,64,1
3,75,0,23
3,75,64,1
3,75,0,23
3,75,64,1
3,75,0,23
3,75,64,1
3,75,0,23
