track,note,velocity,time
0,36,94,656
0,48,63,0
0,35,76,0
0,45,49,0
0,48,88,0
0,36,88,48
0,45,39,0
0,48,64,0
0,48,72,0
0,55,68,78
0,41,68,4
0,44,112,0
0,48,66,0
0,58,68,0
0,58,62,0
0,60,62,0
0,64,64,0
0,60,68,4
0,64,69,0
0,64,61,0
0,41,56,2
0,48,48,0
0,58,63,0
0,60,61,0
0,60,64,0
0,64,65,0
0,58,60,4
0,55,60,0
0,35,72,2
0,36,89,0
0,45,47,0
0,48,63,0
0,48,88,0
0,36,91,52
0,45,35,0
0,48,64,0
0,48,72,0
0,55,68,62
0,41,59,4
0,44,108,0
0,48,66,0
0,58,67,0
0,58,62,0
0,60,61,0
0,64,64,0
0,60,67,4
0,64,68,0
0,64,59,0
0,41,52,2
0,48,48,0
0,58,63,0
0,60,58,0
0,60,61,0
0,64,64,0
0,58,59,4
0,55,60,0
0,35,84,2
0,36,89,0
0,45,49,0
0,48,64,0
0,48,88,0
0,36,93,52
0,45,39,0
0,48,64,0
0,48,72,0
0,55,68,52
0,41,68,4
0,44,112,0
0,48,66,0
0,58,68,0
0,58,63,0
0,60,63,0
0,64,65,0
0,60,68,4
0,64,69,0
0,64,61,0
0,41,56,2
0,48,48,0
0,58,63,0
0,60,61,0
0,60,63,0
0,64,64,0
0,58,60,4
0,55,60,0
0,35,80,2
0,36,87,0
0,45,47,0
0,48,63,0
0,48,88,0
0,36,91,42
0,45,35,0
0,48,64,0
0,48,72,0
0,55,68,68
0,41,59,4
0,44,108,0
0,48,66,0
0,58,67,0
0,58,62,0
0,60,63,0
0,64,65,0
0,60,67,4
0,64,68,0
0,64,59,0
0,41,52,2
0,48,48,0
0,58,64,0
0,60,58,0
0,60,64,0
0,64,65,0
0,58,59,4
0,55,60,0
0,35,76,2
0,36,94,0
0,45,49,0
0,48,64,0
0,48,88,0
0,36,88,48
0,45,39,0
0,48,65,0
0,48,72,0
0,55,68,78
0,41,68,4
0,44,112,0
0,48,66,0
0,58,68,0
0,58,63,0
0,60,63,0
0,64,65,0
0,60,68,4
0,64,69,0
0,64,61,0
0,41,56,2
0,48,48,0
0,58,63,0
0,60,61,0
0,60,63,0
0,64,65,0
0,58,60,4
0,55,60,0
0,35,72,2
0,36,89,0
0,45,47,0
0,48,65,0
0,48,88,0
0,36,91,52
0,45,35,0
0,48,65,0
0,48,72,0
0,55,68,76
0,41,59,4
0,44,108,0
0,48,66,0
0,58,67,0
0,58,64,0
0,60,63,0
0,64,66,0
0,60,67,4
0,64,68,0
0,64,59,0
0,41,52,2
0,48,48,0
0,58,65,0
0,60,58,0
0,60,63,0
0,64,65,0
0,58,59,4
0,55,60,0
0,35,84,2
0,36,89,0
0,45,49,0
0,48,64,0
0,48,88,0
0,36,93,52
0,45,39,0
0,48,65,0
0,48,72,0
0,55,68,84
0,41,68,4
0,44,112,0
0,48,66,0
0,58,68,0
0,58,63,0
0,60,64,0
0,64,66,0
0,60,68,4
0,64,69,0
0,64,61,0
0,41,56,2
0,48,48,0
0,58,64,0
0,60,61,0
0,60,63,0
0,64,65,0
0,58,60,4
0,55,60,0
0,35,80,2
0,36,87,0
0,45,47,0
0,48,64,0
0,48,88,0
0,36,91,42
0,45,35,0
0,48,65,0
0,48,72,0
0,55,68,84
0,41,59,4
0,44,108,0
0,48,66,0
0,58,67,0
0,58,63,0
0,60,63,0
0,64,65,0
0,60,67,4
0,64,68,0
0,64,59,0
0,41,52,2
0,48,48,0
0,58,64,0
0,60,58,0
0,60,63,0
0,64,65,0
0,58,59,4
0,55,60,0
0,35,76,2
0,36,94,0
0,45,49,0
0,48,63,0
0,48,88,0
0,60,118,0
0,72,84,0
0,76,83,0
0,79,84,0
0,84,84,0
0,36,88,48
0,45,39,0
0,48,64,0
0,48,72,0
0,55,68,10
0,41,68,4
0,44,112,0
0,48,66,0
0,58,68,0
0,58,62,0
0,60,62,0
0,64,64,0
0,60,68,4
0,64,69,0
0,64,61,0
0,41,56,2
0,48,48,0
0,58,63,0
0,60,61,0
0,60,64,0
0,64,65,0
0,58,60,4
0,55,60,0
0,35,72,2
0,36,89,0
0,45,47,0
0,48,63,0
0,48,88,0
0,36,91,18
0,45,35,0
0,48,64,0
0,48,72,0
0,55,68,62
0,41,59,4
0,44,108,0
0,48,66,0
0,58,67,0
0,58,62,0
0,60,61,0
0,64,64,0
0,60,67,4
0,64,68,0
0,64,59,0
0,41,52,2
0,48,48,0
0,58,63,0
0,60,58,0
0,60,61,0
0,64,64,0
0,58,59,4
0,55,60,0
0,35,84,2
0,36,89,0
0,45,49,0
0,48,64,0
0,48,88,0
0,36,93,52
0,45,39,0
0,48,64,0
0,48,72,0
0,55,68,52
0,41,68,4
0,44,112,0
0,48,66,0
0,58,68,0
0,58,63,0
0,60,63,0
0,64,65,0
0,60,68,4
0,64,69,0
0,64,61,0
0,41,56,0
0,48,48,0
0,58,63,0
0,60,61,0
0,60,63,0
0,64,64,0
0,58,60,4
0,55,60,0
0,35,80,2
0,36,87,0
0,45,47,0
0,48,63,0
0,48,88,0
0,48,97,0
0,72,82,0
0,36,91,42
0,45,35,0
0,48,64,0
0,48,72,0
0,55,68,68
0,41,59,4
0,44,108,0
0,48,66,0
0,58,67,0
0,58,62,0
0,60,63,0
0,60,112,0
0,64,65,0
0,72,81,0
0,76,82,0
0,79,81,0
0,84,81,0
0,60,67,4
0,64,68,0
0,64,59,0
0,41,52,2
0,48,48,0
0,58,64,0
0,60,58,0
0,60,64,0
0,64,65,0
0,58,59,4
0,55,60,0
0,35,76,2
0,36,94,0
0,45,49,0
0,48,64,0
0,48,88,0
0,58,118,0
0,74,80,0
0,76,78,0
0,79,76,0
0,82,81,0
0,36,88,48
0,45,39,0
0,48,65,0
0,48,72,0
0,55,68,78
0,41,68,2
0,44,112,0
0,48,66,0
0,58,68,0
0,58,63,0
0,60,63,0
0,64,65,0
0,60,68,4
0,64,69,0
0,64,61,0
0,41,56,2
0,48,48,0
0,58,63,0
0,60,61,0
0,60,63,0
0,64,65,0
0,58,60,4
0,55,60,0
0,35,72,2
0,36,89,0
0,45,47,0
0,48,65,0
0,48,88,0
0,36,91,52
0,45,35,0
0,48,65,0
0,48,72,0
0,55,68,76
0,41,59,4
0,44,108,0
0,48,66,0
0,58,67,0
0,58,64,0
0,60,63,0
0,64,66,0
0,60,67,4
0,64,68,0
0,64,59,0
0,41,52,2
0,48,48,0
0,58,65,0
0,60,58,0
0,60,63,0
0,64,65,0
0,58,59,4
0,55,60,0
0,64,98,10
0,35,84,2
0,36,89,0
0,40,94,0
0,48,64,0
0,49,49,0
0,67,97,0
0,70,98,4
0,74,95,0
0,36,93,24
0,40,70,0
0,48,65,0
0,40,62,40
0,40,56,40
0,40,94,88
0,44,112,0
0,58,63,0
0,60,64,0
0,64,66,0
0,64,97,82
0,40,94,4
0,57,49,0
0,58,64,0
0,60,63,0
0,64,65,0
0,67,97,0
0,70,96,2
0,74,98,4
0,35,80,74
0,36,87,0
0,45,47,0
0,48,64,0
0,36,91,4
0,45,35,0
0,48,65,0
0,63,46,0
0,66,47,0
0,69,48,0
0,73,47,0
0,62,40,6
0,65,40,0
0,68,39,0
0,72,42,0
0,41,59,6
0,44,108,0
0,58,63,0
0,60,63,0
0,61,27,0
0,64,68,0
0,64,65,0
0,67,27,0
0,71,27,0
0,60,18,0
0,63,17,0
0,66,19,0
0,70,18,0
0,41,52,6
0,58,64,0
0,60,63,0
0,64,65,0
0,35,76,2
0,36,94,0
0,45,49,0
0,48,63,0
0,48,88,0
0,60,118,0
0,72,84,0
0,76,83,0
0,79,84,0
0,84,84,0
0,36,88,48
0,45,39,0
0,48,64,0
0,48,72,0
0,55,68,10
0,41,68,4
0,44,112,0
0,48,66,0
0,58,68,0
0,58,62,0
0,60,62,0
0,64,64,0
0,60,68,4
0,64,69,0
0,64,61,0
0,41,56,2
0,48,48,0
0,58,63,0
0,60,61,0
0,60,64,0
0,64,65,0
0,58,60,4
0,55,60,0
0,35,72,2
0,36,89,0
0,45,47,0
0,48,63,0
0,48,88,0
0,36,91,18
0,45,35,0
0,48,64,0
0,48,72,0
0,55,68,62
0,41,59,4
0,44,108,0
0,48,66,0
0,58,67,0
0,58,62,0
0,60,61,0
0,64,64,0
0,60,67,4
0,64,68,0
0,64,59,0
0,41,52,2
0,48,48,0
0,58,63,0
0,60,58,0
0,60,61,0
0,64,64,0
0,58,59,4
0,55,60,0
0,35,84,2
0,36,89,0
0,45,49,0
0,48,64,0
0,48,88,0
0,36,93,52
0,45,39,0
0,48,64,0
0,48,72,0
0,55,68,52
0,41,68,4
0,44,112,0
0,48,66,0
0,58,68,0
0,58,63,0
0,60,63,0
0,64,65,0
0,60,68,4
0,64,69,0
0,64,61,0
0,41,56,0
0,48,48,0
0,58,63,0
0,60,61,0
0,60,63,0
0,64,64,0
0,58,60,4
0,55,60,0
0,35,80,2
0,36,87,0
0,45,47,0
0,48,63,0
0,48,88,0
0,48,97,0
0,72,82,0
0,36,91,42
0,45,35,0
0,48,64,0
0,48,72,0
0,55,68,68
0,41,59,4
0,44,108,0
0,48,66,0
0,58,67,0
0,58,62,0
0,60,63,0
0,60,112,0
0,64,65,0
0,72,81,0
0,76,82,0
0,79,81,0
0,84,81,0
0,60,67,4
0,64,68,0
0,64,59,0
0,41,52,2
0,48,48,0
0,58,64,0
0,60,58,0
0,60,64,0
0,64,65,0
0,58,59,4
0,55,60,0
0,35,76,2
0,36,94,0
0,45,49,0
0,48,64,0
0,48,88,0
0,58,118,0
0,74,80,0
0,76,78,0
0,79,76,0
0,82,81,0
0,36,88,48
0,45,39,0
0,48,65,0
0,48,72,0
0,55,68,78
0,41,68,2
0,44,112,0
0,48,66,0
0,58,68,0
0,58,63,0
0,60,63,0
0,64,65,0
0,60,68,4
0,64,69,0
0,64,61,0
0,41,56,2
0,48,48,0
0,58,63,0
0,60,61,0
0,60,63,0
0,64,65,0
0,58,60,4
0,55,60,0
0,35,72,2
0,36,89,0
0,45,47,0
0,48,65,0
0,48,88,0
0,36,91,52
0,45,35,0
0,48,65,0
0,48,72,0
0,55,68,76
0,41,59,4
0,44,108,0
0,48,66,0
0,58,67,0
0,58,64,0
0,60,63,0
0,64,66,0
0,60,67,4
0,64,68,0
0,64,59,0
0,41,52,2
0,48,48,0
0,58,65,0
0,60,58,0
0,60,63,0
0,64,65,0
0,58,59,4
0,55,60,0
0,64,98,10
0,35,84,2
0,36,89,0
0,40,94,0
0,48,64,0
0,49,49,0
0,67,97,0
0,70,98,4
0,74,95,0
0,36,93,24
0,48,65,0
0,44,112,92
0,58,63,0
0,60,64,0
0,64,66,0
0,64,97,82
0,40,94,4
0,57,49,0
0,58,64,0
0,60,63,0
0,64,65,0
0,67,97,0
0,70,96,2
0,74,98,4
0,35,80,74
0,36,87,0
0,45,47,0
0,48,64,0
0,36,91,4
0,45,35,0
0,48,65,0
0,63,46,0
0,66,47,0
0,69,48,0
0,73,47,0
0,40,63,6
0,62,40,0
0,65,40,0
0,68,39,0
0,72,42,0
0,40,84,6
0,44,108,0
0,58,63,0
0,60,63,0
0,61,27,0
0,64,30,0
0,64,65,0
0,67,27,0
0,71,27,0
0,40,70,0
0,60,18,0
0,63,17,0
0,66,19,0
0,70,18,0
0,40,88,6
0,58,64,0
0,60,63,0
0,64,65,0
0,40,71,88
0,35,80,36
0,41,94,0
0,42,89,0
0,53,64,0
0,57,48,0
0,53,54,4
0,53,54,16
0,57,57,4
0,41,88,2
0,42,57,0
0,53,65,0
0,63,54,2
0,65,66,6
0,63,69,4
0,40,86,2
0,42,89,0
0,57,67,0
0,57,63,0
0,60,64,0
0,65,66,0
0,72,83,0
0,77,84,0
0,81,84,0
0,53,66,4
0,63,51,8
0,42,57,2
0,57,64,0
0,60,63,0
0,65,65,0
0,72,83,0
0,77,84,0
0,81,85,0
0,65,67,2
0,57,55,10
0,35,80,2
0,41,89,0
0,42,89,0
0,53,64,0
0,74,85,0
0,77,85,0
0,82,85,0
0,53,54,4
0,53,58,0
0,41,91,2
0,42,52,0
0,53,65,0
0,57,59,0
0,72,85,0
0,77,86,0
0,81,86,0
0,63,60,2
0,65,59,4
0,40,86,4
0,42,83,0
0,57,59,0
0,57,63,0
0,60,63,0
0,65,65,0
0,53,64,8
0,57,60,4
0,63,57,0
0,42,54,2
0,57,64,0
0,60,63,0
0,65,65,0
0,65,58,6
0,57,55,10
0,35,80,2
0,41,89,0
0,42,89,0
0,53,64,0
0,53,54,4
0,53,58,8
0,41,93,4
0,42,57,0
0,53,65,0
0,57,59,0
0,63,60,2
0,65,59,4
0,40,86,4
0,42,89,0
0,57,59,0
0,57,63,0
0,60,64,0
0,65,66,0
0,69,83,0
0,72,84,0
0,77,85,0
0,53,64,8
0,57,60,4
0,63,57,0
0,42,57,2
0,57,64,0
0,60,63,0
0,65,65,0
0,69,83,0
0,72,85,0
0,77,86,0
0,65,58,6
0,57,55,10
0,35,80,2
0,41,87,0
0,42,89,0
0,53,64,0
0,65,84,0
0,70,85,0
0,74,84,0
0,53,54,4
0,53,58,8
0,41,91,4
0,42,52,0
0,53,65,0
0,57,59,0
0,69,84,0
0,72,85,0
0,77,85,0
0,63,60,2
0,65,59,4
0,40,86,4
0,42,83,0
0,57,59,0
0,57,63,0
0,60,63,0
0,65,65,0
0,53,64,8
0,57,60,4
0,63,57,0
0,42,54,2
0,57,64,0
0,60,63,0
0,65,65,0
0,65,58,6
0,57,55,10
0,35,80,2
0,41,94,0
0,42,89,0
0,53,64,0
0,53,54,4
0,53,58,8
0,41,88,4
0,42,57,0
0,53,65,0
0,57,59,0
0,63,60,2
0,65,59,4
0,40,86,4
0,42,89,0
0,57,59,0
0,57,63,0
0,60,64,0
0,65,66,0
0,72,84,0
0,77,85,0
0,81,85,0
0,53,64,8
0,57,60,4
0,63,57,0
0,42,57,2
0,57,64,0
0,60,63,0
0,65,65,0
0,72,84,0
0,77,85,0
0,81,85,0
0,65,58,6
0,57,55,10
0,35,80,2
0,41,89,0
0,42,89,0
0,53,64,0
0,74,84,0
0,77,85,0
0,82,85,0
0,53,54,4
0,53,58,0
0,41,91,2
0,42,52,0
0,53,65,0
0,57,59,0
0,72,84,0
0,77,86,0
0,81,85,0
0,63,60,2
0,65,59,4
0,40,86,4
0,42,83,0
0,57,59,0
0,57,63,0
0,60,63,0
0,65,65,0
0,53,64,8
0,57,60,4
0,63,57,0
0,42,54,2
0,57,64,0
0,60,63,0
0,65,65,0
0,65,58,6
0,57,55,10
0,35,80,2
0,41,89,0
0,42,89,0
0,53,64,0
0,53,54,4
0,53,58,8
0,41,93,4
0,42,57,0
0,53,65,0
0,57,59,0
0,63,60,2
0,65,59,4
0,40,86,4
0,42,89,0
0,57,59,0
0,57,63,0
0,60,64,0
0,63,66,0
0,69,84,0
0,72,84,0
0,77,85,0
0,53,64,8
0,57,60,4
0,63,57,0
0,42,57,2
0,57,64,0
0,60,63,0
0,63,65,0
0,69,84,0
0,72,86,0
0,77,87,0
0,65,58,6
0,57,55,10
0,35,80,2
0,41,87,0
0,42,89,0
0,53,64,0
0,65,86,0
0,70,86,0
0,74,85,0
0,53,54,4
0,53,58,2
0,41,91,4
0,42,52,0
0,53,65,0
0,57,59,0
0,69,84,0
0,72,84,0
0,77,86,0
0,63,60,2
0,65,59,2
0,40,86,4
0,42,83,0
0,57,59,0
0,57,63,0
0,60,63,0
0,63,65,0
0,53,64,8
0,57,60,4
0,63,57,0
0,42,54,2
0,57,64,0
0,60,63,0
0,63,65,0
0,65,58,6
0,57,55,10
0,35,80,2
0,41,94,0
0,42,89,0
0,53,64,0
0,53,54,4
0,53,58,8
0,41,88,4
0,42,57,0
0,53,65,0
0,57,59,0
0,63,60,2
0,65,59,4
0,40,86,4
0,42,89,0
0,57,59,0
0,57,63,0
0,60,64,0
0,63,66,0
0,77,84,0
0,81,85,0
0,84,84,0
0,53,64,8
