track,note,velocity,time
1,76,89,7584
1,84,89,4
1,72,85,32
1,76,82,16
1,84,92,0
1,82,78,116
1,74,79,0
1,76,87,108
1,84,85,4
1,72,92,0
1,84,87,16
1,76,85,0
1,74,80,40
1,82,76,4
1,81,78,532
1,77,89,0
1,72,80,0
1,81,73,72
1,77,80,0
1,72,75,0
1,74,72,96
1,77,75,0
1,82,78,0
1,77,79,56
1,72,78,0
1,81,75,0
1,72,89,800
1,69,89,0
1,77,89,0
1,77,76,68
1,72,75,4
1,69,73,0
1,69,79,72
1,74,80,0
1,72,78,40
1,69,85,0
1,77,89,0
1,72,75,776
1,77,75,0
1,81,74,0
1,77,68,84
1,81,60,4
1,72,61,0
1,74,64,88
1,77,69,0
1,82,74,0
1,77,77,72
1,72,77,0
1,81,75,0
1,72,85,772
1,69,82,0
1,77,87,0
1,77,84,76
1,69,77,4
1,72,78,0
1,74,77,76
1,69,77,4
1,69,82,76
1,72,80,4
1,77,87,0
1,77,82,756
1,81,85,0
1,84,80,0
1,81,70,60
1,84,73,0
1,77,69,0
1,81,67,68
1,86,76,4
1,77,66,0
1,81,73,68
1,77,73,0
1,84,78,60
1,81,79,0
1,77,80,0
1,82,80,476
1,89,73,0
1,86,82,0
1,89,50,36
1,82,71,0
1,86,71,0
1,82,76,60
1,86,77,0
1,91,79,0
1,82,65,48
1,86,68,0
1,89,68,52
1,86,75,0
1,82,80,0
1,79,80,232
1,82,84,0
1,87,83,0
1,82,84,192
1,87,82,0
1,79,80,0
1,87,73,48
1,82,75,0
1,79,72,0
1,82,82,72
1,86,78,0
1,77,79,0
1,82,83,72
1,77,84,0
1,86,80,0
1,84,78,100
1,77,85,0
1,81,82,0
1,81,87,1788
1,84,82,0
1,77,82,0
1,81,76,56
1,77,75,0
1,84,76,0
1,86,75,80
1,81,72,4
1,77,75,0
1,81,73,48
1,77,75,4
1,81,77,68
1,84,78,0
1,77,82,0
1,86,75,576
1,82,74,0
1,89,71,0
1,82,71,64
1,89,67,0
1,86,69,0
1,91,66,84
1,82,58,4
1,86,61,0
1,82,65,48
1,86,66,0
1,86,70,64
1,82,77,0
1,89,73,0
1,77,80,220
1,72,78,0
1,81,75,0
1,81,76,188
1,72,78,0
1,77,85,0
1,81,67,76
1,72,71,0
1,77,74,0
1,76,74,92
1,79,71,0
1,72,71,0
1,70,76,0
1,70,73,72
1,76,77,0
1,79,78,0
1,72,75,0
1,77,89,200
1,72,82,0
1,69,94,0
1,76,77,7508
1,84,75,4
1,72,89,2176
1,84,82,16
1,76,84,0
1,82,66,56
1,74,68,0
1,76,78,208
1,84,79,0
1,72,84,2220
1,84,80,40
1,76,79,0
1,82,72,64
1,74,79,0
1,81,72,664
1,72,69,0
1,77,76,0
1,72,52,48
1,81,65,0
1,77,74,0
1,82,73,76
1,77,69,0
1,74,64,0
1,72,62,68
1,81,61,0
1,72,80,800
1,69,79,0
1,77,85,0
1,77,71,72
1,72,67,0
1,69,68,0
1,74,75,80
1,69,75,0
1,72,77,60
1,69,77,0
1,77,84,0
1,81,65,800
1,72,67,0
1,77,71,0
1,81,65,76
1,72,64,0
1,77,72,0
1,82,72,84
1,77,75,0
1,74,68,0
1,77,72,52
1,81,70,4
1,72,71,0
1,77,82,780
1,72,84,0
1,69,82,0
1,72,73,88
1,77,70,4
1,69,66,0
1,74,75,80
1,69,73,4
1,72,80,80
1,69,82,4
1,77,85,0
1,81,82,800
1,84,82,0
1,77,84,0
1,84,72,72
1,81,72,0
1,77,70,0
1,86,75,68
1,81,68,4
1,77,73,0
1,77,71,64
1,81,73,0
1,84,74,64
1,81,75,0
1,77,77,0
1,82,69,512
1,89,71,0
1,86,74,0
1,82,69,60
1,89,69,0
1,86,71,0
1,82,64,56
1,91,74,0
1,86,65,0
1,82,70,48
1,86,75,0
1,86,75,40
1,89,75,0
1,82,81,0
1,87,83,208
1,79,92,0
1,82,90,0
1,82,81,196
1,87,76,0
1,79,75,0
1,82,76,80
1,87,74,4
1,79,71,0
1,82,80,84
1,77,78,0
1,86,75,0
1,82,82,84
1,77,79,0
1,86,78,0
1,81,80,164
1,77,79,0
1,84,80,0
1,84,75,1888
1,77,78,0
1,81,76,0
1,81,70,72
1,84,72,0
1,77,71,0
1,86,77,72
1,77,75,4
1,81,69,0
1,77,70,56
1,81,71,4
1,81,73,44
1,84,76,0
1,77,78,0
1,89,72,552
1,82,78,0
1,86,77,0
1,89,61,48
1,82,67,0
1,86,67,0
1,86,61,56
1,82,61,4
1,91,75,0
1,86,65,48
1,82,65,0
1,86,76,72
1,89,71,0
1,82,83,0
1,72,77,272
1,77,79,0
1,81,74,0
1,77,89,212
1,81,78,0
1,72,85,0
1,81,71,68
1,72,72,0
1,77,76,0
1,79,72,76
1,76,71,0
1,70,88,0
1,72,71,0
1,70,81,72
1,76,79,0
1,79,80,0
1,72,77,0
1,77,78,156
1,72,77,0
1,69,94,0
1,72,79,7608
1,72,70,92
1,76,69,0
1,76,72,24
1,79,77,4
1,82,73,28
1,79,73,0
1,84,74,112
1,76,79,4
1,72,115,248
1,76,82,12
1,84,87,0
1,82,75,60
1,74,67,0
1,76,80,60
1,84,76,0
1,72,97,28
1,84,78,88
1,76,80,0
1,82,72,36
1,74,72,4
1,81,71,448
1,72,74,0
1,77,75,0
1,81,62,48
1,72,59,0
1,77,73,0
1,77,71,72
1,82,74,0
1,74,66,0
1,77,71,36
1,72,75,0
1,81,68,0
1,77,85,776
1,69,87,0
1,72,87,0
1,77,68,68
1,72,68,0
1,69,71,0
1,74,79,68
1,69,78,0
1,69,79,32
1,77,79,0
1,72,74,0
1,81,67,772
1,72,71,0
1,77,76,0
1,81,61,64
1,72,60,0
1,77,75,0
1,82,78,60
1,77,76,0
1,74,73,0
1,77,70,36
1,81,70,0
1,72,72,0
1,72,84,804
1,69,84,0
1,77,85,0
1,72,78,56
1,77,78,4
1,69,76,0
1,74,75,56
1,69,78,0
1,72,79,40
1,69,82,4
1,77,85,0
1,81,80,776
1,84,78,0
1,77,82,0
1,81,68,64
1,84,70,0
1,77,71,0
1,86,77,56
1,81,70,4
1,77,74,0
1,81,68,36
1,77,72,4
1,81,76,60
1,84,80,0
1,77,84,0
1,86,80,572
1,89,74,0
1,82,80,0
1,89,64,56
1,82,72,0
1,86,73,0
1,91,75,44
1,82,69,4
1,86,66,0
1,82,68,60
1,86,68,0
1,86,75,68
1,82,83,0
1,89,71,0
1,82,93,252
1,87,84,0
1,79,84,0
1,82,88,192
1,87,82,0
1,79,82,0
1,79,73,56
1,87,73,0
1,82,76,0
1,82,81,80
1,86,76,0
1,77,76,0
1,82,83,80
1,77,84,0
1,86,80,0
1,77,75,184
1,84,75,0
1,81,74,0
1,84,79,1908
1,77,80,0
1,81,79,0
1,81,71,44
1,84,72,0
1,77,77,0
1,86,75,44
1,81,64,4
1,77,72,0
1,77,75,36
1,81,74,4
1,81,67,44
1,84,77,0
1,77,80,0
1,89,68,552
1,82,76,0
1,86,77,0
1,89,62,40
1,86,73,0
1,82,73,0
1,86,74,40
1,91,75,0
1,82,73,0
1,82,69,24
1,86,75,0
1,86,76,56
1,89,75,0
1,82,84,0
1,72,85,228
1,77,97,0
1,81,84,0
1,72,84,192
1,81,80,0
1,77,89,0
1,81,74,80
1,72,76,0
1,77,79,0
1,79,71,76
1,76,72,0
1,72,73,0
1,70,86,0
1,79,78,76
1,76,77,0
1,70,86,0
1,72,75,0
1,69,94,228
1,72,94,4
1,77,101,0
2,36,127,1536
2,36,124,84
2,36,127,408
2,36,127,84
2,36,127,432
2,36,126,80
2,36,123,420
2,36,126,108
2,36,127,424
2,36,126,80
2,36,124,432
2,36,124,108
2,36,126,428
2,36,126,96
2,36,127,352
2,36,127,84
2,36,127,432
2,36,127,96
2,36,127,408
2,36,127,96
2,36,127,440
2,36,127,92
2,36,127,432
2,36,127,108
2,36,127,412
2,36,127,92
2,36,127,452
2,36,127,96
2,36,127,464
2,36,127,120
2,36,127,476
2,36,127,108
2,36,127,452
2,36,127,108
2,36,127,472
2,36,127,108
2,36,127,452
2,36,127,120
2,36,127,480
2,36,127,112
2,36,127,448
2,36,127,108
2,36,127,480
2,36,127,96
2,36,127,480
2,36,127,104
2,36,127,468
2,36,127,96
2,29,127,468
2,29,127,88
2,29,125,432
2,29,127,84
2,29,127,428
2,29,125,108
2,29,123,440
2,29,127,96
2,29,127,424
2,29,127,96
2,29,127,432
2,29,125,108
2,29,127,416
2,29,126,96
2,29,125,436
2,29,127,108
2,29,127,464
2,29,127,100
2,29,126,476
2,29,124,96
2,34,127,440
2,34,127,100
2,34,127,444
2,34,127,100
2,39,127,404
2,39,127,92
2,34,127,444
2,34,127,112
2,29,127,396
2,29,127,92
2,29,127,452
2,29,126,92
2,29,127,440
2,29,127,84
2,29,127,452
2,29,124,92
2,34,127,468
2,34,127,96
2,34,127,432
2,34,127,96
2,29,127,432
2,29,127,96
2,36,127,444
2,36,127,108
2,29,127,432
2,31,127,268
2,33,127,384
2,34,127,344
2,36,127,68
2,36,127,88
2,36,127,456
2,36,127,92
2,36,127,480
2,36,127,92
2,36,126,464
2,36,127,92
2,36,127,428
2,36,127,92
2,36,127,460
2,36,127,108
2,36,127,440
2,36,127,108
2,36,127,456
2,36,127,112
2,36,127,448
2,36,127,92
2,36,127,456
2,36,127,108
2,36,127,464
2,36,127,92
2,36,127,416
2,36,127,92
2,36,126,440
2,36,127,108
2,36,127,428
2,36,126,92
2,36,127,468
2,36,127,100
2,36,127,436
2,36,127,92
2,36,127,444
2,36,127,108
2,36,127,456
2,36,127,96
2,36,127,416
2,36,127,92
2,36,127,452
2,36,127,124
2,36,127,440
2,36,127,104
2,36,127,468
2,36,127,108
2,36,127,464
2,36,127,112
2,36,127,464
2,36,127,108
2,29,127,480
2,29,127,92
2,29,127,432
2,29,127,100
2,29,122,452
2,29,126,104
2,29,125,432
2,29,127,96
2,29,126,384
2,29,127,84
2,29,127,408
2,29,126,76
2,29,127,408
2,29,121,96
2,29,127,416
2,29,127,96
2,29,127,428
2,29,127,80
2,29,127,428
2,29,127,100
2,34,127,404
2,34,127,92
2,34,127,428
2,34,127,96
2,39,127,400
2,39,127,96
2,34,127,436
2,34,127,100
2,29,125,376
2,29,124,96
2,29,127,416
2,29,126,64
2,29,127,404
2,29,126,84
2,29,127,448
2,29,127,80
2,34,127,396
2,34,127,96
2,34,127,432
2,34,127,96
2,29,127,424
2,29,127,0
2,29,127,80
2,36,127,392
2,36,127,84
2,29,127,388
2,31,127,252
2,33,127,44
2,34,127,112
2,36,127,152
2,36,127,76
2,36,124,416
2,36,126,96
2,36,127,444
2,36,127,84
2,36,127,448
2,36,127,96
2,36,127,396
2,36,127,80
2,36,127,444
2,36,127,100
2,36,127,448
2,36,127,84
2,36,127,452
2,36,127,100
2,36,124,452
2,36,122,72
2,36,127,432
2,36,127,100
2,36,127,420
2,36,126,92
2,36,123,428
2,36,126,92
2,36,127,408
2,36,127,80
2,36,126,428
2,36,127,76
2,36,127,440
2,36,126,84
2,36,127,432
2,36,127,96
2,36,123,428
2,36,127,84
2,36,124,420
2,36,124,96
2,36,123,428
2,36,125,92
2,36,123,420
2,36,126,92
2,36,122,436
2,36,125,100
2,36,125,424
2,36,126,92
2,36,125,444
2,36,127,100
2,36,127,440
2,36,127,96
2,36,127,448
2,36,127,96
2,36,123,444
2,36,127,100
2,36,127,448
2,36,127,96
2,36,127,464
2,36,127,108
2,36,127,456
2,36,127,108
2,36,127,428
2,36,127,92
2,36,125,432
2,36,127,108
2,36,127,436
2,36,127,104
2,36,127,440
2,36,127,96
2,36,126,452
2,36,127,112
2,36,127,456
2,36,127,104
2,36,124,440
2,36,127,96
2,36,126,428
2,36,127,92
2,36,123,440
2,36,127,112
2,36,122,452
2,36,127,108
2,36,126,440
2,36,127,80
2,29,125,416
2,29,127,84
2,29,124,424
2,29,127,96
2,29,127,452
2,29,127,96
2,29,127,420
2,29,127,100
2,29,127,440
2,29,127,108
2,29,125,428
2,29,127,108
2,29,126,440
2,29,127,96
2,29,126,432
2,29,127,96
2,29,127,404
2,29,127,108
2,29,127,424
2,29,127,108
2,34,127,428
2,34,127,96
2,34,127,420
2,34,127,108
2,39,127,388
2,39,127,92
2,34,127,436
2,34,127,88
2,29,125,408
2,29,127,84
2,29,126,404
2,29,125,84
2,29,127,408
2,29,127,96
2,29,127,436
2,29,126,92
2,34,127,468
2,34,127,96
2,34,127,432
2,34,127,96
2,29,127,408
2,29,127,104
2,36,127,432
2,36,127,96
2,29,127,232
3,60,74,1524
3,48,74,0
3,55,74,64
3,64,74,4
3,60,74,0
3,48,74,28
3,53,74,80
3,58,74,12
3,62,74,4
3,64,74,40
3,55,74,0
3,60,74,4
3,48,74,28
3,62,74,28
3,53,74,0
3,58,74,24
3,60,74,8
3,57,74,16
3,53,74,108
3,62,74,16
3,58,74,20
3,58,74,108
3,55,74,0
3,63,74,4
3,62,74,76
3,53,74,16
3,60,74,64
3,57,74,16
3,62,74,24
3,58,74,16
3,53,74,0
3,60,74,20
3,53,74,0
3,57,74,24
3,58,74,96
3,55,74,0
3,53,74,72
3,57,74,0
3,60,74,1488
3,46,74,436
3,48,74,16
3,48,74,160
3,55,74,0
3,60,74,0
3,64,74,4
3,48,74,1696
3,62,74,16
3,53,74,16
3,58,74,0
3,60,74,12
3,64,74,0
3,55,74,24
3,62,74,8
3,53,74,0
3,58,74,0
3,60,74,176
3,57,74,16
3,62,74,108
3,53,74,16
3,58,74,0
3,63,74,96
3,55,74,0
3,58,74,0
3,53,74,96
3,62,74,0
3,60,74,56
3,57,74,16
3,62,74,84
3,53,74,4
3,58,74,20
3,60,74,8
3,57,74,0
3,52,74,128
3,58,74,16
3,55,74,4
3,57,74,76
3,53,74,0
3,60,74,1360
3,48,74,16
3,60,74,116
3,48,74,16
3,60,74,32
3,48,74,0
3,64,74,2968
3,67,74,3068
3,70,74,3116
3,48,74,296
3,55,74,0
3,64,74,4
3,60,74,24
3,53,74,24
3,58,74,16
3,62,74,24
3,55,74,8
3,60,74,0
3,64,74,4
3,58,74,12
3,53,74,0
3,62,74,0
3,57,74,244
3,60,74,0
3,60,74,80
3,53,74,0
3,57,74,4
3,58,74,172
3,62,74,0
3,58,74,172
3,63,74,0
3,55,74,0
3,62,74,108
3,53,74,0
3,60,74,84
3,57,74,32
3,62,74,8
3,53,74,16
3,58,74,0
3,60,74,132
3,57,74,0
3,53,74,4
3,58,74,116
3,55,74,16
3,52,74,0
3,57,74,112
3,53,74,16
4,72,90,1924
4,70,85,0
4,76,83,0
4,72,86,80
4,70,83,0
4,76,81,0
4,76,89,464
4,72,91,0
4,70,90,0
4,70,87,80
4,76,85,0
4,72,90,0
4,70,88,452
4,72,90,0
4,76,87,0
4,76,90,96
4,70,90,0
4,72,90,0
4,76,87,464
4,72,92,0
4,70,92,0
4,70,91,92
4,76,86,0
4,72,91,0
4,70,90,472
4,76,84,0
4,72,86,0
4,70,88,104
4,72,88,4
4,76,85,0
4,72,87,492
4,70,85,0
4,76,76,0
4,70,80,108
4,76,70,0
4,72,81,0
4,72,84,488
4,70,81,0
4,76,73,0
4,76,79,104
4,70,83,4
4,72,84,0
4,70,85,472
4,72,86,0
4,76,79,0
4,72,84,100
4,70,84,0
4,76,75,0
4,76,80,488
4,70,85,0
4,72,86,0
4,70,84,92
4,72,86,0
4,76,81,0
4,70,96,464
4,72,93,0
4,76,84,0
4,70,94,104
4,72,95,0
4,76,87,0
4,76,87,476
4,70,96,0
4,72,94,4
4,72,94,92
4,76,90,0
4,70,94,0
4,70,92,472
4,72,90,0
4,76,83,0
4,76,81,104
4,70,88,4
4,72,89,0
4,70,95,476
4,72,92,0
4,76,90,0
4,76,84,92
4,70,89,0
4,72,90,0
4,70,91,476
4,76,86,0
4,72,90,0
4,76,85,104
4,70,91,0
4,72,90,0
4,70,90,484
4,76,84,0
4,72,88,0
4,76,83,108
4,70,91,0
4,72,93,0
