track,note,velocity,time
1,57,127,0
1,60,127,0
1,65,127,0
1,57,127,32
1,60,127,0
1,65,127,0
1,57,127,96
1,60,127,0
1,65,127,0
1,62,127,32
1,58,127,0
1,67,127,0
1,58,127,32
1,62,127,0
1,67,127,0
1,60,127,128
1,57,127,0
1,65,127,0
1,60,127,32
1,65,127,0
1,69,127,0
1,60,127,32
1,65,127,0
1,69,127,0
1,57,127,128
1,60,127,0
1,65,127,0
1,58,127,32
1,62,127,0
1,67,127,0
1,62,127,32
1,58,127,0
1,67,127,0
1,60,127,32
1,65,127,0
1,69,127,0
1,60,127,32
1,65,127,0
1,69,127,0
1,60,127,32
1,57,127,0
1,65,127,0
1,57,127,32
1,60,127,0
1,65,127,0
1,60,127,128
1,57,127,0
1,65,127,0
1,58,127,32
1,62,127,0
1,67,127,0
1,58,127,32
1,62,127,0
1,67,127,0
1,60,127,128
1,57,127,0
1,65,127,0
1,60,127,32
1,65,127,0
1,69,127,0
1,60,127,32
1,65,127,0
1,69,127,0
1,57,127,128
1,60,127,0
1,65,127,0
1,58,127,32
1,62,127,0
1,67,127,0
1,58,127,32
1,62,127,0
1,67,127,0
1,60,127,32
1,65,127,0
1,69,127,0
1,60,127,32
1,65,127,0
1,69,127,0
1,60,127,32
1,57,127,0
1,65,127,0
1,57,127,32
1,60,127,0
1,65,127,0
1,57,127,32
1,53,127,32
1,57,127,0
1,60,127,0
1,58,127,32
1,55,127,0
1,62,127,0
1,55,127,32
1,62,127,0
1,65,127,0
1,53,127,128
1,53,127,32
1,57,127,0
1,57,127,32
1,53,127,0
1,60,127,0
1,62,127,32
1,57,127,32
1,60,127,0
1,65,127,0
1,58,127,32
1,55,127,0
1,62,127,0
1,55,127,32
1,58,127,0
1,53,127,32
1,57,127,0
1,60,127,0
1,53,127,32
1,57,127,0
1,57,127,32
1,60,127,0
1,65,127,0
1,57,127,32
1,60,127,0
1,65,127,0
1,57,127,128
1,60,127,0
1,67,127,32
1,62,127,0
1,70,127,0
1,67,127,32
1,62,127,0
1,70,127,0
1,69,127,32
1,67,127,32
1,57,127,32
1,60,127,0
1,62,127,0
1,57,127,32
1,60,127,0
1,62,127,0
1,65,127,32
1,60,127,32
1,57,127,0
1,62,127,0
1,58,127,32
1,62,127,0
1,67,127,0
1,58,127,32
1,62,127,0
1,57,127,32
1,60,127,0
1,65,127,0
1,57,127,32
1,60,127,0
1,57,127,32
1,60,127,0
1,65,127,0
1,57,127,32
1,60,127,0
1,65,127,0
1,57,127,32
1,53,127,32
1,57,127,0
1,60,127,0
1,55,127,32
1,58,127,0
1,62,127,0
1,55,127,32
1,62,127,0
1,65,127,0
1,53,127,128
1,53,127,32
1,57,127,0
1,57,127,32
1,53,127,0
1,60,127,0
1,62,127,32
1,57,127,32
1,60,127,0
1,65,127,0
1,58,127,32
1,55,127,0
1,62,127,0
1,55,127,32
1,58,127,0
1,57,127,32
1,53,127,0
1,60,127,0
1,53,127,32
1,57,127,0
1,60,127,32
1,57,127,0
1,65,127,0
1,57,127,32
1,60,127,0
1,65,127,0
1,57,127,128
1,60,127,0
1,62,127,32
1,67,127,0
1,70,127,0
1,62,127,32
1,67,127,0
1,69,127,32
1,67,127,32
1,57,127,32
1,60,127,0
1,62,127,0
1,57,127,32
1,60,127,0
1,62,127,0
1,65,127,32
1,60,127,32
1,57,127,0
1,62,127,0
1,58,127,32
1,62,127,0
1,67,127,0
1,58,127,32
1,62,127,0
1,57,127,32
1,60,127,0
1,65,127,0
1,57,127,32
1,60,127,0
1,58,127,32
1,62,127,0
1,67,127,0
1,65,127,128
1,65,127,84
1,63,127,16
1,65,127,16
1,58,127,208
1,62,127,0
1,67,127,0
1,62,127,0
1,65,127,32
1,62,127,32
1,58,127,32
1,63,127,0
1,67,127,0
1,58,127,64
1,63,127,0
1,65,127,0
1,65,127,32
1,57,127,32
1,60,127,0
1,65,127,0
1,57,127,32
1,60,127,0
1,65,127,0
1,57,127,128
1,60,127,0
1,65,127,0
1,58,127,32
1,62,127,0
1,67,127,0
1,58,127,32
1,62,127,0
1,67,127,0
1,60,127,128
1,57,127,0
1,65,127,0
1,60,127,32
1,65,127,0
1,69,127,0
1,60,127,32
1,65,127,0
1,69,127,0
1,60,127,128
1,57,127,0
1,65,127,0
1,58,127,32
1,62,127,0
1,67,127,0
1,58,127,32
1,62,127,0
1,67,127,0
1,60,127,32
1,65,127,0
1,69,127,0
1,60,127,32
1,65,127,0
1,69,127,0
1,57,127,32
1,60,127,0
1,65,127,0
1,57,127,32
1,60,127,0
1,65,127,0
1,57,127,128
1,60,127,0
1,65,127,0
1,58,127,32
1,62,127,0
1,67,127,0
1,58,127,32
1,62,127,0
1,67,127,0
1,57,127,128
1,60,127,0
1,65,127,0
1,60,127,32
1,65,127,0
1,69,127,0
1,60,127,32
1,65,127,0
1,69,127,0
1,57,127,128
1,60,127,0
1,65,127,0
1,58,127,32
1,62,127,0
1,67,127,0
1,58,127,32
1,62,127,0
1,67,127,0
1,60,127,32
1,65,127,0
1,69,127,0
1,60,127,32
1,65,127,0
1,69,127,0
1,60,127,32
1,57,127,0
1,65,127,0
1,57,127,32
1,60,127,0
1,65,127,0
1,57,127,32
1,53,127,32
1,57,127,0
1,60,127,0
1,58,127,32
1,55,127,0
1,62,127,0
1,55,127,32
1,62,127,0
1,65,127,0
1,53,127,128
1,53,127,32
1,57,127,0
1,57,127,32
1,53,127,0
1,60,127,0
1,62,127,32
1,57,127,32
1,60,127,0
1,65,127,0
1,58,127,32
1,55,127,0
1,62,127,0
1,55,127,32
1,58,127,0
1,53,127,32
1,57,127,0
1,60,127,0
1,53,127,32
1,57,127,0
1,57,127,32
1,60,127,0
1,65,127,0
1,57,127,32
1,60,127,0
1,65,127,0
1,57,127,128
1,60,127,0
1,67,127,32
1,62,127,0
1,70,127,0
1,67,127,32
1,62,127,0
1,70,127,0
1,69,127,32
1,67,127,32
1,57,127,32
1,60,127,0
1,62,127,0
1,57,127,32
1,60,127,0
1,62,127,0
1,65,127,32
1,60,127,32
1,57,127,0
1,62,127,0
1,58,127,32
1,62,127,0
1,67,127,0
1,58,127,32
1,62,127,0
1,57,127,32
1,60,127,0
1,65,127,0
1,57,127,32
1,60,127,0
1,57,127,32
1,60,127,0
1,65,127,0
1,57,127,32
1,60,127,0
1,65,127,0
1,57,127,32
1,53,127,32
1,57,127,0
1,60,127,0
1,55,127,32
1,58,127,0
1,62,127,0
1,55,127,32
1,62,127,0
1,65,127,0
1,53,127,128
1,53,127,32
1,57,127,0
1,57,127,32
1,53,127,0
1,60,127,0
1,62,127,32
1,57,127,32
1,60,127,0
1,65,127,0
1,58,127,32
1,55,127,0
1,62,127,0
1,55,127,32
1,58,127,0
1,57,127,32
1,53,127,0
1,60,127,0
1,53,127,32
1,57,127,0
1,60,127,32
1,57,127,0
1,65,127,0
1,57,127,32
1,60,127,0
1,65,127,0
1,57,127,128
1,60,127,0
1,62,127,32
1,67,127,0
1,70,127,0
1,62,127,32
1,67,127,0
1,69,127,32
1,67,127,32
1,57,127,32
1,60,127,0
1,62,127,0
1,57,127,32
1,60,127,0
1,62,127,0
1,65,127,32
1,60,127,32
1,57,127,0
1,62,127,0
1,58,127,32
1,62,127,0
1,67,127,0
1,58,127,32
1,62,127,0
1,57,127,32
1,60,127,0
1,65,127,0
1,57,127,32
1,60,127,0
1,58,127,32
1,62,127,0
1,67,127,0
1,65,127,128
1,65,127,84
1,63,127,16
1,65,127,16
1,58,127,208
1,62,127,0
1,67,127,0
1,62,127,0
1,65,127,32
1,62,127,32
1,58,127,32
1,63,127,0
1,67,127,0
1,58,127,64
1,63,127,0
1,65,127,0
1,65,127,32
1,57,127,32
1,60,127,0
1,65,127,0
1,57,127,0
1,60,127,0
1,65,127,0
1,57,127,96
1,60,127,0
1,65,127,0
1,62,127,0
1,58,127,0
1,67,127,0
1,58,127,0
1,62,127,0
1,67,127,0
1,57,127,96
1,60,127,0
1,65,127,0
1,60,127,0
1,65,127,0
1,69,127,0
1,60,127,0
1,65,127,0
1,69,127,0
1,57,127,96
1,60,127,0
1,65,127,0
1,62,127,0
1,58,127,0
1,67,127,0
1,58,127,0
1,62,127,0
1,67,127,0
1,60,127,0
1,65,127,0
1,69,127,0
1,60,127,0
1,60,127,0
1,64,127,0
1,69,127,0
1,60,127,0
1,64,127,0
1,69,127,0
1,60,127,0
1,64,127,0
1,69,127,0
1,64,127,0
1,60,127,0
1,67,127,0
1,64,127,0
1,60,127,0
1,67,127,0
1,60,127,16
1,64,127,0
1,62,127,16
1,65,127,0
1,69,127,0
1,62,127,16
1,65,127,0
1,58,127,16
1,62,127,0
1,67,127,0
1,58,127,0
1,62,127,0
1,65,127,0
1,58,127,0
1,62,127,0
1,65,127,0
1,58,127,0
1,62,127,0
1,58,127,0
1,62,127,0
1,67,127,0
1,58,127,16
1,62,127,0
1,58,127,16
1,62,127,0
1,65,127,0
1,58,127,16
1,62,127,0
1,60,127,16
1,64,127,0
1,69,127,0
1,64,127,16
1,60,127,0
1,69,127,0
1,64,127,16
1,60,127,0
1,69,127,0
1,60,127,16
1,64,127,0
1,67,127,0
1,60,127,16
1,64,127,0
1,67,127,0
1,62,127,16
1,65,127,16
1,62,127,32
1,65,127,0
1,70,127,0
1,62,127,0
1,65,127,0
1,70,127,0
1,62,127,0
1,65,127,0
1,70,127,0
1,62,127,0
1,65,127,0
1,70,127,0
1,67,127,0
1,65,127,0
1,65,127,0
1,59,127,0
1,62,127,0
1,67,127,0
1,59,127,0
1,62,127,0
1,67,127,0
1,59,127,96
1,62,127,0
1,67,127,0
1,60,127,0
1,64,127,0
1,69,127,0
1,60,127,0
1,64,127,0
1,69,127,0
1,59,127,96
1,62,127,0
1,67,127,0
1,62,127,0
1,67,127,0
1,71,127,0
1,67,127,0
1,62,127,0
1,71,127,0
1,59,127,96
1,62,127,0
1,67,127,0
1,60,127,0
1,64,127,0
1,69,127,0
1,60,127,0
1,64,127,0
1,69,127,0
1,67,127,0
1,62,127,0
1,71,127,0
1,62,127,0
1,67,127,0
1,71,127,0
1,59,127,0
1,62,127,0
1,67,127,0
1,62,127,16
1,59,127,0
1,67,127,0
1,59,127,112
1,62,127,0
1,67,127,0
1,60,127,16
1,64,127,0
1,69,127,0
1,64,127,16
1,60,127,0
1,69,127,0
1,59,127,112
1,62,127,0
1,67,127,0
1,62,127,16
1,67,127,0
1,71,127,0
1,62,127,16
1,67,127,0
1,71,127,0
1,59,127,112
1,62,127,0
1,67,127,0
1,60,127,16
1,64,127,0
1,69,127,0
1,64,127,16
1,60,127,0
1,69,127,0
1,62,127,16
1,67,127,0
1,71,127,0
1,67,127,16
1,62,127,0
1,71,127,0
1,59,127,16
1,62,127,0
1,67,127,0
1,59,127,0
1,62,127,0
1,67,127,0
1,59,127,0
1,55,127,0
1,59,127,0
1,62,127,0
1,57,127,0
1,60,127,0
1,64,127,0
1,57,127,0
1,64,127,0
1,67,127,0
1,55,127,96
1,55,127,0
1,59,127,0
1,59,127,0
1,55,127,0
1,62,127,0
1,64,127,0
1,59,127,0
1,62,127,0
1,67,127,0
1,57,127,0
1,60,127,0
1,64,127,0
1,57,127,0
1,60,127,0
1,55,127,0
1,59,127,0
1,62,127,0
1,55,127,0
1,59,127,0
1,59,127,0
1,62,127,0
1,67,127,0
1,59,127,0
1,62,127,0
1,67,127,0
1,59,127,96
1,62,127,0
1,64,127,0
1,69,127,0
1,72,127,0
1,64,127,0
1,69,127,0
1,71,127,0
1,69,127,0
1,59,127,0
1,62,127,0
1,64,127,0
1,59,127,0
1,62,127,0
1,64,127,0
1,67,127,0
1,62,127,0
1,59,127,0
1,64,127,0
1,60,127,0
1,64,127,0
1,69,127,0
1,60,127,0
1,64,127,0
1,59,127,0
1,62,127,0
1,67,127,0
1,59,127,0
1,62,127,0
1,59,127,0
1,62,127,0
1,67,127,0
1,59,127,0
1,62,127,0
1,67,127,0
1,59,127,0
1,55,127,0
1,59,127,0
1,62,127,0
1,57,127,0
1,60,127,0
1,64,127,0
1,57,127,0
1,64,127,0
1,67,127,0
1,55,127,96
1,55,127,0
1,59,127,0
1,59,127,0
1,55,127,0
1,62,127,0
1,64,127,0
1,62,127,0
1,59,127,0
1,67,127,0
1,57,127,0
1,60,127,0
1,64,127,0
1,57,127,0
1,60,127,0
1,55,127,0
1,59,127,0
1,62,127,0
1,55,127,0
1,59,127,0
1,59,127,0
1,62,127,0
1,67,127,0
1,59,127,0
1,62,127,0
1,67,127,0
1,59,127,96
1,62,127,0
1,64,127,0
1,69,127,0
1,72,127,0
1,69,127,0
1,64,127,0
1,72,127,0
1,71,127,0
1,69,127,0
1,59,127,0
1,62,127,0
1,64,127,0
1,59,127,0
1,62,127,0
1,64,127,0
1,67,127,0
1,59,127,0
1,62,127,0
1,64,127,0
1,60,127,0
1,64,127,0
1,69,127,0
1,60,127,0
1,64,127,0
1,59,127,0
1,62,127,0
1,67,127,0
1,59,127,0
1,62,127,0
1,60,127,0
1,64,127,0
1,69,127,0
1,67,127,96
1,67,127,72
1,65,127,0
1,67,127,0
1,60,127,192
1,64,127,0
1,69,127,0
1,64,127,0
1,67,127,0
1,64,127,0
1,62,127,0
1,65,127,0
1,69,127,96
1,62,127,0
1,65,127,0
1,67,127,0
1,59,127,0
1,62,127,0
1,67,127,0
1,62,127,16
1,59,127,0
1,67,127,0
1,59,127,112
1,62,127,0
1,67,127,0
1,60,127,16
1,64,127,0
1,69,127,0
1,64,127,16
1,60,127,0
1,69,127,0
1,59,127,112
1,62,127,0
1,67,127,0
1,62,127,16
1,67,127,0
1,71,127,0
1,62,127,0
1,67,127,0
1,71,127,0
1,59,127,96
1,62,127,0
1,67,127,0
1,60,127,0
1,64,127,0
1,69,127,0
1,64,127,0
1,60,127,0
1,69,127,0
1,67,127,0
1,62,127,0
1,71,127,0
1,62,127,0
1,62,127,0
1,66,127,0
1,71,127,0
1,62,127,0
1,66,127,0
1,71,127,0
1,66,127,0
1,62,127,0
1,71,127,0
1,62,127,0
1,66,127,0
1,69,127,0
1,62,127,0
1,66,127,0
1,69,127,0
1,62,127,0
1,66,127,0
1,64,127,0
1,67,127,0
1,71,127,0
1,64,127,0
1,67,127,0
1,64,127,0
1,60,127,0
1,69,127,0
1,60,127,0
1,64,127,0
1,67,127,0
1,64,127,0
1,60,127,0
1,67,127,0
1,60,127,0
1,64,127,0
1,60,127,0
1,64,127,0
1,69,127,0
1,60,127,0
1,64,127,0
1,60,127,0
1,64,127,0
1,67,127,0
1,60,127,0
1,64,127,0
1,62,127,0
1,66,127,0
1,71,127,0
1,62,127,0
1,66,127,0
1,71,127,0
1,62,127,0
1,66,127,0
1,71,127,0
1,69,127,0
1,67,127,0
1,62,127,0
1,66,127,0
1,69,127,0
1,62,127,0
1,66,127,0
1,62,127,0
1,66,127,0
1,71,127,0
1,62,127,0
1,66,127,0
1,64,127,0
1,67,127,0
1,72,127,0
1,67,127,0
1,64,127,0
1,72,127,0
1,64,127,0
1,67,127,0
1,72,127,0
1,67,127,0
1,64,127,0
1,72,127,0
1,69,127,0
1,67,127,0
1,67,127,0
1,77,127,0
1,81,127,0
1,86,127,0
1,84,127,16
1,81,127,0
1,77,127,16
1,79,127,16
1,80,127,16
1,79,127,4
1,77,127,36
1,74,127,16
1,72,127,16
1,68,127,0
1,72,127,0
1,74,127,0
1,77,127,8
1,77,127,8
1,77,127,16
1,74,127,0
1,77,127,48
1,70,127,0
1,79,127,0
1,74,127,0
1,77,127,0
1,77,127,0
1,81,127,0
1,86,127,0
1,84,127,16
1,81,127,16
1,77,127,16
1,79,127,16
1,80,127,16
1,79,127,4
1,77,127,36
1,74,127,16
1,72,127,16
1,68,127,0
1,72,127,0
1,74,127,0
1,77,127,8
1,77,127,8
1,79,127,16
1,80,127,16
1,79,127,4
1,77,127,36
1,79,127,0
1,82,127,0
1,86,127,0
1,84,127,0
1,77,127,0
