track,note,velocity,time
1,39,127,0
1,39,127,192
1,34,127,0
1,36,127,576
1,36,127,0
1,32,127,384
1,34,127,192
1,39,127,0
1,39,127,192
1,34,127,0
1,36,127,576
1,36,127,0
1,32,127,384
1,34,127,0
1,36,127,0
1,36,127,192
1,31,127,0
1,31,127,192
1,36,127,0
1,36,127,0
1,36,127,192
1,34,127,192
1,34,127,0
1,39,127,0
1,39,127,0
1,39,127,768
1,43,127,0
1,44,127,0
1,44,127,0
1,46,127,768
1,46,127,0
1,39,127,0
1,39,127,0
1,39,127,768
1,43,127,0
1,44,127,0
1,44,127,0
1,44,127,768
1,43,127,0
1,41,127,0
1,41,127,0
1,32,127,768
1,34,127,0
1,36,127,0
1,36,127,0
1,34,127,192
1,36,127,0
1,36,127,384
1,29,127,0
1,29,127,0
1,29,127,192
1,29,127,0
1,34,127,192
1,36,127,0
1,36,127,0
1,36,127,192
1,34,127,0
1,34,127,0
1,39,127,0
1,39,127,0
1,39,127,768
1,43,127,0
1,44,127,0
1,44,127,0
1,46,127,576
1,46,127,0
1,39,127,0
1,39,127,0
1,39,127,576
1,41,127,0
1,43,127,0
1,44,127,0
1,44,127,0
1,44,127,192
1,44,127,0
1,44,127,0
1,43,127,0
1,41,127,0
1,41,127,0
1,44,127,768
1,46,127,0
1,48,127,0
1,48,127,0
1,48,127,192
1,36,127,576
1,41,127,0
1,41,127,0
1,41,127,192
1,43,127,576
1,36,127,0
1,36,127,0
1,36,127,192
1,34,127,0
1,34,127,192
1,39,127,0
1,39,127,192
1,34,127,0
1,34,127,192
1,36,127,0
1,36,127,192
1,32,127,0
1,34,127,0
1,39,127,0
1,39,127,192
1,34,127,0
1,34,127,192
1,36,127,0
1,36,127,192
1,32,127,0
1,32,127,0
1,39,127,0
1,39,127,192
1,34,127,0
1,34,127,192
1,36,127,0
1,36,127,0
1,32,127,384
1,34,127,192
1,39,127,0
1,39,127,192
1,34,127,0
1,34,127,192
1,36,127,0
1,36,127,0
1,34,127,960
1,36,127,0
1,36,127,0
1,36,127,384
1,36,127,0
1,34,127,0
1,39,127,0
1,39,127,0
1,39,127,768
1,43,127,0
1,44,127,0
1,44,127,0
1,46,127,576
1,46,127,0
1,39,127,0
1,39,127,0
1,39,127,576
1,41,127,0
1,43,127,0
1,44,127,0
1,44,127,0
1,44,127,192
1,44,127,0
1,44,127,0
1,43,127,0
1,41,127,0
1,41,127,0
1,44,127,768
1,46,127,0
1,48,127,0
1,48,127,0
1,48,127,192
1,36,127,576
1,41,127,0
1,41,127,0
1,41,127,192
1,43,127,576
1,36,127,0
1,36,127,0
1,36,127,192
1,34,127,0
1,34,127,192
1,39,127,0
1,39,127,192
1,34,127,0
1,34,127,192
1,36,127,0
1,36,127,192
1,32,127,0
1,34,127,0
1,39,127,0
1,39,127,192
1,34,127,0
1,34,127,192
1,36,127,0
1,36,127,192
1,32,127,0
1,32,127,0
1,39,127,0
1,39,127,192
1,34,127,0
1,34,127,192
1,36,127,0
1,36,127,0
1,32,127,384
1,34,127,192
1,39,127,0
1,39,127,192
1,34,127,0
1,34,127,192
1,36,127,0
1,36,127,0
1,34,127,960
1,36,127,0
1,36,127,0
1,36,127,384
1,36,127,0
1,34,127,0
1,36,127,0
1,36,127,192
1,36,127,0
1,34,127,384
1,34,127,192
1,34,127,0
1,32,127,384
1,32,127,192
1,32,127,0
1,31,127,384
1,31,127,192
1,31,127,0
1,36,127,384
1,36,127,192
1,36,127,0
1,34,127,384
1,34,127,0
1,34,127,0
1,32,127,384
1,32,127,0
1,32,127,0
1,31,127,384
1,31,127,192
1,34,127,0
1,34,127,0
1,39,127,0
1,39,127,192
1,34,127,0
1,34,127,192
1,36,127,0
1,36,127,192
1,32,127,0
1,34,127,192
1,39,127,0
1,39,127,192
1,34,127,0
1,34,127,192
1,36,127,0
1,36,127,0
1,32,127,384
1,34,127,0
1,36,127,0
1,39,127,192
1,34,127,0
1,34,127,192
1,36,127,0
1,36,127,192
1,32,127,0
1,34,127,192
1,39,127,0
1,39,127,192
1,34,127,0
1,34,127,192
1,36,127,0
1,36,127,0
1,36,127,192
1,32,127,0
1,34,127,0
1,39,127,0
1,39,127,192
1,34,127,0
1,34,127,192
1,36,127,0
1,36,127,32
1,32,127,0
1,34,127,16
1,39,127,0
1,39,127,16
1,34,127,0
1,34,127,80
1,36,127,0
1,36,127,0
1,32,127,32
1,34,127,0
1,36,127,0
1,39,127,64
1,34,127,0
1,34,127,64
1,36,127,0
1,36,127,48
1,32,127,0
1,34,127,48
1,39,127,0
1,39,127,32
1,34,127,0
1,34,127,32
2,75,127,0
2,67,127,0
2,70,127,0
2,75,127,0
2,79,127,0
2,75,127,0
2,70,127,0
2,67,127,0
2,74,127,0
2,65,127,0
2,70,127,0
2,74,127,0
2,77,127,0
2,74,127,0
2,70,127,0
2,65,127,0
2,75,127,0
2,67,127,0
2,72,127,0
2,75,127,0
2,79,127,0
2,75,127,0
2,72,127,0
2,67,127,0
2,79,127,0
2,75,127,0
2,79,127,0
2,75,127,0
2,80,127,0
2,77,127,0
2,82,127,0
2,79,127,0
2,79,127,0
2,75,127,0
2,79,127,0
2,75,127,0
2,67,127,0
2,70,127,0
2,75,127,0
2,79,127,0
2,75,127,0
2,70,127,0
2,67,127,0
2,74,127,0
2,65,127,0
2,70,127,0
2,74,127,0
2,77,127,0
2,74,127,0
2,70,127,0
2,65,127,0
2,75,127,0
2,67,127,0
2,72,127,0
2,75,127,0
2,79,127,0
2,75,127,0
2,72,127,0
2,67,127,0
2,79,127,0
2,75,127,0
2,79,127,0
2,75,127,0
2,80,127,0
2,77,127,0
2,82,127,0
2,79,127,0
2,79,127,0
2,75,127,0
2,79,127,0
2,75,127,0
2,67,127,0
2,72,127,0
2,75,127,0
2,79,127,0
2,75,127,0
2,72,127,0
2,67,127,0
2,72,127,0
2,67,127,0
2,72,127,0
2,75,127,0
2,79,127,0
2,75,127,0
2,72,127,0
2,67,127,0
2,72,127,0
2,67,127,0
2,72,127,0
2,75,127,0
2,79,127,0
2,75,127,0
2,72,127,0
2,67,127,0
2,77,127,0
2,74,127,0
2,70,127,0
2,65,127,0
2,74,127,0
2,65,127,0
2,70,127,0
2,74,127,0
2,75,127,0
2,67,127,0
2,70,127,0
2,75,127,0
2,79,127,0
2,75,127,0
2,70,127,0
2,67,127,0
2,75,127,0
2,67,127,0
2,70,127,0
2,75,127,0
2,79,127,0
2,75,127,0
2,70,127,0
2,67,127,0
2,75,127,0
2,68,127,0
2,72,127,0
2,75,127,0
2,80,127,0
2,75,127,0
2,72,127,0
2,68,127,0
2,75,127,0
2,68,127,0
2,72,127,0
2,75,127,0
2,80,127,0
2,75,127,0
2,72,127,0
2,68,127,0
2,75,127,0
2,67,127,0
2,70,127,0
2,75,127,0
2,79,127,0
2,75,127,0
2,70,127,0
2,67,127,0
2,75,127,0
2,67,127,0
2,70,127,0
2,75,127,0
2,79,127,0
2,75,127,0
2,70,127,0
2,67,127,0
2,75,127,0
2,68,127,0
2,72,127,0
2,75,127,0
2,80,127,0
2,75,127,0
2,72,127,0
2,68,127,0
2,75,127,0
2,68,127,0
2,72,127,0
2,75,127,0
2,80,127,0
2,75,127,0
2,72,127,0
2,68,127,0
2,75,127,0
2,68,127,0
2,72,127,0
2,77,127,0
2,80,127,0
2,77,127,0
2,72,127,0
2,68,127,0
2,77,127,0
2,68,127,0
2,72,127,0
2,77,127,0
2,80,127,96
2,77,127,0
2,72,127,0
2,68,127,0
2,75,127,0
2,67,127,0
2,70,127,0
2,75,127,0
2,79,127,0
2,75,127,0
2,70,127,0
2,67,127,0
2,75,127,0
2,67,127,0
2,70,127,0
2,75,127,0
2,79,127,0
2,75,127,0
2,70,127,0
2,67,127,0
2,75,127,0
2,68,127,0
2,72,127,0
2,77,127,0
2,80,127,0
2,77,127,0
2,72,127,0
2,68,127,0
2,77,127,0
2,68,127,0
2,72,127,0
2,77,127,0
2,80,127,96
2,77,127,0
2,72,127,0
2,68,127,0
2,75,127,0
2,67,127,0
2,70,127,0
2,75,127,0
2,79,127,0
2,75,127,0
2,70,127,0
2,67,127,0
2,74,127,0
2,65,127,0
2,70,127,0
2,74,127,0
2,77,127,0
2,74,127,0
2,70,127,0
2,65,127,0
2,75,127,0
2,67,127,0
2,70,127,0
2,75,127,0
2,79,127,0
2,75,127,0
2,70,127,0
2,67,127,0
2,75,127,0
2,67,127,0
2,70,127,0
2,75,127,0
2,79,127,96
2,75,127,0
2,70,127,0
2,67,127,0
2,75,127,0
2,68,127,0
2,72,127,0
2,75,127,0
2,80,127,0
2,75,127,0
2,72,127,0
2,68,127,0
2,75,127,0
2,68,127,0
2,72,127,0
2,75,127,0
2,80,127,0
2,75,127,0
2,72,127,0
2,68,127,0
2,75,127,0
2,67,127,0
2,70,127,0
2,75,127,0
2,79,127,0
2,75,127,0
2,70,127,0
2,67,127,0
2,75,127,0
2,67,127,0
2,70,127,0
2,75,127,0
2,79,127,0
2,75,127,0
2,70,127,0
2,67,127,0
2,75,127,0
2,68,127,0
2,72,127,0
2,75,127,0
2,80,127,0
2,75,127,0
2,72,127,0
2,68,127,0
2,75,127,0
2,68,127,0
2,72,127,0
2,75,127,0
2,80,127,0
2,75,127,0
2,72,127,0
2,68,127,0
2,75,127,0
2,68,127,0
2,72,127,0
2,77,127,0
2,80,127,0
2,77,127,0
2,72,127,0
2,68,127,0
2,77,127,0
2,68,127,0
2,72,127,0
2,77,127,0
2,80,127,0
2,77,127,0
2,72,127,0
2,68,127,0
2,75,127,0
2,67,127,0
2,70,127,0
2,75,127,0
2,79,127,0
2,75,127,0
2,70,127,0
2,67,127,0
2,75,127,0
2,67,127,0
2,70,127,0
2,75,127,0
2,79,127,0
2,75,127,0
2,70,127,0
2,67,127,0
2,75,127,0
2,68,127,0
2,72,127,0
2,77,127,0
2,80,127,0
2,77,127,0
2,72,127,0
2,68,127,0
2,77,127,0
2,68,127,0
2,72,127,0
2,77,127,0
2,80,127,0
2,77,127,0
2,72,127,0
2,68,127,0
2,75,127,0
2,67,127,0
2,72,127,0
2,75,127,0
2,79,127,0
2,75,127,0
2,72,127,0
2,67,127,0
2,79,127,0
2,75,127,0
2,79,127,0
2,75,127,0
2,80,127,0
2,77,127,0
2,82,127,0
2,79,127,0
2,79,127,0
2,75,127,0
2,79,127,0
2,75,127,0
2,67,127,0
2,70,127,0
2,75,127,0
2,79,127,0
2,75,127,0
2,70,127,0
2,67,127,0
2,74,127,0
2,65,127,0
2,70,127,0
2,74,127,0
2,77,127,0
2,74,127,0
2,70,127,0
2,65,127,0
2,75,127,0
2,67,127,0
2,72,127,0
2,75,127,0
2,79,127,0
2,75,127,0
2,72,127,0
2,67,127,0
2,79,127,0
2,75,127,0
2,79,127,0
2,75,127,0
2,80,127,0
2,77,127,0
2,82,127,0
2,79,127,0
2,79,127,0
2,75,127,0
2,79,127,0
2,75,127,0
2,67,127,0
2,70,127,0
2,75,127,0
2,79,127,0
2,75,127,0
2,70,127,0
2,67,127,0
2,74,127,0
2,65,127,0
2,70,127,0
2,74,127,0
2,77,127,0
2,74,127,0
2,70,127,0
2,65,127,0
2,75,127,0
2,67,127,0
2,72,127,0
2,75,127,0
2,79,127,0
2,75,127,0
2,72,127,0
2,67,127,0
2,79,127,0
2,75,127,0
2,79,127,0
2,75,127,0
2,80,127,0
2,77,127,0
2,82,127,0
2,79,127,0
2,79,127,0
2,75,127,0
2,79,127,0
2,75,127,0
2,67,127,0
2,70,127,0
2,75,127,0
2,79,127,0
2,75,127,0
2,70,127,0
2,67,127,0
2,74,127,0
2,65,127,0
2,70,127,0
2,74,127,0
2,77,127,0
2,74,127,0
2,70,127,0
2,65,127,0
2,75,127,0
2,67,127,0
2,72,127,0
2,75,127,0
2,79,127,0
2,75,127,0
2,72,127,0
2,67,127,0
2,79,127,0
2,75,127,0
2,79,127,0
2,75,127,0
2,80,127,0
2,77,127,0
2,82,127,0
2,79,127,0
2,79,127,0
2,75,127,0
2,79,127,0
2,75,127,0
2,67,127,0
2,70,127,0
2,75,127,0
2,79,127,0
2,75,127,0
2,70,127,0
2,67,127,0
2,74,127,0
2,65,127,0
2,70,127,0
2,74,127,0
2,77,127,0
2,74,127,0
2,70,127,0
2,65,127,0
2,75,127,0
2,67,127,0
2,72,127,0
2,75,127,0
2,79,127,0
2,75,127,0
2,72,127,0
2,67,127,0
2,75,127,0
2,67,127,0
2,72,127,0
2,75,127,0
2,79,127,0
2,75,127,0
2,72,127,0
2,67,127,0
2,75,127,0
2,67,127,0
2,72,127,0
2,75,127,0
2,79,127,0
2,75,127,0
2,72,127,0
2,67,127,0
2,75,127,0
2,67,127,0
2,72,127,0
2,75,127,0
2,77,127,0
2,74,127,0
2,70,127,0
2,65,127,0
2,75,127,0
2,67,127,0
2,70,127,0
2,75,127,0
2,79,127,0
2,75,127,0
2,70,127,0
2,67,127,0
2,75,127,0
2,67,127,0
2,70,127,0
2,75,127,0
2,79,127,96
2,75,127,0
2,70,127,0
2,67,127,0
2,75,127,0
2,68,127,0
2,72,127,0
2,75,127,0
2,80,127,0
2,75,127,0
2,72,127,0
2,68,127,0
2,75,127,0
2,68,127,0
2,72,127,0
2,75,127,0
2,80,127,0
2,75,127,0
2,72,127,0
2,68,127,0
2,75,127,0
2,67,127,0
2,70,127,0
2,75,127,0
2,79,127,0
2,75,127,0
2,70,127,0
2,67,127,0
2,75,127,0
2,67,127,0
2,70,127,0
2,75,127,0
2,79,127,0
2,75,127,0
2,70,127,0
2,67,127,0
2,75,127,0
2,68,127,0
2,72,127,0
2,75,127,0
2,80,127,0
2,75,127,0
2,72,127,0
2,68,127,0
2,75,127,0
2,68,127,0
2,72,127,0
2,75,127,0
2,80,127,0
2,75,127,0
2,72,127,0
2,68,127,0
2,75,127,0
2,68,127,0
2,72,127,0
2,77,127,0
2,80,127,0
2,77,127,0
2,72,127,0
2,68,127,0
2,77,127,0
2,68,127,0
2,72,127,0
2,77,127,0
2,80,127,0
2,77,127,0
2,72,127,0
2,68,127,0
2,75,127,0
2,67,127,0
2,70,127,0
2,75,127,0
2,79,127,0
2,75,127,0
2,70,127,0
2,67,127,0
2,75,127,0
2,67,127,0
2,70,127,0
2,75,127,0
2,79,127,0
2,75,127,0
2,70,127,0
2,67,127,0
2,75,127,0
2,68,127,0
2,72,127,0
2,77,127,0
2,80,127,0
2,77,127,0
2,72,127,0
2,68,127,0
2,77,127,0
2,68,127,0
2,72,127,0
2,77,127,0
2,80,127,0
2,77,127,0
2,72,127,0
2,68,127,0
2,75,127,0
2,67,127,0
2,72,127,0
2,75,127,0
2,79,127,0
2,75,127,0
2,72,127,0
2,67,127,0
2,79,127,0
2,75,127,0
2,79,127,0
2,75,127,0
2,80,127,0
2,77,127,0
2,82,127,0
2,79,127,0
2,79,127,0
2,75,127,0
2,79,127,0
2,75,127,0
2,67,127,0
2,70,127,0
2,75,127,0
2,79,127,0
2,75,127,0
2,70,127,0
2,67,127,0
2,74,127,0
2,65,127,0
2,70,127,0
2,74,127,0
2,77,127,0
2,74,127,0
2,70,127,0
2,65,127,0
2,75,127,0
2,67,127,0
2,72,127,0
2,75,127,0
2,79,127,0
2,75,127,0
2,72,127,0
2,67,127,0
2,79,127,0
2,75,127,0
2,79,127,0
2,75,127,0
2,80,127,0
2,77,127,0
2,82,127,0
2,79,127,0
2,79,127,0
2,75,127,0
2,79,127,0
2,75,127,0
2,67,127,0
2,70,127,0
2,75,127,0
2,79,127,0
2,75,127,0
2,70,127,0
2,67,127,0
2,74,127,0
2,65,127,0
2,70,127,0
2,74,127,0
2,77,127,0
2,74,127,0
2,70,127,0
2,65,127,0
2,75,127,0
2,67,127,0
2,72,127,0
2,75,127,0
2,79,127,0
2,75,127,0
2,72,127,0
2,67,127,0
2,79,127,0
2,75,127,0
2,79,127,0
2,75,127,0
2,80,127,0
2,77,127,0
2,82,127,0
2,79,127,0
